<?xml version="1.0" standalone="no"?>
<!DOCTYPE svg PUBLIC "-//W3C//DTD SVG 20010904//EN"
 "http://www.w3.org/TR/2001/REC-SVG-20010904/DTD/svg10.dtd">
<svg version="1.0" xmlns="http://www.w3.org/2000/svg"
 width="1280.000000pt" height="720.000000pt" viewBox="0 0 1280.000000 720.000000"
 preserveAspectRatio="xMidYMid meet">
<metadata>
Created by potrace 1.16, written by Peter Selinger 2001-2019
</metadata>
<g transform="translate(0.000000,720.000000) scale(0.100000,-0.100000)"
fill="#000000" stroke="none">
<path d="M0 4071 c0 -2494 3 -3130 13 -3134 9 -4 9 -6 0 -6 -10 -1 -13 -75
-13 -335 l0 -335 23 -4 22 -4 -22 -8 c-22 -7 -23 -12 -23 -126 l0 -119 1883 0
1882 0 98 146 c70 105 96 151 92 165 -4 13 -2 19 9 19 29 0 16 -29 -75 -165
-49 -75 -93 -143 -96 -151 -4 -12 17 -14 128 -14 l134 0 82 138 c45 75 89 146
98 157 22 26 -36 -80 -95 -175 -26 -41 -52 -85 -59 -97 l-12 -23 85 0 85 0 66
125 c37 69 70 125 75 125 5 0 -22 -56 -60 -125 l-68 -125 332 0 332 0 40 114
c39 111 40 113 19 122 -32 14 -24 28 23 38 29 6 51 5 68 -3 31 -14 24 -28 -21
-37 -32 -6 -35 -10 -74 -115 -23 -60 -41 -112 -41 -114 0 -3 42 -5 93 -5 63 0
112 6 157 20 81 25 104 24 30 0 l-55 -19 66 0 c52 -1 68 2 73 15 9 22 8 24
-11 25 -15 0 -14 2 3 9 17 7 29 38 64 161 24 85 43 160 44 168 1 8 -10 18 -24
22 -41 12 8 10 55 -2 146 -37 151 -42 28 -23 -40 6 -42 5 -49 -22 -8 -34 -74
-261 -82 -282 -4 -12 0 -14 21 -8 64 15 78 14 27 -2 -41 -13 -56 -23 -58 -39
-3 -21 -2 -21 220 -20 123 0 201 3 173 6 l-50 6 59 12 c64 14 90 8 60 -14 -16
-12 24 -14 291 -11 171 2 319 7 330 12 16 6 17 6 5 -3 -11 -8 30 -11 152 -11
l167 0 4 27 4 28 2 -27 1 -28 580 0 c357 0 580 4 580 9 0 6 -12 42 -26 81 -18
48 -34 75 -48 80 -13 5 -15 9 -6 9 30 1 45 -20 71 -96 l26 -78 935 -2 936 -3
56 25 c64 28 75 25 19 -4 l-38 -20 1492 -1 1493 0 0 2091 c0 1875 -1 2090 -15
2079 -13 -11 -14 -10 -9 6 4 10 -17 -6 -45 -36 -28 -30 -51 -52 -51 -48 0 23
51 95 83 116 l37 25 0 1483 0 1484 -6400 0 -6400 0 0 -3129z m10046 2257 c47
-32 109 -103 139 -160 16 -28 34 -133 41 -232 2 -32 8 -81 12 -110 8 -47 6
-53 -15 -71 -12 -11 -23 -28 -23 -37 0 -39 -156 -374 -185 -398 -10 -8 -6 3 9
24 14 21 26 46 26 55 0 9 9 34 19 56 l18 40 -43 3 c-33 2 -48 -2 -64 -18 -23
-23 -38 -25 -64 -5 -10 8 -24 12 -30 8 -6 -3 -5 0 2 8 10 11 16 11 35 0 18
-11 20 -11 10 0 -7 7 -13 15 -13 19 0 3 40 4 90 4 66 -1 90 2 90 11 0 6 8 19
18 29 17 14 49 95 40 99 -2 1 -12 7 -23 13 -19 10 -20 8 -17 -31 3 -28 -1 -45
-11 -54 -10 -8 -17 -9 -22 -1 -3 5 -1 10 4 10 21 0 11 16 -11 17 -13 1 -33 5
-45 8 -36 9 -27 -12 17 -43 39 -27 50 -42 29 -42 -14 0 -104 88 -97 95 3 3 28
8 56 12 35 4 49 9 45 19 -6 15 -34 27 -30 13 1 -6 -10 -13 -26 -14 -15 -2 -25
0 -22 5 3 5 0 12 -6 15 -6 4 -13 -2 -16 -14 -3 -11 -9 -18 -14 -15 -5 3 -9 -6
-9 -20 0 -18 -5 -26 -17 -26 -12 0 -14 3 -6 8 6 4 14 24 18 44 l7 38 -69 -3
c-65 -1 -72 1 -111 32 -23 18 -42 30 -42 26 0 -12 35 -60 60 -82 l25 -22 -22
-1 c-13 0 -23 4 -23 10 0 11 -20 38 -73 93 -20 22 -35 42 -32 45 2 3 13 -6 24
-19 16 -19 22 -22 32 -11 10 9 10 15 1 24 -7 7 -12 18 -12 26 0 12 3 12 15 2
12 -10 15 -9 15 4 0 18 15 47 43 85 21 29 22 48 2 31 -12 -10 -15 -10 -15 4 0
9 6 16 13 16 7 0 26 13 42 30 15 16 32 27 37 24 19 -12 6 16 -14 31 -22 15
-24 14 -50 -17 -16 -18 -28 -38 -28 -44 0 -6 -9 -14 -20 -17 -17 -4 -20 0 -20
26 0 29 1 30 15 11 8 -10 15 -14 15 -9 0 6 14 26 30 44 29 31 30 34 13 47 -17
12 -16 13 8 14 18 0 28 -6 32 -19 5 -21 47 -49 47 -31 0 6 -7 13 -15 16 -8 4
-15 12 -15 19 0 8 -10 17 -21 20 -17 6 -19 9 -8 16 12 7 11 14 -5 44 -18 34
-44 43 -38 14 1 -8 -5 -5 -13 6 -14 17 -17 18 -26 5 -9 -13 -10 -13 -5 0 3 8
9 23 12 33 4 9 13 17 20 17 8 0 14 4 14 8 0 5 6 16 13 25 11 15 12 14 12 -13
0 -16 -4 -30 -8 -30 -5 0 -6 -4 -2 -9 3 -6 19 3 36 20 23 22 29 35 23 52 -6
21 -6 21 12 6 42 -36 56 -36 25 -1 -14 17 -30 22 -66 22 -58 0 -56 9 2 12 34
1 49 -5 84 -36 24 -20 48 -35 54 -33 5 2 26 -2 45 -10 19 -7 25 -12 14 -9 -38
6 -50 -9 -30 -38 14 -22 14 -26 2 -26 -8 0 -18 9 -21 20 -7 23 -15 25 -36 8
-43 -36 -44 -47 -9 -83 40 -41 33 -45 -18 -10 -42 29 -52 31 -52 11 0 -21 21
-31 31 -15 6 9 8 3 5 -18 -3 -33 8 -51 32 -47 6 1 24 2 38 3 21 1 25 5 21 21
-3 11 -1 20 4 20 5 0 9 -7 9 -15 0 -9 13 -18 32 -22 29 -6 30 -7 10 -14 -18
-7 -22 -16 -22 -53 0 -46 16 -69 31 -45 5 8 9 9 9 3 0 -22 29 -23 54 -3 21 17
26 18 26 5 0 -10 6 -13 15 -10 8 4 15 13 15 21 0 9 -5 11 -12 7 -7 -4 -5 2 5
13 15 17 17 31 11 89 -7 71 -39 158 -55 148 -5 -3 -9 0 -9 7 0 17 -49 79 -61
79 -6 0 -18 9 -27 21 -10 11 -24 21 -32 22 -8 2 -24 8 -35 15 -20 11 -20 11 1
12 12 0 44 -15 70 -32z m-6676 -67 c0 -29 13 -32 47 -11 18 11 40 16 53 13 16
-4 18 -8 8 -14 -10 -7 -9 -14 6 -41 l18 -33 -27 32 c-23 29 -29 32 -48 21 -12
-6 -27 -17 -34 -24 -16 -15 -17 -44 -2 -44 5 0 7 6 4 13 -4 6 2 2 13 -10 13
-15 32 -23 54 -24 30 0 31 -1 10 -9 -12 -5 -25 -16 -28 -24 -5 -12 16 -69 48
-130 8 -15 7 -18 -5 -13 -18 7 -27 -19 -27 -76 0 -35 2 -37 25 -31 20 5 24 3
19 -10 -3 -9 -10 -16 -15 -16 -17 0 -9 -17 14 -28 18 -9 19 -11 4 -11 -19 -1
-51 -17 -79 -40 -14 -11 -15 -17 -7 -28 6 -7 18 -13 25 -13 15 0 18 -12 7 -23
-3 -4 -13 -1 -22 7 -21 18 -68 29 -75 17 -3 -5 1 -11 9 -15 26 -10 16 -34 -16
-41 -20 -5 -29 -11 -25 -21 3 -8 1 -14 -3 -14 -5 0 -11 6 -14 14 -4 9 6 20 26
30 19 9 25 16 15 16 -9 0 -21 6 -25 13 -4 8 -18 16 -30 19 -17 4 -20 2 -16
-11 4 -13 2 -13 -10 2 -13 16 -14 13 -12 -28 3 -41 2 -44 -16 -35 -20 11 -28
-3 -9 -15 6 -3 10 -11 10 -17 0 -6 -11 -1 -24 11 -27 26 -72 21 -62 -6 3 -8 6
-18 6 -23 0 -4 29 -7 65 -5 51 1 65 -1 65 -13 0 -10 8 -13 25 -10 14 3 28 1
31 -3 3 -5 -1 -9 -7 -9 -7 0 -30 -17 -51 -37 -21 -20 -41 -34 -45 -30 -4 4 3
14 15 23 35 24 26 40 -29 52 -68 16 -70 16 -54 -15 8 -15 11 -39 8 -55 -3 -17
-1 -28 6 -28 6 0 11 -13 11 -29 0 -17 11 -42 26 -60 14 -17 22 -31 16 -31 -16
0 -41 35 -57 80 -9 24 -38 89 -65 145 -27 55 -54 120 -60 145 -7 25 -18 57
-26 71 -15 30 -20 160 -8 269 5 55 9 68 15 50 3 -14 4 -36 1 -49 -3 -16 -1
-22 6 -17 8 5 8 -2 0 -24 -5 -17 -8 -33 -6 -35 9 -10 69 -17 67 -9 -1 5 0 20
1 34 2 23 3 23 11 -7 5 -18 13 -34 18 -37 13 -9 51 24 51 45 0 10 5 19 10 19
7 0 7 7 -1 21 -9 17 -8 25 5 37 18 18 16 21 19 -48 1 -19 7 -35 12 -35 6 0 28
19 49 43 l38 42 -33 1 -34 0 35 17 c19 9 36 17 37 17 1 0 5 14 8 30 6 25 5 28
-6 18 -20 -19 -45 -16 -45 6 0 11 4 18 7 15 19 -11 17 16 -2 29 -13 9 -16 17
-10 22 6 3 21 -1 33 -9 32 -23 38 -20 38 19 0 19 5 35 10 35 6 0 10 -9 10 -19z
m3092 -561 c76 -22 138 -102 138 -179 0 -22 4 -42 9 -45 5 -3 7 -14 4 -24 -3
-14 5 -22 36 -34 23 -9 41 -12 41 -8 0 5 17 2 37 -7 29 -12 41 -13 56 -3 11 6
16 7 13 1 -4 -5 4 -13 16 -17 13 -4 24 -2 26 5 2 6 8 11 14 11 6 0 8 -7 4 -15
-4 -11 2 -15 24 -15 32 0 38 -11 16 -29 -10 -8 -16 -9 -21 -1 -12 19 -26 11
-16 -9 9 -16 62 -35 122 -44 8 -2 21 -7 29 -12 40 -26 65 -35 82 -30 10 4 18
2 18 -4 0 -6 9 -11 19 -11 11 0 23 -4 26 -10 4 -6 -8 -10 -29 -10 -31 0 -35
-3 -33 -21 2 -12 12 -28 23 -36 17 -13 16 -13 -16 -11 -32 3 -37 -1 -54 -36
-16 -33 -17 -42 -6 -60 12 -19 12 -20 -3 -7 -15 11 -17 11 -17 -1 0 -8 12 -21
28 -29 l27 -14 -36 -3 c-35 -3 -59 -29 -59 -63 0 -6 -7 -18 -16 -26 -8 -9 -13
-24 -11 -35 3 -10 2 -16 -3 -13 -4 3 -10 -4 -13 -16 -5 -17 -3 -18 9 -8 12 9
13 9 9 -3 -4 -10 0 -15 12 -15 50 1 74 -4 68 -13 -3 -5 -2 -10 4 -10 6 0 20
18 31 41 12 22 39 70 61 105 21 35 39 66 39 69 0 2 -13 11 -30 20 -43 22 -37
38 7 20 20 -8 37 -14 38 -13 1 2 11 17 23 34 20 29 20 32 4 47 -15 16 -15 17
4 17 28 0 36 10 22 27 -8 11 -7 12 5 7 12 -4 18 2 22 19 4 14 13 28 21 31 27
10 14 26 -46 56 -131 66 -298 120 -517 166 -13 2 -23 11 -23 19 0 18 -3 17 40
5 19 -6 55 -13 80 -16 91 -11 314 -89 433 -152 29 -15 55 -28 59 -30 4 -2 19
19 33 47 14 28 30 51 35 51 15 0 13 -5 -20 -56 -16 -26 -27 -51 -24 -55 14
-24 37 1 95 104 34 61 66 114 69 117 3 3 16 21 28 40 27 44 28 37 2 -15 -23
-44 -25 -65 -9 -65 6 0 37 -17 68 -38 31 -21 72 -46 92 -56 20 -9 47 -29 60
-43 18 -19 6 -14 -46 19 -38 25 -100 61 -136 81 l-65 35 -55 -91 c-30 -51 -55
-97 -57 -104 -2 -6 9 -18 25 -27 37 -19 189 -129 230 -166 17 -16 33 -27 36
-24 2 3 7 -7 9 -21 4 -16 1 -24 -6 -22 -10 3 -36 -15 -36 -26 0 -2 -22 -44
-50 -93 -27 -49 -50 -95 -50 -102 0 -7 -7 -20 -15 -28 -17 -17 -20 -34 -6 -34
5 0 16 19 26 42 12 31 19 38 25 28 5 -8 4 -22 -1 -33 -6 -10 -8 -25 -5 -33 3
-8 1 -14 -4 -14 -5 0 -7 -6 -4 -13 2 -7 -7 -35 -21 -61 l-26 -48 26 6 c30 8
32 -4 5 -29 -21 -19 -27 -69 -10 -80 6 -3 10 -1 10 4 0 6 9 11 19 11 15 0 18
-5 13 -22 -5 -22 -5 -22 19 -6 13 10 49 32 79 49 69 40 66 37 52 51 -8 8 4 23
51 60 60 47 87 58 87 38 0 -5 -5 -10 -12 -10 -20 0 -119 -81 -112 -91 4 -7 14
-3 28 8 11 10 33 25 47 32 15 7 39 24 53 38 15 14 31 21 35 17 16 -19 80 -122
110 -179 18 -33 39 -65 47 -72 9 -6 15 -15 15 -20 -2 -20 43 -145 53 -149 6
-2 29 5 51 16 21 11 47 20 57 20 10 0 21 7 25 15 8 21 -28 117 -83 219 l-45
86 -49 -25 c-68 -35 -74 -31 -14 8 l51 32 -16 30 c-27 51 -113 179 -138 206
l-24 26 28 18 c15 10 22 12 16 4 -21 -21 -16 -36 38 -101 28 -35 65 -87 82
-115 17 -29 36 -53 40 -53 5 0 21 8 35 19 15 10 37 22 50 25 12 4 22 12 22 17
0 5 3 8 8 7 4 -1 30 9 57 22 28 13 55 26 60 29 6 2 4 -3 -4 -12 -7 -10 -18
-17 -24 -17 -5 0 -24 -11 -41 -24 -17 -13 -58 -35 -91 -51 -33 -15 -61 -28
-62 -29 -2 -2 24 -61 56 -132 33 -71 63 -142 66 -157 6 -23 11 -26 34 -20 14
3 28 10 29 15 5 11 22 10 22 -1 0 -5 -16 -15 -36 -23 -30 -11 -33 -14 -19 -24
9 -7 12 -15 7 -18 -6 -3 -2 -35 10 -78 11 -40 21 -84 24 -98 2 -14 7 -32 11
-40 11 -29 23 -200 13 -200 -9 0 -20 62 -20 118 0 25 -4 41 -9 37 -6 -3 -15 4
-21 15 -14 26 -28 25 -32 -2 -3 -18 -6 -14 -13 17 -6 28 -5 40 5 43 9 3 9 6
-1 13 -11 7 -10 9 4 9 14 0 16 -5 11 -26 -5 -21 -4 -25 6 -19 8 5 19 1 28 -11
14 -18 14 -18 8 6 -4 14 -9 37 -12 53 -4 18 -13 27 -25 27 -11 0 -19 5 -19 10
0 6 7 10 16 10 9 0 14 6 11 13 -2 6 -12 38 -21 69 -12 43 -20 56 -31 52 -17
-7 -20 -24 -5 -24 6 0 10 -4 10 -8 0 -11 -39 -12 -45 -1 -19 30 -85 -9 -85
-51 0 -41 27 -115 40 -112 8 2 10 -5 6 -21 -3 -14 3 -86 14 -161 10 -76 17
-143 14 -151 -3 -7 3 -16 15 -20 27 -8 27 -21 1 -21 -26 0 -38 34 -45 126 -9
118 -24 212 -37 227 -6 7 -8 16 -4 20 3 3 -4 11 -16 17 -12 6 -24 18 -26 26
-4 11 1 10 17 -4 25 -23 26 -20 5 51 -16 56 -19 58 -66 38 -11 -4 -18 -3 -18
4 0 6 8 11 18 11 42 1 46 14 23 79 -19 55 -56 137 -81 181 -42 73 -92 150
-100 155 -21 13 -139 -81 -132 -105 4 -12 2 -12 -8 -3 -9 8 -19 9 -31 3 -16
-9 -16 -13 7 -55 31 -54 38 -59 64 -45 l21 11 -22 35 c-12 19 -19 37 -16 40 5
5 43 -39 50 -59 3 -9 8 -9 18 1 17 16 29 15 29 -1 0 -7 9 -29 19 -50 14 -27
15 -37 6 -37 -7 0 -15 7 -19 15 -6 16 -36 21 -36 6 0 -5 -9 -13 -20 -16 -19
-6 -17 -12 32 -106 46 -87 55 -98 75 -94 13 2 23 -1 23 -6 0 -5 -9 -9 -21 -9
-24 0 -23 -20 4 -120 19 -69 28 -140 17 -140 -4 0 -13 27 -20 60 -7 33 -17 60
-22 60 -5 0 -37 -7 -72 -16 -58 -14 -63 -18 -58 -40 3 -16 11 -24 24 -24 16 0
18 -4 12 -17 -9 -20 -9 -58 -1 -88 3 -11 6 -23 6 -26 1 -3 12 -4 26 -1 16 3
25 0 25 -8 0 -7 -6 -10 -13 -7 -8 3 -14 -3 -14 -15 -2 -19 -1 -19 18 -3 20 19
26 55 9 55 -5 0 -10 4 -10 9 0 16 35 6 42 -12 6 -14 12 -16 27 -7 11 5 25 10
31 10 19 0 0 -20 -33 -34 -18 -7 -41 -23 -51 -35 -22 -24 -29 -61 -12 -58 6 1
10 -6 8 -15 -2 -11 3 -18 13 -18 8 0 15 4 15 10 0 5 13 7 28 5 16 -2 47 2 70
8 33 9 42 16 42 33 0 20 27 41 38 29 3 -3 0 -5 -6 -5 -7 0 -12 -5 -12 -11 0
-6 7 -9 15 -5 8 3 15 1 15 -4 0 -6 -5 -10 -11 -10 -5 0 -7 -4 -4 -10 3 -5 0
-10 -7 -11 -10 0 -10 -2 0 -6 6 -2 10 -9 7 -14 -4 -5 1 -6 9 -3 8 3 12 12 9
20 -6 17 8 19 24 3 9 -9 11 -7 7 8 -4 14 0 22 14 25 17 5 18 3 9 -23 -13 -33
-4 -47 18 -29 8 7 15 8 15 3 0 -5 10 -9 23 -7 12 1 37 3 56 3 32 1 33 3 28 31
-4 20 -1 34 9 45 9 9 14 25 11 36 -7 25 11 33 44 20 l24 -10 -25 -1 c-19 0
-22 -2 -10 -9 8 -6 18 -7 22 -5 4 3 8 -2 8 -11 0 -9 -4 -13 -10 -10 -6 3 -7
-1 -4 -10 6 -14 8 -13 20 4 18 25 100 200 129 276 58 153 80 271 57 318 -7 15
-19 27 -25 27 -7 1 -2 9 11 20 28 23 42 124 42 313 l0 127 -27 -6 c-38 -9 -43
-13 -43 -30 0 -8 -5 -12 -11 -8 -6 3 -33 -6 -61 -21 -27 -15 -51 -25 -54 -23
-6 7 134 96 171 108 34 11 55 44 55 85 0 14 4 25 10 25 5 0 8 -12 5 -27 -2
-16 -9 -57 -15 -93 -17 -110 -20 -149 -21 -320 0 -164 -6 -226 -30 -350 -6
-36 -12 -75 -12 -87 1 -13 -3 -20 -8 -17 -5 3 -6 -2 -3 -10 3 -9 8 -16 10 -16
9 0 32 58 26 65 -4 5 -1 5 5 1 10 -5 8 -16 -7 -46 l-20 -40 30 -32 c28 -29 29
-33 13 -39 -21 -8 -93 -109 -93 -130 0 -9 25 -41 55 -72 31 -31 52 -57 48 -57
-10 0 -73 61 -93 89 -8 11 -21 21 -28 21 -16 0 13 51 65 117 30 37 33 44 21
62 -7 12 -16 21 -20 21 -3 0 -14 8 -24 17 -13 13 -16 14 -12 3 3 -8 0 -26 -8
-40 -21 -41 -33 -88 -29 -111 3 -12 1 -19 -2 -15 -11 10 -63 -82 -57 -99 5
-13 9 -13 22 -3 12 10 14 10 8 1 -4 -7 -1 -23 6 -35 7 -13 12 -26 13 -30 0
-18 21 -7 27 14 7 21 7 21 4 -3 -5 -48 16 -62 94 -63 72 -1 85 5 50 24 -11 6
-20 15 -20 21 0 6 13 1 29 -10 33 -24 47 -26 55 -8 4 6 4 2 2 -10 -4 -21 0
-23 38 -23 24 0 46 3 49 7 10 9 67 10 97 2 22 -7 21 -8 -10 -8 -66 0 -135 -12
-147 -24 -10 -10 -8 -24 8 -70 12 -32 18 -61 15 -64 -3 -4 -6 -1 -6 7 0 7 -14
41 -32 77 l-31 64 -70 -3 -69 -2 27 -23 c14 -13 34 -23 43 -23 14 0 15 -2 2
-10 -12 -8 -13 -16 -2 -57 7 -26 20 -53 28 -59 20 -16 -3 -25 -29 -12 -9 5
-23 6 -29 2 -7 -4 -8 -3 -4 4 4 7 14 12 22 12 8 0 14 1 14 3 0 1 -6 22 -14 47
l-13 44 -32 -31 c-36 -37 -39 -53 -10 -60 15 -4 17 -8 8 -14 -7 -4 -19 -3 -26
3 -22 18 -14 0 12 -28 14 -15 25 -37 25 -48 0 -15 13 -30 40 -46 22 -14 40
-31 40 -39 0 -11 -4 -9 -15 5 -8 10 -15 15 -15 10 0 -5 -7 -3 -15 4 -12 10
-15 9 -15 -4 0 -10 -5 -14 -11 -11 -6 4 -8 14 -5 22 3 8 2 11 -4 8 -5 -3 -14
4 -20 15 -7 13 -7 20 0 20 18 0 11 20 -19 52 l-29 31 -16 -31 c-16 -31 -16
-31 20 -64 63 -56 74 -71 74 -97 0 -18 15 -40 53 -73 l52 -48 8 31 c12 47 5
72 -23 80 -24 7 -24 7 5 9 26 1 27 3 10 10 l-20 9 20 1 c19 1 19 1 -1 13 -16
9 -19 17 -13 32 5 13 8 15 8 5 1 -8 28 -30 61 -48 55 -30 81 -52 45 -38 -8 3
-15 2 -15 -2 0 -8 62 -38 73 -34 4 1 7 -3 7 -8 0 -6 6 -10 13 -10 17 0 85 -73
122 -130 16 -25 37 -53 47 -63 10 -10 18 -23 18 -30 0 -7 18 -37 40 -67 22
-30 47 -69 55 -87 8 -17 21 -37 28 -45 8 -8 31 -56 52 -108 20 -52 40 -99 45
-105 21 -27 59 -169 65 -240 7 -84 -7 -217 -24 -223 -5 -2 -7 -13 -5 -25 4
-20 4 -20 -4 -2 -6 12 -4 28 5 45 20 39 17 229 -6 315 -11 39 -24 69 -30 68
-6 -2 -11 9 -11 25 0 20 -3 23 -9 13 -7 -10 -11 0 -17 35 -6 47 -46 138 -65
150 -5 2 -14 24 -20 47 -10 35 -13 39 -20 22 -7 -19 -8 -19 -8 3 -1 12 -5 22
-11 22 -5 0 -10 9 -10 20 0 11 -4 20 -8 20 -7 0 -46 58 -47 70 0 13 -57 100
-65 100 -5 0 -12 10 -16 22 -3 12 -26 41 -50 66 -24 24 -41 49 -37 55 3 5 2 7
-3 4 -13 -7 -119 58 -119 74 0 6 -10 15 -22 20 -14 5 -23 5 -23 -1 0 -6 4 -10
9 -10 5 0 5 -15 1 -36 -9 -38 -4 -67 10 -59 4 3 13 -2 20 -10 10 -13 9 -15 -9
-15 -40 0 -16 -52 54 -120 50 -48 89 -104 46 -66 -11 11 -24 16 -27 13 -6 -6
6 -63 21 -99 4 -10 3 -18 -2 -18 -11 0 -37 105 -29 118 6 11 -63 77 -71 68 -4
-3 -1 -12 5 -18 7 -7 11 -32 11 -57 l-1 -46 -8 48 c-5 27 -16 59 -25 73 -9 14
-15 33 -14 42 3 30 -1 42 -12 42 -5 0 -8 -4 -5 -9 4 -5 -3 -7 -14 -4 -11 3
-38 -2 -60 -11 -66 -26 -70 -16 -5 14 33 16 54 29 48 30 -7 0 -12 3 -11 8 5
13 -62 76 -71 66 -12 -14 -31 -88 -31 -120 0 -35 56 -100 154 -177 59 -47 72
-64 97 -123 16 -38 29 -78 28 -89 -1 -17 -2 -16 -8 5 -19 60 -73 150 -113 187
-164 153 -168 157 -180 145 -7 -7 -17 -12 -22 -12 -6 0 -4 6 5 13 9 7 18 30
22 52 7 46 12 69 25 119 6 20 7 36 4 36 -4 0 0 5 8 10 11 8 7 9 -14 4 -21 -5
-27 -4 -22 5 4 6 15 11 24 11 11 0 4 12 -23 40 -21 22 -42 40 -46 40 -4 0 -11
-15 -14 -32 -4 -18 -14 -45 -21 -60 -16 -32 -5 -39 41 -26 16 4 39 8 50 8 31
-1 -42 -30 -75 -30 -26 0 -27 -2 -29 -51 0 -27 -5 -58 -11 -67 -8 -13 -10 -4
-8 35 2 40 -1 54 -12 59 -13 5 -13 7 1 17 18 14 49 104 49 142 0 20 -4 26 -15
21 -43 -17 -49 -17 -26 2 l25 20 -34 20 c-37 23 -50 21 -50 -8 0 -10 -5 -22
-11 -25 -7 -5 -8 4 -4 28 7 33 5 35 -15 30 -13 -3 -25 -14 -27 -24 -3 -10 -15
-25 -28 -33 -48 -31 -37 -101 33 -216 12 -19 22 -42 22 -50 0 -8 -12 6 -27 32
-14 27 -29 46 -32 43 -3 -3 -11 5 -19 17 -12 21 -13 19 -7 -22 8 -59 37 -143
53 -153 7 -5 10 -12 7 -17 -5 -7 26 -86 52 -132 2 -5 1 -8 -4 -8 -4 0 -23 25
-42 55 -18 30 -35 55 -37 55 -10 0 27 -63 71 -121 27 -36 58 -76 68 -90 30
-41 49 -65 41 -50 -4 9 -3 12 4 8 5 -4 8 -17 5 -28 -6 -21 -8 -20 -34 12 -16
19 -29 38 -29 43 0 8 -67 93 -106 134 -12 12 -25 38 -28 58 -6 30 -9 33 -21
20 -19 -19 -19 -26 1 -26 8 0 13 -4 10 -9 -8 -12 -55 -20 -58 -10 -2 4 -18 1
-36 -8 -18 -9 -30 -18 -27 -21 3 -3 -4 -15 -15 -27 -11 -11 -21 -32 -22 -45
-3 -21 8 -29 100 -71 57 -25 140 -69 185 -95 45 -27 87 -49 92 -49 6 0 10 -10
9 -22 0 -19 2 -21 15 -10 10 8 8 0 -6 -23 -23 -39 -68 -214 -59 -229 3 -5 3
-11 -1 -13 -5 -1 -19 -27 -33 -56 -13 -29 -28 -56 -33 -59 -4 -2 0 12 9 34 17
39 26 69 69 248 20 85 22 102 10 114 -12 12 -67 36 -100 44 -5 1 -15 9 -22 17
-7 8 -13 11 -13 7 0 -5 -12 0 -27 11 -28 19 -102 55 -176 86 -40 16 -67 12
-67 -10 0 -11 -33 -68 -58 -99 -25 -32 -49 -82 -45 -95 4 -12 2 -12 -5 -2 -7
10 -13 7 -27 -14 -15 -23 -15 -26 -2 -21 11 4 14 2 11 -8 -3 -8 -12 -11 -20
-8 -22 8 -16 -14 8 -31 12 -9 19 -18 16 -21 -3 -3 -16 4 -30 15 l-26 20 -41
-45 c-23 -25 -46 -45 -51 -45 -6 0 -10 -4 -10 -9 0 -6 -25 -37 -56 -70 -31
-34 -52 -61 -48 -62 20 -2 46 -8 50 -12 8 -7 -8 -37 -19 -37 -6 0 -19 -8 -30
-18 -19 -16 -20 -16 -14 1 4 11 3 16 -3 12 -6 -3 -10 -13 -10 -21 0 -19 -16
-18 -24 1 -4 10 3 19 18 26 12 6 23 17 23 25 0 21 -12 17 -49 -14 -18 -15 -57
-45 -86 -66 -29 -21 -51 -40 -48 -43 4 -4 12 -1 74 32 33 17 33 17 21 -3 -7
-12 -23 -26 -36 -33 -17 -9 -20 -15 -11 -21 10 -7 9 -11 -4 -21 -16 -12 -15
-15 6 -38 13 -14 27 -36 31 -49 7 -22 6 -23 -9 -8 -9 9 -16 21 -16 27 0 6 -4
11 -10 11 -5 0 -10 6 -10 13 0 17 -53 39 -74 31 -10 -4 -15 -12 -13 -18 6 -15
-13 -40 -33 -44 -11 -3 -11 1 3 16 9 10 17 25 17 33 0 8 5 20 12 27 23 23 -2
12 -116 -52 -63 -35 -124 -67 -136 -71 -64 -20 -130 -58 -122 -68 5 -7 12 -30
15 -52 l6 -40 -19 35 c-11 19 -19 43 -20 52 0 15 -5 15 -60 -3 l-59 -21 0
-113 c0 -62 -3 -124 -6 -137 -13 -58 -34 -362 -30 -443 5 -107 10 -125 37
-125 18 0 20 4 14 37 -4 21 -9 61 -11 88 -7 72 11 15 20 -64 8 -70 20 -78 103
-68 26 3 38 2 27 -2 -14 -6 -1 -12 55 -25 224 -51 320 -89 389 -151 21 -19 45
-35 54 -35 9 0 19 -4 22 -10 3 -5 -1 -10 -10 -10 -12 0 -15 -7 -13 -28 3 -26
5 -27 51 -25 27 2 57 -2 68 -7 17 -10 18 -13 5 -25 -19 -20 -56 -19 -56 0 0
10 -10 15 -33 15 -24 0 -42 -9 -66 -34 l-33 -34 29 -11 c28 -11 28 -11 -6 -5
-32 6 -81 -11 -81 -27 0 -5 21 -15 48 -24 l47 -15 -55 6 c-30 3 -59 9 -63 13
-4 4 -55 -8 -113 -28 -104 -35 -106 -36 -78 -49 l29 -12 -35 6 c-40 7 -36 7
-73 5 -35 -1 -27 -17 14 -26 17 -4 28 -9 25 -12 -2 -3 -29 2 -58 11 -48 14
-73 14 -118 0 -13 -5 -13 -6 0 -14 8 -6 10 -10 4 -10 -5 0 -15 5 -20 10 -13
13 -111 -1 -106 -15 3 -9 -22 -23 -45 -24 -20 -1 -15 17 5 22 9 3 -3 6 -28 7
l-45 2 58 12 c33 6 55 14 51 18 -4 5 -2 8 4 8 7 0 12 -4 12 -8 0 -17 253 33
386 76 141 46 270 130 234 152 -27 18 -66 5 -97 -30 -17 -19 -45 -43 -62 -53
-45 -26 -38 -14 9 17 48 31 76 82 66 120 -8 33 -78 100 -130 125 -23 11 -34
20 -25 21 41 1 169 -111 169 -149 0 -13 9 -20 28 -23 15 -3 33 -7 41 -9 8 -2
17 4 19 14 4 21 -45 90 -59 82 -5 -3 -6 0 -4 7 7 18 -53 52 -125 71 -30 8
-104 30 -165 48 -75 23 -130 33 -174 33 -39 0 -57 2 -45 7 16 6 15 8 -8 8 -14
1 -33 3 -40 6 -9 4 -14 -2 -15 -15 -2 -24 3 -27 52 -33 78 -10 260 -61 279
-78 6 -5 18 -9 29 -9 10 0 15 -5 12 -10 -4 -6 -11 -8 -16 -5 -5 4 -9 -1 -9 -9
0 -11 8 -13 33 -9 29 4 37 0 60 -27 34 -40 35 -59 2 -52 -14 2 -25 0 -25 -7 0
-5 6 -8 13 -6 14 6 44 -11 35 -20 -3 -3 -16 -7 -27 -8 -19 -1 -20 -3 -7 -13
12 -8 13 -13 4 -22 -15 -15 -32 -16 -23 -2 10 16 -61 12 -75 -5 -11 -13 -8
-14 18 -9 17 4 32 1 36 -5 8 -12 3 -13 -59 -16 -22 -1 -53 -5 -70 -9 -27 -5
-26 -4 8 12 56 28 107 81 107 112 0 31 -38 74 -88 99 -33 16 -165 62 -217 74
-11 3 -28 8 -37 12 -29 12 -22 -20 10 -46 15 -13 19 -19 9 -16 -22 8 -18 1 43
-78 75 -96 88 -132 50 -142 -11 -3 -20 -10 -20 -15 0 -5 -6 -8 -12 -6 -7 1
-41 -4 -74 -11 -57 -12 -63 -12 -82 5 -11 11 -31 27 -45 36 -14 9 -33 38 -43
63 -11 25 -24 45 -30 45 -15 0 -64 46 -64 60 0 6 12 -3 26 -20 33 -38 44 -32
15 8 -23 34 -27 52 -9 52 6 0 8 3 5 6 -4 4 -13 1 -21 -5 -13 -11 -14 -5 -11
43 4 45 1 57 -13 65 -16 10 -16 10 1 11 9 0 17 7 17 15 0 15 -83 20 -267 16
-41 -1 -74 3 -78 9 -4 6 9 10 34 10 l41 0 2 93 2 92 5 -90 6 -90 38 -3 c25 -2
37 1 38 10 0 7 1 42 1 78 0 51 1 59 8 35 4 -16 8 -51 9 -77 l1 -48 80 0 81 0
-3 62 c-3 58 -5 63 -25 62 -13 0 -23 3 -23 8 0 4 10 8 21 8 21 0 21 3 15 68
-7 71 5 111 24 82 5 -8 10 -29 10 -45 0 -17 6 -37 13 -44 10 -10 8 -12 -8 -9
-17 3 -20 -2 -17 -31 5 -44 47 -111 70 -110 10 0 12 3 5 6 -7 2 -13 11 -13 20
0 8 -9 26 -20 40 -11 14 -20 35 -19 47 0 15 4 11 12 -13 14 -42 34 -51 40 -19
2 13 3 8 1 -10 -2 -22 2 -32 11 -32 13 0 13 -29 0 -94 -3 -13 -1 -16 7 -8 5 5
11 21 11 35 1 14 6 23 11 20 5 -3 7 6 4 20 -3 15 -1 24 3 21 14 -8 11 4 -7 31
-9 14 -13 25 -10 25 12 0 44 -63 39 -76 -3 -8 0 -14 7 -14 11 0 8 48 -5 70 -4
6 -1 17 5 25 10 11 10 15 1 15 -7 0 -9 5 -5 11 14 23 27 391 14 399 -5 3 -3
18 5 34 8 16 15 47 16 70 1 36 2 38 9 16 9 -24 9 -24 7 5 -1 20 -9 33 -25 40
-27 12 -23 31 6 27 12 -2 22 2 22 7 0 6 -4 11 -8 11 -5 0 -7 14 -6 30 2 36
-16 100 -28 100 -11 0 -6 -33 6 -42 15 -10 14 -67 -1 -80 -12 -10 -14 -6 -8
24 4 22 3 38 -4 42 -6 4 -11 18 -11 31 0 19 -4 23 -17 18 -15 -5 -16 -3 -5 8
17 18 15 32 -3 25 -8 -3 -15 -1 -15 3 0 5 6 11 13 14 9 3 9 7 -2 20 -9 11 -10
17 -2 17 6 0 11 -4 11 -10 0 -5 7 -10 15 -10 11 0 15 9 13 29 -1 16 -6 27 -10
25 -5 -3 -6 -10 -3 -15 4 -5 1 -9 -4 -9 -6 0 -11 14 -11 31 0 23 -4 30 -15 26
-25 -10 -25 10 0 21 17 8 25 19 24 34 -1 17 -2 19 -6 6 -2 -10 -9 -18 -14 -18
-5 0 -2 14 7 31 10 20 12 35 6 41 -6 6 -6 25 -2 46 15 69 22 117 25 167 l2 50
-22 -50 c-30 -64 -32 -47 -4 25 36 92 46 149 29 162 -12 8 -12 9 3 4 18 -6 19
-3 19 94 0 76 -10 198 -17 209 -3 6 -2 11 4 11 5 0 12 -26 16 -57 10 -91 14
-94 12 -10 -1 42 -6 77 -10 77 -4 0 -14 0 -22 0 -12 0 -14 -13 -12 -68 2 -37
-2 -88 -8 -112 -10 -40 -11 -33 -9 63 l2 107 -34 0 c-35 0 -35 0 -30 -37 3
-21 3 -29 0 -18 -13 45 -24 33 -49 -50 -15 -47 -28 -85 -31 -83 -2 2 7 40 21
84 31 99 31 104 -2 105 l-28 2 28 4 c15 2 27 6 27 8 0 19 -23 105 -28 105 -4
0 -17 -23 -30 -51 -12 -29 -25 -49 -28 -46 -3 3 6 28 20 56 33 64 33 71 -5 71
-23 0 -32 -5 -36 -21 -4 -13 -8 -17 -13 -9 -9 14 -70 -121 -71 -158 0 -15 -3
-21 -6 -14 -2 6 -8 10 -11 8 -4 -2 -7 15 -7 39 0 33 2 39 11 28 9 -13 17 -1
47 62 20 42 37 84 37 94 -1 21 -49 131 -50 112 0 -8 -3 -11 -7 -7 -4 3 9 39
29 79 76 154 90 189 76 198 -10 7 -9 9 5 9 11 0 17 8 17 21 0 13 -5 19 -12 16
-53 -22 -69 -37 -89 -80 -13 -27 -27 -51 -32 -54 -4 -3 4 19 18 47 l27 53 -24
-6 c-12 -4 -31 -7 -40 -7 -12 0 -18 -8 -18 -22 -1 -21 -2 -21 -11 -5 -12 21
-108 25 -110 5 0 -10 -2 -10 -6 0 -2 6 -17 13 -31 13 -24 2 -24 2 -4 6 12 2
22 7 22 10 0 9 -64 97 -80 110 -15 12 -70 18 -70 7 0 -3 5 -15 11 -26 6 -11 7
-18 1 -14 -5 3 -15 20 -22 38 -6 18 -20 51 -30 73 -31 68 -31 93 -1 30 16 -33
30 -54 30 -47 1 7 12 23 26 36 23 22 35 43 17 32 -4 -2 -19 5 -32 16 l-25 20
28 -17 29 -17 -7 34 c-5 24 -3 29 4 18 6 -8 11 -22 11 -32 0 -9 13 -21 30 -27
34 -11 41 -22 10 -14 -26 7 -26 -9 4 -84 30 -77 74 -137 90 -124 7 6 27 30 44
55 l33 46 -71 -1 c-39 -1 -74 2 -77 5 -4 3 11 6 31 6 30 0 37 3 32 15 -3 8 -1
25 4 37 8 20 9 18 9 -14 1 -36 3 -38 32 -38 32 0 32 2 -5 53 -23 31 -33 33
-58 10 -20 -18 -25 -4 -6 15 9 9 9 12 -2 13 -8 1 -18 1 -22 0 -20 -3 -5 11 22
20 28 10 30 14 30 64 0 43 -4 54 -17 58 -12 3 -10 5 7 6 24 1 25 -1 22 -56
l-3 -58 60 62 c47 49 62 71 67 103 8 46 -2 51 -36 15 -13 -14 -27 -25 -32 -25
-5 0 8 15 28 32 l37 32 -29 13 -29 13 34 -6 c31 -6 33 -5 28 16 -6 21 -5 22
12 4 11 -12 16 -25 11 -34 -4 -8 -10 -34 -13 -58 -5 -42 -4 -43 36 -62 50 -24
57 -25 58 -2 0 10 3 12 6 4 2 -6 9 -10 14 -6 5 3 9 -1 9 -8 0 -7 11 1 25 17
22 28 44 109 32 121 -7 7 -47 -70 -47 -90 0 -8 -4 -17 -9 -21 -12 -7 -6 26 9
55 6 11 8 24 6 29 -3 5 0 11 8 14 8 3 22 24 32 46 9 22 21 38 26 35 4 -3 8 2
8 11 0 22 -30 5 -62 -37 -14 -18 -52 -60 -83 -93 -53 -55 -55 -57 -30 -18 15
23 24 46 21 51 -3 5 3 12 14 15 11 3 20 14 20 24 0 11 11 34 25 53 13 18 22
38 18 44 -4 7 -2 7 6 0 10 -9 7 -21 -15 -53 -15 -23 -24 -44 -21 -48 4 -3 14
8 24 26 10 17 24 31 31 31 6 0 12 9 12 20 0 22 17 64 41 100 18 28 31 82 17
74 -5 -3 -23 -34 -40 -70 -17 -35 -33 -62 -35 -60 -3 2 11 37 31 77 20 40 36
80 36 88 0 14 2 14 11 1 9 -13 10 -12 5 3 -3 9 4 35 15 56 16 32 18 46 10 73
-5 18 -10 25 -10 15 -1 -9 -10 -25 -21 -34 -11 -10 -20 -25 -20 -34 0 -9 -9
-24 -21 -34 -20 -19 -20 -19 -10 9 18 46 13 47 -37 12 -26 -19 -61 -37 -77
-41 l-30 -6 30 18 c17 9 33 16 36 16 8 -2 80 67 97 92 10 16 12 17 7 3 -3 -10
-8 -25 -11 -33 -3 -8 -1 -15 5 -15 12 0 61 73 61 90 0 6 7 22 16 36 19 28 12
43 -11 24 -8 -7 -15 -8 -15 -2 0 9 24 24 42 26 12 2 118 106 118 116 0 14 -24
12 -38 -2 -7 -7 -12 -8 -12 -2 0 5 -11 11 -25 12 -15 1 -25 -3 -25 -11 0 -7
-6 -21 -13 -32 -13 -16 -14 -15 -9 13 3 26 1 32 -14 32 -27 0 -48 -16 -39 -30
5 -8 10 -9 18 -1 14 14 27 14 27 1 0 -5 -7 -10 -15 -10 -19 0 -19 -9 1 -31 9
-10 14 -24 12 -31 -3 -7 -12 1 -23 21 -16 31 -19 33 -30 18 -6 -9 -15 -14 -18
-10 -4 3 -7 2 -7 -4 0 -5 3 -13 7 -17 4 -4 8 -13 9 -19 2 -25 17 -57 25 -57 5
0 9 -5 9 -10 0 -7 -7 -7 -17 -2 -14 6 -30 -4 -70 -45 -45 -46 -49 -54 -35 -63
9 -5 14 -10 9 -10 -4 0 -16 6 -27 12 -16 10 -24 10 -42 -1 -22 -13 -22 -13 -8
4 9 10 11 20 5 22 -23 8 -77 44 -72 49 3 3 24 -7 48 -22 30 -19 44 -23 47 -14
3 9 6 9 11 1 5 -8 19 -2 44 16 20 16 36 32 37 36 0 4 -14 21 -31 38 -25 25
-34 28 -41 17 -8 -10 -9 -9 -4 4 3 10 1 20 -4 23 -6 4 -10 -3 -10 -13 0 -23
25 -46 40 -37 5 3 10 1 10 -4 0 -6 -7 -11 -15 -11 -8 0 -17 -11 -21 -25 -6
-26 -24 -35 -24 -12 0 9 -2 9 -8 0 -5 -8 -13 -8 -32 2 l-25 14 35 2 c24 1 28
3 12 6 -12 2 -38 -1 -57 -7 -34 -11 -35 -13 -35 -61 0 -51 6 -58 30 -36 12 10
12 9 2 -4 -6 -9 -9 -19 -5 -22 3 -4 -5 -7 -18 -7 -24 0 -25 1 -21 67 4 59 3
65 -12 60 -9 -4 -15 -3 -12 2 3 5 -12 18 -33 29 l-39 21 -4 -37 c-5 -62 2 -87
30 -106 25 -16 17 -16 -23 0 -10 4 -15 0 -15 -10 0 -9 3 -15 8 -14 4 1 25 -15
46 -35 22 -20 44 -37 49 -37 5 0 20 -9 34 -20 14 -11 22 -20 18 -20 -5 0 -17
8 -27 17 -15 14 -24 15 -46 6 -54 -21 -66 -24 -39 -8 30 18 36 34 10 30 -10
-1 -12 0 -5 2 10 4 8 11 -9 29 -27 29 -43 31 -34 5 3 -11 1 -22 -5 -26 -6 -4
-10 9 -10 35 0 38 -2 41 -22 35 -22 -7 -22 -6 -4 7 23 18 11 41 -37 76 l-32
22 -6 -32 c-6 -31 -6 -31 -8 -5 0 15 -3 27 -6 27 -14 0 -86 -42 -103 -60 -18
-20 -19 -20 -43 6 -23 26 -23 26 -2 13 20 -12 27 -11 55 4 18 10 44 26 58 37
l25 20 -32 0 c-17 0 -38 3 -47 6 -11 4 -16 0 -17 -12 -1 -18 -2 -18 -6 -1 -5
18 -6 18 -24 1 -18 -16 -19 -16 -13 -1 4 11 1 17 -7 18 -8 0 7 7 32 14 25 8
53 23 63 34 17 18 17 19 -3 26 -27 8 -41 -1 -41 -28 0 -17 -2 -19 -9 -7 -6 8
-7 18 -5 22 3 4 1 8 -4 8 -10 0 -53 -45 -85 -90 -16 -22 -16 -23 -7 -2 6 12 7
28 3 35 -4 6 -6 22 -4 35 4 31 -14 27 -39 -9 -12 -16 -25 -28 -28 -24 -3 3 9
21 27 39 21 21 30 39 26 47 -5 8 -4 10 4 5 11 -7 15 -1 25 47 4 15 11 27 17
27 6 0 6 -6 -1 -19 -28 -53 -7 -49 64 11 41 35 73 69 70 76 -2 6 3 12 11 12 8
0 15 5 15 10 0 6 7 10 16 10 13 0 12 -5 -5 -29 l-20 -28 25 5 c14 2 23 10 21
17 -3 6 -1 18 4 26 6 10 9 7 9 -13 0 -30 14 -38 24 -13 3 8 1 15 -4 15 -6 0
-10 7 -10 16 0 10 -6 14 -15 11 -8 -4 -17 -2 -20 3 -4 6 -16 10 -28 10 -28 -1
-62 -26 -48 -35 6 -3 11 -14 10 -23 0 -14 -3 -13 -16 6 l-15 22 -38 -32 c-21
-18 -57 -48 -80 -67 -23 -19 -51 -48 -61 -65 -21 -35 -25 -30 -8 8 7 14 47 55
90 92 44 36 79 72 79 79 0 8 7 11 19 8 22 -6 54 24 47 43 -4 9 2 14 15 14 16
0 20 5 16 20 -3 11 -2 20 3 20 4 0 10 -10 13 -22 5 -18 8 -19 21 -8 18 14 21
40 6 40 -5 0 -10 6 -10 13 1 6 13 -3 29 -20 15 -18 33 -33 39 -33 16 0 15 6
-5 38 -13 22 -11 21 13 -6 35 -40 59 -36 68 13 4 19 22 61 40 93 18 32 38 73
44 92 11 31 11 32 -5 18 -10 -8 -27 -16 -38 -17 -89 -8 -155 0 -155 20 0 6 5
7 11 3 7 -4 9 0 5 14 -4 11 -3 23 3 26 5 3 12 -6 15 -20 6 -22 11 -25 32 -20
14 4 23 3 21 -2 -3 -4 7 -9 23 -10 16 -1 32 3 36 9 4 8 8 8 13 0 4 -6 11 -3
19 9 10 17 10 20 -5 21 -14 0 -12 3 5 10 13 5 27 7 31 5 4 -3 6 7 6 22 -1 15
5 40 13 56 8 16 9 25 3 22 -6 -4 -11 -3 -11 3 0 5 5 13 10 16 6 3 10 13 10 22
0 13 -2 13 -17 2 -15 -13 -15 -12 -4 9 17 33 7 38 -16 9 -24 -31 -67 -30 -71
1 -2 12 -7 22 -11 22 -5 0 -6 -11 -3 -26 4 -23 2 -24 -22 -18 -16 4 -26 2 -26
-5 0 -6 17 -11 38 -11 27 0 33 -3 22 -10 -13 -9 -13 -10 1 -10 8 0 20 5 27 12
13 13 15 8 6 -16 -3 -8 -12 -12 -21 -9 -12 5 -14 1 -9 -18 3 -13 3 -18 0 -11
-3 6 -12 12 -20 12 -8 0 -14 5 -14 11 0 5 -10 3 -22 -5 -30 -21 -41 -20 -33 4
4 12 2 20 -5 20 -6 0 -8 -4 -5 -10 3 -5 1 -10 -4 -10 -6 0 -11 6 -11 14 0 8
-6 17 -12 20 -7 3 -4 5 7 5 38 -2 42 1 43 32 1 31 0 31 -14 10 -8 -11 -20 -21
-27 -21 -8 0 -8 3 1 12 7 7 12 19 12 27 -1 14 -2 14 -13 0 -8 -11 -18 -14 -32
-8 -28 11 -47 11 -41 0 4 -5 2 -20 -3 -33 -9 -21 -10 -20 -10 11 -1 34 -1 34
-21 16 -19 -17 -19 -20 -4 -42 8 -14 13 -27 10 -30 -3 -3 -8 2 -12 11 -3 9
-10 16 -15 16 -5 0 2 -22 15 -49 19 -37 32 -50 53 -54 15 -3 31 -1 34 5 4 7 9
7 13 0 3 -5 -2 -13 -11 -16 -11 -5 -13 -10 -6 -17 14 -14 4 -51 -13 -45 -7 3
-15 2 -17 -2 -2 -4 -3 -2 -1 3 1 6 -4 18 -11 28 -13 18 -14 11 -17 -86 -1 -20
-3 -35 -6 -32 -3 2 -19 -8 -37 -23 -67 -56 -78 -64 -114 -76 -20 -7 -37 -20
-39 -30 -3 -14 1 -15 23 -6 15 6 33 17 41 25 20 19 30 19 38 0 3 -9 1 -15 -7
-14 -29 4 -39 -2 -33 -17 5 -13 1 -15 -18 -10 -14 3 -28 2 -31 -4 -3 -5 -5
-10 -3 -10 2 0 17 -4 35 -9 28 -8 35 -5 74 30 36 33 45 37 52 23 5 -8 6 -18 3
-21 -3 -4 -6 -1 -6 6 0 9 -5 9 -20 1 -11 -6 -18 -15 -15 -21 4 -5 -1 -9 -9 -9
-14 0 -20 -11 -17 -32 0 -4 -6 -5 -14 -2 -8 4 -15 1 -15 -5 0 -6 -6 -11 -13
-11 -8 0 -22 -9 -32 -20 -10 -11 -23 -20 -29 -20 -6 0 5 14 24 30 19 16 32 30
28 31 -5 1 -12 2 -17 3 -5 0 -13 4 -17 9 -13 12 -26 8 -20 -8 3 -8 -2 -18 -10
-23 -13 -7 -13 -12 0 -44 14 -33 14 -36 -2 -31 -10 2 -29 -8 -46 -26 -25 -27
-27 -32 -16 -48 12 -15 12 -16 0 -6 -11 10 -17 10 -31 -3 -16 -15 -17 -14 -12
5 3 13 1 21 -6 21 -7 0 -9 5 -5 11 3 6 1 22 -7 35 -12 23 -14 23 -36 9 -13 -9
-23 -12 -23 -8 0 5 9 14 19 20 13 8 18 19 14 33 -3 11 0 20 6 20 6 0 11 -5 11
-11 0 -6 14 1 31 15 17 14 35 26 40 26 5 0 9 5 9 10 0 6 -14 10 -31 10 -23 0
-47 -13 -92 -52 -45 -40 -56 -46 -42 -25 10 16 29 33 43 38 16 6 22 14 18 25
-4 10 -2 13 7 8 9 -5 9 -4 1 5 -31 34 -144 -76 -135 -131 0 -5 -4 -8 -10 -8
-7 0 -9 -10 -6 -25 2 -14 2 -23 -1 -20 -12 12 -29 -47 -35 -123 -6 -81 -6 -82
15 -71 20 11 20 10 5 -11 -8 -12 -12 -31 -9 -42 3 -15 2 -19 -7 -14 -6 4 -11
4 -10 -1 1 -4 -3 -21 -10 -38 -19 -46 -26 -95 -12 -95 6 0 11 -9 11 -20 0 -11
4 -20 9 -20 5 0 13 9 16 20 3 11 11 20 16 20 5 0 3 -11 -6 -24 -18 -27 -11
-53 15 -61 16 -5 15 -8 -8 -35 -14 -16 -28 -27 -31 -25 -2 3 4 14 14 25 17 19
17 21 0 40 -19 21 -19 21 -42 -17 -13 -21 -23 -31 -23 -23 1 8 7 24 15 34 16
22 20 40 6 32 -4 -3 -6 7 -4 22 l4 27 -17 -30 c-10 -16 -21 -48 -25 -70 -4
-22 -11 -49 -15 -60 -6 -16 -3 -15 14 5 25 29 29 20 6 -14 -20 -32 -1 -43 25
-14 33 35 24 9 -10 -30 -23 -26 -28 -37 -18 -43 17 -10 32 -1 25 17 -3 7 -1
16 4 19 6 4 10 1 10 -5 0 -6 5 -8 10 -5 6 4 7 12 3 18 -4 7 1 5 11 -3 23 -18
44 -21 52 -8 8 13 -16 29 -33 23 -20 -7 -15 9 7 22 16 11 18 10 14 -2 -4 -9 0
-15 10 -15 9 0 16 -5 16 -12 0 -6 11 2 25 18 30 35 32 62 4 72 -20 8 -20 9 -3
23 10 7 15 9 11 3 -13 -22 22 -23 38 -1 22 32 18 17 -16 -59 -16 -38 -26 -70
-21 -72 6 -2 7 -12 5 -23 -3 -12 -9 -16 -12 -11 -3 6 -24 -7 -48 -28 -22 -21
-39 -41 -37 -43 2 -2 -24 -26 -58 -53 -35 -26 -75 -61 -91 -77 -19 -21 -25
-24 -21 -11 4 11 30 41 58 67 36 35 42 43 18 27 -18 -12 -36 -20 -38 -17 -7 7
87 76 104 77 6 0 12 5 12 10 0 6 5 10 10 10 13 0 70 51 70 63 0 5 -13 -2 -29
-15 -58 -47 -94 -73 -104 -77 -6 -2 -22 -14 -37 -28 -15 -13 -35 -30 -46 -39
-19 -15 -19 -16 1 -9 19 6 19 5 -1 -17 -12 -13 -28 -36 -35 -53 -10 -20 -23
-31 -43 -35 -16 -3 -31 -11 -34 -18 -3 -11 0 -12 19 -2 28 14 23 9 -49 -54
-29 -25 -50 -46 -47 -46 8 0 139 102 143 112 2 4 13 8 25 8 22 -1 22 -1 2 -15
-11 -9 -33 -26 -50 -40 -16 -14 -41 -34 -55 -45 l-25 -20 38 17 c20 9 37 20
37 24 0 5 20 22 44 38 48 33 60 43 159 129 72 63 106 102 87 102 -6 0 -13 -6
-16 -14 -3 -8 -33 -38 -67 -67 -64 -55 -60 -41 4 18 20 18 48 50 63 72 15 22
33 38 40 35 13 -5 40 42 31 55 -7 13 31 108 70 174 20 33 33 62 30 65 -3 3 -5
1 -5 -5 0 -6 -17 -23 -37 -38 l-38 -28 27 29 c28 31 58 95 58 125 0 11 4 19 8
19 5 0 8 27 8 60 0 33 -4 60 -8 60 -5 0 -8 10 -8 23 0 13 -5 28 -12 35 -9 9
-9 12 0 12 7 0 12 -4 12 -10 0 -5 7 -10 15 -10 8 0 15 -9 15 -20 0 -12 7 -34
15 -50 9 -17 11 -30 5 -30 -13 0 -13 -12 2 -47 17 -41 17 -63 1 -63 -10 0 -13
-6 -8 -17 4 -10 9 -34 11 -53 3 -19 9 -39 14 -44 6 -6 10 -19 10 -29 0 -13 5
-17 15 -14 21 9 31 -14 11 -25 -13 -7 -16 -17 -11 -40 16 -73 22 -211 10 -247
-6 -19 -4 -23 8 -18 11 4 14 -3 13 -38 -1 -46 -11 -48 -19 -5 -2 14 -5 1 -6
-28 -1 -57 1 -58 49 -18 l25 21 -22 -25 c-33 -38 -16 -89 29 -90 10 0 16 6 14
13 -1 6 -1 9 1 5 3 -4 4 -11 3 -14 -1 -4 11 -13 27 -20 26 -11 26 -12 5 -13
-22 -1 -22 -2 -7 -32 9 -17 14 -33 12 -35 -2 -3 -10 9 -17 25 -14 35 -37 56
-67 64 -28 6 -28 1 -3 -65 11 -29 20 -54 20 -56 0 -2 -12 6 -27 18 -25 20 -28
20 -33 4 -6 -15 -8 -14 -14 7 -8 24 -8 24 -15 -6 -9 -35 -3 -53 10 -34 6 10 8
7 7 -11 -2 -17 3 -25 15 -28 16 -3 18 1 13 30 -4 25 -2 23 10 -12 8 -25 12
-58 9 -73 -7 -40 4 -84 17 -65 7 9 8 7 5 -10 -3 -12 -1 -39 5 -59 l10 -37 15
24 c14 25 14 25 9 -7 -5 -29 -3 -33 17 -33 44 0 50 13 23 60 -14 25 -26 37
-29 29 -2 -8 -2 -4 0 9 2 12 -1 22 -7 22 -6 0 -8 5 -5 10 10 16 -17 81 -31 76
-9 -4 -11 5 -7 32 7 42 13 55 13 26 0 -40 91 -244 109 -244 5 0 12 8 15 18 3
9 3 -1 0 -23 -4 -32 0 -47 21 -74 30 -42 31 -45 6 -29 -11 7 -22 22 -26 35 -9
36 -18 28 -43 -36 l-23 -60 20 -40 c25 -48 27 -69 4 -26 l-17 30 -7 -30 c-4
-16 -7 -47 -8 -67 -1 -34 3 -40 32 -52 l32 -14 -39 6 c-34 4 -38 3 -33 -12 4
-10 3 -15 -3 -11 -6 3 -10 13 -10 21 0 8 -11 15 -27 15 l-28 2 28 4 c22 4 27
8 22 21 -4 9 -16 42 -25 72 l-18 55 -12 -30 c-26 -65 -30 -98 -12 -112 16 -12
16 -13 0 -7 -12 4 -18 1 -18 -10 0 -19 -20 -22 -21 -3 -2 28 -6 64 -12 102 -7
37 -6 36 9 -10 l17 -50 15 63 c13 55 14 65 1 73 -32 20 -50 9 -75 -43 -13 -29
-21 -42 -18 -28 4 14 13 38 21 54 8 16 15 44 16 62 1 37 9 37 12 1 1 -17 9
-23 32 -25 28 -3 31 0 43 43 15 55 8 66 -23 37 -13 -12 -27 -22 -33 -22 -5 0
11 18 36 40 36 31 43 41 33 51 -7 7 -13 21 -13 31 0 10 -7 35 -16 56 l-17 37
-12 -41 c-13 -42 -43 -104 -50 -104 -2 0 7 27 21 60 28 70 29 80 9 80 -8 0
-15 7 -15 15 0 18 17 20 23 3 9 -26 15 -1 10 40 -4 29 -12 46 -26 53 -18 10
-19 9 -15 -13 2 -13 -2 -30 -9 -37 -12 -10 -12 -16 -1 -29 11 -13 10 -15 -4
-9 -15 5 -18 0 -18 -33 0 -21 -4 -42 -10 -45 -5 -3 -10 -16 -10 -28 0 -20 0
-20 15 -1 8 10 17 34 21 52 4 21 10 30 16 24 6 -6 1 -23 -12 -46 -11 -21 -18
-41 -15 -46 3 -4 1 -10 -5 -12 -5 -1 -12 -25 -15 -53 l-6 -50 21 35 c11 19 19
28 16 20 -26 -81 -30 -90 -47 -90 -18 0 -26 -30 -31 -117 -3 -48 5 -61 26 -44
11 9 13 19 5 37 -12 33 -11 40 2 27 5 -5 11 -26 11 -44 1 -19 6 -37 12 -41 8
-5 7 -8 -1 -8 -8 0 -14 -14 -14 -32 l-2 -33 -6 35 c-4 25 -12 36 -26 38 -18 2
-21 -3 -23 -35 -2 -27 1 -34 7 -24 6 10 8 -5 6 -45 -3 -32 -5 -68 -5 -79 0
-17 -2 -17 -10 -5 -7 11 -9 4 -9 -25 1 -22 3 -32 6 -22 2 9 9 17 14 17 5 0 8
-8 7 -17 -1 -10 0 -38 2 -63 l3 -45 7 45 7 45 1 -47 c1 -27 -3 -52 -11 -60
-14 -13 -14 -24 -1 -138 5 -40 10 -57 14 -45 4 10 7 -10 8 -46 1 -67 31 -174
32 -115 0 51 7 24 13 -54 5 -60 4 -67 -4 -36 -14 60 -22 58 -15 -3 7 -61 -3
-63 -15 -4 -5 28 -7 19 -4 -34 1 -39 6 -76 9 -82 4 -7 -1 -11 -13 -11 -16 0
-21 -6 -21 -25 0 -26 9 -32 26 -15 6 6 10 3 10 -11 0 -16 -5 -19 -23 -14 -19
4 -24 0 -28 -22 -3 -16 -10 -44 -15 -63 -5 -19 -12 -62 -15 -95 l-5 -60 17 48
c18 53 31 58 15 5 -26 -81 -25 -147 4 -343 8 -54 14 -144 15 -240 1 -62 3 -73
9 -47 4 18 6 43 3 55 -4 20 -3 20 7 4 15 -23 40 -5 33 23 -3 10 0 27 6 37 9
14 9 12 5 -14 -8 -41 12 -45 26 -5 6 15 15 36 20 47 l11 20 -7 -20 c-10 -31
-15 -135 -7 -135 5 0 19 17 32 37 26 40 43 132 22 119 -15 -10 -14 -1 4 34 9
18 13 40 9 55 -5 20 -3 24 10 19 13 -5 16 1 15 32 0 22 -3 32 -6 24 -9 -22
-43 -64 -43 -53 0 6 13 28 28 49 22 31 28 49 26 84 -1 34 0 39 6 20 9 -29 14
-20 30 54 9 39 8 51 -2 58 -10 5 -8 8 5 8 17 0 18 7 15 63 -2 34 -8 71 -13 81
-6 14 -5 17 3 12 8 -5 12 4 12 31 -1 36 -2 37 -15 19 -8 -11 -15 -30 -15 -43
0 -24 -14 -31 -25 -13 -3 6 3 22 15 37 14 19 20 39 19 67 -1 23 2 50 8 61 6
11 13 35 17 54 5 31 5 32 -12 20 -9 -8 -20 -18 -24 -24 -5 -7 -8 -7 -8 0 1 15
23 40 43 48 11 4 17 17 17 34 l-1 28 -14 -25 c-21 -36 -18 -8 5 52 31 82 24
80 -25 -6 -50 -87 -51 -91 -30 -82 8 3 15 1 15 -3 0 -5 -16 -9 -35 -8 -25 1
-31 3 -20 9 8 5 15 16 15 23 0 8 4 15 9 15 11 0 26 39 23 58 -2 6 3 12 11 12
8 0 22 19 32 43 9 23 24 55 32 70 8 15 12 34 9 42 -2 7 0 16 7 19 7 2 1 5 -13
6 -14 0 -38 7 -55 15 l-30 13 35 -5 c32 -4 36 -2 51 31 13 28 14 36 4 36 -8 0
-15 5 -17 12 -3 7 -12 9 -22 5 -10 -4 -14 -12 -10 -19 4 -7 4 -10 -1 -6 -4 4
-15 2 -24 -4 -13 -10 -14 -10 -3 2 21 24 13 38 -23 42 -26 3 -35 0 -36 -12 -1
-13 -2 -13 -6 1 -5 21 -74 34 -85 16 -6 -9 -8 -9 -8 0 0 6 -8 14 -17 17 -10 3
7 4 37 3 l55 -2 -2 30 -2 30 16 -30 c20 -37 31 -45 66 -45 24 0 27 3 22 21 -5
15 -4 19 4 15 6 -4 11 -16 11 -28 0 -15 5 -19 20 -15 13 3 20 0 20 -9 0 -14
30 -21 30 -6 0 4 9 39 20 77 24 86 24 85 3 84 -11 0 -13 -3 -5 -6 15 -6 16
-24 0 -21 -7 2 -15 -10 -19 -27 l-7 -30 0 30 c0 17 6 53 13 80 10 40 13 44 14
21 1 -28 2 -28 20 -12 13 12 22 43 31 104 7 48 18 128 25 177 12 90 7 131 -18
122 -6 -2 -13 -14 -14 -28 -2 -24 -32 -103 -32 -84 0 16 23 99 31 111 4 7 1
17 -7 24 -8 7 -15 18 -15 24 0 6 5 3 11 -6 5 -10 17 -18 24 -18 8 0 15 -4 15
-10 0 -17 28 -11 40 8 11 16 11 16 6 0 -3 -10 -9 -25 -12 -33 -4 -10 0 -15 10
-15 9 0 15 5 14 11 -2 6 3 14 10 16 8 3 10 -1 6 -11 -9 -23 6 -20 33 6 19 17
23 19 17 5 -3 -9 -11 -17 -16 -17 -6 0 -8 -14 -4 -32 3 -18 10 -90 16 -159 6
-70 18 -149 25 -175 l15 -49 -5 45 c-4 41 -4 42 6 15 5 -16 8 -45 5 -63 -3
-19 -1 -30 5 -27 10 7 10 8 13 -58 1 -27 6 -51 11 -55 6 -4 12 -16 13 -27 2
-11 11 -33 18 -50 l15 -30 -21 24 c-19 22 -20 22 -20 3 0 -30 42 -133 56 -139
6 -2 10 -13 7 -23 -6 -21 61 -150 77 -150 6 0 10 -6 10 -12 0 -7 -14 1 -29 19
-16 17 -31 30 -33 28 -2 -2 -4 4 -5 13 -1 9 -15 46 -32 82 -29 61 -31 63 -25
25 3 -22 11 -46 17 -54 9 -11 9 -15 -1 -18 -9 -4 -6 -13 9 -34 15 -21 17 -29
7 -29 -10 0 -13 -10 -10 -35 4 -32 6 -34 17 -18 7 10 11 22 8 28 -2 5 3 1 11
-9 20 -24 21 -37 2 -30 -22 8 -27 -24 -14 -87 9 -46 9 -69 0 -104 -7 -25 -12
-60 -12 -78 l0 -32 20 30 c25 38 26 27 2 -17 -19 -33 -20 -69 -4 -143 l8 -40
11 33 c7 17 14 32 17 32 3 0 1 -12 -4 -26 -6 -14 -8 -29 -5 -34 3 -5 0 -10 -7
-12 -8 -3 -7 -18 5 -55 9 -29 17 -59 17 -68 0 -9 5 -13 10 -10 6 3 10 2 10 -4
0 -5 3 -17 7 -27 4 -12 3 -15 -5 -10 -9 6 -11 -7 -7 -51 3 -36 -6 -6 -24 80
-16 75 -33 143 -39 150 -20 23 -35 181 -23 239 15 73 15 124 1 183 -6 28 -19
87 -28 132 -12 62 -21 83 -35 87 -14 3 -17 11 -12 33 3 15 3 23 0 17 -4 -8
-21 -10 -47 -6 -24 3 -39 1 -35 -4 3 -5 2 -25 -3 -44 -4 -19 -8 -27 -9 -18 -1
15 -9 17 -53 13 -28 -3 -57 -10 -65 -16 -8 -7 -13 -8 -13 -1 0 5 -13 12 -28
14 -23 3 -28 0 -28 -17 -1 -11 -4 -38 -8 -61 -8 -46 9 -70 44 -61 11 3 18 2
15 -2 -2 -5 15 -14 38 -21 23 -8 51 -20 62 -27 30 -20 35 -16 35 23 0 32 -2
35 -22 29 -25 -8 -26 -8 -45 -6 -21 2 -15 29 7 36 11 3 20 12 20 18 0 8 3 7 9
-2 13 -20 31 -4 32 27 1 27 1 27 8 -3 6 -27 10 -30 41 -28 l35 3 -32 -16 c-30
-15 -33 -20 -33 -64 0 -62 15 -75 95 -81 24 -1 26 -3 8 -6 -13 -2 -23 -12 -23
-21 0 -14 -2 -14 -9 -3 -14 22 -60 20 -67 -2 -9 -28 12 -45 35 -30 16 10 26 9
51 -3 31 -16 31 -16 11 -31 -19 -13 -23 -12 -37 1 -19 20 -19 20 -44 -1 -14
-12 -20 -31 -21 -63 l-2 -45 -7 56 c-4 31 -10 61 -14 68 -4 6 -2 11 3 11 15 0
14 45 -1 58 -15 12 -14 12 -79 12 -27 0 -48 4 -45 9 3 4 17 6 31 3 44 -8 27
15 -25 34 -27 10 -50 22 -50 28 0 6 -5 5 -12 -2 -7 -7 -17 -12 -22 -12 -6 0
-4 4 4 10 8 5 11 12 7 16 -10 11 -24 -6 -32 -38 -7 -27 -5 -28 30 -28 21 0 34
-4 30 -10 -3 -5 -19 -10 -34 -10 -37 0 -43 -8 -26 -33 16 -23 55 -31 55 -10 0
7 5 13 10 13 6 0 10 -4 10 -10 0 -6 9 -6 26 0 33 13 34 13 34 -5 0 -9 -6 -12
-15 -9 -8 4 -15 1 -15 -5 0 -29 -82 -46 -100 -20 -3 4 -5 -41 -6 -99 0 -75 -7
-137 -23 -205 -13 -54 -20 -101 -16 -105 7 -7 9 -8 80 -12 l50 -3 -65 -8 c-39
-5 -67 -5 -70 1 -3 5 -12 -18 -20 -53 -15 -67 -17 -76 -19 -79 -3 -4 -9 -97
-16 -210 -3 -59 -1 -99 5 -103 9 -6 16 14 24 70 2 17 3 7 1 -22 l-2 -52 46 -4
c43 -3 42 -4 -12 -5 -74 -3 -75 -6 -63 -137 l6 -59 -44 -46 c-24 -25 -46 -57
-50 -72 -3 -16 -11 -28 -17 -28 -6 0 -6 6 0 19 6 10 7 21 4 25 -14 13 -19 5
-17 -27 2 -28 -2 -36 -27 -51 -16 -9 -29 -21 -29 -25 0 -4 53 -15 118 -24 64
-9 144 -21 177 -26 59 -9 58 -9 -20 -4 -44 2 -125 11 -180 19 -55 7 -109 15
-120 17 -11 1 -25 6 -31 10 -7 4 -29 9 -50 12 -101 13 -121 43 -72 110 78 109
90 126 85 132 -13 12 -100 -33 -132 -68 -20 -22 -44 -39 -56 -39 -17 0 -12 8
27 40 27 22 64 47 84 55 19 9 43 20 52 25 10 6 25 10 33 10 13 0 33 33 39 65
1 6 5 16 10 23 6 11 1 13 -20 11 -16 -2 -38 2 -49 8 -11 6 -61 23 -110 38 -50
15 -98 29 -107 32 -14 4 -16 12 -11 32 14 58 21 66 20 22 l-2 -44 120 -39 c66
-21 130 -36 141 -33 14 3 24 15 28 36 12 61 6 272 -14 462 -19 184 -23 430 -7
420 4 -2 7 0 7 6 0 5 3 16 6 25 4 10 1 16 -7 16 -9 0 -27 -37 -47 -93 -35 -98
-59 -146 -47 -92 4 16 15 48 26 72 10 23 19 51 19 63 0 12 4 29 9 39 8 15 3
21 -30 35 -30 13 -44 15 -52 7 -16 -16 -28 -13 -25 6 2 10 -3 18 -12 18 -34 1
-295 141 -343 183 -9 8 -20 12 -25 7 -4 -4 -1 -10 6 -12 12 -5 7 -13 -49 -83
l-20 -25 15 31 c8 17 22 36 30 43 9 8 16 18 16 24 0 5 -10 2 -22 -9 -23 -20
-17 -3 10 28 8 10 12 24 9 32 -4 9 -1 13 6 10 12 -4 77 76 77 95 0 5 -7 12
-16 15 -38 15 -204 161 -204 180 0 6 24 -12 53 -40 28 -28 80 -72 115 -98 l63
-48 22 28 c54 69 157 219 157 228 0 10 -39 -29 -103 -102 -31 -37 -52 -39
-110 -13 -23 10 -51 21 -61 25 -10 3 -16 9 -12 13 3 3 -22 36 -57 72 -34 36
-74 81 -89 100 l-26 34 -31 -23 c-18 -12 -35 -20 -38 -17 -2 3 14 17 37 32 47
29 40 33 92 -42 13 -18 26 -33 30 -33 5 0 -7 19 -25 43 -17 23 -39 53 -47 66
-15 22 -17 23 -33 7 -9 -10 -17 -15 -17 -12 0 4 -13 -8 -29 -26 l-28 -32 41
-59 c54 -76 68 -105 61 -117 -12 -19 -26 -10 -20 11 6 17 -3 31 -44 69 -28 26
-51 55 -51 64 0 9 -6 16 -12 16 -13 -1 -68 -45 -68 -55 0 -14 31 -3 44 17 9
12 18 19 22 15 3 -3 -5 -16 -19 -29 -21 -20 -23 -26 -12 -41 7 -9 17 -17 23
-17 6 0 9 -6 6 -13 -2 -7 2 -21 11 -32 14 -19 15 -19 8 -1 -5 15 -3 17 8 11
24 -16 64 -68 64 -86 0 -9 15 -32 33 -50 46 -47 40 -61 -7 -15 -37 36 -61 41
-61 12 0 -7 -11 -19 -25 -26 -14 -7 -25 -17 -25 -22 0 -4 -4 -8 -10 -8 -18 0
-11 20 16 45 18 17 25 31 21 45 -4 17 -3 19 9 9 31 -25 11 9 -31 55 -25 26
-45 52 -45 56 0 4 -9 15 -21 26 l-21 19 6 -80 c14 -172 16 -183 40 -198 21
-14 25 -13 52 16 47 51 64 62 64 44 0 -8 -10 -17 -21 -20 -15 -4 -20 -11 -15
-22 3 -9 2 -14 -3 -11 -4 3 -15 -2 -23 -12 -17 -19 -31 -65 -18 -57 5 3 11 1
15 -5 8 -13 -21 -13 -45 0 -15 8 -19 5 -24 -15 -14 -56 27 -158 92 -227 35
-38 47 -58 48 -84 0 -19 -2 -34 -5 -34 -10 0 -41 39 -41 50 0 6 -5 10 -11 10
-5 0 -8 4 -5 9 4 5 -3 7 -14 4 -15 -4 -20 0 -20 14 0 11 -9 38 -20 61 -11 22
-20 45 -20 50 0 5 -7 24 -16 42 -11 21 -19 78 -25 169 -12 192 -20 251 -30
226 -5 -14 -8 0 -9 40 -2 43 -4 53 -9 35 -7 -24 -8 -24 -15 10 -12 53 -26 164
-35 275 -10 131 -30 172 -31 65 -1 -82 -18 -73 -19 11 -1 25 -6 50 -11 55 -7
7 -6 20 5 40 26 51 28 86 5 129 l-21 40 5 -45 c4 -33 3 -38 -3 -20 -5 14 -9
37 -10 53 -1 31 -8 33 -39 11 -13 -9 -22 -11 -22 -4 0 6 7 13 15 16 29 11 36
40 21 81 -8 21 -17 50 -20 65 l-6 27 -29 -27 -28 -27 21 -25 21 -25 -24 20
-24 20 7 -60 c4 -32 12 -66 19 -75 18 -21 49 -91 43 -97 -2 -2 -12 9 -22 26
-21 36 -22 36 -68 14 -43 -22 -45 -40 -8 -74 15 -14 40 -44 56 -67 16 -23 33
-39 37 -36 5 3 6 -2 3 -10 -3 -8 -1 -23 5 -34 8 -14 7 -19 -5 -19 -7 0 -14 9
-14 20 0 16 -5 18 -27 13 -23 -5 -25 -4 -10 4 9 6 17 18 17 26 0 20 -88 124
-106 124 -9 0 -13 18 -12 70 1 38 5 67 10 64 4 -3 8 -23 8 -45 0 -45 3 -46 49
-18 26 16 32 24 27 42 -4 12 -9 44 -13 70 -8 63 -20 68 -34 12 -6 -25 -16 -48
-22 -52 -6 -4 -8 0 -4 10 3 8 9 31 12 51 6 30 3 39 -20 61 -16 14 -23 25 -17
25 6 0 14 -4 17 -10 11 -18 43 -12 40 8 -2 9 -7 35 -10 56 -5 29 -9 36 -16 25
-5 -8 -9 -10 -9 -5 0 6 -16 -7 -35 -29 -25 -27 -34 -44 -29 -58 3 -11 2 -17
-3 -14 -5 3 -15 -15 -22 -41 -7 -26 -15 -42 -18 -35 -2 6 3 32 11 58 9 25 16
48 16 50 0 3 -21 2 -47 0 -46 -5 -47 -5 -14 6 38 12 106 56 134 87 18 20 18
21 -4 51 -24 32 -44 32 -34 0 4 -10 3 -24 -2 -31 -5 -9 -10 -3 -15 17 -5 19
-5 11 -2 -22 3 -32 1 -53 -5 -53 -6 0 -11 24 -13 52 -2 42 -7 54 -22 56 -30 6
-39 -12 -22 -46 9 -17 16 -37 16 -44 -1 -7 -9 3 -20 22 l-18 35 -21 -47 c-23
-55 -35 -64 -19 -15 18 56 20 84 9 106 -7 12 -8 21 -2 21 5 0 11 -4 13 -10 6
-18 47 1 45 21 -1 13 -6 18 -17 13 -34 -13 -78 -16 -85 -5 -10 17 -35 -6 -35
-31 0 -12 -5 -18 -12 -15 -7 2 -12 10 -10 16 1 7 -2 10 -8 6 -18 -11 -110 -32
-110 -25 0 4 21 14 48 22 60 19 62 42 5 46 -38 3 -43 0 -58 -28 -9 -17 -13
-34 -10 -39 8 -13 -21 -21 -73 -20 l-47 2 48 6 c51 7 67 21 67 59 0 13 9 33
21 45 17 19 19 19 13 3 -7 -17 -3 -18 49 -14 32 3 57 1 57 -4 0 -17 29 -6 76
29 27 21 55 43 61 49 7 7 16 14 21 16 4 1 21 25 36 52 25 43 27 50 12 58 -15
8 -15 11 1 41 15 29 17 30 24 12 4 -11 8 -14 8 -7 1 7 -5 23 -13 35 -8 12 -24
51 -36 87 -12 36 -28 70 -37 77 -8 7 -12 17 -7 24 5 9 2 10 -10 6 -16 -6 -15
-3 3 27 61 98 -20 165 -222 184 -32 2 -55 7 -52 10 5 6 102 3 136 -3 10 -2 19
0 19 5 0 11 -26 20 -63 21 -18 0 -50 6 -72 13 -40 13 -39 13 32 11 92 -3 98 4
79 81 -8 31 22 41 34 11 l9 -22 0 23 c1 12 6 22 11 22 6 0 8 -11 4 -25 -4 -16
-2 -25 6 -25 6 0 9 -4 6 -8 -12 -20 17 -81 56 -119 83 -81 75 -77 92 -46 25
49 49 408 30 457 -3 8 -1 17 4 20 11 7 28 -147 18 -163 -4 -5 -2 -12 3 -15 12
-8 19 59 26 229 7 164 7 169 -15 285 -5 25 -8 46 -7 47 3 2 77 -68 107 -102
22 -24 22 -26 4 -17 -11 6 -35 28 -53 49 l-33 38 9 -40 c4 -22 7 -122 5 -223
-1 -121 1 -181 8 -177 5 3 10 15 10 26 0 10 5 19 11 19 5 0 8 4 5 8 -2 4 -1
14 5 22 7 12 9 9 9 -10 -1 -14 -7 -34 -15 -44 -20 -27 -19 -39 8 -52 12 -6 43
-23 69 -37 55 -31 59 -28 107 73 17 36 35 72 40 80 65 106 72 124 57 132 -9 5
-16 14 -16 19 0 6 8 3 17 -6 16 -16 18 -16 35 6 31 41 37 47 50 52 10 4 10 8
-2 17 -13 10 -13 11 1 7 15 -5 42 17 124 102 17 17 60 53 97 79 37 26 71 55
74 65 3 10 8 16 11 13 7 -6 59 20 68 34 4 6 -12 42 -34 80 -22 39 -37 70 -33
70 4 0 25 -29 45 -65 21 -36 39 -65 41 -65 2 0 41 20 87 45 88 46 200 92 240
97 13 2 30 7 37 11 6 5 12 4 12 -1 0 -6 -7 -13 -16 -16 -8 -3 -13 -10 -9 -15
3 -6 -4 -8 -15 -6 -11 2 -18 0 -16 -4 3 -5 -13 -17 -36 -27 -23 -10 -42 -17
-43 -14 0 7 -90 -44 -98 -57 -4 -7 -13 -13 -20 -13 -7 0 -25 -11 -41 -25 -22
-19 -32 -22 -37 -13 -6 9 -10 8 -15 -5 -3 -9 -13 -17 -20 -17 -8 0 -17 -7 -20
-15 -4 -8 -10 -12 -15 -9 -12 7 -21 -19 -17 -46 3 -21 3 -21 38 5 19 14 35 33
35 42 0 9 6 18 13 21 7 2 12 0 11 -5 -4 -23 8 -20 84 21 45 25 94 49 109 55
26 10 27 9 16 -9 -7 -11 -23 -20 -35 -20 -44 0 -162 -91 -146 -113 16 -21 33
-67 25 -67 -4 0 -17 16 -30 35 -21 33 -52 47 -52 24 0 -5 6 -7 13 -3 6 3 -1
-6 -16 -21 -26 -25 -27 -28 -12 -48 8 -12 18 -29 22 -37 4 -8 15 -24 26 -37
l20 -22 48 25 c58 29 63 29 50 5 -9 -15 -6 -20 12 -26 22 -8 22 -8 -3 -12 -13
-3 -26 0 -28 6 -5 16 -22 14 -22 -3 0 -9 -7 -12 -20 -9 -23 6 -28 -15 -8 -35
6 -6 9 -14 6 -17 -3 -4 -15 4 -26 16 -21 21 -21 21 -46 2 l-25 -20 38 -21 c21
-12 45 -22 53 -22 8 0 25 -14 37 -31 13 -18 20 -30 15 -27 -62 36 -120 47 -83
15 9 -6 31 -32 50 -57 52 -69 78 -95 86 -86 4 4 1 11 -7 16 -19 11 -21 37 -4
44 7 3 11 12 8 19 -6 18 22 30 49 21 16 -5 19 -3 14 10 -4 9 -10 23 -14 32 -5
14 -3 15 15 5 12 -7 22 -15 22 -19 0 -4 9 -8 21 -8 14 0 19 5 16 18 -6 21 4
23 21 6 9 -9 23 -6 60 11 l49 23 -12 34 c-6 18 -19 42 -28 52 -9 10 -15 21
-12 24 3 3 -5 27 -18 53 -14 27 -27 43 -31 36 -4 -6 -14 -11 -22 -11 -11 0
-12 4 -4 19 6 12 27 23 52 28 46 9 62 31 29 40 -24 6 -23 26 1 31 10 2 18 -7
22 -22 8 -31 10 -31 108 -5 l78 21 0 39 c0 21 5 41 12 45 7 4 8 3 4 -5 -9 -14
1 -61 12 -61 11 0 5 120 -7 154 -12 30 -9 42 7 32 5 -3 13 -26 16 -50 4 -24
13 -47 21 -50 8 -3 15 0 15 6 0 9 3 9 12 0 10 -10 10 -15 -2 -22 -12 -8 -11
-11 8 -16 12 -4 22 -12 22 -19 0 -7 5 -15 12 -17 7 -3 8 -10 4 -17 -7 -11 -10
-11 -16 0 -6 9 -12 9 -25 -4 -9 -9 -15 -22 -14 -29 1 -7 1 -22 0 -33 -1 -15
-3 -17 -10 -6 -5 8 -14 10 -21 6 -10 -6 -11 -1 -6 19 3 14 2 26 -3 26 -14 0
-17 -41 -6 -77 11 -36 35 -45 35 -13 0 25 11 25 41 0 24 -19 24 -19 3 -20 -20
0 -21 -3 -14 -36 10 -45 14 -48 38 -33 32 20 50 60 47 110 -2 50 -31 145 -46
155 -6 3 -14 17 -19 30 -5 13 -16 24 -25 24 -8 0 -15 5 -15 11 0 6 7 8 16 5
11 -4 14 -1 12 12 -2 10 -11 16 -21 14 -9 -2 -17 2 -17 8 0 6 4 9 9 6 9 -6 37
51 29 60 -8 7 -59 -7 -54 -15 3 -4 1 -13 -5 -21 -7 -13 -9 -13 -10 0 -1 8 -1
18 0 23 2 15 -18 6 -22 -10 -4 -13 -5 -12 -6 5 0 12 6 25 14 27 8 3 21 7 29 9
9 3 12 13 9 25 -3 11 -11 17 -18 15 -7 -3 -16 -1 -20 5 -9 16 -34 13 -52 -5
-13 -12 -18 -13 -24 -3 -10 17 8 39 27 32 7 -3 28 0 46 6 17 6 34 7 37 3 3 -5
20 -3 36 4 26 10 34 23 49 74 14 45 27 67 51 85 64 50 149 66 227 45z m-2663
-134 c36 -40 95 -75 151 -92 27 -8 61 -21 77 -29 15 -8 40 -15 55 -15 15 0 39
-5 55 -11 15 -6 37 -12 48 -14 48 -7 131 -29 163 -42 20 -8 51 -16 69 -18 52
-5 79 -29 114 -100 24 -50 29 -69 21 -77 -9 -9 -12 -8 -12 5 0 52 -84 157
-125 157 -15 0 -34 4 -44 10 -10 5 -36 10 -57 12 -21 1 -43 8 -49 14 -11 14
-103 36 -150 36 -25 0 -27 1 -10 8 15 6 10 8 -20 8 -22 0 -62 10 -90 23 -76
34 -113 40 -118 20 -3 -11 -5 -9 -6 7 0 12 -5 22 -10 22 -4 0 -20 11 -36 25
-15 14 -40 29 -56 32 -16 3 -29 10 -29 15 0 6 7 8 15 5 11 -5 13 1 10 26 -3
18 -2 25 1 17 4 -8 18 -28 33 -44z m5654 -46 c-8 -29 -29 -38 -104 -43 -19 -1
-24 -5 -18 -13 6 -7 6 -21 -1 -38 -8 -22 -7 -26 8 -26 16 -1 16 -1 0 -14 -11
-8 -18 -26 -18 -44 0 -25 5 -33 25 -38 27 -7 34 -24 10 -24 -11 0 -15 -12 -15
-45 0 -36 4 -47 19 -53 17 -6 18 -9 6 -26 -8 -10 -18 -15 -24 -11 -6 3 -11 -1
-11 -10 0 -12 -6 -15 -22 -9 -26 7 -56 23 -48 24 3 1 18 3 34 5 39 5 40 8 25
58 -13 47 -19 49 -57 28 -13 -7 -26 -10 -29 -7 -8 7 7 26 21 26 7 0 22 11 34
23 20 21 21 27 10 53 -12 27 -16 29 -58 24 -43 -5 -45 -6 -45 -37 0 -42 -13
-43 -17 -2 l-3 30 -55 -38 c-87 -61 -79 -80 75 -158 58 -30 70 -39 110 -85
l30 -35 -35 30 c-19 17 -36 33 -38 38 -10 21 -23 2 -20 -30 3 -35 6 -38 38
-43 26 -4 31 -7 18 -12 -24 -10 -22 -23 5 -37 20 -11 20 -11 -8 -5 -16 3 -32
6 -35 7 -8 3 -100 -36 -100 -43 0 -3 20 -16 45 -30 24 -13 42 -26 40 -28 -2
-2 -24 8 -50 23 -55 33 -58 31 -94 -56 -14 -34 -31 -64 -37 -66 -6 -2 4 27 23
64 39 81 40 86 11 78 -13 -3 -41 -11 -63 -16 -22 -6 -50 -15 -61 -19 -25 -10
-66 -2 -58 11 3 5 20 9 37 9 53 0 168 33 163 47 -3 7 -1 15 4 18 6 4 10 -1 10
-9 0 -21 11 -20 65 6 45 22 60 48 28 48 -10 0 -37 11 -60 25 l-43 24 -1 -42
-1 -42 -9 40 c-14 58 -22 62 -79 35 l-51 -24 56 -29 c78 -39 63 -45 -22 -9
-37 16 -75 32 -83 34 -8 3 11 13 44 22 32 9 69 28 83 42 13 13 28 22 33 19 5
-3 23 3 40 14 l31 19 -28 21 c-15 11 -33 25 -40 31 -19 16 -21 12 -17 -32 l4
-43 -16 45 c-8 25 -17 51 -20 58 -3 10 -11 9 -36 -3 l-33 -16 24 21 c13 11 22
22 20 23 -2 1 -25 17 -51 35 -57 40 -71 41 -58 6 6 -14 10 -39 10 -56 0 -30
22 -54 74 -85 12 -7 16 -12 11 -13 -6 0 -20 7 -31 15 -12 8 -30 13 -40 11 -16
-3 -19 3 -22 38 -1 22 -7 53 -13 68 -6 15 -9 35 -5 43 4 12 -3 19 -24 27 -17
5 -30 14 -30 19 0 15 33 10 61 -9 15 -9 45 -29 67 -44 23 -16 46 -28 52 -28 5
0 10 -5 10 -11 0 -20 20 3 21 24 0 12 3 16 6 9 5 -12 31 -1 68 30 5 5 19 15
30 22 17 12 18 17 7 41 -7 15 -10 30 -8 33 3 2 11 -7 17 -22 13 -28 16 -29 69
-26 49 2 78 23 76 55 0 14 -5 26 -11 27 -38 6 -82 3 -160 -9 -102 -16 -168
-22 -161 -16 8 8 139 33 205 38 94 8 223 36 241 52 20 19 29 16 23 -7z m-593
-23 c19 -7 35 -18 35 -25 0 -7 6 -17 14 -21 9 -6 5 -8 -14 -8 -14 0 -29 5 -32
13 -2 7 -12 10 -20 7 -10 -4 -14 -2 -10 4 13 21 -66 25 -148 8 -44 -9 -84 -19
-89 -22 -5 -3 -39 -8 -75 -10 -36 -2 -86 -10 -111 -18 -25 -7 -76 -21 -115
-31 -38 -9 -96 -28 -128 -41 -32 -13 -62 -21 -68 -17 -6 3 -19 -2 -30 -12 -15
-14 -17 -20 -7 -26 9 -6 7 -8 -7 -5 -11 2 -19 9 -17 15 3 15 -6 15 -47 1 -34
-12 -40 -33 -14 -61 9 -10 11 -18 6 -18 -6 0 -14 7 -17 16 -5 14 -9 14 -22 3
-9 -7 -20 -22 -24 -34 -9 -19 -9 -19 -9 2 -1 12 9 29 21 37 12 9 19 18 15 22
-3 4 -27 -14 -52 -40 -47 -47 -61 -56 -50 -33 3 6 0 4 -7 -7 -7 -10 -26 -35
-42 -55 -15 -20 -40 -54 -54 -76 -45 -71 -34 -21 14 66 62 110 74 125 126 154
106 61 224 108 174 70 -25 -19 -3 -20 27 -1 12 7 45 19 72 26 28 7 79 21 115
32 36 11 124 31 195 45 72 13 159 30 195 38 82 17 155 17 200 2z m-4460 -292
c-12 -16 5 -50 35 -69 30 -20 28 -34 -3 -17 -17 9 -19 7 -20 -17 0 -15 -4 -51
-8 -81 -5 -40 -3 -55 7 -62 23 -14 25 -11 44 46 9 30 20 57 24 59 11 7 1 -54
-14 -89 -42 -96 -56 -134 -59 -156 -2 -13 -8 -37 -15 -52 -17 -43 -13 -46 10
-8 11 18 22 31 25 28 7 -7 -26 -58 -50 -78 -17 -14 -19 -28 -18 -93 2 -51 -1
-75 -8 -71 -5 3 -10 23 -10 44 0 38 -23 82 -36 68 -4 -4 -2 -7 4 -7 7 0 12
-17 12 -45 0 -52 -15 -60 -26 -12 -7 31 -7 32 -14 7 -4 -14 -4 -49 0 -78 3
-28 5 -52 4 -52 -10 0 -33 73 -37 115 -4 39 -11 55 -36 77 -32 29 -26 37 11
17 19 -10 20 -9 16 15 -3 14 -1 26 5 26 18 0 47 32 47 52 0 10 -7 18 -15 18
-8 0 -15 4 -15 9 0 6 -12 6 -29 1 -25 -7 -28 -6 -24 11 3 10 -2 30 -11 44 -9
13 -16 30 -16 37 0 7 10 -4 22 -24 12 -21 26 -38 30 -38 5 0 22 -10 38 -22 24
-17 32 -19 45 -8 9 7 15 8 15 2 0 -6 -5 -12 -11 -14 -6 -2 -1 -14 10 -27 15
-17 21 -20 21 -9 0 8 7 29 16 46 8 18 12 37 8 43 -4 8 -3 9 4 5 8 -5 12 4 14
28 0 20 1 41 2 47 1 7 -9 15 -22 20 -19 7 -24 4 -35 -24 -13 -30 -14 -30 -19
-9 -3 12 -2 20 3 16 5 -3 9 2 9 11 0 12 -6 15 -21 10 -15 -5 -19 -4 -15 4 4 6
0 14 -8 17 -16 6 -23 25 -8 23 30 -5 37 3 38 46 2 71 54 119 54 50 0 -39 14
-46 30 -16 13 26 13 44 -2 35 -8 -5 -9 -2 -5 9 3 9 0 35 -8 58 -17 48 -19 60
-5 39 13 -19 13 1 1 33 -6 14 -7 28 -3 32 10 9 31 -58 22 -70z m-3295 16 c73
-41 132 -145 101 -177 -15 -14 -16 -13 -16 14 0 38 -31 111 -57 134 -39 35
-95 51 -185 50 -92 -1 -103 -4 -185 -59 -40 -28 -57 -47 -77 -93 -28 -61 -33
-104 -15 -116 8 -5 10 1 5 19 -3 14 -2 29 4 32 6 4 10 -5 10 -20 0 -16 4 -24
10 -20 6 4 10 14 9 23 -3 32 1 41 21 47 12 4 30 16 41 28 l21 22 -13 -27 c-7
-16 -20 -28 -30 -28 -9 0 -20 -7 -23 -16 -7 -17 22 -67 34 -59 5 3 11 -1 14
-7 3 -7 4 1 1 17 l-6 30 21 -25 c11 -14 20 -28 20 -32 0 -5 3 -8 8 -8 4 0 6
19 4 41 -3 27 -1 39 6 35 12 -7 11 -85 -2 -104 -12 -19 -2 -24 27 -13 17 7 28
7 32 0 4 -5 3 -9 -2 -8 -19 3 -31 -2 -37 -16 -5 -13 2 -15 39 -12 24 2 42 0
39 -5 -3 -4 -15 -8 -28 -8 -33 0 -40 -12 -14 -27 l23 -12 -22 -1 c-27 0 -58
-59 -39 -72 8 -6 6 -11 -4 -18 -25 -16 -28 -12 -24 43 3 43 1 48 -8 32 -6 -11
-19 -25 -27 -32 -11 -8 -12 -12 -3 -13 13 0 17 -50 4 -50 -4 0 -6 -16 -4 -36
4 -35 4 -36 -18 -24 -15 8 -20 8 -16 1 4 -7 1 -9 -8 -5 -8 3 -22 20 -30 39
-10 20 -26 35 -41 39 -29 7 -33 36 -10 80 18 35 19 46 3 46 -19 0 -7 203 14
251 16 36 82 100 131 126 81 42 222 39 302 -6z m11047 20 c24 -10 62 -36 86
-57 61 -55 80 -116 71 -231 -5 -61 -3 -102 7 -140 8 -30 14 -56 14 -59 0 -3
-16 -12 -35 -20 -26 -11 -35 -20 -35 -38 0 -13 -6 -29 -14 -35 -11 -10 -17 -7
-30 11 -10 14 -12 24 -5 28 6 4 7 19 3 36 -6 27 -5 28 8 10 8 -10 21 -16 29
-13 11 4 10 6 -2 6 -9 1 -20 12 -23 26 -8 31 -23 32 -29 3 -3 -14 -5 -9 -6 15
-1 37 -21 54 -21 17 0 -11 -5 -20 -11 -20 -7 0 -5 -10 5 -25 19 -28 13 -33
-11 -9 -12 12 -14 20 -6 33 5 9 7 25 3 36 -7 19 -7 19 -18 0 -10 -18 -11 -16
-12 13 0 21 -4 31 -11 27 -6 -4 -5 2 3 14 7 12 19 19 25 16 7 -2 13 0 13 5 0
6 -7 10 -15 10 -9 0 -12 6 -8 18 3 9 3 14 -1 11 -4 -4 -19 4 -34 18 -14 13
-39 27 -54 30 -23 4 -59 31 -47 34 2 0 14 2 25 3 26 3 124 64 124 77 0 5 -9 9
-19 9 -11 0 -23 5 -26 10 -7 12 37 4 67 -11 10 -6 19 -5 23 1 10 16 52 -18 61
-48 4 -15 6 -38 5 -52 -2 -24 -1 -24 14 -6 8 11 15 14 15 7 0 -7 5 -9 12 -5 8
5 7 10 -3 18 -8 6 -23 30 -33 54 -11 23 -23 42 -28 42 -4 0 -8 7 -8 15 0 24
32 -11 54 -57 9 -21 19 -38 22 -38 8 0 -7 63 -18 78 -6 6 -7 12 -4 12 21 0
-87 96 -129 115 -60 28 -55 33 7 6z m-11254 -73 c8 -8 15 -8 26 1 12 11 25 10
66 0 64 -16 84 -36 64 -63 -13 -19 -14 -19 -14 8 0 16 -5 26 -12 24 -7 -1 -28
3 -45 11 -18 7 -39 11 -47 8 -22 -9 -1 -64 27 -73 12 -3 32 -16 45 -27 20 -18
24 -19 32 -7 8 13 10 13 10 -1 0 -17 -35 -59 -50 -59 -5 0 -18 -10 -30 -22
-11 -12 -20 -19 -20 -15 0 4 -13 1 -30 -8 -37 -19 -55 -20 -38 -1 7 8 15 12
18 11 3 -2 12 1 20 6 12 8 12 12 2 16 -7 3 -25 16 -40 30 -15 14 -35 31 -46
38 -33 24 -13 45 44 45 27 0 50 3 50 6 0 3 -8 19 -17 36 -14 22 -24 28 -41 25
-18 -3 -20 -2 -11 9 14 17 22 17 37 2z m11182 -15 c-1 -13 -34 -49 -56 -61
-11 -6 -29 -27 -40 -47 l-19 -36 25 -22 c25 -22 31 -42 17 -64 -4 -6 -3 -23 3
-38 14 -37 12 -52 -3 -31 -13 17 -14 16 -26 -13 -8 -17 -15 -31 -17 -31 -7 0
-49 48 -51 59 -2 6 4 11 12 11 8 0 15 8 15 17 0 13 -3 14 -12 5 -19 -19 -26
-14 -20 13 2 14 8 22 13 19 5 -3 9 2 9 10 0 9 6 16 13 16 8 0 14 -7 14 -15 0
-8 -5 -15 -11 -15 -6 0 -6 -4 2 -12 8 -8 15 -8 27 2 28 23 19 36 -43 66 -8 4
34 66 73 107 25 27 45 53 45 58 0 5 7 9 15 9 8 0 15 -3 15 -7z m-1068 -279 c5
-3 8 -16 8 -30 0 -18 5 -24 21 -24 19 0 19 1 5 16 -18 18 -20 24 -6 24 14 0
52 -79 44 -92 -4 -7 -3 -8 4 -4 16 10 15 -16 0 -33 -11 -11 -10 -12 0 -7 7 4
19 3 26 -3 18 -15 135 -16 221 -2 39 6 121 11 183 11 130 0 201 22 227 69 9
16 14 20 15 10 0 -24 -31 -52 -91 -79 -62 -28 -84 -46 -69 -55 5 -3 19 4 31
16 21 21 23 21 36 4 19 -28 16 -41 -6 -21 -10 10 -22 13 -25 8 -7 -12 46 -57
63 -53 12 2 13 0 3 -12 -10 -12 -8 -23 12 -59 14 -25 31 -42 41 -42 12 2 13
-1 4 -12 -9 -11 -8 -18 5 -32 9 -10 13 -22 9 -25 -3 -4 -1 -7 5 -7 7 0 12 -12
12 -27 -1 -30 -5 -23 -66 94 -9 17 -26 34 -36 37 -11 2 -17 9 -14 14 8 14 -4
43 -15 36 -5 -3 -6 3 -2 12 4 12 3 15 -5 10 -7 -4 -10 -2 -7 7 3 7 -3 22 -15
32 -11 10 -20 13 -20 7 0 -7 -4 -12 -10 -12 -5 0 -10 6 -10 13 0 8 -8 21 -17
29 -24 21 -230 22 -305 2 -30 -7 -56 -10 -61 -5 -20 20 -107 -27 -107 -56 0
-7 -5 -13 -11 -13 -5 0 -7 -4 -4 -10 10 -17 23 -11 29 13 4 19 12 23 41 23 19
0 35 -2 35 -4 0 -2 -21 -23 -47 -48 -27 -25 -63 -59 -80 -77 -27 -26 -33 -29
-33 -14 0 10 -4 15 -10 12 -18 -11 -32 6 -18 23 12 13 10 14 -9 4 -12 -7 -25
-17 -28 -22 -4 -6 -13 -4 -22 6 -13 13 -14 20 -5 35 16 26 15 49 -1 28 -7 -8
-20 -18 -29 -22 -32 -12 -18 21 17 41 l20 11 -20 1 c-16 0 -17 2 -5 9 8 6 18
7 22 5 5 -3 7 0 6 8 -2 7 2 12 9 11 9 -2 10 4 3 23 -12 30 4 58 26 50 7 -3 16
-1 19 4 10 16 38 12 31 -5 -3 -8 2 -18 11 -23 14 -8 14 -12 -2 -36 -16 -23
-14 -30 7 -27 4 0 5 -6 2 -14 -10 -26 12 -16 24 10 14 31 15 46 2 25 -5 -8
-12 -12 -15 -8 -4 3 -1 15 6 26 11 18 10 24 -4 40 -19 20 -23 52 -7 52 6 0 10
5 10 11 0 6 -5 7 -12 2 -7 -4 -31 -12 -52 -18 -30 -8 -47 -21 -71 -55 -17 -25
-38 -46 -45 -48 -10 -3 -9 2 3 16 11 11 14 23 9 26 -6 3 -12 -1 -15 -8 -4 -10
-20 -15 -44 -14 l-39 0 1 49 c0 27 -3 49 -8 49 -4 0 -5 5 -2 10 7 12 3 12 -19
4 -9 -3 -16 -12 -16 -19 0 -7 -7 -16 -16 -19 -12 -4 -15 -15 -12 -37 3 -16 1
-32 -4 -35 -4 -3 -8 13 -8 34 0 22 -3 52 -6 68 -5 24 -1 32 24 47 33 19 77 23
87 7 11 -17 31 -11 71 21 32 26 44 29 74 24 19 -4 38 -9 42 -11z m-7792 -53
c40 -9 106 -53 188 -126 79 -69 112 -91 152 -100 19 -4 42 -13 50 -19 8 -7 30
-18 48 -26 40 -16 41 -26 2 -35 -30 -7 -38 -19 -20 -30 6 -3 10 -11 10 -17 0
-6 -11 2 -25 18 l-25 29 32 6 33 6 -35 2 c-22 1 -45 10 -62 26 -15 14 -30 25
-34 25 -4 0 -18 10 -31 22 -13 12 -23 17 -23 11 0 -6 7 -16 15 -23 8 -7 15
-17 15 -22 0 -6 -32 23 -70 63 -47 49 -73 70 -78 62 -5 -9 -20 -2 -47 22 -21
19 -34 35 -29 35 6 0 15 -5 22 -12 6 -6 14 -9 17 -6 9 9 -67 50 -108 58 -50
10 -44 -9 9 -26 35 -11 36 -12 11 -13 -21 -1 -28 -5 -25 -18 2 -10 10 -18 18
-18 8 -1 14 -6 13 -12 -2 -7 6 -15 17 -18 11 -4 20 -11 20 -18 0 -8 -3 -8 -12
1 -13 13 -68 17 -68 5 0 -5 6 -20 14 -35 14 -26 13 -26 -4 -15 -11 6 -23 8
-27 4 -4 -5 -1 -12 7 -17 11 -7 11 -12 2 -23 -7 -7 -9 -17 -5 -21 4 -4 1 -11
-7 -16 -12 -7 -9 -14 15 -40 16 -16 25 -30 20 -30 -5 0 -4 -5 3 -12 7 -7 12
-19 12 -28 0 -21 94 -113 105 -103 4 5 5 2 1 -4 -4 -7 10 -34 33 -63 21 -27
47 -73 56 -102 16 -49 65 -170 86 -210 16 -31 31 -101 36 -168 5 -75 31 -143
50 -136 7 3 13 -1 13 -8 0 -7 11 -24 24 -37 23 -24 61 -89 51 -89 -11 0 -55
44 -55 56 0 20 -27 37 -36 23 -4 -8 -3 -9 4 -5 7 4 12 3 12 -3 0 -5 -4 -11
-10 -13 -6 -2 -3 -39 6 -98 9 -52 18 -113 21 -135 3 -22 14 -51 24 -64 11 -13
19 -29 19 -35 0 -6 -5 -4 -10 4 -9 13 -11 13 -20 0 -14 -22 -12 -38 8 -50 15
-10 15 -10 -3 -8 -22 4 -33 42 -17 61 7 8 6 20 -2 36 l-13 24 -6 -24 c-9 -39
2 -91 23 -111 26 -24 26 -41 0 -33 -11 3 -20 2 -20 -3 0 -6 -7 -12 -15 -16
-13 -5 -13 -2 1 19 11 18 13 25 4 25 -7 0 -10 7 -6 15 3 8 1 15 -4 15 -12 0
-66 -81 -73 -112 -4 -14 -16 -28 -28 -31 -14 -4 -20 -11 -16 -21 3 -8 -1 -20
-10 -28 -9 -7 -22 -26 -30 -43 -12 -26 -13 -27 -9 -5 5 24 5 25 -11 5 -31 -41
-165 -332 -175 -383 -6 -30 -14 -48 -18 -42 -12 19 13 96 65 205 26 55 58 124
72 153 14 29 35 65 48 80 28 33 155 219 155 226 0 3 -21 5 -47 3 l-47 -2 -16
50 c-9 28 -22 63 -29 79 -6 16 -10 34 -8 40 3 6 10 -2 16 -18 8 -19 16 -26 26
-22 8 3 26 1 39 -5 20 -9 29 -8 50 7 14 11 26 24 26 31 0 7 7 10 18 7 16 -5
16 -4 -1 9 -11 9 -14 16 -7 19 6 2 8 11 5 20 -4 10 -13 14 -22 11 -11 -4 -14
-2 -9 5 4 7 1 12 -7 12 -8 0 -17 -9 -20 -20 -3 -11 0 -20 6 -20 7 0 5 -5 -3
-10 -10 -6 -11 -10 -2 -10 14 0 16 -36 2 -45 -16 -10 -43 23 -37 45 8 31 -18
45 -47 26 -32 -20 -41 -5 -21 33 8 17 15 45 15 63 0 18 5 51 11 73 7 22 15 72
19 110 l8 70 -2 -90 c-2 -82 -1 -87 9 -50 7 25 14 34 17 25 4 -8 4 2 1 23 -7
48 14 50 23 2 3 -19 10 -35 15 -35 13 0 10 32 -6 60 -8 14 -14 44 -15 67 0 24
-7 60 -15 80 -8 21 -31 101 -50 178 -20 77 -47 160 -61 185 -13 25 -60 85
-104 135 -44 49 -83 97 -86 107 -7 24 -30 23 -37 -3 -5 -17 -9 -19 -26 -10
-25 14 -31 14 -31 1 0 -5 7 -10 15 -10 8 0 15 -5 15 -11 0 -5 -4 -7 -10 -4 -5
3 -20 8 -31 10 -29 6 -37 15 -14 15 17 0 16 3 -5 25 -13 14 -33 25 -44 25 -12
0 -27 10 -35 22 -11 18 -11 22 3 30 9 5 16 16 16 24 0 12 4 12 20 4 14 -7 20
-7 20 0 0 5 -7 10 -15 10 -8 0 -15 5 -15 10 0 6 -16 10 -36 10 -25 0 -33 3
-28 13 4 6 4 9 -1 5 -5 -5 -15 1 -22 12 -15 21 -10 86 8 122 30 58 168 93 269
69z m-1833 -122 c63 -5 124 -14 135 -20 21 -12 40 -15 106 -23 47 -5 69 -16
33 -16 -16 0 -21 -5 -18 -14 6 -15 -33 -31 -43 -17 -8 12 -50 20 -50 10 0 -6
-20 2 -45 17 -25 14 -48 24 -51 21 -3 -3 4 -8 15 -12 12 -3 28 -13 36 -22 9
-8 28 -16 43 -17 15 0 32 -4 37 -9 6 -4 31 -24 57 -43 26 -20 50 -45 53 -55 4
-10 11 -19 16 -19 6 0 7 -5 4 -10 -8 -14 63 -102 76 -95 5 4 9 1 9 -4 0 -6 -4
-11 -10 -11 -9 0 -7 -6 25 -85 13 -31 20 -51 54 -165 78 -260 138 -384 220
-455 149 -128 250 -248 276 -325 8 -25 19 -80 24 -123 9 -80 13 -89 104 -217
75 -106 161 -249 183 -305 44 -109 146 -204 269 -250 48 -18 95 -43 105 -56 3
-3 24 -16 48 -28 24 -12 45 -28 49 -36 3 -8 14 -15 24 -15 24 0 25 -23 2 -46
-17 -17 -18 -17 -23 7 -3 13 -7 -16 -11 -66 l-5 -90 -2 96 c-2 93 -3 96 -32
117 -16 12 -33 22 -39 22 -5 0 -11 7 -15 15 -3 8 -12 15 -20 15 -8 0 -19 7
-24 16 -5 9 -21 16 -35 17 -14 0 -25 2 -24 6 1 3 -2 8 -8 10 -5 2 -31 15 -56
28 -26 13 -51 23 -57 23 -5 0 -17 11 -25 24 -22 33 -63 76 -72 76 -4 0 -5 -9
-2 -20 3 -13 0 -20 -8 -20 -10 0 -12 11 -9 38 3 28 2 32 -5 17 -9 -19 -10 -19
-10 3 -1 12 -5 22 -11 22 -5 0 -10 8 -10 19 0 31 -46 142 -55 134 -4 -5 -5 -3
-2 3 4 7 0 17 -8 24 -8 7 -15 18 -15 25 0 8 -16 23 -34 35 -19 11 -33 27 -30
33 5 15 -53 115 -96 163 -48 55 -60 89 -65 173 -4 88 -30 152 -84 209 -17 17
-29 32 -25 32 3 0 -22 28 -55 62 -33 34 -63 59 -67 55 -4 -4 5 -16 19 -28 15
-11 27 -25 27 -30 0 -5 -14 4 -31 20 -17 17 -28 35 -25 40 4 6 -21 37 -54 70
-49 48 -71 81 -110 164 -27 58 -54 123 -61 146 -7 22 -16 41 -20 41 -4 0 -7 8
-7 18 2 24 -22 92 -32 92 -9 0 -35 98 -32 117 4 17 -26 61 -68 104 -20 19 -34
41 -32 47 2 7 8 10 13 6 17 -10 9 11 -19 51 -40 59 -65 85 -81 85 -18 0 -111
59 -111 71 0 5 -8 9 -17 9 -15 0 -16 -2 -3 -10 9 -6 11 -10 3 -10 -7 0 -10 -7
-7 -15 8 -19 -6 -19 -42 0 -33 17 -58 20 -49 5 3 -5 -1 -10 -9 -10 -23 0 -20
17 4 25 11 4 17 11 14 17 -4 6 1 8 15 3 16 -5 20 -3 15 9 -3 8 -12 12 -19 10
-7 -3 -16 -1 -20 5 -9 16 -40 14 -54 -3 -10 -11 -8 -16 8 -21 12 -4 18 -12 14
-21 -9 -25 -30 -15 -37 17 -7 37 -1 49 24 49 10 0 21 4 25 9 6 10 -9 16 -70
27 -23 4 -52 19 -70 37 l-30 30 33 -23 c27 -18 55 -24 149 -31z m-83 -114 c5
-20 -1 -33 -29 -62 -19 -20 -36 -40 -36 -45 -3 -19 -5 -24 -21 -48 -9 -14 -24
-42 -34 -62 -9 -20 -20 -36 -23 -34 -3 2 -7 -10 -8 -27 -2 -56 -21 -136 -41
-175 -31 -59 -60 -133 -72 -179 -6 -24 -13 -43 -17 -43 -12 0 9 83 37 145 57
124 62 141 70 215 6 58 18 93 49 155 23 44 41 85 41 92 0 7 5 13 10 13 6 0 10
7 10 16 0 12 6 15 26 10 25 -7 26 -5 22 24 -5 36 7 40 16 5z m8636 -137 c-29
-51 -63 -112 -76 -136 -13 -23 -59 -84 -102 -135 -73 -84 -113 -144 -167 -246
-11 -21 -29 -51 -41 -67 -12 -16 -34 -60 -49 -99 -15 -38 -31 -74 -35 -80 -14
-18 -78 -238 -96 -325 -53 -275 -109 -499 -129 -518 -9 -10 -5 17 10 62 22 63
65 237 65 260 0 19 0 19 -22 0 l-22 -19 21 28 c12 15 24 47 28 70 4 23 11 47
15 52 4 6 13 42 20 80 16 93 40 187 51 201 12 14 59 134 53 134 -2 0 -12 -17
-23 -38 -11 -21 -27 -45 -37 -53 -16 -13 -16 -12 -6 8 7 12 16 24 21 27 5 3
12 17 15 31 4 14 19 44 35 67 89 134 93 142 66 132 -8 -4 -15 -14 -16 -23 0
-9 -3 -11 -5 -4 -3 7 0 21 6 33 9 17 14 19 26 10 11 -10 16 -8 23 11 5 13 7
27 4 32 -2 4 1 7 6 7 6 0 10 4 9 8 -2 4 9 20 25 35 30 31 36 52 10 43 -15 -6
-15 -5 1 13 10 11 23 18 27 15 5 -3 9 -1 9 4 0 5 21 34 48 65 106 125 122 146
143 187 13 24 22 58 22 74 -1 29 -1 29 6 6 7 -24 8 -23 33 20 15 25 37 64 49
87 13 24 25 41 27 38 3 -2 -19 -46 -48 -97z m1901 -71 c5 -10 8 -21 5 -25 -5
-8 5 -57 19 -97 4 -13 1 -12 -9 5 l-15 25 -2 -30 c-1 -16 -1 -35 0 -41 1 -7
-10 -56 -24 -110 -14 -55 -25 -108 -25 -119 -1 -25 -14 -43 -98 -130 -37 -39
-88 -98 -115 -130 -26 -33 -72 -89 -103 -125 -31 -36 -83 -101 -117 -145 -33
-44 -74 -96 -91 -116 -17 -20 -41 -49 -54 -64 -12 -15 -20 -31 -17 -35 3 -5 2
-11 -3 -14 -4 -2 -8 3 -9 13 -1 10 30 56 68 102 39 46 86 108 105 137 20 29
51 69 70 88 21 20 32 39 28 47 -4 6 -4 9 0 5 4 -3 26 15 49 40 23 26 44 49 47
52 9 8 66 84 75 99 6 11 4 13 -9 8 -10 -4 -15 -3 -11 3 4 6 12 9 19 8 18 -4
87 77 80 95 -3 8 1 26 10 39 18 28 41 89 56 146 6 25 17 42 25 42 8 0 15 7 15
15 0 8 -4 15 -9 15 -4 0 -6 12 -3 26 2 14 7 21 11 16 3 -6 6 10 7 34 l1 44
-17 -37 c-9 -21 -20 -50 -23 -64 -4 -15 -14 -29 -22 -33 -14 -5 -14 -2 0 24 8
16 15 38 15 50 0 12 4 19 9 16 10 -7 24 52 15 65 -3 5 0 35 7 66 11 50 14 53
22 32 5 -13 13 -32 18 -42z m-929 -148 c-15 -28 -38 -72 -52 -98 -62 -118
-135 -193 -244 -253 -39 -21 -104 -23 -142 -3 -33 16 -204 188 -204 204 0 19
16 12 30 -14 7 -14 36 -44 63 -67 28 -24 72 -62 99 -85 58 -51 87 -54 156 -19
93 49 164 133 262 309 48 85 75 108 32 26z m192 -26 c-8 -27 -19 -70 -26 -98
-17 -80 -96 -251 -141 -307 -24 -30 -28 -41 -18 -47 8 -6 9 -11 3 -15 -6 -3
-12 0 -14 6 -3 8 -9 5 -16 -9 -7 -12 -25 -36 -41 -54 -16 -17 -27 -37 -24 -44
2 -8 -6 -16 -19 -21 -28 -9 -114 -72 -148 -109 -14 -15 -34 -32 -45 -38 -19
-9 -19 -9 -5 9 8 10 23 30 35 43 l20 24 -20 -11 c-24 -12 -72 -67 -88 -99 -5
-13 -14 -23 -19 -23 -5 0 -18 -19 -28 -42 l-20 -43 6 35 c15 83 94 173 229
262 105 69 132 93 189 168 56 73 88 142 142 307 24 75 47 140 50 144 13 21 12
6 -2 -38z m-857 -82 c-2 -17 -7 -34 -12 -39 -5 -4 -5 -2 -1 5 3 6 2 14 -4 18
-5 3 -10 1 -10 -4 0 -6 -7 -11 -16 -11 -12 0 -10 -6 9 -21 25 -19 26 -22 12
-43 -8 -12 -12 -26 -8 -30 4 -4 0 -4 -10 0 -12 4 -17 1 -17 -12 0 -16 -2 -17
-10 -4 -7 11 -10 11 -10 2 0 -7 -5 -10 -10 -7 -6 4 -7 11 -4 17 7 10 -13 28
-31 28 -5 -1 -1 -7 9 -15 11 -8 14 -15 7 -15 -7 0 -9 -5 -5 -12 4 -6 0 -16 -8
-22 -8 -6 -17 -18 -20 -26 -5 -13 -7 -12 -13 2 -4 11 -1 24 9 33 18 19 21 45
5 45 -5 0 -7 5 -3 11 3 6 1 15 -6 19 -9 6 -7 11 9 19 11 7 21 17 21 24 0 7 -3
8 -8 2 -11 -15 -50 -35 -67 -35 -9 0 -13 -5 -10 -10 4 -6 14 -8 24 -5 14 4 17
-1 17 -30 0 -32 -2 -34 -25 -29 -25 6 -25 6 -7 -8 24 -19 29 -45 10 -52 -8 -3
-14 -1 -14 4 0 6 -4 10 -10 10 -15 0 -12 -47 5 -63 13 -13 13 -16 0 -21 -9 -3
-14 -16 -13 -30 2 -18 6 -22 14 -15 8 7 14 7 19 0 4 -7 21 -1 45 14 22 14 40
22 40 18 1 -5 7 6 15 22 7 17 14 24 14 17 1 -7 6 -10 13 -6 7 4 8 3 4 -5 -4
-6 -12 -9 -17 -6 -5 4 -10 -5 -10 -19 -1 -14 -3 -30 -4 -36 -1 -5 -3 -13 -4
-17 -1 -5 -5 -3 -9 3 -5 9 -11 8 -20 -2 -10 -11 -10 -14 0 -14 7 -1 2 -7 -12
-15 -38 -21 -87 -4 -103 35 -3 10 -6 7 -6 -7 -1 -13 -1 -26 0 -30 0 -3 -7 -11
-16 -16 -12 -6 -20 -5 -26 4 -5 8 -9 10 -9 4 0 -5 -12 8 -27 30 -28 40 -29 49
-20 155 1 14 8 29 15 33 6 4 12 13 12 19 0 6 -6 5 -16 -3 -13 -10 -17 -10 -25
2 -12 20 -11 35 2 22 7 -7 22 -5 52 10 23 12 45 20 48 19 4 0 15 8 24 18 10
11 26 20 35 20 10 0 20 7 24 15 3 8 12 15 21 15 8 0 15 5 15 11 0 8 5 8 15 -1
14 -11 19 -7 16 13 -2 12 35 43 47 39 7 -2 15 4 18 13 10 26 35 -17 31 -54z
m-9920 33 c33 -5 64 -35 95 -92 12 -22 31 -36 67 -49 35 -12 51 -23 51 -35 0
-10 7 -18 15 -18 8 0 15 -5 15 -11 0 -11 -17 -10 -127 7 -24 3 -43 10 -43 15
0 5 -7 9 -15 9 -8 0 -15 5 -15 11 0 8 -4 8 -14 0 -17 -14 -93 18 -133 56 -23
21 -24 24 -6 14 12 -6 25 -16 29 -22 3 -6 18 -8 33 -5 20 5 23 4 11 -4 -12 -9
-11 -10 8 -5 12 3 22 2 22 -3 0 -6 8 -13 18 -16 9 -3 2 7 -16 24 -34 31 -34
37 -1 20 13 -8 19 -7 19 0 0 6 13 4 31 -5 17 -9 28 -19 25 -22 -3 -3 -12 0
-21 7 -9 7 -18 10 -21 7 -10 -9 34 -27 50 -21 20 8 20 9 -1 44 -9 16 -25 31
-36 34 -10 2 -16 9 -12 15 8 14 -8 14 -56 0 -30 -10 -42 -9 -54 1 -12 10 -19
10 -27 2 -9 -9 -8 -12 6 -12 9 0 14 -4 11 -10 -5 -9 15 -15 38 -11 4 0 7 -4 7
-10 0 -20 -54 0 -78 29 -16 19 -20 21 -16 8 5 -13 4 -17 -4 -12 -8 5 -12 -1
-11 -16 0 -13 -5 -45 -11 -73 -9 -43 -8 -52 6 -62 19 -14 102 -40 170 -52 25
-5 48 -12 52 -15 9 -10 -76 4 -123 20 -22 8 -47 14 -56 14 -9 0 -27 8 -40 19
-13 10 -33 20 -43 22 -15 3 -19 14 -20 54 -1 44 1 50 18 47 19 -4 19 -3 -1 45
-3 7 2 16 11 19 9 3 13 11 9 17 -18 29 68 39 184 21z m2004 -210 c24 -35 36
-45 53 -42 18 4 21 0 21 -25 0 -34 20 -49 22 -17 1 11 -1 20 -5 20 -4 0 -7 18
-7 41 0 22 1 35 3 29 3 -9 7 -8 13 1 6 10 8 7 7 -11 -2 -16 2 -24 10 -22 24 5
49 -17 57 -50 l7 -33 12 28 c13 30 25 25 40 -18 7 -19 8 -19 17 -2 8 13 7 23
-1 35 -7 9 4 -1 24 -23 46 -50 54 -79 31 -121 -28 -52 -69 -85 -113 -91 -38
-5 -41 -3 -70 38 -17 24 -38 52 -46 62 -9 9 -16 22 -16 28 0 6 -21 54 -47 107
-60 121 -56 112 -49 112 3 0 19 -21 37 -46z m-1018 -124 c8 0 8 -3 0 -11 -9
-9 -4 -23 19 -58 18 -25 40 -55 49 -66 10 -11 38 -43 62 -72 25 -28 49 -49 53
-45 4 4 4 1 0 -6 -4 -7 -1 -15 9 -18 9 -4 14 -13 11 -20 -3 -7 0 -16 6 -20 7
-5 8 -2 3 7 -5 8 -4 11 1 6 5 -5 9 -12 10 -15 2 -18 20 -51 51 -93 18 -26 33
-50 33 -54 0 -4 10 -16 22 -26 11 -11 18 -19 14 -19 -4 0 9 -30 29 -67 24 -45
28 -58 13 -39 -13 16 -32 40 -43 54 l-21 24 -77 -38 c-42 -20 -77 -41 -77 -46
0 -4 -7 -8 -16 -8 -16 0 -90 -53 -110 -79 -6 -7 -17 -12 -24 -9 -16 5 122 104
200 143 30 15 68 37 84 48 23 17 26 21 13 29 -9 4 -30 34 -48 65 -46 81 -120
183 -226 313 -85 105 -104 140 -66 126 8 -3 20 -6 26 -6z m9873 -71 c4 -6 19
-9 36 -5 47 9 24 -9 -42 -34 -69 -26 -81 -38 -55 -57 11 -7 15 -13 10 -13 -5
0 11 -21 35 -47 l45 -47 -50 43 c-77 66 -90 68 -99 21 -1 -3 -5 -11 -10 -19
-7 -10 -1 -20 17 -36 30 -23 36 -41 12 -31 -11 4 -19 -3 -25 -19 -14 -36 -20
-31 -10 6 16 55 -2 63 -49 23 -29 -24 -35 -53 -8 -38 7 4 9 4 5 -1 -4 -4 -1
-14 7 -22 17 -16 21 -88 5 -78 -5 3 -10 19 -10 35 0 39 -26 46 -44 11 -8 -15
-22 -33 -30 -40 -27 -22 -18 -32 24 -25 46 8 79 -1 63 -17 -7 -7 -17 -8 -29
-1 -29 14 -70 0 -65 -24 3 -18 2 -18 -17 0 -12 10 -26 15 -32 11 -9 -6 -9 -2
-1 14 6 11 20 25 31 31 11 6 23 23 26 38 4 15 11 32 16 39 5 7 7 17 3 23 -5 8
-12 4 -22 -9 -8 -12 -22 -21 -31 -21 -14 1 -14 2 3 12 11 6 23 16 27 22 8 13
-10 36 -28 36 -24 0 -15 27 14 45 27 18 27 18 9 -2 -18 -20 -17 -21 9 -42 l27
-21 23 32 24 32 -22 20 c-13 12 -27 20 -33 18 -5 -2 5 11 24 28 18 17 36 28
39 25 3 -3 -3 -12 -14 -19 -21 -16 -14 -29 21 -40 28 -8 61 47 39 65 -27 22
-36 48 -24 67 10 15 11 14 7 -6 -4 -16 2 -27 19 -39 22 -14 26 -14 42 1 10 8
33 19 50 22 35 7 39 13 20 32 -9 9 -9 12 -1 12 7 0 15 -5 19 -11z m-2240 -100
c4 -8 9 -7 15 2 7 11 9 11 9 -2 0 -11 20 -24 59 -38 71 -26 97 -26 111 -3 10
14 11 13 7 -10 -4 -25 -1 -28 27 -29 30 -2 30 -2 4 -6 -35 -5 -35 -18 -3 -66
29 -42 46 -46 75 -17 35 35 32 22 -7 -30 -20 -27 -39 -47 -41 -45 -3 2 1 11 7
19 7 9 8 16 2 20 -5 4 -19 -8 -31 -24 -12 -17 -25 -29 -28 -26 -3 4 5 17 18
31 l23 24 -27 45 c-15 26 -33 46 -41 46 -21 0 -136 -60 -131 -69 3 -4 -6 -8
-19 -9 -18 -1 -23 2 -19 13 4 9 -1 17 -12 21 -47 15 -58 23 -24 17 19 -3 41
-10 48 -16 8 -7 32 1 78 24 36 19 68 37 70 40 6 10 -128 51 -137 42 -4 -4 -4
-27 0 -50 5 -23 5 -45 2 -49 -3 -3 -10 20 -16 51 l-10 56 -36 -33 c-19 -18
-38 -41 -42 -50 -5 -15 -9 -15 -42 2 -20 10 -50 23 -67 29 -17 6 -29 13 -26
16 2 3 31 -5 63 -16 l59 -21 43 45 43 45 -38 32 c-37 31 -37 31 -5 16 17 -9
35 -21 39 -27z m1540 -402 c-2 -35 -8 -73 -15 -85 -6 -12 -9 -22 -6 -22 13 0
-13 -32 -89 -109 -43 -45 -75 -81 -70 -81 5 0 1 -5 -8 -11 -10 -5 -18 -17 -18
-24 0 -8 -4 -15 -10 -15 -5 0 -10 -6 -10 -13 0 -7 -11 -29 -24 -48 -14 -20
-28 -48 -32 -63 -3 -14 -10 -24 -14 -21 -5 3 -12 -5 -16 -17 -4 -13 -16 -34
-27 -48 -25 -32 -23 -27 41 97 70 137 105 191 196 298 71 85 76 93 76 138 0
37 15 87 27 87 1 0 0 -28 -1 -63z m-6592 -224 c-4 -21 -11 -43 -16 -50 -5 -6
-6 -23 -2 -37 4 -19 3 -26 -6 -24 -7 2 -28 -37 -51 -97 -45 -118 -52 -104 -9
18 35 100 37 113 10 72 -29 -43 -89 -114 -138 -161 -36 -36 -40 -43 -25 -49
15 -5 13 -9 -12 -19 -17 -8 -38 -24 -47 -37 -28 -41 -90 -105 -84 -86 3 10 26
47 51 81 28 40 45 74 45 92 0 20 3 25 9 15 7 -11 14 -10 40 5 17 10 31 21 31
24 0 3 18 26 41 50 23 25 51 61 64 80 12 19 34 46 49 59 14 14 31 42 36 63 14
49 23 49 14 1z m5086 -140 c17 -34 30 -65 30 -68 0 -3 13 -34 29 -68 25 -55
41 -91 46 -107 22 -74 31 -99 43 -117 8 -13 12 -23 9 -23 -3 0 -1 -17 5 -37
29 -119 38 -177 38 -255 0 -58 -4 -88 -11 -88 -7 0 -9 12 -5 33 9 50 -44 321
-76 385 -9 17 -13 32 -8 32 8 0 -35 131 -64 195 -60 131 -80 172 -91 185 -6 8
-15 24 -18 35 -13 38 42 -38 73 -102z m-4686 -127 c8 -11 16 -36 20 -54 3 -19
23 -70 45 -115 21 -45 53 -126 70 -181 18 -54 43 -123 57 -154 13 -30 27 -73
31 -94 3 -22 9 -34 13 -28 4 6 13 -10 20 -37 7 -26 24 -68 38 -93 13 -25 33
-61 44 -80 l20 -35 -32 35 c-34 37 -80 128 -80 159 0 10 -7 24 -15 31 -8 7
-15 20 -15 29 0 9 -7 27 -16 40 -9 13 -21 42 -26 64 -5 23 -20 63 -34 90 -13
27 -24 56 -24 65 0 8 -9 34 -19 56 -27 57 -65 156 -96 254 -15 45 -31 85 -36
88 -5 3 -9 14 -9 25 0 11 5 17 10 14 6 -3 11 2 12 12 1 10 3 -2 5 -26 3 -24
10 -53 17 -65z m-489 -540 c28 -13 77 -46 109 -74 33 -29 65 -52 73 -52 7 0
13 -4 13 -9 0 -5 34 -27 76 -48 42 -21 85 -42 95 -48 10 -5 19 -15 19 -22 0
-13 67 -39 89 -34 8 1 20 -5 27 -14 7 -9 15 -16 18 -16 28 3 34 -1 29 -20 -4
-14 -8 -17 -13 -8 -12 18 -40 3 -40 -21 0 -12 4 -18 10 -15 6 3 7 -1 4 -10 -6
-14 -10 -13 -30 6 -23 22 -23 23 -4 36 28 20 15 41 -26 40 -26 -1 -40 6 -62
31 -15 17 -59 46 -97 64 -39 17 -74 34 -78 36 -5 2 -4 -5 2 -17 9 -17 9 -20
-3 -15 -17 7 -30 34 -16 34 6 0 10 4 10 9 0 5 -11 9 -24 9 -13 0 -36 11 -52
25 -100 87 -138 115 -173 125 -50 16 -61 15 -61 -2 0 -27 -19 -27 -26 0 -12
49 35 52 131 10z m4570 -107 c-9 -13 9 -11 24 4 10 10 11 9 6 -5 -4 -10 -15
-20 -26 -23 -10 -4 -19 -10 -19 -14 0 -10 -36 -52 -44 -52 -17 1 -35 -13 -29
-22 4 -7 0 -8 -11 -4 -14 5 -17 3 -12 -8 3 -8 0 -14 -7 -12 -7 1 -11 -4 -9
-11 1 -8 -2 -11 -8 -7 -17 10 -100 -75 -101 -104 0 -24 -1 -24 -10 -6 -7 16
-8 13 -4 -13 2 -18 1 -31 -4 -28 -10 7 -37 -64 -45 -118 -3 -22 -26 -82 -51
-133 -25 -51 -45 -99 -45 -106 0 -7 -7 -22 -15 -33 -14 -18 -15 -17 -9 11 4
17 27 73 51 125 24 52 52 129 62 170 32 129 59 176 162 277 52 51 103 102 113
113 18 19 42 18 31 -1z m-3094 -444 c4 -6 13 -50 19 -99 19 -153 40 -260 55
-277 8 -8 12 -19 8 -22 -3 -4 -1 -7 5 -7 6 0 9 -7 6 -15 -4 -8 -1 -15 5 -15 6
0 11 -11 11 -24 0 -13 9 -35 20 -49 11 -14 20 -30 20 -37 0 -6 9 -19 21 -29
25 -20 30 -71 13 -126 -9 -30 -12 -34 -13 -16 -2 41 -23 100 -39 106 -8 3 -21
-3 -29 -12 -14 -17 -14 -17 -9 0 3 9 0 17 -6 17 -9 0 -9 3 0 12 8 8 9 15 1 25
-9 9 -8 13 0 13 8 0 9 6 3 18 -5 9 -7 23 -5 30 3 6 -1 12 -8 12 -7 0 -9 3 -6
6 3 4 -3 18 -13 32 -11 13 -20 32 -20 41 0 10 -4 21 -10 27 -5 5 -12 43 -14
84 -3 41 -7 89 -10 105 -3 17 -7 64 -10 105 -3 41 -7 89 -9 105 -3 17 -2 23 0
15 3 -8 9 -20 14 -25z m-1732 -247 c26 -2 30 -5 25 -23 -11 -36 -45 -75 -64
-75 -10 0 -25 -7 -34 -15 -8 -8 -32 -15 -54 -15 -40 0 -40 0 -32 33 4 17 21
47 38 66 18 18 32 42 32 53 0 19 0 19 29 -1 15 -11 42 -22 60 -23z m741 -68
c-9 -6 -9 -9 0 -15 6 -4 14 -5 17 -1 9 9 33 -21 33 -41 0 -15 -3 -14 -20 7
-19 24 -20 24 -20 4 0 -12 7 -34 15 -50 l14 -28 13 30 c13 30 38 36 38 9 0 -7
7 -16 16 -19 8 -3 12 -11 9 -16 -4 -6 -1 -17 5 -25 12 -14 9 -82 -4 -103 -11
-18 5 -44 25 -39 11 3 16 1 13 -5 -13 -20 -104 19 -104 45 0 6 7 3 15 -7 14
-18 15 -13 13 50 0 38 -3 53 -5 34 -6 -57 -14 -69 -25 -40 -5 14 -9 27 -8 29
2 5 -23 21 -33 21 -5 0 1 -17 14 -37 l22 -38 -32 31 c-19 18 -36 47 -41 70
-12 50 -13 137 -1 130 5 -3 14 1 20 8 9 11 9 16 0 21 -8 6 -7 10 2 16 10 6 15
2 17 -13 2 -11 -2 -24 -8 -28z m3767 -302 c-2 -45 25 -228 34 -228 5 0 6 -7 2
-15 -3 -9 2 -35 10 -58 52 -136 15 -208 -99 -190 -31 5 -34 8 -19 14 19 7 19
8 0 8 -12 1 -26 6 -33 13 -9 9 -12 9 -12 -3 -1 -10 -4 -9 -11 4 -6 10 -8 21
-5 24 3 4 6 1 6 -6 0 -7 5 -9 10 -6 7 4 8 11 1 18 -11 14 -14 38 -12 87 l2 35
16 -27 c22 -36 40 -42 46 -17 4 16 2 19 -10 15 -13 -5 -14 -4 -3 9 7 8 17 12
22 9 6 -4 14 0 19 7 8 12 11 12 19 -1 8 -12 10 -10 11 10 l1 25 8 -25 c7 -22
8 -21 9 12 1 32 -2 36 -19 33 -13 -2 -20 2 -20 11 0 8 3 14 8 14 10 0 9 104
-2 111 -5 4 -5 13 0 20 12 19 13 78 2 85 -5 3 -4 12 3 20 15 19 17 18 16 -8z
m139 -13 c-3 -9 0 -15 9 -15 8 0 15 -6 15 -13 0 -16 37 -57 50 -57 6 0 10 11
10 25 0 14 5 25 11 25 6 0 9 -9 6 -20 -4 -15 0 -20 13 -20 10 0 22 -9 25 -20
9 -28 21 -25 35 10 13 32 31 41 24 13 -6 -27 23 -60 38 -45 9 9 8 12 -5 12
-16 0 -15 4 5 30 20 27 23 29 29 13 4 -10 2 -24 -3 -30 -7 -9 -7 -13 0 -13 6
0 14 9 17 21 9 27 14 20 21 -29 4 -31 2 -42 -8 -42 -11 0 -10 -2 1 -9 16 -10
6 -31 -15 -31 -21 0 -19 -76 2 -84 9 -3 20 -4 25 -1 5 4 6 -1 3 -9 -6 -14 -83
-46 -113 -46 -11 0 -10 3 5 15 18 14 18 15 -13 27 -32 12 -44 28 -22 28 5 0 7
5 4 10 -3 6 -18 7 -33 4 -26 -6 -26 -6 -8 9 19 14 17 15 -33 22 -40 5 -51 11
-47 22 3 8 1 11 -4 8 -5 -3 -18 -1 -27 4 -10 6 -15 11 -10 11 4 0 1 15 -7 34
-22 52 -25 156 -5 156 6 0 9 -7 5 -15z m-3048 -165 c-49 -15 -151 -82 -137
-90 8 -6 4 -9 -12 -12 -30 -4 -59 -59 -56 -107 1 -25 12 -45 43 -77 46 -47
139 -100 149 -84 3 6 1 10 -6 10 -8 0 -8 4 2 16 10 13 10 17 -1 24 -12 7 -11
10 3 16 9 3 14 10 11 15 -9 15 6 49 22 49 8 0 14 -8 15 -17 0 -13 2 -14 6 -4
3 8 -2 20 -12 27 -15 11 -11 12 28 9 37 -2 45 0 45 13 -2 31 13 92 22 92 5 0
7 7 3 16 -4 10 -13 14 -26 10 -15 -3 -17 -2 -9 6 9 9 18 8 37 0 14 -6 38 -9
55 -6 33 7 41 -9 13 -25 -17 -10 -16 -10 2 -11 38 -1 45 -16 7 -16 -20 0 -46
-4 -56 -9 -15 -6 -17 -5 -11 5 5 8 3 11 -5 8 -7 -2 -14 -11 -16 -20 -1 -12 9
-17 43 -20 30 -2 47 1 50 9 6 16 37 17 64 3 25 -14 26 4 1 22 -25 18 -25 50 0
42 13 -4 16 -1 12 10 -3 8 3 19 14 25 22 12 55 5 47 -10 -3 -4 -13 -5 -23 -2
-14 6 -15 4 -5 -9 7 -8 9 -18 5 -22 -4 -4 -7 -46 -7 -92 0 -63 3 -83 13 -79 6
2 12 2 12 -1 0 -2 -12 -9 -26 -14 -32 -13 -29 -44 6 -48 14 -2 32 -6 40 -9 8
-4 24 -7 35 -8 45 -4 205 -47 205 -55 0 -5 -16 -12 -35 -16 -27 -5 -37 -12
-42 -33 -4 -14 -20 -82 -37 -151 -31 -125 -31 -125 -66 -136 -19 -6 -51 -14
-70 -17 -22 -4 -17 -1 15 9 28 8 57 18 65 23 9 5 25 54 42 127 43 194 42 184
16 185 -15 0 -18 3 -8 6 17 7 -101 42 -142 43 -16 0 -28 4 -28 9 0 18 -28 19
-66 1 -21 -10 -32 -19 -24 -20 8 -1 -14 -10 -50 -19 l-65 -18 44 -12 c23 -7
41 -15 38 -17 -5 -5 -107 21 -142 36 -11 5 -45 19 -75 31 -30 13 -67 32 -81
42 -21 15 -31 17 -47 8 -11 -6 -29 -11 -39 -10 -10 0 -3 5 15 10 17 5 32 13
32 17 0 15 -65 57 -85 55 -14 -1 -15 0 -3 3 13 4 15 13 11 38 -6 39 25 111 66
150 39 37 130 85 161 85 l25 -1 -27 -8z m6913 -500 c19 -55 36 -100 39 -100 3
0 16 33 29 73 36 110 44 127 62 127 15 0 16 -4 4 -42 -35 -116 -77 -208 -95
-208 -18 0 -22 6 -63 125 -14 39 -30 82 -36 98 -9 24 -8 27 9 27 15 0 25 -20
51 -100z m-6176 61 c100 -18 358 -31 373 -19 15 13 156 11 160 -3 2 -5 40 -10
85 -10 45 -1 74 -3 65 -6 -16 -4 -17 -21 -15 -170 2 -134 -1 -167 -12 -171 -9
-3 -11 0 -6 8 9 14 8 186 -2 273 l-6 59 -41 -4 c-23 -3 -137 -1 -255 4 -194 8
-215 7 -232 -8 -21 -19 -25 -70 -6 -77 8 -4 6 -6 -4 -6 -12 -1 -20 -22 -33
-83 -21 -109 -21 -116 9 -124 57 -14 16 -45 -55 -42 -32 1 -31 2 10 7 56 7 59
25 5 29 -28 3 -43 -1 -52 -14 -7 -10 -16 -14 -20 -10 -10 10 25 36 48 36 13 0
20 10 23 33 3 17 11 61 17 96 5 34 8 66 4 69 -3 3 -24 9 -48 13 l-42 6 46 2
c38 1 48 5 52 22 3 12 0 22 -8 25 -7 3 -12 14 -10 25 2 10 -2 19 -8 19 -7 0
-28 3 -48 6 -40 7 -36 13 -53 -81 -33 -181 -41 -215 -53 -219 -8 -3 -11 -1 -8
4 6 10 55 273 55 298 0 6 -8 12 -17 12 -10 0 -25 5 -33 11 -17 12 10 9 115
-10z m822 -34 c-10 -26 7 -36 45 -28 44 10 44 11 54 -102 6 -76 8 -79 38 -92
87 -37 84 -35 51 -28 -16 3 -44 11 -61 18 -33 14 -31 7 -50 159 -2 16 -6 31
-8 34 -7 7 -61 -22 -61 -33 0 -6 4 -56 9 -112 l8 -102 29 -6 c34 -8 37 -20 10
-35 -28 -14 -84 -13 -106 3 -23 18 -12 37 22 37 l26 0 -6 83 c-4 45 -10 112
-13 150 -5 50 -4 67 6 67 7 0 10 -6 7 -13z m5650 -20 c7 -7 17 -27 22 -45 11
-36 13 -35 -86 -32 -57 2 -62 -3 -37 -38 16 -23 67 -31 79 -12 8 12 45 13 45
1 0 -16 -49 -41 -80 -41 -38 0 -90 47 -90 81 0 42 23 88 49 98 31 12 81 6 98
-12z m224 -6 c41 -41 40 -91 -1 -133 -27 -27 -36 -30 -70 -25 -29 4 -38 2 -33
-6 3 -7 4 -10 0 -7 -3 3 -6 10 -7 15 -2 6 -11 21 -21 34 -69 88 53 201 132
122z"/>
<path d="M6320 5677 c-35 -16 -36 -17 -20 -28 11 -7 7 -8 -15 -5 -16 3 -37 0
-46 -7 -19 -15 -32 -47 -19 -47 6 0 10 -4 10 -10 0 -5 -6 -7 -14 -4 -15 6 -21
-7 -31 -72 -4 -26 -2 -44 5 -49 6 -3 10 -3 8 2 -3 14 13 72 22 78 10 6 7 -21
-3 -31 -3 -4 -4 -11 -1 -15 6 -11 34 15 34 30 0 6 5 11 10 11 6 0 10 -8 10
-17 1 -16 2 -16 12 1 9 15 7 22 -8 33 -10 7 -13 13 -7 13 7 0 19 -7 27 -16 9
-8 16 -12 16 -7 0 4 5 1 10 -7 8 -13 10 -13 10 2 0 9 -9 20 -20 23 -11 3 -20
11 -20 17 0 7 5 6 14 -1 11 -10 16 -8 21 8 3 12 11 21 16 21 6 0 8 9 4 20 -5
15 -3 18 9 14 8 -3 17 -13 19 -22 2 -10 2 -3 0 15 -2 19 1 33 9 36 10 4 11 7
1 18 -10 9 -13 10 -13 1 0 -7 -5 -12 -11 -12 -5 0 -7 5 -4 10 8 13 -3 12 -35
-3z"/>
<path d="M6657 5251 c-6 -25 11 -40 24 -20 7 11 9 10 9 -3 0 -12 -8 -18 -24
-18 -22 0 -24 -6 -35 -72 -6 -40 -14 -83 -17 -95 -6 -22 -3 -23 43 -23 l50 0
17 81 c10 45 19 79 22 76 3 -2 0 -24 -5 -48 -13 -57 -14 -109 -1 -109 6 0 10
12 10 28 0 36 15 60 23 38 10 -26 44 -19 56 12 l11 27 -5 -26 c-4 -23 -1 -27
26 -33 24 -4 36 -1 46 11 13 17 14 16 10 -4 -4 -16 2 -24 24 -34 17 -6 31 -10
33 -8 14 15 66 131 62 138 -3 4 -42 19 -88 31 -59 17 -83 21 -86 12 -2 -7 -8
-12 -13 -12 -4 0 -6 7 -3 15 8 20 -49 42 -142 52 -35 4 -42 2 -47 -16z"/>
<path d="M7292 5185 c-12 -20 -25 -49 -29 -65 -3 -17 -9 -30 -14 -30 -5 0 -18
-18 -29 -40 l-20 -40 50 -25 c28 -14 77 -46 110 -71 62 -48 80 -49 112 -6 7 9
24 23 38 31 23 13 24 13 12 -2 -8 -9 -11 -21 -7 -28 5 -8 1 -9 -14 -4 -16 5
-21 2 -21 -11 0 -10 -7 -26 -16 -36 -16 -16 -16 -18 0 -24 9 -3 16 -14 16 -23
-1 -14 -3 -13 -15 3 -12 16 -17 17 -32 5 -49 -38 -125 -128 -117 -140 3 -5 -4
-9 -15 -9 -13 0 -18 -5 -15 -13 3 -8 -2 -20 -11 -27 -16 -14 -21 -45 -5 -35 6
3 7 -1 4 -9 -3 -9 -15 -14 -27 -13 -14 1 -23 -5 -25 -17 -3 -14 0 -17 12 -13
19 7 22 -13 5 -30 -9 -9 -5 -20 14 -42 15 -19 28 -27 32 -20 4 5 19 9 33 7 23
-3 31 5 64 62 20 36 44 81 52 100 9 19 20 42 26 50 22 32 51 101 46 109 -3 5
3 11 13 14 21 5 57 68 65 112 3 16 17 40 31 55 14 14 25 31 25 37 0 17 -291
223 -315 223 -5 0 -20 -16 -33 -35z"/>
<path d="M5906 5089 c-49 -16 -91 -31 -93 -33 -4 -4 29 -80 79 -183 13 -27 44
-32 34 -7 -4 9 -11 37 -18 63 -6 25 -18 54 -26 64 -16 18 -9 38 8 21 5 -5 19
-38 32 -74 20 -57 27 -65 51 -68 20 -3 27 1 27 13 0 11 5 15 15 11 25 -9 46 4
40 25 -4 11 -2 19 4 19 12 0 4 123 -8 128 -5 1 -6 14 -3 27 4 22 1 25 -24 24
-16 0 -69 -14 -118 -30z"/>
<path d="M5361 5076 c-7 -9 -17 -13 -22 -11 -4 3 -13 -4 -19 -15 -6 -11 -17
-20 -25 -20 -22 0 -47 -31 -42 -51 5 -20 -8 -35 -17 -20 -10 16 -66 -12 -72
-36 -3 -12 -14 -29 -24 -38 -11 -10 -16 -24 -13 -33 5 -11 2 -14 -10 -9 -12 5
-17 1 -17 -14 0 -16 -4 -18 -27 -13 -26 7 -27 6 -13 -11 14 -17 13 -17 -9 -10
-15 5 -21 4 -17 -3 3 -6 1 -14 -5 -18 -9 -5 -6 -11 7 -22 18 -13 17 -14 -8
-10 -39 7 -56 -6 -37 -28 12 -15 12 -16 -7 -10 -15 5 -24 0 -34 -19 -14 -26
-30 -33 -30 -13 0 7 -10 2 -22 -10 -20 -19 -21 -25 -10 -43 8 -12 11 -24 7
-27 -3 -4 -10 0 -15 7 -6 11 -12 6 -24 -18 -9 -17 -14 -36 -11 -41 3 -6 -2
-10 -12 -10 -11 0 2 -13 32 -31 61 -38 60 -37 52 -45 -4 -4 -25 6 -47 21 -22
15 -42 26 -44 24 -8 -8 -57 -121 -54 -124 12 -10 70 -35 81 -35 16 0 47 41 47
63 0 15 59 87 60 71 0 -5 -11 -25 -25 -44 -14 -19 -25 -41 -25 -50 0 -9 -5
-21 -12 -28 -8 -8 -8 -12 -1 -12 6 0 23 24 39 54 26 50 30 53 47 41 11 -7 30
-35 42 -62 21 -43 24 -46 30 -25 10 32 26 27 19 -5 -5 -26 -1 -30 73 -64 l78
-35 23 23 c25 25 27 33 10 33 -18 1 -62 39 -54 47 3 3 14 -1 23 -9 38 -33 63
-40 93 -28 l29 12 -27 23 c-39 33 -99 57 -106 42 -3 -7 -4 -3 -3 7 1 15 -20
33 -83 72 -90 55 -107 57 -131 13 -6 -11 -13 -18 -16 -16 -2 3 3 17 12 31 10
14 15 33 11 41 -5 13 0 17 20 14 7 -1 24 22 24 33 0 4 -7 5 -15 2 -8 -4 -15
-1 -15 6 0 8 9 10 25 6 19 -5 25 -2 25 9 0 9 7 18 15 21 9 4 14 13 13 22 -4
20 32 29 43 11 4 -7 9 -11 11 -9 2 3 19 22 37 43 27 29 32 40 23 49 -20 20
-14 31 13 24 21 -6 36 4 98 65 39 39 66 68 60 64 -9 -4 -11 -1 -7 9 7 19 21
21 26 4 5 -15 56 15 64 37 6 14 -25 64 -62 100 -12 11 -23 26 -25 34 -4 10 -7
10 -18 -3z"/>
<path d="M7130 4888 c-61 -111 -73 -142 -46 -116 9 9 16 20 16 25 1 12 40 60
40 48 0 -5 -10 -29 -22 -53 -19 -35 -20 -44 -9 -51 10 -7 11 -13 1 -31 -6 -12
-10 -23 -8 -25 5 -5 83 103 132 183 22 34 41 60 43 58 6 -6 -26 -66 -81 -156
-36 -58 -43 -76 -31 -78 8 -2 13 -8 9 -13 -3 -6 5 -7 23 -3 24 6 26 5 16 -8
-13 -15 -8 -28 11 -28 7 0 39 33 73 73 33 39 73 85 87 100 22 24 25 32 15 44
-17 20 -190 133 -203 133 -6 0 -36 -46 -66 -102z"/>
<path d="M5360 4835 c-19 -13 -48 -37 -64 -54 l-30 -31 31 0 c16 0 44 5 62 11
24 9 35 8 47 -2 23 -19 0 -27 -83 -27 -83 -1 -97 -8 -139 -74 -22 -35 -54 -51
-54 -28 0 5 -7 7 -15 4 -36 -14 -6 -48 111 -126 117 -79 180 -107 145 -64 -9
10 -9 15 -1 18 7 2 3 14 -10 31 -27 34 -14 35 30 2 19 -14 36 -21 40 -16 3 6
11 6 20 1 22 -14 30 -12 30 8 0 14 2 15 10 2 6 -10 10 -11 10 -2 0 6 7 12 15
12 7 0 18 6 22 13 4 6 17 19 27 27 18 13 19 13 14 0 -3 -9 0 -24 8 -35 11 -15
17 -16 26 -7 7 7 17 12 22 12 6 0 5 -5 -2 -12 -7 -7 -12 -22 -12 -35 0 -13 -4
-23 -10 -23 -5 0 -10 -4 -10 -10 0 -5 7 -10 15 -10 8 0 15 5 15 10 0 6 5 10
10 10 6 0 10 -7 10 -16 0 -9 6 -14 13 -11 7 2 12 23 12 58 0 51 -1 54 -25 52
-14 -1 -19 1 -12 3 17 8 15 34 -3 34 -8 0 -15 -6 -15 -12 0 -10 -2 -10 -9 0
-4 8 -12 14 -17 14 -28 1 -32 11 -11 29 18 15 19 18 5 19 -9 0 -20 5 -24 12
-4 7 -3 8 4 4 26 -16 10 17 -29 59 -25 27 -39 51 -35 60 3 8 2 14 -2 14 -20
-3 -30 3 -28 18 0 11 -14 25 -36 38 -21 11 -39 25 -40 31 -2 7 -16 3 -38 -11z"/>
<path d="M6974 4598 l6 -53 -15 34 -15 34 -31 -29 c-52 -49 -69 -80 -75 -136
-3 -29 -9 -54 -14 -56 -5 -2 -5 -16 0 -32 4 -16 6 -31 2 -34 -3 -3 2 -6 12 -6
17 0 39 -42 38 -72 0 -10 3 -18 9 -18 5 0 9 -10 9 -21 0 -12 14 -44 30 -71 35
-56 38 -68 10 -43 -11 10 -18 20 -16 24 2 3 -7 20 -21 36 -21 26 -24 27 -18 8
9 -31 73 -126 93 -138 10 -5 28 -11 41 -13 l23 -3 -22 31 c-12 16 -25 30 -29
30 -7 0 -41 64 -41 78 0 4 13 -13 29 -38 15 -25 38 -54 50 -64 11 -11 21 -26
22 -35 0 -11 2 -12 6 -3 4 10 8 10 19 2 15 -13 34 -5 34 15 0 7 6 15 13 18 10
4 10 7 0 18 -7 7 -13 20 -13 29 0 9 -7 25 -16 36 -8 10 -13 14 -10 7 4 -7 -1
-9 -14 -6 -14 4 -20 0 -20 -11 0 -9 -6 -13 -14 -10 -20 8 -16 45 4 39 8 -2 21
-1 29 4 11 7 11 13 -3 32 -9 13 -16 20 -16 15 0 -11 -37 30 -43 47 -2 7 -7 9
-11 5 -8 -6 20 -57 39 -70 6 -5 6 -8 -2 -8 -6 0 -25 20 -42 46 -34 50 -39 63
-16 44 11 -9 15 -9 15 -1 0 7 5 9 10 6 6 -3 10 1 10 10 0 9 -4 14 -9 11 -11
-7 -21 7 -45 58 -15 33 -15 38 -2 27 9 -8 16 -19 16 -25 0 -7 7 -21 15 -32 13
-16 13 -13 -1 21 -9 22 -18 49 -21 60 -3 11 -19 38 -36 60 l-31 40 37 -28 c31
-23 37 -25 37 -11 0 26 12 9 16 -21 4 -38 23 -58 41 -44 11 10 11 15 -3 30
-10 11 -14 19 -10 19 4 0 -1 13 -10 29 -12 21 -30 33 -60 40 -24 6 -45 15 -49
21 -3 5 7 5 25 -2 45 -15 80 5 80 46 0 17 3 41 6 54 5 18 2 22 -16 22 -21 0
-22 -3 -16 -52z"/>
<path d="M4633 4601 c3 -11 0 -19 -5 -18 -5 1 -16 -22 -24 -52 -14 -51 -13
-56 5 -74 19 -19 19 -19 35 9 l16 29 -2 -28 c-2 -22 4 -32 27 -47 l31 -19 32
64 31 64 -22 16 c-12 8 -27 15 -33 15 -6 0 -17 7 -25 16 -7 8 -26 22 -42 31
-29 14 -30 14 -24 -6z"/>
<path d="M7610 4429 l-75 -50 4 -47 c4 -54 6 -59 23 -45 7 6 26 13 43 17 16 4
32 11 35 14 6 9 36 27 77 48 l32 16 -30 49 c-17 27 -31 49 -32 48 -1 0 -36
-23 -77 -50z"/>
<path d="M4590 4424 c0 -8 -4 -12 -10 -9 -5 3 -10 -2 -10 -12 0 -10 -3 -36 -7
-57 l-6 -39 32 6 33 7 -23 -19 c-13 -10 -29 -17 -36 -14 -7 3 -15 -10 -19 -34
-14 -73 -11 -86 27 -98 45 -16 57 -10 65 33 6 34 41 122 64 164 16 29 12 37
-31 49 -23 7 -43 19 -46 26 -7 18 -33 16 -33 -3z"/>
<path d="M4742 4320 c-17 -36 -18 -40 -3 -40 13 0 12 -4 -5 -18 -12 -9 -29
-37 -38 -60 -16 -43 -16 -44 4 -49 11 -3 20 -9 20 -14 0 -5 7 -6 16 -2 12 4
14 0 8 -23 -4 -16 -4 -26 0 -22 4 3 23 0 42 -8 19 -8 34 -11 34 -8 0 4 7 1 15
-6 19 -16 24 -12 30 31 3 19 2 27 -1 19 -12 -27 -25 -39 -38 -34 -17 7 -15 46
3 52 10 3 12 -1 8 -14 -7 -18 -6 -18 8 0 8 11 15 29 14 40 0 12 -3 15 -6 9 -9
-24 -23 -13 -17 12 5 21 3 25 -14 25 -12 0 -23 -9 -27 -20 -3 -11 -11 -20 -16
-20 -12 0 -12 47 1 55 6 4 7 -1 4 -12 -5 -17 -5 -17 10 1 10 13 22 17 39 12
19 -4 26 0 35 20 18 37 15 53 -7 49 -12 -2 -18 1 -15 8 3 10 -25 30 -77 54 -4
2 -16 -15 -27 -37z"/>
<path d="M7685 4270 c-49 -27 -99 -50 -110 -50 -17 0 -17 -2 -5 -10 10 -6 11
-10 3 -10 -17 0 -17 -36 0 -43 7 -3 24 1 37 8 20 11 26 11 35 -2 9 -13 14 -12
35 6 23 19 24 20 5 21 l-20 1 20 8 c11 5 22 5 25 1 7 -9 50 -20 50 -12 0 3 -7
14 -17 24 -24 27 -7 35 21 9 13 -12 33 -21 45 -19 35 5 28 -15 -9 -25 -19 -5
-38 -14 -42 -20 -5 -8 -8 -6 -8 6 0 21 1 21 -40 0 -30 -14 -31 -17 -14 -24 10
-4 26 -16 34 -28 16 -23 41 -27 71 -11 18 10 18 12 3 36 -9 13 -14 27 -11 30
3 3 13 -8 21 -24 12 -23 21 -29 36 -25 25 7 25 8 -1 74 -45 112 -53 129 -63
129 -6 0 -51 -23 -101 -50z"/>
<path d="M4885 4257 c-15 -24 -18 -94 -3 -103 10 -6 51 34 61 59 4 10 11 15
17 12 6 -4 3 -16 -10 -32 -11 -14 -20 -31 -20 -38 0 -7 -9 -15 -20 -18 -12 -3
-20 -14 -20 -26 0 -27 40 -24 57 4 7 11 12 14 13 7 0 -10 5 -10 21 -2 25 14
40 3 18 -13 -9 -7 -18 -25 -21 -40 -4 -19 -2 -25 4 -19 6 6 16 8 23 6 18 -7
42 55 26 66 -7 4 -12 11 -12 16 1 5 -3 9 -8 9 -5 0 -12 3 -16 7 -16 15 86 4
103 -12 17 -16 19 -16 35 12 16 28 16 29 -6 37 -21 8 -78 30 -122 47 -11 4
-26 8 -33 10 -7 1 -24 9 -37 18 -31 20 -32 20 -50 -7z"/>
<path d="M4677 4124 c-3 -3 -3 -12 0 -20 3 -9 -2 -14 -16 -14 -16 0 -21 -6
-21 -25 0 -30 23 -41 109 -54 31 -5 82 -15 114 -21 50 -11 60 -11 68 1 7 11 9
11 9 -3 0 -13 8 -17 35 -16 19 1 35 4 35 8 0 13 -25 30 -45 30 -12 0 -25 4
-30 9 -6 5 -57 21 -115 36 -107 27 -152 44 -117 45 21 0 22 16 1 24 -19 7 -19
7 -27 0z"/>
<path d="M4623 4004 c-11 -28 6 -62 34 -68 70 -15 103 -17 103 -7 0 6 5 11 11
11 6 0 9 -6 6 -14 -6 -16 59 -30 131 -29 25 1 42 -3 43 -10 1 -7 5 -1 9 13 8
24 8 24 9 3 1 -27 26 -31 35 -7 8 20 10 18 -33 33 -29 9 -37 8 -53 -5 -10 -10
-18 -12 -18 -6 0 6 6 12 13 15 21 8 3 16 -94 42 -148 39 -190 45 -196 29z"/>
<path d="M4606 3893 c-5 -18 -9 -69 -7 -89 1 -6 12 -9 26 -6 18 3 25 0 25 -11
0 -8 -6 -14 -12 -13 -14 1 -18 -5 -18 -29 0 -8 5 -15 10 -15 6 0 10 7 10 15 0
21 20 19 21 -2 0 -15 2 -15 8 2 5 11 4 25 -1 32 -5 7 -5 14 2 18 14 9 30 -3
25 -18 -2 -7 -6 -23 -9 -37 -4 -25 -2 -26 43 -25 25 0 49 5 54 10 4 6 10 5 16
-3 6 -11 11 -10 25 4 13 13 20 14 25 5 6 -9 11 -8 21 4 11 13 15 13 22 3 7 -9
8 -4 5 15 -3 21 -1 27 9 23 8 -3 14 -1 14 5 0 18 -32 23 -42 6 -9 -17 -38 -13
-38 5 0 15 32 37 53 38 9 0 17 -4 17 -10 0 -5 14 -10 30 -10 37 0 39 17 4 30
-32 13 -97 13 -89 1 3 -5 1 -12 -5 -16 -5 -3 -10 1 -10 10 0 9 -4 13 -10 10
-5 -3 -10 0 -10 8 0 10 -9 14 -29 13 -17 -1 -28 2 -25 6 3 4 1 8 -5 8 -5 0
-13 -4 -16 -10 -10 -16 -28 -11 -21 6 4 12 1 14 -14 9 -11 -4 -20 -2 -20 4 0
6 -7 11 -15 11 -8 0 -15 -4 -15 -10 0 -5 -5 -10 -11 -10 -6 0 -9 7 -5 15 3 10
-1 15 -14 15 -10 0 -21 -8 -24 -17z"/>
<path d="M6990 3901 c0 -5 13 -19 30 -31 16 -11 27 -26 24 -33 -2 -7 10 -27
28 -44 99 -96 122 -115 126 -104 2 7 13 4 29 -9 14 -11 28 -18 31 -15 8 8 -18
34 -41 41 -32 10 -102 60 -136 97 -45 48 -28 45 27 -4 54 -49 152 -106 152
-89 0 6 10 4 24 -6 22 -14 27 -52 5 -38 -15 9 -10 -13 6 -26 8 -7 13 -15 11
-19 -3 -4 5 -13 17 -21 21 -12 21 -12 7 5 -13 16 -9 15 22 -4 30 -18 37 -19
32 -7 -4 9 -15 21 -25 27 -11 5 -16 15 -13 21 4 6 3 8 -2 5 -6 -3 -16 -1 -24
4 -13 8 -13 10 0 19 13 9 13 12 -3 21 -9 6 -45 34 -78 62 -34 29 -70 57 -81
63 -11 7 -34 25 -51 42 -18 16 -43 33 -57 36 l-25 7 24 -18 c42 -31 125 -113
115 -113 -5 0 -30 19 -55 43 -89 82 -119 104 -119 88z"/>
<path d="M7903 3525 c-20 -8 -35 -10 -38 -4 -4 5 -14 5 -27 -2 -16 -9 -19 -17
-15 -46 7 -42 31 -62 72 -63 44 -1 62 -14 46 -34 -11 -13 -11 -16 0 -16 8 0
24 -3 37 -6 13 -4 22 -2 22 5 0 6 -9 11 -20 11 -20 0 -26 11 -14 23 3 3 18 -5
32 -19 31 -28 47 -30 56 -8 11 27 7 33 -26 37 l-33 4 33 1 c30 2 32 4 31 40
-1 23 -3 28 -6 15 -5 -28 -13 -29 -43 -3 -13 12 -30 18 -37 16 -7 -3 -13 -1
-13 4 0 6 5 10 12 10 6 0 8 3 5 6 -3 4 -2 14 3 23 7 14 3 17 -18 19 -15 0 -42
-5 -59 -13z"/>
<path d="M8165 3501 c-3 -6 -4 -15 -1 -20 11 -18 -26 -21 -42 -3 -10 10 -16
16 -15 14 1 -2 -5 -22 -13 -44 -23 -65 -19 -94 15 -106 25 -9 30 -7 39 11 10
21 11 21 11 -5 1 -29 7 -33 27 -20 14 9 13 64 -1 74 -6 4 -2 13 9 21 14 10 17
19 11 33 -5 10 -9 25 -9 33 -1 18 -22 26 -31 12z"/>
<path d="M4800 3435 c0 -8 -7 -15 -15 -15 -11 0 -14 -7 -10 -22 3 -13 10 -45
15 -73 6 -27 16 -55 23 -63 6 -8 12 -28 12 -45 3 -48 15 -77 32 -77 8 0 17 9
20 21 4 14 8 17 13 9 6 -9 22 -8 66 5 60 17 61 35 2 35 -16 0 -28 5 -28 10 0
6 6 10 13 9 6 -1 34 -1 61 0 l49 1 -7 32 c-6 30 -5 31 8 13 8 -11 12 -23 10
-27 -3 -5 5 -8 17 -8 21 0 21 1 5 19 -10 11 -15 24 -12 29 3 5 -7 8 -22 6 -14
-1 -29 1 -32 5 -3 5 -23 12 -45 18 -27 6 -40 14 -39 25 1 12 -12 18 -52 23
-30 3 -56 11 -59 16 -4 5 0 9 7 9 10 0 10 2 -1 9 -9 6 -10 11 -2 15 8 5 7 12
-3 22 -19 18 -26 18 -26 -1z"/>
<path d="M7879 3296 c-3 -3 -38 -7 -78 -9 -87 -3 -102 -17 -63 -59 21 -22 36
-28 67 -28 23 0 45 4 51 9 5 5 27 12 49 15 l40 6 -32 -15 c-33 -15 -43 -27
-20 -24 45 6 56 -1 59 -38 2 -29 8 -39 23 -41 18 -2 23 6 37 63 12 52 13 65 2
65 -7 0 -16 6 -20 13 -4 6 -4 9 1 5 9 -8 45 8 45 21 0 9 -7 11 -90 17 -36 3
-68 3 -71 0z"/>
<path d="M8100 3266 c-14 -8 -29 -12 -34 -9 -5 3 -7 -6 -4 -20 3 -15 2 -24 -3
-22 -7 5 -35 -69 -41 -110 -2 -11 -5 -22 -8 -25 -4 -3 -16 -27 -27 -55 -15
-34 -18 -51 -10 -54 6 -2 13 1 15 8 5 15 42 14 61 -3 9 -8 32 -17 53 -21 31
-6 37 -4 43 14 3 11 3 25 0 31 -3 5 -2 10 3 10 18 0 23 33 7 50 -20 22 -19 36
1 19 14 -11 18 -10 31 6 9 12 12 31 9 49 -3 16 -6 46 -6 67 0 24 -4 38 -12 37
-6 -2 -15 8 -19 22 -4 16 -7 19 -8 8 -1 -10 -6 -18 -12 -18 -6 0 -9 7 -5 15 7
18 -1 18 -34 1z"/>
<path d="M5027 3169 c-6 -3 -36 -12 -65 -19 -28 -6 -55 -17 -59 -23 -3 -6 -1
-7 5 -3 19 12 14 -1 -13 -30 -29 -31 -30 -42 -6 -109 20 -55 33 -59 82 -24 15
10 32 19 38 19 14 0 14 6 1 30 -9 17 -12 16 -41 -11 -17 -16 -36 -29 -42 -29
-7 0 5 14 26 31 40 33 45 54 22 85 -16 22 -20 38 -6 29 5 -3 12 -1 16 5 8 13
25 13 25 0 0 -5 -7 -10 -15 -10 -19 0 -19 -2 1 -43 13 -27 21 -33 40 -29 13 2
29 10 35 18 6 8 18 14 27 14 22 0 -15 -34 -51 -46 -17 -6 -24 -13 -19 -21 13
-21 121 40 122 69 0 4 -8 4 -17 1 -12 -5 -15 -2 -10 10 4 11 1 17 -8 17 -8 0
-15 5 -15 10 0 6 5 10 10 10 6 0 10 7 10 15 0 19 -10 19 -38 -1 -12 -8 -22
-11 -22 -5 0 6 -7 8 -15 5 -8 -4 -15 -2 -15 4 0 5 11 13 25 16 14 4 25 10 25
14 0 9 -36 10 -53 1z"/>
<path d="M7590 3061 c0 -5 -3 -16 -6 -24 -3 -10 2 -18 16 -22 12 -4 38 -18 57
-31 37 -25 25 -32 -23 -14 -24 10 -26 9 -13 -6 7 -9 20 -19 29 -23 8 -3 55
-28 104 -55 71 -39 90 -46 97 -35 7 11 9 11 9 -2 0 -19 -26 -44 -32 -31 -1 5
-25 19 -51 30 l-48 21 -44 -67 c-25 -37 -57 -82 -72 -101 -27 -32 -27 -33 -8
-47 11 -7 25 -17 31 -22 21 -18 52 -32 57 -24 2 4 2 2 1 -5 -5 -22 14 -23 19
-2 6 23 25 22 41 -4 14 -21 1 -33 -19 -17 -11 9 -15 9 -15 1 0 -6 8 -15 18
-18 9 -4 24 -16 33 -27 10 -12 31 -29 48 -39 l30 -18 28 43 c15 24 45 66 65
94 21 28 38 56 38 62 0 7 4 12 8 12 8 0 46 60 40 64 -47 29 -96 31 -85 3 3 -8
-3 -13 -14 -13 -12 0 -17 5 -14 13 3 7 8 20 11 28 6 15 -9 20 -49 17 -16 -2
-17 0 -4 12 8 8 24 12 35 10 11 -3 29 -1 41 5 17 9 21 9 21 -3 0 -11 55 -46
74 -46 8 0 52 70 60 96 6 19 0 23 -39 37 l-46 15 -16 -39 c-15 -39 -27 -48
-38 -30 -3 5 6 22 20 37 14 15 22 31 17 36 -12 12 -72 17 -78 6 -4 -5 -15 -8
-25 -5 -11 3 -19 1 -19 -4 0 -16 -51 -22 -78 -9 -60 27 -77 39 -77 52 0 7 12
13 28 14 26 1 53 14 28 14 -6 0 -30 9 -53 20 -22 11 -45 17 -50 14 -5 -3 -25
4 -44 15 -40 24 -44 25 -44 12z"/>
<path d="M4962 2937 c-38 -16 -50 -26 -46 -37 8 -17 9 -30 20 -146 7 -88 6
-87 62 -51 17 11 -4 51 -23 43 -9 -3 -12 0 -9 8 3 7 0 25 -6 41 -10 28 -10 28
7 13 15 -14 20 -14 31 -2 14 16 32 19 32 5 0 -5 -9 -11 -20 -14 -20 -5 -28
-27 -10 -27 6 0 10 -6 10 -12 0 -7 4 -19 9 -27 7 -11 18 -7 57 19 27 18 50 34
52 36 2 1 -1 11 -7 22 -14 26 -48 37 -66 22 -25 -21 -16 0 10 23 24 22 24 22
6 45 l-19 22 -48 -25 c-26 -14 -51 -25 -55 -25 -22 0 -5 17 41 43 48 27 64 48
38 46 -7 0 -37 -10 -66 -22z"/>
<path d="M7481 2889 l-33 -51 33 -30 c19 -16 53 -42 76 -58 l41 -30 57 70 c31
38 54 73 51 78 -8 13 -74 44 -114 53 -29 6 -33 5 -27 -9 4 -12 -1 -10 -18 6
-13 12 -25 22 -28 22 -2 0 -19 -23 -38 -51z"/>
<path d="M5470 2735 c0 -11 -5 -12 -26 -5 -30 12 -61 -6 -113 -66 -31 -35 -32
-37 -14 -54 10 -9 21 -16 26 -13 4 2 7 -3 7 -11 0 -27 13 -19 84 53 61 61 67
71 57 90 -14 25 -21 27 -21 6z"/>
<path d="M7316 2693 c-40 -42 -48 -68 -16 -58 12 4 20 2 20 -5 0 -6 -4 -8 -10
-5 -5 3 -10 0 -10 -8 0 -7 20 -28 45 -46 l44 -32 39 20 c61 31 69 47 42 76
-16 17 -31 23 -44 20 -12 -3 -15 -2 -8 1 10 5 8 12 -9 30 -23 24 -46 33 -33
13 4 -7 1 -10 -7 -7 -8 3 -13 12 -11 22 4 23 -1 20 -42 -21z"/>
<path d="M7563 2642 c-3 -12 -9 -20 -13 -17 -5 3 -12 0 -16 -6 -7 -12 32 -57
41 -47 3 3 -1 12 -9 20 -11 11 -12 18 -4 26 8 8 14 5 23 -11 6 -12 19 -21 28
-19 9 2 17 -2 17 -7 0 -6 7 -8 15 -5 18 7 20 -12 3 -23 -7 -4 -21 -6 -32 -4
-11 1 -16 -2 -12 -8 4 -6 12 -11 18 -11 5 0 19 -11 30 -25 11 -14 24 -25 29
-25 5 0 19 -9 31 -19 11 -11 27 -17 37 -13 14 5 14 4 2 -11 -11 -14 -11 -20
-1 -32 18 -22 25 -19 53 23 28 43 26 52 -19 75 -24 12 -34 13 -44 4 -10 -10
-11 -8 -6 9 6 20 -2 27 -152 138 -9 7 -15 3 -19 -12z"/>
<path d="M7484 2565 c-30 -46 -23 -168 8 -149 6 4 8 3 4 -4 -3 -6 1 -17 9 -25
19 -20 20 -33 0 -17 -8 7 -22 10 -30 6 -8 -3 -15 -2 -15 2 0 4 -9 8 -19 8 -11
0 -18 -3 -15 -7 7 -11 -23 -30 -38 -24 -8 3 -21 -1 -28 -10 -10 -12 -10 -15 3
-15 22 0 32 -20 16 -31 -10 -6 -11 -9 -1 -9 19 0 27 4 24 13 -1 5 1 6 6 3 5
-3 21 2 36 10 36 18 32 19 44 -15 12 -33 5 -43 -41 -60 -26 -10 -27 -14 -22
-48 7 -44 25 -83 37 -83 15 0 158 122 158 135 0 7 -16 27 -37 44 -20 17 -33
34 -30 38 4 3 25 -13 46 -36 l40 -43 48 44 c80 72 84 78 62 102 -11 11 -19 23
-19 28 0 4 -5 8 -11 8 -5 0 -7 -6 -4 -12 4 -7 -1 -4 -9 6 -9 11 -16 16 -16 12
0 -5 -8 -2 -17 5 -9 8 -14 10 -11 4 7 -12 -17 -37 -26 -28 -3 4 -6 0 -6 -8 0
-8 -17 -25 -38 -39 -20 -14 -40 -29 -44 -35 -4 -5 -10 -6 -14 -2 -4 4 10 23
32 43 72 66 84 79 84 90 0 7 -10 21 -22 33 -46 42 -110 91 -119 91 -5 0 -16
-11 -25 -25z"/>
<path d="M5613 2522 c-73 -83 -163 -196 -163 -204 0 -6 63 -48 73 -48 3 0 42
60 88 133 45 72 89 142 97 155 14 21 13 22 -15 22 -24 0 -40 -12 -80 -58z"/>
<path d="M5728 2543 c-9 -10 -46 -62 -83 -117 l-67 -98 28 -24 c31 -25 21 -33
-12 -10 -17 13 -21 12 -36 -1 -28 -25 -22 -36 44 -72 55 -30 63 -32 73 -17 10
14 12 12 11 -13 -1 -16 -5 -27 -9 -24 -4 3 -13 -9 -20 -26 -6 -17 -15 -31 -19
-31 -5 0 -1 14 7 31 9 17 15 32 13 34 -2 1 -31 17 -66 34 -60 31 -82 33 -82 8
0 -6 -12 -23 -26 -38 -29 -30 -26 -50 6 -42 12 3 20 0 20 -7 0 -7 8 -9 20 -5
15 5 18 3 14 -9 -7 -19 32 -42 40 -23 5 9 7 9 12 -1 3 -6 10 -10 15 -7 5 4 6
0 3 -8 -3 -9 3 -16 15 -20 12 -3 19 -1 15 4 -3 5 -1 9 5 9 11 0 27 39 22 55
-1 6 3 4 10 -2 10 -10 10 -16 1 -25 -20 -20 -15 -40 7 -29 24 13 32 4 21 -25
-10 -26 1 -39 25 -30 8 3 15 1 15 -5 0 -9 30 -24 74 -35 22 -5 26 -1 41 53 21
70 26 205 10 252 l-11 35 -18 -43 c-23 -58 -32 -46 -11 15 15 44 15 49 1 60
-9 6 -15 13 -13 15 1 2 -4 -3 -12 -11 -11 -12 -14 -12 -18 -2 -3 8 -23 -13
-49 -52 -50 -75 -64 -85 -34 -26 11 23 18 45 15 51 -4 5 -1 8 5 7 18 -5 32 39
14 46 -8 3 -14 0 -14 -6 0 -7 -6 -3 -14 7 -17 24 -10 38 15 32 13 -4 19 0 19
11 0 15 2 15 10 2 20 -32 28 5 11 54 l-17 48 -18 -40 c-17 -38 -46 -64 -46
-42 0 6 4 10 9 10 4 0 17 25 28 55 12 30 20 55 18 55 -1 0 -9 -8 -17 -17z"/>
<path d="M7170 2390 c0 -5 -6 -9 -12 -7 -8 1 -12 -7 -11 -23 l3 -25 -18 23
c-17 22 -52 23 -52 0 0 -5 -4 -7 -9 -4 -5 3 -23 -1 -40 -10 l-30 -15 23 -37
c13 -20 26 -47 30 -59 13 -41 34 -49 66 -25 16 12 34 22 39 22 17 0 21 18 11
47 l-10 28 19 -25 c17 -21 22 -23 45 -12 22 10 25 16 20 37 -4 15 -2 25 5 25
25 0 9 28 -28 48 -43 25 -51 26 -51 12z"/>
<path d="M6890 2294 c0 -30 43 -174 52 -174 5 0 36 14 69 30 l60 31 -32 57
c-41 74 -69 94 -69 50 l0 -22 -16 22 c-18 26 -64 30 -64 6z"/>
<path d="M7230 2245 c-7 -8 -10 -24 -7 -35 3 -11 1 -18 -4 -14 -5 3 -9 12 -9
20 0 11 -15 7 -60 -16 -63 -32 -67 -38 -48 -73 10 -20 10 -21 -5 -8 -10 7 -17
20 -17 27 0 18 -1 18 -70 -13 -64 -28 -74 -48 -45 -87 14 -18 19 -16 137 43
68 34 138 75 156 90 31 25 33 29 21 54 -14 30 -30 34 -49 12z"/>
<path d="M7250 2125 c-7 -8 -18 -15 -24 -15 -7 0 -26 -12 -44 -27 -30 -26 -32
-30 -22 -63 5 -20 16 -45 24 -55 13 -18 16 -18 42 -5 16 8 35 21 42 28 7 6 20
12 28 12 8 0 14 4 14 9 0 5 11 12 25 15 17 4 25 13 25 29 0 25 13 49 26 47 4
-1 11 7 15 17 6 17 7 17 14 1 7 -18 25 -25 25 -10 -1 26 -19 34 -51 23 -18 -6
-35 -8 -38 -4 -11 15 -89 13 -101 -2z"/>
<path d="M7090 2039 c-14 -6 -44 -19 -66 -31 l-41 -20 19 -52 c11 -28 21 -52
22 -54 4 -4 140 48 149 57 9 9 -40 112 -52 110 -3 0 -17 -5 -31 -10z"/>
</g>
</svg>
