<?xml version="1.0" standalone="no"?>
<!DOCTYPE svg PUBLIC "-//W3C//DTD SVG 20010904//EN"
 "http://www.w3.org/TR/2001/REC-SVG-20010904/DTD/svg10.dtd">
<svg version="1.0" xmlns="http://www.w3.org/2000/svg"
 width="1280.000000pt" height="720.000000pt" viewBox="0 0 1280.000000 720.000000"
 preserveAspectRatio="xMidYMid meet">
<metadata>
Created by potrace 1.16, written by Peter Selinger 2001-2019
</metadata>
<g transform="translate(0.000000,720.000000) scale(0.100000,-0.100000)"
fill="#000000" stroke="none">
<path d="M0 5578 l0 -1621 333 9 c182 5 577 9 876 9 427 0 545 3 548 13 3 6
20 12 39 12 22 0 37 6 40 15 4 8 13 15 21 15 8 0 12 4 9 9 -6 10 41 21 90 21
34 0 49 19 17 21 -15 0 -15 2 2 8 11 5 23 4 26 0 3 -5 15 0 27 11 11 11 26 20
32 20 5 0 10 6 10 14 0 8 7 16 15 20 8 3 15 10 15 17 0 6 31 42 70 79 68 66
77 84 71 136 -1 7 12 16 27 22 21 7 31 19 35 41 4 17 16 40 27 51 11 11 18 20
15 20 -3 0 -1 9 5 20 6 11 21 20 35 20 13 0 27 5 31 11 3 6 15 9 25 6 11 -3
19 0 19 6 0 11 42 44 92 73 19 11 28 26 78 123 19 36 20 45 9 52 -11 7 -11 9
2 9 19 0 31 55 29 131 -1 54 15 103 31 93 8 -5 10 8 5 42 -3 27 -8 155 -11
284 -3 129 -8 269 -11 310 -6 92 7 264 47 600 37 314 67 478 140 768 16 62 29
118 29 123 0 5 -560 9 -1450 9 l-1450 0 0 -1622z"/>
<path d="M3120 7178 c-54 -129 -95 -250 -87 -255 5 -3 5 -8 -2 -12 -17 -11
-23 -87 -15 -211 7 -114 7 -115 19 -70 23 81 58 170 67 170 5 0 4 -9 -2 -19
-5 -11 -10 -31 -10 -45 0 -14 -4 -28 -10 -31 -5 -3 -10 -21 -10 -40 0 -19 -4
-37 -10 -40 -5 -3 -10 -17 -10 -31 0 -14 -7 -39 -16 -55 -8 -17 -13 -33 -10
-36 6 -7 48 84 114 247 35 86 47 128 46 165 0 28 -2 103 -3 168 l-2 117 -25 0
c-16 0 -28 -8 -34 -22z"/>
<path d="M3257 7183 c-21 -24 -57 -117 -57 -148 0 -19 4 -23 18 -19 10 4 13 3
5 -3 -13 -9 -16 -25 -14 -68 l1 -30 22 35 c11 19 50 83 84 143 l63 107 -53 0
c-38 0 -57 -5 -69 -17z"/>
<path d="M3387 7178 c-107 -174 -157 -268 -151 -284 4 -14 3 -16 -4 -5 -7 9
-12 10 -16 2 -6 -9 9 -436 17 -491 2 -14 88 123 172 273 l38 69 -7 161 c-8
209 -17 297 -27 297 -5 0 -15 -10 -22 -22z"/>
<path d="M3445 7123 c4 -43 11 -79 16 -81 13 -5 11 -40 -2 -44 -8 -3 -9 -35
-3 -108 4 -58 9 -99 11 -92 3 6 8 10 13 7 8 -5 160 151 227 232 34 41 35 44
28 103 l-7 60 -145 0 -145 0 7 -77z"/>
<path d="M3840 7135 l-75 -64 11 -197 c10 -171 14 -199 30 -211 17 -12 17 -13
0 -13 -15 0 -17 -7 -12 -47 2 -27 5 -106 5 -178 1 -71 5 -136 10 -143 7 -11
37 -10 172 3 231 24 244 27 242 50 -25 216 -56 442 -63 448 -4 5 -70 -18 -146
-51 -157 -67 -189 -79 -180 -64 3 6 39 24 79 40 39 17 112 49 161 71 88 41 88
41 83 74 -3 17 -14 103 -23 190 l-17 157 -101 0 -101 0 -75 -65z"/>
<path d="M4140 7171 c0 -17 7 -83 15 -148 20 -157 25 -186 30 -191 4 -4 261
36 388 60 67 13 65 1 40 184 l-16 124 -229 0 -228 0 0 -29z"/>
<path d="M4623 7163 c3 -21 11 -87 18 -147 l12 -109 176 7 c97 3 214 9 259 12
l84 7 -6 31 c-3 17 -8 77 -12 134 l-7 102 -265 0 -265 0 6 -37z"/>
<path d="M5174 7103 c4 -54 10 -115 13 -135 l6 -38 266 0 c146 0 276 3 289 6
25 7 27 32 15 182 l-6 82 -295 0 -295 0 7 -97z"/>
<path d="M5784 7098 c9 -130 14 -155 32 -162 8 -3 106 -13 217 -21 111 -8 237
-18 280 -21 l77 -7 0 157 0 156 -306 0 -306 0 6 -102z"/>
<path d="M6410 7044 l0 -157 73 6 c39 3 155 11 257 17 262 16 248 12 254 63 3
23 8 84 11 135 l7 92 -301 0 -301 0 0 -156z"/>
<path d="M7027 7133 c-4 -38 -7 -98 -7 -134 l0 -66 277 -7 c152 -3 280 -3 284
1 9 9 24 100 34 206 l7 67 -295 0 -294 0 -6 -67z"/>
<path d="M7640 7183 c-1 -10 -7 -70 -14 -133 -7 -63 -10 -118 -7 -122 4 -4
119 -9 256 -10 l250 -3 12 70 c6 39 15 103 18 143 l7 72 -261 0 c-242 0 -261
-1 -261 -17z"/>
<path d="M8165 7055 c-10 -80 -16 -147 -13 -150 2 -3 81 -16 174 -30 93 -14
196 -29 229 -35 33 -5 61 -10 62 -10 5 0 42 304 43 348 l0 22 -238 0 -239 0
-18 -145z"/>
<path d="M8680 7188 c0 -16 -26 -244 -35 -314 l-7 -51 138 -61 c148 -66 243
-111 233 -112 -12 0 -136 49 -252 100 -65 29 -119 51 -121 49 -2 -4 -46 -314
-62 -435 -6 -49 -7 -49 143 -64 54 -6 136 -15 183 -20 46 -5 88 -6 91 -2 4 4
12 102 18 217 7 116 13 233 16 260 2 28 7 106 11 175 l6 126 -76 72 -76 72
-105 0 c-77 0 -105 -3 -105 -12z"/>
<path d="M9068 7133 c-3 -60 0 -70 24 -101 24 -30 161 -174 228 -240 l25 -24
6 88 c4 49 10 146 14 217 l7 127 -150 0 -150 0 -4 -67z"/>
<path d="M9387 7113 c-4 -48 -9 -155 -13 -238 l-6 -150 109 -182 109 -183 13
241 12 240 -30 57 c-57 110 -167 296 -178 299 -6 2 -13 -28 -16 -84z"/>
<path d="M9497 7083 c36 -65 71 -125 78 -133 6 -8 16 -24 20 -35 6 -14 11 5
18 69 8 72 7 90 -4 98 -11 7 -11 11 -1 15 7 3 12 24 12 54 l0 49 -94 0 -95 0
66 -117z"/>
<path d="M9635 7028 l-6 -173 54 -135 c30 -74 68 -164 85 -200 l31 -65 1 125
c1 69 3 153 4 188 2 34 0 65 -5 68 -5 3 -5 13 0 22 14 27 -111 336 -137 340
-18 3 -20 -6 -27 -170z"/>
<path d="M9910 7195 c0 -3 24 -114 54 -247 30 -134 61 -277 70 -318 28 -136
85 -669 90 -835 2 -79 -15 -494 -29 -700 -8 -115 -17 -253 -20 -305 -3 -52 -8
-114 -10 -137 -4 -34 0 -48 19 -69 22 -27 26 -27 143 -30 132 -2 126 0 210
-80 30 -28 43 -49 45 -71 1 -18 6 -29 10 -27 4 3 8 -36 8 -85 0 -62 4 -91 12
-91 6 0 3 -9 -8 -21 -23 -25 -46 -126 -30 -133 7 -3 6 -5 -1 -5 -7 -1 -13 -6
-13 -12 0 -5 5 -7 10 -4 6 3 10 -1 10 -9 0 -11 9 -16 30 -16 21 0 30 -5 30
-16 0 -11 5 -14 16 -10 10 4 24 -2 35 -15 15 -18 39 -23 151 -35 73 -8 214
-19 313 -25 198 -10 342 -25 268 -28 -42 -1 -43 -2 -43 -36 l0 -34 123 -4
c115 -2 113 -3 -41 -5 -128 -2 -164 -5 -168 -16 -5 -13 -77 -25 -254 -41 -30
-3 -98 -9 -150 -14 -52 -5 -105 -9 -117 -10 -25 -1 -33 -31 -8 -31 8 0 15 -7
15 -15 0 -9 7 -18 15 -21 8 -4 15 -16 15 -28 0 -12 3 -16 8 -10 4 6 23 9 45 6
28 -3 37 -9 37 -23 0 -16 8 -19 53 -21 28 0 64 0 80 1 15 1 27 -3 27 -8 0 -6
-5 -11 -10 -11 -6 0 -19 -8 -30 -18 -23 -22 -11 -47 19 -39 11 2 28 -1 38 -8
17 -12 16 -15 -10 -39 -15 -14 -39 -26 -53 -26 -14 0 -24 -6 -24 -14 0 -16
-21 -26 -55 -26 -14 0 -26 -7 -30 -19 -6 -19 -28 -26 -113 -37 -56 -7 -72 -14
-72 -31 0 -13 -9 -15 -47 -10 -64 7 -142 -11 -174 -40 -14 -13 -30 -23 -35
-23 -27 0 -57 -61 -74 -150 -5 -25 -13 -63 -18 -86 -6 -30 -5 -46 5 -59 15
-22 17 -55 3 -55 -5 0 -10 7 -10 15 0 20 -16 19 -24 -1 -11 -29 -6 -35 27 -32
26 2 32 0 32 -17 0 -16 -7 -20 -35 -20 -36 0 -36 0 -27 -59 1 -6 13 -19 26
-31 25 -22 22 -45 -5 -45 -27 0 -44 -27 -44 -69 0 -26 -5 -41 -12 -41 -10 0
-10 -2 -1 -8 9 -6 1 -19 -27 -47 -50 -49 -55 -68 -70 -240 -15 -172 -30 -239
-77 -332 -37 -75 -73 -120 -132 -163 -38 -29 -36 -20 -101 -405 -71 -422 -91
-529 -115 -635 -48 -205 -112 -423 -179 -614 l-45 -126 1670 0 1669 0 0 3600
0 3600 -1445 0 c-795 0 -1445 -2 -1445 -5z m1650 -3653 c0 -7 -11 -24 -25 -38
-14 -14 -25 -32 -25 -41 0 -24 -30 -42 -70 -43 -19 0 -97 7 -172 17 -138 16
-138 16 -138 42 1 25 1 25 15 7 12 -16 15 -17 15 -4 0 17 45 28 125 28 53 0
68 6 77 30 8 20 198 22 198 2z m-353 -806 c15 -8 40 -17 55 -20 15 -4 32 -15
38 -26 10 -18 7 -20 -27 -21 -21 -1 -42 -1 -46 0 -4 1 -58 3 -120 6 -62 2
-123 7 -137 10 -14 4 -32 7 -40 8 -8 1 -18 10 -22 20 -4 10 -12 15 -18 12 -11
-7 -14 18 -3 28 13 14 291 -1 320 -17z m328 -51 c22 -8 49 -15 60 -15 29 -1
61 -28 49 -40 -19 -19 -109 -23 -160 -7 -27 8 -61 18 -76 21 -30 7 -38 30 -14
39 8 3 23 3 34 0 11 -2 23 0 26 6 9 15 32 13 81 -4z m-649 -14 c5 -6 34 -11
64 -13 41 -2 55 -7 55 -18 0 -11 -13 -16 -50 -18 -67 -4 -80 -9 -66 -25 7 -9
27 -12 61 -9 41 3 54 1 64 -13 7 -10 18 -15 23 -12 11 7 23 -14 23 -39 0 -18
-27 -47 -57 -63 -17 -9 -38 -9 -85 0 -35 6 -69 11 -75 11 -7 1 -27 13 -44 27
-27 23 -29 29 -20 54 6 16 15 26 20 23 5 -4 16 1 24 9 9 8 20 15 26 15 19 0
12 18 -14 38 -27 22 -33 34 -11 26 8 -3 17 -1 21 5 8 14 28 14 41 2z m1178
-2298 c17 -51 33 -93 37 -93 4 0 22 43 39 95 25 76 35 95 51 95 10 0 19 -2 19
-4 0 -2 -21 -61 -46 -130 -37 -101 -50 -126 -65 -126 -10 0 -19 2 -19 4 0 3
-20 62 -45 131 -43 121 -44 126 -23 123 18 -2 27 -20 52 -95z m290 5 c14 -13
28 -35 32 -50 l6 -28 -72 0 c-68 0 -71 -1 -68 -22 4 -29 51 -47 78 -30 43 27
69 6 28 -22 -36 -26 -85 -20 -119 13 -81 81 30 215 115 139z m209 10 c34 -18
46 -40 47 -85 0 -85 -94 -126 -154 -67 -39 40 -37 103 5 138 33 28 67 33 102
14z"/>
<path d="M2960 7052 c-19 -58 -36 -117 -37 -132 -6 -70 -5 -102 5 -112 8 -8 6
-17 -5 -34 -8 -13 -11 -29 -7 -36 4 -7 7 -28 5 -47 -3 -58 6 -32 33 89 38 174
47 238 44 312 l-3 67 -35 -107z"/>
<path d="M3656 6954 c-71 -76 -86 -98 -75 -106 11 -8 10 -9 -3 -4 -12 4 -29
-8 -54 -38 -20 -24 -36 -47 -36 -52 2 -18 259 -101 273 -87 6 6 -5 323 -14
371 -1 7 -42 -31 -91 -84z"/>
<path d="M9057 6970 c-4 -36 -9 -120 -12 -187 -5 -117 -5 -123 14 -123 26 0
138 35 205 65 l57 25 -36 45 c-25 30 -41 42 -52 38 -12 -5 -15 -2 -10 9 4 11
-22 45 -78 104 l-83 89 -5 -65z"/>
<path d="M5040 6903 c-159 -6 -371 -20 -376 -25 -4 -5 6 -101 41 -363 9 -66
19 -139 22 -162 5 -38 9 -43 37 -48 39 -6 460 -33 464 -30 4 3 -22 296 -43
486 -8 75 -15 139 -15 142 0 4 -10 6 -22 5 -13 -1 -61 -3 -108 -5z"/>
<path d="M5204 6813 c8 -119 44 -477 52 -515 5 -23 12 -28 47 -32 68 -9 458
-46 485 -46 l24 0 -6 103 c-3 56 -11 211 -18 345 l-11 242 -290 0 -290 0 7
-97z"/>
<path d="M5800 6888 c0 -52 30 -575 35 -625 6 -49 8 -53 32 -53 15 0 131 -7
260 -16 128 -9 240 -14 248 -10 13 5 15 52 15 341 0 260 -3 337 -12 340 -7 2
-105 11 -218 20 -113 8 -240 18 -282 22 -78 6 -78 6 -78 -19z"/>
<path d="M6725 6890 c-126 -10 -248 -20 -270 -22 l-40 -4 -3 -342 -2 -342 47
0 c27 0 140 7 253 15 113 8 214 15 226 15 20 0 21 8 32 213 27 484 27 487 6
486 -11 -1 -122 -10 -249 -19z"/>
<path d="M7015 6898 c-2 -7 -9 -130 -15 -273 -6 -143 -13 -293 -15 -332 l-5
-73 47 0 c26 0 85 5 132 10 47 6 149 17 225 25 77 9 141 17 142 18 3 3 51 481
57 568 l3 56 -134 7 c-230 11 -432 8 -437 -6z"/>
<path d="M7608 6869 c-11 -65 -52 -588 -47 -593 3 -3 86 1 184 9 308 26 304
25 309 43 14 49 73 549 65 556 -2 2 -117 7 -255 11 l-251 7 -5 -33z"/>
<path d="M4400 6843 c-113 -19 -208 -38 -211 -41 -6 -7 57 -472 65 -479 6 -6
419 -20 439 -15 15 4 18 11 13 36 -3 17 -15 103 -26 191 -44 361 -41 345 -59
344 -9 -1 -108 -17 -221 -36z"/>
<path d="M8145 6868 c-3 -7 -16 -116 -30 -243 -14 -126 -28 -250 -31 -273 l-7
-44 174 6 c96 3 200 5 231 6 l56 0 11 48 c19 85 65 432 58 438 -4 4 -87 19
-184 34 -287 44 -273 43 -278 28z"/>
<path d="M3159 6752 c-15 -37 -48 -118 -74 -180 -35 -86 -44 -116 -35 -127 8
-10 7 -17 -6 -29 -14 -15 -15 -26 -5 -99 14 -101 20 -160 20 -211 1 -22 4 -36
8 -32 13 12 33 81 33 113 0 17 4 43 10 57 10 28 30 35 30 11 0 -8 4 -15 10
-15 5 0 7 -7 3 -16 -3 -8 -12 -13 -19 -10 -10 4 -14 -4 -14 -29 0 -19 -9 -57
-20 -85 -11 -27 -16 -50 -12 -50 10 0 113 252 106 259 -3 3 -11 -1 -17 -9 -18
-23 -40 -18 -47 10 -9 35 5 51 36 39 14 -5 30 -9 36 -9 11 0 2 350 -11 437
l-6 42 -26 -67z"/>
<path d="M9617 6623 c-12 -284 -12 -290 33 -410 22 -59 43 -109 46 -112 9 -9
-7 70 -21 104 -6 17 -9 38 -6 47 5 15 8 13 17 -10 13 -32 35 -131 40 -182 2
-20 7 -47 12 -60 7 -19 10 -12 15 41 4 35 13 125 21 199 9 74 13 149 11 166
-4 33 -146 374 -156 374 -3 0 -9 -71 -12 -157z"/>
<path d="M9836 6685 c9 -112 8 -158 -6 -150 -6 4 -10 -8 -10 -29 0 -25 4 -36
15 -36 18 0 19 -31 3 -76 -9 -27 -7 -50 13 -141 13 -59 25 -99 27 -88 2 11 7
29 12 40 11 26 19 205 8 199 -4 -3 -8 2 -8 11 0 9 5 13 10 10 15 -9 12 7 -30
175 -36 140 -39 148 -34 85z"/>
<path d="M3470 6722 c-5 -101 3 -539 9 -545 9 -9 147 27 246 64 l55 20 0 83
c0 46 -3 131 -7 189 -5 92 -8 107 -23 107 -15 0 -81 21 -267 85 -7 2 -13 1
-13 -3z"/>
<path d="M9205 6684 c-65 -24 -129 -44 -141 -44 -25 0 -27 -18 -40 -256 l-6
-122 157 -52 c86 -29 158 -50 160 -49 3 4 9 467 6 532 0 20 -4 37 -8 36 -5 0
-62 -20 -128 -45z"/>
<path d="M3433 6683 c-4 -10 -22 -42 -41 -72 -19 -30 -61 -101 -94 -158 -52
-93 -57 -105 -43 -119 22 -22 19 -37 -5 -24 -20 11 -20 7 -22 -177 0 -103 0
-195 1 -203 1 -8 3 -23 4 -32 2 -23 5 -20 87 88 58 75 74 102 72 126 -1 17 2
27 7 23 6 -3 7 -13 4 -23 -5 -16 -4 -16 11 -1 10 9 22 34 27 55 9 39 12 534 3
534 -3 0 -8 -8 -11 -17z"/>
<path d="M9367 6659 c-3 -11 -6 -131 -6 -266 -1 -236 0 -247 21 -277 30 -43
200 -256 204 -256 2 0 4 85 4 189 0 155 -3 192 -15 205 -17 17 -20 30 -5 21 6
-4 10 7 10 26 0 23 -24 73 -77 163 -129 218 -130 219 -136 195z"/>
<path d="M3001 6355 c-1 -5 -14 -75 -31 -155 -28 -140 -33 -196 -10 -108 20
70 22 76 27 54 3 -10 0 -38 -6 -63 -13 -49 -3 -73 28 -73 14 0 14 -2 1 -10
-12 -7 -11 -10 5 -16 11 -4 24 -9 28 -12 9 -4 7 26 -15 243 -9 93 -25 175 -27
140z"/>
<path d="M9787 6158 c-10 -101 -17 -191 -17 -201 0 -23 20 -12 21 11 1 22 69
80 69 60 0 -8 -9 -23 -20 -33 -11 -10 -20 -26 -20 -37 0 -10 -3 -18 -7 -18 -5
0 -16 -7 -27 -15 -18 -14 -18 -16 -1 -92 21 -89 22 -93 36 -73 8 11 12 12 16
3 9 -24 23 -13 23 17 0 16 -8 37 -19 47 -21 21 -32 56 -21 73 6 9 13 7 29 -9
15 -15 21 -17 21 -7 0 8 3 22 7 32 5 14 2 16 -20 12 -35 -7 -35 10 -1 18 25 7
26 9 20 58 -3 28 -8 60 -10 71 -3 11 -5 26 -5 33 -1 7 -6 10 -13 6 -7 -4 -8
-3 -4 4 7 12 -22 202 -34 215 -3 4 -14 -75 -23 -175z"/>
<path d="M8288 6292 l-208 -2 1 -43 c0 -23 8 -133 18 -245 13 -151 21 -206 32
-213 12 -7 12 -9 -1 -9 -13 -1 -13 -2 0 -9 8 -4 71 -2 140 5 69 8 165 18 213
23 48 5 91 12 95 15 6 7 -32 464 -39 470 -10 9 -61 11 -251 8z"/>
<path d="M4125 6278 c-33 -5 -115 -15 -183 -22 -68 -7 -127 -17 -131 -22 -5
-5 -11 -70 -15 -144 -5 -121 -4 -132 8 -105 l14 30 1 -37 c1 -25 -6 -45 -19
-58 -14 -14 -20 -33 -20 -65 l0 -45 204 0 203 0 6 38 c4 20 11 111 17 202 6
91 13 182 16 203 7 42 8 42 -101 25z"/>
<path d="M4257 6283 c-3 -4 -10 -84 -16 -178 -6 -93 -14 -198 -17 -232 -6 -61
-6 -61 23 -67 49 -11 230 -15 208 -5 -14 7 -7 8 25 4 24 -3 50 -11 57 -17 7
-5 25 -7 40 -4 18 4 23 3 15 -2 -10 -7 -5 -11 18 -16 43 -8 60 -8 58 2 -2 8 9
148 22 272 5 47 12 121 15 165 l6 80 -225 3 c-123 1 -227 -1 -229 -5z"/>
<path d="M7980 6283 c-25 -1 -92 -7 -150 -12 -58 -6 -142 -13 -187 -17 l-83
-6 0 -87 c1 -116 26 -480 33 -488 4 -3 84 9 179 26 95 18 198 37 228 42 30 5
60 17 66 25 10 12 13 12 18 2 3 -7 4 37 1 97 -8 176 -26 389 -34 404 -9 17
-13 18 -71 14z"/>
<path d="M8570 6253 c0 -28 35 -418 40 -440 0 -2 95 -3 211 -3 l211 0 -6 83
c-18 237 -30 357 -35 357 -3 0 -91 9 -196 20 -246 26 -225 27 -225 -17z"/>
<path d="M4736 6258 c-7 -35 -36 -408 -36 -455 0 -47 0 -47 100 -62 36 -5 112
-19 170 -29 130 -25 238 -37 227 -26 -4 4 -26 11 -50 15 l-42 6 48 2 c28 0 49
6 52 14 6 18 28 517 23 522 -4 4 -422 35 -470 35 -10 0 -19 -9 -22 -22z"/>
<path d="M3172 6183 c-17 -43 -33 -87 -37 -98 l-8 -20 17 20 c17 20 17 20 11
-5 -4 -14 -9 -42 -12 -63 -3 -20 -9 -40 -14 -43 -20 -12 -7 -24 26 -24 l36 0
-6 -62 c-4 -43 -2 -56 4 -42 10 23 27 414 18 414 -3 0 -19 -35 -35 -77z"/>
<path d="M9608 6172 c9 -324 13 -372 33 -372 21 0 26 -16 7 -22 -12 -4 7 -61
77 -223 l25 -60 -5 79 c-5 80 -15 117 -15 56 0 -18 -3 -30 -7 -27 -6 6 -16
146 -14 207 0 14 0 37 1 53 0 15 6 30 15 33 8 4 15 12 15 19 0 25 -45 110 -59
110 -8 0 -16 6 -19 14 -3 10 0 12 12 8 22 -9 21 -3 -19 93 -19 47 -35 90 -35
97 0 6 -3 14 -7 16 -5 3 -7 -34 -5 -81z"/>
<path d="M5256 6168 c-7 -83 -26 -452 -25 -483 l0 -20 9 20 c8 19 9 19 9 -1 1
-17 9 -23 39 -27 20 -3 91 -17 157 -31 209 -46 320 -64 329 -56 13 13 -3 30
-22 23 -12 -5 -11 -1 5 13 21 18 23 33 39 297 10 152 14 280 11 283 -4 4 -68
13 -144 20 -76 7 -178 18 -228 23 -49 6 -109 11 -132 11 l-41 0 -6 -72z"/>
<path d="M7390 6234 c-8 -3 -102 -13 -208 -23 -106 -10 -195 -21 -198 -24 -3
-3 2 -119 10 -259 9 -139 17 -275 18 -301 2 -64 12 -70 93 -57 74 12 447 88
450 92 4 5 -13 395 -21 491 l-7 87 -61 -1 c-33 -1 -68 -3 -76 -5z"/>
<path d="M9020 6223 c0 -10 7 -85 15 -168 8 -82 15 -169 15 -192 0 -24 7 -48
15 -57 15 -15 316 -118 323 -111 4 3 -31 299 -46 395 -8 49 12 39 -224 120
-102 35 -98 35 -98 13z"/>
<path d="M3610 6183 c-74 -25 -136 -46 -138 -47 -2 -3 -26 -208 -37 -324 -6
-58 -4 -72 6 -70 8 2 14 -4 14 -12 0 -8 -8 -14 -17 -14 -10 1 -18 -2 -18 -7 0
-13 19 -11 67 7 26 10 40 21 36 28 -5 8 -2 7 8 -1 24 -19 219 51 219 80 0 6 7
91 15 187 19 224 19 220 -2 219 -10 0 -79 -21 -153 -46z"/>
<path d="M5835 6135 c-7 -70 -25 -425 -25 -512 0 -63 2 -73 18 -72 10 0 12 3
5 6 -7 2 -13 12 -13 20 0 13 4 12 18 -5 13 -14 39 -24 81 -31 35 -6 66 -10 70
-9 3 1 13 -2 21 -5 8 -3 83 -13 165 -22 83 -9 162 -18 176 -20 26 -3 26 -1 33
64 3 36 6 184 6 329 l0 262 -22 9 c-13 4 -86 12 -163 16 -77 4 -190 10 -252
14 l-112 6 -6 -50z"/>
<path d="M6680 6172 c-113 -7 -220 -15 -237 -18 l-33 -5 0 -258 c0 -142 3
-286 6 -319 10 -90 15 -91 310 -56 129 16 239 31 246 35 6 4 10 40 9 95 -1 85
-11 313 -16 358 -1 11 -3 58 -4 103 l-1 83 -37 -2 c-21 -2 -130 -9 -243 -16z"/>
<path d="M3413 6073 c-11 -15 -55 -73 -97 -128 -42 -55 -76 -102 -76 -105 0
-3 14 -11 30 -18 32 -15 43 -46 13 -35 -10 3 -24 11 -31 16 -11 8 -12 5 -7
-16 5 -17 3 -27 -4 -27 -6 0 -11 5 -11 11 0 5 -5 7 -11 3 -7 -4 -10 -27 -7
-60 3 -31 1 -51 -5 -47 -5 3 -8 -18 -5 -51 1 -31 0 -56 -4 -56 -5 0 -8 -11 -8
-25 0 -14 5 -25 11 -25 6 0 8 9 4 20 -5 14 -2 20 9 20 9 0 16 -7 16 -15 0 -22
-30 -66 -41 -59 -5 3 -9 -3 -9 -12 0 -16 2 -15 21 2 25 23 68 81 52 71 -6 -4
-13 4 -16 19 -3 17 -1 22 5 16 6 -6 17 -8 26 -5 11 5 13 3 7 -8 -5 -8 1 -6 13
5 12 10 19 23 15 29 -3 5 -2 7 4 4 9 -6 58 49 58 66 0 4 5 6 10 5 11 -3 16 21
45 227 11 77 19 155 18 173 l-3 34 -22 -29z"/>
<path d="M9365 6088 c2 -7 11 -78 20 -158 24 -222 30 -247 71 -296 19 -25 40
-42 45 -39 5 4 6 0 4 -7 -5 -13 58 -84 80 -90 5 -2 10 -8 10 -14 0 -6 8 -18
18 -28 16 -17 17 -16 17 23 0 23 -4 41 -8 41 -4 0 -6 16 -4 35 6 50 -8 156
-18 131 -5 -15 -8 -17 -15 -6 -5 8 -2 17 8 25 22 16 23 49 1 41 -12 -4 -14 -1
-9 14 5 15 3 18 -9 14 -20 -8 -21 10 -1 26 13 11 12 16 -7 44 -30 42 -200 256
-204 256 -2 0 -1 -6 1 -12z"/>
<path d="M8465 5774 c-55 -7 -145 -18 -200 -24 -144 -15 -148 -16 -141 -44 3
-13 8 -66 12 -117 3 -58 10 -98 18 -104 7 -5 11 -16 8 -24 -4 -11 2 -12 24 -7
16 4 36 8 44 9 87 14 149 32 134 37 -15 6 -14 8 8 12 15 3 25 1 22 -3 -8 -14
24 -11 129 13 53 12 97 25 97 30 0 5 -4 6 -10 3 -5 -3 -10 -2 -10 4 0 5 5 11
11 13 9 3 7 31 -5 103 -17 101 -22 116 -34 114 -4 -1 -52 -8 -107 -15z"/>
<path d="M8644 5773 c-8 -8 -14 -10 -14 -4 0 6 -5 11 -11 11 -6 0 -8 -7 -5
-16 4 -9 13 -60 22 -113 8 -52 17 -97 19 -99 2 -2 48 -1 102 4 54 4 92 9 85
11 -22 8 -2 23 30 23 27 0 29 -2 17 -16 -11 -14 -3 -15 87 -9 54 4 104 8 110
10 11 3 -29 181 -44 197 -4 4 -92 8 -196 11 -152 3 -191 1 -202 -10z"/>
<path d="M3769 5748 c-4 -143 -4 -170 -1 -150 2 12 7 22 12 22 5 0 10 -10 12
-22 3 -21 9 -23 65 -26 56 -3 62 -1 56 14 -5 14 -2 16 18 10 13 -3 42 -9 65
-12 35 -5 44 -3 67 20 31 30 38 33 31 9 -3 -10 13 20 35 65 23 46 41 88 41 93
0 5 -88 9 -200 9 l-200 0 -1 -32z"/>
<path d="M4217 5773 c-4 -3 -7 -19 -7 -35 0 -24 4 -28 28 -28 19 0 23 -3 13
-9 -9 -6 -10 -11 -2 -15 6 -4 11 -20 11 -37 0 -21 5 -29 18 -29 10 0 22 -4 28
-9 10 -10 188 -31 262 -31 45 0 49 2 60 33 15 43 15 64 0 70 -8 3 -3 9 12 15
l25 9 -33 8 c-18 4 -36 4 -39 1 -4 -3 -12 -1 -20 5 -10 9 -13 8 -13 -1 0 -9
-4 -9 -12 -2 -7 5 -51 13 -98 17 -47 4 -89 10 -95 13 -13 9 -95 31 -116 32 -9
0 -19 -3 -22 -7z"/>
<path d="M3632 5737 c-52 -18 -98 -41 -103 -50 -6 -9 -17 -17 -25 -17 -22 0
-11 -24 12 -28 10 -2 29 -13 41 -24 12 -12 29 -18 37 -15 9 4 16 1 16 -5 0
-31 101 103 113 150 3 12 4 22 4 22 -1 -1 -44 -16 -95 -33z"/>
<path d="M9078 5754 c13 -34 54 -108 74 -136 24 -34 79 -39 105 -9 9 11 35 27
59 37 24 10 44 21 44 25 0 3 -60 26 -132 49 -73 23 -139 45 -146 47 -8 4 -10
0 -4 -13z"/>
<path d="M7890 5695 c-96 -19 -197 -38 -224 -43 -76 -15 -76 -16 -69 -182 4
-86 10 -135 14 -120 4 16 7 19 8 8 1 -10 6 -18 12 -18 6 0 9 -7 6 -14 -4 -10
-1 -13 9 -9 7 3 14 10 14 17 0 8 3 7 8 -1 8 -13 52 -6 52 8 0 5 -4 9 -10 9
-11 0 -14 30 -2 30 143 4 182 4 185 -2 1 -4 15 -4 32 0 26 7 27 9 10 16 -19 8
-18 9 5 16 14 3 32 2 41 -3 11 -7 30 -5 60 7 42 15 42 16 9 11 -25 -4 -31 -2
-20 5 8 5 22 10 31 10 11 0 19 12 23 33 5 25 9 29 16 17 12 -18 12 101 0 175
-7 49 -7 49 -9 11 -1 -37 -2 -39 -16 -20 -17 22 -20 54 -5 54 6 0 10 5 10 10
0 12 20 15 -190 -25z"/>
<path d="M4691 5669 c0 -31 -4 -70 -7 -86 -4 -23 -2 -30 10 -30 9 0 16 6 16
12 0 8 10 10 25 7 14 -2 25 -11 25 -18 0 -8 6 -14 14 -14 8 0 24 -12 35 -26
12 -16 27 -24 36 -21 8 4 18 0 22 -7 5 -8 31 -17 58 -20 75 -9 100 -13 124
-21 12 -4 21 -2 21 4 0 6 11 11 25 11 14 0 25 5 25 10 0 6 18 10 40 10 l40 0
0 61 c0 33 -4 58 -8 55 -5 -3 -24 3 -43 13 -19 10 -47 21 -63 25 -21 5 -26 10
-17 16 19 11 4 15 -174 45 -167 28 -189 30 -163 15 10 -6 14 -18 11 -30 -8
-30 -37 -20 -44 15 -5 23 -7 17 -8 -26z"/>
<path d="M9340 5628 c-11 -10 -31 -18 -45 -18 -14 0 -25 -4 -25 -9 0 -11 -39
-26 -57 -23 -24 5 -13 -7 20 -22 39 -18 187 -76 193 -76 2 0 4 11 4 25 0 14
-4 25 -10 25 -5 0 -10 -4 -10 -8 0 -14 -48 -12 -60 3 -10 12 -9 16 4 21 9 4
20 4 23 0 12 -11 33 16 33 43 0 20 -2 23 -10 11 -7 -11 -8 -7 -4 15 5 26 3 31
-16 31 -11 0 -29 -8 -40 -18z"/>
<path d="M7500 5619 c-115 -21 -150 -31 -144 -41 5 -7 1 -7 -11 -1 -12 7 -56
2 -149 -17 -72 -15 -141 -30 -153 -34 -23 -7 -23 -8 -21 -194 1 -151 3 -170 8
-97 3 50 7 80 8 68 1 -13 6 -23 12 -23 5 0 13 -18 16 -40 6 -34 10 -40 30 -40
13 0 24 -4 24 -10 0 -5 13 -10 29 -10 17 0 32 -4 36 -9 10 -17 89 13 94 34 2
11 10 24 18 29 11 6 13 17 8 43 -7 40 7 63 40 63 21 0 24 -6 30 -62 8 -72 14
-86 26 -67 6 10 9 11 9 2 0 -17 30 -16 54 2 20 15 20 15 0 16 -14 0 -15 2 -4
6 8 4 23 15 32 25 11 13 24 18 36 14 18 -6 20 -2 17 46 -2 29 -1 43 2 31 9
-44 23 -22 23 35 0 88 -12 242 -19 241 -3 -1 -26 -5 -51 -10z"/>
<path d="M5303 5606 c-18 -8 -23 -20 -24 -51 -1 -22 0 -44 1 -50 2 -5 6 -31
10 -57 3 -26 9 -51 13 -54 3 -3 35 -9 71 -11 36 -3 66 -10 66 -14 0 -5 36 -9
80 -9 73 0 80 -2 80 -20 0 -18 7 -20 54 -20 30 0 61 -3 70 -6 11 -4 16 0 16
12 0 16 -2 17 -10 4 -7 -11 -10 -8 -9 15 0 17 3 24 6 17 8 -21 23 -3 25 31 1
18 4 -2 8 -43 6 -70 7 -66 8 48 1 76 -2 122 -8 122 -5 0 -13 0 -16 -1 -4 0
-10 3 -13 8 -3 5 -55 20 -116 32 -60 13 -139 29 -175 37 -36 7 -78 11 -94 8
-19 -4 -26 -3 -22 5 4 6 6 10 4 10 -2 -1 -13 -6 -25 -13z"/>
<path d="M9430 5615 c0 -3 7 -38 16 -78 12 -53 24 -80 47 -104 17 -18 36 -33
41 -33 6 1 1 9 -11 19 -27 22 -30 41 -7 41 8 0 12 -5 9 -11 -4 -6 -1 -16 7
-22 24 -21 74 -82 56 -68 -12 9 -18 9 -18 3 0 -6 9 -16 20 -22 17 -9 20 -8 20
10 0 12 4 19 9 16 5 -3 11 0 14 8 4 9 -2 12 -19 10 -13 -1 -22 1 -19 6 3 5 -7
18 -21 29 -15 12 -24 24 -20 28 3 3 17 -4 31 -17 14 -13 27 -21 29 -19 8 8
-138 169 -154 169 -5 0 -10 6 -10 14 0 8 -4 18 -10 21 -5 3 -10 3 -10 0z"/>
<path d="M5830 5510 c0 -5 7 -15 15 -24 8 -8 15 -18 15 -21 0 -4 -7 -5 -15 -1
-13 4 -15 -8 -13 -82 1 -60 3 -71 5 -34 3 44 7 52 24 52 15 0 19 -7 20 -37 l2
-38 7 40 7 40 2 -37 c1 -25 6 -38 19 -42 20 -7 48 -46 32 -46 -5 0 -10 -7 -10
-15 0 -10 10 -15 30 -15 33 0 43 26 13 32 -10 3 -1 6 19 9 48 6 78 -5 78 -31
0 -17 7 -20 43 -21 60 -2 100 -12 105 -26 2 -9 -8 -13 -32 -13 -51 0 -48 -26
3 -35 22 -4 42 -13 45 -21 4 -9 21 -14 55 -14 l50 0 4 38 4 37 1 -36 c1 -22 8
-39 17 -43 13 -5 15 15 13 147 -1 84 -3 128 -5 100 -3 -38 -8 -53 -19 -53 -9
0 -14 11 -14 33 0 37 -8 51 -33 60 -12 5 -16 13 -13 25 5 16 -4 19 -81 31 -49
6 -98 15 -111 18 -15 4 -22 1 -20 -7 2 -9 -8 -13 -27 -14 -20 0 -30 5 -30 14
0 15 -23 20 -152 33 -29 4 -53 2 -53 -3z"/>
<path d="M6900 5510 c-30 -4 -95 -13 -145 -19 -49 -6 -103 -13 -120 -15 -16
-2 -58 -7 -93 -11 -77 -9 -105 -29 -109 -79 -1 -20 2 -34 7 -31 4 3 11 -25 13
-62 5 -73 20 -160 29 -169 8 -7 198 -13 226 -7 15 4 22 12 22 29 0 13 4 24 9
24 5 0 12 8 14 18 4 16 5 16 6 0 1 -22 19 -24 27 -3 8 21 21 19 29 -5 6 -20
45 -29 45 -9 0 5 5 7 10 4 6 -3 10 -16 10 -28 0 -12 7 -31 15 -41 8 -10 12
-23 8 -29 -3 -6 -1 -7 5 -3 7 4 12 2 12 -3 0 -6 5 -11 10 -11 6 0 10 11 10 24
0 14 5 28 10 31 6 3 10 44 10 90 0 131 14 134 21 5 5 -104 5 -98 7 73 2 185 2
189 -20 208 -15 12 -17 17 -7 13 10 -3 20 -1 24 5 7 12 -1 12 -85 1z"/>
<path d="M8520 5490 c0 -5 14 -7 33 -3 l32 6 -29 -31 c-16 -17 -33 -29 -39
-25 -5 3 -4 9 4 13 10 6 9 12 -3 24 -14 14 -25 13 -114 -6 -93 -19 -147 -37
-116 -38 7 0 10 -4 7 -10 -3 -5 2 -10 12 -10 10 0 31 -7 47 -15 15 -8 35 -15
42 -15 8 0 14 -4 14 -10 0 -5 -5 -10 -12 -10 -6 0 -9 -2 -6 -5 8 -9 58 17 52
26 -3 5 3 6 12 2 11 -4 15 -3 11 4 -5 7 0 9 12 6 13 -3 32 9 62 42 24 26 46
51 47 56 2 5 -12 9 -32 9 -20 0 -36 -4 -36 -10z"/>
<path d="M124 3759 c-10 -4 -43 -8 -71 -8 l-53 -1 0 -65 0 -65 48 0 c27 0 73
4 103 10 30 5 83 11 118 13 36 3 67 10 71 17 5 8 24 12 49 10 39 -2 74 -2 201
-1 30 0 91 0 135 0 123 -2 206 7 216 22 8 12 11 11 19 -1 6 -10 10 -11 10 -2
0 7 13 12 30 12 17 0 30 4 30 9 0 14 -73 23 -235 28 -82 2 -152 8 -155 12 -6
11 -491 20 -516 10z"/>
<path d="M1060 3675 c0 -3 11 -17 23 -31 21 -23 32 -25 103 -27 70 -1 82 -4
107 -26 15 -14 27 -32 27 -40 0 -11 5 -10 20 4 11 10 20 14 20 10 0 -5 6 -2
13 7 6 9 25 19 41 22 27 7 28 8 11 26 -11 12 -31 20 -52 20 -18 0 -33 4 -33
10 0 5 -29 8 -67 7 -46 -1 -68 2 -70 11 -5 12 -143 19 -143 7z"/>
<path d="M1293 3449 c-6 -6 -26 -13 -44 -15 -18 -2 -36 -9 -40 -16 -4 -6 -54
-14 -121 -19 -62 -5 -153 -12 -203 -18 -97 -10 -534 2 -715 18 -58 6 -120 10
-137 11 l-33 0 0 -1705 0 -1705 1665 0 c916 0 1665 2 1665 4 0 2 -33 104 -74
227 -101 306 -147 495 -201 819 -57 343 -115 680 -121 702 -3 9 -13 20 -24 23
-37 12 -99 82 -134 151 -20 39 -36 76 -36 83 0 6 -4 11 -8 11 -13 0 -48 208
-51 299 -3 69 -18 153 -30 161 -5 3 -12 22 -16 42 -4 21 -11 36 -15 33 -12 -8
-41 6 -34 16 3 5 -2 9 -10 9 -11 0 -16 10 -16 33 0 19 -3 37 -7 41 -4 3 -8 14
-9 24 -18 125 -31 182 -50 212 -13 19 -26 57 -30 84 -3 27 -14 56 -23 66 -9 9
-23 26 -31 38 -8 12 -20 22 -26 22 -7 0 -17 14 -23 30 -5 17 -14 30 -20 30 -5
0 -13 9 -16 20 -3 11 -15 20 -26 20 -10 0 -19 5 -19 10 0 6 -7 10 -15 10 -8 0
-15 5 -15 10 0 6 -5 10 -11 10 -6 0 -17 7 -25 15 -9 8 -24 15 -35 15 -10 0
-19 4 -19 10 0 5 -11 9 -24 8 -31 -3 -76 21 -70 37 6 15 -107 25 -296 25 -74
0 -178 5 -230 10 -81 9 -97 14 -115 34 -24 29 -83 66 -105 66 -9 0 -21 -5 -27
-11z"/>
<path d="M9770 2665 c0 -18 -40 -20 -40 -2 0 6 -9 1 -19 -12 -22 -29 -17 -51
13 -51 12 0 16 -3 10 -8 -6 -4 -14 -14 -17 -22 -4 -12 -6 -11 -6 3 -1 18 -18
22 -40 8 -9 -6 -12 -19 -8 -36 2 -16 -1 -41 -8 -58 -12 -28 -12 -29 -18 -6 -3
13 -9 20 -13 17 -8 -9 4 -45 23 -64 9 -8 17 -30 18 -47 1 -18 14 -61 28 -97
l25 -65 32 69 c17 37 29 75 26 83 -3 8 -2 12 2 9 9 -6 46 93 38 102 -3 3 -6
-2 -6 -12 0 -9 -4 -14 -10 -11 -12 8 -13 52 -1 59 28 17 -8 112 -38 101 -10
-4 -8 2 7 18 24 25 28 37 12 37 -5 0 -10 -7 -10 -15z"/>
<path d="M9391 2633 c-24 -27 -35 -33 -43 -25 -17 17 -48 15 -48 -2 0 -8 -9
-17 -19 -21 -23 -7 -35 -37 -33 -77 2 -19 -3 -28 -13 -28 -8 0 -15 7 -15 15 0
8 -4 15 -10 15 -5 0 -10 6 -10 14 0 7 -7 20 -17 27 -15 13 -15 12 -1 -16 9
-16 34 -69 57 -117 23 -49 46 -88 51 -88 9 0 190 132 247 181 32 27 32 27 11
46 -11 10 -22 17 -24 15 -8 -5 -54 35 -54 47 0 15 -17 14 -23 -1 -3 -7 -6 2
-6 20 -1 17 -5 32 -9 32 -5 0 -23 -16 -41 -37z"/>
<path d="M9449 2414 c-63 -47 -122 -92 -132 -99 -18 -12 -17 -18 12 -146 62
-278 73 -319 83 -319 5 0 6 10 3 23 -4 15 -4 18 3 8 10 -14 23 -2 113 104 19
22 51 58 71 80 37 40 52 69 23 45 -13 -11 -14 -10 -9 4 4 10 13 15 20 12 8 -3
25 9 39 28 25 33 34 63 15 51 -5 -3 -7 0 -4 9 10 26 -80 257 -100 253 -6 -1
-10 6 -10 16 1 9 -1 17 -5 17 -4 0 -59 -39 -122 -86z"/>
<path d="M3126 2380 c-5 -30 -13 -61 -18 -67 -6 -7 -8 -22 -5 -33 3 -11 1 -18
-4 -14 -5 3 -9 -4 -9 -16 0 -13 4 -19 12 -14 8 5 9 -2 5 -27 -5 -24 -4 -30 3
-19 8 12 10 11 10 -7 0 -11 15 -39 33 -61 17 -21 41 -50 52 -64 63 -77 170
-198 175 -198 3 0 6 8 7 18 1 9 6 62 12 117 6 55 14 134 16 175 3 41 8 91 10
110 4 26 3 31 -4 20 -6 -8 -11 -37 -12 -65 0 -27 -3 -43 -6 -35 -2 8 -7 22
-10 30 -9 27 -10 81 -1 86 13 8 -14 30 -72 58 -65 31 -113 33 -140 6 l-20 -20
-1 33 c-1 30 -1 30 -9 7 -7 -25 -7 -25 -11 5 -4 25 -6 20 -13 -25z"/>
<path d="M6311 2365 c0 -28 4 -56 10 -62 8 -8 7 -24 -4 -60 -8 -26 -17 -87
-20 -135 l-5 -88 27 0 c14 0 37 -3 50 -7 19 -5 23 -3 18 9 -3 9 0 21 6 27 8 8
8 14 -1 23 -7 7 -12 23 -11 38 l1 25 8 -25 c5 -16 8 16 9 88 1 110 -4 127 -31
98 -11 -11 -15 -8 -27 18 -7 17 -17 47 -21 66 -7 33 -8 32 -9 -15z"/>
<path d="M6548 2215 c2 -93 8 -180 13 -192 7 -18 17 -22 68 -25 l61 -3 0 60
c0 35 -8 83 -20 115 -11 30 -20 64 -21 75 0 11 -3 14 -6 8 -8 -22 -21 -14 -28
17 -8 36 -29 39 -47 8 -12 -21 -14 -17 -19 42 -3 36 -4 -11 -1 -105z"/>
<path d="M8133 2358 c-13 -6 -23 -15 -23 -20 0 -4 -24 -8 -52 -9 -36 0 -47 -3
-33 -8 18 -7 17 -8 -7 -14 -15 -4 -30 -16 -33 -27 -3 -11 -11 -20 -16 -20 -9
0 -7 -23 8 -104 3 -19 2 -26 -6 -22 -6 4 -11 2 -11 -4 0 -16 355 -180 364
-169 16 18 35 71 30 83 -5 12 -2 15 10 10 20 -8 13 -58 -11 -86 -14 -15 -10
-19 36 -43 57 -28 62 -23 37 44 -10 27 -14 31 -19 18 -3 -9 -11 -17 -17 -17
-6 0 -4 7 5 16 10 10 14 25 11 38 -3 12 -6 27 -6 34 0 7 -5 10 -12 6 -7 -4 -8
-3 -4 5 11 17 -3 73 -16 65 -7 -4 -8 -2 -4 5 5 7 5 24 1 39 -5 20 -8 23 -16
11 -6 -10 -9 -7 -9 12 0 15 -11 37 -25 50 -13 13 -25 33 -25 45 0 14 -11 25
-35 34 -19 8 -35 20 -35 27 0 16 -55 16 -87 1z"/>
<path d="M6479 2336 c-1 -6 -1 -14 0 -18 0 -5 -3 -8 -8 -8 -5 0 -12 -10 -15
-22 l-6 -23 -13 22 c-10 18 -12 0 -15 -109 -1 -71 0 -138 3 -149 5 -15 16 -19
57 -19 l51 0 -6 78 c-4 42 -9 118 -13 168 -5 67 -10 91 -20 91 -8 0 -15 -5
-15 -11z"/>
<path d="M7593 2333 c-7 -3 -13 -11 -13 -19 0 -8 -9 -14 -20 -14 -10 0 -24 -8
-29 -17 -10 -17 -11 -16 -12 2 -1 11 -5 2 -10 -20 -10 -51 -10 -277 0 -250 8
20 8 20 15 -1 8 -25 -2 -56 -15 -48 -5 3 -9 -4 -9 -15 0 -13 44 -57 129 -130
l130 -111 50 106 c28 58 51 109 51 113 0 4 13 34 28 67 35 72 45 111 32 119
-5 3 -10 1 -10 -4 0 -6 -7 -11 -15 -11 -8 0 -15 5 -15 10 0 6 5 10 11 10 5 0
7 5 3 11 -5 8 -9 8 -14 -1 -8 -14 -30 -5 -30 11 0 6 5 7 12 3 7 -5 8 -3 4 5
-9 14 -145 104 -161 106 -5 1 -16 3 -22 3 -7 1 -13 6 -13 12 0 5 8 7 18 3 14
-5 13 -3 -3 10 -13 10 -22 12 -26 5 -9 -15 -47 8 -51 30 -2 11 -9 17 -15 15z"/>
<path d="M3460 2296 c-1 -6 -5 -42 -10 -81 -22 -169 -40 -332 -40 -362 0 -27
11 -41 78 -100 121 -105 304 -258 312 -261 4 -1 10 46 13 105 4 59 13 189 22
288 19 228 19 235 0 235 -23 0 -18 19 8 30 18 7 19 9 4 9 -11 1 -21 10 -24 21
-3 11 -9 20 -14 20 -5 0 -9 4 -9 10 0 6 10 5 25 -2 27 -12 49 -3 26 12 -19 11
-119 30 -167 32 -22 0 -44 5 -51 10 -7 5 -22 11 -35 13 -13 2 -49 10 -80 18
-41 10 -58 11 -58 3z"/>
<path d="M7455 2290 c-9 -10 -15 -26 -12 -35 4 -8 2 -15 -3 -15 -6 0 -10 13
-10 29 0 26 -4 30 -25 28 -37 -3 -75 -52 -75 -98 0 -44 -19 -64 -21 -22 -1 18
-3 22 -6 10 -3 -10 -1 -26 3 -35 4 -9 6 -23 5 -31 -1 -7 9 -26 24 -41 30 -32
82 -38 93 -12 5 12 8 7 13 -18 l6 -35 2 33 c1 21 6 32 16 32 12 0 15 19 15
115 0 63 -2 115 -3 115 -2 0 -12 -9 -22 -20z"/>
<path d="M8495 2280 c-3 -5 -21 -10 -38 -10 -72 0 -78 -36 -33 -210 20 -74 38
-144 42 -155 3 -11 42 -49 86 -85 230 -187 321 -259 360 -287 l44 -31 -7 51
c-41 319 -94 666 -104 675 -2 3 -3 -17 -1 -44 2 -27 1 -36 -1 -19 -6 36 -21
57 -37 48 -7 -4 -6 -1 1 9 25 30 -27 40 -59 11 -14 -13 -23 -14 -41 -5 -33 16
-132 42 -161 42 -14 0 -26 5 -26 10 0 6 -4 10 -9 10 -6 0 -13 -4 -16 -10z"/>
<path d="M9230 2284 c-8 -1 -90 -13 -182 -25 -93 -12 -168 -26 -168 -31 0 -4
5 -8 10 -8 6 0 10 -6 10 -12 0 -7 9 -24 20 -38 20 -26 27 -60 11 -60 -5 0 -16
19 -25 41 -9 23 -19 40 -21 37 -3 -2 2 -45 9 -94 8 -49 29 -192 46 -319 18
-126 35 -231 40 -233 4 -1 5 -14 2 -29 -4 -20 -2 -24 9 -18 13 8 159 126 185
150 6 5 55 45 109 89 l97 79 -6 42 c-9 54 -71 326 -88 385 -13 43 -25 52 -58
44z"/>
<path d="M6173 2266 c-14 -6 -23 -21 -24 -36 -1 -23 -2 -23 -9 5 -5 20 -8 -6
-10 -80 -1 -60 -3 -122 -4 -137 -2 -30 1 -33 24 -18 13 9 13 10 0 10 -11 1
-10 5 6 18 12 10 27 34 33 55 7 20 17 39 22 42 5 4 9 17 9 31 0 13 9 33 20 44
52 52 2 101 -67 66z"/>
<path d="M6715 2241 c-8 -7 -4 -184 5 -211 4 -14 9 -18 9 -10 1 13 3 13 14 0
7 -8 24 -16 40 -18 23 -2 27 1 28 25 1 24 3 21 15 -17 l14 -45 -5 45 c-9 78
-37 215 -48 228 -9 11 -62 14 -72 3z"/>
<path d="M6007 2220 c-3 -8 -8 -37 -10 -65 -3 -27 -7 -57 -10 -65 -14 -44 -23
-120 -13 -117 6 2 12 16 13 31 3 36 13 47 13 15 l1 -24 24 27 c20 24 24 25 28
10 4 -14 6 -13 12 6 4 12 11 22 15 22 5 0 11 -10 13 -22 2 -13 5 21 6 74 l1
97 -32 9 c-33 8 -33 8 -39 -32 l-5 -41 -5 45 c-3 27 -7 39 -12 30z"/>
<path d="M4640 2200 c0 -18 -7 -20 -80 -20 -44 0 -80 -4 -80 -9 0 -5 -9 -13
-20 -16 -11 -3 -20 -13 -20 -21 0 -8 -9 -14 -21 -14 -16 0 -19 4 -14 21 5 14
3 19 -3 15 -6 -3 -13 -28 -17 -56 -4 -27 -15 -81 -24 -120 -18 -70 -16 -78 17
-61 9 5 40 18 67 29 28 12 98 42 156 67 59 25 113 45 120 45 11 0 11 3 -1 11
-13 9 -12 10 3 5 9 -3 33 2 52 11 31 15 34 20 30 51 -6 45 -17 52 -87 52 -45
0 -58 3 -58 15 0 8 -4 15 -10 15 -5 0 -10 -9 -10 -20z"/>
<path d="M3955 2199 c-4 -6 -13 -8 -21 -5 -22 8 -29 -16 -9 -31 11 -7 13 -13
7 -13 -7 0 -12 -7 -12 -15 0 -8 -7 -15 -15 -15 -15 0 -14 19 1 68 2 6 -1 12
-5 12 -5 0 -12 -17 -15 -37 -8 -55 -34 -314 -40 -408 -15 -218 -17 -265 -12
-265 4 0 86 66 156 126 14 12 94 79 178 149 83 70 152 130 152 133 0 22 32
201 39 224 7 20 6 28 -5 32 -8 3 -14 1 -14 -5 0 -6 -18 -7 -48 -3 -37 5 -52 2
-65 -10 -23 -23 -43 -20 -75 14 -25 26 -37 30 -79 30 -64 0 -114 10 -107 21 3
5 3 9 0 9 -3 0 -8 -5 -11 -11z"/>
<path d="M5336 2202 c-9 -8 -7 -92 2 -92 4 0 13 -14 19 -30 10 -27 15 -30 40
-25 28 7 28 7 -10 -30 -22 -21 -43 -33 -50 -29 -9 5 -9 4 0 -6 9 -10 22 -4 62
30 27 23 47 48 45 55 -3 7 -1 16 5 20 7 4 8 -1 4 -12 -6 -16 -5 -16 10 -4 21
17 21 25 0 46 -13 13 -14 18 -3 25 20 13 2 30 -33 30 -18 0 -44 6 -59 14 -15
8 -29 12 -32 8z"/>
<path d="M3067 2141 c-17 -82 -11 -101 62 -191 113 -140 192 -218 115 -113
-13 17 -24 37 -24 43 0 17 -118 240 -133 251 -5 3 -8 9 -7 13 1 4 0 12 -3 19
-2 6 -7 -3 -10 -22z"/>
<path d="M5120 2159 c0 -12 -11 -18 -40 -21 -28 -2 -40 0 -40 9 0 21 -8 17
-55 -24 -7 -7 -23 -13 -34 -13 -13 0 -22 -10 -29 -32 -20 -65 -21 -79 -6 -85
8 -3 12 -9 9 -13 -2 -4 8 -34 24 -66 15 -33 43 -91 62 -130 l34 -71 127 109
127 110 -19 21 c-11 11 -20 24 -20 27 0 6 -54 80 -105 145 -9 11 -20 27 -25
35 -8 13 -10 13 -10 -1z"/>
<path d="M9682 2127 c-10 -18 -31 -65 -47 -103 -42 -107 -114 -245 -153 -291
-19 -24 -32 -43 -29 -43 8 0 271 318 281 341 10 21 -10 129 -24 129 -4 0 -17
-15 -28 -33z"/>
<path d="M7944 2068 c-4 -13 -24 -59 -44 -103 -20 -44 -52 -114 -70 -155 -18
-41 -39 -84 -46 -94 -12 -17 3 -34 163 -190 97 -94 180 -171 184 -171 10 0 47
60 196 319 106 185 114 201 97 213 -10 7 -22 13 -27 13 -9 0 -27 7 -137 58
-36 16 -110 48 -165 71 -55 23 -108 46 -117 51 -24 14 -26 13 -34 -12z"/>
<path d="M5445 2032 c-27 -26 -50 -53 -50 -61 0 -8 -6 -16 -14 -19 -10 -3 -11
0 -5 9 7 12 5 12 -9 0 -21 -16 -13 -31 16 -31 12 0 46 -14 75 -30 l53 -29 -2
88 c-4 127 -5 128 -64 73z"/>
<path d="M9545 1970 c-139 -157 -136 -152 -129 -243 6 -64 9 -75 21 -66 7 7
11 20 8 29 -3 9 2 23 10 30 9 7 32 43 52 79 20 36 40 68 43 71 13 11 50 111
45 120 -3 6 6 26 21 45 48 64 19 37 -71 -65z"/>
<path d="M7299 2018 c0 -24 -2 -69 -4 -101 -3 -49 -1 -56 11 -46 8 6 11 15 8
20 -3 5 1 9 9 9 8 0 30 2 48 6 l34 5 -40 -22 c-22 -12 -43 -26 -46 -31 -4 -6
26 -41 65 -78 47 -45 73 -64 78 -57 4 7 7 53 7 102 0 59 -3 83 -9 70 -8 -19
-9 -18 -9 4 -1 18 -5 22 -22 18 -17 -5 -18 -3 -8 9 7 8 19 12 28 9 9 -3 -15
23 -54 59 -38 36 -76 65 -82 66 -9 0 -13 -15 -14 -42z"/>
<path d="M3181 2030 c7 -13 19 -31 28 -40 10 -8 11 -11 4 -6 -7 5 -13 5 -13 0
1 -23 160 -314 173 -314 4 0 7 34 7 74 l0 75 -50 60 c-75 90 -163 179 -149
151z"/>
<path d="M4682 2023 c-6 -3 -9 -10 -6 -15 4 -6 2 -8 -4 -5 -5 4 -73 -20 -150
-53 -78 -33 -145 -60 -151 -60 -5 0 -13 -5 -17 -12 -5 -8 0 -9 14 -6 12 4 22
2 22 -3 0 -5 -4 -9 -10 -9 -16 0 -12 -16 19 -67 16 -26 73 -122 126 -213 54
-91 109 -180 122 -198 23 -31 26 -32 38 -15 7 10 11 21 9 24 -2 4 2 6 10 5 7
0 84 68 169 151 l156 153 -79 156 -80 157 -37 2 c-21 2 -60 5 -88 8 -27 2 -56
2 -63 0z"/>
<path d="M3066 1958 c21 -128 91 -389 108 -403 6 -5 10 -18 8 -28 -5 -26 39
-142 48 -127 4 7 5 22 2 34 -5 19 -4 19 11 7 20 -16 21 -34 5 -60 -15 -24 -15
-24 161 -258 75 -100 137 -175 139 -167 4 17 -152 599 -164 613 -7 7 -44 -32
-44 -46 0 -7 -7 -13 -16 -13 -13 0 -10 8 12 38 15 20 32 40 36 43 5 3 -17 42
-49 87 -47 66 -62 81 -78 76 -16 -4 -17 -3 -5 5 12 8 11 13 -5 33 -11 12 -25
27 -31 33 -6 5 -39 45 -74 88 -34 42 -64 77 -66 77 -2 0 -1 -15 2 -32z"/>
<path d="M9665 1908 c-149 -178 -235 -289 -235 -302 0 -8 15 -34 33 -58 63
-83 62 -90 -2 -15 l-41 48 -10 -26 c-6 -14 -10 -30 -10 -35 0 -5 -18 -73 -39
-152 -57 -208 -121 -451 -117 -447 12 13 161 207 207 269 112 152 130 180 123
191 -3 6 -1 15 6 19 10 6 44 111 101 315 33 120 65 275 56 275 -2 0 -35 -37
-72 -82z"/>
<path d="M6244 1958 c-11 -13 -47 -59 -80 -103 -32 -44 -65 -86 -71 -93 -10
-11 -10 -20 3 -45 23 -44 45 -68 57 -60 6 3 7 1 3 -5 -3 -6 12 -36 34 -68 22
-32 40 -53 40 -48 1 27 31 365 36 402 3 23 4 42 2 42 -3 0 -13 -10 -24 -22z"/>
<path d="M6339 1877 c-59 -97 -69 -132 -84 -299 -6 -72 -7 -70 45 -70 11 0 55
0 98 1 l77 1 33 60 c19 33 42 64 51 70 15 8 18 18 13 57 -3 26 -9 51 -15 54
-5 4 -15 23 -22 42 -13 38 -58 114 -92 155 l-22 27 -1 -142 c0 -188 -19 -191
-22 -3 l-3 139 -56 -92z"/>
<path d="M6564 1945 c3 -16 10 -68 17 -115 6 -47 14 -87 18 -90 5 -3 12 -16
16 -30 9 -27 165 -195 165 -177 -1 38 -29 178 -43 210 -23 53 -97 136 -116
130 -12 -4 -13 -3 -3 4 10 7 5 19 -19 49 -42 53 -42 53 -35 19z"/>
<path d="M6073 1933 c-7 -3 -13 -9 -13 -14 0 -6 6 -7 13 -3 6 4 -23 -29 -65
-73 -58 -60 -78 -88 -78 -108 0 -22 -4 -26 -17 -21 -13 5 -11 0 7 -21 14 -15
28 -32 32 -37 8 -10 84 70 104 110 7 13 16 45 20 70 5 38 4 45 -7 39 -8 -5 -6
1 4 13 20 22 20 52 0 45z"/>
<path d="M6734 1915 c3 -11 12 -53 21 -92 9 -40 20 -73 25 -73 14 0 21 -33 9
-41 -9 -5 -9 -26 0 -89 19 -124 24 -134 44 -75 19 53 21 69 10 62 -5 -3 -16
12 -26 32 l-19 36 31 -29 c36 -35 44 -15 11 27 -25 32 -26 47 -2 19 16 -19 21
-20 37 -8 20 14 23 62 6 95 -6 11 -9 26 -6 33 2 7 -10 24 -27 37 -29 24 -30
24 -19 3 8 -14 9 -33 3 -54 l-9 -33 -7 48 c-4 26 -11 45 -16 42 -8 -5 -25 14
-58 61 -12 18 -12 18 -8 -1z"/>
<path d="M5350 1898 c0 -18 -2 -20 -10 -8 -7 10 -10 -11 -10 -67 0 -72 2 -83
18 -83 14 0 15 -2 2 -10 -8 -5 -12 -11 -10 -13 3 -3 40 28 82 68 l77 72 -52
25 c-84 41 -97 43 -97 16z"/>
<path d="M7487 1788 c-7 -118 -6 -122 19 -166 14 -24 34 -52 44 -62 10 -10 21
-27 25 -39 3 -12 11 -21 16 -21 6 0 6 7 -1 19 -5 11 -10 22 -10 24 0 5 41 20
52 18 8 -1 118 118 118 127 -1 4 -26 27 -57 52 -30 25 -61 50 -67 55 -6 6 -38
33 -72 62 l-61 52 -6 -121z"/>
<path d="M5274 1879 c-11 -12 -18 -24 -18 -28 3 -13 -8 -30 -24 -36 -11 -4 -9
2 7 19 14 15 20 26 14 26 -11 0 -59 -49 -56 -58 0 -4 -3 -6 -7 -5 -5 1 -26
-14 -47 -35 -22 -20 -30 -30 -19 -22 21 15 21 15 2 -7 -10 -13 -22 -20 -26
-18 -4 3 -18 -3 -31 -14 l-23 -18 22 -14 c12 -8 22 -19 22 -25 0 -12 55 -71
88 -92 30 -20 43 -7 83 79 18 38 36 69 40 69 12 0 12 187 0 194 -4 3 -17 -4
-27 -15z"/>
<path d="M4235 1794 c-44 -36 -132 -109 -195 -162 -63 -54 -136 -114 -162
-134 l-46 -37 51 -58 c29 -31 108 -118 177 -193 234 -252 325 -355 359 -402
19 -27 38 -48 44 -48 19 0 306 230 306 246 1 6 -17 62 -38 125 -41 117 -59
139 -81 99 -16 -30 -23 -18 -9 13 7 15 16 24 20 21 5 -3 9 4 9 16 0 12 -4 19
-8 16 -8 -5 -98 -139 -200 -301 -28 -44 -59 -88 -68 -97 -33 -34 -25 -10 19
53 55 79 237 368 237 376 0 4 -27 52 -61 107 -184 307 -255 420 -264 423 -5 1
-46 -27 -90 -63z"/>
<path d="M8454 1847 c-6 -7 -36 -56 -66 -108 -30 -51 -96 -165 -147 -251 -50
-86 -91 -159 -91 -162 0 -7 234 -375 263 -413 l24 -33 94 103 c101 109 306
338 377 419 23 27 42 55 42 63 0 7 -70 68 -156 136 -85 68 -193 154 -240 192
-47 37 -86 67 -87 67 -1 -1 -7 -6 -13 -13z"/>
<path d="M3400 1709 c0 -67 4 -86 22 -112 61 -89 430 -578 433 -575 2 2 -7 98
-20 212 -21 185 -27 212 -47 233 -27 30 -375 323 -383 323 -3 0 -5 -36 -5 -81z"/>
<path d="M9280 1704 c-52 -42 -141 -114 -196 -161 l-102 -86 -7 -76 c-3 -42
-13 -139 -21 -215 -7 -77 -12 -141 -10 -143 4 -4 95 113 291 377 161 216 165
223 165 258 0 45 -12 122 -19 122 -3 -1 -49 -35 -101 -76z"/>
<path d="M9697 1552 c-76 -156 -127 -272 -127 -288 0 -3 4 -3 9 0 5 4 5 -12 0
-37 -13 -56 -20 -70 -16 -29 8 72 -5 35 -133 -378 -23 -74 -48 -155 -56 -180
-12 -41 -12 -43 2 -25 19 24 109 184 158 280 42 82 63 160 40 151 -8 -3 -14 1
-14 9 0 8 5 15 10 15 6 0 10 26 9 60 -1 34 1 64 5 67 3 3 6 -7 7 -23 1 -29 1
-29 9 -4 l8 25 1 -24 c1 -33 9 -23 25 35 7 27 30 105 51 174 21 69 43 152 51
185 7 33 22 82 34 109 11 27 19 50 17 52 -2 2 -42 -76 -90 -174z"/>
<path d="M3021 1719 c-2 -14 23 -75 36 -91 9 -10 12 -25 8 -39 -5 -15 -4 -19
5 -14 9 5 10 2 5 -14 -5 -16 -2 -21 12 -21 13 0 15 -3 5 -8 -10 -7 -4 -40 30
-155 23 -81 46 -147 51 -147 4 0 6 4 2 9 -3 5 0 13 6 17 8 5 9 -7 4 -43 -5
-37 -2 -61 13 -98 11 -28 22 -70 26 -95 4 -25 19 -70 33 -100 33 -69 176 -321
180 -317 4 4 -89 315 -166 553 -16 50 -36 105 -45 122 -9 17 -16 39 -16 49 0
10 -15 49 -34 87 -23 48 -35 64 -39 52 -4 -9 -11 -16 -17 -16 -14 0 -13 37 2
42 8 3 -8 44 -45 119 -31 63 -56 111 -56 108z"/>
<path d="M4891 1538 c-165 -160 -211 -207 -211 -218 0 -4 8 -25 17 -46 9 -22
33 -86 53 -144 21 -58 42 -105 48 -105 13 0 133 98 203 165 26 25 81 100 123
167 l76 122 -21 36 c-12 20 -24 34 -27 31 -3 -3 1 -12 8 -21 7 -8 8 -15 3 -15
-13 0 -74 65 -67 72 7 8 -46 88 -58 88 -6 0 -72 -59 -147 -132z"/>
<path d="M7719 1618 c-31 -37 -37 -48 -21 -39 13 7 26 19 29 27 3 7 9 11 15 8
5 -3 12 3 15 15 6 25 10 26 28 7 12 -12 12 -15 -3 -20 -24 -8 -54 -28 -68 -46
-7 -8 -16 -15 -21 -15 -28 -2 -52 -20 -68 -49 -18 -34 -18 -34 10 -82 88 -151
148 -221 307 -358 l68 -58 10 27 c7 17 7 32 0 45 -5 10 -10 29 -9 42 1 18 3
17 10 -9 5 -18 11 -33 13 -33 3 0 12 24 21 53 10 28 28 78 41 109 13 32 24 64
24 71 0 13 -313 332 -343 348 -11 7 -26 -4 -58 -43z"/>
<path d="M3412 1560 c3 -8 22 -78 43 -155 20 -77 57 -214 81 -304 24 -91 44
-170 44 -175 0 -15 73 -141 224 -391 70 -116 129 -211 130 -212 1 -2 -3 48
-10 110 -7 61 -22 202 -34 312 -11 110 -23 208 -26 217 -3 9 -107 151 -231
315 -124 164 -224 291 -221 283z"/>
<path d="M9370 1551 c-9 -17 -112 -157 -163 -221 -7 -8 -71 -94 -143 -190
l-131 -175 -17 -165 c-9 -91 -24 -229 -32 -307 -9 -78 -14 -147 -12 -153 3
-10 78 109 255 402 l82 138 70 257 c92 342 113 424 107 430 -2 3 -9 -5 -16
-16z"/>
<path d="M6039 1478 c-14 -46 -27 -139 -28 -193 l-1 -50 91 -57 c50 -32 96
-58 103 -58 10 0 15 40 18 173 3 94 3 174 1 176 -2 3 -38 0 -81 -6 -75 -11
-126 -5 -67 8 l30 7 -32 1 c-18 0 -33 0 -34 -1z"/>
<path d="M6559 1456 c-19 -12 -59 -34 -87 -51 l-52 -30 0 -131 c0 -110 3 -133
16 -138 8 -3 12 -2 9 4 -3 5 9 17 27 26 18 9 42 24 53 34 11 9 34 26 50 36
l30 18 -25 -27 c-13 -15 -47 -41 -75 -57 l-50 -30 55 0 c105 0 100 -6 99 139
-1 69 -4 149 -7 177 l-7 51 -36 -21z"/>
<path d="M6628 1307 c2 -94 7 -176 11 -180 5 -4 21 -5 36 -1 l28 7 -24 13
c-16 9 -19 13 -8 14 8 0 24 -6 35 -14 11 -9 31 -12 49 -9 57 11 58 15 52 163
-3 74 -8 143 -12 153 -6 15 -18 17 -69 15 -33 -2 -70 0 -81 5 -20 7 -20 3 -17
-166z"/>
<path d="M5925 1408 c-44 -27 -81 -53 -83 -58 -2 -5 21 -21 50 -36 29 -14 61
-33 71 -42 9 -8 17 -11 17 -6 0 5 7 49 16 98 8 48 14 89 12 91 -2 1 -39 -20
-83 -47z"/>
<path d="M6247 1383 c-4 -38 -7 -102 -7 -143 l1 -75 68 -32 c37 -18 73 -33 80
-33 8 0 11 35 9 136 l-3 136 -71 39 -71 39 -6 -67z"/>
<path d="M8840 1298 c-63 -72 -177 -198 -252 -281 -152 -167 -145 -150 -103
-257 12 -30 39 -126 60 -212 21 -87 41 -158 44 -158 4 0 15 17 25 38 10 20 57
107 105 192 49 85 113 202 144 260 l55 105 21 219 c12 120 20 220 19 222 -2 1
-55 -56 -118 -128z"/>
<path d="M3844 1328 c4 -46 11 -112 16 -148 5 -36 12 -94 15 -130 7 -70 12
-81 208 -435 55 -99 107 -193 116 -210 l15 -30 9 45 c31 157 124 466 126 418
1 -10 -8 -40 -19 -69 -17 -42 -64 -222 -86 -329 -5 -22 -4 -23 9 -10 21 23
173 272 181 296 5 16 -4 36 -34 75 -39 53 -214 248 -375 419 -44 47 -102 109
-128 138 -26 28 -50 52 -54 52 -3 0 -2 -37 1 -82z"/>
<path d="M8130 1282 c0 -10 -4 -22 -9 -27 -10 -12 -91 -234 -91 -251 0 -13
307 -250 314 -243 23 25 76 102 74 108 -4 9 -121 195 -207 328 -36 57 -69 103
-73 103 -5 0 -8 -8 -8 -18z"/>
<path d="M9532 1268 c-11 -18 -71 -98 -132 -178 -182 -235 -172 -221 -155
-240 8 -9 15 -22 15 -28 0 -20 -20 -13 -28 8 -5 14 -18 -35 -41 -152 -18 -95
-46 -238 -62 -318 -16 -80 -29 -149 -29 -155 0 -5 50 65 111 155 l110 165 -21
83 c-12 46 -19 86 -16 89 4 5 13 -23 32 -99 6 -29 24 -39 24 -14 0 7 15 62 34
122 19 60 61 199 95 309 34 110 68 219 76 243 17 50 14 53 -13 10z"/>
<path d="M3255 1275 c4 -11 20 -63 36 -115 17 -52 41 -131 55 -175 14 -44 46
-151 71 -237 26 -87 50 -158 54 -158 5 0 24 48 44 108 43 129 40 100 -5 -54
l-33 -112 103 -153 c56 -85 106 -158 110 -162 4 -4 -1 38 -12 95 -10 57 -23
130 -28 163 -17 98 -50 276 -62 330 -10 44 -12 47 -20 26 -5 -13 -11 -21 -15
-18 -3 4 0 19 6 35 12 28 8 34 -86 158 -88 116 -119 157 -201 260 -16 20 -21
23 -17 9z"/>
<path d="M5106 1240 c-91 -45 -139 -97 -115 -126 9 -11 8 -14 -4 -14 -8 0 -17
6 -19 12 -4 12 -51 -19 -142 -94 l-29 -24 19 -30 c20 -30 190 -252 207 -269 6
-7 8 -1 4 15 -3 14 -8 50 -11 80 -5 46 -4 50 5 25 5 -16 16 -56 22 -87 l13
-57 112 91 c67 55 108 95 101 99 -6 4 -9 11 -6 16 3 5 -15 74 -39 153 -25 80
-48 166 -52 192 l-7 47 -59 -29z"/>
<path d="M7634 1233 c-3 -16 -28 -100 -55 -187 -27 -87 -48 -160 -47 -161 2
-2 50 37 108 86 95 82 140 116 140 106 0 -2 -56 -52 -125 -112 -69 -60 -125
-113 -125 -117 0 -4 48 -46 107 -94 l107 -86 12 44 c6 25 16 53 22 64 10 17
11 17 12 1 0 -10 -7 -34 -15 -54 l-15 -36 21 19 c27 24 156 185 193 241 l28
42 -58 55 c-33 30 -61 50 -62 45 -2 -5 -13 2 -24 16 -11 14 -24 22 -30 19 -6
-4 -8 -2 -4 4 9 15 -59 78 -116 108 -60 30 -66 30 -74 -3z"/>
<path d="M5190 1228 c-1 -30 94 -338 101 -331 5 5 14 42 20 83 11 69 10 78 -9
115 -25 49 -112 152 -112 133z"/>
<path d="M7574 1198 c-75 -79 -84 -99 -83 -175 0 -37 7 -84 14 -103 7 -19 14
-31 14 -27 1 8 87 309 96 335 6 18 3 16 -41 -30z"/>
<path d="M6017 1087 c9 -49 33 -93 43 -77 6 10 9 9 16 -2 12 -19 90 -52 107
-45 10 4 16 25 19 64 2 32 4 59 3 60 -1 2 -18 -7 -39 -18 -21 -11 -43 -18 -49
-16 -7 2 6 12 28 22 l40 18 -40 7 c-22 4 -61 10 -87 13 l-47 7 6 -33z"/>
<path d="M6690 1109 c-30 -5 -58 -15 -62 -22 -4 -6 -8 -38 -8 -70 0 -65 -6
-63 83 -29 40 15 52 26 67 60 10 22 15 43 12 47 -4 3 0 10 8 15 19 12 -22 11
-100 -1z"/>
<path d="M9638 1048 c-35 -76 -80 -228 -137 -463 -83 -339 -80 -329 -77 -332
5 -6 124 255 131 287 3 19 22 102 41 184 19 82 33 154 30 160 -2 6 -7 -8 -11
-31 -4 -24 -11 -43 -16 -43 -11 0 -19 31 -14 55 2 11 4 22 4 25 1 3 5 -2 10
-9 8 -12 11 -10 16 10 3 13 7 41 8 61 1 21 6 38 10 38 5 0 5 5 1 12 -4 6 -3 8
3 5 7 -5 8 -20 2 -44 -5 -21 -8 -45 -8 -53 1 -8 7 10 15 40 7 30 11 65 9 77
-2 12 1 23 5 25 5 2 6 9 1 16 -6 10 -12 4 -23 -20z"/>
<path d="M6417 983 c-9 -129 -9 -129 71 -125 103 5 112 8 112 42 0 37 -13 45
-47 27 -16 -8 -46 -23 -68 -33 -22 -10 -43 -20 -47 -22 -5 -2 -8 0 -8 5 0 5
16 17 36 28 36 19 83 71 109 122 8 15 15 22 15 15 0 -7 -9 -31 -21 -53 l-20
-41 23 4 c20 3 23 9 26 59 l3 56 -28 -3 c-57 -6 -118 -6 -134 0 -14 6 -17 -6
-22 -81z"/>
<path d="M6250 1043 c0 -58 21 -93 75 -125 63 -38 72 -56 18 -32 -69 29 -67
29 -60 10 4 -10 7 -22 7 -27 0 -11 100 -12 101 -1 0 4 2 49 4 100 l3 92 -74 0
c-64 0 -74 -2 -74 -17z"/>
<path d="M7431 945 c-33 -65 -43 -74 -190 -181 -56 -41 -81 -73 -81 -107 0
-15 8 -13 58 15 93 51 264 166 255 171 -4 2 -23 8 -40 12 -18 3 -33 11 -33 16
0 11 2 11 58 0 37 -7 42 -6 37 8 -2 9 -9 40 -15 70 -6 30 -11 56 -13 57 -1 2
-17 -26 -36 -61z"/>
<path d="M4719 932 c-25 -20 -89 -71 -142 -112 -53 -41 -97 -77 -96 -80 0 -3
58 -57 127 -120 l127 -115 8 70 c14 131 32 395 27 395 -3 -1 -26 -17 -51 -38z"/>
<path d="M8000 963 c0 -6 -52 -78 -116 -159 -107 -138 -114 -149 -97 -162 42
-31 254 -154 258 -150 9 9 -29 465 -39 476 -3 3 -6 1 -6 -5z"/>
<path d="M8034 893 c3 -43 11 -145 17 -228 6 -82 13 -152 15 -154 6 -7 254
231 249 239 -3 5 -69 56 -146 114 l-141 107 6 -78z"/>
<path d="M4790 947 c0 -9 -6 -83 -14 -164 -23 -235 -27 -293 -18 -293 8 0 172
98 234 141 l37 25 -42 55 c-24 30 -74 95 -111 144 -86 113 -86 113 -86 92z"/>
<path d="M3895 890 c4 -29 12 -109 40 -390 15 -158 24 -200 41 -200 11 0 12
-4 2 -19 -9 -15 -1 -40 48 -150 l59 -131 42 0 c49 0 44 -16 68 204 l16 140
-24 45 c-26 52 -169 311 -246 446 -43 74 -51 84 -46 55z"/>
<path d="M8817 758 c-47 -84 -112 -202 -146 -261 -63 -113 -70 -131 -48 -141
6 -3 3 -4 -8 -3 -24 2 -23 10 -5 -200 l14 -153 42 0 c23 0 46 6 51 13 6 6 35
67 67 135 l56 122 24 218 c36 317 46 416 42 419 -2 2 -42 -65 -89 -149z"/>
<path d="M3260 855 c0 -21 124 -546 148 -625 l16 -55 7 35 c7 34 7 33 6 -10 0
-62 75 -200 110 -200 13 0 23 1 23 3 0 2 -9 43 -20 93 -11 49 -29 132 -40 184
-11 52 -24 111 -29 130 l-8 35 -7 -42 c-4 -24 -13 -46 -19 -50 -7 -4 -8 0 -3
13 4 10 10 49 13 86 l6 67 -55 93 c-31 51 -76 129 -102 173 -25 44 -46 75 -46
70z"/>
<path d="M5340 850 c-24 -6 -24 -7 20 -39 25 -18 77 -51 115 -74 39 -23 77
-46 86 -52 9 -5 30 -18 48 -28 31 -17 31 -17 31 6 0 37 -4 41 -154 154 -50 38
-89 47 -146 33z"/>
<path d="M9490 772 c-24 -42 -66 -113 -94 -157 -55 -88 -57 -97 -44 -255 l7
-85 -14 78 c-7 43 -15 80 -17 82 -3 3 -70 -285 -96 -413 -4 -20 -1 -23 19 -20
17 2 36 25 70 82 42 70 47 84 44 130 -2 46 -2 47 4 11 8 -47 13 -40 41 70 38
154 129 549 127 552 -2 1 -23 -32 -47 -75z"/>
<path d="M3190 829 c0 -37 54 -298 70 -339 27 -69 100 -213 106 -208 4 5 -125
550 -132 557 -2 2 -4 -4 -4 -15 -1 -18 -1 -18 -14 -1 -15 19 -26 22 -26 6z"/>
<path d="M8397 801 c-15 -23 -27 -50 -27 -62 0 -11 32 -73 72 -137 39 -65 80
-132 91 -150 11 -18 21 -31 23 -29 6 6 -72 306 -94 362 -10 27 -24 51 -29 52
-6 2 -22 -14 -36 -36z"/>
<path d="M5220 783 c-99 -82 -150 -127 -150 -133 0 -10 191 -117 270 -150 119
-51 125 -52 151 -24 20 21 21 25 7 46 -136 211 -202 308 -212 307 -6 0 -36
-21 -66 -46z"/>
<path d="M7396 669 l-108 -161 29 -30 29 -29 111 49 c121 54 275 141 271 153
-4 9 -210 179 -217 179 -3 0 -55 -73 -115 -161z"/>
<path d="M3610 806 c0 -7 10 -63 70 -406 23 -126 40 -210 45 -210 7 0 191 83
198 90 8 7 -96 189 -230 404 -82 131 -83 133 -83 122z"/>
<path d="M5394 712 c35 -53 72 -115 84 -138 22 -43 52 -75 52 -55 0 6 6 11 13
11 6 0 29 19 51 42 30 34 35 37 21 13 -10 -16 -31 -40 -46 -53 -32 -26 -36
-48 -15 -77 13 -18 16 -14 46 50 49 109 49 110 -50 167 -47 27 -115 69 -152
93 l-67 45 63 -98z"/>
<path d="M7385 753 c-44 -29 -113 -72 -154 -95 -43 -24 -68 -43 -62 -48 7 -3
9 -13 6 -22 -3 -8 8 -46 25 -84 l32 -69 14 27 c18 33 11 50 -32 83 -19 14 -34
31 -34 38 1 7 8 3 18 -8 9 -11 31 -30 47 -42 l31 -21 97 145 c54 80 96 147 95
148 -2 1 -39 -23 -83 -52z"/>
<path d="M9159 758 c-18 -29 -58 -93 -89 -143 -135 -213 -201 -328 -193 -335
13 -12 196 -91 200 -86 6 6 122 616 117 616 -1 0 -17 -24 -35 -52z"/>
<path d="M4460 719 c0 -34 104 -394 117 -409 3 -3 41 33 84 80 l79 85 -72 68
c-138 130 -208 189 -208 176z"/>
<path d="M8194 603 c-136 -126 -138 -128 -109 -134 17 -4 22 -7 12 -8 -14 -1
-3 -19 49 -76 61 -69 68 -74 79 -57 32 45 132 402 112 402 -2 0 -67 -57 -143
-127z"/>
<path d="M4384 602 c-32 -52 -80 -126 -106 -165 l-48 -72 112 -108 c62 -59
116 -106 119 -105 4 2 29 32 55 68 l47 64 -17 69 c-10 38 -34 119 -53 180 -19
62 -38 123 -42 137 -7 23 -12 18 -67 -68z"/>
<path d="M8354 677 c-2 -7 -31 -97 -63 -200 l-58 -186 25 -38 c14 -21 36 -53
49 -71 l24 -32 27 19 c15 10 69 59 120 108 l92 88 -48 75 c-27 41 -72 114
-101 163 -29 48 -55 87 -57 87 -3 0 -7 -6 -10 -13z"/>
<path d="M4935 574 c-49 -31 -107 -67 -128 -80 l-37 -24 71 -63 c39 -34 88
-75 107 -90 42 -32 46 -29 55 63 3 30 10 80 16 110 17 99 21 140 14 140 -5 0
-48 -25 -98 -56z"/>
<path d="M5056 607 c-9 -43 -46 -295 -46 -310 0 -13 18 -9 94 23 75 31 283
100 303 100 16 0 -12 -19 -35 -23 -23 -5 -179 -61 -332 -119 l-25 -10 23 -18
c13 -10 81 -56 153 -101 l130 -81 85 17 c46 10 84 20 84 22 0 3 -12 24 -26 49
-15 26 -20 42 -12 39 7 -3 21 -20 32 -38 l19 -32 23 125 c13 69 24 130 24 135
0 17 -73 44 -103 38 -21 -4 -26 -2 -22 9 4 11 -16 23 -77 47 -46 18 -129 59
-185 91 -98 56 -103 58 -107 37z"/>
<path d="M5961 608 c-11 -13 -36 -43 -55 -68 -39 -50 -38 -51 37 -63 22 -3 35
-2 32 4 -4 5 -2 9 3 9 6 0 12 -6 15 -14 3 -7 20 -18 37 -25 32 -11 32 -10 26
17 -3 15 -11 52 -17 82 -10 48 -29 79 -52 80 -4 0 -16 -10 -26 -22z"/>
<path d="M6799 619 c-22 -8 -28 -20 -43 -90 -10 -45 -16 -83 -13 -85 9 -9 64
22 61 34 -1 7 0 8 3 2 6 -12 43 -14 43 -2 0 5 12 7 28 5 55 -7 57 10 5 80 -26
36 -50 66 -53 65 -3 0 -17 -4 -31 -9z"/>
<path d="M7650 576 c-47 -29 -129 -70 -182 -91 -54 -21 -98 -42 -98 -46 0 -4
8 -12 18 -18 15 -9 14 -10 -5 -8 -13 1 -23 5 -23 9 0 11 -48 10 -55 -1 -3 -6
4 -15 16 -21 11 -7 18 -14 15 -17 -3 -4 -14 1 -25 11 -22 20 -76 12 -67 -9 2
-7 15 -67 27 -134 l22 -121 23 38 c12 20 25 55 30 76 7 39 5 41 -42 82 -27 24
-46 45 -44 48 3 2 27 -15 53 -39 56 -53 60 -82 22 -163 -14 -30 -25 -58 -25
-62 0 -8 65 -25 132 -34 32 -4 51 4 160 73 172 108 180 113 171 121 -8 7 -232
93 -323 123 -25 9 -38 16 -29 16 24 1 138 -35 257 -81 57 -22 105 -38 108 -35
6 6 -37 320 -45 329 -3 3 -44 -17 -91 -46z"/>
<path d="M7772 558 c5 -40 13 -97 18 -127 6 -30 10 -70 10 -88 0 -33 13 -45
23 -19 3 7 20 24 39 36 30 21 28 18 -12 -23 -24 -26 -39 -47 -33 -47 10 0 195
159 207 178 3 5 -14 19 -37 32 -23 13 -82 47 -130 77 -49 29 -89 53 -91 53 -1
0 1 -33 6 -72z"/>
<path d="M5641 561 c-11 -21 -29 -62 -40 -91 -17 -45 -18 -51 -4 -45 9 3 63
17 120 32 57 14 103 29 103 34 0 5 -10 14 -22 20 -13 6 -46 29 -75 50 -29 22
-54 39 -57 39 -3 0 -14 -17 -25 -39z"/>
<path d="M7116 592 c-3 -5 -35 -29 -71 -53 -36 -24 -65 -46 -65 -49 0 -11 217
-66 226 -57 2 2 -10 39 -28 82 -32 75 -49 97 -62 77z"/>
<path d="M3495 440 c6 -34 79 -372 90 -418 5 -19 11 -23 37 -20 29 3 34 9 55
63 13 32 23 69 23 80 0 18 -172 290 -202 320 -7 7 -8 -2 -3 -25z"/>
<path d="M5813 462 c-13 -2 -23 -8 -23 -13 0 -6 -5 -7 -10 -4 -8 5 -156 -26
-196 -42 -6 -2 -17 -30 -23 -61 -21 -102 -39 -217 -35 -221 5 -5 255 46 262
54 3 3 5 31 5 62 -1 43 1 50 6 28 5 -23 11 -4 23 85 8 63 15 115 14 115 0 1
-11 -1 -23 -3z"/>
<path d="M5856 459 c-4 -14 -21 -138 -30 -217 -4 -36 -2 -41 10 -31 8 6 28 36
45 65 17 30 32 54 35 54 5 0 -50 -106 -68 -132 -7 -9 -10 -19 -8 -21 3 -2 61
-17 130 -34 108 -26 126 -28 134 -15 11 19 2 95 -24 208 -22 90 -22 91 -58
102 -25 8 -38 8 -41 1 -2 -6 -8 -4 -15 5 -16 21 -104 33 -110 15z"/>
<path d="M6830 449 c-36 -12 -70 -22 -75 -24 -17 -5 -65 -225 -58 -270 l5 -40
126 32 c70 17 129 32 131 32 3 1 -7 13 -21 29 -17 17 -26 37 -25 54 1 16 3 28
3 28 1 0 10 -12 20 -27 15 -24 15 -26 1 -14 -27 21 -20 -3 8 -29 l25 -23 0 41
c0 42 -17 184 -26 215 -7 22 -32 21 -114 -4z"/>
<path d="M6964 452 c2 -9 7 -44 11 -77 10 -97 16 -120 27 -104 7 10 8 7 3 -11
-10 -34 -9 -70 2 -81 8 -8 265 -71 269 -66 4 4 -34 216 -46 253 l-12 41 -92
21 c-50 11 -94 18 -98 15 -5 -2 -8 -21 -8 -41 0 -20 -5 -44 -10 -52 -7 -11 -9
-2 -4 30 3 25 7 50 9 57 2 6 -10 16 -26 22 -26 9 -30 8 -25 -7z"/>
<path d="M9201 316 c-112 -168 -114 -174 -77 -251 8 -16 17 -38 20 -47 4 -12
15 -18 35 -18 27 0 30 4 40 47 6 27 29 129 51 227 22 99 39 183 38 188 -2 5
-50 -61 -107 -146z"/>
<path d="M4670 374 l-83 -86 87 -87 c99 -99 74 -99 215 3 45 32 81 62 79 66
-3 8 -187 172 -206 184 -5 3 -47 -33 -92 -80z"/>
<path d="M7939 369 c-57 -51 -105 -96 -107 -100 -2 -3 19 -22 45 -41 110 -79
153 -108 161 -108 12 0 162 154 162 166 0 12 -135 167 -149 172 -5 2 -56 -39
-112 -89z"/>
<path d="M3275 396 c3 -11 10 -40 16 -65 14 -65 68 -248 85 -292 12 -28 21
-36 40 -36 18 0 23 4 20 16 -3 9 -14 48 -24 86 -11 39 -47 124 -81 190 -34 66
-59 111 -56 101z"/>
<path d="M6286 328 l19 -22 -27 16 c-25 17 -26 16 -31 -5 -3 -12 -11 -73 -18
-134 -11 -102 -11 -114 4 -131 9 -10 17 -23 17 -28 0 -5 -5 -1 -11 9 -13 22
-29 13 -22 -12 4 -17 15 -19 89 -20 l84 -1 0 175 0 175 -62 0 -61 0 19 -22z"/>
<path d="M6410 175 l0 -175 53 0 c52 0 54 1 85 45 l32 46 -15 121 c-9 72 -20
125 -27 130 -7 4 -39 8 -70 8 l-58 0 0 -175z"/>
<path d="M4226 308 c-6 -24 -36 -275 -36 -296 0 -8 22 -12 70 -12 58 0 75 4
93 20 12 12 23 16 25 10 2 -6 19 15 38 46 l34 56 -73 67 c-39 37 -89 82 -109
100 -37 32 -37 32 -42 9z"/>
<path d="M8458 233 c-60 -51 -108 -98 -108 -104 0 -5 19 -37 42 -69 l42 -60
89 0 89 0 -6 38 c-3 20 -11 87 -17 147 -7 61 -15 117 -18 126 -5 13 -29 -4
-113 -78z"/>
<path d="M4533 211 c-23 -32 -45 -65 -48 -72 -3 -9 17 -40 51 -77 73 -81 99
-83 161 -15 24 25 43 51 43 57 0 11 -151 166 -160 166 -3 0 -24 -27 -47 -59z"/>
<path d="M8132 185 c-82 -83 -89 -102 -37 -98 16 1 16 1 3 -3 -25 -8 -23 -16
15 -52 48 -47 76 -43 134 19 73 77 73 78 19 153 -26 36 -48 66 -49 66 -1 0
-39 -38 -85 -85z"/>
<path d="M3832 221 c-52 -22 -97 -42 -100 -46 -4 -4 13 -44 38 -91 l45 -84 67
0 68 0 0 38 c0 71 -13 222 -19 222 -3 0 -48 -18 -99 -39z"/>
<path d="M8857 163 c-4 -54 -7 -113 -7 -130 l0 -33 68 0 67 0 40 75 c46 86 44
95 -26 131 -61 31 -115 54 -127 54 -5 0 -12 -44 -15 -97z"/>
<path d="M7795 172 c-9 -42 -20 -90 -26 -106 -21 -67 -27 -65 166 -65 96 0
175 3 175 7 0 3 -16 23 -36 43 l-37 37 -49 -39 c-27 -21 -55 -39 -61 -39 -7 1
3 13 22 28 84 66 79 59 56 76 -11 8 -59 42 -107 76 l-86 60 -17 -78z"/>
<path d="M4899 187 c-120 -83 -125 -87 -114 -95 6 -4 36 -26 66 -50 53 -40 59
-42 122 -42 39 0 67 4 67 10 0 11 -38 185 -46 213 -3 9 -8 17 -12 17 -4 0 -41
-24 -83 -53z"/>
<path d="M5013 224 c3 -11 8 -35 12 -54 3 -19 13 -65 22 -101 l15 -66 32 7
c65 16 186 54 186 60 0 5 -242 160 -263 169 -5 2 -7 -5 -4 -15z"/>
<path d="M7730 210 c-25 -17 -84 -54 -132 -82 -49 -29 -88 -55 -88 -58 0 -4
185 -61 217 -66 6 -1 20 37 33 95 12 53 24 106 27 119 7 29 -3 28 -57 -8z"/>
<path d="M5656 125 c-72 -17 -132 -37 -134 -44 -2 -7 -1 -28 3 -47 l6 -35 90
3 91 3 39 74 c21 41 38 75 37 76 -2 1 -61 -13 -132 -30z"/>
<path d="M5845 139 c11 -13 24 -28 30 -34 5 -5 27 -31 48 -57 35 -44 42 -48
82 -48 42 0 46 2 65 42 11 23 20 45 20 49 0 4 -53 19 -117 34 -65 15 -125 30
-133 33 -11 4 -9 -1 5 -19z"/>
<path d="M6825 128 c-66 -16 -121 -30 -122 -32 -2 -1 7 -23 20 -47 21 -40 27
-44 64 -47 38 -3 43 0 112 74 39 42 71 71 71 65 0 -5 -28 -40 -61 -76 l-61
-65 61 0 61 0 0 43 c0 23 3 59 6 80 8 45 12 45 -151 5z"/>
<path d="M7010 151 c0 -3 17 -37 38 -76 l37 -70 92 -3 c91 -3 93 -2 99 22 15
62 9 67 -133 101 -73 18 -133 29 -133 26z"/>
<path d="M5465 85 c-5 -2 -36 -9 -68 -15 l-59 -12 23 -24 c28 -30 14 -32 -17
-3 -23 21 -24 21 -91 5 -121 -30 -108 -36 75 -36 l173 0 -3 42 c-3 40 -11 51
-33 43z"/>
<path d="M7296 68 c-3 -13 -6 -33 -6 -45 0 -23 0 -23 177 -23 97 0 173 4 168
8 -17 15 -144 44 -162 38 -9 -4 -20 -1 -24 5 -4 6 -30 15 -58 20 -29 4 -60 11
-70 14 -13 4 -20 -1 -25 -17z"/>
</g>
</svg>
