<?xml version="1.0" standalone="no"?>
<!DOCTYPE svg PUBLIC "-//W3C//DTD SVG 20010904//EN"
 "http://www.w3.org/TR/2001/REC-SVG-20010904/DTD/svg10.dtd">
<svg version="1.0" xmlns="http://www.w3.org/2000/svg"
 width="1280.000000pt" height="720.000000pt" viewBox="0 0 1280.000000 720.000000"
 preserveAspectRatio="xMidYMid meet">
<metadata>
Created by potrace 1.16, written by Peter Selinger 2001-2019
</metadata>
<g transform="translate(0.000000,720.000000) scale(0.100000,-0.100000)"
fill="#000000" stroke="none">
<path d="M0 3600 l0 -3600 3209 0 c3201 0 3210 0 3216 20 3 11 11 20 16 20 6
0 6 -8 -1 -20 -10 -19 -8 -20 72 -20 77 1 118 12 118 34 0 16 127 121 178 148
42 22 17 33 -89 40 -167 12 -173 15 -24 14 159 -1 149 -9 119 91 -24 82 -11
86 16 6 13 -40 26 -70 30 -68 4 2 40 86 80 187 40 101 78 189 84 197 6 8 11
21 12 30 1 9 2 29 3 44 1 36 21 25 21 -12 0 -17 11 -38 30 -56 16 -16 28 -30
26 -33 -3 -2 -14 6 -25 17 -28 28 -43 27 -31 -3 5 -13 13 -57 19 -97 6 -41 15
-105 21 -142 8 -57 36 -160 57 -217 3 -8 7 -21 9 -28 9 -47 29 25 39 138 4 41
11 99 16 128 9 46 8 57 -10 90 -21 35 -21 36 -1 13 11 -13 20 -20 20 -16 0 4
15 -15 33 -42 18 -27 75 -98 127 -158 85 -99 127 -147 228 -254 17 -19 32 -38
32 -43 0 -4 1159 -8 2575 -8 l2575 0 0 3600 0 3600 -6400 0 -6400 0 0 -3600z
m5622 3039 c12 -11 120 -79 238 -151 l215 -130 75 11 c41 6 134 20 205 32 72
11 151 23 178 26 26 3 47 10 47 15 0 5 -3 7 -8 4 -4 -2 -18 2 -32 10 -24 12
-24 13 -4 14 12 0 40 -6 62 -14 22 -8 42 -13 44 -11 2 2 9 -4 15 -14 10 -16 9
-20 -8 -24 -11 -3 -25 1 -33 8 -7 8 -16 12 -18 9 -3 -2 -56 -11 -119 -19 -167
-21 -369 -57 -369 -65 0 -3 39 -28 88 -54 48 -26 107 -58 132 -72 25 -14 122
-66 215 -116 94 -50 187 -101 208 -115 l38 -24 -5 38 c-2 21 -8 46 -11 56 -4
9 -4 17 -1 17 7 0 25 -43 31 -73 10 -47 18 -47 120 2 44 21 129 62 189 91
l109 52 -54 22 c-78 33 -499 248 -469 240 14 -4 126 -57 250 -118 124 -61 241
-118 261 -125 38 -14 83 -71 56 -71 -8 0 -18 9 -23 20 -9 18 -14 17 -114 -28
-149 -67 -285 -138 -285 -148 0 -5 34 -31 75 -58 90 -60 378 -236 385 -236 3
0 5 21 5 47 0 60 10 50 14 -13 l3 -49 74 -37 c41 -21 68 -38 61 -38 -7 0 -30
9 -52 20 -53 27 -74 26 -66 -2 3 -13 11 -51 17 -85 11 -60 37 -103 46 -75 7
18 40 15 47 -5 10 -26 -9 -38 -40 -24 l-27 12 6 -73 c4 -40 18 -111 32 -158
13 -47 25 -96 25 -110 1 -63 17 -51 131 102 182 244 191 258 179 273 -8 9 -8
15 0 20 26 16 34 -13 46 -160 3 -44 4 -78 1 -75 -6 6 -21 125 -19 152 2 36
-17 25 -59 -35 -24 -34 -71 -98 -104 -141 -159 -209 -164 -219 -126 -231 21
-6 61 -39 61 -49 0 -4 -15 4 -32 18 -59 44 -60 42 -60 -74 l0 -105 -12 99 -11
99 -57 -69 c-31 -38 -100 -123 -154 -189 -54 -66 -101 -122 -104 -125 -3 -3
-37 -43 -76 -90 -39 -47 -82 -96 -94 -110 -12 -14 -40 -48 -61 -76 -37 -49
-49 -71 -30 -60 4 3 35 8 67 10 59 5 51 -2 -21 -19 l-30 -8 34 -9 c18 -5 31
-11 28 -14 -3 -3 -24 0 -47 6 -26 7 -45 8 -49 2 -3 -5 -15 -6 -25 -2 -27 9
-91 -34 -281 -188 -5 -4 -56 -39 -112 -76 -57 -37 -103 -69 -103 -71 0 -1 14
-5 31 -7 25 -4 30 -2 26 12 -3 12 8 25 34 41 22 13 67 42 100 64 67 44 69 45
119 68 52 25 186 50 265 50 66 0 73 -2 124 -39 88 -64 131 -105 152 -146 11
-21 15 -38 9 -38 -5 0 -16 15 -24 34 -13 32 -85 94 -146 126 -22 12 -24 12
-12 -2 10 -13 10 -17 -3 -22 -8 -3 -15 -10 -15 -16 0 -6 4 -9 9 -5 5 3 12 1
16 -5 4 -6 10 -8 15 -5 4 3 10 -2 14 -10 6 -15 -5 -20 -18 -8 -10 10 -36 13
-36 3 0 -9 39 -23 62 -21 9 1 20 -3 24 -10 4 -8 3 -9 -4 -5 -7 4 -12 3 -12 -3
0 -12 92 -92 104 -91 5 1 13 -4 17 -12 7 -10 11 -11 17 0 6 9 12 6 20 -13 7
-14 12 -31 11 -38 0 -7 -7 2 -14 18 -8 17 -14 24 -15 18 0 -22 -13 -15 -95 52
-87 71 -176 118 -242 130 -34 5 -40 9 -30 19 9 11 18 10 47 -2 65 -27 90 -32
90 -17 0 16 -13 26 -60 42 -46 17 -65 16 -80 -2 -7 -8 -21 -15 -31 -15 -13 0
-19 -7 -20 -22 0 -14 -2 -17 -6 -8 -2 8 -7 22 -10 30 -4 13 -7 12 -18 -4 -8
-10 -19 -15 -25 -11 -8 5 -8 11 1 21 21 25 2 27 -64 5 -75 -25 -118 -66 -137
-131 -7 -25 -17 -49 -22 -54 -4 -6 -8 -16 -8 -24 0 -11 9 -13 39 -8 23 3 42 2
46 -4 3 -5 1 -10 -5 -10 -6 0 -8 -4 -5 -10 7 -12 -7 -13 -20 -2 -6 4 -32 5
-60 1 -27 -3 -41 -7 -30 -7 18 -2 17 -3 -5 -19 -14 -9 -27 -20 -30 -24 -3 -5
-12 -4 -20 1 -11 7 -8 10 12 15 36 9 33 42 -5 62 -16 8 -26 10 -23 4 4 -6 0
-11 -8 -11 -9 0 -13 6 -10 13 3 8 -3 20 -12 28 -16 13 -16 12 -5 -8 6 -13 8
-23 3 -23 -5 0 -7 -15 -6 -32 l3 -33 -10 35 c-26 84 -25 83 -77 75 -90 -13
-259 -48 -442 -91 -93 -22 -101 -25 -96 -33 3 -4 -8 -5 -25 -3 -16 2 -35 0
-42 -6 -6 -5 -32 -21 -57 -34 -107 -58 -396 -221 -408 -231 -23 -18 -31 -16
448 -123 91 -20 167 -39 170 -42 8 -8 -41 2 -472 97 -103 22 -192 41 -197 41
-5 0 -17 -26 -27 -57 -9 -32 -19 -52 -21 -45 -3 7 1 26 7 43 15 34 7 48 -18
33 -9 -6 -69 -38 -133 -72 -63 -33 -153 -83 -199 -111 -46 -28 -89 -51 -96
-51 -31 0 -21 -20 16 -31 53 -16 44 -24 -10 -9 -30 8 -46 8 -53 1 -6 -6 -15
-7 -21 -2 -6 5 -70 -6 -151 -25 -77 -19 -185 -43 -240 -54 -55 -11 -110 -23
-122 -26 -16 -3 -23 -12 -23 -27 -1 -21 -1 -21 -21 6 -11 15 -27 27 -35 27 -9
0 -12 4 -9 10 3 6 14 10 24 10 17 0 18 7 14 88 -3 48 -9 93 -13 101 -5 10 -29
-9 -89 -69 -44 -45 -79 -86 -76 -90 3 -4 -2 -10 -10 -14 -8 -3 -15 -13 -16
-23 0 -16 -1 -16 -8 2 -4 11 -19 23 -32 26 l-24 7 24 1 c19 1 22 5 18 24 -3
12 -15 72 -27 132 -24 122 -38 145 -88 137 -26 -3 -33 -11 -46 -51 -9 -25 -19
-57 -22 -71 -25 -116 -34 -163 -34 -176 0 -9 12 -14 38 -15 l37 -1 -39 -9
c-22 -5 -41 -11 -43 -13 -2 -2 2 -16 8 -32 6 -16 11 -43 10 -61 -1 -17 4 -35
10 -38 8 -6 9 2 4 26 -7 33 -7 34 12 16 11 -9 27 -15 36 -12 21 9 33 -16 15
-29 -14 -10 -13 -18 8 -69 13 -31 33 -73 44 -93 11 -19 16 -33 11 -29 -6 3
-29 39 -52 80 -58 102 -74 106 -65 18 4 -37 20 -122 36 -188 16 -66 34 -153
40 -193 8 -47 17 -75 27 -79 9 -4 13 -14 9 -28 -6 -25 11 -146 23 -158 5 -5
16 11 25 35 9 23 14 32 11 18 -14 -58 -17 -100 -9 -100 5 0 27 11 49 25 22 13
47 24 55 24 10 0 9 -3 -5 -12 -44 -26 -85 -61 -85 -73 0 -11 99 -165 122 -189
6 -7 16 -1 28 15 19 24 19 24 13 2 -3 -12 -9 -25 -14 -28 -19 -12 -7 -24 24
-25 30 0 31 -1 8 -10 -16 -6 -22 -15 -18 -28 4 -17 3 -18 -22 -3 -26 15 -30
13 -100 -27 -40 -24 -93 -52 -117 -62 -24 -11 -44 -24 -44 -29 0 -10 127 -122
193 -169 26 -19 45 -36 42 -39 -2 -2 -32 18 -67 46 -118 94 -173 133 -194 138
-12 3 -55 -3 -95 -14 -85 -23 -186 -39 -134 -21 23 8 40 28 73 90 23 43 42 85
42 93 0 9 9 14 20 13 11 -1 19 -6 17 -12 -4 -10 23 -55 56 -90 13 -15 22 -17
34 -9 9 6 19 16 21 24 3 7 0 10 -7 6 -18 -12 -13 -2 10 18 21 18 22 18 16 -3
-4 -18 -2 -20 21 -14 15 3 58 25 95 47 64 38 66 41 42 47 -14 4 -60 10 -103
14 -160 12 -198 23 -260 75 -31 26 -87 67 -125 93 -37 25 -63 48 -59 51 5 3
12 40 16 83 3 42 11 82 17 88 8 7 9 -6 5 -48 -3 -34 -2 -57 4 -57 6 0 10 6 10
13 0 6 18 46 40 87 115 216 116 217 96 238 -9 11 -29 22 -44 25 -32 7 -97 46
-89 53 3 3 25 -6 50 -20 58 -34 73 -33 81 6 3 17 9 29 12 26 3 -4 1 -22 -4
-42 -9 -32 -8 -36 8 -36 21 0 26 -29 29 -160 0 -47 6 -145 12 -218 13 -150 15
-150 66 -22 44 110 73 205 73 237 -1 15 -7 57 -16 93 -8 36 -16 81 -19 100 -3
19 -14 69 -25 110 -11 41 -24 95 -30 119 -6 23 -13 41 -14 40 -2 -2 -6 -38
-10 -79 -3 -41 -6 -76 -6 -78 0 -2 -4 -1 -9 2 -5 4 -19 -6 -30 -21 -16 -22
-20 -24 -21 -10 0 10 6 20 14 23 8 3 17 12 20 19 4 11 0 12 -17 6 -31 -12
-223 -111 -217 -112 66 -10 77 -19 22 -19 -50 0 -72 8 -72 26 0 8 -4 14 -8 14
-5 0 -54 27 -111 61 -56 34 -113 62 -126 63 -17 1 -25 7 -25 19 0 9 -6 17 -12
17 -8 0 -6 5 4 10 9 6 26 35 37 65 11 30 34 81 50 113 15 31 41 95 56 142 15
47 30 90 35 95 8 10 24 59 40 124 7 28 6 31 -5 20 -17 -19 -85 -149 -85 -164
0 -7 -7 -18 -15 -25 -23 -19 -19 -8 40 116 63 131 66 139 45 139 -8 0 -20 4
-26 8 -23 14 -338 87 -345 80 -4 -5 -15 -51 -24 -103 -18 -108 -32 -173 -34
-149 -1 9 5 52 13 95 27 150 27 156 7 142 -36 -26 -182 -164 -197 -186 -14
-22 -14 -23 31 -43 60 -26 58 -34 -3 -10 -26 10 -60 17 -75 16 -22 -3 -26 -1
-17 10 8 9 3 26 -16 64 -28 52 -47 68 -36 29 3 -14 2 -19 -6 -14 -16 9 -16 67
0 63 6 -1 33 36 59 83 59 103 64 100 9 -6 -22 -43 -40 -82 -40 -88 0 -17 43
-106 52 -106 4 0 8 10 9 23 0 20 1 20 8 3 7 -17 9 -16 32 10 13 16 38 38 55
49 17 11 59 46 93 77 l61 57 -49 58 c-27 32 -63 74 -80 93 l-30 35 -1 -32 c0
-18 -7 -50 -15 -70 -8 -21 -22 -69 -29 -107 -8 -38 -20 -74 -27 -80 -8 -8 -10
-6 -6 9 4 11 18 65 32 120 15 55 29 102 31 104 2 2 -1 10 -7 17 -7 9 -7 19 0
33 6 11 11 30 11 43 0 17 3 19 9 9 7 -11 16 -10 47 9 l39 22 -32 -27 c-18 -14
-33 -31 -33 -37 0 -6 26 -42 58 -81 31 -38 63 -77 69 -85 7 -9 16 -13 19 -9 4
4 17 48 30 99 12 51 22 86 23 78 0 -8 -8 -51 -18 -95 -11 -44 -18 -82 -16 -84
4 -3 65 39 202 142 42 31 80 57 84 57 8 0 27 47 31 80 2 14 9 24 16 23 15 -4
15 -3 -4 43 -9 22 -20 53 -24 69 -4 17 -11 39 -15 50 -4 11 4 2 17 -19 25 -43
36 -50 56 -38 14 9 0 46 -41 112 l-21 34 26 -19 c14 -11 34 -35 43 -52 22 -40
53 -69 63 -58 4 4 1 10 -5 12 -7 3 -13 13 -13 24 0 11 -6 22 -13 25 -7 2 -31
30 -53 60 -21 31 -50 67 -63 81 -13 13 -21 26 -19 29 6 5 51 -36 64 -58 22
-37 103 -117 107 -105 3 6 6 2 6 -10 1 -24 38 -40 67 -29 13 5 14 15 9 49 -4
23 -14 57 -21 76 -8 19 -12 36 -9 39 2 3 7 -3 11 -12 3 -9 10 -16 15 -16 5 0
2 14 -6 31 -9 17 -14 33 -11 37 3 3 6 0 6 -6 0 -7 7 -12 16 -12 14 0 16 -7 11
-40 -3 -22 -2 -40 2 -40 5 0 8 -13 9 -29 1 -36 71 -191 86 -191 7 0 16 -12 22
-27 8 -25 10 -26 26 -9 25 24 42 94 28 111 -8 9 -6 14 9 18 11 2 29 24 41 48
21 44 21 44 14 9 -3 -19 -11 -40 -16 -47 -14 -18 7 -25 44 -15 18 5 39 7 46 4
7 -2 23 -1 36 2 19 5 23 12 22 38 -1 18 -7 43 -14 55 -19 34 -14 38 12 10 27
-30 61 -27 87 6 17 20 17 20 24 -3 8 -24 4 -24 126 -4 l36 6 -36 66 c-19 37
-40 72 -45 78 -6 7 -22 26 -36 43 -21 26 -26 28 -40 17 -14 -12 -74 -36 -89
-36 -3 0 19 13 49 29 30 15 56 35 58 42 1 8 -10 22 -26 31 -16 10 -45 35 -64
57 l-36 39 -21 -72 c-23 -75 -49 -138 -50 -121 -1 6 10 43 24 83 27 80 30 102
15 102 -5 0 -10 -4 -10 -8 0 -5 -17 -16 -37 -26 -61 -28 -113 -68 -113 -85 0
-21 90 -93 107 -87 7 3 13 1 13 -4 0 -6 7 -10 15 -10 12 0 12 -3 -2 -19 -17
-17 -19 -17 -33 -1 -32 38 -126 106 -139 102 -11 -4 -12 0 -5 14 5 11 11 91
14 179 l6 160 2 -147 c2 -137 3 -148 21 -148 10 0 24 7 31 15 7 8 18 15 24 16
6 0 36 17 66 37 55 37 61 47 125 187 13 28 31 72 40 98 28 78 11 73 -53 -17
-23 -33 -42 -55 -42 -50 0 8 103 161 127 189 19 21 47 75 42 79 -6 6 -230 -11
-252 -19 -8 -4 -18 -2 -22 4 -3 6 2 11 12 11 10 0 56 4 103 10 47 5 105 10
129 12 29 1 45 7 48 18 3 8 9 24 13 35 22 54 39 122 55 221 9 60 23 129 30
154 7 25 16 58 19 74 l7 29 -25 -17 c-31 -20 -34 -7 -5 20 38 34 40 57 14 146
-14 46 -29 92 -34 103 -5 11 -24 67 -43 124 -18 58 -38 106 -43 108 -12 4 -25
-25 -69 -153 -36 -105 -65 -176 -65 -159 -1 6 6 30 15 55 18 52 27 107 15 94
-5 -5 -20 -27 -35 -49 -14 -22 -26 -35 -26 -29 0 6 18 39 40 73 60 93 101 173
98 191 -3 14 23 45 63 74 8 6 29 31 46 56 17 25 46 61 63 80 l32 35 -34 -45
c-44 -60 -88 -125 -88 -132 0 -5 493 240 663 330 43 23 85 42 93 42 8 0 14 6
14 14 0 8 11 13 28 13 15 0 63 14 107 31 139 54 627 223 632 219 4 -5 -18 -13
-312 -117 -363 -128 -378 -134 -382 -147 -3 -7 12 -16 34 -21 21 -5 115 -28
210 -51 l172 -41 48 52 c76 83 178 185 162 163 -7 -11 -42 -51 -77 -90 -35
-38 -73 -82 -85 -99 l-20 -29 64 7 c63 7 486 65 623 86 38 6 75 14 83 19 16 9
-13 30 -202 146 -60 37 -133 83 -162 101 -28 19 -57 34 -63 34 -6 0 -23 -14
-37 -30 -14 -17 -28 -29 -30 -26 -3 3 2 13 11 22 18 17 17 39 -1 39 -6 0 -15
3 -19 8 -4 4 16 7 43 7 38 0 58 -6 75 -21z m4110 -709 c34 -16 68 -30 73 -30
6 0 34 -23 64 -50 30 -28 50 -50 44 -50 -5 0 -20 12 -34 26 -51 55 -65 56
-182 21 -59 -18 -106 -35 -104 -39 1 -4 77 -83 170 -176 92 -94 167 -175 167
-180 0 -6 -80 71 -177 170 -138 139 -182 178 -198 175 -27 -7 -298 -126 -308
-136 -5 -5 58 -29 140 -55 81 -26 237 -77 347 -113 205 -67 219 -69 210 -19
-2 11 1 8 7 -9 7 -16 16 -33 21 -36 14 -9 228 76 228 90 0 5 -99 101 -245 236
-30 28 -32 32 -10 17 17 -11 84 -71 149 -134 66 -62 132 -118 148 -125 28 -12
41 -27 13 -17 -8 4 -15 3 -15 -1 0 -4 27 -57 60 -117 34 -61 59 -112 57 -114
-2 -2 -16 20 -32 48 -35 66 -106 188 -110 188 -1 0 -33 -13 -71 -28 -38 -15
-88 -34 -111 -42 -24 -7 -43 -16 -43 -19 0 -12 379 -258 422 -273 14 -6 15 -2
7 25 -5 18 -9 41 -8 52 1 29 70 -203 73 -245 3 -43 53 -269 71 -325 10 -32 65
-276 65 -291 0 -2 -4 -4 -9 -4 -5 0 -13 26 -19 58 l-9 57 -2 -52 c0 -28 4 -55
9 -58 6 -3 10 -18 10 -33 0 -15 9 -60 20 -101 11 -41 20 -79 19 -85 -1 -16
-47 125 -49 149 l-1 20 -8 -20 c-11 -27 -43 -216 -38 -222 8 -7 93 39 105 57
8 14 5 41 -14 116 -28 115 -26 104 -16 104 5 0 13 -21 19 -47 l10 -48 3 70 c3
66 3 63 14 -50 15 -173 13 -293 -7 -335 -27 -59 -40 -156 -26 -197 14 -45 20
-174 8 -189 -7 -9 37 -126 196 -509 18 -44 47 -109 64 -144 18 -38 31 -79 30
-100 0 -20 -3 -30 -6 -23 -2 6 -9 12 -15 12 -11 0 -157 -107 -169 -124 -4 -5
-15 -5 -25 -1 -13 5 -15 9 -6 12 6 3 12 8 12 13 0 8 -95 65 -135 80 -20 8 -22
6 -17 -12 3 -14 1 -19 -6 -14 -7 4 -12 -8 -15 -36 -2 -24 -3 0 -2 52 1 52 -2
106 -6 120 -5 19 -7 14 -8 -25 -1 -27 -8 -79 -16 -115 -13 -61 -14 -62 -10
-15 3 28 7 82 9 120 l5 70 -10 -55 c-25 -139 -34 -208 -30 -240 l5 -35 6 45
c7 43 7 42 8 -20 3 -112 36 -325 54 -345 5 -6 7 45 4 125 -3 90 -2 120 4 90 5
-25 9 -98 9 -164 1 -132 6 -136 58 -52 24 38 25 39 8 82 -9 25 -18 50 -19 57
-2 6 -8 25 -14 40 -7 15 -15 39 -18 53 -3 13 -12 28 -19 32 -7 4 -16 30 -20
59 -7 56 -9 54 63 68 46 9 40 -2 -9 -15 -34 -9 -38 -14 -29 -26 9 -10 9 -14 1
-14 -16 0 -13 -30 9 -70 l19 -35 2 35 c1 28 4 22 14 -30 21 -99 22 -102 43
-154 21 -55 26 -42 -51 -133 l-38 -45 22 -19 c17 -15 20 -22 11 -31 -9 -9 -12
-8 -12 5 0 23 -37 30 -94 17 -27 -6 -51 -9 -53 -6 -2 2 18 9 46 16 l50 12 -6
71 c-4 40 -12 92 -20 117 l-13 45 4 -50 c2 -27 7 -59 10 -70 4 -11 0 -7 -10
10 l-17 29 -43 -84 c-49 -96 -50 -100 -29 -100 8 0 15 -4 15 -9 0 -5 8 -12 18
-14 9 -2 5 -3 -10 -1 -38 5 -35 -8 10 -50 43 -42 57 -45 66 -13 9 35 7 47 -8
47 -8 0 -17 3 -19 8 -3 4 10 7 29 7 24 0 34 -5 34 -15 0 -9 4 -20 9 -25 15
-17 41 -119 32 -128 -5 -5 -25 3 -45 16 -43 30 -63 26 -97 -19 -42 -54 -110
-126 -116 -121 -2 3 11 21 29 39 42 44 118 135 118 142 0 8 -82 101 -93 105
-5 2 -19 -7 -30 -20 l-19 -24 16 28 c9 15 14 32 11 37 -3 6 -1 10 4 10 6 0 11
9 11 21 0 11 4 18 9 15 4 -3 27 32 49 77 l42 82 -5 120 c-3 66 -8 133 -11 149
-6 26 -8 23 -40 -45 -18 -41 -34 -82 -34 -93 0 -10 17 -33 37 -52 20 -19 34
-36 31 -39 -3 -3 -23 14 -46 38 l-40 44 -68 -101 c-38 -55 -78 -113 -90 -128
-12 -15 -25 -41 -29 -58 -4 -16 -11 -32 -16 -35 -5 -4 -6 1 -3 9 7 19 -7 21
-26 3 -8 -6 -4 0 9 15 19 22 21 30 11 50 -11 22 -10 22 4 4 9 -11 18 -18 20
-15 2 2 25 35 50 72 25 37 62 89 80 116 19 26 43 66 54 87 11 21 36 71 56 109
39 75 42 94 24 128 -10 19 -9 20 4 10 12 -11 16 0 26 77 7 49 10 109 8 132 -4
36 -4 38 3 13 l9 -30 2 35 c9 151 9 170 0 170 -8 0 -16 -63 -11 -92 0 -5 -3
-8 -8 -8 -5 0 -12 -10 -16 -22 -6 -19 -8 -20 -12 -6 -2 9 3 30 11 47 19 35 21
67 5 77 -8 5 -7 9 1 14 13 8 -39 90 -109 170 l-30 35 10 -35 c6 -19 17 -57 24
-83 7 -26 19 -55 25 -63 18 -20 8 -18 -93 22 -50 20 -100 36 -111 36 -12 0
-85 -16 -164 -36 -79 -20 -145 -36 -147 -36 -3 0 -5 -9 -5 -20 0 -13 -7 -20
-20 -20 -22 0 -29 35 -8 42 9 3 3 46 -26 164 -21 87 -40 161 -42 163 -4 4
-250 -42 -354 -66 -14 -3 -23 -3 -20 0 3 4 71 20 150 38 80 17 155 34 168 36
12 3 22 8 22 12 0 7 -40 34 -135 90 -38 23 -77 46 -85 51 -39 25 -211 120
-217 120 -4 0 -23 -15 -43 -32 l-35 -33 33 36 c30 32 31 37 15 43 -15 6 -15 8
-3 16 8 6 10 10 4 10 -7 0 -15 8 -19 17 -4 12 3 9 22 -10 16 -15 32 -27 36
-27 4 0 20 -8 35 -18 67 -46 401 -241 413 -242 3 0 -1 42 -8 93 -7 50 -18 125
-23 166 -14 103 -14 103 -208 181 -45 18 -81 34 -79 36 3 3 137 -47 239 -89
15 -6 29 -9 32 -6 3 2 8 80 12 172 4 92 11 170 15 173 5 3 7 -8 4 -23 -7 -48
-16 -323 -10 -323 6 0 407 209 414 216 4 3 -11 37 -61 139 -39 77 -21 59 23
-24 l34 -63 3 323 c1 177 -1 326 -5 330 -5 3 -86 22 -180 42 -132 26 -173 31
-173 21 0 -11 165 -352 198 -409 22 -39 72 -148 69 -151 -4 -5 -52 84 -173
326 -56 113 -103 203 -104 200 -1 -3 -10 -138 -20 -300 -9 -162 -17 -254 -18
-205 0 50 5 189 12 310 7 121 11 222 9 224 -1 2 -14 -5 -29 -15 -15 -11 -39
-28 -55 -39 -15 -11 -125 -93 -244 -183 -118 -90 -249 -188 -292 -218 -42 -31
-91 -67 -110 -81 -18 -14 -33 -23 -33 -20 0 3 48 41 108 85 170 126 575 434
611 465 19 15 32 30 30 32 -6 5 -397 104 -479 120 -36 8 -77 18 -91 24 -23 8
-32 6 -60 -20 -38 -34 -38 -34 -83 -12 -23 11 -37 25 -41 43 -8 36 -51 57 -64
32 -9 -17 -10 -22 -12 -44 0 -7 -4 -4 -8 7 -8 19 -9 18 -21 -7 -7 -16 -17 -28
-23 -28 -5 0 3 21 18 46 23 40 25 45 9 41 -11 -3 -37 -8 -59 -12 -43 -6 -32 3
30 26 l30 10 -25 20 c-14 11 -45 34 -70 52 -77 54 -323 244 -360 277 -44 40
-36 35 130 -86 74 -54 143 -97 153 -96 9 0 15 -4 11 -9 -7 -11 10 -26 73 -64
l41 -25 34 32 c18 17 32 37 30 44 -2 8 4 14 13 14 8 0 15 5 15 10 0 6 6 10 14
10 7 0 19 7 26 15 9 11 16 12 25 5 17 -14 25 -1 20 29 -4 20 -3 22 3 7 8 -19
9 -19 17 0 16 38 16 57 0 50 -8 -3 -15 -1 -15 4 0 6 -7 10 -16 10 -13 0 -15 6
-10 28 4 15 8 35 9 45 1 9 7 17 15 17 7 0 10 5 7 10 -9 14 31 12 55 -2 27 -17
42 4 29 39 -7 19 -5 23 10 23 21 0 36 16 44 47 7 31 -8 34 -206 38 -95 2 -180
4 -189 4 -10 1 -18 5 -18 11 0 6 78 7 213 4 l212 -5 -34 28 c-19 15 -46 38
-60 51 l-26 23 25 -12 c14 -7 43 -27 64 -46 22 -18 47 -33 55 -33 18 0 310
125 323 138 5 5 -24 15 -64 22 -76 14 -125 28 -98 29 8 0 46 -6 84 -14 38 -8
71 -13 73 -11 2 2 -10 15 -27 30 -17 14 -27 26 -22 26 5 0 15 -7 22 -15 7 -9
26 -25 41 -36 l27 -19 111 32 c61 18 111 35 111 38 -1 3 -31 19 -68 37 -37 17
-64 32 -60 32 3 1 35 -12 70 -29z m-5985 -427 c-10 -28 -11 -46 -3 -62 8 -18
7 -26 -4 -35 -26 -21 -58 -91 -95 -207 -20 -63 -40 -122 -46 -131 -5 -10 -9
-26 -9 -35 0 -10 -7 -31 -15 -46 -8 -15 -17 -45 -21 -65 -5 -31 -4 -35 7 -24
8 7 14 16 14 21 0 4 26 36 57 72 31 35 94 107 138 159 134 156 193 220 198
215 5 -5 -57 -82 -124 -155 -113 -123 -211 -237 -244 -284 -8 -12 -25 -32 -39
-46 l-25 -24 25 -6 c23 -6 23 -6 -8 -18 -27 -9 -33 -16 -33 -39 0 -50 -17 -58
-24 -11 -11 73 -13 129 -4 116 4 -7 8 -24 9 -38 1 -17 3 -19 6 -7 2 9 8 17 12
17 4 0 8 6 9 13 1 20 23 100 34 127 18 43 25 62 62 180 20 63 41 123 46 132 5
9 13 36 16 60 4 24 16 57 26 73 10 17 23 48 29 70 7 22 14 35 16 29 2 -6 -2
-29 -10 -51z m-542 -37 c-38 -18 -113 -53 -165 -78 -52 -24 -115 -53 -139 -63
l-44 -19 7 -111 c8 -142 16 -246 25 -315 l7 -55 48 75 c27 41 53 80 59 85 14
15 -53 -106 -76 -135 -24 -32 -13 -34 58 -10 32 11 60 18 62 16 3 -2 -27 -15
-66 -27 -62 -20 -75 -28 -97 -64 -14 -22 -22 -31 -18 -20 14 41 15 93 5 205
-6 63 -14 159 -17 213 -4 53 -10 97 -15 97 -4 0 -12 -12 -17 -27 -10 -26 -10
-26 -7 10 1 21 7 43 14 50 6 6 11 15 11 19 0 9 37 48 45 48 2 0 2 -7 -1 -15
-8 -21 32 -5 221 84 83 39 155 70 160 70 6 0 -21 -15 -60 -33z m-698 -928 c15
-29 28 -66 28 -83 2 -46 26 -258 32 -275 4 -11 8 -8 13 10 7 23 8 23 9 -8 1
-18 -3 -31 -7 -28 -4 2 -6 -12 -4 -32 4 -34 5 -35 20 -16 14 19 15 19 7 -1
-19 -49 -13 -57 125 -156 74 -54 143 -99 152 -101 13 -2 15 -7 8 -18 -8 -13
-11 -13 -22 2 -7 10 -41 37 -75 60 -34 24 -94 65 -133 92 -54 38 -74 47 -80
37 -5 -10 -10 -4 -15 17 -3 17 -13 36 -21 43 -8 6 -38 41 -66 78 -63 80 -43
67 27 -18 49 -59 73 -77 61 -45 -3 9 -9 44 -11 78 -9 106 -26 240 -32 256 -3
8 -7 27 -9 43 -2 15 -10 38 -18 50 -16 26 -30 67 -22 67 3 0 18 -24 33 -52z
m4457 -724 c23 -47 27 -66 24 -123 l-3 -66 29 -3 c16 -2 32 2 37 10 7 10 9 10
9 1 0 -7 12 -14 28 -14 23 -2 24 -2 5 -6 -20 -4 -23 -11 -25 -51 l-1 -47 -4
41 c-3 34 -8 43 -27 46 -13 3 -30 -1 -39 -7 -13 -10 -14 -18 -6 -49 5 -20 14
-34 20 -31 5 4 9 1 9 -4 0 -6 -4 -11 -10 -11 -16 0 -12 -14 15 -43 14 -15 21
-27 14 -27 -6 0 -22 11 -35 25 -13 14 -26 25 -30 25 -4 0 -24 16 -46 36 -22
19 -59 44 -83 54 -73 31 -236 81 -246 75 -12 -8 -42 22 -34 35 3 5 12 10 19
10 7 0 19 11 26 24 20 38 37 38 65 2 30 -40 31 -46 5 -39 -11 3 -20 9 -20 14
0 10 -36 7 -46 -4 -4 -4 0 -7 10 -7 9 0 15 -4 12 -9 -3 -5 13 -15 37 -23 104
-36 173 -58 180 -58 4 0 7 16 7 35 0 19 5 54 12 79 10 39 9 47 -9 79 -19 31
-20 37 -7 55 8 12 27 23 42 25 15 2 30 5 33 6 3 0 18 -24 33 -55z m-4520 -53
c44 -28 66 -27 66 2 0 12 5 29 11 37 9 14 8 -7 -5 -84 0 -4 21 -15 48 -23 26
-8 46 -17 43 -20 -3 -3 -20 0 -38 6 -53 18 -55 16 -56 -56 -1 -59 -30 -177
-32 -130 -1 26 -31 21 -32 -5 -1 -21 -2 -21 -6 -3 -3 11 -14 32 -24 47 -11 14
-19 33 -19 42 0 9 -4 16 -10 16 -14 0 -13 67 1 76 8 5 10 30 6 78 -4 47 -3 65
4 54 5 -9 24 -26 43 -37z m4594 -445 c-29 -24 -73 -65 -97 -90 -24 -25 -46
-46 -50 -46 -4 0 -15 -15 -25 -32 -11 -18 -34 -48 -53 -66 -18 -18 -33 -40
-33 -48 0 -8 -11 -32 -25 -54 -24 -38 -24 -40 -5 -40 11 0 39 8 62 19 24 10
59 26 78 34 25 11 29 16 15 17 -11 0 -27 5 -35 11 -12 8 -10 10 10 8 59 -3 82
2 104 26 13 14 28 25 34 25 6 0 16 9 22 21 7 11 14 18 17 15 8 -7 -44 -86 -56
-86 -17 0 -91 -80 -97 -105 -3 -14 -12 -25 -20 -25 -8 0 -14 -6 -14 -13 0 -7
-17 -21 -37 -32 -21 -11 -49 -32 -64 -47 -14 -15 -41 -34 -60 -43 -19 -8 -52
-28 -74 -45 -22 -16 -66 -47 -97 -67 -31 -21 -57 -43 -58 -50 0 -22 -17 -22
-71 -3 -29 11 -56 20 -58 20 -2 0 -2 2 1 5 3 3 24 -2 48 -10 53 -19 47 -20 64
14 10 19 12 31 5 38 -7 7 -6 12 5 16 18 7 31 -24 14 -35 -10 -6 -9 -8 4 -8 9
0 21 6 25 13 4 7 35 30 68 50 33 21 81 53 108 72 l47 34 -22 20 c-12 12 -16
21 -9 21 7 0 19 -7 27 -15 14 -13 20 -11 55 17 26 21 39 39 39 55 0 17 5 23
17 21 10 -2 19 4 21 14 3 15 -1 16 -30 7 -18 -6 -43 -13 -55 -16 -13 -3 -23
-9 -23 -14 0 -5 -9 -9 -20 -9 -12 0 -30 -9 -42 -20 -30 -27 -33 -26 -48 20 -7
22 -17 40 -21 40 -4 0 -14 2 -22 5 -14 6 -74 -61 -63 -72 3 -3 19 0 35 6 16 7
40 11 53 9 17 -3 7 -9 -37 -21 -33 -10 -67 -21 -75 -24 -8 -4 -19 -8 -25 -8
-5 -1 -21 -7 -35 -12 -41 -17 -203 -74 -225 -79 -32 -8 93 51 173 80 39 15 72
32 72 37 0 15 -88 49 -126 49 -19 0 -34 4 -34 9 0 5 -13 12 -30 16 -27 6 -44
35 -20 35 5 0 25 13 43 30 28 24 37 27 46 17 6 -8 8 -17 4 -20 -3 -4 -1 -7 6
-7 6 0 11 6 10 13 -3 28 2 37 26 37 19 0 23 4 18 16 -5 15 0 16 40 12 34 -4
47 -2 47 7 0 15 43 45 66 45 11 0 14 5 10 16 -4 11 -2 15 8 11 7 -3 33 8 57
24 56 37 69 37 33 0 -80 -82 -79 -80 -67 -99 8 -12 22 -16 53 -14 44 3 100 26
100 41 0 5 8 7 19 4 12 -3 29 8 55 38 20 23 36 46 36 50 0 4 9 11 20 14 11 3
20 13 20 20 0 8 6 12 13 9 14 -5 39 17 36 32 -1 5 0 25 1 44 2 25 4 29 7 13 6
-29 16 -29 61 2 58 40 59 29 0 -19z m4992 -2860 c0 -13 27 -31 42 -28 7 2 38
-72 38 -92 0 -8 7 -17 16 -20 8 -3 12 -2 9 4 -3 6 4 41 16 80 17 52 27 70 41
70 22 0 23 6 -8 -71 -42 -106 -55 -166 -42 -197 6 -16 12 -22 15 -14 3 7 -1
19 -7 28 -7 8 -10 17 -7 21 4 3 9 -2 13 -11 3 -9 10 -14 14 -11 5 3 6 -4 3
-15 -9 -33 -23 -34 -50 -6 -13 15 -28 24 -33 21 -5 -3 -15 16 -23 42 -8 27
-28 85 -45 131 -29 77 -29 82 -11 82 10 0 19 -6 19 -14z m228 -103 c-6 -7 -8
-20 -6 -29 2 -14 8 -13 38 12 19 16 29 21 22 13 -10 -14 -10 -18 4 -23 25 -10
46 -7 39 5 -4 6 -13 8 -20 5 -7 -2 -12 2 -11 12 0 9 -8 18 -19 20 -44 7 -51
13 -32 23 20 11 77 3 77 -12 0 -5 11 -11 25 -15 13 -3 29 -12 36 -20 9 -11 16
-9 39 16 39 41 71 47 122 20 54 -27 88 -59 87 -79 0 -11 -3 -10 -9 4 -8 22
-40 53 -40 40 0 -5 6 -16 14 -24 7 -9 16 -27 19 -41 6 -23 5 -22 -5 3 -14 32
-28 35 -28 6 0 -11 -13 -34 -30 -51 -36 -36 -37 -38 -6 -38 15 0 33 11 45 26
12 15 21 23 21 18 0 -18 -45 -54 -67 -54 -15 0 -22 -4 -17 -11 11 -18 -36 10
-86 50 -38 31 -50 36 -75 30 -16 -4 -26 -7 -21 -8 4 0 -2 -10 -15 -20 -33 -26
-15 -40 24 -18 l32 17 -25 -21 c-17 -15 -32 -19 -53 -15 -19 4 -26 2 -21 -6 9
-14 -7 -5 -54 30 -22 17 -31 30 -27 41 3 8 3 12 -1 9 -8 -8 -34 16 -34 32 0 6
10 32 22 59 21 44 24 46 34 27 7 -13 7 -26 2 -33z"/>
<path d="M4760 6338 c9 -7 14 -21 12 -31 -2 -9 2 -33 8 -53 7 -19 14 -49 17
-67 3 -18 9 -38 15 -44 6 -7 11 -26 13 -42 3 -45 26 -91 44 -91 9 0 28 -7 44
-15 26 -13 28 -12 43 10 9 14 14 31 11 38 -9 23 9 39 44 42 23 2 35 9 41 24 4
12 16 24 25 28 19 7 44 29 43 38 -1 25 1 28 11 18 8 -8 16 -6 30 8 23 23 24
30 2 22 -10 -4 -14 -2 -10 4 4 7 -19 17 -61 28 -37 10 -105 28 -152 41 -47 12
-98 24 -115 26 -16 2 -41 10 -55 16 -21 11 -22 11 -10 0z"/>
<path d="M5930 6324 c-52 -7 -122 -18 -155 -23 -33 -5 -145 -21 -250 -36 -104
-14 -203 -30 -220 -34 -30 -7 -30 -7 30 -35 134 -63 282 -118 313 -117 17 0
32 -3 32 -8 0 -13 74 15 79 30 2 8 8 16 12 20 5 3 3 20 -4 38 -11 29 -10 34 8
47 36 26 65 28 86 6 21 -23 25 -47 9 -57 -5 -3 -10 -11 -10 -18 0 -6 28 19 63
57 62 69 112 135 105 140 -1 2 -46 -3 -98 -10z"/>
<path d="M6039 6299 c-13 -16 -34 -42 -47 -57 -13 -15 -34 -43 -46 -62 -13
-19 -39 -53 -59 -75 -19 -22 -33 -43 -31 -47 3 -5 -2 -8 -10 -8 -19 0 -22 -26
-3 -28 6 -1 56 -2 109 -3 54 -1 95 -6 92 -10 -3 -5 7 -10 23 -11 65 -4 275 -8
363 -7 52 1 112 1 133 1 22 0 46 -7 57 -17 16 -14 23 -15 34 -6 8 7 20 10 26
6 5 -3 10 -3 10 1 0 11 -40 43 -64 50 -11 4 -33 15 -48 26 -16 11 -32 16 -38
13 -5 -3 -10 0 -10 7 -1 7 -15 20 -33 29 -18 9 -89 48 -160 87 -70 40 -129 72
-131 72 -2 0 -30 16 -62 35 -32 19 -63 35 -70 35 -6 0 -22 -14 -35 -31z"/>
<path d="M4650 6310 c-14 -4 -95 -44 -180 -89 -85 -44 -237 -122 -338 -172
-100 -51 -185 -96 -188 -100 -7 -12 71 -10 248 4 l148 13 91 94 c50 52 127
132 172 178 45 45 79 82 77 81 -3 0 -16 -4 -30 -9z"/>
<path d="M4042 5927 l-124 -9 5 -27 c3 -14 26 -84 52 -156 25 -71 54 -154 63
-184 l17 -53 55 88 c30 49 58 96 62 105 3 9 22 40 41 70 32 51 97 168 97 175
0 6 -136 2 -268 -9z"/>
<path d="M6871 5873 c7 -10 16 -20 19 -23 3 -3 18 -25 32 -50 14 -25 62 -93
105 -151 44 -59 94 -132 112 -163 18 -31 36 -56 41 -56 16 0 141 152 138 167
-3 14 -52 47 -273 181 -175 107 -190 115 -174 95z"/>
<path d="M6838 5854 c-8 -33 55 -721 68 -733 3 -3 20 12 37 34 27 33 174 200
214 243 9 10 -1 30 -48 95 -33 45 -93 132 -134 193 -41 61 -83 119 -93 130
-10 10 -23 28 -29 38 -10 18 -10 18 -15 0z"/>
<path d="M6670 5747 c-25 -28 -54 -60 -65 -72 -11 -13 -46 -51 -77 -86 -109
-122 -118 -133 -118 -141 0 -4 -6 -8 -12 -8 -19 0 -70 -68 -62 -82 4 -6 3 -8
-4 -4 -13 8 -56 -44 -45 -55 4 -4 24 -12 43 -17 19 -6 80 -26 135 -46 91 -31
204 -66 264 -79 l23 -6 -23 26 c-23 25 -23 25 -2 14 12 -6 37 -11 55 -11 18 0
40 -4 48 -10 11 -7 8 -11 -15 -21 -28 -10 -28 -12 -10 -19 11 -5 29 -9 40 -9
20 -1 20 1 8 192 -13 200 -27 328 -45 410 -9 43 -13 47 -38 47 -16 0 -35 6
-42 13 -11 12 -21 6 -58 -36z"/>
<path d="M7275 5508 c-86 -108 -80 -93 -55 -141 27 -52 119 -195 142 -221 19
-21 24 -41 9 -31 -14 8 -136 185 -161 233 -12 23 -26 42 -30 42 -5 0 -18 -12
-30 -27 -12 -16 -51 -61 -88 -101 -84 -94 -136 -161 -130 -167 3 -3 65 -17
139 -31 74 -14 185 -36 247 -49 108 -22 112 -22 112 -4 0 10 -9 28 -20 39 -11
11 -20 28 -20 38 0 15 2 15 11 2 12 -18 10 79 -3 125 -12 42 -45 210 -53 269
-7 55 -14 76 -24 76 -3 -1 -24 -24 -46 -52z"/>
<path d="M4128 5336 c-14 -10 -17 -25 -14 -67 5 -72 4 -69 21 -69 9 0 15 -9
15 -25 0 -16 -6 -25 -15 -25 -17 0 -21 -56 -5 -80 8 -12 10 -11 10 8 0 13 6
22 15 22 8 0 15 5 15 11 0 6 7 9 15 5 10 -4 15 1 16 17 0 21 1 21 9 2 6 -14 9
-3 11 40 3 38 8 59 15 58 15 -3 28 61 14 65 -5 2 -10 10 -10 17 0 8 -17 19
-37 24 -48 14 -54 13 -75 -3z"/>
<path d="M4045 5288 c-4 -18 -8 -40 -9 -48 -2 -8 -6 -33 -11 -55 -4 -22 -9
-55 -11 -74 -1 -19 -10 -38 -18 -43 -9 -5 -16 -18 -16 -29 0 -11 -4 -28 -9
-37 -5 -9 -11 -31 -14 -49 -3 -17 -8 -37 -12 -43 -5 -9 -1 -10 16 -5 27 9 102
56 107 68 2 4 11 7 20 7 15 0 15 2 2 10 -9 6 -10 10 -3 10 8 0 9 8 3 28 -4 15
-11 83 -14 152 -6 127 -17 167 -31 108z"/>
<path d="M5935 5240 c-137 -22 -299 -46 -360 -55 -222 -33 -349 -56 -368 -67
-20 -10 -19 -11 11 -27 18 -9 39 -26 47 -38 19 -28 213 -185 325 -264 25 -18
95 -73 155 -124 118 -97 314 -250 355 -277 14 -9 43 -33 65 -53 72 -67 -7 -11
-204 143 -102 81 -240 188 -306 239 -66 51 -157 124 -203 161 -170 138 -250
194 -263 186 -7 -4 -9 -109 -7 -291 3 -228 7 -286 18 -293 10 -6 11 -12 3 -22
-13 -16 -16 -73 -14 -335 1 -176 3 -203 16 -203 14 0 471 152 815 271 63 22
137 47 163 56 33 11 45 19 37 27 -5 5 -10 15 -10 21 0 5 4 3 10 -5 8 -13 10
-13 14 0 3 8 7 38 9 65 3 43 4 41 5 -17 1 -38 3 -68 5 -68 1 -1 56 -3 122 -6
66 -3 144 -9 174 -14 29 -4 93 -8 143 -9 108 -3 108 -19 4 191 -39 81 -67 143
-61 138 6 -5 41 -69 78 -142 37 -73 78 -146 93 -163 l26 -30 31 36 c18 19 66
75 107 124 41 48 93 109 115 135 137 161 229 273 268 325 24 33 54 69 65 79
12 11 22 24 22 31 0 7 -71 26 -187 49 -371 72 -353 72 -358 13 -2 -18 -10
-104 -19 -192 -8 -88 -21 -225 -27 -305 -6 -80 -15 -163 -20 -185 -10 -46 -10
-51 21 340 11 138 24 283 28 323 l8 72 -170 55 c-94 30 -232 74 -306 99 -75
24 -137 39 -139 34 -3 -9 17 -57 30 -68 3 -3 11 -21 19 -40 23 -60 80 -158 95
-164 8 -3 15 -14 15 -24 0 -10 19 -56 42 -103 51 -101 55 -110 35 -84 -18 25
-100 173 -157 285 -43 84 -90 159 -100 160 -3 0 -4 -21 -3 -47 2 -41 1 -44 -6
-18 -5 17 -9 49 -10 73 -1 37 -4 42 -23 41 -13 0 -135 -18 -273 -39z"/>
<path d="M5109 5115 c-1 -5 -1 -13 0 -17 0 -5 -4 -8 -10 -8 -5 0 -8 -4 -5 -9
8 -12 -20 -22 -39 -15 -8 4 -15 15 -15 25 0 15 -6 18 -27 14 -16 -2 -73 -7
-128 -10 -167 -9 -214 -18 -214 -43 0 -9 -3 -181 -7 -381 -4 -246 -3 -361 4
-357 6 3 12 -2 14 -11 2 -13 9 -7 24 22 25 49 61 113 126 224 29 49 48 92 45
103 -3 10 -1 21 4 24 5 3 7 10 4 15 -3 5 1 6 10 3 20 -8 39 14 71 86 14 30 40
78 57 105 50 78 54 87 83 144 20 42 24 58 16 75 -6 11 -11 17 -13 11z"/>
<path d="M5139 5032 c-41 -50 -89 -132 -189 -327 -25 -49 -68 -124 -95 -165
-27 -41 -76 -127 -108 -190 -32 -63 -64 -121 -70 -129 -8 -10 -9 -15 -1 -18 6
-2 35 -19 65 -39 30 -19 81 -49 114 -66 33 -17 72 -39 86 -49 14 -10 70 -43
124 -74 74 -42 101 -52 107 -43 4 7 6 56 3 108 -3 52 -7 299 -9 548 -2 249 -6
455 -8 457 -2 3 -11 -3 -19 -13z"/>
<path d="M4606 4954 c-8 -16 -15 -23 -16 -16 0 17 -20 15 -20 -2 0 -7 -7 -20
-16 -27 -14 -12 -14 -14 3 -20 16 -7 16 -8 -3 -8 -19 -1 -21 -5 -16 -52 3 -32
12 -59 23 -70 11 -11 19 -22 19 -26 0 -11 48 -32 55 -25 9 9 5 246 -4 261 -7
11 -12 7 -25 -15z"/>
<path d="M4049 4921 c-20 -9 -44 -22 -52 -30 -9 -7 -21 -10 -26 -7 -6 4 -17
-4 -26 -18 -14 -21 -15 -35 -4 -105 10 -75 29 -120 29 -72 0 12 5 21 11 21 5
0 7 -5 3 -12 -4 -7 -3 -8 4 -4 6 4 9 13 6 20 -3 7 2 19 11 26 8 7 15 18 15 24
0 7 9 30 20 53 16 34 51 125 46 122 0 0 -17 -8 -37 -18z"/>
<path d="M3866 4731 c-14 -32 -32 -76 -40 -97 -7 -22 -30 -72 -50 -113 -20
-41 -34 -77 -30 -80 3 -3 8 -1 12 5 4 6 18 17 32 24 13 7 52 35 87 62 49 39
63 56 63 76 0 38 -32 182 -40 182 -4 0 -19 -26 -34 -59z"/>
<path d="M4355 4715 c-60 -26 -251 -103 -302 -121 -56 -20 -67 -38 -30 -50 31
-10 277 -131 436 -214 74 -39 136 -68 140 -65 3 3 0 9 -7 14 -7 4 -12 18 -11
32 1 35 -8 67 -35 123 -31 64 -91 209 -106 259 -13 41 -32 46 -85 22z"/>
<path d="M3840 4489 c-47 -33 -89 -67 -93 -75 -6 -11 7 -30 48 -70 30 -30 60
-52 65 -49 5 3 19 38 31 78 11 40 29 96 40 125 13 37 15 52 6 51 -6 0 -50 -27
-97 -60z"/>
<path d="M6255 4240 c-22 -4 -75 -48 -190 -160 -88 -85 -198 -192 -245 -237
-46 -45 -82 -84 -79 -87 2 -3 38 4 79 14 41 11 136 31 210 45 74 15 162 32
195 39 68 14 65 7 52 141 l-7 70 20 -89 c11 -49 22 -91 24 -94 11 -10 210 122
334 220 36 29 82 63 101 75 24 15 30 24 20 27 -17 6 -330 35 -419 38 -36 2
-79 1 -95 -2z"/>
<path d="M3880 4230 c0 -10 30 -54 93 -137 15 -19 27 -39 27 -44 0 -4 17 -13
37 -20 35 -11 38 -10 60 16 l24 28 -5 -42 c-5 -43 10 -61 51 -61 10 0 29 -6
43 -13 14 -8 40 -19 58 -25 l33 -11 -41 76 c-87 159 -112 188 -172 198 -24 4
-68 13 -98 20 -105 25 -110 26 -110 15z"/>
<path d="M6050 4184 c-69 -24 -280 -96 -470 -160 -190 -64 -349 -119 -354
-122 -5 -3 0 -12 10 -19 17 -14 16 -14 -13 -8 -36 7 -36 8 -48 -125 -9 -99
-15 -143 -20 -167 -3 -13 -8 -48 -11 -78 -6 -51 -5 -55 12 -48 37 14 134 80
127 86 -3 4 2 7 11 7 17 0 95 38 106 51 3 4 15 9 28 13 12 4 19 12 16 18 -4 7
-2 8 4 4 6 -3 53 15 104 41 111 56 106 52 88 63 -11 7 -5 10 20 10 31 0 49 13
145 102 61 57 162 155 226 218 64 63 130 125 145 137 43 32 15 27 -126 -23z"/>
<path d="M4549 4196 c-4 -4 -240 -15 -322 -16 -45 0 -48 -1 -42 -22 11 -36
123 -208 166 -255 22 -24 39 -49 39 -58 0 -8 5 -15 11 -15 5 0 7 5 4 10 -3 6
-2 10 3 10 5 0 29 26 53 58 24 31 47 62 51 67 5 6 -11 -30 -36 -78 -58 -113
-53 -119 125 -152 131 -23 127 -24 121 36 -6 65 13 59 22 -6 4 -25 9 -45 12
-45 22 0 384 161 384 171 0 4 -17 17 -37 30 -21 12 -83 50 -138 84 -55 33
-111 66 -125 73 -14 7 -52 29 -85 49 -33 19 -72 36 -87 37 -15 0 -30 7 -33 14
-4 11 -75 18 -86 8z"/>
<path d="M5035 3821 c-145 -62 -172 -77 -185 -101 -6 -11 -18 -20 -28 -19 -14
0 -14 2 3 9 11 5 15 9 8 9 -19 1 -43 -11 -43 -22 0 -6 3 -8 6 -4 4 3 21 -5 39
-18 17 -14 35 -22 40 -17 5 4 5 1 1 -6 -5 -7 2 -15 17 -21 13 -5 27 -16 30
-25 4 -9 13 -13 22 -10 10 4 13 2 10 -7 -3 -8 5 -20 17 -28 21 -13 22 -13 9 2
-10 13 -10 17 -1 17 6 0 14 -9 17 -20 3 -11 9 -20 14 -20 4 0 23 -13 41 -30
18 -16 38 -30 44 -30 10 0 22 57 30 145 1 11 4 34 8 50 3 17 8 55 11 85 3 30
8 67 11 83 3 15 2 27 -3 26 -4 -1 -57 -22 -118 -48z"/>
<path d="M4430 3739 c0 -6 5 -20 11 -31 9 -16 8 -22 -2 -29 -9 -5 3 -8 30 -6
30 1 46 -2 49 -12 3 -9 -1 -11 -17 -6 -11 3 -29 4 -40 0 -16 -5 -18 -13 -14
-68 4 -52 2 -66 -14 -84 -11 -13 -23 -20 -27 -16 -3 3 -6 -1 -6 -10 0 -11 9
-17 23 -18 12 -1 29 -2 37 -3 14 -1 36 17 135 109 23 22 64 60 90 84 62 58 52
66 -98 86 -140 18 -157 18 -157 4z"/>
<path d="M4744 3658 c-4 -13 -8 -59 -10 -103 -4 -119 -3 -113 -19 -91 -13 17
-14 16 -20 -16 -4 -18 -5 -38 -4 -43 1 -6 -3 -23 -10 -40 -7 -16 -15 -44 -17
-61 -2 -17 -11 -47 -19 -67 -31 -75 -24 -74 178 40 87 48 170 94 185 102 15 8
29 17 32 21 3 4 16 11 29 15 16 5 20 10 11 15 -6 4 -12 11 -12 16 0 16 -91 74
-115 74 -13 0 -23 5 -23 11 0 23 -149 149 -176 149 -1 0 -6 -10 -10 -22z"/>
<path d="M3096 3661 c-3 -4 -66 -50 -141 -101 -74 -51 -133 -95 -131 -97 10
-10 363 -92 377 -88 14 5 15 11 4 58 -7 28 -20 70 -30 92 -17 39 -21 48 -45
113 -12 32 -24 40 -34 23z"/>
<path d="M4145 3280 c-27 -3 -62 -12 -77 -20 -26 -12 -28 -18 -28 -70 0 -65 9
-120 20 -120 11 0 220 200 220 211 0 10 -59 10 -135 -1z"/>
<path d="M4373 3263 c-7 -2 -13 -11 -13 -19 0 -8 -4 -14 -8 -14 -15 0 -68
-138 -57 -149 3 -2 44 8 93 24 48 15 103 31 122 35 19 4 27 8 18 9 -10 0 -17
4 -15 9 1 4 -20 29 -47 56 -44 43 -51 46 -57 30 -7 -17 -8 -17 -8 4 -1 22 -5
25 -28 15z"/>
<path d="M4265 3228 c-22 -18 -71 -63 -109 -100 -38 -38 -74 -68 -80 -68 -7 0
-6 -4 2 -8 11 -8 55 -3 151 16 27 6 36 13 43 37 10 35 36 155 34 155 -1 0 -19
-15 -41 -32z"/>
<path d="M3141 2673 l-34 -4 48 -35 c27 -19 63 -39 82 -46 18 -7 33 -16 33
-20 0 -14 37 -9 50 7 7 8 18 15 24 15 20 0 136 59 136 70 0 5 -11 10 -25 10
-15 0 -25 -6 -25 -14 0 -23 -31 -29 -37 -7 -6 25 -63 34 -79 13 -10 -14 -14
-13 -35 1 -23 16 -61 19 -138 10z"/>
<path d="M3494 2394 c-3 -10 -37 -82 -75 -159 -38 -77 -69 -147 -69 -156 0 -9
8 -23 18 -30 11 -8 47 -35 82 -61 34 -27 66 -48 71 -48 13 0 11 47 -2 55 -6 4
-7 14 -4 24 11 24 6 374 -5 385 -6 6 -12 2 -16 -10z"/>
<path d="M3673 2202 c-12 -42 -36 -115 -52 -162 -38 -104 -39 -117 -9 -96 33
24 41 19 16 -9 -12 -14 -28 -25 -35 -25 -19 0 -16 -18 5 -24 33 -10 293 -37
302 -31 8 5 -55 111 -80 135 -3 3 -16 22 -30 42 -14 21 -30 38 -36 38 -5 0
-23 -13 -39 -30 -45 -46 -52 -35 -10 15 29 36 36 52 32 73 -18 88 -31 138 -36
144 -4 4 -16 -27 -28 -70z"/>
<path d="M9247 5618 c6 -7 61 -83 123 -168 62 -85 116 -157 120 -160 3 -3 9
-12 12 -20 6 -13 151 -216 176 -246 5 -6 26 -36 47 -68 21 -31 42 -53 46 -49
4 4 21 49 38 98 31 93 70 200 116 319 14 38 22 73 18 77 -4 4 -40 19 -80 32
-51 18 -75 21 -82 14 -8 -8 -11 -7 -11 2 0 8 -6 11 -16 7 -8 -3 -13 -2 -9 3 5
8 -468 171 -496 171 -8 0 -8 -4 -2 -12z"/>
<path d="M9162 5516 c-29 -58 -52 -110 -52 -116 0 -5 -4 -10 -9 -10 -4 0 -22
-31 -38 -68 -27 -62 -29 -71 -17 -95 16 -30 9 -57 -15 -57 -9 0 -22 -9 -29
-20 -7 -12 -16 -19 -20 -16 -5 3 -13 -4 -20 -15 -10 -16 -9 -19 3 -19 8 0 15
4 15 8 0 5 23 9 51 11 41 2 57 -3 85 -24 19 -15 32 -30 29 -35 -3 -4 2 -11 11
-14 27 -10 44 -7 44 9 0 12 7 14 28 9 33 -8 52 -22 52 -39 0 -7 33 -22 78 -34
188 -50 302 -71 272 -51 -12 8 -8 10 15 8 17 -2 30 -9 30 -16 0 -8 15 -20 33
-27 17 -8 32 -11 32 -8 0 5 -159 225 -304 420 -33 45 -64 79 -68 77 -5 -3 -8
2 -8 11 0 16 -71 125 -123 189 l-23 28 -52 -106z"/>
<path d="M10006 5369 c34 -43 273 -340 296 -367 15 -18 30 -32 35 -31 12 0 93
106 93 121 0 7 -26 29 -57 49 -32 20 -123 79 -203 131 -184 119 -178 115 -164
97z"/>
<path d="M9937 5293 c-25 -64 -133 -360 -144 -394 -3 -12 16 -20 104 -38 221
-47 245 -50 239 -36 -3 8 -10 33 -16 57 -19 71 -110 359 -134 421 l-22 58 -27
-68z"/>
<path d="M9990 5349 c0 -2 22 -69 49 -149 26 -80 65 -198 85 -262 21 -65 40
-118 43 -118 16 0 153 121 153 135 0 4 -31 44 -69 89 -38 45 -104 127 -148
181 -70 88 -113 135 -113 124z"/>
<path d="M10391 5009 c-23 -29 -41 -56 -41 -61 0 -10 58 -126 95 -188 l26 -45
-5 40 c-3 22 -8 100 -12 173 -3 72 -10 132 -14 132 -5 0 -27 -23 -49 -51z"/>
<path d="M10305 4914 c-11 -13 -44 -43 -72 -65 -29 -23 -51 -45 -48 -49 3 -5
36 -18 73 -30 87 -28 174 -62 186 -72 27 -22 18 2 -40 110 -35 64 -64 120 -64
125 0 14 -15 6 -35 -19z"/>
<path d="M10476 4825 c5 -118 6 -123 53 -289 17 -60 29 -111 26 -114 -2 -2
-18 42 -35 99 -17 57 -34 110 -36 118 -3 10 -27 -7 -75 -55 -38 -38 -67 -74
-65 -81 3 -7 -1 -10 -8 -7 -15 6 -13 11 -86 -203 -27 -78 -54 -151 -60 -162
-18 -35 -16 -34 178 86 138 86 192 123 192 132 0 4 -6 13 -12 20 -11 10 -10
11 3 6 18 -7 18 13 4 158 -6 54 -12 77 -21 77 -15 0 -19 26 -5 32 5 2 -2 54
-15 116 -38 182 -43 191 -38 67z"/>
<path d="M10180 4773 c0 -5 29 -59 65 -122 36 -62 65 -117 65 -122 0 -20 20
-5 90 67 l74 76 -35 18 c-36 19 -234 90 -250 90 -5 0 -9 -3 -9 -7z"/>
<path d="M10168 4473 c1 -159 3 -299 5 -313 1 -16 22 28 56 120 83 222 84 225
62 263 -92 163 -123 217 -124 217 -1 0 -1 -129 1 -287z"/>
<path d="M10428 4237 c-70 -45 -150 -96 -178 -113 l-52 -31 108 -12 c60 -7
131 -17 158 -22 35 -7 52 -6 57 2 10 16 42 222 38 242 -3 13 -31 -1 -131 -66z"/>
<path d="M10595 4069 c-52 -23 -83 -57 -139 -149 -44 -74 -49 -98 -17 -84 9 3
27 7 41 8 26 2 36 29 41 121 2 25 5 12 8 -35 l6 -75 53 103 c29 57 52 109 50
116 -2 10 -13 8 -43 -5z"/>
<path d="M10183 4054 c3 -16 4 -23 1 -16 -8 17 -22 15 -28 -5 -3 -10 -17 -81
-31 -158 -15 -77 -29 -151 -32 -164 -6 -23 -4 -23 33 -17 61 11 104 29 104 43
0 7 5 13 10 13 6 0 9 3 9 8 -7 40 15 58 24 20 4 -12 8 -20 11 -17 6 6 -47 156
-74 210 -12 22 -20 43 -17 45 2 2 27 -45 55 -105 28 -60 55 -112 61 -115 6 -4
9 -1 5 7 -3 9 3 16 15 20 12 3 21 0 21 -6 0 -6 9 -1 20 11 28 30 140 191 140
202 0 11 -32 17 -160 30 -58 6 -120 13 -139 17 -33 6 -34 5 -28 -23z"/>
<path d="M10015 3996 c-199 -105 -249 -133 -252 -143 -2 -5 67 -43 152 -85
l155 -77 6 27 c3 15 10 41 14 57 5 17 18 82 31 145 12 63 29 123 37 133 25 29
3 20 -143 -57z"/>
<path d="M9740 3818 c1 -32 39 -287 46 -310 3 -10 9 -18 13 -18 16 0 47 36 44
51 -5 22 24 43 57 41 37 -3 160 85 139 99 -19 13 -287 149 -294 149 -3 0 -5
-6 -5 -12z"/>
<path d="M10158 3684 c-2 -1 -17 -5 -33 -7 -35 -5 -35 -18 3 -66 37 -46 107
-137 145 -189 37 -51 43 -43 26 35 -7 32 -12 61 -11 66 1 4 -17 26 -40 48 -35
34 -43 48 -43 78 0 30 -4 36 -22 37 -12 1 -24 0 -25 -2z"/>
<path d="M10008 3616 c-31 -23 -74 -58 -96 -77 -21 -18 -56 -43 -77 -55 l-38
-21 177 -117 c98 -65 180 -116 182 -113 2 2 -3 24 -12 48 -9 24 -20 64 -25 89
-20 116 -49 276 -52 282 -1 4 -27 -12 -59 -36z"/>
<path d="M10088 3623 c5 -10 13 -40 17 -68 8 -60 65 -318 71 -324 6 -6 124
111 124 122 0 9 -210 287 -217 287 -2 0 0 -8 5 -17z"/>
<path d="M9804 3398 c6 -38 57 -259 61 -265 2 -4 278 66 283 72 3 3 3 7 1 9
-5 4 -177 116 -278 180 l-74 47 7 -43z"/>
<path d="M10570 3397 c0 -12 -3 -87 -6 -167 l-6 -145 137 -95 c176 -121 188
-130 192 -126 2 2 -24 61 -57 132 -33 71 -60 136 -60 145 0 8 -9 25 -21 37
-25 28 -52 89 -44 102 3 6 1 18 -5 27 -9 15 -10 14 -5 -7 3 -14 -11 6 -32 44
-31 57 -43 70 -65 72 -23 2 -28 -1 -28 -19z"/>
<path d="M10245 3270 l-59 -59 30 -12 c54 -21 137 -49 146 -49 5 0 5 8 0 18
-5 9 -17 50 -27 90 -11 39 -22 72 -25 72 -3 0 -32 -27 -65 -60z"/>
<path d="M10560 2929 l0 -132 118 8 c64 4 140 10 167 14 l50 6 -60 48 c-64 51
-260 187 -269 187 -3 0 -6 -59 -6 -131z"/>
<path d="M10732 2795 c-73 -7 -135 -15 -138 -17 -5 -5 138 -88 152 -88 9 0
142 95 162 115 7 6 -11 5 -176 -10z"/>
<path d="M7003 568 c-18 -46 -37 -101 -44 -123 -6 -22 -15 -42 -18 -45 -4 -3
-12 -22 -18 -42 l-11 -38 34 5 c35 4 91 29 87 39 -5 12 10 36 22 36 21 0 25
14 16 51 -7 26 -19 133 -21 192 0 4 -4 7 -8 7 -5 0 -22 -37 -39 -82z"/>
<path d="M7240 443 c0 -5 -7 -69 -15 -143 -8 -74 -15 -163 -15 -197 0 -35 -4
-63 -10 -63 -5 0 -10 -4 -10 -10 0 -6 77 -10 210 -10 151 0 210 3 210 11 0 7
-12 24 -27 38 -16 15 -97 107 -182 204 -84 97 -155 177 -157 177 -2 0 -4 -3
-4 -7z"/>
</g>
</svg>
