<svg xmlns="http://www.w3.org/2000/svg" width="1706.667" height="960" viewBox="0 0 1280 720"><path d="M0 167.9c0 111.9.3 168.2 1 168.6 2 1.2 4.9-.7 7.9-5.2 1.7-2.6 3.1-4 3.1-3.3q0 1.35 1.5-.6c1.1-1.5 1.7-1.6 2.3-.6.7 1 1.1 1 2.2-.3 1.4-1.6 4.5-2.1 3.5-.5-.3.5.1 1 .9 1 .9 0 1.6-.5 1.6-1.2 0-.6.9-.2 2 1 1.2 1.2 2.5 2.2 2.9 2.2 1.9 0 9.1-7.4 9.1-9.4 0-1.1 1-4.9 2.2-8.4 1.9-5.4 2.7-6.6 5.6-7.8 1.9-.8 4.2-1.4 5.2-1.4 2.3 0 7.8 2.8 8.7 4.4.5.8 2.8 1.8 5.3 2.4 7.3 1.7 11.8 3.7 14.8 6.4 1.5 1.4 5 3.7 7.8 5.1s6.4 4.2 8.1 6.3l2.9 3.6 7.3-1.4c6.5-1.3 9.8-1 7.1.7-.5.3-1 1.2-1 2 0 .9 2 1.5 6 2 5.4.6 6 .9 6 3 0 1.3-.5 2.5-1.2 2.7-.7.3 1 1 3.8 1.7 2.7.7 5.7 1.7 6.6 2.2 1 .5 3.3.9 5.2.9 1.8 0 5.3.9 7.7 2 5 2.2 9.9 2.6 9.9.7 0-3-8.8-12.6-11.7-12.7-1.7 0-6.1-6.7-7.3-11.1-.6-1.9-1.3-6.3-1.6-9.9-.6-7.4-2.4-10.6-2.4-4.4 0 2.2-.4 3.4-.8 2.7-.6-1-.9-21.1-.3-24.6 0-.4.9-.7 1.8-.7 1.1 0 0-1.6-3.3-4.6-2.7-2.6-3.9-4.1-2.6-3.5 1.3.7 4.1 3 6.2 5.1l3.8 3.8 2.2-2.2 2.1-2.1-.7 3c-.4 1.6-1.3 3.9-1.9 5-1.6 2.5-2.8 19.5-1.5 19.5.6 0 1-1.5 1-3.3 0-2.4.3-2.8 1-1.7.5.8 1 3.5 1 6 .1 3.9 2.9 11.7 3 8.2 0-1.9 2-1.4 2 .5 0 2.3 4.2 11.3 7 15.1 1.2 1.6 2.2 3.5 2.3 4.3.2.8 1.4 2.9 2.7 4.7 1.4 1.9 2.5 3.7 2.4 4-.3 2.2 8.2 12.6 9.5 11.7.5-.3 1.3 0 1.7.6.4.8.3.9-.4.5s-1.2-.2-1.2.3c0 .6.4 1.1 1 1.1 1.4 0 3.8 5.2 3.3 7-.4 1.2-.3 1.2.5.1.7-.9 1.1-1 1.7-.2.3.7 1.5.9 2.6.6 1.1-.4 1.9-.2 1.9.4s-.5 1.1-1.1 1.1c-.7 0-.5 1 .5 2.5.9 1.3 1.6 3.2 1.6 4.2-.1 1.7-.2 1.7-1.5-.1-3-4-2.5-.6.8 5 1.9 3.3 3.8 6.9 4.1 8.1.7 2.3 3.6 3.3 3.6 1.2 0-.5.5-.7 1-.4.6.3 1 .1 1-.5s.5-.8 1-.5c.6.3 1 .1 1-.5 0-.7.6-1 1.4-.7s1.7.1 2-.6c.2-.7.5-.4.5.5.1 1 .5 1.8 1 1.8.4 0 .7-1.4.5-3-.4-2.9.8-4 2.1-2 1.1 1.9 2.4 1 3.5-2.3 1-3.2 1-3.2.4.7-.5 3.6-.4 3.8 1.1 2.2.9-.9 2-1.6 2.5-1.6s.9-.8.9-1.8c0-.9.5-3.6 1.2-5.9 1.5-5 .8-6.2-2.3-3.9-1.3.9-3.3 2.3-4.5 3.2s-2.8 1.4-3.5 1.2c-.8-.3.1-1.2 1.9-2.2 1.9-.9 3.5-2.7 3.9-4.1.3-1.4 1-2.3 1.4-2 .5.3 2 0 3.5-.7 1.8-.8 2.5-1.7 2.2-3-.3-1-.1-1.8.4-1.8s.9-.4.9-1c0-.8-6.8 2.6-8 4-.3.4-1.2.9-2 1.3s-2.6 1.5-4 2.4c-2.3 1.7-2.2 1.5.5-2 1.7-2 5.5-5.3 8.6-7.2 3.3-2 5.9-4.4 6.2-5.7.4-1.2.9-1.9 1.3-1.5s1.3.2 2.1-.4c1.1-1 1.1-1.3 0-2.3-.8-.6-2.2-3.8-3.2-7-1-3.3-2.4-7-3.1-8.4-1.1-2.1-1.3-2.2-1.7-.5-.3 1.2-.6.8-.7-1.2-.3-3.3-.5-4-1.5-7.2-.4-1.2-.6-2.4-.4-2.5.2-.2-.6-1.4-1.7-2.7-1.5-1.5-2.2-3.5-2.2-5.9 0-3.3.1-3.5 1.1-1.5.5 1.3 1.6 2.3 2.4 2.3.7 0 1.6.8 2 1.7 1.6 4.8 10 24.2 11.7 27.1 1.7 3 2.3 3.3 4.9 2.8 1.6-.3 3.3-.6 3.8-.6s.9-1 .9-2.1c0-2 .3-2.1 5.3-1.5 2.8.4 5.7 1.4 6.4 2.2.6.9 1.8 1.4 2.5 1.1.7-.2 2.5.7 4.1 2.1 1.6 1.5 2.7 2 2.7 1.3q0-1.35 3-.9c2.2.3 3 .1 3-1.1 0-.9.7-2.9 1.5-4.5 1.7-3.3 1.9-6.8.5-8.2-1-1-1.7-14.1-.8-15 .3-.3.9 2.5 1.3 6.2s1.4 8.2 2.2 10c1.4 2.7 2.3 3.3 6.2 3.9 2.5.3 7.6.5 11.4.5 8.7-.2 10.5.4 10 3.3-.7 4.1.9 4.9 5.5 2.7 8.5-4.1 8.7-4.1 11.2-.8l2.2 3.1 8.7-.7c6.2-.5 9.9-1.4 13.4-3.2 4.4-2.3 4.9-2.3 7.7-.9 3.7 1.9 6.4 2.1 12 .6 2.5-.7 5.1-1.3 5.8-1.3.7-.1 1.5-1.2 1.8-2.5.8-2.9-1.9-6.3-4.4-5.6-1 .2-2.8 0-4.2-.6-2.3-.9-2.1-1 1.8-1l4.3-.1-.7-5.2c-.5-3.8-.4-4.9.5-4.4.6.4.9 1.6.6 2.7-.5 1.4-.2 1.9 1 1.9 1.1 0 1.5.5 1.2 1.4-.4.9-.1 1.3.6 1 .7-.2 1.8.8 2.5 2.3 1.3 2.9 1.7 12.5.4 13.7-1.3 1.3-.9 12.6.4 12.6.7 0 1.5-.6 1.7-1.3.4-.9.8-.8 1.6.3 1.5 2.1.8 3.5-1.7 3.4-1.7 0-1.9.3-1.1 2.2.4 1.3.8 3.6.8 5.1s.2 4.6.5 6.8c.4 3.2.3 3.4-.3 1-.4-1.7-1.3-2.9-2-2.7-.9.2-1.1-.3-.8-1.3.4-.8.2-1.5-.3-1.5-1 0-1.4 2.7-1.3 8.7 0 1.8-.3 3.1-.7 2.8-.5-.3-1.2 3.9-1.6 9.2-1.1 15-1.1 19.8.3 19.6.6-.1 1.4.5 1.7 1.3.5 1.2.1 1.4-1.6.8-1.9-.6-2.1-.4-1.2.7 1 1.4 1 12.1 0 14.9-.3.8-.7 3.1-.9 5s-.4-5.7-.4-17c-.1-11.3.3-24.3.9-29 .5-4.7 1-9.4 1.1-10.5.2-1.8-.5-2-5.8-2.2-3.4-.1-9.6.7-14.2 1.9-8 1.9-8.4 1.9-15 .2-7.5-1.9-10.9-2-12.9-.3-.8.6-1.4.8-1.4.3s-.8 0-1.8 1.2c-.9 1.1-3.6 2.6-5.9 3.3-3.6 1-5.2.8-11.5-1-11.1-3.2-11.6-3.2-14.2-1.6-1.6 1.1-2.2 2.3-1.9 3.9.4 2.2.1 2.3-5.1 2.5-3 .1-5.8-.2-6.1-.7-1.1-1.8-2.2-1.1-3.5 2.1l-1.3 3.1-2-3.8-2-3.9-1 2.9c-.7 2.2-1.2 2.5-1.9 1.5s-.8-.8-.3.7c.6 2.5-1.9 12.9-3.7 15.3-1.5 1.8-8.6 8.7-11.6 11.3-1.1.9-2.3 1.3-2.7 1-.4-.4-1.1.1-1.6 1.1-.6.9-1.7 1.7-2.4 1.7-2.7 0-1.5-2 2-3.4 1.9-.8 3.5-2.2 3.5-3 0-.9.4-1.6.9-1.6s3.4-2.5 6.5-5.6c5.3-5.2 5.6-5.8 5.2-9.5-.2-2.1 0-3.9.5-3.9s.9-.9.9-2.1c0-1.1-.5-1.7-1-1.4-.6.3-1-.2-1-1.2s-1.2-2.6-2.6-3.7c-2.2-1.5-2.8-1.6-3.5-.5-.5.8-.9 2-.9 2.6 0 .7-.5 1.3-1.1 1.3-.8 0-.9-1.1-.5-3.2s.1-3.9-.9-5.5c-.9-1.3-1.3-2.7-1.1-3.2.3-.5-.1-1.4-.9-2.1s-1.5-1.8-1.5-2.6c0-.7-.5-1.6-1.2-2-.8-.5-1 .7-.5 4.4.3 2.9.2 5.2-.2 5.2-.8 0-1.4-1.9-2.7-9.3-.3-1.7-.8-3.9-1.1-4.7-.4-.8-.5-1.9-.4-2.3.1-.5-.3-.6-.9-.2-.5.3-1 0-1-.8 0-1.2-2-2.7-3.6-2.7-.9 0-.3 3.7.8 4.8.7.7 1.3 1.8 1.4 2.5 0 .7.2 2.2.2 3.4.2 1.7.8 2.3 2.5 2.3 2.1.1 2.1.1.4 1.4-2 1.6-3.9 11-2.5 12.4 1 1-4.1 3.2-7.5 3.2-1.2 0-1.7.5-1.4 1.4.3.8.1 1.7-.6 2-.7.2-.4.5.6.5.9.1 1.7-.4 1.7-1.1 0-.6.2-.9.5-.7.2.3.2 1.5-.2 2.7-.3 1.5-1.8 2.6-4.4 3.4-3.2.9-3.8 1.5-3.3 3.1.4 1.1.2 1.7-.3 1.4-.6-.4-2 .5-3.1 1.8-1.2 1.4-2.9 2.5-3.7 2.5s-1.5.4-1.5.8-1.4.9-3.1 1c-4.1.3-4.9.9-4.9 3.3 0 1.1-.4 1.7-1 1.4-.5-.3-1-1.5-1-2.6 0-1-.6-1.9-1.4-1.9-2.9 0-8.1 2.5-10.3 4.9l-2.2 2.6-.1-2.6c0-1.4 1-3.6 2.2-4.8 1.2-1.3 2.1-3.6 2.1-5.1 0-2.2.3-2.6 1.3-1.6.6.7 1.4 2.1 1.7 3.2.4 1.8.5 1.8.6-.1 0-1.1-.6-3.1-1.5-4.4-1.6-2.2-1.6-2.4 0-3.3 1.8-1 2.2-3.8.5-3.8-.5 0-.8-.4-.4-.9 1.1-1.8-4.6-12.1-6.6-12.1-.5 0-.6 2-.4 4.6.3 2.8.1 4.3-.5 3.9-.6-.3-1-.1-1 .5s-1.3 2.5-3 4.3c-3.6 3.8-3.5 3.7-1 6.5l2.1 2.2h-2.4c-1.2 0-2.8-.5-3.5-1.2-.9-.9-1.9-.5-4.4 1.9-1.8 1.7-4.5 3.7-5.9 4.4-2.9 1.5-15.8 12.8-22.7 19.9-2.4 2.5-4.8 4.4-5.3 4.3-.5-.2-.9.3-.9 1 0 .6-1.7 3-3.8 5.2-8 8.6-11.2 12.9-11.2 15.4 0 1.4-.5 3.3-1 4.1-.8 1.2-1 .9-1-1.1 0-4.4 2.2-9.1 6.1-13.4 2.1-2.2 6.9-7.6 10.8-12 3.8-4.4 10.6-11.4 15.1-15.5 9.7-8.9 9.7-9 2.6-21.7-5-8.8-5.9-9.3-11.9-6.3-2.2 1.1-3.3 1.1-4.8.2-1-.7-4-1.2-6.7-1.2-5.5 0-9.2-2.1-9.2-5.4 0-3-4-6.6-7.3-6.6-1.5 0-3.6.9-4.6 1.9s-3 2.2-4.3 2.6c-3.5 1.1-4.8 2.5-4.8 5.1s-2.6 3.8-6.4 2.8c-2-.5-3.1.1-5.6 2.8-1.7 1.8-3.3 4.3-3.5 5.6-.3 1.2-.7 3.3-1 4.7s-1.1 2.5-1.8 2.5-2.9 1.1-4.8 2.4c-3.6 2.5-6.8 2.6-9.6.4-2.7-2.1-9.3 2-9.3 5.7 0 1.3-.7 2.8-1.5 3.5-.9.7-1.3 1.5-1 1.8s-.2 1.3-1 2.2c-1 1.1-1.8 4.7-2.2 9.9-.3 4.4-.9 8.1-1.3 8.1s-1.7.9-3 2c-6.3 5.5-11.6-.8-14.3-17.1-1-5.7-2.3-12.2-2.9-14.4-1.2-4.5-4.2-7.7-6.3-6.8-2.6 1-11.4-1.7-12-3.7-.4-1.1-1.2-1.7-2.1-1.3-1.2.4-1.4 22-1.4 162.9V720h533.9l.7-3.8c.7-4.1 3.3-9.6 3.3-7.2.1.8-.6 3.6-1.4 6.2l-1.4 4.8H637v-30l-2.5-1c-6.3-2.4.9-5.3 8.3-3.4 3.1.9 2.8 2.3-.7 3.5l-3 1.1-.3 12.6c-.4 17.3-.4 17.2 4.3 17.2 3.5 0 3.9-.3 3.9-2.5 0-2.6 1.2-3.4 7-4.9 1.9-.5 1.8-.2-.7 1.1-2.3 1.1-3.3 2.4-3.3 4v2.3h15.4c15 0 15.5-.1 19.5-2.7 3.8-2.5 4.1-2.9 4.1-7.4 0-2.6.4-5.1 1-5.4 1.2-.7 1.4 9.4.2 11.1-.4.6-2 1.8-3.7 2.7-2.8 1.5-1.5 1.6 22.4 1.7h25.3l-.4-4c-.2-2.2 0-4 .4-4 .5 0 .8 1.8.8 4 0 3.3.3 4 2 4 2.5 0 2.7-4.1.5-8.4-1.8-3.3-1.9-3.9-.5-3.1 1.5.9 5.2-.5 4.7-1.8-.2-.7-2.1-1.5-4.3-1.8l-3.9-.6 3.8-.2c6.8-.2 10.1 3 5.1 4.9-2.4.9-2.6 1.4-2 4.8.3 2 .6 4.3.6 4.9 0 1 5.1 1.3 22.1 1.3 12.7 0 21.8-.4 21.5-.9s.1-1.2.9-1.5c.9-.3 1.8.1 2.1.9.5 1.3 11.3 1.5 84.9 1.5 66.5 0 84.5-.3 84.9-1.3.5-.9.7-.9 1.2 0 .4 1 22.3 1.3 104.5 1.3 102.5 0 104 0 102.9-1.9-2-3.9-3.4-2.7 21.5-18.3 6.1-3.9 12.5-8.1 14.2-9.4l3.2-2.5-2.1-5.2c-3.1-7.8-3.4-10-1.3-9.5q1.65.3 3.9 6.9l2.1 6.6 3.3-1.4c2-.8 3.2-2 3.2-3.2 0-1.1.4-2.2.9-2.5.4-.3 1.1-1.9 1.4-3.6.5-2.2 1.2-3 2.8-3s1.9.4 1.4 1.7c-.4 1-1.5 4.3-2.5 7.3-4 11.9-5.8 15.5-7.7 15.8s-4.3-3.2-4.3-6.3c0-.8-.2-1.5-.5-1.5-.2 0-7.3 4.4-15.7 9.8s-17.2 11.1-19.5 12.5c-3.9 2.5-4.1 2.8-3 5.2l1.2 2.5h18.8c10.3 0 18.7-.4 18.7-.8 0-.5 1.2-1.4 2.7-2.1 2.8-1.3 2.8-1.3.9.8l-1.9 2.1h72.3V405h-2.4c-1.4 0-3.7-1.1-5.2-2.5s-2.2-2.5-1.5-2.5c2 0-3.2-8-6.6-10.1-3.8-2.4-4.9-2-5.8 2.1-.4 1.7-1 3-1.4 3-.8 0-3.1 6-3.1 8.2 0 .8-.9 2.7-2 4.1s-2 3.4-2 4.5c0 1.2-.5 2.4-1 2.7-.6.3-1 1.7-1 3.1 0 5.9-7.5 8.3-13.8 4.4-3.4-2.1-7.7-2.6-8.7-1.1-.9 1.6-6.7 4.1-9.3 4.1-3.4 0-8.8-3.8-10.6-7.5-.8-1.7-2-6.7-2.7-11.3-.6-4.5-1.5-8.5-2-8.8s-.9-2-.9-3.9c0-1.8-.6-3.6-1.2-3.8q-1.5-.6 0-.6c2.9-.2.9-2.1-2.2-2.1-3.5 0-6.6 2.1-6.6 4.5 0 .7-1 1.5-2.2 1.9-4.7 1.2-5.5.8-6.2-3.7-1.8-12.4-2.6-13.6-8.7-13.7-4.5 0-8.8 2.1-10.3 5.1-1.1 2.3-7.6 4.6-7.6 2.8 0-.5-1-.9-2.3-.9-1.2 0-4-.9-6.1-2-3.4-1.7-4.4-1.8-7.7-.7-2.2.6-3.9 1.7-3.9 2.3 0 1.6-3.1 2.7-4.3 1.5-.7-.7-.6-1.5.3-2.6.7-.8 1-1.9.6-2.2-.4-.4-1.1-.2-1.5.5-1.5 2.4-6.7 3.1-11.8 1.6-5.8-1.7-7.7-1.2-6.9 1.9.4 1.6-.1 2.7-1.7 3.7-4.3 2.9-5.1 2.9-6.2-.4-.6-1.7-1.7-3.1-2.6-3.1-1.3 0-5.9 4.9-12.6 13.6-1 1.2-.9 2.1.3 4.4 1.8 3.4 1.2 5.5-1.5 5.5-5.3 0-7-2.9-1.8-3.1 2.3-.1 2.6-.3 1-.6-1.3-.2-2.3-.9-2.3-1.5 0-2.5-7.8 9.3-9.4 14.2-3.1 9.6-7.8 19.2-9 18-.7-.7-.6-1.4.2-2.2.7-.7 1.2-2.3 1.2-3.6s.4-2 1-1.7 1-.4 1-1.7c.1-1.3.9-4.8 2-7.8s1.9-7.1 2-9.1c0-2 .3-5.1.6-6.8.5-2.5.9-2.9 2-2 1 .8 1.7.7 2.9-.5.9-.9 2.3-1.6 3.1-1.6 1 0 .7-.8-1.1-2.5-1.4-1.4-2.5-2.8-2.5-3 0-.5 2.4 0 3.8.9.7.4 1.9.3 2.7-.4.8-.6 1.8-.9 2.3-.6 1.2.7 5.5-4 8.1-8.9 1.1-2.2 2.5-4.7 3.2-5.5.9-1.2 1-1.2.4.5-.5 1.6 0 1.4 2.4-.9 3.2-3 4.3-7.3 1.7-6.3-.9.4-1.3-.2-1.2-1.7.1-1.6.6-2.2 1.7-1.9s4.4-2.3 9.4-7.4c5.9-6 7.5-8.3 7.2-10.1-.3-1.5.1-2.2 1-2.2 1 0 1.3-.6.9-1.6-.4-1.2-.2-1.5.9-1.1.8.4 2.1 0 2.9-.8s1.9-1.5 2.4-1.5 1.2-.9 1.5-1.9c.2-1.1 1.9-2.7 3.6-3.5 2.8-1.5 3.1-1.5 3.1-.1 0 .9-.7 1.8-1.5 2.1-.8.4-1.5 1.5-1.5 2.6 0 1-.5 1.6-1 1.3s-1 .3-1 1.3c0 2.6 3.6 3.5 7.1 1.6 3.8-1.9 6.6-1.8 7.4.5.3 1 2.6 2.9 5.1 4.1 3.7 2 4.7 2.1 5.4 1 .6-1 1.2-1.1 2.2-.3 2 1.7 16.7 1.4 20.8-.4 3.4-1.6 3.4-1.6 1-2.5-2.6-.9-1.9-2.1 1.9-3.3 2-.6 2.3-.4 1.8.9-1 2.5 2 2 3.7-.7.8-1.2 1.7-3.3 2.1-4.7 1.7-5.9 3.9-9.1 7.4-10.8 3.3-1.5 3.4-1.7 1.3-2q-2.4-.3-1.8-1.8c.3-.8.1-1.4-.4-1.4-.6 0-1 .4-1 1 0 .5-.7 1-1.5 1s-1.5.5-1.5 1.1c0 .5-.5.7-1.1.4-.5-.4-1.8 0-2.7.8s-3.3 2.2-5.2 3.2l-3.5 1.7 2.3-2.1c2.5-2.5 2.8-3.3.8-2.5-1.9.7-2.5-.6-1.5-3.4.5-1.2 1.7-2.2 2.7-2.2s2.7-.7 3.8-1.5c1-.8 3.4-1.5 5.2-1.5 1.7 0 3.2-.5 3.2-1 0-.6.7-1 1.5-1s1.5-.5 1.5-1c0-.6.7-1 1.5-1s1.5-.6 1.5-1.4c0-2.5 1.6-2.7 4.4-.5 3.6 2.8 7 2.2 7.4-1.4.4-3.2 1.9-3.6 2.4-.5.3 2.4 3.8 3.4 5.3 1.4.6-.7 2-1.8 3.3-2.5 2.5-1.3 2.9-3.1.7-3.1-.8 0-1.5.5-1.5 1 0 .7-.8.6-2.2-.2-2.5-1.3-5.6-1.2-7.5.4-.8.6-2 .5-3.7-.4l-2.6-1.4 4-4.1c3.6-3.8 10.2-6.9 12.1-5.8.4.3 1.3-1.4 2.1-3.7.7-2.4 1.6-4.1 1.9-3.8.4.3 1.6-.3 2.7-1.3 1.3-1.2 2.6-1.6 3.4-1.1.7.4 2.1.9 3.1.9 2.4.2 3.7 2.3 3.6 6 0 2.4-.2 2.6-.8 1.1-.5-1.4-1-1.6-1.5-.8-.4.7-.4 1.2-.1 1.2.4 0-1.8 2.1-4.9 4.7-5.1 4.3-7.5 8.7-4.3 8.1.8-.2 1.1.9 1 3.4-.1 2.1.1 3.8.5 3.8s2.5-1.4 4.6-3.2l3.9-3.2-.7 3.5c-.4 2.3-.1 4.1.7 5.3 1.2 1.6 1.7 1.7 5.8.5s7.4-3.4 7.4-4.9c0-.4.8-1.4 1.8-2.4.9-1 1.7-2.2 1.7-2.7s1.8-.9 3.9-.9c3.1 0 4.6.7 7.2 3.2 4.7 4.7 6.9 10.3 5.7 14.2-.5 1.7-.6 7.2-.3 12.3.6 7.9 1 9.3 2.6 9.8 2.1.7 2.4 1.6 1 3-.6.6 0 1.7 1.5 2.8l2.4 1.8V0H0zM377.3 116c3 1.1 6.3 3 7.3 4.3 1.1 1.2 1.2 1.7.4 1.1-7-5.1-22.7-7.4-30-4.4-3.4 1.4-3.4 1.4-1 2.2 1.8.5 1.5.6-1.1.3-3.2-.5-4.2 0-8.8 4.1-2.8 2.5-6 6.6-7.1 9.1-2.2 5.1-2.6 11.3-.8 13.1.9.9.9 1.2 0 1.2-.7 0-1.2 1.4-1.2 3.5 0 3.2.3 3.5 3 3.6 1.7.1 3.8.2 4.8.2 2.1.2 1.9-3.8-.3-6.3-2.3-2.5-2-4.3.5-3 1.1.6 2 1.6 1.9 2.3-.3 2 2.2 7.5 3.6 8.1q2.55.9 3.9-4.8c.5-1.9.3-3.2-.5-3.6-.8-.6-.5-1.1 1-1.9 1.7-1 2.1-2.1 2.1-6.4l-.1-5.2-3.5 3.8c-4.8 5.2-5.6 3.9-1-1.5 6.7-7.7 6.7-7.8 3.4-7.8-2.1-.1-2.1-.2-.5-1.1 1-.6 2.4-.8 3.2-.5s2.5-.4 3.8-1.5c3.5-2.7 4.2-2.4 1.7.8-1.9 2.5-2 2.8-.5 3.1 2.7.6 4.5-.6 4.6-3 .1-1.3.5-.5.9 1.7s.6 4.3.3 4.7c-.2.5.4.8 1.3.8 1.4 0 1.5.3.6 1.2-1.8 1.8-1.4 3.8.8 3.8 1.2 0 2 .7 2 1.6 0 1.1.5 1.4 1.6 1 .9-.3 2.7-.6 4-.6 1.5 0 2.4-.6 2.4-1.6 0-1.4.3-1.4 1.5-.4 2.5 2.1 1.8 3.7-1.5 3.2-2.5-.3-3.8.3-7.1 3.6-2.3 2.2-3.9 4.5-3.5 5 .5.9 6.2 4.2 7.1 4.2.2 0 .5-1.4.9-3 .8-4.2 2.3-3.7 1.8.6q-.45 3.6.9 4.5c1.1.7.9.9-.7.9s-2 .7-2.1 3.5c-.1 3.1.2 3.5 1.8 3 2.2-.7 2.4-.2.7 2.5-1.1 1.7-1 2.2.1 2.9 1 .7.5 1.7-2.4 4.7-2.1 2.2-3.2 3.1-2.5 2.1 1.4-1.9.8-3.3-.9-2.2-1.6.9-1.4 3 .4 4.5 2 1.6 1.9 3-.1 3-1.2 0-1.5.7-1.2 2.4.3 1.6-.2 2.7-1.6 3.6-1.9 1.2-2 1.1-.8-.2 1-1.3 1-1.9-.3-3.2-2.3-2.3-4.4-2-5.7.9-1.4 3-2.8 3.3-2.8.5 0-1.2.9-2.4 2.1-2.8 1.9-.7 1.9-.9.4-2.2-1.4-1.1-2-.9-4.8 1.6-4.3 3.9-7.5 5.6-8.2 4.4-.3-.6-1.5-1-2.5-1-3.8 0-7-2.2-6.6-4.4.3-1.8-.1-2.2-2.4-2.1-2.4 0-2.6.3-2 2.5 1.1 3.8 4.6 10 5.3 9.3.4-.3 2.4-.7 4.6-.8s4.8-1 5.8-2c1.6-1.7 1.8-1.7 2.1-.2s1.4 2.1 3.5 1.8c.4 0 .7.3.7.9 0 1.3 3.3 1.3 4.7-.1.8-.8 1.1-.4 1 1.4-.1 1.4-.7 2.3-1.4 2-.6-.3-2.2.1-3.5.8s-3.9 1.4-5.8 1.5-4 .3-4.7.3c-1.6.1-2.1 3.2-.9 5.3.8 1.3.7 2.1-.2 3s-1.2.9-1.2-.4c0-.9-.5-2-1.2-2.4q-1.05-.75-.3.6c.5.9.4 1.1-.4.6s-.9-1.2-.3-1.9c1.3-1.7-.4-5.8-2.6-6.4-2.5-.6-7.9-13.3-9.7-22.8-1.1-5.8-1.2-10.5-.5-21.8.5-7.9 1.4-15.6 1.9-17.1 1.7-4.4 5.2-8.5 10.7-12.2 9.2-6.4 21.8-8.1 31.7-4.4m565.9 1.1c17.6 3.8 26.7 14 28.8 32.4.6 5 1.5 12.1 2.1 15.9.9 6.4.8 7.2-1.1 9.8-1.1 1.5-2 3.2-2 3.8 0 1.1-3.5 9.8-7.7 19-1.4 3-3.3 7.6-4.4 10.2l-1.8 4.6 3.6 2.4c2.4 1.5 4.5 4.3 6.5 8.6 2.6 5.6 2.9 7.1 2.4 12-.4 3.2-.9 10.4-1.2 16.1-.4 6.7-.9 9.9-1.5 9q-.9-1.35-.9 3.3c0 2.7.5 4.8 1.2 5 1.7.6-.9 6.8-2.8 6.8-.8 0-1.4.4-1.4 1 0 .5-1 1.4-2.1 2.1-1.8.9-2.4.8-3.1-.5-.5-.9-1.6-1.6-2.3-1.6-2 0-1.9 3.8.1 4.2 1.3.2 1.1.8-1 3.3-1.4 1.6-2.6 3.4-2.6 3.8 0 .9-4.2 7.1-5.2 7.5-.3.2-2.6 2.8-5 5.9-4.1 5.4-4.3 5.9-4.2 12.3.1 3.6.7 7.6 1.3 8.9 1.1 1.9 1 2.5-.6 3.6-1.5 1.2-1.9 1.1-2.4-.3-.8-2.1-.4-14.1.5-17 .4-1.3.3-2.2-.3-2.2-1.3 0-6.6 7.7-7.6 11s-8.2 16.7-11.2 20.7c-2.9 4-2.9 4.5.3 3.7 1.8-.5 3.2 0 5 1.7 1.3 1.2 2.4 1.8 2.5 1.3s.5.2.9 1.6l.8 2.5.1-2.4c.1-1.9.4-2.1 1.5-1.2s1.5.8 2.1-.6c1.4-3.6 2.4-16.4 1.4-19-1.2-3.2-.8-3.7 1.6-1.9 1.7 1.2 1.7 1.8.6 7.2-.8 4.1-.9 8.1-.3 13.4.5 4.1 1 6.6 1.1 5.5.1-1.8.8-2 7.1-2.1 3.9 0 7 .3 7 .8 0 1.6 2.5.7 6.4-2.2 2.2-1.7 4.5-3 5.2-3s1.5-.6 1.7-1.3q.6-1.05 1.2.9c.7 2.2 3.5 2.3 6.2.2.7-.6 3.7-1 6.7-1.1s5.4-.6 5.3-1.1.5-1.1 1.4-1.3c2-.5 3.3 2.5 1.9 4.2-.8 1-.2 1.4 2.7 1.9 10.7 1.9 12.1 1.9 13.9-.3 1-1.1 2.1-1.8 2.6-1.5s2.2.3 3.8-.1c2.3-.5 3-1.2 3-3.1 0-3.3 1.6-3 2.9.6 1 3.1 2.3 3.5 8.6 3.1 1.7-.1 3.5-.9 4.1-1.7.9-1.1 3.9-1.4 13-1.4 10.9 0 12 .2 13.2 2.1.9 1.4 1.9 1.8 3.2 1.4 1.1-.4 2-.2 2 .3 0 2.1 4-.2 5.2-2.9.7-1.6 1.6-2.9 2-2.9.5 0 .8-.5.8-1 0-.6 1.3-3.9 2.9-7.3s4-9.4 5.4-13.2c2.4-6.6 4.1-10.1 11.1-22.4 2.5-4.3 3-6.3 2.9-11.4-.2-11.7.1-11-3.3-10.4-3.9.8-4.2-1.8-.3-2.8 1.9-.5 3.1-.2 3.9 1 .8 1 1.4 1.2 1.9.6.3-.6 0-1.4-.9-1.7-2-.8-1-2.9 2-4.3 3.3-1.4 4.7-1.4 3.8.1-.4.7.3.3 1.4-.9 2.2-2.3 3.3-2.7 9.7-3.9 2.2-.4 4.7-.9 5.5-1.1s4.7-.6 8.5-.9c8.2-.7 14.7-3.2 17-6.7 1.8-2.9 2.1-4.9 1.1-9.2l-.7-3 1.5 2.6c2.1 3.6 1 9.1-2.5 12.7-3.1 3.1-3.6 8.6-.9 8.8 3.6.2 4 .5 4 2.9 0 1.4.5 2.5 1 2.5.6 0 2.4 1.6 4.1 3.5 3 3.4 4.7 4 6.1 2 .5-.6.8-.5.8.4 0 1.1.3 1.1 1.5.1 1.3-1.1 1.4-1 .9.4-.3.9-1 1.6-1.6 1.6-.5 0-.6.5-.3 1.1.5.7 1.3.5 2.4-.5 2.9-2.6 3.2-1.8.5 1.1-1.4 1.5-2.8 4-3.1 5.6-.7 3.5-2.3 1.7-2.3-2.8 0-2.6-.8-3.4-6.6-6.8-3.6-2-7.4-3.7-8.3-3.7-3.2 0-9.1-2.1-8.6-3.1.4-.5-.5-.9-1.9-.9s-2.7.4-3.1 1c-.3.5-1.2.7-2 .3-1-.3-1.5.2-1.5 1.6 0 1.2-.4 2.1-1 2.1-.5 0-1 .4-1 1 0 .5.7.6 1.7.3 1.1-.4 1.4-.3.9.5-.4.7-1.7 1-3 .6-1.4-.3-2.7.1-3.5 1s-1.9 1.6-2.6 1.6-1.9.8-2.6 1.7c-1.3 1.7-1.3 1.7.5.3s1.9-1.4.5.8c-.8 1.2-1.6 1.7-1.7 1.2-.3-.7-.9-.6-2 .2-1.3 1.1-1.4 1-.4-.9 1.8-3.2 1.5-3.8-.8-1.8-1.2 1.1-1.8 2.5-1.5 3.4.3.8.3 1.2-.1.8-.9-.9-5.4 3.2-5.4 4.8 0 1.7-4.5 5.6-5.5 4.8-.5-.5-.4-.1.3.8 1 1.3.8 1.9-.8 3.4-1.1 1-2 2.4-2 3.1s-.9 1.6-2 1.9-2.3 1.7-2.6 3-1.2 2.9-1.9 3.5c-.8.6-1.1 1.8-.8 2.6s.1 1.4-.5 1.4c-1.2 0-2.3 4.2-2.4 9-.1 2-.5 2.9-1.4 2.6-1.4-.5-2.7 3.2-1.6 4.8 1.3 2.1 1 6.6-.4 6.6-.8 0-1.4 1.1-1.5 2.7v2.8l-1-2.4c-.7-1.7-.6-2.8.4-4 2.3-2.7 2.8-4.9.9-4.4-1.7.4-8.7 13.3-7.2 13.3.4 0 1.3-1.4 2-3 .7-1.7 1.7-3 2.2-3 1.4 0-.1 4.2-2.4 6.7-1.3 1.4-1.8 2.9-1.4 3.9s.1 2.1-.5 2.5c-.7.4-.9 1.4-.6 2.4.4.9 1.2 1.3 1.9.9.9-.6.9-.9 0-1.2-.7-.2-1-.8-.7-1.2.6-.9 3.5-.2 4.5.9 1 1.2 5.8 3 6.4 2.4.3-.4.6-1.7.6-2.9 0-3.5 1.6-3.8 6-1.1 3.9 2.3 4.3 3.7 1.1 3.7-.9 0-2.4 1.2-3.4 2.5-1.7 2.3-1.7 2.5.2 3.4 2.1 1.2 6.2 7.6 5.4 8.5-.4.3-1.1.6-1.6.6-.6 0-.7-.3-.4-.6.7-.8-2.3-6.4-3.5-6.4-.4 0-1.3.7-2 1.5-.7.9-1.9 2.2-2.6 3.1-1.2 1.2-1 1.8 1.2 3.5 1.4 1.1 2.4 2.5 2.1 3-.4.5 0 .9.7 1 1 0 1 .2.1.6-.7.2-2.5-.9-3.9-2.6-2.1-2.5-2.9-2.9-4-2-.8.6-1.1 1.6-.8 2.1.4.6-.5.8-2.1.6-1.9-.2-3.1.3-3.9 1.5-.9 1.5-.6 2.3 1.8 4.3 2.7 2.4 3.1 4.9.3 2.6-1.6-1.3-4 1.9-3.1 4.2.3.8.1 1.7-.5 2.1-.7.4-1.1-1.3-1.1-5V379l-2.5 1.6c-1.3.9-2.7 2.4-3 3.4-.4 1.2-1.2 1.6-2.5 1.3-2.2-.6-2.6-1.8-.9-2.8.6-.4.8-1.3.5-2.1s0-1.1.9-.8c1.9.8 2.8-3.1 1.3-5.5-.7-1.2-2.1-2.1-3.1-2.1s-1.6-.4-1.2-.9c.3-.5.1-1.3-.5-1.6-1.6-1 .8-3.5 3.1-3.5 1.6 0 1.8.5 1.3 2.6-1 4.1 1.4 4.8 4.8 1.4 3-3.1 3.7-6 1.3-6-.8 0-1.5.4-1.5 1 0 .5-.4 1-1 1-.5 0-1-.6-1-1.4 0-1.9-2.7-2.8-3.3-1.2-.3.8-1.5 1.2-3 .9-1.7-.3-3 .2-4.3 1.9-1 1.3-2.7 2.7-3.6 3.1-1 .3-1.8 1.5-1.8 2.5 0 2-1.8 4.2-3.4 4.2-.6 0-.5-.5.2-1.2 2-2 1.3-2.8-1.5-1.7-2.5.9-5.4 3.6-9.5 8.7-1 1.2-1.5 2.2-1.1 2.2.3 0-.4 1.2-1.8 2.6-1.7 1.9-2.3 3.6-2.3 6.6.1 2.6-.2 3.5-.7 2.7s-.9-3.9-.9-7c0-7.8-1.5-9-11.7-9.1-4.3 0-8.6.3-9.5.7-1.8.7-10.8-2.4-10.8-3.8 0-.4-1.1-.7-2.5-.7s-2.5.4-2.5.9-1.7 1.6-3.7 2.4c-2.1.8-5.1 2.9-6.8 4.6-3.5 3.6-4.4 3.7-9 1.2-4.7-2.5-6.6-1.8-8.7 3-1.6 3.8-1.8 3.9-6.8 3.9-3.2 0-4.9-.4-4.5-1 .3-.6-.2-1.1-1.2-1.1-1.5-.1-1.5-.2-.2-.6 1.1-.3 1.5-1.2 1.1-2.8-.4-2.1-1-2.5-4.1-2.5-3.9.1-7.7 2.2-6.7 3.9.4.5-.3 1.2-1.4 1.6-1.1.3-2 1-2 1.5 0 .4-1 1-2.1 1.3-1.8.5-2 1.1-1.5 3.4.4 1.5 1.8 3.9 3.1 5.3 2.1 2.3 6.9 9.6 11.3 17.4 1 1.6 3.6 5.1 6 7.8 2.3 2.7 5.3 7 6.7 9.6s3.2 5.8 4 7.2c4.9 9.1 7.4 18.1 6.8 24.3-.4 3.5-.2 5.7.6 6.1.6.4 1.1 1.7 1.1 3 0 1.2.5 2.7 1.2 3.4.6.6.9 1.5.5 1.8-1.1 1.2-4.7-7.9-4.7-11.9 0-5-2-12.9-3.7-14.5-.7-.7-1.3-2.4-1.3-3.7 0-3.3-8.3-19.1-12.9-24.6-2.2-2.5-6.4-8.4-9.5-13.2-3.2-5-6.3-8.8-7.4-8.9-.9 0-2.4-.1-3.2-.2s-1.9-1.9-2.6-4.1c-.6-2.3-1.8-4.1-2.7-4.3-1-.2-1.7-.8-1.7-1.3 0-.9-5.9-3.9-7.5-3.9-.3 0-.5 1.7-.5 3.7q0 3.9-.9 2.4c-.8-1.2-1-1.2-1.4 0-.2.8-.3.6-.1-.4.2-1.6-2.9-11.3-4.1-12.5-.3-.3-.5.4-.5 1.6 0 1.1-.5 2.4-1.2 2.8-.6.4-.8.3-.5-.3.3-.5.9-3.6 1.2-6.9.3-3.2.8-7.3 1.1-8.9.3-1.7.2-2.5-.3-1.9-.9 1.3-4.3 1.5-4.3.2 0-.4.5-.8 1-.8.6 0 1-1.2 1-2.7v-2.7l-2.4 3c-1.3 1.6-3.4 4-4.6 5.4l-2.1 2.5 1.5-3.1c2.1-4.4 6.6-9.5 7.7-8.8.5.3.9-.3.9-1.4 0-2.2 3.3-5.6 4.4-4.5.4.4.4 0 0-1-.3-.9-1-1.5-1.4-1.2-1 .6-2.5-3.4-1.6-4.2.3-.4.6.2.6 1.3 0 1.5.2 1.6.9.5 1.4-2.2-.9-4.1-3.4-2.9-1.2.7-.9 0 1-1.8 1.7-1.6 3.9-2.9 4.9-2.9 1.3 0 2-.8 2.2-2.5.4-2.4.3-2.4-1.1-.6-1.2 1.6-1.5 1.7-1.5.4 0-1-.8-1.4-2.5-1.3-1.4.2-3.7 0-5.3-.5-2.5-.8-2.5-.8 1.3-1.1 2.2-.1 4.5-.3 5.2-.3.6-.1 2.1-1 3.3-2.1 1.8-1.6 2.3-1.7 3.1-.5s1 1 .6-.7c-.3-1.3-.1-2.6.4-2.9s.9.1.9.8c0 1 .3.9.9-.2.6-.8.8-1.7.6-2.1-.3-.3.5-1.5 1.5-2.7 2.1-2.3 2.6-4.7 1.1-5.7-1.6-.9 2.1-6.3 5.4-8 3-1.4 3-1.5.5-1.6-2.3-.1-2.3-.1-.4-.7s7.4-6.2 7.4-7.5c0-.3-1.2-.8-2.7-1.2l-2.6-.6 3.2-3.2c2.7-2.7 3.3-3 4.2-1.7s1 1.3.8 0c-.1-.8.1-2.3.5-3.3 1-2.1 4.1-2.4 3.2-.2-.3.8-.2 1.5.2 1.5 1.1 0 3.8-2 2.8-2-.5 0 .8-1.6 3-3.5 2.6-2.3 3.4-3.4 2.3-3.5-.9 0-2 .7-2.3 1.6-.3.8-1 1.3-1.5.9-.6-.3-1.4.3-2 1.2-1.4 2.6-2.2 1.1-1.5-2.6.5-2.3.9-2.9 1.5-1.9.9 1.3 1 1.1 1.4-2.8.1-1.2 1.2-3.1 2.3-4.2s2.4-3.6 2.7-5.4c.6-3.2.9-3.4 4.1-3 2.1.3 3.4 0 3.4-.7s.9-3 2-5.3c2-4.2 1.9-5.8-.5-5.8-.7 0-1.5 1.2-1.7 2.7-.4 3.7-2.1 3.2-2.9-.8-.4-1.7-1.3-3.5-2.1-4-1.4-1-6-.4-9.3 1.1-1.1.5-3.2 1.4-4.7 2-2.4.8-2.8 1.5-2.8 5 0 2.2-.4 4-1 4-.5 0-1-.9-1-2.1s-.5-1.9-1.2-1.6c-.9.2-1.3 2.3-1.2 6 .1 5.4-.7 7.2-2 4.4-.5-1-.7-1-1.2 0-.3.7-1.7 1.3-3 1.3-1.9 0-2.4.5-2.5 2.7 0 2.8-1.7 7.7-1.9 5.8 0-.6-.6-.3-1.3.6s-2.4 1.9-3.9 2.2c-3.3.9-7 4.6-6.4 6.4.4.9-.4 1.3-2.2 1.3-1.5 0-4.5.9-6.5 1.9-6.1 3.1-7 3.3-6.3 1.5.5-1.4.4-1.5-.8-.5-.8.7-2.1.9-2.7.5-.8-.4-.9-.3-.5.4 1.2 1.9-.3 3.5-2 2.1-1.4-1.1-1.5-1-1.8 1.3-.2 1.7-17.6 7.5-17.6 5.8 0-1 10.5-6 12.5-6 1.6 0 2-1.8.7-3.5-1-1.5-3.2-1.1-7.9 1.2-2.4 1.2-4.3 1.8-4.3 1.4s-.9-.7-2-.8-2 .2-2 .8c0 .5-1.4.9-3 .9-2.9 0-3-.2-1.9-2.3l1.2-2.2-2.4 2c-1.3 1.2-3.6 2.7-5.2 3.5-1.5.7-2.6 2-2.5 2.9.2 1-.6 1.7-2 1.9-1.3.2-2.6 1-2.9 1.8-.6 1.5-3.3 2-3.3.6 0-.5.7-2.3 1.6-4.1s1.7-4.9 1.9-6.9c.1-2 .5-4.8.8-6.2 1.3-5.6 1.7-11.5.7-10-.7 1.2-1 .8-1-1.7 0-2.6-.3-3-2-2.6-1.9.5-1.9.3-.8-2.4.7-1.6 1.8-3.5 2.5-4.3s2.6-3.2 4.3-5.2 4.1-4 5.3-4.4 2.8-1.5 3.5-2.5c.7-1.1 2-1.9 2.8-1.9s1.4-.4 1.4-.8c0-.5.7-1.7 1.5-2.8 1.3-1.7 1.4-1.5.8 3-.4 3.3-.3 4.7.4 4.3.6-.4 1.3 0 1.7.8.6 1.8.1 1.9-2.5.5-1.5-.8-1.9-.7-1.9.5 0 .8.6 1.5 1.3 1.6q1.5 0 0 .6c-1.8.7-1.6 3.2.2 3.9 1.1.4 1.5 2.1 1.5 5.5 0 3.6.4 4.9 1.4 4.9 2 0 3.1 1.9 1.8 3.2-.8.8 0 1.6 2.6 2.9 2 1.1 4.1 1.9 4.7 1.9 1.5-.1 7.5-5.8 7.5-7.2 0-.8.3-.9 1-.2 1.7 1.7 0 5.4-2.6 5.4-1.8 0-2.4.5-2.4 2.2 0 2 .5 2.3 4.3 2.3 4.1-.1 9.3-2.6 11-5.2.4-.7 1.5-1.3 2.3-1.3.9 0 2.2-.7 3-1.5.9-.8 2.7-1.4 4.2-1.4 1.7.1 2.1.3 1 .6-1 .2-1.8.9-1.8 1.4 0 .6-.4.8-.9.5s-1.4.1-2.1.9c-.8 1-.9 1.5-.2 1.5 1.6 0 6.2-2.2 6.2-3 0-1.1 5.3-6.5 8.3-8.3 1.5-1 2.7-2.6 2.7-3.8 0-1.1.5-1.7 1-1.4.6.3 1-.2 1-1.1 0-1 1-2.9 2.3-4.2 1.2-1.4 1.6-2.2.9-1.7-1.2.6-1.2.3-.2-1.5.6-1.2.9-3.3.5-4.7-.5-2.1-.3-2.4 1.8-2.1 3.8.5 5.7-1.7 5-5.8-.5-2.7-.1-3.9 1.5-5.4 2.9-2.7 4-2.5 1.4.3l-2.1 2.2 2.4 1.1c2.1 1 2.4.9 2.9-1.2.4-1.3 1.1-2.4 1.6-2.4.6 0 1.5-1.1 2-2.5s1.6-2.5 2.4-2.5 1.6-.4 1.8-.9c.9-2.6 14.5-.9 20.9 2.5 2.6 1.3 2.7 1.3 3.3-1.7.9-4.6.7-10.7-.3-11.3-.5-.3-1.2-1.8-1.5-3.2-.4-1.5-1.4-3.3-2.1-4.1-1.3-1.3-1.5-1.1-1.5 1.4-.1 2.4-.2 2.5-1.1 1-.6-.9-.8-2.6-.4-3.6.4-1.3-.2-2.3-2-3.5-2.1-1.4-2.9-1.5-5.7-.3-1.8.7-5.7 1.2-8.5 1.1-6.9-.2-7.1-.3-5.3-1.4.9-.6 1.1-1.3.5-1.8-.5-.4-1.7-1.6-2.5-2.7s.3-.5 2.5 1.3c5.1 4.2 11 4.5 14.5.7 1.3-1.4 2.1-2.5 1.7-2.5-.3 0 .1-1.6.9-3.5 1.8-4.3 1.8-4.5-.3-4.5-1.4 0-1.2-.3.6-1.3 2.9-1.5 2.9-3.1 0-3.5-3.3-.6-6.9.7-6.9 2.4 0 1.2-.4 1.3-2.2.3-1.3-.7-2.5-1.5-2.8-1.9-.3-.3-1.6-1.4-3-2.3-1.3-.9-1.9-1.7-1.3-1.7.7 0 1.4.4 1.7.9.5.8 5.7.8 14 .2 1.1 0 1.6-.6 1.3-1.5-.3-.8.1-1.7.9-2s1.4-1.4 1.4-2.4c0-1.4-.9-1.9-3.7-2-3.5-.3-3.6-.2-2.1 1.5 1.5 1.6 1.5 2 .1 3.8-1.5 2-1.5 1.9-.8-.3.5-1.9.2-2.5-1.4-2.9-2.5-.6-2.5-1.1-.6-3.7 1.8-2.4 1.9-3.9.3-3.4-.6.2-1.8 2-2.5 3.9l-1.3 3.4.5-4.9.5-4.8-4.4 3.6c-4.4 3.6-8 5.2-4.1 1.8 1.1-.9 2.6-2.5 3.3-3.4 1.2-1.5 1-1.6-2.3-1.1-2.8.4-4.3.1-6.5-1.6-1.6-1.1-3.5-2.1-4.2-2.1-.9 0-1 .3-.2.8.6.4 1.6 1.7 2.3 2.9.6 1.3 1.8 2.3 2.6 2.3 1.5 0 2 1.2.9 2.3-.9.9-3.4-.4-3.4-1.7 0-.7-1.3-2.5-3-4.1-3.4-3.3-3.9-5-1.1-4.2 1.6.4 1.4-.2-1-3.8-1.6-2.4-2.9-4.9-2.9-5.6s-1.2-2.4-2.7-3.7c-2.5-2.2-2.5-2.4-.6-1.8s2.2.3 2.6-3.1c.3-3.2.4-3 .5 1.4.1 2.8.6 5.4 1.1 5.8.5.3 2.1-.9 3.5-2.7s2.8-3 3.1-2.6c.3.3-.8 2.1-2.4 3.9-3.7 4-3.7 4.5-1 5.9 1.6.9 2 .8 1.7-.2-.4-1.9 2.2-7.8 3.5-7.8.7 0 .7-.4-.1-1.2-2-2-1.4-3.3 1.9-4.5 1.7-.7 3.3-2.1 3.6-3.3.4-1.6 1.1-1.9 2.7-1.4l2.1.7-2-2.4c-1.1-1.3-2.6-3-3.4-3.8s-2-3.1-2.8-5c-1.1-2.6-1.7-3.1-2.4-2-.5.8-.9 2.3-.9 3.3 0 3.5-1.3.8-1.6-3.5-.2-2.4-.8-4.5-1.3-4.8s-.3-1.2.5-1.9 1.4-.8 1.4-.2c0 2.1 1.9.9 3.4-2.2 2-4 2.1-3.8-1.1-3.9-2-.1-2.2-.3-.8-.6 1.1-.2 4.4-1.1 7.2-1.9 2.9-.9 5.8-1.4 6.5-1.1.7.2-.3.7-2.2 1.2-4.4.9-5.7 2-8.1 6.6-2.7 5.3-2.4 5.8 1.1 1.9 1.7-1.8 3-4 3-4.7 0-1.7-.1-1.7 6.1 1.1 3 1.4 7.2 2.6 9.4 2.7 4.6.3 7.5 1.5 7.5 3.1 0 .7-.7.5-1.7-.4-2-1.7-8.4-1.9-9-.2-.2.6.8 2.4 2.2 4s2.5 3.3 2.5 3.9c-.1.5-.9 0-1.9-1.3-1.1-1.2-2.1-2.2-2.4-2.2-.6 0 0 10.1.7 10.8.4.3 1.3-.3 2.1-1.4 1.4-1.8 1.5-1.7.9 1.1-.4 1.6-1.2 3.7-1.9 4.5-2.2 2.8-2.3 4.6-.4 5.8 1.8 1.1 1.9 1 1.3-1.5-.4-2.2-.3-2.5.5-1.3.6.8 1.1 2.3 1.1 3.2 0 1 .5 1.5 1.3 1.3 1.3-.6 4.7-6 4.7-7.6 0-.5-.8-.9-1.7-1-1.1 0-1.3-.3-.5-.6.6-.2 1.2-1.4 1.2-2.6.1-2.1.1-2.1 1.4.2 1.4 2.6.7 7-1.5 9.7-.7.8-1 1.6-.8 1.9.8.8 6.9-5.6 7-7.3.2-3.1-.3-5.7-1.2-6-.5-.2-.9-2.6-.9-5.3 0-2.9-.7-6-1.8-7.8-1.9-3.1-10.4-11.1-13.8-12.9-4.1-2.2-15.9-4.3-20.1-3.7-2.8.4-4.3.2-4.3-.4 0-1.4 8.5-1.4 15.2 0M401 157.5c.6 1.9 2.8 4.8 4.8 6.5 2 1.6 3.3 3.3 2.9 3.6-.4.4-.7.2-.7-.4 0-.7-.6-1.2-1.3-1.2s-2.1-1-3.2-2.2l-1.9-2.3-.7 2.8c-.4 1.6-1.4 3.6-2.1 4.5-1.2 1.5-1.1 1.6.5.3 3.1-2.4 2.8-.6-.8 4.9-2.8 4.4-3.5 6.4-3.5 10.5 0 7.2 2.8 9.6 14.2 12.4 4.7 1.2 9.2 2.1 9.8 2.1.7 0 4 1.3 7.4 2.9 5.5 2.5 17.3 5 20.1 4.2.6-.2 2.1-.5 3.4-.8 1.4-.2 2.8-.6 3.2-.9.8-.5 10.1 1.7 10.9 2.6.3.3 2.4 1.1 4.7 1.8s5.5 2.3 7 3.5c5.8 4.7 14.6 8.9 10.9 5.1-2-2-2-3.4-.1-3.4.8 0 1.5.6 1.5 1.4s.5 1.8 1.2 2.2.8.3.4-.4-.1-1.2.8-1.2c.8 0 2.1 1.2 2.8 2.7.8 1.7 2.3 2.9 3.8 3.1 1.3.2 5 2.2 8.3 4.3 4.9 3.3 6.2 3.8 7.6 2.7 1.3-1 1.4-1 .4.2-.7.8-1.3 2.2-1.3 3.2 0 1.8-.1 1.8-2.7 0-4.9-3.2-6.7-4.2-9.5-5.3-1.6-.6-2.8-1.6-2.8-2.2s-.3-.7-.7-.4c-.3.4-1.6.1-2.8-.7-3.3-2.2-12.5-4.6-15-4-1.4.3-2.7-.1-3.6-1.2-1.2-1.6-1.2-1.7.4-1.1.9.3 1.7.3 1.7-.2 0-1.9-11.3-6.3-17.3-6.8-3.8-.3-5.7-.1-4.9.4.9.7.6 1.2-1.3 2.1-2.2 1-2.6 1.6-2.5 3.7 0 .3-.6 1.8-1.5 3.5-.8 1.6-1.5 4.3-1.5 6 0 1.6-.4 3-1 3-1.6 0-1.1-6.7.6-8.4.9-.9 1.7-2.2 1.8-2.9.1-.6.5-2.1.9-3.3s.3-3.2-.2-4.5c-.7-1.8-1-2-1-.6-.1 1.4-.5 1.6-1.8.9-3.8-1.9-15.7-3.6-14.7-2.1.2.4 0 1-.5 1.3s-1.2 2.7-1.6 5.3c-.6 3.7-.9 4.4-1.5 2.8-.4-1.1-.4-2.4.1-2.9 1.6-1.7 1-6.3-.8-7.1-1.7-.7-1.6-.8.2-1.5l2-.8-2-.7c-1.1-.4-2.9-1.1-4-1.5-4.7-2.1-21.1-6.1-25.4-6.3-1.9-.1-3.6-.8-3.9-1.5-.2-.6-1-1.2-1.8-1.2s-1.4-.5-1.4-1c0-.6.6-1 1.3-1 .9 0 1.1-1.9.9-6.9-.2-3.8.1-7.8.7-8.9 1-1.8.7-2.1-1.9-2.7s-3-1.1-2.9-3.8c.1-2.5.3-2.7.6-.9.4 2.2.5 2.3 1.8.5 1.7-2.2 1.9-6 .4-6.5-.8-.3-.6-1.5.6-3.8 3.1-6.1 5.8-6.6 7.5-1.5m285.4 9.1c-.5 3.4-.3 4.8.7 5.5 1.1.7 1 .9-.3.9s-1.8.8-1.8 2.6c0 2.9 2.4 5.3 5.3 5.4 2 0 2.3 1.6.5 2.3-.7.3-.2.7 1.2.8 4.7.5 5.5.6 7.5 1.4 1.1.5 2.3 1.3 2.8 1.9.5.7 1.1.5 1.8-.7 1.4-2.4 3.2-2.1 2.4.5-.6 1.7-.4 2 .9 1.5.9-.4 1.6-.1 1.6.5s1.1.1 2.4-1.1c2.9-2.7 4.5-1.2 2.5 2.5-1.5 2.8-1.8 2.9-6.6.9-2-.8-3.8-1.3-4.1-1s-1.5-.1-2.6-.8c-2.2-1.5-9.1-3.9-11.6-4.2-.8-.1-3.5-.8-6-1.5-5.9-1.6-16-2.3-16-1 0 .6-.4 1-1 1-.5 0-1-.7-1-1.5 0-1.9 0-1.9-3.9.1-1.7.8-2.9 2-2.5 2.5.3.5 1.3.5 2.4-.1 1.3-.7 2.1-.7 2.5 0 .8 1.3 5.2 1.3 5.7-.1.2-.5 1.1-.7 2.1-.4.9.4 1.4 1.1 1.1 1.6s.2.9 1 .9 1.8.4 2.1 1c.4.6-1.5.8-5.4.3-5.7-.5-6.1-.4-7 1.8-.6 1.6-1 1.8-1 .8-.1-.9-.8-1.9-1.6-2.2-1.1-.5-1.4.4-1.2 4.3.1 3 .6 4.5 1.1 4 .6-.6 1.5-.5 2.3.2 1 .8 1.7.8 2.5 0 1.9-1.9 2.6-1.4 2 1.4-.3 1.6-.9 2.3-1.8 2-.8-.3-2.1-.9-3-1.2-1.2-.5-1.5-.2-1.2 1.2.2 1.1 1.3 2 2.8 2.2 4.1.6 7.1 4.2 3.4 4.2-3.3 0-.1 1.9 4.2 2.6 3.4.5 4.8.3 5.5-.7 1.2-1.9 1.1-3.9-.1-3.9-.5 0-1 .8-1 1.7 0 1.2-.3 1.4-1.1.6s-.7-1.7.3-3.4c.7-1.3 1.3-2.5 1.3-2.5 0-.1 1-.5 2.2-.8 1.8-.6 2.2-.3 2.5 2.1.2 1.7.8 2.7 1.7 2.5s1.2.4.8 1.8c-.6 2.4.8 2.7 2.2.3 1.4-2.6 7.8-2.6 11.8-.2 3.2 2 7.1 2 5.9 0-.9-1.3.4-4.1 1.9-4.1 2.1 0 .5-4.8-2.2-6.5-1.4-.9-3.4-1.5-4.4-1.2s-1.7.1-1.3-.4c.3-.5 0-.9-.5-.9-.6 0-1.1.4-1.1 1 0 .5-.4 1-1 1-.5 0-1-.7-1-1.5s-.8-1.6-1.7-1.7c-1 0-2.2-.2-2.8-.3-.5-.2-1.8-.3-2.7-.4-1 0-1.8-.5-1.8-1.1 0-1.3 7.3-.8 8.2.5.4.5 2.2 1 4.2 1.2 3.8.2 13 4 12.4 5.1-.3.4-1 2.1-1.7 3.9-.7 1.7-2 3.3-2.9 3.5-1.7.3 1.7 2.3 8.1 4.7 1.5.6 2.7 1.5 2.7 2.1 0 1.5-2.6 1.2-4.3-.5-.8-.7-2.6-1.7-4.1-2.1-2-.5-2.6-.3-2.6 1.1 0 .9-.9 2.9-1.9 4.4-1.1 1.5-2.3 4-2.7 5.7-.4 1.6-1.4 3.9-2.2 5.1-.8 1.3-1 2.3-.6 2.3.5 0 .4.4-.2.8-1.8 1.1-2.8 7.2-1.2 7.2.7 0 2.4.9 3.8 2 2.8 2.2 5 2.6 5 .9 0-.6.9-2.2 2-3.6 2.5-3.2 2.6-7.9.3-9.2-1-.5-1.4-1.3-1-1.7.4-.5 1.7-.3 2.8.4s2.5 1 3.1.6c.5-.4 1.4-.1 1.8.6.8 1.4.2 5-1 5-.4 0-1.7 2.1-3 4.6-2 3.9-2.2 4.7-.9 5.6 1.1.8 1 .9-.5.4q-1.95-.75-1.2.9c.3.9-.3 1.9-1.4 2.5-2.4 1.3-2.7 4-.4 4 .8 0 1.3-.4.9-.9-.3-.6.3-1.5 1.4-2 2.5-1.4 4.1-1.4 4.1 0 0 .5-.4.7-1 .4-1.1-.7-1.4 1.8-.4 2.8 1.3 1.3 3.6-.8 6-5.4 1.3-2.7 2.9-4.9 3.4-4.9 1.5 0 1.2.8-1.5 4.4-1.4 1.8-2.5 3.6-2.5 4.1 0 .4-.8 1.4-1.7 2.1-1.7 1.3-1.7 1.5.2 2.6 3.2 1.9 6.5 2.1 6.5.3 0-1.7 3.1-2 4.7-.4.8.8 1.9.6 3.9-.8l2.9-1.8-1.7 2.6c-1.6 2.6-1.6 2.7.2 3.2 1.1.3 2.5-.2 3.1-1 .7-.8 2.1-1.2 3.3-.9 1.4.4 3.1-.4 5.3-2.6 4.5-4.4 4.2-1.8-.4 3.4-2.2 2.4-3.1 3.9-2 3.5s1.7-.2 1.7.7c0 .7.7 1.9 1.5 2.6 1.3 1.1 2.1.8 5-2 3.3-3.2 5.5-3.3 5.5-.4 0 .8-.4 1.2-1 .9-.5-.3-1 0-1 .8 0 .7-1.1 2-2.5 2.7-1.3.7-2.7 2.1-3.1 3.2-.3 1-1 1.8-1.5 1.8-.6 0-.7.5-.4 1 .4.7 1.9.3 4.1-1 3.7-2.4 4.4-1.8 1.7 1.3-3.5 3.8 2.9.8 7.1-3.5 2.1-2.1 4.2-3.6 4.5-3.2.3.3-1 2-3 3.8l-3.6 3.3 1.9 2.6c1.3 1.8 2.4 2.4 3.6 2 1.5-.6 1.5-.5.3 1-2 2.4-.2 2.1 4.4-.9 3.6-2.3 3.8-2.3 1.4-.2-1.4 1.3-3.8 3.2-5.4 4.3-2 1.5-2.8 3-3 5.8-.4 4.7.6 4.7 7.3.1 7.1-5 7.7-3.7.8 1.7-6.2 4.8-7 6.3-2.9 5.3 2.6-.7 2.7-.7 1 1-1.7 1.8-2.3 3.7-.9 3.5 1.9-.3 2.5.2 1.2 1.1-1.1.7.1.9 4 .5l5.5-.5-3.3 1.7-3.3 1.7 3.8 1.1c4 1.1 5.3 3.9 1.8 4.1-1.1.1-2.7.2-3.5.3-2.2.2-5.2 6.9-3.6 7.9 1.1.6 4.1 6.7 4.1 8.4 0 .3.3 1 .7 1.4 1.1 1-1.1 3.4-3.2 3.4-2.4 0-7.1 2.5-6.3 3.3.3.4 1.2.2 1.9-.4.8-.7 1.4-.6 1.9.2.4.6.1 1.5-.6 2-.9.6.1.7 2.6.4 5.9-.9 6.3-1.1 5.8-3.9-.3-1.6-.1-2.6.6-2.6.6 0 1.4 1.4 1.8 3.1.3 1.9 1.4 3.4 2.5 3.6 1 .3 1.8 1 1.8 1.5s-.4.7-.9.4-1.4.1-2.1.9c-.8 1-.9 1.5-.2 1.5.6 0 .9.6.6 1.4-.4 1.1.9 1.5 6 1.8 4.8.2 6.7-.1 7.1-1 .9-2.3.5-8.1-.5-8.7-.5-.3-1-2.1-1-3.8 0-5-4.5-16.2-6.4-16.1-2.1.2-2-.2.4-2.6 1.1-1.1 2.2-1.5 2.5-1 1.2 1.9 4.5 1 5.7-1.5.8-1.8 1.5-2.2 2.3-1.5.7.5 1.5.6 2 .2.4-.4.5.3.2 1.6s.1 4.9.9 7.9c.8 3.1 1.2 5.8 1 6-.8.8 1.6 6.3 2.5 5.7.5-.3 1.6.2 2.5 1 .9.9 2.6 1.4 4 1.2 1.5-.3 2.2-.1 1.8.6-.3.5-1.7.8-3 .5-1.3-.2-2.4-.3-2.4-.1 0 .1-.2.8-.5 1.6-.4.9.5 1.3 3.2 1.3 5.1 0 6.1-1.1 5.6-6.5l-.5-4.5 1.7 3c.9 1.6 2.3 5.2 3.1 8 .9 3.3 1.3 3.9 1.1 1.8-.3-2.8 0-3.2 2.7-3.6 1.7-.3 3.8-.1 4.6.4q1.5.75.3.9c-.7 0-1.3 1.1-1.3 2.5 0 3.3-1.3 3.2-2.7-.3l-1.1-2.7-.1 2.7c-.1 2.1.6 3.1 3 4.4 3.4 1.7 3.4 1.5.1 10.1-1.3 3.4-1.7 5.5-1 5.9.5.4.8 2.1.5 3.8s-.3 2.5 0 1.8c.8-2 2.5-1.3 1.8.8-.3 1.1-.2 2 .3 2s4.7 3.7 9.3 8.1c4.6 4.5 6.7 6.8 4.6 5-4.1-3.4-5.6-3.8-7.5-1.9-.7.7-1.2.8-1.2.2s.5-1.5 1.2-2.2c1.4-1.4-1.1-4.6-5.4-6.8-3.6-1.9-4.1-1.8-3.5.6.3 1.1 0 2.3-.7 2.8-.6.4-1.9 1.9-2.9 3.4-1.7 2.7-1.7 2.8 1.4 6l3.1 3.3 2.9-3.5c1.6-1.9 2.9-3 2.9-2.4 0 .5-1 2-2.3 3.4-2.5 2.7-2.6 1.8 1.8 11.6 1.6 3.3 2.3 4 4.2 3.6 1.3-.2 2.3-.2 2.3.1 0 .2-1.1.7-2.5 1-2.2.4-2.9-.2-4.7-3.7-3-6-3.9-7-5-5.4q-.75 1.2-.3-1.2c.5-1.9-.1-3.2-2.4-5.4-3.4-3.3-6.7-2.9-8.2 1.1-.5 1.4-1.2 2.3-1.5 2s.2-1.9 1-3.6c1.8-3.5 2-5.1.6-5.1-.5 0-1 .5-1 1.1 0 .5-1.4 3.8-3.1 7.2s-2.9 7.2-2.6 8.4c.2 1.2-.1 2.4-.7 2.6-.7.2-1.1 4.5-1.2 12.3-.1 14.8-1.9 19.8-2.2 6.2-.1-5-.5-9.4-.8-9.7-1-1-.1 21.3.9 23.4 1.3 2.6 1.8 11.5.6 11.5-.8 0-1-.8-1.3-5.2-.1-.9-.4-1.9-.7-2.2-1.2-1.2-.9 8.7.3 10.2 1 1.2 1 1.6.1 1.9-.7.3-1.3 1.2-1.3 2.1 0 1.4.2 1.4.9.3.6-.9.9 1.5.9 6.5 0 4.3-.3 7-.5 6-.4-1.5-.7-1.6-1.4-.5s-.9.9-.9-.6-.3-1.6-.9-.7c-1 1.6-.2 6.2 1 6.2.5 0 .1 1.6-.8 3.5-1.4 2.9-2.4 3.6-5.6 4.2-2.1.3-4.1 1.2-4.4 2s-1.2 1.2-1.9.9c-.8-.3-3.7 2.2-7.1 6.1-3.2 3.7-7.9 8.8-10.5 11.5-2.7 2.7-4.8 5.3-4.8 5.8 0 .6-.6 1-1.4 1s-1.6.4-1.8.8c-.3.9-16.7 13.1-22.1 16.6-1.6.9-2.7 2-2.4 2.2.6.6 5.4-1.5 8.9-3.8 1.7-1.2 2.9-1.5 3.3-.8.4.6 1.6.3 3.2-1 1.4-1.1 3-2 3.5-2 1.8 0 3.6-2.6 2.8-4-1.2-1.9-.1-3.3 1.5-2 1 .8 1.5.6 2-1 .5-1.5 1.3-2 2.5-1.7 1.3.3 1.6 0 1.2-1.5-.4-1.7-.2-1.8 2.2-.7s2.9.9 5.6-1.6c1.6-1.6 3.2-2.6 3.5-2.3.4.3-1.1 2-3.1 3.7-4.5 3.7-3.9 5.4.7 1.8l3.2-2.5 3 2.7c7.9 6.7 10.2 9 9.7 9.5-.3.3-3.2-1.9-6.5-4.9s-6.2-5.5-6.6-5.5-1.8 1.2-3.1 2.7c-1.3 1.6-3.2 3.5-4.2 4.3-1.8 1.4-1.9 1.4-.8-.6 1-2 .9-2.2-1.7-2.6-2-.3-2.8 0-2.8 1.1 0 .9.4 1.9.9 2.2s.2.9-.7 1.2c-.9.4-1.3.3-1-.3.9-1.5-.2-1.2-4.5 1.2-3.8 2.2-5.6 4.6-2.5 3.4.8-.3 1.5 0 1.5.5 0 .7-1.1.9-2.5.7-1.4-.3-2.5-.1-2.5.3 0 1.1-3.2 4.3-5.1 5.2-.8.4-2.3 1.2-3.4 1.9-1.1.6-2.7 1.4-3.5 1.8s-2 1.7-2.6 3l-1.2 2.2-.7-2.1c-.3-1.2-1.5-2.6-2.6-3.1-1-.6-1.9-1.7-1.9-2.5 0-.9-2-.4-7 2.1-3.9 1.9-7.5 3.4-8 3.4s-3.6 1.2-7 2.6c-5.2 2.3-6 3-5.4 4.8.4 1.2 1 2.6 1.5 3.1 1.2 1.6 2.3 9.5 1.3 9.5-.5 0-1.5-2.6-2.3-5.8-1.8-7.8-2.3-8.3-8.5-7.6l-5.1.5 4.7-2.3 4.7-2.3-1.8-3.7c-1-2-2.2-5.3-2.6-7.4-.6-3.4-.5-3.6.9-2.5.9.8 1.6 2.2 1.6 3.2 0 1.6.5 1.8 2.8 1.3 1.5-.4 3.2-.9 3.7-1.3.6-.3 1.3-.6 1.8-.7.4-.1 1-.2 1.5-.3.4-.1 1.5-.8 2.5-1.5 1.7-1.3 1.6-1.7-1.5-7.5-1.8-3.4-3.8-6.1-4.5-6.1s-1-.7-.6-1.6c.5-1.5-2.6-9.8-3.4-9-.3.2.1 1.4.7 2.6.9 1.7.9 2.5-.1 3.4-.9.8-1.1.7-.6-.6.3-.9-.1-2.2-.9-2.9s-1.2-1.9-.9-2.7c.4-1 0-1.2-1.1-.8-.8.3-3.1.6-5 .6s-3.3.3-3.3.7c.1.5.1 1.4 0 2.2-.1 1.2-.4 1.1-1.3-.2-.9-1.1-2.1-1.5-3.5-1.1-1.9.5-2.3 1.3-2.3 4.5 0 6.5 2 14.1 3.6 13.5.7-.3 1.6-.1 1.9.4.4.6-.1 1-.9 1-1.8 0-2 1.5-.7 5.6.5 1.6 1.2 4.2 1.6 5.7.5 2.5.9 2.8 3.1 2.3 1.9-.5 2.5-.3 2.1.6-.2.7-1.1 1.2-2 1.2-1-.1-1.3.4-1 1.4.4 1 .2 1.3-.5.8-.7-.4-1.2-.6-1.2-.4-.1.2-.3 4.3-.6 9.3-.3 4.9-.9 11.4-1.5 14.4-1.3 7.9-2.2 37.8-1.2 43.1.6 3.1 1.4 4.6 2.6 4.8 1.7.3 1.8-.3 1.3-7q-.6-7.2.3-4.8c.5 1.4.9 4.2 1 6.2.1 4.4.6 4.7 7.1 5.5 2.7.3 5 1 5 1.4 0 .5 1.2.9 2.8.8h2.7l-2.5-1.1c-2.1-.9-2.2-1.2-.7-1.5 1-.3 2.4 0 3.1.6.6.5 2.2.8 3.4.4 1.3-.3 2.2-.1 2.2.6 0 .6-1.2 1.2-2.7 1.2-2.7.2-2.7.2-.3.6 1.4.3 5.5 1.3 9.2 2.3 5.5 1.5 6.7 1.6 7.2.4.6-1.6-.9-2.8-2.4-1.9-.5.3-1.8.1-2.7-.4-1.5-.9-1.3-1 1.2-1 3.5.2 9.7 1.6 7.5 1.8-1.3.1-1.3.2 0 1.1 1.3.8 1.2 1-.2 1-1 0-1.8.4-1.8 1 0 .5.7 1 1.6 1 1.8 0 12.4 6.8 12.4 8 0 1.5 5.7 2.9 6.9 1.7.6-.6 1.4-.8 1.8-.4s-.8 1.3-2.5 1.9c-5.9 2.3-2.5 5.4 4.1 3.7 2.1-.6 2.9-.3 3.7 1.1.8 1.5.6 2.1-.9 3-2.1 1-5.1.4-5.1-1.1 0-.5-1.3-.9-2.8-.9-2.9 0-7.8 4-6.5 5.3.3.4-.1.7-1.1.7s-2.7.5-3.8 1.1c-2.1 1.1-2.1 1.2.3 2.6 2.3 1.3 2.2 1.4-2.1 1-2.5-.3-6.7.1-9.5.9-2.7.7-6.2 1.6-7.7 1.9-3.2.6-3.7 2.1-1 2.9.9.3-.8.3-3.8.1-5.1-.5-5.3-.4-3.6 1 1.7 1.3 1.7 1.5.4 1.5-.9 0-2.9-.5-4.4-1-1.4-.6-4.3-.7-6.3-.4l-3.6.7 3 1.4 3 1.4-3.5-.7c-1.9-.4-5.3-.8-7.5-.9-2.6-.2-4-.7-4-1.6 0-1 1.6-1.4 5.5-1.5 14.2-.4 36.8-6.6 45.8-12.5 7.6-4.9 7.8-9 .9-14.3-3.6-2.7-8.4-4.9-13.2-6-2.5-.6-2.2-.1 2.3 2.9 6.9 4.7 8.7 6.6 8.7 9 0 1.2.9 2.2 2.5 2.6l2.5.7-2.7.1c-1.5.1-3.3.9-4 1.9-3.1 4.2-14.4 10-13.1 6.6.3-.7.8-1.3 1.1-1.2.4.1 2.3-.5 4.3-1.4 4-1.7 7.9-6.1 7.9-8.8 0-2-7.3-9-9.4-9-1.8 0-1 4 1.2 5.7 1.9 1.6 1.9 5.8-.2 7.8-.9.9-1.6 2-1.6 2.5 0 1-9.9 4.4-10.6 3.7-.3-.3.4-.8 1.5-1.2 2.8-.9 2.7-2.9-.1-2.2-1.8.5-1.5 0 1.5-2.8 4.1-3.8 4.4-5 2.1-8.3-2.7-3.9-21.6-11.2-29-11.2-2.7 0-1.4 2 2.9 4 3.4 1.7 3.7 2 1.5 1.7-3.3-.5-3.5.3-.7 2.9 3 2.7 7.9 10 7.9 11.7 0 1.8-3.3 3.1-11.9 4.8-5 1-6.6 1-6.9.1-.2-.7-1.6-1.9-3.1-2.6-1.5-.8-3.6-3.3-4.7-5.5-1.1-2.4-3-4.5-4.6-5.2-2.9-1.2-4.4-5.3-3.3-8.9.4-1.2.2-2-.6-2-.9 0-.9-.3.1-1.5 1.6-1.9.5-3.4-2-2.8-1.1.3-2 0-2-.6s1.2-1.1 2.8-1.1c2.1 0 2.4-.2 1.2-1-2.4-1.5-4.7-1.2-5.2.8-.4 1.5-1.2 1.7-4.4 1.3l-3.9-.6 3.3-.3c1.7-.2 3.2-.7 3.2-1.3 0-.9-10.8-1.5-18.2-1-2.2.1-3.8-.2-3.8-.8s1.4-1.1 3-1.1h3v-7.2c0-7.6 1.2-8.8 1.5-1.6.4 8.9.4 8.8 2.8 8.8 4 0 4.9-1.4 4.4-6.4-.2-2.6 0-4.9.4-5.2.4-.2.9 2.1 1.1 5.3.3 5.6.4 5.7 3.6 6.4 1.9.4 5.2.4 7.3.2 3-.4 3.8-.9 3.5-2.2-.3-.9-.8-5.7-1.1-10.6-.4-5-1.1-11-1.6-13.5s-1.3-7.2-1.8-10.5-2-9.7-3.5-14.3c-1.4-4.6-2.6-10.5-2.6-13.3 0-2.7-.4-4.9-1-4.9-.5 0-1 2.2-1 5 0 2.7-.4 5-1 5-.5 0-1 .7-1 1.6 0 1.4.3 1.4 1.5.4.8-.7 1.5-1 1.5-.7s.2 1.2.5 2c.4 1-.2 1.4-2.5 1.4-1.9 0-2.9-.5-2.6-1.2.2-.6-.6-1.8-1.7-2.5l-2.2-1.4 2.5-.6c1.9-.4 2.6-1.3 2.8-3.7.4-3.6-2.6-5.7-3.5-2.3-.3 1.1-1 1.7-1.5 1.4s-.7-1.2-.4-2-.1-1.4-.9-1.4-1.5.5-1.5 1.1-.6.5-1.4-.3c-1.4-1.4-9.4-1.6-11.6-.3-.6.4-1.7-.1-2.5-1.1-1.1-1.5-1.8-1.7-4.1-.9-2.6 1-2.9 1.5-4.1 10-.7 5-1.7 10-2.2 11.2-1.6 3.5-6 32-6.3 40.5-.1 4.5.2 7.9.7 8 .6.2 1.1-.7 1.3-2 .2-1.2.7-2.2 1.2-2.2.4 0 .6.9.3 1.9-.4 1.5.2 2.1 2.9 2.6 2.9.7 3 .9 1.3 1.6-1.1.4-3.2.8-4.7.8-1.7.1-2.8.7-2.8 1.5s-.3 2.1-.6 3c-.4 1.2 0 1.6 1.7 1.7s1.9.3.7.6c-1.3.3-1.8 1.5-1.8 4.3 0 3.1-.7 4.5-3.5 7.1-1.9 1.9-3.5 4.1-3.5 4.9 0 .9-1.6 2.9-3.6 4.5l-3.7 2.9 4.9 1.4c2.7.7 9.3 1.5 14.7 1.9 5.4.3 9.9.9 10.1 1.2 1.4 2.2-42.5-3.3-47.3-5.9-3.2-1.7-2.5-4.6 2.6-11.1 2.5-3.3 4.4-6.1 4.2-6.4-1-1-9.6 3.8-12.1 6.8-3 3.6-4.8 3.2-2.4-.5.9-1.3 4.7-3.9 8.6-5.8 7.1-3.4 8.2-4.6 5.5-5.6-1.2-.5-1.3-.9-.4-2 1-1.2 1.4-1.2 2.9.1 1.8 1.6 3 1.1 3-1.5 0-1.3-.8-1.5-3.7-1.2-2.1.2-4.4.9-5.2 1.5-.7.7-3 1.3-5 1.4-5.1.3-11.3 2.3-13.1 4.2-.8.9-3.4 3.4-5.7 5.5-3.1 2.8-4.3 3.4-4.3 2.2 0-.9 1.1-2.1 2.4-2.6 4.2-1.6 4.4-3.4.3-2.7-2 .3-3.7.1-3.9-.4-.3-.9-10.8 3.6-10.8 4.7 0 .3 1.1.4 2.4.2l2.4-.5-2.5 3.9c-1.4 2.1-3.2 3.8-3.9 3.8-.8 0-1.4.3-1.4.7 0 1.2 6.3 7.3 7.6 7.3.6 0 1.7.6 2.3 1.4s2.4 1.6 3.9 1.9c11.9 2.4 27.2 6.7 27.2 7.8 0 .4-1 .9-2.2 1.1-2 .3-2.7 1.7-5.3 12-1.6 6.4-3.4 12-3.8 12.5-.5.4-.6-.3-.3-1.7 1.1-4.7 3.9-17.5 4.3-20.2.4-2.4.2-2.8-1.6-2.8-1.2 0-2-.4-1.7-.9.6-1-6-3.1-9.8-3.1-1.4 0-2.6-.5-2.6-1 0-.6-.7-1-1.6-1s-4.8-1.6-8.7-3.5-7.8-3.5-8.6-3.6c-1 0-1.1-.2-.4-.5 1.9-.8.3-3.4-2.1-3.5-1.1 0-1.5-.3-.8-.6.6-.2 1.2-1.5 1.2-2.8 0-3.3 2-7.5 3.6-7.5.7 0 4.2-1.8 7.6-4 3.5-2.2 7.1-4 8-4s2.3-.7 3.2-1.5c.8-.8 2.7-2 4.2-2.6 2.2-.8 2.5-1.2 1.4-1.9-3-1.9.2-2.2 6-.6 3.7 1.1 7.3 1.4 9.5 1 4.2-.8 4.5-2 .8-2.7-8-1.6-11.4-2.5-12.1-3.2-1-1 6.2.4 13.3 2.6 8.7 2.7 10.2 2.5 11.1-1.3 1.3-5.3.6-31.5-1.1-43.9-.9-6.3-1.9-15.1-2.2-19.6s-.9-8-1.4-7.8c-1 .7-3.9 6.5-3.9 8 0 .7-.7 2.7-1.6 4.5-1.2 2.3-1.9 2.8-2.5 1.9-.4-.7-.3-1.9.2-2.5.7-.9.5-1.5-.8-2.2-3.1-1.6-7.3-2.3-7.3-1.2 0 1.8-2.7 1.1-3.2-.8-.4-1.3-1.8-2.1-4.1-2.5-2-.3-6.4-2.2-9.8-4.2-3.3-1.9-6.7-3.4-7.4-3.3-.8.2-2-.5-2.7-1.4s-5.3-3.8-10.3-6.3c-9.1-4.7-17.1-10.3-21.5-15-1.3-1.4-3.4-2.5-4.7-2.5-1.6 0-2.3-.6-2.3-1.8 0-1.1-2.9-4.9-6.5-8.6s-6.3-7.1-6-7.7c.4-.5-.3-.9-1.5-.9-1.1 0-2.3-.7-2.6-1.5-.4-.8-1.2-1.5-2-1.5s-1.4-.5-1.4-1.1c0-.5.5-.7 1-.4 2.4 1.5.7-2.7-2.2-5.4-2.4-2.2-3.5-2.7-4.5-1.9s-1.3.6-1.3-.5c0-.9.5-1.9 1-2.2 1.5-.9 1.2-2.5-.4-2.5-.8 0-1.3-.7-1.2-1.5.1-1.6-6-9.7-8.7-11.4-1.5-1-2.1-.8-3.7 1.1l-1.8 2.3-1.1-2.8c-.6-1.5-1.5-3.8-2-5-.6-1.5-.6-2.9.1-3.8.7-1.1 1.1-1.1 1.5-.1.8 2 2.3.3 2.3-2.6 0-2.5-.1-2.5-1.5-.6s-1.4 1.9-1.5-.1c0-1.1-.6-3.7-1.4-5.8l-1.3-3.9-.8 3.4c-.7 2.7-.9 2.9-1.2 1.1-.2-1.2 0-3.7.5-5.6 1-3.7.5-9-.9-8.2-.4.3-.4-.9.2-2.7 1.1-4 1.2-10.5.1-11.2-1.4-.8-3.5 1.1-2.7 2.4.6.9.4 1.1-.5.5-2.1-1.3-3 1.6-2.9 9.6.1 4.2-.4 8.5-1 9.5-.8 1.5-.9.6-.5-3.8.9-8.2-.1-12.8-2.9-12.8-2-.1-2-.2-.5-1.3 1.6-1.2 1.5-1.7-.7-6.3-1.5-3.1-2.2-3.9-1.9-2.1.5 2.1.3 2.6-.8 2.2s-1.8.8-2.6 4.5c-1.5 6.4-1.5 7.3-.1 6.4.6-.3.4.8-.5 2.4-.9 1.7-1.6 3.7-1.6 4.5 0 .7-.7 2.2-1.5 3.3-1.4 1.8-1.4 1.7-.5-.9.6-1.6.8-3.3.4-3.8-.3-.5 0-.9.5-.9 1.4 0 1.5-12.7.1-13.5-.5-.3-1-.1-1 .4 0 .6-.7 1.1-1.5 1.1-1 0-1.5 1-1.5 2.8 0 1.6-.9 3.9-2 5.2-1.6 1.9-2 3.7-2 10.2 0 7.3-1.3 10.6-2.3 5.5-.3-1.9-.5-1.8-1.2 1-.9 3.8-1.8 4.6-6.7 6.2-2.7.9-3.8 1.8-3.8 3.2 0 1-.4 1.9-1 1.9-1.5 0-1.2 3 .4 3.6 1.3.5 1.3 1.1 0 4.6-.8 2.2-1.4 4.8-1.4 5.8 0 .9-.9 2.5-1.9 3.4-2.4 2.2-8.1 13.7-8.1 16.3 0 1.1-.9 2.8-2 3.8s-2 2.4-2 3.2c0 1-1 1.3-3.2 1.1-2.8-.3-3.4-.7-3.6-3.2-.2-1.6.1-3.9.6-5 .5-1.2 1.5-6.8 2.2-12.6.7-6.4 1.7-10.8 2.4-11.2 3.5-2 7.5-12.8 7.6-20.6 0-1.7.4-3.2.9-3.2.6 0 1.1-1.5 1.3-3.3.2-1.7.4.1.5 4 0 5.5-.3 7.3-1.3 7.3-.8 0-1.4 1.1-1.4 2.5s.4 2.5.9 2.5 1.2.8 1.4 1.7c.3 1.2.7.8 1.2-1.4.5-2 1.9-4 3.7-5.1 1.6-1.1 2.9-2.1 2.8-2.3-.3-.6 1.2-8.3 1.8-9.3.2-.4.8-.2 1.2.5.6.9 1.1.2 1.8-2.2.5-1.9 1.4-3.3 2.1-3.2.6.2 1.1-.4 1.1-1.3 0-.8.4-1.3.9-.9 1.7 1 3.2-3.3 3-8.1-.2-3.4-.6-4.3-1.7-3.9-1.3.5-1.3.3-.1-1.1 1.4-1.7 1.3-9.3-.2-10.8-.5-.6-.9-1.7-.9-2.5s.3-1.1.7-.8c.3.4 1.2.2 2-.4 1.5-1.3 1.8.2.3 1.7-1.2 1.2.7 6.4 2.3 6.4.5 0 2-1.1 3.3-2.5 1.7-1.9 2.3-3.4 2-5.8-.2-1.8-.4-3.8-.5-4.5 0-.6-.8-1.2-1.6-1.2s-1.2-.6-.9-1.4 0-1.7-.5-2.1c-1.5-.9-.4-2.5 1.3-1.9.7.3 1.8-.7 2.5-2.2.6-1.5 1.4-2.5 1.6-2.2.6.6-1.8 5.8-2.7 5.8-.3 0 .1 1.8.9 4 2 5.1 3.9 4.9 7.1-.5 1.7-3.1 2.1-4.9 1.7-8-.3-2.7-.2-3.5.4-2.6 1.3 1.9 4 2.3 7.4 1 2.8-1.2 3.4-2.3 1.7-3.4-.6-.3-1-1.6-.9-2.8 0-1.9.2-1.9 1.1.5.5 1.6 1.3 2.8 1.7 2.8 1.6 0 2-1.4 1-2.7-.6-.7-.9-1.3-.6-1.3 1.4 0-1.1-4.4-2.6-4.6-1-.1-1.4.3-1 1.2.3.8-.1 1.4-1 1.4-1 0-1.8 1.4-2.2 4-.9 5.5-2.4 5.1-1.7-.5l.5-4.6-3.2 1.8c-1.7 1-3.1 2.3-3.1 3s-.7 1-1.5.7c-.8-.4-1.5-.1-1.5.5s-.4 1.1-1 1.1-.5-1 .2-2.5c.6-1.4 1.6-2.5 2.2-2.5s.4-.5-.4-1.1c-1.2-.9-1.2-1 .4-.5 1.1.4 3.5-.3 6-1.8 3.9-2.3 4.2-2.7 3.8-6-.3-2.2-1-3.6-1.8-3.6s-1.4.5-1.4 1c0 .6-.8 1.4-1.7 1.7-2.4.9-6.8 4.3-5.7 4.4.5 0-.1.4-1.3.9-1.6.6-2.1 1.5-1.7 2.7.5 1.5.4 1.5-.4.4-.9-1.3-1.4-1.1-3.2 1-1.2 1.3-1.8 1.8-1.4 1 .5-1.1.1-1.3-2.2-.8-2.9.7-2.9.7-.6-.9 1.2-.9 2.2-2.2 2.2-3s.6-1.1 1.5-.8c1.6.6 3-.3 10.1-6.2 2.7-2.3 5.9-5 7.2-6.1l2.3-1.8-2-4.5c-1.7-3.8-2.1-4.1-2.2-2 0 1.4-.3 1.9-.6 1.2s-.2-2 .2-3c.6-1.5.8-1.5 2.5.5 3.1 3.9 4 2.9 3.4-4-.7-7-1.8-9.1-2.8-5.3-.3 1.4-1.1 2.6-1.6 2.6-.6 0-1 .7-1 1.5s-.7 1.5-1.6 1.5c-1 0-1.4-.6-1.1-1.5.4-.8.2-1.7-.3-2-1.3-.8-1.3-3.5 0-3.5.6 0 1 .7 1 1.6s.7 1.4 1.7 1.2c1.8-.3 5.2-11.6 5.3-17.3 0-1.7.7-5.5 1.6-8.5s1.8-8 2.1-11c.7-8.4 2-15.1 3.7-19.5.8-2.2 1.5-6.8 1.6-10.3 0-6-.1-6.2-2.6-6.2-1.5 0-3.3.8-4 1.7-1.2 1.6-1.5 1.6-2.3.3-.8-1.1 0-1.8 3.7-3.2 2.6-1 5.5-1.8 6.4-1.8 2.3 0 6.8 2.1 6.8 3.2 0 .5.6.8 1.3.6.6-.1 2.6.5 4.2 1.5l3 1.6-4.2-.2c-2.3-.2-4.5-.6-4.9-1s-2-.7-3.6-.7c-2.7 0-2.8.2-2.3 3.7.4 2.2-.2 8.1-1.4 13.8-1.1 5.5-2.5 13.8-3.1 18.5s-1.2 8.9-1.3 9.5c-.1.5.8 1.1 2 1.3s2.7 1 3.3 1.7c1.9 2.3-1.6 3.1-4 1-1.9-1.7-2-1.7-2 .3 0 1.1-.4 2.3-.9 2.6-2.8 1.8-1.7 26.1 1.4 30.3 1.7 2.3 3.5.8 3.6-3 0-1.8.4-4.1.9-5.2.8-1.9.8-1.9 1.8.5.8 1.8 1.1 2 1.1.7.1-.9.8-1.7 1.6-1.7 1.3 0 1.5.8 1.1 3.7-.4 3-.4 3.3.3 1.3.5-1.4.9-3.9 1-5.6.1-1.8.8-4.7 1.6-6.5 1.5-3.4 1.6-3.3.9 3-.4 4.5-.3 6.2.5 5.7.6-.4 1.1-1.3 1.1-2s.7-2.1 1.5-3.2c1.4-1.8 1.4-1.7 1.1 1.1-.2 1.6-.1 2.5.1 1.8.2-.6 1.1-1.4 1.9-1.7 1-.4 1.4.3 1.4 2.4 0 1.7.5 3 1 3 .6 0 1 1 1 2.2.1 2.1.2 2.1 1.1.5.6-1 .9-2.8.7-4-.1-1.2.6-4 1.7-6.2 1.7-3.5 2-3.7 2.3-1.7.5 3.3 3.5 2.4 4.3-1.3.7-3.3.7-3.6 1.4 5.3.3 3.6 1.5 5.5 2.2 3.4.3-.6 1.8-1.2 3.3-1.2 2.5 0 2.9-.4 3.3-3.3.2-1.7.3-1.1.2 1.5-.1 2.7.1 4.8.4 4.7.6 0 5.4-9.7 6.6-13.4.6-1.9.7-1.9 1.6-.3 1.2 2.2 3.9 2.4 3.9.3 0-.8.7-1.5 1.6-1.5 1.2 0 1.4.5.8 1.7-.5 1-.8 3.7-.7 6 0 2.4-.3 4.3-.8 4.3s-.8 1.1-.7 2.5c.2 2.6 1.8 3.5 1.8 1 0-.8.8-2.2 1.9-3.2 1-1 2.2-3.7 2.6-6.1.4-2.3 1.2-4.2 1.8-4.2.7 0 .6-.4-.2-.9-1.3-.8-1.3-1.2-.1-2.6.8-1 2-3.4 2.8-5.4 1.7-4.7 4-27 3.6-34.6-.4-5.8-.4-5.9 1.2-3.6 1.3 1.8 1.5 2.8.6 4.1-2.2 3.5.2 2.9 4-1.1 4.1-4.3 4.1-4.2-.5-10.1-2.8-3.5-2.9-5.8-.4-5.8.8 0 .8.3-.1 1.2s-.3 1.9 2.5 4.4l3.7 3.3 2.3-2.1c2.7-2.6 3-5.8.6-5.9-1.1 0-1.3-.3-.5-.6 1.9-.7 1.5-2.2-1.7-6.2-2.1-2.6-2.7-4.1-2.1-5.2.8-1.1 1.2-1 2.6.9.9 1.3 2.2 2.1 3 1.8.9-.4 1.3.1 1.1 1.5-.3 3.1 2.6 4.7 4.7 2.6.9-.8 1.6-2.3 1.6-3.1 0-1 .6-1.3 1.5-1 2.1.9 7.6-1.6 6.8-2.9-.4-.7-.8-2-.9-3.1 0-1.1-.6-2.2-1.2-2.4-.7-.2-1.2-.8-1.2-1.4s.6-.8 1.4-.5 1.7.1 2-.6.4-.3.1.9.2 3.1 1.3 4.4l1.8 2.2 3.6-1.9c3.5-1.9 3.5-2 2.3-5-1.5-3.5-.5-6.3 1.4-4 1.2 1.5 4.5 1.2 6.7-.5.8-.5 1.8-.2 2.9.8 1.4 1.4 2 1.5 3.4.5.9-.6 2.4-1.4 3.4-1.8 1.4-.4 1.6-1.3 1.1-4.2l-.6-3.6 2.4 2.9c2.7 3.2 4.7 2.2 2.8-1.4-.8-1.5-.8-2 .1-2 .6 0 1.3.9 1.6 2 .6 2.2.8 2.2 3.9 1.4 1.9-.5 2-1 1.3-6.7-.4-3.4-.6-6.4-.3-6.6q1.2-1.2 2.1 4.5c.3 2.2 1.2 4.4 2.1 5.1 2 1.6.1 4-4 5.1-3.4.9-3.4 2.7.1 2.7 1.3 0 3 1 3.8 2.2 1.5 2.2 1.4 2.3-1.1 2.3-2.7 0-3.1.6-1.7 2.9.7 1.1 1.5 1.1 5.2-.1 5-1.7 5.7-3.4 3.5-7.9-.8-1.6-1.2-3.7-.9-4.5.9-2.3-.6-6.4-2.1-5.8-1.8.7-4.6-3.9-4.6-7.6 0-3.4-.8-3.6-7.5-1.9-4 1-4.3 1.3-3.4 3.1 1.3 2.3.4 3.7-1.3 2-.7-.7-1.7-1.2-2.3-1.2-1.4 0-1.2 5 .3 5.9.6.4.7 1.2.3 2-.6 1-1 .9-1.5-.4-.5-1.5-.8-1.5-3.3.3-6.2 4.2-10.3 6.3-10.3 5.3 0-.9 7.3-6.2 10-7.3.4-.2 1.1-1.4 1.5-2.7.7-2.2.5-2.3-1.6-1.7-4.6 1.4-8.9 2.4-8.9 2.1 0-.2 2-1.4 4.5-2.6s4.5-2.3 4.5-2.4-.7-1.6-1.6-3.4-1.3-3.5-.9-3.9 1-.1 1.2.5c.3.7 1.3 1.3 2.4 1.3 1.4 0 1.9-.7 1.9-2.5 0-2.7-1-3.1-4.2-1.4-2.8 1.5-3.6.2-1-1.7 1.2-.8 2-1.9 1.7-2.3-.2-.5 0-2.3.5-4 .8-2.8.7-3.2-.6-2.7-.9.3-2 .6-2.5.6s-.9.8-.9 1.7c-.1 1.6-.2 1.6-1.3.3-2.3-2.9-5.9-2.3-9.4 1.5-1.7 1.9-3.5 3.5-3.8 3.5-1.4 0 .9-4.7 3.3-6.8l2.7-2.2-5.1.1c-3.4.2-6 .9-7.5 2.1l-2.4 1.9 2.3-.6c1.3-.4 2.2-.2 2.2.4 0 1.5-3.3 1.4-4.8-.1-1.2-1.2.1-3.8 2-3.8 1.2 0 6.4-6.1 6.1-7.2-.2-.4.4-.5 1.2-.2 1 .4 1.3.2 1-.7-.7-2 3.6-3.8 5.8-2.5 1.3.8 2 .8 2.5-.2.9-1.3 8.1-4 18.2-6.7 6.7-1.8 11.2-4.5 7.7-4.5-1 0-1.5-.5-1.2-1 .4-.7 1.1-.8 1.8-.1 1.5 1.2 8.9 1.2 8.1 0-.8-1.3.6-5 1.7-4.4.5.4.9 1.5.9 2.6 0 1.6.7 1.9 4 1.9 2.2 0 4-.3 4-.8 0-.4 5.1-.8 11.3-1 6.1-.2 11.4-.8 11.5-1.3.2-.5.8-.9 1.3-.9.6 0 .8.4.5.9-.7 1.1 8.9 3 18.4 3.5 7.1.4 13.1 1.4 19.1 3 2.4.7 2.7.5 3.1-2.3.5-3.5.5-3.5-10.4-5.6l-7.3-1.4 6.5.4c3.6.2 7.7.7 9.1 1 2.4.6 2.7.4 3.4-3.2.4-2.1.9-4.1 1.1-4.5 1.2-1.9 1.5-.5.8 3.8m50.6 21.9c.8.9 2.1 1.3 3.6.9s2.4-.2 2.4.5c0 .6 1 1.1 2.2 1.1 3.7 0 .3 1.5-4.4 1.9-1.2.1-1 2.1.2 2.1.5 0 4.5 2.5 8.7 5.5 4.3 3 8.2 5.6 8.7 5.8s.6.8.2 1.5-1.6.2-3.4-1.6c-3.7-3.8-16-11.4-17.2-10.7-.6.3-1 1.3-1 2.2 0 .8-1.2 3.7-2.7 6.4-2.3 4-2.5 5.1-1.4 5.8.7.5 2.1.6 3.1.4 1.2-.3 2.2.3 2.9 1.6.9 1.7.9 2.1-.3 2.1-.8 0-1.6-.4-1.8-.8-.1-.5-1.6-1.2-3.1-1.6-2.6-.6-2.8-.5-2.2 1.4.5 1.5.2 2-1.3 2-1.8 0-3.7 2.4-3.4 4.2.1.5-.5.8-1.3.8-2.1 0-1.9-1.6.6-4.9 1.1-1.6 1.9-3.9 1.7-5.2-.3-2-.7-1.6-2.8 2.8-1.4 2.9-3.1 5.2-3.7 5.3-1.7 0-1.6-1.1.3-3.8 2-2.9.9-4.5-2.5-3.7l-2.6.6 2.2-2.1c1.8-1.6 2.7-1.8 4.2-1.1 1.8 1 3.1.6 3.1-1.1 0-.4-.6-.8-1.4-.8-.7 0-2-.8-2.7-1.7-1.2-1.5-1.2-1.6.6-.8 1.1.4 2.8.8 3.8.9.9 0 1.7.6 1.7 1.3 0 1.7 1.5 1.6 3-.2 1-1.2.9-1.6-.6-2.2-1.9-.7-4.3-3.2-4.4-4.5 0-.3.8-.4 1.9-.1 1.4.4 2.2-.5 3.7-4.1 1.9-4.7 3.7-5.8 4.8-3.1.6 1.7 2.6 2 2.6.5 0-.6-1.1-1.6-2.5-2.2s-2.5-1.5-2.5-2c0-1.3 1.6-.9 3 .7m-331.7 15.4c1.7 2.1 3.7 2.1 3.7 0 0-.6-.4-.8-.9-.4-1.7 1-2.1-1.2-.6-2.5.8-.7 1.5-.9 1.5-.4s1.9 1 4.2 1.2c3.8.3 5.7 1.4 5.8 3.4 0 1.1-2.8 1-3.2 0-.1-.5-1.4-1.2-2.8-1.5-2.4-.6-2.6-.4-2.6 3.1 0 2-.4 5-.8 6.7-.7 2.4-.6 2.8.4 1.8.7-.6 1.5-2.6 1.9-4.5.6-2.8 1.1-3.3 3.5-3.4 1.6-.1 3.9.9 5.5 2.2l2.6 2.3-2.5-.6c-1.4-.3-2.2-.2-1.8.2.4.5.3 1.4-.3 2.1-.7.9-.7 1.9 0 3.3 1.4 2.5 1.4 3.4.1 2.6-.5-.3-1.2.7-1.5 2.2-.4 1.5-1 3.6-1.6 4.5-.5 1-.5 1.8-.1 1.8 1.6 0 9.5-4.2 11.5-6.1 1.2-1 2.7-1.9 3.4-1.9.8 0 2.6-.8 4.1-1.7 2.4-1.5 2.3-1.3-.8 2.1-1.9 2-3.4 3.9-3.2 4.2.1.2.2 1 .1 1.6 0 .7-.4.3-.9-1-.9-2.1-3-3.1-3-1.3 0 .4-2 1.6-4.5 2.5q-6.9 2.7-3 4.2c.8.4 1.2 1 .9 1.5s.6.9 2 .9c1.5 0 2.6.6 2.6 1.3 0 .8 1 1.9 2.3 2.5 1.6.8 1.7 1.1.6 1.1-.9.1-2.2-.6-2.9-1.4s-2-1.5-2.9-1.5-2.2-.9-2.9-2c-1.9-3.1-5.9-2.6-7.7 1.1-.9 1.7-1.5 3.3-1.2 3.5.2.2 2.1-.3 4.2-1.1 2-.9 4-1.4 4.3-1.1.3.4-1.3 1.4-3.6 2.4-2.3.9-4.2 2-4.2 2.3 0 1.5 6.4 5 9.5 5.1 2.6.1 3.2.4 2.4 1.4-.7.9-.3 1.5 1.8 2.3l2.8 1.1-3.2-.5c-3.7-.5-3.7-.7-1.9 6 1.1 4 1.8 5 3.4 4.9 3.4-.1 1.5 2-4.6 4.9-3.1 1.5-4.8 2.1-3.8 1.2 1.1-.8 2.4-1.5 2.8-1.5 2.3 0 2.4-4.7.5-10.5-1.2-3.3-2.2-6.1-2.3-6.3 0-.1-2.3.5-5 1.3s-5.1 1.5-5.4 1.5c-1.3-.1 4.7-2.9 6.2-3 .9 0 1.9-.4 2.2-.9.7-1.1-6.2-5.3-7.4-4.6-.5.3-1.1.1-1.5-.5-.4-.7-1.2-.7-2.5 0-2.5 1.3-5.1 1.3-2.7-.1 3-1.7 6.2-5.3 7.5-8.2 1.6-3.8 1.5-4.7-.5-4.7-1 0-3.1-.7-4.6-1.5-2.4-1.2-2.9-1.2-3.3 0-.4.8-1 1.3-1.4 1-.5-.3-1.2.5-1.5 1.7-.4 1.3-1.4 3.1-2.2 4-1.4 1.5-1.4 1.9 0 3.2.8.9 1.3 2.5 1 3.6-.3 1.3.1 2.2 1.1 2.6.9.4 2.3 1.9 3.1 3.5 1 1.8 2 2.6 3 2.3 1-.4 1.5 0 1.5 1.3 0 1.8 2.7 3.8 10.3 7.7 2.1 1 3.6 2 3.4 2.3-.5.4-11-4.9-13.3-6.7-1.2-1.1-1.7-1-2.8.6-1.3 1.7-1.4 1.6-.9-.9.4-2.3-.1-3.5-2.8-6.3l-3.3-3.4-2.3 2.2c-2.2 2.1-2.4 2.1-1.7.3.4-1.1 1.4-3 2.2-4.3 1.3-2 1.3-2.5-.2-4.1-1.6-1.8-1.6-2.1.5-5.7 1.1-2.2 2.8-4.7 3.7-5.7 1.2-1.3 1.3-2 .4-2.9-.7-.7-1.2-1.6-1.2-2.2 0-.5.6-.2 1.3.8 1.3 1.8 1.5 1.7 3.5-.9 1.2-1.5 2.2-3.1 2.2-3.5 0-1.3-5.2-6-6.1-5.5-.4.3-1.3-.5-2-1.7-1.1-2-1-2.1.3-1.1.8.7 1.8 1 2.1.7s1.6.4 2.8 1.5c2.7 2.5 3.9 2.3 5-.7.6-1.7.3-2.8-1.3-4.4l-2.1-2.1-1.9 2.3c-2.2 2.7-2.3 1.6-.4-2.2.9-1.6 1.1-3 .5-3.3-.5-.4-1.4-1.6-2-2.8-.9-1.9-.7-1.8 1.3.4 1.3 1.5 3.1 3.6 4.1 4.8m470.2-.1c-1.6 1-5.2 2.4-8 3.2-4.6 1.3-13.2 4.9-24.2 10.1-4.5 2.1-8.8 6.6-10.5 10.8-.6 1.4-1.4 6-1.8 10.1-.8 7-5 19.6-5.7 17.3-.2-.6.5-3.7 1.6-6.9 1-3.3 2.2-8.7 2.5-12.2.3-3.4 1.2-7.8 2-9.7 2-4.6 9.4-12.5 11.2-11.8.8.3 1.4.1 1.4-.5 0-.5 4.6-2.4 10.3-4.2 5.6-1.7 11.7-3.8 13.6-4.7 7.1-3.2 12.1-4.2 7.6-1.5M134.7 212c5.9 3.4 8.6 6.8 10.2 12.8.7 2.3 1.6 4 2.1 3.7.6-.4 1-.1 1 .4 0 .6-.3 1.1-.8 1.1-.4 0-1.2 1-1.7 2.2-1.4 3.1-3.4 3.5-3.1.6.1-1.3.6-2.9 1-3.6 1.3-2.1-2.6-11.2-6.1-14.3-6.4-5.5-18.7-6.4-29.1-1.9-9.6 4.2-16.9 16.2-13.2 22 .5.8 1.2 1.1 1.7.7.4-.5.1-1.2-.6-1.7-.9-.5-1.1-1.5-.6-2.6.6-1.7.8-1.6 1.7.9 1.3 3.5 2.9 2.5 2.1-1.3-.3-1.9-.1-3 .6-3 .6 0 1.1 1 1.1 2.2 0 1.3 1.2 3.1 2.5 4.1 3 2.2 3.2.9.5-2.5l-1.9-2.5 2.4-2.9c2-2.4 2.5-2.6 2.5-1.1 0 2.6 2.4 1.5 2.8-1.2.3-2.1.5-2.1 1.6-.5 1.9 2.6 6.8 1.1 6.4-1.9-.2-1.5-.9-2.1-2-1.9-1.9.3-2.1.1-1.3-2 .6-1.4 7.6-1.6 12.3-.2 1.6.5 2.2.2 2.2-1 0-.9.4-1.6.9-1.6s.7.8.4 1.9.3 2.4 1.4 3.2c1.6 1.2 1.7 1.8.8 3.6-1.3 2.5-2.5 2-2.5-.9 0-1-.2-1.8-.4-1.8s-1.1-.3-2-.6c-1.1-.4-1.6-.1-1.6 1 0 .9.5 1.6 1 1.6.6 0 1 .7 1 1.5 0 .9-.6 1.2-1.6.8-1.5-.5-1.5-.3.1 2 1.9 3 1.1 3.5-1.7 1-1.7-1.5-1.8-1.4-1.8 1.5 0 4.4 1.6 4.8 5.1 1.3 1.7-1.7 3.5-2.9 4-2.6.4.3-.5 1.8-2.2 3.3s-4 3.5-5 4.4c-1 1-2.7 1.8-3.8 1.8-1 0-2.4.7-3.1 1.5s-.9 1.5-.5 1.5-.3.9-1.6 2.1l-2.4 2 3.8-.3c2-.2 3.7 0 3.7.4s-1.3.8-2.9.8c-1.7 0-3.3.4-3.6 1-.3.5.3 1 1.4 1 1.2 0 2.1.4 2.1 1 0 .5-.7 1-1.6 1-2.5 0-4.7 2.9-4.8 6.2-.1 1.7-.7 3.3-1.5 3.6-1 .3-1.2 0-.8-1.2.8-2-.7-6.4-1.7-4.8-.3.6-.2 1.3.3 1.7.6.3.2 2-.9 4-1.4 2.4-1.8 4.8-1.6 7.7.4 3.9.3 4.1-.8 2-.7-1.3-2.3-2.9-3.6-3.5-1.3-.7-2.7-2.3-3-3.7-.4-1.5-1.5-2.7-3-3-1.8-.5-2.4-1.2-2.1-2.6.2-1 .3-7.8.2-15-.2-12.3-.1-13.5 2.2-18 4.7-9.1 14.6-14.3 27.2-14.4 6 0 7.8.5 12.2 3m1039.8-.9c6.8 2.5 11.9 6.8 14.7 12.3 1.9 3.6 2.2 6 2.4 20.4l.2 16.3-2.9.6c-2 .4-2.9 1.1-2.9 2.6 0 1.1-.8 2.5-1.7 3.2-2.4 1.8-4.6-.5-3.7-4 .3-1.4.1-3.1-.5-3.9-.7-.8-1.1-2-1-2.8.4-3.1-.3-4.2-1.2-2-.5 1.3-1.3 2-1.9 1.7-1.4-.9-1.3.8.2 2.3.9.9.9 1.5.1 2.3-.9.9-1.4.5-1.9-1.7-.4-1.6-1.1-3.4-1.6-4.1s-.7-1.7-.3-2.3.1-1.8-.7-2.7c-1-1.3-1-1.7 0-2 1.8-.7 1.5-2.3-.5-2.4-1.7-.1-1.7-.2 0-.6 3.7-1 1.4-3.3-5.3-5.6-5.1-1.7-6-1.5-3.5.9 1.2 1.3 1.3 1.9.4 2.4-.8.5-.9 2-.5 4.4.6 3.2.5 3.6-1.4 3.6-2.3 0-2.6-1-.8-2.8 1.4-1.4-.1-1.6-2.2-.2-1.3.8-1.3 1.3-.2 3.1 1.9 3.1.6 3.6-2.3.9-2.8-2.7-3.2-4-1-4 .8 0 1.5-.5 1.5-1 0-.6-.9-1-2-1s-2-.6-2-1.4-.3-2.3-.6-3.3c-.5-1.7-.5-1.7.9 0s1.6 1.7 2.5.1c1.1-2 3.6-.9 2.8 1.2-.5 1.2-.2 1.2 1.6.3 2.1-1.1 2.1-1.1-.5-3.3-1.9-1.7-2.4-2.8-2-5 .5-2.6.4-2.8-1.6-2.3-1.4.3-2.1.1-2.1-.9 0-1.7 2.2-1.8 3.8-.2 1.4 1.4 5.2-1.6 5.1-4.1 0-1-.2-1.2-.6-.4-.3 1-1 1-2.4.2-1.1-.5-2.3-.8-2.7-.5s-1.4.1-2.2-.4c-1.1-.7-.6-1.5 2.1-4.1 2.8-2.6 3-3.1 1.2-2.5-1.4.5-2.3.3-2.3-.3s.3-1.1.8-1.2c5.5-.5 13.4-.3 13.8.3.3.5 1.4.6 2.5.3 2.7-.9 2.3 1.2-.6 3.1-3.3 2.2-3.2 3.1.8 4 1.7.4 3.5.9 4 1 .4.1 1.5.2 2.5.3 1.5.1 1.5.3.1 1.4-.9.7-1.8 3.5-2.2 6.7-.3 3-.4 4.8 0 4 .3-.8 1.7-2.7 3.1-4.2 1.6-1.8 2.3-3.4 1.9-4.7-.9-3.5 1.2-2.3 2.9 1.6.9 2.1 1.8 3.3 2.1 2.6.2-.7-.7-3.2-2.1-5.6-3.2-5.4-3.2-5.8-.1-4.4 1.5.7 2.3 1.8 2 2.6-.3.7 0 1.9.6 2.7.5.7 1.4 2.5 1.9 4.1l.8 2.8.1-3.2c.2-8.5-7-18-15.2-20-8.6-2-12-2.4-13-1.4-1.4 1.4-3 1.4-2.2.1 1.2-1.9-3.1-1-8.5 1.7-6.2 3.2-8.2 5.6-11 13.3-2 5.2-2.1 5.3-1.6 1.6.3-2.2 1.8-6 3.3-8.5 5.9-9.5 19.8-12.9 32.8-8M863.3 217c-.3 1-1.4 2.2-2.5 2.6-2 .6-2 .6 0 2.5q4.35 3.9 2.1 9c-.9 2.2-1.4 2.7-2 1.7-.7-1-1.2-1.1-2.6-.1-3.7 2.6-7.5 4.4-8.1 3.9-.3-.3 0-2.3.6-4.5 1.6-5 1.5-10.8 0-11.4-2-.7-.6-1.5 3.2-1.8 1.9-.2 4.6-1.1 5.9-2.1 3.1-2.3 4-2.3 3.4.2m-86.6 20.7c5 4.8 12.8 15.1 17.6 22.9 2 3.4 4.4 6.7 5.2 7.4s1.5 2 1.5 2.9.7 2.9 1.5 4.4 1.6 3.6 1.7 4.5c.2.9.7 2 1.2 2.4.5.3 1.1 1.2 1.2 2 .1.7.7 2.6 1.3 4.3 3.6 10.4 4.1 13.5 2.9 15.5-.7 1.1-1.9 2-2.6 2s-1-.5-.7-1c.3-.6-.1-1-1-1-1.2 0-1.5.6-1 2 .4 1.1.2 2-.4 2s-1.1-.7-1.1-1.6c0-1.2-.6-1.5-2.5-1-1.7.4-2.3.2-2.1-.6.9-2.8 1.7-10.2 1-9.6-1.3 1.3-5.4-4.5-5.4-7.7 0-1.2.6-1.5 2-1 1.1.3 2 .2 2-.3s-.9-1.7-2-2.7c-1.9-1.7-2-1.7-2 0s-.2 1.7-2-.3c-1.1-1.2-2-2.6-2-3.1 0-1.9-3.2-4.2-5.1-3.6-2.3.8-2.6-1-.3-1.9 2.6-1 1.5-2.8-10.8-18.9-2.6-3.4-5.1-6.7-5.6-7.2-3.6-4.6-6.2-8.4-6.2-9.2 0-.5 1-1.4 2.2-2 1.8-.8 2.6-.6 4 1.1 1.5 1.8 1.9 1.9 2.7.6.7-.9.7-1.8.1-2.4s-1-1.4-1-1.8c0-1.7 2-.7 5.7 2.9m-611.2 25.2c22.5 4 26.5 5.1 26.5 7.1 0 1.3-2.1 1.3-5.4.1-1.5-.7-2.6-.6-2.8 0-.2.5-1.5.6-3.4 0-3.6-1-5.6.2-4.6 2.8.5 1.4.4 1.4-1.1.2-1.1-.9-3.1-1.2-5.8-.8-3.8.5-4.1.4-3.7-1.7.4-1.9.1-2.2-1.8-1.8-1.6.3-2.1.9-1.6 2.1.5 1.4.4 1.4-1.1.2-2.1-1.7-2.2-3.1-.2-3.1 2.6 0 1.6-1.7-1-1.9-4.8-.3-5.5-.4-5.5-1.4 0-.5.7-.7 1.5-.4.8.4 1.7.1 2.1-.5.5-.7-.3-.9-2.5-.6-1.7.2-2.9.2-2.6 0 .5-.5-3.9-4.2-4.9-4.2-1.1 0-.6 4.6.6 5.8.7.7.8 1.2.4 1.2-.5 0-1.5-.8-2.2-1.8-1.1-1.4-1.5-1.4-2.3-.3-.7 1-1 1.1-1.6.1s-1.1-.9-2.1.5c-1.2 1.7-1.4 1.6-2.5-.9-1.4-3-.7-4.2 1.8-3.1 3.5 1.5 5.5 1.3 5-.6-.3-1.3 0-1.6 1.1-1.2 1.1.5 1.4.2.9-1-.5-1.3.2-1.2 3.1.7 2.5 1.6 7.5 3.1 15.7 4.5m165.5-2.5c0 .8.7 1.9 1.5 2.6s1.5 2.7 1.5 4.4 2 8.1 4.5 14.1c5.3 13 5.8 15.9.9 5.7-3.9-8.1-6.3-9.3-8.4-4.1-.7 1.7-1.8 3.6-2.5 4.2-1.6 1.7-4.5 9.3-4.5 12 0 1.3.6 2.9 1.3 3.7 1 1.2.9 1.2-.4.2-2.1-1.6-3.9.3-3.9 4.1s-3.9 12.7-5.6 12.7c-.7 0-1.8 1.8-2.4 4-1.2 4.4-2.7 5.9-3.6 3.6-.5-1.3-1.2-1.1-4 1l-3.4 2.6v-3.1c0-1.8.4-3 .8-2.7.5.3.6-.8.4-2.5-.4-3-2.2-4.1-2.2-1.3 0 1.4-.3 1.4-1.5.4s-1.5-.9-1.6.6c-.1 1.7-.2 1.7-.6-.1-.5-1.8-3.9-5.5-5.1-5.5-.2 0-.1.7.2 1.6.5 1.2 0 1.5-2.2 1.2-2.1-.2-2.7-.8-2.7-2.6-.1-3.9-4.1-7.2-8-6.7-3.3.4-3.4.4-2.9-3.3 1.1-7.9 5.9-21.2 7.7-21.2.5 0 .7 1.4.4 3.2s-.3 2.7 0 2c.2-.6.8-1.2 1.3-1.2s1 .6 1.3 1.2c.2.7.2.1 0-1.3s.1-3.6.6-5c.7-1.7 1-1.9 1-.7.1 1 .4 1.8.9 1.8.4 0 .5 2.2.4 5-.4 4.7-.3 5 2.1 5 3.2 0 8.3 2.2 12.6 5.4 1.9 1.4 4.3 2.6 5.4 2.6 1.6 0 1.9-.6 1.5-4-.3-3.6-.1-4 1.9-4s2.3-.4 1.7-2.8c-.4-1.5-1.3-3.1-2.1-3.5-1.7-1.1-1.7-6.6.1-8.6 2-2.2 2.4-11 .6-12.1-1.1-.7-1-1.1.3-2.4.9-.9 1.8-1.2 2.1-.7.4.5 0 1.1-.6 1.4-1 .3-.8.9.4 2.3 1.4 1.4 2 1.6 3 .6s1-1.5-.2-2.3c-1.1-.8-1.2-1.2-.2-1.6.6-.2 1.2-1.2 1.2-2.2s.8-1.7 2-1.7c1.3 0 1.9.5 1.6 1.3-.3.7-.1 1.3.4 1.3.6 0 1-.4 1-1 0-.5.6-.7 1.3-.5.6.3 1.8.1 2.6-.4 1.2-.8 1.2-1.3-.3-3.6-1.7-2.6-1.7-2.6.3-1.5 1.2.6 2.1 1.7 2.1 2.4M201.8 277c.7.3 4.3.3 8-.2 7.8-1 11.4-.5 16.7 2.2 2.2 1.1 4.6 2 5.3 2 2 0 8.2 3.9 8.2 5.1 0 .6-.9.7-2.1.4-4-1.3-5.4-1.2-7.2.3-1.6 1.5-2.1 1.5-5-.1-3.1-1.6-7.9-2.2-26-3.3-9.6-.6-11.1-2.4-1.9-2.4 6.1 0 6.2-1.6.1-2.9-1.8-.4-3.4-1.2-3.7-1.9-.4-1.2 4.8-.7 7.6.8m629.5 14.7c-.2 5.4 0 11.8.5 14.3l.8 4.5 2.2-4c2-3.9 2.1-3.9 2.2-1.2 0 1.6-.4 2.6-1 2.2-.5-.3-1 .3-1 1.4s-.4 2.3-1 2.6c-1.1.7-1.3 5.4-.4 7.9.3.9 1 1.3 1.5 1s.9.4.9 1.6c0 1.4-.4 1.9-1.2 1.4-.9-.5-.8-.2.1 1 1 1.1 1.1 2 .4 2.7s-.1 2 1.8 4.1c3.6 3.8 3.8 6 .2 2.7-1.4-1.3-2.3-1.8-1.8-1 .5.9.4 1.2-.3.7-.7-.4-1.2-1.4-1.2-2.2s-1.1-1.4-2.7-1.5c-2.6 0-2.7-.1-.6-.9 1.9-.8 2.1-1.4 1.6-4.7-.3-2.1-1.2-5.3-2-7-2.3-5-1.3-35.3 1.1-35.3.2 0 .1 4.4-.1 9.7m-399.1 49.8c1.2-.4 2.9-1.2 3.6-1.7.8-.7 1.2-.7 1.2.2 0 .6-.9 1.4-2 1.7-1.9.5-2.9 3.3-1.1 3.3 1.5 0 10.3 4.2 9.8 4.7-.3.2-2.9-.7-5.9-2.1-4.9-2.4-5.4-2.4-6.6-.9-.6.9-.9 2.6-.6 3.7.6 1.9.5 1.9-1 .7-1.2-1-1.4-1.7-.6-2.5 1.2-1.2 1.3-2.6.1-2.6-.5 0-4 2.7-7.9 5.9-6.8 5.7-7 6-4.4 6.3 2.3.3 2 .5-1.8 1.4-4.4 1-4.5 1.1-4.3 4.9.2 2.1.5 4 .7 4.2.3.4 7.6-2.7 8.6-3.7.3-.3 1.8-.6 3.5-.8 4.2-.5 2.4.9-5.3 4-5.8 2.3-6.7 2.9-6.4 5 .1 1.4-.1 1.8-.6 1.1-.6-1-1.7-1-4.2-.3-5.8 1.7-6.5 1-2.9-2.9 1.2-1.3 2.2-3.3 2.2-4.6s.6-2.6 1.3-2.9c.8-.3 1.4-1.2 1.4-2 0-1.2-.6-1.3-3.2-.5-4.2 1.2-6.1 1.1-5.3-.1.3-.6 1.5-1 2.6-1s3.2-.6 4.7-1.4c2.3-1.2 2.8-2.2 3-5.4.2-3-.1-4.1-1.3-4.4-1.3-.2-1.3-.6.5-2 2-1.8 2-1.7 2 3.7 0 3 .3 5.5.7 5.5.8 0 8.4-5.6 12.9-9.6l3.4-3.1-2.2-2.9-2.2-2.9 2.6 2.3c1.9 1.8 3.2 2.2 5 1.7M899 391.9c0 .5.9 1.1 2 1.4 1.5.4 2 1.4 2 3.6 0 2.4-.4 3.1-2 3.1-1.2 0-2 .7-2 1.7s-.7 2.7-1.5 3.7c-.8 1.1-1.5 3.1-1.6 4.5 0 2.3-.1 2.4-.9.6-.7-1.9-.8-1.9-1.5-.2-.7 1.6-1 1.4-2.6-1.2-1.9-3.2-4.4-4-5.2-1.9-.4 1-.8.9-1.6-.2-.7-1-1.1-1.1-1.1-.3 0 .7-.4 1.3-1 1.3s-.5-1 .2-2.5c.6-1.4 1.6-2.4 2.2-2.2s1.9-.9 2.8-2.5c1-1.5 2.5-2.8 3.3-2.8s1.5-.5 1.5-1.1c0-.5.4-.8.9-.4 1.2.7 4.1-2.2 4.1-4.1 0-.8.5-1.4 1-1.4.6 0 1 .4 1 .9m-30.6 25.9c-.4 1.5-.8 2.9-.8 3.2-.1.3-.5 1.1-.9 1.7-.5.9-.3 1.3.7 1.3.9 0 1.6.4 1.6 1 0 .5-.7 1-1.6 1-1 0-1.4.6-1.1 1.4.4 1-.7 1.5-4.4 1.8-2.7.3-5.2.7-5.4 1-1 .9 2.1 5.7 4 6.2 1.6.5 1.7.8.6 1.5-1.5 1-5.1.3-5.1-1 0-1.4-3-1.1-3.1.3-.1.7-.1 2.5-.1 4 0 1.6-.3 2.8-.8 2.8s-1.4 1.6-2.1 3.4c-1.7 4.6-2.4 3.9-2.7-2.4-.2-4.3.1-5.1 1.3-4.6q1.5.45 1.5-1.2c0-.9.3-3.4.6-5.5.6-3.1.4-3.6-.8-3.2-1.2.5-1.5-.1-1.5-2.1 0-1.6-.6-3-1.2-3.2-2-.7-1.2-2.1 1-1.7 1.7.3 2 0 1.6-1.5-.3-1.1-.1-2 .4-2s.9.7.9 1.5c0 2.3 2.5 1.8 3.8-.8 1.1-2.1 1.2-2.1.9.7-.2 3.2-.4 3.1 7.2 2.7 1.8-.1 5-6.4 5.2-10.6.1-1.8.2-1.8.6-.2.3 1 .1 3.1-.3 4.5m81.1 19.9c4.6 8.7 5.8 11.9 6 16.3.2 3.7 1.2 7 2.9 10 1.4 2.5 2.6 5.7 2.6 7.1 0 1.5.7 3.2 1.5 3.9s1.5 1.6 1.5 2.1-.7.9-1.5.9-1.5-.4-1.5-.9-1.3-1.1-3-1.3q-3-.45-3 .9c0 1.5-5.7 1.8-8 .3-1-.6-1.1-1-.2-1 1.8 0 1.5-2.4-.9-7-2.3-4.3-5.5-5.4-7.9-2.5-1.8 2.2-3.2.8-2.9-2.9.2-2.2-.4-3.9-1.9-5.4-2.8-2.8-3-2.8-2.5.2.3 1.3 0 2.7-.6 3-2.3 1.4-1-4.4 1.9-9.1 2.5-3.8 3-5.8 3-10.6 0-5.1.2-5.8 1.4-4.7.8.6 1.2 1.9 1 2.8-.5 1.5-.4 1.5.6-.1 1.3-2.1 3.4-2.3 2.7-.3-.7 1.8.7 7 2.3 8.8.6.7 1.8 2.2 2.6 3.3 1.5 1.9 1.5 1.9.9-.9-1.6-7.3-1.7-8.6-.9-8.6.5 0 1.4.8 1.9 1.8.6 1 2.1 3.6 3.5 5.8 2.3 3.6 2.5 3.7 2.8 1.5.2-1.3 0-2.6-.5-3-.9-.6-5.3-9.5-5.3-10.7 0-.4-.7-1.2-1.6-1.8-1.3-1-3.8-8.6-2.9-8.6.2 0 2.9 4.8 6 10.7m65.1 37.1c1.8 1.1 2.6 6.2 1.3 7.8-.6.8-2.5 1.4-4 1.4-2.5 0-3 .5-3.6 3-.7 3.7-2.5 4.8-8 5.2-.6.1-.9.7-.6 1.5.3.9-.3 1.3-2.2 1.3-1.4 0-2.4.4-2 1 .3.5 1.3.6 2.3.3 3.1-1.2-.7 2.6-4.4 4.3-1.9.9-4.3 3.1-5.5 5-2.4 3.9-5.4 4.7-4.4 1.1.4-1.2 1.3-2.7 1.9-3.2.7-.6 1.5-1.5 1.7-2.1.6-1.9 11-12.5 16.7-17.3 2.9-2.4 5.9-5.6 6.8-7.2 1.5-3 2.2-3.4 4-2.1m-584.1 13.4c-.8 1.7-1.3 4-.9 5 .3 1 .1 1.8-.5 1.8-1.4 0-1.4 7.9-.1 8.1.6.1 1.5.2 2.2.3s2.7 1.6 4.6 3.3c1.9 1.8 3.8 3.1 4.2 2.8s1.2.8 1.8 2.3c1.9 5 3.9 12.2 3.5 12.2-.8 0-2.9-2.5-3.8-4.5-.7-1.6-1-1-1.8 3.2-.5 2.9-1.4 5.3-1.9 5.3-.6 0-.7-1.1-.3-2.8.4-1.5.7-3.6.7-4.7-.1-1 .3-2.5.9-3.1.7-.8.7-1.4-.1-1.9-.5-.3-1 0-1 .8s-.7 1.7-1.5 2.1c-1.5.6-3.5-2.1-3.5-4.8 0-2.5 2-1.9 2.1.6.1 2.1.2 2.1.6.3.3-1.1 1-2.3 1.5-2.6s-.2-1.6-1.7-2.7c-1.5-1.2-3.1-1.9-3.6-1.6s-.6-.2-.3-1c.4-1.1 0-1.6-1.5-1.6-1.2 0-2.1-.5-2.1-1 0-1.1-4.7-.3-6.5 1.1-.6.4-2 .2-3.3-.5-2.1-1.1-2.2-1.4-.8-2.5.9-.8 1.6-2.3 1.7-3.5 0-1.1.3-1.5.6-.8.3.8 1.1.2 2.2-1.7.9-1.7 3-5 4.7-7.4s3.5-6.1 4-8.3l.8-3.9.4 4.3c.2 2.5-.3 5.5-1.3 7.4m545.3 81.5c0 5.6.4 7.1 2.1 8.4 1.2 1 2.1 2.3 2.1 3.1 0 .7 2.2 2.3 4.8 3.6 10.8 5.3 15.9 8.3 19 11.3l3.4 3.1-3.9 2.4c-3.9 2.4-8.4 2.9-15.7 1.6-2.1-.4-3.9-1.2-4-1.7-.1-.6-.5-1-1.1-1-2.4-.1-7.6-3.1-8.1-4.7-.3-1.1-1.5-1.8-3-1.8-2.5 0-3-1.4-1.5-3.9.6-1 .1-2.1-1.7-3.6-2.1-1.8-2.9-2-4.9-1.1-1.2.6-2.1 1.7-1.8 2.3.2.7 0 1.3-.5 1.3-.6 0-1-1.4-1-3.1 0-2.2.5-3.2 2-3.6 1.1-.3 2-.9 2-1.4s.8-.9 1.8-.9c1.2 0 1.3-.3.5-.8-2.2-1.4-2.1-12.2.1-12.2.7 0 1.9-.6 2.6-1.4.6-.8 2.1-1.7 3.3-1.9s2.5-.5 2.8-.6c.4 0 .7 2.9.7 6.6m-540.1 51.2c-.7 3.3.1 4.6 3.1 5.5 1.2.4 2.2 1.2 2.2 1.7s.7.9 1.5.9 1.5-.5 1.5-1.1 1.2-.9 2.8-.7c2.4.3 2.8-.1 3.2-3.2l.5-3.5 1.5 3.2c1.6 3.6 3 4.3 3.1 1.5 0-1.2.3-1 1.1.8 2.5 6 3.3 7 5.1 7 1.1 0 1.7.3 1.3.7-.4.5-.9.6-1 .3-.3-.9-4.2 3.4-4.9 5.4-.5 1.1-1.3 1.6-2.2 1.2-1.3-.4-1.2-.1.2 2 1.2 1.9 2.2 2.4 4 1.9 1.3-.3 2.3-.1 2.3.5 0 .5-.6 1-1.2 1-.7.1-3.1.3-5.3.6-3 .3-3.6.2-2.3-.6s1.4-1.4.5-3.5c-1.3-2.7-3-3.5-2.1-1 .5 1.1.2 1.3-1 .9-1.9-.7-2 0-.5 2.7.8 1.5.7 2.4-.2 3.5-1.1 1.3-.9 1.4 1.5.8s2.7-.4 2.3 1.2c-1.9 6.4-1.9 7 .8 8.2 2.4 1.1 2.7 1 3.2-.8.4-1.4 1.2-2 2.7-1.8 3.2.5 2.6-2.4-1.1-4.7-3.5-2.2-4.2-3.5-1.8-3.5.8 0 3.3 1.8 5.5 3.9 3.2 3.1 3.7 4 2.4 4.5-.9.4-1.4 1.3-1 2.1.3.8.2 1.5-.2 1.5-1 0-4.1 5.7-3.5 6.4.3.3 1.8.3 3.2 0 2.1-.5 2.4-.4 1.4.7-.7.7-1.3 2-1.3 2.8 0 2-4.7 4.4-5.3 2.7-.3-.8-.8-.8-1.8.1-.9 1-1 1.3-.1 1.3.7 0 1.2.8 1.2 1.9 0 1.4-.6 1.7-2.5 1.3-4.4-.8-2.7 1.7 2.9 4.3 3 1.4 5.8 2.5 6.1 2.5.4 0 5.4 2.2 11.2 5 5.8 2.7 10.9 5 11.3 5s1.4.8 2.1 1.7c.8.9 1 1.4.4 1.1-3-1.6-18-8.4-24-10.8-3.8-1.5-8.8-3.5-11-4.5-3.4-1.5-3.8-1.5-2.6-.1.9 1.1 1 1.6.2 1.6-2.5 0-.8 1.8 3.1 3.3 2.3.9 3.9 2 3.5 2.3-.3.3-3.1-.6-6.2-2-3.2-1.4-6.1-2.4-6.5-2.1-.5.3-1 .1-1.2-.5q-.3-.9-1.8 0c-1.3.8-1.3 1 .1 1 .9 0 1.9.7 2.3 1.5.3.8 1.2 1.2 2.1.9.9-.4 1.5-.2 1.3.5-.2.6 1.5 2 3.7 3.1l4 2-3.5-.6c-1.9-.3-5.3-1.6-7.5-2.8-2.8-1.5-4.8-2-6.5-1.5-1.4.4-4.5.7-6.9.8-4.1.1-4.3.2-2.9 1.8 2.3 2.8 3.7 6.9 2.8 8.3-1 1.6-3.1.4-2.4-1.5.7-1.6-1.2-5.5-2.7-5.5-.5 0-1.5 1.4-2.1 3-1 3.1-3.5 3.6-3 .6.2-1-.4-1.6-1.7-1.6-1.4 0-1.9.5-1.5 1.4.8 2-2.5 3.5-6.3 2.9-2.6-.4-3.3-.2-3.3 1.1 0 .9.6 1.3 1.4 1s1.7-.1 2.1.5c.4.7-.3 1.1-1.7 1.1-2.8 0-5.4-1.5-4-2.4.5-.3.7-1.7.4-3.2-.5-2.7-4.4-4.9-6.9-4-.8.3-1.6-.1-1.9-.9-.4-.8-1.2-1.5-1.9-1.5-1.4 0-5-3.8-4.3-4.5.3-.3 1.9.2 3.6 1.2 3 1.7 3.2 1.7 4.6-.2 1.3-1.8 1.3-2.2-.1-3.8-.9-.9-3-1.7-4.7-1.8-1.7 0-2.5-.3-1.8-.6 2.5-1 1.2-2.5-1.7-1.8-4.3.9-4.7-1.1-.6-3.1 1.9-.9 3.5-2.2 3.4-2.8-.3-2.5.2-3.6 1.6-3.6.8 0 1.5.7 1.5 1.5s.5 1.5 1 1.5c.6 0 1-.8 1-1.8 0-.9 1-2.2 2.1-2.7 1.2-.6 2.1-1.4 1.9-1.9-.3-1.3 2.8-2.8 4.2-2 .7.4.8.3.4-.4s-.1-1.2.6-1.2c1.8 0 5.1-5.7 4.4-7.5-.3-.9 0-1.2.8-.9 1.5.6 3.8-3.9 4.3-8.6.2-2 .8-4.9 1.2-6.5.9-2.9.9-2.9 1 1 .2 5.1 2.1 8.6 2.1 3.7 0-2.2.5-3.2 1.5-3.2.8 0 1.5-.5 1.5-1 0-.6.6-1 1.4-1 .9 0 1.7-1.8 2.2-5.3.7-4.8.8-5 1.5-2.2l.7 3 .1-3.3c.1-2.3.7-3.5 1.9-3.8 1.4-.4 1.6-1.4 1.3-5.1-.2-3.4 0-4.4.9-3.8.7.4 1 1.9.7 3.4m481.8-1.2c.4 1 .9 2.9 1.1 4.3.3 1.4.9 2.6 1.5 2.8.5.2.9 1.2.9 2.3 0 1 .7 1.9 1.5 1.9s1.5.4 1.5 1c0 .5.5 1 1 1 .6 0 .5-.8-.2-2-1.1-1.7-1-2.2.2-3 .9-.5 1.9-.5 2.7.1 1.1.9 3.7 10.3 3.8 13.7 0 .7.7 1.7 1.5 2.2 1.2.7 1.2 1.2-.4 2.8-1.1 1.3-1.4 2.2-.6 2.7.5.3.7 1.1.4 1.7-.5.8.6.9 3.5.5l4.3-.5-2.1 1.9c-1.2 1.1-3.2 2-4.4 1.9-4.2-.4-5.7 0-5.7 1.5 0 .8-.4 1.5-1 1.5-.5 0-1-.8-1-1.8s-.5-2.3-1.2-3c-.9-.9-.7-1.6.7-3.2 1-1.1 2.4-2 3.2-2 3.3 0-.4-3.8-4.6-4.6-1.7-.4-3.1-1-3.1-1.5s-1-.9-2.3-.9-2.8-.5-3.5-1.2c-1.3-1.3-1.6-9.8-.6-17.2.7-4.8 1.7-5.8 2.9-2.9M552 624.3c.5 1.2.9 1.8.9 1.4.1-.5 1.1-.1 2.2.7 1.6 1.1 2.6 1.2 3.9.4s2.3-.6 4.6 1c1.6 1.2 5 2.6 7.6 3.1 2.6.4 5.3 1.3 6 1.9s4.2 1.5 7.6 2.2c3.5.6 7.6 1.6 9 2.2l2.7 1.1-2.5.7-2.5.7 3 1.2c4.1 1.7 30 2.7 31.8 1.3.9-.8 4.6-.7 13.2.1 14.7 1.5 15.5 3.4 1.2 2.9-8.9-.4-10.1-.2-11.8 1.7-1.9 2-1.6 5.1.4 5.1.7 0 .7.4-.1 1.2-.7.7-1.2 2.2-1.2 3.5s-.4 2.3-1 2.3c-.5 0-1-1.6-1-3.6 0-2.9-.3-3.4-1.7-3-2.2.7-5-.8-3.4-1.8 1.7-1.1 1.3-5.3-.5-6-3-1.1-15.2-.7-16.1.6-.9 1.5-3 10.3-3.9 17-.6 4-.4 4.8.9 4.8.9 0 1.9.5 2.3 1.1.7 1.3-1.3 2.9-3.6 2.8-1 0-1.1-.2-.2-.6 1.9-.7 1.4-2-.9-2.6-1.2-.3-1.8-1-1.5-1.5s1.2-4.9 2-9.8c1.2-7.8 1.2-9.1-.1-11.1-1.1-1.6-2.5-2.3-4.8-2.3-2.7 0-3.4.5-4 2.7-.5 2-.2 3.1 1.2 4.1 1.7 1.3 1.7 1.3-.2 1-1.7-.2-2.2.6-3.3 5.2-.7 3-1.5 6.6-1.8 8-1.5 5.9-1.4-.6 0-8.9 2.1-12.2 2.1-12.8-1.1-13.9-2.6-1-2.5-1.1 1.7-1.2l4.5-.2-5.5-1.8c-3-1.1-6.5-1.9-7.8-1.9-1.3-.1-2.1-.5-1.7-1 .9-1.5-1.4-2.4-2.9-1.2-1 .9-1.7.8-2.7-.2-.8-.7-2.7-1.3-4.4-1.3-2.1.1-2.9-.3-2.8-1.4.2-1-.6-1.5-2.5-1.6-1.5-.1-2.1.1-1.4.3 1.4.5 1.6 2.3.3 2.3-.6 0-2.2-1.1-3.7-2.5s-3.5-2.5-4.5-2.5c-1.7 0-2.4-1.2-1.6-2.4.1-.2-.7-1.4-1.8-2.6l-2-2.3 2.3 1.2c1.3.7 2.7 2.2 3.2 3.4m237-.1c0 1 .5 1.8 1.2 1.8.6 0 .4.6-.6 1.3-1.8 1.3-1.8 1.4 0 2.2 1 .4 3.3.7 4.9.6 1.7-.1 3.7.3 4.5.9 1.3.8 1.2 1-.5 1.1-1.1.1-2.9 0-4-.1s-1.7.1-1.3.6c.4.4 2 .7 3.6.6 2.6-.1 2.8.1 2.3 3.6-.4 3.3-.5 3.5-1.1 1.2s-1-2.5-5.1-2.2c-2.4.2-4.6.5-4.7.7-.2.2-.6 3.1-.9 6.6-.4 4.3-.3 6 .5 5.5.5-.3 1.2-.1 1.4.6.3.9.9.8 2.2-.5 1-.9 2.3-1.7 3.1-1.7.7 0 1.6-.6 1.8-1.3.3-.7.6-.5.6.5.1.9-.7 2.1-1.6 2.7-1.6.8-1.4 1 1 1.6 1.5.4 3.3.5 4.1.2s1.9 0 2.5.7c.8.9 2.6 1.2 5.9.8 5.6-.6 5.8-.7 4.2-2.7-.7-.8-1.1-1.5-.9-1.6 3.5-.6 6.9-.5 6.9.2 0 .5-.9.9-2 .9s-2 .4-2 1c0 .5.7 1 1.5 1 1.7 0 3.9 3.6 3.2 5.4-.4.9.4 1.1 2.6.8 2.7-.4 2.9-.2 2.4 1.7-.8 3.3.2 2.5 1.9-1.4 1.6-4 1.7-4.8.5-4-.5.3-1.3 0-1.7-.6-.5-.9.1-1 2.2-.5 3.5.9 4.2 1.5 2.8 2.4-.9.6-2.7 4.2-2.1 4.2.1 0 3.2 1.1 7 2.4 3.7 1.3 6.7 2 6.7 1.5 0-.9 6.7-.5 7.7.5.3.3 1.8.6 3.3.6 1.9 0 3 .7 3.8 2.5 1.2 2.6 3.2 3.4 3.2 1.3 0-1.6 3.9 2.2 5.6 5.4.8 1.5 1.1 3.3.8 4.2-.5 1.2.3 1.4 4.1 1.2 2.6-.2 5.1-.9 5.5-1.6.6-.9 1.3-.7 2.9.9 2.2 2.2 2.8 4.1 1.2 4.1-.5 0-1.6.3-2.5.6-1.1.4-1.6.1-1.6-1 0-.9.5-1.6 1.2-1.6.6 0 .9-.2.6-.5-1.3-1.3-3.8.8-3.2 2.9.4 1.7-.1 2.4-2.7 3.3-4.8 1.8-3 2.4 2.3.8 4.5-1.3 6.3-1.1 5.2.6-.2.4-1.1.6-1.9.2-1.7-.6-2 1.4-.5 3.7.8 1.2 1 1.2 1-.5 0-1.8.1-1.8 1.6.3.9 1.3 1.3 2.9 1 3.7s-.1 1.5.4 1.5c.6 0 1 .7 1 1.5 0 2.7-2 1.6-2.6-1.5-.4-1.7-1-3-1.5-3-.4 0-1.5-.7-2.4-1.6-1.2-1.2-1.9-1.4-2.7-.6s-1.5.9-2.5.1c-.9-.8-1.3-.8-1.3-.1 0 1.6-3.9 2.5-5.5 1.2-1.7-1.4-5.5-.4-5.5 1.6 0 1.7 2.6 1.9 3.3.1.4-.9.7-.9 1.5.1q.9 1.35 3.6.6c2.3-.5 2.6-.4 2.4 1.7-.4 3.1-3.6 4.5-5.3 2.3-.8-1.2-1.4-1.4-1.9-.6-.9 1.5-4.6 1.6-4.6.1 0-.5-.5-.7-1.2-.3-.8.5-.6 1.1.5 1.9 2.3 1.7 1 2.6-2 1.4-1.4-.5-3.4-.7-4.4-.4-1.2.4-1.9-.1-2.4-1.5-.4-1.3-1.2-1.9-2.1-1.6-1.5.6-4.7-.8-7.2-3.2-.7-.6-2.3-1.2-3.5-1.2s-3.9-.3-6.1-.7l-3.8-.6 1.7 2.7c1 1.5 2.4 2.5 3.1 2.2s1.6-.1 2 .5c.3.6 2 1 3.8.9 4.6-.3 5.6-.1 5.6 1 0 .5-1.2 1-2.7 1-1.7 0-2.3.3-1.6.8.9.6.9 1.3 0 3.2-1.8 3.5-4 3.5-6 .1-1-1.6-2.6-3.2-3.6-3.6-1.2-.4-2.1-1.9-2.5-4.5-.5-3.5-.9-4-3.4-4-1.9 0-2.3-.3-1.3-.9 2-1.3 0-2.2-6.5-2.8-5.5-.6-5.5-.6-3.6-2.7 2.6-3 2.9-8.4.5-9.3-1-.4-2-1-2.3-1.4s-2.1-.4-4 0c-3.2.6-3.5 1-3.8 4.4-.3 2.9-.7 3.7-2 3.5-.9-.2-2.1-1.3-2.7-2.4-.7-1.4-1.8-2-3.5-1.8-1.6.1-3.6-.9-5.7-2.9s-4.3-3-6.5-3.1c-2.1-.1-3.2-.6-3-1.4.1-.7-.8-1.2-2.2-1.2-1.3 0-3.2-.3-4.2-.7-1.5-.5-1.6-.2-1 2.3.4 1.6 1 3.9 1.3 5.1.3 1.3.1 2.3-.5 2.3-.5 0-1.8-3.3-2.7-7.3-1.1-4.6-2.5-7.8-3.9-8.9l-2.1-1.8h2.8c3.6 0 3.4-1.4-.3-3-2.7-1.1-2.9-1.4-1.4-2.5 1-.7 1.4-1.7.9-2.5-.4-.7-.2-1.6.6-2.1.8-.4 1.4-2.5 1.4-4.9 0-3.1.3-4 1.5-3.7 1 .2 1.5 1.3 1.4 3.5-.2 2.5.2 3.2 1.7 3.2 1.1 0 1.9-.7 1.9-1.6s.6-1.4 1.3-1.1c2.5 1 3.8-1 4.4-6.6.4-4 .2-5.7-.6-5.7-1.1 0-1.6-6.7-.5-9.3.4-1.2 1.2-1.3 4.1-.4s3.6.8 4.4-.4c1.1-2.2 3.9-2 3.9.3m-29 2.1c0 .7-.6 1.9-1.2 2.6-1.1 1-1 1.2.2 1.1 3.3-.5 4.1 0 3.5 2-.5 1.5-.2 2 1.2 2.1 1.7.1 1.7.2.1.6-1 .2-1.8 1.3-1.8 2.3 0 2.6 1.7 3.4 2.2 1.2.7-2.6 3.8-2.4 3.8.2 0 1.6-.2 1.8-.9.7s-1.1-1-1.9.4c-.7 1.3-1.7 1.6-3.7 1.3l-2.7-.6 2.8 2.4c2.8 2.2 2.8 2.3.7 2.4-1.3 0-2.3-.5-2.3-1 0-.6-.9-1-2-1s-2 .7-2 1.5-.4 1.5-1 1.5c-.5 0-1-.7-1-1.5s-.4-1.5-1-1.5c-1.9 0-1-3.2 1-3.7 1.6-.4 1.8-.8.9-1.9-.7-.8-2-1.2-3-.9-1.4.5-1.7.2-1.3-.9.3-.9 1.2-1.6 1.9-1.6.6 0 2-1 3.1-2.1 1.8-2 1.8-2.2.2-3.2-1.5-1-1.4-1.2.5-2.3 2.9-1.6 3.7-1.6 3.7-.1m-92.6 18.2c-.5 1.2.3 1.5 3.7 1.5h4.4l.3 7.5c.4 9-1.3 10.1-2.1 1.4-.6-7-.8-7.3-3.6-6.4-1.8.5-2.1 1.4-2.1 6.8 0 7.9.7 10.5 3.1 11.2 2.5.8 2.4 2.5-.1 3.2-1.6.4-2 1.4-2 4.8 0 3.5.5 4.6 2.5 5.9 3.1 2 3.2 3.4.3 3.8-2.3.3-2.3.5-1.9 11.5.3 10.4.2 11.2-1.7 12.2-2.5 1.3-4.3 1.4-2.1.1 1.4-.8 1.7-2.9 1.8-12l.2-11-3.1-.6c-3.7-.8-4.5-1.8-2.5-3.4 1.2-1 1.5-.9 1.5.4 0 1.2.9 1.6 3.6 1.6 2.1 0 3.3-.4 2.9-1-.3-.6-1.8-1-3.3-1-1.8 0-2.3-.3-1.4-.9.9-.5 1.2-2.3 1-5.2-.3-3.7-.7-4.4-2.8-4.9-3.4-.8-3.2-3.4.3-3.8l2.8-.3-.6-9.7c-.4-5.3-.8-10.3-1-11-.3-.7-2.3-1.2-5.4-1.2-2.9 0-5.3.5-5.8 1.2-.4.7-.8 6.7-.8 13.2 0 7.1-.4 12.1-1 12.3-1.4.4-.7-24.7.7-26.4.7-.8 3.5-1.3 7.9-1.3 5.7 0 6.7.3 6.3 1.5m568.6 37.7c1.1 1.2 2 2.7 2 3.4s.3 1.9.6 2.8c.5 1.4-.4 1.6-6.4 1.6-3.9 0-7.3.4-7.7 1-.3.5.3 1.8 1.5 3 2.1 2.1 6.4 2.7 7.5 1 .7-1.1 4.5-1.4 4.5-.4 0 1.8-4.7 4.4-7.7 4.4-2.5 0-4.3-.8-6.5-3-2.7-2.7-3-3.6-2.5-7.1.7-5.6 4-8.9 8.8-8.9 2.6 0 4.5.7 5.9 2.2m19.5-1.6c2.7.7 4.3 3.3 5.1 8.3.6 3.6.3 4.4-2.4 7.1-4.5 4.5-11.7 3.6-14.1-1.7-1.6-3.4-1.4-8.8.4-10.3.8-.7 1.3-1.6 1-2-.9-1.5 6.1-2.5 10-1.4M900 682.3c.8 0 1.8.5 2.2 1.1.8 1.2 1.2 1.3 5.3 1.5 2.2.1 2.4.4 1.5 2-1.4 2.7-1.3 3.1 1 3.1 2.6 0 2.5 1.5-.1 3.4-1.2.8-1.8 1.9-1.5 2.4s-.5 1.7-1.9 2.6-2.5 1.3-2.5.9c0-.5-.4-.2-.9.6-1 1.6-6.1.7-6.1-1 0-.6.9-.8 2-.4 1.4.5 2 .2 2-.9 0-1-.9-1.6-2.4-1.6-1.3 0-2.7-.7-3-1.6-.3-.8-1-1.2-1.6-.9-.5.3-1-.1-1-1s.4-1.4 1-1c1.3.8 6.1-.5 5.4-1.6-.3-.5-2.1-.9-4-.9-3.2 0-3.4-.2-2.8-2.5.5-1.9.1-2.7-1.2-3.2-1.7-.6-1.6-.8.6-1.4 1.4-.4 3.4-.4 4.5-.1s2.7.5 3.5.5m-67.5 26.5c3.9 0 7.6-.5 8.3-1.1 1-.8 1.6-.7 2.1.2.7 1 3.2 1.2 10.7.7 12.3-.8 13.2-.8 22.6-.3 11.3.5 10.8 1.7-.7 1.7h-9.9l2.2 2c1.2 1.2 2.2 2.5 2.2 3s3.5 1.1 7.8 1.3c6.6.3 6.4.3-1.8.3-7-.1-9.4-.4-9.2-1.4.1-.6-.7-1.2-1.8-1.2-1 0-2.4-.8-2.9-1.9-1-1.7-3-1.8-39.7-2-21.3-.1-39-.3-39.2-.6-.3-.3 8.5-.5 19.6-.5 13.6 0 20.3-.4 20.8-1.1.4-.8.8-.8 1.3 0 .4.6 3.7 1 7.6.9"/><path d="M687.1 211.9c-1.1.7-1 1.1.5 2.1 1.8 1.1 1.7 1.1-.3.7-1.3-.3-2.8.2-3.9 1.4-1.6 1.7-1.6 1.9-.1 1.9 1 0 1.7.4 1.7 1 0 .5-.9 1-2.1 1-1.1 0-1.8.4-1.4.9.3.5.1 1.2-.4 1.5s-1.4 1.9-1.9 3.6c-1 2.7-.8 3 1.7 4.3 2.8 1.4 2.9 1.4 5-3 1.4-2.9 1.9-5.3 1.5-7-.6-2.4-.5-2.6 1.7-2 1.3.4 3 .7 3.7.7.6 0 1.2.5 1.2 1.1s-1 .8-2.2.5c-1.3-.3-1.7-.3-1 0 1.3.6 1.7 3.4.4 3.4-.4 0-1.6 1.4-2.6 3.1-1.8 3-1.8 3.1.3 5s2.1 1.9 3.6-1.7c.8-2 1.5-4.2 1.5-4.8 0-.7.4-1.6.9-2.2 1.9-2 5-8.4 4-8.4-.5 0-2.2-.8-3.6-1.7-3.1-2.1-6.3-2.6-8.2-1.4M626.1 232.2c0 2 .3 4.8.9 6.2.5 1.4.7 2.6.5 2.6-.3 0-1-1.2-1.6-2.7l-1-2.7-3.1 3.2c-1.8 1.7-2.8 3.5-2.4 3.9s1.9-.5 3.2-2l2.4-2.8v2.5c0 1.4.5 2.8 1 3.1.6.3 1 1.1 1 1.8 0 .6-.7.2-1.6-.9-1.4-1.8-1.5-1.8-.9.6.5 2.4.5 2.4-.6.3l-1.2-2.2-3.3 2.6c-1.9 1.4-4 2.3-4.8 2-1-.4-1.2 0-.9 1.4.4 1.5 0 1.9-2.1 1.9-1.5 0-2.5.4-2.2.9.4.5-.7 1.2-2.4 1.6-3.5.8-3.7 1.5-1.2 3.8 1.7 1.6 2 1.5 4-.6 1.2-1.3 1.9-2.7 1.5-3-.3-.4.6-.7 2.1-.7 1.6 0 2.5-.4 2.1-1-.3-.6.2-1.3 1.2-1.7 1-.3 2.6-1.3 3.6-2.1 2.9-2.6 3.1-.5.2 2.3-1.6 1.4-2.5 2.8-2.1 3.2s1.1.1 1.7-.7c.7-1.2 1.1-1.3 1.8-.2 1.5 2.4 5.1-.7 4.5-3.8-.5-2.4-.4-2.4 1.2.4 1.4 2.5 1.8 2.7 2.6 1.3 1.1-2.1.1-4-1.5-3.1-.7.4-.7.1.1-.7 1.4-1.5 1.2-1.7 5 3.8 1.1 1.6 1.2 1.4.8-1.7l-.6-3.5 2.6 3 2.5 3 1.9-2.4c1.1-1.3 2-1.9 2-1.4s-.6 1.5-1.2 2.2c-1.1 1.1-1 1.3.2.9.8-.2 2.7-2.9 4.2-5.8 3.3-6.3 4.8-8.2 4.8-5.7 0 .9-.4 1.7-.8 1.7-.9 0-3.5 6.5-3.7 9.2-.1 1.4.1 1.5 1.2.6.7-.6 1.2-1.3.9-1.5-.2-.3.4-2.3 1.4-4.6 1.3-2.9 1.7-5.5 1.3-8.3l-.5-4.2-3 5.7c-1.6 3.1-3.4 6-4 6.6-.6.5-.1-.8 1.2-3 3.1-5.5 4.3-9.5 2.4-8.8-.7.3-1.3.8-1.2 1.1.2 1.9-.3 2.6-1.1 1.4-.7-1.1-1.1-1.1-2.3.2-.9.8-1.8 1.2-2.2.9-.6-.6-6.9-3.1-9.1-3.6-.5-.2-1.6-.6-2.2-1-.9-.5-1.3-.2-1.4 1-.1 1-.5.4-.9-1.2l-.8-3z"/><path d="M586.1 254.5c-3.1 2.7-7.6 12.8-6.5 14.7.4.6.2 1.3-.4 1.7-.5.3-1.2 5.1-1.5 10.6s-.3 9-.1 7.7c.3-1.2.9-2.2 1.4-2.2s.2 2.4-.7 5.2c-1.7 6-2.3 7-2.4 4.2 0-1-.7.5-1.5 3.5-1.4 4.9-1.4 5.6.2 7 1.5 1.5 1.6 1.3 1.1-2.9-.4-2.8-.3-3.7.2-2.5l.9 2 .4-2c.3-1.1.3-.4.1 1.5-.6 5.1-1.3 7.1-2.4 6.5-.5-.4-.9 0-1 .7s-.4.2-.8-1.2l-.7-2.5-.6 2.7c-.3 1.5-.1 2.5.3 2.2.5-.3.9.3.9 1.2 0 1.6.1 1.6 1.4-.1 1.2-1.7 1.3-1.4 1.3 2.4 0 4.3-1.6 7-1.8 2.9 0-1.3-.3-1.7-.6-1-.2.6-.8 1-1.3.7-.4-.2-.4 1-.1 2.7.6 2.9 3.1 5.3 3.1 2.9 0-.6.5-1.1 1-1.1.6 0 1 1.2 1 2.7 0 2.2.2 2.5 1 1.3.9-1.3 1-1.3 1 0 0 1.8 5.5-4.4 7.2-8.1 1.2-2.8 4.8-5.7 4.8-3.9 0 1-2 3.7-5.2 7.2-1 1-1.8 2.2-1.8 2.8 0 .5-.4 1-.8 1s-.8.9-.8 2c0 1.8.4 1.7 3.2-1.2 1.7-1.8 2.9-3.9 2.7-4.6-.3-.6 0-1.2.6-1.2s1.5-1 2-2.3c.5-1.2 1.8-4.3 2.9-6.7 1.8-4.1 4.2-10.7 4.2-11.7 0-.2-.4-.1-1 .2-.5.3-1 .1-1-.4 0-.6.4-1.1.9-1.1 1.2 0 2.3-8.2 1.5-11.4-.3-1.4-1-2.3-1.5-2s-.6-.2-.3-1.1c.3-.8.3-2.7 0-4.1-.6-2.1-.9-2.4-2.1-1.4-1.6 1.4-2 .3-.6-1.8.6-1.1 1.4-.8 3.5 1.3 1.4 1.4 2.6 3.1 2.6 3.8s.9 3.2 2 5.7c1.5 3.4 1.6 4 .4 2.5-1.6-2-1.6-1.9-1 .5.4 1.4.9 4.3 1.1 6.4.6 4.8 2.1 6.8 3.6 4.6.7-1.1.8-.8.4 1.1-.5 1.9.1 3.3 2.3 5.7 1.7 1.8 2.4 3.2 1.7 3.2s-2.7-1.9-4.4-4.2-3.1-3.7-3.1-3.1.8 2.1 1.9 3.4c1 1.3 2.2 3.5 2.6 4.9s1.6 4 2.7 5.9c1.4 2.6 1.5 3.1.4 2.2-1.9-1.6-2-.8-.5 2.2 1 2.1 1 2.1-.6.2-.8-1.1-1.3-2.5-1.1-3.2.7-1.7-.3-4.3-1.6-4.3-.5 0-.6.5-.2 1.2.4.6.9 3.8 1.1 7.2s.9 7.1 1.5 8.3.8 3.7.5 5.5c-.3 2.1 0 4.1.9 5.3.8 1 1.4 2.4 1.4 2.9-.1.6-.7 0-1.5-1.4-1.4-2.4-1.4-2.4-1.5-.3 0 1.2-.4 2.5-1 2.8-.5.3-1 1.4-.9 2.3 0 1.4.2 1.3.9-.3.5-1.1.9-1.4.9-.7.1.9.8.8 2.9-.4 2.4-1.6 2.4-1.4-.6 1.4l-3.3 3.2 2.8 2.4c2.4 2.1 2.9 2.2 3.2.8.3-1.3.6-1.2 2 .5.9 1.2 2.6 2.4 3.9 2.8l2.2.6-2.1-5.3c-1.2-2.9-2.3-5.9-2.6-6.6-.3-.6-1-1.2-1.5-1.2-.6 0-.8-.6-.5-1.3.3-.8-.6-4-1.9-7.3-2.7-6.8-2.9-7.5-1.1-6.9.6.3 1.3 1.6 1.3 2.9.3 4.7 4.7 11.6 8.9 14.2l4 2.4.7-2.3c.6-2.1.6-2 .7.4.1 1.5.8 3 1.7 3.3 2.3.9 7.4.7 7.4-.2 0-.5-2.2-2.8-5-5.1-4-3.4-5-3.8-5-2.4-.1 1-1.2-.5-2.5-3.3-1.4-2.7-4.8-7.5-7.7-10.4-2.9-3-4.2-4.5-2.8-3.3 1.4 1.1 3.5 2.4 4.8 2.8 1.2.3 2 1 1.7 1.4-.2.4 1 2.7 2.7 5 2.3 3.2 3.3 3.9 3.9 2.9.7-1 .9-.9.9.4 0 1.2.8 1.8 2.3 1.8 1.6 0 1.8.3.8.9-1 .7-.4 1.7 2.5 4.5 2.2 1.9 4.3 3.6 4.7 3.6s.7-1.6.5-3.6c-.2-2.6-.8-3.9-2.3-4.4-1.9-.8-1.9-.9.3-.9 5.2-.2.6-6.1-7-9-2.4-.9-2.8-.8-2.9.7 0 .9-.8-.1-1.8-2.3s-3-5.8-4.5-7.9c-1.4-2.1-2.6-4.4-2.6-5s.6-.2 1.2.9 1.4 2.2 1.8 2.5 1.5 2 2.4 3.7c.9 1.8 1.9 3.3 2.1 3.3s.9-1.5 1.4-3.3l1-3.2-.2 4c-.2 3.7 0 4 2.3 3.8 1.7-.1 1.9 0 .6.4-1.5.4-.9 1 2.8 2.9 2.6 1.3 4.9 2.4 5.2 2.4.2 0 .4-1.6.4-3.6 0-2.9-.3-3.5-1.6-3-1 .4-1.4.1-1.2-.6.3-.7-1.6-2.7-4.1-4.6s-5.3-4.2-6.2-5.1c-1-.9-3.1-2.4-4.8-3.4-3-1.7-3.1-1.7-3.1 0 0 1.6-.1 1.6-1.4-.2-.7-1.1-1.3-2.3-1.2-2.6 0-.3-.5-1.3-1.3-2.2-.9-1.1-1-1.7-.2-1.7.6 0 1.1.4 1.1.9s2.6 2.5 5.8 4.5c4.3 2.6 6.8 3.5 10 3.4 2.4 0 4.6.2 4.9.6.4.3-1 .6-3 .6s-3.7.4-3.7.8c0 .9 8.3 7.2 9.4 7.2 1.6 0 .4-7.8-1.4-9.8-2.1-2.2-2.8-4.4-.8-2.4 1.7 1.7 2.6 1.5 3.1-.6.3-1.2.5-1 .6.7.1 2.3.2 2.4 2.1.6 1.1-1 2.3-1.5 2.6-1.2.4.4-.1.9-1 1.3-3.1 1.2-1.6 2.6 2.7 2.4 7.6-.3 8.1-.2 6.3 1.5-1.7 1.7-3.6 2-3.6.5 0-.6-2-1-4.5-1H640v4c0 2.2.2 4 .5 4 .2 0 2-1.4 4-3.1 2-1.8 3.9-2.8 4.3-2.5.4.4 0 1.1-.8 1.6-.8.4-2.5 1.7-3.8 2.8-2.2 1.9-2.2 2.1-.5 3.2 1.6 1 1.5 1.1-.9.7l-2.7-.4.1 6.3c.1 6 .3 6.3 2.7 6.7l2.6.4-2.7.2c-2.5.1-2.8.5-2.8 3.5 0 1.9.3 4.1.6 5 .8 2.1 5.7 2 8.2-.2 2.1-1.8 3.8-8.2 2.2-8.2-.5 0-2.8 1.8-5.1 4-6.1 5.8-5.7 4.4.7-2.2 3-3.1 5.4-5.2 5.4-4.7 0 2 1.6.6 4.2-3.5 3.4-5.3 4.6-8.2 3-7.2-1.9 1.1-1.4-.6.9-3.4 1.1-1.4 1.8-2 1.5-1.4-.9 1.8 1.4 7.4 3 7.4 1.7 0 3.5-4.1 3.9-9 .1-1.9.7-4.8 1.4-6.4 2.2-5.4.6-3.5-2.6 3.1-2.5 5-2.7 6.1-1.2 4.7 2.7-2.4 2.3-.5-.6 3l-2.4 3 .5-6.9c.5-7 1.4-10.2 1.4-5.1 0 3.3 1.5 2.6 2.5-1.1.3-1.5 1.5-4.6 2.6-7 1-2.3 1.9-4.5 1.9-4.8 0-.4.9-2 2.1-3.7 1.2-1.6 1.9-3.2 1.6-3.5-.6-.6-4.9 3.6-9 8.8-1.5 1.8-2.7 2.8-2.7 2.1s.9-2.3 2-3.5c2.4-2.6 1-3.6-2.5-1.7-1.3.7-2.9 1-3.7.7-.7-.3-.4-.6.9-.6 1.2-.1 2.5-.6 2.9-1.2.3-.6 1.7-.9 3.1-.6 1.5.3 2.3 0 2-.7-.2-.6.4-2.5 1.4-4.1 3.7-6.3 6.7-12.1 7.3-14.5.6-1.9.5-2.1-.3-1s-1 .6-.9-2.3-.5-4.4-2.7-6.7c-3-3.1-4-3.4-2.9-.6.3.9 1.1 1.3 1.6 1 .6-.4.8.2.3 1.5-.4 1.2-.2 2.8.5 3.6.6.8.9 1.9.5 2.5s-.1 1.8.7 2.7c1.1 1.5 1 1.6-1 1.1-1.5-.4-2.2-.2-2 .7.4 1.7-5.1 6.7-6.4 5.9-.7-.5-.9.3-.5 2.2.3 1.6.4 2.4.1 1.7-.4-.9-1.3-.9-3-.2-3.4 1.2-3.9 1.1-2.4-.5.9-1.2.3-1.9-3.9-4.1L650 287l-.1 3.7-.2 3.8-.7-4c-.4-2.2-.8-3.6-.9-3-.1.5-.6 0-1.1-1.2s-2.4-3-4.2-3.9l-3.3-1.7 2 2.3c1.7 2 1.8 2.3.3 1.7-2.9-1.1-2.5 6.6.5 8.6l2.2 1.6-2.2-.6c-1.3-.3-2.3-.2-2.3.2 0 1.5 6.5 6.5 7.8 6 .7-.3 1 0 .7.5-.4.6.7 1 2.6 1 4.1 0 3.5.6-1.9 1.8-3.7.9-4.2.8-4-.7.2-1.2-.4-1.5-2.7-1.2-1.6.1-3.3.8-3.7 1.5-.6.8-.8.7-.8-.2 0-.7-.4-1-1-.7-.5.3-1 .1-1-.4 0-.6.4-1.1.9-1.1 1.1 0 2.1-3.8 1.4-5.5-.2-.8-1.2-1.1-2.1-.9-1.4.5-1.4.3.1-.6 2.2-1.4 1-3.3-3.4-5.6-3.8-1.9-3.9-1.9-3.9 2.6 0 3.9.5 4.4 4 4.1.8-.1.3.6-1.3 1.4-2 1.1-3.2 1.3-4.5.6-.9-.6-1.2-1.1-.4-1.1 1.8 0 1.6-7.8-.3-9.6-.8-.9-1.5-1.3-1.5-1 0 .2-1.3.1-2.9-.4-2.6-.7-3-.5-3.6 1.7-.8 3.5.1 4.1 3.7 2 1.7-1 3.3-1.5 3.6-1.3.2.3-1.2 1.3-3.2 2.2-2 1-3.6 2.1-3.6 2.6 0 1.5-2.5.7-5.5-1.7-3.2-2.6-2.4-3.5.9-1 2.8 2.1 3.1 1.9 3.1-1.5 0-2-.4-2.9-1.2-2.5-.7.2-1.3 0-1.3-.6 0-.5.6-1.2 1.3-1.5.8-.3 1.4-1.9 1.5-3.7l.1-3.1-3.9 3.9c-2.2 2.2-3.9 4.5-4 5.2 0 .6-.4 1.4-.8 1.7-.7.4-.8-3.6-.2-7.4 0-.3.4.1.9.9.8 1.2 1.6.8 4-2 3-3.4 7.4-10.9 6.7-11.6-.5-.5-10.3 9.1-10.9 10.7-.4 1.2-.6 1.2-.6.1-.1-2-5.1 2.7-5.1 4.8 0 1.2-.3 1.2-1.2.3-1-1-.7-1.7 1.3-3.5 1.4-1.2 3.1-3.2 3.8-4.5.6-1.2 1.7-2.2 2.4-2.2 1.9 0 17.3-15.3 15.9-15.8-.7-.2-2.5-.1-4 .3-2.6.6-2.6.7-.8 2 1.7 1.3 1.7 1.5.3 2.9-2.1 2.2-4.4 2.2-2.7.1.7-.9 1-1.8.6-2.2-.8-.8-4.7 2.7-4.1 3.7.3.4-.3.7-1.2.6-1.1 0-1.8.7-1.9 2-.1 1.1-.6 2.9-1.2 4-1.1 1.8-1.1 1.8-1.2-.4 0-3.3-1.6-2.7-5.1 2-2.3 3.2-2.9 3.6-2.4 1.8.7-2.3 10.1-11.9 11.8-12 1.7 0 .5-1.9-1.5-2.3-1.5-.3-.9-.5 1.4-.6 4.1-.1 5.6-1.5 3.8-3.6-.9-1.1-1.6-1.1-4.4.6-4 2.3-7.4 5.9-5.7 5.9.7 0 .9.5.5 1.1-.5.8-.9.8-1.4-.1-.5-.7-2 .4-4.7 3.4-3.7 4.1-4 4.3-5.1 2.5-.7-1-1.2-3-1.2-4.3 0-1.9-.4-2.3-1.9-1.9-2.3.6-6.1 10.7-6.1 16.2v3.6l-2-3c-2.2-3.3-2.7-5.6-.8-3.7.9.9 1.5.3 2.4-2.5 1.4-4 1.2-4.8-1.6-6.3-1.7-.9-2.1-.6-3 2.2-1 3.2-1 3.2-.4-.7.5-4 2.4-7.4 2.4-4.4 0 .8.9 2 2 2.7 1.8 1.1 2.1.9 3-1.4.6-1.4 1.7-3.3 2.6-4.2 1-1 1.2-1.8.6-2s-.8-1.1-.5-2c.6-1.5.5-1.6-1.3-.2-1 .8-2.7 2.3-3.6 3.5-1 1.1-1.8 1.5-1.8.9 0-.5 1.6-2.5 3.5-4.4s3.5-3.8 3.5-4.2c0-1.7-4-.7-6.9 1.7M552.5 262c-1 1.1-1.5 2.8-1.2 4 .6 2.3-1.2 2.7-3.2.7-1-1-1.7-.6-3.7 1.8-2.3 2.8-2.3 3.1-.7 4.5 2 1.7 4.6 7 3.9 7.7-.3.3-1.3-.2-2.2-1.1s-1.9-1.4-2.2-1.1c-1.3 1.3 3.4 3.3 6.8 2.8 5.3-.7 6.3-1.2 5.7-2.7-.7-1.8.9-3.1 4.6-4 1.5-.4 2.5-1.1 2.2-1.6-1.4-2.3 1.1-.7 4.7 3 2.2 2.2 4.3 3.8 4.8 3.5.4-.3 1 .2 1.4 1 .4 1.2-.3 1.4-3.4 1.1-4.5-.5-4.5.3.3 3.2l3.4 1.9 1-2.8c.6-1.6.8-4 .5-5.4-.7-2.5-8.1-12.5-9.3-12.5-1.5 0-1.7 3-.2 3.8.9.6 1.3 1.4.8 2.2-.6 1-1 .9-1.7-.4-.6-1.1-1.6-1.5-2.9-1.1-2.5.8-2.5-1.5-.1-4.1 1.7-1.7 1.7-2.1.4-4.2-1.9-2.9-7.2-3-9.7-.2M685.9 273.6c-2 2.1-2.1 2.7-.9 3.4.8.5 1.9 1 2.5 1 .5 0 .4.5-.3 1.2-.8.8-1.5.8-2.7-.2-2.2-1.8-3.5-.3-4.6 5.2-.9 4.6-.3 10.5 1.2 11.4 1.2.7 1.1-.9-.2-4.3-1-2.6-.9-2.7.7-1.1 1.2 1.2 1.8 3.5 1.8 7.5.1 3.2.5 6.7 1 7.8.4 1.2.1 1-.8-.5-1.4-2.2-1.5-2.3-1.6-.5 0 2.7 5.3 17.5 6.3 17.5.4 0 .5-.6.2-1.3-.4-.6 0-.4.8.5 2 2.6 2.9 1 1-1.9-1.2-1.8-1.8-2.1-2.4-1.1-.7 1.1-.9 1.1-.9 0 0-1.7 2.6-4.3 3.4-3.5.3.4.6 1.3.6 2 0 .8.7 2.2 1.6 3.1 1.1 1 1.3 1.7.5 2-1.3.4-1.5 4.8-.2 5.6.5.4 2.2.1 3.8-.5 2.8-1.1 2.8-1.1.6-2-1.3-.4-2.3-1.4-2.3-2.1 0-.9.3-.9 1.2 0 3 3 3.9-.8 1.3-5.8-1.1-2.2-2-2.7-3.7-2.3-2 .4-2.1.3-.5-.7 2.2-1.4 2.2-2.6-.3-5.7-1.1-1.4-2-3.3-2-4.2 0-2.4-3.9-10.1-5-10.1-.6 0-.4-1 .4-2.3 1.2-1.9 1.2-2.6-.5-5.2-1.7-2.8-1.9-2.8-1.9-.8 0 1.3-.4 2.3-.9 2.3s-.8-1.8-.7-4c.1-3.6.2-3.9 1.4-2.3 1.1 1.6 1.4 1.6 2.3.3s1-1.3.6.1c-.3.9-.1 2.2.3 3 .7 1 1.1.7 1.9-1.4.6-1.5.8-3.3.5-4.1s-.1-1.7.4-2c1-.6.4-5.3-.8-6.1-.4-.2-1.8.7-3.1 2.1M532.6 285.5c-1.7 2.6-2.3 4.9-3 12.1-.7 5.8-.4 6.1 6.7 9.2l4.8 2.1-.3-2.6c-.2-2.2.2-2.8 2.2-3.3 1.4-.4 4-.5 5.8-.2 2.9.4 4.1-.5 2.6-2.1-.4-.4-.8-2.2-1-4.1-.2-2.6 0-3.4 1.1-3 .7.3 1.6 1.2 1.9 2s1.3 1.4 2.2 1.4c1.1 0 .3-1.1-2.2-3.1-6.1-4.9-8.9-6-11.8-4.9-3.1 1.1-4.4-.4-2.2-2.6.9-.8 1.6-1.8 1.6-2.1 0-.4-.3-.4-.6-.1-.3.4-1.8.2-3.4-.2-2.4-.7-3.1-.4-4.4 1.5"/><path d="M655.8 359.3c-3.2 6.4-5.8 12.3-5.8 13 0 .8-.9 2.2-2 3.2-2.2 1.9-2.8.7-.7-1.4 1-1 .3-1.2-3.3-.8l-4.5.4-.3 4.6-.3 4.7 4.8.1c5.2.1 5 .4-1 1.4-2.1.3-3.6.9-3.3 1.3.2.4-.4.8-1.4.8s-1.6-.6-1.3-1.2c.2-.7-.6-1.4-1.9-1.7-2-.4-2-.4.5-.6 2.7-.1 2.8-.3 2.5-4.9-.3-4.7-.3-4.7-4.2-5l-3.9-.3 2.4 3.3c1.4 1.8 2.9 4 3.3 4.8.7 1.4-.8-.3-6.1-6.6-1.6-1.9-7.3-4.2-7.3-3 0 .3.8 2.1 1.7 4.1 1.7 3.7 2.9 4.4 3.6 2.2.2-.6.2-.1 0 1.3-.3 2.1.2 2.8 2.4 3.7 2.6 1 2.6 1.1.5 1.2s-2.2.2-.8 2.8c.8 1.6 2.6 4.1 4 5.6 2.3 2.5 2.4 2.8.6 2.2s-1.9-.4-1 2.2.9 2.7-.5.9c-1.3-1.7-1.9-3.9-1.4-4.9.2-.2-2.5-5.3-5-9.7-.4-.8-2-4.1-3.5-7.3-1.8-4-3.1-5.7-4.5-5.7-1 0-2.4-.7-3.1-1.5-.8-.9-.9-1.5-.2-1.5.6 0 1.4.4 1.7 1 .3.5 1.3 1 2.1 1 2.4 0-2.9-9.4-6.1-10.8-1.5-.7-3-1.1-3.2-.8-.2.2.4 2.1 1.3 4.2l1.7 3.9.8-3c.5-2 .6-1.3.3 2.2-.5 4 0 6.6 1.8 11.3 2.6 6.7 3.8 7.6 3.8 2.7.1-2.7.2-2.9 1.1-1.4.5.9.7 2.2.3 2.8-.3.6 0 1.5.7 2 1 .6.8.9-.8.9-1.3 0-2.3.2-2.3.4 0 1.2 5 9.9 5 8.8 0-1.7 1.7-1.5 2.4.4.3.8.2 1.3-.2 1-.4-.2-1.4 1-2.1 2.7-.7 1.8-1.8 4.2-2.4 5.5-1.8 3.8-1.1 8.6 2.2 14.3 1.7 3 3.1 4.8 3.1 4.1 0-.6.5-1.2 1.1-1.2 1.5 0 .5 7.7-2.6 19-5.9 22-5.9 22-3.1 22 1.6 0 4.4-8.8 5.1-16.5.7-6.6 3.5-15.6 4.6-15 .4.3-.1 2-1.1 3.9-.9 1.9-2 7.1-2.4 11.6s-1.3 9.8-2.1 11.7c-.8 2-1.6 5.2-1.6 7.2-.2 3-.3 3.1-.6.8-.5-3.1-1.8-3.4-4.4-1.1-1.6 1.4-1.6 1.1-.4-5.3.7-3.7 1.1-9.3 1-12.3-.3-4.8-.3-5 .4-1.5l.7 4 2.1-7c1.2-3.9 2.4-8.6 2.7-10.5.6-3.5.5-3.6-3.4-4.7l-4.1-1 .5 6.1c.3 3.3.3 5 0 3.6-1.4-8-2.4-9.7-5.5-10.4-4.6-.9-4.7-.8-4.1 2.1.5 2.7.5 2.7-1.3.9-1.2-1.2-1.8-3.1-1.7-5.8.1-2.2-.3-4.9-.9-6.1-1-2.1-1-2.1.5-.3.9 1.1 1.6 2.5 1.6 3 .1.6.8-.9 1.6-3.2.9-2.4 1.3-4.6 1.1-4.8-1.1-1.1-5.2-1.2-5.8-.2-.5.7-1.1 1-1.4.6-.4-.3.3-2.8 1.4-5.4 1.2-2.6 2.4-4.5 2.7-4.1.3.3-.2 1.6-1.1 3-1.4 2.3-1.4 2.5 0 3.1 3.3 1.2 4.4.5 5.4-3.2 1.5-5.2 1.4-5.8-.9-3.7-2.4 2.2-2.6 1.3-.5-1.9 1.4-2.1 1.4-2.4 0-2.9-.9-.4-2 .3-2.9 2.1-1.5 2.7-1.5 2.7-1.1-1.6.2-2.3.2-4.2 0-4.2-.3 0-1.4 1.7-2.5 3.7-1.2 2.1-1.8 2.9-1.4 1.8 1.4-4.1 1.6-6.3.5-6.9-.6-.4-1.4.9-2 3.1-1.4 4.8-1.4 6.3-.1 6.3.6 0 1 .5 1 1.1 0 .5-.4.8-.8.5-.4-.2-.8.3-.9 1.2s-.4 4.8-.9 8.6c-.5 5.1-.4 6.7.5 6.2.6-.4 1.1-1.6 1.1-2.6s.5-2.2 1-2.5c1.3-.8.2 4.5-1.1 5.9-.5.6-.9 2.8-.9 5 0 2.1-.3 3.7-.6 3.3-.7-.6-1.2-6.5-1.3-15.1-.1-7.1-1-6.8-1.7.5-.3 3-.7 6-1 6.8-.2.7.1 2 .7 2.7.9 1.1.8 1.4-.3 1.4-1.5 0-1.9 4.2-.5 5.6 1.2 1.3.9 10.6-.5 9.8-.7-.4-.8-.3-.4.5.4.7.8 4.3.7 8.1 0 4.8.4 7.2 1.3 7.7.7.4 1.7 1.9 2.1 3.2.6 2 .4 2.3-.9 1.8-.9-.4-1.6-.1-1.5.6.1 2.9 2.6 12.4 3.7 14.4.8 1.4.8 2.3.1 2.5-1.4.5 0 8.8 1.6 8.8.7 0 1.5 1.6 1.7 3.7.6 4.8.2 5.4-1.2 1.7-.8-2.1-1.3-2.5-2-1.5-.8 1.4-.4 3.6 1 5.6.4.5.9 2.2 1.2 3.7.4 1.9.1 2.5-.9 2.1-.8-.3-1.3.2-1.3 1.6 0 1.8.3 2 1.9 1.2 1.5-.8 2-.7 2.5.6.9 2.2 2.2.7 3.1-3.5.5-2.6.3-3.2-1-3.2-1.2 0-1.5.5-1.1 1.6.5 1.4.4 1.5-.9.4-1.9-1.6-1.9-2.7 0-4.6.8-.9 1.5-2.5 1.5-3.8 0-1.2.7-3.1 1.5-4.2 1.4-1.9 1.4-1.9 1.5.3 0 1.2-.4 2.5-1 2.8-1.2.7-1.4 6.5-.2 6.5.4 0 1.3-.5 2-1.2.9-.9 1.2-.8 1.2.5 0 3.1 1.8 1.8 5.4-4.1 1.9-3.1 3.6-5.1 3.6-4.5 0 .7-.9 2.7-2 4.5s-2 4.6-2.1 6.3-.3 2.2-.6 1.2c-.5-1.9-1.8-2.2-2.8-.7-.4.6-1.1.7-1.7.4-1.3-.8-2.8 1.4-2.8 4.4 0 2.6-2.8 4.1-4 2.2-1.1-1.8-2.7-.4-3.5 3-.4 2-1.3 3-2.5 3-2 0-3.6 1.7-2.6 2.7.3.3 1.3 0 2.3-.8 1.4-1.2 1.6-1.2.8 0-.5.8-1.4 4.2-2.1 7.5-.9 4-1.2 4.7-.9 1.8.6-5.2-1-5.6-1.9-.5-.9 5.5-.7 7.5.5 6.8.6-.5 1 .9.9 3.7-.1 2.3.3 6.1.9 8.3 1.5 5.7 1.2 8.8-.4 4-1.6-5-1.8-3-.4 6 1.2 7.9 1.4 10.1 1.8 18.2.2 4.6.5 5.3 1.1 3.3s.8-2.1.9-.6c.1 1.1-.4 3.4-1.1 5.2-1 2.8-.9 3.9.7 7.3 1.1 2.6 1.5 5.1 1.2 7.1-.4 1.7-.2 3 .3 3 .6 0 1.1-.8 1.1-1.8.1-.9.2-2.2.4-2.7.1-.6.3-2.4.4-4 .1-2.3.4-2.7 1.1-1.5 1.5 2.4 3.1-.1 2.2-3.4l-.8-2.9-2.2 2.7c-2.2 2.8-4.2 2.8-4.2-.2 0-1.1.3-1.3 1.1-.5 2.3 2.3 8-6.6 7.8-12.1 0-1.2-.3-1.5-.6-.9-.2.7-1 1.3-1.6 1.3-.8 0-.7-.4.1-1.2.7-.7 1.2-4 1.2-8 0-5.6.3-6.8 1.6-6.8s1.4.3.5 1.4c-.7.8-1.1 3.7-.9 6.6l.3 5.2 4.1-7.3c4.5-8.2 5.8-11.3 4.5-10.5-1.1.7-2.1-1.7-2.1-4.7 0-2 .2-1.9 2 .8 1.4 2.1 2 2.5 2 1.2 0-.9-.5-1.7-1.2-1.7-.9 0-.9-.3-.1-1.1.6-.6.9-1.8.6-2.6s.1-1.9 1-2.6c3-2.5 2.7-15.7-.4-15.7-.5 0-1.4-1.2-2-2.7-.8-2.2-1.2-2.4-1.9-1.3-.6.8-1 1-1 .5 0-.6.4-1.7 1-2.5.7-1.2 1.3-.9 3.3 1.4 1.5 1.7 2.7 2.4 3.1 1.8s-.1-1.5-1-2c-1.4-.8-1.4-1.3-.3-3.3 1.2-2.3 1.1-2.3-.6-.9-1.4 1.1-1.9 1.2-2.2.3-1-3-11.2 5.7-11.4 9.7-.2 2.3-.2 2.3-.6.2-.2-1.2-1.2-2.2-2.1-2.2-2.1 0-.6-1.5 3.9-3.9 4.3-2.3 5.3-5.5 1.5-4.5-3.2.8-6-.2-5-1.7.5-.8.9-.8 1.4.1 1.1 1.8 5-.6 5-3.1 0-1.1.7-2.2 1.5-2.5.8-.4 1.5-1.2 1.5-2s.5-1.4 1.1-1.4c.5 0 .7.5.4 1-.4.6-.1 1.8.6 2.6.6.8.9 1.7.5 2.1-.3.3-.6.1-.6-.5 0-1.8-2.7-1.4-3.4.4-1.8 4.7.7 5.8 5.5 2.3 2.9-2.1 2.9-2.1 1-3.8-2-1.8-1.5-3.8 1.6-7 .8-.7 1.2-2 .9-2.8s.5-3.6 1.9-6.3c2.8-5.6 3.3-8.4.9-5.4-1.5 1.9-1.5 1.8-1.1-.4.4-1.7.1-2.2-1.4-2.2-2 0-5.8 6.6-5.9 10.2 0 1-.6 1.8-1.3 1.8-1.9 0-1.6-4.3.5-6.1 1-.9 2.5-3.2 3.3-5.2 1.4-3.4 4.1-6.5 2.9-3.3-.4 1.1 0 1.6 1 1.6.9 0 1.6-.7 1.6-1.5s.5-1.4 1.1-1.2c.6.1 1.2-1.3 1.4-3.1.3-3.3-1.1-4.4-2.1-1.7-.4.8-1.1 1.5-1.7 1.5-.7 0-.7-.4.1-1.2 1.7-1.7 1.5-2.6-.5-3.1-1.4-.4-1.3-.5.4-.6 1.2 0 2.4-.7 2.6-1.4.3-.7.6-.5.6.5.1 1 .6 1.8 1.1 1.8 1 0 1.1-.5 1.5-6 .1-1.4 1-5.6 1.9-9.3 1-3.8 1.5-7.1 1.2-7.4s-.2-1.1.3-1.7c.9-1.2 3.3-11.3 3.7-15.8.1-1.4.4-5 .8-8l.5-5.3-1.4 4.5-1.5 4.5.6-5.3c.6-6.2 1.3-8.4 2.5-7.6.5.3.9-.6.9-2.1s-.7-2.8-1.7-3.2-2.8-1.8-4-3.2c-2.4-2.7-3-2.3-1.3 1 .6 1 .8 1.9.5 1.9-.5 0-4.5-8.5-4.5-9.7 0-.3 1.9 1.5 4.3 4 2.3 2.5 5.2 4.8 6.4 5.2 1.8.5 2.2.1 2.8-3.6.4-2.5 1-3.7 1.5-2.9.5.9 1.2.6 2.4-1.1 2.2-3.2 2-3.9-.8-3.9-2 0-2.3-.4-1.8-2.3.5-1.8.7-1.9 1-.5.4 2 3.7 2.4 4.7.8.4-.6.1-1.9-.7-2.8-1.2-1.5-1.1-1.6.4-.4s2 1 3.7-1.8c1.1-1.8 1.7-3.9 1.4-4.6-.3-.8.1-1.4 1.1-1.4 2.1 0 2.1 0-.9 5.1-1.4 2.4-2.5 5.2-2.5 6.2s-.4 1.6-1 1.2c-1.2-.7-4.9 6.5-4.3 8.5.4 1.3.3 1.3-.6 0-1-1.3-1.2-1.3-2.1 0-1.4 2.2-1.2 3.7.6 4.4.8.3 1.2 1 .9 1.6-.3.5-.1 1 .4 1 .6 0 1.1-1.2 1.1-2.7 0-2.6.1-2.6 1.4-.7 1 1.3 1.1 2.1.3 2.6-1.1.7 1 23.8 2.2 23.8.4 0 .7 2.6.7 5.7 0 3.4.4 5.8 1.1 6 .7.3.9 1.1.6 2-.4 1-.2 1.4.4 1 1.3-.8 2.5 6.9 1.6 10.3-.4 1.6-.3 2.1.5 1.6s1.2.4 1.3 2.6c0 2.6.2 2.9.8 1.3.4-1 .4-3.9-.1-6.4-.9-5.2-.3-6.9.7-1.9.4 1.8 1.2 3.9 1.8 4.6.8 1 .7 1.6-.2 2.1-1.6 1-.4 6.1 1.4 6.1 2 0 3 2.1 1.5 3s-3.5-.8-4.3-3.6c-.3-1-.3 1.7-.1 6.1.3 4.4.9 9.6 1.5 11.5 1.6 5.2 3.3 9 4 9 .4 0 .9 1.2 1.2 2.7.5 2.9.3 2.7-3-2.4-1-1.6-1.2-1.4-1.2 1.5-.1 2 .3 3.1.9 2.7s1 1.3 1.1 4.2c0 3.3.3 4.2.8 2.9.5-1.4 1-1.6 1.5-.8.4.7.5 1.6.2 2.1-.4.5-.2 1.1.2 1.3 1 .4 4.3 10.1 3.7 10.7-.3.2-.9-.8-1.5-2.3-.5-1.5-1.4-2.5-1.9-2.2-.4.3-.6-.6-.3-1.9.2-1.4 0-2.5-.6-2.5-1.1 0-3.2 8.5-3.2 12.8l.1 2.7 1.4-2.5c2-3.5 1.9-1.6-.1 2.2-1.3 2.5-1.4 3.6-.5 5 .6 1 .9 2.3.5 2.9-.3.6-.3 2.7.1 4.7.6 3 .9 3.3 1.5 1.7.4-1.3.9.2 1.2 4.5.3 3.6 1.5 8.5 2.6 10.9 1.6 3.2 1.8 4.1.7 3.7-1.9-.7-1.9-.5.9 6.2 1.3 3.1 3.4 9 4.6 13 1.9 5.8 2.5 7 3.6 6.1s1.4-.7 1.4.9c0 1.1.7 2.6 1.7 3.3 1.5 1.3 1.6 1.1.8-1.6-.4-1.7-.7-4-.7-5.2.1-1.2-.3-2.5-.8-2.8-.6-.3-1-.1-1 .5s-.4.9-.9.6c-.4-.3-.7-1.8-.5-3.3.2-1.6.1-2.2-.2-1.5-.8 1.6-2.4.5-2.4-1.6 0-1.3.2-1.4.9-.4.4.8 1.1 1.3 1.5 1.3 1.5-.2 5.3 4.2 4.9 5.7-.2 1 .2 3.3 1 5.1 1.4 3.3 1.5 3.1 1.4-6.5 0-5.4.3-11.2.8-12.8.6-2.1.5-2.7-.4-2.2-.8.6-.9-.4-.4-3.6.5-2.4.8-8.5.8-13.6 0-9.5 1.1-12.5 1.8-5 .2 2.4.4.2.3-4.7-.1-5.7-.6-9.5-1.3-10.3-1.9-1.9-1.6-3.7.2-2.2.9.8 1.5.8 1.5.2s-.6-1.2-1.2-1.4c-.7-.3-1.7-2.8-2.3-5.7-1.1-5.9-2.8-6.8-3.5-1.9-.4 2.8-.9 3.3-3.3 3.3-1.9.1-2.6-.3-2.2-1.3.6-1.7-4.2-6.2-6.6-6.2-1.1 0-1.9-.4-1.9-1 0-.5.6-.7 1.4-.4s1.6-.4 1.9-1.7c.7-2.8-.1-3.9-1.3-1.9-.7 1.1-1.1.8-2-1.4-.6-1.6-1.3-3.4-1.6-4s.2-.2 1 .8c.9 1.1 1.6 1.6 1.6 1.1s.5-.4 1.2.3c2.1 2.1 4.1 1.5 3.5-1.1-.6-2.1-.6-2.1 1.3.3 1.1 1.4 2 1.9 2 1.1 0-1 .3-1.1 1.3-.2 1 .7 1.7.7 2.4 0s1.3-.7 1.7-.1c.8 1.3-4 2.5-6.5 1.7-1.4-.5-2.1 0-2.9 2-.8 2.2-.6 3 1.5 5.3 1.4 1.5 2.5 3 2.5 3.3 0 .4.8.9 1.9 1.2 1.4.3 1.8-.2 1.9-2.6 0-1.6.6-3.3 1.2-3.7s.8-1.4.4-2.3c-.4-1.1-.1-1.7.9-1.7s1.8 1.4 2.2 4.2c.4 2.4 1.1 5 1.7 5.8.6 1 .7.6.3-1.5-.3-1.7-.8-4.4-1.1-6-.3-1.7-1.2-4-2-5.2s-1.4-3.2-1.4-4.4c0-1.5-.4-1.9-1.6-1.5-1.3.5-1.4.1-.9-2.7 1.6-7.9 1.7-8.2.7-6.8-1.4 1.9-2 .2-1.5-3.8.4-2.4.8-2.9 1.5-2 .6 1 .8.7.6-1.1-.1-1.4.6-4.9 1.6-7.7 2.3-6.8 1.7-10.5-.7-4.3-1.6 4.1-1.7 4.2-1.1 1 .8-5.4 1.2-6.7 2.2-8.7 2.1-3.9 4.4-18.7 3.8-24.3-1.4-13.1-1.5-14.4-.6-13 .6.8 1 2.6 1.1 4 .2 2.3.2 2.3.6.3.5-2.6-1.3-6.3-3-6.3-.8 0-1.1 1.6-.9 5.2.2 2.9-.1 7.1-.7 9.3l-1 4 .1-5.5c.3-11.8.1-13-2.8-13-2.4 0-2.6.3-2 3.2.3 1.8.8 5.3 1.1 7.8.4 3.9.2 3.7-1.3-2l-1.7-6.5-.6 5.5c-.5 5-.6 5.1-.8 1.5-.2-3.2-.4-3.6-1.1-2-1.2 2.7-1.2.7-.1-3.3.9-2.9.8-3.2-1.2-3.3h-2.2l2.3-1.1c1.3-.7 2-1.7 1.8-2.7-.3-.9-.8-2.8-1.2-4.4-.3-1.5-.9-2.7-1.3-2.7-.6 0-5.1 8.4-5.1 9.5 0 .3.8.5 1.8.6 1.5 0 1.5.1-.2.8-1 .4-2.4 1.8-3.2 3.2-1.2 2.3-1.3 2.2-.7-1.6.3-2.2.9-4.2 1.3-4.5.7-.5 5-9.3 5-10.2 0-.3-1.2-.5-2.7-.4-2 .1-2.9.8-3.4 2.6-.4 1.4-.7 1.9-.8 1.2-.2-2.6-1.9-1-3.9 3.5-1.2 2.7-2.1 4.1-2.2 3.3 0-.8 1.1-3.3 2.3-5.6 1.3-2.2 2.6-5.1 3-6.3.6-2.4-2.1-10.1-3.5-10.1-1.6 0-.7-3.9 2.3-9.4 2.9-5.3 3.1-6.1 2-9.6-1.5-5-1.3-6.4.4-2l1.3 3.5 1.6-3.8c1-2.2 1.5-4.4 1.2-5-.2-.7-.5-.4-.5.6-.1 1.5-.3 1.5-1.5.5-1.1-1.1-1.1-1.5.3-2.6 1.4-1.2 1.4-1.3-.2-.8-1 .3-2 .6-2.2.6s-1.8 2.5-3.5 5.5-3.4 5.5-3.7 5.5.7-2.1 2.2-4.7l2.8-4.6-3.2.6c-1.8.4-3.1.2-3.1-.3 0-.6 1.2-1 2.6-1 1.9 0 2.5-.4 2-1.5-.3-.8 0-1.4.6-1.2.6.1 2.2-1.7 3.5-4.1 2-3.5 2.2-4.2.9-4.2-.9 0-1.6.8-1.6 2 0 2.9-1.5 2.5-1.6-.5-.1-1.4.3-2.5 1-2.5 2.2 0 3.7-2.2 2.5-3.7-.8-.9-.8-1.7.1-2.8.6-.8 1-2.2.8-3.1-.2-1-2.8 3.4-6 9.9M500.6 386.2c-1.3 1.4-2.1 1.8-2.4 1-.9-2.7-2.1-.9-2.5 3.5l-.3 4.8-.2-4.8c-.1-2.7-.6-4.6-1.1-4.3-2.2 1.4 1.1 15.3 3.5 15.3 1.3 0 1.5-.8 1.1-3.9-.7-5.3.7-4.8 2 .7.7 3.3.7 4.5-.1 4.4-2.6-.3-3.6.2-3.6 2 0 1.4.5 1.8 2 1.4 1.1-.3 2-1 2-1.5 0-.6.7-.7 1.6-.4s2.5-.1 3.7-.9c1.2-.9 1.6-1.5.8-1.5-1 0-1.2-.9-.7-3.3.4-2.3.3-2.8-.4-1.7s-1 .7-1.1-2c-.1-1.9-.1-4.1 0-4.8.2-1.1-1.2-1.7-3.3-1.3-.5.1-.4-.5.3-1.3s1.1-2 .9-2.6-1.2 0-2.2 1.2"/><path d="M476.6 388.5c-1.6.8-3.4 1.5-4.2 1.5-1.9 0-2.8 6-2 13.1.4 3.4.3 6.6-.2 7.2-2.9 3.6-5.7 19.6-4 23.2 1 2.2 1.6 2.5 4.2 2 4.9-1 7.6-2.7 7.6-4.8 0-1 .9-2.1 2-2.4 4-1.1 1.8-2-3.7-1.7l-5.8.3 4-1.9c4.4-2.1 7-2.6 6-1-.3.5.1 1 1 1s1.3-.5 1-1c-.8-1.2 1.5-1.3 3.4-.1 1.2.8 1.2 1.2.2 2.5-.8.9-1.9 1.6-2.7 1.6-2.7 0-2.3 2.1 1.3 7.4 3.6 5.4 3.8 5.5 7.5 5 3.5-.4 3.8-.3 2.9 1.4-.8 1.5-.4 2.6 1.7 5.1 2.3 2.7 3.1 3.1 5.9 2.5 4-.8 4.8-2.7 2.1-5.1-1.7-1.4-2-1.5-1.6-.2.4.9.1 1.6-.5 1.6-.7 0-1.9.4-2.8.7-1.1.5-1.8.1-2.2-1.3-.4-1.8.2-2.5 2.3-2.3.3 0 .5-1 .5-2.2 0-1.8-.4-2.1-2.5-1.8-2.2.5-2.4.3-1.1-1.1.7-.9 1.8-1.4 2.3-1.1 1.5 1-1.2-3.9-3.4-5.9-1.7-1.7-2.3-1.7-5-.6s-3 1.6-2.5 4.6.4 3.3-.9 2.2c-.8-.7-1.3-1.8-1-2.6.3-.7-.1-1.3-1-1.3-1.1 0-1.4-.6-1-1.6.3-.9.6-1.8.6-2s.4-.4.9-.4 2.6-.7 4.7-1.6c3.6-1.5 3.7-1.7 1.9-3-1-.8-1.6-1.4-1.2-1.4s.1-1.3-.8-3c-.8-1.6-1.5-3.4-1.5-4 0-1.9 1.7-1 2.9 1.6.7 1.6 1.7 2.4 2.6 2 .8-.3 1.7-.1 2 .4.4.6.1 1-.4 1-.6 0-1.1.9-1.1 2.1 0 2.3.9 2.1 8.6-1.2l4.2-1.7-3-5.9c-3.1-6.3-3.6-6.7-5.7-5.4-1 .6-1.1 1.3-.2 2.9.6 1.1 1.1 2.9 1.1 3.9 0 1.2-.8.6-2.5-2-2.5-3.6-2.6-3.7-5.4-2.2-2.9 1.4-2.9 1.4-4.9-2.3l-2-3.8 3-1.2c3.2-1.2 3.4-3.9.3-3.4-.9.2-1.5-.1-1.2-.5.3-.5.2-1.5-.4-2.3-.6-1.1-.9-.4-.9 2.3 0 4.6-1.7 4.1-2.6-.8-.8-4.2-2.1-4.6-2.7-.8-.4 2.7-.4 2.7-.6-.4 0-1.7.4-3.3 1.1-3.5.9-.3.8-1.4-.3-4.1-1.4-3.6-1.5-3.6-4.3-2.2M512 394.9c0 4.2 1 6.1 3.1 6.1 2.5 0 2.4 1.2-.1 3-1.1.8-2 1.8-2 2.2 0 1.2 3.8 1 4.5-.2.3-.6 1.8-1 3.2-1 3.1 0 2.3 1.1-1.8 2.5-1.6.5-2.9 1.4-3 2-.1 1.4 7.5 3.9 7.9 2.6.2-.6 1.1-1.1 1.9-1.1.9 0 1.3-.6 1-1.4-.9-2.3.3-2.6 3.4-1 3.1 1.5 3.9.5 1.4-1.6-1.3-1.1-1.3-1.4.2-2.6 1.7-1.3 1.7-1.5-.1-2.9-2.7-2.1-3.9-1.9-2.6.5.6 1.2.7 2 .1 2-.5 0-1.2-.6-1.4-1.3-.3-.7-.6-.5-.6.5-.1 1.9-3.1 2.6-3.1.8 0-.6-1.1-1.5-2.4-2-1.8-.7-2.3-1.4-1.9-3 .5-1.9.4-2-2.1-.8-2.3 1-2.9.9-3.6-.2-.5-.8-.7-2.5-.3-3.7.3-1.4.1-2.3-.6-2.3-.6 0-1.1 1.3-1.1 2.9M790.9 398.9c1.4.4 2.6 1.3 2.9 2.1.2 1.1.1 1.2-.5.3-1.1-1.5-10-2.5-10.8-1.2-.4.5 1.6.9 4.4.9s5.1.4 5.1 1c0 .5-1.1 1-2.5 1-1.3 0-2.9.8-3.5 1.7-.9 1.7-1.1 1.7-2 .2-1.4-2.4-9-1.5-9 1 0 1.1 4.6 3.1 7.1 3.1 1.3 0 1.8-.5 1.4-1.3-.4-.6.1-.3.9.7.9 1.1 1.6 2.3 1.6 2.8 0 .4.7.8 1.5.8 3.2 0 6.3 2.2 5.8 4.1-.3 1-.1 1.9.5 1.9 1.3 0 1.8-3.1 1.7-11.2 0-3.8.3-6.8.8-6.8.4 0 .7-.3.7-.8 0-.4-1.9-.8-4.3-.8-3-.2-3.5 0-1.8.5"/><path d="M761 413c-1.2 2.3.6 3.7 8.3 6.5 2.6 1 4.7 2.2 4.7 2.6 0 1.3-1.4 1.1-3.5-.5-1.4-1-2.5-1.1-4.2-.3-1.7.7-2.8.6-4.8-.7-1.4-.9-3-1.4-3.5-1.1-1 .6 2.2 3.6 7.4 6.9 2.6 1.7 2.7 1.9 1.1 2.8-1.8 1.1-3.1.7-10.8-3.4-2.1-1.1-4.1-1.8-4.3-1.5-1 1 1 3.6 3.9 5.1 2.7 1.3 2.4 2.2-.5 1.7-.5 0-.8.6-.8 1.4s-.5 1.5-1.1 1.5c-.7 0-.9-1-.5-2.5.4-1.4.2-2.5-.3-2.5-1.7 0-6.1 4.6-6.1 6.3s3.2 4.3 6 4.9c.8.2 1.9 1.2 2.5 2.2.5 1 1.9 2.4 2.9 3 1.1.6 2.8 1.9 3.8 2.8 1.4 1.5 1.5 1.8.3 1.8-.8 0-1.5-.5-1.5-1.1s-.9-.9-2-.6-2.3.1-2.6-.4c-1.6-2.7-8.8 1-7.6 3.9.4 1.1.1 1.4-1.2.9-1.5-.6-1.5-.5.1 1.8 1 1.3 2.3 2.3 2.8 2.1 1.4-.5 4.5 1.3 4.5 2.6 0 .6-.9.3-2-.7-1.8-1.7-2-1.7-1.4-.2.3.9 1 1.7 1.5 1.7s1.9 1 3.1 2.2c1.4 1.4 2.3 1.8 2.6 1 .6-2 2.4-1.4 2 .7-.2 1 .6 2.8 1.6 4 2 2.2 4.6 2.8 4.6 1.1 0-.6.7-1 1.5-1 1.8 0 1.9 1.2.3 2.8-.9.9-.9 1.2 0 1.2.7 0 1.2.7 1.2 1.5s-.4 1.5-1 1.5c-.5 0-1-.5-1-1 0-1.9-1.5-1-3.2 2-.9 1.7-2.8 3.4-4.2 3.9-3.2 1.3-4.1 3-2.3 4.4.8.7 1.7 2.1 2.1 3.1.7 2 .7 2-1.5 0l-2.2-1.9 1.2 2.3c.8 1.5 1.8 2.1 2.8 1.8.8-.3 1.7-.6 1.9-.6s.4-.7.4-1.5.6-1.5 1.4-1.5c2.5 0 21.5-20.1 26-27.4 1-1.7 2.2-3.3 2.6-3.6 1.2-.8 4.1-10.1 3.4-11.1-.3-.6-1.2-.2-2 .8-1.3 1.7-1.3 1.7-1.4-.4 0-1.2.5-2.5 1-2.8.6-.4.8-1.1.4-1.6-.9-1.6-2.4.1-2.4 2.7 0 1.4-.4 2.2-1 1.9-.5-.3-1-1.7-1-3 0-1.9-.9-2.8-3.5-3.9-4.1-1.7-4.6-3.7-1-3.4 1.4.1 2.5.6 2.5 1.1s.6.7 1.2.5c.7-.3 2.4.1 3.7.8 1.4.7 2.8 1.1 3.3.8 1.1-.7 1-4.4-.1-4.4-.4 0-.6-1.1-.3-2.5.2-1.5 0-2.5-.7-2.5-.6 0-1.1-.8-1.1-1.8.1-1.6.1-1.6 1.4 0 1.6 2.2 2.6 2.3 2.6.3 0-3.2-5.5-9.9-7.2-8.8-1.4.8-.8 3.3.7 3.3.8 0 1.5.3 1.5.7 0 1.6-4 7.3-5.1 7.3-.7 0-.5-.8.5-1.9s1.6-2.8 1.3-3.8c-.3-1.5-.6-1.3-1.5.9-.6 1.6-1.8 2.8-2.6 2.8s-2.2.3-3.2.7c-1.4.5-1.6.3-1.1-1.2.4-.9.2-2.4-.5-3.3-1.1-1.3-.8-1.5 2.5-.9 3 .5 3.7.3 3.7-1.1 0-.9.7-2.6 1.5-3.6.8-1.1 1.5-2.5 1.5-3.1 0-1.4-5.7-3.5-9.3-3.5-3.7 0-3.4 1.4.6 2.6 1.8.5 3.1 1.5 2.9 2.3s.3 1.1 1.3.8c.9-.4 1.5-.1 1.5.8 0 1.1-.5 1.2-2.6.5-3.1-1.2-3.5-1.2-3.1-.1.1.5-.2.9-.8.9-.5 0-.9-.4-.8-.9.4-1.1-3.5-3.1-5-2.6-.7.2-2.4-.5-3.9-1.5-1.6-1.1-2.8-1.7-2.8-1.4s-1.1.1-2.5-.4c-2-.8-2.7-.6-3.5 1M543.1 418.1c-.1.9-.8 2-1.7 2.3-.8.3-1.2.2-.9-.4 1.4-2.3-5.8.5-12.2 4.8l-2.3 1.4 2.4 1.9c3.1 2.4 4.6 2.4 4.6-.1 0-1.1.7-2 1.5-2s1.4-.3 1.4-.8c-.3-1.8.2-3.2 1.2-3.2.6 0 .9.7.6 1.4-.6 1.6 1.6 1.2 4.1-.7 2.3-1.8 1.3.9-1.3 3.3-1.8 1.7-2.2 2.6-1.3 3.1.8.5.4 1.1-1.5 1.8-1.5.6-2.7 1.6-2.7 2.2s-.7.9-1.5.5c-.8-.3-1.5-.1-1.5.4s-.6.7-1.4.4c-1.6-.6-7.6 3.4-7.6 5.1 0 .6.8 1.7 1.8 2.6 1 .8 3.1 3.6 4.7 6.2 1.7 2.6 3.2 4.7 3.5 4.7s3.1-2.5 6.3-5.5c3.1-3 5.7-5.1 5.7-4.6 0 .4-2.7 3.3-6 6.3s-6 5.9-6 6.5c0 .5 1.3 2.2 3 3.8l3 2.9 6.7-6.7c6.8-6.7 6.8-6.7 4.5-8.3-1.2-.8-2.2-2.4-2.2-3.4s-.6-2-1.2-2.3c-.8-.3.2-1.8 2.7-4.1 2.2-2 3.7-3.6 3.3-3.6-.7 0-3.9 2.4-7.2 5.5-.6.6-2.9 2.3-5.1 3.9-3.2 2.3-2.8 1.7 2-3 3.3-3.2 6-6.3 6.1-6.8 0-.6.4-1.9.9-2.9 1-2.3-.4-3.7-1.6-1.5-1 1.8-7.6 5.8-13.4 8.2-3.8 1.5-3.9 1.5-1.6-.2 1.2-.9 3.8-3.2 5.7-4.9 1.9-1.8 4.5-3.5 5.8-3.9 3.1-.8 4.1-4.1 1.4-5-1.1-.3-1.7-1.1-1.5-1.7.2-.7.1-2.1-.4-3.2-.6-1.5-.8-1.6-.8-.4"/><path d="m502.2 424.8-5.3 2.8 3.4 4.9c1.8 2.8 4.4 6.9 5.7 9.2 2.6 4.7 3.2 5 5 2.8.7-.8 1.7-1.5 2.2-1.5.6 0 .5.7-.2 1.5-.9 1.1-.9 1.5-.1 1.5.7 0 .9.5.5 1.1-.4.8-.8.8-1.3.1-1.1-1.8-9.5 5.5-9.6 8.2 0 2.2 6.1 10.3 7.1 9.3.7-.7-.7-3.7-1.7-3.7-.5 0-.9-1.1-.9-2.5 0-1.6.6-2.5 1.5-2.5 1 0 1.5.7 1.3 1.7-.2 1.4.4 1.8 2.6 1.8 1.6 0 3.1.6 3.3 1.2.3.7-.1 1.3-.9 1.3-.7 0-2.2.9-3.1 2.1-1.8 2-1.8 2.2-.1 4 1.6 1.8 1.6 2.1.2 3.5-1.3 1.3-1.9 1.4-3.7.2-2.5-1.5-2.7-2.8-.6-2.8 1.7 0 2-1.6.5-2.5-.5-.3-1-.1-1 .4 0 1.5-2.7 1.4-3.3-.2-.3-1-.9-1-2.6 0-2.4 1.5-9.7 1.7-10.6.3-.3-.5.2-1.8 1.1-2.9 1.6-1.8 1.9-1.8 4-.4 1.3.8 2.1 2 1.8 2.5s.3.4 1.4-.3c2.2-1.4 2.1-1.7-1.6-6.6l-2.4-3.2-3.6 2.4c-2 1.4-4.2 2.5-4.9 2.5-1.4 0 3.2 7.9 5.4 9.3.7.4 1.3 1.2 1.3 1.7s1.2 2.1 2.8 3.7c1.5 1.6 3.4 3.8 4.3 4.9 4.7 5.6 23.8 22.4 25.6 22.4.7 0 2.4 1.1 3.9 2.5s3.4 2.3 4.1 2.1c.8-.3 1.3.2 1.3 1.2s1.6 2.4 3.8 3.4c2 .9 5.7 2.8 8.2 4.2 10.9 6.1 31.2 14.6 34.8 14.6.8 0 4.7-9.5 4.7-11.5 0-.6-.9-1.1-2-1.2s-2.7-.3-3.5-.4c-3.1-.4-5.1.1-4.4 1.2.4.7.1 1-.7.7s-1.4-1.4-1.3-2.6c0-1.8-.4-2-2.8-1.5-1.9.4-2.8.1-2.8-.7 0-1-.3-1-1.5 0-2.1 1.7-3.1.5-1.4-1.6 1.2-1.5 1.1-1.6-1-.9-1.5.4-2.1.3-1.7-.3.9-1.4-1.9-3.3-3.7-2.6-.9.3-2.4-.1-3.2-1-.9-.9-2.3-1.6-3-1.6s-2.1-.7-2.9-1.6c-.9-.8-2.8-1.7-4.2-1.8-1.6-.2-3.3-1.4-4.3-2.9-1-1.8-2.1-2.5-3.2-2.2-1 .3-2 .1-2.4-.5-1-1.6-2.5-1.2-2.5.7-.1 1.6-.2 1.6-1.2-.1-.9-1.5-.7-2.2.8-3.3 1.7-1.2 1.6-1.3-.8-1.3-1.5 0-3 .5-3.3 1-.7 1.2-2.5.4-2.5-1.1 0-.5.8-.9 1.8-1 1.3 0 1.2-.3-.6-1.1-1.5-.8-2.1-1.7-1.6-3 .3-1 0-1.8-.6-1.8s-.8.5-.5 1.1c.8 1.2-5.8.2-8.9-1.3-1.2-.7-2.2-.6-2.9.1-2.1 2.1-2.9 1.1-1.2-1.5.9-1.5 1.5-3.7 1.2-5.1-.4-1.9-.1-2.3 1.2-1.7 3.3 1.4 5.9 1.5 6.6.4 1-1.6-1.6-3.2-3.1-1.9-.8.7-1.8-.1-3.2-2.5-2.5-4.2-1.2-5.7 2-2.4 1.3 1.3 3.1 2.2 4.1 2 1.2-.2 1.7.3 1.7 1.7 0 1.2.3 2.1.6 2.1.4 0 3.7-3.3 7.5-7.3l6.9-7.2-4-3.8c-4.2-3.9-5.2-6.1-2.3-5 1.1.4 1.4.3.9-.6-.5-.7-1.6-.9-2.9-.5-1.9.6-2 .5-.9-.9.9-1 1-1.7.2-2.2-.5-.3-1 0-1 .7s-1.4-.2-3-2c-3.5-3.8-4-3.9-4-1.1 0 1.8-.3 1.9-1.5.9-.8-.6-1.9-.9-2.5-.5-.5.3-1 .2-1-.3 0-.6 1.1-1.3 2.5-1.6 1.4-.4 2.5-1.3 2.5-2.1s.5-1.5 1.1-1.5c.8 0 .8-.4-.1-1.4-.6-.8-1.9-1.2-2.7-.9-1.1.4-1.4.2-.9-.5.7-1.2-3-8.3-4.6-9-.4-.2-.8-.9-.8-1.6s-.9-2.3-2-3.6-2-2.7-2-3.2c0-1.2-1-.9-6.8 2"/><path d="M478.7 435.6c-1.5.8-2.7 2.2-2.7 3.1 0 1.2.3 1.3 1.4.4s1.6-.9 2.1 0c.4.6.2 1.5-.4 1.9-.7.3-1.3 1.9-1.4 3.4s-.9 3.1-1.7 3.6c-1.2.7-1.2 1.2.4 2.9 1 1.1 2.3 1.9 2.9 1.8s1.3.7 1.6 1.8c1.6 5.5 2.3 5.7 7.8 3 6.2-2.9 7.4-4.5 3.7-4.5-2.6 0-2.6-.1-1-1.9 1.5-1.6 1.5-1.9.1-2.4-2-.8-1.9-2.7.1-2.7 1.4 0 1.4-.3.4-1.5-.7-.8-1.6-1.5-2.1-1.5s-.6.7-.3 1.5c1.3 3.2-1.7 1.3-3.1-2.1-.8-1.9-2.3-4.6-3.3-5.8-1.7-2.2-2-2.3-4.5-1M573.5 446.8c-.6.4-1.2 1.7-1.2 3-.2 1.9.1 2.1 1.3 1.2 2-1.8 1.7.3-.5 3.1-1 1.3-2 2.8-2.2 3.4-.2.5-1 .9-1.6.9-1.7-.2-9.3 8.9-9.3 11 0 .8-.9 2-2 2.6-2.6 1.4-2.5 2.8.3 3.9 2.6 1 6.3 4.9 5.4 5.7-.3.3-2.1-.5-3.9-1.9-5.1-3.7-5.9-4.1-5.1-2.1.4 1.2.3 1.5-.5 1-.6-.4-1.9.2-2.9 1.4-2 2.3-3.3 2.6-3.3.8 0-.7 1.2-2.2 2.8-3.4 2.7-2.2 2.7-2.2.7-4.1-1.1-1.1-4.6-3.3-7.7-5.1l-5.7-3.1-2.5 3.2c-1.4 1.7-2.3 3.4-2.1 3.8.3.3 3 2.4 6.2 4.5s6 4.2 6.1 4.7c.6 1.2 10.3 7.3 16.5 10.3 5.8 2.8 7.6 4.9 3.4 3.9-1.8-.5-2.6 0-3.7 1.9-.7 1.4-1.7 2.3-2.2 2s-.2-1.7.7-3c1.4-2.2 1.4-2.4-1.1-4-1.7-1.1-2.8-1.4-3.2-.7-.9 1.3-5.2 2.7-5.2 1.6 0-.4 1-1.4 2.1-2.1 2-1.3 1.8-1.6-4.7-6.3-3.8-2.6-9.1-6.5-11.9-8.5l-4.9-3.6-2.8 3.3c-2.6 3.1-2.7 3.5-1.2 4.6 1.6 1.1 1.5 1.3-.5 2.1-2.1.8-2.1.8.8 2.9 2.4 1.9 3 2 3.5.7.5-1.2 1-1.3 2.8-.3 2 1.1 2 1.3.5 2.4-1.6 1.1-1.5 1.4.7 2.9 1.5 1 2.7 1.2 3.1.6 1.1-1.8 2.7-1 2.2 1-.3 1.3.1 2.4 1.3 3 2.5 1.4 3.7 1.3 2.2-.2-1.9-1.9-1.4-3.3.6-1.6.9.8 2.5 1.8 3.6 2.2s1.6 1.2 1.2 2.1c-.5 1.3 3.7 4.5 6.1 4.6.5 0 2.4 1 4.3 2.2s4 2.2 4.6 2.2 1.9.7 2.9 1.5c1.5 1.3 1.9 1.1 3.7-1.3l2-2.8 2.6 2.6c1.4 1.5 3.9 2.9 5.4 3.2s2.8.9 2.8 1.4.5.9 1.1.9.9-.6.7-1.2c-.3-.7.1-1.9.9-2.6.7-.8 1.1-1.8.8-2.3-.4-.5.1-.9.9-.9.9 0 1.6.4 1.6 1 0 .5-.4 1-1 1-.5 0-.7.7-.4 1.5.4.8 1.2 1.5 1.8 1.5 1.7 0 3.8-4.7 2.6-5.5-.6-.4-1 .2-1 1.1 0 1.6-.1 1.6-1.2.2-.7-.9-4.4-2.9-8.3-4.4-12.2-4.7-11.1-6.2 1.5-1.9 4 1.4 8.2 2.5 9.2 2.5 2.2 0 2.5-3.8.3-4.6-1.6-.7-1.9-3.2-.9-8.3.4-2 1.1-3 2-2.7 1.7.7 1.7-13-.1-20.8-1.5-6.3-1.6-6.6-3.7-7.1-5.4-1.3-6-1.8-5.5-4.5.4-1.8 0-3.1-1.3-4.3-3-2.5-6.1-3.9-7.5-3.3-.8.3-1.5.1-1.7-.4s-.8-.6-1.3-.2m16.2 17.6c-1.4 1.5-3.2 4.4-4.1 6.4s-2.5 5.4-3.6 7.4c-2.3 4.3-2.7 7.1-.5 4.2.8-1 1.5-1.4 1.5-.7 0 .6 1.4 1.6 3 2.2 1.7.5 3 1.5 3 2 0 .6.8 1.1 1.8 1.1 1.4 0 1.4.2.3.9-.9.6-2.4.6-3.8 0-4.1-1.5-5.2-1.1-5.9 2.6-1 5.3-2.4 5.2-2.5-.2v-4.8l-1.7 2.4c-.9 1.4-2.5 3.4-3.4 4.5-1.7 2-1.7 2-.7-1.3.9-2.6.9-3.5-.2-4.3s-1.1-.9.2-.5c.9.3 2.1-.4 2.8-1.5 1-1.6.8-2.2-1.1-3.9-2.3-1.9-2.3-1.9-.3-3.4 1.8-1.4 2.1-1.4 3.2.1 1.4 2 1.6 1.9 3.5-1.6 5.2-9.7 9.3-15.9 10.1-15.1.5.5-.2 2-1.6 3.5M738.2 458.7c-3.8 3.5-4.2 4.3-3.3 6.5 1.4 3.7 3.1 4.4 3.9 1.7.5-2.1.7-1.8 1.7 2.1s1.4 4.5 3.5 4.2c1.3-.2 2.9-1 3.7-1.7.7-.8 2-1.2 2.9-.8 1.2.5 1.2.7-.3 1.9-1.6 1.2-1.6 1.5-.3 2.3.8.6 1.1 1.3.7 1.8-.5.4-1.2.1-1.7-.7-.6-1-1.2-1.2-2-.4-.7.7-.1 2 2.1 4.2l3.1 3.2 4.9-3.8c2.9-2.2 4.8-4.5 4.9-5.8 0-1.3-2.7-4.5-7.6-9-7.8-7-11.3-9.7-10-7.5.4.6.3 1.1-.3 1.1-.5 0-1.1-.7-1.3-1.7-.2-1.3-1.2-.7-4.6 2.4M718.5 474c-.4.6-1.2.9-1.8.7s-2.2.7-3.4 1.9c-1.3 1.3-2.9 2.7-3.6 3.1-2.1 1.3-6 7.3-4.7 7.3.7 0 1 .7.6 1.5-.3.9 0 1.5.9 1.5 2.5 0 2.7 2 .3 2.9-2 .8-2.1 1-.6 1.6 1 .4 2.4-.1 3.7-1.4 1.2-1.2 2.5-2.1 3.1-2.1.5 0 2.5-1.1 4.5-2.4l3.6-2.5-2.2-2.2c-1.7-1.7-1.9-2.3-.8-3 .8-.5 1-.9.5-.9s-.1-.9.8-1.9c1.3-1.5 1.4-2 .4-2.5-.7-.3-.2-.3 1.1 0 1.7.4 2.2.2 1.9-.7-.6-1.8-3.4-2.3-4.3-.9M742.6 480.2c.5.8.2.9-1 .5-2.4-1-8.9 2.2-8.2 3.9.9 2.3-.5 1.6-3.5-1.9-2.2-2.5-2.9-2.8-2.9-1.4 0 1 .7 2 1.5 2.4.9.3 2.2 1.8 3.1 3.4.8 1.6 2.6 3.2 3.9 3.5 1.4.3 2.5 1.2 2.5 2 0 2.3 1.2 1.6 7-3.7l5.5-5.1-3-2.4c-3.1-2.5-6.2-3.3-4.9-1.2M645.7 483.7c.6 1.6.5 1.6-1.1.4-1.7-1.4-1.7-.6-1.3 14.8.2 9 .8 16.6 1.4 17.2 1.5 1.5 6.3 0 5.6-1.7-.3-.8-1.4-1.4-2.6-1.4-1.1 0-1.7-.3-1.3-.7.7-.8 1.1-.9 5.2-1.1 5-.4 3.7-18.5-1.3-19.5-1.4-.3-2.7.2-3.2 1.1s-1.1 1.1-1.5.4c-.8-1.3.3-4.2 1.5-4.2 1 0 1.2-3.1.3-5.4-.3-.9-1-1.6-1.5-1.6-.4 0-.5.8-.2 1.7M630.6 487.6c-.3 2.2-.7 6-.8 8.6-.1 5-.4 5.4-2.8 3.8-1-.6-1.1-1-.2-1 .6 0 1.2-.5 1.2-1 0-.6-.9-1-2-1-1.3 0-2 .7-2 2s.7 2 1.9 2c1 0 2.1.6 2.4 1.3.3.9-.6 1.1-3.3.9-3.6-.4-3.8-.2-4.3 3-.3 1.8-.4 4.6-.3 6.3.1 3.3-.4 3.2 12.9 3.9l7.7.5v-7.5c0-5.7-.4-7.6-1.5-8-1.8-.7-2-2.5-.2-2.2.8.2 1.3-1.2 1.5-4 .2-2.5-.1-4.2-.7-4.2s-1.1.8-1.1 1.7c0 1.3-.3 1.4-1.2.5-.7-.7-1.2-2.7-1.3-4.5 0-2.5-.4-3.2-2-3.2-1.1 0-2.3-.4-2.6-.9-.4-.5-1 .9-1.3 3M727.3 490.2c-.4.7-.6 2.6-.4 4.3.3 3.2-.5 3-2.3-.6-1.5-3-4.7-4.8-5.3-3.2-.3.7-1 1.3-1.7 1.3s-2.1.9-3.2 2.1c-1.5 1.6-1.6 2.4-.6 3.9 1.5 2.4 1.5 3 .2 3-.6 0-1.6-1.3-2.3-2.9-1.1-2.5-1.5-2.7-3-1.6-1.6 1.1-1.6 1.6-.2 5.6 2.6 7.2 4.1 9 6.9 7.9 1.4-.5 4.1-2.5 6.1-4.5 2.5-2.3 4.1-3.2 4.9-2.6 1.2 1 5-.2 6.1-1.9.4-.7-.7-.4-2.6.5l-3.4 1.6 2.7-2.5c1.5-1.3 3.7-3.1 4.9-3.9 2.8-2 1.9-4.2-2.1-5-1.7-.4-2.9-1.1-2.5-1.7.3-.5.2-1-.4-1-.5 0-1.3.6-1.8 1.2M66.7 320.8c-3.2 3.4-3.9 9.6-.9 9 .9-.2 1.8-1.4 2-2.6.5-3.1 2.3-2.3 4.3 1.9 1.8 3.7 2.9 4.1 17.2 6.1 5.3.7 8.9.8 11 .1 2.2-.6 4-.6 5.5 0 1.6.7 2.6.7 3.4-.1 1.7-1.7.9-2.1-6-2.3-3.6-.1-6.7-.8-7.3-1.5s-1.6-1.1-2.4-.8c-1.5.6-5.5-2.5-5.5-4.3 0-.6-1.5-1.3-3.2-1.5-2.2-.2-3.6-1-4.3-2.5-2.1-4.9-9.8-5.7-13.8-1.5"/></svg>