<svg xmlns="http://www.w3.org/2000/svg" width="1706.667" height="960" viewBox="0 0 1280 720"><path d="M0 117.5V235l2.8.2c5.7.4 7 .5 18.7 1.6 6.6.7 14.1 1.4 16.8 1.7 2.6.2 5.5.9 6.5 1.4 1.3.8.8 1-2.5 1.1-3.9 0-4.3.2-4.3 2.5 0 2.4.3 2.5 5.8 2.6 3.1.1 4.7.4 3.5.6-1.3.2-2.3.8-2.3 1.3 0 1 8.8 2.5 9.7 1.6.4-.3-.3-.6-1.4-.6-2.3 0-3.9-2.6-2-3.4.7-.2-.3-.5-2-.5-2.2-.1-3.3-.6-3.3-1.6 0-.8.1-1.5.3-1.5 1.3.2 13.9 4.9 13 5-.6 0-1.5.9-1.8 2-.4 1.3-1.6 2-3.3 2.1-1.6 0-2.1.3-1.2.6 2 .8 4 2.9 3.4 3.6-.3.3-2.6-.4-5.2-1.4-11.7-4.6-15.1-5.1-23.7-3.6-4.4.8-8.5 1.1-9 .6-.6-.4-3-.9-5.4-1.1-2.7-.2-4.6-.9-4.9-1.7-.4-1.1.8-1.3 6.4-.8 3.8.3 8.9.2 11.4-.2 2.5-.5 3.5-.9 2.4-1-2.4-.1-4-2.7-2.1-3.5.7-.2.3-.5-.7-.5-2-.1-7.6-1.7-11.1-3.2-2-.9-5.8-.6-10.2.7-1.7.5-2.3.2-2.3-1 0-1-.4-1.5-1-1.1-.5.3-.9 16.8-1 42.2 0 37.4.2 41.8 1.7 43.5s1.5 1.8 0 1.8C.1 325 0 339.4 0 522.5V720h231c217.9-.1 231-.2 231-1.8 0-.9 1.1-4 2.4-6.7 2-4.4 6.4-9.2 14.9-16.2 5-4.2 2.8-.8-3.4 5.2-7 6.8-10.3 11.6-11.4 16.3l-.7 3.2h24l.7-6.9c.4-3.9.7-10.3.8-14.3 0-5.7.2-6.5.8-3.8.8 4.1 1.9 15.8 1.9 21.2v3.8h16.8l.8-4.3c.7-3.7.8-3.9 1.4-1.7.4 1.4.3 2.9-.2 3.4-1.4 1.7-.9 2.6 1.7 2.6 1.4 0 2.5-.5 2.5-1 0-.6-.4-1-1-1-.5 0-1-.9-1-2s.7-2 1.5-2c1 0 1.5 1 1.5 3.2 0 3.1 0 3.1 2.1 1.2 2-1.8 2.2-1.8 3.4-.1 1.1 1.5 3.2 1.7 18.3 1.7 12.9 0 17.1-.3 17.5-1.3.3-.7 3.2-4.9 6.6-9.4s7.3-10.8 8.7-14c1.5-3.2 3.5-7.6 4.5-9.8 1.9-4.1 1.6-8.5-.5-8.5-.6 0-.4-.5.4-1 2.1-1.3 2-27.1-.3-51.5-3.1-32.9-3.3-36.9-1.4-36.2 1.7.6 2.7-1.1 2.7-4.8 0-1.3.5-2.7 1-3 1.4-.8 1.3 1.3-.3 6.6-.8 2.4-1.3 5.4-1.2 6.7.1 1.2-.3 2.2-.8 2.2-1.1 0-.1 15.8 1.8 28.5.7 4.9 1.7 14.6 2.1 21.3.4 6.8 1 11.9 1.4 11.3.4-.7 1.1-.2 1.8 1.4 1 2.1 1 2.5 0 1.9-.9-.5-.8-.2.1 1 .9 1.1 1.4 3.8 1.3 7.2-.2 5.9.3 6.7 1.8 2.8 1.2-3.1 3-2.3 3 1.4 0 2.1.2 2.4 1 1.2.5-.8 1-4.2 1-7.5.1-5.1.2-5.7 1.2-4 .7 1.2 1.2 5.5 1.1 10.5-.1 5.4.2 7.8.7 6.5.5-1.1.9-3.6 1-5.5 0-2.9.2-3.2 1.1-1.7.6 1 .7 3.1.4 4.7-.4 1.8-.2 3 .4 3 2.2 0 2.3-4.5.5-17.9-.5-4-.4-5.2.5-4.7.6.4.9 1.2.6 1.7-.4.5-.1.9.4.9.6 0 1.1-1.7 1.2-3.8.3-11.3 2.3-25.2 4.4-30.5.4-1 .3-1.7-.4-1.7-.6 0-1.1.7-1.1 1.5s-.4 1.5-1 1.5c-1.5 0-1.2-2.6.4-3.9 1.4-1.1 5.5-13.2 6-17.4.1-1.2.6-2.9 1-3.6s1.1-5.7 1.5-11.2c.5-7.7.3-9.9-.6-9.9-.7 0-1.3-.5-1.3-1 0-.6.5-1 1-1 1.2 0 1.3-4 .1-5.8-.6-1-1-.8-1.4 1-.4 1.2-.7 3.3-.7 4.6s-.4 2.1-.9 1.8c-.5-.4-.3-3.1.5-6.7 1-4.3 1.1-6.6.4-8-.8-1.3-.7-1.9 0-1.9.6 0 .8-.5.4-1.1-.3-.6-.2-1.4.3-1.8 1.1-.7 4.6-14.1 3.9-14.8-.3-.3-1.3 2.2-2.3 5.6-1 3.3-2.1 6.1-2.5 6.1-1.3 0 .5-7.3 3.2-13.5 1-2.2 2-5.4 2.3-7 .3-1.7.8-4.4 1.1-6 .4-1.7-.9.8-2.9 5.5s-3.9 8.7-4.2 9c-.9.8.9-6.4 1.8-7.6 1.4-1.8 5.7-14.2 5.1-14.8-.3-.3 0-.6.6-.6.7 0 1.2-1.1 1.2-2.4 0-1.4.5-3.7 1.2-5.3 1.7-4.1 2-7.1.8-7.8-.5-.3-1 .2-1 1.2s-.5 2.5-1.1 3.3c-.8 1.1-.9.6-.5-2.1.5-2.7.3-3.8-.8-4.2-1.2-.5-1.2-1.1.3-4 1.4-2.8 4.6-16 7.7-32.6.3-1.3.7-2.1 1-1.8 1 .9-3.1 20.9-7.4 36.1-.8 3 1.5 1 3.2-2.7.8-1.8 1.4-3.9 1.4-4.7-.1-.8.7-4.4 1.6-8 1-3.6 1.9-7.2 2.1-8s.8-3.5 1.3-6c1.6-7.2 3.1-14.8 4.6-24.5.8-5 1.7-9.7 2.1-10.6.4-1.1-.4-2.5-2.3-4-1.6-1.3-3.5-3.5-4.2-4.9-1-1.8-.2-1.4 3 1.7 2.3 2.4 5 4.3 5.9 4.4.9 0 2.4.2 3.4.4s2.7-.5 3.7-1.5c2.2-2.2 3.4-1.4 1.6 1.1-.9 1.4-1 3.3-.4 7.6.5 3.2 1.1 7.8 1.3 10.3 1.2 12 1.8 16.1 3.7 24 1.1 4.7 2.4 9 2.9 9.6s.6 1.3.3 1.6c-.3.4.2 2 1.1 3.8 1.5 2.9 2.1 6.9 2.9 20 .7 10.2 1.9 17.6 3.2 19.7.8 1.3 1.2 2.3 1 2.3-.3 0 .1 1.7.9 3.9.8 2.5 1 4.2.4 4.8s-.7 4.1-.3 8.9c.4 4.3.9 7.3 1.1 6.6.3-.6.9-1.2 1.3-1.2 1 0 .4 11.8-1.1 19.9-1.6 9.7-.8 20.6 2.1 27.6.5 1.1 1.4 4.5 2 7.5s1.8 7.1 2.5 9c.8 1.9 1.4 4.2 1.3 5-.2 1.7 1.1 12.5 1.8 15.2.8 2.9 2.2 2.1 1.7-1l-.3-2.7 1 2.4c.8 1.8.8 3.3-.1 5.2-.8 2.1-.8 4.5 0 9.6 1.7 10.2 3 37.7 1.9 38.4-.5.3-.3.9.6 1.2.9.4 1.6.1 1.6-.5 0-2.2 2.4 1.1 3.7 5 .7 2 1.1 2.6.8 1.3-.2-1.4 0-3 .6-3.7.6-.8.5-2.1-.3-4-.9-2-1-2.8-.1-3.1.6-.2.9-1.3.6-2.3-.4-1.6-.7-1.7-1.9-.5-.8.7-1.4 2.3-1.4 3.5s-.4 1.8-1 1.5c-.6-.4-.8-1-.5-1.5s.8-3.5 1.1-6.7.9-8.5 1.4-11.8c.6-3.3 1-8 1-10.4 0-5.3.5-5.1 1.4.4 1.2 7.2 2.4 12 2.5 9.9.2-3.4 2.6-3.5 5.5-.2 1.4 1.6 2.6 2.6 2.6 2.1s-.3-1.3-.7-1.7-.7-2.4-.6-4.4c.2-3.5.1-3.5-.5-.7q-.75 3-1.5 1.8c-.5-.7-.5-1.3 0-1.3.4 0 .3-.4-.4-.8-1.2-.7-1.6-2.1-2.7-9.7-.6-3.8-.6-3.9.5-1 .7 1.6 1.6 3.5 2.1 4.1.4.6.6 1.9.2 2.8-.5 1.2-.2 1.5 1 1 2.1-.8 2-4.3-.1-6-1.5-1.1-1.5-1.3-.2-.9 1.4.5 1.6-.6 1.5-9-.1-5.7.3-9.5.9-9.5s.3-.5-.5-1-1-1-.4-1c.8 0 1.4-4.4 1.9-13.5.4-7.4 1.1-13.7 1.5-14s.7-4.3.6-9c-.2-4.7.1-8.5.6-8.5.4 0 .8-.4.8-1 0-.5-.6-.7-1.4-.4-1.1.4-1.6-.6-2-4.3-.3-2.6-1.3-7.7-2.1-11.3s-1.5-7.5-1.5-8.8c0-1.2-.4-2.2-1-2.2-.5 0-1-.7-1-1.6s-.5-1.2-1.2-.8c-1 .6-1 .4-.3-.7.6-.8 1.2-3.9 1.4-6.9.3-5.2.2-5.4-1.5-4-1.7 1.3-1.8 1.3-.7 0 .6-.8 1-3.3.8-5.5-.3-3.1-.2-3.4.4-1.5.7 2.2.9 2.3 1.6.7.4-.9.2-2.3-.3-3-1.2-1.4-1.3-13.5-.1-14.3.4-.2 1.2-3.7 1.9-7.7.6-3.9 1.6-8.3 2.1-9.6.6-1.4 1.7-8.3 2.5-15.4s1.6-13.2 1.8-13.6c.3-.4-.2-2-1-3.6s-1.4-4.9-1.3-7.4c0-2.5-.2-7.3-.5-10.6-.5-4.8-.4-5.5.5-3.5.6 1.4 1.3 6.1 1.5 10.5.3 4.4.8 8.2 1.1 8.5.5.4 0-9.4-1.1-24.2-.7-8.7-1.8-15.3-2.8-16.5-.5-.6-.8-2.1-.6-3.2s-.1-1.9-.7-1.8-.9 2.5-.7 5.4c.2 3.4 0 5.3-.7 5.3-.6 0-1.1-1.8-1.1-3.9 0-5-3.5-16.5-5.6-18.2-1.3-1.1-1.4-.9-.9 1.4.4 1.4.3 3.2-.2 3.9-.5.8-1-.4-1.3-3.6-.3-2.7-1.1-5.1-1.7-5.3-1.7-.6-1.4 8.5.4 11.2 2.6 3.9 1.2 3.6-3.9-.9-4.8-4.2-6.8-4.9-6.8-2.5 0 .6.4.7 1 .4.5-.3 1.4 1.3 2 3.7 1.7 6.6 3.4 8.4 6.8 7.2 1.5-.6 2.6-1.5 2.5-2-.1-.6 1.2-.8 2.9-.6 2.6.4 2.9.7 1.6 1.6-.9.6-1.6 2.5-1.6 4.1 0 3.4-1.6 12.2-2.7 14.7-.6 1.5-.2 1.8 2.1 1.9l2.9.1-2.7 1.1c-1.6.6-2.8 1.7-2.8 2.5 0 .7-.5 1-1 .7-.6-.3-1.5.4-2 1.7-.9 2-1 1.9-.6-1 .4-2.5.2-3.2-1.1-3.2-1.5 0-1.5-.2.1-1.3 1.8-1.3 1.8-1.7.3-7.7-.9-3.4-1.8-6.4-2-6.7-.9-.8-7.9 15.2-8 18.3-.1 3.7-1.2 3.7-1.9-.1-.3-1.5.1-3.5 1.2-4.8.9-1.2 2.7-4.8 3.9-8 1.3-3.1 2.7-6 3.2-6.3 1.5-.9 1-2.6-.6-2-.8.3-1.5.1-1.5-.4 0-.6.5-1 1-1 1.5 0 1.2-2.7-.7-6.3-.9-1.8-1.6-3.6-1.5-4 .1-.5-.2-.6-.8-.2-.5.3-1 1.3-1 2.1 0 .9-.5 2.5-1.2 3.7s-1.4 3.2-1.5 4.5c-.3 2-.1 2.3 1.7 1.7 1.1-.4 2-.2 2 .4s-.9 1.1-2 1.1-2 .7-2 1.5c0 .9-.6 1.2-1.5.9-1.1-.5-1.2-1.1-.5-2.4.6-1 1-2.8 1-3.9 0-1.2.4-2.9.9-3.9.5-.9 1.4-3.7 2.1-6.1 1-3.9 1-4.6-.4-5.7-1.7-1.2-2.1-2.5-.8-2.3 3 .5 4-.6 5.9-6.6l2.1-6.5-2.1-.1c-4.2-.3-6.8-.6-7.2-1-.2-.2.9-3.1 2.5-6.4 2.4-5.2 2.6-6.2 1.3-7.2-1.2-1-1.1-1.2.8-1.5 1.5-.2 2.5-1.2 3-3.1.9-3.2.9-3.2-4.2-.6-2.6 1.3-5.2 3.8-7.1 7-3.3 5.2-4.8 6.1-2.3 1.3s2-5.3-3.2-3.6c-2.8.9-5.9 2.8-7.5 4.6-8.3 9.6-9.5 10.4-2.9 1.8 1.9-2.4 3.1-4.6 2.7-4.9-.3-.3-3.3-.1-6.6.4-4.5.7-6.9.6-9.7-.4-6.5-2.2-8.9-1.5-6 1.7.6.8-.1.3-1.8-1.2-1.6-1.4-3.9-2.8-5-3.1-1.7-.4-1.7-.5.4-.6 1.4-.1 2.1-.6 1.8-1.4-.3-.6-.8-2.1-1.1-3.2-.5-1.5-.4-1.5.5.2.7 1.3 1.8 2.3 2.5 2.3s1.1.6.8 1.3c-.3.9 1.3 1.6 5.6 2.3 4.8.8 6 .7 6-.3 0-1.1.5-1.1 2-.3 2.8 1.5 11.6.9 11.2-.8-.1-.6.3-1.1.9-1 1.1.3 6.4-11.1 5.5-11.9-.8-.8-7.6.7-7.6 1.7s-8 12-8.7 12c-.2 0 0-.6.4-1.3.5-.6 1.9-2.9 3.2-4.9 1.2-2.1 2.7-3.8 3.2-3.8s.9-.8.9-1.8c0-1.6-.6-1.8-5.1-1.2-2.8.4-6.7.3-8.7-.1l-3.7-.7 3.8-.1 3.7-.1v-4.6c0-5-.2-5-5.2-.2-1 1-2.3 1.8-3 1.8-.6 0 .6-1.6 2.6-3.6 4.3-4.2 3.7-5.4-2.7-5.4h-3.8l.6 4.7c.4 3.8.3 4.3-.5 2.5-.5-1.3-1.4-2.1-1.9-1.8s-.7-.3-.4-1.4c.6-2.4-.4-2.6-2.9-.3-2.8 2.5-3.2 1-.5-1.9l2.4-2.6-3.3-2.6c-1.8-1.4-3.7-2.6-4.2-2.6s-1.6-.8-2.3-1.7c-1-1.1.2-.8 3.5 1 2.7 1.5 5 2.6 5.2 2.4.2-.1-.1-2-.6-4.2s-1.1-5.2-1.3-6.6c-.3-1.4-2.8-5.9-5.6-10.1-2.8-4.1-5.1-7.9-5.1-8.3 0-1.2 2.3 1.8 7.3 9.5 2.3 3.6 4.9 6.5 5.7 6.6 2.9.1 6.3 1.6 5.2 2.3-.7.4 1.2 3 4.8 6.6l6 5.8v-6.6c0-3.8-.4-6.7-1-6.7-.5 0-1-.4-1-1 0-.5.6-.7 1.4-.4 2.1.8.9-3.5-1.7-6.4-1.1-1.2-1.5-2.2-.9-2.2.7 0 1.2.4 1.2 1 0 .5.5 1 1 1 .6 0 1-2.3 1-5.1 0-4.7-.1-5-2.2-4.4-1.8.5-2 .4-.8-.5 1.3-.9 1.2-1.2-.5-2.5-7.6-5.7-11.5-9.1-11.5-10.2 0-.7-.6-1.3-1.4-1.3s-1.7-.4-2-.9c-.4-.5 1.2-.7 3.6-.5 4.4.4 6.5 1.4 3 1.4-1.2 0-2.2.4-2.2.9 0 .9 1 1.8 9.5 8.3l4 3 .6-3.9c.6-3.5.6-3.6.9-.8.1 1.6.2 3.3.1 3.7-.3 1.8 2.1.6 6.6-3.3 2.6-2.3 5-4.6 5.1-5 .2-.5.9-.9 1.5-.9.7 0-1.4 2.5-4.7 5.4-3.2 3-5.6 5.9-5.2 6.4.3.5-.2.9-1.1.8-1.3-.1-1.7.8-1.8 3.9 0 2.2.4 4.3 1 4.7.6.5.6 1.1-.3 2-1.4 1.4-1.6 4.4-.4 5.2.5.3 2.6-1.2 4.8-3.2 2.1-2 5.3-4.5 6.9-5.6 1.7-1-.4 1.3-4.7 5.3-7.5 7-7.6 7.2-7.6 12.1-.1 2.7.3 5.2.8 5.5s2.1-1.1 3.6-3c1.5-2 2.9-3.3 3.2-3.1.2.3-1 2.4-2.9 4.7l-3.3 4.2 5.3-.6c6.2-.7 7.1-1.4 8.8-6.5l1.3-3.7-.4 3.7-.5 3.7 3.5-1.6c1.9-.9 3.4-2 3.4-2.4s1.4-1 3.1-1.4l3.2-.7-.7-5.3c-.3-2.9-.8-6.2-1.1-7.2-.4-1.4-.3-1.3.4.2.5 1.1 1.3 2.9 1.6 4 .7 1.7.9 1.5 1.7-1.5.5-1.9 1.4-3.9 1.9-4.5 1.7-1.8.9-3.3-2.1-3.7-1.6-.3-3-.1-3 .2 0 .4-1.6 2.5-3.5 4.6-2 2.1-3.8 4.9-4.1 6.1-.4 1.3-1 2.3-1.5 2.3s-.9.8-1 1.7c0 1.3-.3 1.1-1-.6l-1-2.4-2.9 2.8c-1.7 1.6-3 2.3-3 1.7 0-.7.7-1.5 1.5-1.8 2.9-1.1.3-2.4-3.8-1.9-4.2.5-4.2.5-.7-.5 1.9-.5 4-.7 4.7-.5s1.5 0 1.8-.5c.4-.6 1.7-1 2.9-1 1.7 0 3.3-1.5 5.9-5.4 3.5-5.3 3.5-5.4 1.4-6-4.6-1.2-5.7-.8-5.7 2.6 0 4.9-1.2 2.5-1.5-3.1-.2-3.9.1-4.8 1.1-4.4.9.3 2-.8 3-3.2.8-2 1.8-3.5 2.1-3.2.3.4-.4 2.3-1.6 4.3-2.4 4-2 4.8 2.7 6 1.9.5 3.3-.3 6.9-3.7 2.4-2.4 5.1-5.7 6-7.3 1-2 1.7-2.5 2.3-1.7.5.9.9.4 1.2-1.3.6-2.9-.1-3.2-2.2-1.3-1 .8-.9.5.1-.8 2-2.5 5.9-10.7 5.9-12.4 0-.6.9-3 2.1-5.2 1.1-2.3 1.8-4.3 1.6-4.5-.3-.3-1.5 1.4-2.7 3.8s-2.6 4.5-3.1 4.8c-.4.3-1.1 2.1-1.4 4-.6 3.4-5.4 11.5-6.2 10.6-.3-.2.7-2.2 2.1-4.3 2.8-4.1 3.5-8.6 1.2-7.7-.7.3-1.8 1.5-2.4 2.7-.9 1.8-1.1 1.9-1.1.5-.1-1.7.4-2.4 6-7.1 2.7-2.2 8.5-13.7 7-13.7-.4 0-1.4 1.1-2.1 2.5s-1.7 2.5-2.1 2.5c-1.2 0 .1-3.2 2.2-5.5 1-1.1 2.3-3.3 2.9-4.9s1.3-2.7 1.6-2.4c.2.3 0 1.7-.5 3.2-1 2.5.1 3.7 1.4 1.6 1-1.6-.5-9.1-1.7-8.4-.5.3-1.8 2.7-2.9 5.2-1.1 2.4-2.2 4.2-2.6 3.9-.3-.4 1.8-5.4 4.7-11.1 3.1-6.2 4.9-11 4.4-11.7-.5-.9-.2-1 1-.6 1.2.5 3.5-1.2 8.2-6 3.5-3.6 6.1-6.9 5.7-7.2-.5-.3-1.4-1.8-2.2-3.4-.8-1.5-1.8-2.7-2.2-2.7-.5 0-.5-.8-.2-1.8.7-1.6.6-1.6-1.1 0-.9 1-1.4 2.3-1 2.9.4.8.3.9-.4.5-.8-.5-1.2.1-1.2 1.5 0 1.7.5 2 2.5 1.7 1.4-.3 2.5-.1 2.5.3 0 .5-.7.9-1.5.9-.9 0-1.6 1-1.6 2.7-.1 2.2-.3 2.3-.6.7-.5-2.4-5.1-3.1-5.9-.9-.3.7-1.3 1.1-2.2.9s-2.3 0-3.1.5c-1.1.7-1.1 1.3.3 3.2.9 1.3 1.6 3 1.6 3.9-.1 1.1-.4.9-1.3-.6-1.6-2.8-4.7-6.3-8.4-9.8l-3.1-2.8 1.1 3.3c.7 1.9 1.6 4 2 4.6.5.7.5 1.7.2 2.3-.3.5.1 1 .9 1 .9 0 1.6.6 1.6 1.2 0 .7 1.4 2.5 3.2 4 3 2.4 3.2 2.8 1.7 4.5-.9 1-2.2 3.3-2.9 5.1s-2.6 4.9-4.2 6.9c-1.9 2.4-2.6 4.3-2.3 5.7.4 1.4.3 1.7-.3.8s-2-.4-5.5 2.3c-2.6 2-5.1 3.3-5.6 3s-1.2-.1-1.6.5c-.3.5-1.4 1-2.3.9-1.2 0-1.1-.3.6-.9 1.2-.5 2.2-1.4 2.2-2 0-.5.8-1 1.8-1 3.9 0 17.2-14.7 17.2-19 0-1.7-3.1-1.9-3.7-.2-.8 2.2-5.4 7.2-6.7 7.2-.5 0-1.8.7-2.8 1.6-1.7 1.6-1.7 1.8 0 3.1 1.5 1.3 1.5 1.4-1 .9-2.3-.5-2.7-.3-2.2 1.1.3 1-.2.7-1.1-.7-1.5-2.3-12.2-10-13.8-10-.4 0-.7 2.7-.7 5.9 0 4.8.4 6.3 2 7.4 1.9 1.3 1.9 1.4-.8 1.4h-2.7l.4-7.9c.2-4.6-.1-7.8-.7-7.8-.5 0-2.7 1.1-4.8 2.5l-3.9 2.5 3.7-3.1 3.7-3.2-4.2-2.8c-4.5-3.1-6.6-3.7-4.8-1.5.8 1 .9 1.6.1 2.1-1.5.9-1.3 10.8.3 9.9.9-.5.9-.4 0 .6-1 1.1-.9 1.7.4 3.2 1.6 1.8 1.6 1.8 0 1.2-3-1.1-1.8 1 3.1 5.9 4.6 4.5 6.6 5.6 7.5 3.9.2-.4.3-.2.1.4-.1.6.3 1.7.9 2.3.9 1 .5 1-1.7.1-2.5-.9-2.8-.8-2.2.7.3 1-.4.5-1.7-1.1-1.2-1.7-3.6-4.6-5.4-6.5l-3.2-3.6.3 3c.2 1.6.8 3 1.4 3s1.7.6 2.4 1.4c1.1 1.1 1.1 1.3 0 .7-.7-.4-2-.2-2.8.5-1 .8-1.8.9-2.2.3-1.2-1.7-3.6-2.2-6.2-1.2l-2.4.9 2.4 1.4c6.9 3.9 6.9 3.9 10.8 2.1l3.7-1.7-2.8 2.5-2.9 2.5 3.9 1c5 1.4 6.3 1.4 6.3-.2 0-.8.3-.8.9.2.5.8 1.8 1.2 3 .8 3-.7 2.6.2-.5 1.4-1.7.6-3.8.6-5.8 0-1.7-.5-4.6-1.2-6.3-1.5l-3.3-.6v11l2.8-1.7c1.5-.9 3.7-2.6 4.9-3.7 1.3-1 2.5-1.7 2.8-1.4s-1 1.6-3 2.9c-5.5 3.8-5.3 4.9 1.2 4.9 4.8 0 5.4-.2 4.3-1.5-1.5-1.8.1-2 1.8-.3.9.9 1.8.9 3.9 0l2.8-1.2-2.7 2.4c-2.2 1.9-2.8 3.5-2.9 6.8-.1 2.5-.3 3.2-.6 1.8-1.1-7.3-.7-7-8.3-7-6.6 0-7 .1-7.1 2.2-.1 1.8-.3 1.7-1-.8-.5-1.8-1.9-3.8-3.1-4.7-1.3-.8-3.4-2.4-4.7-3.6-1.4-1.2-3.1-1.9-3.8-1.7-.7.3-1.3 0-1.3-.7 0-.8-1.5-2.1-3.2-3.1-1.8-.9-2.4-1.3-1.3-.9 2.7 1 15.6 1 16.2 0 .7-1.2-1.6-3.6-5.5-5.4-3.2-1.5-3.5-1.5-4.7 0-1.1 1.5-1.4 1.5-2.5.2-1-1.2-.9-1.6.6-2.1 6-1.9 7.8-3 10-6.3 2.9-4.2 3-5.2.7-4.5-1.5.5-1.5.3.2-1.1 2-1.6 1.9-1.7-3-6.1-2.7-2.4-5.4-4.2-6-4-.5.1-1.1 3-1.3 6.4-.3 5.8-.1 6.2 1.9 6.2 2.1 0 2.1 0-.2 1.9-1.3 1.1-2.5 1.5-2.7 1s-1.6-.6-3-.3l-2.7.6 2.5-1.4c2.2-1.2 2.5-2.1 2.8-7.6.3-6.8-.3-7.4-4.6-4.4-1.5 1-4 2.4-5.5 3.2-1.5.7-2.6 1.9-2.3 2.6s-.2 1-1.5.7c-1.9-.5-2.2-2.8-.3-2.8 2 0 12.3-7 11.5-7.8-.4-.4-3-.7-5.7-.5-4.2.3-4.9.6-5.5 2.8-.7 2.5-.7 2.5-.8-.4-.1-2.3-.4-2.6-1.5-1.7s-1.4.8-1.2-.6c0-1 .9-2.1 1.9-2.5 1.1-.5 1.7-1.8 1.7-4.2v-3.5l-5 5c-5.1 5.1-6 7.4-3.7 9.9.6.8.2.6-1-.4-2-1.6-2.3-2.9-2.3-8.5l-.1-6.6-3.9 4.5c-2.8 3.1-4 4-4 2.7 0-.9.4-1.7.8-1.7.5 0 2.6-2.1 4.8-4.8 2.1-2.6 4.4-4.7 5-4.7s4.4-2.9 8.4-6.5c9.3-8.3 12-11 12-12.4 0-1.5-2-4.4-2-3 0 1.1-4.9 3.8-5.7 3.1-1.1-1.1-8.9 7.8-11 12.5-2.1 4.6-2.5 3.2-.6-1.9.8-2-4.3 2-9.7 7.9-1.9 2-2.6 2.4-1.8 1.1 1.1-2 1-2.5-.7-3.8-1.9-1.6-1.9-1.6.3-.5s3 .6 9.5-5.7c4-3.7 7.3-7.1 7.5-7.5s-.7-.9-2-1.1-.9-.3.9-.1c3.7.3 6.4-2 3.7-3-1.2-.5-1.4-1-.7-1.7s1.6-.7 2.9.1c2.2 1.3 7.9-.3 6.9-2-.9-1.4-4.2-1.2-4.8.2-.2.7-.8.9-1.3.5s-.2-1.2.6-1.7 1.1-1.2.7-1.6c-1-1-7.7 2.8-7.7 4.3 0 .7-.4 1.3-.9 1.3-.9 0-5.4 3.5-9.8 7.8-1.3 1.2-2.7 2.2-3.2 2.2-1.2 0-8.1 7.7-8.2 9.2-.2 2.7-1.7-3.9-1.8-8-.1-2.8-.5-4.2-1.4-4.2-1.6 0-4.8 3.4-6.7 7.3-1.2 2.5-1.1 2.9 1.1 5.5l2.4 2.7-3-2.5c-4.3-3.6-4.4-3.9-2.1-6.5 4.9-5.6 7.8-9.6 7.2-10.2-.3-.3-.6-.2-.6.4s-.7 1.3-1.5 1.7c-1.3.4-1.3.2-.5-1.4.5-1 1-2.1 1-2.3 0-1.2-3.2.1-5.6 2.4l-2.7 2.4 2.4-3.7c1.3-2.1 2.9-3.6 3.5-3.4 1.4.5 3.4-1.3 3.4-3.1 0-2.2-4.3-1.4-7.5 1.3-1.6 1.4-3.9 3.4-5.1 4.3-1.1.9-2.6 2.6-3.3 3.8-1 1.9-.8 2.4 1.1 3.4 1.3.6 2.5 1.3 2.7 1.5s-.6 1.5-1.8 3c-1.1 1.5-2.1 2.2-2.1 1.7s.5-1.4 1.2-2.1c.8-.8.8-1.5-.2-2.7-1.3-1.6-3.2-2.1-2.8-.8.2.7-1.5 8.4-2.9 13.8-.5 1.9-.5 1.9 1.4.3 1.9-1.7 2.1-1.7 4.6 1 1.5 1.6 2.7 3.5 2.7 4.4s.6 1.8 1.2 2c.9.3.8.9-.5 2.2-1.6 1.7-1.7 1.6-1.7-.4 0-3.3-2.8-9-4.3-9-.8 0-1.8 1.2-2.2 2.7-.7 2.6-.8 2.6-1.5.8-.8-1.8-.9-1.8-1 .5-.1 1.4-.3 4.4-.5 6.6-.2 3.3 0 4.1 1.4 4 .9 0 2.4-1.5 3.4-3.1 1-1.7 1.6-2.3 1.4-1.5-.6 1.9-5.4 13.4-7.8 18.5-2.6 5.7-3.9 11.4-2.8 12.1.5.3.9-.6.9-2s1.4-4.7 3-7.3c1.7-2.6 3-5.3 3-5.9 0-.7 1.6-2.5 3.5-4 1.9-1.4 4.5-4.3 5.7-6.3 2.4-3.9 6.8-9.6 6.8-8.7 0 1.9-8.7 14.5-11.1 16.1-1.6 1.1-2.9 2.4-2.9 2.9s-.7 1.7-1.5 2.6c-2 2.2-6.3 14.2-5.8 15.8.4 1 1.6.4 4.1-2l3.5-3.3-2.4 3.3c-1.3 1.9-3.1 4.5-4 5.9l-1.7 2.5-1.3-3.6c-.7-2-1.6-3.6-2-3.6-1.1 0-5.3 14.2-5.2 17.5 0 3-2.4 5.8-4.1 4.8-.5-.4-.6-.1-.3.4.4.6 0 1.6-.8 2.3-1 .8-1.5.9-1.5.2 0-.6-.7-.9-1.5-.6-.8.4-1.2 1-.9 1.5s-1.1 1.8-3 3c-3.6 2.1-4.7 3.9-2.3 3.9.6 0 3.6-1.9 6.6-4.1 9.7-7.4 15.1-10.9 15.1-10 0 .5-1.2 1.9-2.7 3-2.7 2-2.7 2-.5 2.1 1.2 0 2.5-.7 2.8-1.5.4-.8 1.5-1.5 2.5-1.5 1.1 0 2.2-.6 2.5-1.4s1.8-2.2 3.2-3.2c1.7-1 .9.2-2.1 3.3l-4.9 5 3 .5c3.8.5 7.3-.7 7.9-3 .6-2 6.3-6.8 6.3-5.2 0 .6-.7 1.3-1.5 1.6-.9.4-2 1.5-2.6 2.5-.8 1.6-.6 1.9 1.6 1.9 1.5 0 2.5-.6 2.5-1.5 0-1.6 1.5-5.2 7.3-17.2 4.5-9.6 4.5-12.4 0-5.9-1.8 2.6-3.8 4.6-4.4 4.6-.7 0-.1-1.1 1.3-2.5s3.6-4.5 4.9-7 3-4.5 3.7-4.5c.8 0 1-.8.6-2.5-.4-1.5-.1-3.2.6-4 .9-1 1-3.1.6-6.3-.4-2.6-.8-5.8-1-7.2-.1-1.4-.4-3.2-.5-4s-1.1-2.6-2.2-3.9c-1.5-1.8-2.3-2.1-3.1-1.3-.7.7-1.6 1.2-2.2 1.2-.5 0-.2-.6.9-1.3 1-.8 1.5-1.9 1.1-2.5-.4-.7-.2-1 .7-.7.7.3 2.1 1.9 3.1 3.5.9 1.7 2.4 3 3.2 3s1.4 1 1.4 2.4c0 1.3 1.8 5.4 4.1 9.1 2.2 3.6 3.8 7.2 3.5 7.8-.2.7-.5.5-.5-.4-.1-.9-1.2-2.8-2.5-4.2s-2.6-3.2-2.9-3.9-.3.7 0 3.2.9 4.7 1.3 5 1 1.5 1.4 2.7c.6 1.8.4 2.2-.7 1.7-2.1-.8-1.3 7 1.1 10.4 1.1 1.7 1.8 4.1 1.6 6.4-.1 2.1.1 3.7.5 3.6 2-.2 3.1.8 7.1 6.9 2.4 3.8 4.9 7.4 5.4 8.2.8 1.1.8 1.3-.2.7-.7-.4-2.4-2.6-3.9-4.9-1.4-2.2-3.6-5.1-4.8-6.5-2-2.1-2.3-2.2-2.9-.6-.4.9-.3 2 .1 2.3s1 2.4 1.2 4.6c.1 2.2.8 4.3 1.5 4.7.6.4.7.8.1.8s-1 4.2-1.1 10.5c-.1 5.7.3 10.2.7 9.9.5-.3.9-2 .9-3.7 0-3 .1-3.1 1.3-1.1.6 1.2 1.8 3.2 2.6 4.5 1.4 2.4 1.4 2.4-.7.6-2-1.8-2-1.8-2.7 1.1-1 4.9-.3 17.3 1.1 16.8 1.8-.7 2.5.5 1.2 2.1-.8 1.1-.7 1.7.8 2.8 3 2.3 4.4 1.8 4.4-1.4 0-1.7.5-3.3 1-3.6.6-.4 1 .5 1 1.9s.6 2.6 1.3 2.6c.9 0 .8.3-.2.9-1.9 1.2.3 2.4 3.2 1.6 1.7-.5 1.8-.4.7.4-1.9 1.3-.8 2.3 3.1 2.5 2.8.1 3.2.5 3.4 3.3.2 2.7.1 3-1.1 1.8-.8-.7-1.4-1.8-1.4-2.4s-.8-1.1-1.8-1.1-2.3-.5-3-1.2c-.8-.8-1.5-.8-2.7.2-.9.7-1.5.8-1.5.2s-1-1.4-2.2-1.8c-1.3-.3-3.6-1.6-5.1-2.7l-2.9-2 .2 2.9c.5 7.2-.6 8.4-2 2.2-.8-3.1-.8-3.2-.9-.6-.1 1.6-.5 2.8-1.1 2.8-.5 0-1 .5-1 1 0 1 3.9 2.9 6.8 3.4 1.8.3 3.7 2.4 2.9 3.2-.4.4-1.6-.1-2.6-1-1.1-1-2.5-1.5-3.1-1.1-.7.4-1.6.1-2.1-.6-1.2-2.1-2.2-.3-2.1 3.8.1 2.2 1 4.5 2.1 5.7 2.7 2.6 3.5 1.6 2.3-2.8-.6-2-.7-3.4-.2-3.1.4.3 1.1 2 1.4 4 .4 1.9 1.5 4 2.5 4.7 1.6 1.1 1.7 1.6.7 3.1-.7.9-1.6 1.4-1.9 1-.4-.3-.2-1.2.4-1.9.8-1 .6-1.2-.9-.9-1.1.2-3.1-.5-4.3-1.6-2.6-2.2-4.1-2.5-3.3-.5.3.8.1 1.7-.5 2.1-.6.3-1.1 2.4-1.1 4.6 0 2.1-.4 3.9-.9 3.9s-.7.9-.4 2c.7 2.7 1.9 1.7 2.7-2.1l.6-3.2 2.5 2.3c3 2.8 3.9 2.3 2.5-1.4-1.2-3.4-1.3-4.6-.1-4.6.5 0 1.6 1.9 2.3 4.2 1.1 3.1 2.1 4.4 3.6 4.6 1.2.2 2 .8 1.6 1.3-.3.5-1 .6-1.6.3-1.2-.8-.5 2.9 1.6 8l1.3 3.1 2.2-4.5c1.6-3.3 1.9-5 1.2-6.5-2-4.4-5.1-12.8-5.1-13.9 0-1.2 6.3 11.6 7.4 15.2 1.2 3.6 5.7 11.2 6.7 11.2.5 0 1-1 1-2.3.1-2 .2-2 .6-.2.3 1.1 1 2.6 1.7 3.4.9 1.2.8 1.3-.6.8-1.3-.5-1.8-.1-1.8 1.3 0 1-.4 2.2-1 2.5-2.1 1.3-5.1 10-4.8 14.2.1 2.4.4 4.3.7 4.3s1.2 1.2 1.8 2.8l1.3 2.7-2-2.3-1.9-2.3-.7 2.8c-.3 1.5-1 4.3-1.5 6.2-.4 1.9-.6 3.8-.3 4.3.9 1.4-.5 6-1.6 5.3-.6-.3-1-1.6-1-2.8 0-3.4-5.2-16.9-6.1-16-.5.5-1.7 3.4-2.8 6.4-1.4 4.1-1.7 6.7-1.1 9.8.4 2.3.3 4.4-.1 4.7-.5.3-.9-.4-.9-1.5 0-1.2-.4-2.1-.8-2.1-.5 0-.9-1.5-1-3.3 0-1.7-.3-5-.6-7.2l-.6-4 1.3 3.4c1.5 4 1.9 3.6 4.1-3.8 1.7-5.8 1.2-7-2.6-7.1-.9 0-2.3-.3-3.2-.6-1-.4-1.6-.1-1.6.9 0 .8-.8 2.1-1.7 2.8-1.5 1.2-1.6 1.2-.8-.6.4-1.1.8-2.8.9-3.8 0-1.4.6-1.7 2.1-1.2 6.4 1.9 8.2 1.8 8.9-.6l.8-2.4.7 2.4c.4 1.6 1.9 2.8 4.4 3.7 3.6 1.3 3.7 1.2 3.7-1.2 0-1.4-.5-3.1-1.2-3.8-1-1-1.6-.9-3 .8-1.1 1.3-1.7 1.6-1.8.8 0-.7.7-2 1.5-2.8 1.7-1.7 1.9-5.2.5-7.4-.9-1.3-1-1.3-1 .1 0 2-2.3 6.9-3.2 6.9-1.1 0-1-1.8.2-2.5.6-.3 1-1.5 1-2.6 0-1.6-.4-1.9-2.2-1.3-1.3.3-3.1 1.3-4.1 2.2-1.4 1.2-1.7 1.3-1.7.1 0-.8 2-2.7 4.5-4.3 3.1-1.9 4.3-3.2 3.6-4-.5-.6-1.2-3-1.6-5.3-.8-5.3-2.3-6.4-3.1-2.4-.4 1.7-1 3.1-1.4 3.1s-1 1.8-1.4 3.9c-.8 5.1-2.3 6.2-1.8 1.3.3-2 1.6-5.6 2.9-8 2.3-4.2 2.5-7.2.4-7.2-.6 0-1.3 1.7-1.7 3.8-.4 2-1.7 5.7-3 8.2s-2.4 5.2-2.5 6c0 .9-.2 1-.5.3-.3-.6.6-3.6 2-6.6 3-6.7 3.8-13 1.6-13.4-2.4-.5-7.2 12.6-7.7 21.1-.9 13.7-1.9 20.2-2.7 18.3-.5-.9-.6-3.1-.4-4.7.3-1.7.1-3-.2-3-.9 0-1.9 5.9-2.1 11 0 2.8-.2 3.1-.8 1.5-.6-1.5-.8-.8-.9 2.5 0 2.5-.3 6.1-.6 8-.5 2.6-.4 3 .3 1.5.7-1.4 1 2.2 1 11.3.1 7.3.6 15.3 1.2 17.8.9 3.4.9 4.8 0 5.7-.6.6-1.1 1.8-1.1 2.6 0 1.4.1 1.4 1 .1.8-1.3 1-1.2 1 .2 0 1-.5 1.8-1.1 1.8-.7 0-.9 1.3-.5 3.7.3 2.1.8 5.8 1.1 8.3 1 8.4 5.3 25.8 6.6 26.6.5.3.9 1 .9 1.6s-.6.5-1.6-.3c-1.4-1.2-1.6-1.1-1.2.6.2 1.1 1 1.9 1.6 1.7.7-.1 1.2.5 1.2 1.3s-.6 1.2-1.4.9c-1-.4-1.4 1.3-1.9 7.3-.4 6.8-1.4 10.5-4.7 18.8-.4 1.1-1.8 6.4-3 11.7-2.2 9.8-3.6 13.2-2.5 6 .8-4.9 4.2-23.3 6.5-35.2 1.1-5.2 1.8-9.6 1.6-9.8s-1.2 2.3-2.1 5.5-2.3 7.1-3 8.8c-.7 1.6-2.8 7-4.6 12-3.3 9.2-5.6 13.5-4.3 8 .4-1.7 2.4-8.2 4.6-14.5 2.1-6.3 4-11.9 4.1-12.4s-1.6-1.6-3.8-2.4-6.8-2.5-10.2-3.8c-7.9-3.1-8.3-3-8.3.7 0 1.9-.4 2.8-1.1 2.4-.6-.4-.8-1.3-.5-2.1.6-1.6-.2-4.4-1.4-4.4-.4 0-1.5 1.8-2.5 4-2.8 6.2-3.7 5.8-1.5-.6 1.1-3.2 2-5.8 2-5.9s-1.9-1-4.2-2.1c-2.4-1-7.7-4-11.8-6.6-4.1-2.7-7.9-4.8-8.5-4.8-.5 0-2.9 2.9-5.3 6.4-4.9 7.3-8.9 11.4-5.6 5.8 1-1.8 3.6-5.6 5.7-8.4 4.4-5.7 4.1-7.9-.3-2.7-4.4 5.1-3.6 2.2 1-3.6 6.2-7.9 10-13.3 9.9-14.2 0-.4-3.1-3.4-6.9-6.6-4.6-3.7-7.8-5.7-9.5-5.7-2.1 0-2.5-.4-2.1-1.8.5-1.3-.3-2.7-2.6-4.5-1.7-1.5-2.9-2.9-2.6-3.2.7-.7 11.2 7.3 18.8 14.2 3.1 2.9 6.1 5.3 6.7 5.3.5 0 2.5-2.1 4.3-4.8 1.9-2.6 6-8 9.2-12 3.3-4 5.8-8 5.6-8.7-.4-1.9-1.3-1.2-8.2 6.7-4.1 4.8-6.5 6.8-8.2 6.8-2.3 0-8.7-3.3-11.2-5.7-.7-.7-1.7-1.3-2.1-1.3-.6 0-11.1-12-18.2-20.8-1.4-1.7-2.1-1.5-6 1.1-3.8 2.6-4.8 5.3-2.6 7 1.8 1.5 3.2 5.7 1.8 5.7-.5 0-2.3-1.1-3.9-2.5-2.6-2.2-3.4-2.4-5.6-1.4-1.4.7-2.7 1.7-2.9 2.3-.7 1.6 1.9 4.9 3.2 4.1.6-.3.9 0 .5.8-.2.7.4 2.5 1.5 3.8s2 1.8 2.1 1.1c0-.6.4-1.2.9-1.2s.7.8.5 1.7c-.3 1.2.4 2.2 2 2.9 2.1 1 2.8.9 4.1-.5.8-1 1.5-2.5 1.5-3.3 0-.9 1.1-2.3 2.5-3.2s2.5-1.2 2.5-.6c0 .5-.4 1-.9 1s-1.2 1.3-1.6 2.9c-.3 1.6-1.3 3.2-2.1 3.5-1.6.6-1.9 3.6-.3 3.6.6 0 .8.8.5 1.8-.4 1.1.2 2.7 1.4 4 2.1 2.2 2.6 4.2 1.2 4.2-.5 0-2.2-1.3-3.8-3-1.6-1.6-3.3-3-3.9-3-.5 0-2.3 1.6-3.8 3.6-1.6 1.9-3.1 3.3-3.4 3.1-.5-.5 1.4-4.2 3.5-6.9 1.2-1.5.7-2.5-3.7-8-2.7-3.5-6.3-7.8-7.8-9.6l-2.8-3.2-4.8 3.1c-6.2 4.1-7.3 3-1.3-1.2 6.6-4.7 5.7-5.7-1.2-1.3-9.6 6.1-9.5 6-4.4 12.4 5.3 6.6 8.7 10 10.2 10 .5 0 1 .6 1 1.4s.7 1.6 1.5 2c.8.3 1.5 1.2 1.5 1.9 0 1.8 4.5 4.1 6 3.2.9-.5 1-.1.5 1.4-1 3.1 1 2.6 3.5-1 1.2-1.6 2.5-2.8 2.8-2.5.3.4-.4 1.6-1.5 2.9-4.3 4.8-4.5 4.6 10.1 15.5 6.7 5 9.3 7.8 8.3 8.8-.4.4-2.9-1.4-15.4-11.7-6.7-5.6-9-7.8-26.3-25.7-10-10.4-10.2-10.4-16.3-4.8-3.8 3.5-4.4 5.6-2.7 10.1.8 2.1 1.4 2.5 3.1 2 1.5-.5 1.9-.4 1.5.4-.4.6-1.4 1.1-2.2 1.1-1.3 0-1.9 1.3-1.5 3.4.1.5.4 4.5.7 8.9.5 8.5 1 10.1 2.5 9.2.5-.4.9-.2.9.4 0 .5-.5 1.3-1.1 1.7-1.2.7-.7 16.7.6 20.9.4 1.4-.4 3.3-2.7 6.3l-3.3 4.3-.8-3.7c-.5-2.8-.3-4.1.8-5.4 1.7-1.8 2-9.1.5-10.6-.5-.5-1.2-5-1.6-9.9-.3-5-1.2-10.6-1.9-12.7-.8-2-1.2-5.1-.9-7 .5-2.6-.2-5-2.6-9.8-1.7-3.4-2.9-7.1-2.7-8.1.3-1.1.1-2.1-.4-2.4-.4-.3-.5-1.3-.2-2.1.5-1.3.1-1.5-1.6-.9l-2.1.6 2.2-3.7c3-5.1 2.6-12-1.3-20.1-1.7-3.5-3.4-6.3-3.8-6.3s-1.6.9-2.5 1.9c-1 1.1-2.9 2.2-4.3 2.5-3.8 1-25.4 12.7-25.9 14.1-.5 1.2-4.4.9-4.4-.4.1-.3 5.9-3.4 13.1-6.9 14.3-7 22.9-12.8 22.9-15.5 0-.9.4-1.7.9-1.7s0-1.7-1-3.7c-1-2.1-1.9-4.5-1.9-5.4 0-2.8-4-10.9-5.4-10.9-.7 0-3.7 1.7-6.7 3.9-3 2.1-7.9 5.1-10.9 6.6s-6.6 3.6-8 4.7l-2.5 2-.5-2.4c-.9-3.5 0-6.7 1.6-6.1.9.3 1.2 1.3.8 2.5-.6 1.9-.4 1.8 3.8-.3 5.3-2.7 9.1-5.6 8.1-6.1-.5-.3-.1-.3.7-.1 2 .5 9.9-3.7 11.1-5.9.5-1 .6-1.8.1-1.8-.4 0-.6-1.6-.4-3.5s0-3.5-.5-3.5-1-2.3-1.1-5.2c-.1-2.8-.4-5.4-.7-5.6-.5-.6-5.8 2.1-9.1 4.5-1.9 1.4-1.9 1.4 0 2.9 1.1.8 1.6 1.4 1 1.5-.5 0-2.8.1-5.1.3-3.9.2-4.3 0-4.3-2.1 0-1.3.6-2.3 1.4-2.3 1.1 0 1.2-.8.6-3.5-.4-2-.4-3.5.1-3.5s.9 1.3.9 3c0 3.9 2.4 4 7.4.2 2.8-2.1 3.5-3.2 3.2-5.2-.2-1.4 0-3.3.6-4.4.8-1.5.7-1.8-.5-1.3-1.1.4-1.4 0-1.3-1.7.2-1.3.6-2.8 1-3.4.4-.7.2-1.2-.4-1.2-.7 0-1-.6-.8-1.2.4-1.2-1.4-3.8-2.6-3.8-.3 0-2.8 2.2-5.5 4.9-2.8 2.6-5.1 4.6-5.1 4.4 0-.6-5.9 3.5-9.8 6.9-2 1.7-4.4 2.8-6.3 2.8-1.6 0-4.5.6-6.4 1.4-3.5 1.5-13.4 3.3-12.5 2.3.3-.3 4.3-1.5 8.8-2.6 10-2.5 17-6.1 22.9-11.8 2.4-2.4 4.8-4.3 5.3-4.3s2.5-1.4 4.5-3.1c4.6-4.1 4.4-7-.5-8-1.9-.4-3.6-1.2-3.8-1.8s-1.2-1.1-2.3-1.1c-1 0-1.9-.5-1.9-1 0-.6.5-1 1-1 .6 0 1-.9 1-2 0-1.5-.7-2-2.5-2s-2.5-.5-2.5-1.9c0-1.1.5-2.3 1.1-2.7 1.4-.8.2-9.6-1.4-10.6-.6-.4-3.3 1.5-6 4.3-2.6 2.7-6.2 5.6-7.8 6.5-3 1.5-4.2 2.4-9.3 7-1.8 1.6-2.6 1.9-2.6.9 0-.8.6-1.8 1.4-2.2 2.3-1.3 13.7-11.4 17.8-15.8 2.1-2.2 3.8-3.5 3.9-3 0 .6.4 0 1-1.3.6-1.7.5-3-.6-4.5-.8-1.2-1.5-3.3-1.5-4.7s-.4-3.1-.9-3.9-.7-2-.4-2.8c.6-1.5 6.9 8.5 6.5 10.1-.2.5.9 2.2 2.4 3.7 1.5 1.6 2.5 2.9 2.2 2.9s1 1.7 2.9 3.7c2.7 3.1 4 3.7 6.6 3.5 4.9-.4 13.6-2.4 13.5-3.1-.1-.3.3-4.2.8-8.6s.8-9.7.6-11.8c-.2-3.9.3-4.3 2.8-2.7 1.3.8 1.3 1.1.1 1.9-.7.5-1 1.4-.6 2 .9 1.6 3.5-.5 3.5-3 0-1 .4-2.1 1-2.4s1-1.5 1-2.6.4-1.8.9-1.5c.5.4.5 2.2 0 4.3-1.2 5.1-1.1 5.3.6 5.3.8 0 1.5.4 1.5 1 0 .5-.7 1-1.5 1s-1.6.8-1.7 1.7c-.9 10.3-1 10 2.9 10.1 2 .1 4.1.6 4.7 1.2.5.5 2.1 1 3.4 1 1.7 0 2.3.4 1.8 1.5-.3.8-.1 1.5.3 1.5.5 0 1.1-.5 1.3-1.1.2-.7 1.2-.7 2.9-.1 2.9 1.1 6.3-.2 4.2-1.6-.7-.4-.9-1.3-.4-2.1.6-.9 2-1.1 4.9-.6 5.2.8 8.2-.1 8.2-2.6 0-1-.4-1.9-1-1.9-.5 0-1-.9-1-2s.6-2 1.4-2c1.5 0 2.6-2.1 2.6-5 0-1.9-2.6-3-7.2-3-1.5 0-3-.4-3.3-1s-2.1-1-3.8-1.1c-2.4 0-2.7-.2-1.4-.8 1.3-.5.5-1-3.2-1.7-6.4-1.3-7.1-.6-7.8 7.6-.8 8.8-2.6 8.9-2.1.1.4-7.1.3-7.2-1.9-6.6-1.6.4-2.3.1-2.3-.9 0-.8 1-1.6 2.3-1.9 2-.3 1.9-.4-.8-1.1-5.4-1.4-6-1.7-4.9-2.4.6-.4 1.4-2.8 1.7-5.5.6-4.5.6-4.7-1.8-4.7-2.8 0-4.1-1.6-2.7-3.3.5-.7 1.2-3.1 1.5-5.5l.5-4.2H428c-2.1 0-4.3-.6-4.9-1.4-.7-.8-3-1.7-5.2-2.1-2.1-.4-3.9-1-3.9-1.5 0-.4 2.1-.3 4.6.2 5.7 1.2 5.4 1.5 9.5-11.7 1.7-5.5 3.5-10.4 4-10.9 1.6-1.7 1-4.3-1.3-6l-2.3-1.7 2.7.4c3.4.5 3.6.3 9.6-11.4 4.4-8.7 9.9-17.4 13-20.7 1.7-1.9 1.5-.1-.3 2.5-.8 1.2-2.7 4.5-4.1 7.4-2.6 5.1-2.6 5.3-.8 6.7 3.5 2.6 15.8 8.2 16.5 7.4.4-.4 2.2-4.3 3.9-8.6 1.8-4.4 3.6-8.7 4-9.5.4-.9 2-4 3.5-6.9 2.5-4.9 2.6-5.5 1.1-7.1-2.3-2.5-2-3.8.4-1.6 1.4 1.2 2 1.4 2 .5 0-.7 1-2.3 2.3-3.5 1.2-1.2 5.6-5.7 9.8-10.1 11.7-12.1 19.4-18.6 31.6-26.8 5.8-3.9 5.7-3.7 1.8-11.9l-1.6-3.2 2.1 2.4c1.1 1.3 2 2.9 2 3.6s.6 1.8 1.4 2.4c1.2 1 3.6.1 12.3-4.2 13.4-6.9 29.6-13.7 32.1-13.7 1.1 0 2.3.7 2.6 1.6.3.8.2 1.2-.4.9s-1-.2-1 .4c0 1.4-5.3 4.1-7.9 4.1-1.4 0-1.9.5-1.6 2 .4 2.1-2.1 4.1-4.3 3.3-1.8-.7-4.2 1.6-3.5 3.3.6 1.7-.1 1.8-2.7.2-1.6-1-2.4-.9-4.9 1-1.7 1.2-3.5 2.2-4 2.2-.6 0-2.8.9-5 2.1-3 1.5-3.8 2.5-3.4 3.7.6 1.5.5 1.5-1 .3s-1.7-1.1-1.7.2c0 2.8 1.8 2.8 7.3.2 6.5-3 7.3-3.1 8-.4.4 1.5.2 1.9-.9 1.5-1.4-.5-10.4 3.9-10.4 5 0 .3 1.2 2.7 2.6 5.5 3.4 6.8 2.3 7.5-1.7 1-2.9-4.7-4.8-6.3-5-4.4 0 .5-.2 1.8-.3 3-.3 2.6-3.3 6.3-5.2 6.3-.8 0-1-.8-.6-2.2l.5-2.2-3.2 2c-5.8 3.7-12.1 9.5-12.1 11.1 0 .9-.6 1.3-1.4 1-1.4-.6-8.6 3.8-8.6 5.2 0 .5-1.2 2-2.6 3.5-2 1.9-2.4 2.9-1.6 3.9.9 1 .5 1.3-1.8 1.1-3-.2-4.1 1.1-1.7 1.9.6.2 0 .3-1.6.1-2.5-.3-2.7-.2-1.6 1.7 1.2 2.4.4 3.8-1.3 2.1-1.6-1.6-3.3-1.5-2 .1 1.3 1.5-.8 4.7-3.2 4.7-1.1 0-1.6.9-1.6 2.8 0 1.6.3 3.2.7 3.5.8.8 1.4 5.7.7 5.7-.3 0-1.5-1.2-2.8-2.6-1.8-2.2-2.8-2.5-5.2-2-3.8.9-8.3 4.3-6.8 5.3 2.3 1.7 2.3 4.3-.1 6.9-1.4 1.5-2.5 3.2-2.5 3.8 0 1.7 3.7 3.7 5.5 3s2.1 1.2.2 2c-.8.4-.7.5.3.5 2.8-.2 4 .1 4 1 0 1.2-3.9 2.1-4.6 1-.8-1.4-6.5-4.1-7.2-3.5-.3.4.3 1.3 1.4 2.1 1.8 1.3 1.7 1.4-1.1.6-2.1-.6-3.4-.4-4.2.4-1.5 1.6-.6 2.5 2.3 2.5 2.5 0 4 1.5 2.5 2.4-.5.4-1.2.2-1.6-.4-1.1-1.8-2.3-1.1-3.4 2.1-.6 1.8-1.1 3.4-1.1 3.6 0 .8 9.2 4.5 9.7 3.9.4-.3.1-.6-.5-.6-.7 0-1.2-.5-1.2-1 0-.6.9-1 1.9-1s2.1-.7 2.5-1.5c.3-.8.1-1.5-.5-1.5s-.7-.5-.4-1c.4-.6.2-1.7-.5-2.5s-.7-1.5-.1-1.9c.5-.4 1.4.2 2 1.1.9 1.6 1.3 1.5 3.5-1.2 2.5-3.1 5-2.8 2.8.3-2 2.9-5.2 10.5-4.7 11 .3.3.5 0 .5-.6s.6-1.7 1.4-2.4c.7-.8 2.3-3.2 3.5-5.4 1.2-2.1 3.2-5.7 4.4-7.9s2.1-4.8 1.9-5.9c-.2-1 0-1.6.6-1.2 1.3.8 3.9-2.3 4.7-5.7.4-1.5 1.1-2.7 1.5-2.7.5 0 1.1-1.3 1.5-2.9q.6-3 2.1-2.4c.8.3 1.4-.1 1.4-.9 0-.7 1.4-1.9 3-2.5 3.5-1.3 3.9-3 .8-3.5-1.2-.2-2.3-.9-2.6-1.7-.3-1 .4-1.2 3.6-.6 3.5.6 4.1.4 4.7-1.4.7-2.4 3.2-2.8 3.7-.7.2 1 1.8 0 5.1-3.1 3.1-2.9 4.6-5.1 4.3-6-.5-1.1-.2-1.3 1-.9 2.1.8 5.5-2.1 4.7-4-.3-.8 0-1.4.6-1.4s1.1-.8 1.1-1.9c0-1 .8-2.5 1.7-3.2 1.5-1.2 1.6-1.2.9.6-.5 1.1-1.1 3.1-1.4 4.4l-.5 2.4 3.1-2.2c4.2-2.9 4.3-3.3 2.7-6.4-.8-1.5-1-2.7-.6-2.7s1.3 1.1 2.1 2.4l1.3 2.4 4.4-2.1c3.8-1.9 4.5-1.9 5.3-.7.5.8 1 2.2 1 3-.1 1.2-.4 1.1-1.5-.4-1.3-1.8-1.5-1.8-4.5.4-2.7 1.9-2.9 2.4-1.7 3.9 2.2 2.6 5.7 9.1 5.7 10.7 0 .8.5 1.4 1 1.4.6 0 1 .8 1 1.7.1 1.7.1 1.7 1.4 0 1.2-1.5 1.5-1.5 2.6-.2 1.3 1.5 4.2 2 5.3.9.3-.4.2-1.5-.4-2.6-1.8-3.3-.2-3.2 1.7.1 1 1.7 2.5 3.1 3.3 3.1s1.2-.3.8-.6c-.7-.7 1.8-3.6 2.9-3.3.3 0 1.8-1 3.2-2.4 1.5-1.3 4.1-3.2 5.9-4.2l3.2-1.8-2.5-4.8c-2.4-4.9-3.1-8.9-1.5-8.9.5 0 2.2 2.9 3.7 6.5 2 4.6 3.4 6.5 4.7 6.5 1.6 0 1.8-.5 1.2-3.3-.4-1.7-1.3-4.3-2-5.7-1.9-3.8-2.7-7-1.8-7 .4 0 1.4 1.5 2.1 3.2.7 1.8 1.8 4.1 2.3 5 .5 1 .9 2.7.9 3.8 0 1.5.7 2 2.9 2 1.7 0 3.3-.5 3.6-1 .4-.6 1.4-.8 2.4-.5.9.3 2.5-.1 3.6-.8 1.7-1.3 1.7-1.5.2-3.8-2.3-3.2-2.1-4.7.2-1.8 2.5 3.1 3.3 2.1 2.5-3-.6-3.6-.9-4.1-2.8-3.6-1.9.6-1.9.4.4-1.4 1.3-1.1 2.8-1.7 3.2-1.5.4.3 1 2.7 1.4 5.4.7 5.1 1.4 5.9 3.2 3.7 1.1-1.3.1-9.2-1.5-10.8-1-1-7.8.1-16.3 2.5-7 2-10 2-10 .1 0-.8-.4-1.5-1-1.5-.5 0-1-.9-1-2.1 0-1.6-.4-1.9-1.7-1.4-3.6 1.5-5.3 1.7-5.3.7 0-.5 1.3-1.5 3-2.1 3.6-1.2 3.6-1.1.9-9.6-1.1-3.7-1.8-6.9-1.6-7.1.4-.5 1 .9 4.3 9.9 1.4 3.8 2.1 4.7 3.6 4.4 2.2-.6 2.4.8.2 1.7-.8.3-1.3 1-1 1.5.9 1.3 4.9.3 12.1-3.1 2.8-1.3 4-.6 3.2 1.6-.5 1.3-2.2 1.7-10.7 2.9-.8.2-2.1.6-2.9 1.1-1.1.7-1.1 1 .2 1.8 1 .5 3 .3 5.4-.6 2.1-.8 6.5-2.2 9.8-3.2 3.3-.9 6.7-2.3 7.6-3 1.1-1 1.8-1.1 2.6-.3.9.9 1.9.3 4.1-2 2.4-2.6 3-2.9 3.5-1.7.4.9.4 2.2.1 3-.6 1.7 2.1 10.3 2.9 9 .3-.5.4-5 .3-9.9-.1-7.3-.6-9.9-2.5-13.8-1.4-2.6-3-4.7-3.7-4.7-1.4 0-2.8-2.8-2.5-4.8.3-1.6-3.9-.6-5.2 1.2-.5.8-1.2.6-2.1-.7-1.4-1.8-3.2-2.4-2.1-.7.3.5 0 1-.8 1s-1.7.6-2 1.4c-.4.9-1.8 1.3-3.9 1.2-5-.5-5-.5-3.8-2.6.6-1.1 1.6-1.9 2.3-1.7.8.1 1.2-1.5 1.1-5.5-.2-6.1 1-7 2.1-1.5 1.4 6.7 1.2 6.6 5.5 5.5 2.2-.6 4-1.4 4-1.9s-.7-.6-1.5-.3c-1 .4-1.5 0-1.5-1.4 0-1.1-.3-2.8-.7-3.7-.5-1.5-.3-1.6 1.5-.6 1.7.9 2.2.9 2.2 0 0-.6.6-.9 1.4-.6 2.9 1.1 4.4-1.7 5-9.3.7-8.8 1.7-13.4 3.9-17.5 4-7.6 13.2-12.4 24.5-12.8 6.6-.1 13.5 2.7 17.9 7.3 2.2 2.4 3.8 3 9 3.6 3.4.3 6.1 1 5.8 1.4-.2.4-2.8.3-5.7-.1-2.8-.5-5.3-.7-5.5-.5-.2.1.4 2.2 1.2 4.6.8 2.3 1.5 5.3 1.5 6.6 0 1.6.7 2.4 2.3 2.7l2.2.4-2.2.2c-2.5.1-2.8 1.6-1.7 8.3.4 2.2 1.2 3.8 2 3.8s1.6 1.2 2 2.7c.3 1.6.7 3.3.9 4 .2.6 3 1.4 6.2 1.8 3.2.3 6.8 1 8.1 1.6 1.3.5 2.8.7 3.3.3.6-.3 1.7 0 2.5.7 1.6 1.3 14.9 5.9 17.2 5.9.7 0 3 .8 5.1 1.8 3.6 1.8 3.9 1.8 4.9.2 1.1-1.8-.1-4-2.2-4-1.7-.1-6.1-3.8-5.4-4.5 1-1.1 9.9 2.2 21 7.7 5.5 2.7 10.1 4.8 10.2 4.6.2-.2 1.2-1.7 2.4-3.5 1.2-1.7 2.2-3.8 2.2-4.7s.5-1.6 1-1.6c1.6 0 1.2 1.8-1.5 6-2.9 4.6-3.1 5.6-1 6.4.9.3 2.1-.4 2.9-1.7 3.7-5.9 10.6-17.6 10.6-18 0-.3-1.4-1-3.2-1.6-4-1.4-3.2-2.4 1-1.2 2.8.8 3.4.6 5.2-1.6 1.1-1.4 2-3.1 2-3.8 0-.6.9-2 1.9-2.9 1.9-1.7 1.9-1.7 1.4.6-.4 1.2-1.7 3.6-3 5.1-1.2 1.6-2.3 3.3-2.3 3.8 0 .7 2.7 2.5 12.9 8.4 3.7 2.2 12.7 8 13.7 9 .6.5 4 3.2 7.4 6 3.5 2.7 7.4 6 8.8 7.3l2.4 2.3 2.4-2.2c1.3-1.2 2.4-2.7 2.4-3.2s1.8-2.8 4.1-5.2 6.8-8.3 10.1-13.2c10.5-15.5 16.7-19.8 36.3-25.7 5-1.5 15.1-4.6 22.5-7 21.8-7 28.9-9 29.6-8.3.4.3-.6 1.1-2.2 1.8-1.6.6-3.8 1.5-4.9 2-1.1.4-3.7 1-5.9 1.4-4.4.7-10.6 3.5-10.6 4.7 0 .5-.4.7-.9.3-.5-.3-1.6.2-2.4 1-.9.8-1.8 1.5-2.2 1.5-.3 0-1.8 1.1-3.3 2.5s-4.5 3.1-6.7 3.7c-2.2.7-5.1 1.9-6.5 2.7-7.5 4.4-13.2 8.5-13.7 9.7-.3.8-1.2 1.4-2 1.4s-2.7.7-4.3 1.5c-2.4 1.2-2.8 1.3-2.4.1.3-.7 1.6-1.8 3-2.5 1.4-.6 3-1.6 3.7-2.1 2.7-2.4 12.1-7.9 18.7-11.1 8.3-3.9 10.3-6.6 3.2-4.2-2.6.9-5 2-5.3 2.5s-2.1 1.3-4 1.8c-1.9.4-5.1 1.5-7.1 2.4-2.1.9-3.8 1.2-3.8.7s.9-1.1 2-1.4 2-1 2-1.6c0-.5-1.9 0-4.1 1.2-2.7 1.4-3.6 2.3-2.5 2.5.9.2 1.6.7 1.6 1.1 0 .9-4.3.6-5.9-.4-.6-.3-1.1-.4-1.1-.1s1.2 1.2 2.8 2c2.5 1.4 2.6 1.5.5 1.6-1.3 0-2.3.4-2.3.8s-1.3 1.6-3 2.5c-1.6 1-3 1.5-3 1.2 0-1.2-11.1 9.9-12.8 12.7-.8 1.5-1.9 2.5-2.4 2.2-.4-.3-.8.1-.8.8-.1 1.7-3.5 5.8-4.9 5.8-1.6 0-1.3 1.1.7 2.6 1.6 1.2 1.5 1.3-.4.8-1.6-.4-3 .5-5.8 3.9-2.1 2.5-3.7 4.8-3.6 5.2s-.9 1.9-2.3 3.3c-2.5 2.8-4.2 6.1-3.8 7.6.2 1-4.3 8.8-7.6 13.2-1.2 1.7-2.3 3.5-2.3 4.1 0 .5-1.6 2.6-3.5 4.6s-3.5 4.3-3.5 5.1-.6 1.7-1.2 1.9c-.8.3-.5.6.6.6 1.4.1 1.6.4.8 1.3-.6.7-1.3 3-1.7 5s-1.3 3.9-2.1 4.2c-1.4.5-2 4.7-.8 5.9s3.3-.6 3.9-3.5c.6-2.6.9-2.8 2.1-1.6 1.1 1.1 1.2 2 .2 4.6-1.1 2.8-1 3.5 1 6.2 1.4 1.8 2.1 3.8 1.7 4.9-.3 1.1.4 2.6 2.1 4.2l2.7 2.4-.6-2.2c-.4-2 0-2.4 3.4-3.3 2.8-.8 4.3-1.9 4.9-3.6.5-1.3 1.2-2.4 1.4-2.4.3 0 .2.8-.1 1.7-.6 1.6-.5 1.6 1 .4.9-.7 1.5-1.6 1.3-2-.2-.3 1.6-2.1 4-3.8 4.1-3 6.4-3.2 2.8-.2-3.8 3.1-3.6 9.9.2 9.9 2.1 0 12.4-6.2 12.3-7.5-.1-2.6-5.8-11-7.3-10.9-2.9.3.6-3.9 4-4.8 2.5-.6 2.7-.5 1.2.6-1.6 1.2-1.5 1.6.6 6.2 3.5 7.5 4.3 7.9 11 4.8 4.6-2.1 5.6-2.9 5.1-4.5-.7-2.1.5-2.5 2.1-.9.8.8 5.1-1 14.2-5.5 7.2-3.6 13.4-7 13.7-7.6.4-.5 1.4-.9 2.3-.9 3.2 0-1 2.8-16.3 10.5-16.9 8.6-25.5 13.4-25.5 14.1 0 .3 1.2 3 2.6 6 1.4 3.1 2.4 5.7 2.1 6-.5.5-4.7-4.9-6.6-8.4-.6-1.2-1.5-2.2-2-2.2-.4 0-3.5 1.8-6.9 3.9-5 3.3-6 4.3-5.5 6.1.3 1.2 1.2 2.4 1.9 2.7.8.3 1.4 1.4 1.4 2.4 0 1.1.7 2.2 1.5 2.5.8.4 1.5 1.9 1.5 3.5 0 1.7.7 3.2 1.8 3.8s2.3 3.2 3.1 7c1.4 6.4 2.1 7 6.6 4.9 1.7-.7 2.4-1.7 2-2.7-.5-1.2-.2-1.1 1.3.2 1.7 1.6 2.2 1.6 4.8.2 1.6-.8 3.6-1.5 4.4-1.4.8 0-.2.9-2.2 2-4.5 2.3-4.7 4.2-2.3 15.4.9 3.9 2.3 10.4 3.2 14.5.8 4.1 2 8 2.5 8.7.8 1 6.4 1.1 9.3.2 1.8-.5 5.5 1.2 5.5 2.6 0 2.2-1.9 2.8-3.6 1.1-1.9-2-3.5-2-5.9-.2-1.7 1.2-1.7 1.6-.6 3 .8.9 1.1 1.9.8 2.3-.4.3-1.6-.5-2.7-1.8-2-2.4-2-2.4-3.5-.4s-1.6 1.9-2.1-.2c-.5-1.8-1.3-2.2-4-2.1-3 .1-3.4.4-3.4 2.9 0 1.5.4 3 .8 3.3.5.3.6 2.6.2 5.1-.7 4.8-.5 5.5 1.8 5.5.9 0 2.4.8 3.4 1.7 1.6 1.5 2.1 1.5 2.8.3.5-.8.6-1.7.1-2-.4-.3-.8-3-.9-6-.2-4.7-.1-5.2 1.1-3.6.8 1 1.2 2.9.9 4.2-.3 1.7 0 2.4 1.2 2.4 1.3 0 1.4.3.4 1.9-1.6 2.6.7 7.4 3.2 6.6 1-.3 4.3.1 7.5 1 7.7 2 9.1 1.1 9.7-5.9.4-4.8 1.1-6.2 5.2-11 2.6-3.1 9.4-9.1 15.2-13.3 7.6-5.8 10.4-8.4 10.4-10 0-3 2-4 2.7-1.4.4 1.6 1.3 2.1 4.2 2.1 9.4 0 16-4.4 16.1-10.7 0-2.1.8-3.8 2.5-5.1l2.5-2-2.6-.6c-2.8-.7-2.7-1.7.3-8.9 1.1-2.6 1.9-3.4 2.5-2.5.5.9.8.6.8-1 0-1.2.5-2.2 1.1-2.2.8 0 .9.9.4 2.7-.4 1.6-1 7.3-1.2 12.8s-.9 10.4-1.4 11c-.5.5-.9 3.8-.9 7.3 0 5.4-.2 6.3-1.4 5.3-1.1-.9-1.7-.4-2.9 2.7-.9 2.2-2.7 5.6-4.1 7.7-1.4 2-2.4 4.1-2.1 4.5.3.5 0 1-.5 1.2-1.8.6-5.4 16.7-4.7 20.4.3 1.5-.1 2.5-1.2 2.7-.9.3-.4.5 1.2.6 1.9.1 2.7.6 2.7 1.9 0 2.2 4 6.2 6.2 6.2 1.8 0 4.1 2.4 3.2 3.3-1.1 1.1 4.6 4.1 8.7 4.6.4.1 1.8 1.2 3.1 2.6 1.4 1.4 4.2 3.9 6.3 5.5 7.5 6 1.3 2.8-13.1-6.7-2.7-1.8-5.8-3.3-7-3.3-1.1 0-3-1.4-4.2-3-1.3-1.7-2.7-3-3.2-3-1.2 0-6-4.8-6-6 0-.5-.8-1.1-1.9-1.5-3.4-1.1-8.6 2.1-7.6 4.8.3.7-.1 2-1 2.7-.8.7-1.5 1.8-1.5 2.4 0 .7-1.4 2.8-3 4.6s-3 4.2-3 5.1c0 1-.4 2-1 2.4-.5.3-1.4 2.2-1.9 4.3-.9 2.9-.8 3.8.4 4.5 1.9 1 2 2.8.1 2.1-.8-.3-1.7-.1-2.1.5-.3.6.2 1.1 1.2 1.1 1.7.1 1.7.1 0 1.1-1 .6-1.7 2.2-1.7 4 0 1.6-.4 3.7-.9 4.7-3.4 6.7-3.2 17.3.5 21.5 1.1 1.3 2.3 3.4 2.7 4.8l.6 2.4-2-2.4c-1-1.3-1.9-1.9-2-1.5-.1.5-.4-.2-.8-1.6-.5-2-1.5-2.6-4.6-3l-4-.5.1-10c0-5.5.4-12 .9-14.4.5-2.5.4-4.6-.1-5-3.3-2.3-4.8-7-5.4-16.8-.3-5.7-1-10.7-1.5-11.2-.6-.6-2.5-.7-4.8-.2-2 .5-5.4.5-7.4.1-2.3-.6-4.2-.5-4.9.1-.8.7-1.4.6-1.7-.3-.3-1-.9-.9-2.3.4-1.6 1.4-2.2 1.4-3.7.3-1.4-1-2.6-1.1-4.9-.3-2.4.8-2.8 1.5-2.4 3.3.5 1.9.1 2.2-2.5 2.2-2 0-2.6-.4-1.9-1.1 1.6-1.6 1.2-2.6-1.1-2.6-1.1 0-1.7.4-1.4 1s.1 1-.4 1c-.6 0-1.1-.5-1.1-1 0-.6-.6-1-1.3-1-1.4 0-3.7 7.3-3.7 11.7 0 2.8 2.4 5.2 5.3 5.3.9 0 1.7-.6 1.7-1.3 0-.6.8-.2 1.8.9 1.7 2.2 12 4.5 10.7 2.4-.3-.6-.2-1 .3-1 .6 0 1.2.7 1.6 1.5.3 1 1.9 1.5 4.5 1.5 2.2 0 4.3.5 4.6 1 .6.9-8.4 1.6-13.9 1.1-1.4-.1-1.7.4-1.3 1.9.3 1.1-.3 2.8-1.3 4-1.6 1.8-1.8 1.9-2.4.4-.4-.9-.2-2.2.4-2.9.8-.9.5-1.4-1.2-1.9-3.5-.9-3.5-.9-3.6 3.4-.2 3.6.1 4 2.2 4 3 0 4.4 3.9 1.9 5.7-2 1.6-3.6.6-3-1.8.3-1-.2-2.4-1-3.1-1.4-1.1-1.5-1-.9.8.4 1.5.2 2.3-.8 2.7-.9.4-1.8.3-2-.2-.7-1.1.5-5.1 1.5-5.1.5 0 .9-.7.9-1.6 0-1.2-.6-1.5-2.2-1-1.3.3-2.7.6-3.3.6-1.4 0-5.9 6.9-5.1 7.7.3.3 1.4.7 2.4.8 2.7.2 4.2 1.4 4.2 3.6 0 1.1.5 1.7 1 1.4.6-.3 1 0 1 .7s.9.2 2-1.2c2.4-3 2.6-1.3.6 4.5-1.4 3.9-4.4 6.6-3.2 2.9.3-1.1.2-2.4-.2-3-.9-1.3-4.2-2.6-4.1-1.6.3 1.9-.2 2.3-1.5 1.3-1-.8-1.6-.9-2.1-.1-.3.5-1.7 1-3 1-2.3 0-4.5 2.5-4.5 4.9 0 1.2 5.8 3.9 9.4 4.4 1.3.1 3 .8 3.7 1.4 1.5 1.1 4.2 2.1 8 2.8 1.2.3 2.7.9 3.3 1.5.5.5 1.9 1 2.9 1 1.5 0 1.8-.5 1.4-2.1-.7-2.8 1.4-1.9 3 1.2.7 1.3 1.3 1.9 1.3 1.4 0-1.1 2 1.6 2 2.8 0 .4-1 .5-2.3.2q-4.05-.9-4.8 3c-.5 2.5-3.5 2.7-3.1.2.2-.9-.2-1.7-.8-1.7-2.1 0-.9-2 1.3-2.1 2.1 0 2.1-.1-.3-1.1-1.4-.5-4.5-1.6-7-2.3-4-1.3-4.3-1.3-2.5.1 1.1.8 3 1.7 4.3 2.1 1.2.3 2.2.9 2.2 1.4 0 .4-2.1.2-4.7-.6-6-1.8-6.3-1.8-6.3 0 0 .8-.7 1.5-1.5 1.5s-1.5-.7-1.5-1.5.5-1.5 1.1-1.5c2.3 0-.4-2-3.6-2.6-1.9-.3-3.9-1.2-4.6-2-1.5-1.8-2.9-.9-2.4 1.7.4 1.8.2 1.9-1.1.8-1.3-1-1.7-1-2.4.1-.6 1-1.1.8-2.1-.9-1.9-2.9-3.1-2.6-2.7.6s-1.1 3.9-3.7 1.8c-1.4-1-1.6-1.7-.9-2.2.6-.5 1.4-1.8 1.8-3 .6-1.9.2-2.5-2.1-3.4-1.9-.7-2.9-.7-3.1 0-.2.6-1.3.4-2.8-.5-1.6-1.1-2.4-1.2-2.4-.5s-.5.9-1.1.5c-.7-.4-1-.1-.7.7s1 1.3 1.5 1.2c.6-.1 2.1.9 3.4 2.3l2.4 2.5-3-1-3-1.1 2.3 1.9c1.2 1.1 2.2 3 2.2 4.3 0 3.1 6.4 6.6 8.6 4.7 2-1.7 1.9 1.5-.2 3.5-1.7 1.7-3.9 2.2-2.9.6.3-.5-.9-1.6-2.8-2.4-5.9-2.4-7.7-2.8-7.7-1.6 0 .6-1.5 3-3.3 5.3-4.2 5.2-5.5 7.3-3.8 6.3 1.4-.9 5.1.2 5.1 1.6 0 .6-.8.7-1.7.3-3.8-1.5-5.3-1.3-6.8.8s-1.3 2.4 2.1 5.3c2.8 2.4 3.2 3.3 2 3.7-.8.3-1.8.2-2.1-.4-.4-.5-1.1-.7-1.6-.4-.5.4-.9.1-.9-.6s-.3-.9-.7-.6c-.3.4.6 2.1 2.2 3.7 3.2 3.4 3 5-.3 2-1.2-1.1-2.8-2-3.6-2s-1.8-.5-2.1-1c-.9-1.4-2.4-1.2-2.1.3.3 2.2 1.7 3.7 3.5 3.7 1 0 2.6.9 3.5 1.9 1.7 1.9 1.7 1.9-.4 1.4s-2.1-.4-.8 1.8c2.6 4.6 5.1 6.9 7 6.3 2.3-.7 5.1 2 5.4 5.4.5 4.4 4.6 5.5 5.2 1.4.2-1.1 1.3-2.4 2.4-2.8 2-.6 1.9-.8-1-3.7-2.8-2.7-3.4-2.9-5.7-1.9-2.4 1.1-2.5 1-2-1.1.5-1.8.1-2.6-1.9-3.5-1.4-.6-2.6-1.6-2.6-2.2 0-1.5 4.2.4 10.7 5l5.8 4 3.3-3.8c3.5-3.9 16.1-22.5 16.5-24.4.1-.6-1.3-1.7-3-2.4-3.2-1.4-3.3-1.3-3.3 1.1 0 1.4-.7 2.8-1.5 3.2-2.3.8-3.1-.5-1.7-2.8 1.6-2.5 1-3.5-3.3-4.9-3.5-1.1-4.4-2.3-2.6-3.5.5-.3 1.3 0 1.7.6.5.9 1.1.7 2.1-.6 1-1.5 1.6-1.6 2.5-.7.7.7 1.9 1.2 2.7 1.2.9 0 2.7.9 4.1 2 3.4 2.6 5.9 2.5 6.9-.4.5-1.3 1.7-2.6 2.7-3 1.4-.6 1.6-.1 1.1 3.3-.4 3.6-.2 4.3 2.7 6.4 1.7 1.3 4.6 2.9 6.5 3.7 4.1 1.6 17.9 8.9 27.4 14.3 11 6.3 9.4 7.1-2.3 1.2-2.8-1.4-5.5-2.3-6-2-.6.4-1 .2-1-.4 0-1.2-16.2-9.5-24.8-12.6l-6.3-2.3-3 6c-1.7 3.3-4.5 8.1-6.2 10.7-5.2 7.4-6.2 10-4.9 11.3 1.5 1.5 1.6 3.2.2 2.3-.5-.3-1-.1-1 .5 0 .7-.7.9-1.7.5-2.1-.8 3.3 5.2 6 6.6 1.4.8 2.2.5 3.7-1.3 1.1-1.3 1.9-1.9 2-1.4 0 .5-.7 1.8-1.6 2.8-1.4 1.5-1.5 2-.3 3.5.8 1-1 0-3.9-2.1-3.2-2.3-5.7-3.5-6-2.9-3 4.5-16.2 19-16.2 17.6 0-.3-1.7 1.3-3.7 3.5-2.1 2.2-5.2 4.8-6.9 5.9-4.4 2.6-11.4 8.8-11.4 10 0 .6-1.1 1.4-2.5 1.7-1.4.4-2.5 1.1-2.5 1.6s-1.6 1.6-3.5 2.4-3.8 2.2-4.1 3.1c-.3.8-1.5 1.5-2.5 1.5-1.7 0-5.6 1.7-6.9 3-.3.3-1.8 1.2-3.5 2-1.6.8-4.2 2.2-5.7 3.2-1.4 1-3.3 1.8-4.2 1.8s-1.6.8-1.6 1.9c0 1-.6 1.9-1.2 1.8-3.6-.1-4.7.4-4.1 1.9.4 1.2 0 1.4-2.1.8-1.7-.4-2.6-.2-2.6.6 0 .6-.4.8-1 .5-1.3-.8-7 2.5-7 4.1 0 .6.9 3.7 2 6.9 2.8 8.1 2 9.1-1 1.4l-2.5-6.4-5 .4c-7.4.4-8.9 1.5-8.1 5.9 2.8 16.4 2.6 26-1.4 67.7-1.3 14.4-1.2 25.8.5 35.3.8 4.5 1.7 8.7 2 9.3.4.5.8 2.3 1 4 .5 3.5 5.1 11.4 12.6 21.4 2.8 3.9 5.6 8 6.2 9.2 1 2.2 1.6 2.3 12.8 2.3h11.7l.5-2.8c1.4-7.9.5-10.6-4.8-15.7-3-2.7-3.2-3.2-1.9-5 1.4-1.8 1.5-1.8 5.6.5 7.3 4.1 11.8 10.4 11.8 16.6 0 2.3-.3 2.6-2.5 2.2-1.4-.3-2.5-.1-2.5.3 0 .5.5.9 1 .9.6 0 1 .7 1 1.5 0 1.2 1.3 1.5 5.9 1.5 6.8 0 7.5-.9 5.9-6.7-2.6-9.7-7.9-15.1-21.6-21.9-5.3-2.6-9.9-5.1-10.2-5.4s-1.6-.7-3-.9c-1.4-.1-3.7-.9-5.2-1.7-1.6-.8-2.8-1.2-2.8-1 0 1.1-9-2.3-10.7-4s-1.7-1.7.7-1c1.4.4 4.5.9 7 1.2s5 .9 5.5 1.4c1.2.9 5.6 2 10.5 2.7 1.9.3 4 .9 4.6 1.4s1.4.6 1.7.3c.4-.4 1.8.1 3.1 1 1.4.9 5 2.5 8 3.7 6.8 2.5 19.2 10.6 22.8 14.8 1.4 1.7 3.6 3.1 4.7 3.1 2.1 0 3 2.5 1.1 3.2-.6.2-.8 2.2-.4 5.1l.7 4.7h14.3c7.9 0 14.4-.3 14.4-.7 0-2.6-3.9-12.5-6.2-15.7-2.9-4.2-3.8-6.7-1.5-4.4s6.7 9.7 6.7 11.3c0 .8.4 1.5.9 1.5.6 0 1.1 1.7 1.3 3.7.3 3.5.6 3.8 3.6 4.1 2.6.3 3.2 0 3.2-1.7 0-2.9 1.7-3.5 2.5-.8.6 1.9.8 1.9 1.2.4.6-2.3 3-2.2 3.8.3.3 1.1 1.1 2 1.6 2 1.2 0 1.1-.7-.2-3.1-.6-1.1-.9-2.5-.6-3.2.2-.7 1.2.5 2.1 2.5 2.1 4.4 5.6 5.3 5.7 1.5v-2.2l1.1 2.2c1.7 3.5 8 3.3 9.6-.2s1.5-5.2-.4-5.9c-1.2-.4-1.4-1.4-1-3.8.5-2.5.4-2.8-.3-1.3-1.2 2.5-1.3-11.7-.2-15.5l.8-2.5 1.1 2.5c.6 1.4 1.8 6.1 2.7 10.5s2.3 10.4 3.2 13.2l1.4 5.3h9.9c11 0 11 0 11-7.6 0-2.4.5-4.4 1-4.4.6 0 1 .8 1 1.8 0 2.5 5.3 6.2 8.8 6.2 1.6 0 4.2.6 5.8 1.4s6.6 1.8 11.2 2.2c7.2.6 8.2.5 8.2-1 0-.9.5-1.6 1-1.6.6 0 1 .7 1 1.5 0 1.3 21.2 1.5 185 1.5h185l-.2-140.2-.3-140.3-6.2-4.5c-3.3-2.5-7.5-5.3-9.3-6.3-1.8-.9-3.4-2.5-3.7-3.5-.2-1.1-2.2-2.3-4.9-3.1-2.5-.8-6.4-2.9-8.6-4.8-2.3-1.9-5.4-3.7-7-4s-3.1-1-3.4-1.4c-.3-.5-1.7-.9-3.1-.9-1.8 0-2.4.4-1.9 1.5.7 2-3.2 2-5.8 0-2-1.5-2-1.5 0-3 1-.8 2.4-1.5 3-1.5 4.2-.1 30.2 11.7 31.2 14.2.2.5 3.8 3.2 8 6s8.6 6.3 9.9 7.6l2.3 2.5V214h-7.7c-4.3 0-8.5-.5-9.3-1-1.1-.7-1.2-1-.2-1s1-.4-.2-1.6c-1.4-1.4-1.4-1.7.5-3.7 1.7-1.9 3.1-2.2 9.5-2.2h7.4V0H770.3L260.5.1l2.8 2.2c1.6 1.2 5.5 4.7 8.8 7.8 4.7 4.4 5.9 6.1 5.8 8.5 0 1.6-.3 2.3-.6 1.6-.2-.6-1.1-1.2-1.9-1.2-1 0-1.4-.8-1.2-2.2.2-1.7-.5-2.6-3.1-3.9-1.9-.9-4.8-3.1-6.5-5s-4.6-4.4-6.3-5.7L255.1 0H0zM1149.1 4c1 0 1.9.4 1.9.9 0 1.3-6.2 7.1-7.6 7.1-.7 0-1.5 2.3-1.9 5.7-.4 3.1-1.2 6.7-1.7 7.9-1.4 3 .9 5.9 5.3 6.8 2.4.4 2.9 1.1 2.9 3.3.1 3.2 2.4 6.8 3.9 5.9 1.1-.7 8.4 2.8 10.2 5 .6.8 2.5 1.4 4.1 1.4 4.4 0 14.7 5.8 15.4 8.7.4 1.3 1.1 2.7 1.8 3.1.6.4 1.8 2.3 2.7 4.2 1.5 3.3 1.5 3.7-.4 7.3-1.1 2.1-3.4 5.3-5.1 7.1s-4 4.6-5.1 6.1c-1.1 1.6-3.2 4-4.7 5.4-1.6 1.3-2.8 3.2-2.8 4.1 0 1.2-1.9 2.3-6.5 3.9-9.8 3.2-11.4 2.7-11.5-3.2-.1-4.1-3.4-6.7-8.4-6.7-2.4 0-4.8-.5-5.1-1-.3-.6-2.1-1-3.9-1s-5.5-.9-8.2-1.9-6.8-2.4-9.1-3.1l-4.2-1.3.6-4.6c.7-6.1 3.9-15.7 4.6-14 .3.8.6-.3.6-2.3.1-3.1.6-4 3.1-5.3 2-1 3.3-2.6 3.7-4.5.3-1.7.9-3 1.4-3 .4 0 2.3-1.5 4.3-3.3 3.2-3 3.4-3.6 2.7-6.9-1.1-4.5-1.9-5.8-3.7-5.8-1.9 0-1.8-.7.5-3.7 1.4-1.6 1.9-3.6 1.7-6.1-.3-3.5-.6-3.7-4-4-4-.4-4-.5-2.6-3 .5-.9 1.4-2.9 1.9-4.3.9-2.4 1.6-2.7 8.1-3.3 4-.3 8-1.1 8.9-1.6s2.2-.7 2.9-.5c.8.3 2.2.5 3.3.5M217.9 17.2c5.8 3.6 8.7 8 9.5 14.7.3 3.3 0 4.7-1.4 6.1-1.3 1.3-1.5 2-.7 2.4.7.3 0 .3-1.5 0-2.1-.5-2.8-.2-2.8 1 0 1 .8 1.6 2.1 1.6 2.6 0 5.3 2.7 5.6 5.4.2 2.9 2 10.6 3 13.6.5 1.4.7 5.1.5 8.2-.4 5.5-.5 5.7-4.2 7.2-2.6 1-4 2.2-4.2 3.8s-1 2.3-2.8 2.3c-6.9.3-8.1.5-7.4 1.6 1.1 1.9-1.8 2.8-4.1 1.3-1.2-.8-4.2-1.7-6.8-2-4-.6-4.7-.4-4.7 1 0 .9.7 2.8 1.6 4.1 1.6 2.5 1.6 2.5-1.2 2.7-10.7.7-12.3.6-12.9-1.1-.6-1.4-.8-1.3-1.5.4s-1.1 1.3-2.9-2.8c-1.6-3.7-2.5-4.7-4.4-4.7-2.7 0-4.7-1.7-4.7-4 0-.9-1.1-2.7-2.5-4-4.2-4-6-14.6-3-18.6.8-1 1.5-2.6 1.5-3.5s.9-2.4 2.1-3.5c2.1-1.9 7-2.2 15.1-.8 3.3.5 4.1.2 7.2-3.1 3-3 4.6-3.8 9.1-4.4 6.5-.9 7.3-1.5 5.1-3.6-.9-.9-1.6-2.5-1.6-3.5 0-2.3 3.2-4.2 5.4-3.4 2.4.9 2-3.9-.5-6.2-1.3-1.2-1.8-2.6-1.5-4 .4-1.3 0-2.7-1-3.5-1.5-1.2-1.4-1.4.7-2 4.2-1.2 6.1-1 9.8 1.3m78.6 101.1c3.3 1.9 9 4.4 12.5 5.5 18.3 5.7 35.3 10.1 42 11.1 4.1.6 8.6 1.3 10 1.6 1.4.4 4 .8 5.8 1 3.4.4 7.1 2.8 13.2 8.6 4.3 4.2 11 12.1 11 13.1 0 1.9-3.9.6-6.6-2.2-1.6-1.6-3.6-3-4.4-3-1.1-.1-1-.4.4-.9 1.7-.6 1.6-1-1.3-3.4-3.8-3.2-11.7-7.2-16-8.2-1.7-.4-2.9-1-2.7-1.4.3-.4-.3-.7-1.2-.7-3.2 0-16.2-2.7-15.7-3.3.6-.5-10.2-3.1-14.5-3.4-1.4-.1-2.7-.5-3.1-.9-.3-.4-1.8-.9-3.5-1.2-3.3-.4-7.7-2-11.6-4.1-1.4-.8-3.3-1.5-4.2-1.5-1.8 0-8.4-3.2-12.6-6-1.4-.9-5-3.2-8.1-5-4.3-2.5-5.5-3.7-5.2-5.1.5-1.6 1.1-1.3 5.2 2 2.5 2.2 7.3 5.5 10.6 7.4m767.6-6.1c-1.1 2.9-8.5 7.6-13.3 8.4-3.3.6-7.5 1.8-11.3 3.4-3 1.3-8.5 1.8-7.8.7.3-.5-.7-.7-2.3-.4s-6.8.9-11.6 1.2c-4.9.4-9.1 1.1-9.4 1.6-.3.6-1.4.7-2.5.4-1-.4-1.9-.2-1.9.4 0 .7-.8.7-2.6.1-1.4-.6-3-.8-3.5-.4-.5.3-.9.1-.9-.4 0-1.6 7.3-3.1 20.4-4.2 7.2-.6 13.3-1.3 13.6-1.5.4-.2 3.5-.7 7-1 3.4-.3 7-1 8-1.5s2-.7 2.2-.4c1.4 1.3 15.7-7.7 15.9-9.9 0-.8.2-.9.5-.1.3.6 0 2.2-.5 3.6m-88.2 9.4 2.6 2.2-6-.6c-12.2-1.2-22-.2-27.8 2.9-1.1.6-2.4.6-3.8-.1-1.5-.8-2.4-.8-3.4 0-.7.6-2.6 1.3-4 1.6-1.5.3-4 1.1-5.6 1.9-1.5.8-3.4 1.5-4.2 1.5s-2 .7-2.7 1.5-1.7 1.5-2.3 1.5c-.5 0-.2-.9.9-2.1 1.8-2 1.8-2-.9-1.4-4.4 1.1-3.2-1.2 1.6-2.9 3.6-1.3 6.8-2 13.7-3.1 3.3-.6 10.8-2.4 15.5-3.8 3-.9 8.7-1.5 14.4-1.4 8.2.1 9.8.4 12 2.3m66.6 10.6c2.9 1.3 2.9 1.5 1.1 4.6-2 3.6.1 9.2 3.4 9.2 1.4 0 3.1.4 3.9.9 1.1.7.9 1-.8 1.6-1.1.3-2.1 1.1-2.1 1.6s-1 .9-2.2.9c-1.3 0-1.8.3-1.2.8.6.4 1.4 2.3 1.8 4.2.3 2 1.5 4.3 2.6 5.3 4 3.4 1.1 8.3-4.3 7.5-1.8-.2-2.2-1-2.3-4.3-.2-7.5-.4-8.5-1.9-8.5-.8 0-1.5-.7-1.5-1.5s-.7-1.5-1.5-1.5c-.9 0-3.2.7-5.2 1.5-3.8 1.6-7.7 2-6.9.7.3-.5 2.4-1.5 4.6-2.2 2.3-.8 4.8-2.3 5.6-3.4s1.4-1.5 1.4-.8.5 1 1.1.6c.7-.4.2-1.3-1.5-2.3-1.9-1.1-2.6-2.4-2.6-4.7 0-2.4-.5-3.3-2.2-3.8-3.9-1-6.9-.7-8.5 1-1.2 1.1-1.9 1.2-2.7.4s-.6-1.5.6-2.4c1-.7 1.5-1.5 1.3-1.8-.7-.6 12-4.3 16.2-4.7.7 0 2.4.4 3.8 1.1m-57.8 2.3c1.9.8 4.3 1.5 5.2 1.5s1.7.8 1.7 1.7c.1 1 .4 2.6.9 3.5.6 1.5.2 1.8-2.3 1.8-3.3 0-5-1.4-3-2.4.7-.3.3-.3-.9 0s-3.1.1-4.1-.5c-1-.5-5.1-1.2-9-1.5-6.3-.4-7.5-.2-9.1 1.5-1.1 1.2-3.6 2.7-5.8 3.4-2.1.8-3.5 1.4-3.1 1.5.4 0-.6 1.4-2.2 3.2-1.6 1.7-3.2 2.9-3.5 2.6-.9-.9 12.5-13.8 14.3-13.8.9-.1 3.5-.9 5.7-2 4.8-2.3 10.3-2.5 15.2-.5m46.8 31.1c1.4.9 2.5 2.2 2.5 3 0 1.8-3.2 3.4-6.9 3.4-1.6 0-3.3.4-3.6 1-.3.5-1.5 1-2.6 1-1 0-1.8.6-1.6 1.2.1.8-1.6 1.5-4.8 1.9-4.3.5-10.7 2.3-16.5 4.6-3.3 1.3-14 3.9-14 3.4 0-1.5 6.9-4.2 15-6.2 5-1.1 9-2.5 9-3s.7-.9 1.5-.9 1.5-.4 1.5-.8c0-.7 2.2-1.8 10.8-5.2 1.2-.5 2.2-1.6 2.2-2.4s1-1.7 2.3-1.9c1.2-.2 2.3-.5 2.5-.6.1 0 1.4.6 2.7 1.5m-639.6 7c.3-.2 1.7.4 3.1 1.4 1.9 1.4 2.5 3 3 7.7.3 3.2.3 8.2 0 11.1s-.1 5.7.4 6.2c.6.6.5 3.3-.2 7.3-.7 3.6-1.2 10.2-1.3 14.8 0 4.6-.4 9.3-.9 10.4-.7 1.7-.9 1.6-.9-1.1-.1-1.6-.8-3.9-1.6-5-1.7-2.3-1.9-5.1-.3-5.6.7-.3 1.1-3.4 1.1-9.1 0-4.8.3-9 .7-9.2s.8-3.5.9-7.1c.2-8.1-2.2-17-5.5-20.1-1.3-1.2-2.4-2.7-2.4-3.3 0-.7.7-.5 1.6.4.8.9 1.9 1.4 2.3 1.2m-39.4 12.8c1.1-.5 2.6.4 4.6 2.9 2.9 3.5 7.5 5.5 9 4 .4-.4.4-2.5-.1-4.7s-.5-3.5 0-3 1.4 2.7 1.9 4.9c.5 2.4.9 3.1 1 1.7.1-1.2.7-2.2 1.4-2.2.9 0 1.1 1.2.9 3.9-.2 2.1.1 4.2.7 4.5 1.5 1 1.4 2.4-.1 2.3-4.1-.1-5.8.4-5.8 2 0 .9-.3 1.3-.7 1-.3-.4-.6-2-.5-3.7.1-2.7-.3-3.1-5-4.5-6.1-1.8-7.8-1.9-7.8-.4 0 .8-.4.8-1.4 0-.8-.7-1.2-2.1-.9-3.1.3-1.1-.2-3.2-1.2-4.6-1.6-2.5-1.6-2.5.4-1.5 1.1.6 2.7.8 3.6.5m11 26.7c-.9 1.6-1.2 2.9-.8 2.9.5 0 .1.5-.7 1-1.3.8-1.3 1 .1 1 .9 0 1.9-.7 2.3-1.5.3-.8 1.2-1.2 2-.9s2.7-.2 4.3-1.1c2.2-1.3 2.1-1.1-.7 1.2-6.7 5.5-8.6 7.9-10.4 13.3-1.1 3-2.3 6-2.8 6.6-1.1 1.5 5.5 4.7 9.9 4.8 1.7.1 2.9.4 2.7.7-.2.4 1.9 2.4 4.6 4.5 2.8 2.1 5 3.9 5 4.1s-1.7-.6-3.7-1.7c-4.4-2.3-5.9-2.5-6.7-.8-.3.7-.4.4-.3-.6.1-1.5-.9-2.4-4.3-3.7-2.5-1-5.5-1.8-6.7-1.8-2-.1-2.3.4-2.3 4 0 5.6-1.5 8.2-4 6.9-2.7-1.4-6-1.2-6 .4 0 1.9 2.6 2.7 5.7 2 2.4-.6 2.5-.5 1.9 2-.4 1.5-.2 2.6.4 2.6.5 0 1 .6 1 1.4 0 .7.6 1.9 1.4 2.6.8.6 1.6 2.4 1.8 3.8.3 2.7.4 2.7 8.8 2.9 4.7.1 9.3.2 10.3.2.9.1 1.7.7 1.7 1.3 0 1-2.7 1.3-9.6 1.5-5.3.1-10.1.6-10.7 1.2-.8.8-.4 1.1 1.3 1.1 1.3 0 2.1.2 1.8.5s1.8 3.1 4.7 6.3c2.9 3.1 5.4 6.1 5.5 6.7.1.5.6 1.8 1.1 2.7.8 1.6.5 1.8-2.5 1.8-2.4 0-3.4-.4-3.1-1.3.3-.6.1-1.7-.3-2.3-.6-1-9.3-5.4-10.6-5.4-.2 0-1.7-.5-3.3-1.1-2-.7-2.4-1.2-1.4-1.8 1.1-.7.9-1.1-.8-2-1.2-.7-1.9-1.6-1.7-2 .3-.4-.5-.7-1.6-.6-1.2.1-5.6-.9-9.6-2.1-4.1-1.3-7.9-2.1-8.3-1.8-.5.3-.9.1-.9-.5 0-.5-1.9-1.4-4.2-1.9-2.4-.6-7.4-1.9-11.3-3-3.8-1.1-10.4-2.3-14.5-2.6-4.3-.4-9.4-1.6-12-2.8-2.5-1.2-5.2-2.4-6-2.8-.9-.4-3.1-1.1-5-1.5s-6.1-1.5-9.4-2.6c-3.2-1-6.3-1.6-6.8-1.3s-1.4.1-2.1-.4c-2-1.6-19.3-8.2-21.5-8.2-1.1 0-3.5-1.3-5.1-2.8-1.7-1.5-7.4-5-12.6-7.7-5.2-2.6-9.1-5.3-8.8-5.8.3-.6.2-.7-.4-.4-1.2.7-7.3-1.4-7.3-2.5 0-1-.5-.8 5.2-1.4 2.7-.3 4.9-.1 5.3.5.3.6 1.3 1.1 2.1 1.1 1.9 0 7.4 3.9 13.4 9.6 9 8.4 50.4 22.8 77 26.8 4.2.7 15.1 4.4 16.5 5.7.5.5 2.6.9 4.6.9s5.6.7 7.9 1.5c9.4 3.3 19.7 1.1 15.6-3.3-.9-1-1.6-3.3-1.6-5 0-2-.5-3.2-1.4-3.2-1.9 0-6.8-4.8-6.1-6 .3-.6 1.4-1 2.5-1 2.4 0 6-6.2 6-10.5 0-1.8.6-3.5 1.3-3.8s.2-.9-1.3-1.5c-1.4-.5-3.4-1.8-4.6-2.9-1.1-1-2.9-2.3-4-2.9-2.6-1.5-1.8-2.7 3-4 7.1-1.9 9.2-3.1 9.3-5.3.1-1.2-.3-2.1-.8-2.1-1.1 0-10.9-9.1-10.9-10.2 0-2.2 3.7-.4 5 2.5 1 2.2 2.5 3.5 4.8 4.1 1.7.5 3.2 1.3 3.2 1.7 0 .5.7.9 1.5.9s1.5-.7 1.5-1.6c0-.8.5-1.2 1-.9.6.3 1-.1 1-.9s.9-1.8 2-2.1c1.2-.4 2-1.5 2-2.9 0-3.2 1.3-4.1 2.2-1.6.5 1.4.2 3.2-.7 5.1m-186.7-2.4c4 .4 5.6 1.1 6.1 2.5.6 1.7.9 1.8 1.9.5 1-1.1 2.2-1.2 6-.5 2.6.5 5.4 1.1 6.1 1.2 2.5.5 2.3 2.2-.4 3.4-3.1 1.4-6.2 1.5-6.9.3-.3-.5-1.7-1.1-3-1.3-2.6-.5-3.6 1.1-3.6 6.3 0 1.5-.7 3.2-1.5 3.9s-1.3 1.6-1 2c.9 1.4-4.8 2.2-17.5 2.5-10.2.2-12 0-9.8-.9 2.7-1.2 2.7-1.2.8-2.6q-4.05-3 .6-3c1.4 0 2.3-.4 2-.9-.4-.5.3-.7 1.4-.4s2 0 2-.6c0-1-1.2-1.3-3.7-1-.4 0-1-.8-1.4-1.8-.3-1-1.9-2-3.4-2.3-3.4-.6-3.9-1.8-2-4.4 2.1-2.8 15.8-4.3 27.3-2.9M173 237c1.9 1.1 2.9 1.9 2.3 2-1.5 0-1.8 3-.3 3 .6 0 1 .7 1 1.6 0 1.8-2 1.7-13.5-.5-2.7-.6-7.6-1-10.7-1-6.2-.1-7.5-1.3-3-2.9 1.7-.7 2.1-1.1 1-1.1-2.8-.1-2.1-1.9 1-2.4 1.5-.2 6.3-.4 10.7-.5 6.1-.1 8.8.3 11.5 1.8m-2.5 12c1.1.5 1.6.9 1 1-.5 0 .1.7 1.5 1.5s3.3 1.2 4.3.9c.9-.3 1.7-.1 1.7.5s-.7 1.1-1.6 1.1c-.8 0-1.2.5-.9 1 .4.6 1.1.8 1.6.4.6-.3 2.7-.3 4.7.1 5.9 1.1 1.9 2.3-9.6 2.8-7.8.3-10.5.1-11.3-1-.6-.7-2.8-1.4-4.8-1.5-3.5-.1-3.5-.1.9-.8 3.8-.6 4.1-.8 2.3-1.5-1.3-.4-2.1-1.1-1.8-1.5.3-.5-.4-1.1-1.5-1.5-1.1-.3-2-1.1-2-1.6 0-1.1 12.8-1.1 15.5.1m218.6 6.7c1.2 3.2 1.2 12-.1 12.8-.5.3-1 1.5-1 2.6 0 1-.6 1.9-1.2 1.9-1 0-1 .2-.1.8s1 2.9.3 9.7c-.5 5-1 14-1 20.2 0 6.8-.4 11.4-1.1 11.8-1.7 1.1-3.9-2.7-3.7-6.2.1-2.2-.4-3.8-1.7-4.8-2.6-1.9-3.5-1.9-3.5 0 0 1.5-1.2 2-2.3.9-.9-.9.4-3.4 1.8-3.4 3.6 0 6.3-6.9 2.8-7.1-1.5 0-1.4-.3.5-1.6 1.2-.9 2.2-2.6 2.2-3.9 0-1.4.4-3.2.9-4.2 2.5-4.9 5.1-28.5 3.2-29.6-.6-.4-1.1-1.3-1.1-2.1 0-2.2 4.1-.5 5.1 2.2m738.6 28c.4 1.1-.5 2.5-3.1 4.6-2.5 2-3.3 3.2-2.5 3.7 1.5 1 .3 3-1.8 3-1.8 0-5.3 3.7-5.3 5.7 0 .7-.3 1.3-.8 1.3-.7 0-2.5 3.7-3.6 7.6-.5 1.6-.1 2.3 1.4 2.7 2.6.7 2.6 2.7 0 3.4-1.2.3-2 1.4-2 2.7 0 4.3-1.3 4.9-9.4 4.4-5.2-.2-7.7 0-8 .8-.7 1.8.4 2.4 4.5 2.4 3.3 0 4 .4 4.5 2.5.3 1.4 1.3 2.9 2.2 3.4 1.3.7.8 1.1-2.1 1.6-2 .4-3.7 1.1-3.7 1.6s-1.1.9-2.5.9-2.5.4-2.5 1c0 .5-.7 1-1.5 1-.9 0-1.5.9-1.5 2.1 0 2.1.4 2.1 6.5 1.7 3.6-.3 6.5-.3 6.5.1s-1.4 1.8-3.1 3c-2.5 1.9-4 2.2-7.5 1.8-2.4-.2-4.4-.1-4.4.4 0 .4 1.7.9 3.8 1.1 2.5.2 3.7.8 3.7 1.8 0 1.1-2 1.8-7.5 2.7-13 2-12.4 2.3-14.9-5.4-1.5-4.4-1.9-6.9-1.2-7.1 1.3-.4 1.5-3.2.2-3.2-.5 0-.8-1.7-.5-3.8.2-2 .4-5.6.5-8 .2-4.2 2.6-7.1 4.8-5.7.5.3 1.5-.8 2.3-2.5.7-1.6 2-3 2.9-3 .8 0 2.5-.9 3.7-2s3-2 4-2c3.9 0 8.2-1.3 8.2-2.4 0-.7 2-2.3 4.5-3.7 2.5-1.3 4.6-2.7 4.6-3.1s1.2-2 2.7-3.6c4.5-4.7 10.2-11.5 10.2-12.1 0-.8 4-2.8 5.8-3 .7 0 1.5.6 1.9 1.6M168.5 333c.3.5 1.5 1 2.7 1 1.1 0 2.2.8 2.5 1.9s2.2 3.1 4.2 4.5c3 2.1 4.2 2.4 6.7 1.7 5.7-1.6 10.8.9 8.7 4.2-.4.7-.6 2-.5 2.9.2 1-.1 1.8-.6 1.8-.6 0-.8.9-.5 2 .5 2-1.7 5-3.7 5-.7 0-1.9.9-2.9 2.1-3.7 4.6-17.1 2.9-17.1-2.1 0-1.1-1.4-3.3-3-4.8-1.7-1.5-3.2-3.7-3.5-5-.2-1.2-1.4-4-2.6-6.1-2.6-4.7-2-8.7 1.4-9.4 4.2-.8 7.6-.7 8.2.3m1013.3 27.8c1.7.3 1.5 4.2-.2 4.2-.7 0-1.9.7-2.6 1.5s-2.3 1.5-3.7 1.5c-2.8 0-5.5 2.2-5.1 4.2.2.8-1 1.4-3.2 1.6-1.9.2-4.5 1.3-5.8 2.5-1.9 1.8-2.6 1.9-4.3.9-1.6-1-2.3-1-3.5.3-.9.8-1.9 1.5-2.4 1.5s-.7.6-.4 1.3c.5 1.3-6.3 5-7 3.8-.7-1.1 1.3-5.1 2.6-5.1.7 0 2.7-1.2 4.3-2.6 3.8-3.3 10.1-7.4 11.5-7.4.5 0 2.1-1 3.5-2.2 5.8-5 10.4-6.7 16.3-6M395 373.1c0 1.5-2.1 5.3-3.4 6.1-.8.5-.7.8.2.8 1.6 0 1.5 2.8-.2 4.6-2.4 2.3-3.6 1.7-2.9-1.6.3-1.7.2-3-.3-3-1.4 0-7.6 3.9-10.4 6.5-2.8 2.7-8 4.9-8 3.6 0-1.5 5.9-6.9 8.3-7.7 2.6-.8 7.4-4.4 6.1-4.5-.5-.1-4.6-.1-9.1-.1-6 .1-9.3.6-12.7 2.1-2.5 1.2-5.4 2.1-6.6 2.1-1.9 0-2-.2-.6-1.5.8-.8 1.8-1.5 2.3-1.5s1.5-.6 2.2-1.3c.6-.6 1.5-1.2 1.9-1.2.4-.1 1.7-.6 3-1.4 1.7-.9 2.7-.9 3.6-.2.7.6 1.6.8 1.9.5.3-.4 5.1-.6 10.5-.5 7.8.2 10.1-.1 11.2-1.4 1.4-1.7 3-2 3-.4m507.3 11.2c4.4 4.6 11.2 9.7 12.9 9.7.8 0 1.9.5 2.6 1.2.9.9 1.2.9 1.2-.2 0-1 .4-.8 1.3.5.8 1 1.9 1.5 2.5 1.1.6-.3 1.3.3 1.7 1.4.4 1.2 1.1 1.7 1.8 1.3.8-.4.8-.2-.1.9-.7.8-.9 2.4-.5 3.3.5 1.6.3 1.7-1.8 1.1-1.3-.4-3.5-.7-4.8-.7-1.9.1-2.2-.3-1.7-2.3.6-2.6-.9-4.3-6.3-7.1-3.2-1.6-3.3-1.6-2.7 0 .3.9-.1 2.6-1 3.8-1.6 2.1-1.6 2-1.1-2.1.6-4.8-.5-6.4-5.8-8.6-2.2-.9-3.4-2.2-3.7-4-.7-3.7 1.6-3.4 5.5.7m.1 21.6c.9 1 3.1 2.1 4.9 2.4s3.9.8 4.8 1.2c1.1.4 1.8 0 2.2-1.4.3-1.4 1-1.8 2.6-1.4 2.1.5 2.1.7.5 2.4-1.2 1.4-1.3 1.9-.4 1.9.7 0 4.9 1.7 9.4 3.9 4.4 2.1 9.9 4.4 12.1 5.1 7.7 2.4 12 4.2 18 7.2 3.3 1.7 7.7 3.9 9.8 5 2 1 3.7 2.4 3.7 3.1s1.2 2.1 2.8 3.2c5.8 4.2 18.2 16.9 18.2 18.7 0 3.5 8.1 17.3 13.1 22.2 2.7 2.6 4.9 5.4 4.9 6 0 1.3 7.7 16.3 12.7 24.6 1.7 3 2.9 5.8 2.6 6.3-1.1 1.8-7.4-5.9-11.7-14.4-2.4-4.8-4.6-8.5-4.9-8.3-.2.2-1.2-1.6-2.2-4.1-.9-2.5-3-5.5-4.5-6.7-1.6-1.1-3.4-3.5-4.1-5.2s-2.3-4.5-3.6-6.3-2.6-4.5-2.9-6.1c-.7-3.4-15.7-19.7-18.3-19.8-6-.4-9.5-2.9-4.9-3.6 2.1-.3 2-.4-.8-3.7-1.5-1.9-4.9-4.3-7.4-5.4-5.8-2.7-7-2.8-7-1.1 0 1.5-1.2 1.7-4.8.8-2.1-.6-2.2-.8-.8-2.9s1.3-2.3-3.6-4.6c-2.8-1.3-5.4-2.4-5.7-2.4-.3-.1-2.6-1.1-5-2.3-2.5-1.2-5.2-2.2-6.2-2.2-.9 0-2.2-.7-2.9-1.5-.8-.9-2.9-1.5-5.5-1.5-2.8 0-4.5-.5-4.8-1.4-.6-1.5-8.9-5.6-11.2-5.6-.6 0-1.7 1-2.3 2.2-1.1 2.3-1.1 2.3-1.1-.4-.1-1.5-.6-3-1.2-3.4-.8-.4-.7-.9.2-1.5 2.1-1.3 3.4-1.1 5.3 1m30.3 22.5c4.2 1.6 5 2.4 2.9 3.2-1.9.7-2.2 3.4-.2 3.4.7 0 2.6 1.5 4.2 3.3s5.1 5.1 7.9 7.2c6.1 4.9 9 7.9 11.6 12.2 1.1 1.8 2.4 3.3 2.9 3.3.8 0 7 9.1 7 10.3 0 1.6-2.5.5-6.1-2.7-2.6-2.4-4.4-3.3-5.8-2.9-1.6.4-2.1.1-2.1-1.5 0-1.1-.8-2.3-1.9-2.7-1-.3-2.8-2.7-4-5.4-2.1-5.1-4.4-7.6-5.9-6.7-.5.3-.7-.6-.4-2 .4-2-.6-3.6-5.1-8l-5.6-5.6-6.3.6c-6 .5-6.2.5-3.3-.9 1.7-.8 3.5-1.4 4.2-1.5 2.2 0 2.5-2.1.6-4.2-1.8-2.1-1.8-2.1.2-1.3 1.1.4 3.5 1.3 5.2 1.9m-647.1 19.4c-.3.5.5 1.7 1.6 2.6l2.1 1.9-2.1 1.6c-2 1.5-7.8 12.8-7.4 14.3.1.5-.5.8-1.3.8s-1.5.8-1.5 1.7c0 1-.5 2.5-1.1 3.3-.8 1.1-.9.8-.5-1.5l.6-3-1.5 2.5c-.8 1.4-1.4 2.1-1.5 1.6 0-.6-.8-.1-1.8 1-1 1-3.1 2.8-4.6 3.9-1.6 1.1-3.7 2.9-4.8 4-5 4.9 3.5-8.5 8.9-14.1 2.3-2.4 5.9-6.9 7.9-9.9 3-4.6 3.4-5.8 2.4-7-.7-.9-1.1-1.6-.9-1.8.2-.1 1.3-.7 2.4-1.4 2.4-1.4 3.8-1.6 3.1-.5m598.4 2.9c2.3 2.1 3.8 4.3 3.5 5-.2.8-.1 1.2.4.9s1.4.8 2 2.6c1.7 4.7 1.3 5.7-.8 2.2-2.5-4.1-4.6-5.5-3.9-2.6.4 1.3.1 2.2-.5 2.2s-.1.7 1.1 1.6c1.4.9 2.2 2.6 2.2 4.3 0 1.6.9 4 2 5.4s2 3.1 2 3.7c0 .7 2.3 3.4 5 6.1 4.5 4.4 6.1 6.9 4.4 6.9-1.6 0-8.3-6.5-8.8-8.6-.4-1.3-1.3-2.4-2-2.4-.8 0-1.6-.6-1.9-1.4-.8-2-4.7-2.8-4.7-.9 0 .8-.4 1.2-.9.9s-1.1.4-1.4 1.5c-.4 1.3-1 1.8-1.7 1.4-.9-.6-.9-.2 0 1.5.7 1.3.8 2 .2 1.6-1.7-1-2.3 1.1-.7 2.4 1.5 1.2 3.9.5 3-1-.3-.5.7-1.8 2.2-3 2-1.5 2.9-1.8 3.2-.9.2.7-.1 1.5-.7 1.7-.7.2-1.2 1.8-1.2 3.5-.1 1.8-.7 5-1.5 7.1-.8 2.2-1.2 4.3-.9 4.8.3.4-.7 1-2.2 1.4-2.3.6-3.2.1-5.6-2.5-3.6-4-3.6-7.3-.1-21.1 1.4-5.8 2.7-12.4 2.7-14.7 0-2.6.6-4.5 1.4-4.8.7-.2 1 0 .7.5-.3.6.1.7.9.4 1.8-.7 2-1.5.8-3-1.1-1.2-3.3-6.4-2.8-6.4.3 0 2.3 1.7 4.6 3.7m53 1.8c0 .2-1.6 1.2-3.5 2.1s-3.5 1.9-3.5 2.3c0 1.4 22.4 21.6 24.9 22.5 1.4.4 4.6 2.8 7.1 5.2s5.1 4.4 5.8 4.4 1.7 1.2 2.2 2.6c.6 1.4 1.4 2.3 1.9 2 1-.7 4.1 2 4.1 3.5 0 1.3-.4 1.2-6.7-2.1-3.7-1.8-9.4-6.4-15.8-12.8-13.3-13.3-24.6-23.2-26.2-23.2-2.7 0-1.1-2.1 3.5-4.4 4.7-2.5 6.2-3 6.2-2.1m-632.1 6.9c0 .5.5 1.2 1.2 1.7 1 .6 1 1.2-.4 2.7-.9 1-1.7 2.4-1.7 3 0 .7-.9 1.2-2 1.2-2.1 0-28 25.6-28 27.7 0 .6-.6 1.3-1.2 1.6-1 .3-1 .7.1 2 .9 1.1 1 1.7.2 1.7-1.3 0-19.6 18.8-24.8 25.4-2.4 3-3.3 5.2-3.1 7.1.2 1.7-.3 3.1-1.2 3.5-2 1.1-10 4.6-12.2 5.3-1.2.4-1.8 1.7-1.8 3.5 0 3.5-2 5.5-5.1 5-3.3-.5-3.3-2 .1-4.3 1.6-1.1 3-2.4 3-2.9 0-.4 2.1-3.6 4.6-7 2.6-3.3 4.9-6.6 5.1-7.3.5-1.2 4.1-2.9 5.5-2.5.4.1 2.4-1.9 4.5-4.4 2.1-2.6 4.8-5.6 5.9-6.9 1.2-1.2 2.5-3.6 2.9-5.3l.7-3.2h-4.5c-2.4 0-6.1.7-8.2 1.5-2.8 1.2-4 1.3-5.1.5-1.1-1-1.1-1.4 0-2.5 1.9-1.9 8.6-3.7 8.3-2.2-.2 1.4 5.3 2.1 10 1.2 2.4-.4 3.7-1.5 4.9-3.8.9-1.8 2.3-3.6 3.1-4 .7-.5 1.1-1.2.8-1.8-.4-.5.1-1.2.9-1.5.9-.3 1.6-1.2 1.6-1.9 0-.6.9-2 2-3s2-2.8 2-4.1c0-3 1-5.4 2.2-5.4 1.4 0 0 7.1-1.8 9.1-1.6 1.8-1.8 2.9-.5 2.9.9 0 13.7-12.3 18.3-17.8 1.6-1.7 4.2-6.1 5.9-9.7 2.7-5.8 3.4-6.6 5.5-6.3 1.4.2 2.4.7 2.3 1.2m-88.6 45.8c2.5-1 3.4-.9 4.8.4 1.7 1.5 1.7 1.8.2 4.1-1 1.4-1.7 4.2-1.8 6.2-.1 5.3-5.4 17.3-7.4 16.9-1-.2-1.5-1.3-1.4-2.8.4-5.6 1.4-9.2 2.8-10.6.8-.9 1.5-2.3 1.5-3.3 0-3-2.1-8.1-3.3-8.1-.7 0-1.7-1.1-2.3-2.5-1.1-2.4-1.1-2.4 1.3-.8 2.1 1.4 3 1.5 5.6.5m679.1 19.6c-.4 1.9.3 5 2 9 3 7.1 3.4 13.6 1 15-3.2 1.8-11.5-1.6-15.4-6.3-1.6-1.9-1.5-6.5.1-12.3 1.2-4.4 1.8-4.9 3.6-3.1 1.7 1.7 6.3.2 6.3-2 0-1.9.8-3.1 2.1-3.1.5 0 .6 1.3.3 2.8m-549.8 10.7c.6 5 .5 5.5-2.7 9-3.3 3.5-3.8 3.7-11.5 4.2-4.5.3-8.4.2-8.7-.3-.5-.8.8-3.9 4.3-10.4.7-1.4 1.6-3.2 2.1-4 .4-.8 1.2-1.4 1.8-1.2.9.2.9-.3.1-1.8-1.6-3-.8-3.5 5.6-3.8 3.2-.1 6-.5 6.3-.8.8-.8 2 3.3 2.7 9.1M896.3 560c1.5 1.3-.4 6-2.4 6-1 0-1.9.6-1.9 1.4 0 2.2-2.9 4.6-5.5 4.6-1.3 0-3 .9-3.8 2s-1.6 1.7-2 1.4c-.3-.3-1.4.3-2.4 1.3-3.1 2.9-7.3 6.3-7.8 6.3-.3 0-.5-.7-.5-1.5s-.7-1.5-1.5-1.5c-2 0-1.9-2.3.3-4.2 2-1.9 10.1-5.8 11.8-5.8 1.5 0 3.8-3.5 5.3-8.3 1.3-3.8 1.3-3.8 5.5-3.2 2.2.4 4.5 1 4.9 1.5M458 563.6c0 5.9 2.3 10.4 7.6 14.9 2.9 2.5 5.8 4.5 6.6 4.5 1.5 0 13.4 11.4 12.7 12.2-.2.3.5 1.5 1.5 2.7 2.6 2.9 1.6 3.5-1.4.8-3.4-3-14.8-10.7-16-10.7-.5 0-1.6 1-2.4 2.2l-1.6 2.2V590c0-1.9-.2-2.2-.9-1.1-.8 1.2-1.2.9-2.3-1.5-.7-1.6-1.6-3.1-2-3.4s-1-1.9-1.3-3.5c-.4-1.7-1-4.4-1.3-6-.4-1.7-1.3-3.1-2.1-3.3-2-.4-9.1 2.8-9.1 4.1 0 .6-.3.7-.7.4-.7-.8 2.6-4.7 4-4.7 1.1 0 5.1-4.9 5.3-6.5 0-.5.2-1.6.2-2.3.4-2.5 3.2-1.2 3.2 1.4m88.4 24.9c-1.9 1.6-2.6 2.8-2.2 4.3.4 1.2 0 2.6-.8 3.3-.8.6-1.4 1.8-1.4 2.5 0 .8-.4 1.4-1 1.4-1.5 0-1.2 1.6.5 3.4 1.8 1.8 1.9 2.6.3 2.6-3.1.1-9 12.1-8.9 18.2 0 .9-.9 2.4-2 3.4-1 .9-1.9 2.5-1.9 3.5s-.5 2.1-1.1 2.5c-.8.4-.9-.1-.3-1.7 1.8-5.6-.8-10.5-2.7-5.1-1.1 3.1-1.9 3.8-3.1 2.6-.8-.7 1.9-9.4 3.6-11.3.7-.9 1.6-2.4 1.9-3.4.4-.9 1-1.7 1.5-1.7 1 0 .9 3.6 0 4.6-.4.3-.4 1.3-.1 2.1.4 1 1.1.3 2.4-2.4 2-4.2 2.4-7.3.9-7.3-.5 0-1 .5-1 1.2 0 .6-.2.9-.5.7-.8-.9 4.6-10.9 5.9-10.9 1.4 0 4.1-5.9 3.1-6.8-.2-.3.4-1.7 1.4-3.1s2.2-3.6 2.6-4.9 1.6-2.7 2.8-3.1c3.5-1.3 3.5 2.7.1 5.4m-181.2-.2c3.2.3 6 .1 6.3-.4.8-1.2 17.5-1.2 17.5 0 0 .5-1 1.2-2.2 1.6-7.4 1.9-9.8 3-9.8 4.2 0 .7-2 2.3-4.5 3.5s-4.5 2.7-4.5 3.4c0 1.2-4.8 2.9-5.7 2-.3-.2.4-.9 1.5-1.5 1-.6 2.5-2.4 3.2-4.2 1.6-3.8.4-4.9-5.6-4.9-4.7 0-9-3.4-6.4-5 .8-.5 2.1-.5 2.9-.1.9.5 4.2 1.1 7.3 1.4m129.9 24.4c.9 1.6 1.9 5.9 2.2 9.7.4 3.7 1.1 7.4 1.7 8.1s1.7 4.8 2.5 9.1c.8 4.4 1.9 9.7 2.5 11.9.5 2.2 1 5.4 1 7.1 0 6.5 4 16.3 8.6 21.1 3.6 3.7 4.4 5.2 4.4 8.3 0 5 .8 7 2.5 6.3 1.2-.4 1.3.5.8 4.6-.4 3.5-.2 5.1.6 5.1.6 0 1.1-1.5 1.1-3.4 0-4.6.9-6.6 2.9-6.6.9 0 2.7-.7 3.9-1.6 1.9-1.3 2.2-1.3 2.2 0 0 .8-.6 1.9-1.3 2.3s-2.8 4.3-4.6 8.5c-3.5 8.1-6.4 11.8-7.6 9.8-.4-.6 0-1.9.9-2.9 2.2-2.4 2-4.8-.4-5.6-1.1-.3-2-1.3-2-2.1s-.4-1.4-1-1.4c-.5 0-1-1-1-2.3 0-1.2-.7-3.1-1.5-4.1-.8-1.1-1.5-3.1-1.5-4.6 0-1.4-.8-4.1-1.8-6-1.1-1.9-1.7-4-1.5-4.7.2-.6-.4-1.4-1.5-1.7-1.4-.5-1.8-1.3-1.4-3.9.3-1.7.1-2.9-.3-2.5-.8.8-4.2-7.4-5.2-12.4-.3-1.5-1.4-3-2.4-3.3-2.1-.7-2.5-2-.9-3 1.4-.8 1.3-5.1-.2-7.8-.6-1.2-1.5-6.5-1.9-11.7-.7-8.7-1.3-12.5-3.4-20.3-.5-2-.4-2.7.7-2.7.7 0 2.1 1.2 2.9 2.7m-186.8 9c-.3 1-1.5 3-2.5 4.5-1 1.4-1.8 3-1.8 3.6 0 .5-2.1 2.8-4.6 5.2-3.4 3.1-5.2 4.1-7 3.7-2.5-.4-3.4.8-1.1 1.6 2.1.7-6.3 2.9-8.9 2.3-4.1-1.1-3.1-4.9 3.4-12.1 5.2-5.9 6-6.4 9.1-6 1.9.2 3.7.9 4.1 1.5.5.8.9.6 1.3-.5.4-.9 1.2-1.5 1.9-1.4 3.3.4 4.8-.2 4.8-2.1 0-1.1.4-2 1-2 .5 0 .7.8.3 1.7m582.5 6.3c2.6 0 5.3.4 6.1.9 2 1.3.7 5.2-3 9-2.8 2.9-3.5 3.2-6.7 2.6-3.7-.7-3.7-.7-1.4-2.2 3-2.1 2.8-3.3-.8-3.3-2.9 0-3 0-2.3 4.5.3 2.5.1 5-.4 5.7-1.9 2.4-2.1 6-.7 10 .8 2.3 1.1 4.4.8 4.7-.4.3-.9 0-1.1-.7-.3-.7-1.6-2.6-2.9-4.1-1.3-1.6-2.4-3.7-2.4-4.7s-.5-3.2-1.2-5c-1-2.8-.9-3.9.7-7.5 1.1-2.2 1.9-5.3 2-6.7 0-2.1.6-2.8 3-3.3 1.7-.4 3.6-.5 4.3-.3.8.2 3.5.4 6 .4M371 671c0 2.5.5 3 3.4 3.6 1.9.3 3.9.3 4.4 0s1.8.1 2.8.9 2.9 1.5 4.2 1.5c2 0 2.2.5 2.2 5.1 0 3.3.4 4.8 1.1 4.4.7-.5.9.6.7 3.1-.3 3.9-.3 3.9-4.6 3.7-2.3-.1-4.9-.9-5.8-1.7-.8-.9-2.2-1.6-3-1.6s-1.4-.4-1.4-.9c0-.4-1.5-1.2-3.2-1.7-2.8-.8-3.4-1.5-3.8-4.7-.3-2-1.3-4.6-2.2-5.7-1.5-1.6-1.6-2.4-.6-4.5.6-1.4 1.6-2.5 2.2-2.5s.4-.5-.4-1c-1.1-.7-1.1-1-.2-1 .7 0 1-.5.6-1.1-.4-.8 0-.8 1.5 0 1.4.8 2.1 2.1 2.1 4.1m831.7 3.2c.5.7 2.3 5.2 3.9 10 1.6 4.9 3.2 8.8 3.5 8.8s1.4-2.6 2.4-5.8c2.9-9.3 5.3-14.2 6.9-14.2 1.3 0 .6 2.6-2.9 12.6-2.4 7-4.7 12.9-4.9 13.2-1.6 1.6-3.8-2-7.5-12-4.2-11.6-4.7-13.8-3.2-13.8.5 0 1.3.6 1.8 1.2m-743.4 10c-.4 3.2-3.5 13.4-4.4 14.2-.5.6-.9 1.8-.9 2.8s-.7 1.8-1.5 1.8c-1.5 0-1.7.5-1.9 4.5-.1 1.5-1.2 2.2-4.6 2.9-2.5.5-5 1.6-5.6 2.4-.9 1.2-1.7 1.3-4.3.4s-3.3-.9-3.8.3c-.9 2.4-2.1 1.7-2.8-1.6-.9-4 .1-9.1 2.3-11.5.9-1 2.5-3.2 3.5-4.7 3.1-4.8 5.1-6.7 6.9-6.7 1 0 1.8-.4 1.8-.9s.8-1.2 1.8-1.4c1.1-.3.7-.5-1-.6-1.5 0-2.9-.5-3.2-1-.5-.7 2.1-1.4 9.7-2.5.9-.1 2.3-.8 2.9-1.4 1.5-1.5 5.4.8 5.1 3m776.7-1.7c1 .9 2 2.9 2.2 4.6l.5 2.9h-7.4c-4 0-7.3.3-7.3.8 0 .4.7 1.8 1.6 3 1.6 2.4 5.3 2.9 8.5 1.1 3.1-1.6 4.2-.6 1.9 1.9-4 4.3-11.5 2.3-14-3.7-1.6-3.9-.6-7.6 2.8-10.8 2.1-2 3.4-2.4 6.1-1.9 1.8.3 4.1 1.2 5.1 2.1m22.7.7c3.5 3.2 3.2 9.1-.6 12.9-3.4 3.3-6.9 3.7-11.1 1.2-6-3.5-5.1-13.6 1.4-16.3 3-1.3 7.6-.3 10.3 2.2"/><path d="M629 121.2c-4.5 1.3-4.5 1.3-2.6 4 1.8 2.5 2.2 5.3.6 4.3-.5-.3-1-1.5-1-2.5 0-2.6-1.5-3.3-4.1-1.9l-2.2 1.1 2.4 1.4 2.4 1.3-3-.2c-2.5-.2-3.2.4-5.1 4.3-2.9 5.7-2.9 8.5-.3 11.1 1.1 1.1 1.8 2.7 1.5 3.5-.3.9-.1 1.2.5.9.5-.4.7-1.5.4-2.6-.5-1.4-.3-1.7.9-1.3s1.6 0 1.6-1.6c0-1.1.4-1.9.9-1.5.5.3 1.2.1 1.6-.5s1.1-.8 1.6-.4c.5.3.9.2.8-.3-.1-.4-.1-1.9 0-3.3.2-2.4.2-2.4 1.6-.6 2 2.6 2.7 1.7 1.6-2-.8-2.9-.7-3.1 2-3.1 1.6 0 2.9.5 2.9 1 0 .6.3.8.6.5.3-.4 0-1.6-.6-2.8-.9-1.7-.9-2.5-.1-3.3s1.4-.8 1.9-.2c.4.6 1.6 1.1 2.7 1.3 1.8.2 1.8.2.3-.8-1.1-.7-1.8-2.3-1.8-4 0-3.3-1.5-3.7-8-1.8M752.7 172.6c-6.3 10.5-6.3 11-.3 14.1 6.3 3.2 30.8 22.2 36.9 28.4 1.5 1.6 3.1 2.9 3.6 2.9 1.2 0 2.7-2.1 3.6-4.9.8-2.8 5.1-9.2 5.7-8.6.2.2.4-1.9.3-4.7-.1-2.9.1-4.6.3-4 .2.7.8 1 1.3.6 1.6-.9 1-2.2-1.3-3-1.2-.4-4.7-3-7.8-5.9-5.5-5.2-20.2-16.5-21.4-16.5-.4 0-3.8-1.8-7.7-4s-7.2-4-7.3-4-2.8 4.3-5.9 9.6M618.5 168.1c-.6 2.4-.3 3.4.9 4.1.9.5 1.6 2.1 1.6 3.5 0 2.6-.1 2.6-1.5.7-1.9-2.5-1.9-1.8.4 4.6 1 2.9 2 4.7 2.2 3.8.3-1.2.7-1.2 2.4.5 1.1 1.1 1.4 1.7.7 1.3-2.8-1.6-4.2 1.4-4.2 9.3 0 6.1-.4 8.1-1.7 9.3-1 .9-4.2 3.8-7 6.5-2.9 2.8-5.3 4.8-5.3 4.6 0-.3-.7.3-1.6 1.2-1.2 1.1-1.9 1.3-2.4.5s-1.4-.8-3.5 0c-3.2 1.2-6.7 4.8-5.9 6.1.8 1.4 2.4 1.1 2.4-.4 0-1.4 4.8-4.2 6.4-3.8 3.1.7 14.6-7.4 14.6-10.4 0-.8.5-1.5 1-1.5 1.2 0 1.2 0-.1 3.9-.6 1.7-1.6 3.1-2.3 3.1-.6 0-2.3 1.1-3.8 2.5s-3.4 2.5-4.2 2.5c-.9 0-3.4.8-5.6 1.7-3 1.3-4 2.3-3.6 3.5.3 1.3-.2 1.8-1.9 1.8-1.3 0-2.6-.4-3-1s-1.5-.6-3 0c-2.1.8-2.5.7-2.5-1 0-2.6-1.4-3.2-3.6-1.5-1.5 1.2-1.5 1.4-.3.9 1-.3 2-.1 2.3.5.3.5-.7 1.2-2.3 1.6-1.6.3-3.3 1.6-3.9 3-1.6 3.4.3 4.2 3.9 1.6 1.5-1.1 3.3-2.1 3.9-2.1 1.9 0 1 1.6-1.6 3.1l-2.6 1.4 3.8 1.8c2.2 1 3 1.7 1.9 1.6-5.3-.4-5.5-.2-5.5 5.3v5.3l4.5-5c2.5-2.8 4.3-5.6 4-6.3-.2-.6 0-1.2.5-1.2.6 0 1-.8 1-1.7 0-1.5.1-1.5 1.3.1s1.4 1.6 3.1-.3c1.1-1.2 2.3-2.1 2.8-2.1 1.4 0 8.8-7.4 8.8-8.8 0-.7.5-1 1-.7 1.4.8 6.8-4.2 8.6-8l1.5-3-.6 2.9c-.4 1.7-2 4.5-3.6 6.3-3.3 3.8-3.5 4.8-1.3 5.7 4.4 1.7 6.3.2 6.5-5.2 0-2.5.1-2.5 1.3.8 1 2.6 1.9 3.6 3.9 3.8 2.7.3 3.9-2 1.7-3.3-.5-.3-1 .2-1 1.1 0 1-.2 1.5-.5 1.2s-.2-2 .1-3.8l.7-3.2 2.1 3.4c2.6 4.3 5.3 4.1 3.1-.2-2.3-4.4-1.9-4.4 2.5 0 2.2 2.2 4 4.4 4 5 0 1.2 3.5 3.1 4.3 2.4.7-.7-1.5-3.4-2.3-2.9-.3.2-.6-.6-.7-1.8 0-1.2.1-1.6.4-1 1 2.7 2.1 1.1 1.8-2.5-.2-2.8-.1-3 .4-1 .7 3.2 2.5 2.6 4-1.2l.9-2.5 1 2.5 1 2.5 1.1-2.8c.6-1.6 1.1-3.7 1.1-4.8 0-1 .4-1.9 1-1.9 1.6 0 9 7.1 9 8.6 0 .8 1 1.4 2.1 1.4 1.8 0 1.5-.7-2.5-4.6-2.5-2.6-4.6-5-4.6-5.5 0-.4-.9-1.1-2-1.4-1.6-.5-2-1.5-2-5 0-2.4.5-4.7 1-5 .6-.3 1-1.5 1-2.7 0-1.7-.2-1.8-1.5-.8-.8.7-1.5 1.8-1.5 2.4-.1.6-.9 2.9-2 5.1s-1.9 4.4-2 5c0 .5-1.2 2.3-2.6 4s-2.1 2.1-1.6 1 2.6-5.6 4.6-10 4.1-8.8 4.6-9.7c.8-1.4.6-1.6-.5-1.1-.9.3-2 1.4-2.6 2.5-.8 1.4-1.4 1.6-2.3.9s-1.6-.7-2.4.1c-.7.7-4 1.2-8 1.1-5.3 0-7.8-.6-11-2.4-2.3-1.3-4.2-3-4.2-3.7 0-1.8 1.2-1.5 4.3 1.4 2.3 2.1 3.1 2.3 4.3 1.4 1-.9 1.1-1.6.4-2.5-.8-.9-.8-1.5 0-2 .5-.3 1-.3 1 .2 0 .4 1 1.9 2.1 3.3l2.1 2.5-.7-3c-.4-1.6-1-3.2-1.4-3.5-1.2-.7-2-6-1-6 .5 0 .9.9.9 1.9 0 1.1.7 2.6 1.5 3.5.8.8 1.5 2.1 1.5 3 0 2.3 3.6 3.9 6 2.6 1.1-.6 2-.8 2-.4 0 .3.6.1 1.3-.5.8-.6 1.6-.9 1.9-.6s1.1-.2 1.9-1.2c.9-1.1 1-1.4.2-.9-.8.4-1.3.1-1.3-.8s.6-1.3 1.4-1q1.35.6 2.7-3c.7-1.9 1.6-3.3 2.1-3 .4.3.8-.2.8-1 0-1.9-1-2-4.7-.4-4 1.8-6.3 4.9-5.7 7.8.2 1.4.1 1.9-.2 1.2-.8-1.7-2.9-1.5-4.4.3-1 1.2-1.6 1.3-2.4.5-1.3-1.3.8-3 3.9-3 1.7 0 1.7-.2.5-1-.8-.5-1-1-.4-1 .7 0 2.2-1.2 3.5-2.6s3.5-2.9 4.7-3.5c1.3-.5 2.6-1.8 2.9-2.9s1-1.7 1.7-1.3c.7.3.6.1-.1-.7-1-1.1-1.6-.9-3.3 1-2.6 3-2.6 1 .1-2.4 1.1-1.4 2.5-2.4 3-2.1.5.4.8-.5.7-1.9-.2-2.4-1.8-3.8-1.8-1.6 0 .5-.4 1-1 1-.5 0-.9-.6-.7-1.3.1-.6-.5-1-1.3-.8-1.3.4-3.1.6-8 1.1-.9.1-.5.6 1 1.2 2.9 1.3 5.2 1.1 6.2-.5.6-.9.8-.9.8 0 0 .6-.5 1.5-1 1.8-.6.4-.8 1.1-.5 1.6.8 1.2-1.7 3.7-3.2 3.2-.6-.2-1.9.5-3 1.5-2.1 2.3-8 3.4-10.6 2-1.7-.9-1.7-1.1.6-3.4 1.3-1.3 3.6-2.5 5-2.6s2.4-.6 2.1-1c-.2-.4-1.4-.5-2.6-.3-2.4.5-5.8-2-5.8-4.1 0-.8-.6-1.1-1.5-.8-1.4.6-1.3.8.2 2 1 .7 1.4 1.4.9 1.4-.6 0-1.9-.9-3.1-2-1.9-1.8-2.6-1.9-4.8-.9-2.3 1-2.6 1.7-2.2 4.3.4 2.3.3 2.7-.5 1.6-.5-.8-1-2.5-1-3.7 0-3.5-1.8-3.6-2.5-.2"/><path d="M665.4 173.1c-.9 3.3-2.1 5.6-2.6 5.3-1.3-.8-2.8 1.5-2.8 4.2 0 1.8.7 2.2 4.6 2.7 2.5.2 5.1 1 5.7 1.6.9.9-.4 1-5 .5l-6.1-.6-.7 3.2c-.9 4.1.3 12.4 2.1 14.7 1.1 1.2 1.4 1.3 1.1.3-.2-.8-.1-2.2.4-3.1s1.1-3.6 1.4-6c.9-7.6 1.6-5.6.9 2.9l-.7 8.2h9.1l1.7-7.3c1.9-7.6 4-12.7 3.1-7.2-1.5 9-1.8 14.8-.7 14.1.6-.4 1.1-1.5 1.2-2.4 0-.9.6-3.5 1.4-5.7l1.3-4-.5 6.2c-.5 5.9-.4 6.3 1.6 6.3 1.4 0 2.1-.6 2.1-2 0-1.1.5-2 1.1-2s.9.7.5 1.5c-.3.8.3 1.9 1.4 2.5 3 1.6 4.7 1.2 5.4-1.3.6-2 .7-2 1.7-.5 1.2 2.1 7.2 2.5 8.6.5 1.2-1.6 6.3-13.5 6.3-14.8 0-.6-1.6-1.7-3.6-2.5-4.6-1.9-3.9-2.7 1.4-1.5 3.1.6 4.4.5 5.2-.4.9-1 .6-1.7-1.2-2.6-3.8-2.2-13.2-5.9-14.7-5.9-1.1 0-1.2-.3-.4-1.1.7-.7 1.6-.7 2.9 0 3.3 1.7 14.6 5.1 15.5 4.5 2.5-1.5-.2-3.4-7.6-5.5-17-4.6-18-4.7-18.5-2.6-.3 1.1-1.1 2.2-1.8 2.5-1.4.4-1.6-1-.2-2.4s-.5-3.8-2.5-3.1c-.9.4-1.3 1.1-1 1.7.3.5.1 1-.4 1-.6 0-1.1-.7-1.1-1.6 0-1-.6-1.4-1.4-1.1-.7.3-1.8.1-2.4-.5s-3.1-1.4-5.6-1.8l-4.6-.7zM718.7 173.7c-2.4 2.3 3.5 7.3 8.6 7.3.9 0 1.7.6 1.7 1.4 0 1.8-2 3.2-2.9 2-.3-.5-1.9-1.4-3.6-2-1.6-.6-3.8-1.5-4.7-1.9-1.3-.5-1.8-.2-1.8.9 0 .9 1.1 2.1 2.4 2.6 4.4 1.7 4.3 3.3-.3 2.5-3.7-.6-4.1-.5-4.1 1.4 0 2.2 2.2 3.7 8.9 6.1 2.5.9 4.7 2.2 4.9 2.9.3.9-.1 1-1.4.3-2.4-1.3-12.2-4.2-13.9-4.2-.8 0-1.9 1.7-2.5 3.7-.7 2.1-1.6 4.2-2.1 4.7-.5.6-.9 2-.9 3.2 0 3 3.4 4 6.6 1.9 2-1.3 2.2-1.9 1.4-3.5-.9-1.7-.8-1.9.7-1.3 1 .3 2.9 1.5 4.2 2.5s2.9 1.8 3.6 1.8c.6 0 3.6-4.4 6.6-9.8 2.9-5.3 6-10.2 6.8-10.8 2.6-2 .4-4.1-8.4-8.3-9.8-4.6-8.9-4.3-9.8-3.4M738.6 185.6c-.3.9-.6 1.7-.6 1.9s1.8.6 4 1c3.1.5 3.9 1.1 3.7 2.6-.5 2.9-1.2 3.1-5.6 1.3-2.3-.9-4.3-1.5-4.4-1.3-3.6 5.1-3.9 6.1-2.3 7.7 1.4 1.4 1.7 1.3 3.5-.9 1.6-1.9 2-2.1 2.1-.7 0 .9-.6 1.9-1.2 2.2-.9.3-.7.9.7 2 11.7 9 14.5 11.2 14.5 11.9 0 .4-4.7-2.4-10.5-6.3-5.7-3.8-10.8-7-11.2-7-.9 0-4.9 6.8-4.2 7.3 7.3 5.1 10.9 6.6 10.9 4.7 0-.6.5-1 1.1-1s.8.8.4 1.9c-.4 1.4.8 2.7 6 6.1l6.6 4.3 2.9-2.8c1.6-1.5 2.7-3.2 2.3-3.8-.3-.5.4-.6 1.8-.2 3.5 1.1 3.6 1.5.9 3.5-2.2 1.7-3.9 8-2.1 8 .3 0 1.9 1.1 3.5 2.5 2.6 2.3 3 2.3 5.2.8 2.6-1.6 3.3-3.6 1.1-2.7-2 .7-3.8-1.8-2.7-3.6.8-1.3 1.3-1.3 3.2-.1 1.6 1 2.3 1.1 2.6.2.2-.6 1-1.8 1.8-2.5 1.9-2 1.8-2.6-.6-2.6-2.7 0-2.5-2.4.3-3.7 1.9-.9 2.6-.8 3.4.6 1 1.5 1.3 1.4 3-.3 1.3-1.3 1.5-2 .6-2.3-.7-.3-1.3-1-1.3-1.6-.1-3.4-14.6-15.5-28.1-23.6-9.3-5.6-10.4-5.9-11.3-3.5"/><path d="M716 206.5c0 .7-.7 1.8-1.7 2.3-1 .6-1.4 1.6-1 2.6.7 1.6-1.3 2.3-2.7.8-.4-.4-1.9-.7-3.3-.7-2.1-.1-2.9.7-4.4 4.2-1.7 4.1-1.7 7.3.2 7.3.4 0 2.4 1.4 4.4 3.1 2 1.8 3.7 3 3.8 2.8 1.8-2.5 11.8-20.1 11.5-20.3-2.6-1.7-5.8-3.6-6.3-3.6-.3 0-.5.7-.5 1.5M719 221c-3.4 6-6 11.4-5.8 12s3-2.6 6.2-7c4.1-5.7 6.1-7.7 6.7-6.8.5.7.3 1.6-.5 2-.7.4-3.2 3.2-5.5 6.1-4.1 5.3-5 8.8-3.1 11.7.9 1.3 1.2 1.3 2-.2.6-.9 1.6-2.3 2.3-3 2-2 13.7-19 13.7-19.9 0-.7-8.3-5.9-9.3-5.9-.3 0-3.3 4.9-6.7 11M729.3 228.4c-4 6.3-7.5 12.4-7.7 13.7-.8 3.2 1.2 5.4 4.9 5.7 2.6.2 4.3-1.1 13.3-10.4 5.6-5.9 10.1-11.1 10-11.5-.4-1.2-11-8.9-12.2-8.9-.6 0-4.4 5.1-8.3 11.4M780.9 220.4c-1.3 1.9-2.7 3.2-3.1 3q-.75-.45-.6.3c.1.4-.3 1.8-1 3-.9 1.7-.9 2.2.1 2.6.7.3-.5 2-3.3 4.5l-4.4 3.9 4.1 4.3c2.3 2.3 4.4 4.7 4.6 5.4.2.6.8.7 1.3.3s.2-1.2-.5-1.7c-1.1-.6-.6-1.8 2.3-5.3 2-2.5 3.6-5.5 3.6-6.9s.7-3.1 1.5-3.8c2.2-1.8 1.9-2.4-1.7-3.8-2.5-.9-3.4-.9-3.9 0-.5.7-1 1-1.3.7s.5-1.7 1.9-3.1c1.6-1.7 3.2-2.4 4.9-2.3 1.4.2 2.6.1 2.6-.2 0-.5-4-4.3-4.5-4.3-.1 0-1.3 1.5-2.6 3.4M524.9 227.9c-5.5 3.5-9.3 7.6-8.4 9 .3.7-.2 1.1-1.3 1.1-2.1 0-7.3 5.3-10.4 10.6-1.4 2.4-2.4 3.1-4 2.7-1.8-.5-1.9-.4-.9 1.5 1.4 2.7 3.4 3.9 3.9 2.4.7-2.3 2.2-.1 1.6 2.4-.3 1.3-.2 2.4.4 2.4.5 0 3.2 1.5 5.9 3.4 5.6 3.9 13.3 7.7 13.4 6.8 0-.4.2-1.5.4-2.6.2-1-.9-3.2-2.5-4.9-3.4-3.7-3.2-4.5.4-2.2 2.2 1.5 2.6 1.5 2.6.2 0-.8 1-1.7 2.2-2 1.2-.4 1.9-.9 1.6-1.2-.7-.7 3.5-5.5 4.9-5.5.5 0 2.6-1.8 4.7-4 2-2.2 3.2-4 2.6-4-.5 0-1-.7-1-1.5s-.4-1.5-1-1.5c-.5 0-.9-.3-.8-.8.5-2.3-2.6-10.4-5.2-13.4-2-2.5-3.9-2.3-9.1 1.1M751 230c0 1.3-.5 1.8-1.5 1.4-1.1-.5-1.3-.2-.9 1 .4 1 .1 1.6-.9 1.6-.8 0-2.8 1.6-4.3 3.6-1.6 2-3.4 4.2-4.1 4.9s-1 1.5-.6 1.8c.3.3-.9 2.1-2.5 3.8-2.3 2.5-2.8 3.6-2 4.6 1.3 1.6 4.2 1.7 3.2.1-.5-.7-.1-.9 1.3-.6 3.1.8 5-.6 3.4-2.6-1.1-1.3-1.1-1.6.1-1.6.8 0 1.9.5 2.5 1.1.8.8 1.3.6 1.7-.9.4-1.1 3-4.1 5.9-6.6 7.6-6.8 7.6-6.8 9-6 .6.4.1-.5-1.3-2-2.2-2.5-7-5.6-8.5-5.6-.3 0-.5.9-.5 2M708 231.5c0 .4.7 2 1.6 3.7.9 1.8 1.2 3.3.6 3.7-.5.3-1.1 1.3-1.4 2-.3 1.2-.6 1.2-1.1-.2-.3-.9-.2-1.7.4-1.7s.2-1.4-.8-3c-2.1-3.7-3.3-3.8-3.3-.5 0 2.5 1.3 5.5 3.8 8.7.9 1.1 1.1 2.2.4 3.5-.5 1-.7 2.5-.5 3.3.4 1.3.3 1.3-.6 0-1-1.2-2.2-.4-7.6 5.3-6.8 7.2-7 7.6-6.5 17.1.1 2.3-.2 3.6-.8 3.2-1.2-.7-.4 11.5.9 12.8.5.6.9 2.1.9 3.5 0 3.1.9 4.5 3.3 5.4.9.3 1.7 1.3 1.7 2.2 0 .8.5 1.5 1.2 1.5.6 0 .9.3.5.6-.8.8 1.6 5.6 3.9 7.9 2.1 2 1 3.3-1.3 1.4-1.5-1.2-1.6-1.2-1 .3.3 1 .2 1.8-.4 1.8s-.2 1.5.7 3.2c3 5.9 3.4 6.8 3.4 8.2 0 .7.9 2.4 1.9 3.7l2 2.4-.5-2.5c-.3-1.4-1.1-3.5-1.7-4.7-.5-1.3-.7-2.6-.4-3 .4-.3.7.1.7 1 0 .8.9 1.9 2.1 2.2 3.8 1.2 3.4-.5-1-4.6-2.4-2.1-4.1-4.2-3.8-4.6.4-.3 1.6.6 2.7 2 2.5 3.1 12.8 8.4 14 7.1 1.8-1.9 1.4-5.3-1-8-1.4-1.6-1.7-2.2-.7-1.5 1.5 1.2 2 1.1 3.2-.5.8-1.1 1.1-2.9.8-4.4-.8-3.3-.8-3.3-3.8-2.6-1.6.4-2.5 1.3-2.5 2.6 0 1.9-.1 1.9-1.8.2-2-2-2.4-8.3-.4-8.9.7-.3 1.2.5 1.2 2.2 0 2 .4 2.6 1.8 2.3 2.4-.5 1.6-4.7-1.4-7.5-1.3-1.2-2.4-2.6-2.4-3.2 0-.5-1.2-3.3-2.6-6.3-4.1-8.5-5.3-11.2-5.6-13.3-.2-1.1-1-2-1.8-1.9-1.1.1-1.5-.9-1.5-3.3s.4-3.3 1.5-3.1c.8.2 1.5 1 1.6 1.8.1 2.1 2.4 7.4 2.9 6.8.2-.2 0-2.1-.6-4.1-.7-2.5-.7-4.3.1-5.6 1.5-2.8 1.2-4.4-.6-3.7-1.2.5-1.4.1-.8-1.7.4-1.2.7-3.6.7-5.2-.1-2.4 0-2.5.4-.6s.7 2.1 1.5 1c.6-1 .7-.7.3 1.1l-.7 2.5 2.8-2.7c2-2 2.5-3 1.7-4-.6-.7-1.4-2.7-1.7-4.5-.4-1.7-1.4-3.4-2.2-3.7-1.2-.5-1.3-1-.3-2.8.7-1.3 1.6-2.6 2.2-2.9.6-.4.1-1.9-1.1-3.7-1.2-1.6-1.9-3.2-1.5-3.6.3-.3.1-.6-.5-.6-.7 0-1.2.2-1.2.5M759.4 246.1c-5.9 5.1-13.4 12.6-13.4 13.4 0 .9.7.5 3-1.5 1.3-1.1 2.8-2 3.5-2s2.7-1.6 4.6-3.5 4-3.5 4.7-3.5c.6 0 1.2-.7 1.2-1.5s.5-1.5 1.1-1.5c2 0 .3 2.5-3.9 5.5-2.2 1.6-4.1 3.6-4.1 4.2-.1.7-2.1 3.2-4.5 5.7-3.3 3.3-4.3 5-3.9 6.5.3 1.2.9 2.1 1.4 2.1s.9.7.9 1.5-.4 1.5-.8 1.5c-.8 0-2.5 2.8-4.1 6.5-.2.5.6.2 1.7-.9 2.3-2 6.9-3 7.7-1.6.3.4-1.1 1.5-3 2.4s-3.5 2.4-3.5 3.2c0 1 .5 1.2 1.3.7 1.8-1.1 7.1-1 7.9.2.4.5.8-.2.8-1.6 0-1.5.7-3.2 1.4-3.9.8-.6 2.3-3.3 3.3-5.8.9-2.6 2.6-5.4 3.6-6.2 1.3-1.1 1.7-2.3 1.2-4.2-.8-3.3-4.1-4.3-5.5-1.7-1.3 2.3-4.6 2.5-5.4.4-.4-1 .3-1.9 1.8-2.6 1.2-.6 3-2.4 4-4 1.3-2.1 2.5-2.9 4.6-2.9 3.1 0 4.8-1.5 2.8-2.3-1-.4-1-.8.1-1.5 1.2-.9 1.3-1.3.1-2.7-3.2-3.8-4.5-3.6-10.6 1.6M443 257.4c-1.2 3-2.1 5.6-2 5.8.2.2-.2 1.3-.8 2.5-1 1.7-.9 2.2.6 2.8 3.5 1.5 8.2 2.3 8.2 1.4 0-1.5 2.7-1 4.1.7 1.2 1.5 1.1 1.6-1.1 1l-2.5-.7 2.5 2c3.3 2.7 3.3 2.7 5.3-1.2.9-1.7 2.1-3.9 2.5-4.7 3.5-6.2 3.8-5.6-4.6-10.5-4.2-2.4-8.2-4.5-8.8-4.5s-2.1 2.4-3.4 5.4M495.3 255.7c-.3 1-1.2 2.5-2 3.4-1.2 1.4-1.2 1.7.3 2.3 3 1.1 20.7 11.8 23.7 14.3 1.6 1.3 3.4 2.3 4 2.2.7 0 .3-.6-.8-1.4-5.1-3.6-6-4.4-5.4-5 .4-.3 2.4.4 4.5 1.7 6.6 3.9 2.7.1-7.9-7.6-5.6-4.1-11.4-8.5-13-9.6-2.6-2-2.7-2.1-3.4-.3M487.6 267c-3.5 5.3-4.3 9.2-2.2 10.9 1.3 1.1 1.7 1.1 2.2-.3.3-.9.1-2.3-.6-3.1-1.8-2.2.6-1.9 2.8.3 1.9 1.9 2.5 5.2 1.1 5.2-.5 0-.6.7-.3 1.5.4.8.9 1.5 1.3 1.5.9 0 6.1-8.9 6.1-10.5 0-.9.6-1.2 1.5-.9 1.1.5 1.2 1.1.4 2.5-.5 1.1-.7 2.4-.4 2.9.3.6.2 1-.4 1-1.3 0-4.2 5.5-3.4 6.4.3.3 1.7.3 3.1-.1 2-.5 2.4-.3 2 .9-.4 1 1.5 2.5 6.8 5.1 4.1 2 7.6 3.7 7.8 3.7s.3-1.2.2-2.8c-.1-1.7-1.4-3.9-3.5-6-3.9-3.7-3.2-4.1 2.5-1 2.2 1.2 4.8 1.8 5.7 1.5 2.8-1.1 2-4.6-1.4-6.5-1.7-.9-7.7-4.7-13.2-8.4-13.4-8.8-14.6-9.1-18.1-3.8M810.3 269.8c-1.3.2-2.3.8-2.3 1.3 0 .6.4.8.8.5.5-.3.9.1.9.9s-.9 1.5-1.9 1.5-1.8-.6-1.8-1.4c0-1.2-.4-1.2-3 0-2.6 1.4-2.8 1.7-1.7 3.7.7 1.2 1.8 2.7 2.5 3.5s1 2.3.7 3.3c-.4 1.3-.2 1.9.9 1.9.9 0 1.6.4 1.6 1 0 .5-.5 1-1.1 1-1.3 0-3.9-2.5-3.9-3.7 0-.5-.6-1.7-1.3-2.7-1.1-1.5-1.7-1.6-4.2-.5-1.7.7-3.1 1.4-3.3 1.5s.1 1 .6 2.1c1.8 3.3 6.9 14.8 7.6 17 1 3 5.1 3.1 5.9.2.5-1.8 1-2 3.7-1.4 1.8.4 4.2.3 5.4-.3 1.1-.5 3.5-1.5 5.2-2.1 1.9-.8 3-1.9 2.9-2.9-.2-2.6-1.5-4.3-2.7-3.6-.7.5-.9 0-.6-1.4.5-1.6 0-2.4-2.1-3.2l-2.6-1 2.7.5 2.7.5-1.9-4.2c-1.1-2.4-2.3-4.2-2.7-4.1-.5.1-1.6.5-2.7.9-1.4.5-1.7.3-1.4-.7.3-.8 1.2-1.3 2.2-1.1 2 .4 2 .3 0-3.6-1.8-3.7-2.2-3.9-5.1-3.4M435 274.6c-.6 1.4-2.1 5-3.5 8-2.3 5-3.2 8.3-3.8 13.8-.2 2.1 5.9 4.4 13.3 4.8 4.4.3 4.5.2 5.7-3.7.7-2.2 1.7-4.9 2.2-6 2.8-6.3 5.1-12.6 5.1-13.8 0-.8-1.8-1.9-4-2.6-2.2-.6-4-1.6-4-2.1 0-.6-2.3-1-5-1-4.5 0-5.2.3-6 2.6M458.5 282.6c-1.4 2.1-1.9 2.4-2.6 1.3q-.9-1.35-.3 1.5c.5 1.9.2 3.1-.7 3.7-1.1.6-1 .9.4 1.5 2 .7 2.3 2.4.3 2.4-1.3 0-2.6 2.8-2.6 5.7 0 .6 1.2 1.4 2.8 1.6 2.4.3 2.3.4-.8.6-3.2.1-3.3.3-1.5 1.3 1.1.7 2.9 1.2 4 1.3 1.4.2 1.9.8 1.8 2.4-.2 1.2.3 2.1 1.1 2.1.7 0 3.8 1.1 6.8 2.5s7 2.7 8.9 3.1c3.4.5 3.4.5-.9-1.5-2.3-1.1-4.6-2.1-5-2.1-.4-.1-1.5-.9-2.5-1.8-1.6-1.4-1.6-1.7-.2-2.5 1.1-.6 2.6-.1 5.1 1.8 1.9 1.5 4 2.4 4.7 2.2.7-.3.4-.6-.5-.6-2.1-.1-2.5-2.1-.5-2.1.7 0 1.9.6 2.7 1.2.8.7.6.3-.4-.9-.9-1.1-2.8-2.4-4.2-2.7-1.3-.4-2.4-1.1-2.4-1.7s.7-.9 1.5-.6c1.4.6 4.5-2.9 7.3-8.2 1-2 1-2.6-.5-3.7-2.9-2.3-6.5-1.3-7.6 2-.8 2.5-.6 3.1 1.4 4.7 1.7 1.4 2 1.9.9 2-.8.1-2.2.3-3 .4-2.2.2-3.4-.6-2-1.5.7-.4.9-1.3.5-1.9-.5-.9-1-.9-2.1 0-.8.6-1.4.8-1.4.4s-.7-.2-1.5.5-1.5 2.1-1.5 3.1-.4 2.1-1 2.4c-.6.4-.9-.4-.7-1.7.1-1.5-.5-2.6-2-3.3-3.1-1.3-2.9-2.9.1-2.1 1.4.3 2.8.1 3.1-.5.4-.5 1.8-.9 3.2-.7 1.6.2 2.9-.3 3.3-1.2.4-.8 1.2-2.5 1.9-3.8.7-1.4.7-2.2.1-2.2-.5 0-1 .4-1 .8 0 .5-.7 1.7-1.5 2.8-1.5 1.8-1.5 1.6-1-2.3.6-3.6.4-4.3-1.7-5.6-4.6-2.9-6.4-2.9-8.3-.1M819.6 301.9c-.3.5-1.6.6-3 .4-2.2-.5-2.4-.2-2.1 2.9.2 3 .6 3.4 4.1 3.9 4.2.7 4.2.8.4 1.5-1.4.2-3.7.6-5.2.9-1.6.2-2.8 0-2.8-.5 0-.6.5-1 1-1 2 0 .9-2.8-1.7-4.5-3.6-2.4-5.8-.9-6 4.1 0 2.1.3 4.4.8 5 1.6 1.9 3.9 12.8 3 13.7-.6.6-1.4-.6-2.2-3.1-1.2-4.1-3.5-5.7-6-4.1-.8.5-2.2.9-3.1.9s-2.9.5-4.3 1c-2 .8-2.4 1.4-1.7 2.3.5.6 1.3 3.1 1.7 5.4.5 3 1 4 2.1 3.6.8-.3 1.4 0 1.4.6s-.6 1-1.2.9c-.8-.2-1.2.6-1 2.2.4 4.1 1 4.9 3.1 4.3 1.2-.3 1.7-1.1 1.4-1.9-.4-1 .3-1.4 2.6-1.4 1.7 0 3.1.5 3.1 1.2s.5.5 1.3-.4c.6-.9 2.3-1.9 3.7-2.3l2.5-.8-2.5 2.1c-2.4 2-2.4 2.1-.2 1.5 3.3-.8 2.7.4-1.8 3.2-2.1 1.3-4.4 3.5-5 4.7-1.1 2.2-1 2.2.4.4 1.3-1.6 1.6-1.6 1.6-.5 0 .9 1.1 2.1 2.5 2.7 2.6 1.2 3.2 3 1.5 5-.7.9-.7.9.2.2.7-.6 1.8-.6 2.9 0 1.1.7 2 .7 2.4 0 .3-.5 1.7-1 3.1-1 1.7 0 2.7-.8 3.4-2.5.5-1.4 1.6-2.5 2.5-2.5.8 0 1.5-.5 1.5-1 0-.6.5-1 1-1 .6 0 1 .7 1 1.6 0 1.1.6 1.4 2.3.9s1.8-.4.7.4c-1.2.8-1.1 1.1.5 1.7 1.1.4 2.6 1.6 3.4 2.7.9 1.2 1.7 1.5 2.3.9s2.2-.7 3.8-.2c4.1 1.2 4.8-.2.8-1.6-1.9-.6-3.9-2.2-4.6-3.7s-2-2.7-2.8-2.7c-.7 0-1.4-.5-1.4-1 0-.6.7-1 1.5-1 1.3 0 1.8-.9 1.7-3-.2-4.8-1.4-16.3-1.7-17.2-.2-.7-.9-3.2-1.5-5.6-.8-3.2-1.5-4.2-3.1-4.2-1.4 0-1.9-.5-1.6-1.4s-.3-1.7-1.6-2.1c-1.9-.6-2-.8-.4-1.2.9-.2 1.5-.9 1.2-1.4-.4-.5.1-.9 1.1-.9 1.3 0 1.5-.6 1-3.2-.3-1.7-.7-3.2-.9-3.3-1-.8-6.7-1.3-7.1-.6M434 303.5c0 .8-.5 2.4-1.2 3.4-1.2 2-.5 5.1 1.3 5.1.6 0 1.3-.9 1.6-2s.9-1.7 1.5-1.4c.5.3.6 1.4.3 2.4-.4 1.3 0 2 1.5 2.5 2.9.9 2.5 2.3-.5 1.7-1.8-.3-2.5 0-2.5 1.1 0 .8-.3 2.8-.6 4.4-.5 2.7-.3 3.1 2.3 3.6 3.6.7 4.4-.1 4.7-5.1.2-2.2.6-4.4.8-4.8.3-.5.8-2.5 1.2-4.5.7-4.2-.7-5.4-5.1-4.3-1.8.5-2.4.3-1.9-.4.4-.6-.3-1.6-1.4-2.2-1.6-.9-2-.8-2 .5M449.6 311.5c-.4 2.1-.6 3.8-.4 3.9s6.2 1.4 13.3 2.9c12.1 2.5 13.1 2.6 14.3 1 1.7-2.3 1-3.7-1.9-4.1-2.4-.4-19.8-5.4-23-6.7-1.3-.5-1.8.2-2.3 3M447.4 318.7c-2.2.4-4.1 5.3-2.2 5.3 1.4 0 5.2-2.1 6.1-3.4.5-.7.7-.3.5.9-.2 1.1-1.4 2.5-2.8 3.2s-1.9 1.3-1 1.3c.8 0 5.1.7 9.5 1.5 11.5 2.1 15.2 2 16.5-.6.7-1.1.9-2.3.7-2.6-.3-.2-3.8-1.3-7.9-2.4-4-1.1-8.9-2.4-10.8-2.9-3.6-1-5-1-8.6-.3M555.4 333.4c-3.8 2.9-6.8 5.9-6.6 6.6.3 1.4-2.9 4.1-4 3.4-.4-.3-.5.2-.2 1.1.4 1.1.2 1.4-.9.9-.9-.3-3.7 1.3-7 4-3.1 2.5-7.7 5.5-10.2 6.7-2.6 1.2-4.9 2.8-5.2 3.6-.3.7-1.6 1.3-2.9 1.3-1.4 0-2.7.6-3 1.4-.3.9-1.3 1.2-2.2.9-1.3-.4-1.4-.3-.6.6s1.9.8 4.5-.4c6.4-3 9.4-4.8 10.5-6.4 1-1.2 1.5-1.3 2.7-.3 1.3 1.1 2.5.7 7.1-2.3 6.1-3.9 7.8-6.8 2.1-3.3-2 1.1-3.8 1.8-4 1.6-.8-.7 7.6-5.8 8.6-5.2 1.2.7 4.2-1.5 10.9-8 5.5-5.4 9.9-11.6 8.2-11.6-.5 0-4 2.4-7.8 5.4M895.3 331.7c-1.2.2-2.7 1.1-3.4 2-1.1 1.3-1 1.8.6 2.9 1.8 1.3 1.7 1.4-1.1 1.2-1.6-.1-3.8-.7-4.9-1.4-1.7-1.1-2.5-.8-6 2.2-2.2 1.9-3.2 3.2-2.2 2.8 1.1-.4 2.3 0 3 .8 1.7 2.2 5.8 2.9 7.6 1.5 1.2-.9 1.3-.9.7 0-.4.7-.3 1.3.3 1.3.5 0 1.3-.5 1.6-1 .3-.6 1.5-1 2.6-1 1.2 0 1.7-.4 1.3-1.1-.3-.6-1.5-.9-2.5-.6s-2.1.2-2.4-.3c-.8-1.3 3.7-1.9 11.1-1.5l7.2.4.5-3.6c.4-2.1.2-4-.4-4.3-1.1-.8-10.4-1-13.6-.3M411.2 364.5c-1.1 1.3-.8 1.5 1.7 1.5 2.9 0 3 .1 1.9 2.4-.8 2-.7 3.2.4 5.8.9 1.8 2.1 5.1 2.8 7.3 1.4 4.5 4.9 11.7 6 12.5 1.7 1.2 3 5.2 3 9.3 0 2.4 1.1 7.4 2.4 11.1 1.3 3.6 2.2 6.6 2 6.6-.3 0 .7 1.1 2.1 2.5s2.5 3.4 2.5 4.3c0 3 3 13.5 5.2 18.2 1.1 2.5 2.1 4.9 2.2 5.5.4 2.3 2.8 5.5 4.1 5.5 1.5 0 7.2-2.9 9.2-4.7.7-.6 2.6-1.7 4.3-2.5 2.8-1.2 4.2-3.8 2-3.8-.5 0-1-.7-1-1.5s-1.1-3.9-2.5-7c-2.3-5-2.9-5.5-5.8-5.6l-3.2-.1 3.3-.9c3.4-1 4.2-2.6 1.7-3.5-2.8-1.1 1-4.8 5-5 4-.1 4.5.8 1.3 2.5-2.2 1.1-2.1 1.1.7.7 2.6-.4 2.7-.2 1.3.8-1.2.9-1.6 2.1-1.2 4.1.7 3.8 1.2 4.5 3.4 4.5 1 0 2 .5 2.2 1.2.3.7.7.8 1 .2.3-.5-.1-2.7-.9-4.9-2-5.1-2.8-11.5-1.5-11.5.5 0 1.4 1.7 2 3.7 2.3 8 3.7 11.3 4.9 11.3.7 0 1.3 1 1.3 2.2 0 5 1.3 5.1 8.3 1.3 6.5-3.6 8.4-5.1 7.4-6.1-.2-.3-2.6.3-5.2 1.1-2.6.9-4.9 1.4-5.1 1.2-.3-.3 1.5-1.8 3.9-3.3 4.1-2.7 4.4-3.2 3.9-6.3-.4-2.4-.2-3.2.6-2.7.7.4 1.2 1.5 1.2 2.5 0 2.7.9 3.1 3.8 1.8 4.1-1.7 7.8-4.7 5.9-4.7-.9 0-1.9.4-2.2 1-.3.5-1.6 1-2.8 1-1.9-.1-1.7-.5 1.7-3.4l3.8-3.3-3.1.5c-3.3.5-4.4-1.4-1.4-2.5 1.5-.6 1.4-.7-.3-1.4-1-.4-2.9-.5-4.1-.2-1.3.3-2.3.1-2.3-.4s-.8-1-1.7-1.1c-6.6-.8-8-.8-9.5-.4-1 .2-1.8 1.3-1.8 2.3 0 2.3-1.6 2.5-2.8.3-.6-1.2-1.8-1.5-3.5-1.2-4.8.9-1.8-1 4.1-2.7 8.2-2.3 8.4-2.4 7.7-3.4-.3-.6-1.7-.6-3.6.1-2.4.8-3.8.7-6.3-.4-1.7-.8-4.4-1.3-6.1-1.1-3.8.3-6.1-2.2-4-4.4.8-.7 1.2-2 .9-2.7-.3-.8.3-1.6 1.5-1.9s2.1-1 2.1-1.6c0-2-2.6-1.2-4.9 1.5-1.8 2.1-2.5 2.3-3.7 1.3-.8-.6-2.7-.9-4.4-.6l-3 .6.1-4.9c.2-5.2 1.4-6.5 2.7-2.9.8 1.9 1 2 2.4.6.9-.9 4.5-3.2 8.2-5.2 6.9-3.9 8.8-5.5 6.2-5.5-2.2 0-2-1.7.4-3 2.6-1.4 2.6-3 0-3-1.3 0-1.8-.5-1.4-1.5s0-1.5-1-1.5c-.9 0-2.8-.7-4.1-1.6-1.6-1.1-2.5-1.2-2.5-.5 0 .8-.5.9-1.9.2-1-.6-2.1-.8-2.3-.5-.3.2-1.1-.2-1.8-1.1-1.7-2-4.7-1.9-5.9.2-.7 1.1-1.1 1.3-1.1.5s-.7-1.1-1.9-.7c-1.3.4-2-.1-2.5-1.7-.5-1.4-.9-1.8-1.3-1-.2.6-.9 1-1.3.7-.5-.3-1.6.5-2.4 1.7-1.4 1.9-2.6 2.2-8.1 2.3-3.6.1-6.5-.2-6.5-.7 0-.4-.9-.8-2-.8s-2 .5-2 1.1c0 1.9-2.5.3-2.6-1.7-.2-4-.5-4.4-2.6-4.4-1.3.1-2.9.7-3.6 1.5M813.4 372.7q.6 1.2-3.6 2.4c-2.3.6-5.5 2.1-7 3.4l-2.8 2.4 3.7 3c3.9 3.2 8 4.5 12.9 3.9 2.7-.3 2.9-.6 3.2-5.6.3-4.3 0-5.2-1.4-5.2-1 0-1.4.5-1 1.5.9 2.5-1 1.7-2.2-.9-1-2.3-.9-2.4 2.4-2.2 2.5.1 3.3-.2 2.9-1.2-.3-.8-.5-1.5-.5-1.8 0-.2-1.1.1-2.4.6q-2.4.9-3.6-.3c-1-.9-1.1-.9-.6 0M766 437.1c0 .7-1.1.9-2.9.6-1.5-.3-3.3-.1-4 .6-1.6 1.6-1.4 2.7.4 2.1.8-.4 1.5-.1 1.5.5s-.8 1.1-1.9 1.1c-1 0-2.4.6-3 1.4-.9 1 .1 2.4 4.6 6.2 8 6.9 8.6 7.3 10.8 7.4 2.2 0 6.8-5.2 10.3-11.8l2.3-4.3-3.7-1.5c-2.2-.9-5-1.3-6.7-1-1.9.4-3.4.1-4.4-.9-1.7-1.8-3.3-1.9-3.3-.4M457 454.1c-13.5 6.9-15.4 10.3-10.5 19.8 1.8 3.6 2.3 5.8 1.8 8.5-.6 4.1-.8 4 3.8 2.4 5.8-2 7.3-4.4 4-6.5-2.1-1.3-6.1-9-6.1-11.6 0-3.9 4.8 1.6 8.2 9.5 1.5 3.4 1.9 3.4 5.5.5 1.5-1.2 4.7-3.5 7.1-5 2.3-1.5 4.2-2.9 4.2-3.2 0-.4-3.9-8-5.4-10.4-.5-.7-1.1-.9-1.5-.5-.3.5-1.7 1.5-3.1 2.2-2.3 1.2-2.2 1.1.4-1.1 2-1.8 2.6-3 2.2-4.5-1.3-4-2.8-4-10.6-.1M514.1 457.9l-3.4 2.8 3.7 3.7c2 2.1 3.6 4.1 3.6 4.4 0 1 5.7 6.2 6.7 6.2.5 0 4-3.2 7.8-7.1 3.9-4 6.2-6.9 5.3-6.5-1 .3-2.6.9-3.5 1.3-1 .3-1.5.3-1.1-.1.3-.4-.1-1.6-1-2.5-1.6-1.7-1.9-1.7-5.2.2-1.9 1.1-4.5 2.9-5.7 4-1.3 1.1-2.3 1.6-2.3 1.1 0-.6 1.4-2 3-3.2 4.3-3.3 3.7-4.7-.7-1.7-5.1 3.4-6.5 3.1-2.5-.6 5.5-5.1 1.3-7-4.7-2M740.5 461c-1.6.9-3 2.1-3 2.6s-.6 1.8-1.3 2.9c-1 1.7-1.3 1.8-2.1.5-.6-.8-1.3-1.1-1.7-.8-.3.4 2.5 4.1 6.2 8.2 3.8 4.1 7.1 7.3 7.3 7 .3-.2-1-1.9-2.7-3.7-1.8-1.8-3.2-3.8-3.2-4.4 0-.7-.8-1.6-1.7-2.2-1-.5-1.5-1.2-1.1-1.6.8-.8 4.8 1.7 4.8 3 0 1.4 3.7 4.5 4.5 3.7.3-.4.3.1 0 .9-.3.9.1 2.1.9 2.8 1.1 1 1.9.7 3.8-1.1 1.2-1.3 3.5-3.3 5.1-4.5 2.1-1.6 2.5-2.6 2-4.1-.9-2.4-10.1-10.7-11-9.9-.3.4-1.3.3-2.2-.2-1-.5-2.7-.2-4.6.9M534.7 471.8c-3.1 3.2-5.7 6.2-5.7 6.7 0 1.5 5.5 5.8 7.9 6.2 1.2.2 2.9-.9 4.6-3 1.4-1.7 3.8-4.5 5.3-6.2 2.1-2.4 2.3-3 1-3.3-.9-.2-2.3-1.7-3.2-3.5-.8-1.8-1.6-2.6-1.6-2 0 .7-.5 1.3-1.1 1.3-.5 0-.7-.5-.4-1 1.7-2.8-1.7-.4-6.8 4.8M727 470.5c0 .6.6 1.7 1.3 2.4 1 1 .8 1.1-.7.5-1.7-.6-1.8-.4-1.2 2.1s.5 2.7-.8 1.6c-.9-.8-1.6-.9-1.6-.4 0 1.6 2.2 3.2 3.9 2.6 1.2-.4 1.3-.2.3.4-.7.6-1 1.7-.6 2.7.9 2.3 8.9 10.6 10.2 10.6.6 0 3.1 2.1 5.6 4.6 3.1 3.1 4.6 5.4 4.6 7.2 0 2-.3 2.3-1.2 1.4-1.6-1.6-3.1-1.5-2.5.2.9 2.3-.4 2.7-2.2.6-1.5-1.8-1.9-1.7-9.6 3.1-4.4 2.7-13.5 7.6-20.2 11l-12.1 6 1.5 4.5c.8 2.4 1.6 4.4 1.8 4.4.1 0 3.9-1.8 8.3-4s8.3-4 8.8-4c1.4-.1 11.2-6.4 11.6-7.5.2-.5.8-1 1.3-1 1.9-.2 5-1.9 5.8-3.2.4-.7 1.2-1.3 1.7-1.3.6 0 3.7-2.1 7.1-4.7l6.2-4.7 1.8 2.3c1.5 1.9 1.9 2 1.9.6 0-2.4 3.3-1.5 4.5 1.3.5 1.2 1.5 2.2 2.1 2.2 1.4 0 2.5 4.8 1.3 5.5-.4.3-1.2-.3-1.8-1.2-1-1.7-1-1.7-1.1.2s-.1 1.9-1.1.1c-.9-1.5-1.3-1.6-2-.5s-.9 1.1-.9-.3c0-1.1-.6-1.5-1.9-1.1-1.1.3-2.1-.2-2.5-1.2-.3-.9-.2-1.3.4-1s1-.1 1-.9c0-2.4-2.3-1.9-5.8 1.1-1.7 1.6-4.7 4.1-6.7 5.7s-3.3 3.1-3.1 3.4c.3.3 1.3-.1 2.1-.8 1.8-1.5 3.1-.6 3.7 2.5.4 2.6 3.6 3.1 5.4.8 1.4-1.7 1.4-1.7 2.9.1 1.6 2.1 4.5 1.5 4.5-.9 0-.8.9-1.5 1.9-1.5s3.6-1.6 5.7-3.5c2.2-1.9 4.2-3.5 4.7-3.5 1.2 0 .7-5.4-.7-7.3-.8-1-2-1.5-3-1.1-1.1.4-1.6.1-1.6-1.4 0-1.1-1.7-3.8-3.8-6.1-3.3-3.6-4.2-4.1-6.8-3.5-2.6.5-3 .9-2.6 3.4.2 1.5-.1 3.1-.8 3.5-1.4.9-6.2-3.4-5.3-4.8.3-.5 1.3.2 2.2 1.7.8 1.4 2 2.6 2.5 2.6.6 0 .5-.5-.2-1.2s-1.2-2.2-1.2-3.4-.3-2.4-.7-2.6c-.5-.2-2.1-2.1-3.8-4.3-1.6-2.2-5-6.3-7.6-9-2.6-2.8-6.1-6.6-7.8-8.5s-3.1-3-3.1-2.5M568.2 474.2c-2.1 2.6-15.3 22.3-21 31.5l-2 3.2 4.1 3.4c8.6 6.9 7.9 7.2 14.2-5.3 4.5-9 5.3-11.3 4.3-12.4-.7-.7-1.9-1.1-2.6-.8-1.7.5-1.5-2.3.2-3.7 1.1-1 1.7-.8 2.5.6.6 1 1.1 1.2 1.1.5 0-.6.6-1.2 1.4-1.2s1.7-.7 2-1.6.2-1.2-.5-.8-.9-.3-.7-1.7c.2-1.7.8-2.3 2.1-2.1 1.7.3 1.8-.1 1.2-4-1.1-6.8-2.2-6.7-5.6.5-2.8 6.2-4.9 8.1-6.3 5.8-.3-.5.1-1.2 1-1.5.9-.4 1.4-.9 1.1-1.2-.3-.4.4-2.3 1.7-4.3 3.5-5.6 3.8-6.1 3.3-6.1-.3 0-.9.6-1.5 1.2"/><path d="M757 479.5c-3.8 3.9-7 6.3-7.8 6-1-.4-1.2 0-.8 1.2.6 1.5.4 1.5-1.4-.2-2.9-2.6-2.5-.2.6 3.4 2.3 2.8 3 3.1 6.1 2.5 3.3-.6 3.8-.3 10.9 7 6.9 7.1 7.7 7.6 11.6 7.6 2.3 0 4.8-.7 5.7-1.5s3.4-3 5.6-4.9l3.9-3.5-2.9-3.1c-1.6-1.6-3.5-3-4.2-3-.8 0-1.6-.6-1.9-1.4-.3-.7-2.6-2.8-5.1-4.7-2.6-1.8-5.8-4.4-7.2-5.8-6.8-6.8-6-6.8-13.1.4M551.8 481.5c-3.3 3.8-8.4 10.1-11.3 13.9l-5.4 6.9 3.6 2.9c2 1.5 3.9 2.8 4.3 2.8s2.6-2.8 4.8-6.3c5.6-8.7 16.2-26.3 16.2-26.8 0-.2-1.4-.4-3.1-.4-2.6 0-4.1 1.1-9.1 7M699.5 488.9c-.5 2.6-.3 3.7.9 4.3.9.5 1.6 1.6 1.6 2.4 0 .9-.5 1.2-1.2.8-.8-.5-.9-.2-.5 1 .4 1 .7 1.9.7 2.2 0 .2.8 0 1.8-.3 1.6-.6 1.6-.6 0 1-1.2 1.3-1.5 2.7-1.1 5.5.6 3.8-1.2 3.7-1.9-.2-.6-3.3-2.2-2.3-2.6 1.7-.3 3.5 1.2 16.5 2.1 17.3.4.5 5.7-1.9 11.5-5 3.1-1.6 3.3-1.9 1.8-3.5-1.8-2-2.1-4.1-.6-4.1.6 0 1 .3 1 .7 0 .5.7 1.7 1.5 2.7 1.4 1.8 1.6 1.8 6.9-1.4 4.6-2.8 5.3-3.6 4.5-5.2-.6-1.1-.6-1.8 0-1.8.5 0 1.2.7 1.5 1.5.5 1.4.9 1.4 3.5.1 2.2-1.2 2.8-2.1 2.4-3.6-.3-1.1-.9-2.3-1.4-2.6s-.9-1.4-.9-2.6c0-1.9.1-1.9 2 .3 1.9 2.3 1.9 2.3 2 .3 0-2.5-1.8-4.4-4.2-4.4-1 0-1.8-.4-1.8-.9 0-1.2-9.1-5.6-10.8-5.3-.7.2-2.5-.5-4.1-1.4-2.8-1.6-3-1.6-5.7.5-1.6 1.3-3.5 3.2-4.2 4.4-1.2 1.9-1.2 1.9-.6.2.4-1.1.9-3.4 1.1-5 .4-2.7.2-3-2.1-3-2 0-2.6.6-3.1 3.4M629.2 506c-.3 11.5-.3 11.5 4.1 11.1.9-.1 1.7.3 1.7.8 0 .6-1 1.1-2.2 1.1-4.3 0-5.2 1.4-4.4 6.6.3 2.6.8 5 1.1 5.2.3.3 1.5-.4 2.8-1.6s2.9-2.2 3.5-2.2c.9 0 1.2-3 1.2-10.4v-10.3l-2.5.5c-2.4.4-2.4.3-1.3-2.9.6-1.9 1.5-3.7 2.1-4 1.2-.8-2.3-4.9-4.3-4.9-1.2 0-1.6 1.9-1.8 11M565.6 506.9c-4.5 7.7-11.6 22.5-11.6 24.3 0 .6.6.8 1.4.5s1.7.1 2 .9 1 1.4 1.7 1.4c1 0 12.2 4.9 16.3 7.1 1 .6 2.2.7 2.6.2 1.2-1.2 2.3-5.6 1.3-5-.4.3-2.6-.6-4.8-2l-4-2.4 3.5.6c1.9.4 4 1.1 4.6 1.6 1.9 1.5 2.4-.2.9-3.2-1.7-3.2-2.1-6.3-.5-3.9.8 1.2 1 1 1.1-1 .2-4.6-.3-8.5-1.2-9.5-.5-.5-.9-2-.9-3.3v-2.4l-2.1 2.3-2.1 2.4.7-2.5c.4-1.4.9-5 1-8 .3-5.4.3-5.5-2.5-5.6-2.6-.1-3.4.7-7.4 7.5M643 503c-1.2.7-1.4 3-1.1 11.7.3 11.8.8 13.5 2.7 10.9 1.5-2.1 5.4-1.3 5.4 1 0 1.1-.6 1.3-2 .9s-2-.2-2 .9c0 2.2 4 5.6 6.6 5.6 1.2 0 2.5.6 2.8 1.2.6 1.4-.1-10.6-1-16.1-.4-2.6-.8-3.1-1.5-2s-.9.9-.9-.9c0-1.2-.4-2.2-1-2.2-.5 0-1-1.2-1-2.8 0-1.5-.7-3.8-1.6-5-.8-1.2-1.2-2.7-.9-3.2.8-1.3-2.5-1.3-4.5 0M529.3 509.2c-1.6 2.4-3.1 4.4-3.5 4.6-1.7.8-.6 2.1 3.8 4.9 2.6 1.5 5.8 3.6 7.3 4.5 2.5 1.7 7.5 4.1 11.7 5.8 2.4 1 5.4-.6 5.8-3 .1-.8.7-2.5 1.4-3.7 1.7-3 1.7-3-3-5.4-2.4-1.2-5.3-3.1-6.5-4.2-1.3-1.1-2.4-1.9-2.6-1.6-.2.2-1.3 2-2.5 4s-3 4.3-3.9 5c-1.5 1.2-1.5 1 .1-1.6 1.1-1.7 2.5-3.9 3.3-5 .7-1.1 1.3-2.3 1.3-2.7 0-.9-7.5-5.8-9-5.8-.5 0-2.2 1.9-3.7 4.2M741.6 526.5c-1 .8-1.5 1.9-1.1 2.5.5.7-.2.9-2 .4-3.1-.8-7.5 2.3-5.3 3.8.8.6 0 .7-1.9.3s-3.3-.2-3.3.3-.9 1.2-2 1.5c-1.3.3-2 1.4-2 2.8 0 2-.1 2.1-1.8.6-2.2-2-5.4-.5-4.5 2.1.6 1.5.5 1.5-1.4-.1-1.7-1.5-2.3-1.6-3-.5-1.2 1.9-5.2 4-6.3 3.3-1.4-.9-1.2 1 .4 5 1.4 3.2 1.7 3.4 3.8 2.2 1.3-.6 3.7-2.2 5.3-3.4 2.1-1.4 3.9-1.9 5.8-1.6 2.1.4 2.7.1 2.7-1.2 0-1.2.5-1.5 1.6-1.1 2.2.8 7.4-2.4 6.7-4.1-.4-1.1.1-1.2 2-.8 2.2.6 4.6-.3 8.6-3.2.2-.1-.2-1-.9-1.9-1.1-1.3-1.1-1.7-.1-2.4.8-.4 1-1.3.6-2s-.2-1.6.5-2 .8-1 .3-1.3c-.4-.3-1.6.1-2.7.8M617 544.5c-.6 1.5-.3 2.1 1.1 2.3 1.1.2 1.9.8 1.9 1.3 0 .6.9.5 2.1-.2 1.7-.9 2.4-.8 3.8.6 1.5 1.7 1.5 1.7 0 1.2-1-.3-2.6.4-4 1.9-1.6 1.7-3 2.3-4.5 2-3.5-.9-4.6 5.7-3.9 22.7.6 12.5.3 15.8-1.9 27.7-1.4 7.4-3 15.3-3.6 17.5-2.2 8.5-4 19.5-5 30.9-.6 6.5-1.3 12.9-1.6 14.1-.3 1.3-.1 2.6.4 2.9.6.4.8 3.5.5 7.9-.2 3.9 0 10.1.5 13.7.9 5.8.8 6.8-.9 9.2-1 1.5-1.9 3.1-1.9 3.6s-1.3 2.1-3 3.5c-1.8 1.7-3 3.7-3 5.2 0 1.7-.8 2.9-2.4 3.7-1.4.6-2.7 1.7-3 2.4-.5 1.2 7.5 1.4 48.3 1.4 44.4 0 48.9-.1 49.5-1.6.4-.9.4-1.9.1-2.2s-.5 0-.5.6c0 2.1-1.8 1.3-2.5-1.1-.6-2-2.4-6.1-5.4-12.7-2-4.3-3.8-7-4.2-6.5-.3.2-.5-9.8-.5-22.3.1-22.1 0-23.1-3.3-38.7-1.9-8.8-3.7-18-4.1-20.4-.4-2.3-1.2-4.6-1.7-5-3.4-2.1-5-28.9-2.5-39.9.6-2.7.6-5.5 0-8-.5-2-1.4-5.9-2-8.5-.6-2.7-1.7-5.1-2.5-5.4-.7-.3-1.3-1.3-1.4-2.2 0-1-.4-.7-1 .8-.5 1.4-.8 3-.5 3.8.7 1.8-1.1 2.6-6.6 2.7-4.4.1-4.8.3-4.8 2.6 0 1.4-.3 3.5-.6 4.8-.5 1.8-.2 2.4 1.5 2.9 2.3.6 3 4.3.7 4.3-.8 0-1.6.6-1.9 1.2-.2.7-.7-2.3-1.1-6.7-.9-9.9-1.1-10.6-2.3-7.6-.9 2.2-1 2.2-1.7.6-.4-1.1.1-2.8 1.1-4.4 1-1.4 1.9-3.8 2.1-5.2.3-2.4 0-2.6-5-2.8-15.6-.9-18-.7-18.8 1.4M740.6 688.4c.3.6 2.1 1.9 4.2 2.8 9.4 4.4 19.2 13 19.2 16.9 0 .9.7 3.2 1.5 5.1 1.2 3.1 1.8 3.5 4.2 3 1.5-.2 2.6-.2 2.3.1s-1.9.7-3.5 1c-5.4.7-4.1 2.7 1.8 2.7h5.4l-.8-4.9c-1.8-11.4-7.7-16.8-27.1-24.7-4.2-1.7-7.4-2.6-7.2-2"/></svg>