<svg xmlns="http://www.w3.org/2000/svg" width="1706.667" height="960" viewBox="0 0 1280 720"><path d="M0 116.8v116.7l4.2 1.1c2.4.6 6.8 2.1 9.8 3.3 3 1.1 6.4 2.1 7.5 2.1 1.1.1 3.1.7 4.5 1.5 2.5 1.4 2.5 1.4.3 1.5-1.3 0-2.3-.5-2.3-1 0-.6-2.7-1-6-1s-6-.4-6-1-.3-.9-.7-.8c-.5 0-2.5-.6-4.5-1.5-2.1-1-4.4-1.7-5.3-1.7-2.1 0-1.9 4 .3 4.1.9.1 2.2.2 2.7.4.6.1 1.7.3 2.6.3.9.1 2.8 1.3 4.3 2.7s3.1 2.5 3.7 2.5c.5 0 .9.4.9.9 0 1.2-11.2.7-13.8-.7L0 244.9v197.2l2.3-1.2c1.2-.7 3.7-2.5 5.5-4 1.8-1.6 4.1-2.9 5.2-2.9 1 0 2.2-.9 2.5-2 .6-2 3.7-2.6 6.9-1.4 2.8 1.1 1.7 2.2-3.9 3.9-3 1-5.2 2.2-4.9 2.6.3.5-.1.9-.8.9-1.6 0-4.9 3.6-4.1 4.4.4.3-.8.9-2.5 1.2-1.8.4-3.2 1-3.2 1.5s-.7.9-1.5.9C.2 446 0 461.9 0 583v137h173.5c172.8 0 173.5 0 173.5-2 0-1.8.7-2 6.2-2 6.8 0 7 .3 1.2 2.4-3.5 1.3-.4 1.5 31.9 1.5 30.6.1 36.1-.1 37.3-1.4.9-.8 2.5-1.5 3.7-1.6 2 0 2-.1.4-.8-1.6-.6-.9-1.6 4.6-6.4 3.6-3.1 6.9-5.7 7.4-5.7 1.3 0 6.3-5 6.3-6.3 0-.7-.7-2.2-1.5-3.4-3.2-4.6 2-7.3 6.3-3.3 1.2 1.2 2.2 2.5 2.2 2.9 0 .5 1.6 2.9 3.6 5.3l3.7 4.3-3.6 1.5c-2 .8-3.8 2.3-4 3.2-.3.9-2.1 2.3-4 3.1-2.9 1.3-3.5 2.1-3.9 5.1l-.4 3.6h22.4l1.1-3.1c1.2-3.4 3.1-3.1 3.1.7v2.4h12.5c12.4 0 12.5 0 12.5-2.3 0-2.9 3.7-7 5.7-6.3.8.3 1.6.6 1.8.6s0 1.2-.4 2.7c-.4 1.6-1.8 3.4-3.2 4-2.1 1.1-1.2 1.3 6.4 1.3 8.6 0 8.8-.1 8.6-2.3-.2-1.2.2-3.1.7-4.2.6-1.1 2.1-6.5 3.4-12 1.2-5.5 2.7-11.8 3.3-14l1.2-4 .3 4.4c.2 2.6-.3 6-1.2 8-1.6 3.6-5.2 16.3-6 21.3l-.5 2.7 26.2.1h26.2l2.3-6.2c4.8-12.6 5.1-36.1 1.2-72.8-2.5-23.7-2.6-37.4-.1-49.8 3-14.6 5.1-27.4 5.1-30.5 0-3.4-1.5-2.8-2.5 1-1.4 5.7-8.2 22.3-9.1 22.3-.3 0-.3-.3-.1-.8.2-.4 1.2-3.4 2.2-6.7 2-6.6 6-19.1 7-21.6.5-1.3-.9-2.3-6.7-4.5-4-1.6-7.5-2.9-7.8-3-5.4-1.3-9.8-3-9.4-3.6.3-.4.1-.8-.3-.8-.7 0-2.9 3.7-10.1 17.6-.8 1.4-1.6 2.3-1.9 2-.5-.4 2.2-6.7 6.8-15.8l1.9-3.8-3.7-2.3c-2.1-1.3-8.7-5.4-14.7-9.1l-10.8-6.7-3.4 3.8c-1.8 2.1-3.3 3.3-3.4 2.7 0-.7 1.2-2.5 2.8-4.2 1.5-1.6 3.2-3.7 3.7-4.5.6-.8 3.1-4.1 5.6-7.4l4.6-5.8-7.4-6.3c-4.1-3.5-7.7-6.1-8-5.8s0 1.2.7 2.1c1 1.2 1 1.5-.2 1.5-2 0-3.7-2-3.1-3.6.3-.9-.2-1.4-1.6-1.4-2.4 0-2.7-1-.9-2.8.9-.9.5-1.9-1.8-4.4l-2.9-3.2 3 1.8c1.7 1 4.6 3.4 6.5 5.2 7.4 7.2 15.7 14.4 16.6 14.4.5 0 2.5-2.3 4.4-5.1 1.9-2.7 6.3-8.6 9.8-13 3.4-4.5 6.2-8.5 6.2-9.1 0-2.3-7.9 5-13.4 12.4-1.5 2.1-3.2 3.8-3.9 3.8s-2.9-1.1-4.8-2.4c-2-1.4-4.8-2.8-6.2-3.1-1.4-.4-2.8-1.4-3.1-2.2-.4-.8-1.3-1.3-2.1-1-.9.4-1.2.1-.9-.7s-1.3-3.3-3.6-5.7c-2.2-2.4-3.9-4.8-3.6-5.4.2-.7 0-1.8-.6-2.6q-1.05-1.65-.3.6c.4 1.4-.6.8-3.4-2-2.3-2.1-4.1-4.4-4.1-5 0-2.8-2.3-3.4-5.3-1.3-2.9 2.1-2.9 2.1-1.8.1 1.1-2.2 3.8-3.7 6-3.4.7.1 1-.2.6-.8-1.1-1.8-3.8-1.2-9 2-2.8 1.7-3.9 2.7-2.5 2.3l2.5-.6-2.4 2.6c-1.4 1.4-2 2.6-1.5 2.6s2 1.6 3.2 3.5c3.5 5 1.1 7.6-3.3 3.5-2.1-2-2.3-2-4.5-.2l-2.2 1.8 2.2 4.5c1.3 2.4 3.5 5.6 5 7s3 3.4 3.3 4.3c1 2.6 3.9 1.5 5-1.9.9-2.5 4.1-6.5 5.4-6.5.7 0-2 4.5-3.1 5.2-.8.5-.7.8.2.8 1.9 0 1.4 1.8-.7 2.5-1.9.6-2.3 4.8-.7 7.3.4.7.5 1.6.1 2-.3.4-1.1-.1-1.6-1.1-1.7-2.9-4.3-1.9-8.1 3.4-2.1 2.9-3.8 4.8-3.8 4.4s1.6-3 3.5-5.6c1.9-2.7 3.5-5.2 3.5-5.5 0-.5-6.7-9-9.5-12-.5-.6-2.3-2.7-3.9-4.7-3.5-4.4-4.5-4.5-8.5-1.1-1.7 1.4-3.6 2.4-4.2 2.2s1-2 3.5-4c5.6-4.3 4.8-5.9-.9-1.8-2.2 1.6-5.2 3.7-6.7 4.7-3.3 2-3.4 2.7-1.1 5.2 1 1 3.4 3.8 5.3 6.1 1.9 2.4 5.3 6.3 7.5 8.7 2.2 2.3 5.1 5.6 6.5 7.2 1.3 1.6 3 2.7 3.7 2.4.9-.4 1.1 0 .7 1.1-1.1 2.8 2.1 1.8 4.6-1.4 1.3-1.7 2.5-2.8 2.8-2.6.2.3-.7 1.9-2.2 3.6-3.8 4.5-3.5 4.9 15.3 17.5 5.7 3.8 7.7 6.5 4.8 6.5-1.6 0-5-2.3-10.3-6.9-2.3-2-5.6-4.7-7.5-6.1-4.9-3.6-18.9-17.2-18.9-18.3 0-.6-2.6-3.6-5.8-6.6-3.2-3.1-6.9-7.1-8.3-8.9l-2.5-3.2-6.9 4.5c-3.8 2.6-7.6 5.2-8.5 5.9-1.9 1.6-8.1 3.8-8.9 3.1-.2-.3.4-1.2 1.5-2 1.6-1 2-2.2 1.6-4.5-.3-2.5-.1-2.9 1.2-2.4.9.3 1.6 1 1.6 1.5s.5.9 1.2.9c1.7 0 15.8-7.2 15.8-8.1 0-.4-1.3-2-3-3.6-1.6-1.5-3-3.3-3-3.9s-.9-2.3-2-3.7-2-3.3-2-4.4c-.1-2.3-1.9-4.7-4.3-5.6-1-.4-1.6-1.1-1.3-1.6.6-1-2-6.7-3.5-7.6-.5-.4-.9-1.6-.9-2.9 0-1.2-.4-2.6-.8-3.2-.5-.5-1.5-2.5-2.2-4.4-1.2-3.3-2.2-5.8-4.8-12.2-1.7-4.1-.6-5.5 4.5-6.1 4.3-.5 9.9-3.6 9.7-5.4-.1-.4-.4-2-.8-3.6s-.2-2.7.4-2.7c.5 0 1 1.3 1 3 0 3.4 1.8 3.9 6 1.5 2.4-1.4 9-2.1 9-1 0 .3-1.2 1.7-2.7 3-2.3 2-2.5 2.4-1 2.5.9 0 1.7.4 1.7 1 0 1.5 3.7 1.2 6.9-.5 2.7-1.3 2.9-1.3 2.4.3-.7 2.7 8.5 20.9 10.4 20.5.6-.1 3.8-1.8 7.2-3.8 8-4.7 8.2-7.2.2-4.4-5 1.7-4.8.4.4-2.6 3.3-2 4.3-3.1 3.6-3.8-.6-.6-1.1-2-1-3.2 0-1.9 0-1.9.9.1 1.2 3 2.7 3.7 4.7 2.4 1.6-1 1.6-1-.3-.5-1.6.4-2.3 0-2.7-1.7-.8-2.8.1-3.8 1.6-1.7 1.6 2.2 5.4 3.3 6.3 1.8.5-.8.3-.9-.6-.4-.8.5-1.1.4-.6-.3.4-.6 1.3-.9 2-.6 1.8.7 2.7-.8 1.5-2.6q-.9-1.5-.9-.3c0 .7-.6 1.3-1.4 1.3s-1.6.6-1.9 1.2c-.2.7-.8.9-1.3.5-.5-.5.8-2.4 3-4.3l3.9-3.3-3.2.9c-3.8 1.1-5.3-.6-1.7-2 1.4-.5 2.6-1.2 2.6-1.5 0-.4-.4-.4-.9-.1s-1.1-.1-1.5-.9c-.7-2-2.6-1.9-2.6.1 0 .9-.7 1.4-1.7 1.2-2.1-.4-2.9-2.8-.9-2.8 2.1 0 2.9-1.7 1-2.4-.8-.3-1.2-.2-.9.4s-.3 1-1.3 1c-1.1 0-3.6.7-5.5 1.5-2 .8-4.2 1.2-4.9 1-.8-.3-2.4.6-3.6 2L469 420l2.7-.6c2.2-.5 2.5-.4 1.7.6-1.5 1.5-4.9.9-4.9-.8 0-1.8-2.3-3-4.9-2.5-2 .4-2.4 0-3-3.7-.3-2.3-.3-4.6.1-5.3.4-.6-.6-.2-2.1 1.1-3.6 2.8-8.2 2.9-9.6.2-1-1.8-.6-2.5 2.4-5.2 2-1.8 3.6-3.5 3.6-4 0-1.4-4-.9-4.6.6-.3.8-2.2 1.7-4.2 2.1s-4 1.2-4.4 1.7c-.4.7-2 0-4.2-1.9-3.3-2.7-4.2-2.9-9.3-2.5-5.8.5-7-1.1-1.6-2.1 6.8-1.3 6.7-1.3 6.8-4.8 0-2.4.6-3.5 1.8-3.7 1.3-.3 1.7.4 1.7 3.2 0 4 .7 4.7 3.8 3.9 1.7-.4 2.2-1.3 2.2-4.2v-3.6l1.9 2.4 1.8 2.3 7.1-4.6c4-2.5 7.2-5.1 7.2-5.7s1.1-2 2.5-3.1 2.3-2.4 2-2.9c-.4-.5 0-.9.7-1 2.7-.1-3.1-1.7-8.8-2.4-3.2-.4-6.3-1-6.9-1.4-.5-.3-2.1-.6-3.5-.7-1.6 0-2.5-.6-2.4-1.6s-.5-1.4-1.7-1.1c-3.1.8-6.9-.5-6.3-2.2.4-.9 0-1.5-.8-1.5-1.4 0-4.6 3.2-6.3 6.4-1.4 2.7-3.5 3.2-3.5.9 0-1.7-.9-1.9-7.7-2.1-8-.1-8.9-.5-9.5-3.7-.2-1.3-1.2-2-2.8-2.1-1.4 0-6.3-.4-11-.8-8.4-.6-14.1.1-14.7 2-.1.5 1.6 1.9 3.8 3.2s3.8 2.6 3.5 2.9c-.3.4-.1 1.2.5 2 .7.7.9 2.8.6 4.8-.3 1.9-.2 3.5.4 3.5.5 0 .9 1.4.9 3 0 3.4 4.1 12.3 7.3 15.7 1.5 1.7 3.2 2.3 6.1 2.3l4.1.1-3.4 1.4c-1.8.8-3.7 1.3-4.1 1-.5-.3-1.2.4-1.5 1.6-.8 2.4.5 7.6 4.1 16 1.3 3.1 2.5 6.4 2.7 7.5.1 1 .6 2.4 1 3 .4.7 1.1 4.5 1.7 8.5.7 5 2.2 9.7 4.6 14.3 1.9 3.8 3.3 7.4 3 8.1-.2.7.4 2.4 1.3 3.9 1.5 2.3 1.6 3.4.8 7.1-.9 3.8-.8 4.8.8 6.5 1.3 1.4 1.9 3.7 1.9 7.9.1 3.2.7 6.5 1.3 7.3.8.9 1 3.2.7 6.5-.4 3.2-.2 5.3.5 5.7.6.4 1.1 2 1.1 3.7 0 3.6 2.5 3.9 6.4.8 1.7-1.3 2.4-1.5 2-.6-.3.8-1.6 1.9-3 2.5-1.3.7-2.4 1.8-2.4 2.6s-.4 1.6-.9 1.8-.4 2.9.2 6.3c.6 3.3 1 10.7.9 16.5-.1 7.7.1 10.1.9 9s.9-.6.6 2.1c-.3 2-.2 4.1.2 4.5 2.3 2.6 3.2 10.8 2.2 20.1 0 .7-.5 1.3-1.1 1.3-1.4 0-1.2-3.7.2-4.3q1.5-.6 0-.6c-.8-.1-1.6.8-1.9 1.9s-.9 1.7-1.4 1.4c-1.1-.6-6.9 1.7-6.9 2.8 0 .5-.5.8-1.2.8s.1-1.5 1.8-3.2c4.9-5.5 5.7-7.6 5.5-15.6-.1-4.1-.6-8.2-1.1-9.2-.6-1-1-3.9-1-6.3 0-2.5-.7-5.8-1.5-7.3-.8-1.6-1.5-4-1.5-5.4s-.7-4.3-1.5-6.5-1.4-6.1-1.5-8.6c0-2.7-.6-5.1-1.4-5.8s-1.2-2-.9-3.1-.2-2.6-1.1-3.5c-1.3-1.3-1.5-3.8-1.4-12.9.1-9.8-.1-11.8-1.9-14.8-1.1-1.9-2.3-5.1-2.7-7.1l-.7-3.7-3.1 1.6c-1.7.9-5.3 3.2-8 5.1-7.5 5.5-6.6 3.4 1.3-2.7 3.8-3 7.2-6.5 7.6-7.8.8-3.3-.6-10.8-2.2-12.2-.9-.7-1.5-2.9-1.5-5.1 0-3.8-1.4-5.9-2.4-3.7-.3.7-.3.2 0-1 .5-2.1.3-2.3-1.8-1.7-1.2.4-5 2.7-8.3 5s-8.7 5.7-12 7.5-7.9 4.4-10.3 5.8c-2.4 1.3-4.6 2.2-4.9 1.8-.8-.8 2.6-3.3 9.2-6.7 15.8-8.1 22.5-12.8 22.5-15.6 0-.7.5-1.3 1.1-1.3.7 0 .9-1 .5-2.5-.4-1.4-.2-2.5.4-2.5 1.7 0 1.1-4.6-1-7.3-1.1-1.4-2-3-2-3.7 0-.8-1.3-1-4.2-.5-3.6.5-4 .4-2.7-.7.8-.7 1.5-2.2 1.6-3.3 0-1.1.3-3.1.7-4.4.3-1.3.2-2.9-.2-3.5-.8-1.4-1-2.1-2-7.9-.9-4.6-2.2-7.4-2.2-4.6 0 1-.2 1.1-.8.2-.9-1.4-8.8 4.2-9.7 6.8-.3.9-2.9 2.7-5.7 4-2.9 1.3-7.1 3.8-9.3 5.5-2.9 2.2-7.1 3.8-14.7 5.7-11 2.8-15.7 3.4-12.8 1.8.8-.4 4.4-1.4 7.8-2 7.9-1.5 21.7-7.9 25.7-11.9 1.7-1.6 4.4-3.8 6.1-4.8 1.7-1.1 5-3.6 7.4-5.6 3.6-3.1 4-3.9 2.6-4.4s-1.5-.9-.5-1.5c1.6-1 1.6-1-4.5-3.4-5.5-2.2-6.4-3.5-4.1-5.9 1.4-1.4 1.4-1.9-.6-5.8-1.2-2.4-2.5-4.5-2.9-4.8-.5-.3-1.6-2.4-2.5-4.7-1.2-3-2.5-4.5-4.6-5.2-2.8-1-3-1.3-2.3-4.8.9-4.6 1-4-1.6-13.8-1.4-5-2.9-8.4-4.1-9.3-1.6-1.1-2-2.4-1.8-5.6.2-2.3-.1-4.8-.5-5.5s-.5-1.5-.2-1.8.1-1.4-.5-2.5c-.6-1-.7-2.8-.4-3.9.7-2 .7-2 2.3.3.9 1.2 1.6 2.6 1.4 3.1-.1.4 4 5.6 9.2 11.6 11 12.8 12.5 14.9 13.6 19.5.6 2.6.3 4.1-1.1 6.2-1.2 1.9-1.5 3.3-.9 4.5 1.6 2.9 23.8 2.4 39-.8 2.8-.7 3.5-1.3 3.6-3.3.7-11.1 1.7-21.6 2.3-22.2.3-.4 1.3-.3 2.1.2 1.3.8 1.3 1.1.1 1.9-.7.5-1 1.4-.6 2 1.1 1.9 3.2-.5 4.1-4.7.4-2 .6-4.1.5-4.5-.1-.5.4-.7 1.1-.4.7.2 1.1 1.1.9 1.8-.2.8-.4 3.4-.5 5.9-.3 4.4-.3 4.5-3.7 4.5s-3.4.1-3.1 3.9c.2 2.2.8 4.9 1.2 6 .6 1.8.9 1.5 1.5-1.9 1.1-6.8 1.9-7.2 2.5-1.5.3 3.3 1 5.5 1.8 5.6.6.1 1.9.2 2.7.3 2.1.2 1.9 2.1-.2 2.2-1.5 0-1.5.2.2.8 1.1.5 2.8.5 3.7 0 2.9-1.5 5.8-1.1 5.1.7-.5 1.4-.1 1.5 2.5 1 1.8-.3 4.6-.9 6.3-1.2 2.1-.4 2.9-1 2.5-2-.6-1.7 3.3-2.9 6.3-1.9 2.3.7 6.4-1.1 5.6-2.6-.4-.5-.2-.9.4-.9.5 0 1.2.6 1.4 1.2.3.7.6.2.6-1.1.1-1.6-.3-2.1-1.3-1.8-2.4.9-2.9-2.4-.6-4 1.2-.9 2-2.5 2-4.2 0-2.7-.3-3-7.1-4.5-3.9-.9-8.2-1.6-9.5-1.6-1.5 0-2.4-.6-2.4-1.5 0-.8-.9-1.5-2.1-1.5-1.1 0-1.7.4-1.4 1 .3.5-.1 1-1 1-1.2 0-1.5-.5-1.1-1.6s.1-1.4-1.1-1.2c-2 .4-3 3.9-3.2 11 0 2.7-.5 4.8-1 4.8s-.7-3.2-.6-7.1l.3-7.1-2.5.7c-1.8.4-2.4.2-2.1-.7.3-.7 1.5-1.5 2.9-1.8l2.4-.6-2.5-.7c-1.4-.3-6.4-1.2-11.2-1.8-4.8-.7-8.5-1.6-8.3-1.9.2-.4 1.8-.5 3.5-.2 1.6.2 3.7-.1 4.5-.8 1.2-1 1.5-.9 1.5.4 0 1.2.7 1.6 2.2 1.4 1.9-.3 2.3-1 2.6-5.1.3-4.4.2-4.7-2.1-4.7-2.6 0-4.1-2.1-2.8-3.6 1.1-1.3 3-9.2 2.3-9.9-.3-.3-1.8-.5-3.3-.5-2.7 0-10.9-3.6-10.9-4.7 0-.3 1.3-.3 2.9 0 2.7.6 3.1.2 5-3.6 1.1-2.3 2.5-6.5 3.2-9.2.7-2.8 2.1-7 3.1-9.5l1.9-4.5-2.8-2.3-2.8-2.2 3.5.2 3.5.3 6-11.8c3.3-6.5 6.5-12.1 7.1-12.5s1.6-1.6 2.2-2.7c1.8-3.1 1.5.4-.3 3.9-.8 1.5-1.2 3.2-.9 3.7s0 .9-.5.9c-3.2 0-.1 2.6 7.5 6.2 7 3.3 8.8 3.8 9.5 2.7.5-.8 1.7-2.6 2.6-4.2 2.1-3.2 4.3-3.5 6.9-.6 1.9 2.1 1.9 2.1-.5 1.8-2-.3-2.6.2-3.7 3.3-1 3.1-1 3.9.2 4.9.7.6 2.3.9 3.4.6 1.3-.3 2.4.1 3 1.3.5 1 2.3 2.3 4 2.8 1.6.6 3 1.4 3 1.7s-1.1 2.3-2.5 4.3-2.5 4-2.5 4.5c0 1.3 6-5.5 7.7-8.8.8-1.7 2.3-3.8 3.1-4.8 1.3-1.4 1.4-2.2.5-3.6-.6-1-.8-2.3-.3-3 .5-.9 1-1 1.4-.2 1 1.5 2.6 1.4 2.6-.3 0-.7-1-1.7-2.2-2.1-2-.7-1.7-.9 1.7-1.4l4-.6-2.2-2c-2.5-2.1-3.2-4.5-.8-2.5 2.1 1.7 4.9.4 4.2-1.9-.3-1.4-.1-1.8.9-1.4.8.3 1.7-.3 2.1-1.3.9-2.5 2.4-3.5 4.4-2.9.9.3 2.2-.1 2.8-.9 1-1.2.8-1.7-.8-2.5-1.1-.6-2.7-1.1-3.5-1.1-.9 0-1.6-.7-1.6-1.5 0-1.6 1.6-2.1 2.2-.6.2.5 1.7 1.1 3.3 1.3 2.6.3 3 0 3.3-2.5.4-2.9 1.1-3.4 2.9-1.6.9.9 3.2-.6 9.2-5.7 4.4-3.7 7.7-7.2 7.4-7.7s.1-1.3.8-1.8c.8-.4 1.6-.3 2 .3.5.7 1.8.3 3.8-1.2 2.6-1.7 2.9-2.5 2-3.6-.7-.9-.8-1.4-.1-1.4.6 0 1.2.4 1.4 1s2.2.1 4.6-1.1c4-2 4.2-2.3 2.6-4-.9-1-1.4-2.4-1.2-3.1.3-.8 1.2-.1 2.4 1.7 1 1.7 2.3 3.3 2.8 3.7 1.2.8 1.3.8-4.1 3.3l-4.2 2 3.9 6.2c2.2 3.4 4 6.9 4 7.7 0 .9 1.2 1.8 2.8 2.1 1.5.3 3.9 1 5.4 1.4 3.9 1.3 4.2.1 1.3-5.5-2.5-4.8-2.1-4.5 2.8 2 1.4 1.9 1.6 1.8 5.3-1.7 2.2-2.1 5.9-4.7 8.4-5.9s4.6-2.3 4.8-2.4-.4-1.6-1.2-3.3c-1.7-3.2-2.2-10.2-.7-8.5.5.5 2.1 3.2 3.5 6l2.6 5.2 6.2-2c11.1-3.6 11.1-3.6 10.5-6.6-.4-2.3-.4-2.5.8-.9 2 2.8 3.8 2.2 2.9-1.1-.4-1.5-.8-3.9-.8-5.5-.1-1.7-.6-2.7-1.6-2.7-1.6 0-14.4 3.4-17.2 4.5-1.4.6-1.8.2-1.8-1.4 0-1.2-.7-2.4-1.5-2.7-.8-.4-1.5-1.5-1.5-2.5 0-2.1-2-2.5-3.7-.8-.6.6-1.9.9-2.9.7-1.5-.4-1.1-.9 1.9-2.3 3.1-1.6 3.7-2.3 3.3-4.2-1.7-6.8-1.6-7.7.3-3.6 1.1 2.4 2.7 4.3 3.6 4.3 1.8 0 2 1.1.4 2.7-2.2 2.2.9 2 9-.7 4.6-1.5 9-3.5 9.6-4.4 1.2-1.5 1.3-1.5 1.9 0 .3.8.6 2.5.6 3.6 0 1.7.4 1.9 2.8 1.3 1.5-.4 3.5-.9 4.6-1 1-.1 2.4-.9 3.2-1.9.7-1 2.2-1.6 3.6-1.4 2 .3 2.3-.2 2.6-3.6.5-6.5-2.9-18.6-5.3-18.6-.7 0-1.9-.9-2.6-2.1l-1.4-2-2.3 2.1c-1.4 1.3-3.1 2-4.2 1.7s-2.4.1-3.1.9c-.6.8-2.4 1.4-4 1.4-1.5 0-3 .4-3.4 1-1 1.7-3.5-.2-3.5-2.7 0-1.7.5-2.3 1.8-2.1s1.8-.5 2-3.5c.4-4.8 1.6-4.7 3.1.3 1.2 4.1 3.1 6.3 3.1 3.6 0-.9.7-1.6 1.5-1.6 2 0 3-2.6 1.7-4.3-1.4-1.8-2.4-9.7-1.2-9.7.5 0 1.1.6 1.2 1.2 0 .7.2 1.7.3 2.3.2.5.3 1.6.4 2.4.1 1.1.4 1.1 1.6.1.8-.7 2.2-1 3-.6 1 .4 1.7-.3 2.1-2.2.3-1.5 1-3.7 1.5-5s.9-4.9.9-8c.1-11 4-24 8-26.7.8-.5 4.4-2.2 7.8-3.7 7.1-3.1 13.3-3.6 21-1.6 8.4 2.1 11.6 4.7 16.3 13.3 1.4 2.6 2.2 3 6.8 3.3 2.8.2 5.1.7 5.1 1.2s-2.3.8-5.1.6l-5.1-.3.6 3c.3 1.6.6 4.6.6 6.6v3.7l9.3 1.2c5 .7 10.1 1.3 11.2 1.5 1.1.1 2.3.6 2.6 1s1.8.9 3.3 1.1c1.4.1 2.6.7 2.6 1.2 0 1-.5 1-4 .1-10-2.5-21-4.5-22.8-4-1.6.4-2.1 1.2-1.9 3.4.1 1.6.7 2.9 1.3 2.9 1.7 0 2.4 2.5 2.4 8.6 0 5.3.1 5.4 2.8 5.4 1.5 0 4.2.2 6 .6 2 .4 3.8.2 4.7-.6 1.2-1 1.5-.9 1.5.4 0 .9.8 1.6 1.9 1.6 1 0 3.2.7 4.7 1.5 1.6.8 3.7 1.5 4.6 1.5 1 0 4.1.9 7 2.1 2.9 1.1 6 2.2 6.8 2.4s2.7.8 4.2 1.4 3.4.8 4.2.5c.7-.3 1.6.2 1.9 1 .4.9 1.4 1.6 2.4 1.6s2.9.9 4.3 2 3.3 2 4.2 2c1.8 0 5.5 4.6 4.6 5.6-.3.3-2.2-.4-4.2-1.6-2-1.1-4.4-2-5.4-2-.9 0-2.6-.7-3.6-1.5-2.5-1.9-4.6-1.9-4.6-.1 0 .8 1.1 1.7 2.5 2 1.5.4 2.3 1.1 1.9 1.7-.3.6-1.7.8-2.9.5-1.3-.3-2.7-.1-3.1.5-.8 1.4 3.1 4.6 6.6 5.5 1.4.4 3.8 1.6 5.4 2.7 3.7 2.6 5.4 1.6 7.5-4.3.9-2.5 2.4-5.2 3.4-6.2 2.4-2.5 2.1-3.7-1-4.9-6.2-2.2-23.7-11.5-24.1-12.8-.4-1.1.2-1.2 2.4-.6 1.6.4 3.4.8 3.9.9.6.1 5.9 2.6 11.9 5.4 6 2.9 11 5.1 11.2 4.9 1.2-1.2 5.4-8 5.4-8.7 0-.6.5-1 1.1-1 .5 0-.3 2.4-2 5.4-2.1 3.9-2.6 5.7-1.8 6.5.6.6 1.6 1.1 2.1 1.1 1.1 0 11.6-17.8 11.6-19.5 0-.4-.8-1.4-1.7-2.2-1.7-1.2-1.6-1.3.8-1.1 1.4.2 3.4-.4 4.3-1.1 1.6-1.3 1.7-1.2 1.1 1-.5 2.1-.1 2.7 3.2 4.3 2.1 1 7.2 4.2 11.3 7 4.1 2.9 8.1 5.5 8.7 5.7 2 .6 16.1 12.8 22.9 19.6 3.4 3.5 6.5 6.3 7 6.3.5-.1 2.5-2.5 4.4-5.5 3.4-5.3 5.5-6.5 5.5-3.3 0 1.8-2.7 5.6-7.2 10.4-3 3.2-5.5 4.4-5.2 2.6.4-2.3-.4-4.2-2.8-6.6-2.1-2.1-3.4-2.6-5.4-2.2-2.3.4-2.5.2-2.2-1.7.3-1.7-.7-3.3-3.9-6.2-7.3-6.8-20-16-26.8-19.6-3.6-1.9-6.7-3.7-7-4s-1.5-1.1-2.7-1.7c-2-1.1-2.4-.7-5.9 5.6-2 3.7-4.8 8.2-6.2 10.1-1.9 2.5-2.2 3.6-1.3 3.9 3 1 21.3 14.1 30.1 21.6 11.3 9.6 19.1 17.5 26.1 26.4 1.2 1.5-.9 7.2-2.7 7.2s-4.1 6.3-3.4 9.5c.4 2.4.7 2.6 1.2 1.2 1.3-3 4.6-2 6.2 1.8 1 2.4 2.2 3.5 3.5 3.5 2.1 0 2.7 2.2 1.5 5.4-.8 2.1-5 .2-8.4-3.7-2.2-2.4-3.2-2.8-6.5-2.5-2.3.2-4 .9-3.9 1.6s.2 1.9.3 2.8c0 1 .7 1.4 1.6 1 2-.7 5.7 3 5.3 5.2-.2.9-1.4 1.9-2.8 2-1.4.2-2.9.8-3.5 1.4-.7.6-.5.8.5.6 1.1-.2 1.5.6 1.5 2.8 0 3 .1 3 3.7 2.4 2-.4 4.3-.3 5 .1.7.5 2.2.9 3.3.9 1.9 0 2.9-1.3 5.7-7.2.6-1.5 2.3-3.3 3.7-4 1.5-.7 3.7-2.3 5.1-3.6 1.4-1.2 2.8-2.2 3.2-2.2.5 0 .8-.4.8-1 0-1.2 6-7 7.3-7 .5 0 .7 1.2.4 2.6-.3 1.5 0 2.8.8 3.1 1.4.5 37.9-17 39-18.7.8-1.3 4.5-1.3 4.5-.1 0 .5-1 1.3-2.2 1.6-3.3 1-23.3 11.1-29.9 15.1-3.1 1.9-6.1 3.4-6.7 3.4-2 0-2.1 1.6-.7 6.8.7 2.9 1.2 5.2 1 5.2-.1 0-1.5-1.8-3-4s-3.3-4-3.9-4c-2.2 0-10.7 6.6-11.2 8.7-.6 2.1 1.7 7.2 4.4 10.1.6.7 1.2 2.4 1.2 3.7 0 1.2.7 2.5 1.5 2.9.8.3 1.5 1.4 1.5 2.4 0 3.1 3.1 11.2 4.3 11.2 3.4-.1 5.7-1.4 5.7-3.3 0-1.8.2-1.9 1.8-.5 1.4 1.3 3 1.4 8.7.6 3.9-.5 7.7-.8 8.5-.8h5c3.3 0 3.4.1 1.6 1.5-1.1.8-2.8 1.5-3.7 1.5-1 0-2 .4-2.3.9-.9 1.3-6.6 2.2-8.4 1.2-1.1-.6-.4-1.1 2.9-1.7 2.4-.4 4.7-.7 5.2-.6.4.1.7-.3.7-.9s-.8-.8-1.7-.5c-1 .2-4.4.7-7.5 1.1-3.2.3-6 1.1-6.4 1.6-.7 1.3 1.3 15.5 3.3 22.4.8 2.7 1.6 6.8 1.9 9 .7 4.8 2.1 6.4 5.7 6.7 3 .3 3.4 1 1.3 2.8-.8.6-1.2 1.9-.9 2.8.6 1.5.4 1.5-1.5-.1-2.7-2.5-4-1.5-3.7 2.5.2 1.8.3 4.8.4 6.5.1 3.2.2 3.3 4.5 3.3 2.5 0 4.8.5 5.1 1.1 1.2 1.8-.2 2.1-3.9.8-3-1.1-3.8-1.1-4.8 0-1.1 1.1-1 1.4 0 1.8.7.3 1.8 1.7 2.3 3.2 1 2.6 1.1 2.6 2.5.6l1.5-2 1.5 2c1 1.3 3.6 2.4 7.5 3.1 7.3 1.3 8.9.3 8.9-5.8 0-5.2 4.9-12.7 11.5-17.8 2.6-1.9 6.6-5.2 9.1-7.2 10.7-8.9 17.5-11.8 27.9-11.8 8.3 0 10.7-2.5 9.9-10-1.1-10.9-.6-16.1 2-19.4 1.4-1.8 3.8-3.9 5.5-4.6 3.8-1.5 11.4-.6 13.3 1.7 1.4 1.7 1.6 1.7-6.7-.3-3.2-.8-6.6.1-9.3 2.4-3 2.6-2.8 3.9.8 4.4 3.1.5 5.1-.6 2.8-1.5-2.7-.9.2-1.8 7.4-2.3 7.3-.6 7.6-.5 9.7 2.1 1.8 2.4 2.1 4.1 2.1 11.4-.1 5.6-.6 9.5-1.5 11.1-.8 1.4-1.4 4.8-1.5 7.7 0 4.1-.3 5.1-1.4 4.7-2.2-.8-5.6 3.6-5.6 7.2 0 1.7-.8 4.9-1.7 7-.9 2.2-1.5 5.1-1.4 6.6.1 1.7-.6 3.5-2 4.9-2.8 2.8-3.8 7.5-3.9 17.6 0 8.1-.9 10.4-3.3 8.5-.7-.5-2.4-1.2-4-1.6-2.1-.5-3.2-.1-5 1.8-1.2 1.3-3.5 3.9-5.2 5.7-4.6 4.9-6.5 8.1-6.5 10.9 0 1.4-.9 3.4-2.1 4.3-1.7 1.5-2 2.7-1.7 7 .2 2.9.6 5.9.9 6.7.2.8-.1 1.4-.8 1.3-.6-.1-1.6.4-2.2 1.1-1.3 1.6-1.8 9.4-.7 11.8.6 1.2.2 1.7-1.6 2-2 .3-2.4 1-2.8 6-.7 8.3-5.2 13.1-6.4 6.8-.3-1.7-.9-4.3-1.2-6-.3-1.6-1-3.3-1.6-3.6-.8-.5-.9.1-.5 1.7.4 1.3 1.5 7.2 2.4 13.1 1.3 8.3 2.1 10.8 3.3 10.8 1.7 0 5.4 10.6 4.8 13.7-.3 1.2.6 2.4 2.7 3.5 2 1.2 2.4 1.7 1.3 1.8-3.8 0-1.4 3.7 2.7 4.2 5.7.6 2.5 2.3-4.1 2.1l-6.5-.2-.7 3.2-.7 3.2-.5-4c-.4-3.1-1-4.1-2.6-4.3-1.7-.2-2.5.7-4.2 5-1.2 2.9-2.4 7.3-2.8 9.8-1.3 9.9-4.5 13.1-8.9 9-5.3-5-5.4-7.5-1-28.8 1.5-7.4 4.7-12 7-10.3 1.8 1.3 8 1.1 9.9-.4 1.4-1.1 1.7-2.1 1.1-4.2-.4-1.5-.9-4.8-1.2-7.3s-.8-5-1.2-5.5c-1-1.4-3.8-10.6-6.2-20.8-1.3-5.5-2-12-2-17.2 0-4.6-.4-8.7-.9-9-.9-.5-1.4.7-1.2 2.6.1.4-.8 1.5-1.8 2.4-1.9 1.7-2 1.7-2.7-.1-.5-1.1-2.1-3.8-3.7-6.2-2.6-3.8-2.9-5.3-3.5-15l-.6-10.7-11.9-.2c-6.6-.1-12.5.2-13.1.7s-1.6.5-2.5 0c-1.9-1.2-9-1.3-9-.1 0 .5.7 1.1 1.5 1.5 2.3.9 1.8 2.6-.7 2.3-2.8-.2-4.1-1.9-2.5-2.9.6-.4.8-1 .4-1.4-.3-.4-1.3-.2-2 .4s-2.7 1.2-4.4 1.4c-1.8.1-2.9.6-2.6 1.1s-.2 2.8-1.2 5.2c-2.5 6.6-1.8 9.7 2.5 10.8 2.7.7 3.6.5 4.6-.8.7-.9 1.5-1.2 1.8-.6.3.5 0 1.1-.6 1.4-.7.2-1 .7-.7 1.1.7.7 8.7 2.5 15.2 3.3 2.6.3 5 1 5.3 1.4.5.9-1.2 1.2-8.5 1.3-4.7.1-6.9 2.3-3.3 3.3 1.1.3 2.3 1.2 2.7 2 .9 2.6-.6 2.9-2.5.5-2.3-2.7-3.3-2.8-2.5-.2.6 2-.9 2.8-2 1-.9-1.5-2.5-1.2-3.1.5-.4.9.3 2.3 1.7 3.3 1.4 1.2 2 2.5 1.6 3.5-.9 2.3-4.3 2.1-6.9-.2-1.1-1.1-2.7-1.7-3.5-1.4s-2.4-.5-3.5-1.7l-2.2-2.3-1 2.3c-.9 1.9-.6 2.6 1.7 4.4 2.6 2.1 3.7 5.6 1.7 5.6-.5 0-1.2 1.1-1.6 2.5-.6 2.3-.8 2.4-2.7 1-3.3-2.3-5.3-1.8-7.6 2l-2 3.5 2.9 1.5c1.6.8 3.8 1.5 4.9 1.5s2.2.4 2.5.9c.7 1 4.6.3 4.6-.8 0-.4 1-.7 2.3-.8 2-.2 2.1-.1.5 1.1-1 .7-1.8 1.7-1.8 2.3 0 1.1 12.7 5.6 13.9 4.9.5-.3 1.4.1 2.1.9s1.8 1.5 2.4 1.5c.7 0 2.1.7 3.2 1.5 1.7 1.3 1.5 1.4-3 .8-3.5-.4-4.7-.3-4.2.5 1 1.6-1.1 5.2-3 5.2-1.1 0-1.3-.4-.5-1.8.7-1.3.5-2-1.2-2.9-2.1-1.2-2.1-1.2.7-1.3 3.9 0 2.4-1.3-3.8-3.4-5.8-1.9-5.6-1.9-5.6-.6 0 .5.6 1 1.4 1 .7 0 2 .8 2.7 1.7 1.2 1.5 1.2 1.6-.4 1-5.5-2.1-6.1-1.8-10 3.5-3.5 4.9-3.6 5.4-2 6.5 2.4 1.8 5 1.6 6.2-.4.6-1 1.1-1.4 1.1-.8.1.5.6.1 1.1-1 .8-1.7.8-1.6.4.7-.8 4.1 2.3 6.6 17.5 14.5 15.1 7.9 22.2 12 25.4 14.6 2.1 1.7 2.1 1.7-.8.7-1.6-.6-9-4.2-16.6-8-20.3-10.2-29-13.5-29-11.1 0 1.3-12.1 21.6-15.9 26.6l-3 3.9 4.3 4.1c2.3 2.2 5.1 4.5 6.2 5.1 1 .7 1.5 1.6 1.1 2-.5.5-1.4.2-2-.6-2.6-3.4-10-8-8.3-5.1.6.9-4.8 9.6-6.7 10.8-.6.3-1.3.1-1.5-.5-.2-.7-.9-1.2-1.5-1.2-.8 0-.7.4.1 1.2 1.8 1.8 1.5 3.6-.7 4.3-1 .3-3.6 2.2-5.6 4.1-2.1 1.9-3.5 2.8-3.2 2q.6-1.5-.9-.9c-.8.3-1.3 1.2-1 2 .3.7-.1 1.6-.9 1.9-.7.3-1.1 1.2-.8 2 .6 1.6-1.2 1.9-2.2.4-.3-.5-1.1-1-1.6-1-.6 0-.7.4-.4 1 .3.5 0 1-.9 1-.8 0-1.6.3-1.8.7-.1.5-2.3 2.1-4.7 3.8-2.3 1.6-4.7 4-5.2 5.2-.5 1.3-1.4 2.2-2.1 2.1-.6-.2-1.3.6-1.5 1.7-.7 3.5-2.6 6.6-3.9 6.1-2.4-.9-8.4 1.6-8.4 3.6 0 1.2-.7 1.8-2.4 1.8-1.3 0-3.5.9-4.9 2s-3.2 2-4.1 2-1.6.4-1.6 1c0 .5-.9 1-2 1s-2 .4-2 1c0 .5-.7 1-1.5 1-.9 0-1.2-.6-.9-1.5.4-1 .2-1.3-.8-1-1 .4-1.3 1.6-1 3.6.3 2.2.1 2.8-1 2.4-.8-.3-2.6.6-4 2-1.8 1.8-2.9 2.2-3.3 1.4-.4-.6-1-.7-1.4-.2-.3.5-2.5 1.5-4.8 2.1-4.8 1.4-5.1 2.3-2.9 9.5.8 2.6 1 4.4.5 4.1s-.9-.9-.9-1.5c0-1.8-4.2-9.9-5.2-9.9-.6 0-.8.6-.5 1.3.3.9-.2 1.3-1.6 1.2-2.4-.2-3.7-2.5-1.4-2.5.8 0 2.1-.7 2.8-1.7 1.3-1.5 1.1-1.6-1.3-1-4.8 1.2-7.8 2.6-7.8 3.6 0 .5.9.8 2 .6 3-.6 2.4.8-1 2.3-3.3 1.5-3.5 2.4-2.1 9.8.5 2.7 1.7 11.4 2.6 19.2 1.7 15.3 1.6 17.7-2.1 48.2-2.4 19.4-2.2 37.9.5 51.2 2.4 11.9 3.9 16.1 5.4 15.1.6-.4.8 0 .4 1-.6 1.6 19.6 1.7 285.8 1.7H1280V490l-3.8-1.8c-2-.9-4.1-2.2-4.7-2.8-.5-.7-2.8-2-5-3s-5.8-3-8-4.4c-2.2-1.5-7.6-5-12-7.9-4.4-2.8-13.2-7.7-19.5-10.7-24.4-11.8-27.3-13.5-25.8-14.9.5-.5 18.5 8.4 27.3 13.6 2.8 1.6 6.4 3.6 8 4.4 1.7.8 5.7 3.3 9 5.4 12.3 8 27.9 17.1 29.2 17.1.7 0 1.3.4 1.3.9s.9 1.1 2 1.4c2 .5 2 0 2-32.7 0-25.2-.3-33.5-1.2-34.5-1-1.1-1-1.3 0-.7.9.6 1.2-6.6 1.2-34.3v-35l-5.7-1c-13-2.5-14.4-3-6.8-2.6 3.9.2 8.2.7 9.8 1l2.7.7V245l-4.2-.1c-2.4-.1-3.4-.3-2.3-.6 7-1.4 6.5-.9 6.5-7.2v-5.9l-6.2.4c-3.5.2-8.9.6-12 .9-3.5.3-5.8.1-5.8-.5s-1-1-2.2-1c-1.6 0-1.9-.3-1.1-1.1s5.2-1 14.2-.7l13.1.5V0h-15.1c-13.8 0-15 .1-14.7 1.7.3 1.4 1.4 1.8 5.3 1.9 6.6.1 7.3.3 5.5 1.4-1.3.9-1.3 1.1 0 2 .8.5 2.3.7 3.3.4 1.3-.4 1.7 0 1.7 1.9 0 4.1 3.9 11.7 6 11.7 4.1 0 6.4 5.3 3.8 8.7-2.9 3.6-11.7 12.3-12.4 12.3-.5 0-1.5 1.3-2.2 2.9-1.7 3.8-8 10.3-12.3 12.7-1.9 1.1-3.6 2.2-3.9 2.6s-2.9 1-5.8 1.4c-4.4.6-5.2.4-5.2-.9 0-.9 1.2-2.3 2.8-3.1 1.5-.8 3.5-2.3 4.5-3.4 1.1-1.2 2.7-1.8 4.5-1.5l2.7.3-2.5-1c-2.7-1.2-9-.5-9 1s-5.6 1.2-9.7-.5c-1.9-.8-6.4-1.5-10-1.5-4.4 0-7.6-.6-10.3-2-2.2-1.1-4.8-2-5.9-2-2.2 0-8.7-2.3-13.8-4.8l-3.1-1.6 3.9-4.4c2.1-2.5 3.9-5.3 3.9-6.2s1.3-3.5 2.9-5.7 3.2-5 3.6-6.4c.4-1.3 1.5-3.3 2.5-4.4s2.5-3.7 3.4-5.8c1-2.5 2.1-3.7 3.4-3.7 1.7 0 3.2-1.8 3.2-3.6 0-.2-239.6-.4-532.5-.4C155.4 0 146 0 146 1.9c0 2.7 9.2 9.1 13 9.1 1.7 0 3 .5 3 1.1s-.7.9-1.4.6c-1.9-.7-1.1 1.9 1.4 4.8 4.1 4.7 7.2 11.1 7.6 15.4.3 2.5.6 5.7.7 7.1.2 2-.6 2.9-4.3 4.7-2.5 1.3-5.3 2.3-6.3 2.3-2.5 0-5.7 1.8-5.7 3.3 0 .7 2.2 2.5 5 4 10.8 6 3.9 4.2-8.5-2.2-4.1-2.2-11.5-2.6-23.2-1.4-6.2.6-7.2 3-2.3 5.1 3.7 1.7 3.9 3.2.5 3.2-2.2 0-6-1.7-12.5-5.5-1.7-1.1-9.4-8-11.4-10.3-.6-.8-3.1-3.3-5.5-5.6-4-4-4.3-4.6-4.8-10.8-.5-6.3-.4-6.8 2.1-9.2 1.5-1.3 3.4-2.2 4.2-1.9s1.4-.1 1.4-.8c0-.8.7-2.3 1.5-3.3 1.3-1.7 2.6-2 10.4-1.7l8.8.2.6-3.3c.3-1.8.8-4.1 1.2-5.1.7-1.6-2.6-1.7-60.4-1.7H0zm1127-30.3c-6.9 3.8-19.1 9.5-20.5 9.5-.7 0-3.4.9-5.9 2.1-4.1 1.8-5.5 1.9-10.9 1.1-6.5-1-12-.9-15.9.4-1.3.4-3 .8-3.8 1-3.4.4-11.4 2.5-13 3.4-1.5.8-1.7.6-1.3-.8.7-2.7 14.2-6.6 23.4-6.6 4.3-.1 7.5-.4 7.3-.8-.2-.3 1.4-.4 3.6-.1 6.3.9 25.7-5 35-10.7.8-.5 2.6-.9 4-.9 2.1-.1 1.7.3-2 2.4m-131 6.4c0 .5 1.6.5 3.8 0 2-.5 6.4-.9 9.8-.9 4.8 0 6.5.4 7.9 2 1.4 1.5 3.1 2 7.2 2 5.1 0 5.4.2 5.1 2.2-.5 3.4-8.8 5-15.8 3-1.9-.6-2.7-1-1.7-1.1.9-.1 1.7-.9 1.7-1.9 0-1.6-.8-1.8-6.2-1.5-3.5.2-10.6 1.5-15.8 2.9-16.7 4.4-16 4.3-16 3 0-1.4 5-4 9.7-5 1.7-.4 3.7-1.4 4.4-2.2 1-1.2 1.4-1.2 2-.2.6.9.9.6.9-1 0-1.3.6-2.2 1.5-2.2.8 0 1.5.4 1.5.9m-43 11.5c0 .3-5.2 2.1-11.6 4.2-11.8 3.7-19.9 7.5-18.7 8.7.3.4-.1.7-.9.7-.9 0-1.8.3-2 .7-.3.7-3.2 2.3-14.3 7.6-1.4.7-1.2.3.7-1.6 1.5-1.4 3.7-2.8 4.9-3.2 1.4-.5 1.8-1 1.1-1.7-.6-.6-3.9.4-9.5 3.1-8.9 4.3-13.2 5.4-8.4 2.3 1.5-1 2.5-2.1 2.2-2.4-.8-.8 3.3-3.1 8-4.6 2.2-.8 4.9-1.7 6-2.1 2.2-.9 21.2-6.9 31.5-10 6.2-1.9 11-2.6 11-1.7m-659 3.2c.8.7 5.1 1.6 9.5 1.9 16.6 1.4 30.1 6.8 41.8 16.8 5.7 4.9 7.4 8.7 3.9 8.7-2.1 0-9.2-4.7-9.2-6 0-.5-2.2-2.7-5-4.9-4.6-3.6-18.6-9.1-23.2-9.1-.9 0-2-.5-2.3-1-.3-.6-1.9-1-3.4-1-1.6 0-4.5-.7-6.5-1.5s-3.6-1.2-3.6-.9c0 .4-.6.2-1.2-.4-.7-.5-2.8-1.3-4.5-1.7-1.8-.3-3.6-1.1-3.9-1.7-.9-1.4 5.7-.7 7.6.8m744.2 3.1c1.8 1 3.5 1.9 3.7 2s.1 1.3-.3 2.7c-.4 1.8-1.1 2.3-2.6 1.9-1.1-.3-3.3 0-5 .7-2.5 1-3.5.9-7.3-.9-2.4-1.2-5.2-2.1-6.4-2.1-3.9 0-11.7 2.9-16 6-2.4 1.7-4.3 2.8-4.3 2.5 0-3.7 9.4-9.6 19.7-12.4 8.8-2.4 14.3-2.5 18.5-.4m62.6 7.1c.3 6.3.3 6.3 3 5.8 1.5-.3 4.7-.8 7.2-1.1l4.5-.7-3 2.9c-1.7 1.5-4.3 3.6-5.8 4.6-1.5.9-2.7 2.4-2.7 3.2 0 1.2-2.1 1.5-12 1.5-6.6 0-12-.2-12-.4s1.8-1.3 4-2.5c2.2-1.1 4-1.8 4-1.6 0 .3 1.4-.8 3-2.4 2.8-2.6 3-3.2 2.2-6.8-1.2-5.5 1.2-9.6 5.3-9.1 1.7.3 2 1.2 2.3 6.6m-207.6 4.9c-1.2.2-2 .9-1.7 1.4.4.5-.3.9-1.4.9-1 0-2.7.3-3.6.6-1.3.6-1.4.9-.3 1.6q1.35.9-.9.3c-1.7-.4-2.5.1-3.9 2.5-1.3 2-3.1 3.4-5.6 4.1-2.1.5-4.9 2.1-6.2 3.4-1.4 1.4-2.8 2.5-3.2 2.5s-1.6 1-2.8 2.2c-1.2 1.3-3.9 3.6-5.9 5.3-2 1.6-3.7 3.6-3.7 4.2 0 .7-.4 1.3-1 1.3-.5 0-.7.7-.3 1.6.5 1.2.2 1.5-1.3 1-1.4-.4-2.3.2-3.4 2.7-.8 1.7-2.4 3.6-3.6 4.2-1.1.6-1.9 1.5-1.7 2.1s-2.1 3.7-5.2 6.9c-3 3.3-5.5 6.2-5.5 6.6 0 .3-1.1 1.8-2.5 3.3-3.4 3.7-3.2.8.3-3.7 1.5-1.9 3.5-4.8 4.5-6.4 1.9-3.2 6-8.9 8.2-11.6.8-.9 1.5-2 1.5-2.4 0-.3 1.5-2.4 3.3-4.7s4.1-5.4 5.2-7.1c3.1-4.9 13.6-14.3 19-16.9 5.8-2.9 17.9-6.4 21.5-6.4 2.3.1 2.3.1.2.5m197.1 23.7c1 2.5-.4 5.6-2.7 5.8-3 .2-3.8.4-6.6 1.5-3.7 1.5-8.8 3-15 4.4-3 .6-8 2.4-11 4-5.1 2.6-17.6 5.6-18.7 4.5-.3-.2 1-.9 2.9-1.5 15.9-4.9 33.8-12.4 33.8-14.1 0-.6 1.3-1 2.9-1 1.5 0 3.9-.9 5.2-1.9 1.4-1 3.6-2.1 4.9-2.4 1.4-.2 2.8-.5 3.1-.6.4 0 .9.5 1.2 1.3m-514.7 7.7c1.4 2.4-9.5 9.6-11.5 7.6-.8-.8-1.1-.8-1.1 0 0 1.7 5.6 5.4 7.3 4.7 2.3-.8 3 2.7.9 4.2-1.3.9-1.8 2.1-1.5 3.9.4 1.8.1 2.5-1.1 2.5-1 0-1.6-.9-1.6-2.5 0-1.4-.7-4.1-1.5-6.1-1.2-3-1.7-3.4-3.4-2.5-1.1.6-2.9 1.1-4 1.1s-2.7 1-3.5 2.1c-.8 1.2-2.1 1.9-2.8 1.6-.8-.2-3.1.4-5.3 1.4-2.1 1-4.3 1.9-4.8 1.9s-2.6 1.3-4.6 2.9c-2 1.5-4.2 3-5 3.2-1.1.4-1.1.7.1 1.6 1.1 1 2.6.7 6.7-1.2 6-2.8 7.1-3 7.1-1.2 0 .7-2.3 2.6-5 4.2-4.6 2.7-5 3.3-4.5 6 .3 1.6.9 3.2 1.4 3.5s1.3 1.8 1.7 3.4c1.1 4.4-1.1 2.4-4.3-3.7l-2.6-5.2-1.6 3.5c-.9 1.9-2.3 4.5-3.1 5.7-1.4 2.1-1.4 2.1-2.8.2-1.3-1.9-1.5-1.8-6 1.3-2.6 1.8-6.5 4.9-8.7 6.8-2.2 2-5.7 4.7-7.7 5.9-2.1 1.2-3.8 2.9-3.8 3.7 0 .7-1.2 2.1-2.6 3-1.6 1.1-2.4 2.4-2.1 3.5.6 2-2.6 3.2-4.2 1.6-.8-.8-1.1-.6-1.1.5 0 .9.6 1.9 1.3 2.1.6.3.1.6-1.3.6-1.9.1-2.1.4-1.2 1.3.7.7 1.2 1.9 1.2 2.7 0 1.1-.6.9-2.3-.7-3-2.9-3.2-2.8-3.2 1 0 2.7-.4 3.4-2.2 3.6-2.7.4-3.2 4.2-.8 6.2 1.1.9 1.3 1.6.6 2.3s-.7 1.5.1 2.4c2.3 2.8-.1 2.3-3.1-.6-2.1-2.1-3.7-2.8-5.3-2.4-3.8.8-6.8 2.6-6.8 4 0 .7-.6 1.3-1.4 1.3-2.4 0 .4-5.8 3.1-6.5 2.2-.5 3.4-3.7 1.2-3.2-1.8.4-2.1-1.9-.4-3.6.8-.9 1.5-2 1.5-2.5s.7-1.5 1.6-2.3c1-.8 1.4-2.3 1.2-4.1-.3-1.5-.1-2.8.4-2.8.4 0 .8-.6.8-1.4s.9-1.8 2-2.1 2-1.2 2-1.9c0-1.4 21.6-22.2 32-30.8 3.6-3 8.4-6.5 10.7-7.9l4.1-2.4-2-4.4c-2.2-4.9-1.7-6.8.6-2.3 2 3.8 3 4.5 5.3 3.4 13.5-6.7 27.3-13.2 29.2-13.7 1.3-.4 4.7-1.8 7.5-3.1 5.5-2.6 9.1-3 10.2-1.3m-263.4 13.6c2.3 2.8 3 5.5 1.6 6.5-.9.5-.7.8.8.8 1.1 0 2.4.4 3 1 .5.5 2.2 1.1 3.8 1.2 1.5.1 3.2.8 3.8 1.5s1.6 1.3 2.4 1.3c.7 0 2.9 1.1 4.9 2.4l3.5 2.4-4.3-.5c-2.3-.4-4.4-1-4.7-1.4-.9-1.3-10-4.9-15.1-6-2.6-.6-6.9-1.9-9.6-2.9-4.6-1.8-4.7-1.9-1.5-2 2.9 0 3.2-.2 2.6-2.4-.4-1.8-.1-2.5 1.3-2.9 3.7-1 6-.6 7.5 1m-207.5 25.9c3.2.8 7.2 1.8 8.8 2.1 3.5.6 3.8.8 4.1 2.9.2 1.2-.5 1.3-3.4.8-2.1-.4-5.4-1.3-7.6-2-3.5-1.3-3.8-1.3-3 .4.4.9.8 2.7.8 4 .1 1.4.8 2.5 2.1 2.7 8.7 2 11.4 2.5 14.5 2.6 2.2.1 2.8.3 1.5.6-1.1.3-2.3 1-2.7 1.6-.4.7-5 .6-14.5-.3-7.6-.7-14.7-1.1-15.8-.8-3.3.8 0 1.6 9.8 2.3 14.6 1.1 11.3 2.5-10.8 4.6-9.8.9-11.4.8-14.3-.8-3.1-1.6-3.2-1.8-1.3-2.5 1.5-.5 2.1-1.6 2.1-3.7 0-2.3-.6-3.1-3-4-2.2-.7-3-1.6-3-3.3 0-5 3.7-6.8 14.3-6.9 4 0 8.1-.4 9.2-.9 3-1.3 5.8-1.2 12.2.6m200.1 5c3.7 1.4 7.8 3.1 9.2 3.8 1.4.8 4 1.7 5.8 2.1 5 1.1 4.3 4.1-2.8 10.8-3.3 3.2-6 6.1-6 6.5 0 .9 5.9 5.4 9 6.9 1.4.6 4.5 1.6 7 2.3 4.5 1.1 9.9 4.4 9 5.4-.9.8-11.9-2.7-13.8-4.4-2.4-2.3-6.8-3.3-9.1-2.1-1 .6-2.6 3.5-3.5 6.6-1.6 5-2 5.5-4.7 5.5-2.2 0-3-.6-3.5-2.6-.4-1.4-.1-3.7.5-5 2.3-5.1.6-12.4-3-12.4-.5 0-.9-.5-.9-1 0-.6 1.8-1 4-1h4.1l-.3-8.8c-.2-6.3-.6-8.6-1.5-8.5-.7.2-1.2-.2-1-.8.1-.6-1.6-1.8-3.8-2.5-2.2-.8-4.4-1.9-4.9-2.4-1.9-1.9 3.4-1 10.2 1.6M86 222.2c6.3.6 11.7 1.3 11.9 1.5.3.2-.5 1.2-1.6 2.3-1.2 1.1-2.3 1.5-2.5.9-.2-.7-1.3-.6-3.3.2l-3 1.2 4.2 1.1c2.3.6 4.8 1.7 5.5 2.3.6.7 2.3 1.3 3.6 1.3s2 .4 1.7 1c-.3.5-1.5 1-2.6 1s-1.7.4-1.4 1c.3.5-.2 1-1.3 1-1 0-2.1.3-2.5.6-.9.9 1.9 3.4 3.7 3.4 2.1 0 2.9 1.7 1.1 2.4-1.9.7-1.9 4 0 6 1.3 1.3 1.2 1.5-1.3 1.9-2.3.4-15.7.3-19.9-.2-.7 0-2.2-1-3.3-2.1s-3.7-2.9-5.7-4l-3.8-2h3.9c2.1 0 5.4-.7 7.3-1.6 3-1.5 3.4-2 2.7-4.3-.3-1.4-.7-3.2-.7-3.9 0-.6-.5-1.2-1.1-1.2s-3.4-1-6.3-2.2c-5.1-2.1-5.3-2.3-5.3-6.1v-3.9l4.3.6c2.3.4 9.4 1.2 15.7 1.8m209 21.7c.3.3 1 .6 1.5.7 3.4.2 7.2 2.8 8.2 5.4.7 1.9 1.8 3 3.1 3 2.1 0 5.8 3.1 8.3 7 1.5 2.2 2.4 2.5 9.5 2.8 9.6.4 12.7.9 11.9 2.3-.4.6-3.7.8-8.8.4-6.5-.5-8.6-.4-10.2.8-1.9 1.5-1.9 1.7-.4 4.4.9 1.5 1.9 3.9 2.2 5.3.6 2.5.5 2.5-3.6 2.2-4.5-.3-4.9-.5-14.2-4.8-3.3-1.5-6.7-2.8-7.5-2.9s-6-1.6-11.5-3.3-13.4-3.6-17.5-4.2c-4.1-.7-7.9-1.7-8.5-2.2-.7-.7-.2-.9 1.5-.5 1.4.3 7.7 1.3 14 2.2 15.5 2.1 26.2 4.8 29.5 7.3 1.6 1.3 4.2 2.2 6.2 2.2 4.1 0 3.7-1-1.5-3.5l-4-2 .2-6c.1-5.4-.2-6.3-2.9-9.3-1.6-1.7-3.5-3.2-4.2-3.2-1.3 0-6.3-4.3-6.3-5.4 0-.8 4.2.3 5 1.3m59.1 10.5c0 1.7 0 6.9-.1 11.6-.1 5.7.4 9.7 1.5 12.3 1.1 2.7 1.3 4.3.5 5.7-.6 1-1.1 3.2-1.2 4.7s-.4 3.2-.8 3.8c-1.5 2.4-1.1 7.3.7 8.4 1.7.9 1.7 1.1-.4 2.6-1.3.9-2.3 2.3-2.3 3.1s-.8 1.4-1.9 1.4c-2 0-3.1-3.4-3.1-9.4 0-1.8-.5-3.7-1.2-4.4-1.5-1.5-1.1-13.5.8-20.3.7-3 1.4-8.3 1.4-11.9 0-6.9 1.6-10.7 4.4-10.7 1.1 0 1.6 1 1.7 3.1m803.4 48.3c1.6 1.5 1.5 1.7-.7 2.9-3.4 1.8-3.8 7.8-.7 9.5l2.2 1.1-2.4 1.4c-1.3.7-3.1 1.3-4 1.4-.9 0-2.7 1.7-4 3.7-2.2 3.5-2.7 3.7-6.5 3.5-3.6-.3-4.2 0-4.7 1.9-.3 1.2 0 3.1.9 4.3 2.1 3 1.7 5.2-1.3 8.1-2.4 2.1-2.6 2.7-1.3 3.5.8.5 2.2 1 3.1 1s2.2.7 2.9 1.5c1 1.2.9 1.5-.4 1.5-.9 0-3.8 2.1-6.4 4.6l-4.7 4.7-9.4-.7c-5.2-.4-9.6-.8-9.8-1s-.4-2-.5-4.1c-.1-4.1 2.7-7.5 6.2-7.5.9 0 3.1-.7 4.7-1.5 2.8-1.4 3.1-2 3.5-7.5.4-5 .9-6.3 3.1-8 1.5-1.2 2.7-2.7 2.7-3.5 0-2.3 2.5-3.4 9.5-4.1 3.9-.4 7.2-1 7.5-1.3.3-.4 1.6-1.2 3-1.8 2.3-1 2.3-1.2.6-1.8-1.1-.5-2.1-.3-2.7.6-.6 1-.9 1-.9.1 0-.6-1.1-1.2-2.5-1.2-2.8 0-3.5-2.7-1-3.6 1.9-.8 1.9-2.3-.1-4.5-1.5-1.6-1.3-1.8 3.3-2.4 2.6-.4 5.5-1.1 6.3-1.6 2.1-1.2 2.6-1.1 4.5.8M137.9 335.8c.3.4 2 1.4 3.6 2.1 1.7.8 2.4 1.6 1.7 1.8-1.9.7-.4 2.3 2.3 2.3 1.3 0 2.7.5 3 1 .4.6 2.8 1 5.5.9 3.2-.2 5.7.3 7.4 1.4 3.3 2.2 3.3 3.3-.3 4.5-2.4.8-2.8 1.4-2.4 3.6.3 1.4.9 2.6 1.4 2.6.6 0-1.8 2.7-5.3 6-6.4 6.2-8.8 7.1-13.1 4.9-2.7-1.4-8.5-7.5-9.8-10.3-2-4.3-3.6-6.6-4.2-5.9-.4.3-.7-.1-.7-1.1 0-.9-.8-3.1-1.7-4.9s-1.8-4.9-2-6.9l-.4-3.7 4.3-.3c4.5-.3 9.8.6 10.7 2M1223.1 365c1 .6 1.9 1.7 1.9 2.5s.3 1.5.8 1.5c8.7.5 14.1 1.3 15.9 2.6 3.5 2.2 2.8 3.3-1.4 2.2-2.1-.5-6.4-1.2-9.6-1.7-3.2-.4-6.2-1.3-6.6-2-.6-.9-1.1-.9-2 .2-.6.8-2.7 1.8-4.7 2.1-1.9.4-5 2.2-6.9 4.1-3.7 3.5-13.4 7.2-19.3 7.3l-3.4.1 2.3-2c1.2-1 2.8-1.9 3.5-1.9s1.7-.6 2.1-1.3 2.2-1.9 3.9-2.6c1.8-.7 4.9-2.9 7-4.9 2.2-2 5.9-4.4 8.4-5.3 5.7-2.1 5.8-2.1 8.1-.9m-885.2 15.2-4.4 4.3 9.4.3c5.6.2 10.6-.2 12.3-.9 2.9-1.2 8.3-.5 7.4 1-.3.5-3.2 2.1-6.3 3.6-3.2 1.6-7.1 4.2-8.8 5.8-3.4 3.3-12.5 8.2-12.5 6.8 0-1.2 6.3-6.1 7.8-6.1.7 0 1.2-.4 1.2-.9s1.4-1.4 3-2c1.7-.5 3-1.7 3-2.5 0-.9.5-1.6 1-1.6.6 0 1-.5 1-1.1 0-3.1-30.3 1.6-39.5 6.1-5.1 2.4-13.8 6-14.1 5.7-.2-.2 5.2-2.9 11.9-6.1 18.1-8.7 17.9-8.6 19.4-8.6.7 0 1.3-.5 1.3-1 0-.6.6-1 1.4-1s1.7-.7 2-1.6c.4-.9.9-1.4 1.2-1.1.4.3 1.8-.5 3.2-1.8 4.5-4.2 3.7-1.7-.9 2.7M938.6 421c3.2 1.6 6.8 3 7.8 3 2.1 0 8.8 2.1 9.6 3.1.3.3 4.1 1.8 8.4 3.3 4.4 1.5 10.3 4.1 13 5.6 2.8 1.5 6.2 3.1 7.6 3.5s3.9 1.3 5.5 2c16.9 7.1 18.8 8.2 25.4 14.5 3.8 3.6 10 9.4 13.9 13 7 6.3 10.2 12 10.2 17.8 0 1 .9 2.7 2 3.7s2 2.5 2 3.4c0 1-.8.5-2-1.4-1.1-1.7-2-2.6-2-2-.1.5-1-.7-2-2.7-1.1-2.1-3.6-5-5.5-6.5s-3.5-3.1-3.5-3.5-1.1-1.8-2.5-3.2-2.5-3.1-2.5-3.9-1.8-2.7-3.9-4.1c-2.2-1.5-4.2-3.4-4.5-4.2s-1.2-1.4-2.1-1.4c-.8 0-1.5-.5-1.5-1 0-.6-.7-1-1.5-1-.9 0-1.5-.7-1.3-1.6s-1.3-2.9-3.2-4.5c-3.7-3-15.5-8.1-16.4-7.1-.7.6 9.5 5.7 10.7 5.4.5-.1.6.2.2.8-.3.5-.1 1 .6 1s1 .3.6.6c-.3.4-2.3-.4-4.4-1.6s-4.4-2.3-5.3-2.5c-.8-.2-2.6-.7-3.9-1.2-2.1-.9-2.2-1.1-.7-2.5 1.5-1.5 1.4-1.7-.6-2.4-1.2-.3-4.4-2.1-7.2-3.8-7.1-4.5-15.8-7.8-21-8-2.4-.1-5.7-1.1-7.2-2.1-4.6-3-9.3-5.3-14.8-7.1-2.8-.9-6-2.3-7.1-3-4-2.8 2.9-1.6 9.1 1.6M267 460.6c0 .8-.4 1.4-1 1.4-.5 0-1 .7-1 1.5 0 .9-.9 1.5-2.3 1.5-2.9 0-14.4 2.5-18.1 3.9-1.8.7-2.6 1.6-2.3 2.5.3.8-.3 2.4-1.4 3.7-1 1.2-1.9 2.8-1.9 3.5 0 .8-1.1 2.1-2.5 3-2 1.3-4.7 5.9-3.5 5.9.2 0-1.1 1.6-2.8 3.5-1.8 1.9-3.2 3.8-3.2 4.3s-.9.7-1.9.4c-1.5-.4-1.8 0-1.5 1.7s-.2 2.1-2.3 2.3c-1.5 0-3.5 1.1-4.4 2.2-1 1.2-2.3 2.1-3.1 2.1s-.9-.3-.3-.8c.6-.4 1.1-1.4 1.3-2.2s.8-1.7 1.3-1.8c1.2-.5 7.9-10.9 7.9-12.2 0-.6 2.5-3.6 5.6-6.7 5.3-5.2 5.6-5.8 5-9.3-.5-3.4-.3-3.8 1.8-4.4 1.4-.3 3.7-.1 5.2.4 1.5.6 3 .7 3.3.2.3-.4 2.4-1.6 4.6-2.6s5.8-2.6 8-3.6c7-3.1 9.5-3.2 9.5-.4m720.3 4c6.1 1.3 8.7 3.2 8.7 6.4 0 3.7 3.8 12 5.4 12 .7 0 2.5 1.4 4.2 3.1 2.9 3.1 2.9 3.1.4 2.4-1.4-.4-3.1-1.2-3.8-1.8s-2.4-1.2-3.7-1.3c-1.5-.2-4.6-2.5-7.5-5.5-4.3-4.4-5-5.8-5-9.1 0-2.2-.7-4.6-1.5-5.4-.8-.9-1.4-2.3-1.4-3.2.1-1.6.2-1.6.6 0 .2.9 1.9 2 3.6 2.4m-723.7 12.1c.3 1 1 2.6 1.5 3.5.7 1.4.2 2.1-2.4 3.4-3.6 1.9-6.7 5.1-6.7 6.9 0 .6-1.2 1.8-2.7 2.6-1.6.7-4.5 2.7-6.5 4.3-3.7 2.9-6.3 3.2-3.5.5.7-.8 2.2-2.8 3.2-4.4 1.1-1.7 2.5-3.4 3.2-3.8.8-.5 1.1-1.2.9-1.6-.3-.4.8-2.1 2.4-3.6 1.7-1.6 3-3.5 3-4.4 0-4 6.5-6.9 7.6-3.4m716.2 13c4.8 4.1 5.9 4.9 9.2 7 1.9 1.2 4 3.1 4.7 4.2.7 1 2.6 2.2 4.2 2.6 2.2.5 9.7 7.3 26.8 24.3 23.4 23.3 23.7 23.6 20.7 24.3-1.7.3-3.5.9-4.1 1.2-2 1.3-11.2-10.9-11.3-14.9 0-2.9-14.6-17.3-18.3-18.1-1.5-.3-4.7-2.6-7.1-5.2-7.5-7.9-19.3-19.4-23.8-23.3-2.4-2.1-4-3.8-3.7-3.8s1.5.8 2.7 1.7m91.4 4.9c1.7.9 4 1.7 5.2 1.9s6.6 1 12.1 1.9 12.4 1.6 15.3 1.6c7.7 0 16.2 2.6 16.2 5 0 1 .6 2.1 1.3 2.3.6.3-1.5.6-4.7.6-4.8.1-7.3-.6-13.2-3.4-5.6-2.6-9.2-3.6-15-4.1-4.2-.3-9.5-1.4-11.8-2.4-2.3-.9-5.6-2.1-7.4-2.5-1.8-.3-3.2-1.1-3.2-1.6 0-1.3 1.7-1.1 5.2.7m-23.2 2.1c0 .5 1.8 2.1 3.9 3.7q3.9 2.85 6.6 8.7c1.4 3.2 3 6.1 3.5 6.4.6.4 1 1.5 1 2.6s1.8 3.6 4 5.6c2.2 2.1 4 4.6 4 5.7s.8 2.8 1.7 3.8c2.2 2.4 4.3 8.5 4.3 12.3v3l-4.5-4.6c-2.4-2.6-4.6-4.5-4.8-4.2-.8.7-5.7-5.8-6.3-8.4-.4-1.4-1.6-4.2-2.8-6.3-1.1-2.1-4-7.1-6.2-11.1-2.3-4.1-4.4-9.1-4.8-11.2s-1-4.5-1.3-5.3 0-1.4.6-1.4 1.1.3 1.1.7m-813.6 12.8c-.9 1.4-2.1 2.2-2.7 1.8-.5-.3-.7-.1-.3.5.3.6.1 1.4-.4 1.7-.6.4-2.2 3-3.6 5.8-1.3 2.9-5.8 8.7-9.9 13-4.1 4.2-7.5 8.1-7.5 8.7 0 .5-4 5.4-9 10.9-4.9 5.6-9 10.7-9 11.3 0 .7-2.9 2.6-6.5 4.2-5.1 2.3-6.7 3.6-7.5 6-1.2 3.1-1.2 3.1-2.1.8-.7-1.9-.2-3.2 2.4-6.9 4.2-6.1 11-12.8 14.5-14.2 1.5-.7 3.5-2.2 4.4-3.5 2.4-3.3 7.8-13.5 7.8-14.7 0-.6 2.5-3.6 5.5-6.5 3-3 5.5-6.2 5.5-7.2.1-3.1 3.5-6.4 7.1-6.7 1.9-.2 4-.3 4.7-.4.6-.1 1.2-.8 1.2-1.6s1.5-2.4 3.3-3.5c4.1-2.5 4.1-2.5 2.1.5m-59.6 5.7c.7.7 1.2 3.7 1.2 6.8 0 4.4-.5 6.1-2 7.5-1 .9-1.8 2-1.7 2.4.3 1.1-7.9 8.1-9.6 8.1-2.6 0-3.1-3.9-.9-6.3 1.1-1.2 2.2-4.1 2.5-6.5.5-4.1.4-4.2-2.5-4.2-1.9 0-2.7-.4-2.2-1.1.3-.6 1.9-.9 3.5-.5 2.1.4 2.9.1 3.4-1.3.3-1.1 1.2-2.2 2-2.5s1.5-1.2 1.5-2.1c0-1.8 3.1-2 4.8-.3m720.9 20.2c1.3 2.1 4.6 2.7 7.4 1.2l2.7-1.4.7 5.7c.6 5 1.2 6.1 5.2 9.9 2.6 2.3 4.3 4.6 3.9 5s-4.2.7-8.5.6c-6.2 0-8.5-.5-11.9-2.4-2.3-1.3-4.2-2.7-4.2-3.2 0-1.4 1.5-.9 3.3 1.2.9 1.1 2.2 2 2.9 2s-.4-1.6-2.5-3.6c-2.3-2.2-3.6-4.2-3.3-5.2.2-1 .7-3.8 1.1-6.5.6-4.7 1.7-5.9 3.2-3.3M328.8 538c.2 2 .1 2.2-.7 1-1.4-1.9-1.4-.5 0 4.3.7 2.6.7 4.2-.1 5.5-.9 1.5-1 1.5-.8 0 .2-.9 0-1.7-.4-1.7-2.6-.3-2.8 0-1.8 1.9.6 1.1.8 2.5.5 3-.8 1.4 1.8 1.3 3.2-.1.6-.6.9-1.8.6-2.5-.3-.8 0-1.4.6-1.4s1.1.5 1.1 1.1c0 .5.5.7 1 .4.6-.3 1-.2 1 .4 0 1.9-7.5 7.1-10.2 7.1-1.5 0-3 .4-3.3 1-.3.5-2.9 1-5.6 1-5.8 0-7.3-1.9-4.1-5.3 1.1-1.2 2.8-3.8 3.9-5.7 1.7-3.3 3.3-4.1 7.5-4.1 2.2 0 3.7-2 2.9-4.1-.6-1.5-.9-1.5-4.5.3-4.5 2.2-6.1 1.7-4.5-1.4 1.8-3.3 2.9-3.7 8.4-3.5 4.5.3 5 .5 5.3 2.8m-74 50.2c3.5 1.2 6.8 3 7.3 4 1 1.9 1 1.9-14.7.3-6.3-.7-14.8 1.1-19.3 3.9-7.1 4.5-4.4 1.1 3.2-4 4.9-3.4 8.6-5.1 11.7-5.5 2.5-.3 4.7-.7 5-.8.3 0 3.3.9 6.8 2.1M543 602.1c0 1.5-3.3 6.9-4.2 6.9-.4 0-.8 1.4-.8 3 0 1.7-1.1 5.2-2.5 7.8s-2.5 5.7-2.5 7c0 1.4-1.3 3.6-3 5.2s-3 3.8-3 5.2c0 3.3-2.6 12.7-4 14.4-1.8 2.1-3.1 1.7-2.9-.9.5-5.6-1.9-7.1-5.6-3.3-2.6 2.6-2.8 1.3-.5-3.5 2.6-5.4 4-7.3 6.2-8.1.9-.4 1.9-2.2 2.3-4 1-4.4 4.3-10.8 5.6-10.8.6 0 .7-1.3.4-3.4-.4-2-.2-3.6.4-4 .7-.5 1.1.7 1.1 3.5 0 4.9 1 4.3 3.4-2.1 3.2-8.2 9.6-16.9 9.6-12.9m-99 4.4c.7.8 1.6 1.5 2.1 1.5 1.2 0 7.9 4.5 12.2 8.1 2.6 2.3 3.7 4.1 3.7 6 0 2.5-.3 2.7-3.2 2.2-1.9-.2-4.5-1.7-6.1-3.4-2.4-2.4-3.6-2.9-7.8-2.9-4.4 0-4.9-.2-4.9-2.3 0-1.3-.5-2.8-1.1-3.4-.7-.7-.8-2.4-.4-4.2.7-3.4 3.4-4.2 5.5-1.6m-86.6 10.4c.6.9-4.1 5.7-4.9 4.9-.3-.2-2.7 1.6-5.3 4.1-2.8 2.7-4.3 4.9-3.7 5.3.5.4-.3.6-1.8.4-1.6-.1-3.5-1-4.4-1.8-1.4-1.4-1.3-1.7.6-2.3 2.5-.8 2.7-2 .5-2.9-.9-.4-1.4-1.3-1-2.2s.2-1.2-.5-.8-1-.1-.7-1.2c.2-1.5 1.1-1.8 3.6-1.6 1.9.2 3.8-.3 4.8-1.2 1.7-1.7 11.9-2.3 12.8-.7M807 627.2c0 .5-.4.7-.9.3-1.2-.7-2.6 5.9-1.6 7.4.3.6 1.2 1.1 1.8 1.1 1.7 0 1.9-4 .4-5.9-1-1.1-.9-1.3.2-1 2.6.9 6.4 9.2 6.4 14.2 0 5.5-.8 6.8-2.7 4.2-1.1-1.5-1.8-1.7-3.6-.9-2.1.9-2.1 1.1-.6 2.6 1.8 1.9 2 2.8.6 2.8-.5 0-2.4-2.1-4.2-4.8-2.6-3.7-3.4-6-3.8-11-.4-4.9-.3-6.1.7-5.7 1.1.3 1.1 0 .2-1.6-1.6-3 0-3.8 2.2-1 1.7 2.1 1.9 2.1 2 .5.1-1.1.1-2.2 0-2.6 0-.4.6-.5 1.4-.2.8.4 1.5 1 1.5 1.6M274.2 652c1.5 0 1.8.3 1.1 1.2-.6.7-1.3 2.4-1.7 3.8-.3 1.4-2.2 3.7-4.2 5.2-4.1 3.1-8.7 3-11.6-.4-1.6-1.8-1.6-2.2-.3-4.9 1.7-3.2 3.8-4.5 9.9-6.3 3.3-1 4.2-1 4.4.1.2.7 1.3 1.3 2.4 1.3m637 12.2c2.9 2.7 5.3 3.5 7.7 2.6 1.4-.5 2.8-.5 3.3 0 1.5 1.5 1.2 9.1-.5 11-1 1-1.7 2.4-1.7 3.1 0 1.8-2.6 0-5.6-3.9l-2.6-3.5.5 3.7c.4 2.3.1 4.1-.7 4.7-.7.6-1.8 2.8-2.4 5-.7 2.1-1.9 4.1-2.7 4.5-1.6.6-5.1-2.6-6.1-5.6-1.1-3.7-7.4-.7-7.4 3.6-.1 1.6-.5 1.2-1.6-1.4-2.1-4.9-1.1-10 2-10 2.7 0 4 2.2 2.3 3.9-.8.8-.4 1.1 1.5 1.1 2.2 0 2.6-.6 3.2-3.8.3-2 .6-4.7.6-6s.7-3.1 1.6-3.9c1.3-1.4 1.7-1.4 2.6-.2.6 1 .8.3.6-2.4-.4-3.3-.1-3.7 1.8-3.7 1.3 0 2.9.6 3.6 1.2m-424.8 4.2c.8 1.9 1.7 8.4 2.1 14.5s1.2 11.4 1.6 11.7c.5.3.7.9.4 1.4-.7 1.1-4.5-2.5-6.2-5.8-.7-1.3-1.3-4.9-1.3-8.1 0-3.1-.1-6.4-.1-7.3 0-1-.4-2-1-2.3-.5-.4-.9-2.2-.9-4.1 0-4.8 3.4-4.8 5.4 0m716.4 5.8c.5.7 2.2 5.2 3.8 10 1.5 4.9 3.1 8.8 3.4 8.8s2.1-4.5 4-10c2.5-7.6 3.7-10 5.1-10 1.5 0 1.6.4.7 3.7-.6 2.1-1.5 4.7-2.1 5.8s-2 4.9-3.2 8.5c-1.7 4.8-2.8 6.6-4.2 6.8-1.8.3-2.6-1.3-6.2-11-4.2-11.6-4.7-13.8-3.2-13.8.5 0 1.3.6 1.9 1.2m33.4 8.5c1 .9 1.8 2.9 1.8 4.5v2.8h-7c-3.8 0-7 .3-7 .8 0 .4.7 1.8 1.6 3 1.6 2.3 7.7 3.2 8.9 1.2.7-1.2 3.5-1.4 3.5-.2 0 1.4-5.7 4.2-8.5 4.2-3.3 0-8.5-5.5-8.5-9 .1-8.1 9.4-12.6 15.2-7.3m19.8-1.2c5.9 3 6.8 9.8 2.1 14.6-4 3.9-8.2 3.9-12.2 0-5.8-5.8-2.2-15.6 5.9-16 .7-.1 2.6.6 4.2 1.4"/><path d="M630 108.9c0 .7-1 .9-2.5.5s-2.5-.2-2.5.5c0 .6-.6 1-1.2.8-.7-.1-1.4.9-1.7 2.3-.3 2.3-.4 2.4-1.2.5-.7-1.9-.8-1.9-.8.3-.1 1.3-.5 2.1-1 1.8-.4-.3-.6.7-.5 2.2.2 1.5.1 2.1-.2 1.4-1-2.1-2.3-1.4-3.7 2-1.9 4.6-3.1 15.5-1.7 16.3.6.4 1-.8 1-3.2.1-2.1.7-4.9 1.5-6.3l1.4-2.5-.4 3.2c-.2 1.8.1 3.3.6 3.3 1.6 0 4-2.8 4.9-5.8l.8-2.7.1 3c.1 1.6.5 2.5.9 2 .4-.6 1.4-1 2.2-1 1.1 0 1.4-.9 1.2-3.3-.2-1.7.1-3.2.6-3.2s.9.7.8 1.6c0 .9.4 1.9 1 2.1.7.2 1-.5.7-2s.2-3.1 1.3-4.2c1.7-1.7 1.8-1.7 2.6.1.5 1.3.7.7.3-1.6-.2-1.9 0-4.2.5-5 .8-1.2 1-1.2 1.1.5v2l.9-2c1-2.5.4-3.1-3.7-4-2.2-.4-3.3-.3-3.3.4M626 154.7c0 .7-.3 1.3-.7 1.2-.5-.1-1.8.2-3.1.6-2.1.7-2.3 1.2-1.7 4.9.4 2.2.3 3.7-.1 3.3-.9-.9-1-1.3-1.2-6.7-.2-2.6-.5-3.1-1.4-2.2s-.9 2.6.1 7.3c1.3 6.3.8 9-.8 4.8-.5-1.3-1-1.9-1-1.3-.2 2.4 4.8 12.7 6.5 13.7 1 .6 2.4 1.7 2.9 2.4 1.4 1.9 9.5 2.5 10.2.7.4-1 1-1.1 2.3-.4s1.9.6 2.4-.5c.3-.8.1-1.7-.5-2-1.4-.9-.1-2.5 1.6-1.9.8.4 2.8.1 4.4-.4 2.5-.9 3-.8 3.4.9.4 1.5.2 1.7-1.2 1-2.1-1.2-7.6 3.3-6.7 5.5.4.9 1.1 1.2 1.8.7.7-.4 1.9-.8 2.6-.9.8-.2 2-1.1 2.8-2.1 1.2-1.7 1.3-1.6 1.4.9 0 3.3-3.3 4.6-11 4.2-8.4-.4-9-.5-9-1.4 0-.5-.9-.7-1.9-.5-1.1.2-2.5-.3-3.1-1.1-.7-.7-1.6-1.1-2.1-.8s-.9 0-.9-.6-.7-1.9-1.6-2.7c-1.4-1.5-1.5-.8-1.2 7.1.2 4.7 0 8.6-.4 8.6-.3 0-.9 1.5-1.3 3.2-1.1 5.9-2.5 8.3-5.8 9.9-1.9.9-3.3 2.5-3.5 3.7-.5 3.6 2.6 2.6 6.9-2 2.2-2.4 3.9-3.8 3.9-3.2 0 .5-1.4 2.3-3.1 4-2.3 2.2-2.9 3.6-2.6 5.6.2 1.6 0 2.8-.5 2.8-.4 0-.8-.7-.8-1.5 0-1.8-2.6-2-3.7-.3-.4.7-1.7 1.8-2.8 2.4-1.1.7-1.9 1.8-1.8 2.5.2.8-1.6 2.2-4 3.3l-4.2 1.9 3 .7 3 .8-3 .1c-4 .1-7.5 2.7-7.6 5.4 0 1.9-.1 2-.7.4-.7-1.6-1.1-1.4-3.7 1.3-1.6 1.6-3.3 3-3.9 3-.5 0 .7-1.8 2.9-4 4.1-4.2 4.2-4.7 1-5-6.5-.7-7.1-.3-7.1 4.5.1 2.9.6 4.9 1.6 5.5 2.5 1.5.1 2.4-2.6.9-1.4-.7-2.1-1.5-1.5-1.7 1.2-.4 1.4-3.4.5-6.9-.6-2-.7-2-3.3-.5-3.4 1.9-7.2 9.6-5.7 11.3.8.9.7 1-.5.6-1.1-.4-2 .3-2.8 2-.7 1.4-1.4 2.3-1.7 2s.1-1.6 1-2.8c1.1-1.7 1.2-2.7.5-4.2q-1.2-2.1 0-1.2c1.5.8 4.1-1.2 4.1-3.2 0-.8 1.3-3.2 2.8-5.2 2.7-3.4 2.8-3.7 1.1-5.3s-2-1.6-5.1 1c-1.8 1.5-2.8 2-2.4 1.2 1.8-3.1 4-5 5.8-5 1.3 0 1.8-.7 1.8-2.5 0-1.9-.4-2.3-1.7-1.8-1 .3-2.6 1.5-3.6 2.7s-1.5 1.5-1.1.7-.8-.3-2.7 1.2c-3.9 2.9-5.9 6.5-8.9 15.4-2.5 7.7-2.6 10.3-.2 10.3 1.2 0 1.4.2.4.9-.7.4-1.7 2.1-2.2 3.7-1 2.8-1 2.8-.5-.6.4-2.8.3-3.2-.7-2.2-1.4 1.4-2 16.9-.8 17.7.4.2 1.2-.7 1.9-2.2.6-1.4 1.4-2.3 1.7-2s-.4 2.4-1.5 4.8c-1.2 2.3-2.1 5.1-2.1 6 0 1-.4 2-.9 2.3-.4.3-1.6 3.1-2.5 6.3-2.8 9.2-2.9 9.6-1.8 8.9.5-.3 1.2-1.8 1.5-3.3.3-1.6 1.7-4.5 3.1-6.6s2.6-4.3 2.6-4.9 2.3-3.3 5-6c2.8-2.7 5.9-6.7 7-8.9 2.3-4.4 3.2-5.1 2.2-1.6-1.2 3.9-6.6 11.4-9.4 13.2-1.6.9-2.8 2-2.8 2.6 0 .5-1.1 2.6-2.4 4.7-1.3 2-3.2 5.9-4.1 8.5-1.6 4.1-1.6 5.1-.4 7.5.7 1.5 1.4 2.9 1.5 3.2.2.3-.6.6-1.7.6-1 0-1.9-.4-1.9-.7 0-.4-.5-2-1.1-3.6l-1.1-2.8-1.5 3.5c-2.4 5.4-5.3 16.9-4.7 18.5.4.9-.1 1.7-1.2 2.1-4.7 1.5-8.4 3.6-7.9 4.3.3.5-.6 1.6-2 2.5-2.9 1.9-6.5 5.7-6.5 6.8s15.1-9.4 22.5-15.6c5.7-4.9 5.8-4.9 3.1-1.4-1.6 2.1-3.2 3.8-3.7 3.8-1.7 0-.9 2 .9 2 1.3.1 1.1.5-1 2.1-1.6 1.1-2.8 2.5-2.8 3.1s.8.4 1.8-.5c.9-.8 2.1-1.5 2.7-1.4.5.1 1.2-1.1 1.5-2.8.3-2 1.2-3.1 2.5-3.3 1.1-.2 2.8-1.4 3.7-2.5 1.3-1.7 1.8-1.8 1.8-.7 0 .9-1.3 2.4-3 3.3-1.6 1-2.7 2.3-2.4 3 .6 1.7 7.8 1.3 10.4-.6 2.1-1.5 5-1.3 5 .3 0 .4-.8 1-1.8 1.3-1.9.4-3.6 4.3-2.4 5.1.4.2 1.7 0 2.9-.4 1.5-.6 2.5-2.3 3.3-5.7 1.9-7.8 2.3-12.3 1.1-12.3-.6 0-1.1.4-1.1 1 0 .5-.4 1-1 1-1.8 0-1-2.2 1-2.7 2.1-.6 2.7-1.9 1-2.5-.5-.2.3-1 1.9-1.9 2.8-1.6 2.8-1.6 2.4.5-.2 1.1.5-.1 1.6-2.8s2.5-5.4 3.1-6c.5-.5 1-1.7 1-2.6-.1-1.2-.4-1.1-1.5.4-2.3 3-1.8 1.2 1.5-5.6 1.7-3.4 3-7.4 3-9 0-1.5.4-2.8.8-2.8.5 0 .7-2.6.5-5.8-.6-11-1.3-13.9-3.9-16.3-1.4-1.3-3-3.3-3.6-4.4-.5-1.1.9-.1 3.2 2.3 2.3 2.3 4.6 3.9 5.2 3.6.5-.4.9.4.8 1.7-.4 4 0 6 .8 5.5.4-.2 1.8 1.6 3 4.2l2.3 4.6-2.7-2.4-2.7-2.5.7 3.5c.3 1.9.7 4 .8 4.7s.4 1 .8.8c.3-.2 1.1 1 1.7 2.6 1 2.6 1 2.9-.5 2.5-1.3-.5-1.7.1-1.7 2.3 0 1.6.3 3.3.8 3.7.4.4.7 1.6.7 2.6s.5 1.8 1.1 1.8.9.6.6 1.4.1 1.7.9 2 1.4 1.1 1.4 1.7c0 .8-.4.8-1.4 0-1.2-1-1.3-.7-.3 2.4.6 1.9 1.5 3.4 2.1 3.2.8-.3 4.6 5.6 4.6 7.1 0 .7-3.8-3.4-4.3-4.8-.3-.8-.6-.1-.6 1.7-.1 4.1.8 6.3 2.5 6.3.8 0 1.4.4 1.4 1 0 .5 1.9 3.3 4.3 6.2 5.5 6.8 7 9.7 2 3.9-9.9-11.5-9.3-10.9-8.6-8.1.3 1.4 1.5 3.6 2.7 5 1.4 1.6 1.5 2 .4 1.1-2.1-1.5-2-1.7-1.8 6.8.1 5.4.7 7.2 3.1 10.7 3 4.3 4.1 7.5 1.3 3.9-2.2-2.9-3.4-.4-3.4 7.2 0 3.4-.3 6.9-.7 7.9-.5 1.3-.3 1.6 1 1.1 2.1-.8 2.2 0 .2 1.9-1.9 1.9-1.1 3.6 2.7 5.5 1.8.8 3.4 2.1 3.6 2.8.3 1-.5.8-2.6-.5-3.9-2.2-4.5-1.7-3.1 2.5.6 1.8.9 3.4.6 3.7s-1.1-1.1-1.8-3c-1.4-3.8-2.9-4.8-2.9-1.8 0 1-.5 2.3-1 2.8-1.1 1.1-.3 4.4 1 4.4.5 0 1.1-1 1.3-2.3.4-1.8.5-1.7.6.7.1 2.3.5 2.7 2.1 2.3 2.5-.6 3.6.8 4.4 5.8.5 2.9.4 3.6-.3 2.5-.6-.8-1.1-2.2-1.1-3.1 0-1.3-6.2-4.9-8.6-4.9-1.5 0-.3 9.3 1.4 11.3.9 1 2.3 1.6 3.2 1.4s2.1.2 2.8.9c1.4 1.5 1.6 3.8.3 3-1.2-.8-2.1 1.8-2.1 6 0 2.2.4 3.3 1.3 3.2.6-.2 1.2.4 1.3 1.2.1 2.7 3.7 13 4.6 13 .4 0 .8-.1.8-.3 0-.1.7-2 1.6-4.2 1.5-4 1.5-4 .8-.5-.3 1.9-.8 4.5-1.1 5.7-.5 2.1-.2 2.3 3.8 2.4l4.4.1-3.7 1.5c-2.1.9-3.8 2.2-3.8 3 0 2.1 2.8 8.3 3.7 8.3.4 0 1.9-2.5 3.2-5.5l2.3-5.5-2.2-5.2c-1.2-2.9-3.3-6.9-4.6-8.9-1.3-2.1-2.6-5-2.9-6.6-.5-2.5-.4-2.6.4-.6.6 1.3 1.5 2.3 2.1 2.3.5 0 1 .8 1 1.8 0 2.8 6 13.2 7.6 13.2.8 0 1.4.5 1.4 1.1 0 .5.6.7 1.3.4.6-.4.4 0-.5.8-1 .8-1.8 2.1-1.8 2.9 0 .9-.7 2.1-1.5 2.8s-1.5 1.9-1.5 2.7c0 .7-.9 3.1-2 5.2-1 2.1-1.7 4-1.5 4.3.2.2.7 2.4.9 4.8.5 4.1.4 4.3-.9 2.6-.8-1.1-3.3-2.2-6.1-2.6-4.1-.6-4.5-.5-4.1 1.1.3 1 0 1.7-.6 1.6s-1.8 1.8-2.8 4.3c-2.2 5.5-2.5 3.9-.4-2 1.6-4.7 1.9-7.4.7-6.6-.4.2-1.4.1-2.2-.5-1.2-.7-1-.9.7-.9 2.4 0 3.5-1.2 3.9-4.4.2-1.2.6-3.8 1-6 .7-3.8.7-3.8-1.7-2.6-1.3.7-3.4 2.2-4.6 3.3-1.3 1.1-2.6 1.8-2.9 1.4-.8-.8.9-2.5 6.5-6.5 2.4-1.8 4.1-3.3 3.8-3.3-.4-.1-1.1-.2-1.6-.3-1.8-.2-2.4-1.6-.7-1.6 1.5 0 1.6-.6 1.1-3.3-1.1-4.9-3.9-11.5-5-11.7-.5-.1-1.8 2.5-2.8 5.7s-2.3 6.2-2.9 6.8c-.8.7-.9.4-.3-1 .4-1.1 1.2-4.2 1.8-6.9.9-4.5.9-5.1-1.2-6.7-1.8-1.5-2-2.2-1.2-3.6s1-1.5 1.1-.3c0 .8 1 2.1 2.1 2.9 2.1 1.3 2.2 1.2 1.5-2.8-.5-3.3-.3-4.1.9-4.1 1.6 0 2.1-2.9.5-3.1-.5-.1-1.5-.2-2.1-.3-.6 0-1.6-.9-2.3-1.9-2-2.6-2.5-2.1-2.8 2.5-.2 3.1-.7 4.2-1.7 4-1.2-.3-1.2 0-.2 1.2 1.1 1.3 1 2.2-.3 5-1.7 3.6-2.1 7.6-.8 7.6.5 0 1.3-1.2 2-2.8 1.1-2.5 1.1-2.5.6-.2-.3 1.4-.5 3.6-.5 4.9.1 1.6-.3 2.1-1.3 1.8-1.3-.5-2.3 2.7-4.2 13.5-.8 4.7.8 5 2.4.5.6-1.8 1.9-4.2 2.7-5.2.8-1.1.4.5-1 3.5s-2.5 6.1-2.5 6.8-.7 2.4-1.6 3.7c-1.1 1.7-1.5 3.9-1.1 7.2.2 2.7.2 3.9 0 2.8-.6-2.3-3.3-6.4-3.3-5-.3 7.3-1.4 15.6-2.6 18.2-1.7 3.8-2.1 27.2-.5 30 .7 1.3 1-.3 1-6.6 0-4.6.3-8.6.7-9 .4-.3.4 6.1.1 14.4-.3 9-.2 14.1.4 12.8 1.3-3.4 1.9-2.8 1.9 1.9 0 3.2-.3 3.9-1 2.8-2.2-3.3-.4 14.7 2.1 21 .5 1.4 1.1 4.3 1.4 6.5.8 7.9 1.5 10.8 2.9 13 1.7 2.5 2.7 11.5 1.4 11.5-.4 0-.8-1.1-.8-2.3 0-1.4-.6-2.4-1.5-2.4-1.8 0-1.8.2-.4 2.9.7 1.4.7 1.8 0 1.4-.6-.4-1 .8-.9 3.6.1 5.8-1.3 15.7-2.3 16.4-.5.3-.9 1.4-.9 2.5s-.7 3.1-1.6 4.4c-.9 1.4-1.4 3.1-1.1 3.9s.2 1.6-.3 1.8c-.6.2-1.5 4.1-2.1 8.7-1.2 8.9-.2 26.4 2.5 45.7.8 5.5 1.8 15.2 2.1 21.7.5 8.6 1.1 12.2 2.3 13.3.8.9 1.7 3.8 2 6.5.2 2.7.8 4.9 1.3 4.9 1.4 0 1 2.9-.7 5.5-.9 1.4-1.2 2.5-.6 2.5s1.4-.9 1.7-2 1-2 1.5-2 1.1-1.2 1.3-2.8c.3-1.5.4-.2.4 2.8-.1 3.1.2 5.7.7 5.8 1.2.3 2-4.9 1.9-12 0-3.2.3-5.6.7-5.3.5.3.9 1.3.9 2.3.1 3.6 1.4 8.7 2.7 9.9 1.9 2 2.7 1.6 2-1.1-.3-1.4-.2-2.8.4-3.1.5-.3 1 .2 1 1.2 0 1.4.2 1.5.9.5.4-.8.7-7.9.6-15.8-.1-8 .2-14.7.7-15 .4-.3.8-1.8.8-3.3s.4-3.1.9-3.6c.9-1 2.9-11 3.8-19.3.3-2.3.9-4.2 1.4-4.2s.8-.3.7-.8c-.2-.4.5-2.7 1.4-5.2 2.5-6.8 3.9-19.7 3.2-28-.5-5-1-6.8-1.5-5.5-.7 2-.8 2-1 0-.3-2.8-.2-4.1.5-6.9.5-2.1.3-2.4-1-1.9-.8.3-2 1.7-2.5 3.1s-1.2 2.2-1.6 1.9c-.3-.3.4-2.4 1.6-4.7 1.1-2.2 2.1-4.9 2.1-6 0-1 .4-2.1.9-2.5 1.1-.6 4.4-14.5 3.7-15.3-.6-.5-1.4 1.4-4.6 10.3-1.6 4.4-1.9 4.7-1.9 2-.1-1.7.6-4.3 1.4-5.9.8-1.5 1.5-3.4 1.5-4s.9-2.9 1.9-5c1.7-3.3 3.5-9.1 3.1-9.8-.1-.2.4-1.6 1-3.2.9-2.6.9-2.7-.5-1.6-.8.7-1.5 2-1.5 2.9s-.5 2.3-1 3.1c-.7 1.1-.8.7-.5-1.5.5-3.7 3.7-12.8 4.8-13.6.4-.3 1-3.2 1.3-6.5.3-3.2 1.2-7.2 2-8.8 2-4.2.9-4.5-1.6-.5-1.8 2.8-2 2.9-1.5.9.4-1.4 1.4-3.7 2.1-5.2.8-1.5 1.4-3.6 1.4-4.8 0-1.1.5-2 1-2 .6 0 1-1 1-2.3 0-1.2 1.3-7.4 2.9-13.7s3.2-14 3.5-17c.4-3 1.4-8.1 2.2-11.3.8-3.3 1.3-6.6 1.1-7.6-.2-.9-.9 1.1-1.7 4.4-.7 3.3-1.5 5.4-1.7 4.8-.5-1.4 2.6-16.3 3.4-16.3.3 0 .3 1.1.1 2.5-.3 1.4-.1 2.5.3 2.5.9 0 1.4-4.9 1.1-9.8-.1-2.2 1.2-3 2.2-1.3.8 1.2 7 2.3 9 1.5 1.1-.4 1.5-1.3 1.1-2.5-.4-1.1-.2-1.9.4-1.9 1.4 0 1.4 2.5.1 4.9-1.8 3.5 4.6 51.1 7 51.9.5.2 1 1.6 1.1 3 0 4.2 3.5 16.6 4.1 15 .3-.8.4-2.7.2-4.4-.4-2.8-.3-2.7 1 .6 1.6 3.9 2 6.3.9 5.7-.5-.3-1.5.2-2.3 1.1-1.3 1.4-1.2 1.5.3.9 1.4-.5 1.5-.3.6 1.2-.9 1.3-.8 4.4.1 12.2.7 5.7 1.5 9.8 1.7 9.1.7-1.8 2.3-.4 2.3 1.9 0 1 .5 1.9 1 1.9.6 0 1 .9 1 2 0 1.2.7 3.4 1.5 5 .9 1.7 1.3 3 1 3-.2 0-1.4-1.8-2.5-4s-2.3-4-2.6-4-.2 1.9.2 4.2c1 6 1.2 18.8.3 18.8-.4 0-1-1.9-1.4-4.3-.4-2.3-1.5-5.9-2.6-8s-1.4-3.5-.8-3.2c.7.5 1 0 .7-1.1-.2-1.2-1.3-2-3.1-2.2-2.6-.3-2.8-.1-2.1 2 1.6 5 1.1 6.3-2.3 6-3.3-.3-7.7 1.3-6.9 2.6.3.5 0 1.4-.5 2.2-.8 1.2-1.2 1.2-1.6.2-.2-.6-1.1-1.2-1.8-1.2-1.9 0-2.3-2-1.2-6.9.6-3.2 1.1-4 1.8-3 .6 1 .9 1 .9.1 0-2 1.8-1.4 2.5.8.5 1.6 1.2 1.9 2.8 1.4 2.3-.6 4.9-3.3 4.3-4.3-.2-.3-2.9-.5-5.9-.5-4.1.1-5.7-.2-6.1-1.3-.5-1.2-2.5-1.4-11.3-1-10 .3-10.6.5-11 2.5-.2 1.7.2 2.2 1.8 2.2 1.1 0 1.7.4 1.4 1-.3.5-.2 1 .4 1 .5 0 1.3-1 1.6-2.1.6-1.7.9-1.9 1.6-.8 1.5 2.3 1 3.4-2.2 5.8-2.3 1.7-3.3 2-4.4 1.1-1.5-1.3-1.5-1.2-4 9.5-1.4 5.7-1.5 10.1-1 24 .7 17.5-.1 27-3.2 38.5-6.4 23.9-7.3 29-8.4 45.3-.9 12.7-.8 17.1 0 18.1.9 1 1 4.6.5 12.5l-.7 11.1h75.1l.7-12.8c1.3-22.3-.6-41-6.6-65.1-1.2-4.7-2.5-9.1-3-9.6-3.3-4.3-5.3-32.2-2.9-40.6 1.3-4.4 1.3-15.6 0-16.4-.5-.3-1-1.1-1-1.6 0-.6.4-.8.9-.5.5.4 1.2 0 1.4-.6.3-.7.6.5.8 2.7.1 2.2.2 4.7.3 5.7.1 2.4 1.6 3.5 1.6 1.2.1-1.4.6-.9 2 1.6 2.5 4.5 2.5 5.9.1 2.9-1.1-1.3-2.1-2.2-2.3-1.9-.7.9-3.9 22-3.5 22.8.3.4.8 4.3 1.2 8.7s1.3 9.1 2 10.5c1.3 2.3 3.1 9.6 7.1 28.5 1.9 8.7 3.3 11.6 3.5 7 .2-4.3 2.7 14.1 2.7 19.5 0 7.4-1.6.8-1.7-7.2-.1-3.8-.6-7-1.2-7.4-1.3-.8-.3 21.9 1.1 24.6 1.2 2.4 2.1 25.2 1 24.5-.6-.3-1 .3-1 1.4 0 2.6.9 2.7 2.6.3 1.3-1.6 1.3-1.6 1.4 0 0 2.4 1.6 2.3 2.3-.2.9-3.4-.5-23-1.6-22.3-.6.4-.7.1-.2-.8.5-.7.9-2.9.8-4.9 0-2.8 0-2.9.4-.7.6 3.8 2.7 2.9 3.4-1.4l.5-3.4.8 4.8c.5 2.6 1.2 5 1.7 5.3s.7.9.4 1.4-.1 1.1.5 1.5c1.4.9 3-3.8 3-8.6 0-2.7.4-3.8 1.1-3.3.6.3.9 1.7.6 3-.2 1.3-.1 2.1.4 1.9.4-.3.9.7 1.1 2.2.3 1.6.4-3.7.4-11.7-.1-18.6 1.3-46.3 2.4-47 .4-.3 1-3.4 1.3-7s.8-7.8 1.2-9.4c.6-2.1.5-2.7-.4-2.2-.7.5-1.1-.4-1.1-2.6 0-1.8-.8-5.6-1.9-8.3-1.4-3.8-1.7-6.1-1.1-9.5.7-4.4.8-4.4 1-1 .2 4 2.7 14.3 2.9 12 .1-1.4-1.9-13.4-3.9-23.5l-.7-4-.2 4.8c-.1 3.1-.5 4.6-1.2 4.2-.6-.4-.8-1.3-.5-2.1s.1-1.4-.4-1.4c-.6 0-1-.9-1-2s.5-2 1-2c.6 0 1-.4 1-1 0-.5-.6-.7-1.4-.4-1 .4-1.4-.4-1.4-2.9 0-1.9-.3-4.6-.7-5.8-.4-1.3-.9-3.2-1.1-4.2-.3-.9-.1-1.7.5-1.7s1.1 1.1 1.1 2.4c0 1.4.5 2.8 1 3.1 1.3.8 1.3-3.6-.1-7.2-.5-1.5-1.1-4.9-1.1-7.5-.2-5.4-.4-5.8-1.8-2.6-.7 1.8-.8 1.3-.4-1.7.8-4.7 1.2-5.7 2.3-5 .5.2.9-.5.9-1.8 0-1.2.7-5.1 1.5-8.7 2.2-9 2.6-11.6 3.2-18.5.3-3.3 1-8.5 1.5-11.5 2-11.1 2.2-14 1.1-14-.6 0-1.1-1.2-1-2.8l.1-2.7.9 2.5c.5 1.5.6-4.1.4-14-.3-9.1-.5-18.3-.4-20.6 0-2.2-.6-5.4-1.2-7-.7-1.6-1.2-4-1.3-5.3s-.7-2.6-1.4-2.9c-1.5-.5-.8 9.5 1.4 17.9.8 3.1 1.4 6.3 1.3 7 0 2.1-3.8-10.2-4.1-13.4-.1-1.5-.5-2.7-.8-2.7s-.6-1.9-.8-4.3c-.4-6.2-4.1-17.9-5.5-17.4-.7.2-2-.9-2.9-2.5-2.2-3.6-3.9-3.6-3.3-.1.3 1.6.7 4.4.9 6.3.3 1.9 1.2 4 2 4.6.9.6 1.6 1.7 1.6 2.3 0 .7.5 2.1 1.1 3.2.8 1.6 1.3 1.8 2.5.8.8-.6 1.8-.9 2.1-.5.7.6-.9 2.1-3 2.9-.5.1-.4 1.5.2 3s.7 2.7.2 2.7-1.1-1-1.4-2.1c-.5-1.9-1.1-2.1-3.9-1.5-4.3.9-5 1.7-3.9 5.2.5 1.6 1.4 4.8 2.1 7.1.7 2.4 1.7 4.3 2.1 4.3s1.2-1.9 1.8-4.3c1-4 1-3.9.5 1.8-.3 3.3-.6 7-.6 8.3 0 1.7-.3 2-1.3 1.2s-1.5-.7-1.9.2c-.3.7-.5-.3-.4-2.2.2-3.8-3.2-18-4.3-18-.3 0-1.8 2.7-3.2 5.9s-3.1 6.2-3.7 6.6 0-1.5 1.3-4.1c1.4-2.7 2.8-6.4 3.2-8.2.8-3.8-.5-4.1-6-1.5-4 1.9-5.2 1.4-3.6-1.6.9-1.6.6-3.3-1.4-8-3.4-8.1-3.1-10.1.4-2.6l2.8 6 1.6-6.9c1.7-7.6 1.6-8.6-1.4-8.6-1.2 0-1.7-.4-1.4-1.1.4-.6 1.3-.8 2.1-.5 1.1.4 1.4-.7 1.5-4.7.1-5.1.2-5.1.9-1.4 1 5.4 1.5 5.4 3.4 0 3.1-8.6 3.1-9.3.5-9.4-2.3-.1-2.3-.1.4-1.2 1.9-.8 2.7-1.8 2.7-3.5 0-1.3.4-2.1.9-1.8.9.6-1.1-5.9-2.2-7s-4.5 3.8-5.9 8.3c-.7 2.4-1.6 4.3-2 4.3-1.1 0-1-2.6.1-4.8 2.6-4.7 7.1-15 7.1-16 0-1.6-.4-1.5-4.5.8-5.4 3-4.1.9 1.5-2.5 5-3 6.4-5.2 5.6-9-.3-1.1-.5-2.3-.5-2.8-.1-.4-.8-.7-1.7-.7-1.4 0-1.6.8-1.2 4.5.7 5.7-.8 5.9-1.7.3l-.7-4.2-1.3 3.6c-.6 1.9-2.2 5.1-3.4 7.1-1.2 1.9-2.1 3.9-2 4.4.3 1.2-1.8 6-3 6.7-1.3.8-.8-3.9.7-5.6 1.6-2 7.2-14.1 6.7-14.6-.2-.2-2.7.2-5.4.9-3.8.9-5.1 1.8-5.1 3.1 0 1-.5 1.8-1 1.8-.8 0-6 10.1-6 11.7 0 .5 3.4-.2 6.7-1.4 1-.3 1.5-.2 1 .3s-2.5 1.4-4.5 1.9c-3.6 1-3.7 1.2-3.5 5.5.1 2.5-.1 3.4-.3 2-1-5.4-1.5-5.3-6.1 1.4-2.5 3.6-4.8 6.4-5.1 6.2-.2-.3 1.6-3.3 4.2-6.7 2.5-3.3 4.6-6.4 4.6-6.8s-2.6-.4-5.7.1c-6.7 1.1-7 1.1-10.3.4-11-2.1-10.4-2.1-9 .5 1.2 2.3 1.2 2.3-1.4-.3-1.5-1.5-3.7-2.9-4.9-3.1-2.2-.4-2.2-.4.1-.6 2.5-.1 2.5-.1 1.2-3.6-.7-1.7-.7-2.4 0-2 .6.3 1 1.2 1 1.9 0 2.4 3.5 4.5 8.8 5.1 5.6.6 5.8.5 4.1-2.8-1.2-2.1-1.1-2.1.8-.4 1.1.9 2.4 1.7 2.9 1.7 1.8 0 9.4-10.8 9.4-13.4 0-1.4.3-2.6.8-2.6.7 0 4.2-8.8 4.2-10.8 0-.6-.8-.9-1.7-.7-1 .2-3.5.7-5.5 1-2.1.3-3.8.9-3.8 1.3s1.4 2.1 3 3.9c4.3 4.6 3.7 5.4-.8 1-2.1-2.1-4.1-3.4-4.5-3.1-.4.4-.7 2.6-.7 4.8v4.2l4.3-.3 4.2-.2-4 .9c-5.5 1.2-10.8 1.2-10 0 .3-.6 1.5-1 2.6-1 1.6 0 1.9-.7 1.9-4.6 0-4.3-.1-4.5-1.7-3.3-5.5 4.3-8.3 7.4-7.9 8.6.6 1.4-.6 1.5-4.4.3-2.2-.7-2.2-.8-.4-.9 1.1-.1 4.4-2.4 7.3-5.3 5.8-5.7 5.5-6.8-1.6-6.8-4.8 0-5.1.7-3.3 7l1 3.5-1.9-2.4c-1.3-1.7-2.5-2.2-4-1.8-1.1.3-2.1.1-2.1-.4s.9-.9 2-.9 2-.7 2-1.5c0-2-1.9-1.9-4.2.2-2.8 2.5-2.1 0 .7-2.7l2.5-2.3-6.3-3.9c-6.9-4.2-6.7-5.2.3-1.2 2.8 1.6 4.6 2.1 4.8 1.4.2-.6 1.5 0 2.9 1.5 2.1 2 3.6 2.5 7.4 2.5 2.7 0 4.9-.4 4.9-.8 0-.5-3.2-4-7.2-7.7-6-5.7-7.7-6.9-10.2-6.7-2.3.2-2.7 0-1.6-.8 1.3-.8 1.3-1.3.1-3.2-1.3-2.3-1.3-2.3 1.3.1 1.8 1.7 2.6 2 2.6 1 .1-1.1.3-1 1 .3.6 1 1.8 1.4 3 1.1 1.1-.3 2 0 2 .6s-.6 1.1-1.2 1.1c-.7 0-.2 1.1 1.2 2.5 1.4 1.3 4.3 4.2 6.5 6.4s4.2 3.6 4.5 3.2c.3-.5.3-3.5.2-6.6-.4-5.2-.8-6.1-4.5-9.7-2.3-2.2-6.1-5.4-8.5-7-2.4-1.7-4.1-3.2-3.8-3.5.5-.5 7.7 4.9 13.4 10.1l3.2 3v-2.8c0-1.7-1-3.6-2.7-5.1-1.6-1.3-2.3-2.5-1.6-2.5.6 0 1.5.4 1.8 1 1.6 2.5 2.6.6 2.3-4.3s-.5-5.2-2.8-5c-2 .2-2.1.1-.7-.5 1.5-.6.6-1.7-5.2-6.2-5-3.9-7.1-6.2-7.1-7.8 0-1.4.6-2.2 1.7-2.2 1.3 0 1.4.3.6 1.1-1.7 1.7-.5 3.7 4.6 7.1 2.5 1.8 5.5 4.1 6.6 5.1 2 1.8 2 1.8 2.3-5s.3-6.8-3.4-10.1c-4.3-3.7-3.4-4.3 1.1-.7l2.9 2.4 3.6-2.1c3.3-2.1 3.4-2.1 1.8-.2-2.1 2.4-2.3 3.8-.5 2.8.7-.4.8-.3.4.2-.5.5-1.6.9-2.5.9-1.4 0-1.8 1.2-2 6.8-.3 6.6-.2 6.8 1.7 5.7 1.1-.6 4.7-3.5 7.8-6.5 4.8-4.5 5.5-5.6 4.3-6.5-1.3-.9-1.3-1 0-1 1.1-.1 1-.4-.4-1.5-1.1-.8-1.5-1.5-.9-1.5.7 0 1.9.7 2.7 1.6 1.5 1.4 1.9 1.4 5.4-.7l3.7-2.2-4.1 3.6c-3.1 2.8-4 4.2-3.9 6.4.2 1.8.1 2-.2.5-.2-1.2-.7-2.2-.9-2.2-.3 0-3.9 3-8 6.6-7.3 6.6-7.4 6.7-7.2 11.5 0 2.8.5 4.9 1.1 4.9.7 0 .7.4-.1 1.2-1.7 1.7-1.5 4.8.5 7 1.5 1.7 1.5 1.8-.1 1.8-1.4 0-1.6.8-1.2 5.2.3 2.9.5 5.9.5 6.7.1 1.1.6 1 2.1-.4 1.1-1 2-2.2 2-2.7 0-.4 1.8-2.4 4-4.4s4-4 4-4.5-2.1-.7-4.7-.4c-3.8.3-4.2.3-1.8-.4 1.7-.5 4.8-.9 7.1-1 4.5-.1 5.9-1 9.9-6.4 3.9-5.3 4.3-3.9.4 1.6-2.7 3.9-3 4.8-1.9 6.2.7.9 1.8 1.4 2.5 1.2.6-.3 2.2.2 3.6.9 2.3 1.4 2.3 1.5-1.1.8-1.9-.3-3.9-1-4.5-1.5-2-2-3.3-.7-3.9 4.2-.4 2.8-.5 5.4-.2 5.6.3.3 3.2-1 6.6-2.8l6.2-3.4-.5-5.5-.6-5.5 1.6 4.5 1.6 4.4 4.4-4.8c3.1-3.4 4.3-5.7 4.4-7.9 0-2.8.2-2.9 1-1.2l.9 2-.4-2c-.3-1.1-.8-3.1-1.1-4.5-.5-1.9-.4-2.2.4-1s1.1.7 1.1-2.1c0-1.9.5-6.1 1.1-9.3s.8-6.5.4-7.4c-.5-1.4-.9-1.3-2.5.8-2.8 3.6-2.4 1.6.9-5.4 3.6-7.5 10.1-23.7 10.1-25.1-.1-1.7-1.9 1.7-4 7.4-1.2 3-2.9 6.6-3.9 8s-2.4 4.4-3.1 6.6c-1.4 4.4-5 10.9-5.7 10.2-.2-.3.8-2.6 2.2-5.2s2.5-5.8 2.5-7.1.4-2.5.9-2.8c.7-.5 7.3-12.9 9-17.1.2-.6-3 2.6-7.2 6.9-4.2 4.4-7.4 8.3-7.1 8.7.7 1.2-.9 1.6-3.6.8-2.1-.6-2.2-.7-.5-.9 2-.1 6.5-4.9 6.9-7.3.1-.6.5-1.7.9-2.4.4-.6.1-1.3-.7-1.5-1-.2-.5-1.1 1.5-3 2.5-2.2 2.9-2.3 2.4-.7s-.3 1.8 1.7 1c2.9-1 5.5-4.7 6.3-8.9.9-4.2-.8-4.1-2.3.2-.7 1.9-1.9 4-2.7 4.6-1.2 1-1.1.4.3-2.6 6.7-14.7 9.7-19.7 13.6-22.9 5.4-4.4 11.1-11.5 10-12.4-.5-.3-1.4-2-1.9-3.6-1.5-4.3-6.5-3.8-6.5.6 0 1.5.7 1.9 3.3 1.9 2.4 0 2.8.3 1.7 1-.8.5-3 1-4.7 1-4.2 0-12.3 2.2-12.3 3.3 0 .4.7 2.2 1.7 4 1.2 2.5.4 1.9-3.7-2.6-2.9-3.2-6.1-6.2-7.1-6.7-3.2-1.8 2.4 10 7 14.6 4 4 5.2 6.4 3.1 6.4-.5 0-1-.6-1-1.3 0-.8-.9-2.2-2-3.2s-2-1.3-2-.7c0 1.8 2.2 6.2 3.2 6.2.4 0 .8.7.8 1.5 0 2.2-1.8 1.8-2.5-.5-.8-2.4-1.8-2.5-3.5-.5-.7.8-.9 1.5-.5 1.5 1.4 0-2.8 4.1-7.3 7.2-4.1 2.8-4.2 3.1-2.5 4.5s1.7 1.4-.4 1c-1.9-.4-2.3-.1-2.3 2.1 0 2-.3 2.3-.9 1.2-.6-.8-.7-1.8-.5-2.2.8-1.3-4.5-5.5-12-9.8l-3.6-2v6.7c0 5 .4 6.9 1.7 7.8 1.4 1.1 1.4 1.3-.8 1.7l-2.5.4.4-8.9.5-8.9-2.4 1.2c-1.3.7-3.7 2.2-5.4 3.3-2.3 1.4-2 1 1-1.7 2.6-2.5 3.6-3.9 2.7-4.3-.7-.3-2.6-1.6-4.1-2.9-3.2-2.7-4.7-3-4.8-1.2-.1.7-.4 4.2-.7 7.7-.5 5.3-.3 6.2.9 5.7 1.8-.6 2 1 .4 2-.8.4.1 1.4 2.2 2.5 3.7 2 3.5 2.4-.5.9-3.4-1.3-3.3-.5 1 4.6 4.4 5.4 7.3 7.2 8.5 5.3.7-1.2.9-1.2.9 0 0 .9 1.1 1.2 4 .9 2.2-.2 4 0 4 .4 0 .7-5.2 1.2-9.7 1.1-1.6-.1-1.6-.1-.3 3.1.5 1.4.7 2.6.5 2.6-.3 0-1-1.2-1.5-2.6-.6-1.4-1.4-2.2-2-1.9-.5.3-.8 0-.5-.7.2-.7-1.6-3.6-4.1-6.3l-4.6-5 .5 4.7c.2 2.5.1 5.2-.4 6-.7 1-.9.9-.9-.4 0-.9-.6-1.9-1.2-2.1-.9-.4-1-.8-.3-1.4.6-.4 1.2-1.9 1.2-3.3.1-2.3-.2-2.1-3.7 1.9l-3.8 4.4 2.1 1.7c3.3 2.5 7.1 4.4 6.3 3.1-.4-.6-.2-1.1.3-1.1.6 0 1.1.5 1.1 1.1 0 .7 1 .5 2.5-.5 3.6-2.4 4-2 .8.8l-2.8 2.4 3.5 1.1 3.5 1.1-4.2-.5-4.2-.5-.4 5.7-.3 5.8-.2-5.8c-.2-4.7-.5-5.7-1.9-5.7s-1.5-.2-.5-.9c1-.6.4-1.6-2.4-4-5.3-4.3-9.1-4.1-8.5.4.1.5-.5.2-1.2-.8-.8-.9-1.9-1.7-2.6-1.7-.6 0-1.1-.4-1.1-.9s.6-.9 1.3-.8c5.6.2 7.2-.5 11.4-5 4.8-5.3 5.1-6 2.6-6.6-1.7-.4-1.7-.5 0-.6 2.7-.2 2.1-1.5-3.3-6.5-7-6.5-8-6.2-8 2.4v6.9l2.8-.3c1.5-.2 2.1-.1 1.5.1-.7.2-1.3.9-1.3 1.4s-.6.9-1.4.9-1.7.6-1.9 1.2q-.6 1.5-.6 0c-.1-.6-.8-1.2-1.6-1.2s-1.5-.5-1.5-1c0-.6.6-1 1.4-1 1 0 1.4-1.8 1.5-7 .1-3.9-.2-7-.6-7-1.5 0-11.9 6.3-13.3 8.1-1.7 2.1-2 2-10.5-5.3-1.8-1.5-3.4-2.6-3.6-2.3-.2.2-.3-3.1-.1-7.3l.3-7.7-3.6 3.9c-2 2.1-3.4 4.4-3.1 5.2s0 1.1-1 .7c-2.2-.8-1.8-1.7 3.8-7.2 4-4 5.5-6.4 6.5-10.3.7-2.8 1.1-5.3.8-5.6-.2-.3-2.6 1.6-5.1 4.2-2.6 2.5-4.9 4.6-5.1 4.6s-1.2-.7-2.1-1.6c-1.5-1.5-1.4-1.6.7-.9 1.8.5 3-.2 6.5-3.7 6.1-6.3 18.1-15.8 19.8-15.8 2.1 0 4.5-2.9 3.1-3.8-.7-.5-.6-1.1.3-2 .8-.7 1.4-1 1.4-.7s.6 0 1.4-.7c.7-.7 1.2-2.3 1-3.6-.3-1.2 0-2.2.5-2.2s1.1 1 1.3 2.2c.2 1.8.9 2.3 3.1 2.1 2.1-.1 2.7.2 2.3 1.2-.3.8-.1 1.4.4 1.2.5-.1 1.6.7 2.4 1.8 1.4 1.8 1.5 1.8 1.6.2 0-.9-.4-1.7-1-1.7-.5 0-1-.8-1-1.8 0-.9-.7-2.6-1.5-3.6-.8-1.1-1.5-2.7-1.4-3.5 0-1.4.1-1.4.7-.1.4.8 1.6 2.8 2.6 4.3 2.6 3.9 4.4 2 2.2-2.4-2-4-2-4.5-.1-2.9.8.7 1.5 1.7 1.5 2.3 0 1.1 3.9 4.7 5.2 4.7.4 0 .8.9.8 2s.7 2 1.5 2 1.5-.5 1.5-1c0-.6-.4-1-1-1-.5 0-1-1-1-2.2 0-2 .1-2.1 1.3-.4 1.2 1.6 1.3 1.2 1.3-3.1 0-3.5.8-6.1 2.7-9.3 1.5-2.5 2.7-3.8 2.7-2.9s-.8 2.7-1.8 4c-2.5 3.2-3.4 7.1-2.1 8.9.7 1 1.2 1.1 1.5.4.3-.6 1.1-2 1.9-3 1.4-1.8 1.4-1.8 1.5.5 0 3.6 2.8.8 3.6-3.8.9-5 1.7-6.2 3.3-5.1 1.2.7 1.2 1.1-.1 2.3-.8.9-1.4 2.6-1.3 3.9s.3 2.9.4 3.6c0 .7.6 1 1.1.7.6-.3.7-1.7.4-3.1-.3-1.3-.3-3.1 0-4.1.6-1.4.8-1.4 2 .3.8 1 1.7 1.6 2 1.3.4-.3-.3-1.8-1.5-3.3-1.1-1.5-1.9-3.3-1.6-4 .8-2-.4-2.8-2-1.5-1 .9-1.3.5-1.3-1.9 0-1.7.5-3.4 1-3.7 1.2-.8 1.3-6.5.1-6.5-.5 0-1.2 1.1-1.5 2.5-.8 3.1-4.6 9.5-4.6 7.7 0-.7 1.2-3.5 2.6-6.3 2.6-5.2 2.6-7.8-.1-4.3-1.3 1.8-1.4 1.8-1.5.1 0-1 .8-3 1.7-4.5 1.4-2.1 1.4-2.4.2-1.5-1.2 1-1.5.8-1.5-.7 0-1 .4-1.6.8-1.4.4.3.8-.1.8-.8 0-1.1.2-1.1.9 0 1.1 1.8 3.4-1 3.6-4.4.1-2.6-2.2-3.3-4.3-1.2-.9.9-1.2.9-1.2-.1 0-.7-.4-.9-1-.6-.6.4-.7-.1-.3-1.1.5-1.3.8-1.4 1.1-.5.5 1.4 8.2-6.4 8.2-8.3 0-.5-.9.1-2 1.4s-2 1.9-2 1.5c0-.5-.7 0-1.5 1.1-1.4 1.9-1.4 1.8-1.5-.4 0-1.2.3-2.2.8-2.2.4 0 .8-1.8.8-4 .1-3.6 0-3.8-1.2-2.3-.7 1-1.4 2.6-1.4 3.7 0 1-1.1 3.1-2.5 4.8-1.4 1.6-2.5 3.6-2.5 4.4s-.5 1.4-1.1 1.4c-.7 0-.9-1.1-.5-3 .7-4-.8-3.1-3.1 1.7-1.6 3.4-1.6 3.6.2 4.9 1 .8 1.5 1.4.9 1.5-.5 0-1.7.2-2.6.4-1 .2-1.8-.1-1.8-.6s-1.3-.7-2.9-.5c-1.9.2-3.2-.2-3.5-1-.4-1.1.2-1.3 2.5-.9s3.5.1 4.5-1.2c2.1-2.8 1.7-3.6-1.6-3.1-1.6.3-3 .1-3-.4s-.4-.6-1-.3c-.5.3-1 .1-1-.4 0-.6.5-1.1 1.1-1.1.5 0 .8-.4.4-1-.3-.5-1.2-.7-2-.3-1.1.4-1.3.1-.9-1 .3-.9 1.1-1.4 1.7-1.1.7.2 1.8-.5 2.4-1.5 1.1-1.7 1-2.1-.7-2.6-1.1-.4-2-1.1-2-1.7 0-.7-.5-.6-1.4.1-1.1.9-1.8.6-3.5-1.6-1.1-1.5-2.1-2.2-2.1-1.6"/><path d="M665.5 164c-.4 1.2-.4 2.4 0 2.8.6.6 10.1 3 13.3 3.4 2.6.3 1 1.8-2 1.9l-3.3.1 2.8.8c1.6.5 3.5.6 4.2.4.7-.3 1.6-.1 2 .5.3.6 1.5 1.1 2.6 1.1s1.7.5 1.4 1c-.4.7-1.3.7-2.6 0-1.4-.8-1.9-.7-1.9.1 0 .9-.3.9-1.4 0-1.3-1.1-14.2-3.1-17.3-2.7-1.5.2-4.1 5.2-3.2 6.1.2.2 1.8.5 3.4.8 3.6.6 8.4 2.5 7 2.7-2.4.4-8.1-.3-9.1-1.1-1.6-1.3-2.4 0-2.4 4.1 0 5.1 2 10.6 3.2 8.8.5-.8.6-.4.2 1.4-.5 2.3 0 3 3.3 5.1 2.1 1.4 4.2 2.1 4.7 1.7.5-.5 1.4-.6 2-.4.8.3 1.9-1.9 3-5.8 3.1-11.4 3.9-13.8 4.3-13.4.2.2 0 2.1-.6 4.2-1.7 6.9-2.4 14.4-1.2 14.4.6 0 1.3-1.2 1.7-2.8 1.4-6.6 2.3-7.5 1.7-1.8l-.6 5.9 3.1-.6c1.7-.4 3.4-.2 3.7.3.9 1.4 4.9 1.2 6.3-.2.9-.9 1.2-.9 1.2 0 0 1.7 7.5 1.5 8.9-.2.6-.7 2.7-4.9 4.5-9.2 3.2-7.2 3.3-7.9 1.8-9-.9-.6-2.6-1.3-3.6-1.5-1.1-.2-2.1-1.1-2.4-1.9-.4-1.2-.2-1.3.9-.3 1.3 1.3 9.9 1.8 9.9.6 0-.3-.8-1.5-1.7-2.6-1.7-1.9-1.7-1.9.5-1.3 1.7.6 2.2.3 2.2-1.1 0-1.8-3-3.6-8.3-4.9-1.5-.3-3-1-3.2-1.5-.3-.4-1.2-.6-2-.3-.7.3-2.4-.1-3.7-1-1.3-.8-4.6-1.7-7.4-1.9s-5.6-.7-6.2-1.1c-.7-.4-1.7-.4-2.3-.1-.5.4-1.8 0-2.7-.8s-4.5-1.8-7.9-2.2c-5.7-.6-6.2-.5-6.8 1.5M742.2 179.2c-2.4 2.4-1.4 4 2.3 3.6 1.9-.2 3.5 0 3.5.4s.9.8 2 .8c1.7 0 1.9.3.8 1.9-.7 1.1-1.6 1.7-2 1.5-.4-.3-.8.2-.8 1 0 1.3-.5 1.4-2.7.5-1.6-.6-3.5-1.7-4.4-2.5-1.8-1.6-2.3-1.2-4.9 4-1.1 2.2-1.2 3-.3 3.3.6.2 3 1.7 5.2 3.4 2.3 1.6 4.3 2.9 4.5 2.9.5 0 4.1 3 9 7.3 2.3 2.2 1.6 1.9-2.9-1.1-18.7-12.2-18-12-20-8.2-2.3 4.5-1.9 5.4 4.1 8.5 3.1 1.7 6.6 3.8 7.8 4.8 1.1 1 4.4 3.1 7.3 4.7l5.1 3 3.2-3c1.8-1.7 3.7-3 4.4-3 1.1 0 4.6-5.3 4.6-7 0-.4-.9-1-2-1.3-2.3-.6-2.7-2.7-.5-2.7.8 0 1.5.4 1.5.9 0 1.5 4.1 2.4 5.3 1.2.6-.6 1.7-1.1 2.4-1.1 1.1 0 1.1.5-.1 2.7-2.4 4.7-8.8 11.6-9.6 10.4-.4-.8-1.2-.5-2.4.8-1 1.1-1.5 2.4-1.1 3 .3.7 0 .8-1 .5q-1.65-.75-.9.9c.7 1.8 8.7 8.7 10.1 8.7.5 0 3.1-2.6 5.9-5.7 3.2-3.7 3.9-5.1 2.2-3.8-1.5 1.1-2.8 2.3-2.8 2.7 0 .9-8 3.1-8.7 2.4-.3-.3.2-.8 1.1-1.2.9-.3 1.6-1.2 1.6-2 0-1.4 1.2-1.8 3.8-1.5 1.8.3 5.3-3.9 4.5-5.2-.4-.6 0-.8 1-.4 1 .3 1.7.2 1.7-.3 0-.6-.4-1-1-1-.5 0-1-.7-1-1.5 0-1.8 1.7-2 2.2-.4.3.8 1 .6 2.1-.5 1.5-1.6 1.5-1.9.2-3.3-1.4-1.4-1.8-1.4-3.4.1-1.9 1.8-4.1 2.1-4.1.7 0-.5 1.2-1.8 2.7-2.9 2.3-1.7 2.5-2.2 1.4-3.6-1.7-2.1-23.5-18.6-24.6-18.6-.4 0-3-1.4-5.7-3-5.6-3.5-5.1-3.3-6.6-1.8M713.1 189.2c-.5 1.3-1.9 4.7-3.1 7.7-1.8 4.4-1.9 5.5-.8 6.2 2 1.3 3.6 1.1 4.7-.9.7-1.1 1-1.3 1.1-.3 0 1.1.3 1.1 1.5.1 1.4-1.2 1.3-1.5-.5-3.2-3.5-3.2-1.5-3.2 4.9.1l6 3 2-3.5c1.2-1.9 2.1-3.8 2.1-4.2s-3.5-2.1-7.7-3.7c-4.2-1.7-8-3.1-8.5-3.3-.4-.2-1.2.7-1.7 2M613 202.2c-1.4 1.1-4.2 3.5-6.3 5.4-2 1.9-4.3 3.4-5 3.3-3-.4-4.9.3-6.9 2.3-1.3 1.3-2.6 2.3-3 2.3-.3 0-1 .3-1.4.7-.4.5-.1.8.7.8 1.1 0 1.1.2-.1 1s-1.1 1 .8 1c1.2 0 2.2-.4 2.2-.9s1.7-2 3.8-3.2c5.1-3.2 5.6-3.4 4.9-1.6-.3.9-.3 1.8.1 2s.1.2-.6 0c-2.1-.5-7.4 3.7-6.8 5.3.3.8.2 1.4-.3 1.4s-1.1.9-1.4 2-1.3 2-2.3 2c-1.6 0-1.6-.1.1-2s1.7-2-.6-2.9c-1.3-.5-2.8-.7-3.2-.4s-2.9.5-5.4.5c-3.5 0-5 .5-6.4 2.1-1 1.2-1.8 2.5-1.9 2.9 0 1.5 4.6.7 7-1.2 1.4-1.1 3.2-2 4.1-2 .8 0 2-.5 2.7-1.2.9-.9 1.2-.7 1.2 1 0 1.6-.9 2.4-4 3.2-3.5.9-5.8 2.6-4.9 3.5.2.2 2.5.6 5.2.8 4.3.5 4.7.4 4.7-1.6.1-2.1.1-2.1 1.4-.4 1 1.3 1.6 1.5 2.1.7.4-.7 2.3-1.8 4.1-2.6 4.4-1.8 4.4-4.2.2-3.5-.5 0-.8-.3-.8-.9 0-.5 1.6-.9 3.5-.8 5.4.2 9.6-6.4 4.7-7.4-1.2-.3-.2-1.3 3-3.1 2.9-1.7 5.2-4.1 6.3-6.3 2-4.4 1.7-4.8-1.5-2.2"/><path d="M717.7 202.8c-.8.9-1.7 2.9-2.1 4.4-.6 2.5-.9 2.7-2.6 1.6-1.6-1.1-2.2-.9-3.4.7-.9 1.1-1.4 2.4-1.2 3 .2.5-.1 2-.5 3.3-.7 1.7-.5 2.4.9 2.9.9.4 2.5 1.6 3.5 2.6.9 1.1 2 1.8 2.3 1.5 1.9-2 10.4-16.5 10.4-17.9 0-1-1.2-2.1-2.9-2.7-2.4-.8-3.2-.7-4.4.6M723.4 213.7c-2.6 4.9-5.4 9.6-6.2 10.6-1.2 1.3-1.3 2-.4 2.9.6.6 1.3 1 1.5.7 1-1.1 9.1-12.8 10.9-15.7 1.1-1.8 2.2-3.1 2.4-2.9.7.6-3.6 7.6-8.5 14-3.9 5.1-4.3 6-3.3 8.2 1.6 3.4 2.6 3.1 5.8-1.3 1.5-2 4.5-6 6.5-8.7 4.9-6.6 6.8-10.7 5.2-11.2-.7-.3-2.8-1.5-4.8-2.9-2-1.3-3.8-2.4-4-2.4s-2.5 3.9-5.1 8.7M739 212.9c0 .6-1.3 3-2.8 5.3-12.6 18.8-13.6 21.3-10.9 25 .7.9 2.6 1.8 4.2 2 2.6.3 4.2-1 13.7-11.1 6-6.3 10.8-11.7 10.7-12 0-.7-11.6-9-13.5-9.8-.8-.3-1.4 0-1.4.6M780.2 222.6c-9.5 9.8-12.2 14.7-3.2 5.9 2.7-2.7 5.2-4.6 5.5-4.3s-1.4 2.7-3.9 5.2c-2.6 2.5-4.6 4.8-4.6 5.1s2.1 3.3 4.7 6.7c3.4 4.4 4.9 5.7 5.1 4.5.2-.9.8-1.7 1.3-1.7 1.7 0 10.9-9.8 10.9-11.6 0-1-.3-1.5-.6-1.1-.8.8-4.4-2.5-4.4-4 0-2.1 3.1-1.5 3.7.7.3 1.1.9 2 1.3 2 .5 0 1 .8 1.3 1.7.3 1.3.9.7 2.1-2 1.6-3.6 1.4-7.7-.2-7.7-.4 0-1.7.7-2.9 1.5-2 1.4-2.6 1.4-5.8.1-1.9-.8-4.3-1.2-5.1-.9-1.4.5-1.4.3-.2-1.6 1.1-2 2-2.2 6-1.8 3.3.3 4.5.1 4.1-.7-.9-1.7-4.6-5.6-5.2-5.6-.3 0-4.8 4.3-9.9 9.6M522.5 222.9c-4.4 2.8-10.8 9.8-10.1 11 .5.7.1.8-.9.5-1.5-.6-3 .8-13.7 12.5l-3.3 3.6 4 3.8c6.2 5.7 15.6 11.9 18.4 12 3.7.3 4.2-4.5.9-7.4-2.2-2-1.9-2.1 2.5-.4.6.2 2.1-.2 3.2-1.1 1.6-1.2 1.8-1.8.7-3.4-.7-1.2-.8-2.1-.2-2.5.6-.3 1 .1 1 .9 0 2.2 2.2 1.1 4.4-2.3 1.1-1.5 3.4-3.4 5.2-4 3.9-1.4 3.9-2.2-.1-11.6-.7-1.7-1.6-4.5-2-6.3-.7-3.3-3.9-7.2-5.9-7.2-.6 0-2.4.9-4.1 1.9M755.7 224.7c-.4.3-.7 1.5-.7 2.5s-.4 1.8-.9 1.8-3.1 2.1-5.8 4.7c-8.9 8.7-13.1 17.2-8.9 18.1 1 .2 1.6 0 1.3-.5s.7-.7 2.4-.5c1.7.3 2.9 0 2.9-.7 0-.6-.4-1.1-1-1.1-.5 0-1-.9-1-2 0-2.3 1-2.6 2.9-.8 1.1 1.1 1.5 1 1.9-.2.9-2.4 11.5-12 14-12.6 2.9-.8 2.8-1.5-.5-4.5-4.4-4-5.9-4.9-6.6-4.2M615.2 227.1c-2.6 1-2.7 1.7-.7 3.9 1.4 1.5 1.4 1.8 0 3-1.3 1.1-1.6.8-2.1-1.9-.4-1.7-.9-3.1-1.3-3.1-.3 0-2.7 2-5.3 4.3-3.4 3.1-5.1 5.6-6.4 9.5-.9 2.9-1.5 5.5-1.3 5.7.5.4 11.6-8.9 18.2-15.2 2.9-2.7 3.5-3.8 2.5-4.5-.9-.5-.5-.7 1.1-.6 1.3.2 2.6-.2 2.8-.9.5-1.3-4-1.5-7.5-.2M768.3 239.4c-2.5 1.3-17.1 14.9-19 17.5-1.1 1.6-.6 1.5 3.7-.6 2.7-1.4 5.2-2.9 5.6-3.4.3-.5 1.1-.9 1.7-.9.8 0 .8.3-.1.9-.8.4-1.2 1.2-1.1 1.7.2.5-1.6 2.2-3.8 3.9-3 2.2-4 3.5-3.6 4.9.3 1-.1 2.3-.8 2.7-1.1.8-1.1 1.1.4 2 1.2.7 1.5 1.4.9 2.2-1.6 2-5.2 8.7-4.6 8.7.2 0 1.8-.9 3.3-2.1 1.6-1.2 3.7-1.9 4.7-1.7 1.4.2 1 .8-1.9 2.8-2 1.4-3.5 2.9-3.4 3.5.5 1.5 5.8 1.3 6.4-.2.5-1.4 3.3-1.8 3.3-.6 0 .5.9 1.9 2 3.3s1.9 1.8 1.8 1c-.2-.8.4-1.4 1.2-1.5.8 0 2.3-.5 3.4-1.1 1.7-1 1.7-1.3.3-4.1-1.5-2.8-1.5-3.2.5-5.3 1.1-1.2 3.4-2.6 4.9-3.2 3.5-1.2 3.6-2 .7-6.7-4.9-7.9-6.6-8.6-10.1-4.6-2 2.4-2.4 2.5-4.2 1.1-1.9-1.4-1.8-1.5 1.7-3.6 2-1.1 4.4-3.2 5.2-4.6.9-1.3 2.3-2.4 3.1-2.4s2.5-1.1 3.8-2.4c1.9-1.9 2.1-2.6 1.1-3-.8-.3-1.4-1.1-1.4-1.8 0-2.3-3.3-3.7-5.7-2.4"/><path d="M788.9 244.1c-1.4 1-1.9 2.1-1.4 2.9s.4 1.1-.2.7-1.4.4-1.7 1.8c-.9 3.4-3.1 3.2-5.3-.5-1.6-2.8-3.3-3.9-3.3-2.3 0 .5-1.4 1.7-3.1 2.8-3.3 2.2-6 5.9-3.6 4.9 1.7-.6 6.5 4.8 7.9 8.9 1.2 3.3 2.6 3.1 5-.9.9-1.6 2.2-3.7 2.8-4.7.8-1.3.7-1.7-.5-1.7-2.3 0-1.9-.9 2.4-5.1 2.2-2.1 4.7-4.9 5.6-6.3 1.6-2.4 1.6-2.5-.4-2.3-1.1 0-3 .9-4.2 1.8M704.7 251.9c-3.1 3.3-5.7 6.5-5.7 7s-.6 1.1-1.2 1.3c-2.6.9-2.9 26.6-.4 31.8 1 2.1 1.5 2.6 1.2 1.2-.2-1.2 0-2 .5-1.6.5.3.9-.4.9-1.5 0-1.2.5-2.1 1.1-2.1.5 0 .8.4.5.9-.4.5-.2 2.2.4 3.8.9 2.6.9 2.7-.5.9-1.4-1.9-1.5-1.9-1.5 1 0 1.7 1 4 2.5 5.6 1.3 1.4 2.7 3.7 3 5.1.4 1.4 1.6 3.5 2.7 4.7 1.5 1.6 1.7 2.5.9 3.3s-1.1.8-1.1-.1c0-.7-.4-1.2-.9-1.2-1.7 0-.4 6.5 2.7 13.2 1.7 3.8 3.5 6.8 4 6.8.6 0 .2-1.8-.9-4-2.3-4.8-2.4-5.6-.3-3.6 1.6 1.7 5.4 2.2 5.4.7 0-.4-2.5-2.5-5.5-4.5s-5.5-3.9-5.5-4.3.5-.2 1.2.5c1.8 1.8 3.1 1.5 2.4-.6-.4-.9.8-.1 2.6 2 3.6 4 10 7.4 11.9 6.2.7-.4.9-.3.5.4-.3.6-.2 1.3.4 1.7.5.3 1-.3 1-1.4 0-1-.6-2.2-1.2-2.4-.7-.3-.3-.6 1-.6 1.2-.1 2.2-.7 2.2-1.6 0-1.8 1.2-1.9 2.7-.4 2.2 2.2 3.2.5 1.7-2.8-1.6-3.2-1.6-3.2-3.7-1.2-2.5 2.3-3.3 2.4-4.1.3-.5-1.4-.4-1.5.9-.4 1.2 1 1.6.8 2.6-1.3.6-1.4.9-3.6.5-5-.5-2-1.1-2.3-3.1-1.9-1.4.2-3.2 1.6-4 3.1-1.4 2.5-1.4 2.5-1.5.3 0-1.2-.5-2.2-1.1-2.2s-.8-.7-.5-1.6c.4-.9.1-2.3-.6-3.1-1-1.2-.9-1.8.5-2.8 1.9-1.4 2.2-4 .6-5-.6-.4-.8-1.3-.5-2.1s-.1-1.4-1-1.4c-.8 0-1.3-.3-1-.8.2-.4-1.3-.6-3.5-.4-3.6.4-3.9.2-3.9-2.2 0-3.3-3.8-10.6-5.6-10.6-.8 0-1.4-.8-1.4-1.8 0-1.5.6-1.8 3.3-1.3 1.9.3 2.5.6 1.5.9-2.3.4-2.3.4.7 4.8 1.4 2.1 2.8 4.8 3.1 6.1.6 2.1 2 2.8 4.1 2 .9-.2.4-3.8-.7-5.2-.4-.6-1.1-2.5-1.5-4.3-.3-1.7-1.1-3.2-1.7-3.2s-.7-.7-.4-1.6-.3-2.7-1.4-4.1-2-3.4-2-4.4-.4-2.1-1-2.4c-.5-.3-1-1.2-1-1.8 0-.7.7-.4 1.4.5.7 1 1.8 1.8 2.5 1.8.6 0 1.1.9 1.1 2.1 0 2.4 2.3 5.1 4.2 4.7.6-.2 1.2.3 1.3.9 0 1.3 4.3 4.8 5 4.1 1-.9-4.1-14.5-6.2-16.6-1.4-1.5-1.7-1.4-3.5.8l-1.9 2.4.6-2.6c.6-2.2.3-2.7-1.7-3.1-1.7-.4-1.5-.5.7-.4 3.6.2 4.2-1.9 2.3-7.6l-1.4-3.8zM438.6 251.5c.4.8.2 1.5-.4 1.5-.9 0-6.2 9.8-6.2 11.6 0 .5 1.4 1.5 3.1 2.3 2.6 1.1 3.3 1.1 4 0 .8-1.4 2.4-.5 2.4 1.3 0 .6.6 1.3 1.3 1.5.6.3 1.2-.2 1.2-1.1s.7-1.6 1.5-1.6 1.5.7 1.5 1.5-.5 1.5-1.2 1.5c-.8 0-.6.6.5 1.7.9.9 1.8 1.5 2 1.2 1.2-1.3 7.9-14.1 7.6-14.4-.2-.2-3.6-2.2-7.6-4.4-7.6-4.3-10.6-5.1-9.7-2.6M489.7 255c-1.8 2.1-2.2 4-.9 4 .4 0 5.4 2.9 11.1 6.5 10.8 6.7 12.7 7.5 11.8 5-.5-1.2-.1-1.2 2.1-.4 1.4.6 3.1 1.3 3.7 1.7 2.2 1.4-5.1-4.9-7.5-6.6-1.4-.9-5.7-4-9.6-6.9s-7.5-5.3-8-5.3-1.7.9-2.7 2M603.5 257.8c-1.6 1.6-4.1 4.2-5.5 5.7l-2.4 2.7 3.9 3.4c5.9 5 6.7 5 14.5.3 3.8-2.4 6.8-4.4 6.7-4.5-.1-.2-3.8-.5-8.2-.7-4.4-.3-8.2-.5-8.4-.6-.3-.1.3-.7 1.3-1.4 1.2-.9 1.7-2.3 1.4-4.5l-.3-3.3zM484.3 262.7c-5 6.8-6.5 12.1-4 14.1 1.7 1.4 3.8-1 2.6-2.9s-1.1-2.9.1-2.9c.6 0 1 .9 1 2 0 1 .9 2.4 2 3 2.1 1.1 2.8 4 .9 4-.5 0-.7.5-.3 1.1.8 1.4 3.5-1.9 6-7.4 2-4.5 3.9-4.9 3.1-.7-.5 2-.2 3 .6 3.1.6 0 .1.5-1.3 1-2.4.9-5.3 5.2-4.2 6.3.3.3 1.4.3 2.6 0 1.4-.3 3.1.5 5.4 2.5 2.6 2.4 11.1 7.1 12.8 7.1.2 0-.2-1.1-.8-2.5s-1.6-2.5-2.2-2.5-.4-.5.4-1c1.3-.8 1.2-1.2-.7-2.5-3.2-2.3-2.9-3.8.5-2.2 1.5.7 4.2 1.4 6 1.5 3.1.2 3.3 0 3-2.5-.2-2-1.4-3.2-4.7-5-2.5-1.3-5.2-2.9-6-3.6-1.6-1.4-19.9-12.7-20.4-12.7-.2 0-1.2 1.2-2.4 2.7M818.7 269.7c.4 1 .2 1.4-.4 1s-1.3-.2-1.5.4-1.5 1.2-2.9 1.2c-2.2.2-3.9 2.7-1.8 2.7.5 0 .6.6.3 1.4s.2 1.6 1.3 1.9c1.5.3 1.3.6-.9 1.5s-2.8 1.8-2.8 4.1c0 1.6.5 3.3 1 3.6.6.4.8 1.1.5 1.6-.4.5.6 2.1 2.2 3.5 2.5 2.3 2.6 2.7 1.1 3.5-1 .5-1.5 1.6-1.1 2.4.6 1.8 5 1.3 13.1-1.7 5.7-2.1 6.1-3.1 3.2-6.8-1.1-1.4-2-3.4-2-4.5 0-2.8-6.1-15-8.2-16.3-1.4-1-1.6-.9-1.1.5M429.3 270.3c-.5.6-1.5 3.1-2.3 5.4-.7 2.4-1.6 4.3-2 4.3-.8 0-3 6.2-3 8.7 0 1.1-.3 2.3-.6 2.6-.4.4-.8 2-.9 3.5-.2 2.8 0 3 6.5 4.6 3.7.9 7.7 1.6 8.8 1.6 2.1 0 2.3-.3 5.7-9.5 1.2-3.3 3.2-8.3 4.3-11.2l2.1-5.2-4.2-1.9c-2.3-1.1-5.1-2.2-6.2-2.5-6.1-1.5-7.3-1.6-8.2-.4M451 279.5c1.2 1.4.7 1.9-1.3 1.6-.5-.1-.8.7-.7 1.6.1 1 .1 2 0 2.3-1 2.9-.7 5.1.9 5.9 1 .6 2.1.7 2.5.4.3-.3.6-.1.6.6 0 .8-.9 1.1-2.7.7-2.3-.5-3-.2-4 1.9-.6 1.4-.8 2.3-.3 2 .4-.3 1.3.2 2 1 1 1.3.9 1.5-.9 1.5-1.1 0-2.1.4-2.1 1 0 .5.6 1 1.3 1 .6 0 2.4.6 3.8 1.4 3.2 1.6 4.5 1 5.4-2.5.5-1.9.2-2.8-.9-3.2-.9-.4-1.6-1.1-1.6-1.8 0-.6.7-.8 1.7-.5.9.4 2 .1 2.4-.5.4-.7 1.7-1.3 2.8-1.4 2.7-.2 2.8 2.5.1 3.2-1.1.3-2 1.1-2 1.9 0 2-3.2 8.4-4.2 8.4-.5 0-.6.5-.3 1.1.5.6 1.2.4 2.2-.8 1.3-1.6 1.4-1.6.9-.1-.4 1.3.6 2.1 4.2 3.4 2.6 1 5.1 2.1 5.6 2.6.6.4 2.1.8 3.5.7 2.2 0 1.8-.4-2.3-2.4-2.6-1.3-5.3-2.8-5.9-3.4-1.8-1.8 4.5-1.3 7.1.5 1.3.9 2.6 1.3 2.9 1 .4-.3.1-.6-.5-.6-.7 0-1.2-.5-1.2-1.1s.9-.9 2-.6c1.3.3 2 0 2-1 0-.8.4-1.1 1-.8.5.3 1.2-.6 1.6-2 .5-2 1.1-2.5 2.6-2.2 1.6.5 1.7.3.7-.9-2-2.4 0-2.9 2.4-.6 1.8 1.8 1.9 2.4.8 3.1-.7.5-1.1 1.4-.7 1.9.8 1.3 3.8.4 4.9-1.5.4-.7 1.4-1.3 2.2-1.3.9 0 1.4-.8 1.2-2.1-.1-1.2.4-2.4 1.1-2.6.6-.3 1.2.3 1.2 1.2 0 1 .6 1.5 1.6 1.3 3-.6 1.8-2.2-3.1-3.9-4.6-1.6-5-1.6-6.1-.1s-1.4 1.5-3.1-.1c-1.1-.9-2.5-1.7-3.2-1.7-1.4 0-3.5 4.8-3.2 7.3.2 1.5-.2 1.7-1.9 1.2-1.2-.4-3.1-1.6-4.2-2.7-1.6-1.6-2.2-1.7-3.4-.7-1.1.9-1.8.9-2.6.1-.9-.9-.9-1.2 0-1.2.7 0 1.2-1.2 1.2-2.7v-2.7l3 3.2c3.6 4 6.1 3.8 7.4-.6.8-2.8.6-3.5-1.4-5.2-2.7-2.4-4.8-2.6-5.6-.5-.4.8-1 1.5-1.5 1.5-.4 0-.6-.7-.3-1.5.9-2.2-.5-1.8-2.7.7l-2 2.3.3-4.5c.2-4.3.1-4.6-3.7-6.7-4.8-2.7-9.5-3.2-7.5-.8M826.8 300.1c-.2.6-1.9 1.2-3.8 1.4-5 .4-5 .4-5 1.5 0 .5.6 1 1.3 1 .8 0 1.9 1.2 2.6 2.6.7 1.6 1.7 2.4 2.6 2 1.1-.4 1.3.1.9 2.3-.5 2.4-.2 2.9 2.1 3.5 3.3.8 2.8 3-.9 3.4-4.4.5-5.9-.4-4.4-2.8 1.1-1.6 1-2.2-.4-3.6-1.5-1.5-2.1-1.5-5-.4-1.8.7-3.7 1.7-4.3 2.2-1.4 1.3 1.5 2.9 3.9 2.2 1-.3 1.6-.2 1.4.2-.2.5-1 2.4-1.7 4.1-1 2.7-1.9 3.3-4.1 3.3-3.2 0-4.3 1.1-3.4 3.3.3.9 1.3 1.3 2.6.9 1.4-.3 1.9-.1 1.4.6-.4.7-.3 1.2.2 1.2 1.2 0 2.3 4 1.5 5.3-.3.5-.9.3-1.4-.4-.7-1.1-.9-1.1-.8.1 0 .8.4 2.4.9 3.5.6 1.5.2 2.4-1.4 3.7-1.1 1-1.6 1.8-.9 1.8.6 0 1.5-.5 1.8-1 .3-.6 1-1 1.5-1 .6 0 .1 1.7-1 3.9-2.4 4.4-1.8 7.1 1.6 7.1 1.3 0 2.3.3 2.3.7-.1.5-.1 1.5 0 2.2.1 1.2.4 1.2 1.3.3.7-.7 2.9-1.2 4.9-1.2 2.9 0 3.9-.5 4.4-2 .3-1.1 1.5-2.1 2.6-2.1 1-.1 2.9-.2 4.1-.2 1.5-.1 2.3.4 2.3 1.4 0 2 3.4 5.4 5.6 5.5 1.4.1 1.5-.4.8-2.8-1.2-4.2-2.7-5.8-5.8-5.9-2.5-.1-2.5-.2.4-.8 3.3-.7 3.3-.8 2.2-14.6-.3-3.3-.6-6.6-.6-7.3-.1-.7-.5-1-1.1-.7-.5.3-1.5.3-2.2-.1-.8-.5-.6-1.1.6-2 2.8-2 1.7-5.8-1.7-6.2-2.8-.3-2.8-.4-1.2-2.8 1.5-2.3 1.4-2.4-.4-2.4-2.8 0-3.3-1.4-1-2.8 1.4-.9 1.9-.9 1.9 0 0 .6.3.9.6.6s.2-2.2-.1-4.1c-.6-3.1-1.1-3.5-3.3-3.4-1.7.1-2.6-.3-2.4-1.1.3-1.5-1.5-1.6-2-.1M426.7 304.2c-.3 1.3-.9 3.3-1.2 4.5-.6 1.9-.4 2.3 1.4 2.3 1.2 0 2.1-.6 2.1-1.6 0-.8.5-1.2 1-.9.6.4.7 1.1.4 1.7-.4.6.4 2 1.7 3l2.4 2-2.3-.5c-1.8-.4-2.5 0-3.3 1.9-1.7 4.7-1.1 7.1 1.9 7.7 3.5.7 4.4-.3 5.3-6 .4-2.7 1-6.9 1.4-9.6l.8-4.7h-3.7c-2.2 0-3.6.5-3.7 1.2 0 .7-.4.3-.9-1-.5-1.2-1.3-2.2-1.9-2.2-.5 0-1.1 1-1.4 2.2M441.3 308.9c.3 1.1 0 2.2-.6 2.4s-.8 1-.5 1.9c.6 1.5 6.5 3.1 22.1 5.9 5.9 1 7.1.9 8.4-.4 1.7-1.7 1-3.7-1.2-3.7-.8 0-4.9-1.1-9.1-2.5s-8.8-2.7-10-2.9c-1.3-.3-2.8-.7-3.4-1.1s-2.2-.9-3.6-1.1c-2.3-.4-2.6-.2-2.1 1.5M438.6 319.2c-.3 1.3-.6 2.6-.6 3 0 1.5 3 .8 5-1.2 1.9-1.9 2-1.9 2-.1 0 1-1 2.6-2.2 3.4l-2.3 1.6h2.3c1.3.1 6.9 1 12.5 2.2l10.1 2.1 2.3-2.8 2.2-2.8-3.2-1.2c-5.9-2.1-23.2-6.3-26.3-6.4-.7 0-1.4 1-1.8 2.2M910.4 328.2c-.3.4-2.7 1.8-5.4 3-5.3 2.4-5.9 3.8-1.9 4.9 2.6.8 2.6.8-.9 1.5-3.1.5-9.4 5.4-8.9 6.8.2.6 1.4 1 2.5.8 1.2-.2 2.2.2 2.2.7 0 1.8 2.9 1.2 5-.9 1.1-1.1 2.5-2 3-2 1.1 0 1.3-1.3.4-2.3-.8-.7-3.6.6-5.7 2.7-2 2-4.1.5-2.4-1.7 1.3-1.7 4.1-2 15.7-1.4 7.7.5 8.7.1 6.4-2.4-1.6-1.8-1.6-1.9 1.4-1.9 3.3 0 3.8-.6 2.4-2.7-.5-.8-3.3-1.1-8.6-.9-6.8.3-7.7.1-6.1-1.1 1.1-.7 2.9-1.3 4.2-1.3s2.3-.6 2.3-1.4c0-1.4-4.8-1.8-5.6-.4M553 340.2c-5 5.6-12.5 11.1-14.9 11.1-.9 0-1.8.3-2.1.6-1.2 1.5-9.1 5.2-9.9 4.7-1.6-1-12.9 4.4-13.4 6.5-.3 1-.3 1.9-.1 1.9 1.1 0 6.4-3.1 6.4-3.8 0-.4 1.4-1.5 3-2.4 6.7-3.8 1.7 2-5.6 6.5-2.2 1.4-4.7 3.2-5.5 4s-2.9 2.2-4.6 3.1c-3.5 1.8-5.5 4-2.7 2.9 3.2-1.2 14.8-8.5 18.1-11.4 4.7-4.1 14.3-10.1 15.5-9.7.6.2-1 1.7-3.5 3.3-8.6 5.6-29.7 20.6-29.7 21.1 0 .3.6.2 1.3-.2 3-1.9 21.3-14.1 23.7-15.9 1.5-1.1 4.6-3.3 6.8-4.9 2.4-1.6 3.9-3.3 3.5-4-.3-.6-.3-.8.2-.4.9.8 15.5-12.1 18-15.8 2.6-4 .3-2.5-4.5 2.8M896.8 353.7c-3.1 3.2-4.7 5.7-4.6 7.3 0 5-.9 13-1.5 13.7-.4.3-.7 2.6-.7 5 0 3.3.7 5.3 2.8 7.9 1.5 1.8 3 3.4 3.3 3.4 1.6 0 7.8-14.1 8.4-19.2l.7-5.6-3.6-1.3c-4.6-1.7-4.6-3.5.2-4.6 2.3-.6 3.6-1.5 3.4-2.3s-.5-3-.6-4.9c-.2-2.1-1-3.7-1.7-3.9-.8-.1-3.5 1.9-6.1 4.5M666.5 356.2c-1.6 1-2.9 2.3-2.7 2.9.1.6-.2.8-.8.4-.5-.3-2.1 0-3.5.8-2.4 1.2-2.5 1.5-1.1 2.6 1.8 1.5 2.2 3.6.5 2.5-.8-.4-.9.6-.5 3.7l.6 4.4-1.9-3.9-1.9-4-2.3 4.7c-1.3 2.6-2 5-1.6 5.3.9.9 9.8-1.7 9.2-2.7-.3-.4-.1-1 .4-1.4.6-.3 2.2-3.2 3.7-6.5 2.3-5.1 5.4-9.5 5.4-7.7 0 .4-1.8 4.3-4 8.9-2.1 4.5-3.8 8.3-3.7 8.5.5.5 8.2-1.9 9.2-2.8.6-.7.5-1.3-.5-1.9-1.2-.8-1.2-1-.1-1s1.2-1.2.7-5.4c-.3-3-.9-6.3-1.3-7.3-.8-1.9-.9-1.9-3.8-.1M653.8 376.8c-2.9.2-3.8.8-3.8 2.2 0 1-.4 2-.8 2.2-1.2.4-8.2 9.8-8.2 10.9 0 1 6 1.2 8.4.3.9-.3 1.6-1.6 1.7-2.8 0-2 .1-2 .9-.1.7 1.8.9 1.7 1.9-1 .6-1.7 2.1-4.7 3.2-6.8 2.5-4.5 1.8-5.3-3.3-4.9M444.5 423.7c-4.6 1-5.1 1.3-3.5 2.3.8.6 1 1 .5 1-.6 0-1.6-.5-2.2-1.1-.9-.9-1.8-.8-3.7.5-1.4.9-3.9 1.6-5.6 1.6-2.5 0-3 .4-3 2.4 0 1.4.4 2.7.9 3s1.2 2.3 1.6 4.3c.4 2.1 1 4.2 1.3 4.8.4.5.7 1.5.8 2.1s1.4 2.9 2.8 5.2 2.6 4.5 2.6 5c0 1.9 2.6 6.2 3.8 6.2.9 0 1.1.7.7 2-.7 2.2 2.2 6.9 4.3 7 .6 0 1.2 1 1.2 2.3s1.5 4 3.4 6.1c1.9 2 3.6 4.1 3.8 4.6.3.9 13.1-8.4 13.6-9.9.2-.6-.8-3-2.3-5.5l-2.6-4.5-4 2.1c-5.3 2.7-6 1.8-.9-1.1 3.8-2.1 5.2-4.1 3-4.1-.5 0-1-.6-1-1.3-.1-3.5-1.6-3.8-6.9-1.2-2.9 1.5-5.5 2.5-5.8 2.2-.6-.7 6.8-5.7 8.4-5.7 1.8 0 1.6-.9-.8-6.6-4.1-9.7-4.9-11.2-6.2-11.7-.9-.3-.9-.7.1-2 1.6-1.9.8-3.7-1.6-3.7-1.5-.1-1.5-.2.1-1.5 1.3-.9 1.7-2 1.2-3.4-.3-1.2-.9-2-1.3-2-.4.1-1.6.3-2.7.6M785 431c0 .6 1 1.4 2.3 1.9 1.9.8 3.2 1.7 8.4 6.1.7.5 1.9 1 2.7 1s2 1.5 2.7 3.4c1.2 3.2 5.3 6.6 8.1 6.6 1 0 .9-.3-.2-1-1.2-.8-1.1-1 .6-1 2.8 0 3.6 1 2.3 2.7-.8.8-.8 1.3-.1 1.3.6 0 1.9.3 2.9.6 1.5.5 1.5.4.3-.5-2.4-1.6-.2-2.6 3.2-1.3 3 1.1 3 1.1 2.5-1.6-.5-2.4-.2-2.8 2.1-3 1.4-.1 3-.6 3.4-1 1.2-1.2-1.5-5.4-3.9-6.3-2-.7-2.3-.5-2.3 1.6 0 1.4-.4 2.5-.8 2.5-1.7 0-2.1-1.3-.9-3.2 1-1.6.9-2.2-.7-3.4-1.7-1.2-2.2-1.2-3.6.1-2.2 2-4 1.9-5.6-.2-.7-1-1.6-1.5-2-1.1s-.1 1.5.7 2.4c1.1 1.4 1.1 1.8.1 2.1-.6.3-.9 1-.5 1.6.4.7 0 .8-1.1.4-1-.4-2.4-.7-3.2-.7s-1.4-.7-1.4-1.5.5-1.5 1-1.5c.6 0 1-.7 1-1.5s.6-1.5 1.3-1.5c.6-.1.1-1-1.3-2.1-2.2-1.9-3.3-2-9.2-1.4-4.6.4-6.8.3-6.8-.4 0-.6-.4-1.1-1-1.1-.5 0-1 .5-1 1M483 442c-1.3 1-4.1 2.4-6.2 3.1-4.9 1.6-6.3 3.2-4.3 4.9 1.5 1.3 2.1 4 .8 4-.4 0-1.7-1.2-2.8-2.7-1.7-2-2.3-2.3-2.7-1.1-.4.9.7 2.5 3 4.3 1.9 1.6 3.2 2.3 2.8 1.7-.5-.8 0-1.2 1.3-1.2s2.6 1.4 4.1 4.5c1.2 2.5 2.6 4.5 3.2 4.5.5 0 3-1.5 5.6-3.3 2.5-1.7 5-3.5 5.5-3.8 1.4-1-1.5-6.9-3.3-6.9-.8 0-3.4.9-5.7 2-2.4 1-4.3 1.7-4.3 1.5s2-1.6 4.5-3.2c3.9-2.4 4.5-3.2 4-5.3-1.1-4.3-2.7-5.2-5.5-3M770.6 441.1c.5.8-.1 1-2 .7-3.2-.6-4.2.5-2.1 2.5 2.1 2.1 1.9 3-.6 2.2-1.4-.5-2.7-.1-3.8 1.2-1.7 1.8-1.6 2.1 5.5 8.1 4 3.4 7.8 6.2 8.4 6.2 1.8 0 13-14.2 13-16.6 0-.6-1.7-1.8-3.7-2.7-4.5-1.9-12.6-3.3-10.3-1.8.8.5 1.2 1.3.9 1.6-.9.9-4-.6-3.3-1.6.3-.5-.2-.9-1.1-.9-1 0-1.3.5-.9 1.1M791.6 448.5c-.3.8-3 4.8-6.1 8.8-3 4.1-5.5 7.8-5.5 8.3s1.4 1.7 3.1 2.6c3.8 2.2 2.9 4.2-1.4 3.2l-3.1-.6 3.2 3.2c1.8 1.8 3.1 3.5 2.8 3.7-.7.7-4.6-1.6-4.6-2.7 0-.6-.5-1-1.1-1s-1.7-.7-2.6-1.6c-1.1-1-1.9-1.2-2.6-.5-1.2 1.2 2 5.4 3.7 4.8 2-.7 3.5 2.5 2.2 4.5-.9 1.5-.6 2.3 1.6 4.4 1.4 1.5 3.7 2.8 5.1 2.9 3.7.4 6.7 2.4 6.7 4.3 0 2.3 1.9 4.2 4.2 4.2q1.8 0 1.8-2.4c0-1.7.6-2.6 2.1-2.8 2.1-.3 2.1-.4-.8-3.5-2.7-2.8-3.2-3.1-4.3-1.8-1.6 1.9-4.4 2-3.7.1.3-.8-1-2.7-3-4.5-1.9-1.7-3-3.1-2.5-3.1.6 0 1.4.5 1.8 1.1.4.7 1.9.8 3.7.5 2.7-.6 3.6-.1 6.8 3.4 2 2.2 4.4 4 5.2 4 2.2 0 14-16 19-25.6 1.6-3.1 1.6-3.1-1.1-4.4-1.5-.8-3-1.3-3.5-1.2-.4.1-2.5-.7-4.7-1.8-2.1-1.1-4.8-2-5.9-2s-2.2-.9-2.6-2.1c-.5-1.5-1-1.7-2-.9-.9.8-2.6.5-6.3-.9-4.2-1.7-5.1-1.8-5.6-.6M510 462.6l-3.4 3.3 1.9 2.3c1.1 1.3 2.3 2.5 2.6 2.8s1 1.2 1.5 2.1 2.5 3 4.5 4.7l3.6 3.1 3.4-3.3c7.7-7.5 12.3-12.7 10.7-12-1.1.3-1.8.1-1.8-.5 0-.8-.5-.9-1.9-.1-2.6 1.4-2.8 1.3-3.4-1.1l-.6-2.1-3.8 2.2c-2.1 1.3-4.7 3.1-5.8 4-4.9 4.1-4.5 2.8.6-2.1 3.1-3 4.9-4.9 4-4.3-4.2 2.8-11.3 6.5-11.8 6.1-.3-.3 1.2-1.7 3.4-3 2.1-1.3 4.4-3.1 5-3.9 1-1.2.7-1.4-2-1.4-2.3 0-4.3.9-6.7 3.2M739 460.5c-1.3 1.6-.8 2 3.5 2.7 1.8.3 1.7.5-.8 2.9l-2.7 2.5 4.1 5.9c2.3 3.3 4.5 6.2 4.9 6.5s1.2 1.5 1.9 2.7c.6 1.3 1.6 2.3 2.2 2.3 1.7 0 12-9.3 11.7-10.6-.2-.6-3.4-3.9-7.3-7.2-6.5-5.7-7.1-6-7.9-4.1-1.3 2.8-3.1 1.8-3.1-1.8 0-2.4-.4-2.9-2.6-3.1-1.5-.1-3.2.5-3.9 1.3M530.7 476.8l-6.7 6.7 2.8 2.7c4.3 4 7.9 4.6 10 1.7.9-1.3 3.1-4 5-6.1l3.3-3.6-2.5-2.7c-1.4-1.5-2.3-3.2-2-3.9.2-.6-.3-1.2-1.3-1.3s-4.8 2.9-8.6 6.5M552.2 481.9c-1.8 2.2-3.2 4.6-3.2 5.3s-1 1.8-2.2 2.3c-1.3.6-5.3 5-9.1 10l-6.7 9 2.7 2.3c5.9 4.9 5.8 4.9 11-3.8 2.6-4.4 7.6-12.4 11.1-17.7 3.4-5.3 6.2-10 6.2-10.5 0-.4-1.5-.8-3.3-.8-2.7 0-4 .8-6.5 3.9M565.3 479.2c-5 6.3-23.3 35-23.3 36.4.1.5 2.1 2.2 4.6 3.8 2.5 1.5 4.3 3 4.1 3.2s-2.8-.8-5.7-2.2c-3.6-1.7-5.6-2.2-5.8-1.5s-1.9 3.4-3.7 6.1l-3.4 5 4.3 2.5c2.3 1.4 5.7 3 7.5 3.6 4.1 1.4 3.7 2 14.6-19.3 8-15.7 9-19 5-17.4-.7.2-1.9-.2-2.5-.9-.7-.8-1.6-1.2-2.1-.9s-.9-.2-.9-1.1c0-1.2.5-1.5 1.6-1.1.8.3 2.3.2 3.3-.3 1.3-.7 2.1-.5 3.1.9 1.3 1.9 1.5 1.8 2.7-1 1.1-2.6.9-13.7-.3-14.9-.2-.2-1.6 2.3-3.1 5.5-1.4 3.2-2.9 6.1-3.3 6.4s-1 1.2-1.3 2c-.4 1.1-.6.9-.6-.5-.1-2.4 3.4-10.3 5.6-12.7.9-1 1.4-2 1.1-2.3s-1 0-1.5.7M763.7 481.9c-3.3 4.5-9.9 9.1-12.8 9.1h-3l1.9 2.8c1.1 1.5 3.2 3.4 4.6 4.1 2.3 1.3 2.8 1.2 4.4-.2 1.7-1.5 1.9-1.5 3.5.1 1.7 1.6 1.6 1.7-1.5 2.8-2.7.9-3.4 1.7-3.6 4.2-.3 2.8-2.2 4.7-2.2 2.2 0-.6-.9-1-2-1-1.7 0-1.9.4-1.4 2.7.6 2.3.4 2.5-1.5 2-1.4-.3-2.1-.1-2.1.9 0 .8-.4 1.4-1 1.4-.5 0-1-.5-1-1 0-1.5-1.7-1.2-3.9.7-2.3 1.9-14.2 8.6-26.1 14.6-13.7 7-13 6.3-11.3 11.4.8 2.4 1.8 4.3 2.2 4.1.3-.2 3.5-1.7 7.1-3.5 3.6-1.7 8.2-3.9 10.3-4.7 3.2-1.3 3.7-1.9 3.2-3.6-.6-1.9-.5-2 1.3-.9 1.7 1.1 2.5.9 5.4-1.2 1.8-1.4 5.6-3.9 8.3-5.4 2.8-1.6 7.3-4.6 10.1-6.7 5.9-4.4 6.4-4.5 8.4-1.8 1.4 2 3.7 2.9 2.5 1-.9-1.5.4-3 2-2.3 1.9.7 2 4.3.1 4.3-.7 0-1.6.9-1.9 2-.3 1.2-1.4 2-2.7 2-1.7 0-2.1.5-2 2.7.3 4.1.1 5-.9 3.5-.4-.7-1.8-1.4-2.9-1.5-2.7-.2-3-3.2-.4-4.3.9-.4 2.1-.6 2.6-.5 1.6.4 3.4-2 2.9-3.9-.7-2.8-3-2.5-6.1.8-3.4 3.5-20.6 16.4-24.9 18.6-1.7.9-3.5 2-3.8 2.6-1.1 1.8 4.1-.7 10.1-4.9 3.3-2.3 6.3-4.1 6.7-4.1s1.8-.9 2.9-2c2.5-2.3 3.5-1.7 4.4 2.8.6 3.1-.7 4.5-2.1 2.2-1.1-1.8-3.5-1.1-3.5 1.1 0 1.4-.5 1.9-1.4 1.6-2-.8-7.6 2.1-7.6 3.9 0 .8-.4 1.2-1 .9-1.5-.9-7 2.3-7 4.1 0 1.3-.3 1.4-1.4.5-1.5-1.2-4.6-.5-4.6 1.1 0 .5-.9.7-1.9.3-1.1-.3-2.2-.1-2.6.6-.4.6-2.3 1.7-4.1 2.5-3.8 1.6-4 2.3-1.8 6.5 1.4 2.9 1.7 3 3.3 1.5 1-.9 2.2-1.6 2.8-1.6s1.3-.7 1.7-1.5c.3-.8.9-1.5 1.3-1.4s1.3 0 1.8-.1c1.2-.3 3.3-.6 5.8-.9 1.4-.1 1.6-.7 1.1-2.8-.7-2.7-.7-2.7 1-1 2 1.9 3.8 1.7 9.6-1.4 1.9-1.1 4-1.9 4.6-1.9 1.7 0 5.7-4.7 5-5.9-.4-.7-.1-.9.8-.5.8.3 2.8-.2 4.5-1.1 2.5-1.2 3.1-2.2 3.1-4.8.1-2.7.3-3 1.3-1.7.7.9 1.7 1.5 2.3 1.5 1.8 0 4.5-3.4 4.2-5.2-.2-1 .3-1.8 1.2-1.8.8 0 1.6-1 1.8-2.3.2-1.2 1.1-2.2 2-2.2 2.2-.1 6.2-3.4 6.2-5.2 0-2.1 2.1-3.8 4.8-3.8 2.6 0 14.1-9.6 14.2-11.8 0-.7-.7-2-1.5-2.8-.8-.9-1.5-1.2-1.5-.8 0 .3-.7.1-1.5-.6-.8-.6-2-.8-2.6-.4-.7.4-.9.3-.6-.2.8-1.3-.1-2.4-4.8-5.8-2.2-1.7-5.7-4.7-7.8-6.7-4.1-4.1-8.8-4.9-11-2"/><path d="M731.7 485.2c-.3 2 .1 4.2.9 5.6 1.6 2.4 11.3 8.9 12.7 8.4.5-.1.6.2.3.7s.1 1.4.9 2.1c1.2 1 1.5.9 1.5-.4 0-.9.7-1.6 1.5-1.6s1.5-.6 1.5-1.3c0-2-11.7-14-12.9-13.3-.6.4-1.1.2-1.1-.4s-.4-.9-.9-.6-1.1-.1-1.5-.9c-.9-2.5-2.3-1.7-2.9 1.7M710.5 493.6c-1.1.9-2.8 2.1-3.7 2.8-2.1 1.5-3.2 6.6-1.5 6.6.7 0 2.7-.4 4.5-.9 1.7-.5 3.2-.6 3.2-.2 0 1-7.1 3.2-8.2 2.4-.6-.3-.8 1.2-.7 3.5.2 2.2-.2 4.6-.8 5.4-1.4 1.7-2.8 12.9-1.9 16.2l.6 2.4 7.2-3.5c4-1.9 7.5-3.7 7.7-3.9s-.4-1.3-1.4-2.4c-1.3-1.4-1.5-2.4-.8-3.1s1.4-.1 2.3 2l1.2 3.1 6-3.2c5.2-2.9 5.8-3.6 5.3-5.8-.6-2.4-.6-2.4 1.4-.6 3.5 3.2 6.9-1.2 4.5-5.8-2.1-4.1-1.7-5.3.7-2.2 1.2 1.5 3 2.6 4.4 2.6h2.4l-2.3-2.5c-1.3-1.4-2.8-2.5-3.5-2.5-.6 0-1.1-.7-1.1-1.5s-.5-1.5-1.1-1.5-3-1.4-5.4-3c-2.4-1.7-5.5-3-7-3-1.4 0-4.2-.7-6.2-1.5-1.9-.8-3.6-1.5-3.7-1.5 0 0-1 .8-2.1 1.6M629.7 502.7c-.4.3-.7 5.5-.7 11.5 0 9.6.2 10.8 1.8 10.8 1.5.1 1.5.2-.3 1.2-1.1.6-3.7 1.1-5.8.9-4.1-.2-4.3.1-5 6.5-.3 2.6-.1 4.1.7 4.2.6 0 2 .2 3 .4 1.4.2 2.2-.6 2.9-3.2l1-3.5.6 2.9c.8 3.9 2.2 4.2 6 1.1 3-2.6 3.1-2.9 3.1-10.9 0-11.7-.9-17.6-2.6-16.9-.9.3-1.9-.6-2.7-2.6-.7-1.7-1.6-2.8-2-2.4M567.8 504.7c-4 4.5-13.3 21.7-16.4 30.6-1.7 4.9-1.7 4.7.2 4.7.9 0 2.7.9 4.1 2s3.4 2 4.4 2 2.1.4 2.4 1c.3.5 1.4 1 2.4 1s3.2.7 4.9 1.5c1.7.9 4.1 1.8 5.2 2 2.1.4 2.1.2 1.5-7.2-.3-4.2-1-8.3-1.4-9.2-.5-.9-1.2-4.3-1.6-7.6l-.7-6-2.4 5c-1.3 2.7-3.5 7.5-4.9 10.5-1.3 3-2.5 5-2.5 4.3s1.8-5.2 3.9-10.1c4.6-10.4 5.9-18.2 3.9-23.1-1.3-3.2-1.4-3.2-3-1.4M641.3 509.7c-.3.7-.3 2.5-.1 3.8.3 1.4.2 2.5-.3 2.5-.4 0-1-1.5-1.2-3.3-.2-1.7-.4 1.7-.4 7.8 0 8.1.2 9.5.6 5.3.9-8.5 2.1-8.2 2.1.5 0 4.2.2 7.7.5 7.7s1.4-.5 2.4-1.2c2-1.2 5.1-.5 5.1 1.2 0 .5-.9 1-2 1-1.3 0-2 .7-2 1.9 0 2.4 1.6 3.6 6.4 5l3.9 1-.6-7.7c-.8-10.3-1.7-14.3-3-13.5-.7.4-.8-.5-.4-2.6.5-2.3.2-3.7-.8-4.8-.8-.8-1.5-2.4-1.5-3.6 0-1.9-.6-2.2-4.1-2.3-2.5 0-4.3.5-4.6 1.3M524.3 516.8l-4.1 5.8 5 3.2c2.8 1.9 5.5 3.1 6.1 2.9.7-.3 2.6-3 4.4-6.1l3.2-5.6-4.4-3c-2.4-1.6-4.8-3-5.2-3-.5 0-2.7 2.6-5 5.8"/></svg>