<svg xmlns="http://www.w3.org/2000/svg" width="1706.667" height="960" viewBox="0 0 1280 720"><path d="M0 194c0 193.3 0 194 2 194.1 3.3.2 3.8.4 4.6 1.1.4.5-.9.8-2.9.8H0v330h195.9c155.8 0 196-.3 196.4-1.3q.6-1.35.6 0c.1 1 5.7 1.3 24.6 1.3 23.6 0 24.5-.1 24.5-1.9 0-1.1.5-2.3 1-2.6.6-.4 1 .5 1 1.9v2.6h25.1c23.9 0 25-.1 24.4-1.9-.3-1-.2-2.6.1-3.6.7-1.7.8-1.6 1.5.3.5 1.2.6 2.9.3 3.7-.5 1.3.7 1.5 7.5 1.5 7 0 8.1-.2 8.1-1.8.1-1.6.1-1.6 1.1 0 .8 1.4 2.4 1.8 7.4 1.8 6.2 0 6.5-.1 7.1-2.8 1.3-5.8 4.6-16.4 4.9-16 .2.2-.6 4.5-1.8 9.6l-2.3 9.2H566v-8.3c0-4.5-.5-12.2-1-17.2-2.4-23.4-4-48.6-3.4-54.5.3-3.6 2.4-15.9 4.5-27.3 3.5-18.8 4.9-31 3.7-32.2-.2-.2-2.2 4.3-4.3 10-2.2 5.8-4.3 10.5-4.7 10.5-.5 0-.8.7-.8 1.5s-.4 1.5-.9 1.5 1.4-6.4 4.1-14.3c5.2-14.8 5.3-15.1 5-20.5-.2-3.6-.6-3.8-14.2-8.8-4.1-1.5-8-3.2-8.7-3.6-1.5-1.1-2-.3-9.4 14.5-2.4 4.8-4.6 6.4-3.3 2.4.4-1.2 1-2.4 1.3-2.7.4-.3 1.5-2.5 2.5-5s2.2-5.3 2.7-6.2c1.7-3.3.9-4.3-6.4-8.2-3.9-2.2-9.7-5.7-12.8-7.8s-6.1-3.8-6.7-3.8-1.6-.8-2.1-1.8c-.9-1.6-1.1-1.6-2.5.3-2.8 3.9-5.6 6.8-6.1 6.3-.3-.3.8-2.2 2.5-4.3 3.6-4.5 3.9-6.5.9-5.8-1.9.5-2 .4-.8-1.5 1-1.5 1.7-1.8 2.6-1.1 2.1 1.8 4.6.1 9-6 4.6-6.3 5-7.1 3.1-7.1-.7 0-4.3-3-8-6.7-5.6-5.4-6.8-6.2-6.8-4.5 0 2.9-1.8 2.8-3-.2-.7-1.8-1.4-2.3-3-1.9s-1.9.2-1.4-1.1c.3-.9 1-1.6 1.5-1.6 1.7 0 .9-2.4-1.9-5.4-2.6-2.9-2.6-2.9-.2-1.3 1.4 1 3.2 2 4.1 2.3s2.2 1.7 3 3c1.8 3.4 7.4 7.5 9.3 6.8 1.2-.5 1.5-.2 1 .9-.3 1 .5 2.5 2.2 3.9 1.4 1.3 3.2 2.8 3.9 3.5 1.4 1.3 3.1-.2 7.4-6.5 2-2.8 2.1-3.4.7-4.7-.9-1-1.6-1.1-1.8-.4-.4 1.3-3.8-.1-13.3-5.4-3.3-1.9-6.5-3.2-7.2-3-.7.3-.9-.3-.6-1.6.4-1.6-1.1-4.9-4.4-9-1.2-1.6-12.5 13.3-11.6 15.4.2.8-.7 2.1-2.2 3.1s-2.4 2.3-2.1 3.1c.3.7-.4 2.1-1.5 3.1-1.1.9-3.2 3-4.7 4.6-9.2 10-9.3 10-6.8 10.9.9.4 2.6-.8 4.2-2.8 1.5-1.9 3-3.3 3.2-3 .2.2-.7 1.8-2.2 3.5-3.8 4.6-4.6 3.3 8.5 13.5 2.8 2.2 5.9 4.8 6.9 5.7s2.8 2.1 3.9 2.8c2 1 3 4 1.4 4-.5 0-3-1.8-5.8-4-2.7-2.2-8.4-6.7-12.5-9.9-7.8-6.1-22-20.2-22-21.8 0-.5-2.8-3.8-6.3-7.4-3.5-3.5-7.1-7.5-7.9-8.8l-1.6-2.3-4.9 3.3c-2.6 1.8-6.4 4.5-8.3 6-3.9 3.1-10.9 6.3-11.8 5.4-.3-.3.4-1.5 1.7-2.6 1.8-1.7 2-2.4 1-3.5-1.7-2 .5-4.4 2.3-2.6s3.4 1.5 10.4-1.9c8.9-4.4 9.3-5.1 5.3-9.4-6.5-6.8-7.9-8.6-7.9-9.9 0-2.7-3.2-7.6-4.9-7.6-1.4 0-1.7-.6-1.4-2.3.3-1.3-.6-3.7-2.1-6-1.4-2.1-2.6-4.2-2.6-4.7s-1-3.3-2.3-6.2-3.1-7.3-4.1-9.8-2.2-5.2-2.6-6.1c-.9-1.8.7-5.2 2.1-4.4.5.4.9 1.4.9 2.4 0 .9.9 3.6 2 5.9 1.1 2.2 2 4.6 2 5.2 0 1.4 4.5 10.8 8 16.7.6 1 1.3 2.6 1.6 3.5.4 1 1.3 1.8 2.1 1.8 1 0 1.2.6.8 1.9-.7 2.2 1.1 5.9 3.8 7.9.9.7 1.7 1.9 1.7 2.5 0 .7 2 3.4 4.4 6.1 4.9 5.4 4.3 5.4 12.8-1.1l5.6-4.3-2.6-5c-1.5-2.7-3.2-5-3.8-5-1.4 0-7.2 2.8-10.7 5.2-1.5 1.1-3.3 1.8-3.9 1.6-.7-.3 1.8-2.1 5.5-4.2s6.9-4.1 7.2-4.6c1-1.6-1.8-6-3.7-6-1 0-3.5.7-5.5 1.5-1.9.8-3.8 1.5-4.1 1.5-1.2 0 1.6-2.2 4.9-3.8 4.3-2.1 4.2-4.2-.7-14.6-2.7-6.1-3.9-7.6-5.7-7.7h-2.2l2.3-.9c2.6-1.1 2.8-2.5.5-3.9-1.4-.8-1.5-1.2-.4-2.5 2.7-3.3-3-6.1-7.7-3.7-.9.4-3.1 1.6-4.9 2.5-4.1 2.1-6 2.2-4.3.1.7-.8 1.8-1.5 2.6-1.5.7 0 2-.7 2.8-1.5.8-.9 3.2-2.1 5.1-2.8 2-.7 3.6-1.6 3.6-2-.1-.4-.3-.7-.6-.7h-3.1c-1.4 0-2.3.4-1.9 1 .3.5.1 1-.4 1-.6 0-1.1-.7-1.1-1.5s-.4-1.5-.8-1.5c-2.2 0-.4-4 2.5-5.5 1.8-1 3.3-2.4 3.3-3.2 0-.7.5-1.3 1-1.3.6 0 1-.7 1-1.5 0-1.7-.4-1.8-2.8-.6-8.7 4.6-14 5.8-14.9 3.4-.4-1-1-2-1.5-2.3-.4-.3.8-2.2 2.7-4.1l3.4-3.5-2.9.4c-3.2.5-7.6-1.4-5-2.1 8.3-2.3 10.5-3.4 10.2-5-.2-1.2.4-1.7 1.9-1.7 1.8 0 1.9.2.9 1.5-.9 1.1-.9 1.5-.1 1.5.7 0 .9.5.5 1.1-.4.8.1.9 1.7.4 3.6-1.1 5-2.6 4.4-4.6-.3-.9-.1-2 .5-2.4.5-.3 1 .1 1 .9 0 3 3 1.6 8.7-3.9 3.1-3 6.6-5.5 7.7-5.5 2.7 0 5.1-1.6 3.8-2.4-.5-.3-5.9-.6-11.8-.6-6 0-12.1-.2-13.6-.4-1.9-.3-2.8 0-2.8 1 0 .8.7 1.4 1.5 1.4s1.5.6 1.5 1.4c0 1-.8 1.2-3.2.7-2.9-.6-3.2-1-3.3-4.4-.1-2.8.3-3.8 1.7-4.3 1.6-.5 1.8-1.2 1.3-3.2-.4-1.5-.8-2.9-1-3.1-.9-.8-5.5 1-5 1.9.4.6 1 .8 1.5.5.4-.3 1.3.2 2 1 1 1.3.9 1.5-1.1 1.6-1.3.1-2.8 0-3.4-.1-.5-.2-1.8-.4-2.7-.4-1-.1-2.1-.6-2.5-1.1-.5-.4-.3-.5.4-.1.6.3 1.4.2 1.8-.4s-.5-1-2-1c-1.4 0-2.8-.7-3.1-1.5-.4-.8-1.4-1.5-2.3-1.5-1 0-2.6-.7-3.7-1.5-1-.8-2.2-1.5-2.6-1.5-1.3 0-.9 3 .5 3.2.6 0 1.7.2 2.2.3.6.2 1.9.4 3 .5l2 .1-2 .9c-1.1.5-3.2.9-4.8.9-2.2.1-3.1-.6-4.4-3.3l-1.6-3.4-21.1-.7c-11.7-.4-22-.6-23.1-.4-1.4.3-2.1 1.5-2.6 4.2-.7 4.7-1.2 5.1-3.9 3.7-1.7-.9-1.9-1.4-1-2.6.7-.8.9-2.5.6-4l-.7-2.7-8.6.6c-5.6.3-8.8 1-9.4 1.8-1.2 1.8-1.1 6.3 0 7.4.5.6 3.2 5.5 6 10.9 4.8 9.3 5.1 10.4 5.1 17.2 0 7.3 1.4 12.4 3.4 12.4.6 0 .1.7-1.1 1.5-1.9 1.3-2.1 2-1.3 4.1.6 1.4 1 6.1 1 10.5 0 6.4.3 7.9 1.5 7.9.8 0 1.5.9 1.5 1.9 0 1.1.9 2.1 2.3 2.5 2.4.6 4.7 5.3 4.7 9.8 0 1.4.6 4.1 1.4 5.9.8 1.9 1.7 5.5 2.1 8 .6 4.2.4 4.8-1.9 6.6-1.4 1.2-2.6 3-2.6 4.2s-.4 2.1-1 2.1c-.5 0-1-.9-1-2s-.7-2-1.5-2-1.5-.5-1.5-1c0-2.1-8.7 2.6-24 12.9-7.3 5-15.6 9.1-18.3 9.1-1.3 0 .4-1.3 4.3-3.1 3.6-1.7 7.8-4.2 9.4-5.6 1.6-1.3 5.9-3.9 9.5-5.8 6.3-3.1 14.1-9.5 14.1-11.5 0-.6.7-1 1.5-1 .9 0 1.2-.6.9-1.5-.4-.8-.1-1.5.5-1.5s1.1-.4 1.1-1c0-.5-.5-.9-1.1-.7-.7.1-1.6-1.3-2.1-3.1s-2-5.2-3.3-7.7c-2.7-4.7-3.2-7.5-1.4-7.5.5 0 .7-.5.3-1.1-.4-.7-.9-.8-1.3-.1-.3.6-1.8 1.3-3.3 1.7s-2.6 1.1-2.5 1.7c.1.5-2.1 2.2-4.9 3.6-6.8 3.6-8.4 5-7.7 7 .3.9.2 1.4-.2.9-.5-.4-1.5-.1-2.4.7-2.4 2-5.8 2.5-9 1.3l-2.9-1.1 2.1-1.6c1.2-1 4-2.3 6.2-3 7.6-2.4 16.2-7 17.4-9.4.7-1.3 3.4-3.4 6-4.6 5.6-2.8 6.1-3.5 6.1-8.1 0-3.1-.4-3.8-3-4.9-1.6-.7-3-1.6-3-2 0-.5-2.5-3.2-5.5-6.1-3-2.8-5.7-5.9-6-6.8s-2-2.7-3.9-3.9c-2.1-1.5-3.3-2.9-2.9-3.8.4-1.1-.4-1.4-3.3-1.4l-3.9-.1 2.8-1.5c1.5-.8 2.7-2.3 2.7-3.5 0-2.6 3.7-3.9 11.1-4 5.4-.1 6-.3 6.5-2.5.9-3.7-1-5.3-5.9-4.8-2.3.3-4.7 1.2-5.3 1.9-1.5 2-13.8 2.1-13.2.2.3-.6 2.7-1.7 5.4-2.3l4.9-1.1-2.9-1.2c-1.6-.6-3.9-1-5-.9-1.7.2-2-.2-1.8-2.1.2-1.3-.1-2.1-.6-1.7-.5.3-1.9-.6-3-1.9-1.3-1.4-3.3-2.5-4.7-2.5-2.2 0-2.5-.4-2.5-3.8 0-2 .7-4.6 1.5-5.6 2.5-3.3 1.9-7.4-1.5-10.3-3.8-3.1-3.9-5.3-.2-5.3 1.5-.1 5.1-.2 8-.3 2.8-.1 5.2 0 5.2.3 0 .4-1.6 1.4-3.6 2.4-4.6 2.1-3.8 3 2 2.2 4.3-.7 4.5-.8 3.6-3.2-1.3-3.3-1.3-3.3 1-2.7 1.1.3 1.7.9 1.4 1.4s.4.9 1.5.9c2.5 0 7.1-2 7.1-3.2 0-.4.7-.8 1.5-.8s1.2-.6.9-1.4.3-1.6 1.6-1.9 2-1.2 1.8-2.3c-.2-1.3.6-2 3.1-2.5 1.8-.4 4-1.4 4.9-2.3 1.5-1.5 1.4-1.6-.7-1.6-1.3 0-4.1.5-6.3 1.2-3.3 1-4.1.9-4.9-.3-1.3-2.1-1.1-2.9.7-2.9 3.3 0 .1-2-3.4-2.1-3.3-.1-3.4-.2-1.2-.9 1.4-.4 5-.6 8-.4s4.9.1 4.3-.2c-.7-.3-1.3-1.2-1.3-2s-.6-1.4-1.2-1.5c-.7-.1-3.1-.3-5.3-.6-5.1-.7-10-.6-14.8.2-2.5.5-4.7.3-6.2-.5-1.7-.9-2.8-.9-4.3-.1-2.6 1.4-8.2 1.4-11.7.1-4.4-1.7-1.8-3 6.3-3.2 6.2-.1 6.6-.2 2.2-.5-12.5-.7-13.8-1.1-15-4.9-1.8-5.2-1-6.1 6.7-6.9 7.2-.9 7.1-1-1.8-2-5.2-.6-5.6-.8-6.8-4-.7-1.9-1-3.9-.6-4.4.3-.5-.4-2.6-1.5-4.6-1.7-3-2-4.8-1.5-9.3.6-6.6-.3-8.3-5.3-9.8-5.2-1.4-3.9-2.8 3-3.4 5.8-.5 6.3-.7 6.7-3 .4-3.5 1.9-4.2 7.7-3.6 6.5.6 9.1 2.1 11.5 6.9 2.5 4.8 3.4 13.3 1.5 14-.8.3-1.3 2.5-1.4 5.9-.3 7.4 1.4 9.1 10.8 10.6 12.1 2.1 15.1 3.5 21.1 10.5 3 3.4 8.4 9.1 12.2 12.6 3.7 3.5 6.7 6.8 6.7 7.3s1.8 3.3 4 6.2c2.3 3 4.3 7 4.7 8.9.4 2.9 0 3.9-2.5 6.5-1.7 1.7-4.2 3.4-5.6 3.8-1.4.3-2.6 1.1-2.6 1.6 0 .7 7.8.9 23.5.6 20.1-.4 23.7-.7 24.8-2.1.6-.9 2.8-1.7 4.7-1.9q3.45-.3 3.6-1.8c0-.8.4-4 .9-7 .8-6 1.5-12.5 1.6-15.2 0-2.2 1.8-3.3 3.1-2 .6.6.6 1.2-.1 1.6-.6.4-1.1 1.4-1.1 2.2 0 1 .7 1.3 2.4.8 3-.7 4.7.2 4 2.1-.4 1-1.7 1.4-3.8 1.2-2.4-.1-3.1.2-3 1.5 0 1 .1 3.7.2 6 .2 5.2 2.1 4 2.9-1.8.9-7.1 2.2-6.1 2.4 1.9.1 3.1.6 5.4 1.1 5.1 1.1-.7 5.1.6 4.3 1.4-.4.4-1.1.8-1.6.8-3 .4-3.1.7-.4 1.3 1.8.4 4.4.1 6.4-.7 3-1.2 3.6-1.2 4.5 0 1 1.3 2.5 1.4 9.4 1 1.6-.2 2.2-.7 2-1.9-.3-1.5.9-1.9 7.2-2.5 4.1-.4 8.1-1 8.8-1.3 1.6-.6 1.1-5.1-.5-4.8-.6.1-1.7-.4-2.4-1.3-1-1.3-.9-1.6.9-2.1 1.8-.4 2.2-1.3 2.2-4.3 0-4.2 1.1-3.7-15.2-7.1-3.2-.7-5.5-1.6-5.2-2.1.3-.4-.1-.8-1-.8-.8 0-1.6.5-1.8 1.2-.3.7-1.2.9-2.2.5-.9-.4-1.4-1.1-1.1-1.7.3-.5-.1-1-.9-1s-2 .8-2.5 1.7c-.7 1.2-1.1 1.3-1.1.5 0-1-.8-1.2-3-.7-1.9.4-3 .3-3-.4 0-.6 1.2-1.1 2.8-1.2 4.8-.1-.4-1.5-10.6-2.9-5.1-.7-9.5-1.7-9.9-2.3s.8-.8 3.5-.4c2.5.5 4.3.3 4.7-.4.5-.6 1.1-.4 2 .7 1.7 2.4 4.1 1.2 4.9-2.6 1.1-5.8.8-7-1.8-7-2.7 0-5.6-2.8-4-3.8.6-.4 1.6-2.7 2.2-5.2 1.2-5 .6-6-4-6-2.6 0-10.8-3.6-10.8-4.7 0-.3 1.6-.2 3.5.1 3.3.6 3.5.5 5.1-3.1.9-2.1 2.5-6.8 3.4-10.4 1-3.7 2.8-8.6 4-11l2.2-4.3-2.8-2.4-2.9-2.4 2.6.4c3.9.7 5.1-.7 10.3-11.2 5.1-10.5 6.1-12.1 9.4-15.8 1.7-1.9 2.2-2.1 2.2-.8 0 .9-.4 1.6-.9 1.6s-1.2 1.5-1.6 3.2c-.4 1.8-.9 4-1.1 4.9-.4 1.3 1.6 2.7 8 5.8 4.7 2.3 8.9 4.1 9.4 4.1.6 0 1.9-2 3.1-4.5q3.3-6.9 6.9-3.3c1.8 1.8 1.5 2.5-1 2.4-1.7-.1-2.3.5-2.5 2.7-.1 1.6-.7 3.5-1.3 4.2-.9 1.1-.5 1.7 1.8 2.9 1.6.8 3.9 1.2 5 .9 1.3-.3 2.2-.1 2.2.6s-.6.9-1.2.6c-.7-.4-.4.1.6.9 1.1.9 2.5 1.6 3.2 1.6.6 0 1.7.6 2.3 1.4.8 1 .6 1.9-1 3.9-1.1 1.5-1.7 3.2-1.4 3.7.8 1.3 7.4-5.7 7.5-7.8 0-.7 1-2.6 2.2-4.2 1.6-2.2 1.8-3.2 1-4.2-.7-1-.8-1.8-.1-2.8.8-1.1 1.2-1.2 1.6-.3.6 1.7 2.3 1.6 2.3-.1 0-.7-1-1.7-2.3-2.1-2-.7-1.8-.8 1.3-1.4 3.4-.6 5.5-3.1 2.6-3.1-.7 0-1.9-.7-2.6-1.5-1.4-1.7 0-2.1 1.7-.4 1.6 1.6 5.3.1 5.3-2.2 0-1.1.7-1.9 1.6-1.9.8 0 1.3-.4 1-.9-1.1-1.7.6-4.2 2.8-4 3.8.3 4.4-.1 6.6-3.8 1.4-2.4 1.8-3.8 1-4.3-.7-.5-.6-1.1.5-2 1.2-1 1.5-1 1.5.4 0 .9.3 1.6.6 1.6 1.3 0 18.4-14.9 18.2-15.9-.1-.3.2-1.4.5-2.4.4-.9.9-2.4 1.2-3.2.9-3 2.4-1.5 1.5 1.5-.7 2.3-.5 3 .5 3 2.2 0 7.2-4.8 5.9-5.7-.6-.5-1.4-1.7-1.7-2.8-.6-1.7-.4-1.6 1.2.4 1.7 2.2 2.1 2.3 5.1 1.2 4.1-1.4 4-1.4 4 .2 0 .8-1.2 1.9-2.6 2.6-2.7 1.2-2.7 1.2-.7 3.4 1.9 2.1 5.7 9.4 6.7 12.9.4 1.3 1.6 1.8 4.5 1.8 5.3 0 6.5-2.1 3.9-6.7-1.1-1.8-1.6-3.3-1-3.3.5 0 1.5 1.3 2.2 3 .7 1.6 1.6 3 2 3s2.6-2 4.9-4.5c2.2-2.4 4.1-4.2 4.1-3.9s1.4-.6 3.1-2 3.8-2.6 4.8-2.6c1.3 0 1.6-.8 1.3-4.3l-.4-4.2 2.2 2c1.2 1.1 2.6 3.1 3.1 4.4.8 1.9 1.2 2.1 2.5 1 1-.8 1.3-2.2.9-4.3-.6-2.9-.5-3 1-1.2.8 1.1 1.5 2.6 1.5 3.3 0 1.5 1.6 1.7 2.5.3.3-.6 1.7-1 3-1s2.6-.4 3-1c.3-.5 1.2-.7 1.9-.4s1.9-.2 2.6-1.1c.7-.8 2-1.5 2.9-1.5 1.4 0 1.7-.7 1.4-3.3-.8-5.9-.8-5.9-6.5-3.7-2.9 1.1-6.2 2-7.3 2s-3.2.6-4.6 1.4c-2.6 1.3-2.7 1.3-3.3-1.4-.3-1.6-1.4-3.1-2.5-3.5-1.3-.4-1.7-1.2-1.4-2.5.6-2.4-.6-2.6-3.3-.5-1.3 1-1.5 1.7-.8 2.2 1.4 1.1 2.4 5.2 1.4 5.8-.5.3-1.1.1-1.5-.5-.3-.5-2-1-3.6-1-3.5 0-3.6-2.3-.1-2.8 2.2-.3 3.2-2.2 1.2-2.2-2.3 0-.7-2.1 2.6-3.5 3.8-1.6 3.9-2.3 1.8-10.3-.2-.9.6.5 1.8 3.1 2 4.3 2.5 4.7 4.8 4.2 2.1-.4 2.2-.3.8.5-1 .6-1.8 1.8-1.8 2.7 0 1.9 2 1.5 10.5-2 3.3-1.3 6.8-2.7 7.8-3 1.1-.4 1.7-1.7 1.7-3.7v-3.1l3.2 3.6c2.4 2.8 2.8 3.9 1.8 4.5-.7.4-1 1.2-.6 1.8.9 1.4 7.8.3 9.2-1.4.6-.8 1.8-1.2 2.6-.9 2 .8 3.8-3.5 3.8-8.8 0-8.9-5.2-25.1-6.7-21-.3.7-1.2 1.3-2.2 1.3-.9 0-2.6.7-3.7 1.5-1 .8-2.8 1.5-3.9 1.5-1.2 0-2.6.5-3.3 1.2s-2.7 1.3-4.5 1.4c-1.7.2-4.2.5-5.3.9-1.8.5-2.2.2-2.7-2.2-.6-3.4-.2-4 1.8-2.3 1.2 1 1.6.9 2.1-.4.3-.9.4-2.8.1-4.1-.5-2.8.7-4.2 2-2.3.4.7 1.3 2.9 1.8 4.8 1 3.2 4.5 5.6 4.5 3 0-.6-.4-.9-.9-.6-1.2.8-2.3-2.2-1.4-3.7.4-.7.9-.4 1.2.6.6 1.5.9 1.6 2.5.4 1.4-1.1 1.6-1.8.8-3.3-1.6-3.1-2.5-10.4-1.3-10.4.6 0 1.1 1.3 1.1 2.9 0 3.1 1.4 4.9 2.5 3.1.4-.6 1.5-.8 2.6-.5 1.8.6 1.9.1 1.9-7.8 0-5.9.4-8.8 1.4-9.6.9-.7 1.5-4.6 1.9-11.9.6-11 1.1-14.3 2.3-16.5.4-.6-.2-.3-1.5.7-1.9 1.7-2.3 1.8-3.6.5-.8-.8-1.7-2.9-2.1-4.7-.6-2.7-.3-3.3 1.7-4.1 1.5-.5 2.9-.5 3.7.1.8.7 1.2.6 1.3-.3 0-.8.4-.5.9.6s.9 1.5.9.8c.1-.7.8-1 1.6-.7.8.4 1.5.2 1.5-.4 0-.5 1-1.2 2.3-1.5 1.2-.3 3.2-.9 4.5-1.2 3-1 2.8.8-.3 2.5-1.9 1-2.4 1.9-2 3.9.3 1.4.2 2-.1 1.3-.8-1.6-2.4-1.5-2.4.2 0 .7-1.1 2.1-2.5 3-1.3.9-2.8 3-3.3 4.8-1.2 4.6-1.5 17.1-.4 16.4.5-.3 1-2 1-3.8 0-5.1.1-5.2 2.2-2.7 1.1 1.4 1.9 1.9 2 1.1 0-.8.9-2.7 2.1-4.3 1.9-2.7 2-3.5 1-7.6-.7-2.5-.9-4.8-.6-5.1s.5.3.6 1.4c0 1.8.1 1.8.9-.1.6-1.5.9-.8.9 2.7.1 5.2 1.2 6.6 3.2 4.2 1.2-1.4 1.4-1.4 2.1.3.5 1.1.7.3.4-2.5-.2-2.3 0-4 .5-3.6.5.3.9 1.1.9 1.9 0 2.2 2.8 2.6 3.3.4.3-1 .1-1.7-.4-1.3-.5.3-.9-.7-.8-2.3 0-1.5.3-2.2.6-1.6.2.7.9 1.3 1.4 1.3.6 0 .9-.6.8-1.3-.4-3.6.2-5.6 1.6-5.1 1 .4 1.5 0 1.6-1.2 0-1.8.1-1.7.9.1.6 1.3.9 1.5.9.5.1-2.3-1.2-3.6-4.3-4.4-1.9-.5-3.2-.3-3.7.5-.6 1-1.1 1-2.2.1-.7-.7-1.7-.9-2-.5-.4.3-.7-.1-.7-1s1.5-2 3.8-2.8c2-.6 4.2-1.6 4.8-2.1 1.4-1.1 14.6-.4 16.5.8.8.5 1.7.9 2 .9 1.2 0 9.9 5.9 9.9 6.8 0 .4.4.6.8.3.5-.3 1.6 1.4 2.6 3.7.9 2.3 2.1 4.9 2.5 5.7.5.9 1.2 3.4 1.5 5.7.7 3.9 2.2 5.2 6.8 5.7 2.1.3 1.7 1.6-.5 1.6-1.4 0-2.9-.5-3.2-1-1.2-1.9-2.2-1-2 1.7.1 1.6.3 4.6.3 6.9l.2 4.1 5.3 1.1c11.9 2.6 14.6 2.9 15.6 1.9.8-.8 1.1-.4 1.1 1.1 0 2.5-.3 2.5-12 .2-9-1.8-10-1.8-10-.3 0 .8.4 1.1 1 .8 1.6-1 2.2 3.9 1.2 11.1-1.1 7.8-.3 9.7 3.4 8.8 1.4-.4 2.4-.2 2.4.4 0 1.6 5.9 2.6 7.4 1.3 1-.9 1.5-.8 2 .4.3 1 1.4 1.4 3 1.1 1.4-.3 3 .2 3.7 1 .6.8 1.8 1.4 2.7 1.4 1.9 0 7.5 1.7 12.2 3.8 6.2 2.6 12.6 4 14.4 3 1.2-.7 1.6-.5 1.6.7 0 .9.8 1.8 1.8 2.1.9.4 4 1.7 6.7 3 2.8 1.2 5.4 2.2 5.9 2.1s1.2.8 1.7 2c1.1 3 3.7 2.9 5.1-.2.6-1.4.9-2.7.7-2.9-.5-.5-15-7.7-20.1-10.1-4.1-1.8-4.9-3.9-2-4.9.9-.3 2.3-.9 3.1-1.2.8-.4 1.1-.2.7.4-.5.9 19.1 12.2 21.3 12.2.4 0 1.9-2.2 3.2-5 1.3-2.7 2.7-4.9 3.2-5 1.3 0 .7 1.9-1.8 5.6-1.4 2.1-2.4 4.5-2.3 5.3.5 2.3 3.7 2.6 4.5.4.3-1 2.8-5.3 5.5-9.6 2.6-4.3 4.8-8.1 4.8-8.3 0-.3-1-1.5-2.3-2.7-1.2-1.2-1.8-1.9-1.3-1.5 1.6 1.2 6.1.9 7.5-.5 1-1 1.1-.7.6 1.3-.6 2.6-.9 2.4 9.5 8.2 1.9 1.1 5.8 3.7 8.5 5.7 2.8 2.1 6.7 4.8 8.7 6 2.1 1.2 4.1 2.8 4.5 3.5.5.6 4.5 4.1 9 7.6 4.6 3.6 8.3 6.8 8.3 7.2 0 1.1 5.8 6.8 6.8 6.8.5 0 2.1 1.8 3.6 4 1.4 2.2 2.2 4 1.6 4-.5 0-1-.4-1-.8s-1.3-1.6-3-2.5c-1.6-1-3-2.2-3-2.8 0-1.4-6.3-6.8-8.1-6.9-.8 0-2.1.6-2.8 1.2-1.1 1.1-1.1.9 0-.9 1.2-2.1 1-2.6-2.6-6.4-2.2-2.2-7.6-6.8-12-10.2-4.4-3.3-8.4-6.6-8.8-7.4-.4-.7-1.2-1.3-1.7-1.3-.4 0-4.2-2-8.4-4.5-12-7.1-11.3-7.2-18 4-3.2 5.3-5.5 9.9-5.2 10.3.4.3 2.2 1.5 4 2.6 7.3 4.4 17.9 11.8 20.4 14.1 3.7 3.4 4.9 4.5 10.7 9.1 2.8 2.1 5.5 4.5 6.1 5.3.9 1.1 1.3 1.1 2.6-.3 2.2-2.2 3.1-2 1.6.3-1 1.7-.4 2.8 4.4 8.8 3.1 3.8 7.2 8.4 9 10.3 1.9 1.9 3.7 4.3 4.1 5.2.3 1 1.1 1.8 1.6 1.8 1.5 0 2.2 3.2 1 4.6-1.8 2.1-3.9 1.7-4.9-1.1-.5-1.4-1.4-2.5-1.9-2.5-1.2 0-14 9.2-19.2 13.8-2.6 2.3-3.5 3.8-3.2 5.2.4 1.4 0 2-1 2-1.7 0-4.7-2.6-4.7-4.1 0-1.7-2.8-.9-7.8 2.3-5.6 3.6-6.1 4.4-3.3 5.3 2.1.6 6.4 6.6 7.6 10.5 1.2 3.7 2.5 4.1 6.9 1.8 3.7-1.9 4.1-1.9 6.7-.4 1.5.9 4.3 1.6 6.2 1.6 2.6 0 3.6.5 4 2 .7 2.5 1.8 2.5 4.5 0 1.2-1.1 2.6-2 3.2-2 .5 0 1.1-.7 1.1-1.5.2-2.3.4-2.8 1.7-5.2.7-1.3 1.1-4.1 1-6.3-.3-3.9-.4-4-4-4-2.1 0-3.8-.4-3.8-.9 0-1.5 1.8-2.3 2.5-1.1.4.6 1.5.4 3.1-.7 2.1-1.3 2.9-1.4 4.9-.3 2.1 1.1 2.7 1 5.5-1.4 1.7-1.4 2.8-2.6 2.5-2.6-.4 0 .1-1.2 1.1-2.8 4.3-6.6 7.2-15.5 4.5-13.7-.5.3-1.2.1-1.5-.4-.7-1 4.8-2.3 6.8-1.5.8.3 1.6 1.9 1.8 3.5.4 2.3-.2 3.8-2.5 6.2-9.7 10.4-9.7 12.9.1 12.6 5.9-.2 6.6 0 7.3 2 .7 1.7.4 2.3-1.4 3-1.2.5-2.5.7-2.9.5-1.2-.7-7.3 3.2-7.3 4.7 0 1.6 4.7 2.7 14.5 3.6 8.1.7 9 1.3 8 6-.8 3.4-1.9 4.9-8.2 11-1.6 1.4-2.8 3.2-2.8 3.9s-.6 1.4-1.2 1.6c-2.5.9 2 3.8 5.7 3.8 2.5 0 4.7.8 6.7 2.5 3.5 3 6.6 3.1 13.4.7 3-1.2 5.7-1.6 6.9-1.1 1.4.5 1.5.8.5.8-1.3.1-1.3.2 0 1.1 1.9 1.2 1.1 1.9-3.1 2.6-3.2.5-3.3.5-1.5-1 1.7-1.4 1.8-1.6.3-1.6-.9 0-1.7.4-1.7 1 0 .5-1.1 1-2.4 1s-3.9.7-5.7 1.5c-3.9 1.6-3.2 1.8 2.9.6 2.3-.5 4.5-.5 4.7 0 .7 1-2.4 1.9-8 2.3-6 .3-7.3 1.7-5 5.3 1.7 2.5 2.2 7.2 1.7 14.8-.3 3.7 1.3 15.8 2.2 17.4.4.6 1.9 1.1 3.3 1.1 1.9 0 2.4.4 1.9 1.6-.3.9-.6 2.5-.6 3.7 0 1.6-.3 1.8-1.2.9-2.7-2.7-3.6-1.3-3.4 5l.1 6.3 4.8.8c2.9.6 4.7 1.4 4.7 2.3 0 1.7-1 1.7-4.6.4-1.9-.8-3-.8-3.8 0-.7.7-.5 1 .7 1 2.6 0 6.7 2.2 6.7 3.7 0 1.8 3.1 2.9 10.5 3.7 3.3.3 6.9.7 8 .9 1.6.2 2.1-.7 2.7-5.3.9-5.9 3.6-10.7 9.8-17.2 2.1-2.3 3.7-4.5 3.5-4.9-.3-.3.8-.9 2.4-1.2 1.6-.4 3.8-1.5 4.8-2.5 2.2-2.3 12.5-9.3 17.2-11.7 1.8-.9 7.2-2 12-2.5 4.7-.5 9.8-1.3 11.3-1.9l2.8-1-.6-12.5c-.6-12.8 0-15.1 3.2-12.5 1.4 1.2 1.4 1.4-.2 2.6-1.3 1-1.5 1.6-.7 2.4 1.6 1.6 4.7.3 3.9-1.7-.3-.8-.2-1.2.3-.9s1.3 0 1.6-.5c.4-.6 1.7-1 2.8-.9 4.1.3 8-.1 7.4-.8-.4-.3-2.6-.7-4.9-.7-2.4-.1-4.4-.6-4.6-1.1-.4-1.3 3.1-2.3 9.3-2.5l5-.2-3.5-1.3c-5.7-2.2-10.4-1.8-13.9 1.1-2.9 2.4-4.1 2.3-2.3-.2 3.2-4.6 11.7-5.7 18.8-2.5 6 2.7 8.4 8.4 7.3 17.1-.6 5.2-.5 6.7.6 7.6 1.2.9 1 1.3-1 2.4-2.3 1.2-6.3 6-5 6 .3 0-.1 1.3-1 2.9-1.5 2.9-1.5 3 2 4.1 1.9.6 4.8 2.5 6.6 4.1 1.7 1.6 3.5 2.9 3.9 2.9 1 0 .7 2.6-.3 3.6-.4.4.7 1.9 2.5 3.4 2.1 1.8 2.9 3.2 2.5 4.3-.9 2.3-2.8 2.2-3.4-.2-.5-2.1-6.8-4.5-10.4-3.9-2.2.4-2.1.5 1.1 1.5 1.9.6 2.7 1.2 1.8 1.2-1 .1-1.9.4-1.9.8-.8 4.9-.6 5.3 3.4 6.4 2.2.6 4.8.8 5.8.6 1.1-.3 1.9-.1 1.9.4s-2.5.9-5.5.9c-4.7 0-5.5.3-5.5 1.9 0 1.5 1 1.9 4.7 2.4 3.1.3 5.1.1 5.5-.6.6-.9.8-.9.8 0 0 .7.7 1.3 1.5 1.3s2.8 1.5 4.4 3.2c2.8 3.2 3.2 3.3 10.5 3.2h7.6v3.4c0 3.9-5.8 17-8.6 19.3-1 .8-3.9 2.1-6.4 2.8s-5.8 2.1-7.5 3.1c-1.6 1-4.1 2.1-5.3 2.5l-2.4.7.5-11.3c.4-7.3.2-11.8-.5-12.6-.6-.7-2.6-1.3-4.4-1.3-1.9 0-3.4-.5-3.4-1 0-.6-.5-1-1.1-1-.5 0-.8.4-.5.8.7 1.1-2.8 10.1-6.3 16.2-2.4 4.2-5.1 10.4-5.1 11.6 0 .8-.7 1.7-1.5 2s-1.9 2.3-2.5 4.4l-1 3.8-6.6.7c-6.6.8-11.4-.1-16.8-2.9-1.4-.7-2.3-1.6-1.9-1.9.3-.4-.3-.7-1.5-.7-1.1 0-2.2-.4-2.4-.9-.1-.5-1.5-1.3-3.1-1.6-2-.6-2.7-.4-2.7.8 0 .8-.7 1.7-1.5 2.1-1.1.4-1.5-.1-1.5-1.7 0-2.4 2-6.2 2-3.9 0 .9.7 1.1 2 .7 1.1-.3 2-.2 2 .3s1.6 1.3 3.6 1.6c3.1.6 9.1 3.4 11.9 5.6.6.4 2.9 1.1 5.2 1.5 3.9.6 4.1.5 3.6-1.4-.4-1.5-.1-2.1 1-2.1.9 0 1.8.4 2.1.9s1.4.7 2.4.4c1.4-.3 1.8-1.1 1.5-2.7-.4-2-1.3-2.4-5.5-2.9-6-.8-7.1-.3-6.5 2.9.3 1.8 0 2.4-1.4 2.4-1.5 0-1.7-.4-.9-2.4 1-2.9.3-3.3-8-4.7-10.4-1.8-13.8-1.7-15.6.2-.9 1-2 1.6-2.4 1.4-.4-.3-2 1.1-3.4 3-2.3 3-2.5 3.7-1.4 5.5.7 1.1 1.7 2 2.1 2 .5 0 .6.8.2 1.9-.3 1.1 0 2.1.9 2.4q1.35.6.9-1.2c-.2-.9.5-2.7 1.5-3.9l2-2.2.6 2.5c.7 2.8 2.6 2.5 2.6-.5 0-1 .4-2.1.9-2.4.4-.3.7.7.5 2.3-.3 2.4.1 3.1 2.4 3.9 2.7.9 2.7.9 2.5-3.2l-.2-4.1 1.2 4.5c.7 2.5 1.5 5 1.9 5.6.5.7.1 1.4-.7 1.8-2.6.9-1.7 2.2 2.3 3.2 3.3.8 3.7 1.3 4 4.5.3 3.1.8 3.8 3.5 4.7l3.2 1-3.7.1c-3.8.1-5.7 1.4-3.7 2.7 1.8 1.1 6.2 1.4 7.4.5.5-.4 1.8 0 2.7 1 1.6 1.7 1.5 1.9-.8 3.4-1.3.8-2.4 2.2-2.4 3 0 2.5-1.6 1.7-4.1-1.9-1.6-2.3-3.3-3.6-5.4-3.9-1.6-.2-3.8-.7-4.8-1.2-1.6-.7-1.6-.5-.6 1.8 1.2 2.7 6 5 8.4 4.1.9-.4 1.5 0 1.5 1 0 .9-.3 1.5-.7 1.5-2.7-.4-3.3.2-2.3 2 .5 1.1 1 3.1 1 4.5s.4 2.7.9 3c.4.3.6 1.8.3 3.2-.3 1.8-.1 2.5.6 2 .6-.4 1.7.2 2.4 1.4.7 1.1 2.3 2 3.6 2 1.7 0 2.2.5 2 1.7-.2 1-1 1.7-1.6 1.5-.7-.1-1.2.2-1.2.8 0 .5-.7.7-1.5.4-2.3-.9-6.5.5-6.5 2.1 0 1 1 1.5 3.1 1.5 1.7 0 2.8.4 2.4 1-.3.5-1.5 1-2.7 1-1.7 0-1.9.4-1.4 2.8.4 1.5 1.6 3.3 2.6 4.1 1.1.7 2 2.1 2 3-.1 1.3-.3 1.3-1.6-.4-.8-1.1-2.2-1.9-3-1.7s-1.4-.4-1.4-1.3c0-.8-.9-2.4-2.1-3.6-1.5-1.5-1.9-2.8-1.5-4.5.4-1.5-.1-4-1.4-6.6-1.1-2.3-2-4.8-2-5.6 0-.9-.7-1.1-2-.7-1.1.4-2 .2-2-.4s.7-1.1 1.5-1.1c1.8 0 1.8-.7.4-4.8-.9-2.7-1.5-3.1-3.5-2.6-1.4.4-2.4.2-2.3-.2.1-.5.1-2 0-3.3-.1-1.9-.5-2.2-2.6-1.7-1.8.5-2.7.1-3.5-1.5-1.1-1.9-1-2 1.2-1.4 1.2.4 2.8 1 3.4 1.2 1.7.6 2.8-1.6 1.5-3.1-.6-.7-.8-1.6-.4-2s0-.4-.9-.1c-1.7.7-3.5-1-2-1.9.4-.2.6-2.3.4-4.5-.3-3.3-.8-4.1-2.4-4.1-1 0-1.6-.5-1.3-1 .3-.6-.4-1-1.6-1-2.1 0-2 .2 1 2.9l3.3 3-2.8-.3c-1.9-.2-3.3-1.2-4.1-2.7-1.5-2.9-1.6-.8-.2 4.6.5 2.2 1.2 5.6 1.5 7.5.2 1.9.7 5.3 1 7.5s1 4.3 1.6 4.6c.9.6.8 1.2-.1 2.3-2.1 2.5-3.1 1.9-3.1-1.7 0-1.7-1.4-7.7-3.1-13.2-2.4-7.9-3-11.9-3.1-18.7 0-9-1.1-11.9-2.8-7.4-.5 1.4-1.6 2.6-2.5 2.6-.8 0-1.5.6-1.6 1.2 0 .7-.5.2-1-1.1s-1.8-3.6-3-5.2c-1.5-2.2-2.5-6.3-3.7-15.9l-1.6-13-7.1.1c-3.8.1-10-.2-13.8-.6-4.7-.5-7.1-.4-8.1.4-1.2 1-2 .9-4-.4q-2.55-1.65-4.8-.9c-1.3.4-3.4.8-4.8.9-1.4 0-2.4.6-2.2 1.3.1.8-.7 1.1-2.4.8-3.6-.7-2.8 2.3 1.3 4.9 1.8 1.1 3.2 2.6 3.3 3.3 0 .7.5 1 1 .7.6-.3 1 .1 1 .9 0 .9-.4 1.6-1 1.6-.5 0-1 .7-1 1.5 0 .9-.9 1.5-2.2 1.4-1.3 0-1.7-.3-1.1-.6 2.3-.9 1.4-2.3-1.5-2.3-3.5 0-7.2 2.5-7.2 4.9 0 2.7 6.8 3.7 8.7 1.3 1.3-1.5 1.3-1.5.8.5-.6 2.1-.3 2.3 3.8 2.3 2.5 0 6.1.7 8 1.5 2 .8 4.3 1.2 5.1.9s2.7.1 4.3 1l2.8 1.5-2.5.3c-1.4.1-4.7.2-7.5.2-3.7.1-5 .5-5.3 1.7-.2 1 .5 1.9 1.7 2.2 2.2.5 3.8 3.3 2.6 4.5-.4.4-1.7-.5-2.9-2-1.2-1.6-2.7-2.8-3.4-2.8s-1.5-.7-1.8-1.5c-.4-.8-1-1.5-1.5-1.5-1.6 0 .1 2.5 3.1 4.5 1.7 1.1 3 2.6 3 3.2 0 2.1-1.4 1.5-5-2.2-1.9-1.9-4-3.5-4.7-3.5s-1.3-.5-1.3-1.1c0-.5-.4-.8-.9-.5s-1.4-.1-2.1-.9-2.2-1.5-3.3-1.5c-2.4 0-1.7.9 2.9 3.7 12.6 7.5 16.4 11.3 16.4 16.2 0 1.7-.5 1.9-3.4 1.6-1.9-.3-5.1-1.4-7.1-2.5-1.9-1.1-4.5-2-5.7-2-2.1 0-2.1 0 .2 2.5 1.3 1.4 3.4 2.5 4.7 2.5 1.8 0 2.3.6 2.3 2.5 0 3.2-3.1 9.4-4.7 9.5-.7 0-1.3.7-1.3 1.5 0 .7-.8 1.9-1.7 2.4-1.6.9-1.6 1.2-.3 2.1.8.5 3.9 1.7 6.9 2.6 4.3 1.2 5.6 1.3 6.2.3.4-.7.5-1.7.2-2.2-.3-.4.3-1.4 1.3-2.2 2.6-1.8 3.7.2 1.7 3.1-1.8 2.9-1.1 4.1 2.9 5.2 1.8.4 3.4 1.4 3.6 2.1.4 1.3-2.3 1.1-8-.5-1.4-.4-1.8.1-1.8 1.8 0 2.4-1.6 4.8-3.3 4.8-.4 0-.6-.9-.2-1.9.3-1.1.1-2.2-.5-2.6-1.6-1-1.2-2.3.8-2.7 1.5-.4 1.5-.5-.3-1.5-1.1-.6-3.8-1.4-6-1.8-3.8-.7-3.9-.6-2 .9 1.1.8 2.6 1.6 3.3 1.6 1.8 0 1.5 2-.4 2-.8 0-2.4-.5-3.5-1.1-1.6-.8-2.5-.7-4 .7-2.1 1.9-2 2-3.7-1.8-.6-1.6-2.6-3.4-4.5-4.2-3.6-1.5-5.7-3.6-3.5-3.6.7.1 3.1.7 5.3 1.5 2.1.8 4 1.3 4.2 1.1.3-.3-11.7-5.9-17.7-8.1-2.5-.9-6.9-2.8-9.7-4.1-2.9-1.3-5.2-2-5.2-1.6.3 1.8-.3 2.1-2.8 1.1l-2.7-1 2.9 2.6c2.2 2.2 2.5 2.9 1.4 3.6s-1.1.9-.1.9c.7 0 1 .5.7 1-.4.6-2.1.8-4 .4-6.6-1.2-5.9.8 1.6 4.5l7.4 3.7 1.1-3.6c.9-2.8.8-3.8-.4-5.3-1.4-1.5-1.3-1.7.1-1.7 1 0 1.7.5 1.7 1.2 0 .6.3.8.7.4.5-.4-.1-1.4-1.1-2.2-3.1-2.2-1.5-2.3 3.3-.2l4.4 1.9-2.1 2c-1.9 1.7-2 2.3-1 4.2 1 2 1 2.1-.7.7-1.6-1.3-1.7-1.2-1.3.5.2 1.1-.3 2.5-1.1 3.1-1.3 1-1.3 1.4-.2 2.8.7.9 2.2 1.6 3.3 1.6 2.5 0 5.8 1.8 5.8 3.1 0 .6-.7.9-1.5.6-2.6-1-2.5 1 .1 2.2 3.3 1.5 4.4 1.4 4.4-.4 0-1.7 1.6-2 2.5-.5 1 1.6 4.5 1.2 4.5-.5 0-.8-.6-1.5-1.2-1.5-.7 0-.2-.6 1.2-1.3 2.5-1.4 5-1.2 5 .4 0 1.2-5.4 6.4-6.3 6.1-.5-.1-.6.2-.2.8.3.6 1 .8 1.5.5s1.9-.1 3.2.4c1.5.5 3.1.5 4.1 0 1.2-.7 1.9-.4 2.6 1 1.3 2.3 4.6 4.3 21.6 13 13.9 7.2 25 14 24.2 14.8-.4.4-10.5-4.2-14.7-6.8-2.5-1.5-14-6.9-23.2-10.9l-8.6-3.8-3.1 5c-1.7 2.7-3.1 5.3-3.1 5.7s-1.3 2.6-2.9 4.8-3.7 5.5-4.6 7.4c-1 1.9-3.1 5.1-4.8 7.3l-3.1 3.9 5.1 4.6c2.7 2.5 6 5.4 7.3 6.3 1.3 1 1.9 1.8 1.3 1.8s-3-1.6-5.3-3.5-4.5-3.5-4.8-3.5c-.4 0-1.7 1.8-3 4-1.2 2.2-2.7 4-3.2 4-2.4 0-.8 3.8 2 5 3.1 1.3 3.7 2.4 2 3.5-1.5 1-1.2 2.2 1.2 4.5 1.2 1.1 1.8 2.3 1.4 2.7-.4.5-1.6-.3-2.7-1.6-1.8-2.2-2.1-2.3-3.7-.7-2.5 2.2-3.2 2-3.2-.8 0-1.7.7-2.6 2.5-3 3.2-.8 3.2-3 0-4.4-3.2-1.5-3.5-1.5-3.5-.1 0 1.5-5.1 5.9-6.7 5.9-.7 0-1 .6-.7 1.4.4 1-.2 1.2-2.1.9-1.4-.3-2.8-.9-3.1-1.4s-1.1-.9-1.7-.9c-.7 0-.4.5.6 1.1.9.5 1.7 1.7 1.7 2.6 0 1.3-.3 1.3-1.6.2-1.4-1.1-1.5-1-1.2.7.1 1-.2 1.8-.8 1.7-.7-.1-1 .6-.6 1.9.4 1.8.3 1.9-1.4 1-1.6-.9-2.4-.6-4.9 1.8-3.2 3-7.8 6.6-13.3 10.1-3.1 2-3.3 2.5-2.7 6s.5 3.9-2 4.5c-1.8.4-3 .2-3.5-.7-.7-1-1.4-1-3.5-.1-1.4.6-2.8 1.9-3.1 2.7-.4.8-1.7 1.5-2.9 1.5-1.3 0-3 .7-3.9 1.5-.8.8-1.9 1.5-2.5 1.5s-1.1.5-1.1 1c0 .6-.6 1-1.3.8-1.1-.2-10.6 3.5-12.6 4.9-.3.2.1.9.7 1.5 1.4 1.4 1.6 4.2.2 3.3-1.8-1.1-6 .7-6 2.6 0 1.6-.7 1.9-4 1.7-2.6-.1-4-.6-4-1.5 0-1.6-.1-1.6-3.4-.3-1.6.6-2.6 1.7-2.6 2.9 0 2.3 3.6 14.4 5.6 18.9.9 1.8 1.4 3.8 1.2 4.4s-1.2-1.1-2.2-3.8c-4.2-11.4-7.3-18.4-8-17.7-.4.4-.4-.1 0-1.2.6-1.5.4-1.7-1.2-1.1-1 .5-4 1.6-6.6 2.5l-4.8 1.6v6.7c0 3.7.7 9.5 1.5 13s2.7 13.5 4.4 22.3c3.2 17.9 3.2 17.8-.8 56.5-1.1 10.3-1.5 19-1.1 19.5.5.6 1.7 4.2 2.8 8l1.9 7 283.7.3 283.6.2V0H0zM1110.5 33c.8 1.4-3.2 3.6-12.4 7-4.5 1.7-10 3.9-12.1 5-3.2 1.6-5.9 2-14.5 2-7.3 0-10.5.4-10.5 1.2 0 .6-.3.8-.6.5-.4-.3-1.6 0-2.6.8-1.1.7-2.6 1.1-3.3.9-.7-.3-1.5.2-1.8 1-.7 1.6-4.7 2.3-4.7.8 0-1.6 4.6-5 10.5-7.8 6.4-2.9 21.5-4.9 20.1-2.5-.4.6-2.8 1.1-5.3 1.1-6.3 0-4.6 1.3 2 1.5 4 .1 5.5-.3 6.5-1.7.7-1 1.8-1.8 2.3-1.8.6 0 3.6-1.2 6.7-2.6s7.1-3.2 8.7-3.9c5.5-2.4 10-3 11-1.5M1023 53.5c-.7.8-2.1 1.5-3.1 1.5-1.1 0-1.9.7-1.9 1.5s-.9 1.5-2 1.5-2 .4-2 1c0 .5-.7 1-1.5 1s-2.4.9-3.4 1.9c-1.1 1.1-5.8 3.6-10.6 5.7-4.7 2-9.4 4.7-10.4 6-1.1 1.4-2.9 2.4-4.4 2.4-1.4 0-2.9.5-3.2 1-.4.6-1.1.8-1.7.4-.5-.3.5-1.6 2.4-2.7l3.3-2.1-2.5-.6c-1.4-.3-3.2-.3-4 .1s-4.6 2.2-8.5 4.1c-3.8 1.8-7.3 3.7-7.6 4.1-.3.5-.9.1-1.3-.8-.4-1.1.2-2.5 1.7-3.9 2.6-2.4 13-6.1 19.5-7 2.4-.4 5.3-1.3 6.6-2.1 1.2-.8 5.8-2.8 10.1-4.4 11.5-4.2 14.6-5.6 13.8-6.4-.3-.4.2-.7 1.3-.8 1 0 3.7-.9 5.9-1.8 4.4-2 5.4-1.9 3.5.4m138.9.7c.2.6.7.4 1.2-.3.7-1.1.9-1.1.9.2 0 3.3-2.6 4-16.4 4.2-7.5.2-14.2 0-14.8-.4s-3.1-.1-5.6.6c-2.5.8-5.3 1-6.5.6-1.9-.7-1.7-.9 1.6-2 2.1-.7 4.3-2.1 4.9-3.1 1-1.6 2.6-1.7 17.7-1.2 9.4.3 16.8.9 17 1.4M232 59.3c13.5 4.6 36 19.4 36 23.6 0 .6.5 1.1 1 1.1.6 0 1 .4 1 .9 0 1.1-3.7 2.1-4.5 1.2-.4-.3-1-.6-1.5-.6-.7 0-7.2-5.9-11.3-10.3-1-1.1-7.8-4.7-15-8.1-7.2-3.3-14.3-6.9-15.7-8l-2.5-2h3c1.7 0 5.9 1 9.5 2.2m1026 9.1c0 .4-12.2 8.9-15.3 10.8-7.4 4.3-9.3 5.2-10 5-.5-.1-2.6.2-4.7.8-3.9 1-9 .5-9-1 0-1.6 3.9-5.1 7.4-6.5 2-.8 3.6-2 3.6-2.6 0-.7 1.4-1 3.5-.7 1.9.2 3.5.1 3.5-.3 0-1.1 6-4.1 10-4.9 3.9-.9 11-1.2 11-.6M939.5 83.6c1.9 1.4 1.9 1.5-.3 2-1.2.4-2.2 1.3-2.2 2.2 0 1.3-.3 1.2-2-.3-1.9-1.7-2.2-1.7-3.7-.2s-1.4 1.6.8 1.1c2.4-.5 2.4-.4.1.5-1.2.6-2.8.8-3.5.5-1.3-.5-5.7 3-5.7 4.6 0 1.4.4 1.3 3-1 1.2-1.1 2.7-1.7 3.1-1.4 1.5.9 1 3.4-.6 3.4-.8 0-1.2.6-.9 1.3.3.8-.4 1.8-1.5 2.3-2.4 1.1-17.1 15.3-17.1 16.5 0 .5-.7.9-1.5.9q-1.5 0-1.5-3c0-3.2 1.9-8 3.2-8 .4 0 .8-.6.8-1.3 0-2.1 15.4-16.3 20.6-19.1 5.8-2.9 6.3-3 8.9-1m292.5 16c0 1.6-5.6 4.4-8.7 4.4-1.7 0-24.8 9.4-26.8 10.9-.5.4-4.4 1.8-8.5 3.1s-7.8 2.8-8.2 3.4c-.5.8-1.1.7-1.9-.1s-.3-1.5 2.2-2.9c1.9-.9 3.6-2 3.9-2.3.6-.7 6.7-3.1 9.8-3.8 1.2-.3 2.2-.9 2.2-1.3 0-.9 6.4-4.1 16.5-8.1 4.4-1.7 8.4-3.5 9-4 .5-.5 3.1-.9 5.7-.9 3.7 0 4.8.4 4.8 1.6m-656.6 42c.3.9.6 3.2.5 5.2 0 3.2-.1 3.4-.9 1.4-.5-1.2-1.2-2.2-1.5-2.2-1.1 0-5 2.6-6.7 4.4-1 1.1-2.1 1.6-2.5 1.3-.3-.4-1.3-.2-2 .5-1.1.9-1.7.9-2.4-.3s-.9-1.1-.9.2c0 2.4 3.6 5.2 6 4.6 2.7-.7 4 2.2 1.7 3.5-1.1.6-1.7 2.2-1.7 4.3 0 1.9-.4 3.5-1 3.5-.9 0-1.5-2.2-1.1-4.4.1-.4-.5-1.3-1.3-2-.8-.6-1.6-2.2-1.8-3.6-.2-1.6-.9-2.4-1.8-2.1-.8.2-2.8.6-4.3.9-1.6.2-3.4 1.3-4 2.3-.7 1.1-1.9 1.9-2.7 1.9-2.5 0-16.3 6-19.5 8.6-2.1 1.6-2.6 2.7-1.9 3.4.8.8 2.6.3 6.2-1.6 5.1-2.6 8.2-2.7 8.2-.1 0 .8-2.5 2.7-5.5 4.2-3 1.6-5.5 3-5.5 3.2 0 .1 1.1 2.7 2.5 5.7 2.8 6.1 2.9 6.6 1.5 6.6-.5 0-1.8-1.9-2.9-4.3-3.3-7-3.8-7.5-5.5-5.2-.9 1.1-1.6 2.7-1.6 3.5s-.9 2.6-1.9 3.9l-1.9 2.4-.6-2.1c-.7-2.1-.9-2.1-3.2-.6-2.4 1.6-3.3 4.4-1.4 4.4.6 0 1 .7 1 1.5 0 2-.8 1.9-2.8-.4-1.7-1.9-1.8-1.9-7.1 2.2-3 2.3-7.5 5.3-10 6.7-2.9 1.6-4.7 3.3-4.9 4.7-.2 1.2-1.4 2.9-2.8 3.7-1.3.9-2.4 2.6-2.4 3.7 0 1.8-.4 2-2.5 1.5-1.8-.5-2.5-.2-2.5.8 0 .8-.6 1.6-1.2 1.8-.9.3-.8 1.2.5 3.1 2.1 3.3.3 3.6-2.4.4-1.8-2.1-1.8-2.1-1.9-.2-.1 2.6-2.2 5.3-3.7 4.8-.7-.3-1.5.7-1.9 2.2-.5 2-.1 3.3 1.7 5.2 1.7 1.8 2 2.7 1.1 3-1 .4-1 .8-.1 1.9.7.8.9 1.8.4 2.2-.4.4-2.2-1.1-4.1-3.2-2.6-3.1-3.7-3.7-4.6-2.8-.7.7-1.9 1.2-2.7 1.2s-2.7 1.2-4.3 2.7c-1.5 1.4-3 2.4-3.3 2.1-.9-.9 2.9-6.8 4.4-6.8 1 0 1.2-.9.7-3.5-.4-2.2-.3-3.5.3-3.5 1.6 0 5.2-7.7 4.5-9.5-.4-.8-1.5-2-2.5-2.6-1.1-.5-1.9-1.5-1.9-2.1 0-.7.5-.6 1.5.2 1.3 1.1 2.1.8 4.5-1.5 1.7-1.6 3-3.3 3-3.7 0-1.6 18.9-19.6 30.4-29 1.5-1.2 4.5-3.7 6.5-5.3 2-1.7 5.5-4.3 7.8-5.8 4.7-3 4.7-2.8.6-11.5-1.4-2.9-2.3-5.6-2-5.8.3-.3.8.4 1.2 1.6.9 2.7 6.6 11 7.6 11 .4 0 1-.7 1.3-1.6.3-.8 1-1.3 1.4-1 .5.3 2.2-.2 3.8-1 13.2-7 25.7-13 30.4-14.5 1.4-.4 5.4-1.9 9-3.3 7.9-2.9 8.6-3 9.4-1m664.6 21.9c0 .7-5.4 3.3-10.7 5.1-2.6.9-6.1 2.2-7.8 2.9-3.5 1.6-18.3 6.7-27.5 9.6-3.6 1.2-8.9 3.2-11.8 4.5s-5.8 2.4-6.5 2.4-1.7.4-2.3.9c-1.3 1.1-22.1 8.1-24.2 8.1-1.6-.1-1.6-.1 0-1.1 1.9-1.1 13.5-4.9 15-4.9.6 0 2.4-.6 4.1-1.4 13.9-6.1 22.7-9.6 24.1-9.6.9 0 1.6-.4 1.6-.8 0-.5 1.9-1.5 4.3-2.2 9.6-2.9 37.3-12.2 38.7-13.1 1.7-.9 3-1.1 3-.4m-1031.8 5.9c.3.5 3.6 1.3 7.3 1.7 6.7.8 10 2.3 8.9 4-.3.5.2.9 1 .9 2.2 0 3.1 2.1 1.3 3.2-.9.5-1.9.8-2.2.8-.8-.1-5.5 5.1-5.5 6 0 .4-.7 1.1-1.7 1.4-2 .8-5-2.2-5.9-6.1-.4-1.5-1.1-3.4-1.7-4.1-.6-.8-.5-1.2.4-1.2 1.1 0 1.1-.2-.1-1-1.1-.7-1.7-.5-2.2.8-.4.9-.7 1.1-.7.4-.1-1.8-3.1-4.7-6.9-6.6-1.8-.9-3-2.1-2.8-2.5.7-1 9.8.9 10.8 2.3m3 31.7c2.7 1.6 6.1 3.2 7.6 3.5 1.5.4 3.6 1.3 4.7 2 1.1.8 2.6 1.4 3.4 1.4 1.5 0 18 8.1 21.5 10.6 3 2.1 1.6 1.7-6.2-1.6-3.9-1.7-7.9-3-8.9-3s-3.3-.9-5.2-2.1c-1.8-1.1-3.6-1.8-3.8-1.5-.3.3-2.2-.3-4.2-1.3s-4.8-1.7-6.3-1.5c-1.6.1-2.8-.1-2.8-.6s-1.7-1.4-3.7-2c-4.8-1.5-9.8-5.4-8.8-6.9 1-1.7 7.1-.3 12.7 3M27 213.2c3.6.8 7.1 1.7 7.7 2.1.7.5 2.9 1 4.9 1.3 2 .2 6.4 1.6 9.8 3 3.3 1.5 9.2 3.2 12.9 3.9 7.1 1.3 9.8 2.5 5.6 2.5-4.5-.1-27.6-3.8-29.5-4.8-1.1-.5-3.5-1.2-5.5-1.6s-5.6-2-8-3.8c-2.6-1.9-6.2-3.4-9.3-3.9l-5.1-.8 5 .4c2.8.1 7.9.9 11.5 1.7M140 248c3.7 1 10.3 2.1 28.5 4.5 18.4 2.5 19.7 2.7 20.2 4.1.3.8 1.4 1.4 2.5 1.4s3.1.9 4.5 2 3.2 2 3.9 2c.8 0 3.3.9 5.7 1.9 2.3 1.1 5.4 2.2 6.9 2.5 4.4 1 11.8 4.5 11.8 5.6 0 1.3-5.4 1.3-7.8.1-.9-.6-3-1.3-4.7-1.7-1.6-.4-3.2-.8-3.5-.9s-1.8-.5-3.3-1c-1.6-.4-5.6-2.1-8.9-3.7s-7.4-3.1-9.2-3.4c-1.7-.3-4.4-1.2-6.1-1.9-1.6-.7-4.8-1.6-7-2s-5.8-1.3-8-2.1-5.6-1.5-7.5-1.7c-2-.2-4-.6-4.5-.9-.6-.3-5-1.1-10-1.8-4.9-.7-10.8-1.8-13-2.6l-4-1.3h5c2.8-.1 6.6.3 8.5.9m92.5 1.8c7.2.7 13.4 2.6 12.2 3.8-.2.3-3.3 0-6.8-.6-7.8-1.2-14.9-1.3-14.9-.2 0 .5-3.5 1.4-7.7 2-6.2.8-8.1.8-9.3-.2-.8-.8-2.5-1.7-3.7-2-2.5-.8-3.1-3.1-1-4 1.2-.6 17.3 0 31.2 1.2M81.1 338.6c.8.8 2.7 1.4 4.2 1.4 1.4 0 2.8.4 3.1.8.3.5-4.5 1.2-10.6 1.5-6.2.4-11.6 1.1-12.1 1.6-.6.6-.2.8 1.1.5 1.4-.4 2.2 0 2.6 1.3.9 2.8 5.7 7 8.6 7.8 2.1.5 2.9.1 4-1.9.7-1.4 1.7-2.3 2.2-2 .4.3.8.1.8-.5 0-1.7 4-3.4 5.3-2.2.7.5 3.4 1.1 6.1 1.3 6.1.4 7.7 2.3 5.7 7-.7 1.8-1.7 5.5-2.2 8.2-.8 4.5-3.4 8-5.1 7-.5-.3-1.8.2-3 1-1.2.9-3.9 1.6-6 1.6-4.2 0-10.8-2.8-10.8-4.6 0-.6-2-3.2-4.5-5.7-3.8-3.9-4.4-5-3.9-7.5.4-1.8.1-3.4-.8-4.3-.8-.8-1.7-2.2-2.1-3.2-.4-1.1-1.6-2.1-2.7-2.4s-2-1.2-2-2 .4-1.2.9-.9c.5.4 1.1 0 1.3-.6.3-.9 3.4-1.4 9.6-1.6 11.3-.5 12.2-2.2 1.3-2.2-4.8 0-8.3-.4-8.7-1.1-1-1.7 15.7-.1 17.7 1.7m938.6 114.9c3.2.8 6.1 1.1 6.6.6 1.1-1.1 8.6 1.5 10.6 3.9 1.7 2 17 10 19.1 10 .7 0 2.6.7 4.3 1.5 1.8.8 6.1 2.5 9.7 3.9 15.4 5.8 32.8 13.9 34 15.6.3.4 2.4 1.7 4.8 2.9 2.3 1.2 6.7 4.4 9.6 7 3 2.7 6.3 5.2 7.4 5.5 1 .4 2.7 2.2 3.8 4.1 1 1.9 3 3.9 4.5 4.6 3.6 1.4 5.4 3.7 5.8 7.2.6 5.7-3.2 7.1-9.7 3.7-4.5-2.3-6.1-4-8.8-9-2.9-5.4-4.5-7-9.6-9.6-4.9-2.5-9.2-7-8.4-8.9.2-.6-4.2-3.4-10.2-6.4-13.3-6.6-18.8-10.1-17-11.2 1.6-1 .9-1.6-2.2-2.1-1.4-.1-2.7-.5-3-.8-.9-1-8.5-3.8-11.7-4.4-1.7-.3-7.1-2.1-12-4.1-4.8-2-10.5-3.8-12.6-3.9-2.2-.2-5.1-1.3-6.5-2.5-3-2.4-7.4-4.6-14.7-7.2-2.9-1-5.1-2.4-5.3-3.4-.3-1.5-.1-1.5 2.7-.1 1.6.9 5.6 2.3 8.8 3.1M925.9 466c1.6 3 3.2 6.8 3.7 8.5.9 2.7 1.4 3 4.9 3 5 .1 6.8 1.2 6.2 3.7-.6 2.1 1.1 6.8 2.3 6.8.4 0 1 .9 1.3 2 .5 2-1.5 5-3.4 5-.6 0-.8.4-.4.9 1.3 2.2-1.6 1.9-3.9-.4-1.9-1.9-3.5-2.5-7.1-2.5-4.5 0-4.5 0-4.5 3.5 0 2.3-.5 3.5-1.4 3.5-1.1 0-1.2-.8-.6-3.4 1.4-6.5-3.8-7.9-6.9-1.9-2.2 4.5-3.1 8.2-3.3 14.7-.2 6.3-3.3 10.5-6.5 8.8-1.1-.7-3.3-2.5-4.7-4.3-2.8-3.3-3.4-9.1-1.6-15.9 2.4-9.1 2.9-11.8 3.5-16.2.4-3.4 1.2-5.1 3.1-6.2 2.2-1.5 2.7-1.5 5.5 0 2.7 1.4 3.8 1.4 7.6.3 5-1.3 6.1-2.9 4.5-6.2-1-2.1-3.2-8.6-3.2-9.4 0-.3.5-.3 1.1-.1s2.3 2.8 3.8 5.8m-567 33.1c.7 1.6 1.2 3.1 1 3.3s-1.3.8-2.3 1.3c-1.9 1-1.8 1.1.2 1.7 1.5.5 2.2 1.6 2.2 3.1 0 2.2-.2 2.4-2.5 1.3-1.3-.6-2.2-1.4-2-1.9.3-.4.1-1-.4-1.4-1-.6-4 1.2-12.5 7.5-2.6 1.9-7.5 5.2-10.9 7.2-28.3 16.8-36.9 21.8-37.4 21.8-1.8 0 9.1-7.5 18.2-12.5 16.6-9.2 26.6-15.6 31.4-20.3 3-2.8 5.9-5.2 6.3-5.2s.8-1 .8-2.3c0-2.6.8-3.8 3.5-5.4 2.8-1.7 2.9-1.6 4.4 1.8m-186.8 20.6c.1 1 .1 2.2 0 2.6s.6 1 1.4 1.4c1.4.5 1.3.8-.4 2.4-1.1 1.1-2.6 1.9-3.3 1.9-1.8.1-4.8 2.5-4.8 3.9 0 .6-.6 1.1-1.4 1.1s-2.1.9-2.8 1.9c-1.4 2-10.8 7.4-11.6 6.7-.8-.9 3.9-7.6 5.4-7.6.8 0 1.4-.5 1.4-1.1s1.1-2 2.5-3.1 2.5-2.5 2.5-3.1c0-.7 1.6-2.9 3.6-5 3.8-3.9 7.3-4.9 7.5-2m193.4 8.4c.4 2.7 1 4.9 1.4 4.9.5 0 1.9.9 3.2 2.1 2.1 1.8 2.4 2.8 2.2 8.5l-.3 6.4h3c3.3 0 4 1.9 1.5 4-.8.7-2 3.1-2.7 5.4-.7 2.2-1.8 4.7-2.5 5.4s-1.3 2.8-1.3 4.5c0 2.3-.3 2.8-.9 1.8-.7-1.1-1-1-1.4.5-.3 1.2-.5.7-.6-1.2 0-1.7-1-5.2-2.1-7.7-1.7-3.8-2.1-7.2-2.4-22.5-.3-14.6-.1-18 .9-17.6.7.3 1.6 2.8 2 5.5m455.4 15.7c4.7 4.6 10.2 9.2 12.1 10.2s4.5 2.8 5.7 3.9c2.6 2.4 4.3 2.7 4.3.7 0-2.1 2-3 3.3-1.7.9.9.6 1.6-1.2 3l-2.3 1.8 11.2 11.1c6.1 6.2 11.5 11.2 12 11.2.4 0 2.5 2.4 4.5 5.2 3 4.3 1.5 3.1-8.1-6.4-6.6-6.5-13.3-12.8-15-14-3.3-2.5-4.9-3.8-13.5-11.7-3.1-2.8-5.9-5.1-6.2-5.1-.7 0-15-14.2-18.2-18.1l-2-2.4 2.4 2c1.4 1.1 6.3 5.7 11 10.3m337.1-1c.9.9 2.1 2.5 2.6 3.3.5.9 3.5 3.7 6.6 6.3l5.7 4.6-.2 7.2c-.2 6 .2 8.2 2.3 12.2 1.4 2.7 3 5.1 3.7 5.3.7.3 1.3 1.4 1.3 2.4 0 1.7-.8 1.9-6.4 1.9-8.3 0-9.1-1-9.2-11 0-5.7-.5-8.2-1.7-9.4-.8-.9-1.8-1.6-2.2-1.6-.9 0-3.5-2.7-3.5-3.7 0-.9-4.5-10-5.8-11.7-1.4-1.7-2.1-5.6-1.5-7.3.8-1.9 6-1 8.3 1.5m-233 11c0 4.9 2.4 9.6 6.9 13.7 2.3 2.1 4.1 4.1 4.1 4.6 0 1.3-10.8 1.1-11.6-.2-.5-.8-.9-.8-1.4.1-1.6 2.5-15-4-15-7.4 0-.5 1.3.3 3 1.9 4.1 3.9 5.1 2.3 1.2-1.8-3.6-3.8-4.1-5.3-1.2-3.7 2.3 1.2 2.5.8.8-2.1-1.1-1.7-1-2.2.5-3 1.5-.9 1.6-1.2.2-2.5-.8-.9-1.5-1.9-1.5-2.4 0-1.2 3.2 0 4.3 1.4.5.7 1 .6 1.7-.4.5-.8 1-1 1-.4 0 .7.7 1.5 1.6 1.8s1.2.2.9-.5c-.4-.6.1-1.9 1.1-3 2.2-2.4 3.4-1 3.4 3.9m-794 11.4c0 .4-.4.8-1 .8-.5 0-1 .7-1 1.6 0 .8-.4 1.3-.9 1-.8-.6-4.1 5.2-4.1 7.2 0 .5-.7 1.5-1.5 2.2s-1.5 2.2-1.5 3.4c0 1.4-1.4 3-4.1 4.6-2.2 1.3-6.1 5-8.7 8.2-2.6 3.1-5 5.7-5.4 5.7-.4.1-1-1.5-1.4-3.4-.4-2.2-1.3-3.7-2.6-4.1-1.7-.5-.5-2.1 8.6-10.8 5.8-5.6 10.6-10.7 10.6-11.3 0-1.6 2.9-3.7 6.9-4.9 4.4-1.3 6.1-1.3 6.1-.2m978 6.3c1.9 2 6.7 5.2 10.8 7.2 9.7 4.8 11.8 6.6 14.9 12.6l2.5 5.2-2.8-2.5c-1.6-1.4-3-2.8-3.2-3.3-.2-.4-.9-.7-1.6-.7s-2.5-1.3-4.1-3c-1.5-1.6-5.3-4.1-8.4-5.6s-8-5.1-10.8-8.1c-4.7-4.7-5-5.3-3-5.3 1.3 0 3.8 1.5 5.7 3.5M94.7 609.6c0 .8-.3 1.4-.7 1.4-.8 0-6.2 5.5-10 10.1-3.9 4.7-19 18.3-19.6 17.6-1.4-1.3 1-6.8 4.4-10.3 12.5-12.9 22.1-21.2 23.9-20.8 1.1.3 2 1.2 2 2M524 649.9c0 .9-.5 2.2-1 2.7-.6.6-1.2 1.9-1.5 3-1.5 7-3.5 12.9-4.7 13.8-1.8 1.5-4.3 7.1-5.7 13.1-.7 2.7-2.1 6.3-3.2 8l-2 3 .4-3.5c.2-1.9.1-4.5-.4-5.8-1.5-4-6.9-2.2-6.9 2.4 0 1.2-.7 3.5-1.6 5l-1.6 2.9.6-4.9c.3-2.7 1.3-5.7 2.1-6.6s1.5-2.3 1.5-3.2c0-.8.9-2.5 2-3.8s2-3.2 2-4.3c0-1.3.5-1.7 1.5-1.3 1 .3 1.8-.1 2.1-1.2.4-.9 1.7-4 3-6.7 1.2-2.8 2.4-5.5 2.4-6 .1-.6.7-1.9 1.2-3 1.1-1.8 1.1-1.8 2 .5l1 2.5 1.8-3.5c1.1-1.9 1.9-4.3 2-5.4 0-1.5.3-1.6 1.5-.6.8.7 1.5 2 1.5 2.9m297.6 15.2c.9 2.1 2 3.9 2.5 3.9s.9.9.9 2-.7 2-1.5 2-1.5-.7-1.5-1.6c0-2.3-1.7-.8-2.2 2.1-.4 1.7-.1 2.5.9 2.5.8 0 1.2-.4.9-.8-.3-.5.5-.8 1.7-.8 2 .1 2.2-.4 2.2-4.9 0-4.8 1.2-7.8 2.8-6.8 1.9 1.2 3.7 8 3.5 13.6-.3 6.9-1.6 8-5.2 4.4s-6.6-4.4-6.6-1.9c0 1.1.7 2.2 1.4 2.5.8.3 2.2 1.9 3 3.6 1.3 2.4 1.3 3 .2 3.4-.9.4-2.7-2.1-5.5-7.7-3.8-7.4-4.1-8.6-3.3-12.2.5-2.1.7-5.2.5-6.7-.4-2.6-.2-2.7 1.7-1.7 1.1.6 2.8 2.9 3.6 5.1m384.7 17.1c1.7 4.9 3.3 8.8 3.6 8.8.5 0 4.7-10.5 6.6-16.8.5-1.3 4.5-1.7 4.5-.4 0 .4-1.2 3.9-2.6 7.7-1.4 3.9-3.3 9.2-4.3 12-1.2 3.6-2.3 5.1-3.8 5.3-2.2.3-2 .7-7.3-14.3-1.5-4.4-3.1-8.8-3.5-9.8-.6-1.5-.4-1.8 1.5-1.5 1.9.2 2.8 1.8 5.3 9m-147.8 2.5c2.5 2.7 4.5 5.4 4.5 6.1s.4 1.1.9.8c.5-.4.7.3.4 1.3-.3 1.1.6 3.6 2.1 5.7 1.4 2.1 2.6 4.3 2.6 4.7 0 1.8-9.4-.5-12.9-3.1-2-1.5-3.7-3-3.9-3.5-.2-.4-.9-.7-1.6-.7s-3.4-2-5.9-4.4c-5.3-5.2-5.3-7.9-.3-10.1 6.1-2.7 9.2-2 14.1 3.2m176.9-2.5c1.4 1.3 2.8 3.5 3.2 5l.6 2.8h-7c-3.9 0-7.3.4-7.6.8-.8 1.4 3.3 5.2 5.6 5.2 1.2 0 2.9-.7 3.7-1.4 1.2-1.1 2.1-1.2 3.1-.5 2.4 1.6-2.4 4.9-7.1 4.9-6.1 0-9.7-4.9-8.5-11.5 1.3-6.8 9.1-9.7 14-5.3m20.6-.7c5.9 3 6.8 9.8 2.1 14.6-4 3.9-8.2 3.9-12.2 0-5.8-5.8-2.2-15.6 5.9-16 .7-.1 2.6.6 4.2 1.4"/><path d="M630 134.5c-.1.5-.2 1.3-.2 1.7.1.3-.5 1.2-1.3 1.8-1.2 1-1.5 1-1.5-.2 0-1-.9-1.4-2.8-1.3-4.8.3-5.2 1-4.7 8.8l.4 7.2-1.1-5.5c-.6-3-1.6-5.8-2.2-6.2-.8-.5-.7-.8.2-.8.6 0 1.2-.8 1.2-1.9 0-1.4-.6-1.7-2.3-1.4-2.2.4-2.3.8-1.6 4.6.4 2.3 1.2 4.3 1.8 4.5 1.3.4 1.5 7.2.2 7.2-.5 0-1.2-.6-1.5-1.3-.3-.6-.3.1 0 1.8.3 1.6 1.1 3.3 1.7 3.7s1.2 1.9 1.3 3.5c.1 2.1.6 2.7 2 2.6 1.6-.2 1.5-.1-.3.9-2.5 1.2-2.9 3.2-2.4 12.9.2 3.6-.3 6.7-1.2 8.6-.9 1.6-1.8 4.5-2.2 6.5-.7 3.7-3 6.7-4.2 5.4-.3-.3.1-1.4.9-2.3.8-1 1.8-2.8 2.1-4.1.6-2.7.5-2.6-8.1 4.9-3.7 3.2-6 4.5-7.3 4.2-1-.3-2.5 0-3.2.6-.8.6-1.8.7-2.2.3-.5-.4-.5.1-.2 1 .4 1.1.2 1.5-.7 1.2-.7-.3-2.1.4-3.1 1.6-1.6 1.8-1.9 1.8-3 .4-.9-1.3-1.6-1.4-3.2-.6-1.1.6-2.4.8-2.8.4s-.6 0-.3.8c.3 1 1.5 1.4 3.2 1.2 1.5-.2 3.3.2 4.1.8.9.7 1.6.6 2.5-.5.7-.8 1.7-1.5 2.2-1.5s2.2-1 3.8-2.2 3.3-1.9 3.6-1.5c1 .9-1.4 3.5-3.9 4.3-1.2.4-2.7 1.2-3.4 1.9-1.6 1.7.1 3.1 4 3.3 3.6.2 5 1.1 4.4 2.6-.7 1.7 4.2 1.4 5.2-.2.6-1 1-.9 1.4.7.3 1.4 1.3 2.1 2.9 2.1 2.7-.1 6.4-2.5 5-3.4-.7-.4-.6-1.5.1-3 .7-1.3 1.5-2.2 1.9-1.9.5.2.5.9.2 1.5-.4.7-.2.8.4.4.7-.4 1.2-1.4 1.2-2.2s.5-1.4 1.1-1.4c.5 0 .8-.4.5-.9-.4-.5-.3-1.7.1-2.8.6-1.5.8-1.3 1.4 1.2.4 1.6 1 3.8 1.4 4.7.5 1.3.2 1.5-1.2 1.2-1.1-.3-2.5.2-3.2 1-1.1 1.3-1.1 1.6.3 1.6.9 0 1.6.4 1.6 1 0 2.4 1.7.6 3.4-3.5 1.9-4.5 3.6-5.9 3.6-3 0 .8.5 1.5 1 1.5 1.5 0 1.2-2.8-.6-5.6-1.3-1.9-1.4-2.8-.5-3.7.8-.8 1.1-.6 1.1.9.1 1.8 3.2 6.4 4.4 6.4.3 0 .6-1.4.6-3 0-1.7-.4-3-1-3-.5 0-1-.8-.9-1.8 0-1.5.1-1.5 1.2.2 3.2 5 5.6 7.1 6.8 5.9.9-.9 1.7-.8 3.5.4 2.3 1.5 2.4 1.4 2.4-1.3 0-2.6.1-2.6 1.3-.9 1.6 2 1.9 1.7 3.7-3.9 1.3-4 2.9-3.4 2.4 1-.1 1.3.2 2.6.6 2.9.8.5 1.2-.9 2.6-8.8.6-3.6 1.9-5.5 3.1-4.4.3.4.1 1.9-.5 3.6-.9 2.6-.8 2.9.7 2.8 1.3-.1 1.6-.8 1.3-3.1-.3-2.9-.2-3 1.2-1.2.8 1 1.7 2.4 1.9 3s.7.8 1.1.5c.3-.3-.3-1.8-1.4-3.2-1.2-1.5-2.2-3.6-2.3-4.7-.1-2.3-1.7-2.8-1.7-.5 0 .8-.4 1.5-1 1.5-.5 0-.7-1.4-.3-3.3.7-3.7 1.3-4.8 1.3-2.4 0 .9.5 1.7 1.1 1.7.7 0 .8-.7.4-1.8-.5-.9-.7-4.1-.6-7 .1-2.8 0-5.2-.3-5.2-.2 0-2.1 3.4-4.2 7.5s-3.9 7.3-4.2 7 2.3-6.2 6.6-14.8c.9-1.8-2.9-.5-3.9 1.4-.8 1.6-1.3 1.8-1.9.9-.5-.9-1.3-.9-2.7-.2-1.1.6-2.8 1.1-3.9 1-1 0-2.3.1-2.9.3-1.9.6-13.5-1.2-13.5-2.1 0-.6-.3-.9-.7-.8-1.7.4-5.3-1.4-5.3-2.8 0-.8-.8-1.4-1.7-1.4-1.4 0-1.5-.2-.4-1.3 1-1 1.6-.8 2.9.8 2 2.5 4.9 3.8 5.7 2.6.3-.5 1.5-.7 2.8-.3 1.9.5 2 .4.9-1.1-.8-.9-1.2-2.4-.9-3.4.4-1.5.5-1.5.6.2.2 3.7 4.1 6.2 4.1 2.7.1-1.6.1-1.6 1.1 0 .9 1.7 1.1 1.7 3.1-.2 1.2-1.1 2.7-2 3.2-2 .6 0 .3.7-.6 1.4-1.9 1.4-2.4 4.1-1 5 1.2.7 8.4-1.5 10-3.1.8-.7 1.1-2.2.7-3.3s-.2-2 .4-2 1.1.4 1.1.9c0 1.3 2.5.8 4.2-1 1.9-1.9 3.3-5.9 2-5.9-.5 0-1.2-.9-1.5-1.9-.3-1.4-1.1-1.8-2.6-1.4-1.6.4-1.9 1.1-1.5 2.8.3 1.3.1 2.6-.5 2.9-.7.4-1.1-.1-1.1-1.4 0-1.1-.7-2.3-1.5-2.6-1.1-.5-1.2-.9-.2-1.9.7-.7 1.6-1.1 2-.8 1.2.7 5.7-2.6 5.7-4.2 0-.8.4-1.5.8-1.5.5 0 1.6-1.6 2.5-3.5 1.4-2.9 1.4-3.3.2-2.8-.9.3-1.8 1.6-2.1 2.8-.8 3.2-3.6 5.6-5.3 4.6-.7-.5-1-1.4-.7-2 .4-.6 1.1-.9 1.6-.6 1.2.7 5.2-5.2 4.8-7.1-.4-2.2-2.2-1.8-2.6.6-.2 1.2-.8 1.7-1.4 1.4-.8-.5-.9-.1-.4 1.2.5 1.4.4 1.6-.4.8-.9-.9-.8-1.7.1-3.3 1.1-1.6 1.1-2.3.1-3.3-.9-.9-1.2-.7-1.2.9 0 1.2-.4 2.5-1 2.8-.5.3-1 1.5-1 2.5 0 2.4-2.1 7-3.1 7-.4 0-.9-.7-1.1-1.5-.2-1-.7-1.2-1.8-.5-1.2.7-1.2 1.2-.2 2.2 1.5 1.5 1.6 4.8.2 4.8-.6 0-1.3-.7-1.6-1.5-.4-.8-1-1.5-1.5-1.5s-.9.7-.9 1.5-.4 1.5-1 1.5c-.5 0-1-.7-1-1.5 0-1.7-4-2.1-5.5-.6-.6.6-1.1-.2-1.2-2.1-.1-1.7-.8-3.5-1.5-4-1-.6-1-.8 0-.8 1.6 0 4.2-2.4 4.2-3.9 0-.6-1.1-1.1-2.4-1.1-1.7 0-2.6-.8-3.4-3.3-.5-1.7-1.1-2.8-1.2-2.2"/><path d="M666.6 152.8c-.3.9-.8 2.2-1.1 2.8-.5 1 7.4 2.9 16.1 3.8 2.9.3 4.4 1.5 4.4 3.4 0 1.3 2.2 2.3 9.1 4.2 5 1.3 9.3 2.8 9.5 3.2.3.4.3.8 0 .8-1.6 0-11.4-2.3-13.1-3-1.1-.5-4.2-1.4-7-2-2.7-.6-5.8-1.2-6.8-1.5-1-.2-4.3-.5-7.3-.6-3.8-.2-5.8-.7-6.4-1.8-2.4-4.3-3.2 14.5-.8 20.3.8 2.1 3 5 4.9 6.4 1.9 1.5 3.9 3.3 4.5 4 1.6 2.1 4.2-1 5-5.9.9-5.3 2.5-3.9 1.8 1.7-.6 5.5.4 7.6 2.2 4.3l1.3-2.4.1 2.7c0 2.2.5 2.8 2.3 2.9 1.2 0 6.5.3 11.8.5 7.1.4 9.8.2 10.6-.8.6-.7 2.7-5.4 4.6-10.3 2.8-7.3 3.2-9.2 2.1-9.8-2.2-1.3-1.6-2.7 1.1-2.7 1.9 0 2.8-.8 4-3.6 1.8-4.3 1.8-4.4.5-4.4-.5 0-3.5-1.2-6.7-2.6-3.1-1.5-6.7-2.7-8-2.7s-2.3-.3-2.3-.7c0-.7-2.6-1.4-8.5-2.5-.5-.1-1.2-.3-1.5-.5-1.4-.7-8-.6-8 .2 0 .4-.9-.1-2.1-1.3-1.1-1.1-3-1.9-4.2-1.7-1.2.1-2.8-.1-3.4-.5-.7-.4-2.8-1-4.7-1.2-2.6-.4-3.5 0-4 1.3M723.1 166c-1.6.9-.7 4.1 1 3.8.6-.2 1.3.2 1.6.9.3.8-.6 1.1-2.3 1-1.9-.1-2.9.3-3.2 1.4-.2 1.2 2 2.8 8.1 5.8 4.6 2.2 8.8 4.1 9.3 4.1.9 0 5.4-7 5.4-8.4 0-.3-.6-.6-1.2-.6-.7 0-2.4-.9-3.8-2s-3.5-2-4.8-2c-2.1 0-7-2.5-8.2-4.2-.3-.4-1.2-.3-1.9.2M757.7 177.2c-1.4 2-1.8 2.1-2.7.8s-1-1.2-.8.5c.2 1.6-.2 1.9-2.2 1.7-1.3-.1-3.4-1.2-4.6-2.3l-2.2-2.1-2.6 4.1c-3.1 4.9-3.2 6.1-.6 6.1 1.4 0 1.8-.5 1.3-1.7-.4-1.1-.3-1.4.6-.9.7.5 1 1.4.7 2.1-.4 1.2 4.2 6.5 5.8 6.5.5 0 2.3 1.2 4.1 2.7 1.7 1.6 4 3.3 5.1 3.9 1 .7 1.7 1.4 1.4 1.7s-5.2-2.6-10.9-6.4c-5.8-3.8-10.8-6.9-11.3-6.9-.4 0-1.7 1.8-2.8 4l-2 3.9 2.2 1.2c1.3.7 2.5 1.5 2.8 1.9s1.4 1.2 2.5 1.8c1.9 1.1 1.8 1.1-.7 1.2-1.5 0-3-.4-3.3-1-.3-.5-1.4-1.4-2.5-2-1.6-.9-2.4.2-7 8.5-2.8 5.3-4.8 10-4.5 10.5.9 1.5 4.3-1.1 5.6-4.2.6-1.6 1.4-2.8 1.8-2.8.3 0 1.5-1.8 2.5-4 1.1-2.2 2.1-3.8 2.3-3.6.8.8-3.8 9.3-6.7 12.5-2.9 3.1-3 3.5-1.8 6.2 1.6 3.6 3.3 3.7 5.2.1.8-1.5 2.4-3.8 3.6-5.2s3.8-5.1 5.7-8.2c3.4-5.5 6.3-8 6.3-5.4 0 .7 1.2 1.9 2.8 2.7 1.5.8 4.5 2.6 6.6 4.1 4.6 3.3 5.3 3.4 8.6.8 2.5-2 2.5-2 .5-3.8-3.7-3.2-5.2-5.8-1.7-2.9 4 3.2 7.2 3.5 7.9.7.3-1.1.8-2 1.2-2 .3 0 1.8-1.1 3.2-2.4 3.6-3.3 6.9-4.3 6.9-1.9 0 1.9-7.2 9.3-9.1 9.3-.6 0-.9.6-.6 1.4s-.1 1.7-.9 2-1.4 0-1.4-.6c0-.7-1.4.1-3 1.7l-3 2.9 2.6 2.7c2.3 2.4 2.9 2.6 4.8 1.6 1.1-.7 2.5-1.8 2.9-2.5.4-.6 1.7-1.2 2.7-1.2 2.3 0 6-2.9 6-4.6 0-.6.9-1.4 2-1.7s2-1 2-1.7c0-.6-.4-.8-1-.5-.5.3-1 .1-1-.4 0-.6.9-1.1 2-1.1 2.7 0 4.2-3 2.4-4.8-1.3-1.2-1.8-1.1-3.9 1.2-1.5 1.6-3 2.4-3.7 2-.8-.5-.1-1.6 2-3.4 3.8-3.2 3.9-3.6 1-6.1-2.8-2.2-4.7-2.4-5.4-.4-.4.8-1.4 1.5-2.3 1.5-1.3-.1-1.2-.4.7-1.9 2.9-2.5 2.8-3.7-.6-5.5-1.6-.8-3.5-2.2-4.2-3.1-2-2.4-12.8-9.5-14.4-9.5-.8 0-2.1 1-2.9 2.2M717.6 178.9c-1.3 2-6.3 17.1-5.7 17.2.3 0 1.6.2 2.9.5 1.7.3 2.2-.1 2.2-1.6 0-2.3.6-2.5 2.4-.7.7.7 1.2 2.9 1.2 5-.1 3.6-.2 3.7-3.3 3.1-3.2-.6-3.3-.5-3.3 2.7.1 2.7.7 3.8 3.5 5.6l3.4 2.1 2.4-3.6c4.3-6.6 6.8-11.5 6.4-12.6-.3-.6-2.7-2.2-5.6-3.6-2.8-1.4-5.3-3.1-5.6-3.8-.3-.9 0-1 1.5-.2 2.2 1.2 5.7 1.3 6.3.2.2-.4.2-.2.1.5-.3 1.3 1.2 2.7 3.8 3.6 1.2.4 2.3-.4 3.7-2.7 1.2-1.8 2.1-3.7 2-4.2 0-.5-2.8-2.2-6.2-3.8-3.4-1.5-7-3.2-7.9-3.7-2.2-1.1-3.5-1.1-4.2 0"/><path d="M741.4 211.3c-8.8 13.5-10.4 16.3-10.4 18.3 0 3.2 2.5 9.3 4.3 10.4 1.2.7 1.7.7 1.2.1-.3-.6 0-1.1.7-1.1s2.4-1.2 3.7-2.5c1.3-1.4 2.7-2.5 3.1-2.5 1.1 0 16-17.1 16-18.5 0-.9-12.8-10.5-14.1-10.5-.2 0-2.2 2.8-4.5 6.3M788.9 215.5c-5.2 5.3-9.6 10.1-9.8 10.8-.4 1.2 11.1-9.1 11.7-10.5.2-.4 1-.4 1.8-.1 1 .4-.5 2.4-5.2 6.9l-6.7 6.3 5.3 6.1c2.8 3.3 5.4 6 5.6 6 .5 0 3.8-2.7 8.2-6.8 1.9-1.7 4-3.2 4.6-3.2s3.1-1.8 5.6-4c3.4-2.9 4-3.9 2.6-4-1.4 0-1.6-.3-.7-1.3.8-1 .7-1.8-.2-3.1-1.1-1.5-2.1-1.7-5.5-1.1-2.6.4-4.2 1.2-4.2 2.1 0 .8.7 1.4 1.6 1.4 2 0 1.3 2.4-.8 2.8-1 .2-2-.8-2.6-2.8-.6-1.6-1.8-3.3-2.7-3.6-3.8-1.5-.5-4.4 5.3-4.4 1.2 0 2.2-.4 2.2-.8 0-.9-5.3-6.2-6.2-6.2-.3 0-4.7 4.3-9.9 9.5M564 210.7c-.8.4-2.2 1.4-3.1 2.5-.9 1-2.3 1.8-3 1.9-1.6.1-9.9 9.4-9.9 11 0 .6.9 1.3 2 1.6s2 1.2 2 1.9c0 1.9-1.9 1.8-2.6-.1-1.1-2.7-2.1-1.6-3.7 4.2-2.4 8.9-2.5 10.8-.4 10.7 2.1-.2 2.3 1.2.3 1.9-.8.3-1.6 1.8-1.9 3.4-.4 2.5-.4 2.4-.6-.7-.1-2.7-.4-3.1-1.1-2-.5.8-1 5.7-1 10.9 0 8 .2 9.2 1.4 8.2s1.3-.8.9.9c-.3 1.1-.9 2.3-1.4 2.6s-.9 1.7-.9 3.1c0 1.5-.6 3.4-1.4 4.2-.8.9-2.1 4.3-3 7.6-.8 3.3-1.8 7.1-2.2 8.5-1.2 4.2.8 1.3 2.7-4 .9-2.7 2.6-6.2 3.7-7.7 1-1.6 2.2-4 2.6-5.6.3-1.5 1.1-2.7 1.6-2.7 1.2 0 8.2-6.9 10.4-10.3 2-3 1.4-6.2-1.5-7.7-1-.6-2.8-3-3.9-5.3-2-4.1-2-4.1-.1-2.2 1.1 1.1 2.1 2.7 2.3 3.4.4 2.1 5.6 6.4 6.7 5.7 1.7-1.1-.2 3.8-3.2 8.2-1.6 2.4-3.5 4.6-4.3 4.9s-1.4.9-1.4 1.5c0 .5-1.3 2.1-3 3.5-1.6 1.3-3 2.9-3 3.5 0 .5-.8 2.2-1.8 3.6-2.2 3.1-5.2 12.1-5.2 15.2 0 2.9 3.1 2.3 4.7-1 .7-1.4 1.3-1.8 1.2-1 0 .8-1.7 3.5-3.8 5.8l-3.8 4.4-.7-4.3c-.4-2.3-1-3.8-1.5-3.3-1.1 1.3-3.7 8.1-5.1 13.4-.7 2.5-1.6 5.6-2.2 6.9-.6 1.7-.5 2.6.3 3.2 1.3.8-2.4 3.2-5.5 3.4-1 .1-3.5 1.9-5.5 4.1-2 2.1-4.8 4.7-6.4 5.7-1.5.9-2.7 2.4-2.7 3.3 0 1.2.5 1 2.2-.6 1.2-1.1 2.5-2 2.9-2 1.5 0 13-8.2 21.7-15.5l3.6-3-2.3 3.2c-1.2 1.8-2.7 3.3-3.2 3.3s-.9.4-.9 1c0 .5.7 1 1.6 1 1.2 0 1.5.6 1.1 2.1-.4 1.7-.3 1.8.9.8.8-.6 1.2-2 .9-3-.8-2.4 1.2-3.4 3.1-1.5.8.9 1.1 1.6.5 1.6s-1.1.4-1.1 1c0 1.3 8.9.7 11.7-.8 2.6-1.5 5.3-1.6 5.3-.2 0 .5-.6 1-1.3 1s-2.1 1.6-3 3.6c-1.1 2.2-2.8 3.9-4.7 4.6-1.7.5-3 1.5-3 2.1 0 1.2-5.1 5.1-8.2 6.2-.9.4-1.5 1.2-1.2 2 .3.7-.2 1.5-1.1 1.9-.9.3-1.4 1-1.1 1.4.3.5-.8 1.6-2.5 2.6-1.6.9-2.7 2.1-2.4 2.7.3.5 0 .6-.8.3s-3.9 1.4-7 4c-3.1 2.5-8.5 5.9-12.2 7.5-3.6 1.6-7.7 4.4-9.1 6-2.5 3-6.3 4.4-4.8 1.8.5-.9.4-.9-.5-.1-.7.7-1.1 1.9-.9 2.8.3 1.4.7 1.4 3.8-.3 1.9-1.1 5-2.8 6.8-3.7 1.7-1 3.2-2.3 3.2-2.9 0-1 5-4.5 6.4-4.5 1.2 0-3.9 4.7-10.9 10.1-3.8 3-7.2 5.7-7.3 6.2-.2.4-.8.5-1.3.1-.5-.3-1.8.1-3 .9-1.1.8-1.7 1.7-1.2 2 1.4.9 22.8-12.5 31-19.3.6-.5 3.3-2.4 6-4.1 4.2-2.7 4.4-3 1.8-2.4-1.6.3-4.2 1.2-5.7 2-1.6.7-2.8 1-2.8.6s4-2.6 8.8-4.8c7.1-3.4 10.1-5.6 15.3-11 3.5-3.7 6.4-7.1 6.5-7.6.1-.4.2-1.3.3-2.1 0-.7.9-1.6 2-1.9 1.4-.3 1.7 0 1.4 1.4-.3 1.1-.2 1.9.1 1.9.8 0 4.4-8.2 5-11.3.2-1.2 1.1-4.2 2-6.7 1.1-3.3 1.2-4.6.4-5.1-.9-.6-.9-1.4-.1-3.2 1.1-2.2 1-2.4-.9-1.9-1.5.4-1.9.2-1.3-.7.4-.7 1.6-1.1 2.6-.8s2 0 2.3-.7c.3-.6.3.2 0 1.9-.4 2.9-.4 2.9.6.5.6-1.4 2.5-5.1 4.1-8.2s2.5-5.9 2-6.3c-.6-.3-1.4.3-2 1.2-1.4 2.5-1.4 1 .1-2.2.7-1.5 1.7-2.4 2.5-2.1 1 .4 1.2-.1.7-2.2-.4-1.5-.3-2.4.1-2 1.5 1.4 3.3-2.6 2.8-5.9-.3-1.9 0-3.9.6-4.7 1.5-1.7.4-18.6-1.1-18.6-.6 0-.8-.6-.5-1.4s-.4-2.7-1.5-4.3c-1.2-1.5-2.3-2.9-2.4-3.1s-1.3.2-2.6.9c-2.2 1.2-2.2 1.1-.6-.8 1.6-1.7 1.6-2.1.2-4.4-.8-1.3.6 0 3.3 2.9 2.6 2.8 5.4 5.2 6.1 5.2s1.2 1.3 1.2 3.3c0 3.9.8 5.1 2.5 3.7.9-.8 1.1-.4.8 1.4-.3 1.4.2 3.5 1.1 4.8 2.5 3.5 1.9 4.2-1.1 1.1-1.8-1.9-2.4-2.2-2-1 .4 1 .7 3.7.7 6 0 3.1.3 3.8 1 2.7.8-1.3 1-1.2 1 .2 0 1 .4 1.8.9 1.8 1.9 0 1.8 3.8-.1 5.4-1.6 1.4-1.8 2.5-1.3 5.9.4 2.3 1.2 4.6 1.9 5.2.7.5 1.1 1.5.9 2.2-.6 1.8 1.6 9.3 2.8 9.3.6 0 .7-.5.4-1-.3-.6-.3-1 .2-1 .8 0 5.6 10.1 5 10.6-.2.2-1.5-1.5-3-3.8l-2.7-4.2v3.2c0 1.7.7 5.1 1.4 7.4.9 2.4 1.6 8.9 1.7 14.5.2 9.5.4 10.3 2.2 10.3 1.6 0 1.7.3.8 1.4-1 1.1-.6 2.1 1.9 4.9 3.4 3.9 4 6 .9 3.1-1.7-1.6-2.2-1.6-2.9-.4-1 1.5-1.1 2.7-1.6 13.3l-.2 5.8 3.4-2.6c2.1-1.6 3.2-2 2.8-1-.3.8-.9 1.5-1.3 1.5-1.5 0-5.1 6-4.5 7.4.3.9.9 1.4 1.3 1.2.3-.2 2.2.9 4.1 2.5 2.4 2 3 2.9 1.8 2.9-.9 0-2.6-1.2-3.8-2.7-2.1-2.7-2.1-2.7-2.7-.5-.6 2.3-2.3 3.1-2.3 1 0-.7-.3-.8-.9-.2-1.1 1.2-3.1 11.8-3.1 16.6 0 4.9 2.6 10.2 4.6 9.4.8-.3 2.5.1 3.8.9 1.2.8 2.6 1.2 2.9.8.4-.3.7-.1.7.6 0 .6-.8 1.5-1.7 1.8-2.6.9-3.3 2.3-3.3 6.5 0 2.7.4 3.8 1.5 3.8.8 0 1.5.8 1.5 1.9 0 1 1.1 4.7 2.4 8.2l2.4 6.4 2.1-4.5c2.3-5 2.8-2.7.7 3.3-.8 2-1 4-.5 4.2.4.3 2.7.3 5.1 0 4.2-.5 4.2-.5 1.3.7-6.8 2.9-6.8 2.8-4.4 8.6l2.1 5.2 2-2.5c3.6-4.7 5-9.3 3.8-13.1-.6-1.9-1.6-3.4-2.2-3.4s-.8-.3-.5-.6c.8-.8-3.3-8.5-4.2-8-.3.2-.6-.9-.7-2.5s.3-2.9.7-2.9c.5 0 .9.5.9 1 0 1.6 7.3 16 8.1 16 .4 0 1-1.2 1.3-2.6 1.1-4.1 1.5-2.4.7 2.8-.5 2.7-.3 5.4.2 6.5.9 1.6.8 1.6-.5.5-1.4-1.2-2-.5-4.8 5.3-2.5 5.3-3.1 7.7-2.8 11.6.3 5.3.2 5.5-2.5 3.5-1.2-.9-1.4-1.6-.8-2.1 1.2-.7 1.5-4.8.5-5.8-.3-.3-1.7-.1-3.1.4-1.9.7-2.4.6-2-.3.2-.7 1.1-1.2 2.1-1 .9.2 1.6-.2 1.6-.8 0-1.3-3.1-11-3.5-11s-4.5 13.6-4.5 15c0 .6.5.8 1 .5 1.9-1.1 1 1.6-1.5 4.9-1.4 1.8-2.5 3.9-2.5 4.7-.1.8-.7 2.7-1.6 4.4-1.2 2.6-1.3 2.7-.9.5.3-1.4 1.2-4.7 1.9-7.4 1.3-4.5 1.2-4.9-.5-5.3-1.1-.3-1.9-.9-1.9-1.3 0-.5.8-.6 1.8-.3 1.5.3 2.2-.9 4-6.9 1.2-4.1 2.2-7.7 2.2-8.1 0-1.5-1.8-.6-5.9 2.9-2.3 2-4.5 3.4-4.8 3-.9-.9 1.5-3.3 6.3-6.3 4.8-3.1 5.7-5.2 2.2-5.4-1.7-.1-1.9-.2-.5-.6.9-.2 1.7-.7 1.7-1 0-2.1-3.4-13.3-4.7-15.2l-1.6-2.4-1.3 2.4c-.7 1.3-1.3 3.1-1.4 4 0 2.4-3 9.2-3.7 8.5-.3-.3.1-2 1-3.8 2.2-4.8 2.4-10 .4-12.8-.9-1.3-1.7-3.1-1.7-4s.7-.4 1.8 1.2c2.4 4 4.5 3.7 3.7-.5-1.2-6.1-2.6-9.5-4.5-11.2-2-1.8-2-1.7-2 1.7 0 1.9-.3 3.8-.7 4.2-.5.4-.8 1.5-.9 2.4 0 1-.3 2.4-.7 3.2-.3.8-1 3.6-1.5 6.2-.7 3.6-.6 4.5.3 4.2.7-.3 1.6-1.9 1.9-3.6s.9-2.8 1.3-2.5c.7.7-1 7.1-3.4 12.4-1.9 4.4-3.6 14.1-2.7 15.5.5.8 1.4-.3 2.5-2.8 1-2.1 1.8-3.3 1.8-2.6.1 1.9-2.8 7.2-4 7.2-.6 0-.8.4-.5.9s-.1 2.5-.9 4.5c-.8 1.9-1.5 5-1.6 6.8 0 1.8-.3 2.7-.6 2-.8-2-2.3-1.4-2.3 1 0 1.3-.7 3.6-1.5 5.2-.8 1.5-1.2 3.2-.9 3.7.3.6 0 1.6-.6 2.4-.8 1-1.4 7.2-1.7 18.4-.5 19.7 2.5 46.8 7.9 73.1.7 3 1.2 8.6 1.2 12.5.1 3.8.5 7.3 1 7.7.5.3.2 4.1-.7 9-1 4.5-1.7 9.2-1.7 10.3 0 3.8-2.1 9.6-3.2 8.9-.6-.4-.8-.3-.4.4.3.6.2 1.3-.4 1.7-.5.3-1 1.2-1 1.8 0 .7.4.6 1-.3 1.2-1.8 1.2-.2 0 2.5-.6 1.4-.9 1.6-1 .5-.4-2.8-2.9 10.5-3.6 18.5-.4 5.5-.3 7.7.4 7 .5-.6 1.2-1.9 1.5-3 .7-2.5 0 4.6-.9 9.9-.7 4.5 1.2 34.1 2.6 40.1.6 2.2 1.2 8 1.4 13s.4 10 .5 11.1c.1 2.1.6 2.2 12 2.3 13.1.2 13.1.2 13.1-6.5 0-2.5-.4-3.3-1.2-2.8-1 .5-1 .4-.1-.6.6-.7.9-2.7.6-4.6-.4-2.2 0-4.2 1-5.7.8-1.3 2.3-6.2 3.2-10.8 1.5-7.4 3.8-16.5 5.3-20.9 1.9-5.5 2.9-10.7 2.7-14.8l-.3-4.7.8 4c.5 2.7.7-.3.8-9.3.1-7.3-.2-13.1-.6-12.8-.4.2-.6-1.2-.4-3.2.6-5-.6-3.6-2.8 3.5-2.2 6.9-2.6 4.1-.5-3.7 1.7-6.4 1.9-10 .5-10-.5 0-1.2 1.1-1.6 2.5-.3 1.4-1 2.5-1.5 2.5-.9 0 1-5.1 2.2-6 1.1-.8 4-10.1 4.5-14.4.2-2.3.8-6.8 1.3-10.1s.7-6.1.6-6.3c-.2-.2-1.1 2.1-2 5s-1.9 5.9-2.1 6.7-.7 1.2-.9.9c-.8-.8 3.5-13.8 4.4-13.8.5 0 .7-.8.4-1.9-.3-1 .2-3.2 1.1-4.8 1.5-3.1 1.8-7.6.4-6.7-.5.3-.6 1-.3 1.5.4.5.1.9-.5.9-1.4 0-.3-4.2 2.7-10.2 1.3-2.5 2.6-6.8 3-9.5.6-4.4.5-4.7-1-3.4-1.5 1.2-1.6 1-.6-1.8 1.3-3.7 2.9-5 2.2-1.9-.3 1.8-.2 1.9.5.8 1.7-2.6 2.5-6.3 1.3-5.6-.7.4-1.1-.1-1.1-1.3s.4-2.1 1-2.1c1.3 0 3.3-7.8 2.7-11.4-.2-1.6.4-5.3 1.4-8.2s3-11.9 4.4-20.1c5-29.6 6.6-37 8.1-37 .9 0 1.3.6.9 1.5-.4 1.2-.3 1.3 1 .2 1.2-1 1.6-.9 2.1.4.3.9 1 1.6 1.5 1.6.4 0 .6-.7.3-1.5-.4-.9 0-1.5 1-1.5.9 0 1.6-.8 1.7-1.8 0-1.4.2-1.4.9.3.8 1.9.8 1.9 1.7-.4.9-2.2 1-2.2 1.7-.6.4 1.1.1 2.4-.7 3.2-1.4 1.5-1.1 6 1.9 28.8 1.6 12.2 2.7 17.6 6.3 32 1.1 4.4 2.3 10.1 2.6 12.8.4 2.6.9 4.6 1.3 4.3.4-.2.8 3.1.8 7.4.1 5.4.7 8.5 1.9 10.3.9 1.5 1.5 3.4 1.1 4.2-.3.8 0 1.5.7 1.5.9 0 .9.2.1.8-.8.5-.9 2.4-.2 6.7.5 3.3 1.1 9.4 1.2 13.5.3 8.1 1 12.5 3.4 21 2 7.5 2.6 14 1.4 15.2-.6.6-.8 2.6-.5 4.4.4 2.4.2 3.4-.7 3.4-1.8 0-.7 24.8 1.3 31 5.3 15.9 9.5 36.2 10.2 48.2.5 8.8.1 7.7-2.5-7.2-2-11.3-4.7-25.3-4.9-25.7-.1-.2-.4-1.1-.7-2-.3-1-1.2-3.4-1.9-5.3-4-10.2-5.6-23.8-4.3-35.5 2.1-18.9 2.1-21.5-.6-31.9-1.4-5.4-2.6-11-2.6-12.4 0-3.4-3.1-14.3-3.9-13.8-.3.2-.6-1.5-.6-3.7v-4.2l-5.2-.1c-3.5-.2-5.3.2-5.3.9s-.4.7-.9-.2c-.8-1.2-1.1-1.2-2.4 0-1.1 1.2-1.1 1.7-.2 2.6.7.7 1.5 1.8 1.7 2.4.3.9 1.5.4 4-1.4 1.9-1.5 3.7-2.7 4.1-2.7 1.2 0 1.8 6 .8 7.7-.6 1-1.1 1.3-1.1.7-.1-3.7-8-1.6-8 2.1 0 3-2.5 5.2-3.4 3-.3-.9-.1-2.5.4-3.5 1.3-2.4 1.3-4-.1-4-.6 0-.9.7-.5 1.5.3.8.1 1.5-.4 1.5-.6 0-1 .6-1 1.4s-.4 1.7-.9 2.1c-1.4.8-.2-10.7 1.2-12.1 1.6-1.6-2.7-4.4-6.7-4.5-3.9-.1-3.9-.1-1.3-.9 1.6-.5 3.5-.6 4.2-.4 1.9.8 3.8-2.9 2.3-4.4-1.8-1.8-10.8-1.6-10.8.3 0 .8-.4 1.5-1 1.5-.5 0-1-.9-1-2 0-1.9-1.2-2.6-3.5-2-.5.2-1.8.2-2.7.2-1.3-.1-1.8.7-1.8 2.5 0 2 .3 2.3 1.3 1.4 1.1-.8 1.8-.6 3.1.8 2.5 2.7 1.3 4.2-2.4 3.1-2.9-.8-3-.7-3 2.1 0 1.7.4 2.8.9 2.4.5-.3 1.3-.1 1.6.5.4.6 1.5.8 2.6.5 1.1-.4 1.9-.2 1.9.5 0 1.5-5.9 7.4-6.7 6.7-1.2-1.2-3.2 2.2-4.3 7.4-.6 3-1.9 8.8-2.8 12.9-1.2 5.4-1.5 10.9-1.2 20 .4 14.6.4 31.5 0 45.5-.3 8.6-.4 9.2-.9 4.5l-.6-5.5-1.4 6.8c-.7 3.7-1.7 7-2.2 7.3s-.9 2.5-.9 4.9-.8 6.3-1.8 8.7c-2.2 5.1-3.9 13.6-4.7 23.5l-.6 7.3H622l.1-9.8c.1-5.3.5-11.1.9-12.7.4-1.7.5 2.7.2 9.7l-.5 12.8H642l.1-3.8c0-2 .1-7 .1-11 0-3.9.5-7.2.9-7.2.5 0 .9 4.9.9 11v11h11.2l-.4-13.4c-.2-7.4 0-13.2.4-13 .5.3.8 4.9.8 10.3s.3 11.3.6 13l.7 3.1h11.9c10.4 0 11.9-.2 11.4-1.5-.3-.9-.2-3.7.2-6.3l.7-4.7.5 6 .5 6 10.8.3 10.7.3v-6.8c0-3.7.5-9.5 1.1-12.8.5-3.3 1-12.2 1-19.7-.1-8.6.3-13.9 1-14.4.6-.3.8-1.8.5-3.3-.5-1.9-.4-2.2.4-1.1.7 1.1 1-.5 1-5.8 0-4.1-.4-7.2-1-7.2-.5 0-1-1.2-1-2.6 0-1.5-.4-5.4-1-8.8-.5-3.3-1.2-8.2-1.6-10.9-.3-2.6-.9-4.5-1.3-4.2-.5.2-.6-.8-.4-2.3.3-1.9.2-2.3-.5-1.3-.7.9-1.3 0-2.1-3.5-.6-2.7-1.1-6-1.1-7.4 0-7.4-.2-12.8-.6-15.5-1.2-6.8-1.3-9.5-.4-10 .6-.4 1-3.1 1-6.1 0-3.1.4-6.3 1-7.3.5-1 1-3.7 1.1-5.9.2-2.3.6-4.2 1-4.2.7 0 1.8-5.4 2.5-13 .3-2.5.9-6 1.4-7.8.5-1.9.5-3-.1-2.7-1.2.8-1.1-.3.5-6.1.8-2.7 1.8-7.6 2.2-10.9.9-7.1.9-24.9 0-26.4-.4-.5-.2-1.3.4-1.6.6-.4.9-1.4.6-2.3-.3-1-.6-4.3-.7-7.4-.1-3.2-.5-5.8-.9-5.8-.3 0-.6-3.5-.6-7.9 0-4.3-.5-8.5-1.1-9.2-.5-.8-1.6-4.6-2.4-8.4-.7-3.9-1.7-7.3-2.1-7.6-.5-.3-1.5-3.2-2.3-6.5-.9-3.2-2.1-7.2-2.7-8.8-1-2.6-1.2-2.7-1.9-1-.4 1-.9 3.2-1 4.9-.1 1.6-.5.3-.8-3-.6-5.9-.7-6-3.8-6.3-2.9-.3-3.3 0-3.3 2.1 0 3.6 2 8.8 3.2 8.1.5-.4.8-1.5.5-2.5-.3-1.1-.1-1.9.4-1.9s.9 1.2.9 2.6.8 3.6 1.7 4.8l1.8 2.4 1.2-2.7c1.1-2.6 1.1-2.6 1 1 0 3.5 4.9 16.9 6.2 16.9.3 0 .7 1.8.8 4 .1 4-1 5.3-2.1 2.4-.3-.9-.6-2.4-.6-3.5 0-2.6-6-16.9-7.1-16.9-.5 0-.6.7-.3 1.5.4.8.1 1.5-.5 1.5s-1-.3-1-.8c.4-2.2-2.7-7.2-4.4-7.2-.4 0-.5 2.6-.4 5.7.2 4.7 1 7 4.1 12 3.5 5.6 4.1 6.1 6 5.2s1.8-.8-.3 1.1c-2.1 1.8-2.3 2.4-1.2 4.7 1.3 2.7.9 3.9-.9 2.8-.6-.3-.9-1.4-.8-2.3.4-2.2-2.6-2.7-6.4-1.1-2.8 1.2-2.9 1.4-2.4 6.3.6 5.2.3 5.3-.8.3-.8-3.6-1.9-3.4-3.4.5-.6 1.7-1.4 2.9-1.8 2.6-.3-.3.2-2 1-3.7 2.1-4.1 2-8.4-.4-13.1-1.1-2.2-2-4.6-2-5.5 0-.8-.4-1.5-1-1.5-.5 0-1 1-1 2.3 0 1.2-.9 3.9-2 6-2.1 3.9-2.7 8.3-1 7.2 2.3-1.4.8.5-1.9 2.4l-2.8 2 1-4.3c.9-3.8.6-5.3-1.7-11.1-1.5-3.7-2.5-7-2.2-7.3.5-.5 2.2 3 4.8 9.8.9 2.4 1 2.2 3-3 1.4-4 2-8 2-15 0-7.8.1-8.5.7-4.3.8 6.4 1.7 7.5 2.6 3.1.4-1.8 1.5-5.6 2.6-8.5 1.3-3.6 1.5-5.4.7-5.9-.7-.4-.5-1 .6-1.6.9-.5 1.6-2.2 1.6-4 0-2.4.3-2.9 1.8-2.4 1.6.6 1.6.5 0-.8-1-.7-1.8-2.2-1.8-3.2s-.4-2.5-.9-3.2c-.8-1.3-3.5 1.3-6.8 6.4-1 1.6-1 1.4-.3-1.1.4-1.7 2-6 3.4-9.8 1.4-3.7 2.1-6.7 1.6-6.7-.6 0-1 .4-1 .8 0 .9-7 4.5-7.6 3.9-.2-.2 2.1-1.9 5.1-3.8s5.9-4.4 6.5-5.7c1.5-3.4 1.2-7.9-.6-8.6-2.8-1.1-3.6.4-2.9 5.8.4 3.5.3 4.6-.4 3.6-.5-.8-.8-1.7-.5-2.1.7-1.1-1.8-5.9-3-5.9-.6 0-3.7.8-6.9 1.8-3.9 1.3-6.3 2.7-7.3 4.3-2.6 4.5-6.4 13-6.4 14.2 0 1.9-2.9 5.6-3 3.8 0-1.1-1.3-1.3-6.6-.8-3.7.4-7.3 1.2-8 1.8-1.1.9-1.4.8-1.4-.4 0-1-.6-1.3-1.8-1-1 .2-3.4-.2-5.3-1l-3.4-1.5 4.2.5c2.6.4 4.9.1 5.7-.6 1.1-.9 2-1 3.6-.1 1.2.6 4.5 1 7.3.8 4.5-.3 5.2-.6 5-2.3-.1-1.1-.4-4-.7-6.5-.5-4.3-.4-4.2.6.7.6 2.9 1.4 5.3 1.7 5.3.8-.1 7.1-13.2 7.1-14.8 0-1.1-1-1.2-4.2-.7-4.9.8-5.8 1.2-5.8 2.6 0 .6-.6 1.6-1.2 2.4-.7.7-2.9 3.6-4.8 6.4-1.9 2.7-3.9 5-4.3 5.1-.5 0 .1-1.2 1.3-2.8 4.8-6.2 7.4-10.8 7.2-13-.1-1.2.2-2.2.7-2.2.9 0 5.1-10.3 5.1-12.5 0-1.3-1.1-1.2-10.8 1-2.3.6-2.3.6 1.4 5.8l3.7 5.2-4.4-4.3c-2.5-2.3-4.8-3.9-5.2-3.6-.4.4-.7 3.3-.7 6.4v5.7l-3.2-.6c-3.1-.4-3.2-.5-.8-1.1 2.2-.5 2.5-1.2 2.8-5.8.2-2.9-.1-5.2-.5-5.2-.5 0-2.6 1.8-4.8 4-2.1 2.2-4.1 3.7-4.4 3.5-.2-.3 1.5-2.5 3.9-5l4.3-4.4-2.7-.7c-1.4-.3-3.7-.4-5.1-.2-1.3.3-2.6 0-2.8-.6-.3-.8-.8-.7-1.7.1-1.1 1-1 2.2.2 6.5.9 2.9 1.9 6.1 2.3 7 .5 1.3.2 1.8-1.1 1.8-1.1 0-2.6-.5-3.4-1.1-1.3-.9-1.2-1 .2-.5 2.7.8 3-1 .8-4.9-1.1-2-1.9-4.4-1.8-5.3.4-2.2-3.2-1.8-4.9.5-.7.9-1.6 1.4-1.9 1-.7-.6 3.4-4.6 4.8-4.7.4 0 .5-1.5.1-3.3l-.6-3.2 2.2 2.3c1.2 1.2 2.6 2 3.1 1.7s1.2-.1 1.5.5c.4.6 3.1 1 6 .9 5.4-.2 5.4-.2 3.7-2.3-.9-1.2-4.9-5.2-8.8-8.9-6.7-6.3-9.4-7.9-9.4-5.8 0 .5-.9.7-2.1.4-1.3-.4-1.7-.8-.9-1.3.7-.4.9-1.8.4-3.6l-.7-2.9 1.9 2.3c1.1 1.3 3.2 2.3 4.9 2.4 3.9.2 5 .8 3.4 1.8-.9.6.8 2.9 5.8 7.9 3.9 3.9 7.3 7.1 7.7 7.1.3 0 .6-2.3.6-5 0-2.8.4-5 1-5 .5 0 .7 1.2.4 2.7-.3 1.6-.1 3.9.4 5.2.8 2.3.9 2.3 4.7-2.3 5.1-6.3 5.6-5.1.6 1.5-2.2 2.9-3.9 5.4-3.8 5.6.9.8 13-1.9 14.3-3.2 1.6-1.6 3.3-7.6 3.4-12.3 0-1.8-.5-2.2-3.1-2.2-1.7 0-2.8-.4-2.4-1 .3-.6 1.7-1 3.1-1 2.1 0 2.4-.5 2.5-3.8l.2-3.7.6 3.5.6 3.4 3-3.9c1.7-2.2 3.9-5.2 4.8-6.7 1.7-2.7 1.7-2.8-1-3.4-1.6-.3-3.6-.8-4.5-1.1-1.9-.5-2.1.3-1.8 5.1.1 1.8-.2 2.6-.9 2.2-.6-.4-1.1-1.8-1.1-3.2 0-2.8-1.2-3.1-3-.9-1.6 1.9-7 5.8-7 5.1 0-.3 2.3-2.4 5.1-4.6s4.5-4 3.7-4-.7-.4.5-1.1c.9-.6 1.5-1.5 1.1-2-.3-.6.3-.5 1.4.2 1.7 1 2.4 1 3.9-.1 1.6-1.3 1.6-1.3-.1.8l-1.9 2.2h4.6c4 0 4.9-.4 6.4-2.7 1-1.5 3.2-4.2 4.8-5.9 4.1-4.3 5.7-6.4 4.9-6.4-.3 0-.1-.6.5-1.3.6-.8.8-1.8.4-2.3s-.2-.4.5.2c1.9 1.6.2 5.2-5.7 11.9-2.8 3.2-5.1 6.4-5.1 7.1 0 2.1 6.5 1.5 7.9-.8 1.8-2.9 5.1-13.9 5.1-17.2 0-1.6.7-3.8 1.7-4.8 2.3-2.6.8-2.2-1.8.4l-2.1 2.3.7-2.5c.4-1.4 1.6-3.5 2.6-4.8s3.2-6 4.9-10.5 3.8-9.8 4.6-11.8c.9-2 1.4-4.5 1.2-5.5-.3-1.5-2.2 0-9.1 7-4.8 4.8-8.7 9.5-8.7 10.3 0 1-.6 1.3-1.6.9-.9-.3-1.7-.6-1.8-.6-.7 0 9.3-9.7 11.4-11.1s2.3-1.8 1.1-3.3c-1.1-1.4-1.1-1.6.1-1.6 2.4 0 5.8-4.4 7.3-9.4 1.6-5.3.1-6.4-2-1.4-.7 1.8-2.3 4.5-3.4 6-1.2 1.5-3.3 4.6-4.6 7-1.4 2.4-2.5 3.5-2.5 2.5 0-2.4-1.4-2.1-4.6.8-1.5 1.4-3 2.5-3.5 2.5-.4 0-1.5.8-2.4 1.7-1.6 1.6-1.7 1.5-1.3-.3.2-1 1.2-2 2.2-2.2 4.4-.9 17.6-13.2 17.6-16.5 0-.8.8-2.5 1.8-3.8s3.3-5.5 5-9.3c2.3-4.8 5.1-8.8 9.5-13 10.7-10.5 15-15.8 13.7-16.6-.7-.4-1.4-1.9-1.5-3.3-.4-3-2.2-6.7-3.4-6.7-1.5 0-2 4.1-.9 6.9.6 1.4 1.2 2.9 1.2 3.3.1.3.4 1 .9 1.4 1.6 1.6.4 2.1-6.5 3.3-4 .7-8.3 1.4-9.6 1.8-1.6.4-2.1.2-1.7-.9.3-.7-1-2.8-2.9-4.7-3.2-3.1-3.7-3.3-6.6-2.3-1.7.6-3.8.8-4.8.5-.9-.4 0 1 2.1 3 2 1.9 3.7 4.1 3.7 4.7 0 .7 1.3.9 3.8.5 3-.4 3.3-.3 1.5.4-2.7 1.2-2.8 2-.8 4.7.8 1 1.4 2.8 1.5 3.9 0 1.7-.2 1.6-1.4-.6-1.6-3.1-9.4-11.6-11.8-13-1.4-.8-1.4-.3.3 4.3 1 2.9 3.3 7.2 5 9.5 3.1 4.4 2.2 6.1-1.2 2-1-1.2-1.8-1.7-1.9-1.1 0 .6 1.3 2.5 3 4.4 1.6 1.8 2.8 3.8 2.7 4.4s.5 1.1 1.3 1.1 1.6-.8 1.8-1.8c.2-.9-.1-1.7-.7-1.7s-1.1-.8-1.1-1.7c0-1.4.4-1.3 2.1.6 1.9 2 2 2.4.5 4-.9 1-1.6 2.2-1.6 2.8 0 2.8-10.5 18.3-12.4 18.3-.7 0-2.9 1.8-4.9 4.1-2 2.2-4.1 3.8-4.6 3.5-.5-.4-4 .5-7.7 1.9-3.6 1.4-7.4 2.5-8.3 2.4-.9 0 1.9-1.2 6.1-2.7 4.3-1.4 7.4-2.9 7-3.3s-2.7-1.2-5.2-1.8l-4.5-1.1 4.5.7c2.5.3 5.7.6 7.2.6 5.4 0 20.8-16.4 20.8-22.2 0-2.3-3-3.7-4.1-1.9-.4.6-.6 1.5-.3 1.9.2.4-1.5 2.3-3.8 4.3-8.9 7.3-9.3 7.7-8 8.2.6.3 1.2 1 1.2 1.6s-.6.6-1.5-.2c-1.2-1-1.6-1-1.9.1-1.3 4.2-1.4 4.4-1.5 2.5-.1-1-1.2-2.9-2.5-4.1-2.4-2.2-13.8-9.5-14.9-9.5-.3 0-.8 2.6-1 5.7l-.3 5.8-.2-6.8-.2-6.8-3.2 1.7-3.3 1.7 1.9-2.2c1.9-2.1 1.9-2.2 0-3.6-1-.8-2.3-1.5-2.7-1.5-.5 0-1.5-.7-2.3-1.5-2.3-2.2-3.4-1.8-3.5 1.2 0 2.5-.1 2.5-.9.8-.5-1.4-.9.3-1.1 5.3-.2 4.1-.2 7.6 0 7.8.3.2 2.1-1 4-2.8 3.4-3.1 3.3-3-.3.9-2.2 2.4-3.8 4.4-3.5 4.6.2.2 1.5.8 2.9 1.5l2.5 1.1-2.7-.5c-4.2-.9-3.5.8 3.1 7.7 4.9 5.1 6.2 6 7.4 5 1.2-.9 1.6-.8 2 .3.8 1.9-.6 2.8-2.8 2-1.5-.6-1.6-.4-.5 1.7 1.3 2.4 1.3 2.4-.8.5s-2.2-1.9-6.3 1l-4.2 2.9 2.9 1.1c1.6.6 4.6 1.4 6.7 1.7 3.4.5 3.8.4 3.3-1.1s-.5-1.5.6-.2c1.5 1.8 3.9 1.5 8.2-1.1 1.7-1 3.6-1.9 4.1-1.9 1.8 0-6.9 4.9-8.7 5-1.3 0-1.8.8-1.9 2.7 0 2.6-.1 2.7-.9.6-.8-2-5.9-3.6-14-4.6-1.2-.2-1.6 1.2-1.8 6-.2 3.5 0 6.3.3 6.3.4 0 1.9-.8 3.3-1.8 4.6-3.2 5.9-3.5 2.5-.7-3.6 2.9-4.3 4.8-1.5 3.8 1-.4 1.4-.2.9.3s-1.9.9-3 .9c-2 0-2.2.6-2.5 7.8-.3 7.6-.2 7.8 1.8 6.7 2.9-1.5 15-13 15-14.2 0-.7-1.5-.8-3.7-.5-2.6.5-3.3.3-2.3-.3.8-.5 2.6-1 4-1 2.3-.1 2.4-.2.8-1.4-2.3-1.7-2.3-2.7-.1-1.9 1.1.4 1.4.3.9-.5-.4-.7-.2-1.2.4-1.2.7 0 1 .6.7 1.4-1.1 2.8 1.7 3.6 4.8 1.6 3.7-2.4 5.9-2.7 2.5-.3-4.3 3-6 5.3-6.1 8-.2 2.4-.2 2.5-.6.5-.6-2.9-1.6-2.8-4.5.6-1.2 1.5-4.2 4.3-6.5 6.1-2.4 1.9-4.3 4-4.3 4.7 0 .6-.7 1.4-1.5 1.8-1.7.6-1.9 9.2-.3 11.3.5.7.5 1.4-.2 1.8-1.3.8-1.3 6.5 0 6.5.6 0 2.4-1.5 4-3.3 1.6-1.7 3-2.7 3-2.1s-1 2-2.2 3.2c-3.2 2.9-5.2 5.3-6 7.1-.5 1.3-.7 1.2-.7-.4-.1-2-9.6-11.3-15-14.6-2.6-1.6-4.9-3.9-3.8-3.9.8 0 12.2 8.9 15.5 12.1l3.2 3.2v-3.5c0-4.3-2-6.2-11.8-11.1-4-2-7.4-3.7-7.7-3.7-.2 0-.5.8-.7 1.7-.3 1.4-1.1.7-3.6-2.6-3.5-4.8-4.5-8-1.1-3.7 2.9 3.7 3.6 2.5 1.1-1.8-1.4-2.4-1.6-3.3-.7-3 .8.3 1.7 1.4 2 2.5.4 1 1.1 1.9 1.6 1.9s.9.6.9 1.3.8 1.7 1.9 2.4c3.7 2.3 16.9 9.3 17.5 9.3.4 0 .6-2.6.4-5.8-.3-5.4-.4-5.7-2.8-5.5-1.9.2-2.1.1-.7-.5s.3-1.9-6.3-7.2c-7.6-6.2-9.2-8-7-8 .6 0 1 .4 1 .9s2.6 2.8 5.8 5.2c3.1 2.3 6.4 5.1 7.3 6.1s1.8 1.8 2 1.8c.3 0 .6-3.3.7-7.4.2-6.4-.1-7.6-2.1-9.7-3.9-4.1-10.1-9.1-12.4-10-3.2-1.2-2.8-2.9.7-2.9 4.7 0 13.1-2.1 12.4-3.1-.3-.6-2.3-2.1-4.5-3.4-4-2.6-8.3-3.3-9.4-1.5-.3.5-1.1 1-1.6 1-.6 0-.7-.5-.3-1.2.5-.8 0-.9-1.4-.6-1.2.4-2 .2-1.7-.2.3-.5-2-1.6-5.1-2.5s-5.5-1.8-5.3-2c.5-.4 9 1.8 10.5 2.7 2.5 1.6 9.6 0 12.6-2.9 4.2-4 7.1-9.1 6.5-11.4-.3-1.1-.1-3.4.3-5 .7-2.5.5-3.5-1.1-5.2-1.2-1.3-1.9-3.1-1.6-4.4.4-2 .1-2.2-2.2-1.8-1.4.2-3.1 1.1-3.7 2-.6.8-1.3 1.3-1.5 1.2-.2-.2 1.7 1.7 4.4 4.1 6.5 6.1 5.9 7.3-.9 1.7-3.1-2.5-6.2-4.4-6.8-4.2s-1.2 3.5-1.4 8.1l-.3 7.7 2.8-.6c1.5-.3 2.2-.2 1.6.1-.7.3-1.3 1.2-1.3 2s-.5 1.3-1.2 1.1c-.6-.1-1.5.9-1.9 2.3l-.7 2.5-.1-2.6c-.1-1.8-1.2-3.2-3.8-4.8-2.1-1.2-2.9-2-1.8-1.6 5.9 2.1 5.6 2.4 5.4-6.4-.2-4.4-.5-8.1-.7-8.1-1.9 0-15.2 9.5-15.7 11.1-.7 2.1-.7 2.1-2.2-.1-1.7-2.4-1.5-2.9 1.8-3.5 1.3-.3 3.6-1.4 5.1-2.5s3-2 3.4-2c.3 0 1.9-1.1 3.6-2.5l3-2.5h-2.5c-1.3 0-4.5-.3-7-.6-4.5-.6-4.6-.6-5.5 2.7l-1 3.4-.1-3.4c-.1-3.3-.2-3.4-1.6-1.5-1.3 1.8-1.4 1.8-.8-.4.3-1.2.9-2.5 1.4-2.8s.9-2.6.9-5.1v-4.5l-4.9 5c-2.8 2.8-5.7 6.2-6.7 7.6-1.5 2.4-4.3 3.9-2.9 1.6.9-1.5 1.2-15 .3-15-.4 0-.8.5-.8 1.2 0 .6-.3.8-.7.5-.3-.4.3-1.7 1.4-3 1.8-1.9 6.3-12.8 6.3-15.1 0-.4-2.1 1-4.6 3.1-4.7 3.9-12.4 13.4-12.4 15.3 0 .5-.4 1-1 1-1.6 0-1.1-1.3 2.1-5l3-3.5-2.8-2.3-2.8-2.3 2.8 1.1c3.4 1.2 5.4.3 9.2-4.1 1.4-1.8 5.2-5.3 8.4-7.8 3.2-2.6 6.5-5.4 7.4-6.3 1.9-1.8 2.3-3.3.7-2.3-.5.3-1.8.1-2.9-.4-2.2-1.2-9.2.8-9.9 2.8-.3 1 .7 1.2 4.8.6 3.8-.5 5.1-.4 4.6.4-.4.6-3.1 1.1-6.1 1.1-5.7 0-7.2.9-15.7 8.9-2.1 1.9-4 3.2-4.3 2.9s1.5-2.5 3.9-4.8c3.3-3.1 4.3-4.7 3.6-5.6-.7-.8-.6-1.3.5-1.8.8-.3 1.5-1.8 1.5-3.4 0-1.5.5-3.3 1.2-4 1.8-1.8-2-4.3-5.2-3.4-1.4.3-4.6.6-7.1.5-4 0-4.8.3-5.8 2.4-2.2 4.9-.5 5.6 5.6 2.3 2.1-1.1 4.5-2 5.5-2 .9 0 2-.5 2.3-1 1.3-2.1 2.4-.9 1.3 1.5-.7 1.5-1.8 2.5-2.8 2.3-1.9-.3-7 2.1-7 3.4 0 .4.3.8.8.9 2.9.3 6.7 1.1 7.1 1.5.2.2-1.7.4-4.2.4H572v5.5c0 4 .4 5.6 1.7 6.3 1.6.9 1.6 1.1 0 2.7-1.3 1.3-1.7 1.3-1.7.2 0-.8-1-1.9-2.2-2.5-1.3-.6-1.7-1.1-1-1.1.8-.1 1.2-1.7 1.2-4.6 0-3.7-.3-4.5-1.9-4.5-1 0-3 1.2-4.5 2.6l-2.6 2.7 1.1-3.1c.7-2.2 1.5-2.9 2.6-2.5 1.2.5 1.4.1.8-1.7-.5-1.5-.3-2 .3-1.6 1.9 1.1 1.9-.8.1-2.5-1.6-1.6-1.9-1.6-5 .3l-3.3 2 1.6-2.4c.8-1.2 2.7-2.9 4.2-3.6s2.6-2.1 2.6-3.3c0-1-.1-1.9-.2-1.8-.2 0-1 .3-1.8.6M514.8 216.7c-2.1 1.4-3.8 3.1-3.8 3.7s-1.6 2.2-3.5 3.5-3.5 2.7-3.5 3.1c0 .5-1.5 1.7-3.2 2.7-1.8 1.1-5.3 4.6-7.8 7.9-2.5 3.2-5.1 6.3-5.7 6.7-.7.4-1.3 1.2-1.3 1.6 0 1.1 5 4.4 6.6 4.4.7 0 1 .6.7 1.3-.6 1.5 13.5 11.4 16.5 11.4 1.5 0 2.2-.6 2.2-2 0-1.1.5-2 1.1-2s-.3-1.6-2-3.5c-4-4.5-4-5.4 0-2.1 1.7 1.4 3.4 2.6 3.7 2.6 1.4-.1 4.2-4.9 3.2-5.5-1.5-.9-1.2-3.2.4-3.2.8 0 1.2.6.9 1.4-.3.7 0 1.3.6 1.3 1.5 0 3.2-3.6 2.5-5.4-.5-1.2-.2-1.5 1-1s1.5.2 1-1c-.5-1.4-.2-1.6 1.8-1.1 2.9.7 6.4-2 5-3.9-1.2-1.6-4.7-14.3-4.4-15.8.2-.9-6.6-7.8-7.6-7.7-.4 0-2.4 1.2-4.4 2.6"/><path d="M612.5 217.3c-1.1.7-2.3 1.6-2.7 2.2-.4.5-.9.7-1.3.4-.3-.3-3 1.7-6 4.5-4.4 4.1-6 6.5-7.9 11.8-2.5 7-2.1 8.5 1.1 4.5 2.2-2.7 9.9-9.6 13.2-11.9 2.2-1.6 2.3-2 1.2-4.4-.6-1.5-.9-2.9-.7-3.2 1-.9 3.7 2.1 3.2 3.5-.3.7-.1 1.3.4 1.3.6 0 1-.6 1-1.4s.7-1.6 1.5-2c.8-.3 1.5-1.3 1.5-2.1 0-.9.4-1.4.8-1.1.4.2 1.4.1 2.2-.4 1.2-.8 1.3-1.1.2-2.2s-1.7-.8-3.4 1.2c-2 2.4-2 2.4-1.4.2.8-2.4.1-2.7-2.9-.9M760.2 220.3c-1.2 1.3-2.2 3.1-2.2 4s-.3 1.7-.7 1.7c-2.4 0-10.7 9.8-14.2 16.8-1.9 3.8-2 4.3-.5 4.9.9.3 2 0 2.4-.7.5-.8 1.7-1 3.4-.6 1.5.4 2.6.2 2.6-.4 0-.5-.4-1-1-1-.5 0-1-.9-1-2 0-2.3.4-2.4 3.1-1 1.6.9 2.1.7 3-1.3 1.6-3.5 12.4-12.7 14.8-12.7 1.2 0 2.1-.6 2.1-1.4 0-1.4-7.6-8.6-9-8.6-.4 0-1.6 1-2.8 2.3M603.5 235.9c-8.6 6.9-10.3 9-8.5 10.2 1.1.7.9.8-.9.7-2.2-.3-2.6.2-3.4 4-.5 2.4-.6 5.1-.2 6 .5 1.4 1 1.2 3.2-1.3 1.4-1.7 4.2-4.8 6.2-7 3.7-3.9 11.7-17.5 10.3-17.5-.4.1-3.4 2.2-6.7 4.9M776 233c0 .5-.4 1-1 1-1 0-18.5 17-21.1 20.5-1.1 1.5-.7 1.4 2.1-.6 4.7-3.4 8.8-5.1 9.5-3.9.7 1.1-6.5 7.9-8.4 8-1.1 0-1.2.3-.4 1.1.9.9.9 1.7 0 3.1-1 1.6-.9 2.2.7 3.3 1.7 1.3 1.7 1.5.3 2-.8.4-1.8 1.8-2.2 3.3s-1.4 3.5-2.2 4.4c-2.2 2.5-1 2.2 3.3-.7 3.9-2.7 5.4-3.1 5.4-1.5 0 .5-1.4 1.7-3.1 2.5-1.6.9-2.9 2.2-2.6 2.8.5 1.5 6.7 2.2 6.7.8 0-2.1 2.5-1 4.5 1.9 2.1 3.1 3.8 4.1 2.9 1.5-.5-1.1.1-1.5 2.4-1.5 4.1 0 4.8-1.4 2.3-4.9-1.2-1.6-2.1-3.3-2.1-3.8s2.5-2.4 5.5-4.2c3.3-2 5.2-3.8 4.8-4.5-.5-.8-6.7-9.8-7.7-11.3-.7-.9-4.7 1.3-5.1 2.8-.8 2.3-3.3 2.5-4.2.3-.5-1.5 1.5-3.6 3.2-3.4.4.1 1.6-1.4 2.9-3.2 1.2-1.8 3-3.5 4.1-3.7s3.4-1.5 5.3-2.9c3.1-2.4 3.2-2.6 1.5-4.3-1-1-2.7-2.8-3.7-3.9-2.1-2.2-3.6-2.6-3.6-1M722.3 234.2c-1.8 2.3-2 4.2-.6 8.7.7 2.4 1.3 5.1 1.2 6-.1 2.2-2.7-4.9-2.8-7.7-.1-3.2-1.4-2.7-5.6 2-2 2.4-4.7 5.5-6.1 6.9-1.3 1.4-2.4 3.1-2.4 3.6 0 .6-.5 1.3-1 1.5-.6.2-1.6 4.6-2.2 9.8-1.9 16.4-.7 26.6 3.2 26.6 1.5 0 1.9-.6 1.6-2.2-.2-1.1-.1-2.7.4-3.4.5-.8.9.3 1.2 2.8.2 2.2 0 3.8-.3 3.6-.4-.2-1 .3-1.3 1.2-.6 1.6 2.7 7.2 5.1 8.7.8.5 1.1 1.7.8 2.7-.3 1.1.4 2.9 2 4.8 3.5 4.2 3.1 6.2-.5 2.4-1.6-1.8-3-4-3-5.1 0-1-.8-2.9-1.8-4.1-1.6-2-2-2.1-2.5-.7-.4 1 1.3 4.2 4.4 8.6 2.7 3.9 4.2 6.8 3.3 6.4-1.3-.5-1.5-.2-.9 1.8 1.5 4.9 7 15.3 8.4 15.7 1 .3 1.1 0 .5-.9-.5-.8-.9-2-1-2.7-.2-.8-1-2.2-2-3.3-.9-1-1.4-2.2-1.1-2.6.4-.3 1.5.4 2.6 1.5 1 1.2 2.8 2.2 3.9 2.2s2.7.7 3.6 1.5c.8.8 2.3 1.5 3.3 1.5 1.6 0 1.6-.2-.3-1.3-3.7-2.1-14.4-11-14.4-11.9 0-1.2.4-1 3.5 1.6 1.5 1.3 5.5 3.8 8.7 5.5 5 2.5 6 2.8 6.5 1.5.3-.9 0-2-.8-2.5-1.1-.7-.9-.9.7-.9 1.5 0 2.4-.8 2.8-2.6l.7-2.7 1.5 2.2c.8 1.1 1.9 2.1 2.5 2.1 1.7 0 .9-3.7-1.5-7.3-1.3-1.9-2.7-4.9-3.1-6.6s-1.2-3.7-1.8-4.4c-2-2.1-7.1-10.1-7.2-11.3 0-1.4-3.1-4.4-3.8-3.8-.3.4-2.3.7-4.5.8-3.5.2-3.9-.1-3.8-1.9.1-1.9.3-2 2.6-.8 3.8 2 5.3 1.7 4.4-1-.4-1.2-1-2.4-1.4-2.7-.6-.4-1.8-5.9-2-9.3 0-.4-.7-.7-1.5-.7-1.8 0-2-1.7-.4-2.2.9-.3.9-1 0-2.7-.7-1.2-1.8-2.1-2.4-1.8-.8.3-1.3-.8-1.4-3-.1-2.7.2-3.4 1.5-3.1.9.2 1.9 1.4 2 2.8.4 2.8 3 5 4.9 4.3.9-.3 1.1 0 .7 1-.3.9.4 2.1 1.7 3.1 3.4 2.4 4.1.1 1.8-5.8-2.3-6.3-2.4-6.8-.1-6.4 1.5.3 1.7-.4 1.4-5.2-.4-6.4-.6-6.7-2.8-4.9-1.2 1-1.4 2.3-1 5.2l.6 3.9-2.5-2.8c-2.2-2.3-2.8-2.6-3.5-1.4-.6.8-1 2.1-1 2.7 0 .7-.4 1.3-1 1.3-1.3 0-1.3-.6.5-4 .8-1.6 2.8-3.6 4.3-4.6 4.8-2.8 5.2-4.4 3-11.2-2-6.3-2.8-7.2-4.5-5M427.3 246.3c.3.9-.1 1.8-.9 2.1-1.5.6-6.4 10-6.4 12.3 0 .7 1.1 1.5 2.5 1.9 1.4.3 2.5 1 2.5 1.5s.7.9 1.5.9 1.5-.5 1.5-1c0-.6.7-1 1.5-1 .9 0 1.2.6.9 1.5-.4 1 .6 2 3.2 3.2 2.7 1.3 3.8 1.5 4.1.6.3-.7 1.5-2.8 2.9-4.8 1.3-2 2.4-4.2 2.4-5s.5-1.7 1-2c1.7-1 1.1-2.5-1.2-3.5-1.3-.6-4.4-2.3-6.9-3.9-6.1-3.8-9.4-4.9-8.6-2.8M481 251.5c-1.3 1.4-2.2 2.7-1.9 2.9.2.2 2.4 1.4 4.8 2.7s5.1 2.8 6 3.4c11.2 6.9 14.3 8.6 14.9 8.1.3-.4 0-1.2-.8-1.7-1.2-.8-.9-1 1.2-.6 1.6.2 2.5 0 2.2-.7-.6-1.3-21.9-16.6-23.2-16.6-.4 0-1.9 1.1-3.2 2.5M674.4 251.2c.3 1.3.6 3.1.6 4 0 1.3.8 1.8 3.3 1.8l3.2.1-3 1.3c-1.9.8-2.5 1.5-1.7 2 .6.4 1.7 1.7 2.3 2.9 1.2 2.1 1.1 2.1-.8.4-2.7-2.4-3.3-2.2-3.4 1.5l-.1 3.3-1.1-2.8c-.9-2.3-1.6-2.7-3.4-2.2-2.5.6-3-.4-1-2.4 1-1.1.8-1.3-1.3-.7-1.4.3-4.1.6-6 .6h-3.5l5.4 3.7c9.2 6.5 9.7 6.7 13.1 4.6 1.7-.9 3-2.1 3-2.5s.6-.8 1.3-.8c.8 0 2.4-1.1 3.6-2.4l2.3-2.5-6.1-6c-3.3-3.4-6.3-6.1-6.7-6.1-.3 0-.4 1 0 2.2M475 259.3c-1.4 1.7-3.4 4.9-4.5 7-2.5 4.7-1.3 7.3 3.1 6.9 1.6-.1 3.5.2 4.3.7 1.8 1.1.4 3.4-1.6 2.6-1.3-.4-1.4-.3-.3 1 2 2.4 3.8 1.8 5.5-2 .9-1.9 2.3-3.9 3.1-4.6.8-.6 1.4-1.8 1.4-2.5 0-.8.5-1.4 1-1.4.6 0 1 .9 1 2s-.5 2-1.1 2c-.8 0-.8.4 0 1.4 1 1.1.8 1.6-.8 2.1-1.2.3-2.1 1.1-2.1 1.7s-.7 1.9-1.5 2.8c-1.4 1.6-1.4 1.8 0 2.4.9.3 1.3.2 1-.4s-.1-1 .5-1c1.4 0 6.3 3.1 7.3 4.7.5.8 1.8 1.1 3.3.7 1.7-.4 2.4-.2 2.4.8 0 1.2 3.8 3.8 5.5 3.8.8 0-.8-3.5-1.9-4.3-.8-.5-.7-1 .3-1.6.9-.6 1-1.1.2-1.5-.6-.4-1.1-.2-1.1.3 0 .6-.7 1.1-1.5 1.1s-1.5-.5-1.5-1c0-.6.4-1 1-1 .5 0 .7-.7.3-1.7-.5-1.3-.2-1.5 1.8-.9 2.2.7 6.3 1 9.7.7.6-.1 1.2-1 1.2-2.1 0-1.3-1.4-2.7-4.2-4.1-2.4-1.2-5.6-3.2-7.3-4.4-2.6-2-21.2-13.5-21.8-13.5-.1 0-1.3 1.5-2.7 3.3M450 260.6c-.8 1.3-1.9 2.4-2.7 2.4-.7 0-1.3.4-1.3 1 0 .5.7 1 1.5 1s1.5.4 1.5 1c0 .5-.4 1-.9 1s-1.6 1.3-2.4 3l-1.5 3 4.5 2c4.4 1.9 4.5 1.9 6.5.1 1.1-1.1 1.7-2.5 1.3-3.1-.4-.7-.2-1.6.4-2 .8-.5.4-1.2-1.3-2.4-1.4-.9-2.6-2.1-2.6-2.7 0-.5 1-.3 2.2.5 1.2.9 3.2 1.6 4.3 1.6 1.8-.1 1.9-.1.3-1.1-1-.5-1.8-1.8-1.8-2.8s-1.4-2.4-3.4-3.3c-3.3-1.6-3.4-1.6-4.6.8M416.8 266.6c-.5.4-.8 1.5-.8 2.5 0 .9-1.5 4.6-3.4 8.1-2.3 4.1-3.7 8.3-4.1 12.3l-.7 6.1 5.3 1.6c3 .9 7 1.9 8.9 2.2 4 .7 5.2-.6 6.5-6.4.4-1.9 1-4 1.4-4.5.4-.6 1.4-3 2.1-5.5.8-2.5 2-5.6 2.7-7s1.3-3 1.3-3.5c-.1-2.6-17.3-7.9-19.2-5.9M439.9 275.4c-.1.3-.2 1.1-.3 1.6 0 .6-.6 1.4-1.2 1.8-.5.4-1.1 2.4-1.1 4.6-.1 3.2.4 4.1 2.8 5.5 1.6.9 2.9 1.9 2.9 2.3 0 .5.7.8 1.5.8s1.5-.4 1.5-1c0-.5 1.1-.9 2.5-.8 3 .3 3.3 2.8.5 3.5-1.2.3-2 1.4-2 2.7 0 1.2-.7 3.2-1.6 4.5-1.4 1.9-1.4 2.5-.3 3.2 1 .6.7.9-1 .9-1.5 0-2.1.4-1.5.9 1.2 1.1 17.7 6.2 18.2 5.6.3-.3-2-1.6-5.1-3.1-3.2-1.4-5.7-2.9-5.7-3.2 0-.8 5.3-.8 6.6.1.6.3 1.6.2 2.4-.3 1.1-.7 1.1-1.1.1-2.4-.8-.9-2-1.6-2.7-1.6-2.4 0-1.5-1.7 1.1-2.2 1.9-.4 2.5-.1 2.5 1.2 0 1 .6 2 1.4 2.3 1.8.7 5.6-.3 5.6-1.4 0-1.3 4.6-5.9 5.9-5.9.7 0 1 .4.7.9-.4.5 0 1.1.6 1.4 1 .3 1.1.9.1 2.6-1.6 2.6-1.6 2.8.2 3.5 2.2.8 4.5-.4 3.8-2-.4-1 .2-1.7 1.5-2.1 3-.7 2.9-6.9-.1-7.7-3.1-.8-3.9-.7-3.2.3 1.1 1.9-1.7 2.2-3.3.3-2.5-2.9-5.8-1.3-6.6 3.2-.8 4.2-3 4.7-6.5 1.5-1.8-1.7-2.5-1.8-3.7-.8-.8.6-1.8.9-2.1.5-.4-.4-.2-1.1.5-1.5s1.2-1.2 1-1.7c-.6-1.8 1.8-1.2 4.4 1.2 1.5 1.3 3 2.4 3.3 2.4.7 0 3.5-5.7 3.5-7.3 0-1.3-4.3-4-6.5-4.2-.5 0-1.6-.5-2.4-.9-1.1-.7-1.3-.5-.8.7.7 1.9-.9 2.3-1.7.4-.3-.8-1.1-.5-2.4 1-2.1 2.4-3.6 2-2.3-.6 1.6-3 .5-6.5-2.5-8.3-3.3-1.9-8.3-3.3-8.5-2.4M639.3 283.5c.6 5.9.4 6.3-1.9 4-.8-.8-2.2-1.1-3.1-.8-1.1.4-1.4.3-.9-.5.4-.7 1.5-1.2 2.5-1.2 1.4 0 1.8-.7 1.7-3.1l-.1-3.1-4.2 4.9c-2.4 2.6-4.3 5-4.2 5.3 0 .3 2 1.7 4.4 3.2 4.5 2.7 4.5 2.7 4.5.5.1-2.1.1-2.2 1.2-.2.6 1.1 1.2 2.1 1.4 2.3.1.2 2-1 4.2-2.6l4-2.9-4.5-5.6c-2.4-3.1-4.7-5.7-5-5.7s-.3 2.5 0 5.5M795 283.6c-1.3.7-3 2-3.6 2.8s-3.3 1.9-6 2.4c-2.8.5-4.8 1.3-4.7 2 .2.6-.3.9-1.1.6-2.3-.9-2.8 1.4-1 4.1 1.1 1.7 2 2.2 2.4 1.5.5-.7 2-.9 4.3-.5 2 .4 4.9.4 6.3.1 2.1-.6 2.5-1.1 2-3.1-.8-3.2.7-3.9 4.3-2 5.2 2.7 10.7-1.6 7.5-5.9-1.8-2.5-7.3-3.5-10.4-2M414.3 302.2c-.1 1.3-.4 3.5-.8 5-.6 2.3-.4 2.8 1 2.8 1 0 2.4-.8 3.1-1.8 1.3-1.6 1.4-1.5 1.1.7-.1 1.7.5 2.9 2.3 3.9l2.5 1.4-2.8-.6c-2.3-.6-2.9-.2-3.8 2.1-.6 1.6-1.3 4-1.6 5.5-.5 2.7-.4 2.8 3.5 2.8 4.7 0 5-.4 5.6-5.6.2-2.2.6-4.6.9-5.4s.8-3.4 1.1-5.8c.7-4.4.1-4.9-5.7-4.4-1 .1-2.5-.5-3.3-1.3-2.1-2.1-2.9-1.9-3.1.7M428.4 308.9c-1.6 4.2-.7 4.7 13 7.6 12.6 2.7 16.6 3.1 16.6 1.5 0-.6.8-1 1.8-1 1.5-.1 1.5-.2-.2-1.5-1.1-.8-2.8-1.5-3.8-1.5-.9 0-3.5-.9-5.6-2-4-2.1-12.4-4.8-17.7-5.7-2.6-.4-3.1-.1-4.1 2.6M428.4 316.7c.2.3-.4 1.3-1.5 2.4s-1.7 2.4-1.4 2.8c.8 1.4 4.4.1 6.1-2.3l1.5-2.1-.4 2.4c-.2 1.3-1.2 3-2.2 3.7-1 .8-1.6 1.4-1.2 1.4.6 0 20.7 3.7 24.3 4.5 1.4.3 2.7-.4 4.2-2.5l2.2-2.9-5.7-1.6c-3.2-.9-6.9-2-8.3-2.5-3.1-1.1-18.3-4-17.6-3.3M963.5 317c-.3.5 0 1 .8 1 2.1 0 3 3 1.1 3.7-2.3.8-6.7-1.5-6-3.2.3-.9 0-1.2-.8-.9s-1.2 1.4-.9 2.4c.3 1.1-.2 2.7-1.1 3.5-2.2 2.3-1.1 3.6 2.4 2.8 2.6-.5 3-.3 3 1.6 0 1.2-.6 2.1-1.2 2-.7-.1-2-.1-2.8 0-2 .2 2.9 3 5.3 3.1 1 0 1.6.4 1.2.9-.3.6.3 1.5 1.4 2.1 1.3.7 2.2.7 2.6 0 .3-.5.3-1-.2-1.1-.4 0 .8-.7 2.7-1.4s2.9-1.4 2.3-1.4c-.7-.1-1.3-.6-1.3-1.2 0-.5.5-.7 1-.4.6.3 1 .1 1-.4 0-.6-.7-1.1-1.5-1.1-2.1 0-1.9-2.8.3-3.3.9-.3-.6-.5-3.5-.6-2.8 0-5.4-.5-5.7-1-.6-.9 2.6-2.1 6-2.1 1.2 0 2.1-.7 2.1-1.5s-.6-1.5-1.4-1.5c-.7 0-1.3-.5-1.3-1.1 0-.5-.4-.7-1-.4-.5.3-1 .1-1-.4 0-1.4-2.7-1.4-3.5-.1M687.5 324.2c-.4 1.8-2.7 7.5-5.1 12.6-2.7 5.7-4.4 10.6-4.4 12.9 0 2-.3 3.3-.7 3-1.1-1.2-.4-7.6 1.2-10.8.9-1.7 1.5-3.2 1.3-3.4s-1.7-.5-3.5-.6c-4.4-.5-9.3 4.3-14.9 14.7-1.5 2.8-2.8 13.4-1.7 13.4 1 0 12.3-6.6 13.8-8.1.5-.5.1-.9-1.2-.9-1.2 0-2.5-.5-2.8-1-.4-.7.3-.8 2-.4 2.7.7 2.7.6 2.1-3.7l-.6-4.4 1.8 3.8 1.7 3.9 3.6-3.9c4.5-4.8 5.9-7.4 6-11 .1-1.7.3-2.1.6-1.1 1.1 4.4 2 1 2.1-8.2.1-5.5 0-10-.2-10-.3 0-.7 1.5-1.1 3.2M929 328.6c0 .5-2.3 2-5 3.3-2.8 1.3-5.3 2.8-5.7 3.4-.7 1.2 1.8 2.8 3.7 2.2.8-.2 2.2 0 3 .5 1.1.7.6 1-2 1-1.9 0-4.1.4-4.9.9-2.1 1.4.5 2.4 4.3 1.7 1.8-.4 4.3-.3 5.4.1 1.2.5 5.3.6 9.3.3 5.6-.4 7.2-.2 8 1 .7 1.2.8 1 .9-.8 0-1.2-.6-2.3-1.2-2.4-1.2-.1-2.1-.3-4.3-.8-.5-.2.5-.5 2.3-.9 3.9-.7 4.3-2.1 1.1-3.9-1.7-.9-4.7-1.1-9.9-.8-6.5.5-7.3.4-5.7-.8 2.5-1.9 9.5-2.7 14.2-1.6 4.8 1.1 5.7.6 1.5-.8-4.3-1.5-15-2.6-15-1.6M731.7 340.2c4.9 7.6 24.3 24.8 28.1 24.8.4 0 2.1 1.4 3.8 3.1 3.1 3.3 11.3 9.3 11.9 8.7.5-.5-2.7-4.2-5.3-6-1.2-.8-5.1-4.3-8.6-7.6s-7.3-6.3-8.5-6.7c-1.1-.3-2.1-1-2.1-1.5 0-.4-.9-1-2.1-1.3s-1.8-1-1.4-1.6c.3-.7-.2-1.1-1.4-1.1-1.1 0-3.6-1.4-5.4-3-1.9-1.7-4.1-3-4.8-3-.9 0-1-.3-.2-1.1.7-.7 1.8-.3 3.8 1.5 1.5 1.4 3.3 2.6 3.8 2.6 1.9 0-3.5-4.9-7.7-6.9-3.3-1.6-3.7-2-1.8-2.1 3.5 0 2.1-2.4-1.6-2.8l-3.2-.3z"/><path d="M726.7 339.7c.5 1.5.3 1.6-.8.5-2.5-2.3-3.3-1.2-.9 1.3 1.3 1.4 3.2 2.5 4.3 2.5 1.2 0 1.7.5 1.4 1.4-.3.8.5 1.9 2 2.7 1.4.7 3.5 2.5 4.7 3.9s5.9 5.5 10.6 9c10.6 8.2 14.2 11.4 11.4 10.4-1.8-.6-1.8-.6.1.9 1.1.9 2.5 1.7 3.2 1.7.6 0 1.3.3 1.5.8.5 1.1 10.7 8.2 11.8 8.2.6 0 1 .3 1 .7 0 .5 1.3 1.7 2.8 2.8 2.6 1.8 2.5 1.7-.6-2.3-1.9-2.3-5.2-5.4-7.4-6.9-2.2-1.6-7.6-5.6-12-9.1-4.4-3.4-8.3-6.2-8.6-6.2-.4 0-4.3-3.4-8.7-7.5s-8.3-7.5-8.7-7.5-1.5-1.7-2.5-3.8c-1.6-3.6-3-5.2-4.5-5.2-.4 0-.5.8-.1 1.7M919.1 352.7c-4.4 3.9-6 4.7-8.8 4.5-2.2-.2-3.2.1-2.8.8.3.5 1.3 1 2.1 1 1.1 0 1.3.6.9 1.9-.3 1.1-.1 2.2.4 2.5.6.4.2 2-1 4-1.3 2.3-1.8 4.3-1.3 5.9.3 1.4.3 3.1-.2 3.8-.4.7-.9 3.2-1.1 5.7-.3 3.9.1 4.9 3.3 8.9 2 2.4 4 4.1 4.5 3.6.4-.4 2.2-3.5 3.9-6.7 3.2-6.1 4.8-11.3 5.7-17.9.5-3.7.5-3.7-3-3.7-2.1 0-4.3-.7-5.3-1.8-1.7-1.6-1.5-1.7 2.8-2.7 2.6-.6 4.9-1.3 5.2-1.6s.2-2.8-.3-5.5c-.8-4.1-.7-5.1.6-6.2.9-.6 1.3-1.2.7-1.2-.5 0-3.3 2.1-6.3 4.7M949.5 354.1c-.4.5-.3 1.5.2 2.1.4.7.8 2.6.8 4.3v2.9l6.3.1c4.5 0 6.6-.4 7.2-1.4.7-1.2 1.1-1.2 2.5.3 2.2 2.2 7.7 1.4 10.5-1.4 2.3-2.3 1.7-3-2.9-3.1-3.1-.1-2.9-.3 1.4-.9 5.3-.8 7.8.2 6.8 2.6-.6 1.7 0 1.7 4.9.4 4.6-1.3 5.7-3.7 2-4.4-1.5-.3-8.8-.8-16.2-1.1-7.4-.4-15.6-.8-18.2-1s-5 0-5.3.6M670.5 362.1c-1.6 1.1-5.1 3.1-7.7 4.5-4.9 2.5-6.5 4.7-2.8 3.7 2-.5 2.9 1.2.9 1.9-.7.2-.7 1.7-.1 4.6.6 2.3.7 4.2.3 4.2-1 0-3.1-4.6-3.2-6.8 0-1.4-.2-1.4-.6-.2-.3.8-1.4 2.6-2.3 4-1 1.4-2 3.5-2.4 4.7-.7 2.2-.5 2.2 3.6 1.7 2.4-.4 4.4-1 4.6-1.5.2-.4 1-.5 1.9-.2 1.1.4 1.4.3.9-.6-.5-.7-.1-2 .7-2.9s2.2-3.5 3.2-5.7c2.4-5.8 4.7-9.9 5.8-10.6.5-.4.8-1.2.6-1.8-.3-.7-1.5-.3-3.4 1M932 368.5c0 .8.5 1.5 1 1.5.6 0 1 .7 1 1.5s-.7 1.5-1.6 1.5c-1 0-1.4-.6-1.1-1.5.4-.8.2-1.7-.3-2-1.3-.8-2.4 4.1-1.4 5.7.5.7 1 2.2 1 3.3.1 1.1.4 3.5.7 5.2.4 2.5.2 3.3-1 3.3-1 0-1.4-.6-1-2 .3-1.1.1-2.2-.3-2.5s-.6-1.4-.3-2.5 0-2-.6-2-1.1 1.1-1.1 2.5c0 1.3-.6 2.8-1.4 3.2-1.4.8-4 5.2-3.4 5.8 1.1 1 7 .8 7.7-.3s.9-1.1 1.4.2c.4.9 1.8 1.6 3.2 1.6 2.3 0 2.5-.3 1.9-2.3-.4-1.2-1.3-3.1-2-4.2-.8-1.1-1.4-4-1.4-6.5.1-3.9.2-4.3 1.4-2.8.8 1.2 1.6 1.4 2.3.7 1.1-1.1 4.3-.2 4.3 1.2 0 .6-1.2.8-2.7.7-1.9-.2-2.8.2-3.1 1.4-.2 1 .2 1.8 1 1.8s2.4.9 3.7 2.1c1.2 1.2 3 2.2 3.9 2.3.9.2 1.8.8 2 1.4.4 1.4-5.9-.6-7-2.2-1.4-2.1-2 .4-.8 3.8.9 2.8 1.7 3.6 3.5 3.6 1.3 0 3.4.4 4.7.9 3.3 1.3 10.2-.1 10.6-2 .2-1.3-.9-1.9-4.5-2.7-4.5-.9-4.1-1 5.3-1.1 9.1-.1 12.4-.9 12.4-3.1 0-.3-2.4-.6-5.2-.7-2.9-.1-8.1-.5-11.5-.9-5.9-.6-6.2-.8-5.7-2.9.6-2.6-1.2-4.3-2.8-2.7-.8.8-.7 1.6.2 2.7.7.8 1 1.8.6 2.2-.9.9-2.6-1-3.1-3.6-1-5.1-2.9-8.7-5.3-9.9-3.5-1.6-5.2-1.5-5.2.3M480 415c-.8.5-1.8.6-2.2.3-.5-.2-1.4-.1-2.1.4s-3.2 1.7-5.7 2.6c-4.5 1.7-11 6.7-11 8.4 0 1-3.1 2.8-6.6 3.8-2.2.6-2.2.6.7 6.2 1.6 3.1 2.9 6.3 2.9 7s.4 1.3.8 1.3 1.2 1.5 1.7 3.2c.6 1.8 1.7 3.4 2.5 3.6 2.1.4 14-6.9 14-8.6 0-1-.7-1.2-2.2-.8-1.3.3-3.4.9-4.8 1.3-4.5 1.2-.5-2.3 6.6-5.7 3.5-1.7 6.2-3.5 5.9-4-.3-.4.4-.6 1.5-.3 2.2.6 5.3-1.4 4.4-2.8-.3-.5.2-.6 1-.3 1.1.4 1.3 0 .9-1.5-.7-2.6-1.5-2.6-3.8-.1-2.6 2.8-4 2.5-1.8-.4 1-1.3 3.2-2.9 4.8-3.5 2.7-1 2.6-1-1.7-.6-2.8.3-4.8 0-4.8-.5 0-.6.6-1 1.4-1 2 0 2.8-4 1-4.7-.8-.3-1.3-1.2-1-1.9.7-1.7-.6-2.5-2.4-1.4M778.7 446.4c-.7.8-2.2 1.6-3.3 1.8-1.3.2-1.8 1-1.6 2.6.2 1.5-.2 2.2-1.4 2.2-1 0-2.5.7-3.5 1.6-1.6 1.5-1.3 1.9 4.9 7.2 10.8 9.2 9.5 8.7 13.7 5.1 3.5-3.1 10.5-13 10.5-14.9 0-1.7-8.4-5.8-13.2-6.4-3.3-.4-5.1-.1-6.1.8M470 450.3c-9.2 4.5-9.3 4.6-7.9 6.3.6.8.9 2.3.6 3.4-.4 1.5 0 2 1.3 2 1.2 0 2.7 1.6 4.2 4.7 1.3 2.7 2.7 5.1 3.2 5.5 1.2.8 12.6-7 13.4-9.1.3-.8 0-1.7-.6-1.9-.7-.2-1.2-.9-1.2-1.5-.1-3.7-1.7-3.9-7.8-.8-8.4 4.2-8.9 3.9-1.4-1 6.2-4 7.1-5.2 5.2-6.4-.5-.3-1-1.5-1-2.6 0-2.4-.2-2.4-8 1.4M800.3 455.7c-.4 1-1.7 3.2-3 4.9s-2.3 3.6-2.3 4.3c0 .6-.6 1.4-1.4 1.7s-2.2 1.6-3 2.9c-1.5 2.2-1.4 2.6.9 5.3l2.4 2.9-2.3 1.3c-1.3.7-3 .9-3.6.5-.7-.4-1.6-.2-2 .5s-1.9 1.2-3.4 1.2c-1.4 0-2.6.2-2.6.4s1.9 1.6 4.1 3.1c2.3 1.5 3.6 2.9 3 3.1-3.4 1.1 3.3 10.4 7.8 10.8.9.1 2.8.6 4.2 1.2 1.5.6 3 .9 3.3.6.3-.2.2.2-.4.8-1.6 1.9-1.2 2.5 2.3 4.6 3.2 1.8 3.4 1.8 4.4.2.7-1 .8-2.2.2-3.1-.6-1-.2-1.6 1.4-2 2.1-.5 2-.8-2.2-4.8-2.7-2.6-4.9-4-5.8-3.6-.9.3-2.2 0-2.9-.6-1.6-1.3-1.9-3.3-.4-2.4.6.4 1.7.2 2.4-.4 1-.9 2.6 0 6.7 3.9 3 2.7 5.8 5 6.3 5s1.9-1.2 3.2-2.8c2.2-2.4 2.2-2.7.7-3.1-1-.1-2.6-1-3.5-1.8-1.3-1.1-2.1-1.2-3.7-.3-2.6 1.3-4 .6-3.7-1.8.2-1.1 1.2-1.7 2.7-1.7 1.3 0 3-.4 3.8-.9 1-.6 1.2-.5.9.5-.5 1.4 3.1 4.9 5 4.9 2.1 0 15.2-19.9 15.2-23.1 0-1.4-3.6-4.2-5.5-4.4-.5 0-3-1.1-5.4-2.3-2.4-1.3-6.1-2.5-8.3-2.7-2.1-.3-5.9-1.4-8.5-2.5-5.6-2.4-6.2-2.5-7-.3M493.5 462.4c-1.9 1.4-1.9 1.7-.4 4.3 1.5 2.7 3.3 3.2 6.9 2.1.8-.3 1.1-.3.7 0-.5.2-1.2 1.5-1.7 2.8-.7 1.8-.4 2.9 1.8 5.5 6.3 7.5 11.5 12.9 12.6 12.9 1.5 0 18-17.9 17.2-18.7-.3-.4-.6-.1-.6.7 0 1-.3 1-1.5 0-.8-.7-2.5-1-3.9-.6-2.1.5-2.4.3-2.1-1.5.4-1.9 0-1.8-5 1-3 1.7-5.5 2.7-5.5 2.1 0-.5.4-1 .9-1s1.1-.6 1.4-1.4c.5-1.3-1.6-.3-9.1 4.2-3.9 2.3-2.4-.7 1.6-3.2 2-1.3 4.4-3.1 5.2-4.1 1.4-1.7 1.3-1.8-2-1.2q-4.8 1.05-6.3 5.1c-.3.6-.8.7-1.3.2s-.4-1.1.3-1.3.9-1.1.6-1.9 0-2.1.7-2.9c1.5-1.9.6-3.2-1.2-1.8-.7.6-2.3 1.3-3.6 1.6-1.9.4-2.2.2-2-1.5.4-2.7-1.2-3.2-3.7-1.4M745.2 468c-1.1 1.8-.9 2.2 1.5 3.1 1.6.7 2.3 1.3 1.6 1.6-2 .7-1.5 3.3 1.3 7 1.4 1.9 2.3 4 2.1 4.7-.3.8.8 2.6 2.4 4.2 2.4 2.3 2.7 2.9 1.4 3.7-.8.4-2 .5-2.5.2-1.5-.9-1.2.2.6 1.9.8.9 2.1 1.6 2.7 1.6.7 0 .6-.4-.3-1.1-1.1-.8-.7-.9 1.6-.4 2.7.5 3.9 0 7-2.7 4.3-3.7 7.3-6.9 7.4-8 0-.3-3.7-3.8-8.2-7.7-7.8-6.6-8.3-6.9-9.6-5-1.9 2.8-3 2.4-3.4-1.4-.4-3.9-3.6-4.9-5.6-1.7M479.3 471.3c-2.9 1.8-5.3 3.5-5.3 4 0 .4 1.8-.4 4-1.8s4-2.1 4-1.5c0 .5-.8 1.4-1.7 1.9-1 .6-2.7 1.7-3.7 2.6-1.9 1.4-1.8 1.6 1.4 4.6 2.6 2.5 3.1 3.6 2.3 4.8-1.4 2.2-5.3 2.7-5.3.7 0-2.6-1.8-2.7-4.5-.3-3.7 3.1-2.6 6.7 4.2 13.5 2.9 2.9 5.3 5.8 5.3 6.3 0 1.3 3.4 1.1 4.7-.2.6-.6.9-1.7.7-2.4-.3-.6 2.9-5.2 7-10.1 7.2-8.5 8.8-11.2 6.6-11.5-.5-.1-1.4-.2-1.9-.3-1.4-.2-7-5.9-7.1-7.2 0-2.5-2.6-3.4-4.8-1.8-3.1 2.1-2.7 1 .5-2.1 2.5-2.2 2.6-2.5.8-2.4-1.1 0-4.4 1.5-7.2 3.2M530.4 479.3c-.6.7-3.9 3.8-7.3 7-3.3 3.3-6.1 6.2-6.1 6.6 0 1.2 8.6 7.1 10.3 7.1.9 0 2.6-1.4 3.9-3 1.3-1.7 3.6-4.6 5.1-6.5 2.6-3.2 2.7-3.6 1.3-5.1-.9-.8-1.9-2.7-2.2-4-.4-1.6-1.1-2.3-2.1-2-.8.3-1.1.1-.8-.4.9-1.4-.8-1.2-2.1.3M452.7 488.2c-3 2.4-6.4 4.8-7.4 5.4-1.7 1-1.6 1.3 1.5 3.8 1.7 1.5 3.2 3.4 3.2 4.2s.4 1.4.9 1.4c.4 0 2.1 1.8 3.6 4s3.4 4 4.1 4c.8 0 1.4.6 1.4 1.2 0 1.9 8.9 11 10.3 10.5 1.4-.4 8.8-9.9 8.2-10.5-.2-.3 0-1.3.5-2.3 1.1-1.9 1.1-1.9-5.6-7.9-2.1-2-5.6-5.9-7.7-8.8-2.1-2.8-4.3-5.2-4.8-5.2-.6 0-2.3 1-3.8 2.1-1.6 1.2-3.5 1.9-4.2 1.7-.9-.3 0-1.4 2.3-2.9 3.6-2.3 5.6-4.9 3.9-4.9-.5 0-3.3 1.9-6.4 4.2M556.7 485.6c-.4.4-2 .7-3.6.6-2.2 0-3.6.9-6 3.8-1.8 2.3-2.8 4.5-2.5 5.4.4 1.1 0 1.6-1.2 1.6-2 0-5.8 4.1-11.1 12-2 3-4.5 6.5-5.5 7.6-1.9 2.2-1.9 2.2.9 4.9 5.7 5.4 5.7 5.4 12-5 3.2-5.3 8.7-14.1 12.1-19.6 3.5-5.4 6.2-10.4 6-11-.2-.5-.7-.7-1.1-.3"/><path d="M769.3 493.2c-6.9 7.4-11.3 10.4-11.3 7.7 0-.5.5-.7 1.1-.4.6.4.5-.2-.2-1.4-1-1.4-1.5-1.7-2.1-.8s-1.2.9-2.9-.1l-2.2-1.4 2.1 3c1.2 1.6 4 4.6 6.2 6.6 3.8 3.4 4.3 3.6 6.3 2.3 2.5-1.6 4.7-1.2 4.7.8 0 .8-1.3 1.5-3.2 1.7-3.2.3-3.3.5-3.2 4.5 0 2.4-.1 4.3-.2 4.3-.2 0-.8-1.8-1.4-4-1.2-4.3-6.9-11.7-7-9 0 .8-.9-.4-2-2.8-2.2-4.8-7.1-9.5-10.4-9.8-4.1-.5-7.7.7-7.4 2.4.2 1 .8 1.7 1.5 1.7.6 0 1.5.4 2 .9s.3.6-.4.2c-2.2-1.3-1.4 1.2 1 3.1 1.3 1 2.6 2.5 3 3.3.3.9.6 1 .6.3.1-1.3 2.6-.8 4.9 1 .7.6 3.2 1.1 5.5 1.1 3.6.1 4.2.4 4.5 2.3.2 1.3-.1 2.3-.7 2.3s-1.1-.5-1.1-1c0-.6-.6-.5-1.4.2-1.1 1.1-1.1 1.6.3 3.5.9 1.2 2.4 2.5 3.4 2.8 2.5.9 2.1 2.2-.8 2.2-1.4 0-3.2.9-4 1.9-1.4 1.8-1.6 1.8-2.8.2-1.3-1.6-1.6-1.5-4.3 1-1.7 1.5-4.2 3.3-5.7 4.1s-2.7 1.8-2.7 2.3c0 .4-.8.8-1.7.8-1 0-3.2.9-4.9 1.9-1.8 1.1-6.7 3.8-11 6.2-4.4 2.3-8.2 4.6-8.5 5.1s-.9.9-1.3.9c-2.5-.4-2.8.2-2.3 4 .3 2.3.9 4.5 1.4 5 1 1 7.7-.7 9.5-2.4.7-.7 3.1-1.8 5.3-2.5 2.2-.6 4.9-1.8 5.9-2.5 1.8-1.3 1.8-1.5.1-4-2.1-3.2-1-3.5 2.1-.6l2.2 2.1 4.1-2.6c2.2-1.4 4.3-2.6 4.6-2.6 1.1 0 14-9.3 14.8-10.6.4-.8 1.3-1.4 1.8-1.4.6 0 1.7-.7 2.6-1.6 1.4-1.4 1.8-1.3 4.2 1 2.9 2.8 4.3 3.3 3.9 1.3-.2-.6 0-1.3.5-1.5 3.5-1.1 4.3 2.4 1.2 5.6-1.4 1.3-2.5 2.9-2.5 3.4s-.6.8-1.2.5c-.7-.2-1.3-1.7-1.3-3.3 0-2.2-.6-3.1-2.8-3.8-2.4-.9-3-.7-4 .9-1.6 2.9-4.4 5.3-14.6 12.5-12.9 9.2-15 10.9-12.9 11 .9 0 2.3-.7 3.2-1.5.8-.8 1.9-1.5 2.4-1.5s1.5-.7 2.2-1.5 1.6-1.3 2-1 1.3-.2 2-1c1.9-2.3 4-1.8 4 .9 0 1.7-.5 2.5-1.7 2.4-2.6-.1-7.3 2-7.3 3.2 0 .5-.7 1-1.5 1s-1.5.4-1.5.8c0 .5-1.1 1.4-2.5 2s-2.5 1.5-2.4 1.9c.3 2-.2 2.5-1.5 1.4-3.6-3-6.4 3-2.8 6.2 2.5 2.3 5.8 1.5 5.5-1.2-.3-2.1-.2-2.1 1.8-.7s2.8 1.2 10-2.5c4.4-2.1 8.5-4.8 9.1-5.9.7-1.1 2-2 2.8-2 2.4-.1 7-4.7 7-7.1 0-2.1.1-2.1 1.8-.6s1.9 1.5 3.4-.2c.8-1 1.8-3 2.2-4.4.3-1.5 1.3-2.7 2-2.7 1.9 0 2.7-2.5 1.3-4-.9-1-.9-1.1 0-.6 1.5.8 9.3-3.2 9.3-4.8 0-.6-1.3-2.3-3-3.8-1.8-1.5-3-3.6-3-5l.1-2.3 2.2 2.6c1.2 1.4 2.7 3.5 3.3 4.5 1 1.5 1.4 1.7 2.5.6.7-.6 1.9-1.2 2.7-1.2 1.7 0 3.8-2 4.6-4.7.4-1.2 1.3-2.4 2.1-2.7s1.5-1.5 1.5-2.6c0-1.5.7-2 2.8-2 1.9 0 2.9-.5 2.9-1.5 0-.9-.6-1.4-1.3-1.1-1.5.6-4.7-2.8-3.7-3.9.5-.4.1-.6-.8-.2-1.1.4-1.6 0-1.5-1.1 0-.9-1.8-2.6-4.4-4.1-2.5-1.4-5.6-3.9-7-5.6-3.3-4-8-8.5-9-8.5-.4 0-3.4 2.8-6.7 6.2M560 497c-1.4 5.2-3.4 6.5-4.5 3-.4-1.1-1.1-1.8-1.6-1.4-.6.3-.8 1.2-.5 2s0 1.3-.6 1.1c-1.1-.2-11.5 14.7-15.5 22.1l-1.8 3.4 3 2.4c3.4 2.7 2.7 3.2-1 .8-3-2-4.7-1-7.6 4.7-1 2.1-2.4 4.1-3.1 4.5-1.1.7.6-2.4 5.1-9.5 1.1-1.7 1.2-2.6.4-2.8-.6-.2-3-1.7-5.2-3.3l-4-2.9-5.2 6.5c-2.8 3.6-5 6.6-4.8 6.7.2.2 1.3.9 2.3 1.7 1.1.8 1.7 1 1.3.4-.4-.7 0-1.4.8-1.7.9-.4 1.2-.1.8.9-.3.7 0 1.4.6 1.4s1.1.7 1.1 1.5c0 1.7 3.6 3.9 5 3 .6-.3 1 0 1 .8 0 1.6 8 6.2 12.5 7.1 2.9.6 3.2.3 6.8-5.7 2-3.5 3.7-7.1 3.7-8s.5-1.9 1.1-2.2c.5-.4 3.3-5.4 6-11.1 5.1-10.7 5.6-14.4 1.9-14.4-1.9 0-3.2-2.1-2.2-3.6 1.3-1.7 3.6-1.6 4.9.2 1.1 1.5 1.3.7 1.3-5.4 0-4-.1-7.2-.3-7.2s-1 2.2-1.7 5"/><path d="M715.3 503.4c-3 3.5-3.8 6.5-1.8 7.2 1.4.6 1.4.7 0 1.8-1.2.8-1.9 4-2.5 10.9-.5 5.4-1.5 11.6-2.1 13.8-1 3-1 4.2-.1 5.1.8.8 1.2.9 1.2.1 0-.6 1.6-1.4 3.5-1.7 1.9-.4 3.5-1.1 3.5-1.6 0-.6.6-1 1.3-1 .6 0 1.8-.4 2.6-.9 1.2-.8 1.2-1.2.2-2.5-.7-.8-1.1-2.3-.9-3.3.4-1.5.7-1.3 1.8 1 1.6 3.2 3.2 3 9.8-1.5 3.2-2.2 4.1-3.3 3.3-4.1-.6-.6-1.1-1.8-1.1-2.6 0-1.1.5-.9 1.6.7 1.9 2.7 2.8 2.8 5.4.2 1.8-1.8 1.9-2.3.6-4.3-.7-1.2-1.7-3.6-2-5.2l-.7-3 2.1 2.5c1.1 1.4 2 2.9 2 3.3 0 .5.4.6 1 .2.5-.3.6-1.3.3-2.2-.7-1.8-4.3-5.7-4.3-4.7 0 .3-.9-.4-2-1.7-1-1.3-1.9-2-2-1.6 0 .5-1.3-.1-2.8-1.2-1.6-1.1-4.8-2.5-7.2-3-2.3-.5-4.7-1.4-5.3-2-1.7-1.7-3.1-1.3-5.4 1.3M631.2 513.1c-1.7 1.5-2.2 3.1-2.2 6.9 0 2.8-.4 5-1 5-.5 0-1-1.8-1-4 0-2.7-.4-4-1.4-4-1.5 0-3.6 8.6-3.9 16-.2 4.4-.1 4.5 2.8 4.5 1.7 0 3.9.5 4.9 1.1 1.8 1.1 1.8 1.2-.5 2-1.3.4-3.8.6-5.5.5-3.1-.2-3.2-.1-3.9 5-.8 5.4 0 6.9 3.7 6.9 1.2 0 1.9-1.2 2.4-3.8l.7-3.7.9 3.2c1 3.8 3.1 4.2 6.4 1.5 2.9-2.4 3.8-9.6 2.9-23.3-.7-10.8-.7-10.9-3.1-10.3-3.1.8-3.3-1.9-.2-3.3 1.2-.5 1.7-1.2 1.1-1.6-.5-.3-2 .3-3.1 1.4M557.2 523.7c-5.2 9-11.3 21.6-12.6 26-.5 1.7-.3 2.3.7 2.3.9 0 1.8-.6 2-1.3.4-.8.6-.7.6.4.1 2 4.2 5.8 6.9 6.4 1.1.2 3 .8 4.1 1.4s3.4 1.1 5.2 1.1h3.1l-.5-6.3c-.3-3.4-1-8-1.4-10.2l-.8-4-1.9 5c-1.1 2.7-2.6 5.9-3.4 7l-1.4 2 .5-2c.3-1.1 1.7-5.1 3.1-8.8 2.7-7 3.2-14.2 1.8-23.7l-.7-4.5zM641 518.8c0 1.5-.2 1.5-1 .2-.6-1-.9 3-.8 12 .1 10.9.3 12.2.8 6.5.5-6.2.6-6.6 1.3-3.5.4 1.9.8 5.5.9 7.9.2 2.5.9 4.6 1.6 4.9.6.2 1.2-.4 1.2-1.3 0-1.1.7-1.5 2.3-1.3 2.8.4 2.9 3.2.1 3.6-3.9.6-1.7 4 3.5 5.6 4.4 1.3 4.6 1.2 5-.8.5-2.9-2.1-21.6-3-22.2-.5-.3-1.1-2.7-1.5-5.5-.4-2.7-.9-4.7-1.2-4.4-.3.2-1-.1-1.6-.9-.6-.7-2.6-1.6-4.3-2-2.7-.4-3.3-.2-3.3 1.2"/></svg>