<svg xmlns="http://www.w3.org/2000/svg" width="1706.667" height="960" viewBox="0 0 1280 720"><path d="M0 360v360h246c240.7 0 246 0 246-1.9 0-2.5 6.1-13.3 7.9-13.9 1.1-.4 1.3.3.8 3.3-.4 2.1-1 4.1-1.5 4.4s-1.2 2.3-1.5 4.4l-.6 3.7h49.7l.5-12.7c.3-10 1.2-16.3 4-28.9 2-8.8 4-18.9 4.5-22.5 1.1-8.1.1-30.7-1.4-31.7-3.1-1.9-2.2-15.4 1.2-18.3 1.2-1 1.4 0 1.4 6.2 0 4.6.6 8.5 1.5 10.3.9 1.6 1.5 5.5 1.5 9 0 3.3.6 7.3 1.4 8.7 1.1 2.2 1.1 2.9 0 4.4-1.1 1.4-1.4 1.5-1.6.4-.1-.8-.5 2.4-.9 7.1-1 12.5-2 19.4-2.9 20.5-.8 1-3.8 12.8-4.5 17.5-.2 1.4-.8 3.8-1.4 5.3-1.7 4.4-2.7 17.2-1.3 16.3.7-.4 1-.2.8.6-.2.7-.7 2.8-1 4.5l-.5 3.3h26.4c24.3 0 26.4-.1 26.8-1.8.4-1.6.5-1.6.6 0 .1 1.5 1 1.8 5 1.8 4.9 0 5-.1 5.4-3.3l.4-3.2.1 3.2.2 3.3h15.9l.4-4.8.3-4.7.2 4.7.2 4.8h38.7l.7-6.1c.3-3.4.6-8.7.6-11.8s.5-7.4 1.1-9.6c3-11.6 3.1-12.4 1.6-13.9-.8-.8-1.8-3.6-2.2-6.1-.3-2.6-1.2-6.4-2-8.4-.7-2.1-1.6-7.3-2-11.7-1.1-13.3-1.6-17.3-4.8-37.9-1.7-10.3-4.6-24.5-5.3-25.6-.2-.4-1.7-.1-3.1.6-1.7.9-4.1 1.2-6.4.9-3.1-.5-3.9-.3-4.8 1.4-.7 1.4-.8 2.3-.1 2.7.5.3 1 .3 1 0 0-.4.7.1 1.6.9 1.4 1.4 1.7 1.4 3 .1 2-1.9 1.9-1.9 1.9.9 0 1.3-.2 2.3-.5 2.1s-1.3.2-2.2.9c-1.6 1.2-2.5 3.7-2.7 7.3-.1.7-.6 1.3-1.2 1.3-.8 0-1-1.4-.6-4.5.4-2.6.3-4.5-.3-4.5-.5 0-.7.7-.4 1.5.4.8.1 1.5-.5 1.5s-1.1 1.5-1.2 3.2l-.1 3.3-.9-3c-.6-1.7-.7-5.7-.4-9 .6-6.8-.5-9.1-4.5-9.8-1.8-.3-1.5-.5 1.2-.6 2 0 4-.6 4.3-1.1.3-.6.1-1-.6-1-.6 0-1.7-.7-2.3-1.5s-3-1.7-5.3-2c-4.5-.6-4.9 0-4.5 5.7.1 1.4-.9 1.8-5.1 2-4.6.3-5.2.6-5.5 2.7-.5 3.1.5 4 5.2 4.5 4.4.6 5.1 1 4.2 2.5-.4.6-1.9.8-3.5.5-2.2-.5-3.1-.1-4.6 2.3-1 1.5-2.5 3.4-3.2 4.1s-1.3 2.3-1.4 3.5c-.1 3.4-.6 5.7-2.4 12.2-.9 3.3-2.2 9.8-3 14.5-2 12.6-4.5 26.1-5.6 29.6-1.5 4.9-.6 27.9 1.6 40.9.5 2.7.4 2.8-1.1 1.4-2.1-2.2-4.7-24.2-3.9-32.9.4-3.6 1.5-10 2.6-14.4 1-4.3 1.6-8.2 1.3-8.8-.3-.5-.2-3.2.2-6.1.6-4.2.9-4.7 1.4-2.7.4 1.6.9-.6 1.4-6.5.4-5 1.4-11.8 2.2-15.3.7-3.5 1.4-7.1 1.4-8-.1-1.5-.3-1.4-1.6.3-1.4 1.9-1.5 1.7-.8-2 .4-2.2 1-4.2 1.4-4.5 1.1-.9 4.1-12.1 6.2-23.5 1-6.1 2.3-13.1 2.8-15.7s1.5-7.1 2.4-10c.8-2.9 2.2-10 3.1-15.8s2.5-15.5 3.6-21.5c1-6.1 1.9-12 1.9-13.3 0-1.2.5-2.2 1.1-2.2.8 0 1-1.3.6-3.8-.5-4.1.8-7.6 2.4-6.7.5.4.9-.2.9-1.2.1-1.7.2-1.7 1.5.1.8 1.1 1.5 1.4 1.5.8 0-.7.5-1.2 1-1.2.6 0 1 .6 1 1.2 0 1.4 6.8 1.6 8.9.4.6-.4 1.1-.1 1.1.8s-.5 1.6-1.1 1.6c-1.2 0-1.2 1.1 1.1 19 .6 4.7 1.3 11 1.5 14 .7 7.1 1.4 12.1 3.5 25 1.9 11.5 2.3 13 3.3 13 .5 0 .5.6-.2 1.4s-.8 1.6-.3 1.8c1.8.7 5.2 10.9 5.2 15.8 0 2.8.5 6 1.1 7.1.5 1.1 1.2 5.2 1.4 9.2.3 4 .9 11 1.5 15.7.5 4.7 1 8.8 1 9.2 0 .5.7.8 1.6.8 1.3 0 1.4.3.5 1.4-1.3 1.5-.4 21.6 1 21.6.4 0 .9 2.4 1.2 5.2.9 8.9 2.4 16.2 4.1 19.3 1.8 3.4 2 5.8.7 8.3-1.1 2.1-3.1 21.2-3.1 29.9v6.3h24.6c20.7 0 24.8-.2 26.1-1.5 1.3-1.4 1.4-2.9.4-11.1-.6-5.3-1.5-10.4-2-11.3-.4-.9-1.1-3.6-1.5-6.1-.7-4.4-2.6-13.2-4.8-21.8-.6-2.4-1.2-5.7-1.3-7.5-.2-1.8-.4-3.2-.5-3.2-1.5 0-3.1-20.4-2-25.8.6-2.9 1.2-6.4 1.4-7.9.1-1.5.7-3.3 1.3-4s1.2-4.7 1.4-8.8.9-8 1.5-8.7c.6-.6 1.4-6.9 1.7-13.9.4-7 1.1-13 1.5-13.3.5-.3 1.2-5.3 1.5-11.1.4-5.8 1.1-13 1.7-16 1.2-6.2.2-36.3-1.1-35.4-.5.3-.5-.6 0-1.9 1-2.6-.3-15.1-1.7-17.1-.5-.6-.9-2.6-1.1-4.5s-.9-4.1-1.7-4.8c-1.6-1.6-1.9-3.7-.4-2.8.6.3 1 .1 1-.4 0-.6-.5-1.1-1-1.1-.6 0-1-.6-.9-1.2.1-.7.1-2.2-.1-3.3-.1-2-.1-2-.9 0-.7 1.7-.8 1.7-1.3-.7-.3-1.5-.1-2.5.3-2.2 1.1.6 0-5.2-1.6-9.1-2-4.7-3.9-10.9-3.7-11.9.2-.5-.2-1.2-.9-1.6-.7-.5-1.4-4.9-1.8-10.9-.8-10.5-1.3-12.3-3.3-10.3s-1.5 10.3 1.1 16.2c1.7 3.8 2.6 8 2.9 13.5.3 6.2 1.1 9.3 3.3 13.8 5.3 10.5 8.9 24 5.9 22.2-.5-.3-1-1.6-1-2.8 0-5.5-8.1-23.4-10.1-22.1-.5.3-.9-.1-.9-.9s-.9-2.6-2-4c-2.5-3.2-2.5-4.1-.1-2.7 1.1.5 2.3 1 2.7 1 1.3 0-.4-15.2-1.9-16.8-1.3-1.3-1.8-1.1-4.2 1.1l-2.8 2.5 1.7 4.8c1.1 3.4 1.3 5 .5 5.5-.7.4-.9 1.8-.4 3.7.3 1.7.6 4.9.7 7.3 0 2.7.9 5.4 2.4 7.7 1.3 1.9 2.4 4 2.4 4.6s-.7 0-1.6-1.2c-.8-1.2-2.2-2.2-3-2.2s-1.4-.7-1.4-1.5-.7-1.5-1.5-1.5-1.5-.5-1.5-1c0-.6-.9-1-1.9-1-1.1 0-2.3-.5-2.6-1s-1.3-1-2.1-1c-1.1 0-1.3.6-.8 2.2.4 1.3.9 2.5 1.3 2.8.8.7 3.1 6.6 4.1 10.8.4 1.8 1.3 3.9 2 4.7.6.7 1.4 3.8 1.6 6.7.3 2.9 1 6.8 1.5 8.6.6 1.8.9 3.6.6 3.8-.3.3-1.3-2.1-2.2-5.3-2.5-9-2.3-8.7-4-7.3-1 .8-1.5.9-1.5.2 0-.6.4-1.4 1-1.7 1.6-1-1.3-16.5-3.1-16.5-.5 0-.9-.9-.9-2s-.6-2-1.3-2c-1.4 0-3.7 4-3.7 6.5 0 .7-.7 2.6-1.5 4.2-.8 1.5-1.7 4.9-2 7.6-.4 2.6-1 4.5-1.5 4.2-.4-.3-.6-2.3-.3-4.5.4-2.8-.2-5.7-1.9-10.2-1.4-3.5-2.8-7.7-3.1-9.3-.6-2.9-.6-2.9.5-.5 2 4.5 3.6 8.5 4.3 10.8.8 2.9 2.7 2.4 3.1-.9.1-1.3 1-4.9 1.9-7.9 1.8-6.2 2.4-17 1.1-21.5-.4-1.6-.5-2.7-.1-2.3.4.3 1.2 3 1.9 6 1 4.1 1.5 4.9 2 3.3.4-1.1 1.2-2.9 1.7-4 3-6.9 3.6-10.4 2.2-12.5-1.1-1.6-1.2-2-.1-2 .7 0 2.1-2.4 2.9-5.3 1.3-4.3 1.5-6.5.7-11.1l-1-5.8-2.8 3.4c-3.1 3.6-5 7.7-7.1 14.8-.7 2.5-1.5 4.9-1.7 5.4-.7 1.3-2.1-2.3-2.1-5.4.1-1.4.3-1.9.6-1.3 1 2.6 2.1 1.1 2.8-3.7.4-2.8 1.1-5 1.5-5 .9 0 2.2-3.3 2.5-6 .1-.8 1.4-3.3 2.8-5.4 2.9-4.1 3.3-5.6 1.7-5.6-1.7 0-1.1-2.4.9-4.2 1.9-1.6 3.9-11.3 2.7-12.6-.4-.3-1.9-.1-3.4.4-2.1.8-2.6 1.5-2.4 3.4.4 2.4.3 2.5-1.2.5-1.2-1.5-1.5-1.6-1.6-.5 0 .9-.6.4-1.3-1-1.1-2.1-1.1-2.7 0-3.5 1.1-.9 1.2-2.4.2-8.5-.6-4.1-1.5-8.3-1.9-9.5-.7-1.8-.9-1.6-2.4 1.9-.9 2.1-1.6 4.2-1.6 4.7 0 .4-.6 1.4-1.3 2.1-1.9 1.9-7.9 13.8-7 13.8.5 0 .1.6-.7 1.3-.9.7-3.1 4.2-5 7.9-1.8 3.7-3.6 6.6-3.8 6.4s.9-2.8 2.4-5.8c1.5-2.9 2.7-6.5 2.6-8.1-.1-1.5.2-2.7.7-2.7 1.6 0 14.1-22.5 14.1-25.4 0-1.8-2.9-1.1-4.7 1.2-.7.8-2.3 2.1-3.5 2.8-2 1.2-9.1 4.8-9.4 4.9-.4 0 2.4 13.4 3 14.4.4.6.3 1.1-.3 1.1-.8 0-2.3-3.4-4.5-10-.3-1.2-.5-1.1-.5.3-.1.9-1.5 3.6-3.2 6-1.8 2.3-2.9 3.3-2.4 2.2.4-1.1 1.1-3.4 1.5-5 .4-1.7.9-3.6 1.1-4.4s-.6-1.7-2.1-2.2c-2.4-.7-2.4-1 0-1.3.6 0 1.5-.8 2-1.6s1-1.1 1-.5c0 .5.6.1 1.2-1 1.6-2.7 3.6-17.5 2.5-18.2-.5-.3-2.3.8-4 2.3-1.9 1.7-2.4 2-1.3.6l1.9-2.2-4.9-.1-4.9-.1 6-.9c3.3-.5 6.5-1.1 7.1-1.3.7-.3 1.2-3.8 1.3-9.1l.2-8.7-4.8 3.8-4.8 3.8 3.4-3.7c1.9-2 3.6-4.5 3.7-5.4.2-1 .8-1.9 1.3-2.1.6-.2 1.1-1.3 1.2-2.5 0-2.1.1-2.1.8-.3.9 2.3 1.3 1.8 4.8-5.7 1.2-2.6 2.4-4.7 2.6-4.7.7 0-2.9 9.9-4.2 11.4-1.1 1.3-1.1 1.9-.1 3.2.8.8.9 1.4.4 1.3-2.8-.5-3.2.4-3.3 9.3 0 7.7.2 8.9 1.3 7.7 2.7-2.9 10.6-14.9 9.8-14.9-.5 0-1.7-.6-2.7-1.4-1.8-1.3-1.8-1.4.8-.9 1.7.3 2.7.1 2.7-.7 0-.7.7-1 1.5-.6 1.5.5 8.4-6 9.4-8.8.2-.6 1.5-2.4 2.7-3.9 2-2.3 2.4-2.5 2.4-1 0 1-2.3 4.4-5 7.6-2.8 3.2-5 6.2-5 6.6 0 .3.7 1.7 1.6 2.9 1.1 1.6 2.2 2.1 3.5 1.7 1.1-.4 1.9-.2 1.9.4s-.3 1.1-.8 1.1c-1 0-3.4 9.6-3.4 13.4 0 2.6-.2 2.7-1 1.1-.8-1.3-.6-3.1.6-6.6 1.2-3.3 1.5-5.3.8-6.5s-1.1-1.3-1.7-.4c-.5.8-1.3.3-2.6-1.7-1.9-2.8-1.9-2.8-2.5-.6-.4 1.3-1.2 2.3-1.8 2.3-.7 0-2.9 2.4-5.1 5.2-2.1 2.9-4.3 5.9-4.8 6.5-.6.8-.5 1.8.3 2.8 1.1 1.3.8 1.5-1.3 1.5-1.8 0-2.6.5-2.6 1.7 0 1-.3 4.6-.7 8-.7 6.3.1 7.8 2.5 4.9.7-.8 2.7-1.7 4.6-2 1.9-.4 3.5-1 3.5-1.5 0-.4 1.6-1.6 3.5-2.7 3.8-2 4.1-2.4 2.3-4.2-.9-.9-.9-1.2.3-1.2 1.1 0 1.4-.9 1.2-3.8l-.4-3.7 1.6 2.7c.9 1.6 2.1 2.8 2.7 2.8s3.1-2.1 5.6-4.6c4-4.1 4.5-5.3 5.2-10.9.4-3.5 1.1-6.8 1.4-7.4.4-.6 1.1-5.9 1.6-11.8.5-6 1.2-11.7 1.6-12.8l.7-2-1.9 2c-1.2 1.3-2 3.7-2.1 6.9-.2 5-2.4 12.9-3 11-.2-.6.3-3.9 1.1-7.4 1.6-6.7 1.3-8.7-.8-5.7-2.6 3.4-2.7 1.6-.2-2.8 1.3-2.5 2.1-4.3 1.5-4-1.5 1-1.1-.3 1.4-4.3 3.7-5.9 5.9-11.2 5.3-12.7-.3-.8-.1-1.7.4-2 1.2-.7 4-6.5 4-8.2 0-.8.8-2.8 1.7-4.6 1.6-3.1 2.6-9.7 1.4-9.7-1.1 0-11.1 10.8-11.1 11.9 0 .6-.4 1.1-1 1.1-1.8 0-1-1.4 3-5.8 2.1-2.3 3.6-4.2 3.3-4.2-.4 0 .6-1.3 2.1-2.9s2.8-3.2 2.7-3.5c-.4-2.2 0-3 .8-1.8.6 1.1 1 1 1.5-.4.4-1.1.2-2-.3-2.2-.6-.2-1.1-1.8-1.1-3.5-.1-3.1-.1-3.1-1.6-1.2-.8 1.1-1.8 3.2-2.1 4.8-.3 1.5-1 3-1.6 3.4-1.8 1.1.1-5.3 2.8-9.2 1.4-2.1 2.5-4.4 2.5-5.2s.9-2.7 1.9-4.2c1.1-1.5 2.2-3.8 2.6-5.2.3-1.3 4.5-6.2 9.3-10.9 9.1-8.9 9.1-8.6.4 1.8-3.2 3.8-5.1 7-4.8 7.8s.2 1.2-.3.9c-1.6-.9-2.1 1-2.6 8.9-.3 4.1-1 8.7-1.5 10.1-1.3 3.5-1.3 14 .1 18.4 1.2 3.7 4.4 10.9 3.5 7.8-.3-.9-.1-1.7.4-1.7 1.6 0 1.1-3-.5-3.6-2.2-.9-1.8-2.1.9-2.6 2-.4 2.3-.1 2.4 2.5 0 1.7-.4 3.9-.9 4.9-.7 1.4-.1 2.9 2.6 7 2 2.8 3.3 5.8 3 6.6-.7 1.9 3.3 8.2 5.2 8.2 1.3 0 1.3.3.3 1.5-1.6 1.9-3 1.9-3 0 0-.8-.3-1.5-.7-1.5-1.3 0-3.3-5.2-3.3-8.2 0-1.7-.5-2.8-1.4-2.8-.8 0-1.6-.6-1.9-1.3-.2-.6-.8-.9-1.3-.4-1 1 2.9 9 6.8 14 2.2 2.7 2.7 4.1 1.9 5-1 1.3.9 8.7 2.8 11.2.5.5 1.1 2.3 1.5 3.9.7 2.8 3.1 5.5 5 5.6.5 0 .3-.7-.4-1.5s-1-1.5-.6-1.5-.1-1.1-1-2.5c-2.1-3.2-1.2-4.2 1.8-2.1 2.1 1.5 6.8 2.2 6.8 1.1 0-.5-5.4-5.6-8.9-8.3-1.3-1-2.2-2.5-1.9-3.3.3-1 1.2-.6 3.5 1.6 3.8 3.9 10.9 8.6 11.7 7.8 1.3-1.3.5-2.9-3.7-7.6-2.3-2.6-5.2-6.1-6.5-7.7-1.3-1.7-2.9-3-3.7-3-.7 0-1.2-1.1-1.2-2.6s-.7-3-1.4-3.5c-1.1-.7-1.1-.9.3-.9.9 0 2.4.3 3.2.6 1.5.6 1.5.8-.1 2-1.7 1.2-1.7 1.3-.1 1.4 1 0 2.5 1.6 3.4 3.6.9 1.9 2.8 4.3 4.1 5.1 1.4.9 2.9 2.7 3.4 4s2 2.8 3.4 3.5c2.1 1 2.8.8 4.1-.8 1.4-1.8 1.5-1.8.4.3-.5 1.2-1.8 2.6-2.6 3.1-1.4.8-1.2 1 .9 1.4 1.5.3 2.4.2 2.2-.2-.3-.5.2-1.1 1.1-1.4 2.2-.8 2.2-.8 2.8 1.1.2 1 .4 0 .3-2.2-.1-4.3 1.2-4.8 4.6-1.8 2.6 2.4 2.9 1.1.6-3.4-1.5-3.1-2.5-4.1-4-3.8-1 .2-1.9 0-1.9-.6 0-.5.4-.9.9-.9 1.1 0 .6-4.2-.8-6.9-1.4-2.6-2.7-2.6-6.8-.2-1.7 1.1-3.4 1.7-3.8 1.3-.3-.4-2.5-1.2-4.8-1.9l-4.2-1.2 4 .2c2.8.1 3.9-.2 3.7-1.1-.1-.9.8-1.1 3.5-.7 2.1.3 4.5.1 5.3-.4 1.2-.8 1.2-1.3 0-3.6-1.2-2.2-1.2-2.8-.1-3.4 2.8-1.8 1.4-8.3-3.9-18.1-6.3-11.6-8-13.6-7.3-8.8.3 1.8.5 4.5.6 6 0 1.6.3 2.8.6 2.8.4 0 1.2 1.3 1.9 2.8.6 1.6 2.2 3.9 3.5 5.2 2.2 2.4 5 9 3.8 9-1.3 0-6.8-6.7-8.5-10.3-1-2.1-2.8-5.4-4.1-7.3s-2.6-5.2-3-7.4c-.5-2.8-1.3-4.1-2.8-4.6l-2.2-.7 2.2-.8c2-.7 2.2-1.4 1.9-6.9-.1-3.9.2-6.4 1-7.1.9-.8 1.4.5 1.9 5.5.7 6.3.8 6.6 4.6 8.4 4.6 2.3 4.7 1.8 1.4-6.3-1.4-3.3-2.5-6.9-2.5-8 0-1.2-.5-2.6-1.2-3.3s-.9-1.2-.4-1.2c.4 0 0-.8-1-1.8-1-.9-2.2-1.7-2.7-1.7-2.7 0-1.3-2.6 2.5-4.9 5-2.9 7.3-7.2 7-13.2-.2-5.2-3-13.6-4.8-14.7-.8-.4-1.4-1.9-1.4-3.2 0-1.4-.4-2.5-.9-2.5s-1.2-.9-1.6-1.9c-.3-1.1-1.2-2.2-2-2.5-1-.3-1.2 0-.8 1.1.5 1.3 0 1.5-2.6 1.1-2.5-.4-3.1-.1-2.6.9.3.8.5 3.1.5 5.2 0 2.3.7 4.5 2 5.9 2.9 3.1 2.6 5.4-.4 4.6-1.4-.3-3-.3-3.7.1-.6.4-2.8.9-4.8 1s-5.3.6-7.4 1c-3.4.7-3.8.5-3.5-1.1.2-1.1-1.4-3-4.7-5.6-4.8-3.6-8.4-5-6.9-2.7.3.6-.1 1-1.2.9-5.5-.6-5.7-.1-2 3.7 2 2.1 3.6 4.1 3.6 4.5s1.7.9 3.8.9c2 .1 2.9.3 2 .6-2.4.6-2.3 3.5.2 6.3 1.1 1.3 2 3.2 2 4.4 0 1.8-.3 1.6-1.6-.9-1.7-3.4-4.8-6.5-6.4-6.5-.5 0-1-.4-1-.9 0-1.1-5-6.1-6.1-6.1-2.4 0 1.1 9.3 5.9 15.8 2 2.6 2.2 3.6 1.3 4.5-1 .9-1.4.9-2.1-.3-2.2-3.6-2.9-4.4-3.4-3.9-.3.3-.2 2 .3 3.7.5 1.8.7 3.2.3 3.2-1.6-.1-3.1-1.7-3.7-4.3-.6-2.4-1.2-2.7-4.6-2.7-4 0-5.2 1.3-2.3 2.4.9.4 1.4.9 1 1.3-.3.4 1.3 2.6 3.6 5 4.1 4.2 4.2 4.3 1.6 4.1-1.5-.1-2.5-.5-2.3-.9.5-.6-6.3-8.1-9.9-10.9-1.8-1.4-1.8-1.3-1.1 3 1 6.2 2 7.8 5.8 8.9l3.2.9-3.4.1-3.3.1 2.7 3.6c3.2 4.2 2.9 5.5-.5 1.9-2.8-3-4.4-3.2-3.5-.6.3 1.1.2 2.2-.3 2.5-.6.3-1.3-1-1.6-2.9-.7-3.6-2.6-4.9-2.6-1.8-.1 1.7-.1 1.7-1 .1-.8-1.2-2-1.5-5.2-1.1-7.5 1-7.6 1.7-.8 6.4 3.4 2.4 7.1 5 8.2 5.8 1.1.9 2.2 1.1 2.6.5.4-.5 1.2-1 1.9-1.1 2.1-.4 11.7-7 14.2-9.7 1.9-2 2.1-2.6.9-2.6-.9 0-1.9.6-2.1 1.2-.4.9-.6.7-.6-.3-.1-.9.8-2.4 1.9-3.4 1.2-1 1.8-2.5 1.5-3.2-.2-.8 0-1.1.5-.8.6.3 1-.1 1-.9 0-2.1 1.6-2.1 2.4 0s.9 1.8-1.3 4.3c-1.1 1.3-1.7 2.9-1.5 3.6.5 1.3-9.2 9.9-13.3 11.8-2.9 1.3-2.9 3.3 0 4.2 1.4.4 1.8.8.9 1.2-.8.3-1.9 0-2.5-.6-2.1-2.1-2.7-1.1-2.7 4.4 0 3 .3 5.5.6 5.5.8 0 7.4-5.3 11.9-9.6 3.5-3.4 7.8-9 8.9-11.9.6-1.3 1-1.6 1.3-.7.3.7-1.4 3.7-3.6 6.7-2.3 3-4.1 5.8-4.1 6.4 0 .5-1.5 1.9-3.2 3-4.9 3.1-8.5 6.6-10.8 10.3-1.4 2.4-2 2.8-2 1.4 0-1.5-.5-1.7-2.7-1.2-1.6.3-3.9.8-5.3 1.1s-.6-.2 1.8-1.1c4.5-1.7 4.7-3.4.4-3.5-1.5 0-3.6-.5-4.7-1-2-.9 3.1-.5 8.4.8 2.3.6 2.3.5 1.8-4.8-.4-3-.7-5.5-.7-5.7s-1 0-2.2.4c-4.9 1.5-5.2 1.5-1.9-.4l3.3-1.9-8.8-5.5c-4.9-3-9.5-5.8-10.1-6.2-1-.6-1.3 1.5-1.3 8.8s.3 9.6 1.3 9.6c.8 0 1.4.7 1.4 1.5s-.6 1.5-1.4 1.5c-.7 0-1.7 1-2.2 2.2-.8 2.1-.8 2.1-1.3-.5-.3-1.5-.1-3 .4-3.3s.8-5.3.7-11c-.1-9.3-.3-10.4-2-10.4-1 0-2.1.4-2.4 1-.3.5-1.1 1-1.7 1s-.4-.8.5-1.8c1-1 1.7-2.1 1.7-2.4 0-.7-10.8-7.8-11.9-7.8-1.6 0-3.6 15.3-2.7 21.3.5 3.5 1.2 4.6 3.4 5.5l2.7 1.1-2.7-.6c-3.7-.7-3.5.6.8 5.9 7.3 8.7 8.5 9.4 15.9 9.8l3 .1-2.5 1c-1.4.6-3.7.8-5.3.5-2.5-.5-2.7-.4-1.6 1.5.6 1.1.8 2.3.5 2.7-.3.3-.6.1-.6-.4s-.4-1.5-.9-2.3c-.7-1.1-1.8-.7-5.7 1.9-2.7 1.8-5.1 3.5-5.4 3.7-.9.8 2.6 2.3 8 3.4 5.9 1.1 7.7 1 7.2-.6-.1-.6.6-.1 1.6 1.1.9 1.1 3.1 2.4 4.7 2.9 1.7.4 2.5.9 1.8 1.2-.7.2-4-.3-7.5-1.2-13.8-3.7-14.7-3.8-11-.8 1 .9 1.1 1.2.2.7-.8-.4-2.2-1.3-3.1-2.1-3.2-2.7-4.9-.6-4.8 6.1.1 4.8.3 5.6 1 3.6.8-2.2.8-2.1.4.7-.6 4.1.1 4.1 4.5.3 1.9-1.6 3.8-2.9 4.2-3 .4 0 1.9-1.1 3.4-2.5s3.2-2.5 3.8-2.5c1.4 0-2.4 3.4-9.4 8.5l-5.5 4 7 .5 7 .4-8 .6-8 .5-.3 8.7c-.1 4.9.1 8.8.5 8.8.5 0 2.6-1.2 4.8-2.6l4-2.6-3.2 3.1c-4.1 3.9-4.1 4.9 0 5.4 2.4.3 2.1.4-1.5.5l-4.8.2.1 5.7c.1 3.2.4 4.6.6 3.1.3-1.9.9-2.5 1.9-2.1 1.5.5 1 4.2-.7 5.3-.5.3-1.1 3.2-1.5 6.5-.6 5.2-.5 5.8.9 5.2 1.2-.5 1.7-.1 1.7 1.2 0 1-.7 2.1-1.5 2.5-1.8.6-2 3.9-.4 6.8.8 1.5.8 1.9 0 1.4-1.2-.8-1.4 4.7-.2 7.7.6 1.7.8 1.7 2.5-.2 2.8-3.1 4-2.5 1.7.8-1.2 1.6-2.1 3.2-2.1 3.6s2.5.5 5.5.1c3.3-.3 5.5-.2 5.5.4s-.6 1-1.2 1.1c-4.2.2-8 .8-8.5 1.3-.6.6 2.7 5.7 7.2 11.1 1.9 2.3 2.7 2.7 3.3 1.7.7-1.1 1-.9 1.5.7.3 1.2.1 2.1-.4 2.1s-.9 1.1-.9 2.5-.4 2.5-1 2.5c-.5 0-1-1.5-1-3.3 0-2.5-1.2-4.6-5.8-9.6-6.7-7.3-7.2-7.1-7.2 3.5 0 6.4-.4 7.1-2.8 5.5-1.1-.7-1.1-.9.2-1.4 1.2-.5 1.6-2.1 1.6-6.5 0-3.2-.3-6.2-.7-6.6-.4-.3-1.6.4-2.8 1.6-1.1 1.3-3.8 3.9-6 5.8-4.5 4-2.9 1.4 2.9-4.7 2.2-2.4 3.7-4.6 3.3-4.9-.4-.4-4-.9-8.2-1.2-5.9-.4-7.5-.2-7.5.9 0 2.9 3 12.3 4.1 12.9 1.3.9.8 4.6-.6 4.2-.6-.1-1-1-1.1-2-.1-.9-.4-2.4-.6-3.2-.3-.8-1.3-3.6-2.3-6.3-1.7-4.9-3.3-5.8-5.5-3.2-.7.8-1.6 1.5-2.1 1.5-1.6 0 .2-2.7 2.6-4 2-1.1 2.3-1.8 1.8-3.9-.6-2.6-.6-2.6 1.6-.7 3 2.7 19.3 3.3 18.4.7-.6-1.7-8-8.9-13.7-13.4-3.8-2.9-4.6-4.7-2.1-4.7.8 0 3.4 2.1 5.7 4.7 5.7 6.2 11.1 11.3 12.1 11.3.4 0 .7-3.5.7-7.9 0-9.2-.4-9.8-11.9-19.9-10.1-8.7-11.4-9.7-13.3-10.5-1-.3-2.5-2.1-3.4-3.9l-1.7-3.3 2.2 1.9c1.1 1.1 2.1 1.7 2.2 1.5 0-.2.2-1.9.5-3.8.6-4.8 1.4-5.2 1.4-.8 0 2.6.4 3.7 1.5 3.7.8 0 1.5.4 1.5.8 0 .5 2 1.9 4.5 3.1 2.4 1.2 4.7 2.6 5 3.2.8 1.2-2.8-.2-7.8-3-2.1-1.1-4.3-2.1-5-2.1-1.2.1.2 1.4 10.8 10.7 3.3 2.8 7.6 6.6 9.5 8.5l3.5 3.3.3-3.4c.4-4.4-1.3-7.7-4.9-9.1-1.6-.7-3.4-1.9-4.1-2.8-.9-1 .1-.8 3.1.7 2.3 1.2 4.6 2 4.9 1.7s.7-3.1 1-6.2c.5-6.4-.4-7.7-11.8-16.7-9.8-7.8-10-8-10-9.7 0-.8-1.8-2.4-4-3.4-4.9-2.4-4.7-3.2.3-1.1 4.5 1.9 4.7 1.9 4.7 0 0-.8.4-1.5 1-1.5.5 0 .9.6.7 1.2-.1.8 1.4 1.5 3.8 1.9l4 .6-4.2.2c-7.3.2-6.5 1.9 5.6 11.5 3.8 3.1 7.3 6 7.6 6.6 1.8 3 2.5.2 2.3-8.7l-.3-9.7-5 .1-5 .1 4.4-.7 4.4-.6-5.9-5c-3.2-2.7-6.5-5.5-7.2-6.2s-1.9-1.3-2.6-1.3c-.8 0-1.9-.6-2.5-1.4-.9-1.1-.1-1.4 4.6-1.9 3.2-.3 6.9-.9 8.2-1.3q2.4-.75 1.8.3c-.4.6-3 1.4-5.9 1.8l-5.2.7 5.4 5c3 2.8 6.7 5.6 8.1 6.4l2.6 1.3.2-7.4c.1-6.2-.1-7.5-1.4-7.5-.8 0-1.5-.5-1.5-1 0-.6.5-1 1.1-1 1.9 0-.7-2.6-6-6-3.8-2.4-5.5-2.9-7.9-2.4-1.8.4-3.2 1-3.2 1.5s-.5.9-1.2.9c-.6 0-.8-.3-.4-.7.3-.4-.4-1.3-1.6-1.9-2.3-1.2-2.2-1.3.7-1.2 6.8.2 9.3-1.2 15-8s7.1-10.1 3.6-8.3c-1 .6-2.1.7-2.5.4-.4-.4.6-1.2 2.1-1.8l2.8-1.2-6.4-6c-3.6-3.4-7.7-6.8-9.2-7.7l-2.7-1.6-.6 6.2c-.4 3.5-.5 7.6-.2 9.3.2 1.6.4 3.6.5 4.4 0 .7.7 1.1 1.5.8 2.3-.9 2.7.5.7 2.2-1 .9-2 2.3-2.4 3.1q-.6 1.8-.6-.3c-.1-1.1-.9-1.7-2.3-1.7-1.8 0-2-.2-.8-1 1.2-.7 1-1.1-1-2-2.5-1-2.5-1 .3-.5l2.7.5v-9.5c0-5.2-.3-9.5-.7-9.4-1.7.1-17.7 9.6-18.1 10.7-.2.7.7 1.7 2 2.2 1.9.8 1.6.9-1.2.3-1.9-.4-4.6-.7-6-.6-1.4 0-1.9-.2-1.2-.4 2.1-.8 1.3-2.3-2.3-4.4-1.9-1.2-3.5-2.5-3.5-3.1 0-.5 1.8.4 3.9 2.1s4.4 3.1 5 3.1c1.3 0 2.8-.9 13.6-7.9 6.5-4.1 6.8-4.5 4.5-5.1-1.4-.4-5.3-.8-8.8-.9-5.7-.2-6.3 0-7.1 2.1-.7 1.6-1 1.8-1 .6-.1-.9-.6-1.8-1.2-2-.8-.3-.9-1-.2-2.3.5-1.1 1.1-4.2 1.2-6.9l.2-5-4.2 4c-2.3 2.1-4.9 4.7-5.8 5.8-3.3 3.8-5.4 5.5-6.3 5-.4-.3-.8-3.7-.8-7.5 0-6.8-.1-6.9-2.1-5.8l-2.1 1.1 1.8-3.4c2.2-3.8 4.3-5.7 6.4-5.8.9 0 4.4-2.7 7.8-6 3.5-3.3 6.7-6 7.2-6s1.2-.9 1.5-2 1.5-2.5 2.6-3c2-1.1 2.6-5.4.9-6.5-1.5-.9-1.2-2.5.5-2.5.8 0 1.9.9 2.5 2 .9 1.7 1.4 1.8 3 .7 1.4-.8 2-2.3 2-4.9 0-2.1-.4-3.8-1-3.8-.5 0-1 .4-1 1 0 .5-1.7 1.7-3.7 2.7-7.4 3.4-15.8 10.6-18.6 15.8l-1.6 3 .5-4.5c.3-2.5 1.3-5 2.2-5.7 4.2-3.1 4.7-3.8 3-4.1-1-.2-1.4-1-1.1-2.3.6-2.1 2.9-2.6 3.5-.7.3.7 1.2.9 2.2.5 1.1-.4 1.6-1.3 1.2-2.2-.3-.9 0-1.5.9-1.5.8 0 1.5-.3 1.5-.8 0-.4 1.3-.7 2.9-.8 4.3-.2 6.1-1.1 6.1-3.4 0-2.4.9-2.5 5.5-.6 3.7 1.6 4.5 1.3 4.5-1.6 0-1.1.7-2.6 1.5-3.4.8-.9 1.5-3.2 1.5-5.2s.5-4.4 1-5.2c.6-1 .8.6.6 5-.2 3.6-.2 5.9.1 5.2.3-.6 1.2-1.2 2-1.2 1 0 1.4-.6 1-1.9-.2-1-.1-2.5.4-3.2.5-.9 1-.5 1.4 1.3 1.1 4.2 3.5 2.4 3.6-2.6 0-3.9.1-4 1.2-1.6.7 1.4 2.1 3.2 3.2 4.2 1.7 1.4 2.1 1.4 2.8.2 1.3-2.2 2.4-.8 2.5 3.2.2 4.9 1.7 6.4 3.7 3.8 2.1-2.8 1.9-4.7-.5-3.9-1.4.5-2 .2-2-.9 0-1 .9-1.6 2.1-1.6 1.8 0 2-.4 1.5-2.8l-.6-2.7 1.6 2.2 1.6 2.3 1.9-2.3c1-1.3 2.1-3.6 2.5-5.2l.7-2.9.9 2.5c.5 1.3 1 3.9 1 5.6 0 1.8.4 3.1.8 2.8.9-.6 1.6-4.1 3-15 .5-4.4 2-11.2 3.1-15.2 1.5-4.8 1.9-8.1 1.4-10l-.8-2.8-.7 2.5c-.5 1.4-.9 2.2-1 1.7-.2-.7-.6-2.2-.9-3.2 0-.4-.9-.2-1.8.4-1 .5-2.6.5-4 0-1.3-.5-2.3-.5-2.3 0 0 .8-.4.9-6.8 1.5-2.3.2-4.8.8-5.5 1.3-3.1 2.2-10.7-.4-10.7-3.8 0-1.4 12.2-1.5 12.7-.2.6 1.5 6.3 1.8 6.3.4 0-.5 1.5-1.2 3.3-1.5 3.9-.8 6.8-3.1 8.4-6.9.7-1.5 1.7-2.7 2.3-2.7.5 0 1-1.2 1.1-2.8 0-1.5.3-2.1.6-1.5.2.7.9 1.3 1.4 1.3.6 0 .8-.4.4-.9-.3-.5-.1-1.2.5-1.6.5-.3 1-2.3 1-4.3-.1-3-.2-3.4-1.1-1.9-1 1.6-1.2 1.6-3.8.1-2.1-1.3-2.6-2.2-2.3-4.3.6-4.1 2.8-3.5 2.4.6-.2 1.8 0 3.3.6 3.3 1.3 0 2.5-6.6 1.6-9.3-.7-2.1-.7-2.1-1.5-.2-.6 1.6-.8 1.3-.9-1.5-.4-7.7-3.1-11.2-3.5-4.6-.1 1.9-.9 4.5-1.7 5.8s-1.8 3.6-2.2 5.3c-.7 2.6-.9 2.7-1.7 1.2-.6-.9-.7-2.3-.3-2.9.4-.7 1.1-2.8 1.4-4.8.3-1.9 1.1-3.4 1.7-3.3s.8-.9.5-2.2c-.2-1.4-.8-2.5-1.2-2.5-1.1 0-2.1 3-1.4 4.1.3.5-.2.9-1 .9-.9 0-1.6.8-1.7 1.7-.2 5.6-1 9.8-1.9 10.7-.7.7-1 .3-1-1.2 0-1.2-.4-2.2-1-2.2-.5 0-1 1.1-1 2.5 0 2.9-1.5 3.3-2.5.7-.6-1.6-.7-1.6-1.6.1-.8 1.4-1.4 1.6-2.5.6-.7-.6-2.1-.9-2.9-.5-1.1.4-1.5-.1-1.5-1.9 0-1.3-.5-2.7-1-3-.6-.4-.4-1.2.5-2.1.8-.9 1.3-2 1-2.5-.4-.5-.1-.9.4-.9 1.5 0 1.4-1.9-.3-3.6-1.1-1.1-1.6-1.1-1.9-.1-.3.7-.6.5-.6-.6-.1-.9-.5-1.7-1-1.7s-1.1-1-1.4-2.2c-.7-2.4-1.7-2-2.2.9-.2 1-.4 2-.5 2.3s-.5-.4-1-1.6c-.6-1.5-1.6-2-3.7-1.8-1.5.1-2.9.3-3 .4-.8.7-2.9.4-3.5-.4-.4-.6-1.2.2-1.9 1.7-.9 2-.9 4.2-.1 9.6 1.3 7.8 1.5 9.7.6 8.9-.4-.5-3.4-16.8-3.4-19.1 0-1.4-1.9-.7-2.4 1-1 3.5-1.6 9.9-.8 7.9.8-1.8.9-1.8 1.5-.2 1 2.5.9 2.6-1.3 2.6-1.1 0-2 .4-2 .9s.8.7 1.9.4c1.4-.4 2 .3 2.5 2.7.3 1.8.6 4.7.5 6.4 0 2.6-.2 2.8-.9 1.1-.5-1.1-.9-3.5-.9-5.3-.1-1.7-.6-3.2-1.2-3.2-.7 0-.9 1.2-.6 3.2 1.4 8.2 2.3 11.3 3.2 11 .6-.2 1.4 1 2 2.7.6 2 1.8 3.4 3.2 3.7 1.6.4 2.3 1.3 2.3 3.1 0 1.6.4 2.2 1.3 1.7s.9-.3-.1.7c-1.8 1.9-4.4 1.7-6.4-.5-1.7-1.8-1.8-1.4-1.8 9.2 0 6.3.4 11.3 1 11.7.6.3 1 1.6.9 2.8v2.2l-.9-2.1c-2.2-5.5-3.7-2.7-4.9 8.9-.1.5-.6.5-1.1.2-.6-.4-.9-1.4-.8-2.3.2-.9-.3-1.6-1.2-1.6-2.8.1-5 1.6-5 3.4 0 .9-1.2 3-2.6 4.6-1.5 1.5-2.2 3-1.7 3.1.6.2.8 1.4.6 2.7-.3 1.3 0 2.7.6 3 1.6 1 1.3 4.3-.6 7.4-2 3.1-3.4 4.3-4.4 3.6-.4-.2-1.2.3-1.9 1.1s-1.7 1.2-2.2.9-1.2.3-1.5 1.4c-.2 1.1-1.4 2.3-2.6 2.6-2.2.5-2.2.5-.2 2.1 1.4 1.1 1.6 1.5.5 1.4-3.4-.3-5 .2-7.2 2.4-2.9 2.8-6.2 3.3-4.8.7.5-.9.6-2 .3-2.4-.3-.3.2-1.5 1.2-2.6 1.2-1.3 2.1-1.7 2.5-1 .9 1.4 3.8.2 5.1-2.1.5-1.1 1.8-1.9 2.8-1.9 2.4 0 3.5-3.7 1.2-4.4-.9-.3.5-.4 3.1-.2 4.5.3 4.7.3 6.4-3.6 1.7-3.8 1.7-4.1 0-7.3-1-1.9-1.6-4.1-1.3-4.9.4-.9.2-1.6-.3-1.6s-1 1.2-1.2 2.7c-.2 1.8-1 2.9-2.3 3.2-1.1.2-2.4 1-2.9 1.8-.7 1.3-1 1.3-1.8.2-.7-1-.8-.8-.3.7.4 1.8 0 2.2-2.5 2.7-2.1.5-3 1.2-3 2.7 0 1.1.6 2 1.3 2s.5.5-.5 1c-1.1.7-2.6.7-4.3 0-1.4-.5-4.3-1-6.3-1-6.7 0-11.4-1.2-10.8-2.6.3-.8.1-1.4-.4-1.4s-1.1.9-1.5 2c-.3 1.1-1.8 2.9-3.2 4-1.5 1.2-2.3 2.6-1.9 3.5.8 2.1-2.8 2-4.5-.2-1.2-1.5-1.2-1.6.3-1 2.4.9 5.4-4.5 3.5-6.2-1.9-1.5-5.4.6-11.8 7.2-6.3 6.5-9.1 10.9-8.4 12.9.3.8-.1 2.1-1 2.8-1.2 1-1.5 1-1.5-.4 0-.8-1.8-2.4-4-3.5l-4.1-2 .7 2.2c.8 2.8 3.3 5.7 4.9 5.7.9 0 1 1 .2 4.2-.5 2.4-1.1 6.8-1.3 9.8s-1 8.6-1.9 12.5c-.9 3.8-1.5 10.1-1.5 14 .2 8-.4 13.5-1.8 16.1-.5 1.1-1.3 3.7-1.7 5.9s-1.2 4.3-1.7 4.6c-.6.4-.8 1.5-.3 2.5.6 1.6 1 1.2 2.1-2.1.8-2.2 2.4-5.1 3.5-6.5l2-2.5-1.6 3.7c-3.7 9.1-4.6 10.8-5.4 10.3-.5-.2-1.1 1.1-1.3 3s.1 3.7.7 3.9c.6.3.5.5-.2.5-2.4.2-1.3 2.1 1.2 2.1 2.9 0 3.2 1.2.9 3.5-1.3 1.3-1.9 1.4-2.5.4-.4-.7-.6-1.6-.3-2 .2-.4-.3-1.2-1.1-1.9-1.3-1.1-1.8-1-2.9.5-1.7 2.4-4.8 12.6-4.9 16.7-.2 2.7.2 3.4 2.1 3.6 1.2.2 2.2 1 2.2 1.7 0 1.2-.6 1.2-2.7.4-2-.7-2.8-.6-3.5.3-1.2 1.9-1 3.8.4 3.8 2.1 0-.9 2.3-3.4 2.7-1.3.2-2.4.8-2.6 1.3s-.9.7-1.7.4c-.7-.3-1.6 0-2.1.7-.4.8-.3 1 .4.5.7-.4 1.2-.2 1.2.3 0 .6-1.8 1.8-4 2.7s-3.7 2-3.4 2.5-.4.9-1.5.9c-1.2 0-2.1.4-2.1.9s-2 3-4.5 5.5c-4.3 4.5-5 6.5-.8 2.7 1.1-1.1 3.9-2.9 6.2-4 2.2-1.2 4.1-2.5 4.1-2.9s1.5-1.5 3.3-2.5 4.7-3.1 6.4-4.7c1.8-1.7 3.4-3 3.7-3s2.8-1.4 5.6-3.1c5.9-3.6 7.5-3.4 3 .5-3.6 3-3.2 5.1.5 3.4 1.4-.6 2.5-1.5 2.5-1.9 0-.5 1-1.3 2.2-2 1.9-1 2-.9 1.3.7-1.5 3.9-1.1 4.8 2.5 5 5.5.4 11.1-1.5 14.1-4.7 2.6-2.8 6.1-4.3 4-1.7-5.3 6.5-7.6 10.3-7.3 12 .1.4-1.4 1.6-3.3 2.8s-3.8 2.7-4.2 3.5c-.5.7-3.5 2.9-6.8 4.8-4.7 2.7-6.6 4.6-8.4 8.1-1.2 2.5-2.9 4.6-3.7 4.6s-2.3.9-3.3 1.9c-1.1 1.1-2.1 1.8-2.3 1.6-.7-.7-11.7 8.3-11 9 .4.5.2.5-.5.2-.6-.4-2.5.4-4.1 1.8s-3.5 2.5-4.1 2.5c-2.6 0-10.1 4.1-10.1 5.5 0 .8-.3 1.4-.7 1.3-.5-.1-2.2 1.2-4 3-1.7 1.7-2.9 3.2-2.7 3.2 1.3 0 12.4-6.3 12.4-7 0-.5 1.6-1.4 3.5-2.1s3.5-1.9 3.5-2.7c0-1.6 2.4-1.1 2.6.6.1.7.2 1.4.3 1.7.1.5 3-1.2 12.2-7.2 6.6-4.3 10.5-4.9 4.8-.7-3 2.2-4.5 2.8-5.2 2.1-.1-.1-1.3.8-2.7 2-1.3 1.3-2.8 2.3-3.2 2.3-.5 0-.6.5-.3 1 .6 1-.6 1.4-3.5 1.1-1.2-.2-1.2 0-.1.7 1.4 1 1.2 1.3-3.9 4-1.3.7-4.3 2.7-6.5 4.3-7 5.1-13.8 9.7-19.4 12.9-2.9 1.7-5.1 3.3-4.8 3.6.7.7 3.7-.7 3.7-1.7 0-.5.6-.9 1.3-.9.8 0 3.2-1.2 5.3-2.8 2.1-1.5 5.9-3.8 8.4-5.1s5.4-3.1 6.5-4c1.1-1 4.6-3.4 7.8-5.4 3.2-2.1 6-4.4 6.4-5.2.3-.8 1.3-1.5 2.2-1.5s3.2-1.4 5-3.1c1.9-1.7 5.2-4.2 7.3-5.5 2.3-1.5 3.6-2.9 3.2-3.6s-.3-.8.4-.4 1.2.2 1.2-.3c0-.6.5-1.1 1-1.1.6 0 2.2-1.1 3.6-2.5s2.2-2.5 1.8-2.5c-1 0-13.8 6.3-14.4 7.1-.3.4-2.1.9-4 1.2s-4.6.8-6 1.2c-2.4.6-2.4.6-.6-.9 1.1-.9 3-1.6 4.3-1.6 4.3 0 16.6-7.5 23.6-14.3 3.8-3.7 7.2-6.7 7.8-6.7.5 0 .9-.5.9-1 0-.7-.6-.7-2 0-1.6.8-1.8.8-1.4-.4.3-.9 1.4-1.8 2.5-2.1 1-.4 2.2-1.7 2.5-3s2-3 3.8-3.9c2.7-1.3 3.6-2.7 5.8-9.3 1.5-4.3 3.9-11 5.4-14.8 1.5-3.9 2.8-8.5 2.8-10.2.1-2.6.4-3.2 1.9-2.7 1.2.4 1.7 0 1.7-1.2 0-1 1.8-6.2 4.1-11.7 2.2-5.5 3.8-10.8 3.6-11.8-.3-1.1 0-3.4.5-5.3.8-2.5.6-6.4-.6-15.2-1.7-11.8-3.9-17.5-7.1-18.8-.8-.3-1.5-1.1-1.5-1.8s1.9.7 4.3 3c2.3 2.3 4.8 4.2 5.4 4.2.7 0 1.3 1.9 1.5 4.2.2 3 .8 4.3 1.8 4.3.8 0 1.7 1.4 2.1 3.3s1.2 3.9 1.8 4.5 1.1 1.7 1.1 2.5c0 .7-1.1.1-2.5-1.5l-2.5-2.8.2 6.9c.2 5.5.6 7 1.9 7.3 2 .6 4.2 5 2.9 5.8-.6.4-1.5.3-2.2-.1-.8-.5-.9-.2-.4 1.2.4 1 1 4.7 1.3 8.1.3 3.5.9 6.3 1.2 6.3s.7 1.4.8 3.1.8 3.7 1.4 4.5.9 1.4.5 1.4 0 1.2.8 2.7c.7 1.6 1.6 5.5 2 8.8.3 3.3 1 9.4 1.5 13.5s1 10.6 1 14.4c.1 6 .5 7.5 3.6 12.6 1.9 3.2 3.5 6 3.5 6.2 0 .3-1 .4-2.2.4-2.6-.1-3.5 2.3-3.8 10.4-.2 3-.5 4.4-.7 3.1-.3-1.7-.7-2-1.3-1.2-1 1.6-.1 5.3 1.1 4.5.5-.3 1 .2 1 1 .1.9.3 2 .4 2.6.1.5.3 1.2.4 1.5.2 1.2 4.1-1.7 4.1-3 0-.8.5-1.5 1-1.5 1.9 0 1 1.4-3.7 6.2-3.7 3.7-4.4 5.1-3.5 6 .7.7 1.2 2.8 1.1 4.7v3.6l-1.9-4c-2-4.3-2.1-4.3-2.5-.5-.1 1.4-.5 4.6-1 7.2-.6 4.1-.5 4.9 1.1 5.5 2.6 1 4.6 3.1 3.6 3.7-.5.3-1.8-.1-2.8-.9s-2.3-1.5-2.7-1.5c-.5 0-.7 3.7-.5 8.2q.3 8.25-.9 9.3c-.6.5-1.4 2.3-1.7 4-.9 5.8-1.9 10-2.6 11.5-.4.8-1.1 4.2-1.4 7.5l-.6 6 2.5-4.9c1.4-2.6 3.2-5.8 4-6.9l1.5-2.1v2.1c0 1.2-.4 2.3-.8 2.5-2.6 1-13.7 34.8-11.4 34.8.2 0-.1.7-.8 1.5-1 1.2-1 1.5.2 1.5.8 0 2.3-1.8 3.3-4s2-3.8 2.3-3.6c.2.3-.6 2.6-1.8 5.3-6.2 13.3-7.2 14.5-6.4 8.6l.5-3.8-1.6 2.9c-1.8 3.1-2 3.9-3.1 15.6-.4 4.1-1.1 8.1-1.7 8.8-1.1 1.4-2.1 57.2-1.1 60.5.3.9 1 1.5 1.5 1.2.5-.4.9.5.9 1.8 0 1.4.7 4.4 1.6 6.8.8 2.5 1.3 5.7.9 7.4-.6 3.1-3.1 7.2-4 6.4-.4-.5-1.2-3.8-1.4-6.1-.1-.4-2.2-1.7-4.7-2.8-3.8-1.8-4.8-1.9-6.2-.8-.9.7-1.3.8-.9.2.9-1.5-2.8-4.8-4.3-3.9-1.2.8-8.3 15.2-8.5 17.2 0 .7-.6 1.8-1.3 2.5-2.1 2-.5-3.4 3.6-12.5 2.1-4.6 3.1-8.1 2.6-8.6s-3.5-2.3-6.7-4c-3.2-1.8-7.9-4.5-10.5-6.1s-5.8-3.5-7.2-4.2-3.7-2-5.3-3.1c-2.2-1.5-2.9-1.6-4-.5-.6.7-1.3 2.2-1.5 3.3-.1 1.1-.3 2.8-.4 3.7s-.5 1.5-.9 1.2c-.4-.2-2 1.6-3.6 4.1-3.4 5.4-6 6.5-3.3 1.4.7-1.3.7-1.9 0-1.9-1.5 0-1.2-2 .3-2.1 1.7 0 7.7-9.7 7.7-12.4 0-1.2-.7-2.8-1.6-3.6-1.4-1.1-1.4-1.3.1-2.1.8-.5 2.3-.7 3.3-.4 1.2.4 3-1.2 6.2-5.5 8-10.8 7.6-9.6 3.6-11.3-2-.8-3.6-1.9-3.6-2.4s-1.7-2.6-3.7-4.6c-3.1-3-4.3-3.6-6.5-3.2-2.1.4-3 .1-3.8-1.4-.6-1.1-1.7-2-2.5-2-1.9 0-1.9-2.4-.1-4 1.1-.9 1.3-1.8.5-3.7-.8-2.1-.7-2.4.7-1.9.8.3 2 .6 2.5.6.6 0 .7.4.4 1-.3.5 0 1 .8 1 .9 0 1.3.8 1 2.3-.4 1.9.7 3.1 5.8 6.7 3.5 2.5 7.8 5.9 9.6 7.6l3.2 3.1 1.9-2.1c1-1.2 3.4-4.6 5.2-7.6 1.9-3 5.7-8.2 8.5-11.5s6.1-7.4 7.3-9.2c2.2-3 2.2-3.1.2-2.6-1.1.3-5.9 4.8-10.7 9.9-4.7 5.2-9.6 9.7-10.9 10-1.9.5-3.3-.3-6.7-3.8-2.3-2.4-4.8-4.3-5.5-4-.7.2-1.2-.1-1.2-.7s-.6-1.1-1.2-1.1c-.7 0-2.9-2.3-4.8-5s-4.2-5-5.1-5c-2.7 0-9.3 8.1-9.4 11.5 0 2.5-.7 3.3-3.9 4.8-2.1 1-4 1.6-4.3 1.4-.2-.3 1.2-2 3.1-3.9 2-1.9 4.1-4.9 4.7-6.7.6-1.7 2-3.6 3-4.2 1-.5 2.6-2.3 3.4-3.9 1.5-2.9 1.4-3.2-1.2-6.5-1.5-1.9-3.4-3.5-4-3.5-.7 0-1.3-.7-1.3-1.5s-.5-1.5-1.1-1.5c-.5 0-.8-.4-.5-.9.3-.4-1-2.1-2.9-3.6-1.8-1.6-3.1-3.3-2.8-3.8 1.2-1.9-9.6 4.6-12.3 7.4-2.6 2.7-2.6 2.9-.7 2.9 1.1 0 2.6-.7 3.3-1.5s1.8-1.5 2.4-1.5-.1 1.2-1.6 2.5c-3.3 2.9-3.4 3.5-.8 5.8 2.4 2 2.6 6.5.4 7.4-.8.3-2.6 0-4-.7-1.3-.8-2.7-1-3-.7-.4.4-1.2 0-1.8-.9-1-1.3-1.5-1.2-3.9 1-2 1.9-3.6 2.5-6 2.3-1.8-.2-3.1-.8-2.9-1.5.1-.7-.3-1.2-.8-1.2-1.4 0-13 7.3-13 8.2 0 1.3 6.1 9.8 7.1 9.8.6 0 .8.4.4.9-.3.5.2 1.7 1.1 2.6s1.3 1.9.9 2.3-1 .1-1.2-.6c-.3-.6-1.1-1.2-1.8-1.2-.8 0-1.9-1.6-2.6-3.5s-1.9-3.5-2.6-3.5-1.7-.9-2.3-2c-1.6-3-3.2-2.5-10.7 3.2-7 5.3-14.1 9-15.5 8.2-1.2-.8.1-2.4 1.8-2.4 1.6 0 1.9-1.6.4-2.5-.5-.3-1-1-1-1.5 0-1.2 10-7.4 10.7-6.6.4.3.1.6-.5.6-.7 0-1.2.7-1.2 1.5 0 2.3 3.1 1.8 7.3-1 3.6-2.5 4.8-4.5 2.6-4.5-.7 0-.9-.9-.5-2.4q.6-2.4-.9-3c-.8-.3-1.5-1.2-1.5-2.1 0-1.9-3.1-5.5-4.7-5.5s-1.6-.5-.3-3.1c.6-1 1.6-1.9 2.4-1.9 1.5 0 12.4-5.7 14.8-7.8 1.7-1.4 1.7-1.6 0-4.4-1.8-3-2.3-3.1-8.9-1.2-3.6 1-2.7-1.4 1.1-3 1.8-.8 3.6-1.9 4-2.4 1.1-1.7-6.7-15.6-8.9-16-1.1-.2-2.7-.6-3.5-1-1.6-.6-2.8-.9-4.8-1.1-.8-.1-.3-1.4 1.5-3.8 2.5-3.3 2.6-3.5.6-2.5-1.2.7-2.4 1.6-2.8 2.1-1.3 2.2-6.9 4.1-10.2 3.5-1.8-.3-3.3-1-3.3-1.5s1.6-2.7 3.6-4.9 3.5-4.3 3.2-4.5c-.3-.3-2.9 1.2-5.9 3.4-3 2.1-6.5 4.4-7.8 5.1-2.1 1.1-2.3 1-1.8-.4.4-1 .1-1.6-.8-1.6-.8 0-1.5-.6-1.6-1.3 0-.6-.2-2-.4-2.9-.2-1 .8-2.7 2.2-3.8 3.9-3.1 10.4-10.8 9.5-11.4-.4-.2-5 1.3-10.1 3.5-5.2 2.1-9.8 3.9-10.2 3.9s-2-1.1-3.4-2.4c-2.2-2-2.4-2.7-1.5-4.3.7-1 2.2-2.3 3.3-2.9 9-4.5 18.7-10.1 21-12.2 2.9-2.7 3.5-5.1 1.5-5.4-.7 0-1.7-.2-2.3-.3-.5-.2-1.4-.3-2-.4-1.1-.2 5.1-3.1 7.3-3.5.7-.1 1.8-.8 2.4-1.4.7-.7 2.2-1.2 3.5-1.2 1.7 0 2.1-.4 1.6-1.7-.5-1.2-.2-1.5 1-1 1.6.6 3-.6 3.3-2.8.1-.6-3.4-1.1-8.5-1.1-10.8-.2-21-1.4-21.7-2.5-.3-.5.2-.9 1-.9.9 0 1.6-.5 1.6-1 0-.6-.4-1-.9-1s-.7-.9-.4-1.9c.7-2.6 5.2-4.1 12-4.1 5.3 0 5.4 0 5.1-2.8-.5-4.2-7.8-7.5-16.7-7.3-6.6.1-6.9 0-8-2.7-1.1-2.6-1.9-3-8.9-4-8.6-1.3-19.2-1.8-32.9-1.4-9.2.2-9.3.2-9.9 2.9-1.2 5.7-1.6 6.3-3.4 6.3-2.6 0-3.2-1.4-1.6-3.5 1-1.3 1-2.4.2-4.2-1-2.1-1.5-2.3-5.6-1.8-2.5.3-8.9 1-14.2 1.5-5.4.4-10.1 1.1-10.6 1.4-1.4.8-.1 6.8 2.1 9.8 1.7 2.3 1.8 3 .7 4.3-1.2 1.5-1.6 1.4-3.7-1-1.3-1.4-2.2-2.9-1.9-3.3 2.2-3.6-7.6-4.7-10.4-1.2-1 1.2-3.7 2.3-7.5 3-15.6 2.7-17.3 3.1-17.9 4.6-.3.8 0 1.4.7 1.4.7.1.2.9-1 1.9s-1.9 2.1-1.6 2.5c1 .9 12.1.7 12.7-.3.7-1 10.5-3.7 16.6-4.5 4-.5 4.3-.4 2.7.8-2 1.5-17.3 5.3-25.5 6.3-3.5.4-5.6 1.2-6.2 2.3-.5 1-.6 2-.3 2.4.3.3.1.6-.5.6-.7 0-1.2-.5-1.2-1 0-.7-.6-.7-1.7-.2-3.5 1.8-12.1 2.2-13.3.6-1-1.1-1-1.7-.1-2.8.7-.8 1.4-2.7 1.7-4.2.3-1.6.9-3.3 1.3-3.9 2.1-2.5 5.6-24.2 4.4-27.1-.3-.8-1.2-1.4-2-1.4-1.1 0-1.4-.8-1.1-2.9.3-2.3-.1-3.2-1.9-4.2-2.5-1.3-3.1-4.4-1-5.1.6-.3 4.8.1 9.2.8 5 .7 6.6 1.2 4.4 1.3-4.6.1-7 2.6-4.4 4.5 1.3.9 6.6 1.2 22.2.9 15.2-.2 20.2 0 19.7.9-1.1 1.7 9 .3 13.4-1.9 2.9-1.4 3.8-2.5 4-4.8.3-2.9.1-3-3.3-2.9-1.9.1-4.6-.3-6-1-2.6-1.2-3.4-2.8-1.2-2.5 1.8.2 5.7-1.2 5.7-2.1 0-.5.3-1.6.7-2.5.5-1.5.1-1.6-3.8-1-2.4.4-4.6 1.2-4.8 1.7s-1 0-1.8-1.1c-2-3-.9-4.1 4.2-4.1 5.5 0 7.5-.8 6.8-2.6-.4-1 .4-1.4 3.1-1.4 2 0 3.6-.5 3.6-1 0-.9-7.4-1.6-14.5-1.3-1.6.1-3.3-.3-3.6-.9-1-1.6-12.9-1.1-14.9.7-2.1 1.9-5 2-5 .1 0-.8-.7-1.7-1.6-2-2.4-.9-9.2-.7-9.8.3-1.1 1.7-7.2 2.1-12 .6-2.7-.8-6.4-1.5-8.3-1.5-1.8 0-3.3-.5-3.3-1 0-.6 4-1 10-1 6.5 0 10-.4 10-1.1 0-.6-1.5-1-3.2-.9-1.8.1-4.4.2-5.8.1-2-.1-2.2-.3-1-1.2 1.1-.8.7-.9-1.8-.4-3.8.8-11.2-.3-11.2-1.6 0-.5.7-.9 1.6-.9 1 0 1.4-.6 1-1.5-.3-.8-.1-1.5.4-1.5.6 0 1-.9 1-1.9 0-1.2.9-2.1 2.5-2.5 3.3-.9 3.2-2.2-.5-3.4-2.1-.8-2.8-1.6-2.4-2.6.9-2.3 4.2-3.1 12.2-2.7 7.1.3 7.3.2 6.3-1.7-1.6-2.9-3.1-3.2-10.1-1.6-3.4.8-6.4 1.4-6.5 1.2-.2-.2-1.5-2.3-2.9-4.8s-2.6-3.8-2.7-3c-.1 2.9-1.8-2.4-1.8-6.1-.1-2.5.7-4.5 2.4-6.5 2.9-3.4 3.1-4.2 1-5-2-.8-1.9-3 .1-3.8.9-.3 3-.7 4.7-.7 1.8-.1 2.4-.3 1.5-.6-1-.2-1.8-.8-1.8-1.3s-1-1.1-2.2-1.4c-2.9-.6 7.2.1 13.4 1 2.9.4 4.8 1.2 5.2 2.3.3.9.9 2.3 1.2 3.1.4 1.2.3 1.2-.4.2-.7-1.1-1-1.1-1.5.2q-.6 1.5 1.5 2.1c2.4.8 5-1.2 3-2.4-1-.6-1-1.4-.3-3.4 1.2-3.2 1.7-3.3 3.9-1 2.2 2.1 2.6 12.3.6 12.3-1.9 0-1.8 1.7.2 2.4 1.1.4 1.3 1 .7 1.9-2.4 3-2.2 5.7.5 7.2l2.7 1.5-2.7-.6c-1.5-.3-3.5-.1-4.5.5-1.6.9-1.5 1 1 1.1 1.7 0 2.7.5 2.7 1.4 0 3.4 6.5 6.3 18 8.1 5.8.9 15 5.8 15 7.9 0 .4 1.8 2.6 4 4.8 2.2 2.3 4 5 4 6s.6 1.8 1.3 1.8 4.2 2.5 7.9 5.5c3.6 3 7 5.5 7.5 5.5.4 0 2.1 2.6 3.8 5.8 1.6 3.1 3.2 5.9 3.6 6.2.3.3.9 2.2 1.2 4.3.7 4.6-1.2 9.4-4.3 11-5 2.6-1.9 3.2 16.3 3.2 10 0 20.2-.3 22.7-.7s7.1-.7 10.3-.7c3.3-.1 5.6-.5 5.2-1-.3-.6 1.4-1.3 3.9-1.6 4.1-.7 4.4-.9 5-4.3.3-2.1.6-5.6.6-7.8 0-4.4 2.5-6.8 4.2-4.2.6 1 1 .7 1.4-.9.4-1.3 1.1-2 2-1.6 1 .4 1.4 2.3 1.4 6.3 0 5.3.2 5.8 2.5 6.4 2.8.7 3.4 2.5.9 2.2-.9 0-1.9.4-2.1.9-.5 1.6 5.3 1.7 9 .1 2.3-.9 5.6-1.2 10.5-.8 6.2.4 7.2.2 7.2-1.2 0-.9.3-1.6.8-1.6 5.6-.3 15.9-1.2 16.7-1.5.6-.1 1.1-1.8 1-3.6 0-3.2-.2-3.4-3.8-3.7-4.3-.4-4-2.2.4-2.2 1.9 0 2.9-.5 2.9-1.5 0-.8-.5-1.5-1.1-1.5s-.8-1.1-.4-2.9c.6-2.7.3-3-3.7-4.5-2.4-.8-7.7-2-11.8-2.5-4.1-.6-7.6-1.5-7.8-2.1-.4-1.2-3.2-1.4-3.2-.1 0 .5-.9.7-2 .4s-2-1.2-2-1.9c0-.8-.9-1.4-2-1.4s-2 .4-2 .9c0 .8-3.2 2.4-5.2 2.6-.3 0-1 .3-1.4.8-1.4 1.4-2.5.7-2.2-1.6.2-1.6 1.2-2.4 3.8-2.8 3.5-.6 3.4-.6-1-.9-5.1-.2-6.5-.4-13.3-1.8-10.5-2.1-4.8-2.8 12.1-1.3 7 .5 8.8.4 11-1.1 1.4-.9 2.9-1.5 3.4-1.2.4.3.8-.8.8-2.4 0-2.7-.4-3.1-4.4-4.1-6.3-1.5-6.3-1.5-7 2.8-.8 5.4-2.7 6.4-2.3 1.3.2-2.1.7-4.4 1.1-5.1.5-.7-.4-1.1-2.6-1.1-3.9 0-8-2.5-6.1-3.7.6-.5 1.5-2.2 1.8-3.8.4-1.7 1.4-4 2.2-5.3 1.3-2.1 1.2-2.3-1.2-3.2-1.5-.6-3.9-1-5.5-1-2.6 0-13-4.5-13-5.6 0-.2 1.8-.1 4 .2 3.8.6 4 .5 5.7-3.2 1-2.2 2.2-4.2 2.7-4.5.5-.4.6-1.1.3-1.6-.7-1.1 1.4-6.3 2.5-6.3.8 0 .1 9.7-.7 11-.9 1.5.8 7 2.1 7 .8 0 1.1-.6.8-1.4-.5-1.2 0-1.3 2.3-.7 1.5.5 2.7 1.4 2.5 2.1-.4 1.8 1.7 3 5.6 3 2.2 0 3.2-.5 3.2-1.5 0-.8.4-1.5.9-1.5.6 0 1.1-2.1 1.3-4.8.3-4.2.6-4.7 2.6-4.6 1.5 0 2.1-.4 1.8-1.3-.3-.8.1-1.6.9-1.9.8-.4 1.5-1.5 1.5-2.5s.9-3.4 2-5.4 2-4.2 2-4.9c0-2-18-8.3-20-7.1-1.1.7-2.9 4.5-3.5 7.5-.2.8-1 2.8-1.8 4.4l-1.6 2.9-.6-3.6c-.5-2.8-.2-4.4 1.4-7 2.7-4.5 2.7-6.5-.3-7.3-1.4-.3-2.7-1.3-3-2.1-.5-1.3 0-1.4 2.8-.9 3.8.7 4.8-.3 9.6-9.9 1.4-2.8 2.9-5.3 3.4-5.6.5-.4.6-1.6.3-2.8s0-2.1.6-2.1c.7 0 2.1-1.4 3.2-3s2.3-3 2.6-3c1.3 0 1.8 3 .9 5.9-.8 2.7-.5 3.2 2.5 4.9 1.8 1.1 4.3 2.3 5.6 2.7s3.8 1.6 5.5 2.6c1.7 1.1 3.5 1.9 4 1.9 1.1 0 3.4-4.8 3.4-7 0-.8.8-2 1.8-2.6.9-.6 2.7-3.2 4-5.8 1.7-3.3 2.9-4.6 4.4-4.6 2 0 2.1-.1.3-2-2-2.2-2-2.2 1.3-3.9 1.2-.6 2.2-2 2.2-3s.7-2.4 1.5-3.1c1.3-1 1.9-.9 3.8.6 1.9 1.6 1.9 1.5-.3-1.1-1.4-1.7-3.8-4.2-5.4-5.6l-3-2.6 4.7-4.7c2.6-2.5 4.7-5 4.7-5.5s-1.9-2.4-4.2-4.4c-2.4-1.9-5.4-4.5-6.8-5.7s-3.4-3-4.5-3.9c-2.9-2.4-4.9-5.1-3.7-5.1.5 0 4.9 3.7 9.7 8.2 4.8 4.6 9.2 8.5 9.7 8.7.6.2 4.1-2.9 7.7-6.8 3.7-3.9 7.3-7.1 7.9-7.1.7 0 1.2-.4 1.2-.8 0-.5 1.8-2.1 4-3.8 2.2-1.6 4.2-3.7 4.6-4.7.3-.9 1-1.7 1.6-1.7.9 0 7.3-5 13.4-10.5 1.2-1.1 4.5-3.8 7.3-6s5.1-4.5 5.1-5c0-.6-1.1-3-2.5-5.4-2.6-4.4-3.3-7.7-1.5-6.6.6.4 1.7 2.3 2.6 4.3 2.1 5.1 4.1 7.1 6.5 6.5 1.2-.3 5.5-2.3 9.7-4.4 4.2-2.2 8-3.9 8.6-3.9.5 0 1.7-.6 2.5-1.3.9-.8 3.2-2 5.1-2.7s4.2-1.9 5-2.6c2.1-1.7 28-11.4 30.6-11.4 3.2 0 4.8 2.4 3.4 4.9-.6 1.2-1.4 2-1.8 1.9s-2.1.2-3.9.6q-3.15.75-2.7 2.1c.8 2.1-1.3 5.2-4.1 5.9-1.4.4-2.5 1.1-2.5 1.6 0 .6-.9 1-2 1-1.3 0-2 .7-2 1.8 0 1 .9 2.4 2 3.2 1.2.8 2 2.6 2 4.2 0 2.1-.5 2.8-2 2.8-1.6 0-2-.7-2-3.4 0-2.4-.8-4.2-3.1-6.4-1.7-1.7-2.8-3.5-2.5-4.1.4-.7.1-.8-.8-.5-1.9.7-1.9 1-.6 3.3.8 1.6.3 2-3.6 3.1-2.5.7-4.8 1.9-5.1 2.7-.3.7-1.4 1.3-2.4 1.3-1.1 0-3.8.9-5.9 2-2.2 1.1-4 1.8-4 1.5 0-.2-2.5 1.1-5.5 3.1-3.1 1.9-6 3.2-6.5 2.9-1.1-.7-1.3.6-.4 2.9.5 1.4.9 1.4 3.8-.1 1.7-1 3.9-2.4 4.9-3.2 2.4-2 6.7.2 5.9 3.1-.3 1.3.1 2.1 1.6 2.5 2.2.5 3.6 2.9 2.6 4.4-.3.5-1.6.9-3 .9-1.7 0-2.4-.5-2.4-2 0-1.1-.6-2-1.3-2s-2.3.9-3.5 2-2.6 2-3.2 2c-1.3 0-1.3.1 1 5.6 1.1 2.6 1.8 4.9 1.6 5.2-.3.3-1-.6-1.5-1.9-1.2-3-6.1-8.6-6.1-7.1 0 .7-.7 1.2-1.5 1.2s-1.5.9-1.5 1.9c0 1.1-.5 2.3-1 2.6-.6.4-.8 1.1-.5 1.6 1 1.4-.5 3.1-1.8 2.1-2.3-1.8-4.6-2.2-4.1-.7.5 1.3-2.8 3.9-3.8 3-.3-.3-2.4 1.3-4.8 3.5-2.3 2.2-4.6 3.8-5 3.5-.3-.2-1.8.7-3.3 2.1-1.4 1.3-3.1 2.4-3.8 2.4-1.4 0-7.2 3.2-8.1 4.5-.4.5-1.3 1.8-2 2.9-.7 1-1.9 2.5-2.6 3.2-1.5 1.5 0 5.4 2 5.4.6 0 .9.3.6.6-.4.3-1.6.1-2.7-.6-1.6-.8-3-.8-5.6.1-1.9.7-3.1 1.7-2.8 2.1.3.5 1.2.7 2.1.3.9-.3 1.3-.3.9.1s-.2 1.3.4 2.1c.9 1.1.5 1.2-2.2.6l-3.4-.6 2 2.4c1.1 1.3 2.4 2.7 2.9 3 .5.4.7 1.2.4 1.9-.2.8-1.7-.1-3.8-2.4-3.6-3.8-5.3-4.6-4.3-2 .4 1-.6 2.5-2.7 4.3-2.9 2.4-3.1 3-2.1 4.9.6 1.2 1.8 2.2 2.5 2.2.8 0 1.9.7 2.6 1.5.9 1.1 1 1.5.1 1.5-.8 0-.4 1.1.8 2.9l2.1 2.9-2.2.5c-2.3.7-4.8-.3-4.5-1.7.1-.5-1.1-1.8-2.6-3-2.3-1.7-3.1-1.8-4.7-.8-1.1.7-3.1 1.2-4.5 1.2-1.8 0-2.8.7-3.5 2.6-.6 1.4-.8 2.9-.5 3.4s.1 1.1-.5 1.5c-.5.3-1.5 1.5-2.1 2.7-.8 1.5-.8 1.9.1 1.3.8-.5.9-.2.1 1.1-.5 1.1-1.2 2.7-1.5 3.7s-1 1.5-1.6 1.2c-.5-.3-1-.4-1-.1s4.3 2.6 9.6 5.1c7.3 3.5 9.4 4.9 9 6.1-.3.9-.6 1.8-.6 2 0 .3-.5.2-1.2-.2-.8-.5-.9 0-.5 1.7.4 1.3.7 3 .7 3.6 0 .7.3 1.2.8 1 .4-.1 1.8.9 3.1 2.2 1.7 1.7 2.5 2 3.1 1.1.4-.7 1.7-1 2.9-.7s1.9.1 1.5-.4c-1.3-2.1 1.2-.6 3.8 2.3 2 2.2 3.1 2.9 3.6 2.1s1.3-.9 2.2-.3c1.2.7 1.1 1.2-.4 2.9-1.9 2.1-1.8 2.1 1.7 3.6 4.8 2 5.6 1.9 5-.5-.7-2.7 1.3-2.5 4.2.4 2.2 2.2 2.6 2.3 3.4.9.6-1.2.1-2.3-1.8-4-2.8-2.7-2.5-2.7 4.7-.4 1.9.6 3 .6 2.7 0-.4-.5-.2-.9.4-.9.5 0 1.3.5 1.6 1 .4.6 1.1.7 1.7.4.6-.4 1.4-.1 1.8.6 1 1.6 3.8.6 4.7-1.6.6-1.6-4.8-7.4-7-7.4-.7 0-2.4-1.1-3.8-2.4s-4-3.1-5.8-4c-1.7-.9-6.3-3.7-10.1-6.1-6.6-4.4-10-5.5-10-3.5 0 .5-1.4 1.7-3.1 2.6-2.3 1.1-2.9 1.2-2.3.2.5-.7 1-1.8 1.1-2.3.1-.6.6-2.6 1.1-4.5.6-2.5 1.3-3.4 2.5-3.2 2.5.4 2.1-1.5-.5-2.4-1.2-.3-3.1-1.6-4.2-2.7-2.4-2.2-2.5-2.2 5.2.2 2.8.8 3.3.8 2.8-.4-.3-.8-.9-2.2-1.2-3-.4-1 0-1.5 1.4-1.5 2.4 0 3.7-1.6 2.2-2.5-.5-.3-1-1.1-1-1.8 0-.8.3-.8 1.2.1 2.3 2.3 5.5 1.3 8.4-2.6 1.6-2 4-4.8 5.4-6.2s4.3-4.6 6.6-7c4.7-5.2 8-7.4 8.9-6 .3.5 1.3.6 2.2.3 2.3-.9-1 2.5-5.3 5.5-5.2 3.6-18.4 17.3-18.4 19.1 0 .6-1 1.7-2.2 2.6l-2.3 1.6 5 4.5c2.8 2.5 7.5 6.1 10.5 8.2 3 2 5.7 3.9 6 4.3 2.4 3 9 3.3 9 .4 0-.7.5-1.5 1-1.7.6-.2 0-1.4-1.2-2.8-5-5.5-5.2-6.4-.8-3.2 3.6 2.7 4.6 3 4.8 1.7.3-1.1 1-1.4 2.4-.9 1.7.5 2 .3 1.6-1.3-.3-1.3.2-2.4 1.3-3.2 1.1-.6 1.8-1.7 1.6-2.4-.1-.6.4-1.1 1.1-1 1.4.3 1.6-3.3.2-4.2-1.8-1.1-1.1-2.3 1-1.8q2.7.75 2.1-3c0-.4.4-.7.9-.7.6 0 1 .4 1 1 0 1.7 1.7 1.1 2.2-.8.6-2.1-2.1-11.2-3.3-11.2-.4 0-.5-.9-.2-2.1.7-2.6-2.8-9.8-6.2-12.7-2.9-2.6-5.8-2.2-8.9 1-3.4 3.6-2.9 1 .7-3.4 1.9-2.4 3.6-4.8 3.7-5.3.7-3 1.5-3.5 4.7-3.3 2.7.2 4-.3 5.4-2.1 1.1-1.3 2.5-2.1 3.4-1.8.8.4 1.7.2 2-.3.8-1.3 3.5-1.3 3.5 0 0 .6-1.1 1.5-2.5 2-2.5.9-2.6 4-.1 4 .6 0 2 1.6 3.1 3.6s2.1 3.1 2.3 2.6c.2-.6.9-.9 1.6-.6.8.3 2.4-.9 3.8-2.6 1.3-1.6 3.5-3.2 4.8-3.5 1.4-.2 3.2-1.3 4.1-2.4 2.4-2.9 12.5-8.1 15.7-8.1 1.6 0 3.3-.5 3.9-1.1.8-.8 1.7-.7 3.4.1 2 1.1 2.5 1 4.1-1 1.2-1.5 1.6-3 1.2-4.4-.5-1.6-.1-1.4 1.9.9 1.9 2.2 2.9 2.7 3.5 1.8.4-.7 1.8-1.4 3-1.6 2.8-.4 5.4-2.7 3.2-2.7-.8-.1 1-1.3 4-2.8 6.9-3.4 7.2-5.6 1-6-5-.3-15.6 3.7-16.6 6.2-.5 1.2-1.1 1.3-3.1.3-2.1-1-2.7-.8-4 .8-.7 1.1-1.2 2.8-.9 3.7.5 2-1 2.5-1.6.6-.3-.7-2-1.3-3.9-1.3-2.8 0-3.5-.4-3.7-2.3-.3-2 0-2.2 2.2-1.6 2.2.5 2.6.3 2.6-1.6s.1-2 1.6-.6c1.9 2 1.9 2 3.8 0 .9-.8 1.6-2.9 1.6-4.7v-3.1l2 2.2c1.2 1.2 2.6 2.2 3.3 2.3 7.5.7 23.7-7 23.7-11.2 0-2.4 2.8 1.4 3.8 5.1.6 2.6 1.3 3.4 2.7 3.2 6.8-1.3 10.1-9.6 9-22.5-.6-6.9-1-7.9-3-8.7-3.5-1.3-6.4-.8-7.1 1.2-.5 1.8-2.9 2.3-9.1 1.9-1.9-.2-3.5.3-4 1.2-.4.8-3.2 1.8-6 2.2-5.2.7-5.3.6-5.3-1.9v-3.4c0-.4.3-.7.8-.7 2-.1 3.2-2 3.2-5.2 0-3 .2-3.4 1.4-2.3.8.6 2 2.7 2.6 4.5.9 2.8 1.6 3.3 3.8 3.2 4.2-.3 5.6-3 4.3-8.2-.6-2.4-1.1-5.6-1-7.2.1-3.2.5-2.4 1.4 2.9.9 5.5 3.5 4 3.6-2.1l.1-4.6 1.3 4.8c1.4 5.2 2 6.2 3.8 6.2 1.6 0 5.7-4 5.7-5.5 0-2-4.2-10-5-9.5-3.3 2-5.3-16.9-2.6-24.5 1-2.9 1.6-7.9 1.6-14 0-10 .7-14.3 2-13.5.5.3 1.1-1.3 1.5-3.5s1.1-4.2 1.6-4.6c.5-.3.9-1.2.9-2 0-2.3 5.1-7.4 7.4-7.4 1.9 0 2.1.6 2.1 5.9 0 3.3-.3 6.3-.7 6.7-.5.4-.8-1.1-.8-3.4 0-6.1-1.6-5.1-3.3 2-.9 3.8-1.6 5.2-1.6 3.5-.1-4.2-3.1-3.6-3.1.7 0 1.8-.7 3.9-1.5 4.6-1 .8-1.5 3-1.5 6.4 0 3.6.3 4.7 1 3.6.5-.8.7-2.2.4-3.1-.3-1.2.2-1.7 2.1-1.7 2 0 2.5.6 2.6 2.7 0 1.5.3 2 .6 1.1.3-.8 1-2.6 1.6-4 .5-1.4 1.1-3.3 1.2-4.2.3-3.1 1.5-3.3 1.5-.3 0 3.1 1.5 2.5 2.3-1 .4-1.8.5-1.8.6.2.2 3.7 2 2.6 2.3-1.5l.4-3.7 1.3 3c1.3 3 1.3 3 2.4.7.6-1.2 2.1-2.5 3.3-2.8 1.9-.5 2.2-.9 1.4-2.4-1.3-2.5-1.3-5.1 0-3 .7 1.2 1.1.8 1.6-1.8.4-1.8 1.1-3.5 1.5-3.8 1.2-.7 1.2-5.1 0-5.8-1.3-.8-.8-4.9.7-5.4.8-.2 1.2 1 1.2 4.3 0 6.3 2.4 5.6 2.8-.8.2-3.3.7-4.7 1.8-4.7.9 0 1.4 1.1 1.4 3 0 1.6.4 3 1 3 .5 0 .9-.8.8-1.8-.3-4 .3-6.2 1.7-6.2.8 0 1.5.7 1.5 1.5 0 1.8 1.6 2 2.6.4.5-.8 1-.6 1.6.5.8 1.4 1.3 1.5 2.4.5 1-.8 1.4-.8 1.4-.1 0 .6.7.9 1.5.6 1.6-.7 6.2 1.9 8.1 4.4.6.9 1.8 1.3 2.8.9.9-.4 1.6-.3 1.6.1s1.4 2.1 3 3.9c1.7 1.8 3 3.9 3 4.8s.5 2.6 1.2 3.8 1.3 2.6 1.4 3.2c1.8 7.8 2.4 13.4 2.4 21.6 0 10.3.5 13.3 2.3 12.2.6-.4.8 0 .4 1-.3 1-.2 1.7.3 1.7.6 0 1 1.4 1 3.2 0 1.7.8 4 1.8 5.1 1.4 1.7 1.4 1.9.1 1.5-1.2-.5-2.2 1.1-4.3 6.8-1.5 4.1-3.1 7.2-3.6 6.9-1.3-.8-2.7 2.3-3.5 7.9-.9 5.6.8 5.8 2.4.3.8-2.9.9-2.9 1-.7.2 3.8 1.5 5.2 4.4 4.6 1.6-.3 2.7.1 3.1 1 .3.8 1.9 1.4 3.7 1.4s4.7.5 6.6 1.2c2.9 1.1 3.5 1 4.8-.8 1.4-1.9 1.4-1.9 1.5.3 0 2.9.7 3.2 7.3 3.4 4.7.2 5.9.6 7.2 2.5.8 1.3 2.1 2.1 2.8 1.8.8-.3 1.9.2 2.6 1s1.9 1.2 2.6.9c1.7-.6 7.5 1.8 7.5 3.1 0 .5.9.1 2-.9 1.9-1.8 2-1.7 2 .5 0 1.3.3 2.1.6 1.8 1.5-1.5 20.4 6.4 20.4 8.5.1 1.7 4-3.2 4-4.9 0-.8-.8-1.7-1.7-2.1-4.6-1.5-15-6.8-17-8.6-1.9-1.6-2.5-1.8-3.8-.7-2.1 1.8-2-1.1.2-5.3 1.6-3 1.8-3 2.1-1 .2 1.5 1 2.3 2.3 2.3 1.9 0 17.1 7.1 19.5 9.1.9.7 2 .2 3.8-1.8 1.4-1.5 2.6-2.2 2.6-1.6 0 .7-.5 1.5-1 1.8-1.8 1.1-1.1 4.5.9 4.5 1.8 0 6.7-6.5 10.4-13.7 2.3-4.4 2.2-4.9-1.5-6.3-3.1-1-3.2-1.2-1.4-2.2 1.5-.8 2.1-.8 2.4 0 .5 1.7 4.2 1.5 6.2-.3 1.6-1.4 1.7-1.4 1.3.7-.3 1.7.3 2.7 2.6 4.1 1.7 1 3.1 2.4 3.1 3.1s2.8 2.6 6.2 4.3c3.3 1.6 5.6 3.3 5 3.7-.6.3-1.6.1-2.4-.6-.7-.7-3.1-2.2-5.3-3.4-2.2-1.1-5.7-3-7.7-4.2-4.2-2.4-3.5-3-10.7 8.6-4.9 8.1-5.5 10.2-2.7 10.2.7 0 2.9 1.4 4.7 3 1.9 1.7 4.6 3.8 6.2 4.6 1.5.8 2.7 1.8 2.7 2.2s1.5 1.6 3.3 2.6c5.2 3.1 17.7 12.6 17.7 13.6 0 .5 1 1.4 2.1 2.1 1.8.9 2.5.7 4.6-1.5 1.3-1.4 2.8-2.6 3.3-2.6 1.8 0 1 2.1-1.7 4.6l-2.8 2.6 2.4 1.9c3 2.4 3.1 2.4 6.4-.6 3.2-3 3.5-2.4.7 1.2-1.1 1.4-2 3-2 3.5s2.2 3.3 4.8 6.1c3.8 4.1 11.8 13.7 12.8 15.5.3.5 6.4-2.8 6.4-3.4 0-1.4-4.8-7.3-10.2-12.8-3.3-3.2-5.7-6.1-5.4-6.3 1.3-1.3 5.2.9 6.4 3.6 1.6 3.5 10.9 13.1 12.9 13.1.8 0 1.1.5.8 1-.4.6-.1 1.7.5 2.5.7.8.9 1.5.5 1.5s0 1.1.9 2.5c1.8 2.7 2.1 6.1.7 6.9-.5.3-1.4-1.4-2-3.9-.7-2.9-1.7-4.5-2.7-4.5-.8 0-1.2-.5-.9-1 1-1.7-1.1-1.1-3.6.9l-2.4 1.9 2.8 2.9c3.6 3.8 3.5 5.9-.4 6.7-3.7.7-4.9.1-4.9-2.5 0-3.4-2.5-3.1-8.7 1.1-6.2 4.1-8 5.8-8.3 7.5-.1.5-.8.9-1.6.9-2.4-.3-8.4 6.3-8.4 9.1s2.1 3.3 4 1c1.3-1.6 4-2.1 4-.7 0 .5-1.8 1.8-4 3.1-2.2 1.2-4 1.7-4 1.1s-1.1-1.5-2.5-2c-1.3-.5-3.1-2.3-4-4-1.8-3.4-1.4-3.5-10.2 2.9-6.3 4.5-7.6 6.1-4.9 6.1 1.8 0 5.8 5.3 8.4 11.2 1.1 2.7 2.7 4.8 3.4 4.8s3.1-1.2 5.3-2.5c2.2-1.4 4.9-2.5 6-2.5 1.2.1-.1 1.1-3.2 2.5-2.8 1.3-5.4 2.9-5.8 3.4-.3.6-3.5 2.7-7 4.7-3.6 1.9-6.5 3.7-6.5 3.8s.8 1.8 1.8 3.8l1.9 3.6 6.4-4.1c3.5-2.3 8.2-5.1 10.4-6.2 2.2-1.2 3.9-2.6 3.8-3.1s-.4-2.1-.8-3.6c-.7-2.6-.6-2.6 4.8-2.4 4 .2 5.9.8 7.5 2.4 2.5 2.5 3.5 2.7 6.1 1 1.5-.9 1.7-1.7 1-4.2-1.2-4.3 1.2-5.6 2.9-1.6.9 2.2 1.9 3 3.7 3 1.4 0 2.5.4 2.5 1 0 .5-.5 1-1.1 1-.8 0-.9.4 0 1.3 1.6 2 .2 2.8-3.6 2.1-5.3-1-8.4 3.4-5 7.1 2.6 3 3.3 4 3.3 4.9-.1.5 1.4 1.4 3.2 2 3.3 1.2 3.4 2.6.1 2.6-2.7 0-3.3 1.9-1.4 4s1.8 2.2-3.3 3.3c-2.3.5-2.3.5-.7-1.3 1.6-1.7 1.6-2.1.1-4.2-.9-1.2-1.6-3.1-1.6-4.2 0-1.6-.5-1.8-4.2-1.3-3.5.5-3.9.4-2.3-.5 3.5-2 4.5-4.5 2-5.4-1.9-.8-7.8 3.5-7.1 5.1.8 2.1-1.4 3.2-7.6 3.9-4.3.6-5.9 1.2-6.3 2.6-.6 1.9-5.2 4-8.7 4-1 0-2.1.7-2.4 1.5-.4.8-1 1.2-1.5.9s-1.2.2-1.6 1.1c-.7 2.1 1.2 3.5 4.9 3.5 1.5 0 3 .5 3.3 1 .4.6 2.2.8 4.3.5 6.4-1.1 6.7-1.3 4.8-3.3-2.2-2.6-2.1-5.2.4-5.2 1.1 0 2 .6 2 1.4 0 2.2 2.9 4.6 5.4 4.6 1.9 0 2.2.4 1.8 3-.3 2.3 0 3 1.3 3s1.6.6 1.1 2.4c-.4 1.8-.1 2.6 1.1 2.9 1.4.4 1.2.5-.4.6-1.4.1-2.3-.5-2.3-1.4 0-.8-.7-1.5-1.5-1.5-1.6 0-1.9.9-.9 3.4.8 2 2.3 2 7.5 0 2.8-1.2 3.7-1.9 2.8-2.5-2-1.2-.5-2.1 4.6-2.6 3.7-.5 4.3-.8 3.4-1.9s-.8-1.4.1-1.4 1-1 .6-3.5c-.7-3.4-.6-3.5 2.5-3.5 3 0 3.1.1 1.6 1.8-.9.9-1.8 3-2.1 4.5-.4 2.3-.2 2.7 1.2 2.3.9-.2 3.6-.8 5.9-1.1 2.4-.4 4.5-1 4.8-1.5.3-.4 2.6-1.3 5.2-2 7.8-1.8 8.4-2.6 7.3-9.8-.7-4.1-2.1-7.8-4.2-10.8-1.8-2.7-3.2-6.1-3.2-7.8-.1-2.7-.4-3.1-2.8-2.9-2.8.2-3.9-1.2-1.6-1.9 1.9-.7-.1-2.8-2.6-2.8-3.1 0-3.6-.7-2.5-4 .9-2.4.6-3.2-1.5-5.5-2.6-2.8-3-3.7-2.7-6.7.2-1.2-.3-1.6-1.2-1.2-2 .7-3.1-1.4-1.7-3.1 1.7-2.1 4-1.9 4 .3 0 1.9 3.9 6.2 5.6 6.2.5 0 1.5 1.4 2.3 3 1.6 3.7 1.9 3.7 15.6-3.3 23.3-11.9 31.7-15.9 32.2-15.3.3.3-2.1 1.8-5.3 3.4-10.9 5.5-19.9 10.4-21.5 11.8-.8.8-2.1 1.4-2.8 1.4-1.6 0-12.8 5.7-13.6 7-.3.5-.1 1 .4 1 .6 0 1.1 1.7 1.1 3.7 0 2.7.7 4.5 2.5 6.2 1.5 1.4 2.5 3.4 2.5 5.2 0 1.9 1 3.7 2.9 5.5 1.6 1.4 3.1 4 3.5 5.7 1.6 9.7 1.6 9.7 5 9.7 1.7 0 5-.7 7.3-1.5s6.1-1.7 8.3-2c5.8-.7 8.9-1.6 11.9-3.2l2.6-1.5-2.8.7c-2.1.4-2.8.2-2.5-.7.3-.7 3.4-2.1 6.9-3.1s9.4-2.7 13-3.9c3.7-1.1 7.3-1.8 8-1.5 1 .4 1 .6-.3.6-.9.1-4 1.2-7 2.6-2.9 1.4-6.2 2.5-7.3 2.5-1.1.1-3.3.7-5 1.5l-3 1.4 3.5-.6c1.9-.3 7.6-1.7 12.5-3 5.8-1.5 11.6-2.4 16.5-2.3 4.1 0 11.1-.7 15.5-1.6 13-2.7 31.5-1.6 35.7 2.2 3.7 3.4 6.5 4.5 12.2 4.7 3 .1 4.9.5 4.4.8-.6.4-.7 1.2-.3 1.8 1.3 2.3 5 2.9 9.8 1.8 4.6-1 6.4-2.7 3-2.7-1.5 0-1.6-.2-.3-1 1.1-.7-.2-1-4.5-1-4.8-.1-5.6-.3-4.1-1.2 3.7-2.1 18.5-1.1 17.1 1.2-.3.5-.1 1.2.5 1.5.8.5.7 1.2-.2 2.2-1.1 1.4-1 1.5.8.9 1.1-.3 2.8 0 3.9.8 1.6 1.1 1.9 2.9 2.2 11.1.1 5.4.7 10.3 1.3 11 .7.8.4 1.7-1 3-1.1 1-2 1.4-2 1 0-1.8-2.9 3.1-3 5 0 1.7-.2 1.7-1 .5-.8-1.3-1.1-1.1-1.6.7-.3 1.2-.5 2.5-.4 2.9s-.4 1-1 1.4c-.7.4 0 .9 1.7 1.3 3.7.7 12.6 8.8 12.8 11.6.1 1.2-.2 2.1-.7 2.1-.4 0-.8.4-.8 1 0 1.3 5.6 4.1 6.5 3.2.4-.4.5.4.2 1.8-.4 1.4-.7 2.8-.7 3.2 0 1.4-7 2.9-10.4 2.2-2.2-.4-3.6-.2-3.6.4 0 1.2 3.4 2.2 7.5 2.2 1.7 0 3.7.5 4.5 1 1.7 1.1.9 1.2-6 1.4-2.4.1-3.5.6-3.5 1.6 0 1.1 1.5 1.7 5 2.1 6.4.7 8.6 1.8 8.3 3.8-.2 1.7 1.7 5.7 3.8 7.8 1 1 1.8 1 4.1-.2 3.9-2 10-1.9 12.1.2 5.3 5.3 6.6 12.3 3 15.3-1.3 1.1-3.1 1.9-4 2-1 0-1.8.5-1.8 1.2 0 .6-3 4-6.7 7.6-6.5 6.3-6.7 6.4-11.1 5.9-7.3-.8-8.6-4.7-1.5-4.7 2.8 0 3.4-.3 2.9-1.6-.3-.9-.6-1.8-.6-2s-1.7-.4-3.9-.4c-3.1 0-4.2-.5-5.6-2.6-1-1.6-1.3-2.9-.8-3.3.6-.3 1.3-1.8 1.6-3.3.4-1.4.9-3.2 1.2-4 .4-.9-.5-1.4-3.1-1.5-2-.1-3.8-.4-4.1-.7-.9-.9.9-2.7 3.5-3.7s2.6-1.1.8-2.5c-1.1-.8-3.5-1.4-5.3-1.4-2.5 0-3.1.3-2.6 1.6.3.9-.3 2.1-1.6 3-1.1.8-2.1 2.1-2.1 2.7 0 1.6-4.5 6.7-5.9 6.7-.6 0-1.1.4-1.1 1 0 .5.5 1 1.2 1 .6 0 .9.2.7.5-1.1 1-10.6 1.6-12.9.7-2.8-1-10-.4-10 .8 0 .4 1.5 1 3.3 1.3 1.7.3 5 1 7.2 1.5l4 1-4.1.1c-2.3 0-5.6-.4-7.3-1-2.3-.8-3.6-.8-4.3-.1s0 1.3 2.6 1.8c2.5.4 3.4 1 2.8 1.6-.7.7-3.5.6-8.2-.2-6.4-1.1-7.3-1-8.3.5-1.1 1.4-2.6 1.5-11.6.9-6.1-.4-9.7-1-8.9-1.5.9-.6.5-.9-1.3-.9-2.7 0-3.9-1.6-3.9-5.2 0-1.8-.5-1.9-3.5-1.4-1.9.3-5.1.9-7 1.2-2.7.5-3.5 1.1-3.5 2.8 0 1.2-.5 2.7-1 3.2-1.3 1.3 4 9 6.8 9.8 1 .4 3 .1 4.4-.6 3.2-1.7 16.5-1.6 25.3.2 6.7 1.4 10.7 1.5 22.9 1l5.5-.3-.4-3.1c-.3-1.9 0-1.4.7 1.2.6 2.3.8 4.6.4 4.9-1.2 1.2-19.6.3-27.3-1.3-7.2-1.5-14.6-1.6-13.7-.3.2.4 3 1.5 6.2 2.5 3.1 1 6.9 2.8 8.4 4 3.7 3 13 5.8 17.2 5.1s6.9 1.5 3.9 3.2c-1.5.8-1.6 1.3-.6 3 .7 1.2 1.3 2.3 1.3 2.6 0 1.1-3.9.4-4.7-.8-.4-.7-2.4-1.9-4.3-2.5l-3.5-1.2 3.6.4c2 .2 4.1.1 4.8-.4 1.7-1-1-1.9-10.7-3.5-1.8-.4-4.1-1.4-5-2.3-1-.9-4.1-2.8-7-4.2-4.4-2-5.7-2.2-7.3-1.2-2.6 1.7-2.7 1.6-4.3-2.1-.8-1.7-1.5-2.5-1.5-1.7-.1 1.3-.2 1.3-1.2 0-.8-1.1-1.2-1.2-1.6-.2-.2.6-.8 1-1.2.8-.4-.3-1.3 1.7-2 4.4-1 3.8-1.6 4.8-2.9 4.3-1-.3-.7.4.8 1.6 1.4 1.1 3.7 2.1 5.1 2.1 1.5 0 4.6.9 7 2s5.4 2 6.5 2c3 0 5 2.6 3.5 4.4-1.3 1.6-.4 2.5 4.6 4.7 1.9.8 2.8 1.6 2.1 2-.9.6-.8 1.2.1 2.3.7.9 1.7 1.3 2.2 1s.9-.1.9.4c0 1.1-3.8 3-6.8 3.4l-2.4.3 2.4 2.7c2.5 2.9 5.8 3.8 5.8 1.5 0-.9 1.2-1.1 4.1-.9 2.8.3 3.7.7 2.8 1.3-1.1.7-1.1.9-.1.9.7 0 1 .4.7 1-.3.5-.1 1 .4 1 .6 0 1.1.4 1.1 1 0 .5-.7 1-1.5 1-.9 0-1.2.6-.9 1.5.5 1.2-.2 1.5-3.1 1.5-3 0-3.6-.3-3.1-1.6.9-2.3-1.8-4.4-6.1-4.7-2.9-.2-3.8.2-4.1 1.7-.2 1.1 0 1.6.7 1.2.6-.4 1.1-.2 1.1.3 0 .6.9 1.1 2 1.1 1.2 0 2.4 1 3 2.2.5 1.4.9 1.7 1 .8.1-2.7 2 1.2 2 4.2 0 1.5.7 3.1 1.6 3.6 1.3.7 1.4 1.3.6 2.9-.8 1.5-1.9 1.8-4.6 1.5-3.1-.4-3.4-.2-2.9 1.7.3 1.2 1.5 2.8 2.7 3.7 2 1.4 2.2 1.3 3.2-1.1l1-2.6 1.2 2.6c.6 1.4 1.9 2.5 2.7 2.5.9 0 1.9 1 2.4 2.2 1 2.7.4 4.3-1.2 2.9-.7-.5-3.2-1.1-5.7-1.3-3.7-.2-4.5 0-4.8 1.6-.5 2.6 1.6 3.6 6.1 2.9 3.3-.5 3.7-.3 3.7 1.6 0 2-.5 2.2-3.7 1.9-3.5-.3-3.8-.1-4.1 2.4-.2 1.9.2 2.8 1.8 3.3 1.1.4 3.3 1.8 4.7 3.1l2.7 2.5-5.2-.7c-3.6-.4-5.2-.3-5.2.5 0 .6-.4 1.1-1 1.1-.5 0-.7-.7-.4-1.5.4-.8.1-2.2-.5-2.9-.7-.8-1.1-2.7-.9-4.3.2-1.9-.1-2.7-1.1-2.5q-1.35.3-.6-1.5c1.9-4.6 1.8-6.2-.9-7.4-2.8-1.3-3.3-2.5-1.5-3.1 1.7-.6.2-4.5-3.2-7.9-1.6-1.6-2.9-3.7-2.9-4.7 0-1.3.2-1.4.9-.3.7 1 1.2.8 2.5-1 1.4-2.1 1.4-2.4-.1-4.2-1-1.1-2.5-1.6-3.7-1.3-2.4.6-11.1-2.1-12.7-4-1.7-2-2.9-1.7-3 .8-.1 1.8-.2 1.9-.6.5-.2-.9-.9-1.5-1.4-1.2-.5.4-.9-.1-.9-1s-.7-3-1.6-4.7c-1.5-2.9-1.5-3.2 0-4.4 1.4-1 2.1-.8 4.1 1.2 2.6 2.6 4.1 2.9 6.5 1.4 1.2-.7.6-1.8-3.5-5.5-2.8-2.5-5.7-4.5-6.6-4.5-2.4 0-4.9-4.3-4.9-8.4 0-3.3-.2-3.5-4.2-4.1-11.6-1.7-11.2-1.3-10-10.2.5-3.4.5-6.8.1-7.5-.8-1.5-2.3-13.1-2.1-16.9.1-2-.5-2.9-2.1-3.3-3.7-1-10.5-.7-10.9.5-.3.9-1.3.9-3.8.1-5.7-1.8-25-2.7-25-1.2 0 .9-.3 1-1.4.1-.7-.6-3.9-1-6.9-.9-4.6.2-5.7.6-6.5 2.4-.6 1.2-2.3 2.4-4.1 2.7-2.8.6-3.1 1-3.1 4.7v4l8.3.2c11.7.2 13.2.3 16.9 1.9 3.9 1.6 10 5.5 10.9 7.1.8 1.3 0 4-1 3.4-.3-.2-1.5.2-2.6 1-1.7 1.3-1.7 1.4-.1 1.4.9 0 1.4.5 1.1 1s-3.3 1-6.7 1c-5.3 0-5.9.2-5.3 1.7.4 1 .8 2.4.8 3 0 .7.4 1.3.9 1.3s.6.5.3 1c-.8 1.3-3.6-.6-3.2-2.2.1-.6-.4-1.3-1.1-1.5-.7-.3-1.2-.1-1.1.4.4 2.1-.3 2.3-2.3.9-3-2.1-3.8-2-3.5.3.4 2.8 2.8 5.3 4.4 4.7.8-.3 1.1-.2.8.3-.5.9 4.4 4.5 14.5 10.5 5.4 3.2 13.4 8.8 15.6 11 1.4 1.5 1.3 1.6-1 1.6-1.4 0-2.6.5-2.6 1.1s-.7.8-1.6.5c-1.2-.4-1.5-.2-1 .9.6 1.7-2.9 2.2-3.9.5-.3-.6-1.6-1-2.7-1-1.2 0-3.6-1.2-5.5-2.6-2.2-1.7-4-2.3-5.3-1.9-1.1.4-2 .2-2-.3 0-.6-.7-1.2-1.5-1.6-3.2-1.2.4 3 5.7 6.6 5.3 3.7 8.8 8.1 8.8 11.2 0 2.8 4.7 7 10 9.1 7.7 3 6.3 5.4-1.7 2.9-2.1-.6-1.5 1.6 1.2 4 1.4 1.3 2.5 2.9 2.5 3.6s-.3 1-.7.7c-.3-.4-1.2-.2-1.9.4-1.8 1.5-4.6-.5-7-4.9-1.3-2.5-3-4-5.4-4.7-5.4-1.7-10.5-4.2-11.8-5.8-.7-.8-2.3-1.2-3.8-.9-2 .3-2.4.9-2 2.3 1.9 6.2 2 5.9-1.1 5.9q-3 0-3-1.5c0-.8.5-1.5 1.1-1.5s.4-.5-.4-1-3.2-.7-5.2-.3c-2.5.4-3.8.2-3.8-.6 0-.6-.4-1.1-1-1.1-.5 0-1 .7-1 1.6 0 1.9-3.9 5.6-5.4 5.1-.5-.2-1.4-1.1-2-2-.8-1.2-.7-2 .5-2.9.8-.7 2.2-2.2 2.9-3.2 1.4-1.8 1.3-1.9-.2-1.3-1 .3-1.8.3-1.8-.1 0-.5-1.8-1.8-4-3.1-2.2-1.2-5.2-3.9-6.7-5.9-1.6-2-3.2-4-3.8-4.4-1.7-1.3-2.8-.9-1.6.6.9 1.1.9 1.6.1 2.1-.7.4-.9 1.8-.6 3.1.8 2.9-.3 3.1-3.2.4-2-1.9-2.2-1.9-2.2-.3 0 1-.3 2.9-.6 4.3q-.6 2.55.3 1.2c.7-.9 1.7-.6 4 1.7 3.2 3.1 5.9 2.8 4.6-.5-.6-1.6-.4-1.7.9-.6.8.7 2.2 1 3.1.6 1.8-.7 3.2 1.2 1.6 2.2-.8.4-.7.9.2 1.5 1.1.7 1 .9-.4.9s-1.8.6-1.5 2.8c.2 1.5.8 2.7 1.3 2.8 3.8.4 7.5 1.9 7.5 2.9 0 1.4 2.2 2.5 5.1 2.5 1 0 2.8.9 3.9 2s3.2 2.3 4.7 2.6c1.6.4 4.4 1.9 6.3 3.4 1.9 1.4 7.8 4.8 12.9 7.5 11 5.6 21.3 12 20.5 12.8-.3.3-8.1-3.3-17.2-7.9-9.2-4.6-17-8.4-17.5-8.4s-3.2-1.1-5.9-2.5c-2.8-1.4-5.1-2.4-5.2-2.3-.1.2-1.6 2.7-3.4 5.7s-3.1 6-2.8 6.7c.3.8.1 1.3-.5 1.1-1.1-.2-7.3 10.3-6.4 11.1.2.3 1.6 0 3-.6 2.1-1 2.5-.9 2.5.6 0 .9-.7 3-1.5 4.6-.8 1.5-1.5 3.5-1.5 4.3s-.4 1.2-.9.8c-.5-.3-1.2-.1-1.6.5s-1.1.8-1.6.5-.6.1-.3 1c.4.9-.2 2.3-1.6 3.5l-2.2 2 3.3 3.2c1.9 1.8 4.3 3.8 5.4 4.4 1.1.7 1.7 1.5 1.2 2-.4.4-2-.4-3.5-1.8-2.4-2.3-6.4-4.8-7.5-4.8-.3 0-.5.6-.4 1.2.1 3.3-.5 4.4-3.3 6-3.7 2.1-3.9 5.3-.4 8 1.4 1.2 2.3 2.7 2 3.5s.2 2.5 1 3.9c2.1 3.2 1.4 3.9-1.4 1.4-1.1-1.1-2.7-1.7-3.5-1.4-.9.3-1.6-.3-2-1.5q-.45-2.1.9-2.1c1.8 0 1.8-2-.2-4.8-1.8-2.7-3.4-2-3.4 1.4 0 1.3-.4 2.4-.8 2.4-.5 0-2 .9-3.3 2.1-2.5 2.2-2 4.3 1.6 6.3 2.3 1.4 8.2 7.5 9.7 10 .9 1.7.6 1.6-2.2-.4-1.7-1.2-3.4-2.9-3.7-3.6-.3-.8-.9-1.4-1.4-1.4s-2.3-1.6-4-3.5-3.4-3.5-3.9-3.5c-.4 0-2.7 1.7-5.1 3.9-2.4 2.1-5.3 4.1-6.5 4.5-1.1.3-3 1.5-4.2 2.6-1.1 1.1-4.7 4.1-7.9 6.6-3.2 2.6-7.3 6.1-9.1 7.9s-4.5 3.6-6 4c-1.5.3-4.9 2.1-7.7 3.9-2.7 1.8-9.9 5.7-15.9 8.7-6.4 3.2-11.1 6.1-11.4 7.2s-1.1 1.6-2.2 1.2c-2-.6-4.5 1.9-3.7 3.8.4 1-.2 1.3-1.9.9-1.4-.2-2.4 0-2.4.7s-.5.9-1 .6c-.6-.4-.7-1.1-.4-1.7.4-.6.1-.8-.7-.6-.8.3-1.3 1-1.2 1.6.2.6-1.3.8-3.7.5-5.6-.8-6 1.2-2.6 11 3.2 9.4 2.8 11.5-.5 2.8-3.2-8.3-5-10.5-7.7-9.6-1.6.4-2.2 1.4-2.2 3.5 0 1.6-.8 3.6-1.7 4.6-1.5 1.5-1.9 4.1-2.2 17-.3 16.2.8 25.2 5.4 44.4 3.1 12.6 4.5 21.9 4.7 30.7l.2 7.3h65.7c51.3 0 65.9-.3 66.3-1.3.5-.9.7-.9 1.2 0 .4 1 43.5 1.3 210.5 1.3H1280V563l-2.2-.9c-5.4-2-9.6-3.1-12.2-3.1-2.4 0-19-7.7-29.3-13.6-5.7-3.3-3.9-5.6 3.1-4.2 2.3.4 5.8 1 7.9 1.3 2.1.4 4.6 1.5 5.5 2.6 2.4 2.8 9.8 5.9 13.6 5.7 3.7-.2 5.7.3 7.1 1.8.5.5 2.2 1.5 3.8 2.2l2.7 1.2V0H0zm976.4-149.5c-.4.8-.9 1.5-1.3 1.5s-2.8 1.9-5.4 4.2c-7.4 6.5-12 8.8-19 9.6-4.4.4-4.7.3-4-1.5 1.5-3.8 5.1-7.2 9.2-8.9 2.2-.9 4.1-2 4.1-2.5s1-.9 2.3-.9 2.7-.4 3.3-.9c.5-.5 2.7-1.1 4.9-1.4 2.2-.2 4.5-.4 5.2-.5s1 .4.7 1.3m-5.3 22.1c9.8.1 17.4.6 18.6 1.2 2.3 1.3 2.9 6.2.7 6.2-.7 0-1.8 1.8-2.4 4-1 3.7-.9 4.3 1.2 6.1 1.6 1.4 1.9 2.2 1 2.6-.7.3-2.5 1.8-4.1 3.5-2.4 2.5-3.9 3.1-10.7 4-5.6.8-8.3 1.6-9.4 3-1.5 1.7-1.8 1.8-5.8.4-2.4-.9-5.3-2.2-6.5-3.1-1.3-.9-4.4-1.5-8-1.5-5.1 0-6.2-.4-8.8-2.9-3.1-3.1-3.7-5.1-1.6-5.1.6-.1 2.8-1.4 4.7-3 2-1.8 4.6-3 6.2-3 1.5 0 2.8-.5 2.8-1 0-.6-.9-1-1.9-1-3.4 0-4.2-5.4-1.3-8.7 2-2.3 5-3.4 7.2-2.4.8.3 9 .6 18.1.7m-264.2 53.1c-2.5 6.3-6.2 12.7-7.9 13.8-.6.3-.8 1-.5 1.5s-.3 3-1.5 5.4c-1.1 2.5-2 4.9-2 5.5 0 .5-1.1 2.3-2.5 4-1.4 1.6-2.7 4.6-2.9 6.5-.4 4-3.2 9-4.7 8.1-.5-.4-.1-1.7 1.1-3.2 1.1-1.4 2-3.6 2-4.8s1-3.7 2.3-5.6c2.8-4.1 5.7-11.2 5.7-13.9 0-2.1-2.4-2.8-3.5-1-.3.5-1.5 1-2.5 1s-3.4 1.8-5.3 4c-4.6 5.4-6.9 5.1-2.5-.3 2.9-3.6 6-8.9 6.2-10.7.1-.3 1.1-1.6 2.3-2.9 1.3-1.4 2.5-3.3 2.9-4.3.3-1 1-1.8 1.5-1.8 1 0-.9 3.7-5.8 11-2 3-2.1 3.5-.7 3.8.9.2 2.1-.1 2.7-.7s1.8-1.1 2.7-1.1c2.3 0 7.6-5.8 9.5-10.5 3-7.2 4.8-10.6 5.3-10.1.2.3-.6 3.1-1.9 6.3M292 390.9c.8 1.6.6 2-.8 2.4-1.1.3-.9.5.8.6 5.1.3 5.5 1.3 5.4 12.1 0 5.5-.3 10.2-.6 10.5s-1.6.1-2.9-.3c-2.7-1.1-8.8 1.5-8.9 3.6 0 .7-.4 1-1 .7-.5-.3-1 .1-1 .9 0 1 1 1.6 2.8 1.7 2 .1 2.2.3.8.6-1.1.3-3.3 1.8-4.9 3.4s-3.9 2.9-5.3 2.9c-3.2 0-3.1 2.8.3 6l2.6 2.5-2.4.3c-1.3.2-3.1 1-4.1 1.9-1.1 1-1.8 1.1-2.3.3-.4-.6-1.3-.9-2.1-.6-1.9.7-2.5-.7-1.8-4.3.5-2.1 1.2-3.1 2.5-3.1 1.1 0 1.8.6 1.7 1.2-.2.7.3 1.3 1 1.3.6 0 1.2-.3 1.2-.8v-2.3c0-.8-.4-1.3-.9-.9-.5.3-3.3.7-6.1 1-3.5.3-4.8.1-4.4-.7.5-.8.1-.9-1.2-.4-1 .4-3.5 1-5.4 1.3-1.9.2-5.3 1.1-7.4 1.9-2.6 1-4.2 1.2-4.9.5s0-1.2 1.9-1.6c6.9-1.5 14.4-4.7 14.4-6.1 0-.7 2-1.7 4.5-2.3 2.8-.7 4.5-1.7 4.5-2.6 0-.8.4-1.5.8-1.5.5 0 1.5-1.2 2.3-2.6.7-1.4 3.4-3.5 5.9-4.7 7.4-3.4 8.9-5.7 3.9-5.7-4.6 0-2.7-1.5 4.5-3.4 4.8-1.3 6.5-2.3 6.9-3.8s1.1-1.9 2.6-1.5c1.2.3 1.9.1 1.5-.4-.3-.5-1.6-.9-2.9-.9s-3-.9-3.9-2.1l-1.4-2.1-8.3 2.1c-10.5 2.7-15.8 2.7-7.4 0 3.3-1 7.9-2.3 10.3-2.9s4.6-1.8 4.9-2.6c.7-2 3-1.7 4.3.5m290.6 36.5c2.2.8 3.4-.1 3.5-2.7.1-1.7.2-1.8.6-.5.2 1 .9 1.8 1.4 1.8s.9.4.9 1c0 .5-.6 1-1.4 1-1.7 0-6.2 5.1-7.1 8-.3 1.1 0 3.4.9 5.2.8 1.8 1.7 4.9 2.1 6.8.3 1.9 1.6 6.2 2.9 9.5l2.3 6 2.8-6.2c1.6-3.4 3-6.1 3.1-6s-.4 2.7-1.3 5.7c-2.6 9.6-2.6 9.8-.6 10.2 1 .3 2.8.1 4.1-.4 3.5-1.2 2.7 1.5-1.1 3.2-3.6 1.7-3.9 4-1.2 9.6.8 1.7 1.8 4.1 2.3 5.4.8 2 1.2 1.5 3.7-4.6 1.6-3.8 3.2-7.3 3.7-7.8 1.4-1.7.9-4.6-.9-4.7-1.1 0-1.3-.3-.5-.6 1.7-.7 1.5-3.3-.5-5.5-.9-1-1.2-1.8-.6-1.8.5 0 1.6 1.1 2.3 2.5 1.7 3.1 2.8 3.2 3.9.2.8-1.9 1-2 1.6-.5.4 1-.8 4.6-2.9 9.2-6.2 13.1-7.6 17.4-7.6 23.6 0 3.3-.4 6-1 6s-1-2.9-1-6.6c0-3.8-.4-6.3-.9-5.9-.9.5-3.1-5.3-3.1-8.1 0-.6-.7-2.6-1.6-4.4-1.5-2.9-1.8-3-2.7-1.5-.5.9-1.8 5.2-2.8 9.4l-1.9 7.6 2.3 1.7c1.9 1.5 2 1.8.4 1.8-1.1 0-2.6 1.8-4.2 5.2-1.3 2.9-2.2 4.2-1.9 2.8s.5-3.6.5-5c.1-2.4 2.7-12.3 5.5-20.3.9-2.7.9-3.7.1-3.7-2.3 0-10.2 4.7-9.9 5.8.1.7-.5 1.2-1.3 1.2-1.2 0-1.3-.4-.6-1.8 1.4-2.6 3-3.7 7.3-5.3 4.4-1.5 6.4-5.5 4.3-8.6-.7-1-1.8-4.5-2.5-7.8-1.6-7.3-1.7-7.3-3.5-4.9-.8 1-1.5 1.4-1.5.7 0-.6.4-1.5 1-1.8.5-.3.8-1.6.6-2.8-.3-1.2-.5-2.6-.5-3.1-.1-.4-1.2-.5-2.5-.2-2.6.6-4.5-1.8-2.2-2.7.7-.3 1.6-1.6 1.8-2.9.3-1.3 1.3-4 2.2-6.2 1.7-3.8 1.7-3.9-.3-3.3-1.1.3-2 .2-1.9-.2.2-1.8-.3-3.2-1-2.7-.4.2-1.4-.4-2-1.5-1.2-1.8-1.1-1.9.7-1 2.8 1.5 3.1 1.4 3.1-1.2.1-2.1.1-2.1 1.5.4.8 1.5 2.2 2.9 3.1 3.3m-267.2 34.2c1.1 2.7.6 5.4-.9 6-.8.4-1.5 1.4-1.5 2.4 0 1.1-.4 2.2-1 2.5-.5.3-1 1.3-1 2.1s.5 1.2 1 .9c.6-.4 1 .7 1 2.5 0 2.2-.4 2.9-1.2 2.4-.9-.5-1-.4-.3.4.6.6 2.1 1.2 3.5 1.4 2 .2 2.6.9 2.8 3.3.3 4.1-.8 5.5-4.9 6.1-3.1.4-3.6.1-5.7-3.3-1.3-2.1-3.5-4.6-4.8-5.6-2.5-1.9-2.6-1.8-6.2.5-2 1.4-4.4 2.7-5.2 3s-5.2 3.3-9.7 6.6c-10.8 8-18.2 11.9-19.5 10-.7-1-1.1-1-1.5-.1-.2.7-1.3 1.3-2.3 1.3-1.1 0-3.6 1.1-5.6 2.5-3.9 2.6-5.6 2.6-3.4 0 .7-.8 2.1-1.5 3.1-1.5 1.1 0 1.9-.7 1.9-1.5s.7-1.5 1.5-1.5 1.5-.5 1.5-1c0-.6-.5-1-1-1-.6 0-.9-.3-.9-.8.3-2-.2-3.2-1.6-3.2-.8 0-1.5-.4-1.5-.9q0-2.1 8.1-2.1c3.5 0 4.9-.4 4.9-1.4 0-.9.7-1.2 1.9-.9 1 .3 2.2 0 2.5-.6.4-.7-.1-1.1-1.2-1.1-1.2 0-2.4-1.1-3.2-3-.7-1.7-1.8-3-2.4-3-3.1.2-10.7 2.8-12.4 4.3-2.5 2.3-3.2 2.1-3.2-.8 0-2 .5-2.5 2.7-2.5 3.1 0 9.3-2.1 9.3-3.1 0-.4 1.7-.3 3.8.3 2 .5 4.7 1.2 5.9 1.5 2.2.5 4.3-1.1 8.8-6.6l2-2.4-2.2.5c-1.3.4-2.5.3-2.8-.2-.9-1.4 4.2-3.9 12.2-6.1 6.1-1.6 8.7-2.9 11.8-5.9 2.2-2.2 5.3-4.6 6.9-5.4 2.7-1.4 3.1-1.3 6.2 1 1.8 1.4 3.5 3.2 3.8 4m645.9 17.9c1.9 2.6 5.8 14.1 5 14.9-.3.3.4 1.5 1.6 2.7 2.5 2.7 2.6 3.5.6 4.3-.8.3-1.5 1-1.5 1.6s.4.9 1 .5c.5-.3 2.5.1 4.4.9s3.7 1.1 4.1.8c.4-.4 1.1.1 1.6 1.1.6.9 1.7 1.7 2.6 1.7 1.4 0 1.3.4-.6 2.1-1.7 1.6-2 2.4-1 3.5.9 1.2.6 1.4-2.1 1.4-2.4 0-3.1.4-2.7 1.4.9 2.3-1.9 2.7-3.8.6-1-1.1-2-1.9-2.4-1.8-1.5.4-9.9-1.5-12.8-2.8-3-1.4-3.5-1.3-5.8.3-1.3 1-2.5 2.5-2.5 3.3 0 1.3-.1 1.3-1 0-.5-.8-.5-1.7-.1-2 1.6-1-.7-4.7-5-8.1-2.4-1.9-3.9-2.7-3.5-1.9.5.8-.1.5-1.3-.7-1.9-2-2.1-2.7-1.1-6.2 1.2-4.6 3.8-5.7 8.4-3.5 2.4 1.2 4.7 1.4 10.5.7 8-.9 8.8-1.6 6.8-6.3-3.8-9.1-3.5-14 .6-8.5m-16.1 39c1.1 0 2.2 1.5 1.1 1.5-1.4 0-2.3 3.3-2.7 10.4-.2 3.2-.9 6.3-1.5 6.9s-1.1 1.9-1.1 2.9c0 2.3-1.5 2.3-5-.2-3.9-2.8-7-8.1-7-11.9 0-2.8.3-3.1 3-3.1 1.8 0 3.3.6 3.6 1.5 1.1 2.9 4.3 1.6 6.4-2.4 1.2-2.5 1.6-4.2 1-4.6-.6-.3-1-1.1-1-1.6 0-.6.6-.7 1.3-.2.6.4 1.5.8 1.9.8m-498.6 19c2.5 2.5 5.4 4.5 6.5 4.5 1.2 0 1.9.7 1.9 2 0 2.9 1.5 2.5 4-1 1.2-1.7 2.6-3 3.1-3 .6 0 .1 1.2-.9 2.8-3.4 4.7-3.1 5.6 4.6 13.1 3.9 3.9 7.2 6.9 7.2 6.7s1.5 1.1 3.4 2.9 4.4 3.6 5.5 4c2.2.7 2.7 2 1.3 2.9-1 .6-13.4-8.6-21.6-15.9-11.7-10.4-12.6-11.3-12.6-12.3 0-.5-.9-1.2-2-1.5s-2.4-1.7-3-3.1c-.5-1.4-1.4-2.6-1.9-2.6s-1.1-.9-1.4-2c-.8-3.1.9-2.4 5.9 2.5M270 574.7c.2.2-.2.8-.9 1.3-.9.5-1.4 2.4-1.3 5.3s-.3 4.9-1.3 5.7c-.8.7-1.5 2.6-1.5 4.2 0 2.7.2 2.9 3.3 2.6 1.7-.2 3.5-.7 3.9-1.3.4-.5 1-.6 1.4-.2 1.4 1.4-3.9 5.7-9.5 7.7-3.1 1.1-6.5 2.5-7.6 2.9-3.5 1.6-10.3 2-12 .7-1.5-1.1-1.1-1.9 3.2-7.1 2.6-3.3 6.8-8 9.1-10.5l4.4-4.5-2.6-.9c-3.8-1.4-3.2-3.3 1.7-5.5 3.6-1.6 8.1-1.8 9.7-.4m680 4.6c0-.5.4-.2.8.5.7 1 1.4.8 3.2-.8 1.2-1.1 2.6-1.8 3-1.5.4.2 1.1 2.8 1.4 5.7.7 4.7 1.4 5.9 6.1 10.6 3 2.9 5.9 6.1 6.5 7.1.8 1.7.5 1.9-3.1 2.3-2.2.2-4.2.1-4.5-.2s-1.4-.6-2.5-.6c-1-.1-2-.2-2.1-.3-.2-.1-1.6-.4-3.3-.5-1.7-.2-4.5-1.7-6.4-3.5-1.8-1.7-3.7-3.1-4.2-3.1s-.9-.9-.9-2c0-2.7 1.1-2.5 4.4.5 3 2.7 5.2 2.5 3.7-.4-1.2-2.1-.9-5.4.4-6.3.5-.4.7-1 .3-1.3-.7-.7-4.9 1.4-6 3-.9 1.1-.8 1.3-1.2-6.3l-.3-5.2 2.4 1.5c1.2.9 2.3 1.2 2.3.8m256.5 103.4c1.6 5.1 3.2 9.3 3.6 9.3.3 0 1.1-1.5 1.7-3.3 4.4-13.2 5.6-15.7 7.3-15.7 1.1 0 1.9.2 1.9.4 0 .3-1.8 5.5-4.1 11.8-2.2 6.2-4.2 11.9-4.4 12.5-.6 1.9-4.2 1.6-5-.5-.4-.9-2.4-6.8-4.6-13-3.7-11-3.7-11.3-1.6-11 1.7.2 2.7 2 5.2 9.5m29.3-.4c1.2 1.2 2.3 3.4 2.4 4.7.3 2.4 0 2.5-5.7 2.8-8.4.4-8.9.6-6.9 3.7 1.9 2.8 5.8 3.3 8.3 1.1.9-.8 2.2-1.2 2.9-.7 2.2 1.4-2.4 5.1-6.4 5.1-4.4 0-9.4-4.5-9.4-8.5 0-3.2 2.4-8.1 4.7-9.4 3.1-1.8 7.8-1.3 10.1 1.2m21.8-.5c3.3 2.7 4.2 5 3.4 9.5-1 4.9-4.2 7.7-9 7.7-5.2 0-8.1-2.8-8.7-8.1-.4-3.8-.1-5 2.2-7.7 2.1-2.5 3.4-3.2 6.3-3.2 2.1 0 4.7.8 5.8 1.8"/><path d="M690.2 141.2c.3 2.8.7 3.3 2.8 3.1 1.4-.1 3.6.2 5 .7s4.1 1.2 6 1.5c1.9.4 3.9 1 4.5 1.6.5.5 1.6.9 2.5.9.8 0 2.1.4 2.9.9 1.3.8 1.3 1.2 0 2.7-.8.9-1.3 2-1.1 2.3s-.2.7-.8.9c-.9.3-.9-.1-.1-1.6s.8-2.3 0-2.7c-.6-.4-1.3.2-1.6 1.4-.4 1.7-1 2-3.2 1.5-1.4-.4-3-1.1-3.5-1.5-.6-.5-2-.9-3.3-.9s-2.3-.4-2.3-.9-2.5-.9-5.5-1c-3.1 0-6.1-.4-6.8-.8-1.5-.9-2.3-1.1-11.3-1.8l-7.1-.5.4 2.7c.9 6.4 2.7 13.3 3.4 13.3.4 0 1 .8 1.3 1.7.5 1.5 6.6 6.3 8.1 6.3.2 0 1.2-2.5 2-5.5.9-3 2.1-5.7 2.6-6 .5-.4.5.3 0 1.8-1.4 3.7-1.6 11.6-.3 12.9 1.2 1.2 1.6.7 2.5-3.7.3-1.1.5-.3.6 1.7.1 3 .5 3.8 2 3.8 1 0 3.9 1.1 6.4 2.4 2.5 1.4 4.8 2.2 5.2 1.8.3-.4.9-.2 1.3.4.4.5 2.9 1.5 5.5 2.1 5.7 1.2 5.5 1.5 11.1-11.9 3.7-8.6 3.7-8.7 1.8-10.6-1.1-1.1-2.8-2.5-3.8-3.1-1.6-1-1.3-1.1 1.6-.5 6.1 1.2 6.3 1.1 8.1-4.1 1.7-4.9 1.7-5-.3-5.8-1.2-.4-2.9-.5-3.9-.2-1.2.4-2.1.1-2.5-.9-.3-.8-1.2-1.2-2-.9s-2.6-.2-4-1.2c-1.4-.9-2.8-1.4-3.1-1.1s-1.5-.1-2.6-.9c-1.4-1-2.6-1.1-3.7-.5-1.3.7-2.2.5-3-.5-1.6-1.9-4-1.9-4-.1 0 .8-.5 1.8-1.2 2.2-.7.5-.9.1-.6-1.3.4-1.6.1-1.9-1.2-1.6-1 .3-2.1 0-2.4-.6-1.4-2.2-2.7-1-2.4 2.1M729 152.6c-2.4 5.6-2.5 6.4-.5 6.4.8 0 1.5.4 1.5.8 0 .5 2.4 1.9 5.3 3.2 2.8 1.4 6.3 3.2 7.6 4.2 3.5 2.6 4.3 2.3 7.4-3.1 3.2-5.8 3.4-7.5.9-6.6-1.1.3-2.9-.3-4.3-1.3-1.3-1.1-4.2-2.5-6.4-3.3-2.2-.7-4.9-2.1-6.1-3.1-1.1-1-2.3-1.8-2.7-1.8-.3 0-1.5 2.1-2.7 4.6M770.9 162.1c-3.2 3.6-5.9 5-5.9 3 0-.5-.6-.9-1.2-.8-4.5.1-5.8-.5-6.4-2.9-.8-3.1-1.9-2.2-5.4 4.3l-2.3 4.2 2.4 2c1.3 1.1 3.5 2.9 4.9 4s2.1 2.3 1.7 2.7c-.4.5-1.1.4-1.5-.1-1.3-1.8-5.1-3.5-6.7-2.9-.9.4-1.5 0-1.5-1 0-2.4-2.7-.8-4 2.4-1.2 2.9-.6 7 1.1 7 .5 0 .9.5.9 1.1s-.7.8-1.5.5-2.1-.8-2.8-1.1c-1.7-.7-6.6 9.3-5 10.3.6.4 1.9 2.2 3 4.1 3.1 5.7 5.2 5 10.6-3.4 4.9-7.8 6.1-8.8 6.9-5.7.5 1.9 14.5 10.2 17.1 10.2 1.7 0 5.9-4.4 5-5.3-.3-.4 0-.7.9-.7.8 0 2.1-1.1 2.8-2.5.7-1.3 2.3-2.8 3.4-3.1 2.8-.9 5.6-3.4 5.6-5.1 0-.8 1.2-2.4 2.7-3.7 3.1-2.7 2.7-5-1.2-6.8-2.2-1-2.8-.8-4 .8-.8 1-1.5 2.7-1.5 3.7 0 2.6-2.8 3.2-5 1.2-1.5-1.3-1.7-2.1-.9-3.1.6-.7 1.6-1.1 2.3-.8.6.2 2.2-.6 3.5-2l2.3-2.4-2.7-1.8c-1.4-1.1-3.9-2.9-5.5-4.2-1.5-1.2-3.1-2.2-3.4-2.2s-1.5 1.8-2.6 4-2.4 4-2.8 4.1c-.4 0-1.5.2-2.4.4-2.7.5-2.2-.7 2.1-4.9 2.2-2.1 3.7-4.4 3.4-5.1-1-2.8-3.2-2.2-6.4 1.6M724.3 163.7c-.3 1-1.6 4.4-2.9 7.5-1.2 3.1-2.5 7-2.9 8.7-.7 3.2-.4 3.4 7.2 4.6 2.9.5 4 1.1 3.7 2-.3.7.6 2.1 2.1 3.1 2.5 1.6 2.6 1.6 4-.2 3.8-4.9 3-7.8-2.7-9-3-.7-7.5-5-6.4-6.1.4-.4 1.6-.2 2.6.5 1.1.7 2.7 1.2 3.5 1.2s1.5.4 1.5 1c0 .5 1.3 1.6 2.9 2.4 3.2 1.7 3.8 1.4 6.3-3.9 1.3-2.8 1.3-3.2-.8-5.1-1.3-1.2-2.5-2-2.7-1.8-.2.3-1-.2-1.7-1.1-.7-.8-1.8-1.5-2.4-1.5-.6-.1-2.9-.9-5.1-2-5-2.4-5.4-2.4-6.2-.3M797.2 182.7c-1 1.6-2.2 3.9-2.5 5.3-.9 3.8-8 11.3-9.4 9.9-.8-.8-2-.3-4.2 1.9-3 2.8-3 3-1.3 4.9 1.9 2.1 6.3 5.3 7.3 5.3.4 0 1-1.1 1.3-2.5.5-1.8 1.5-2.7 3.5-3.1 2.8-.6 17.1-14.2 17.1-16.3 0-1.9-2.1-2.3-3.8-.8-.9.9-3 1.8-4.7 2.2l-3 .6 4-3.6c3.8-3.5 3.9-3.7 2.1-5.1-2.8-2-4.2-1.7-6.4 1.3"/><path d="M754.5 194.7c-3.6 4-7.4 9.6-7.1 10.2.3.4.7 2.9 1.1 5.6.3 2.8 1.3 7.4 2.3 10.3l1.8 5.3 2.5-2c3.3-2.6 16.9-18.6 16.8-19.7 0-.9-9.8-8.3-13.6-10.3-1.9-.9-2.5-.8-3.8.6M807.9 203.2c-3.5 4-7.9 8.8-9.6 10.6-1.8 1.9-3.3 3.7-3.3 4 0 1.2 10.5 14.2 11.4 14.2.6-.1 3.1-2.1 5.6-4.5 2.5-2.5 4.8-4.5 5.3-4.5 1.7 0 14.7-10.3 14.7-11.6 0-.8-.3-1.4-.8-1.4-.4 0-1.3-1.4-2-3-1.6-3.5-3.1-3.7-6.3-1-2.1 1.7-2.2 1.9-.5 2 1.5 0 1.6.3.6 1.5-.7.8-2.1 1.5-3.2 1.5-1.4 0-1.8-.5-1.4-1.5.7-2-.4-1.9-3.4.5-1.4 1.1-3.3 2-4.3 2-1.4 0-1.1-.6 1.5-2.7 3.9-3.2 4.8-4.4 4.2-5.4-.2-.4 1.2-1.3 3.1-1.9 3.5-1.1 4.8-3 2.1-3-.7 0-1.9-.7-2.6-1.5-2.3-2.8-4.7-1.5-11.1 5.7M773.6 207.7c-.3.3-.6 1.6-.6 2.7 0 1.7-.2 1.8-1 .6-.6-.9-1-1.1-1-.3 0 .7-1.5 2.8-3.2 4.6-1.8 1.9-4.6 5.1-6.3 7.1-1.6 2.1-3.5 4.3-4.1 4.9-1.7 1.9-3.4 8-3.2 11 .2 2.3.7 2.7 2.8 2.5 1.7-.2 2.5-.9 2.6-2.3.2-4.4.4-4.7 2.4-4.2 1.5.4 2.2-.2 3-2.8.8-2.4 2.3-4 5.3-5.5 2.3-1.2 5.5-3.5 7.1-5.1 2.6-2.7 3.4-3.1 5.2-2.8.4 0 1-.5 1.5-1.2 1.2-2-8.9-10.8-10.5-9.2M652.8 217.8c-8.1 13.3-10.8 17.8-10.8 18.5 0 1.3 10.3-.3 12.9-2 2.2-1.4 2.3-1.7.7-2.8-1.7-1.3-2-7.9-.4-6.8.5.2.6 1.3.3 2.3s-.1 2.1.5 2.5c1.3.8 1.2-1.5-.3-8.7l-1.2-5.7zM593.9 224c-4.6 3.9-8.8 7-9.3 7s-.3.6.3 1.3c.8 1.1.5 1.6-1.3 2.5-2 .9-2.6 2.1-3.1 6.7-1 7.8.3 8.7 5.1 3.4 2.2-2.3 4.7-5.1 5.7-6.1 2-2.1 2.2-3.4.5-4.1-.7-.3-.3-.6.8-.6 1.3-.1 3.2-1.6 4.7-3.9 2.8-4 6.2-12 5.5-12.7-.2-.3-4.2 2.7-8.9 6.5M782.9 227.7c-13.1 12.1-19.9 19.1-19.9 20.5.1 1 .4.9 1.3-.3.7-.8 3.3-2.5 5.8-3.7 8.1-3.9 9.2-2.6 2.5 3.1-2.5 2-5.2 3.7-6 3.7-1 0-1.3.6-.9 1.7s.3 1.4-.5.9q-1.2-.75-1.2 1.8c0 1.7-.4 2.4-1.3 2-2.2-.8-6.6 3.3-6 5.6.3 1.1.9 1.7 1.4 1.4s.9.2.9 1.2c0 1.5.2 1.5 2.5 0 1.3-.9 3.2-1.6 4.2-1.6 1.6.1 1.5.3-.4 1.9-1.2 1-2 2.1-1.7 2.3.2.3-.2 1.1-1.1 1.8-.8.7-1.5 1.7-1.5 2.3 0 .5.8.4 1.8-.4 3.1-2.7 9.1-5.3 9.9-4.5.4.5.2 1.1-.6 1.4-2 .7-9 7.2-10.2 9.4-1 1.8-.8 1.8 3-.1 2.2-1.2 5.2-2.1 6.6-2.1s2.5-.5 2.5-1c0-1.5 2.1-1.2 4.1.6s7.5 2.2 9.1.6c.8-.8.4-2.1-1.6-4.7-2.7-3.5-2.7-3.7-1-5.1 1.1-.8 3.7-2.4 5.9-3.5 2.2-1.2 4.2-2.3 4.3-2.4.2-.2-.8-2.1-2.2-4.2-1.4-2-2.6-4.1-2.6-4.5s-1.1-1.9-2.4-3.3c-2.6-2.8-3.4-2.7-7.3.8-1.9 1.6-2.5 1.8-3.8.7-2.2-1.8-1.9-2.6 1.4-3.9 1.5-.7 4.3-2.8 6.2-4.7 1.8-1.9 3.8-3.4 4.4-3.4 1.3 0 9.5-6.8 9.5-7.8-.1-.4-1.8-2.6-4-5l-3.8-4.3zM406 238.3c0 .8-1.1 2.3-2.5 3.3-1.5 1.2-2.3 2.5-2 3.5.3.9-.1 2.3-.8 3.1-.8.8-1.8 2.8-2.1 4.4-.6 2.9-.4 3.1 5.5 5.7 6.6 2.9 9 3.4 8.7 1.5-.2-.6.5-1.4 1.6-1.6 1.5-.3 1.8.1 1.4 2.2-.3 1.4-.1 2.6.3 2.6.5 0 .9-.7.9-1.5s.4-1.5.9-1.5 1.1-.8 1.5-1.8c.3-.9 1.1-2.5 1.8-3.4 1-1.5 1-2-.5-3-2.7-2-1.2-4.9 2.2-4.2 2.5.5 2.5.5.7-1-1-.8-5.4-3.4-9.7-5.6-5.5-2.9-7.9-3.7-7.9-2.7M466.5 244l-2.8 2.9 3.2 1.8c1.8 1 8 4.6 13.9 8 5.9 3.5 11.1 6.3 11.5 6.3.5 0 .5-.9.2-2-.4-1.2-.2-2 .5-2 .8 0 .8-.6 0-2-.6-1.1-1.6-2-2.3-2s-4.9-2.6-9.2-5.8c-11.8-8.7-11.7-8.6-15-5.2M429.6 253.5c-2.1 3.2-2 4.1.7 5 2.1.7 2.1.7.2 1.2-3.4.9-4.7 2.4-3.4 4 .9 1.1.8 1.7-.7 2.8-1.7 1.3-1.7 1.4-.2 1.5.9 0 2.3.6 3.1 1.4 2 2.1 4.8 1.4 7.2-1.8l2-2.8-2.8-2.2c-3.5-2.8-2.5-3.9 1.9-2.1l3.4 1.4v-3.4c0-2.8-.5-3.5-3.1-4.4-1.8-.6-4.1-1.1-5.3-1.1-1.7 0-1.8-.2-.6-1 .8-.5 1-1 .4-1-.7 0-1.9 1.1-2.8 2.5M441.8 268.7c-1.8 2.2-1.4 4.5 1 5.8 8.3 4.6 10.7 5.4 11.8 4 .6-.9 1.5-1 2.4-.5.8.5 1.1 1.2.7 1.6s-.2 1.3.4 2.1c1.3 1.5 3.3 1.8 2.4.4-.7-1.2 3.1-2.5 4.5-1.6 1.6 1 1.2 2.3-.7 2.7-1.3.3-.6 1 2.4 2.6 4.7 2.4 5.3 2.6 5.3 1.4 0-.5-1.1-1.5-2.5-2.2-4.6-2.4-2.6-3 3.1-.9 6.9 2.6 7.9 2.1 1.6-.8-11.9-5.5-18.3-8.3-19.2-8.3-.6 0-1-.4-1-.8 0-.8-9.2-7.2-10.2-7.2-.3 0-1.2.8-2 1.7M418.2 273c-.8 1.6-1.1 3.9-.7 5 .5 1.4.2 2-.9 2-2.8 0-1.7 2 1.4 2.6 3 .6 5.8 3 4.7 4-.3.3-1.9-.2-3.6-1-4.5-2.4-6.4-2.1-5.9.9.3 1.4.2 2.5-.2 2.5s-1.1 1.6-1.7 3.5l-1.1 3.5 5.1 1.5c6.6 2 6.3 2 8.2-1.7 1.5-3 1.5-3.4-.1-4.5-2-1.4-2-1.4 1.8-3.1 2.7-1.1 5.8-.7 5.8.8 0 .4-.9 1.5-2 2.5s-1.9 2.3-1.7 2.9c.3.6-.3 1.9-1.1 2.9-1.4 1.6-1.4 1.9.3 3.1 1.8 1.3 1.8 1.4 0 2.3-1.5.9-1 1.4 3.6 3.5 3 1.4 7.4 2.7 9.9 3.1l4.5.6-4.5-2.2c-2.5-1.2-5.6-3-7-4-2.4-1.7-2.4-1.7 3.9-1 5.6.5 6.4.4 5.8-.9-.5-1.3.1-1.5 3.5-1 3.1.4 4 .2 3.6-.8-.2-.8-1.3-1.8-2.4-2.4-1-.6-2.2-1.5-2.5-2-.4-.5-1.3.1-2 1.3-1.3 2-3.9 2.8-5.1 1.6-.3-.4-.1-1.7.6-3.1.9-2.2 1.6-2.5 4.5-2 1.8.3 4.1 1.2 5.1 2.1 2.3 2.1 4.3 1.9 5.8-.5.7-1.1 1.9-2 2.8-2 1.2 0 1.4-.7.9-3.3-.9-4.2-1.3-4.4-2.9-2.2-.8 1.2-1.9 1.6-3.1 1.1-1-.3-1.5-.9-1.2-1.3 1.2-1.1-1.5-3.3-3.9-3.3-1.5 0-2.4-.6-2.4-1.5 0-1.7-5-4-5.9-2.8-1.1 1.5-6.3 4.5-6.8 3.9-.3-.3-.1-1.2.6-2 .9-1.1.9-1.5-.1-1.8-1-.4-1-.8.1-2.2 1.7-2 1.3-2.5-5.4-5.6-5.5-2.7-6.8-2.5-8.3 1M635 276.2c-1.4 1.7-3.6 4.6-4.9 6.5l-2.5 3.4 3.5 2.9c4.3 3.7 6.9 4.6 8 2.9.7-1.1.9-1 .9.4 0 1.7.2 1.7 3.8-.3 5.8-3.3 7.9-5.2 6.5-5.7-.7-.3-1.3-.9-1.3-1.5 0-1.3-7.2-10.6-8.7-11.2-1-.4-1.1.4-.7 3.2.8 4.8.9 4.9 4.4 5.7 1.6.4 3.2 1.1 3.5 1.6.4.5-.5.5-2-.1-2.6-1-7.2-1.3-4.7-.3.6.2 1.2.9 1.2 1.4s-.6.8-1.2.6c-.8-.1-1.2.7-1 2.3.3 2.1 0 2-1.5-1-1.9-3.6-2.1-3.7-6.3-2.6l-2.5.7 2.5-1.5c1.4-.9 3.2-1.5 4.1-1.6 1.2 0 1.6-1 1.6-4.5 0-2.5 0-4.5-.1-4.5s-1.2 1.4-2.6 3.2M922.1 278.5c-1.8.8-4.4 1.5-5.7 1.5s-2.4.4-2.4 1c0 .5-.6 1-1.4 1-.7 0-1.9.7-2.6 1.5s-2.2 1.5-3.4 1.5-2.9.9-3.9 2c-1.2 1.5-2.9 2-6.4 2-5.1 0-5.1-.5.5-3.2l3.7-1.8-3.5.6c-5.2.8-12.4 3.6-13.3 5.2-.5.7-2 1.7-3.3 2.2s-2.4 1.7-2.4 2.6c0 1.2-.7 1.5-2.9 1.2-2.8-.4-2.9-.3-3.3 3.9-.2 2.4 0 4.3.4 4.3s1.5 1.4 2.3 3.1c1.2 2.2 2.1 2.8 3.5 2.4 2.1-.7 3.2.7 3.6 4.4.2 1.4.6 4.2.9 6.2.6 3.3.5 3.6-1.7 3.5-1.7-.1-2.4.5-2.6 2.1-.4 2.4 1.6 3.1 3.5 1.2.7-.7 1.4-.2 2.2 1.9 1.8 4.3 6.3 5.5 18.1 4.7l9.9-.8.6-2.9c.4-1.6 1.3-3.2 2.1-3.5s1.4-1.1 1.4-1.9.4-1.4 1-1.4c.5 0 1.3-1.2 1.6-2.6.4-1.5 1.2-2.3 1.9-2 .7.2 1.5-.4 1.8-1.5.6-2.3 3.7-2.5 7.6-.5s11 1 12-1.7c.4-1.2.4-3.2 0-4.6-.5-1.4-1.1-3.8-1.4-5.3-.5-2.4-1.1-2.7-6.3-3.4-3.1-.4-7.9-.8-10.7-.8l-4.9-.1.2-5c.2-2.8.9-6.4 1.7-8 .7-1.7 1.8-4.3 2.4-5.8 1-2.5 1.4-2.7 4.8-2.2 9.6 1.5 15.1 1.7 15.7.6.4-.6.2-1.1-.4-1.1s-.8-.5-.5-1c1-1.6-16.4-1.2-20.4.5M801.5 298.8c-3.8 1.3-5.1 2.2-5.3 3.9-.3 2.2-2.6 3.2-3.5 1.5-.2-.4-.2-.1-.1.5.2.7-.3 1.3-1 1.3-1.7 0-2.9 2.7-1.5 3.5.5.4.7 1 .4 1.5-.3.4.2 1.1 1.1 1.4 2.3.9 2.4.8 2.4-1.2 0-1 .3-2.1.6-2.5 1-1 3.4.4 3.4 2s.3 1.5 9.3-.8c4.1-1.1 4.9-3.7 2.2-7.5-.8-1.2-1.1-2.4-.8-2.8.3-.3.1-.6-.6-.6s-.9-.5-.6-1c.8-1.3-.1-1.2-6 .8M852.3 297.7c-3 .3-4.6 1-5.3 2.3-.8 1.5-2 1.9-4.8 1.9-3.3-.2-22.7 5.4-24.4 7-.4.3-.2 2.7.4 5.3 1 4 1.5 4.8 3.4 4.8 1.3 0 3.9-.9 5.9-2 2.2-1.2 5.4-2 8.5-2 2.7 0 5.2-.5 5.5-1 .3-.6 2.6-1 5-1s4.7.4 5 1c.7 1.1 4.5 1.3 6.9.4.9-.3 1.3-1 1-1.5-.5-.9 3-1.3 6.9-1 1.3.2 1.7-.5 1.7-3.3 0-3.3-.2-3.6-2.9-3.6-1.7 0-3.3-.5-3.6-1-.3-.6-2.1-1-4-1-3.5 0-5.3-1.4-3.4-2.5.6-.4 1.6-.2 2.2.4 1.2 1.2 8.9 1.5 10 .4.4-.3 0-1.5-1-2.5-1.6-1.8-3.3-1.9-13-1.1M409 300.1c0 .6-1.1.8-2.7.5-1.6-.4-4.8-.3-7.2.2-3.3.5-4.6 1.3-5.2 3.1-.7 1.9-.6 2.2.6 1.7.8-.3 1.5-.1 1.5.4 0 .6-.8 1-1.7 1-1.6.1-1.6.2.2 1.6 1.8 1.3 2.1 1.3 3.1-.1.6-.8 1.5-1.5 1.9-1.5s.2.6-.4 1.4c-1.5 1.8-.6 2.4 5 3.2 2.4.3 8.5 1.6 13.4 2.9 5 1.2 10.8 2.6 13 2.9 2.2.4 5.2.9 6.6 1.2 2 .4 3-.1 4.3-2.1 1.6-2.5 1.6-2.5-1.1-3.5-1.5-.6-3.7-1.5-4.8-2s-5.1-1.9-9-3c-3.8-1.2-8.6-2.9-10.5-3.8-3.1-1.4-3.3-1.6-1.2-2 3.2-.5 2.7-1.8-.9-2.6-4.3-.8-4.9-.8-4.9.5M977.8 314c-.9.6-6.5 1.3-12.5 1.6-12.8.6-15.3 1.1-15.3 2.6 0 .6-1 2.2-2.1 3.5-2.3 2.4-2.2 2.5 2.8 3.6 2.9.6 10.8-1 16-3.3 2.2-1.1 6.2-2.4 8.7-3.1 2.5-.6 4.6-1.5 4.6-2s1.1-.9 2.5-.9c1.6 0 2.5-.6 2.5-1.5 0-1.7-4.5-2-7.2-.5M264.4 315.8c.3.5 0 1.3-.6 1.5-.7.3.1.6 1.9.6 5.5.2 4.6 1.9-1.4 2.7-4.7.6-5.3.9-3.3 1.5 2.2.6 1.9.7-1.5.9-8.4.5 6.6 2.1 16.3 1.8 8.4-.3 11.2.2 8 1.5q-1.2.6.3.6c.9.1 2-.6 2.3-1.5.3-.8 1-1.3 1.5-1s1.2-.1 1.5-1c.5-1.4.1-1.6-2.8-1.1-3.3.5-10.1-.5-11.4-1.8-1.1-1 2.1-2.5 5.8-2.6 2.2-.1 1-.5-3-.9-3.6-.4-8.3-1.1-10.4-1.5-2.7-.6-3.7-.5-3.2.3M413 317.8c0 1.1-.9 2.9-2 4.2s-1.9 2.5-1.7 2.6c.9.9 16.9 3.4 21.8 3.4 9.6 0 12.2-4.8 3.7-6.8-2.4-.6-8-2-12.6-3.1-10-2.5-9.2-2.5-9.2-.3M857.3 317.2c-1 .4-3.4.7-5.3.7-5.6.2-11.2 2.1-11.7 4.1-.3 1-1.6 2-3.1 2.2-4.1.5-6.4-.2-5.8-1.8.8-2.1-2.4-2.2-7.3-.2l-2.6 1.1 2.5.8 2.5.7-2.2.7c-2.7.9-2.8 1.4-.8 6.2.8 1.9 1.5 4.4 1.5 5.4s.9 2.3 1.9 2.9c2.5 1.3 6.8 1.3 7.3-.1s14.6-1.5 17.8-.1c2.1.9 1.3 1.1-4.7 1.1-5.8.1-7.3.4-7.3 1.6 0 .8-1.4 2.8-3.2 4.4-2.8 2.5-3 3.1-1.9 4.5.7.9 1.9 1.6 2.7 1.6.7 0 2.1 1.3 3.1 3 2 3.4 5.6 4 7.2 1.2.6-.9 1.1-1.1 1.1-.5 0 1.8 9 1.6 11.3-.1.9-.7 1.7-2.1 1.7-3s1-2.1 2.3-2.7c3-1.4 4.9-7.3 3.1-9.7-.7-.9-1.4-2.7-1.4-4s-.5-3.2-1.1-4.3c-1.2-2.3-.2-6.2 1.4-5.6.7.2 1.3 1.3 1.5 2.5.2 1.3 1.1 2.2 2 2.2 1.4 0 1.7-.7 1.4-4l-.4-3.9-6.7.5c-4.4.4-6.1.2-5.2-.4.7-.5 1-1.5.7-2.1-.5-.7.7-1.1 3.8-1.1 3.5 0 4.8-.5 5.6-1.9.5-1.1 1-2.2 1-2.4 0-.7-10.8-.3-12.7.5M891.7 337c-1.4 1.1-3.6 2-5 2-1.8 0-2.7.7-3.1 2.5-.9 3.6-.3 4.2 5.9 5.5 3 .6 5.5 1.4 5.5 1.7 0 .2-2.4.3-5.2.1-4.4-.2-5.3 0-5.6 1.4-.3 1.6.5 1.8 6.7 1.8 4.1 0 7.1-.4 7.1-1s.9-1 2-1c1.6 0 2 .7 2 3s.4 3 2 3c1.1 0 2 .5 2 1.1 0 .8 1.8 1 5.5.7 6.6-.6 10.5-3.9 10.5-9.2 0-2.9-.6-3.6-4.8-5.9-2.6-1.4-6.8-2.8-9.3-3-3-.2-5.4-1.2-6.7-2.5-2.7-2.7-6.2-2.8-9.5-.2M740.7 347.3c2.1 2.6 7.6 7.8 15.7 15 3.3 2.8 7.2 6.4 8.7 7.8 1.6 1.5 3.1 2.4 3.4 2.1s.5 0 .5.6c0 .7-.3 1.2-.7 1.2-1.1 0-7.6-5.2-11.5-9.2-2-2.1-4.1-3.8-4.7-3.8s-2.7-1.7-4.6-3.7-3.5-3.2-3.5-2.6c0 1.3 4.1 5.5 12.4 12.7 3 2.7 5.3 5.3 5 5.7-.3.5.7 1.4 2.1 1.9s2.3 1.4 2 2c-.4.6.1.7 1.1.3 1.3-.5 1.5-.3.9.7q-.75 1.35.3.6c.6-.4 4.6 1.2 8.7 3.6 4.2 2.4 8.5 4.8 9.6 5.4 1 .6 2.7 1.8 3.7 2.7 1 1 2.2 1.4 2.7 1 .4-.5.5-.2.1.4-.4.8-.1 1.3.8 1.3s1.6.4 1.6.8c0 .5 1.5 1.6 3.4 2.5 3.5 1.6 11.7 7.4 14.8 10.3.9.9 2.1 1.3 2.6 1 .6-.3 1.3-.1 1.5.4.3.6.4.5.3-.2-.2-.7-.8-1.2-1.4-1.1-.5.1-3.6-2.3-6.9-5.5-6.3-6.1-13-11.6-17.8-14.7-1.6-1-3.4-2.2-4-2.7-5.6-4.4-7.3-5.7-9.4-6.7-3.9-2.1-30.1-24.3-29.6-25.2.3-.4.1-1-.5-1.4s-.8-1-.5-1.5c.7-1.1-3.1-3.2-6.3-3.6-2.3-.2-2.3-.2-.5 1.9"/><path d="M749.5 348c.4.6.1 1-.5 1-1.5 0 9.2 9.7 22.5 20.6 5.2 4.3 24.9 18 29.1 20.2 1.3.7 2.4 1.8 2.4 2.4 0 .5.7.8 1.5.4.8-.3 1.5 0 1.5.6s.3.8.7.5c.7-.7-5.1-6.7-6.5-6.7-.5 0-1.7-.9-2.7-2s-3.8-3.1-6.2-4.5c-2.4-1.5-4.1-3-3.8-3.6.4-.5 0-.9-.8-.9s-2.1-.8-2.8-1.7c-1-1.1-1-1.4-.1-.9.6.4 1.2.3 1.2-.2s-1.3-1.5-3-2.2c-1.6-.7-4.9-3.1-7.3-5.4-2.3-2.3-4.9-4-5.6-3.8-.6.2-2.1-.4-3.2-1.4-1-.9-1.9-1.4-1.9-1 0 .3-1.8-.6-4-2-3.8-2.6-5.1-4.4-3-4.4.6 0 1.9.9 3 2s2.8 2 3.7 2c1.4 0 1.3-.3-.5-2-1.2-1.2-2.2-2.5-2.2-2.9 0-.9-2.5-2-8.8-4-2-.6-3-.6-2.7-.1M1000 359.5c0 .8-.4 1.5-1 1.5-.5 0-1 .4-1 1 0 .5 1.2 1 2.8 1 2 0 2.3.3 1.3.9-1.2.7-1.2 1.3-.3 2.4.7.7.9 1.6.6 2-.3.3.5.8 1.8 1.2 1.3.3 3.8 1.4 5.7 2.3 2.4 1.2 3.5 1.4 3.8.5.7-1.8 6.1-7.2 6.7-6.5.3.3.6-.9.6-2.6 0-2.7-.4-3.2-3.7-4.1-2.1-.6-6.8-1.1-10.5-1.1-5.4 0-6.8.3-6.8 1.5M691.4 362.9c-1.4 2.2-2.4 4.7-2 5.6.3.9 0 1.5-1 1.5-1.1 0-.5 1.5 2.2 5.2 2.1 2.9 4.4 5.7 5 6.3.7.5 1.5 2.1 1.9 3.4.6 2 .4 2.3-1 1.8-1.2-.5-1.6-.2-1.3 1 .2.9-.8 2.8-2.1 4.1-3.3 3.3-1.8 4 2.4 1.1 2.4-1.7 3.3-2.9 2.9-4.2-.3-.9-.1-1.7.5-1.7 1.5 0 1.4-5.3-.1-6.9-.9-.8-1.3-4.5-1.3-10.9 0-8.3-.2-9.7-1.7-10-1.1-.2-2.7 1.1-4.4 3.7M406.1 375.1c-1.9 1.1-4.3 1.8-5.3 1.6-1-.3-2.1-.1-2.4.4s-.1.9.3.9c.5 0 .9 1.6.9 3.5s.4 3.9 1 4.4c.5.5 7.9 1.2 16.4 1.6 12.6.5 15.3.4 14.3-.6-2.7-2.7-1.5-3.9 3.9-3.7l5.1.1-3.3 1.7c-2.1 1.1-2.9 2-2.1 2.4.6.4 2.3-.2 3.9-1.2 7.5-5.4 8.1-9.9 1.2-10-2.2-.1-4.9-.3-5.9-.7-3.8-1.2-8.8-1.8-16.6-2.1-6.6-.3-8.6 0-11.4 1.7M832.8 379.7c-2.9.5-4.2 1.7-5.2 4.9-.7 2.3 2.6 6.2 7.9 9.5 3.9 2.5 16.5 2.7 16.5.4 0-.8-.6-1.5-1.2-1.5-.7 0-2.4-.9-3.8-1.9-2.4-1.9-2.4-2-.6-4 1.1-1.2 2.5-2.1 3.1-2.1 2 0 2.6-2.8.9-4.5-1.5-1.5-10.5-1.9-17.6-.8M458 421.2c-.5 1.3-.9 1.7-.9 1-.1-1.6-4.3-1.5-8.4.1-3.2 1.4-11.7 10-11.7 11.9 0 .6-.8 1.7-1.7 2.5-1.7 1.3-1.6 1.4.3.8 1.9-.5 2.2-.1 2.6 3.5.4 4.6-.8 6.2-2.7 3.7-2.3-3.1-3.6-2-2.9 2.5.4 2.4 1 4.7 1.5 5.2.5.6.9 1.8.9 2.8s.4 1.8.9 1.8 1.6.2 2.4.5c1 .4 1.4-.2 1.5-2.5 0-1.6-.4-3-.9-3-.6 0-.7-.5-.4-1 1-1.6 3.5-1.2 2.9.5-.4.8-.2 2.1.4 2.8.5.6 1.2 2.4 1.6 3.9.5 2.1.3 2.8-.8 2.8-1 0-1.3-.6-1-1.5.7-1.7-.4-1.9-2.6-.5-1.2.8-1.2 1-.1 1 .9 0 1.1.7.8 2.1-.7 2.7 1.8 3.6 4.2 1.5 1-.9 2.4-1.6 3.2-1.6s3.7-1.5 6.6-3.4c2.8-1.8 8.5-5.2 12.7-7.5s7.6-4.7 7.6-5.2.9-.9 2-.9 2-.4 2-1c0-1.1-2.7-.2-10.2 3.6-4.5 2.3-15.2 6.4-16.6 6.4-.2 0 .2-.7.9-1.6s6.9-4.3 13.7-7.6c6.9-3.2 12.2-6.2 11.8-6.5-.3-.3-1.4 0-2.3.8-1.7 1.3-1.7 1.3 0-.7 2.6-3.1 2.2-4.7-1.1-3.9-2.6.5-2.9.4-2.9-2.4 0-2.1.7-3.2 2.4-4 1.4-.6 2.3-1.7 2.1-2.3-.7-2.1-6.7-2-10.2.1-3.4 2.1-6.6 2.8-6.6 1.3 0-.8 6.1-3.8 7.2-3.5.8.3.4-2.4-.5-3.3-.4-.4-.9 0-1.2.8-.4 1-1.4 1.4-2.6 1.1-2.2-.6-2.5-1.9-.6-2.6.7-.3.5-.6-.6-.6-1-.1-2.2.9-2.7 2.1M819.3 439.4c-1.8.6-3.3 1.4-3.3 1.9 0 .4.9.5 2 .2 2.3-.7 2.5-.3.8 2.8-1.7 3-2.8 3.7-6 3.7-3.4 0-3.7 1.6-.5 2.6 1.2.4 2.4 1 2.7 1.4.8 1.2 8.8 5 10.6 5 1 0 1.4-.5 1.1-1.4-.3-.8-.2-1.6.3-1.8s1-2.1 1.2-4.3c.3-3.6.1-4-1.9-3.8-2.9.3-3.1-2.5-.3-3.5 1.9-.7 1.9-.8-.7-2.3-2.2-1.1-3.6-1.3-6-.5M789.7 457.4c-1 1.4-2.4 2.6-3.2 2.6-1.8 0-1.9 2.1-.2 3.9.9 1 .9 1.2 0 .7-1.5-.8-5.3 1.4-5.3 3.1 0 1.4 11.6 13.3 12.4 12.6 1-1.1 4.7.9 4.2 2.3-1.1 2.8 2.7 1.3 5.8-2.2 1.7-2.1 4.1-4.8 5.4-6.1 1.2-1.3 2.2-2.8 2.2-3.2s.9-1.6 2-2.6c3.2-2.9 2.4-4.8-4-8.8-4.6-3-7.3-4-11.8-4.4-5.4-.5-5.9-.4-7.5 2.1M453.3 461.5c-2.9 1.3-5.3 2.9-5.3 3.5 0 .5-.9 1-1.9 1s-2.1.7-2.5 1.5c-.3.8-.1 1.5.3 1.5.5 0 .7 1 .4 2.1-.5 1.9-.3 2.1 1.8 1.7 1.3-.3 3.2-.9 4.1-1.2 1.9-.9 1.8.4-.2 4.7-.7 1.5-1 3-.5 3.5.4.4 1 .1 1.2-.6.7-1.9 3.5-1.5 3.1.5-.2 1-1 1.7-1.6 1.5-1.3-.2-1.5 1.1-.6 4.5 1.1 3.9 2.7 3.2 14.6-6.7 2.4-1.9 2.3-2.8-.8-7.3l-2.5-3.8-3.3 2.1c-1.8 1.1-4 2-4.7 1.9-.8 0 0-.7 1.6-1.4 3.8-1.7 7.9-6 7-7.4-.4-.8-1.6-.4-3.6.9-3.2 2.4-3.8 1.3-1.3-2.5 2-3.1 1.2-3.1-5.3 0M816.7 469.7c-2.7 6-5.1 9.7-6.9 11.1-1 .7-1.8 1.9-1.8 2.7s-1.4 3.1-3.2 5.1c-2.7 3-3 3.9-2 5.5 1.1 1.7.9 1.9-2 1.7-2.8-.3-3.3 0-3.4 2-.1 1.3.5 2.6 1.2 2.9.8.3 1.4 1.8 1.4 3.3 0 1.6.5 3.2 1 3.5.6.4 2 2.5 3.2 4.8 1.9 3.9 2.1 4 2.9 1.9.5-1.2 1.7-2.2 2.8-2.2 1.3 0 2.1-.9 2.6-3 .4-1.7 1.3-3 2.2-3s1.3-.6 1-1.4c-.3-.7-.1-1.8.5-2.4 1.3-1.3 4.8-.3 4.8 1.3 0 1.8 9.7 11.5 11.5 11.5.8 0 2.2-1.2 3.2-2.6s3.5-4.8 5.7-7.6l3.8-5.1-3.1-2.4c-1.7-1.3-3.1-2.9-3.1-3.4 0-1.4 3.3-1.1 5.7.6 1.8 1.3 2.2 1.2 3.7-.4.9-1 2.1-3.3 2.6-5 .8-2.9.6-3.3-1.6-4.1-2.9-1.1-3.2-3-.4-3 1.1 0 2 .4 2 1 0 .5.9 1 2 1 3.6 0 2.4-3.8-1.7-5.8-2.1-.9-4.2-2.3-4.6-3-.4-.6-1.8-1.2-3-1.2-2.4 0-9.5-2.1-17.2-5.2-8-3.2-7.9-3.2-9.8.9M756.3 479.2c-1.7 2.1-1.1 5.1 1.4 7.8s2.9 4 1.3 4c-.7 0-.7.6 0 2 .6 1 1.6 1.7 2.4 1.4.7-.3 1.9.3 2.7 1.2.8 1 .9 1.5.2 1.1-2.5-1.5-2.3 1.5.4 6.5 3.2 6.1 6.1 9.1 7.7 8.1 2.9-1.7 11.2-8.2 12.4-9.6s.4-2.5-6-8.6c-8.8-8.5-17.6-15.1-19.9-15.1-.9 0-2.1.6-2.6 1.2M515.3 483.5c-.8.8-2.6 1.2-4.8 1-1.9-.2-3.8.1-4.1.6s-1.8.9-3.4.9c-2.2 0-2.8-.4-2.4-1.5.9-2.2-6.3.9-11 4.9l-3.9 3.3 2.1 2.1c1.2 1.2 2.6 2.2 3.1 2.2.6 0 1.6 1.2 2.3 2.6.7 1.5 2.7 3.7 4.4 5l3 2.4 10.1-10.5c5.6-5.8 9.5-10.5 8.7-10.5s-1.4-.9-1.4-2c0-2.3-1-2.5-2.7-.5M422 491.8c-3 1.5-6 3.4-6.7 4.2-1.6 1.9-1.7 4.1-.2 3.7.6-.1 1.9 1.3 2.8 3.1 1.5 3 1.9 3.2 5.1 2.7 3.3-.6 3.4-.5 1.5.8-1.1.9-1.7 1.8-1.4 2.2.6.6 12.3-6.7 13.3-8.3.3-.5-.4-3.2-1.6-6.1-2.6-6.1-4.4-6.4-12.8-2.3M521.3 494.4c.1.6-.6 1.1-1.5 1.1s-2.9 1.2-4.5 2.6c-4.7 4.2-6 4.5-2.5.6 1.7-2.1 3.2-4.1 3.2-4.5s-2 1.5-4.4 4.3c-2.5 2.7-4.2 5.4-3.9 5.9s.1.6-.4.3c-1.2-.8-4 2.3-3.7 4 .1.7.2 1.7.3 2.1 0 .4 2.5 2.3 5.5 4.1 6.6 4 7.5 3.6 14-5 5-6.6 5.7-8.6 2.6-6.9-2.5 1.3-2.7-.5-.6-3.6 2.1-2.9 1-6.2-1.9-6.2-1.3 0-2.3.6-2.2 1.2M539.9 503.3c-4 5.1-4.5 6.1-2.3 4.9 2.4-1.3 5.7.8 4.8 3.1-.8 2.1-3.2 2.9-4.1 1.3-2.2-3.6-4.2-2.5-11.1 6.2-10.8 13.8-13.5 18-12.9 19.6.4.9 1.5 1.6 2.6 1.6 1 0 2.1.9 2.4 2 .3 1.3 0 2-.8 2s-3 2.8-5 6.2c-4.2 7.5-6.3 10.3-7 9.6-.3-.3.3-1.6 1.3-2.9 5.5-7.4 8.4-16.9 5.1-16.9-1.3 0-7.8 7-8.5 9.2-.3 1-.9 1.8-1.3 1.8-.7 0-3.1 4.3-3.1 5.5 0 .3.9.5 1.9.5 1.1 0 2.7 1.3 3.7 2.9 1.8 3.1 5.9 5.5 7.5 4.6.5-.4.9-.1.9.5 0 2.6 8.6 7.6 14.7 8.6 3.2.5 3.3.4 7.4-8.2 2.2-4.8 4.5-9.8 5-11.2s1.2-2.2 1.5-2c.2.3-1.2 4.3-3.2 8.9s-3.9 10.4-4.2 12.8c-.5 4.4-.5 4.4 2.2 3.7 2.2-.5 3.3-.2 5.1 1.9 3.6 3.8 4.5 3.1 4.7-3.8s-.3-25.4-.8-27.7c-.1-.8-.3-7.4-.3-14.6-.1-19-.9-19.5-9.7-5.9-3.8 5.8-7.9 12.2-9.2 14.2-2.5 3.9-2.3 6.7.4 5.6 1.2-.4 1.5-.2 1.2.8-.3.8-1.2 1.2-1.9 1-3.4-.9-4.3-.2-7.3 5.7-1.8 3.5-3.9 6.8-4.5 7.5-1.6 1.5 1.5-5.4 4.7-10.6 1.3-2.2 2.1-4.5 1.8-5.2-.3-.8.3-1.7 1.2-2s5.9-7.8 11.1-16.8c5.2-8.9 10.3-17.1 11.3-18.3s2.1-3.8 2.5-5.8c.5-3.4.4-3.6-2.3-3.6-2.1 0-3.6.9-5.5 3.3"/><path d="M786.9 506.6c-4.1 4.3-11 10.9-12.6 11.8-1.2.6-2.1.2-3.5-1.5-1.1-1.3-1.7-1.9-1.4-1.2.4.6.2 1.4-.4 1.8-1.7 1-1.2 2.9 2.1 7.8 2.5 3.8 3.6 4.6 5.7 4.5 1.5-.2 3.5-1.2 4.4-2.3 1.8-2 1.8-2 3.3-.1 2.4 3.1 1.8 3.6-3.5 3.6-4.3 0-5 .3-5 1.9 0 1.1.4 2.2.9 2.5s1.1 2.4 1.3 4.6q.3 3.9-.6 3c-1.3-1.3-4.9-1.3-6.3.1-.8.8-1.3.5-1.8-1-.6-2.1-2.9-2.8-3.9-1.2-.3.4-.1 2.3.4 4 .7 2.4.6 3.1-.3 2.8-.7-.2-1.4-1.4-1.5-2.8-.5-2.9-2-4.9-3.7-4.9-1.8 0-4.7 6.2-3.4 7.4 1.2 1.3 1.2 4.6-.1 4.6-.5 0-1-.9-1-2 0-1.2-.7-2-1.7-2-2.6 0-4.7 1.6-3.9 2.9 1.3 2-.6 3.6-2 1.6-1.2-1.6-1.5-1.6-6.1.6-6.4 3.1-11.4 6.5-10.6 7.3.4.3-.3.6-1.5.6-2.6 0-5.2 5-5.2 10.2 0 3.4.3 3.8 2.4 3.8 1.3 0 4.7-1.1 7.5-2.6 5.2-2.5 6.3-4.8 3.9-7.2-.7-.7-.8-1.2-.4-1.2s1.6 1 2.7 2.2c1 1.3 1.8 1.7 1.9 1 0-.6 1-1.2 2.3-1.2s4.9-1.3 8-2.9 5.7-2.6 5.7-2.3c0 .4.5-.1 1.1-1.1.5-.9 1.7-1.7 2.5-1.7s2.8-1.4 4.5-3.1c2.5-2.5 3.3-2.9 4-1.8 1.2 1.9.6 3.3-1.7 3.8-1.9.3-5.4 3.7-5.4 5.3 0 .4-1 .8-2.3.8-1.2 0-3 .8-3.8 1.7-2.7 3-5.7 5.2-6.3 4.6-.3-.4-.6-.1-.6.5 0 .7-.6 1.2-1.3 1.2-1.6 0-5.7 4.2-5.7 5.8 0 .7.7 1.2 1.5 1.2q1.5 0 1.5 3c0 2.2-.4 2.8-1.5 2.4-2-.8-2 3.4 0 6.3 1.3 1.9 2 2.1 4.3 1.2 3.5-1.2 12-5.7 15.4-8.1 1.4-1 3.3-1.8 4.2-1.8s1.6-.4 1.6-.9.9-1.3 2.1-1.6c1.1-.4 2.4-1.8 3-3.2.6-1.5 1.5-2.3 2.6-2.1 1 .2 2.5-.4 3.3-1.2 1.9-1.8 1.1-3.7-3.3-8.6-1.9-2.1-2.5-3.4-1.7-3.9 2-1.3 3.9.3 5.1 4.4 1.1 3.5 1.6 4.1 4.1 4.1 1.5 0 2.8-.4 2.8-.8s.9-.8 1.9-.9c2.8-.2 6.9-3.1 7.6-5.4.4-1 1.3-1.9 2.1-1.9 1.8 0 1.9-4.6 0-5.3-1.2-.5-4.9-6.6-6.7-11.5-1.3-3.3 1.4-2.9 3.1.5 2.9 5.8 9.5 11 8.9 7-.3-1.5 1.1-4.8 2.8-6.5.7-.7 1-2.4.7-4.1-.5-2.5-.3-2.9 2.5-3.4 1.9-.4 3.1-1.3 3.1-2.3 0-.9.9-2.3 2.1-3.3l2.1-1.7-3.6-5.3c-2-2.9-3.6-4.8-3.6-4.1s-.5.7-1.4-.3c-.8-.8-3.3-1.7-5.5-2.1-3-.5-4.4-1.3-5.5-3.4-2.1-3.9-7.2-9.2-8.9-9.2-.8 0-2.5 1.2-3.8 2.6"/><path d="M735.8 521.6c-.4.3-.2 1.9.3 3.7 1.1 4 .6 4.4-1.6 1.1-1.3-2.1-1.9-2.4-2.6-1.3-.6 1-.9 1.1-.9.1 0-.6-.6-1.2-1.3-1.2-1 0-1.4 2.3-1.5 8.7-.1 4.9-.5 11.6-.8 14.9-.3 3.4-.3 7.1 0 8.2.6 1.9.8 1.9 6.3-.9 3.1-1.6 6.4-3.6 7.3-4.4s2.2-1.5 2.9-1.5c.6 0 1.4-.6 1.7-1.4s1.1-1.3 1.7-1.1c.7.3 2.1-.2 3.1-1 1.8-1.4 1.9-1.7.4-7-1.7-6-1.1-7 1.4-2.7 1.4 2.3 5.8 4.3 5.8 2.6 0-2.9-7.3-10.4-10-10.4-1.1 0-2-.6-2-1.4s-1.9-2.4-4.3-3.5c-4.7-2.3-5.1-2.4-5.9-1.5M630 536.5c-1 2.3-1.4 2.6-1.7 1.2-.2-.9-.8-1.7-1.2-1.7-1 0-4.3 15.8-4.5 21.5 0 2.5-.4 4.5-.8 4.5s-1.2 2.5-1.9 5.5c-1.1 4.8-1 5.7.4 7.3 2.2 2.4 2.1 2.9-.3 3.5-2.7.7-2.5 3.3.4 6.2 2.4 2.4 2.5 2.4 3.1.4.4-1.1.4-3.6 0-5.5-.7-4.2 1.2-7 3.3-4.7 1 1 1.8 1.1 3.3.3 1.1-.6 2.9-1 3.9-.8 1.9.3 2-.4 2.2-11.2.1-6.3.1-15.6 0-20.5-.2-8.8-.3-9-2.6-9-1.7 0-2.7.9-3.6 3M639.5 535.7c-.7 2-.8 26.3-.1 27 .3.3.9-1 1.4-2.8.8-3.2.9-3 1.5 3.1.3 3.5 1 6.6 1.6 6.8s1.1 1.7 1.1 3.3.4 2.9.9 2.9c.4 0 .6-1.7.4-3.8-.3-2.3.1-4.5 1-5.7 1.4-1.8 1.6-1.6 2.2 3 .9 6.9 1.2 7.5 3.4 7.5 1.3 0 2-.9 2.3-2.9.2-1.7.1-2.8-.4-2.5-.4.3-.8.3-.8 0s-.9-5.1-1.9-10.8c-1.1-5.7-2.5-14-3.2-18.6l-1.1-8.2H644c-2.7 0-4 .5-4.5 1.7"/></svg>