<svg xmlns="http://www.w3.org/2000/svg" width="1706.667" height="960" viewBox="0 0 1280 720"><path d="M0 360v360h236.5c224.6 0 236.5-.1 236.5-1.8.1-2.1 2.7-5.8 3.6-4.9.3.3-.1 2-.9 3.6l-1.5 3.1h35.1c19.4 0 34.6-.4 33.9-.9-1.1-.6-1.1-2-.2-6.9.6-3.4 1.2-12 1.3-19.1s.5-12.7 1-12.4c.4.2.7.9.7 1.4 0 .6.7 1.7 1.5 2.6 1.3 1.3 1.5 3.5 1 13.2-.4 6.4-.8 12.6-1.1 13.8-.2 1.1-.1 3.5.2 5.2l.6 3.1h48.5l1.3-10.2c.7-5.7 1.6-10.8 2-11.3.5-.6.8-5.6.8-11.2 0-5.7.6-11.1 1.2-12.3s.9-2.7.7-3.5c-.3-.7-.1-1.7.5-2.3s1.2-3.8 1.2-7.1c.1-3.2.4-5.5.7-4.9.7 1 1.9-6.5 1.9-11.6 0-2.1.3-2.7.9-1.7.8 1.2 1.4-2 2.7-13.9 1.2-11.7 1.6-14 2.5-14 .5 0 .9-1.5.9-3.3 0-1.7.5-4.8 1-6.7 1.5-5.1 5.1-22.6 6-29 .7-5.6 2.8-18.8 5.6-36 .9-5.2 1.7-10.3 1.7-11.3.1-.9.4-1.7.7-1.7s1.1-1.4 1.9-3.1c.9-2.1 1.6-2.7 2.1-1.9.5.7 1.5 1 2.3.7.9-.3 2.1.1 2.7.9 1.5 1.7 5 1.9 5 .2 0-.6.8-.4 1.9.6 1.8 1.7 2.1 3.1 3.7 22.1 1.3 15.1 3.9 32.2 6.4 42.5.5 1.9 1.2 5.7 1.6 8.5.4 2.7 1.5 6.8 2.4 9 1.7 3.7 4.5 18.6 6.9 36.5 1.8 12.9 2.1 15.3 3.1 21.5 2.1 13 2.6 20.1 2.2 32-.3 7.1-.8 12.2-1.3 11.9s-.9-6.3-.9-13.2c0-7.8-.5-15.4-1.4-19.6-.9-3.8-2.1-11.6-2.7-17.5-.6-5.8-1.3-11.3-1.6-12.1s-.6-3.8-.8-6.5c-.7-9-1.7-14.5-2.6-14.5-1.1 0-.3 10.1 1.1 15.7.8 3.3.5 4.3-1.6 4.3-1.2 0-2.5-7.4-2.9-16.6-.1-2.9-.9-6.3-1.8-7.8-1.8-2.7-2.3-7.6-.8-7.6.5 0 1.2.8 1.4 1.8.4 1.4.5 1.4.6-.3 0-1.1-.4-2.7-.9-3.5-.8-1.2-1-1.2-1-.1 0 1-.5 1-2.6-.3-1.5-1.1-4-1.6-6.2-1.4-3.4.3-3.7.5-3.8 3.6-.1 2.4.4 3.6 1.8 4.1 1.8.6 1.8.7-.2 2.9-1.1 1.2-1.8 2.2-1.4 2.2.3 0 2.1-1.6 3.9-3.6 2.3-2.5 3.4-3.1 3.8-2.1.5 1.4-.5 3.9-1.7 3.8-2.1-.3-2.5.4-2.8 5.1-.4 6.6-2.7 7.9-2.9 1.6-.2-4.3-.2-4.3-.8-.8-1.1 6-2.4 1.5-2.4-7.9.1-5.8-.4-9.3-1.3-10.9-.8-1.2-1-2.2-.5-2.2.6 0 .7-.9.2-2.2-.5-1.5-2-2.5-4.2-3-5.4-1.1-6.9-.2-6.9 4.1 0 3.8.1 3.7-6.5 4.4-1.4.1-2.1 1.1-2.3 3-.4 3.3 1.5 6 3.5 5.3.8-.3 1.1-.1.8.4-.3.6-1.2 1-1.9 1-.8 0-1.6.8-1.9 1.8-.4.9-1.5 4.1-2.6 7-1.9 5.1-1.7 9.5.4 9.3 1.2-.1 1.5 3.3.5 4.9s-3.3.2-2.6-1.6c.3-.8.1-1.4-.4-1.4-.6 0-1 .2-1 .5s-.9 4.7-1.9 9.8c-3 13.9-4.9 25.1-6.1 36.2-.6 5.5-2.2 15.1-3.6 21.4-1.3 6.3-2.4 11.8-2.4 12.3 0 .4 28.6.8 63.6.8 60 0 63.5-.1 63-1.8-2.4-7.9-2.8-12.5-2.4-23.4.3-6.9 1-12.3 1.6-12.7.6-.3 1.6-4.6 2.3-9.4s1.4-8.6 1.6-8.4.4 12.1.6 26.3c.1 14.2.6 26.7 1.1 27.6.8 1.7 14.9 1.8 275.7 1.8H1280V0H673l.6 2.7c.4 1.6 1.1 3.1 1.6 3.4s2.2 4.5 3.8 9.3c2.2 6.5 3.1 11.4 3.6 19.8.4 6.2 1 10.6 1.3 9.8s1.7-1.6 3-1.8c1.4-.2 2.1 0 1.7.6s-.2 1.3.4 1.7c.5.3 1 2.1.9 3.8 0 1.8-.3 2.6-.6 1.9-.8-2-2.3-1.4-2.4 1-.1 1.8-.3 1.6-1-1-1.3-4.4-1.9-4-1.9 1.4 0 3.6.3 4.5 1.4 4.1 3.8-1.5 2.7 18.6-1.3 24.2-3.9 5.5-9.1 17.7-10.2 23.9-1.2 6.8-1 7.6 1.5 6.6 1-.4 1.6-1.9 1.7-4.3l.2-3.6.6 3.5c.5 3.2.9 3.5 4.3 3.8 2 .2 4.2 1 4.8 1.8 1.5 1.7 4.4 1.8 7.2.3 1.8-.9 2-.9 1.5.4-.4 1.1.3 1.9 2.4 2.6 1.6.5 2.9.7 2.9.2 0-.4.7-1.6 1.5-2.7 1.3-1.6 1.4-1.6.9-.1-1 2.8 2.2 6.7 5.6 6.7 1.5 0 3.6.7 4.5 1.6 1.2 1.3 1.9 1.3 3 .4 3.3-2.7 4.7 1.6 1.5 4.5-1.8 1.6-2 1.6-2.6.1-.7-1.8-3.9-2.2-4.9-.6s-2.3 1.2-3-1.1c-.4-1.1-.9-1.8-1.2-1.5-.4.3-1.1-.1-1.8-1-.9-1.4-1.4-1-2.7 2.5l-1.7 4.2 2.7 1c1.5.6 4 1.1 5.5 1.1 1.5.1 3 .5 3.3.9.2.5 1.1.6 1.8.3s1.9.2 2.6 1.1c.7.8 2.3 1.5 3.6 1.5 1.5 0 2.4.6 2.4 1.5 0 1.6-1.6 2-6.4 1.6-2.6-.3-2.8-.1-1.7 1.3 1.5 1.8 3.6 2.2 2.5.4-.4-.7-.3-.8.4-.4 1.9 1.1 1.4 2.6-.8 2.6-1 0-3.4-.6-5.2-1.4s-4.8-2-6.5-2.6c-1.8-.7-3-1.6-2.7-2.1s-.4-.9-1.5-.9c-1 0-2.2.6-2.4 1.2-.4.9-.6.8-.6-.2-.1-1.2-1.7-1.6-7.4-1.7-5.4-.2-7.5-.7-8.4-2-.7-.9-1.6-1.4-1.9-1-.4.4-1.3.2-2-.4-3.5-2.9-4.8 4.5-1.4 7.6 1.1 1 2 2.2 2 2.8 0 1.6 4.4 5.7 6.3 5.7.9 0 1.7.4 1.7 1 0 2 1.6.9 2.8-1.8l1.2-2.7-.4 3c-.2 1.6.1 3.8.6 4.9 1 1.8 1.1 1.8 2.3-1l1.3-2.9.1 3.9c.1 3.5.3 3.8 2.5 3.2 1.6-.4 2.8-.1 3.3.8 1.1 1.9 8.2 6 9 5.2.4-.3 1.5.2 2.6 1.1 1 1 2.2 1.7 2.6 1.6.3-.1 2.3.2 4.5.8 2.1.6 3.9.9 4 .7 2.1-3.5 6.7-16.2 6.3-17.2-.3-.8-.2-1.6.2-1.8 2-.7 6.1-8.3 6.1-11.2q0-3-.9-1.8c-.6 1-1 1-2.1-.2-.7-.9-1.6-1.3-2.2-1-.5.3-1.6 0-2.5-.7-.9-.8-2.1-1.4-2.7-1.5-.6 0-1.9-.2-2.8-.2-2-.2-2-3.4-.1-5.3.9-.9 1.6-.7 2.8.5.9.9 2.9 1.6 4.4 1.6s3.7.9 4.9 2l2.2 2 2-2 2-2v2.5c0 2 .5 2.5 2.5 2.5 1.5 0 2.9.9 3.6 2.2.8 1.4 1.4 1.8 1.6 1.1.3-.9 1-1 2.2-.3 1 .5 2.2.6 2.6.2.3-.4 1.3.2 2.1 1.2.8 1.1 1.4 1.6 1.4 1.2s1.7.2 3.7 1.4l3.7 2.2 1.8-2.2c2.8-3.5 2.2-4.5-4-7.2-6.6-2.8-12.7-9.3-10.2-10.8 1.8-1.1 8.6 1.1 14.3 4.8 2.7 1.7 5.5 2.8 6.2 2.6.7-.3 2.1-2.3 3.1-4.4 1.1-2.2 2.2-4 2.6-4 .8 0 .1 2.1-1.9 6-1.7 3.3-1.6 5.7.1 6.3 1.8.7 3.4-1.2 8-9.7 3.4-6 3.7-7.1 2.6-9.4-.8-1.9-1.4-2.2-1.9-1.3-.6 1-1 1-1.6.2-.7-1.2 1.1-4.1 2.6-4.1.5 0 .9.6.9 1.4 0 2.5 2.4 2.4 5.4-.3 1.6-1.4 2.7-1.9 2.4-1.1-.4.8-.9 2.3-1.3 3.2-.5 1.3.3 2.2 3.4 3.8 2.3 1.1 4.1 2.7 4.1 3.5 0 2.2.1 2.2-6.6-3.4-1.5-1.2-2.7-.3-5.6 4.4-7.8 12.5-9.2 16.5-6 16.5 1 0 3.3 1.6 5.2 3.5s4 3.5 4.7 3.5 1.3.4 1.3 1c0 .5.4 1 1 1 1.1 0 6.8 3.8 9.6 6.5 1.2 1.1 4.7 3.8 7.8 6s6.3 5 7.1 6.2c2.3 3.4 5.3 3.9 8.1 1.2 2.4-2.2 2.4-2.2 2.4-.2 0 1.2-.5 2.3-1.2 2.5-1.5.5-1.9 3.9-.6 5.5 1.6 1.9 5.2 1.6 7.3-.7 2.9-3.2 3.5-2.3 1.2 2l-2.2 3.9 5.5 5.6c3 3 5.2 5.5 4.8 5.5-.3 0 1.5 2.3 4.2 5.2 3.3 3.5 5.2 4.9 6.4 4.5 1.2-.5 1.4-1.2.6-3.1-1-2.7-1.8-3.7-8.6-10.9-4.3-4.4-5.4-6.7-3.4-6.7 1.5 0 8 6.9 8 8.5 0 .7.7 1.5 1.5 1.9.8.3 1.5 1.2 1.5 2.1 0 .8.6 1.5 1.3 1.5s1.8.9 2.5 2 1.8 2 2.5 2c.6 0 1.3 1.4 1.4 3.1s1 3.9 2 4.8c3 2.7 2.8 5-.6 6.2-1.7.6-3.1 1.7-3.1 2.5 0 .9-1.2 1.4-3.6 1.4-3.1 0-3.7-.4-5-3.5-.8-1.9-1.8-3.5-2.3-3.5-.4 0-3.4 1.9-6.7 4.2-12 8.4-12.7 9-11.3 9.9 1 .6.5.9-1.4.9-3.4 0-9.4 5.7-7.8 7.3.7.7.7 1.6 0 2.9-1.2 2.2.3 2.4 2.1.3.7-.8 2-1.5 2.9-1.5 1.1.1.7.8-1.4 2.5-3.1 2.5-5.5 3.2-5.5 1.6 0-.5-.9-1.3-2.1-1.6-1.1-.4-2.5-2-3.1-3.6s-1.7-2.9-2.7-2.9c-1.6 0-8 4.2-13.9 9.2-3.4 2.8-3.9 3.8-2.1 3.8 2 0 7 6.5 8.7 11.4 2 5.7 3.4 6.5 7.6 4.3 1.7-.8 4.9-2.3 7.1-3.3s4.5-2 5-2.3c.6-.2.4.2-.3 1.1-2 2.5 1.8 4.3 6.1 2.9 2.8-1 3.3-.9 5.1 1.3 2.8 3.2 4.6 3.6 7.9 1.8 2.9-1.7 3.3-2.7 1.7-3.7-1.3-.8-1.3-2.5.1-2.5.6 0 1.7.7 2.5 1.5.9.8 2.6 1.5 4 1.5 2.3 0 2.7.4 2.7 3.5 0 .8-.1 1.9-.2 2.5-.1 1.3-4.4 1.3-5.7 0-1.5-1.5-5.7 1.2-6.4 4-.4 1.9.1 3 2.2 4.8 1.5 1.3 2.8 3.2 2.8 4.3 0 1.4 1 2 4 2.5 5.1.8 5.1 2-.1 3.4-3.5 1-4.4.9-6-.6-1-.9-1.9-2.6-1.9-3.7 0-1.6-.5-1.8-3-1.5-3.4.5-3.6.3-1.5-1.8 3.7-3.8.1-5.4-4.9-2.2-2 1.3-3.6 3-3.6 3.9 0 2.4-2.7 4.2-5.1 3.6-2.9-.8-6.9.9-9.9 4.2-1.7 1.8-4.1 3-6.8 3.5-3.1.4-4.2 1.1-4.2 2.4s-.2 1.4-.9.3c-.6-.9-1.1-1-1.5-.2-.4.6-1.2.9-1.7.6-1.1-.8-1.1-.8.5 4 .8 2.1 2 4.1 2.7 4.4 1.2.3 1.2.2.1-1.2-1.1-1.3-1-1.6.5-2.1 2.1-.6 4.3-.4 6 .7 1.1.7 8.9-.6 10-1.7.3-.3-.2-1.2-1.1-2.1-2-2-2.1-4.1-.1-4.9 1-.3 2 .5 3 2.3 1.6 3.3 4.8 4.4 9.7 3.5l3.3-.7-2.7 2.2c-3.2 2.6-3.4 3.4-1.3 5.5.8.8 1.2 2.1.9 2.9-.3 1 .1 1.7 1.3 2 1.5.3 1.5.6-.7 1.6-2.3 1-2.2 1.1 1 .5 4.5-.8 5.5-1.5 4-2.4-1.8-1.1 1.4-2.6 7.5-3.5 5.3-.7 9.7-2.5 6.2-2.5-1 0-1.6-.4-1.2-1s1.5-.6 3.1 0c3.7 1.4 6.5 1.2 10.4-.8 1.9-.9 6.3-2.8 9.8-4.2 5.4-2.1 7.9-4 5.5-4-.5 0-.8-2.3-.9-5.1-.1-3-.6-5.4-1.4-5.9-.7-.5-1.4-1.7-1.5-2.7 0-1.1-1.1-3.3-2.3-4.8-1.2-1.6-2-3.6-1.7-4.5 1.1-3.5-.5-5.1-4.4-4.5l-3.6.6 2.4-2.1c2.9-2.5 1.6-4-2.5-3.2-1.4.2-2.4 0-2.4-.7 0-.6.7-1.1 1.5-1.1s1.5-.4 1.5-.9c0-.4-1.1-.6-2.4-.4-1.9.4-2.4.1-2.2-1.3.2-1 .8-2 1.4-2.2 1.5-.5 1.6-3.2.1-3.2-.6 0-1.6-.6-2.3-1.3-1.7-1.7-3.2-6.2-1.8-5.3.5.3 1.3-.1 1.6-1 .3-.8.2-1.2-.3-.9s-1.2.1-1.6-.4c-.3-.5-1.4-.8-2.5-.6-3.5.7-1.9-2.8 1.8-3.7 1.6-.5 2.2-.2 2.2 1.1 0 2.2 3.1 5.1 5.4 5.1.9 0 1.5.4 1.2.9s.1 1.4.9 2.1 1.5 1.9 1.5 2.6c0 2.5 3 1.5 17.4-5.7 19-9.5 23.3-11.4 21.6-9.4-.7.8-4.5 3.1-8.4 5s-8.2 4.1-9.6 4.9c-1.4.7-6 3-10.3 5-4.2 2.1-7.7 4.2-7.7 4.8s.9.8 2 .5c2.2-.6 2.3-.2 1.1 2.8-.8 2 .7 5.9 3.7 9.7.8.9 1.2 2.5 1 3.5-.4 2.5 2.3 6 5.5 7.2 2.4.9 2.6 1.3 1.5 3-.9 1.5-.9 2.5 0 4.6.7 1.4 1.2 3.7 1.2 5.1 0 2.5.2 2.6 4.3 2.1 2.3-.2 5.3-.7 6.7-1.1s6.1-1.4 10.5-2.2c8.2-1.6 12.8-3.3 9.1-3.4-3.9 0 .5-2.8 7.2-4.5 3.7-1 10.2-2.8 14.5-4.1s8.6-2.4 9.5-2.3c2 0-8.3 3.9-18.5 6.9-4 1.1-7.3 2.3-7.3 2.5 0 1.2 17.6-2.5 21.3-4.5 1.2-.8 1.7-.7 1.7.3 0 1.5-4.5 3.2-12 4.6-6.1 1.2-15.2 4.8-16.2 6.3-.4.8-.8.8-.8.2s-1.3-.9-3-.6c-2.5.4-2.8.7-1.9 1.9 1.1 1.2.9 1.3-1.2.8-2.7-.7-11.8 3.1-15.8 6.5-1.8 1.6-2.2 2.7-1.7 5 .4 2 .1 3-.7 3-.6 0-.4.5.6 1.1s1.7 2.2 1.7 3.8c0 2.4.5 3 3.1 3.5 2.8.5 3.1.9 2.6 3.5-.3 1.5-.2 3.2.3 3.7s1.1 2.4 1.5 4.1c.5 3 .3 3.3-1.9 3.3-2.9 0-4.3 1.7-2.8 3.2.8.8 1.5.8 2.6-.1 1.3-1.1 1.8-.7 3.3 2.6 1.2 2.4 3 4.3 5.1 5.2 4 1.8 3.7 3.2-.9 4.4-3.9 1-4.9 2.1-4.9 5.9 0 2 .8 3.2 2.8 4.2 2.5 1.4 2.5 1.5.5 1.6-1.2 0-2.5.5-2.9 1.2-1.1 1.8 2.6 3.8 7 3.8 2.3 0 4.7.7 5.8 1.7 1 .9 2.1 1.3 2.6.8.4-.4.1-1-.5-1.2-2-.7-1.5-2.3.7-2.3 2.3 0 2.6 2.2.6 3.9-1.1.9-2.5.9-6.1 0-2.5-.6-7.5-.9-11.1-.6-6.3.5-6.4.4-7-2.2-1-4.8-1.3-5.1-4.3-5.1-3.5 0-4.8-1.5-3.1-3.5 1.7-2.1.5-5.9-2.5-7.5-2.2-1.2-2.5-2-2.5-7.2V326h-3.5c-5.6 0-3.9-2.5 3.5-5.1 3-1 4.6-2.2 4.8-3.5.3-1.9-.1-1.9-6.5-1.2-14.3 1.5-20.9 2.6-23.8 3.9-1.6.6-3.6 1.1-4.2 1-.7-.1-1.3.5-1.3 1.2 0 1.7-1.9 2.6-3.7 2-.7-.3-1.3-1.1-1.3-1.9 0-1.5-3.8-1.7-8-.4l-2.5.8 2.4.8c2.3.7 2.3.8.5 2.1-1.5 1.1-1.7 1.7-.6 3.3.6 1.1 1.2 3.6 1.2 5.5 0 5.8 5.9 9.7 9.4 6.2 1.5-1.5 17.4-1.7 17.8-.2.2.6-2.3 1.1-5.6 1.3-5.2.3-5.8.5-5.3 2.3.3 1.1 0 1.9-.7 1.9-1.6 0-6.6 4.5-6.6 5.9 0 .5 2.2 1.7 4.9 2.6 3.8 1.2 5.3 2.4 6.3 4.6.9 2 1.8 2.7 2.8 2.3.8-.3 4-.9 7.2-1.3 5.8-.7 8.8-2.3 8.8-4.7 0-.8 1.6-2.1 3.6-2.9 4.5-1.8 5.4-1.9 5.4-.2 0 2.9 5.8 6.9 10.6 7.5 3.2.3 5.7 1.3 7.4 2.9 3.4 3.3 6.2 4.3 11.8 4.3 2.9 0 6.5.9 9.4 2.2 4.1 2 4.7 2.7 4.8 5.4 0 2.7-.4 3.2-3.1 3.8-1.7.3-4.8.6-6.8.6s-4.2.4-5 .9c-.9.6 1.7 1.1 7 1.6 4.6.4 11.3 1.1 14.9 1.6s8 .9 9.9.9h3.3l-.4-6.1c-.3-4.1-1-6.6-2.1-7.3-1.4-1.1-1.2-2 2.3-8.7 2.2-4.1 4.4-8.3 4.9-9.4.8-1.9 6.9-7.5 8-7.5.3 0 1.3.5 2.1 1 1.2.8 1.3 1.2.2 1.9-.8.4-1.2 1.7-1 2.7.3 1.7 1.4 1.9 9.7 2.2 10.4.3 13.1-.7 9.5-3.6-1.9-1.6-.8-1.7 18.5-1.6 11.4 0 21.4.4 22.4.8.9.5 1.7 1.5 1.7 2.3 0 1.6.6 1.7-21-.3l-6.5-.6-2.3 4.2c-2.4 4.5-2.2 6 .9 6 1 0 2.7.4 3.7.9.9.5 2.8 1.3 4.2 1.9 2.4.9 2.3 1-2.2 2.2-2.7.7-4.8 1.5-4.8 1.9 0 1.3 2.4 3.1 4.2 3.1.9 0 3.6 1 5.9 2.2s6.7 2.4 9.7 2.6c3.5.3 6.3 1.2 7.6 2.3 1.1 1 1.8 2 1.5 2.1-.2.2-7.8.1-16.9-.2s-16.9-.3-17.3.1c-.5.4-1.1 2.6-1.4 5-.3 2.6-.1 3.9.4 3.2.7-.9 2.1-.6 5.8 1.2 6.3 3.3 14.5 3.5 14.5.5 0-1.1-.4-2-1-2-.5 0-1-.5-1-1.1 0-.9 6.5-.5 11.1.7 2.2.6.6 4.2-2.9 6.9-2.2 1.6-2.9 1.7-5.6.5-1.7-.7-7.3-1.6-12.5-2.1s-9.8-1.4-10.2-2-1.2-.8-1.8-.4c-.9.5-1.1-.8-.6-5.2.7-5.7.6-5.9-1.9-7.1-3.3-1.5-15-1.6-17.7-.2-2.1 1.2-2.5 4.4-.9 8.6.8 2.1.7 4-.6 8-2.2 7.1-.9 11 4.8 14.3l4.2 2.4 1.6-2.1c1.4-1.7 2.9-2.1 7.6-2.2 3.3 0 6.6-.1 7.4-.1 1.4-.1 11.4 1.5 16.5 2.5 1.1.2 4.3.9 7.1 1.5 3.3.6 7.3.7 11.5.1 3.5-.5 6.9-1 7.5-1 1.3 0 5.9 3.8 5.3 4.4-.5.5-16-.8-33.1-2.8-5.9-.7-11.3-.9-11.9-.5-1.4.8 3.1 3.3 7.9 4.4 1.7.3 3.2 1 3.2 1.4 0 1.3 11.5 6.1 14.6 6.2 1.6 0 3.8.4 4.9.9 2.7 1.1-6.9.4-11-.8-3.5-1.1-9.4-3.6-14.6-6.3-4.6-2.4-6.5-2.4-7.8-.1-.9 1.5-1 1.4-1.1-.6 0-1.2-.8-2.6-1.7-2.9-1-.4-2.1-1.1-2.4-1.6-.4-.5-2-.2-3.8.7-2.6 1.4-3 2-2.1 3.5.9 1.8.8 4-.5 7.2-.3 1-.2 1.9.3 2.3 1.5.9 7.4 1.7 6.9.9-.3-.5.6-.9 1.9-.9 1.3-.1 2.3.1 2.2.5-.2 2.2.7 3 4.9 4.1 7 1.7 10.1 5 4.7 5-1.6 0-2.3-.4-1.8-1.2.4-.6.3-.8-.4-.4-.6.3-2.1.2-3.4-.3-1.4-.5-3-.6-3.7-.1-.9.5-.5.9 1.3 1.4 1.4.3 2.6 1.1 2.6 1.6 0 .6 1.7 1 3.8 1 3.7.1 9.2 3.6 9.2 6 0 .5.5 1 1 1 1.6 0 4.6 3.3 4.5 5 0 1.1-1.2 1.5-4.5 1.6-3.2 0-4.5.5-4.5 1.5 0 .9 2.2 1.7 6.8 2.5 3.7.6 6.7.8 6.7.5s1.1 1 2.4 2.9c2.3 3.4 2.3 3.5.4 4.2-1 .4-1.7 1.2-1.4 1.7s0 1.1-.8 1.4-3.1-1.1-5.4-3.4c-3.5-3.4-4.6-3.9-8.7-3.9-5.3 0-5.8 1.9-.9 3.2 1.6.4 4 1.7 5.2 2.8 1.2 1.2 2.7 1.8 3.3 1.4.6-.3.5.3-.2 1.4-.7 1.2-1.7 1.8-2.1 1.6-.4-.3-.8.5-.9 1.8 0 1.5-.3 1.8-.6.8-.7-1.9-3.3-4-4.9-4-.6 0-1.4 1.1-1.6 2.5-.4 1.7.1 2.9 1.6 3.8 2.9 1.9 7.6 3 7.6 1.7 0-.5-.6-1-1.2-1-.9 0-.8-.3.2-1 1.1-.7 1.7-.4 2.2 1 .4 1.1 1.4 2 2.3 2 1.3 0 1.3.3.3 2-.8 1.3-2 1.9-3.1 1.6-3-.7-4.5.3-3.9 2.7.8 3.5 2 4.4 5 3.9 1.8-.2 3.3.3 4.5 1.6 1.8 1.9 1.7 2.1-.5 3.6-3.5 2.5-9.4 2.1-12.6-.9-2.5-2.4-2.6-2.7-.9-3.6 1.8-1 1.7-1.3-.9-4-1.5-1.6-3.3-2.9-4-2.9-1.5 0-2.4-5.8-1-6.4.7-.3.6-.5-.2-.5-.9-.1-1-.5 0-2 .9-1.4.8-2.2-.2-3.3-1.5-1.6-6.4-1.2-5.3.5q.45.9-.6.3c-.6-.4-.9-1.2-.6-1.7.4-.5-.5-.9-1.8-.9-1.4 0-2.7-.7-3.1-1.5-.5-1.5.6-1.8 6.6-1.8q2.7.15 2.1-1.2c-.2-.8.5-1.8 1.6-2.5 3.5-1.8 2.4-3-2.8-3-2.8 0-5.3-.5-5.6-1-.4-.6-1-.8-1.4-.6-.4.3-.5-.8-.3-2.4.3-2.4 0-3.2-1.9-3.9-3.8-1.6-7.3-4.7-6.5-5.9.4-.7 1.5-.6 3.4.4 2.9 1.5 6.2 1.9 6.2.6-.1-2.3-5.9-8.7-8.5-9.3-1.7-.4-4.1-1.1-5.5-1.4l-2.5-.7 2.4 1.8c3.9 2.8 6.3 5.5 5.6 6.2-.3.3-1.5.1-2.5-.6-1.1-.7-3.1-1.2-4.4-1.2-3.7 0-5.6-1-5.6-3.1 0-1-.5-1.9-1.1-1.9-.5 0-.8-.4-.5-.8.2-.4.2-1.2-.2-1.7-1.1-1.6-7.2-4.5-9.2-4.5-2.3 0-3.7-2-2.1-2.9.7-.5.8-1.7.1-4-.5-1.9-1.2-6.6-1.6-10.6-.5-6.1-.4-7.3 1-7.8 2.3-.9 2-3.7-.5-3.7-1.1 0-1.8-.4-1.5-.9.9-1.4-1.7-7.5-3.4-8.1-.8-.3-5.3-.6-10-.8s-14.8-.7-22.5-1.2c-11.8-.7-14.4-.6-16.4.7-1.7 1.1-2 1.7-1.1 2.3 1.6 1 .4 3-1.8 2.9-.9 0-3.5-.9-5.7-2s-3.2-1.7-2.2-1.5c1.1.4 1.7 0 1.7-1s.6-1.4 1.5-1c.8.3 1.5.2 1.5-.3s-1.8-.8-3.9-.8c-3.3 0-4 .3-4.3 2.1-.2 1.1-1.3 2.5-2.5 3.1-2.9 1.3-4.3 4.6-4.3 10.5 0 7.4 1.3 8 22.2 9.1 15.1.9 20.9 1.6 27.9 3.3 5.9 1.5 14.2 7.8 13.7 10.3-.3 1.6-1.6 1.8-10.3 1.9-6 0-10.9.5-12.3 1.3-1.3.7-4.5 1.3-7.2 1.5-2.7.1-5.2.5-5.5.8-.4.3.5 1.7 1.8 3s2.8 3 3.3 3.8c1.2 2 13.5 13 14.5 13 1.1 0 12.8 6.9 16.4 9.7 1.7 1.3 4.1 3.1 5.3 4 3.7 2.8 6.2 5.6 6.2 6.9 0 3.2-8 5.6-10.8 3.2-.9-.8-4.7-2.8-8.4-4.3-3.7-1.6-6.5-3.2-6.3-3.5.2-.4-.9-.4-2.5-.2-6.3.9-4.7 4.2 6.8 13.5 3.4 2.8 6.2 5.4 6.2 5.8 0 1.5-4 2-7.5 1l-3.6-1 3.1 3.5c3.4 3.9 3.7 4.9 1.4 5.8-3 1.1-4.7.6-8.8-2.8-2.3-1.8-5.5-4-7.2-4.9-1.8-.9-4.3-2.9-5.6-4.5-1.4-1.6-3.5-3.3-4.6-3.7-1.2-.3-2-1.1-1.7-1.6.4-.5-.5-.9-1.9-.9s-2.7.4-3 .8c-1 1.7.6 4.9 3.2 6.5 3.2 1.8 9.6 7.7 9.1 8.1-.2.2-2.2.7-4.3 1.2-3.3.8-4.8.5-8.8-1.4-2.7-1.3-5.3-2-5.9-1.6-.6.3-1.7-.2-2.4-1.2-1.2-1.7-1.2-2.1.3-3.2 1.4-1.1 1.2-1.2-1.8-1.2-1.9.1-4.2.1-5 .1-.8-.1-3.4.2-5.7.5-3.1.4-4.7.2-5.8-.9-1.7-1.8-2-3.7-.5-3.7.6 0 1-.7 1-1.6 0-1 .6-1.4 1.5-1 .8.3 1.5.1 1.5-.4 0-1.5-3.8-5-5.5-5-.8 0-1.5-.4-1.5-.9 0-1.8-16.1-15.1-18.3-15.1-2.2.1-2.2.1-.2 1.2 1.1.6 3 2.2 4.2 3.5 1.9 2 2 2.5.8 3-1.9.7-1.1 4 1.6 6.6 1.6 1.5 1.7 2.1.7 3.7s-1 2.2.1 3.2 1.2 1 .7.1c-1.5-2.6 1-1.2 2.9 1.7 1.1 1.6 3.1 3.4 4.5 4 1.4.7 3.9 1.9 5.5 2.7 1.7.9 4.4 2.3 6 3.1 1.7.9 3.3 2 3.6 2.5.4.5 3.5 2.3 7 4.1 8.6 4.3 29 15.7 30.9 17.2.8.7 4.8 2.9 8.8 4.9 6.5 3.4 8.9 5.5 6.2 5.5-.5 0-1-.4-1-.9s-1.5-1.4-3.2-2.2c-1.8-.7-8.9-3.9-15.8-7.2-35.7-17-35-16.7-35-14.5 0 .7-1.4 3-3 5.2-1.6 2.1-3.2 5.1-3.5 6.7-.4 1.7-1.7 4-2.8 5.3-5.5 5.9-7.8 14.4-3.7 13.3 1.3-.3 2 .2 2.4 1.7 1 3.7.7 5.6-1 5.6-.8 0-2.2.7-3 1.5s-2.2 1.8-3.1 2.3c-2.3 1.3-.3 4.4 5.2 8.2 2.5 1.7 4.5 3.6 4.5 4.1q0 1.65-4.5-2.1c-3.1-2.5-7.5-5.2-7.3-4.3.1.4-.2 2.3-.6 4.2-.6 2.4-.4 3.6.5 4.2.8.5.9.9.3.9-.5 0-1.5-.5-2.2-1.2-.8-.8-1.5-.8-2.7.2-1.9 1.6-1.9 4 .1 6.8.9 1.3 1.4 3.2 1.1 4.3-.3 1-.2 1.7.3 1.4.6-.4 2 1.6 2 3 0 .2-1.5-.1-3.2-.6-2.8-.8-3.6-.6-5 1.1s-2.1 1.9-3.7 1.1c-2.5-1.4-4.1-1.4-4.1 0 0 .6.9 1.3 2 1.6s1.8.9 1.5 1.3c-.3.5.3 1.1 1.4 1.5 2 .6 5.6 5.3 4.8 6.2-.8.7-5.8-2.8-8.7-6.1-2.6-2.9-2.7-2.9-5.4-1.1-4.3 2.9-6.1 8.5-2.6 8.5 1.3 0 2 .7 2 1.8s.9 2.7 2 3.7 1.8 2 1.5 2.3c-.2.2-2.5-1.6-4.9-4.2-4.2-4.2-8.6-6.1-8.6-3.5 0 .5-.4.8-.9.5s-1.9.4-3.2 1.7c-1.3 1.2-4.2 3.6-6.4 5.1-2.2 1.6-5.4 4.3-7.2 6-1.7 1.7-4 4-5.2 5-1.1 1-1.8 2.3-1.5 2.8.3.4-.7.8-2.3.7-3.7-.2-7.1 1.3-10.6 4.5-1.5 1.4-3.4 2.6-4.1 2.6-1.3 0-4.4 1.4-7.6 3.5-.8.5-2.2 1-3 1.2-.8.1-1.6.7-1.8 1.2-.2.6-.9 1.1-1.5 1.1-2.2.1-8.7 3.6-8 4.4.4.4-.3.9-1.5 1.3-1.5.4-2.2 1.3-2.2 3 0 2-.3 2.3-1.3 1.5-.7-.6-2.2-.9-3.3-.6-1.6.4-2 1.2-1.8 3.7.2 1.8.1 2.4-.2 1.5-.6-2-3.9-3.3-5.6-2.1-.7.4-2.2.8-3.3.8s-3.5.9-5.3 2c-2.7 1.6-3.2 2.4-2.7 4.5 1.5 6.3 6.9 23.1 9.1 28.3 2.7 6.4 2.9 7.6 1.3 6-.5-.5-3.1-7-5.7-14.3-2.6-7.2-5.1-13.2-5.7-13.1-.5 0-1.2 3.7-1.5 8.1s-.8 7.9-1.1 7.8c-.3-.2-1.3.3-2.3 1.1-.9.8-1.9 1.1-2.3.8-.3-.3-.1-4.3.5-8.9 1-8.1 1.3-9.8 2.5-12.8.3-.8 1.1-11.6 1.7-23.9.9-17.2 1.5-23 2.7-24.8 1.3-1.9 1.5-5.1 1.4-16.6-.1-7.8-.4-15.6-.7-17.2-.3-1.7-.7-7.5-.9-13-.3-5.5-1.2-12.7-2.1-16-.8-3.3-2-7.9-2.6-10.3-.6-2.3-1.5-4.2-1.9-4.2s-.6 1.9-.4 4.2c.5 5.2.5 14.1 0 14.6-.2.2-.6-1.3-1-3.4-.3-2.2-1.3-6.2-2.1-8.9-.8-2.8-1.4-6.1-1.3-7.5.2-3-4.2-13-6.5-14.9-1.4-1.2-1.6-.9-1.7 2.5-.1 3.1-.3 2.6-.9-2.1-.4-3.3-1.1-6.8-1.5-7.8-.7-1.7-.6-1.7 2.3 0 2.2 1.3 3.4 2.9 4.1 6 .6 2.3 1.5 4.5 2.1 4.8.5.3 1 1.4 1 2.4s.7 2.4 1.5 3.1 1.5 2.4 1.6 3.9c0 1.4.3 2 .6 1.3.2-.6 1-.9 1.5-.6.8.5.9-.7.3-3.7-.4-2.4-.9-5.7-1.1-7.2s-.8-3.6-1.4-4.7c-.5-1-1-2.6-1-3.5 0-.8-.7-3.1-1.5-5.1-.8-1.9-1.4-3.5-1.3-3.7 0-.1-.9-2.2-2.2-4.7-1.9-3.8-2.3-6.3-2.5-15.6-.2-9.8-1-14.6-3.2-20.4-1.6-4.1-1.7-5.1-.8-10 .8-4.1.8-3.8.6-6.8-.1-2.8-2.7-2.9-4.2-.1-.8 1.6-.8 4.6.1 12 .7 5.5 1.6 10.1 2 10.4s.4 2.4-.1 4.8c-1.1 6.3-.2 11.3 2.7 14.8.8.8 1.6 4.9 1.9 9l.5 7.4-1.5-5.5c-.8-3-1.4-6.5-1.5-7.8 0-2.1-3-3.4-3-1.3 0 .5-.9 1.2-1.9 1.6-2.5.8-3.5 3.8-2.2 6.3.7 1.3.7 2.2-.1 3-1.5 1.5.7 19.9 3.3 27 2.8 7.8 2.4 8.3-2.2 3-2.2-2.7-4.7-4.8-5.5-4.8s-2.7-.8-4.1-1.7c-2.6-1.7-2.6-1.7-2 .7.3 1.4.9 4.2 1.2 6.3.4 2 1.1 4 1.6 4.3s.9 1.7.9 3.2.7 3.6 1.5 4.6c.8 1.1 1.5 3.4 1.5 5 0 3 2.9 15.9 4.5 20.1.5 1.1 1.4 2.7 2.2 3.6.7.8 1.6 3.8 1.9 6.4.3 2.7.8 5.3 1 5.7.3.4.2.8-.3.8-2 0-8.4-21.1-13.4-44-.6-3-2.3-7.9-3.7-10.9l-2.5-5.3-1.8 5.2c-2 5.8-2.9 7.2-2.9 4.7 0-.8-.3-2.3-.7-3.3-.4-1.1-.3-1.5.5-1 .7.4 1.3-1 1.8-4q.6-4.65 1.5-3.3c.7 1.1.9 1 .9-.3 0-.9-.4-1.8-1-2-.5-.2-.9-1.4-.9-2.8s.1-5.2.1-8.5c-.1-5.6 0-5.8.9-2.5 1.8 6.5 1.9 6.6 3.8 2.5.9-2.2 2.8-7.3 4.1-11.3 2.5-7.3 2.5-7.4.5-8.8-1.9-1.4-1.9-1.5.3-2 2.2-.6 3.1-3.4 1-3.4-.6 0-.4-.7.5-1.8 1-1 1.7-3.3 1.7-5.1s.4-3 1-2.6c.5.3.6 1.3.3 2.3-.4 1.3-.3 1.4.6.6 1-.9.9-2.5-.4-7.3-1.1-4.2-1.3-7.1-.7-9.4.8-3 .9-2.9 1.4 2.5.7 6.2 2.7 12.8 4 12.8 1.1 0-.2-6.1-1.9-8.9-1-1.5-1.3-3.7-1-6.2.6-4.9 0-7.6-2.1-8.4-.9-.3-1.3-.3-1 .1.4.3.1 1.9-.8 3.5-.8 1.7-1 2.9-.4 2.9 2 0 .9 2.7-2.5 6-1.9 1.9-3.5 4.5-3.5 5.7s-.4 2.4-.9 2.8c-1.1.6-.9-6 .1-7 .4-.4.4-1.3.2-1.9-.3-.7.2-1.9 1-2.6.9-.7 1.4-1.6 1.1-2s.2-1.3 1-2c1.7-1.4 2.1-6 .5-6s-1.2-2.7.5-3.4c.8-.3 1.5-1.1 1.5-1.8 0-.8.9-2 2-2.8 1.6-1.1 2-2.5 1.9-6.2-.1-2.7-.7-5.2-1.3-5.7-1.4-1.1-5.9.6-5.1 1.9.4.6.1.9-.7.8-.8-.2-1.3.6-1.2 1.9.1 2.8.2 2.7-2.5.4-1.3-1.1-2.8-2.2-3.3-2.3-.7-.3-.7-1.2.2-2.8.9-1.7 1-5 .5-12.3-.7-10.3-2-15.1-3.8-14-.7.4-.8-.1-.3-1.2.4-1.1 0-2.6-1.1-3.8-1.7-1.9-1.7-2-.1-1.4 2.6.9 2.9-.4 1.3-6.1-1.5-6-.4-7.1 1.4-1.3 1.4 4.7 3.5 5.7 6.3 3.1 4.2-3.9 5.1-2.3 1.2 2.2-1.4 1.7-2.3 3.6-2 4.3.7 1.8 13 17.4 13.4 17 .2-.2.6-1.8.8-3.5.4-2.4.2-3-.7-2.5-.7.5-1 .4-.5-.3.3-.6.2-1.3-.3-1.7-.6-.3-.8-4.4-.4-10.3.5-8.2.3-10-1-11.4-.9-.9-2.2-1.8-2.8-2-.9-.3-.9-.9-.1-2.3 2.7-4.9 6.6-35.5 4.3-34.1-.6.4-1.1 1.7-1.2 2.9 0 1.2-.7 3.8-1.4 5.7-1.1 2.9-1.4 3.1-1.4 1.2-.1-1.3.3-3.1.8-4.1.6-1 1.2-3.6 1.5-5.9.4-3.3.2-4.2-1-4.2-.9 0-1.4-.6-1.1-1.3.2-.6.9-1.1 1.4-1s.9-1.4.8-3.3.2-3.7.8-4.1.7-.1.2.7-.4 1.1.3.6c.6-.4.9-1.2.6-1.9-.2-.7 1.1-4.8 3.1-9.1 1.9-4.2 3.5-8.3 3.5-8.9 0-.7 1.6-5.1 3.5-9.7 2.3-5.6 3.2-8.7 2.5-9.4s-1-.4-1 .7c0 2.2-4.3 11.2-7.9 16.6-1.6 2.4-2.7 4.9-2.5 5.6.7 1.7-1.3 6.5-2.7 6.5-.7 0-.9-.9-.6-2.3.4-1.2.2-2.9-.3-3.7-.7-1.1.1-2.6 3-5.5 2.5-2.5 5.3-7.2 7.4-12 2.4-5.8 3.8-7.9 5-7.7.9.2 1.6-.2 1.6-.8 0-.5-.4-1-1-1-.5 0-1-.7-1-1.7 0-1.4-.2-1.4-2 .2-1.1 1-2 2.4-2 3 0 .7-.9 1.5-2.1 1.8-1.9.5-2 .4-.4-1.9.8-1.3 1.3-2.4 1-2.4-1.9 0-6.7 3.4-8 5.8-1.4 2.4-1.6 2.4-1.1.4.4-2 .1-2.2-1.7-1.6-1.2.4-2.5 1.2-2.9 1.8s-1 .7-1.3.4c-.4-.4 1.3-1.9 3.8-3.5 2.4-1.5 4.2-3.3 4.1-3.8-.2-.6.5-1.6 1.7-2.3 1.9-1.2 1.9-1.2.8.9s-1 2.2 2.2 1.5c3.3-.6 6.9-3.2 6.9-4.8 0-1.3 2.8-3.9 3.7-3.6.4.2.9-1 1.1-2.6s-.1-2.6-.6-2.2c-1.3.8-2.4-8.3-1.4-11.4 1.9-5.8 6.4-13.9 9.4-16.6 1.7-1.6 6.1-5.8 9.7-9.4 7.4-7.4 6.4-5.7-2.5 4.5-3.4 3.8-6.7 8.1-7.4 9.4-.7 1.4-1.5 6.6-1.8 11.5-.3 5-1 9.4-1.6 9.8-1.2.8-1.5 19-.4 24.3 1.1 5.4 2.9 9.3 4.6 10 1.6.6 1.6.5 0-1.1s-1.6-1.8 0-3c1.4-1.1 1.5-1.6.4-3.3-1-1.7-1-2.1.2-2.1 1.8 0 2.8 5 1.1 5.6-1.5.6.2 6.3 2.7 9.1.9 1 1.8 2.5 2 3.3s1.2 2.1 2.3 2.8c1.9 1.2 1.8 1.2-.5.6-1.4-.3-3-1.3-3.7-2.3-2.3-3-3.4-4.1-4.3-4.1s-.8 2.6.3 3.6c.4.4.7 1.4.7 2.3 0 .8 1.1 3.1 2.3 5 4.2 6.4 6.1 9.6 5.6 9.7-.2 0 .2.8 1 1.7.7.9 1.1 2.3.8 3.1-.7 1.8 4.9 13.5 6.9 14.3 1.3.5 1.2.7-.2 1.8-1.6 1.1-1.6 1.2 0 1.8.9.4 1.6 1.6 1.6 2.8s.3 2 .6 1.6c.4-.3 2.3.2 4.4 1.3s4 1.7 4.3 1.4c.2-.3 1.4.6 2.4 2 1.1 1.4 3.2 3.1 4.7 3.8 2.7 1.2 2.7 1.2.6 2-1.6.6-2.9.2-4.7-1.2-1.4-1.1-3.5-2-4.6-2s-1.7-.3-1.4-.7c.4-.3-.8-1.7-2.5-3-4-2.9-4.7-2.9-2-.1 1.1 1.3 2.2 3 2.4 3.8s2.8 3.8 5.8 6.7 8.4 8.1 12 11.6 8.5 7.6 11 9.2c2.5 1.7 4.7 3.2 5 3.5s2.8 2 5.5 3.8c7.1 4.5 8.2 5.5 6.5 6-.7.3-1.8-.2-2.4-.9-.6-.8-3.3-2.9-6.1-4.7-2.7-1.7-5.5-3.6-6.2-4.1-.6-.6-2.6-1.9-4.4-3s-5.8-4.4-8.8-7.4c-6.7-6.4-15.2-13-13.2-10.2.8 1.1 4.1 4.6 7.3 7.8 3.2 3.1 5.8 6.1 5.8 6.6 0 .6.9 1.3 2 1.6s2 1 2 1.5.9 1.1 1.9 1.5c1 .3 2.4 1.9 3.1 3.5.8 2 1.7 2.7 2.8 2.3.9-.4 1.3-.2.8.5-.3.6 1.8 2.9 5.1 5.5 6.6 5 28.8 20.2 33.9 23.2 1.8 1.1 6.1 3.7 9.5 5.8s6.4 3.5 6.7 3.3c.7-.8-1.8-3.6-3.3-3.6-1.1 0-22.1-13.5-23.5-15.1-.3-.3-2.4-1.6-4.7-2.9-2.4-1.3-4.3-2.6-4.3-2.9 0-.4-1.8-1.7-4-3.1s-4-2.8-4-3.2c0-.5-.6-.8-1.2-.8-.7 0-2.6-1.2-4.3-2.6l-3-2.6 4 2.3c3.5 2 6.3 3.8 13.3 8.4.8.5 2.4 1.8 3.4 2.8s2.9 2.2 4.1 2.7c2.8 1.3 5.6 3 8.1 5.2 1.1 1 2.3 1.8 2.8 1.8.4 0 4.5 2 9 4.5 5 2.8 8.8 4.3 9.7 3.9 1.2-.5.8-.9-1.4-1.5-1.7-.5-5.7-3.4-9-6.5s-9.8-8.1-14.4-11.2c-11.8-8-12.1-8.3-18.2-12.6-3-2.2-5.8-4.4-6.4-5.1-.5-.6-3.9-3.3-7.5-6-3.6-2.8-8.5-6.8-11-9s-5.8-5-7.4-6.3c-1.6-1.2-2.6-2.5-2.3-2.8.9-.9 7.3 3.3 9.7 6.3 1.1 1.4 3.5 3.7 5.3 5 1.7 1.3 5.4 4.2 8.1 6.6 4.9 4.2 18.7 14.3 23.9 17.5 1.6.9 5.4 3.5 8.5 5.8 3.1 2.2 7 4.6 8.5 5.2l2.9 1.2-2.4-2.9c-1.2-1.7-3-3-3.8-3.1-1-.1-1.1-.3-.3-.7.7-.2 1.3-1 1.3-1.5 0-.6-.3-.8-.7-.5-.3.4-1.5-.1-2.5-1-1.1-.9-2.4-1.8-3.1-1.9-1.9-.3-9.2-5.5-8.8-6.2.1-.4.8-.6 1.5-.4 1.7.5-6.2-6.3-11.9-10.2-2.7-1.9-6.5-4.8-8.4-6.5s-3.8-3.2-4.3-3.2c-.4-.1-1.2-.3-1.8-.4-.5-.1-1.5-.3-2.1-.4-.5 0-.8-.5-.5-.9.2-.4-.8-.7-2.2-.6-2.8.1-7.2-2.2-7.2-3.7 0-.4 1.6-.1 3.5.7 1.9.7 3.9 1.4 4.5 1.4 1.4 0-6.5-7.9-10.4-10.4-2.6-1.6-2.7-2-1.2-2.8 1.6-.9 1.6-1.1-.1-2.4-1-.7-3-1.4-4.5-1.4-1.6 0-2.8-.5-2.8-1 0-.6.5-1 1.1-1 .5 0 .8-.4.4-.9-.3-.6.1-1.3.9-1.8 1.2-.7 1.2-1 0-2.1-1.1-1-1.4-1-1.4.1 0 1.6-2.9 1.9-4.7.5-1.5-1.2-4.7-.2-3.8 1.1.3.5.1 1.2-.4 1.5-1.2.8-3-1.6-3.3-4.5-.3-2.1 0-2.3 3.5-2 4.5.3 4.9-1.4 1.1-4.4-3.8-2.9-7.4-6.7-7.4-7.6 0-1.7 1.8-.8 3.4 1.7 1 1.4 3.7 3.4 6.2 4.4 2.4 1.1 4.4 2.4 4.4 3 0 .5.9 1 2 1s2-.4 2-.9c0-.6.9-.8 2-.6s1.8 0 1.5-.6c-.4-.5.5-.9 1.8-.9 1.4 0 2.8-.7 3.1-1.6 1.1-2.8.6-5.4-.9-5.4-.8 0-1.5-.4-1.5-.9s.7-1.1 1.5-1.5c.8-.3 1.5-.1 1.5.5s.6.9 1.4.6 1.6-.1 1.8.5c.6 1.6 3.8.2 3.8-1.6 0-.9-.9-2-2-2.6-1.6-.9-1.9-1.7-1.4-5.3.7-5.4-1.1-8-5.5-7.9-1.7 0-4.5 1-6.1 2.2-2.2 1.6-3.4 1.9-4.3 1.1-.7-.5-3-1.1-5-1.3-2-.1-3.7-.6-3.7-1.1s1.2-.6 2.6-.3c2.9.8 6.7-.1 5.9-1.3-.2-.5 1.6-.6 4-.3 4.1.4 4.5.3 4.5-1.7 0-1.1.6-2.1 1.3-2.1s.8-.3.2-.8c-1.8-1.3-4.4-7.1-3.4-7.7.5-.4.9.1.9 1 0 1.1.7 1.5 2.3 1.3 1.9-.3 2.2-.8 1.9-3.8-.2-1.9-1-4.2-1.7-5-2.7-3.1-7.8-14.3-7.9-17.5 0-1.9-.5-3.7-1-4.2s-.6-.3-.2.4c1.3 2.3-.8 1.3-2.9-1.4-1.9-2.3-2.2-2.4-2.8-.9-.4 1-.3 1.5.3 1.1.6-.3.8 1.4.7 4.4-.3 8.3-3.7 6.9-5.2-2.1-.3-2.1-1.2-4.4-2-5.2-1.3-1.2-1.2-1.5.1-2 1-.4 1.4-1.4 1.1-2.5-.2-1.1-.1-3.8.3-6 .4-2.3.3-4.1-.1-4.1-.5 0-.9-.7-.9-1.5s.6-1.5 1.4-1.5c.9 0 1.6 2.2 2.2 7.2.7 5.9 1.3 7.5 3 8.3 1.2.6 2.8 1.6 3.6 2.3.8.6 1.8.9 2.1.5 1.1-1.1.8-5.8-.5-7.1-.7-.7-.9-1.2-.5-1.2s-.2-2.4-1.3-5.3c-2.6-6.8-2.6-7 1.2-5.1l3.1 1.6-.7-7.8c-.7-7.4-1.2-11.3-1.5-12.3 0-.3-1.2.6-2.6 1.9-1.5 1.4-2.5 3.5-2.5 5.1 0 2.1-.4 2.7-1.5 2.3-.8-.4-1.5-.1-1.5.5s-.7 1.1-1.5 1.1-1.5-.5-1.5-1c0-.6-.7-1-1.5-1-2.3 0-1.8-1.6 1-3.4 1.4-.9 2.3-2.1 2-2.6-.3-.4.8-1.1 2.3-1.5 3.4-.7 5.7-4.4 4.7-7.4-.4-1.5-.3-2.1.7-1.9 1.3.3 1.5-2.5.6-8.9-.5-3.5-3.5-7.6-4.9-6.7-.5.3-.5-.6.1-2 .6-1.7.6-2.6 0-2.6s-1 .6-1 1.4-.7 1.7-1.6 2c-1.2.5-1.4.1-.9-1.7.4-1.2 1.1-2.6 1.6-3.1.9-1-.8-4.7-2.7-5.9-.8-.4-1.4-2-1.4-3.4 0-1.9-.4-2.4-1.6-1.9-.9.3-2.4.6-3.5.6-1.6 0-1.9.7-1.9 5.4 0 3 .4 5.7.9 6.1.5.3 1.2 1.9 1.6 3.5.4 1.7 1.1 3 1.6 3 2.2 0 .6 1.6-1.8 1.8-1.5.1-2.9.6-3.2 1.1-.7 1-6.4 2-14.3 2.6-5.1.3-5.7.2-4.9-1.3.6-1.3-.1-2.6-3-5.3-2.2-2-4.1-3.3-4.4-3.1-.3.3-.5 0-.5-.7 0-.8-1.1-1-3.5-.5-2.5.4-3.5.3-3.5-.6 0-1-.3-1-1.4-.1-1.1 1-1.2 1.9-.4 4.2.6 1.7 1.3 2.8 1.5 2.5.3-.3 1.5.9 2.7 2.7 1.3 1.9 3.4 3.4 5.1 3.8s2.4.7 1.7.8q-1.35.15-.9 3c.7 4.2-.1 4.4-3.1.9-1.5-1.7-3.9-4.2-5.4-5.7-1.6-1.4-2.8-3.1-2.8-3.9 0-.7-.4-1-1-.7s-1 .1-1-.5-.5-.8-1.1-.4c-2.3 1.4.8 10.6 5 15.1 1.2 1.2 2.1 2.6 2.1 3.1s1 2.1 2.1 3.6c1.6 2 1.9 3 1 3.9-.6.6-1.1 1.9-1.1 2.9s-.8 3.1-1.7 4.5c-1 1.5-1.7 3.6-1.6 4.7.2 2.1-4.7 6.6-14.1 12.9-2.2 1.5-4.3 3.2-4.4 3.7-.2.6 1.1 1.7 3 2.4 2.6 1.2 3 1.6 1.6 2.1-1 .4-2.7 0-4-.9-1.2-.9-2.5-1.6-2.8-1.6s-.6 2.9-.8 6.5c-.1 3.6.1 6.5.4 6.5.6 0 7.1-4.6 8.4-5.9.3-.4 3.2-3.1 6.4-6.1 5.7-5.4 5.7-5.4 3.9-1.9-1 2-3.1 4.6-4.8 5.8-1.6 1.1-4.3 3.2-6 4.7-1.6 1.4-3.7 3-4.5 3.5-1.2.7-1.3 1-.2 1.7s.9 1-.7 1.5c-1.2.3-2.1 1.3-2.1 2.4-.1 1.7-.1 1.7-1.4 0s-1.7-1.7-6.7-.3c-6.9 2.1-8.7 1.9-2.7-.2 2.7-.9 4.8-2.2 4.8-2.7.1-.6-2.3-1.6-5.2-2.2l-5.3-1.2 4.7.4c2.7.3 5.9.8 7.4 1.1l2.5.6-.2-6.6c-.2-6.5-.2-6.6-2.8-6-2.5.6-2.5.6-.6-.9l2-1.6-2-1.5c-1.1-.9-4-2.8-6.5-4.2-2.5-1.5-6.7-4.2-9.3-6.1l-4.8-3.4-1.4 3.3-1.4 3.3-.1-4.3v-4.3l-3.2 1.7c-1.8.9-5.4 3.4-8 5.6-2.7 2.1-4.8 3.4-4.8 2.9 0-.6.3-1.1.8-1.1.4 0 3.4-2.4 6.6-5.3l5.9-5.3-8-4.7c-4.4-2.6-8.3-4.7-8.7-4.7-.3 0-.4 1.1 0 2.4.3 1.3.1 2.7-.5 3-.7.5-1.1 4.7-1.1 10.8v10.1l2.1-1.9c2.2-1.9 2.2-1.9 1 .3-.6 1.2-1.6 2.5-2.1 2.8-1.8 1.1-1 3.1 1.8 4.3 2.1.9 2.2 1.1.5.8-3.9-.7-3.4.9 2.1 7.6 7.9 9.6 12.6 12.8 13.9 9.5.3-.7.6-.5.6.5.1 1.4.7 1.6 3 1.2 1.6-.4 3.2-.1 3.5.5.5.7-.3 1.2-2.1 1.3-1.5.1-3.7.2-4.8.3-1.1 0-2.6-.5-3.3-1.2-.8-.7-1.8-1.1-2.2-.8-.5.3-1.7.1-2.7-.4s-2.9-1.4-4.3-2l-2.5-1.1 2.8.3c1.5.3 2.7.1 2.7-.2s-2.8-3.5-6.1-7.1-5.8-5.7-5.5-4.7.6 3.5.6 5.6c0 3.1.5 3.9 2.8 4.9l2.7 1.2-2.7-.5c-2.5-.5-2.8-.2-2.9 2.2 0 2.7-.1 2.7-1.1.6-.9-1.8-1.7-2.1-4.7-1.6-2.7.3-3.2.2-2.1-.6.8-.6 2.5-1.1 3.8-1.1 2 0 2.2-.5 2.2-5 0-3.6-.3-4.8-1.2-4.4-1.5.6-9.6 10.8-10.4 12.9-.4.8 1.4 2.7 4.8 4.9 2.9 2 5.6 3.6 6 3.6s1.2-1.5 1.7-3.3l.9-3.2.1 4.3.1 4.3 6.3-4.1 6.2-4.1-4.5 4c-2.5 2.3-4.8 4.1-5.2 4.1-.5 0-.8.4-.8 1 0 .5.3.9.8.8.4-.1 3.2.5 6.2 1.4s7 1.9 8.8 2.3c3.2.7 3.4.6 2.7-1.5l-.7-2.2 2.1 2.1c1.7 1.7 2.5 1.9 5.1 1 1.6-.6 3.3-1.5 3.6-2s1-.9 1.6-.9c.7 0 .7.5-.1 1.4-.9 1.1-.9 1.5.1 1.9.7.2.2.5-1.2.6-5.8.3-7.8.6-7.3 1.4.2.4-.7 1.1-2 1.6-2.4.9-19.7 13.8-19.7 14.7 0 .2 4.7.4 10.5.4s10.5-.4 10.5-.9-1.2-2.4-2.6-4.1c-1.5-1.7-2.4-3.3-2.2-3.5.3-.3 1.9 1.3 3.8 3.6 2.5 3.2 3.8 4 5.6 3.6 1.3-.2 2.1 0 1.8.4-.3.5.5.9 1.7.9 2.8 0 2.2.7-1 1.2-1.4.1-3.5 1.4-4.8 2.7-1.4 1.3-2.7 2-3 1.7-.4-.4-.1-1.2.5-1.8 2.5-2.5.9-2.9-11-2.6l-12.3.3-.3 7.5c-.2 4.1-.1 8.9.3 10.7l.6 3.3 2.7-1.7 2.7-1.7-1.9 2.2c-1.1 1.2-1.6 2.5-1.2 3 .4.4 4.2 1.2 8.4 1.9l7.7 1.2-9.2-.4-9.3-.4v2.9c0 1.6-.5 3.2-1.2 3.6s-.8.3-.4-.5c.4-.6.5-2.5.1-4.1-.6-2.8-.7-2.9-6.8-2.5-5.9.4-6 .4-1.8-.5 2.4-.5 4.8-.7 5.4-.3.5.3.8 0 .5-.8-.2-.8-5.7-5.5-12.1-10.4-8.6-6.7-11.6-9.6-11.6-11.3-.1-1.8-1.3-2.9-5.6-4.8-3-1.4-5.7-2.9-6-3.4-.3-.4 1.3.1 3.5 1.1 7.9 3.8 8.8 4 9.5 1.8.7-2.1 2-1.8 2 .4 0 .8 3.4 1.3 11 1.5l11 .3-5.5-5.1c-5-4.7-3.8-4.3 3.3 1.1l2.7 2.1V307c0-7.6-.3-9.1-1.4-8.7-.8.3-1.6.1-1.8-.5-.3-.8-1-.8-2.3-.1-1.1.6-4.4 1.4-7.2 1.8-2.9.4-5.5 1.1-5.8 1.5-.3.5 1.1 1.8 3 3s3.5 2.6 3.5 3.1-1.9-.5-4.2-2.1c-3.4-2.5-4.3-2.8-4.8-1.6-.4 1.1-.8.9-1.6-.9-1.1-2.3-1-2.5 2.5-3 8.1-1.2 18.1-4 18.1-5 0-.5-2.9-3-6.4-5.4-5.4-3.6-6.9-4.2-9.6-3.6-1.7.4-3.4 1.3-3.7 2.1s-.9 1.4-1.4 1.4c-.4 0-.6-.6-.3-1.4.4-1-.9-1.9-4.3-2.9-10.3-3.3-19.9-6.1-21-6.2-.7 0-2.7-1.4-4.5-3.1s-5.4-4.6-8-6.4c-2.7-1.8-4.8-3.7-4.8-4.2 0-1.4 1.6-.9 3.4 1 .9 1.1 4.1 3.6 7.1 5.7 5.1 3.5 5.9 3.7 10.8 3.2l5.2-.6-4.5 1.3-4.5 1.3 3 1.3c1.7.6 7.2 2.4 12.3 4 12.8 3.8 16.8 3.1 23.6-4.2 4.8-5.2 8.6-10.5 8.6-12.1 0-.5-1.3-.6-3-.2-4 .9-3.8-.2.2-1.8l3.2-1.3-7.6-7.6c-4.2-4.2-9-8.4-10.7-9.2-3-1.6-3.1-1.6-3.6.6-.3 1.3-.5 6.8-.3 12.3l.3 10 4-.2c3.8-.2 3.9-.1 1.2.9-1.6.5-2.6 1.5-2.4 2.2.4 1.1-.9 1.2-6.1.7-.7 0-1.1-.5-.8-1s-2.3-2.2-5.9-3.7c-3.5-1.5-6.3-3-6.1-3.2s2.6.6 5.3 1.7c9.1 3.8 8.8 4.1 9.1-8.7.2-7.5-.1-11.2-.8-11.2-.6 0-2.8 1.1-4.8 2.5s-4 2.5-4.5 2.5c-.4 0-3.6 1.9-6.9 4.1l-6.1 4.2 2.4 1.8 2.4 1.9-3.3-1.1c-1.8-.6-4.7-.9-6.5-.5-3 .5-3.1.5-1.3-.9 1.1-.8 1.8-1.6 1.5-1.9-.2-.2-2.4-1.5-4.7-3-2.4-1.5-4.2-3-3.9-3.3s2.6.9 5.1 2.6c5.4 3.7 6.1 3.8 10.8.6 2-1.4 4.2-2.5 4.7-2.5.6 0 1.1-.5 1.1-1 0-.6.5-1 1.1-1s3.4-1.7 6.2-3.7c4.9-3.6 5-3.8 2.6-4.4-1.3-.4-5.9-.7-10.1-.8-7.4-.1-7.8 0-7.8 2.1-.1 2.1-.2 2.1-1.1.5-.6-.9-1.4-1.5-2-1.2-.5.4-.9-.1-.9-.9s.4-1.8 1-2.1 1-1.8 1.1-3.3c0-2.6.1-2.6.9-.5.5 1.3 1.3 2.3 1.7 2.3 1.3-.1 13.7-10.4 13.7-11.5.1-.6-2.8-1-6.4-1-6.5 0-6.5 0-7.6 3.4-1.2 3.8-2.7 2-1.7-2.1.6-2.3.5-2.3-2.4.4-1.6 1.6-3.3 2.8-3.7 2.8-.5 0-1.7 1-2.7 2.2-1.1 1.1-1.9 1.6-1.9 1s1.6-2.7 3.6-4.6 3.3-3.9 3-4.4.7-2 2.3-3.3c3.1-2.6 7.5-9.9 8.3-13.9.3-1.4.8-3.2 1-4 .3-.8.3-1.2.1-.8-.3.5-1.3.8-2.4.8-1.5 0-1.7-.3-1-1.3 6.5-7.8 6.4-7.7 4.7-9.6-.9-1-1.6-2.4-1.6-3.2s-.5-2-1-2.5c-.6-.6-1.3-2.3-1.6-3.7-.4-2.3-.1-2.7 1.9-2.7 1.3 0 4.4-1.3 7-3 4.7-3 4.7-3 6.7-1 2.4 2.4 2.4 2.7.5 4.6-1.9 2-2.1 4.1-.2 2.5 1-.8 1.8-.7 3.1.2 1.6 1.2 1.6 1.4-.3 3.1-3.2 2.9-2.7 5.6.9 5.6 1.7 0 3.1-.6 3.1-1.3.3-2.8-.4-5.4-2.2-8.5-1.4-2.4-1.6-3.8-1-5.1 1.8-3.2 0-6.7-3.1-6.2-1.2.2-.8-3.9.7-8.4l1.3-4 .1 5.3c.1 3.8.5 5.4 1.7 5.9 2.5.9 3.7-1.2 4.4-8.4l.7-6.8.3 5.7c.1 3.2.4 6.2.5 6.8.1.5.3 1.7.4 2.5 0 .8.6 1.5 1.1 1.5.6 0 1-2 1-4.3 0-5.8.9-6.4 3.4-2.4l2.1 3.2.3-5.3c.2-2.8.7-5.2 1.1-5.2 1.3 0 2.1 8.3.9 9.7-.7.9-.7 1.3.2 1.3s1 .3.1 1.3c-.8 1-.8 1.6 0 2.4 2 2 3.9.3 3.9-3.6 0-3.1.3-3.6 2.5-3.7 1.5-.1 2.5.3 2.5 1.2 0 .8.4 1.4 1 1.4.5 0 .7 1.3.4 3-.4 1.6-.4 3.7 0 4.6.5 1.4 1 1.3 3.1-1 1.5-1.6 2.5-3.8 2.4-5.4s-.3-2-.6-1c-.2.9-1 1.5-1.8 1.2-1.7-.7-.8-3.4 1.1-3.4.8 0 1.4-.7 1.4-1.5 0-1.8 1.2-1.9 2.8-.3 1.2 1.2 2.5-1.1 3.7-6.6.7-3.3 1.4-3 1.7.6.2 2.5.3 2.6 3 1.2 2.8-1.4 3.2-2.4 4.2-9.9.3-2.2 1-5.8 1.5-8l.9-4 .1 4.2c0 2.3-.3 4.4-.7 4.7-1.4.9-1.2 8 .3 10 1.7 2.2 1.6 2.3 4-2.8 2.3-5.2 3-18 .9-19.7-1.1-.9-1.4-.8-1.4.4 0 .9-.5 1.9-1.1 2.3-.9.5-1-.1-.5-2.2 1.2-5.1 1.9-10.8 1.7-13.2-.2-2.5-3.9-1.2-5.1 1.8-.7 1.7-1.7 3.3-2.2 3.6-.6.4-.5-.4.2-1.6s1.2-5 1.2-8.4c-.1-7.1 1.3-11 4.5-12.7 2.5-1.3 5.4-8.1 5.1-11.7-.3-2.9-1.6-2.8-2.8.3-1.6 4.1-2 2.9-1.9-5.3.1-6 .3-6.9.9-4.2.4 1.9.8 2.8.9 1.9 0-.9.8-2.2 1.6-2.9s1.5-2.3 1.5-3.7c0-1.3.5-3.3 1.1-4.5 1.3-2.5-.8-8.8-2.3-6.6-.7 1-1.1.9-2.3-.6-.8-1-1.2-2.3-.8-2.9s.1-.7-.7-.2c-.7.4-1.6.2-2.2-.6-.7-1-.7-.7-.3.8.4 1.4.2 2.3-.4 2.3s-1.1 1.1-1.1 2.4c0 2.3-3.5 11.6-4.3 11.6-.3 0-.4-1.8-.3-3.9 0-2.2.4-3.4.8-2.8.9 1.5 1.3.9 2.5-4.1.9-3.4.8-4.2-.3-4.2-.8 0-1.4.6-1.4 1.2 0 .7-.6.4-1.2-.6-1-1.8-1.1-1.8-2.4.5-.8 1.6-1.1 4.2-.7 7.7.4 4.2.2 5.7-1.3 7.3-1.3 1.5-1.9 1.6-2.5.7-.5-.7-.7.6-.6 3 .2 3.7.1 4.1-1 2.6-.7-1-1.3-2.3-1.3-2.8 0-.6-.5-.4-1 .4-.6 1-1 1.1-1 .2 0-2.2-2-1.3-2.1 1 0 2.3-.1 2.3-1 .2-.7-1.4-2-2-4.4-2-1.9 0-3.7-.2-4-.6-.3-.3-.6-3.7-.8-7.7-.2-6.3-.4-7.1-2-6.7-2 .5-3.7-2.1-3.7-5.6 0-1.3-.4-1.9-.8-1.3-1.1 1.5-15.4 1.7-16.5.2-.9-1.3-.1 20 1 24.1.4 1.6.2 2.3-.4 1.9s-1.4-4.4-1.8-8.9c-.8-9.6-2.2-15.8-3.5-15.8-.6 0-1 .7-1 1.5 0 .9-.6 1.2-1.5.9-1.2-.5-1.4.6-1.4 6.3.1 7.3 2.5 21.6 3.7 22.1.4.1.6 2 .4 4.2-.3 3.1-.1 4 1.1 4 .9 0 1.8 1.3 2.2 3.2.4 1.8 1.2 3.6 1.8 4s.8 1 .4 1.5c-.5.4-1.7-.3-2.7-1.7-2-2.5-2-2.5-2 12.7 0 9.5-.4 15.3-1 15.3-.5 0-1 1.5-1 3.2l-.1 3.3-1.5-2.7c-1.5-2.8-1.4-5.2.3-9.8.6-1.4.8-3.9.6-5.5-.3-1.7-.5-4.2-.5-5.8-.1-1.7-.7-2.7-1.7-2.8-.9-.1-2.8-.3-4.3-.5-2.4-.2-2.8.1-2.8 2.2 0 1.3-.4 2.4-1 2.4-.5 0-1-.4-1-1 0-1.1-3.2-.1-4.2 1.4-1.2 1.8-1.9 0-2.8-7.1-.5-3.7-1.2-8.8-1.5-11.3-.8-6.1 1-2.2 2 4.5.4 2.7 1 4.4 1.2 3.7.3-.6.9-.9 1.5-.6 1.1.7.1-15-1.2-19.7-.7-2.3.3-6.1 1.3-4.9.2.3.9 4.5 1.6 9.5 1.7 13 4 18.5 5.8 13.9.3-.8 1.2-1.3 1.9-1 .8.3 1.4.1 1.4-.5s.9-.8 2-.4c1.7.5 2 .2 2-2.3 0-4.2-3.7-15.7-5.5-17.2-.8-.7-2-3-2.7-5.1-.6-2.2-1.5-3.9-1.9-3.9-1.8 0-4.1-10.3-3.6-16.3.2-3.7-.2-9.3-1.1-13.9-1.2-5.9-1.3-8.1-.5-8.9.9-.9 1.3-.6 1.7 1.2 2.2 10.7 2.2 10.7 3-3.7.4-7.8 1.1-15.5 1.6-17 3.1-9.8 4.9-13.5 7.8-16.8 1.8-2 3.6-3.4 4.1-3.1 1.5.9 0 11.7-2 14.5-1.6 2.3-2.3 5.7-2 10.2.1 2.5 3.2 2.2 3.8-.3.5-1.6.8-1.8 1.5-.7.8 1 1.1 1 1.5 0 .2-.6.9-1 1.4-.6.5.3.9-1.3.9-3.5 0-5.4 1.6-6 2.4-.9.4 2.2.9 3.8 1.3 3.5.3-.4 1.4-3.9 2.4-7.9 1.7-6.9 1.8-7 1.8-2.8-.1 7.1-.2 7 2.5 5.7 1.6-.8 2.7-2.3 3.1-4.4.3-1.8 1.7-5.7 3-8.8L632 0H0zm571.8-259.8c3.1 3.1-1.2 7.8-7.1 7.8-2.5 0-6.1 3.2-7.1 6.5-.4 1.1-2.3 2.8-4.4 3.7-2.1 1-4.7 2.6-5.9 3.7-2.4 2.3-4.6 1.3-6.1-2.9l-1-2.5-1 2.5c-.6 1.4-1.3 3.3-1.6 4.4-.5 1.5-1.3 1.8-4.4 1.3-2.5-.5-3.2-.3-2.2.3.8.5 1 1 .4 1-.7 0-1.4.9-1.7 2.1-.4 1.6-1.2 2-3.4 1.8-2.6-.3-4.1.3-9.8 3.9-2.2 1.4-9 4.6-11.7 5.5-2 .7-2.4 3.6-.5 3.8 2.4.3 4.2-.3 6-1.8.9-.9 1.7-1.2 1.7-.8 0 .5.6 0 1.4-1 1.3-1.8 1.7-1.8 4-.6 1.4.8 2.6 2.2 2.6 3.1s1.1 2.7 2.5 4c2.7 2.6 3.1 4 1.4 5.7-1.6 1.6-5.9-.5-5.9-2.9 0-1-.4-1.8-1-1.8-.5 0-1 .4-1 .8 0 .5-1.8 1.4-4 2.1-4.2 1.2-4.5 1.7-3.1 4.1 1.8 2.8-.2 3.2-2.5.5-1.3-1.6-2.4-2.3-2.4-1.7 0 .7-.7 1.2-1.5 1.2s-1.5.9-1.5 1.9c0 1.1-.4 2.3-1 2.6-.5.3-1 1.7-1 3.1 0 1.3-.4 2.4-1 2.4-.5 0-1-.5-1-1 0-.6-.9-1-2-1s-2 .6-2 1.3-1.6 1.9-3.5 2.6c-2 .7-4.6 2.3-5.8 3.5-2.4 2.4-2.7 2.9-2.7 5.1 0 1.2-.4 1.3-1.9.5-3.5-1.8-6.3-1.3-6.1 1.2.3 3.7.1 4.1-1.5 2.8-1.8-1.5-4.5-.6-4.5 1.5 0 1-.9 1.5-2.6 1.5s-2.8.6-3.1 1.9c-.3 1.1-1.5 2.2-2.6 2.5-1.6.4-1.9.8-.9 1.4 1 .7 1 1.1-.2 2.1-.8.7-2 1-2.5.6-.7-.3-.8 0-.5.9s.9 1.6 1.3 1.6 2.2 1.4 4.1 3.1c3.4 3 3.4 3 .5 1.3-1.6-.9-3.9-2.3-5-3.1-3.6-2.4-8.6-1.4-6.4 1.4 2.2 2.6-3.4-1-6.9-4.5-3.5-3.4-5.2-4-5.2-1.9 0 2.3 2.3 4.4 8 7.3 8.5 4.4 11.3 8.1 3.7 4.9-2.3-.9-3.7-1.1-3.7-.5s1 1.4 2.3 1.9c3 1.2 4.9 3.6 4.5 5.7-.2 1.3-1.1 1-4.3-1.9-5.4-4.9-6.3-4.9-4.5-.2.9 2.4.8 2.6-1.2 1.9-1.3-.3-3.1-1.3-4-2.2-1.2-.9-1.8-1.1-1.8-.4s.5 1.2 1 1.2c.6 0 1 1.6 1 3.5 0 4.1-2.5 5.9-4.5 3.2-1.7-2.3-2.4-2.1-1.8.3.3 1.2 1.8 2.7 3.4 3.5 3.6 1.9 3.8 1.9 3.2-.5s-.1-2.5 3.7-.5c3.3 1.7 3.9 3.5 1.3 3.5-1.7.1-1.7.1 0 1.4.9.7 1.7 2.1 1.7 3 0 2.5-3.2 1.9-6.3-1.3-3.2-3.3-7.6-4.6-8.4-2.5-.6 1.7-3.7 1.8-6.4.4-2.6-1.5-2.4-3 .5-3 2.3 0 3-1.9 1.3-3.6s-.5-3.4 2.2-3.4c2.8 0 2.9-.2 2.4-3.5-.4-2.8-.2-3.5 1.1-3.5 2.8 0 1.8-2.5-2.4-5.9-4.4-3.5-4.7-4.3-2.5-6.5.8-.8 1.5-1.9 1.5-2.6 0-.6 1.1-1.6 2.5-2.2 4.5-2 3.2-5-5.2-12.5-10.9-9.7-13.6-12.4-13-12.9.5-.6 4.3 2.4 15 11.9 8.7 7.8 8.5 7.8 15.5.7 4-3.9 4-6.3.2-9-1.6-1.2-3-3-3-4.1 0-3.5 2.1-2.3 7 4.1l2 2.5.6-2.3c.4-1.3 1.2-2.1 2-1.8.7.3 1.8-.2 2.4-1 .7-.8 1.8-1.4 2.5-1.4s1.6-1.1 1.9-2.5c.4-1.4 1.3-2.5 2.1-2.5s1.5-.5 1.5-1c0-.6 1-1.4 2.3-1.9 3.1-1.2 10.8-7.5 12.1-9.9 1.2-2.2 9.5-8.7 13.2-10.4 3-1.4 3-2.1.2-6.6-1.9-3.1-2.2-3.3-2.9-1.6-.7 1.8-.8 1.8-.8-.1 0-1.1.4-2.9.8-4 .7-1.8 1.2-1.3 4 3.2 1.8 2.9 3.8 5.4 4.4 5.4 2.4.3 4.2-.3 5.2-1.4 1.1-1.3 7.2-4.5 21-10.8 5-2.3 9.3-4.7 9.7-5.3.4-.5 2.9-1.6 5.5-2.2 2.6-.7 8.9-2.6 13.8-4.3 18.1-6.2 19.6-6.6 21.3-4.9m21.2 44c0 2.5 2.6 5.3 3.3 3.5.4-.7.6-.8.6-.1.1.6-.6 1.7-1.4 2.4s-1.5 1.9-1.5 2.7c0 .7-.7 1.6-1.5 1.9-.8.4-1.2 1-.9 1.5s-.3 1.2-1.3 1.6c-1.6.6-5.1 3.6-12 10-1.3 1.3-3.3 2.3-4.5 2.3-1.3 0-1.8.5-1.5 1.4.3.8-.3 2.3-1.4 3.4-2.1 2.4-2.5 4.2-.8 4.2.8 0 .7.5-.2 1.6-1.2 1.4-1.4 1.4-2-.3-.7-1.6-.8-1.6-.8-.1-.1.9-.5 1.9-1 2.2-.5.4-.7-.3-.4-1.4.6-2.4.4-2.4-3.3-.5-1.6.8-3.7 1.5-4.6 1.5-2.8 0-6.7 2.1-8.2 4.5-.8 1.2-2 5.9-2.7 10.4l-1.2 8.1 2.7 2.9 2.8 2.9-2.3.4c-1.3.2-2.9-.3-3.4-1-.6-.7-2.4-1.5-4-1.7-4.3-.5-4.4-.7-1-1.4 2.7-.5 3-1.1 3.2-4.6.3-5.7-.4-8.1-3.3-11-1.4-1.4-2-2.5-1.4-2.5s1-.8.8-1.7c-.2-1.4.3-1.7 2.8-1.5 2.1.2 3.3-.2 3.7-1.2.4-.9 1.3-1.6 2.2-1.6.8 0 1.5-.4 1.5-.9 0-.4 2.2-1.1 5-1.4 2.7-.3 6.2-1.3 7.7-2.1l2.8-1.5-4.7-.1c-3.5 0-5.4-.6-6.9-2.1-1.8-1.8-2.5-1.9-4.3-.9-1.2.6-3.5 1-5.1.8-1.8-.2-3 .2-3.1.9s-.2 1.7-.3 2.3c0 .5-.7 1-1.5 1-1.4 0-2.6-2.3-3.5-6.6 0-.4-.7-.1-1.5.5-1 .9-1.5.8-1.9-.3-.4-.9.2-1.7 1.4-2.1 1.3-.5 1.8-1.3 1.4-2.8-.3-1.2-.1-2.8.4-3.6 1.2-1.9 5.1-.4 5.1 2 0 2.6 2.6 2.4 3.3-.2.3-1.2 1-1.8 1.6-1.4.6.3 1.1-.1 1.1-.9 0-.9.5-1.6 1-1.6.6 0 1.9-.9 3-2l2-2 2.2 2c1.2 1.1 2.7 2 3.4 2s1.5.6 1.7 1.2c.4.9.6 1 .6.1.1-.6-.6-1.8-1.4-2.7-.9-.9-1.1-1.7-.5-2.1.5-.3 1-2.3 1-4.3l.1-3.7 1.7 2.7c1.2 2 2.5 2.8 4.5 2.8 2.4 0 2.6.2 1.7 1.9-1.5 2.8-1.3 3 2.3 2.4 5.1-.7 11.8-4.3 11.5-6.1-.3-1.6 6.5-9.2 8.3-9.2.6 0 .9-.6.6-1.3-.3-.8.1-1.4.9-1.4s1.4.9 1.4 1.9m-62.3 32.3c-.7 1.4-1.6 2.5-2 2.5-1.4 0-10.4 9.6-11.2 11.9-.3 1.2-1 1.9-1.5 1.6-.4-.3-1.1.2-1.4 1.1-.3.8-1 1.2-1.6.9-1.3-.8-1.3 1.1.1 3.7 1.3 2.5.5 3.5-1.6 1.8-1.6-1.3-1.8-1-.9 1.4.3.9 1.1 1.3 1.7.9.5-.3.8-.2.5.3s-1.3 2.6-2.3 4.6c-.9 2.1-2.1 3.5-2.6 3.2s-.9 0-.9.5c0 .6.5 1.1 1.2 1.1.9 0 .9.3 0 1.2-.7.7-1.2 2.3-1.2 3.7-.1 2.5-.1 2.5-1.5.7-.9-1.2-1.5-1.5-1.5-.7 0 1.8-6.2.8-9.6-1.4-3.6-2.3-3-3.6 1.6-3.1 2.9.4 4.2.1 4.8-1.1 1-1.6-.6-7.3-2-7.3-.4 0-.8-.4-.8-1 0-1.3 3 0 3 1.4 0 .6.7 2 1.5 3 1.2 1.6 1.7 1.7 3 .6 2.4-2 1.8-5.4-1.5-8.5-1.6-1.6-2.8-3.1-2.5-3.3.3-.3-1.1-2-3-3.9-1.9-1.8-3-3.3-2.5-3.3.6 0 1-.7 1-1.6 0-1 .7-1.4 2.3-1.2s2.2 1 2.2 2.7c0 1.8.8 2.7 3.5 3.6 1.9.6 4.6.8 6 .4 2.4-.7 2.4-.7-.5-.9-1.6-.1-2.3-.4-1.3-.7 2.7-.7 2.9-3.3.6-6.6-1.8-2.5-2.3-2.8-2.6-1.4-.2.9-.7 1.7-1 1.8-.4 0-1.7.2-2.9.5-1.3.2-2.3 0-2.3-.5s-1-1.2-2.2-1.4c-1.5-.3-.9-.5 1.4-.6 2.4-.1 4.4-.9 5.8-2.4 2.9-3 6-3.1 6-.2 0 4.6 2.4 4.8 6.9.5 2.2-2.2 4.9-4 5.9-4.1q1.8 0 .3-.6c-2-.8.6-2.3 4.1-2.3 2.4 0 2.5.2 1.5 2.5m651.2 24.3c.1 4-.2 5.1-2.4 7.1-2.5 2.1-3.6 2.3-21.3 2.6-12.5.3-19 .1-19.9-.7-1.7-1.3-1.7-6.3 0-7.5 1-.9 10.9-2.5 35.7-6.1 3-.5 6-.7 6.6-.5s1.1 2.5 1.3 5.1M392 223.5c0 1.3-.7 2.8-1.6 3.3-1.9 1.1-.3 2.2 10.9 7.6l7.9 3.8 1.6-2.3c1-1.2 2.5-3.6 3.5-5.3.9-1.7 1.7-2.7 1.7-2.3 0 1.1 3.5-2.4 4.8-4.8.9-1.7 1.1-1.2 1 2.7 0 2.6-.6 5.3-1.4 5.9-.7.6-1.1 1.6-.8 2.4.3.7.1 1.6-.5 2-.6.3-1.1 1.5-1.1 2.5s-.5 2-1.2 2.2c-.6.2.4 1.1 2.3 2 12.6 5.9 14.8 7 15.9 8.3.7.8.9 1.5.4 1.5s-1 1.5-1.1 3.2c-.2 1.8-.8 3.5-1.4 3.7-2.2.7 7.4 5.4 11.4 5.5 4.1.1 6.3 2.1 3 2.8-1.4.3-1.1.8 1.5 2.2 3.1 1.6 3.5 1.6 5.2.1 1.3-1.2 2-1.3 2.5-.5.4.7.1 1.6-.6 2.1-1.6 1-1.3 1.3 2.6 2.6 1.7.6 3.8 1.4 4.9 1.8 1.6.7 1.7.6.7-1.3-1.1-2-.9-2.2 1.3-2.2 3.5 0 4.1-1.6 1.2-3.5-2-1.4-4.1-1.9-8.7-2.4-1.4-.2-1.6-5.1-.3-5.1.7 0 2.2-1 3.3-2.1l2-2.1.6 3.8c.4 2.2.8 4.4 1 4.9.1.6 3.8 2.1 8.1 3.4 4.4 1.3 8.3 2.8 8.9 3.2.5.5 2.1.9 3.6.9 2.1 0 2.8-.6 3.4-2.7.4-1.7.2-2.9-.4-3.1s-1.1-1-1.1-1.7-2.4-2.1-5.4-3c-3.1-1-5.3-2.2-5-2.9.2-.6-5.1-4.4-11.7-8.4-11.2-6.7-15.8-8.4-15.1-5.4.2 1.2-4 1.7-5.1.6-.3-.3-.2-1.6.3-2.7.5-1.2 1.1-3.4 1.4-4.9.5-2 1-2.5 2.6-2.1 3 .8 2.4-1.4-.7-2.5-1.6-.6-3.7-1.7-4.8-2.6-2-1.5-2-1.5.2-1.6 1.2 0 2.5.4 2.8 1 .3.5 1.5 1 2.5 1s2.1.6 2.3 1.2c.3.7.6.1.6-1.3.1-1.4-.8-3.4-1.9-4.4s-2-2.2-2-2.7.7-.3 1.5.6c.9.8 2.2 1.3 3 1 1.8-.7 1.8-.6.5-3.8-1.2-3.2.3-3.5 2.7-.6 2.1 2.4 3.6 2.5 5.7.4 1.9-1.8 1.9-1.7.5 2.5-.6 1.7-1.5 3.1-2 3.1-1.9 0-.8 2.8 1.7 4.5 1.5.9 4.3 3.2 6.3 5.1 6.4 5.9 17.4 13.5 18.9 12.9.7-.3 1.8-.5 2.3-.5s.9-.9.9-2.1c0-1.6.4-2 1.8-1.4 1 .3.2-1-1.8-3.2-2-2.1-4.5-4.9-5.5-6.3-2-2.5-2-2.5 0-1 1.1.8 3.5 2.7 5.4 4.3 2.9 2.5 3.5 2.7 5 1.4.9-.8 2.4-1.3 3.4-1.2 3 .5 1.5-2.9-1.8-4-2.2-.8-2.9-1.6-2.7-3 .6-3.1 1.2-3.2 3.2-.8 2.3 2.9 2.6 2.9 4.4-.8 1.1-2.1 1.2-3.7.6-5.5-.6-1.5-.6-2.4 0-2.4s1 .6 1 1.2c.1.7.7-.1 1.5-1.7 1.4-2.8 1.5-2.1.8 7.5-.4 5.8-.7 14.1-.8 18.5-.1 5.5-.8 10-2.4 14.4-1.2 3.5-2.4 9.4-2.7 13s-1.1 7.2-1.7 8c-.7.8-1 2.4-.9 3.6.3 1.9-3.1 9.1-4.9 10.5-.3.3-1.4 2.8-2.3 5.5-1.2 3.7-2.2 5.1-3.6 5.2-1.1.1-2.2-.2-2.5-.8-1.1-1.6-4-1-6 1.3-2.2 2.7-2.2 2.9 1 4.5 2.9 1.6 5.5.7 5.5-1.8 0-1 .3-1.9.8-1.9.4 0 .7 1.9.7 4.3-.1 3.7.2 4.3 2.7 5.2 3.7 1.3 3.5 3.1-.2 2.7-2.6-.3-3.2.1-4.1 2.7-.6 1.7-1.7 3.1-2.5 3.1s-1.4.4-1.4 1c0 .5-.3.9-.7.9-2-.3-3.4.2-2.8 1.1.3.5-.1 1-1 1s-1.4.4-1.1.9c.5.8-1.7 2.3-3.8 2.5-.5.1-1.2 1-1.7 2.1-.4 1.1-.8 1.4-.8.6-.1-1.1-.4-1.1-1.6-.1-.8.7-1.2 1.6-.9 2.1s-.4.9-1.5.9c-1.2 0-2.1.3-2.1.7 0 .5-1.6 2.5-3.5 4.5s-3.5 4-3.5 4.4-.8 1.3-1.7 2c-1.6 1.2-1.6 1.3-.1 1.4.9 0 1.8-.3 2-.8.2-.4 2.3-2.3 4.8-4.2s5-3.8 5.5-4.3c.6-.4 3.3-2.2 6.2-4 9.3-5.8 19.8-13 21-14.5.6-.8 1.6-1.1 2.2-.7 2 1.2 1.1 3-1.9 4.2-3 1.1-4.9 3.8-3.5 5.1.4.4 1 .1 1.2-.6.3-.6 1-1.2 1.6-1.2.7-.1 2.8-1.4 4.7-3 4.4-3.8 5.4-3.8 3.2 0-1.4 2.4-1.4 3.2-.4 3.9 1.9 1.2 11 1.3 11.7.1.3-.5 1.4-1 2.4-1s2.4-.7 3.1-1.5 2.1-1.5 3.2-1.5c1.8 0 1.6.4-1.1 3.9-1.7 2.1-3.1 4.9-3.1 6.1 0 1.1-.4 1.8-1 1.5-.5-.3-1-.2-1 .4s-1.8 2-4 3.1-4.7 3.1-5.6 4.5c-.9 1.3-3.4 3.5-5.7 4.9-4.8 2.8-11 9.3-10.4 11 .2.6-2 2.3-5 3.7-2.9 1.5-6.8 3.9-8.6 5.5s-4.4 3.7-5.9 4.7c-1.7 1-2.8 2.7-2.8 4 0 1.6-.3 1.8-.9.8-.7-1-1.2-1.1-2.7-.1-1.7 1-1.7 1.1-.1.6 1.1-.4 1.6-.2 1.2.5-.4.5-1.4.9-2.3.7-1-.1-2.4.2-3.2.7s-2.4 1.1-3.5 1.3c-4.1.6-14 8.6-12.9 10.3.2.4-.7 1-2.1 1.3-1.4.4-2.5 1.3-2.5 2.2 0 1.2 1.9.5 7.8-2.7 4.2-2.3 8.1-4.6 8.7-5 .5-.5 1.7-.9 2.7-.9 1.1 0 1.8-.7 1.8-1.9 0-1.1.4-2.2.9-2.5.4-.3.6.6.3 1.9-.3 1.9-2.2 3.5-6.8 6.1-6.9 3.9-8.1 4.9-6.1 5.7 2.9 1.1 22.7-11.2 30.2-18.9 2.1-2.2 10.8-7.4 12.2-7.4.4.1-.3.7-1.7 1.5s-2.1 1.4-1.6 1.5c.6 0-1.2 1.4-3.8 3.1-2.7 1.6-4.6 3.3-4.3 3.6.4.3-2 2.2-5.3 4.2-3.2 2-7.2 4.8-8.9 6.3-1.6 1.5-4.9 3.7-7.3 4.9-6.6 3.3-24.8 14.3-24.8 15 0 1.2 6.1.2 7.3-1.3.6-.8 3.8-3 6.9-4.7 3.2-1.8 6-3.6 6.3-4.1s3.3-2.3 6.7-4c3.5-1.8 7.5-4.2 9-5.3 1.5-1.2 5-4 7.7-6.1 2.8-2.1 4.8-4.3 4.4-4.9s0-.8 1-.4c1 .3 1.7.3 1.7-.1s2.9-2.7 6.5-5.1c4.3-3 6.4-5 6-5.9-.4-1 0-1.2 1.1-.8 1.2.4 1.5.2 1-.9-.3-.8-.1-1.5.3-1.5.5 0 2.4-1.4 4.2-3.2 1.9-1.8 6-5.4 9.2-8.1s5.6-5.1 5.3-5.4c-.7-.8-8.3 5-16 12-2.2 2.1-7.5 5.5-11.6 7.5s-7.7 4-8 4.4c-.7.9-7.6 3.8-9 3.8-1.5 0-1.2-1.7.3-1.7 4.4-.1 23-11.3 29.9-18 3.4-3.4 7.8-7.2 9.7-8.5s4.1-3.4 5-4.7c1.5-2.3 1.5-2.4-.6-1.3-1.2.7-2.3 1.7-2.5 2.3s-1.5.9-2.8.7l-2.5-.4 2.5-1.1c2.5-1.1 6-4.7 6-6.1 0-1.2 5.7-5.2 6.4-4.5.3.3-.2 1.2-1.2 1.9-.9.7-1.2 1.4-.6 1.4 1.9 0 3.1-2.2 4.3-7.8.6-2.9 1.7-6.8 2.5-8.7 1.1-2.6 1.2-3.5.3-3.5s-.9-.2 0-.8c.6-.4 1.4-1.9 1.7-3.2.5-3.1 3.5-9 4.4-9 .4 0 1.6-2.8 2.6-6.3 1.1-3.4 2.3-6.7 2.8-7.3.4-.6.5-1.3.2-1.6-.6-.7 2.4-7 3.7-7.8.4-.3 1-1.8 1.3-3.4s1.2-3.6 2.1-4.6c1.2-1.3 1.6-4.5 1.7-14.1.3-15.8-1.7-29.9-4.8-34.5-3.1-4.5-1.7-4.3 3 .5 2.5 2.5 3.6 4.5 3.3 5.5-.4.9.4 2.7 1.8 4.2s2.5 3.7 2.5 4.9c0 1.1.7 3 1.5 4.1 2.1 2.8 1.8 4-.5 1.9-1.9-1.7-2-1.7-2.2.1-.3 4 1 12.7 2 13.4.5.3 1.6 2 2.5 3.9 1.6 3.1 1.6 3.5.1 4.6-1.8 1.2-2.8 6.5-1.3 6.5.5 0 .9 1.7.9 3.8 0 2.7.6 4.1 2.1 5 1.7 1.1 1.8 1.6.8 2.8-1 1.3-1 1.7.2 2.5.8.5 1.1.9.8.9-.4 0-.2 2.4.5 5.2.8 3.6 1.6 5.3 2.7 5.3 2 0 5.2 3.2 4 4-.5.3-1.2.1-1.6-.5-1.5-2.4-2.2-.6-2 5 .2 6.4.8 7.6 3.9 8.2 1.1.1 2.1.9 2.4 1.6.3.9-.3 1.1-2.3.6l-2.7-.7.6 4.9c.3 2.7.6 8.8.7 13.7.1 4.8.5 9 1 9.3s.9 1.4.9 2.4c0 1.9 3.5 8.5 5.7 10.8 1.9 2 1.6 3.4-.6 2.7-2.4-.7-5.1 2.8-5.1 6.7 0 1.9-.4 2.6-1.4 2.2-2-.8-2.7 7.4-.8 9.2.7.8 1 1.4.5 1.4-.4 0-1.6 1.4-2.5 3.1-2 3.5-2.4 9.9-.6 9.9.6 0 .9-.3.5-.6-.5-.5 11.4-10.3 12.1-9.9.2.2-2.4 3-5.8 6.5l-6 6.2 2.2 1.8c1.3 1 2 2.2 1.5 2.6-.4.4-1.4-.1-2.1-1.2-.8-1-1.8-1.6-2.1-1.2-1.1 1.1-2.4 8.7-2.5 14 0 2.9-.5 4.8-1.1 4.8-.8 0-1 2.3-.5 8.1.5 5.1.4 7.9-.2 7.5-.6-.3-1.3 1.9-1.7 5.2-.3 3.1-1.5 8.2-2.6 11.3-2.2 6.4-2.9 12.5-1.8 15.4.4 1.1.8 1.4.8.7.1-1.6 2.6-4.2 4-4.2.7 0 .8.6.2 1.7-.5 1-1.3 2.9-1.9 4.3-.5 1.4-2.2 5-3.6 8.1s-2.6 6-2.6 6.5-.7 4.4-1.7 8.7c-1.1 5.1-2.1 7.6-2.9 7.3-1.6-.6-2.3 1.4-1.7 4.6l.5 2.7 2.4-2.7c1.8-2.1 2.3-2.3 2.4-1 0 .9-.4 2-1 2.3-.5.3-1 1.5-1 2.6 0 2.6-3.5 9.5-6.5 12.6-1.2 1.4-2.7 4.8-3.3 7.6-1.2 5.2-3.2 31.1-3.4 42.2 0 6.3 1.6 26.9 2.7 32 .3 1.6 1 6.6 1.4 11 .5 4.4 1 8.4 1.1 9 .1.5.2 4 .1 7.7-.1 6.1-.3 6.8-2.1 6.8-2.3 0-2.6-3-2.1-20.8.3-9.8.2-10.4-1.8-10.9-1.1-.3-2.1-1.1-2.1-1.8 0-.8-.8-1.1-2-.8-1.5.4-2 0-2-1.5 0-1.1-.7-2.3-1.6-2.6-1.8-.7-5.4 1.9-5.4 3.9 0 .7-.8 1.9-1.7 2.6-1.5 1.2-1.6 1.2-.9-.6 2.2-5.8 2-7.4-1.4-9.2-1.8-1-5.4-3.3-8.1-5.1s-5.1-3.2-5.4-3.2h-1.3c-.5 0-1.7-.8-2.8-1.8-1-.9-4.1-2.8-6.9-4.2-2.7-1.4-5.3-2.9-5.7-3.4-1-1.4-3.4.9-4.9 4.7-1.8 4.5-5.5 9.8-6.2 9-.4-.3-.7.1-.7 1s-.4 1.7-.9 1.7c-1.1 0 .5-5.4 2.6-8.6.7-1.1 1-2.4.6-2.7-.3-.4-.1-.7.5-.7s2.1-1.8 3.2-3.9c1.6-3.2 1.8-4.6 1-6.6-1.2-3.2-.5-4.7 2-4.3 1.3.2 3.7-2.3 8.4-8.6 3.6-4.9 6.6-9.3 6.6-9.6 0-.4 1.1-2 2.5-3.6s4.2-5.4 6.2-8.4c2.1-3 4-5.7 4.3-6 .4-.3 1.9-2.3 3.5-4.5s4.7-6.1 6.7-8.6c4-4.8 5.1-7.4 2-4.6-1 1-2.1 1.5-2.3 1.2-.3-.2-2.5 1.9-4.9 4.7-2.5 2.8-5.1 5.6-5.9 6.2-.7.6-3.1 2.8-5.3 4.9-2.1 2-4.3 3.7-4.8 3.7-1.3 0-6.8-3.9-11-7.8-4.1-3.8-5.4-4-7.4-1-1.9 2.6-2.1 5.9-.5 7.5 1.4 1.4-.8 4.9-2.8 4.7-.7-.1-1.7-.2-2.2-.3-.5 0-1.1-1-1.4-2.2s-1-1.8-1.6-1.4c-1.6.9-1.3-2.7.4-4.8.7-1.1 1.1-2.6.8-3.4-.4-1.1.2-1.4 3.2-1.1 2.9.2 3.8-.1 4-1.4.2-1-.2-1.6-.8-1.5-.7.1-1.2-.5-1.2-1.3s-1.3-2.9-2.8-4.5l-2.8-3-2.2 2.6c-5 5.8-6.7 8.4-6.7 10.1 0 1-1.4 2.5-3.2 3.4s-3.7 2.3-4.1 3c-.4.8-1.3 1.4-1.9 1.4-1.5 0 2-5 5.9-8.4 1.8-1.6 3.3-3.4 3.3-4s1.4-2.9 3-5 2.6-4.4 2.2-5c-.3-.6-.7-1.6-.8-2.1 0-.6-.2-1.5-.2-2.1-.1-.6-1.5-2.5-3.2-4.2-1.6-1.8-3-3.6-3-4.2 0-.5-.7-1-1.6-1-1.1 0-1.4-.5-1-1.6.5-1.2.2-1.5-1-1s-1.5.2-1-1 .2-1.5-.9-1c-1 .4-1.9-.3-2.7-1.9-.9-2.1-1.4-2.3-3.2-1.3-1.2.6-2.3 1.4-2.6 1.7-.3.4-2.4 2.1-4.6 3.9l-4.2 3.2 1.7 3.5c.9 1.9 2.1 3.4 2.8 3.5 1.7 0 2.6 3.6 1.4 5.9-2.1 3.8-7.3 3.8-10.1.2l-1.7-2.3-4.2 4.1c-4.1 4.1-4.2 4.1-7.2 2.6-1.6-.9-2.7-2-2.4-2.5 1.2-2-1.8-.9-6.3 2.2-6.6 4.5-6.9 4.9-6.4 7.6.3 1.7.1 2.3-.7 1.8-.6-.4-.9-1.2-.6-1.7 1.4-2.1-1.9-.6-9.7 4.7-8.8 5.9-15 9.4-16.8 9.4-1.9 0-1-1.7 1.6-2.9 2.5-1.1 2.6-1.3.9-2.5s-1.5-1.6 2.4-4.4c3.5-2.6 4.7-3 6.3-2.1 3.6 1.9 13.2-4 9.9-6.1-.8-.4-1.2-1.7-.8-2.9q.45-2.1-.9-2.1c-.7 0-1.6-1.1-2-2.4-.3-1.4-1.2-2.7-2.1-3-.8-.3-1.1-1-.8-1.6.9-1.4 3.5-1.2 3.5.2 0 1.5 5.7 7.8 7 7.8.5 0 1.2-.5 1.5-1 .3-.6 1.1-1 1.6-1s-.4 1.4-2.1 3c-1.7 1.7-2.7 3-2.3 3 1.8-.1 14.8-9.7 14.9-11.1 0-.8-.8-2.8-1.8-4.5s-1.5-3.3-1.3-3.6c.3-.3-.6-1.3-2.1-2.3-2.8-1.8-2.5-1.9-11.2 2.3-1.8.9-4.4 2.6-5.8 3.9-2.4 2.2-6.4 3.2-6.4 1.5.1-1.6 2.6-3.9 5-4.5 1.4-.3 3.5-1.5 4.6-2.5s2.4-2.1 2.9-2.3c.6-.2 2.7-1.5 4.7-2.8l3.8-2.3-2.1-2.9c-2.3-3.3-2.2-3.2-6.6-2-4.3 1.3-5.1-.3-1.3-2.5 3.8-2.3 3.8-4 0-4.7-2.3-.5-2.8-1-2.3-2.3.5-1.4.3-1.6-1.2-1-3.7 1.4-3.6-1.8.2-5l3.7-3.1-3.1-1.8c-1.7-1-2.9-2.3-2.7-3 .3-.6-.1-1.2-.9-1.2-.7 0-2.5 2.1-4.1 4.7-1.5 2.5-4.1 5.5-5.7 6.5-1.6 1.1-3.1 2.7-3.4 3.6-.8 2.4-6.8 2.9-9.4.7l-2.2-1.7 2.6-4c2.7-4.3 3.1-6.1 1.5-6.1-.5 0-1 .6-1 1.3 0 1.2-6.8 8.3-9.7 10-1.6 1-6.3-1-6.3-2.7 0-.8-.5-1.6-1-1.8-.6-.2-.3-1.2.8-2.3 1-1.1 2.7-3.3 3.6-4.8 1.6-2.4 1.7-2.7.2-2.7-.9 0-1.6.4-1.6 1 0 .5-.5 1-1.1 1s-2.5 1.1-4.2 2.4c-6.3 4.7-8.9 5.5-14 4.4l-4.7-1 1.9-3.6c1.1-2 4.3-6.2 7.3-9.3 7.8-8.2 11-11.9 10.3-11.9-1 0-19.7 8.1-21.9 9.5-3.1 1.9-8.6 2.9-8.6 1.5 0-.6.3-.9.8-.7.4.3 1.3-.1 2-.9 1.1-1.2.7-1.4-2.3-1.4s-3.5-.3-3.5-2.3c.1-3.6 2.2-5.4 10.7-9.1 4.4-1.9 9.8-4.5 11.9-5.8 2.2-1.3 5.1-2.9 6.5-3.7 1.5-.7 5.5-4.1 9-7.5s8.1-7.4 10.2-9c2.8-2.1 3.5-3.1 2.5-3.7-1-.7-.9-.9.5-.9.9 0 1.7.4 1.7.9s1 1.2 2.3 1.6c1.2.4 2.4.8 2.7 1 2.8 1.2 3.7 1.4 5 1.2.8-.1 2.1-.7 2.9-1.1 1.1-.7 1.2-.6.5.5-.6 1.1-.2 1 1.6-.2 3.8-2.5 3.4-3.5-1.5-3.8-2.6-.1-4.5.2-4.5.9 0 .5-.5 1-1 1-.6 0-.9-.5-.8-1.2.4-1.8-4.5-2.6-18.2-2.7-6.9-.1-13.2-.6-14-1.1-1.1-.7-1.2-1-.2-1 1.3 0 4.2-2.4 4.2-3.4 0-1.2-4.7-.5-8.9 1.4-5.4 2.5-7.5 2.6-6.9.2.3-1-.2-2.4-1-3.2-1.3-1.2-1-1.6 2.9-3.4 3.6-1.6 7.7-2.1 22.9-2.6 10.2-.4 18.6-.8 18.8-.9.1 0 .2-1.6.2-3.5 0-4.5 1.8-5.6 2.2-1.4.3 3.2.4 3.3 6.3 4 3.3.4 8.1 1 10.6 1.4 3.2.4 5 .2 6-.8.8-.7 3-2.2 4.9-3.2 6.2-3.4 8.9-6.6 5.5-6.6-3.1 0-1.2-2.6 3.7-5 2.8-1.4 5.2-2.9 5.2-3.4.1-.6-2.6-1.6-5.9-2.4-3.3-.7-7.4-1.8-9.1-2.3-5.4-1.6-16.5-1-20.9 1.1-2.2 1.1-5.3 1.9-6.8 2-2 0-2.6.4-2 1.2 2.5 4 .1 4.9-5.6 2.1-4.8-2.2-7.7-3.1-11.3-3.2-1-.1-1.8-.9-1.9-1.9 0-1.3-.2-1.2-.9.5s-1.6 2.1-4.5 1.9c-1.9-.2-3.7-.5-3.8-.7-.2-.2-1-1.5-1.9-2.9-2.2-3.5-12.3-5.1-34.2-5.5-19.4-.3-22 .1-22.4 3.6-.7 6-1.2 7-3.5 6.7-1.6-.2-2.1-.9-1.8-2.3.6-3.3.4-7.5-.3-8.2-.4-.4-5.9.1-12.4 1-6.4.9-13.4 1.7-15.6 1.7-5.5 0-11.6 2-11.8 3.9 0 .9 0 2.6.1 3.8.2 2.6-1.1 3-2.9.8-1.3-1.5-6.4-1.1-8.8.8-3.3 2.6-13.5 5.5-21.7 6.2-2.2.1-4.6.3-5.4.4-.7 0-1.1.7-.8 1.5s.1 1.7-.6 1.9c-.8.3-.6 1 .7 1.9 1.8 1.4 1.8 1.5-.7 2.2-2.8.7-3.2 2.7-.7 3.7 2.1.9 9.7-.4 21-3.5 5.2-1.5 10.6-2.5 12-2.3 1.8.2.5.9-4.5 2.3-10.9 3.2-20.7 5.4-24 5.4-1.8 0-4.1 1-5.7 2.5-2.5 2.3-11.1 4.4-15.5 3.9-.7-.1-1.7-.2-2.3-.3-1.6-.2-1.1-3.3 1-6.9 1.1-1.8 2-3.9 2-4.7 0-.7.9-2.9 2-4.8 3.9-6.6 3.5-23.3-.7-27.4-2.9-3-2.9-4.6 0-6.7l2.2-1.7-2.7.4c-2.7.4-4-.9-4.3-4.6-.3-2.6 1.2-3 4.7-1.3 1.7.9 5.2 1.6 7.7 1.6 3.3 0 4.2.3 3.1 1-.8.5-2.5 1-3.6 1-1.2 0-2.7.6-3.3 1.4-1 1.2-.9 1.7.6 2.4 2.5 1.4 21.4 1.8 35.7.7 10.9-.7 11.9-.6 11.3.9-.8 2.1 1.2 2.1 8.4 0 9.9-2.8 10.4-3.1 10.6-7 .1-2.7-.2-3.4-1.2-3-.8.3-1.7.1-2-.4s-2.6-1.2-5.1-1.6c-2.5-.3-4.2-.9-3.9-1.2 1.1-1.1 7.9-.9 9.1.3 1.5 1.5 8.5 1.1 12.7-.6 2.5-1.1 2.7-1.4 1.2-1.9s-1-1.1 2.5-2.7c4.1-2.1 4.2-2.1 4.7-.2.3 1 1 1.9 1.5 1.9 2.2 0 4.3 3.9 6.4 11.8.2.7.8 1 1.4.7 1.5-.9 1.2 4.2-.5 7.4-.8 1.6-2.1 3.1-3 3.5-6.7 2.6 13.5 3.4 44 1.7 9.9-.5 15-1.2 17.4-2.4 1.9-.9 4.2-1.7 5.2-1.7s2.6-1.4 3.6-3c.9-1.7 2.1-3 2.5-3s.8-2.6 1-5.8c.3-5.2.5-5.7 2.6-5.6 1.2 0 2.2-.3 2.2-.8s.4-.7.9-.4c.5.4 1.1 0 1.4-.6 1-2.8 2 .5 2.1 6.4.1 4.3.5 6.3 1.4 6.4.6.1 1.9.2 2.7.3 2 .1 1.9 2.1-.1 2.1-.8 0-1.2.4-.9 1 .8 1.3 6.1 1.3 10.5-.1 1.9-.6 6.9-1.1 11.2-1.1 6.6 0 7.7-.2 8.1-1.9.5-1.7 1.5-1.9 9.1-1.9h8.5l.7-3.5c.8-4.4.2-5-4.1-4.7-1.8.2-3.6-.1-4-.7-.6-1.1 1.9-1.5 5.8-1.2 1.9.2 2.4-2.5.5-3.2-1-.3-1-1.1-.2-3.4 1-2.8.9-3.2-1-4.1-2.9-1.4-9.7-3-18-4.2-3.7-.6-7.5-1.7-8.3-2.5-1.7-1.7-2.7-2-1.8-.5.3.5-.3 1-1.4 1-1.2 0-2.1-.4-2.1-.9 0-1.5-4.4-1.8-5.5-.4-1.3 1.7-9.5 2.9-9.5 1.4 0-.6.5-1.1 1.1-1.1.5 0 .7-.5.3-1.2-.5-.8 0-.9 1.4-.6 1.2.4 2 .2 1.6-.3-.7-1.2-5.6-1.1-7.4.2-1.3.9-1.2 1 .3.5.9-.3 1.7-.1 1.7.4 0 .6-.6 1-1.2 1.1-.7 0-2.5.3-4 .5-2 .3-3-.1-3.8-1.6-.8-1.4-.8-2 0-2 .6 0 .8-.5.5-1-.3-.6-1.8-1-3.3-1-3 0-5.9-1.5-4.6-2.2.5-.3 4.5-.1 8.9.3 14.2 1.4 13.4 1.5 12.4-3.2-.7-2.8-.6-4.5.1-5.4.8-1 .2-1.5-2.8-2-2.1-.3-5.2-1.3-6.8-2.2-1.6-.8-4-1.9-5.4-2.4-2-.6-1.5-.8 2.4-.7 4.7.2 4.8.1 6.1-3.6.7-2 2.1-4.6 3-5.6 1.7-1.9 1.6-2-1.1-3.1-1.6-.6-4.5-1.3-6.5-1.4-4.3-.4-10.9-3-10.9-4.4 0-.5-.9-.8-2-.6s-2-.1-2-.6c0-.6 2-.8 5.1-.5 4.8.6 5.1.5 4.6-1.4-.3-1.1-.1-2 .3-2 1.3 0 4.3-6.7 3.5-7.9-.4-.7.4-1.1 1.9-1.1 1.4 0 2.6.4 2.6 1 0 .5-.7 1-1.6 1-.8 0-1.2.5-.9 1 .4.6.3 1.9-.1 2.8-1.3 3.1-1.2 4.2.4 4.2 1 .1 2.8.8 4.2 1.6 2.5 1.5 2.5 1.5-1.2.9-4.4-.7-5.2 1-1.2 2.5 1.9.8 2.9.6 4.1-.5 1.2-1.3 1.8-1.3 3-.3 1.3 1 1.3 1.3-.4 1.9-1.4.5-1 .9 2 1.7 2.1.6 4.4.9 5 .6 1.8-.7 4.7-7.1 4.7-10.4 0-1.7.4-3 .9-3 .4 0 2-1.1 3.5-2.5l2.6-2.5-2-2c-2-2-2-2-.1-2 1.1 0 2.3-.5 2.6-1 .4-.6 1.1-.8 1.6-.5s.6 0 .3-.8.2-2 1.1-2.7c.8-.7 1.5-1.8 1.5-2.5 0-2.8-15.8-8.1-22.7-7.6-1.8.1-3.3-.2-3.3-.7s-2-1.9-4.5-3.1c-6.6-3.3-6.8-4.5-.6-3.9 4.9.5 5.3.3 7.5-2.6 1.3-1.7 2.7-4.1 3-5.3.7-2.1 2-2.4 4.3-1 1.2.7.7 3.7-.8 4.7-.4.3-1 2.1-1.4 4.1-.6 3.4-.5 3.7 2.7 5 1.8.7 3.5 1.4 3.8 1.5.3 0 1.8.7 3.4 1.4 2.5 1.2 3 1.2 4-.1 1.5-2.1 5.3-3.3 6.1-1.9s2.5 1.3 2.5-.2c0-.6 1-2.2 2.1-3.5 2-2 2-2.3.5-2.9-.9-.3-1.6-1.7-1.6-3 0-2.7.3-2.8 3.1-1.4 1 .6 1.9.7 1.9.3 0-1.1-2.8-2.9-11.8-7.5-6-3.1-7.6-3.5-8.7-2.5-3.3 2.9-4.1 3.3-5.3 2.9-1.5-.5-1.5-2.7.1-5.2 1-1.7.9-2.2-.3-3s-.9-1 1.3-1c2.4 0 3.2-.9 2.8-3.3 0-.4.6-.7 1.4-.7s1.5-.5 1.5-1.1c0-.5.5-.7 1-.4.6.3 1 1.7 1 3m785-1.3c0 1.3-1.1 2.4-3 3.1-1.6.6-3 1.4-3 1.8s-1.5 1-3.4 1.3c-1.9.4-3.9 1.3-4.6 2.1s-2 1.5-3 1.5-2 .7-2.4 1.5c-.3.8-1.2 1.5-2.1 1.5-.8 0-1.5.4-1.5.9s-1.5.8-3.2.7c-1.8-.1-4 .1-4.8.5-.8.3-6.1 1-11.7 1.4-8.9.6-10.3.5-10.3-.9 0-1.3 2.3-2.8 8.5-5.2 1.1-.4 4.1-.6 6.7-.5 4.4.3 4.8 0 7-3.3 2.6-4 9.2-6.6 17-6.6 2.3 0 4.8-.4 5.5-.8s2.8-.8 4.8-.9c2.8 0 3.5.3 3.5 1.9m-979 39.7c0 .6 2 1.3 4.5 1.7 2.5.3 4.8 1 5.1 1.5s2.4.9 4.7.9 4.9.5 5.7 1c1.2.7.8 1-1.5 1-1.6 0-5.5.2-8.5.5-3.7.3-4.5.2-2.5-.3l3-.8-3.1-.5c-1.7-.3-4-.2-5 .2-1.3.5-1.5.8-.4.8.8.1 2.8 1.3 4.4 2.7 2.5 2.4 3.3 2.6 8.1 2 5-.6 5.3-.5 4.8 1.4-.3 1.3 0 2 .8 2 1.1 0 1.1.2-.1 1-1.3.9-1.3 1.1 0 2 1.1.7 1.2 1 .2 1-.9 0-1.1.7-.7 1.9.3 1.1.1 2.2-.5 2.6-.5.3-1 1.9-1 3.4 0 2.5-.5 2.9-3.7 3.4-2.2.4-3.9.2-4.1-.3-.5-1.5-2.2-1.2-2.2.3 0 1.6-4.1 3.7-7 3.7-1.1 0-2 .4-2 1 0 1.4-3.2 1.2-7.3-.5-2.9-1.2-4.2-2.7-6.2-7-2.7-6-2.6-9.8.4-11.5.9-.5 1.2-1 .7-1s.1-1.1 1.4-2.5c2.3-2.4 2.3-2.5.5-4.6-1.6-1.7-1.7-2.2-.5-2.9.8-.6 2.3-1 3.2-1s2.1-.6 2.5-1.4c.7-1.2 2.6-2 5.6-2.5.4 0 .7.3.7.8m981.1 7.3c4.5 2.4 8.6 5.8 8.2 6.9-.1.4.7 1.5 1.8 2.5 1.8 1.6 3.7 1.8 14.7 1.7 11.9-.2 12.5.2 4.5 2.1-1.8.5-3.3 1.3-3.3 1.8s-.4.7-.9.3c-1.1-.6-6.2 1.4-7.4 3-.4.5-.5 1.8-.3 2.7s-.3 1.9-1.2 2.3c-3.1 1.2 0 1.8 8 1.6 4.6-.1 9.4.2 10.8.8l2.5 1h-2.6c-1.5.1-4.3.8-6.3 1.6-3.1 1.3-3.6 2-3.6 5 0 1.8.5 3.7 1 4 1.7 1.1 1.1 5.4-.9 6.5-1.1.5-4.4 1-7.5 1-4.9 0-5.7.3-7.5 2.9-1.7 2.3-3.1 3-6.8 3.5-2.7.3-6.7.8-9.1 1.2-2.6.4-6.8 0-11-1-3.7-.9-11.1-2-16.4-2.5-13.2-1.3-14.7-2.5-6.6-5 3.3-1.1 3.6-1.4 2.6-3.1-.7-1.1-1.4-1.7-1.6-1.5-.8.8-6.2-3.6-6.2-5.1 0-1-1.2-1.4-3.8-1.4-2.1 0-4.2-.4-4.7-.9-.6-.5-2.3-1.1-4-1.3-2.3-.3-1.4-.7 4.4-2.1 4-.9 8.6-1.7 10.2-1.7 2.2 0 2.9-.5 2.9-1.9 0-2-.4-2.1-15-3.7-5.3-.6-5.6-.5-7 2.1-1.1 2.1-1.2 3-.1 4.7.7 1.1 1 2.2.7 2.5-.2.3-4.1.6-8.5.6-6.3.2-8.4-.2-9.7-1.5-2.1-2-1.2-4.8 1.6-4.8 1.1 0 2.3-.7 2.6-1.5.4-.8 1.1-1.5 1.6-1.5.6 0 2.4-.6 4.1-1.4 1.8-.8 4.8-1.9 6.7-2.5 2.5-.8 3.9-2 4.7-4 1.2-3.4 2.5-3.7 16.8-4.9 8.1-.6 9-.9 9-2.7 0-1.4.8-2.1 2.8-2.3 1.5-.2 2.7-.9 2.7-1.8s1-1.4 2.8-1.4c1.5-.1 3.8-.7 5.2-1.5 4-2.3 14-1.9 19.1.7m-112.7 12.5c1 1.9 1.9 9.6 2 19 .1 5.1-.3 6.6-2.1 8.5-1.3 1.4-2.3 3-2.3 3.6 0 .7-.7 1.2-1.6 1.2s-1.4.6-1.1 1.3-.1 2.1-.8 3c-1 1.4-2.5 1.7-7.1 1.5-5.4-.3-5.9-.5-5.8-2.6 0-1.8-.4-2.2-2-2.1-1.2.2-3.6-.1-5.5-.5-2.3-.6-3.6-.4-4.1.5-1.2 1.9-.1 3.6 2.2 3.4 1.2-.1 3 .7 4 1.7 1.2 1.2 3.3 1.8 6 1.8 6.9 0 21.5 6.6 26.2 11.9 1.4 1.6 1.6 2.1.5 2.1-1 .1-.9.4.4 1.1 2.3 1.4 2.2 6.2-.3 8.4-1.6 1.4-2 3.1-2 7.5 0 6.3.8 7.4 5.5 7.9 4.2.4 5.2 1.7 3.6 4.3-2.2 3.6.8 4.8 11.7 4.8 8.7 0 9.6.2 12.6 2.6 1.7 1.5 3.6 3.9 4.3 5.3.6 1.4 1.2 2 1.2 1.3.1-1.5 7.8-1.6 11.6-.2 7.2 2.7 18.7 3.5 25.4 1.6 7.9-2.2 18.8-1.4 23.5 1.6 4.2 2.7 5.3 4.8 3.2 6.4-1.7 1.2-2.1 3.4-.7 3.4 2.6 0 4.1-1.4 3.6-3.4-.8-3.5 1.8-5.6 8.3-6.7 5-.7 6.9-.6 10.1.7 2.3.9 4.1 1.9 4.1 2.3s-1.6 2.9-3.6 5.4c-2.5 3.3-4.9 5.1-7.5 5.9-4.7 1.4-5.3 4.2-1.1 5.3 1.5.3 5.7 3.7 9.4 7.6 3.6 3.8 7 6.9 7.5 6.9s2.9 1.8 5.4 4l4.4 4-16.5-.6c-9.1-.4-17.3-1.1-18.2-1.5-.9-.5-4.2-.9-7.2-.9-3.1 0-5.6-.4-5.6-1 0-.5-1.7-1.2-3.7-1.5-3.8-.7-6.1-1.5-12-4.4-3.1-1.5-3.7-2.5-3.5-6 0-.8-.6-2-1.4-2.8s-1.4-2.1-1.4-2.9c0-2.3-2.6-4.4-5.3-4.4-1.6 0-3.8-1.3-5.8-3.5-1.9-1.9-4.3-3.5-5.4-3.5s-4-1.1-6.4-2.5c-4.6-2.7-8.5-3.2-9.7-1.4-.9 1.5-11.6 6.2-17.7 7.9-5.8 1.5-10.5 5.7-11.3 9.9-.6 2.9-.9 3.1-5.1 3.1-2.4 0-5.8-.8-7.6-1.7l-3.2-1.8 2.8-.3c3.2-.4 3.5-2.4.7-5.4-1.6-1.8-2-3.6-2-9.2 0-3.8-.2-6.7-.5-6.4s-2.1-1-3.9-2.8c-2.9-2.9-4.1-3.4-8-3.4-5.3 0-7.6-1.9-9.6-8-1.3-3.8-.7-6.7.8-4.3 1.4 2.2 8.4 2.5 12.7.5l4-1.9-7.5-.7c-17.3-1.6-19.1-1.9-18.1-2.9.5-.5 5.3-1.1 10.6-1.3 11.9-.4 15.5-1.9 7-2.9-10.3-1.2-13.7-2.3-13-4.4 1-3.2-7.1-5.4-20-5.6-4.9-.1-9.3-.3-9.7-.4-.5-.2-1.2-.4-1.7-.5-1.5-.2-2.5-1.6-1.3-1.7.7-.1 1.8-.2 2.4-.3.7 0 1.4-.8 1.6-1.6.5-2.6-5.3-3.9-19.8-4.6-11.8-.6-13.7-.5-14.9.9-1.5 1.9-1.4 2 6.6 4.2l4.8 1.3-4.3.1c-2.4.1-6.2-.3-8.5-.8-2.3-.6-5.5-1.2-7-1.6l-2.8-.6 2.3-2.9c1.3-1.6 2.7-2.9 3.1-2.9.4-.1 4.2-2.4 8.4-5.1 4.2-2.8 8.7-5 10-5s2.2-.4 1.9-.9c-1.3-2 3.1-3.3 16.1-4.6 7.6-.8 14.7-1.5 15.8-1.5 1.5 0 1.7-.2.7-.9-1-.6-.9-1 .7-1.4 1.2-.3 2.4-.1 2.7.4s1.2.9 2 .9c2.2 0 1.8-5.7-.4-6.2-1.5-.4-1.7-1.3-1.4-4.4.2-2.1.9-4.5 1.5-5.2.7-.9.7-1.6-.1-2.4-2-2-1.4-2.8 2.8-3.4 2.2-.4 4-1 4-1.5s1.3-1.5 2.9-2.4c2.2-1.1 2.8-2 2.4-3.5-.3-1.1-.9-1.7-1.4-1.4s-.9-.2-.9-1c0-.9.7-1.6 1.5-1.6.7 0 1.8-.6 2.2-1.4 1.3-2.2 3.4-2.6 11.3-2.1 5.6.4 7.7.9 8.4 2.2m-853.5 15.7c.2-2.8 6.2-2.2 8.2.8.3.4 5.8 1.9 12.2 3.3 11.5 2.4 17.7 4.7 17.7 6.4 0 1.3-3 2.2-4.9 1.6-.9-.3-3.8.4-6.6 1.4l-4.9 1.9 7.1.7c4.6.4 7.8.3 9.2-.4 1.6-.9 2.2-.8 3 .8.6 1 .8 2.1.5 2.4s1.5 1.5 4.1 2.6c4.7 2.1 5.3 4 1.2 4.2-2.1 0-2.1.1-.2.9 1.2.5 1.4.9.6.9-.8.1-1.1.4-.7.8.4.5 1.4 0 2.1-1.1 1.3-1.8 4.1-1.4 3 .5-.4.5.3.9 1.4.9s2.6.7 3.5 1.5c.8.8 1.7 1.5 2.1 1.5 1.7 0 3.5 3.2 3.5 6.4 0 3.3-.3 3.6-2.7 3.6-2.4.1-2.5.2-1.1 1.1 1.5.8 1.6 1.3.5 2.9-1.5 2.6-5.3 2.6-6.9.1-1.2-1.9-1.2-1.9-2.6 0-1.7 2.5-3.6 1.5-2.2-1.2.9-1.6.7-1.9-.8-1.9-1 0-2.4.6-3.1 1.2-1.1 1-1.4 1-1.8.1-.2-.7-2-1.5-3.9-1.9-5.2-1-4.1-2.4 1.9-2.4 2.8 0 7-.7 9.2-1.5l4-1.4-4-.1c-4.3-.1-3.5-.8 3.5-2.8 3.3-.9 3.1-1-3-1.1-4.1-.1-6-.4-5.1-1 1.7-1.1.6-3.1-1.7-3.1-1.3 0-1.3-.2.4-1.5 2.2-1.7 2.4-1.6-4.7-1.8-3.8-.1-6.1-.8-7.3-2-1.7-1.6-1.6-1.7 1.1-1.7 1.5 0 3.5-.5 4.3-1 1.1-.7.2-1-3.2-1-2.6 0-5.8-.4-7.2-1-1.4-.5-4.9-1.2-7.7-1.4-4.2-.5-5-.3-4.5.9.6 1.7-1.9 2.1-2.9.5-.3-.6-1.7-1-3.1-1-1.3 0-2.4.4-2.4 1 0 .5 1 1 2.1 1 3.1 0 9.9 2.2 9.9 3.2 0 .4-.7.8-1.5.8s-1.5.5-1.5 1.1-3.7.9-10.5.8c-5.8-.1-10.8.1-11.1.4-.4.3-1.6.2-2.8-.2-1.1-.4-4.8-.9-8.1-1-6.7-.3-10.4-2.4-7.3-4.2 1-.5 1.5-1.6 1.2-2.4-.4-.8-.1-1.5.5-1.5s1.1-1.1 1.1-2.4c0-1.9.6-2.4 3.8-3 2-.3 5.5-.6 7.7-.6 3.8.1 3.9.1 2 1.6-1.1.8-1.9 2-1.7 2.5.1.5-.6.9-1.5.9-1.5 0-1.6.2-.3 1 .8.5 2.5 1 3.8 1s2 .4 1.7 1c-.4.6 1.3 1 4.4 1h5.1l-1.3-2.7c-.9-2.1-.9-2.7.1-3.1 1.6-.5 1.6-2.2-.1-2.2-.9 0-1.1-1.2-.9-4 .2-2.2 0-4-.6-4-1.1 0-2.2-4.6-1.3-5.5.3-.3.9.2 1.2 1.2.4 1 .8 1.3.8.7M700 335.3c0 .8-2.2 3.8-5 6.7-5.3 5.7-5.9 7-3.5 9 2.2 1.8.8 3.2-2.8 2.8-3.1-.3-3.2-.2-3 3.7.1 2.2-.1 3.1-.4 2-1-4-2.2-3.6-6.2 1.9-2.3 3-4.1 5.9-4.1 6.4 0 .4-.5 1.3-1.1 1.9-1.8 1.8-5 11.2-6 17.3-.9 6.3.3 8.8 2.7 5.5 1-1.4 2.4-1.9 4.4-1.7 1.7.2 3-.1 3-.6 0-.6.7-1.2 1.5-1.6 2.7-1 1.6 1.4-1.2 2.6-1.6.7-4.5 2.3-6.5 3.5-3.3 2-3.8 2.8-3.8 6.1 0 3.5 2.5 15.1 3.5 16.1.7.6 4.5-4 4-4.9-.2-.4.4-1.5 1.5-2.5s2-2.2 2-2.7c0-1.4 7.3-16.1 8.7-17.6q3.15-3.3-1.8 6.9c-1.7 3.5-4.1 8.4-5.2 10.9-1.2 2.5-2.5 4.7-2.8 5-1 .8-4.9 9.3-4.9 10.7 0 .7-.4 1.3-.9 1.3-.4 0-1.4-2.6-2-5.8-.7-3.1-2-7.4-3-9.6l-1.7-3.8-2.8 4.3c-1.7 2.5-2.9 5.8-3 7.8-.1 2.2-1 4.3-2.5 5.8-1.3 1.3-2.4 2.3-2.6 2.1-.1-.2-.5-2.1-.9-4.3-.5-2.7-.4-3.5.3-2.6 1.4 2.2 3.8-.2 5.2-5.3 2.7-9.7 2.8-10.4.7-12.5-1.3-1.5-1.5-2.1-.5-2.1 3.8 0 6.4-5.9 8-18.1.6-4.4-.5-6.8-2.5-5.1-.8.6-2.4.8-3.7.5-2.9-.7-.8-2.3 3.2-2.3 2 0 3-.7 3.7-2.5.5-1.4 1.2-2.5 1.5-2.5.4 0 .4.4 0 .9-.3.5-.1 1.2.4 1.5 1 .7 7.1-7.3 10.6-14.1 2.2-4 2.2-4.3.5-4.3-1 0-2.2-.5-2.5-1-.3-.6-2.4-1-4.6-1-3.8 0-3.9.1-4 3.7-.4 10.1-1.9 12.8-1.9 3.2v-6.3l-2.8 3c-1.6 1.8-3.9 3.7-5.3 4.4-1.5.8-.8-.2 1.9-2.8 2.4-2.3 4.1-4.6 3.7-5.2-.3-.5 0-1 .7-1 .8-.1.5-.7-.7-1.6-2-1.6-2-1.6.3-.9 1.8.5 2.2.2 2.3-1.7 0-2.1.1-2.2.8-.3.8 1.9.8 1.9 2.2-.3.8-1.2 2-2.2 2.8-2.2 1.1 0 1 .5-.3 2.5-2.1 3.3-2.1 3.3 2 4.4 4.6 1.3 8.9-.2 8-2.7-.5-1.3-.3-1.3.9.3 1.4 1.7 1.7 1.8 2.5.5.5-.8 1-1.9 1-2.3 0-.5.5-.5 1.1-.2.6.4 2.2-.7 3.6-2.4s2.9-2.8 3.4-2.5.9-.2.9-1c0-.9.5-1.6 1-1.6.6 0 1-.7 1-1.5s.2-1.5.5-1.5.5.6.5 1.3m505.7 14 1.1 2.4-33.1-.2c-18.3-.2-34.9-.6-36.9-1-8.4-1.6-2.7-2.5 18.5-2.8 12.2-.1 28.3-.3 35.8-.5 13.4-.2 13.6-.2 14.6 2.1m-565.6 7.6c.6-1 .9-.6 1 1.6.1 1.6 0 3.4-.1 4-2 8.1-1.8 11.4.5 9.5 1.1-.9 1.2-.7.8 1-.3 1.1-.9 2.3-1.4 2.6-1 .6-1.2 19.7-.2 20.7.4.4 2-.5 3.7-2 2.9-2.7 2.9-2.7 1.3-.3-2.9 4.2-3.1 5.3-1.5 6.4 1.5.9 1.5 1.1 0 2.2-1.4 1-1 1.8 3.1 7.1 2.6 3.2 4.7 6.2 4.7 6.6 0 1-5.2-4.4-7.9-8.2-2.5-3.5-4.1-4-4.1-1.2 0 1.1-.4 2.3-1 2.6-.5.3-1-.3-1-1.4 0-2.5-.3-2.6-3.8-.4l-2.7 1.8 1.8-2.8c2.1-3.3 2-3.7-2.5-4.7l-3.3-.7 3.8-.8c2.3-.4 3.7-1.3 3.7-2.2 0-1.6-10.4-12.3-17.3-17.8-2-1.6-3.7-3.6-3.7-4.2 0-1.4-1.7-1.7-6.1-1.4-2.3.2-2.6-.1-2.2-2.3.3-1.6 1-2.3 1.9-1.9.8.3 1.4 1 1.4 1.5 0 .6 1.4.8 3.4.5 2.4-.4 3.9-.1 4.7.9s.8 1.4 0 1.4c-.6 0-1.1.4-1.1 1 0 .5.6 1 1.3 1 1.3 0 7.7 6.5 7.7 7.8 0 .3 2.8 3.2 6.3 6.4l6.2 5.7.3-9.6c.3-10.1-.1-12.8-1.8-11.8-.5.3-1 0-1-.6 0-.7-1.7-3.1-3.7-5.3l-3.8-4 4.8 3.8c2.6 2.1 5 3.6 5.3 3.4.2-.3.5-2.4.6-4.8.1-3.4-.3-4.6-2.3-6-2.1-1.7-2.2-1.8-.4-1.7 1.6.2 2.1-.5 2.4-3.3.4-2.9.5-3.1.9-1.1.3 1.9.6 2.1 1.3 1m-386.5 62.6c.8 1.9 3.7 1.9 7.6-.1 2.5-1.3 3.2-1.3 3.9-.3 1.1 1.9-1.1 4.1-3.5 3.5-1.1-.3-2.6 0-3.4.7-.8.6-2.3 1.6-3.4 2.2-1.2.5-2.8 2-3.6 3.3-1.5 2.3-1.5 2.3 1.3 1.6 2.1-.5 2.7-.4 2.3.7-.3.8-.9 1.4-1.5 1.4s-2.5 1.4-4.2 3.2c-2.7 2.9-4.8 3.8-12.8 5.6-1.2.3-2.4 0-2.6-.6s-1.7-.7-4.2-.2c-3 .6-3.5 1-2 1.4 1.1.3-1.5 1-6 1.7-4.4.7-9 1.5-10.2 1.9-1.5.5-2.3.3-2.3-.4 0-.6.7-1.1 1.5-1.1 2.8 0 9.5-3.2 9.5-4.5 0-.9 1.8-1.6 4.5-2.1 2.5-.3 4.2-1 3.9-1.5s.4-.9 1.4-.9c2 0 4.9-2.6 3.9-3.6-1-1.1 7.6-8.2 11.3-9.3 2.1-.6 4.3-1.8 5-2.6 1.6-1.9 2.9-1.9 3.6 0m-54.8 3.7c1.7 1.7 11.2 1.9 10.5.3-.3-.8.4-1.1 2.1-.8 3.9.8 2 3-3.1 3.8-4.3.6-4.7.9-6.6 5.6l-2.1 4.9h-5.2c-5.8 0-6.6-.8-7-7-.5-6.6.5-7.6 7.2-7.9 1.6 0 3.6.5 4.2 1.1M571 445.6c0 1.7.6 2.8 2 3.1 2.2.6 2.7 2.3.7 2.3-3.6 0-3.7 11.1-.3 14.9.9 1 1.1 2.2.6 3.1-.4.8-.3 2.6.3 4 .5 1.4 1.2 3.6 1.4 4.9s1.1 3.3 1.9 4.5c.8 1.1 1.4 2.8 1.4 3.8 0 3.3 1.9 2.8 3.9-.9s2-3.7 1.6-.8c-1.5 9.8-1.5 9.5 1.6 10.2 3.4.6 3.7 2.3.9 4.8-1.1 1-2 2.8-2 3.9-.1 1.9-.2 1.9-1.1.3-.5-.9-1.3-1.7-1.7-1.7-.7 0-2.1 3-3.6 7.4-1.2 3.4-1.8.9-.7-3 .6-2.1.9-3.9.7-4.1-.7-.7-10.7 4.9-11.3 6.3-.7 1.8-2.3 1.8-2.3.1 0-2.1 3.6-4.9 6.3-5.1 1.4 0 2.3-.4 2-.9-.2-.4.7-1.1 2.2-1.7 1.4-.5 2.7-1.5 2.9-2.2s.8-2.8 1.4-4.6c.6-1.7.6-3 .1-2.6-.5.3-.9-.2-.9-1 0-.9-.4-1.6-.8-1.6-.8 0-2.6-5.6-3.9-12.3-.3-1.5-1.2-2.7-1.9-2.7-.8 0-1.4-1-1.4-2.5 0-2.8-3.1-5-4.7-3.4-.7.7-1.2.4-1.6-1-.4-1.6 0-2.1 1.6-2.2 1.2 0 1.6-.3.9-.6-.8-.3-1-.9-.4-1.6 1.3-1.7 2.5-9.3 2.3-15-.1-2.6.3-4.7.9-4.7.5 0 1 1.2 1 2.6m-288.8 22.8c1 .7 1.5 1.6 1.1 1.9-.3.4 0 .7.7.7s1 .3.7.7c-.4.3 0 1.7.9 3.1 1.5 2.2 1.4 2.5-.4 4.5-1.1 1.2-2.3 3.2-2.7 4.4-.3 1.4-1.4 2.3-2.5 2.3-2.3 0-6.2 3.9-5.3 5.3.3.5.8.5 1.3-.2.8-1.5 4-.3 4 1.4 0 .7 1.4 1.8 3.1 2.4 2.8 1 3 1.3 2.7 5.3-.3 3.9-.6 4.3-3 4.6-1.6.2-2.8-.1-2.8-.6 0-1.6-8.4-9.2-10.1-9.2-.9 0-7.2 3.7-14 8.3s-15.1 10.1-18.4 12.3c-6.9 4.6-13.5 7-14.6 5.2-.5-.8-2.3-.3-5.8 1.5-6.1 3.2-7 3.4-4.6.7 1-1.1 2.2-2 2.7-2 .4 0 1.7-.9 2.8-2s1.6-2 1.1-2-1.1-1.8-1.3-4.1l-.4-4 4.9.6c4.8.7 4.9.7 4.2-1.6-.4-1.7-.3-2 .3-1 1.1 1.6 3.2.6 3.2-1.5 0-.8.8-1.5 1.8-1.5 1.6-.1 1.6-.2 0-.6-2.9-.7-2.1-2.2 3.2-5.5 2.8-1.7 5-3.6 5-4.3 0-.6.9-2.1 1.9-3.2 1.3-1.3 1.6-2.4 1-3-1.5-1.5 5.2-4.7 14.3-6.8 6.6-1.6 8.3-2.5 13-6.8 4.6-4.2 7.9-6.5 9.8-6.6.3 0 1.3.6 2.2 1.3m711.3 40c.7-.3 1.9.4 2.7 1.5 2.1 2.9 6.5 4.4 13.1 4.2 3.6 0 5.7.3 5.7 1.1 0 .6.8 1.7 1.7 2.4 2.8 2 1 2.6-4.3 1.4-2.6-.6-7.8-1.2-11.6-1.4-6.4-.2-6.6-.1-3.8 1.2 1.6.8 3.2 2.2 3.5 3.1.3 1 2.1 2.5 4 3.4s3.5 2.4 3.5 3.3.8 2.3 1.8 3c1.5 1.2 1.2 1.3-2.5 1.4-3 0-4.3.4-4.3 1.4 0 1.7-3.4 1-5.1-1-1.3-1.6-9.9-1.9-9.9-.3 0 .5-.5.7-1 .4-.6-.4-.8-1-.5-1.5s-1.3-1.9-3.6-3.1c-3.4-1.7-4.6-1.9-6.6-1-1.8.8-2.2.8-1.7 0 .4-.8.3-.9-.5-.5-.7.5-2.1-.3-3.5-1.9-1.8-2-2.9-2.5-4.5-2-1.2.4-2.1.2-2.1-.4s.4-1.1.8-1.1c.5 0 .9-.7.9-1.5s-.8-1.5-1.6-1.5c-.9 0-2.2-.9-2.9-2-1-1.7-1-2.1.3-2.6.8-.3 1.2-1 .9-1.5s0-.9.6-.9.8-.5.5-1.1c-.4-.6-1.3-.8-2.1-.5s-1.4.1-1.4-.4c0-.6.7-1 1.6-1 .8 0 1.2-.5.9-1-.9-1.5 3-1.2 7.5.6 2.9 1.2 5.4 1.5 8.8.9 2.6-.3 6.4-.6 8.5-.6 3.7.1 3.7.1 3.9-4.1l.1-4.3.4 4.2c.3 3 .8 4 1.8 3.7m-37.1 33.1c-.5 1.1-.2 1.3 1 .9.9-.3 1.6-.1 1.6.6 0 .6.4.9.9.5.5-.3 1.2-.1 1.6.5s1.5.4 3-.6c3.7-2.4 5-1.4 4.6 3.7-.1 2.4-.7 4.8-1.2 5.3-.5.6-.9 1.9-.9 3.1 0 3.9-2 4.6-6.2 2.3-2.1-1.2-4.5-3.3-5.4-4.6-2.1-3.2-2.3-9.2-.4-11.5 1.8-2.1 2.1-2.2 1.4-.2m-527.4 10c0 .6 2 2.8 4.5 4.8 4.6 3.9 5.8 4 8.3.5 2-2.8 3.7-2.2 1.8.7-1.6 2.4-2.2 5.5-1 5.5.4 0 2.2-1.7 4-3.7 4-4.3 4.3-3.8 1.2 1.8-2.2 3.8-2.2 4.1-.6 5.3 1 .7 1.5 1.5 1.3 1.8-.3.3 1.2 2.1 3.4 4.1 2.1 2 4.2 3.3 4.5 2.9.4-.3.4.1 0 1.1-.7 1.8-2.4 2.3-2.4.7 0-.6-.8-1-1.8-1s-2.3-.5-3-1.2-1.2-.9-1.2-.4c0 1.2-2.5-1.7-3.4-3.9-.5-1.3-1-1.5-1.3-.8-.6 1.7-4.3-.2-4.3-2.1 0-1.7-5.9-8-8.4-8.9-1-.4-1.6-1.3-1.3-2.2.4-.8-.2-1.6-1.4-2-2.2-.7-2.6-4.2-.4-4.2.8 0 1.5.5 1.5 1.2m547.8 50.7c.6.1 1.2.8 1.2 1.6 0 1.2.4 1.1 1.8-.4 2.7-3 4.5-2.3 5.8 2.2 1.9 6.4 3.2 8.5 9.1 14.2 3 2.9 5.3 5.5 5.1 5.7-1 1-8.9 2.2-9.3 1.4-.3-.4-1.3-.5-2.2-.2-1.1.4-1.4.3-.9-.5.4-.7.3-1.2-.3-1.2-.5 0-1.2.6-1.4 1.2-.4.9-.8.9-1.4.3-.4-.6-1.9-1.1-3.3-1.3-2.7-.4-9-4.2-9-5.5 0-.4.7-.7 1.6-.7.8 0 1.2.4.9 1-.3.5-.2 1 .3 1s1.3-2 1.6-4.5c.6-3.7 1.1-4.5 2.9-4.5 2-.1 2.1-.1.4-1.1-1-.6-3.4-.8-5.3-.5-3.8.8-4.6-.8-1.6-3 1.6-1.3 1.6-1.3-.3-1.4-1.5 0-1.7-.2-.6-.9.9-.6 1-1.1.2-1.5-2-1.3-1.2-2.9 1.2-2.1 1.2.3 2.8.7 3.5.7m-744 6.1c.9 1 .6 1.7-.8 3-2.4 2-2.6 6.5-.4 7.4.9.3 3.4-.4 5.5-1.7 2.2-1.2 4.3-1.9 4.6-1.6 1.3 1.3-7.4 8.4-11.7 9.6-2.5.6-5.8 1.8-7.4 2.6-4 2-11.6 3-11.6 1.5 0-.6-1-1.1-2.1-1.1-2.1 0-2.1-.1-.3-2.7 7.9-12.1 20.8-21.1 24.2-17m1003.3 74.8c1 1.2 1.9 3.3 1.9 4.6 0 2.2-.3 2.3-6.4 2.3-3.6 0-6.7.4-7 .8-.3.5.2 1.8 1 3 1.7 2.4 7.2 3 9.2 1 .6-.6 1.5-.8 1.9-.4 1.2 1.2-3.6 4.6-6.6 4.6-3.5 0-6.5-2.2-8.1-5.9-1.6-3.9-.8-7.1 2.7-10.5 2.3-2.3 3.4-2.7 6.1-2.2 1.9.3 4.2 1.5 5.3 2.7m19.9-1.6c6 3.1 6.8 9.9 1.8 14.6-4.2 3.8-8 3.8-11.9 0-4.6-4.7-3.8-11.5 1.9-14.5 3.5-1.9 4.6-1.9 8.2-.1"/><path d="M457 172.7c-2.2.8-6.9 5.6-7 7.1 0 .7-1.1 1.7-2.5 2.2s-3 2.1-3.6 3.4c-1 2.1-.8 2.9 1.5 5.6 1.4 1.7 2.6 2.7 2.6 2.1 0-.5 1.1-2.1 2.5-3.5s2.5-3.4 2.5-4.6c0-1.3.7-2 2-2 1.1 0 2-.7 2-1.5s.7-1.5 1.5-1.5c2.1 0 4.7-5.4 3.2-6.9-1.2-1.2-2.3-1.3-4.7-.4M453.4 238.4l-2.1 3.1 10.6 5.9c5.8 3.2 13 7.2 15.9 8.9 4.7 2.6 5.3 2.7 5.1 1.1-.2-1.1 0-2.4.4-3.1.8-1.3-2.9-5.3-4.9-5.3-.7 0-5.1-2.9-9.9-6.5-4.7-3.6-8.9-6.5-9.3-6.6-.4 0-1.4-.2-2.2-.4-.9-.1-2.5 1.1-3.6 2.9M401.7 265.6c-.3.3-.3 1.2 0 2s-.2 1.7-1.1 2c-1.9.7-2.1 3.5-.4 5.2.9.9.8 1.2-.6 1.2-2.5 0-1 1.7 3.5 4.1 2.2 1.1 3.7 2.4 3.4 2.9-.4.6-2.3.1-4.6-1-5.2-2.7-7.1-1.6-7.6 4.1-.3 2.3-.8 5-1.3 5.9-.8 1.5 0 1.9 5.3 3.2l6.2 1.5 1.3-2.8c.6-1.6 1.7-2.9 2.4-2.9.6 0 .3-.9-.7-2s-2.7-2-3.9-2c-3.4 0-.4-1.8 3.4-2 6.1-.3 7-.1 7 1.9 0 1.1-.5 2.1-1.1 2.3s-1.7 2.1-2.4 4.2c-1.3 3.6-1.2 4 .8 5.7 1.2 1 1.6 1.8 1 1.9-4.8.1 7.3 6.6 14.4 7.7 5 .8 3.7-.7-3.6-4.2-3.4-1.6-6-3.4-5.7-3.9.2-.6.9-1 1.7-.8 5.5 1.3 7.2 1.4 6.5.4-.4-.6.6-.5 2.1.3s3.5 1.5 4.3 1.4c.9 0 .6-.5-.7-1.1-3.5-1.7-2.7-2.8 1.2-1.7 4.6 1.3 6.2.3 3.4-2.2-2.6-2.3-2.2-3 2-3.1 3.7-.1 3.2-1.4-.9-2.3-1.7-.4-3-1.1-3-1.6s-.6-.9-1.2-.9c-.7 0-2.2-.7-3.2-1.5-1.5-1.1-1.7-1.8-.8-2.7.8-.8 1.7-.7 3.6.6 3.5 2.2 4.6 2 4.6-1 0-2.2-.4-2.5-2.1-2.1-1.4.4-2.9-.4-5.2-2.9-3.6-3.8-9.7-5.8-9.7-3.1 0 .9-.9 2.1-1.9 2.7-2.8 1.4-3.3 1.3-2.2-.9.6-1 .8-2.1.4-2.4-.3-.4-.1-1.3.6-2 1.5-1.9-1.2-4.2-7.8-6.8-5.5-2.1-6.4-2.2-7.4-1.3M391 298c0 .5-.8.9-1.7.8-4.2-.3-6.2.2-5.7 1.6.3.8.1 1.7-.4 2s-.7 1.7-.4 3.2c.4 2.4.2 2.6-1.9 2-1.8-.4-1.6-.2.6.9 1.7.8 4.6 1.7 6.5 2.1 1.9.3 9.8 2.1 17.4 4 15.5 3.8 20.9 4.3 20 1.9-.4-1 0-1.5 1.5-1.5 2.5 0 2.8-1.8.4-2.6-1-.3-2.7-1-3.8-1.5-5.9-2.5-12.5-4.7-16.5-5.4-4.2-.7-8.9-3.2-9-4.7 0-.3.8-.8 1.8-1.1 1.3-.3 1.1-.6-1.1-1.5-3.5-1.5-7.7-1.6-7.7-.2M397 317.5c0 .8-.4 1.5-1 1.5-.5 0-1 .5-1 1.1s-.7 1.7-1.5 2.6c-.9.8-1.4 1.7-1.2 1.9.5.5 14.8 3.1 21.3 3.8 3.6.5 6 .2 8.3-1 6.3-3.1 3-5.5-13.2-9.5-9.4-2.3-11.7-2.4-11.7-.4M437.4 427.5c-5.5 1.7-10.1 4.2-13.6 7.6-1.7 1.6-3.5 2.9-3.9 2.9-.5 0-1.1 1.1-1.5 2.5-.3 1.4-1.2 2.5-1.8 2.5-2 0-3.4 2-2.9 4.1.3 1.2 1.1 1.8 1.9 1.5s1.4-.1 1.4.4c0 1.9 1.8 1 2.3-1.1.4-1.3 1.2-2 2.4-1.7 1.3.2 1.9 1.4 2.1 4.3l.2 4-1.9-2.3c-3.2-3.7-5.4-1.9-4.6 3.6.3 2.6 1.1 5.3 1.8 6 .6.8 1.2 2.1 1.3 3 .2.8 1 1.9 1.9 2.4.8.5 1.3 1.3 1 1.9-.4.5-.1.9.5.9.7 0 1 .6.8 1.2-.5 1.4 1.5 3.8 3.1 3.8.5 0 1.7-1 2.6-2.3.8-1.2 1.8-2.1 2-2 1.5.8 3.7-.2 10-4.2 3.9-2.5 9.3-5.6 12-7 2.8-1.3 5.9-3.3 7-4.5l2-2.2-3.7 1.6c-2.1.9-5.5 2.4-7.5 3.3-2.1.9-4.2 1.7-4.8 1.8-.5 0-.9.6-.8 1.3.2.7-.7 1.1-2 1-1.2-.1-3.3.2-4.6.6-1.7.6-2.2.5-1.9-.5.2-.8 6-4.2 12.9-7.6 7-3.5 12.5-6.8 12.7-7.7s.8-1.6 1.3-1.6c1.3 0 1.1-3.7-.2-4.6-.6-.3-1.4-.2-1.8.3-.3.5-1.4 1.2-2.3 1.6-1.5.5-1.6.2-1.1-2.5.6-2.8.5-3-1.5-1.9-2.5 1.3-6.2 1.5-6.2.2 0-.5 1.9-1.2 4.3-1.6 8.6-1.3 11.8-4.9 4.7-5.3-4.9-.3-8.4 1.3-7.6 3.5.5 1.2.3 1.3-.7.5-.7-.6-2.4-.8-3.6-.5-3.3.9-2.3-1.8 1.4-3.6l2.8-1.4-2.9-1.5c-3.6-2-7.9-2.2-13-.7M444.8 481.1c-1.5 1.1-3.6 2.1-4.7 2.2-1 0-1.7.7-1.4 1.3.2.7-.5 1.5-1.6 1.9-2.4.7-2.9 4.5-.6 4.5.8 0 1.5-.4 1.5-.9s1.1-1.1 2.5-1.3c1.4-.3 2.5-.4 2.5-.2s-1.3 1.7-3 3.4c-3.1 3.1-3.7 5.4-2.1 7.9.8 1.2 1.6 1 4.8-1.2 2.1-1.4 5.8-4.4 8.3-6.6 4.3-3.9 4.4-4.1 2.5-5.5-1.1-.9-1.6-1.6-1.2-1.6s.2-1-.5-2.3c-.7-1.2-1.1-2.5-1-3 .4-1.4-3.4-.6-6 1.4M505.5 494.3c-1.1.6-2.4 1.2-3 1.3-.5.1-3.9.7-7.5 1.3-5.2.9-7 1.7-9.4 4.2-1.8 2-3.2 2.7-3.4 2s1.1-2.6 2.9-4.2c5.1-4.6.8-3.1-5.5 1.9-4.4 3.5-4.5 1.7-.1-2.8 2.4-2.5 3.3-4 2.4-4-.8 0-3.2 1.8-5.3 3.9l-3.9 3.9 2.2 3.5c1.2 1.9 3.3 4.2 4.6 5.1 1.4.9 2.5 2.3 2.5 3.1s1.3 2.1 2.9 2.9c1.6.9 3.2 2.3 3.5 3.3.6 1.3 2.4 0 9.7-7.3 5-5 8.7-9.5 8.4-10.2s0-1 .5-.7c1 .6 1.6.1 5.4-4.2 1.8-2.2 1.8-2.2-.4-1.8-1.3.3-2.8-.2-3.4-1-.9-1.1-1.5-1.2-3.1-.2M517 504.8c0 .7-.4 1.1-.9.8s-1.4.1-2.1.9c-.6.7-1.8 1.1-2.6.8s-2.4.3-3.4 1.2c-2.2 2-2.8.8-.7-1.5.6-.8-.7.2-2.9 2.2-5.8 5-12.4 12.3-12.4 13.7 0 .6 1.6 2.1 3.5 3.2 1.9 1.2 3.5 2.5 3.5 2.9 0 .8 2.9 2.1 5.9 2.6 1.5.3 12.1-9.8 12.1-11.6 0-.6-.7-1.3-1.5-1.6-2.3-.9-1.8-3.5 1.4-6.9 2.7-2.8 2.9-3.2 1.6-5.5-.8-1.4-1.4-1.9-1.5-1.2M528.3 523c-.3 1.1-1.1 2-1.8 2-.6 0-3.7 3.3-6.9 7.2-3.1 4-6.7 8.6-7.9 10.1-1.2 1.6-3.7 4.5-5.4 6.5-1.8 2.1-3.3 4.2-3.3 4.9s-.6 1.6-1.3 2c-1.4.8-9.6 12.2-11.6 16.1-.9 1.8-.9 2.2.1 2 .7-.2 1.4.7 1.6 1.9.2 1.3.9 2.3 1.7 2.3 1.7 0 11.5-15.8 11.5-18.6 0-1.2.7-2.5 1.6-2.8 2.3-.9 2.4-.8 2.4 1.4 0 1.1-.4 2-.9 2s-1.8 1.9-2.9 4.2c-1.1 2.4-3.6 6.8-5.6 9.8-3.2 5.1-3.3 5.6-1.9 7.2 1.9 2.1 4.6 2.3 6 .5.6-.6 1.6-3 2.3-5.2s2.6-5.6 4.1-7.6c1.6-2 2.9-4.3 2.9-5s.6-2 1.4-2.8c5.1-5.9 22.3-36.7 21.2-37.8-.3-.3-.8.2-1.2 1.1-.8 2-2.1 2-4.1 0-1.4-1.3-1.4-1.7-.2-2.5 1.1-.7 1.1-.9.1-.9-.8 0-1.6.9-1.9 2"/><path d="M525.5 547c-4.7 7.1-8.5 13.4-8.5 14 0 .5-1.2 2.4-2.8 4.2-3.3 4-6.5 9.9-8.5 15.5-1.7 5-1.2 5.7 6.9 9.8 8.2 4.2 12.2 3.2 14.4-3.7.8-2.4 2-5.2 2.7-6.4.9-1.3 1.5-7.1 1.8-16.4.3-7.8.9-17 1.5-20.4.5-3.3 1-6.5 1-6.9 0-.5.4-.5 1-.2s.7-.1.4-.9c-.3-.9-.8-1.6-1-1.6-.3 0-4.3 5.8-8.9 13M1027.3 326c-3 1.2-2 3.4 2 4.6 2.5.7 3.5 1.8 4.7 5.1l1.4 4.3h7.7c6.1 0 7.8-.3 8.3-1.6.9-2.3.8-2.4-1.4-2.4-2.1 0-4.5-3.4-3.5-5 .3-.6 1.4-1 2.3-1 2.7-.1-.5-1.6-5-2.4-2.1-.4-3.8-1.1-3.8-1.6 0-1.2-9.7-1.2-12.7 0M672.2 119.9c-.2 3.3.1 3.8 3.1 4.8 1.7.6 5.5 1.1 8.2 1.2 2.8.1 6.1.4 7.5.5 1.4.2 3.4.4 4.5.5 1.7.1 1.8.3.5 1.2-1.2.8-1 .9 1 .7 1.9-.2 2.6-1 2.8-3.1.3-2.1-.1-2.7-1.7-2.7-1 0-2.2-.6-2.5-1.3-.3-.8-.9-.6-1.7.8-1.3 1.9-1.3 1.9-1.9-.5-.6-2.7-4.5-4.2-7.3-2.8-1.2.6-2.3.6-3.1-.1s-2-.6-3.9.4c-1.6.8-2.7 1-2.7.4s-.6-1.6-1.3-2.4c-1.2-1.1-1.4-.7-1.5 2.4M737.2 135.2c-.7.7-1.2 1.7-1.2 2.4 0 .6-.7 2.5-1.5 4-.8 1.6-1.5 3.6-1.5 4.4 0 .9-.5 2.1-1.1 2.7-1.7 1.7-5.9 12.5-5.9 15 0 3.9 5.6 2.2 7.5-2.3 1.3-2.9 1.3-2.9 1.4-.4.1 2 .6 2.5 2.6 2.5 1.5 0 2.7-.7 3.1-1.8.3-.9 1-1.7 1.5-1.7 1.2 0 1.2 1.7-.1 2.5-.5.3-1 1.2-1 2 0 1.8 2.9 4.7 4.1 4 .5-.4.9-.1.9.5 0 1.8 1.9.1 4.5-4.1 2.6-4 3.3-7.5 1.4-6.3-1.2.7-3.1-1.5-2.3-2.8.3-.4 1.4-.8 2.5-.8s1.7.4 1.4 1c-.3.5-.1 1 .4 1 1.4 0 5.8-7 6.7-10.6.6-2.3.4-2.6-1-2.1-.9.4-1.6.3-1.6-.2 0-.4-3-2-6.7-3.5-9.4-3.9-11.3-4.8-11.3-5.8 0-1.2-1.4-1-2.8.4M780.8 150.2c-3.2 3.7-3.9 4-5.3 2.8-1-.8-3-1.3-4.6-1.2-2 .2-2.9-.2-2.9-1.2 0-.9-.8-2-1.9-2.5-2.1-1.2-3.8.3-6.5 5.6-2 4-2 5.3 0 5.3.8 0 1.2.5.9 1.1-.4.5 0 1.8.9 2.8 1.5 1.7 1.4 1.8-1.3 1.8-2.3 0-3.1-.5-3.3-2.1-.3-1.8-.8-1.4-3.1 2.1-3.3 5.2-3.4 6.3-.4 5.6l2.2-.5-2.2 2c-2.8 2.5-2.8 2.8 0 6.6 1.3 1.7 2.6 3.9 3 4.8 1 2.9 3.2 2.1 6.2-2.2 2.7-3.9 4.7-5.2 4.4-2.8-.3 2.7.2 3.8 1.6 3.8.8 0 3.8 1.5 6.7 3.3 6.5 4.1 8.6 4.9 9.4 3.6.3-.6 1.3-.8 2.1-.4 1.3.5 1.4.3.3-1-1.1-1.4-1-1.7.8-2.2 1.2-.3 2.2-1 2.2-1.5s.4-.7.9-.4 2-.4 3.3-1.7c1.4-1.2 4.2-3.1 6.2-4.1 3.7-1.9 6.3-5.2 5.2-6.3-.3-.4.8-1.4 2.4-2.4 3.7-2.3 3.8-3.8.4-7l-2.6-2.4-2.4 3c-1.3 1.6-2.4 3.3-2.4 3.6 0 .9-5.2 3.1-5.8 2.4-.3-.3 0-.5.6-.5.7 0 1.2-.7 1.2-1.4 0-.8 1.4-2.8 3.1-4.4 2.4-2.2 3-3.4 2.4-5.1-.3-1.1-1.1-2.1-1.7-2.1s-2.6-1.1-4.4-2.5c-4.4-3.4-5.7-3.2-8 1.2-1.2 2.4-2.8 3.9-4.2 4.1-3.2.5-2.7-1.3 1.3-5.4 4.1-4 4.4-5.9 1.2-6.2-1.5-.1-3.4 1.2-5.9 4M812 168.9c0 .5-1.8 2.8-4 5.1s-4 4.9-4 5.6-.9 1.8-2 2.4-1.9 1.4-1.8 1.8c.4 1.4-4 7.4-4.6 6.3-1.2-1.9-3.5-1.2-5.2 1.5-1.7 2.5-1.7 2.6 2.2 5.9 2.1 1.9 4.2 3.5 4.5 3.5.4 0 1.2-1.3 1.8-2.8.9-2.1 1.9-2.8 4.2-3 1.7-.1 4.1-1.4 5.5-2.7 2.7-2.7 4.4-3.4 2.4-1-.7.9-1 1.8-.7 2.2.9.9 5.9-4.6 5.2-5.8-.4-.5 0-.9.8-.9 1 0 1.3-.7 1-2s0-2 .8-2 2-1 2.8-2.1c1.1-1.8 1.1-2.3-.1-3-1.4-.9-4.5-.3-6.5 1.3-.7.5-1.4.5-1.7-.1-.4-.5.7-2 2.4-3.2 3.5-2.6 3.7-3.9 1.2-6.2-2-1.8-4.2-2.2-4.2-.8"/><path d="m763.1 184.6-2.1 2.7 2.5 4.4c1.8 3.3 2.5 6.1 2.7 11.4.1 3.8.7 7.4 1.3 7.9.8.7 3.3-1.5 7.8-7l6.7-8.1-4.3-4.2c-2.4-2.3-4.6-4.7-4.8-5.2-.4-.9-6.1-4.5-7.2-4.5-.3 0-1.5 1.2-2.6 2.6M823.5 185c-.3.5-2.1 1.7-4 2.6s-3.5 2.1-3.5 2.7-3 4.2-6.7 7.9-6.4 7.1-6 7.4c.4.4 3.9-2.3 7.7-6.1 7.7-7.3 10.5-8.2 4.6-1.4-1.9 2.3-3.3 4.6-2.9 5.2.3.6.1.7-.5.3-.7-.4-1.2-.1-1.2.9 0 .9-.4 1.4-.9 1.1-1.9-1.2-2.8 4.7-1.1 6.7.6.7 2.9 3.8 5.1 7 2.7 3.8 4.4 5.5 5.3 5 4.8-3 27.6-20.9 27.6-21.8 0-.6-1.3-2.5-2.8-4.2-2.6-2.8-3.2-3-6.8-2.3-2.1.4-4.7 1.1-5.6 1.5-2.6 1-2.2-.9.7-4.1 2.8-3.1 2.8-2.9 1.6-5.2-1.7-3.1-6.2-2.5-10.3 1.3-4.6 4.1-4.8 3.6-.7-1.6 1.7-2.1 2.6-3.9 2-3.9-.5 0-1.3.4-1.6 1M647 199c-3 1.1-5.6 2-5.7 2-.2 0-.3 4.5-.3 10 0 9.1.2 10 1.7 9.2 2-1.2 12.3-19 12.3-21.4 0-2.2-1-2.2-8 .2M781.2 201.2c-5.2 5.5-12.2 14.1-12.2 15 0 .5.8 2.3 1.7 4.1s1.6 3.8 1.5 4.4c-.5 2.6.9 1.2 2.4-2.2.8-1.9 2.1-3.5 3-3.5 2 0 8.7-3.5 10.3-5.4s3.5-2.1 2.5-.4c-.4.7.7 0 2.4-1.6l3.2-3-2.2-2.5c-2.8-3.2-8.1-8-8.9-8.1-.3 0-2 1.5-3.7 3.2M656.2 203.6c-.7.7-4.1 6.3-7.7 12.4l-6.4 11.1 5.7-.7c3.1-.3 6.8-.8 8.2-.9s2.8-.3 3.1-.4c.9-.2.9-15-.1-15.6-.5-.3-.7-1.1-.4-1.8.3-.8.1-2.3-.3-3.4-.7-1.7-1-1.9-2.1-.7M602.7 206c.4 1.4.2 2.1-.4 1.7-.5-.3-2.7 2.9-5 7.2l-4 7.9 6.8.6c3.8.4 7.4.4 8 0 1.4-.8.8-4.1-2.1-11.9-2.3-6.1-4.4-9.6-3.3-5.5M790.9 222.6c-15.5 14.6-16.4 15.6-18.3 19.3-1.9 3.6-1.8 3.6 4.9-.9 4.4-3 9-4.8 8.4-3.3s-8.5 8.3-9.7 8.3c-1 0-2.6 3.7-2.3 5.4.1.4-.4 1.4-1 2.2-.9 1.1-.8 1.4.7 1.4 1.1 0 2.6.5 3.4 1 1.2.7 1.2 1.2.2 2.2-1.2 1.2-1.7 6.8-.7 6.8.3 0 1.7-.7 3-1.6 2.2-1.5 2.5-1.5 2.5-.1 0 .9-.9 1.9-2 2.2s-2.4 1.4-3 2.4c-1.4 2.6 3.2 5.1 6.1 3.3 1.7-1.1 2.3-1 3.8.9 2 2.4 6.8 3.4 8.8 1.7 1.8-1.4 1.7-2-1.1-6.1l-2.4-3.5 5-3.1c2.7-1.7 5.3-3.1 5.8-3.1 2.1 0 1.9-2.2-.4-4.7-1.5-1.5-2.6-3.3-2.6-3.9 0-1.3-5.4-7.4-6.5-7.4-.5 0-1.9.9-3.1 2.1-1.5 1.4-2.9 1.9-4.3 1.4-3.1-1-2.6-2.2 2.2-5.1 2.3-1.5 4.6-3.3 5-4 .4-.8 2.9-2.6 5.5-4.1s6.2-4.1 8.1-5.9l3.4-3.1-3.2-3.6c-1.8-1.9-3.8-4.2-4.5-5.2-1.1-1.5-2.3-.7-11.7 8.1M688 226.8c0 .4.9 3.6 2.1 6.9 1.5 4.7 2.6 6.3 4.2 6.6l2.2.4-2.2.8c-2.9.9-2.9 1.1.3 4 1.4 1.3 2.4 3 2.2 3.7-.3.8-1.3.3-2.8-1.5-2.8-3.2-4.4-3.5-3.5-.7 1 3.2-1.1 2.3-2.6-1.1-1.1-2.7-1.4-2.9-2.4-1.6-.9 1.2-1.3 1.3-2.1.3-1-1.4-11.4-1-11.4.5 0 .5.7.9 1.5.9s1.5.4 1.5 1c0 .5-.8.6-1.7.3-3.3-1.2.2 2 7.5 7 4.4 3 7.8 4.6 9.1 4.4 2.9-.4 17.7-11.1 19.1-13.7.9-1.6.7-2-.5-2-2.1 0-1.9-1.3.5-3.5s1.4-4.4-3.8-9.1c-2.4-2.2-3-3.3-2.1-3.7.8-.3-.3-.6-2.3-.6-2-.1-4 .3-4.3.9-.3.5-.2 1 .3 1 1 0 6.6 7.9 6 8.5-.4.5-4.8-2.9-9.5-7.3-3.4-3.1-5.3-4-5.3-2.4M637 240.5c-.3 6.4-.4 6.6-.7 2-.3-3.7-.7-4.6-1.5-3.5-.8 1.2-.9 1.1-.4-.3.8-2.6-.2-3.9-1.8-2.4-.8.6-1.2 1.5-1 1.9 1 1.7-3.7 4.8-7.2 4.8-3.1 0-3.5.2-2.4 1.5.7.8 1.9 1.5 2.6 1.5.8 0 1.4.6 1.4 1.3s2.3 3.5 5 6.2l5 4.9v-5c0-2.7.5-5.5 1.1-6.1s.8-3.8.6-7.4l-.3-6.4z"/><path d="M816.6 254c-2.2 1.1-4.9 2.9-6 3.9-1.2 1-4.6 3.1-7.6 4.6s-5.6 2.9-5.8 3c-.7.6 4.3 7.5 5.4 7.5.6 0 2.2-.8 3.5-1.8 1.3-1.1 6-3.8 10.4-6.2s8.1-4.4 8.3-4.5c.8-.7-2.2-8.5-3.2-8.5-.6.1-2.9 1-5 2M816 295.2c-8.8 3.5-10 4.2-10 6 0 2.1-1.1 2.3-2.8.6-.9-.9-1.2-.7-1.2 1 0 1.2-.6 2.2-1.4 2.2s-1.6.6-1.9 1.2c-.6 1.9.4 4.9 1.4 4.2.5-.3.9 0 .9.5 0 .6.9 1.1 1.9 1.1 1.1 0 1.8-.6 1.7-1.6-.2-2.5 2-2.8 4.1-.6 1.8 2 1.9 2 8.2 0l6.3-1.9-.5-4c-.3-2.1-1.3-5.2-2.4-6.8-1.6-2.5-2.1-2.7-4.3-1.9M875.5 294.9c-1.1.5-3.7.6-5.8.3-3.1-.4-4.1 0-6 2.1-1.8 2.2-3 2.6-6.9 2.5-2.6 0-7 .9-10 2.1-2.9 1.1-7.9 2.8-11 3.7-6.3 1.7-6.6 2.1-4.7 8.5 1.4 4.5 3.8 5.3 8.9 2.7 3.1-1.6 9.9-3 21.3-4.5 2.5-.3 4.6 0 6.2 1.1 3.3 2.1 5.1 2 6.8-.5 1.1-1.5 2.7-2.1 6.3-2.2l4.9-.2-.3-4c-.2-2.2-.4-5.4-.5-7-.3-4.8-4-6.6-9.2-4.6M641 300c0 1.1-.4 2-1 2-1.1 0-1.2 9.5-.1 12.3.6 1.6 1.4 1.3 7-3 3.5-2.6 7.9-5.7 9.7-6.8 1.9-1.1 3.4-2.3 3.4-2.7s-2.6-1.2-5.7-1.8c-3.2-.6-6.7-1.4-7.8-1.7-1.4-.4-1 .4 1.5 2.7l3.5 3.1-3.4-1.8c-1.8-1-3.5-2.4-3.8-3.1-.8-2-3.3-1.4-3.3.8M614 320.8c0 2.1 2.8 4.8 11.7 11.6 3.4 2.5 6.8 5.2 7.5 5.9 4.9 4.6 4.8 4.8 4.8-7.7V319h-12c-10.9 0-12 .2-12 1.8M976.7 361.4c-3.3 1.5-4.7 3.2-4.7 6.2 0 1.5-.8 2.4-2.7 2.9l-2.8.7 3.4 1.4c4.5 1.9 10.1 1.8 13.1-.3 5.3-3.7 6.3-7 3-10.3-2.3-2.3-5.2-2.4-9.3-.6M851.5 383c-1.6.4-2.3.9-1.5 1s.3.6-1.2 1.2c-4 1.4-3.5 3.6 2.2 9.5 5.7 6 9 8 14 8.5 3.1.3 3.5 0 4-2.7.4-1.7.3-4-.1-5.1-.4-1.2-.3-2.6.3-3.2.5-.5.8-2.2.6-3.8-.2-2.1-.9-3-2.5-3.2-1.2-.2-2.7-1-3.3-1.8-1.3-1.5-7.3-1.7-12.5-.4M692 387.5c0 5.3 2.9 18.5 4.2 18.5.4 0 1.2-.9 1.8-2 1.3-2.3 3.7-2.7 3.7-.5 0 .8-.6 1.5-1.4 1.5-.7 0-1.3.4-1.3 1 0 .5.7 1 1.6 1 .8 0 1.2.4.9 1-.3.5-.1 1 .4 1 .6 0 1.1-.5 1.1-1 0-.6.9-2 2-3.2 2.4-2.6 2.6-4.4.5-5.1-.8-.4-2.3-2.3-3.4-4.4s-3.8-5.8-6-8.3l-4-4.5zM830.2 446.9c-1.1.7-1.1.9.1 1.4 1 .4 1.5 1.7 1.4 3.8-.2 3-.5 3.2-4.2 3.6-7.5.8-6.9 2.2 3.2 7.2 7.3 3.7 9.8 4 9 1.1-.3-1.1 0-1.8.7-1.7.6.1 1.1-1 1.1-2.6-.1-1.5.3-2.7.7-2.7 2.1 0 .5-1.9-2.1-2.5-1.6-.3-3.2-1.3-3.5-2.1-.7-1.8 2-3 3.7-1.7.6.6 2.8 1.3 4.7 1.7 2.8.5 2.2-.1-3.4-2.9-7-3.6-9.1-4.1-11.4-2.6M801.3 465.7c-.3.8-1.6 1.9-2.9 2.4-1.3.4-2.4 1.7-2.4 2.6 0 1-.9 2.4-2 3.1-2.1 1.3-2.8 5.2-.8 5.2.6 0 .8.3.5.6-.4.4.1 1.4 1.1 2.3s2.1 2.3 2.4 3.2c.4.9 2.8 2.7 5.5 3.9 2.6 1.3 4.9 2.4 4.9 2.4.1.1.5 1.2.9 2.5.7 2.1.5 2.3-1.8 1.7-1.8-.4-2.6-.1-3.1 1.2-.4.9-1.3 3-2.2 4.5-1.2 2.2-1.3 3.1-.4 4.2s1.6 1.2 3.1.2c2.1-1.3 2.6-5.7.7-5.7-2.3 0 1-2.3 3.7-2.6 2.6-.3 3.4-.9 10.8-9.5 4.9-5.7 5.2-6.1 6.6-8.7 1.3-2.4 5.1-3 5.1-.9 0 .7-1.1 2.8-2.4 4.6s-3 4.7-3.7 6.4c-.7 1.8-1.8 3.6-2.5 4.2-3 2.6-8.4 10.9-7.9 12.3.4 1.1 0 1.3-1.5.9-4-1-3.9 8.5.2 14.7 2.1 3.2 2.2 3.2 5.4 1.7 3.4-1.5 4.8-4.5 3.8-7.8-.5-1.7-.5-1.7.6-.1 1.6 2.6 2.8 2.2 2.4-.8-.2-2.4 0-2.6 2.9-2s4 1.5 3.8 3.1c-.3 2 13.5 13.5 16.2 13.5.7 0 2-1.2 2.8-2.8.7-1.5 3.1-4.7 5.1-7.1 2.1-2.4 3.8-4.7 3.8-5.1s-.9-1.7-2-3-2-2.7-2-3.2c0-1.1 2.1-1 3.9.1 2.3 1.5 5.9-3.1 7.5-9.2.3-1.5 1-2.6 1.4-2.6 2.2.4 3.2-.3 3.2-2.1 0-2.1-5.1-4.9-19.5-10.4-3.8-1.5-8-3.1-9.3-3.7-1.3-.5-2.8-.7-3.3-.4-.5.4-.9.3-.9-.2 0-1.2-5-3.3-7.7-3.3-1.3 0-2.6-.7-2.9-1.5-.5-1.3-2.1-2.4-11.4-8.2-4.2-2.7-14.8-3.1-15.7-.6M766.7 491.8c-2.1 2.3-2.1 4.1-.1 7 1.1 1.5 1.2 2.2.3 2.2-.7 0-.9.3-.5.7.4.5 1.2.8 1.7.8s.8.3.7.6c-.2.3.3 1.3 1 2.1.8 1.1.9 1.7.2 2-1.1.3 2.6 8 4.1 8.6.5.2 1.8 2.1 2.9 4.2 1 2.1 2.6 4 3.4 4.3 2.1.8 8.7-2.8 13.1-7.3l3.9-4-9.3-9.4c-8.5-8.6-15.4-13.6-18.5-13.6-.7 0-2 .8-2.9 1.8"/><path d="M797 521c-1.6 1.7-3 3.5-3 4 0 1.2-7.2 8-8.6 8-.6 0-1.9-.9-2.9-2s-2.1-1.7-2.5-1.5c-.5.3-1.1-.1-1.3-.7-.4-.8-.6-.7-.6.4-.1.9-.6 1.8-1.2 2-1.9.6-.1 4.3 4 8.7 2.1 2.3 3.6 4.1 3.2 4.1-.3 0-.1.4.5.8 1.9 1.3 4.1 8.6 3.3 11.2-.4 1.4-.7 2-.8 1.3-.1-1.2-3.8-.6-5.8 1-.7.5-1.3.5-1.3.1 0-.5-.9-1.5-2-2.2-1.9-1.1-2.2-.9-3.5 2-.8 1.8-1.4 2.6-1.5 1.8 0-.8-.4-2.1-.9-2.9-.8-1.2-1.2-1.2-2.5-.2-1.3 1.1-1.6 1.1-1.6 0-.1-.8-.8-.1-1.6 1.4-1 1.8-1.2 3.2-.6 4 .5.7.6 2 .3 3.1-.7 1.7-.8 1.7-2.3.2-2.2-2.1-3.1-2-4.8.4-.8 1.1-2.4 2-3.5 2s-3.1 1-4.5 2.3c-3 2.8-6 4.1-6 2.6 0-.6 1.5-2.5 3.4-4.2 4.7-4.3 5.6-5 8.9-6.4 3.2-1.5 3.5-4.4 1.2-10-2.2-5.1-1.9-5.2 2.1-.8 2 2.2 3.3 3.5 3 2.8-.4-.6.3-1.4 1.4-1.8 1.1-.3 2-.9 2-1.3 0-1.4-4.8-6.2-6.1-6.2-.8 0-2-.9-2.7-2.1-.7-1.1-1.8-1.8-2.5-1.6s-2.5-.7-4-1.9c-1.6-1.3-3.7-2.4-4.8-2.4-1 0-1.9-.4-1.9-1 0-.5-.7-.7-1.6-.3-1.1.4-1.4 1.3-.9 3.1.5 2 .3 2.3-1.1 1.8s-1.5-.1-1 2.6c.3 1.8.9 8.7 1.2 15.3.4 6.6 1 12.7 1.5 13.6.4.8.3 4.8-.2 8.9-.5 4-.8 7.5-.6 7.6.1.1 2.4-.8 5-2.1 2.7-1.2 6-2.2 7.5-2.1 2.9.1 5.7 2.7 4.1 3.7-.6.3-1.1 1.6-1.2 2.7-.1 1.2-.8 2.2-1.7 2.2-2.5.1-7.2 4.6-6.8 6.5.5 2.7 2.8 3.1 2.8.5 0-1.4.4-1.9 1.3-1.3.6.4 1.7.8 2.2.8 1.5.1.7 4.8-1 6.1-1.9 1.4-1.9 3.4 0 6.1 1.5 2.1 1.7 2.1 5.3.6 2-.8 4.9-2.3 6.3-3.3s3.7-2.2 5.2-2.5c1.5-.4 2.7-1.2 2.7-1.9 0-1.1 4.5-3.6 6.6-3.6.6 0 1.4-.7 1.8-1.5.3-.8 1.1-1.5 1.8-1.5s2.1-1.4 3-3c.9-1.7 2.3-3 3.1-3s2-.6 2.6-1.4c.9-1.1.5-2.5-1.9-6.4-1.6-2.7-3-5.5-3-6.1 0-2.5 2.3-.4 5 4.4 1.6 2.8 3.1 4.9 3.4 4.7.3-.1 1.1-.2 1.6-.2.6 0 1-.6 1-1.3 0-.9 1-1.2 3.1-.9 2.2.3 3.4 0 4.1-1.2.5-.9 1.8-1.6 2.8-1.6 1.1 0 2-.6 2-1.4s1.4-1.7 3-2.1c3.5-.8 3.8-1.9 1-4.2-1.1-1-2-2.3-2-3s-.4-1.3-1-1.3c-.5 0-1-.6-1-1.4 0-.7-.9-2.4-1.9-3.8-1.1-1.3-2.3-3.8-2.6-5.4l-.7-2.9 2.9 3.1c1.5 1.7 4.1 4.8 5.6 6.8 3.4 4.4 4.7 4.6 4.7.6q0-3 1.5-3c.8 0 1.5.8 1.5 1.7 0 1 .4 2.4.9 3.2 1.4 2.1 7.1-.4 7.1-3.1 0-1.4.5-1.8 1.5-1.4 1.1.4 1.5 0 1.3-1.2s-1.5-1.8-4.7-2.2c-3.5-.4-4.5-.9-4.7-2.5-.2-1.1-.5-3.3-.8-4.8-.4-2.4-.2-2.7 1.5-2.2 2.8.9 4.9-1.2 4.9-4.9 0-2.3-.3-2.7-1-1.6-1.3 2.1-3.9.3-6.5-4.3-2.5-4.6-1.4-5.7 2.5-2.3 1.7 1.4 3.8 2.6 4.5 2.6s1.5.5 1.7 1.2c.3.8.7.9 1.1.2.3-.6-.2-2-1.1-3-1-1-2.4-3.3-3.1-5-1-2.6-2-3.3-5.2-3.8-2.2-.4-3.7-1.1-3.4-1.6s-.3-.8-1.4-.7c-1.6.1-1.7.5-1 3.1.5 1.6.7 3.1.6 3.2-.2.2-2.8-3.4-5.8-7.9-6.5-9.7-9-10.8-13.9-5.7M829.6 522.9c.4 2.2.3 4.8-.1 5.8-1.3 2.9-1.5 5.3-.6 5.3.5 0 2.6 1.6 4.7 3.5 4.1 3.8 5.4 4.3 5.4 2 0-.8.5-1.5 1-1.5.6 0 1-.6 1-1.4s.7-2.2 1.6-3.1c1.6-1.5 1.3-2-3.2-6.6-2.7-2.8-6.1-5.7-7.7-6.5l-2.7-1.5z"/><path d="M769 534.1c0 .5-.9 1.3-2 1.7-1.8.7-1.8.9.8 3.9 1.5 1.7 3.6 4.3 4.7 5.7s2.4 2.5 3 2.6c1.1 0 6.5 6.1 6.5 7.2 0 .5.7.8 1.5.8 2.1 0 1.9-2-.2-2-1.6-.1-1.6-.2.2-1.6 1.4-1.1 1.6-1.8.8-2.1-.7-.3-1.3-1.2-1.3-2.1 0-1.5-4.1-8.2-6.7-10.9-.6-.7-1.3-1.8-1.5-2.4-.5-1.4-5.8-2.1-5.8-.8M639.6 545.5c-.6 3.1-.9 16.7-.6 29 .2 6.3.3 6.7 1.1 3.6.6-1.8 1.2-3.1 1.5-2.9.2.3.9 3.4 1.4 6.9s1.3 8 1.8 9.9c.9 3.4.9 3.4 1.6 1 .3-1.4 1-5 1.5-8 .6-3.9.9-4.6 1-2.3s.6 3.3 1.7 3.3c1 0 1.4-.6 1-1.8-.2-.9-1-5.3-1.7-9.7-3.4-23.6-3.7-24.9-6.2-27-1.4-1.1-2.7-2.7-2.9-3.5-.3-.9-.8-.3-1.2 1.5M633.1 548.6c.9 1.1.8 1.8-.5 3.2-1.9 2.2-2.1 3.8-.3 4.5.6.3.2.6-.9.6-1.2.1-2.5-.7-3-1.7-1.1-2.6-2.2 5.5-2.4 17.8-.1 9.2-.2 10.3-1.5 8.7-1.2-1.7-1.4-1.5-2.1 2.8-.3 2.6-.7 6.6-.8 9.1 0 2.4-.4 4.4-.7 4.4-.4 0-1 .7-1.3 1.6-.7 1.8 1.4 7.4 2.6 7.4.9 0 .9-.3 1-8.2.1-5.7.1-5.7 1.9-3.7 1.7 2 2 2.1 5.6.6 2.1-.8 4.2-1.6 4.7-1.8 1.3-.5 1-39.9-.3-41.2-.7-.7-.7-1.6 0-2.9.5-1 .8-1.8.7-1.9-3.1-.8-3.8-.6-2.7.7"/></svg>