<svg xmlns="http://www.w3.org/2000/svg" width="1706.667" height="960" viewBox="0 0 1280 720"><path d="M0 360v360h597.8l.6-3.1c.3-1.7.6-4.9.6-7 0-2.9.4-3.9 1.6-3.9s1.5-.6 1-2.3c-.9-2.8-1-3.4-.7-7.7.1-2.5.4-3.1 1-2.1 1.1 1.6 2.1-2.7 2.7-10.7.4-7.2 6.5-37.7 10.1-51.2 1.6-5.9 1.7-6.3 3.3-16 2.4-13.4 2.8-15.7 4.5-23.3.9-4.3 1.4-8.9 1.1-10.3-.4-1.3-.3-2.4.2-2.4.4 0 .7-1.5.7-3.3-.1-1.9.7-5.8 1.6-8.8 1-3 1.9-7.3 1.9-9.7 0-2.6.5-4.5 1.3-4.8.7-.2 5.8-.6 11.4-.7 9.8-.2 10-.1 9.1 1.8-1.4 3.1 2.8 61.4 4.6 64.4 1 1.5 2.3 6.3 3.6 13.1.5 2.5 2.1 9.9 3.5 16.5 1.3 6.6 2.5 13 2.5 14.2s.7 2.9 1.6 3.7c.8.9 1.3 1.6.9 1.6-.3 0 .1 1 1 2.3.9 1.4 2 7.9 3 16.8.8 7.9 2 18.6 2.7 23.6l1.2 9.3h62.4l.5-2.3c.3-1.2.9-7.2 1.2-13.2.8-12.8 1.1-14.7 2.5-12.5 1.3 2.1.1 22.1-1.5 24-.7.8-1 2.1-.8 2.7.4 1 55.5 1.3 270.9 1.3H1280v-75.5c0-74.8 0-75.5-2-75.5-1.1 0-2-.4-2-1 0-.5-2-1.5-4.5-2.1-4.9-1.2-7.7-4.2-4.9-5.3.9-.3 2-.4 2.5 0 .5.3 1.9.7 3.1.9 1.3.3 3.5.7 5.1 1.1l2.7.6V0H687l.6 8.2c.4 4.6 1.5 10.2 2.6 12.6 1 2.4 1.8 5 1.8 5.8s.9 1.4 2 1.4c1.9 0 2 .4 1.5 5.2-1.1 10.1-5 21-9.5 26.8-6 7.9-11.5 28.1-9.6 35.6.6 2.1.9 2.4 2.2 1.3 1.2-1 1.9-.8 3.7 1 1.3 1.1 3.4 2.1 4.6 2.1 1.3 0 3.6.8 5.3 1.7 2.8 1.7 3 1.7 4.4-.1.8-1.1 1.4-2.5 1.4-3.2 0-.6.6-1.4 1.3-1.7.9-.3 1.2.5.9 3-.3 2.3 0 3.8.9 4.4 2 1.2 2.9 1.1 2.9-.4 0-.7.7-2.2 1.6-3.3.8-1 1.3-1.4 1-.8-.3.7-.3 2.6 0 4.3.6 2.8 1 3.1 4.5 3.1 3.8 0 4.4.6 4 3.7-.1.7.4 1.3 1.2 1.3.7 0 1.9-.6 2.6-1.3 1.3-1.2 1.3.8-.4 10.3-.5 3-.4 3.3.7 1.8.9-1.1 2.3-1.4 4.2-1.1l2.9.6-.5-6.4c-.3-5.1-.2-5.8.6-3.7.6 1.7 1.6 2.7 2.5 2.5 2.3-.3 1.6 4.2-1 6.4-2.1 1.8-2.1 2-.5 6 .9 2.3 1.5 4.4 1.2 4.6-.2.2-1.9-.3-3.7-1.2-3.1-1.7-9.9-3.1-18.9-4.1-2.5-.3-5.2-.8-6-1.1-1.3-.6-10.4-2.6-15.5-3.5-2.7-.4-3 2.3-.5 5.5 1.4 1.8 3.1 2.7 5 2.7 1.5 0 3.2.6 3.8 1.3s3.4 2.4 6.2 3.7c2.7 1.3 5 2.7 5 3.1 0 .8 6.6 4.1 13 6.5 1.9.8 6.7 1.4 10.5 1.4 5.1 0 8.2.6 11 2 2.4 1.2 5.9 2 9.1 2 5.5 0 8.4 1.7 8.4 4.8.1 1.5.2 1.5 1 .2.5-.9 1-2.2 1.2-3s1.1-2.1 2.1-2.8c.9-.7 1.7-2.2 1.7-3.2s1-3.5 2.1-5.5c1.9-3.2 2-3.9.9-6.1-.8-1.3-2.2-2.4-3.2-2.4-1.1 0-3.4-1.1-5.2-2.5s-4.4-2.5-5.8-2.5-3.1-.7-3.8-1.5c-1.4-1.7-4-2-4-.5 0 1.6-1.4 1.2-3.7-1-2.3-2.1-2.1-6 .2-6 .7 0 1.6-.6 1.8-1.3q.6-1.5.6 0c.1.7.6 1.3 1.2 1.3.7 0 2.2 1.1 3.4 2.4 1.7 1.8 3.8 2.6 8.1 3.1 3.3.4 8.1 1.9 10.8 3.3 4.7 2.6 4.8 2.6 6.2.7 3.6-4.9 2.6-8.9-2.1-8.3-2.8.4-5.5-2.6-5.5-6.1 0-3.9 3-4.4 9.1-1.5 2.6 1.3 5.5 2 6.8 1.7 1.4-.4 2.1-.1 2.1 1 0 .8.9 1.7 2 2 2.3.6 4.7-2.2 10-11.8 3.6-6.5 5.8-9.5 7.2-9.5 1.3 0-1.8 6.7-5 10.8-6.6 8.6-9 15.2-5.6 15.2.9 0 2.5 1 3.5 2.2 1.1 1.1 1.9 1.7 1.9 1.2s.5-.2 1 .6c1.3 2 1.3 7.3 0 6.5-.6-.3-1-.1-1 .5 0 2-11.7 11.8-14.2 12-.5 0-.8-1-.8-2.3 0-2-.4-2.2-4-1.9-3.2.3-4 .1-4-1.2 0-1.8-1.3-2-4-.6-1.1.6-2.2 2.6-2.5 4.8-.4 2-1.5 5.3-2.6 7.3-2.4 4.6-2.4 6.1.1 8.4 1.1 1 2 2.3 2 3 0 .6 1.2 2.2 2.6 3.6l2.6 2.4-2.4.6c-1.6.5-.8.7 2.6.8 3.7.1 4.7.4 4.3 1.5-.3.8.2 2.1 1.2 3 1.7 1.6 1.6 1.8-1.3 5-2.7 2.9-3.3 3.2-4.7 2-2.4-2.1-4.3-1.7-8 1.9-1.9 1.9-4.9 4.4-6.8 5.7-2.7 1.9-3.5 2-4.2.9-.6-1-.9-.5-.9 1.6 0 1.7-.6 3.7-1.2 4.4-1.1 1.1-1 1.3.5.8 1-.4 1.6-.3 1.2.2-.3.5.1 1.1.7 1.4.7.2-1.3 1.2-4.5 2.2-3.2.9-6.1 1.4-6.4 1.1-.4-.3-1.7.1-3 .9-2.6 1.7-3.2.2-.8-2.1 1.8-1.8 2-3.4.4-3.4-.6 0-3-2-5.4-4.4-4-4.1-4.6-4.4-8.6-4.1-2.4.2-5 .4-5.7.4-.7.1-1.1 1-1 2.3.4 2.9 1.7 5 2.7 4.4 1-.7 2.4.5 4.4 3.6 1.1 1.8 2.6 2.8 4.2 2.8 2.5 0 3.3 1.4 1.6 2.4-.5.3-.7 1.5-.4 2.6.3 1.2 0 2-.6 2-1.9 0-5.9-4.9-6.6-8.1-.4-1.6-1.1-2.7-1.6-2.3-.5.3-.9.1-.9-.4 0-1.3-4.7-.3-6 1.3-.7.9.7 4.4 5 12.9 3.3 6.4 5.6 11.6 5.2 11.6s-.1.4.5.8c1 .6.8 1.7-.7 4.5-1.1 2-2 4.4-2 5.2s-.5 1.5-1.1 1.5-.9.9-.6 2c.6 2.3-4.8 7.1-15.3 13.7-3 1.9-6.2 4.3-7 5.3-.8.9-3.1 2.2-5 2.9-3 .9-3.2.9-1.7-.3.9-.7 1.7-1.6 1.7-2 0-1.3-4.2-4.5-9.4-7.2-2.7-1.5-7.2-4.1-9.9-6s-5.3-3.4-5.8-3.4-1 3.3-1.1 7.2c-.2 7.2-.2 7.3-.5 1.3-.5-9.8-.9-10.6-4-9.4-1.4.5-4.4 2.4-6.7 4.1-2.9 2.2-2.5 1.6 1.4-1.9l5.5-5-3.3-1.7c-1.8-.9-4.2-2.6-5.2-3.6-2.5-2.5-10-6.3-10.8-5.5-.4.4-.8 1.9-.8 3.3-.1 1.5-.5 7.9-.9 14.2-.7 11.3-.6 11.4 1.2 9.7 3.2-2.8 3.6-1.9.7 1.8-1.5 2-2.5 3.7-2.3 3.9s1.8 1.1 3.4 2l3 1.7-3.3-.7c-3.3-.6-3.3-.5-2 1.8 2 3.5 5.4 7.7 11.5 14 4.3 4.4 5.1 5.8 3.7 5.8-1.1.1-4.8 2.7-8.4 6-6.3 5.8-6.4 5.9-4 6.8 2.7 1.1 16.1 4.2 18 4.2.7 0 .9-.9.6-2.3l-.6-2.2 1.2 2.3c1 2.1 1.6 2.2 7.7 1.8 4.4-.3 6.1-.2 4.9.5-.9.5-2.7.8-4 .7-2.8-.2-10.9 3.5-13.3 6.2-1 1.1-2.3 2-3 2s-2 1-3.1 2.1c-1 1.2-3.8 3.5-6.2 5.1-2.3 1.6-4.2 3.3-4.2 3.7 0 .5 4.1.9 9.2 1 13.1.3 12.3 1.1-1 1.1H640v2.6c0 1.4-.4 2.3-1 1.9-.5-.3-1-1.7-1-3 0-2.4-2.3-4.6-16-15.4-3.5-2.9-6.9-5-7.5-4.8-.5.2-1.8-.5-2.7-1.5-1.7-1.7-1.7-1.8.2-1.8 1.1 0 2-.5 2-1.1 0-.5.5-.7 1.2-.3.7.5 3.1.7 5.3.6l4-.1-4.4 1.2-4.4 1.2 4.2 2.9c2.3 1.6 4.5 3.4 4.9 4s3.3 3.1 6.6 5.5c7.2 5.4 7.8 4.8 7.3-6.6-.4-8.7-.9-10.3-3.1-8.8-.8.6-2.9 2-4.7 3.3l-3.4 2.4 3.3-2.9c4-3.6 4.1-4.5.2-3.2-1.6.6-3.7.9-4.7.6-1.3-.3-1-.6 1.2-1.1 1.7-.4 4.5-1.3 6.4-2l3.4-1.3-4.9-3.3c-2.7-1.8-6.1-4.4-7.7-5.8-2.6-2.5-2.9-2.5-6.5-1.3-2 .8-4 1.8-4.4 2.4s-1.2.4-2.3-.6c-.9-.9-3.5-2.1-5.8-2.8-2.3-.6-8.2-2.4-13-4.1-4.9-1.7-9-2.8-9.3-2.5-.5.4-7.4-6.1-7.4-7 0-.3 1.1.2 2.5 1.1 1.3.9 3.1 1.6 3.9 1.6s1.9.6 2.3 1.4c1 1.9 8.2 4.9 17.4 7.4 12.4 3.4 17.9 2.5 23.7-3.7 6.2-6.6 10-11.6 10.7-14 .7-2.2.5-2.3-1.9-1.7-3.5.9-3.3-.7.2-2l2.7-1.1-9.3-9.2c-9.7-9.5-13.9-12.2-15.4-9.9-.4.7-.8 4-.8 7.2 0 7.3-.7 7.1-1.1-.4-.3-6.8-.7-7.5-2.7-5.7-1 .9-4.3 2.7-7.4 4.2-3.2 1.5-5.6 3.1-5.3 3.5s-.9 1.3-2.5 1.9c-1.8.6-3 .6-3 0 0-.5.5-.9 1.1-.9.5 0 .7-.5.4-1-.3-.6 0-1 .8-1s2.4-.9 3.7-2 2.8-2 3.4-2c.6-.1 2.6-1.4 4.4-2.9l3.4-2.9-2.4-.8c-2.6-.8-5-1.2-9-1.3-1.6-.1-2.8-.6-2.8-1.1 0-.6 3.3-1 7.8-1l7.7-.1-2.4-2c-1.3-1.1-2.1-2.2-1.8-2.5s.2-1.7-.3-3c-.7-1.8-.6-2.2.5-1.7.9.3 1.5-.1 1.5-1.1 0-1.3-.4-1.4-2.5-.4-1.4.6-2.5 1.4-2.5 1.8s-1.4 1.4-3.2 2.1-4 2.1-5 3.1-2.4 1.8-3.1 1.8-.4.7.7 1.5c1.9 1.5 1.9 1.5-.2 1.5-1.2 0-3.2 1-4.4 2.2-1.4 1.4-2.3 1.8-2.6 1-.2-.7-1-1.2-1.8-1.2-1.1 0-1.1-.5-.2-2.5 1.2-2.8 2.7-3.2 4.7-1.3 1 1.1 1.2 1 .9-.1-.3-1.2 2.4-3.4 8-6.2 1.2-.7 2.2-1.8 2.2-2.6 0-.7.6-1.3 1.3-1.3 1.5 0 5.3-3.7 4.6-4.5-1-1-15.1-1-15.9 0-.4.5-1.3 2.6-1.8 4.5-.8 2.8-1.1 3-1.2 1.2-.2-1.2-.3-2.6-.4-3.1-.2-2-1.4-2-3.1-.1-2.2 2.4-3.2 2.5-3.2.5 0-.8.4-1.5.9-1.5.4 0 .8-.8.8-1.9 0-1 1.2-3.1 2.8-4.8 4.6-5 7.2-8.3 7.2-9.2 0-.4.7-2.2 1.6-4 .9-1.7 1.3-3.9 1-4.7s-.2-1.2.4-.9 1-.1 1-1.1c0-1.1-.6-1.5-2-1.1-1.8.5-1.8.3.3-2.7 1.2-1.7 2.5-3.3 2.8-3.6 2.3-2 1-7.6-2.9-11.8-1-1.2-1.4-.9-2.2 1.5-.7 1.9-1.7 2.9-3 2.9-1.1 0-2-.4-2-.8s.4-.8 1-.8c.5 0 1.5-2 2.1-4.4.8-3.2 1.5-4.3 2.7-4.1 1 .2 2.2.4 2.9.4.6.1 1.6 2.3 2.3 5.1 1.3 5.2 3.3 7.9 4.5 6 .4-.6 1.8-1.5 3.1-2 3.5-1.3 3.4-6.6-.1-8.2-2.4-1.1-3.5-3.8-1.5-3.8.6 0 1-1.1 1-2.4 0-2.9.9-5.6 2-5.6.4 0 1.3 2.8 2 6.2.7 3.5 1.9 7.5 2.6 8.9 1.1 2.3 1.1 2.9-.1 3.9-.8.7-1.5 1.6-1.5 2 0 1 2.6.7 3.6-.3 1.3-1.2 2.4-.7 1.8.8-.4.9 0 1.5 1 1.5 2 0 2.2-5.3.2-6.9-.8-.7-1.2-2.6-1-4.8.1-2.1-.6-6.5-1.6-9.8-2.2-7.2-3.2-14.5-1.9-14.5.5 0 .9 1.1.9 2.4 0 1.4.5 2.8 1 3.1.6.3 1 2.1 1 3.8.1 1.8 1.1 5 2.4 7.2 1.9 3.4 2.8 4 5.9 4.3 3.7.3 3.7.3 3-3-.3-1.8-1.3-3.8-2.2-4.5-1.4-1-1.8-.6-2.7 2.5-.9 3.4-1.1 3.6-2.1 1.6-.7-1.2-.8-2.5-.2-3.5.5-.7.9-3.9 1-6.9 0-3 .5-6.6.9-8 .8-2.1.9-1.9.8 1.5-.1 2.2.2 5.5.7 7.4.7 3.3.8 3.4 2.1 1.6.8-1 1.4-3.3 1.4-4.9v-3.1l1.3 2.4c2.5 5 4.7 2.9 4.7-4.8 0-1.9.3-3.1.7-2.7.4.3.7 4.6.7 9.4l.1 8.7 2.6-.2c1.9-.1 2.8.5 3.6 2.5.9 2.3 1.1 1.6 1.2-4.6.1-6.5 1-8.8 2.5-6.3 1.6 2.5 8.6.1 8.6-3 0-.9.4-.8 1.5.1.8.7 1.5 2.2 1.5 3.4 0 1.3.3 1.6.8 1 .4-.7 1.8-1.4 3.2-1.5 2.2-.4 2.6-1 3-4.9.4-4 .6-4.3 1.7-2.5 1.1 1.9 1.3 1.8 2.7-1.7.9-2.1 1.6-4.5 1.7-5.5 0-1.3.3-1.1 1 .7 1 2.4.8 4.9-.5 8.1-.5 1.2 0 1.6 2.2 1.6 2.9 0 2.9-.1 3.5-7.1.3-3.9 1.1-8.3 1.8-9.8.9-2.2 1-3.6.1-6.5-1.3-4.2-2.4-14.3-2.2-21.3 0-2.5-.6-6.1-1.4-8s-1.5-2.9-1.6-2.2c0 2.6-3-1.5-3-4.2 0-3.1 2.8-6.6 5.2-6.6 1.2 0 2-1.2 2.7-3.8 1.6-6.4 2-11.1 1-11.7-1.2-.8-1.1-4.9.2-6.2.6-.6 1.4-2.6 1.9-4.4.5-1.9 1.5-5.7 2.3-8.6 1.1-4.1 1.1-5.3.1-5.7-.7-.3-1.5.6-1.9 2.2-.6 2.3-.8 2.5-1.6.9-.6-.9-.8-2.1-.5-2.6.6-.9-3.4-2-8.4-2.4-2.4-.2-2.5 0-2.8 6.7-.2 4.3-.8 7.4-1.7 8.3-1.3 1.3-1.5 1.2-1.5-.4 0-1 .4-4.4 1-7.6 1-6.3.5-8.8-1.5-8.1-.8.4-1.5-.4-1.9-1.8-.3-1.3-.3 1.3-.2 5.7.4 7.5-.6 11.5-2.7 11.5-1.5 0-4.7 3.6-4.7 5.3s-.6 1.8-6.2 1.2c-3.5-.4-6.4-1.1-6.6-1.6s-1-.9-1.8-.9c-1.5 0-2.6-3.2-2.3-6.5.5-4.6-.1-9.6-1.1-9-.6.4-1.7-.9-2.5-2.7s-1.4-2.7-1.5-1.9c0 .8-.8.4-1.9-1-1.7-2.2-2.2-2.3-5-1.2-2.6.9-3.2.9-4-.4-.6-1.2-1.7-1.4-5-.8-3.2.5-4.2 1.2-4.7 3.1-.7 2.8-2.2 3.1-4 .6-2.2-3-3.7.1-4.2 9-.3 4.6-.9 8.6-1.5 8.9-1.4 1 .1 2.9 1.8 2.2 1.6-.5 2.1 1.2.7 2.1-1 .6 1.1 9.8 4.8 21.5 1.7 5.4 2.1 7.6 1.2 7.9s-1.2 4.5-1.2 14.7c0 8.5-.4 14.6-1 15-.5.3-1 0-1-.7 0-.9-.3-.9-1 .2-.5.8-1 3.7-1 6.3 0 2.7-.4 4.6-.9 4.3s-2.2.1-3.7.9-2.9 1.3-3.1 1.1c-.7-.7 3.3-11.2 4.9-12.8 1.3-1.3 1.8-3.3 1.8-6.8 0-2.8-.2-5-.5-5s-2.2.9-4.2 2c-2.1 1.1-4.8 2-6 2s-2.5.5-2.8 1c-1.3 2.1-4.5-.9-4.4-4.3.1-3 .1-3.1.9-.7.6 1.9.8 1.2.9-3.2.1-6.1.8-8.8 2.2-8.8.5 0 .9.8.9 1.7.1 1.7.1 1.7 1.1 0 .5-.9.7-2.1.4-2.7-.3-.5-1-4.9-1.6-9.7-.5-4.8-1.2-9.9-1.6-11.3-.4-1.8-.3-2.2.6-1.4.6.5 1.6 4.8 2.1 9.5.6 4.6 1.5 9.9 2.1 11.7s.8 3.6.5 3.9c-.8.9 2.4 4.3 4.1 4.3.7 0 1.3-.7 1.3-1.5s.6-1.5 1.4-1.5 2.1-.7 2.9-1.5c1.7-1.6 1.5-4.3-.9-18.5-2.1-12-4.3-17.8-6.8-18.2-1.4-.2-3-2.1-4.6-5.3-2.2-4.4-2.5-6.2-2.4-15.5.1-9.2 1.8-21.4 3.6-26 .4-.8.9-3.6 1.3-6.3l.6-4.7H0zM570.2 81.7c4 3.6.6 13-4.9 13.4-1 .1-2.5.3-3.3.4s-2 .3-2.6.4c-.7 0-1.4 1.1-1.8 2.4-.4 1.6-1.3 2.3-2.8 2.4-3.3 0-8.8 1.4-8.8 2.2 0 .4-1 1.7-2.1 3-2.4 2.6-2.2 6.8.5 12.3.9 1.7 1.6 3.8 1.6 4.5 0 2.1-2.3 1.1-3.6-1.5-.6-1.2-1.8-3-2.7-4-1.4-1.5-2.3-4.1-2.6-7.5-.2-1.3-6.8-.8-8 .7-.6.7-2.9 1.6-5.1 2-4.3.7-4.5 1.1-3 5 .9 2.6.9 2.6-4.3 2.6-7.2.1-10.8 3-7.2 6 .8.7 1.3 1.5 1.1 1.9-.3.4 1.1 2.7 3.1 5.1 4 5.1 6.7 10 5.6 10-.5 0-2.1-.7-3.7-1.5-1.5-.8-3.2-1.2-3.7-.9s-.9-.2-.9-1c0-1.8-2.7-2.1-6.4-.6-3.2 1.2-3.4 4.2-.6 8.8 2.2 3.6 2.5 5.2 1 5.2-.5 0-1.9-2-3.1-4.5s-2.4-4.7-2.8-4.9c-1.1-.7-4.2 2.1-4 3.6.5 2.1-2 5.8-4 5.8-1 0-2.1.3-2.5.7-.3.4-1.6.8-2.8 1s-2.9 1-3.8 1.8-2 1.5-2.4 1.5c-1.1 0-8.1 5-7.8 5.5.7 1.5-.3 2-4.4 2-4.1.1-5 .5-7.9 3.9-3.5 4.2-6.3 4.5-7.6.8-.8-2-.4-2.5 2.8-3.8 4.4-1.9 9.3-6.3 9.3-8.4 0-.8 1.4-2.1 3.1-2.9 1.8-.8 3.4-2.2 3.6-3.2.3-1 .9-1.7 1.3-1.4s1-.5 1.3-1.6c.3-1.2 1-1.8 1.6-1.4.6.3 1.1-.1 1.1-1 0-.8-.6-1.8-1.4-2.1-1.5-.6-3.9 1.1-9.1 6.3-1.7 1.7-5.8 4.2-9 5.6-3.3 1.4-6.2 3.2-6.5 4.2-.3.9-.9 1.6-1.4 1.5-1.1-.3-6.6 5.1-6.6 6.5 0 1.6-4 5.1-6.7 6-1.3.3-2.3 1.3-2.3 2.1s-.4 1.4-1 1.4c-.5 0-1 .7-1 1.5 0 1.5-3.4 3.8-4.2 2.9-.3-.3-.8.2-1.2 1.1-.4 1 .5 2.2 2.7 3.5 1.7 1.1 3.6 2 4.1 2s1.8.8 2.8 1.7 2.7 1.7 3.8 1.8c2 .1 7 4.2 7 5.6 0 .9-3.2 0-4-1.1s-6-2.1-6-1.2c0 .4 1.4 2.4 3.1 4.5s3 4 2.8 4.2c-.3.2-2.9-1.2-5.8-3-5.7-3.6-7.2-3.7-6.4-.5.3 1.1.3 2 0 2-2 0-5.6-2.7-8.2-6.1-1.6-2.2-4.1-4.7-5.5-5.6-3.9-2.5-8-6.5-8-8 0-1 .5-1.1 1.9-.3 1.1.5 2.9 1 4.1 1 1.8 0 2.1-.4 1.6-2.4-.4-1.6 0-2.9 1.3-4 1.1-1 1.7-2.5 1.4-3.6-.3-1-4.3-5.5-8.9-10s-8.4-8.4-8.4-8.6c0-1.6 3.3.7 10.6 7.6 9.6 9 9 9 17.1 1.5l4.4-4.1-3.6-3.2c-4.7-4.3-4.5-5.6.5-4.8 3.1.5 4 .3 4-.8 0-2 3-2.9 3.6-1.1.4 1.1 2.2 1.5 5.9 1.5 4.5 0 5.5-.3 6-2 .9-2.9.4-10.2-.9-12-.8-1.2-.6-1.1.9.1 4.3 3.6 6.9 3.4 10.8-.9.7-.7 2.2-2.3 3.5-3.4 2.5-2.5 2.7-3.4 1-5.1-1.4-1.4-4.7-1.6-6.5-.4-2 1.2-2.4-.9-.7-4.2 1.9-3.9 5.6-4.2 7.2-.7 1 2.3 5.9 6.4 6.5 5.5 2.2-3.1 3.7-6.2 3.7-7.6 0-1.5.2-1.6 1-.3s1 1.2 1-.3c0-.9-.4-1.7-.9-1.7-1 0-2.1-3.6-1.4-4.4.3-.3 1.9.9 3.6 2.7 2.6 2.7 3.2 2.9 3.5 1.5.2-1-.5-3-1.6-4.5-1-1.6-2.1-3.8-2.4-5-.5-2-.3-2.1 1.2-1.3 1.7.9 3.4 2.8 3.5 4 .8 5.9 4.4 7.1 8.7 3.1 1.8-1.7 4.1-3.1 5-3.1s1.8-.3 2-.8c.3-.6 7.2-3.8 14.3-6.6 1.7-.6 3.9-1.9 4.9-2.9 1.1-.9 2.5-1.7 3.1-1.7.7 0 2.3-1 3.7-2.3 1.3-1.2 4-2.3 5.9-2.5 1.9-.1 5.2-1.2 7.4-2.4 2.2-1.1 5.4-2.4 7-2.9 6.7-1.7 13.8-4.8 16.8-7.2 3.7-3.1 6.3-3.4 8.9-1m19.6 52.5c.2 1.9-.2 2.8-1.6 3.2-1.9.6-4.2 4.5-4.2 7.1q0 1.5-3 1.5c-2.5 0-3.5.8-6 4.7-2.6 4-3.6 4.9-6.8 5.3-3.1.4-3.7.9-4 3.2-.2 1.7-.9 2.8-1.9 2.8-.8 0-2.8.8-4.3 1.7-2.8 1.6-3.1 1.6-11.2-2-8.9-4-10.8-4.4-10.8-2.4 0 .7-1 1.8-2.1 2.5-1.9 1.2-2.4 1.1-4.9-1.3l-2.8-2.6-.6 3.4c-.5 2.8-1 3.4-2.6 3-1.9-.5-11 5-11 6.7 0 .6-.7 1-1.5 1-3 0-6.4 2.4-7.4 5.1-.5 1.5-1.9 3.7-3 4.8-2.2 2.2-2.7 4.1-1.1 4.1.6 0 1 .5 1 1.1s-.7.8-1.6.5c-.8-.3-1.3-.2-.9.3 1 1.7-.6 4.2-2 3.1-.6-.5-1.5-.7-1.8-.3-.4.3-.7.2-.7-.3 0-.6.5-1.5 1.1-2.1.7-.7.1-2.1-2.3-4.8l-3.3-3.8 4.2.6 4.2.7-.4-3.3c-.2-1.8.1-5.1.8-7.4l1.3-4.2 3.2 1.9 3.3 2 2.9-3c1.7-1.7 3-3.4 3-3.9s1.8-1.1 4.1-1.4c4.2-.6 8.3-3.9 10-8.3.8-2.1 1.5-2.4 6.7-2.4 6 0 10.2-1.9 10.2-4.6 0-2 1.3-1.8 4.4.7 2.6 2.1 2.6 2.1 6.4.1 2.6-1.3 3.6-2.5 3.4-3.8-.2-1.4-.1-1.6.6-.5 1.2 1.7 10 2.1 11.4.4.6-.7 2.1-1.3 3.3-1.3 1.6 0 3.5-1.6 6.1-4.9 3.5-4.7 6-6.1 10.4-5.7.8.1 1.6 1.3 1.8 2.8m215.2-.7c0 .9.9 1.5 2.4 1.5 2.9 0 5.5 2.3 6.8 6.1.6 1.8 1.9 3 3.7 3.4 1.4.3 3.9 1.9 5.5 3.5 1.5 1.7 3.3 3 4 3s1.9 1.1 2.6 2.5c1.5 2.9 2.8 3.1 5.6 1 3.1-2.4 4-1.8 3.6 2.5-.6 6 .1 7.1 3.7 5.9 2.5-.9 13.1-10.1 13.1-11.4 0-1 6.9-7.3 7.4-6.8.3.4.6.1.6-.5 0-.7.5-1.2 1-1.2 2.3 0 .5 2.3-8.5 11.2-8.5 8.4-9.5 9.8-9.3 12.6.1 1.8.8 3.2 1.4 3.2.7 0 1.9.7 2.8 1.5 1.3 1.4 1.6 1.3 2.4-.2.9-1.5 1.1-1.5 2.6 0 .9.9 1.9 3 2.2 4.7.4 1.7 1.1 3.3 1.5 3.6.5.3.9 1.6.9 2.8 0 3 2.5 5.2 4.3 3.8.9-.7 2.3-.5 5.1.7 2.3 1.1 3.4 2.1 2.7 2.5-.6.4-.9 1.2-.6 1.7.4.5-.1.9-.9.9-.9 0-1.6.8-1.6 1.7 0 1.2.3 1.4.8.6s1.3-.9 2.2-.3c.8.6 1.1 1 .6 1s-.3.7.4 1.5 1.6 1.2 2.1 1c.6-.4.7 2.4 0 5.6 0 .3-1.8 1.5-4 2.7-4.4 2.5-10.7 2.1-9.7-.5.7-1.7-1-5.3-2.5-5.3s-20.5 12.8-24.5 16.5c-2 1.9-4.1 3.5-4.6 3.5s.2 1.1 1.6 2.4c1.5 1.3 2.6 2.6 2.6 3 0 .9-6.4 3.6-8.5 3.6-.8 0-1.5-.7-1.5-1.5 0-.9-1.1-2.1-2.5-2.7-1.9-.9-2.2-1.4-1.3-2.5 1.1-1.4.4-2.8-1.5-2.8-.7-.1-1.5.3-1.8.8-.4.5-1 .4-1.3-.2-.4-.6-.2-1.1.3-1.1 2.3 0 .9-3.9-2.1-6.4-1.8-1.5-3.9-3.1-4.6-3.7-.6-.5-1.8-.6-2.6-.2-2.6 1.5-23.6 22.3-23.6 23.4 0 1.6-2.5.5-2.7-1.2-.8-5.9-1.5-8.9-2.3-8.9-.5 0-2.2 1.3-3.7 2.9-3 3.1-8.3 5-8.3 3 0-1.2 6.9-7.9 8.2-7.9 1.4 0 4-9.3 4-14.2-.2-8.5-.6-10.2-2.5-10.6-2.3-.5-10.2 7.2-9.1 8.9.5.9.2 1-1.1.5-1.9-.7-7.8 4.7-18.5 17.3-6.7 7.7-7.8 9.7-8.6 15.2-.3 2.4-1 7.3-1.5 10.9s-1.1 7.8-1.3 9.5c-1 6.9-.9 17.6.2 18.7.7.7 1.2 3.6 1.2 6.5 0 4.7.4 5.6 3.1 8 4.2 3.8 6.5 7.2 7.3 11 .5 2.3.3 3.2-.7 3.5-1.2.2-1.1 1.2.6 5.6 2.1 5.7 5.3 8.4 6.8 6.1.6-1 .9-.6.9 1.3 0 2.1-.4 2.6-1.6 2.1-1.4-.5-1.5 0-.9 3.8.4 2.4 1.3 5.5 2 6.9 1.7 3.4 3.5 9.3 3.5 11.4 0 .9 1.1 3.2 2.5 5s2.5 4.3 2.5 5.5c0 1.3 1.5 3.7 3.5 5.5 1.9 1.9 3.5 3.8 3.5 4.4s.9 1.6 2 2.2 2 1.9 2 2.9c0 1.1.7 2.1 1.5 2.5.8.3 1.5 1 1.5 1.7 0 .6 1.6 2.6 3.5 4.5 1.9 1.8 3.5 3.7 3.5 4.1 0 .3-1-.3-2.3-1.5s-2.7-2.2-3.2-2.2c-.4 0-1.4-.8-2.1-1.8-.8-1-1.3-1.2-1.4-.5 0 .7 1.4 2.2 3 3.5 1.7 1.2 3 3 3 4s.5 1.8 1.1 1.8 3.6 2.7 6.6 6c3.1 3.3 6.3 6 7 6 .8 0 1.1-.5.7-1.2s-.3-.8.5-.4c.6.4 1 1.5.9 2.4-.2 1.2.4 1.7 1.9 1.7 1.1 0 2.5.4 2.9.8.5.4 0 .5-1 .1-3.7-1.4-1 1.9 5 6.2 10 7.2 26.4 18.4 26.9 18.4.3 0 2.4 1.2 4.8 2.7 2.3 1.4 4.2 2.5 4.3 2.2 0-.2 1.5.8 3.3 2.3 1.8 1.6 3.9 2.8 4.7 2.8s1.4.4 1.4 1c0 1.2 4.4 3.5 8.5 4.4 2.3.5 1.6-.2-3-3-3.2-2-6.4-4.2-7-5-1.1-1.4-4.4-3.9-13.9-10.4-3.3-2.2-5.6-4-5-4 .5 0 2 .7 3.2 1.6 1.2.8 2.6 1.3 3 1 .5-.3 2.1.6 3.7 2 1.5 1.3 3.3 2.4 3.8 2.4s2 1.1 3.3 2.5 2.6 2.5 2.9 2.5 2.7 1.5 5.3 3.3c4.5 3.1 10.2 6.1 10.2 5.3 0-.5-11.4-11.6-17-16.6-1.9-1.7-6.6-4.7-10.3-6.6-3.8-1.9-7.9-4.4-9-5.5-1.2-1-5.3-4-9.1-6.5s-7.5-5.1-8.3-5.7c-.7-.7-1.9-1.7-2.6-2.2-.7-.6-3.7-2.8-6.7-4.9-7.3-5.2-11-8.7-10.4-9.7.3-.5 2.3.8 4.4 2.8 4.7 4.2 10.5 8.3 11.9 8.3.6 0 1.1.4 1.1.8 0 .5 2.4 2.4 5.3 4.4 12.7 8.4 16.5 11 21.7 14.8 5.7 4.2 13.2 8 15.6 8 .8 0-1-2.5-4.1-5.5-3-3-5.7-5.5-6-5.5-.4 0-3.2-1.7-6.3-3.9-3.1-2.1-6.7-4.1-7.9-4.5-1.3-.4-2.3-1.3-2.3-2 0-1.6-5.2-6.4-11.5-10.7-2.7-1.8-6.1-4.3-7.5-5.5s-3.9-2.7-5.6-3.4c-3-1.3-7.4-7.5-7.4-10.3 0-2.3-4.2-4.5-8.4-4.5-2.8 0-3.6.4-3.2 1.4s-.3.9-2.2-.5c-5.9-4-12.6-8.1-13.4-8.1-.4 0-.8-.5-.8-1 0-.6.5-1 1.2-1 1.9 0 10 4.2 12 6.2 1.5 1.5 2.2 1.6 4.3.6 2.9-1.3 3.3-2.8.8-2.8-4.8-.1-7.6-6.4-5.1-11.5.9-1.9.8-1.9-.6-.1-1.1 1.4-2.4 1.7-5.5 1.3-3-.3-4.1-.1-4.1.9 0 2-1.3 1.7-3.3-.6-2.1-2.5-2.2-3.6-.1-4.4.8-.3 1.2-.2.9.4-.4.6.8 1 2.7 1 1.8 0 4.3.3 5.6.6 2.7.8 3-1.3.3-2.4-1.6-.6-6.2-4-11.4-8.5l-2-1.7h2.1c1.1 0 2.3.4 2.6.9 1.2 1.9 12 7.2 13.7 6.8 1.2-.3 1.9 0 1.9.8 0 2 2.1 3 3.1 1.4.7-1.2.9-1.2.9 0 0 .8.3 1.2.6.9.3-.4.1-1.6-.6-2.7-.9-1.8-.7-2.2 1.5-3.1 2.3-.9 2.6-1.4 2-4.3-.5-2.4-.4-2.8.4-1.7.9 1.2 1.1 1.1 1.1-.7 0-1.2.3-2.4.8-2.6 1-.7 3.2 1.9 2.4 2.9-.4.4-.2.4.5.1.6-.4 1.3-.2 1.5.4s.4-.7.5-3c.1-2.6-.2-4.1-1-4.1s-1.1-2-.9-6.6c.3-4.1 0-6.4-.6-6-.5.3-1.5-.1-2.2-.9-1.7-2-8-2-8 0 0 2.2-1.8 2.6-7 1.6-3.7-.7-4.1-1-2.5-1.6 1.1-.5 2.3-1.3 2.7-1.9s1.8-1.1 3-1.2c7.2-.2 7.3-.3 8.9-7.9.4-2.2.4-5.4-.1-7-4.6-16.4-10.3-28.8-13.7-30.4-1.4-.6-3.3-.9-4.2-.7-2.3.8-6.6-2.8-5.8-4.8.4-.9 1.6-1.6 2.7-1.6s2-.5 2-1.1.8-.2 1.8.9c.9 1.2 2.8 2.2 4.2 2.4 2.8.3 2.7.7 1.4-15.5-.6-6.6-.5-6.7 1.9-6.7 2.2 0 4.9-1.1 12.9-5.1 1.6-.8 1.6-.6.6 1.6-.6 1.4-1.7 2.5-2.5 2.5-2.1 0-5.1 3.5-6.1 7.2-.7 2.6-.5 3.9 1 6.3 1 1.6 1.8 4.1 1.8 5.3 0 1.3.6 3.6 1.4 5 .7 1.5 2 4.3 2.9 6.2 2.1 5 6.5 10 8.8 10 2.7 0 2.6-5.9-.1-8.8-1.1-1.2-2-2.6-2-3.2 0-1.2 7.8-7 9.5-7 2.9 0 3.3-2.2 1-5.9-8.5-13.1-9.3-13.6-13.5-9.6-1.6 1.5-3.3 2.4-3.9 2.1-1.8-1.2-1.2-4.3 1.2-5.9 1.2-.8 3.6-2.8 5.3-4.4 1.6-1.5 4.8-3.7 7-4.8 2.1-1.1 4.2-2.4 4.5-2.9.4-.5 1.2-.7 1.9-.4.7.2-.9 1.8-3.6 3.6-6 3.8-8.2 6.8-5.6 7.6 1.8.6 9.9 11.9 10.4 14.6.5 2.4 2 3 5.8 2.4l3.5-.6-3 2.2c-1.6 1.1-5.8 3.7-9.2 5.6-3.5 2-6.3 4-6.3 4.5 0 1.6 4.3 6.9 5.6 6.9.6 0 2.7-1.2 4.7-2.8 4.9-3.7 11.7-7.8 12.4-7.4.3.2.9 0 1.2-.5s1.7-1.7 3.1-2.6c1.9-1.3 2.4-2.4 2.2-5.1-.3-2.7.1-3.4 1.7-3.9 1.2-.3 2.4-.1 2.7.4s2 .7 3.8.4c2.7-.6 3.4-.3 4.6 2 1.3 2.4 1.9 2.6 5.4 2.2 2.1-.3 5.2-1.5 6.7-2.6 5-3.7 9.5-1.9 7 2.8-1 1.7-1.5 1.9-3.5 1-3.4-1.6-9.1 1.3-10.5 5.2-.6 1.8-1.7 2.9-2.9 2.9-1.1 0-3.5 1.1-5.5 2.4-1.9 1.3-3.9 2.1-4.3 1.8-.4-.4-.4.5 0 2 .5 2.3.3 2.8-1.8 3.4-1.3.3-3 .4-3.7.3-3-.5-7.5 1.5-10.7 4.7-2.2 2.3-4.2 3.4-6.2 3.4-4 0-6 .9-6.1 2.9q0 1.65-.6.3c-.6-1.6-3.3.3-3.3 2.3 0 2.5 2.9 3.6 10.8 4.2 8.9.6 12.3 0 10.4-1.9-.7-.7-1.2-2.2-1.2-3.5 0-3.2 3.7-3.1 5.2.2 1 2.2 1.8 2.4 7.7 2.7l6.6.3-4.7 1.4c-2.7.7-4.8 1.5-4.8 1.8 0 .2.8 2 1.9 4.1 1 2 1.6 4.3 1.4 4.9-.3.7.2 1.3 1 1.3 2.5 0 4.7-1.1 4.7-2.5 0-.7 2-1.5 5.2-1.8 2.9-.4 5.4-1.1 5.6-1.7.2-.5 2.1-1 4.2-1 2.5 0 4-.5 4.4-1.5.4-1.1 1.9-1.5 5.5-1.4 3.4.2 5.9-.4 8.2-1.8 1.9-1.2 5.3-2.7 7.5-3.3 2.3-.7 5.5-2.3 7-3.5 2.7-2.2 2.8-2.4.9-3.1-2.6-1-3.5-2.3-3.5-5.2 0-1.5-.7-2.6-2-2.9-2.1-.6-2.7-1.9-1-2.5 1.6-.5-1.5-7.1-4.1-8.7-1.5-.9-1.8-1.5-1-2s1-1.8.5-3.4c-.5-2.3-1.2-2.7-4-2.7-3.5 0-4.6-1.3-1.9-2.4 2.6-.9 1.6-2.6-1.5-2.6-2.3 0-2.8-.3-2.3-1.7.5-1.2.2-1.5-.9-1-1.6.6-1.9-1.5-.5-2.9 1.4-1.5.6-4.2-1.4-4.7-1.2-.3-1.8-1-1.5-1.6.4-.5.2-1.2-.4-1.6-.5-.3-1-1.1-1-1.7s.3-.8.7-.5c.3.4 1.1.3 1.7-.2.6-.4 2.7-.6 4.7-.4 3.2.4 3.5.8 3.1 2.9q-.45 2.4 1.2 3c1.8.7 14.4-4.5 30.6-12.7 5.4-2.7 10.1-4.9 10.5-4.9s1.9-.9 3.3-1.9c3.9-2.8 15.3-8.4 15.8-7.8.5.5-7.3 5.4-12.1 7.6-1.6.7-3.7 1.7-4.5 2.2-.8.4-5.3 2.7-10 5s-9.6 4.9-11 5.9-3.6 2.1-5 2.5c-4.7 1.4-15 6.6-15 7.6 0 .5 1.4.9 3 .9 1.7 0 3 .4 3 1 0 .5-.6 1-1.4 1s-1.8.5-2.1 1c-1.1 1.8 1.7 7.6 4.6 9.6 1.8 1.2 2.5 2.2 1.9 2.8-1.3 1.3-1.3 6.2.1 8.8.9 1.7 1.7 1.9 4.9 1.4 4.6-.7 6.2.9 2.6 2.5-1.4.7-2.3 1.6-2 2 .3.5-.2.6-1 .3-2.5-1-1.9 1 .7 2.1 1.5.7 2.3 2 2.5 4.1.4 4.2 2.1 4.5 12.1 2.4 4.4-1 8.1-1.5 8.1-1.2s.5.1 1.2-.6 2-1.2 3-1.2 1.8-.5 1.8-1c0-.7.6-.8 1.7-.1 2.2 1.2 6.3-.6 4.3-1.9-2.2-1.3 3.4-3.5 19-7.4 8-2 15.3-3.9 16.3-4.2.9-.3 1.7-.1 1.7.4s-3.7 1.9-8.2 3.1c-16.5 4.5-24.8 7.2-24.8 8.3 0 .7.4.7 1.3.1.6-.6 1.9-1.1 2.7-1.1 3.1-.1 13.6-2.5 16.7-3.8 2.8-1.1 3.1-1.1 2.6.1-.3.8-1.3 1.5-2.3 1.5-1.1 0-2.2.4-2.5 1-.3.5-1.4 1-2.4 1s-3.2.7-4.7 1.5c-1.6.8-3.7 1.5-4.6 1.5-1 0-4.1.9-7 2s-6.5 2-8 2c-1.6 0-2.8.4-2.8.9s-1.4 1.1-3.2 1.5c-1.7.3-5.5 1.7-8.4 3.1s-5.8 2.5-6.4 2.5-.8.4-.5 1c.3.5.1 1-.5 1s-1 1-.8 2.2c.2 1.9 1 2.3 4.3 2.5 6 .2 6.1.3 4.5 1.3-.8.5-2.7 1-4.2 1-2.6 0-2.7.2-1.7 2.6.5 1.5.7 2.9.5 3.2-.8.7 1.7 2.8 4.4 3.8 1.4.4 4.8.7 7.5.6l5-.2-3.4 1.5c-1.8.8-4.1 1.5-5.1 1.5-1.5 0-1.7.9-1.6 5.4.1 3.9-.4 5.9-1.7 7.4-1.8 2-1.8 2.1.5 3.3 2.6 1.4 4.8 4 4.2 5.1-.2.3 1.7 1.4 4.2 2.4 4.2 1.6 4.5 1.9 2.8 3.1-1 .7-3.4 1.3-5.3 1.3h-3.6v5c0 4 .4 5.3 2.3 6.6 2.1 1.5 2.2 1.7.6 2.8-2.4 1.8-.9 3.6 2.4 3 1.5-.3 5.2.4 8.2 1.5l5.5 2-12.5-.2c-12.6-.2-17.1 1-9.6 2.5 4.5 1 6.9 2.6 6.2 4.3-.7 1.9 3.9 3.5 10.4 3.5 3.4 0 8.8.9 12.4 2.1 5.3 1.8 6.3 2.4 5.9 4-.3 1-.9 1.9-1.3 1.9-.5 0-1.1.8-1.4 1.8-.7 1.9-5.8 4.2-9.6 4.2-1.3 0-2.1.3-1.7.6.3.3 6.3 1 13.4 1.5 7 .5 15.2 1.2 18.1 1.5l5.2.7v-4.5c0-3.2-.6-5-2-6.3-1.1-1-2-2.4-2-3 0-2.6 7.1-15.5 9-16.5 1.1-.6 2-2 2-3.1 0-2.3 1.8-6 3.4-7.2.6-.4 3-1.2 5.4-1.8 3.5-1 4.2-1.5 4.2-3.6 0-1.5.5-2.3 1.2-2.1.7.3 2.1-.6 3.1-1.9 1.1-1.3 3.8-3.3 6-4.5 2.3-1.1 4.7-2.9 5.4-3.8 1.9-2.7 7.7-5 12.5-5 5.9 0 6.8-1.2 2.1-2.5l-3.8-1.2 4-1.1c4.7-1.4 30.4-3.2 39-2.8l6 .2-.3 3.4-.4 3.3 6.8-.6c5.6-.6 18.7.7 20.3 1.9.2.2-.2 1.1-.9 2-1.2 1.3-1.1 1.7.1 2.5.8.5 2.5.9 3.9 1 1.4 0 3.4.4 4.5.8 1.9.8 1.9.8-.3 2.2-2.9 1.8-2.9 5.5.1 6.4 2 .6 1.9.7-1.3 1.7-1.9.5-6.1.8-9.2.5-5.8-.5-7.7.5-3.5 1.9 1.2.4 5.1 1 8.7 1.3s6.5 1 6.5 1.6c0 .5-1.9.8-4.2.7-4.2-.3-4.3-.3-4.3 2.7 0 2.8.4 3.2 4.5 4.2 6.7 1.7 5.6 3.4-2 3.1-1.1 0-6-.5-11-1.1-4.9-.6-12.9-1.3-17.7-1.7-14.3-1-10-2.2 6.7-1.9l15.5.3-3.7-1.9c-2.5-1.3-5.9-1.9-10.3-1.9-3.6-.1-8.5-.6-11-1.1-2.5-.6-8.9-1.4-14.3-1.9-5.4-.4-10.1-1.1-10.5-1.5-.3-.3-.1-1.5.6-2.5.7-1.1 1.2-2.2 1.2-2.4 0-1.4-8.2-2.7-20.4-3.2-13.8-.7-14.1-.6-16.1 1.6-1.6 1.9-1.7 2.2-.3 1.7.9-.3 2.2.1 2.8.9.7.8 2.2 1.4 3.3 1.4 3.3 0 1.2 1.1-2.7 1.4-2 .2-3.9-.1-4.2-.5-.3-.5-2.7-.9-5.5-.9-3.6 0-4.9.4-4.9 1.4 0 .8.5 1.8 1 2.1 2.2 1.3.8 2.5-2.9 2.5-4.6 0-6.9 2-4.7 4.2 1.5 1.6 19.1 3.3 22 2.2 2.1-.8.4-4-2.6-5-4.4-1.3.7-2.3 7.3-1.3 3.5.5 12.3.7 19.4.4 14.7-.7 18.8 0 19.3 3.4.4 2.4 1.5 2.4-12.3.1-3.3-.5-8.4-1.1-11.3-1.2-5.9-.3-8.6 1.6-9.6 6.7-.6 2.8-.4 3.1 3.4 4.2 2.2.7 4.8 1.3 5.9 1.3 1 0 2.4.7 3.1 1.5 1.1 1.3.8 1.5-1.6 1.6-2.9.1-2.9.1-.4.8s2.5.7.3 1.3c-1.3.3-2.3 1.2-2.3 2 0 1.6 5.4 5.1 6.3 4.1.4-.3 1.3-.1 2 .6.8.6 3.6 1.3 6.2 1.6 4.7.5 6.8 1.9 6.1 4-.1.5-1.8 1-3.7.9-15.6-.5-18.9-.4-22.8.6-3.8.9-4.9.8-8.5-1-5.7-2.7-18.5-2.9-20.8-.3-2.2 2.6-3.1 6-1.9 8 .6 1.2.5 2.5-.3 4.3-1.9 3.6-2.6 10.7-1.4 14.1 1 3.1 6.7 6.2 13.2 7.5 3.4.6 4.9 2.5 5.9 7.2.4 1.8 0 2.5-1.9 3.2-4.7 1.8.3 6 7.3 6 2.3 0 4.5.8 5.9 2.1 1.2 1.1 3.4 2.1 5 2.3 3.7.4 5.5 3.2 3.3 4.9-1.5 1.1-1.1 1.6 2.7 4.2 2.4 1.7 4.4 3.5 4.4 4 0 .6 1.4 1.9 3.1 2.9 4.4 2.6 3.5 5.1-1.9 5-6-.1-5.2 2.4 1.3 4.6 7.4 2.4 12.6 5.1 12.2 6.3-.2.6-1.2 1.6-2.3 2.3-1.7 1.2-2.5 1-5.6-1.1-3.6-2.4-9.8-3.4-9.8-1.6 0 .5-.3 1.6-.6 2.5-.4 1.1 0 1.6 1.4 1.6 1 0 3.1.9 4.5 2.1 2.3 1.7 2.5 2.3 1.4 4.2-.6 1.1-2.1 2.8-3.1 3.7-2.5 2.1-1.5 3.6 2.9 4.4 2.6.5 3.5 1.2 3.5 2.6 0 1.1-.6 2-1.2 2.1-.7 0-3.4.4-6 .8-2.7.4-4.8.5-4.8.1 0-.3-.9-1.6-2-2.8-1.5-1.6-1.8-2.7-1.2-3.9 1.5-2.8-.3-6.6-2.7-5.8-1.1.3-2.2.1-2.6-.5-.3-.5.3-1 1.4-1 3 0 3.5-1.7.9-3.1-1.3-.7-3.3-2.3-4.6-3.7l-2.3-2.5 2.3.6c1.3.3 3.5.9 5.1 1.2 2.5.7 2.7.6 1.9-1.6-1-2.7-4.6-4.9-7.9-4.9-1.4 0-3.2-1.4-5-4-1.5-2.2-3.2-4-3.6-4-2.4 0-7.6-3.4-8-5.1-.3-1-2.5-2.7-5-3.8-2.4-1-5.8-3.4-7.5-5.2l-3.1-3.3-9.3 1.7c-5.1 1-10.4 1.8-11.8 1.7-1.4 0-6.3-.3-11-.5-9.5-.6-13.3.6-13.8 4.3-.4 2.4-.3 2.5 12.3 13 5.9 4.9 10.4 7.9 21.5 14.3 10.4 5.9 19 11.2 20.9 12.9 1.3 1.2 3.7 2.8 5.3 3.6s2.6 1.9 2.3 2.5c-.4.5-1.1.6-1.7.3-.5-.3-5.2-.7-10.4-.8-7.6-.2-9.7 0-10.3 1.2-.7 1.3-1 1.2-1.5-.6-.5-1.4-2.4-2.6-5.5-3.7-2.7-.9-7.5-3.2-10.7-5.2-3.9-2.3-7.4-3.6-10.4-3.9-2.5-.1-3.5-.1-2.2.2 1.2.3 2.2 1.2 2.2 1.9 0 1.4 6.6 7.1 18.1 15.5 6.5 4.8 11.9 9.9 11.9 11.3 0 .5-1.9.7-4.2.5-4.1-.3-4.3-.2-4.1 2.5.2 2.4-.1 2.6-1.7 1.7-2.4-1.3-8.3-1.3-9.6 0-1.8 1.8-7.8-1.2-15.9-8-9.5-8-13-10-17.5-9.9-3.2 0-3.3.1-1.2 1.1 1.2.6 2.2 1.7 2.2 2.5 0 .7.4 1.3.8 1.3s4 3.1 8 6.9c5.3 5.1 7.2 7.7 7.2 9.5 0 3.2-2.9 3.5-4.8.6-.7-1.1-4.9-3.8-9.5-5.9-4.5-2.1-10-5.2-12.1-7-2.2-1.7-5.1-3.4-6.5-3.8-2.9-.7-3.9-1.4-8.7-6.4-2.9-3.1-4.3-3.7-8.7-4.1-6.3-.5-11-2.7-11.5-5.2-.4-1.7.1-1.8 4.3-1.4 2.9.4 5.6 1.5 7.3 2.9 1.5 1.3.9.4-1.3-2-3.8-4.1-11.8-9.9-17.7-12.9-2.7-1.4-3.9-4.2-1.8-4.2.6 0 1-.6 1-1.3 0-.6-2.4-2.2-5.3-3.4-7.5-3.1-8.6-3.3-9.2-2.3-.4.6-.2 1 .4 1 1.4 0 8.4 4.9 9.4 6.5.9 1.6.3 2-4 3-1.8.3-3.6 1.1-4 1.7-.4.7 0 .9 1 .5 1-.3 1.7-.2 1.7.3 0 .6-.4 1-1 1-.5 0-1 .5-1 1.1 0 .8.4.8 1.4 0 2.1-1.7 5.3.5 6 4.2.8 4 7.1 9.9 12.4 11.6 2.3.8 4.9 2.2 5.8 3.3 1 1 2.7 1.8 3.9 1.8s3.4.9 4.9 2.1c3 2.4 19 10.4 24.6 12.4 2.1.7 5.7 2.8 8.2 4.7 2.4 1.8 6 4.4 8.1 5.8 3.7 2.5 4.7 4 2.5 4-.6 0-9.4-4.1-19.5-9.1-15.1-7.5-18.8-9-21.2-8.4-1.7.4-3.3 1.5-3.6 2.6-.4 1.3-1.5 1.9-3.5 1.9-3 0-3.5.5-8.5 8.3-3 4.5-3.4 8.9-.7 8.5 1.3-.2 1.8.5 2 2.9s-.1 3.3-1.1 3.3c-1.5 0-2.7 2.9-2.7 6.4 0 1-1.1 2.7-2.5 3.8s-2.2 2.5-1.8 3.1c.3.7.3.9-.2.5-1.4-1.3-3.4 2.6-2.8 5.6.5 2.5.4 2.8-1.4 2.2-1.5-.5-2.3 0-3.1 1.9-.7 1.4-1.2 3.2-1.2 3.9s-.9 2.2-2 3.4c-2 2.1-2 2.3-.4 5.4.9 1.8 2.8 4.5 4.2 6.1l2.6 2.7-4.2-.5c-3.7-.5-4.2-.3-4.2 1.5 0 1.2-.9 3-2 4.2s-2 2.8-2 3.5c0 1.5-4.6 1.8-5.5.3-1-1.6-6.5-1.2-6.5.5 0 .8-.5 2.5-1.1 3.8-.9 2-2 2.6-6.2 3-3 .2-5.5 1.1-6.2 2.1-.7.9-1.7 1.6-2.2 1.6-.6 0-1.6.7-2.3 1.5-.7.9-2 1.3-2.7 1-1.8-.6-4.3 1.8-4.3 4.2 0 1-2.2 4-5 6.6-2.7 2.6-5 5.2-5 5.7 0 .6-1.3 1-2.9 1-3.8 0-8.9 2.9-9.7 5.5-.9 2.7-2.3 3.5-6.1 3.5-1.8 0-3.3.4-3.3.8 0 .5-1.9 1.4-4.2 2.1-8.7 2.6-18.8 8.9-18.8 11.8 0 .7-1.3 1.6-3 1.9-1.6.4-3 1-3 1.5s-1.7.9-3.8.9c-4.6 0-6.2 1.4-6.2 5.5-.1 1.6-.9 4.4-1.8 6.2-1.5 2.8-1.6 4.7-.8 15.3.5 8 .5 12.5-.2 13.2-1.2 1.2-4.9-.9-5.5-3.3-.7-2.7.3-22.3 1.2-22.9.4-.3 1.2-9.9 1.7-21.5 1.9-43.7.2-87.4-3.5-91.9-.6-.7-.8-1.5-.5-1.8.3-.4-.2-2-1-3.7-.9-1.6-1.6-4.6-1.6-6.5 0-3.4-2.6-10.5-4.4-11.7-.4-.4-1-2.9-1.2-5.5-.4-6.8-2.1-18.1-3.4-23.4-.6-2.5-1.3-8.2-1.4-12.6-.2-4.5-.7-8.7-1.1-9.5-.5-.7-.8-3.1-.6-5.4.2-4.3.2-4.2-5.9-4.8l-2.5-.2v12c0 11.1-.2 12.3-2.3 15-1.7 2.2-2.2 4-2 6.9.3 5-2 7-5.1 4.2-1.8-1.6-2.1-3.1-2.1-9.1 0-4.7.5-7.8 1.5-9.1.8-1 1.5-2.7 1.5-3.7s.5-1.5 1-1.2c.6.3 1-.1 1-.9s.7-3.6 1.6-6.2c1.4-4.1 1.4-5 .1-8.3-1.2-3-1.3-4.4-.4-7.4 1.2-3.8 3.4-5.3 2.4-1.6-.8 3.1 2.2 3.7 4.4.8 2.3-2.9 2.6-10.9.5-10.9-1.9 0-4.2-3-2.9-3.8.5-.4 1.3-2.4 1.6-4.5.5-3.4.4-3.7-1.7-3.7-2.6 0-3.6 2.2-3.6 7.7 0 2.3.5 3.3 1.6 3.3s1.4.8 1.2 2.7c-.2 2-.8 2.7-2 2.5-1.1-.2-2 .6-2.4 2.2-.3 1.5-1.5 2.7-3.1 3.1-3.1.8-3.1.8-3.5-4-.2-2.8.1-3.9.9-3.8 3.2.7 6.4-12.4 3.9-16.2-2-3.1-.3-5.8 1.9-3 1.5 1.9 1.5 1.9 1.1-.5-1.5-8.2-1.6-10-.6-10 .6 0 .9.4.5.9-.3.5-.1 1.2.5 1.6.5.3 1-.3 1-1.4 0-1.2-.4-2.1-.8-2.1-.5 0-1.6-1.6-2.6-3.6-2.2-4.7-11.5-15.4-13.3-15.4-1.1 0-1.3 1-.8 4.7 1.3 9.3 3.6 19.2 5 22 1.7 3.2 1.9 8.1.5 10.3-.9 1.3-1.4 1-3.2-1.4-1.7-2.3-2.1-4-1.9-8.9.4-8.4-1.9-22.7-3.5-22.7-.8 0-1.1-.6-.8-1.5.4-1 0-1.5-1.1-1.5-1.7 0-1.7-.1-.2-1.8 1.3-1.4 1.4-2.1.5-3s-.9-1.2.1-1.2c1.1 0 1.2-1.3.8-5.8l-.6-5.7 1.9 4.2c1.4 3.1 2.5 4.3 4 4.3 1.2 0 1.9-.4 1.6-.8-.3-.5.8-2.1 2.5-3.6 3.6-3.4 3.8-2.4.4 2-1.4 1.8-2.5 3.8-2.5 4.4s-.4.8-1 .5c-.5-.3-1-.3-1 0 0 1 5.5 8.7 8.3 11.7 1.4 1.5 3.5 4.5 4.8 6.8 1.2 2.2 2.6 4 3.1 4 1.8 0 1.9-2.9.2-6.6-.9-2.3-1.6-6.5-1.6-10.1-.1-5.2.3-6.6 2.1-8 1.5-1.3 1.8-2.2 1.1-3.3-.8-1.2-1-1.2-1 .5 0 3.2-2-.4-2-3.7 0-1.5-1-3.6-2.1-4.7-1.7-1.6-2-2.6-1.5-5.3.4-1.8 1-5.2 1.3-7.6.3-2.3.9-4.2 1.5-4.2 1.3 0 .5-8.6-1.3-12.8-1.1-2.7-1.1-3.4-.1-4.1 1.8-1.1 1.2-10.7-.5-10.3-1.8.3-1.7-5.3 0-7 .8-.7 1.6-3.1 1.9-5.3s2.4-7.9 4.7-12.7c4.1-8.8 4.9-12.2 3.1-13.3-.6-.4-.4-1.7.5-3.5.8-1.6 1.5-3.6 1.5-4.5s1-3.5 2.2-5.8 2.4-5.9 2.8-8c.6-3.2.5-3.5-.7-2.5-.9.7-1.2 2.1-.8 3.6.3 1.3.2 2.1-.3 1.8s-2.2.5-3.8 1.9c-3.2 2.7-4.6 2.5-2.1-.3 1-1 1.4-2.2 1-2.5-.3-.4-.1-.7.5-.7.7 0 1.2-1.1 1.2-2.4 0-1.5.7-2.6 1.9-2.9 2.8-.7 5.7-5.9 6.5-11.4 1-7.8-.4-6.9-7 4.2-3.2 5.4-9.4 11-9.4 8.4 0-.5.8-1.3 1.8-1.6 2.4-.9 3.8-2.9 6.9-9.3 1.5-3 3-5.7 3.3-6 .7-.5 2.3-4 2.4-5.2.1-.3.4-1 .9-1.4.4-.4.7-1.5.7-2.5 0-.9 1.1-4 2.5-6.7 1.4-2.8 2.5-5.5 2.5-6.1s8.1-9.2 18-19.1 18-18.5 18-19c0-.6.9-1 2.1-1 1.4 0 1.9-.5 1.6-1.4-.4-.9-.1-1.3.6-1.1 1.8.6 4.1-1.5 6-5.8 1.9-4 3.9-4.6 7.3-2.2 1.9 1.3 2.3 1.2 5-1.7 1.6-1.6 5.4-4.8 8.4-7.1 6.3-4.6 18-16.1 18-17.7 0-.6-1.2-1.5-2.6-2.1-2.1-.7-3.2-.6-4.8.6-7.5 5.5-8 5.6-6.9 1.7.3-1.2.9-1.9 1.4-1.6s.9 0 .9-.5c0-.6.7-1.1 1.5-1.1 1 0 1.5-1 1.5-2.9 0-2.2-.6-3-2.5-3.5-1.3-.3-3.5-1.7-4.9-3.1-2.2-2.2-3.4-2.6-7.3-2.5-.5 0-.9 1.3-.9 2.8-.1 1.5-.2 3.3-.3 3.9 0 .7-1.4 1.3-3.1 1.3-2.4 0-3-.4-3-2.1 0-3 1.8-5.9 4.4-6.9 1.5-.5 2.5-2 2.9-3.9.6-2.6 1.1-3.1 3.7-3.1q3 0 3 1.5m-273.2 38.1c1.8.8 3.6 1.3 4.1 1 1.4-.9 1.8 2.3 1 6.4-.4 1.9-.9 6.5-1.1 10.2-.2 6.3-.1 6.9 2.7 9.8l3 3.2-3-.8c-1.6-.4-3.4-1.3-3.8-2.1-.4-.7-1.5-1.3-2.3-1.3-1.1 0-1.2-.5-.5-1.8.9-1.7.1-9.8-1.3-12-.4-.7-2.1-1.9-3.7-2.7-2.8-1.5-2.9-1.6-1.3-4 .9-1.4 1.4-3.4 1.1-4.5-.3-1 0-2.1.7-2.4.6-.2 1.1-.5 1.2-.5 0-.1 1.5.6 3.2 1.5m-110.2 39.9c5.1 2.1 7.8 1.7 8.2-1.3.4-2.5.8-2.6 4.1-.8 2.4 1.4 3.7 6.6 1.7 6.6-.6 0 0 .7 1.2 1.6 2.4 1.6 3 4.3 1 4.5-3.5.3-5.7-.6-10-4.2-4.6-3.9-6.8-4.8-6.8-2.9 0 1.2-3 1.3-4.7.2-.7-.4-1.6-2.3-1.9-4.1-.6-3-.5-3.2 1.2-2.3 1 .5 3.8 1.8 6 2.7m-44.8 8-.3 4.5 8 4c4.5 2.2 9.1 4 10.3 4 2.4 0 8.5-3.4 7.7-4.2-.9-.9 2.3-3 5-3.3 2-.2 2.5.2 2.2 1.4-.2.9-.9 1.5-1.5 1.3-.7-.1-1.2.4-1.3 1-.1 1.6-.6 4.5-1.4 7.5-.5 2.2.1 2.7 6.2 5.4 9.2 4.2 11.3 6.3 11.3 11.2 0 2.8.8 5.1 2.6 7.4 2.2 2.9 3.1 3.3 7.1 3.3 3.7 0 4.4.3 3.9 1.6-.7 1.8 3 5.3 5.6 5.4.9 0 2-.9 2.3-2s1.2-2 2-2c.7 0 1.3-.6 1.2-1.3-.1-4.1.5-6.7 1.6-6.7.7 0 1.8-.9 2.5-2 1.6-2.6 3.6-2.6 2.9.1-1.4 5.4 3.1 10 11.2 11.2 1.8.3 3.8 1 4.4 1.6 1.9 1.9 5.7 1.3 6.6-1.1 1.3-3.6-2-8.1-7.4-10-.5-.1-.9-.6-.8-1.1.2-.4-.3-.7-1-.7-.8 0-2.3-.8-3.5-1.8-2.7-2.3-4.3-3.4-13-8.7-7.5-4.6-10.9-5.7-9.8-3q.6 1.5-1.5 1.5c-3 0-4.9-2.3-4.2-5.1 1.3-5.4 4.3-6.4 7.4-2.4 1.1 1.3 7.2 5.4 13.7 9 9.3 5.3 12.4 6.5 15.2 6.3 4.9-.4 4.5-2.7-1.1-5.8-3.9-2.1-11.2-7.3-12.9-9-1.8-1.9-10.6-6.8-10.8-6-.4 1-3.4.1-4.4-1.4-.4-.6-.2-1.4.5-1.8.9-.5.8-1.1-.4-2.4-1.5-1.4-1.3-4 .7-8.2.1-.1 1.3.2 2.8.7 2.1.9 2.6 1.7 2.6 4.5 0 3.3 2 6.6 4.1 6.6.5 0 3.7 2.7 7 6 3.4 3.3 7 6.2 8.1 6.6 1 .3 1.8.9 1.8 1.5 0 1.5 8 6 10.3 5.7 1.9-.3 2.2-1 2.4-5.3.1-2.8.2-5.3.4-5.8.1-.4.2-1.3.3-2 0-.6 1.2-1.2 2.4-1.2 2.2 0 2.4.5 2.8 6 .2 3.3.4 6.4.4 7 .3 3.4-3.9 22.2-6 27-1.5 3.4-2.2 7.7-2.7 15.2-.4 6.2-.2 7.2 1 6.7 1.8-.6 3.7 2.3 3.7 5.7 0 2.2-.1 2.1-3.3-.9-1.8-1.8-3.8-3.2-4.5-3.2-1.9 0-5.2 6.1-5.2 9.7 0 1.7-.4 3.5-1 3.8-.5.3-1 3.2-1 6.4v5.7l4.3 2.2c3.7 1.9 3.9 2.2 1.7 2.3-1.4.1-3 .3-3.5.3-.6.1-3.4 1.6-6.3 3.4-3.5 2.1-5 3.7-4.6 4.5.6.9.5.9-.7 0-1.3-1-2.1-.7-4.8 1.7-1.8 1.7-3.7 3-4.3 3-.5 0-.8.7-.5 1.4q.6 1.5-.9.9c-.9-.3-1.4.1-1.4 1.3 0 .9-.2 1.5-.5 1.2-.3-.2-2.8 1.7-5.6 4.4-2.8 2.6-5.5 4.8-6 4.8-.6 0-.7.5-.4 1 .3.6-.6 1.5-2.2 2.1-2.6 1-2.7 1.1-.9 2.1 1.5.8 2.2.7 3-.4.6-.8 1.9-1.7 2.9-2.1s1.6-1.1 1.3-1.5c-.3-.5 1-1.5 2.9-2.2 1.9-.8 3.5-1.6 3.5-2 0-.3 1.7-1.2 3.7-1.9 4.3-1.6 11.5-7.9 10.6-9.4-.3-.6-.2-.8.3-.5 1 .7 3.6-1.7 2.7-2.5-.3-.3.4-.3 1.6 0s3.2-.4 5-1.6c1.6-1.2 3.4-2.1 4-2.1s1.6-.9 2.3-2c1.5-2.3 3.8-2.7 3.8-.5 0 1.8.5 1.8 3.1.5 2.3-1.3 2.5-.3.2 2.2-.9 1-3 1.8-4.7 1.8-1.7.1-4.2.7-5.6 1.5l-2.5 1.4 2.7.1c2 0 2.6.4 2.2 1.5-.5 1.1-.2 1.4 1.2.8 1.1-.3 2.3-1.2 2.7-2 .4-.7 2.2-1.2 4-1.2 1.8.1 2.4.3 1.5.6-1 .2-1.8.9-1.8 1.5s.7.7 1.8.3c.9-.4 2.9-1 4.5-1.3 1.5-.2 3-.8 3.3-1.3.8-1.4 2.4-1 2.4.5 0 1-1.6 1.7-4.5 2.2-2.5.3-4.8 1.1-5.2 1.7-1.1 1.8 9.9-.2 15.5-2.9 2.9-1.5 5.5-2.4 5.7-2.2.6.5-3.6 6.8-4.5 6.8-.4 0-.6 1-.2 2.2.3 1.3.1 1.9-.5 1.5s-1.3-.1-1.6.7c-.5 1.3-6.1 4.6-7.9 4.6-1.9 0-.6-2 2.7-4 4.8-3 4.7-5.3-.2-4.4-2.1.4-4.6 1.1-5.5 1.5-.9.5-3.1.9-5 .9-3.2 0-3.2 0-1 1.6 2.8 2 2.8 4-.1 4.8-2 .5-6.3 7.3-5.3 8.4.2.2 2.4-.7 4.8-1.9 2.3-1.3 4.8-2.4 5.3-2.5.6-.1 1.9-.6 2.9-1 3.8-1.5.6 1.4-5.1 4.6-3.1 1.8-6.2 3.7-6.8 4.4-6.2 5.9-10 8.2-11 6.6-.3-.5-1.3-.6-2.2-.3-1.1.4-1.4.3-.9-.5 1.1-1.8-1-1.4-2.5.5-1 1.1-1 1.4-.1.9.7-.4 1.2-.1 1.2.9 0 .9-.4 1.3-1 1-.5-.3-1-.1-1 .4 0 .6.6 1.1 1.3 1.1.8 0 .7.3-.2.9-1 .6 0 .8 2.9.4 5.3-.7 4.8.7-1.5 3.7-2.5 1.2-4.5 2.6-4.5 3.1s-.6.9-1.2.9c-.7 0-4.3 2.4-7.9 5.3-3.7 2.8-7.5 5.8-8.5 6.5-1.4.9-1.5 1.2-.3.8.9-.2 1.6.2 1.6 1s-1.1 1.4-2.6 1.4c-7.9.2-15.1 1.7-15.1 3.2 0 .6-.7.8-1.5.4-.8-.3-1.5-.1-1.5.5s-.4.8-.9.5-1.5.2-2.2 1.1c-.8 1-.9 1.4-.2 1 1.7-1 2.7 1.1 1.3 2.8-.9 1-.7 1.5.9 2 1.9.6 7.8-2.1 11.2-5.1 1.9-1.7 3.8-1.9 2.1-.2-1.6 1.6-1.5 3.1.1 2.3.6-.4.3 0-.7.9-1 .8-2.3 1.3-2.7 1-.4-.2-3 .9-5.7 2.6-2.7 1.6-5.5 3-6.1 3-.7 0-1.1.8-.9 1.7.2 1 1.1 1.7 1.9 1.5.7-.2 2.2-.4 3.1-.5 1-.1 1.8-.5 1.8-1 0-.4.4-.6.9-.2.6.3 2-.5 3.2-1.7 1.2-1.3 1.8-1.7 1.4-.9-.5.9.2.7 1.8-.5 1.5-1 2.7-2.2 2.7-2.7 0-.4.6-.7 1.4-.7s2.9-1.6 4.7-3.5 5.1-4.4 7.4-5.5c5.6-2.8 7.9-4.3 8.8-5.8.4-.6 1.3-1.2 1.9-1.2s2-.7 3-1.7c2.7-2.4 2.2-.8-.6 1.9-3.6 3.6-6.9 6.2-9.1 7.4-4.8 2.5-7.2 4.1-11.8 7.6-2.7 2.1-5.3 3.8-5.8 3.8-.6 0-.7.5-.3 1.2s.3.8-.4.4-1.2-.3-1.2.2-1.3 1.5-2.8 2.1c-1.5.7-3.9 2.2-5.3 3.4-3 2.8-9.9 6.9-9.9 5.9 0-.4-.9-.8-2-.8s-2 .3-2 .7-1.5 1.4-3.2 2.3c-1.8.8-2.7 1.6-2 1.6.8 0 1 .5.6 1.2-.6 1-.4 1 .8 0 .8-.7 2.2-1 3-.7 1.8.7 16.5-7.7 26.1-14.9 4-3 8.6-6 10.2-6.7 3.3-1.5 11.2-7.1 16-11.4 1.7-1.5 4.6-3.8 6.5-5 1.9-1.3 8.9-7.5 15.4-13.9 11.6-11.2 14.6-15.3 7.5-10.1-7.4 5.4-12.5 8.5-13.9 8.5-1-.1-.9-.4.5-1.2 1.1-.6 5-3.7 8.6-7 3.7-3.2 7.1-5.8 7.7-5.8 1.1 0 8.2-6.5 8.2-7.5 0-.7-6.4 3.7-6.8 4.7-.4.8-3.2-.1-3.2-1.1 0-.3 1.5-1.2 3.3-2 1.7-.8 4-2.3 4.9-3.5 1.2-1.5 1.8-1.7 1.8-.7 0 2.5 2.9-2.1 3-4.7 0-1.4.9-2.7 2.4-3.3 2.3-1.1 5.6-8.3 4.3-9.5-.4-.4 0-1.9.7-3.3 1.6-3.2 4.5-11.4 5.6-15.9.5-1.8 2.4-6.5 4.4-10.4 2.4-4.7 3.6-8.5 3.6-11.2 0-3.1.8-4.9 3-7.5 1.7-1.8 3-4.2 3-5.2s.9-3.5 2.1-5.5c1.3-2.5 2-5.2 1.8-8.3-.1-2.5.3-5.7.9-7.1.5-1.4.8-2.8.6-3.1-.2-.4-2.8-17.7-4.1-28.1-.3-2.3-1.8-5.2-4-7.8-5.5-6.4-2.9-6 3.2.5 4.3 4.5 5.5 6.5 5.5 8.9 0 2 .7 3.6 2 4.4 1.2.7 2 2.3 2 4.1 0 1.6.7 3.4 1.5 4.1s1.5 1.7 1.5 2.3c0 .7-.4.7-1.2-.1-.7-.7-1.6-1.2-2.1-1.2-1.4 0-.4 11.1 1.4 14.6 1.8 3.6 3.3 8.4 3.1 9.6-.1.5.2.8.7.8s1.2.8 1.6 1.7c.5 1.5.4 1.6-.6.5-.7-.6-2.2-1.2-3.2-1.2-1.7 0-1.8.6-1.4 4.2 1 7.9 2 11.2 3.8 13.2 1.2 1.2 1.9 3.5 1.9 5.8 0 2.1.5 3.8 1 3.8.6 0 1 .9 1 2.1s1.4 4.1 3 6.6c3.4 5 3.6 5.6 1.5 7.3-1.9 1.6-1.9 7.3 0 10.9 1 2 1.6 7.6 2 17.7.7 18.8 1.1 22.2 3 24 .8.9 1.5 2.3 1.5 3.3s.9 2.6 2 3.6c2.6 2.3 2.5 3.5-.2 3.5-1.2 0-3 .7-4 1.7-2 1.8-2.5.4-.8-2.7 1.2-2.3.2-5.9-1.2-3.8-.4.7-.5 5.9-.2 11.5.5 6.8.3 10.3-.4 10.3-1.3 0-2.2 2.3-3.3 8.5-.4 2.7-1.1 6.5-1.5 8.3-.4 2-.2 4.3.6 5.7.9 1.7.9 2.8.1 4.3-.6 1.1-1.1 4.7-1.1 7.9s-.3 7.6-.7 9.8c-.6 3.6-.7 3.7-1.3 1.5-.4-1.4-.9 3.4-1.2 10.6-.4 7.3-1.1 14-1.6 15-2.7 5-4.6 12.5-4.6 18.6-.1 3.6-.3 6.5-.5 6.3-1-1.1-4.2 4.9-4.7 8.9-.5 3.4-.2 5.2 1.1 7.2s1.5 3.2.7 4.8c-2.2 4.8-3.2 7.8-3.2 9.6 0 1.1-1.1 4.5-2.5 7.7-2.9 6.5-4.6 20.2-1.9 15q2.4-4.5 2.4-1.2c0 .8-1.8 3.3-3.9 5.4-2.7 2.7-4.2 5.2-4.6 7.8-.4 2.1-1.1 5.8-1.6 8.3s-1.4 17.9-1.9 34.4c-.9 28.7-1.1 30-3.4 35l-2.5 5.1-.1-9c-.1-5-.4-8.4-.7-7.8-.9 2.3-3.8 1.3-5.8-2-1.1-1.8-4.3-4.3-7-5.7-2.8-1.4-7.4-4.3-10.2-6.3-2.9-2-5.7-3.7-6.1-3.7-.5 0-1.7-.9-2.7-2s-2.6-2-3.7-2c-1 0-1.8-.5-1.8-1 0-1.3-4.7-1.3-5.5-.1-.3.6-2 1.7-3.7 2.6l-3.2 1.5 2.2-2.3c1.7-1.8 2.2-3.5 2.2-7.8 0-5.3.2-5.6 3.2-7 2.2-1 4.7-3.9 8.4-9.9 2.9-4.7 5.3-9 5.3-9.5 0-.6-.3-.4-.6.2-.5 1.5-3.3 1.8-3.3.3 0-.5.8-1.4 1.8-1.9 1.5-.9 1.5-1-.5-1.1-1.6 0-2.5-.8-2.9-2.5-.8-3.1-.1-4 2.3-3 1 .5 2.2.9 2.6.9.5.1 1.4.9 2.1 1.8.7 1 1.6 1.8 1.9 1.8.5 0 8-10.1 12.7-17.1.8-1.2 2.4-3.4 3.6-4.8 1.1-1.4 3.5-4.7 5.2-7.3l3.2-4.7-2.6 1.4c-2.2 1.1-10.4 9.2-20.2 19.9l-2.6 2.9-2.4-2.9c-1.4-1.6-3.9-3.9-5.6-5.2-1.6-1.2-2.6-2.2-2.1-2.2s-.8-.9-2.9-2c-3.7-1.8-4-1.8-5.2-.2-1.8 2.3-1.7 6.7.1 8.2.8.7 1.2 1.6 1 2.1-.8 1.3-9.4 2.2-11.5 1.3-1.9-.9-1.8-1.1.7-6.7 1.4-3.1 3-5.7 3.5-5.7s.7-.4.4-.9c-.4-.5.2-.7 1.3-.4s2.1-.2 2.4-1.1c.4-.9.2-1.6-.3-1.6s-1-1-1.2-2.3c-.2-1.2-1.3-2.6-2.5-3.2-1.3-.5-2.3-1.4-2.3-1.9s-1.8 1.5-4 4.4-4 6.2-4 7.1c0 1-1 2.4-2.2 3-1.3.7-2.7 1.7-3.3 2.3-.5.6-2.3 2.2-3.9 3.6-2.4 2.1-2.7 2.2-1.8.5.5-1.1 2-2.9 3.1-3.9 1.2-1.1 2.1-2.4 2.1-3.1 0-.6 1.6-2.6 3.5-4.5s3.5-3.9 3.5-4.4c0-.6.9-2.2 1.9-3.5 1.8-2.3 1.7-5.3-.1-7.6-.4-.5-1.9-2.4-3.3-4.1-1.4-1.8-2.5-4.4-2.5-5.8 0-1.6-.6-2.6-1.5-2.6-.8 0-1.5-.7-1.5-1.6 0-.8-.5-1.2-1-.9-.6.3-1.4-.4-1.9-1.7-.6-1.4-1-1.7-1.1-.8s-.4.7-1-.7c-1.2-3-2.8-2.5-10.4 3.7-3.7 3-8.1 6.5-9.8 7.7-2 1.5-2.5 2.3-1.5 2.3.9 0 1.8-.4 2.1-.9s1.9-1.3 3.4-1.9c2.7-.9 2.8-.9 2.4 1.9-.4 2.6-.1 2.9 2.2 2.9 2.9 0 3.1.3 1.5 3.2-2.8 5.1-5.2 6.9-8.8 6.3-2-.3-3.9-1.2-4.4-2-1-1.8-4.7-.3-4.7 1.9 0 1.8-3.1 3-4 1.5-.4-.6-1.1-1.1-1.6-1.1-1.9-.1-3.4-1.1-2.8-1.9 1.8-3-7.5 2.6-13.3 8-1.8 1.6-4.2 3.2-5.2 3.6-1.1.3-4.8 2.7-8.2 5.1-3.4 2.5-8.1 5.4-10.5 6.5l-4.4 1.8 1.6-2.4c1.5-2.3 1.5-2.5 0-2.5-2.4 0 3.7-6.4 7.9-8.4s7.2-2.2 5.6-.3c-1.9 2.4.1 2.7 3.1.6 2.6-1.9 2.7-2.2 1.3-3.3-1.3-.9-1.4-1.7-.6-3.9.6-1.5 1.8-2.7 2.8-2.8 1 0 3.2-.2 4.8-.4 2.8-.4 2.9-.3 1.1 1-1.1.8-1.7 1.8-1.3 2.1.7.8 9.4-5.5 10.1-7.3.3-.7-.1-1.3-.8-1.3-.9 0-1.2-.7-.9-1.9.5-2-1.7-7-4-9-2.5-2-9.1-.2-14.2 4-2.6 2.2-5.2 3.6-6.1 3.2-2-.7 3-5 6.8-5.8 1.5-.4 2.8-1.1 2.8-1.6s.8-1.2 1.8-1.6c2.5-.9 6.2-4.4 6.2-6 0-.7-1.1-1.3-2.5-1.3s-2.5-.4-2.5-.9 1-.7 2.3-.3c2.2.5 2.2.5.2-1.7-1.1-1.3-2.7-2-3.7-1.8-2 .6-3.4-.8-1.8-1.8 2-1.2.9-4.7-2.5-7.7-1.9-1.7-3.2-3.5-2.8-4.1.3-.5.9-.3 1.4.4.5.9.9-.9.9-4.7 0-5.2-.4-6.4-2.5-8.4s-2.8-2.2-4.9-1.2c-1.4.6-3.4 2.8-4.5 4.9-1 2.1-3.1 5.1-4.4 6.7-1.4 1.7-2.4 3.3-2.2 3.6.3.4-.6 1.2-2 1.8-1.3.6-3.2 2.3-4.1 3.7-1 1.5-4.5 4.5-7.8 6.8-4.8 3.2-7.2 4.2-11.6 4.5-6.2.5-6.3 1.1 1.2-7.7 2.1-2.4 4.4-5.7 5.2-7.2 1.4-2.8 1.4-2.9-.7-1.7-1.2.7-2.4 1.3-2.7 1.3s-2.1 1.5-4 3.3c-6.4 6-10.8 8.5-15.9 9-6.8.6-7.3-1-1.7-6.4 4.2-3.9 4.8-4.9 4.5-7 0-.4.5-1.1 1.3-1.5.7-.5.8-.9.2-.9s-2.8 1.1-4.8 2.5-4.1 2.5-4.6 2.5c-.6 0-1 .4-1 .9s-.8 1.1-1.7 1.5c-1 .3-2.5.9-3.3 1.4-3.1 1.9-10.2 5.2-11.2 5.2-.6 0-.5-.6.2-1.5 1.1-1.3.8-1.5-1.6-1.6-1.6 0-2.3-.3-1.6-.6.6-.2 1.2-.9 1.2-1.4s1.4-2.3 3-3.9c2-1.9 2.5-3 1.6-3-.8 0 2.1-3.3 6.4-7.3 7-6.4 10.2-10.9 8.8-12.3-.3-.2-7.5 3.2-16 7.6-15.6 8-19.6 9.4-18.4 6.5.3-.8.1-1.5-.4-1.5-.6 0-1-.6-1-1.4s-.6-2.1-1.4-2.9c-1.2-1.2-.9-1.8 2.1-4.3 4.9-4.2 12.3-8.6 24-14.5 5.6-2.8 10.8-5.8 11.4-6.5.6-.8 1.8-1.4 2.5-1.4.8 0 1.4-.5 1.4-1 0-.6-.6-1-1.2-1-.7 0 .6-.9 2.8-2.1 2.3-1.1 6.3-4 8.9-6.5 4.4-4.1 6.1-5.1 13.8-8.3 2.6-1 2.9-.9 4.5 1.9 1.4 2.4 2.4 3 5.2 3 1.9 0 4.2-.5 5-1 1.3-.9 1.3-1.1 0-2-.8-.6-2.7-1.3-4.2-1.6-1.5-.4-2.5-1-2.3-1.5 1.3-2-26.1-2.4-35.2-.4-2 .4-3.3.3-3.3-.3 0-.5 1.5-1.3 3.3-1.7l3.2-.7-3-.9c-2-.6-3.8-.4-5.9.6-1.7.9-5.7 1.5-9.8 1.5-6.3 0-6.8-.2-6.8-2.2 0-1.2-.7-2.9-1.5-3.8-1.3-1.5-.8-1.9 5.4-4.8 6.1-2.8 8.4-3.3 20.7-4.2 7.7-.5 18.9-1 24.9-1 8.3 0 11.6-.4 13.3-1.5 1.8-1.3 2-1.9 1-3.5-1.5-2.4-.9-3 3.9-4.1 2.1-.4 5.2-1.1 6.8-1.5l3-.7-2.5 2.6c-1.8 2-3.5 2.7-6.3 2.7-2.6 0-3.7.4-3.5 1.2.5 1.4 11.1 1.2 11.6-.3.7-1.8 4.2-.9 4.2 1.1 0 1.3.7 2 1.9 2 3.1 0 7.1-1.8 7.1-3.2 0-.7 2.6-4 5.8-7.4 3.1-3.3 7.5-8.1 9.7-10.7s4.9-4.7 6-4.7c1.8 0 1.8-.1-.3-1.6-4.1-2.8-25.2-5.4-29.1-3.4-3.9 1.9-6.8 2.9-9.1 3.2s-2.5.7-2.5 5c0 5.5-.5 6.1-3.8 5.3-1.8-.5-2.3-1.2-2-2.6.3-1 1.1-1.9 1.9-1.9 2.4 0 2.3-1.6-.2-1.8-1.3-.1-4-.9-6-1.7s-4.7-1.5-6-1.5c-2.3 0-4.9-3.1-3.7-4.3.3-.4-4.4-.6-10.4-.5-9.7.1-11.5-.1-14.7-2-3.3-2-5.2-2.2-16.8-2.2-7.2 0-12.9-.3-12.5-.6.3-.3 5.7-.7 11.9-.9 10.3-.2 25.1-1.7 30.5-3 1.2-.3 2.5-1.5 2.8-2.8 1.1-3.8 3-7.7 3.6-7.7.9 0 2.7-4.9 3.1-8 .2-1.4.9-2.5 1.8-2.5.8 0 1.8-.4 2.1-.9.4-.4 1.5-.3 2.6.3 1.1.5 2.3.7 2.7.4.3-.3.6.1.6 1 0 1-.3 1.7-.8 1.7-.4 0-.6 1.7-.4 3.8.3 3.1.9 4 3.5 5.2 1.7.7 2.6 1.5 1.9 1.8-2.1.7-1.3 2 1.7 2.7 1.6.3 4.9.1 7.3-.6 2.3-.7 7.9-1.3 12.3-1.4 4.8-.2 8.1-.7 8.3-1.4.2-.6 1.2-1.1 2.2-1.1s2.2-.5 2.5-1c.3-.6 3.9-1 7.9-1 6.5 0 7.4-.2 7.9-2 1-3.9-.3-6-3.9-6-1.8 0-3.6-.5-3.9-1-.4-.6 1-1 3.4-1 2.3 0 4.1-.2 4.1-.4s-.7-1.6-1.4-3.2c-.8-1.5-1.3-3.1-1-3.6.3-.4.3-1.7-.1-2.7-.4-1.5-2.5-2.3-8.3-3.6-4.2-.9-9.1-2.1-10.8-2.6s-4.6-.9-6.5-1c-2.9 0-3.1-.2-1.4-1 1.5-.7.9-.8-2.2-.4-2.4.3-4.3.1-4.3-.4 0-1.5-4.4-1.7-5.6-.3-1.3 1.8-9.9 2.8-10.8 1.3-.4-.6 0-1.1 1.1-1.1 1.4 0 1.5-.2.4-.9s-1-1 .5-1.4c1.2-.3.8-.5-1.1-.6-1.6 0-3.7.4-4.5.9s-1.1 1-.7 1c.5 0 .5.6.1 1.2-.6.9-1 .5-1.4-1.2-.5-2.2-1.4-2.6-8.5-3.9-10.5-1.8-7.3-3.1 5-2 13.4 1.1 13 1.2 13.3-1.4.3-2.9-.6-6.7-1.6-6.6-.4.1-2.2-.4-4-1.1-2.1-.8-3.1-1.7-2.8-2.6.3-.8.1-1.5-.4-1.5-1.7-.2-2.3-.5-7-2.7l-4.5-2.1 4.5.5c2.5.3 5 .7 5.7.9 1.6.5 2.9-1.4 4.2-6.3.7-2.3 1.6-4.2 2.1-4.2.6 0 1-.5 1-1.1 0-1.5-6.4-3.9-10.5-3.9-2 0-5.5-1-7.8-2.2s-4.5-2.1-4.9-2c-.5.1-.8-.2-.8-.8s.7-1 1.5-1 1.5.5 1.5 1.1c0 .8.4.8 1.4 0 .8-.6 1.8-1.1 2.2-1 .5.1 2.2.1 3.9 0l2.9-.1-2.2-1.6c-2.2-1.5-2.2-1.7-.5-3 2.4-1.8 3.3-1.7 3.3.4 0 1 1.2 2.3 2.8 2.9l2.7 1.1-2.5.1-2.4.1 2.3 1.6c4.7 3.3 18.7 5.8 17.8 3.1-1.1-3.5 5.2-14.3 9.5-16 .8-.3.6-.6-.5-.6-2.7-.1-1.7-3.9 1.5-5.9 2.6-1.5 2.9-1.5 4.5.1 1.5 1.5 1.6 1.7.1 1.7-.9 0-1.9.7-2.2 1.6-.8 2.1 4.6 7.4 7.5 7.4 1.9 0 4.9 2.1 4.9 3.4 0 1.1-3.5.6-6.3-.9-1.6-.8-4-1.4-5.4-1.3-2 .2-2.4.7-2 2.5.2 1.3 0 2.3-.4 2.3-.5 0-.9 1.1-.9 2.4 0 3.4-1 5.7-2.2 5-.6-.4-.9-.1-.6.6.5 1.5 2.2 2 8.8 2.7 4.1.4 4.7.2 6-2.1 1.4-2.7 3.4-3.4 4.5-1.6.3.5.1 1.9-.6 3.1-1.3 2.5-.2 3.6 4.3 4.5 3 .7 2.8 2.4-.3 2.4-1 0-1.9.4-1.9 1 0 .5.4 1 .9 1s1.6.6 2.3 1.4c1.6 1.6 11.5 4.6 15 4.6 2.2-.1 2.1-.2-.7-1.7-1.6-.9-3.2-1.9-3.5-2.2-.3-.4-2.2-1.5-4.2-2.4-7-3.3-3.6-4.3 7-2.1 1.6.3 2.1.1 1.7-.7-.6-.8.4-.9 3.4-.4 4 .7 4.1.6 3.2-1.7-1-2.9-6-3.8-7.4-1.3-.8 1.5-1 1.5-2.8-.1-3.6-3.2-2.4-4.5 3.4-3.8 2.8.4 5.7 1.1 6.4 1.6 1.6 1.3 3.4.1 2.6-1.7-.3-1 .1-1.5 1.5-1.5 1.2 0 2.4-.5 2.8-1.1.4-.8.9-.7 1.5.2.6 1 .9 1.1.9.1 0-2-4.1-5.5-6.6-5.5-1.7 0-2.4-.5-2.4-1.8 0-1.1-.4-1.9-1-1.9-.5 0-2.7-1.6-4.7-3.5-3.2-3-8.4-5.5-11.7-5.5-.4 0-.6.9-.3 2s.1 2-.5 2c-.5 0-.6.4-.3 1 .8 1.2-.5 1.3-2.4.1-1-.7-1.1-1.3-.1-3 1.7-3.4-.9-6.5-7.5-9-3.1-1.2-6-2.1-6.6-2.1-.5 0-1.2-1.3-1.5-2.9-.5-2.5-1.2-3-5-3.6-2.4-.3-4.6-1-4.9-1.4-.5-.9-3.6-1.6-11.9-2.7-2.7-.3-7-1.9-9.5-3.4-2.5-1.6-7.7-3.9-11.6-5.2-6.4-2.1-6.7-2.3-3.7-2.6 1.8-.2 4 .2 4.9.9 1.9 1.6 14.3 2.2 16 .7.7-.6 1.1-1.4.8-1.8-.3-.5.3-.7 1.2-.6 1.1.2 1.9 1.3 2.1 3.1.4 3.4 2.1 5.2 5.6 6.1 1.4.3 2.9 1 3.2 1.5.7 1.2 5.2 1.1 5.6-.1.3-.9 2.3-1.4 7.6-1.9 1-.1 1.2-1 .7-3.1-.4-2-.3-3 .5-3 .9 0 1-1.1.5-3.6-.6-3.2-.4-3.6 1.1-3 1.4.5 1.5.4.5-.8-2.5-3-20.1-11.1-18.5-8.5.3.6-.2 1.6-1.2 2.4-2 1.4-3.8 1-2.8-.6.3-.5 0-.8-.7-.7-.6.2-1.4-.3-1.6-1-.3-.7.4-1.2 1.9-1.2 2.3-.1 2.3-.1-.5-2.6l-2.9-2.5 2.9.5c2.2.4 3.3-.1 5.3-2.4 3.5-4.1 4.3-3.7 3.8 1.5m-203.1 42.7c.3.9 1.5 1.9 2.7 2.1 1.1.3.1.4-2.4.3-3.3-.1-4.5.3-4.8 1.5-.2 1.3.9 1.8 5.6 2.3 7.2.8 8.9 2 9.9 7 1 4.8-2.3 16.4-4.7 16.4-1.8.1-6.5.7-14.3 2.1-7.2 1.3-12.4-.7-13.4-5.2-.3-1.5-.9-2.7-1.4-2.7-1.2 0-2.9-7.1-2.3-9.7.3-1.2 1.4-2.5 2.4-2.8s2.8-2.2 3.9-4.1c1.6-2.8 1.8-3.8.9-5.3s-.7-2.2 1-3.9c4-4 15.7-2.7 16.9 2m916.2 16.2c.6.7.8 2.6.5 4.4-.8 4.2 1.4 8.9 4.8 10.1 2.5.9 2.8 1.5 2.8 5.6 0 5.2-.9 7.2-5.6 13.1-1.9 2.2-3.1 4.4-2.6 4.8.9 1-2.7 3-5.8 3.2-1.4.1-5.1.5-8.2.9-4.2.6-6.2.4-7.3-.5-1.4-1.1-1.2-1.5 1.7-2.9l3.2-1.5-3.2-1c-1.8-.5-3.3-1.3-3.3-1.7-.1-.5-.2-1.5-.3-2.1 0-.7-1-1.4-2.1-1.7-2-.3-5.5-3.7-5.5-5.2 0-.5 1-1.8 2.3-2.9 2.1-2.1 2.1-2.2.4-3.5-1.8-1.3-1.8-1.4.2-2.4 1.1-.6 2.8-1.1 3.9-1.1 1 0 3.2-1.1 4.8-2.5s3.2-2.5 3.7-2.5c.4 0 .7-.7.7-1.5 0-.9.6-1.2 1.8-.8 1 .3.6-.2-.8-1.3-1.4-1-3.5-1.7-4.6-1.6-3.6.5-3.9-1.8-.4-2.5 2.2-.4 2.7-.8 1.9-1.4-1.1-.6-1-.9.1-1.3 5.3-1.8 15.5-2 16.9-.2M194 297.9c3 1 9.6 2.4 14.5 3 12.7 1.8 13.5 2 13.5 3.5 0 .8.6 1.6 1.3 1.9 2 .7-.9 3.4-4.5 4.1-3.9.8-2.7 2.4 2.4 3.2 2.4.4 3.9.1 5.1-1 1.5-1.6 1.7-1.4 3.1 1.9.8 1.9 1.9 3.5 2.4 3.5s2 .9 3.3 2.1c1.9 1.7 2.1 2.2.9 2.9-.8.5-2.4.7-3.5.5s-5-.7-8.7-1c-7-.7-7.9-1.3-5.3-3.5s-.2-3-10.8-3H198l-.6 3c-.6 2.9-2.5 4-8.9 5.3-7.1 1.3 35.9 2.8 44.7 1.4 2.8-.4 5-.3 5.3.3s1.4 1 2.4 1c2.4 0 8.1 2.9 8.1 4.1 0 .5.6.9 1.4.9 1.5 0 1.1 4.6-.5 5.6-.5.3-.9 1.8-.9 3.3 0 2.5-.5 3-4.4 4-5.8 1.4-8.3 1.4-8.8-.1-.3-.7-2.9-1.7-5.9-2.3-6.6-1.3-7.9-3.9-2.5-4.9 1.9-.4 5.9-1.8 8.8-3.1l5.3-2.4-6.5-.1c-5.7-.1-6.2-.3-4-1.2 2.5-1.1 2.5-1.1.3-1.5-1.3-.3-2.3-.8-2.3-1.3s-.6-.8-1.2-.5c-2.4.7-57.8 1.5-63.4.9-8.7-1.1-5-2.4 8.7-3.2 13.5-.7 13.1-.9-6.6-3-6.7-.7-7-.8-7.3-3.5-.2-1.6.4-3.9 1.2-5.2.9-1.3 1.6-3.1 1.6-4s1-1.5 2.8-1.6q2.7-.15.9-.6c-1.8-.5-1.8-.5 0-1.9 2.5-1.9 4.3-1.7 4.3.5 0 1.2 1 2.1 2.7 2.6 2.7.6 2.7.7.8 1.8-2.4 1.4-2.2 4.7.3 4.8 1.4 0 1.3.2-.3.9-1.4.6-.2.9 4.1.9 6.3.1 7.9-.7 8.6-4.3.2-1.6-.6-2.2-4.2-3.2-4.3-1.1-4.3-1.2-1.2-1.3 2.9-.1 3.2-.4 3.2-3 0-1.6-.4-4.1-.9-5.4-.6-1.4-.7-2.8-.4-3.1 1.1-1.1 5.7-.6 11.3 1.3M611 325c0 1.5 4.4 5.4 12 10.5 3.6 2.4 8.3 6 10.5 7.9 4.9 4.5 5.5 3.6 4.7-7.9-.2-4.4-.2-7.8.1-7.5.5.5 1.6 10.2 1.6 15.9l.1 3.3 2.6-1.7 2.5-1.6-1.6 2.5c-1 1.4-1.3 2.7-.9 2.7.5.1 2.2.3 3.8.5 5 .5 4.3 1.6-.9 1.3l-5-.3.1 6.9c0 3.9.2 7.9.2 9 .1 1.1-.1 5-.4 8.7-.5 4.8-.3 6.8.5 6.8.9 0 .9.5 0 2.2-1.2 2.3-.9 24.2.5 25.5.4.4 1.8-.6 3.1-2.2 1.8-2.1 2.3-2.4 1.8-1-.3 1.1-1.2 2.8-1.9 3.9-1.1 1.5-1 2.1.2 3.4 1.2 1.1 1.3 1.7.3 2.3-.9.5-.7 1.6.9 4.4 3.2 5.3 2.7 6.5-.9 2.2l-3.1-3.7-1.8 2.2-1.9 2.3-.1-2.3c0-2.5-1.5-2.9-3.6-.7-2.2 2.2-3.6 1.8-2.2-.5.7-1.1 1.5-2 1.8-2 1.3 0 .7-7.5-.7-9.7-.9-1.4-1.1-2.3-.4-2.3.6 0 1.8 1.2 2.8 2.6 1.5 2.4 1.7 2.5 2.4.8.4-1.1.8-6.8.8-12.7.1-10-.1-10.9-1.9-11.4-1-.3-2.2-1.4-2.5-2.4-.4-1-1.1-1.9-1.6-1.9s-.9-.5-.9-1.1 1.3-.1 2.9 1c2.5 1.8 3 1.9 3.5.5 1.1-2.8.6-8.1-.7-9.3-.8-.6-1.6-.9-1.8-.7s-1.5-.8-2.9-2.1l-2.5-2.4 3.3 1.8c4.3 2.4 5.2 1 5.2-8.4 0-9.2-.5-10.3-4.4-10.3-2.3 0-2.7-.3-1.6-.9.8-.6 1.8-.7 2.2-.5.4.3.8.1.8-.5 0-1.1-6.8-6.7-18.9-15.5-7.2-5.2-10-8.6-7.1-8.6.6 0 1 .5 1 1m-348.1 25.2c1.7 2.3 3.1 4.7 3.1 5.4 0 1.3-4.7 2.5-9.3 2.5-1.7 0-2.5.4-2.1 1.1.4.6 2.3.8 4.7.5 6.1-.8 8.7.6 8.7 4.7 0 2.9-.4 3.6-3.2 4.6l-3.3 1.2 2.5 1c2.3 1 2.2 1.2-2.7 2-2.9.5-5.3 1.4-5.3 1.9s-1.5.9-3.4.9-3.8.4-4.1 1c-.3.5-3.9 1-7.9 1-4.1 0-9.2.7-11.5 1.5s-5.4 1.6-6.9 1.8c-1.5.3-2.6.9-2.5 1.5.1.5-.6.8-1.7.5-1.5-.4-1.8-.1-1.3 1.8s.3 2.1-1.5 1.7c-1.2-.3-2.2-.2-2.4.4-.2.5-3 1.6-6.3 2.3-9 2-13.5 3.5-13.5 4.4 0 1.2 5.4 2.4 5.8 1.3.1-.5 1.3-.7 2.5-.5 1.2.3 5.3 0 9-.5 7.1-.9 10.4.1 3.9 1.2-2 .3-6.4 1.1-9.7 1.6-3.3.6-9.7 1-14.1 1-7.9 0-8.2.1-8.8 2.5-.4 1.4-1.3 2.5-2 2.5-.8 0-1.6.7-1.9 1.4-.8 2.1 2.6 2.9 9 2.1 3.6-.4 5.3-.3 4.9.3-.3.6-2.9 1.3-5.6 1.7-3.1.4-5 1.2-5 2 0 .7-1 1.9-2.2 2.7-2.9 1.9-11.5 3.1-12.3 1.8-.3-.6-1.5-1-2.5-1-2.7 0-4-2.8-2.8-6.2.6-1.5 1.4-2.8 1.9-2.8s.9-.9.9-2c0-2.7 2.5-8.7 4.4-10.5 2.2-2.2 3.1-10.2 1.6-14.3-1-2.8-1-3.6.1-4.4 1.2-.8 1.2-1 0-1.5-.8-.3-2.7-1.8-4.4-3.4-2.9-2.8-2.9-2.9-1.3-5.4 1.5-2.3 2.1-2.5 5.4-1.8 2 .4 13.3.8 25 .7 11.7 0 20.7.3 20.1.7-2.3 1.4 2.5 1.5 10.9.3 9-1.4 11.6-2.7 10.7-5.5-.4-1.2.1-1.9 1.5-2.4 1.2-.4 2.6-1.8 3.2-3.1.9-1.8 1.9-2.4 4.5-2.4 2.2 0 3.3-.5 3.3-1.4 0-1.8 1.5-2.4 6.7-2.5 3.7-.1 4.4.3 7.2 4.1m837.9 20.4c1.9.3 3.2 1.1 3.2 1.9s.7 1.5 1.6 1.5c.8 0 1.2.5.9 1-.4.6.9 1.7 2.7 2.5 3.3 1.4 3.2 1.4-4.2 1.5-5.3 0-8.2.5-9.9 1.6-1.8 1.3-2.8 1.4-4.7.6-1.3-.6-6.5-1.5-11.6-1.9l-9.3-.7 5.8-1.1c3.2-.5 5.6-1.3 5.2-1.7-.3-.3.9-.9 2.7-1.3 6.6-1.5 8.1-2.4 6.8-4.1-1.4-1.5-.6-1.5 10.8.2m-817.9 3.5c-.8.5-2.4.9-3.6.9-1.4 0-2.3.6-2.3 1.5s-.7 1.5-1.6 1.3c-1-.2-1.9.3-2.2 1.1-.3.9 0 1.1.7.7s1.8-.2 2.7.4c1 .9 4.8 1.1 14.4.5 12.2-.6 13-.6 12.3 1.1-.5 1.3-.3 1.5.7.9.9-.5 1.1-.4.6.4-.4.6-1.2.9-1.7.6-1.2-.8-24.4-.9-28.6-.2-1.8.3-4.5.2-6-.3-1.6-.5-2-.9-1-.9.9-.1 1.7-.7 1.7-1.5s.6-1.6 1.2-1.8c.8-.3.4-.9-1-1.7-3.7-1.9-2.7-3.9 2.1-4.3 6.6-.5 13.2.3 11.6 1.3m855.6 1.2c0 .1 1 2 2.2 4.2 1.6 3.2 2 5.2 1.6 9.7l-.5 5.7-4.7.8c-2.5.4-8.4.7-13.1.7-6.8-.1-9.3-.5-12.5-2.3-13.4-7.3-13.5-8.1-.8-8.1h9.9l1.2-4.5c.8-3.2 1.7-4.5 2.9-4.5 1.5 0 1.5-.2.4-.9s-.9-1 1-1.4c2-.4 12.3.1 12.4.6m-465 29.4c1-.8 2.5-1.3 3.1-1 .7.2 1.5 0 1.9-.6.7-1.3 2.5-1.5 2.5-.3 0 .4-1.5 1.5-3.3 2.5-4.3 2.3-6 6.4-5.2 12.4.9 7.1 2.6 12.3 4.2 12.3 1.5 0 1.9 7.5.4 8.5-1.3.8-2.1-.9-2.7-5.5-.6-4.7-4.4-14.1-5.1-12.3-.2.7-1 1-1.7.7-.8-.3-1.9 1-2.8 3.3l-1.6 3.8-.1-7.3c-.1-4.2-.5-7.2-1.1-7.2-1.7 0 .7-3.8 2.8-4.4 1-.3 2.7-2.7 3.7-5.4l2-4.7.5 3.3c.5 3.1.6 3.2 2.5 1.9m355.5 9c10.8 2.2 11.3 3.6 1 3.1-6.8-.2-8.5 0-8.5 1.1 0 .8 1.4 1.9 3 2.4 1.7.5 3.7 1.5 4.5 2.2.8.6 5.2 2.7 9.8 4.5 4.5 1.8 8.1 3.5 7.8 3.8-.7.6-14.6-4-14.6-4.9 0-.4-1.5-1.1-3.2-1.5-3.2-.6-9.4-3.2-15-6-1.4-.8-3.3-1.4-4.1-1.4s-1.7-1.1-1.9-2.5c-.5-2.5-.5-2.5 6.6-2.4 3.9.1 10.5.8 14.6 1.6M182.9 423c3 0-2.1 3.9-6 4.5-5.3.9-5.3 3.5 0 3.5 5.2 0 5.8 1.3 1.6 3.6-1.8 1-3.6 2.8-3.9 4-.7 2.8-3.9 4.8-9.8 6.2-8.4 2.1-8.5 2.1-7.8-5.1.9-7.7 1.8-10.9 3.2-10.1.6.4 1.3.3 1.7-.2.7-1 5.6-3 11.4-4.7 2-.6 3.7-1.5 3.7-2s1-.7 2.3-.3c1.2.3 2.8.6 3.6.6m54.1 3.4c0 1.9-.7 2.6-3.1 3.1-3.7.8-8.6 5.5-9.5 9-.3 1.4-1 2.5-1.5 2.5s-1.3 1-1.8 2.3c-1.1 2.7-6.6 4.7-13.4 4.7-2.4 0-5.8.7-7.3 1.5-1.6.8-4.5 1.5-6.4 1.5-1.9.1-5.3.7-7.4 1.5-5.5 1.9-6.6.7-2-2.1 6.5-3.9 10.6-5.6 16.4-6.8 5.2-1.1 5.5-1.4 5.5-4.1 0-3.3 2-7.5 3.5-7.5.6 0 3.9-1.4 7.4-3 4.3-2.1 7.3-2.9 8.9-2.5 1.3.4 3.9 0 5.8-.9 4.6-2 4.9-1.9 4.9.8m21.4 50.8c.9.9 1 2.4.4 5.7-.6 3.1-.5 4.7.3 5.2 1.7 1 .2 7.6-2.2 10-1.2 1.2-1.8 2.7-1.4 3.9s0 2-1.2 2.3c-1 .3.1.5 2.5.6 4.3.1 4.4.1 3.7 3.1-.4 1.7-.2 3.6.3 4.3.6.8.4 1.8-.7 2.9-1.6 1.7-2 1.5-7.1-3.2-3-2.8-6.2-5-7.2-5-2.1 0-11 5.3-27.7 16.4-6.3 4.1-13.5 8.3-16 9.3-2.5.9-4.8 1.9-5.1 2.2-.3.4-1.4.8-2.5.9-1.1.2-3.9 1.2-6.2 2.3-4.7 2.1-5.3 2.3-5.3 1.1 0-.5 1.1-1.5 2.5-2.2 1.4-.8 2.4-1.9 2.1-2.6-.3-.8.1-1.1.9-.7 1.2.4 1.4-.1.9-2.7-.9-4.4 1-7.4 6.4-9.9 5.5-2.4 13.3-9.2 11.4-9.9-1.6-.5-.5-2.2 1.4-2.2.8 0 2.3-.8 3.3-1.8 4.8-4.3 6.8-5.5 8.1-4.7.7.4.7 1.3 0 2.6-.9 1.5-.7 1.9.5 1.9 2.9 0 1.6 1.9-3.5 5-.8.5-1.1 1.2-.7 1.6.9 1 5.7-1.7 11.7-6.5 2.4-2 4.1-2.9 3.6-2.1-.4.8 0 .6.8-.4.9-1.1 1.6-2.5 1.6-3 0-.6-.5-.4-1 .4-.7 1.1-1 1.1-1 .2 0-1-.5-1-2.2.2-2.8 2-3.9 2-3.2.1.4-.8 1.2-1.5 1.9-1.5s1.8-.7 2.5-1.5c1.5-1.8.6-1.9-2.3-.3-2.6 1.5-7.5 1.8-9.9.6-1-.5-1.9-.4-2.3.3-.4.6-1.8.8-3 .5-1.3-.3-2.7-.2-3 .4-.7 1.2-2.5 1.3-2.5.2 0-1.6 13.8-8 21-9.7 9.7-2.2 12-3.5 19.9-10.9 2.1-2 5.7-4.1 7.9-4.5.2-.1.9.4 1.6 1.1m732.1 43.3c1.7.5 7.7.9 13.5.9 9.7.1 10.9.4 15.3 3 2.7 1.6 5.1 3.6 5.5 4.5.3.8 1.9 2.6 3.4 4 1.6 1.3 2.7 2.6 2.4 2.9s-1.1 0-1.8-.5c-1.8-1.5-13.7-4.7-14.5-3.9-.3.3.1.6 1 .6 1 0 1.7.4 1.7.8 0 1 6.5 3.8 9.4 4.1 2.2.2 10.6 8.2 10.5 10q0 1.65-.6.3c-.4-1-1-1-2.9.3-2.2 1.4-3.8 1.5-12.1.5-5.3-.6-10.6-1.6-11.8-2.3-8.3-4.6-10.5-5.5-14.3-6-5.8-.7-7.2-2.1-7.2-7.2 0-2.9-.6-4.7-2-6-2.3-2.1-2.6-4.5-.5-4.5.9 0 1.2-.6.9-1.5-.4-.8-1.2-1.5-2-1.5s-1.4-.5-1.4-1.1c0-.7.8-.6 2.3.3 1.2.8 3.6 1.9 5.2 2.3m-546.3 33.7c-2.1 2.6-1.8 9.8.3 9.8 2.2 0 1.8 2-.8 4-1.3 1-3.6 3.7-5.1 5.9-2.2 3.1-2.6 4.3-1.7 5.8.6 1 1.1 1.4 1.1 1 0-.5.5-.5 1.1-.1.8.4.7.9-.2 1.5-1 .6-1.1.9-.1.9.6 0 1.2.6 1.2 1.3s.9 2 2 3c1.1.9 2 2.3 2 3.1 0 1.7-2.1.8-7.5-3-1.7-1.2-4-2.5-5.2-2.8-1.4-.4-2.3-1.5-2.3-2.7 0-1-.5-1.8-1.2-1.6-2.5.5-1.9-3.5 1-6.1 1.6-1.5 3.2-3.4 3.5-4.2.4-.8.4.5.1 3-.6 4.2-.6 4.4 1.2 3 3.4-2.6 5.2-4.6 6.8-7.8 2.1-4.1 2-4.5-.7-3.8-1.9.4-2.5 0-3.4-2.5-1.1-2.8-1-3 2.7-4.9 2.1-1.1 4.1-2.4 4.5-3 .3-.5.9-1 1.2-1s.1.6-.5 1.2m537.2 3.4c3 .6 5.8 3 6.9 5.7.7 1.8-2 10.7-3.2 10.7-.5 0-2.3-1-4.2-2.3-4-2.6-8.4-10.7-7.4-13.6.6-2 .9-2 7.9-.5m-99.6 51.1c3.5 3.8 7 8 7.8 9.5.7 1.4 2.6 3.6 4.1 4.8 4.5 3.4 24.1 23 28.6 28.5 3.8 4.6 3.8 4.8.7 2-1.8-1.7-4.9-4.8-6.9-7-7.9-8.9-19.3-19-24.1-21.5-3.8-1.9-17.2-13.8-20-17.7-2-2.9-2.2-3.6-1-4.3 2.8-1.8 4.5-.9 10.8 5.7m122.7 17.2c.3 1.1 1.2 2.2 2 2.5s1.5 1.1 1.5 1.8 2.3 3.3 5.1 5.8c7.8 6.9 7.9 7 7.9 9.6 0 1.3-.2 2.4-.4 2.4-.3 0-4.6-.9-9.8-2.1-10.1-2.2-17-4.7-16.3-5.9.3-.5-.3-1.1-1.2-1.4-1.4-.6-1.4-.9.5-2.6 1.1-1.1 3.2-2.2 4.6-2.6 3.9-.9 4.2-2.5 1.3-4.9-3.7-2.9-3.4-4.5.7-4.5 2.5 0 3.6.5 4.1 1.9m-798.8 2.5c-.3.8-.9 3-1.2 5l-.7 3.5 3.8-.6c2.2-.3 4.7-1 5.7-1.5 3.3-1.7 3.1.1-.5 3.4-2.9 2.8-11 7.3-19.3 10.8-4 1.8-10 2.1-13.2.8l-3.1-1.3 5.9-6.5c3.2-3.6 5.9-6.8 5.9-7.1 0-1.3 7.4-6.2 10.4-7 5.1-1.2 6.9-1 6.3.5m1030.4 54.7c1 1.2 1.9 3.3 1.9 4.6 0 2.2-.3 2.3-6.4 2.3-3.6 0-6.7.4-7 .8-.3.5.2 1.8 1 3 1.7 2.4 7.2 3 9.2 1 .6-.6 1.5-.8 1.9-.4 1.2 1.2-3.6 4.6-6.6 4.6-3.5 0-6.5-2.2-8.1-5.9-1.6-3.9-.8-7.1 2.7-10.5 2.3-2.3 3.4-2.7 6.1-2.2 1.9.3 4.2 1.5 5.3 2.7m19.9-1.6c3.6 1.9 5 4.3 5 8.9 0 2.8-.7 4-3.3 6-4.5 3.4-8.1 3.3-11.8-.3-4.6-4.7-3.8-11.5 1.9-14.5 3.5-1.9 4.6-1.9 8.2-.1"/><path d="M824 159c0 .5-.5 1-1.1 1-1.9 0-11.6 10.7-15.5 17.2-2.1 3.4-4 5.6-4.2 5-.5-1.7-2.2-1.5-2.2.2 0 .8-.7 1.6-1.5 2-2.4.9-1.8 3.2 1.6 6 2.8 2.4 6.7 3.6 5.5 1.8-.8-1.4 1.9-3.9 5.2-4.6 1.7-.4 4-1.8 5.1-3.2 1-1.3 2.3-2.4 2.7-2.4s.3.5-.4 1.2c-2.3 2.3-1.2 2.9 1.7.9 1.5-1.1 3.1-1.8 3.5-1.4.3.3.6 0 .6-.7s.3-1 .7-.6-1.1 2.3-3.2 4.2c-2.2 2-3.3 3.3-2.5 2.8 1.8-.8-4.4 5-7.3 6.9-1.2.8-1.8 2-1.5 3.2.3 1.6 2.6-.2 12.1-9.6 11.3-11.2 15.5-17 8.3-11.5-1.9 1.4-3.7 2.6-4 2.6-1.2 0-.6-1.7 1.3-3.9 1.1-1.3 1.7-2.9 1.4-3.7s.1-1.4.8-1.4c1 0 .9-.4-.2-1.6-1.5-1.4-2-1.4-5.3 0-4.4 1.8-4.5 1.1-.5-3.2 2.4-2.5 2.9-3.9 2.5-5.7-.6-2.4-3.6-3.6-3.6-1.5M837.5 178.2c-4 2.3-17.5 17.5-17.5 19.6 0 .6-.9 1.3-1.9 1.7-2.4.7-2.3 4.4.2 6.9.9 1 1.7 2.1 1.7 2.6s.9 1.1 2 1.5c1.1.3 2.7 2.2 3.6 4.1s2.1 3.4 2.6 3.4c1.1 0 6.7-3.7 8.3-5.4.6-.6 3.7-2.9 7-5 8.3-5.4 14.5-10.6 14.5-12.1 0-.7-1.5-2.5-3.2-4-7.2-5.8-6.8-5.6-6.8-4.1 0 .8-1.5 1.6-3.6 1.9-2.4.4-5.2 2.1-8.5 5.2-4.4 4.1-6.9 5.5-6.9 3.9 0-.4 1.2-1.8 2.8-3.1 1.5-1.4 5.5-5.2 9-8.5l6.3-6.1-2.8-1.8c-3.2-2.2-4.1-2.3-6.8-.7M785.6 187.6c-.3.8-1 1.3-1.5 1-.4-.3-1.6.3-2.5 1.3-1.4 1.6-1.5 2.6-.6 6.6.6 2.7.8 5.5.5 6.4-.4 1.2-.2 1.1.9-.2 1.3-1.7 1.4-1.5 1.4 1.5-.1 6.5.2 10.1.9 9.5.3-.4 1.2-.2 1.9.4 1.1.9 1 1.6-.6 3.6-2.7 3.4-2.5 4.4.5 3.3 2.3-.9 2.5-.8 1.5 1-.6 1-1.8 2.3-2.8 2.9-.9.5-1.5 1.2-1.2 1.5.3.2 3.4-2.2 6.8-5.5 3.5-3.2 6.7-5.9 7.1-5.9.5 0 1.6-1.1 2.5-2.5 1.4-2.1 1.4-2.4.1-1.9-.8.4-1.5 1-1.5 1.5s-1.1.7-2.4.3c-1.4-.3-2.7-.1-3.1.6-.5.9-.1 1 1.4.5 1.3-.4 2.1-.2 2.1.6s-1 .9-3.1.5c-1.7-.3-3.9-.6-4.8-.6-1-.1-.4-.7 1.4-1.7 1.7-1 3.6-1.6 4.3-1.5.7.2 3.2-1.6 5.7-3.9l4.4-4.2-4.2-4.8c-4.8-5.5-8.2-6.3-11.9-2.7-6.5 6.4-7.8 5.7-2.4-1.3 2.7-3.3 3.2-4.7 2.5-6.1-1.2-2.2-2.5-2.3-3.3-.2M827 294.1c-.8.5-2.6.9-3.8.9-4.4 0-8.9 2.9-9.6 6.1-.3 1.6-1.4 3.2-2.3 3.6-4 1.4-4.4 2.4-2 4.9 2.5 2.7 3.7 3 3.7 1 0-1.6 3.7-2.8 4.6-1.5 1.6 2.7 15.4-1 15.4-4.1 0-2.2-2-8-3.5-10.2-.7-1.1-1.5-1.4-2.5-.7M888.5 294c-1.1.5-3.5.6-5.2.3-4.2-.7-7.4.4-5.3 1.7 2.5 1.6.1 2.4-7.8 2.7-8.8.3-10.6.7-21.9 4.8-7 2.5-8.3 3.3-8.3 5.2 0 2.9 3 9.1 4.7 9.7 1.6.7 5.9-.9 7.8-2.8.8-.7 3.7-1.4 6.5-1.5 2.8 0 5.6-.3 6.1-.7.6-.3 2-.7 3.2-.9s4-.7 6.3-1.1c4.7-.7 9.7 1.1 7.3 2.7-1 .6-.6.9 1.3.9 2.1 0 3.1-.8 4.3-3.1 1.6-3 1.7-3 7-2.4 4.7.6 5.6.5 6.1-1 1.4-3.4-.9-5-6.7-4.7-3.7.2-4.9 0-4-.7.8-.5 1.9-.7 2.6-.5.6.3 2.1-.3 3.3-1.3 1.5-1.3 1.9-2.6 1.5-4.9-.4-2.6-.9-3-3.6-3.1-1.8-.1-4.1.2-5.2.7M897 315.2c-1.3.5-4.7 1.1-7.5 1.3-13.9 1.1-34 4.8-37.4 6.9-.6.4-1.1.2-1.1-.3 0-1.5-3.7-1.4-4.6.1-.4.6-.3.8.3.5.7-.5 1.1 1.6 1.1 6.1 0 8.9 1.2 11.8 5.3 12.7 1.7.4 3.4.3 3.8-.1.3-.5 2.2-1 4.1-1.1 1.9-.2 5.8-.6 8.6-.9 3-.4 5.4-.2 5.8.4.3.5-1.9 1.2-5.4 1.6-5.8.7-6 .8-6 3.5 0 1.6-.7 3.1-1.5 3.5-.9.3-1.5 1.8-1.5 3.6 0 2.3.5 3 1.9 3 4.4 0 8.2 2.2 8.8 5.1.3 1.7 1 2.6 1.6 2.2s4.1-.9 7.7-1.2 6.4-.9 6.2-1.4c-.2-.7.6-1.8 3.7-5.3 1.8-2 5.8-1 8.3 2.2 1.2 1.4 3 2.4 4.5 2.4 2 0 2.3-.3 1.4-1.4-.8-1-.8-2.1-.1-4 .9-2.3.7-2.8-1.4-3.6-2.9-1.1-4-2.6-2.6-3.5 1.8-1.1 1-4.6-1.6-7-1.5-1.4-3-2.2-3.5-1.9s-1.2-.2-1.5-1c-.4-1-2-1.6-4.3-1.7-3-.1-2.8-.3 1.9-1 3-.5 6.4-1 7.6-1 1.8-.1 2.1-.8 2-4.5-.1-4.7-1.5-5.6-4.5-3.1-1 .9-3.1 1.2-5.9.9-3.8-.4-4.2-.6-3.6-2.6.9-2.7 2-3.4 7.2-4.2 4-.6 7.2-2.5 7.2-4.4 0-1.4-2.4-1.8-5-.8M1058.2 325.7c-.4.1-2.4.4-4.4.8-5.2.8-4.9 3.2.5 4.2 4.1.8 4.2 1 4.5 5.1l.3 4.2h7.2c9.6 0 14.7-.9 14.7-2.6 0-.8-.9-1.4-1.9-1.4-1.9 0-3.1-1.8-3.1-4.6 0-.8 1-1.4 2.5-1.4 1.4 0 2.5-.5 2.5-1 0-.6-1.5-1-3.3-1-1.7 0-4.8-.5-6.7-1.1-3.1-1-10.6-1.7-12.8-1.2M997.8 365.2c-4.9 2.1-6 4.2-3.6 6.6.7.7 2.1 1.3 3.3 1.3 1.6.1 1.7.2.3.6-2.2.6-2.3 2.9-.2 3.7 2.4.9 7.7.7 9.4-.4 1.3-.9 1.3-1 0-1-.8-.1.1-.9 2-1.9 1.9-1.1 4.4-2.9 5.5-4.2 1.1-1.2 1.5-1.9.9-1.6-.7.4-2.3-.5-3.7-1.9-3.4-3.4-8.1-3.8-13.9-1.2M910.5 390.8c.6 2.9.4 3.2-1.7 3.2-4.1 0-6.9-1.2-6.4-2.6.8-2.1-4.4-1.3-7.2 1.1-3.6 3.1-5.2 6.9-5.2 12.4 0 6.6 2.1 8.1 13.3 9.1 7.7.8 16.4 2.3 19.6 3.5 1.1.4 1.2.8.3 1.7-.7.7-1.2 1.7-1.2 2.4 0 2.6 5.7 3.3 23.5 3 15.2-.2 18.9 0 23.9 1.6 3.3 1 6.1 1.7 6.3 1.5.1-.2-.2-2.6-.8-5.3-1.3-5.6-1.4-10.4-.4-15.2.6-2.6.3-3.8-1.4-5.6-2.3-2.5-2.8-5-1.6-7.9.4-.9.3-1.7-.1-1.8-.5 0-1.8-.3-2.9-.6-2-.5-15.2-1.4-43.4-2.8l-15.3-.8zM908.1 441.8c3.1 1.5 7.5 4.4 9.8 6.5 4 3.6 8.9 6.3 9.8 5.3.9-.8-.8-2.6-2.3-2.6-.9 0-1.4-.6-1.1-1.3.5-1.5 4.4-1 7.4.9 3.1 1.9 4.2 1.7 1.8-.4-1.1-.9-2.8-3-3.8-4.5-2.6-4.1-7.8-5.9-18.2-6.2l-9-.4zM896 446.9c0 .6.4 1.1.9 1.1.4 0 3 1.7 5.7 3.7 7.1 5.5 11.5 7.9 18.4 10.2 3 1 3.7.9 4.8-.6 1-1.4.8-2.1-1.4-4.4-4.5-4.7-28.4-13.2-28.4-10M841.1 452.7c-1 .4-.8.9 1 1.9 1.3.7 1.8 1.3 1.1 1.4-.7 0-1 .4-.7 1 .9 1.5-1.3 4.8-3.7 5.6-1.2.3-2.9 1.3-3.7 2.1-1.3 1.3-1.2 1.7 1 3.4 1.3 1 2.7 1.9 3.2 1.9.4 0 2.8 1 5.3 2.1 5.5 2.6 6.9 1.8 7-4.5.1-2.4.4-4.8.8-5.5.5-.7-.4-1.3-2.4-1.7-2.2-.5-2.9-1.1-2.6-2.1.4-.8.6-1.7.6-1.9 0-.8 2.8-.4 3.2.4.2.5 2.1 1.2 4.3 1.5l4 .6-4.5-2.1c-2.5-1.1-5.7-2.6-7.2-3.4-2.7-1.5-4.3-1.6-6.7-.7M814.4 472.3c-2.1 1.1-5 2-6.4 2.1-2 .1-2.4.6-2.2 2.3.2 1.5-.2 2.3-1.1 2.3-.7 0-1.9 1.1-2.5 2.5-1.5 3.2-1.6 7.5-.2 7.5.6 0 1.7 1.5 2.6 3.3 1.4 3 3.3 4.3 8.6 6 1 .4 2 2.1 2.4 4.1.8 4.6 3.5 4.8 6.5.3 1.3-1.7 4-4.8 6.1-6.8s3.8-4.4 3.8-5.3.5-1.6 1.1-1.6c.7 0 1.8-.8 2.5-1.7.7-1 1.6-1.5 2-1.1.7.8-3.6 10.8-4.7 10.8-.9 0-2.9 5.8-2.9 8.4 0 2.9-7.6 9.9-10 9.3-2.5-.6-3.5 4.2-1.2 5.9 1.1.8 1.3 2 .8 4.4-.5 2.7-.2 3.8 1.6 5.7 3.3 3.5 10.8 3 10.8-.8 0-1.2.7-1.9 2-1.9 2.4 0 2.5 1.1.6 6.5-1.1 3.3-2 4.2-4.9 4.9-4.2 1.1-8.6.1-9.4-2.1-.8-2.1-4-5.3-5.2-5.3-.6 0-1.6-.9-2.4-2-1.1-1.7-1.9-1.9-3.9-1.1-1.3.5-3 1.6-3.7 2.5-1.2 1.4-1 1.6 1.2 1.6 3.9 0 3.7 2.1-.7 5.9-2.2 2-5.3 4.8-6.9 6.3-1.6 1.6-3.2 2.8-3.5 2.8-1.2-.1-5.9-4.6-7.1-6.9-1.3-2.4-3.1-2.8-3.1-.6 0 1.8-1.6 2-2.3.2q-.6-1.2-.6.3c-.1.8.8 2.8 1.9 4.5 3.1 4.7 2.3 5.2-1.8 1.2-4.4-4.3-6.5-4.6-8.7-1.3-2 3-1.2 4.7 4.7 10.2 2.4 2.2 5.3 6.1 6.5 8.7l2.3 4.7-2.5.6c-1.4.3-2.5 1-2.5 1.5s-1.5.9-3.4.7c-3-.2-3.7-.8-5.6-4.7-3.1-6.4-8.9-15.3-11.4-17.3-1.2-1-3-1.8-4.1-1.8-1.2 0-2.6-.5-3.2-1.1-.9-.9-1.6-.7-2.9.5-1.4 1.5-1.5 2.4-.5 7.4.7 3.1 1.8 10.6 2.5 16.7.8 6.2 1.8 11.1 2.5 11.3 1.4.5 1.5 4.9.1 5.7-.5.3-1 2.8-1 5.5 0 4.3.2 4.8 2 4.3 1.1-.3 3.1-.2 4.5.1 2.1.5 2.5 1.2 2.5 4.6 0 2.1-.5 5.1-1 6.6-.7 1.9-.7 3.7 0 6 1 2.9.9 3.6-.8 5.4-2.1 2.3-1.9 6.2.4 8.1.8.6 1.4.7 1.4.2s1.7-1 3.7-1.1c2.1-.2 4.7-1.1 5.8-2.1 1.1-1.1 3.5-2.2 5.3-2.6 1.9-.4 3.2-1.3 3.2-2.2s.6-1.3 1.4-1c.7.3 2.4-.5 3.7-1.7s4.1-3.2 6.1-4.4c2-1.3 4-3.2 4.3-4.3.4-1 1.5-2.4 2.6-2.9 2-1.1 2.6-4.5.9-5.5-.5-.3-1-1.8-1-3.3l.1-2.7 1.5 2.5c2.9 4.7 10.6 5.9 11.9 1.9.5-1.4 1.5-1.9 4.3-1.9 2 0 4.4.5 5.2 1 1.8 1.1 5-1.5 5-4.2 0-2.4-2.5-7.2-6-11.8-3.3-4.2-7.4-11-6.7-11 1 0 6.2 5.6 8.7 9.3 1.4 2 2.8 3.7 3.3 3.7.4 0 .7.4.7 1 0 .5.9 1.9 2.1 3.1 1.8 1.8 2.2 1.9 4.2.6 4.4-3 8.7-7.6 8.7-9.4S829.9 565 828.2 565c-.6 0-1.5-1.4-2.1-3.1-.9-2.7-.9-3 .8-2.4 1.1.3 2.1 0 2.4-.8.3-1 1.5-1.3 3.1-1 2.4.5 2.6.3 2.6-3.3 0-2.2-.7-4.8-1.5-5.8-3.2-4.3-.5-6.4 3.1-2.5 2 2.2 7.4 5.4 7.4 4.4 0-.3 1.5.5 3.3 1.9 3.9 3 4.9 3.2 4.1 1.1-.4-.8-1.2-1.5-2-1.5-2.1 0-1.7-1.4 1-3.7 1.5-1.4 2.8-1.8 3.7-1.2 4.7 2.9 3.6-1-1.6-6.1-6.2-6.1-6.2-9.8-.1-4.5 1.6 1.4 3.3 2.5 3.8 2.5.4 0 1.7.9 2.9 2.1 1.6 1.6 2.3 1.8 3.5.8.8-.6 1.4-2.2 1.4-3.4 0-3.5 2.9-9.5 4.9-10.3 1.8-.6 1.8-1 .5-4.7-1.9-5.4-1.8-5.5 1.6-5.5 3.2 0 9-4.8 9-7.4 0-.9 1.4-3.2 3.2-5.1 3.7-4.2 3.4-4.6-5.2-7.1-3-.9-8-2.8-11-4.4-3-1.5-8.4-3.7-12-4.9-3.6-1.3-8-3.1-9.8-4.1-1.7-1.1-3.8-1.7-4.6-1.4s-1.7-.2-2-1.3c-.4-1.1-2.1-2.7-3.9-3.6-1.7-1-5.2-3-7.7-4.5-6.3-3.9-8.1-4.2-12.6-1.9"/><path d="M773.1 503.4c-1.6 5.6-.3 10.7 3.8 14.7 1.7 1.6 3.1 3.7 3.1 4.7 0 2.7 5.8 11.2 8.5 12.4 2.3 1 3 .7 7.8-3.8 3-2.7 6.1-6.1 7-7.5l1.6-2.6-8.2-8c-7.4-7.3-17.7-14.3-21-14.3-.7 0-1.8 2-2.6 4.4M378.4 296.2c-.3.5-1.4.6-2.4.3s-2.5.1-3.4 1c-1.7 1.8-1.9 2.6-1.6 6.4.1 1.3-.4 2.7-1.1 3.1-1.5 1 8 4 12.3 4 1.5 0 2.8.4 2.8.8 0 .8 15.4 4.6 23.7 5.8 3.5.5 4.5.3 6.8-1.8l2.7-2.5-3.4-1.6c-8.7-4-15.7-6.6-20.1-7.2-2.6-.4-5.1-1.3-5.5-1.9-.4-.7-1.6-1.6-2.7-2.1-1.8-.7-1.7-.9 1-1.4 2.7-.6 2.8-.7 1-1.5-3.6-1.5-9.5-2.4-10.1-1.4M367.6 313.7c-.4 1-1.3 3-2.2 4.6-.8 1.5-1.2 3.2-.9 3.7.8 1.2 4.8 1.3 6.1.1 1.4-1.2 9.3-3 9.9-2.1.2.4-.4 1.6-1.5 2.8-1.9 2-1.9 2 4.3 3.2 10.7 2 24.1 2.4 27.6.9 6.1-2.7 3.6-4.6-10.9-8.4-10.2-2.6-14.2-3.1-17.8-2-1.7.6-2.1.4-1.7-.7s-.8-1.8-4.5-2.6c-6.8-1.6-7.6-1.5-8.4.5M463.1 344.2c-.1 1-.6 1.8-1.2 1.8s-2.4 1-3.9 2.2c-3.3 2.7-9.2 6.2-10.2 6-.3-.1-2.4 1.5-4.6 3.6-2.2 2-5 4.4-6.1 5.2-1.2.8-1.9 2.1-1.6 2.8.4 1 0 1.2-1.1.8s-2.8.6-5.2 3.1c-2.8 3-3.2 3.9-1.9 4.1 2.3.5 8.7-4.7 10.2-8.1.6-1.5 2.7-3.6 4.6-4.7 9.2-5 21.9-11 23.4-11 .9 0 1.5-.5 1.3-1.2-.3-.7.7-2.2 2.1-3.5 2.5-2.1 2.5-2.2.5-2.3-1.2 0-2.8.7-3.5 1.6-1.2 1.4-1.4 1.4-2-.3-.7-1.6-.8-1.6-.8-.1M421.3 433.9c-3.4 1.4-6.5 2.9-6.9 3.3-.4.5-1.4.8-2.2.8s-3.2 1.7-5.2 3.7c-2 2.1-5.1 5.1-6.9 6.6-3.7 3.4-4.1 6.8-.8 8.2 1.6.7 2.3 2.1 2.7 5 .3 2.2 1.6 6.1 3 8.7 3.3 6.5 6.8 6.3 8.5-.5.4-1.5 1-2.7 1.4-2.7 1.2 0 3.2 6 2.9 8.7-.3 2.5-.7 2.8-3.4 2.5-2.4-.2-3.3.2-4.4 2.3-2.6 4.8 3.1 5.8 7.9 1.4 1.1-1 2.6-1.9 3.4-1.9s3.2-1.2 5.3-2.7 6.1-4.2 8.8-6c4.7-3.2 4.7-3.3 1.8-3.3-1.6 0-4.3.5-6.1 1.1-4 1.4-5.3.3-2.3-2 3.2-2.4 14.5-8.1 20.1-10.1 2.9-1 4.6-2.2 4.6-3.2 0-.9.4-2 .8-2.4s.7-1.4.7-2.1c0-1.1-.8-1.3-3-.8-2.5.5-2.9.4-2.4-.9.4-1.1.1-1.6-1-1.6-.9 0-1.6-.4-1.6-.9s-2.2-.1-5 1c-2.7 1-5 1.6-5 1.3 0-1.7 5.4-5.5 7.1-5.1 1.1.3 2.1.1 2.4-.3s1.3-.6 2.3-.3c1 .2 3.1-.1 4.7-.8 2.8-1 2.8-1.2 1-1.9-3.2-1.4-9.8-1.1-15.1.5-2.7.8-5 1.5-5.2 1.5-.1 0 .5-1.1 1.4-2.5s2.4-2.5 3.3-2.5c2.3-.1-4.8-3.6-8.4-4.2-1.9-.3-5.2.4-9.2 2.1M429.7 493.1c-5.1 5.5-5.5 6.5-3.2 9.5 1.4 1.9 1.4 1.9 1.5-.1.1-1.1.4-1.4.7-.8.2.7-.3 2.3-1.1 3.5-1.5 2.1-2.2 6.8-1 6.8 2.7 0 10.4-6.8 9.7-8.6-.3-.8 0-1.4.6-1.4 1.9 0 3.9-5.3 3-8.3-.9-3.4-2.7-5.7-4.3-5.7-.6 0-3.3 2.3-5.9 5.1M461.5 491.8c-3.3 1.1-5.1 2.5-7.1 5.6-1.8 2.9-1.8 2.9.4 4.4 1.2.8 2.2 2.3 2.2 3.3 0 1.2.7 1.9 1.9 1.9 1.1 0 2.6.6 3.3 1.4 1.2 1.1 1.9.9 4.5-1.4 1.7-1.6 2.9-3.1 2.6-3.4-.4-.3-.1-.6.5-.6 1.4 0 1.6-3.6.4-4.4-.5-.3-2.5-.6-4.5-.8-2.1-.1-3.7-.3-3.7-.4 0-.2.8-1 1.7-2 1.3-1.3 1.4-1.9.5-2.2-.7-.2-1-.8-.6-1.3.3-.5.4-.9.2-.8s-1.2.4-2.3.7M498.6 503.7c-.4.4-2.2.8-8.6 1.7-5 .8-9 2.4-10.5 4.4-1.1 1.4-6.1 2.3-8.2 1.5-1-.4-.8-1.2.7-3.3 1.7-2.4 1.8-2.9.5-3.4-.8-.3-1.4-.2-1.2.2.3 1.2-6.9 7.3-7.7 6.5-.3-.3-.6.1-.6 1 0 1.1.8 1.7 2.2 1.7 1.2 0 1.9.3 1.5.6-.3.3.3 1.6 1.4 2.8 1.2 1.1 2.9 3.7 4 5.7 1 2 3 4.6 4.5 5.7 2.7 1.9 2.8 1.9 6 0 1.8-1.1 4.9-3.8 6.9-6.1s6.9-7.5 10.7-11.5c3.9-4 6.8-7.6 6.4-7.9-.3-.3-.6-.2-.6.3s-.9 1-2 1.1-2-.2-2-.6c0-.8-2.7-1.1-3.4-.4M510.3 516.7c-.7.2-1.3 1.2-1.3 2.1 0 1.3-.2 1.2-1.4-.3-1.3-1.7-1.9-1.8-5.5-.9-2.6.7-4.1.8-4.1.1 0-.5-.7-.4-1.5.3-.9.7-1.4 1.9-1.1 2.6s0 1.6-.6 2c-.7.5-.8.2-.3-.6s.3-1.1-.6-.8c-.8.3-1.3 1.2-1.3 2.1.1.9-.2 1.4-.7 1.1-.6-.3-2.6 1-4.5 2.9-3.6 3.4-3.6 3.5-2 6.6 1.4 2.6 7.9 7.2 9.7 6.7.3 0 1.3.5 2.2 1.2 1.4 1.2 2.1.9 4.7-2 5.9-6.3 7.1-8.4 5.6-9.7-1.2-1-1.1-1.8.5-5.2 1.1-2.2 2.4-3.7 2.9-3.4.6.4 1-.7 1-2.4s-.1-3.1-.2-3c-.2 0-.9.3-1.5.6M522.4 531.3c-.6.7-.9 1.8-.7 2.4s-.9 1.9-2.4 2.8-4.1 3.5-5.8 5.8c-1.6 2.2-5 6.4-7.5 9.2s-5.8 7-7.5 9.4c-1.6 2.3-4.9 6.6-7.1 9.4-2.3 2.9-5.8 8.2-7.8 11.8-3.7 6.7-3.9 9.9-.7 9.9 1.7 0 10.9-12.2 14.5-19.2 1.1-2.3 2.7-4.4 3.3-4.6 2.1-.6-.4 4.2-9 17.4-2.7 4-4.7 8.2-4.5 9.1.2 1 1.7 2.2 3.6 2.8 2.1.6 3.2 1.5 3.2 2.7 0 1.3 1.5 2.5 4.6 3.8 5.5 2.4 5.8 2.4 7.7.5 1.3-1.3 1.7-1.1 3.2 1.2 1.4 2 1.9 2.3 2.6 1.2s.9-1 .9.4c0 1 .4 1.6.9 1.3 2-1.3 4.3-10.8 5.6-23.6.8-7.4 1.7-15.2 2.1-17.3.9-5.6-1.5-4.8-5.5 1.9-1.8 3-3.5 5.3-3.8 5s.7-2.7 2.3-5.3c5.1-8.8 9.3-17.9 10.2-22.1.6-2.3.6-4 .2-3.7-1.6 1-2-1.3-.8-4 .9-1.9.9-2.8 0-3.7-1.9-1.9-1.4-3.8 1.1-4.8 2-.8 2-.9.2-.9-1.1 0-2.5.5-3.1 1.2M645.8 186.8c-1 .2-1.8.8-1.8 1.3s-.7.9-1.5.9c-1.2 0-1.5 1.9-1.5 11 0 13.1.7 13.4 7.4 3.1 5.6-8.5 7.6-12.5 7.6-14.9 0-1.6-.7-1.9-4.2-1.8-2.4 0-5.1.2-6 .4M654.1 198.5c-2.9 4.9-5.9 9.7-6.7 10.5-2.2 2.6-4.6 9-3.2 8.5 1.1-.3 12.7-1.4 16.5-1.5.6 0 1.8-.7 2.7-1.5 1.3-1.3 1.3-1.9 0-4.3-.7-1.5-1.7-4.9-2-7.5-.4-2.8-1.3-5.1-2.1-5.4-1.1-.4-1.1-.8-.3-1.3.6-.4 1-2 .8-3.6-.3-2.6-.8-2.1-5.7 6.1M598.5 194.8c.4 1.5.3 2.2-.5 2-1.1-.3-10.6 16-9.8 16.7.2.2 3.9.5 8.3.6l8 .4.3-3.8c.2-2.1-.1-4.4-.6-5-.5-.7-1.7-3.5-2.7-6.2-1.8-5.1-4.3-9-3-4.7M706.2 217.2c-1.9 1.9-1.4 4.8 1.1 5.8 1.2.5 1.7.9 1 .9-.7.1-1 .8-.7 1.6.7 1.7.3 1.8-2 .9-.9-.3-1.6-1.2-1.6-1.9 0-.8-.8-1.6-1.9-2-1-.3-2.6-1.4-3.6-2.5s-2.1-2-2.5-2c-1.5 0 .1 10.3 2 13 2.3 3.2 2.5 4.7.8 5.2-.8.3-.2 1.6 1.8 3.6 1.8 1.7 3.4 2.9 3.6 2.7.3-.3.5.2.5.9 0 1.1-.9.8-2.9-1-3.5-2.9-4.5-3-5-.7-.3 1.3-.9.7-2.1-2.1-1.5-3.5-2-3.8-4.4-3.1-1.6.4-4.6.8-6.8.9s-5.5.3-7.4.4l-3.4.2 4.4 4c2.4 2.3 5.8 4.8 7.4 5.7 1.7.9 4.4 2.6 6.1 3.9 3.9 3 7.5 2.4 12.9-2 2.2-1.8 4.9-3.6 6-4 3.1-1 9.2-6.8 7.8-7.3-.7-.3-1.3-1-1.3-1.7s-1.2-1.9-2.7-2.6l-2.8-1.4 2.5-.4c1.3-.2 2.6.1 2.8.7.7 2 3.2-1.6 3.4-5 .2-2.5-.2-3.5-1.9-4.4-1.1-.6-3.5-2.5-5.1-4.3-3.3-3.5-4.2-3.8-6-2M660.9 218.3c-.2.3-3.7.7-7.7.9-4 .3-7.6.8-8 1.3-.9.9 7.5 8.5 9.4 8.5.8 0 1.4.4 1.4.9 0 1.4 7 3.5 8.1 2.4 1.4-1.4 2.4-13.3 1.1-13.3-.6 0-1.7-.2-2.4-.5-.8-.3-1.6-.4-1.9-.2M633 227.7c0 .9-.3 1.3-.6 1-.4-.3-1.9.7-3.4 2.3s-3 2.6-3.4 2.3c-.3-.3-.6-.1-.6.5s-1.6 1.4-3.6 1.8l-3.5.6 2.6 2.8c1.7 1.8 3.3 2.6 4.3 2.3 1.1-.5 1.3-.3.7.6-.5.8.8 2.9 3.6 5.8 7.1 7.3 7.6 7.3 7.8-.2.1-4.7-.2-6.5-1-6.5-1 0-1-.3-.1-1.2.7-.7 1.2-3.9 1.2-7.3 0-5.4-.2-6.1-2-6.2-1.2-.1-2 .4-2 1.4M632.5 271.7c-2.7 3.1-5.6 6.5-6.4 7.6-1.3 1.9-1.2 2 2.5 1.4 2.7-.5 3.3-.4 1.9.3-1.1.5-3.1.9-4.4.9-2.3.1-2.4.2-.6 2.1 1 1.1 2.2 2 2.7 2s1.7.8 2.8 1.7c1 1 3.3 2.6 5 3.6l3.1 1.9-.2-6.6-.2-6.5-2.9.3c-3.4.4-3.4-1.7 0-2.2 2-.3 2.2-.9 2.2-6.3 0-3.2-.1-5.9-.2-5.9-.2 0-2.5 2.6-5.3 5.7M640.6 301.4c-.7 4.3-.6 17.6.1 17.6.2 0 2.5-1.6 5.1-3.6 2.6-1.9 7.5-5.6 11-8.1 4.3-3.2 5.8-4.9 5-5.5-1.4-.8-9.3-2.5-15-3.2-2.1-.2-4.1-.7-4.7-1-.5-.3-1.2 1.4-1.5 3.8M640.5 567.2c-1.4 9.4-1.6 18.3-.4 21.3 1.6 3.9 1.7 4.7 2.6 13 .7 6.1 1.1 7 2.8 7 2.7 0 3.2-4.4 2.5-22.5-.4-12-.9-15.2-2.6-18.4-2.8-5.4-4.1-5.5-4.9-.4"/><path d="M631.3 574.5c-1.6 1.2-2.2 1.2-2.6.2-.3-.6-.6-.2-.6 1-.1 1.2-.6 3.4-1.2 5-.6 1.5-1.1 4.9-1 7.5.2 2.6-.2 7.1-.8 10s-1.3 7.8-1.6 10.8-.9 7.5-1.5 10-1.5 7-2 10.1c-.6 3.1-1.7 7.6-2.6 10-.8 2.4-2 8.4-2.5 13.3-.7 5.7-1.7 9.8-2.9 11.5-1 1.4-2.1 4.7-2.5 7.3-.3 2.6-1 6.9-1.6 9.5-.5 2.6-1.8 10.9-2.8 18.3-.9 7.5-2.1 14.1-2.5 14.8s-.5 2.4-.2 3.8l.6 2.4h68.1l-.6-4.4c-.2-2.4-.9-5.6-1.5-7.1-.5-1.4-1.3-6.5-1.6-11.3s-1.2-11-1.9-13.7c-.8-2.8-1.6-6.7-1.9-8.8s-1.6-5.1-2.9-6.7c-2.1-2.4-2.5-4.3-3.2-13.2-.3-5.6-1.1-12.6-1.7-15.3-.6-2.8-1.1-5.8-1.2-6.7-.1-1-.9-2.5-1.8-3.5s-1.8-2.7-2.1-3.8c-.5-1.9-.5-1.9-1.2.3-.4 1.2-1.2 2.1-1.9 2-.6-.2-2.6.3-4.3 1.1-2.7 1.1-3.3 1.9-3.3 4.2 0 2.2.5 2.9 2 2.9 1.9 0 2 .7 2 9.2-.1 7.1-.3 8.9-1.1 7.5-.6-1-.9-2.8-.6-3.9.3-1-.4-3.5-1.5-5.3-1.1-2-2.2-6-2.5-9.7-.2-3.4-.9-7-1.4-8-.5-.9-.9-2.8-.9-4.2 0-1.8-.7-2.7-2.3-3.1-2.7-.7-6.6-.3-8.5.9-2 1.2-2.7-.1-1.6-3.2.7-1.9 1.7-2.8 3.4-2.9 1.4-.1 3.4-.4 4.5-.6 1.1-.3 2.5-.6 3.1-.6 1.3-.1 2.4-22.7 1.6-32.6-.5-6.8-1.2-7.6-4.9-5"/></svg>