<svg xmlns="http://www.w3.org/2000/svg" width="1706.667" height="960" viewBox="0 0 1280 720"><path d="M0 360v360h602.6l1.3-5.2c.7-2.9 1.4-7.2 1.6-9.5s.9-5.1 1.5-6.3c.6-1.1 2.4-8.7 4-16.8s3.8-19 5-24.2c2.6-11.3 3.9-18.9 4.6-25 .2-2.5.8-5.9 1.3-7.5.5-1.7 1.2-7.2 1.6-12.4.7-10.3 2-16.9 4.3-21.7 1.3-2.8 1.9-3 6.3-3 2.7.1 4.9.4 4.9.8 0 .5.7.8 1.5.8s1.5.4 1.5 1c0 .5-.4 1-.9 1-1.1 0-.3 17.4 1 22 .6 1.9 1.1 5.7 1.2 8.5.2 4.4.5 5 2.5 5.3 1.6.3 2.2-.2 2.2-1.6 0-1.1-.4-2.2-.8-2.4-.4-.1-.6-2.6-.3-5.3l.5-5 .7 4c.4 2.9.7 1.5.8-5.2.1-7.6-.3-9.9-1.9-12.8-2.3-4.1-2.6-8.3-.7-11 1.3-1.6 1.5-1.4 2.7 2.6.7 2.4 1.6 10.5 2 17.9.8 14.9 3.4 37.6 4.9 43 .6 1.9 1.9 9.1 3.1 16 2.2 13.2 2.6 15.1 6 29.5 2.7 11.5 2.8 12.1 3.5 17.8l.6 4.7H759v-11.8c0-13.9.5-16.2 3-15.5 3.4.9 3.2 11.3-.1 11.3-1.7 0-1.9.8-1.9 8v8h520V0H700.4l-.1 6.7c-.1 10.3-1.7 14.8-7.4 20.6-2.7 2.7-4.9 5.6-4.9 6.4s-1.1 5.2-2.4 9.7c-3.8 12.9-5.1 19.6-5.1 27.1 0 7.2 2 13.5 4.2 13.5.7 0 1.3.9 1.3 2 0 2.5.9 2.5 2.6.2 1-1.4 1.5-1.5 2.5-.5 1.8 1.8 7.6 1.6 8.6-.1 1-1.8 3.2-.3 5.2 3.7l1.5 2.7 1.5-3.2 1.5-3.3.4 3.6c.3 3.3.5 3.5 3.2 3.1 1.7-.2 3.1 0 3.1.4.7 4.4.5 5.3-1.3 5.7-3.1.8-2 5.9 1.6 7.4 3.9 1.8 4.6 1.6 4.6-1 0-1.2 1-3.6 2.1-5.2l2.1-3-.6 6.7c-.6 6.2-.5 6.8 1.2 6.8 1.1 0 3.1 1.7 4.7 4 1.5 2.2 3.7 4.2 4.8 4.6 2 .6 2 .7.2 2-2.8 2.1-7.8 1.8-9.3-.6-1.5-2.5-3.1-2.5-4.8-.3-1.3 1.7-1.5 1.6-3.5-1-2.4-3.2-3.9-3.5-3.9-.8 0 1.2 1.2 2.3 3.3 3 1.7.7 4.8 2.1 6.7 3.1 4.4 2.3 12.2 2.9 14.4 1.1.9-.7 1.3-1.7 1-2.2s.8-.9 2.3-.9c2.4 0 3.3.7 5 4.3l2.1 4.4 10.2.9 10.3 1 2.4-3.8c1.9-3.1 2.1-4.2 1.3-5.8-.6-1.1-1.7-2-2.5-2s-1.2-.6-.9-1.4 0-2.4-.6-3.6c-1.5-2.7-.6-3.7 1.6-1.9 1 .8 1.9 1.3 2.1 1.1.9-.6 2.3-.1 1.8.7-.3.5-.1 1.2.5 1.6.5.3 1 .1 1-.4 0-.6.6-1.1 1.3-1.1 1.7 0 5.1-6.5 4.4-8.4-.4-.9-1.8-1.6-3.2-1.6-1.5 0-3.5-.5-4.5-1-1.6-.9-1.7-1.5-.8-4 1.1-3.3 4.9-5 7.1-3.2.8.7 1.8.7 2.7.2.9-.6 1.8-.3 2.6.8 1.1 1.5 1.4 1.5 3.3-.2 1.2-1.1 2.1-1.4 2.1-.8 0 .7 0 1.5.1 1.9 0 1.2 3.9 2.4 5.1 1.7 1.5-.9 7.8-11.1 7.8-12.6s6-9.1 6.6-8.5c.9.8-1.8 6.4-6.6 13.7-2.7 4.1-5.2 8.7-5.5 10.2-.6 2.5-.4 2.8 1.8 2.8 1.5 0 3.2.9 4 2s1.6 1.8 1.9 1.5c1.2-1.2 1.6 6.8.5 8.8-1.7 3-3.4 4.7-4.6 4.7-.6 0-2.3 1.6-3.8 3.5s-3.6 3.5-4.6 3.5c-1.2 0-1.6.5-1.1 1.2.5 1 .4 1-.6.1-1.5-1.4-.5-3.4 1.4-2.7.8.3 1.7 0 2.2-.7.5-.9.2-1.1-.8-.6-2.6.9-3-.5-.5-1.7 1.2-.7 2.3-2.3 2.5-3.6.2-2 .1-2.2-.8-1-.7 1.1-.8.6-.4-1.8.6-3.1.5-3.3-1.6-3-1.7.2-2.7 1.6-4.2 5.5-1.4 3.8-2.3 5-3.6 4.8-.9-.2-2.3-.4-2.9-.4-.7-.1-1.3-.8-1.3-1.6 0-4.2-5.9.6-7.9 6.4-1 3-.9 3.7.8 5.5 1 1.2 2.2 3.1 2.6 4.3.7 2.5 2.5 3.1 2.5.9 0-.8.6-1.6 1.3-1.9 2.1-.8 4.9 1.9 4.6 4.5-.1 1.3.1 3.8.5 5.5.6 2.6 1.3 3.3 3.1 3.3 1.7 0 2.4.7 2.9 3.1.9 4.9.9 4.9-4.7 4.9-5.1 0-5.5.2-10.7 5.5-3 3-5.9 5.5-6.5 5.5-1.3.1-4 3.8-5 6.9-.5 1.6-.4 2.1.4 1.7.7-.4 1.1.1 1.1 1.3 0 1.5-1.1 2.2-5 3-2.8.6-5.3 1.1-5.5 1.1-.3 0-.5-1.8-.5-4.1 0-3.7.1-3.9 1.6-2.4.9.9 1.9 1.4 2.1 1.1.9-.8-.8-4.6-1.8-4.1-.5.4-.9-.1-.9-.9s.4-1.7.9-2c.5-.4.5-1.8-.2-3.5-1-2.8-3.2-4.1-6.7-4.1-1.3 0-1.3.1 0 1 .8.5 1 1 .4 1-.7 0-1.4.9-1.7 2-.3 1.3 0 2 .8 2 1.8 0 2.7 1.5 3.5 6.2.8 4.4.8 4.4-7.2-2.9-2.6-2.4-5.3-4.3-6-4.4-3.8-.2-6.4-1.2-8.1-3-1.2-1.3-2.5-1.8-3.8-1.4s-1.9.1-2-.9c-.1-.9-.3-2.1-.4-2.6-.1-.6-.3-1.7-.4-2.5-.1-1.8-5.8-5.5-8.5-5.5-1.1 0-3-1-4.2-2.1-3.8-3.6-7.6-.2-3.9 3.4.8.8 1.1 1.8.7 2.2-.4.5.1.5 1.1.2.9-.4 1.7-.2 1.7.2 0 .5 2.5 2.3 5.5 4 3.1 1.8 5.3 3.6 5 4-.2.5.2 1.1.9 1.4 1.8.7 2.9 8.1 1.8 12.7-1 4.3.5 10.3 4.5 18.5 1.7 3.3 3.3 7.2 3.7 8.7.5 2.4.3 2.8-1.6 2.9-1.3 0-3.1.2-4 .4s-2.4-.8-3.3-2.1c-.8-1.3-2.3-2.4-3.1-2.4-1 0-1.4-.6-1.1-1.4.7-1.9-3.9-2.8-5.4-1-.6.7-1.7 1-2.5.7-1.2-.5-1.3-.1-.3 2.1.7 1.4 1.5 2.6 1.8 2.6.4 0 .7.9.7 2.1 0 2.1 0 2.1-1.8-.1-1.6-1.9-1.8-2-1.8-.4s-.2 1.6-2.2-.3c-3.4-3.1-6.8-3.9-6.8-1.6 0 3.3 2.2 9.7 4.1 12.2 1.5 1.8 1.7 2.7.7 3.8-.8 1-.8 1.7 0 2.5 1.8 1.8 1.4 2.7-1 2-1.5-.4-1.9-.2-1.3.8.5.8.3 1.1-.6.8-.8-.3-1.6-1.3-1.7-2.4-.6-3.1-3.1-4.5-5.6-3.2-1.1.6-2.2 1-2.4.9-.3-.4-12.3.9-14.6 1.6-1.6.5-1.2 1.1 2.7 4.9 2.6 2.4 5.2 4.4 5.9 4.4.6 0 .8.3.5.7-1.2 1.1 11.2 7.3 14.7 7.3 2.5 0 5.7-1.6 12.7-6.6 5.2-3.7 10.8-7.8 12.4-9.2l3-2.5-2.7.5c-1.9.3-2.8.1-2.8-.7 0-.7-1-1.6-2.2-1.9-2.2-.7-2.2-.7-.3-1.6l2-.9-2-.1-2-.1 2-.8c1.1-.5 2.5-.5 3-.1.6.5 2.2-1 4-3.6 2.8-4 5.2-6 6.2-5 .4.4-1.8 5.9-4.3 10.8-.8 1.4-1.2 3.3-.9 4 .4.9-.9 2.5-3.3 4.2-5.9 4-9.6 8.2-8.6 9.8.6 1.1.5 1.1-.8 0-1.3-1-2.5-.6-7.2 2.5-3.1 2.1-5.6 4.1-5.6 4.4 0 .4.9 1.1 2 1.4 3.1 1 2.4 2.2-1.5 2.7-2.4.3-3.5 0-3.5-.9 0-1.1-.7-1-3.7.2-4.2 1.8-5.4 1.4-1.8-.5 2.7-1.5 3.4-4 1-4-.8 0-1.5-.4-1.5-.8 0-.5-1.9-1.8-4.2-2.8-2.4-1-5.6-3.1-7.3-4.5-4.3-3.6-13.6-9.1-14.3-8.4-.3.3-.9 2.7-1.3 5.3l-.6 4.7-.2-5c-.2-7.1-.8-7.7-5.7-5.6-2.2 1-5.6 3.2-7.6 5-2 1.7-3.9 3.1-4.4 3.1-1 0 1.8-2.5 8.3-7.4l5.3-4-3.8-3.7c-2-2.1-5.5-4.6-7.7-5.6s-4.2-2-4.5-2.3c-1.3-1.4-6-2.8-6.5-2-.4.6-.2 1 .3 1 .6 0 .8.9.5 2s-.9 2-1.3 2c-.5 0-.8 6.6-.9 14.7-.1 14.2 0 14.7 1.7 12.8.9-1.1 2.6-2.7 3.7-3.5 1.8-1.3.2.9-4.6 6.8-1.4 1.6-.4 4.2 1.5 4.2.8 0 1.8.5 2.2 1.1.5.8-.1 1-2 .7-1.4-.3-2.6-.1-2.6.4 0 1.8 5.9 9.4 12.9 16.5 5.7 6 6.6 7.3 4.9 7.3-1.3 0-4.1 2-6.8 4.7-2.5 2.7-5.9 5.8-7.5 7-3.5 2.6-3.2 3 2.6 4.2 2.4.5 7.5 1.7 11.4 2.5 9.1 2.1 8.8 2.2 7-1.9-.8-2-1.1-3.3-.6-3.1.5.3 1.4 2 2.1 3.7 1.2 2.9 1.6 3.1 4.9 2.5 3.9-.6 3.8-.4-4.1 3.9-4.8 2.6-25.8 18.7-25.8 19.7 0 .4 4.8.9 10.8 1l10.7.2-12 .6-12 .5-.6 11.5c-.5 12.5-1.2 12.3-1-.3.2-9.5-.4-11.7-3.2-11.7-1.6 0-1.9-.3-.8-.9.7-.5 1-1.4.6-2-1.6-2.8-20.1-16.9-25.8-19.8-5.9-3-6-3.1-2.7-3 2.6.2 3.4-.2 3.2-1.3-.3-1.2 0-1.1 1.5.2 1.7 1.5 2.5 1.5 11.1-.3 5.1-1 10.4-2.4 11.7-3.2 2.5-1.3 2.5-1.3-4.6-6.7-4-3-8-6-9.1-6.6-1-.6-2-1.3-2.3-1.5-.2-.3 3.2-4.2 7.6-8.8 6.7-6.9 10.9-12.9 10.9-15.5 0-.3-1.3-.3-3 0-4.1.9-3.9-1 .3-2.3l3.2-1-11-10.8c-14.2-13.9-17.5-15.3-17.5-7.5 0 2.1-.5 4.2-1 4.5-.6.4-1-1.2-1-3.9 0-2.5-.3-4.6-.6-4.6s-1.8.9-3.3 1.9c-3 2.2-12.5 6.1-14.4 6.1-.7-.1.6-1.1 2.8-2.2 2.2-1.2 4.3-2.1 4.6-2.1.3.1 1.9-1.1 3.5-2.8 2.4-2.5 2.6-3.1 1.4-3.9-.8-.5-2.9-1-4.6-1-1.8 0-4.7-.7-6.5-1.5-3.3-1.5-3.3-1.5 3.4-.9 4.6.4 6.7.3 6.7-.5 0-.6.8-1.1 1.7-1.1 1.3 0 1.4-.3.5-1.2-.7-.7-1.2-2.1-1.2-3.3s-.6-3-1.4-4c-1.3-1.8-1.4-1.8-4.1.3-2.8 2.2-8.5 3-8.5 1.2 0-.9 1.7-1.4 4.7-1.3.7 0 1.5-.8 1.8-1.8.4-1.1 1.1-1.9 1.6-1.9 1.5 0 3.5-2.3 3.4-3.9 0-.9-1.4-1.5-3.9-1.8-2.2-.2-4.7-.9-5.5-1.4-1.3-.8-1.2-.9.7-.6 1.2.3 2.2.2 2.2-.1 0-.4 1.9-.7 4.2-.7 4.3 0 4.3 0 4.2-3.5-.1-3.9-5.3-21-6.4-21-.4 0-2.4 3.5-4.6 7.7-2.1 4.3-4.9 9.2-6.1 11.1-2.4 3.5-3 6.2-1.3 6.2.6 0 1 .4 1 1 0 .5-.6 1-1.4 1s-2 1.5-2.7 3.4c-1.1 3.1-1.4 3.3-2.5 1.8-.9-1.3-1.5-1.4-2.6-.4-1.9 1.5-2.8.6-2.8-2.8 0-1.7 1.4-4.2 4-7 2.2-2.4 4-4.7 4-5.2 0-.4.5-.8 1.1-.8s.9-.6.6-1.4c-.3-.7.6-3.2 1.9-5.6 1.3-2.3 2.4-5.3 2.4-6.5 0-1.3.5-2.7 1-3 .6-.3 1-1 1-1.6 0-1.1-2.2-.7-3.2.6-.5.6-.8.5-.8-.3 0-.6.9-2.2 2-3.5 1.2-1.2 2.7-2.9 3.5-3.8 1.8-1.9 1.8-3.3.2-7.9-2.4-6.8-4.2-7.8-5.8-3.2-.9 2.7-4.3 4.1-5.4 2.1-.4-.5.1-.9.9-.9.9 0 1.8-1.2 2.2-2.8 1-4.8 1.3-5.2 3.7-5.2 3 0 4 1.2 5.5 6.6 1.4 4.9 3.6 7.3 4.6 4.9.3-.9 1-1.4 1.5-1.1 1.1.7 4.1-3.7 4.1-5.9 0-.9-.7-2.6-1.5-3.9-1.9-2.8-3-10.6-1.6-10.6.5 0 1.1.7 1.3 1.6.4 2.2 4.8-6 4.8-9 0-1.2.6-2.8 1.2-3.4.7-.7 1.1-2.9.9-5-.4-4.8.8-3.6 2 2 1.1 5.2 4.9 14.8 5.8 14.8.3 0 .7-1.2.7-2.8.1-1.5.6-5.6 1.1-9.2.9-5.4 1.1-5.9 1.2-2.5.1 2.2.4 5 .7 6.3.9 3.2 3.4 1 3.5-3.2l.1-3.1 1.1 3.5c.6 1.9 1.5 3.8 2.1 4.2 1.6 1.1 4.6-4.3 4.6-8.1 0-2.6.3-3.2 1.1-2.4.7.7.9 2.2.4 4-.5 1.5-.7 3.2-.6 3.7.1.6.3 2.7.3 4.9 0 3.7.2 3.9 2.9 3.5 3.1-.5 4.4.4 5.2 3.7.2 1.1.5-1.7.6-6.1.1-6.3.5-8.3 1.6-8.8.8-.3 1.5-.1 1.5.4 0 1.5 3.3 1.6 6 .3 1.8-.9 2.7-2.3 3-5l.6-3.8 1.9 4.2c1.5 3.2 2.5 4.3 4.2 4.3 2.8 0 4.4-4.7 2.2-6.1-1.1-.7-1.1-.9.3-.9.9 0 1.8-.8 2.1-1.8.2-1 .7-.2 1.1 2 .5 2.1 1.1 3.8 1.5 3.8.9 0 3.3-9.6 4-16l.6-5.5.5 7c.3 3.8.1 8.1-.5 9.3-.7 2-.5 2.7 1.5 4.3 2.5 1.8 2.5 1.8 4.2-.4.9-1.2 1.7-3.1 1.7-4.2-.1-1.1.7-4.7 1.6-8 1.5-5.1 1.6-7 .6-12.8-.6-3.7-1.2-10-1.2-14l-.2-7.2-.7 5.7c-.8 6.3-4.8 17.8-6.1 17.8-1.2 0-1.1-1.6 0-3.8 1.5-2.6 6.1-25.2 6.1-29.4 0-2.5-.8-4.7-2.2-6.3-2.5-2.9-2.7-10.2-.3-12.1 2.1-1.6 5.5-10.1 5.5-13.8 0-1.8.4-3.6.9-4.1 1.5-1.6 1.6-9.8.1-12.5-.7-1.4-1.3-5.2-1.3-8.5.2-7.6-1.9-10.6-7.7-11.1-4.3-.4-6.2 1.3-7.5 6.8-1 4-2.5 3.4-2.6-1-.1-2.4-.3-2.9-.6-1.4-.4 1.9-.7 2.1-1.9 1.1s-1.4.1-1 8.5c.3 5.5.1 9.6-.5 9.6-.8 0-1.4-5.1-1.1-9.3.4-3.9-2.3-.8-3.4 3.9-1 4.7-1.2 4.9-4.2 4.8-1.8-.1-3.2.2-3.2.8 0 .5-.4.7-.9.4s-1.4.1-2.1.9c-1.4 1.7-4 .3-4-2.1 0-.7-1.1-2.1-2.5-3s-2.2-2-1.9-2.6c.3-.5-.3-1.2-1.5-1.5-1.9-.5-2.1-1.3-2.1-7.3 0-10.6 1-10-15.9-9.9-18.3.1-19.5.4-19.8 4.9-.2 1.9-.8 6.5-1.4 10.2-1 5.7-1 7.2.5 10.8.9 2.3 1.9 5.4 2.1 6.8 1 6.1 3.2 14.9 4.3 17.5 1.4 3.4 1.5 5.4.3 5.9-.5.2-.5 7.3 0 17.5.9 14.9.8 17.6-.5 20.2-.9 1.7-1.6 4.1-1.6 5.4 0 3-2.8 4.5-3.6 1.9-2.1-6.7-3-7.2-7.4-4.7-1.4.8-3 1.4-3.7 1.5-2.1 0-5.3-4.2-5.3-6.9 0-1.9.3-2.2.9-1.2 1.2 1.9 2 .2 2.2-5.7.3-5.3 1.1-6.6 2.4-3.5.7 1.7.8 1.6 1.5-.2.8-1.8.9-1.7.9.7.1 1.6 1 3.3 2.2 4.2 2 1.4 2.3 1.3 4-.9 1.1-1.3 1.9-2.8 1.9-3.4s.7-1.1 1.6-1.1c1.5 0 1.6-1.5 1.1-14-.6-14.5-3.3-31.4-4.8-30.4-.5.3-.9-.6-.9-2 0-3.5-1.8-7.8-3-7.1-1.5.9-5.1-2.7-7.1-7.4-1.1-2.4-2.4-7.7-3-11.7L576.8 0H0zM567.1 65.6c3.4 1.7 5.6 6.8 3.9 8.9-.7.8-1.9 1.5-2.7 1.5-1.8 0-3.5 1.7-4.9 4.9-.8 1.9-.6 3.3.8 6.2 1 2.1 1.8 4.8 1.8 5.9 0 1.2.5 3 1 4 1.6 3-.7 7-4 7-2.1 0-3-.7-3.8-2.8-2.3-5.9-2.4-7.4-.7-10.7 1.9-3.4 1.6-6.6-.9-9.8-1.7-2.2-4.4-1.2-5.2 2-.5 1.9-.9 2.1-1.5 1.1-.7-1-.9-1-.9 0 0 .7-.4 1-1 .7-.5-.3-2.2 0-3.7.8s-4.3 1.7-6.1 2c-5.7 1.1-9.2 7.5-5.9 10.9 1.6 1.6 5.9 12.8 4.9 12.8-.4 0 0 .5.8 1 1.3.9 1.3 1 0 1-.8 0-2.2-1-3-2.3-2.7-4.2-6-10.7-5.5-10.7 1.5 0-3.1-5.9-4.8-6.4-2.1-.5-6.1 1.6-5.1 2.7.4.4-1.2.9-3.5 1.3l-4.2.7.5 4.2.5 4.2-4.4-.4c-2.5-.3-5.6 0-7.4.8-4.5 2-6.5 7.9-2.7 7.9 1.4 0 8.1 9 11 14.7.9 1.8 2 3.2 2.4 3.1s1.9.4 3.4 1c3.1 1.3 5.1 4.4 4.6 7.5-.2 1.8-1 2.2-4.3 2.3-3.3 0-4.1.4-4.3 2.2-.4 2.6-.3 2.6-3.7.8-3.1-1.6-5.1-1.2-6.6 1.5-.5 1.1-1.7 1.9-2.6 1.9s-2.1.7-2.7 1.6c-.7.8-3.1 1.8-5.4 2.1-4.3.6-4.4.8-5.7 7-.4 1.8-1.1 3.6-1.7 3.9-.7.5-.8.2-.3-.6.4-.7.2-1.6-.5-2-1.4-.9-3.2-11.3-2.3-13.6.4-1 1-1.1 2.3-.4 3.2 1.7 4.8 1.1 5.5-2 .4-1.7 1.1-3 1.6-3s.7-1 .5-2.3c-.1-1.2-.8-2.2-1.4-2.1-.7.1-2.3.2-3.7.2-1.6.1-2.9 1.1-3.6 2.6-1.1 2.3-4.1 4-6.6 3.7-2.2-.3-9.4 3.9-13 7.5-2.9 2.9-4 3.4-6.4 2.9-2.3-.5-2.8-.4-2.3.8.4 1-.5 1.6-2.9 2.1-3 .6-3.4.9-2.9 3.2.4 2.4.2 2.6-1.9 1.9-3.1-1-3-.8-3.2-4-.2-2.3.3-3 2.8-3.8 2.9-1 6.4-3.7 4.9-3.7-.5 0-.3-.5.4-1.2s1.2-2.2 1.2-3.5c0-1.7.6-2.3 2.2-2.3 1.2 0 1.8-.3 1.5-.7-.4-.3.3-1.1 1.5-1.7 1.1-.6 2.6-2 3.2-3.1 1.6-2.8 3.3-4.5 4.6-4.5 2.1 0 .4-2.4-2.2-3.1-2.2-.6-2.7-.3-3.3 1.8-.4 1.6-1.1 2.3-2 1.9-.8-.3-1.4 0-1.2.7.1.6-.9 1.3-2.2 1.5s-2.5 1.2-2.8 2.2-1.4 2.2-2.6 2.8c-1.5.7-1.7 1.1-.7 1.2 2 .1-6 3.2-8.2 3.1-1.7 0-2.2 1-1.9 3.5.1.6-.6 1.7-1.4 2.4-1.2 1-1.5 1-1.5 0s-.3-1-1.5 0c-.8.7-1.5.9-1.5.5s-.7-.2-1.5.5-1.5 1.9-1.5 2.6c0 2.2-5.8 8.1-8.6 8.8-1.4.4-2.2 1.1-1.9 1.6s.1 1.1-.5 1.5c-.5.3-1 1.4-1 2.4 0 1.4-.6 1.7-2.4 1.4-1.3-.3-2.7 0-3.1.6-1 1.7 2.2 6 5.3 7.2 1.5.6 4.1 2.1 5.9 3.5 1.7 1.3 3.5 2.4 4 2.4.4 0 2.4 1.4 4.3 3 4.3 3.7 2 4-3.2.4-2.3-1.6-4.4-2.4-5.4-2-1.4.6-1.1 1.2 1.9 4 6.1 5.5 4.5 8-1.6 2.6-1.9-1.7-3.9-3-4.5-3s-1.6-.8-2.1-1.8c-1-1.6-1-1.6-1.1.1 0 1.1.9 3.2 2.1 4.8 3.6 5.1.2 3.1-9.6-5.5-16.9-15-17.9-16.2-12.9-16.1 1.6 0 3.1-.8 3.8-2 .6-1.1 1.9-2.6 2.9-3.3 3.8-2.9 1.4-6.2-14.3-20-1.9-1.7-3.2-3.4-2.8-3.8s3.2 1.5 6.3 4.2c8.1 7.1 13.5 11.4 14.5 11.4.5 0 2.3-1.3 4-3 1.6-1.6 3-2.6 3-2.3 0 .4.9-.3 2.1-1.5 1.1-1.2 2.5-1.9 3.1-1.6.7.4.8.2.4-.4-.4-.7-1.4-1.2-2.2-1.2s-1.5-.6-1.5-1.3c-.1-.6-.3-2.7-.5-4.6-.4-3.2-.3-3.3 2.6-2.9 2.6.4 3 .1 3-1.9 0-2.8 2.1-3 4.5-.3 1 1.1 2.6 2 3.5 2s2.1.5 2.7 1.1 2.1.9 3.4.7c2.2-.3 2.4-.8 2.5-6.4.1-3.4.4-6.7.8-7.3s.3-1.1-.2-1.1c-.6 0-1.3-.7-1.6-1.6-.3-.8 1-.2 3.1 1.5 4.3 3.6 6.8 3.9 7.6 1.1.3-1.1 1.2-2 2.1-2s1.6-.8 1.6-1.9.9-2.3 2.3-2.7l2.2-.8-2.5-.7c-1.6-.4-1.9-.7-.7-.8.9-.1 1.7-.4 1.7-.9-.1-1.1-3-4.7-4-4.8-2.3-.3-2.4-.5-1.1-1.3 1.2-.8 1.2-1.2-.2-2.6-2.2-2.1-2.1-2.5.4-2.5 1.1 0 1.7.4 1.4 1-.3.5.2 1 1.3 1 1 0 3.1 1.3 4.7 3 3.6 3.8 6 4 5.1.5-.5-1.9-.2-2.5.9-2.5.9 0 1.3-.5 1-1-.3-.6-.2-1 .4-1s.8-.6.5-1.4c-.8-2 2.5-3.5 5.9-2.9l2.8.5-2.1-5.3c-2.3-5.8-2.2-5.8 3.4 1.3 2.1 2.7 4.3 4.8 4.8 4.8s.6-.5.3-1.1c-.4-.6.2-1.3 1.4-1.6s2.1-1 2.1-1.6c0-2.2 5.9-6.5 10.1-7.3 2.4-.4 5-.7 5.7-.5.6.1 1.2-.3 1.2-.9 0-.5 1-1 2.3-1s3.3-.9 4.5-2 2.4-2 2.7-2c.4 0 1.4-.7 2.2-1.6 1.3-1.2 1.8-1.3 2.4-.3s.9.9 1.5-.4c.3-.9 1.2-1.7 2-1.7s1.4-.7 1.4-1.5.9-1.5 2-1.5c1.9 0 9.4-2.6 15.6-5.5 1.6-.8 4.6-1.5 6.6-1.7 2-.1 3.5-.5 3.2-1-.3-.4.8-1 2.3-1.3 4.8-1.1 7.3-2.4 7.3-3.9 0-1.8 5.6-3.6 8.5-2.9 1.1.3 3.2 1.2 4.6 1.9m14.5 47.5c.3.6.1 1.5-.6 1.9-.6.4-1.1 1.1-1.1 1.6.1.5-.5 1.7-1.3 2.6s-1.6 2.7-1.8 4c-.2 1.5-1.1 2.4-2.5 2.6-2 .3-9.6 8.5-10.6 11.5-.3.9-1 .8-3.1-.3-3.6-1.8-6-.4-6.4 3.8-.4 3.5-3 5.6-5.2 4.2-.7-.4-3.8-.6-6.8-.3-4.4.5-5.3.3-4.7-.7s.4-1.2-.7-.8c-.9.4-4.1-.9-7.2-2.8s-6.1-3.4-6.7-3.4c-1.4 0-1.1-.9 1.5-3.7 2-2.2 3.3-2.6 7.8-2.5 2.9 0 6.1.3 7.1.7 1.3.6 2 .2 2.3-1.2.6-2.3 4.3-4.3 7.8-4.3 2.2 0 6.4-1.4 13.3-4.6 1.7-.8 3.6-1.4 4.2-1.4s1.5-.9 2.1-2 2.1-2 3.5-2c1.5 0 2.6-.7 3-2 .7-2.2 4.9-2.8 6.1-.9m248.3 20.1c4.3.3 7.2 2.8 3.4 2.8q-1.65.15 1.5 1.5c1.7.8 3.2 1.9 3.2 2.4 0 .6 1.2 1.7 2.8 2.5 1.7 1 2.1 1.5 1.1 1.6-.9 0-1.9.7-2.3 1.5-.3.8-2.3 2.2-4.5 3.1-2.1.8-5.4 3.2-7.3 5.2-12 13.3-13.8 15.5-13.2 16.3.3.5-.3.9-1.3 1-1 0-1.3.3-.6.5.7.3.9 1.2.6 2-.4 1-.9 1.1-1.7.4-.9-.7-1.7 0-2.9 2.5-1.4 2.9-1.5 3.9-.5 5.5 1.8 2.8 5.9 2.5 9.2-.5 1.5-1.4 3.5-2.5 4.6-2.5 1 0 2-.3 2.2-.8.6-1.3 6.8-5.3 6.8-4.3 0 .5.8 1.1 1.7 1.3 1.3.2.4 1.6-3.8 5.8-3 3-6.3 6-7.4 6.6-1.8 1-1.4 3.4.6 3.4 1.2 0 23.9-22 23.9-23.1s-3 0-5.1 1.8c-1.5 1.3-1.7 1.2-1.5-1 0-1.4.4-2.3.7-2.1.4.2 1.3-.3 2-1.2 1-1.3 1-1.7-.1-2.4s-1.1-1.2-.2-2.3c.7-.7.9-1.7.5-2-1.2-1.2-5.1-.7-6.7.8-3.5 3.5-3.2 1.1.4-3.8 2.2-2.8 4-5.5 4-5.9 0-.9 10.7-7.8 12-7.8.6 0 .9.3.9.7-.1.5-.1 2.9 0 5.5.1 4.3.3 4.6 2.4 4.1 3.2-.8 8.2-4.7 15.9-12.2 8.6-8.4 9.6-9.3 10.2-8.2.6.8-3.3 4.9-14.4 14.9-4.5 4.2-5.4 5.6-5.5 8.6-.1 1.9.2 3.3.6 3.1.4-.3 1.2.2 1.9 1 .6.7 1.8 1.1 2.6.8s2.1 0 2.9.7c.8.6 1.9.9 2.4.6.5-.4 1.2-.2 1.5.3.4.5.2 1.2-.3 1.5-1 .6-.4 4.4 1 6.2.5.6 1 2.5 1.1 4.3.2 3.4 2.8 6.6 3.5 4.5.4-1.3 4-.7 6 .8 1.2 1 4.8-.9 8.7-4.4 1.1-1 2.4-1.8 3-1.8s-.7 1.5-2.9 3.2c-2.2 1.8-5 4.3-6.3 5.5l-2.3 2.1 2.4 2.6c1.3 1.4 2.9 2.6 3.5 2.6 1.5 0 .8 6.3-.7 6.8-.6.2-1.8 1.1-2.6 1.9-2.3 2.3-8.8 2.9-10.4.9-1.1-1.3-1.1-1.6 0-1.6.8 0 .3-.6-1.1-1.3-1.4-.8-2.4-1.9-2.2-2.5.1-.7-.1-1.2-.5-1.2-1.9.1-22.9 14-27.1 18-1.7 1.6-2.2 2.9-1.7 4.4 1.5 4.9.7 6-6.4 8.1-1.9.6-2.3.4-1.8-.9.6-1.5-2.1-3.8-4-3.5-2 .3-2.5-.2-1.4-1.5 1-1.2.8-1.7-.9-2.6-1.1-.6-2.4-.9-2.9-.6-.4.3-.6-.5-.4-1.8.3-1.6-.3-2.9-1.9-4.2-1.3-1-2.7-2.7-3.1-3.6-.5-1.4-1.2-1.5-3.7-.8-2.6.7-3.1.6-2.6-.5.4-1.2.2-1.3-1.3-.3-3.2 2-8.1 13.3-8.1 18.8 0 4.9.1 5 3 5 1.7 0 4.2-.7 5.5-1.6 3.2-2.1 3.2-.4 0 2.6-3 2.8-3.1 4.1-.5 6.5 1.1 1 2 2.4 2 3.2 0 .7.4 1.3.8 1.3 1.2 0 5.4 9.9 4.7 11.1-.4.5-.3.9 0 .9 1.5 0 10.1-2.4 10.5-2.9 1.8-2.3 11-6.1 11-4.6 0 .3-1.6 1.3-3.5 2.1-3.4 1.4-17.4 10-18.5 11.3-.3.3-1.4 1.1-2.5 1.7-1.3.7-2.1 2.4-2.3 4.8-.3 3.4-.2 3.6 2.6 3.6 1.6 0 4-.8 5.3-1.8s5.1-3.1 8.4-4.7c3.3-1.7 6.4-3.6 6.8-4.3.4-.6 1.3-1.2 2-1.2s2-.7 3-1.4c1.5-1.2 1.6-1.8.8-3.4-2-3.7-.5-4.9 6-5 6-.1 6.9.4 4.7 2.6-.9.9-.7 1.2 1 1.2 1.2 0 2.2.4 2.2 1 0 .5.7 1 1.6 1 2.2 0 11.8-3.3 12.5-4.3.9-1.2 7.8-1.7 8.4-.7.3.5-.1 2-1 3.3-1.3 2.1-2.1 2.3-6.8 1.9s-5.4-.1-7.7 2.4c-1.4 1.6-2.5 3.5-2.5 4.3s-2.3 2.2-5.4 3.3c-3 1-5.8 2.4-6.3 3.1-.4.6-.8.8-.8.4 0-.5-.5-.5-1-.2-.7.4-.7 1.2 0 2.5 1.4 2.7-.8 4-7.4 4.1-4.7.1-6 .6-7.6 2.6-2.1 2.7-8.4 6.3-11 6.3-.9 0-2.3.8-3.2 1.9-1.4 1.7-1.4 2.2-.1 5 1.5 3.1 1.6 3.1 9.4 3.1h7.8l-.6-3.5c-.5-3.1-.3-3.5 1.5-3.5 1.2 0 2.7.8 3.4 1.8 1.8 2.6 3.8 3.1 8.6 2.2 2.3-.4 4.2-.4 4.2 0 0 .9-4.7 3-6.7 3-1.4 0-1.4.3.2 2 1.1 1.3 1.9 3.6 1.9 6 0 3.4.3 4 2.1 4 1.1 0 2.9-1.1 3.9-2.5 1.3-1.7 2.8-2.5 5-2.5 1.8 0 5.8-.9 8.9-2 3.2-1.1 6.2-1.8 6.8-1.5.5.4 1.2-.1 1.5-.9.4-1.2 2-1.6 5.6-1.6 3.5 0 4.7-.3 4.2-1.2-.4-.7-.3-.8.5-.4.6.4 2.2.1 3.4-.7 1.2-.7 4.7-2.2 7.7-3.2 7.2-2.3 10.6-4.1 11.3-5.8.4-1-.2-1.5-2-1.5-1.4 0-3-.7-3.5-1.6s-1.3-1.4-1.9-1.1c-1.3.9-1.1-.4.4-1.9 1.4-1.5 7.9-1 8.9.7.4.7.5 1.9.2 2.7s-.6 1.9-.7 2.4c-.4 2.1 6.2 1.4 19.5-2 7.9-1.9 15.9-3.9 17.8-4.4 1.9-.4 2.7-.8 1.6-.9-1.4-.1-1.6-.4-.7-1.4 1.1-1.4 6.2-3.2 11.8-4.2 1.8-.3 4.4-1 5.8-1.5 3.3-1.2 16.3-4 18.9-4 3.7 0 .8 1-12.5 4.5-7.4 1.9-14.7 3.9-16.4 4.4l-3 .9 3.2.1c1.7.1 4.2-.3 5.5-.8 1.3-.4 5-1.1 8.3-1.4s4.9-.3 3.5 0c-1.4.2-2.9.9-3.4 1.4-.6.5-1.7.9-2.5.9-.9 0-3.4.9-5.6 2-2.2 1-6.8 2.5-10.2 3.2-3.5.6-6.3 1.6-6.3 2s-.7.8-1.6.8c-.8 0-4.7 1.4-8.6 3-3.9 1.7-8.4 3.3-10.1 3.5-1.6.3-3.9 1.1-5.1 1.8-1.1.6-2.4 1-2.8.9-.5-.1-.9.2-.9.8-.6 4.3-.4 4.5 4.6 4.8 6.8.5 7.7 1.7 2.6 3.8-4.4 1.7-5.4 3.4-2.1 3.4 2.2 0 2.5 1.2 1 3.9-.8 1.6-.4 1.9 2.8 2.5 2 .3 5.6.6 7.9.6 5.5 0 6.2 1.4 1.4 3-3.1 1-4 1.8-4.3 4.1-.3 1.6 0 3 .6 3.2s.4 1.1-.7 2.1c-.9 1-1.7 2.6-1.7 3.7 0 1.9-.9 2.3-4.2 2-1-.1-1.8.3-1.8.8 0 .6.8 1.1 1.8 1.1 1.9 0 7.5 4.4 7 5.6-.2.3 1.8 1.3 4.5 2.2 7.4 2.3 6.3 3.4-4.8 4.8-3.3.4-5.2 1-4.2 1.2 1.4.3 1.6 1 1.1 4.2-.6 3.6-.4 4 3.5 6.5 4.4 3 4.6 3.2 3.1 5.5-.6 1-1 1.1-1 .2 0-1.4-3.8-1.6-5.9-.3-.9.6 1.3 1.1 6.5 1.6 8.9.8 15.1 2.5 13.2 3.6-.7.5-1.8.3-2.4-.2-.8-.7-1.3-.6-1.6.2-.3 1-1.2 1-3.8.1-1.8-.7-5.2-1.2-7.6-1.2-3.4 0-4.2.3-4 1.7.2 1 1.2 1.9 2.4 2.1 1.1.2 2.6 1 3.2 1.8 1 1.1.9 1.4-.9 1.4-2.8 0-2.7 2.8.2 3.9 1.2.5 5.8 1.1 10.2 1.4 4.4.2 8.7.8 9.6 1.1 1.6.7 5.4 1.3 9.7 1.5 1.5.1 2.2.7 2.2 2.1 0 1.1-.5 2-1.1 2-.5 0-1.5 1.3-2 2.9-.9 2.7-1.3 2.8-4 2.1-2.4-.7-3.2-.5-4.2 1.1-.6 1-1.8 1.9-2.6 1.9s-1.2.2-.9.5c.4.4 15.9 1.9 34.6 3.2l7.2.5v-4.9c0-3.9-.5-5.4-2.4-7.2-2.1-2-2.3-2.7-1.4-5.2.5-1.6 1.4-2.9 1.9-2.9s.9-.5.9-1c0-2.6 4.8-8.1 8-9.1 3.9-1.3 5.2-2.7 4.5-4.8-.4-1 .1-1.2 1.7-.7 1.3.3 4.8.8 7.8 1.2 3 .3 8.2 1.1 11.5 1.9 14 3.2 17.4 3.7 20 3.3 1.7-.4 2.8-.1 3.2.8.3.8 1.1 1.4 1.8 1.4s2.6.7 4.1 1.5c1.6.8 2.4 1.5 1.7 1.5s-1.3 1.8-1.5 4.2c-.4 5.7 1.5 6.6 14.4 7.5 5.9.3 9.4.9 8.6 1.4-.7.5-2.3.9-3.5.9-3.4 0-2.8 1.7 1.5 4l3.7 2.1-7-.7c-3.8-.5-13.2-.8-20.7-.9-12.7 0-13.9-.2-15.7-2.2-1.8-1.9-2.5-2-6.2-1.2-2.3.6-6 .9-8.3.8-2.3-.2-5.5.4-7.1 1.2-2.9 1.4-3 1.6-3.1 9-.1 4.2-.4 10.3-.8 13.5-.4 3.7-.3 5.4.2 4.6.7-1 1.1-.5 1.6 2 .5 2.6 1.5 3.7 4.9 5.3 2.3 1.1 5.7 2.2 7.5 2.5 3.3.5 3.8 1.1 7.4 8.3.7 1.4.4 2.4-.8 3.9-2.5 2.7-.8 5 4.7 6.4 2.4.6 6.2 1.9 8.4 2.9s4.6 1.8 5.3 1.6c.7-.1 1.5.5 1.8 1.3s1.1 1.3 1.8 1 2.3.4 3.6 1.4l2.4 1.9-2.1.7c-2.1.7-2 .9 1.7 4.4 2.7 2.5 3.7 4.1 3.1 5-1 1.6 3 6.5 5.5 6.8 2.7.4 2.7 1.3 0 2-3.9.9-3.2 3.2 1.2 3.9 7.1 1.2 10.2 2.6 10.2 4.5 0 2.2-2.3 4.2-4.7 4-4-.5-8.3.1-8.3 1 0 .5 1.3 1.6 2.9 2.4 2.3 1.2 2.7 2 2.4 4.1-.3 1.4-1.2 2.5-1.9 2.5-.8 0-1.4.5-1.4 1 0 .6-.6 1-1.4.8-3.1-.7-7.2 7.1-4.6 8.7 2 1.2.9 2.6-1.7 2.3-2.2-.2-2.8-.8-2.8-2.6-.1-3-3.1-5.4-13-10.2-7.6-3.6-7.9-5.1-.7-3.1 2.1.6 3.2.6 3.2 0s.4-.8.9-.5 1.2-.2 1.6-1.2c.4-1.1-.2-2.4-1.9-3.9-1.4-1.2-2.6-2.8-2.6-3.5s-.9-1.9-2-2.6c-1.2-.7-1.8-1.7-1.5-2.1.2-.5-.2-1.1-1-1.5-.8-.3-1.5-1.2-1.5-2.1 0-.8-.4-1.5-1-1.5-.5 0-1-.7-1-1.5s-.7-1.5-1.6-1.5c-2.3 0-7.4 3.9-7.4 5.6 0 2.8-3.9 1.3-9-3.6-2.9-2.8-6.4-5.2-7.9-5.5-1.4-.3-4.4-1-6.6-1.7-5.2-1.4-11.8-1.4-17.6.1-3.9 1-4.9 1.8-6.4 5l-1.7 3.8 4.9 4.6c2.6 2.6 5.3 4.7 5.9 4.7.5 0 2.6 1.6 4.5 3.6 1.8 1.9 6.7 5.2 10.7 7.2 4.1 2 8.3 4.7 9.5 5.8 1.2 1.2 6.3 4.2 11.3 6.7 4.9 2.5 9.6 5.3 10.4 6.2 1.9 2.3 13.7 8.1 18.2 8.9 2.7.5 3.6 1.1 3.1 2.1-.3 1 .2 1.5 1.6 1.5 1.6 0 2.1-.6 2.1-2.8 0-3.6.9-4.7 4.3-4.9 1.5-.1 3.4-.9 4.3-1.7 2.3-2.3 2.4-2 .6 1.7-1.1 2.1-1.5 5-1.3 8.4.3 5 .2 5.1-2.9 5.8-2.1.5-3 1.1-2.6 2.1.8 2-.6 1.7-7.3-1.5-3.3-1.6-6.2-2.6-6.5-2.3-1.6 1.5-.3 5.3 2.5 7.6 3.5 3 2.6 3.3-2.8 1-7.9-3.4-10.8-5-14.7-8.3-5-4.1-9.9-6.4-19-8.8-3.7-1-7.8-2.8-9-4-2.7-2.7-15.1-8.6-16.7-8.1s13.2 12.4 18.7 15c2.6 1.3 4.7 3.3 5.7 5.3 1.2 2.6 2.7 3.5 7.8 5.3 3.5 1.1 8.4 2.8 10.9 3.8 2.5.9 5.4 1.6 6.5 1.6 3.1-.1 21 9.1 21 10.8 0 2.2-9.8 2.6-12.7.6-1.2-.9-3-1.6-4-1.6-2.9 0-2.1 2.9 1 3.5 1.5.4 4.2 1.3 6 2.1s3.9 1.4 4.7 1.4 2 1 2.6 2.2c.7 1.3 2 2.9 3.1 3.6 1.4 1 1.6 1.7.8 3.3-.9 1.6-2.2 1.9-7.3 1.9-6.6 0-21.3-3.5-31.2-7.4-3.3-1.3-7.8-2.9-10-3.6-5.2-1.6-8.5-4.7-8.5-8q0-2.55-3-4.8c-1.6-1.2-3.2-2.2-3.5-2.2-2 0-17.5-8.4-19.5-10.6-3.1-3.2-11.1-8.7-11.8-8-.2.3-1.3.1-2.3-.5-2.8-1.5-2.4.6.6 2.9 1.4 1.1 2.5 2.5 2.5 3.1s.5 1.1 1 1.1c.6 0 1 .6 1 1.3s4.1 5.3 9.1 10.3l9.1 8.9-5.1.7c-4.3.7-6.2.4-11.3-1.7-3.4-1.4-6.6-2.5-7.2-2.5-.5 0-2.2-1.1-3.6-2.5-1.5-1.4-11.5-7-22.4-12.5-20.4-10.4-26.2-12.1-27.2-8.3-.3 1.1-2.5 2.4-5.2 3.3-5.1 1.7-6.4 4-3.8 6.6 1.9 1.8 1.1 4.1-.8 2.5-1.5-1.2-4.1.3-3.2 1.8.4.6.3 1.1-.2 1.1s-1.4 1.1-2 2.5c-1 2.1-.8 2.7 1 4 2.2 1.4 2.2 1.6.6 6.2-1 2.7-1.9 5.9-2.1 7.3-.4 2-.5 1.9-.6-.8-.1-4.2-1.9-4.2-2.3 0-.3 2.9-.6 3.3-3 3.1-1.6-.1-2.8.2-2.8.8 0 .5-.9.9-2 .9-1.3 0-2 .7-2 2 0 1.1.5 2 1 2 .6 0 1 .6 1 1.4 0 .7.7 1.9 1.5 2.6 2.2 1.8 1.8 3-1 3-1.9 0-2.6.6-3 2.7-1.8 8.7-3.6 10-8.9 6.2l-3.1-2.2 2.1 2.4c5.1 5.9 6.4 7.2 6.4 6.5 0-.4 1.6 1.5 3.5 4.4 3.8 5.7 4.3 6.9 2 5-1.1-.9-1.5-.9-1.5-.1s-.5.9-1.9.1c-2.5-1.3-3.1-1.3-3.1.2 0 .7-.8 3.2-1.7 5.5-1.5 3.4-2.4 4.3-5.2 4.8s-4.1.1-7.5-2.4c-5.8-4.1-6.7-3.1-4.6 5.5 1.6 6.8 1.6 7.1-.1 6.7-1-.3-2-1.1-2.3-1.9s-1.2-1.4-2-1.4-2.3-1.4-3.3-3c-1.8-3.2-2.2-3.4-4.7-2.4-1.1.4-1.3 1.4-.9 3.5.6 3-1.7 6.9-4.1 6.9-2.3 0-5.8-13.2-3.7-14.4.5-.4 1.2.3 1.6 1.4.3 1.1 1.1 2 1.6 2 1.3 0 5.9-4.6 5.9-5.8 0-.6 1.1-1.3 2.5-1.6 1.4-.4 3-1.7 3.4-2.9 1.2-3 .2-7.7-1.5-7.7-.8 0-1.4-.3-1.4-.8 0-.4-1.9-1.6-4.1-2.7-4.5-2.1-7.3-5.2-9.5-10.4-2-4.8-.9-5.1 3.1-.8 2.1 2.3 3.5 3.1 3.5 2.2 0-.8.5-1.5 1-1.5.6 0 1 1.1 1 2.4 0 4.1 1 5.8 2.6 4.5 2-1.7 1.7-5.6-.4-6.2-2.4-.6-3.4-4.3-1.7-6.1 1.1-1.1 1.1-1.8-.1-4.2-4-7.6-7-11.4-9.1-11.4-1.2 0-2.3-.3-2.6-.8-.2-.4-.2 0 .1.8.2.8.5 2.9.6 4.7.1 2.7-.1 3-1.7 2.1-1.4-.7-1.7-1.6-1.2-3.5.4-1.6.2-2.2-.4-1.8-.7.3-.8 0-.5-.9.3-.8-.4-2.5-1.5-3.7-1.2-1.3-2.1-2.8-2.1-3.4 0-2.1-8-9.4-9.5-8.8-.8.3-1.5.9-1.5 1.4s-.4.8-.9.6c-.9-.2-8 7.3-8.1 8.6 0 .9 2.5.3 7.7-1.8 2.6-1.1 3.2-1.1 3.7 0 .2.7-.4 2.1-1.5 3.1-1 .9-1.9 1.2-1.9.6s-2.1 1-4.7 3.6-4.7 5-4.5 5.4c.1.5-.6.8-1.6.8-1.9 0-7.1-5-9.1-8.7-1.1-2.1-3.3-3.3-2.9-1.6.3 1.5-1.4 4.3-2.3 3.7-1.5-.9-1 .1 1.1 2.6 1.1 1.3 2 2.8 2 3.5 0 .6 1.1 1.8 2.5 2.5s2.5 2.1 2.5 3.1.8 2.3 1.9 2.8c1 .6 2.7 2.8 3.8 5 1.6 3.3 1.7 3.8.4 3.6-1.6-.2-6.7-6.6-9.9-12.5-1-1.9-2.4-3.5-3-3.5-.7 0-1.9-1-2.8-2.3-2.6-3.8-5.5-4.3-8.1-1.5-1.3 1.3-2.3 3.2-2.2 4.1 0 .9 2.5 3.7 5.5 6.2s5.7 5.5 6 6.8c.3 1.2.9 2.2 1.3 2.2s1.3 1.2 1.9 2.6c1 2 .9 2.8 0 3.8-2.1 2-4.9 2.7-8.3 2-2.9-.5-3.7-1.4-6-6.7-1.5-3.4-3.5-7.1-4.5-8.2-.9-1.1-2.9-4.1-4.3-6.6-2.8-5-4.4-6.1-7.5-5.2-2.7.7-3.5 4.3-2.1 10 2.5 11.3 4.3 17.4 5.1 17.9.4.3.8 2 .8 3.9 0 4.3 1.6 5.4 2.5 1.7.4-1.5 1.2-3.3 1.8-4.1.6-.7 1-2.7.8-4.4-.3-2.8-.1-2.9 2.6-2.2 3.7.9 3.1-.2 4.9 9.1.3 1.9.1 3.5-.5 3.8-.6.4-1.1.2-1.1-.3 0-1.8-5.3-1.2-7.7.8-2 1.6-2.3 2.9-2.3 8.5 0 3.5.5 6.8 1 7.1.6.3 1 2.6 1 5.1s.7 5.9 1.6 7.6c1 1.9 1.8 6.6 2.1 11.7.5 10 1.2 13.9 2.1 12.5 1.6-2.4 10-5.4 14.9-5.4 5 0 5.1-.1 5.6-3.2.5-3.2-.1-4.8-5.2-14.3-1.1-2.1-2.1-5.3-2.1-7 .1-2.5.9-1.4 5 6.5 7.2 13.9 10 15.2 14 6.7 1.4-2.8 2.7-5.4 3-5.7 1-1 1.1-5 .1-6.8-.5-1-.6-2.4-.2-3 .5-.9 1.7-.2 3.9 2.3 3.7 4 8.2 4.9 8.2 1.5 0-1.7.7-2 4.4-2 3.9 0 4.5.3 5 2.5 1 3.9-1.1 10.4-3.7 11.5-2.4.9-4.9 3.6-6 6.3-.4 1.1-1.7 1.7-3.7 1.7-1.7 0-2.9.4-2.6.9.4.5-.7 1.2-2.4 1.6-2.3.5-3 1.2-3 3.1 0 1.3-.6 2.4-1.2 2.5-.7 0-.4.4.6.8 1.3.5 1.6 1 .9 1.4-.6.4-1.9 0-2.7-.9-.9-.8-1.6-1.1-1.6-.5s-.8 1.1-1.8 1.1-2.7.6-3.8 1.4-4.4 2.1-7.5 3c-5.7 1.7-7.6 3.2-14.9 11.6-2.5 2.9-5.5 6.2-6.8 7.4-1.6 1.6-2.4 3.8-2.8 7.6-.8 8.7-1.4 10.6-2.5 8.9-.5-.7-.9-2.4-.9-3.6s-.8-2.6-1.7-3.1c-1.3-.8-1.8-3.3-2.4-12.8-1-14.6-2.1-21-4.8-26.2-1.2-2.3-2.1-5-2.1-6.1 0-1.2-.7-3.8-1.6-6s-1.4-4.8-1.1-5.8c.5-2.1 5.7 8.6 5.7 11.8 0 2.5 1.7 5.9 3 5.9.6 0 1-5.1 1-12.5 0-8.7-.3-12.5-1.1-12.5s-1-1.9-.6-6.2c.7-6.9-2-31.1-3.4-31.6-.5-.2-.9-1.7-.9-3.3 0-1.7-.7-5.4-1.6-8.2-.8-2.9-2.7-9-4.1-13.7s-3.6-10.8-4.9-13.5c-1.3-2.8-2.3-5.9-2.2-7s-.8-4.7-1.9-8c-1.6-4.5-2.3-9.7-2.7-20.5-.4-8.2-1.1-14.6-1.6-14.8-.6-.2-1.7-2-2.6-4-1.2-2.9-1.2-4.2-.3-6.4 1.1-2.8.9-9.2-1-21.6-1-7-1.4-7.7-3.4-6.9-.9.3-1.2 1.6-.9 3.6.4 3.2-1.5 8.2-5.2 13.6-1.2 1.6-2.1 3.1-2.1 3.2-.1.1-1 0-2.2-.3-1.5-.4-2.2-1.6-2.5-4-.3-3 0-3.7 2.9-5.7 1.8-1.2 3.3-2.8 3.3-3.5 0-.6.8-1.2 1.9-1.2 3.1 0 3.1-3.5 0-7-2.8-3.1-3.9-7-1.9-7 .6 0 1-.7 1-1.5s.7-3 1.6-4.8c1.8-3.8 1.9-3.5-4.2-13.9-7.3-12.3-15.5-18.4-14-10.4.3 1.7.3 2.6-.2 2.1-.4-.6-1.3-1-1.9-.9-.7.1-1.7.2-2.3.3-.5 0-1 .8-1 1.6s-.4 1.5-.9 1.5c-1.3 0-.8-7 .7-9.7.8-1.4.9-2.4.2-2.8-1.4-.9-1.3-2.6.2-2.3.8.2 1.1-1.1.9-4.1-.3-4.8.9-4.9 2.9-.2 1.1 2.7 1.4 2.8 4.3 2.1 3.1-.9 3.2-.9 1.1.8l-2.2 1.7 4.6 6.5c14.4 20.7 15.9 21.2 11.6 4-2-7.8-1.8-9.7 1-10.4 1.9-.5 2.3-1.2 2.2-3.8-.1-1.8-.5-3.6-.9-3.9-.5-.3-.9-1.3-1.1-2.2-.1-.9-1.6-3.4-3.4-5.6-3.7-4.6-3.9-5.5-1.3-7.3 1.3-1 2.1-3.5 3-9.7 1.4-10.3 1.4-16.4.2-15.6-1.6.9-3.5-3.5-2.2-4.8 1.7-1.7 1.4-10.3-.5-12.1-1.7-1.8-1.4-8.8.5-9.4.6-.2 1.1-2.2 1.1-4.4 0-2.6 1.4-6.8 3.9-12.1 7.2-15 7.6-16.4 5.8-18.5-1.4-1.6-1.3-2.3 2-8.9 2-4 3.7-9.1 3.9-11.4l.3-4.2-2.8 3.3c-1.7 2.1-3 2.9-3.4 2.3s0-1.8.9-2.7 1.3-2.4.9-3.5c-.4-1.4.3-2.5 2.5-4.1 4.6-3.3 6.9-8 7.7-16.3.5-4.7.4-4.8-1.5-3.6-1.2.7-2.3 2.3-2.7 3.6-.3 1.3-1 2.3-1.5 2.3-1.5 0-1.2-.9 1.1-4.1 1.1-1.6 1.7-2.9 1.3-2.9-.3 0-.1-.6.5-1.4.6-.7 1.4-3.4 1.7-5.9.4-2.6 1.5-5.4 2.5-6.3 1.1-.9 1.9-2.3 1.9-3s.5-2.5 1.2-4.1c1.2-3.1 1.5-3.8 1.7-5.3 0-.5 2.2-2.3 4.7-4.1 5-3.4 16.7-14.9 22.3-21.9 2-2.5 5.7-6.5 8.4-9 2.6-2.5 4.7-5.1 4.7-5.8 0-.6.5-1.2 1-1.2.6 0 1-2.2 1-4.8 0-6 2-9.3 4.4-7.3.9.8 1.6 2.8 1.6 4.7 0 3 .3 3.4 2.5 3.4 1.4 0 2.5-.4 2.5-.9 0-.4 2.6-2.6 5.8-4.9 3.1-2.2 8.4-6.8 11.7-10.1 10.9-10.9 11-10.9 7.2-13.3-2.4-1.7-5.4-1-7.6 1.6-.7.9-2 1.6-2.8 1.6-1 0-.7-1 1.2-3.7 1.4-2.1 2.5-4.7 2.5-6 0-3 1.1-5.7 1.9-4.4.4.5 2.6 1.1 5 1.3m-307.2 24.5c1.6 3.3 1.2 9.8-.7 10.5-.5.2-1 3.1-1.1 6.6-.2 5.2.1 6.6 1.9 8.5 1.2 1.3 2.2 2.6 2.2 3 0 1.4-3.6.6-6-1.3-2-1.5-2.3-2.3-1.4-3.7.8-1.2.7-3.4-.2-7.8-1-4.7-1.9-6.6-4.5-8.7-3.2-2.7-3.2-2.8-1.9-6.8s1.4-4.1 5.7-3.8c3.9.2 4.6.6 6 3.5m-109.5 48.1c1.7-.2 2.2-.9 2-2.6-.6-4.5 8.8-2 10.1 2.8.3 1.1.1 2-.4 2-1.4 0-1.1 2.6.5 3.9 1.4 1.2 1 6.1-.5 6.1-.5 0-.9-.5-.9-1 0-.6-1-1-2.1-1-1.2 0-4.6-2.1-7.7-4.7-4.7-4-5.7-4.5-7.3-3.4-1.4.8-2.5.9-3.9.1-2.1-1.1-2.7-3-1-3 .6 0 1-.5 1-1.1s-.6-.9-1.3-.6-1.3-.3-1.3-1.3c0-1.5.7-1.4 5.3 1.2 2.9 1.6 6.3 2.8 7.5 2.6m107.8 8.3c4.7 4.6 5.7 6.1 5.3 8.1-.3 1.8.2 3.2 1.8 4.7 1.3 1.2 3.1 4.8 4 8.2 1.6 5.9 1.6 5.9-.4 5.3-1.9-.6-2-.3-1.4 4.2 1.2 9.1 1.9 11.9 3.2 13.4.7.8 1.9 3.4 2.6 5.7.7 2.4 1.6 4.3 2.1 4.3.4 0 .8.5.8 1.2 0 .9-.3.9-1.2 0-2.6-2.6-3.8-1.3-3.8 4 0 6.9 2.1 14.6 6.1 22 .5 1 .9 2.9.9 4.2 0 1.4.5 2.8 1 3.1.6.3 1 1.8 1 3.2 0 1.6 1.2 3.7 3.1 5.5 2.7 2.6 2.9 3.1 1.5 4.1-2.3 1.7-2.7 9.5-.8 13.2.9 1.7 1.7 5.7 1.8 9.5.4 18.9 1.8 35.6 3 37.5.8 1.1 1.4 2.7 1.4 3.6s1.1 3.3 2.5 5.3c3.1 4.6 3.2 5.8.2 5-2-.4-2.6 0-3.7 2.5-.7 1.7-1.7 3.1-2.2 3.1-.7 0-.8 1.6-.4 4 .5 3 .1 4.7-1.4 7.2-1.4 2.3-2 5.1-2 8.9 0 3.9-.5 6.1-1.5 6.9-.9.7-1.4 1.9-1.1 2.6s.1 1.6-.4 1.9c-1.4.9 0 3.4 1.6 2.8.7-.3 2.3-2.1 3.5-4 2.3-3.7 2.9-3.7 3.3 0 .2 1.8-.3 2.7-1.5 3-1.1.3-1.9 1.4-1.9 2.6s-.4 2.1-.8 2.1c-1.2 0-3.5 4.9-3.8 8-.2 1.4-.5 6.4-.8 11.2s-1.2 11.1-2.1 14c-.8 2.9-1.7 9.3-1.9 14.3-.3 5.4-1.3 11.3-2.5 14.9-1.2 3.3-2.1 6.8-2.1 7.8s-.7 3.2-1.5 4.8c-2.7 5.3-4.8 26.9-2.5 25.5.9-.6 1 .1.5 2.6-.9 4.3-1.4 5.1-2.6 4.4-.5-.4-.9.6-.9 2.2 0 1.5-1.2 6.6-2.6 11.3-3.9 13-4.5 15.2-5.1 18.7-.3 2.1-1.1 3.3-2.2 3.4-1.5.1-1.5.2 0 .6 1.4.3 1.5.8.5 2.8-.6 1.4-1.6 2.5-2.2 2.5-.7 0-1.5 2.9-1.9 7.3-.4 3.9-1.1 9.2-1.5 11.7-.5 2.5-1.6 17.1-2.6 32.5-.9 15.4-2.1 28.3-2.6 28.6s-.8 1-.7 1.5c.4 2.4-.2 4.4-1.5 4.4-1.6 0-2.4-4.8-3.2-19.2-.5-7.8-.8-9-3-10.7-1.3-1-2.4-2.4-2.4-3s-.4-1.1-1-1.1c-.5 0-1-.7-1-1.5 0-1-1-1.5-3.3-1.5-1.8 0-3.8-.5-4.5-1.2s-1.2-.9-1.2-.5c0 1.4-7.9-3.3-9-5.2-.5-1.1-2.6-2.5-4.5-3.1s-3.5-1.6-3.5-2.1c0-1.1-5.7-1.2-6.2 0-.1.4-1.4 1.2-2.8 1.6-2.3.7-2.4.7-1-1 .8-1 1.5-2.5 1.6-3.4s.2-2.5.3-3.6c0-1.1 2.2-4.5 4.7-7.5 5.4-6.6 9.4-13.6 7.1-12.7-1.2.5-1.3-.1-.5-3.6.5-2.3 1.3-4.4 1.7-4.7.8-.5.8-1.7-.4-6.1-.9-3.6 1.6-5.6 5.1-4 1.4.6 2.3 1.4 2 1.9-.2.4.2 1.5.9 2.6 1.3 1.7 1.7 1.3 6-4.5 2.5-3.4 5.3-7.5 6.3-9.1.9-1.5 2-2.8 2.4-2.8s.8-.6.8-1.4.3-1.6.8-1.8c1.3-.5 11.6-15.7 11.1-16.3-.8-.7-5 3.5-4.5 4.4.4.5.2 1.2-.4 1.6-.5.3-1 0-1-.7 0-1.2-9.9 8.7-16.9 17-3.2 3.7-3.5 3.9-5.2 2.4-1.1-.9-1.9-2.2-1.9-2.9 0-.8-1-1.7-2.3-2.2s-3.8-2.1-5.6-3.7c-2.7-2.3-3.7-2.6-5.9-1.8-2.4.8-2.7 1.5-2.7 5.6 0 2.5-.3 4.9-.6 5.2-.3.4-3.1.4-6.2 0-6.5-.8-6.5-.8.5-10 2.1-2.8 3.8-5.7 3.8-6.5-.1-2-2.2-4.3-4.2-4.7-1.8-.3-5.8 3-5.8 4.9 0 .5-.4.8-.9.5s-1.5.4-2.4 1.7c-.8 1.2-5.1 6-9.6 10.6-4.4 4.6-8.1 8.8-8.1 9.2 0 1.6-3.8 3-4.6 1.7-.4-.7-.3-.8.5-.4.6.4 1.4.1 1.7-.8.3-.8 2.7-3.6 5.2-6.3 5.5-5.6 9.2-10.1 9.2-11 0-.7 7-9.5 8.5-10.5.6-.5.5-1.1-.5-1.8-.8-.5-1-1-.4-1 .8 0 .9-1.1.4-3.5-.4-1.9-.5-3.5-.1-3.5 1.7-.1-4.7-4-6.6-4s-2.2-.6-2.5-4.8c-.3-4-.6-4.7-2.5-5-2.4-.4-3-1.6-1.3-2.7 2-1.2.9-2.3-2.9-3-2.3-.4-4.8-.2-6 .5-3.6 1.9-13.1 9.2-13.1 10.1 0 .5-1.2 1.5-2.7 2.3-4.2 2.2-9.3 7-9.3 8.6 0 .9.3 1.1.8.5.4-.6 2.5-2.3 4.7-4 4.4-3.2 4.8-3.6 8.4-6.5 4-3.3 5.4-2.3 2.5 1.8-.8 1.2-1.2 2.2-.9 2.2.4 0-.1.8-1.1 1.7-1.7 1.7-1.7 1.8 0 2.1 1 .2 2.3-.1 2.9-.7 1.3-1.3 4.7-1.5 4.7-.2 0 .5-.7 1.5-1.7 2.2-.9.8-2.4 2.7-3.5 4.4-1 1.6-1.8 2.5-1.8 1.8 0-.6-.9-.9-2-.6s-2 .9-2 1.4-1.2.9-2.7.9q-2.85 0-1.5-.9c1.1-.7 1.1-.9-.1-1.4-.7-.3-2-.1-2.8.4-1.2.7-1.2.9 0 .9 2.7 0-.3 1.7-4 2.3-3.9.6-6.1-.7-5.2-2.9.4-1 0-1.2-1.3-.7-1.2.4-1.5.3-1-.5.4-.7.4-1.2 0-1.2-1 0-12.5 7.9-13.9 9.6-.5.6-3.1 2.3-5.6 3.7s-6.6 4.3-9 6.3c-4 3.4-7.6 5.3-9 5-.3 0-1.4.6-2.5 1.4-1.8 1.5-1.8 1.4-.2-1.1 1.6-2.6 1.6-2.6-1-2.2-1.5.2-2.1 0-1.4-.3s1.7-1.7 2.2-2.9c.5-1.3 3.3-4 6.2-5.9 5.2-3.6 9.3-4.6 10-2.5.5 1.4 6.5-2 7.3-4.1.5-1.2.4-1.3-.6-.3-2.1 2.1-2.9 1.5-2.7-1.7.2-2.7.6-3 3.6-3 2.9 0 3.2.2 2.3 1.4-.7.8-.8 1.7-.3 2s3.1-1.5 5.8-4 4-4.2 3-3.8c-1.6.6-1.8.4-1.4-2.1.7-3.3-1-7.7-2.5-6.8-.6.4-.8 0-.4-1 .3-1 .2-1.7-.3-1.7-.6 0-1-.7-1-1.6 0-1.2-.6-1.5-2.2-.9-1.3.4-3.5.9-4.9 1.2-1.5.3-4.8 2.2-7.4 4.4-2.6 2.1-5.6 3.9-6.6 3.9-2.4 0-2.4-1.2 0-2.5 1.1-.6 3.6-1.9 5.8-3 4-2 4-2.1 8.9-6 3.1-2.4 5.1-6.5 3.3-6.5-.5 0-.9.4-.9 1 0 .5-1.1 1-2.4 1s-2.7.6-2.9 1.2c-.3.7-.6-.1-.6-1.8-.1-1.6.5-3.6 1.2-4.3 1-1 .9-1.1-.3-.7-.8.3-2.1.2-2.9-.3-1.2-.8-1.2-1.2-.2-2.5 2.7-3.3-1.3-8.6-6.4-8.6-2.5 0-1.7-2.5 1.4-4.3 2.7-1.6 2.9-2.1 2.3-5.9-.7-5.2-3.8-10.8-6-10.8-3.9 0-5.9 1.3-7 4.5-.7 1.8-2.1 3.5-3.2 3.8s-2.3 1.4-2.7 2.5c-.5 1.1-3.9 5.3-7.8 9.4-3.8 4.1-9.9 10.7-13.4 14.6-3.5 4-6.9 7.2-7.5 7.2-.7 0-2.5 1.3-4.1 3-1.6 1.6-4.7 4.2-6.9 5.7-2.3 1.5-4.3 3.1-4.6 3.4s-1.5 1.2-2.8 1.8c-3.4 1.8-6-.7-5.4-5.1.5-3.2 6.6-10.9 8.4-10.5.6.1 1.4-.8 1.9-2.1.6-1.6.5-2.2-.5-2.2-.8 0-1.6-.5-1.8-1.1s-2.4.7-4.8 2.9c-9.3 8.4-10.3 9.2-11.6 9.2-.8 0-1.4.4-1.4 1 0 .5-1.2 1.3-2.7 1.6-1.5.4-3.4 1.3-4.1 2.1-2.2 2.1-3.1 1.5-3.8-2.4-.6-3.3-.3-4 2.5-6.5 1.7-1.5 2.8-2.8 2.5-2.8-.8 0 4.5-7.2 6-8.2.6-.4.2-.8-1-.8s-3.3.9-4.7 2-2.8 2-3.2 2c-.3 0-2.9 1.7-5.8 3.9-7 5.2-10.8 7-14.5 6.9-3.6-.1-4.5-2.7-1.2-3.5 1.1-.3 2-1 2-1.7 0-2.6 2.2-8.6 3.1-8.6.5 0 2.9-1.8 5.1-4 2.3-2.2 4.8-4 5.4-4 1.6 0 5.2-5.1 4.7-6.6-.2-.7-1.4-1-2.6-.7-1.6.3-1.8.2-.8-.5 1.6-1.1.6-3.2-1.5-3.2-1.3 0-5.3 1.8-6.4 3-.3.3-3.1 1.8-6.3 3.4-3.3 1.6-6.4 3.4-7 4.1-1.8 1.7-7.8 4.5-9.9 4.5-1 0-1.8.3-1.8.8 0 .4-1.8 1.5-4 2.5-2.2.9-4 2.3-4.1 2.9 0 .7-2.1 2.8-4.7 4.7-4.2 3.1-4.8 3.3-7.8 2.2-3.2-1.2-4.5-.9-11.1 2.2-1.3.6-2.6.7-3 .2-.5-.4-.3-.9.2-1.2 3.5-1.3 3.9-2.1 2.2-4.1-.9-1-1.4-2.2-1-2.5.3-.4-.5-.7-2-.7-1.4 0-2.8.4-3.1.9s-3 1.5-5.8 2.1c-5.2 1.2-13.4 6.1-12.2 7.3.3.3 1.2.3 2 0 1.5-.6 1.7.1.8 3.4-.4 1.3-1.3 2.3-2 2.3-.8 0-1.4.4-1.4 1 0 .5-.7 1-1.6 1-.8 0-1.2.5-.9 1.1.4.6 1.3.8 2.1.5 1.3-.5 1.9.6 1.5 2.7-.1.4.8.3 1.9-.3 1.2-.6 2.6-1 3.2-.8 1.1.4-12.3 8.8-20.8 13.1-2.7 1.4-6.7 2.8-8.7 3.2-3.3.7-3.7.5-3.7-1.4 0-1.4-.6-2.1-2-2.1-1.5 0-2-.7-2-2.6 0-3.3 5.2-8 9.9-8.9 3.1-.6 3.3-.9 1.6-1.5-1.7-.8-1.7-.9.8-.9 1.5-.1 2.7-.7 2.8-1.4.1-.6.5-.1.9 1.3.8 2.4.8 2.3.9-.8.1-2.5.7-3.5 2.6-4.2 5.1-1.9 1.8-2.3-5.5-.6-1.4.4-1.8.3-1-.1.8-.3 2-1.2 2.5-2 .6-.7 3.5-2.2 6.5-3.4 11.8-4.5 16-5.9 17.2-5.9.7 0 3.3-1.4 5.8-3l4.5-3-4 .6c-2.2.3-5.8.7-8 .8-2.2.2-5 .9-6.2 1.6-1.7 1.1-2.4 1.1-3.7.1-.8-.7-1.3-1.8-1-2.6.7-1.8 13.3-6.9 22.6-9.1 4.3-1.1 7.8-2.2 7.8-2.7 0-.4.6-.7 1.3-.7.6 0 4.1-2.7 7.6-5.9 6.3-5.8 10.5-8.3 9.4-5.6-.9 2.5 1.5 5 6.2 6.4 2.7.8 5 1 5.4.5.3-.5 2.3-1.8 4.5-2.9 2.1-1.1 4.1-2.5 4.3-3.2.3-.7 1.2-1.3 2-1.3.9 0 5.8-2.6 11-5.8 5.2-3.1 11.4-6.8 13.7-8.2 4.5-2.7 8.4-6 15-12.8 2.3-2.3 4.5-4.2 4.8-4.2.4 0 1.9-1.1 3.3-2.4 2.7-2.5 11.7-4.3 15.6-3.1l2.1.7-2.2 1.2c-2.9 1.4-4.6 5.6-2.4 5.6 2.7 0 12.4-3.1 12.4-4 0-.4 1.1-1.1 2.4-1.4 2.9-.7 4.3-3.6 1.8-3.6-.9 0-3.2.4-5 1-3.7 1-10.2.2-8.1-1 2.9-1.8-10.4-2.6-23.4-1.4-6.3.5-8.1.4-9.5-.9-1-.9-4.7-1.7-9.4-2.1-20.8-1.6-22.8-1.9-22.8-2.9 0-1.4 5.5-6.3 9.2-8.2 7.9-4.3 10.5-4.6 44-4.4 29.3 0 32.8-.1 37.3-1.8 5-1.9 5-1.9 5-6.4-.1-2.4-.5-6.1-.9-8.2-.7-3.3-.6-3.7 1.1-3.7 1 0 3.7-.9 5.8-2 2.7-1.4 5.5-2 8.8-1.9 3.7.2 5-.1 6.1-1.7.8-1.1 3-2.6 5-3.4 2-.7 3.6-1.7 3.6-2.2 0-.4.5-.8 1.1-.8s3.3-2.1 6-4.7c5.6-5.3 6.5-9.4 2.7-11.4-4-2.1-14.6-1.5-22.7 1.3-7.5 2.7-10.3 5-8.2 7.1.6.6 1.1 1.9 1.1 2.9 0 1.3-.8 1.8-3 1.8-2.3 0-3-.4-3-2 0-1.2.7-2 1.7-2 3.4 0-.3-1.9-4.7-2.5-8.5-1-12.9-2.7-13.8-5.5-.9-2.5-1-2.5-11.8-2.5-8.8 0-11.5-.4-13.7-1.8-1.6-1-4.7-1.7-7.9-1.8-9.2-.2-11.3-1.5-3.3-2.1 15.7-1.3 25.7-2.9 27.1-4.2.8-.8 1.4-2.4 1.4-3.6s1.4-3.5 3.1-5.2c2.6-2.6 3-3.7 2.7-7.2-.3-3.7-.1-4.1 2.2-4.3 6.3-.5 9.1 2.6 3.7 4.1-2.2.6-2.2.7.6 2.9 1.5 1.3 2.7 2.7 2.7 3.3s1.1 1.6 2.5 2.2 2.4 1.7 2.3 2.4c-.3 1.5 12.2 1.8 15.7.4 1.1-.4 5.5-.8 9.7-.9 5.5-.2 7.8-.6 7.8-1.5 0-.6 1.1-1.2 2.4-1.2 1.4 0 2.8-.5 3.1-1 .3-.6 2.1-1 3.9-1 7.6 0 12.4-1.2 12.9-3.2.7-2.6-.2-4.8-1.9-4.8-.8 0-1.4-.5-1.4-1.1 0-.7-1-.9-2.5-.5-1.4.4-2.5.2-2.5-.4 0-.5 1-1.1 2.3-1.1 4.4-.2 5-.4 5.4-1.7.3-.6-.3-1.2-1.2-1.2-1 0-1.5-.5-1.2-1.4.3-.7 0-1.9-.6-2.5-.8-.8-.8-1.1.1-1.1 2.2 0-.5-3.6-3.5-4.9-3.2-1.3-14.9-4-21-4.8-2.6-.3-4-1-3.6-1.6.4-.7-.8-.8-3.5-.4-2.4.4-4.3.3-4.7-.3-.9-1.4-3.7-1.2-7.3.6-4 1.9-9.6 1.5-10-.8-.2-1.1.5-1.8 2-2.1 2.1-.4 2.1-.4-.3-.6-1.6 0-2.9.5-3.3 1.5-.3.8-1 1.3-1.5.9-.5-.3-1.3-.1-1.6.5-.5.8-1.1.7-2.1-.1-1.1-.9-1.4-.8-1.4.4 0 1-.6 1.4-1.5 1.1-.8-.4-1.3-1-1-1.4.3-.5-.1-1.1-.7-1.3-1-.4-.9-.8.2-1.6 1.7-1.2 1-1.5-5.2-2.6-6.1-1-4.5-2.7 2-2.1 20.2 1.8 18.9 1.9 19.5-1.1.6-2.9-1.5-7.3-3.4-7.3-.5 0-2.6-.7-4.7-1.5-2.7-1.2-3.3-1.8-2.3-2.4.9-.6.2-1.2-2.5-2.1-2.2-.7-4.3-1.6-4.9-2-.5-.4-1.9-1-3-1.3s1.1-.5 4.9-.3l6.9.2 2.3-4.9c1.2-2.8 2.8-5.3 3.5-5.7 2-1.3.1-2.7-4.6-3.4-2.4-.4-4.7-1.1-5-1.7-.4-.5-2-.9-3.6-.9-3.3 0-8.8-2-12.2-4.6-2.1-1.5-1.7-1.6 6.5-1 4.7.4 10.1 1.1 12 1.7 14.2 4.4 17.2 4.7 16.3 2-.3-1.1.1-2.6 1.1-3.5.9-1 1.7-2.9 1.7-4.3-.1-1.9.7-2.8 3.1-3.9 1.7-.7 2.6-1.3 2-1.4-1.5 0-.5-5.3 1.2-6.3.7-.4 1.1-1.4.8-2.1-.7-1.8 4.1-3 6.4-1.7 1.5.9 1.4 1-.5 1.1-2.5 0-3.9 1.5-2.2 2.5.7.5.3 1.4-1.2 2.8l-2.2 2.1 2.3 1c1.8.8 2.5.7 2.8-.2.2-.8.8-1 1.5-.4.7.5 2.9 1.5 4.9 2.1 4.7 1.5 7.1 4.1 3.8 4.1-3.2 0-10.4-2.2-11.2-3.4-1.4-2.1-1.7.1-.3 2.7 1.2 2.4 1.2 2.7-.1 2.7-.8 0-1.2.5-.9 1 .4.6 1 .8 1.3.6.4-.2.7.7.6 2.2 0 1.9-.9 2.9-2.9 3.8-2.9 1.2-2.8 1.4 2.4 4.1 1.3.7 5.2 1.3 8.7 1.3s6.4.4 6.4.9c0 2.2 19.5 5.2 26.9 4.2 3.1-.4 4.5-1.1 4.7-2.3.3-2-2.6-2.7-10.9-2.7-3.1 0-6.5-.5-7.4-1-1.3-.7-.8-.9 2.1-.8 2.2.1 4.1-.5 4.6-1.3.7-1.1 1.2-1.1 2.3-.2 2.1 1.7 11.2 2.9 10.3 1.3-.5-.8 0-1.4 1.3-1.8 1.2-.3 2.1-1 2.1-1.5s-.5-.6-1-.3c-1 .6-15-4.2-15-5.2 0-.9 11.5 1 12.2 2 1.1 1.8 4.6 1.5 5.1-.5.4-1.5 0-1.8-2.3-1.6-2.9.2-7.9-3-13.7-8.7-3.5-3.5-11.6-6.8-13.2-5.2-.6.6-1.1.2-1.5-.9-.7-2.2-7.5-6.5-12.8-8.3-2.6-.9-3.9-2.1-4.7-4.2-.7-2.1-1.6-2.9-3.3-2.9-1.3 0-3.3-.6-4.4-1.4s-4.7-1.8-8-2.1c-3.2-.4-6.8-.9-7.9-1.1-2.5-.4-15.5-6.6-15.5-7.3 0-.3 2.4-.7 5.3-.9 2.8-.2 5.6-.7 6.1-1.2 1.5-1.5 3.6-1.2 4.3.7 1.6 4.3 9.1 8.4 15.2 8.2 2 0 3-.3 2.4-.6-2.7-1-1.1-2.2 3.5-2.5 4.4-.3 4.7-.5 4.7-3.1-.1-1.5.3-2.7.8-2.7.4 0 .5-1.6.1-3.6-.6-3.5-.6-3.6 1.7-2.9 1.8.5 1.5 0-1.2-1.9-4.6-3.2-15.2-8.6-16.9-8.6-1.5 0-11.3-6.1-10.7-6.6.8-.8 9.9 2.8 17.7 6.9 9.2 4.9 16.9 7.5 17.9 5.9.3-.5 2-1.3 3.7-1.6 4.1-.9 5.9 1.1 4.4 4.9-.6 1.5-.9 2.9-.7 3.1s3.5 1.9 7.3 3.8c6.5 3.1 17.7 10.6 17 11.3-.2.2-1.5-.1-3-.6-2.5-1-2.6-.9-2.6 2.8 0 5.7 3.8 9.1 10 9.1 5.2 0 6.5.7 4.9 2.7-.9.9-.8 1.3 0 1.3.6 0 2 .9 3.1 2 1.5 1.5 2.8 1.9 5.5 1.4 2.7-.4 3.5-.2 3.5 1 0 2.5 6.9 5 10 3.6 2.3-1.1 2.4-1.3.7-2.5-1.6-1.2-1.6-1.3.8-1.9 3.3-.8 3.2-3.4-.1-4.7-2.6-.9-8.8.7-7.9 2.1.2.4-.2.7-1 .7s-1.3-1.1-1.3-2.9c.1-1.5.4-2.8.8-2.8s1.3-1.4 2-3c.7-1.7 1.9-3 2.6-3 .8 0 1.4-.5 1.4-1.1 0-.5.5-.7 1-.4.8.5.8 1.1 0 2-1.6 1.9.5 4.9 4.7 6.9 4.6 2.2 6 2 8.9-1l2.6-2.5-6-5.7c-3.8-3.7-9.5-7.6-15.3-10.6l-9.3-4.7-1.3 2.5c-1.5 2.8-4.3 3.5-4.3 1.2 0-.8-.6-1.7-1.2-2-.9-.3-.8-.8.5-1.6 1.2-.8 1.5-1.8 1.1-3.4-.8-3.3 3-4.2 6-1.4 3.3 3.1 24.1 15.4 25.6 15.1.6-.2 1.8-3.4 1.9-5 .2-3.3-19.2-15.6-24.6-15.6-3 0-3.8-.7-3.4-3.1.1-.5-.3-1.2-1-1.6-.8-.6-.8-1.3 0-2.8.8-1.6.6-2.5-1-4.6-1.8-2.2-1.8-2.7-.5-3.2 2.2-.9 6.8.9 8 3.2.6 1 1.6 2.2 2.1 2.6.6.5.5 1.1-.4 1.7-1.8 1.2-.8 2.1 16.7 16.1 3.5 2.7 6.9 5 7.5 5 .7 0 .6.4-.3 1.1-1.2.8-1 .9 1 .7 1.9-.2 2.6-.9 2.7-2.8.1-1.4.5-6.4.8-11.3.4-4.8 1-8.7 1.5-8.7 1.1 0 1.7 22.5.8 28.5-1.1 6.9-4.1 18.9-4.9 19.5-1.2 1-1.7 5-.6 5.1q1.2 0 0 .6c-.7.2-1.3 1.5-1.3 2.7s-.7 3.1-1.5 4.4c-1.2 1.7-1.3 2.6-.5 4.3.8 1.5.8 2.9.1 5.1-.6 1.7-1.1 4.1-1.1 5.4 0 1.4-1 3-2.5 4s-2.5 2.6-2.5 4c0 1.3-.4 2.4-1 2.4-.5 0-1 .8-1 1.8s-.3 2.2-.7 2.6c-1 .9-3.3 18.8-2.6 19.8.2.5 1.2.8 2.1.8.9.1 2.8.7 4.1 1.4 2.2 1.2 2 1.4-3.8 2-5.8.7-6.2.9-7.6 4.2-.8 2-2.1 3.4-3.1 3.4-.9 0-3.3 1.2-5.3 2.7s-3.7 2.6-3.9 2.3c-.1-.3-1.1 1-2.2 2.7-1.1 1.8-2.7 3.3-3.5 3.3-.9 0-1.3.4-1 1 .3.5.1 1-.6 1-.6 0-2.7 1.3-4.6 3-1.8 1.6-3.8 3-4.3 3-.6 0-1 .6-1 1.3 0 1.4-3.5 4.7-5 4.7-.6 0-1 .4-1 .9 0 1.8 4.5 1.6 6.5-.2 1.1-1 3.6-2.7 5.5-3.7 1.9-1.1 2.9-1.9 2.2-2-.7 0-1-.5-.7-1 .4-.6 1.2-1 1.8-.9 2.4.3 3.5-.2 6.1-2.6 1.5-1.4 3.4-2.5 4.2-2.5.7 0 1.4-.5 1.4-1 0-.6 1.1-1 2.5-1 3.2 0 3.2-1.6 0-2.4q-2.4-.6-1.8-2.1c.3-1 1.2-1.3 2.3-1 1.8.6 8.2-1.4 13.2-4.1 3.7-2 4-1.8 3.3 1.8-.9 3.8-3 6.4-4 4.7-.5-.7-1.1-.7-1.7-.1-1.1 1.1-.3 3.2 1.1 3.2.5 0 2.1-1.2 3.6-2.6s3.1-2.1 3.4-1.6c1.1 1.7 5-.6 5-3 0-1.3.1-3.3.1-4.5 0-2.3 2-4.3 2-2.1.1.8.5.7 1.4-.5.8-1 1.7-1.4 2-.9.6 1-2.1 2.7-3.6 2.4-.5-.1-.8.3-.8.8 0 .6.4 1 .9 1s.7.9.4 2c-.4 1.6 0 2 1.8 2 5.3 0 6.3 3 1.4 4.4-1.1.3.9.3 4.4.1 6.9-.5 17.7-4.7 16.6-6.5-.7-1.1 1.7-1.4 2.8-.4.6.6-4.1 7.6-5.6 8.2-.4.2-.5.8-.2 1.3s-1.9.7-5 .5c-3-.2-5.8.1-6.1.6s-1.1.7-1.8.5c-.6-.2-2-.1-3.1.3-1.9.7-1.9.8.5 1.8l2.5 1-2.7.7c-1.5.4-2.9 1.4-3.3 2.3-.5 1.3-.8 1.4-1.4.3-.7-1-1-.9-1.6.8-.3 1.1-1 2.1-1.5 2.1-1.3 0-4 3-4 4.5 0 2.2 2.9 2.5 7.1.9 5-2 6.3-1.1 1.9 1.3-1.8 1-5.6 3.9-8.4 6.5s-6 4.8-7.1 4.8c-1.5 0-1.6-.3-.7-1.2 1.6-1.6 1.5-3.1 0-2.1-.7.4-1.5.8-1.8.9-.3 0-1.8.6-3.3 1.2-1.6.7-3.2 1.2-3.7 1.2-1.6 0-6 5.4-6 7.3 0 1 .4 1.6.9 1.2.5-.3 1.2-.1 1.6.5.3.5-.1 1-1 1-.8 0-2-1-2.6-2.3l-1-2.2.5 2.3c.6 2.9-.2 5.2-1.8 5.2-.6 0-1.8.9-2.6 1.9-.7 1.1-1.7 1.8-2.2 1.5-.4-.3-.8 0-.8.5 0 1.4 1.7 1.4 2.6 0 .3-.6 2.5-2 4.8-3.1 2.2-1.1 6.4-3.3 9.1-4.9 2.8-1.6 5.9-2.8 7-2.8 1.3 0 .1 1-3 2.6-2.7 1.4-5.1 3-5.3 3.4-.2.5-.9.9-1.7.9-.7 0-1.9.7-2.6 1.7-.8.9-2.7 2.2-4.4 3-1.6.8-4.3 2.2-6 3.1-2.9 1.6-2.9 1.7-.7 2 1.3.2 2.9-.1 3.6-.7 1-.9 1.5-.8 2 .4.3.9 0 1.5-1 1.5-.8 0-3.9 1.1-6.7 2.4-6.7 3.2-22.1 9.6-22.9 9.6-.4 0-1.9.5-3.5 1.2-3.2 1.3-3.8 1.5-5.5 1.7-.9.1-.9.4.2 1.1 1.2.7 1.1 1.2-.5 3-1 1.1-2.5 1.8-3.4 1.5-.9-.2-2.1-.1-2.7.3-1.5.9-2.9 10.2-1.5 10.2 1.3 0 16.1-10 16.1-10.9 0-.8 7-4.4 7.5-3.9.7.7-2.4 3.6-7.6 7.1-3.1 2.1-6.9 5-8.6 6.5-1.6 1.5-4.8 4.3-6.9 6.2-5 4.4-6.6 6.7-3.5 5 1.2-.6 2.5-1.8 2.8-2.6s1.3-1.4 2.4-1.4c1 0 2.7-.9 3.8-2.1 1.2-1.3 2.1-1.7 2.6-1 .3.6.1 1.1-.5 1.1-.7 0-1 .6-.7 1.3.5 1.3-.5 1.7-4.7 1.8-1 0-1.6.3-1.3.5.8.9-5.4 5.9-9 7.3-4 1.6-5.2 4.1-1.9 4.1 1.3 0 4.6-1.6 7.2-3.5 2.7-2 7.6-5.3 10.9-7.4s7.2-5 8.7-6.4c1.7-1.5 2.9-2 3.2-1.3s.7.8 1.3.1c.4-.6 2-1.7 3.4-2.5 1.5-.8 4.6-2.8 7-4.5l6-4c4.4-2.7 12.6-8.6 14.6-10.5 1.3-1.1 2.5-2 2.8-2 1.7 0 11.2-7.7 18.2-14.8 8-8 8.2-8.3 6.4-10.1-1-1-2.5-2.1-3.2-2.3-.9-.3.2-1.3 2.6-2.5 2.2-1.2 5.2-3.2 6.6-4.4 3.3-3.1 8.6-6.9 9.5-6.9.8 0 6.4-6.3 6.4-7.3 0-.4-.9-.2-2 .5s-2 1.6-2 2.1c0 .4-.4.6-1 .2-.5-.3-2.5.1-4.5.9-2.7 1.1-3.5 1.2-3.3.3.3-.6 2.3-1.8 4.5-2.6 2.5-.9 4.7-2.6 5.7-4.3 1.5-2.5 3.3-3.4 6-2.9 1.3.3 2.6-2 2.6-4.7 0-1.2.3-2.2.8-2.2.8 0 3.8-6.1 3.4-7.3-.1-.4.5-2.1 1.3-3.7.9-1.8 1.1-3.1.5-3.5s.3-2.6 2.2-5.3c1.8-2.6 3.1-4.7 2.9-4.7-1.9 0 5.7-19.9 8.3-21.7.5-.3 1.3-3.6 1.7-7.3.6-4.6 1.4-7.2 2.6-8.1 1-.7 1.4-1.4.9-1.4s-.2-.8.8-1.9c.9-1 2.1-3.1 2.6-4.7s1.6-4.9 2.5-7.4c.9-2.4 1.5-6.5 1.4-9s.1-5.3.5-6.2c.5-1 .1-7.3-.8-14-.9-6.8-1.8-14.2-2-16.4-.9-7.9-2.7-12.6-6.9-17.2-2.3-2.6-4.5-4.9-4.9-5-.5-.2-.8-.9-.8-1.5 0-1.1 2.1.7 11 9.4m417.5-.2c-2.7 2.4-33.7 18.1-35.7 18.1-1.7 0-5.8 2.8-5.8 4 0 .4 1.6.7 3.7.5l3.6-.2-3.1 2.7c-3.5 3.1-4 4.5-1.7 5.4 1.3.5 1.3.9.3 2.6-.7 1.1-1.6 1.6-2.1 1.1s-2.2-.5-4 0c-1.7.5-3.2.7-3.4.5-.6-.5 3.8-4.6 4.9-4.6.4 0 .8-.4.8-.9s-1.5-.5-3.6-.1c-3.1.7-3.7.6-4.1-1.1-.3-1-.9-1.6-1.4-1.3-1.5.9-1-3.3.6-4.6 1.5-1.3 2.1-3.5.8-2.7s-5.5-1.2-4.8-2.2c.3-.5.1-1.2-.5-1.6-1.4-.9-1.2-2.6.3-2.4.6.1 2.5-.3 4-.9 1.6-.7 3.5-1.2 4.3-1.2 1.6 0 1.9 1.6.4 2.5s-.8 5.2 1 5.3c1.7 0 5.3-1.2 12.5-4.4 2.8-1.2 7.3-3.1 10-4.3 2.8-1.2 8.8-4.1 13.5-6.5 8.3-4.3 11.4-5.5 9.5-3.7m-804.9 40.6 2.9 2.5h-4.8c-4.1 0-4.8.3-4.5 1.7.2 1.2 1.6 2 3.8 2.4 1.9.3 4.5.9 5.8 1.4 2.1.7 2.1.8.5 2.1-1.7 1.2-1.7 1.3 0 2 3.1 1.1 6.1 1 7.2-.3 2-2.5 3.5.3 3.7 6.8.1 6.8-.9 9.6-5.2 14.1-3.2 3.3-6.6 4.2-17.3 4.2-6.7 0-9-.3-9.7-1.4s-.5-1.6.5-1.8c.8-.2 1.5-1.1 1.5-2.1 0-1.9-4.8-5.1-6.7-4.4-.7.3-1.3-.1-1.3-.8s-.7-2-1.6-3c-1.4-1.6-1.4-1.9.5-3.8 1.3-1.3 1.6-2.1.9-2.2-2.1-.1 4.5-2.8 7-2.9 1.8 0 2.2-.6 2.2-3.1 0-2.1 1-4 3-6.1 1.7-1.6 3-3.6 3-4.3s1.2-1.8 2.8-2.3c1.5-.6 2.7-1.1 2.8-1.1 0-.1 1.4 1 3 2.4m993.7 34.6c1.2.7 3.5 2.3 5.1 3.6 2.3 1.9 3.1 2.1 3.7 1.1.6-.9.9-.9.9-.1 0 .6-.5 1.5-1 1.8-.6.3-.7 1.7-.4 3.1 1 4-2.6 8.6-10 12.5-3.3 1.8-5 2-10 1.5-5.6-.6-10.2-1.7-15.1-3.7-1.8-.7-1.8-.8.5-.8 1.4-.1 3.1-.5 3.9-1 1.6-1.1.1-1.6-7.2-2.7-2.6-.3-4.9-.9-5.1-1.3-.6-.9 1.6-3.6 3.7-4.4 1.4-.5 1.7-1.4 1.2-4.1l-.7-3.4 5.6-.7c3.1-.4 5.9-1.1 6.2-1.6.8-1.3 16.2-1.1 18.7.2m-966.1 7.8c4 1.1 10 2.3 13.3 2.6 8.4.9 13.2 2.3 13.3 3.7 0 .7.4 2.3.7 3.5.7 2.2.5 2.3-4.3 2.3-10.6 0-11.1 2.5-.7 3.4 8.4.8 10.5 1.3 10.5 2.8 0 2.2-34.2-1.5-37.2-3.9-.8-.7-2.9-1.6-4.7-1.9-3.9-.8-5.1-2.4-1.7-2.4 1.8 0 2.6-.5 2.6-1.8 0-1.1-.3-1.3-.8-.5q-.75 1.2-2.4-1.8c-.9-1.6-1.3-2.9-.7-2.9.5 0 .7-1.1.3-2.5-.5-2.2-.3-2.5 2-2.5 1.4 0 5.8.9 9.8 1.9m-23.7 9.7c.9.4 1.2 1 .7 1.3s-1.3 2-1.6 3.7c-.7 3-.5 3.1 3.1 3.8 6.5 1 14.1.7 14.7-.7.3-.9.9-.7 1.9.5.8 1 1.7 1.8 2.1 1.8.9 0 4.6 3.9 4.6 4.9 0 1.5-16.3 2.4-21.9 1.2-2.9-.6-8.1-1.1-11.6-1.1-5.5 0-6.5-.3-7-2-.3-1.1-.1-3.5.6-5.4 1-2.7 1.9-3.6 4.5-4.1 1.8-.3 4.3-1.4 5.6-2.5 2.7-2.3 2.3-2.1 4.3-1.4m951.2 11.3c1.5.1 4.5 5.6 3.6 6.5-.4.3-1.5.6-2.5.6s-1.8.6-1.8 1.4c0 2.2-2.4 2.6-18.3 2.7-12.2.1-14.4.3-11.2 1.1 2.2.5 7.6.7 12 .4 9.2-.6 19 .5 20.8 2.4.9 1 .9 1.3 0 1.7-2.2.8-1.4 3.1 1.2 3.7 1.4.4 2.5 1.1 2.5 1.6 0 2.2 20.8.3 23.4-2.1 1-.9.2-1.3-4.6-2.3-3.7-.8-3.9-4.4-.3-4.4 2.6 0 4.2-.8 3.4-1.7-.5-.4-14.2-2.8-16.7-2.8-.7 0-1.1-.5-.9-1.1.5-1.6 14.3-1.9 20.7-.5 6.8 1.5 8 2.4 4.3 3.4-2.7.6-2.7.7-.9 2.1 1.1.8 3.4 1.4 5 1.5 1.7 0 4 .4 5.1.9 1.9.7 1.8.9-.7 1.9-2 .7-2.8 1.8-2.8 3.5 0 1.8.4 2.4 1.4 2 .8-.3 1.7-.1 2 .4 1 1.6-5.2 3.2-12.5 3.2-6.8 0-9.8 1.3-5.6 2.4 1.2.3 5.1.6 8.7.7l6.5.1-4 1.2-4 1.3 4 .7c2.2.4 4.7.9 5.5 1s-.6.6-3.2 1c-2.7.5-4.8 1.2-4.8 1.7s-.8.9-1.7 1c-1 .1 0 .5 2.2.9 6.7 1.4 10 2.9 8.7 4.2-1.4 1.4-4.6 1.3-17.2-.6-5.8-.8-13.4-1.6-17-1.6s-7.2-.5-8-1c-1.2-.8-1-1 1-1 1.4-.1 7.6-.2 13.7-.3 6.2-.1 11.3-.4 11.3-.7 0-1.7-25.6-6-40.4-6.7-11.4-.6-9.4-2.2 2.9-2.4l9-.1-7.8-1.3c-4.3-.7-9-2.1-10.4-3-4.7-3.1-40.3-4.8-40.3-2 0 .8-.5 1.6-1 1.8-.6.3-.5.4.2.3s2.1.6 3.2 1.6 3.2 1.8 4.8 1.8c1.5 0 2.8.5 2.8 1.1 0 .9-2.3 1-8.2.6-10.1-.8-15.8-2.3-15.8-4.2 0-.8-.5-1.5-1.1-1.5-.5 0-.7-.5-.4-1 .4-.6 1.1-.7 1.7-.4.6.4 2.1-.5 3.3-2 1.1-1.4 3.1-2.8 4.3-3.1 1.2-.2 2.6-.6 3.1-.9.4-.3 2.3-.7 4.2-1 1.9-.2 4.5-.9 5.9-1.5l2.5-1h-2.8c-2.5-.1-2.7-.3-1.7-2.1.7-1.3 2.1-2 3.8-2 15.9.3 20.4-.7 13.7-3.1-2.1-.8-3.1-1.7-2.6-2.2s7.4-1.5 15.3-2.1c12.3-.9 16.4-1.1 23.5-.7m-900.3 9c16.9.7 27.4 1.5 28.2 2.2 1.7 1.4 1.8 4.1.4 5.5-.8.8-.6 1.5.5 2.4 1.8 1.5 2 3 .4 3-.6 0-2.2.9-3.5 1.9-2.2 1.7-2.2 2-.6 2.7.9.4 2.3.6 3 .5.6-.1 1.2.2 1.2.8 0 .5-2.3 1.2-5 1.6-4.1.6-5.6.3-7.8-1.2-1.5-1-3.1-1.8-3.7-1.9-2.8-.1-8.5-2.7-8.5-3.9 0-.8 1.7-1.6 4.2-2 4.4-.8 7.8-2.4 7.8-3.8 0-1.5-3-3.8-6.2-4.8-2-.6-15.9-.9-33.8-.8-40.5.2-42.3.2-41.8-1.4 1-2.7 12-2.8 65.2-.8m432.7 14.9c7.7 5.7 11.5 8.7 13.8 11l2.5 2.3 1.2-2.8 1.2-2.8.1 2.7c.1 3 1 3.5 2.9 1.6 1-1 1.2-.7 1 1.2-.3 2.1.2 2.6 3.2 3.2 3 .5 2.9.6-1.5.5l-5-.1.2 9.1c.2 5 .3 9.5.5 10 .1.4-.2 3.9-.6 7.6-.5 4.1-.4 7.3.2 8s.6 5.6.1 12.7c-1.1 16 0 22.1 3.2 17.9 1.8-2.3 1.9-2.3 1.9-.4 0 1.2-.5 2.6-1.2 3.3-.9.9-.9 1.7.2 3.6.7 1.4 1 3.2.6 4.2-.4.9.2 3.1 1.4 5.1 3 5 2.4 5.9-1.1 1.8-3.1-3.5-3.2-3.5-4.6-1.5-1 1.5-1.4 4.1-1.2 9 .2 3.9 0 7-.5 7-.4 0-.9-3.8-1-8.5-.1-4.6-.5-8.7-.8-9.1-.4-.3-1.7.2-3 1-3.1 2-4.4.9-1.6-1.3 1.8-1.5 1.9-2.1.9-4-.9-1.7-1-2.6-.1-3.6.8-1 .7-2.1-.4-4.4-2.3-4.4-2-4.8 1.3-1.7l2.8 2.7.6-3.8c.4-2.1.7-8.4.7-14.1 0-10-.1-10.3-2.5-11.2-1.4-.5-2.5-1.7-2.5-2.5 0-1.2.4-1.4 1.9-.5 1.1.5 2.2 1 2.5 1 1.2 0 .6-12.6-.6-13.8-.7-.7-.8-1.2-.3-1.2 1.2 0 2-17.9 1-20.9-.4-1.5-1.6-2.1-3.8-2.2-2.4-.1-2.6-.3-.9-.6 2.2-.4 2.2-.5.5-3.4-1-1.6-2.3-2.9-2.9-2.9-.7 0-2.2-1.1-3.5-2.5-1.3-1.3-2.8-2.5-3.4-2.5-1.3-.1-9.3-7-8-6.9.6 0 2.6 1.2 4.6 2.7m624.3 7.2c1.8.7 2.6.6 2.6-.2 0-.7 1.5-.9 4.7-.4 11.1 1.5 5 2.4-21.1 3.1-24.5.7-35.7.3-34.3-1.1.2-.3 8.5-.8 18.3-1.3 26.3-1.2 27-1.2 29.8-.1m-1011.9 1.8c.6.4 1.1 1.1 1.2 1.7.1.5.5 1.8.8 2.7.5 1.3 0 2.1-1.8 2.9-4.2 1.9-4.1 3.7.4 4.4 2.2.4 4.2 1.2 4.4 1.8 1.6 5.5 1.5 6.4-1.8 8.1-1.7.9-2.4 1.4-1.4 1.2 1.1-.4 1.7 0 1.7.9 0 .8-.8 1.5-1.7 1.6-3.5.1-6.7 1-7.3 1.8-.7 1.2-21.2 5.1-26.5 5.1-2.2 0-5.3.7-6.9 1.5-1.5.8-4 1.5-5.5 1.5-3.1.1-5.9 2-5.4 3.7.3.8-.5 1.3-2.2 1.3-1.5 0-2.4.4-2 1 .3.6-.2 1.3-1.2 1.7s-2 1-2.3 1.3c-.3.4-2.7 1.2-5.5 1.8-2.7.5-7.8 1.8-11.3 2.6-3.5.9-6.7 1.4-7.2 1.1-.9-.5-6.1 1.4-7 2.6-.3.4-1.4.9-2.5 1.2s1.5.5 5.8.4c4.2-.1 7.7.1 7.7.5 0 .5-1.7.8-3.9.8s-4.4.6-5.1 1.5c-.7.8-1.9 1.5-2.7 1.5-1.1 0-1.1.4-.3 2.1 1 1.8 1.7 2 8.3 1.4 5.2-.5 6.8-.4 5.7.4-.8.6-2.5 1.1-3.7 1.1s-2.5.5-2.8 1c-.4.6-1.4.8-2.4.5-.9-.3-2.6.2-3.7 1-1 .8-3.1 1.5-4.5 1.5-1.5 0-3.2.7-3.9 1.5-.8.9-1.7 1.2-2.4.6-.6-.4-2.7-1.1-4.8-1.5-3.8-.7-5.8-3.3-3.6-4.8.7-.4 1.6-.8 2.1-.8.4 0 .7-.7.7-1.5s.9-3.2 2-5.2c1.1-2.1 2-4.5 2-5.4s.7-2.2 1.5-2.9c1.1-.9 1.3-2.8.9-8.3-.3-3.9-1-7.9-1.5-9-1.4-2.5-.4-4.7 2-4.7 1 0 2.1-.7 2.5-1.5.4-1.1-.2-1.5-2.7-1.5-1.9 0-4.2-.8-5.4-1.9s-2.4-1.7-2.8-1.3-.5-.2-.3-1.3c.3-1.9 1.2-2 15.3-2.2 8.3-.1 16 0 17.3.3 3.8.8 1.5 2.2-4.6 2.9-8.6.9-10.8 1.5-9.3 2.4.9.6.6 1-1 1.4-5.3 1.4-.7 1.4 10.1.1 18.8-2.3 24.4-3.3 26-5 1.4-1.5 1.2-1.6-1.2-1.2-1.7.3-2.8.1-2.9-.6 0-.7-.3-.6-.6.1-.3.8-2.2 1.3-5.1 1.2l-4.7-.2 4.5-.9c8.1-1.6 13-1.9 13-.8 0 .9 2.6.9 14.5-.4 3.8-.5 6.5-1.7 6.5-3.1 0-.7-.5-1.5-1.2-1.7-.6-.2.5-1.2 2.5-2.2 2.4-1.1 3.7-2.4 3.7-3.6 0-1.3.7-2 2-2 1.1 0 2-.4 2-.9 0-1.4 17.8-2.6 19.5-1.3m845.9 2.2c1.4.5 2.6 1.7 2.6 2.6 0 1.4-.7 1.5-4.7.9-2.7-.4-6.1-.9-7.8-1-1.6-.2-5.8-.8-9.3-1.4-6.3-1-9.2-.7-9.2 1 0 1.5-11.3 1-16.2-.8-2.7-.9-4.8-1.9-4.8-2.3 0-.9 46.6-.1 49.4 1m-370.8 1.2c-.4 2.6-1.3 5.5-2.6 7.9-.5.9-.7 2.5-.4 3.5.5 2.2-.3 3.5-3.1 5-1.4.8-2.2 2.5-2.6 6-.3 2.7-.7 3.8-.9 2.4-.1-1.4-.3-3-.4-3.5-.1-1.3-1.6-1.7-4-1.1-1 .2-1.5.9-1.1 1.5.3.6.1 1.1-.4 1.1-.6 0-1.1-.9-1.1-2s.6-2 1.3-2c.9 0 .8-.3-.2-.9-.9-.6-1-1.1-.2-1.5.6-.4.9-1.1.6-1.6-.3-.4.2-1 1-1.4 1.7-.6 2-4.2.4-5.2-.8-.4-.8-.9 0-1.7.6-.6 1.1-2.2 1.1-3.7 0-2 .2-2.2 1-1 .5.8 1 2.7 1 4.2 0 1.6.3 2.8.8 2.8 1.5 0 3-1.6 3.4-3.5.2-1.1 1-1.9 1.6-1.8.7.2 1.2-.3 1.2-1.1 0-1.3 2.5-4.6 3.5-4.6.2 0 .2 1 .1 2.2m424.3 20c2.8.6 5.1 1.5 5.1 2s.5.6 1.2.2c.8-.5.9 0 .6 1.4-.5 1.7-.2 2.2 1.2 2.2 1.1 0 2.2.4 2.5 1 .3.5 1.4 1 2.4 1s1.8.6 1.8 1.3c0 .9-1.9 1-8.8.3-8.2-.8-8.9-.7-11.9 1.4-2.7 1.9-3.6 2.1-5.1 1.2-1-.7-3-1.2-4.3-1.2-3.1 0-5.6-.9-5.6-2.1 0-.5.7-.9 1.6-.9.8 0 1.3-.4 1-.9s.9-1.4 2.7-2.1c4.9-1.9 9.3-4 8.4-4-1.1 0 .2-2 1.3-2 .5 0 3.1.5 5.9 1.2m41.3 7.3c3.9.9 7.2 7.3 7.2 14.2.1 6.1.9 5.9-16.9 5.8-12.6 0-14.1-.2-16.3-2.3-.7-.6-2-1.2-2.8-1.2-2.1 0-8.4-5.2-8.4-6.9 0-.8.6-1.1 1.8-.6.9.3 6.3.9 12 1.2 9.8.6 10.2.5 10.2-1.4 0-1.1.6-3.6 1.4-5.5 1.3-2.9 2-3.4 5.2-3.6 2.1-.2 5 0 6.6.3M676.6 423c.8 0 1.2.5.9 1.1-2.4 3.8-.2 17.7 3.9 25.8 1.8 3.3 2.2 11.6.6 10.6-.5-.3-1-1.5-1-2.6 0-1-.4-1.9-1-1.9-.5 0-1-2-1-4.5s-1.1-7.2-2.6-10.9c-2.3-5.4-2.9-6.2-4-5.1-.8.7-1.4 2-1.4 2.9 0 .8-1.1 2.8-2.5 4.3l-2.4 2.8-.1-2.5c0-1.3.7-4.3 1.6-6.6 1.1-3 1.3-4.7.6-6-1-1.9.3-6.4 2-6.4.4 0 .8-.7.8-1.5s.4-1.5.9-1.5 1.2-1 1.6-2.3c.7-2 .8-1.9 1.2 1 .3 2.1 1 3.3 1.9 3.3m380.4-2.7c1.4.2 4.3.8 6.5 1.2s5.1 1.4 6.5 2.2l2.5 1.4-3-.5c-1.6-.3-7.9-.9-13.9-1.2-9.1-.6-10.8-.5-10.4.7.2.7 1.9 1.8 3.6 2.3 1.8.5 3.2 1.3 3.2 1.7 0 .5 1.5.9 3.4.9 1.8 0 3.9.7 4.6 1.5s2.2 1.5 3.4 1.6c1.1 0 1.5.3.8.6s-2.5 0-4-.6-4.4-1.3-6.6-1.6c-2.1-.2-6.6-1.7-10-3.3-3.3-1.6-6.9-3.2-7.8-3.5-1.8-.6-2.4-2.8-1.1-4.1.7-.7 17.8-.2 22.3.7M146.5 431c1.1.5 1.4.9.7.9-.7.1-1.1.5-.7 1 .6 1-1.1 2.4-3.4 2.8-.7.1-2.7.7-4.3 1.4-3.5 1.4-2.1 2.9 2.9 2.9 1.7 0 3.5.4 3.8 1 .3.5.1 1-.4 1-.6 0-1.1.6-1.1 1.2 0 3-6.9 8.6-12 9.8-4.8 1.1-5.1 1.1-7-1.1-1.1-1.3-1.9-3.4-2-4.6 0-3.1 6.6-10.5 11.4-12.7 2.2-1 4.3-2.2 4.6-2.6 1.3-1.8 4.6-2.3 7.5-1m59.5 3.4c0 1.7-3.7 4.6-5.8 4.6-.8 0-2.7 1.1-4.4 2.5-1.6 1.4-2.6 2.5-2.3 2.5.4 0 .2.7-.6 1.6-1 1.2-1 1.7-.1 2.3.9.5.2 1.9-2.1 4.5-3.1 3.7-3.5 3.9-10.7 4.3-4.1.2-9.1 1-11 1.7s-7 2.1-11.4 3.1c-6.5 1.4-8 1.5-8.7.3-.6-.9-.3-1.4.9-1.7.9-.2 1.9-.6 2.2-1 .6-.7 10.4-5 13.5-5.9 1.1-.3 2.2-.9 2.5-1.3.3-.5 2-.9 3.8-1.1 2.6-.2 3.2-.6 3.2-2.6 0-1.6.4-2.1 1.3-1.6.9.6.9.5 0-.7-1.6-2 1-5.1 6.2-7.3 2.2-.9 5.1-2.3 6.5-3.1 1.7-.9 3.1-1 4.2-.4s3 .4 5.5-.5c5.1-1.8 7.3-1.9 7.3-.2M728.8 484c2.8 4.2 2.9 10.3.2 13.7-1.1 1.4-1.7 2.9-1.4 3.4s.7 2.9 1 5.4c.2 2.4.8 5.5 1.4 6.9.8 2.2.5 3-2 5.6-3.1 3.1-3.1 3.4-1.4 10.7.4 1.6.8 4.5 1 6.6.2 3.2 0 3.6-1.2 2.6-.8-.6-1.4-1.9-1.4-2.9 0-1.8-2.7-4.7-3.5-3.8-.2.2-.8 3.7-1.1 7.6-.6 5.8-1 7.2-2.3 7-1.2-.2-1.7 1-2.3 5.2-.4 3-1.2 8.3-1.8 11.7-1 5.2-.9 6.7.3 9.2.8 1.7 1.8 5 2.2 7.3.4 2.4 1.3 5.4 2 6.8s1.6 4.7 2 7.4 1.6 7.8 2.7 11.4c2.6 8.6 1.8 8.9-1.5.5-2.7-7.3-5.2-16.8-6.3-24.6-.8-5.9-4.9-14.7-6.8-14.7-2 0-2.6-2.3-2.6-10.1 0-6.2.3-7.3 2.5-9.3 1.4-1.3 2.5-3.3 2.5-4.5s.8-3.1 1.9-4.2c1.9-2.1 2.8-5.6 4.1-17.4.8-6.9 2.7-15.3 2.9-12.6.2 3 2.9-1.1 3.6-5.5.3-2.5 1.3-4.8 2.1-5.1 1.8-.7 1.8-3.7-.1-8.8-1.8-5.1-1.9-9.8-.2-9.3.6.3 2.2 1.9 3.5 3.8m-158.6 61.4c-.5 3.1-.5 5.6 0 5.6 2.4 0-.5 11.3-3.8 14.5-2.8 2.8-4 7.1-6 20.5-.8 5.8-1.7 10.9-1.8 11.5-.2.5-.3 1.2-.3 1.5s-.6 1.6-1.3 3c-.7 1.3-2.1 4.7-3.1 7.5-2.1 5.8-2.5 3.1-.5-3.5.7-2.5 1.7-7.5 2-11.2.4-3.7 1.6-8.4 2.7-10.4 1-2.1 1.9-4.7 1.9-5.7s.5-2.7 1-3.7c.6-1.1 1.3-5.7 1.5-10.2.3-4.6.8-9.3 1-10.4.3-1.2.1-4.3-.4-6.8-.6-3.5-.5-4.6.4-4.6.7 0 1.6.7 1.9 1.6.5 1.3.8 1.3 2 .2.7-.8 1.7-2.4 2.1-3.7 1.2-3.9 1.6-1.6.7 4.3M890 619.9c0 .5 3 4 6.8 7.8 29.6 30.3 44.2 45.6 44.2 46.6 0 1.3-13-11.8-18-18.1-3.5-4.4-10.6-9.7-18.4-13.9-2.2-1.2-3.7-2.2-3.2-2.3.5 0 .1-.9-.9-2s-2.1-1.7-2.6-1.4c-1 .6-9.9-7.4-9.9-8.8 0-.5-.7-1.6-1.5-2.4-.8-.9-1.5-2.6-1.5-4 0-1.9.5-2.4 2.5-2.4 1.4 0 2.5.4 2.5.9m140.5 28.7c.9 1.4 4.7 5.8 8.3 9.7 11 11.8 10.9 11.1 2.7 10.3-9.6-.9-10.1-1.1-11.7-2.3-.7-.6-2.9-1.6-4.8-2.1l-3.5-1 3.3-.7c2.9-.7 4.6-2.5 2.2-2.5-1.6 0-2.4-5.1-.9-6 1.1-.7 1-1.2-.4-2.8-2.5-2.7-2.2-5.2.7-5.2 1.4 0 3 1 4.1 2.6m-861.1 4.2c-.2.9-.1 3 .4 4.7.8 2.8 1 2.9 6.3 2.6 2.9-.1 5.7-.8 6.1-1.4.5-.8.8-.8.8-.1 0 1.6-3.8 4.7-10.8 8.8-5.3 3-7.6 4-12.2 5.1-.3.1-1.2.4-2 .7s-3.7 1-6.3 1.7c-4.3 1-5.1.9-7.4-.9l-2.5-2 3.4-3.2c3-2.9 8.7-7.9 16.7-14.7 1.3-1.2 3.2-2.1 4.3-2.1 1 0 1.8-.5 1.8-1.1 0-.5.4-.8.9-.5s.7 1.4.5 2.4m1066.7 30.3c1 1.2 1.9 3.3 1.9 4.6 0 2.2-.3 2.3-6.4 2.3-3.6 0-6.7.4-7 .8-.3.5.2 1.8 1 3 1.7 2.4 7.2 3 9.2 1 .6-.6 1.5-.8 1.9-.4 1.3 1.3-3.7 4.6-6.9 4.6-3.8 0-8.8-5.1-8.8-8.9 0-2.7 2.2-6.6 5-8.9 2.1-1.8 7.8-.7 10.1 1.9m19.9-1.6c3.6 1.9 5 4.3 5 8.9 0 2.8-.7 4-3.3 6-4.5 3.4-8.1 3.3-11.8-.3-4.6-4.7-3.8-11.5 1.9-14.5 3.5-1.9 4.6-1.9 8.2-.1"/><path d="M497.1 126c-1.9 1.7-2.3 2.6-1.8 5.6 1 5.9 3.2 7.7 9 6.9 3.7-.5 5.2-.4 5.8.6.5.9.7.1.5-2.1-.3-3.9-2.5-9-3.8-9-.5 0-1.3-1-1.8-2.3-.5-1.2-.9-1.6-.9-.9-.1.9-.6 1-2 .2-2.4-1.3-2.1-1.3-5 1M849.5 168.8C843.9 172 830 187 830 189.9c0 .5-.4 1.1-.8 1.3-.5.1-1.2 1.6-1.6 3.3-.4 1.6-.4 2.7 0 2.2 1-.9 4.4 2.2 4.4 4 0 .8 1.1 2.6 2.4 4 1.4 1.5 2.3 3 2.1 3.4-.3.4.1 1.2.9 1.8 1.5 1.2 5.7.1 8.1-2.2.7-.6 2.3-1.9 3.5-2.7 8.4-5.6 24-17.3 24-18 0-.4-1.2-1.5-2.6-2.5-1.4-.9-4-3-5.7-4.6-1.6-1.6-3.5-2.9-4.2-2.9-1.3 0-11.4 6.9-15.5 10.5-1.4 1.3-3.6 2.6-5 3-2.2.5-2 .2 1.5-2.9 2.2-2 4.4-3.6 5-3.6 1.3-.1 6.2-4.6 10.1-9.4 3-3.6 3.1-3.9 1.6-5.7-2-2.3-4.8-2.4-8.7-.1M792.5 182c-.5.5-2.8 2.4-5 4.2-11.8 9.8-32.6 33.8-33.9 39-.3 1.6-.9 5.8-1.2 9.5-.3 3.8-.9 8.1-1.4 9.8-.5 1.6-1.1 5-1.4 7.5-1.8 20-1.8 22-.7 23.4.6.7 1.4 3.7 1.8 6.5.3 2.8 1 5.1 1.4 5.1.5 0 .8.4.6.9-.1.4 1.8 2.7 4.2 5.1 3.5 3.4 4.5 5.1 4.9 8.6.3 2.9.1 4.4-.7 4.4-.6 0-1.1.7-1.1 1.6 0 2.2 4.1 11.4 4.9 11 .4-.3 1.3 0 2.1.5 1.2.7 1.2 1.1.2 1.7-.9.6-1.1 2.1-.6 5.1.5 2.9 1 3.8 1.5 2.9.9-1.3 1-.8 1.4 5.7.1 1.1 1 3.8 2.1 6 1 2.2 1.9 4.2 2 4.5.9 5.1 2.7 7.4 3.7 4.7q.6-1.35.6 0c.1.6-.3 1.5-.9 1.8-.6.4-.4 1.7.6 3.6.8 1.7 1.4 3.6 1.1 4.2-.2.7.9 2.2 2.4 3.5 2.8 2.3 2.9 2.3 2.9.4 0-1.1-.6-2.3-1.2-2.6-.7-.3 0-.4 1.6 0 1.7.3 5.9 2.3 9.6 4.4 3.6 2.1 8.3 4.2 10.5 4.6l3.9.7-3.3-4.2c-1.9-2.3-3.9-4-4.7-3.7-.7.3-1.8-.2-2.4-.9-1-1.2-.9-1.6.4-2.1 2.1-.8 2.2-6.4.1-6.4-.8 0-1.5-.6-1.5-1.3s-1.4-2.1-3-3c-1.7-1-4.4-3.1-6.2-4.7-1.7-1.6-3.4-2.7-3.7-2.6-.3.2-1.2-.3-2-1.2-1.3-1.3-1.1-1.4 1.5-.8 1.6.4 3.6 1.4 4.4 2.1 2.4 2.2 14.3 7.5 16.8 7.5 1.7 0 2.2-.6 2.2-2.5s.4-2.3 1.7-1.8c1.2.5 1.5.2 1-1-.4-1.1-.1-1.7.8-1.7 2 0 3.4-3 2.8-6.2-.5-2.4-.3-2.6 1.8-2.1 1.3.4 2.7 1.1 3 1.6.4.5 1.4.7 2.3.4 2-.8 2.1-4.7.1-4.7-1.1 0-1.6-1.3-1.7-4.8-.5-13.3-.5-13.1-2.5-13.1-1-.1-3.5-.4-5.5-.7-3-.5-3.8-.3-3.8.9 0 1-1.3 1.8-3.5 2.3-3.8.7-10.1-.5-7.5-1.4.8-.3 2.1-1.4 2.9-2.4.8-1.3 1.7-1.6 2.3-1 1.1 1.1 8.1-.7 9.9-2.5.6-.6 1.3-2.2 1.4-3.5.2-1.3.6-3.9 1-5.9.4-2.3.3-3.9-.4-4.3-.6-.4-1.1-1.4-1.1-2.2s-1.1-3.9-2.4-6.7c-1.4-2.9-3.8-8.6-5.4-12.7-3.6-9-7.6-16.3-8.5-15.3-.4.3-.7.1-.7-.6s-.5-.9-1-.6c-1.8 1.1-6 1.6-6 .6 0-.5-1.1-1.2-2.5-1.5-3-.8-3.2-2-.6-3.8 1.1-.8 1.8-2.2 1.6-3.4-.2-1-.4-2.2-.4-2.7-.1-.4-.8-.7-1.6-.7s-1.5-.4-1.5-.8-1.5-1.4-3.4-2c-2.7-1-3.3-1.7-2.9-3.2.3-1.1 0-2.7-.7-3.5-1.6-1.9-.6-3.2 3-4 4.2-.9 6.9.2 7.6 3.3.4 1.5 1 3.1 1.3 3.7.3.5.7 2.7.7 4.9.2 3.9 2.5 7 7.1 9.5 3.9 2 4.5 1.4 3.9-3.7-.3-2.6-.9-8.4-1.2-13-.6-8.2-.6-8.2 1.7-8 2.1.3 2.3 0 2-4.7-.1-2.8-.7-5.4-1.2-6-.5-.5-.9-1.9-.9-3.2 0-3.5-3-2.8-7.4 1.7-2.1 2.2-4.4 4-5.1 4-2.3 0-4.5-1.2-4.5-2.4 0-1.1 7.4-5.8 9.8-6.2s5.2-3.7 5.2-6.1c0-1.3.9-4.3 2-6.5 2.9-5.9 2.7-9.6-.6-10.8-2.2-.9-2.4-1.3-1.4-2.5.9-1 .9-1.5.1-1.5-.6 0-1.1-.8-1.2-1.8 0-1.4-.2-1.4-.9.3s-.9 1.7-.9.2c-.1-1.9-1-2.1-2.6-.7M908.5 290.7c-1.6.2-3.7.7-4.5 1s-2.8.7-4.5.9c-5.1.6-5.5.7-5.5 1.6 0 .4-.7.8-1.5.8s-1.5.4-1.5.9-3.5.9-7.7.9c-7.6 0-11.4.9-28.1 6.9-4.7 1.6-4.7 1.4-1.6 10 1.8 5 4.1 5.5 10.8 2.4 7-3.2 27.9-6.2 29.9-4.2.8.8.8 1.1-.1 1.1-.7 0-1.2.4-1.2 1 0 1.7 2.9 1.1 4.6-.9 1.3-1.5 2.7-1.8 6.9-1.5 5.4.3 11-2 12.1-5.1 1-2.6-3.3-6-7.4-5.7-3.2.1-3.4 0-1.4-.8 2.2-.9 3.1-3 1.2-3-.5 0-1-.5-1-1 0-.6.7-1 1.5-1s1.5-.8 1.5-1.8c0-1.4.2-1.5 1-.2s1 1.2 1-.3c0-.9.5-1.7 1-1.7.6 0 1 .4 1 1 0 .5.4 1 .8 1 .5 0 .9-.7.9-1.5 0-1.5-1.6-1.7-8.2-.8M832.5 292.9c-5.6.8-8.5 3-8.5 6.3 0 1.6.5 2.8 1 2.8.6 0 1 .5 1 1.1 0 .5-.6.7-1.2.3-.7-.4-.3.4.9 1.7 2.3 2.3 5.3 2.8 12.8 1.9 4.1-.5 5.3-1.6 5-4.4-.5-3.8-2.8-9.5-3.7-9-.4.3-.8 0-.8-.5 0-1.2-.1-1.2-6.5-.2M910.2 313.3c-1.4 1.7-4.6 2.4-17.2 3.6-8.6.9-20.1 3.4-23.2 5.2-1 .5-1.8.6-1.8.1 0-1-7.9-.2-8.6.9-.3.5.2.9 1 .9 1.7 0 2.1 1.2.9 2.4-.4.4-.8 3.7-.9 7.2-.1 5.7.2 6.7 2.1 8 2.7 1.7 6.5 2.6 6.5 1.5 0-.5 1.9-.8 4.3-.8s6.3-.3 8.8-.7 5.6-.3 6.9.2c1.9.7.8 1-5 1.6-4.1.3-7.6.8-7.8 1-.2.3.1 1.3.7 2.4.8 1.5.6 2.3-1.3 3.8-2.6 2.1-4 6.3-2.3 6.5 2.4.3 3.3.5 6.7 1.6 4.5 1.6 20.8 4.1 24 3.8 1.4-.1 3.4-.3 4.5-.4 1.8-.1 1.9-.2.3-1.2-3.2-1.8-1.9-2.8 3.5-2.8 11.8.3 13.5-1.5 6.2-6.5-1.6-1.2-1.7-1.6-.6-3 .7-.9 1.1-2.9.9-4.6-.2-1.6 0-3.1.6-3.3s-.1-.2-1.6 0c-1.6.3-2.8 0-2.8-.5s-2.6-1.2-5.7-1.6c-3.2-.4-6.9-1.3-8.3-2.1-2.3-1.3-1.9-1.4 5.5-1.5 11.1-.2 12.5-.3 12.5-1.2 0-.4-.6-.8-1.2-.8-1 0-1-.2 0-.8.8-.6 1-1.9.6-4.1-.6-2.8-1-3.2-2.8-2.5-3.4 1.2-16.6 1.7-16.6.6 0-1.4 2.6-2.2 7.1-2.2 3.2 0 3.7-.3 3.2-1.8-.4-.9-1.1-2-1.7-2.4s1.7-.8 5.2-.8c3.7 0 6.2-.4 6.2-1.1 0-.5.4-.8.9-.5s1.4 0 2-.8c.9-1.1.5-1.5-2-2-1.7-.3-4.2-.6-5.4-.6-1.3 0-2.5-.5-2.7-1.1-.2-.7-.8-.6-1.6.4M1008.6 361l-2.9.5 2.4 1.2c1.3.6 6 1.6 10.3 2.2 4.4.5 8.2 1.5 8.7 2.2 1 1.7 1 1.7-3.7 2.4-8.9 1.3-9.3 2.6-2.4 6.2 3.1 1.7 3.7 2.3 2.2 2.3-1.3 0-2.2.6-2.2 1.6 0 .9.7 1.4 1.8 1.3.9-.1 2.4.1 3.4.5 2.9 1.3 8.3.3 8-1.5-.1-1 1.5-2.3 5.1-3.7 2.9-1.2 5.8-2.2 6.5-2.2 2.3 0 1.2-2.6-2.5-6.2-2.9-2.7-4.9-3.8-8.3-4.2-2.5-.3-8.8-1.1-14-1.8-5.2-.8-10.8-1.1-12.4-.8"/><path d="M785 365.6c0 .8.4 1.3.9 1s1.4.6 1.9 2.2c.5 1.5 1.9 3.7 3.1 4.9s2.1 2.6 2.1 3.1.9 1.7 2 2.7 2 1.3 2 .8c0-1.8 3.9-2.2 5.5-.6 1.1 1.1 1.5 1.1 1.5.1 0-.7.7-.2 1.6 1 .8 1.2 2.6 2.2 3.9 2.2s2.7.4 3 1c.3.5 2.6 1 5.1 1 2.4 0 4.4.5 4.4 1.1s-.8.8-1.7.5c-3.1-.9-9.8-1.1-9.6-.3.6 2 2.3 3.8 8.1 8.1 3.4 2.6 6.2 5.2 6.2 5.7s.5.9 1 .9c.6 0 1.6.4 2.3 1 5.5 4.5 10.8 8.3 14.2 10.1 4.3 2.3 11.7 7 20.5 12.9 3 2 8.9 5.6 13 8s8.8 5.4 10.3 6.7c4.7 3.8 6.8 2.8 2.5-1.2-2.8-2.6-3.8-4.3-3.8-6.5 0-2.3-.4-3-2-3-1.1 0-2-.5-2-1 0-.6-.7-1-1.6-1-2.7 0-14.7-6.8-19.2-11-3.8-3.5-4.1-4-2.1-4 1.9 0 1.7-.3-1.4-2.4-1.9-1.3-4.4-2.7-5.5-3-1.1-.4-3.2-1.8-4.8-3.2s-4.2-3.2-5.9-3.9c-1.6-.7-4.1-2.6-5.5-4.1s-4.3-3.9-6.5-5.3c-2.2-1.5-4.1-3.3-4.3-4.1-.1-.8-1.7-2.7-3.5-4.3-9.6-8.2-11.6-9.4-16.8-10.1-2.8-.4-7.5-1.9-10.3-3.4-7.8-4.1-8.6-4.3-8.6-2.6"/><path d="M798.6 383.5c.3 1.6 1.3 3.5 2 4.1.8.6 1.4 1.6 1.4 2.3 0 .6.7 1.1 1.6 1.1s1.2.5.8 1.2c-.5.8-1.9-.1-4.1-2.7-2.6-3-3.6-3.6-4.5-2.7s-.9 1.2 0 1.2c.7 0 1.2.5 1.2 1.1 0 1.2 3 4.4 3 3.2.1-.4.8.5 1.6 2 .8 1.6 3.5 4.1 5.9 5.6 2.5 1.6 4.2 3 4 3.3-.3.3.7 1.1 2.3 1.9 1.5.7 5.9 4.6 9.7 8.4 3.9 3.9 10.4 9.3 14.5 12 4.1 2.8 7.7 5.3 8 5.6s1.6 1.2 3 1.9 4.1 2.5 6 4 5.5 3.8 8 5.1c5.7 3.1 16.4 10.2 16.8 11.1.2.5.8.8 1.3.8s3.5 2 6.7 4.5c3.1 2.5 6.9 5.4 8.4 6.6 2.1 1.5 2.7 2.6 2.3 4.2-.5 1.7 0 2.5 2.2 3.5 5.1 2.3 7.3 3.7 7.3 4.4 0 .5 1.1.8 2.4.8 1.4 0 2.8.4 3.1 1 .3.5 1.1 1 1.6 1 1.6 0-4-6.2-7.3-8.3-1.6-.9-3.6-3-4.5-4.6-.9-1.5-2.8-3.5-4.2-4.4-6.6-4.1-14.7-9.9-17.5-12.5-1.7-1.6-5.6-4.5-8.7-6.3-3-1.9-6.3-3.9-7.1-4.4-1.6-1-21.9-14.5-22.7-15.2-.2-.2-.1-.6.2-1 .4-.3 1.5.1 2.5 1 1 1 2.2 1.7 2.6 1.7.5 0 3.6 2.1 7 4.8 3.3 2.6 8.4 5.9 11.1 7.2 2.8 1.4 5.2 2.8 5.5 3.1s1.9 1.1 3.5 1.7c1.7.7 5.7 3.8 9 6.8 9 8.3 9.6 8.7 15.2 11.3 3.4 1.6 5.3 3.1 5.7 4.6.3 1.3 1.4 2.5 2.3 2.8 1 .2 2.7.8 3.8 1.2 1.5.6 1.4.2-.7-1.7-1.6-1.4-2.8-3-2.8-3.6 0-.7-1.8-2.1-4-3.2s-4-2.4-4-2.8-1.8-1.8-3.9-3.2c-2.2-1.3-4.2-3.4-4.5-4.5-.3-1.2-3.2-4.4-6.3-7.1-7-6-36.6-25.8-48.8-32.6-2.7-1.5-4.4-2.8-3.7-2.8 1 0 1-.3-.2-1.5-.8-.8-1.9-1.5-2.5-1.5s-3.4-2-6.3-4.5-6-5.1-6.8-5.8-4.5-3.3-8.2-5.7c-3.7-2.5-6.3-4.7-5.8-5s0-1.1-1-1.8c-1.6-1-2-1-2 0 0 .9-.4.8-1-.2-.8-1.1-.9-.7-.4 1.5M925.6 392.8c-.7 1.1 1.6 2.2 4.5 2.2 1.1 0 1.9.7 1.9 1.7 0 1.4-.2 1.5-.9.4-.6-1-1-1-1.6-.1-.5.7-2.1.9-4.9.5-6.1-1-7.7-1.5-7.1-2.6.4-.5-1-.9-2.9-.9-4.4 0-7.4 2.8-9.8 9-1.8 4.6-2.4 10.5-1 9.6.4-.2 1.6.8 2.7 2.3 1.9 3 1.8 3 26 5.8 5 .6 7 2 5.4 3.9-.6.8-1.7 1.4-2.3 1.4s-2.8.9-4.9 2c-2 1.1-5.1 2-6.7 2-2.8 0-3 .2-2.4 2.7.4 1.6 1.5 3.4 2.5 4.1s2.5 1.9 3.3 2.7 1.8 1.5 2.3 1.5c.4 0 2.1.7 3.7 1.5 3.8 2 29 2.6 32.3.7 2.5-1.4 27-.5 29.1 1.1.7.5 3.2.7 5.7.4 3.2-.5 5.9-.1 9.3 1.2 2.6 1 6.3 2.2 8.2 2.5 3.1.6 3.3.5 1.5-.6-2-1.2-2.5-1.4-4.6-1.7-.5 0-.7-.6-.4-1.1.3-.6 0-1-.8-1-.7 0-3.5-1.1-6.3-2.4-5.9-2.9-8.7-7-7.5-11.2.6-2.1.3-3.9-1.1-6.8-1.7-3.3-1.8-4.3-.7-6.8.8-2 1.4-2.5 2-1.7.5.9 1 .4 1.4-1.4 1-3.8.1-5.4-4-7.1-2.3-1-3.5-2.2-3.5-3.5 0-1.1-.5-2.3-1-2.6-.8-.5-.8-1.1 0-2 .6-.7.7-1.5.3-1.8-4.3-2.5-63.4-6-64.1-3.8-.3.9-.8.9-1.7.1-.8-.7-1.6-.7-1.9-.2M854.9 460.9c-1.4.9-2.4 2.2-2.1 2.9.7 2.1-.7 6.2-2.2 6.2-.7 0-2.8.7-4.6 1.6l-3.3 1.7 3.9 2.4c2.2 1.3 5 2.6 6.4 2.9 1.4.4 3.5 1.3 4.8 2.1 1.4.8 3.1 1.1 4 .7s2-.7 2.3-.6.6-2.5.6-5.6c0-5.1-.4-6-3.4-8.8-2-2-3.1-3.7-2.7-4.7.8-2.3-.8-2.6-3.7-.8M937.8 461c1.8 1.1 4.4 2 5.9 2 1.4 0 2.3.3 2 .7-.4.3 2.6 2.2 6.6 4.1 3.9 1.9 7.5 4 7.9 4.7s4.2 2.7 8.5 4.4c4.3 1.8 8.6 3.7 9.6 4.2.9.5 1.7.6 1.7.2 0-1.8-4.1-7.4-5.8-7.9-5.2-1.7-10.2-4.9-10.2-6.6 0-.4 1.4-.8 3-.8 1.7 0 3-.5 3-1 0-.6-.7-1-1.5-1s-1.5-.5-1.5-1c0-.6-1.4-1-3.1-1s-3.9-.4-4.9-1c-1-.5-6.9-1.2-13.1-1.5l-11.4-.5zM936 471.9c-.5 1.1-1 2.4-1 2.8 0 1.3 8.7 5.3 11.5 5.3 1.3 0 2.7.5 3 1 .8 1.3 8.9 5 10.9 5 2.7 0 1.8-1.9-1.1-2.6-3.6-.7-7.3-2.5-7.3-3.5 0-.9 5.7.6 7.5 2.1 2.1 1.7 3.8-1.2 2.4-4.3-1.4-3-4.4-4.5-12.9-6.3-8.9-1.9-11.7-1.8-13 .5M876.4 478.5c-.3.8-.2 1.9.2 2.6s.2 1-.7.7c-.8-.3-1.9.1-2.6.8-1.7 1.7-1.6 1.9.7 2.1 1.1.1 2-.3 2-.8 0-1.3 4.2-.8 5.2.6 1.1 1.5.9 2.7-.3 1.9-.6-.3.5 1.6 2.3 4.2 3.7 5.3 10.8 10.3 15.2 10.8 1.6.2 3.1.7 3.4 1.3.4.6 4.3 2.7 8.7 4.7s8.5 4.2 9 4.9c.6.7 3.3 2.3 6 3.6 2.8 1.4 6.7 3.6 8.9 5 2.1 1.4 5 3.4 6.4 4.3 2.4 1.6 2.6 1.6 3.8 0 1.4-1.9.2-4.2-2.3-4.2-.8 0-1.2-.4-.9-.9s-.4-1.5-1.7-2.4c-3.8-2.5-13.1-12.1-15.9-16.4-2.3-3.5-4.7-5.1-14.7-10.2-6.6-3.2-13.5-7-15.3-8.2-7.9-5.7-16.2-7.8-17.4-4.4M825.6 480.1c-2.1 1.1-4.4 1.8-5.1 1.6-.6-.3-1.8-.1-2.6.3-1.1.7-.9 1.5 1 4.2 1.3 1.8 1.8 2.7 1 2-.7-.6-2.5-1.2-4.1-1.2-4.6 0-6.3 5.7-3.3 11.4.8 1.5 1.5 3.5 1.5 4.3s.6 1.3 1.2 1.1c2.2-.8 9.8 6.4 9.8 9.1 0 2 1.9 4.1 3.8 4.1 1.6 0 4.2-2.4 4.2-3.9 0-1.6 7.8-9.1 9.5-9.1 1.9 0 1.9.5-.1 3.5-.9 1.3-1.3 2.8-1 3.4.3.5.3 1.7 0 2.6-.5 1.3-.8 1.4-1.5.3-.7-1-.9-.8-1 .7-.1 1.1-.2 2.7-.3 3.5-.2.8-.3 2.5-.4 3.7-.2 2.7-4.1 6.5-6 5.8-.7-.2-1 0-.7.5.9 1.5-.8 1.2-3.3-.6-2.9-2-2.9-.2 0 3.7 1.5 1.9 2.2 4.1 1.9 6-.3 3.8 2.1 5.8 6.9 5.9h3.5l-.3 4.3c-.3 3.9 0 4.7 3.7 8.5 2.3 2.3 4.1 4.5 4.1 4.8 0 1.3 4.6 4.3 6.6 4.4 2.2 0 6.8 3.3 11.8 8.2 3.9 4 4.3 3.4.6-1.2-1.7-2.2-3.8-4-4.6-4-.9 0-1.2-.5-.9-1 .3-.6.2-1-.2-1-.5 0-.9-.9-1-2-.1-1.5.4-2 2.2-2 1.3 0 2.7-.5 3-1 .3-.6.1-1-.4-1-.6 0-1.1-.4-1.1-.9 0-.4 1.1-.6 2.5-.3 2.1.4 2.4.1 1.9-1.4-.4-1.1-2.7-4-5.2-6.6-8.3-8.7-3.4-7.6 6.8 1.5 4.1 3.7 6.9 2.1 7-3.7 0-1.8 1.2-4.2 3.4-6.7 2-2.1 3.8-5.4 4.2-7.4.5-2.6 2.2-5.2 5.9-8.9 6.4-6.3 7.3-9.5 3.6-13-4.7-4.5-15.6-10.5-22.1-12.1-.3-.1-1.4-.5-2.5-.9s-3.3-1.3-5-1.9c-1.6-.6-4.4-2.1-6.1-3.4s-4-2.3-5.1-2.3-3-1.1-4.3-2.5c-2.5-2.6-14.2-9.9-17.5-10.9-1.2-.3-3.7.3-5.9 1.5M780.5 511.7c-2.4 5.8.2 16.8 3.8 15.9.6-.1.9-.1.5.1-.9.6 3.9 10 7.3 14.4 4.6 5.9 6.8 5.8 14.3-.3 9.7-8 9.6-8.6-2.1-19.5-9.3-8.7-17.5-14.3-20.8-14.3-.8 0-2.2 1.7-3 3.7M402.7 257.7c-.4.3-.7 1.8-.7 3.3 0 2.3.7 3 4.8 4.6 2.6 1 5.2 1.9 5.9 2 3.1.5 8.9 2.8 9.5 3.8.5.7.8.6.8-.4.1-1.2.3-1.1 1.1.2.6 1.1 2.1 1.8 3.7 1.7l2.7-.1-2.5-.7-2.5-.8 2.5-.4c2.1-.4 1.3-1.1-5.3-4.3-4.3-2.1-8.8-5.2-10.2-6.7-1.7-2.2-3.3-2.9-5.8-2.9-1.8 0-3.7.3-4 .7M364.7 293.6c-.3.3-2.2.7-4.2.9-4.6.4-4.7.5-4.9 5.5-.1 2.3-.9 4.5-1.6 5-.8.5-1.1 1.2-.8 1.5 1.1 1.1 34.9 9.6 43.6 11 3.3.5 4.2.4 4.2-.8 0-.8.7-1.8 1.6-2.1 3.3-1.3.8-3.8-6.1-6.2-3.8-1.3-8.2-3.3-9.7-4.4-1.7-1.3-4.3-2-7.1-2-3.1 0-5.2-.6-6.8-2.1-1.3-1.1-1.9-1.8-1.3-1.5.7.3 1.7-.1 2.4-.9s1.1-1.5.9-1.5-2.5-.7-5.1-1.4c-2.5-.8-4.8-1.2-5.1-1M349.5 315.3c-2.7 4.7-3.1 6.6-1.5 6.8.6.1 1.6.2 2.3.3.6.1 2.1-.5 3.2-1.5 1.1-.9 4.1-1.9 6.8-2.2 4.1-.4 4.7-.2 4.7 1.4 0 1.1-.5 1.9-1.1 1.9-.5 0-.8.4-.4.9.3.5-.3 1.1-1.2 1.3-2.6.6 18.7 3.8 25 3.8 4.9 0 10.9-1.9 12.2-4 1.2-1.9-5.6-4.4-22.4-8-6.5-1.5-8.7-1.6-9.3-.7-.5.9-1.1.8-2-.4-1.2-1.5-8.7-3.9-12.2-3.9-.8 0-2.7 2-4.1 4.3M411.7 439c-10.4 3.3-33.7 18-33.7 21.3 0 1.1 3.1 4.1 4.4 4.3.6 0 1.8.2 2.7.2 1.4.2 1.6 1 1.1 4.8-.2 2.5-.1 4.9.4 5.3.5.3 1.5 1.6 2.2 2.8.6 1.3 1.8 3.3 2.5 4.5.6 1.3 1.6 2.6 2.1 2.9.4.4.3 2.2-.3 4.1-2.1 6.4 1.1 8.8 6.2 4.8 1.4-1.1 2.9-2 3.4-2s1.9-.9 3.1-2c1.2-1.2 2.2-1.8 2.2-1.5 0 1 6.5-2.7 13.3-7.7 3.7-2.8 6.7-5.1 6.7-5.3 0-.6-6.7.4-9.3 1.4-3.7 1.5-3.9 1.4-2.8-.7.5-.9 6.6-4.6 13.5-8.1s12.6-6.5 12.6-6.8c0-.2-.4-.1-1 .2-.5.3-1 .1-1-.4 0-.6.9-1.6 2-2.3 3-1.9 2.5-3.9-.7-3.5-2 .3-3.5-.3-5-1.9l-2.2-2.4-4.7 2c-5.5 2.4-8.4 2.1-3.6-.4 1.7-.9 3.2-2 3.2-2.4 0-.5 1.6-.8 3.6-.8 1.9 0 3.9-.6 4.3-1.3.5-.7 1-1.2 1.2-1 1 .5 4.9-1.3 4.4-2.2-1-1.6-8.9-1-15 1.1-7.7 2.6-8.6 2.5-5-.8 2.9-2.6 3-2.8 1.1-4.6-2.1-2.1-7.9-2.9-11.9-1.6M324 461c-3.6.5-8.7 1.8-11.5 3.1-2.7 1.2-5.6 2.1-6.2 2-.7-.1-1.3.7-1.3 1.7 0 3.5 5.2 3.5 14.8.1 4.8-1.7 9.8-3.3 11.2-3.6 2.8-.6 5-2.1 5-3.4 0-1-2.6-1-12 .1M418.2 500.6c-1.7 1.9-3.6 3.3-4.2 2.9-.5-.3-1 .1-1 .9 0 1.6-.6 1.9-4.9 2-1.3.1-2.6.7-2.9 1.5-.3 1 .2 1.2 2 .8 2.5-.7 3.5.4 5.3 5.8.5 1.6.8 1.7 1.5.5.8-1.3 1-1.3 1 .1 0 .9-.7 2.2-1.5 2.9s-1.5 1.8-1.5 2.5c0 .8-.6 1.5-1.2 1.8-.7.2-1 .7-.7 1.1.9.9 9.9-4.6 12.6-7.7 2.1-2.5 3.9-6.5 3.5-8-.1-.4.2-.7.7-.7 1.4 0-.5-5.9-2.5-8.1-2.3-2.5-2.5-2.5-6.2 1.7M447 502.8c-4 2.7-5.7 5.3-5.2 7.9.2 1.2.9 2.3 1.4 2.3s.6-.4.3-1 .1-.7.9-.4c1.9.7 2.1 5 .4 5.8-.7.3.8.5 3.4.3 4-.2 4.5 0 3.7 1.5-.5.9-.9 2.6-.9 3.6 0 2.6 3 1.9 6-1.3 1.8-1.9 1.9-2.6.9-4.9-1-2-1-2.9-.1-3.8 1.6-1.6 1.5-4.8 0-4.9-.7-.1-2.3-.1-3.5-.2-2.7 0-3-2.2-.5-3.6 1.5-.9 1.5-1.2.2-2.1-2.1-1.4-4.1-1.2-7 .8M478.6 516.1c-3.8 1-7.9 2.8-9.1 3.9-2.6 2.4-7.5 2.9-5.5.5 3-3.6-2.8-.5-8 4.2l-2.4 2.2 2.9 3.3c1.7 1.8 3.3 3.4 3.8 3.6.4.2 1.4 1.9 2.2 3.7 1 2.6 1.8 3.3 3.5 3 1.1-.2 1.8 0 1.5.6-.4.5.1 1.2 1 1.6 1.3.4 5.1-3 15-13.3 11.9-12.4 13.1-14 11.2-14.6-3.8-1.1-8.9-.7-16.1 1.3M494.5 527c.3.6-.4 1.1-1.7 1.2s-3 .2-3.9.3c-2.1.1-15 13.2-15.2 15.4-.1 2.1 3 6.7 5.1 7.6.9.4 4 1.5 6.9 2.5 4.8 1.7 5.2 1.7 6.6.2 2.3-2.7 9.9-15.6 8.4-14.4-.8.7-1.6 1-1.9.7-.8-.8 2.3-9.5 3.2-9 .4.3 1-.4 1.3-1.5.7-2.6-.9-3.5-2.2-1.3-.9 1.6-1.1 1.7-2.3.2-1.5-1.8-5.3-3.5-4.3-1.9M512.8 544.5c-.4.4-.4 1.3-.1 2.1s0 1.4-.6 1.4-2.4 1.5-4 3.2c-6.2 7.2-16 19.7-20.7 26.4-2.7 3.9-6.7 9.5-9 12.5-2.2 3-5.5 7.8-7.2 10.7-3 4.8-3.1 5.6-2 8 1.8 3.8 3.8 3.4 6.2-1.3 1.1-2.2 2.4-4.2 2.8-4.3.4-.2.8-1 .8-1.8s.4-1.4.9-1.4 2.2-2.5 3.6-5.5c2.5-5 7.2-11.2 7.9-10.4.5.6-1 3.8-3.9 8.4-1.4 2.2-2.9 4.9-3.4 6s-1.8 3-3 4.2c-5.6 5.9-7.2 13.9-2.7 13.1 1.9-.4 2.2-.1 1.8 1.9-.2 1.3.1 2.3.7 2.3s1.1.9 1.1 2c0 2.2 4.7 7 6.4 6.5.6-.2 3.5-.6 6.5-.8 5.2-.5 7.1-1.7 7.1-4.5 0-.7.6-2 1.4-2.7 1.3-1.4 5.1-23.1 6.1-36 .3-3.9 1.1-8.6 1.7-10.5s1.2-4.9 1.3-6.5c.1-1.7.9-5.5 1.7-8.5 2-7 2.9-14 1.7-14-.5 0-.9.6-1 1.2 0 .7-.4.5-.8-.5-.3-1-1-1.5-1.3-1.2M678.6 123.6c-1 2.6-.7 6.2.6 7 .6.4 1.4.2 1.6-.4.2-.7 1-1.2 1.8-1.2.9 0 1.4 1.2 1.4 3.7.1 4.7 7 16.3 9.8 16.3 1.6 0 2.4-3.7 1.3-5.9-.6-1.1-1.1-3.3-1.1-4.8 0-3.5-1.6-5.3-4.6-5.3-1.6 0-2.4-.8-2.8-2.8-1.4-6-2.8-8.2-5.1-8.2-1.3 0-2.6.7-2.9 1.6M605 135.5c-1.7 4.3-2.3 17.4-.9 19.1.8 1 .8 2.2 0 4.6-.6 1.7-.8 2.9-.5 2.5.4-.4 1.9.3 3.5 1.4 2.5 1.8 2.9 1.8 3.7.3.6-1 .6-3.1 0-5.3-.5-2-1.3-5.1-1.8-7-.4-1.8-.6-5.2-.4-7.5.3-2.4-.1-5.6-1-7.6l-1.4-3.5zM599.1 168.2c-.6 1-.8 2.4-.5 3.3.3.8.1 1.5-.5 1.5-1.7 0-1.3 2.4 1.7 11.9l2.7 8.6.6-5.5.6-5.5.3 5.5.3 5.5.7-6c.4-3.2.5-6.6.2-7.4s-.1-1.2.5-.8c1.4.9 4.3-5.3 4.3-9.1 0-2.9-.2-3-4.9-3.4-3.8-.2-5.2.1-6 1.4M620.6 172.2c1.7 5.7 8.4 18.2 11.1 20.8 1.4 1.3 1.5 1.3 1-.2-.3-.9 0-1.9.9-2.2 1-.4 1.4-2.4 1.4-8v-7.5l-5.5-2.6c-7.2-3.2-9.9-3.3-8.9-.3M654.5 171.1c-1.6.5-4.5.6-6.2.3-2.1-.4-3.3-.2-3.3.5 0 .6-.6 1.1-1.4 1.1-1.8 0-2.6 4.5-2.5 13.9 0 8.3 1.7 14.9 1.9 7.6 0-3.3.2-3.7 1.1-2.2.6 1 .8 3 .4 4.5-.6 2.6-.6 2.6.9.7.8-1.1 1.6-2.4 1.6-2.9 0-.6.8-1.9 1.9-3 3.7-4.1 11.2-18.2 10.5-19.9-.7-1.9-.7-1.9-4.9-.6M662 174.2c-.1.5-.3 1.1-.4 1.5-.1.5-.6 1.5-1.1 2.3-2 3-3 4.8-5.4 9.1-1.3 2.4-3.5 6-5 7.9-7.5 9.9-6.5 11.4 6.9 10.3 11.8-1 12.2-1.5 9.1-11.3-1.3-3.9-2.1-8.1-1.8-9.2s.3-1.8 0-1.5c-1.2 1.3-3.1-1.8-2.1-3.6.5-1 .7-2.8.5-4s-.5-1.9-.7-1.5M619 181.2c.8 2.4.6 3.4-.6 4.3-2 1.4-3 15.4-1.1 15.6.7.1-.1.5-1.8.9-2.8.7-2.8.8-.5.9 1.4 0 3.8-.6 5.4-1.4 1.6-.9 3.2-1.2 3.5-.9.3.4 0 .9-.6 1.1-2 .7-1.5 2.3.7 2.3 1.1 0 1.9-.3 1.8-.8-.2-.4.2-.9.7-1.1 2.8-1.3 4.7-6.1 2.4-6.1-.5 0-.9-.6-.9-1.3 0-1.7-2.3-6.7-3.1-6.7-.3 0-1.6-2.3-2.9-5-2.6-5.6-4.3-6.7-3-1.8M651 208.2c0 .5-.9.8-2 .8-3.4 0-2.4 3.7 1.8 6.3 7.2 4.4 15.2 7.9 16.7 7.3.8-.3 1.5-1.6 1.6-2.8 0-1.3.2-4 .4-6 .2-2.1 0-4-.6-4.3-.5-.4-.7-1.1-.3-1.6.4-.7-2.6-.9-8.5-.7-5 .2-9.1.6-9.1 1M636.2 216.1c-.1 1.1-1.2 1.6-2.8 1.6-1.5 0-2.9.5-3.3 1-.3.6-2.8 2.1-5.5 3.4-8.2 4-8.6 4.3-8.6 6 0 2 4.4 6.2 5.5 5.2.4-.5.5-.3.2.3-.4.6 2.2 3.8 5.6 7 9.7 9.3 9.2 9.1 9 2.5-.1-3.2-.3-6.2-.4-6.7s.1-1.6.5-2.5c.4-.8.5-5.6.3-10.5-.1-4.9-.4-8.2-.5-7.3M640.4 283.9c.1 4.4.4 8.2.8 8.6s2.2-.3 4-1.6c4.3-3.1 11.2-9.9 10.6-10.5-.3-.2-3.2-1.1-6.4-1.9-3.2-.9-6.6-1.8-7.5-2-1.3-.4-1.5.7-1.5 7.4M628.5 299c-1.6.5-5.6 1.4-8.7 2-3.2.6-5.8 1.5-5.8 2 0 .4 1.3 1.9 3 3.2 1.6 1.2 5.3 4.1 8.1 6.3s6.7 5.3 8.5 6.9c1.9 1.6 3.8 2.6 4.1 2.2 1.1-1.1 1.6-12.1.8-18.1-.6-5.5-.7-5.6-2.8-4.1-1.2.8-3.8 2.5-5.7 3.7l-3.5 2.1 2.4-2.6c1.4-1.4 3-2.6 3.8-2.6.7 0 1.3-.5 1.3-1 0-1.1-1.3-1.1-5.5 0M640.9 300.2c-.1 1.3-.3 5-.5 8.3-.3 3.3-.2 7.9.1 10.3.7 4.7 1.5 4.7 6.6 0 1.4-1.2 4.3-3.6 6.5-5.2 2.1-1.6 4.1-3.1 4.4-3.3.2-.2-.2-.9-1-1.4-1.2-.9-1.1-1 .4-.5 2.5.8 10.4-4.4 8.4-5.5-2.1-1.1-18.9-4.1-19.6-3.5-.3.3 0 .6.6.6s2.8 1.6 4.9 3.6c3.6 3.4 3.4 3.4-2.9-1-3.8-2.5-7-4.6-7.3-4.6s-.6 1-.6 2.2M627 606c-.7 4.1-1.6 7.9-1.9 8.5-.4.5-.8 4.7-1 9.1-.3 8-.2 8.1 2.3 8.8 1.6.4 3.7 0 5.7-1.2l3.3-1.8.2-14.3.3-14.2-3.4.4c-2.6.4-3.5.1-3.8-1.2-.2-.9-.9 1.8-1.7 5.9M626.3 639c-.3 1.1-1 1.7-1.6 1.3q-.9-.45-.3.6c.4.6.3 1.8-.4 2.5-1.1 1.4-1.7 6.7-1.9 15.3-.1 2.4-.6 4.3-1.2 4.3s-.8-.9-.4-2c.3-1.1.3-2-.2-2s-1 1.3-1.1 3c-.1 1.6.1 3 .5 3 1.7-.1 4.3-2.8 4.3-4.4 0-1 .5-1.4 1-1.1.6.3 1 2.8 1 5.6 0 5.6-1.7 6.5-5.7 2.8-1.7-1.7-2.3-1.9-2.7-.8-1.1 3.9-2.6 12.4-2.6 15 0 1.7-.7 4.4-1.6 6.1s-2 5.4-2.4 8.2-1.7 8.6-2.9 12.8c-1.1 4.2-1.8 8.4-1.5 9.2.5 1.4 4.3 1.6 30.1 1.6h29.5l-.5-3.3c-1.3-7.6-5.7-27.6-7.2-33.2-.8-2.8-1.9-9.7-2.5-15.4-.6-5.8-1.8-11.4-2.7-12.7-.8-1.3-1.2-2.7-.9-3.2s-.1-1.8-.9-2.8-1.5-2.7-1.5-3.8c0-1.3-.5-1.6-1.7-1.1-1 .3-3.1.9-4.6 1.2-2.4.5-2.8 1-2.3 2.9.7 2.6.3 2.9-2.3 1.4-1.2-.6-2.1-2.7-2.5-6.2-.8-5.9-1.6-6.8-6.4-6.8-2.5 0-3.5.5-3.9 2"/></svg>