<svg xmlns="http://www.w3.org/2000/svg" width="1706.667" height="960" viewBox="0 0 1280 720"><path d="M0 128v127.9l5-.6c4.3-.5 5-.3 5 1.1 0 1 .5 1.4 1 1.1.6-.4 4 .8 7.5 2.5l6.5 3.2v5.4c0 3-.4 5.4-1 5.4-.5 0-1.3 1.2-1.6 2.7-1 4.3-2.4 5.5-5.6 4.8-1.7-.4-2.8-.2-2.8.4s.5 1.1 1.1 1.1c.5 0 .8.4.4.9-.7 1.2-6.5-.7-6.5-2.1 0-.6-.8-.4-1.7.3-.9.8-1.4.9-1.1.3.4-.6-.6-1-2.8-1.1l-3.4-.1V720h226c214.6 0 226-.1 226-1.8 0-.9.7-7 1.5-13.5.9-8.1 1.1-12.7.4-14.6-.8-2.4-.4-4 2.9-10.7 5.9-11.7 6.8-14.4 7.6-20.9.4-3.3 1.4-9.2 2.2-13 .9-4.1 1.4-10.6 1.2-15.5-.3-8.1-.4-8.5-2.7-8.8-2.8-.4-7.1 1.6-7.1 3.3 0 .7-1.2 2.5-2.7 4.2-5.9 6.3-10.3 11.8-10.3 12.8 0 .6-1.1 2.6-2.4 4.6-2.4 3.4-5.4 8.6-8.3 13.9-3.6 6.8 1.5 8.4 8.1 2.5 2.2-1.9 3.6-3.5 3.2-3.5s-.1-.7.8-1.5c3-3.1 3.5-1.3 1 3.5-1.5 2.8-2.9 7-3.1 9.4-.5 4.2-.4 4.3 2.6 4.9 2.2.5 3.1 1.2 3.1 2.7 0 2.6-3 6-5.2 6-1.9 0-3.4-4-2.4-6.5.8-2.3-2.4-3.2-3.9-1.2-1.4 2-4.1 2.2-5.1.5-.4-.6-.7-2.7-.6-4.7 0-2.8-.1-3.2-.8-1.6-.5 1.1-.9 1.7-.9 1.2-.1-1.1-4.1 3.1-4.1 4.3 0 1.1-3.4 7.6-6 11.8-.8 1.2-2 2.2-2.7 2.2-1.4 0-1.1-1.6 1.1-7.9.9-2.4 1.6-5.2 1.6-6.3 0-3.3 3.1-9 8-14.8 4.2-4.9 5.9-7.7 10.6-17.3.7-1.5 1.1-3.4.8-4.1-.3-.8-.1-1.7.5-2.1.6-.3 1.1-1.9 1.1-3.5 0-4.6 1.7-8 4-8 1.2 0 2 .7 2 1.7 0 2.3 7.9-5.9 10.3-10.8 1-1.9 2.7-4.6 3.9-6.1 2.1-2.7 2.1-2.9.5-6.3-.9-2-1.7-4-1.7-4.5 0-1.5 2.8-1.2 3.2.2.3.7.8-1.6 1.1-5.1.5-4.2 1.4-7.2 2.6-8.5 2.9-3.2 5.2-23.3 2.8-24.1-.7-.2-3.9.1-7.2.8-4.9 1-6.4 1.8-8 4.3-1.1 1.7-4.1 4.7-6.8 6.8-5.8 4.6-7.7 8.7-7 15 .6 5.1.7 5.1 9.6 5.9 2.6.3 5.1.8 5.5 1.1.6.6.6 4.7-.1 10.8-.1.9-.5 1.4-.9 1.2-.4-.3-1.3.7-1.9 2.3-.8 2.2-1.2 2.4-1.9 1.3-.8-1.2-1-1-1 .7 0 1.2-.4 2.5-1 2.8s-1 1.9-1 3.5c0 3.8-.9 6-2.6 6-.9 0-1.4-1.2-1.4-3.4 0-7-1.2-12.7-2.6-12.2-1 .4-1.4-.3-1.4-1.8 0-4.5-1-5.6-5.1-5.6-2.1 0-3.9-.5-3.9-1 0-2.3-1.7-.7-3.8 3.5-1.2 2.5-2.8 4.5-3.6 4.5s-2.3 1.1-3.4 2.5c-1.5 1.9-2.9 2.5-5.7 2.5-2.1 0-3.4.4-3 1 .3.6-.4 1-1.7.9-1.3 0-1.7-.3-1-.6.6-.2 1.2-1.3 1.2-2.3s.6-2 1.4-2.3 2.9-2.7 4.7-5.4c1.8-2.6 3.5-5 3.8-5.3s1.2-1.5 1.9-2.8c1-1.8 1-2.7.1-3.8-.6-.8-.8-1.4-.3-1.4.4 0 .3-.5-.3-1.1-1.4-1.4-6.7-.3-5.8 1.1.3.6.2 1-.4 1-.5 0-4.6 3.4-9 7.6-11.9 11.2-13 8.4-1.9-4.7 2.6-3.1 4.8-6.1 4.8-6.7s.5-1.2 1.2-1.4c.7-.3 1.1-2.3 1-5.3-.3-7.6-1.9-12-4.6-13.3-1.7-.8-2.6-2.2-3.1-5.2-.7-4-.7-4-4.2-3.4-2.9.6-3.5.3-4-1.5-.3-1.1-1-2.1-1.5-2.1s-.7-.3-.5-.7c.3-.5-.1-1.4-.9-2.1-1.2-1.1-1.4-1-1.4.3s-.4 1.4-2 .5c-1.1-.6-2-1.7-2-2.5 0-.9-2-.1-6 2.6-3.3 2.2-6 4.5-6 5.2 0 1.9-3.7 4-4.3 2.4-.2-.7-.5 3.9-.6 10.2-.2 10.4-.4 11.5-2.4 13.2-1.2 1-3.2 2.2-4.4 2.5-1.3.3-2.3 1-2.3 1.5s-.6.9-1.3.9-3 1.6-5 3.5-4.1 3.5-4.5 3.5c-2.2 0-4.1-2.9-4.4-6.4-.2-2.2-1-4.3-1.9-4.9-2.4-1.5-10.3 1.9-16.3 7.1-5.7 5-11 7.6-13.8 6.9-1-.3-1.8 0-1.8.5 0 .6-.6.5-1.5-.2-1.9-1.6-1.9-3.4 0-2.6.9.3 1.5 0 1.5-.8 0-3.4 10.1-10.5 13.2-9.3.8.4.7.6-.4.6-1 .1-1.8.5-1.8 1.1 0 1.9 2 1 5.9-2.5 2.1-1.9 4.3-3.5 4.9-3.5.5 0 1.2-2.6 1.4-5.9.2-3.2 1.1-6.5 1.9-7.4.7-.8 3.9-4.3 6.9-7.6 6.4-7.2 12.1-10.2 17.1-9.2 3 .6 3.4 1 3.1 3.4-.3 2 .1 2.7 1.3 2.7 2.1 0 12.4-6 16.4-9.6 3.1-2.7 4.2-5.1 1.9-3.9-.7.4-.6.1.2-.7.8-.7 1.6-2 1.8-2.8s.7-1.7 1.1-2c.3-.3.8-2 .9-3.8.4-3.5-1.1-4.2-2.9-1.3-.7 1.1-1.9 1.6-3 1.4-1.3-.4-2.2.2-2.8 1.8-.5 1.3-1 2-1 1.6-.1-.4-.9-.3-1.9.2-1.5.8-1.8.5-2-1.6-.2-3.1-1.9-5.3-3.9-5.3s-8.4 3.5-11.3 6.2c-1.3 1.2-2.6 2.1-2.8 1.8-.1-.3-2.4 1.4-5 3.7C341.7 555 337.8 558 336 558c-1 0-2.2.5-2.5 1-.3.6-1.9 1-3.5 1s-3.1.4-3.4.9c-.3.4-2.4 1.1-4.6 1.5-2.2.3-4 1.1-4 1.6 0 .6-.4 1-1 1-2.1 0-.9-1.9 2-3.2 3.4-1.5 4.4-5.8 1.3-5.3-2.9.4-3.6-.6-1.8-2.5 1.6-1.7 1.4-1.9-1.9-3.1l-3.5-1.3 2-3.2c1.6-2.6 1.8-3.7.9-5.4-.6-1.1-1.9-2-2.9-2s-2.5-.8-3.4-1.8c-1.5-1.6-1.4-2.1.4-6.1 2.9-6.5 3.4-11.4 1.5-13-.9-.7-1.6-2.5-1.6-4 0-1.4-.4-3.1-.8-3.6-.9-1.2-7.1-3.5-9.6-3.5-2.6 0-7.6 3-11.6 7-4.4 4.5-12.8 10.6-16.3 11.9-1.5.6-2.7 1.5-2.7 2.1s-4.4 3.2-9.7 5.7c-6.8 3.2-11.3 6.1-14.6 9.5-2.7 2.6-5.1 4.8-5.4 4.8s-1.3.8-2.2 1.8-2.8 2.7-4.3 3.6c-1.6 1-2.8 2.3-2.8 2.8 0 3.1-10.2 11.7-14 11.8-.9 0-3 1.3-4.8 3-4.1 3.7-7.2 4-7.2.6s-1-5.6-2.5-5.6c-2.1 0-7.6 3.1-8.8 5.1-.6 1-1.9 1.9-2.7 1.9-.9 0-3.2 1.6-5 3.5-2.8 2.8-3.2 3.8-2.1 4.5 1.7 1 4.8-.7 5.4-3.1.3-.9 1.9-1.9 4.1-2.3 3.9-.7 5.6-.2 5.6 1.7 0 1.8-7.1 9.7-8.6 9.7-.7 0-1.5.4-1.9.9-.5 1 6.7.7 11.7-.5 2.4-.5 2.6-.4 2.1 1.7-.4 1.3-1.1 2.9-1.7 3.5s-3.2 3.3-5.7 6.1c-2.6 2.7-6.3 5.7-8.3 6.7-2 .9-3.6 2.2-3.6 2.8s-3.4 4.4-7.5 8.5c-4.1 4-8.2 8.4-9 9.7-3.3 4.9-8.7-.8-7.8-8.3.4-3.6.2-4.1-1.5-4.1-2.1 0-10.8 4.5-11.7 6.1-.4.5-1.6.9-2.7.9-1.2 0-5 2.9-9.2 6.9-3.9 3.8-8.2 7.8-9.6 8.9l-2.5 2.1 2.5 1c1.6.6 1.9 1 .9 1-.9.1-2 .8-2.3 1.7-.4.9-.9 1.4-1.3 1.1-.7-.8-8.5 3.5-13.3 7.3-1.9 1.5-4.9 3.5-6.7 4.4s-3.6 2.2-4 3-2.7 1.7-5.1 2c-2.3.3-4.7.8-5.2 1.1-.6.3-1.7-.1-2.6-.9-.8-.9-1.2-1.6-.7-1.6 1.4 0 6.3-8.6 6.3-11.2 0-2.5 4.7-9.7 6.4-9.8.5 0 2.4-1.7 4.2-3.9 1.8-2.1 4.7-4.4 6.5-5.1 3.3-1.4 7.9-5.5 7.9-7 0-.5-1.1-1.2-2.5-1.6-2.2-.5-3.4.2-8 5-3 3.1-6 5.6-6.7 5.6s-3.1 1.9-5.2 4.1c-3.1 3.3-4.8 4.3-8.2 4.7-2.4.2-4.9 1.1-5.5 1.8-.6.8-1.8 1.4-2.5 1.4-1.9 0-15.8 7-16.2 8.1-.2.5-1.1.9-2.1.9-.9 0-2.4.9-3.4 2-.9 1.1-2.9 2-4.5 2s-3.7.8-4.8 1.9c-1.1 1-3 2.2-4.1 2.5-3.9 1.2-3.3-1.2 1.2-4.8 2.5-2.1 6.5-6.4 9.1-9.7 2.5-3.3 4.8-5.8 5.1-5.6.2.3 1.5-.6 2.8-1.9s3.1-2.4 4-2.4q1.5 0 1.5-3c0-1.6.7-3.3 1.5-3.7.8-.5 1.8-2.3 2.1-4.1.6-2.8.4-3.2-1.4-3.2-1.2 0-2.4-.5-2.7-1.1-1-1.5 10-11.6 13.4-12.4 1.5-.3 4.4-2.2 6.3-4.1 2-1.9 4.5-3.7 5.6-3.9 2.9-.5 7.2-4.6 7.2-6.7 0-3.2-4-2.2-12.5 3.2-1.6 1.1-4.5 2.7-6.3 3.6s-5.5 3.7-8.2 6.1c-4 3.6-6.4 4.8-12.7 6.5-8.9 2.3-18.7 3.4-25.6 3-4.4-.3-4.7-.5-4.1-2.5.3-1.2 1.5-3.1 2.5-4.3 1.1-1.1 1.9-2.7 1.9-3.6 0-2.3 11-14.5 17.2-19.1 4.8-3.5 11.6-6.6 14.6-6.7 1.2 0 2.2-.4 2.2-1 0-.5 1.1-1.2 2.4-1.6 1.5-.3 2.3-1.1 2-1.9-.4-.8.3-1.5 1.8-1.7 2.7-.4 3.7-3.7 1.4-5-1.9-1.1-2.2-4.8-.3-4.8.7 0 1.8-.9 2.4-1.9.7-1.1 2.3-2.1 3.5-2.4 1.3-.2.3-.5-2.2-.6s-5.4-.6-6.4-1c-1.8-.7-1.8-.8.5-2.4 1.3-.9 4-1.7 6-1.7 2.6 0 3.8-.5 4.1-1.8.3-1.1 2.8-2.4 6.7-3.6 3.4-1.1 6.4-2.3 6.7-2.8.3-.4 1.4-.8 2.6-.8 2.5 0 13.9-3.6 18.8-5.9 1.9-.9 5.5-3 7.9-4.6 2.3-1.7 5-3.5 6-4 3.7-2.3 3.9-3.8.6-5.3-1.8-.9-2.6-2.2-3.1-5.3l-.7-4.1-5.5.7c-3 .4-6.4 1.1-7.6 1.6-1.2.4-8.6 1.8-16.6 2.9-21.6 3.1-28.4 4.7-32.1 7.6-.8.6-2.7 1.4-4.3 1.8-1.5.4-3.5 1.4-4.3 2.2s-2.3 1.2-3.2 1c-.9-.3-4-.2-6.9.3-6.2 1-7.8-.2-6.8-5.1.9-4.4 5.2-10.8 7.4-10.8 1.5 0 1.5-.2.2-1-1.2-.7-1.2-1-.1-1 .7 0 3.5-2.2 6.2-4.9 3.7-3.7 5.9-5.1 9-5.6 2.6-.4 4.5-.3 5.2.4 1.6 1.6 3.3 1.4 5.3-.6 1.3-1.3 1.9-1.4 2.2-.5.2.7.8 1 1.3.7s2.1-.8 3.6-1c1.6-.2 7.1-1.1 12.4-1.9 9.5-1.5 20.3-1.2 22.6.6.6.5 7.8 1.4 16 1.9 8.1.5 17.1 1.2 19.8 1.5 8.8.9 35.3-2.4 38.2-4.8.6-.5 4.5-1.8 8.6-2.7 8.9-2.2 14.6-4.7 17-7.5 1.3-1.5 2-1.7 2.4-.8.7 1.8 2.3.4 2.3-2 0-1.4.5-1.8 1.5-1.4.8.3 2.9-.7 4.7-2.4 1.9-1.7 4.4-3 5.9-3s3.9-1.2 5.5-2.8c1.6-1.5 4.6-3.8 6.7-5.2 3.6-2.4 3.8-2.7 3.3-6.6-.6-4.8.2-8.4 1.9-8.4.7 0 3-1.9 5.2-4.3 2.1-2.3 5.1-4.8 6.5-5.6 1.5-.8 4.4-3 6.5-5 6-5.8 9.3-7.7 16.6-9.6 4.1-1.1 6.7-2.3 6.7-3.1s.4-1.4.9-1.4 3.2-2.3 6.1-5c2.9-2.8 5.9-5 6.6-5 1.7 0 1.8-1.7.2-2.3-.9-.4-.9-.8-.3-1.4.6-.4 1.1-1.6 1.3-2.5.2-1.5-.3-1.7-3.3-1.3-1.9.2-3.9.6-4.4.9-1.3.9-5.3-3.5-4.7-5.1.3-.8.6-1.7.6-1.9s.6-.4 1.3-.4c1.8-.1 7-4.7 6.4-5.7-.3-.5-3.1-.6-6.1-.3-3.1.3-5.9.3-6.3 0-.5-.4-2.4-1.3-4.3-2-1.9-.8-4-2.1-4.6-3-.7-.8-3.2-2.5-5.5-3.7-3.6-1.7-5.9-2.1-12.4-1.8-4.4.1-10-.2-12.4-.8-4.4-1-10-5.1-8.7-6.4.9-.9 10.7-2.1 18.4-2.2 7.1-.1 8.1-1.1 6.3-6.3-.8-2.2-.8-3.4-.1-3.6.5-.2 1-1.2 1-2.2 0-3 3.4-4.2 10.1-3.4 3.8.4 7.3 1.5 9.5 3 1.9 1.3 3.4 2 3.4 1.6s.5.1 1.1 1c.9 1.6 2.7 1.8 14.4 1.8s13.9-.3 16.7-2c1.8-1.1 4.2-2 5.3-2s2.7-.9 3.5-2c1-1.4 2.6-2 5.1-2 2.2 0 4.2-.7 5.2-1.8 2-2.2 2.2-3.8.5-3.9-3.4-.2-16.4-2.7-17.1-3.4-.5-.4 1.2-.4 3.8-.1 5.6.6 20.8-1.5 22.8-3.1.9-.9 1.2-2.9.9-6.8-.4-5.6-.4-5.6-5-7.7-2.6-1.1-6.3-2.3-8.2-2.6-5.6-.8-33.1-6.5-33.9-7-.4-.3-1.9.1-3.4.9-1.8.9-6.4 1.4-14.4 1.4-12.4 0-18.3-1.2-18.3-3.9 0-1.5-6.1-4-9.9-4-2.2 0-3.6-1.6-2.3-2.4.5-.3 8.6 0 18.1.6 9.4.6 17.4.9 17.7.6.3-.4.6-1.2.8-2 .4-3.1 1.7-4 3.5-2.4 1 .9 3.2 1.5 5.2 1.4 1.9-.1 4.9.2 6.7.7 2.6.6 3.3 1.2 2.9 2.7-.8 3.1 0 3.3 32.9 6.6 5.2.5 7.4.4 8.3-.5.6-.7 2.1-1.3 3.1-1.3 1.4 0 2-.7 2-2.4 0-1.9-.8-2.7-3.2-3.5-4.9-1.6-24.5-6.2-30.8-7.2-3-.4-8.6-1.7-12.5-2.8-5.7-1.6-7.2-1.8-8-.7-.5.7-1.6 1.1-2.3.8-.7-.2-1.1.2-1 1 .2 1-1.3 1.3-6.5 1.3-6.5.1-6.8 0-9-3.3-1.2-1.8-3.3-3.9-4.7-4.6s-4-2.1-5.7-3c-1.8-1-3.5-2-3.7-2.4s3.3-.6 7.9-.5l8.2.2.6-5.1c.4-2.8 1.3-5.8 2.2-6.8 3-3.3 1.8-4.6-5.2-6.3-3.8-.9-8.7-1.9-11.1-2.2-6.5-1-20.2-6.4-20.2-8 0-.8 17.5.7 18.5 1.6.5.5 2.4.9 4.2.9 1.9 0 6.9 1.1 11.1 2.4 8.6 2.7 16.9 4 17.6 2.7.3-.4-1.4-1.7-3.7-2.9-3.3-1.7-3.7-2.2-1.9-2.2 1.3 0 2.1-.4 1.8-.9s.1-1.4.9-2.1 1.5-2.1 1.5-3.1c0-1.1.4-1.9.9-1.9s1.7-.8 2.7-1.8c2.3-2.3 3.4-2.2 6.3.2 2.2 1.9 2.4 1.9 1.7.2-.5-1.4-.3-1.7 1-1.2.8.3 1.8.6 2 .6.3 0 .2.5-.1 1.1-.4.6.3 2.1 1.5 3.4 1.7 1.8 3.7 2.5 8.9 3 8.9.9 10.1 1.3 10.1 3.6 0 1.9-.4 2-7.5 1.4-5.1-.4-7.5-.2-7.5.5 0 .6.6 1 1.3.9 2.9-.4 4.7.2 4.7 1.5 0 .8.5 1.8 1.2 2.2s.8.3.4-.4c-1-1.7.9-1.5 2.3.1 1.8 2.2.1 2.7-3.9 1.1-2.3-1-6.1-1.4-10.1-1.2l-6.4.3 3.5 1.7c1.9.9 5.8 1.9 8.5 2.2 5.4.7 16.1 2.9 29.5 6.1 3.4.9 21.8 1.7 20.3.9-.7-.3-1.3-1.2-1.3-2s-2-2.3-4.5-3.4-4.5-2.4-4.5-3c0-.5-1-1-2.2-1.1-1.3 0-1.7-.3-1-.6.6-.2 4.1.5 7.7 1.6 7.4 2.4 9.5 2.6 9.5.8-.1-2.3-2.5-4.4-7.5-6.2-2.7-1-5.4-2.2-6-2.6-.5-.4-1.9-.9-3-1.2-1.6-.4-1.5-.5.5-.6 1.4 0 4.8.5 7.5 1.3 7 2 10.2 2.7 8.8 2-.7-.3-1.3-1.1-1.3-1.8 0-1.9-5.7-8.2-6.6-7.3-.4.4-2.4-.8-4.3-2.6-2-1.8-9.2-5.9-16.1-9.1-21.7-10.2-23-10.9-22.4-12.8.5-1.6-3-5.8-4.8-5.8-1.1 0-1-2.5.4-5.5.8-1.8 1.9-2.5 4-2.5 3.5 0 3.5-.5.1-3.4l-2.7-2.3 2.2-1.2c2.4-1.3 3-5.5 1-6.7-.7-.5-.5-1.2.8-2.2 1-.8 1.5-1.6.9-1.8-.5-.3-2.8-1.5-5-2.8-2.2-1.4-7.6-4.3-12-6.6-17-8.8-19.8-12-3.8-4.5 5.4 2.6 12.1 5.6 14.8 6.7 2.8 1.2 5.6 2.6 6.2 3.1.7.5 3.4 1.1 6 1.3 7.2.5 7.3.6 7.9 3.1.4 1.2 1.2 2.3 1.9 2.3s1.8.7 2.5 1.5c.7.9 1.8 1.4 2.4 1.2s1.8.3 2.6 1.2c1.8 1.9 4.5 3.6 8.6 5.5 1.7.7 4.9 2.5 7.2 4 4.6 2.9 4.7 4.5.5 8.1-1.3 1.1-2.3 2.6-2.3 3.2 0 2.5 7.8 6.3 13.3 6.3 2.7 0 3.6-1.3 1.7-2.5-.6-.3-1-2.2-1-4.2 0-2.8.3-3.4 1.6-2.9.9.3 2 .6 2.5.6s1.8.9 2.8 1.9c1.1 1.1 2.8 2.1 3.8 2.3s2.1.7 2.5 1.3c1.1 1.5-.3 5.8-2.2 7.2-1 .7-2.3 2.6-3 4.3-.9 2.2-1.9 3-3.6 3-2.1 0-12.4-5.7-17.4-9.5-2.8-2.2-11.1-4.7-13.5-4.1-1.5.4-2.7.1-3.2-.7-.4-.8-2.7-2.6-5-4.1-2.4-1.4-4.3-3.3-4.3-4.1 0-1.1-1.2-1.5-4.7-1.5-2.7 0-4.3.4-3.7.8.7.4 1.3 1.5 1.5 2.5.4 1.8 6.4 4.6 9.8 4.7.7 0 2.1.9 3 1.9s3.2 2.6 5.1 3.5c9.5 4.5 17.3 9.4 16.6 10.4-.4.8 3.7 1.4 9.9 1.6 4 .1 6.5 1.5 6.5 3.5 0 .6.4 1.1.9 1.1s1.6 1.3 2.4 3c1.4 2.7 1.4 3.2-.3 5.3-1.8 2.2-3.7 12.6-4.3 23.2-.3 3.9-5 12.5-6.8 12.5-.5 0-.9 2.4-.9 5.3 0 6.5-2.5 15.5-5.1 18.3-2.2 2.4-2.4 3.7-.7 6.4 1 1.5 1 2.6 0 5.3-.7 1.8-1.2 4.9-1.2 6.8 0 2.8-.8 4.3-4.2 7.6-4 3.8-9.7 7.2-12.2 7.4-.6 0-2.8 2.2-4.8 4.8-2.7 3.6-4.8 5.3-8.3 6.4-5.9 2-14.5 7.6-14.5 9.4 0 .8.5 2.3 1 3.4 1 1.7.7 2-1.9 2.5-1.7.4-3.6 1.3-4.2 2-.6.8-2.1 1.4-3.4 1.4-1.2 0-3.8 1.2-5.8 2.7-3.4 2.5-3.7 3.1-3.1 6.3.3 1.9 1.1 3.8 1.7 4.3 1.8 1.1 5.7-.1 9-2.9 1.6-1.3 3.5-2.5 4.3-2.5 2-.2 2.4-.4 7.4-2.7 2.5-1.2 5.5-2.2 6.7-2.2s2.4-.4 2.8-.9c.3-.5 1.9-1.3 3.6-1.6 5-1.1 11.7-5.7 12.8-8.8 1-2.8-.3-6.7-2.1-6.7-2.6 0 1.6-11.9 4.2-12 .8 0 3.5-.7 6-1.6 5.7-2 15.2-1 19.5 1.9 1.7 1.2 3.1 2.5 3.3 2.9.3.7 5.6 2.5 10.2 3.4 6.8 1.5 8 1.4 15-1.1 9.4-3.4 14.9-4.5 15.6-3.3.7 1.1-1.5 4-2.6 3.3-.5-.3-1.1-.1-1.5.5-.6.9-5.2 3.2-14.8 7.4-2.1.9-4.8 1.6-6.1 1.6s-2.9.7-3.6 1.5-1.7 1.5-2.2 1.5c-1 0-3 1.6-9 7.2-1.5 1.5-3.7 3-4.8 3.3-1.2.4-2 1.5-2 2.9 0 1.3-.2 3.9-.5 5.7-.3 1.9-.2 2.8.1 2.1.5-1 .9-1 2-.1s1.4.9 1.4 0c0-.7.4-1 .9-.7.4.3 1.7-.1 2.7-.9 2.4-1.8 3.4-1.9 3.4-.1 0 1.6-5.5 6-8.8 7-1.2.4-2 1.1-1.7 1.6.5.8-2.3 2.5-3.7 2.2-.5-.1-.8.2-.8.8 0 .5-.7.7-1.5.4q-1.5-.6-1.5 1.2c0 1.7-.1 1.7-1.4-.1s-1.4-1.8-4.7.3c-1.9 1.1-5 2.8-6.9 3.7-18.2 8.4-27.3 14-27.8 17-.2 1.1-1.5 3-2.8 4.3-2.5 2.4-3.1 4.2-1.4 4.2.6 0 1 .7 1 1.5 0 1.6 2 1.9 5.8.9 1.3-.4 2.2-1.4 2.2-2.5s.5-1.9 1.1-1.9.4-.7-.5-1.5c-.8-.8-2.2-1.2-3-.9-1.1.4-1.6.1-1.6-1 0-1.3 1.2-1.6 6-1.6 5.3 0 6.4-.3 9.2-3 3.6-3.5 4.8-3.8 4.8-1 0 1.1-.7 2-1.5 2s-1.5.9-1.5 2.1c0 1.1-.3 1.8-.8 1.5-.4-.2-1.6.2-2.6.9-1.7 1.3-1.7 1.4.9 2.1l2.7.7-2.6 1.7c-1.5.9-2.3 2-1.9 2.3.3.4.1.7-.5.7-.7 0-5.5 2-10.6 4.5-5.2 2.5-9.8 4.5-10.3 4.5-.4 0-1.9 1.2-3.2 2.5-1.3 1.4-3.4 2.5-4.9 2.5-1.4 0-2.2.3-1.9.7.4.3-3.3 2.6-8.1 5-4.8 2.3-9.2 5-9.8 5.8s-1.7 1.5-2.4 1.5c-1.9 0-14.2 5-16 6.4-.8.7-3.3 2.1-5.5 3-4.9 2.2-6.5 4.1-6.5 7.7 0 1.5-.5 3.1-1 3.4-1.5.9.8 3.5 3 3.5 1 0 2-.6 2.2-1.2.4-1 1-1 2.9-.1 1.5.7 1.8 1.2.8 1.2-1.6.1-7.9 5.8-7.9 7.2 0 1.2-.4 1.3 7.3-2.6 7.5-3.8 7.7-3.9 7.7-2.6 0 .5-1 1.3-2.2 1.7-2.7.8-12.8 8.1-12.8 9.2 0 .4-2.5 2.3-5.6 4.1-3.1 1.9-6.5 4.1-7.5 5s-3.5 2.9-5.4 4.6c-2 1.6-4.3 4.5-5.2 6.2-.8 1.8-2.3 3.3-3.2 3.3s-2.2.9-2.9 2c-1.1 1.8-1 2 1.3 2 1.4 0 3.4-.8 4.5-1.7 2.5-2.2 10.9-7.2 13.3-8 .9-.3 1.7-.9 1.7-1.4s1.1-.9 2.5-.9 2.5-.5 2.5-1.1c0-.5.4-.8 1-.4 1.5.9 10.1-3.9 14.5-8.2 2.2-2.2 7.2-6.1 11-8.8 3.9-2.6 7.5-5.3 8-5.9.6-.6 4-2.7 7.8-4.6 3.7-1.9 6.7-3.8 6.7-4.2s.5-.8 1.1-.8 2.9-1.3 5.2-2.9c2.3-1.5 5.1-3.1 6.3-3.5 1.1-.3 3-1.5 4.1-2.5 1.1-1.1 3.8-2.8 5.9-3.9 4.1-2.1 20.5-13.7 23.8-16.9 1.1-1 4-3.3 6.5-5.2l4.6-3.3-3.4.6c-1.9.3-5.9 2.5-8.8 4.9-3 2.3-6.3 4.7-7.5 5.4-1.1.6-2.3 1.5-2.7 2-.6.8-7.8 5.3-8.6 5.3-.2 0-.2-.7-.1-1.7.2-.9 2-2.5 4.2-3.7 2.1-1.2 4-2.4 4.2-2.9.2-.4 1.2-.7 2.2-.7s2.8-1.1 4.1-2.5c1.3-1.3 2.9-2.5 3.5-2.5s1.9-.9 2.9-2 2.4-2 3.2-2 1.1-.5.7-1.1c-.5-.9.1-1 2-.5 2 .5 2.6.4 2-.5-.4-.8-.3-.9.4-.5 2.6 1.6 17.8-8.6 18.7-12.6.7-3 4.9-6.3 6.7-5.2.7.4.8.3.4-.4s-.2-1.2.3-1.2c.6 0 1.1-.6 1.1-1.3 0-.8 3.7-4.7 8.2-8.8 11.6-10.5 11.5-10.4 12.3-13.8.4-1.7 1.3-3.1 2-3.1 2.1 0 3.5-3.3 3.4-7.7-.2-5.7.9-10.5 2.7-12.2 1.3-1.3 1.7-1.3 2.1-.3.5 1.2 6.3-6.9 6.3-8.7 0-.5.9-2 2-3.4 1.3-1.6 2.2-4.8 2.6-8.9.4-3.4 1.2-7 2-7.8 1.9-2.3 7.4-13.7 7.4-15.4 0-.9.5-1.6 1-1.6.6 0 1-2 1-4.3 0-3.1.6-4.9 2-6.2 1.1-1 2-3.1 2-4.7s.6-3.1 1.4-3.4c2.2-.8 4.6-7.9 4-11.4-.4-1.8-.1-3.6.7-4.6.7-.9 1.4-2.3 1.6-3.2.1-1 1.1-2.4 2.1-3.2 2.9-2.4 4.2-5.4 4.2-9.9 0-2.2.5-4.3 1-4.6.6-.3 1-1.9 1-3.4 0-1.6.8-3.5 1.7-4.2.9-.8 2.9-4.2 4.5-7.7 1.5-3.4 3.3-6.2 3.9-6.2 1.1 0 .8-4.8-.6-14.5-.4-2.4-.3-2.6.4-1 .9 1.9 1 1.8 1.1-.5 0-1.4.7-3.4 1.5-4.4 1.3-1.7 1.3-2.2.1-3.5-.7-.9-1.6-3-2-4.6-.4-1.7-1.1-5-1.7-7.5-.5-2.5-.9-7.5-.8-11.2.1-5.3-.2-7.2-2-9.6-2.5-3.5-2.6-4.5-.6-6.2 1.1-.9 2-.8 4.5.6 1.6 1 3 2.1 3 2.5 0 .3 1.4 2.3 3 4.4 3.6 4.5 3.6 4.8.8 7.5-2 1.8-2.2 2.9-2 9 .2 3.9 1 8.3 1.8 9.8.7 1.5 1.4 3.4 1.4 4.3 0 .8 1.1 3.8 2.5 6.5s2.5 5.6 2.5 6.5c0 .8.5 2 1.2 2.7s.8 1.2.4 1.2c-.5 0 .2.9 1.5 1.9l2.4 1.9-2.7 1.1c-2.7 1-2.8 1.3-2.4 6.8.6 7.9 2.5 19.3 3.7 21.4.5 1 .9 3 .9 4.6 0 1.5.9 4.8 2 7.2s2 5.8 2 7.7.4 3.4.9 3.4 1.4 1.5 2.1 3.2c.7 1.8 1.8 4.6 2.5 6.3.7 1.6 1 4.9.8 7.1-.3 2.6.4 7.1 1.8 12 4 13.7 3.8 53.3-.3 77.1-1 5.9-.9 6.5 1.5 10.5 2.1 3.7 2.4 5 1.7 8.3-.4 2.2-1.1 5.6-1.5 7.5s-1.4 5.4-2.2 7.8c-1.1 3-1.4 6-1 10.2.4 3.4.3 6.8-.2 7.8-1.4 2.7-3.1 10.9-3.1 15-.1 2-.7 5.3-1.4 7.3-1 2.8-1 3.8 0 4.7 1.9 1.7 2.8 9.7 1.5 13.3-.6 1.8-1.1 5-1.1 7.3s-.7 6.3-1.5 9-1.5 7.9-1.5 11.5c-.1 3.8-.7 7.7-1.5 9.1s-1.4 3.3-1.5 4.3c0 1.1-.7 3.3-1.4 5-1.4 3.1-3.4 11.8-4 18.3-.2 1.7-.9 4-1.5 5.2-.6 1.1-1.1 4.7-1.1 7.9s-.5 7.4-1 9.3-1.8 6.9-2.9 11c-1.2 4.2-2.1 10.6-2.1 14.6s-.6 8.4-1.4 10c-1.5 3.1-1.1 14.4.5 14.4.5 0 .9.7.9 1.5s-.4 1.5-1 1.5c-.5 0-1 .9-1 1.9 0 1.1-.3 2.1-.8 2.3-.4.1-1.5 2.5-2.4 5.3-.9 2.7-2.8 8.3-4.2 12.3-1.4 4.1-2.6 9.4-2.6 11.8 0 2.5-.9 6.9-1.9 10-1.1 3-2.3 7.6-2.6 10.2-.7 5.3-2 9.4-4.1 13.4l-1.5 2.8h32c26.8 0 32.1-.2 32.1-1.4 0-.8 1.3-4.7 3-8.7 1.6-4.1 3-8.8 3-10.6 0-1.7.7-3.8 1.5-4.7.8-.8 1.5-2.4 1.5-3.5s.5-2.3 1-2.6c.6-.3 1-1.8 1-3.3s.5-3.4 1.1-4.2c1.3-1.9.4 16-1 18.7-2.3 4.8-5.1 11.5-5.1 12.6 0 .6-.9 2.3-2 3.7s-2 2.8-2 3.2c0 .5 51.5.8 114.5.8h114.4l-.5-5.2c-.5-5.8-.1-5.5 1.6.9l1.1 4.3H767c13.4 0 14-.4 9.1-5.7-3.2-3.5-4.9-10.3-2.6-10.3 1.7 0 3.5 3.4 5.9 10.7l1.8 5.3H797c15.7 0 18.4-.6 16.1-3.3-.5-.7-1.2-2.4-1.4-3.7-.3-1.4-1.2-4.2-2.1-6.3-.9-2-2.3-5.3-3.1-7.2-.8-2-1.5-4.4-1.5-5.5s-1.1-4.5-2.5-7.6-2.5-6.4-2.5-7.3-.5-2.2-1.1-2.8c-2.1-2.1-.6-3.4 2.4-1.8 2.5 1.3 3.7.8 2-.9-.5-.4-.8-1.1-.8-1.4-.1-.4-1.1-3.7-2.3-7.4s-2.2-7.6-2.2-8.6-.3-2.2-.6-2.5c-1.5-1.5-4.3-11.5-4.5-15.7-.2-4.5-.2-4.5-.8-1-.6 3.2-.8 2.9-1.4-3-.4-3.6-1.1-10.1-1.6-14.5-.5-4.5-.5-9 0-10.3 1.5-3.8 1.1-12.9-.6-14.6-.9-.9-1.5-3.3-1.5-6.1 0-2.5-.4-5.4-1-6.4-.5-1-1.2-7.4-1.6-14.2-.6-11.8-2-17.9-4.5-19.5-.6-.3-.8-1.7-.5-3 .6-2.2-.7-6.1-2.4-7.4-1.7-1.4-4-5.7-4-7.8 0-1.2-1.1-3.4-2.5-4.8s-2.5-2.9-2.5-3.4c0-.4-.5-1-1.2-1.2-.8-.3-.8-.9 0-2.4 1-1.7 1.1-1.7 1.2-.2 0 1 .5 1.8 1 1.8.6 0 1-1.1 1-2.5s.5-2.5 1-2.5c1.7 0 1.1-6.5-1.1-11.6-1.2-2.7-3.6-6.9-5.4-9.4-1.7-2.5-3.5-5.8-3.8-7.2-.7-2.7-10.7-14.8-12.4-15-.4 0-1.4 1-2 2.3-.7 1.3-1.3 1.8-1.3 1.1s-1.3-1.2-3.2-1.2c-5.6 0-6.2-1-5.4-8.7.4-3.7.7-7.8.7-9.1-.1-2.7 2.3-3.9 4.5-2.1.9.7 2.6 3.3 4 5.8 1.3 2.5 2.8 5.3 3.3 6.1.4.8 1.7 3.1 2.7 5.1 1.1 2 3.7 5.7 5.9 8.3 3.9 4.7 7.3 9.7 9.7 14.6.7 1.4 2.3 3.6 3.6 5l2.3 2.5-.6-26.5-.5-26.5-3.6-5.2c-5.6-8.1-7.7-15.6-5.3-18 3-3 2.5-54.3-.5-60.4-1.4-2.9-1.4-3.7 0-8.8.8-3.1 1.9-6.4 2.4-7.3.8-1.3.5-2-1-2.8-1.1-.6-2-1.9-2-3 0-2.4 2.1-7 3.2-7 .4 0 .8-.7.8-1.6s.8-3.3 1.9-5.3c6.7-13.1 6.9-14.1 3-14.1-1.1 0-3.6-.7-5.6-1.5l-3.6-1.5 2.8-3c1.6-1.7 3.5-3 4.2-3s1.3-.6 1.3-1.4c0-.7 1.4-1.9 3-2.6 1.7-.7 3-2 3-3 0-.9.9-2.9 2-4.3s2.5-4.9 3-7.8c.6-2.9 1.5-5.8 2-6.3.6-.6 1-1.7 1-2.6.1-2.6 6.5-9 9.7-9.6 2.6-.5 3.4-.1 5.8 3 1.5 1.9 3.1 5.3 3.6 7.4.9 4.2 8 17.2 10.4 19.2.8.7 1.5 2.6 1.5 4.2 0 1.7.4 2.7 1 2.3.6-.3 1-.2 1 .4 0 .5-.5 1.3-1 1.6-1.5.9-.9 9.3.7 10.7.7.6 1.3 1.8 1.3 2.7 0 1 1.2 2.8 2.6 4.2 4.2 3.9 7.2 10.8 7.5 17.5.2 3.2.9 7 1.6 8.4s1.3 3.2 1.3 4.1c0 2.5 4.7 16.5 7 20.7 2.2 4.2 12.1 15.2 13.6 15.2.6 0 2.5 1.6 4.4 3.5s4.1 3.5 5 3.5c2.1 0 7 2.3 7 3.2 0 .5.6.8 1.4.8.7 0 3.4 1.1 6 2.5s5.6 2.5 6.6 2.5 2.2.5 2.5 1c.4.6-.5 1-2 1-5 0-12-2.3-16.5-5.4-5.6-3.9-11.8-6.8-13.1-6.1-.5.4-.9 1.2-.9 2 0 .7-.5 1.5-1.2 1.7-1.2.4 1.8 5.8 3.3 5.8.4 0 2.4 1.3 4.2 3 1.9 1.7 3.9 3 4.4 3s1.6 1.2 2.4 2.7c1.1 2 1.1 2.7.1 3-1.4.5-1.6 4.3-.2 4.3.6 0 1.5 1 2 2.2.6 1.3 1.4 3 1.9 3.8s1.7 3.3 2.7 5.4c1.1 2.1 2.7 4.4 3.7 5s4.1 3.2 7 5.8c2.8 2.6 5.3 4.5 5.5 4.4.3-.4 1.6.9 10.5 10.2 1.8 1.9 4.2 3.8 5.5 4.3 1.2.5 2.2 1.7 2.2 2.7 0 1.1 1.9 3.5 4.3 5.3 2.3 1.9 5.6 4.8 7.2 6.4 1.7 1.7 4.7 3.9 6.8 5 2 1.1 3.7 2.3 3.7 2.8 0 2.6 5 6.4 15.2 11.6 6.2 3.1 13 6.8 15 8.2 2.1 1.3 7.4 4.6 11.9 7.4 4.5 2.7 9.8 6.5 11.9 8.2 2 1.8 4 3.3 4.3 3.3.7 0 15.7 11 21.8 16 2 1.6 5.4 3.7 7.5 4.7 2.2 1 5.5 3 7.4 4.6 5.8 4.6 14.7 10.7 15.7 10.7.3 0 3.7 2.5 7.4 5.6 5.6 4.6 7.4 5.5 9.4 5 1.4-.4 2.5-1.1 2.5-1.7 0-.5 2.1.2 4.6 1.6 2.6 1.4 4.8 2.4 5.1 2.2.8-.9-7-6.8-8.3-6.3-.8.3-1.4-.1-1.4-.9s-.6-1.5-1.4-1.5-2-1.6-2.6-3.5-1.5-3.5-1.9-3.5-1.4-1.5-2.3-3.3c-.8-1.8-2.8-3.9-4.4-4.7s-5.4-3.1-8.4-5.2c-9.8-6.9-13.1-8.8-14.7-8.8-.9 0-2.6-.9-3.7-1.9-2-1.8-4.4-3.3-12.6-7.7-4.4-2.4-6.2-4.2-5.8-5.5s15.5 6.5 17.7 9.2c.9 1 4.7 3 8.5 4.4 3.8 1.3 7.4 2.9 8 3.5.5.5 2 1 3.3 1 2.8 0 3.1-2.6.3-3.5-1.1-.3-2.8-1.6-3.7-2.9-1-1.3-3.6-3.4-5.8-4.8s-5.2-3.6-6.6-4.9c-3.3-3-10.3-6.9-12.3-6.9-.9 0-1.6-.7-1.6-1.5 0-1.5-11.1-8.3-28.5-17.5-5.5-2.9-11.7-6.4-13.7-7.7-2.1-1.2-4.2-2.3-4.7-2.3-.8 0-2.1-2.3-2.1-3.6 0-1.5 4.6.1 6.9 2.4 1.5 1.5 4.5 3.5 6.7 4.6 2.1 1 5.7 3 7.9 4.5 5.6 3.8 22.6 12 26.4 12.7 1.7.4 4.5 1.9 6.1 3.4 1.7 1.6 3 2.5 3 2.2s.5-.1 1.2.6 2.5 1.2 4.1 1.2c2.4 0 2.8-.4 2.5-2.2-.2-1.3-1.1-2.4-2.3-2.7-1.1-.2-2.6-1.2-3.3-2.2-.7-1.1-2.2-1.9-3.3-1.9-1 0-1.9-.5-1.9-1.1 0-.5-.4-.7-1-.4-1.1.7-5.1-1.2-6.2-2.9-.4-.6-.8-2.1-.8-3.3 0-2.2-6.2-6.6-11.3-7.8-1.5-.4-2.7-1.1-2.7-1.5 0-.5-.9-1.2-2.1-1.5-3.9-1.3-16.8-10.5-26.2-18.7-3.2-2.8-8.1-6.6-11-8.4s-6-3.9-6.9-4.8c-1-.9-2.1-1.6-2.4-1.6-.4 0-4.4-3.1-8.9-7-4.5-3.8-10-7.9-12.1-9.1-2.2-1.2-4.8-2.8-5.9-3.5-1.1-.8-2.7-1.4-3.7-1.4-1.3 0-1.8-.8-1.8-3 0-3.6-7.3-11.5-11.5-12.6-2.5-.6-2.6-.9-2.4-6.7l.3-6.1-3.5-.9c-1.9-.5-3.8-1.5-4.2-2.3s-2.1-2.1-3.7-2.9c-2.3-1.2-3-2.2-3-4.5 0-1.7-.4-3-.9-3s-1.4-1.4-2.1-3c-.7-1.7-2.5-3.7-4-4.5s-4.3-2.9-6.3-4.7-4.8-4.3-6.4-5.5c-6.7-5.2-9.8-8.2-8.2-8.3.8 0 2 .5 2.7 1.2s1.2.8 1.2.4c0-.5.7-.2 1.6.5s5.7 3 10.7 5.1c6.6 2.7 9.5 3.4 10.8 2.7 1-.5 4.7-.9 8.4-.9h6.5l-1.5-2.4c-1-1.5-1.5-4-1.3-6.7.3-4.1.4-4.3 4.8-5.3 4.4-1.1 4.5-1.2 5.2-5.8.3-2.6 1.3-5.4 2.1-6.3.8-.8 1.7-2 1.9-2.6.2-.7 2.4-1.2 4.8-1.3 4.2-.1 4.4 0 4.4 2.8.1 2.5 1.2 3.7 6.6 7.6 3.6 2.5 6.6 5.4 6.8 6.2.5 2.4 8.5 4.8 15.7 4.8 5 0 7 .5 9.9 2.5 4.4 3 13.4 3.5 18.5.9 5.3-2.6 14.2-.8 13.8 2.9-.2 2.6 2.9 3.3 18.5 4.2 6 .4 10.6 1.1 10.2 1.6-.3.5-1.6.9-2.9.9s-2.7.4-3 1c-.3.5-3.3 1-6.5 1s-6.1.4-6.4.9c-.9 1.5 5.2 3.4 8.9 2.8 1.9-.3 3.7-.2 4 .3.3.4 3.2 1.1 6.4 1.5 3.3.4 7.5 1.2 9.5 1.9l3.6 1.2-3.5 1.7c-2 .9-4.8 1.7-6.3 1.8-2.4 0-2.5.1-.7.9 1.4.6-.3.9-5.5 1.1-4.1.2-8.5.2-9.7.1-1.9-.1-2.3.4-2.3 2.8 0 2.6.4 2.9 5.3 3.9 7.2 1.5 27.3 3.7 51.7 5.7 17.6 1.4 21.2 2 25.3 4.1 4.6 2.3 5.4 4.2 1.9 4.4-1 0-.3.7 1.5 1.5 5.3 2.3 8.4 13 3.5 12-6.5-1.3-11.5-5.7-9.8-8.5.4-.6 0-1.1-.8-1.1-.9 0-1.6-.7-1.6-1.5s-.8-1.5-1.8-1.5-4.2-.9-7.2-1.9c-3.2-1.1-13.8-2.8-25-4-10.7-1.2-22-2.4-25-2.8-3-.3-11.3-.7-18.5-.9-7.1-.1-14.2-.6-15.6-.9-2.3-.6-2.7-.3-3.2 2.2-.3 1.5 0 4.1.8 5.8.7 1.6 1.8 4.5 2.5 6.3s1.5 3 1.8 2.7c1.1-1 4.2 2.9 4.2 5.2 0 1.6 2.4 4.9 7.4 10.1 10.7 11 11.5 12.1 12.8 16.6 2.2 7.7 8.3 15 15.8 18.9 4.1 2.2 9 6.6 9 8.1 0 .6 1.7 3 3.9 5.3 2.1 2.4 4.4 5.6 5.1 7.3.7 1.6 1.8 3 2.5 3 2.1 0 6.5 4 6.5 6 0 1.1 1.1 2.2 3 2.9 1.7.5 3 1.5 3 2 0 .6.5 1.1 1.1 1.1s1.8.8 2.7 1.9c1 1 3.5 2.5 5.7 3.4 7.1 2.7 17.9 8 21.2 10.5 4.2 3.1 16.3 4.5 16.3 1.9 0-1.3 1-1.5 5.8-1 3.1.3 6.5 1 7.4 1.4 2.6 1.4 5.8 1.1 5.8-.6 0-.8.5-1.5 1-1.5 1.2 0 1.3-3.7.1-4.2-.5-.2-1.1-1.2-1.3-2.3-.4-2.4 2.6-3.2 5.8-1.4 2.2 1.1 2.7.9 5.4-2.1 1.7-1.9 3-3.6 3-3.9 0-.6-3.6-5.2-6.3-8.1-.8-.8-1.7-2.4-2.1-3.6-.3-1.2-1.8-2.6-3.1-3.2-1.4-.6-2.5-1.8-2.5-2.5 0-.8-.8-2.2-1.9-3.1-1-.9-2.1-3-2.5-4.7-.3-1.6-1.2-2.9-2-2.9s-1.9-.7-2.3-1.5c-1-1.8-10.1-6.5-12.7-6.5-1 0-4.6-1.3-8.1-3-4.8-2.3-6.4-3.6-7-5.7-.3-1.5-1.6-4-2.8-5.7s-2.4-5.4-2.8-8.5-1-6.8-1.4-8.3c-.5-2.1-.2-3.2 1.8-5.2 3.4-3.4 7.4-2.7 20.5 3.5 5.7 2.7 11 4.9 11.8 4.9 1.1 0 1.3.6.9 2.1-.6 1.9-.4 2.1 1.5 1.6 1.6-.4 2.4-.1 2.7 1.4.3 1 .9 1.9 1.4 1.9.4 0 .9 2.7 1.1 6.1.3 6.8.5 6.9 14.2 12.5 5.8 2.4 15.3 8.4 13.2 8.4-.4 0 0 .7.8 1.6.9.8 1.8 2.7 2.1 4.2s1.5 4.5 2.5 6.7c2.6 5.1 2.5 9.9 0 13.5l-2 2.8 2-.5c1.1-.3 2 0 2 .6s1.6 1.1 3.5 1.1 3.5.4 3.5.9 2 1.7 4.5 2.7c2.5.9 5.7 2.8 7.1 4.1 2.1 1.9 2.4 2.6 1.3 3.9-1 1.2-.8 1.9.9 3.7 1.2 1.2 3.3 2.4 4.7 2.5s5.5 1.5 9.1 3.2c5.9 2.7 13.7 4.6 27.4 6.8 2.5.5 5.6 1.5 6.9 2.4s2.9 1.4 3.7 1.1 1.6.1 1.9.9 1.2 1.5 2 1.5c2 0 11.5 4.6 11.5 5.6 0 .5-.8.6-1.7.2-1-.4-5.8-1.4-10.8-2.1-4.9-.7-11.6-1.8-14.8-2.5-4.3-.9-6-1-6.5-.2-.4.6-3.5 1.5-6.9 1.8-5.6.7-6.6.5-11-2-3.8-2.2-6.7-3-14.3-3.6-5.2-.5-11.2-1.1-13.2-1.5-2.6-.4-3.8-.2-3.8.5 0 2.3 2.8 7.6 4.9 9.5s2.1 2.5 1.5 12.6c-.5 8.8-.4 11.1 1 13.8.9 1.8 2 3.2 2.5 3.2s1.4 1.3 2.1 2.9c.6 1.6 2.4 3.5 4 4.1s3.1 2.2 3.4 3.5 1.9 2.8 3.8 3.6c1.8.7 7.1 3.8 11.7 6.8 10.2 6.9 9.4 6.4 21.6 13.4 5.5 3.2 12.9 7.7 16.5 9.9 3.5 2.2 10 5.9 14.4 8 5.1 2.6 7.4 4.3 6.6 4.8-.7.4-2.4.5-3.9.1-2.9-.8-9.3-.4-13.1.8-2 .6-4.9-.3-14-4.7-10.8-5.2-12.1-5.6-21-6.1-9.1-.6-9.5-.7-10.8-3.3-1.2-2.6-1.7-2.8-7.7-2.8-5.5 0-6.5-.3-7-2-.4-1.3-1.5-2-3.1-2-2.4 0-2.4.1-.8 2.5.9 1.4 2 2.5 2.5 2.5s.9.5.9 1.1c0 5 12.1 17.9 16.9 17.9 1.1 0 2.8 1.1 3.9 2.5s3.7 3.2 5.9 4.1c2.1.9 6.7 3.2 10.2 5.2 5 2.8 6 3.7 4.7 4.4-1.3.8-.9 1.5 3 4.9 2.5 2.1 4.9 3.9 5.4 3.9 1.2 0 2.1 3 1.3 4.5-.6 1.1-1.9.8-6.3-1.3-3-1.4-5.6-2.9-5.8-3.4-.2-.4-1.9-.8-3.7-.8-3.7 0-4.5 1.2-4.5 6.6 0 3.1-.2 3.4-1.9 2.4-3.7-2-5.1-1.3-5.1 2.6 0 3.6 4 17.3 5 17.4.8 0 5-14.1 5-16.6 0-2.8 2.1-4.5 4.8-3.7 1.2.3 2.2.7 2.2.8 0 .4-3 7.5-5.5 13-1.2 2.7-2.8 6.7-3.4 8.7-.8 2.4-1.9 3.8-2.9 3.8-1.9 0-3.1-2.3-6.6-13-4.6-14.2-6.3-16.6-13-17.9-2-.5-3.2-1.3-3.4-2.6-.3-1.9-8.4-6.5-14.2-8.1-1.4-.4-3.8-1.8-5.4-3.1-3.5-2.9-10-6.3-12.1-6.3-.8 0-3.3-1.6-5.4-3.5-3.4-3.1-10.1-6.3-10.1-4.9 0 1.5 2.9 5.5 7.2 9.9 2.7 2.7 5.6 6.4 6.4 8.2 1.8 3.7 12.6 14.1 17.2 16.5 1.8.9 3.2 2.1 3.2 2.6 0 1.6-4.4 2.9-8 2.5-8.2-.9-10.1-1.5-12.7-3.9-1.4-1.3-3.8-2.7-5.2-3-4.3-.8-11-4.5-11.6-6.3-.4-1.5-6.3-5.1-8-5.1-.3.1-1.3-.6-2.1-1.5-1.7-1.7-6.4-2.1-6.4-.5 0 1.1-9-4.9-13.2-8.8-1.5-1.4-3-3.4-3.4-4.4-.3-1-2.7-2.7-5.3-3.9-4.2-1.8-5.1-2.8-7.7-8.1-1.6-3.4-3.9-7.2-5.1-8.4-1.3-1.3-2.3-2.8-2.3-3.3 0-.6-.7-1.4-1.6-1.9-1.4-.8-1.2-1 1-1.6 7-1.8 8.8-8.1 3.7-13.5-2.9-3.1-5.1-4-5.1-2.1 0 .5-.4 1-1 1-.5 0-1-1.1-1-2.4 0-2.9-9.9-12.6-12.9-12.6-1.1 0-4.1-2.2-6.7-5-2.7-2.8-6.1-5.4-8.2-6.1-2.3-.7-6.1-3.6-10.2-7.8-3.6-3.6-10.3-9.3-15-12.5-4.7-3.3-9.4-6.7-10.5-7.7-7.8-7-11.6-9.9-15.7-12.3-2.5-1.5-5.7-3.7-7-4.9-4.7-4.6-15.1-11.3-16.1-10.5-.2.2-1.2-.4-2.2-1.2s-2.8-1.3-4.1-1.2c-1.6.2-2.4-.2-2.4-1.1 0-.8-1.9-2.5-4.2-3.7-2.4-1.2-5.2-3-6.3-4s-5.3-2.9-9.2-4.3c-4-1.4-9.5-4.1-12.3-6.1-2.7-2-5.8-3.6-6.9-3.6-1 0-6.3-2-11.6-4.5-5.4-2.5-10.5-4.4-11.4-4.2-1.1.3-.8.7 1.2 1.5 1.5.7 4.9 3.2 7.6 5.7 2.6 2.5 5 4.2 5.4 3.9.3-.3 1.3-.2 2.2.4 1.3.7.4 1-3.7 1.5-7.7.7-15.9-2-16.9-5.6-.4-1.4-1.9-3.8-3.3-5.4l-2.6-2.8 3.7-.5c3.6-.5 3.7-.6 1.6-1.8-1.2-.6-4.2-1.2-6.7-1.2-4.1 0-4.6.3-5.2 2.7-.4 1.5-1.8 3.9-3.1 5.3-1.2 1.3-2.3 3.2-2.3 4 0 .9-.5 2.1-1.2 2.8-.9.9-.8 1.2.4 1.2.8 0 2.1.7 2.8 1.5 2.9 3.5 18.4 9.5 24.6 9.5 2.2 0 3.4.7 4.4 2.5.7 1.3 1.6 2.2 2 2 .5-.3 3 1.4 5.6 3.8 5.5 4.8 11.9 8 15.5 7.7 4.1-.4 4.5-.1 9.8 4.9 2.8 2.7 7.4 6.1 10.2 7.6 2.8 1.4 7.2 4.2 9.7 6.1 2.6 1.8 6.9 4.6 9.6 6.1 2.7 1.6 6.3 4 8 5.4s4.8 3.6 6.9 4.8c2 1.2 3.7 2.6 3.7 3.1 0 .8-8-1.9-11.8-3.9-.9-.6-3.8-1.7-6.4-2.7-2.7-.9-4.8-2.1-4.8-2.6 0-1.1-5.9-.1-7.6 1.3-.6.5-3.9.6-7.2.3-6.6-.7-8.8-2-16.9-10.2-2.4-2.3-4.6-4.2-5-4.2s-1.6-.8-2.7-1.9c-1.2-1-3.9-2.8-6.1-3.9-4.4-2.3-20.9-9-23.9-9.7-1-.2-2.6-1.1-3.6-2-.9-.8-2-1.5-2.4-1.5s-1.2-.5-1.9-1c-2.5-2.1-10.2-7-11.1-7-.6 0-2-.9-3.2-2.1-1.2-1.1-2.9-2.2-3.9-2.3-.9-.1-2-.7-2.3-1.3-1.1-1.6-9.5-6-12.9-6.7-2.2-.5-3.5-.2-4.7.9-.9.9-1.6 1.4-1.6 1 0-.3-.9-.1-2 .5-1.7.9-1.9 1.8-1.5 7.4.4 6 .3 6.4-2.5 8.4-2.1 1.6-3 3.3-3.5 6.7-.8 5-.8 4.9-3.6 3.5-1.5-.8-2.3-.7-3.5.5-.8.8-2 1.5-2.5 1.5s-.9.5-.9 1.2c0 .6-.7 1.9-1.6 2.9-1.5 1.7-1.5 2 .5 4.6 1.2 1.5 2.9 3.8 3.9 5.1 2.2 2.9 8.2 8.7 9 8.7.4 0 2.3 1.1 4.2 2.5 1.9 1.3 4.1 2.5 4.8 2.6.8.2 2 1.1 2.8 2.1 1.2 1.7 1.3 1.6 1.4-1 0-1.7.5-2.7 1.2-2.5 1.4.5 2 3.8.7 3.8-1.6 0-1 2.5 1.1 4.8 3.4 3.6 4 6.5 2.7 13.1-.6 3.3-1.5 6.1-2 6.1-.4 0-.5-.4-.2-1s-.1-.7-.9-.4c-1 .4-2.6-.6-4.3-2.7-1.6-1.8-6.9-7.6-11.9-12.9-5-5.2-9.3-10-9.5-10.5-.2-.6-3.8-3.9-7.9-7.5s-8.6-7.5-9.9-8.7c-5-4.5-10.2-3.8-13.5 1.8-2 3.4-2.1 10.2-.1 11.9.8.7 1.5 1.8 1.5 2.5 0 1.3 5.1 8.1 9.2 12.3 1.3 1.2 2.3 2.8 2.3 3.5 0 2.2 4.4 9.4 6 10.1.9.3 3.3.6 5.3.6 2.1 0 4.8.9 6.2 1.9 2.1 1.6 2.4 2.6 2.2 6.8-.4 6.3-1 8.3-2.7 8.3-1.8 0-10.5-8.6-10.5-10.3 0-1.6-4.9-6.1-5.8-5.3-.3.3-1.2.1-1.9-.6-.8-.6-.5.5.7 2.5 1.3 2.1 1.9 4.4 1.5 5.6-.5 1.7 1.5 4.9 6.2 9.9.7.7 1.3 2.2 1.3 3.2s.3 2.5.6 3.4c1.5 4-1.9.9-7.6-6.9l-6.2-8.5-5.1.3c-6.2.3-7 2-3.2 6.5 1.4 1.6 2.5 3.5 2.5 4.1 0 .7.8 2.4 1.8 3.9 9.7 14.3 9.4 13.6 8.1 18.6-.6 2.5-1.5 4.6-2 4.6s-.9 1.7-.9 3.9c0 2.9-.5 4-1.9 4.4-1.6.4-1.7 1.1-1 5.8 3.1 21.9 3.5 23.5 6.3 25.8 1.8 1.5 2.2 4.2.5 3.9-1.8-.5-2 6-.4 9.9.8 1.9 1.5 4.3 1.5 5.3s.7 3.1 1.5 4.6c1.8 3.5 1.8 3.4.1-8.6-.8-5.2-1.2-9.7-1-9.9.7-.8 3.5 3 6.5 9 2.7 5.2 3.4 6 4 4.4.7-1.9.8-1.9.8 0 .1 2.8 2 4.5 4.8 4.5 1.4 0 2.3.6 2.3 1.5 0 .8.9 1.5 2 1.5s2 .3 2.1.7c.3 3.2 3.2 10.7 4.8 12.7 2.4 2.8.6 3.8-2.3 1.3-5.6-4.8-7.1-5.2-10.5-2.7-1.7 1.2-2.9 2.6-2.6 3.1.4.5.2.9-.3.9-.6 0-1.2.7-1.6 1.5-.5 1.3 24.8 1.5 223.9 1.5H1280V416h-5.2c-6.1 0-18.6-2.7-20.8-4.5-.8-.7-2.8-1.7-4.5-2.3-3-1-2.9-1 1.5-1.2 7.2-.3 16 0 22.8.6l6.2.6v-56.9l-6.2-1-6.3-1 6.3-.2 6.2-.1V0H704l.7 4.7c.3 2.7.7 4.9.8 5 .1.2 1.5.4 3.3.6 1.7.2 3.9 1 4.8 1.8s3.3 1.4 5.2 1.4c3.2 0 3.4.2 3.8 3.8.2 2.1 1 4.4 1.9 5.3.8.8 1.8 2.7 2.1 4.2 1 4.9 1.3 5.2 4.3 5.2 1.7 0 3.8.8 4.8 1.9 1 1 3.5 2.1 5.6 2.5s4.3 1.6 5 2.6c.6 1.1 2 2 3.1 2 1.8 0 13.8 6 16.6 8.4 2.6 2.2 7.3 3.5 12.5 3.5 2.8 0 7.7.7 11 1.5 9.6 2.6 21.8 1.8 25.4-1.5 2.4-2.3 4.1-2.4 4.1-.4 0 1.8 1.6 2 2.3.2q.6-1.5.6 0c.2 3 3.3.9 8.1-5.6 1.4-1.8 3.3-4.2 4.2-5.1.9-1 1.3-2.2 1-2.6-.4-.4-.2-.4.4-.1 1.3.7-2.1 8.7-3.7 8.7-.4 0-1.1 1.5-1.5 3.4-.5 2.8-.1 3.9 1.6 5.8 1.2 1.3 3.1 4.3 4.2 6.8 5.2 11.9 6 13 10 13 2 0 4-.5 4.3-1 .3-.6 1.2-1 2-1 1.8 0 3.1 5.8 1.6 7.3-.6.6-1.1 3-1.1 5.3 0 2.4-.5 4.6-1 4.9-.6.3-1 2.1-1 3.9 0 2.8-.7 3.7-5.2 6.6-5.4 3.5-7.9 5.7-10.5 9.7-.8 1.3-1.9 2.1-2.3 1.8-1.4-.8-2.8 1.9-3.5 6.5-.4 2.4-1.4 5.6-2.4 7s-2 3.2-2.4 4.1c-.3 1-2.2 1.8-4.9 2.2-2.3.3-5.3.9-6.5 1.3-2.9.8-3-.9-.3-4.3 1.1-1.4 2-3.4 2-4.4s.5-2.9 1.1-4.3c1-2 .8-2.8-1-4.7-1.1-1.3-2.1-2.9-2.1-3.6s-.9-3.2-1.9-5.6c-1.1-2.3-2.2-6.1-2.6-8.4l-.7-4.2-2.1 2.2c-3.1 3.1-5.7 7.3-5.7 9.2s-2 1.9-4.6 0c-2.3-1.7-7.1-1.9-14.5-.5-4.9 1-5.5.9-7.6-1.3-2.4-2.4-2.6-3.6-2.3-20.1.2-6.7-1.8-8.6-8.6-8.6-3.5 0-5.6-.5-6.1-1.4-.4-.7-2.3-1.7-4-2.1-3.1-.6-3.3-.5-3.3 1.9 0 1.7.6 2.6 1.5 2.6s2.7 1.2 4.1 2.7c2.3 2.5 2.4 3.1 1.8 10.4-.5 7.4-.4 8 2 10.4 1.4 1.4 3.3 2.5 4.3 2.5 2.3.1 9.3 6.3 9.3 8.3 0 .9.4 1.9 1 2.2 1.5.9 1.1 10.5-.7 15-2 5.1-2 9.1.1 11.3.9 1 1.6 2.8 1.6 3.9s1 2.7 2.2 3.5c1.9 1.3 2.4 2.7 2.9 8.9.3 4.1.2 8.4-.2 9.6-.6 1.6-.5 2.3.4 2.3 1.5.1 7.7 8.2 7.7 10.1 0 .8-.6 2.3-1.3 3.4-.8 1.1-1.7 3.5-2 5.3-.4 1.9-1.8 4.7-3.1 6.3-1.4 1.6-3 4.5-3.7 6.4s-1.6 3.5-2 3.5-4.1 2.6-8.1 5.8c-4 3.1-11.5 8.4-16.5 11.7-8.7 5.6-10.7 7.5-8.2 7.5.5 0 .8.4.5.9s.4 1.2 1.7 1.5c2.1.6 2.1.7.3 1.7-1.2.8-2.1.8-2.5.1-.9-1.5-8.1-.6-13.1 1.7-2.5 1.1-5.2 2-6 2s-.1-.6 1.6-1.2c1.7-.7 4.3-2.1 5.8-3.3 2.5-1.8 2.7-2.3 1.6-4.4-1.2-2.2-1.1-2.2 2.4-1.8 2 .2 3.7.1 3.8-.2.2-.3 2.8-1.7 5.8-3.2 5.4-2.7 18.6-11.7 24.8-17 3.1-2.6 3.2-2.9 3.2-10.7 0-7 .3-8.2 2.3-9.8 3.6-2.9 6-9.1 5.1-12.9-.5-2-1.2-2.4-4.5-2.4-3 0-4.2-.6-5.6-2.6-3.9-5.8-6.4-7.4-11-7.4-3.6 0-4.6.4-5 1.9-.3 1.1-1.1 1.7-1.8 1.4-.8-.2-2 .5-2.7 1.6-1.3 2.2-3.8 2.9-3.8 1.1 0-.6-.9-1-2-1s-2-.5-2-1.1-.8-.3-1.7.6c-1.4 1.5-1.5 2.3-.5 6.1.7 2.4 1.2 6 1.2 8 0 1.9 1 5.6 2.1 8.2 1.9 4.1 2 4.9.7 7.2-1.8 3.3-6.7 3.9-9.3 1-2.1-2.3-5.5-2.5-13.6-1-3 .6-7 1.3-8.9 1.6s-4.3 1.3-5.2 2.1c-1.6 1.4-1.6 1.7 0 4.2.9 1.4 2.1 2.9 2.6 3.3.5.3 1.1 2 1.2 3.6.2 3 .1 3-3 2-1.7-.6-3.5-1.6-4.1-2.3-.5-.6-3.8-2.7-7.3-4.6-7.1-3.9-8.1-3.5-8.3 3.6-.1 3.2-.3 2.8-1-2.4-.4-3.5-1-6.6-1.3-6.8-1-1-5.2.6-9.7 3.7-4.7 3.2-5.9 3.6-5.9 2 0-.6.7-1 1.5-1 2.2 0 8.5-6 8.5-8.2 0-1-.5-1.6-1-1.3-.6.3-1 0-1-.7-.1-.7-2.4-2.4-5.2-3.8-2.9-1.4-5.4-3.5-5.9-4.8s-.5-2.2.1-2.2 1 .9 1 2c0 1.2.7 2 1.8 2.1 2.6.1 6.3 1 10.2 2.6 2.7 1.1 5.3.6 4.4-.8-.3-.5 0-.9.7-.9s.9-1.1.5-3.3c-.4-1.7-1.1-5.7-1.5-8.7-1.1-6.6-2.7-11-4.1-11-.5 0-1-.9-1-1.9 0-1.1-.6-2.2-1.2-2.4-.9-.4-.9-.8-.3-1.4 3.1-2.6 4-6.9 3.9-19.4l-.1-12.7-3.1-3c-2.2-2.2-3.2-4.1-3.3-6.4l-.1-3.3-.8 3.3c-.8 3.3-3.4 6.1-5.7 6.2-.7 0-1.3 1.1-1.3 2.5 0 1.5-1.1 3.6-2.5 4.9-1.3 1.2-2.9 3.5-3.5 5.1-.6 1.5-1.3 2.5-1.6 2.2-.8-.7 1.8-6.7 2.8-6.7.5 0 .8-1.4.8-3 0-1.7.9-3.9 2-5s1.9-2.3 1.8-2.8c-.1-.4.5-2.7 1.2-5.1 1.3-4 1.3-4.5-.6-6-2.2-1.8-3-5.6-1.4-6.6.5-.3 1-1.9 1-3.6V96h-7.5c-4.3 0-7.5-.4-7.5-1s-.6-1-1.3-1-2.4-1.1-3.9-2.5l-2.6-2.4-.4 21.2c-.3 18.3.5 46.9 1 39.7.1-1.4.7-3.2 1.2-4 .7-1.1 1-.5 1 2.4 0 3.4.2 3.7 1.6 2.5.8-.7 2.2-2.6 3.1-4.3l1.6-3.1 1 2.3c.7 1.6.7 2.6.1 3s-2.2 2.9-3.7 5.6l-2.7 4.9 1.9 3.1c1.1 1.7 2.3 5.5 2.7 8.4.4 3.6 1 4.9 1.6 4 .7-1 1.1-.9 2.3.6 2.1 2.7.8 3.8-2.4 2.1-3.2-1.6-5-.6-5.2 3-.1 1.7-.2 1.6-.9-.5-.5-1.7-.8.2-.9 6.1-.1 4.7-.6 9-1.2 9.6-1.4 1.4-2.6 33.3-1.2 33.3.6 0 1.3-.6 1.6-1.4s1.6-2 2.8-2.7c2-1 1.9-.7-.7 2.7-4.8 6.1-4.8 6.2-1.2 8.4l3.3 2h-3.2c-1.8 0-3.3.3-3.3.6 0 2 6.9 12.2 11.9 17.6 14.5 15.8 19.6 19.8 25.4 19.8 1.3 0 2.7.3 3.1.7.4.5 3.5 1.3 6.9 1.9l6.2 1.2-5.9.1c-4.5.1-5.7.4-5.3 1.5.8 2.2-8.3-.9-10-3.4-.8-1.1-2.3-2-3.4-2-1.9 0-1.9.1-.2 3.2 2.6 5 2.5 6.3-.3 3.7-1.4-1.3-2.2-2.9-1.9-3.6.2-.8-.2-1.6-1.1-2-.9-.3-3.9 1.7-8.2 5.8-3.7 3.5-9 8.3-11.7 10.6s-4.7 4.5-4.4 4.7c1.2 1.2 32.8 8.5 37.3 8.6.4 0 .5-.7.2-1.6-.4-1-.2-1.4.6-1.1.7.2 1.2 1 1 1.7-.2.9.5 1 2.3.6 1.9-.5 2.5-.3 2.5 1.1 0 2.4-2.9 5.3-4.7 4.6-.8-.3-2.7.4-4.3 1.6-4.2 3-4.9 2.6-1.5-.9 1.6-1.6 2.6-3.2 2.4-3.5-.6-.5-7.3-1.9-19.4-4-4.4-.7-8.9-1.6-10-2-1.8-.6-1.8-.5.1.7 1.2.7 3.4 2.9 5 4.8l2.9 3.5-3-1.9c-1.6-1.1-3.8-2.8-4.9-3.8s-2.5-1.8-3.2-1.8c-.6 0-1.7-.7-2.4-1.5-2-2.4-2.7-.9-2.9 6.7-.1 4-.4 11.7-.6 17-.5 10.4.1 11.9 3.7 9.4 3.2-2.3 4.2-2 2 .5-1.2 1.2-1.8 2.9-1.5 4 .4 1.3 0 1.9-1.1 1.9-2.7 0-3.6 4.4-3.7 17.8 0 7-.4 13.6-.9 14.7-.5 1.2-.9-3.3-.9-12.1-.1-14.8-.8-20.7-2.2-19.8-.5.3-.9.1-.9-.5 0-.5-.8-1.2-1.7-1.4-1.6-.4-1.6-.5-.1-.6 1.1-.1 1.5-.7 1.1-2.2-.5-1.8-.3-2 1.4-1.5 1.9.6 2.1.1 2.4-7.6.7-15.3.4-25.7-.7-26.8s-6.5 1.2-10.4 4.4c-2.5 2.2-4 2.8-4 1.7 0-.6 2-2.2 4.5-3.7 4.9-2.8 5.4-4.4.8-2.6-1.5.6-8 2.1-14.3 3.2s-12.1 2.3-12.8 2.5c-1.8.7 4.1 7 8 8.6 1.5.6 2.8 1.5 2.8 2 0 1.3 7.3 7.8 8.7 7.9 1.4 0 2.9 2 1.5 2-.5 0-3.2-1.8-6-4-2.7-2.2-5.2-4-5.4-4s-2.8-2.3-5.8-5.1c-3.4-3.2-6-4.9-7.1-4.6-1 .3-2-.1-2.3-.9-.3-.7-2-2-3.8-2.9l-3.3-1.5 3.2.6c2.3.4 3.8.1 4.9-1 .8-.9 2.1-1.6 2.7-1.6.7 0 .6.4-.3 1-1.1.7-.6 1 2 .9 3.7 0 4.4-.1 23.8-4.5l12.3-2.7-2.8-2.5c-1.5-1.3-4.8-3.8-7.3-5.4-2.5-1.7-6.5-5-9-7.4-5.8-5.5-9.6-7.5-12.4-6.4-3.9 1.6-6.1 2.3-7.6 2.6-.8.2-1.6.8-1.8 1.3-.2.6-1.3 1.1-2.3 1.1-1.1 0-1.8-.4-1.5-.8.3-.5-1.6-1.6-4.2-2.5-10-3.4-39-12.5-44-13.8-4.4-1.1-6.3-2.3-10.5-6.8-2.9-3-6.5-6.6-8.1-8s-4-3.6-5.3-4.8c-1.3-1.3-2.7-2.3-3.1-2.3-.9-.1-6.2-4.7-6.2-5.5 0-1.9 3.7.4 9.2 5.6 12.1 11.7 17.9 15.1 25.1 15 1.5 0 2.5.4 2.2.9-.4.6-1.5 1-2.6 1-3.1 0-1.2 1.9 4 4.2 14.5 6.2 39 13.5 44.6 13.2 5.2-.2 11.5-1.5 11.5-2.4 0-.4 1-1 2.3-1.4 2-.5 18.7-16.5 18.7-17.9 0-.3 1-1.7 2.3-3.1s3.1-4.2 4.2-6.3c1-2.1 2.2-4.6 2.7-5.6 1.1-2.2.2-3.8-1.7-3-2.2.8-1.8-1.4.4-2.9 1.8-1.3 1.6-1.8-4.4-8.3-3.5-3.8-6.2-7.1-5.9-7.4.7-.7 5.7 3.3 5.3 4.2-.2.5.8 1.5 2.4 2.3 1.5.8 2.7 1.9 2.7 2.4 0 .6.5 1 1 1 1.7 0 .9-9-.9-9.9-1.3-.8-1.3-1.5.2-7 2.2-7.9 2.2-21.7.1-27.1-1.9-4.8-4.4-5.7-9.6-3.5-2.1.8-4.5 1.5-5.5 1.5s-2.9.9-4.3 2-3.2 2-4.1 2-2 .7-2.3 1.6c-1 2.6-.7 11.2.4 11.9.6.4 2.2 2.4 3.5 4.5s3.4 4.8 4.7 5.9c1.2 1.2 1.6 2.1 1 2.1s-3.7-2.3-6.8-5c-5.5-5.1-8.8-6.9-13.3-7.5-1.3-.1-2.7-.8-3.1-1.5-.7-1.2-1.2.7-2.6 10.2-.3 2.7-1 4.8-1.5 4.8s-.9-2.1-.9-4.8c0-5.7-.7-6.8-4.3-7.7-2-.5-2.7-1.3-2.4-2.4.4-1.7-1.5-4.1-3.3-4.1-1.9 0-1-3.6 1.5-6.6 2.9-3.3 4-6.5 3.2-9.5-.4-1.5 0-2.3 1.4-2.6 1.1-.3 1.9-1.4 1.9-2.7 0-1.4-.3-1.7-.8-.9-.5.9-1.7 1-3.7.4-1.7-.5-2.6-1-2-1 .5-.1 0-.8-1.2-1.6s-2.8-1.2-3.7-.9c-1.9.7-2.1-1.4-.4-5 .9-2.2.8-2.9-.7-4.6-1.8-1.9-1.7-2 .3-2 1.3 0 2.2-.6 2.2-1.6 0-.8.4-1.3.9-.9 1.2.7 2.4-6.9 1.7-11-.7-4.2-5-19.2-7.1-24.3l-1.8-4.3-1.5 2.3c-.9 1.3-2.4 3.2-3.4 4.3-1 1-2.3 3.5-2.8 5.5-.6 2-1.9 4.5-3 5.5s-2 2.3-2 2.9-.9 1.7-2 2.4c-1.7 1-2 .9-2.6-1.2-.8-3.3.3-16.8 1.4-17.5.5-.3 1.5-2.4 2.2-4.6s1.6-4.9 2-6c1.5-3.9 3-10.3 3-12.5s-4.1-7-6-7c-.5 0-2.2-1.2-3.8-2.8-3.4-3.1-11.5-21.2-10.6-23.6 1.2-3.1 3.2-1.5 6.7 5.2 2.4 4.6 5 7.8 8.2 10.2 4.3 3.2 8.5 10 8.5 13.6 0 2.9 4.1 3.7 12.9 2.5.7-.2-.7-8.8-2.3-14.4-.9-3.2-1.6-8.2-1.6-11.1 0-4.6.3-5.4 2.5-6.4 2.3-1.1 2.5-.9 3.1 2.6.3 2 1.2 5.9 2 8.6s1.4 6.6 1.5 8.5c0 2 .6 6.1 1.2 9.1 1 4.8 1.5 5.5 3.4 5.3 2-.2 2.1 0 1.1 2.7-1.4 4.1-1.9 4.2-6.3 2l-3.8-2-2.5 3.7c-2.2 3.2-2.4 4.3-1.9 10.3.7 8.5 8.4 32.1 10.2 31.4.7-.3 1.1-1.3.8-2.3-.3-1.1.2-2.1 1.1-2.4.9-.4 1.6-1.5 1.6-2.6 0-2.8 1.1-5.2 2-4.6.5.3 1.1-.9 1.5-2.7s1.7-6.5 3-10.3c2.7-8.3 3.7-14.5 2.4-14.5s-1.1-5.4.3-6.8c.8-.8.8-1.5-.2-2.7-.7-.9-1.7-3.5-2.1-5.8s-1.3-5.8-1.9-7.7c-.7-1.9-1.5-4.2-1.8-5s-.6-3.4-.7-5.7c-.2-2.4-.8-5.6-1.5-7.3-1-2.5-1-3.6 0-5.6q1.35-2.55 2.1-1.2c.6.9 1.1.9 2.1 0 2.2-1.8 3.8.5 3.8 5.6 0 2.5.6 5 1.5 5.8 1.1 1.2 1.5 3.9 1.5 10.8 0 7 .4 9.7 1.5 10.6 2.1 1.8 4.5-1 4.5-5.3 0-1.8.3-3.7.7-4 .3-.4.8-1.9.9-3.4.3-2.9 3.4-6.9 3.4-4.3 0 .7.3 1 .7.7.3-.4.5-5.8.4-12.1-.3-11.7.5-14 3.5-11.5 2 1.7 5.2 8 5.6 11.1.2 1.4 1 3.3 1.7 4.2.8.9 1.3 3.7 1.2 6.4C626 78 630 96 631.3 96c1.4 0 3.4 2.4 6.1 7.6 2.2 4 2.6 4.3 2.1 1.9-.3-1.7-1.3-5.6-2.3-8.8-1.4-5-2.1-5.9-4.5-6.4-2.6-.5-2.7-.7-2.7-7.4 0-7 .9-10 4.7-15.8 1.3-1.9 2.3-4.4 2.3-5.5 0-1.2.4-2.6.9-3.2.5-.5 1.1-2.6 1.4-4.7s.8-4.1 1.1-4.4c1.5-1.5 2.1 1.6 2.7 12.3.4 6.3.9 11.7 1.2 12.1.7.7 4.6-3.7 4.7-5.1 0-.6.9-1.9 2-3.1 2.1-2.2 2.8-5.7 1.7-9-.5-1.5.3-2.6 3.3-4.7 2.9-2 4.1-3.6 4.6-6.2.6-3.7 2.4-4 2.4-.6 0 1.3.5 1.7 1.5 1.4 1.1-.4 1.5.1 1.5 1.7.1 1.3.6 3.7 1.3 5.3l1.2 2.8 1.8-4.3c1-2.4 2.2-5.2 2.8-6.1.5-1 .9-2.9.9-4.2 0-3.8 1.7-4 2.4-.3.5 2.5.9 2.9 1.6 1.7.5-.8 1-3 1-4.8 0-2.5.4-3.2 2-3.2 1.3 0 1.8.5 1.4 1.5-.4.8-.3 3 0 4.9.7 3.5 3 4.6 8.1 3.8 4.9-.7 7.5-12.1 7.3-31.5L697.6 0H578.1l-.4 3.7-.4 3.8-.1-3.8c-.2-3.6-.3-3.7-4.3-3.7s-4.1.1-3.5 2.7c.3 1.6 1 5.1 1.5 8 .6 2.9 1.5 6.1 2 7.2 1.3 2.4 1.4 14 .2 16-.8 1.2-1.3 1.1-3-1-1.1-1.3-2-3.2-2.1-4.2 0-1.8-2-2.5-2-.6 0 .5-.4.7-1 .4-.5-.3-1 .3-1 1.4 0 1.9-.6 2.1-5.5 2.1-4.2 0-5.6.4-6.4 1.8-1 2-1.9 6.1-2 10.1-.1 1.6-.6 2.1-1.5 1.8-1.6-.7-2.6 1.3-2.6 5.1 0 1.5-1.1 4-2.4 5.7-2 2.5-2.8 2.8-4.3 1.9-1-.5-2.6-.8-3.5-.6-1.9.4-2 .6-4 13.1-.7 4.7-1.9 8.6-2.6 8.9-.6.2-1.2-.3-1.2-1.2 0-2.4-3.9-9.4-5.6-10-.8-.3-1.3-1-1-1.5.5-.7-1.4-2.1-2.8-2.1-.1 0-1 2-2 4.4-1 2.5-2.4 4.7-3 4.9-.6.3-5.9.1-11.9-.2-8.9-.6-11.2-1.1-13.5-2.9-3.2-2.6-5.7-3.8-9.5-4.7-1.5-.3-3.6-1.4-4.7-2.5s-2.4-2-2.9-2c-1 0-2.1 4.9-2.1 9.2 0 3.7-2 4.4-7.2 2.7-4.9-1.6-7.2-.5-7.6 4-.3 2.7.1 3.3 2.5 4.2 1.5.5 3.9 2.3 5.3 4 1.4 1.6 4 4.5 5.9 6.3 3 3 3.3 3.8 2.8 7.2-.4 2.1-1.7 4.9-3.1 6.2l-2.4 2.5-4.4-2.2c-8.8-4.5-13.8-12.4-10.9-17 1.6-2.4-2.7-10.1-5.6-10.1-.7 0-1.3.6-1.3 1.2-.1 2.8-3.8 5.8-7.1 5.8-3.6 0-12.8 4.3-16.6 7.7-3 2.9-3.3 2.9-8.2-.4-4.5-2.9-4.7-3.5-5.5-13.2-.2-3.5-1-6.7-1.6-7.1-.8-.5-.5-1.2 1-2.3 1.9-1.3 2-1.8.8-3.6-1.9-3 .4-5.2 3-2.8 1 .9 2.4 1.7 3 1.7s1.9 1.1 3 2.5l2 2.5 2.6-3.4c1.4-1.9 2.6-3.9 2.6-4.5 0-.9 2-2.1 8.7-5.5 2.6-1.3 2.7-1.5 1.3-5-1.4-3.8.4-4 3.4-.5 2.1 2.4 3.2 3 5.8 2.7 2.7-.2 3.3-.7 3.1-2.5-.3-2.6 1.1-3.2 10.1-3.9 6.5-.6 7.3-.5 9.6 1.7 1.4 1.4 3.4 3.1 4.4 3.9 1.8 1.4 1.9 1.3 1.3-2.4-.8-4.8.5-6.6 4.4-6.6 2.6 0 2.9-.4 2.9-3 0-3.4 2.2-4.9 4.5-3 1 .9 1.5.9 1.5.1 0-.6.9-1.1 2-1.1s2-.7 2-1.5c0-1 1-1.5 2.9-1.5 4 0 6.1-.9 6.1-2.7 0-3.1 2.6-4.3 8.1-3.6 3.7.4 5 .3 4.5-.5-.7-1.2 1.9-3.9 7.1-7.5 2.3-1.5 3.2-2.8 2.9-4-.3-1.4-.2-1.6.9-.7 1 .9 1.5.6 2-1.1.5-1.5.9-1.8 1.5-.9s1.3.9 2.8.1c1.1-.6 2.9-1.1 3.9-1.1 2.5 0 10-3.6 10.5-5.1.3-.8 1.6-.8 4.7.2 3.8 1.1 4.5 1.1 5.5-.3.6-.8 2.6-1.9 4.4-2.3 1.8-.3 3.9-1.4 4.8-2.2 1.4-1.4 1.7-1.4 3.2.3.9 1.1 2.3 3.2 3 4.8 1.7 3.7 1.9 3.2 1.4-3.2l-.4-5.2H0zm397.6-41.5c3.2 1.4 12.1 10.1 12.9 12.5.4 1.1 1.1 2 1.6 2s.9 2.1.9 4.6c0 2.7-.4 4.3-1 3.9-.5-.3-1.8-.2-2.8.4-1.3.7-3 .2-6.7-1.8-6-3.3-9.5-8.7-9.5-14.8 0-2.3-.4-5.3-.9-6.6-1.2-3-.3-4.1 1.7-2.4.8.6 2.5 1.6 3.8 2.2m-76.8 10.9c1.5.8 5.4 4.2 8.7 7.5 3.3 3.4 6.3 6.1 6.7 6.1s2.9 2 5.5 4.5 6.1 5.3 7.6 6.1 3.7 2.4 4.8 3.5c2.3 2.3 3.8 2.4 4.5.5.6-1.5-2.2-7.5-4.1-8.8-2-1.4.7-2.1 7.4-2 6 .2 6.9 0 7.4-1.7.3-1.1.2-2.3-.1-2.6-.4-.4-1.2-2.4-1.9-4.7l-1.1-4 3.4.4c3.2.4 3.4.2 3.4-2.4 0-1.6.5-2.8 1.3-2.8 1.4 0 14.7 12.3 14.7 13.6 0 .5-1.5 1-3.2 1.1-4.4.3-6.9 3.6-5.5 7.3.6 1.5.7 3.5.4 4.4-.6 1.6-.8 1.6-2.3.2-2.4-2.5-4.1-1.9-5.4 1.8-.6 1.8-2 4.2-3 5.1-2.6 2.4-2.5 3.7.5 8.1 3.4 5 3.2 5.5-1.2 3.3-6.3-3.2-6.7-2.9-6 5.7.4 5.9 1 8.1 2.7 9.9q2.1 2.25.9 2.7c-.7.2-.1 1.1 1.3 2l2.5 1.7-.5-4.7c-.2-2.6-.9-5.3-1.5-6-.5-.7-.8-1.4-.6-1.6.9-.9 5.9.7 7.9 2.6l2.1 1.9-.7-2.8c-.3-1.5-1.2-4-1.9-5.5-1.2-2.6-1.2-2.6 1.5-1.7 1.5.6 4 2.3 5.5 3.9 1.6 1.7 3.5 3 4.2 3s1.3.3 1.3.8c0 .4 1 1.2 2.3 1.7 1.2.6 2.2 1.9 2.2 3 0 1.7-.6 2-4.5 1.8l-4.5-.2 2.5 2c2.4 2 2.4 2.1.2 1.6-1.4-.3-2-.1-1.6.5.5.7-.3.9-2.2.4-1.6-.4-4.4-1-6.3-1.3-3.1-.5-3.3-.4-2.6 1.8s1.4 3.2 4.3 6.4c.7.8 1.2 2.5.9 3.7-.4 2.1-.5 2-1.8-1-.7-1.7-1.6-3.2-2-3.2-1.4 0-10.7-7-16-12.1-3.1-3-8.8-8.5-12.7-12.2-4-3.7-7.2-7-7.2-7.1 0-.9 3.9-1.2 5.4-.4 1.9 1.1 4.6-1.1 4.6-3.6 0-1.2 1-1.6 3.5-1.6 1.9 0 3.5-.3 3.5-.8 0-1.6-34.1-33.2-36-33.2-.5 0-1.4-.9-2-2-1.3-2.4-.8-2.5 2.8-.6m553.3 11.1c.3 2.9.1 5.7-.5 6.7-.7 1.1-.7 2.1-.1 2.7.7.6 3.1-1 7-4.7 3.3-3.1 7.3-6.4 8.9-7.2 2.6-1.3 2.9-1.3 4.2.5.8 1 1.4 3.3 1.5 4.9 0 1.7.3 2.5.6 1.8.4-1 .9-.7 1.7 1 .6 1.2 1.6 2.3 2.2 2.3 1.4 0 7-4.1 10-7.3 1.9-1.9 4.4-3 4.4-1.8 0 .3-1.2 1.8-2.6 3.3-4.8 5.1-7.2 8.8-7.9 12-.5 2.7-.4 3.2.8 2.7.9-.3 2.2.8 3.5 3 1.9 3.3 4.2 4.8 4.2 2.8 0-.4 1.7-1.4 3.8-2.1 2-.8 4.2-1.6 4.9-1.8.7-.3.3 1.3-1 3.5-1.2 2.2-2.4 3.9-2.7 3.7s-.5 2.1-.6 5c0 3 .3 5.2.7 4.9.4-.2 1 0 1.4.6s1.1.8 1.6.5c.5-.4.9.6.9 2s-.4 2.4-.9 2c-.6-.3-1.5.4-2.1 1.5-1.3 2.5-8 2.9-8 .5 0-.8-1.3-2.1-3-3-1.6-.9-3-1.1-3-.6 0 .6-.6.8-1.4.5-1.9-.7-9.4 3.4-13.3 7.2-6.2 6-9.3 17.6-5.7 21.1.8.9 1.3 2.1 1 2.8-1.1 3 2.8 2.1 9.1-2 3.7-2.4 7.5-5.1 8.4-5.9.9-.9 2-1.6 2.5-1.6s2.4-1.3 4.2-2.9c1.7-1.7 3.2-2.8 3.2-2.5 0 1.5 5.1-5.4 5.6-7.5.3-1.4.7-3 .8-3.5.3-1.5 9.9-3.6 11.3-2.4.8.6 2.9.1 6.4-1.6 2.9-1.4 5.5-2.4 5.6-2.2.2.1-1.7 1.7-4.2 3.5s-4.5 3.7-4.5 4.3 1.8 2.8 4 4.9l4 3.8-2.8 2.9c-4.6 5-11.4 7.5-15.4 5.7-1.2-.5-1.8-1.8-1.8-4.2 0-3.1-.2-3.4-2.2-2.7-5 1.5-16.6 8.3-21.9 12.8-2 1.7-6.4 5.3-9.9 8.1l-6.3 4.9.6 11.9c.4 8.4 1 12.3 2 13.5.8.9 1.8 2.7 2.1 4 .9 2.7 4.1 4.5 7.8 4.4 1.5 0 2.8.4 2.8.9 0 .6.8.5 2.1-.1 3.6-2 4-.6.8 3.4-2.6 3-2.9 4-1.8 4.7 1.4.9 5.3 1.3 10.2.9 3.1-.2 3.7 1.9.7 2.7-1.1.3-2 .9-2 1.4s-.6.9-1.3.9-2.1 1.4-3.1 3.1-3.4 3.8-5.3 4.5c-2.6 1.1-3.2 1.8-2.4 2.7.6.8.6 1.8.1 2.7-.6.8-1 3-1 4.8 0 2.5.6 3.5 2.5 4.4 3.7 1.7 6.5 8.7 6.5 16.2 0 5.6.2 6.2 2.7 7.3 3.2 1.5 9.5 1.7 10.8.4.6-.6 4.2-1.5 8-2.1 3.9-.6 7.4-1.5 8-2.1.5-.5 1.5-.9 2.2-.9s3.2-.9 5.6-1.9c2.3-1 5.1-2.1 6.2-2.4 2-.5 10.4-3.4 14-4.8 1.1-.4 6.7-1.7 12.5-2.9s13.9-3.1 18-4.2 8.3-2.1 9.2-2.2c1-.1 2.1-.5 2.4-.9.4-.4 2.1-.7 3.8-.7 2 0 2.6-.3 1.8-.8-2.1-1.4 29.6-10.3 36.2-10.2 2.5.1 1.7.5-3.6 2.3-8.2 2.7-8.9 3.3-3.5 2.9 3.9-.3 3.7-.1-2.8 2.2-3.8 1.3-13.1 4.3-20.5 6.6-16.4 5.1-22.3 7.2-23 8.1-.5.6-8.8 3.4-26 8.7-3.6 1.1-8.3 2.3-10.5 2.7-6.3 1.1-9.3 2.6-8.8 4.5.4 1.5-1 1.8-11.9 2.5-6.8.5-12.7.8-13.1.7-1.4-.4-11.7 2.9-11.7 3.7 0 .4-1.2 1.4-2.7 2.2-4.1 2.2-7.1 10.9-3.8 10.9.9 0 3 .7 4.7 1.6 2.6 1.3 7.7 2 12.1 1.5.4-.1.9 0 1 .1.2.2 1.2-.4 2.2-1.2 1.4-1.1 4.2-1.5 11.7-1.3 11.1.2 13.8.8 13.8 2.9 0 1-1.4 1.4-5.2 1.4-3 0-6.8.8-9.2 1.9-2.3 1.1-7.9 2.4-12.6 2.9-10.9 1.3-21 3.8-22.4 5.7-.8 1.1-4.5 1.7-14.3 2.1-7.3.4-13.3.5-13.3.2s.8-1.4 1.8-2.5c1.9-2.2 12.9-5.5 13.8-4.2.3.5 1.6.9 3 .9 1.3 0 2.4.6 2.4 1.2 0 .9.3.8 1-.2.5-.8.9-3 .8-4.9-.1-2.5.4-3.9 2-4.9 1.2-.8 2.2-2.1 2.2-2.8 0-.8.5-1.4 1-1.4 1.6 0 1.2-2.7-.5-3.4-.8-.3-1.5-1-1.5-1.6s-.9-2.1-2.1-3.3c-1.1-1.2-2.8-3.5-3.6-5.2-.9-1.6-2.2-3.5-2.9-4.3-.8-.7-1.4-1.7-1.4-2.2s-.8-1.1-1.7-1.4c-2.6-.8-5.7-9.1-6.1-16.3-.3-3.7-1-6.7-1.8-7.4-.8-.6-1.4-2-1.4-3.1 0-2.4-2.7-9-4.1-9.8-.5-.4-1.2-2.4-1.6-4.6-.7-4.6-3.5-7.3-7.8-7.4-1.6-.1-3.9-.5-4.9-.9-1.9-.7-1.8-.8.4-2.4 1.3-.9 2.7-1.4 3.1-1.1.4.2 1.4-.4 2.1-1.5.8-1.1 2.8-2.1 4.8-2.3 3.3-.3 3.5-.6 3.8-4.1.2-2 .7-3.5 1.2-3.2s1.2-.7 1.6-2.2 2-5.4 3.5-8.5c2.3-4.6 2.9-7.1 2.9-12.3 0-4.9-.3-6.5-1.4-6.5-.8 0-1.7-1.1-2-2.5-.4-1.6-2-3.2-4.1-4.2-1.9-.9-3.5-2-3.5-2.5 0-1.3-3.7-.9-7.6.7-1.9.8-3.2 1-2.9.5.4-.6-.7-1-2.4-1-3.6 0-4.3-2.5-.9-3.6 2.4-.7 2.4-.7 8.7-6.1 6.5-5.6 11.8-11 12.5-12.8.3-.9 1.1-1.3 1.7-1 .6.4.9 0 .7-1.1-.2-1.5.2-1.8 2.4-1.6 2.1.3 4-1.1 10.1-7.4 4.5-4.5 7.3-8.2 7-9-.7-1.9-4.6-2.8-8.6-2-9.2 1.9-9.2 1.9-10.5-.9-.7-1.4-1.2-5-1.2-8 0-5.7-1.1-6.9-3.2-3.5-.9 1.3-2.4 2-4.5 2-1.7 0-3.5.5-3.8 1-.4.6-2.1 1.7-3.8 2.5-1.8.8-4 2-4.9 2.7-2.6 1.9-3.4.1-1.1-2.5 1.1-1.2 2.4-3.2 2.7-4.4.4-1.2 1.7-3 2.9-4 4.3-3.4 6.7-18.3 3.1-18.3-.8 0-1.4-.5-1.4-1.1s1.9-.9 4.8-.7l4.7.3zM553.5 149c1.6 3.1 2.1 11 .6 11-.5 0-1.1.9-1.4 2-.6 2.2-3.6 2.7-5.5.8-1-1-1.5-1-2.3.2-.8 1.1-.9.9-.4-.8.6-2.1.5-2.2-1.2-1.4-1.1.7-2.5.7-3.3.2-1.3-.8-1.2-1.4.4-4.1 2.8-4.8 4.7-6.9 8.1-9 1.7-1 3.1-1.9 3.2-1.9s.9 1.3 1.8 3m268.7 23.8c-1.2 1.6-1.9 3.1-1.7 3.4.3.3-1.1 1.9-3 3.7-6.9 6.3-10.1 14.2-12.1 30.1-.3 1.9-1.1 6.7-1.9 10.7s-1.5 8.4-1.5 9.8c0 2.8-2.7 4.5-4 2.5-.4-.7-.6-2.7-.4-4.5.3-2.6-.1-3.4-2.1-4.5-1.5-.8-2.5-2.2-2.5-3.5 0-2.8 3.7-14.4 5.6-17.3.8-1.2 1.2-2.2.8-2.2-.3 0 .1-1.1 1-2.5.9-1.3 1.6-4.4 1.6-6.7 0-4.7 1-6.1 8.6-12.1 2.3-1.7 5.9-5.1 8-7.4 4.3-4.8 7-4.4 3.6.5M385 179.5c0 .7 2.3 3.5 5.1 6.2 6.3 5.9 7.9 9 7.9 14.5 0 3.4-.7 5.2-2.9 7.8-2.3 2.8-2.7 4-2 5.7.5 1.3.5 2.3.1 2.4-.4 0 .3.4 1.6.9 2.2.9 3.1 3 1.2 3-.5 0-1-.4-1-.9s-1-1.1-2.2-1.3c-2.2-.3-2.3-.7-2-7.4.4-6.7.2-7.2-2.3-9.3-1.5-1.1-3.3-2.1-3.9-2.1-1.4 0-8.6-6.6-8.6-7.9 0-.6-1.5-1.5-3.2-2-7.7-2.4-13.7-4.8-13.2-5.4.3-.3 2-.1 3.7.4 5 1.4 8.7 1.1 9.4-.8.4-.9.1-1.9-.5-2.1-2.1-.7-1.3-2.2 1.2-2.2 1.3 0 3.9-.6 5.7-1.4 3.5-1.5 5.9-.7 5.9 1.9m608.5 13.1c-1.1.8-10.3 5.7-20.5 10.8s-19.4 9.7-20.5 10.3-3.2 1.6-4.7 2.4c-4.3 1.9-3.1 3.7 2.1 3 4.6-.7-6.5 6.3-11.6 7.3-3 .5-3.3.3-3.3-2 0-2-.4-2.4-1.7-2-1 .3-2.4.2-3.1-.3-1-.6-.4-1.3 2.1-2.8 1.9-1.2 4.5-2.4 5.8-2.8s4-1.4 5.9-2.2 4.4-1.9 5.5-2.3c1.1-.5 5.4-2.4 9.5-4.3s11.7-5.4 16.9-7.7c5.2-2.4 11.3-5.3 13.5-6.5 4.7-2.6 7-3.1 4.1-.9M774 233.5c0 1.3-2.5 5.5-3.2 5.5-.5 0-3.5 2.5-6.6 5.5s-6 5.5-6.4 5.5c-1.2 0-10.8 7.1-10.8 8 0 .4 1 .6 2.3.3 1.2-.3.4.5-1.8 1.7s-4.9 3.1-6.1 4.1c-1.1 1-2.8 1.9-3.8 1.9s-6.1 1.2-11.3 2.6c-11.1 3-13.6 2.6-3.5-.7 8.5-2.7 11.4-4.6 9.2-5.9-1.1-.7-.8-1 1.5-1.1 1.7 0 4.4-.9 6-2 1.7-1.1 3.8-2.2 4.8-2.5.9-.4 1.7-1 1.7-1.5s.6-.9 1.4-.9 5.2-3.7 9.8-8.1c9.3-9.1 16.8-14.7 16.8-12.4m26.1 16.3c-.6.2-1.1 1-1.1 1.8s-.4 1.4-.9 1.4c-1.2 0-3.3 5.9-2.5 7.1.3.5-3 .7-7.8.3-7.6-.6-8.8-.4-14 2-6.2 2.9-13.8 3.7-10.5 1.2 1-.8 6.3-2.9 11.8-4.7 5.4-1.8 9.9-3.7 9.9-4.3s2-2.2 4.4-3.6c2.5-1.3 4.2-2.8 3.9-3.3-.3-.6-.2-.7.3-.4.6.3 1.6.2 2.4-.3 1-.6 2.1-.3 3.3.8 1.1.9 1.4 1.8.8 2M261.5 257c.3.5 2.7 1.1 5.3 1.1 4.8.1 12.1 1.6 9 1.8-2 .1-2.5 2.1-.5 2.1.7 0 2 1.3 3 2.9 1.6 2.7 1.6 2.8-.5 3.8-2.2 1-3.8.7-11.8-2.3-1.9-.7-4.8-1.5-6.5-1.8-1.6-.2-5-1.4-7.5-2.5l-4.5-2.1 5.5.2c5 .2 5.5 0 5.8-2 .4-2.3 1.7-2.9 2.7-1.2m991.2 29.7c.9 1.6 2.5 3.7 3.4 4.8 1 1.1 2.5 3.3 3.3 5l1.5 2.9-5.1 2.4c-2.9 1.3-7.7 2.8-10.8 3.4-12.2 2.1-13.8 2.1-18.9-.1-2.7-1.1-6.4-2.1-8.1-2.1-1.8 0-5.6-.7-8.6-1.6-4.9-1.4-5.4-1.8-4.8-3.7.3-1.2.7-2.2.8-2.2 0 0 1.6-.8 3.4-1.8 1.7-1 3.2-1.5 3.2-1 .1.4.8-.5 1.6-2 .9-1.7 2.1-2.6 2.9-2.3s1.9-.3 2.4-1.2 1.2-1.6 1.5-1.5 1.1.1 1.8-.2c3.3-1 6.1-1.3 17-1.4l11.8-.1zM56 294c3 .5 7.8 1.4 10.5 1.9 2.8.6 6.8 1.4 9 1.8 2.9.5 3.4.8 1.7 1.1-1.2.2-3 1.5-3.9 2.8-1.5 2.4-2 2.5-8.2 2-3.6-.2-10-.9-14.1-1.5-4.1-.5-7.8-1-8.2-1.1-.4 0-1.4-1.3-2.2-2.8-1.3-2.6-1.3-3.1.2-4.6 1.3-1.4 2.6-1.6 5.7-1.1 2.2.4 6.5 1.1 9.5 1.5m940.2 11.7c1.4 1.7-3.5 3.9-10.6 4.7-7.2.8-25.8-.3-25-1.5.3-.5 1.5-.9 2.7-.9s4.9-.9 8.2-2c6.8-2.2 22.9-2.4 24.7-.3m199.6 12.3c3.9-.1 6.8 2.4 6.4 5.5-.4 2.6 1.8 3.5 8.8 3.5 2.5 0 5.2.5 6 1 1 .7-2.7 1-11.5 1.1-7.1.1-17.3.5-22.5.9l-9.5.7 7.2.1c8.2.2 11.2 1 9.1 2.3-.7.5-2.5.9-4 .9-1.6 0-2.8.3-2.8.7.1 2.2 2.1 3.2 7.2 3.6 4.7.4 6.1 1 8.8 3.7l3.2 3.3 22.2.4c12.1.2 23.5.9 25.1 1.4 1.7.6 5.8 1.3 9.3 1.4 3.4.2 6.7.7 7.2 1 2.3 1.4-.5 2.5-6.8 2.5-10.2 0-14.4.9-13.9 3 .4 1.5-.6 1.8-7.1 2.4-11 .9-25.1.7-28.6-.3-5-1.6-21.8-4.1-26.9-4.1-4.9 0-5.9-1.5-2.3-3.5 2.2-1.2 2.3-2.7.4-3.7-2.1-1-25.3-2.8-36.4-2.8-5.6 0-11.6-.3-13.3-.6-5.6-1.2-3.2-2.4 4.7-2.4 12.7 0 32.2-3.4 32.2-5.6 0-1.1-2.1-1.4-9-1.4-4.9 0-9-.4-9-.9 0-1.3 3.9-2.1 7.1-1.4 1.9.3 2.9.1 2.9-.6s.5-.9 1-.6c.6.3 1.6.3 2.2-.1.9-.6.5-1-1.2-1.5l-2.5-.6 2.8-1.3c4.1-2 3.3-3-2.7-3-5.6 0-8.5-1.6-4.4-2.4 4.5-.9 15.4-1.8 20.8-1.6 3.1 0 6.7-.4 8-.9 1.4-.5 3.9-.8 5.5-.5 1.7.3 4.5.5 6.3.4m-208.6 17.4c3.1 0 6 .4 6.4.8.4.5 4.7.8 9.6.8 4.8 0 8.8.4 8.8.8 0 .9-11.2 2.8-22.6 3.8-3.9.4-16.8.3-28.7-.1-18-.6-21.7-1-22.2-2.3-.3-.8-.3-1.7 0-2 .3-.4 8.8-.8 18.8-1s18.7-.8 19.2-1.3c.6-.6 1.9-.7 3-.3 1.1.3 4.5.7 7.7.8m-852.1 25.3c2.9 1.7 3.8 5.7 1.4 5.9-.5 0-3.2 1.1-6 2.4-5 2.3-5 2.3-2.4 3.4 1.4.6 3.3 1.7 4.2 2.5.9.7 2.4 1 3.3.7 1.8-.7 5.4 1.9 5.4 3.9 0 .7-.9 1.5-2 1.8-2.4.6-2.6 3-.4 5.1 1.4 1.5 1.3 1.7-1.1 2.6-1.4.5-3.2 1-4 1-.7 0-1.5.5-1.7 1-.2.8-2.6.7-7.6 0-4-.7-7.8-1-8.5-.7-.6.2 1.3.8 4.3 1.2l5.5.9-4.3.4c-2.3.2-4 .7-3.7 1.2.6.9-2.2 1.6-10 2.6-2.7.3-7.9 1.2-11.5 2-13.7 2.8-17.2 4.1-20.2 7.3-1.7 1.8-3.9 3.1-5.3 3.1-1.3 0-3 .6-3.7 1.2-2.6 2.5-10.3 5.8-13.3 5.8-4 0-12.7 2.7-13.6 4.2-.6.9-2.6.9-8.5 0-4.3-.7-8-1.5-8.3-1.7-.2-.3-1-6-1.6-12.8-.7-6.7-1.5-12.9-1.9-13.8-1.2-2.7 2-4.7 8.1-5.4 3.2-.3 7.2-1 8.8-1.5 1.7-.5 4.6-.9 6.7-.8 2 0 4.9-.3 6.5-.6 1.5-.4 6.2-1.1 10.3-1.6s12-1.7 17.5-2.5c5.5-.9 11.4-1.8 13-2 9.3-1.3 11.6-1.9 12.6-3.1.8-1 .5-1.5-1.5-2-1.4-.3-2.6-1.1-2.6-1.8.1-3.8 8.1-7.8 18.5-9.1 3.2-.4 6.8-1.1 7.9-1.5 3.4-1.4 6.6-1.1 9.7.7m1054.9.5c6.9.5 19.7 1.1 28.5 1.2s17.8.7 20 1.3c6.1 1.7-53 1-67.2-.7-6.2-.8-11.3-1.7-11.3-2.1 0-1.1 7.6-1.7 13-1.2 2.5.3 10.1.9 17 1.5m-4.5 10.7c4.4.5 9.4 1.1 11.2 1.4 1.7.3 5.8 1 9 1.6 3.2.5 11.2 1.2 17.8 1.6 6.6.3 14.9.9 18.5 1.2l6.5.7-5 .7c-2.7.5-9 .4-14-.2-16.4-1.7-31.7-2.9-32.5-2.4-.9.6-26.6-2.1-34.2-3.6-3.2-.6-5.8-1.6-5.8-2.2 0-1 11.8-.5 28.5 1.2m-85.6 3.1c3.2.9 5 2.4 5.1 4.2 0 .4-.6.5-1.4.2s-2.4 0-3.6.6l-2.2 1.2 2.1 1.9c1.2 1.1 2.1 2.7 2.1 3.5s.5 1.2 1 .9c.6-.4 1.8-.4 2.7-.1 1.2.5.6 1.3-2.6 3.6-2.2 1.7-4.1 3.6-4.1 4.4 0 1.5-3 2.6-7.2 2.6-1.7 0-2.8.5-2.8 1.4 0 .8 1.2 2.3 2.8 3.4l2.7 2.1-2.9 1.1c-3.6 1.3-7.6 0-10.2-3.5-1-1.3-2.3-2.1-3.1-1.8s-1.3-.2-1.4-1.3c-.1-1.7-.2-1.7-.6-.2-.3 1.2-1.4 1.8-3.4 1.8-1.6 0-2.8-.3-2.7-.8.1-.4-.4-1.9-1.1-3.3-1.7-3.4-8-6.2-14.6-6.5-7.2-.3-14.5-1.7-14.8-2.9-.1-.6 2.3-1.3 5.3-1.6 7.7-.9 13.3-2 14.5-2.9.6-.5 2.7-1.1 4.7-1.5s3.9-1.3 4.2-2.1c.6-1.7 3.6-1.9 3.6-.3 0 1.5 7.5.5 9.7-1.3 1.4-1.1 9.1-3.3 13.3-3.7.8 0 3.1.3 4.9.9m-456.8 12.4c1.7-.1 1.8 4.4.1 5.5-1.3.8-1.5 52.8-.2 53.6.4.3.4 2.2-.1 4.2-1 4.2-1.1 30.3-.2 39.6.5 4.8 1 6.1 2.8 6.9 1.7.8 2.4 2.1 2.8 6 .4 2.8.3 5.6-.1 6.2-.3.6-.5 1.9-.4 2.8.2.9-.6 1.9-1.7 2.3-1.3.4-2.3 1.8-2.7 4.1-.3 1.9-1 3.4-1.4 3.4-.5 0-1.6-2.3-2.5-5-.9-2.8-2.1-5-2.6-5-1.2 0 0-11.7 1.7-15.8 1.3-3.3 1.7-31.9 1.1-82.4-.2-19-.3-19.7-2.5-22.1-1.5-1.6-2-2.7-1.3-3.2.6-.3 1.5-.4 2-.1.5.4 1.3-.8 1.7-2.6.7-3.2.8-3.2 1.4-.8.3 1.4 1.3 2.5 2.1 2.4m509.1 4.7c.2.6 4.9 1.4 10.8 1.9 21.4 1.7 25.7 3 23.3 6.7-.6 1-1.7 1.6-2.5 1.4-.7-.2-9.6-.8-19.8-1.4-12.6-.8-18.9-1.5-19.8-2.4-.7-.7-2.6-1.3-4.2-1.3-1.9 0-3.3-.7-4-2-1-1.8-.7-2 2.7-2.1 2.1-.1 4.9-.5 6.3-.9 3.7-1.2 6.8-1.1 7.2.1m101.6 2.5c2.5.8.1 2.3-4.6 2.9-6.8.9-9.9 1.7-8.4 2.2 3.3 1.2.4 2.3-6.3 2.3-6.6 0-7.5-.2-7.5-1.9 0-1 1.4-3 3.2-4.5 3.1-2.5 3.5-2.6 12.8-2 5.2.3 10.1.8 10.8 1m-521.9 5.1c2.7 2.3 6.1 7 6.1 8.6 0 .2-1.6.7-3.6 1s-4.5 1.4-5.6 2.4c-1.9 1.7-2.1 1.7-3.9-.6-1.9-2.3-2.8-11.9-1.2-13.4 1.4-1.5 5.1-.6 8.2 2m-637 66c-.8 1-3.1 3.4-5.1 5.3-3 2.8-3.9 4.6-4.4 8.3-.6 4-1.2 5.1-3.6 6.3-1.7.9-5 1.7-7.3 1.9-2.4.2-5.4 1.1-6.7 1.9-1.8 1.2-3.2 1.3-5.5.7-3.8-1.1-7.3-3-5.5-3.1.6 0 1.2-.9 1.2-2 0-1.3.9-2.1 2.8-2.5 1.5-.4 3.4-1.1 4.2-1.6s2.3-1.2 3.3-1.5c1.3-.5 1.7-1.8 1.7-5.5 0-3.8.4-4.9 1.6-4.9.9 0 2.8-.8 4.2-1.9 4-2.7 5-2.9 13.1-3 6.8-.1 7.3 0 6 1.6m-59.4 3.7c1.6 2.4 1.2 7.6-.5 7.6-.5 0-1.6.7-2.5 1.6-1.6 1.7-22.9 5.4-24 4.2-.8-.8 3.1-4.8 4.5-4.8.6 0 1-.7 1-1.5s.4-1.5.9-1.5 1.1-.9 1.4-2 1.3-2.3 2.4-2.6c1-.3 2.7-1 3.8-1.5 1.1-.4 3.6-1 5.5-1.2s4.1-.5 4.7-.5c.7-.1 2 .9 2.8 2.2M933.7 502c1.5.6 3.3 1.6 3.8 2.3 1 1.2 9.4 5.5 15.2 7.7 1.7.6 3.9 2 4.8 3.1 1 1 3.3 2.3 5.1 2.9 2.6.9 3.4 1.7 3.4 3.5 0 3.5-1.4 3.8-6.7 1.3-5.2-2.4-14.5-7.8-15.3-8.9-.3-.3-2.1-1.4-4-2.4s-4.7-2.7-6.1-3.9c-1.5-1.2-3.4-2.6-4.4-3.2-1.1-.6-1.5-1.5-1.1-2.2.9-1.5 1.7-1.5 5.3-.2m-85.2 32.8c.6.4 1.9 2.4 3 4.6 1.1 2.1 5.7 7.2 10.3 11.2 6.3 5.7 8.9 7.4 11.2 7.4s3 .4 3 2c0 1.7-.7 2-3.8 2-2.9 0-4.5-.7-6.7-3-3.2-3.3-4.5-3.8-4.5-1.5 0 1.4-.3 1.4-3 0-3-1.5-4.3-5.5-1.8-5.5.8 0 .6-.5-.3-1.3-2.2-1.7-6.5-8.6-8.4-13-1.5-3.5-1.1-4.5 1-2.9M770 568.3c0 .7.8 2.3 1.7 3.6 1.1 1.6 2.1 6.6 2.9 14.5 1.3 11.9 1 18.1-.7 19.2-.5.3-.9 1.7-.9 3.2s-.3 3.8-.7 5.2c-.5 2-.9 1.4-1.9-3.5-.7-3.3-1.3-8.1-1.3-10.6-.1-2.5-.5-5.9-1-7.5s-1.2-8.8-1.4-16.1c-.5-13-.5-13.1 1.4-11.2 1 1 1.9 2.5 1.9 3.2m138.7 23.4C923.1 604.3 928 609 930 612l2.3 3.5-4.4-3.7c-3.5-2.8-5.1-3.5-7.2-3.1-2 .4-2.7 1.1-2.7 2.9 0 2.4 2 4.5 2 2.2.1-.7 1 .5 2.1 2.7 1.9 3.8 1.9 4 .2 5.3-1.8 1.3-6.9.8-8.7-.8-.5-.5-1.4-.6-2.2-.3-1.9.7-6.2-4.6-5.6-6.9.2-1 1.3-2.3 2.3-2.9 1.2-.6 1.9-2.1 1.9-3.9 0-1.7.4-3 1-3 2 0-.8-4.3-6.5-10-3.2-3.3-6.2-6-6.6-6-1.4 0-2.9-3.8-2.3-5.4s1.8-.8 13.1 9.1m-15.1 19c3.3 1.4 7.7 4.3 9.8 6.2 11.4 10.3 23.9 22.9 25.1 25.1.7 1.4 2.3 3.6 3.4 4.9 2.1 2.4 2.9 6.1 1.3 6.1-.5 0-1 2.6-1.1 5.8-.2 4.9.2 6.1 2 7.8 2.6 2.3 9.9 13.1 9.9 14.6 0 .6.9 2 1.9 3.2 5.6 6.1 8.1 9.1 8.1 9.7 0 1.3 5.8 7.8 6.4 7.2.3-.3.6.1.6 1s-.3 1.7-.6 1.7c-1 0-6.8-3.4-9.7-5.7-1.6-1.3-3.4-2.3-4-2.3-2.8 0-20.9-20.9-21.7-25-.5-2.6-7.5-6.8-11.6-6.9-1.4-.1-4.7-3.1-9.7-8.9-4.2-4.8-8.9-10.1-10.5-11.7-3.1-3.2-7.9-6.7-8.5-6.3-1.5 1.1-7.7-8.3-7.7-11.7 0-3.1 4.4-1.5 7.5 2.7 1.7 2.3 3.6 4.3 4.3 4.6 1.7.5 1.6-5.7-.2-6.4-2.4-.9-4.3-16.9-2.1-17.8.6-.3 1.1-.5 1.1-.5.1-.1 2.8 1.1 6 2.6M162 637.3c0 2.7-.2 2.8-4.2 2.5-3.6-.3-4.7.2-7.3 2.8-3.9 3.9-9.7 7.4-12.3 7.4-1.1 0-2.7.7-3.6 1.5-1.5 1.5-5.9 3.5-7.7 3.5-.6 0-.9-1-.7-2.3.2-1.2.8-2.2 1.4-2.2s3.9-2.8 7.5-6.3c3.5-3.4 6.8-6.2 7.4-6.2.5-.1 2.6-.8 4.6-1.8 2.1-1 6-1.7 9.3-1.7 5.5 0 5.6.1 5.6 2.8m685.7 36.4c2.5 2.7 5.3 5.7 6.2 6.8 1.8 2 5.2 9 6.6 13.3.8 2.7-.3 8.1-1.3 6.6-.4-.5-1.4-1-2.2-1-3.6-.1-8.9-1.7-8.4-2.5.3-.5-.2-.9-1-.9-.9 0-1.6-.9-1.6-2s.7-2 1.5-2c1.6 0 3.5-3 3.5-5.4 0-.8-1.1-3.1-2.4-5.1-1.4-2-2.7-4.9-3.1-6.5-.4-1.7-1-3-1.5-3-.4 0-1-.7-1.4-1.5-.9-2.5.3-1.7 5.1 3.2m388.3 8.5c2.3 2.5 3.6 6.5 2.5 7.6-.3.4-3.5.5-7.1.3-6-.3-6.4-.1-6.4 1.8 0 3.3 4.5 4.9 8 2.9 4-2.3 6.4-.5 3.1 2.2-3.6 3.1-8.6 2.6-12.3-1.1-2.9-2.8-3-3.4-2.5-8.2.8-6.2 2.4-7.7 8.4-7.7 3.1 0 4.8.6 6.3 2.2m22.3-.2c3.4 2.7 4.4 7.8 2.3 11.8-2 3.9-4.4 5.2-9.5 5.2-3.6 0-4.4-.4-6.1-3.3-4.6-7.5-1-15.7 6.8-15.7 2.4 0 4.9.8 6.5 2"/><path d="M701.2 34.7c-3 5.7-2.4 17.2 1.2 22.6 1.7 2.6 2.9 3.2 5.6 3.2 5.4.1 6 .9 5.4 7.3-.6 6.7.6 9.6 3.1 7.1 1-1 1.7-4.2 2.1-9.9.4-6.2.9-8.7 2.2-9.7 1.6-1.2 1.6-1.4 0-2.7-1-.7-1.8-1.9-1.8-2.5 0-.8-.8-1-2-.6-1.1.3-2 .2-2-.3s-1.8-2.8-4.1-5.3c-2.2-2.4-4.7-5.8-5.6-7.6-1.7-3.7-2.8-4.1-4.1-1.6M618 100.9c0 1.7-.4 3.1-1 3.1-.5 0-1 .7-1 1.5s.5 1.5 1 1.5c.6 0 .5.6-.2 1.4s-1.6 1.2-2 1c-.4-.3-1 1.1-1.3 2.9-.7 3.6 2.3 10.8 7.9 19 4.2 6.1 10.6 18.2 10.6 20 0 1 .6 1.4 1.4 1.1 1-.4 1.5-4.5 2-16.5.7-14.9.6-16.5-1.5-23.1-1.3-4-3.1-8-4.1-9s-1.8-2.7-1.8-3.7c0-1.4-.5-1.8-2-1.4-1.3.3-2 1.4-2 2.9 0 3.3-1.8 3-2.2-.3-.2-1.7-1-2.9-2-3.1-1.4-.3-1.8.3-1.8 2.7M695.6 111.5c-1 .8-2.2 1.2-2.6 1-2.5-1.5-1.7 18.1.7 20.5.9.8 1.3.9.9.2-.4-.6-.2-1.2.3-1.2 1.5 0 1.4-6.7-.1-7.3-.7-.3-.3-.6 1-.6 1.2-.1 2.2.3 2.2.9 0 .5.8.6 1.7.3 1.1-.4 1.2-.8.5-1.1-.7-.2-1.2-.8-1.2-1.3 0-.6.4-.8.9-.5s1.1-.3 1.4-1.4.1-1.8-.4-1.4c-1.6.9-1-.8.7-2.1 1.4-1 1.5-1.5.3-3.6-2.4-4.1-3.5-4.5-6.3-2.4M742.8 116.5c-.7.9-1.9 2.2-2.6 3-.8.9-1.3 3.7-1.2 7.2.1 3.2-.1 8.7-.5 12.3-.7 8 .5 10.8 6 13.4 5.2 2.5 9.5 2.8 11.8.8 1.7-1.5 1.6-1.7-1-4.4-1.9-2-2.9-2.5-3.5-1.6-.6 1-1.1 1-2.3-.3-1.4-1.4-1.3-1.8 1.4-4.5 1.7-1.6 3.1-3.6 3.1-4.5s1.1-3.3 2.5-5.3l2.4-3.6-4.7-5.1c-9-9.8-9.2-9.9-11.4-7.4M607.2 121.8c-1.9 1.3-4.9 22.1-4.4 30.4.3 4.3.6 4.8 2.7 4.8 2.3 0 5.5 2.3 5.5 4 0 3.1 15.2 4.7 18.6 1.9.8-.6 1.4-.8 1.4-.3 0 .4.5.3 1.1-.3.7-.7-.5-4.3-4.1-11.9-2.8-5.9-5.4-11.1-5.9-11.4-.4-.3-1.6-2.3-2.7-4.5-2.2-4.9-5.2-9.4-7.9-11.7-2.3-2-2.6-2.1-4.3-1M710.2 164l-4.2 3.2 2.1 3.8c2 3.5 2.6 3.9 7.3 4.3 2.8.3 6.5.8 8.1 1.2 4.1.8 5.2-.2 6-5.7.6-4.1.5-4.9-1.1-5.5-1.1-.3-2.2-1.1-2.6-1.7-.7-1-2.4-1.5-7.8-2.3-2.8-.3-4.4.2-7.8 2.7M599.8 166.1c-2.2 1.2-2.4 8.5-.6 13.6l1.2 3.3 8.3-.1c5.8-.2 8.3-.6 8.7-1.6.3-.7 1.2-1.3 2.1-1.3.8 0 1.5-.6 1.5-1.3 0-.6.8-.3 1.6.8 1.6 2 1.6 2 .9-.3-.4-1.6-.2-2.2.9-2.2 1.8 0 4.8-5.8 4.1-8.1-.5-1.4-2.3-1.8-11.8-2.2-6.2-.2-12.1-.7-13.2-1.1-1.1-.3-2.8-.1-3.7.5M636 246.6c0 .6-1.8 3-4 5.4s-4 4.8-4 5.3-2.6 3.6-5.7 6.9c-8 8.2-8.2 8.8-3.8 8.8 2 0 3.4-.4 3.1-.9-.7-1 7.2-2.6 8.1-1.7.4.3.1.6-.6.6s-1 .4-.7.8c.3.5-2.9 1.4-7 2.1s-7.4 1.6-7.4 2c0 .8 4.5 5 6.8 6.5.7.4 2 .2 3-.6 1.6-1.2 1.6-1.1.2.6-1.3 1.7-1.3 2 1 3.5 1.3.9 4.9 3.5 8 5.8l5.5 4.1.5-12.6c.3-7 .4-13 .3-13.3-.2-.4-1.8-.3-3.7.1-4.9 1.1-5.3 0-.9-2.1l3.7-1.7-.3-9.4c-.1-5.1-.7-9.7-1.2-10.3-.6-.5-.9-.5-.9.1M642.4 251.2c-.7 4.9-.8 6.9-.5 10.9.1 2 3.5 6 5.3 6.3 8.3 1.4 14.6 3.1 14.2 3.8-.3.4.6.8 2 .8 3.5 0 3.3-.9-1-4.9-2-1.9-6-6.4-8.9-10s-6.4-7.8-7.8-9.4l-2.4-2.7zM641.7 268.7c-.7 1.4-.7 23.8.1 25 .5.8 2.1.2 5.4-2 5.6-3.9 17.8-14.6 17.8-15.8 0-.4-1.9-1.3-4.2-2-2.4-.6-4.8-1.5-5.3-1.9-.6-.5-3.4-1.2-6.3-1.6-2.8-.3-5.2-1-5.2-1.5 0-1.1-1.7-1.2-2.3-.2M306.8 291.2c-2.3 2.5-2.8 4-2.8 8.4v5.3l5.2 1.6c2.8.8 5.8 1.5 6.6 1.5.7 0 4.6.9 8.5 1.9 11.8 3.2 26.9 6.1 31.5 6.1 4.1 0 4.2-.1 4.2-3.5 0-2.6-.6-3.9-2.5-5.1-1.3-.8-2.8-1.3-3.4-1-.5.3-2.4-.1-4.2-.9-1.9-.8-2.9-1.4-2.4-1.5.6 0 1.2-1.1 1.3-2.5.1-2.1-.3-2.5-2.3-2.5-1.4 0-2.5.6-2.6 1.2 0 .7-.4.4-.9-.8-.6-1.5-2.7-2.5-8.9-3.9-4.5-1.1-8.1-2.3-8.1-2.7 0-.5-.6-.8-1.3-.8-.8 0-2.4-.9-3.7-2-1.6-1.4-3.7-2-6.9-2-3.9.1-5 .6-7.3 3.2M376.5 460c-7.7.9-12.4 2.9-17.1 7.4-2.1 2-4.6 3.9-5.6 4.2s-1.8 1.1-1.8 1.8-1.7 2.1-3.7 3.2c-2.1 1-4 2.2-4.3 2.5s-1.6.9-3 1.2-4.1 2-5.9 3.6c-1.9 1.7-4.3 3.3-5.3 3.7-1 .3-3.5 2.1-5.6 4.1l-3.7 3.5 5.5-.6c3-.3 5.6-1 5.8-1.6s.8-.8 1.3-.5c.5.4 1.9-.3 3.1-1.4 1.1-1.1 3.7-2.6 5.7-3.2 2-.7 3.9-1.7 4.3-2.3s.8 0 .8 1.4c-.1 3.5-2 5.6-5.9 6.5-2.4.5-3.6.3-4.2-.6-.7-1.1-.9-1.1-.9.1 0 1.7-2.8 4.4-4.7 4.6-.7.1-2.2.2-3.4.2-1.1.1-1.8.6-1.4 1.1.3.5.1 1.2-.5 1.6-2.7 1.7-2.9 4.2-.3 6.9 2.2 2.4 3 2.7 6.2 2.1 2-.4 3.8-1 4.1-1.5 1-1.5 5-2.2 5-.8 0 .7 1.2 2.8 2.7 4.6 2.3 2.7 2.7 4.1 2.8 10 0 6.5.1 6.7 2.5 6.4 1.3-.1 4.2-1.4 6.5-2.7 2.2-1.4 4.9-3.1 6-3.8 1.1-.6 2.4-1.8 2.8-2.5.4-.6 1.4-1.2 2.2-1.2.7 0 2-.6 2.7-1.3.7-.6 3.9-2.9 7-5 6.8-4.6 10.8-8.2 10.8-9.7 0-1.4-3.9-.3-6.2 1.7-1 .9-2.6 1.3-3.8 1-1.1-.3-3 .3-4.4 1.4-3.3 2.6-4.6 2.4-4.6-.7 0-1.9.4-2.5 1.4-2.1.8.3 5-1.2 9.3-3.4 10.6-5.5 16.1-8.9 14.4-8.9-1.2 0-1.2-.3-.3-1.2 1.7-1.7 1.5-3.9-.5-5.3-1.8-1.4-1.5-1.8 5.7-7.4l2.5-1.9-6.5.5c-5.8.6-6.4.5-5.2-.9 1.4-1.7 9.8-4.8 12.9-4.8 3.6 0 5.4-4 3.7-8.3-.4-1.3-1.5-1-6.1 1.4-3 1.6-6.3 2.9-7.2 2.9s-2.1.4-2.6.9c-.6.5-2.3 1.1-4 1.3-2.5.2-3 0-2.8-1.7.6-4.5 1-5.7 2.4-6.6 1.6-1 .7-1-8.6.1M400.3 519c-1.3.5-2.3 1.8-2.3 2.8s-.9 2.9-2 4.2c-2.8 3.2-2.5 3.8 1.5 3.7 4.7-.1 5.2.8 1.9 3.7-1.6 1.3-2.6 2.7-2.2 3.1.9.9 11.9-5.3 14.5-8.3l2.1-2.5-2.9-2.4c-1.6-1.4-2.7-2.8-2.4-3.3.3-.4-.5-1-1.8-1.4-2.8-.7-3.7-.7-6.4.4M161.3 533.7c-.7.2-1.3 1-1.3 1.8 0 .7-1.7 1.5-3.9 1.8-2.8.3-5 1.6-7.6 4.1-1.9 2-4.4 3.6-5.5 3.6-1 0-2.2.4-2.5 1-.3.5-1.4 1-2.4 1s-2.4.7-3.2 1.6c-1.1 1.4-.6 1.5 4.9.8 5.7-.6 6.2-.5 6.2 1.2 0 1.1-.6 2.8-1.4 3.9-.7 1.1-1.6 3.7-2 5.7s-1.2 3.9-1.9 4.1c-.7.3.3.6 2.1.6 3.1.1 5.9-1.8 7.9-5.3.6-1 2.8-1.9 6.2-2.3 3.8-.4 6.3-1.5 9.1-3.7 8.4-6.7 9.7-7.7 15.7-10.7 3.4-1.7 6-3.6 5.7-4-.9-1.5-6.4-1-8 .6-.9.8-2.7 1.5-4.2 1.5s-5.2.7-8.2 1.5c-6.8 1.8-7 1.8-7 0 0-2 4-6.5 5.8-6.5 1.1 0 1.1-.3-.2-1.5-1.5-1.6-2.2-1.7-4.3-.8M412.3 534.6c-1.8.8-3.3 2.1-3.3 2.9s-.6 1.4-1.2 1.2c-.8-.1-1.4 1.1-1.6 3-.2 1.7-1 3.7-1.8 4.3-1.5 1.3-1.9 4-.6 4 .4 0 1.5-.8 2.4-1.8 4.3-4.4 5.4-5.1 6.7-4.2 1.1.6.6 1.7-2.2 5.1-3.3 3.8-4.9 7.9-3 7.9 2 0 8.2-3.9 10.7-6.8 2.2-2.5 3-4.4 3-7.5.1-3.4-.2-4.1-1.6-3.9-2.1.3-3.3-1.5-1.9-3.2 2.3-2.7-.6-3.2-5.6-1M449.7 550.4c-.3.7-2.2 1.6-4.1 1.9-2 .3-5.4 2-7.5 3.6-2.2 1.7-4.6 3.1-5.5 3.1s-1.5.5-1.3 1.1c.1.6-.4 1.4-1 1.6-.7.3-1.3 0-1.3-.7 0-.6-.4-.8-1-.5-.5.3-1-.1-1-.9 0-2.2-1.7-2-2.3.1-.4 1.4-.5 1.2-.6-.5-.1-3.1-1.9-2.8-2.7.5-.3 1.6-.8 3.6-1 4.5-.7 2.3 1.2 5.5 3.6 6.3 1.1.4 3.1 2.2 4.4 4.2 3.3 4.7 7 6.6 9.9 5 5.9-3.3 22.8-20.8 20.8-21.5-1.6-.5-1.3-3.3.5-5.3.9-1 1.3-2.3.9-2.8-.9-1.6-10.2-1.4-10.8.3M1086 561.9c0 3.2 6.8 8.7 17.5 14.1 5.5 2.8 10.6 5.7 11.5 6.4 1.4 1.2 8.8 5 10 5.1.3.1 2 .9 3.9 1.9 1.8 1 4.2 1.5 5.3 1.3 1.2-.4 3.1.5 5.1 2.2 3.4 2.9 13.3 7.1 16.9 7.1 1.9 0 1.9-.2-.7-2.6-4.8-4.4-15.4-12.4-16.5-12.4-1.5 0-1.2-1.6.5-3.4 2-2 1.9-2.6-.5-2.6-1 0-2.3-.6-2.7-1.3-2.5-3.9-9.3-8.5-13.7-9.1-2.5-.4-4.6-1.1-4.6-1.7 0-1.5-3.7-1-4.4.6-.8 2.3-2.4 1.9-12.5-3s-15.1-5.8-15.1-2.6"/></svg>