<svg xmlns="http://www.w3.org/2000/svg" width="1706.667" height="960" viewBox="0 0 1280 720"><path d="M0 291.4v291.4l4-1.9c5.8-2.8 11-2 9.7 1.5-.3.8-.2 1.8.4 2.1 1.2.8 3.9-1.9 3.9-3.8 0-2.5 1.1-4.7 2.1-4.1.5.3.9-.2.9-1 0-1.8 8.7-8.5 10.9-8.6 2 0 9.1-4.9 11.9-8.2 1.3-1.6 3-2.8 3.8-2.8.7 0 3.7-1.3 6.6-2.8 3.6-1.9 7.1-2.9 10.8-3.1 6.8-.3 7.9-.9 11-6 1.7-2.8 3-3.9 4.2-3.5.9.3 1.9 0 2.3-.5.3-.6 2.1-1.8 4-2.7 2-.9 3.5-2.4 3.5-3.4 0-.9 1.1-2.2 2.4-2.8s2.8-2.4 3.4-4.1c1-2.9.9-3.1-1.4-3.1-1.7 0-2.4.5-2.4 2s-.7 2-2.6 2c-1.7 0-3.8 1.1-5.6 3-1.6 1.8-3.8 3-5.3 3s-2.5.6-2.5 1.4-2.2 2.1-5.1 3.1c-4.3 1.3-5.3 1.4-6 .3-1.5-2.4-1-3.5 3.9-7.4 2.6-2.1 5.3-4.4 5.9-5 1.8-1.7 10.4-3.4 17.3-3.4 5 0 6-.3 6-1.8 0-.9 1.8-3.4 4-5.5 2.2-2 4-4.2 4-4.7 0-1.1 6.4-4 8.9-4 .9 0 3.2-.5 5.1-1 2.8-.7 3.6-1.5 3.6-3.2.1-9.3.4-10.8 2.4-10.8 1.3 0 2-.7 2-2 0-1.1-.4-2-1-2-.5 0-1-1.1-1-2.4 0-1.7-.9-2.7-3-3.6-5.8-2.4-4.2-3.6 17.5-12.4 6.1-2.4 15.2-5.8 20.3-7.5 5.2-1.8 11.1-4 13.2-5.1 2.2-1.1 4.9-2 6.1-2s5.1-1.5 8.8-3.4c3.6-1.9 8.4-4.2 10.6-5.2 2.2-1.1 4.7-2.4 5.5-3 .8-.7 3.1-1.4 5-1.7 11.4-1.9 13.2-2.5 18.5-6.3 1.7-1.2 4.5-2.5 6.3-2.9s4.5-1.8 5.9-3.1c2.5-2.3 3.1-2.4 11.7-1.9 5 .4 13.7.2 19.4-.2 5.6-.5 10.2-.6 10.2-.2 0 .3-1.1 1.1-2.5 1.7s-2.5 1.6-2.5 2.1-1.7 1.2-3.7 1.5c-7.5 1.4-11.3 2.7-11.3 4 0 .7-.6 1.3-1.2 1.4-6.3.5-10.7 2.9-10.8 5.9 0 1.8-3.6 2.5-9 1.8-4.1-.6-5.5-.3-9.3 1.9-2.4 1.4-5.6 2.6-7.1 2.6-2.7 0-7.6 3.9-7.6 6 0 .6-.8 1-1.7.8q-1.8-.3-2.1 2.1c-.4 2.3-.3 2.3 5.2 1.7 8.1-1.1 7.5 1.4-1.4 5.9-3 1.5-5.8 3.3-6.3 4.1-.4.7-2.2 1.8-4.1 2.4s-3.6 1.7-3.9 2.4-2.9 2.5-5.8 4.1c-5.2 2.7-9.4 5.8-16.7 12.1-2.5 2.2-3.3 3.6-2.8 4.9.5 1.4 1.4 1.6 4.6 1.1s4-.3 4 .9c0 .8-.6 1.5-1.4 1.5s-1.6.7-2 1.5c-.3.9-1.8 1.5-3.6 1.5-2.4 0-3 .4-3 2.1 0 1.8.4 2.1 2.8 1.6 1.5-.3 3.4-.2 4.2.4 1.8 1.1.7 1.3-5.7.9-3.1-.1-4.3.2-4.3 1.2 0 3.2-8.7 7.6-16.7 8.5-2.4.3-4.3.9-4.3 1.5 0 .5-.4.7-1 .3-1.3-.8-5 1.7-5 3.3 0 .9-.6 1.2-1.6.8-.8-.3-1.3-.2-.9.3.3.5 0 1.1-.7 1.3-1 .4-1 1 0 3.3 1.2 2.7.8 5-.6 2.9-2.5-3.7-13.3-4-15.2-.4-.5 1-2.7 3.6-4.9 5.7-2.1 2.2-4.2 5-4.6 6.2-1.1 3.5-5 7-8.4 7.7-2.7.6-3.3 1.3-4.3 5-1 3.6-1.6 4.4-3.6 4.4-3.5 0-5 2.2-5.4 7.6-.2 4 0 4.8 1.2 4.5.8-.2 2.3-.4 3.2-.5.9 0 2.2-1 2.9-2.3.7-1.2 2.7-2.8 4.6-3.4s3.9-2.1 4.5-3.4c.8-1.9 2.1-2.4 7.2-2.9 10.5-1.2 10.3-1 11-7.7l.7-5.9h3.4c2.4 0 3.8-.6 4.5-2 .6-1.1 1.6-2 2.1-2 2.4 0 8.7-6.1 9.2-8.9.6-2.7 1.1-3 5.4-3.6 2.6-.3 5.9-.8 7.4-1 4-.6 5.3 2.5 2.6 6.4-1.2 1.7-3 3.1-3.9 3.1-1 0-1.8.4-1.8.9s-1 1.3-2.3 1.7c-1.2.3-2.9 1.2-3.7 1.9-.8.8-2.7 1.6-4.2 2-3.7.9-5.5 3.2-3.9 4.8.9.9 1.8.7 3.9-.6 1.5-1 4.4-2.5 6.5-3.3 2-.9 3.7-2 3.7-2.5s.9-.9 2-.9c1 0 2.3-.8 2.8-1.7.9-1.5 10.2-4.7 11.1-3.7.8.7-4.5 4.4-7.1 5-1.6.4-2.8 1-2.8 1.5 0 .4-.8 1-1.9 1.4-1 .3-3.1 1.7-4.7 3.1s-4.5 3.3-6.4 4.1-4.6 2.3-6 3.3c-2.8 2-14.3 8.2-24 13-3.6 1.8-7.2 3.6-8 4.1s-4 2.1-7 3.6-7.4 4.2-9.8 6c-2.3 1.8-6.1 3.8-8.2 4.4-2.2.7-4 1.6-4 2.1 0 .4-.6.8-1.4.8s-2.1.6-2.8 1.3-4.9 3.3-9.3 5.7-8.2 4.7-8.5 5c-.8 1.2-12.8 7-14.4 7-.8 0-1.6.3-1.8.7-.1.5-1.8 1.6-3.6 2.6-2.7 1.5-4.4 1.7-10 1.1-3.7-.3-7.1-1.2-7.5-1.8-.6-.8-1-.8-1.4.1-.2.7-1.1 1.3-1.9 1.3s-1.4.9-1.4 1.9c0 1.1-.5 2.1-1.1 2.3-.5.2-1.1 1.1-1.2 1.9-.3 2.1-6.5 8.7-9.7 10.4-1.4.7-4.2 1.6-6.3 2l-3.7.7v16.9c0 19-.8 17.7 8.4 13.3 2.8-1.3 5.6-2.4 6.3-2.4s1.3-.8 1.3-1.8 2.1-2.9 5.1-4.7c2.8-1.7 6.4-4.2 8-5.7 1.6-1.6 3.3-2.8 3.8-2.8.8 0 8.8-4.6 14.6-8.5 4.7-3.1 6.9-4.5 8.5-5.2.8-.4 1.7-.9 2-1.2.7-.9 6-3.1 6-2.6 0 1.7-4.5 5.1-10.7 8.2-4 2-7.3 3.9-7.3 4.3s-2.4 1.9-5.4 3.5-7.2 4.3-9.3 6.2c-5.4 4.8-6.1 5.3-7 5.3-.4 0-2.4 1.5-4.3 3.3-1.9 1.7-3.8 3.2-4.2 3.2s-1.7 1.1-2.9 2.4-3.8 3-5.8 3.8c-7 2.9-7.1 3.2-7.1 17.4 0 12.1.1 12.7 1.9 12.2 1.1-.3 2.7-1.4 3.7-2.4.9-1 2.3-1.9 3.1-1.9.7 0 2.1-.7 3-1.6 2.9-2.5 20.1-14.7 24.5-17.2 2.2-1.3 5.2-3.4 6.7-4.7 6.1-5.5 7.5-6.5 8.5-6.5.6 0 2.6-1.3 4.5-2.9 1.9-1.7 3.8-2.8 4.3-2.5.4.3 1.6-.4 2.8-1.6 1.1-1.1 2.2-2 2.4-2 .3 0 3.5-2.1 7.3-4.7 15.5-10.7 20-13.5 23.3-14.9 1.9-.8 4.5-2.5 5.7-3.6 1.3-1.3 2.3-1.6 2.3-.9s.4 1 .9.7c.5-.4.7.3.4 1.4-.3 1.2-.8 1.9-1 1.6-.3-.2-2.1.7-4 2s-4 2.1-4.7 1.7c-.6-.3-.8-.3-.4.2 1.1 1.1-3.7 5-9.8 8-2.8 1.4-5.4 2.5-5.8 2.5s-1.4.6-2.1 1.2c-3.5 3.1-4.5 3.8-5.9 3.8-.7 0-1.6.7-2 1.5-.3.8-1.2 1.5-2.1 1.5-.8 0-1.5.4-1.5.8s-1.5 1.6-3.3 2.7c-1.7 1-3.6 2.5-4 3.2-.7 1.2-5.6 3.7-6.5 3.3-.2-.1-2.8 1.8-7.9 6-.7.6-1.6 1-2.2 1-.5 0-2 1.3-3.4 2.9-1.3 1.6-3.7 3.6-5.3 4.5-1.6.8-4 2.7-5.3 4.1s-3.2 2.5-4.2 2.5-1.9.4-1.9 1c0 .5-.8 1-1.8 1s-2.4.9-3.2 2-2 2-2.7 2-1.3.3-1.3.7c-.1.5-3 2.8-6.5 5.3l-6.4 4.5-.1 8.7v8.8h378v-3.5c0-1.9.6-5.4 1.3-7.7.8-2.4 2-7.2 2.6-10.7.7-3.6 1.9-7 2.8-7.6.9-.7 1.9-4.1 2.5-9.2.7-5.5 1.7-8.8 2.9-10.2 1.1-1.1 1.9-2.3 1.9-2.7s1-2.1 2.3-3.8c1.2-1.7 2.7-4.2 3.3-5.6 3-6.7 4-8.3 5.9-9 1.2-.4 2.7-1.5 3.4-2.4.8-1 2.9-1.6 5.3-1.6 4 0 4 0 3.3 3.2-.4 1.8-1.1 5.1-1.5 7.3-1.6 7.8-4.1 16.1-6 19.8-1.2 2.3-2 5.9-2 8.8 0 2.8-.5 4.9-1.1 4.9-.7 0-.9 2.9-.8 8.2.2 5-.2 9.2-.9 10.5-.7 1.2-1.2 4.2-1.2 6.7v4.6h238.8l.4-3.3c.2-1.7 0-16.7-.5-33.2-.5-19.6-.4-34.7.3-43.7.8-9.4.9-36.5.3-86.5-1-94.8-1-95 .4-96.4.9-.9 1.3-.7 1.8 1.2 1.3 5.3 2.1 239.2.9 254.6l-.6 7.3h95.1c93.5 0 95.1 0 95.1-1.9 0-1.1.5-2.3 1-2.6.6-.4 1 .5 1 1.9v2.6h37v-4.3c0-2.4-.4-4.7-.9-5.2-1.7-2-5.9-14.5-5.4-16.4.3-1.1 1.3-2.1 2.2-2.4 2.8-.7 1.5-7.5-2-10.8-3.3-3.1-3.7-6.4-1-9.8 1.8-2.3 1.8-2.5-1.4-8.5-1.7-3.3-4.2-8.9-5.4-12.4-1.3-3.4-2.7-6.2-3.1-6.2-.5 0-1.4-1.5-2-3.4s-1.7-3.7-2.5-4c-1.9-.7-2.1-7-.2-6.4.6.3 1.7 1.5 2.3 2.7 1.9 3.7 8.4 10 12.4 12.1 2.1 1.1 4 2.5 4.2 3.1.2.7 1.7 1.2 3.2 1.3 3.4.1 6.6 5.1 6.6 10.3 0 3.7 1.6 7.9 4.2 10.9 1 1.1 2.2 4.2 2.7 6.8.5 2.9 1.7 5.3 2.9 6.2 1.1.8 2.3 2.9 2.7 4.7 1.6 7.8 3.7 12.7 5.5 12.7s3 1.9 3 4.7c0 .8 1.3 4.4 3 7.9l2.9 6.4h81l-1.3-3.1c-.7-1.8-2.1-3.6-3-4.1s-1.6-1.6-1.6-2.6c0-1.9 7.7 5.2 8.6 8 .5 1.7 6.5 1.8 139.2 1.7 83.8 0 137.8-.4 136.5-.9s-2.3-1.4-2.3-2c0-.5-.6-1-1.3-1-.8 0-2.7-1.2-4.3-2.6s-4.5-3.6-6.6-4.9c-2-1.3-3.9-2.9-4.3-3.5-.3-.5-1.3-1-2.1-1-.9 0-2.9-1.3-4.5-2.9-2.7-2.7-3.2-2.9-8.8-2.4-5.4.5-6.2.3-8.5-2-1.9-1.9-2.6-3.6-2.6-6.6 0-7.8-3.2-6.3-7 3.1-3.1 7.5-5.1 7.6-7.8.6-5.4-14-7.2-20.1-6.1-21.4.8-1 .3-1.7-2-2.9-1.7-.8-3.1-2-3.1-2.6s-.5-.7-1-.4-1 .1-1-.5-1.2-1.6-2.7-2.2c-1.6-.6-3.9-2.2-5.3-3.5-6.5-5.9-12-10.1-14.3-10.7-3.3-.8-4.2-3.3-1.6-4.7 1.7-.9 2.5-.7 4.2.9 1.2 1.1 3.2 2.3 4.5 2.7 1.2.3 3 1.7 3.8 3.1.9 1.3 1.9 2.2 2.3 1.9.4-.2 2.2.8 3.9 2.3s4.7 3.8 6.8 5.2c2 1.4 5.7 4.3 8.3 6.5 6.3 5.5 11.8 8.2 13.3 6.7.7-.7 2.1-1.2 3.1-1.2 1.6 0 1.8.5 1.4 2.9-.8 4 .7 5 6.9 4.4 4-.4 6-.2 7.8 1.1 3 1.9 4.5 7.8 2.6 10.1-.9 1-.9 1.5-.1 1.5.6 0 1.1.7 1.1 1.7 0 .9.3 1.3.7 1 .3-.4 1.5 0 2.5 1 2.1 1.9 2.2 1.7.7-2.6-.6-1.7-.8-4.7-.5-6.6 1-5 4.1-7.5 9.4-7.5 9 0 13.6 10 7.7 16.4-2.3 2.5-3.1 2.7-8.6 2.4-5-.2-5.7-.1-4.2 1 1 .7 4.2 3.4 7.2 6s6.8 5.5 8.5 6.6c1.7 1 3.3 2.2 3.6 2.6s1.6 1.3 2.9 2c1.9.9 2.1 1.4 1 2.1-.9.6.7.9 4.4.9h5.7v-17.3c0-19.2.2-18.4-6.9-22.3-6.9-3.8-7.6-4.4-7.5-5.4.1-.5.2-1.7.3-2.5 0-.8.7-1.5 1.4-1.5 1.5.1 5.2 5 3.7 5-2.5 0-.7 1.8 2.3 2.2 1.7.3 4 .8 5 1.3 1.6.7 1.7-.3 1.7-12.3 0-10.4-.3-13.2-1.5-14.2-.9-.7-1.3-1.5-1-1.8s-.2-1.3-1-2.2c-.9-.9-2.1-3.7-2.8-6.1-1.2-4-1.9-4.7-7.6-7.5-3.4-1.8-7.2-4.1-8.4-5.2s-4.4-3-7.2-4.3c-2.7-1.3-5.6-2.9-6.3-3.6-1.8-1.8-2.2-1.6-2.2.7 0 1.2 1 2.4 2.4 3 1.3.5 5 2.7 8.2 4.9 3.3 2.3 6.5 4.1 7.2 4.1.6 0 1.2.4 1.2.9s1.2 1.2 2.6 1.5c2.5.7 5.4 2.8 5.4 4 0 1.5-4.5.4-7.3-1.8-3.1-2.4-3.6-2.6-5.7-2.6-.5 0-1-.6-1-1.3 0-1.3-2.9-2.9-10.7-6.2-2.4-1-4.3-2.1-4.3-2.5s-2.4-2-5.2-3.5c-2.9-1.6-5.9-3.7-6.6-4.7s-2.1-1.8-3.1-1.8c-1.1 0-2.1-.7-2.5-1.5-.6-1.6 1.9-2.2 2.8-.6.8 1.2 9.3 5.1 11.2 5.1 3.2 0-.5-2.7-10.4-7.6-5.3-2.7-9.8-5.2-10-5.7-.2-.4-.8-.7-1.3-.7s-4-2-7.7-4.4-8.7-5.2-11.2-6.2-5.1-2.4-5.8-3.1-2.3-1.3-3.6-1.3c-2.8 0-4.3-1.3-8.7-7.2-1.9-2.5-5.2-5.8-7.4-7.2-6.4-4.2-16.9-11.4-18-12.3-.5-.5-5.7-3.5-11.5-6.7s-11.4-6.7-12.5-7.7-6.5-4.3-11.9-7.4c-5.5-3.1-10.7-6.5-11.6-7.6-1-1-2.6-1.9-3.6-1.9-1.1 0-2.6-.5-3.4-1-1.2-.8-1.2-1.2-.2-1.8 3.3-2.2-5.3-11.2-10.6-11.2-1.1 0-3.6-1.4-5.7-3-2.1-1.7-4.1-3-4.5-3-1.8 0-5-4-5-6.4 0-1.4-.4-2.6-.9-2.6s-1.1-.9-1.4-2c-.4-1.4-1.4-2-3.5-2-1.7 0-3.7-.9-4.8-2.1-1-1.2-3.9-3.2-6.4-4.5-5.9-3.1-10-6.3-8-6.4.8 0 2.4-.3 3.6-.6s2.7.1 3.5.8c.8.8 3.2 1.9 5.4 2.6 2.2.6 7.6 3 12 5.3s9.8 5.1 12 6.2c2.2 1 4.9 2.8 6.1 3.9 1.2 1 3.8 2.1 5.8 2.5 3.2.5 3.6.3 3.6-1.6 0-1.4-.9-2.5-2.5-3.1-1.4-.5-2.5-1.3-2.5-1.8s-1.4-2.5-3-4.4c-2.3-2.7-4.1-3.7-7.4-4.2s-5.5-1.8-9-5.1c-4.6-4.5-5.9-7.5-3.1-7.5.8 0 1.5-.5 1.5-1 0-1.3 5.7-1.3 6.5 0s3.5.1 3.5-1.6c0-1.6-11.3-7.9-15.8-8.8-1.8-.3-3.9-1.1-4.6-1.8s-2.5-2.2-4.1-3.3c-1.5-1.1-3.6-2.8-4.7-3.8-1.1-1.1-1.8-1.3-1.8-.5 0 .7-1.1.1-2.5-1.4s-4.2-3.5-6.2-4.4c-2.1-1-4.9-2.6-6.2-3.6s-3.3-1.8-4.5-1.8c-2.9 0-8-4-8.4-6.5-.4-2.4-6.1-8.5-7.9-8.5-.6 0-2.3-1.1-3.7-2.5s-3.4-2.5-4.6-2.5c-2.9 0-9.1-3.3-12-6.5l-2.5-2.7 6.8.7c4.1.4 9.4 1.8 13.2 3.6 3.6 1.6 7.4 2.9 8.5 2.9 1.2 0 3.1.5 4.2 1.1 1.2.6 3.8 1.1 6 1.1 2.1-.1 3.8.3 3.8.7s1.3.6 2.8.3c1.8-.2 3.5.2 4.5 1.2s3.3 1.6 6.1 1.6c3.9 0 4.6-.3 4.6-2 0-1.1.5-2 1-2 .6 0 1 .6 1 1.2 0 .9.3 1 .8.2 1.1-1.6 4.5-3.2 6-2.7.6.3 1.2 1.6 1.2 2.9 0 2 .5 2.4 3 2.4 2.8 0 3-.2 3-4 0-2.9-.4-4-1.5-4s-1.5-1.2-1.5-4.8c0-2.6.5-5.3 1-5.8 1.2-1.2-1.9-5.4-4.1-5.5-1.1 0-1.1-.2.1-.7.8-.4 2.7-1.5 4.2-2.5s3.1-1.6 3.6-1.3 2-.5 3.3-1.7c2.1-2 3.6-2.2 15.3-2.6 11-.3 13-.1 13.8 1.3.5.9 1.8 1.6 2.8 1.6 1.1 0 2 .4 2 1 0 .5.9 1 1.9 1 1.3 0 2.1.9 2.6 3 .4 1.7 1.3 3 2.1 3s1.4.4 1.4 1c0 .5.9 1 2.1 1s3.5 1.5 5.2 3.4c3.4 3.6 8 5.6 13 5.6 1.7 0 5.5.7 8.6 1.6 13.7 3.8 15.9 4.3 20.9 4.9 3 .3 6.2 1.1 7.3 1.8 1.4.9 2.1.9 3.1-.1 1.7-1.7 4.7-1.5 8.3.5 1.7.9 5.7 1.9 9 2.2 3.5.4 5.8 1 5.5 1.6-.6 1.2-36.9.7-38.5-.5s-8.2-2.2-18.9-2.7c-9.6-.4-10-.4-12.3 2.1-1.7 1.8-2.3 3.7-2.3 6.9 0 2.3-.5 4.8-1.2 5.5-1.6 1.6-6.5 1.5-7.1-.2-.4-1-3.1-1.5-9.9-1.8-8-.3-9.7-.6-11.8-2.6-1.3-1.2-3.2-2.2-4.2-2.2s-1.8-.5-1.8-1c0-.6-.9-1-1.9-1s-2.2-.7-2.5-1.6c-.4-1.1-1.3-1.4-3.1-1-1.4.4-2.5.2-2.5-.4 0-.5-.4-1-1-1s-1 3.3-1 8v8h8c4.7 0 8 .4 8 1 0 .5-.9 1-2 1s-2 .4-2 1c0 .5-.9 1-2 1s-2 .6-2 1.4-.2 2.1-.5 2.8c-.4.9.7 1.8 3 2.7 1.9.7 3.5 1.7 3.5 2.2s.5.9 1.1.9 2.5 1.1 4.3 2.5 3.9 2.5 4.7 2.6c.8 0 3.2 1.1 5.4 2.4 7.2 4.3 18.9 9.7 22.1 10.2 3 .5 3.3.3 3.6-2.3s.7-2.9 3.8-2.8c1.9.1 6.3 1.5 9.8 3.2 3.4 1.7 6.2 2.8 6.2 2.5 0-.4.9.2 2 1.2 1.2 1.1 2.8 1.5 4.2 1.2 1.2-.4 2.9 0 3.8.7 1.4 1.2 9.2 3.8 10.6 3.6.4-.1 1 .3 1.3.9 1 1.6 7.1 2.6 7.1 1.2 0-.6 1.4-1.1 3-1.1 1.7 0 3-.4 3-.9 0-1.7 7-3.3 11.3-2.6 2.3.3 7 .8 10.5 1.1 4 .4 6.2 1 6.2 1.8 0 .7 1.5 2.1 3.3 3.1 2.9 1.5 3.9 1.6 7 .6 3.3-1.1 3.6-1.5 3-3.9-.3-1.5-1-2.9-1.5-3-.4-.2-.8-.8-.8-1.3s2.9-.9 6.3-.9c5.8 0 6.6.3 9 3 1.5 1.6 2.7 3.2 2.7 3.6 0 1-2.8 3.4-3.9 3.4-2.5 0-.9 2.9 1.9 3.5 1.7.4 3 1.1 3 1.6s.9.9 1.9.9c1.1 0 2.6.7 3.4 1.5s1.7 1.2 2 .9c.2-.3 1.3.6 2.4 1.9 1 1.3 4.6 3.6 7.9 5.1 3.6 1.6 6.7 3.8 7.4 5.1s2.2 2.5 3.3 2.7c3.1.5 3.3 2.8.3 2.8-1.4 0-2.6.4-2.6.9s-.9 1.3-2 1.6c-1.5.5-2 1.5-2 4.3s.3 3.3 1 2.2c.8-1.3 1-1.2 1 .2 0 1 .5 1.8 1 1.8.6 0 1 .7 1 1.5 0 1.3 4.4 6.5 5.5 6.5.3 0 .5-120.8.5-268.5V0H961v2.5c0 1.3-.6 2.8-1.4 3.2s-2.5 2.7-3.8 4.9c-4.6 8.1-24.1 26.8-25.1 24.2-.3-.8-.6-.4-.7.7l-.1 2-.9-2c-.8-1.9-.9-1.9-.9.2-.1 2.8-2.1 3.1-2.1.3 0-1.3-.7-2-2-2-1.1 0-2.9.9-4 2-2.4 2.4-6.5 2.6-7.4.4-.5-1.4-.1-1.6 3.3-1.1 3.4.4 3.8.3 3.4-1.4-.3-1.1-1-1.9-1.5-1.9-1.7 0 0-7.2 2.2-9.4 4-4.1 6-6.9 6-8.8 0-1 .5-1.8 1-1.8.6 0 1-.9 1-2s.7-2 1.5-2c1.1 0 1.5-1.1 1.5-4V0h-94.6l-1.3 6.1c-.9 4.6-2.1 7-4.3 9.3-1.7 1.7-3.4 2.9-3.7 2.6-.3-.2-3 4.1-5.8 9.5-4.2 8-5.3 11-5.3 14.9 0 3.3-.6 5.4-1.7 6.5-6.8 6.2-11.3 12.3-12.9 17.5-1 3.1-2.1 5.6-2.6 5.6-.4 0-.8.7-.8 1.5 0 1.9-2.1 5.7-3.6 6.7-.7.4-2.6 3.6-4.4 7-1.8 3.5-4.7 8.3-6.6 10.7s-3.4 5-3.4 5.8c0 .7-.4 1.3-.9 1.3-.6 0-4 3.1-7.8 6.8-4.3 4.3-7.4 6.6-8.5 6.4-1-.2-1.8-.5-1.8-.7 0-1.8 4.3-9.5 6.4-11.4 1.5-1.4 2.6-3.5 2.6-5.1 0-1.4.6-3.4 1.4-4.5.7-1.1 2.8-4.7 4.6-8s3.9-7.1 4.6-8.5c.8-1.4 1.4-3.3 1.4-4.3 0-1.9.3-2.5 6.4-14.1 1.2-2.2 4.1-6.2 6.6-9 5.9-6.5 8-10 8-12.8 0-1.9.2-2 1-.8s1 .9 1-1.3c0-1.5.9-3.6 2.1-4.8 2.3-2.3 12.3-24.7 13.6-30.7l.5-2.2h-33.6C761.4 0 754 .3 754 1.2c0 .7-1.1 3.5-2.5 6.3-1.3 2.7-2.5 5.8-2.5 6.8s-1.1 4.6-2.4 8-2.7 7.9-3.1 10c-.3 2.1-1.5 5.4-2.6 7.3-1 1.9-1.9 5-1.9 6.9s-.4 3.5-.9 3.5c-1.5 0-2.2 4.7-1.1 7.6.6 1.5.8 3.5.4 4.3-.4.9-.8 2.7-1 4-.2 1.4-1.6 3.6-3.2 5-4.1 3.6-7.2 14.8-7.2 25.9 0 5.4.2 5.9 4.8 10.7 2.7 2.7 5.1 5.8 5.5 6.7.9 2.4 3.4 2.3 4.2-.2.3-1.1 1.2-2 1.9-2 1.2 0 3.6-4.1 9.8-16.5 1.1-2.2 3.1-5.4 4.4-7.2 1.3-1.7 2.4-4.4 2.4-6 .1-2.7.1-2.7 1.5-.9 2.4 3.2 2 15.1-.6 18.7-1.1 1.6-1.8 2.9-1.5 2.9s-.8 2.6-2.4 5.9c-1.6 3.2-3.4 7.8-3.9 10.1-.5 2.4-1.9 5.5-3 6.9-1.2 1.4-2.7 3.9-3.5 5.6-.7 1.6-2.3 3.9-3.5 4.9-1.1 1.1-2.1 2.5-2.1 3.1 0 .7-1 2.5-2.1 4-1.9 2.3-2.7 2.6-5.8 2.1-2-.3-5.5-.9-7.8-1.2-3.3-.5-4.3-1.1-4.3-2.5 0-1.7-.8-1.9-6.5-1.9h-6.4l-1-3.8c-1.4-4.8-1.4-5.2.3-5.2.8 0 2-1.6 2.6-3.6.7-2 2.5-5.6 4.1-7.9 1.9-2.9 2.9-5.6 2.9-8.1 0-2.2.7-4.6 1.8-5.7 2-2.2 2.1-12.2.1-15.9-1.4-2.6-1.3-29.7.1-39.5 1.6-11.1 2.8-17.8 4-22.4 1.7-6.9 5.3-16.3 6.7-17.7.7-.7 1.3-3.3 1.3-5.8V0h-8c-5.7 0-8 .4-8 1.2-.1 2.3-2 15.3-2.6 17.2-1 2.9-2.4-.1-2.4-5.1 0-2.3-.4-4.5-1-4.8s-1-1.5-1-2.7c0-1.5-.5-1.9-1.8-1.6-1.5.4-1.8.1-1.4-1.8.4-2.1.1-2.4-2.7-2.4-2.3 0-3.1.5-3.1 1.8 0 1-1.5 4.9-3.4 8.7-3.2 6.3-3.5 6.6-4.2 4.1-.4-1.7-.1-3.5 1-5.1 2.1-3.2 2.2-9.5.1-9.5-1.1 0-1.5 1.1-1.5 4 0 2.3-.5 4-1.1 4-.8 0-.9-1.3-.5-4l.6-4h-15.8l-.6 3.1c-.3 1.7-.6 10.2-.6 18.8 0 16.8-.8 26.1-2.1 26.1-.5 0-.6-10.8-.2-24l.6-24h-24.2l.5 22.7c.5 19.3.8 23.7 2.5 28.6 1.8 5 2.1 8.5 2.1 26.5.1 11.4-.2 22.9-.6 25.5-.5 3-.4 6.6.3 9.4 1.2 4.8-.1 18.6-2 20.9-.5.6-1.3 4.2-1.9 8.1-.5 3.9-1.5 8.4-2.1 9.9-1.4 3.7-.5 33.7 1 34.2.7.2 1.1 4.5 1.1 11.3 0 9.1.4 11.7 2 15 1.2 2.2 2.5 5 2.9 6.2.8 2.1.7 2.3-2 1.9-2.1-.3-2.9-1-2.9-2.6-.1-1.1-.7-3.2-1.5-4.6-1.2-2.3-1.4-1.4-1.4 8.9 0 6.3-.5 11.9-1.1 12.5-.7.7-1-.5-1-3.7 0-2.8-.5-4.7-1.1-4.7s-.9.6-.6 1.2c.2.7-.1 5.1-.7 9.8l-1.2 8.5-.8-11.5c-.4-6.3-1-11.7-1.4-12s-.8-4.4-.9-9.3c-.1-4.8-.8-9.7-1.4-10.9-.7-1.2-1.4-7.5-1.7-13.9-.5-11.5-.4-11.7 1.8-12.4l2.3-.7-.7-20.2c-.7-17.9-1.2-24.2-3.3-38-.6-4.3-2.9-9.3-4-8.6-1.7 1.3-2.4-7.1-1.8-24.3.5-16.8.8-19 2.5-20.7 1.1-1.1 2-2.7 2-3.5s.4-1.5.9-1.5c2.9 0 4.4-28.2 2.6-49.4l-.7-8.6h-21.1c-18.2 0-21.3.2-22.9 1.7-1.7 1.5-1.8 1.5-1.8 0 0-1.1-.8-1.7-2.1-1.7-2.1 0-2.2.3-1.5 9 .4 5.3.3 9-.2 9-1.4 0-2.2-3.8-2.2-11.3V0h-16v4.4c0 4.6-1.6 6.9-3.1 4.5-.5-.8-.9-3.1-.9-5.2V0h-30.2l.5 2.2c3.1 12.4 4.6 16.8 10.9 31.3 1.6 3.8 3.8 9 4.8 11.5 4.2 10.7 3.7 10 7.7 10 2.1 0 4.5.5 5.3 1.1 1.2.8 1 .9-.7.4s-2.3-.2-2.3.9c0 .9.4 1.6.8 1.6 1.1 0 3.6 7 2.8 7.8-.3.3.2 1.5 1.3 2.6 1.2 1.4 2.1 4.4 2.5 8.6.3 3.6 1.3 10.5 2.2 15.5.8 4.9 1.8 12 2.3 15.7.5 3.6 1.5 7.4 2.2 8.3 2.3 2.8 5.4 5.9 8.2 8.2 1.5 1.3 2.7 3.1 2.7 4.2 0 1 1.6 2.9 3.5 4.2 3.1 2.2 3.5 2.9 3.5 7 0 2.6.7 6 1.5 7.5 1.4 2.7 1.4 2.9-.6 3.2-1.4.3-3.4-.9-5.8-3.2-2-2-4.2-3.6-4.9-3.6s-3.6-1.7-6.5-3.7c-3.6-2.6-6.3-3.7-8.9-3.7-3.3-.1-3.9-.5-5.2-3.6-.8-1.9-1.8-4.9-2.1-6.6-.3-1.8-1.5-4-2.7-5-4.5-4.1-4.7-5.9-4.1-26.8.6-18.6.5-19.8-1.5-23.9-1.2-2.3-2.8-6.7-3.6-9.7s-3.3-10.5-5.5-16.5c-2.2-6.1-4.1-12-4.1-13.2s-.9-4.2-1.9-6.5c-1.9-4.3-6.8-16.4-9.1-22.6L523.8 0h-88.4C335.1 0 343.3-.9 352 8.7c4.7 5.2 6.7 10.3 3.9 10.3-.7 0 .9 1.6 3.4 3.5s5.7 3.5 7.2 3.5c4.9 0 9 3.1 11.6 9 1.6 3.5 12.4 15 14.1 15 .4 0 .8.7.8 1.5 0 2-2.7 1.9-3.8-.1-.6-1.1-1.1-1.3-1.6-.5-.9 1.4-5.6 1.5-5.6.1 0-.6-.7-1-1.5-1s-1.5-.5-1.5-1c0-.6-1.1-1.5-2.4-2-1.4-.5-4.4-2.3-6.7-4-2.3-1.6-4.7-3-5.3-3-.6-.1-3.3-2.3-6.1-5-2.7-2.8-5.5-5-6-5-1.2 0-12.5-11.6-12.5-12.9S332.7 9 331.3 9c-.9 0-1.3-1.5-1.3-4.5V0H0zM481.5 33.2c1.4.6 2.5 1.7 2.5 2.5 0 1.9 2.7 7 5 9.3 1 1 3.8 5.9 6 10.7 10.2 21.7 17 35.2 19.4 38.7 1.4 2.1 3.7 6.2 5.1 9.1 1.4 3 3 5.7 3.5 6 .6.3 1 1.5 1 2.6 0 1 .5 1.9 1 1.9.6 0 1-.5 1-1 0-.6.7-1 1.5-1 .9 0 1.5-.9 1.5-2.3 0-1.8.5-2.2 3.1-2.1 2.7.1 3.4.8 5.6 5 1.3 2.7 2.9 5.3 3.4 5.9 1.2 1.2 1.2 16.5 0 18.4-.9 1.4-3.3-1.7-7-9-1.8-3.7-5.9-7.9-7.6-7.9-.8 0-1.5-.5-1.5-1.2 0-.6-.2-.9-.5-.6s-2-.9-3.8-2.7c-1.8-1.7-3.7-3.4-4.2-3.6-.6-.2-3.7-5.8-6.9-12.4s-7.5-14-9.6-16.5c-3.2-3.9-7.1-11.4-19-36.5-6.4-13.6-6.3-16.4.5-13.3m429 114.8c0 .8.4 2 .7 2.6 1 1.5-11.1 12.9-15.1 14.3-1.9.6-4 1.1-4.7 1.1-2.9 0-1.2-4.1 3.9-9.6 8-8.8 15.2-12.7 15.2-8.4m118.9 15.4c-.4 2.8-.7 5.5-.8 6.1-.2 1.4-5.5 6.5-6.6 6.5-.6 0-1 .4-1 1 0 .5-.9 1-1.9 1-2.1 0-3.6 2.9-2.2 4.3.6.6 2.9.5 6.1-.2 7.8-1.7 8.6-1.5 9.6 2.1.9 3 .6 3.5-3.1 7.2-4.2 4.1-13.5 9.6-16.4 9.6-.9 0-2.5.6-3.6 1.4-2.6 1.8-14.1 4.6-18.8 4.6-2.4 0-4 .5-4.3 1.5-.8 1.9-4.1 1.9-6 .1-1.9-1.9-1.8-2.3.6-2.9 1.1-.3 1.9-1.1 1.8-1.9-.2-.7.2-1.2.8-1.1.7.1 2.3-.8 3.6-2 2.8-2.4 10.7-6.7 12.4-6.7 1.3 0 2.8-3 2-3.8-.3-.2-1.8-.1-3.3.3s-3.8.9-5.1 1.1c-1.3.1-3.9 1.4-5.7 2.8-1.9 1.4-4 2.6-4.7 2.6s-4.4 1.6-8.2 3.5c-9.9 4.9-11.8 5.2-13.3 1.8-1.1-2.2-1-2.9.2-4.3.8-.9 1.5-2.1 1.5-2.6s1.2-1.8 2.7-2.9 3.7-2.9 4.9-4.1c1.8-1.7 9.2-6.5 12.9-8.4 1.5-.7 6.5-3.9 11.2-7.1 2.3-1.6 4.5-2.9 5-2.9s2-1 3.3-2.2c5-4.7 9.5-7 16.2-8.3 3.8-.7 7.2-1.5 7.5-1.8s1.1-.3 1.9 0c1.1.4 1.3 1.7.8 5.7M248 169.9c7.7 1.1 10 2.2 15.8 7.9 2.9 2.8 8.6 7 12.8 9.4 6.1 3.4 7.2 4.4 5.3 4.6-1.2.2-4.3-.5-6.8-1.6s-9.3-4-15.1-6.4c-15.2-6.3-25-11.9-25-14.2 0-1.6.5-1.8 3.8-1.1 2 .4 6.2 1 9.2 1.4m593.7 64.9c.7.4.9 1.3.5 1.9-1 1.5-8.8 4.4-10.5 3.8-.6-.2-2.8 1.6-4.7 4-3.2 4-3.9 4.4-8.3 4.4-4 .1-4.9.5-5.6 2.3-1.9 4.8-4.9 6.8-10 6.8-2.7 0-6.9.3-9.5.6-4.9.7-6.6-.9-2.2-2 1.4-.3 3.8-1.9 5.4-3.6 3-2.9 10.6-7.1 19.4-10.6 2.7-1.1 4.8-2.2 4.8-2.7 0-.4.6-.7 1.4-.7s2.4-1.1 3.7-2.5c2-2.1 3.3-2.5 8.4-2.5 3.3 0 6.5.4 7.2.8m48.7 4.4c1.2 3.5-.7 7.9-4.1 9.5-3 1.4-25.4 1.7-28.7.4-1.6-.6-1.4-.9 1.5-2 1.9-.8 5.3-2.2 7.7-3.2 2.4-1.1 4.7-1.7 5.1-1.4.5.2 1.5-.3 2.2-1.2 2.1-2.4 9-5.2 12.4-5 2.2.1 3.2.9 3.9 2.9m-421.8-.2c1.1.5 3.1 2.4 4.5 4.4 1.3 2 2.7 3.6 3.2 3.6.4 0 .7.8.7 1.9 0 1.6-.5 1.7-4.7 1-2.7-.4-6.9-1.9-9.5-3.4-4-2.2-4.8-3.2-4.8-5.5 0-3.9 3.6-4.6 10.6-2m214.3 17.7c2.8 2.5 14.5 10.9 16.9 12.2 1.3.7 4.5 1.4 7.3 1.6 2.7.1 5.7.9 6.6 1.6 1.7 1.5 13.5 1.7 20.9.4 2.3-.4 4.4-.3 4.7.2 1 1.6-1.3 5.3-3.3 5.3-1.1 0-2 .4-2 1 0 .5-1.6 1-3.5 1-2 0-5.4.9-7.7 2.1-3.2 1.6-5 1.9-9 1.4-6-.9-7.5.6-7.7 7.7-.1 7.8-1.3 8.8-10.3 8.8-5 0-7.8-.4-7.8-1.1 0-.8-4.2-1-13.7-.7-11.4.3-14.4.7-17 2.3-3.5 2.2-4.8 7.3-2.6 10.5 1.3 1.8 9.7 5.3 10.6 4.3.3-.2 2.7.4 5.4 1.5 2.6 1.1 6.3 2.5 8.1 3.2 3.5 1.4 4.4 4 1.3 4-1.1 0-2.2-.4-2.5-.9-.8-1.3-19.6-2.3-21.1-1.1-.9.7-2.6.7-5.9-.2-6.7-1.8-7-1.2-7.4 15.2-.3 11.3-.1 14.8 1.3 18.4 1.4 3.5 1.5 4.8.5 6.6-1.3 2.4-.6 14.3 1 18.4.8 2 .9 2 1-.4l.1-2.5 1.9 2.4c2.7 3.1 2.6 8.5-.2 11.3-3.2 3.2-3.9 7.9-5.2 33.3l-1.1 23-.8-14.5c-.4-8-.7-17.9-.7-22 0-5.2-.6-9.2-2.1-13-1.1-3-2.5-8.1-3-11.3-.9-5.2-.7-6.6 1.6-12.2 2.7-6.9 3.1-10.5 1.4-13.6-.8-1.6-.7-2.9.5-5.4 1.7-3.6 2.2-18.9.9-31.8l-.6-6.7h-5.8c-4.6 0-5.9-.3-5.9-1.5 0-.9.6-1.8 1.4-2.1s1.7-1.7 2-3c.4-1.4 1.1-2.2 1.6-1.9.6.4 1-.9 1-3 0-3 .3-3.6 1.7-3.1 3.3 1.3 5.3-2.7 5.3-10.4 0-5 .3-6.9 1.1-6.4.8.4.9 2.6.5 6.6-.8 6.3.8 12.8 3.1 12.8.7 0 1.3-.4 1.3-.8 0-1 8.7-7.2 10-7.2 1.1 0 6-9.3 6-11.4 0-1.6 3.7-2.9 4.6-1.5.3.5.9.9 1.5.9 1.4 0 6.9-5.5 6.9-7 0-.7.3-1 .6-.7 1.1 1.1 4.4-1.3 4.4-3.2 0-2.6-3.3-5.3-5.5-4.5-1.3.5-1.6.4-1.1-.4.4-.7.1-1.2-.8-1.2-.8 0-1.4-.8-1.3-1.8.1-1.9 3.6-2.5 4.9-.8 1.4 2 3.8-1.7 3.8-5.8 0-2.9-.3-3.7-1-2.6-1.1 1.8-2.5.6-1.6-1.5.6-1.6 1.6-1.4 4.5 1.2m-77.9.8c1.1 1.3.9 2-1 4-1.2 1.3-1.9 2.8-1.5 3.4.8 1.4 5.8 1.4 7.2 0 1.3-1.3 5.5-.8 6 .8.5 1.4-4.7 4.3-7.5 4.3-1 0-2.7.9-3.6 1.9-1.6 1.8-1.6 2 .5 3.5 1.2.8 2.6 1.3 3 1 .5-.2 1.2 1 1.7 2.8.6 2.4 1.4 3.2 2.7 3 1-.2 2.8-.1 4 .2 1.8.5 2.2 1.1 1.8 2.7-.8 2.8 1.2 6.2 4.8 8.3 1.6 1 4 2.8 5.2 4 1.3 1.3 2.9 2.5 3.5 2.7.8.3 1 1.5.6 3.5-.5 2.5-1 3.1-2.5 2.7-1-.3-1.9-1-1.9-1.7-.1-1.3-7-6.6-11.8-9.1-4.9-2.4-15.2-1.2-18.3 2.1-1.2 1.3-3.4 2.4-4.7 2.4-2.3 0-2.4-.3-1.9-4.1.3-2.3 1-4.5 1.6-4.8 2.1-1.3 2.2-6.5.3-8.7-1.8-2.1-2.2-2.1-10.8-1.2-7.2.9-9.4 1.6-11.5 3.5l-2.7 2.4-2.5-2.5c-1.5-1.4-3.3-2.6-4.1-2.6s-2.1-.6-2.8-1.3c-.7-.6-3-2-5-2.9-5.9-2.7-4.7-3.8 4.5-3.8 5.9 0 9.8-.6 13.7-2.1 3-1.1 7.1-2.5 9-3 1.9-.6 4.9-1.7 6.7-2.5 1.7-.8 4.5-1.4 6.2-1.4 2.7 0 3.1-.4 3.7-3.8.4-2 .9-4 1.1-4.5.7-1.3 5-.7 6.3.8M203.5 264c21 3.8 29.6 6.8 28.8 9.8-.6 2.6-8.4 2.7-13.3.2-2.3-1.2-5.9-2-8.7-2-2.6 0-6.8-.9-9.2-2s-6.2-2.3-8.5-2.6c-5.3-.7-8.6-2.3-8.6-4.2 0-1.2 1.2-1.4 7.3-.8 3.9.3 9.5 1.1 12.2 1.6m196 13.7c1.1 1.4 1 2.3-.2 4.6-1.1 2.1-1.4 6.2-1.4 14.8v11.8l4 3.9c2.2 2.1 4.3 5.2 4.7 6.8.9 3.7 2.1 4.8 6.8 6.5 2.1.8 4.1 2 4.3 2.6.3.7 1 1.3 1.6 1.3 2.2 0 5.5 5.1 6.2 9.6.7 4.9-.1 12.1-1.5 12.9-1.1.7-1.1 24.5-.1 24.5.5 0 2.4 1.5 4.4 3.2 3.5 3.3 3.5 3.4 3.8 12.3.1 4.9-.2 9.9-.8 11-1.7 3.4-3.3 10.8-3.2 15 .3 6.9-1.2 12.9-3.9 15.7-2.2 2.4-2.5 3.8-3 12.2-.4 7.4-.1 10.5 1.3 14.3 1.5 4.3 1.6 5.5.4 9.8-1.8 7.2-1.3 21.3 1 27 .7 1.6 1 4 .8 5.2-.3 1.8.2 2.5 2.9 3.3 3 1 3.2 1.3 1.9 2.6-.8.9-1.5 3.1-1.5 4.9 0 1.9-.4 3.7-1 4-1.5.9-1.2 3.5.4 3.5 1.4 0 3.1 2.7 2.7 4.4-.1.5-.4 3.2-.6 6-.4 5.3-.7 6.7-5 22.6-1.4 5.2-2.5 11.8-2.5 14.6 0 3.3-.8 6.8-2.5 10.2-1.4 2.9-2.5 5.4-2.5 5.8 0 .3-.7 1.2-1.5 2.1-1.2 1.1-1.3 1.8-.4 2.9s.6 1.6-1.2 2.3c-2.5.9-7.9 6.4-7.9 8 0 .6-.8 1.5-1.7 2-1 .6-1.4 1.1-.9 1.1s.3.7-.4 1.5c-.7.9-2.2 1.2-3.8.9-2.9-.6-3.9 0-12.4 7.4-2.8 2.4-5.6 4.1-6.4 3.8-.9-.3-1.6.4-2 1.9-.3 1.3-1.5 2.7-2.7 3.1-2.5.8-8.7 6.4-7 6.4 1.9 0-.9 4.8-3.2 5.4-4.8 1.3-5.8.8-5.1-2.6.4-1.8 1.8-4.3 3.1-5.6 1.4-1.2 2.5-2.8 2.5-3.4s1.5-2.4 3.3-3.9c1.7-1.6 2.6-2.8 2-2.9-.7 0-1.3-.5-1.3-1.1 0-.5.4-.8.9-.4 1.4.8 2.1-.9 1-2.5q-.9-1.5-.9-.3c0 .7-.4 1.3-.9 1.3-1.7 0-2.2-3.5-1-8.1 1.1-4.1 1-4.9-.4-6.4-3.1-3-3.9-5.6-3.3-10.3.9-6.5-.2-7.9-4.4-5.7-1.7.9-2.9 1.9-2.6 2.2.5.5-1.9 2.3-12.6 9.8-9 6.2-25.8 21.3-25.8 23.1 0 .7-1.9 2.2-4.2 3.4-4.9 2.6-8.8 6-8.8 7.8 0 2.7-8.1 8.2-12.5 8.5-1.2.1-2.1 1-2.3 2.4-.3 1.7.1 2 1.7 1.6 2.5-.6 2.7.3.5 2.4-1.3 1.4-1.7 1.4-2.5.2-.5-.8-.9-.9-.9-.3 0 1.4-4.2 2.7-5 1.5-.9-1.5-4.5-2.8-6.7-2.6-1.3.1-2.3-.3-2.3-.9s-.4-.5-.9.2c-.7 1.1-.9 1.1-1.4 0-.3-.8 1-2.9 2.9-4.8 1.9-1.8 3.4-3.8 3.4-4.4s1.2-2.2 2.5-3.5c1.4-1.3 2.5-2.7 2.5-3.2s.6-.9 1.4-.9 2.8-1.4 4.4-3c1.7-1.7 3.8-3 4.6-3 .9 0 1.6-.4 1.6-.9 0-.6 2.4-2.5 5.4-4.3s5.9-4.3 6.5-5.6c.6-1.2 1.7-2.2 2.5-2.2.7 0 1.6-.6 1.9-1.4s2.4-2 4.6-2.7c2.3-.7 4.8-2 5.7-3.1 1-1 2.5-1.8 3.5-1.8 1.1 0 2.4-.9 3.1-2s1.8-2 2.4-2c1.1 0 3.1-1.4 12.7-9.2 1.5-1.3 3.3-2.5 4-2.7s3-2.2 5.2-4.3 4.3-3.8 4.8-3.8c.4 0 .7-.7.7-1.6 0-1.2-1-1.5-4.7-1.3-2.7.1-5.6-.1-6.5-.5-1.1-.5-1.8-.4-1.8.3 0 .6-1.7 1.1-4 1.1-2.2 0-4 .4-4 1 0 .5-.9 1-2 1s-2 .5-2 1.1c0 .7-2.7.9-8.7.4-7-.6-9.1-1.1-10.4-2.7s-2.2-1.8-5.5-1.2c-2.1.3-4.3 1-4.9 1.4-.5.4-3.7 1.3-7 2-8.2 1.6-9.5 2-9.5 3 0 1.5-5 6-6.5 6-.8 0-1.5.4-1.5.9 0 1.3-3.2 1.9-5.5 1-1.7-.6-1.7-.8-.2-.8 1.1-.1 1.7-.9 1.7-2.6 0-1.4.5-2.5 1-2.5s2-1 3.1-2.1c1.7-1.7 2.3-1.9 3-.8.6 1 .9 1.1.9.1 0-.6.4-1.2 1-1.2.5 0 2.4-1.5 4.2-3.4 3.4-3.5 10.1-8.7 15.3-12 1.7-1 3.7-2.6 4.6-3.5s3.3-2.9 5.3-4.5c3.3-2.6 3.5-3 2.1-4.6-.8-.9-1.5-2.4-1.5-3.2 0-5.4-2.6-6.1-6.9-1.9-2.1 2.1-4.3 3-8.3 3.6-3.7.5-6.6 1.7-9.8 4.1-2.5 1.8-6.3 4.2-8.6 5.2-2.3 1.1-5.3 3.6-6.8 5.5-1.6 2.1-4 3.8-5.7 4.2-1.6.4-2.9 1.1-2.9 1.6s-1.3.9-2.9.9-3.1.5-3.3 1.1-2.8 1.2-5.8 1.2c-4.4.2-5.5-.1-5.8-1.5-.2-1 .2-2.3.8-3s1.9-2.7 3-4.4c1.8-3.1 15.2-11.4 18.3-11.4.8 0 1.7-.7 2.1-1.5.3-.8 1.3-1.5 2.3-1.5s3.5-.9 5.6-2c2-1.1 4.3-2 5.1-2 .7 0 1.9-.7 2.6-1.5s2.7-1.7 4.6-2.1c1.9-.3 3.2-1 2.9-1.4-.7-1.1 2.4-3.6 6.6-5.3 2-.8 4.7-2.6 6.2-4.1 1.4-1.4 3.1-2.6 3.7-2.6 1.5 0 14.3-8.9 15.3-10.6.4-.8 1.5-1.4 2.3-1.4.9 0 2.2-.7 3-1.5.9-.8 2.4-1.5 3.5-1.5 1 0 1.9-.5 1.9-1 0-.6 1.7-1.9 3.8-2.8 2.1-1 3.7-2.3 3.5-2.9-.3-.7.7-1.5 2.1-1.9 2.7-.6 9-7.7 7.9-8.8-1.2-1.1-11.8-.6-15.8.9-5.7 2-8.7 1.9-8.3-.3.3-1.5-.5-1.7-5.7-1.5-3.3.1-7.8 1-10 1.9s-4.9 2-6 2.4-5.2 2.2-9.1 3.9-7.8 3.1-8.7 3.1c-1 0-2.5.4-3.5.9-.9.6-4.2 2.2-7.2 3.6-3 1.5-6.7 4.1-8.1 5.8s-4.3 3.5-6.4 4.1c-4.1 1.2-4 1-8.4 10.9-2.7 5.8-3.5 6.7-5.7 6.7-1.6 0-2.8.7-3 1.8-.3.9-2.6 2.6-5.2 3.6-2.6 1.1-7 4.2-9.9 7.2-2.8 2.9-6.2 5.5-7.5 5.9-6.6 1.9-13.8 6-14.9 8.7-.6 1.5-1.4 2.7-1.8 2.6-1.3-.4-8.1 2.4-8.8 3.5-1.3 2.1-5.8 4.5-9.7 5.2-4.3.9-4.6-.2-.8-3.3 1.5-1.3 4.5-3.9 6.7-5.8s4.6-3.4 5.3-3.4c.6 0 1.2-.4 1.2-1 0-.5 2.5-2.2 5.6-3.7 4.6-2.2 6-3.5 7.4-6.8 2.3-5.1 7.3-10.2 11-11 1.6-.3 3.4-1.3 4.1-2.2.7-.8 3.1-2.3 5.4-3.4s4.9-3.3 5.9-5.2c2.6-4.5 15.1-16.1 20.2-18.7 2.3-1.3 5.5-3.5 7-5.1s3.3-2.9 3.9-2.9 2.2-1.2 3.6-2.6c1.3-1.4 5.1-3.8 8.4-5.4 3.4-1.6 7.3-4 8.7-5.2 7.9-7.2 9.7-8.6 14-10.7 7.2-3.4 11-10.2 11.7-20.8.3-4.5.8-8.3 1.1-8.6 2.1-1.7 8.4-3.9 12.8-4.4s5.3-.9 5.8-2.9c.4-1.3 1.4-2.4 2.3-2.5 1.2 0 1.2-.2-.4-.9-1.7-.7-1.7-.9-.2-.9 3-.2 1.8-2-1.8-2.7l-3.5-.6v-7.9c0-7.3-.2-8.1-3-11.2-1.6-1.9-3-4-3-4.6s-1.5-1.1-3.4-1.1c-4.1 0-4.5-.5-5.2-6.7-.5-4.6-.3-5 4.3-9.9 4.5-4.9 9.9-11.1 12.9-15.1.7-1 1.4-4.3 1.4-7.6 0-5.2-.2-5.8-2.5-6.7-1.4-.5-2.5-1.4-2.5-2 0-.5-.3-.9-.7-.9-5.1.8-4.1-2.7 1.1-4 4.4-1.1 11.5-6.8 11.7-9.3.3-3.1-.4-5.4-2.2-7.1-1-1-1.9-2.2-1.9-2.6 0-1.7 13.1-13.1 15-13.1 1.1 0 2-.5 2-1 0-.6.6-1 1.4-1 .7 0 2.1-1.1 2.9-2.4 1.1-1.7 2.8-2.5 6.1-2.8 5.4-.6 7.2-2.3 8.1-7.2.6-2.9.4-3.6-.9-3.6-.9 0-1.6-.8-1.6-2 0-1.1-.6-2-1.4-2-.7 0-1.6-.9-1.9-2-.3-1.2-1.4-2-2.7-2-4.3 0-7.4-5.2-5.6-9.5 1.8-4.1 4.2-5.9 7.9-5.7 9.8.3 16.2 0 16.5-.9.2-.5 1-.9 1.8-.9s1.4-.7 1.4-1.5c0-2 3-1.9 4.5.2m500.4 22.2c1 1 2.4 2 3 2.2 1.6.6-4.7 6.9-6.8 6.9-.5 0-1.3.5-1.6 1-.8 1.3 1.9 4 4 4 .9 0 4.7 3 8.5 6.7 5.4 5.1 7 7.3 7 9.4 0 1.6.6 3.2 1.3 3.6 2.1 1.4 3.7 6.2 3.7 11.3 0 3.8.4 5 1.5 5 2.6 0 8 6.4 11.3 13.3 2.1 4.6 2.2 5.1.8 10-.8 2.9-1.8 7.3-2.1 9.8-.6 4-.4 4.9 1.8 7.3 1.3 1.4 2.8 2.6 3.3 2.6s1.6.9 2.4 2 1.9 2 2.5 2c1.2 0 7.5 7.5 7.5 8.9 0 .6.6 1.1 1.3 1.1.9 0 .9.2-.1.9-1 .6-1.5 4.6-1.9 14.2l-.5 13.4 5.1 2.7c2.8 1.6 5.6 2.8 6.2 2.8 1.1 0 6 2 11.7 4.8 1.9.9 4 2.9 4.8 4.4s2 2.8 2.8 2.8c.7 0 2.1 1 3.2 2.1 1 1.2 3.4 2.8 5.2 3.6 1.7.7 3.2 1.8 3.2 2.3 0 1.4-.7 1.3-6-1.4-4.7-2.4-17-4.2-17-2.5 0 .5.8 1.7 1.8 2.7 2.2 2.4 5.7 9.1 5 9.8-.3.3-2.3-.2-4.4-1.1-2.2-.9-4.3-1.8-4.9-1.9-.5-.1-2-.8-3.3-1.4-1.6-.9-6.3-1.2-16.7-.8-13.7.4-14.7.6-16.5 2.8-2.9 3.5-2.4 6.4 1.9 11.1l4 4.2 13.8.5c14.2.6 17.1 1.3 22.6 6.2 1.1.9 3.2 2.3 4.8 3 2.7 1.4 6.7 6.3 8.2 10 .3 1 1.3 1.8 2 1.8.8 0 4.3 2.3 7.8 5.1s10.5 7.1 15.4 9.6c5 2.5 10.6 5.9 12.5 7.5 5.6 4.6 5.9 4.8 7 4.8.5 0 1 .4 1 .9s-1 .7-2.2.5c-1.3-.2-1.7-.2-1.1.2.9.4 1 1.1.3 2.5-.9 1.5-.6 1.9 1.5 2.4 1.4.3 3.6.7 5 1s2.5 1.1 2.5 1.7.7 1.9 1.6 2.9 1.3 2.2 1 2.7c-.5.8-3-.3-17.1-7.9-3.6-1.9-10.9-7.3-14.3-10.6-.6-.6-2.2-1.5-3.5-1.9-1.2-.3-3.3-1.4-4.7-2.4-1.4-.9-4.2-2.3-6.2-2.9-2.1-.7-4.4-2-5-3-1.6-2.1-5.9-3.8-12-4.7-4-.5-4.8-.4-4.8 1 0 .9-.4 1.6-1 1.6-.5 0-.1.9 1 2 3.4 3.4 1.3 4.2-4 1.5-2.7-1.4-5.6-2.5-6.3-2.5-.8 0-2.5-.8-3.8-1.9-1.9-1.5-4.3-1.9-11.7-2-5.7-.1-9.2.2-9.2.9 0 .5-.6 1-1.4 1-2.4 0-2.7 1.6-.6 4 1.1 1.3 2 3.1 2 4.2 0 1 .9 2.7 2 3.8s2 2.2 2 2.5c0 .9 17.8 18.3 18.3 17.9.3-.3 2.8 1.8 5.7 4.6 6.5 6.4 8.4 7.5 14.6 8.4 1.2.2 3.7 1.5 5.6 2.9 1.9 1.5 4.8 2.7 6.3 2.7 1.7 0 4 1 5.5 2.5 1.5 1.4 5.7 3.7 9.4 5s8.1 3.4 9.7 4.6c1.7 1.2 5.1 3.1 7.5 4.3 4.8 2.3 20.7 17.4 19.8 18.8-.8 1.3-8 .9-9.3-.5-.6-.8-3-1.9-5.3-2.6s-5-2.2-5.9-3.2-2.1-1.9-2.8-1.9c-.6 0-1.1-.3-1.1-.8 0-.4-2.1-.7-4.7-.7-4.4 0-5.1-.4-9-4.6-2.3-2.5-5.5-5.1-7-5.9s-3.7-2.2-4.8-3.1c-1.1-1-5.4-3.2-9.5-5-4.1-1.9-8.8-4.5-10.3-5.9-1.6-1.4-4.3-2.8-6-3.2-3.8-.8-7.5.8-5.8 2.5.6.6 1.1 1.9 1.1 2.9 0 2.2-3.2 2.4-5 .3-.6-.8-4.5-3.1-8.6-5.1s-8.2-4.7-9.2-5.9-2.9-2.8-4.2-3.5c-1.4-.7-4.1-2.5-6-4s-5.1-3.6-7-4.6c-1.9-1.1-3.7-2.2-4-2.5-1.4-1.8-9.4-4.9-12.4-4.9-5.8 0-7.7 6.7-3.1 11 1.4 1.3 2.5 2.8 2.5 3.3 0 2.4 5.8 9.8 9.6 12.2 2.4 1.5 4.8 4 5.5 5.8s1.9 3.6 2.6 4c.8.5 1.3 2.9 1.3 6.7s.4 6 1.3 6.3c.6.2.8.8.4 1.3-.5.5-1.4.2-2.1-.8s-3.3-2.6-5.7-3.7c-2.4-1-6.2-3.8-8.4-6.1-2.2-2.2-6.4-5.5-9.4-7.2l-5.4-3.1-1.8 2.1c-1.6 2-1.6 2.5 0 7.5.9 3 3.1 7.1 4.9 9.1 1.7 2 3.2 4.2 3.2 4.9s1.6 3 3.5 5.2c2.6 2.8 3.2 4 2.3 4.6-.7.5-1.9.2-2.8-.5-.8-.8-2.8-2-4.5-2.9-1.6-.8-4.7-3.2-6.7-5.3-3.5-3.4-3.8-3.5-3.8-1.5 0 1.2 1.1 3.7 2.5 5.5 2 2.6 2.5 4.5 2.5 8.8 0 4 .6 6.2 1.9 8 3.2 4 7.2 13.8 6.9 16.6-.2 2.1-.8 2.6-2.3 2.4-2.4-.3-15.5-13.9-19.6-20.3-3.3-5.3-9.2-10.7-12.9-12-1.5-.6-3.1-2.3-3.8-4.1-1-2.8-.9-3.4.8-5 1-1 2.4-1.8 3-1.8 1.5 0 1.2-8.1-.4-9.9-.8-.9-4.2-7.2-7.7-14.1-3.4-6.9-7.7-14.2-9.5-16.3-1.9-2-3.4-4.4-3.4-5.3s-1.5-3.1-3.4-4.9c-1.9-1.7-4.4-5.2-5.6-7.6s-3.7-6-5.6-8c-2.9-2.9-7.4-12.3-7.4-15.2 0-.4 1.6.4 3.5 1.8 1.9 1.5 3.3 3.2 3.2 3.8-.1.7 1.4 1.3 3.5 1.5 3.3.3 3.8 0 4.4-2.2.7-2.7-2.2-9.9-5.3-13.1-1.1-1.1-2.3-3.8-2.6-6-.4-2.2-1.1-4.1-1.7-4.3-1.8-.6-1-2.7 2.1-5.2 4.6-3.8 5-5.8 3.8-19-1-10.5-.9-12.4.6-16.7.9-2.6 2.5-7.7 3.5-11.3l1.9-6.5-2.4-3c-3.5-4.7-4.6-9.9-3.3-15.4 1.5-6.3 5-15.3 6.6-17 1-1 1.1-3.2.6-8.2-.6-6.7-.6-6.8 2.9-11 5.7-6.7 6.2-14.9 1.2-20.3-1.4-1.5-2.5-3.6-2.5-4.7 0-1.7-1.6-2.5-4.3-2-.5.1-.6-.3-.2-.9.3-.5 1.5-1 2.6-1 1.3 0 1.9-.7 1.9-2.1 0-1.2.4-1.7 1.1-1.4.6.4 1.3-.2 1.6-1.4s1.2-2.1 2-2.1c2.6 0 5-3.8 5.7-8.9.4-2.9 1.4-5.5 2.6-6.6 1.2-1 3-3.4 4.2-5.3s3.6-4 5.4-4.8c3.8-1.6 14.4-11.7 14.4-13.7 0-2.4 1.2-2.7 9.7-2.7 6.8 0 8.6.3 10.2 1.9m172.9 9.8c8.9.7 11 2.6 3.1 3-2.4.1-9.4.8-15.6 1.4-10.1 1-11.8.9-17-.7l-5.8-1.8 3.8-.7c2-.3 4-.9 4.4-1.2.8-.9 16.3-.9 27.1 0M726 382c.9.5 1.9.5 2.6-.1s3.4-.9 6.1-.7l4.8.3-.3 7.5c-.5 12.9-.4 12.7-6.7 12.2-4.4-.4-5.6-.1-6.1 1.2-1 2.5-1.9 1.9-3.9-2.6l-1.8-4.1 2.7-2.2c3.3-2.6 3.3-5.1.1-8.1-1.4-1.3-2.5-2.8-2.5-3.4 0-1.2 3-1.3 5 0m-524 13.1c0 4.3-.8 5.5-5.2 7.8-1.6.8-2.8 2.3-2.8 3.3 0 1.4-.8 1.8-4 1.8h-4v4c0 2.9.4 4 1.5 4 .8 0 1.5.4 1.5 1 0 .5-.9 1-2.1 1-1.1 0-2.7.7-3.5 1.5-1.3 1.2-.3 1.3 7.3.9 4.9-.3 9.9-.9 11.3-1.4 4.8-1.6 14.8-3.2 15.9-2.5 1.9 1.1.5 2.1-6.1 4.4-3.5 1.2-7.5 2.8-9 3.6-1.4.8-3.9 1.5-5.5 1.5-3.6 0-5.8 1.4-4.8 3 .5.9 2.5 1.1 6.4.7 5-.6 6-.4 7.5 1.4.9 1.2 1.6 2.2 1.4 2.3s-2.8 1-5.8 1.9c-3 1-9 2.9-13.2 4.2-6 2-9.8 2.5-17.2 2.5-5.3 0-9.5.3-9.4.7.3.9-.5 1.3-2.7 1.3-.9 0-1.5-.9-1.5-2.4 0-2.4 2.1-3.6 6.8-3.6 2.9 0 11.2-3.7 11.2-5 0-1.4-4.8-1.2-10.4.5-5.1 1.6-18.6 1.1-18.6-.6 0-.5.6-.9 1.4-.9 1.6 0 4.1-6.4 3.1-8-.3-.5.3-1.1 1.4-1.1 1.2-.1 2.7-.2 3.4-.3.8-.1 1.2-1.8 1.1-5.3-.2-5.9.1-6.1 10-6.9 6.9-.5 7.5-.8 4.8-2.3-1.4-.8-2.9-.8-4.7-.1-1.4.5-3.7 1-5 1s-2.6.6-2.8 1.2c-.7 1.7-2.7-1-2.1-2.7.3-.7-.4-1.5-1.5-1.8-1.2-.3-2.1-1.2-2.1-2.1s-.7-1.6-1.5-1.6-1.5-.5-1.5-1c0-.6.6-1 1.4-1 .7 0 1.9-.7 2.6-1.5s1.9-1.5 2.8-1.5c.8 0 2-.6 2.6-1.4.8-1.1 5.7-1.7 19.5-2.5 10.1-.6 18.6-1.3 18.9-1.6 1.8-1.7 3.2-.2 3.2 3.6m1002 3.4c3.1 1.9 4.7 3.5 3.8 3.5-1 0-1.8.6-1.8 1.4 0 2.6-19.1 3.6-23.8 1.2-1.5-.7-4.6-1.7-6.9-2.1-4.4-.7-6-2.5-2.3-2.5 1.1 0 2-.4 2-.8 0-.5 3.3-1.4 7.3-2.1 3.9-.7 7.9-1.4 8.7-1.6 4.9-.9 8-.2 13 3m-469.7 71.6c1.8 1.5 4.8 3.1 6.7 3.5 7.2 1.2 7 1 5 5.2-2.4 4.9-8.2 11.2-10.3 11.2-1.9 0-2.6-2.5-2.4-9.5 0-3.5-.7-6.7-2.6-10.7-2.9-6-3.7-10.3-1.1-5.5.9 1.6 3 4.2 4.7 5.8M188.8 575.8c-2.4 3.1-3.7 4.2-4.7 4.2-1.9 0-5.4 2.4-9.1 6.1-1.9 2-6.6 5.1-10.5 7-3.8 1.9-7.1 3.7-7.3 4.1-.2.5-1 .8-1.7.8s-1.5.4-1.7.8c-.1.5-2.5 2.3-5.1 4.1-4.7 3.2-4.9 3.2-4.5 1 .3-2.3 5-5.7 8-5.8.9-.1 1.8-.5 2-.9.2-.5 3.9-3.3 8.2-6.3s8.4-6.2 9-7.1c.6-1 1.9-1.8 2.9-1.8s3.1-1.1 4.5-2.5c5.4-5 13.4-7.9 10-3.7m932.8 0c1.1 1 3.5 2.4 5.4 3 1.8.7 4.2 1.9 5.1 2.8 2.1 1.9 12.4 8.3 18.7 11.6 2.3 1.2 4.2 2.6 4.2 3s2.2 1.9 5 3.3c2.7 1.4 6.5 3.8 8.3 5.5 1.9 1.6 3.9 3 4.4 3s3.5 1.8 6.7 4c3.1 2.2 7.4 4.9 9.4 5.9s4.6 2.8 5.6 4c1.1 1.2 2.4 2.1 3.1 2.1s2 .9 3 2 3.9 3.2 6.4 4.7 6.7 4.3 9.2 6.3c2.6 2 7.2 4.7 10.3 6 3.1 1.2 5.6 2.6 5.6 3.1s1.6 1.6 3.6 2.4 5.4 3 7.5 4.8c6.6 5.6 9.7 7.7 12.8 8.8 1.7.6 2.9 1.5 2.6 1.9-.7 1.1 2.7 3 5.4 3 1.2 0 2.1.7 2.1 1.5s-.6 1.2-1.3.9c-.7-.2-2.1.2-3.2.9-1.7 1.3-2.7.7-10.9-6.4-5-4.4-9.7-7.9-10.6-7.9s-2.2-.9-3-2.1c-.8-1.1-4.9-3.9-9-6.1s-9.6-5.8-12.1-7.9c-2.6-2.1-6.4-4.6-8.5-5.6-2.2-1-4.5-2.5-5.1-3.4-.7-.9-3.9-3.1-7-4.9-4.9-2.8-12.4-8-14.3-10-.3-.3-1.2-1-2.2-1.5-.9-.6-4.9-3.3-9-6-4-2.8-9-5.9-11.1-7-5.4-2.9-22.1-12.8-22.7-13.4-1.1-1.3-11.6-8.1-12.5-8.1-1.1-.1-6.5-4.6-6.5-5.5 0-1.2 2.7-.4 4.6 1.3M813 578.9c0 2 1.2 4.2 4 7.2 2.2 2.4 4 4.8 4 5.4 0 .7 1.9 3.2 4.3 5.7 6.5 7.1 18.4 23.9 18.6 26.4.1.7-1.6-.4-3.6-2.3-2.1-1.9-5-4.1-6.5-4.9-1.5-.7-2.9-2.3-3.3-3.4-.3-1.1-1.2-2.6-1.8-3.3-2.5-2.7-7.7-10.8-7.7-12.1s-4-3.6-6.4-3.6c-.8 0-1.7 1.6-2 3.5-.5 2.7-1 3.3-2.4 2.8-2.3-.9-3.2-2.3-3.2-5.1 0-1.2-1.1-4.5-2.5-7.1l-2.4-4.9 2.7-3.6c1.9-2.5 3.5-3.5 5.5-3.6 2.3 0 2.7.4 2.7 2.9m-420.6 57.7c1.2.5 1.6 2 1.6 6.1 0 4.8-.3 5.7-3 7.9-1.6 1.4-3.9 4.3-5.2 6.5-2.6 4.6-5.8 5.2-7.8 1.4-1.1-2.1-1.1-2.9 0-5 .7-1.4 1.7-2.5 2.2-2.5.4 0 .8-.9.8-1.9 0-1.1.5-2.3 1-2.6.6-.3 1-1.4 1-2.5 0-1 .7-2.1 1.6-2.4.9-.4 1.4-.9 1-1.3-.8-.8 2.3-4.3 4-4.3.7 0 1.9.3 2.8.6M946 681.5c0 .8.7 1.5 1.5 1.5s1.5.6 1.5 1.4.6 2.1 1.3 2.8c1.4 1.5 3.3 5.3 4.2 8.5.4 1.3 1 2.3 1.5 2.3.4 0 2.2 2.2 3.9 4.9 2.4 3.7 3 5.6 2.5 7.5-.3 1.4-1 2.6-1.4 2.6-1.4 0-7-5.4-7-6.7 0-.7-1.1-2.3-2.5-3.4-1.3-1.2-2.7-3.5-3-5.1-.4-1.6-2-4.5-3.7-6.4s-2.5-3.4-1.9-3.4c.7 0 1.1-1 1-2.3-.3-3.7 0-5.7 1.1-5.7.6 0 1 .7 1 1.5"/><path d="M1216.4 521.2c-.8 1.2 6.8 8.3 10.1 9.4 1.1.3 2.8 1.4 3.9 2.3 1 .9 2 1.5 2.2 1.3.2-.1 2.2-.2 4.3-.2 3.1 0 4.1.4 4.6 2 .4 1.4 1.5 2 3.5 2 1.6 0 3.7.9 4.7 1.9 1 1.1 3.1 2.1 4.8 2.3 2 .2 3.1.9 3.3 2.3.7 3.7 3.3 5.4 9.3 6.1 6.8.8 6.7.3 4.8 14.2-1.4 10.2.4 18.7 4.7 22.7 1.5 1.4 2.9 2.5 3 2.5.2 0 .4-10.8.4-23.9v-23.9l-3.6-2.1c-2.1-1.3-5.2-2.1-7.9-2.1-2.5 0-7.1-1.2-11.3-3-3.9-1.7-7.9-3-8.8-3s-2.7-1.1-3.9-2.4-5.3-3.4-9.1-4.6-8.7-2.9-10.9-3.6c-5-1.7-7.2-1.8-8.1-.2"/></svg>