<svg xmlns="http://www.w3.org/2000/svg" width="1706.667" height="960" viewBox="0 0 1280 720"><path d="M0 24v24l2.5.6c1.4.3 2.5 1.3 2.5 2.3 0 1.3-.2 1.4-.9.2-.8-1.2-1.2-1.2-2.5.2C.1 52.7 0 82.8 0 386.4V720h102.6c68.1 0 102.3-.3 101.9-1-.3-.6-.1-1 .6-1s1-.3.6-.6c-.3-.3.2-1.5 1.1-2.6 4.1-5 12.2-13.6 18-19.2 3.5-3.4 6.9-6.7 7.5-7.4 3-3.5 15.8-15.5 21.2-19.8 3.3-2.7 6.6-5.5 7.3-6.2.8-.7 2.8-2 4.5-2.9 1.8-.9 7-4.2 11.7-7.3s10.3-6.5 12.5-7.4c2.2-1 6-3.1 8.5-4.6 2.5-1.6 5.7-3.2 7.2-3.5 1.5-.4 3.2-1.3 3.9-2.1.6-.8 2.6-1.4 4.3-1.4 3.4 0 5.8-1.3 12.6-7.2 5.7-5 6.8-5.8 7.5-5.8.3 0 1.1-.4 1.8-1 4.4-3.6 7.7-5.8 10.9-7.2 2-1 4.4-2.9 5.4-4.2 1.9-3 6.7-5.6 10.1-5.6 4.3 0 3.7 2.7-1.7 7.8-8.3 8-10.6 14.2-5.1 14.2 1.7 0 3.3-.5 3.6-1 .4-.6 5.7-1 12.5-1 11 0 13.6-.4 19.8-3.3 1.7-.8 2.6-.7 3.5.2.9 1.1.9 1.4-.1 1.8-.6.3-1.2 1.1-1.2 1.9 0 1.6-5.9 7.3-7.6 7.4-.7 0-1.4.7-1.7 1.4-.3.8-2.3 2-4.5 2.5-2.1.6-4.9 2.2-6.2 3.6s-3 2.5-3.9 2.5c-.8 0-2.5 1-3.8 2.2-1.9 1.7-4 2.3-10.6 2.8-4.5.4-10.9 1.5-14.2 2.7-4 1.3-7.7 1.8-11.1 1.6-3.7-.4-5.5-.1-6.7 1.1-.8.9-2.1 1.6-2.7 1.6s-1.8.6-2.5 1.4c-1.9 1.8-8.8 3.1-9.3 1.7-.6-1.9-2.2-1.2-2.2.9 0 1.6.7 2 3 2 1.7 0 3 .4 3 1 0 .5-.6 1-1.4 1s-3.8 2.4-6.7 5.4c-10.3 10.3-15.8 14.6-18.7 14.6-2.6 0-2.6-.2 2.3-4.8 5.8-5.5 11.5-12 11.5-13.2 0-.5 1-1.2 2.3-1.6 2.1-.7 3.7-2.1 3.7-3.7s-4.6-.6-5.8 1.3-8.5 6-10.8 6c-.6 0-3.9 3.6-7.2 8-5.1 6.7-6.2 7.7-7.3 6.4-1-1.2-.9-2 .1-3.9.7-1.4 1.7-2.5 2.2-2.5 1.8 0 .7-3.8-1.3-4.3-1.9-.5-12.4 4.9-15.8 8.1-.8.7-2.6 2.1-4 3s-3.2 2.5-3.9 3.4c-.7 1-1.9 1.8-2.6 1.8s-3.8 2.4-6.8 5.2c-3.1 2.9-6.7 6.2-8 7.3-4.9 4.3-14.8 16.1-14.8 17.6 0 .9-.7 2.2-1.5 2.9s-1.5 1.6-1.5 2.1 91.3.9 212.7.9h212.6l-.8-26.8c-.4-14.7-.9-39.1-1.1-54.2s-.7-31.1-1.2-35.5c-.4-4.3-.5-10.2 0-13 .4-2.8.4-15.4 0-28-.8-24.7-.6-29.9.9-29 .5.4.9 10.3.9 23.3 0 12.5.5 25.8 1.1 29.7 1 6.8 1.4 31 1.8 100.2l.1 33.3h87.5c85.2 0 87.5 0 86.4-1.9-1.3-2-.5-5.6 1-4.7.4.3 1.1 1.9 1.4 3.6l.7 3h34.6c32.9 0 34.6-.1 33.3-1.8-.8-.9-2.1-3.1-2.8-4.7-.8-1.7-2.2-4.6-3.2-6.6-1.1-2-1.9-4.5-1.9-5.5 0-1.6.2-1.7 1.5-.3 2 2 9.5 17.6 8.8 18.3-.4.3 27.5.6 62 .6h62.6l-5.1-10.3c-2.8-5.6-5.8-11-6.6-12-.8-.9-1.1-1.7-.6-1.7 1.2.1 6.4 4.7 6.4 5.7 0 .9 4.6 6.2 11.1 13l4 4.2-2.8.4c-1.5.2 4.8.5 14 .6l16.9.1-4-4.8c-7.6-9.1-42-43.2-43.5-43.2-.8 0-2.4-1.2-3.6-2.8-1.6-2.2-2.3-2.5-3.8-1.6-1.1.7-1.9 2.6-2.1 4.7-.2 1.9-1 4.1-1.9 4.9-1.3 1.1-1.8.9-3.2-1-2.1-3-12.7-13.4-14.9-14.6-.9-.5-2.1-1.5-2.5-2.3-1.2-2-4.4-1.6-5 .7-.8 3.3-3.5 2.3-9-3.3-3.5-3.6-6.3-5.6-8.6-6-1.9-.4-3.6-.5-3.9-.3-1.1 1.2-1.3 9.5-.3 11.5.7 1.3.8 2.1.2 2.1s-1.5-.9-2.1-2-3-3-5.3-4.1c-2.3-1.2-6.3-4.1-8.8-6.4-5.2-4.9-8.3-6.2-10.4-4.5-2.2 1.8-1.9 3.9 1.5 10 1.6 3 3.7 7.2 4.7 9.2 1 2.1 2.1 3.8 2.5 3.8.5 0 .8.7.8 1.5 0 2.6-1.9 1.6-4.5-2.3-1.4-2-4.3-6.2-6.4-9.2-2.2-3-4.5-7.1-5.1-9.1-.7-2.2-3.6-6-6.7-9.1-3-2.9-7.1-7.1-9.1-9.2-2.1-2.1-6.1-5-9.1-6.3-2.9-1.3-6.8-3.5-8.7-4.9-3.6-2.8-7.1-2.9-6.6-.1.2.9-.2 1.7-.8 1.7-.5 0-1-.4-1-.9s-.8-1.2-1.7-1.5c-1-.4-4.6-3.3-8.1-6.5-4.5-4.2-7.3-6.1-10-6.5-4.7-.8-11-3.6-13.7-5.9-6.6-6-10.7-9-16-11.8-7.4-4-14.3-9.2-17.3-13-1.3-1.6-2.7-2.7-3.2-2.4-.4.3-1-.4-1.3-1.5-.7-2.7.4-3.1 4.4-2 1.9.6 4.8 1 6.6 1 2.5 0 4.7 1.2 8.8 4.7 14.4 12.5 16.2 13.6 24 15 3.6.7 7.7 2.8 14.6 7.5 5.2 3.6 12.8 8 16.7 9.7 4 1.8 9.1 4.4 11.5 6 5.9 3.9 9.7 5.2 15.3 5.4 4.5.2 4.9 0 5.2-2.3.2-2-1.9-5-9.8-14-5.6-6.3-11-12.2-12-13.1-4-3.4-8.8-16.9-6-16.9.6 0 1 .9 1 2s.6 2 1.4 2c3.5 0 8.2 3.8 28.9 23.1 23.4 21.8 20 19.4 38.4 26.7 4.5 1.7 5.3 1.8 5.3.5 0-1.5-23.9-25.6-32.7-32.8-5.8-4.8-14.1-14.4-16.6-19.2-1-1.8-2.4-3.6-3.2-3.9-.8-.4-1.5-1.2-1.5-1.9s-.7-1.9-1.7-2.6c-.9-.8-2.4-3.2-3.4-5.4-1.7-3.8-15.7-18.5-17.6-18.5-1.3 0-13.4-11.7-16.7-16.2-3-4-3.2-8-.4-8.4.9-.1 4.7 1.8 8.3 4.2s6.8 4.4 7.2 4.4c.3 0 2.1 1.1 3.9 2.5s3.7 2.5 4.1 2.5c.5 0 2.4 1.6 4.3 3.5s3.9 3.5 4.5 3.5c1.6 0 9.5 7.1 9.5 8.6 0 .7.6 1.7 1.4 2.1s1.4 1 1.4 1.3.8 3.2 1.8 6.4c1.5 4.6 3.1 7.2 7.7 11.7 3.2 3.3 6.5 5.9 7.3 5.9s2.5.9 3.7 2.1c1.2 1.1 3.8 3 5.7 4 8.4 4.7 20.9 14.2 30.7 23.2 4.9 4.5 12 10.9 15.8 14.2s8.1 7.1 9.6 8.5c1.4 1.4 4.6 4.1 7 6 3.7 3 23.1 21.1 40.3 37.8 8.2 7.9 9.6 10.3 10 16.8.3 5 2 10.6 4.5 15 .3.6 3.5 4.6 7 8.8l6.4 7.6H1280V298h-4.2c-2.4 0-5.1-.7-6.1-1.4-1.6-1.3-1.6-1.4.7-2 1.3-.3 4-2 6-3.8l3.6-3.2V0h-168.2C981 .1 943.2.3 942 1.3c-.8.7-3 3.4-4.9 6.2-1.9 2.7-4.6 6.4-6 8.2-1.4 1.7-4.2 5.3-6.1 7.9-5 6.6-18.7 23.2-22.7 27.4-1.8 1.9-4.8 5.5-6.6 8-4.3 5.9-5.9 5.8-7.3-.5-.6-2.8-1.3-5.5-1.4-6-.1-.6-.2-1.7-.1-2.5.1-1.3.3-1.3 1-.1.7 1.1 1.1.4 1.6-2.5.8-4.3 4.4-12.2 6.9-15.1 4.7-5.3 7.6-9.2 7.6-10 0-.5 1.1-2 2.5-3.3s2.5-3.1 2.5-4.1c0-.9.7-2.2 1.5-2.9s1.5-1.8 1.5-2.4c0-.7 1.4-2.5 3-4.1 5.9-5.6 6.8-5.5-39.4-5.5h-42.5l-1.4 2.7c-2.3 4.4-12.1 22.2-16.1 29.3-2 3.6-5 7.7-6.6 9.2-2.6 2.4-3.3 2.6-6 1.7-2.6-.9-2.9-1.5-2.4-3.7.8-3.5 11.5-23.9 17-32.5L822 0H647.8l.5 6.7c.4 6.6-1.7 18.3-3.4 18.3-1.5 0-2 10.7-2.9 60.6-.6 37.8-.5 52.1.3 52.6s.7 1.5-.4 3.5c-1.1 2.2-1.5 9.5-1.9 33.8-.3 18.3-.6-1.5-.6-48.5-.1-72.1-.7-96.1-2.2-94.6-.8.9-4.8-8.5-5.5-13.2-.5-2.8-.2-5.4.7-7.6 1.4-3.4 1.9-6.4 1.7-9.9C634 .3 633 0 628.9 0h-5.2l.7 4.7c1.6 10.9 1.8 16.1.7 16.7-.6.4-1.1 2-1.1 3.7 0 3.1-1.4 3.8-2.7 1.4-1.2-2-2.6-.7-5.5 5-1.9 3.7-2.9 7.9-3.9 16.5-1.5 14.1-1.5 42 .1 51.5.6 3.8 1.3 9.2 1.5 12 .4 4.5.4 4.7-.5 1.5-1.5-5.9-4-27-4.1-35.5-.2-12.9 1.3-38.9 2.3-40.2.5-.7.8-3.2.7-5.7-.2-2.5 0-4.8.4-5.2s.7-2.1.7-3.8c0-1.9 1-4.3 2.5-6 2.1-2.5 2.5-3.9 2.5-9.8V0h-66c-60.8 0-68.6.3-65.1 2.4.5.3 1.1 1.8 1.4 3.3 1.1 6 3.9 14.6 5.7 17.9 1.1 1.9 2 5.1 1.9 7.2 0 3.6-.1 3.6-1.2 1.2-3.5-8-7.1-15.3-10.1-21-2-3.6-3.6-7.5-3.6-8.8 0-2.2-.2-2.2-12.6-2.2h-12.5l.7 2.2c.3 1.3 1.8 4.5 3.2 7.3 2.9 5.8 6.1 15.1 7.1 21.2l.8 4.1-2.3-1.6c-1.3-.9-2.6-2.4-2.9-3.4-.3-.9-1.7-2.3-3-3.2s-4-4.5-6-8.1-4-6.5-4.4-6.5-2-2.5-3.6-5.6-3.3-5.8-3.9-6-14.4-.3-30.5-.2l-29.4.3 3.6 3.9c2.1 2.2 4.7 5.5 5.9 7.5 1.1 2 3.6 5.2 5.4 7.1 3.5 3.8 6.7 12 5.7 14.5-.5 1.4-1.5 1.5-5.7 1-4.8-.6-5.7-1.2-15.4-10.8C375.5 18.1 370 11.9 369 10c-1.1-1.9-3.2-5-4.8-6.8l-3-3.2H0zm572.5 2.5c.7 2.5 3.4 12 4.6 16.1.5 1.7.9 4.6.9 6.6v3.5l-7-3.4-6.9-3.4L562 48c-1.1 1.1-2.9 2-4 2-1.9 0-2.6 2.7-2.1 8 .4 3.6 5.7 16 6.8 16 1.8 0 1.6.7-.7 3l-2 2-.9-2.2c-.4-1.3-1.4-4.1-2.2-6.3-1.7-5.2-2.7-6.5-5-6.5-1.1 0-1.9-.5-1.9-1.1 0-.7-1.2-.9-3.4-.5-2.5.5-3.5.3-4-.9-.3-.8-1.6-1.9-3-2.5-2.2-.8-2.4-1.3-2.2-7.7.1-6.7.2-6.8 2.6-6.4 1.4.2 5.4.3 9 .2 5.4-.1 6.8-.5 8.2-2.4 1-1.3 1.5-3.1 1.2-4.4-.5-1.7.1-2.5 2.4-3.7 1.6-.8 3.2-1.3 3.5-1 .2.3.8-1.1 1.1-3 .4-1.8 1.3-3.9 2.1-4.6.7-.6 1.1-1.8.8-2.7-.5-1.3-.3-1.3 1.6-.2 1.2.8 2.4 2.3 2.6 3.4m215.5-3c1.4 1.7 4.3 1.9 7.1.5 1.4-.8 1.9-.7 1.9.1 0 2.2-11.8 28.7-15.9 35.7-3.4 6-5.1 11.4-5.5 17.5-.2 4-.9 5.5-4 8.8-3.4 3.7-5.6 4.3-5.6 1.7 0-.6-1.1-2.5-2.4-4.3-1.9-2.5-2.5-4.6-2.7-9.6-.3-7 .7-9.8 6.7-17.6 3.8-4.9 8.4-14.4 8.4-17.1 0-1.8 5.4-13.8 7.2-15.9 1.4-1.7 3.3-1.6 4.8.2M161.3 41.1c9.7 4.1 27.7 14.3 33.8 19 2.6 2.2 5.2 3.9 5.7 3.9s1.5.7 2.2 1.5 3.1 2.4 5.4 3.5c5.4 2.7 13.4 8.2 17.1 11.8 1.7 1.7 5.7 4.8 9 7s7.7 5.6 9.7 7.4 7.4 5.3 12 7.7 9.2 5.4 10.3 6.6l2.1 2.1-2.3 1.7c-2.2 1.7-2.5 1.6-8-1.2-3.2-1.6-8.3-4.6-11.3-6.6s-6.3-3.9-7.2-4c-2.8-.6-17.4-8.4-22.1-11.9C214.1 87 206 82 196 76.3c-1.4-.8-4.5-2.9-7-4.8-2.5-1.8-8.3-5.8-12.8-8.7-9.8-6.2-22.9-16.9-25.4-20.6-1.3-2-1.4-2.8-.5-3.4 2-1.3 3.4-1 11 2.3m-51.6 19.7c3.4 1.8 7.1 3.2 8.1 3.2s2.2.4 2.8 1c.8.8 7.5 4.6 19.9 11.3 1.7.9 6.6 3 11 4.7 7.3 2.9 13.3 5.9 49.3 24.6 6.8 3.5 14.2 7.7 16.5 9.3 2.3 1.5 6.5 4 9.2 5.4 2.8 1.3 5.9 3.4 6.9 4.6 1.1 1.2 2.3 2.1 2.9 2.1.5 0 6.9 3.5 14.1 7.9 7.2 4.3 17.6 10.2 23.1 13.1 5.5 3 13.2 7.5 17 10.2 3.9 2.6 7.6 4.8 8.2 4.8s1.3.4 1.5.9c.5 1.5 17.7 10.1 20.2 10.1 2.6 0 8.3 5 8.7 7.7.5 3-1.1 6.1-3.3 6.6-2.9.8-13.8-4.1-19.1-8.4-2.2-1.8-5-3.9-6.1-4.5-1.2-.6-4.1-2.2-6.6-3.5s-7-2.7-10-3c-6-.7-8.9-1.7-19.5-6.5-3.8-1.7-10.1-4.4-14-5.9-12.4-4.8-73.9-35.6-77-38.5-2.6-2.4-20.1-12-21.9-12-1.2 0-24.1-13.3-26.9-15.6-1.5-1.3-6.7-4.2-11.5-6.5-4.8-2.2-10.3-5.3-12.2-6.7-1.9-1.5-5.2-3.5-7.3-4.4-2.2-1-3.7-2.3-3.4-3 .2-.7-.2-2.5-.9-3.9-1.1-2.3-1.1-3.2.1-5.7 1.5-2.9 1.8-3 7.8-2.8 4.7.2 7.7 1 12.4 3.4m778.7 5.7c-.4.8-1 1.5-1.6 1.5-.5 0-.6.5-.3 1 .3.6-.1 1.3-1 1.6-.9.4-2.5 2.5-3.7 4.8-1.1 2.2-2.7 4.9-3.6 5.9-.8.9-2 2.6-2.6 3.6-3.8 6.6-7.5 11-10.2 12.1-1.7.7-3.1 1.8-3.2 2.4-.2 2.9-1.2 5.6-3.6 9.1-1.4 2.1-2.6 4.1-2.6 4.4 0 1.2-5.5 3.2-5.8 2.1-.2-.6-.8-.7-1.4-.4-.5.4-.4-.4.2-1.7 1.7-3.1 6.2-8.5 6.7-8.1.3.2 1.8-1.5 3.5-3.7 1.6-2.3 3.4-4.1 3.9-4.1.6 0 .8-.4.5-.8-.3-.5.1-2 .9-3.5 1.9-3.7 9.8-12.7 11.1-12.7.6 0 1.6-1.1 2.2-2.5s1.6-2.5 2.2-2.5.9-.4.5-1c-.3-.5 1.1-2.7 3.1-5 3.7-4.1 5.8-5.2 4.8-2.5M522 73.7c2.9 3.7 2.5 9.7-.8 10.1-1.3.2-2.9-.2-3.7-.8-2.5-2.1-3.5 0-3.5 7.1 0 6.6-.1 6.9-2.4 6.9-2.7 0-3.6 1.6-3.6 6.8 0 2.6.6 4.1 2 5 2.2 1.3 2.8 6.2.8 6.2-.9 0-.8.4.2 1.1 1.2.8 1 .9-1 .8-1.4-.1-3.7.1-5.1.5-3.4 1-10.5-2.7-12.4-6.5-3-5.7-2.1-8.9 4.8-16.1 4.6-4.9 6.3-7.4 6.2-9.2 0-1.4.2-2.6.6-2.6.3 0 1-1.5 1.5-3.3.8-2.5 1.6-3.3 3.7-3.5 1.9-.2 2.7-.9 2.7-2.3 0-1.1.5-2.9 1-4 1-1.8 1.3-1.8 4-.4 1.5.8 3.8 2.7 5 4.2m677.2 2.6c6.5 3.6 5.5 10.3-2.5 15.4-5.9 3.9-8 5.1-9.7 5.9-.8.4-3 2-4.8 3.6-1.8 1.5-3.9 2.8-4.6 2.8-.8 0-3.6 1.7-6.3 3.8-2.6 2-7.3 4.8-10.3 6.2-5 2.3-26.4 13.7-30 16-.8.6-3.2 1.8-5.2 2.7-2.1 1-3.8 2.1-3.8 2.5 0 .5-.5.8-1.2.8-2 0-16.8 6.2-16.8 7.1 0 .4-2.2 2-5 3.6-2.7 1.5-5 3.1-5 3.5 0 .5-.7.8-1.5.8-.9 0-1.8.7-2.1 1.5-.4.8-1.6 1.5-2.8 1.5-2.4.1-6.3 2.7-5.3 3.6 1 1 7.9-1.7 10.6-4.2 1.3-1.2 4.3-2.6 6.5-3 3.7-.6 5.9-1.4 9.6-3.6.8-.5 2.7-1.4 4.3-2.1 1.5-.6 2.7-1.5 2.7-1.9s.5-.8 1.2-.8c1.6 0 15.2-6.3 15.6-7.2.2-.5 1.2-.8 2.3-.8s4.1-1.1 6.7-2.4 5.8-2.7 7.2-3.1 2.9-1.3 3.5-1.9c.9-1.1 5-3 18.5-8.9 2.5-1.1 7.9-3.5 12-5.5s8.3-3.5 9.4-3.4c1 0 3.9-.7 6.5-1.7 2.5-1 6.2-2.1 8.2-2.5 3-.5 3.7-.3 4.1 1.1.7 2.7-1.8 7.9-4.7 10-1.5 1-3.6 2.7-4.9 3.9-1.2 1.1-5.5 3.7-9.6 5.6-17.2 8.2-22.9 10.8-23.7 10.8-.4 0-3.7 1.4-7.3 3.1-6.6 3.2-8 3.8-13.7 5.9-1.8.7-3.3 1.6-3.3 2s-.8 1-1.7 1.4c-1 .3-2.5.9-3.3 1.4-3.3 2-14.8 7.2-15.7 7.2-.6 0-1.6.6-2.2 1.4-.6.7-2.8 1.6-4.9 2-2 .3-5.3 1.7-7.3 3-2 1.4-6 3.2-9 4.2s-5.6 2.1-5.9 2.4c-.3.4-1.6 1-3 1.3-5.5 1.3-13.1 4.3-12.4 5 .4.4.2.8-.4.8-1.4.2-1 .1-8.7 1.7-5.2 1.2-6.5 1.1-9.7-.2-2-.9-4-2.1-4.3-2.7-.7-1 3.1-6 4.4-5.7s10-5.7 10.1-7c0-.6.6-1.2 1.4-1.2 2.2 0 6.9-2 6.3-2.6-1.1-1.1-11.2 1.8-18 5.2-3.8 1.9-7.6 3.4-8.5 3.4s-3 .8-4.7 1.8c-1.6 1-5.1 2.5-7.7 3.2-2.7.8-4.8 1.8-4.8 2.2s-.6.8-1.3.8-3.9 1.3-7.2 3c-3.3 1.6-6.6 3-7.2 3-2.5 0-14.3 4.3-14.3 5.1 0 .5-.8.9-1.9.9-1 0-3 .9-4.4 2s-3.3 2-4.3 2c-.9 0-2.5.7-3.5 1.6-1.4 1.2-2.2 1.3-3.8.4-3-1.5-1.3-4.2 4.7-7.7 2.6-1.5 5.4-3.4 6.2-4.3.8-.8 3.1-2.6 5-3.9 1.9-1.4 3.9-3.1 4.3-3.8.5-.7 1.3-1 1.9-.7.6.4 1.3.3 1.7-.2 1-1.5 8.9-7.4 9.8-7.4.5 0 2.3-1.4 4.1-3 1.8-1.7 3.9-3 4.7-3 .7 0 1.5-.6 1.8-1.4.3-.7 1.8-1.7 3.4-2 1.5-.4 5.1-2.4 7.8-4.5 2.8-2.1 6.7-4.5 8.7-5.5 2.1-.9 5-2.8 6.5-4.2 1.4-1.3 2.8-2.2 3.1-1.9.3.2 1.8-.7 3.4-2 1.6-1.4 3.8-2.5 4.8-2.5s2.5-.8 3.2-1.8 3.8-3.2 6.8-4.8 7.7-4.4 10.5-6.2c2.7-1.7 5.4-3.2 6-3.2.5 0 2.1-.9 3.5-2s3.1-2 3.8-2c.8 0 2.5-.9 3.9-2s3.3-2 4.3-2c.9 0 2.5-.9 3.5-2s2.6-2 3.5-2c1 0 2.3-.7 3-1.5s1.6-1.5 2.1-1.5c1.4 0 15.7-7 21-10.2 2.5-1.5 5.3-2.8 6.1-2.8.9 0 2.7-.9 4.1-2s3.4-2 4.4-2 4.3-1.6 7.3-3.5 5.9-3.5 6.3-3.5c.5 0 3.2-1.1 6-2.4 12.8-6 14.8-6.2 21.9-2.3M38 76.3c3 1.4 4 2.6 3.4 4.1-.2.6 2 2.4 4.8 4 2.9 1.7 6.2 3.8 7.3 4.9 1.5 1.4 2.9 1.7 5.7 1.3 3.9-.6 10.4 1.8 16.5 6.2 1.7 1.2 4.3 2.3 5.8 2.4 1.4.1 3.3 1 4.2 2s2.6 1.8 3.7 1.8c1.2 0 3.2.8 4.6 1.7 1.5 1 3.9 1.6 6.2 1.4 2.6-.2 5.3.6 9.3 2.8 3.1 1.7 6.7 3.1 8.1 3.1 1.3 0 6.8 2 12.1 4.4 5.4 2.4 10.9 4.7 12.2 5.1 1.4.4 5.9 2.4 10 4.5 4.2 2.1 8.6 4 9.7 4.4 1.2.4 2.9 1.5 3.9 2.6s2.3 2 3 2c3.1 0 8.3 9.8 7 13.2-.5 1.3-1.6 1.1-7.3-1.3-3.7-1.6-7.3-2.9-8-2.9s-9.9-4.2-20.5-9.4c-17.3-8.4-28-13.2-44.9-20.3-3.1-1.2-8.4-3.9-11.8-5.8s-6.4-3.5-6.7-3.5-1.8-1-3.3-2.3c-1.5-1.2-3.7-2.9-5-3.7-1.2-.8-2.8-2.1-3.6-2.8-.7-.6-3.3-1.2-5.8-1.2s-4.7-.4-5-.9c-.4-.5-2.5-1.2-4.9-1.6-2.3-.3-5.1-1-6.2-1.4-6.7-2.7-9.5-4.2-9.5-5 0-.5-1.1-1.2-2.5-1.5C28.1 84 26.9 82 29 82c1.4 0 1.2-3.8-.2-4.2-.9-.3-.8-.9.2-2.1 1.6-1.7 4.5-1.5 9 .6m961.4 2.4c-.8 4.5-3.6 10.4-5.8 12.2-.9.8-1.6 1.9-1.6 2.5 0 1-1.7 2.3-8.3 6.2-1 .6-2.7 2-3.7 3-1 1.1-4 3.5-6.6 5.4s-6.3 4.9-8.3 6.6-4.7 3.7-6.1 4.4-3.1 2.1-3.8 3.2c-.7 1-2.1 1.8-3.1 1.8s-2.3 1.1-2.9 2.5c-.6 1.3-3.6 3.9-6.7 5.6-3 1.7-6.4 4.2-7.4 5.5s-2.3 2.4-2.9 2.4c-.5 0-2.8 1.7-5.1 3.9-3 2.8-5.3 4.1-8.6 4.5-3.9.6-4.5.5-4.5-1.1 0-2.5 26.4-27.3 29-27.3.6 0 1-.6 1-1.3 0-.8.9-1.8 1.9-2.3 1.1-.5 4.6-3.4 7.9-6.4 3.2-3 6.3-5.6 6.9-5.7 1-.2 5-3.6 10.4-8.9 1.5-1.4 4.5-3.8 6.9-5.4 2.3-1.5 6.9-5.2 10.2-8.2 5.1-4.6 7.9-6.3 11.1-6.7.4-.1.5 1.6.1 3.6M359.1 89.2c4.3 1.4 7.2 3.9 25.7 21.8 8.2 8 15.7 16 16.5 17.8 1.4 2.9 1.4 3.3.2 2.8-.8-.3-1.5-.1-1.5.5 0 2.3-5.5-2.4-23.3-20-18.3-18-23.8-24.1-21.9-24.1.5 0 2.4.5 4.3 1.2m91.2 11.8c3.5 2.1 13.7 13.1 13.7 14.8 0 1.4 8 10.2 9.3 10.2.6 0 3.5-1 6.4-2.2 3.6-1.5 5.3-2.8 5.5-4.2.7-4.6 10.2-2.6 10.5 2.2.1 1.5.5 4.4.9 6.4.5 3.4.4 3.8-1.4 3.8-2.8 0-4.5 4.8-5.2 14l-.5 7.5-3.5.5c-3.1.4-3.5.9-3.8 3.7-.2 2.2.3 3.5 1.7 4.5 1.8 1.3 2 1.9 1 4.6-.7 2.1-.9 8.9-.6 19.3.4 13.4.3 16.1-1 16.6-1.1.4-1.3 1.9-1 5.9.2 3 .7 5.7 1 6.1.4.3.7 4.3.7 8.8v8.2l6.1 2.3c5 1.8 18.1 4.5 18.4 3.7 0-.1.5-1.5 1.1-3.2 1-3.3 3.4-4.2 11.6-4.4 2.7 0 5.3-.7 6.2-1.6 2-2 4.9-1.9 9.3.5 2.1 1.1 4.3 2 5 2 1.9 0 1.1 2.4-1.1 3.3-1.1.4-1.6 1.3-1.2 2.2.4 1.2-.4 1.5-4.4 1.5-2.7 0-6.1-.5-7.6-1.1-3.4-1.2-7.4-.4-7.4 1.5 0 1.7-3.5 3-7.2 2.7s-6.8 3-6.8 7.4c0 1.9-.4 3.5-1 3.5-.5 0-1-.7-1-1.6 0-2.7-1.7-.6-4.9 5.9-1.8 3.6-3.1 8-3.1 10 0 3.4.5 4 5.5 7.2 6 3.9 8.5 4.4 8.5 1.7 0-2.4 6.3-7.2 9.5-7.2 2.2 0 2.5-.4 2-1.9-.4-1.4 0-2.3 1.4-3 2.7-1.5 3.1-1.4 3.1.9 0 1.7.4 1.9 2.8 1.4 1.5-.4 3.2-.9 3.7-1.3.6-.3 1.5-.6 2-.7.6 0 1.7-.2 2.5-.3 1-.1.7-.6-1-1.6-4-2.2-.7-2.7 9.6-1.5 4.9.5 10.3 1 11.9 1l3-.1-2.5-1.3c-1.4-.8-4.3-1.7-6.5-2-4.9-.8-8.2-2.6-4.8-2.6 1.2 0 2.5-.5 2.8-1 .3-.6.1-1-.4-1-.6 0-1.1-.5-1.1-1 0-.6 1.4-1 3.1-1s2.8-.4 2.4-1c-.3-.6-1.7-1-3.1-1-1.7 0-2.4-.5-2.4-2 0-1.1-.7-2.3-1.5-2.6-1.4-.6-1.3-.8.2-2 1.3-.9 1.4-1.3.4-1.4-1 0-1.1-.3-.2-1.3 1.4-1.7.4-2.7-2.6-2.7-1.3 0-2.3-.4-2.3-.9 0-1.2 2.7-2.1 4.4-1.5.8.3 2-.3 2.7-1.4 1.2-1.9 1.4-1.9 10.8 1.4 5.3 1.9 10.2 3.2 11 2.9s3.7 1.9 6.9 5.1c5.3 5.3 5.8 5.6 9.9 5.2 3-.2 4.3.1 4.3 1 0 .7.9 2.3 2 3.5 1.4 1.4 1.9 3 1.6 4.3-.4 1.5 0 2.4 1 2.8 1.4.5 1.5.4.4-.9-2.5-3 3.4-1.6 7 1.6 2.9 2.7 3.2 3.2 1.7 4.1-2.5 1.3-2.1 3.7.8 4.4 1.4.3 2.5 1.3 2.5 2.1s-.4 1.2-.8.9c-.5-.3-.8.4-.8 1.6.1 1.4-1 2.6-3.1 3.7-2.4 1.2-3.3 2.3-3.3 4.3 0 1.4-.6 2.8-1.2 3.1-.8.2-.9.8-.4 1.3s1.1.4 1.3-.4c.3-.6 1.6-1.2 2.9-1.2 1.4 0 2.4-.6 2.4-1.4s.7-1.7 1.6-2c1-.4 1.4-1.4 1.1-2.6-.6-2.5.2-2.6 1.9-.3 1.8 2.4 1.7 4.3 0 4.3-.8 0-2.7 1.3-4.3 2.8-1.5 1.6-3.4 3.1-4.2 3.3-1 .4-1 .7.3 1.8 1.4 1.2 1.6 1.1 1.6-.5.1-1.7.3-1.6 2 .5 2.3 2.7 2.7 6.3.6 5.5q-1.35-.45-1.8 2.1c-.5 2.6-.4 2.6 3.3 2l3.8-.7-1.1 3.9c-1.2 4.4-2.4 6.2-1.4 2.1.8-3.4-.3-4.1-3.2-1.8q-2.25 1.8-1.5 3.6c.4 1.2.3 1.5-.5 1-.7-.4-1.2-.2-1.2.3 0 .6.7 1.1 1.5 1.1 2.7 0 1.2 4.9-1.6 5.3-.8.2-2 .7-2.8 1.2-.8.4-3.1 1-5 1.1-8.1.7-12 1.7-12.6 3.1-1 2.8.5 2.8 5.5 0s8-3.4 8-1.7c0 .5-.9 1-2 1s-2 .4-2 1c0 .5-.8 1-1.8 1s-2.6.6-3.7 1.4c-2.7 1.8-7.4 2.6-6.9 1.2.6-1.6-3.5-3.9-4.9-2.8-.7.5-3.2 1.4-5.7 2.2-3.6 1-4.1 1.4-2.5 2 1.9.7 1.9.7-.4 1.9-1.4.8-3.6 1-5.5.6-1.7-.4-8.6-.8-15.4-1.1-14.7-.4-18.3-1.3-25.4-6-8.7-5.9-14.6-13.1-15.2-18.6-.4-4-1.9-4.7-8.1-4.1-3.4.4-5.5.1-5.9-.6-.5-.7.5-1.1 3.1-1.1 2.1-.1 4.9-.7 6.2-1.4l2.5-1.4-3.5-.7c-1.9-.4-5.2-2-7.3-3.6-2.2-1.6-4.7-2.9-5.6-2.9-1.9 0-5.5 8.3-6.4 14.9-.4 2.5-1.3 5.9-2.1 7.5-2.5 5.7-2.6 7.2-.6 9.7 1.7 2.2 1.8 2.6.4 5.3-.9 1.8-1.3 4.2-1 6.5 2.1 14.1 3.5 20.9 4.5 22.7.6 1.2 1.5 4.8 1.8 8 .4 3.3 1.5 8.1 2.5 10.9 1.1 2.7 1.9 6 1.9 7.2s.4 2.4.8 2.7c1.6.9 2.3 16.8.9 18.4-1.7 2.1-2.6 24.2-1 24.2 1.8 0 2.3 2.8 2.5 13.2.2 11.2-1.3 16.1-4.6 15.6-1.6-.2-2.1-1-2.2-3.3 0-2.9-1.2-6.7-3.6-11.2-.6-1.3-.8-4.1-.5-6.7.5-3.3.1-5.6-1.3-8.8-1.1-2.4-2-5.8-2-7.6s-.7-4.6-1.5-6.1c-.8-1.6-1.1-3.1-.8-3.5.4-.3-.1-.6-1-.6-3.2 0-10.3-4.4-14.4-9-3.7-4.1-4.5-5.7-5.8-12.6-.8-4.3-1.5-9.1-1.5-10.5 0-1.5-1-3.9-2.2-5.4-3-3.8-3.9-11.4-2.5-20.3l1.1-7.3-3.3-3.1c-2.4-2.3-3.1-3.6-2.7-5.3.3-1.3-.3-4.3-1.5-7-2.4-5.4-2-8.3 1.6-11.9 2.6-2.6 3.2-5 1.5-6.1-.6-.4-.8-2.1-.4-4.2.5-2.9.3-3.9-1.1-4.9-1.6-1.2-1.7-1.7-.5-3.9 1.2-2.3.9-4-.9-4-1.4 0-3.8-3-4.4-5.5-.3-1.4-.8-3.5-1.2-4.7-.6-1.7 0-3 2.4-5.3 1.7-1.8 3.1-3.6 3.1-4.1s1.7-1 3.8-1c4.6-.2 3.6-.2 10.4.6l5.6.7.7-4.8c.4-2.7 1.4-6.3 2.2-8 1.4-2.8 1.4-3.7-.1-10.6-2.1-9.2-2.3-21.9-.7-36.2 1-9.2 1-11.1-.2-12.5-.8-.9-1.8-2.6-2.2-3.9-.3-1.2-1.8-3.6-3.1-5.2-3.4-4-2.8-6.4 1.6-6.8 4.8-.5 5.7-1.5 6.3-6.9.5-4.3 1.9-6.4 5.1-7.6.8-.3.7-.8-.1-1.8-.7-.7-1.3-3.4-1.3-5.9 0-4.1.4-5 3.7-7.9l3.7-3.3-1.7-4.8c-.9-2.6-1.7-5.6-1.7-6.7s-.9-2.9-2.1-4.1c-1.1-1.3-2.1-3.2-2.2-4.3s-3.5-5.3-7.5-9.2c-4.1-4-7.8-8.1-8.3-9.2s-1.7-3.1-2.8-4.5c-1.9-2.5-3.7-7-2.7-7 .3 0 2 .9 3.9 2m341.6 5.3c2.8 3.7 4.1 6.4 4.1 8.5 0 1.8.4 3.2.8 3.2.5 0 2.1 2.7 3.6 6.1s3.6 7 4.7 8.2c1.2 1.3 1.9 3.5 1.9 5.8 0 2.1.8 4.7 2 6.2 1.1 1.4 2 3.8 2.1 5.4 0 2.4.2 2.5.8.8.7-1.7 1-1.4 2.1 1.9.7 2.1 1.4 6.6 1.5 10 .3 7 2.2 16.6 3.6 18 .5.6.9 4.1.9 7.9 0 3.7.4 7.7 1 8.7 1.4 2.7 1.6 42.1.1 44.7-1.2 2.4-.5 15.1 1.1 17.5.7 1 1.2.8 2.7-1 3.8-4.4 13.7-1.3 15.7 5 .3 1.1 2.1 4.5 3.9 7.5 2.7 4.6 3.2 6 2.5 8.4-.8 2.6-.6 3.1 1.6 3.9 1.4.6 3 1 3.5 1 .6 0 .7.4.4 1-.3.5-1.5 1-2.5 1s-3.1 1.1-4.7 2.4l-2.8 2.4 2 2.2c1.1 1.2 1.9 3.2 1.7 4.6-.2 1.5.2 2.4 1 2.5.7 0 .4.4-.7.8-1.1.5-3 2.9-4.3 5.4-2 4.1-2.2 5.2-1.3 10.6.5 3.3 1.5 6.9 2 8 1.6 2.9 1.3 6.7-.5 8.2-.9.8-2.8 3.2-4.2 5.4-2.2 3.4-2.6 5.2-2.7 11.5 0 7.1-1 10.9-5.3 20.9-1.8 4.2-2 5.5-2.1 10.8-.1 2.3-.8 4.8-1.6 5.7-.9.8-2.9 4.1-4.6 7.3-3.3 6.5-7.8 10.9-12.1 11.8-4 .9-6 5.5-6.6 14.8-.3 4.2-.9 8-1.3 8.3-.5.3-.9 1.4-.9 2.4s-.6 2-1.2 2.2c-.9.3-1.3 3.2-1.3 9.7v9.3l6.4 3.3c6.8 3.5 11.6 7.5 9.1 7.5-.9 0-2 1-2.5 2.2-.6 1.4-2.1 2.4-3.8 2.6-2.9.4-6.8 5.9-4.9 7.1.5.3 1.4 2.3 2 4.3.9 3.3.8 3.8-.6 3.8-1.7-.1-3-1.6-9.3-11.2-1.7-2.7-3.5-4.8-4-4.8h-1.6c-.7 0-1.3 3.4-1.6 9.9-.2 2.7-.9 4.8-2 5.6-.9.7-1.7 1.7-1.7 2.4 0 .6-.8 1.1-1.8 1.1-2.1 0-5.7 3.7-6.7 6.9-.3 1.2-1 2.1-1.4 2.1-.5 0-1.8 2.2-3 4.9-1.1 2.8-2.6 5.3-3.1 5.6-.6.3-1 1.5-1 2.5s-.6 2.3-1.3 2.7c-.6.4-1.8 2.5-2.6 4.7-3.1 9.1 2.8 24.9 13.6 36.2 5.5 5.7 16 21.4 14.4 21.4-.5 0-3-2.4-5.7-5.3-4-4.3-4.9-4.9-5.2-3.3-.4 2.1-2.6 4.6-3.9 4.6-.4 0-1.8-1.5-3-3.3-2.1-2.9-2.3-3-2.3-.9 0 1.3.6 3.5 1.4 5 .7 1.5 1.6 4.3 2 6.2.6 3.4.6 3.5-1.2 1.5-1-1.1-2.7-4-3.7-6.5s-3.4-7.9-5.4-12c-3.4-7.2-3.6-7.4-3.9-4.2-.2 1.8.8 6.3 2.2 10 3.1 8.4 4.2 13.7 2.7 12.8-.6-.4-1.1-1.3-1.1-1.9 0-.7-1-2.3-2.2-3.7-3.1-3.4-5.3-8.5-6.8-15.3-.6-3.1-1.8-6.4-2.6-7.2s-2.2-3.1-3-5.2c-.9-2.1-2.3-4.6-3.2-5.6-1.6-1.8-6.7-2.3-7.7-.7-.3.6-1.8 1-3.3 1s-3.7.7-4.9 1.5c-2.1 1.5-2.3 1.4-2.9-1-1.3-5 .4-11.8 3.6-14.8 1.7-1.5 3-3.2 3-3.7 0-.6 1.7-1.8 3.7-2.7 2.1-1.1 4.9-3.7 6.7-6.5 2.1-3.2 3.8-4.7 5.4-4.7 1.2-.1 2.2-.7 2.2-1.4s1.6-2.9 3.6-4.8c4.3-4.1 12-14.1 11.6-15.2-.1-.4.4-1 1.2-1.3 1.5-.6 1-4.4-.7-5.5s1.2-4.9 3.8-4.9c1.3 0 2.7-.5 3-1 .4-.6 1-.8 1.5-.5s1-1.4 1.2-3.7c.3-3.9.7-4.5 4.2-6.3 2.1-1.1 4.3-3.1 4.8-4.5s.7-7.8.4-14.5c-.8-17.1-.7-20.4 1.1-23.8 1.5-3 1.5-12.9-.1-19.4-.2-1.3-.1-2.5.5-2.8.5-.4.9-3.9.9-7.8 0-5.4.5-8.2 2.1-11.2 1.2-2.1 2.4-6.6 2.7-9.9.3-3.2 1.6-8.9 2.9-12.5 1.4-3.6 3.1-10.3 3.8-14.9.8-4.6 1.9-9 2.6-9.8.9-1.1.9-2.4-.1-5.9-.8-2.9-.9-4.9-.3-5.7 1.3-1.7-.1-31-1.6-33.5-.7-1.2-1-1.4-1.1-.4 0 1.1-.4 1.1-1.8-.2-2.6-2.3-3.1-2.2-4.6 1.5-.9 2.1-1.1 4.1-.5 6.2 1.5 5.1 1.2 5.9-1.8 5.2-8.1-2-12.7-2.5-14.4-1.5-2.1 1.1-2.6 5.9-.6 6 .6 0-.4.5-2.3 1.2-2.7.9-3.6 1.8-3.8 3.9-.2 2-.9 2.8-2.3 2.8-1.2 0-1.9.7-1.9 1.9 0 2.5-2.5 4.9-5.8 5.7-1.5.4-3.1 1.2-3.7 1.9-.5.6-3.2 1.5-5.9 1.8-2.8.4-5.2 1-5.5 1.5-.4.4-7.4.9-15.8 1.1-13.8.3-15.4.2-18-1.6-3.6-2.6-13.8-3.9-12.9-1.8.4 1.1-.2 1.5-1.9 1.5-1.3 0-2.7-.5-3-1-.3-.6-1.7-1-3-1s-2.7-.5-3-1.1c-.4-.6-1.3-.8-2.1-.5s-1.4 0-1.4-.7-1.2-1.7-2.6-2.4c-2.3-1.1-2.7-1-3.1.8-.3 1.2-1.1 1.8-1.9 1.5-3.7-1.4.3 5.1 4.4 7.3 2.1 1.1 3.1 4.1 1.4 4.1-.4 0-2.5-2.1-4.6-4.6s-4.4-4.3-5.1-4c-.9.3-1.8-1.5-3-5.6-1.9-7-1.2-9 1.2-3 2.2 5.7 3.5 5.3 2.7-.8-.5-3.4-.3-5 .5-5 1.7 0 1.3-2.1-.6-3.6-3-2.2-4.4-1.7-3.8 1.3.3 1.6.2 2.1-.1 1.3-.4-.8-1.5-2.6-2.5-4.1-1.7-2.4-1.7-2.5.2-3.7 1-.7 1.9-1.8 1.9-2.5s.9-2.9 2-5c2.4-4.4 2.5-6.3.5-7.1-1.9-.7-1.9-2.3 0-4.3 1.3-1.2 1.3-1.8.3-3-1-1.3-1.4-1-2.3 1.8-.6 1.8-1.7 3.5-2.3 3.7-1.6.5-1.5-1.8.2-3.7 1.6-1.9 3.3-8.6 1.9-7.8-.5.4-1-.1-1-.9s.6-1.3 1.2-1c1.3.5 3.5-1.2 3.5-2.7 0-.4-.6-.5-1.2-.1-1 .6-1 .4 0-.8.7-.9.9-1.8.3-2-1.4-.5.9-3 4.7-5.1 3.6-2 4.1-1.4 1.5 1.7-1.8 2-1.8 2 1 .2 1.6-1 3.2-1.5 3.5-1.1.4.3 0 1-.8 1.5-.8.6-1 1-.4 1s1.7-.7 2.4-1.5c.9-1.1.9-1.5.1-1.5s-.7-.7.3-2.2c2.1-2.9 2-3.9-.1-3.1-3.4 1.3.8-2.7 5.1-4.9 2.5-1.3 3.6-1.5 2.9-.7-.9 1.1-.6 1.4 1.7 1.6 1.6.1 3.4-.5 4.1-1.3 1-1.2.9-1.3-.7-.7-3.2 1.2.2-2.3 3.6-3.7 3.2-1.3 4.2-3.3 1.3-2.4-1.5.5-1.5.4-.3-.4.8-.6 1.8-.8 2.2-.6.4.3.8.1.8-.4 0-1.4 5-3.2 9.7-3.5 2.4-.1 4.3-.5 4.3-1 0-.4 1.1-.7 2.5-.7s2.5-.4 2.5-.9c0-1.3 5.7-3.1 9.9-3.1 2.7 0 3.2.3 2.1 1-1.3.8-1.3 1-.1 1 1.1 0 .9.4-.5 1.5-2.3 1.8-1.4 1.9 2.1.3 1.8-.8 2.2-1.4 1.3-2-.9-.5-.7-.8.7-.8 1.7 0 1.7-.2.5-1-1.1-.7-.6-1 2.2-1 2 0 4-.5 4.3-1 .3-.6 2.2-1 4.2-1 3.2 0 3.5.2 3.1 2.4-.6 2.9 1.1 3.6 9.5 3.6 3.2 0 7.1.7 8.7 1.5 1.7.9 5.2 1.4 8.5 1.4 4.5-.1 6 .2 7.6 2 1.1 1.1 2.6 2.1 3.4 2.1s1.9.9 2.5 2c.7 1.4 2.1 2 4.3 2l3.2-.1-3-2.2c-6.3-4.7-7.6-6.2-7-7.9.4-1 1.5-2 2.5-2.3 1.7-.5 3-3 4.5-8.2.5-2 .3-2.1-3-1.3-4 .9-5 0-4.1-3.6.6-2.3 1.9-2.9 6.2-2.5 2.6.2 3.8-3.9 1.9-6.6-2.6-3.8-4.5-12.3-4.8-20.8-.2-5-1-10.7-1.7-12.8-1.1-2.9-1.2-4.2-.3-5.6.6-1 1.4-4.4 1.8-7.7.5-3.2 1.4-6.4 2.1-7.2.8-.7 1.4-2.2 1.4-3.3 0-1.5-.7-1.9-3-1.9-4 0-4.5-1.6-3-9.4 1.1-6.1 1.1-6.5-1.4-10.5-1.5-2.2-3.1-4.1-3.7-4.1-2.3 0-3.9-3-3.9-7.3 0-4.2-.1-4.4-2.5-3.9-1.6.3-2.7 1.3-3.1 2.8-1 3.9-3.4 3-3.3-1.4 0-3.2 1.6-9.2 1.8-6.8.1.5 1.9-1.4 4.2-4.3 2.2-2.8 4.9-5.1 5.9-5.1.9 0 3.6 2.4 5.9 5.3m-480.7 40.8c5.6 1.2 13.6 4.8 16 7.3.8.7 4.2 2.8 7.6 4.5s7.6 4.4 9.4 6c1.8 1.5 4.8 3.6 6.6 4.5 1.7.9 3.2 2 3.2 2.5 0 .4 3.1 3 6.9 5.7 3.7 2.7 8 6.5 9.4 8.5l2.6 3.6-4.6-.8c-4.7-.9-34.7-15-35.8-16.9-.4-.6-3.1-2.2-6-3.4-5.4-2.5-14.9-8.2-22.2-13.6-3-2.1-4.3-3.8-4.3-5.4 0-3.7 2.6-4.3 11.2-2.5m85 .8c2.4 1 8 5.2 12.4 9.3 4.5 4.2 10.6 9.3 13.5 11.5 8.7 6.6 16.7 14.6 17.3 17.5.8 3.6-.3 3.6-7.9-.2-5.4-2.7-10-6.3-24.5-19.1-2.5-2.2-6.4-5.3-8.7-6.9-4.9-3.4-9.8-10.3-8.9-12.5.7-1.9 1.5-1.9 6.8.4M268 189c7.4 1.5 13.7 3.4 27.9 8.1 1.8.6 4.9 2.2 6.9 3.5 1.9 1.3 5.2 2.7 7.4 3 2.3.4 3.8 1.2 3.8 2.1 0 .8 1.2 1.9 2.8 2.4 3.8 1.4 7.5 7.4 6.2 9.9-.9 1.7-1.8 1.9-5.8 1.3-2.6-.3-6.4-1.2-8.6-2-2.1-.7-4.8-1.3-6-1.3-1.1 0-6.1-2-11.1-4.3-4.9-2.4-11.4-5.4-14.2-6.7-2.9-1.3-5.3-2.7-5.3-3.1s-1.3-1.1-2.8-1.7c-4.9-1.7-14-8.1-14.7-10.3-.8-2.4 1.1-4.2 3.5-3.3.8.3 5.3 1.4 10 2.4m-19.3 25.4c2.1.8 7 2.4 10.8 3.5 14.4 4.5 27.2 10.2 30 13.3 2.2 2.4 2.4 3.2 1.4 3.9-3.9 2.5-20.8-.4-32.3-5.5-3.2-1.4-6.2-2.6-6.7-2.6s-4.7-1.9-9.4-4.1c-8.8-4.3-12.6-7.6-10.2-9.1 2-1.3 12.4-.9 16.4.6M31.5 238c9 1 28.1 4.6 29.6 5.5 1.1.8 7.7 1.9 20.9 3.5 4.1.5 9.1 1.4 11 1.9s8 1.7 13.5 2.7c5.5.9 11.7 2.3 13.9 3 2.1.8 5.7 1.4 8 1.4s7.4.9 11.4 2c3.9 1.1 8.2 2 9.4 2 1.3 0 3.2.7 4.2 1.5 1.1.8 3.1 1.5 4.5 1.5l2.6.1-2.5 1.4c-3 1.7-17.1 1.9-27.5.4-3.8-.5-8.7-1.2-10.8-1.4-2-.3-4.6-.9-5.6-1.5-1.1-.5-3.8-1-6-1s-5.5-.6-7.3-1.4c-6.1-2.5-10.4-3.6-14.7-3.6-2.3 0-5.6-.7-7.3-1.6-4.9-2.5-8.7-3.6-15.8-4.4-3.6-.5-10.1-1.3-14.5-1.9s-12-1.6-17-2.2c-5.1-.7-10.4-2-12.1-3-1.7-1.1-4.1-1.9-5.3-1.9-2.8 0-5.9-2.9-4.3-3.9 1.3-.8 10.9-.4 21.7.9m22.3 20.6c23.2 2.6 26.7 3.2 31.7 4.8 2.8.9 8.8 2 13.4 2.3 9.5.6 12.9 1.4 13.3 2.8.2.6-3 1.1-7.7 1.3-4.4.2-8.2.7-8.6 1.3-.3.6-1.4.6-3 0-1.5-.5-3.2-.5-4 0-3.7 2-33 .6-45.3-2.3-4.4-1-4.7-1.2-3.1-2.4s1.6-1.4.2-2.8c-.9-.9-2-1.6-2.6-1.6-1.4 0-4.1-4.1-3.5-5.2.3-.5 1.9-.6 3.5-.3 1.6.4 8.7 1.3 15.7 2.1m234.9 15.5c16.8 4.4 19.7 7.5 6.2 6.5-6.9-.6-11.6-1.6-17.6-3.9-4.6-1.8-8.3-3.5-8.3-4 0-1.5 12.2-.6 19.7 1.4m947.6 22.5c-.3.8 0 1.4.6 1.4 1.7 0 1.3 1.7-.6 2.5-3.7 1.6-21.5 3.6-39.3 4.5-10.2.5-24.3 1.4-31.4 2-7.1.5-17.4 1-22.8 1-8.8 0-9.9-.2-9.6-1.7.4-2.2 4.2-3.2 16.3-4.4 5.5-.5 16.3-1.6 24-2.4 28.5-3.1 39.1-4 52.2-4.1 9.2-.2 11.1.1 10.6 1.2m-619.4 29.9c.5.5.7 8.5.6 17.7-.1 9.1.1 17.2.5 17.8 1 1.7 1.4.5 3.5-12.4.4-2.2 1-3.5 1.5-3s.5 2.6 0 4.9c-.5 2.2-1 5.9-1 8.2s-.4 4.4-.9 4.8c-.6.3-1.3 2.6-1.7 5.1-.7 5-2.2 4.3-2.5-1.1-.1-2.4-.3-2.1-.9 1.5-.5 2.5-1.3 6.4-1.9 8.7-.9 3.4-.8 5.1.5 8.5.9 2.4 1.8 5.3 2.1 6.5.6 2.5 2.8 3.1 3.6 1 .3-.7.9-.2 1.4 1.2 1 2.4 1 2.4 1.8-1l.8-3.4.6 3.6c.4 2 2.1 5.1 3.7 6.8 2.5 2.6 3.5 3.1 5.7 2.6 1.5-.4 2.7-1.3 2.7-2.1s.5-1.4 1-1.4c.6 0 1 .6 1 1.4 0 2.2 5.8 2.5 8.3.4 6.6-5.5 6.7-5.7 6.8-12.7l.2-6.6.7 5.8c1.1 8.6 1.2 8.6 7.4.3.8-1 1.2-2.5.9-3.4-.4-1-.2-1.3.5-.8 1.9 1.1 1.3-4.3-.9-8.9l-1.9-4 .3 3.4c.4 3.1.3 3.2-1 1.5-.7-1-1.9-3.6-2.5-5.7s-2.1-4.6-3.3-5.5c-3.4-2.7-4.5-5.6-4.4-11.4l.2-5.3.6 5.5c.4 3 1.5 6.8 2.6 8.5l2 2.9.3-3.5c.2-2-.4-6.5-1.2-9.9-1.4-6.1-1.2-9 .4-9 .8 0 2 5.8 2 10.5 0 1.6.7 4.1 1.5 5.5 1.4 2.5 1.4 2.5 1.5-1.3 0-2.3-.4-3.6-1-3.2-1.2.7-1.4-8.8-.2-9.9.4-.4 1.2.9 1.9 3.1 1 3.3 1.2 2.1 1.3-10.2 0-9.8.4-13.5 1.1-12.3.6 1.1.6 6.7 0 16.4-1 14.1-.9 14.7 1 16.3 1.2 1 2.3 3.3 2.6 5.8.7 5.1 2.8 7.4 4.6 5 1.5-2 3-1 7.2 4.8 1.7 2.2 3.3 4.2 3.6 4.5 1 .8 2.2 12 2.1 18.3-.1 3.3-.9 6.8-1.7 8s-1.5 3.1-1.5 4.4-.8 2.4-1.9 2.8c-3.4 1-7.1 4.6-7.1 6.7 0 1.9-.4 2-4.2 1.3-2.4-.4-5.3-.7-6.5-.7-1.3 0-2.3-.4-2.3-.9 0-1.4-3.8-1.1-4.7.4-.4.8-1.6 1.6-2.5 2-2.9 1.1-2.7 14.5.3 24.2 1 3.3 1.9 8.8 1.9 12.2 0 5.8.2 6.3 2.5 6.9 1.3.3 3.8.1 5.4-.4 2-.7 4.2-.7 7.2 0 3.7 1 4.4.9 5.6-.8q1.35-1.8 2.1-.9c1 1.6 6 1.7 9 .2 3.4-1.7 7.9-1.5 11.2.2 1.7 1 2.5 1.1 2.8.2.2-.6 1.2-1.1 2.3-1.1 2.4 0 13.1 4.7 14.1 6.3 1.9 3 .6-1.7-1.4-5.3-2.4-4.1-1.8-6.7.7-3.4 2.5 3.1 3.6 6.5 2.9 8.8-.4 1.1-.6 3.7-.6 5.7.1 2.6-.5 4.2-2.3 5.9-2.2 2-2.8 2.2-5.1 1.1-3.1-1.4-6-.7-7.4 1.9-1.3 2.4-6.7 3.1-10.9 1.4-5.1-2.1-8.1-1.8-8.2.8-.1 1.5-.3 1.7-.6.7-.6-2.2-7.3-5.3-8.6-4-1.9 1.9-6.8 1.3-7.4-.9s-2.9-2.7-3.6-.8c-.3 1-.7 1-1.7.1s-2.1-.7-5.1.9c-2.1 1.1-4.3 1.7-4.9 1.3-.5-.3-1.7 0-2.6.7-4.4 3.6-5.4 5-5.5 7.5 0 2.4-.1 2.5-.8.8-.6-1.4-1.1.2-1.6 5.5-.5 5.2-.4 7.5.4 7.8 1.7.6 1.4 6.9-.4 7.6-.8.3-1.5 1.7-1.5 3.1s-.4 2.5-1 2.5c-.5 0-1-1.2-1-2.6 0-3-2.4-5.3-5.6-5.4-1.2 0-2.7-.7-3.4-1.5-1.1-1.3-.8-1.5 1.3-1.5 2.2 0 2.7-.6 3.3-3.6.5-2.6 1-3.4 2.1-2.9 1.3.4 1.5-.6 1.1-6.8-.2-4.9-.8-7.8-1.8-8.8-3.2-3-8-4.9-12.3-4.9-2.5 0-4.8-.4-5.1-.9-.7-1.1-6.4.8-6.9 2.4-.2.5-.2 4.9.1 9.7.3 6.5.8 8.8 1.8 8.8 1.8 0 3.7 3.7 2.4 4.5-.5.3-1 1.9-1 3.5s-.4 3.2-1 3.5c-.5.3-1 2.3-1.1 4.3s-.5 4.8-.9 6.2c-.6 1.5-.7-.3-.3-4.8.4-4.8.2-7.2-.5-7.2s-1.1-3.4-1-9.8c.1-11.9-.3-13.5-5-16.4-3.3-2-4.8-2.2-13.1-2-5.2.1-10.1.8-10.8 1.4-1.8 1.5-7.6.4-11-2.1-4.3-3.2-9-4.3-10.8-2.5-1.3 1.4-1.5 1.4-1.5 0 0-2.5 5.1-12.6 6.4-12.6.7 0 2.7-1.1 4.6-2.5 3.7-2.8 7.5-3.3 8.3-1.1.4 1 2.7 1.4 8.2 1.5 4.9.1 7.4-.3 7-.9-.3-.6.4-1 1.8-1 1.8 0 2.8.8 3.7 3 1.2 3 3.3 3.9 4.5 2 .3-.6 2.6-1 5.1-1 3.9 0 4.6-.3 5.5-2.8 1-2.6 1.1-2.6 2.5-.8.8 1.1 1.4 2.3 1.4 2.7 0 1.4 4.9 1.6 5.4.3.3-.8 1.2-1.4 1.9-1.4 1.4 0 3.4-7.5 3.9-13.9.1-1.4.4.5.8 4.4.5 4.9.7 1.6.8-11.5.1-10.2-.2-19-.6-19.7-.9-1.5-9.1-5-13.4-5.8-2.2-.4-4-.1-5.3.8-1.8 1.4-2.4 1.1-7.6-3.2-7.5-6.1-8.5-8.4-8-19.6.2-5 .4-10.2.5-11.8.1-1.5.4-2.7.8-2.7.3 0 1.8-2.4 3.2-5.3 1.3-2.8 3.2-6.1 4-7.2 1.5-1.9 1.5-1.8 1.6 1.7 0 2.1.2 3.8.5 3.8 1 0 4.7-4.2 6.7-7.8 3.7-6.6 4.4-11.8 4.3-31.2-.1-10.2 0-16.5.3-14 .2 2.4.7 4.9 1.1 5.5m247.9 1.3c2.4 6.8 2.8 9.7 2.1 14.2-.7 4.3.4 11.6 2.2 15.2 1.1 2.2 1.1 3.9.1 5.5-1.2 1.9-10.1-1.8-11.8-4.8-1.1-2.1-1-2.9.8-5.7 1.7-2.8 1.9-3.8.9-5.8-.6-1.4-1.1-3.8-1.1-5.4s-.5-4.1-1.2-5.5c-.9-1.9-.8-3.4.2-6.7.8-2.4 1.8-4.6 2.3-4.9 1.9-1.3 4.3.4 5.5 3.9M93 364.1c5.8.6 27.6 1.2 48.5 1.4s39.9.4 42.3.4c2.3.1 4.2.5 4.2 1.1 0 .5-1 1-2.2 1s-4 .9-6.3 2c-2.2 1.1-5.7 2.1-7.8 2.2-2 .2-3.7.6-3.7.9 0 .4-1.7 1-3.7 1.4-3.3.6-3.5.8-1.7 1.5 1.2.5 5.8 1.2 10.3 1.6 7.8.6 8.1.7 6.3 2.4-2.2 2.1-7.2 2.9-22.2 3.5-11.3.5-21.5 2-23.5 3.5-1.1.8-9 1.6-30.5 2.9-8 .5-17.4 1.2-20.9 1.6-6.4.8-22.7-1-24.5-2.6-.5-.5-.5-1.3.1-2.1.5-.7.8-3.4.5-5.9l-.4-4.7-7.6-.6c-19.8-1.5-35.1-3.2-35.8-3.9-1.5-1.4 3-3.4 10.5-4.7 20.9-3.5 49.9-4.7 68.1-2.9m335.4 17.6c1.9.9 3.3 2 3 2.4-.2.4.5 3.5 1.6 6.8 2.5 7.6 2.5 10-.5 18.6-2 5.6-2.6 6.6-3.1 4.7-.4-1.2-1-2.2-1.4-2.2s-2.8-1.6-5.4-3.6c-4.6-3.5-4.7-3.5-4.5-9.3.1-3.7-.4-6.6-1.4-8.2-3.1-4.9-3-6.5.5-8.7 4.1-2.5 6.8-2.7 11.2-.5m442.3 2.8c2.4 1.6 2.5 2 1.9 8.1-.6 5.7-1 6.7-4.8 10.3-2.3 2.3-4.4 4.1-4.7 4.1-2.2-.1-3.1-2.7-4.1-11.8-1.3-12.3-.8-13.7 5.2-12.9 2.2.3 5 1.3 6.5 2.2m-731.9 29.8c4 1.8 5.1 3.7 5.2 8.8 0 6.1-.8 6.5-19.5 9.4-9.9 1.5-12.5 2.3-12.5 3.6 0 .5-1.8.9-4 .9-2.9 0-4 .4-4 1.5 0 .8.8 1.5 1.8 1.5.9 0 2.8.3 4.2.6 1.9.4 2.1.3 1.1-.4-1.9-1.4.7-2 10.9-2.5 4.1-.3 8.4-.8 9.5-1.1s2.6-.2 3.4.3c1.2.8 1.2 1.2-.2 2.6-1 .9-1.7 2.1-1.7 2.6 0 .6-.5.7-1.1.3-.6-.3-2.4.3-4 1.5-2 1.5-4.3 2.1-7.8 2.1-2.8 0-6 .5-7.3 1-3 1.3-22.9 2.9-24.8 2-.8-.4-4.8-1-8.8-1.3l-7.3-.6-2.9 4.2c-4.6 6.5-4.8 6.7-9 6.7-2.2 0-4 .4-4 .9 0 1.7-10.5 5-19.4 6.1-4.8.6-8.9 1-9.1.8-.1-.2-.7-2.9-1.3-6-.9-4.5-1.9-6.4-4.7-9-7.5-7-1.4-10.3 24-12.8 4.4-.4 9.8-1.3 12-1.9s10.1-1.4 17.5-1.7c11.8-.5 14.8-1 24-4.1 5.8-2 11.2-4.2 12.1-4.9.8-.8 2.3-1.4 3.2-1.4.8 0 2.5-1.2 3.6-2.6 1.2-1.5 2.1-2.2 2.1-1.6s1.4-.3 3-2c1.7-1.6 3-3.7 3-4.5 0-1.3.9-1.4 5-.9 2.8.4 6.3 1.2 7.8 1.9m800 13.4c-2.7.7-2.3 1.5 3.5 6.7 6.5 5.8 7 8 1.7 7.3-4.3-.5-15.4-5.3-17-7.2-.6-.7-.8-2.5-.4-3.9.6-2.5 2.3-3 11.9-3.3 1.6-.1 1.6 0 .3.4m96.7 1.7c3.9.8 10.8 2.2 15.5 3.1 16.6 3.3 33.3 7.6 35.4 9 1.1.8 3.4 1.5 5.1 1.5 1.6 0 3.9.7 4.9 1.5 1.8 1.4.9 1.5-9.1 1.5-6.1 0-14.4-.7-18.6-1.5-4.1-.9-7.8-1.5-8.3-1.3-.5.1-3.4-.5-6.4-1.4-3-.8-8.8-2.1-12.7-2.8-4-.6-7.5-1.6-7.9-2.1-.3-.5-1.8-.9-3.3-.9-4.8 0-13-3-14.6-5.3-1.5-2.2-1.5-2.2 3.7-2.8 5.7-.6 6-.5 16.3 1.5m-813.5 9c2.4 1.4 2.4 1.4-2 2.7-2.5.7-5 1.6-5.5 2-1.6 1.2-17.2 6-24.5 7.5-11.8 2.5-20 1.4-20-2.7 0-1 4.1-3 7.5-3.6 1.1-.1 2.9-.7 4-1.3 1.8-.9 11.6-2.9 24.5-5 7.3-1.2 13.3-1 16 .4m815.5 6.1c5 .9 10.4 2.3 12.2 3.1 1.7.8 3.9 1.4 5 1.4 1.8 0 17 7.3 18.7 9.1.6.6.5.9-.5 1-.7.1-.3.5 1.1.9 2.2.7 2 .8-1.5.9-6.2 0-24.4-2.6-30.5-4.4-3-.9-6.6-1.9-8-2.2-1.4-.2-5.3-1.8-8.7-3.5-4.9-2.5-6.3-3.7-6.3-5.4 0-3.7 2.2-3.8 18.5-.9m-588.4 2.7c.7 1.7 2.3 4.3 3.6 5.8 2 2.4 2.1 3 .9 4.2-1 1-1.2 2.9-.9 6.1.5 3.9.3 4.7-1.1 4.7-.9 0-1.6.4-1.6 1 0 .5-.4 1-.9 1s-.8-1-.6-2.3c1.3-7.9 1-9.2-2.2-9.4-3.6-.2-6.3-3.7-6.3-8.2 0-2.9.5-3.9 2.8-5.2 3.4-2 4.7-1.5 6.3 2.3m-301.6 5.5c-4.9.7-11.8 2.2-15.2 3.3s-7.3 2-8.7 2-2.6.4-2.6 1c0 .5-2.4 1-5.4 1s-5.7.4-6.1.9c-.5.9-4.5.7-10.3-.5-3.3-.7-1.7-2.4 2.3-2.4 1.9 0 3.7-.5 4-1 .3-.6 3-1 6-1s6.4-.4 7.7-.9c2.1-.9 8.5-1.8 25.8-3.9 10.5-1.2 12.6 0 2.5 1.5m834.4-1.6c2 .6 4.7 1.6 6.1 2.1 1.4.6 3.6 1.2 5 1.5 1.4.2 4.3 1.3 6.5 2.3 3.7 1.8 17.1 5.3 36 9.5 4.4 1 9.9 2.6 12.3 3.6 2.4 1.1 5.2 1.9 6.2 1.9s6.5 1.8 12.1 4 11.8 4.2 13.8 4.4 6.8 1.8 10.6 3.5c6.1 2.6 7 3.3 6.7 5.3-.2 1.3-.8 2.4-1.3 2.6s-.9 1-.9 1.8-.9 2.4-1.9 3.5c-2 2.2-3.7 2.1-11.6-.1-1.6-.5-7.3-1.8-12.5-3-10.3-2.4-18-4.7-27.7-8.6-3.4-1.3-7.2-2.4-8.5-2.4s-2.9-.5-3.6-1.2-1.2-.9-1.2-.6c0 .4-7.5-2.3-16.7-5.9-9.3-3.5-20.8-7.5-25.7-8.9-4.8-1.3-10.1-3.3-11.6-4.4-1.6-1.1-3.1-2-3.4-2s-1.5-.8-2.6-1.7c-1.8-1.6-1.9-4.7-.3-7.6.6-1.1 10.2-.8 14.2.4m-476.2 25.8c.7.9 1.5 2.7 1.9 4.1 1.3 5.8 7 16.2 9.6 17.6 1.4.7 3.5 2.4 4.5 3.6 1 1.3 2.4 2.3 3.1 2.4 2.8.2 3.2.5 3.2 2.3 0 1.6 1.9 4.4 8.1 11.9.8 1 1.3.9 2.5-.3 2.2-2.1 3-1.9 5.4 1.5 1.2 1.6 2.8 3 3.7 3 1.3 0 1.4 1 .8 6.2-.8 7.6-2.9 10.3-6.9 9.2-1.5-.3-3-1.3-3.2-2-1.4-4.6-1.4-4.6-2.8-3.5-.8.7-1.9 3.7-2.5 6.9-.6 3.1-1.5 7.5-2.1 9.7-.5 2.2-1.2 5.2-1.5 6.7s-1.2 3.3-2 4.2c-.8.8-1.5 1.9-1.5 2.3 0 .5-1.3 2.5-3 4.3-1.6 1.8-3 3.8-3 4.2 0 .5-.4.7-.9.3-1.4-.8-9.1 10.8-9.1 13.8 0 2.2-5.9 13.3-5.9 11.2-.1-3.4 3.4-14 6-18.5.5-.8 1.4-2.6 2-4s1.8-3.3 2.6-4.2c.9-1 1.3-1.8.8-1.8-.4 0 .2-.8 1.3-1.8 1.1-.9 2.3-2.9 2.6-4.3.5-2.1.2-2.5-1.4-2.4-1.1.1-2.5.6-3.1 1.2s-1.9.9-2.8.5c-1.4-.5-1.4-.4-.1 1.3.9 1.1 1 1.6.3 1.1-.8-.4-1.3-.2-1.3.7 0 .8-.8 1.8-1.7 2.2-2.1.8-7.5-4.9-6.6-7.1.3-.9-.2-1.4-1.6-1.4-2.7 0-2.7-1.6-.1-2.3 1.1-.3 2.3-1.3 2.7-2.3s3.5-4.5 6.9-7.7c3.6-3.3 6.8-7.3 7.4-9.2 1.5-4.5.4-10.2-2.1-10.8-1.3-.4-1.9-1.4-2-3.4 0-2.6-1.7-7.9-1.8-6-.1.8-7-4-8.2-5.6-.7-.9-3.4 4.3-4.4 8.5-.7 2.9-1.9 3.6-3 1.8s-2.9-1-7.5 3c-4.8 4.4-5.6 4.6-8.2 2.6-2.8-2.1-2.1-4.4 2.9-9.7 2.5-2.7 5.4-6.2 6.4-7.7 1.9-3.2 7-7.3 9.7-7.6.9-.2 1.9-1.1 2-2.2.2-1 .8-2.3 1.3-2.8.4-.5-.4-2.5-2-4.5-3.2-4-6.6-13.3-5.8-15.5 1.1-2.9 8.1-2.7 10.4.3m573.5 33c7.2 3.3 21 8 26.8 9.2 3 .6 7.2 2 9.2 3 2.1 1.1 4.6 1.9 5.6 1.9 1.1 0 4.1.8 6.8 1.9 2.7 1 8.3 2.5 12.4 3.4 4.1.8 8.5 1.8 9.8 2.2 1.3.5 2.2.3 2.2-.3s-.9-1.3-1.9-1.7c-2.1-.6-4-3.3-6.1-8.3-1.1-2.9-1.1-3.5.1-4.3 2.9-1.8 7.4-.9 10.9 2.2 1.9 1.7 4.9 3.7 6.7 4.4 3.3 1.4 16.3 13.7 16.3 15.5 0 1.4 6.1 8.1 8.4 9.1 1.2.5 3.5 2 5.2 3.2l4.8 3.2c.9.5 1.8 2.5 2.1 4.2.3 2.7 0 3.4-1.8 3.9-4 .9-14.1-.3-19.5-2.4-2.9-1.1-5.5-2-5.8-2-.6 0-23-10-34.4-15.5-4.7-2.2-9.1-4.1-9.9-4.3-.7-.1-1.8-.7-2.4-1.3s-2.1-1.1-3.3-1.1c-2.9 0-35.6-14.1-40.3-17.4-2.1-1.5-4.1-2.6-4.6-2.6-1.1 0-7.5-6.1-7.5-7.2 0-1.5 5.9-.8 10.2 1.1m-821.8 4c2 2.2 1.3 4.3-2.6 7.6-3 2.6-25.1 13.5-27.2 13.5-.9 0-1.6.4-1.6 1 0 .5-.8 1-1.8 1-.9 0-3.4 1.1-5.4 2.5s-4.4 2.5-5.3 2.5-3.6 1.3-5.9 2.9c-2.4 1.7-5.5 3.3-7 3.7-1.5.3-3 1.3-3.3 2-.3.8-1.6 1.4-2.8 1.4-1.3 0-2.5.4-2.7.9-.3 1-5.5 4-16.8 9.8-4.1 2.1-7.7 4-8 4.3s-1.8 1.2-3.3 2c-1.6.8-4.2 2.9-5.8 4.8-1.7 1.9-4.6 3.8-6.4 4.3-3.3.9-3.9 1.9-5.1 7.1-.1.5-.2.9-.4 1-.1.2-.3 1.3-.4 2.5-.3 2.9-.1 2.7-6.1 4.5-5.6 1.7-13.6 1.7-15.7.1-.7-.6-5.1-1.3-9.8-1.4-5.7-.3-9.1-.9-10.3-1.9-1-.8-2.4-2.1-3.2-2.8-.7-.6-1.8-1.2-2.4-1.2-1.3 0-2.5-4.2-2.5-8.8V574h-6.7c-11.1 0-9.2-2 4.3-4.7 1.6-.3 2.8-.9 2.8-1.3s2.2-1 5-1.4c2.7-.4 5.6-1.3 6.3-2.1.8-.8 4-2.6 7-4.1 3.1-1.4 6.1-3.2 6.8-4 .6-.8 1.6-1.4 2.1-1.4s1.8-.9 3-2 3-2 3.9-2c1 0 2.4-.7 3.2-1.5 1.7-1.6 5.4-1.9 15-.9 5.3.5 7.1.4 8.5-.8.9-.9 3.3-1.8 5.2-2.1 5.6-.9 9.3-1.8 12-2.9 5.4-2.3 6.6-2.7 10-3.3 1.9-.4 4.4-1.3 5.5-1.9 1.1-.7 3.4-1.6 5-2 1.7-.4 4.4-1.3 6-2 1.7-.7 5.5-2.3 8.5-3.6 3-1.2 7.8-3.3 10.5-4.5 2.8-1.2 6.8-2.8 9-3.5s6.3-2.3 9-3.5c2.8-1.2 6.7-2.5 8.8-2.9s4.1-1.4 4.4-2.2c.8-2 4.7-1.7 6.7.5m594.7 21.6c4.6 4.1 8.7 7.5 9.1 7.5s2.1 2 3.8 4.5 2.8 4.5 2.4 4.5.6 1 2 2.1c2.1 1.7 2.5 2.4 1.4 3-1.9 1.2-2.5 1.1-4.5-1-1-1-4-3.5-6.8-5.6-7.3-5.5-19.5-17.2-19.5-18.8 0-1.4 1.9-3.7 3.1-3.7.3 0 4.4 3.4 9 7.5m89.6-5.4c9.4 4.2 20.3 10.6 20.3 11.8 0 .3 3 2.2 6.7 4.1 6.4 3.3 7.9 4.2 10.6 6.5 3.9 3.3 14.5 10.9 16.5 11.8 1.2.6 2.2 1.3 2.2 1.7s1.3 1.3 2.8 1.9c1.6.7 3.6 2.4 4.5 4 1.4 2.3 1.4 3.3.5 5.9-2.5 6.6-8.4 4.7-20.8-6.5-2.9-2.7-7.2-5.9-9.5-7.3-7.1-4.2-21.9-14.2-23-15.5-.6-.7-3.9-2.7-7.4-4.4-16.1-8.2-19.2-21-3.4-14m-549.4 11c-5.6 5.8-5.9 6.1-13.8 13.3-4.7 4.3-7.1 5.7-10.5 6.2l-4.3.7 3.4-4.4c1.9-2.4 3.8-4.6 4.3-4.8s1.7-1.2 2.7-2.2 3.5-2.7 5.6-3.8 5.2-3.3 7-5c3.9-3.7 9.7-7.1 10.1-5.9.2.4-1.8 3.1-4.5 5.9m95.7 7.4c0 1.4-1.1 4.8-2.5 7.5-2.7 5.3-3 7.7-1.9 12.3.6 2.5.1 3.5-3.9 7.3-2.6 2.4-5.1 4.4-5.6 4.4-.6 0-1.3 1.1-1.7 2.5-.5 2.1-.9 2.3-2 1.4-1.7-1.4-8.9 1.9-12.5 5.7-1.2 1.3-3 2.4-3.8 2.4-.9 0-3.4 1.4-5.5 3-2.2 1.7-4.4 3-4.9 3-1.8 0-7.8 5.1-7.2 6.1.3.5-.1.6-.9.3s-2.8.3-4.3 1.4c-1.5 1-5 2.2-7.7 2.6-2.7.3-5.7 1.3-6.6 2.1-2.3 2.1-3 1.9-3-1 0-1.5.8-2.9 2.2-3.6 1.3-.7 3.1-2.3 4.1-3.6 1-1.2 2.9-2.3 4.1-2.3 1.3 0 3.1-.9 4.1-2s2.2-2 2.8-2c.5 0 2.1-.8 3.5-1.8 1.5-1.1 4.2-2.4 6-3 4.8-1.6 9-4.9 11.6-9.1 1.3-2 3.2-4.5 4.3-5.6 6-6.3 15.3-17.6 15.3-18.5 0-1.4 5.2-8 6.3-8 .4 0 1.7-.9 2.9-2s3.2-2 4.5-2c1.8 0 2.3.6 2.3 2.5m316.9 3.1c.5.5 1.2 2.6 1.5 4.6.7 3.9.8 3.8-5.6 5.2-1.5.3-3.4 1.3-4.3 2.2-1.5 1.5-1.7 1.5-3.5-.1-2.4-2.2-2.5-4.3-.4-7.4 3.3-4.7 9.9-7.1 12.3-4.5m-528.4 5.5c.4.6.4 2.5.1 4.2-.5 2.4-1.9 4.1-5.7 6.7-2.9 1.9-6.3 4.5-7.8 5.7-1.4 1.3-3.1 2.3-3.7 2.3s-3 1.5-5.4 3.2c-5.5 4.2-12.2 8.3-18.5 11.3-2.8 1.3-6.8 4-8.9 6-2.1 1.9-4.2 3.5-4.7 3.5-.4 0-4.3 2.1-8.6 4.7-4.3 2.7-9.1 5.5-10.8 6.2-1.6.8-4.6 2.9-6.5 4.7-1.9 1.7-7.1 5.3-11.5 8-4.4 2.6-8.9 5.7-10.1 6.9s-3.9 3.3-6.1 4.5c-2.1 1.3-4.7 3.1-5.8 4-1.1 1-7.3 4.5-13.8 7.9-9.3 4.8-12.9 6.1-16.3 6.1-2.4 0-4.4-.4-4.4-.8 0-.5-1.8-1.7-4-2.7s-4-2.2-4-2.7-1.1-1.3-2.4-1.9c-2.3-1.1-2.3-1.2-.8-4 .9-1.5 2.7-3.2 3.9-3.8 3-1.4 7.3-5.2 7.3-6.6 0-2.1 6.8-6.5 10.2-6.5 1.7 0 1.9-.3.9-.9-.7-.5-.9-1.1-.5-1.4.5-.2 4.5-2.4 8.9-4.7s8.7-4.8 9.6-5.6c.8-.8 3.1-1.7 5-2s6.8-2.4 11.1-4.5c4.2-2.1 8.1-3.9 8.8-3.9.6 0 2.3-.9 3.7-2s3.3-2 4.2-2 3.9-1.5 6.6-3.3c2.8-1.7 6.4-3.9 8-4.7 1.7-.8 3.2-1.8 3.5-2.1.9-1.1 8.9-4.9 10.4-4.9.8 0 1.6-.4 1.8-.8s3.2-2.3 6.8-4.1c3.6-1.9 7.6-4.2 8.9-5.2 1.3-1.1 3-1.9 3.7-1.9 1.6 0 9.8-4.5 14.1-7.7 6.6-5.1 20.9-8.3 22.8-5.2m844.7 21.9c45.2 22.8 59.9 29.9 62.4 30.4 1.1.3 4.6 1.7 7.9 3.4 3.3 1.6 7.5 3.2 9.3 3.5 1.8.4 4.8 1.8 6.6 3.2s3.6 2.5 4 2.5 2.1 1.3 3.9 3c1.8 1.6 3.7 3 4.3 3s1.7.6 2.3 1.4c.7.8 4.3 3.3 8.2 5.6 3.8 2.2 6.9 4.5 6.9 5 0 .6 1.8 2.1 4 3.5 3.8 2.4 5.4 5.4 2.8 5.1-2.9-.3-11.8 1.5-11.8 2.4 0 1.5-7.4 1.2-10.6-.5-1.6-.8-3.7-1.5-4.6-1.5-2.6 0-16.8-6.7-16.8-7.9 0-.6-.8-1.1-1.7-1.1-1 0-3.1-.8-4.8-1.8-1.6-1-7-4-12-6.7-4.9-2.7-11.5-6.5-14.5-8.6-5.3-3.7-17.5-11.1-25.1-15.4-4.8-2.7-9.4-5.5-13.3-8.2-5-3.5-25.2-15.3-26.2-15.3-1.4-.1-6.4-4.8-6.4-6 0-.6.7-2.5 1.6-4.2 1.4-2.8 1.9-3 5.4-2.5 2.2.3 10.3 3.7 18.2 7.7m-785.8-4.1c.6 1-10.7 11.3-17.6 15.9-2.7 1.8-5.1 3.9-5.4 4.7-.3.7-1.6 1.6-2.9 1.9s-3.2 2-4.2 3.6c-.9 1.7-2.5 3.3-3.5 3.6s-3.8 2.2-6.1 4.2c-8.8 7.6-12.8 10.7-18.5 14.3-5.5 3.5-6.1 3.7-8.1 2.3-1.1-.8-2.1-2.1-2.1-2.9 0-2.8 33.2-30.5 36.6-30.5.4 0 3-2 5.8-4.3 2.8-2.4 6.5-5.2 8.1-6.2 1.7-1 3.9-2.7 5.1-3.7 1.7-1.5 5.6-2.7 11.6-3.7.4-.1.9.3 1.2.8M280 585.6c.9 2.2.6 3.2-1.5 6-1.4 1.9-3.1 3.4-3.8 3.4-.6 0-2.1 1.1-3.2 2.4-1.1 1.2-3.6 3.1-5.5 4.1s-5.4 3.3-7.7 5.1c-2.3 1.9-4.4 3.4-4.8 3.4-.3 0-1.6 1.1-2.9 2.5s-2.7 2.5-3.2 2.5c-1.1 0-10.2 4.8-11.8 6.2-2.1 1.7-12.1 7.8-13.8 8.4-1 .3-1.8 1-1.8 1.5s-.9.9-2 .9-2 .4-2 .9-.8 1.2-1.7 1.5c-1 .3-3 1.7-4.4 3s-5.9 4.2-10 6.3c-12.6 6.7-15.1 8.5-16.1 11.4-.5 1.6-3.4 0-4.8-2.6-.8-1.4-1-3.7-.6-5.9.5-2.8 1.3-3.7 4.1-4.6 1.9-.6 3.5-1.5 3.5-1.9 0-.7 8.5-7.3 13.3-10.4 1.5-.9 3.6-1.7 4.7-1.7s2-.5 2-1c0-.6.6-1 1.2-1 2.1 0 13.6-6 16.3-8.6 1.4-1.3 3-2.4 3.6-2.4.5 0 1.2-.7 1.5-1.5.4-.8 1.2-1.5 1.9-1.5s1.8-.7 2.5-1.5 2.5-2.1 4.1-3c1.6-.8 4.2-2.2 5.8-3 1.6-.9 3.4-2.2 4.1-3s1.8-1.5 2.5-1.5 2.7-1.3 4.4-2.9c1.7-1.5 4.5-3.6 6.4-4.4 1.8-.9 4.6-2.8 6.3-4.4 2.7-2.5 8.3-5.2 11.2-5.3.7 0 1.7 1.2 2.2 2.6m749 44.9c1.3 1.4 2.8 2.5 3.3 2.5.6 0 2.9 1.6 5.3 3.5 2.3 1.9 4.7 3.5 5.2 3.5s1.7.9 2.7 2 2.3 2 2.8 2 3.1 1.9 5.6 4.2c2.6 2.4 6.4 5.6 8.5 7.3 2.1 1.6 5.3 4.2 7 5.6 1.7 1.5 4 2.9 5.2 3.3 1.2.3 2.5 1.5 3 2.5 1.1 2.2 13 12.8 16.2 14.3 1.9 1 3.2 3.8 1.7 3.8-1.4 0-7.9-3.2-10.3-5-4.4-3.4-11.6-8-12.7-8-.5 0-2.9-1.8-5.3-4s-4.7-4-5.2-4-1.4-.9-2-2-1.6-2-2.1-2c-1.7 0-17.7-14.9-18.4-17-.3-1-1.8-2.1-3.3-2.5-4.1-.9-12.7-8.8-11.9-10.8.9-2.3 1.9-2.1 4.7.8m-215.5 12c7.9 9.4 8.9 11.5 5.2 11.5-1.8 0-2.8.8-3.7 2.9-1 2.4-.9 3.5.8 6.7 1.1 2.2 2.3 6.8 2.7 10.4.4 3.5 1.2 7.2 1.8 8.2 1.8 2.7 0 3.3-2.2.7-1.2-1.5-2-4.5-2.3-8.9-.3-3.7-1.6-9-3.1-12.5-1.4-3.3-2.8-8.7-3.2-12s-1.6-8.1-2.6-10.8c-1-2.6-1.5-4.7-1.1-4.6.4 0 3.9 3.8 7.7 8.4m52.7 15.2c1 .9 1.8 2 1.8 2.4 0 .5 2.7 6.5 6.1 13.3 3.5 7.3 5.9 13.4 5.7 14.8-.3 2-.8 1.6-3.9-3.2-5.1-7.9-12.9-22.4-13.9-26-.7-2.4-.6-3 .7-3 .9 0 2.5.7 3.5 1.7m340.2 25c2.8 8.2 4.6 11.5 4.6 8.2 0-.7 1.4-5 3.2-9.5 2.4-6.5 3.6-8.4 5-8.4 2.2 0 2.4-.8-3.2 15-2.9 8.2-4.1 10.6-5.7 10.8-1.2.2-2.3-.4-2.8-1.5-1.2-3-8.5-23.7-8.5-24.1 0-.2 1-.2 2.2 0 1.7.2 2.7 2 5.2 9.5m28.2-1.9c1.8 1.3 4.4 5.6 4.4 7.4 0 1.6-1 1.8-6.8 1.8-3.8 0-7.2.3-7.5.7-1.1 1 3.4 5.3 5.6 5.3 1.1 0 2.8-.7 3.6-1.4 1.2-1.1 2.1-1.2 3.1-.5 2.4 1.5-2.4 4.9-6.9 4.9-4.1 0-5.1-.5-7.4-4-4.2-6.1.3-15 7.5-15 1.8 0 3.8.4 4.4.8m22.8.7c3 2 5 6.7 4.2 9.8-.3 1.3-1.5 3.6-2.7 5-2.9 3.7-9.9 3.8-13.4.2-3.7-3.6-3.5-10.5.2-14 3.2-2.9 8.1-3.3 11.7-1m-975 1c-.4.8-1.1 1.5-1.6 1.5s-8.6 7.6-17.9 17c-9.4 9.4-17.4 17-17.9 17-2 0-.8-1.8 5-8 3.2-3.5 6.1-6.9 6.2-7.6.5-1.8 5.9-8.3 12.6-15.1 5.6-5.6 6.8-6.3 10.2-6.3 3.1 0 3.8.3 3.4 1.5"/><path d="M751.6 237.3c-.9.7-1.6 1.9-1.4 2.7.2 1-1.1 1.7-4.2 2.3-8.1 1.5-11.9 3-14.1 5.3-2.3 2.5-2.1 2.7 2.6 3.7 1.5.4 1.4.5-.6.6-2.7.1-6.4 3.1-3.9 3.1.8 0 1 .9.6 2.6l-.7 2.7 6.3-.5c3.5-.3 7.2-.2 8.3.2 1.3.6-.9.9-6.3.9-5.3.1-8.1.5-7.7 1.1.3.5 2.7 1 5.2 1 4.7 0 14.9 2.3 19 4.2 1.2.6 2.9.8 3.8.4 1.1-.4 2.1.3 3.3 2.4 1.1 1.9 2.5 3 4 3 1.3 0 2.2.6 2.2 1.5 0 .8-.4 1.5-1 1.5-.5 0-1 .5-1 1.1 0 .7 1.6.8 4.7.3 4.1-.6 4.5-.5 4 1-.4 1-.7 2-.7 2.2s-.6.4-1.4.4-1.8.5-2.2 1.2c-.5.8.4.9 3.2.5 4.5-.7 8.1.7 5 1.9-1.8.7-1.8.8-.2 2 1 .7 1.6 1.6 1.4 2-.2.5.6 1 1.7 1.2 3.3.6 4.2 2.2 1.7 2.8-3.3.9-2.7 2 2.1 3.3 2.3.7 4.7 1.4 5.3 1.7.7.3.9-.9.4-3.8-.5-3.4-1.6-5.3-5.3-8.8-5-4.8-5.6-6-3.2-6 2 0 1.9-1.6-.1-2.4-1.5-.6-1.4-.9.6-3.1 1.7-1.8 2-2.8 1.3-3.7-.6-.7-1.3-2.9-1.6-4.8-1.3-8.1-3.7-15.4-5.5-16.2-.4-.2-1.4-1.7-2.2-3.3-1-1.9-2.5-3.1-4-3.3-3.4-.4-8-2.2-11.2-4.4-3.1-2.1-5.7-2.3-8.2-.5M640.6 423.7c-.4.4-2.4.7-4.4.8h-3.7l-1.2 8.5c-.6 4.8-.9 12.8-.6 18.3.6 9.4.7 9.8 2.7 9.3 1.2-.3 2.4-.6 2.8-.6s1-2.8 1.5-6.3l.7-6.2.7 6.8c.6 7.5 1.7 8.9 6.4 8.5 2.2-.2 3.4-1.1 4.4-3.2 1.2-2.6 1.2-4.1-.3-11.6-1-4.7-1.7-10.1-1.5-12s-.2-4.4-.9-5.5c-.9-1.7-1.1-1-1.2 4.4 0 3.5-.2 6.2-.4 6s-.9-4-1.5-8.4c-1.1-7.9-2-10.2-3.5-8.8"/></svg>