<svg xmlns="http://www.w3.org/2000/svg" width="1706.667" height="960" viewBox="0 0 1280 720"><path d="M0 1.5c0 .9 1.2 2 2.7 2.6 5 1.9 9.7 4 20.1 9C28.4 15.8 33.9 18 35 18c2.7 0 21.3 8.7 31.5 14.7 2.8 1.6 6.6 3.5 8.5 4.1 4.1 1.5 16 9.1 16 10.3 0 .5 1.5 2.2 3.4 4 1.9 1.7 3.7 4.1 4 5.4.4 1.5 2.5 3.4 5.9 5.3 9.5 5.3 17.6 10 22.9 13.5 8.9 5.7 18.1 11.3 23.3 14.1 2.8 1.5 9.3 5.2 14.5 8.1 22.6 12.6 44.3 22.4 49.8 22.5 2.7 0 9.3 3.2 11.1 5.4.8.9 2.4 1.6 3.7 1.6s2.4.6 2.4 1.2c0 .7 1.4 2.9 3.1 4.8 4.1 4.7 7 10.8 5.5 11.4-.6.2-.3.5.7.5 2.3.1 4.7 2.4 4.7 4.5 0 2.9-2 2.7-3.8-.3-.9-1.7-2.5-3.1-3.5-3.1-2.1 0-5.9-1.8-6.8-3.3-.4-.5-1.8-1.1-3.2-1.2-1.5-.2-4.1-1-5.8-1.9-1.8-.9-3.8-1.6-4.6-1.6s-7.1-4.3-14.1-9.5c-10.1-7.5-17-11.6-33.7-19.9-32.1-16-31.8-15.9-46.2-16.2-13.6-.4-15.3-.9-34.2-10.4-5.5-2.8-10.3-5-10.6-5-3 0-53.7-24-57-27-1.1-1-3.5-2.5-5.3-3.4-1.8-1-4.1-2.5-5.2-3.6-1.5-1.5-10.2-6-11.6-6-.2 0-.4 4.9-.4 10.9 0 10.5.1 11 2.2 11.6 1.3.4 4.3 1.9 6.8 3.4C14.7 66.3 44.5 80 46.3 80c3.4 0 5.2 7.1 2.5 9.8-.9.9-.7 1.7 1 3.5 6.9 7.4-2.6 6.2-22.5-2.7-5.7-2.5-11.1-5-12-5.5-1-.5-3.8-1.7-6.3-2.7S3.8 80 2.9 79.3C2.1 78.6 1 78 .7 78 .3 78 0 86 0 95.8v17.9l7 2.7c3.9 1.6 9 3.9 11.3 5.2s5.9 3.2 8 4.1c2 .9 3.7 2 3.7 2.4s1.7 1.1 3.8 1.5c2 .4 4.6 1.3 5.7 2s3.8 1.6 6 2c6.6 1 14.5 6 14.5 9.1 0 2.2-6.8 1.5-12.2-1.2-2.7-1.4-6-2.5-7.2-2.5s-3.1-.7-4.2-1.5c-1-.8-2.8-1.5-3.9-1.5-1.8 0-7.9-2.2-16-5.6-1.6-.7-6-2.4-9.7-3.8L0 124.1V208l2.8.5c3.2.7 10.1 2.6 19.7 5.4 3.9 1.1 9.1 2.5 11.6 3 5.9 1.3 24.9 8.1 24.9 9 0 .3-.4 1.2-.9 2-1.1 1.7-11 .9-19.9-1.5-3.2-.9-7.3-2-9.2-2.4-11.4-2.6-17.7-4.3-19.2-5.1-.9-.5-3.5-1.2-5.8-1.5l-4-.7V234h2.8c1.5 0 4.3.5 6.2 1.1s7.8 2.1 13 3.4c5.2 1.2 12.4 3 16 4 6.4 1.7 11.5 4.3 10.5 5.3-.2.3.2 1 1.1 1.6 1.4 1 1.3 1.4-.3 2.9-1.5 1.3-4.1 1.7-13.5 1.8-9.7.1-12.9-.3-19.9-2.4-4.6-1.4-10.1-2.8-12.2-3.1-3.5-.4-3.7-.3-3.7 2.4 0 3.3.9 3.8 9.8 4.5 8.5.8 19 3.2 22 5.1 2.5 1.6 2.9 5.9.8 8.6-1.6 2.2-6.2 2.3-17.1.3-4.4-.8-9.7-1.7-11.7-2.1l-3.8-.7v76.1l3 .7c3.8.8 3.8 1.9 0 3.5-2.3 1-3 1.9-3 4 0 2.7.3 2.8 5.3 3.3 2.8.2 7.5 1.1 10.2 1.9l5 1.5-7.7.8c-4.3.4-8.9.5-10.3.3-2.4-.5-2.5-.3-2.5 4.7 0 3 .5 5.7 1.3 6.3 1.9 1.6 16.5 2.4 23.9 1.3 8.2-1.2 19.5.2 25 3 4.1 2.1 4.3 3 3.8 12.9-.3 6.5-2.1 8.1-8.4 7.4-3.7-.4-6.6-.1-10.6 1.4C26 399 8.6 403 3.4 403H0v43.9l3.7-.5c2.1-.3 5.1-1 6.7-1.5s3.8-.9 4.9-.9 5.3-1 9.3-2.2c7.8-2.4 9-3.7 8.5-9.1-.1-1.5.2-2.7.8-2.7s1.1-.6 1.1-1.4c0-.7.7-2.7 1.5-4.2.8-1.6 1.5-4.1 1.5-5.5 0-2.3-.5-2.8-3.6-3.4-3.8-.7-13 .1-17.9 1.5-3.4 1.1-7.7 2-12 2.7-2.5.4-2.1-.1 2.4-2.6 3.8-2.2 6.8-3.1 10-3.1 2.5-.1 8.6-.8 13.6-1.6 14.8-2.6 16.2-2.7 17-1.4.4.6 0 1.7-1 2.3-2.6 2-.9 4.5 3.3 4.9 2.9.2 4 .9 5.2 3.3 2.3 4.6 4 5.4 11 5.5 5.4 0 6.7.3 7.7 2 .8 1.2.9 2.1.2 2.5-.5.4-.7 1.5-.4 2.4.8 2.5-2.2 4.8-7.5 5.6-2.4.4-5.1 1.1-6 1.6-1.9 1-6.7 2.1-10 2.4-1.4.1-3.2.5-4 .8s-3.4 1.1-5.8 1.7c-2.3.6-4.2 1.4-4.2 1.8 0 .5-4.4 1.3-9.8 2-5.3.6-11 1.4-12.7 1.7-9.8 1.9-13.5 3-13.5 4 0 .9 4 1.1 15.5.7 13.9-.4 15.5-.3 14.9 1.1-.8 2.1-4.8 4.7-7.3 4.7-1 0-3.2.7-4.7 1.5-1.6.8-4.1 1.5-5.6 1.5-3.7 0-3.6 1.7.2 2.5 1.6.4 3 1 3 1.4 0 1.3-3.6 4.2-4.3 3.5-1.3-1.3-1.9 2.6-.7 4.1 1 1.3.8 1.5-1.4 1.5-1.4 0-2.6.4-2.6 1 0 .5-1.6 1-3.5 1H0v122.8l3.8-1.9c9.6-4.9 20.2-8.1 32.7-9.9 13.7-1.9 16.2-2.6 18.3-4.7.7-.7 2-1.3 2.8-1.3s1.4-.5 1.4-1c0-.6 1.1-1.5 2.5-2s2.8-1.7 3.1-2.5c.8-1.9 3-1.9 3.8 0 .3.8 1.4 1.5 2.3 1.5 1 0 2.6.9 3.6 2 1.8 2.2 1.6 2.2 13.3-.5 3.8-.9 7.4-1.5 8-1.4 1 .2 3.6-.6 7.9-2.7 1.7-.7 5-2.1 7.4-2.9s4.9-1.9 5.5-2.3 4.3-1.9 8.3-3.2c7.7-2.6 9.4-2.2 11.4 2.5.5 1.1 1.4 2.7 2.1 3.6 2 2.8.1 4.7-6.7 6.8-7.5 2.3-13.3 4.8-15.5 6.7-.8.7-4.1 2-7.2 2.9s-6.8 2.5-8.1 3.6c-1.4 1-3 1.9-3.6 1.9s-1.1.4-1.1 1c0 .5-.6 1-1.4 1s-1.6.6-1.9 1.4c-.7 1.6-11.6 7.8-12.8 7.1-.4-.3-2.4 1.1-4.5 3-2 1.9-4 3.5-4.3 3.5-.4 0-2.1 1.8-3.7 4-3.7 4.8-3.7 9.5 0 8.4 2-.6 2-.6.3 1.3-.9 1.1-2.3 2-3 2.1-4.7.5-12.3 2.8-13 3.9-.4.7-2 1.3-3.5 1.2-1.5 0-3.7.2-4.9.6-1.4.5-2.3.3-2.3-.3 0-1.5 2.9-4.2 4.6-4.2.8 0 1.7-.6 2-1.4.5-1.2 1.1-1.3 3-.4 2 1 2.7.8 3.8-.8 1-1.3 1.1-2.3.4-3.2-.8-.9-1.8-.8-4.4.9-2.7 1.6-4.3 1.9-7.4 1.4-2.9-.5-4.7-.2-6.3.8-1.3.8-5 2-8.2 2.7-5.9 1.2-21.5 8.4-21.5 9.9 0 .4-1.6 1.6-3.5 2.7L0 646.5v31.2c0 17.2.3 31.3.7 31.3 1.1 0 9.5-5 14.8-8.9 5.3-3.8 7.2-5.1 11.9-7.9 1.6-.9 5.5-3.7 8.8-6.2 7.9-5.9 13.7-9.7 17.1-11.1 1.5-.6 2.7-1.5 2.7-2s.8-.9 1.9-.9c2.4 0 8.8-2.6 9.6-4 .3-.5 3.2-2.2 6.3-3.8 3.2-1.5 7.3-4 9.3-5.5s4.1-2.7 4.8-2.7 3.1-.9 5.4-2.1c4.6-2.2 15.9-6 19.3-6.4 1.2-.1 3.7-1.4 5.6-2.8 5.4-4.1 17.9-10.7 20.3-10.7 5 0 11.3 12.7 7 14.4-.8.3-1.5 1.2-1.5 2.1 0 .8-.9 1.5-1.9 1.5-1.1 0-2.3.9-2.6 2-.4 1.3-1.5 2-3 2-1.3 0-2.7.5-3.1 1.1-.8 1.3-9 4.9-11.3 4.9-1.7 0-10.1 7.8-10.1 9.4 0 .9-4.1 4.5-5.2 4.6-.4 0-2.9 2.3-5.5 5.1s-4.9 4.6-5.1 4c-.6-1.9-2.2-.1-2.2 2.4 0 1.3-.3 2.5-.7 2.7-.7.3-7.3 12.4-7.3 13.4 0 .2 1.6.4 3.5.4s3.5-.5 3.5-1c0-.6.6-1 1.4-1s1.6-.4 1.8-.9c.3-1.1 12.8-8 25.8-14.2 8.6-4.2 20-11.6 20-12.9 0-.5 1.8-1.8 4.1-2.9 2.2-1.2 6.5-4 9.6-6.2 3-2.3 9.6-6.9 14.7-10.3 14.5-9.8 19.5-11.5 21.6-7.7 1.3 2.4 1.3 6.4.1 5.6-.5-.3-1.7.5-2.5 1.7-1.4 1.9-4.7 4.5-13.6 10.6-1.4.9-2.7 1.9-3 2.2-.7.7-4.2 2.9-6 3.7-.8.4-2.4 1.5-3.4 2.5-1.1 1-3.9 2.7-6.3 3.9-2.4 1.1-4.3 2.5-4.3 3s-.6.9-1.4.9-2.1.6-2.8 1.2c-.7.7-2.9 2.2-4.8 3.2-1.9 1.1-3.9 2.4-4.5 2.8-.5.4-4.1 3.3-7.9 6.3s-7.1 5.5-7.5 5.5c-.3 0-3.7 2.9-7.6 6.5-3.8 3.6-7.2 6.5-7.6 6.5-.7 0-6.9 5.8-6.9 6.5 0 .3 28 .5 62.3.5h62.3l3-3.7c5-6.3 9.8-11.3 10.9-11.3.6 0 1.7-.8 2.6-1.7.8-1 4.6-4.5 8.3-7.8s9.7-8.6 13.2-11.9c3.5-3.2 7.6-6.8 9.2-8 1.5-1.1 3.7-3 4.8-4.1 3.6-3.5 8.4-7.5 9-7.5.4 0 2.8-2.2 5.4-5 3.9-4.1 5.4-5 8.3-5 4.8 0 5.9 1.6 3.9 6.2-.9 2.1-2.1 3.8-2.7 3.8-.5.1-3 2.6-5.5 5.5-2.4 3-4.8 5.5-5.3 5.5-.4 0-4.4 3.5-8.7 7.7-4.3 4.3-10.6 10.3-13.9 13.3-3.4 3-8.5 7.7-11.4 10.3-2.8 2.7-7.1 6.5-9.4 8.5-2.4 2-4.3 4-4.3 4.4 0 .5 20.7.8 46 .8 39 0 46-.2 46-1.4 0-.8 2.3-2.5 5-3.7 2.8-1.2 5-2.5 5-2.8 0-.4 1.5-1.2 3.3-1.9 7.9-3.2 12.7-5.6 12.7-6.3 0-.4 1.7-1.4 3.8-2.3 2-.9 5.4-2.7 7.6-4 5.9-3.7 19.5-17.6 22.2-22.9 1.4-2.6 3.1-5 3.9-5.4.8-.3 1.5-1.4 1.5-2.4 0-1.1.7-2.2 1.5-2.5s1.7-1.5 2-2.5c.4-1.1 1.7-3.1 3.1-4.4 1.3-1.3 2.4-2.9 2.4-3.5 0-1.3 5-6.9 7.3-8.2 2.2-1.1 4.7.6 4.7 3.3 0 1.6-3.8 8.7-8.2 15.1-3.5 5.3-1.6 9.8 4.2 9.8 2.6 0 2.2 2.1-.6 3.4-1 .5-3.1 2.5-4.6 4.5s-3.8 4.8-5 6.4c-1.9 2.4-2.1 3.1-1.1 5.8 1.6 4.2.1 8.2-2.9 7.7-2.9-.4-3.4-3-1.2-5.3 1.5-1.4 1.5-1.8.3-2.6-2.1-1.3-4-1.1-5.9.6-.9.8-2.5 1.6-3.6 1.8-3.4.6-8.8 3.9-12.7 7.8-2.1 2.1-5.8 4.5-8.3 5.5-2.4.9-4.4 2.1-4.4 2.5 0 .5-1.5 1.5-3.4 2.3s-4.4 2.4-5.5 3.5L357 720h90.8l.7-2.9c.7-3.1 3.8-7.4 4.7-6.5.6.5-1.1 6-2.5 8.2-.7 1 23.8 1.2 122.5 1l123.3-.3v-9c-.1-5-.5-14.6-.9-21.5s-.5-12.2-.2-11.9 1.2 7.9 2 17c.8 9 2 18.5 2.6 21.1l1.2 4.7H751c39.3.1 49.9-.1 50.4-1.1s.7-1 1.2-.1c.3.7 1.9 1.3 3.6 1.3 2.8 0 3-.2 2.3-2.8-.4-1.5-.9-3.7-1-5-.2-1.3-.8-2.8-1.3-3.5-.6-.7-1.1-3-1.3-5.2-.1-2.2-.8-5.1-1.5-6.5-.6-1.4-1.5-4.5-1.9-7s-1.2-5.6-1.8-7c-.5-1.4-1.1-3-1.1-3.5-.2-2.2-3.9-10.5-4.7-10.5-.4 0-.7 2.7-.6 6.1.2 6.8-.7 8.4-2.5 4.2-.7-1.5-2-4-3-5.5s-2.2-5.7-2.7-9.3c-.4-3.9-1.4-7-2.2-7.6-2.2-1.4-4.7-1.1-6.1.9-.7.9-3.9 3.4-7 5.6l-5.8 3.8v7.4c0 4.1-.3 7.4-.7 7.4-1.9 0-6.3-6.8-6.9-10.7-1-6.8 1-19.1 3.2-20 .8-.3 1.4-1.5 1.4-2.7 0-1.3.3-2.6.7-3 .5-.4.8-2.6.8-4.9v-4.1l5.1.3c4.6.2 5.3 0 6.9-2.6 1-1.5 2.7-3.5 3.8-4.3 1.4-1.2 1.9-3 2-7.5l.2-6h4.1c3.3 0 4.6-.6 6.7-3 1.4-1.7 2.7-3.3 2.7-3.6 0-.4.9-.9 2-1.2 2.4-.6 2.5-2.9.5-8.7-.8-2.3-1.5-5.2-1.4-6.4.1-2 .1-1.9 1.2.4 3.3 6.9 6.3 9 6.9 4.7.2-1.4 1.6-2.9 4.1-4 2-1 3.7-2.3 3.7-2.9 0-.5.6-1.6 1.3-2.3 3.8-4.4 4.1-4.9 2.9-5.3-1.4-.4-1.6-8.2-.2-8.2.6 0 1-1.1 1-2.5 0-1.9.5-2.5 2.1-2.5 1.4 0 2.6-1.3 4-4.4 1-2.4 2.6-4.6 3.4-5 .8-.3 1.5-1.5 1.5-2.6s.4-2 .9-2 1.8-1.6 3-3.5c1.1-1.9 2.7-3.5 3.6-3.5.8 0 1.5-.5 1.5-1 0-.6-.4-1-.9-1s.9-1.8 3-4c2.2-2.2 3.9-4.9 3.9-6 0-2.2 4.9-12.3 6.2-12.8.4-.2.8-1.3.8-2.3 0-1.1-.4-1.7-1-1.4-.5.3-1 .1-1-.4 0-.6.5-1.1 1.1-1.1.8 0 .9-1.7.5-5.4-.5-3.5-.3-6.3.4-7.7.7-1.2 1.4-6 1.6-10.8.6-16.6 1.6-25 3.9-36.6.4-1.7 1.1-8.4 1.6-15s1-12.7 1-13.5c.1-.8.7-2.2 1.4-3 1.9-2.2 2.4-4.6 3-14.5.7-10.4 2.1-20.9 2.4-18 .3 3.1 2.9-6 4.1-14.4.8-5.7.7-7.7-.2-8.9-1-1.3-1-1.4 0-.8.9.5 1.2-.6 1.2-4.4 0-2.8.7-6.1 1.5-7.4 1.2-1.8 1.3-3.3.5-7.7-.9-5-.8-8.8.4-10.7.3-.5-.2-4-1-7.8-1-4.8-1.2-9.5-.8-15.6.8-10.3-.6-13.8-5.6-13.8-3.5 0-4.5 1.3-2.8 3.9 1 1.6 1 2.3 0 3.3s-2.4.9-7-.1c-8.6-1.9-15.9-2.3-16.8-.9-.4.6-.2 1.4.5 1.6.9.3.9.7 0 1.8-.6.8-1.5 1.1-2 .8s-.9.1-.9.9c0 2.3 6 6.3 12.3 8.1 3.1.9 5.7 2.1 5.7 2.6 0 1.4-.4 1.3-7.3-1.4-7.4-2.9-14.3-3.9-15.5-2.2-.4.6-.7 2.8-.6 4.9.1 2.9-.4 4.2-2.4 5.8-2.7 2.1-5.2 6.2-5.2 8.5 0 .8-1 1.4-2.5 1.4-1.7 0-3.8 1.4-6.2 4.1-3.4 3.8-4 4.1-7.7 3.6-2.6-.4-4.7 0-6.2.9-5.1 3.4-45.8 3.2-53.9-.2-6.1-2.6-16.2-4.1-17.7-2.6-.9.9-.1 1.6 3.5 3.2 5.2 2.3 15 4.2 17.2 3.4.8-.3 4 .3 7.2 1.4 7.1 2.5 15.3 4.2 19.8 4.2 1.9 0 3.5.4 3.5.9 0 1.7-1.5 2-5.6 1.1-5.9-1.3-19.5-3.9-23.4-4.5-1.9-.3-4.4-.7-5.5-.9-1.1-.3-5.8-1.2-10.5-2.1s-10.7-2.7-13.5-4c-2.7-1.3-6.6-3-8.7-3.8-2-.9-4.5-2.4-5.6-3.4-4.6-4.2-6.6-5.3-7.4-4-.6.9-1 .9-1.8-.3-.5-.8-1-2-1-2.6s-.7-1.7-1.5-2.4c-1.9-1.6-1.9-.7 0 3 .9 1.7 1.3 3 1 3-1.6 0 2.9 5.9 6.5 8.5 2.3 1.6 4.8 3.6 5.5 4.3 1.9 1.7 8 4.2 10.2 4.2 1 0 3 .6 4.4 1.4 1.5.8 7.7 1.7 14 2.1 11.1.6 17.9 2.1 17.9 3.7 0 1.1-4.4 1-5.6-.1S733.5 362 727 362c-3 0-5 .5-5.3 1.2-.3.9-1.2.6-2.9-1-1.3-1.2-2.9-2.2-3.4-2.2s-2.6-1.1-4.6-2.5c-2.1-1.4-4.9-2.6-6.3-2.7s-2.5-.8-2.5-1.4c0-2.2-6.3-8.3-9.7-9.5-3.3-1-4.4-3.4-2.1-4.1.9-.3.8-1.5-.6-4.7-2.4-5.1-3.2-5.7-4.5-3.3-1.2 2.2.3 8.8 2.4 11.2 9.3 10.5 26.6 25.9 33 29.3 3.2 1.8 8.5 6.2 8.5 7.2s-4.2-1.6-9-5.4c-2.5-2-7.1-5.4-10.4-7.6-3.2-2.2-9.4-7.5-13.7-12-5.3-5.4-8.2-7.6-8.7-6.8-.4.6-.9 5.5-1 10.9l-.3 9.7 9.8 9.6c5.4 5.3 10.7 10.7 11.8 12.1 3.4 4.1-.6.7-11.3-10.1-5.5-5.4-10.3-9.9-10.7-9.9-1.2 0-3.4-3.3-3.5-5 0-1.3.1-1.3 1 0 .5.8 1.1 1.2 1.4.9.9-.8.9-20.6 0-22-.4-.7-.9-2.2-1.1-3.3-.4-2.2-2.2-19-2.3-21.7-.1-1.7-4.4-4.2-5.4-3.2-1.1 1.1-.6 4.4 1.1 6.9 1.6 2.5 1.6 2.7-.1 3.6-1.5.8-1.7 3-1.7 19.1.1 49.7.8 63.2 4.2 73.9 1.2 3.7 4.9 8.2 4.9 6 0-.7-.5-1.2-1.1-1.2-.5 0-.8-.4-.5-.8.3-.5-.1-3.3-.7-6.3-1.5-6.6-1.5-8.1-.1-8.6 1.2-.4 2.5 3.9 2.9 10.2.5 7.5 1.5 10 4.7 11.8l3.1 1.8-.6-3.7c-.4-2.4-1.8-4.8-3.7-6.6-1.7-1.5-3-3.6-2.8-4.5.2-1.3 1.1-.9 4 1.9 2.7 2.5 4 3.2 4.9 2.4.8-.8 1-.6.7.9-.3 1.8 4.5 7.5 6.3 7.5.8 0 9.2 14.1 8.7 14.5-.6.5-6.5-6.5-6-7 .3-.3-.5-.5-1.8-.5-1.9 0-2-.2-1-1.5 1-1.2.9-1.5-.4-1.5-1.1 0-1.6-.7-1.4-1.8s-.3-1.7-1.4-1.6-1.8-.5-1.8-1.7c0-1.1-.4-1.9-1-1.9-1.1 0-1.4 4.9-.4 7.4.3.8 1.1 1.3 1.9 1 .7-.3 1.5.2 1.8 1 .4.9 1.3 1.6 2 1.6 2.9 0 6.1 13.2 6 24-.1 5.1-.8 9-2.2 12.3-1.1 2.6-2.1 5.1-2.1 5.5-.1.4-.8 1.1-1.6 1.5-.8.5-1.2 1.2-.9 1.7s-2.6 2.5-6.4 4.6c-4 2.1-7.2 4.6-7.5 5.7-.2 1-.9 1.6-1.5 1.2-.7-.3-.8 0-.5.9.4.9.1 1.6-.6 1.6-.6 0-1.4-.8-1.7-1.9-.3-1.2-1.7-2.1-4.1-2.5-6.1-1-7.2-.8-7.2 1.4 0 2.7-1.3 2.5-2.5-.3-1-2.3-5.5-3.7-5.5-1.7 0 .7-.7 1-1.5.6-1.5-.5-1.9.8-1.6 4.6.1 1-.4 1.8-1.3 1.8-2.5 0-2.9 4.4-1.9 18.5.9 11.5 1.4 14 3.7 18.1 2.5 4.5 2.6 5.2 1.5 9.2-1.3 4.6-3 5-4.1 1.1-1.4-4.9-3.1-19.7-3.3-27.9-.2-10.1-1.2-15.7-2.9-15.7-.8 0-1.1 3-1 10.6.1 5.8-.1 12.2-.5 14.1-.6 3.7-.7 3.1-2.8-19.2-.4-4.7-1.1-9-1.5-9.4-.5-.4-1.9-.2-3.3.4-2.4 1.1-2.5 1.6-2.6 9.4 0 4.9-.4 7.5-.8 6.4s-.6-4.7-.4-8c.3-7.7-.6-9.4-4.4-8-2.6.9-2.9 1.7-5.4 12.9-2.7 12.8-4.4 13.2-2.3.6 1.2-7.1 1.2-7.7-1.3-12-.2-.2-.9.2-1.8.9s-1.5 2.9-1.5 5.3c0 5.8-1.4 3.5-1.6-2.6-.2-6.6-.6-8.3-2.7-10.8-1.1-1.2-2.5-1.8-4-1.5-1.2.3-5.6.8-9.6 1.1-5.3.5-7.9 1.2-8.8 2.3-1.1 1.6-1.2 1.5-1.3-.3l-.1-2-.9 2c-.8 1.8-.9 1.7-.9-.8-.1-3.4-1.9-5.2-8.6-8.8-2.1-1.1-6.8-7-9.7-12.3-1.5-2.5-1.7-4.8-1.3-12.6.3-5.2.6-10.9.8-12.5.2-1.7.4-4.6.5-6.5.2-2.7.5-3.1 1.2-2 .8 1.3 1 1.2 1-.3 0-1.1.9-2.1 2-2.4s2-1.3 2.1-2.2q0-1.65.6-.3c.4 1 .8 1 1.9.1.8-.6 1.1-1.5.8-2s0-.9.7-.9c1.6 0 3.8-3.1 3.9-5.5.1-1.1.4-1.4.7-.8.8 2 2.4 1.5 5-1.5 3.9-4.5 4-4.7 4.6-8.8.3-2.1 1.2-6.6 2-9.9 1.3-5.5 1.5-5.8 2.4-3.5 1 2.5.8 3.7-2.2 11.9-2 5.4-1.6 6.8 1.3 4.4 2.1-1.8 2.4-2.7 3.7-13.3.4-3 .9-6.2 1-7 .2-.8.7-5.6 1.1-10.5l.8-9 .8 7.5c.4 4.1.3 9.1-.2 11-.8 3-1.4 15.3-.9 20 .1 1.6-2.2 8.2-3.2 9-1.2 1-4.9 14.9-4.3 16.4.3.8-.2 2.3-1.1 3.2s-1.4 2.3-1.1 3.1.6 2.6.6 3.9c0 1.5.6 2.4 1.6 2.4 1.2 0 1.5-.9 1.4-4.3-.4-7.2-.1-8.7 1.5-8.1.8.4 1.5 1.6 1.6 2.8 0 1.9.1 1.9 1-.4 1.1-2.7 3-17.3 3.4-26 .1-3 .7-7.3 1.3-9.5s1.4-6.7 1.8-10c1.3-10.4 1.3-10.9 2-15.3.7-4.1.7-4.2 2.2-2.1 1.2 1.8 1.3 2.9.3 6.8-2.2 8.2-4 17.5-4.1 20.2 0 2.3.3 2.6 2.5 2.1 3.2-.6 3.2 1 0 2.4-1.8.9-2.5.9-2.8.1-.4-1.3-2.8 12.8-3.3 19.3-.6 9.9-1.6 16-2.5 15.4-1.2-.7-2.9 3.9-2.9 7.7 0 2.4.4 2.9 2.5 2.9 1.9 0 2.5.5 2.5 2.2 0 3 1 4.4 3.5 5.2 2 .6 2.1.2 2.2-9.6.1-5.7.6-12.3 1.1-14.8.8-3.6.9-2.6.5 5.2-.6 9.1-.4 9.9 2.2 15 4.3 8.3 6.6 11.2 7.6 9.6 1-1.4 1.2-.6.9 3.3 0 1.4.7 3.2 1.6 4 1.6 1.2 1.7 1.2 1.1-.4-.5-1.2-.1-1.7 1.3-1.7 1.1 0 2-.5 2-1 0-.6 1.1-.3 2.5.6 2.3 1.5 2.4 1.5 3.1-1.1.6-2.6.6-2.6 2.1-.5 1.1 1.5 1.8 1.8 2.7 1.1 1.6-1.3 3.6.5 3.7 3.3q0 2.25.6.6c.3-.8 1.1-1.8 1.7-2.2.7-.5 1-4 .9-9.5-.2-4.8.1-11.3.6-14.3.8-4.9.9-4.2.9 6 0 12.8.6 15.7 2.8 13.9.8-.6 1.4-1.7 1.4-2.4s.9-2.4 2.1-3.9c1.1-1.4 1.7-2.6 1.4-2.6-.4 0-.1-.7.6-1.6 3.9-4.7 4.9-14.6 2.5-24.3-.8-3.1-1.6-8.1-1.9-11.1l-.6-5.5 2 7c2.5 9.2 3.6 24.8 2 31-1.4 5.5-.4 7.6 2.5 5.1 1.1-.9 2.8-2.2 3.9-3 1.8-1.3 2-2.5 1.8-11.3-.1-10.9-2.5-27-4.8-33.5-.9-2.4-1.7-5.9-1.9-7.8-.6-8-2.8-17.6-4.7-20.6q-3.15-5.25-.9-3.9c.6.4 1-.8 1.1-2.7 0-1.8.4-4.2.9-5.3.6-1.5.9-.7.9 3.1.1 2.8.8 7.1 1.7 9.5.8 2.4 1.7 6.2 2 8.4 1.1 10 1.6 12.1 3.1 13.7 2.5 2.8 3.1 2.2 2.5-2.7-.3-2.9-.1-4.5.6-4.5.6 0 .9-.7.5-1.6-.4-1.2-.8-1.3-1.4-.3-.5.9-1 .4-1.5-1.7-.4-1.6-1-3.4-1.4-3.9-1.3-1.7-2-7.9-1.1-9.4.7-1 1.1-.6 1.5 1.6.4 1.7.6 3.4.4 3.9-.5 1.5 2.4 7.4 3.3 6.8.5-.3.9-1.6.9-3s-.4-2.3-.9-2c-1.2.8-2.1-2.9-1.1-4.5.6-.8.9-.5 1.2 1.2.2 1.3.7-1.3 1.2-5.8.4-4.6.4-8.8 0-9.5-.4-.6-.8-13.6-.8-28.7-.1-29.1-.5-32.1-4.6-32.1-1.9 0-2 .8-2 17.9 0 16.5.2 18 2.1 20.5 1.1 1.4 1.6 2.6 1 2.6-.5 0-1.3-.5-1.6-1-1-1.6-2.4-.2-1.9 1.8.3.9 0 3.5-.5 5.7l-1.1 4 .4-4.3c.2-2.3 0-4.2-.4-4.2-.5 0-.7-1.5-.4-3.3.4-2.8 0-3.6-3.6-6.5-3.3-2.8-4-3-4.1-1.5 0 1-.2 10.3-.5 20.7-.2 10.4-.5 19.1-.8 19.3-.2.2-.6-.8-1-2.2s-1.2-2.5-1.8-2.5c-.7 0-.4-.6.5-1.3 1.5-1 1.7-3.5 1.9-19.4.2-16.7 0-18.4-1.8-20.4-1-1.2-1.4-1.9-.7-1.6 1.9 1.2 2.6-1.1 3.3-10.7l.7-9.1.1 8.8c.2 6.6.6 8.9 1.6 9.3.8.3 1.4 1.8 1.4 3.4-.1 1.6.6 3.5 1.5 4.4.8.9 1.7 2.1 2 2.8 1.2 3.4 1.6-1.3 1.8-19.2.1-10.7.5-20 1-20.5.4-.6 1.3-3.8 1.8-7 .6-3.3 1.8-8.5 2.6-11.5s1.3-6 1.1-6.7c-.3-.6.2-1.4 1-1.7s1.4-1.3 1.4-2.3c.1-1 .7-3.2 1.5-4.8l1.4-3-.6 3.2c-.3 1.8-.2 3.3.2 3.3 1.6 0 6.5-6.6 6.1-8.3-.4-1.8.9-2.3 1.9-.7.4.6 1.5 0 2.7-1.5 2-2.5 4.5-3.5 3.2-1.3-.5.9-.4 1 .4.3.6-.6 1.3-2.4 1.7-4 .5-2.8.5-2.8-.6-.8-1.5 2.9-3.3 3-2.4.2.7-2 .5-2.1-2.1-1.5l-2.9.8 2.7-2.1c1.5-1.2 3-3.1 3.3-4.2.4-1.1 1.2-1.8 1.8-1.6.7.2 3.6-1.4 6.5-3.5 2.9-2.2 5.8-3.8 6.4-3.6s-.2 1.2-1.8 2.2c-4 2.6-8.4 6.8-8.4 8 0 .6.5.3 1.1-.7.6-.9 1.4-1.5 1.9-1.2.4.3 1-.2 1.4-1 .3-.8 1.2-1.5 2.1-1.5.8 0 1.5-.6 1.5-1.3 0-.9.2-.9.8 0 .6 1 1.2 1 2.8-.2 2.9-2.2 4.3-1.7 1.5.6-1.3 1.1-2.2 2.2-1.9 2.4.2.3 1.5-.6 2.8-2 2-2.2 2.1-2.5.6-3.1-1.4-.5-1.4-.9-.4-2.2 1.1-1.3 1-1.5-.3-1-.9.3-2.1.3-2.8-.2-.9-.5-.6-1.2 1.1-2.6 2.4-2.1 5.2-6.3 4.5-7-.2-.2-1.9.7-3.7 2.1-1.9 1.4-3.9 2.5-4.4 2.5-.6 0-.2-.7.9-1.6 1.1-.8 3.1-2.5 4.5-3.8 1.4-1.2 3.6-2.5 5-2.9 10.7-2.5 26.8-10.2 28.3-13.5.8-1.6 1.3-1.9 1.8-1 .7 1 2.2.8 7.1-1 7.3-2.8 13.4-4.4 12.2-3.3-.5.4-3.8 1.8-7.4 3.1-6.8 2.4-10.7 4.8-7.3 4.5 1-.1 3.4-.9 5.4-1.7 2-.9 4.7-1.9 6-2.3 3.2-1 11.9-5.7 11.9-6.4 0-.3 4.1-.7 9.1-.8 5.6 0 9.4-.5 9.8-1.2.4-.6 2.3-1.4 4.2-1.6 1.9-.3 4.3-.7 5.4-.9 1.1-.3 2.4-.5 2.8-.5.5-.1.1-.8-.7-1.7-4.1-4 .4-6.1 6.9-3.3 3.9 1.8 3.9 1.8 1.5 2.7-1.4.5-3.4 1.2-4.5 1.5-1.3.3-.9.5 1.3.6 1.7 0 3.2.5 3.2 1.1 0 .5-.4 1-.8 1-.5 0-.9.7-.9 1.6 0 2.7 4.2 3.5 10.4 1.9 7.6-2 8.9-1.9 10.7.7.9 1.2 1.6 1.9 1.6 1.5 0-.5.7-.1 1.6.7 2.2 2.2 4.7 2 7.5-.7 1.3-1.2 3.7-2.8 5.2-3.5s3.6-2.6 4.5-4.3 2.7-4.3 3.9-5.8c1.1-1.5 2.4-4.4 2.7-6.6.6-3.5 2.5-6.8 5-8.6.9-.7 1.1-3.3.7-11.4-.1-2.8 0-9.7.4-15.5.5-9.4.4-10.3-.9-8.6-1.5 1.8-1.5 1.8-3.8 0-1.6-1.3-2.2-2.7-2-4.6.3-2.9 4.4-6.8 7-6.8 1.2 0 1.3-.9.8-4.8-.4-2.6-1-5.8-1.3-7.2-.4-1.4-.7-7.7-.8-14 0-6.3-.4-11.6-.8-11.7-.5-.1-1.7-1.3-2.8-2.8-1.8-2.2-1.9-2.9-.8-6.2.7-2.1 1.1-5.6 1-7.9-.1-4.8-3.8-13.6-7.2-17.7-5.9-7-10.5-11.7-11.4-11.7-.7 0-.9-1.5-.7-3.5.6-4.9-.6-10.7-2.1-10.2-1.4.4-2.4 3.5-3.3 10.1-.3 3-.9 4.4-1.4 3.7-.6-1-.9-1-1.5-.1-.4.7-.2 1.5.4 1.9.7.4-.2.8-1.9.8-2.9 0-4.1-1.9-2-3.2.5-.3 1-1.7 1-3.1s.5-3.4 1-4.4c.8-1.5.6-2.2-.9-3.2-3-2.1-3.7-6.5-1.5-8.9 1.6-1.7 1.6-2.6.5-8.5-.7-4.2-.8-7-.2-7.7 1.1-1.4 1.8-9.3.9-10.3-.4-.3-1.3-.2-2 .2-.7.5-3.2 1-5.5 1.2-3.9.3-4.3.1-4.8-2.5-.4-1.5-.8-3.3-1-4-.3-.9-11.3-1.2-46.3-1.3h-45.9l-.8 3.2c-.4 1.8-1.1 10-1.5 18.3l-.7 15-.1-14c0-7.7-.1-15.9-.1-18.3L719 0h-35.8l-.7 6.7c-.9 9.2-1.3 10-1.4 2.6C681-.7 682.5 0 660 0h-19.8v45.2c0 24.9-.3 86.8-.7 137.4l-.7 92.2 4.9-.4c5.3-.4 4.9.1-.9 1.1l-3.8.6v13.7c.1 11.6.3 13.4 1.4 11.9.7-.9 1.6-1.7 2-1.7 1.2 0 .6 4.9-.8 6.3-2 1.9-3.2 19.8-1.8 24.9.6 2.3.7 4 .1 4.4-.5.3-.9 16.3-.9 38 0 20.6-.3 37.4-.7 37.4-.5 0-.8-17-.8-37.7 0-32.9-.2-37.8-1.5-37.8s-1.6 3.3-2.2 20.5c-.4 11.3-1.6 33.2-2.8 48.6-1.1 15.5-2 30.7-2 33.8 0 3.5-.4 5.6-1.1 5.6-.9 0-1-2.4-.5-8.8 2.9-35.7 4.4-59.6 5.2-83.1l.6-16.4-2.3.6c-2.3.6-2.3.6-.4-.9 1.6-1.2 2.1-3 2.5-9.7l.5-8.2.5 7.5c.4 5.8.8 7.5 2 7.5 1.3 0 1.5-2.3 1.6-14.1 0-11.9-.2-14.1-1.4-13.6-1.2.4-1.1 0 .2-2 1.4-2.1 1.6-6.4 1.6-32.9-.1-16.7.2-84.3.6-150.2L639.2 0h-22.7c-21.1 0-22.6.1-22.1 1.7.3 1 1.4 9.2 2.5 18.3 1.9 15.9 2.5 24.5 3.6 50.5.3 6.6 1.2 21.2 2 32.5 1.5 21.7 2.7 50.5 2 48-.3-.8-1.1-13.2-1.9-27.5-.9-14.3-2-33.2-2.5-42-.6-8.8-1.5-24.3-2.1-34.6-.9-15.8-3.8-39.3-5.6-45.2-.5-1.5-2.2-1.7-16.5-1.7h-16l.7 15.7c.5 11.7.4 15.4-.4 14.9-.7-.4-1.2-3.6-1.2-8 0-4-.3-10.7-.6-14.9l-.7-7.7H473l-.5 2.2c-.7 3.1 0 19.9 1 22.1.6 1.3.4 1.6-1 1.1-2.1-.9-3.2-3.6-4-11-.9-9-1.3-10.2-3.5-10.9-3.8-1.2-7.5 5.2-6.1 10.2.8 2.8 4.4 11.2 6.3 14.7.5 1 1.1 2.6 1.4 3.5.2.9.8 3.3 1.3 5.5l.9 3.8-2.8-2.7c-1.5-1.5-3.1-2.2-3.4-1.7s-2.1 1.3-4 1.6c-3.3.6-3.4.7-4.1 7.4-.4 3.7-.9 7-1.1 7.4-1.1 1.7-4.1-.9-6.2-5.3-2.2-4.9-2.3-4.9-5-3.4-6 3.3-6.5 4-6.3 10.6.1 3.3.4 6.5.7 7.1.3.5.3 2 0 3.4-.5 1.7-1.3 2.4-2.9 2.4-5.3 0-7.4 5.2-8.4 20.7-.4 8-.5 8.3-2.9 8.3-1.3 0-2.4.4-2.4.9s-.9 1.1-2.1 1.4c-1.6.4-1.9.9-1.1 2.4.6 1 .7 2.5.2 3.3-.4.8-1.1 5.6-1.4 10.6-.6 7.8-.4 9.7 1.4 14.4 2 5.1 2 5.6.6 12.1-1.4 6.1-1.4 7.1 0 11.1 1.3 3.4 1.4 6.6.9 15.6-.6 10.3-.5 11.5 1.5 14.7 1.3 2.1 2.2 5.5 2.4 8.8.2 3 .6 5.9 1 6.5.3.6.1 1.4-.5 1.7-.6.4 1 2.7 4 5.7 3.7 3.7 5.7 4.9 7.1 4.5 1.1-.3 2.3-.1 2.6.5 1 1.6 9.8 5 10.2 4 .2-.6 1.2-2.1 2.3-3.4 1.7-1.8 3-2.3 7-2.2 2.7 0 4.9-.3 4.9-.8 0-.4 2-.8 4.5-.8 3.2 0 5.1-.6 6.5-2 1.9-1.9 2.4-1.9 13.2-.6 6.2.8 12.8 2 14.6 2.7 2.8 1.2 3.4 1.2 4.2 0 .4-.8.6-2.1.2-2.9-.3-.9 0-1.3.8-1 .8.2 1.8 1.8 2.2 3.5.6 2.4 1.7 3.4 4.3 4.3 1.9.6 3.5 1.6 3.5 2.1 0 .6.4.8.9.4.5-.3 1.6.2 2.4 1 .9.8 2.1 1.5 2.7 1.5s2.4.7 4 1.5c4.8 2.5 3.4.2-1.5-2.5-6.3-3.4-4.7-3.8 2.5-.6 6.9 3.1 9.3 3.1 9.5-.1.3-3.5 1.5-4 1.5-.7 0 3.9.7 4.8 6 7.8 4.2 2.4 4.1 3.8-.1 1.6-2.7-1.5-2.4.4.4 2.3 1.8 1.3 1.9 1.6.5 1.6-1 .1-1.8.4-1.8.8 0 .8 9.7 5.3 12.3 5.7.8.1 2.1.7 2.8 1.3 2.7 2.1 5.6 2.4 7.3.7 1.9-1.8.8-3.9-2.5-4.9-1-.4-1.9-1-1.9-1.5 0-1.3 7.2 1.9 10.5 4.7 2.1 1.8 2.4 2.3 1 1.8-5-1.8-5.1-1.8-3.5-.3.8.7 1.6 2 1.8 2.8s1.1 2.3 2 3.3c1.5 1.7 1.5 1.7-.4 1.2-1.5-.5-1.3-.1.8 1.8 1.5 1.4 2.4 2.7 2.2 3-.3.3 1 1.6 2.8 3 5.3 3.9 6.5 4.2 3.4.9-1.7-1.8-2.6-3.2-2.2-3.2s-.6-1.2-2.1-2.6l-2.8-2.6 3.3 2.2c1.8 1.2 3.1 2.4 2.8 2.7-.7.7 4.9 5.3 6.5 5.4.8 0 2.5 1.4 3.9 3.1l2.4 3.1-2.8-.5c-2-.4-2.6-.2-2.2.8.3.8 0 1.1-.8.8s-1.7-.1-2 .4c-.8 1.4.3 3.9 2 4.6.9.3 1.2.1.9-.4-.3-.6-.2-1 .3-1 1.1 0 2.6 3 2.3 4.5-.1.5 1.1-.3 2.8-1.9 4.2-4 4-6.9-.9-11.8-2.2-2.2-4-4.2-4-4.4 0-.8-5.2-7.9-6.3-8.6-.9-.6-.9-.8 0-.8.7 0 3.6 3 6.5 6.6s7 8.4 9 10.6c2.6 2.9 3.4 4.5 2.8 5.3-.5.7-.8 1.4-.5 1.7.3.2-.5.4-1.8.4-1.4-.1-2.6.7-3.2 2.1-.5 1.3-1.5 2.3-2.2 2.3-1.3 0-.1 5.8 1.5 6.9.4.3 1.3 1.8 1.9 3.3.7 1.6 1.7 2.8 2.2 2.8s.7 1.7.4 3.9c-.4 2.6.1 5.3 1.6 8.6 1.1 2.6 2.1 5.5 2.1 6.3 0 3.2 2.4 8.1 4.2 8.5 2.3.6 2.5 4.7.2 4.7-1.4 0-1.4-.3-.4-1.5 1.4-1.7.8-3.1-.8-2.1-.6.3-1 2.2-1 4.1s.4 3.3.8 3c.5-.3.6.4.3 1.5s-.9 2.3-1.4 2.6-.9 1.7-.8 3.2c0 2.4.1 2.5.8.7.5-1.1.6 4.9.3 13.4-.3 10.5-.2 15.2.5 14.8 1.2-.8.7 10.7-.8 16.3-.5 1.9-.9 7-.9 11.2 0 8.8-1 12.3-3.8 13.1-1.5.3-1.9.1-1.5-.9.3-.8.9-1.4 1.3-1.4 1.9 0 3-11.3 2.9-31.2 0-11.8.3-23.4.6-25.8l.5-4.5-1.4 3-1.5 3-.1-5c0-2.8.5-6.6 1-8.5 1.5-5.1.4-9.2-2.3-8.8-2 .3-2.2.9-2.2 7.1 0 3.7-.2 6.7-.5 6.7-.4 0-1.2 1.5-1.8 3.4-.7 1.9-2 4-2.9 4.8-1.4 1.1-1.6 1.1-.8-.1 1.4-2.4 3.5-18.5 2.5-19.5s-1.2-.6-3 5.4c-1 3.5-1 3.5-.5.3.2-1.8 0-3.5-.5-3.8-.6-.4-1 1.7-1.1 5.2 0 8.8-1.1 12.7-4.4 16.6-1.6 1.9-3.9 4.8-5 6.3-2.1 2.9-9.5 8.7-10.2 8-.5-.4 5.2-6.2 7.3-7.4 2.1-1.3 10.4-14.6 10.4-16.6 0-1.8-.6-1.5-3.8 1.9-2 2.2-5.6 5.2-7.9 6.7-2.4 1.5-4.3 3.2-4.3 3.6 0 .5-2.8 1.7-6.2 2.7-3.5.9-7.6 2.3-9.3 3-1.6.8-9.1 3-16.5 5.1-7.4 2-13.6 4.1-13.8 4.6-.2.4-2.2.7-4.5.7-2.3-.1-3.2-.4-1.9-.6 3.9-.8 2.4-2.5-1.8-2.1-5.3.5-4.6-1.3 1.1-2.7l4.4-1.1-5.5-.7c-7.1-.9-11.6.3-11.2 2.9.2 1.6-.4 1.9-3.5 1.8-5.6-.2-6-.4-3.5-1.8 3.9-2.1.4-3.8-8-3.8-5.8 0-7.4.3-7.6 1.5-.2 1.1.6 1.7 3 1.9 3.2.3 3.1.4-1.5 1.5-6 1.4-9.9 0-8.6-3.2 1.2-3.1 1.1-3.5-1.6-3.5-1.3 0-2.8.7-3.3 1.5-1 1.9-4.2 1-4.2-1.1v-1.9c0-1.2-4.5-5.5-5.7-5.5-.8 0-1.7-.8-2.1-1.8s-3.2-4-6.2-6.7c-5.9-5.3-8.1-7.3-8.1-7.7 0-.2.4-1.6 1-3.2l1.1-2.8-4.7.7c-2.7.4-6.3 1.3-8.2 2.1-4.4 1.8-6.2 1.8-5.5-.1.4-.8 1.6-1.5 2.8-1.5s3.1-.7 4.2-1.5c1-.8 2.5-1.5 3.3-1.5.7 0 2.4-1.1 3.7-2.5 2.2-2.4 2.2-2.5.4-2.6-1.1-.1-2.3-.3-2.7-.4-.5-.1-2.3-.6-4.1-1-2.9-.7-3.1-.9-1.5-2 2.8-2.1 1.2-2.5-5.3-1.5-9.8 1.6-10.2 1.5-10.6-2.8-.3-3.2-.6-3.7-2.7-3.7-2.2 0-2.6.6-3.6 5.8-.6 3.2-1 8.7-.8 12.2.4 5.6.2 6.3-1.6 6.8-3 .7-3 8.8 0 11.8 1.3 1.3 1.8 2.6 1.3 3.7-3.8 9-3.8 9.9-1.3 22.2.6 3 1.1 8.6 1 12.3-.2 5.2.2 7.7 1.8 10.8 1.2 2.2 2.1 5.9 2.1 8.2.1 7.1 2.6 23.5 3.8 25 2.5 3 4.2 14.5 4 26.5-.3 10.1 0 12.3 1.4 13.9 1.3 1.5 1.7 4.1 1.9 13.3.1 6.3-.2 12.7-.6 14.1-.4 1.7 0 4 1.1 6.5 1.8 4 2 5.4 3 16.6.3 3.8 1 6.8 1.5 6.8 1.2 0 1.1 8.2-.1 11.6l-1.1 2.7-2.8-3.9c-1.9-2.6-3.1-5.7-3.5-9.4-1.4-11-1.8-13-2.6-12.5-.5.3-1.2-2-1.5-5-.4-3-1.1-5.5-1.6-5.5-.4 0-1.1-3.1-1.5-6.9-.9-9.3-3.2-13.1-7.9-13.1-4.1 0-4.4-1.2-1-5.2 1.7-2 2.5-4.2 2.5-6.7 0-6.7-1.6-9.4-6.6-11.5-4.6-1.9-9.4-6.1-9.4-8.3 0-.6-1.2-2.1-2.6-3.2-4.9-3.8-6.8-10-8.8-28.1-.5-4.2-1.4-6.7-3.6-10-2.9-4.3-5-13.2-4.8-20 .2-4.3-.5-9.2-2-14.5-1.3-4.4-2.5-8.9-2.7-10-1.5-8.8-4.8-21.1-6-22.5-2-2.2-1.9-6.1.2-10.4 1.5-3.1 1.5-4.4.3-11.3-.7-4.3-1.3-11.5-1.4-15.9-.1-6-.7-8.9-2-10.9-3.9-6-2.5-15.6 2.9-20.4 4.7-4.1 9.5-4.8 17-2.7 3.3.9 7.3 2 8.8 2.3l2.8.5-.7-7.3c-.4-4.1-.8-11.7-1-16.9-.1-5.2-.5-18.5-.9-29.4-.6-14.9-.4-21.3.5-25.3 1.3-5.3 1-7.4-2.6-18.4-.3-.9.1-2.2.9-3 3.3-3.4 3.9-5.8 2-9-1-1.6-3.1-3.8-4.8-4.8-2.7-1.6-13-9.7-21-16.5-5.5-4.8-7.1-6.1-12-10.1-2.7-2.2-7-5.9-9.6-8.3-2.5-2.3-5.1-4.2-5.6-4.2-2 0-4.3-3.7-4.3-6.8 0-2.5.4-3.2 2-3.2 1.1 0 2-.5 2-1 0-2.3 3.8-.7 7.5 3 2.1 2.1 4.2 3.7 4.6 3.5.4-.3 4.9 3.4 10 8.1 5.2 4.7 10.3 9 11.4 9.6 1.1.5 5.6 4.5 10 8.9 4.6 4.5 8.8 7.9 10 7.9 1.7 0 2.4-1.6 4.9-10.8 1.5-5.9 3.1-14.3 3.6-18.7.4-4.4 1.6-10.8 2.6-14.2 1.6-5.2 2.3-6.3 4.1-6.3 2.1 0 2.2-.4 2.2-8.3-.1-8.1 1-12.9 3-14.2 2-1.2 1.2-8.8-1.4-13.5-1.3-2.5-3-5.5-3.6-6.8-1.1-1.9-1-2.6.5-4 1.6-1.6 1.9-1.5 4.1 1 2 2.3 3.2 2.8 6.9 2.8 4.5 0 7.6-1.8 7.6-4.5 0-.7.6-2.5 1.4-4s1.7-5.4 2.1-8.7c.6-4.6 1.2-6.2 3-7.4 2.1-1.3 10.5-14.2 10.5-15.9 0-.4.9-2 2.1-3.6 1.1-1.6 2.4-4.3 2.9-5.9l.9-3-175.2.1C135.7.1 96.9.4 98.4 1.3c1 .7 4.7 3.6 8.1 6.4 3.4 2.9 6.6 5.3 7 5.3s2.7 1.8 5.1 4 5.5 4.6 6.9 5.2 2.5 1.5 2.5 2c0 .4.4.8 1 .8 1.1 0 7.9 4.5 10.1 6.8.9.9 3.7 3.3 6.2 5.2 4.5 3.4 5.3 5.2 4.1 8.3-1.1 3-13.2-2.2-20.4-8.8-3.9-3.5-13.8-9.4-24.3-14.3-6.7-3.1-22.6-13-25.4-15.7-.7-.8-2.7-2.2-4.3-3.2-1.7-.9-3-2.1-3-2.5S55.8 0 36 0C4.4 0 0 .2 0 1.5m300 34.2c24.7 22.4 46.8 44.6 47.5 47.5.5 1.9.2 3.2-.9 4.3-1.7 1.8-1.6 1.9-16-11.6-3.9-3.6-9.1-8.3-11.6-10.5-2.5-2.1-9.2-8.4-15-14C290.1 37.9 283.6 32 282.8 32c-.3 0-1.8-2.1-3.3-4.7-2.6-4.3-2.7-4.7-1-5.9 2.8-2 5.8-.1 21.5 14.3m-87.2 52.9c4.7 2.5 10.7 6.1 13.5 8 2.7 1.9 5.6 3.4 6.5 3.4.8 0 3.8 1.7 6.6 3.9 2.8 2.1 6.7 4.7 8.6 5.6 1.9 1 4.3 2.8 5.3 4.1s2.5 2.4 3.4 2.4c.8 0 3.2 1.3 5.2 2.9 3.7 2.9 18.8 12.1 19.9 12.1.3 0 2.6 1.7 5.1 3.8s6.5 5 8.9 6.3c3.2 1.8 4.5 3.3 5.4 6.2.9 3.1.9 4-.2 4.7-2.2 1.4-7 0-14-4-21.6-12.2-26.1-14.2-37.9-16.5-6.3-1.2-11.7-2.7-11.9-3.3s-2-1.4-4-1.8c-2.4-.4-5.4-2.3-8.7-5.3-2.7-2.5-5-4.8-5-5.1-.6-4.6-3.2-7.8-12.1-14.5-11.4-8.7-14.9-14-10.6-16.4 3.3-2 7.6-1.1 16 3.5m-37.7 63.8c3.6 1.4 7.1 2.6 7.7 2.6s2.7 1 4.7 2.1c2.2 1.3 6 2.3 10 2.7 6.1.4 6.6.3 8.6-2.2 2.7-3.4 5.4-3.3 14.2.5 4 1.6 8.9 3.7 10.9 4.6 2 .8 4.7 2.6 5.9 3.9s2.8 2.4 3.6 2.4c1.8 0 1.7 3-.2 5-1.7 1.9-1 5 1.1 5 .8 0 3.3 1.8 5.6 4 2.4 2.2 4.9 4 5.5 4 .7 0 1.3.9 1.3 2 0 1.4 1.4 2.6 5.2 4.2 6.6 2.8 4.9 3.3-4.4 1.3-4-.8-10.9-2.2-15.3-3s-12.9-3.5-19-6c-6-2.5-13.9-5.7-17.5-7.1-11-4.2-39.5-18.3-44.1-21.6-2.8-2.1-3.8-5.6-2.1-7.2 1.4-1.5 11.7.1 18.3 2.8M159 187.1c4.1 1.1 9.8 3.1 12.5 4.4 5.3 2.4 26.2 9.5 28.3 9.5 2.4 0 19.7 8.7 21.7 11 1.2 1.3 2 3.6 2 5.6 0 3-.3 3.5-3.2 4-2.6.5-5.2-.3-12-3.6-11.6-5.6-17.9-7.8-28.8-10.1-4.9-1-11.2-2.9-14-4.3-2.7-1.3-8.9-4.1-13.7-6.1-6.6-2.8-9.1-4.4-10.1-6.5-3.2-6.3 3.4-7.8 17.3-3.9m71.1 76.3c14.6 4.1 24.2 6.1 26.8 5.7 2.2-.4 6.9 1.9 7.6 3.7.7 1.9-1.9 4.2-4.7 4.2-1 0-5.1-.9-9.1-2.1-3.9-1.1-11.5-3.1-16.7-4.5-12.5-3.2-17-5.2-17-7.6 0-2.5 2.8-2.3 13.1.6m387.2 8.2c-.2 1.8 1.9 21.7 3.3 30.9.6 3.8.7 6.1 1.2 25.9l.2 8.8 3-.6c3.3-.6 4.2.9 1.1 1.9-3.4 1-5.3 6.8-4.7 14.3q.45 6.75-.3 2.7l-.7-4-.6 3.5c-.3 1.9-.5 0-.3-4.3.1-4.2-.2-7.7-.7-7.7s-2.2 1.4-3.9 3.1c-2.4 2.5-2.9 3.6-2.4 6.2.2 1.8.1 5.7-.4 8.7-.7 4.7-.9 5-1.1 2-.1-1.9-.1-4.9 0-6.6.1-1.8-.2-3.4-.7-3.7-.4-.3-.5-6.7-.1-14.4.5-8.3.4-16-.3-19.3-.5-3-1.4-9.6-1.9-14.5-.9-9.3-3.1-17.3-4.5-16.7-1.3.6-2.9-2.9-1.7-3.7.7-.4.9-2.7.7-5.6-.3-3.5-.2-4.5.5-3.5.5.8 1 2.7 1 4.2 0 1.6.4 2.8.8 2.8.8 0 2.6 9.4 4.8 23.8.5 3.4.9 4.2 2.2 3.8 1-.3 2.9-.8 4.5-1.2 2.4-.5 2.7-1.1 2.7-4.8 0-3.8-1.5-18.6-2.4-23.1-1.6-8.5-1.7-11.7-.4-11.3.7.3 1.2 1.4 1.1 2.4m-299.2 47.1c1.6 1 2.9 2.4 3 3.3.3 3.8-.2 17.8-.7 20.2-.5 2.7-.8 2.8-6.8 2.8-5.3 0-6.8-.4-10.2-2.9-3.7-2.8-3.9-3.2-3.6-7.5.3-3.3 1-4.9 2.3-5.7 1-.5 1.9-2 1.9-3.2 0-1.3 1.2-3.5 2.8-4.9 4.4-4.2 7-4.6 11.3-2.1m-98.8 51.5c-.2.5-.8.6-1.3.3-.4-.3-1-.1-1.2.5-.7 2.1-20.2 8.1-28.4 8.7-7.6.5-12.4-.4-12.4-2.5 0-4.1 35.4-11.5 41.7-8.7 1.2.5 1.9 1.3 1.6 1.7M200 397.5c0 2.8-1.7 3.9-9.4 5.9-7.5 2-12.6 1.2-12.6-2 0-3 4.6-5.2 12-5.7 3-.2 6.5-.4 7.8-.5 1.7-.2 2.2.3 2.2 2.3m159.7 34.2c-1 5.4-4 12.5-5.4 13-.8.3-4 0-7.1-.8-3.2-.7-7.2-1.3-9.1-1.4-1.9 0-3.6-.5-3.8-1-.6-2 1.4-3.5 7.1-4.9 6-1.6 12.6-5.1 12.6-6.7 0-.5 1.4-.9 3.1-.9 2.9 0 3.1.2 2.6 2.7m-156.8-.8c1.9 1.2.4 5.1-1.9 5.1-1 0-2.1.4-2.4.9-.6.9-5.8 2-12.3 2.6-2.8.3-3.6-.1-4.5-2-1.4-3.1 0-5 3.9-5.3 1.5-.1 4.2-.6 5.8-1.1 3.9-1.2 9.6-1.3 11.4-.2m-38.9 23c0 2.2-6.1 5.7-11.5 6.6-2.2.4-7.4 1.6-11.5 2.7s-10 2.3-13 2.8c-10.3 1.7-15.5 2.8-19.2 4.4-2.1.9-5.9 1.6-8.5 1.6-3.9-.1-5.1-.5-6.5-2.4-1.6-2.2-1.6-2.4 0-3.8.9-.8 5.1-2.3 9.2-3.2 9.1-2.2 12.9-3.1 20-5.1 8.8-2.4 24.1-5.5 31.1-6.4 7-.8 9.9 0 9.9 2.8M58.3 471.5c.9 2.1-.5 2.6-9.6 3.5-4.5.5-10.9 1.4-14.2 2-7.3 1.4-9.4 1.4-13.1-.2-2.8-1.1-2.8-1.2-.6-1.6 1.2-.2 2-.7 1.7-1.2s1.4-1.1 3.7-1.4c2.4-.4 7.2-1 10.8-1.5 11.1-1.5 20.7-1.3 21.3.4m582.3 80.4c3.4 2.4 3.9 7.1.8 7.1-1.2 0-3.5 5.7-2.8 7.1.7 1.3 6.3-.4 8.9-2.7 1.6-1.4 3.5-2.2 4.1-2 .7.3 1.6-.4 1.9-1.5.7-2 .8-2 3.4.6 2.6 2.4 3 2.5 5.7 1.3 1.6-.7 3.4-1.9 3.9-2.6.6-.7 2.4-1.4 4-1.6 1.8-.2 3.1-1 3.3-2 .5-2.6 3.1-1.9 3.9 1.1.4 1.6.6 3.3.5 4-.4 2 4.6 2.7 10.3 1.4 2.8-.6 6.9-.9 9.1-.5 3.1.4 4.5.1 6.7-1.6 3.2-2.6 3.6-6.5.7-7.3-1.3-.3-2-1.3-1.9-2.9.2-2.3.2-2.3.6-.1.3 1.5 1.2 2.3 2.4 2.3 2.3 0 6.1 2 7.2 3.8.5.7 1.2 1 1.8.7.5-.3.6.1.3 1-.4.9-.3 1.5.2 1.3.5-.1 1.9.4 3.2 1.1 2 1.1 2.6 1 3.8-.6.7-1 1.4-2.6 1.4-3.6 0-1.2.8-1.7 2.8-1.7 1.5 0 3.2.4 3.7.9 1.5 1.5 14.5 2.6 14.5 1.3 0-.6-.4-1.4-1-1.7-.5-.3-1-1.8-1-3.2 0-3.6 2.1-1.6 5.7 5.5 3.9 7.7 4.1 13 .8 19.8-2.7 5.6-4.3 6.5-6.5 3.9-.8-1-2.7-1.5-4.9-1.4-4.4.3-9.1 5-9.1 9.1 0 2.8-3.6 9.8-5 9.8-.5 0-1.1-1.9-1.5-4.3-.4-2.3-1.2-5.1-1.8-6.2s-1-2.5-.9-3.1c.4-1.8-8.7-2.7-10.4-1-1.1 1.2-1.1 1.5.1 2 .8.3 1.5 1.2 1.5 2.1s.7 3 1.6 4.7c1.2 2.3 1.8 2.8 2.4 1.7 1.6-2.5 3.2 4.1 2.5 10.3-.6 5.2-.9 5.8-3 5.8-2.6 0-3-.9-4.1-8.4-.4-2.8-1.9-7.9-3.3-11.5-2.2-5.4-3.3-6.9-6.4-8.4-3.2-1.6-4.2-1.7-9-.6-5.1 1.2-7.1 2.8-10.8 8.9-.8 1.3-1 1.3-1.9 0-.5-.8-1-2.7-1-4.1 0-3.1-2.4-4.9-8.9-6.8-5.3-1.5-6.4-.5-5.7 5.4.3 2.2.8 8.3 1.2 13.5.7 9.7 3.4 17 6.9 18.4 1.7.6 2-2.4 1.6-14.5-.2-4.4.1-7.9.7-8.3 1.5-.9 3.2 4.9 3.2 10.8 0 5.8.7 7.3 4.1 9 2.3 1.1 2.4 1.8 3.1 12.8.4 6.4 1.1 12.5 1.6 13.5.6 1 1.3 4.5 1.6 7.8.5 6.1.5 6-1.8-4-1.4-6.2-2.1-8.5-3.9-13-2.9-6.8-5-8.4-9.3-7.1-1.9.6-3.4 1.6-3.4 2.2 0 1.8-3.1 2.6-4.6 1.3-1-.8-1.4-3.9-1.4-11.2 0-8.7-.7-16.8-2.6-30.5l-.5-3.3-5.7.2c-5.5.3-5.7.4-6.2 3.3-.3 1.7-.1 5.2.4 7.8 1.4 7.5-1.1 16-2.8 9.5-.3-1.2-.6-6-.6-10.7s-.4-8-.8-7.3c-.5.8-1.3.9-2.2.3-1.9-1.2-3.3-1.3-2.5-.1.3.5.1 1.2-.5 1.6-1.3.8-1.3 12.6.1 21.9.9 5.9 1.5 7.7 3 8.1 2.5.8 2.4 3.5-.1 3.5-3.6 0-4 5.2-3.4 47.5.4 33.2.3 39.7-.8 38-1-1.6-1.2-8.5-1-31.8.2-30.6-.8-45.8-3.3-48.3-.8-.8-3.4-1.4-6.5-1.4h-5.1l.3-4.8c.3-4.6.3-4.7 3.5-4.4 2.4.2 4-.4 6-2.3 2.7-2.4 2.8-2.9 2.6-11-.1-4.8.2-8.5.8-8.5 1.1 0 1.2-4 0-5.9-1.6-2.4-2.3.7-2.3 10.2 0 5.1-.3 8.2-.5 6.9-.3-1.3-1.1-2.6-1.9-2.9-1.6-.6-2-9.3-.4-9.3.5 0 .6-.7.3-1.7-.5-1.2-.3-1.4.7-.8s1.2.4.7-.9c-.4-1-.7-2.2-.7-2.7s-1.8-2-3.9-3.3c-3.4-2.2-4.3-2.4-7-1.3-2.1.8-3.7 2.5-5.1 5.3-2.1 4.5-4 6.5-4 4.1 0-.8.7-2.8 1.6-4.6 1.8-3.7 1.3-6.1-1.4-6.1-1.1 0-3.6-.7-5.7-1.5-4.4-1.9-7.3-1.2-8.6 2.2-1.4 3.6-1.1 10 .6 13.2.8 1.6 1.2 3.1.9 3.4s-.1 1.4.5 2.4c1 1.7 1 1.7 1.1 0 0-1.1.8-1.7 2.5-1.7 1.3 0 2.8-.8 3.4-1.7 1.1-2 .8 15.3-.4 20.5-.6 2.8-1.1 3.3-3.4 3-2.1-.2-2.7.2-2.9 2.2-.2 1.4-1.4 7.2-2.7 13s-2.6 13-3 16c-.3 3-1 6.2-1.6 7-.7 1.1-.8.5-.4-2 .3-1.9 1.2-8.9 2-15.5s2.2-15.1 3-19c1.9-8.7 1.9-17.6.1-23.5-.8-2.5-1.5-3.9-1.5-3.3-.1.7-.5 1.3-1.1 1.3-.5 0-1-1.7-1-3.8 0-4-2.1-6.9-5-6.7-.8 0-2.3-.7-3.3-1.6-3.3-3-15.8-4.1-18.9-1.7-2 1.6-3.8 7.9-3.8 13.5 0 2.3-.4 5.2-.9 6.5s-1.2 3.6-1.6 5.1c-.3 1.5-1 2.5-1.5 2.2-1.3-.8-.3-18.8 1.2-22.7 1.1-3 .4-6.4-1.5-7.1-.8-.3-2.4.3-3.7 1.3-2 1.5-2.4 2.8-2.5 7.6-.4 10.5-.5 11.2-2 11.8-1 .4-1.9-.2-2.4-1.7-.5-1.2-.5-2.3 0-2.5 1.5-.6 1-3.2-1.4-8.1-1.3-2.5-2.2-5.2-1.9-5.9.2-.7-.6-1.2-2.1-1.2-1.4 0-2.8-.6-3-1.3-.4-.9-.8-.9-1.5.1-.8 1.1-1 1.1-1.5-.1-.3-.8-2.5-1.9-5-2.5-2.6-.7-4.8-1.9-5.2-2.9-.6-1.7-.7-1.7-1.6 0-1.9 3.3-2.7.7-1.4-4.1 3-10.7 3.7-12.7 4.6-13.6.5-.6.9-1.8.9-2.8 0-2 3-2.5 3.1-.6q0 1.5.6 0c.4-1 .9-.9 2.4.4 1 .9 1.6 2 1.4 2.4-.9 1.5 10.7.1 13.2-1.5 2.3-1.5 2.7-1.5 6 0 3.8 1.8 5.3 1.1 5.3-2.8 0-1.3.9-1.7 3.9-1.7 3.6 0 3.9.2 4.5 3.5.7 3.3 1.7 4 5.3 3.6.7-.1 1.7.8 2.3 1.9.9 1.7 2.1 2 6.9 2h5.8l.6-4.1c1-7.2 2.7-7.1 2.8.1.1 3.6.3 5.7.6 4.7.5-2.1 2.3-2.3 2.3-.3 0 .8 1 2.2 2.2 3 2.1 1.5 2.3 1.5 3.4-.7.6-1.2 1.5-4.9 1.9-8.2.5-3.3 1-5.1 1.2-4 1.5 8.5 2.6 10.5 5.2 10.5 1.5 0 3.6.6 4.6 1.4 1.6 1.2 2.1 1 4-1.3 1.2-1.4 2.5-3.5 2.9-4.6.6-1.6.9-1.7 1.6-.5.6.8 1 2.7 1 4.2 0 1.6.4 2.8.8 2.8 1.7 0 3.2-2.5 3.2-5.2 0-1.5.5-2.8 1-2.8.6 0 1 1.8 1 3.9 0 3.7.1 3.9 3.8 4.3 3.5.5 5.8-.1 3.7-.9-2.9-1-3.7-2.4-3.8-6.7-.1-2.6.3-5 .8-5.4 1.5-1 3.5-5.9 3.5-8.6 0-5.1 1.5-3.4 2.1 2.4.3 3.4 1 6.5 1.5 6.9m-205-.2c.8.3 1.4 1.2 1.4 2q0 1.35 1.8.9c1.1-.4 2.7.4 4.4 2.2 1.5 1.5 4.5 4.5 6.7 6.8 2.3 2.2 4.1 4.8 4.1 5.6 0 .9 1.4 4.3 3 7.6 1.7 3.4 3 6.8 3 7.6 0 2.1 6.6 9.3 9.3 10.2 1.2.4 3.3.8 4.7.8 2.1.1 3 1.2 6 8.3 1.9 4.4 4.3 9 5.3 10 .9 1.1 1.7 2.4 1.7 2.9 0 2 4.1 5.4 6.5 5.4 1.3 0 3-.8 3.7-1.8 3-4.2 4.1-3.8 3.5 1.4-.5 4.6.9 9.6 3 10.6 1.6.7 4.3 7.1 4.3 10.2 0 1.8.4 3.6.9 4.1.5.6 1.4 2.8 2.1 5s3 7.3 5.1 11.4c2.2 4.1 3.9 7.8 3.9 8.3 0 1.3-4.3.9-6.4-.7-1.1-.8-2.9-1.5-4.1-1.5-1.6 0-2.8-1.5-5.1-6.2-2.7-5.7-3.3-6.3-5.9-6.2-1.7 0-4.2.4-5.7.8-2.8.8-2.8.8-2.8-4 0-2.7-.5-5.6-1-6.4-1.8-2.9-3.2.7-3.5 9.5-.2 5.9-.8 9.1-1.7 9.7-.7.6-.9 1.1-.3 1.4 3 1.3 3.2 2 2.4 9.4-1.5 14.2-4.4 25-6.8 25-.6 0-.8.7-.5 1.5.4.8.1 1.5-.6 1.5-1.3 0-.5-5.8 1.1-7.5 1.1-1.1 1.2-5.5.2-5.5-.9.1-3.5 5.7-5.3 11.3-.6 2-1.6 3.4-2.1 3.1-1.3-.8-.2-6 2.3-10.4 1.3-2.5 1.8-5 1.6-8l-.3-4.5-2.4 4.7c-2.1 4.2-7.1 9.3-9.1 9.3-.9 0-4 3.2-4 4.2 0 1.3-5 5.6-5 4.3 0-2 7.4-15 8.6-15 1.3 0 3.1-3.5 3.8-7.8.3-2 .1-3.2-.5-3.2-.7 0-.8-.5-.2-1.3.9-1.3 4.7-10.6 5.8-14.4.3-1.2.1-2.4-.6-2.9q-1.2-.75-.6.9c.5 1.3-1.1 2.8-3.5 3.1-.4.1-2.1 1.6-3.9 3.3-3.7 3.9-6 4.3-5.1 1 .3-1.2 1.1-2.6 1.9-3 .7-.4 1.3-1.3 1.3-1.8 0-.6.7-1.7 1.5-2.5 2.5-2.5 1.6-4.5-1-2.6-1.2.8-6.5 11.4-6.5 12.9 0 .5-1.1 2-2.4 3.2-2.1 1.9-2.6 2.1-3.7.8-1-1-2.2-1.2-4.4-.6-1.6.5-3.3.9-3.7.9-1.5 0-.8-2.9 1-4.2 1-.7 2.2-2.6 2.6-4.2.4-1.5 1.5-3 2.4-3.3.9-.2 3.3-3.8 5.2-7.9s4.8-8.9 6.3-10.7c4.2-4.8 8.6-11.2 9.7-14.3 2.2-5.7-3.8-22.6-8.6-24.4-1.3-.5-3-2.2-3.8-3.8-2.3-4.5-4.3-4.7-7.4-.9-3.8 4.6-13.7 14.3-16.7 16.3-2.4 1.6-2.7 1.6-4.3.1-1.5-1.6-1.5-1.9.3-5s6.3-8.9 13.8-17.6c5.1-6 4.9-8.6-1.9-22.4-.8-1.6-1.4-4.6-1.4-6.8s-.9-5.9-2-8.1c-1.1-2.3-2-5-2-6 0-1.1-.4-1.6-1-1.3-.6.4-.9-1-.8-3.7.1-3.8.2-3.9.5-1 .3 1.8 1.1 3.6 1.9 3.9m-69.7 10.5c-1.9 1.8-4.2 4.2-5 5.3-.7 1.2-3.4 3.6-5.9 5.5s-4.7 3.7-5 4-2.5 1.8-5 3.2-6.1 4.1-8.1 5.9c-5.6 5.3-6.2 5.7-10.1 6.4-3.1.6-3.8.4-3.8-.9 0-1.7 5.4-7.6 7-7.6 1.5 0 13-8.3 17.4-12.7 2.2-2.1 4.2-3.7 4.6-3.6s2.7-1.4 5-3.4c5.3-4.6 10.2-7.2 11.4-6.1.6.5-.4 2.1-2.5 4m-98 66.5c.2.1-1 2.4-2.7 5-3 4.6-13.8 14.3-16 14.3-.6 0-1.2.3-1.4.7-.4 1.1-8.5 7.3-9.4 7.3-.4 0-1.7 1-2.9 2.2-1.3 1.3-2.9 2.7-3.7 3.3-.7.5-4 3-7.3 5.5-3.3 2.4-6.6 5-7.4 5.7-.7.8-3.1 2.3-5.2 3.4-2.1 1-3.9 2.4-3.9 2.9 0 .6-.6 1-1.4 1s-1.6.4-1.8.8c-.3.8-14.3 10.8-17.1 12.3-4.4 2.4-6.8 3-9.8 2.7-4.2-.4-4.9-2.7-2-6.5 2.7-3.3 21-17.3 22.7-17.3.7 0 1.4-.3 1.6-.8.2-.4 2.8-2.6 5.8-4.8 3-2.3 6.9-5.4 8.5-7 3.6-3.5 13.3-10.7 16.6-12.4 2.5-1.4 6.8-4.6 10.9-8.3 1.4-1.2 5.1-3.6 8.4-5.2 3.2-1.7 6.1-3.6 6.4-4.4.3-.7 1.9-1.9 3.6-2.6 2.7-1.2 3.4-1.1 5.1.3 1.1.9 2.2 1.8 2.4 1.9M742 689.5c0 1.4-.4 2.5-1 2.5-.5 0-2.5 1.4-4.4 3-2.8 2.5-3.6 4-4.1 8.3-.8 5.9-1.8 7.7-5.7 9.4-2.4 1.1-2.7 1-3.9-1.9-1-2.6-1-3.5.5-6.2.9-1.7 2-4.5 2.4-6.1.7-2.5 1.4-3 4.5-3.3 2.8-.2 4.4-1.2 6.9-4.2 3.9-4.6 4.8-4.9 4.8-1.5"/><path d="M612.4 311.4c-1.4 1.1-1.6 2.1-.9 5.2.4 2.1.6 10 .5 17.4l-.1 13.5 3.6-3.6c3.3-3.2 3.8-4.4 4.5-10.6.8-7.8.2-22.3-1.1-22.3-.4 0-1.3 1.6-1.9 3.6-1.4 4.3-2.3 4-1.1-.3 1.1-3.7-.6-5-3.5-2.9M834.5 2c1 1.1 2 4.3 2.4 7.7.6 5.6.7 5.8 3.7 6.1 2.6.3 3.4 1.1 5.9 6.5 1.6 3.4 4.1 8.1 5.6 10.4 1.5 2.2 3 5.2 3.4 6.5.4 1.2 1.3 3.2 1.9 4.3.7 1.1 2.3 4.7 3.6 8s2.7 6.3 3.2 6.6c.4.3 1.9 4.2 3.2 8.7 1.4 4.5 2.8 8.7 3.1 9.2 1 1.6 6.3 1.2 7.7-.6.7-.9 3.4-3.7 5.9-6.2 2.5-2.6 6.3-7.2 8.5-10.2 4.6-6.6 4.6-6.6 8.4-11 1.6-1.9 3-4.1 3-4.8s.7-1.5 1.5-1.8c.8-.4 1.5-1.1 1.5-1.6 0-1.1 5.2-8.1 8.2-11.1.9-.9 2.6-1.7 3.6-1.7 3 0 1.5 5.3-2.9 10.4-2.2 2.4-3.9 4.6-3.9 4.9 0 .2-1.9 2.5-4.2 4.9-5.4 5.7-6.8 7.5-6.8 8.7 0 .5-.3 1.1-.8 1.3-.7.3-5.8 6.9-7.7 9.9-3.9 6.4-8.9 12.9-11.1 14.5-1.5 1.1-3.2 2.5-4 3.2-2.1 2-1.7 9 1.1 16.6 1.8 4.9 2.5 8.9 2.5 14 0 6 .5 8.1 3.5 14.1 1.8 3.8 3.4 6.4 3.4 5.6.1-.8.4-1.1.9-.7 1 1.1.9 25-.2 25.8-.6.4-.5 2.1.1 4.5 1.7 5.7 2.9 21.7 3.6 47.7.1 3.8.7 7.1 1.2 7.3 4.3 1.5 11.2 6.3 12.7 8.8 3.6 6.1 3.9 7.5 2.2 11-2.4 5-4.8 6.9-8.1 6l-2.8-.7 3.1-2.6c1.8-1.5 3.5-3.9 3.8-5.4.5-2.4 0-3.2-3.9-6-2.4-1.8-4.4-3.8-4.5-4.5 0-2.3-2.2-2.5-4.3-.5-1.8 1.8-1.9 2.4-.7 5.1.7 1.7 1 4.5.6 6.3-2.1 12.3-2.8 19.6-2.1 25.3.7 7.2.9 7.3 7.5 5 5.3-1.9 13.3-1.9 16.8-.1 8.3 4.3 13 16.7 8.1 21.2-3.4 3.1-3.9 4.7-2.2 8.2 1.5 3 1.4 3.6-.2 7.2-1.1 2.4-1.5 4.9-1.1 6.5.4 1.5.1 3.9-.8 5.8-2 4.5-2.7 7.9-3.6 18.2-1.7 20.3-2.3 25-3 26-.5.5-1.3 3.9-2 7.3-.6 3.5-1.6 7.6-2.1 9-.6 1.4-1.4 6-2 10.2-.5 4.2-2.4 11.5-4.4 16.5-1.9 4.9-4 11.7-4.5 15-.5 3.4-1.9 8.8-3 12s-2 6.9-2 8.3-1 3.9-2.3 5.6-2.6 3.8-3 4.8c-.3.9-3.4 3.3-6.9 5.3s-6.4 3.8-6.6 4-1.3 3.9-2.4 8.2-2.8 8.6-3.9 9.6c-1.4 1.3-1.9 3.1-1.9 6.6 0 5.4-2.7 20-4.1 21.6-.8 1.1-2.6 7.8-3.5 13-.7 4.9-2.5 10.7-4.5 15.3-1 2.3-1.9 5.3-1.9 6.5s-.4 2.8-.9 3.6c-.6.9-.5 2.1.2 3.2.8 1.3.8 2.8-.1 5.6-.6 2.1-1.4 4.8-1.7 6-.4 1.3-1.4 2.3-2.3 2.3-1.1.1-2.9 2.5-5 6.8-5.7 11.8-7.7 15.2-8.7 15.2-.6 0-1.6 1.2-2.3 2.8-1.7 3.8-3.6 6.9-5.5 9-1 1-1.7 3-1.7 4.4s-.7 3.1-1.5 3.8-1.5 1.8-1.5 2.4c0 .7-1.4 2.8-3.1 4.7-4.8 5.3-6.2 9.5-6.3 18.6-.1 7.6.1 8.4 3.2 12.7 1.7 2.6 3.2 5 3.2 5.4s.8 1.5 1.8 2.4c.9.9 2.2 2.3 2.7 3 .6.7 2.9 3.3 5 5.7 2.2 2.5 3.4 4.1 2.8 3.7-2-1.1-1.5 1.6.7 4.4 2.8 3.6 2.6 6.8-.5 7.2-2.3.3-2.4.5-1.1 2.9.7 1.4 1.6 3.7 2 5.2.3 1.4 2.8 5.6 5.6 9.2 2.7 3.6 4.5 6.5 4.1 6.5-.7 0-6.7-6.3-11.1-11.6-1.4-1.8-1.5-1.7-1.8.7-.3 2.7 3.2 11.9 4.5 11.9.5 0 1.7 1.3 2.6 2.9 1 1.7 3.4 4.8 5.4 7 2 2.3 3.8 5.2 3.9 6.6.3 3.2-.2 3.2-3.3-.5-1.4-1.7-3.8-3.7-5.4-4.5-1.5-.8-3.6-3.1-4.5-5s-2.2-3.5-2.9-3.5c-2.8 0-13.2-16.8-12.1-19.6.9-2.2-1.9-10.9-4.3-13.5-1.2-1.3-2.9-3.7-3.8-5.2-2.5-4.8-2.7-2.1-.3 4.5 2.9 8.1 3.2 9.3 2.8 9.5-.2.2.8 1 2.1 1.9 1.8 1.3 2 1.8 1 2.5-1.1.6-1.1 1.5-.2 4.1 2.9 8.5 3.7 13.8 2.4 15.1-1 .9-1.5.9-1.8 0-.2-.6-1.3-2.1-2.4-3.4-1-1.2-1.9-2.9-1.9-3.6 0-.8-1-2.7-2.1-4.1l-2.2-2.7.7 4.5c.4 2.5 1.8 8.1 3.1 12.5s2.9 10.1 3.6 12.7l1.3 4.8h10.4l-1.9-6.1c-1.1-3.4-2.2-6.5-2.5-7s-.2-.9.3-.9c.8 0 5.5 8.6 6.7 12.2.5 1.7 3.3 1.8 39.4 1.8h39l.6-3.1c1-5.3.8-5.6-4-6.2-3-.3-5.8-1.5-8.2-3.4-6-4.8-16.2-9.4-16.2-7.3 0 2.2-4 .4-4.5-2-.3-1.4-3.6-5.5-7.3-9.1s-9.6-9.5-13.2-13.1c-11-11.2-12-12.8-7.5-12.8 1.4 0 2.5.4 2.5.9s1.2 1.2 2.6 1.5c3.7 1 7.2 3.5 7.9 5.6.3 1 2 2.4 3.7 3.1 1.8.7 3.9 1.9 4.8 2.7.8.8 6.9 4.5 13.5 8.2 6.6 3.8 12.9 7.8 14 8.8 1.1 1.1 5.2 3.6 9.2 5.6 6.8 3.4 7.2 3.5 7.8 1.6.3-1 .1-2.8-.5-4-2.3-4.3-7.4-11.3-10.4-14.3-3.6-3.6-7.8-10.1-7.1-10.9.3-.3-.4-1.3-1.5-2.3-1.3-1.2-2-3.1-2-5.7 0-3.3.3-3.8 2.4-3.8 1.5 0 3.8 1.7 6.7 4.9 7.2 8 17.9 21.6 21.4 27.3 1.9 2.9 4.7 7 6.4 9.2 1.7 2.1 3.1 4.4 3.1 5.2s.4 1.4.8 1.4c.5 0 1.5 1.2 2.3 2.7 2 3.9 4.1 6.3 5.7 6.3.7 0 1.5.7 1.8 1.5.5 1.3 7.7 1.5 56.5 1.5h55.9l-13.8-12.2c-7.5-6.7-20.4-18.7-28.7-26.7-8.2-7.9-16.6-15.4-18.5-16.6-3.6-2.3-14-13.6-14-15.2 0-.5-1.1-2-2.4-3.2l-2.4-2.2 2.4-2.6c1.3-1.4 2.4-3.2 2.4-3.9 0-2.2 4.9-1.6 7.3.9 5.5 5.7 21.6 15.3 24.3 14.5 2.6-.7 14.3 8.1 26.7 19.9 7.6 7.3 14.3 13.3 14.8 13.3s4.8 3.6 9.4 8c4.7 4.4 9.7 8.8 11.3 9.7 1.5 1 4 3.1 5.7 4.7 1.6 1.5 5.3 4.8 8.1 7.2l5.1 4.4h20.7c17.3 0 20.6-.2 20.6-1.4 0-.8-3.9-4.5-8.7-8.3-4.9-3.7-8.9-7.1-9.1-7.5-.2-.5-1-.8-1.8-.8s-1.4-.5-1.4-1c0-.6-.5-1-1.2-1-2.1 0-4.6-3.1-4.1-5.1.4-1.4 1.1-1.8 2.6-1.3 2.5.8 12.3 7 13.1 8.3.3.5 1.8 1.2 3.3 1.6 2.5.6 11.4 7.3 15.3 11.4 4.8 5.1 4.5 5.1 42 5.1h35.1l-2-2.6c-2.8-3.6-2.6-4.4.9-4.4 2.9 0 10.1 3.8 11.5 6 .4.6 10 1 27.6 1h26.9v-31.9l-5.9-3.5c-5.2-3.2-16.7-9-18.1-9.1-4.6-.4-26.4-18-24.1-19.4.6-.4.6-1.2.1-2-.5-.9 0-3 1.3-5.8 1.7-3.5 2.6-4.3 4.9-4.3 4.1 0 18.6 6 33.6 13.7 3.4 1.8 6.7 3.3 7.2 3.3.7 0 .9-9.3.8-26.6l-.3-26.7-29.5-15.1c-16.3-8.3-30.1-15.5-30.8-15.9-.6-.5-2-1-2.9-1.2-7.1-1.7-10.6-3-24.8-8.9-22.7-9.5-22.5-9.4-23.1-11.1-1.6-4.1 5.1-6 8.6-2.5 1.1 1.1 3 2 4.3 2 1.2 0 3.6.9 5.2 2 1.7 1.1 4.1 2 5.4 2s2.9.7 3.5 1.6c1 1.3 2.1 1.4 6.6.6 4.1-.8 5.9-.7 7.4.3 1.2.7 4.8 1.9 8.1 2.5 3.3.7 7.3 1.7 8.9 2.3s4.3 1.1 6 1.2 4.9 1 7.1 1.9c3.3 1.4 3.7 1.4 2.1.1-1.1-.8-1.6-1.5-1.2-1.5s-2.5-2.7-6.6-6c-8.2-6.8-25-16.3-33.6-19-3.1-1-8.2-2.8-11.2-4s-6.7-2.5-8.1-3c-1.4-.4-3.9-1.4-5.5-2.3-1.6-.8-5.4-2.2-8.4-3-13.7-3.7-30.3-9.4-48.5-16.6-4.4-1.8-9.8-3.6-12-4.1-6.5-1.4-7.6-1.7-15-4.3-3.8-1.4-10.6-3.7-15-5.2-19.1-6.5-24.5-10.5-21-15.9 1.5-2.2 2.5-2.6 6.5-2.6 2.6 0 7.6 1.1 11.1 2.4s6.7 2.4 7.2 2.4c.7.1 10.6 3 24.7 7.3 3.6 1.1 7.4 2.4 8.5 2.9s5.4 1.9 9.5 3.1 8 2.6 8.5 3c.6.4 3.3 1 6 1.4 6.6.9 17.6 4.2 24.5 7.2 4.9 2.2 17.1 5.8 22.6 6.7 1.1.1 2.6.6 3.2 1 1.8 1.1 11 3.5 17.2 4.6 21.9 3.6 35.4 8.4 41.1 14.7 5.8 6.3 7.9 10.5 7.9 16 0 2.9-.4 5.3-1 5.3-3.8 0 3.4 4 15.5 8.7 5.2 1.9 6.6 4.6 2.8 5.1-2.7.4-5 2.9-3.7 4.2.5.5 3.5 2 6.7 3.4l5.7 2.6V91l-3.1.7c-1.6.3-4.7 1.4-6.7 2.4-2 1.1-4.2 1.9-4.9 1.9s-1.3.3-1.3.8c0 .8-9.1 5.2-10.9 5.2-.6 0-1.1.4-1.1.9 0 .4-4.8 2.7-10.7 5.1-11.5 4.6-18.8 7.7-26.8 11.5-8.2 3.9-17.3 7.5-19 7.5-.8 0-1.5.4-1.5.9 0 1.5-8 2.2-11.5 1-8-2.9-6.1-9.3 4.5-14.7 3.6-1.8 7.2-3.9 8.1-4.6.9-.8 3.3-2 5.3-2.7s3.6-1.7 3.6-2.1 1-.8 2.3-.8c2.7 0 15.7-6.2 20.4-9.6 1.7-1.3 3.8-2.4 4.6-2.4s2.6-.9 4-2 3.2-2 4-2c.9 0 2.8-.6 4.4-1.4 9.3-4.5 21.9-9.6 23.8-9.6.8 0 1.5-.3 1.5-.8 0-.7 1.5-1.6 7.8-4.6 3.1-1.4 3.2-1.7 3.2-7.5 0-3.4-.2-6.1-.4-6.1-1.4 0-9.7 4.3-10.3 5.4-1.7 2.9-9.6 8.6-11.9 8.6-1.3 0-2.4.4-2.4 1 0 .5-.8 1-1.7 1-1 0-2.9.9-4.3 2s-3 2-3.7 2c-.6 0-1.3.4-1.5.8-.1.4-5.6 2.5-12 4.6-6.5 2.1-11.8 4.2-11.8 4.7s-1.2 1.1-2.7 1.5c-3.8.8-7.3 2.5-10.5 5-1.5 1.2-4.8 3.2-7.5 4.4-2.6 1.3-9.7 4.7-15.8 7.6-11.8 5.6-12.1 5.7-20.8 5.5l-5.7-.1-3.6-5.5c-2.3-3.7-3.3-6.2-2.9-7.6.4-1 1.1-1.6 1.7-1.3.7.5.8.2.3-.5-1.1-1.9 2.6-4.8 18.2-14.4 5-3.2 9.8-5.7 10.6-5.7.9 0 1.8-.4 2.1-.9.4-.5 4.5-2.8 9.4-5.1l10.2-5.1c.8-.5 2.4-1.3 3.5-1.8 1.2-.5 2.7-1.6 3.4-2.5s2.2-1.6 3.2-1.6 2.4-.9 3.1-2 1.7-2 2.3-2c.5 0 3.9-1.4 7.5-3.2 3.6-1.7 7.2-3.5 8.1-3.9 7.7-3.6 33.2-17.2 33.9-18 .9-1.2 8.9-4.9 10.5-4.9 1.3 0 1.5-2 1.5-13V0h-223.7C833.8 0 832.7 0 834.5 2M1086 13.9c-2.4 8-4.7 10.5-25.3 27-3.7 3-6.7 5.7-6.7 6.1 0 .3-1.2 1.3-2.7 2.2-2.7 1.6-5.2 3.5-10.3 8.1-3.2 2.9-11 9.1-18.1 14.5-5.2 3.9-18.3 14.5-18.9 15.2-.3.4-2.3 1.8-4.5 3.2s-5.6 3.9-7.5 5.7c-2.1 1.8-4.6 3.1-6.2 3.1-2.9 0-6.9-2.7-6.7-4.5 0-.5 2.7-3.3 6-6 3.3-2.8 9.2-8 13.1-11.8 4-3.7 7.6-6.7 8-6.7s2.4-1.7 4.5-3.8 6.3-5.8 9.3-8.2 6.5-5.4 7.6-6.7c1.2-1.3 2.6-2.3 3.2-2.3s1.5-.6 1.9-1.3c.7-1 8.4-7.6 13.1-11.2.8-.5 3-2.5 5-4.4 2.1-1.8 6.5-5.3 10-7.8 4-2.9 6.2-5.2 6.2-6.4 0-1.1.5-1.7 1-1.4.6.3 1 .1 1-.4 0-.6 2.3-2.6 5.2-4.5 5-3.2 5.3-3.2 8.9-1.8 3.3 1.3 3.6 1.7 2.9 4.1m-4 130.6c0 1.5-4.2 4.7-11 8.3-4.1 2.2-10.6 5.8-14.5 8.1-3.8 2.2-7.5 4.1-8 4.1-.6 0-2.1.9-3.3 2.1-2.7 2.4-12.9 7.6-15.7 7.9-4.7.5-6.3 0-5.8-1.8.6-2.3 8.9-8 13.1-8.8 1.7-.4 3.2-1 3.2-1.4s1.9-1.2 4.3-1.9c2.3-.7 5-1.7 6-2.2s2.2-.7 2.7-.4c.6.4 1 .2 1-.4 0-1.2 5.9-4.5 6.7-3.8.2.3 1.6-.6 3-1.9s3.2-2.4 4-2.4c.7 0 2.6-.8 4-1.8 3.9-2.5 10.3-4.8 10.3-3.7m76 161.4c0 2.7-6.3 3.8-29.5 5.1-10.4.5-20.3 1.3-22 1.7-1.6.5-5.2.6-7.9.3-3.9-.4-4.6-.7-3.5-1.6 2.2-1.8 6.5-2.5 18.9-3.4 13.3-1 27-2.7 27.8-3.5.3-.3 4.1-.5 8.4-.5 7 0 7.8.2 7.8 1.9M948.2 327c5.5 1.6 6.8 4.1 6.8 13-.1 6.5-.4 8-2.8 11.5-2.2 3.1-3.7 4.2-7 4.9-5.5 1.2-9.2-.4-9.2-3.8 0-3.3 2-4.6 6.2-4 2.3.4 4.8 0 7.3-1.2 3.6-1.7 3.7-1.9 3.2-5.8-.6-4.4-2.8-6.6-6.4-6.6-1.3 0-2.3-.5-2.3-1 0-.6-1-1-2.3-1-5.8 0-7.6-5.4-2-6.3 1.5-.2 3.3-.5 3.8-.5.6-.1 2.7.3 4.7.8m-6.6 90.8c.5.4 2.3 2.4 3.8 4.4 2.9 3.9 2.9 6.6-.1 10-1 1.1-1.5 3.7-1.4 7.2 0 5.1-.2 5.6-2.5 6.2s-8.4-1.2-8.4-2.5c0-.3 1.6-1.8 3.5-3.4 3.4-2.7 3.4-2.8 2.8-9-.3-3.4-1.2-7.1-1.9-8.2-2.2-3-1.8-5.5.9-5.5 1.2 0 2.7.4 3.3.8m175.4 31.8c4.7.9 9 2 9.5 2.4.6.4 4.2 1.3 8 2 3.9.6 10.4 1.8 14.5 2.6 4.1.7 9.3 1.6 11.5 1.9 6.3.9 13.5 4.6 13.5 7.1 0 1.9-.5 2-6.2 1.6-5.6-.4-15.7-2.3-28.3-5.3-2.2-.5-9.6-1.8-16.5-2.9-6.9-1.2-14.7-2.7-17.5-3.5-2.7-.8-6.2-1.7-7.6-2-3-.5-7.9-4.1-7.9-5.7 0-1.5 16.1-.4 27 1.8m-14.2 15.5c4 .4 7.7 1.1 8.2 1.4.9.6 12.7 3.2 22.3 5.1 8.5 1.6 17.7 7 17.7 10.4 0 2.3-6.3 3.4-11.1 1.9-1.9-.5-5.4-1.4-7.9-1.8-11.1-2.1-31.4-8.3-39.2-12.1-1.5-.7-2.9-2-3-2.9-.5-2 2.2-4.2 4.2-3.5.8.3 4.8 1 8.8 1.5m-201.2 88c.3.5 1.6.9 2.8.9 1.3 0 2.9.6 3.6 1.4.6.8 2.1 1.6 3.3 1.8s2.6 1.3 3.2 2.4c1.8 3.6 3.6 5.3 7.1 7 1.9.9 6.1 3.9 9.3 6.8 8.9 7.7 12.2 10.1 13.1 9.9.9-.3 4 6.9 4 9.2 0 .8-1 1.7-2.3 2-3.7 1-10.9 0-12.1-1.6-.6-.8-3.8-3.7-7.1-6.4-3.2-2.8-8.8-7.7-12.3-11s-7.2-6.5-8.1-7c-4-2.3-11.1-9.4-11.1-11.1 0-4.5 1.1-6.1 3.6-5.6 1.3.2 2.7.8 3 1.3m-31.5 2.3c1.6 1.9 4.9 4.6 7.2 5.9 3.5 2.1 17.9 16.2 22.5 22 3.9 5-2.1 4.2-8.8-1.2-2.4-2-8.6-7.8-13.8-12.9-5.1-5-9.6-9.2-10.1-9.2-1.3 0-3.1-4.8-2.5-6.5.9-2.3 2.2-1.8 5.5 1.9m140.2 21.7c2.3 1.2 5.1 2.9 6.2 3.9 3.4 3.1 12.6 9 14 9 .7 0 1.5.4 1.7.8.2.5 5.5 4.2 11.8 8.2s11.7 7.6 11.8 8.1c.2.5.8.9 1.3.9s4.4 2.4 8.7 5.3c4.2 2.8 9 5.8 10.6 6.5s4.7 2.8 7 4.6c2.2 1.9 5.9 4.3 8.1 5.4 6.4 3.2 13.2 11.5 10.3 12.4-.6.2-3.4-.2-6.2-.9-6.5-1.7-8.4-1-9.2 3.3-.7 3.9-2.4 4.3-6.1 1.4-1.4-1.1-3.2-2-4-2-1.5 0-7.3-4.2-12.8-9.2-1.6-1.5-3.3-2.8-3.7-2.8-.5 0-.8-2.2-.8-4.8 0-4.3-.3-4.9-3.2-6.6-1.8-1-4.2-2.7-5.3-3.7-4.7-4.4-9.3-7.8-14-10.4-2.7-1.6-6.6-4.1-8.6-5.7-2-1.5-4.2-2.8-4.8-2.8-.5 0-2.5-1.2-4.3-2.8-1.8-1.5-5.8-4.4-8.9-6.5-6.8-4.5-8.7-7.9-6.4-11.3 1.9-2.9 1.6-2.9 6.8-.3m-67.5 61.2c2.6 2.3 6.8 5.9 9.4 8 2.5 2 5.9 5.1 7.5 6.9 1.5 1.7 12.7 13.1 24.9 25.2 20.8 20.9 27.7 29 29.1 34.4.8 3.4-.1 3.7-6.4 1.7-6.7-2.1-8.5-3.8-48.4-44.1-28.8-29.3-29.3-29.8-27.9-30.2.5-.2 1-1.1 1-2.1 0-2.2 1.9-4.1 4.2-4.1 1.1 0 4 1.9 6.6 4.3m263.5 44.4c1.8 5.1 3.4 9.3 3.7 9.3s2-4.3 3.9-9.5c2.6-7.5 3.7-9.5 5.2-9.5 1 0 1.9.3 1.8.7 0 .5-1.9 6.2-4.2 12.8-3.5 9.8-4.6 12.1-6.4 12.3-2.2.3-2.4 0-7.8-15.7-2.9-8.7-3.1-10.4-.9-9.9 1.1.2 2.7 3.5 4.7 9.5m29.6-1c1.1 1 2.4 3.3 2.7 5 .7 3.7.9 3.6-7.2 3.3-5.9-.2-7.4 1.2-4.8 4.1 2 2.3 4.2 2.4 7 .5 1.3-.9 2.6-1.1 3.4-.6 1.2.7 1.1 1.2-.4 2.9-1.4 1.5-3.1 2.1-6.3 2.1-5.8 0-9.3-3.5-9.3-9.2 0-7.8 9.2-12.7 14.9-8.1m23.6 1.5c2.2 2.6 2.6 3.9 2.2 7.1-.8 5.7-4 8.7-9.4 8.7-6.2 0-9.3-3.2-9.3-9.5 0-6.1 3.4-9.5 9.6-9.5 3.5 0 4.7.5 6.9 3.2M465.4 212.1c-.4.8.3 2.1 1.9 3.5l2.6 2.2-2.5 1.7c-1.4.9-2.8 1.4-3.1 1.2-1-1.1-5.6 1-5.9 2.6-.2 1.4.7 1.7 4.9 1.7 3.7 0 4.8.3 3.7 1-.8.5-3 1-4.8 1s-3.1.4-2.8.9-.1 1.2-1 1.5c-2.2.9-6.2.7-6.8-.2-.2-.4-1.7-.7-3.3-.6-4.2.2-4.3.3-4.3 1.9 0 .8-.5 2.4-1.2 3.5-1 1.6-.9 2.3 1 4.3 1.2 1.3 2.2 3.2 2.2 4.3s.6 2.9 1.4 4c1.2 1.6 1.2 2.3.1 3.7-1.5 2-1 2.3-9.3-4.8l-3.5-3 .5 4.6c.4 3.5.1 5.1-1.3 6.8-1.3 1.6-1.9 3.9-1.9 7.6 0 4.6.4 5.7 2.6 7.4 1.5 1.2 3.5 2.1 4.6 2.1s1.7.4 1.4.9c-.6 1 3.3 2.3 4.5 1.5.4-.2 1-1.8 1.4-3.5.6-2.6.9-2.8 1.9-1.4.9 1.3 1.7 1.4 4.4.4 1.8-.6 3.7-2 4.3-3 .5-1.1 2-1.9 3.4-1.9 1.8 0 2.5-.5 2.5-2 0-1 1-2.5 2.3-3.2 2.1-1.2 3.2-1.4 10.2-1.7 2.2-.1 2.6-.4 1.5-1-1-.7-.1-1.1 3-1.3 3.4-.2 4.5-.7 4.4-1.9-.1-1.8 1.1-1.8 8.9 0 4.3 1 20.7 1.4 20.7.5 0-.2-2.1-1.3-4.7-2.4-5-2.2-16.2-3.5-30.1-3.5-3.9 0-7.2-.3-7.2-.8 0-.4 1.7-.7 3.8-.7 2 0 5.4-.4 7.5-.9s5.1-.5 6.8-.1c1.6.5 6.2 1 10.2 1.1 3.9.1 8.6.5 10.2 1 1.7.5 4.6 1 6.5 1.2 1.9.3 4.3.8 5.3 1.2s2.8.3 4-.3c1.5-.7 1.7-1.1.7-1.2-3.6-.4-5.8-1-10.4-3.2-3.6-1.7-5-2-5.4-1-.5 1.6-4.1 1.5-4.8-.2-.7-1.9-10.7-3.6-23.1-4-5.7-.1-10.6-.6-11-.9-.3-.4 1.3-.7 3.6-.7q4.2 0 4.8-1.5c.7-2.1-2.4-4.4-5.9-4.5-4 0-3.4-1.6.7-2.3 2.1-.4 5 0 7.1.9 2.4 1 6.5 1.4 12.8 1.3 5.1-.1 9.8.1 10.4.5.7.4 1.2.5 1.2.2s-1.5-1.3-3.2-2.3c-4.2-2.1-15.4-4.2-24.3-4.3-3.8-.1-6.4-.4-5.7-.7 1-.4.9-.8-.4-1.8-3.2-2.3 2.9-2.7 9.3-.6 3.2 1.1 9.6 2.2 14.3 2.6l8.5.6-2.5-2c-1.4-1.2-3.2-2-4-1.8s-5.3-.4-10-1.3c-4.7-1-9.5-1.6-10.7-1.3-1.3.2-2.3-.1-2.3-.7 0-.5-.7-1-1.5-1-.7 0-1.8-.6-2.2-1.3-.4-.6-2-2.2-3.4-3.5-2-1.7-2.9-2-3.5-1.1"/><path d="M802 226.3c-.3.3-4.4.8-9.2 1.1-8.7.6-17.8 3.2-18.5 5.2-.5 1.5 14.9.7 21.7-1 3.2-.8 5.6-.9 8.2-.1 4.8 1.3 5.8 2.5 2.2 2.5-3.7 0-7.4 1-7.4 2s7.2 3 11.1 3c1.9 0 4.1.5 4.9 1.1 1.1.8.8.9-1.5.5-6.8-1.3-24-1.5-27.9-.5-2.3.6-6.3 1.5-9.1 2-9.9 1.6-14.5 2.9-21.1 5.9-4.9 2.2-6.5 3.3-5.7 4.1 1.1 1.1 9-.9 13.8-3.4 1.1-.6 4.5-1.2 7.5-1.4 3-.1 9.2-.9 13.6-1.8 7.2-1.4 8.7-1.4 13.5-.1l5.4 1.4-6 .2c-3.3.1-6.3.2-6.7.1-2.5-.3-17.8 2.4-20.2 3.6s-2.6 1.7-1.5 2.8 2.9 1.1 9.5.1c4.5-.6 9-1.8 10-2.6s1.5-1 1.1-.3.1 1.4 1.4 1.8c1.9.6 2 .8.3 2.6-1.4 1.6-3.1 1.9-11 1.9-5.6 0-9.5.4-10 1.1-.4.7 2.1 1 8.2.9 9.3-.2 14.3.6 20.7 3.4 2.2 1 5.5 1.6 7.5 1.4l3.7-.3-3.9-1.8c-2.1-.9-4.6-1.7-5.5-1.7-.9-.1-2.9-.7-4.6-1.6l-3-1.4 4 .5c2.2.3 5.8.5 8.1.5 3 0 4.8.7 6.8 2.5 1.6 1.5 3.9 2.5 5.7 2.5 3.4 0 4.8 2.2 2.9 4.6-1.9 2.2-.2 3.3 7.4 4.6 6.5 1.1 6.6 1.1 4.9 3.1-1.8 1.9-1.7 1.9.7 1.2 1.4-.4 3.3-1.6 4.3-2.6 1-1.1 2.2-1.9 2.7-1.9.9 0 5.1-3.6 4.9-4.3 0-.1.2-.9.5-1.7 1-3 2.6-9.5 2.6-10.8 0-1-.7-.9-2.9.2-2.8 1.5-2.9 1.5-3.3-1.4-.2-1.6.1-3.9.8-5.2.8-1.3 1.3-3.1 1.4-4 0-1.4-.5-1.5-2.9-.8-1.6.4-4.1 1.6-5.6 2.6-2.7 1.8-2.7 1.8-2.2-.1 2.7-9.4 2.8-10.2.6-13.9-1.6-2.7-2.5-3.4-3.4-2.6-.6.5-3.2 1.3-5.6 1.6-3.7.4-4.8.2-6.9-1.8-1.4-1.3-3.4-2.3-4.5-2.4-1.1 0-4.3-.4-7-.8-2.8-.4-5.3-.5-5.5-.3M683.3 284.9c-1.7 2.6-3.4 6.8-3.7 9.2-.4 2.4-.8 6-1.1 7.9-.2 1.9-.7 5.1-1.1 7.1-.5 3.2-.3 3.8 1.6 4.4 1.2.4 2.3.5 2.4.3.5-.7 5.7-16.4 6.2-18.6.6-3-2.2-4.1-4.1-1.6-1.7 2.2-2 1.1-.5-1.6.6-1.2.7-2.1 0-2.5-.5-.3.4-1.8 2-3.4 1.6-1.5 2.7-3.1 2.3-3.5s-.1-1.1.7-1.6c1.3-.9 1.3-1 0-1-.8 0-2.9 2.2-4.7 4.9M846.2 285.2c-.7.7-1.2 2-1.2 3s-.4 1.8-.9 1.8-1.1 1.2-1.3 2.7c-.3 1.6-.7 3.5-.9 4.3-.3 1 .4 1.5 2.2 1.6 1.4.1 3.4.6 4.5 1.3 1.2.8 1.4 1.1.4 1-.8-.1-2.5.2-3.8.7l-2.3 1 2.1 2.2c2.7 2.8 7.9 3 10.2.2 1.6-1.8 1.6-2-.2-3.3-1.1-.8-2.3-2.9-2.7-4.8-.3-1.9-1.6-5.5-2.8-8.1-1.7-3.6-2.5-4.4-3.3-3.6M670.5 294.2c-2.8 8.7-4.4 20.5-2.5 19.3.6-.4.8-1.1.5-1.6-.4-.5-.1-.9.4-.9.6 0 1.1.4 1.1 1 0 .5.7.7 1.5.4 1-.4 1.5-2 1.5-5.1 0-3.4.3-4.4 1.4-4 .9.4 1.5-.6 2-3.1.3-2 1-5.6 1.5-8 .7-3.6.6-4.4-1-5.2-3.1-1.7-3.6-1.2-6.4 7.2M593 289.9c0 1.4-.5 1.8-1.8 1.4-4-1-4.2 1.9-.7 10.2 1.9 4.4 3.6 9.2 4 10.7.6 3.1 1.3 3.4 3.9 1.5 1.7-1.2 1.7-1.6.2-6.8-.9-3-1.5-6.6-1.5-7.9.3-3.4-1.9-11-3.1-11-.6 0-1 .9-1 1.9M72.3 698.8c-1.2.2-2.7 1-3.3 1.8-.7.8-2.2 1.4-3.4 1.4s-2.6.4-3.2.9c-.5.5-3.5 1.6-6.7 2.5-4.9 1.4-11.9 4.8-17.7 8.6-.8.6-3.7 2.1-6.5 3.5l-5 2.4 20.2.1c15.1 0 20.4-.3 21-1.3.8-1.3 6.8-5.7 7.8-5.7.3 0 2.8-1.6 5.5-3.6 5.4-3.8 5.9-5.7 1.9-6.2-1.3-.2-2.9-.9-3.4-1.5-1.7-2-4.9-3.3-7.2-2.9"/></svg>