<svg xmlns="http://www.w3.org/2000/svg" width="1706.667" height="960" viewBox="0 0 1280 720"><path d="M7.5 1.5c1.1.8 2.5 1.9 3.2 2.5.7.5 1.5 1 1.8 1 .4 0 2.1 1.1 3.8 2.4 1.8 1.3 5.7 3.1 8.7 4.1 9.3 3 11 3.7 11 4.5 0 .5 1.5 1.4 3.3 2 4 1.5 10.7 9 11.1 12.5.4 4.1 3.5 7 12.4 11.7 5.6 3 8.9 5.5 10.3 7.6 2 3.4 2.5 6.7 1 7.6-.4.3-1.1 1.8-1.4 3.4-.5 2.4-1.3 3-5.7 4-8.2 1.9-15.3.6-24.2-4.4C31.6 54 10.2 44 8 44c-1 0-3.2-1.2-4.7-2.6L.5 38.8.2 50.6c-.1 6.4.1 12 .5 12.3 1.3.9 4.3 8 4.3 9.9 0 1 .5 2.3 1.2 3 .8.8.5 1.4-1.6 2.2-1.5.5-3.2 1-3.7 1S0 87 0 98.4v19.5l4.2 1.9c2.4 1.1 6.3 2.5 8.8 3.2 8 2.1 13 4.1 12.5 5-.3.4.2 1.3 1 2 2.5 2.1 1.7 3-2.7 3-4.3 0-11.9-1.9-15.4-3.9-1.1-.5-3.4-1.4-5.1-2l-3.3-1v84.4l8.3 2.4c4.5 1.3 9.6 2.9 11.2 3.6 1.7.8 3.8 1.6 4.8 1.9 1.1.4 1.7 1.3 1.5 2.3-.3 1.5-1.4 1.8-7.3 1.7-3.9-.1-9.6-.9-12.7-1.7L0 219.2v8.9c0 7.5.3 8.9 1.6 8.9.9 0 3 .6 4.7 1.4 1.8.7 4.4 1.8 5.8 2.4 3 1.2 4.6 5.6 2.8 7.8-.9 1.1-2.7 1.2-8 .8l-6.9-.7v123.1l3.8-.5c3.6-.5 10.7 1.3 15.4 3.8 2.2 1.2 1.7 4.5-1.3 7-1.8 1.6-1.8 1.8 1.1 5.8 1.7 2.2 3 4.3 3 4.5 0 1.3-7.5 4.5-11.9 5.1-2.8.4-5.3 1.1-5.7 1.6-.3.5-1.4.9-2.5.9-1.7 0-1.9.7-1.9 8.1v8.1l6.3-.7c3.4-.4 7.7-1.3 9.6-2.1 4.2-1.7 8.1-1.8 8.2-.2.1.7 0 2.5-.1 3.9-.1 2.1.6 2.9 3.9 4.4s4.1 2.3 4.1 4.5c0 3.1 2.7 6 5.7 6 1.1 0 4.1-.6 6.7-1.4 9.8-3 13.1 2.7 5.5 9.3-3.8 3.3-5.8 3.9-21.3 7.1-8.6 1.8-12.6 3-12.6 4 0 .6-1.1 1-2.4 1-1.4 0-2.8.5-3.1 1.1-.4.6-1.9.7-3.6.4-4.8-1.1-6.9.2-6.9 4.1 0 4-.4 3.8 13 3.9 8 0 9.5.2 9.8 1.7.6 3-3 3.9-11.3 2.8-10.3-1.3-11.5-.6-11.5 6.4v5.4l3.8-.9c5.4-1.2 32.6-1.3 33-.1.2.6-1.9 1.7-4.5 2.5-4.5 1.5-23.3 4.9-25 4.6-.4-.1-2.3-.1-4 0L0 484v34.4c0 32 .1 34.5 1.8 34.9 1.6.4 1.6.5 0 .6-1.7.1-1.8 2-1.8 24.6v24.4l4.6-.1c2.5 0 5.1.5 5.7 1.1 1.4 1.4 3 1.5 2.2.1-.3-.5 0-.7.8-.4s2-.2 2.7-1.1c.7-.8 2.8-1.5 5-1.5 3.7 0 10-2.5 10-3.9 0-.4.6-.8 1.3-.8 1.6 0 6.7-3.3 6.7-4.3 0-.4 1.1-1.1 2.5-1.4 1.4-.4 2.5-1.1 2.5-1.6 0-.6.5-1 1.1-1 .5 0 .8.4.4.9-.3.5.4 1.2 1.5 1.6 1.1.3 2 1.2 2 1.9 0 2 3.5 4.7 4.6 3.6.5-.5 4.5-1.2 8.9-1.5 10.4-.7 11-.9 12.8-2.3 2.2-1.9 11.9-4.7 14.8-4.4 1.9.2 3.2 1.6 5.4 5.6 3.6 6.7 3 7.5-8 10.5-4.8 1.4-8.8 3.1-10.3 4.6-1.3 1.3-3.3 2.7-4.3 3-1.1.4-3.1 1.7-4.6 3.1-1.4 1.3-3.2 2.4-3.9 2.4s-1.8.9-2.4 2.1c-1.4 2.5-6.8 4.9-11 4.9-3.2 0-9 2.5-9 3.9 0 .4-1.1 1.4-2.5 2.1s-2.5 1.9-2.5 2.7-1.1 1.3-2.8 1.3c-1.5 0-4.4 1.1-6.4 2.5s-4.1 2.5-4.7 2.5c-1.1 0-6.1 5.7-6.1 7 0 .5.9 1 2 1.2 2.9.4 2.6 2.2-.4 2.6-2 .3-2.5-.2-3.1-2.8-.7-3-.7-3-5.8-2.5-2.9.4-6.2.8-7.4 1.1L0 646v32.4c0 31.9 0 32.4 2 31.9 1.1-.3 2-.9 2-1.3 0-.5.9-1.2 2-1.5s2-1.2 2-1.8c.1-2.2 15.1-13.3 16.3-12.1.2.3 1-.2 1.7-1.1.7-.8 2.3-1.5 3.6-1.5s2.4-.4 2.4-.9 1.2-1.3 2.7-1.9c6.2-2.1 13.3-5.8 13.3-6.8 0-.7.8-1.4 1.8-1.8 3.2-1.1 8.7-4.6 13.4-8.6 2.7-2.4 5.7-4 7.2-4 1.3 0 3.6-.4 5-1 1.4-.5 5.8-1.4 9.8-1.9s8-1.2 8.9-1.5c1.2-.5 2.3.6 4.2 4.4 2.6 4.9 3.6 11 1.9 11-1.2 0-6.7 5.3-7.4 7.2-.4.9-1.9 2.2-3.4 3-1.5.7-3.2 2.2-3.8 3.3s-1.7 2.4-2.4 2.8c-.7.5-1 1.2-.7 1.7s-1.6 2.5-4.2 4.4c-2.7 2-5.4 4-6 4.6-.9.8-1.9.8-3.3 0-1.7-.9-2-.8-2 .9 0 1.1-.6 2.1-1.3 2.4-.9.3-.8 1.1.5 3.3 1.5 2.8 1.5 3.1-.1 5.3-2.1 2.7-5.9 2.6-7.5-.4-1.5-2.7-3.8-4.4-5.8-4.5-2.2 0-6.8 4.3-6.8 6.4 0 1.4 1.6 1.6 12.6 1.6 12 0 12.8-.1 15.6-2.5 1.6-1.4 3.5-2.5 4.3-2.5.7 0 1.5-.6 1.8-1.4.6-1.6 15.3-8.9 21.7-10.8 2.8-.8 6.3-3.1 9.4-6.1 2.7-2.6 5.3-4.7 5.7-4.7s2.9-1.5 5.6-3.2c2.7-1.8 6.1-4 7.7-4.8 1.5-.8 4.2-2.7 5.9-4.2 10.4-8.8 13.3-11 17.3-12.9 4.2-1.9 4.7-1.9 7-.4 1.7 1.1 2.4 2.5 2.4 4.8 0 2.7-1.9 7.9-2 5.3 0-.5-1 .2-2.3 1.5-2.5 2.7-12.8 9.9-14.1 9.9-.5 0-3.8 2.2-7.5 4.9-3.6 2.7-8.9 6.2-11.8 7.7-12 6.7-16 9.4-20.5 14.3L100 720h43.7l-.4-2.5c-.9-4.3 1.1-5.9 33.6-28 4.9-3.3 11.1-8.3 13.7-11.1 2.7-2.8 5.9-5.4 7.2-5.8 1.2-.4 2.2-1.1 2.2-1.6s1.2-1.6 2.8-2.4c1.5-.8 4.1-2.6 5.7-4 1.7-1.5 5.3-3.9 8-5.5 2.8-1.6 7.2-5 9.9-7.4 2.8-2.5 6.7-5.3 8.8-6.3 3.6-1.6 3.9-1.6 5.8.1 2.5 2.3 2.6 6.5 0 9.7-1 1.4-5 4.6-8.7 7.1-3.7 2.6-8.3 6.1-10.1 7.8s-5.4 4.7-8 6.7c-2.6 1.9-5 4-5.4 4.6s-.8.8-.8.3c0-.6-3.4 1.2-6.5 3.5-.5.5-3.7 2.8-7 5.2s-8.4 6.3-11.3 8.5c-2.9 2.3-5.5 4.1-5.8 4.1s-1.2.6-2 1.2c-5.6 4.9-8.6 7.4-13.8 11.3l-5.9 4.5h70.4l2.6-3c1.3-1.6 3-3 3.7-3 .6 0 3.2-2 5.6-4.4 4.5-4.3 24.8-22.6 28.4-25.6 3-2.4 7.6-7.4 7.6-8.3 0-.4 1.8-.7 3.9-.7 3.5 0 4 .4 5 3.1 1.5 4.3-1.3 8.3-12.6 17.6-4 3.3-16.6 15.6-21.7 21.1l-3 3.2h117.3l1.6-3.3c.9-1.7 2.1-3.9 2.8-4.7 1.9-2.3 8.4-7 9-6.4.3.3 1-1 1.6-2.9.6-1.8 3.2-6.2 5.6-9.7 2.5-3.5 4.5-6.9 4.5-7.6 0-.6.7-1.7 1.5-2.4s1.5-1.9 1.5-2.6c0-.8.8-2.3 1.8-3.3.9-1.1 2.6-3.2 3.7-4.7s4.3-5.1 7.1-8.2c4.1-4.4 5.5-5.3 7.3-4.7 1.1.3 2.1 1.2 2.1 1.9 0 2-2.8 8.4-4 9.1-.6.3-2 2.5-3.1 4.8-1.2 2.3-2.5 4.4-2.9 4.7-.3.3-1.5 2.1-2.6 4-1 1.9-2.9 4.7-4.2 6.1-1.3 1.5-3.8 4.8-5.5 7.5-1.8 2.6-4.1 5.2-5.1 5.8-5.1 2.9-7 8-3.4 9.2 1 .3 1.8 1 1.8 1.5s1.3.9 2.8.9c2.7 0 11.5-6.5 16.2-11.9.9-1 3.6-3.1 6-4.6 2.5-1.5 4.7-3.1 5-3.5.3-.3 2-1.2 3.8-1.9 2.9-1.2 3.5-1.2 5.2.4 1.8 1.6 2.4 1.7 6 .5 2.1-.7 4.1-1.9 4.4-2.6.3-.8 1.1-1.4 1.7-1.4.7 0 3.9-2.8 7.1-6.2s5.8-5.8 5.8-5.2c.1.5.9-.7 2-2.6 1.5-2.7 1.8-5.2 1.6-11-.3-7.1-.5-7.8-3.9-11.4-1.9-2.2-5-6.9-6.8-10.5-1.9-4-5.8-9.3-9.7-13.2-6.2-6.4-8.2-10.1-11.2-20.4-1.4-4.9-4.7-13.8-6.4-17-.9-1.7-1.6-5.1-1.6-7.8 0-4.1.3-4.7 2.1-4.7 1.3 0 1.9.5 1.6 1.3s.8 1.9 2.5 2.6c2.5 1.1 3.2 1.1 3.9 0 1.2-1.9 1.8-.9 2.9 5 .7 3.6 1.8 5.9 3.4 7.2 1.4 1.1 2.5 3.3 2.8 5.6.3 2.1 2 7.5 3.7 12 3.8 9.8 10.5 17.2 15.6 17.3 2.3.1 3.5.9 5.3 3.6 1.2 2 2.2 4.1 2.2 4.8s3.3 6 7.3 11.7c6.9 9.8 7.5 10.4 10.6 10.2 1.8 0 3.8-.6 4.4-1.2 1.4-1.4 2.6-12.7 1.5-14.4s-1-15.7.1-15.7c.5 0 1.2 2.4 1.6 5.2.3 2.9 1.1 6.3 1.7 7.5.8 1.7.8 3.3 0 6.2-1.4 4.5-1.6 10.3-.3 11.7.5.5 1.3 4.1 1.9 8 .6 4.5 1.9 8.6 3.5 11 1.4 2.2 2.7 6.1 3.1 8.7.3 2.8 2.9 9.5 6.2 16.2l5.7 11.5-2.4 1.9-2.4 2 41.8.1H584l.1-2.8c.2-3.8.5-6.2 2.3-17.7 2.2-13.8 2-23-.4-28.3-2.3-5.1-1.2-9.2 2.6-9.2 2.8 0 4 1.7 1.7 2.3-1.7.4-1.7.5-.1.6 2.6.2 5.2-6.6 3.9-9.7-.6-1.3-1.1-4.5-1.1-7.1 0-4.1.4-5.1 2.5-6.5 1.3-.9 3.2-1.6 4.2-1.6 2.1 0 5.3-3.3 5.3-5.5 0-.8.6-1.8 1.4-2.2 3.3-2 4.9-10 2.3-12.1-1.7-1.4-13.8-2.5-15.4-1.4-1.8 1.2-3.2 9.7-2.6 15.9.5 4.3.3 5.3-1 5.3-1.8 0-2.7-2.1-2.7-6 0-4.3-1-6-3.5-6-1.5 0-2.5-.7-2.8-2.1-.4-1.4-1.1-2-2.1-1.6-.9.4-1.9 0-2.3-.7-.5-.7-2.5-2.1-4.5-3.1-3.4-1.5-4.5-1.6-10.3-.5l-6.5 1.2v5.7c0 5.5-3.2 16.2-4.3 14.5-1.3-2.1-1.1-16.2.2-17.8 1.1-1.3 1.1-2.2.3-4.1-2-4.4-6.8-2.1-7.8 3.6-.8 4.5-2.5 8.9-3.4 8.9-1.3 0-1.9 4.1-.9 6.7.5 1.4 1.8 2.7 2.8 3s2.7 2.2 3.6 4.4c1.3 2.8 2.4 3.9 4 3.9 2.3 0 4.1 2.5 2.6 3.4-1.7 1.1-8.2-1.6-9.8-4-1-1.4-2.5-3.4-3.3-4.3-.9-.9-2.6-3.3-3.8-5.3-1.9-3-2.1-4.1-1.2-5.8.6-1.1 1.5-2 2-2 1.4 0 1.2-1.6-.4-3.3-.9-.9-1.1-1.9-.5-2.8.7-1.2.9-1.2.9 0 0 .8.2 1.2.5.9s.3-2.4-.1-4.7c-.7-4.4-2.7-5.4-4.9-2.5-1 1.4-1.5 1.5-3.6.4-1.3-.7-3-2.2-3.7-3.2-1.1-1.5-1.7-1.6-2.8-.7-.7.6-1.2 1.5-.9 1.9s-.2 1.1-1 1.4c-1.7.6-3.1-1.7-2-3.4.4-.6-.4-1-2-1-1.5 0-3.5-.5-4.6-1.1-1.6-.8-2-.7-1.8.3.4 1.9-1 6.8-2 6.8-1.5 0 .8-9.2 2.6-10.6 1.4-1 1.9-3.1 2.1-9.7.3-6.6.7-8.4 1.7-8.1.8.3 2.1-.6 3-2 2-3 4.3-3.4 4.1-.9-.1 1.3.7 1.8 2.9 1.9 1.7 0 4.1.4 5.3.8 1.7.6 3 .3 4.5-1.1 5.8-4.8 10.7-5.3 10.7-.9 0 2.5 4.3 7 7.7 8 2.5.8 4.3-1.6 4.3-5.7 0-3-1-4-2.6-2.6-1.8 1.5-5.4-1-5.4-3.8 0-3.1 3.7-5.2 8-4.6l3.6.5-.4 6.4c-.3 4.4-.1 6.4.7 6.4.6 0 1.6 1 2.2 2.3s1.6 2.4 2.2 2.5c4.2.3 9.2 1.4 10.7 2.2 1 .6 3 1 4.4 1 2.4 0 2.6-.4 2.7-4.8.3-7.8.4-8.2 1.5-9 .6-.4 1.4-1.4 1.7-2.2s.6 2.3.7 7 .4 7.9.7 7.2c.8-1.9 2.3-1.4 2.3.8 0 2.4 2.6 2.6 5.6.5 1.4-.9 2-2.2 1.7-3.7-.2-1.3.3-3.9 1.1-5.8 1.5-3.5 1.5-3.5 1.6-.7 0 1.7 1 3.8 2.6 5.2 1.7 1.6 2.2 2.5 1.3 2.5-2.4 0 1.3 2 3.8 2 1.2 0 3.1.9 4.2 2.1l1.9 2.1 1.1-2c.6-1.1.8-2.7.5-3.5s-.1-1.8.5-2.2c.7-.3 1.1.2 1.1 1.4 0 1.7.6 2.1 3.4 2.1 3 0 3.5-.4 3.9-2.8s.4-2.4.6.6c.2 4.8 2.9 7.8 6.6 7.4 1.7-.2 3.5-.8 4.2-1.3.7-.7 1.2-.6 1.5.2.5 1.6 9.4 1.5 11.3-.1.8-.7 1.7-2.7 2.1-4.6.8-4.2 2.4-4.5 2.4-.4q0 3 1.5 3c.8 0 1.5-.7 1.5-1.5 0-1.2.6-1.1 3.4.4 4.1 2.4 7.2 1.8 8-1.5.4-1.3 1.3-2.4 2.1-2.4s1.5-.7 1.5-1.5.7-1.5 1.5-1.5c.9 0 1.8-.7 2.1-1.5.7-1.8 3.4-2 3.5-.3 0 .7.6-.5 1.3-2.7 1.1-3.5 1.4-3.7 2.1-2 .5 1.1 1.2 2.3 1.7 2.6s.9 2.6 1 5.2c0 2.5.3 4.6.7 4.5 2.5-.3 5.2.4 6.5 1.8 2.4 2.3 3.3 1 4.1-5.8.9-7.6 2.4-11.1 2.5-5.5 0 4.7 2.3 9.3 5 10 1.1.3 2 .2 2-.3 0-.4 1.7-1.1 3.8-1.5 4.2-.8 7.2-3 7.2-5.5 0-.9-1.3-2.9-2.9-4.4-2.3-2.2-2.7-3.3-2.2-5.4.4-1.5 1-2.6 1.4-2.5.4.2 1.3.3 2 .3 1.2 0 4.7 7.3 4.7 10.1 0 1.8 3.2 3.5 8.7 4.5 2.1.3 4.3 1.1 5 1.6 1.9 1.5 2.5-2.5.9-6.3-1.2-2.9-1.9-3.3-5-3.5-3.3-.1-7.6-2.6-7.6-4.6 0-1.4 8.7-.9 9.9.6.7.8 3.8 2.2 6.9 3.1 3.1 1 7.2 2.2 8.9 2.7 1.8.5 3.5 1.4 3.8 1.9 1 1.6 8.5 1.1 8.5-.5 0-.8-.4-1.8-1-2.1-.5-.3-1-1.8-.9-3.3 0-2.5.1-2.6 1.2-.8.7 1.1 2.6 3.4 4.4 5.2 3 3.2 3.1 3.5 2.8 11.1-.2 8-2.7 15.8-5.3 16.8-.7.3-2.2 0-3.2-.5-1-.6-4.1-1-6.8-1-3.8 0-5.3.5-7.1 2.4-2 2.1-2.1 2.9-1.3 7.5.5 2.9.6 5.4.1 5.7s-.9 1.3-.9 2.3c0 3-3.3 5.2-6.7 4.5-3-.6-3.1-.5-3.8 3.7-.3 2.4-.9 5.2-1.1 6.1-.7 2.3-3.4 2.3-3.4.1 0-2.5-1.8-.3-2.2 2.7-.2 2.1-.9 2.6-4 2.8-2.8.2-3.8.8-3.8 2-.1 2.2-3.4 6.2-5.2 6.2-.7 0-1.9.9-2.5 1.9-1.3 2.1-4.4 2.1-6.8.1-.8-.6-3.1-1-5.2-.8-3.6.3-3.8.5-4.5 4.8-.6 3.4-.1 8.3 2.3 20.5 1.7 8.8 3.7 18.2 4.6 20.8 1.4 4.3 1.2 7-.3 5.5-.8-.9-3.4-13.2-6.3-30.3-.6-3-1.7-6.9-2.5-8.7s-2-5.7-2.7-8.6c-1.2-4.9-1.4-5.1-2.5-3-.7 1.3-.9 2.9-.4 3.8.8 1.7-.4 6-1.8 6-.5 0-1.7-.9-2.7-2-2.5-2.8-6.9-2.6-8.2.3l-1.1 2.2-1.1-2.7c-.9-2.5-1.5-2.7-5.6-2.6-2.5.1-4.5.5-4.5.9 0 1-5.8 1.7-6.7.8-.5-.4-3.6-1.1-7-1.7l-6.3-.9-.1 8.6c0 4.7-.4 10.4-.8 12.6-.6 3.4-.8 2.6-1.3-5.5-.4-7.4-1-10.3-2.8-13.3s-2.7-3.6-4.3-3.1c-1.1.3-5.5.7-9.8.8-5.7.2-8.4.7-9.7 1.9-1 .9-2.9 1.7-4.1 1.7-2 0-2.2-.4-2-5.5.3-6.1-.1-6.8-2.5-5.9-.9.4-1.6 1.7-1.6 3.4 0 1.9-.9 3.6-2.5 4.8-1.4 1.1-2.5 2.6-2.5 3.4 0 .7-.9 3-2 5-1.2 2.3-2.4 7.5-3.1 13.5-.6 5.4-1.5 12-2 14.7s-.9 6.6-.9 8.7v3.9h50.5l-.3-9.2c-.2-6.5 0-8.9.8-7.8.5.8 1 4.3 1 7.7s.3 6.8.6 7.7c.6 1.4 7.3 1.6 66.1 1.6 56.4 0 65.4-.2 65-1.4-.3-.8-.1-5.5.6-10.5.8-6.9 1.5-9 2.5-8.8 2.5.4 5.3-4.5 4.6-8.1-.4-1.7-1.1-2.9-1.6-2.6-.5.4-.8-.4-.6-1.7.2-2 .8-2.3 3.1-2.1 4.2.5 13.7-6.3 13.7-9.7 0-.9 1.2-2.9 2.6-4.5 2.6-2.7 2.7-3.3 2.9-16 .2-7.2.3-13.6.4-14.1.3-1.8 3 3.9 3.1 6.3.1 6.8 5.2 8.2 10.3 2.9 1.8-1.9 4.1-3.7 5.2-4.1 2-.8 2-.8-.2-2.3-2.8-1.9-3.3-8.7-.7-9.7 1.3-.5 1.5-1.5 1-5.1-.6-3.7-.4-4.5.8-4.5s1.6-1 1.6-3.5c0-2.4.5-3.5 1.5-3.5 2.2 0 2.9 4.4 1.1 7.7-1.4 2.8-1.3 3.2.7 6.1 2.9 4.2 5 4 6.7-.4.8-1.9 2.6-4.2 4-5 4.2-2.5 6.6-9.3 3.3-9-1.5.1-1.9-.9-2.1-5.9-.4-7.6 1.3-13.4 3.8-12.8 1 .3 2.3 1.6 2.9 3 .6 1.3 1.7 2.3 2.4 2.1.9-.4 2.6-6.9 3.6-14.1.1-.5.6-.5 1.1-.2.6.3 1-.5 1-1.9 0-1.3.6-3.7 1.4-5.3.8-1.5 2.5-5.4 3.8-8.5 2.4-5.9 3.8-7.3 3.8-3.8 0 2.3 2.2 2.7 3.9.7.6-.8 1.4-2.9 1.7-4.8.4-1.9 1-3.9 1.4-4.4 1.3-1.8 3.9-10.9 4.5-16.3.4-3 1.3-6.6 2.1-8 .8-1.6 1.4-5.7 1.4-9.7 0-3.9.4-7.7.9-8.4 1.5-2.3-.6-5.4-2.7-4.2-1.8 1-1.8 1.1-2 8.3-.2 3.9-.5 4.6-1.8 4.1s-1.5-.2-.9 1.5c.4 1.3.2 2.2-.4 2.2-1.4 0-1.4-7.7-.1-8.5.5-.3 1-1.9 1-3.5s.5-3.2 1-3.5c.6-.3 1-2 1-3.6 0-2.9 2.2-6.4 3.3-5.3.3.4.8-1.1 1.2-3.2.3-2.2 1-5.5 1.5-7.5.6-2 1-5.2 1-7.1 0-2 .6-5.3 1.4-7.4.7-2.2 1.6-8.1 2-13.3.8-10.4 2.5-18.2 5.3-23.2 1.4-2.7 1.7-5.4 1.6-13.8-.2-10.2.8-13.9 4.1-16.2.5-.4 1.3-2.9 1.7-5.5 2-11.8 2.1-14.9.5-19.4-.9-2.5-1.6-6.5-1.6-8.9 0-3.7.3-4.3 1.8-3.9 1.4.4 2.4-.6 4.1-4.4 2-4.4 2.2-5.5 1.1-9.2-.6-2.2-1.2-5.6-1.2-7.3-.1-2.3-.7-3.4-2.1-3.9-2.2-.7-6.7-5.1-6.7-6.5s1.2-1.1 4.9 1.2c3.8 2.3 3.8 2.3 4.5-1.4.2-1.4.7-3 .9-3.4.3-.5 0-1.9-.5-3.3-.7-2-1.1-2.2-1.8-1-.8 1.3-1 1.2-1-.3 0-1-.7-3.1-1.5-4.7-1.4-2.7-1.4-3.1.1-4.9.9-1.1 2.3-1.7 3-1.4 1.7.6 1.7.4-.1-8.6-2.4-11.3-4-13.2-7.5-9.1-1.3 1.5-1.6 3.1-1.2 6.2.4 3.7.2 4.1-1 3-.8-.6-3.6-1.5-6.2-1.8-3.5-.5-4.6-.4-4.6.7-.1 1-.5.9-1.4-.4-1.1-1.4-2.5-1.7-6.8-1.5-2.9.2-5.2.7-5 1.3.2.5 1.2.9 2.3.8 2.6-.4 2.5 2.7-.1 3.4-1.1.3-1.8.9-1.5 1.3s-.2 1.1-1.1 1.4c-1.3.5-1.5.2-1.1-1.4.4-1.7 0-2-2.3-2-1.6 0-3.2.5-3.6 1.2s-.3.8.4.4 1.2-.1 1.2.8.5 1.6 1.2 1.6c.6 0 2.6 1.1 4.4 2.5 1.7 1.3 5.4 3 8.1 3.7 5.3 1.3 8.3 3.3 8.3 5.6 0 1.2-.3 1.2-1.5.2-.8-.7-1.5-.9-1.5-.6 0 .4-1.2-.2-2.8-1.2-1.5-1.1-5.4-2.8-8.7-3.7-3.3-1-6.7-2.2-7.6-2.8-1.2-.8-2.2-.5-4 1.1-1.2 1.2-1.8 2.2-1.1 2.2.6 0 1.4-.5 1.7-1 .9-1.4 4.5-1.3 4.5.2 0 .6-1.1 2.6-2.5 4.4s-2.5 3.9-2.5 4.7-1.1 1.8-2.5 2.1c-1.4.4-2.5 1.1-2.5 1.7s-1.1 2.4-2.5 4.1c-1.4 1.6-2.5 3.6-2.5 4.3 0 .8-1 1.7-2.2 2-3.4 1.1-8.8 5.4-8.8 7.1 0 1.6-1.1 1.8-2.6.5-.9-.9-12.5 1.6-13.4 2.9-.4.6-17 2.2-21 2-.8 0-6.4-.4-12.5-.8-6.8-.5-12.3-.4-14.3.2-2.8.8-3.6.7-4.3-.6-.5-.9-2.4-2-4.2-2.3-1.7-.4-3.4-1-3.7-1.4-.7-.8-13.3-4.1-15.9-4.1-1.3 0-2.1.6-2.1 1.7 0 2.6 15.7 8 25.2 8.8 2.6.2 5.3.7 5.9 1.1 1.7 1 18.8 4.4 22.5 4.4 1.8 0 3.8.8 4.9 2 1.8 2 1.7 2-.8 2-1.4 0-3.8-.5-5.3-1-3.8-1.5-23.2-5.2-25.2-4.8-.9.1-2.1 0-2.7-.3-.5-.4-3.7-1.4-7-2.4-3.3-.9-7.2-2.2-8.7-2.7-1.5-.6-4.8-1.2-7.3-1.3-2.6-.2-5.4-1-6.4-1.9s-3.1-1.8-4.7-2-4.9-1.1-7.3-2c-3.1-1.1-4.8-1.3-5.6-.6-.9.8-1.4.4-1.9-1.4-.8-3.2-11.6-9.4-11.6-6.7 0 .9.7 2.7 1.6 3.9 2.3 3.4.9 3.9-2.2.9-2.6-2.6-5.1-3.7-3.9-1.7.3.6.1 1-.4 1-2.8 0-.3 3.6 8.2 12.2 5.5 5.5 13 11.8 18.7 15.5 10 6.5 18.1 12.5 17.6 13-.6.6-7.2-2.6-9.6-4.7-3.3-2.9-18.6-13-19.7-13-.8 0-6.3-6.4-6.3-7.4s-11.5-11.4-12.2-11c-.5.3-.8 6-.8 12.8v12.3l12.2 11.7c6.6 6.4 11.8 11.9 11.4 12.3s-2.6-1.3-4.9-3.9-8.5-8.6-13.7-13.3c-8.5-7.8-13.4-13.1-10.1-11.1.6.4 1.1.1 1.2-.6 0-.7.4-.4.8.7.5 1.2 1-2.5 1.4-9.5.5-9.2.3-13-1.1-18.8-1-4-2.1-7-2.5-6.6-.8.8-1-2.4-.7-11.9.1-5.5-.1-6.7-1.4-6.7-1 0-1.6.9-1.6 2.5 0 3.8-1.7 3-2.2-1.1-.4-3-.2-3.5 1.4-3.1 2.7.7 2.2-.1-1.2-1.8l-3.1-1.6.7 2.6c1 4.1 1 78.4 0 77.7-.5-.3-.6.9-.2 2.9.4 1.9.9 7.4 1.3 12.4.5 8.9 1.7 12 5.4 14.3 1.4.9 1.6.4 1.6-4.1.1-2.9-.6-6.4-1.3-8-.8-1.5-1-2.7-.5-2.7s1.2.6 1.4 1.2c.3.7.6.3.6-1 .1-1.2.6-2.2 1.2-2.2.7 0 .8 2.5.4 7.9-.6 6.2-.4 8.3.8 10.2.8 1.3 1.8 3.9 2.2 5.6.4 1.8 1.1 3.3 1.6 3.3s.9.8.9 1.7c0 1.4-.6 1.1-2.5-1.2l-2.4-3-.1 4.1c0 3.7.3 4.3 3 5.4 1.6.7 3 1.6 3 2.1 0 1.3 6 7.4 6.1 6.3.5-3.8-2.6-13-4.7-13.8-1.3-.5-2-3.6-.9-3.6.6 0 3.3 2.7 7.5 7.5 1.9 2.1 2.1 2.7.8 2.2-1.4-.5-1.8-.1-1.8 1.8 0 1.4.5 2.5 1.1 2.5.7 0 .9 1 .7 2.4-.3 1.5-.1 2.3.6 2 1.6-.6 6.2 8.1 8.1 15.6 2.3 8.6 1.5 22.7-1.5 29.1-4.3 8.8-5.5 10.9-6.7 10.9-.7 0-1.3.4-1.3.9s-1.7 1.6-3.7 2.6c-7.7 3.4-10.3 4.9-10.3 5.7 0 .4-.8 1.6-1.8 2.6-2 2-4.2 1.8-4.2-.3 0-1.6-1.6-2.2-6-2.1-3.3.1-3.5.3-3.3 3.1.4 4.4-.9 6.7-1.6 3-.3-1.7-1.1-2.9-1.6-2.8-.6.1-1.3-.6-1.7-1.6-.5-1.4-1.3-1.7-3.3-1.3-1.7.3-2.4.9-2.1 1.9.3.8.1 1.1-.4.8-.6-.3-1 0-1 .9 0 .8-1.3 1.7-3 2.1-1.8.4-3.2 1.5-3.6 2.8-1.1 3.6-2.6 5-3.5 3.5-.7-1-.9-.9-.9.4 0 .9.5 2 1 2.3.6.3.9 1.8.9 3.3l-.1 2.7-.8-3-.8-3-.1 3.2c0 1.8-.5 3.3-1 3.3-.4 0-.4 2.4 0 5.2 1.2 7.6 1.3 19.8.2 20.9-.7.7-1-1.8-1.1-7.1-.1-4.4-.7-10.2-1.3-12.8s-1.3-7.2-1.4-10.2c-.4-8.2-1.9-11.2-5.3-10.8l-2.7.3-.6 11c-.3 6-.6 9.2-.8 7s-.2-5.1-.1-6.4c.1-1.4-.1-4.8-.5-7.8-.5-4.4-1-5.3-2.6-5.3-2.5 0-4.9 2.3-4.9 4.5 0 .9-.4 1.3-1 1-.6-.4-1.1 1.3-1.2 4.2-.2 5.5-.2 5.6-1.3 13.8-1.3 9-2.3 3.1-1.2-6.8.6-4.9.6-8.2 0-8.6-.5-.3-1.2-1.4-1.6-2.4-.5-1.3-1.3-1.6-2.7-1.2s-2 .2-2-.8c0-.8-.7-1.7-1.5-2.1-.8-.3-1.5-1.1-1.5-1.7 0-1.6-4.9-7.9-6.1-7.9-.6 0-.7.4-.4 1 .4.6-.6 1-2.3 1-2.2 0-3.1.6-3.6 2.2-.6 2.2-.6 2.2-2.1-.7-.9-1.6-1.7-3.1-1.9-3.2-.1-.2-2.5.8-5.2 2.1s-5.1 2-5.2 1.5c-.2-.5-.8-.7-1.3-.3-.5.3-.9 0-.9-.6 0-1.7-2.6-4-4.7-4-2.9-.1-8.9-5-13.2-10.8-5.5-7.4-6.7-14.8-5.7-34.5 0-1.5.3-2.7.6-2.7s.6-1.9.6-4.1c.1-2.9.7-4.5 1.9-5.2.9-.5 2.6-1.8 3.6-2.8s2.1-1.4 2.4-.8c.4.5 1.1.6 1.7.3.7-.4.6-.9-.1-1.4-.8-.5-.7-1.5.4-3.6 1.2-2.3 1.5-2.5 1.5-.9 0 1.7.3 1.6 1.8-.7 1.7-2.8 4.2-3.8 4.2-1.6 0 3.2 1.2-.7 1.5-4.7.3-5-1.1-5.6-3.2-1.4-.8 1.4-1.3 1.8-1.3.9-.1-1-.5-.7-1.3.8-.7 1.2-1.6 2-1.9 1.7-.8-.8-8.9 9.6-8.2 10.6.3.5.1.9-.5.9-.5 0-2.4 1.2-4.3 2.7l-3.3 2.8 2.2-2.9c1.3-1.5 2.5-4.4 2.9-6.3.5-2.8 1-3.4 2.5-3 1.1.3 1.9.2 1.9-.1 0-.7 6.7-7.7 9.2-9.8.7-.5 2.1-1.3 3.1-1.7.9-.4 2-1.5 2.4-2.4.4-1 2.8-3.8 5.5-6.2 5.3-4.9 7-9 6.8-16.9 0-2.6.2-10.3.6-17.2.7-12.3.9-19.6.5-23.5-.1-1.1-.2-9.1-.1-17.7s-.2-16.3-.6-17c-1.2-1.8-1.6-5-.6-4.4.4.2.9-2.6 1-6.3.3-6.8.3-6.8-2.1-6.4-3 .6-4.7 4-4.7 9.5 0 3 .3 3.9 1.4 3.5 2.7-1 2.5.6-.3 3.8-1.9 2.2-3.2 5.2-4 9.4-1.1 5.8-1.7 6.6-8.3 12.9-3.9 3.7-8.7 8.4-10.6 10.4-1.9 2.1-3.9 3.8-4.4 3.8s-3.7 2.1-7.1 4.8c-11.3 8.7-16.6 12.1-19.4 12.7l-2.8.6 2.8-1.6c1.5-.9 2.7-2 2.7-2.4 0-.5 1.2-1.3 2.8-1.9 3.3-1.2 16-11 22-17 2.3-2.4 4.2-3.9 4.2-3.5s2.7-1.9 6-5.2c6.1-6.1 7.4-8.9 4.2-9.7-1.9-.5-2.3-.2-6.7 5.6-3.1 4.1-11.5 11-12.3 10.1-.6-.6 5.8-6.5 7-6.5 1.3 0 8.8-12.1 8.8-14.2 0-1.1.7-2.6 1.5-3.5.9-.8 1.4-1.7 1.1-2-.2-.2-2.6 1.6-5.3 4-9.3 8.7-11.9 10.5-17.3 12.2-3 .9-8.9 2.8-13 4-13.5 4.3-20.4 6.3-23.9 7-1.8.4-4.1 1.5-5.2 2.6-1 1-2.1 1.4-2.4.9-.4-.6-2.3-1-4.3-1s-4.4-.5-5.2-1c-1.1-.7-.5-1 2.3-1 3 0 3.7-.4 3.7-2 0-1.9-.7-2-10.3-2-9.7 0-12.7.8-12.7 3.2 0 .4 1.5 1.4 3.3 2.2l3.2 1.4-3.1.1c-1.7.1-3.4.4-3.7.7-1.1 1.2 1.2 4.2 3.5 4.7 1.3.2.6.5-1.7.6-2.3 0-4.6.6-5.3 1.3-.9.9-1.2.7-1.2-1 0-2.1-.4-2.2-10.2-2.3-8.5-.1-9.5-.3-5.8-1 2.5-.4 7.1-.8 10.2-.8 6-.1 8.2-1.6 5.5-3.6-2.3-1.7-2.1-2.5.5-2.2 2.6.2 3.2-2.4.8-3.5-1.9-.8-13.3-1-15.4-.2-2.3.9-2 2.1.7 3 1.9.7 1.7.9-1.8 1.5-4.8.8-5 .7-3.4-2 1.8-2.7.8-3.4-6.4-4.3-11.2-1.5-11.2-1.5-11.5.8-.2 1.2-1.1 2.5-2 2.8s-2.2.8-2.8 1.1q-1.2.6-.6-2.1c.3-1.5 1.3-2.9 2.4-3.2 1.5-.4 1.8-1.2 1.6-4-.3-3.1-.7-3.7-3.5-4.4-1.8-.5-3.3-1.3-3.3-1.8v-1.5c0-.8-2.9-4.1-8.6-9.8-5.2-5.3-8.8-10.9-7.7-12.1 1.8-1.7-9.5 2.2-12.9 4.5-1.4 1.1-3.2 1.9-3.8 1.9-1.7 0-10.4 7.5-17.6 15.2-2.3 2.4-4.3 8.7-4.3 13.3 0 5.8 2.3 15.8 3.7 16.3 1.7.5 1.6 9.3 0 8.9-1.7-.3-1.2 7.1 1.3 19.3 1.1 5.2 2.6 13.8 3.4 19.1.7 5.3 2.5 12.5 4 16 4.6 10.8 5.7 17 4.6 25.4-.9 7.5-.1 14.2 1.8 15.4 1.6 1.1 3.6 26.7 2.3 29.7-.7 1.4-1.2 3.5-1.2 4.7 0 2.4 3 8.9 5.3 11.6 1 1.1 1.7 5.5 2.1 13.6.7 12.1 1.2 15 3.9 23.7l1.5 4.8-2.8 1.3c-2.4 1.3-2.8 1.2-3.9-.4-.6-1-1.1-2.5-1.1-3.3s-1.1-3.6-2.4-6.3c-1.3-2.6-2.7-6.6-3.1-8.8-.7-4.5-3.9-14.7-6.6-21.5-2-5.1-4.5-22.1-3.6-24.5.4-.8 0-6.8-.9-13.3-1.9-13.9-4.9-20.6-9.4-21.6-3.2-.6-12.6-9.4-15.9-14.8-1.6-2.6-2.4-6.3-3.1-13.5-2-20.4-3.2-25.5-7.8-32.1-2.7-3.8-4.2-10.9-4.2-19.4 0-5.5-.8-9.5-3-16-1.7-4.8-3.4-12-4-16-1-7.3-4.1-21.2-6.6-29.8-.9-3.3-1.2-8.9-.8-20.8.5-15 .4-16.6-1.5-19.7-2.2-3.8-2.4-4.7-2.2-12.8.1-5.2.3-5.8 2.7-6.7 1.4-.6 4-2.1 5.8-3.5s3.8-2.5 4.4-2.5c.7 0 1.2-.5 1.2-1 0-1.7 8.8-1.1 13.3.9 6.1 2.7 7.4 3 8.3 2.1.5-.5.6-7.5.2-15.7-2.4-51.8-2.7-65-1.8-85.6 1.1-24.1.8-25.6-4.7-29.2-3.1-2.1-18.6-15.6-19.1-16.8-.2-.4-.7-.7-1.2-.7s-3.7-2.7-7.2-6c-3.5-3.2-7.6-6.5-9.3-7.2-3.7-1.5-8.5-6.4-8.5-8.7.1-10 7-8.4 22 4.9 15.3 13.6 30.4 25 31.6 23.7.1-.1.5-2.5.8-5.2.4-2.8 1-7.3 1.5-10 .5-2.8 1.5-8.4 2.1-12.5s2.3-10 3.7-13 3.5-7.8 4.8-10.5c1.3-2.8 2.9-7.9 3.5-11.5 1.7-10.4 2.2-12.4 3.2-13.7.5-.7.7-1.7.4-2.2-.4-.5-.2-1.2.4-1.6.5-.3 1-3 1-6 0-6 .7-8.5 2.4-8.5.6 0 2.8-1.1 4.9-2.5 2-1.4 3.7-2.2 3.7-1.8.2 2.3 4.2-10 5-15 .6-3.7 1.8-7.1 3.5-9.3l2.6-3.4h-76.3c-69 0-76 .2-73.3 1.5 3 1.6 14.8 13.5 16.6 16.8.6 1 1.4 1.5 1.9 1.2.4-.3 3.9 2.6 7.7 6.4 3.7 3.8 14 13.8 22.8 22.2C324.6 61.6 329 66.6 329 68.9c0 .3-.9 1.2-2 1.9-2.7 1.7-5.4-.2-18-12.4-5.2-5-14.4-13.5-20.3-18.8-11.5-10.1-14-12.8-15.1-16.3-.4-1.2-2.3-2.8-4.4-3.7-4.4-1.8-13.6-10.2-12.7-11.6.3-.6.2-1-.4-1-1.9 0-3.4-4-2-5.6 1-1.2-9.9-1.4-82.5-1.4H88l2 2c1.1 1.1 2.4 2 2.8 2 .5 0 3 2.1 5.6 4.7 3.6 3.5 4.6 5.2 4.4 7.2-.2 1.9-1 2.7-2.7 2.9-2.5.4-10.1-2.6-10.1-3.9 0-.4-.9-1.1-2-1.4-1.1-.4-5.9-3.5-10.6-7.1L68.9 0H37.2C9.4.1 5.7.2 7.5 1.5m168.8 66.8c6.2 3 11.9 6 12.7 6.8 2.3 2.3 10.7 7.9 11.8 7.9.6 0 1.2.3 1.4.7.2.5 2.8 2.1 5.8 3.7s6.6 4 7.9 5.2c1.2 1.3 3.3 2.6 4.5 3 1.1.3 2.9 1.3 3.9 2.2 1.9 1.7 3.2 2.5 9.8 6.1 2.4 1.3 6.2 3.6 8.4 5.1 7.5 5.1 15.3 10 16 10 .4 0 2.4 1.3 4.5 3 2.1 1.6 4.1 3 4.6 3 3.3 0 6 7.9 3.3 9.6-.8.4-.7.9.2 1.5 2.2 1.4-5.6 1.1-8.8-.3-1.5-.7-4.1-2.2-5.6-3.5-3.5-2.8-21.8-12-27.5-13.8-2.7-.8-4.4-1-4.8-.3-1.2 1.9-13.7-1.1-16.5-3.9-.9-.9-4.9-.7-4.9.1 0 1 9.8 10.6 10.8 10.6.6 0 1.2.4 1.2.8 0 .5 1.1 1.5 2.5 2.2 2.2 1.2 2.5 2 2.5 6.4 0 4.3-.8 6.4-5 13.6-2.7 4.7-5 8.9-5 9.3s-.9 2.1-2.1 3.6c-2.8 3.8-1.5 5.7 6.2 9.6 3.3 1.6 5.9 3.3 5.9 3.7s1.8 1.1 4.1 1.4c2.2.4 4.3 1.3 4.6 2 .3.8 1 1.4 1.7 1.4.6 0 2.4 1.9 4 4.2 1.7 2.3 2.4 3.8 1.6 3.3-.7-.4-2.7-.9-4.5-1.1-1.7-.1-6.1-1.3-9.6-2.7-3.9-1.5-8.5-2.6-11.9-2.6-7-.1-10.5-.9-14.7-3.2-1.8-1-3.5-1.9-3.8-1.8-.3 0-3.6-1.4-7.3-3.2-3.7-1.7-7.1-3.2-7.7-3.3-.5-.2-2.7-1-4.9-1.9-2.1-.9-4.3-1.7-4.8-1.7-.8 0-20.2-9.8-23.8-12-.8-.5-4.9-2.1-9-3.5-9.4-3.3-16.6-9.1-15.5-12.5.7-2.1 1.1-2.2 6.9-1.8 5.9.5 17.5 4.5 30.4 10.4 7.5 3.4 11.6 3.2 15.3-.8 1.6-1.8 2.9-3.9 2.9-4.6 0-.9.6-1.2 1.6-.8.9.3 2.4.6 3.4.6s2.1.8 2.4 1.7c1.1 3.4 7.4 6.4 14.4 7l6.7.5 4.8-5c4.7-5.1 5.2-6.6 4.1-11-.5-1.5-1.4-2.2-3.1-2.2-1.4 0-6.3-2-11-4.5-6.9-3.7-9.1-4.4-11.8-3.9-3.5.6-8-1.1-7-2.6.7-1.1-4.9-6.2-11.2-10.2-2.5-1.6-5.9-4.2-7.6-5.9-1.8-1.7-5.2-3.9-7.7-5-7.9-3.4-20.4-10.1-23.3-12.6-1.6-1.2-3.7-2.3-4.8-2.3-2.7 0-24.8-10.6-25.4-12.2-2.1-6.4 1-7.4 8.9-2.9 2.9 1.7 5.8 3.1 6.5 3.1.6 0 6.2 2.7 12.3 6.1 31.4 17 48 24.3 56.3 25 3.9.4 3.9.3 4.2-3.1.2-3.5-1.4-9-2.6-9-.4 0-1.6-.8-2.7-1.8-2.5-2.2-13.1-9.2-14.1-9.2-1.9-.1-11.3-10.2-11.3-12.1 0-.3 1-1.8 2.1-3.3 2.7-3.4 3.4-3.3 18.2 3.7m-46.9 109.8c6.1 1.8 12.9 4.2 15.1 5.5 5.3 3 13.3 5.9 22.5 8 9.1 2.1 25.9 9.8 26.6 12.2.3.9.9 2.4 1.3 3.2 2.7 5.6-4.6 7.3-13.4 3.1-3.3-1.6-9.4-3.6-13.5-4.6-4.1-.9-10-2.7-13-4s-7.3-2.9-9.5-3.6c-6.4-2-19.4-7-26.8-10.3-8.3-3.7-10.7-7.1-7.4-10.5 2.8-2.8 5-2.7 18.1 1m84.4 82.3c2.9.8 7 2.3 9.1 3.4 2.6 1.4 7.7 2.4 16.9 3.3 10.5 1 13.5 1.6 14.8 3.1 1 1.1 1.2 1.8.6 1.8-.7 0-1.2.6-1.2 1.4 0 2.7-5.7 2.9-12.8.5-3.7-1.3-7.5-3-8.5-3.8-1.8-1.5-7.4-2.6-18.7-3.7-6.4-.6-10-2.4-10-5 0-1.2 1.5-2.2 3.5-2.3.6 0 3.4.6 6.3 1.3m94.4 57.3c.8 1 1.8 3.5 2.1 5.7.8 4.8-1 19.6-2.6 21.4-.8 1-2.9 1.3-7.7 1-6.9-.4-9.8-2.1-12.7-7.7-1.5-2.7-1.7-9.4-.4-11.9.5-.9 1.2-2.5 1.5-3.4.3-1 1.8-2 3.3-2.4s3.6-1.5 4.6-2.5c2.4-2.5 9.8-2.6 11.9-.2M711 361.1c5.7 5.3 10.9 8 16 8.5 2.2.2 5 .9 6.1 1.5 1.2.6 9.1 1.5 17.7 1.9 8.5.5 16 1.4 16.5 1.9.6.6.4 1.5-.6 2.5-1.3 1.4-1.6 1.4-2.8 0-.6-.8-1.7-1.3-2.3-1.1s-2.4 0-4-.4c-1.6-.5-8-1.1-14.3-1.5l-11.4-.6.7 2.8.6 2.9-3.4-3.5c-1.9-1.9-6.8-5.2-10.9-7.3-4.4-2.3-8.7-5.4-10.7-7.8-4.3-5.1-2.9-5 2.8.2m-540.5 17.6c1.3 1.9 1.2 2.2-2.8 3.7-6 2.3-21.3 2.2-23.9-.1-1-.9-1.8-2.2-1.8-2.9 0-2.6 3.6-3.3 15.3-3 10.5.3 12 .5 13.2 2.3m129.2 14.4c1.3 1.3.7 3.6-1.5 6.1-1.1 1.3-1.3 3.6-1 8.9.3 6.5.6 7.4 3.6 10 1.8 1.6 3.2 3.3 3.2 3.9 0 2-4.9 4-10.1 4.3-5.4.2-5.4.2-5.7-2.9-.2-2.5.1-3.3 1.7-3.7 1.9-.5 2.1-1.3 2.1-8.2 0-7.3-.1-7.7-3.2-10.6-1.8-1.6-3.6-2.9-4-2.9-1.9 0-.5-3 2-4.3 3.3-1.8 11.4-2.1 12.9-.6m-129.5 10.4c-.5 2.9-4.2 4.8-11.2 5.8-2.5.4-5.6.9-7 1.2s-3.7.3-5.2-.1c-2.4-.5-2.8-1.1-2.8-4 0-2.7.4-3.5 2.3-3.8 3-.6 23-2.2 23.8-1.9.4.1.4 1.4.1 2.8m2.6 33.7c.7.7 1.2 2.2 1.2 3.5 0 3.1-5.2 5.2-15.3 6.2-7.6.7-8 .6-9-1.6-1.5-3.3 1.4-6.3 6.2-6.3 2-.1 6.1-.7 9.1-1.5 3-.7 5.7-1.4 6.1-1.4.3-.1 1 .4 1.7 1.1m173.3 1c.2 2.3-.2 4.3-1.3 6.6-1.5 2.9 1.2 9.2 4 9.2 2.5 0 4.1 1.8 3.5 4.1-.7 2.5-5.4 2.6-7.5.1-.9-.9-2.8-4.1-4.3-7-1.6-3-3.4-5.6-4.2-5.9-1.6-.6-1.8-3.3-.2-3.3.7 0 2.2-1.1 3.5-2.5 2.4-2.6 6.3-3.4 6.5-1.3m-199.2 17.2c2.5 4.7-1 7.6-11.9 10-3.6.8-8.3 2-10.5 2.6-2.2.7-6.7 1.6-10 2-3.3.5-8.7 1.4-12 2s-6.8.9-7.7.7c-1.5-.4-8.5 1.9-16.3 5.3-1.1.5-4.5 1.1-7.5 1.4-6.3.7-8.3-.4-9.4-4.7-.6-2.5-.5-2.7 1.1-1.9 1.2.7 2.4.7 3.8-.1 1.1-.6 4.3-1.7 7-2.3 5-1.2 14.1-3.6 27-7.4 3.9-1.1 9.3-2.5 12-3 2.8-.5 7.9-1.7 11.5-2.5 20.7-5 21.3-5.1 22.9-2.1m160.5 39.3c-.6 9.2-.5 9.9 1.6 12.1 2 2.2 2.8 2.3 7.6 1.7 4.5-.5 5.4-.4 5.4.9 0 1.5-3.1 3.2-10.5 5.6-7.5 2.5-7.9 2.3-8.7-3.9-1.2-10.8-3.2-17.1-5.4-17.1-.9 0-1.4-1.1-1.4-2.8 0-3.3 3.9-6 8.8-6.1l3.2-.1zM359 566c1.2.7 1.2 1.2 0 3.4-.7 1.4-2.2 2.8-3.2 3.2-1 .3-4.4 3.2-7.6 6.4-3.6 3.7-7.8 6.8-11.3 8.4-3.3 1.4-8 4.8-11.3 8-7.3 7.2-15.6 10.9-15.6 7 0-1.7 5.8-7.8 9.9-10.4 1.3-.8 3.6-2.4 5-3.5 1.4-1.2 4-2.9 5.6-3.9 1.7-1 4.2-3 5.7-4.3 1.4-1.4 3-2.4 3.5-2.4.9.2 5.3-3.1 9.4-6.9 1.4-1.4 3.2-2.4 3.9-2.2.7.3 1 0 .6-.6-.3-.6.2-1.5 1.1-2.1 2.2-1.3 2.5-1.3 4.3-.1m282.9 20.4c.7.9 1.7 1.3 2.2 1 1.9-1.1.8 4.5-1.7 9-2.6 4.6-2.7 4.6-5 3.1-1.3-.8-4.4-1.5-6.9-1.5s-4.5-.5-4.5-1c0-.6.4-1 1-1 .5 0 1.2-1.1 1.6-2.5.7-2.8 3.4-5.6 3.4-3.4 0 1 .3 1 1.2.1.6-.6 1.5-4 1.9-7.4s1.2-6.4 1.8-6.6 1.2-2 1.2-4c.1-2.3.6-.5 1.3 4.5.7 4.5 1.8 8.8 2.5 9.7"/><path d="M431.6 2.7c.4 1.6 1.1 3.4 1.7 4 .5.7.6 1.3.2 1.3s-.3.6.2 1.2c2.1 2.7 2.4 6.6.6 8.4-1 .9-1.6 2.7-1.5 3.8.2 1.2-.9 3.7-2.3 5.5-1.5 2.1-2.5 2.9-2.5 1.9 0-1.8-4.7-10.5-6.2-11.4-.6-.4-1.6 0-2.3.9-.7 1-1.7 1.7-2.4 1.7-.6 0-2 1.4-3 3-1.5 2.5-1.6 4-1 8.3.6 3.6.4 6.6-.5 9.7-1.2 4.2-1.6 4.5-4.7 4.5-2.8 0-3.4.4-4 3-.4 1.6-1.7 6.1-2.8 10-1.2 3.9-2.1 9.8-2.1 13.4 0 5.6-.2 6.2-1.7 5.6-1-.5-2.9-.8-4.3-.9-2.7-.1-2.6-.6-5 16.4-1 7.5-.7 9.8 3.1 19.8 1.2 3.1 1.1 10.9-.1 11.7-1.6 1-1.2 14.6.6 18 1.2 2.3 1.6 6.2 1.6 16.5.1 11.2.3 13.8 1.8 16 1.3 1.7 2 5.1 2.4 10.8.5 8.9 1 10.4 2.9 9.7 2.7-1 3.9 1.3 4 7.4 0 4.4.5 6.5 1.7 7.6 1.6 1.4 1.8 1.2 2.3-2.9.7-4.7 3.6-11.6 4.9-11.6.4 0 .8 1.8.8 4 0 3.4.4 4.2 3 5.5 1.6.8 3.4 1.5 4.1 1.5 1.3 0 6.9-6 6.9-7.4 0-.9 3-3.5 4.1-3.6.4 0 .9.9 1.2 2 .4 1.6 1.4 2 4.7 2 4.9 0 12.7-1.8 15.5-3.6 1.3-.9 2.5-1 3.5-.4.8.5 2.9 1 4.7 1 1.7 0 4.3.4 5.7 1 1.5.5 6.1 1.2 10.5 1.6 7.2.6 7.9.5 9.3-1.4l1.4-2.1 2.9 2.5c2.1 1.7 2.4 2.4 1.2 2.4-1 0-1.7.4-1.7 1 0 .5.4 1 .9 1 .6 0 6.1 2.4 12.3 5.4 12.8 6.1 15.8 7.2 15.8 5.7 0-.6-2.8-2.4-6.2-4-5.8-2.8-6.9-4.3-1.6-2.2 5.2 2.1 7.1 2.8 8.7 3 .5 0 1.2 1.1 1.6 2.3.7 2 .9 1.7 1.4-1.7l.6-4 .7 3.3c.6 2.7 1.6 3.6 6.4 5.8 5.7 2.6 7.1 4.4 1.8 2.3-1.6-.6-3.7-1.2-4.8-1.5-1.8-.3-1.8-.3 0 1.7 1 1.1 2.4 1.7 3.1 1.4.8-.2 1.1 0 .8.5-.6 1 6.9 5.3 7.8 4.3.3-.3 2 .5 3.6 1.7 1.7 1.1 3.5 1.9 4 1.5.5-.3 1.2-.1 1.6.5s1 .8 1.5.5.8.4.7 1.5c-.2 2.4-1.7 2.7-1.7.4 0-1.3-.3-1.4-1.4-.5-1 .9-2.1.9-4.2 0-1.7-.7-2.4-1.3-1.6-1.6 1-.4 1-.8.1-1.9-.6-.8-1.6-1.4-2.1-1.4-.6 0-.5.7.2 1.5 1.3 1.6 0 2.1-1.5.6-1.6-1.5-11.5-5.2-11.5-4.2 0 .4 1.9 1.6 4.3 2.6 2.3 1 7.4 3.3 11.2 5.2 8.2 3.9 9.1 4 10 1.3.3-1.1 1.3-2 2.1-2s1.2.4.9 1c-.4.6.1.7 1.1.3 1.2-.4 1.5-.3 1 .5-.4.7.2 2.5 1.3 4.1 1.1 1.5 1.8 3 1.5 3.3-.2.3 1.1 1.7 3.1 3.2 1.9 1.5 3.5 3.5 3.5 4.4 0 1.3-.5 1.2-2.3-.9-1.2-1.4-3-3.1-3.9-3.8-1.4-1-1.6-.9-1.2.7.3 1 1.9 2.6 3.5 3.6 1.6.9 2.9 2.2 2.9 2.8 0 .7-.4.7-1.2.1-.7-.6-2.2-1.3-3.3-1.6l-2-.7 2 1.6c2.8 2.2 5.8 3.8 5.2 2.7-1-1.5 2.3-5.5 4-4.9.8.4 1.1.1.8-.5-.4-.6-1.3-.8-2-.5-1.3.5-3-2.2-2-3.2.3-.3.5 0 .5.6 0 .7.6 1.2 1.3 1.2.6 0 2.6 1.7 4.3 3.7 2.7 3.3 3.4 3.6 4.8 2.4.9-.7 1.6-1.9 1.6-2.5 0-1.9-7.1-8.6-8.4-7.9-.6.4-.5-.1.2-1 .8-.9 1-2.2.6-2.9s1.1.7 3.2 3.2c2.1 2.4 4.7 5.3 5.7 6.2.9 1 1.7 2.1 1.7 2.4s2.6 3.7 5.8 7.5c4.9 5.8 6.8 7.3 13.6 10.4 4.3 1.9 8 3.4 8.2 3.2.6-.6-11.5-35.9-13.1-38.4-.8-1.1-3.9-3.3-7-4.7-6.9-3.3-7.2-4.2-.3-1.5 3.3 1.3 5.3 1.6 5.8 1 .3-.6.5-8 .4-16.5-.2-9.1.3-19.4 1.1-25.2l1.4-9.9-.2 8.5c-.1 7.7 0 8.5 1.8 8.8 3.6.7 4.1 2.2.7 2.2H599l.2 17.2.3 17.2 2.5.7 2.5.7-2.4.1c-2.7.1-3-1.1 3.4 16.6 2.5 7.1 5.3 15.1 6.1 17.6s2.3 5.5 3.4 6.7c2.4 2.6 2.5 3.3.4 2.5-1.7-.6-1.7-.1 1.1 18.2.7 4.9 1.6 11.6 2 14.7.7 6.3.9 6.4 8.5 5.8 1.7-.1 2.2.2 1.5.8-.5.6-2.8 1.2-5 1.4-3.9.3-4 .4-3.8 3.8 0 1.9.2 9.5.4 16.7.1 7.3.3 13.3.4 13.3.2 0 6.6-2.9 8.5-3.9.8-.4 1.9-1.7 2.5-2.9.7-1.6 1.5-1.9 3.6-1.5 2.6.5 2.8.3 3.4-4.1.4-2.5.5-5.6.2-6.8-.3-1.3-.7-6-.8-10.6-.1-4.5-.6-8.5-1-8.8-.5-.2-.4-1.6.1-3 .6-1.5 1-20.2 1-45.7 0-23.8.2-91.3.5-150 .4-58.8.3-107.7 0-108.8-.6-1.8-1.7-1.9-23.6-1.9-12.7 0-22.8.4-22.5.8.3.5 1 11.4 1.6 24.3s2 35.5 3.1 50.3c1 14.8 1.8 31.4 1.7 37-.1 6.2-.3 7.8-.5 4.1-.2-3.3-1.2-20-2.3-37-1.1-17.1-2.4-39.3-3-49.5-.5-10.2-1.3-21.1-1.6-24.3l-.7-5.7H549l-.1 4.2-.1 4.3-1.1-4.3-1-4.2H445.1l.6 3.5c.4 2.8.2 3.5-1.1 3.5-2.1 0-2 1 .8 8 1.4 3.3 2.1 6.2 1.7 6.4-.4.3-1.3-1-1.9-2.8-.7-1.8-2.1-4.1-3.2-5.1s-2-2.6-2-3.7c0-1-.6-1.8-1.4-1.8-1.6 0-2.6-2.1-2.6-5.6 0-1.9-.5-2.4-2.5-2.4-2.3 0-2.5.3-1.9 2.7M640.7 6.7c-.6 5.9-1.1 165.8-.8 213 .1 14.5.3 16.2 1.9 16.6s1.6.5 0 .6c-2.1.1-2.1-.4-2.4 38.1-.1 14.6 0 27.7.3 29.2l.4 2.7 2.5-2.7 2.5-2.7-1.6 2.6c-1.2 2-1.3 3.3-.6 5.3.6 1.4.7 2.6.3 2.6s0 .5.8 1.1c1.2.9 1.1 1-.7.6-3.1-.7-3.4 1-3.1 14.7.2 8 .7 11.7 1.5 12 2.2.9 3.3-3 3.3-11.8 0-7.2-.3-8.5-1.7-8.9-1.6-.4-1.6-.5-.1-.6 2-.1 3.8-5.1 3.8-10.8 0-2.7.4-4.2 1-3.8 1.3.8 1.3 9.2 0 9.7-1.6.5-2.6 23.9-1.1 26.6.6 1.2.8 2.2.2 2.2-1.7 0-1.9 6.5-1 33 1 31.9 2.6 54.5 4.4 66 1.7 10.7 2.5 22.1 2.9 42.3.3 17.1 1.3 20.4 4.4 15.8 2.4-3.5 6.3-13.3 5.8-14.6-.2-.6.2-1.9 1-3 .8-1 1.4-3.9 1.4-6.4 0-4.2-2.1-21.7-3.6-30.1-.4-2.6-.3-3.1.5-2 .6.8 1.1 2.7 1.1 4.1s.4 3.9 1 5.5c1.8 5.3 2.9 29.4 1.5 33.3-3.3 9.7-2.6 11.5 2.5 6.1 1.5-1.6 2.9-2.7 3.2-2.5.2.2 1.5-2 2.8-5s3-5.5 3.7-5.5c.6 0 1.8-.9 2.6-2s1.6-1.7 1.9-1.5c.3.3.8-.5 1-1.9.3-1.4.2-2.3-.2-2.1s-.6-1.6-.4-4.1c.4-4.5-1.1-9.8-4.7-16.6-1.1-2-1.5-3.8-1-4 1.2-.4-3-11-4.5-11.5-1.2-.4.7 13.2 2.5 18 .6 1.6 1.1 4.1 1.1 5.6 0 1.6.6 4.6 1.4 6.7 1.4 4.1.6 9.8-.9 6.2-.4-1-1-1.6-1.4-1.4-.3.2-.6-1.5-.6-3.7-.1-12.6-6.6-37-9.4-35.3-.4.3-.8-.6-.9-1.9-.1-1.8.2-2.3 1.3-1.9 1.1.5 1.5-.2 1.5-2.7-.1-5.1-3.8-20.9-5.6-23.7-.9-1.3-1.1-2.1-.5-1.8 1.5.9 3.1-3.4 3.3-8.7 0-2.5.4-1 .8 3.5 1 12.8 4.8 13.3 5.1.8l.2-6.5.8 7c.5 3.8 1.3 12.2 2 18.5 1.2 13.2 1.5 14.9 2.9 17 .8 1.2 1.2 1.2 1.8.2.6-.9 1.3 0 2.2 2.8 1 3.1 1.6 3.8 2.7 2.9.7-.6 1.3-.8 1.4-.3.4 4.5 1.2 5.9 2.9 4.9 2.2-1.3.2-8.5-3.4-12.5-1.8-2-3.8-3.4-4.4-3.2-.7.2-1.2 0-1.3-.5-.2-2.9-1.1-5.8-2-7-.8-.8-.8-1.3-.1-1.3 1.5 0 1.6-42.4 0-45.3-1.8-3.4-6.8-7.8-7.3-6.4-.3.7-.9 5-1.4 9.7l-.8 8.5-.2-11.3-.1-11.4-3.6-3.5c-2-1.9-3.9-3.2-4.2-2.8-.3.3-.8 8.7-1 18.5-.3 9.9-.8 18-1.2 18s-.5-8.3-.2-18.4.2-19.4-.1-20.8c-.4-1.6-1.8-2.8-4.2-3.7-1.9-.7-4-2.2-4.6-3.3-1.1-2.1-1.1-2.1 2.5.1 6.5 4.1 6.8 3.3 6.5-15.7-.1-9.2.1-17.4.4-18.2 1-2.4 4.6-24.7 5.3-33.5.4-4.4 1.3-8.9 1.9-10 .7-1.1 2.5-5.8 4.1-10.4 1.5-4.6 3-7.9 3.2-7.3s-1 5-2.7 9.8-2.9 9-2.6 9.2c.3.3 3.8-1.1 7.8-3.1 8.1-4.2 15.5-10.5 18.4-15.7 1-1.9 3.2-4.9 4.9-6.6 1.6-1.7 3.8-4.7 4.9-6.8 1.1-2 2.4-3.6 2.9-3.6.6 0 .5.5-.2 1.2s-1.2 1.8-1.2 2.6c0 1 .4 1 2.2-.2 3.7-2.6 4.2-1.8.6 1.1-1.8 1.5-5 4.2-7 6.2-3.5 3.3-3.7 3.6-2.1 5.3 2.2 2.5 2.6 2.4 7-2.3 2.1-2.2 5.7-5.2 8.1-6.6 4.8-2.9 8.2-6.7 8.2-9.4 0-2.4-.4-2.4-4.8.6-5.1 3.5-6.4 3.1-1.5-.4 2.3-1.6 4.7-3.9 5.5-5 .8-1.2 1.7-1.9 2-1.6 1.3 1.3 29.6-9.7 31.6-12.3 1.3-1.7 1.6-6.9.6-9.6-.3-.9-1.6-1.6-2.8-1.7-1.8 0-1.6-.2.9-1.3 3.4-1.5 20.5-4.9 21.2-4.2.2.2-3.1 1.2-7.4 2.2s-8.4 2.2-9 2.7c-1.7 1.2-1.7 10.4-.1 10.9.6.2 5.2-1.3 10.2-3.5 12.1-5.2 13.8-5.8 13.2-4.8-.3.4-2.7 1.6-5.3 2.6s-5 2.1-5.3 2.5-2.6 1.7-5.2 2.9c-3.5 1.6-4.8 2.7-4.8 4.2 0 1.2.5 1.9 1.3 1.6.6-.2 1.1-.9 1-1.5-.2-.8 10.5-6.8 13.7-7.7 3.1-.9 10-4.7 10-5.5 0-.5.7-1 1.5-1 1.4 0 2-1.2 1.6-3.3-.1-.5.4-.7 1.1-.4.7.2 1.2 1.2 1 2.1-.3 1.4.5 1.5 7 1 4-.4 8.1-1.1 9-1.5.9-.5 3.4-.9 5.5-.9s5.5-.4 7.5-.9c2.1-.5 5.5-.5 7.5 0 2.1.4 5.6 1.1 7.8 1.4 4.6.8 3.4 1.9-3.4 3-3.6.6-4.1.9-2.7 1.7.9.5 2.3.7 3.1.4s2.7-.1 4.4.4c1.7.4 4 .6 5.2.3l2.1-.6-2.3-1.3c-2.6-1.3-2.2-1.6 3.4-2.8 1.8-.4 2.7-1.3 2.7-2.6 0-1.1.5-2 1-2 .6 0 1 .5 1 1.1s.9 2.4 2.1 4c1.1 1.6 1.7 2.9 1.3 2.9s.1.9 1.1 2c3 3.3 6.2 2.6 7.5-1.8.7-2 1.6-4.1 1.9-4.5 1.3-1.3 6.1 3.3 6.1 5.8 0 2.4 2.3 5.5 4.1 5.5.5 0 .9-4.8.9-10.8l.1-10.7 2.4 5.2c1.4 2.9 2.9 5.3 3.5 5.3 1.3 0 1.3-3.1.1-6.4-.6-1.3-1.1-4.8-1.2-7.8-.1-2.9-.7-5.7-1.3-6.1-.8-.6-.7-1 .2-1.4.6-.2 1.2-.9 1.2-1.4 0-.6-.5-.7-1.1-.3-1.6 1-2.9-1.6-2.9-5.9 0-2.1-.4-4.7-1-5.7-.7-1.3-.6-2.1.5-3 1.9-1.6 4.3 3.1 5.1 10.5.6 4.9.9 5.6 2.8 5.3 3.5-.5 4.6-4.4 4.6-17.4 0-8.9.4-12.5 1.3-13.3 1-.8 1.3-3.7 1.1-11.3-.4-14.6-1.4-24.9-2.4-24.3-2.1 1.3-3.7-2.8-4.4-10.9-.4-4.8-.5-9-.2-9.5.3-.4 1.7-.6 3.1-.3 2.4.4 2.5.3 2.5-5.6v-6.1l-3.2-.3-3.3-.3.3-7.8c.2-6.1-.2-9.2-1.8-13.5-1.2-3.2-2.5-7.5-2.9-9.7-.4-2.8-1.3-4.3-2.8-5-1.2-.5-2.4-1.9-2.6-3-.4-1.8-.4-1.8-.6.2-.1 2.4-2.1 3.3-2.1 1 0-.7-.9-1.8-2.1-2.5s-1.8-1.6-1.5-1.9c.3-.4.1-1.1-.4-1.8-.5-.6-2.5-4.2-4.4-8-2.7-5.1-3.3-7.2-2.6-8.6 1.6-2.9 1.2-9.6-.6-10.3-.9-.3-1.7-.6-1.9-.6-.7 0-1.2 9.6-.5 10.5.9 1.1-2.7 13.5-3.9 13.5-.4 0-1.6-.8-2.5-1.9-1.4-1.5-1.5-2.3-.5-4.5 1.1-2.3.9-3.2-1-6.7-2.8-4.8-2.5-12.7.4-15.9 1.8-1.9 1.3-1.9-58.3-2h-60.1l-.4 4.2-.4 4.3-.1-4.3L729 0h-42.7l-.7 6.1c-.3 3.4-.6 11.4-.7 17.8 0 6.4-.7 20.1-1.4 30.6l-1.4 19 .5-20.5c.2-11.3.7-27.8 1-36.8l.6-16.2h-42.9zm38.2 150.5c.2 17.8.4 40.8.5 51.1l.1 18.8 2.5-.5c1.4-.2 3.4-.7 4.5-1.1 1.1-.3.7.1-1 1.1-5.5 3.1-7.3 5.5-10.1 14-1.5 4.6-3 8.1-3.3 7.9-.2-.3.8-4.3 2.4-9 1.5-4.7 2.6-8.7 2.3-9-.2-.3-2 0-3.9.5-1.8.6-4.3 1-5.4.9-1.1 0 .3-.6 3-1.3 2.8-.7 5.7-1.6 6.4-2 1-.7 1.2-8 .6-38.5-.3-20.7-.6-39.2-.7-41.1-.1-3.2 1.3-24 1.6-24 .1 0 .3 14.5.5 32.2"/><path d="M872 1.3c0 .8 1.1 2.4 2.4 3.6 1.4 1.4 2.2 3 1.9 4.1s.8 3.7 2.4 6.2c1.6 2.4 4.4 7.7 6.2 11.8 9.8 21.8 10.4 23 12.8 23 1.3 0 3.4-1.2 4.8-2.8 1.3-1.5 3.5-4 4.9-5.6s2.6-3.4 2.6-4c0-1.2 2.5-4.7 7.6-10.5 1.7-2 3.5-4.6 3.8-5.9 1.2-3.6 11.1-13.6 12.9-12.9 1 .4 1.4 1.3 1 2.9-.6 2.5-5 8.8-6.8 10-.7.4-2.5 2.6-4.1 5s-3.8 5.3-4.9 6.5c-3 3.2-4.5 5.1-4.5 5.9 0 .4-.9 1.5-2.1 2.5-2.3 1.9-7.3 10-10.8 17.3-2.1 4.2-2.2 5.5-1.6 12.9.4 4.5 1.1 8.7 1.6 9.3 2.1 2.6 3.9 10.3 4.9 20.7.6 6.2 1.7 13.4 2.5 16.2.8 2.7 1.5 5.3 1.5 5.7.1.4.8 3.4 1.5 6.5.7 3.2 1.6 10.5 2 16.3s1.3 11.4 2 12.5c.9 1.5 1.1 5.6.7 15.5-.6 18.1-.6 37.9.2 52.5.6 10.8.4 12.4-1.5 17.1-1.9 4.5-2 5.8-1.1 9.5.8 3.1.8 5.7 0 9.2-1.4 6.7-.3 7.6 6.1 4.8 8.7-3.7 18.5-2 25.4 4.4 2.2 2.1 2.7 3.5 2.9 7.8.1 2.9.2 6.1.3 7.2s-.2 2.4-.5 3c-.7.9-1.7 10.1-2.5 22.3-.2 2.4-.9 5.7-1.6 7.4-1.1 2.7-1 3.2.7 4.5 1.1.9 3.5 1.3 5.9 1.1 2.2-.2 4.5-.1 5 .4 7.9 6.2 7.5 5.6 7.5 12.5 0 6.7-2.9 15.6-5.8 18-2.3 1.9-11.7 1.7-13.6-.3-.9-.8-1.6-2.2-1.6-3s-.4-1.4-.9-1.4c-.4 0-1.1 2.1-1.5 4.6-1 7.9-.8 9.4 1.9 10.6 1.9.9 2.5 1.9 2.5 4.3 0 4.1-1.9 5.7-6.2 5.3-3.1-.3-3.4 0-5.9 5.3-2.1 4.4-2.9 8.3-3.8 17.9-1.3 14.5-1.8 16.7-3.7 17.4-.8.3-1.4 1.3-1.4 2.1 0 .9-.6 3.7-1.4 6.3s-1.8 7.4-2.4 10.7-1.5 7.7-2 9.9c-1.2 4.3-.7 6.6 1.4 6.6 2 0 5.5 6 5.2 9-.3 2.4-.6 2.5-6.3 2.3-5.8-.1-6.1 0-8.2 3.1-1.5 2.4-3.8 3.9-8.2 5.5-6.3 2.3-9.2 5.2-10.5 10.6-1.4 5.6-3.6 24-3.6 30.3 0 3.4-.8 8.8-1.9 12-2.3 7-4.1 17.3-4.1 23.6 0 3.3-.4 4.6-1.2 4.4-1.4-.5-3.8 5.2-3.8 8.9 0 1.9 1.4 3.7 3 3.8 3.2.3 25.7 22.4 28.9 28.3 1.2 2.3 1.2 2.4-2.1 1.7-3.2-.7-8.6-5.2-20.8-17.6-3-3.1-6.3-5.8-7.2-6.2-1-.4-1.8-1.3-1.8-2.2 0-1.4-.3-1.4-2.7-.2-2 1.1-3.1 3-4.6 7.8-1.1 3.5-2.2 7.9-2.4 9.7-.3 1.9-1.2 3.6-1.9 3.9-.8.3-1.1.9-.8 1.4.3.6-1.5 5-4 9.9-2.5 5-4.6 9.7-4.6 10.5 0 .9-1.7 3.4-3.8 5.8-4.1 4.5-12.2 18-12.2 20.3 0 .8-.6 1.4-1.2 1.4-1.6.1-5 4.9-7.9 11-1.2 2.5-2.5 4.7-3 5-.4.3-1.1 3.6-1.5 7.2-.6 5.6-.3 7.4 1.4 11.1 1.2 2.5 3.3 5.8 4.7 7.3 1.4 1.6 4.9 5.8 7.8 9.3s6.9 7.4 8.9 8.5c4.1 2.3 5.1 3.2 10.4 9.3 2 2.4 4 4 4.5 3.7.5-.2 2.8 1.3 5.2 3.6 3 2.6 5.3 4 7.2 4h2.8l-4.2-4.5c-2.2-2.4-4.1-4.9-4.1-5.4s-1.6-2.8-3.5-5.1-3.5-4.7-3.5-5.4c0-.6-1.5-2.6-3.4-4.4s-4.1-4.5-4.9-6c-.7-1.5-1.9-3.7-2.7-4.8-.7-1.2-1-2.9-.7-3.8 1.8-4.6 8.1-2.3 10.8 3.9 1 2.2 3.2 5.3 4.8 6.9 1.7 1.6 4 4.8 5.2 7 3.1 6.1 7.6 10.8 12.8 13.7 3.4 1.9 4.7 3.3 4.9 5.2l.3 2.7h36.1l-2.4-3c-1.3-1.7-4.7-5.9-7.5-9.5-2.9-3.5-5.3-6.7-5.3-7 0-.9-9.8-13.2-10.8-13.7-2.1-.9-5.2-7-5.2-10.2 0-3 .4-3.6 2.1-3.6 2.8 0 8.5 4.5 12 9.7 1.7 2.4 4.8 6.3 7 8.6s4.7 5.5 5.6 7.2c.9 1.6 4.2 6.1 7.3 10 3.1 3.8 6 8 6.4 9.2l.7 2.3h69.3l-6.4-6.7c-3.6-3.6-15.8-15.9-27.2-27.3-11.5-11.3-20.8-21.1-20.8-21.6 0-.6-.9-1.9-1.9-3.1-1.9-2-1.9-2.1 0-5.2 2.3-3.8 4.8-3.9 8.2-.4 6.3 6.8 9.3 9.4 9.9 8.7.3-.2 13.2 12.2 28.8 27.6l28.4 28h22.9l-3.9-4.3c-2.2-2.4-4.2-4.2-4.5-4-.4.1-6-5.2-12.5-12-6.6-6.7-15.2-15.2-19.2-18.9-6.4-5.6-7.4-7.1-7.7-10.4-.3-2.7.1-4.1 1.3-5 1.4-1 1.5-1.5.5-2.5-4.6-4.6 3.8-3.1 8.7 1.5 4.5 4.3 11 7.6 15.2 7.6 6.2.1 11.5 3.6 24.1 16 6.8 6.6 15.3 14.2 19 16.9s9.4 7.2 12.6 10l5.9 5.1h21.1c11.6 0 21.1-.4 21.1-.8s-.5-1.3-1-1.8c-1.5-1.5-.1-4.4 2-4.4 1 0 4.1 1.6 7 3.5l5.2 3.5h20.6c19.8 0 20.5-.1 18.9-1.8-1.9-2-2.3-5.2-.7-5.2.6 0 1 .4 1 .9s1.3 1.1 3 1.4c1.6.4 3.9 1.6 5 2.7 1.9 1.9 3.1 2 45.5 2h43.5v-15c0-14.7-.1-15.1-2.2-16-1.3-.5-1.8-.9-1.3-1 .6 0-.4-.7-2.2-1.5-2.2-.9-3.4-2.3-3.8-4.2-.4-1.5-1.1-3.6-1.6-4.6-1.6-3 1.8-11.6 4.7-11.7.5 0 2.2-.6 3.7-1.3l2.7-1.2-.2-28.5-.3-28.5-13-6.7c-7.1-3.6-14.1-7.6-15.5-8.7s-3.3-2.1-4.2-2.2c-2.6-.2-3.2-.4-4.3-1-.5-.4-2.5-1-4.3-1.4s-6.6-2.2-10.6-4.1c-4-1.8-10.4-4.5-14.2-6-11.7-4.4-12.8-4.9-15.6-6.8-3.6-2.4-3.5-4.1.1-5.9 3.5-1.7 7.4-1.2 9.7 1.4.9 1 2.5 1.9 3.6 1.9 1 0 1.8.4 1.8.9s2.4 2.4 5.4 4.1c4.9 2.7 6.8 3.2 17.3 4 6.5.4 13.8 1.3 16.3 2 5.7 1.4 12 1.9 12 1 0-1.8-13.1-12.8-18.5-15.5-3.3-1.7-6.2-3.3-6.5-3.6s-5-2.5-10.5-4.8c-5.5-2.4-12.3-5.3-15.2-6.7-2.8-1.3-7.5-3-10.5-3.8-8.8-2.4-18.8-5.5-27.3-8.6-4.4-1.5-9.6-3.1-11.5-3.5s-7.1-2.4-11.5-4.6c-4.5-2.1-10.3-4.3-13-5-9.6-2.2-15.1-4-20.1-6.5-2.7-1.3-6.1-2.6-7.5-2.9-1.3-.3-3.7-.7-5.4-1-4.8-1-19.9-5.7-21.2-6.7-1.6-1.3-.1-8.8 1.8-8.8.5 0 .9-.9.9-2 0-3.6 4.3-3.5 15.8.5 5.9 2 12.5 3.9 14.7 4.2s4.4.9 4.9 1.4c.6.5 2 .9 3.2.9 2.2 0 11.3 2.9 21.4 6.9 3 1.2 8.3 2.8 11.8 3.6 3.4.8 8.2 2.4 10.5 3.6 2.3 1.1 5.3 2.3 6.7 2.5 8.5 1.6 16.1 3.8 22.3 6.3 7.3 3 13.7 5.1 16.2 5.5.8.1 1.8.5 2.1.9.4.4 2.6.7 4.8.7 2.3 0 7.3.7 11.1 1.5 3.9.9 10.5 2 14.7 2.6 5.8.7 10.8 2.3 19.8 6.4l12 5.3V319.4c0-182.1-.3-228.4-1.2-228.4-.7.1-3.1.9-5.3 2s-4.8 1.9-5.8 2c-1 0-1.6.4-1.3.9.6.9-12.1 7.4-21.4 11.1-3 1.2-6.8 2.7-8.5 3.4-1.6.7-3.9 1-5.1.7-3.1-.9-8.4-5.4-8.4-7.2 0-4.6 12.7-13.9 27.1-19.7 5.2-2.1 12.3-5.5 15.9-7.6 3.6-2 8.2-4.4 10.3-5.2 3.6-1.6 3.7-1.7 3.7-7 0-5-1-6.8-2.5-4.4-.3.5-1.3 1-2.2 1s-2.4.7-3.4 1.6c-.9.8-2.3 1.7-3.1 1.8-1.9.4-13.2 5.8-13.8 6.6-.3.4-2.3 1.5-4.5 2.6-2.2 1-4.2 2.1-4.5 2.5-1 1.5-12.2 6.9-14.2 6.9-1 0-2.9.5-4.1 1.2-1.2.6-4 1.5-6.2 1.9s-6.2 1.3-9 1.9c-2.9.6-8.1.8-12.3.4-6.4-.6-7.5-1-9.7-3.6-1.4-1.6-2.5-3.4-2.5-3.9 0-2.2 9.3-9.2 12.3-9.4.5 0 1.4-.7 2-1.6.7-.9 2.2-1.9 3.4-2.3 1.1-.4 3.2-1.7 4.4-2.9 3.2-3.1 10.5-8.7 11.3-8.7 1.3 0 42-20.6 53-26.8l5.6-3.2V0h-63.5c-63.1 0-63.5 0-63.5 2 0 2.8-7.6 10.8-11.8 12.6-1.9.8-4.8 1.4-6.4 1.4-2.7 0-3-.2-2.4-2.6.8-3 6.2-8 11.9-11.1l4.2-2.2-16.7-.1c-15.8 0-21.8.9-21.8 3.2 0 .4-.5.8-1.1.8-1.2 0-7.3 4.5-10.9 8-1.4 1.4-5.5 4.7-9.2 7.4-3.8 2.8-6.8 5.3-6.8 5.8 0 .4-.4.8-.9.8-1.1 0-5.8 4-14.9 12.7-3.6 3.5-6.9 6.3-7.3 6.3s-2.3 1.4-4.1 3c-1.8 1.7-5.1 4.3-7.3 5.7-2.2 1.5-5.8 4.4-7.9 6.5-2.2 2.1-4.3 3.8-4.7 3.8-.3 0-3.5 2.2-7 5-3.5 2.7-7.5 5.8-8.9 6.9s-3.9 3.1-5.6 4.5c-3.7 3-5.1 3.2-10 1.1-3.5-1.4-3.5-1.4-1.9-4.4 1.6-3.2 10-12 15.3-15.9 1.6-1.3 4.4-3.6 6.1-5.1 1.7-1.6 5.4-4.3 8.1-6.2 2.8-1.9 5-4 5-4.7 0-.6.3-1.2.8-1.2.4 0 2.4-1.6 4.5-3.5s4.2-3.5 4.7-3.5 3-1.8 5.7-4.1c8.5-7.3 9.3-7.9 9.9-7.9.3 0 1.8-1.2 3.3-2.8 1.5-1.5 4.5-4.1 6.6-5.7 2.1-1.7 5-4.1 6.5-5.5 1.4-1.4 4.8-4.4 7.5-6.7l5-4.3H981.3C891.2 0 872 .2 872 1.3m225.3 137.4c-.7.2-1.3 1.1-1.3 1.9s-.6 1.4-1.2 1.4c-2.4 0-25.3 12.2-28.4 15.1-1.1 1-2.9 1.9-3.9 1.9s-1.5.3-1.1.7c1 1-19.3 10.5-22.7 10.7-2.2.1-3-.4-3.3-1.8-.4-2.7.5-4.4 2.9-5.2 1.2-.4 3.3-1.5 4.6-2.5 1.3-1.1 3.4-1.9 4.7-1.9s2.4-.5 2.4-1c0-.6.5-1 1.1-1 .5 0 3-.9 5.4-2s5.2-2.1 6.2-2.3c1-.1 5.6-2.5 10.3-5.2 9.1-5.4 18.9-9.3 23-9.3 1.4 0 1.9.2 1.3.5m70 166.6c-.4 1.9-1.5 2.6-5.4 3.6-2.9.8-6.8 1-9.3.7-2.4-.4-6.5-.2-9.2.4-2.7.7-8.7 1.2-13.4 1.2s-11.4.4-15 1c-10.4 1.6-14.9 1.6-16.1.2-1.2-1.5-.5-2 3.6-2.7 1.1-.2 3.1-.7 4.5-1 1.4-.4 6.3-.9 11-1.1 8.2-.4 22.2-1.9 32.5-3.6 2.8-.4 7.8-.8 11.1-.9 5.9-.1 6.1 0 5.7 2.2M1001 326.8c1.8.9 2.5 5.7 2.5 18.7v10h-7.7c-6.7 0-8-.3-10.2-2.4-2-1.9-2.6-3.4-2.6-6.7 0-3.7.4-4.6 2.8-5.8 1.9-1 3.3-1.1 4.5-.5 1.3.8 2.2.4 4.1-1.7 1.3-1.6 2.1-3.6 1.8-4.6-.6-2.5-5.4-2.4-7 .2-1 1.7-1.6 1.8-3.2 1-2.8-1.5-2.7-6.4.3-7.8 2.4-1.2 12.3-1.4 14.7-.4m-46.7 95.1c2.3 2.2 3.7 14.4 1.8 15.5-.6.4-1.1 2.9-1.1 5.6 0 2.8-.5 5.2-1.2 5.7-2.8 1.7-14.8-.3-14.8-2.5 0-.4 2-1.9 4.5-3.4l4.5-2.8v-6.2c-.1-4-.6-7-1.5-8.2-.8-1.1-1.5-3.1-1.5-4.4 0-2.3.3-2.4 3.7-1.9 2 .4 4.5 1.5 5.6 2.6m171.6 30.6c5.6.9 13 2.4 16.4 3.5s11.4 2.9 17.7 4c25 4.3 29.7 5.3 34.5 7.3 6.3 2.6 7.5 3.5 7.5 5.8 0 1.6-.7 1.9-4.2 1.9-2.4-.1-7.2-.7-10.8-1.6-3.6-.8-13-2.8-20.9-4.5-7.9-1.6-14.7-3.1-15-3.4-.4-.2-2.5-.6-4.6-.9-6.6-1-14-2.4-18.4-3.5-2.2-.6-5.8-1.6-8-2.1-2.1-.6-4.7-1-5.9-1-1.1 0-2.7-1.1-3.6-2.5-2-3-2-3.2.2-3.8 3-.8 4.7-.7 15.1.8m-2.6 18.5c2.9 0 21.2 4.6 23.1 5.7.6.4 2.6.8 4.5 1 1.8.2 4.2.8 5.2 1.3 1 .6 3.2 1 4.9 1 3.7 0 14.4 3.6 14.8 5 .2.6.9 1 1.7 1 2 0 3.5 2.4 2.8 4.8-.4 1.7-1.3 2.2-3.8 2.2-5.6 0-20.4-3.3-27-6-1.1-.5-4-1.1-6.5-1.4-5.1-.6-5.3-.6-13.7-3-3.5-1-6.1-2.1-5.9-2.5.3-.4-2.4-1.2-6-1.9-9.7-1.8-14.8-5.9-11-8.7 1.1-.9 3.1-.8 7.8.1 3.5.8 7.6 1.4 9.1 1.4m-206 92.7c1.2 1 3.7 3.5 5.6 5.6s5.1 4.5 7 5.3c3.4 1.4 8 5.6 12.6 11.5 2.2 2.7 7.8 5.9 10.5 5.9 3.5 0 10.4 11 8.6 13.9-.3.5-2.5 1.1-4.8 1.3-4.9.5-7-.6-13.6-6.7-2.4-2.2-5.1-4.4-6-4.9-2-1.1-18.4-15.2-25.9-22.3-5.3-5-6.1-6.9-4.4-10.1 1.2-2.3 7.5-2 10.4.5m113.5 28.3c-.3 1 1 1.8 16.4 9.8 4.6 2.4 9.2 5.2 10.4 6.3 1.1 1 2.5 1.9 3.1 1.9.5 0 1.8.9 2.8 2s2.3 2 3 2 2 .9 3 2 2 1.8 2.2 1.6c1-1 7.8 4.7 7.8 6.5 0 1.5 1.5 2.6 5.9 4.4 3.2 1.3 6.8 3.3 8 4.4 1.1 1 4.1 2.7 6.6 3.7 2.5.9 5 2.2 5.5 2.8 1.1 1.2 3 2.4 8.5 5.6 6.1 3.5 7.3 4.4 14.3 9.8 4.8 3.8 6.7 5.9 6.7 7.6 0 3.3-2.2 4.8-5.7 4-3.7-1-10.1-4.3-11.1-5.8-1-1.8-5-2.6-5.5-1.2-.3.7 3.2 5.1 7.8 9.9 7.5 7.8 8 8.5 5.2 8-3.3-.7-10.7-5.2-10.7-6.5 0-.4-.6-.8-1.4-.8s-1.6-.7-2-1.5c-.3-.8-1.1-1.5-1.9-1.5-.7 0-2.8-1.6-4.7-3.5s-3.9-3.5-4.6-3.5c-.6 0-2.3-.9-3.7-2s-3.1-2-3.9-2c-.7 0-2.8-1.3-4.6-3-1.8-1.6-3.6-3-3.9-3s-1.7-1.2-3.2-2.8c-1.9-2-2.6-3.9-2.7-7.4-.2-5.6-.8-6.6-4.8-8.4-3.1-1.5-19.1-11.5-21.3-13.4-.7-.5-4.1-2.6-7.7-4.5-3.5-2-7-4.2-7.6-5-.7-.8-1.8-1.5-2.4-1.5s-2.3-1.1-3.8-2.5-3.1-2.5-3.7-2.5c-1.4 0-2.9-5.2-2.1-7.5.4-1.1 1.8-2.3 3.1-2.6 1.3-.4 2.5-.7 2.7-.8.1-.1.1.3 0 .9m172 82.2c.5.7 2.2 5.2 3.8 10 1.5 4.9 3.1 8.8 3.4 8.8s1.8-3.5 3.3-7.8c4-11.1 4.5-12.2 5.7-12.2 1.7 0 1.2 2.5-3.1 14-3.3 8.7-4.5 11-6.1 11-1 0-2-.6-2.3-1.3-.2-.6-2-5.7-3.9-11.1-2-5.4-3.6-10.5-3.6-11.3 0-1.6 1.4-1.7 2.8-.1m33 8c1.1 1.3 2.4 3.5 2.7 5l.7 2.8h-7c-3.9 0-7.3.4-7.7 1-.9 1.4 3.2 5 5.7 5 1.2 0 2.9-.7 3.7-1.4 1.2-1.1 2.1-1.2 3.1-.5 1.3.8 1.1 1.3-.9 2.9-5 4.3-13.4 1.1-14.7-5.4-1.6-8.6 8.8-15.3 14.4-9.4m22.9.2c3.8 3.3 4 10.2.4 14-3.4 3.6-10.1 3.7-13.6.1-3.6-3.5-3.5-10.6.1-14s9.3-3.4 13.1-.1M443.6 212.5c-.3.8-1.8 1.5-3.3 1.5-4.9.1-8.3 4-4.7 5.4 3.1 1.2 18.4-2.1 19.1-4.1.7-1.7 4-1.7 5 0 .4.7 6 2.3 12.3 3.5 13.9 2.7 13 2.6 13 .2 0-1.1-.2-2-.4-2-.1 0-3.4-1.1-7.2-2.5-7.8-2.8-9.8-3.1-7-1 2.6 1.9.8 1.9-3.9-.1-2.5-1-5-1.3-7.6-.9s-3.9.3-3.9-.4c0-1.8-10.7-1.4-11.4.4"/><path d="M450.9 219.4c-.6.6-5.2 1.6-10.8 2.5-4.6.6-6.8 2.7-5.8 5.5.7 1.9 3.6 2 12.4.6 8.3-1.4 12.2-2.8 10.4-3.9-.8-.5-1.1-1.4-.7-1.9 1-1.6-4.2-4.1-5.5-2.8M458.7 222.3c.7 3.6 6.1 5.1 18.9 5.3 7.9.1 11.1-.2 11.1-1 0-2-19-6.6-27.4-6.6-2.6 0-3 .3-2.6 2.3M805.5 221.6c-4.4.7-8.8 1.8-9.8 2.4s-2.2.8-2.7.5c-.8-.5-2.6 3.3-1.8 4 .6.6 23.1-1.3 26-2.2 1.5-.4 2.8-1.1 2.8-1.6.1-4.5 0-4.7-3.2-4.6-1.8 0-6.9.7-11.3 1.5M823 222.9c-1.2 2.3-.5 2.8 7 4.9 3.5 1 3.4 1-1.8 1.1s-9.2 1.4-9.2 3c0 1.5 20 4.7 22.6 3.7 1.5-.6 1.5-.8 0-2.5-.9-1-3.1-2.2-4.9-2.7-3.2-.8-3.2-.8 1.3-1.2 5-.4 8.8-3.3 6.7-5-1.5-1.2-5.4-2-13.9-2.8-6-.5-6.7-.4-7.8 1.5"/><path d="M426 226.3c0 .8-1.3 2.1-2.8 2.8-2.8 1.2-5.6 5.5-4.6 7 .3.5 2.1.9 4 .9q5.85 0 1.2 3.3c-1.9 1.2-2.1 1.8-1.2 3.4.7 1 1.9 1.7 2.9 1.5 1.5-.3 1.7.2 1 3.5-.9 5.3-2 6-4.1 2.7-2.7-4.5-5.6-7.4-6.6-6.8-.5.3-.7 0-.6-.8.2-.8-.7-1.3-2.4-1.4-2.4-.1-2.8.3-2.8 2.7 0 1.6.5 2.9 1 2.9.6 0 1 1.7 1 3.7l-.1 3.8-2.2-2.8c-1.3-1.5-2.8-2.7-3.5-2.7-1.4 0-1.6 3.6-.3 4.4.5.3 1.2 2.7 1.6 5.2.8 5.7 2.4 8.4 4.7 8.4 1.5 0 1.8-.9 1.8-5.5 0-5.6.8-6.7 2.9-4.1 1.4 1.6 1.6 6.5.6 11.2-.6 2.6-.3 3.2 1.4 3.7 1.6.4 2.1-.1 2.6-2.4.9-4 2.2-4.5 5.6-2 1.5 1.1 3.1 2.1 3.5 2.1 1.6 0 5.1-3.7 4.8-5.3-.1-1.1.6-1.9 2.2-2.3 1.3-.3 2.4-1 2.4-1.5s1.1-1.4 2.5-1.9c2.2-.8 2.4-1.3 1.9-5-.6-4 1-5.7 2.3-2.4 1 2.6 4.8 3.4 11.5 2.2 8-1.3 9.8-2.8 3.3-2.8-2.6 0-4.5-.3-4.1-.7.6-.7 1.7-.8 8.5-1.2q2.25-.15 1.8-1.5c-.9-2.4.6-2.7 1.7-.4q1.2 2.25 5.1 3c5.6 1 18.3.9 16.7 0-.7-.5-1-1.6-.6-2.5.3-.9.4-1.7.2-1.7-.3 0-5.1-.6-10.9-1.4-5.7-.8-13.3-1.5-16.8-1.5-7.5-.1-8.6-.6-4-1.9 2.6-.6 3.5-1.4 3.7-3.4s-.2-2.7-2.3-3.2c-2.4-.6-19 1-20.5 1.9-1.4.9.3 5.6 2.3 6.6 1.1.6 4.1.9 6.6.6 4.6-.5 4.6-.5 1.6.8-1.6.8-3.8 1.4-4.7 1.5-.9 0-2.1.7-2.6 1.6s-1.8 1.4-2.8 1.2c-1.4-.2-1.9-1.2-2-4-.1-2-.8-4.8-1.7-6.2s-1.4-3.2-1.1-4c.4-1 .1-1.6-1-1.6-1.7 0-3.2-4.1-2.2-6.5.3-.8 0-1.5-.7-1.5s-2.2-.3-3.4-.6c-1.7-.5-2.3-.2-2.3.9M846.6 227.6c-.4.9-.1 2.2.5 3 .8 1 .5 1.6-1 2.6-1.4.9-2.1 2.3-2.1 4.5 0 4.3-1.8 5.1-4.4 2-1.8-2.1-3.4-2.6-11.1-3.5-4.9-.6-11.7-.9-15-.8-8.5.5-22.5 3.1-25.9 5-1.6.8-3.4 1.2-3.9.9-.6-.3-.7-.1-.3.5.4.7.2 1.2-.3 1.2-.6 0-1.1-.5-1.1-1 0-.6-1-1-2.2-1-2.8 0-10.8 3.9-10.8 5.3 0 .5-.3.8-.6.4-.3-.3-1.9-.1-3.5.5-3.5 1.2-4.1 4.4-.6 3.4 1.2-.3 5.1-1.4 8.7-2.3s7.2-2.2 8-2.9c1-.8 2.9-1.1 5.1-.8 1.9.3 6.3-.2 9.9-1.1 14.2-3.7 17.4-3.7 30 0 3.9 1.2 4.1 1.4 1.5 1.4-1.6 0-5.2-.4-8-.8-6.1-1-7.1-.7-8.3 2.8-.8 2.2-.6 3 .7 4 .9.6 1 .9.4.6-.7-.3-1.3 0-1.3.7 0 1.4 13 4.8 18 4.8 1.5 0 4.1 1.4 6.3 3.5 3.9 3.6 6.1 4.3 7.2 2.5 1.2-2 2.6.2 2 3.1-1.2 5.2 3.6 8.1 6.3 3.9 1.5-2.5 3.2-1.7 3.2 1.5 0 1.8.7 2.5 3.2 3 2.9.7 3.5.3 6.4-3 1.7-2.1 3.6-3.5 4.2-3.1 1.5.9 4.8-5.9 5.7-11.7.8-5 .2-5.6-2.9-3.2-1.1.8-2.3 1.5-2.8 1.5-1.2 0-1-5.8.2-6.5 1.6-1 1.2-6.1-.6-7.6-1.4-1.1-1.8-1-2.7.6-.5 1-2.1 2.9-3.4 4.1-1.2 1.2-2.3 3.3-2.3 4.7 0 1.7-.7 2.7-2.2 3.1-1.3.3-3.2 2.2-4.3 4.3-1.5 2.8-2.7 3.9-4.9 4.1-2.3.3-2.8 0-2.2-1.3.3-.9.6-2.1.6-2.6 0-.6 1.4-1.5 3-2 2.5-.9 3-1.6 3-4.4 0-2.7.4-3.4 2.3-3.7 1.7-.2 2.2-1 2.2-3.3 0-1.9.7-3.4 1.9-4 1-.6 2.5-2 3.4-3.2 1.3-2.1 1.2-2.3-.9-3.2-1.3-.6-3.5-2.6-4.9-4.5-1.9-2.8-3.2-3.6-5.6-3.6-2 0-3.4.6-3.8 1.6"/><path d="M464 237.3c0 4.1.8 4.3 20.3 6.2 4.7.5 5.8.3 6.3-1 1.2-2.9-1.9-4.3-12.1-5.4-5.5-.6-11-1.4-12.2-1.7-2-.5-2.3-.2-2.3 1.9M691.2 255.1c-1.9 2.2-3.5 4.6-3.6 5.3s-1 2.5-2 4c-2 3.1-5.6 13-5.6 15.5 0 1 1.1.3 3-1.9 3.9-4.5 5.4-8 4-9.4-.5-.5-1-1.5-1-2.1 0-.5.5-.2 1.1.8.9 1.5 1.3 1.6 2.6.5.8-.7 1.9-2.1 2.4-3.3.8-1.6.8-1.5.4.7-.9 4.4 1 3.3 3.3-2l2.1-4.7-3.2-.6-3.2-.5 2.8-1.4c1.5-.7 2.6-2 2.5-2.8-.5-2.8-2.3-2.2-5.6 1.9M594 264.1c0 .6.5 1.9 1.1 3s.8 2.5.6 3.2-1.1-.4-1.9-2.3l-1.5-3.5-1.9 3.2c-1 1.8-2.5 3.3-3.1 3.3-2.2 0-1.4 4.5 1.1 7 1.4 1.2 2.8 3.6 3.1 5.2.6 2.5 1.1 2.9 2.8 2.4 1.2-.3 2.6-.6 3-.6 1 0 .2-6.5-1.2-10.5-1-2.8-1-2.9.4-1 .9 1.1 2.1 3.9 2.7 6.2.6 2.4 1.4 4.3 1.9 4.3s.9.9.9 2.1c0 1.7 4.4 23.7 5.5 27.6.3.8 1.7.6 4.9-.5 4.3-1.6 4.6-1.9 4.6-5.2 0-3.8-3.4-27.8-4.5-32.2-.4-1.6-1.2-2.5-1.8-2.1s-.8 0-.5-.9c.4-1-1.7-2.6-7.8-5.6-4.6-2.3-8.4-3.7-8.4-3.1M673.8 268c-4.2 2.2-7.9 4.4-8.2 4.9-.7 1-4.4 25.7-5.3 34.7l-.5 5 4.2 1.4c5 1.6 5.6 1.1 6.5-6.5.4-2.7 1.6-8 2.7-11.7s1.8-7.8 1.6-9.2c-.3-1.4-.1-2.4.5-2.3.8.2 3.7-7.3 7.2-18.4.8-2.6.2-2.4-8.7 2.1M686.7 275.2c-.8 1.3-2.9 3.8-4.6 5.6s-3.1 4.1-3.1 5.1c0 .9-.4 2.1-.9 2.6-2.4 2.7-7.3 22.8-6.5 27 .2 1.4 0 2.5-.6 2.5s-1 7.9-1 22.5v22.6l3.2 3.4c1.9 2.2 3.5 3.2 4.1 2.6.5-.5.8-9.8.5-22.1-.3-17-.6-21.3-1.8-22-.8-.5-1.8-.6-2.2-.4-.4.3-.8.1-.8-.5 0-.5-.3-1.6-.6-2.5-.4-1.2 0-1.6 1.5-1.6 1.2 0 2.1-.5 2.1-1.1 0-.5-.4-.7-1-.4-.5.3-1-.1-1-1.1 0-1.1.6-1.5 2-1.1s2 0 2-1.1c0-1 1.1-5.1 2.4-9.2s2.6-9.5 3-11.8c.6-3.8.4-4.4-1.4-4.9-1.1-.3-2-1-2-1.5s.5-.6 1.1-.3c1.6 1 4.7-2.3 6-6.4.6-2 1.5-4 2-4.6 1.2-1.2 1.2-3.5 0-3.5-.5 0-1.6 1-2.4 2.2"/><path d="M594 287.5c-.9 1.1-.9 3 .3 8.7.9 4 1.8 9.1 2.2 11.3.4 2.3 1.5 4.5 2.8 5.4 2 1.4 2 1.5.1 2.2-1.6.6-1.4.8.9.8 4.5.1 5.5 5.1 1.9 9.4-1.1 1.2-1.6 4.3-1.8 9.5-.1 4.2-.5 12.8-.9 18.9-.7 12.2-.3 14.2 2.3 12.1 1.5-1.2 1.6-1.1.3.5-1.7 2.2-4.1 24.5-3.6 34.2.2 3.8 0 10.1-.5 14-.5 3.8-.7 7.1-.5 7.4.3.2 1.1-.2 1.9-.8 1-.9.9-.1-.4 2.4-1 2-1.6 4.4-1.2 5.3.5 1.5.4 1.5-1.1.3s-2.1-1-5.1 2.1c-4.5 4.7-5.6 6.9-5.6 11.9v4.3l3.1-3c2.2-2.1 2.9-3.6 2.7-5.5-.3-2 0-2.6 1.1-2.4.9.1 1.9-.3 2.3-.9.5-.7.8-.7.8.2 0 1.1.3 1 1.4-.1 1.8-1.8 4.8-11.9 4.5-15-.5-5 1.4-32.6 2.3-32.1.5.3.6 6.8.2 15.2-.3 8.1-.6 15.9-.5 17.4s-.3 4.5-.8 6.8c-.6 2.7-.5 4.2.2 4.7.5.3.7.2.4-.4-.3-.5.3-1.7 1.4-2.6 1-.9 1.9-2.2 2-2.9 0-.7.2-2.4.5-3.8 1.7-10 2.3-16.1 1.8-17.3-.3-.8-.1-1.8.5-2.2.6-.3 1.1-1.7 1.1-3.1 0-1.3.5-2.4 1-2.4.6 0 1-.6 1-1.4s.5-1.8 1.2-2.2c.8-.5.9 0 .4 1.7-.5 1.3-1 3.7-1.2 5.4-.5 4.8-1.1 7.7-2.9 15.7-.9 4.2-1.5 8.7-1.3 10 .3 2.2.5 2.3 4.6 1.5 2.6-.5 4.2-1.4 4.2-2.3 0-.8.5-1.4 1.1-1.4.8 0 .9 1.4.5 4.2-.8 5.5-4.2 24-6.2 34.4-2.7 13.6-1.7 19.8 5.6 34.4.4.8 1.7 1.4 2.7 1.3 1.6-.2 1.9.3 1.6 2.5-.3 2.3-.2 2.4.6.7.9-1.8 1-1.8 1 .6.1 1.5.9 3.3 1.8 4 1.1 1 1.4 1 .9.1-.5-.8-.1-1.2 1.3-1.2 1.1 0 2.2-.9 2.6-1.9.8-2.6 2.9-1.7 4.1 1.7 1 2.5 1.1 2.2 1.9-3.3l.9-6 .6 4.5c.4 3.9.8 4.5 3 4.7 1.4.1 3.5.5 4.7.8 1.7.6 2.5.1 3.7-2.4 3.1-5.8 1.8-43.8-2.4-71.1-1.2-8-2.8-37.1-3.6-67.3-.3-12.5-1-22.7-1.4-22.7-2.4 0-2.8 4.9-3.4 38.4-.3 19.8-.8 36.2-1.1 36.4-.3.3-.5-16.2-.5-36.6 0-35.9-.4-40.4-3-37.6-.4.5-1 7.8-1.4 16.3s-.9 15.7-1.2 16c-.4.3-.3-6.3.1-14.7.5-9.6.4-15.2-.2-15.2-2 0-7.8 2.3-9.4 3.7-1 .8-1.5 2.3-1.2 3.6.4 1.8.3 1.9-.6.7-.8-1.1-1.1 1.4-1.2 9.5-.1 7.3-.4 9.8-.8 7.4-.4-2-.6-5-.5-6.8.1-1.7-.2-3.4-.7-3.7s-.9-2.1-.9-4v-3.5l-3 1.7c-4 2.4-4.8 5.4-4 15.4.8 9.1.5 11.4-.5 5.6-.4-2-1.2-3.6-1.7-3.6s-.7-2-.5-4.6c.3-4.1.2-4.5-1.5-4.1-1.8.5-1.8.4-.4-1.8 3.2-4.9 1.5-42.2-2.8-62-1.9-8.9-2.2-9.6-5-11.7-2.1-1.5-2.6-1.6-3.6-.3"/><path d="M588 293.5c0 1.4-.4 2.5-1 2.5-.5 0-1-.5-1-1 0-1.4-2.3-1.3-3.7.1-.9.9-.6 2.6.9 6.8 1.1 3.1 2.4 6 2.8 6.6.4.5 1.5 3.5 2.5 6.5s1.9 5.6 2 5.8c.2.2 1.2-.3 2.4-1 1.4-.9 2.1-2.3 2.1-4.5 0-1.8-.4-3.3-1-3.3-.5 0-.6-.7-.3-1.7.5-1.2.3-1.4-.7-.8s-1.2.1-.7-2.3c.4-2.1.3-3.2-.4-3.2-.8 0-.8-.5.1-1.5.9-1.1.8-2.5-.5-6.5-1.8-5.4-3.5-6.6-3.5-2.5M390.9 295c-.1.8 0 2.7.1 4.1.1 2.6-1.5 5-4.7 6.7-1 .6-1.6 2.8-1.9 7-.3 5.3-1.4 9.5-3.9 15.4-.5 1.3-.3 1.8.8 1.8 2.2 0 3.7-2.3 3.1-4.7q-.6-1.95 1.2-2.7c2.4-.9 3.1.2.9 1.8-1.2.9-1.5 1.5-.7 2 2.1 1.2 1.4 5.4-1 6.7-1.3.7-2.8 1.9-3.5 2.8-1.3 1.7-1.8 7-.6 5.7.4-.3 1.3.4 2 1.6 1 1.9 1.2 2 1.3.5 0-1.3.6-1.6 2.4-1.1 1.9.4 3.4-.3 6.8-3.3 6.6-5.8 8.8-8.3 8.8-9.8 0-.8.9-1.9 1.9-2.5 2.4-1.2 3.4-1.3 2.6-.1-1.3 2.2 1.9 2.2 5.9 0 3.1-1.6 4.2-2.7 3.9-4-.5-1.7-3.5-3.6-6.7-4.1-2.9-.5-3.2-2.8-.4-2.8 1.3 0 3.3-.6 4.4-1.4 1.7-1.3 1.5-1.4-2.6-.9-2.5.2-5.8.9-7.4 1.4-6.3 2-14.4.3-10.5-2.2.8-.5.9-.9.3-.9-2 0-2.6-4.9-1.4-10.7.9-4 .9-5.8.1-6.6s-1.1-.7-1.2.3M615.3 317.1c-.1 1.2-.9 2.9-1.8 3.9-3.3 3.6-4.4 9.2-4.5 21.7 0 6.8.3 12.3.6 12.3.4 0 2.1-.9 3.9-2 4.6-2.8 6-9.4 5.1-24.2-.4-6.8-1.2-11.8-1.9-12.6-1-1-1.3-.8-1.4.9M658.6 317.2c-1 3.7-.7 27.6.4 28.3.5.3.7 1.2.3 2-.3.8-.1 1.5.4 1.5s.9-1.6 1-3.6c.1-3.6 2.3-7.6 2.3-4.2 0 .9-.5 2-1.1 2.4-.8.4-.7.9.2 1.5 1 .6 1 1.5.2 4.4-1.1 3.4-1 3.9 1.6 6.6 1.6 1.6 3.1 2.9 3.4 2.9.4 0 .6-8.7.6-19.4-.1-10.7.2-19.9.5-20.5.7-1.1-2.4-3.1-4.8-3.1-.9 0-1.6.4-1.6 1 0 .5.8 1 1.7 1 1.5 0 1.6.1.1 1.2-.9.7-1.9 2.6-2.1 4.3-.5 2.8-.5 2.8-.5-.5 0-1.9-.1-3.8-.2-4.3-.1-.4-.3-1.1-.4-1.6-.3-2.1-1.4-2-2 .1M549.9 353.1c-1 .6-1 .9-.1.9.6 0 1.2.4 1.2 1 0 .5-.7 1-1.5 1s-1.5-.7-1.5-1.5c0-1.8-2.2-1.4-9.8 1.6-3.5 1.3-4.1 1.8-2.3 1.9 4.2 0 1.3 1.3-3.6 1.5-2.7.2-6.1.6-7.8 1-4.8 1.2-12.5 4.7-12.5 5.6 0 1.1-.8 1.2 9.1-.6 4.6-.8 10.3-2.3 12.5-3.4 2.3-1.1 6.1-2.5 8.5-3.1s5.3-1.3 6.4-1.6 3.1-.7 4.4-1 3.3-1 4.4-1.6c1.6-.8 1.7-1.2.6-1.9-1.9-1.2-3.2-1.1-2.4.1.4.6-.2.7-1.8.1-1.4-.6-2.9-.6-3.8 0M2.3 419.7c-2.2.4-2.3.8-2.3 13.2v12.8l2.4-.4c3.7-.7 6.2-3.9 4.7-5.7s-.8-4.4 2.1-8.1c1.1-1.4 3-4.6 4.2-7l2.3-4.4-2.1-.5c-2.3-.6-7.8-.6-11.3.1M614.6 431c-1 1.1-2.2 1.7-2.7 1.5-2.1-1.4-7.1 10.8-9.2 22.5q-.45 2.55-.6-1.5c-.1-4.5 1.2-10.1 3.6-15.8 2-4.7 1-5.9-1.8-2.3-2 2.5-9.3 21.6-8.3 21.6.2 0-.3 1.6-1.1 3.6s-1.8 6.7-2.1 10.4c-.6 5.7-.4 6.8 1 7.3 1 .4 1.4 1.1 1.1 1.7-.3.5-.2 1 .4 1s1.7 1.2 2.5 2.7c1.1 2 1.5 2.3 1.6 1.1 0-2.4 3-1.1 3 1.3 0 1.1 1 2.7 2.1 3.7 1.2.9 2.9 2.5 3.8 3.4.8 1 2.1 1.8 2.8 1.8 1.7 0 1.7-5-.1-7.5-1.1-1.7-1.1-4.1.4-16.1 1-7.7 2.7-18.3 3.8-23.5 2.6-12.5 3.5-18.9 2.5-18.8-.4 0-1.7.9-2.7 1.9M671.2 619c-1.2.5-2.9.7-3.7.4-2.5-1-2.9 4.3-1 14.5 1 5.3 2.1 11.8 2.5 14.6.9 6.7 2 9.5 3.6 9.5.8 0 2.3.9 3.4 2 3.2 3.2 4.7 2.5 5.4-2.6.9-7 .8-7.2-2.1-7.6q-2.85-.3-2.4-1.8c.2-.8.7-4.4 1.1-8s.8-5 .9-3.3c0 2 .6 3.2 1.3 3 .7-.1 1.4.9 1.6 2.3.7 5.8 3.5 12.1 6.3 14.5 3.4 2.8 8 3.3 9.9 1 .7-.8 2.2-1.5 3.3-1.5s4-.9 6.4-2.1c3.5-1.7 4.3-2.6 4.3-4.7 0-1.6.8-3.2 2-4 1.1-.7 2-1.9 2-2.7 0-.9.9-1.5 2.2-1.5h2.2l-2.2-1.6c-1.2-.8-2.9-2.8-3.7-4.5-.9-1.6-2.2-2.9-2.9-2.9-.8 0-1.6-1.2-1.9-2.8-1.6-7.9-2.3-9.7-4-9.6-.9 0-3.7.1-6 .2-3.7.2-4.6.6-5.6 2.8s-.9 3 .4 4.4c1.9 2.1 1.9 3 0 3-.8 0-1.9-.9-2.5-1.9-.5-1.1-1.9-1.9-3-1.8-3 .2-4.3 4.6-3.5 12.1.5 4.6.4 6.6-.4 6.6-1.3 0-1.4-1.1-1.1-10.2.2-6.6-1.2-11.4-3.1-10.3-.5.4-.9 0-.9-.8 0-1.7-3.7-5.7-5.3-5.6-.7 0-2.2.4-3.5.9M617.6 619.7c-3.3.5-5.2 2.1-5.3 4.3-.1.8-.6 4.6-1.2 8.5-.8 4.9-.9 10.2-.2 17.7 1 11.7 1.4 12.9 3.9 12.5 2.6-.4 8.2-3.1 8.2-3.9 0-1.4 8.8-.9 9.3.4.3.7.7-5.8.8-14.5.1-8.6.3-16.4.3-17.3.1-1-2.4-2.9-6.3-5-3.5-1.9-6.4-3.3-6.5-3.3-.1.1-1.4.4-3 .6M652.5 621.5c-1.7 1.4-2 3-2.3 12.5-.2 6.1-.8 11-1.2 11-.5 0-.6-4.7-.3-10.5.4-7 .3-10.5-.4-10.5s-1.2 4.5-1.5 11.7c-.3 11.7-1.4 16.7-2.8 12.8-.4-1-.3-3.7.1-5.9 1-4.9 1.1-13.8.3-16-.3-.8-1.2-1.2-2-.9s-2.1 0-2.9-.7c-1.3-1.1-1.5-.7-1.6 2.1l-.1 3.4-.8-3c-.7-2.9-.8-2.9-1 1-.4 8.4-.3 16.6.4 17.2.3.3.6.1.6-.6s.5-.9 1-.6c.6.3 1 4.4 1 9.1v8.4h4.9c2.8 0 5.2-.4 5.5-.9 1.2-1.9 8.4-2.3 10.8-.7 1.2.9 3.3 1.6 4.5 1.6 2.1 0 2.3-.4 2.3-5.8 0-3.1-.5-7.5-1-9.7-.6-2.2-1.7-8.5-2.5-13.9-1.6-10.4-1.8-10.8-3.8-11.2-.7-.2-2.1-.5-3.2-.8s-2.9.1-4 .9M723 626.7c-2.4 4.4-3 6.6-2.5 9 .7 4 2 4.9 4.1 2.9.8-.9 2.1-1.6 2.8-1.6 2.2 0 3.9-2.8 4.6-7.6.6-4 .4-4.7-1.8-6.4-1.4-1.1-2.8-2-3.3-2-.4 0-2.2 2.6-3.9 5.7M471 692.5c-.5 1.4-.9 2.9-.9 3.3.1.4 0 1.1-.1 1.7-.2.5-.3 1.9-.4 3s-.7 1.9-1.3 1.7c-1.9-.3-1.6 6.1.5 12.5l1.7 5.3h9.8c8.5 0 9.7-.2 9.9-1.8.3-3.3-.2-5.7-2.3-11-2.2-5.4-4.6-7-8.8-5.9-1.6.4-2.1-.4-3-5.4-1.3-6.4-3.4-7.8-5.1-3.4M797 698c-1.4 1.1-3 2.4-3.6 2.9s-2 1.2-3.2 1.5c-1.2.4-2.2 1.3-2.2 2.1 0 .7-1.8 2-4 2.9-3.9 1.6-5.4 4.6-3 6.1.6.3 1 1.9 1 3.6v2.9h18.7l.6-8.7c.3-4.9.4-9.9.2-11.3s-.4-2.8-.4-3.3c-.2-1.2-1.4-.8-4.1 1.3M454 699.6c0 .8-4.1 5.7-9.1 10.7l-9.1 9.2 6.3.3c5.5.3 6.6 0 8.1-1.8 2.8-3.5 6.8-20 4.8-20-.5 0-1 .7-1 1.6M417.8 703.7c-2.6 1.5-7.7 5.7-11.5 9.5l-6.7 6.8h12.7c7.2 0 12.7-.4 12.7-.9s.9-1.3 2-1.6c1.1-.4 2.7-1.9 3.5-3.5.8-1.5 3.3-4.6 5.5-6.8 4.5-4.7 4.8-5.2 2.1-5.2-2.6 0-9.1 2.8-9.1 4 0 .5-.9 1.4-2 2-1.8 1-1.9.8-1.3-2.1.4-2.1.2-3.4-.8-4-1.8-1.1-1.7-1.2-7.1 1.8M842.1 705.9c-1.5 1-.8 5.5 1.7 10.8l1.6 3.3h9.3c9.4 0 11.3-.9 7.1-3.1-1.3-.7-4.1-2.6-6.3-4.4-3.3-2.6-11.1-7.5-11.8-7.5-.1 0-.8.4-1.6.9"/></svg>