<svg xmlns="http://www.w3.org/2000/svg" width="1706.667" height="960" viewBox="0 0 1280 720"><path d="M8.1 4c1 2.1 1.9 5 1.9 6.3 0 2.7 7.7 9.7 15.5 14.2C33.5 29 36 31.8 36 36.1c0 5.5-3.3 6.6-14.2 4.5-4.6-.8-10.5-1.7-13.3-2-2.7-.2-5.8-.8-6.7-1.1C.1 36.8 0 46.2 0 226.3v189.6l3.3-.3c1.7-.2 2.4-.1 1.5.1-1.3.3-1.8 1.4-1.8 3.8 0 2.9.5 3.5 4 4.9 3.4 1.3 4 2 4 4.5 0 2 .9 3.6 2.6 5 2.2 1.7 2.4 2.2 1 2.7-.9.3-1.6 1.2-1.6 2s-.8 1.5-1.7 1.5c-1 .1 0 .5 2.2.9 3 .6 4.4.4 5.8-.8 1-.9 1.7-1.1 1.7-.4s1 1.1 2.3 1.1c1.6-.1 1.8-.2.5-.6-1-.2-1.8-.8-1.8-1.3s-.3-1.5-.6-2.3c-.3-1 .6-1.9 2.8-2.7 1.8-.7 3.7-1.2 4.1-1.1s1.8.3 3 .5c1.6.2 2.3 1.1 2.5 3.3.3 2.7-.1 3.2-3 4.3-1.8.7-3.6 1.2-4 1.1-.5 0-.8.6-.8 1.5 0 3.3-4 5.4-10 5.4-3.1 0-8 .7-10.8 1.5l-5.1 1.6v29.1l8.5-.7c7-.6 8.4-.5 8.4.7 0 1.6-5.1 3.4-12.4 4.4l-4.6.7v125.6l4.2-1.8c2.4-1 4.2-2.4 4.1-3-.2-.6.4-1.1 1.2-1.1 1.5 0 5.5-1.9 6.5-3.1.3-.3 2.4-1.8 4.7-3.3 5-3.1 7.2-2.4 9.4 3.1 1.3 3.5 1.9 3.9 3.5 2.4 1.3-1.4 13-2 17.8-.9 3.6.8 4.3 1.4 6.1 5.5 1.1 2.6 2.1 5.1 2.3 5.5s-.9 1.3-2.5 2.1c-1.6.9-5.5 4.1-8.8 7.2-6.1 5.9-6.7 6.2-19.4 9.5-4.5 1.2-9.2 3.3-12.2 5.5-2.7 1.9-5.8 3.5-6.8 3.5-1.1 0-2.3.4-2.6 1-.3.5-2.1 1.7-4 2.6l-3.4 1.6v30.4C0 695.3.3 709 .5 709c1.5 0 10.1-4.7 12.3-6.7 1.4-1.3 2.7-2.1 3-1.8.3.2 1.9-.6 3.6-1.8 6.8-4.8 28.5-15.6 32.8-16.3 5.1-.9 7.2 2.2 8.8 12.7 1.2 8.3 1 19.4-.5 23.1-.6 1.6.1 1.8 8.3 1.8 5.1 0 9.4-.4 9.7-1 .4-.6 1-.8 1.4-.6.4.3 2.1-.9 3.7-2.6 2.6-2.8 9.6-6.7 11.8-6.7.5.1 1.2-.3 1.5-.8 1.1-1.5 7.9-6.3 9-6.3.5 0 4.2-3.2 8.2-7 3.9-3.9 7.6-7 8.1-7 .4 0 2.7-1.3 5-3 4.7-3.4 6.8-3.7 9.1-1.3 2.7 3 3 6.6.9 8.8-5.3 5.4-17.7 13.9-19.1 13-.6-.3-2.1.5-3.3 1.7-1.3 1.3-2.7 2.2-3.1 2-.9-.3-3.8 2.4-3.2 3 .2.2-1.9 1.9-4.7 3.8l-5.1 3.5 18.9.3c12.2.1 19-.1 19.2-.8.2-.5 1-1 1.8-1s2.2-.9 3.1-1.9c.9-1.1 2-1.8 2.5-1.5.4.3.8 0 .8-.5 0-.6 3.3-3.2 7.2-5.8 4-2.7 7.8-5.3 8.3-5.9.6-.6 2.4-1.9 4-2.9 3.2-2 5.1-3.6 12.4-10.4 2.5-2.4 6.2-5.1 8.1-6.1 1.9-1.1 5.1-3.3 7-5 4.5-4 11.8-9 13.1-9 .6 0 .7-.5.4-1-.3-.6.1-1.3 1-1.6.9-.4 2-1.7 2.5-2.9.6-1.6 2.1-2.5 5.9-3.2 5.8-1.1 6.7-.6 7.7 4.6.6 2.9.2 3.7-5 8.7-3.1 3.1-7.1 6.2-8.9 6.9-3.7 1.5-8.3 5.3-8 6.6.3.9-17.1 12.9-18.6 12.9-.5 0-1.5.8-2.2 1.7-.8.9-4.8 4.1-8.9 7.2-4.1 3-7.9 5.9-8.5 6.3-.5.4-2.1 1.7-3.5 2.8-2.5 1.9-2.5 1.9 32.9 2h35.4l7.1-6.7c3.9-3.8 10.6-10.3 14.9-14.6 9.8-9.7 13.4-10.2 15.1-2.2.6 3.1.3 3.7-6.8 12.1-1.5 1.9-3.4 3.4-4.1 3.4s-2 1.1-2.9 2.5-2.1 2.3-2.6 2-1.4.4-2 1.5c-1.1 2-1 2 58.5 2 49.4 0 59.9-.2 61-1.4.8-.7 1.1-1.6.8-2-.4-.3-.2-.6.4-.6s2.3-2.5 3.9-5.6 3.4-5.9 4.1-6.1c.7-.3 1.3-1 1.3-1.5 0-.6 1.3-3 3-5.5 1.6-2.4 3-4.8 3-5.4 0-.5.8-1.7 1.8-2.7 3.2-3.4 5.3-6.3 6.4-8.7.6-1.4 1.5-2.2 1.9-1.9.4.2 1.6-.8 2.6-2.3 2.9-4.5 5.4-6.3 8.1-5.8 4.2.7 4.3 1.9.7 7.5-1.9 3-3.5 5-3.5 4.5s-.8.6-1.8 2.5c-3.5 6.5-4.7 8.5-6.9 11.7-1.3 1.7-2.3 3.4-2.3 3.8s-1.1 2-2.5 3.7c-1.4 1.6-2.5 2.7-2.5 2.3s-1.7 1.5-3.8 4.2c-2.1 2.6-4.6 5.4-5.5 6.2-3.1 2.5-1.7 3.1 7.6 3.1 9.2 0 9.4-.1 10.8-2.7 2.5-4.9 4.3-6.4 9.6-7.9 6-1.7 9.3-1.2 9.3 1.6 0 1.1 1.2 3.1 2.8 4.5 1.5 1.4 2.3 2.5 1.7 2.4-.5-.1-1.7 0-2.5.4-.8.3-2.2.8-3 1-.8.3 1.1.6 4.3.6 3.2.1 5.7-.3 5.7-.9s2.5-2.2 5.5-3.6c7.8-3.7 11.5-8.2 11.5-14 0-3-.7-5.6-2-7.5-1.2-1.5-2.6-4.3-3.2-6.1s-2.3-4.7-3.8-6.3c-1.5-1.7-4.2-5.7-6-9s-4.8-7.8-6.8-10c-6.5-7.6-26.2-50.6-26.2-57.4 0-2.3-4.5-13.1-6.4-15.3-.9-1-1.6-2.5-1.6-3.3 0-2.3-3.9-17.8-5-19.7-.6-1-1-3.7-1-6.1s-.4-4.7-1-5.3c-.5-.5-1.9-5.9-3-11.9-1.2-6.1-2.5-12.6-3-14.5s-1.4-7.8-2-13c-2.7-23.7-3.9-27.2-9.5-28.2-1.1-.1-2.4-.6-3-1-5.3-3.9-7.6-6.5-9.4-10.5-3.9-8.3-5.1-10.2-7.1-10.8-1.2-.4-2-1.5-2-2.8 0-2.8-2.8-10.7-4.3-12.6-2.7-3.2-3.4-6.5-1.9-8.8 1.3-2.1 1.5-2.1 3.8-.6s2.4 1.4 2.4-.9c0-2.6-2.5-11.1-4.1-14.1-2.2-4.1-4.2-11.6-4.9-19.1-.5-4.5-1.8-12.4-3-17.6-3.3-15-4-19-4-23.7 0-5-2.7-16.5-4.1-17.3-.4-.3-1-3.3-1.3-6.6-.4-5.7-.9-9.5-2.2-15.9-.3-1.7-1-8.6-1.5-15.5s-1.3-13.9-1.8-15.5c-2.3-7.5-2.3-9.7.5-24.5 1.1-5.6 1.8-6 11.7-6 7 0 10.4.5 15.9 2.5 6.2 2.2 6.9 2.3 7.5.8.7-1.7-1.4-43.4-2.3-47.1-.4-1.4-1.4-2.2-2.8-2.2-2.4-.1-5.6-2.2-5.6-3.8 0-1.5 2.6-2.2 3.8-1 .6.6 1.8.8 2.8.4 1.6-.6 1.7-2.2 1.1-19.4-.4-10.4-.2-26.2.4-35.7.6-9.4 1-20.2.9-24l-.1-7-8.7-8.5c-9.1-8.9-19.8-18-21.2-18-1.3 0-8-5.8-10.9-9.4s-3.2-8.2-.7-9.8c1.6-1.1 5.7.1 9.8 2.9 2 1.4 5.2 3.2 7 4.2 1.8.9 3.9 2.9 4.7 4.6.8 1.6 2.1 3.5 3 4.1.9.7 3 2.4 4.6 3.8 1.7 1.4 3.3 2.6 3.7 2.6s2.9 1.4 5.5 3l4.7 3 1.2-2.2c.6-1.3 1.5-4.3 1.9-6.8 2-13 6.6-29.8 10.3-38 .8-1.9 1.8-6.4 2.2-10 .4-3.9 1.5-7.9 2.8-10 1.2-2 3.2-7 4.6-11.2 2.5-8 6.8-17.2 9.2-19.9.8-.8 1.4-2 1.4-2.6 0-.5.9-1.8 2-2.8s2-2.9 2-4.2V0h-62.1c-41.7 0-61.8.3-61.4 1 .4.6 1 .8 1.4.6.4-.3 9.7 8.3 20.6 19.1 11 10.7 21.7 20.9 23.8 22.5 2.1 1.7 4.7 4.8 5.8 6.9 1.8 3.6 1.8 4.1.4 5.5-2.3 2.4-6.3.4-12.8-6.4-2.9-3.2-6.4-6.6-7.8-7.7-1.3-1.1-3.3-3.2-4.4-4.6-1.1-1.3-3.1-3.2-4.4-4.1-7.6-5.3-25.4-22.6-28.3-27.4-1-1.8-2.7-3-4.2-3.2-1.4-.2-2.6-.8-2.6-1.3S199.7 0 126.1 0H6.2zm133.4 44.5c6.3 3.1 12.7 6.6 14.2 7.8 4.9 3.9 9 6.6 14.8 9.7 3.2 1.7 6.4 3.8 7.2 4.6s1.8 1.4 2.3 1.4c1.5 0 21.8 12.9 25.8 16.5 1.3 1.1 2.4 1.8 2.5 1.5.3-.8 11 5.7 13.9 8.4 1.5 1.4 4.2 3.5 6 4.5 7.6 4.5 14.2 8.1 15 8.1.4 0 .8.6.8 1.4s.7 1.6 1.5 2c1.8.6 1.9 3.6.3 7.1-1.6 3.6-5.3 3.2-12.5-1.5-7.7-4.9-24.9-13.7-28.6-14.5-2.4-.5-3.4 0-6.3 3.2-2.3 2.5-3.2 4.3-2.8 5.6 1.9 5.9-1 16.8-6.1 22.7-1.3 1.5-6.4 10.2-8.7 14.7-1.4 2.8 0 4.6 5 7 1.9.9 5.3 3.4 7.5 5.5s4.8 3.8 5.8 3.8 2.1.4 2.4 1c.3.5 1.7 1 3.1 1 1.3 0 2.4.4 2.4.8s1.2.9 2.7 1c3.5.3 11.4 4 13.3 6.3.8 1 3.8 2.3 6.5 2.9 10.2 2.4 10 2.2 10.3 6.3.3 3.3.1 3.7-2 3.7-1.5 0-4-1.7-6.8-4.5-2.4-2.4-4.6-4.2-5-4-1.1.7-10.9-2.2-14.6-4.4-1.9-1.2-4.4-2.1-5.5-2.1s-3.9-.8-6.2-1.9c-2.3-1-8.4-2.4-13.6-3-5.2-.7-10.2-1.6-11.3-2.2-1-.5-2.3-.7-2.8-.4s-1.1.1-1.5-.5c-.3-.5-1.5-1-2.6-1-1 0-1.9-.5-1.9-1.1 0-.5-.4-.7-1-.4-.5.3-5.4-1.7-10.8-4.5-5.4-2.7-10.7-5-11.6-5-1.6 0-20.3-9.3-27.4-13.7-1.8-1.1-5.4-2.4-8-2.7-2.6-.4-6.1-1.5-7.8-2.4-5.3-2.9-13.4-8.3-13.4-9 0-1.9 2.6-7.2 3.8-7.7 2.3-.9 14.7 3.3 26.6 8.9 17.4 8.3 22.6 9.3 24.1 4.7.3-1.1 1.2-2.2 1.9-2.4.8-.3 1.7-1.9 2.1-3.6s1-3.1 1.3-3.1c.4 0 .8-1 .8-2.3.1-1.2.8-4.6 1.7-7.6 2.5-9 1-11.6-14-23.7-4.4-3.6-10.1-6.6-15.8-8.4-2.2-.7-4.6-1.9-5.2-2.8-.7-.9-1.3-1.3-1.3-.9 0 .9-7.9-3-10.5-5.2-1.1-1-9.1-5.1-17.9-9.2-8.7-4.1-16-8.1-16.3-8.9-.2-.8-.8-2.2-1.3-3.1-1.9-3.7 6.6-4.5 10.5-1 2 1.8 11.4 6.8 29.5 15.7 5.2 2.5 10.9 5.6 12.5 6.8 1.7 1.2 4.2 2.7 5.8 3.4 1.5.6 2.7 1.6 2.7 2 0 .5 2.8 1.7 6.3 2.7 3.4.9 6.8 2.2 7.5 2.7 2.3 2 15.5 3.8 16.9 2.4.2-.2.5-2.1.7-4.2.4-3.6 0-4.5-4.4-9.2-2.7-2.8-6.1-5.4-7.6-5.8s-6.2-3.3-10.5-6.6c-4.3-3.2-8.2-5.8-8.6-5.8-.5 0-1.7-1.3-2.6-3-1.5-2.4-1.6-3.4-.6-5.2 1.3-2.4 3.8-4.7 5.2-4.8.5 0 6 2.5 12.2 5.5M97.6 168.4c1.6.8 6.5 2.2 10.9 3.1 5.8 1.1 9.4 2.6 13.2 5.1 5.1 3.5 22 9.3 27.1 9.4 2.6 0 22.3 9.2 23.9 11.2.5.7 1.2 2.2 1.5 3.4 1.4 5.7-5.2 7.9-12.8 4.3-7.6-3.5-11.3-4.8-18.7-6.5-3.8-.9-9.8-2.9-13.3-4.5s-8.8-3.5-11.7-4.3c-2.8-.8-7.9-2.6-11.2-4.1-10.6-4.8-12.3-5.5-13.9-5.5-2 0-6.9-2.2-7.8-3.5-1.4-1.9-.8-5.1 1.2-7.3 2.4-2.6 7.3-2.9 11.6-.8m112 92.8c2.7 1.4 6.9 2.6 9.4 2.7 2.5.2 5 .6 5.5 1.1.6.4 5 .8 9.9.8 9.4.1 11.1.9 10 4.7-1 3.4-3.1 4.4-7.4 3.4-5.3-1.2-12.2-4-13.8-5.6-1.9-1.8-7.5-3-17.7-3.7-6.9-.5-9.4-1.1-10.9-2.5-1.1-1.1-1.5-2.4-1.1-3.1 1.2-1.9 10.4-.6 16.1 2.2m89.1 55.3c3.1 2.2 3.9 11 1.8 20-.8 3.8-1.9 7.5-2.3 8.2s-3.6 1.3-7.4 1.5c-6.4.2-6.9 0-9.7-3-3.6-3.7-4.5-6.7-3.8-11.9 1.1-7.5 1.9-10 3.5-11.2 6.9-4.9 14-6.3 17.9-3.6m-168.5 62c11.7.4 14.8 1.2 14.8 3.6 0 3.1-5.7 4.7-18 5-11.2.2-11.9.1-12.4-2.3-.2-.7-.7-2.2-1.1-3.2-1.1-2.6 2.1-4.9 5.5-4 1.4.3 6.4.8 11.2.9m159.6 16.8c.7.8.6 1.9-.3 3.7-.9 1.6-1.4 5.7-1.5 10.9 0 8.1.1 8.4 3.1 11.1 2 1.7 2.9 3.2 2.4 4-1.2 2-7.1 4-11.6 4h-4.2l.6-3.5c.3-2 1.5-4.4 2.7-5.3 2-1.6 2-2 .8-9-1-6-1.8-7.8-4-9.7-3.4-2.9-3.6-4.8-.5-6.3s11.2-1.5 12.5.1m-146.2 11.4c-.1 4.7-2.6 6.1-14.1 8-12.3 2.1-12.8 2.1-14.2.7-1.7-1.6-1.7-6.9 0-8.1.6-.6 6.8-1.4 13.7-1.7 6.9-.4 12.9-1.2 13.5-1.7 1.3-1.2 1.2-1.3 1.1 2.8m5.2 38.9c-.2 3.2-.7 3.8-4.3 5.4-2.2 1-6 2.4-8.5 3.2-4.1 1.3-4.5 1.8-4.8 5-.5 5.3-5.1 9.1-13.7 11.2-3.8.9-8.6 2.1-10.5 2.6s-7.3 1.1-11.9 1.3c-5.2.2-8.6.8-8.9 1.5-.5 1.5-5.2 1.5-8.9.1-1.9-.7-2.9-.7-3.1 0-.2.6-1.1 1.1-2.1 1.1-.9 0-2.6.8-3.7 1.8-1 .9-4.1 2.2-6.9 2.9-2.7.6-7.5 1.7-10.6 2.4-4.6 1-6.2 1-8.7 0-2.8-1.2-3-1.5-1.7-2.8 1.7-1.7 2-3.3.5-3.3-.5 0-1 .7-1 1.5s-.4 1.5-1 1.5c-.5 0-1-.6-1-1.4s-.6-1.7-1.2-2c-.7-.3.9-.4 3.5-.2 2.8.2 5.3-.1 6-.8.7-.6 2.8-1.3 4.7-1.4 1.9-.2 5.3-.8 7.5-1.4 2.2-.5 5.1-1.2 6.5-1.4 1.4-.3 3.4-.8 4.5-1.1 1.1-.4 2.2-.8 2.5-.8.3-.1 3.2-.9 6.5-1.9 3.3-.9 7.8-2.2 10-2.8 16.2-4.4 23.3-6.9 24.8-8.7.8-.9 1.7-3.3 2-5.5.8-5.1 3-6.5 10.2-6.6 3.3-.1 9.2-.8 13-1.5 10.8-2 10.6-2 10.3 2.1M302.5 489c.3.5 1.5 1 2.5 1 2.8 0 5 6 4.9 12.9 0 3.1.2 7.4.6 9.7.6 3.6.4 4.2-2 5.8-1.5 1-3.3 1.5-4 1.2-.8-.3-2.8-.1-4.6.4-5.7 1.7-7.3.6-10.3-7.2-2.4-6.2-2.7-8-2.2-14.2.5-5.8 1.1-7.4 2.9-8.8 2.4-1.9 11.2-2.5 12.2-.8m49.9 84.5c.5 1.3-3.7 5.5-5.3 5.5-.4 0-4.2 3.3-8.5 7.4-6.3 6.1-8.5 7.6-11.9 8.1-2.3.4-4.7 1.2-5.4 1.7s-1.7.8-2.3.6c-1.1-.3 8.5-11.8 10-11.8 1.4 0 12.4-7 13.7-8.6.6-.9 1.7-1.3 2.4-.9.7.5 1 .3.7-.6-.6-1.6 3-3.9 4.8-3.2.7.2 1.5 1.1 1.8 1.8"/><path d="M157.3 110.6c-1.8.9-3.3 2.2-3.4 2.8 0 .6-.4 4.5-.8 8.6-.5 4.2-.4 8.3.1 9.3.8 1.6 10.3 6.6 15.6 8.2 3.3 1 8.1-1.2 12-5.4 5.5-5.9 6.4-7.7 5.7-11-.5-2.5-1.2-3-4.8-3.7-3.9-.6-12.7-5.6-12.7-7.2 0-.9-5-3.2-6.9-3.2-.9 0-3.1.8-4.8 1.6M297.9 494.6c-.6.8-1.7 1.4-2.4 1.4-1.7 0-2.5 2.3-2.5 7.5 0 5.4 2.3 8.4 7.2 9.1 3.3.6 3.8.4 5.2-2.4 2.2-4.3 2-8.6-.6-12.7-2.6-3.8-5.2-5-6.9-2.9M393.2 2.4c-.6 1.3-.8 4.1-.5 6.2.3 2.2 0 6.4-.7 9.4-2.4 11.6-2.7 14.8-1.3 17.2 1.3 2.4 1.6 12.6.4 16.7-.6 2.3-.8 2.1-2-1.8-.7-2.4-1.2-7.8-1.1-12s.1-8.1 0-8.6c-.1-.6-.2-1.3-.2-1.7.3-1.6-2.9-1.6-3.5 0-.4.9-.9 1.9-1.3 2.2-1.5 1.1-6 17.8-6 22.1 0 2.5-.5 5-1.1 5.6-.9.9-.8 1.8.5 3.7.9 1.5 2.1 2.6 2.6 2.6 1.5 0 1.2 4.3-.4 6.6-.9 1.2-1.7 6.2-2.2 12.7-.5 8-1 10.7-2 10.7-.8 0-1.4-.5-1.4-1.1 0-.5-.5-.7-1.1-.3-1.4.8-.3-16 1.2-18.8 1.4-2.6 1.1-9.4-.5-10.7-1-.9-1.7-.6-2.8 1.1-2.7 4.1-4.9 18.4-3.9 24.9.8 4.9 2 7.5 2.2 4.8.1-.8.4.2.8 2.2s.3 6.3-.2 9.5-1.1 9.5-1.4 13.8c-.4 6.9-.2 8.2 1.6 10.7 1.8 2.4 2.1 4.3 2.1 11.1 0 4.6.1 10.3.3 12.8s.4 6.4.5 8.7c.1 2.4.9 4.9 1.9 5.9 1.9 1.8 2 2.6 2.2 16.8.1 10.6.7 11.1 3.6 3.3 2.8-7.4 5.1-5.4 3.6 3.1-.5 2.6-.5 6.7-.1 9.2s.8 3.8.9 3c0-.8 1-2.1 2-2.7 1.1-.7 2.2-2.5 2.6-4.2.3-1.6 1.7-4.2 3-5.7l2.5-2.9-.7 5.5c-.3 3-.7 5.7-.9 5.9-.4.5 1.7 2.3 4.4 3.9 2 1.1 2.5.9 4.7-1.5 1.3-1.6 2.5-3.4 2.5-4.1s.7-1.5 1.6-1.9c.8-.3 1.3-1.1 1.1-1.7-.8-2 2-7.4 4.2-8.1 4-1.2 4.4.6 1 4.1-4.3 4.4-3 6.1 3 3.9 2.4-.8 6.3-1.5 8.8-1.5 4.8 0 9.6-2 11.2-4.7.9-1.6 1-1.6 1.1-.1 0 1.3 1.3 1.8 5.8 2.4 3.1.4 7.4 1.3 9.6 2 4.6 1.7 18.2 1.9 19.2.3.8-1.3 7-.3 10.1 1.7 1.2.8 2.7 1.4 3.3 1.4.7 0 4.2 1.5 7.8 3.3 6 3 13.5 6 15.4 6.2.3 0 1 .3 1.4.7 2.1 2.1 3.1.6 2.8-4l-.3-4.7 1.2 5.4c.7 3 1.9 5.8 2.7 6.2 3.8 2.1 30.1 12.9 31.4 12.9.8 0 1.6-1 1.8-2.3.3-1.7.6-1.3 1.2 1.6.7 3.3 1.9 4.5 8.2 8.8 4.1 2.7 8.2 5.2 9.2 5.6.9.3 3.6 2.6 5.9 5.1 4.2 4.5 4.2 4.6 6.3 2.7 1.8-1.6 2-1.7 1.4-.2-.3.9-1 1.7-1.5 1.7-1.7 0-.9 2.2 2.3 6.4 5.5 7 6.3 7.6 7.1 5.3.2-.6.3-.4.1.6-.1 1 .6 2.6 1.7 3.5 2.2 2 18.2 10.2 18.7 9.7.8-.8-13.3-40.8-15.1-43.2-1.1-1.4-6.1-4.4-11.1-6.8-16.8-7.8-28.1-12.5-30-12.5-1.1 0-2.7-.6-3.5-1.3-.9-.8-4.1-2.1-7.1-3.1-3-.9-10.9-3.4-17.5-5.6l-12-3.9-2.4 2.2c-1.9 1.8-2.3 1.8-1.8.5.3-1 0-2.4-.8-3.2-2.2-2.2 1.2-3 5-1.2 3.7 1.8 33.7 11.6 35.6 11.6.8 0 3.2.9 5.4 2 6.6 3.3 37.6 17 38.4 17 .5 0 1.1-11.8 1.5-26.3.5-14.4 1.1-30.7 1.6-36.2.6-8.3.7-7.1.4 6.7l-.4 16.6 5.2 1 5.3 1-5.1.1-5.2.1-.7 18.1c-.6 14.7-.5 18.3.6 19.4.8.7 7.3 2.5 14.4 3.9 7.2 1.4 14.4 3 16 3.5 6 1.8.3 1-14.1-1.9-8-1.7-14.9-2.9-15.1-2.6-.3.3.9 4.4 2.5 9.3 1.7 4.8 5.1 14.6 7.6 21.8 2.7 7.6 5.4 13.7 6.6 14.7q3.75 3.15 0 2.1c-1.4-.4-1.9-.1-1.6.8.3.8 1.7 10.5 3.2 21.6l2.7 20.3 2.6.1c1.4.1 3.7.2 5.1.2s2.8.5 3.2 1.1c.4.5 2.6-1.1 5.2-3.9l4.6-4.8v-31.5l-7.2-1.1c-4-.7-8.8-1.4-10.5-1.7-1.8-.3-3.3-.9-3.3-1.3 0-.5 2.8-.3 6.3.4 3.4.7 8.1 1.5 10.5 1.8l4.2.5v-29.6c0-16.4.3-66.8.6-112.2s.3-94.3-.1-108.8L637.8 0h-24.4C600 0 589 .3 589 .7c.1 3.7 4.2 65.2 4.9 73.3.6 5.8 1.3 17.6 1.6 26.2.4 8.7 1 20.1 1.4 25.5s.4 12.5 0 15.8l-.6 6-.3-5.5c-.2-3-.3-6.4-.2-7.5s-.3-9.4-.8-18.5-1.2-21-1.5-26.5c-.6-11.1-1.8-28.1-4-57.5-.8-10.7-1.5-22.3-1.5-25.8V0h-47l.4 2.2c.8 3.7 2 14.2 1.7 15.2-.5 2 4.6 53.9 5.8 59.7.5 2 .5 5.4.1 7.5l-.7 3.9-.6-5.5c-.9-6.6-5.7-57.6-6.7-71-.5-5.2-.8-10.1-.9-10.8C540 .3 535 0 518.6 0h-21.4l1.3 6.2c2.3 11.5 2.7 14.3 1.7 13.3-.5-.6-1.4-4.4-2.1-8.5s-1.5-8.3-1.7-9.3C495.9.2 494.1 0 477.5 0c-18.1 0-18.3 0-18.9 2.2l-.6 2.3-1.5-2.3C455 .1 454.2 0 442.4 0h-12.6l.7 3.2c.9 4.2 3.3 11.5 4.6 14 1 1.9-.7 8.8-2.2 8.8-.3 0-1.1-4.4-1.7-9.8-.7-5.3-1.7-11.2-2.4-13L427.6 0h-7.8c-8.5 0-8.2-.2-9.3 7.5-1 7.5-1.4 8.5-3.1 7.8-1.3-.5-1.5-1.5-1-4.5.4-2.2.4-5.5 0-7.4-.6-3.4-.6-3.4-6.4-3.4-5 0-5.8.3-6.8 2.4M444.7 182c2.8.5 9.6 1.2 15 1.5 5.4.4 12.1 1.3 14.8 2 2.8.7 8.4 1.9 12.5 2.5 7.9 1.2 21.1 4.3 15 3.6-1.9-.3-8.9-1.4-15.4-2.5-11.4-2-14.7-2-11.6-.1.8.5 1.2 1.1.9 1.4s-2.2-.6-4.2-1.9c-3.2-2.2-5.4-2.7-16.8-3.5-8-.7-13.6-.7-14.3-.1-.6.5-5 1.1-9.8 1.2-8.2.4-8.6.3-7.1-1.4 2.1-2.3 10.1-4.7 13.3-4.1 1.4.3 4.8 1 7.7 1.4M639.9 86.7c0 100.2.1 145.6.4 146 .3.2 37.3-6.5 39.9-7.3 1.1-.3 1.9-2 2.4-5 .8-5.3-.3-57.8-1.6-74.5-.4-6.3-.6-11.7-.4-12 .3-.6 1.8-24.5 2.9-46.4.2-5.5.9-17.7 1.5-27 .9-15.3 2.9-54.4 3-58.8 0-1.6-1.8-1.7-24-1.7h-24z"/><path d="M688.7 17.3c-.4 9.5-1.1 22.9-1.6 29.7-.6 6.9-1.3 19-1.6 27s-1 21.9-1.6 31c-1.8 31.2-1.9 37.6-.9 56 .6 10.2 1.1 28.5 1 40.7l-.1 22.3 5.3-2.1c7.9-3 33.5-14.7 36.8-16.8.8-.5 4-1.5 7-2.1 3-.7 10.2-2.8 15.9-4.6 5.7-1.9 10.8-3.4 11.3-3.4.6 0 2.4-.6 4.1-1.4 1.8-.7 8.2-2.3 14.2-3.5 6.1-1.2 14.8-3 19.5-4.1 7.8-1.7 18-2.8 32-3.6 18.7-1 24-.3 24 3.2 0 2.2-10.3 1.5-16.4-1.1-2.5-1.1-29.5 1-30.9 2.4-.7.7-.6 1.5.3 2.6 1 1.2 1 1.9.2 2.7-2.5 2.5-1.1 3.1 6.5 2.4 8.2-.7 24.1-3.2 28.5-4.6 2.1-.6 3.2-.3 4.8 1.2 2 1.9 2.3 1.9 3.8.4s1.5-1.8.2-2.6-1.2-1 .3-1c.9 0 1.7.4 1.7 1 0 .5 1.6 1.6 3.5 2.5s3.9 2.3 4.6 3.1c1.7 2.1 7.1 1.8 6.8-.4-.4-4.5.2-8.3 1.3-8 2.1.7 5.7 8.2 5.8 12 0 4.1 1.9 5.8 6.4 5.8 2.8 0 4.3-3.3 3.3-7.2-.4-1.2-.1-2.8.5-3.5.8-1 1.6-.9 3.9.8 1.6 1.1 2.9 2.9 2.9 3.9 0 2.4 2.1 7 3.2 7 .4 0 1.1-.1 1.5-.3 1-.3.4-10.7-.7-12.7-.4-.8-1.1-3.5-1.5-6l-.7-4.5 2 2.5c1 1.4 3.1 4.9 4.6 7.7 1.4 2.9 3.1 5.3 3.7 5.3 1.6 0 0-10.6-2.6-17.5-1.3-3.3-2.8-9.4-3.4-13.5s-1.3-9.1-1.6-11-.7-4.9-1.1-6.5c-.3-1.7-.2-2.5.3-1.9.4.6 1.6 1.3 2.6 1.7.9.3 1.7 1.4 1.7 2.3 0 1 .4 3.1.9 4.8.6 1.7 1.5 5.7 2.1 8.8 1.5 7.8 3.4 9.2 5.6 4.1 1.3-3.2 1.5-6.1 1-17.8-.5-13-.4-14.1 1.7-17.4 2.5-4.1 2.6-10.8.1-26-1.5-9.5-1.5-9.6.5-11 1.8-1.1 2.1-2.4 2.1-8.3 0-4.3-.6-8-1.6-10-.9-1.7-1.4-3.9-1.1-4.9.9-3.2-1.5-9-4-10-1.4-.5-2.3-1.7-2.4-3.1-.3-12.8-.9-16.8-3.2-21.4-1.3-2.7-2.7-7.1-3-9.7-.4-2.7-1-5.4-1.4-6-.5-.7-1.2-3.6-1.8-6.6s-1.6-5.6-2.4-5.9c-1.2-.4-1.3 1.1-.7 8.9.3 5.2.2 10-.3 10.8-1.1 1.7-1.4 1.2-4.6-9.9-3-10.3-4.3-13.3-7.2-16.7-3.4-3.8-5.4-3.3-7.2 1.9-.9 2.6-2 5-2.4 5.5-1.3 1.3-2.7-1.9-2.7-6.5V0H737v6.8c0 6.7-3.1 39.6-5 54-.6 4-1 10.3-1 14-.1 3.7-.8 8.9-1.6 11.7l-1.4 5 .5-9c.3-5 1-12.6 1.5-17 1.8-14.2 4.9-44.7 5.6-55.3l.7-10.2h-47zM904.4 7.2c8.8 19.2 9.8 20.9 12 20.6 1.1-.2 2.7-1.5 3.4-3.1.7-1.5 1.7-2.7 2.3-2.7.5 0 .9-.6.9-1.4 0-.7.7-1.9 1.5-2.6s1.2-1.6.9-2.1 0-.9.5-.9c.6 0 1.1-.7 1.1-1.5s.4-1.5 1-1.5c.5 0 1.6-1.2 2.4-2.8.8-1.5 2.6-3.9 4-5.4s2.6-3 2.6-3.3-8.1-.5-18-.5h-17.9z"/><path d="M941 4.7c-1.9 2.6-4.5 5.7-5.7 6.9-1.3 1.3-2.3 2.7-2.3 3.2s-1.1 2.1-2.4 3.5c-1.4 1.5-2.7 3.5-3.1 4.6-.3 1.1-1.5 2.3-2.6 2.6-1.2.4-2.2 1.9-2.6 3.6-.5 2.8-2.3 4.1-2.3 1.7 0-.6-.3-.9-.6-.5-2.1 2.1.3 24.6 3.6 34.7 3.7 11.1 6 22.5 6 29.7 0 3.2.7 7.1 1.5 8.7.9 1.6 1.8 4.6 2 6.6.3 1.9.9 6 1.5 9 1.9 9.4 3.1 29.5 3.7 56.5.7 37.1.7 36.1-1.2 46.5-1.8 10.2-2.9 46.7-1.4 47.6.5.2 3.1-.7 5.9-2.1 10.3-5.2 19.6-4.2 27.2 3 3.1 3 3.7 4.3 4.3 9.2.3 3.2 1 6.6 1.5 7.5 1.6 2.8 1.1 5.9-1.5 11.3-1.4 2.8-2.5 6.8-2.5 9.1 0 2.2-.3 4.4-.7 4.8-.4.3-.8 1.7-1 2.9-.1 1.2-.8 4.2-1.5 6.6-1.1 4.3-1.1 4.5 2.1 7.3 2.6 2.3 3.2 3.5 2.7 5.4-.3 1.3-.9 3.6-1.2 5.2-.3 1.5-.7 3.7-1 4.9-.2 1.3-1 2.2-1.7 2-.8-.1-1.1 1.2-.9 4.6.3 4.6.2 4.8-3.1 6.2-3.4 1.4-3.4 1.4-4.6 11.2-1.2 10.3-4 22.4-5.9 26-.6 1.1-1.6 7.4-2.3 13.9-.9 10.5-1.5 12.8-5 20.1-3.6 7.6-3.9 8.9-3.8 16.2.1 4.4-.2 8.4-.5 9-.4.6-1.1 3.9-1.7 7.3-1 6.7-2.7 11.8-3.9 11.8-.4 0-1.2 1.1-1.8 2.5-2.1 4.6-9.6 11.7-15 14.1-3.1 1.4-5.6 3.3-6.1 4.6-.8 2-3.4 19.8-7.2 49.3-.5 3.8-1.3 8.1-1.8 9.5s-1.7 6.1-2.6 10.5-2.1 9.2-2.7 10.6c-1.5 4.1 1 8.6 9.3 17 6 6 9.9 10.9 9.9 12.4 0 .1-1.5.1-3.2-.1-2.5-.2-5-1.9-10.7-7.3-7-6.8-10.2-8.4-11.7-6-.8 1.3-5.4 17.2-6.1 21.2-.3 1.5-.9 2.7-1.4 2.7s-.9.8-.9 1.9c0 1.6-.9 4-5.5 14.6-.7 1.6-1.4 3.5-1.6 4-1.1 2.9-11.6 21.3-13.1 22.9-1 1.1-4.1 6.5-7 12-2.8 5.6-5.4 10.3-5.8 10.6-.7.5-3.3 5.9-8.9 18.2-2.4 5.4-1.7 9.2 2 10.3 1.2.4 4.2 2.7 6.7 5.1 2.4 2.4 4.8 4.2 5.2 3.9.5-.3 1.1-.1 1.4.4.4.5-.2 1.2-1.1 1.4-1 .3 3.5.5 10 .6l11.7.1-2.6-5.1c-1.4-2.8-4.5-7-6.9-9.3-7.8-7.6-10.7-14.8-6.6-16.1 2.6-.8 5.8 1.3 7.6 5.1.8 1.7 2.2 3.7 3 4.4 2 1.7 6.9 9 9.6 14.3 3.6 6.9 2.7 6.7 24.9 6.7h20.2l-2.2-2.8c-1.2-1.5-4.8-6.2-8-10.5s-6.2-7.7-6.5-7.7c-.4.1-1.8-1.5-3.2-3.5-1.7-2.5-2.3-4.6-2.1-7.3.3-3.3.6-3.7 2.8-3.4 3.1.5 5.7 2.7 7.7 6.7.9 1.6 4.3 5.9 7.7 9.5 3.3 3.6 8.1 9.4 10.6 12.8l4.5 6.2h33.8c19.5 0 33.7-.4 33.7-.9s-2.2-2.5-4.8-4.4c-2.7-1.9-5.9-4.9-7.3-6.7-2.2-3.1-6.5-7.4-18.3-18.8-7.2-7-10.5-12.2-9.4-14.7.5-1.2 1.8-2.7 2.9-3.3 1.7-1.1 2.5-.9 5.4 1.4 1.9 1.4 3.2 3.1 2.9 3.6s.3 1.2 1.5 1.5 2.1.9 2.1 1.4.6.9 1.3.9c1.4 0 8.6 7 8.6 8.3 0 .4 1.5 2 3.3 3.5 1.8 1.4 9.2 8.4 16.3 15.4l13 12.8h12.3c6.7 0 12.2-.4 12.2-.8 0-.5-.9-1.7-2-2.7s-2.2-2.6-2.5-3.6c-.4-1-2.3-2.8-4.5-4-2.1-1.2-4.3-3.2-4.9-4.5s-1.6-2.4-2.2-2.4-2.4-1.3-4-3c-2.3-2.3-2.8-3.5-2.3-5.5.3-1.4 1-2.8 1.5-3.1s.9-1.7.9-3.1c0-2.2.3-2.5 2.8-2 1.5.3 4.7 1.3 7.2 2.2 3.8 1.4 8 2.2 12.7 2.4 1.4.1 8.8 6.7 15.9 14.1 5.6 5.8 4.9 5.1 12.1 11l6.2 5h50.5c32.7 0 50.7-.4 51.1-1 .4-.7 1.2-.7 2.5 0 1.2.6 18.6 1 46.4 1h44.6v-58c0-54.4-.1-58.1-1.7-58.7-1-.4-2.7-1.5-3.7-2.5-1.1-1-2.8-1.9-3.8-1.9-2.2-.2-2.6-.3-6.3-1.8-1.6-.6-4.8-1.9-7.1-2.7l-4.1-1.6 3-3c6-5.9 13.1-8.4 15.7-5.3.7.8 2.1 1.5 3.1 1.5s2.1.4 2.4 1c1.4 2.3 2.5.7 2.5-3.6 0-4.6-1.6-7.4-4.3-7.4-1.9 0-15.1-6.9-15.5-8.1-.2-.5-.9-.9-1.5-.9-1.7 0-9.9-4.1-13.3-6.7-1.7-1.3-3.7-2.3-4.5-2.3s-2-.5-2.5-1c-.6-.6-2.8-1.2-5-1.5-5.6-.6-17.1-3.8-22.4-6.3-6.4-3-12.9-5.2-15.5-5.2-3 0-22.8-7.9-20-8 2.9-.2-6.3-3-9.6-3-4.7 0-12-2.4-17.1-5.6-2.1-1.3-6.8-3.1-10.6-3.9-9.3-2-11.4-2.6-13.7-4-1.1-.7-4.2-1.9-6.9-2.6-6.6-1.9-7.7-4.4-4.7-10.4 2.1-4.1 2.5-4.5 6-4.5 2.1 0 5.8.7 8.1 1.5s5.1 1.5 6.2 1.5c1 0 3.8.8 6.1 1.8 10.1 4.4 12.5 5.2 18.4 6.1 3.4.5 9 2.2 12.5 3.6 8.4 3.5 12.5 4.9 24.1 8.1 5.3 1.5 9.7 3 9.7 3.4 0 1.7 8.1 4.5 16 5.6 5.3.7 10.7 2.1 14.3 3.8 4.7 2.3 7.4 2.8 14.5 3 5 .2 10.7 1 13.5 2 2.6.9 5.3 1.4 5.9 1 .7-.4.8-.3.4.4-.5.9 1 1.2 5.3 1.2h6.1v-35h-3.7c-4 0-11.9-2.4-14-4.2-2.5-2-1.4-3.8 2.2-3.8 3.4 0 8.4 2.1 13.3 5.6l2.2 1.6V456h-3.7c-5.2 0-11.7-2.5-12.1-4.5-.3-1.5.6-1.6 7.7-1.3l8.1.3V270.7c0-98.8-.2-179.7-.4-179.7-.3 0-1.6.4-3 1-3 1.1-6.1.1-9.3-2.9-1.9-1.8-2.3-1.9-3.1-.5-.8 1.3-1 1.4-2.1 0-.9-1.1-1-2-.1-3.6.6-1.2 1.4-1.9 1.7-1.6.4.3 1.1-.4 1.7-1.6.9-1.9 4.8-4.6 10.6-7.4 3.7-1.9 4-3.1 4-17.8 0-9.5-.4-14.6-1-14.6-1.4 0-6-4.6-6-5.9 0-.6 1.6-2.7 3.5-4.7l3.5-3.6V0h-165.6l-4.1 3.5c-2.3 1.9-4.5 3.5-5 3.5s-2 1.1-3.2 2.4c-1.3 1.4-3.5 2.9-4.9 3.5-1.5.7-3.6 2.6-4.8 4.4s-4.1 4.6-6.5 6.2c-2.4 1.7-5.1 3.8-6.1 4.7-1 1-2.2 1.8-2.7 1.8s-3.1 2.2-5.7 5c-2.6 2.7-5.2 5-5.8 5s-4.5 2.9-8.6 6.5c-4.1 3.5-7.8 6.4-8.2 6.5-.5 0-1.6.8-2.6 1.7-2.2 2-4.1 3.6-9.7 7.7-2.2 1.7-4.4 3.6-4.8 4.3-1.2 1.9-5.8 1.6-9.2-.7-1.7-1.1-2.3-2-1.5-2 1.3 0 1.3-.1 0-1-1.3-.8-1.3-1.3.1-3.7.9-1.6 2.1-2.7 2.8-2.5.7.1 1-.1.7-.6-.7-1.1 2.6-4.1 8.1-7.6 2.4-1.4 6.4-4.7 9-7.2 2.7-2.5 5.9-5.3 7.3-6.2s3.1-2.5 3.8-3.4c.7-1 1.8-1.8 2.4-1.8s2.1-1.1 3.4-2.5 2.8-2.5 3.4-2.5c.5 0 1-.5 1-1 0-.6.8-1.3 1.8-1.7 2.5-.9 8.2-6 7.5-6.7-.4-.3-.2-.6.4-.6.5 0 2.1-1 3.5-2.3 1.3-1.2 4.3-3.4 6.6-5 2.3-1.5 4.2-3.2 4.2-3.7 0-.6.3-.9.8-.8.4.2 1.8-.5 3.2-1.5 2.3-1.6-1-1.7-72-1.7l-74.5.1zm323.1 43.4c.3 3 .9 6.1 1.3 7 .5 1.1-.5 2.8-3.1 5.6-8.7 9.1-18.4 14.7-28.2 16.4-4.6.7-5.8.6-8.1-1.1-1.6-1.1-3.4-2-4.2-2s-2.5-1.4-3.7-3.1c-2-2.7-2.2-3.4-1-5.5.7-1.3 1.6-2.4 2.1-2.4.4 0 .8-.7.8-1.5s.6-1.5 1.3-1.5c3.4 0 13.6-6.4 20.6-12.9 2.8-2.6 4.2-3.1 8.5-3.2 2.8-.1 6.5-.5 8.1-.9 4.5-1.1 5-.8 5.6 5.1M1106 135c-1.7 1.6-3.7 3-4.5 3s-3.1 1.1-5.1 2.5-4.3 2.5-5 2.5c-.8 0-1.4.3-1.4.8 0 .4-1.7 1.5-3.7 2.4-2.1.9-5.1 3-6.8 4.5-2.9 2.8-5.5 4.3-8.5 4.9-2 .4-14.2 6.6-15.6 7.9-2.2 2-9.4 3.9-10.5 2.8-1.9-1.9-.1-6.8 2.9-8.1 1.5-.7 3.8-1.8 5.2-2.6 3.4-2 9.6-4.6 10.8-4.6.5 0 2.9-1 5.3-2.3s5.9-2.7 7.7-3c1.8-.4 6.3-2.6 10-5s9-4.9 11.7-5.7c2.8-.7 5.4-1.7 6-2.1.5-.5 1.7-.9 2.7-.9 1.5 0 1.3.5-1.2 3m67.2 169.5c.4 2.1.1 2.6-2.1 3-1.4.3-4.7 1-7.2 1.6-2.5.5-6.8.7-9.6.3-2.8-.3-7.5-.1-10.9.6-3.2.7-9 1.2-12.9 1.1-3.8 0-10.4.7-14.6 1.5-8.3 1.8-14.9 1.3-14.9-1.1 0-.8.8-1.5 1.8-1.6.9 0 2.6-.3 3.7-.6s6.5-.9 12-1.3c9.4-.7 14-1.2 37-4.5 5-.7 10.9-1.3 13.1-1.4 3.7-.1 4.2.2 4.6 2.4M1006.1 326c1.2.7 1.9 2.1 1.9 4.1 0 1.7.5 3.9 1 5 2 3.7 2.4 14.1.6 18.3l-1.6 3.9-7.1-.5c-6.2-.5-7.4-.9-9.5-3.3-3.4-4-3.5-12.1-.1-13.4 1.3-.5 3.4-.7 4.8-.4 2.9.5 6.3-2.6 5.7-5.4-.5-2.8-4.8-2.9-6.9-.2-1.5 2-1.9 2.1-3.3 1-.9-.7-1.6-2.7-1.6-4.3 0-2.3.6-3.2 3.3-4.3 3.8-1.7 10.1-1.9 12.8-.5m-45.3 96.7c2.6 1.2 3.2 2.1 3.2 4.7 0 1.7.4 4.6.9 6.3.6 2 .6 3.5 0 3.8-.5.4-.9 3.2-.9 6.4 0 7.7-1.1 8.6-9.8 7.8-11.6-1-12.4-2-6-7.6 5.1-4.6 7.5-11.9 5.2-16.3-.8-1.5-1.4-3.9-1.4-5.4 0-2.4.3-2.6 2.8-1.9 1.5.3 4.2 1.3 6 2.2m28.4 4.3c2.2 1.1 2.3 1.5 2.3 14 0 13.4-.6 15.5-4.1 14.8-1.7-.3-1.9-1.4-1.8-12.6.1-9.1-.2-12.2-1.1-12.2-.7 0-1.8-.7-2.6-1.6-2.3-2.8 2.6-4.5 7.3-2.4m157.6 30.5c7.4 1 11.6 2.1 14.6 3.9 2.7 1.6 5.1 2.3 6.4 1.9 1.2-.3 3.4 0 5 .6 1.5.6 6.4 1.5 10.9 2 4.5.6 9 1.5 10 2s6.3 1.4 11.8 2.1c5.5.6 10.2 1.5 10.3 2 .2.6.8 1 1.4 1 .5 0 2.5.7 4.4 1.6 2.5 1.2 3.4 2.3 3.4 4.1v2.5l-8.1-.7c-5.8-.5-10-1.6-14.5-3.7-3.4-1.6-8.4-3.1-11.1-3.3-14-1.2-17.4-2.2-20.1-5.8-.7-.9-1.8-1.5-2.3-1.1-.5.3-1.5.1-2.2-.4-.8-.7-1.9-.6-3.4.2-2.5 1.3-19.3 0-20.4-1.6-.3-.4-3.8-1.4-7.7-2.2-7.4-1.4-10.2-2.8-10.2-5.1 0-2.8 1-2.8 21.8 0m-14.8 17c3.6.8 10.5 2 15.4 2.6 6.5.7 10.4 1.9 14.5 4 3.1 1.7 6.4 2.8 7.3 2.6.9-.3 1.9 0 2.1.6.1.5 3.7 1.2 7.7 1.4 7.7.4 13.5 2.1 17.9 5.3 1.4 1 3.1 1.8 3.6 1.9.6.1 1 .5.9 1.1-.1.5-.2 1.8-.2 2.7-.2 1.4-1.2 1.8-3.9 1.9-5.9.2-16.3-1.6-19.7-3.3-1.7-.9-3.8-1.8-4.6-2-.8-.1-4.9-1-9-1.8s-9.2-1.8-11.3-2c-3.6-.5-10.6-3.2-11.7-4.5-.3-.4-3.4-1.2-7-1.9-3.5-.7-8.1-2-10.2-2.8-3.2-1.3-3.8-2-3.8-4.4 0-2.5.4-2.9 2.8-2.9 1.5 0 5.6.7 9.2 1.5m-206.8 97.2q7.8 8.85 11.7 9.6c1.6.3 4.1 2 5.7 3.8s3.9 4.3 5.2 5.6c1.2 1.3 2.2 2.6 2.2 2.9 0 2.1 8.8 6.4 12.9 6.4 2.3 0 6.8 4.9 7.7 8.3.3 1.6 1.3 3.1 2 3.4 1.9.7 1.8 3.9-.2 4.7-3.1 1.2-9.5.6-12.2-1.2-1.5-.9-4.5-3.5-6.7-5.7-4.2-4.1-5.6-5.3-11.5-9.5-1.9-1.4-6-4.7-9-7.5-3.1-2.7-8.2-7.4-11.6-10.2-6.2-5.5-7.7-9-5.4-13.3.9-1.6 1.5-1.7 4-.9 1.6.6 4 2.2 5.2 3.6m308.5 3.8c1.6 1.4 4.5 3.8 6.7 5.5 2.1 1.6 3.3 3 2.5 3-1 .1-.8.5.5 1.5 1.1.8 1.6 1.5 1 1.6-.5.1.2.5 1.6.9l2.5.8-2.7.1c-1.6.1-2.8-.3-2.8-.7s-2.8-1.4-6.2-2.1c-9.2-2-15.8-5.7-15.8-8.7 0-4.7 8.3-5.9 12.7-1.9m-185.4 28.7c-.2.5.9 1.3 2.4 2s3.2 1.8 3.6 2.5 1.3 1.3 2 1.3c3 0 24.4 12.8 26 15.5.8 1.5 9.4 6.5 11.1 6.5.6 0 1.9.8 2.7 1.7.9 1 2.5 2.3 3.5 2.9 1.3.9 1.6 1.5.9 2.3-1.3 1.3-.7 8.1.6 8.1.5 0 .9-.6.9-1.3 0-2.4 7-1.9 11.7.9 2.4 1.4 5.3 2.7 6.5 2.9 2.6.5 6.8 3.3 6.8 4.4 0 1.2 6.2 5.1 8.8 5.6 1 .2 3.8 1.6 6.3 3.3 2.4 1.6 7.6 4.9 11.4 7.4 8.5 5.6 10.7 7.9 10.3 10.9-.5 3.5-1.7 4.9-4.1 4.9-3.1 0-16-4.8-17.2-6.4-.6-.7-2.1-1.7-3.5-2.1s-3-1.5-3.7-2.4c-.6-.9-1.4-1.3-1.8-1-.3.4.4 1.8 1.7 3.1 4.6 4.8 9.8 11.1 9.8 11.8 0 .4.9 1 2 1.3 2.4.6 2.7 3.7.4 3.7-1.9 0-12.4-6.8-12.4-8.1 0-.5-.6-.9-1.3-.9s-3.1-1.8-5.2-4-4.4-4-5.1-4-2.6-1.3-4.4-3-4-3-4.9-3c-1 0-3.1-1.3-4.7-3-1.6-1.6-3.5-3-4.2-3s-1.1-.4-.8-.9-.1-1.1-.9-1.5c-2.2-.8-1.8-2.1 1.1-3.4 2.6-1.2 2.5-3.2-.2-3.2-2 0-4.4-2.4-4.4-4.4 0-.9-1.5-2.2-3.4-3s-6-3.4-9.1-5.8c-3.2-2.4-6.9-5-8.3-5.8-3-1.7-3.2-1.8-9.6-6.6-2.8-2-6.7-4.6-8.7-5.8-16.9-9.4-17.9-10.5-17.9-18.5 0-2.2.4-2.6 2.9-2.6 1.6 0 2.7.3 2.4.7m154.5 70c.5.7 2.2 5.2 3.8 10 1.5 4.9 3.1 8.8 3.4 8.8.6 0 5.5-12.8 6.6-17.3.6-2.8 3.4-3.8 3.4-1.2 0 .8-1.9 6.4-4.1 12.5-4.7 12.6-6.6 14-9.3 6.7-.9-2.3-2.7-7.3-4.1-11.1-1.4-3.7-2.5-7.5-2.5-8.2 0-1.7 1.4-1.8 2.8-.2m33.4 8.8c1 1 1.8 3.1 1.8 4.5 0 2.4-.2 2.5-7 2.5-3.8 0-7 .3-7 .8 0 .4.7 1.8 1.6 3 1.6 2.4 5.3 2.9 8.5 1.2 3.3-1.8 4.4.1 1.2 2.1-5.4 3.6-11.3 1.5-13.3-4.7-3-9 7.9-16.2 14.2-9.4m20.8-1.5c4 2.1 5.6 7.2 3.6 11.8-2.7 6.6-10.5 7.9-15 2.6-3.7-4.4-3.5-9.2.5-13 3.5-3.2 6.6-3.6 10.9-1.4M797.5 187.6c-3.9.8-22 4.6-25 5.3-2.9.6-3 .9-3.3 7l-.3 6.4 3.2-.7c3.2-.6 6.6-2 19.7-8.4 4-1.9 7.5-3.3 7.8-3 .5.6-12 6.8-24.8 12.3-6.8 3-9.1 5.1-4.1 3.9 1.4-.4 7.6-3.1 13.7-6 6.1-2.8 13-5.8 15.4-6.5 2.3-.7 4.3-1.5 4.3-1.8.1-.3.3-1.5.4-2.6.2-1.1.4-2.5.5-3 .8-3.3-1.2-4.1-7.5-2.9M755.5 197.6c-3.8 1.4-11.4 3.9-16.9 5.5-5.4 1.6-10.5 3.6-11.2 4.4-.8.8-2 1.2-2.7.9-.7-.2-6 1.7-11.8 4.5-5.7 2.7-14.4 6.6-19.2 8.6-6.2 2.7-8.6 4.2-8.3 5.2.4.9 0 1.3-1.1 1.1-1.4-.2-3 3.6-8.5 21.1-3.8 11.8-6.7 21.6-6.5 21.7.2.2 4.1-1.4 8.8-3.7 8.6-4.1 17.6-12 20.9-18.5.8-1.6 2.3-3.5 3.2-4.2s3.1-3.5 4.9-6.2c3.5-5.4 4.4-6.2 3.4-3-.9 2.7-.3 2.6 5.7-1.7 12-8.5 13.5-10 13-13.4-.3-2.3-.1-3 .7-2.5.7.4.9 1.6.6 2.7-.4 1-.2 1.9.4 1.9 2 0 15.8-5.3 24.9-9.6 10-4.7 11.2-6.1 11.2-13.5 0-4.8-1.2-4.9-11.5-1.3M420 204.5c1.4.8 3.2 1.2 4.2.9.9-.3 1.9 0 2.3.6s-.6 1-2.4 1c-1.6 0-3.3.4-3.6 1-.3.5-1.6 1-2.9 1-2.4 0-5.6 2.8-5.6 4.8 0 .7 1.2 1.2 2.8 1.2 4.5 0 15.6-2.1 16.7-3.1.5-.5 1.7-.9 2.7-.9 1.3 0 1.8-.8 1.8-3 0-2.8-.2-3-4.1-3-2.4 0-3.8-.4-3.4-1s-1.6-1-5.2-1c-5.5.1-5.7.1-3.3 1.5M516.9 212.8c1.1.8 1.1 1 0 1.4-.8.3-.2 1 1.6 2 6.5 3.4 12.2 6.6 16.9 9.7 2.8 1.7 5.5 3.1 6.2 3.1s1.4.6 1.7 1.2c.2.7.8 1 1.2.6s-1.1-1.8-3.3-3.2c-4.6-2.9-6.9-5.6-3.1-3.6 1.3.7 3.5 2.1 4.8 3.1 3.1 2.4 3.7 2.4 3.7-.3 0-1.8-2.2-3.2-12.2-8-10.8-5.1-21.5-8.8-17.5-6M836.5 214.8c-1.6.2-3.4.7-4 1.2-.5.4-5.2 1-10.4 1.4-10.2.8-16.7 3.1-15.2 5.5 1.1 1.7 9.7 1.8 21.8.1 9.8-1.3 11.7-2.4 11.1-6.2-.2-1.9-.8-2.2-3.3-2M427.9 215.4c-.2.3-3.3.9-6.7 1.5-3.4.5-7.5 1.9-9.1 3-1.6 1.2-3.6 2.1-4.5 2.1s-1.6.7-1.6 1.5-.3 1.5-.7 1.5c-1.3 0-10.3 8.5-10.3 9.7 0 2 2.4 2.1 6.3.1 5.3-2.6 6.5-1.2 2.2 2.5-3.9 3.4-4.1 6.7-.4 6.7 2 0 2.6 3.4 1.1 5.6-1.1 1.6-6.6 2.8-5.6 1.2 2.3-3.7.2-8.4-3.3-7.1-.7.3-1.3-.8-1.5-2.8-.3-3.7-1.9-4.7-4.1-2.5-.8.8-1.6 1.3-1.9 1.1-.2-.2-.5 1.1-.6 3-.2 2.9.1 3.5 1.7 3.5 1.7 0 2 .8 2.3 4.7.3 4.3.5 4.8 2.6 4.5 1.7-.3 2.2.2 2.2 2 0 1.3.7 3.3 1.5 4.5 1.4 2 1.4 2.3-.4 3.5-1.2.9-2.1 2.8-2.3 5.2-.3 3.3 0 3.9 1.9 4.2 1.7.3 2.7-.4 3.8-2.6.8-1.6 1.5-3.5 1.5-4.3s1.1-1.9 2.5-2.5c3.3-1.5 3.6-1.5 3.4 0-.7 5.9 1.3 7.4 4.9 3.5 2.9-3.1 2.8-3.8-1-6.4-2.2-1.6-3.5-1.9-4.4-1.2-.8.6-1.4.6-1.8.1-.7-1.2.4-7.2 1.3-7.3.3 0 1.3-.2 2.3-.4 1.2-.2 1.8.7 2.3 3.1.3 1.9 1 3.4 1.5 3.4.6 0 1 .7 1 1.5 0 3 4.3 2.2 9.2-1.7l3.8-2.9-1.5-3.7c-1.9-4.4-4-6.2-7.4-6.2-1.5 0-2.1-.4-1.5-.8 1.7-1.1 2.2-3.5 1.2-5.6-.8-1.5-1.7-1.7-4.9-1.2-4.7.7-4.9 0-.9-3.7 2.6-2.5 4-2.9 11.9-3.5 9.9-.8 11.5.2 2.1 1.3-3.3.4-6.2 1-6.4 1.3-.2.4-.1 2.2.1 3.9.5 3.2.7 3.3 5 3.3 5 0 19.4-2.7 20.6-3.9.5-.5 2.6-.2 4.7.5 5.7 2 24.3 3.6 25.1 2.2 1-1.5-1-4.4-3.7-5.7-1.2-.5-8.7-1.5-16.6-2.2-7.8-.7-14.7-1.6-15.2-2-1.6-1.4 4.1-2.1 9.6-1 8.8 1.6 22.2 2.3 23.7 1.2 2.4-1.6-.4-3.9-5.7-4.7-8.5-1.2-9.2-2.3-1.7-2.5 3.9-.1 8-.3 9.3-.4 1.2-.1 2.2.1 2.2.6 0 .8 6.2 3.1 7.6 2.8.5-.1 1.6.1 2.4.4 3.5 1.5 10.6 3.7 11.8 3.7 2.4 0 .3-1.7-2.9-2.4-1.7-.3-7.4-2.2-12.6-4.1-7.4-2.8-9.8-3.3-10.9-2.4s-1.5.8-2-.4c-.8-2.2-4.6-3.4-17.4-5.3-8.4-1.3-11.5-1.4-11.8-.5-.2.6-.7.9-1.2.6-.4-.3-.7.6-.6 1.9.1 2.1.9 2.6 6.7 4 3.7.9 7.4 1.6 8.3 1.6s1.6.4 1.6 1c0 .9-12.1.8-18.5-.1-2.1-.3-17.7 1.8-20.1 2.8-.8.3-1.4 1.1-1.4 1.8 0 2.3-1.7 2.6-4 .7-1.5-1.2-2.1-2.4-1.6-3.8.5-1.6 1.6-1.9 8.3-2 4.6-.1 10.1-1 13.3-2 4.6-1.6 5.4-2.3 5.5-4.5.2-2.4-.1-2.6-4.5-2.8-2.5 0-4.8.1-5.1.3M843.2 216.2c-2.9 2.9-1.3 4.7 5.6 6.7 7.4 2.2 12.5 2.7 15.9 1.6 1.6-.5 2.4-.2 3.3 1.5 1 1.8.8 2.5-.9 4.1-2.4 2.2-2.7 4.9-.8 6.8 1 1.1.8 1.3-.9.9-3.4-.9-5.7 1.6-5.2 5.6.5 4.5-1.2 4.7-8.6 1.2-3.3-1.6-7.9-2.7-12.8-3.1l-7.6-.7-1.6 3c-2.2 4.3-2 5 1.7 5.5l3.2.3-3.3.9c-1.8.4-3.1 1-2.8 1.2.2.3 4.4 1.3 9.3 2.4 8.6 1.9 13.3 1.9 13.3-.1 0-.6.4-1 .9-1 .4 0 .6 1.1.4 2.5-.4 1.9 0 2.7 2.1 3.6 1.4.7 2.6 1.8 2.6 2.6 0 1.3 3 1.7 6.5.7 1.9-.5 4.5-4.5 4.5-7 0-.7 1-1.4 2.3-1.6 1.8-.2 2.3-1 2.5-4.1.3-2.9.7-3.7 2.3-3.7 1.2 0 2.3-1 2.9-2.6 1.4-3.5 1.2-5.4-.4-5.4-.8 0-1.7-.7-2-1.6-.5-1.2-.2-1.5 1.1-.9 4.4 1.7 7 1.7 7.7 0 .3-.9.2-2.5-.4-3.4-.5-1-.6-2.1-.3-2.5.3-.3-.4-.6-1.6-.6-1.3 0-4.1-1.6-6.4-3.5-4.2-3.6-7.2-4.4-8-2.3-.3.8-.9.1-1.5-1.4-.7-1.8-2.1-3-3.9-3.3-1.5-.4-4.3-1.3-6.1-2.1-4-1.7-11.4-1.8-13-.2M675.5 227.7c-3.8.8-27 5.1-31.1 5.8l-4.1.6-.7 13.8c-.3 7.5-.3 17.1 0 21.3l.7 7.6 3.6-.5c13-1.7 20.7-3.6 22.4-5.5 1.3-1.6 10.1-27.2 14.2-41.6.7-2.3-.2-2.6-5-1.5"/><path d="M725.1 228.9c-1.3 1.2-2.8 2.1-3.3 2.1-1.7 0-9.7 6.5-9.4 7.5.2.6-.6 1.2-1.8 1.3-1.9.1-8.6 6.4-8.6 8.1 0 .3-2.2 3.1-4.9 6-2.7 3-4.7 6-4.4 6.7.3.8 0 1.4-.6 1.4-1.6 0-1.3 3.1.4 5.5 1.4 1.8 1.6 1.8 3.2.3 1.4-1.5 4.2-8 4.3-10.1 0-.4-1-.3-2.2.4-1.7.8-1.5.4.7-1.5 1.7-1.4 3.3-2.5 3.6-2.6.3 0 .4-1.1.1-2.5-.3-2 0-2.5 1.7-2.5 1.1 0 2 .3 2 .7-.4 2.7.7 2.2 4.9-2.2 2.6-2.8 7.6-7.5 11.1-10.5 4.9-4.3 6.2-6 6-7.8l-.4-2.4zM549 229.9c0 1 1.6 3.3 3.5 5 2 1.7 3.1 3.1 2.5 3.1-2 0-.7 1.7 4.8 5.9 5.1 4 7.2 4.1 3.2.1-1.1-1.1-1.7-2-1.2-2 .4 0 2.9 2.2 5.6 5l4.8 5 1.8-2.3c1.2-1.4 1.5-2.7 1-3.7-1.3-2.5-4.6-5-7-5.5-3-.6-3.9-1.5-1.4-1.5 1.6 0 1.4-.4-1.1-2.5-1.6-1.3-3.5-2.4-4.2-2.5-.6 0-1.3-.4-1.5-.8-.5-1.2-7.7-5.2-9.4-5.2-.8 0-1.4.9-1.4 1.9M824.5 232.5c-3.8.7-9.6 1.6-12.7 1.9-4.6.6-6.4 1.4-8.8 3.7-6 6.1-5.2 6.1 22.5.8 2.8-.5 5.5-1 6-1 1.8-.2 15.6 3.1 17.5 4.1 3.3 1.8 7.8 1.2 9.4-1.2 2.3-3.2 2-5.5-.8-6.2-4.2-1-21.7-2.6-22.7-2-.5.3-.9 0-.9-.5 0-1.3-.4-1.3-9.5.4M886.6 239.2c-.9 1.2-1.6 2.7-1.6 3.3s-1 1.5-2.2 2c-1.4.6-2.5 2.3-2.9 4.2-.3 1.8-.2 3 .2 2.7.5-.3.9 0 .9.5 0 .6-1.4 1.1-3 1.1-3 0-4.7 2.2-5.4 7-.2.9-1.6 1.6-3.3 1.8-2.9.3-4.1 1.7-5.7 6.6-1.2 3.7 5 5.1 7.2 1.6 1.7-2.8 3.8-2.5 4.5.7.4 1.6 1.7 4.1 3.1 5.8 2.3 2.8 2.5 2.9 3.2 1 .4-1.1 1.4-2.8 2.2-3.8.8-.9 1.2-1.7.8-1.7s-.2-.9.4-2.1c.9-1.5 1.8-1.9 3.4-1.5 1.8.4 2.6-.1 3.9-2.9.9-1.9 1.9-5.7 2.3-8.6.7-4.9.6-5.2-1.2-4.5-5.1 2.1-5.4 2-5.4-1.8 0-2.4.5-3.9 1.5-4.2 1-.4 1.5-1.8 1.3-4.1-.3-4.7-2.2-6-4.2-3.1M433.1 242.8c-6.5 1.5-7.5 2-7.8 4.1-.2 1.8.5 3.3 2.7 5.3 3.6 3.2 5 3.3 14.5.9l7-1.8-4.5-.7c-7.9-1.2-8.3-2.8-.5-2.1 4.9.4 6.6.3 5.5-.4-.8-.6-1.1-1.1-.5-1.1.5 0 .4-.5-.3-1.2s-1.2-1.6-1.2-2c0-1.8 2.2-.6 5 2.6 2.9 3.3 3.3 3.4 13.1 4.1 10.5.8 12.5.4 9.4-1.9-1-.7-1.5-1.8-1.1-2.4.8-1.4-.2-1.6-15.4-3.7-13.8-1.8-16.3-1.8-25.9.3M576.2 250.2c-2.1 2.1-1.3 3.6 2.8 5.9 2.2 1.3 4 2.7 4 3.2s-1.1.2-2.5-.7c-3.2-2.1-7.9-2.2-7.1-.1 1.3 3.3 1.6 4.9.5 2.7-.7-1.2-1.7-2.1-2.3-1.9-2.2.7-1.5 2.5 1.8 4.2 2.3 1.3 3.7 2.9 4.1 4.7.4 1.5 1 2.8 1.5 2.8 1.6 0 2.1-1.9 1-4-.9-1.6-.8-1.8.5-1.4.8.4 1.5 1.1 1.5 1.7 0 .5.9.2 1.9-.7 3.1-2.8 2.2-7.5-2.5-12.9-3.1-3.7-4.2-4.5-5.2-3.5M591.7 270.7c1.3 3.8 3 7.3 3.8 7.9 1 .8 1.1 1.4.3 2.2-.7.7-.5 2.5 1.1 6.4 1.1 2.9 3.3 11.1 4.7 18.3 1.4 7.1 2.9 13.3 3.3 13.7 1.1 1.2 7.2-1.5 6.6-2.9-.3-1.1 0-1.1 1.7-.2 2 1.1 2.1 1 1.4-6.7-.4-4.4-1.6-13.6-2.6-20.6-1.1-7-2-13.2-2-13.8 0-.7-.7-1-1.4-.7-1 .4-1.3.1-1-.8.4-1-2-2.6-8.1-5.5-4.8-2.2-9.1-4-9.5-4s.3 3 1.7 6.7M678.5 268c-4.5 2.1-8.6 4.4-9.2 5.1-.6.8-2.1 7.5-3.2 14.9-1.2 7.4-2.6 15.9-3.1 18.9-1.2 6.5-1.3 11.2-.2 10.9.4-.1 2.5.4 4.7 1 4.5 1.3 5.3.8 5.9-3.3.7-5.1 2.4-12.8 4-18 .9-2.8 1.6-6.2 1.6-7.7 0-1.4.5-2.8 1-3 .6-.2 1.2-1.2 1.5-2.3.5-2.4 5-16.2 6-18.8 1-2.3.3-2.1-9 2.3M585.5 267c-1.9 2.1-1.9 2.2.9 7.1 1.5 2.8 2.5 5.3 2.2 5.6s-1.3-.9-2.3-2.6c-3.6-6.6-4-6.9-5.1-4.1-1.1 2.6.2 5.7 3.9 9.2.9 1 2 2.7 2.4 3.8s1.1 1.8 1.6 1.5c2.1-1.4 2.8.7.8 2.4l-2.1 1.7 3.3 13.5c3.2 13.2 5.8 19.8 6 15.4 0-1.1.3-1.4.6-.8.2.7 1.3 1.3 2.4 1.3 2.3 0 2.4-2.1.5-10.4-.8-3.4-2-8.7-2.6-11.9-.7-3.7-1.5-5.5-2.2-5-.7.4-.9 0-.5-1s.1-1.7-.6-1.7c-1 0-2.4-2.2-4.4-6.8-.3-.8 0-1 1.1-.6 2.2.8 2.1-2.5-.4-9.8-2.9-8.9-3.3-9.3-5.5-6.8M693.2 274.2c-.7.7-1.2 1.6-1.2 2.1s-2 3.2-4.3 6c-5.8 6.9-10.7 20.9-12 34.4-.3 2.4 0 4.3.5 4.3 2.3 0 3.8-3.2 3.9-8.2.1-2.9.5-7.8.9-10.8.7-4.2.8-3.1.4 4.4-.5 9.2-.4 9.8 1.1 8.2.9-.9 2.3-4 3-6.9.8-2.8 2-7.2 2.7-9.5 1.1-4 1.1-4.5-.6-5.8-1-.7-2.4-1.5-3-1.7s-.8-.8-.4-1.2 1.4-.2 2.3.5c1.4 1.2 2.9.8 3.1-.8.1-1.1 3.3-8.5 4.9-11.2 1.6-3 .7-5.8-1.3-3.8"/><path d="M663.9 274.4c-.2.2-4.2.9-8.9 1.6-4.7.6-10 1.3-11.7 1.7l-3.3.5v15.9c0 14.2.2 15.8 1.6 15.2.9-.3 2.4-2.4 3.4-4.5 1.4-3.1 1.9-3.6 2.4-2.2.4 1 0 2.5-1 3.5-1.3 1.4-1.5 3.2-1.2 7.4.3 3 .1 5.5-.4 5.5s-.4.9.2 2 .7 2 .3 2-.8 1.1-.8 2.5.3 2.5.6 2.5c1 0 1.7-3.6 2.5-13 .7-7.8.8-8.2 1.8-5.1.9 3.1.4 8-1.8 18.6-.5 2.5-.9 11.7-.7 16.7.1 3 .5 3.8 2 3.8 1.1 0 2.2-.6 2.5-1.3.3-.6.4 0 .1 1.4-.6 3.1 1.2 5.8 4.1 6.3 2.9.6 3.4-2.2 3.4-18.8-.1-11.9-.2-12.8-1.5-10.1-1.2 2.6-1.3 2.7-1.4.8-.1-1.2.6-2.8 1.4-3.7 2.7-2.6 1.2-4.6-3.5-4.6-1 0-2.1-.4-2.4-.9s1.5-.6 3.9-.3c2.5.2 4.5.3 4.5.1 0-1 3.1-22.5 4.5-30.9.8-5.2 1.5-10.3 1.5-11.3 0-1.6-1.1-2.3-2.1-1.3M577.1 298.4c-1.5 1.8-.6 5.5 2.8 12.1 1.4 2.7 2.7 5.9 2.9 7 .1 1.1.7 2.4 1.2 2.9.6.6 1 2 1 3.1 0 3 .7 3.4 3.5 2.1 1.5-.7 2.5-2 2.5-3.2 0-4.2-10-25.2-12.1-25.4-.4 0-1.2.6-1.8 1.4M696 299.4c0 .8-1.1 3.6-2.5 6.2s-2.5 5.2-2.5 5.8-1.2 3.3-2.5 6.1c-1.3 2.7-2.2 5.1-2 5.4.3.2.5-.2.6-1s.4-.3.8 1.1c.4 1.5 1.4 2.5 2.6 2.5 3.5 0 11-24.6 8-26.7-1.6-1.2-2.5-.9-2.5.6M633.2 316.6c-1.2.8-2.2 2.2-2.2 3.1s-.6 1.3-1.5.9c-.8-.3-3.8-.8-6.6-1.2l-5.1-.7.7 18.9c.4 10.4.9 19.1 1.1 19.3.1.1 1.3-.4 2.6-1.3 1.2-.9 3-1.6 4-1.6s1.8-.5 1.8-1c0-.6.7-1 1.5-1s1.6-.6 1.6-1.3c.1-.6.3-1.9.4-2.7s.3-6.7.5-13c.3-14.2 1.7-11.2 1.9 4 .1 7.2.4 10 1.1 9 .8-1.3 1-1.3 1 0 0 .9.3 1 .9.5 2.4-2.4 2.5-24.5.1-23-.4.3-1-.2-1.3-1-.4-.9-.1-1.2.9-.8 1.2.4 1.5-.3 1.3-4.1-.3-4.9-1.2-5.5-4.7-3"/><path d="M889.8 317.7c-3.9.4-5.4 2.3-1.8 2.3 2.8 0 2.5 1.8-.5 2.6-1.3.3-2.3 1.1-2.2 1.7s-.8 1.3-2 1.5c-1.6.2-2.3-.2-2.3-1.2 0-.9-.9-1.6-2.1-1.6-1.1 0-1.7.4-1.4 1 .3.5 0 1-.7 1s.1.9 1.8 1.9c1.8 1.1 3.5 2.4 3.8 3 1.1 1.7 6.9 4.2 11.2 4.8 3.2.4 4.5 1.2 5.5 3.2.7 1.4 1.5 2.9 1.7 3.2.1.4-3.2-1-7.5-3.1-10.2-4.9-13.3-5.7-13.3-3.2 0 1.1-.9 2.7-2.1 3.8-2.8 2.5-4.3 5.5-3.3 6.3.5.3 1.8 1.6 2.8 2.9l1.9 2.2-3.3-1.7c-3.2-1.6-3.5-1.5-6.9.4-2 1.2-3.5 2.4-3.3 2.7.2.4-.4 1.8-1.3 3.2-1.5 2.3-1.5 2.7.2 5.4.9 1.7 2.1 3 2.5 3s1.6.8 2.7 1.9c3.1 3.1 9.4 7.1 10.3 6.5.4-.3.8-.1.8.3 0 .5 1.2 2.1 2.6 3.6 2.7 2.9 2.7 5.1 0 2.4-.9-.8-2.9-1.8-4.6-2.2-1.6-.4-3-1.2-3-1.8 0-1.3-4.9-5.5-8.4-7.2-1.2-.6-2.1-1.6-2.1-2.2 0-.7-.9-1.9-2-2.6-1.7-1.3-2.2-1.3-4.2 0-1.3.9-2.3 2.3-2.3 3.2 0 1.3-.2 1.4-.9.2-.8-1.2-1.3-1.1-2.9.9-2.2 2.7-2 4 .5 4 1 0 1.4.6 1 2-.3 1.2.1 2.4 1.1 3 1 .5 1.2 1 .5 1-1.8 0-1.6 1.5.3 3.4s1.2 2-1.9.3c-2.9-1.6-3.6-2.7-3-4.4.3-.7-.2-1.3-1.1-1.3s-1.6-.4-1.6-1c0-.5-1.1-1.7-2.4-2.5-2.1-1.4-2.9-1.4-8.7.2-3.5.9-6.5 2-6.6 2.3-.2.3-3.6.4-7.7.3-4-.1-8.9.2-10.9.7-2 .4-5.3.4-7.4-.1-2.1-.4-7.6-1.2-12.3-1.7-8.2-.9-8.6-.8-10.8 1.5-2.7 2.7-2.1 4.3 1.5 4.3 1.4 0 5.3.7 8.7 1.6 4 1.1 8 1.4 11.9 1 4.5-.4 5.7-.3 5.7.8 0 1.6 2.2 2.2 13.4 3.6 9.8 1.2 11.8.3 7.9-3.6-1.7-1.6-1-2.7 1.4-2.5.8.1.9.5 1.2 3.6 0 .8 1 1.5 2 1.5 1.5 0 1.9.7 1.8 3.6-.1 2.7-.3 3.2-1.2 2.1-1-1.3-5-2-20.7-3.4-6.5-.5-6.8-.5-6.8 1.6 0 2.8-1.1 2.6-3.7-.8-2-2.5-3.7-3.1-14.3-5.1-9.6-1.9-12.3-2.1-13.3-1.1-2.7 2.8 2.9 4.5 18.6 5.5 3.2.3 6.2.8 6.5 1.1.4.4-5 .4-12 .1l-12.8-.8v3.1c0 3.2 1.8 8 3.6 9.6.8.7.6 1.5-.6 2.7-1.7 1.5-1.8 1.5-2.3 0-.5-2-3-3.4-11.2-6-17.7-5.7-26.2-8.6-27.5-9.3-.8-.5-2.2-1.2-3-1.6s-1.7-.9-2-1.3c-.3-.3-3-2.1-6.1-3.8-3.1-1.8-6.2-3.9-6.9-4.7-1.8-2.2-4.2-.1-3.1 2.8.5 1.2 1 2.6 1.1 3.2.1.5.5 1.5.8 2.1.8 1.3 19.6 14.4 20.7 14.4.4 0 2.5 1.6 4.7 3.5 2.1 2 6.4 4.7 9.5 6 3.1 1.4 5.4 2.8 5.1 3-.3.3-1.8-.1-3.4-.9-5.5-2.9-14.9-6.9-15.1-6.5-.2.2-.9-.5-1.7-1.7-2-2.8-19.6-15-21.3-14.6-.7.2-1.3-.3-1.3-1.1 0-.7-4.3-5.5-9.5-10.6l-9.5-9.4v28.8l10.3 9.7c5.6 5.4 10.9 10.4 11.8 11.2s2.1 2 2.5 2.8c.5.9 6.5 5.4 13.2 10.2 13.7 9.6 16.2 11.1 17.7 10.8.6-.1 1.8 1.1 2.7 2.8 1.5 2.7 1.5 2.8 0 2.3-.9-.4-3.7-2.3-6.2-4.3-2.5-2.1-9-6.8-14.5-10.5s-10.8-7.4-11.7-8.2-2.1-1.2-2.7-.9c-.6.4-1.7-.6-2.5-2.1s-5.8-7.1-11.1-12.3c-7.9-7.8-9.7-9.2-10.6-8s-1 1.3-.7 0c.4-1.4-1-3.6-4.6-7.1-1.8-1.7-1.8-1.8.4-1.2 1.9.5 2.2.3 1.7-1-1.7-4.3-1.7-4.9.2-1.7 2.4 4.1 2.2 4.6 2.1-9.7-.2-16.1-1-20.4-4-19.6-1.9.5-1.9.5-2-6.6 0-3.1-2.3-6.7-4.7-7.3-1.7-.5-1.8.7-1.8 19.4 0 17.9.2 20.1 1.8 21.2.9.7 1.7 1.7 1.7 2.2 0 .4-.5.3-1.2-.4s-1.6-1.2-2-1.2-.7 8.7-.7 19.2c.2 14.4.5 19.9 1.6 21.5.8 1.4.9 2.3.3 2.3-1.3 0-1.3 8.3.1 13 .9 2.8 1.9 4 4.5 5 1.8.7 5.4 3.5 8 6.1 2.6 2.7 5.1 4.6 5.6 4.3.4-.3.8-.1.8.3 0 1.3 4 6.3 9 11.3 2.5 2.5 6.1 7.1 7.9 10.2 1.8 3.2 3.7 6 4.2 6.3.5.4 2.1 2.9 3.5 5.7 1.5 2.9 3.3 5.8 4.1 6.6.7.8 1.1 1.7.8 2s-.6.3-.8.1-1.7-2.2-3.4-4.4-4-5.8-5.1-8.1c-1.1-2.2-2.8-4.7-3.8-5.5-1.6-1.3-1.7-1-.9 5.6 1.2 11.1 1.1 46.2-.2 42.7-.8-2.1-2.3-1.4-3.6 1.7-1.5 3.4-8.4 9.4-14.6 12.6-6.5 3.3-7.4 5.2-5.5 11.5.8 2.9 1.3 5.5 1 5.8s-.6-.2-.6-1.1-1-2.3-2.1-3.1c-1.3-.9-1.9-2.1-1.6-3.1 1.1-2.7-2.7-5.5-6.6-4.8-2 .3-3.7.1-4.1-.6-.4-.6-1.6-1.1-2.7-1.1q-3.9 0 .3 13.2c1.5 4.8 1.9 7.1 1.1 7.9-1 1-2-1.8-3.7-10.3-.4-1.5-1.2-3.3-1.9-4s-1.6-2.1-2-3c-.4-1.2-1.6-1.7-4.2-1.6-2.5.1-3.4.5-3.1 1.5.3.7.2 1.3-.3 1.3s-1.1 1.3-1.4 2.9-1.3 3.1-2.1 3.4c-1.3.5-1.6-.1-1.6-2.8 0-1.9-.4-3.5-.9-3.5-1.2 0-3.1 5.6-3.1 9.1 0 1.5-.4 3.1-1 3.4-.5.3-1 1.5-1 2.6s-.7 3-1.5 4.3c-1.2 1.8-1.3 3.6-.5 9.7 1.1 8.6 1.1 20.1 0 24.4q-.75 3-.9-7.5c-.1-5.8-.8-14.7-1.6-19.9-.9-5.2-1.4-9.6-1.1-9.8.2-.3 0-1.9-.5-3.6-.6-1.8-1.2-4.5-1.4-6.1-.6-3.8-1.7-4.9-4.6-4.4-1.6.2-2.5 1.2-3.2 3.7-1.3 5.3-.5 52 1 52.9.8.5.9 1.3.3 2.2-.6.8-1 2.9-1 4.6 0 3.2 1.8 3.9 5 1.9 1.6-1 6-1.6 6-.9 0 .3-1.3 1.8-3 3.4-2.2 2.2-3 3.8-3 6.5 0 3.5-.1 3.6-3.2 3.4-1.8-.1-4.5.1-6 .5-1.5.5-3.6.5-4.8.1-1.9-.6-2.1-1.2-1.5-4.8 1-6.6 1.6-8.2 2.5-6.7 1.5 2.4 3-.1 3.2-5.3l.1-5.2.6 6c.6 5.3.7 4.4 1.5-7.5 1-17.2.4-53.6-.9-54.9-1.5-1.5-5.3-.2-6 2-.4 1.1-1.1 1.7-1.6 1.4-.5-.4-.9 2.4-.9 6.5 0 3.9-.4 9-.9 11.3-.6 2.3-1.3 6-1.7 8.2-.6 3.8-.7 3.9-1.6 1.6-.5-1.6-.5-3.4.1-5 .6-1.5 1.1-6 1.2-10.1.2-9.4.1-9.9-1.2-7.8-1.5 2.6-2.7 2.2-3.2-1-.3-1.7-.4-1.1-.5 1.8-.1 2.8.1 4 .7 3.2.6-1 1-.6 1.5 1.4.5 1.9.3 3.2-.7 3.9-2.7 2-5.1 17.5-2.8 18.9.4.3.6 1.7.4 3.1-.3 1.3-.9 2.3-1.3 2-.8-.5-2.1 7.5-2.3 13.7-.1 3.5-.4 3.8-2.9 3.8-1.5 0-2.8-.3-2.8-.8-.1-.4-.5-2.6-.9-5-.8-3.9-.6-4.3 1.4-4.8 4.3-1.1 6.5-13.4 4.5-24.9-1.6-9.3-2.2-16.9-1.1-13.5.5 1.4.9 3.7 1 5.2s.6 3.9 1.3 5.5c1.1 2.5 1.3 1.7 2.2-8.2 1-10.5 1-11.1-.9-12.7-1.1-.9-2.1-1.2-2.3-.7s-.8.9-1.4.9-.8-.7-.4-1.5c.8-2.1-2.5-5.9-3.7-4.2-.7.9-1 .9-1.4-.1-.8-2.1-4.3-1.4-4.3.9 0 2.2-2.5 4.8-4.7 4.9-.8 0-1.3-1.5-1.3-4 0-3.9-.1-4-2.7-3.4-1.6.4-4.3 1.3-6.2 2-4.3 1.8-5.5 1.8-4.7-.2.3-.9.2-1.2-.4-.9-.6.4-2.5-.6-4.3-2.1-1.7-1.5-5.1-3.5-7.3-4.5-5.1-2.1-11.4-8-11.4-10.6 0-1-.9-2.4-1.9-3-1.4-.9-2.1-2.9-2.6-8.1-.4-3.9-1.3-8.2-2.1-9.7-.8-1.6-1.4-5.3-1.3-8.9.1-5.6.2-5.8 1-2.6.5 1.9.7 4.4.4 5.5-.2 1.1 0 2.7.5 3.5.7 1.1 1 .4 1-2.5.1-2.2.5-5.9.9-8.3.9-4.6.5-5.5-.9-2-.7 2-.9 2-.9.4-.1-1 .3-3.5.9-5.5.5-2 1.2-4.8 1.4-6.2.3-1.5 1.2-2.9 2-3.2q1.5-.6.9.9c-.4 1 0 1.2 1.1.8 1.2-.5 1.5-.2.9 1.2-.4 1.1-.3 1.5.5 1 .7-.4.9-1.9.5-3.8-.4-2-.2-2.9.4-2.5s1.8-.2 2.8-1.3 2.4-2 3.2-2c.7 0 1.3-.7 1.3-1.6 0-.8.5-1.2 1-.9.6.4 1.1-.8 1.2-2.7.2-5.4.3-5.8 1.3-5.9.5 0 1.2.8 1.6 1.8.8 2 .6 2.2 2.9-5.5.7-2.3 1.1-4.4.9-4.6s-1.6.9-3 2.5c-1.5 1.6-2.4 2.9-2.1 2.9s-.3.6-1.4 1.4c-1 .8-1.9 1.8-2 2.3 0 .4-.7 2.1-1.4 3.7l-1.5 2.9-.5-2.4c-.5-2.2-.9-2-4.8 3.3-2.3 3.1-5.2 6.8-6.4 8.1-4.4 4.8-5.4 6.2-7.5 10.9-1.9 3.9-4.3 7-4.3 5.5 0-1.7 3.5-8.1 6.9-12.6 2.2-3 4.3-6.1 4.6-7s3.9-5.2 8-9.5c4.1-4.4 7.5-8.6 7.5-9.3 0-.8.5-1.1 1.1-.7.6.3 3.5-1.7 6.4-4.6 2.9-2.8 5.5-4.7 5.9-4.2.7 1.2-.3 4.2-1.3 4.2-.5 0-1.4 2.6-2.1 5.7-.8 3.2-1.7 6.1-2.2 6.4-.4.3-.2 1.3.5 2.3 1.2 1.6 1.6 1.4 4.3-2.6 3.8-5.6 4.4-7.2 5.3-13.6.7-4.8.1-6.6-1.4-4.2-.3.5-1.1 1-1.7 1s-.3-.9.7-2 2.1-1.8 2.4-1.5c.4.2.8-.4.9-1.3 1.8-13.9 2.8-57.2 1.3-57.2-1.3 0-4.1 2.2-8.9 6.8-2.7 2.6-3.3 3.8-3 6.2.2 1.6.1 2.7-.4 2.4-.4-.3-.8-1.4-.8-2.5 0-1-.3-1.9-.8-1.9-.4 0-6 5.4-12.5 12s-12 12-12.3 12-4.2 2.8-8.7 6.3c-8.6 6.6-18.7 13.1-13.7 8.7 1.4-1.1 6-4.6 10.3-7.6 4.2-3.1 9.6-7.3 11.9-9.5 2.3-2.1 4.4-4 4.7-4.1.3-.2 5.2-5.1 10.9-10.9l10.2-10.6v-12.1c0-7.6-.4-12.3-1.1-12.8-.6-.3-5.3 3.6-10.6 8.9s-10.2 9.8-10.9 10.1c-1.8.7-15.2 10.3-18.9 13.6-1.6 1.4-4.1 3.1-5.5 3.6-1.4.6-6.5 3.1-11.4 5.5-10.5 5.2-11.5 5.5-10.1 4.1.6-.6 5.2-3.1 10.3-5.6 5-2.5 9.2-4.9 9.2-5.4s1.9-1.9 4.3-3.2c6-3.4 17.6-11.8 21.4-15.4 1.7-1.7 3.7-3.6 4.5-4.2.7-.6 2.6-2.7 4.2-4.7 1.5-2 3.2-3.5 3.6-3.2.4.2 2.3-1.3 4.3-3.4l3.6-3.9-2-2.6-2-2.6-3.6 4.8c-6.4 8.5-15.4 15.4-23.7 18.2-2 .6-4.9 2.4-6.5 3.9-1.7 1.6-3.2 2.7-3.4 2.4-.6-.5-19.2 4.4-21.7 5.7-1.1.6-5 2-8.7 3.1-3.8 1.1-7.7 2.4-8.8 2.9-2.3 1-8.5 2.1-8.5 1.6 0-1 8.9-4.6 11.3-4.6 1.4 0 6.3-1.3 10.9-3 4.6-1.6 11-3.7 14.3-4.6 8.9-2.5 11.9-4.2 10.4-6-.9-1.1-.9-1.7.1-2.9 1.7-2.1 5.1-2 4.3.1-.5 1.3-.2 1.5 1.8.9 5.8-1.8 16.9-7.5 16.9-8.7 0-.7 1.3-2 2.9-2.9 3-1.8 10.1-11.8 10.1-14.4 0-.8-.9-1.9-2-2.5-1.8-1-1.9-.9-1 1.5.6 1.5 1 2.8 1 2.9 0 .2-1.3.3-3 .4-1.7 0-4.8 1.5-7.6 3.7-2.6 1.9-5.9 3.8-7.3 4.1-1.4.4-5.3 1.5-8.5 2.5-3.3 1.1-6.5 1.9-7.3 1.9-.7 0-1.3.4-1.3.9s-1.2 1.1-2.7 1.3c-3.4.6-23.6 6.3-27.8 7.9-1.6.6-5.2 1.3-8 1.5-16 1.3-20.9 2-21.3 3.1-.3 1 1.7 1.3 7.5 1.4 4.3 0 8.7.4 9.8.9 1.3.5-2.6.9-10.6.9-10 .1-12.9.4-13.9 1.6-.7.8-1.7 1.5-2.3 1.5-.7 0-.7-.4.1-1.2.7-.7 1.2-1.8 1.2-2.6 0-1.1-2.1-1.2-11.7-.6-12.2.7-15.3 0-4.8-1.1 12.4-1.2 16.5-2.1 16.5-3.6 0-.5-.3-.8-.7-.7-.5.1-4.5-.2-9-.6-11-1.1-13.8-.4-15 3.7-1.1 3.8-4.3 4.4-5.8.9-.5-1.2-1.5-2-2.2-1.8-.7.3-1.5.1-1.8-.3-.8-1.4 2.5-2.2 4.5-1.1 3.2 1.7 5 1.2 5-1.3q0-2.4-2.7-3.6c-1.6-.7-4.6-2.2-6.9-3.3-3.3-1.7-4.4-1.9-6.2-.9-1.3.7-2 1.6-1.7 2.2.5.8-3.3 2.9-5.3 2.9-.4 0-.7-1.5-.6-3.2.1-2.7.5-3.2 2-3 1.3.2 2.6-.8 3.8-3 1-1.8 1.3-2.7.5-2.1-2.3 2.2-3.9 1.5-3.9-1.7 0-2.9-.8-3.5-3.9-3-.9.1-1.2-.4-.7-1.5.8-2.2-1.5-6.3-5.3-9.8-3.3-2.9-6-3.4-7.9-1.5-2 2-1.4-.2.8-3 2.6-3.2 1.1-5.4-2.1-3.3-1.7 1-2.4 1-3.3 0-.8-.9-.8-1 .2-.5.7.4 1.2.1 1.2-.8 0-.8.2-2 .5-2.8.2-.7-.2-2.1-1-3.1-1.2-1.7-1.8-1.8-5.2-.8-5.2 1.6-14.1 6.2-16.8 8.6-12.3 11.2-12.4 11.4-12 14.2.3 2.5 0 2.9-2.2 2.8-2.4 0-2.7.5-4 6.5-1 5.1-1.1 7.7-.2 12 1.4 6.4 3.3 10 5.4 10 1.7 0 1.6-.2 1.9 6.2.1 3.5-.3 4.9-1.7 5.8-1.6.9-1.9.8-2.4-.9-.3-1.2-1-2.1-1.5-2.1s-.7.8-.4 1.7c.3 1 1.2 6.7 2.1 12.8 1.9 13.5 1.9 13.5 4.3 12.8 1.6-.4 2.1.2 2.7 2.9 1.4 6.6 1.7 14.6.6 16.7-.9 1.6-.8 3.4.5 7.8.9 3.2 2 6.5 2.5 7.3.4.8 1.7 4.3 2.9 7.6 1.7 5.1 2 8.2 1.8 18.1-.2 7.8.1 12.5.8 13.4.6.8 1.5 4.1 1.9 7.4s1.3 6.7 2 7.5 1.8 3.5 2.5 6c.7 2.4 1.9 4.9 2.7 5.5 1.5 1.1 3.5 13.5 2.2 13.5-.4 0-1.6-1.1-2.7-2.5s-3-2.5-4.2-2.5c-2.1 0-2.2.3-1.8 6.2.4 5.4.8 6.5 3.5 8.7 2.2 1.9 3.2 3.7 3.6 6.6 1.6 13.5 3.2 21.4 5.3 26.2 1.5 3.3 2.4 7.3 2.4 10.4 0 5.7 2.6 14.2 7.6 24.5 1.9 3.9 3.4 7.6 3.4 8.3 0 .6.5 1.1 1 1.1.6 0 1.3.1 1.7.2.4.2 1-1.1 1.3-2.7.6-3 .6-3 3.4 2.3 1.7 3.5 3 7.9 3.5 12.6 1.3 11.1 5.3 17.6 11 17.6 1.4 0 2.3.9 2.7 2.6.4 1.5 2.1 3.9 3.8 5.5 2.7 2.4 3.3 2.6 4.5 1.4s1.2-1.9.2-4.1c-.6-1.5-1.4-6.3-1.7-10.8-.3-6.3-.2-7.6.6-5.6.6 1.3 1.7 3.1 2.5 4 .7.8 1.6 4 1.8 7 1 9.4 1.9 13.5 3.3 14.3.8.4 1.4 1.3 1.4 2s.9 2.3 2 3.7 2 3.6 2 5c0 3.5 1.3 5.2 3.3 4.4 1-.4 1.8-.1 2 .7.3.8 1.2 3.9 2.2 7l1.7 5.6 2.8-1.3c5.2-2.6 6.1-4.6 5.8-12-.1-3.8-.2-10.9 0-15.9.2-8.5.3-8.8 1.8-6.7 1 1.4 1.8 5.4 2.1 10.4.5 6.2 1 8.4 2.6 9.9 2 1.8 2 1.8-.9 1.6-2.5-.2-3 .2-3.8 3.4-.6 2.6-.5 4.4.7 7 2.2 4.8 3 9.3 3.1 17.7l.1 7.2h14.7l-.6-3.3c-1.3-6.9 2-12.7 5.3-9.4 1.4 1.4 1.4 5.4.1 6.2-.5.3-1 1.9-1 3.6v2.9h29.9l.7-7.1c.5-5.7.9-6.8 1.9-5.7 1.9 2 3.3 7.2 2.8 10.1l-.5 2.7h56.5l-.6-4.1c-.3-2.2-1.3-4.9-2.2-5.9-2.4-2.6-1.6-7.4 1.2-7.8 1.6-.2 2.5-1.4 3.3-4 .5-2 1-4.3 1-5s.7-1.5 1.5-1.8c1-.4 1.5-2 1.5-5 0-3.5-.5-4.9-2.5-6.6-2.1-1.8-2.5-3-2.5-8v-5.9l2.1 2c2.9 2.7 4.9 6.8 5 10.5.1 2.5.3 2.6.6.8.4-2.2.5-2.3 1.8-.5 1.3 1.7 1.5 1.5 3-2 1.8-4.3 3.1-18.1 2.1-22.1-.6-2.3-1.2-2.6-4.6-2.6-3.7 0-3.9.2-4.5 3.7-1 5.7-1.3 6.2-1.4 2-.1-6-5.1-3.9-5.1 2.2 0 1.2-.6 1.9-1.7 1.9-1 0-2.5.3-3.5.6-1.1.5-1.8.1-2.3-1.4-.5-1.6-1-1.9-1.8-1.1-1.6 1.6-2.7 1.3-2.7-.7 0-1-1.4-2.9-3.1-4.1-2.7-2-3.8-2.2-8.2-1.7-2.8.4-6.8 1.3-8.9 1.9-3.3 1-3.8 1.6-4.3 5.2-1.1 6.5-2.7 10.9-5 13-2.3 2.2-4.2 6-2.5 5 .6-.3 1-.1 1 .4 0 .6-.7 1.1-1.5 1.1-1.6 0-3.8 3.4-2.8 4.4.3.3.1.6-.5.6-2.1 0-7-5-7.5-7.9-.4-1.7-1.4-3-2.6-3.4-1.2-.3-2.1-1.3-2.1-2.4 0-1-1.4-3.1-3-4.7-3.8-3.7-4-6.5-.5-5.8 1.4.2 2.8.9 3.1 1.4 1 1.6 3.4-1.3 3.4-4.1 0-2.6-5-8.8-6.2-7.6-.3.3-1.1-.1-1.8-1-.7-.8-1.9-1.5-2.7-1.5-1.2 0-1.3 1-.8 5.5.5 3.8.4 5.5-.4 5.5-.6 0-1.1-.8-1.1-1.8 0-1.4-.2-1.5-1-.2-.7 1.2-1.3.6-2.6-2.7-1.4-3.4-2.2-4.3-4.2-4.3-1.5 0-3.5-1.2-5.3-3.3-3.4-3.8-3.3-3.1-1.5-11 .8-3.4 1.8-7.5 2.1-9 .6-2.9 4.6-7.7 6.4-7.7.7 0 .7.9.1 2.6-.6 1.4-1 3.4-1 4.4 0 1.6.5 1.8 3.8 1.3 2-.4 5.3-1.6 7.3-2.9 2.9-1.8 12.3-4.4 15.9-4.4.4 0 .5 1.7.3 3.7-.6 5.2 2.9 8.3 10.1 9 3.2.3 5.6.1 6-.5 1.1-1.8-1.3-6.2-3.9-7.2-2.2-.9-3.1-2.7-2.5-5.5.1-.5-.7-.2-1.8.8-2.7 2.5-4.2 2.1-4.2-1.1 0-3.9 1.4-5.5 3.8-4.8 1.4.5 2.4.1 3-1 1.8-3.1 3.4-.5 2.7 4.2-.3 2.4-.3 4.4.2 4.4 1.6 0 6.1 4.6 6.4 6.5.3 1.2 1.2 2 2.4 2 1.1 0 2 .4 2 1 .1 2.4 1.9 3.5 6.1 3.5 3.9 0 4.6.3 5.4 2.6.8 2.1 1.5 2.5 4.2 2.1 3.1-.3 3.3-.6 3.3-4.3.1-5.5 2.6-13.9 3.6-12.2.7 1 .9 1 1-.2 0-.8.5-.2 1 1.4.4 1.7.5 3.5 0 4-.5.6-1.1 2.7-1.4 4.7-.5 3.6-.5 3.7 3.6 4.2 6.5.9 8.7-1.1 8.7-7.6s1.4-9.3 2.4-4.7c.3 1.8.6 4.3.6 5.7 0 1.7.5 2.4 1.8 2.2 2.1-.4 6.2 2.1 6.2 3.7 0 1.4 2.3 2.4 5.6 2.4 2.9 0 2.9 0 .4-4.5-2.7-4.8-2.5-6.2 1-7 1.6-.4 3.4-1.4 4-2.3.8-1.5.9-1.4 1 .6 0 1.3-.4 3.1-.9 4-1.1 2.1 1.9 8.8 3.8 8.4.6-.1 3.1.9 5.5 2.3 3.7 2.1 5.5 2.5 12.9 2.5 8.3 0 8.6-.1 10.7-2.9 1.1-1.7 3.2-5.5 4.6-8.5 1.4-3.1 3-5.6 3.5-5.6 1.2 0 1.2 1.5-.1 4-.5 1.1-1.5 2.9-2 4-.7 1.4-.7 2.7-.1 3.8.9 1.6 1 1.5 1.6-.3.4-1.1 1-2.9 1.5-4 .8-1.8.9-1.8.9.5.2 3.8 1.2 4.5 6.1 4.5 4.4 0 4.5-.1 4.1-3-.1-1.7-.7-3.8-1.2-4.7-1.2-2.3-1.1-4.8.1-4.8.6 0 2.1 1.1 3.3 2.3 3.1 3.3 6.1 3.9 8.1 1.6.9-1.1 1.3-2.6.9-3.5-.5-1.3-.3-1.5.7-.9s1.2.4.8-.7c-.5-1.1 0-1.4 1.6-1.3 5.2.6 8.8 5.4 5.1 6.9-4 1.5-.2 5.9 5.3 6.2 2.1 0 4.5.5 5.6.9 1.1.5 2.1.3 2.6-.5.9-1.5.1-5-1.2-5-.5 0-.4-.8.2-1.9.5-1.1 1-3 1-4.3 0-1.9.2-2 1-.8.6.8.9 3.4.8 5.7-.1 2.4.2 4.6.6 5 1.5 1.5 8.2.7 12.8-1.5 2.6-1.2 5.5-2.2 6.3-2.2s1.5-.9 1.5-2c0-1.9 1.4-2.6 7-3.2 1.4-.2 2.8-.7 3.1-1.1.3-.5 1.2.5 1.8 2.2 2.2 5.1 5.2 4.7 6.6-1 .5-2.1 0-3.1-2.6-5.3-2.2-1.9-4-2.6-5.6-2.3-2.6.5-4.9-2.4-3.9-4.9 1.1-2.9 5.9-1.6 9.6 2.6 3 3.5 4.3 4.1 9.6 4.9 3.3.5 7.8 1.9 9.9 3.1s5.3 2.3 7.1 2.6c4.8.6 4.4-1.6-1.3-8.4-4.7-5.4-4.7-5.5-1.9-4.8 3.3.8 3.9 1.3 8.9 8.3 3.7 5.1 3.8 5.4 3.9 14.5.1 7.7-.2 9.9-1.9 12.8-1.6 2.8-2.6 3.5-4.8 3.3-1.6-.1-3.1-.7-3.4-1.2-.4-.5-1.9-1.3-3.4-1.6-2.1-.6-3.1-.3-4.1 1-1.2 1.6-1.3 1.6-3.1-.1-1.7-1.7-1.8-1.7-1.2-.1.5 1.3.1 1.7-1.4 1.7-1.1 0-2.2.7-2.5 1.5-.4.9-1.4 1.4-2.3 1.3-2.9-.5-2.6 4.7.5 7.1 2.3 1.8 2.5 2.5 2 5.7-.4 2-1.2 4.7-1.8 6-.9 2-1.4 2.2-2.6 1.1-1.2-1-1.6-.9-2 .3-.3.8-1.7 2.7-3.1 4.1-1.5 1.4-3.2 3.8-3.8 5.2-.7 1.5-2.1 2.7-3 2.7-2.2.1-5.5 2.5-4.6 3.3.3.4-.8 1-2.5 1.3-1.8.4-3.2 1.1-3.2 1.6s-1.3 2.2-3 3.8c-1.6 1.6-3 3.4-3 3.9 0 1.8-2 2.3-11.2 3.1-10 .8-10.7 1.3-10.8 7.5v4l-1.6-3.3c-1.6-3-5.2-4.7-4.1-1.8.4 1.1-1.2 1.2-8.3.9-5.7-.3-9-.1-9.5.7-.4.7-1.6.2-3.4-1.3-2.5-2-3.8-2.3-10.1-2.2-4.5.1-7.4.6-7.9 1.4-.6.9-1.5.6-3.5-1.2l-2.7-2.6-3.5 2.1c-3.1 1.8-3.4 2.4-3.4 6.4v4.4h15.9c13.2 0 16.1-.3 17.2-1.6 1.1-1.4 1.3-1.4 2.1 0 1.2 2.1 18.3 2.3 19.1.3q.6-1.35.6 0c.1.7.8 1.3 1.7 1.3.8 0 1.3-.4.9-.9-.3-.5-.1-1.2.5-1.6.5-.3 1 .1 1 .9 0 1.4 4.2 1.6 37.5 1.6 33 0 37.4-.2 36.9-1.5-.4-.8-.3-3.5 0-6 .6-3.5 1.2-4.5 2.6-4.5 2.2 0 3 1.9 3 7.6v4.4l7.8-.1c4.2-.1 6.5-.4 5-.6-3.3-.5-3.5-1.3-.8-3.6s7-3.3 7-1.6c0 .7.7 2 1.6 3 1.5 1.7 1.8 1.6 5-1.3 1.8-1.7 3.6-4 4-5.1.4-1.2 1.3-2.7 2-3.5.8-.7 1.4-2.4 1.4-3.8 0-1.3.4-2.4.9-2.4.4 0 1.1-3.3 1.5-7.4.5-5.7.3-8.4-.9-11.2-1.8-4.5-1.9-7.3 0-9.7 1.3-1.8 1.4-1.8 2.4.2.6 1.1 1.1 4.2 1.1 6.8 0 2.7.6 5.8 1.4 6.8 1.3 1.8 1.7 1.8 4 .5 1.5-.7 2.9-2.4 3.2-3.7.6-2.4 1.6-2.7 4.9-1.4 1.6.7 2.3.2 3.5-2.3 1.4-2.8 1.4-3.3 0-4.9-.8-1.1-2.5-2.3-3.7-2.8-2.6-1-3.1-2.9-.8-2.9.8 0 1.7-1.1 2.1-2.5.3-1.4.9-2.5 1.3-2.5s.7-1 .6-2.3c-.3-3.3 1.5-7.7 3.1-7.7.8 0 1.4-1 1.4-2.6 0-3.3 3.5-8.1 4.3-6 1.1 2.9-.5 8.7-2.9 10.3-2.3 1.5-2.3 1.6-.7 4.7.8 1.7 1.9 3.8 2.3 4.6 1.3 2.8 3.7 2.2 5.4-1.4.9-1.9 2.4-3.7 3.4-4 1.4-.5 1.7-1.9 1.7-9.3 0-4.9.7-12.3 1.5-16.5 1.2-6.2 1.9-7.9 3.7-8.7 2-.9 2.3-.7 2.9 2.5.3 1.9.4 4.4.1 5.7-.3 1.2-1.3 5.3-2.2 9-1.4 5.5-1.4 7.1-.4 8.3 2.1 2.6 3.4-1 5.5-15.1.3-2.2 1.9-6.7 3.4-10 1.6-3.3 3.4-9.2 4-13 2-12.7 4-17.3 6.8-15.6 1 .6 1 1.7.2 5.2-1.8 6.9-2.8 13.3-2.3 14.1.7 1.2 3.3.9 3.3-.4 0-.6 1.1-3.5 2.5-6.4 3.2-6.9 4.1-11 2.6-12.8s-.1-7.5 2.9-12.4c1.3-2.1 2-5 2-8.2 0-2.7.4-5.1.9-5.5.6-.3 1.3-2.7 1.6-5.3.9-6.6 2.5-11.3 3.6-10.7.5.4 1 .1 1-.4.2-1.5.4-2.3 1.4-4.4.9-2.1-.3-14.7-1.5-14.7-1.3 0-2.7 2.3-3.5 5.7-.6 3.3-3.5 4.7-3.5 1.8 0-3.5 2.5-12.4 4.7-17 5.4-10.9 7.4-19.5 9.3-39.8.5-5.4 1.8-12.4 2.9-15.5 3.9-11.5 5.3-17.7 5-23.6-.3-8.6 0-18.6.7-21.9.5-2.4 1-2.8 3-2.4 1.9.3 2.5-.1 2.9-1.7 3-14.2 3.4-19.4 1.6-20.5-1.7-1.1-2.7-5.5-2.1-9.6.4-3.1.9-4 2.5-4 1.3 0 2.2.8 2.6 2.5.3 1.4.6-1.6.8-6.5.1-5 .3-9.5.3-10 .2-4-3.8-14.1-6.2-15.8-.9-.6-2-2.1-2.4-3.3-.5-1.8-.3-2 2.2-1.6l2.9.4-.4-8.4c-.3-5.5-1-9.2-2.1-10.8-2.7-4.1-4.2-7.1-4.2-8.6 0-1.9-4.2-4.4-9.2-5.5-6.8-1.5-7.1-1.6-11-1.2M660.5 579.2c.3 1.3.7 5.9.9 10.4.2 4.4 1.1 9.7 2 11.8 1.3 3.2 1.8 3.6 4.1 3 2.7-.7 2.8-.5 1.9 2-.3.9-1 1.3-1.5 1s-.9.5-.9 1.8-.9 3.8-2 5.6c-1.3 2.2-2 5-2 8.6 0 4.9-.2 5.4-2 4.9-2.2-.6-2.7-1.9-.9-2.5 1.7-.6 2.4-12.5.9-15.4-1-1.8-1.6-2.1-2.2-1.2-.6.8-.6.3-.1-1.2.4-1.4.7-4.3.6-6.5-.7-13.4-.7-24.5-.1-24.5.4 0 1 1 1.3 2.2M516 595c0 .6-1.3 1.8-2.9 2.7-2.8 1.7-8.1 8.9-8.1 11.2 0 .6-.4 1.1-.8 1.1-.5 0-2.7 3.3-5 7.2-3.3 6-4.3 8.9-5.3 16.1-.9 6.5-.9 9.4-.1 11.2.6 1.4.7 2.7.2 3-1.9 1.2-2.5-2.4-2.2-13.3.1-7.6-.1-11.1-.8-10.7-.6.4.2-1.4 1.7-3.9 1.5-2.4 3.1-4.4 3.6-4.3s2.4-2.1 4.1-4.9c3.2-5.2 4.8-7.2 10.3-13 3.3-3.4 5.3-4.3 5.3-2.4m251.5 5c1.1 1.3 3.8 4.2 6.1 6.4 2.3 2.3 4.4 5.1 4.8 6.3.4 1.3 1.4 3 2.3 3.9 1.2 1.1 1.7 3.8 1.8 9.2.2 4.3.5 11.5.9 16.2.6 7.8.5 8.3-.8 5.5-.8-1.7-1.7-6.4-2.1-10.5-.3-4.1-1-9.8-1.5-12.5-.5-2.8-1.2-6.3-1.4-7.9-.3-1.6-1.4-3.5-2.5-4.2-1.1-.8-2.9-3.1-4.2-5.1-1.2-2.1-3.8-5.4-5.7-7.5-2.1-2.2-3.1-4.1-2.7-4.8.6-.9 1.1-.7 1.9.6.6 1.1 2 3 3.1 4.4m-346.9 18.8c1.7 1.2 3.3 6.2 4.9 15.2 1.7 9.9 1.9 16.6.5 17.5-1.2.7-1.7-.6-2.3-5.6-.2-1.9-.9-4.4-1.5-5.6-2.5-4.7-4.2-11.2-4.2-16.6 0-5.6.4-6.4 2.6-4.9m137.9 44.9c-1.1 2.8-1.8 10.3-1 10.3 1.3 0 4.5-3.2 4.5-4.4.1-.6 1.1-2.4 2.4-3.9 2.1-2.6 2.4-2.7 3.7-1.1 1.1 1.3 1.1 1.8.2 2.1-.7.3-1.3.9-1.3 1.5s-1.6 3-3.5 5.4c-1.9 2.3-3.5 4.6-3.5 5.1s-.9 1.5-2 2.3c-2 1.4-2.9 7-1.1 7 1.5 0 1.9 3.9.5 5.1-.8.6-1.4 1.8-1.4 2.6 0 1.3-.3 1.3-1.5.3-.8-.7-1.5-2-1.5-2.9 0-1.3-.7-1.6-3.5-1.3-1.9.2-3.8.8-4.1 1.3s-2.3.9-4.5.9c-4.1 0-4.8-1.2-2.9-5.5.6-1.5.9-1.6.9-.4.1 1.4 3.3 2.1 3.8.9 2.5-5.7 3.3-8.2 2.9-8.9-.3-.4.6-1.8 1.9-2.9 1.4-1.2 2.5-2.7 2.5-3.3 0-1.5 2.2-3.4 4-3.4.9 0 1.8-1.5 2.4-4.3.5-2.3 1.3-4.2 1.8-4.2.6 0 .7.8.3 1.7"/><path d="M370.3 322.2c-1.3.6-2.3 1.7-2.3 2.5 0 .7-.5 1.3-1.1 1.3-.7 0-.9.9-.5 2.4s0 2.8-.9 3.6c-.8.7-1.5 1.9-1.5 2.6 0 .8-.4 1.4-.8 1.4-1.5 0-3.2 5-3.2 9.4 0 4.1 1 5.6 3.9 5.6 1.1 0 15.6-13.8 15.7-15 .1-.6.2-1.9.3-3 0-1.1.6-2 1.3-2 .6 0 .8.3.5.7-1.1 1 1.4 3.3 3.7 3.3 1.2 0 3.8-1.1 5.8-2.5 2.7-1.8 3.5-3 3.1-4.5-.8-3.2-4-4.3-10-3.6-6.3.7-10.3 0-10.3-2 0-1.6-.7-1.7-3.7-.2M614.1 322.8c-.1.7-1.4 3.3-3.1 5.7-1.6 2.4-3 5-3 5.9 0 .8-.4 1.8-1 2.1-.6.4-1 6.8-1 16.1 0 9.6.4 15.4 1 15.4s1-.9 1-2 .6-2 1.3-2c1.8 0 5.7-4.2 5.7-6.1 0-.8-.6-2.3-1.3-3.4-1.2-1.8-4.7-11.4-4.7-12.9 0-.3.5-.6 1-.6.6 0 1 .5 1 1.2 0 1.4 5.1 11.8 5.8 11.8.9 0-.6-27.4-1.7-30-.5-1.4-1-1.9-1-1.2M660.9 331.7c-.1 11.6.2 16.6 1.2 18.3.6 1.1.8.6.9-1.9 0-2.6.3-3.2 1.6-2.7 1.1.4 1.8-.1 2.1-1.4.9-3.5 2.3-2.2 2.4 2.2.1 8.3 1.7.5 1.9-9.3.2-11.8.2-12.1-.9-11.4-.5.3-.7 2.2-.5 4.3.4 2.8.3 3.3-.5 2.2-.6-.8-1.1-2.5-1.1-3.7s-.9-2.7-2.1-3.3c-1.8-1-1.9-1-1 .8 1.2 2.3 1.8 13.8.8 14.8-.4.4-.7-.9-.7-2.9 0-5-2-13.7-3.1-13.7-.5 0-.9 3.5-1 7.7M598.4 334.5c-2.1 3.9-2.6 5.8-1.7 6.3 1.8 1.1 2.7 9.6 1.2 12.3-.6 1.3-1.4 7.4-1.6 13.9l-.4 11.5 4-4.4 4.1-4.4v-17.2c0-17.1-.5-23.5-2-23.5-.4 0-2 2.5-3.6 5.5M587.2 345.9c-3.6 3.6-4.1 4.5-4.7 10.5-.4 3.6-1.1 6.6-1.6 6.6-1 0-1 13.1 0 22.8l.6 6.2 5.3-4.8c5.6-5.2 7.3-8.8 6.6-14.9-.3-2.1-.4-8.4-.4-13.9.1-6.4-.2-10.4-.9-10.8-.8-.5-.8-1.3-.1-2.6 2.4-4.4.3-4-4.8.9M635.9 355.3c-2.3 1.7-2.8 7.4-3 31.2-.2 21.9-1.2 43.1-2.9 60-.5 5.5-1.2 13.6-1.6 18-.3 4.4-.7 9.8-.9 12s-.7 10.7-1 18.8c-.5 12-.3 16 1 20.5.9 3.2 1.9 6.6 2.2 7.7.4 1.4.2 1.7-.6 1-.6-.6-1.2-1.9-1.4-3s-1.1-3.5-2-5.3c-1.5-2.6-1.7-4.8-1.2-12 .4-4.8.8-12.3.9-16.7.2-4.4.9-14.5 1.5-22.5 3.5-43.5 4-51.9 3.3-57.7-.5-3.4-.5-6-.2-5.8.9.6 2.2-38.3 1.4-42.3-.7-3.5-.6-3.5-8.1-.9-3.9 1.3-3.9 1.5-1.2 9.2 1.8 5.3 6.9 27.7 6.9 30.7 0 3.1-1.2-.9-3-10.3-1.1-5.7-2.4-11.5-2.9-12.9s-1.4-4.4-2.1-6.8c-.7-2.3-1.6-4.2-2-4.2-.6 0-.1 47.1.6 47.9.1.2 1.9-.7 3.8-1.9 2-1.2 4.2-2 4.9-1.7.6.2-.7 1.4-3 2.6-2.4 1.2-4.3 2.6-4.3 3.2s-.4.8-.9.5c-1.1-.7-2.1 6.7-2.1 15 0 3.4-.4 6.5-.8 6.8-.5.3-.7-5.2-.6-12.2.8-41.2.7-52.5-.8-51.6-.8.5-.9-.5-.5-3.8.3-2.5.4-4.8 0-5.1-.3-.3-2.5.8-4.9 2.6-4.1 3-4.4 3.4-3.9 6.7 1.6 9.2 1.7 12 .6 12-.6 0-1-.3-1-.8.1-.4.1-1.4 0-2.2-.4-2.8-2 2.6-2.7 9-.4 3.3-.9 5.9-1.1 5.6-.3-.2.1-5.5.7-11.6.7-6.1 1-11.3.6-11.7-.8-.9-4.5 2.6-6.2 6-1.3 2.4-1.3 4.1.1 13.1 1.8 12.2 1.8 13.6.5 13.6-.5 0-1-2.8-1.1-6.3-.1-5.1-1.3-12.5-1.8-10.7-.7 2.5-.7 46.8 0 46.4 1.2-.7 1.1.3-.2 2.8-.6 1.1-1.5 4.4-1.9 7.2-.5 2.8-1.2 6.4-1.5 8.1l-.7 3 2.5-2.8c2.3-2.6 4.7-10 4.7-14.6 0-1 1.1-2.8 2.5-4.1s2.5-1.8 2.5-1.2c0 .7-.4 1.2-.8 1.2-1.3 0-3.4 11.3-2.7 14.2.6 2.4.9 2.6 2.2 1.2 2-1.9 4.3-10.8 4.3-16.5 0-2.5.5-6.1 1.2-7.9.7-2.3.8-3.5.1-3.7-1-.4.4-6.1 3-12.5 1.8-4.4 2.6-2.2 1.2 3.2-1.2 4.7-1.2 4.9.5 4 1-.6 2.5-1 3.2-.9.7 0 .3.5-.9 1.1-3.2 1.5-5.3 8.3-7.3 23.3-1.4 10.1-2.9 17.4-4.2 20-1.2 2.2-5.7 24.3-6.1 29.5-.1 1.9-1 4.6-2 6-.9 1.3-1.7 4.2-1.7 6.5 0 2.8.3 3.6 1 2.5 1-1.6 1.2-1.2 2.4 4.2.4 1.9 1.3 2.8 2.6 2.8 1.4 0 2 .7 2 2.2 0 2.4 5.8 8.1 7.2 7.1 2.6-1.5-2.2-14.8-5.6-15.7-2.6-.7-1.6-1.6 2-1.9 2.4-.2 2.9-.7 3.1-3.2.9-11 2.8-24.6 4.9-34.1 2.3-10.3 3.1-16.1 3.4-23.9l.2-3 .9 3c.8 2.3.2 7.1-2 19.5-6.6 36.2-6.4 33.9-4.6 43.8.8 5 2.2 10.3 3 11.9.8 1.5 1.5 3.3 1.5 3.8 0 .6 1.3 2.6 3 4.5 2.5 3 2.9 3.2 3 1.5 0-1.1.7-3.8 1.5-6l1.5-4-.1 5.5c-.1 9.7 0 10.7 1.6 10.7.9 0 1.4-.6 1.1-1.4s.2-1.3 1.4-1.3c1.5 0 2-.7 2.1-2.8l.1-2.7.7 2.5c.4 1.5 1.5 2.6 2.8 2.8 1.1.2 2.5 1.3 3 2.5.8 1.6 1.1-.5 1.7-8.8.3-6.1.4-12.1.1-13.4-.2-1.3 0-3.1.5-4 .7-1.1 1 1.6.9 8.4-.1 5.5.2 11.7.6 13.7.7 3.6 2.7 5 4 2.8.9-1.5 3.9-.8 4.5 1.1.4 1.2 1.1 1.4 2.5.9 1.9-.7 2-1.7 2-23.4 0-12.4.3-22.6.8-22.6.7 0 1 6.6 1.1 26.5.1 10.4.7 13.5 2.5 13.5 1.3 0 7.1-12.8 9.2-20.2 2.3-8.2 2.4-13.5.4-24.2-.8-4.4-2-12-2.6-16.8-.6-4.9-1.5-8.6-1.9-8.3-.5.3-.6-.5-.2-1.7.5-2.1.5-2.1 1.4.3.5 1.3 1.6 6.6 2.3 11.8 1.3 8.6 2.3 11.2 5 13.4.6.6.6 1-.2 1.4-1.6.6-1.7 11.8-.3 18.1.9 3.9.7 5-2 10.7-2.9 6.2-3.8 10.5-2.2 10.5 1.7 0 9.2-9.9 11-14.6 2.5-6.3 4-6.7 4.4-1 .2 3.6.6 4.4 1.7 3.7s1.1-1.5.3-4c-1.3-3.7-.1-7.8 2.2-7.8.9 0 1.6.4 1.6.9 0 1.4 1.9-.1 3.1-2.4.6-1.1.7-1.8.1-1.4-1 .6-2.2-3.8-2.2-8.3 0-2.4-1.8-8.4-3.1-10.6-.4-.6-1.6-4-2.8-7.8-2.1-6.5-7.1-18.1-7.6-17.5-.2.2 1 6 2.5 13s3.1 15.4 3.5 18.7 1.2 6.7 1.9 7.7c1.1 1.4 1 2-.6 3.6-1 1-2 1.8-2.2 1.8s-.6-3.9-.9-8.8c-.7-11.5-5.2-30.1-8.5-35-1.2-1.9-1.3-2.5-.3-3.2 1-.5 1-.9.2-1.4-.6-.4-.9-1.2-.6-1.7.9-1.4 2.5-1.1 2.5.5 0 .8.5 1.8 1 2.1 1.5.9 3.2-.5 2.2-1.8-1.5-2.2-3.2-6.7-2.4-6.7.5 0 1.6 1.8 2.6 4.1 1 2.2 2 3.8 2.3 3.6.2-.3-.1-1.5-.7-2.7-.6-1.1-1-3.3-.8-4.8.5-3 .9-2.3 2.7 4.3.6 2.2 1.7 4.9 2.5 6 1.4 1.8 1.4 1.7 1-2.2-.6-5.1-2.9-10.9-4.7-12-1.7-1-3.7-10.7-4.1-19.8-.2-3.9-.6-13.1-.9-20.5l-.6-13.5 1.4 14.5c.7 8 1.8 16.1 2.4 18 .7 1.9 1.3 6.5 1.5 10.3.4 7.6 2.5 11.8 3.7 7.4.4-1.4.4-4 0-5.9-.4-1.8-.4-5.5 0-8.3.9-6.8 0-33.4-1.2-36.6-.6-1.5-2.1-3.2-3.5-3.9-1.3-.8-2.4-1.7-2.4-2.2 0-.4-.4-.8-1-.8-.5 0-1 1.3-1 2.9s-.4 4-.9 5.3c-1.3 3.4-2.6 18.1-2.4 26.8.2 12.5.4 14.3 1.8 19.2.8 2.7 1.2 4.8.9 4.8-.2 0 .3 1.1 1.1 2.4 1.4 2.1 1.4 2.4-.1 3-1 .4-1.4 1.3-1.1 2.6.3 1.1.2 2-.2 2-.3 0-1.2-3.6-1.9-8.1-.7-4.4-2.1-10.6-3.1-13.7-1.2-4-1.5-6.6-.9-8.7.9-3.3 3.1-20.9 3-24 0-1.1.4-5.3 1-9.3.9-7.1.9-7.3-1.9-10.7-1.5-1.8-3.4-3.4-4-3.4-.7-.1-1.3-.6-1.3-1.1 0-.6-.4-1-.8-1-1.1 0-1.8 19.5-1.4 35.4.3 8.6.8 12.3 1.8 13.3 1.8 1.9 1.8 3.4-.1 2.7-1.3-.5-1.5.9-1.4 9.7.1 15.8.8 18.8 4.7 20.9 2.1 1.2 2.8 2 1.9 2.3-.8.3-2 .1-2.8-.4-2.1-1.3-2.7-1.1-3.2 1.3-.4 2-.4 1.9-.6-.4 0-1.6-.4-2.7-.8-2.7-2 .3-2.7-.2-1.4-1 1.1-.7 1.3-3.8 1.2-14.6-.2-12.9-1.1-18.8-2.8-18.3-1.4.4-8.3-2.3-8.3-3.3 0-1.2 2.6-1.2 6.8 0l3.2 1v-23.5c0-12.9-.3-23.3-.7-23.3-2.7.4-3.5-.3-2.9-2.6.5-2.1.2-2.7-2.1-3.5-1.6-.6-3.5-1.4-4.5-2q-1.65-.9-2.1.3c-1.2 3.3 1.9 79.5 3.9 94.2 1.5 11.6 3.1 23.9 4 31.7.3 2.7.1 4.8-.4 4.8s-1.2-3.8-1.6-8.6c-.3-4.7-1.5-14-2.6-20.7s-2.2-17.1-2.5-23.2c-.3-6-.9-20.5-1.5-32-.5-11.6-1-27.1-1-34.7 0-12.8-.1-13.6-1.9-13.1-2.6.7-3.1 5.6-3.1 30 0 13 .4 21.2 1.1 22.5.8 1.5.8 2.2-.1 2.8-.8.5-1.1 5.7-.9 18.4.1 9.7 0 17.8-.2 18-.2.3-1.2-.2-2.3-.9-1.7-1.3-1.7-1.5-.3-3 1.4-1.4 1.6-6.3 1.1-44.7-.3-23.8-.6-43.3-.7-43.4s-.9.3-1.8.9M710.4 358.1c-1.3 2.2 4.9 11.9 7.7 11.9 1 0 1.9.6 1.9 1.2 0 2 13.2 9.8 16.5 9.8.9 0 1.4-.4 1-.9-.5-1 2.6-.9 5.5.1 4.8 1.7 12.8 2.7 22 3 9.9.3 10.5.2 10.5-1.7 0-1.6-1-2.2-5.8-3.1-3.2-.7-7-1.7-8.5-2.2-5.9-2.3-14.1-4.2-15.6-3.6-.9.3-1.6.1-1.6-.5 0-1.1-6.2-4.1-8.7-4.1-.8 0-3.4-.9-5.9-2l-4.4-2.1-2.5 2.8-2.4 2.8.8-3.7c.8-3.2.6-3.9-1.7-5.7-3-2.4-3.6-2.5-6.4-1-1.8 1-2 .9-1.5-.5.7-1.8.2-2.2-.9-.5M447.9 374.7c-2.2 2.6.6 3.5 11.9 3.8 6.1.2 11.9.8 13 1.4q1.8 1.05 8.7 0c10.3-1.4 11.7-1.9 10.5-3.4-.8-.9-.7-1.4.1-1.7 1-.3-10-.2-21.4.1-1 .1-1.5.5-1.2 1.1.3.5-.3 1-1.5 1s-1.8-.4-1.5-1c.7-1.2-2-1.7-10.7-2.3-5-.4-7-.1-7.9 1M741 383.9c0 1.6 3.9 3.8 9 5.1 2.5.6 6.1 1.7 8 2.6 1.9.8 6.9 2.3 11 3.3l7.5 1.8.3-3.5c.2-2-.2-4-1-4.7-.7-.6-5.8-1.7-11.3-2.4s-11.1-1.5-12.5-1.7c-6.4-1.3-11-1.5-11-.5"/><path d="M599.3 456.3c-1.3 1.8-2.3 4-2.3 4.8s-1.1 4.1-2.4 7.4-3.3 9.4-4.6 13.5c-1.2 4.1-2.6 8.8-3.1 10.4s-.9 4-.9 5.4c0 2 .3 2.2 1.4 1.3s1.5-.9 1.9.1c.7 1.7 2.7-.9 2.7-3.5 0-1 .7-3.4 1.5-5.4s2.7-9.5 4.1-16.7c1.5-7.2 3.3-14.3 4-15.8 2.8-5.5 1.1-6.6-2.3-1.5M536.8 652.2c-1 1.2-1.8 3.4-1.8 4.9s-.4 2.9-.9 3.1c-.5.1-1.5 3.1-2.2 6.5-1.1 5.4-1.1 6.4.5 8.8.9 1.4 2.2 2.5 2.7 2.3.6-.2.9-.6.7-1-.2-.3.5-1.5 1.6-2.7 1.5-1.7 1.8-3 1.2-6.8-.3-2.7-1.1-5-1.6-5.1-2.3-.8-.7-2 2.7-2 2.2 0 4.1-.6 4.8-1.6 1.5-2 .7-7.6-1-7-.7.3-1.6.1-2-.5-1-1.7-2.8-1.3-4.7 1.1M601.6 653.6c-.3.9-.6 3.5-.6 5.9s-.4 5.5-1 6.9c-1.1 3-.2 6.6 1.1 4.5 1.1-1.9 2.2-.5 2.2 2.8 0 1.6-1 3.5-2.5 4.8-3.5 3-3.9 4.8-2.1 9.3l1.5 4-3.8 3.5c-3.7 3.4-3.9 3.5-4.4 1.5-1-3.8-3-3.3-3 .6 0 3.4.1 3.6 2.7 3 1.8-.5 3-.2 3.8.9 1.7 2.4 5.4 1 6-2.2.3-1.4 1.7-4.9 3.1-7.6 1.4-2.8 3.1-8.4 3.9-12.5l1.5-7.5-.5 12.5c-.3 8.8 0 13 .8 14 1 1.3 3.5 1.6 12.4 1.5H634v-4.4c0-5.1-1.8-7-6.7-7.1-1.8 0-3.3-.5-3.3-1 0-.6-1.1-1-2.5-1-1.9 0-2.5-.5-2.5-2.3 0-2.4 2.6-10.5 3.9-12.2 1.5-1.9 2.1-10.6 1-12.8-1.1-1.9-1.3-1.9-2.4-.4-1.1 1.6-1.4 1.4-2.5-1.3-1.6-3.8-3-3.4-4.6 1.1-1.1 3-1.3 3.1-1.4.9-.1-2.4-.1-2.4-1.5-.6-.8 1.1-1.5 2.8-1.5 3.8s-.6 1.8-1.4 1.8-1.8.9-2.1 2-1.1 2-1.6 2c-.6 0-.8-.4-.5-.9.3-.4 1.2-3.4 2.1-6.6 1.1-4.3 1.2-6.2.4-7.2-1.5-1.8-4.6-1.6-5.3.3M667.7 654c-.5 1.9.6 13.3 1.8 19 .3 1.4.7 3.4 1 4.5.2 1.1.8 3.3 1.4 5 .5 1.6 1.3 4.3 1.8 6 .5 1.6 1.5 2.9 2.1 2.8.7-.2 1.1 0 1.1.5-.1.4-.1 2.4 0 4.4.1 3.1.6 3.9 3.3 5.3 3 1.5 3.4 1.5 4.5-.2 1.8-2.3 1.6-3.7-1-9.6-4.6-10.3-6.2-18.4-3.4-17.4.7.2 1.1 1.6.9 3.4-.3 3.1 1.8 5.8 2.6 3.4.5-1.5 4.2 4.2 4.3 6.7 0 1 .3 1.2.6.4.7-1.9 2.3-.4 2.3 2.3 0 3.8 3.5 5.5 11.2 5.5h6.8l8.5-8.5c4.7-4.7 8.5-9.1 8.5-9.9 0-.7-.7-1.9-1.5-2.6s-1.5-1.8-1.5-2.5-1.6-2.7-3.5-4.6c-3-2.9-3.5-4.1-3.5-8v-4.6l-8.2-.7c-8.1-.7-8.4-.6-10.5 1.9-2.7 3.1-2.9 6.2-.7 9.4 1.5 2.1 1.5 2.6-.2 6.4-1 2.3-3.3 5.8-5.1 7.7l-3.3 3.4v-2.9c.1-3.7 3.4-13.5 4.9-14.5 1.7-1 .2-4-2-4-1.1 0-2.9.9-4.1 2-2.6 2.4-3.4 2-1.8-1 1.3-2.5-.2-7.6-1.9-6.6-.5.3-3.3-.5-6.3-1.9-6.4-3-8.4-3.1-9.1-.5M660 657.2c-.7 1.8-.9 1.9-.9.5-.1-2-2.7-2.3-3.4-.5-.4 1-.8 1-1.5-.1-.9-1.2-1.3-1.1-2.8.4-1.6 1.6-1.7 2.5-.6 9.9.7 4.5 1.2 10.9 1.2 14.3v6.1l-3.6.7c-5.4 1-8.1 2.5-9.3 5.2-1.4 3-1.4 6.3-.1 6.3.6 0 1 .9 1 2 0 2.7 5 2.7 7.5 0 1.1-1.2 3.1-2 5-2 1.8 0 3.8-.7 4.5-1.5 1-1.2 1.6-1.3 2.6-.4.8.6 3.8 1.2 6.6 1.3 5.1.1 5.3 0 5.6-2.7.2-1.6-.7-5.1-2.2-8-2-4.1-2.7-7.8-3.5-17.7-.5-6.9-1.2-13.3-1.6-14.3-1-2.4-3.4-2.1-4.5.5"/><path d="M635.5 658.3c-.4 1-.4 5.3-.1 9.5.4 4.2.9 9.6 1 12 .3 4.1 2.6 8.6 2.6 4.9 0-1 .5-1.4 1.3-1.1s2-.2 2.7-1.1c.7-.8 2.1-1.5 3.1-1.5 1.7 0 1.9-.9 1.9-9.4 0-5.2-.3-10.1-.6-11-1.2-3-2.4-.4-2.5 5.2-.2 10.4-1.7 12.5-1.8 2.6 0-5-.4-9.4-.8-9.7-1.2-1.3-3.3 1.6-3.4 4.7-.1 2.6-.3 2.3-1.3-1.9-1-3.9-1.5-4.6-2.1-3.2M621.5 709.7c-7 .2-12.1.9-14.2 1.8-3.7 1.8-6.7 1.9-9.4.5-1.3-.8-1.9-.7-1.9.1 0 .7-1.3.9-4 .4l-4-.7v8.2h23.5c19.9 0 23.7-.2 24.1-1.5.8-1.9-.9-8.8-2.1-8.9-.6-.1-5.9 0-12 .1"/></svg>