<svg xmlns="http://www.w3.org/2000/svg" width="1706.667" height="960" viewBox="0 0 1280 720"><path d="M0 158.5V317h29c23.7 0 29.8-.3 33.6-1.6 2.5-.8 5.3-1.2 6.2-.8 3.8 1.6 24.2 2.4 70.2 2.9 26.7.2 50.5.7 53 1.1l4.5.7-3.4 1.4c-2.1.9-6.4 1.3-12 1.2-21-.4-32.1-.3-71.1.3-22.8.4-41.9.7-42.5.7-.5 0-16-.3-34.2-.6L0 321.9v54c0 53.6 0 54.1 2 52.9 2.5-1.6 4.3-.1 4.3 3.6 0 1.4.5 3.1 1.3 3.7.7.6 1.6 3.5 2 6.5.5 4.2 1.2 5.9 3.4 7.8 1.6 1.3 3 3.2 3.2 4.2.2 1.5-.4 2-3.3 2.2-4.9.4-7-1.7-6.2-6.3.6-3.5.5-3.5-3.1-3.5H0v7.5c0 6.6.2 7.5 1.8 7.5 1 0 2.6.6 3.6 1.3 1.5 1.1 1.5 1.5.4 2.4-.7.6-2.2 1.3-3.3 1.5-2.6.4-3.1 3.6-.8 5.3 1.7 1.3 1.7 1.4.1 2-1.7.7-1.8 3.4-1.8 38v37.3l3.5 1.2c5.2 1.7 4.3 7-1.2 7H0v34h4.9c2.8 0 5.3.4 5.6 1 .8 1.3-1.4 5.2-2.6 4.5-.5-.4-1.2 0-1.5.9-.3.8-1.9 1.9-3.5 2.5-2.6.9-2.9 1.4-2.9 5.5 0 2.6.5 4.6 1 4.6.6 0 1 .8 1 1.7.1 2.7 2.5 5.3 4.8 5.3 3.1 0 7.2 1.8 7.2 3.1 0 .6.9 2 2 2.9 5.3 4.6 4 14.2-2.5 19-1.9 1.4-3.3 3-3 3.7.3.9-.5 1.1-2.5.6-1.6-.3-4.1-.2-5.5.1-2.4.6-2.5.9-2.5 8.6v8h2.9c3.1 0 4.6 2.1 2.8 3.9-.6.6-2.1 1.1-3.4 1.1H0v24.5C0 717.3.1 718 2 718c1.1 0 2 .4 2 1s3.1 1 7.4 1c4.1 0 7.8-.5 8.1-1 .3-.6 1.6-1 2.7-1s2.9-1 3.9-2.2c1.1-1.2 1.9-1.6 1.9-.8 0 .7 1 2.1 2.2 3.1 1.9 1.7 4.1 1.9 26 1.9 13.7 0 23.7-.4 23.4-.9-.8-1.3 1.4-2.8 6.1-4 2.3-.6 4.3-1.5 4.5-1.9.6-1.4 8.7-5.2 11.2-5.2 1.4 0 2.9.8 3.5 1.8.8 1.5.3 2.7-3 6l-4 4.2h20.2c22.8 0 19.5 1.1 31-10.1 3.1-3.1 7-6 8.5-6.3 1.5-.4 4.8-2.8 7.3-5.4 2.5-2.5 6.2-5.5 8.3-6.7 2-1.2 4.7-3.3 5.8-4.8 1.2-1.5 2.6-2.7 3.1-2.7.6 0 1.7-.7 2.5-1.5 2.5-2.5 6.3-2.9 10-1.2 5.6 2.7 4.7 5.7-4.2 14.4-4.7 4.6-8.1 7.3-9 6.9-.8-.3-1.4-.1-1.4.4 0 .6-1 1-2.3 1-2.7 0-6.7 3.8-6.7 6.3 0 .9-2.5 3.4-5.7 5.4l-5.6 3.8 32.8.3 32.9.2 2.6-2.5c3.5-3.4 8.4-3.4 10.6 0l1.6 2.5h60.7c61.6 0 63.1-.1 63.1-3.6 0-.6 1.6-2.8 3.5-4.8 1.9-2.1 3.5-4.3 3.5-4.9 0-.7.9-1.8 2.1-2.5 1.1-.7 2.9-3.2 3.9-5.6 1.1-2.3 3.3-5.4 5-6.9 1.7-1.6 3-3.7 3-5.1 0-1.3-2.7-8.3-6.1-15.7s-6.9-15.9-7.9-19-3-7.9-4.4-10.7-2.6-6-2.6-7-1.8-6.3-3.9-11.8c-2.2-5.5-4.3-12.4-4.6-15.4-.4-3-2.1-10.2-3.7-16-1.7-5.8-3.4-13.4-3.9-17-.4-3.6-2.1-14.6-3.7-24.5-1.7-9.9-3.3-21.8-3.7-26.5-.9-11.3-2.3-13.8-9.3-17.3-6.9-3.3-11.1-6.6-11.6-9.3-.5-2.2-5.2-14.8-6.6-17.9-.6-1.1-1.7-7.6-2.5-14.5-2.1-16.7-2.9-21-4.5-24-.8-1.4-1.5-4.3-1.7-6.4s-.7-4.4-1.3-5.1-1.7-5.7-2.5-11.2c-.8-5.6-2.1-11.6-2.9-13.4-1.6-3.8-4.6-20.2-4.6-24.9 0-1.7-.5-3-1.1-3s-1.8-.7-2.6-1.6c-.9-.8-2.4-1.3-3.4-1.1-1.1.3-2.2.1-2.5-.4-.9-1.6-4-1-9.3 1.7-7.6 4-12.7 1.8-11.4-4.9.5-2.4 1-2.7 4.2-2.7 2 0 5.2.8 7.1 1.8 5.5 2.9 11.5 3.4 14.1 1.1 1.2-1 1.8-1.9 1.2-1.9-.5 0-1-1.4-1-3 0-1.8-.9-4.1-2.4-5.6-2.2-2.4-2.8-2.6-8.7-2-6.2.7-6.2.7-10.3-3.3-3.8-3.6-4.1-4.2-3.4-7.8.5-3 .2-4.3-1-5.3-1.3-1.1-1.5-2.5-.9-7.9.3-3.6 1-7 1.5-7.6.5-.5.9-2.1.9-3.5 0-2.8 2.7-6 5.1-6 .8 0 2.9-.9 4.7-2 3.5-2.2 5.7-2.6 4.7-1-.3.5-.1 1 .4 1 1.2 0 .6-13.4-.9-18.7-1.5-5.6-.1-19.2 2.6-25.9 2.4-5.9 2.6-6 5.7-5.6 2.9.5 3.1.3 1.8-1.1-.7-.9-1.3-3.4-1.3-5.6.1-3.3.8-4.6 4.4-8 4.8-4.5 12.5-7.5 16.8-6.6 5 1.1 7.8 5.3 8.3 12 .2 3.3.4.1.5-7 0-7.2-.3-18.9-.8-26-.5-7.2-1.2-23.8-1.5-36.9-.4-13.2-.8-24.3-1-24.7-.3-.3 0-2.1.5-4 .6-1.9 1.5-11.1 2-20.4.6-9.4 1.3-18.9 1.5-21.2.3-3.9 0-4.5-5.8-10.6-3.4-3.5-8.2-7.7-10.7-9.3s-5.1-3.4-5.8-4.1-1.9-1.6-2.6-2c-.6-.5-2.2-2.4-3.4-4.4s-4.2-5.3-6.6-7.4c-5.3-4.5-5.9-5.7-4.6-9 .8-2 1.6-2.5 4.4-2.5 2.7 0 4.7 1.1 9.3 5 3.2 2.7 7.4 5.7 9.3 6.6s4.6 2.2 6 2.8c1.3.6 3.3 2.8 4.3 4.7 1.9 3.5 8.1 7.7 9.1 6 .3-.4 1.2-5.5 2.1-11.2.8-5.7 2.2-12.7 3.1-15.4.9-2.8 2.4-8.6 3.4-13 4.6-19.6 5.7-23.4 10.4-36 1.4-3.9 2.6-8 2.6-9.2s.5-2.5 1-2.8C346.5.3 340.8 0 301 0c-23.6 0-43 .3-42.9.7 0 .5 2.9 3.3 6.5 6.3s11.4 10.4 17.5 16.3c9.6 9.3 11 11.2 10.5 13.3-.5 1.9-1.3 2.4-3.9 2.4-1.7-.1-4.1-.6-5.3-1.3-3.2-1.9-22.4-20-22.4-21.2 0-1-3.5-4.5-4.5-4.5-.3 0-2-1.3-3.8-2.9-1.7-1.7-4.8-4.4-6.7-6L242.6 0H0zM90.9 19.3c.9.7 5.2 3 9.6 5.1s8.9 4.6 10 5.6 4.5 3.1 7.5 4.6 7.3 3.9 9.5 5.4 6.9 4.4 10.5 6.4c10.8 6.2 17.3 10.3 20.6 12.9 1.7 1.4 4.4 3.2 6 3.9 3 1.3 3.1 1.4 7.9 5.1 1.7 1.2 4.9 3.1 7.2 4.1s5 2.9 6 4.2 2.5 2.4 3.3 2.5c1.1 0 1.1.2.2.6-.7.3 1.3 1.8 4.5 3.4 9.1 4.7 16.9 9.2 19 11.1 1.1 1 2.5 1.8 3.2 1.8s1.9 1.6 2.7 3.6c1.4 3.2 1.3 3.8-.1 6.1-1.5 2.2-2.2 2.5-5.6 2-2.2-.3-8-2.9-13.2-6-13.9-8.3-21.3-11.7-25.1-11.7-4.4 0-6.2 2.6-4.5 6.4.9 1.9.8 3.6-.6 8.1-1 3.1-2.4 6.2-3 6.8-1.6 1.7-8.2 10.7-10.3 14.1-.9 1.5-3.4 5.4-5.4 8.5-2.1 3.1-3.8 6.3-3.8 7.1s1.5 2.2 3.2 3.1c3.9 1.9 6.6 5.5 7 9.4.7 6.5-10 6.9-25.2.9-9.4-3.8-25.7-11.4-31.5-14.7-2.7-1.6-7-3.7-9.5-4.7-5.5-2.2-12-5.8-14-8-.8-.8-2.6-1.4-3.9-1.2-3 .5-11.1-2.1-17.6-5.6l-5-2.7-.3-6.3c-.3-6.5-.1-6.8 4.6-5.6 3.1.9 2.8 2.7-.4 2.1-2.1-.4-2.5-.1-2.2 1.7.4 3 5.5 3.3 6 .3.2-1.4.9-2 1.8-1.8.8.2 3.3.8 5.5 1.4 4.1 1 10.9 3.5 18 6.7 2.2 1 6.8 2.8 10.3 4.1l6.3 2.2 2-2c1.4-1.4 2.8-5.8 4.5-13.9 4.4-21.1 4.5-19.6-1.8-25.9-4.1-4.1-8.5-7-17.9-11.8-6.9-3.5-14.1-7.4-15.9-8.8-1.9-1.3-10-5.6-18-9.4-32.9-15.9-30.9-14.8-31-17.6-.1-6.3 7.1-7.5 14-2.4 1.9 1.4 5.8 3.4 8.8 4.5 6.6 2.5 10.6 4.5 12.4 6.3.8.8 3.6 2.5 6.3 3.9 2.8 1.4 9.3 4.6 14.5 7.3 5.2 2.6 10.9 5.7 12.5 6.9 8 5.9 19.1 9.8 26.6 9.4 5.3-.3 5.4-.4 5.7-3.6.2-1.7.7-3.2 1.3-3.2 2.2 0 .5-2.2-4.8-6.2-9-6.9-12.5-9.2-17.3-11.7-2.5-1.2-5-2.8-5.5-3.5-.6-.8-2.7-2.2-4.7-3.3s-5.9-3.7-8.7-5.8c-5.5-4.2-6.3-6.8-3.9-12 1.1-2.3 1.6-2.5 5.6-2.1 2.4.3 5.2 1.1 6.1 1.9m206.3 127.2c7.4 3.4 13 6.8 14.1 8.6 1.6 2.6-2 10.6-5.1 11.4-4.1 1-5.8-1.5-4.5-6.9 1.1-5.1.3-6.4-5.2-8.4-1.6-.5-3.8-1.3-4.8-1.7-1.2-.5-1.6-.3-1.3.6.2.8.7 2.9 1 4.6.5 2.8.3 3.3-1.5 3.3-2.6 0-7.9-2.8-7.9-4.2 0-1.7 4.2-4.9 5.7-4.4 1 .4 1.1.1.4-1.3-.7-1.2-.6-2.2.1-2.9 1.7-1.7 3.1-1.5 9 1.3M67.7 158.4c1.8 1.5 4.7 2.6 8.5 3 3.4.4 9 2.3 14 4.8 12.1 5.8 27.5 11.4 33.7 12.2 5.8.8 18.9 6.6 23.4 10.4 2.2 1.9 2.2 6 0 8.4-2 2.2-10 2.5-14.1.5-1.5-.8-4.9-2-7.7-2.7-2.7-.7-5.7-1.9-6.5-2.6s-3.8-1.8-6.5-2.5c-2.8-.6-6.6-2-8.5-3-2-1-5.4-2.2-7.5-2.8-5.4-1.3-19.2-6.4-23.3-8.5-3.7-1.9-3.6-1.9-13.7-4.1-4.8-1.1-7.5-2.2-8.7-3.8-1-1.2-2.2-2.7-2.8-3.4-.5-.7-1-1.8-.9-2.5 0-1 .2-1 .6-.1q.45 1.2 2.7-1.2c1.3-1.4 3-2.5 3.9-2.5s1.9-.5 2.2-1c1.2-2 8.2-1.1 11.2 1.4m115.7 3.5c4.5 1.6 11.3 3.9 15.2 5 3.9 1.2 9.8 3.4 13 5.1 3.2 1.6 6.9 3 8.1 3 3.3 0 7.3 1.8 7.9 3.5.4.8.3 3.1 0 5-.6 2.8-1.2 3.5-3 3.5-3.5 0-8.6-2-8.6-3.4s-4.1-3.6-6.6-3.6c-.8 0-3.8-1.2-6.7-2.6-2.8-1.4-8.5-3.9-12.5-5.5-9.4-3.8-17.5-7.9-18.4-9.3-.7-.9 1.6-3.6 3.1-3.6.2 0 4.1 1.3 8.5 2.9m105 4.1c2.9 1.6 7.1 3.2 9.4 3.6 2.6.4 4.7 1.4 5.3 2.5 1.6 3.1-2.8 3.3-11.1.5-9.5-3.3-9.9-3.2-10.6.4-.7 3.5-.8 3.5-5.2 1.2-3-1.6-3.1-1.9-1.7-3.7.8-1.1 1.5-2.9 1.5-4.1 0-1.1.3-2.4.7-2.7 1.5-1.6 6.9-.5 11.7 2.3m-96.3 90.1c2.2 1.1 5.2 2.2 6.7 2.4s4.3.9 6.2 1.4c1.9.6 6.5 1.1 10.2 1.1s6.9.4 7.3 1 1.5.6 3.1 0c4.7-1.8 6.8-1.2 8.8 2.4 2.3 4.4 1.2 8.5-2.9 10.5-2.6 1.3-3.3 1.2-6.7-.7-2-1.2-4.9-2.2-6.4-2.2s-3.5-.7-4.4-1.5c-3.1-2.8-12.7-5.4-22.2-6.1-10.3-.7-11.7-1.3-14.1-6.1-1.6-3-1.6-3.2.1-3.6 4.3-1.2 10.5-.6 14.3 1.4m-5.5 69.1c3.7 1.3 5 5.5 2.7 8.8-1.2 1.7-2.6 2-8.1 2s-7.2-.4-9.7-2.4c-2.6-2.1-2.8-2.6-1.8-4.8 1.8-4.1 10.6-5.9 16.9-3.6m38.2 13c.7.7 1.2 2.1 1.2 3.3s.6 2.7 1.3 3.4c1 1 .8 1.6-1 3.1l-2.2 1.8 2.2.6c1.2.3 4.1.6 6.5.6 2.3 0 4.2.4 4.2 1 0 .5.5 1 1 1 .6 0 2.2.7 3.6 1.7l2.6 1.6-5.9 1.9c-5 1.7-7.7 1.8-20.6 1.3-14-.6-28-2.5-29.5-4-.4-.4 0-.6.8-.4s2.4-.2 3.5-.7c1.1-.6 6.2-1.7 11.4-2.5 7.8-1.1 9.4-1.6 10.1-3.4.4-1.1 1.5-2.7 2.4-3.4s1.6-2.3 1.6-3.5c0-2.6 1.8-4.6 4-4.6.9 0 2.1.5 2.8 1.2m-95.9 6.8c3.1.5 9.2 1.4 13.6 2 11.5 1.4 16.1 2.5 17.9 4.3 2.2 2.1 2.1 5.7-.1 5.7-1 0-3.1.7-4.7 1.5-1.6.9-6.6 2-11 2.5-4.5.5-10.3 1.4-13.1 1.9-2.7.5-12.6 1.2-22 1.5-15 .6-18.1.5-26.3-1.3-5.1-1.1-10.7-2.7-12.5-3.5s-5.2-1.7-7.7-2c-6.7-1-7.5-1.8-4.7-4.8 1.8-2 3.9-2.8 8.1-3.3 3.1-.4 6.3-1.3 6.9-2 2.9-2.8 43.4-4.7 55.6-2.5m76.5 20.6c1.2 3 .6 6.4-1.4 8.4-1.7 1.7-3.2 2-9.8 1.9-6.4-.2-20.8 1.1-24.7 2.2-.5.2-2.9-.1-5.2-.5-4.5-.8-6-2.9-4.8-6.5.9-2.9 3.3-3.3 18.9-3.3 12 .1 14.6-.2 17.6-1.8 4.3-2.4 8.6-2.5 9.4-.4m-99 12c.9.3 1.6 1.1 1.6 1.8 0 .6 1.4 2 3.1 3 2.9 1.7 3.1 2.2 2.6 6.2-.3 2.8 0 5 .9 6.1 1.9 2.5 1.9 13.3 0 13.3-3.3 0-2.3 6.1 1.5 8.7 1.1.9 1.9 3.2 2.3 7 .3 3.2.8 8.2 1.2 11l.6 5.3H110v-5.9c0-3.3.4-7.1 1-8.5 1.5-3.9-1.5-5-11.4-4.1-13 1.1-16 4.9-14.5 17.9.5 3.8 1.1 7.7 1.4 8.6.7 2.4 5.8 4.4 9.2 3.7 1.6-.3 5.7-1 9.3-1.6s7.5-1.7 8.8-2.3c3.2-1.7 4.7.3 4.5 5.8-.2 4.8-4.9 16.4-6.7 16.4-.6 0-1.7.9-2.4 2s-1.8 2-2.5 2-2.9.8-5 1.9-8 2.4-13.9 3c-5.7.7-11.9 1.6-13.8 2.1s-6.6 1.2-10.5 1.5c-13.8 1.1-19.4 2.1-21.5 4-1.4 1.3-4.1 2-8.3 2.3-3.4.2-6.6.8-7.2 1.2-.5.5-2.8 1.1-5 1.5s-4.8.9-5.9 1.1c-2.9.5-14.6-6.3-14.6-8.6 0-1.8 7.4-3.3 13.8-2.7 5 .5 7.8.2 12.3-1.3 3.2-1.1 7.1-2 8.7-2 3.9 0 27.6-6.2 37-9.6l4.2-1.6.2-14.1c.1-7.8.2-17.8.3-22.2 0-4.4-.5-9.6-1.2-11.5s-1.2-4.6-1.1-6c0-1.4-.3-3.6-.7-5s-.9-5.9-1.1-10-.7-9-1-10.8c-.9-4.6 1-8.7 4.3-9 1.4-.1 3.2.3 4 .9 1.8 1.6 16.1 1.7 17.1.2.4-.6 2.1-1.3 3.7-1.6 1.7-.2 3.1-.5 3.2-.6.1 0 .8.2 1.7.5m172.1 16.1c3.8 1.8 4 2.3 2.3 5.6-.6 1.2-1.5 3-2 3.9-.4 1-.5 5.1-.2 9 .6 6.1 1.2 7.9 3.5 10.6 3.6 4 3.6 5 .3 7.8-3.2 2.8-14.5 4.4-16.9 2.4q-3.15-2.7.9-9.3c2-3.3 2.3-4.8 1.9-10s-1-6.6-3.4-8.7c-1.5-1.4-3.1-3.7-3.4-5.1-.6-2.4-.2-2.9 4.2-5.2 5.8-3 8.2-3.2 12.8-1m-10.7 63.4c4.6 1.6 6.2 7.5 5.3 20.5-.2 3.9-9.9 6.4-13.5 3.5-1.3-1.1-4.1.5-8.4 4.6-1.8 1.8-7.7 1.6-9.2-.2-.7-.8-.9-1.5-.5-1.5s.2-.6-.5-1.4c-.6-.8-1.2-3.6-1.3-6.3-.1-3.3-.7-5.2-1.9-6.1-1-.7-1.8-2.6-1.8-4.2 0-2.2.9-3.4 4.7-5.9 5.7-3.8 8.3-3.9 12-.5 1.9 1.8 2.9 2.2 3.2 1.2 1.3-4.5 5.7-5.9 11.9-3.7m23.3 37.2c5.9 4 7.9 8 7.8 16.1 0 4.1-.7 8.9-1.7 11.5-2.6 6.9-6.5 7.4-15.7 2-1.1-.7-2.7-1.5-3.5-1.9-3.1-1.4-4.5-6.2-4.2-14.5.3-9.3 1.6-13.3 4.6-14 1.1-.2 3-.6 4.1-.8 4-.9 5.3-.7 8.6 1.6M344 580c0 3.4-.4 4.2-3.1 5.6-1.8.9-4.3 2.8-5.7 4.2-1.3 1.5-2.8 2.6-3.3 2.4-.5-.1-.9.2-.9.8 0 1.2-7.6 9-8.8 9-.5 0-2.1.9-3.4 2-1.4 1-2.8 1.7-3.2 1.3-.3-.3-1.4.1-2.3.9-2.8 2.5-5.8 2.6-6.1.3-.3-2.4 10.8-14.5 13.4-14.5s9.7-5.5 13.9-10.8c3-3.9 4.7-5.1 6.8-5.2 2.5 0 2.7.3 2.7 4"/><path d="M122.3 94.2c-2.7 3.8-4.5 10.2-4.7 16.7 0 3.6.4 4.6 2.7 6.3 4.5 3.3 12 6.8 15.9 7.4 3.2.6 4 .2 7-2.9 4.1-4.4 7.8-10.3 7.7-12.5-.1-3-12.4-12.4-18.7-14.4-6.8-2.1-8.6-2.2-9.9-.6M91.8 391.9c-2.7.4-5.2 1.1-5.8 1.7-1.5 1.5 0 15.5 1.7 16.1.8.3 4.5.1 8.1-.5 8.2-1.4 10.2-3.4 10.2-10.2 0-7.6-2.3-8.7-14.2-7.1M366 5.9c0 3.3.5 6.3 1 6.6 1.2.7 1.4 9.8.3 10.9-1.1 1-.3 28.5.8 30.8.5 1 1.4 2.7 2 3.9.8 1.6.7 2.3-.5 3.2-1.9 1.5-2.3 9.1-1.2 24.9.8 10.1 1.1 11.7 2.7 12.1 1.1.3 1.9.1 1.9-.4s.7-.9 1.6-.9c1.3 0 1.2.5-.5 2.9-1.2 1.6-2.1 4-2.1 5.3s-.4 2.8-.9 3.3c-.5.6-1.2 8.8-1.5 18.2-.5 14.3-.4 17.3.8 17.3.7 0 1.9-.7 2.6-1.5s1.6-1.5 2.1-1.5c.9 0-.8 5.8-2.3 7.6-3.1 4.1-7.6 30.4-5.2 30.4.5 0 2.1-1.1 3.6-2.5s3.2-2.5 3.8-2.5c.5 0 1-.5 1-1 0-.6 1-2.1 2.3-3.3 1.2-1.2 2.3-2.9 2.5-3.7s1.4-2.4 2.6-3.7c1.9-1.9 2.5-3.9 3.1-11 1.3-15 1.3-18.7.2-20.8-1.3-2.4-1-5.7.7-6.7.7-.5 1.2-5.9 1.4-15.8.2-8.2.7-15 1.2-15s1.1 6.2 1.2 13.7l.3 13.8 5 .5 5 .5-4.7 2.4c-5.7 2.7-6.4 4.6-7.3 18.1-.3 5.2-.8 11.6-1.1 14.2-.6 4.5-.5 4.8 1.8 4.8 1.2-.1 4.8-1 7.8-2.1s7.8-2.6 10.5-3.4c2.8-.8 5.7-2.4 6.7-3.5 1.1-1.4 1.8-1.6 2.1-.8.4 1.4 17.6 1.9 30.4 1l6.2-.5.6-6.6c.3-3.6 1-10.7 1.5-15.6.5-5 .6-10.5.2-12.4l-.7-3.4-7.5.2c-10 .3-24.9 2.6-26.3 4-.7.7-1.3 5.6-1.5 11.9-.3 10.1-1.5 16.2-3.2 16.2-.4 0-.5-4.4-.2-9.8 1-18.1 1-17.7-1.8-17.6-1.4.1-4.4.6-6.7 1.1-2.4.6-4.3.8-4.3.3 0-.4 1.9-1.5 4.3-2.4 9.6-4 9.1-3.4 9.7-11.6l.5-7.5 1.2 6.4c.7 3.6 1.7 6.9 2.2 7.4 1.3 1.3 26.1-.6 30.8-2.3 3.7-1.3 3.6-.1.6-24.7-1.4-11.1-2-13.4-3.5-13.9-2-.6-2.4-3-.7-3.6.9-.3.9-3.3-.1-11.9-.7-6.4-1.1-12.2-.8-13 .7-1.8 1.4 1.1 2.9 12.4.6 4.8 1.7 9.4 2.4 10.1 1.7 1.7 10 .9 24.5-2.4 2.5-.6 6.2-1.3 8.3-1.7 2.1-.3 4-1 4.3-1.4.3-.5-.2-6-1-12.1-.8-6.2-2-15.8-2.6-21.3s-1.8-13.7-2.7-18.3L482.7 0h-39l.7 4.6c.3 2.6.6 5.7.6 7s1.1 3.5 2.6 4.9c2 2 2.2 2.6 1 3.1s-1.4 2.2-1.1 9.7l.3 9.2-1.3-7.4c-.8-4.1-1.8-7.7-2.3-8s-1.2-4.9-1.5-10.1-.8-10.3-1.2-11.3C440.9.2 439.2 0 426.6 0c-8.9 0-14.6.4-15.3 1.1-.8.8-1.3.8-1.7 0-.5-.7-4.9-1.1-12-1.1h-11.2l.3 8.7c.2 4.9.9 10.5 1.5 12.5 1.5 5-.8 16.8-2.5 13-.5-1.2-1.3-2.2-1.6-2.2s-.4-7.2-.2-16l.3-16H366zm22.9 47c1 12.2 1.9 14.3 5.1 12.3 2.6-1.6 3-1.5 3 .8 0 1-1 2.8-2.2 4-1.2 1.1-2 2.2-1.7 2.4 1.9 1.7 19.8 8.6 22.4 8.6.3 0 .6-4.6.6-10.3l.2-10.2.8 6.8c.4 3.8 1.3 9 2 11.6.8 3.1.9 6.7.4 10.7-.8 5.9-.8 5.9-1.7 2.4-2.2-8.6-1.7-8-13.2-12.7-6.1-2.4-11.6-4.1-12.3-3.9-.7.3-1.3 1.9-1.3 3.6 0 1.6-.4 3-1 3-.5 0-1-.4-1-.9 0-.4-1.1-.6-2.4-.4-2.1.4-2.4.2-1.9-1.6.3-1.2 1-2.1 1.5-2.1 1 0 .8-1.7-.7-5.3-.5-1.2-.2-1.7 1-1.7 1.7 0 1.7-1.2 1.2-15.8-.6-17.7-.2-18.2 1.2-1.3M487 1c0 .5.8.7 1.8.3 1.4-.5 1.4-.3-.2.9-1.9 1.5-1.9 2.1-.8 13.9 1.3 14.3 5 43.1 5.7 43.7.6.7 32.2.3 37.3-.4 2.4-.4 4.6-1.3 4.9-2 .3-.8-.2-7.8-1-15.7-.9-7.8-2.2-20.4-2.8-28L530.6 0h-21.8C495.4 0 487 .4 487 1M532.5 3.2c.3 1.8 1 8 1.5 13.8 1.2 12.5 2.8 27.8 3.8 35.8l.7 5.7 22.5.3c17 .2 23-.1 24.2-1 1.6-1.2 1.6-3.2-.2-29.3-1-15.4-1.9-28.1-2-28.3 0-.1-11.5-.2-25.5-.2h-25.6zM585 2.3c0 6.9 3.1 48 4 53 .6 3.1.8 6.2.5 6.7-.7 1.1 2.6 54.5 3.4 55.9.3.5 8.3 1.4 17.6 2 9.4.6 19.4 1.4 22.3 1.6l5.2.5V93.1c0-31.9.4-30.1-6.6-30.1-1.9 0-3.4-.5-3.4-1.1 0-.7 1.8-1 5-.7l5 .3V0h-53zM640.2 30.7l.3 30.8 11.5-.4c18.1-.5 35.9-1.7 36.5-2.3.5-.5 4.4-50.8 4.5-57.6 0-.9-6-1.2-26.5-1.2H640zM694.6 2.2c-.3 1.3-1 11.7-1.6 23.3-.6 11.5-1.3 23.8-1.7 27.2l-.6 6.3 13.4.1c10.4.1 12.3.3 8.4.9-2.7.5-8.7.9-13.2.9l-8.2.1-.5 5.2c-.5 6-2.6 44.9-2.6 49 0 2.6.3 2.8 4.4 2.8 6.3 0 40-4 40.7-4.8 1.4-1.5 5.7-49.7 4.6-50.9-.4-.3-3.2-.8-6.2-1.1-7.6-.6-6.9-2.2 1-2.2h6.4l.5-3.3c.3-1.7 1.5-12.7 2.6-24.2 1.1-11.6 2.3-23.4 2.7-26.3l.6-5.2H695zM746.7 5.7c-.4 3.2-1.4 12.8-2.2 21.3-.9 8.5-1.9 18.9-2.4 23s-.5 7.9 0 8.4c.4.5 6.6 1.1 13.6 1.4 9.7.4 12.1.7 9.8 1.4-1.6.5-7.3.6-12.5.3s-10.1-.1-10.8.3c-1.5 1-2.4 7.5-4.7 33-1.4 16.6-1.4 19.8.5 18.7.4-.2 6.8-.8 14.1-1.1 7.4-.3 16.1-.9 19.4-1.3l6-.6 1.2-7.5c2.4-14.4 5.4-39.1 4.8-40-.4-.6-2.5-1-4.7-1-5.1 0-4.5-.8 1.3-1.8l4.3-.7 1.2-8.5c.7-4.7 2-14.4 2.9-21.5.9-7.2 2.1-16.1 2.6-19.9.6-3.8.7-7.6.5-8.3-.4-1-5.2-1.3-22.4-1.3h-21.9zM794.2 4.2c-2.1 8.5-6.5 42.8-6.6 51.7-.1 5.2.2 5.3 14.8 7.2 6.5.9 8.4 1.4 7.1 2.1-1 .6-2.6.6-4.3-.1-1.5-.6-6.3-1.2-10.7-1.3l-8-.3-.7 4.5c-3.2 20.3-5.5 40.6-4.8 41.4 1 1 30.2.9 35.7 0 3.6-.7 3.5-.4 5.7-15.9 3.4-23.7 3.3-25.5-1.9-26.8q-1.95-.45 1.2-.6c2-.1 3.6-.8 4.2-1.9.5-1 1.6-7.1 2.5-13.6.8-6.5 1.8-12.1 2.2-12.5.3-.3.4 1.4 0 3.9-1.5 11.8-1.9 24.2-.6 25 .9.6.7 1.5-1 3.8-2.4 3.2-4.6 16.5-5.2 31.2l-.3 7.4 4 .7c2.2.4 9.2 1.3 15.6 1.9 12.8 1.3 15.4.8 16.2-3.2.4-2.1.4-2.1.6.3 0 1.4 1.2 3.6 2.6 4.9 2.5 2.4 2.5 4.3 0 3.4q-1.35-.6-2.1 2.1l-.7 2.7-1.3-3c-.9-2.3-2-3.2-4.6-3.6-7.2-1.1-16.7-1.9-23.8-2l-7.5-.1.1 4c.2 12.6 1.5 29.5 2.3 31.8l1.1 2.7h17c17 0 17 0 17-2.3 0-2.2 0-2.2 2.3.5 1.2 1.4 3.6 3.3 5.2 4.1 5.7 2.8 21.8 7.8 23.3 7.2 1.2-.5 1.4-2.1.9-10.3-.7-11.3-.5-11.1 2.2 2.1 1.4 7.1 2.6 10.6 4.5 12.8 1.4 1.7 2.6 3.4 2.6 3.9s1.2 2.1 2.8 3.7c1.5 1.6 3.5 3.9 4.4 5.1 1 1.2 2.5 2.2 3.3 2.2 1.2 0 1.5-1.6 1.5-8.9 0-5-.4-9.2-.9-9.5s-1.2-2.3-1.6-4.3c-.4-2.1-1.3-5-2.1-6.6-1.4-2.5-1.3-3 .6-5.4 1.1-1.4 2-4 2.1-5.7s.4-4.2.8-5.6c.6-1.9.9-.6 1.5 5 .4 4.1 1.1 7.9 1.4 8.5.4.5.8 1.9.9 3 .4 2.9 2.3 9.7 3.4 11.7.5 1 .9 2.9.9 4.3 0 3.1 2.5 3.3 3.4.2 1.2-4.4.6-25.1-.8-27.8-1.7-3.2-2.8-7.4-3.2-12.1-.5-5.5-3.1-10.1-5.5-9.5-1.1.3-1.9 0-1.9-.8 0-.7-.7-1.8-1.5-2.5s-1.5-2.9-1.5-4.9-.5-4.2-1.1-4.8c-1.5-1.5-.4-4.5 2.2-6.1 2.5-1.6 3.9-.3 3.9 3.6 0 1.2.9 4 2 6.2s2 4.6 2 5.5c0 3.4 5.4 14.8 8.1 17.4 2.3 2.1 3.1 3.9 3.9 9.1 1.3 8.7 2.9 16.2 3.5 16.9.3.2 1.1-.1 1.7-.7 2.6-2.6 1.7-24.6-1.7-41.2-.2-.8-.4-2-.4-2.7-.1-.7-.7-1-1.5-.7-1.9.7-2.7-1.9-3.3-11.1-.4-6-.1-9.2 1.2-13 3.7-11 .6-36.5-6-49.2-.8-1.5-1.5-3.3-1.5-3.9s-.6-1.7-1.4-2.3c-2.2-1.8-2.8 1-3.4 14.3-.4 11.5.9 22.6 2.7 22.6.5 0 1.1 1.2 1.4 2.7.3 1.6.9 3.6 1.2 4.5.4 1 .3 1.8-.3 1.8-.5 0-1.2-1-1.6-2.3-.6-2.6-4.8-5.6-5.4-3.8-.7 2.1-2.2 0-2.2-3.2 0-1.8-.6-5.6-1.3-8.4-1.3-4.8-1.2-5.3.6-7.1 1.5-1.6 2.2-4.3 2.9-11.9 1.1-11.8.6-19.7-2-28.1-1.9-6-1.9-6.2-.2-6.2 2.3 0 3.5-3.3 2.1-5.9C914 .2 912.8.1 892 0h-22l-.1 2.7c0 1.6-.4 3.7-.9 4.8-.6 1.5-.9.8-.9-2.8L868 0h-15c-17.1 0-15-1.5-17 11.6-.6 4-1.7 9.1-2.5 11.5l-1.3 4.4-.7-4.8c-.4-2.6-1.4-5.1-2.3-5.6-1.3-.7-1.2-1 .7-1.6 2.5-.8 3.6-3 4.9-10.4l.9-5.1h-40.4zm98.7 70.5c.1 2.8-.3 5.5-.9 5.8-.5.3-1 2.1-1.1 3.8-.1 3.1-.1 3.1-.9.7-.5-1.4-1.1-4.2-1.5-6.3-.7-4.1-1.7-4.5-6.7-2.2-1.8.7-6.8 2.7-11.1 4.2-6.8 2.4-7.9 3.2-8.4 5.5-.3 1.6-1 2.8-1.6 2.8s-.8-3-.5-7.8c.5-9.5 2.1-12.8 2.8-6.2.5 4.5.5 4.5 4 4.2 4-.3 12.2-2.8 16.3-4.9 1.9-.9 2.7-2.1 2.7-3.9 0-1.4.4-2.3 1-1.9 1.1.7 3.9-4.5 4.1-7.7.3-3.4 1.7 7.9 1.8 13.9M919.6 1.6c-.9 2.3-.7 6.2.3 6.8.5.4 1.2 4.1 1.6 8.4.8 8.1 2.3 12.5 5.5 16 1.1 1.2 2 3.3 2 4.8 0 4.3 1.3 1.9 2.1-3.9.9-6.6-.4-13.9-4.2-23-1.6-4-2.9-8-2.9-9 0-2.2-3.6-2.3-4.4-.1"/><path d="M945 1c0 .5-.7 1-1.5 1-1.1 0-1.5 1.3-1.5 5.5 0 3 .4 6.4.9 7.7s1.4 4.8 2 7.8c.7 3 2.3 10.4 3.7 16.5 4.8 21 6.3 28.1 9 44 1.4 8.8 3 18.2 3.5 21 .5 2.7 1.3 10.8 1.9 18 .5 7.1 1.4 17 1.9 22 1.3 11.5 1.5 52.8.3 55.2-1.3 2.5-1.5 24.8-.3 27.2.8 1.4.8 2 0 2.3-2.1.7-4.2 40.8-2.2 40.8.3 0 1.7-.8 3.1-1.8 6.5-4.4 18.9-5.8 25.2-2.9 8.7 4 11 8.4 11 21.2 0 5.3-.4 10.4-.9 11.3s-1.2 7.3-1.6 14.2c-.6 10.2-.5 12.3.6 11.2.7-.7 3.8-1.2 7-1.2 4.7 0 6.3.5 8.7 2.5 1.6 1.4 3 3.1 2.9 3.7-.2 6.2.5 9.1 2.9 11.4 2.4 2.5 2.5 2.8 1.3 8-1.2 5.4-5.5 11.4-8.2 11.4-.8 0-.7.4.3 1 2.5 1.6-9.2 1.2-14-.5-5.2-1.8-8-1.9-8-.2 0 .7-1 2.3-2.1 3.6-1.8 1.9-2 3.1-1.6 6.6.4 2.5.2 4.5-.3 4.7-.6.2-1.6 3.2-2.4 6.8s-2.2 9.9-3.1 14c-4.2 19.6-6.5 40.3-4.8 43.5.9 1.5 1.1 1.4 1.7-1.1 1-3.9 3.8-9.7 5-10.6 1.9-1.3 10.6-.8 13.6.7 1.7.9 3 2.3 3.1 3.3.2 5.1-.3 25.6-.7 26.7-.3.7-1.6 1.8-3 2.5-2.1 1.2-3 1.1-5.9-.3-2-.9-4.6-1.7-5.9-1.7s-3.4-.8-4.7-1.8c-2.9-2.2-7-3.4-8.5-2.4-1.8 1.2-4.4 6.8-4.9 10.9-.2 2.1-1 8.1-1.6 13.3-1 8.2-1.6 9.9-4.1 12.5-1.5 1.7-2.8 3.6-2.8 4.1 0 1.8-9.4 11.1-13.1 12.9-1.9 1-4.2 2.4-5.1 3.3-2.2 1.8-2.4 6.8-.4 7.5 1.7.7 1.1 3.6-2.2 10.2-2.2 4.5-6.2 25.4-6.2 33-.1 2.8-.5 7-.9 9.5-.7 3.2-.6 4.7.3 5.5.7.5 2 2.2 2.9 3.7 1 1.5 3.2 3.5 5 4.4 1.7.9 3.8 2.5 4.5 3.5.7 1.1 1.9 1.9 2.5 1.9.7 0 5 3.8 9.6 8.5 4.5 4.7 8.8 8.5 9.4 8.6.7 0 3.2.1 5.7.1 4-.1 4.2 0 1.5.7-2.8.7-2.7.8 2.2 1.6 6 .9 7 1.7 7.8 6.5.3 1.8 1.9 4.7 3.5 6.4 1.7 1.6 3 3.6 3 4.3s.4 1.3.9 1.3 1.1.7 1.4 1.4q.6 1.5-.9.9c-.7-.3-1.4 0-1.4.7 0 .9-1.1 1-3.7.5-2.1-.4-6.5-.8-9.8-.9-5.1-.1-6-.4-5.7-1.9.4-2.5-8.6-11-36.8-34.6-5.9-4.9-5.9-4.9-8.6 3.6-1.5 4.9-1.5 5.4 0 7.8.9 1.4 1.4 2.5 1 2.5s-.1.6.5 1.4c.8 1 .5 1.9-1.4 4-1.3 1.4-2.9 2.6-3.4 2.6-1.5 0-2.8 2.9-7.1 14.9-10.9 30.7-17.5 46.6-20.5 50.1-.8.8-3.3 5.3-5.6 10s-5.3 9.9-6.6 11.6c-2.9 3.8-2.9 5.6-.1 9.7 5.8 8.2 4 7.7 25 7.7 10.3 0 18.8-.3 18.8-.6 0-1.7-2.4-4.6-4.8-5.8-3.6-1.9-7-9-5.5-11.4s3.7-2.6 7.7-.7c2.4 1.2 3.7 2.6 4.1 4.6.4 1.6 1 2.9 1.5 2.9.4 0 2.7 2.5 5 5.5l4.2 5.5 34.2-.1h34.1l-3-2.2c-5.3-3.8-13.8-13.1-15.2-16.6-.9-2.1-1.2-4.7-.8-6.9.6-3.3.8-3.4 4.3-2.9 2.6.4 4.7 1.8 7.2 4.5 1.9 2.2 4.7 4.7 6.1 5.6 1.5.9 4.2 4.5 5.9 8 2.8 5.4 4 6.7 8 8.5 4.1 1.9 6.5 2.1 20.8 2.1h16.1l1.5-2.9c1.8-3.3 5-4.8 12.7-5.6 5.3-.7 5.7-.5 9.1 2.7 1.9 1.8 3.7 3.9 3.9 4.6.3 1 10.8 1.2 49.9 1l49.5-.3-4.5-2.2c-2.5-1.2-6.6-4.2-9.3-6.7-2.6-2.5-5.7-4.8-6.9-5.2-2.3-.7-3.5-1.5-7.8-5.4-4.4-4.1-8.8-7-10.4-7-.8 0-3.8-2.1-6.8-4.6-2.9-2.5-6.6-5.3-8.3-6.1-3.9-1.9-4.4-5.9-.9-7.5 1.8-.8 2.4-1.8 2.2-3.7-.3-2.4 0-2.6 4.2-2.9 2.5-.2 4.9-.7 5.5-1.3 2.7-2.7 15 2.5 21.4 9.1 3.3 3.4 6.5 5.6 10.7 7.1 3.2 1.2 6.6 2.8 7.5 3.5.8.8 2 1.4 2.6 1.4s1.6.7 2.3 1.6c.8.8 4.5 3.4 8.4 5.6 7.4 4.3 9.9 6.8 10.2 10.3.7 7.1-3.1 9-9.9 5.1-2.4-1.4-5.2-2.6-6.3-2.6-1.9.1-5.4 2.2-5.4 3.3 0 .3 3.1 2.4 6.9 4.7l6.9 4h85.2l-.2-58.7-.3-58.8-5.5-.6c-3.9-.4-7.6-1.8-12.4-4.5-6.6-3.8-6.8-4-6.2-7.3.3-1.8.7-3.6 1-3.8 1.7-1.7 15.1 1.3 21.9 4.8 1.6.9 1.7.2 1.7-8 0-9.1 0-9.1-2.7-9.7-4.3-1-17.5-6.6-20.5-8.6-1.4-1-3.6-1.8-4.8-1.8-1.1 0-1.8-.5-1.5-1 .3-.6-.4-1-1.7-1-7.9 0-25.3-5.5-29.7-9.4-2.1-1.9-8.6-3.6-13.7-3.6-5.7 0-12.4-2.5-16.3-6.1-1.8-1.6-3.8-2.9-4.4-2.8-.7.1-2.3 0-3.7-.3s-5.4-1.1-9-1.8c-3.6-.6-6.9-1.5-7.5-2-.5-.4-2.8-1.3-5-2s-5.7-2.6-7.7-4.2c-3.1-2.4-3.8-3.6-3.8-6.3 0-1.9.5-3.7 1-4 .6-.3 1-1.4 1-2.4 0-2.9 5.2-3.1 11.8-.4 3.1 1.2 7.3 2.3 9.2 2.3s7.5 1.8 12.5 4c5.1 2.3 10.5 4 12.5 4 2.1 0 7.5 1.4 12.1 3.1 10.3 3.9 20.7 6.9 23.4 6.9 1.1 0 5.3 1.6 9.3 3.5s7.4 3.5 7.7 3.5c3.8.4 6.5 1.5 6.5 2.6 0 .8.5 1.4 1 1.4.6 0 1 .4 1 1 0 .5-.7 1-1.4 1-.8 0-2.8 1.4-4.5 3.2-2.5 2.7-2.8 3.5-1.8 5.5.9 2 1.7 2.3 7.1 2.3 6.8-.1 8.8-1.1 10.2-5.4 1.1-3.1 5.4-5.4 10.7-5.5l2.7-.1v-66.3l-2.5-3.3c-1.4-1.8-3.8-3.9-5.3-4.6-3.6-1.8-5.5-8.4-2.9-10.3 1.4-1 2.5-1 4.7-.2 3.8 1.5 4.5 3.5 2.1 6.1l-2 2.2 2.7 2.9 2.7 3 .3-13.5c.2-8.6-.1-13.6-.8-13.8-.5-.2-1-1-1-1.7s-.8-1.6-1.7-1.8c-1.1-.3-.7-.5 1-.6l2.7-.1V58.4l-4.2.6c-4.4.6-12.2-1.5-11.3-3.1.3-.4-.9-1.9-2.7-3.4s-2.7-2.4-2-2c.6.3 1.2.1 1.2-.5s-.7-1.3-1.5-1.6c-2.5-1 2.8-10.1 7-12.1 1.9-.9 3.5-2 3.5-2.5 0-.4.6-.8 1.3-.8s2.3-1.1 3.5-2.5 2.9-2.5 3.7-2.5c1.3 0 1.5-2.2 1.5-14V0h-81.4c-50.2 0-81.7.4-82.1.9-.8 1.4-9.4 7.1-10.6 7.1-.5 0-.9.4-.9 1 0 .5-.6 1-1.2 1-.7 0-2.6 1.8-4.2 4-1.7 2.2-3.5 4-4.1 4-.5 0-3.7 2.7-6.9 6-3.3 3.3-6.7 6-7.5 5.9-2.9-.3-8.1 1.3-8 2.5.3 2.3-.1 3.6-1.1 3.6-.5 0-3.4 2.3-6.4 5.1-6 5.6-9.7 7.9-12.9 7.9-2.7 0-8.7-4.7-8.7-6.9 0-1.8 12.8-14.1 18.4-17.6 1.8-1.1 5.1-3.9 7.5-6.3 2.3-2.3 4.8-4.2 5.4-4.2.7 0 3-1.7 5.2-3.7 2.2-1.9 5.8-5.1 7.9-6.9l4-3.4h-73.7C970.2 0 945 .3 945 1m182 122c.9.6 1 1 .3 1-.6 0-1.4.9-1.8 1.9-.3 1.1-2.7 3-5.3 4.2-2.6 1.3-4.9 2.6-5.2 3-.3.3-3 1.9-6 3.5-9.4 4.8-12.9 7.3-14.5 10.4-1.4 2.7-1.4 3 0 3 .9 0 1.5-.9 1.5-2.1 0-1.7.3-1.9 1.4-1 1.1 1 2.5.9 6.1-.3 8.9-3.1 15-1.1 16.1 5.2.3 2 1.3 4.7 2 5.9.8 1.3 1 2.3.5 2.3s-1.2-.8-1.6-1.9c-.3-1-1.3-2.6-2.3-3.4-1.5-1.4-2.2-1.4-4.3-.3-1.4.7-4.5 1.6-6.8 2-4.9.8-10 3.2-11.8 5.5-.7.9-1.3 3.4-1.3 5.7 0 3.5.5 4.5 3.9 7.2 3.8 3.1 3.8 3.1 2.8 7.2-1 3.5-1.5 4-3.6 3.8-2-.3-2.7-1.2-4-5.8-.8-3-2.1-6.1-2.8-6.8-1.7-1.8-1.6-6.8.2-13.9.8-3.1 1.5-6.8 1.5-8.1 0-2.4-.2-2.4-4.6-1.8-2.5.3-6.7 1.6-9.2 2.9-6.2 3.1-12.4 6.7-13.9 7.8-.6.6-2.5 1.4-4.1 1.9-2.4.6-3.4.4-4.6-.9-.9-1-1.6-2.4-1.6-3.1 0-1.5 6.9-8 8.5-8 .6 0 2.6-.8 4.5-1.8 1.9-1.1 4.9-2.2 6.5-2.6 1.7-.4 5.3-2.3 8.2-4.2 2.8-1.9 6.4-3.4 8-3.4 2.4-.1 11.1-3.8 9-4-3.3-.1 8.9-7 15.8-8.9 2.2-.6 4.7-1.5 5.5-2.1 1.9-1.2 5.1-1.2 7 0m-8.9 47.2 3.1 2.3 1.9-2.4c2.6-3.1 6.6-2.2 7.4 1.7.4 1.5 1.5 5.2 2.6 8.2s2.5 7.2 3 9.2c.5 2.1 2.5 6.3 4.5 9.3 1.9 3.1 4 8.1 4.7 11.1 1 5.1 1 5.8-1.3 10-2.8 5.2-6.4 8.1-10.9 9-1.7.4-3.1 1-3.1 1.4 0 .5-3.3 1.1-7.4 1.5-6 .6-7.8.4-9.9-1-2.6-1.7-5.7-8-5.7-11.6 0-1.2-.7-3.4-1.5-5s-2.2-4.2-3-5.7c-2.7-5.3.3-9.1 9.8-12.7 5.6-2.1 5.8-2.3 5.9-7.6 0-2.7-.6-4.8-1.9-6.2-1.1-1.2-2.3-3-2.6-4-.4-1-1.7-1.7-3.2-1.7-3.6 0-3.2-3 .8-5.7 1.8-1.1 3.3-2.2 3.5-2.2.2-.1 1.7.9 3.3 2.1m-117.9 58.1c1.3 2 .9 5.4-.8 6.8-.9.7-3.6 1.2-6.2 1.1-4.3-.2-5.2.2-11 4.9-5.1 4.2-7 5.2-10.3 5.3-3.2 0-4.5-.5-6-2.3-2.4-3-2.4-4.2.1-4.8 1.1-.3 2-1 2-1.6 0-1.5 3.2-3.6 5.6-3.7 2.7 0 9-2.6 9.9-4 .3-.5 2.1-1 3.8-1 1.8 0 4.1-.7 5.2-1.6 2.2-1.6 6.4-1.1 7.7.9m182.2 72.3c1.9.7 2.1 5.7.4 7.2-2 1.5-14.5 2.9-41.3 4.8-3.8.3-10.1 1-14 1.6-11.5 1.7-23.4 2.1-24.9.9-1.9-1.6-1.7-6 .3-7 2.4-1.3 14.4-2.5 25.4-2.6 5.9-.1 10.1-.5 10.5-1.2.4-.6 3.6-1.1 7.2-1.2s12.1-.7 19-1.5c16.5-1.7 15.6-1.7 17.4-1m-29.8 158.3c.5.5 4.5 1.5 8.9 2.1 9 1.3 9.6 1.4 18 3.3 4.3.9 6 1.7 6 2.9 0 2.7.8 2.9 7.6 1.9 6.1-.8 6.7-.7 13.2 2.5 5.6 2.9 6.7 3.8 6.7 5.9 0 2-.5 2.5-2.6 2.5-1.4 0-3.3-.4-4.2-.9-2.3-1.2-7.5-2.2-14.2-2.8-3-.3-6-.9-6.7-1.5-.7-.5-4.9-1.2-9.3-1.5-4.5-.3-7.7-.9-7.1-1.3 2-1.1-8.3-3.9-14.8-3.9-4.5 0-6.9-.5-8.2-1.7-3.6-3.2-1.7-8.3 3.2-8.4 1.4 0 2.9.4 3.5.9m90.6 19.6c3.9 1.4 8.2 3.2 9.5 4 2.1 1.4 2.2 1.7.8 3.1-.8.9-1.2 2-.9 2.6.7 1.2-9.1.1-11.7-1.3-.8-.4-3.9-1.1-6.7-1.5-6-.8-9.5-3.7-8.5-7.2.5-1.9 1.2-2.2 5.4-2.2 2.7 0 8.2 1.1 12.1 2.5m-83.7 1.9c8.8 1.4 18.5 4.2 19.5 5.6.3.4 3.6 1 7.3 1.4 7.7.8 17 3.9 20.7 7l2.5 2-2.5 2.5c-2.1 2.1-3.4 2.5-8 2.4-5.5-.1-11.9-1.4-16.9-3.6-2.6-1.1-7.3-2.1-22.6-5.2-11.1-2.2-16.9-5.2-17.3-8.8-.5-4 1.5-6 5.2-5.3 1.7.3 7.2 1.2 12.1 2M1084 626c5.2 3.3 10.4 6.9 11.5 8 1.2 1.1 5.7 3.8 10.1 5.9 7.7 3.7 10.7 6.1 11.6 9 .2.8 2.6 2.2 5.3 3 2.8 1 5.6 2.7 6.8 4.3l2 2.6-2.3 3.6c-1.2 2-1.9 4.4-1.6 5.2.4 1-.1 1.8-1.4 2.1-1.8.5-3.7 3.7-3.2 5.5.3 1.1.1 1.1-4.9-1.3-5.3-2.6-6.6-4.2-7.5-9.4-1.1-6.5-2.6-8.7-8.4-11.7-1.4-.7-4.5-2.9-6.8-5-2.4-2-6.9-5.2-10-6.9-12.7-7.2-15.9-8.8-16.6-8.4-.3.3-.4.2-.2-.1s-.2-2.2-1.1-4.1c-.8-2-1.2-4.6-.9-5.9.5-2 1.3-2.4 4.4-2.4 3 0 6 1.4 13.2 6m120.8 52.2c1.1 2.9 2.5 7.2 3.2 9.5.7 2.4 1.6 4.3 2 4.3s2.3-4.3 4.1-9.5c2.5-7.2 3.8-9.5 5.1-9.5 1 0 1.8.2 1.8.4s-1.4 4.2-3.1 8.8c-1.7 4.5-3.8 10.2-4.6 12.5-1.7 4.5-4.6 5.9-5.6 2.5-.3-.9-2.3-6.8-4.6-13-3.7-10.3-3.9-11.2-2.2-11.2 1.4 0 2.5 1.4 3.9 5.2m30.5 4c1.4 1.3 2.8 3.5 3.1 5l.6 2.8h-6.9c-3.8 0-7.2.4-7.6 1-.3.5.3 1.8 1.5 3 2.1 2.1 6.4 2.7 7.5 1 .8-1.3 4.5-1.3 4.5-.1 0 1.8-4.4 4.1-7.8 4.1-4.8 0-9.2-4.6-9.2-9.5 0-7.7 8.9-12.2 14.3-7.3m22.8.7c4 4.1 4.1 9.9.2 13.6-9 8.3-21-4.9-12.4-13.6 2-2 3.9-2.9 6.1-2.9s4.1.9 6.1 2.9"/><path d="M1121.6 177.5c-1 2.7.6 7.9 3.4 11 2.6 2.9 4.1 8.1 4.4 16 .1 2.5-.4 3-3.4 3.9-1.9.5-4.2 1.8-5.1 2.8s-2.9 1.8-4.5 1.8c-2.8 0-2.9-.2-2.6-4 .4-3.6.2-4-1.9-4-3.1 0-4.4 1-5.1 3.7s1.1 10.3 2.8 12c1.6 1.6 21.5 2.5 25.4 1.1 2.3-.7 3.4-2.2 5-6.4 2.2-5.9 2.5-8 1.2-8.6-.8-.3-11.7-22.1-14.1-28.1-1.2-3-4.5-3.7-5.5-1.2M358.7 2.6c-.2.5-1.3 3.8-2.2 7.4-1 3.6-2.1 6.9-2.5 7.5-.8 1-2.4 8.2-3.8 17-1.8 11 1.9 9.6 6.6-2.5.7-1.9 1.8-5.4 2.4-7.8.5-2.3 1.4-4.2 2-4.2.7 0 .9-2.5.5-7.4-.5-7.3-1.9-11.8-3-10M359.6 34.5c-.9 1.3-1.6 3.1-1.6 3.9s-.4 1.8-1 2.1c-.5.3-1 1.6-1 2.8-.1 2.4-3.8 10.9-4.1 9.2-.5-3-1.7 10.6-1.8 20-.1 12.2.9 15.8 3 10.9.7-1.6 2.1-3.7 3.1-4.7 1.7-1.7 1.8-1.7 1.8.3 0 1.1-1.2 4.4-2.6 7.3-3.3 6.4-4.1 14.7-2.4 24.2.7 3.9 1.5 9.7 1.7 13 .5 6.6 1.7 9 2.8 5.4.4-1.3 2-5.1 3.5-8.4 6.3-13.5 7-20.2 4.5-41-.7-6.6-1.4-19.1-1.4-27.8 0-19.8-.8-22.9-4.5-17.2M559.6 60.7l-20.9.3.7 8.8c.4 4.8 1.6 16.3 2.7 25.7 1 9.3 1.9 17.3 1.9 17.6s2.8.9 6.3 1.2c3.4.4 12.3 1.3 19.7 2.2 7.4.8 15 1.5 16.9 1.5h3.4l-.7-11.3c-.4-6.1-.9-15.3-1.1-20.2-1.5-25.9-1.6-26.7-6-26.3-1.1.2-11.4.4-22.9.5M668.8 62.1c-.9.5-7.7 1.1-15 1.2l-13.3.2-.3 28.4c-.3 30.5-.3 30.4 4.8 29.5 1.4-.2 10.8-.8 20.9-1.4 10.1-.5 18.8-1.3 19.3-1.8.9-.9 4.1-53.9 3.4-55.9-.6-1.6-17.2-1.8-19.8-.2M503.9 62.4c-.3.3-2.6.6-5.3.7l-4.8.3.7 7c1 10.8 5.5 39 6.3 39.8s25.1 2.8 34.5 2.8h5.7v-3.7c0-4.2-3.8-41.7-4.5-45.1-.5-2.2-.8-2.2-16.4-2.2-8.7 0-16 .2-16.2.4M474.8 66.1c-7 1-14.6 2.3-16.9 2.9l-4.1 1.1.6 7c.7 6.8 2.7 19.6 4.3 27.4l.8 4 18.3 1.4c10.1.7 18.6 1.1 18.9.8.6-.7-3.1-32.8-4.8-41.5-.8-3.9-1.5-5.2-2.7-5.1-.9.1-7.4 1-14.4 2M346.5 117.6c-.3 3.3-1.3 8.2-2.2 11-1.3 4.6-1.3 5.4.1 8.9.9 2.1 1.6 6.6 1.6 10.1 0 7.1 1.4 8.4 2.8 2.6 2.3-9.2 2.9-19.8 1.8-27.9-1.4-10.7-3.2-12.7-4.1-4.7M780.8 113.1c-.6.4-.8 2.7-.5 5.5.3 2.7 1.1 11.8 1.7 20.3s1.4 15.9 1.7 16.4c.9 1.4 34.5-1.6 37.5-3.4 1-.6 1-4.5 0-19-.7-10.1-1.6-18.7-2.1-19.2-1.1-1.1-36.7-1.6-38.3-.6M459.1 119.2c-.6 3.5-1.2 12.4-1.3 19.8l-.3 13.5 17.7 1.9c9.8 1.1 18 1.7 18.4 1.4 1-1.1 2.2-13.9 2.6-28.3l.3-14-18.1-.3-18.2-.2zM769.9 113.4c-.2.2-8 1-17.3 1.7l-16.9 1.2.7 13.1c1.2 25.7 1.9 34.7 2.6 35.1.4.3 2.9-.2 5.6-.9 2.7-.8 10.1-2.1 16.4-3s13.2-2.1 15.4-2.7l3.8-1.1-.6-12.6c-.3-7-.8-16.9-1.2-22l-.6-9.2H774c-2 0-3.9.2-4.1.4M499.9 115.8c0 .9-.6 10.2-1.3 20.7-.8 12.3-1 19.4-.3 20.2.5.7 2.4 1.3 4.1 1.3s6.9.7 11.6 1.5c15 2.7 23 3.7 24.4 3.2.9-.4 1.4-2.9 1.5-8.3.1-4.3.4-8.1.6-8.4.2-.4.5-7.1.6-15.1l.1-14.4-3.3-.6c-1.9-.4-11.2-.9-20.6-1.3-16-.5-17.3-.4-17.4 1.2M544.6 117.2c-.6 2.1-2.5 46.1-2.1 46.9.5.7.7.8 25.4 5.5 10.1 1.9 18.7 3.1 19.1 2.7.6-.7 3.1-41.4 3-49 0-2.4-1.3-2.7-15.5-3.7-3.9-.3-11.9-1.2-17.9-2.1-6-.8-11.1-1.5-11.3-1.5s-.5.6-.7 1.2M722.9 117.4c-.4.4-15.8 2-29.2 3-2.6.2-5.1.6-5.4.9-.5.6 1.6 50.7 2.3 51.8.4.7 11.7-1.1 30.9-4.9l14-2.8-.1-11.6c-.1-6.3-.5-17.2-.9-24.2l-.7-12.6h-5.2c-2.9 0-5.5.2-5.7.4M362.8 126.4c-4.1 8.2-8.4 39.5-5.7 41.1.5.4 1.2-.2 1.5-1.2s1.8-5 3.4-8.8c1.6-3.9 3.3-8.8 3.9-11 1.4-5.7 1.8-24.7.6-25.2-.6-.2-2.3 2.1-3.7 5.1M683.9 121.5c-.3.2-9.9.9-21.4 1.4-11.4.6-21.2 1.4-21.7 1.9-.4.4-.7 12.9-.6 27.7l.3 26.9 5-.2c7.1-.4 36.7-4 40-4.8l2.8-.7-.7-16.1c-1.4-33.4-1.8-38-3.7-36.1M591.7 132.6c-.4 6-1 17.7-1.3 26l-.7 15.2 3.9.6c2.1.3 12.2 1.5 22.4 2.6s19.3 2.2 20.3 2.4c1.6.4 1.7-1.4 1.7-27.5V124l-3.2-.2c-1.8 0-4.4-.2-5.8-.3s-10.2-.5-19.6-1l-17.1-.7zM419.3 156c-2 .8-2.3 1.7-2.3 6 0 2.7-.4 5-1 5-1.7 0-1.1 2.4.8 3.7 1 .6 5.6 1.4 10.3 1.7 17.9 1.3 22.4 1.6 21.1 1-.9-.4-.6-1 .8-2.2 1.7-1.3 2.2-3.1 2.5-8.3l.4-6.7-3.1-.6c-4.6-.9-27-.6-29.5.4M812 156.1c-3.6.4-10.9 1.1-16.2 1.5s-10 1-10.5 1.3c-1.1.7-.2 21.6 1 22.7.9.9 24.9-3.1 32.6-5.5l5.6-1.7-.2-5c-.4-8.1-2.3-14.4-4.1-14.2-1 0-4.6.5-8.2.9M826.4 162.1c1.2 12.7.7 12.2 9 11.5 3.9-.3 11.9-.8 17.7-1.2 5.9-.3 11.1-.9 11.7-1.3.8-.5.3-3-1.6-8.1l-2.8-7.5-17.3-.3-17.4-.2zM456.6 157.2c-.2.7-.9 4-1.5 7.3s-1.4 7-1.7 8.2c-.5 1.9 0 2.3 3.3 3.2 5.4 1.5 34.5 7.2 34.9 6.9.3-.4 2.1-17.3 2.2-20.5 0-1.3-.3-2.5-.7-2.7-1-.6-28-3.6-32.6-3.6-2 0-3.7.5-3.9 1.2M865.7 157.6c-.8.8 2.2 7.3 4.8 10.3 2.7 3.1 12 7.7 17.5 8.6 2.5.4 4.8 1.2 5.1 1.8.4.5.5-1.2.2-3.9-.3-3-1.4-5.8-2.7-7.3-2.4-2.8-10.8-6.7-18.4-8.7-6.1-1.6-5.7-1.6-6.5-.8M405 159.7c-12.6 4-14.4 4.9-17.2 8.4-2.3 2.9-2.7 4.1-2.2 6.8.5 2.5 1 3.1 2.3 2.5.9-.4 3.4-1.3 5.6-2 2.2-.8 4.8-1.9 5.7-2.4 1-.6 3.4-1 5.3-1 4 0 7.8-3.1 6.9-5.5-.4-.8.1-2.6 1-4 3.2-4.8 1.2-5.6-7.4-2.8M496.6 162.2c-.3 1.3-.6 6.7-.6 12v9.7l12.3 4c15.7 5.1 28.6 8.6 29.2 7.9.3-.3.6-7 .8-14.9l.2-14.3-4-.8c-16.4-3-33.4-5.8-35.1-5.8-1.4 0-2.4.8-2.8 2.2M756.2 163.8l-17.4 3.6.4 14.2c.1 7.8.6 14.5 1 14.9.7.8.2.9 23.8-6.6 9.1-2.9 17.1-5.7 17.8-6.2.7-.6 1.1-2.1.8-3.6-.3-1.4-.8-6.5-1.1-11.4l-.7-8.7-3.6.1c-2.1.1-11.5 1.7-21 3.7M541.8 179.4c-.1 6.9-.2 14-.2 15.8-.1 3.2.1 3.3 10.9 7.9 6.1 2.5 14.4 6.2 18.5 8.2 7.4 3.5 14.9 6.7 15.6 6.7.3 0 .3-9.5.2-21.2l-.3-21.1-14-2.9c-7.7-1.5-17-3.2-20.6-3.8-3.6-.5-7.4-1.2-8.3-1.6-1.4-.5-1.6.8-1.8 12M711.9 172.5l-20.4 4-.3 21.2-.2 21.3 5.7-2.6c3.2-1.4 7.9-3.4 10.5-4.5 2.6-1 5.5-2.3 6.5-2.9 1-.5 6.1-2.8 11.3-5.1s10.1-4.6 10.8-5.2c1.3-1.1 1.6-10.7.6-23-.6-6.3-1-7.5-2.4-7.4-.9 0-10.9 1.9-22.1 4.2M589.7 176.7c-.4.3-.7 10-.7 21.4v20.7l6.8 1.2c3.7.6 8.7 1.8 11.2 2.5 2.5.8 6.5 1.7 8.9 2 2.3.4 5.3 1 6.5 1.4 1.1.5 4.4 1.1 7.1 1.5 2.8.4 5.8.9 6.8 1.2 1.6.5 1.7-1.1 1.7-22.9v-23.5l-6.2-.7c-3.5-.4-14.2-1.8-23.8-3.1s-17.5-2.4-17.6-2.4c0 0-.4.3-.7.7M671 178.6c-15.7 1.9-27.2 3.5-29.1 4-1.5.4-1.6 2.7-1.4 21.2.2 11.4.4 21.5.4 22.5.1 2.8 6.3 2 7.1-.9.4-1.7.9-2 2.5-1.3 1.2.4 1.4.8.6.8-1 .1-1.1.4-.5 1 1 1 12.5-.7 28.1-4.1l9.2-2 .6-6.2c.3-3.3.5-12.9.3-21.1l-.3-15-3-.1c-1.6-.1-8.2.4-14.5 1.2M821.5 177.6c-4.3.9-29.2 6.5-32 7.2-2.5.7-3 1.3-2.8 3.8.1 3.8.8 10.4.9 10.4.4 0 18.2-7.3 22.2-9.1 2.6-1.2 6.1-3.1 7.7-4.4 1.7-1.2 4-2.5 5.1-2.9 1.4-.4 2.2-1.5 2.2-3.1 0-1.4-.3-2.4-.7-2.4-.3.1-1.5.3-2.6.5M455 178.8c0 .5 1.4 1.5 3.1 2.2 1.9.8 2.8 1.8 2.5 2.7-.4.9 3.7 3.4 14 8.3 8 3.9 15 7 15.5 7s1-2.3 1.1-5c.1-2.8.2-5.8.2-6.7.1-1.4-1.6-2.1-8.4-3.5-4.7-1-11.4-2.4-15-3.2-11.4-2.6-13-2.8-13-1.8M776.5 188.1c-2.7.9-11.9 3.8-20.3 6.5-14 4.4-15.3 5-14.8 6.8.3 1.2.6 2.9.6 3.9s.5 1.5 1 1.2c.6-.4 1 .7 1 2.5 0 2.2.4 2.9 1.3 2.4.8-.5.8-.2-.2.9-1 1.3-1 1.7-.1 1.7 1 0 .9.4-.1 1.6-1.2 1.4-.9 1.4 2.6-.1 2.2-.9 8.1-3.2 13-5.2 5-1.9 9.5-3.8 10-4.3.6-.4 2.6-1.3 4.6-1.9 3.9-1.3 4.9-3 4.9-8.9 0-1.8.5-4.2 1.1-5.3 1.7-3.2.7-3.6-4.6-1.8M497.4 192.4c.6 3 1.5 5.8 1.9 6.2s.7 1.5.7 2.5c0 1.1 1.3 2.2 3.8 3 2 .6 7.3 2.9 11.7 5 8.1 3.8 15.4 6.9 16.2 6.9.2 0 .2-.4-.1-.9s.1-1.2 1-1.5c1.2-.4 1.5-.2 1.1.9-.4.8-.2 1.7.3 2 .6.4 1.1.3 1.1-.2.5-3.3.9-7.3 1.2-10.3.1-1.9.6-4.1 1-4.8.6-.8-.5-1.8-3.5-3.2-2.4-1.1-4.8-2-5.4-2-.7 0-7.8-2-16-4.5-8.1-2.5-15-4.5-15.4-4.5-.3 0-.2 2.4.4 5.4M543 201.6c0 .2 2.3 4.2 5 9 2.8 4.8 5 8.9 5 9.1s1.6 2.9 3.5 5.9 3.5 5.8 3.5 6.2c0 .5 2.2 3.3 4.9 6.2l4.9 5.3 1.9-3c1-1.6 3.2-4.6 4.8-6.7 1.7-2 4.5-5.5 6.3-7.8 1.7-2.2 3.2-4.3 3.2-4.8 0-.4-2.8-2-6.2-3.5-3.5-1.5-8.5-3.8-11.3-5.1-9.2-4.3-25.5-11.2-25.5-10.8M730 203.9c-2.5 1-7.2 3.1-10.5 4.6s-10.5 4.8-16 7.3c-5.5 2.4-10.4 4.8-10.8 5.2-.8.7 7.2 12 11.4 16.2 1 1 2.4 2.7 3.3 4l1.6 2.2 2.4-2.3c1.4-1.3 3.4-4.2 4.6-6.5 1.1-2.2 3-5.5 4.1-7.1 3.3-4.8 14.9-24.8 14.7-25.1-.2-.1-2.3.6-4.8 1.5M735.9 205.8c-2.8 3.8-5.5 8.5-9.6 16.2-1.3 2.5-3.5 6.2-4.9 8.3-1.4 2.2-1.9 3.5-1.2 3 6.9-4.3 13-8.7 16.2-11.5l3.8-3.3-1-6.8c-.6-3.8-.8-7.5-.5-8.3.9-2.3-.1-1.6-2.8 2.4M539.6 206.1c-1.3 6.8-.7 12.5 1.7 14.6 1.9 1.7 11.5 8.4 15.4 10.7.7.4-1-2.8-3.7-7.1s-6.1-10.4-7.6-13.5c-3.5-7.6-5-8.8-5.8-4.7M870.4 209.7c-1.2.2-2.6 1.4-3.2 2.7-.9 2.1-.7 2.4 2.6 3.8 2.1.9 7.4 2.3 12 3.1l8.3 1.5 1-2.5c.5-1.3.9-2.8.9-3.3 0-1.2-2.7-2-6.8-2-2.5 0-3.3-.3-2.3-.9.9-.6 0-1.1-3-1.6-2.4-.3-5.1-.8-5.9-.9-.8-.2-2.5-.1-3.6.1M591.5 224.1c.3 1.3 1.9 5.8 3.5 9.9s4.6 12.4 6.7 18.5c2.1 6 3.9 10.2 4.1 9.2.4-1.8 2.8-2.2 5.1-.8.9.6 2.3.5 3.5-.1 1.9-1 2-.9.8.5-.8.9-1.2 2.2-1 2.8.2.7 1.7-.6 3.4-2.9 1.6-2.2 5.4-7.4 8.4-11.4 6.4-8.4 12.4-17.7 11.9-18.2-.4-.4-16-3.6-34.4-7.2-4.4-.9-9.1-1.8-10.4-2.1-2.1-.5-2.2-.3-1.6 1.8M680.5 223.6c-2.7.7-12.6 2.7-21.9 4.4-9.3 1.6-17.1 3.2-17.3 3.4-.3.2.6 2.1 2 4.1l2.5 3.6.6-2.7c.6-2.2.9-2.5 1.7-1.3.7 1.1.9.9.9-.9s-.4-2.2-1.9-1.7c-1.1.3-2.2.2-2.4-.2-.3-.4.8-.9 2.4-1 2.7-.2 2.9 0 2.9 3.2 0 2.4-.6 3.8-2 4.5-1.6.8-1.8 1.5-1 3.5.5 1.4.6 2.5.1 2.5-1.3 0-3.2-2.6-4-5.6-.4-1.5-1.1-2.9-1.7-3.1s-.8 5.4-.6 15.4c.3 14.2.5 16 2.3 17.5 2.4 2.1 2.4 4.6-.1 7.3l-2 2.1 8-1.2c4.4-.6 8.6-1.6 9.4-2.3 1.1-.9 1.5-.9 1.8 0 .4 1.3 4.1-3.9 4.1-5.8 0-.7.2-1.1.4-.9.3.2 2-1.2 3.8-3.1s3.8-3.2 4.4-2.9c.6.4 1.1-.1 1.1-1.1 0-1.1.4-2.3.8-2.9.5-.5 3.3-8.1 6.2-16.9s5.7-16.5 6.1-17.1c.5-.6.6-1.4.2-1.7-.7-.8-.4-.9-6.8.9M586.6 236.2c-2.9 20.1-3.3 23.9-2.4 24.4.4.3.8-.4.8-1.5 0-2.8 1.7-3.5 2.3-.9.4 1.2.1 2.5-.4 2.9-.8.5-.8.8 0 1.3.5.4 1.9.1 3-.5 1.5-1 2.5-.9 5.2.4 1.9.9 2.8 1.7 2.1 1.7-.8 0-1 .5-.6 1.2.5.8.2.9-.9.5-3.6-1.4-1.4.9 2.4 2.5 3.5 1.5 3.9 1.5 2.8.2-.7-.9-1.4-2.2-1.5-3-.2-1.1.2-1.1 1.8-.3 1.8 1 2 .9 1.5-.6-.4-.9-.7-2.1-.7-2.6 0-.6-.5-.7-1.2-.3-.7.5-.8.3-.3-.5.9-1.6-1.4-10.3-2.6-9.5-.5.3-.6-.1-.3-.9.2-.7-1.5-6.7-3.9-13.3-2.5-6.5-4.6-12.5-4.8-13.2s-1.3 4.7-2.3 12M687.8 228.1c-.9 2.4-3.3 9.8-5.3 16.4s-4.8 15.3-6.1 19.4-2.3 7.5-2.1 7.6c.1.1 1.8-.7 3.7-1.7l3.5-1.9-3 .5c-1.6.3-2.4.3-1.7 0 .6-.3 1-.9.7-1.3-.2-.5.2-1.7 1-2.7 1.3-1.8 1.4-1.8.9.3-.8 3 2.5 3.8 7 1.6 2-.9 3.6-2 3.6-2.4s.9-.9 2.1-1.2c1.6-.4 1.9-.9 1.1-2.4-.6-1-1.3-7-1.6-13.3l-.6-11.5 2 9c1 4.9 2 10.5 2.2 12.2.1 1.8.5 3.3.9 3.3 1.5 0 1.6-2.9.3-10-.8-4.1-1.6-9.1-1.9-11-.5-3.5-.5-3.5 1.7 1 1.1 2.5 2.4 7.2 2.7 10.5l.6 6 4.2-5.3 4.3-5.4-3.5-3.6c-1.9-2-3.5-4.1-3.5-4.5 0-1-.8-2-5.5-7.2-2.4-2.7-3.4-3.3-3.1-2 .3 1.1.2 2.6-.3 3.4-.7 1.1-1.1.4-1.6-2.5-.4-2.1-.8-4.3-.9-4.8s-.9 1.1-1.8 3.5M579.1 234.9c-3.3 4.9-6.7 9.1-7.3 9.4-1 .3-1 .7.1 2 .7.9 1.7 1.4 2.2 1.1s.7.1.4.8c-.2.7 1.3 3.3 3.5 5.8 2.9 3.3 3.9 4 3.8 2.5-.4-2.9 1.2-16 2.7-23.5.7-3.6 1.2-6.6 1.1-6.8-.2-.1-3.1 3.8-6.5 8.7M860.8 228.8c-.9.2-2.1 1.6-2.7 3.2-.9 2.8-.9 3 2.7 3.5 2 .4 7.1 1.5 11.2 2.5 8.4 2 10.1 1.6 12.5-2.9l1.4-2.9-3.7-.7c-8-1.7-19.4-3.1-21.4-2.7M636.2 238.8c-1.1 2.5-6.3 9.9-16.6 23.3-3.1 4-3.4 4.9-2.1 5.9.8.7 1.7 2.7 2.1 4.5.5 3 1 3.3 5.1 3.9 2.5.3 5.3.6 6.2.6 1.4 0 1.4-.2.1-1-1.2-.8-1.2-1 .2-1.5 2.5-1 4.2.3 2.7 2.1-.9 1.1-.8 1.4.5 1.4 1 0 1.6-.9 1.7-2.8.2-2.4.2-2.3.9.8.4 2 .8-6.1.9-18.3 0-11.9 0-21.7-.2-21.7-.1 0-.8 1.3-1.5 2.8M622.5 285.2c4.8 4.6 9.3 8.3 9.9 8.3.6.1 1 .5.9 1 0 .6.6 1.6 1.4 2.4 1.3 1.2 1.4 1 1.3-1-.4-4.9.3-5.2 1-.4.6 3.9.7 2.9.6-4.5-.1-9.2-.2-9.5-2.5-9.8-1.5-.2-2.1 0-1.7.7s-.1 1.1-1.3 1.1c-2.2 0-3-2-.8-2.1 1 0-15.7-3.8-17.2-3.9-.3 0 3.5 3.7 8.4 8.2M646.8 280.2l-5.8 1 .1 6.7c.1 5.5.3 6 .9 3.1.4-1.9.8-2.8.9-1.9.1 1.5 1.8 2.5 6.1 3.4 2 .5 5.7-3.1 6.5-6.3.5-2 .8-2.3 1.5-1.2s1.1 1.1 2.4.1c2-1.7 2-3.1.1-3.1-.8 0-1.5-.7-1.5-1.5 0-1.7-2.4-1.8-11.2-.3M930.5 356c-.4.6-1.1.8-1.6.5-.5-.4-.9.5-.9 1.8s-1.2 3.4-2.6 4.8c-2 1.8-2.4 3-2 5.2.8 3.9 3.3 6.2 6.8 6.1 2.3-.1 2.7.2 2.3 1.7-.7 2.2 1.6 5 3.3 4 .6-.3 1.5-4.9 2-10.1.8-8.3.7-9.7-.8-11.1-2.7-2.7-5.8-4-6.5-2.9M359 373.8c0 .7-.6 1.2-1.4 1.2s-3.9 2.3-6.9 5l-5.5 5 1.5 5.3c.9 2.8 1.9 5.4 2.3 5.7s1.1 1.4 1.7 2.4c1 1.8 1.6 1.5 7.7-4.4 3.9-3.7 6.5-6.9 6.1-7.7-.2-.8-.1-1.1.4-.8s1.3.1 1.6-.5c.4-.6.1-.9-.7-.8-.7.2-1.2-.4-1-1.3.2-1.2-.5-1.5-2.7-1.1-2.6.3-3.1 0-3.7-2.2-.4-1.6-.1-3.2.6-4.1s1-1.8.6-2.2c-.3-.3-.6-.1-.6.5M917.3 375.2c-1.8.5-3.3 1.3-3.3 1.8 0 .6-.7 1-1.5 1-2.4 0-3 4.9-1.1 8.5 1 1.8 4.9 6.3 8.7 10.1 6.1 6 7.1 6.7 8 5.1.6-.9 1.7-1.7 2.5-1.7 1.1 0 1.3.8.9 3.3-.4 1.9-.1 5.4.5 7.8.7 2.4 1.1 4.4.9 4.4-.1 0 .3 1 1 2.2 1.7 3.3 2.5 2.9 5.1-2.6 1.9-4.1 2.2-6 1.7-11.1-.6-7.3-2.7-11.1-5.7-10.3-1.8.5-2 .1-2-4.1s-.4-5-4.7-9.2c-6.1-5.8-7.1-6.3-11-5.2M893.2 381.5c-1.7.8-3.2 2-3.2 2.7 0 1.6-4.3 5.8-5.9 5.8-.6 0-1.1.4-1.1 1 0 .5.5 1 1.1 1 .5 0 .8.4.5.9-.4.7 3.3 6.3 5.9 8.9.9.9 4.5-2.5 4.5-4.2 0-1.1.3-1.6.7-1.3.8.8 4.7-4.4 6.4-8.5 1.1-2.7 1-3.2-.6-4.4-1.1-.8-2.8-1.2-3.9-.8-1.5.4-1.7.3-.7-.4 2.3-1.6-.3-2.1-3.7-.7M661.2 396.5c-.2 6-.7 13-1.1 15.5l-.8 4.5-.3-5.5c-.2-3-.3-9.1-.2-13.5v-8l-1.8 6c-1 3.3-2.6 9.6-3.5 14s-2.1 9.4-2.6 11.1c-1.8 6-1.2 6.7 7.8 8.7 3.1.7 3.5-1.9 3.1-24.8-.3-13.5-.4-15.8-.6-8M617.2 408.1l-.1 21.5 4.9-1c3.2-.6 5.2-1.6 5.5-2.7.5-1.4-.8-8.1-6-31.2-.8-3.3-1.7-6.2-2.1-6.5-.4-.4-.4.3-.1 1.5.3 1.3.1 2.3-.3 2.3-.5 0-1-1.2-1.2-2.8-.2-1.5-.5 7-.6 18.9M906 389.4c0 .8-.6 2.1-1.3 2.8-2.2 2.2-8.7 13.8-8.7 15.5 0 3 12.5 20.3 14.6 20.3.8 0 1.4-.3 1.4-.8 0-.4 1.2-2.2 2.8-3.9 4.9-5.6 6.2-7.7 7.4-11.5.6-2.1 1.5-3.8 1.9-3.8 2.1 0-1.3-5.2-8-12.2-7.4-7.6-10.1-9.3-10.1-6.4M710.5 393.2c-1 6.6-1.5 7.7-3 7.2-1.1-.5-1.4.5-1.3 4.3.1 4.6.3 5.1 7.9 12.6 4.9 4.9 8.3 7.6 9 7.1q1.05-.6.6.3c-.7 1.1 4.1 7.3 5.6 7.3.5 0 .6-1.2.3-2.8-.3-1.5-1-8.1-1.5-14.7-1.2-15.2-1.3-15.4-5.8-14.9-5.8.7-7.3-.2-7.3-4.5 0-3.4-1.4-6.1-3.1-6.1-.4 0-1 1.9-1.4 4.2M362.6 395.1c-1.4 1.7-2.6 3.5-2.6 4s-.6.9-1.4.9c-.7 0-2.1 1.1-3 2.5-1.5 2.3-1.5 2.7.4 6 1.1 2 2 5.4 2 7.6 0 3.3.3 4 1.5 3.5 1.1-.4 1.5.1 1.5 1.7 0 1.2.5 2.9 1 3.7.9 1.3 1.3 1.1 3-1 1.1-1.4 2.3-3.5 2.6-4.8.3-1.2 1-2.2 1.4-2.2.5 0 1.8-2 3-4.4 1.2-2.5 2.6-4.6 3.3-4.9 1.7-.5-1.8-7.3-5.9-11.2-1.8-1.8-3-3.5-2.7-3.9.4-.3.1-.6-.4-.6-.6 0-2.3 1.4-3.7 3.1M873.5 394c-.9 1.4-8.6 6.3-10.3 6.6-2.5.4-2.4 1.2.9 7.3 3.7 6.8 6.9 10.5 6.9 7.9 0-.8.6-1.5 1.4-1.5.7 0 4.8-1.5 9-3.3 8.9-3.9 9-4.4 1.9-12.8-4.4-5.1-8.2-6.7-9.8-4.2M565 397.2c-1.4.5-3.3.7-4.3.4-1.2-.3-1.7 0-1.4.8.5 1.4-3.1 1.4-5.2.1-.6-.3-1.1-.1-1.1.5s-.4.8-1 .5c-.5-.3-1 .1-1 1 0 .8-.7 8.1-1.5 16.2-.9 8-1.4 14.7-1.3 14.9.2.2 5.4-4.7 11.6-10.8l11.2-11.1v-6.2c0-6.9-1.2-8.1-6-6.3M600.8 405.5c-.3 3.8-1.3 13.3-2.2 21-1.7 14.5-1.5 18.7.7 15 .7-1.1 1.9-2 2.7-2 1.3 0 1.4-2.4 1.1-17.2-.4-20.2-1.5-27.9-2.3-16.8M584.7 402.6c-1.6 1.4-2.5 2.9-2.1 3.6.5.7.2.9-.7.6-.8-.3-2.4.1-3.4.9-1.7 1.2-1.8 1.5-.5 2.3s1.2 1-.2 1c-2.2 0-2.4 1.9-.3 2.7.9.3 2.2-.2 3-1.3 1.2-1.7 1.3-1.1.8 4.3-.5 5.3-.3 6.5 1.6 8.9 1.1 1.5 2.1 3.5 2.1 4.5 0 1.1.4 1.9.8 1.9.8 0 2.7-30.9 2-31.6-.2-.1-1.6.9-3.1 2.2M691.1 417.1c.1 13.4.3 15.8 1.2 12.9.6-1.9 1.5-3.8 2-4.1.5-.4.6-1.2.3-1.8-.4-.6-.3-1.1.1-1.1 1 0 3.3-5.8 3.3-8.3 0-.9.6-1.7 1.4-1.7 2.6 0 2.5-2.8-.2-5.2-1.5-1.3-3.9-3.4-5.4-4.7l-2.8-2.4zM730.4 409.1c.4 4.6 1.2 12.6 1.8 17.7l1.1 9.3 4.4 3.2c2.4 1.8 6.5 4.8 9.1 6.7 9.2 7 21.2 15 21.2 14.3 0-.4-1.1-4.5-2.5-9.2-1.4-4.8-3-10.4-3.6-12.6-.5-2.2-1.7-6.1-2.4-8.6-.8-2.6-1.5-5.4-1.5-6.3 0-2-1.4-2.1-3.4-.1-1.8 1.9-10.6 4.7-10.6 3.4 0-.4.9-1.3 1.9-1.9 1.1-.5 2.9-2.6 4.1-4.5 2.2-3.5 2.2-3.7.4-5.1-4.5-3.4-8.4-5.5-9.4-4.9-.6.4-.9.2-.8-.3.2-.5-2.1-2.9-5.1-5.3l-5.3-4.3zM545.2 403.3c-.7.8-.8 1.8-.4 2.2.4.5.2.5-.5.2-.6-.4-1.8 0-2.6.8-.9.8-2 1.5-2.6 1.5s-1.1.9-1.1 1.9c0 2.1-1.7 3.7-2.8 2.6-.3-.3 0-1 .8-1.5.9-.6 1-1 .3-1s-1.6.6-2 1.3-2 1.8-3.5 2.4c-1.6.7-2.8 1.7-2.8 2.3 0 .5-.7 1-1.5 1s-1.5.4-1.5.9c0 1.2 4.3.1 5.2-1.3.5-.7 1.4-.4 2.8.9l2 2.1-2.1.1c-4.8.4-3.8 1.9 4.6 7.4 3.6 2.3 6.5 4.6 6.5 5.2s.3.7.6.4c.4-.4.9-3.2 1.1-6.2.3-4 0-5.7-.9-6-2-.8-2.1-5.8-.2-8.1.8-1 1.2-1.3.8-.5-.5.9-.3 1.2.5.7.6-.4.9-1.1.6-1.6s-.1-1.1.5-1.5c1.2-.7 1.3-4.5.1-6.3-.6-1-1-1-1.9.1M851.3 403.7c-2.9.4-3.3.8-3.3 3.4 0 2.8-.2 2.9-4.4 2.9-2.6 0-4.8.6-5.6 1.4-.6.8-1.8 1.2-2.5 1-1.1-.5-1.2.1-.5 2.6.5 1.8 1.1 3.5 1.3 3.7.8.7 29.7.8 29.7.1 0-.4-.5-1-1-1.3-.6-.4-2.6-3.8-4.5-7.6-2-3.8-4.1-6.8-4.8-6.7-.6 0-2.7.3-4.4.5M379.5 408.8c-2.6 2.2-6.3 7.4-9.9 13.5-2.8 5-3 9.7-.3 9.7.8 0 2.4 1.2 3.8 2.6 1.3 1.4 4.2 3.5 6.4 4.6s4.4 2.7 4.8 3.4c1.6 2.8 3.5 1.2 7.2-5.9 2-3.9 4.1-7.7 4.5-8.2.4-.6 1-2.7 1.4-4.7.6-3.3.4-3.8-2.3-5.4-1.7-1-2.8-2.1-2.5-2.6.3-.4 0-.8-.6-.8s-2.4-1.3-4-3c-1.9-1.9-3.6-2.8-5-2.5-1.6.3-2 0-1.6-1 .7-1.9.6-1.8-1.9.3M767.8 408.7c2.1.8 1.3 2.3-1.2 2.3-1.7 0-2.3.5-2.2 1.7s-.5 1.7-1.6 1.5-1.8.3-1.8 1.3c0 .9-.4 1.3-1 1-1.7-1-1.1.5 1 2.7 1.1 1.2 2 1.8 2 1.4 0-.5.7-.2 1.6.5 3.1 2.6 34.4 18.2 35.1 17.5.3-.3-.2-2.8-1.1-5.8-.8-2.9-1.7-6.4-1.9-7.8-.7-3.5-2.9-8-3.9-8-.5 0-.6.6-.2 1.2.5.7-.7.1-2.5-1.5-1.8-1.5-4-2.7-4.9-2.7s-2.6-.7-3.6-1.5c-1.1-.8-3-1.5-4.2-1.5s-3.5-.7-5-1.5c-1.6-.8-3.6-1.5-4.4-1.4-1 0-1.1.2-.2.6"/><path d="M890.1 410.4c-.7.9-1.8 1.6-2.4 1.6-.5 0-1.7.8-2.6 1.8s-3.2 2.9-5.1 4.2c-7.5 5.2-7.6 6.6-.6 19.5 4.4 8.2 5.4 8.9 10 7 1.9-.8 1.9-.7-.1 2.6-1.1 1.9-2.4 4.8-2.8 6.6l-.6 3.2-2.3-2.6-2.3-2.7-14.8 1.7c-8.2.9-15.3 2.1-15.9 2.7-.5.5-.9 2.9-.8 5.3.1 2.3-.2 4.9-.8 5.7-.7 1.2-1 .7-1.1-2-.4-7.4-1.5-9.9-4.7-10.6-1.5-.3-6.3-1.7-10.7-2.9-4.4-1.3-10.5-2.9-13.5-3.5s-7.2-1.6-9.3-2.2c-2.2-.5-4-.8-4.2-.6-.7.7 4.7 24 7.2 31.3 2.8 7.9 2.9 8 12.8 16.3 18 15.1 28.3 23.2 29.4 23.2.6 0 1.1-.9 1.1-2s.5-2 1-2c.6 0 1 .7 1 1.5 0 .9.7 1.8 1.5 2.1 1.6.7 2.1 4.4.6 4.4-.6 0-1.1 1.5-1.3 3.2-.4 4.5-2 4.1-3.6-.9-1.1-3.2-2.9-5.5-7.5-9.2-3.4-2.8-12-9.8-19.2-15.5-7.1-5.8-13.9-10.5-15-10.6-1.1 0-2.5-.8-3.1-1.8-1.4-2-3.6-3.2-21.9-11.2-7.7-3.4-15.1-6.2-16.5-6.3s-3.1-1-3.8-1.9c-1.6-2.1-10.5-9-23.2-18-5.2-3.7-10-7.2-10.7-7.8-.7-.5-1.4-1-1.6-1-.3 0-.5 8.7-.6 19.2l-.2 19.3 10.5 9.8c5.7 5.3 10.7 9.7 11.1 9.7 1 0 32.5 32.5 34.8 36 3.5 5.3 4 6.2 8.1 12.5 2.1 3.3 6.8 10.4 10.3 15.8s6.3 10.2 6.1 10.7c-.5 1.6-2.3-.3-4.7-4.9-3.2-6.2-16.8-27.8-20.5-32.5-6-7.7-23.3-24.9-38.4-38.4-8.4-7.5-16-14.1-16.8-14.5-1.1-.6-1.4.2-1.5 4.5-.1 9.3-1.8 10.2-1.8 1-.1-9.1.1-8.8-8.6-16-2.2-1.8-4.2-2.9-4.7-2.4s-1.2 3.5-1.5 6.7c-.5 4.5-.3 6 .9 6.9.8.6 1.5 1.5 1.6 2.1.1 1.5 10.5 11.5 12 11.5.7 0 1.1.4.8.9-.3.4 1.8 4.6 4.6 9.2s6.1 10.2 7.2 12.4c6.4 12.4 24.1 32.7 31.8 36.3 2 .9 4 2.5 4.5 3.4 1.1 2.3 13.4 12.1 20.9 16.6 4.5 2.6 6.5 4.6 7.9 7.6 3.7 7.7 14.7 25.2 16.7 26.5 1.5.9 2.3.9 3.3.1 1.2-1 1.3-.5.8 2.7-1.2 8 .6 30.1 3.6 42.7 1 4.5 2.2 10.5 2.6 13.3.4 2.9 1.1 5.5 1.6 5.9.5.3.9 1.2.9 2.1 0 1.3-.3 1.3-1.5.3-1.3-1.1-1.5-.5-1.6 4.6-.1 5.2-.2 5.5-1 2.9-.5-1.7-.9-4.1-.8-5.5.3-3.5-1-6-2.7-5.3-2 .7-1.8-3.1.2-5.2 1.8-1.7 1.5-9-.6-19-.6-2.8-1.7-10.5-2.5-17.3s-1.7-12.8-2-13.3c-.4-.5-.9-2.1-1.1-3.5-.5-2.9-13.7-25-18.4-30.9-1.7-2.1-3-4.2-3-4.6 0-.5-2.6-2.5-5.7-4.6-3.2-2-6.9-4.7-8.3-5.9s-4.9-3.8-7.8-5.8c-16.3-11.3-32.7-29.8-42.7-48.2-4.5-8.1-6.1-10.2-7.2-8.9-.5.4-.3 1 .3 1.2.7.2 1 1.2.7 2.1-.6 2.3 2.3 10.2 4.7 12.7 1.9 2 1.9 2.4.5 9.4-.9 3.9-1.3 7.6-1 8 .2.5-.2 1.4-.9 2.1-.8.6-1.5 1.9-1.5 2.8.1.9-.3 4.9-.7 8.8-.4 4.9-.3 7.7.6 9.4 1 1.8 1.4 2 2.1.9 1-1.6 1.1-1.1 1.3 4.8.1 3.4-.2 4.3-1.6 4.3-1 0-2.7 1.4-4 3-3.3 4.5-4.6 2-1.4-2.6 2.8-4.1 3.2-7.3 1.6-10.5-1.1-2-3-2.6-3-.9 0 3-3.7 9.1-6.2 10.1-1.6.6-2.8 1.5-2.8 1.8 0 2.3-4.4 5.1-8 5.1-2.3 0-4 .5-4 1.1s-.7.8-1.6.5c-1.4-.5-1.5-.1-1 2.6.3 1.8 1 6.2 1.6 9.8.6 3.5 1.5 6.9 2 7.4 1.8 1.8 4 1.5 4-.5 0-3.1 1.7-1.3 2.2 2.3.4 2.3 0 3.6-1.4 4.8-1.8 1.5-1.8 1.7.2 11 1.1 5.2 2.2 13.8 2.5 19s.7 10.5 1 11.6c.5 2.4 6.5 4.7 15 5.9 5.7.9 9.4 2.4 5.8 2.5-1.3 0-2.3.4-2.3 1 0 .5-.9 1-2 1-2.9 0-2.5 1.2 2 6.1 3.5 3.8 4 4.1 4.6 2.4.5-1.1.3-2-.4-2.3-.7-.2-1.2-1.1-1.2-2 0-1.3.2-1.4.9-.4.6 1.1 1.1 1 2.4-.3s1.4-2 .5-3.4c-2-3.2-.4-4.9 4.2-4.7 3.3.2 4.4.7 5.3 2.7 1.9 3.7 8.1 6.1 17.7 6.8 7.5.5 8.6.9 9.5 2.8.5 1.2 1.6 2.1 2.5 2.1.8 0 2.5.3 3.8.7 1.5.5 2.2.3 2.2-.6 0-1.9-4.3-7.9-5.7-7.9-.6 0-1.9-1.2-2.8-2.8-1.9-3.1-8.4-7.2-11.5-7.2-2.6 0-6-1.7-6-3 0-2 5.6-.9 12.1 2.5 3.8 1.9 7.5 3.5 8.3 3.5.9 0 1.6.5 1.6 1.1 0 .7 2 3.4 4.5 6s4.5 5.3 4.5 5.8c0 .6.7.8 1.6.4 1.4-.5 1.5.1.8 4.3-.5 2.7-.8 6.5-.6 8.4.6 10.7.4 12.8-1.6 14.8-1.1 1.1-2.3 3.4-2.7 5.1-.6 3-.8 3.1-4.7 2.5-3.4-.6-4.3-.4-5.7 1.4-.9 1.1-2.9 2.2-4.6 2.4-2.6.3-3.2-.2-4.8-3.4-2.1-4.3-2.6-4.4-6.7-2.3-2.3 1.2-2.9 2.1-2.6 3.8.3 1.2.5 2.7.5 3.2.1.6 1.5 1.6 3.2 2.2 3.1 1.2 3.2 1.3 2.6 6.3l-.6 5h18.5c17.6 0 18.5-.1 17.9-1.9-.3-1 .3-3.8 1.4-6.2l1.9-4.4 1.2 3c1.4 3.6 1.5 5.4.5 7.7-.7 1.7.4 1.8 14.6 1.8h15.2l-2.1-2.3-2.2-2.3 2.8-2.7c3.2-3 5-3.4 6.6-1.2.8 1.1 2.1 1.3 4.8.9 3.9-.7 3.7-.4 5.4-11.5.6-3.9-2-11.3-3.8-10.7-1.3.5-4.8 9.6-4.8 12.2 0 1.5-.3 1.7-1.1.9-1.5-1.5.4-18.2 2.1-19.3.8-.5 1.7-5.7 2.4-13.6.6-7.1 1.5-12.4 1.9-11.8.4.7 1 7 1.3 14 .4 8.7 1.2 14.7 2.5 18.5 1 3 1.9 7 1.9 8.8 0 1.9.4 3 1 2.6.6-.3 1-2.6 1-5.1 0-2.4.9-6.3 1.9-8.7 1.1-2.3 2.5-6.6 3.1-9.5.7-3 1.6-5 2-4.5 1.1 1.3-.6 21.4-2.2 26.3-1.4 4.1-1.4 4.8-.1 6.5 1.1 1.4 1.7 1.6 2 .7.3-.6.9-1 1.4-.6.5.3.9-.4.9-1.6s1.3-6 2.9-10.8 3.7-13.8 4.7-20c1.3-8.9 2.2-11.7 4-13.8 1.3-1.4 2.4-3.2 2.4-4 0-.7.4-1.4.9-1.4s1.4-1.4 2-3c.5-1.7 1.3-3 1.7-3 .9 0-.4 16.4-1.7 21.5-2.5 9.5-3 13.5-2 15.3.9 1.5 1 1.4 1.1-.6 0-1.3.4-3.1 1-4.1.5-1 1.4-4.3 1.9-7.2.5-3 1.7-8.3 2.6-11.9 1-3.6 1.9-8.6 2.2-11.3.3-2.6.9-4.7 1.3-4.7.5 0 1.3-2.3 1.9-5 .6-2.8 2.5-8 4.1-11.5 3.9-8.4 7.4-24.4 9.5-43.5.6-5.1 2.7-13.2 6.1-23.8.8-2.3 1.4-5.8 1.4-7.6 0-1.9.6-3.9 1.4-4.5s1.6-2.4 1.9-3.9c.2-1.5 1.4-5 2.5-7.7 2.9-7.1 4.1-11.4 4.8-16.9.7-4.7.7-4.8-1.5-3.5-1.1.8-2.1 2.4-2.1 3.7 0 1.2-.7 2.5-1.5 2.8-.8.4-1.5 1.2-1.5 2 0 .7-1.1 3.9-2.5 7s-2.5 6.7-2.5 7.9-.6 2.8-1.4 3.4c-.8.7-1.2 2.1-.9 3.2.5 1.8-1.9 4.8-3.8 4.9-1.3 0-1.9-3.3-.8-4.6.6-.8.8-2.6.4-4.4-.4-1.9-.3-3 .4-3 .6 0 1.1-.5 1.1-1.1 0-.5-.4-.8-.9-.4-.5.3-.1-1.2.9-3.2 1-2.1 2.9-6.3 4.1-9.3 1.1-3 2.8-6.3 3.7-7.3.8-.9 1.2-2 .9-2.3-.3-.4 0-1.9.8-3.5.8-1.5 1.5-3.9 1.5-5.4 0-2.4.7-2.9 4.1-2.6 1.6.2 2.4-1.1 5.7-8.9 1.6-4 3.4-10.3 3.7-13.5 0-.6.6-1.9 1.2-3 1.3-2.4 2.2-15.5 1.1-15.5-.4 0-.8.9-.8 2s-.4 2-.8 2c-1.3 0-3.2 4.8-3.2 8.1 0 3-2.5 7.9-4.1 7.9-.5 0-.9-.6-.9-1.3 0-.8-.9-2.2-2-3.2-1.7-1.6-1.8-2-.5-3.8 1.9-2.7 2-11.3.1-12.4-1.1-.7-3-11.3-1.9-11.3.2 0 1.3.9 2.5 2 1.4 1.3 2.2 3.6 2.6 7 .6 6.1 2.6 6.7 4.9 1.2.8-2 1.8-3.9 2.2-4.2.3-.3 1.4-3.7 2.4-7.6 2.5-10.1.6-16.8-2.7-9-.8 1.8-1.9 3.7-2.5 4-2 1.3-1.2-4.1 1.5-9.5 2.2-4.3 2.5-6 2-10.3-.3-2.8-1.5-6.9-2.6-9.1-1.1-2.1-2-4.5-2-5.2s-.3-1.3-.6-1.3c-1.4 0-7.1 6.6-9.1 10.5-4 7.8-4.6 9.4-4 11.7.3 1.3 1 4 1.5 6.1 1.4 5.3 0 5.3-2.3 0-1.5-3.3-2.7-4.6-4.7-5-2.7-.5-4-2.3-1.7-2.3 2.5 0-3.8-10.5-11.9-19.9-3.4-3.9-3.9-4.2-5.1-2.7M750.5 583.2c2.1.9 2.8.9 3.5-.1 1-1.7 3-.5 3 1.8 0 1 .9 2.6 2 3.6 2.5 2.3 2 2.8-1.4 1.6-2.5-1-2.6-.9-2.6 2.2.1 6.9 2.8 22.5 4.5 25 2.2 3.4 14.1 13.5 18.1 15.4 1.7.8 4.1 3.3 5.5 5.4 1.3 2.1 2.7 3.9 3 3.9.8 0 9.9 13.5 9.9 14.7 0 .4 1.4 2.3 3 4.2 2.4 2.7 2.8 3.7 1.8 4.8-.8 1.1-.8 4.4.1 13.9.9 9.9.9 12.9 0 14-1.6 1.9-2.9.1-2.9-4.1 0-1.7-.9-4.8-1.9-6.8-2.8-5.5-3.1-6.6-2.1-7.2.5-.3 1.6.9 2.4 2.7l1.4 3.3.1-3c0-3.9-2.1-13.4-3.6-16-.6-1.1-1.1-2.2-1-2.5.2-1.9-2.8-8.3-4.6-9.8-1.2-.9-2.3-2.4-2.5-3.2-.6-2.5-5.3-8.1-7.7-9.2-1.3-.6-2.9-2.4-3.6-3.9-.6-1.6-1.7-2.9-2.3-2.9-.7 0-2.2-.9-3.3-2-2.8-2.6-8.5-6-10-6-.6 0-1.5 1-1.9 2.2-.7 2.1-.8 2-1.5-1.2-.4-1.9-.5-5.5-.3-8 .5-5-2.8-27.8-4.2-28.9-1.5-1.1-4.7-5.1-4.1-5.1.3 0 1.8.5 3.2 1.2m147.5 5.3c0 5.1-.4 7.1-1.9 8.6-2.1 2.3-3 5.7-3.8 14.3-.3 3.9-1.1 6.6-2.4 7.9-1.9 2.1-1.9 2.1-1.9-.9 0-1.6-.4-3.5-.8-4.2-1.3-2 2.2-16.3 5.1-20.5 1.4-2 2.8-5.5 3.2-7.7 1-6.2 2.5-4.7 2.5 2.5m-112.7 19.3c8.7 10.5 17.3 22.6 20.2 28.3 3.1 6.1 9.4 25.1 10.2 30.9.3 2.5 1.5 6.2 2.6 8.3 1.5 2.9 1.8 4.5 1.1 6.8-1.1 3.8-2.9 3.8-2.9 0-.1-3.6-2.9-7.9-5.8-8.7-2.7-.7-6.7-6.7-6.7-10 0-1.4-.4-2.2-1-1.9-1.5.9-1.2-.4.4-2.1 2.6-2.5 4.2-1.2 5 4 .1.6 1.4 3.1 3 5.6l2.8 4.5-.6-5.2c-.3-2.8-1.4-7.3-2.5-10-1-2.6-2.9-8-4-12-1.2-3.9-3.2-8.5-4.6-10.1-1.4-1.7-2.5-3.5-2.5-4.2 0-1.7-13.1-19.7-18.4-25.3-4.4-4.6-5.6-6.7-3.7-6.7.5 0 3.8 3.5 7.4 7.8M800.4 411.5c2 1.5 2 1.5 0 1.6-3.5.2 6 2.6 15.1 3.8 5 .7 10.9 1.6 13.3 2.1 4.7.8 5 .5 2.3-2.7-1.1-1.4-3.5-2.4-6.7-2.9-2.7-.4-5.8-1.3-6.9-2-1.3-.9-4.9-1.4-10.5-1.4-7.7.1-8.3.2-6.6 1.5M350 412c0 .3-.9 3.2-2 6.4-2.7 7.5-2.7 14.7-.1 21.6 1.2 3 2.1 6.5 2.1 7.7 0 2 6 9.5 6 7.6 0-.4.5 0 1.1 1 1.2 2.1.1 10.7-1.1 8.7-.6-1-.8-1-1.2 0-.2.7-1.2-1.4-2.3-4.6-1-3.3-3.2-7.3-4.7-8.9-1.5-1.7-2.8-4.1-2.8-5.2 0-3.3-1.7-3.7-2.3-.6s.2 9.3 1.3 10.8c.5.5 1.5 3.4 2.4 6.4 1.6 5.6 1.2 7-2.2 7.1-.8 0-1 .8-.7 2.2 4.1 18.1 9.4 33 11.9 33.4.9.1 1.9-.2 2.2-.8.8-1.3 2.4 1 2.4 3.7 0 1.9 6.5 18.1 8.1 20.1 1.8 2.3 3.8 10.6 3 12.8-.5 1.1-.5 3 0 4.1 1.1 2.8 1.1 4.5-.1 4.5-.9 0-3-4.1-3.2-6 0-.3-.8-2.1-1.9-4.1-1-2-2-4.8-2.2-6.3-.1-1.5-1.1-3.6-2-4.6-.9-1.1-1.7-2.7-1.7-3.5 0-2.3-3.1-9.5-4.1-9.5-1.4 0-1.1 4.3.7 9.1.8 2.4 2 6.8 2.5 9.6.5 2.9 1.6 6.5 2.4 8 .8 1.6 1.5 3.5 1.5 4.3 0 .9 1.2 6 2.6 11.5s2.8 11 3.1 12.3c.3 1.2.9 2.5 1.4 2.8s.9 3.6.9 7.3c0 4.5.8 9.4 2.4 14.2 1.3 4.1 2.7 10.7 3 14.7s1.5 9.4 2.5 12 3.7 9.2 5.9 14.7c2.7 6.9 4.2 12.4 4.7 17.5.4 4.1 1.4 9.1 2.2 11 1.6 3.8 3.1 10.2 3.9 16.5.8 5.6 5.3 15 6.7 13.6.7-.7.7-2.3 0-5.3-2.1-8.1-6.4-24.3-7-26.3-1.2-3.6-1.4-24.1-.3-22.5.5.8 1 2.9 1 4.7 0 1.7.4 3.4.9 3.7.4.3 1.4 2.7 2.2 5.3.7 2.7 1.9 5.4 2.6 6.1s1.5 2.3 1.7 3.5 1 5.3 1.7 9.2c.7 3.8 1.8 8.3 2.4 10 .7 1.6 1.6 5.7 2 8.9.8 7 5.9 16.4 7.1 13.2.4-1 .2-4.1-.5-7-.7-2.8-1.4-10.1-1.7-16.1l-.4-11 1.6 6c.8 3.3 1.7 6.7 1.8 7.4.2.8.8 1.7 1.4 1.9.7.2 1 .8.6 1.3-.3.5 0 .9.5.9.6 0 1.1 1.3 1.1 2.9 0 5.9 3.1 15.5 5.7 17.9 2.5 2.2 2.6 3.7.7 8.6-.5 1.2 0 1.6 2.3 1.6 2.7 0 2.9-.3 2.5-2.8-.2-1.7.4-4.2 1.6-6.1 1.7-2.8 2-3 2.7-1.4 1.7 4.1 2.2 8.2 1.2 9.2-.8.8.4 1.1 4 1.1h5.1l.8-7.8c.4-4.2.7-10.2.7-13.2l.1-5.5 1.2 5c.7 2.7 1.3 6 1.3 7.3.1 1.3.5 2 1.1 1.7.6-.4 1 1.8 1 5.9v6.5l28 .1h28l.6-2.5c.7-2.9-1.7-5.8-4-4.9-1.6.6-2.1-.9-1.7-5 .1-1.1-.2-1.7-.5-1.3-.4.4-2.2-.4-3.9-1.8-1.8-1.3-3.5-2.1-3.9-1.8-.3.3-.9-.8-1.2-2.6-.5-2.1-1.6-3.7-3.5-4.7-1.6-.8-2.9-2.2-2.9-3.2 0-1.7-5.6-5.6-6.4-4.4-.4.8.8 9.1 2.2 14.4.7 2.8.6 4-.3 4.8-1.5 1.2-3.8-3.1-2.9-5.5.4-.8.1-1.5-.4-1.5-.6 0-1.3.8-1.5 1.7-.5 1.9-1.1-4.8-.7-8 .2-1.9-2.7-8.7-3.6-8.7-.3 0-1.2.7-2.1 1.5-.8.9-1.8 1.4-2 1.1-1-.9.7-5.6 2-5.6 1.4 0 3.7-8.7 3.7-13.9 0-1.8-.4-3.1-.9-2.9-.5.1-3.5 2.7-6.5 5.6-5.2 5-5.6 5.7-5.7 10 0 2.6-.4 5.6-.9 6.7-.7 1.8-.8 1.9-1.5.2-.4-.9-.5-2.3-.2-3.1.3-.7-.1-2.6-.9-4.1-1.3-2.5-1.3-3.2 0-5.9.8-1.7 2.4-6.7 3.5-11.1s2.9-10.6 4-13.7c1.5-4.5 1.7-5.6.5-5.1-.8.3-1.4.9-1.4 1.4 0 .4-1.1 1.9-2.4 3.2-1.2 1.3-2.5 3-2.8 3.8s-.9 1.1-1.3.6c-.5-.4.5-2.2 2.1-4 4.9-5.2 8.9-10.9 10.4-14.7.8-1.9 2.6-4.8 4.2-6.4 1.5-1.6 4-4.8 5.5-7 1.5-2.3 4.9-6.2 7.6-8.7 2.7-2.6 6.1-6.5 7.6-8.7q2.7-4.05 3.9-3.3c1.3.8.6 4.1-.9 4.1-.8 0-8 7.3-10.8 11.1-.9 1.2-3.2 4-5.2 6.4-4.6 5.4-10.1 15.3-12.9 23-3.2 8.7-7.9 26.3-7.3 26.9.7.6 3-1.9 6.4-6.9 1.3-1.9 3.3-3.8 4.4-4.1 2.5-.8 8.1-6.8 10.5-11.4 1-1.9 2.8-4.4 4-5.5 1.3-1.1 4-4.4 6.2-7.3 2.1-2.8 4.5-5.2 5.3-5.2.7 0 2-.6 2.7-1.3s2.9-2.3 4.8-3.6c5.3-3.6 9-7.3 9-8.9 0-.8.7-2 1.6-2.6 2.1-1.6 4.4-19.8 3.7-28.6-.4-4.5-.2-7 .6-7.4.7-.4 1.1 0 1.1 1.1 0 3.9 1.5 4.3 4.9 1.2 4.2-3.7 5.3-3.8 1.9-.2-3.7 4-6.5 11-7.3 18.4-.3 3.5-1.1 8.1-1.6 10.2-1.1 4-.4 8.1 1.2 7.2 1.1-.8 1.2.7 0 3.8-1.1 2.9.3 16.6 2.1 20.4 1.7 3.5 1.3 7.4-.8 6.6-.8-.3-1.4-1.9-1.4-4 0-4.4-2-17.1-3.1-20.1-.9-2.2-.9-2.2-4.1-.6-3.8 1.9-12.1 8.4-12.7 9.9-.2.5-1.8 2.1-3.5 3.5-5.9 4.9-8.6 8.2-8.6 10.6 0 1.3-.6 2.4-1.3 2.4-1.3 0-9 10.9-10.6 15.1-.4 1.3-1.2 6.2-1.6 10.7l-.7 8.4 2.3-.4c3.5-.5 5.3-5.1 5.3-14 .1-6.6.4-7.8 1.8-7.8.9 0 2.4-.7 3.2-1.6.9-.8 1.6-1.2 1.6-.8s1.1-.3 2.5-1.6c1.3-1.2 2.3-2.7 2.2-3.3-.1-.5.7-1 1.8-1.2 1.1-.1 3-.5 4.3-.9 1.5-.5 2.2-.3 2.2.5 0 1.6-6.8 7.9-8.6 7.9-1.6 0-4.6 4.2-3.6 5.2.4.4 2.6 1.1 4.9 1.6 4.4 1 6.6.1 5.6-2.4-.7-1.9.6-5.2 1.5-3.7.5.7 3.1.7 9.2-.1 9.5-1.3 15.4-4.3 14.3-7.4-.5-1.3-.3-1.5.7-.5 1 .9 1.9.9 4.1-.3 2.3-1.1 3.3-1.2 4.8-.2 2.1 1.3 10 .3 19.6-2.4 4.8-1.4 5-1.6 5.8-5.9.4-2.4.6-6 .4-7.9s.4-7.3 1.4-12c2.6-11.7 2.5-17.7-.1-18.5-1.8-.6-1.9-.8-.5-2.2.9-.9 1.3-2.3 1-3.4-.5-1.5-.3-1.8 1.2-1.2 1 .4 2.1 1.1 2.4 1.6 1 1.4 4.9-8 4.9-11.7 0-4.2 1.5-6.5 3.2-4.8s3.9 1.5 3.1-.4c-.3-.8-1.2-1.3-2-1-.8.4-2.8-.8-4.6-2.8-1.8-1.9-4.8-4.2-6.7-5.1-1.9-1-4.5-3-5.8-4.6s-2.9-2.9-3.6-2.9-2.3-2-3.6-4.5-2.4-4.5-2.6-4.5c-.1 0-.8 1.6-1.4 3.6-.8 2.5-.9 4.3-.2 5.8 2.7 5.9 3.1 7.5 2 8.2-.6.4-2-.5-3-1.9-2.4-3.3-3.7-3.4-7.2-.6-3.6 2.9-4.4 1.8-.9-1.2 4.1-3.5 7.9-10.8 8.2-15.8.3-4.6-2-11.1-5.2-14.6-1.1-1.2-1.5-2.5-1-3.5.4-.8.6-4.8.5-8.8-.2-4 .1-7.2.6-7.2s1.2-.9 1.5-2.1 1-1.8 1.5-1.5c.6.3.8-.2.5-1.2-.2-1 .2-4.4 1-7.5.8-3.2 1.4-5.7 1.3-5.7-.7 0-6.7 9.2-9.5 14.3-6.6 12.2-17.3 25-27.5 32.6-3.5 2.7-6.4 5.8-7.3 7.9-1.1 2.6-1.7 3.1-2.7 2.3s-3.4.6-10.2 6.2c-12.8 10.4-17.7 15.8-25.7 28.4-9.3 14.5-9.3 14.5-11.1 23.3-1.9 8.8-5.5 32.1-6.2 40l-.6 5.4 2.1-1.8c1.2-1.1 2.4-1.7 2.7-1.4s-.6 1.5-2 2.5c-2 1.6-2.6 3.2-3.1 7.9-.3 3.2-.7 6-1 6.2-.2.2-.9-1.5-1.6-3.8-1-3.3-1-5.2 0-9.3.6-2.9 1.6-7.9 2.2-11.2.5-3.3 1.6-10.1 2.5-15 2-12.2 3.2-25.5 2.2-25.5-.4 0-.8-.7-.8-1.5s.5-1.5 1.2-1.5c2.6 0 14.7-17.3 19.6-28.1 1.5-3.3 3-4.9 5.9-6.2 4.1-1.7 24.3-19.1 24.3-20.7 0-.6.6-1 1.4-1 1.9 0 10-6.4 17.1-13.5 7-7 15.2-18.9 16.1-23.4.4-1.7 1-3.1 1.4-3.1.5 0 2.9-3.3 5.5-7.3l4.6-7.2-.7-7c-.4-3.9-.7-7.8-.6-8.8 0-.9-.2-1.7-.6-1.7-.8 0-5 2.7-6.8 4.5-.6.5-3.9 3.2-7.3 6-3.3 2.7-6.1 5.6-6.1 6.2 0 .7-.6 1.3-1.2 1.3-1.5.1-28.1 25.5-30.6 29.2-.9 1.4-5.8 8.8-10.9 16.4-5 7.6-10.6 15.8-12.3 18.1-1.8 2.3-2.9 4.7-2.5 5.3 1.1 1.8-.5 3.1-2.6 2-2.6-1.4-2.4-3.9.4-4.9 3.4-1.3 24.7-33.5 24.7-37.3 0-.7 1.1-2 2.4-2.8 3.1-1.9 26.1-24.3 28.1-27.4 1.1-1.6 1.3-2.6.6-3.1-.6-.3-1.1-1.2-1.1-1.8 0-.7.7-.3 1.5.7 1.4 1.8 1.6 1.8 5.2-1 4.4-3.2 11.4-9.5 15.7-13.9l2.9-3-.7-10.4c-.3-5.7-.6-14.4-.6-19.3V439l-2.7 1.7c-2.2 1.4-13.7 10.2-19.9 15.2-.5.4-3 2.1-5.5 3.7-2.4 1.6-5.1 3.6-5.9 4.5s-4.2 2.8-7.5 4.2c-18.8 8.1-23.5 10.1-28.5 11.9-3 1.1-6.6 3.1-8.1 4.4-1.4 1.3-3.1 2.4-3.7 2.4-2.1 0-39.1 30.6-39.3 32.4-.1.6-.1 2 0 3.2.1 1.1-.7 2.8-1.9 3.9-1.8 1.6-2 1.6-2 .2 0-2.6-.2-3-2.7-5.7-2.6-2.8-3-4.5-.9-3.7.8.3 1.7 0 1.9-.7.7-1.7 2.1-14.8 1.9-16.3-.2-.6.3-1.5.9-1.9.9-.5 1 1.7.7 8.5s-.1 9.1.8 9.1c1.2 0 11.1-7.7 18.9-14.5 1.7-1.5 6.9-5.9 11.8-9.8 4.8-4 8.9-8.1 9.1-9.2s1.6-7.2 3-13.5c3-13.8 4.1-22 2.9-22-.5 0-3.3.6-6.3 1.4s-8 1.9-11 2.5c-14.2 2.7-20.7 4.4-22.6 5.6-1.8 1.1-2.3 2.8-2.9 8.9-1.2 12.9-2.5 14.4-2.1 2.4.3-8 0-11-.9-11.8-1.5-1.2-20-3.4-22-2.6-.7.2-3.2-.5-5.5-1.6-2.4-1.2-4.5-1.7-5-1.2s-1.4 3.6-2 6.9c-2.5 12.5-2.9 13.1-2.3 3.7.7-11.6-.2-13.9-6.7-17.5-2.7-1.5-5.2-3.2-5.6-3.8-.5-.9-8.7-4.9-9.9-4.9-.2 0-1.1 2.5-1.9 5.4-2.7 9.1-3.8 8-3-2.7.8-10.9-.7-16.9-5.6-22.7-1.6-1.9-3-3.3-3-3m34 179.9c0 1.1 1 2.7 2.2 3.5 1.3.9 2.4 3.2 2.9 5.8.4 2.4 1.2 6.1 1.8 8.3s1 7.1 1 11c-.1 6.7-.1 6.9-1.4 4-.8-1.7-1.4-4.2-1.5-5.6 0-1.5-.7-3.2-1.5-3.9s-1.5-2.3-1.5-3.6c0-3.3-2.9-10.4-5.7-13.7-1.3-1.6-2.3-3.9-2.3-5.3 0-2 .5-2.4 3-2.4 2.3 0 3 .5 3 1.9m47 67.6c0 10.5 1.6 22 4.1 30.1 1.1 3.8 0 13-1.2 9.9-.4-1.1-.8-3.6-.8-5.6-.1-3.9-2-5.6-4-3.6-1 .9-1.2-1.2-1.1-9.3.3-18.4 1.2-33 2.1-33 .5 0 .9 5.2.9 11.5"/><path d="M569.9 414.7c-.1.5-.1 1.1 0 1.5 0 .5-.3.7-.8.5-.5-.1-5.4 4.2-10.9 9.5l-10 9.8-.7 9.1c-.7 8.4.1 27.4 1.2 29.2.5.9 8.9-5 11.3-8.1 1.5-1.9 3.1-9.7 3.4-16.6.1-2 2.6-3.6 2.6-1.6 0 .6 1.5 1.7 3.3 2.5 3.1 1.4 3.1 1.4.6 1.5-1.5 0-3.1.6-3.7 1.3-1.4 1.7-2.7 9.7-1.6 9.7.5 0 3-2.2 5.7-4.9 4.3-4.5 4.7-5.3 4.7-9.7 0-2.7-.7-8.3-1.5-12.5s-1.5-10.8-1.7-14.7c-.2-4-.6-7.2-1-7.2-.5 0-.9.3-.9.7M574.6 419.5c.5 6.4 2.1 20.2 3.2 27.3l.7 4.3 4.3-3.6c3.6-3.1 4.2-4.2 4.2-7.5 0-4.2-2.8-10.6-6.7-15.3-1.3-1.6-2.3-3.5-2.3-4.3s-.4-1.4-.8-1.4c-.5 0-1.3-1.2-1.9-2.8-1-2.3-1.1-1.8-.7 3.3M706.6 416.2c-.2.7-.5 2-.5 2.8-.1.8-.8 6.9-1.5 13.5-2.2 18.1-2.1 22.2.7 23.6 1.2.6 3.7 2.5 5.5 4.2l3.2 3.1v-2.5c0-4.8-1.1-7-3.1-6.4-2.3.8-2.5-1.2-.4-4 1.4-1.7 1.7-1.8 3.1-.4 1.5 1.6 2.2 4.7 2.3 10.7.1 2.8 1.1 4.4 5.9 8.8 3.1 2.9 6.3 5.4 7 5.4 2 0 1.9-34.4-.1-36.9-.9-1.2-.9-1.3.1-.7 2.9 1.7.7-1.1-6.5-8.6-10-10.3-15.2-14.4-15.7-12.6M512.5 419c-.4.6-2.6.8-5.5.4-4.4-.6-4.9-.4-6.1 1.7-1.5 3-3 4-4.8 3.4-1-.4-1.2.2-.9 2 .6 2.7-.9 3.5-1.9.9-.5-1.3-.7-1.3-1.4-.2s-1.1 1-2-.2c-.8-1.1-1.2-1.2-1.6-.3-.2.7-2.2 1.3-4.2 1.3-4.6 0-7.9 3.1-9.1 8.6-.5 2.1-.7 4-.6 4.2.2.2 4.4-1.8 9.2-4.4 4.9-2.5 11.8-6.2 15.4-8 13.9-7.3 17-9.1 16.3-9.7-.9-1-2.1-.9-2.8.3M701.7 418.7c-.4.3-.7 1.5-.7 2.5 0 1.1-.4 1.6-1 1.3-.5-.3-1-.2-1 .4 0 .5-1.1 2.2-2.4 3.8s-2.7 4.6-3.1 6.6-1.1 3.7-1.7 3.7c-.5 0-.8 2.1-.6 4.6.3 3.9.7 4.8 3.3 6.2 1.7.9 3.2 2 3.3 2.4 1.7 3.9 3.8-6.6 4.5-22.5.2-5.3.3-9.7.2-9.7s-.5.3-.8.7M799.4 421.4c.3 1.7 1 5.6 1.5 8.6 1.6 9.5 2.2 10.4 8.7 12.3 7.8 2.3 11.5 3.3 20.4 5.3 4.1 1 8.9 2.3 10.7 3 4.2 1.8 4.7.3 2.1-6.7-1.1-3-3-8.3-4.3-11.9-2.6-7.3-5.3-10-9.9-10-1.8 0-5.7-.4-8.7-1-3-.5-8.9-1.4-13.2-1.8l-7.9-.8zM519.6 422c-.5 1.4-2.7 9.4-3.2 11.5-1.1 5.1-3.4 13.6-4.2 16-2.5 7.4-3.3 10.7-2.8 11.2 1.3 1.3 34.6-23.7 34.6-25.9 0-1.3-8.7-4.8-12.1-4.8-1.8 0-3.3-.7-4.1-2-.7-1.1-1.6-2-2.1-2-.4 0-1.9-1.2-3.2-2.8-1.8-2.1-2.5-2.4-2.9-1.2M402.8 423.2c-1.9 1.5-12.2 21.7-11.5 22.5.3.3 3.8.6 7.7.7 4 .1 7.4.7 7.8 1.3s4 2.1 8 3.3c7.2 2.2 7.4 2.2 9.2.4 1.4-1.5 9-23 9-25.4 0-.5-1.9-.5-6.4-.1-.5.1-.3.7.3 1.5.9 1.1.7 1.5-1.3 2-2.9.7-5.8-.2-5-1.5.3-.6 0-1.6-.6-2.4s-.9-1.9-.5-2.5c1.4-2.3-3.4-.8-6.4 2.1-3.5 3.3-6.4 3.5-6.9.4-.6-3-1.6-3.7-3.4-2.3M514.5 422.9c-1.4 1.3-9.1 5.6-25.5 14.1s-16.2 8.2-19.2 22c-1 4.7-2.6 11.3-3.5 14.8-.9 3.4-1.3 6.5-1 6.9.6.6 16.4-5.7 26.1-10.3 2.8-1.3 5.5-2.4 6.1-2.4 1.5 0 7.3-2.9 7.9-3.9.9-1.4 6.6-24.1 6.6-26.1 0-1.1.9-4.8 2-8.1 2.1-6.2 2.3-8.8.5-7M761.5 425.2c2.9 13 8 32.7 9.3 36 .8 2 3.7 3.9 12.9 8.3 6.5 3.1 13.4 6.3 15.4 7s5.4 2.2 7.7 3.4 4.3 2.1 4.5 2.1c1.1 0-7.8-32.9-10.2-37.8-.5-1.1-38.4-21.2-39.8-21.2-.2 0-.1 1 .2 2.2M840 425.2c0 1.3 5.2 17.9 7.2 23.2l1.1 2.9 9.6-.7c11.9-.8 21.8-2 22.6-2.7.8-.8-9-20.3-11.1-22-2.4-2-29.4-2.7-29.4-.7M462 426.5c-4.2 1.6-8.7 1.9-9.5.5-.3-.6-3.7-1-7.6-1H438l-2.6 5.7c-2.6 6-7.4 19.1-7.4 20.4 0 .8-.7.9 16.5-3.1 14-3.3 16.7-4 20.4-4.6 5.7-1.1 7.3-4.4 7.5-15.4.1-3.3-.1-3.5-3.4-3.7-1.9-.1-5.1.4-7 1.2M636.7 431.5c-.4.8-1.4 1.5-2.4 1.5-1.5 0-1.6-.2-.3-1s1.3-1-.1-1c-1.9 0-2.4 3.8-3.5 23.2l-.7 11.8h4c3.8 0 4.1-.2 4.7-3.3s-.1-31.8-.8-32.4c-.2-.2-.6.3-.9 1.2M642.7 431.2c-1.5.8-1.7 3-1.7 17.8 0 9.3.3 17.1.8 17.3.4.2 1.8.7 3.2 1 4.9 1.2 5.2.3 4-15.4-1.4-18.3-1.8-20.6-3.3-21.2-.7-.3-2.1-.1-3 .5M625.6 433.7c-.8 1.6-1.5 2.2-1.6 1.5 0-.6-.9-1.2-2-1.2-2.2 0-2.7 1.5-.7 2.3.6.3.2.6-1.1.6-1.3.1-2-.3-1.7-.9s.2-1-.3-1c-.9 0-2.6 31.6-1.7 33 .5.8 9.5-.6 10.7-1.8.8-.8 2.7-32 2-34s-2-1.4-3.6 1.5M650.5 443.5c.7 15.4 1.3 21.6 2.5 23.5.5.7 2.7 1.4 5.2 1.4l4.3.1-.1-14.7c-.1-14.9-.7-19.5-2.3-16.9-.7 1-1 .9-1.6-.8-.4-1.5-1.5-2.1-3.5-2.1-1.7 0-3.4-.7-4-1.8-.8-1.2-.9 1.8-.5 11.3M612 437.8c-3.6 1.2-5.5 7.5-8.5 28.3l-.7 4.7 5-1 5.1-1 .6-5.2c.3-2.8.5-9.9.3-15.7-.2-8.9-.5-10.5-1.8-10.1M665 452.9c.3 8.8.7 16.1 1 16.3 3.4 2.2 5.4 2.8 6.2 2 .6-.6 1.7-.8 2.5-.5 1 .4 1.3 0 .9-1.8-.3-1.3-1.5-7.4-2.5-13.4-2.3-13-3.3-16-6-17.4-1.1-.6-2.1-1.1-2.3-1.1s-.1 7.2.2 15.9M555.4 473.8c-5.7 5.3-6.2 6.1-6.7 11.2-.4 3-.3 7.1.1 9l.8 3.5 6.6-6.9c5.6-5.7 6.8-7.5 7.4-11.2.7-4.6-.2-11.4-1.4-11.4-.4 0-3.4 2.6-6.8 5.8M648 469.7c0 .6-.8.9-1.9.6-2.4-.6-6.4 1.4-5.5 2.8.3.6.2 5-.2 9.7l-.9 8.7-.5-10.5-.5-10.5-3.2 4.9c-3.2 4.9-4.6 4.5-1.8-.4 2.1-3.6 1.8-4.8-1-4.6-1.4 0-2.5.1-2.5.1-.5 0-3.2 33.3-2.9 35.5.4 2.3.8 2.5 5.2 2.3 2.6-.1 4.7.2 4.7.6s-.8.7-1.7.8c-3.1.2-7.8 1.4-8.6 2.2-.4.4-.8 6.4-.8 13.4-.2 12.2-.1 12.7 2.2 14.7l2.4 2-2.2.6c-2.7.8-2.8 1.5-.8 9.1.9 3.2 1.8 7.6 2.2 9.8.3 2.2 1 4.3 1.6 4.7 1.5.9 3.7-.2 3.7-1.8 0-.8.7-1.4 1.5-1.4 1.2 0 1.5-1.8 1.5-9.9v-9.9l-3-.4c-1.6-.2-3.2 0-3.4.6s-.5.1-.5-1.2c-.1-2.4.9-2.8 2.6-1.1.8.8 1.7.8 3.3-.1 2.1-1.1 2.2-1.6 1.9-17.5-.2-9 0-16.7.4-17.1.9-1 1-.3.7 16.7-.2 15 .5 18.9 3.6 18.9.8 0 1.3.4.9.9-.3.5 0 1.1.7 1.4.7.2.1.3-1.4.1-2.2-.3-2.9.1-3.3 1.9-.6 2.3 0 20.8.6 21.7.2.2 1.4-.2 2.6-1.1 1.3-.9 2-1.9 1.6-2.2-.3-.4.1-.7 1-.7.8 0 1.7-.6 1.9-1.2.8-2.3 3.7 1.7 3.1 4.1-.3 1.2-.1 2.1.6 2.1.5 0 .8-.7.5-1.5-.4-.8-.1-1.5.4-1.5.6 0 1.1-.8 1-1.8 0-.9.6-11 1.3-22.3 1-15.9 1-22.1.1-27.5-.6-3.8-1.9-14.9-2.8-24.7-1-10.7-2.2-18.4-3-19.5-.7-.9-1.4-1.2-1.4-.5M622.9 474.6c-1.9 2.6-4.4 6-5.6 7.7-1.4 1.8-2.3 2.4-2.3 1.5 0-1.6 3.2-6.2 6.2-8.9 2.6-2.4 2.2-2.8-1.6-1.9-1.9.4-3.7.5-4 .3-.7-.8-1.9 6.6-2 12.7-.1 3-.5 5.8-1 6.1-1.1.9-2.5 8.3-2.6 13.8 0 4.1.1 4.3 2.3 3.6 1.2-.4 4-.8 6.2-.9 5.2-.1 6.1-2.1 7.5-16.4.5-5.9 1.2-13 1.5-15.9.3-2.8.1-5.4-.3-5.7-.5-.3-2.4 1.5-4.3 4"/><path d="M652.8 471.3c-.3.7.3 6.8 1.3 13.7 2 14.2 3.9 36.3 3.9 46.2 0 4.5.5 7.1 1.5 8.1 1.2 1.3 1.2 1.7-.5 3.2-1.5 1.4-2 3.1-2 7.2 0 2.9.4 5.3.8 5.3.5 0 1.3 1.2 2 2.7.6 1.6 1 2.1.8 1.3-.1-.8.6-1.9 1.7-2.5 2.6-1.3 7.2-9.4 9.3-16.5 1.2-4.2 1.5-7.6 1-14.5-.9-14.1-1-14.2-9.3-14.7-2.4-.2-4.3-.6-4.3-1 0-1 6.7-2.1 9-1.5 1.7.4 2 0 2-2.9 0-4.6-4.4-24.4-4.8-21.7-.4 2.5-2.2 3.2-2.2.9 0-.7-1.1-2.5-2.6-4.1-1.4-1.5-2.2-3-1.8-3.4.3-.3 1.3.4 2.1 1.6.9 1.3 2.4 2.3 3.4 2.3 1.6 0 1.7-.4.9-2.6-.6-1.4-.7-3-.4-3.6.3-.5-.2-.8-1.2-.6-1.1.1-3.8-.7-6.1-1.9-2.9-1.5-4.3-1.8-4.5-1M606.3 479.8c-2.6 3.3-5.7 6.3-6.8 6.8-1.2.5-2.3 2.3-2.7 4.4-4.5 22.6-5.5 32.8-3.3 33.7.8.3 1.5 1 1.5 1.5 0 .6.8 1.7 1.8 2.4 1.5 1.2 1.5 1.2-.6.7-1.2-.3-2.5-.9-2.8-1.4s-.9-.9-1.5-.9c-1.4 0-1.1 6.4.6 8.6.8 1 1.5 3.3 1.5 5 0 3.3 1.6 5.5 3.5 4.8 1-.4 2.6 3.7 2.4 6.2-.1 1 2.4 2.4 4.3 2.4 1.3 0 1.5-.7 1.1-4.3-.7-4.9-3-10-4.3-9.2-.5.3-1.1.1-1.5-.5-.3-.5-1.5-1-2.6-1-3.3 0-2.1-2 1.4-2.1 1.7-.1 3.5-.1 4 0 .4 0 .7-.2.7-.6 0-.5.7-5.8 1.5-11.8.8-6.1 1.5-11.1 1.5-11.2s-1.3-.1-3-.1c-1.6.1-2.7.5-2.4.9.2.4 0 1-.6 1.4-2.1 1.3-.9-2.5 1.6-5l2.6-2.6-2.6-4.4c-3-5-3.6-8.7-1.1-6.1.8.8 1.5 1.8 1.5 2.3 0 1.9 4.2 7.5 5 6.7.5-.5 1.4-4.3 2-8.4s1.5-9.5 2-12c1.8-9.1 2.1-12 1.1-12-.5 0-3.1 2.6-5.8 5.8"/><path d="M667.4 477.9c.3 1.8.6 3.8.6 4.3s.5.6 1.2.2c.7-.5.9-.2.5.8-.5 1.5 1.6 19.2 2.9 23.5.3 1.3 1 2.3 1.5 2.3.6 0 1.4-1 1.9-2.3.7-1.7.9-1.8.9-.5.1 1.6 1.2 2.3 3.4 1.9.4 0 .8.6.8 1.4.3 3 .4 3.4 1.7 4.6 2.9 3 .4 5.3-2.7 2.5-.9-.7-2.7-1.7-3.9-2.1l-2.4-.7.7 6.9c1.4 12.5 2 15.6 3.3 16.1.7.2 1.1-.2 1-.8-.2-.7.3-1.5 1-1.7.6-.3 1.2.1 1.2.8s.7 2.1 1.7 3.1c1.5 1.7 1.5 1.8-1.3 1.8-3.2 0-6.6 2.4-8.1 5.5-1.4 2.9-1.6 9.2-.4 10 .6.3 1.1.1 1.1-.5s1.2-2.4 2.8-4c6.2-6.6 7.3-8 8.7-12 1.9-5.3 2-13 .3-13.1-.7-.1-1.9-.1-2.7.1-.9.1-.7-.7.7-2.7 2.1-3 2.4-11.1.4-13.6-.5-.6-1.2-4.8-1.5-9.2-.6-8.7-2.9-15.5-5.2-15.5-.8 0-1.5-.5-1.5-1.1 0-.5-.5-.7-1-.4-.6.3-1.3-.2-1.7-1.1-.4-1-2-3.2-3.6-4.9l-3-3zM683.7 483.6c-1.1 1.1-.8 4.9.5 6.2.6.6 1.1 3.2.9 5.7-.1 2.4.3 6.4.9 8.7 1.5 5.4 3.1 13.8 3.1 16.1 0 1.2.5 1.7 1.4 1.3.7-.2 1.9.3 2.7 1.1 1.1 1.5 1.1 1.6-.4 1-1.3-.5-1.8-.1-1.8 1.2 0 1.7 2.9 5.1 4.3 5.1 1.5 0 .6-7.4-1-9.3-1.7-1.8-1.7-1.9 0-3.2 1.4-1 1.6-1.8.7-3.9-.5-1.4-1.2-2.6-1.4-2.6-.3 0-.3.7 0 1.5.4.8.1 1.5-.5 1.5s-1.1-.6-1.1-1.4-.7-2.2-1.6-3c-1-1.1-1.1-1.6-.3-1.6.7 0 .9-.3.6-.7-.4-.3-.3-1.1.2-1.7 1-1.3-2.3-9.6-3.9-9.6-.5 0-1-.5-1-1.1 0-.5.5-.7 1.2-.3.8.5.9 0 .5-1.7-.4-1.3-.7-3.2-.7-4.2 0-1.1-.4-1.5-1.2-1.1-.7.4-.8.3-.4-.4.8-1.4-.7-4.6-1.7-3.6M608 515.1c-.5 1.9-1.1 7.6-1.2 12.7-.3 8-.1 9.3 1.6 10.5 1.3 1 1.5 1.6.8 2.1-1.7 1-1.5 3.6.6 7.7 1 1.9 2.6 5.6 3.6 8.2s2.3 4.7 2.9 4.7c1.7 0 4.8-8 5-13 .2-4.2.1-4.3-3.7-5.4-3.5-1-3.7-1.3-2.3-2.5.9-.7 3-1.1 4.6-.9 2.7.4 2.9.2 3.5-4 .3-2.5.6-8.8.6-14.1v-9.6h-15.1zM359.1 569c.4 3.3 1.2 6.7 1.9 7.5.6.8 1.4 3.3 1.6 5.7.5 5.2 2.9 16.6 5.5 26.8 6.2 23.8 7.9 30.8 7.9 33 0 1.4 1.8 6.3 4.1 11 2.4 5.1 3.9 7.3 3.6 5.5-1.4-9.2-3.9-19-5.6-22.4-1.2-2.3-2.4-7.6-3-13.2-.5-5.2-1.7-12.1-2.6-15.4-4.1-15.2-5.5-21-5.5-23 0-3-6.4-20.8-7.6-21.2q-1.05-.3-.3 5.7M912.9 581.7c-2.2 4.8-3.2 8.1-4.9 15.8-.5 2.2-1.8 6.9-2.9 10.4-2.2 6.6-2.5 10.8-1.1 15.1l.8 2.5.1-2.8c.1-1.5 1.2-4.9 2.5-7.5s2.7-7 3.1-9.7c.4-2.8 1.5-8.2 2.5-12 2-7.8 3.4-16.5 2.6-16.5-.3 0-1.5 2.1-2.7 4.7M583.2 583.6c-1.2.8-2.2 2.6-2.2 3.8 0 2.1-2.7 4-5.2 3.7-.3 0-1.6 3-2.8 6.7s-2.6 7.5-3.1 8.5c-2.5 4.6-6.7 33.6-5.5 38.3.5 2 .9 2.2 4.2 1.3 1.9-.6 4.5-.9 5.7-.6 2.1.3 2.1.4-.3 1.4-3.7 1.5-5.3 3.9-4.8 6.7.6 2.9-1.5 4.2-3.2 2-1.4-1.6-5-1.9-5-.4 0 .5-.6 1-1.3 1-1.6 0-4.1 3-4.5 5.5-.3 2-5.7 7.5-7.3 7.5-.5 0-.9 1.4-.9 3.1 0 1.6.4 2.8.9 2.5s2.2.1 3.7.9c3 1.6 11.9 1.2 13.8-.6.6-.5 1.8-.9 2.8-.9 2 0 2.6-4.4.8-5.5-1.4-.9-1.2-2.7.6-5 1-1.3 1.7-1.6 2.2-.9 1.4 2.2 13.5 3.5 22.7 2.4 3.6-.4 4-.3 4.3 1.7s-.1 2.3-2.9 2.3c-3.1 0-3.2 0-2.6 4.1.7 5.1 1.2 5.6 3.5 3.6 1-1 2.4-1.7 3.1-1.7.6 0 2.1-1.6 3.2-3.5 2-3.3 3.9-4.6 3.9-2.6 0 1.9 3.1 2 5 .1 1.1-1.1 2.2-1.5 2.5-1 1.2 1.9 4.3 1 4.9-1.3.6-2.7-.3-6.7-1.5-6.7-.5 0-.8-1.5-.8-3.3.1-1.7.3-2.4.6-1.5.2 1 1 1.5 1.9 1.1.8-.3 1.4 0 1.4.6s.5 1.1 1 1.1c.6 0 1.1-1.5 1.1-3.3.1-2.6.2-2.7.6-.7.7 4.5 2.6 7.1 7 9.7 7.2 4.2 7.1 4.8 7.2-32.1 0-17.9-.2-33.1-.5-34-.6-1.6-5.7-2.2-8.8-1-2 .8-2.3 11.4-.3 11.4.9 0 .9.2-.1.8-.7.5-1.7 3.5-2.3 6.8-1.7 8.6-2 9.3-2.9 6.9-.6-1.5-.9-1.6-.9-.4-.1.9-.8 3-1.7 4.8s-1.7 4.3-1.8 5.7c0 1.3-.6 2.4-1.2 2.4-1.8 0-4.8 11.6-3.3 12.6.5.3.9 0 .9-.6s.5-.8 1-.5c.6.3 1 2.1.9 3.8-.1 3.1-.1 3.1-.9.7l-.8-2.5-.1 2.6c-.1 1.4-.8 3.4-1.6 4.5-1.4 1.9-1.4 1.9-1.5-.1-.1-1.9-.2-1.9-1.2.2-1.3 2.6-2.8 3-2.8.8 0-.8-.3-1.5-.7-1.4-1.3.2-5.3-1.3-5.3-2 0-.3.6-1.8 1.4-3.3 1.2-2.3 1.2-2.7 0-3.2-.8-.3-1.4-1.7-1.4-3.1v-2.6l2.6 2c4.3 3.4 4.9 2.5 8.4-12.5.9-4.2.8-6.6-.4-12.6-.9-4.1-2-11-2.5-15.4-.5-4.3-1.4-9.2-2-10.7-.6-1.6-1.1-3.7-1.1-4.8s-.8-2.8-1.7-3.7c-1.6-1.6-1.6-1.6-1 0 .5 1.3-.2 2.2-2.3 3.3-1.5.8-3.1 2.3-3.3 3.2-.3 1.1-.5.6-.6-1.2l-.2-3-1.4 2.5c-.7 1.4-1.7 4.7-2 7.5-.4 2.7-1.3 7.5-2 10.5s-1.6 12.5-2 21.1l-.6 15.6 3.3.8c2.7.7 2.9.9 1.1 1.2-1.2.2-2.7 1.1-3.3 1.9-1.6 1.8-2.5 1.8-4.5-.2-1.5-1.5-1.5-1.8 0-3.4 1.2-1.3 1.5-3.4 1.3-8.1l-.3-6.4-4.2 8.2c-2.3 4.5-4.4 7.9-4.7 7.6s.3-2.2 1.4-4.2c1-2 2.7-5.4 3.6-7.6 1-2.2 2.3-4.7 3-5.5s1.5-4 1.8-7c.4-3 1.2-7.7 1.7-10.3.6-2.7.9-6.4.6-8.3s-.2-3.4.2-3.4c.9 0 3.1-9.1 3.1-13.1 0-2.5-.4-2.9-2.9-2.9-1.6 0-3.2.6-3.4 1.2q-.6 1.5-.6 0c-.1-1.6-1.2-1.5-3.9.4M672.7 584.8c-1.1.2-1.6.9-1.3 1.8.3.8-.1 1.4-.9 1.4-1.9 0-3.8 7.5-3.2 12.4.6 4.2-1.2 14.7-2.7 15.8-.5.3-.6 3.9-.2 8.5 1.5 16.3 2.1 19.2 4.4 19.2.9 0 5.1.4 9.2.9 7.9.9 7.9 1.4-.5 3.8-2.2.7-3.1 1.6-3.3 3.7-.2 1.5-.9 2.7-1.5 2.7-.7 0-.6.4.3 1 1.3.8 1.2 1-.2 1-1 0-1.8-.5-1.8-1.1 0-.5-.4-.7-1-.4-.5.3-1 3.1-1 6.1 0 5.5 2.2 9.4 5.4 9.4.7 0 2.1 1.1 3 2.5s2.5 2.5 3.5 2.5c1.1 0 2.2.8 2.4 1.8.4 1.6.5 1.6.6-.1 0-.9.8-1.7 1.7-1.7 1 0 1.4-.7 1.2-2.2-.3-2-.9-2.3-6.8-3.2-1.4-.2-2.7-.4-2.9-.5-1.6-.4 4.3-4.1 6.5-4.1 1.5 0 3.2-.8 3.9-1.7 1.1-1.5 1.3-1.5 2.4.5.6 1.2 2 2.2 3 2.2 2.7 0 6.4-4.5 6.5-8 .1-1.6.5-3 .9-3s1.9-1.2 3.3-2.7l2.6-2.8-2.9-1.2c-1.5-.7-4-1.2-5.4-1.3-1.5 0-3.2-.7-3.9-1.5-1-1.2-1-1.5 0-1.5.9 0 1.1-1.2.7-4.1-.6-4.4-3.3-8.3-5.4-7.5-.7.3-1.5-.4-1.9-1.9-.3-1.3-1.3-2.6-2.1-3-1.4-.5-1.4-.7.2-1.9 1.5-1.1 1.6-2.2 1.1-8.3-.8-9.1-3-19.4-6-28.3-.9-2.5-1.7-3.4-3-3.2-1 .2-1.5-.1-1.2-.6.7-1.2-1.3-2-3.7-1.4"/><path d="M683 587.5c0 4.4 1.9 8.5 3.6 7.8 1.5-.5 3.8 4.2 2.8 5.8-.8 1.4-2.6 0-1.8-1.4.5-.9.4-.9-.6 0s-.9 3.3.5 12.5c.9 6.2 2.4 12.9 3.2 14.8 4.1 9.5 8.6 18 9.7 18.1.6.1 2 .3 3.1.5s3.4.5 5 .6l3 .3.5-9.9c.4-8.4.1-11.6-2.1-20.5-1.4-5.8-3.1-10.7-3.7-10.9-.7-.2-.9-.8-.6-1.3.9-1.5-2.9-12.9-4.3-12.9-.6 0-1.9-.7-2.8-1.6-1.2-1.3-1.3-1.9-.4-3 .7-.8.9-1.8.5-2.1-.4-.4-1-.2-1.4.4-.5.8-1.3.9-2.2.3-.8-.6-3.9-1-6.7-1H683zM646.6 589.9c-.3.4-1.6.6-3 .4-2.3-.5-2.5-.2-3.2 6.4-1.1 8.5-1 53.5 0 55.2.6.9 1.4.7 3.1-.9 1.5-1.4 2.5-1.8 3-1.1.3.6 0 1.1-.7 1.1-1 0-.9.3.1.9 1.3.8 1.3 1.2.1 2.6-.7.9-2.1 1.4-3.1 1.2-1.6-.4-2.9 2.6-2.9 6.9 0 1.6 3.6 1.9 4.5.3.4-.6 1.3-.8 2-.5.8.3 2.3-1 3.6-3.2 1.9-3.3 2.2-5.4 2.6-20.7.3-13.7.1-18.1-1.2-22.5-.9-3-1.6-6.3-1.6-7.3 0-.9 0-3.8.1-6.4.1-2.7-.3-4.9-.9-5.1-.7-.2-.9-1.8-.5-4.3.6-3.6-.6-5.4-2-3"/><path d="M654.6 630.1c.2 13.3.5 24.3.8 24.6.7.7-5.1 11.8-7 13.4-.8.6-1.4 2.2-1.4 3.6 0 1.3-.5 3.3-1 4.4-.9 1.6-1.5 1.7-3.1.8-1.6-.8-2.9-.7-5.5.6-3.2 1.5-3.7 1.5-5.9.1-1.3-.9-2.5-2.5-2.7-3.7-.5-3.5-2.4-3.3-4.8.6l-2.2 3.6-2.4-2.6c-1.2-1.4-2.5-2.5-2.7-2.5-1.1 0-7.1 2.9-6.1 3 .7 0 1.9 1.6 2.8 3.5 1.8 3.7 3.3 4.8 7.9 5.9 1.9.4 2.6.3 2.2-.4-.3-.5-.4-1 0-1 .3 0 1 1.1 1.5 2.5 1 2.6 2.4 3.2 3.5 1.6.3-.6 1.8-.6 3.6-.1 1.9.6 3.9.6 4.9 0 1.2-.7 2-.6 2.2.1s2.2.9 6 .4l5.5-.7.6-5.1c.4-3 1.3-5.4 2.2-5.9 1-.6 1.5-2.5 1.5-6.1.1-4.8.2-5 1.5-3.3s1.5 1.8 1.5.3c0-2.1 1.9-2.2 2.6-.2.9 2.2 2.1 1.8 2.8-1 .8-3 2.6-3.3 2.6-.5 0 1.1.5 2 1 2 .6 0 1-2.7 1-6.3 0-4.5-.3-5.8-1-4.7-.9 1.3-1.2 1.3-2-.2-1-1.6-1.2-1.6-3.5.4-1.4 1.2-2.5 2.9-2.6 3.7 0 1.2-.3 1-.9-.4-.5-1.4.1-3.5 2.1-7.3 1.6-2.8 2.4-5.2 1.9-5.2-.6 0-1-.5-1-1 0-.6.8-1 1.8-.8 1.4.2 1.7-.3 1.4-3.4-.3-3.7-3.1-11.6-3.2-8.8 0 1-.5.8-1.5-.7-1.5-2.2-2.4-9.8-1.2-11 .4-.3.7.5.7 1.8s.5 3.1 1 3.9c1.5 2.3 1.2-10.7-.3-15.5-.7-2.2-1.9-4.1-2.7-4.3s-1.7-.8-2-1.2c-.3-.5-.5 9.9-.4 23.1M708.6 655.2c-.9.5-3.4 2.6-5.6 4.7-2.9 2.8-4 4.6-4 6.7 0 3.4-1.6 5.4-4.2 5.4-1.1 0-1.8.7-1.8 2.1 0 2.4 6 5.3 10.1 4.7 1.8-.3 3 .2 3.8 1.4 1.4 2.2 3 2.3 3.8.2.4-1-.1-2.2-1.1-3-1.5-1-1.7-2.1-1.1-6.8.6-4.8 1-5.6 2.5-5.1 1 .3 2.9 0 4.4-.6 1.4-.7 2.8-1 3.1-.7 1.1 1.1-.8 3.8-2.6 3.8-3.1 0-4.4 4.1-2.5 7.9.9 1.7 1.4 3.7 1 4.3-1 1.6 8.7.2 9.8-1.5.5-.6.6-2.5.3-4-.5-2.8-.4-2.8 3.7-2.6 4.9.4 5.6-.7 3.4-5.2-.9-1.8-1.6-3.8-1.6-4.6 0-.7-1.1-1.3-2.5-1.3s-3.6-1.1-4.8-2.3c-4.1-4.4-9.9-5.8-14.1-3.5M587.1 698.4c-.8 1-1 3-.6 5.8.4 2.5.8 6.4 1 8.9.2 2.4.4 5 .4 5.6.1.8 1.5 1.3 3.5 1.3 4.2 0 4.8-1.7 4.1-12.1-.4-6.1-.9-7.7-2.8-9.1-2.7-2.1-4.1-2.2-5.6-.4M674 699c-2.2.5-2.5 1.1-2.4 5.1 0 2.4 1 6.3 2.1 8.6 1.2 2.4 1.7 4.3 1.2 4.3s-.9.7-.9 1.5c0 1.2 2 1.5 11.8 1.5h11.9l1.2-4.1c.7-2.2.9-5.4.5-7.1l-.6-3.1-1.9 3.9c-2.2 4.7-6.5 10.1-7.3 9.3-.4-.4.3-3.6 1.5-7.3 2.1-6.3 2-9.7-.2-6.6-.8 1.1-1.2 1.2-1.6.2-.2-.6-1.9-1.2-3.7-1.2s-3.7-.5-4.4-1.2c-.8-.8-1.2-.8-1.2-.1 0 .6-.6 1.3-1.3 1.6-1 .4-1.2-.3-.9-2.3.5-3.2-.4-3.9-3.8-3M707.2 701.7c-3.2 3.2-4.3 5.2-4.7 8.5-.3 2.4-.8 5.5-1 7-.4 2.7-.3 2.8 4 2.8 4 0 4.5-.3 5.1-2.7.5-1.9.1-3.8-1.4-6.4-2.5-4.3-2.8-6.9-.9-6.9 2.1 0 4.2 2.2 6.3 6.7 1.2 2.7 2.4 4.1 3.2 3.8s1.7-.5 2.1-.5c1 0 7.1-9.4 7.1-10.9 0-.7-2.5-1.1-6.8-1.1-6.2 0-7-.2-7.9-2.2-1-2.2-1.1-2.2-5.1 1.9M388.4 700.9c-1 1.1-1.9 2.7-2 3.5s-2 4-4.1 7.3c-2.2 3.2-4.3 6.4-4.7 7.1-.6 1 2 1.3 13.3 1.1 11.1-.1 14.1-.4 14.1-1.4 0-.8-.4-1.6-.9-1.9s-2.6-3.2-4.7-6.3c-2.1-3.2-4-6-4.3-6.3s-1.1-1.4-1.7-2.4c-1.5-2.8-3.1-3-5-.7M551.6 699.9c-.4.6 0 1.4.8 1.7 1.2.4 1.3 1.1.6 2.4-.5.9-.7 2-.3 2.3.3.4-.9 1.9-2.7 3.4-2.7 2.2-6 7.6-6 9.8 0 .3 1.3.5 2.8.5 3.4 0 5.7-2.3 6.8-6.4.9-3.9 3.4-8.5 3.4-6.6.1 1.1.6.8 2-.8 2.2-2.7 4-2.1 4 1.3 0 1.3.4 2.6.9 3 1.7 1 4.1-2.6 4.1-6.1 0-3.1-.2-3.4-1.9-2.5-1.4.8-2.7.6-4.8-.4-4.3-2.1-8.9-2.9-9.7-1.6M610.6 710.2c-2 10.5-2.1 9.8 1.4 9.8h3v-6c0-3.3.4-6 1-6s1 2.7 1 6c0 5.3.2 6 2 6 1.6 0 2-.7 2.1-3.8.2-8-1-14.2-2.9-14.2-.4 0-1.3 1.2-1.9 2.7l-1.1 2.8-.1-2.8c-.1-1.6-.7-2.7-1.5-2.7-.9 0-1.9 2.8-3 8.2"/></svg>