<svg xmlns="http://www.w3.org/2000/svg" width="1706.667" height="960" viewBox="0 0 1280 720"><path d="M0 5.4c0 5.9.6 6.7 6.2 8.7 2 .7 3.6 1.6 3.5 2.1-.2 1 2.5 2.7 11.3 6.8 8.2 3.9 10.9 5.5 18.9 10.8 3.5 2.3 7.2 4.2 8.2 4.2s3.8 1.1 6.1 2.5c2.4 1.4 6.3 3.5 8.8 4.7 2.5 1.1 4.7 2.4 5 2.8 1.1 1.5 7.3 4.1 12.2 5 7.9 1.5 11.3.5 13.6-4.1l1.9-3.8-2.6-2.4c-1.4-1.4-3.9-3.3-5.6-4.3-1.6-1.1-3.8-2.6-4.8-3.4s-2.1-1.5-2.5-1.5-3.3-2.6-6.5-5.8C69.3 23.4 67.3 22 65 22c-1.8 0-4.2-1.1-6.2-2.8-1.8-1.6-4.6-3.4-6.3-4-4.8-2-10.2-7.7-10.9-11.6L40.9 0H0z"/><path d="M62 .7c0 .5 2.6 2.1 5.8 3.8 3.1 1.6 7.1 4.4 8.9 6.2 1.7 1.8 6 4.4 9.4 5.8 3.5 1.4 7.9 3.6 9.9 4.9 7 4.6 9.5 6.1 12.1 7.2 1.4.6 4.1 2.5 6 4.1 1.9 1.7 4.9 3.8 6.7 4.7 1.7.9 3.2 2 3.2 2.4 0 .5 3.9 2.8 8.8 5.3 4.8 2.4 10.5 5.8 12.7 7.5s5.7 3.8 7.9 4.5c2.1.8 4.1 1.9 4.3 2.6.3.7 2.8 2.6 5.7 4.2 2.8 1.7 6.6 4.3 8.3 6 1.8 1.6 4.7 3.2 6.5 3.5 1.7.3 4.4 1.4 5.9 2.5 1.6 1.2 3.3 2.1 3.8 2.1.6 0 2.2 1.6 3.7 3.5 2.5 3.3 2.6 3.8 1.4 7.4-1.8 5.6-4.1 6.6-9.3 4-2.3-1.2-6.6-3.7-9.5-5.6-3-1.9-6.6-3.6-8.2-3.9-1.5-.3-4.4-2.1-6.5-3.9-2.1-1.7-6-4-8.7-5-4.8-1.7-5-1.7-6.9.3-2.5 2.8-2.4 6 .3 8.9 3 3.2 4.2 12.8 1.7 14-5.1 2.4-13.3 11.1-18.4 19.7-6.4 10.8-6.9 13.8-2.5 15.6 4.3 1.8 6.1 5.8 5.4 11.4l-.7 4.6h-4.6c-2.5 0-6.2-.5-8.1-1.1-1.9-.5-4.2-1.2-5-1.4-3.5-1-19.6-7.8-21-8.9-2.4-2-6.9-3.6-9.8-3.6-1.5 0-6.3-2-10.7-4.6-4.4-2.5-10.5-5.6-13.6-7s-7.2-4.1-9-6c-3.2-3.3-3.6-3.5-8.4-2.9-5.6.7-9.3-.9-21.8-9.2-5.1-3.5-6.7-5.1-6.7-6.9 0-1.3.5-2.3 1.2-2.1.7.1 1.5-1.2 1.9-2.8.6-2.8.7-2.9 1.4-.8.5 1.6 2.1 2.7 4.9 3.5 2.2.7 4.6 1.9 5.2 2.7.9 1.1 1.5 1.2 2.5.4 4-3.1 7.6-2.3 28.2 6.4 3.1 1.3 6.6 2.6 7.7 2.8s2.4.7 3 1c2.1 1.3 4.6-3.5 6.7-12.5C77 81.6 78 76.2 78 72.7c-.1-4-4.3-9.1-9.2-11.1-1.9-.9-4.9-2.6-6.4-3.9-3.2-2.7-11.8-7.1-15.7-8.1-1.4-.3-4.8-2.4-7.6-4.6s-5.5-4-6.1-4c-1 0-11.6-5.3-25.7-12.9L0 24.2v292.9l25-.3c17.8-.2 25.3-.6 25.8-1.5 1.4-2.2 5.9-2.5 9.7-.7 3.2 1.5 4.3 1.5 9 .5 3.5-.8 6-.9 7.2-.3 3.4 1.8 11.8 2.3 18.8 1.1 3.9-.6 21.1-1.2 38.5-1.4 44.5-.4 78.9-1.7 79.8-3.1.4-.7 1.8-1.4 3.2-1.5 1.4-.2 2.5-1 2.5-1.7 0-2.7 6.3-5.2 13.2-5.2 7.8 0 12.3-2.4 14.4-7.7.7-1.7 1.8-3.4 2.6-3.7.7-.3 1.3-1.1 1.3-1.8 0-1.2 3.4-4.8 4.5-4.8.3 0 .5 1.2.6 2.7 0 2.5.1 2.6.9.8 1.3-3 1.2-3.3-1-4-1.1-.3-2-1.1-2-1.6 0-.8-1-2.1-5.7-7.1-.9-1-1.9-1.6-2.1-1.3-1.1 1.1-4-3.8-4.6-7.7-.4-2.3-1.2-4.6-1.9-5-2-1.2 0-2 6.6-2.5 6.3-.5 6.4-.5 7.6 2.4.6 1.6 2.4 4.2 3.8 5.8l2.7 2.8 1.4-2.1c.8-1.2 2.3-2.2 3.3-2.2 1.2 0 1.9-.7 1.9-1.9 0-1 .7-2.1 1.5-2.5.8-.3 1.5-1.2 1.5-2.1 0-.8.3-1.5.8-1.5.4 0 1.8-1.8 3.2-4.1 1.4-2.2 3.3-4.5 4.3-5 .9-.5 1.7-1.5 1.7-2.2.1-2.4 4.9-6.7 7.5-6.7 1.4 0 2.8-.7 3.1-1.5.4-.8 1-1.3 1.4-1 .5.3 1.1-.5 1.5-1.7.3-1.3 1.3-3.9 2.2-6 1.3-3.2 1.4-6.6.3-29.5-2.2-47.7-2.3-52.9-1.2-56.4.9-2.8 3.4-25.5 4.8-43.4.3-3.6-.1-4.4-3.9-7.8-2.3-2.1-6.2-4.9-8.7-6.2-3-1.5-5-3.4-5.9-5.5-1.4-3.4-5.1-7.3-15.9-17.2-5.4-4.9-6.1-6-5.3-7.7 1.9-3.5 4.2-5.1 7.5-5.1 2.6 0 4.3 1.2 9.6 6.5 3.5 3.6 7 6.5 7.6 6.5s1.7.7 2.4 1.5 3.1 2.4 5.5 3.6 4.8 3.2 5.5 4.4c.7 1.3 2.1 2.5 3 2.8 2.1.5 2.5-.6 3.5-9.8.7-5.5 6.2-29.9 8.4-37 .6-1.7 1.3-4.8 1.6-7 .4-2.2 1.5-6.9 2.5-10.5s2.1-7.7 2.4-9.3L320 0h-63.4l6 5.9c3.3 3.2 7.9 7 10.2 8.5 6 3.7 5.8 8.7-.3 10-5.2 1.1-9.5-1.6-20.5-13.3L241.5 0h-89.7C102.4 0 62 .3 62 .7m204.5 124.4c2.2.6 5.1 1.3 6.5 1.6 1.4.4 4.6 2.4 7.3 4.6 4.3 3.7 4.7 4.4 4.7 8.4 0 2.3-.4 4.3-1 4.3-.5 0-1 .9-1 2.1 0 2.8-1.8 6-4.7 8.2-2.7 2.2-2.9 3.9-.7 7.3 2 2.9 1.7 3.3-3 4.4-3.1.7-3.9.4-6.8-2.4-1.8-1.8-6.3-4.7-9.8-6.4l-6.5-3.2-4.2 2c-5.1 2.4-6.9 2.5-7.7.4-1.2-3.1-.5-5.1 3.4-9.4 3-3.3 4.2-5.7 5-9.9.9-4.6 1.9-6.3 5.3-9.4 4.4-3.9 6.5-4.4 13.2-2.6M41.2 149.4c2.9 1.3 9.4 3.6 14.3 5.2 5 1.6 12.1 4.3 16 6.1 3.8 1.8 7.9 3.3 9 3.3s4 1 6.5 2.1c5.8 2.6 15.5 5.9 17.5 5.9.9 0 4.2 1.4 7.4 3 3.2 1.7 6.8 3.2 7.9 3.5 6.3 1.2 8 4.4 6 11.2l-1.3 4.5-6.5-.4c-5-.4-9.6-1.8-19.5-6-7.1-3.1-15-6.2-17.5-6.9s-4.7-1.6-5-1.9c-.7-.8-16.8-6.9-22.3-8.5-2.6-.7-5.5-1.9-6.3-2.6-1.5-1.2-6.5-2.5-14.9-3.8-9-1.4-12.5-4.4-12.5-10.8 0-2 .4-2.4 2-2 1.1.3 3.2-.5 5.1-1.9 4.1-3 7.5-3 14.1 0M170 155c2.5.7 5.6 1.8 7 2.6 3.8 1.9 13.2 5.5 15.6 6 1.2.2 5.4 1.8 9.2 3.4 3.9 1.7 7.9 3 8.9 3s3.2.9 4.9 1.9c3.7 2.3 8.4 11.6 8.4 16.7 0 3.3-.1 3.4-4.1 3.4-5.1 0-7.5-1.3-9.4-5.1-1.8-3.5-5.5-7.4-7-7.4-2.5 0-7.4-2.8-6.8-3.9.3-.6.3-.8-.1-.4-.9.7-11.6-3.7-28.8-11.9-8.5-4-11.8-6.1-11.8-7.4 0-3.1 4.5-3.4 14-.9m56 94.2c1.6 1.8 3.4 4.7 4 6.5.8 2.3 1.8 3.3 3.6 3.5 3.2.4 3.2 2.2 0 2.6-2.2.3-2.6 1-3.2 5.3-.4 2.9-1.3 5.3-2.1 5.6-1.7.7-4.3 6.7-4.3 9.9 0 1.9-.5 2.4-2.5 2.4-2.2 0-2.5-.4-2.5-3.4 0-2.7-.7-3.9-3.5-6-1.9-1.4-4.9-2.9-6.7-3.3-1.8-.3-5.2-1.6-7.6-2.9-2.8-1.6-5.9-2.4-9-2.4-2.7 0-5.3-.5-5.9-1.1s-4.1-1.4-7.8-1.9c-8.1-1-10.5-2.8-10.5-8.2 0-3.1.4-3.8 1.9-3.8 1.1 0 2.3-.5 2.6-1 1.1-1.7 6.4-1.1 11.3 1.4 5.9 2.9 19.4 5.1 26.6 4.2 5.8-.8 6.3-1.3 6.2-6.1-.2-5.3 5.1-6 9.4-1.3M349.5 3.4c-1.9 4.4-.6 38.8 1.2 34.6.7-1.4 2.5-4 4-5.8 1.6-1.8 3.5-4.9 4.3-7 .7-2 2.2-5.1 3.4-6.7 2.7-3.8 2.9-4.7 3.4-12.3l.4-6.2h-15.3zM370.4 1.6c.3.9.6 1.8.6 2.1 0 .2.7-.3 1.6-1.2s1.9-1.3 2.2-1 0 1.1-.6 1.7c-.7.7-1.2 2-1.2 3.1 0 1-.4 1.6-.9 1.3-1.2-.8-1.3 12.3-.2 28.6 1 14.7 1.6 17.2 3.7 14.3.7-.9 1.8-1.5 2.6-1.3 1.3.5 9.4-7.3 14.3-13.8 1.6-2.1 3.3-4.2 3.9-4.6.7-.4.6-4.3-.2-11.5-.7-6-1.2-12.8-1.2-15.1V0h-12.6c-11.1 0-12.5.2-12 1.6M397 1.5c0 1.9 3 21.6 3.6 23.3.3 1 1.9.1 5.3-2.7 2.7-2.3 5.2-4.1 5.7-4.1.4 0 2.3-1.4 4.1-3.2s3.3-2.6 3.3-1.9c0 1.8-5.5 7.5-12.2 12.7l-5.8 4.5v6.7c0 3.7.7 12.1 1.5 18.7s1.6 19.2 1.7 28c.2 8.8.7 16.6 1.2 17.3.6 1.1 3.1 1.2 11 .7 9.3-.6 24.4-3 25.5-4 .6-.7-4.3-39.2-5.2-40.1-.4-.4-15.8 5-23.1 8.1-1.4.6-1.8.5-1.4-.6.5-1.6 2-2.4 14.3-7.9 10.5-4.6 9.7-1.4 7.1-27-2.3-22.6-2.5-24-4.3-24-1.1 0-1.3-.7-.8-3l.7-3h-16.1C399.6 0 397 .2 397 1.5M438 .7c-3.1 1.3-5.2 4.2-4.7 6.5.3 1.3.9 5.9 1.2 10.3 1.2 13.8 4.1 32.5 5.4 33.8.9.9 3.6.6 11.9-1 5.9-1.3 13.7-2.5 17.4-2.9 10.8-1.1 10.4-.2 8.3-20-.9-9.3-2-19.2-2.4-21.9l-.6-5L457 .3c-9.6-.1-18.2.1-19 .4M477 3.7c0 2.1.5 6.5 1 9.8s1.4 10.6 2 16.2c.5 5.6 1.2 11.4 1.6 12.9l.7 2.6 14.6-.6c8-.4 18.3-.9 22.7-1.2l8.2-.6-.4-6.2c-.6-7.5-2.3-26.6-3-32.4l-.5-4.2H477zM526.3 3.7c.3 2.1 1.1 9.2 1.7 15.8.7 6.6 1.5 14.5 1.8 17.5l.7 5.5h25.9c14.2 0 25.9-.2 26-.5.2-.4-1.7-34-2.3-41.3-.1-.4-12.3-.7-27.2-.7h-27.2zM582.3 6.2c.3 3.5 1.1 13.1 1.8 21.4l1.2 15 18.1 1.3c10 .7 21.8 1.6 26.4 1.8l8.2.6V0h-56.3zM640 23.1v23.1l8.8-.5c11.6-.6 43.7-2.8 43.9-3 .1-.1.6-7.6 1.2-16.7s1.3-18.6 1.5-21.3l.3-4.7H640zM696.6 16.7c-.4 9.3-.9 18.9-1.3 21.6l-.6 4.7 25.9-.2 25.9-.3.7-6c1.7-14.6 3.8-34.1 3.8-35.3 0-.9-6-1.2-26.8-1.2h-26.9zM753.6 2.2c-.7 3.4-3.5 27.3-4 34.4l-.4 6.1 5.1.7c9.9 1.1 39.4.7 40.4-.7.9-1.1 1.7-6.3 4.4-27.7.4-3.6 1.1-8.4 1.5-10.8l.7-4.2H754zM803 3c0 1.7-.4 5-.9 7.3-1.5 6.6-4.5 33.7-3.8 34.3.6.6 30 5.1 36.9 5.5 3.7.3 4.2.1 4.9-2.1 1.5-4.5 5.2-33.3 5.3-40.5l.1-7-21.2-.3L803 0zM852 1c0 .5.7 1 1.5 1s1.5.6 1.5 1.2c0 1.2 5.4 6.8 14.6 15.5 4.3 3.9 8.3 6.5 9.3 5.9.4-.3 1.1-4.6 1.5-9.7.4-5 .9-10.4 1.3-12l.6-2.9h-15.2c-9.4 0-15.1.4-15.1 1M884.5 1.2c-1 3.2-2.2 26.4-1.5 28.2.4 1.2 2.7 3.9 5 6.1s7.1 7.5 10.7 11.7c4.9 5.8 6.9 7.5 7.8 6.8 2.3-1.9 4.6-44 2.5-46.5-.6-.8-.9-1.9-.5-2.5.3-.5.2-1-.4-1-.5 0-1.3-.9-1.6-2-.6-1.8-1.5-2-11.1-2-7.5 0-10.6.4-10.9 1.2M914.4 7.6c.4 4.2.3 8.1-.2 8.7-1.6 2.1-2.2 7.7-2.8 24.7-.7 19 0 23 5.1 28.7 1.9 2.1 4 5.3 4.7 7 .7 1.8 1.6 3.3 2 3.3s.8.6.8 1.2c.1 2 4.8 7.3 5.7 6.4s2-15.8 2.2-28.6c.1-7.6-.3-9.4-3.3-16.2-1.8-4.3-3.8-8.3-4.3-9-.6-.7-1.7-2.8-2.6-4.5l-1.5-3.3 2.4 1.8c1.3.9 2.4 2 2.4 2.4 0 1.2 6.1 9.8 6.9 9.8 1.7 0 3.1-29.7 1.8-36.3l-.8-3.7h-19.2zM960 .8c0 .4.4 1.2.8 1.7.5.6 1.8 5.3 3.1 10.5 1.2 5.2 2.8 12 3.5 15 1.8 7.2 4.3 18.8 6.1 27.5.8 3.8 2.1 10.1 2.9 14 4.5 21 8 57.7 8.3 87.5.1 12.9.3 24.4.4 25.5s-.4 6.3-1 11.5c-1.3 11.9-1.4 26.7-.1 27.5.6.3 1 1.5 1 2.7 0 1.9.4 2 6.2 1.4 3.4-.4 7.4-1.4 8.9-2.2 4.9-2.5 7.6-1.9 8.9 2.2 1.1 3.1.9 3.9-1.1 6.9-2 2.8-2.8 3.2-5.4 2.8-3.4-.5-12.5 3.1-12.5 5-.1 1.4-3.6 4.1-6.7 5.1-2 .6-2.1 1.2-2 12.1l.1 11.3 6-3c5.5-2.8 6.6-3 13.6-2.6 5.3.4 8.7 1.2 11.5 2.7 4.5 2.6 7.5 5 7.3 6-.1.3.4 1.9 1.1 3.5.7 1.8 1.1 7.2 1 13.9-.1 8.5.2 11.2 1.4 12.4 1.3 1.3 1.2 2-.9 5.9-1.3 2.5-2.4 4.9-2.4 5.3 0 .5 1.7 1.2 3.8 1.6 2 .3 6.3 1.6 9.5 2.7l5.8 2.1 2.5-2.6c2.9-3.1 6.6-3.5 9.2-.9 5.2 5.2 10.7 6.7 13.2 3.7.7-.8 2.6-2.1 4.2-3 2.7-1.3 3.3-1.3 5.9.1 1.6.8 3.5 2.3 4.2 3.4 1.3 2.1 4.6 2.6 7.5 1.1.9-.5 4.2-1.6 7.3-2.5 5.3-1.5 5.5-1.7 5.1-4.4-.2-1.8.2-3.5 1.2-4.5.9-.8 1.6-2 1.6-2.6 0-1.4 2.6-1.9 14-2.5 5.2-.4 11.1-1 13-1.6 1.9-.5 11.8-1.4 22-2s22.4-1.4 27.2-1.7 9.9-.2 11.4.1c2.3.6 2.5 1 2 3.9-.4 1.8-.7 3.8-.8 4.5-.1 1.4-1.9 1.9-8.8 2.6-2.5.2-8.1.9-12.5 1.5s-16.5 1.8-27 2.6c-21.2 1.7-27 2.6-30.2 4.3-1.2.7-2.8 1.1-3.5 1-3-.7-1.7 3.2 2.1 6.3 4.6 3.7 5.3 7.2 2.2 10.6-1.4 1.4-2.7 1.9-5 1.5-1.7-.2-3.1-.8-3.1-1.3s-.9-.9-1.9-.9c-1.1 0-2.3-.5-2.6-1-.4-.6-1.4-1-2.3-.9-4.2.7-8.8-1.3-11.2-4.6-1.4-1.9-3.3-3.5-4.2-3.5-2.2 0-3.8 5.6-3.8 13.5 0 4.9.4 6.2 2 7.3 1.8 1.1 2 2.3 2 10.8 0 10.7-1.4 14.4-7.1 18.5-2.4 1.7-2.9 2.7-2.9 6.4 0 3.8-.4 4.5-3.4 6.3s-6.6 6.2-5.1 6.2c.3 0 0 .6-.7 1.3-1 1.1-2.3 1.1-7.2.1-3.2-.7-6.5-1-7.2-.7-1.8.7-5.5-1.4-8.4-4.8-1.5-1.7-3.6-3-5.2-3.1s-2.8-.6-2.8-1c0-.8-5.4-.1-8.5 1.2-1.1.5-4.4 1.1-7.3 1.4-5.8.6-12.2 4.6-12.2 7.7 0 1-.4 2-.9 2.3-.4.3-1.2 2.7-1.5 5.3-1.7 11-2.5 16-3.1 18.5-.7 2.7-.6 2.8 2.8 2.8 1.9 0 3.7.4 3.9.9s1 1.1 1.8 1.3c1.8.4 7 5.9 7 7.5 0 .6-.4 1.5-1 1.8-.5.3-1 2.2-1 4.1s-.7 6-1.5 9.2c-.8 3.1-1.7 6.9-2 8.4-.4 2.2-1.4 3-4.7 3.8-3.4 1-4.8.9-8-.6-4.6-2.1-6.9-1.2-7.5 2.7-.2 1.3-.8 4.8-1.3 7.8-.6 3-1 7.9-1 10.9 0 4.5.3 5.3 1.6 4.8 1.9-.7 4.4 1.6 4.4 4.1 0 2.7-2 4.3-5.2 4.3-1.8 0-2.8.5-2.8 1.5 0 .8.5 1.5 1 1.5.6 0 1 .5 1 1.1 0 .5-.4.8-.9.5-1.5-1-6.7 4.1-8.9 8.6-2.4 5.2-7.6 10.1-12.4 11.8-3.2 1.2-3.7 1.9-4.6 6.4-1.6 7.4-3.8 20.5-5.6 33.6-.9 6.3-2.1 14.3-2.6 17.6-1.5 9.4-1.3 12.2 1.2 14.2 1.1.9 5.5 4.8 9.6 8.7 4.1 3.8 8.1 7.4 9.1 7.9.9.5 1.8 1.2 2.1 1.6 1.3 1.8 10.8 6 13.7 6 1.7 0 3.8.6 4.5 1.3s2.1 1.6 3.1 2c1.1.4 1.7 1.7 1.7 3.8 0 2 1.1 4.6 2.8 6.8 3.5 4.7 7.2 10.1 7.2 10.6 0 .3-.5.5-1.1.5-.5 0-.7-.5-.3-1.1.3-.6-.4-.4-1.7.4-2.1 1.4-2.9 1.4-6.4.1-2.2-.8-6.1-1.3-8.7-1.2-3.8.1-5.2-.3-7.1-2.3-1.3-1.3-2.7-3.4-3.1-4.6-1.4-4.4-27.2-27.3-30.8-27.3-1.2 0-2.4 3.5-3.7 10.5-.7 3.3-2.3 9.4-3.7 13.5s-2.8 8.6-3 9.9c-.9 4.6-11.6 35.7-15 43.6-1.9 4.4-6.7 14.2-10.5 21.7l-7.1 13.8h10.1c10 0 10.1 0 10.1-2.4 0-2.6 3.3-5.6 6-5.6.9 0 3.5 1.8 5.8 4l4.1 4h63l-.6-3.4c-.5-3-.1-3.9 2.3-6 4.3-3.8 6.2-3.3 12.4 3.4l5.6 6h78.2c74 0 78.1-.1 77.5-1.8-.3-.9-1.4-2.5-2.5-3.5-1-1-1.8-2.8-1.8-4.1 0-2-.4-2.2-3.2-2-5.3.4-8.4-.5-9.8-3.1-.7-1.4-2.7-2.9-4.4-3.5-1.8-.5-3.8-1.9-4.6-3s-2-2-2.8-2c-.7 0-2.5-1.2-4-2.7-2.6-2.7-8.7-6.3-10.5-6.3-1.9 0-5.2-3.6-4.9-5.3.7-3.7-3.2-11.3-9.2-17.7-3.4-3.6-6.8-7.5-7.6-8.8-1-1.6-2.8-2.5-5.7-2.9-2.3-.3-8-2.4-12.5-4.7l-8.3-4.1-.3-4.7c-.3-4.3 0-4.9 2.2-5.9 3.4-1.6 9.8 1.1 18.2 7.8 3.6 2.9 7.1 5.3 7.9 5.3.7 0 1.5.6 1.8 1.4.3.7 1.8 1.7 3.3 2 4.6 1.2 15.8 8.4 17.9 11.6 1.1 1.6 3.1 3.4 4.5 4 1.4.5 3.9 1.9 5.5 3 1.7 1.1 4.1 2.4 5.4 3 2 .9 2.3 1.6 1.8 4.4-.3 1.8-.2 3.8.2 4.5 1 1.6 7.7 2.6 8.5 1.2 1.3-2 6-1.1 10.9 1.9 2.6 1.7 4.7 3.4 4.7 3.9s1.1 1.2 2.4 1.5c1.4.3 4.4 2.1 6.8 3.9s6.8 4.6 9.8 6.3c3 1.6 5.7 3.1 6 3.4s2.3 1.4 4.5 2.5 4.6 2.8 5.3 3.8c.7.9 1.7 1.5 2.1 1.3.4-.3 2.9 1.7 5.5 4.4l4.9 5h53.7v-76.5c0-42.1-.2-76.5-.5-76.5s-.9 1-1.4 2.3c-.6 1.6-1.8 2.3-4.2 2.5-5.6.4-15.9-5-15.9-8.4 0-.7 1-2.5 2.3-4.1 1.2-1.5 2.2-3.9 2.2-5.3s.7-2.8 1.5-3.2c2.4-1 11.8-.9 12.5.2.3.5 1.3 1 2.1 1 1.2 0 1.4-4.3 1.4-28v-28h-6c-4.2 0-7.6-.7-11.6-2.5-3.1-1.4-7.3-2.5-9.3-2.5-3.2-.1-15-2.8-12.7-2.9.6-.1.6-.5 0-1.1s-2.1-.6-4.3 0c-2.6.7-4.6.5-9-1.1-3.1-1.1-8.2-2.2-11.4-2.6-3.2-.3-6-1-6.3-1.4-.3-.5-2.4-.9-4.7-.9-2.4 0-6.4-1.1-9.2-2.5-2.7-1.4-6.5-2.5-8.3-2.5s-4.2-.4-5.2-1c-1-.5-5.1-1.2-9-1.5-5-.3-7.9-1-9.2-2.2-2.9-2.6-4-5.1-3.3-7.4.6-1.8 1.3-2 4.8-1.6 7.6.9 11 1.6 12.1 2.7.5.5 4.9 1 9.6 1 6.8 0 10 .5 14.9 2.5 5.1 2 7.4 2.3 12 1.9 4.9-.5 6-.3 9 2 2.2 1.7 4.8 2.6 7 2.6 2 0 4.9.7 6.5 1.5 1.5.8 4.6 1.5 6.7 1.5 2.2 0 5.6.7 7.7 1.6 3.6 1.6 22.6 5.4 27 5.4h2.2V0h-159.5l-4.7 3.4c-2.6 1.8-6.2 5.1-8 7.4-2.3 2.8-3.9 3.9-5.1 3.6-1.4-.5-7.1 2.6-8.7 4.7-.3.3-3.2 2.8-6.5 5.4-3.3 2.7-6.1 5.2-6.3 5.6-.7 1.7-6.9 3-9.5 2-3.1-1.2-6.7-4.6-6.7-6.4.1-1.9 3.9-5.9 10.5-11.2 3.3-2.6 7.4-6.2 9-7.9 1.7-1.7 4.2-3.9 5.5-4.8 2.4-1.6-1.1-1.7-63.7-1.7-36.5-.1-66.3.3-66.3.7m178 117c0 1.7-.9 3.7-2.2 4.9-2.2 2-14.5 8.7-16 8.8-.4 0-1.7.8-2.8 1.8-1.2 1-3.2 2.3-4.6 2.9-1.3.6-2.4 1.5-2.4 2 0 .4-.7.8-1.5.8s-2.3.4-3.3.9c-.9.5-3.5 1.7-5.7 2.6-2.2 1-4.8 2.2-5.7 2.6-1 .5-2.4.9-3.2.9-.7 0-2.5.9-3.9 2s-3.3 2-4.3 2c-.9 0-3.5 1.5-5.8 3.4-2.3 1.8-5.1 3.6-6.3 4-2.9.9-6.3-.1-6.3-2 0-.8-.4-1.4-1-1.4-2 0-.9-3 1.8-4.7 1.5-1 3.3-2.3 4-3s2.2-1.3 3.3-1.3 1.8-.4 1.5-.9 1.1-1.1 3.1-1.4c3.3-.6 14-5.3 15.3-6.8 1.4-1.6 11.3-5.6 12.9-5.2 1.2.3 2-.2 2.3-1.5.4-1.3 2-2.5 4.7-3.3 2.2-.7 4.1-1.5 4.1-1.9 0-.3 2.3-1.3 5-2 2.8-.7 5-1.7 5-2.2 0-.4.5-.8 1.1-.8s2.2-.9 3.6-2 3.6-2 4.9-2c2 0 2.4.5 2.4 2.8m-4.8 21.6c1 .7 2.5 2.9 3.3 5 .8 2 2.2 3.6 3 3.6 2 0 3.7 4.2 2.1 5.2-1.7 1-6.2-.2-4.6-1.2.8-.5.1-1.3-2-2.3-3-1.5-3.6-1.5-10.1.5-6.1 2-7 2.5-8 5.5-.6 1.8-1.3 3.2-1.7 3.2-.4-.1-1.4-.1-2.2 0-1.3.1-1.3.2 0 1.1 1.2.7 1.2 1 .1 1-.9 0-1.1.8-.6 2.7.7 3.1 3.5 6.6 3.5 4.5 0-.7 1.1-1.2 2.4-1.2s4.7-1.6 7.6-3.6l5.2-3.6 2.4 2.3c1.3 1.2 2.4 1.9 2.4 1.5s.8 0 1.7 1c1.7 1.6 1.8 1.6 2.3-.7 1.2-5.1 9-2 9 3.6 0 3.1 2.3 8.9 9.4 23.8 3.9 8.2 5.6 13 5.6 15.8 0 7.3-6.9 17.1-13.1 18.4-1.9.4-4.3 1.4-5.4 2.1-3.1 2.2-12.8 1.8-15-.6-1-1.1-2.6-2.2-3.6-2.5-3-1-6.9-8.6-6.9-13.3 0-2.3-.7-5.6-1.6-7.4-1.2-2.5-1.3-4-.5-6 1.2-3.1 7.9-7.7 13.3-9.1 3.7-.9 3.8-1 3.4-5.1-.1-2.3-1.4-6.1-2.7-8.4-2.1-3.7-2.8-4.2-5.9-4.2-5.4 0-8 1-8 3.1 0 3.5-2.2 6.9-4.5 6.9-3 0-3.9-1.3-7-9.9-2-5.4-2.5-8.5-2.2-12 .9-8 2.4-13.1 4.6-15.5 1.1-1.2 2.1-2.7 2.1-3.4 0-2.1 19.6-2.8 22.2-.8m-92.1 109.4 3.1 2.8-1.7 3.4c-1.5 3.3-1.9 3.5-5.5 3.2-2.9-.3-4.6.2-6.6 1.7-4 3.1-13.4 2.8-13.4-.5 0-.7.7-3.2 1.7-5.5l1.6-4.1 4.4.6c4.8.6 8.3-.6 8.3-2.9 0-2.5 4.7-1.7 8.1 1.3M1097 344c.8.5 1.2 1 .8 1-2.3 0 4.6 5.1 7.8 5.8 3.7.7 3.9 1 4.2 5 .3 4.2 3 7.1 5.2 5.7 1-.6 5 6.5 5 9 0 .9-1.8 3.5-4 5.7-3.7 3.9-4.5 4.2-9.1 4.3-4.2 0-5.2-.3-5.5-1.8-.4-2.8-2.5-4.8-4.4-4.2-2.5.8-6.6-1.3-8.1-4.1-1.1-2.1-.9-3.1 1.5-7.7 2.5-5.1 2.6-5.4 1.1-8.5-.9-1.7-2-3.4-2.6-3.7-1.4-.9-1.1-3.3.9-5.4 1.9-2.1 4.9-2.6 7.2-1.1m8.4 68.7c3.1 1.4 3.5 2 2.9 4.2-.3 1.4-1.1 3.2-1.7 4s-1.1 4.2-1.1 7.5c0 3.4-.3 6.2-.7 6.4s-2.3.9-4.2 1.7c-4.5 1.9-4.7 1.9-8-.8-1.5-1.2-4.4-2.7-6.4-3.3-2.7-.7-3.6-1.5-3.4-2.7.5-2.8 16.5-18.6 18.9-18.7.1 0 1.8.8 3.7 1.7m-10.8 29.2c3.2 3.1 6 4.8 7.2 4.4 1.8-.7 11.2 9.1 11.2 11.6 0 1.3-1.1 1.6-6.3 1.5-3.5 0-7.3-.6-8.7-1.5-1.7-.9-6.9-1.6-16.2-1.9-12.6-.5-13.8-.7-16.1-2.9l-2.6-2.3 3.1-4.9 3-4.9 12.6.4c7 .2 12.7.5 12.8.5m81.4 43c3.5.6 8.9 1.8 12 2.7 3 .9 7.2 2.1 9.4 2.7 2.1.6 4.4 1.6 5 2.2.6.7 1.7 1 2.4.7 2.9-.9 22.8 3.1 28.2 5.8 3.3 1.6 8.1 3 12 3.4 10.8 1.2 11 1.3 11 5.8 0 6.4-1.3 7.8-7.1 7.8-3.6 0-7.1-1-12.4-3.4-5-2.3-9.6-3.6-14.2-4.1-6.8-.6-15.3-3.1-16.4-4.7-.5-.8-20.4-4.6-27.9-5.3-4.2-.4-18.1-6-19.2-7.8-1-1.5-1-6.1-.1-7.1.9-.8 7.5-.3 17.3 1.3m14 40.6c1.4.8 5.1 1.4 8.2 1.5 5.8 0 14.8 2.8 17.9 5.6 2.7 2.4 13 5.4 18.7 5.4 4.4 0 6.7.7 11.1 3.1 10.1 5.7 10.6 7.6 3.4 12-2.7 1.7-3.3 2.7-3.1 4.8.3 2.2-.1 2.6-2.5 2.9-4.9.6-16.6-2.7-25.6-7.3-4.8-2.4-10.5-4.6-12.7-5-6.5-1-11.8-2.8-13.9-4.6-1.1-1-3.2-2-4.7-2.3-1.6-.3-3.8-.8-5.1-1.1-3.6-.7-6.7-4.2-6.7-7.6 0-1.8.4-2.8 1-2.4s1-.6 1-2.3c0-1.6.3-3.2.7-3.5 1.2-1.2 9.7-.7 12.3.8m16.4 157.2c1.7 5.1 3.3 9.3 3.6 9.3.4 0 2.1-4.3 3.9-9.5 2.6-7.5 3.7-9.5 5.2-9.5 1.1 0 1.9.1 1.9.3 0 .1-2 5.9-4.4 12.7-3.4 9.9-4.8 12.6-6.4 12.8-2.2.3-1.8 1-7.3-14.6-3.8-11-3.8-11.3-1.7-11 1.8.2 2.7 2 5.2 9.5m28.9-.5c1.4 1.3 2.8 3.5 3.1 5l.6 2.8h-6.9c-3.8 0-7.2.4-7.6 1-.3.5.3 1.8 1.5 3 2.1 2.1 6.4 2.7 7.5 1 .8-1.3 4.5-1.3 4.5-.1 0 1.8-4.4 4.1-7.8 4.1-4.8 0-9.2-4.6-9.2-9.5 0-7.7 8.9-12.2 14.3-7.3m21-1c3.4 1.8 4.6 4 4.7 8.5 0 5.7-3.5 9.3-9.1 9.3-3 0-4.6-.6-6.4-2.6-7.1-7.6 1.8-20.1 10.8-15.2"/><path d="M1139 171.6c0 3.1 3.7 11.4 5 11.4.6 0 1 1.2 1 2.7 0 1.6.9 4.8 2 7.2s2 4.8 2 5.5c0 1.9-4.9 6.5-7.8 7.3-1.5.3-3.9 1.5-5.4 2.6-3.4 2.5-5.5 1.7-7.4-2.8-.8-1.9-1.6-3.5-1.9-3.5s-.5 2.1-.5 4.7c.1 3.5.7 5.6 2.3 7.6l2.3 2.7 11.7-.6c11.2-.7 14-1.5 9.7-2.9-2.2-.7-2.8-3.5-.7-3.6.6 0 2.2-1.3 3.5-2.9l2.3-3-2.5-4.3c-1.4-2.4-2.6-5.5-2.6-6.8 0-2.5-2.7-10.3-5.4-15.4-.9-1.7-1.6-3.6-1.6-4.4 0-1.6-2.9-4-4.7-4.1-.7 0-1.3 1.1-1.3 2.6M849.2 6c-.9 2.4-2.7 14.5-5.3 35.3-.7 5.7-.8 10.1-.3 10.6.5.4 3.4 1.7 6.4 3 9 3.7 14 6.3 14 7.2 0 1.4-.8 1.1-14.5-4.6-1.1-.5-2.4-.9-3-1-.5 0-1.5-.4-2.2-.8-.6-.4-1.5-.2-1.9.4-.3.6-1.7 9-2.9 18.7-1.3 9.8-2.6 18.9-3 20.4-.4 1.6-.3 2.8.1 2.9.5 0 2.3.2 3.9.4 10.9 1.3 33.1 3.3 33.6 3 .8-.5 2.2-18.1 2.4-30 .1-5 .7-13.1 1.3-18 1.5-11.4 1.5-20 .1-22.7-1.5-2.9-22-22.8-23.4-22.8-.7 0-1.9-1-2.8-2.3l-1.5-2.2zM341.2 18.7c-.6 1.6-1.8 5.2-2.7 8.2s-2.4 6.1-3.4 7-2.4 4.3-3.1 7.6c-1.6 7.3-1.6 28.3-.1 29.8.8.8 1.1.7 1.1-.2 0-2.3 5.2-12 8.1-14.9 2.5-2.6 2.8-3.7 3.5-12.9.7-10.6-.2-27.3-1.6-27.3-.4 0-1.2 1.2-1.8 2.7M364.8 20.7c-.9 1-2.4 3.4-3.3 5.3-1 1.9-2.1 3.7-2.4 4-3 2.2-6.4 8.5-6.5 12 0 2.5-.5 4-1.3 4-2 0-2.6 4.6-1.9 15.4 1.2 18.7 1.9 24.6 2.8 24.6 1.4 0 4.2-3.2 6.3-7.5 1.1-2.2 3.2-5.1 4.6-6.5 4.9-4.6 6.3-10.9 6-25.5-.2-7.2-.4-15.8-.5-19.2-.1-7.1-1.4-9.3-3.8-6.6M937.6 20.5c-.3.9-.6 8-.6 15.8 0 13.2.2 14.6 2.5 19.1 1.4 2.7 2.5 5.4 2.5 6s1.1 3.2 2.4 5.8c1.3 2.5 2.9 6.1 3.5 7.9.8 2.4 1.4 3 2.2 2.2s1-6.1.7-16.5c-.5-16.6-1.7-21.6-7.8-33.5-4.3-8.5-4.6-8.8-5.4-6.8M394.8 36.5c-1.6 1.3-2.8 2.8-2.8 3.4 0 .5-1 1.8-2.3 2.8-1.2 1-3.8 3.8-5.7 6.3-1.9 2.4-4.6 5.5-5.9 6.7-1.5 1.4-2.1 2.7-1.5 3.2 1.2 1.1 16 6.6 20.2 7.6l3.4.7-.8-14.4c-.4-7.8-1-15.3-1.3-16.5l-.6-2.1zM882.6 35.9c-1 1.5-2.6 16.6-2.6 24.3 0 6.3.1 6.6 2.3 6.1 6-1.3 20.7-6.8 20.7-7.7 0-.6-1-2-2.2-3.1-1.3-1.1-4-4.5-6-7.5-4.8-6.9-11.4-13.5-12.2-12.1M532.7 45.8c-1.6.3-1.7 1.1-1.3 5.5.3 2.9 1.5 14 2.7 24.7 2.5 24 3.1 26.5 6.1 26.6 4.9.3 38.5 3.4 42.1 4l3.7.6v-4.4c0-2.3-.4-11.7-1-20.8-.5-9.1-1-20.3-1.1-25-.3-13.1 1.9-12.1-25.7-11.9-13 .2-24.5.4-25.5.7M689.9 45.4c-.2.2-9.6.9-20.9 1.5-11.3.7-22.4 1.4-24.7 1.7l-4.3.5v15.8c0 8.7.3 22.6.7 31l.6 15.3 5.1-.5c2.8-.3 13.4-1.1 23.6-1.7 10.2-.7 18.8-1.6 19.1-1.9.6-.5 2.1-26.4 3.2-55 .2-5.7-.7-8.3-2.4-6.7M702.8 45.7c-7.7.4-7.8.4-7.9 3.1-.1 1.5-.3 4.7-.5 7.2-.5 6.4-2.4 44.5-2.4 48.1 0 2.6.3 2.9 3.3 2.9 7.3.1 44.3-4.3 45.3-5.4 1-1 4-29 5.1-47.7l.5-7.6-7.8-.6c-7.5-.7-19.8-.7-35.6 0M500.5 47.2c-9.3.6-17.1 1.1-17.3 1.3s.3 5.4 1.2 11.7c.9 6.2 2.2 16.2 3 22.3 1.6 12.3 2.3 15.5 3.1 16.4.8.7 42.6 2.8 43 2.1.3-.6-1-16.2-3.4-38.5l-1.6-16-5.5-.1c-3-.1-13.1.3-22.5.8M585.9 46.4c-.9 1 2.4 59.2 3.5 60.3.2.2 8.4 1 18.2 1.8 9.9.8 20.7 1.7 24.2 2l6.2.6V79.4c0-28-.2-31.5-1.5-31-.9.3-9.3-.1-18.8-.9-16.8-1.4-30.9-1.9-31.8-1.1M749.7 46.7c-.7 1-3.1 23.5-4.2 38.3-.4 4.7-.8 10.5-1 12.9l-.3 4.4 8.1-.7c28.4-2.1 35.3-2.8 35.8-3.4.4-.4 1.6-8.6 2.8-18.2s2.6-20.6 3.2-24.4c.6-4.5.6-7.3 0-7.9-1.3-1.3-43.6-2.3-44.4-1M797.6 49.1c-1.1 3.1-5.8 48-5.2 48.6 1.2 1.3 39 .3 40.2-1 1-1.1 3.5-15.4 6.2-35.5.9-6.1.5-7.3-2.3-7.8-2-.4-23.1-3.4-27.5-4-2.5-.3-6-.8-7.7-1.1-2.3-.3-3.4-.1-3.7.8M466.5 51c-2.7.5-6.6 1.1-8.5 1.4-10 1.4-16.6 2.8-17.4 3.6-1.1 1.1 4.1 39 5.6 40.5 1 1.1 15.2 2.2 30.1 2.4l9.9.1-.7-7.8c-.3-4.2-1-10-1.5-12.7-.6-2.8-1.4-9.3-2-14.5-1.6-14.6-1.4-14-6.3-13.9-2.3.1-6.4.5-9.2.9M342.7 59.7c-.9 1.6-1.8 4.5-2.2 6.6-.4 2-1.1 4-1.6 4.3s-.9 1.2-.9 2-.9 3.3-1.9 5.5c-2.7 5.5-3.6 13.9-2.3 20.7.6 3.1 1.4 7.8 1.7 10.4.7 5.8 2.5 6.4 2.3.8-.1-2.7.5-4.7 1.8-6.1 1.7-1.9 1.8-2.2.2-5-2-3.5-1-4.3 3.8-3l3.7 1-.7-19.2c-.4-10.6-1.1-19.6-1.6-20.1-.5-.4-1.5.5-2.3 2.1M935.7 60.5c-.4 1.7-1 9.8-1.3 18.1-.6 13.1-.5 15.5 1 17.5.9 1.3 1.6 3 1.6 3.7 0 .8.6 2.8 1.4 4.5 3.6 8.5 5.6 13.4 6.3 15.7.6 2.2.8 2 1.5-2 3.8-21.8 2.6-33.6-4.9-48.5-1.4-2.7-3.1-6.5-3.8-8.4l-1.2-3.5zM898 63.4c-3.6 1.3-9 3.5-12.1 4.9l-5.7 2.5-.6 5.3c-.3 3-.8 10.2-1.2 16l-.6 10.6 9.3 3.2c19.7 6.7 18.4 6.8 19.2-1.7.9-8.6.9-39.5.1-41.6-.8-2-.5-2-8.4.8M373.7 64.2c-.9 3.1.4 44.4 1.4 46 .6.9 3.2.5 11.6-2.2 15.9-5 14.3-3 14.3-18.4 0-16.2-.5-19.3-3.4-20.1-1.8-.5-5.5-1.9-12.1-4.5-3.6-1.5-8.8-3-10-3-.7 0-1.5 1-1.8 2.2M369.1 68.7c-.1.6-.7 1.8-1.3 2.5-.7.7-2 2.6-2.8 4.3-.8 1.6-3 5-4.9 7.5-6.9 9.1-8 13.1-8.4 31-.2 8.8-.1 16.3.3 16.5.5.3.6 1.4.3 2.5-.8 3 .1 2.4 3.3-2.2 1.6-2.3 4.6-5.8 6.6-7.8 2.1-1.9 3.8-4 3.8-4.6 0-.5 1-2.1 2.3-3.4 2.1-2.3 2.2-3.4 2.5-21.5.2-10.7-.1-20.7-.6-22.6-.6-1.9-1.1-2.9-1.1-2.2M910.6 74.1c-1 10-.7 37.9.4 37.9.6 0 1 1.3 1 2.8 0 2.1 2.1 5.1 8 11.7 4.4 5 8.4 9.1 9 9.3 1.4.5 1.3-25.8-.1-35.1-.8-5.3-2-8.5-4.7-12.7-2-3-4.4-7.1-5.4-9.1-.9-2-2.4-4.2-3.3-4.9-.8-.7-1.5-1.8-1.5-2.5s-.6-1.8-1.4-2.4c-1.1-.9-1.4 0-2 5M92.5 79.8C89.2 82.5 86 91.5 86 97.9c0 4.5 5.8 9.7 14.5 13 8 3.1 10.1 2.7 15.6-2.4 7.5-7.2 7.8-12.4 1.1-19.3-5.1-5.3-8.8-7.6-16.1-9.8-5.8-1.7-6.2-1.7-8.6.4M792 103.9c.2 11.2 2.9 41.3 3.9 42.4.7 1 2.6 1.3 5.4 1.1 12.6-1.1 26.7-2.5 30.6-3.1l4.4-.6-.7-10.1c-.4-5.5-1.3-15.1-1.9-21.1l-1.2-11-20.2-.1H792zM836.4 102.4c-.3.8 0 7 .6 13.8s1.4 15.4 1.7 19.3c.3 3.8 1.1 7.3 1.7 7.7s9.1.8 18.8.8H877l-.5-8.8c-.3-4.8-.7-13.2-1-18.7-.6-11.7-1.1-12.5-9.4-12.5-3.1 0-10.3-.7-16.1-1.5-13.1-1.8-13-1.8-13.6-.1M446.5 102.9c-.7 1.3-2.4 23.8-2.5 33.2v7.7l9.3 1.1c5 .6 11 1.3 13.2 1.6 11.1 1.4 16.5 1.7 16.5.9 0-.5.7-7.4 1.5-15.4s1.5-17.7 1.5-21.6v-7.1l-4.6-.7c-7.2-.9-34.2-.7-34.9.3M768.5 103.1c-3.8.5-10.9 1.1-15.7 1.5l-8.8.6v4.6c.1 6.7 2.8 46.3 3.2 46.7.3.4 29-4.8 40.3-7.3 3.8-.8 4-1 3.8-4.3-.1-1.9-.7-12.3-1.4-23.2l-1.3-19.7-6.5.1c-3.6.1-9.7.6-13.6 1M417.2 104.5c-5.6.6-10.5 1.5-11 1.9-1.3 1.4-1.5 22.8-.2 23.6 1 .6.7 1.4-.9 3.1-1.1 1.2-2.1 3.2-2.1 4.3 0 1.2-.3 3.1-.6 4.4l-.6 2.2 18.3-.2c11.4-.2 18.4-.7 18.5-1.3 0-.6.3-1.7.7-2.5.3-.8.8-5.3 1.1-10s.9-12.7 1.2-17.8l.7-9.2-7.4.1c-4.1.1-12 .7-17.7 1.4M489.6 112.2c-.4 5.1-1.1 15.3-1.7 22.6s-.8 13.6-.5 14c.4.3 4.8 1.2 9.9 1.9 5.1.6 14.6 2.1 21.1 3.2 6.6 1.1 12.1 1.9 12.3 1.7.5-.5 2-20.6 2.8-36.3l.6-13.2-3.8-.9c-2.1-.6-12-1.3-21.9-1.6l-18.1-.6zM952 104.7c0 1-.5 5.8-1.1 10.8-1.7 14.1-1.2 25.4 1.1 24 .9-.6 1.9 2.7 2.1 7 .2 4.7 2.7-13.3 2.8-20 0-3.4-.6-7.1-1.4-8.5s-1.4-5.1-1.5-8.2c0-3.1-.4-6-1-6.3-.5-.3-1 .2-1 1.2M537.4 107.3c-.2.7-.6 10.6-.7 22s-.5 20.7-.9 20.7c-.5 0-.8 1.6-.8 3.5 0 2.5.4 3.5 1.6 3.5.8 0 1.3-.4.9-.9-.3-.5 0-2 .6-3.4 1.6-3.5 5.9-2.6 6 1.4.3 5.7.3 5.8 5 6 1.8.1 8.6 1.3 14.9 2.6 19.5 4.1 18.6 4.1 19.3.2.8-4.5 3.1-51.8 2.6-52.3-.4-.4-43.7-4.6-46.7-4.6-.7 0-1.5.6-1.8 1.3M717 107.7c-8 .7-16.9 1.6-19.9 1.9l-5.3.6.6 13.6c.9 17.8 2.5 42.5 2.9 42.8.1.2 9-1.4 19.7-3.6 10.7-2.1 21.7-4.1 24.3-4.5l4.8-.7-.5-6.7c-.3-3.6-.8-13.8-1.1-22.6s-.9-17.5-1.2-19.3c-.5-3.1-.7-3.2-5.2-3.1-2.5.1-11.1.8-19.1 1.6M878.4 116.7c1.5 22.7 1.9 25.6 3.6 27.3s19.8 8 22.9 8c.9 0 2.2.5 2.9 1.2 2.2 2.2 2.6-.3 1.4-10-.7-5.3-1.2-12.2-1.3-15.2 0-3-.5-7.1-1.2-9-1.1-3.2-2-3.7-12.2-7.7-6-2.3-12.3-4.2-13.9-4.3h-2.9zM393 109.4c-8.2 2-17.9 5.9-18.6 7.5-.4.9-1.1 5.9-1.5 11.1-.5 5.2-1.2 13.1-1.7 17.5s-.8 8.1-.7 8.2c.2.4 25-7.7 26.4-8.6 1-.6 1.8-5.5 2.7-17.2.7-9 1.3-17.1 1.4-17.9 0-1.9-2-2-8-.6M588.5 120.3c-1 15.2-2.3 46.2-1.9 46.8.2.3 3.6.9 7.6 1.2s13.2 1.3 20.3 2.1c7.2.9 15.4 1.8 18.3 2.1l5.2.6v-58.8l-4.7-.7c-2.6-.3-9.1-.8-14.5-1.1s-14.3-.7-19.7-1l-9.9-.5zM673.5 111.6c-.5.2-7.9.8-16.2 1.2-8.4.4-15.7 1.2-16.1 1.7-.5.6-.6 14-.2 30 .3 15.9.7 27.5.8 25.7.2-3.4 3.2-4.8 3.2-1.5 0 1.4.2 1.5.9.4.7-1 1.3-1.1 2.7-.2 1.8 1 1.8 1.1-.3 1.7-3.8 1-2.6 2.7 1.5 2.1 2-.3 9.3-1.2 16.2-2 6.9-.9 14.4-1.9 16.8-2.3s5.3-.7 6.5-.8c2-.1 2.2-.6 2.2-7.1-.1-10.1-1.5-42.4-2.1-46.3l-.5-3.2-7.2.1c-4 0-7.6.2-8.2.5M933.6 123.7c.5 13.4 2.1 24.3 3.5 24.3.5 0 .9.7.9 1.6 0 .8.4 1.3.9.9.5-.3 1.2.9 1.4 2.7s.5 0 .5-4c.1-4 .6-7.2 1.2-7.2 1.7 0 1.1-8.9-.9-12.8-1-2-2.2-5.3-2.5-7.2-.9-4.4-3.7-11-4.6-11-.5 0-.6 5.7-.4 12.7M365.4 124.7c-.9 1.6-3.5 4.9-5.6 7.4s-3.8 5.3-3.8 6.2-.4 1.7-.8 1.7-.4 2.7.2 6c.8 5.2.7 6.2-.8 7.9-1 1.1-2.3 1.8-2.8 1.4-1.6-.9-2.8 1.9-2.8 6.8 0 5.9 1.8 7.7 5.3 5.4 3.1-2 10.7-12.1 10.7-14.1 0-.9.6-4.2 1.4-7.3 1.9-7.4 3.1-24.1 1.8-24.1-.5 0-1.8 1.2-2.8 2.7M911.7 123.7c-.7 1.1.8 19.1 2.2 26.3.8 4.2 1.9 6.2 4.6 8.8 1.9 1.9 4.2 4.6 4.9 6 .8 1.5 3.1 4.2 5.2 6.1l3.7 3.4-.6-9.4c-.3-5.2-1.1-10.8-1.7-12.4-.7-1.7-1.2-4.6-1.1-6.6.1-2.9-.7-4.4-4.2-8-2.3-2.4-4.8-5.6-5.6-7.1-1.8-3.5-6.7-8.2-7.4-7.1M824.5 148c-2.7.4-10.3 1.3-16.9 2l-11.9 1.3.8 7.1c1.1 11 1.2 11.9 1.4 14.8.1 2.5.5 2.8 3.5 2.8 1.9 0 3.8-.5 4.1-1.1.4-.6 1.3-.8 2.1-.5s6.7-.6 13.2-2c6.4-1.4 12.9-2.7 14.4-3 3.4-.8 3.8-2.4 2.5-13.3l-1-9.1-3.6.1c-2 .1-5.8.5-8.6.9M841.4 150.7c.4 2.1 1 6.4 1.3 9.6s1 6 1.5 6.3 9.6 0 20.2-.7l19.3-1.2-1.2-3.3c-.6-1.9-1.4-3.7-1.8-4-.4-.4-.7-1.9-.7-3.3 0-1.5-.7-3.7-1.6-4.9-1.5-2.1-2-2.2-19.6-2.2h-18.1zM402.9 152c-.9 3.1-1 4.9-.1 7.7s.9 3.9 0 4.4c-1.1.7 3.3 1.3 17 2.4 6.3.4 7.3.3 7.9-1.2.3-1 1.4-2.7 2.3-3.8 2.8-3.3 6-9.5 6-11.6 0-1.8-.8-1.9-16-1.9h-15.9zM443.6 149.7c-.4 1.1-1.1 4.9-1.6 8.4s-1 7.3-1.2 8.3c-.2 1.5.5 2.2 3.2 2.8 1.9.4 4.6.5 6 .1 1.4-.3 2.7-.7 3-.8.3 0 2.2-.7 4.3-1.4 4.2-1.4 7.7-.9 10.1 1.5 2.1 2.1 2.1 5.8 0 5-.8-.3-1.2-.2-.9.4 1 1.6 2.9 1.2 4.3-1 .7-1.1 2.1-2 3.2-2 2 0 4-2.7 4-5.6 0-1 .7-2.5 1.5-3.5.9-.9 1.7-3.6 1.8-6l.2-4.3-6-.9c-3.3-.4-8.8-.6-12.2-.4-3.5.3-6 .1-5.7-.4s-.6-.9-1.9-.9-4.5-.3-7-.6c-3.9-.6-4.6-.4-5.1 1.3M884 150.1c0 2.2 5.3 12.1 6.8 12.6.9.4 2.8 1.4 4.2 2.4 2.5 1.7 12.1 4.9 14.7 4.9.8 0 1.1-.5.8-1-.4-.6-.2-1.7.5-2.4 1.5-1.9.2-6.6-1.6-5.9-.9.3-1.4-.2-1.4-1.5 0-2-3-3.7-7.9-4.7-1.4-.2-2.9-.9-3.5-1.5-.5-.5-1.9-1-3-1-1.2-.1-3.8-.7-5.8-1.4-2.1-.8-3.8-1-3.8-.5M487 157.1c0 2.6.4 5 .9 5.3.4.3.6 1.7.3 3.1-.2 1.5 0 2.5.7 2.5.6 0 1.1.7 1.1 1.6 0 .8.5 1.2 1 .9.6-.3 1-.1 1 .5 0 .7.7.9 1.6.6 1.8-.7 3.8 1 4.8 4.1.7 2.2-.7 3.9-3.9 4.5-1.2.2.4 1.1 4.3 2.2 5.1 1.6 6.5 1.7 7.2.7.4-.8 1.3-1 1.9-.7 1.4.9 1.4 0 .1-2.5-.6-1-2-1.9-3-1.9-1.1 0-2-.5-2-1 0-.6 1.1-1 2.5-1s2.5-.6 2.5-1.3c0-.8.4-.7 1 .3.7 1.1 1 .7 1-1.8 0-2.9.3-3.2 3-3.2 1.7 0 3 .4 3 1 0 .5-.9 1-2 1-2.2 0-2.9 3.5-.8 4.2.6.2 1.2 1.3 1.4 2.4.5 4.1 1.7 6.2 3.7 6.8 2.6.6 6.7-1.9 7.4-4.5.4-1.4 1.1-1.8 2.4-1.4 1.7.6 1.9 0 1.9-5.7 0-3.5.3-8.1.5-10.3.4-3 .3-3.5-.4-2-.8 1.6-1 1.7-1 .3-.1-2.4-4.7-3.6-24.7-6.7l-17.4-2.7zM767.7 155.9c-10.3 2.1-19.1 4.2-19.5 4.5-.8.8-.4 24.7.4 28.8.3 1.6.9 2.8 1.2 2.8.4 0 4.5-1.3 9.2-2.8 4.7-1.6 14.4-4.8 21.5-7.2 7.2-2.3 13.2-4.4 13.4-4.6s-.2-5.2-.9-11.1c-.7-6-1.2-11.6-1.2-12.6.1-2.4-2.2-2.2-24.1 2.2M535.4 162.7c.3.8.6 1.9.6 2.4 0 .6.5.7 1 .4.6-.4.8-1.1.4-1.6-.3-.5 1.1-.2 3 .8 3.1 1.4 3.5 2 3 4.2-.4 1.4-1.3 3.6-2 4.8-.8 1.3-1 2.3-.4 2.3.5 0 1 1.3 1 3q0 3-1.5 3c-.9 0-1.5 1-1.5 2.6 0 3.6-1.7 6.4-3.5 5.8-1-.4-1.5 0-1.5 1.1 0 .9.5 1.3 1 1 .6-.3 1-.2 1 .4 0 1 16.1 9.1 18.1 9.1.8 0 .8-.4-.1-1.4-.6-.8-1.7-1.3-2.3-1-.7.2-1.2-.7-1.3-2.5-.1-2.5.4-3.2 2.8-4 2-.7 3.6-.7 4.8-.1 1 .6 3.1 1 4.6 1s3.4.9 4.3 1.9 2.8 2.1 4.1 2.3c2.1.3 2.6.9 3 4.8.3 2.5 1 4.6 1.5 4.7.6.1 1.7.3 2.5.5 1 .2 1.6-.8 2-3.2l.6-3.5.7 3.5c.4 1.9.8 4.6 1.1 6 .2 1.4.3-7.4.2-19.5l-.1-21.9-4.5-.9c-11.4-2.1-20.1-3.7-27-5-12.6-2.5-16.2-2.8-15.6-1M734.5 162.5c-3.3.7-12.9 2.5-21.3 4.1-8.5 1.6-15.7 3.1-16.2 3.4-.9.5-1.2 7.4-1.1 22.1l.1 8.5 7.5 3.4c6.4 2.9 8.4 4.5 5.7 4.5-1 0-8.2 3.5-8.2 4s12.5-4 15.8-5.7c1.2-.6 2.2-1.5 2.2-2s-.3-.7-.8-.4c-1.4.8 0-7.9 1.5-9.1.9-.7 1.6-3.7 2-9 .9-14.9 2.8-13.5 3.9 3 .5 7.9.4 11-.6 12.2-1.1 1.3-.8 1.3 2.6.1 2.2-.8 3.8-1.9 3.6-2.6-.1-.6.2-.9.7-.6 1.4.9 11.8-4.1 12.5-6.1.4-1 .4-8.4 0-16.5-.6-12.7-.9-14.8-2.3-14.7-.9.1-4.3.7-7.6 1.4M586.1 193.2c.1 13.1.5 21.6.9 19.5s1.2-4.3 1.9-5c1.6-1.6 1.4-4.4-.4-5.1-1.1-.4-1.5-2-1.5-5.8s.3-4.9 1-3.8c.5.8 1 2.4 1 3.5 0 2.8 3.4 5.5 6.8 5.5 1.5 0 6.2.5 10.5 1.2 6.4.9 7.7 1.5 7.7 3 0 2 1.6 2.5 2.2.6.2-.6.2 1.9 0 5.5-.3 4.5-.1 6.7.7 6.7.6 0 1 .3 1 .7-.4 2.5.4 3.3 3.1 3.3 3 0 4.1-1.4 1.8-2.3-.9-.3-.7-.9.7-2 1.5-1.1 2-2.7 2-6.1 0-4.5.1-4.6 3.3-4.6 1.7 0 3.2-.5 3.2-1 0-.6.9-1 2.1-1 2 0 2.1-.4 1.8-8-.2-4.3-.1-7.6.3-7.2s.9 6.8 1.1 14.2c.2 10.6.3 9.1.5-7.2l.2-20.6-3.7-.6c-2.1-.3-7.6-1-12.3-1.6-9.4-1.2-11.1-1.4-25.2-3.5-5.4-.8-10-1.5-10.3-1.5s-.4 10.5-.4 23.2M683.9 171.4c-.2.2-5.3.9-11.4 1.5-6 .6-14.5 1.7-18.7 2.3l-7.8 1.1v6.3c0 3.5-.4 6.6-1 6.9s-1 5-1 10.6c0 9.2.1 9.9 2 9.9 1.3 0 2.2-.9 2.6-2.8.3-1.5.8-3.4 1.1-4.2s.7-2.8 1-4.4c.2-1.6 1.5-3.9 2.9-5.1 1.3-1.2 2.4-3 2.4-3.9s.5-1.6 1-1.6c.6 0 1-1 1-2.3 0-4 1.2-6.6 3.2-7.3 1.1-.3 2.1-.4 2.3-.2 1 .9-1.8 10.5-3.4 11.9-1.4 1.1-2 3.4-2.4 8.5-.3 3.8-.8 9-1.2 11.6-.4 3.2-.2 5.5.8 7.5 1.3 2.4 1.3 2.9-.2 4-1.4 1.1-1.3 1.2.9 1.2 2.9-.1 8.2-1.7 6-1.8-1.2-.1-1.2-.3.1-1.7 1.1-1 3-1.4 6-1.2l4.4.3-3.5 1.2c-3.4 1.2-3.4 1.2 1.5.7 7.8-.8 19.5-3.5 19.5-4.5 0-.5-1.2-.4-2.6.1-3.8 1.5-7.1 1.2-7.8-.6-1-2.5-.7-9.3.4-11.5.8-1.4 1.9-1.8 4.3-1.5 1.8.2 3.7.1 4.4-.1 1.4-.6 2.8-19.2 1.8-26.2l-.7-5.1h-3.7c-2.1 0-4 .2-4.2.4M828 173.6c-3.6.8-7.4 1.7-8.5 2-2.5.7-10.6 2.3-16.4 3.2-2.4.4-4.4 1-4.3 1.4.1.5.2 2.5.3 4.5.1 3.4.2 3.5.9 1.3.8-2.5.8-2.5.9.5.1 2.4.4 2.7 1.1 1.4 1.3-2.2 7.6-1 7.4 1.3-.1 1 .4 1.4 1.2 1.1s1.4-.9 1.4-1.5c0-.5.5-.6 1-.3 1.6 1 22-9.2 22-11 0-.8.4-1.5.9-1.5s1.1-.9 1.4-2c.6-2.4-.2-2.4-9.3-.4M781.5 184.4c-9.4 3.4-9.3 3.4-6.7 4.1 1.2.4 2.2 1.4 2.2 2.2 0 .9-.6 1.3-1.5.9-1.2-.4-1.5.3-1.5 2.9 0 1.9-.4 3.5-1 3.5-.5 0-1 1.6-1 3.5 0 4 .4 4.1 6.2 1.8 4.9-1.9 5.8-2.8 5.8-6.1 0-1.2.5-2.2 1-2.2.6 0 1-1.1 1-2.3 0-1.6.9-2.8 2.5-3.5 2.7-1.2 3.2-2.7 1.3-3.8-.7-.5-.5-1.1.7-2.1 1.8-1.2 1.7-1.3-.6-1.2-1.3.1-5.1 1.2-8.4 2.3M0 406.9v79l3.8-.6c2-.3 4.2-1 4.8-1.4.6-.5 5.1-1.5 10-2.3 12.4-2 16.9-3.3 24.1-6.7 5.1-2.4 6.3-3.4 6.3-5.4 0-1.3-.4-2.6-.9-2.9-.4-.3-1.1-2.4-1.5-4.6-.8-5.2.5-32.5 1.5-30.9.5.9 1 .4 1.4-1.4.8-3.2-.8-5.7-3.7-5.7-1.7 0-1.8-.5-1.1-5.3.4-2.8.6-5.9.5-6.7-1.5-11.8-2.3-23.4-1.8-25.3.3-1.4 1.4-3.5 2.4-4.8 1.8-2.2 2.4-2.3 15.2-2.1 10.7.1 13.5-.2 14.8-1.4 3.5-3.6 11.2 2 13.2 9.7 1.1 4.1.8 17.9-.5 25.1-.6 2.9-.3 4 1.3 5.6 2.7 2.7 5.2 11.2 5.2 17.3 0 2.6.5 4.9 1 5.1 1.5.5 0 6.8-1.5 6.8-.8 0-1.5.6-1.8 1.2-.3.9-1 .6-2.2-1-.9-1.2-2.2-2.2-3-2.2s-2.4-1-3.5-2.3c-1.8-1.9-2.1-3.2-1.8-9.4.2-5.4 0-7.4-1-7.8-.8-.3-4.9-.5-9.2-.5-8.5 0-9.2.3-12.9 6.4-1.7 2.7-2.1 4.7-1.9 10.7.2 4.1 0 8.8-.5 10.4-.7 2.7-.4 3.2 2.7 4.9 3.4 1.8 3.8 1.8 10.8.1 4-.9 9.5-2.8 12.1-4.2 4.3-2.1 5.2-2.3 8.3-1.1 3.3 1.2 3.5 1.4 3.2 5.6-.1 3.3.3 4.7 1.5 5.4 2.8 1.5 2.2 7.9-1 11-4.4 4-13.5 7.9-19.9 8.4-3.3.3-8.3 1.2-11.2 2.1-3.9 1.1-7.3 1.3-12.5.8-6.6-.6-7.5-.4-9.1 1.4-1.5 1.6-3.1 2.1-7.1 2.1-2.9 0-8.2.9-11.7 2s-9.7 2.4-13.8 3-7.8 1.6-8.2 2.3c-.4.6-.8 37.8-.8 82.6l.1 81.3 4 3.9 4.1 3.9-2 2.5c-1.1 1.3-2.2 2.1-2.6 1.8-.3-.3-.6-.1-.6.5 0 .7-.7 1.2-1.5 1.2-1.2 0-1.5 1.8-1.5 10.5V696h2.5c2.3 0 2.5.3 1.9 2.7-.3 1.6-1.5 3.5-2.5 4.5-1.6 1.3-1.9 3-1.8 9 0 6.4.2 7 1.2 4.8q2.85-6 6.3-6c4.3 0 5.4 1 5.4 5.1v3.9h125.5l8-7c4.4-3.9 8.3-7 8.8-7 .4 0 2.2-1.6 4-3.6 3.4-3.9 8.1-6.4 12.1-6.4 2.6 0 6.6 4.1 6.6 6.7 0 1.4-12.6 14.4-15.8 16.3-1.1.6 32.4.9 98.8 1 113.1 0 101.6.9 105.4-7.8l2-4.3-2.7-5.2c-1.4-2.9-3.8-8.4-5.3-12.2-1.4-3.9-3.7-9.9-5.1-13.5s-2.9-8.2-3.4-10.3c-.5-2.2-1.9-5.7-3-7.8-1.1-2.2-3-8.1-4.3-13.2s-3.1-11-4-13.2c-1.5-3.8-8.6-30.6-8.8-33.3-.1-.6-.4-1.2-.8-1.2-.7 0-5.4 3.4-7.6 5.5-.6.6-3 1.9-5.3 2.9-2.2 1.1-4.1 2.3-4.1 2.8 0 .4-.6.8-1.3.8s-2 .8-2.8 1.8c-2.7 3-6.4 5.8-11 8.3-2.4 1.3-5.3 3.2-6.3 4.1-1.1 1-2.4 1.8-2.9 1.8s-2.3 1.5-4 3.4c-3.8 4.1-7.9 5.3-10.1 3-.9-.8-1.6-1.7-1.6-2 0-1.3 3.7-4.4 5.3-4.4.9 0 2-.7 2.3-1.5s1.4-1.7 2.5-2c1-.4 2.5-1.2 3.2-1.8.7-.7 2.6-2 4.2-2.9 1.7-.9 3.2-2.7 3.3-3.9.4-2.4 3.1-5 7.7-7.6 1.7-.9 3.9-2.6 5-3.8s5.6-4.8 10-8 8.6-6.4 9.2-7.1c.7-.7 1.8-1.4 2.5-1.6 1-.4 1-1.7 0-6.4-.6-3.3-1.2-7.1-1.2-8.3 0-3-2.9-16.1-4.1-18.3-.5-1-.9-3.2-.9-5 0-3.8-.8-5.2-3.2-6.1-2.2-.8-2.3-3.6-.3-4.4 1.2-.4 1.5-1.8 1.4-5.7-.3-7.3-1.2-9.1-6.1-11.4-7-3.3-13.3-10.6-16.1-18.7-3.2-9.2-5.8-20.7-6.2-27.2-.2-2.9-.6-5.6-.9-6.1s-.8-4-1.2-7.8c-.9-8.9-1.8-11.4-4.4-11.4-1.2 0-3.2-1.2-4.5-2.6-1.9-2.1-2.2-3-1.4-4.5.5-1.1 1.6-1.9 2.4-1.9 1.7 0 2.3-1.7 1.7-4.7s-4.9-3.1-8.5-.3c-2 1.6-4 2-10.6 2-7.4 0-8.2-.2-9.7-2.4-.9-1.5-2.1-2.2-3-1.9-.8.3-2.5.2-3.9-.1l-2.5-.6v-16c0-13.6-.2-16-1.5-16-.8 0-1.5-.9-1.5-2 0-2.2-2.5-2.8-3.3-.8-.4 1-.8 1-1.5 0-.5-.8-2-1.3-3.3-1.2-3.8.3-6.3.1-5.6-.6s-1.7-3.4-3-3.4c-1.4-.1-5.3-7.1-5.3-9.6 0-2.1-.5-2.4-3.5-2.4-2.8 0-3.5.4-3.5 2 0 1.4-.7 2-2.1 2-1.6 0-1.9-.4-1.4-2 .4-1.2.1-2.7-.5-3.5-1.7-2.1-9.5-1.9-12.8.2-2.3 1.6-5 1.8-24.2 1.5-12.1-.2-22.7-.7-24.2-1.3-2.2-.9-2.8-2-3.4-5.5l-.6-4.4-10.7.5c-5.8.3-14.2 1-18.6 1.5s-11.1 1.1-15 1.4c-8.1.6-37.2-.9-46-2.4-3.3-.5-9.1-1.3-13-1.6-7.7-.7-15.1-2.8-17.6-5-2.4-2.2-.4-9 3-10.2 5.4-1.9 21.9-5.2 28.6-5.7 3.9-.2 11.5-.9 17-1.5 12.5-1.4 46.6-.4 59.5 1.7 5.2.8 11.6 1.4 14.3 1.4 3.4-.2 5.6.4 7.6 1.8 1.6 1.2 3.1 2.1 3.3 2.1.1 0 .3-1.5.3-3.3.1-1.7.3-4.1.5-5.1.4-1.4-.4-2.6-2.7-4-1.8-1.2-3.2-2.9-3.3-3.9 0-1.7-1.4-1.8-23.7-1.7-13.1 0-31.4-.4-40.8-1-12.9-.9-18.7-.9-24 0-6.7 1.1-7.2 1.1-11-1.1-3.7-2.2-5.3-2.4-19.5-2.7-8.5-.2-15.9-.8-16.4-1.3-.6-.5-4.5-.9-8.8-.9H0zm243.2 57c5.7 3.9 6.5 5.4 7.3 14.3.9 9.5-.5 14.2-4.7 16.4-2.9 1.5-4.4 1.5-12.4-.1-2.8-.6-3.3-.4-4.4 2.2-1.9 4.2-4.9 6-11.6 6.8l-6.1.7-1.3-3.4c-2.1-5.7-3-9.8-5.6-26.9-.5-2.9-.1-4.2 1.6-6.2 2.3-2.6 5.6-3.5 14.3-3.9 2.6-.1 4.7-.5 4.7-.9 0-.8 3.9-1.5 10.2-1.7 2.6-.2 4.9.6 8 2.7m39.5 33.5c2.7 2.3 5.3 8.1 5.3 12 0 .9.9 2.6 2 3.8 3.7 4 1.8 11-4.8 18.2-5.6 6.2-11.2 4.2-14.2-5.1-1.2-4.1-4.9-8.3-7.1-8.3-1.2 0-.3-10.8 1.3-14.9 2.9-7.7 11.8-10.5 17.5-5.7M1061.3 338.8c-3.6 2.3-6 24.4-3.2 30.5 1.3 2.9 6.6 3.3 7.5.4.3-.9 1.2-1.7 2-1.7 1 0 1.4-1.2 1.4-4 0-2.2-.4-4-1-4-1.2 0-1.3-6.7-.1-7.4.5-.3 1.2-2.6 1.6-5.2.6-4.1.4-4.8-2-7-2.7-2.5-4.2-2.9-6.2-1.6"/><path d="M58.1 397.9c-.6 1.1-1.1 5-1.1 8.7v6.7l9.2-.7c5-.3 9.5-1.1 9.8-1.7.4-.5.8-3.4.9-6.3.1-5 0-5.4-2.6-6.4-1.6-.6-5.6-1.3-9-1.7-5.5-.5-6.3-.4-7.2 1.4M934.6 407.7c-1.8.5-2.8 1.2-6 4-.7.6-2.6 1.3-4.2 1.5-2.8.3-2.9.5-2.8 5.8.1 8 .7 10.7 3.1 13.2 1.2 1.3 2.3 3.2 2.5 4.2.6 3.5 2.3 2.6 4.7-2.4 1.4-2.8 2.8-5 3.2-5 1 0 5.9-7.8 5.9-9.4 0-.7.7-1.6 1.5-2 2.3-.9 1.8-2.8-2-6.9-2-2-3.6-3.6-3.8-3.6-.1.1-1.1.4-2.1.6M912 423.4c0 .4.5 1.7 1.2 2.9 1 1.9.9 2-.4.9-1.3-1-1.5-.9-1.5.5 0 3.6-.3 4.3-1.8 4.3-.8 0-1.5.4-1.5 1 0 .5-.9 1-2 1s-4.2 1.5-6.8 3.3c-4.1 2.8-4.7 3.6-4.1 5.7.4 1.4.8 2 .8 1.5.2-1.8 2.1 2 2.1 4.2 0 1.3.5 2.3 1 2.3.6 0 .9.3.9.7-.3 1.6.2 3.9 1 5.2.7 1 2.9.2 10.7-4 11.6-6.2 15.4-8.8 15.4-10.6 0-.7-.3-1.3-.7-1.3-.5 0-1.6-1.4-2.6-3.2-1.5-2.6-2-2.9-2.9-1.7-.8 1.1-.9 1.1-.4-.3.3-1.1-.4-2.7-2-4.3-1.3-1.3-2.3-2.6-2.2-2.8.2-.1-.7-1.5-1.9-3.1-1.3-1.6-2.3-2.6-2.3-2.2M946.9 430.8c-1 .2-1.9 1.2-2.2 2.3s-1.4 1.9-2.5 1.9-3.4 1.6-5.1 3.5c-3.4 3.9-4.1 8.6-1.7 12 .7 1.1 1.9 3.8 2.6 6 1.4 4.5 4.1 9.5 5.1 9.5.4 0 1.7-2.6 2.9-5.8 1.3-3.1 3.4-8 4.7-10.8 2.8-6.2 2.9-10.3.4-13.5-1-1.3-2-3.1-2.2-3.9-.2-.9-1.1-1.4-2-1.2M888 443.4c0 .9-.4 1.6-1 1.6-.5 0-1 1.6-1 3.5 0 2.8-.5 3.8-2.2 4.4-2.8 1.1-3.8.6-3.8-2 0-1.5-.7-1.9-3.2-1.9-5.3.1-12 2-13.4 3.8-1.6 2-1.8 6.1-.4 9.6.8 2.2 1.4 2.5 5.4 2.3 2.4-.1 4.2-.5 4-.8-.5-.9 6.4-2.1 7.7-1.3.6.3 5 .3 9.9-.1l8.8-.7-3.9-7.1c-2.1-4-3.9-7.9-3.9-8.8s-.7-2.2-1.5-2.9c-1.2-1-1.5-1-1.5.4M923.5 452c-2.1 1.6-4.4 3-5.1 3-.8 0-1.4.4-1.4 1 0 .5-.7 1-1.5 1s-1.5.4-1.5 1c0 .5-1.6 1.7-3.5 2.6-4.3 2-5.9 4.6-5.2 8.8 1.3 7.6 2.7 13.9 3.6 16.9 1.9 6.2 3.1 11.5 3.1 13.6 0 4.9 3 3.4 12-5.9 5-5.1 9-9.7 9-10.1 0-.5.6-.9 1.3-.9 1.3-.1 5.7-8.7 5.7-11.3 0-2.2-8.8-21-10.3-21.9-1.8-1.2-2.1-1-6.2 2.2M798.8 451.8c-1 .2-1.8.8-1.8 1.3s-2 .9-4.5.9c-6.8 0-12.3 2-13 4.8-.3 1.4-1 2-1.7 1.6-.8-.5-.9-.1-.4 1.1.4 1 1.1 3.9 1.7 6.4.5 2.5 1.4 5.1 2 5.7.5.7.9 1.6.8 2-.3 2 .2 3.5 1 3 .5-.3 1.1 0 1.4.7.2.6 2.2 1.8 4.3 2.5 2.2.8 8 3.3 12.9 5.7 5 2.4 11.3 5.3 14 6.6 2.8 1.2 5.8 2.9 6.8 3.7.9.8 1.9 1.3 2.1 1.1.5-.5-2.9-13.3-4.9-18.9-2.1-5.7-6.5-20.4-6.5-21.7 0-2.1-11.1-7.2-14.2-6.5M347 455c-1.9.4-2.9.8-2.1.9 1.2.1 1.2.3-.1 1.3-1.6 1.3-5.8 12.8-5.8 16 0 .9 1.3 2.4 2.8 3.2 3.1 1.6 6.9 6.1 9.6 11.4 1 1.9 3.4 4.8 5.4 6.5 2 1.8 4.5 4 5.5 5s2 1.7 2.1 1.5c.5-.6 2.5-19 3.2-27.8l.6-8.5-5.8-3.9c-3.1-2.2-6.3-3.9-7-3.9s-1.5-.6-1.8-1.4c-.6-1.4-1.2-1.4-6.6-.3M652.4 463.2c.3 4 .7 10.1.8 13.6.1 5.7.3 6.5 2.5 7.3 1.3.5 4 .9 6 .9 3.2 0 3.5-.2 2.9-2.3-.3-1.2-.6-4.7-.7-7.7 0-3.7-.3-4.8-.8-3.5-.6 1.5-.9 1-1.4-2.4-.3-2.4-1.1-4.8-1.9-5.2-1-.6-1-1.3-.2-2.7.9-1.4.8-2.2-.3-3.7-1.1-1.4-1.7-1.6-2-.8-.6 1.5-3.3 1.7-3.3.3 0-.6-.5-1-1.1-1-.8 0-.9 2.2-.5 7.2M619.6 459.6c-.3.9-.6 3.3-.6 5.5 0 5.8-1.8 4.7-2.2-1.4-.3-4.3-.5-3.4-1.2 4.8-.6 6.5-.5 10.9.2 12.7.7 1.9.7 2.8-.2 3.2-.6.2.8.5 3.2.5 3.7.1 4.4-.2 5.3-2.6.7-2 1.2-2.4 1.8-1.4 1.1 1.7 2.1-4.6 2.1-13.7V460h-3c-1.6 0-3-.5-3-1 0-1.6-1.7-1.2-2.4.6M606.9 461.3c-1.6 1.2-2.7 4.6-3.5 11-.2 1.7-.7 5.3-1.2 7.9-.8 4.5.1 6.9 1.1 3 .4-1.4.5-1.5.6-.1.1 1.8 5.4 3.4 5.9 1.8.2-.5.7-.7 1.2-.4.4.3.8-5 .8-11.8 0-6.7-.2-11.4-.5-10.5-.6 2.4-2.1 2.3-2.5-.1-.2-1.6-.6-1.8-1.9-.8M668.1 465.1c.2 4.9.2 5.1.8 1.9.5-2.5.9-.7 1.2 6.6.4 9.4.6 10.3 2.9 12.3 1.4 1.1 3.3 2 4.3 2.1 2 0 1.9-2.5-1-13.8-1.6-6.1-2.6-6.9-3.6-2.7-.3 1.1-.5-.3-.5-3 0-2.8.2-4.2.5-3.3.2 1 .9 1.8 1.5 1.8s.7-1.1.3-2.7c-.8-3.4-.4-3-3.8-3.8l-2.7-.7zM749.2 462c-.8 1.3-2.3 2-4.2 2-2.5 0-3 .5-3.9 3.7-1.4 4.7-1.4 22.3-.2 25.7 1.4 3.5 3.6 5.9 12.9 13.8 5.6 4.8 8.6 6.8 9.3 6.1 1-1 9.9-20.2 9.9-21.4 0-.4.8-2.4 1.7-4.5.9-2.2 1.6-4.3 1.4-4.8-.1-.5.4-1.3 1-1.7.9-.5.4-1.2-1.7-2.1-1.6-.7-4.7-3-6.9-5-2.3-2-7-5.6-10.5-7.9-3.6-2.3-6.7-4.5-7-5-.3-.4-1.1.1-1.8 1.1M821.6 462.9c-1.7 1.9-1.8 2.6-.7 8.3.7 3.5 2.2 9.4 3.3 13.3 1.1 3.8 2.3 8.8 2.6 11 .5 4.7.8 5 20.2 20.5 7.9 6.3 16.3 13.3 18.7 15.4s4.6 3.6 5 3.3c.7-.8-1.8-20.1-5.3-40.7-1.4-8-2.8-16.4-3.1-18.7-.3-2.4-1.1-4.7-1.7-5.2-1.5-1.2-13.6-4.2-14.6-3.6-.5.3-1 .1-1.2-.3-.1-.5-4.1-1.6-8.8-2.5s-9.4-1.9-10.5-2.2c-1.4-.4-2.7.1-3.9 1.4M732.4 465.4c-6 3.1-7.4 4.5-7.4 7.7 0 2.1-.5 2.9-1.7 2.9s-1.4.3-.6.8c.6.4 1.5 2 1.8 3.5.4 1.5 1 2.7 1.4 2.7.3 0 2.9 2.1 5.6 4.6l5 4.6.3-7.7c.2-4.2.2-10.6 0-14.4l-.3-6.8zM886 467.5c-4.7.7-11.1 1.6-14.2 2-5.4.6-5.8.8-5.8 3.3 0 8.4 7.8 60.3 9.3 61.8.2.3 1.7-.6 3.3-1.9s3.6-2.6 4.5-2.9c.9-.4 7.3-5.2 14.3-10.8 10.5-8.5 12.6-10.6 12.6-12.8-.1-3.6-2.1-13-5.9-27.7-1.7-6.6-3.1-12.1-3.1-12.3 0-.5-7 .1-15 1.3M383 470.1c-4.1.4-8 .6-8.7.4s-1.4.4-1.7 1.3c-.9 3.2-3.5 22.7-3.7 28.2-.2 8.4-.1 9 2.6 10 1.4.5 2.5 1.4 2.5 2 0 .5.7 1 1.5 1s5.1 3.4 9.4 7.5 8.2 7.5 8.6 7.5 2.3 1.3 4.2 3c4.3 3.8 6.3 3.9 6.3.2 0-1.5.7-14 1.6-27.8 1.9-28.5 1.7-32-2.4-32.8-6.1-1.1-13.1-1.3-20.2-.5M417.6 470.3l-4 1.2-1.6 9.5c-2.4 13.7-5.3 54-3.9 54 .7 0 5.5-3.7 8.5-6.5.6-.5 3.9-3.5 7.4-6.5s9.3-8.3 12.9-11.8 6.8-6.2 7.1-6.2.6-.9.8-2c.3-1.8.6-1.9 2-.8 1.2 1 1.4 1 .8 0-.4-.7-.1-1.5.8-1.8 1.2-.4 1.6-2 1.6-5.4 0-2.7.5-5.2 1-5.5.6-.3 1-2.1 1-4s.4-4.5 1-5.9c.5-1.4.5-2.8.1-3.1-.5-.3-1.1.2-1.5 1-.3.8-1.2 1.5-2.1 1.5-.8 0-1.5.7-1.5 1.5 0 1.1-1.2 1.5-5 1.5-4 0-4.8-.3-4.4-1.5.4-.9 0-1.5-.8-1.5s-2-1.2-2.6-2.6c-.9-1.9-1.7-2.4-3.2-1.9-1.2.4-2 .2-2-.5 0-1-6-4.1-7.7-3.9-.4 0-2.6.6-4.7 1.2M544.8 469.7c-1.6.4-1.8 1.7-1.7 10.6.1 6.7.4 9.3.9 7.7.4-1.4.8-1.9.9-1.3.3 3.6 5.5-.2 5.6-4.1 0-1.1.6-2 1.3-1.9.6.2 1.2-.4 1.2-1.2s.9-2 2-2.7c5.6-3.5-2.6-9.1-10.2-7.1M472 474.5c0 1.1-1.1 1.5-3.5 1.5-3.8 0-5.9 2.5-3.4 4 .7.5 1 1.3.5 1.7s-1.1.2-1.3-.5c-.8-2.2-6.2-1.4-7.3 1-1.1 2.5-4 15.8-3.4 15.8.7 0 7.9-3.5 8.4-4.1.3-.4 1.4-.9 2.5-1.2 1.4-.3 1-.5-1.1-.6-3.3-.1-4.8-1.9-3.8-4.6.7-1.7 4.1-2 4.6-.4.2.6 1.6 1.2 3.1 1.2 2.6.2 4 1.7 1.5 1.7-.6 0-.8.3-.5.6.4.4 1.8-.1 3.1-1 1.4-.9 3.2-1.6 3.9-1.6.9 0 1.3-.8 1-2.3-.3-1.3.4-3.1 1.6-4.4 3.1-3.2 2.7-5.3-.9-5.3q-3 0-3-1.5c0-.8-.4-1.5-1-1.5-.5 0-1 .7-1 1.5M502.9 481.3c.6.6 1.1 2.3 1.1 3.7s.9 3.2 2 4 2 2.2 2 3.1 1.6 5 3.5 9.2 3.5 8.3 3.5 9.1c0 .9.5 1.6 1.1 1.6.5 0 .7.4.4 1-2.2 3.6 4.9-1.7 14.5-10.8 2.4-2.3 4.8-4.2 5.2-4.2 1.5 0 .8-3.9-.8-4.8-.9-.5-1.6-1.3-1.6-1.8s-2-3.1-4.5-5.8c-3.4-3.7-4.7-4.6-5.3-3.5-.7 1.1-1 1-1.6-.4-.9-2.4-2.4-2.1-2.4.4 0 1.8-.5 2-2.7 1.6-1.5-.3-3.6 0-4.7.5-1.5.8-2.2.7-3-.4-1.1-1.4-3.8-2.8-6.5-3.4-1-.2-1.1 0-.2.9M940.3 481.3c-1.2.5-2.4 2-2.7 3.3-.4 1.3-1.5 2.8-2.6 3.4s-2 1.6-2 2.3c0 1.6-8.2 9.7-9.7 9.7-.7 0-1.4.9-1.8 1.9-.3 1.1-1.3 2.2-2.1 2.5-2.9 1.1-5.9 12.6-3.6 13.9 1.6 1 5-1.3 6.5-4.5 1.8-3.8 10.2-13 13.3-14.6 3.8-2 7.5-9.7 7.2-14.6-.3-4-.4-4.2-2.5-3.3M492.9 484.5c-1.9.7-6 2.4-9 3.8-6.3 2.9-16.1 7.3-20.4 9.1-1.6.7-4.3 1.9-6 2.6s-2.4 1.5-1.7 1.7c.6.3 1 .9.7 1.4-.6.9 1.7 5.9 3.7 8.1.7.7 2.4 3.3 3.8 5.8 1.3 2.5 3.4 6 4.7 7.9s2.6 4.5 2.9 5.8c.4 1.3 1.2 2.3 2 2.3s1.4.8 1.4 1.8c0 1.3 3.6 7.5 7.5 12.9.3.5 32.5-31 32.5-31.8 0-.4-.6-1.4-1.3-2.1s-2.7-4.4-4.6-8.2c-2.2-4.8-3.5-6.6-4.1-5.7-.5 1-1 .4-1.5-1.9-.8-3.6-5.3-13.7-6.3-14.4-.4-.2-2.3.2-4.3.9M781.4 485.5c-.3 1.4-1 2.5-1.5 2.5-.9 0-13.9 26.4-13.9 28.4 0 .7 6.7 8.2 14.9 16.7l14.9 15.4 2.1-2.5 2-2.5.1 3.3c0 2.2-.4 3.1-1.1 2.6-2.6-1.6.9 4.9 10.5 19.6 5.6 8.5 11.3 17.3 12.6 19.4l2.3 3.9 3.8-4.1c2.1-2.2 4-3.8 4.3-3.5.2.3 1.3-.8 2.3-2.3 2.2-3.4 5.3-6.7 5.3-5.7 0 .5 1-.8 2.3-2.7 1.2-1.9 3.3-4.7 4.7-6.1 2.2-2.2 10.4-11.1 17.4-18.9 3.1-3.4 6.6-8.1 6.6-8.9 0-1.7-19.4-18.3-37.1-31.7l-7.3-5.6-.9 2.9c-.5 1.5-1.5 3.5-2.1 4.3s-1.7 2.6-2.5 4c-5.5 9.5-8.3 13.9-10.2 16.4-1.3 1.6-3.3 5.1-4.5 7.6-2.2 4.7-4 6.7-5.1 5.6-.3-.3.6-2.3 2-4.3 2.9-4.4 6.7-11.4 6.7-12.5 0-.5 1.6-3 3.5-5.7s4-6.3 4.6-8 1.5-3.1 2-3.1.9-.8.9-1.8c0-.9.6-2.9 1.4-4.4 1.3-2.5 1.3-2.8-.7-3.4s-6.8-2.8-24.2-11c-2.7-1.3-7.4-3.2-10.2-4.3L782 483zM721 491.5c0 6.2.3 7.5 1.6 7.5 1.2 0 1.5.6 1.1 2.1s.1 2.2 1.9 2.9c1.3.5 2.4 1.3 2.4 1.8 0 1.5 6.6 8.3 7.3 7.6 1.3-1.4.8-14.1-.7-15.3-.7-.6-1.6-2.4-1.9-3.9-.4-1.6-2.3-3.9-4.8-5.7-7.3-5.2-6.9-5.4-6.9 3M634.8 494.4c-2.1 3.4-3.8 7-3.8 7.9s-.7 2-1.6 2.5c-1.2.7-1.7 3.3-2.1 12.5l-.6 11.5 14.7-.1 14.6-.2v-3c0-1.7-.5-3.7-1-4.5-.6-1-1-1.1-1-.3 0 .7-.7 1.3-1.5 1.3s-1.5.6-1.5 1.4c0 .7-.7 1.9-1.5 2.6-1.9 1.6-1.9.2 0-4.4.9-2 1.9-3.4 2.4-3.2 1.3.8 2.3-10.2 1.1-12.3-.5-1-.7-2-.5-2.3.3-.3-.4-1.3-1.5-2.3s-2-2.5-2-3.3-1.1-2.3-2.4-3.3c-1.4-1.1-2.8-2.8-3.1-3.9-1.5-4.8-2.5-1.2-2.5 8.9 0 15.9-1.4 16.9-2 1.4l-.5-13.1zM654.7 491.2c2.3 18.3 4.3 28.4 4.3 21.5 0-1.5.5-2.7 1-2.7.6 0 1 .6.9 1.2-.2 1.8 1.2 5.8 2 5.8.4 0 2.9 2.1 5.5 4.7l4.7 4.8-.5-5c-.8-8.5-2.7-14.5-5.1-16.1-1.3-.8-3.5-3.3-4.9-5.5-1.5-2.2-3.6-4.8-4.6-5.7-1.1-.9-2-2.7-2-3.9 0-1.3-.4-2.3-.8-2.3-.5 0-.7 1.5-.5 3.2M625 490.5c0 .8-.4 1.5-.8 1.5-.5 0-2.4 2.1-4.2 4.7-1.9 2.7-3.6 5-3.9 5.3-2.4 2.2-5 7.2-4.4 8.6.4 1.1.3 1.5-.4 1.1-.7-.5-1.4 1.5-1.8 5.6-.4 3.4-.9 7.4-1 8.9-.4 2.8-.3 2.8 5.8 2.8 4.4 0 5.8-.3 4.7-1-1.3-.8-1.2-1 .3-1 1.7 0 1.7-.1 0-2.8-.9-1.5-2.4-3.4-3.4-4.2-.9-.8-2.4-2.7-3.4-4.3-1.5-2.3-1.5-2.7-.2-2.7.8 0 1.8.7 2.1 1.6.3.8 1 1.2 1.6.9.5-.3 1 0 1 .8 0 .9 1.6 3.4 3.5 5.7 2.6 3.1 3.5 3.7 3.6 2.3 0-1 .6-9.3 1.2-18.6.7-9.2.9-16.7.5-16.7-.5 0-.8.7-.8 1.5M608.6 495.5c-1 .8-1.5 1.9-1 2.6.4.8.3 1-.4.5-.7-.4-1.2-.2-1.2.3 0 .6-.6 1.1-1.3 1.1s-1.9.9-2.7 2-1.9 2-2.6 2c-.6 0-1.9.9-3 2.1-1.8 2-1.8 2.1.9 7.2 1.5 2.9 2.7 6.4 2.7 7.9s.5 3 1.1 3.4c.8.5 1-.3.7-2.5l-.5-3.1 2.4 2.2c1.3 1.2 2.3 2 2.4 1.7 0-.2.4-3.8.9-7.9s1.6-10.4 2.4-14c.8-3.5 1.4-6.5 1.3-6.6s-1 .4-2.1 1.1M934.2 505.3c-3.9 5.9-6.5 9.1-13.1 16.3-2.5 2.7-4.8 8.5-4.3 10.6.1.5-.3.8-.8.8-1.4 0-3.1 4.6-3.6 10-.3 2.5-2.3 10.1-4.4 17-2.2 6.9-4.2 14.1-4.5 16-.4 1.9-.8 4.5-1.1 5.7-.6 3.1 1.4 2.9 2.2-.2.3-1.4 1-2.5 1.4-2.5 1.8 0 12-11.1 12-13 0-1.1.9-2.5 2-3.2 2.5-1.6 9.5-13 10.8-17.8.6-1.9 2.3-6.7 3.7-10.5 2.9-7.3 3.6-10.2 6-22.5 2-10.4 1.9-12.5-.4-12.7-1.3-.1-3.2 1.8-5.9 6M338 504.5c0 5 1.4 11.5 4 19 1 2.7 2.5 7.7 3.5 11 3.5 12.6 7.8 20.5 15.2 28 2.7 2.7 6.9 8 9.3 11.7 4.7 7.5 7.3 9 6 3.5-2-8.4-3.5-13.8-5.6-21.1-1.3-4.4-2.4-8.9-2.4-10-.1-1.2-.7-3.2-1.5-4.6s-1.4-3.4-1.5-4.5c0-1.1-.7-3.3-1.5-4.9-.8-1.5-1.5-3.6-1.5-4.6 0-.9-2.1-3.9-4.7-6.6-2.7-2.8-5.5-5.9-6.3-7.1-4.6-6.2-11.4-14.3-12.2-14.3-.4 0-.8 2-.8 4.5M537.9 500.5c-.1.6-.1 1.3 0 1.7 0 .4-.6.5-1.4.2-.8-.4-1.5-.2-1.5.4 0 .5-2.4 2.8-5.2 5-2.9 2.2-6.5 5-8.1 6.3l-2.7 2.3 2.4 2.5c1.4 1.4 3.2 4.3 4.1 6.3 1.3 3.3 1.3 3.8.1 3.8-1.7 0-4.6-2.7-4.6-4.3 0-.7-1.2-2-2.6-3-3-2.2-1.9-2.8-14.9 9.3-14 13.1-19.5 18.9-19.5 20.3 0 .7 1.1 3.7 2.5 6.5 1.4 2.9 2.5 5.8 2.5 6.6s.4 1.7.8 2c.5.3 1.5 3 2.2 6.1.7 3 1.7 5.5 2.1 5.5.5 0 3-1.9 5.7-4.3 2.7-2.3 7.3-6.2 10.1-8.6 2.9-2.3 6.4-6.2 7.8-8.5 6.3-9.9 7.9-12.1 9-12.9.7-.4 1.3-1.7 1.3-2.7s.5-2.2 1-2.5c.6-.4.7-1.1.4-1.7-.4-.6-.9-2.4-1-4-.3-2.4-.1-2.9 1.2-2.4.9.3 1.8.6 2 .6.3 0 .2.4-.1 1-.3.5-.3 1 .2 1 .4 0 3-3.5 5.7-7.7 4.2-6.7 4.7-8 4.1-11.2-.3-2-.9-5.6-1.2-8.1-.5-4.1-2.1-7.8-2.4-5.5M739.8 501.2c0 .7-.2 2.4-.4 3.8-.1 1.4-.5 4.3-.9 6.5-1 5.6-.8 8.2.5 9.5.3.3 2.2 3.1 4.3 6.3 4.4 6.7 5.7 6.6 10.4-.8 1.5-2.4 3.6-4.7 4.5-5 4.5-1.6 2.1-5.3-9.7-15-2.6-2.2-5.4-4.6-6.1-5.3-.7-.6-1.5-1.2-1.8-1.2s-.7.6-.8 1.2M672 502.5c0 .2.5 1.6 1.1 3.2.7 1.5 1.3 4.8 1.4 7.3.2 5.4 1.5 13 2.2 13 1.8 0 3.3-3.5 3.3-8 0-2.8.4-4.9.9-4.6.5.4 1.1 0 1.4-.6.3-1 .7-1 1.7-.1 1 1 1 1.8-.2 4.5-2.6 5.6-3 8.8-1.4 9.4.9.3 2.3-.2 3.2-1.1 1.4-1.3 1.5-2.3.7-5-.6-1.8-.8-4.5-.6-5.9.3-1.4 0-3.3-.7-4.1-.6-.8-.9-1.8-.6-2.3.3-.6-.2-.9-1.2-.8-1.1 0-1.8-.7-2-2.2-.2-1.2-.8-2.2-1.4-2.2s-.8 1.1-.5 2.7c.7 3.9-1.4 5.7-3 2.5-.7-1.3-1.3-3-1.3-3.7s-.7-1.5-1.5-1.9c-.8-.3-1.5-.4-1.5-.1M446 506.8c-1.4.9-3.4 2.5-4.5 3.4s-5.1 4.3-9 7.6c-11.1 9.2-14.6 12.4-19.9 17.4l-4.8 4.7 4 4.8c2.2 2.7 6.6 7.5 9.9 10.8 5.7 6 23.1 24.7 29.1 31.4 1.6 1.8 3.4 3.2 4 3 2.1-.8 25.2-36 25.2-38.4 0-1.4-2.9-7.1-5.6-11-.8-1.1-1.4-2.6-1.4-3.3 0-1.4-1.8-4-7.2-10.6-1.6-1.9-2.8-3.7-2.8-4 0-2.2-12.2-17.6-14-17.6-.3 0-1.6.8-3 1.8M367 517.5c0 5.2 2.8 12.6 6.1 16 1.6 1.7 2.9 3.6 2.9 4.1 0 .6 1.2 2.1 2.6 3.5 1.4 1.3 3.5 3.9 4.6 5.9 1.2 1.9 3.5 5.2 5.2 7.2s4.3 5.4 5.9 7.5c7.1 9.8 10.8 14.3 11.8 14.3.7 0 .9-1.9.4-5.8-.3-3.1-1-10.5-1.4-16.3-.4-6.5-1.3-11.3-2.2-12.6-1.3-2-11.8-10.5-15.7-12.8-.9-.6-3.7-2.9-6.2-5.2-2.5-2.4-4.9-4.3-5.4-4.3-.4 0-2.1-1.1-3.8-2.5-3.9-3.3-4.8-3.2-4.8 1"/><path d="M901 520.2c-4.5 3.5-10.3 7.8-12.8 9.6-4.2 2.8-8.1 6.6-11.9 11.3-2.7 3.3-5.6 36.9-3.3 36.9 1.5 0 6.1-5.3 7.3-8.4.4-1 1-1.7 1.3-1.4.8.9-1.8 5.9-5.8 11.2-2 2.7-3.9 6.3-4.2 8-2.8 16.1-6.7 46.5-6.6 52.3 0 2.8 2.2 2.1 4-1.3.7-1.3 1.7-2.4 2.2-2.4s0 1.3-1.1 2.9c-3.4 4.7-3.7 8.6-1.1 10.8 1.3 1 3.4 2.8 4.9 4l2.6 2.3-4-2c-4.8-2.5-6.2-2.5-6.9-.3-.2 1-.8 9.7-1.1 19.4-.6 13.8-.5 17.8.5 18.4.8.5 1.8.1 2.7-1 1.3-1.8 1.3-1.8 1.3.1 0 1-.9 4.4-2 7.4-4.4 12.1-3.5 22 2.2 22 2.4 0 2.8-.6 4.6-6.2 3.6-11.4 5.8-22.7 6.7-34.3l.6-8-2.6 4c-4.4 7-2.8 1.1 3-10.6.7-1.5 1.1-3.8.8-5.2-.4-1.9 0-2.7 1.5-3.2 1.5-.4 2.3-1.8 2.8-5.1.5-3.9.9-4.4 2.6-3.8 1.2.4 2.4.1 2.9-.7.4-.7 1.1-1 1.5-.7.4.4-.6 3.3-2.1 6.5-3.4 7.3-3.9 10.5-2.7 17.3.7 3.4.7 5.9.1 6.4-.5.6-.9.1-.9-1.3 0-2-2-5.1-3.3-5.1-.3 0-.8 3-1.2 6.7-.4 3.8-1.1 7.5-1.5 8.4-.5.8-1 4.4-1.1 8-.1 3.5-.8 8.6-1.5 11.3-.8 2.7-1.4 7.4-1.4 10.3 0 5 .1 5.3 2.5 5.3 1.4 0 2.7-.6 3-1.3.2-.6 1.3-4.1 2.5-7.7 2-6 3.4-12.2 4.7-20.9.3-2.2.7-3 1.2-2.2 1 1.6 5.6-10.9 7.7-20.9.8-4.1 1.8-7.8 2.2-8.2s.7 4.5.7 11c0 6.8.4 11.9 1 12.2s1.1-.6 1.3-2 1.4-4.8 2.7-7.6c1.3-2.9 2.7-6.9 3.1-9 .4-2.2 1.5-5.1 2.5-6.5s2-3.6 2.3-5c1.8-8.6 4.9-21 6.2-24.7.8-2.4 1.6-8.2 1.8-13 .3-4.8 1.2-10.8 2-13.2.9-2.5 1.6-5.5 1.6-6.8 0-1.2.4-2.2.8-2.2 1.2 0 4.3-14.5 3.6-16.4-.4-1 .1-2.5 1.1-3.6.9-1 1.8-3 1.9-4.3.2-1.4 1-3.2 1.8-4.1 2.3-2.2 5.2-19 3.8-21.6-.6-1.1-1.3-2-1.5-2s-1.4 3.3-2.5 7.2c-1.2 4-2.5 8-3 8.9-.4.9-1.1 4.2-1.5 7.5-.4 3.2-1.3 7.2-2 8.9-.8 1.6-2.8 6.5-4.5 10.7-1.8 4.3-3.6 8-4.1 8.4-.5.3-.9 2.4-.9 4.7 0 5-2.3 16.6-3.9 19.3-4.1 7.2-6.3 14.2-9.5 30.8-1.5 7.6-2.9 10.7-4.2 9.4-.3-.3-.1-2.3.5-4.5 1.4-4.9 1.4-12.6.1-11.8-2.2 1.3-2-2.4.3-6.7 1.3-2.5 2.7-6 3-7.7.4-1.8 1.6-4.5 2.7-6.1 1.1-1.5 2-3.5 2-4.3s1.1-4.8 2.4-8.8c1.3-4.1 2.6-9.1 2.9-11.1.3-2.1 2.4-7.9 4.5-13 6.1-14.2 6.3-19.2.5-13.9-2 1.8-3.4 2.5-3.7 1.7-.2-.6-.5-.3-.5.7-.1 1.1-1 3.1-2.1 4.5-3.9 5.1-5.1 6.7-10.1 13.1-4.2 5.3-5 7-4.7 9.7.3 2.2-.1 3.5-1.3 4.2-1.2.8-1.9 3.1-2.4 7.9-.4 3.7-1.5 10.2-2.5 14.3s-2.2 9.5-2.5 12-1.2 5.6-1.9 6.9c-1.3 2.3-1.4 2.3-2 .5-.3-1.1.3-5.1 1.3-8.9 3.3-12 5.5-25.5 4.5-26.5-1.2-1.2-4.6 1.4-5.8 4.5-.5 1.3-1 1.5-1.3.7-.4-1.1 2.4-6.9 10-20.3 1.4-2.5 3.3-8.3 4.2-13 .8-4.6 2-9.8 2.5-11.4 2.2-7.2 7-28.2 7-30.5-.1-2.2-.2-2.3-1.1-.8-.5 1-1.7 1.8-2.4 1.8-.8 0-1.5.4-1.5.9 0 1.3-5.5 9.5-7.5 11.1-.8.7-1.5 2.2-1.5 3.3s-.3 1.8-.6 1.5c-.7-.8-7.4 6.5-7.4 8.1 0 .6-.4 1.1-1 1.1-.5 0-1 .7-1 1.5s-.7 1.5-1.5 1.5c-2 0-1.9-1.5.3-3.7 1-1 2.9-3.6 4.2-5.8 1.4-2.2 2.8-4.5 3.2-5 .5-.6 2-2.4 3.3-4 1.4-1.7 2.5-3.5 2.5-4 0-.6 2.1-3.2 4.7-5.8 5.4-5.7 9-11.9 9.3-16.2.5-6.5 0-9.5-1.4-9.5-.8 0-5.1 2.8-9.6 6.2M757.9 527.1c-3.5 3.8-6.9 7.5-7.5 8.2-.7.7-.8 2-.4 3.3 1.7 4.5 12.4 19.2 18.3 25.3 6.3 6.5 15.3 14.1 16.6 14.1.4 0 1.3-1.8 2-4 1.3-4.4 3.7-5.7 2.7-1.4-2.1 8.1-2.3 7.6 5.6 14.7 17.5 15.8 19.6 16.9 24 11.6 1.5-1.8 2.8-4.2 2.8-5.3 0-3.9-22.2-37.6-24.8-37.6-.7 0-1.1-.4-.8-.8.3-.5-.3-2-1.3-3.5-1.7-2.7-23.4-25.3-28.2-29.4l-2.5-2.2zM631 534.4c.9 2.4.8 2.5-1.7 1.5-1.4-.5-2.8-.8-3-.5-.3.2-.7 6.4-1 13.8l-.6 13.3 5.4.3c3 .1 6.2.5 7.2.8 1.7.5 1.8-.5 1.5-15.3l-.3-15.8-4.2-.3c-4.2-.3-4.3-.3-3.3 2.2M641.7 532.7c-.7.7-1 30.7-.3 31.4.2.2 4.1.3 8.5.1l8.1-.4v-6.6c0-12.8-1.2-23.2-2.6-23.2-.8 0-1.4.4-1.4 1 0 .5-1.5 1-3.2 1h-3.3l3-2 3-2h-5.6c-3.1 0-5.9.3-6.2.7M619.5 534.1c-1.6.5-5.2 1.1-8 1.3l-5 .4-.7 4.9c-.3 2.6-.7 8.6-.7 13.2-.1 6.6.2 8.2 1.2 7.8.8-.3 2-.1 2.8.3.8.5 1.9.4 2.6-.2.8-.6 3.2-.7 6.3-.3l5 .7v-14.6c0-8-.1-14.6-.2-14.5-.2 0-1.6.5-3.3 1M659.8 544.5c.1 6 .5 12.9.8 15.1l.5 4.2 4.2-.6c11-1.4 12.5-3.8 10.7-17.4-1.6-12.4-1-11.6-9.3-12l-7.2-.3zM369.8 538.6c-.3.2.2 2.8 1 5.7.8 2.8 2 7.4 2.6 10.2.7 2.7 1.6 5.7 1.9 6.5.4.8 1.4 4.9 2.2 9 1.5 7.3 3.8 15.4 5.5 19.5.4 1.1 1.5 3.6 2.3 5.5s1.7 7.1 2 11.5 1.9 15.9 3.6 25.5c4.2 24.5 4 24 6.3 24 1.6 0 1.7.3.8 2.1-.9 1.6-.8 2.9.4 5.9.8 2.1 1.2 4.1.8 4.5-.4.5-.2.5.5.2 1.2-.8 5.1 7.9 3.9 9-.3.3-.6.1-.6-.6 0-.6-.8-2.1-1.9-3.2-1.6-1.8-1.9-1.8-2.5-.4-.3.9-.1 4.6.4 8.3s1 9.3 1 12.4.4 5.8.8 6c.9.3 5.2 14.7 5.5 18 .1 1.4 1 1.8 3.9 1.8 2.8 0 3.6-.4 3.2-1.4-.3-.8-.1-1.7.4-2 1.1-.7 1.4-54.7.4-61.6-.7-4.3-.9-4.5-3.7-4.2-2.6.2-2.8.1-1.3-1 .9-.7 2.5-1.8 3.5-2.4 1.4-.9 1.6-1.4.6-2.6-1-1.1-1-1.7-.1-2.6s.9-3.4 0-10.4c-.6-5.1-1.6-14.7-2.2-21.3-1.6-18.4-3.1-26.1-5.5-28.7-1.1-1.3-3.2-4.1-4.5-6.3s-5.7-7.7-9.7-12.3c-4-4.5-7.3-8.6-7.3-9s-1.4-2.3-3-4.2c-1.7-1.9-4-4.9-5.2-6.6-2.2-3.2-5.2-5.6-6-4.8"/><path d="M747 542c0 .6-.9 3-2 5.2-1.4 3-2 6.1-1.9 10.7.1 4.8.3 5.9.9 4.1.8-2.4.8-2.4.9.7.1 2.5-.3 3.2-2.1 3.5-1.5.2-2.4 1.3-3.1 3.8-1.1 4.3-.4 13.5 1.3 17.5l1.3 3 .7-2.5c.5-1.4.8-1.9.9-1.2s.5 1.1 1 .7c.5-.3 1.2-.1 1.6.5.3.6 0 1.3-.8 1.6s-1.7 1.4-2 2.4c-.4 1.5 1.4 3.7 7 8.7 7.3 6.6 10.2 8.8 10.7 8.1.1-.1 1-1.6 2-3.1 1.1-1.8 2.3-2.6 3.2-2.3.9.4 2.4-.9 4.2-3.3 1.5-2.2 3.5-4.2 4.5-4.4 2.5-.7 2.2-.1-2.8 5-6.5 6.5-8.2 9.7-6.5 11.8 3.4 4.1 20.4 13.8 22.8 13.1 1.4-.5 2.2.2 3.4 2.6.9 1.8 4.5 6.4 8.1 10.3 3.5 3.8 7.4 8.9 8.6 11.2 1.1 2.3 3.4 5.7 5 7.5 6.7 7.6 12.4 23 16.6 44.5.4 1.8 1 3.5 1.5 3.8 1.5.9 5.9-4.3 7.1-8.6.7-2.4 1.7-4.7 2.2-5 1.8-1.2 2-12.6.4-19.6-.9-3.7-1.9-10.3-2.2-14.6-.4-4.3-1.1-9.3-1.7-11-.5-1.8-1.2-4.6-1.5-6.2-.7-4.3-17.6-32.5-19.4-32.5-.4 0-1 1.5-1.2 3.2l-.4 3.3-.1-3.3c-.1-1.7-.6-3.2-1.2-3.2-.5 0-1-.6-1-1.4 0-1.6-8.6-9.4-19.8-17.9-4.3-3.3-5.5-3.8-6.3-2.6-.7 1.1-.9 1-1-.6 0-1.1-.3-1.4-.6-.8-.9 2.3-2.5 1.4-1.9-1.1.5-2-.2-3-4.2-6.2-2.6-2.2-8.1-7.3-12.2-11.5-5.2-5.3-8.6-8-11.2-8.7l-3.6-1-2.1 6.7c-1.2 3.6-3 10-4.1 14.1l-1.9 7.5.4-6c.2-3.3 1-7.8 1.6-10 .7-2.2 1.1-6 1.1-8.5-.1-2.4.4-5.1 1.1-6 2.4-2.8 2.1-13-.4-13-.5 0-.9.5-.9 1"/><path d="M868 548c-6.5 7.9-16.4 18.9-26 28.8-3.6 3.7-8.3 8.9-10.5 11.7-2.2 2.7-4.3 5.1-4.7 5.3-1.3.6-.9 2.7 1.7 8.6 1.4 3.1 2.3 5.6 2 5.6-.2 0 .3 1.6 1.1 3.5.7 1.9 1.4 4.5 1.3 5.7 0 1.4-.6.6-1.4-2.2-2.3-8.3-6.1-16.5-7.6-16.5-.8 0-2.2 1.7-3.2 3.7l-1.8 3.8 6.5 10.8c3.5 5.9 7.4 11.6 8.5 12.6 1.2 1.1 2.1 2.5 2.1 3.1 0 .7.8 1.6 1.7 1.9 1.2.5 2.7-.4 5-3.1 2.9-3.4 3.2-3.6 3.3-1.6 0 1.3-.4 2.3-1 2.3-.5 0-1 .8-1 1.7s-.8 2.5-1.7 3.6c-1.4 1.5-1.8 3.5-1.6 9.6.2 9.4 4.4 38.1 5.5 38.1.4 0 .8-.4.8-.9 0-.4 1.1-2.4 2.4-4.4 1.3-1.9 3.4-6.3 4.6-9.8 1.3-3.5 3.3-8.6 4.6-11.3 1.3-2.8 2.4-6.4 2.4-8.1s.5-3.6 1-4.1c.6-.6 1.5-6.6 2-13.5.6-6.8 1.4-14.4 1.9-16.9.8-3.8 1.5-16.6 1.2-21.7-.1-.7-.8-1-1.6-.7-2.1.8-1.9-.5.9-6.8 1.7-3.7 2.7-8.8 3.4-16.3 1.7-16.9 2.3-26.5 1.9-26.5-.3 0-1.9 1.8-3.7 4M408.4 559.4c1.1 18.9 1.9 21.8 9.7 37.6 7.1 14.3 11.4 21.8 13.4 23.2.6.5.6 1.1-.1 1.8s-2.2-.8-5.1-5.2c-4.1-6.4-9.1-15.9-11.2-21.2-.8-2-1.5-2.6-2.2-1.9-1.1 1.1 1.3 33.1 3.2 42.8.6 2.7 1.4 7.7 1.8 11 .4 3.4 2.1 8.9 3.6 12.3s2.5 6.5 2.1 6.9c-.3.3-.6-.1-.6-1 0-.8-.3-1.7-.8-1.9-.4-.2-1.7-1.6-3-3.2-1.8-2.4-2.2-2.6-2.3-1-.1 1.1-.1 2.2 0 2.6 0 .3.5 10.2 1 22 1.1 22.9 1.4 25.8 3.2 26.9 1.1.7.9 3.6-.6 7.2-.6 1.5 0 1.7 5.7 1.7h6.5l-.3-15.3c-.1-8.3-.5-15.9-.7-16.7-.3-.8-.8-2.9-1.1-4.5l-.6-3 1.9 2.3 2 2.3 1-3.8c1.2-5 2.9-18.4 3.6-30.3.3-5.2.8-10.5 1.1-11.8.3-1.4 0-2.2-.9-2.2-1.7 0-7-10.2-6.5-12.6.3-1.4 1.3-.2 3.4 4.1 4.2 8.7 4 8.7 9.9 1 1.1-1.4 3.3-4.1 4.8-6 1.5-1.8 4.6-6.6 6.8-10.6l4-7.3-1.8-3.4c-1-1.9-2.8-4.2-4.1-5.2s-3.5-3.6-4.9-5.7c-2.8-4.1-33.8-37.2-36.3-38.7-.8-.5-2.1-1.8-2.8-2.8-2.9-4-3.5-2-2.8 9.6M479.9 556.2c-.7 1.3-6.1 9.7-12.1 18.6-5.9 9-10.8 17-10.8 17.8s1.6 3.2 3.6 5.4c2.8 3 4 3.8 5.3 3.1.9-.5 6.8-5.2 13.1-10.3 13-10.7 13.6-11.9 9.4-20.6-1.3-2.6-2.4-5.5-2.4-6.5 0-.9-.4-1.7-.9-1.7-.6 0-1.1-1.7-1.3-3.7-.4-4.3-2.2-5.3-3.9-2.1"/><path d="M523.5 556.8c-3.6 1.7-13.5 11.1-13.5 12.8 0 .7-1 1.6-2.2 2-1.3.3-4.7 2.7-7.5 5.1l-5.3 4.4 1.6 3.1c.8 1.6 1.3 3.3.9 3.6-.3.3-.8-.4-1.2-1.6-.3-1.2-.9-2.2-1.3-2.2-1.2 0-2 3.1-3 10.8l-.9 6.7.3-8.7c.3-7.9.2-8.7-1.3-7.8-4.8 3-23.7 18.9-24.7 20.8-.6 1.3-1.5 2.2-2 2.1-.4-.1-3.3 3.7-6.3 8.4-3.1 4.7-7.5 11.4-9.8 14.9-2.4 3.5-4.3 6.9-4.3 7.6 0 .8 3 4.4 6.6 8 9.2 9.3 9.6 9.8 5.9 7.9-1.7-.8-5.1-3.8-7.7-6.5-2.5-2.7-5.1-4.7-5.6-4.3-.5.3-1.3 4.4-1.7 9.1-.3 4.7-1.3 13.2-2.2 19-.8 5.8-1.6 12.2-1.7 14.3-.2 3.3 0 3.6 1.8 3.1 2.3-.7 7.5-6.3 11.9-12.8 1.5-2.2 4.1-4.9 5.6-5.8 3.3-2.1 7.3-9.9 5.3-10.6-.6-.2-1.2-1.3-1.2-2.5 0-2 0-2 1.4-.2 1.4 1.9 1.4 1.9 3.5.1 3.6-3.3 8.1-12 7.4-14.4-.4-1.8-.2-2.1 1.2-1.6 1.1.5 3.1-.8 6.7-4.2 5.8-5.8 8.7-10.4 6.4-10.4-1.6 0-3.1-1.8-2.2-2.7.3-.3 1.2 0 2 .6 1 .9 1.6.9 2.1.1s1.1-.6 1.9.6c1.1 1.5 1.8 1.3 7.2-2.2 6.3-4.2 7.8-5.3 13-9.8 2.7-2.2 3.4-3.6 3.4-6.5 0-5.5 1.6-7.3 2.7-3 .5 1.9 1.5 3.4 2.2 3.4.8 0 4.9-2.7 9.2-6 7.5-5.7 7.8-6.2 7.9-10.1 0-2.2-.7-6.3-1.5-9-.9-2.7-2.3-7.2-3.1-9.9-.9-2.8-2-5.9-2.4-7-.5-1.1-1.3-3.8-1.7-6l-.8-4.1zM346.5 564.6c-2.1 5.1-1.9 7.2.7 7.6 2 .3 2.2.8 2 4.4-.2 2.5.7 7.1 2.2 11.8 1.4 4.2 2.6 8.7 2.6 10s.6 3.9 1.4 5.8 1.8 7 2.1 11.4c.9 11.1 3.2 22.1 6.6 32 1.6 4.6 2.9 9.5 2.9 10.8 0 1.4.6 3.1 1.3 3.8 1.8 1.9 8.7 24.6 8.7 28.6 0 1.1.5 2.4 1.1 2.7.6.4.8 1.3.5 2.1-.3.7 0 1.6.5 2 .7.4.9-.9.5-3.7-.9-6.5-2.9-26.8-3.1-31.5-.4-5.8 1.2-7.8 2-2.8.4 2.1 1.4 6.4 2.2 9.4s1.8 6.9 2.2 8.5c1.9 7.2 5.1 9.5 5.1 3.7 0-1.5.4-3.3.9-4.1.5-.7.6 3.6.4 10-.5 11.3-.5 11.5 3.1 20.3 2 4.9 3.6 9.7 3.6 10.7 0 1.4.7 1.9 2.5 1.9 2.9 0 2.8.7 1.5-11.3-.5-5.1-1.1-11.2-1.4-13.7s-1.4-9.4-2.5-15.4c-1.2-6.1-2.1-11.1-2.1-11.3 0-.1-.7 0-1.6.4-1.2.4-1.4 0-.9-2 .7-2.8-2-11.3-5.8-17.9-2.9-5.3-1.2-6.1 2.9-1.3l3.4 4V648c0-2-.9-6-1.9-9s-2.2-8.4-2.6-12c-.7-7.2-5.2-25-6.6-26.5-.5-.5-.9-2-.9-3.3 0-2.6-6-11.7-11.7-17.7-2.1-2.3-5.5-6-7.5-8.4-4.7-5.4-4.8-4.4-1.2 11.2 2.5 11.1 6.8 22.2 8.2 21.4.4-.3.7 2.1.8 5.3 0 3.4.6 6.7 1.6 8.1.8 1.3 1.8 4.2 2.2 6.4s1.8 6.2 3 9c2.4 5.3 3.5 17.9 1.6 19-.6.3-1-.2-1-1.2 0-1.1-.5-2.4-1-2.9-.6-.6-1.9-3.9-3-7.5-3.7-12.1-6.7-19.9-9.3-23.8-1.6-2.3-2.3-4.3-1.7-4.6 2.6-1.6.7-14.1-4-26.5-3.5-9.2-7-20.5-7-22.5 0-2.7-2-1.5-3.5 2.1M626.4 572.1c.4 2.9 1.1 5.8 1.6 6.4s1.1 2.6 1.2 4.4c.1 1.9 1 3.7 2 4.2 1.2.7 1.8.6 1.8-.1 0-.8 1.2-.9 3.3-.5 2.7.5 3 .4 1.7-.7-1.2-1-1.4-2.3-.8-5.3.4-2.2.7-5.8.7-8 .1-3.2-.3-4.1-1.6-4.1-1 0-3.8-.4-6.2-.8l-4.4-.8zM647.8 568c-2.6.5-5.2 1.1-5.7 1.5-.7.3-1.1 4.3-1.1 9.2 0 8.4 0 8.5 2.3 7.9 1.2-.3 2.5-.6 3-.6.4 0 .7-.7.7-1.5 0-2.9 3-6.3 5-5.8 2.5.7 2.5 1.8 0 4.3-3 3-2.6 5 1 5 3 0 3.1-.1 3-4.8 0-2.6.2-7.3.6-10.5.7-6.5.9-6.3-8.8-4.7"/><path d="M543.1 584.3c-1.5 3.9-1.4 5.7.5 6.4 1 .3 1.2.8.5 1.2-1.9 1.2 0 5.1 2.5 5.1 1.2 0 3 1 3.9 2.2.8 1.3 1.8 2.2 2 2 1.5-.7 3.7.1 6.2 2.3 2.6 2.3 2.7 2.4.6 2.5-1.1 0-3.9-1-6.2-2.2-4.7-2.5-5.9-1.9-4.2 1.8 2 4.5.7 3.6-4.4-3-3.3-4.2-5.5-6.1-6.5-5.8-1.5.6-2.6 1.5-9.7 7.4-2.4 2.1-4.8 3.8-5.3 3.8-1.8 0-3.2 4-1.9 5.6.9 1.1.9 1.4-.2 1.5-.8.1-.3.5 1.1.9 2.3.7 2.3.8.3.9-1.2.1-2.5-.4-2.8-.9-1.8-2.9-3.1 3-5.1 22.8l-.6 6.3 2.8-.7c1.6-.4 3.1-1 3.4-1.4s1.9-1 3.5-1.4c2.6-.6 6.2-2.2 15.7-6.8 2.3-1 2.8-1 2.8.1 0 .5-1.7 1.5-3.7 2.2-2.1.6-4 1.5-4.3 1.8-.6.7-6.3 3.4-10.7 5.1-1.7.6-3.9 2-4.9 3.1-1.6 1.7-1.6 1.9-.1 1.9 1 0 1.7.6 1.7 1.3s1.2 1.8 2.8 2.5c1.5.6 4.1 2.1 5.7 3.2 1.7 1.1 6.1 3.5 9.9 5.3 5.8 2.8 6.6 3.5 5.3 4.6-.9.6-2.1 1.1-2.9 1-.7-.2-4.7.7-8.8 1.9-4.1 1.3-8.6 2.6-10 3-3.3 1-3.7 4.7-1 9 2 3.2 2.2 3.3 4.4 1.8 2.1-1.3 2.6-1.3 3.6-.1 1.7 2.1 15 1.6 21.4-.7 5-1.8 8.9-4.5 8.1-5.7-1.5-2.5-.1-20.9 3-38.4.3-1.9 0-2.7-1-2.7-.8 0-2.4-.9-3.5-2s-2.5-2-3.2-2c-.6 0-1.9-.6-2.7-1.3-.9-.7-4.7-2.3-8.6-3.6-8.8-2.9-13.2-4.9-14.1-6.2-1.2-2 .4-2 3.7.1 1.9 1.1 6.6 3 10.4 4.1 3.9 1.2 7.5 2.4 8 2.8.6.4 2.4.7 4 .7 2.6-.1 3.1-.5 3.6-3.6.4-1.9.7-3.1.8-2.5.2 1.8 5 6.7 5.9 6.1.5-.3 1.5-2.7 2.2-5.3.7-2.7 1.7-5.3 2.1-5.9.5-.5.6-1.9.3-3.1s-.1-2.9.4-4c1.4-2.5-1.3-5.7-7.5-8.9-2.6-1.4-5.2-3.1-5.7-3.8-1.9-2.1-9.5-6.6-11.3-6.6-1.5 0-1.5-.1.1-1.3 1.7-1.3 1.7-1.6.3-4.3l-1.5-2.9zM733 587c-1.3 2.7-2.6 5-3 5-.3 0-1.5.8-2.6 1.8s-5.3 4.1-9.4 6.8c-4.1 2.6-7.6 5.2-7.8 5.6-.2.5-1 .8-1.8.8-2 0-1.7 1.7.4 2.9 1.4.7 2.5.6 4.1-.5 1.2-.9 2.5-1.4 2.8-1.1.2.3-.4 1-1.5 1.6-3.9 2.1-5.2 4.1-4.5 6.9.9 3.6 5.1 13.2 5.8 13.2.4 0 .3-.5 0-1-.3-.6-.1-1 .4-1 .6 0 1.1-.8 1.1-1.9 0-1 .7-2.4 1.5-3.1 1.7-1.4 1.9-.7.6 3.8-1.1 3.7-1 3.7 2.8 1.7 2.4-1.2 3.1-1.2 4.6-.1 2.3 1.7 1.2 3.5-1.8 2.9-1.4-.3-2.9.2-3.6 1.1-.8.9-2 1.6-2.7 1.6-1.9 0-1.7 2.6.8 14.5 2 9.7 2.4 16.1 1.5 23.6-.5 4.9 1 6.5 8.4 9 8.1 2.7 29.9 3.6 29.9 1.3 0-2 .1-2.6 1.1-5.1 1.1-3 .1-5.3-2.2-5.3-1 0-1.9-.5-1.9-1 0-.6 1.2-.9 2.7-.8 2.5.3 2.9-.2 4.4-4.7 1.4-4.5 2.6-16.5 1.6-16.5-.2 0-1.4.9-2.7 2s-3.2 2-4.4 2c-2 0-2-.1.3-1.3 1.3-.6 2.9-2 3.5-3 .9-1.5.7-2.2-1.3-3.8-3-2.5-1.9-3.7 2.1-2.1l3.1 1.1-.7-7.7c-.4-4.2-1.3-10.3-2-13.4-.8-3.1-1.1-5.9-.8-6.2s-1.2-.6-3.4-.6c-3.8 0-3.8 0-1.6-1.6 1.2-.8 2.2-2.1 2.1-2.7 0-.7-2.9-3.7-6.5-6.7s-7.4-6.3-8.5-7.3c-2.6-2.5-4.4-1.6-6.9 3.3-1.1 2.2-2.6 4-3.3 4-.8 0-.9-.3-.1-.8.6-.4 1.6-1.7 2.3-2.9l1.1-2.2-4 1.8c-2.2 1-4.3 2.1-4.7 2.4-.3.4-1.2.7-1.9.7-2 0-.5-3 1.5-3 .9-.1 2.5-1.3 3.6-2.7s3.1-3.6 4.4-4.9c2-2 2.2-2.9 1.7-6.9-.4-2.5-1.1-4.5-1.5-4.5s-1.8 2.2-3.1 5M346.6 602.5c.2 3.8 1.1 9.7 1.8 13 .8 3.3 2 8.9 2.6 12.5.7 3.6 2.1 9.2 3 12.5 1 3.3 2.4 7.9 3.1 10.3 1.4 4.8 2.9 6.5 2.9 3.3 0-1.2-.4-2.1-1-2.1-.5 0-1-1.8-1-4 0-8.5-4.6-31.6-8.3-41.5-.8-2.2-2-5.6-2.6-7.5-.9-3-1-2.6-.5 3.5M674.3 613.8c-2.3 2.8-4 10-3 12.6.5 1.2 1.3 1.3 4.3.5 2-.6 4.5-.8 5.5-.6 1.1.3 1.9.1 1.9-.4s.7-.9 1.5-.9c2.5 0 1.6 1.4-2 3.1-1.8.9-3.9 1.2-4.6.8s-2.5-.1-4 .7c-2.1 1-3 2.4-3.5 5.2-.3 2-1.3 6.1-2.1 9s-1.3 7.1-1.1 9.5l.4 4.2 5-.2 4.9-.1-3.4 1.4c-1.8.8-4 1.4-4.8 1.4-1.2 0-1.4.9-.8 4.6 1.2 8.1 4.2 8.8 10.2 2.6 1.9-1.9 3.7-3.2 4-2.8.4.4-.7 1.9-2.4 3.5-1.7 1.5-3.4 3.8-3.8 5.1-.7 2.3-.7 2.3 5.6 1.6 3.5-.4 7-.7 7.7-.8 1.1-.1 1.9-8.2 1.4-14.8-.1-1.4-.4-7.5-.7-13.6-.2-6.2-1.1-13.1-1.9-15.5-.9-2.4-1.6-5.1-1.6-6 0-2.9-4.5-11.4-6-11.5-.8-.1-2.2-.4-3-.8-.9-.3-2.4.5-3.7 2.2"/><path d="M696 612c0 .6-1.8.7-4.6.3l-4.5-.6.7 3.9c1 5.4 2.9 7.9 7.2 9.9 2 .9 4.6 2.1 5.7 2.7s3.1 1.4 4.5 1.9l2.5.7-2.6.1c-1.5.1-5-.4-7.9-.9-2.9-.6-5.4-.9-5.5-.8-.1.2.2 4.6.7 9.7.8 9.6 2.1 12.9 6.2 16.4 1.7 1.5 1.7 1.8.4 1.3-2.3-.7-2.3.4.4 5.6 3.9 7.8 5.6 9.6 10.9 11.3 4.7 1.6 5.1 1.6 7-.1 2.4-2.1 2.6-9.5.4-11.8-1.6-1.6-2-3.1-.6-2.2 1.7 1.1 1.7-4.1-.1-13.4-1.1-5.2-2.6-10.5-3.4-11.7s-1.4-2.9-1.4-3.8c0-2.7-5.4-14.4-6.9-15-.8-.3-2.3.1-3.5.8-2.3 1.5-5.6 2.8-5.6 2.3 0-.2.9-1.3 2-2.6s2-2.9 2-3.7c0-.7-.9-1.3-2-1.3s-2 .4-2 1M581.8 612.8c-2.3.4-2.2.8.2 3.9 3.1 4 2.4 4.8-1.5 1.9-1.9-1.5-3.9-2.5-4.4-2.1-.5.3-1.1-.1-1.4-.7-.4-1.3-7.5 11.8-8 14.9-.2 1-.8 2.7-1.4 3.8-1.1 2-2.6 8.3-4.1 16.5-1.3 7.1-.9 24 .5 24.8.7.5 3.4.5 6 .2 4.4-.5 4.8-.8 7.3-5.5 1.4-2.8 3.6-6.8 4.8-9s2.2-4.5 2.2-5.2.4-1.3.9-1.3c2 0 5.4-24 3.6-25.8-.1-.2-4.4.6-9.4 1.6-9.6 2-13.3 1.5-5.3-.7 7.1-2 15.2-5.4 15.2-6.3 0-.5.5-.6 1-.3 1.2.7 3-3.5 3-6.9 0-1.9-.8-2.5-3.7-3.3-2.1-.5-4.6-.7-5.5-.5M597.3 613.6c-1.6 1.6-5.3 10-5.3 11.8 0 1.2 1.1 1.6 4 1.6 2.2 0 5.7.7 7.7 1.5 1.9.8 3.8 1.5 4.1 1.5 1.1 0-.7-11.9-2.2-14.9-1.3-2.5-2.2-3.1-4.5-2.9-1.5.1-3.2.7-3.8 1.4M507.7 618.6c-3.8 2.5-7.8 5.4-9 6.4-1.1 1.1-2.7 2-3.4 2s-1.5 1.1-1.9 2.5c-.4 1.8-1.1 2.4-2.3 2-1.1-.3-3.6 1.5-7.6 5.8-7.2 7.5-9.1 10.5-7.6 12 .6.6 1.1 1.6 1.1 2.1 0 .6-.7.3-1.4-.7-1.3-1.6-1.6-1.4-4.8 3-3.9 5.5-5.2 8.3-3.8 8.3.6 0 1 .7 1 1.6 0 1.1-.6 1.4-2 .9-1.7-.5-2.5.4-5.5 6.9-3.4 7.3-4 9.2-4.9 15.1-.3 1.6-.9 5.4-1.4 8.2-.5 2.9-.7 5.3-.5 5.3 1.5 0 9.3-8.7 9.3-10.4s-.2-1.8-1-.6c-.8 1.3-.9 1.3-1.4 0-2-6.5-1.4-11 1.5-11 1.9 0 2.5 2.3 1.9 7.4-.1 1 .4 2.2 1.1 2.7 1.4.8 6.8-5.4 9.4-10.8 1.4-2.9 5.5-6.4 5.5-4.7 0 .4 1.3-1.1 3-3.2 1.6-2.2 3.4-4.4 3.8-4.9.6-.6-.5-2.7-2.6-5.3-4.2-5.1-3.6-6.6 1-2.3 1.8 1.7 4 3.1 4.8 3.1 1.4 0 10.4-5.9 16.5-10.8 2.5-2 2.8-2.6 1.7-4.3-1.5-2.4-.6-4.5 1.3-2.9.9.8 1.4.7 1.8-.5.9-2.2 3.9-24.4 3.5-26-.2-.9-2.4 0-7.1 3.1M764 618.3c.2 11 5.2 27.4 9.6 31.2 5.9 5.2 12.5 9.5 14.7 9.7 1.4.1 2.4.4 2.2.6-.8.8 2.3 5.7 6.8 10.7l4.5 5 3.7-4c2-2.2 4.1-4.9 4.6-6s1.4-2.7 2-3.5c.8-1.2.3-2.7-2.6-7-2.1-3-4.2-5.4-4.7-5.2-.5.1-.8-.3-.5-1 .9-2.5-13.5-18.8-16.6-18.8-.9 0-2-.6-2.4-1.3-1-1.7-9.2-7.1-17.5-11.6L764 615zM629.8 624.7c-3.6 1.4-3.8 1.8-3.8 6s.1 4.4 2.8 4.2c1.5-.1 3.8-.1 5.2 0 2 .2 1.6.5-2.4 2.1-2.6 1-5 2.1-5.2 2.3-.6.5-2.2 14.6-3 25.6-.5 8.5-.5 8.9 2.2 12.2 1.5 1.9 2.9 3.5 2.9 3.6.1.2 1.8.5 3.9.8 2.1.2 4.5 1 5.3 1.7 1.3 1 1.4-2.2 1.2-25.7-.2-14.8-.5-28.4-.8-30.3-.7-4.2-2.8-4.8-8.3-2.5M642.8 624.4l-2.3 1.2.1 27.6c.1 15.2.4 28.4.8 29.3.6 1.6.9 1.5 2.9-.8 1.4-1.7 2.9-2.5 4.2-2.2 1.1.3 3-.3 4.3-1.3 1.9-1.5 2.5-3.1 2.9-8.2.4-3.6.2-6.1-.3-5.8-.5.4-.9-3.6-.9-9 0-9.6-1.1-17.9-2.2-16.8-.3.3-1.5-.1-2.7-.9-1.1-.8-3.3-1.5-4.8-1.5-1.6 0-2.8-.5-2.8-1 0-.6 1.6-1 3.6-1 5.4 0 7.6-1.5 6.8-4.8-.4-1.5-1.1-3.2-1.6-3.8-1.3-1.8-5.5-2.2-8-1M589.8 629.3c-1.5 2.9-2.4 22.7-.9 22.7s1.4 1.5-.2 3.2c-.7.7-1.2 2.2-1.2 3.3.1 1.1.2 4.6.3 7.8s.6 5.6 1.1 5.3 2.2-.1 3.9.5 4.1.9 5.4.7c2.2-.3 2.1-.5-1.6-4.6-4.9-5.3-3.3-5.5 1.9-.2 2.1 2.2 4.5 4 5.1 4 .7 0 1.4.6 1.7 1.2.6 1.8 4.4-3 5.2-6.4.9-4.1-.3-6.7-3.3-7.3-1.5-.4-4.3-1-6.2-1.5s-4.8-1.2-6.4-1.5c-5.1-1.1-2.1-1.5 3.4-.5 2.9.5 7.2 1 9.6 1 4.9 0 6-1.6 4.5-6.8-.6-1.8-1-3.5-1-3.7 0-.3-.7-3.8-1.6-7.9l-1.6-7.3-4.6-.7c-2.5-.3-5.1-1-5.7-1.5-.6-.4-2.4-1.1-3.9-1.3-2.1-.4-3 0-3.9 1.5"/><path d="M504.2 653.7c-7 4.7-11.8 9.3-10.6 10.1.5.4 1 1.3 1.2 2 .2 1-.2 1-1.9 0-1.9-1.2-2.5-.8-6.5 3.5-2.4 2.7-4.4 5.4-4.4 6 0 1.6 5.3 7.7 6.6 7.7 1.6 0 13.4-7.1 13.4-8.1 0-.4-1.4-2.1-3.1-3.8s-2.9-3.6-2.7-4.2 1.8.4 3.6 2.2c3 3 3.9 3.4 8.7 3.4 2.9 0 5.7-.4 6.1-.8 1.7-1.7-2.5-21.8-4.5-21.7-.3.1-3 1.7-5.9 3.7M514.4 651.7c.3 1 1 4.8 1.6 8.5 1.7 9.9 2.2 10.3 9.7 7.8 12.1-4 11.9-3.8 9.7-5.8-1-1-3.5-2.6-5.4-3.5-4.7-2.3-9-4.8-12-7q-4.65-3.3-3.6 0M766.9 654.7c-.7 2.6-1.3 7.6-1.3 11.2l-.1 6.6 5.2.3c3.5.2 5.7.9 6.5 2 2.1 2.8 8.3 7 11.4 7.8 3.3.8 5.6 2.3 4.9 3.3-.6 1.1 6.5 8.1 8.4 8.1.5 0 1.1.6 1.4 1.2.6 1.9 4.7-2 4.7-4.4 0-2.3-7.7-11.8-9.5-11.8-.7 0-1.6-.7-1.9-1.6-.4-.9-.2-1.3.6-.8 1.6 1-2.2-5.2-5.5-8.7-2.1-2.3-3.4-3-5.2-2.6-2.1.3-2.5 0-2.5-1.8 0-1.7-1.9-3.7-6.7-7.2-3.8-2.8-7.3-5.3-7.9-5.6-.7-.4-1.6 1.1-2.5 4M858.6 664.2c-1.4 2.9-4.5 9.6-7 14.9-5.1 10.6-6.4 15.2-4.9 17.1 1.6 2 2.4 7.7 1.3 9.6-2.4 4.1-3.9 10.6-2.9 12.4.8 1.5 2.1 1.8 8.2 1.7 4-.1 6.4-.3 5.5-.6-2.2-.5-2.3-2.6-.4-5.6.7-1.2 1.9-5.8 2.4-10.2 1.6-11.3 2.4-44.5 1.2-44.5-.6 0-2.1 2.4-3.4 5.2"/><path d="M813.9 663.5c-.1.5-.1 1.3 0 1.7 0 .5-.6.8-1.4.8-.9 0-1.9 1-2.4 2.3s-2.5 3.7-4.4 5.4l-3.5 3.1 2.7 3.3c1.5 1.9 3.6 4.9 4.6 6.6 1.1 1.8 2.3 3.3 2.8 3.3.4 0 .6.4.3.8-.5.8.9 18.9 2 25.4l.6 3.8h6.4c3.5 0 6.5-.3 6.5-.8.1-.4.3-3.7.4-7.3.2-6.2.1-6.6-2.6-8.2l-2.9-1.6.6 6.9c.6 5.9.4 7-.8 7-2.2 0-2.7-2-1.8-6.8.7-4.1-.1-6.3-3.7-10-.7-.7-1.6-2.5-1.9-4s-.7-3.2-.9-3.9c-.2-.6.1-1.3.6-1.5s1-2.4 1.1-5c0-4.3.3-4.7 2.9-5.3l2.8-.6-1.8-4.7c-2-5.3-6-12.2-6.2-10.7M509.5 676.3c-1.1.7-4 1.9-6.4 2.7-2.3.8-5.6 2.6-7.3 4.2-3 2.8-3.5 6.3-.8 6.3.8 0 2 .7 2.5 1.6.9 1.4 1.8 1.4 9.8-.2 8.5-1.7 15.5-4.8 12.9-5.7-.6-.2-1.2-1.5-1.2-2.8s-.4-2.4-.8-2.4c-.5 0-1.4-1.1-2-2.5-1.3-2.8-3.7-3.2-6.7-1.2M620 677.4c0 1.5-2.2 2-6.7 1.9-2.8-.1.3 6 3.2 6.5 1.1.2 2.2.8 2.3 1.3.6 1.5 2 1 2.4-.9.3-1.3.7-1 1.9 1.3.8 1.6 2.7 3.6 4.2 4.3s2.7 1.8 2.7 2.3.6.9 1.3.8c.6-.1 2.5.3 4 .9 1.6.7 3 1.2 3.1 1.2.3 0 .2-2.1-.2-7.4-.1-1.1-.7-1.6-1.6-1.3-.8.3-1.3-.1-1.2-1.1.1-1.6-11.8-8.5-12.9-7.4-.3.3-.5-.2-.5-1.1s-.4-1.9-1-2.2c-.5-.3-1 .1-1 .9M450.8 679.7c-16 17.9-15.4 16.6-15 29.6l.3 10.7h5.4c5.1 0 5.5-.2 6.1-2.7.4-1.5.1-4-.5-5.7-2.3-5.4-2.5-7.6-.8-7.6 2.4 0 5.4-7.7 6.7-17.3.7-4.8 1-9 .7-9.3-.2-.3-1.6.8-2.9 2.3M577.4 678.9c-2.9 1.8-3 2.1-2.6 7.3.3 4.4 0 5.7-1.2 6.1-1.1.5-1.6.1-1.6-1.3 0-1-.5-2.2-1.1-2.5-.7-.5-.3-1.4 1.1-2.7 1.2-1.1 1.9-2.7 1.6-3.5s-.6-1.7-.6-1.9c0-.8-7.9-.4-8.4.5-.3.4.3 1.9 1.4 3.1 3 3.5 1.4 4.3-3 1.5-3.1-2-4.4-2.3-6.4-1.5-4.4 1.6-6.1 8-2.1 8 .8 0 1.5.5 1.5 1.1s2.4.9 6.3.8c4.3-.1 8 .5 12.1 2 6.5 2.3 11.1 2.7 12.2 1 .3-.6 1.5-.9 2.5-.6s2.1.1 2.4-.3c1.1-1.7 9.6-.9 11.6 1.1 2.1 2.1 4.9 2.5 6.6.8.9-.9 1.6-.8 2.8.5 2.4 2.4 3.2 2 3.9-2 .8-4.1-.3-5.9-4.1-6.9-2.1-.5-2.4-.8-1.2-1.6 1.2-.7 1.1-.9-.2-.9-.9 0-1.9.7-2.3 1.5-.9 2.3-2.5 1.8-3.2-1.1-.8-3.2-3.8-4.4-8.4-3.2-1.9.5-4.6 1.2-6 1.5s-2.8 1-3.1 1.6c-1.2 1.8-3-.5-2.9-3.7.3-5.8.1-6.6-2.2-6.6-1.3 0-3.7.8-5.4 1.9M761.5 680.9c-1.4 2.3-2.5 4.4-2.5 4.9s3.3 2.5 7.4 4.5c6.4 3.3 8.4 3.8 16.1 4.1 5.9.3 9 .8 9.6 1.7.5.9 1.1 1 1.8.4.6-.7-1.3-3.4-5.6-7.9-6.7-7.1-12.3-10.1-20.5-11.2-3.5-.4-3.9-.2-6.3 3.5M680.4 679.1c-2.7.8-3 1.2-2.6 3.9.4 2.9-1.2 4.3-2 1.8-.3-.7-1.3-.3-2.7 1.1-1.9 1.9-2.2 3.1-1.8 6.2.3 2.2.2 3.9-.2 3.9s-.8.7-.8 1.5.3 1.5.7 1.5 1.2 1.1 1.8 2.4c1.4 3.2 9 4.6 11 1.9.7-1 1-2.9.7-4.5-.6-2.4-.3-2.7 2.7-3l3.3-.3.3-8.8.3-8.7-3.8.1c-2.1 0-5.2.5-6.9 1M693.8 679.1c-.1.8-.2 3.2-.4 5.4-.1 2.2-.5 5.5-.9 7.3-1.3 5.7 2.2 7.5 9.3 5 3.1-1.2 3.6-1.1 5.3 1 2.2 2.9 8.1 2.8 8.5-.1.1-.9-.2-1.7-.7-1.7s-.9-1-.9-2.2c0-1.8.5-1.5 3.1 2 1.7 2.4 2.9 5 2.7 6-.4 1.5.5 1.7 7.6 2 4.5.2 8.5.8 9 1.3 1.5 1.4 4.3 1.1 5-.7 1-2.5.7-4.4-.6-4.4-.7 0-2.3-1.2-3.6-2.7-2-2.4-3.2-2.8-9.3-3.1-7.1-.4-8.7-1.6-4.5-3.2 1.4-.5 2.9-1.8 3.5-2.8.8-1.6.5-2.1-2.5-3.5-5-2.4-6.8-2.1-11.1 1.9-5.7 5.3-7.3 6-8 3.5-.3-1.2-1.2-2.1-1.9-2.1-.8 0-1.4-.4-1.4-1 0-1.4 4.7-4.3 5.8-3.6.6.3 1.6-.1 2.3-1 1.6-2-.3-3.4-4.6-3.3-1.6 0-4.9-.3-7.2-.7-3.3-.5-4.3-.3-4.5.7M461.5 697.5c-1.6.8-4.7 3.1-6.7 5-3.3 3-3.8 4-3.8 7.9 0 2.5-.4 5.6-.9 6.9l-1 2.4 8.4.2 8.3.2.7-3.2c1.1-4.8-.8-5.7-4.2-1.9-1.9 2.2-3.3 2.9-4.6 2.5-2.5-1-2.1-2.4.8-2.1 1.3.2 2.3 0 2.1-.3-.3-.4.4-3.1 1.5-6.1 1.6-4.5 3.3-13.1 2.6-13-.1 0-1.5.7-3.2 1.5M548.5 697.5c-.3.8-.7 2.2-1 3-.2.8.5 2.4 1.7 3.5 1.7 1.6 3.6 2 8.9 2 6.8 0 8.3-.7 8.4-4 0-2-1.7-3.9-3.1-3.3-.6.2-1.7-.3-2.4-1.2-1.7-2.1-11.9-2.1-12.5 0M840.8 702.2c-.8.7-2.2 1.7-3.2 2.3-1 .5-1.6 1.2-1.4 1.5.1.3-.7 2-2 3.7-1.3 1.8-2.6 4.9-2.9 6.8l-.6 3.5h6.1c5.1 0 6-.3 5.6-1.5-.4-.8-.2-2.1.4-2.8.5-.6 1.2-4.1 1.3-7.6.4-6.7-.6-8.4-3.3-5.9M646.5 706.3c-.7 1.6-1.8 2.1-3.8 2-2.2-.1-2.7.3-2.7 2-.1 2-.2 2-1.1.4-1.2-2-2.9-2.3-2.9-.3 0 .7-.9 1.6-2 1.9s-1.8.2-1.5-.2c.9-1.5-4.5-5.2-6.6-4.6-1 .4-1.9 1.1-1.9 1.6 0 1.5-2.8 1-3.7-.6-1.1-1.9-7.2-.9-8.1 1.3-.7 1.9 4.5 6.5 6.4 5.8 1-.4 1.4.2 1.4 1.9 0 2.1.5 2.5 3 2.5q3 0 3-1.5c0-.8-.4-1.5-1-1.5-.5 0-1-.9-1-2.1 0-3 3.4-2 3.9 1.1.3 2.3.4 2.3 1.1.5.7-1.9.8-1.8 2 .8 1.1 2.2 1.9 2.7 5.2 2.7 2.1 0 3.8-.5 3.8-1.1 0-1.2 10.1-.8 13.3.6 1.2.5 1.7.3 1.7-.8s-.6-1.3-2.2-.9c-2 .5-2.1.3-1.4-4.4.3-2.6 1-5.2 1.6-5.8 1.3-1.3 4 1.1 4 3.6 0 1.4.5 1.8 1.6 1.4.8-.3 2.4-.2 3.4.4 1.9 1 3-.4 3-3.8 0-3.3-1.3-4.1-5.8-3.2-3 .5-4.2.4-4.2-.5 0-.7-1.6-1.2-3.8-1.3-3-.1-3.9.3-4.7 2.1"/></svg>