<svg xmlns="http://www.w3.org/2000/svg" width="1706.667" height="960" viewBox="0 0 1280 720"><path d="M0 6.3v6.3L4.3 15c2.3 1.3 8.1 4.4 12.8 6.9 4.8 2.5 11.7 6.2 15.5 8.3 3.8 2 8.9 4.8 11.4 6.2s5.7 2.6 7.1 2.6 2.8.3 3.2.6c.3.4 2.4.7 4.7.8 2.2.1 3.5-.1 2.9-.5-.7-.4.3-1.1 2.3-1.8C67.5 37 71 33.9 71 32c0-1.6-12-10.7-18.7-14.1-3.5-1.8-6.6-3.6-6.8-4-.5-.6-9.4-7-13.4-9.4-.9-.6-2.8-1.8-4.3-2.8C25.7.3 22.9 0 12.6 0H0z"/><path d="M60 1.5c0 .8.9 1.9 2 2.5s2 .8 2 .4c0-.3 1.6.3 3.6 1.5C69.5 7.1 71.7 8 72.4 8s3.3 1.9 5.7 4.1c2.4 2.3 6.4 5.1 8.9 6.2 6.5 2.9 9.3 4.9 8 5.7-.6.4 2.2 1.9 6.2 3.4 4 1.6 9.1 4 11.3 5.5s6.5 4 9.5 5.5 7.3 4.6 9.5 6.7c2.3 2.1 4.9 3.9 5.9 3.9 2 0 6.9 3.3 12.1 8 1.7 1.5 4.1 3.1 5.5 3.5 3.9 1.2 12 6.7 12 8.2 0 .7.7 1.6 1.5 1.9 1.7.7 2 4.6.5 7.5-.8 1.3-2.1 1.9-4.6 1.9-2.1 0-3.3-.4-2.9-1 .3-.6-.4-1-1.7-1-2.8 0-11.4-4.2-32.1-15.8-5.2-2.8-8.5-4.1-9.5-3.6-1 .4-2.1.6-2.5.5-.5-.1-.6.3-.3.8.4.5.2 1.2-.4 1.6-.5.3-1 2.8-1 5.5 0 4.1.3 5 2.1 5.5 1.2.4 3.9 2.3 6.1 4.3 3.7 3.3 3.9 3.8 3.2 7.6-.9 5.9-3 7.4-9.9 7.4-5.4-.1-6 .2-8.4 3.1-1.4 1.7-3.2 3.1-3.8 3.1-.7 0-1.3.6-1.3 1.4 0 1.7-4 8.9-5.2 9.4-.4.2-.8.8-.8 1.3s-1.2 2.3-2.7 4c-1.6 1.7-2.8 3.7-2.8 4.5s3.4 3.1 7.5 5.2l7.5 3.7v12l-7.5-.4q-7.5-.3-13.2-2.7c-3.2-1.3-6.6-2.5-7.5-2.7-3.2-.5-11.3-4.8-12.6-6.7-.9-1.3-3.4-2.2-7.5-2.9-4.4-.7-8.3-2.3-13.9-5.7-4.3-2.6-10.5-6.1-13.7-7.7-3.3-1.5-7.5-4-9.4-5.5-2.6-1.9-4.7-2.6-8.8-2.8-3-.1-6.6-.9-7.9-1.8S.8 99 .5 99s-.5 9.9-.5 22v22l3.6-1.5c4.9-2 8.6-1.9 11.5.4 3.7 2.9 8 4.8 12.4 5.4 2.2.4 5.8 1.5 8 2.5 2.2 1.1 6.1 2.2 8.6 2.5 2.5.4 7.7 2.1 11.5 3.8 3.8 1.8 8.9 3.4 11.4 3.7 2.5.2 6.1 1.2 8 2.2s5.5 2.1 8 2.5 6.1 1.7 8 2.9c4 2.5 15.2 7.6 16.8 7.6 2 0 2.4 5.8.7 9.4-1.4 3-2.3 3.6-6.1 4.2-4.5.6-10.4-.1-13.3-1.6-6.5-3.5-21.6-10-23.2-10-1 0-4.5-1.3-7.7-2.8-3.3-1.6-7.4-3.2-9.3-3.6-1.9-.3-5.9-2.2-8.9-4-3-1.9-7.5-3.7-10-4-7.1-1-21.7-5.7-29.2-9.4C.3 153 0 190 0 235.4V318h35.9l1.9-2.8c1.1-1.5 2-2.9 2-3.2s.7-2.2 1.5-4.3c1.6-3.6 3.7-5 3.7-2.3 0 .7 1.1 2.1 2.5 3s2.5 2.3 2.5 3.1c0 2.7 4.7 3.7 9.8 2.1 2.6-.8 4.1-1.5 3.5-1.5-2-.1-1.5-2.9.6-4.1 1.1-.5 3-1 4.2-1s2.8-.8 3.6-1.8c1.2-1.5 1.3-1.4 1.1 1.3-.2 1.8-.8 2.9-1.6 2.7-.7-.1-1.2.9-1.2 2.7 0 3.1 1.4 4.1 5.7 4.1 3.2 0 12.3-3.2 12.3-4.3 0-.5 11.5-.6 26-.2l26 .8v-5.2c0-4.8.2-5.1 2.5-5.1 1.4 0 2.5-.4 2.5-1 0-.5 1.1-1.2 2.5-1.6 1.4-.3 2.5-1.2 2.5-2s.8-1.4 1.8-1.4c2 0 5.2-4.8 5.2-7.8 0-1.1.7-2.5 1.5-3.2s1.5-2 1.5-3c0-1.4 1.3-1.9 7-2.4 3.8-.4 7.5-1.3 8.2-2s2.1-1.5 3.1-1.9c.9-.3 1.7-1.7 1.7-2.9 0-2.3-3.1-4.1-18.7-10.9-4.5-1.9-5.4-2.8-6.7-6.4-1.8-5.3-1.4-5.7 8-8.7 5.2-1.6 7.4-2.8 7.8-4.2.4-1.6.7-1.7 2-.6.9.7 1.6 1.9 1.6 2.7s1.1 2.5 2.5 3.8c2.2 2.3 3.2 2.5 11.4 2.5 5.3 0 9.3-.4 9.6-1.1.4-.6 1.2-.8 1.9-.6.7.3 1.8-.9 2.5-2.7.7-1.7 1.7-4.1 2.1-5.3.6-1.4 1.5-2 2.4-1.7q1.5.6 1.8-1.8c.2-1.9 1.1-2.4 4.8-3 6.9-1 15-.9 15 .2 0 .5.9 1 2 1s2-.5 2-1c0-.6 1-1 2.3-1 2 0 2.2-.5 2.4-5 0-2.8-.3-5-.8-5s-.9-.5-.9-1c0-.6 1.1-1 2.5-1s2.5-.4 2.5-.9c0-1 12.8-2.5 19.1-2.2l4.6.3.6-5.3c.4-3.5.3-5.5-.5-6s-.6-1.2.6-2.4c2.5-2.6 1.6-4.9-2-5.3-5-.5-7.2-7.2-3.4-10.5 3.4-2.9 6.6-2.8 9.8.1 1.5 1.5 3.1 3.5 3.5 4.4.9 2.4 2.8 2.3 3.4-.2.3-1.1.9-2 1.4-2s.9-3.6.9-7.9c0-5.5.4-8.1 1.3-8.3.9-.4 1.2-5.3 1.4-19.4.1-15.9 2-39.9 5-63.7.3-2.3.1-3.7-.6-3.7-.6 0-1.1-.7-1.1-1.5s-1.2-1.7-2.7-2c-4.5-1-5.7-2-7.3-6.3-2-5.4-16.3-20.4-24.5-25.6-4.1-2.7-5.7-4.4-5.1-5.5.4-.5.1-1.1-.6-1.3-.9-.3-.8-1.2.5-3.1 1.3-2 2.6-2.7 5-2.7s2.8-.3 1.7-1c-1.3-.8-1.3-1 .1-1 2.8 0 11.5 6 22.2 15.3 5.6 4.9 11.4 9.5 12.9 10.3 2.7 1.4 2.8 1.3 3.4-1.3.3-1.6.8-3.5 1.1-4.3s.9-3.8 1.3-6.5c.4-2.8 2.2-10.4 3.9-17 3-11 8.1-33 8.1-34.8 0-.4-10.7-.7-23.7-.7-19.8 0-23.4.2-21.3 1.3 1.7.8 2.6 2.2 2.8 4.2.3 4.5-1 5.8-6.3 6-4.4.2-5-.1-10.8-5.6L238.5 0h-89.2C71.5 0 60 .2 60 1.5M230.9 89c1.2 0 7.6 6.4 7.4 7.2-.2.4.6 1.2 1.7 1.8s2 1.5 2 2.1c0 1.9 6.4 7.9 9.7 9.1 2.6.9 3.9 2.3 5.4 5.8 1.8 4 1.9 4.8.6 7-.8 1.4-1.8 4.1-2.2 6-.7 3.2-7.3 16.7-9.8 19.7-1.6 2.2-7.3 1.5-10.5-1.2-1.6-1.3-4.7-2.7-6.8-3-3.3-.6-4.4-.3-6.9 1.9-1.6 1.4-3.7 2.6-4.5 2.6-4.6-.2-14.8-5.8-23-12.8-3.3-2.9-3.4-3-2.1-6.8 1.6-5.2 8.5-11.2 10.6-9.4.8.7 1.5.9 1.5.4s.4-.4.8.2 2.1 1.7 3.8 2.6c4.4 2.1 7.4 0 7.4-5.2 0-2.9 1-5.1 4.1-9.2 5.4-6.8 8-9.4 10.7-10.2 2.8-.9 2.8-2.2 0-3.7-2.6-1.4-3.8-2.8-3.8-4.8 0-.8.6-1.1 1.6-.7.9.3 1.9.6 2.3.6m-74.1 60.2c3.7 1.2 8.9 3.2 11.6 4.5 2.8 1.3 6.3 2.3 7.8 2.3s2.8.4 2.8 1c0 .5.3.9.8.8 1.4-.4 15.7 2.3 17.4 3.2 1 .6 2.3 1 3 1 1.9 0 10.7 9.7 11.4 12.5.7 2.9 0 6.3-2.1 8.9-1.4 1.8-1.6 1.8-7.4-.4-3.3-1.2-6.7-3-7.7-4.1-1.8-2-7.8-2.6-8.9-.9-.3.5-1.7 1-3.1 1-1.3 0-2.4-.5-2.4-1 0-.6-.9-1-1.9-1-1.3 0-3-1.8-5-5.3-3.2-5.7-4.6-6.5-21.4-13.2-7.5-3-10-6.4-7.1-9.6 2.2-2.4 4-2.4 12.2.3M146 197.5c0 .8.6 1.5 1.3 1.6q1.35 0 0 .6c-.9.3-1 1-.3 2.4.6 1 .7 1.9.3 1.9s-.8 1.7-.8 3.8c0 2-.5 4.9-1.2 6.4s-1.3 5.2-1.3 8.2-.5 5.8-1 6.1c-.6.3-1.9 2.6-3.1 5.1l-2 4.5 2.1 3.5c1.3 2 3.3 3.6 4.8 4 5.5 1.2 6 1.5 6.6 4.1.9 3.2.3 3.8-1.7 1.8-1.3-1.3-2-1.3-3.5-.4-1.2.7-2.7.9-3.8.4-2.2-1-2-.9-6.1-1.9-1.7-.4-4.8-2.3-6.9-4.2-3.5-3.4-3.6-3.7-3.1-8.5.3-2.7 1.9-7.2 3.4-9.9 2.7-4.8 2.7-5 1.1-7.8-1.6-2.7-1.6-2.8 1.8-6.5 2-2 3.9-3.7 4.5-3.7.5 0 .9-.5.9-1.2 0-2.3 5.3-11.8 6.6-11.8.8 0 1.4.7 1.4 1.5M333 2.7c0 1.6.3 3.8.6 5 .7 2.5 2.1 1.7 4.3-2.6 1.9-3.4 2.5-1.8 1 2.6-.7 2.1-1.3 4-1.4 4.3 0 .3-.7 1.6-1.5 3-1.5 2.7-2.1 15.2-.6 14.7 1.8-.6 16.6-26.5 16.6-29 0-.4-4.3-.7-9.5-.7H333zM357.7.7c-.6 1 1.2 37.2 1.9 39.3.4 1.2.7 1.1 1.6-.5 1.5-2.9 6-7.5 7.2-7.5.7 0 .6.3-.1.8-.7.4-2 2.5-2.9 4.7-1.5 3.7-1.5 3.8.2 2.5.9-.8 3.9-3.8 6.6-6.6 12.9-13.6 13-13.8 11.8-24.5-.6-4.6-1-8.5-1-8.7 0-.6-24.9-.1-25.3.5M387 4.2c0 2.4.3 5.9.6 8l.6 3.6 3.2-2.6c1.7-1.5 5.1-4.6 7.5-7 2.5-2.4 5.2-4.7 6-5.2 1.1-.6-1.8-.9-8.1-1H387zM406.9 3.7c-2.4 2.1-5.3 4.7-6.4 5.8-1.1 1.2-4.2 3.9-6.9 6l-4.9 4 .7 14.5c.8 19.1 1.4 23 3.5 23 .9 0 2.1-.4 2.6-.8.6-.5 3.3-1.7 6-2.7C412.9 49.3 425 43 425 41.2c0-2.8-3-27.3-4.6-38-.5-3-.7-3.2-4.8-3.2-3.5 0-5.1.7-8.7 3.7M423.5 6.7c.7 3.8 1.6 9.7 1.9 13.3 1.1 10.7 2.8 21 3.6 21.5.4.2 4.3-.2 8.6-1.1 4.3-.8 8.9-1.6 10.1-1.8 1.1-.2 2.9-.7 4-1 1-.3 4.5-.8 7.8-1.1s7.3-.8 8.8-1.1c3.1-.6 3.1.5.7-16.4-.5-3.6-1.2-9.3-1.6-12.8l-.6-6.2h-44.6zM470.6 8.7c.6 4.9 1.5 12.2 1.8 16.3.4 4.2 1.1 8.1 1.5 8.8.5.8 3.6.9 12.1.2 6.3-.5 15.4-1 20.1-1 4.8 0 10.1-.3 11.9-.7l3.3-.6-.7-12.1c-.4-6.7-1-13.8-1.3-15.9l-.6-3.7h-49.3zM523 15.7l1.5 15.8h54.9l-.2-5.5c-.1-3-.5-10.1-.8-15.8L577.8 0h-56.4zM580.4 7.2c.3 4 .9 11 1.2 15.5.5 5.9 1.1 8.3 2.1 8.7.8.4 11.2 1.3 23.2 2.1 11.9.8 23.7 1.6 26.4 1.8l4.7.4V0h-58.2zM640.8 9.7c-.1 5.4-.1 13.5.1 18.2l.3 8.4 6.7-.6c3.6-.4 14-1.1 23.1-1.7s18.3-1.2 20.5-1.4l4-.4.6-5.8c.4-3.3 1-10.5 1.4-16.2l.7-10.2h-57zM699.6 7.7c-.3 4.3-.7 11.4-.7 15.8l-.2 8 26.4.7c14.5.4 26.7.4 27.1 0 .7-.7 3.8-24.3 3.8-29.5V0h-55.7zM758.9.2c-.6 1.7-3.3 31.1-2.9 31.6.7.9-.4.9 24.6 1.7 13.4.4 22.4.3 22.7-.3.5-.7 4.7-29.8 4.7-32.5 0-.6-48.9-1.1-49.1-.5M810.5 1.7c-.7 1.9-2.1 13.5-3.2 26-.3 4.4-.2 7.3.4 7.3.5 0 9.7 1.3 20.4 3 10.6 1.6 20.1 3 21 3 1.2 0 1.9-1.7 2.8-7.3 1-6.8 4.1-31.3 4.1-32.9 0-.4-10.1-.8-22.4-.8-20.4 0-22.4.2-23.1 1.7M856.2 18.7c-3 24.6-3 23.6 1.6 25.2 2 .8 6.7 2.8 10.3 4.6 3.7 1.8 7.8 3.5 9.3 3.9 1.4.3 4.2 1.7 6.2 3.1s4 2.5 4.4 2.5c.9 0 1.8-7.8 2.6-24.5l.6-13-6.3-6.1C868.9-.9 870.2 0 864 0h-5.6zM875 .6c0 .3 2.1 2.5 4.6 4.7 2.6 2.3 6.3 5.7 8.3 7.5l3.6 3.2.7-4.7c.3-2.7.7-6.3.7-8.1L893 0h-9c-4.9 0-9 .3-9 .6M895.6 5.2c-1.6 14.1-2.1 13.2 12.2 28l12.7 13.4 1.2-13c.6-7.2 1.2-17.7 1.2-23.4L923 0h-26.7zM928.8 1.7c.5 1 2.6 5.3 4.6 9.5 1.9 4.3 5.3 10.4 7.4 13.5 2.2 3.2 4.4 6.7 5.1 7.8.9 1.6 1.1.2 1.1-7.5 0-5.2.2-13 .6-17.3l.6-7.7h-10.1c-9.4 0-10.1.1-9.3 1.7M976.5 1.2c1.3 4.2 7.9 33.2 11.3 49.8 4.5 21.7 5.5 28.6 8.8 58.5 1.9 17.2 2.5 67.1 1 90.1-.6 10.3-.6 14.3.3 14.8.6.4 1.1 1.6 1.1 2.8 0 1.9.4 2 6.3 1.4 6.1-.7 6.3-.6 10 2.7 2 1.9 3.7 4 3.7 4.6s.7 1.1 1.6 1.1c1 0 1.4-.6 1.1-1.4-.3-.7-.1-1.8.5-2.4 1.6-1.6 7.5 4.9 8.8 9.8.8 3.1 1.7 4.1 3.8 4.6 1.5.4 3.2 1 3.7 1.5.6.4 3.2 1.3 5.8 1.9 2.6.7 4.7 1.7 4.7 2.2s.6 1.6 1.4 2.3c.7.8 1.6 3.7 2 6.5.5 4 1.4 5.8 3.7 8 3.8 3.4 3.5 6-.9 7.9-3 1.4-3.2 1.7-3.2 7 0 10.1 3.2 15.5 9.9 16.7 4.6.9 7.3 2.2 6.6 3.5-.4.5.1.9.9.9s1.8-.5 2.1-1c.3-.6 2.8-1 5.6-1 2.7 0 4.9.4 4.9 1 0 .5.7 1 1.5 1s1.5.6 1.5 1.3c0 .8.8 2.2 1.9 3.1 1.7 1.5 2 1.5 3.4.2.8-.8 1.7-1.3 1.9-1 .7.7 5.4-5.6 6.3-8.4 1-3.3-.3-9.2-2-9.2-.8 0-1.5-.7-1.5-1.5s.7-1.5 1.5-1.5 1.5-.7 1.5-1.5c0-1.8 3.8-3.5 6-2.7 2.9.9 11.4 5.2 10.4 5.2-.5 0-.1.5.9 1.1 2.1 1.2 2.2 4.8.2 7.5-2.7 3.6-1.9 5.1 3 5.2 3.2.2 4.5-.2 4.5-1.1 0-1.5 4.7-4 6-3.2.4.3 1-.4 1.3-1.5.5-1.8 1.4-2 10-2 14.7 0 19.2 1.2 24.1 6.4s9.1 6.1 22.5 5.1l8.8-.7 1.2 3.2c1.6 4.6 1.4 5.5-1.6 9-2.4 2.9-3 3.1-6.5 2.6-2.2-.4-6.6 0-10.1.8-3.4.8-9 1.8-12.4 2.2-5 .5-6.3 1-6.3 2.4s1.8 1.9 11.8 2.9c6.4.6 11.9 1.6 12 2.1.2.6 1.8 1 3.7 1 1.8 0 5 .7 7.1 1.6 2.2.9 6.2 2 8.9 2.4 4.6.7 4.7.8 1.3.9-5.2.1-5.4 3.1-.3 3.1 2.8 0 3.5.4 3.5 1.9 0 1.1.3 2.8.6 3.8.5 1.5.4 1.6-.5.3s-1.2-1.3-2-.1c-.6.9-3 1.3-7.5 1.3-3.6 0-6.6.4-6.6.9 0 1.6-8.3 3.2-10.2 2-1-.6-3.4-1.1-5.4-1.1-2.8 0-4.3.8-6.9 3.4-1.8 1.9-4.6 3.6-6.2 3.9-2.7.4-2.7.4.4.6 2 0 3.6.8 4.2 2 .9 1.6 1.6 1.8 4.8 1 5.2-1.2 13.3-1.1 13.3.1 0 .5.6 1 1.4 1 1.7 0 2.6 4.3 2.6 12.1 0 4.4-.4 5.9-1.4 5.9-1.5 0-2.6 2.1-2.6 5 0 2.1-1.9 3-6.6 3-1.9 0-3.4.4-3.4 1s-.9.6-2.4 0c-2.9-1.1-13.6-.1-13.6 1.3 0 .6-2.3.7-6.2.4-3.5-.4-9.9-.3-14.4.2-7.9.8-8.1.9-12.7 5.7-2.6 2.7-4.7 5.4-4.7 6 0 1.4 3.9 4.1 7.3 4.9 1.4.4 2.8 1.3 3.1 2.1.8 2.1-4.2 6.5-8.3 7.1-4.9.8-6.7 1.9-7.4 4.2-.5 2.2 1.6 4.7 3.2 3.7s5.8 1.1 6.4 3.3c.3 1.3-.6 3.1-2.9 5.7-1.9 2-3.4 4.3-3.4 5 0 .8-.4 1.4-1 1.4-.5 0-1 1.5-1 3.4 0 3.1.4 3.6 3.5 4.6 2.4.8 6.7 1 12.8.5 8.9-.6 9.5-.6 17.1 2.7 4.4 1.8 8.1 3.9 8.3 4.5.3.7-1.1 2-3 2.9-3.2 1.5-4.5 1.6-16.8.1-7.2-.9-13.7-2.1-14.3-2.7-1.6-1.6-5.6-1.2-5.6.5 0 .8-.4 1.5-1 1.5-2.1 0-.9 3.6 1.9 5.8 3.5 2.8 4.3 5.4 2.4 8.1-1.1 1.7-2.5 2.1-7.2 2.1-4 0-6.3.5-7.1 1.5-1 1.2-1.6 1.2-3.4.2-1.3-.8-7.2-1.3-16.6-1.4-17.3-.2-18-.2-20.6-2.8-3.9-3.7-4.4-5.6-2.2-8.5 2.5-3.4 1.6-7.3-2.2-10-2.5-1.8-3.3-1.8-8.4-.8-3.3.7-5.6 1.7-5.6 2.5 0 .7.5 1.3 1 1.3 2 0 .3 8.3-2.4 11.7-.1.1-1.9-.2-3.9-.8-2.6-.7-3.7-1.6-3.7-2.9 0-2.9 2.2-7 3.7-7 2 0 2.7-2.8 1.2-4.6-1-1.2-2.5-1.4-7.3-.9-10.1 1-12.2 1.6-10.3 2.7 3.6 2 .5 9.8-4.6 11.4-2.9.9-5.4 3.9-6.2 7.3-.8 3.6-3.9 5.3-10.3 5.7-3 .2-5.6.4-5.7.6-.2.2-.8 6.6-1.5 14.3-.6 7.7-1.6 15.6-2.1 17.5-1.6 5.5-4.1 11-5.1 11-.4 0-.8.6-.8 1.3 0 2.5-9.3 15.6-11.9 16.7-5.9 2.5-7.2 4.5-8.7 13.7-.8 4.8-1.9 12.6-2.4 17.3-.6 4.7-2.2 15.5-3.6 23.9-1.4 8.5-2.3 16.4-2 17.5.3 1.2 4.2 5.2 8.6 9.1 4.4 3.8 9.5 8.2 11.2 9.7 1.8 1.6 4.3 2.8 5.9 2.8 1.5 0 4 1.1 5.6 2.4 1.5 1.3 3.8 2.6 5 3 3.6 1.1 5.3 3.5 5.3 7.1 0 2.5.5 3.5 2 4 1.1.3 3.7 2.1 5.9 3.9 3.8 3.2 3.8 3.3 2.1 5.6-1.4 1.9-2.3 2.2-5.1 1.6-1.9-.3-4.7-1.3-6.3-2.1-1.8-1-4.1-1.3-5.8-1-1.7.4-2.8.2-2.8-.4s-.6-1.1-1.3-1.1-2.4-1.2-3.9-2.8c-15.9-16.4-21.1-21.3-25.1-23.5-2.5-1.5-4.9-2.2-5.2-1.8-.3.5-2.1 7.4-4.1 15.2-4.7 19.2-11.8 42.2-19.4 62.9-1.7 4.7-3.6 9.8-4.2 11.5-.6 1.6-1.7 3.9-2.5 5-.7 1.1-1.3 3-1.3 4.2v2.3h125.6c134.8 0 129.1.2 128.2-4.7-.1-1 .2-2.5.7-3.3s1-2 1.1-2.5c.4-4.2 2.1-8.1 4.6-10.6l3-2.9 6 3.2c3.4 1.8 6.3 4.1 6.6 5 .3 1.3 1.4 1.8 3.6 1.8s4.1.9 5.9 2.8c1.5 1.5 2.7 3.1 2.7 3.5 0 1.4 5.2 5.7 7 5.7 1.1 0 2 .4 2 1s9.8 1 27.5 1h27.5V576.2l-6.2-2.2c-8.2-2.9-13-4.9-14.8-6.1-.8-.5-3.2-1.7-5.2-2.7-4.5-2-4.9-4.6-1.1-6.4 3.5-1.7 3.9-3.4 1.3-4.8-2.9-1.6-5.9-.3-6.7 2.8-.3 1.5-1.1 3-1.7 3.5-2.5 1.7-14.2-.6-22.7-4.4-4.8-2.2-9.7-3.9-11-3.9s-3.9-.9-5.6-2c-2.8-1.7-3.3-2.5-3.3-5.7.1-2.1 1.1-5.6 2.4-7.8 1.9-3.4 2.8-4 6.1-4.3 2.1-.2 6 .5 8.9 1.6 2.8 1.1 6.7 2.3 8.6 2.6 8.5 1.4 12.1 2.4 14.6 4.2 1.5 1 3.2 2.2 3.8 2.5s2.2 1.2 3.6 1.9c1.4.8 5.9 1.4 10 1.5 7.8.1 12.3 1.7 16.8 5.8l2.2 2v-27.9c0-20.5-.3-28.3-1.2-29.2-.7-.7-2.7-1.2-4.5-1.2-1.9 0-5-.7-7-1.5-2.3-1-6.8-1.5-12.8-1.5-7.7 0-9.9-.4-13.6-2.3-2.5-1.4-8.1-2.9-12.9-3.7-4.7-.6-9.8-1.6-11.4-2.1s-4.1-.9-5.5-.9-6.4-1.4-11.1-3c-4.7-1.7-11.2-3.3-14.5-3.6-3.3-.4-6.8-1.1-7.7-1.5-1.8-1-3.4-7.1-2.3-8.8.8-1.4 14.6-1.4 17.7-.1 1.3.5 7.3 1.4 13.3 1.9 10.7.9 21.7 3.3 34 7.3 3.3 1 7.6 2.1 9.5 2.4s3.7.8 4 1.3c.5.9 3.4 1.5 13.5 3.1 3.3.5 7.5 1.2 9.3 1.5l3.2.6v-38.9c0-30.8-.3-39.2-1.3-40-1.4-1.2-1.1-8.2.4-8.2.5 0 .9-83.3.9-199V0h-80.4c-54.4 0-80.7.3-81.1 1-1.6 2.6-21 16.9-23.7 17.5-4.5 1-10.2-3.8-10.6-9-.2-2.3 0-3.5.7-3.1.5.4 1.3.1 1.8-.7.4-.7 2.1-2.3 3.7-3.5l2.9-2.2h-58.6c-46.5 0-58.6.3-58.2 1.2m170 111.4 2.1 2.7-2.1 2.3c-1.2 1.3-2.7 2.4-3.3 2.4s-2.6 1.4-4.4 3c-2.8 2.6-8.1 5-11.2 5-.5 0-1.7.6-2.5 1.3-.9.7-3.4 1.9-5.6 2.6-2.2.8-5.7 2.9-7.8 4.6-2.1 1.8-5 3.5-6.5 3.8-5.5 1.1-6.1 1.3-8 3-1.1 1-3.6 2.3-5.7 2.8-2.1.6-4.7 2.1-6 3.3-3.5 3.5-9.8 5.6-12.7 4.2-3.5-1.7-3.5-5.8-.1-9.3 2.5-2.5 14.5-7.4 18.2-7.3.8 0 2.8-1 4.5-2.3 3.4-2.6 13.8-7.7 15.6-7.7.7 0 2.3-.9 3.7-2s3.2-2 4-2 4.2-1.3 7.6-2.9c3.4-1.7 7.4-3.3 8.9-3.7 1.5-.3 4-1.9 5.5-3.4 1.6-1.5 3-2.8 3.3-2.9.2 0 1.4 1.1 2.5 2.5m4.4 21.9c1.8 1.8 1 2.7-3.9 4.5-8 2.9-11 4.5-11 5.6 0 .6-.7 1.4-1.5 1.8-.8.3-1.5 1.2-1.5 2.1 0 .8-.3 1.4-.7 1.3-.5-.2-2 1-3.5 2.5-3.3 3.3-3.6 7-.8 11.2 2 3 2.6 8 1.2 10.1-.4.7-1.6 1.3-2.7 1.6-1.7.3-2.9-1.4-7.1-9.6-4.4-8.8-5-10.5-4.3-13.6.4-1.9 1.9-4.4 3.2-5.6 1.3-1.1 3.5-4.6 5-7.7l2.6-5.6 8.8-.4c10.9-.4 14.4-.1 16.2 1.8m-2.2 23.7c3 2.1 5.3 6.6 5.3 10.5 0 .7.9 2.7 2 4.5s2 4 2 4.9.6 2.2 1.4 2.8c.8.7 1.7 3.3 2 5.9s.8 5.9 1 7.5c.3 2.1-.2 3.2-2.4 4.7-1.5 1.1-3.2 2-3.6 2s-2.5 1.2-4.5 2.6c-4.5 3.1-8.3 2.9-8.7-.4-.2-1.2-.8-2.2-1.3-2.2s-.9-.7-.9-1.5-.4-1.5-1-1.5c-.5 0-1 1.5-1 3.3 0 4.5 5.5 11.7 9 11.8 1.4 0 4.3.3 6.4.5 3 .4 5.5-.2 10-2.4 3.4-1.6 6.9-3.2 7.9-3.5.9-.4 1.7-1.2 1.8-1.9 0-.7.2-2.1.4-3 .2-1-.5-3.4-1.6-5.5-2.4-4.7-2.4-6.4 0-8.5 3.2-2.7 4.8.3 5.6 10.5.6 7.6.5 9.3-1.1 12.4-2.9 5.5-5.4 7.7-11.4 9.7-3 1-6.3 2.6-7.2 3.4-2.9 2.4-14.2.8-18.4-2.6-1.8-1.5-3.3-3.6-3.4-4.7s-.4-1.4-.7-.7c-1 2.6-2.3-.2-2.3-5.2 0-2.9-.3-5.6-.7-6s-1.3-2.8-1.9-5.4c-1.1-4-1-5.2.4-8.2 1.1-2.2 2.5-3.6 4-3.8 1.3-.2 2.6-1 2.9-1.8.3-.7 2.3-1.9 4.4-2.4 2.9-.8 3.9-1.6 3.9-3 0-1.1.4-2 .8-2 1 0 3.2-6 3.2-8.8s-5.5-5.2-11.6-5.2c-2.4 0-4.4-.2-4.4-.4 0-2.4 2.6-5.8 5.2-7 4.5-1.9 4.7-1.9 8.5.6m45.7 331.6c1.7.9 5.6 1.9 8.6 2.3 7.7 1 13 2.4 16.6 4.3 1.6.8 5.9 2 9.5 2.5 3.5.5 8.2 1.6 10.2 2.5 2.1.8 6 1.8 8.8 2.2 2.7.4 4.9 1 4.9 1.3 0 1.5 7 3.1 13.1 3.1 5.5 0 6.9.4 8.6 2.2 3.1 3.5 3.4 5.4 1.1 7.4-2.6 2.4-13.5 2.1-19.3-.6-5.1-2.4-10.4-3.7-18-4.5-3.3-.4-8.9-1.8-12.5-3.1s-9.6-2.8-13.5-3.3c-3.8-.5-9.5-1.7-12.5-2.5-3-.9-7.6-1.6-10.2-1.6-4.6 0-9.8-1.6-9.8-3.1 0-.4-1.1-1-2.5-1.3-1.8-.5-2.6-1.5-3.1-4.1-1-5.8.6-6.9 9.5-6.1 4.1.4 8.8 1.5 10.5 2.4M1114 645.5c1.6.8 3.4 2.9 4 4.7.9 2.5 1.9 3.3 3.7 3.5 3.7.2 6.1 3.2 6.4 8 .2 2.3 0 4.5-.3 4.9-.4.3-3.2-.6-6.4-2-3.4-1.6-7.4-2.6-10.1-2.6-3.4 0-4.4-.3-4-1.4.3-.7-.6-3-1.9-5-2.7-3.9-2.6-6.5.4-9.9 1.9-2.1 4.4-2.2 8.2-.2m20.8 16.2c1.5 1 2.9 2 3.2 2.4.9 1 6.4 3.6 10.5 4.9s9.5 5.5 9.5 7.5c0 .6 2.1 1.7 4.8 2.4 5.8 1.7 9.6 3.6 12.8 6.3 2 1.8 2.4 3.1 2.4 7.4 0 2.9-.4 5.5-.9 5.8-1 .7.9 9.6 2.1 9.6.4 0 .8.4.8 1 0 1.4-3.7 1.3-4.2-.1-.4-1.2-4.6.6-6 2.6-2.3 3.2-2.7-6.8-.4-11.2 1.4-2.9 1.4-3-1.4-4.6-2.8-1.7-3.1-1.6-8.4.8-6.8 3.1-7.7 3.1-10.6 0-1.9-2-2.3-3.5-2.1-6.8.2-4-.2-4.7-5.9-11-3.4-3.7-5.8-6.7-5.3-6.7.4 0 0-.5-.9-1.1-1-.5-1.8-1.9-1.8-2.9 0-1.1-.7-2-1.5-2-1.5 0-2.1-4-.8-5.3.9-1 1-.9 4.1 1m71.6 21c1.7 5.1 3.3 9.3 3.6 9.3s1.2-1.7 1.9-3.7c4.9-14.3 5.4-15.3 7.2-15.3 1.1 0 1.9.3 1.9.7 0 .5-1.8 5.7-4.1 11.8-2.2 6-4.2 11.6-4.4 12.2-.6 1.9-4.2 1.6-5-.5-.3-.9-2.4-6.8-4.6-13-3.8-11-3.8-11.3-1.7-11 1.8.2 2.7 2 5.2 9.5m29-.5c1.4 1.3 2.8 3.5 3.2 5l.6 2.8h-7.1c-6.4 0-7.1.2-7.1 2 0 3.5 5.9 5.3 8.9 2.6 1.2-1.1 2.1-1.2 3.1-.5 2.4 1.5-2.4 4.9-7 4.9-3 0-4.4-.6-6.4-3.1-7.3-8.7 3.4-21.1 11.8-13.7m23 .4c2 2.1 2.6 3.7 2.6 7.1 0 5.9-3.2 9.3-9 9.3s-9-3.3-9-9.4c0-3.7.5-4.8 3.1-7 4.1-3.5 8.8-3.5 12.3 0M327 5.5c0 .8-.4 2.3-.9 3.3-1.8 3.4-3.9 8.8-5.2 13.2-.7 2.5-1.6 4.7-2 5-1.3 1-2.9 12.4-2.9 21.4 0 6.8.3 8.7 1.2 7.8 1.8-1.8 2.4-12.2.7-12.3-.8 0-.4-.4.7-.9 1.5-.6 3.4-3.8 5.9-10 2.2-5.3 4.3-8.9 5-8.7.8.4 1-2.1.7-8.7-.2-5-.5-9.7-.7-10.4-.6-1.7-2.5-1.5-2.5.3M950.6 13.2c-.9 13-.8 28.6.3 29.2.5.3 1.2 1.8 1.6 3.3 1.1 4.4 9.5 21.3 10.6 21.3.6 0 .8.3.6.7-.3.5-.1 1.7.4 2.8.6 1.5.8.8.8-2.5-.1-2.5 0-10.4.1-17.5.1-9.3-.3-14.2-1.3-17-.8-2.2-2.9-8.1-4.7-13C955 9.1 952.8 4 952 4c-.4 0-1 4.1-1.4 9.2M925.2 24.6c-.7 11-1.2 21.5-1.2 23.4 0 3.1 4.3 11.5 11 21.5.8 1.3 3 4.8 4.9 8 1.8 3.1 3.7 5.3 4.1 4.8.5-.4 1.1-10 1.5-21.3l.7-20.5-3-6c-1.6-3.3-5.2-9.7-7.8-14.1-2.7-4.5-5.8-9.9-7-11.9l-2-3.7zM351.6 9.5c-.9 2.1-2 4.2-2.4 4.5s-1.8 2.5-3.1 5c-1.4 2.5-2.8 4.7-3.2 5-1.8 1.2-5.9 10.5-5.3 12.2.4 1.4.1 1.6-1.2 1.1-1.5-.6-1.6.5-1 14.3.9 20.5 1.7 29.4 2.7 29.4.5 0 .9-.6.9-1.4s.3-1.6.8-1.8c.8-.4 5.2-6.5 5.2-7.3 0-.3 1.2-2.4 2.7-4.8 1.5-2.3 4-6.9 5.6-10.1l2.9-6-.8-19.5c-.4-10.7-1-20.6-1.4-22.1-.7-2.4-.7-2.4-2.4 1.5"/><path d="M0 56v32h5.8c4.4 0 8.1.9 14.8 3.6 5.1 2 11.5 3.8 15 4.1l6.1.5 2.1-3.6c1.2-2.1 2.2-4.3 2.2-5.1 0-.7.3-1.5.7-1.7 1.2-.5 4.3-6.4 4.3-8.1 0-.9.7-2.8 1.6-4.4 1.3-2.2 1.5-4 1-7.6-.4-2.6-1.1-4.7-1.7-4.7-.5 0-.9-1.3-.9-2.8 0-3.4-6.2-10.2-9.3-10.2-1.1 0-4.1-1.9-6.6-4.3-3-2.8-7.2-5.3-11.7-7.1-3.9-1.4-8.6-3.8-10.4-5.1-1.9-1.4-4-2.5-4.7-2.5S7 28.4 7 27.7C7 26.6 2.7 24 .8 24 .4 24 0 38.4 0 56M379.4 29.7c-2.7 3.2-6.2 7.1-7.9 8.8-7.7 8.1-9.7 10.7-8.9 11.5 1.1 1.1 17.7 6.6 22.3 7.4l3.4.6-.6-5.7c-.4-3.2-1-10.9-1.3-17.1-.4-6.1-1-11.2-1.4-11.2s-2.9 2.6-5.6 5.7M893.6 29.2c-.3 2.9-.8 10.6-1.2 17.1l-.7 11.7 3.4-.6c4.7-.9 20.1-6.2 21.2-7.3.6-.6-2.2-4.5-7.4-10.3-4.6-5.1-9.6-10.8-11.1-12.6-1.5-1.7-2.9-3.2-3.1-3.2-.3 0-.7 2.4-1.1 5.2M503 36.1c-9.1.5-19.4 1.1-22.8 1.5-5.9.5-6.3.7-5.9 2.7.3 1.2 1.3 8.3 2.3 15.7.9 7.4 2.4 18.4 3.3 24.5l1.7 11 5.3.5c5.8.6 6.3.4 8-2.8.6-1.2 1.8-2.2 2.6-2.2 2.6 0 10.5 4.4 9.3 5.1-1.8 1.1 7.8 2.2 14.4 1.6 3.3-.3 6.1-.7 6.3-.9.2-.1-.1-3.9-.6-8.3s-1.3-13.8-1.9-20.9c-1.3-16.6-3.2-28.6-4.5-28.5-.5.1-8.4.6-17.5 1M525.5 41.2c.4 3.5 1.8 16.1 3.1 28.1s2.4 22.4 2.4 23.2c0 .9 1 1.5 2.4 1.5 1.3 0 2.6.4 2.8.9s5.7 1.2 12.3 1.5c6.6.4 16.7 1.4 22.4 2.2 13.9 1.9 13.4 1.9 12.7-1.4-.3-1.5-1-11.9-1.6-23.2-.5-11.3-1.3-24.7-1.6-29.8l-.7-9.2h-54.8zM583.4 49.7c.6 14.7 2.4 39 3.2 44.8.4 2.8.7 3 4.1 2.8 2.1-.2 5.2-.5 6.8-.8 2.1-.4 3.7 0 5.5 1.5 2.2 1.7 2.3 2 .6 2-1.1 0-1.6.3-1.3.6.7.8 34.6 3.1 35.3 2.5.2-.2.4-14.7.4-32.2 0-35.8.9-32.6-8.5-32.8-2.7-.1-14.2-.8-25.4-1.6S583.5 35 583.2 35c-.2 0-.2 6.6.2 14.7M687.5 35.6c-2.2.2-11.2.8-20 1.4s-18.4 1.3-21.2 1.6l-5.3.5V103h3.8c9.8 0 45.8-2.3 46.6-3 1-1 2.2-17.7 3.2-44.3.6-19.9.6-20.7-1.2-20.5-1.1.1-3.7.3-5.9.4M698.7 35.7c-.5.8-1.2 12.5-2.3 36.4-.6 12.5-.4 15.3 1 19.1 1 2.5 1.7 5.2 1.7 6.1-.1 1 .1 1.8.4 1.8.5.2 15.6-1 20.5-1.6 1.4-.2 7.9-.8 14.5-1.5 6.6-.6 12-1.2 12.1-1.3.1-.3 3.2-29.8 4.6-45.4.7-6.7.8-12.6.4-13-1-1.1-52.3-1.6-52.9-.6M755 36c0 .3-.5 5-1 10.5-.6 5.5-1.5 15.4-2 22-.6 6.6-1.3 15.2-1.6 19.2l-.6 7.2 3.3-.5c2.8-.3 41.1-3.4 43.1-3.4.7 0 1.5-5 3.4-21 .8-6.9 1.9-15.7 2.4-19.5.5-3.9.9-8.5 1-10.3V37l-11.7-.1c-6.5 0-17.3-.4-24.1-.7-6.7-.4-12.2-.5-12.2-.2M805.9 38.1c0 .2-.6 6.7-1.4 14.4-.7 7.7-2.1 19.3-3.1 25.7-.9 6.5-1.5 12.1-1.1 12.4.3.3 10 .3 21.6-.1l21-.8 1.1-3.1c1.1-3.5 6-35.5 6-39.7 0-2.5-.1-2.6-16.8-5.3-19.1-3-27.2-4.1-27.3-3.5M456 40.6c-3.6.7-10.7 1.9-15.8 2.6-5 .6-9.7 1.5-10.4 1.9-1.3.8 1.3 22.3 3.8 31.6.8 2.9 1.4 5.6 1.3 6-.4 2.4.3 4.3 1.6 4.3 1.8 0 2 2 .3 2.1-.7 0-.4.4.7.9 1.5.6 2.5.3 3.7-1.1 1.3-1.6 2.5-1.9 5.3-1.5 1.9.4 5.1.8 7 1.2 2 .3 3.3.9 3.1 1.3-.6.9 7.5 2.1 14.6 2.1 5.3 0 5.8-.4 5.8-5.1 0-3.5-.2-5.7-3.5-32.7L471.6 39l-4.6.1c-2.5.1-7.4.8-11 1.5M852.5 48.3c-.5 3.5-4 28-5 36.3-.8 6.2-1.3 5.9 16.2 7.4 6.5.5 14.1 1.4 16.8 1.9 2.8.5 5.4.6 5.8.2.8-.8 2.6-25.5 2.3-31.1-.1-2.8-1.4-3.6-16.1-9.6-4.9-2.1-11.3-4.8-14.2-6l-5.2-2.3zM330.8 48.6c-.4 1.8-1.3 3.8-2.1 4.5-1.8 1.9-6.8 15.5-7.4 20.1-.3 2.1-.9 3.5-1.4 3.2s-.9.7-.9 2.1c0 3.8 4.6 8 9.8 8.8l4.2.7-.1-14.2c-.2-18.4-1.1-29.6-2.1-25.2M422.2 48c-1.7 1.1-4.2 2.1-5.5 2.4-1.3.2-7.1 2.7-13 5.5s-11 5.1-11.4 5.1-.7 4.8-.5 10.7c.3 12.6 1.3 24.3 1.9 22.5.3-.6 1.1-1.2 1.9-1.2.9 0 1.3.4.9.9-.3.6.8.8 2.7.6 1.8-.3 6-.7 9.3-.9 24.7-2.1 23.8-1.2 21.1-21.6-2.2-16.2-3.6-25.4-3.9-25.7-.2-.1-1.7.6-3.5 1.7M948.5 61.7c-.3 7.1-.7 15.9-.8 19.8l-.2 7 2.9-.3c4.9-.5 5.8.3 3.9 3.6-1.6 2.8-1.6 3 1 6.4 1.5 1.9 2.7 4.8 2.7 6.4s.4 3.5.9 4.3c.7 1.1 1.1.8 1.7-1 .4-1.3.9-3.5 1-4.9s.5-6.8.9-12c.6-8.5.5-10.1-1.5-15-1.2-3-2.9-7.5-3.7-10-1.8-5.3-7.1-17-7.7-17-.2 0-.7 5.7-1.1 12.7M906.5 56.5C899.9 59 894 61 893.4 61c-1.2 0-2 5.6-3 23.5l-.6 11 13.8 4.5c7.7 2.4 14.4 4.5 15 4.7.7.3 1.2-6 1.4-19.9.3-17.8.3-29.6.1-32.1-.1-1.1-.7-.9-13.6 3.8M360.1 79c.1 14.3.6 26 1 26 .3 0 2.6-.7 5-1.6 2.4-.8 5.1-1.7 5.9-1.9s2.7-.8 4.1-1.3c1.5-.6 3-.8 3.3-.5.3.4.6-.1.6-.9 0-1.1.7-1.4 2.4-1.1 1.6.3 3.1-.2 4.5-1.6 1.8-1.8 2.1-3.3 2.1-11.4 0-14.2-.9-19.7-3.1-19.7-1.1 0-1.9-.5-1.9-1 0-.6.9-1 2-1 4.7 0 1.2-1.8-11.2-5.8-7.3-2.3-13.7-4.2-14.1-4.2-.5 0-.7 11.7-.6 26M353.6 62.3c-1.1 2.3-3.2 6.1-4.8 8.4-3 4.5-3.5 5.8-1.5 4.7 1.2-.8-.1 1.3-3.4 5.1-2.1 2.4-6.3 11.9-4.9 11 1.2-.7 3.2 2.9 2.5 4.7-.3.7.4 1.9 1.4 2.5 1.7 1.1 2.1 1 2.6-.7.7-2.1 3.5-2.8 3.5-.9 0 1.8 2.6 3.8 4.6 3.5 1-.2 2.1-1.5 2.6-3.2 1-3.5.9-39.4 0-39.4-.4 0-1.6 2-2.6 4.3M923.4 66.7c-.4 4.3-.4 14.6-.1 23 .6 17.8 1.8 21.5 9.6 29.4 2.8 2.9 5.1 4.8 5.1 4.3.1-.5.7.2 1.6 1.6l1.5 2.5-.7-2.4c-.5-2.1-.3-2.3 1.7-1.9l2.4.4-.3-12.5c-.4-11.8-1.1-14.9-3.4-13.5-.4.3-.8 0-.8-.5 0-.6 1-1.1 2.1-1.1 1.8 0 2.1-.4 1.6-2.8-.6-3-3.9-10.3-6.5-14.4-.9-1.5-4.1-6.5-7-11.2-3-4.8-5.5-8.6-5.7-8.6s-.7 3.5-1.1 7.7M64.2 64.7c-2.4.5-6.2 6.7-6.2 10.3 0 1.1-.9 2.5-2 3.2-2.9 1.8-2.7 8.7.3 12 2.4 2.7 11.5 7.9 18.7 10.7 3.5 1.3 5.2 1.5 7.5.7 1.7-.6 3.2-1.3 3.5-1.7.3-.3 1.5-1.1 2.8-1.8 1.2-.7 2-1.6 1.7-2.1-.3-.4.7-1.8 2.2-3 2.2-1.7 2.7-2.9 2.7-5.9-.1-4-2.6-9.6-5.4-12.3-2.1-2-16.4-8.8-18.5-8.8-.8 0-1.7-.5-2-1-.6-1-1.3-1.1-5.3-.3M811.6 93.8l-11.9.3.7 8.2c.4 4.5 1.2 12.9 1.7 18.7.6 5.8 1.1 11.7 1 13.1 0 2.1.6 2.8 2.7 3.2 1.5.3 5.2 1.4 8.2 2.6 6.2 2.4 8.2 2.7 5.6.8-1.6-1.2-1.6-1.3.3-1.3 1.2 0 2.1.3 2.1.7 0 1.4 22.2-.4 24.7-1.9.8-.5.9-2.2.2-5.6-.5-2.7-1.1-7.9-1.4-11.5-.5-7.5-1.6-21.4-2-24.9-.2-2.3-.5-2.4-10.1-2.6-5.4-.1-15.3 0-21.8.2M781.5 95c-3.8.5-12.3 1.3-18.9 1.9-6.5.6-12.1 1.2-12.3 1.5-.3.3-.1 6.9.3 14.8.5 8.9 1 12.8 1.4 10.3.5-3.9.6-4 4.4-3.9 4.6.2 5.2.9 6 8.7.3 3.3.9 6.3 1.4 6.6.4.3 1.2 1.5 1.8 2.6.9 1.6 2 1.9 6.2 1.6 4.4-.2 5.1 0 4.6 1.3-.4 1-.1 1.6.9 1.6 2.5 0 2.7 2.7.4 4.4l-2.2 1.5h2.3c1.2.1 2.2-.3 2.2-.7 0-.5 2.1-1 4.7-1.1s5.1-.5 5.6-1 1.6-.7 2.3-.4c1 .4 1.2 0 .8-1.1-.4-1-.1-1.6.9-1.6.8 0 1.7-1 2-2.1.4-1.5 1.1-2 2.1-1.6 1.9.8 1.9 2.2-.2-23.8l-1.7-20-4-.1c-2.2-.1-7.1.2-11 .6M847.3 101.7c.9 11.9 2.6 29.4 3.2 33 .6 3.1.8 3.3 4.8 3.2s4-.2 1.2-.9c-1.6-.4-2.3-.8-1.4-.9.9 0 2.2-.7 2.8-1.5.7-.8 3-1.7 5.2-2.1 2.1-.4 3.9-1 3.9-1.3 0-.4 2.6-.5 5.7-.3 5.7.3 7.9 1.6 6.4 3.6-.4.5-1.1 1.8-1.4 2.7-.6 1.6.1 1.8 5.9 1.8h6.6l-.6-5.8c-.3-3.1-.8-9.8-1.1-14.7-1-18.1-1.5-20.5-3.8-20.9-3.2-.6-32.8-3.6-35.6-3.6-2.4 0-2.4.1-1.8 7.7M416.5 96.3c-6.8.5-12.3 1.3-12.7 2-.4.6-2.6 1.2-5 1.3s-4.6.2-5 .3c-.5.1-.8 3.2-.8 7v6.9l4.3-.3c2.3-.2 5.5-.4 7-.4 1.6-.1 2.6-.5 2.3-1-1.1-1.7.5-3.9 3.7-5.2 1.8-.7 3.5-1.8 4-2.3.4-.7 1-.6 1.7.4.9 1.3 1.4.7 1.1-1.3-.2-1.2 6.7-.8 7.2.5.3 1 1 1 3-.1 3.8-2 3.5-4.9-.5-5.4l-3.3-.4 3.3-.1c2.9-.2 4.3-1.6 2.5-2.4-.5-.2-6.2 0-12.8.5M492.8 96.7c-2.8.3-3.7.9-4.2 2.9-.4 1.3-1.1 2.4-1.7 2.4s-.8.4-.4.9c.3.5-.1 1.6-.9 2.4-.8.7-1.6 3.8-1.9 6.8-.2 3-.2 4.2 0 2.6.4-2.2.9-2.7 3.4-2.7 1.9 0 3.8-.9 5.4-2.6 2.4-2.6 2.6-2.6 5-1 2.5 1.6 2.5 1.6 2.5-1.4 0-2.3.4-3 2-3 1.7 0 2 .7 2 4v4h8v5.4c0 5.2.1 5.4 3.1 6 1.7.3 3.5.6 4 .6s.9-2.7.9-6 .4-6 .9-6 1.1-1.7 1.5-3.9c.3-2.1 1.3-4.4 2.1-5.1 2.2-1.8 1.9-2.3-2.7-4.3-4.2-1.9-21-3-29-2M435.1 103.2l-.1 5.8h3.2c4.6 0 14.1-3.2 15.6-5.2 1.1-1.5 2.8-1.8 9.8-1.8 6.4 0 8.4-.3 8.4-1.4 0-1.7-5.7-2.3-20.5-2.1-6.4.1-11.9.6-13.2 1.3-1.8 1-2.2.9-2.6-.6-.3-.9-.5.9-.6 4M738.5 99c-3.8.4-14.9 1.5-24.5 2.4-10.5 1.1-17.8 2.2-18.2 2.9s-.6 3.2-.3 5.7c.7 7.1 1.8 25.2 1.7 29l-.1 3.5 1-3c.5-1.7.7-5 .4-7.5-.3-3.4-.2-3.9.4-2 .5 1.4.9 4.4 1 6.7.1 5.2.9 7.3 2.7 7.3.9 0 1.4 1.2 1.5 3.2.1 3 .2 3 .8.9.8-3.1 3.1-4 3.1-1.2 0 1.9.2 1.9 3.5.5 4.4-1.8 4.5-1.8 4.5.8 0 1.7.3 1.9 1.2 1 .7-.7 2-1.2 3-1.2 1.1 0 1.8-.7 1.8-2 0-1.1.5-2 1-2 .6 0 1-.8 1-1.9 0-1 .7-2.4 1.5-3.1s1.5-1.8 1.4-2.4c-.4-3.1.3-4.4 2.6-4.8 1.3-.3 2.3-.2 2 .1-.2.4 0 1.3.6 2.1.6 1 .9 1.1.9.2 0-.8 1.6-1.2 4.8-1.1 2.6.1 3.7.4 2.5.6-1.3.2-2.3.9-2.3 1.4s-.7.9-1.5.9c-.9 0-1.4.9-1.3 2.4s.7 2.2 1.5 1.9c.7-.3 1.3 0 1.3.6s.8 1.1 1.9 1.1c1.3 0 2.2-1.2 3.1-4.4.8-2.8 1.9-4.6 3.1-4.9 1.6-.4 1.9-1.5 1.9-7 0-9.8-1.2-27.7-1.9-27.6-.3.1-3.7.5-7.6.9M540.8 101.6c.3 1.7 0 2.4-1.2 2.4-.9 0-1.6.7-1.6 1.5s.6 1.5 1.4 1.5 1.6.5 1.8 1.1c.3.9 2.4 1.6 5.6 1.8.6.1 1.2 1 1.2 2 0 1.5 1 2.1 4 2.6 3.4.6 4 1.1 4 3.1 0 1.7.6 2.4 2 2.4 1.3 0 2 .7 2 2 0 1.7.7 2 4 2s4-.3 4-2c0-1.6.7-2 3.5-2s3.5.4 3.5 2c0 1.1.7 2 1.5 2s1.5-.9 1.5-2-.4-2-1-2c-.5 0-1-1.7-1-3.9 0-2.8.5-4 1.8-4.5.9-.3 2.2-.9 2.9-1.2.6-.3 1.3.5 1.6 1.8.2 1.3.5-.3.6-3.4l.1-5.7-4.2-.5c-2.4-.3-7.9-.8-12.3-1.1-4.4-.2-10.1-.7-12.7-1-13.2-1.5-13.5-1.4-13 1.1M890.4 104.7c.4 3.2 1.1 10.7 1.7 16.8 1.3 15 1.6 16.2 4.5 16.9 1.3.4 2.3 1.2 2.1 1.8-.1.6 1.4 1.6 3.3 2.1 1.9.6 7.3 2.3 12 3.8 4.6 1.6 8.6 2.6 8.9 2.3.6-.6.5-3.3-1.2-22.8-1.2-13.7-1.6-16-3.3-16.9-3.1-1.8-25.8-9.7-27.8-9.7-.5 0-.6 2.6-.2 5.7M382.5 102.1c-6.4 1.4-12.5 4-12.6 5.2-.1.7-.1 1.8 0 2.5.4 3-5.1 5.6-6.2 2.9-1-2.3-2.7 1.6-2.7 6.3 0 5.9.9 9 2.6 9 .8 0 1.4.7 1.4 1.5s.7 1.5 1.5 1.5c1 0 1.5-1 1.5-3.3 0-4.7 1-7.7 2.6-7.7.8 0 1.4.9 1.4 2 0 1.7.7 2 3.9 2 3.7 0 3.9-.2 4.6-3.7.7-3.9 2.8-6.2 5.8-6.3 1.2 0 1.7-.8 1.7-2.8 0-1.5.3-4.4.6-6.5.7-4.1.7-4.1-6.1-2.6M587.6 105.5c-.3.9-.7 5.7-1 10.8-.3 6.6-.2 7.7.3 3.7l.8-5.5.1 5.2c.2 6.2.9 8.3 2.8 8.3.8 0 1.4.6 1.4 1.2 0 .9.4.8 1-.2.8-1.2 1-1.1 1 .7 0 2.2.4 2.3 7 2.3 6.3 0 7 .2 7 2s.7 2 6.9 2c4.6 0 7.1-.4 7.4-1.3.2-.7.8-.8 1.3-.3s.4 1.1-.3 1.3c-.7.3-1.3 1.3-1.3 2.4 0 1.5.5 1.7 2.8 1.3 2-.4 3.4 0 4.7 1.2 1.3 1.3 2 1.5 2.3.6.2-.6 1-1.2 1.8-1.2s1.5-1.1 1.5-2.8c.1-1.6.7-.3 1.4 3.3 1.2 5.6 1.3 4.8 1.4-13.6l.1-19.7-7.2-.6c-12-1.1-29.1-.9-32.2.3-1.6.7-3.2.8-3.5.4-.5-.7-5.6-3.3-6.5-3.3-.2 0-.7.7-1 1.5M677.5 104.6c-1.6.2-5.9.7-9.5 1-3.6.4-5.9.9-5.2 1.1.6.3 1.2.9 1.2 1.4 0 .6-.5.7-1.1.3-.8-.5-1 .2-.6 2.2.7 4-1 19.8-2.3 20.2-.5.2-1 3.4-1 7.3 0 6.1.2 6.8 1.8 6.2.9-.4 2.2-1.2 2.7-1.9 1.4-1.9 8.9-3.3 16.7-3.4 5.3 0 6.9.4 7.7 1.7.9 1.6 1.2 1.6 2.1.3.5-.8 1-2.6 1-3.9 0-3.5.9-2.1 1.9 3 .8 4 .9 3.6.8-3.4 0-4.2-.2-7.7-.4-7.7s-.8 1-1.3 2.2c-.7 1.9-.9 1.3-.9-2.7-.1-3.6.2-4.6.9-3.5 1.1 1.8 1.2-14 .1-18-.6-2.3-1.2-2.5-6.1-2.6-3-.1-6.8 0-8.5.2M645.3 106.7l-4.3.4.1 13.2c0 7.3.4 15.2.8 17.7l.8 4.5.2-4.3c.1-2.6.5-4.1 1.1-3.7 1.8 1.1 5-.6 5-2.7 0-1.1 1.6-5.2 3.5-9.1s3.5-7.7 3.5-8.4c0-.8.4-1.2.9-.9s1.1-.4 1.5-1.7c.4-1.6-.1-2.7-1.7-3.9-2.2-1.7-3.1-1.8-11.4-1.1M925.1 122.6c1.9 18.7 3 24.3 5.1 25 1.8.5 1.8.7.3 1.8s-1.5 1.3-.1 2.5c.9.7 2.3 1 3.2.7.9-.4 2.3-.1 3.1.6 2.3 1.9 4.5 1.9 3.9 0-.3-.9-.8-3.1-1.1-4.7-.4-1.7-.9-3.8-1.1-4.7-.3-1.1.2-1.8 1.7-2 1.2-.2 2.5-1 2.7-1.8.4-1.3.3-1.3-1.1-.2-1.3 1.1-1.5 1-1-.7.5-2.1-1.6-8-2.9-8.2-.5-.1-1.4-.2-2-.3-.7 0-1.4-1.1-1.6-2.4-.2-1.2-.8-2.2-1.3-2.2s-.9-.4-.9-1c0-.5-1-1.9-2.2-3.2-1.3-1.3-3-3.4-3.9-4.7-1.5-2.3-1.5-2-.8 5.5M862.5 143c3.9.7 3.9.7.7.9-2.6.1-3.5.7-4.3 2.8-1.7 4.6-4.9 5.8-4.9 1.9 0-1.4-.4-2.8-1-3.1-.6-.4-1 .8-1 2.9 0 2.4.5 3.6 1.4 3.6 1.5 0 2.6 2.1 2.6 5 0 1 .9 2 2 2.3s2 .1 2-.4.5-.9 1-.9c.6 0 1 .9 1 1.9 0 1.1.5 2.3 1 2.6.6.3 1 .1 1-.5 0-1.9 2.8-4.2 3.6-2.9.4.7 1.2-.2 2.1-2.2.8-1.8 1.9-3.7 2.6-4.1.9-.6.8-.8-.3-.9-3.9-.2 3.1-1.8 8.3-1.8 5.6-.1 8.2-2 3-2.2-1.6-.1-2.1-.3-1.2-.6.9-.2 1.9-1.5 2.2-2.9l.4-2.4-13.1.1c-8.7.1-11.8.4-9.1.9M0 349.6c0 7.7.2 8.5 1.6 7.3 2.1-1.8 11.3-4.8 14.7-4.9 2.3 0 2.7-.4 2.7-3q0-3-1.5-3c-.8 0-1.5-.9-1.5-2 0-2.2-.5-2.4-7-2-5.1.2-6.1.7-4 2 .8.6 1 1 .4 1-.5 0-2-.9-3.2-2L0 340.9zM0 426.9v58.2l2.3-.4c1.2-.2 2.9-.7 3.7-1s3.3-1.1 5.5-1.7c4.9-1.2 5.9-1.9 7.4-4.7 1.6-3.1 1.4-5.4-1-10.8-1.4-3.1-1.9-5.6-1.4-7.4.4-1.4 1.1-7.3 1.5-13.1.5-5.8 1.2-12.2 1.5-14.3.5-2.3.3-4.3-.4-5.1-.9-1.1-.9-3 0-8 1-5.1 1-6.9.1-7.8-.7-.7-1.2-2.6-1.2-4.3 0-1.8-.8-3.7-2-4.8-1.5-1.3-2-2.9-2-6.6 0-5.5.8-8.4 2.1-7.6.4.3 1.3-.3 1.8-1.4 1.2-2.2 8.9-4.3 14.7-4 4.9.3 6.4-.5 6.4-3.6 0-2.1-.6-2.4-4.7-3-2.7-.3-7-1-9.6-1.5-2.7-.6-6.1-1-7.6-1-2.5 0-11.6-2.1-15.3-3.5C.1 368.8 0 372 0 426.9"/><path d="M131.6 375.7c-.5.6-21 2-39.6 2.7-7.5.3-14 1.6-14 2.7 0 .6-.7.6-1.7.1-1-.6-3.7-1.3-5.9-1.7-3.8-.6-4.2-.4-4.8 1.8-.3 1.3.1 4.6.8 7.3.8 2.7 1.7 7.8 2.1 11.3.6 5.4.4 7.1-1.5 11.2-1.3 2.6-2.6 4.7-2.9 4.5s-.7 1.2-.9 3.1c-.1 1.9.2 3.2.7 2.9 1-.7 4.4 2.9 6.4 7 1.8 3.5 3.3 16.9 2.3 20.8-.5 1.9-1.3 2.6-3.1 2.6-1.3 0-2.6.4-2.9.9-.9 1.5-5.6-.1-6.8-2.3-.7-1.1-1.6-5.7-2-10.1-.5-4.4-.9-8.6-1-9.3-.2-1.5-8.4-1.7-9.3-.2-.3.5-3.1 1-6.1 1-4.6 0-5.9.4-8.5 2.9-1.7 1.7-3 3.9-3 5.3 0 1.2.1 3.5.1 5s.4 2.9 1 3.3c.5.3 1 3.4 1 6.7 0 7.3 1.3 8.7 8.2 8.8 4.2 0 13.5-2.3 20.6-5.1 5-2 7.3-1.1 14.6 5.8 3.9 3.7 7.2 7.2 7.4 7.9.4 1.5-2.5 6.3-5.3 8.6-2.6 2.2-12 4.8-17.2 4.8-2.2 0-5.5.7-7.3 1.6-3.5 1.8-14 3.3-23.3 3.4-3.2 0-5.6.4-5.3.8.2.4-.8 1.3-2.4 2-2.1 1-4.6 1.1-9.5.4-6.3-.8-6.9-.7-9.6 1.5L0 498.2V720h136.8l5.2-3.5c6.6-4.4 8.8-4.4 12.3 0l2.8 3.5h26.8c25.8 0 26.9-.1 27.4-2 .6-2.2 5.3-3.8 6.9-2.2.8.8.8 1.5-.2 2.7-1.1 1.3 5.6 1.5 66.8 1.5h68l-.5-2.3c-.3-1.2-1.9-5.1-3.5-8.7-3.3-7.1-5.1-12-14-38-3.3-9.6-6.6-20-7.3-23-3.1-13-9.5-37.3-10-37.8-.3-.3-.5.2-.5 1.2 0 .9-.4 1.4-1 1.1-2.5-1.6-8.3.9-13.3 5.7-2.9 2.7-7 5.8-9.2 6.8-2.2 1.1-5.6 3.5-7.6 5.4s-6.4 5.3-9.8 7.5c-5.5 3.5-6.5 3.8-9.1 2.9-3.6-1.2-4-4.2-.7-5.9 1.2-.7 3.3-2.3 4.8-3.6 2.5-2.4 4.3-3.6 10.7-7 2.8-1.5 3.3-2.2 3-4.5-.4-2.2-.1-2.8 1.4-2.8 1.1 0 1.6-.4 1.3-1-.3-.5 0-.7.8-.4 1.3.5 6.9-3.4 9.3-6.5.7-.9 1.6-1.1 2.5-.6 1.2.8 1.2.6 0-.8-.9-1.1-1-1.7-.2-1.7.6 0 1.1-1.2 1.1-2.6 0-2.2.3-2.4 1.4-1.5 1.2 1 2.6.4 7.3-3.1 5.3-3.9 5.8-4.6 5.5-7.8-.4-5.7-5.2-36-6.8-42.6-.8-3.3-1.4-7-1.4-8.1 0-4.1-2.9-9.1-5.9-10.1-1.6-.6-4.8-2.7-7.1-4.8-4.8-4.3-6.8-4-8.3 1.6-.8 3.3-4.2 6.9-6.4 7-.7 0-1.3.4-1.3 1 0 .9-8.3 5-10.2 5-.5 0-3.2-2.3-5.9-5.2-3.6-3.8-4.9-5.9-4.7-7.8.1-1.4-.3-3.9-1-5.6-.7-1.6-1.6-6.3-2-10.4-.8-7.7.1-11.3 3.3-14 .8-.7 1.5-2.1 1.5-3.2 0-1 1-4 2.1-6.6 3.1-6.8 1.9-9.4-4.8-10.7-2.9-.6-6.2-1.9-7.3-3-2-2.1-2-2.1-.1-4.2 2.5-2.6 3.4-6.3 2.2-8.2-.6-1-2.2-1.2-5.5-.9-6.5.8-8.6-1-8.6-7.3 0-2.7-.3-4.9-.7-4.9-.8 0-3.3-4.8-3.3-6.3 0-3.1-8.2-5.3-9.3-2.5-1.2 3-2.8-1.9-2.3-7 .4-4.1 1.1-5.9 3-7.6 1.4-1.2 2.6-3.1 2.6-4.2 0-5-7.9-9.7-12.2-7.2-1.3.7-4.7 1.3-7.6 1.3h-5.4l.2 16.7c.1 16 0 16.8-1.9 16.8-1.8 0-1.9-.7-1.7-16.9.2-16.7.2-17-2-18-1.6-.7-2.1-1.6-1.7-3.1.8-3 4.6-6.6 7.7-7.4 2.8-.7 3.8-4.6 1.1-4.6-.8 0-1.5.4-1.5 1 0 .5-.9 1-2 1s-2-.7-2-1.5c0-.9-.7-1.8-1.5-2.1s-1.7-1.5-2-2.5c-.6-1.9-1.6-2-19.3-1.9-14.5.1-19.9-.2-23.9-1.4-7.2-2.3-16.6-7.7-17.8-10.4-.5-1.2-1.4-2.2-1.9-2.2-.4 0-.3-.7.4-1.5 1.2-1.5 1-2.1-.4-.8M204 453q0 3 1.5 3c.8 0 1.5.8 1.5 1.9 0 1.5 1 1.9 5.3 2.5 2.8.3 6.6.6 8.2.6 1.7 0 3.7.5 4.5 1 1.3.9 1.3 1.1 0 2-1.7 1.1-1.8 10.9-.1 15.3.6 1.6 1.1 6.1 1.1 10.1 0 3.9.4 7.6.9 8.2.6.5.5 2.3-.2 4.6-1.1 3.5-1.4 3.8-8 5.2-8 1.8-12.7 2-12.7.6 0-2.1-4.1-.9-5 1.5-2 5.3-12.9 9.3-19.6 7.2-2.5-.9-6.4-8.7-6.4-12.9 0-3.6-2-9.8-3.2-9.8-.4 0-.8-.6-.8-1.4 0-.7-.8-3.7-1.7-6.6l-1.7-5.1 2.6-2.2c1.4-1.2 2.8-3 3.2-4 .3-1 1.9-2.3 3.6-2.8 1.9-.7 3-1.8 3-3 0-1.6.7-1.9 4-1.9 3.6 0 4-.3 4-2.5 0-1.8.5-2.5 2-2.5 1.6 0 2-.7 2-3 0-1.7.5-3 1-3 .6 0 1 1.8 1 4 0 3.8.2 4 3 4 2.3 0 3-.4 3-2 0-1.3.7-2 2-2 1.1 0 2-.4 2-.9s-.9-.7-2-.4c-1.4.4-2 0-2-1.1 0-.9-.8-1.6-2-1.6-1.4 0-2-.7-2-2.2 0-2 .1-2.1 2-.3 2 1.8 2 1.7 2-.8 0-2 .5-2.7 2-2.7 1.6 0 2 .7 2 3"/><path d="M193 490.6c-3 1.9-6.2 3.4-7.1 3.4-2.3 0-4.1 2.4-3.3 4.5.6 1.5 1.6 1.7 7.7 1.1 10.1-.9 11-1.3 13-5.5 1.5-3.3 2.3-4 6-4.6 3.5-.6 3.9-.8 2.2-1.5-1.1-.5-4.5-.8-7.5-.8-4.5 0-6.5.6-11 3.4M1096 383.9q0 1.8-2.7 2.4c-1.6.3-4.4 2.2-6.3 4.1s-4.3 3.6-5.2 3.6c-1 0-1.8.4-1.8.9s-.9 1.3-2 1.6-2 1.2-2 1.8c0 1.4-6.8 4.3-12.2 5.3-2.1.3-3.8 1-3.8 1.5s-.9.9-2 .9c-1.7 0-2 .7-2 4.6 0 3.7.5 5.1 2.8 7.2 1.6 1.5 3.2 3.6 3.6 4.7.5 1.3 1 1.5 1.3.7.3-.6 1.3-1.2 2.4-1.2 1 0 1.9-.5 1.9-1 0-.6.9-1 2-1 1.3 0 2 .7 2 2 0 1.5.7 2 2.5 2s2.5.5 2.5 1.9c0 1.1-.4 2.3-1 2.6-1.8 1.1-1.1 3 1.6 4.2 2.1 1 3 .9 4.8-.1 3-2 8.6-3 8.6-1.7 0 .6 1.3 1.1 2.9 1.1 2.6 0 2.9-.4 3.5-4.3.5-3.3 1.5-5 4.6-7.6 2.2-1.9 4-4.1 4-5 0-3.2 2-8.7 3.9-10.7 2.3-2.5 3.3-5.5 2.3-6.9-.4-.6-1.9-1.8-3.4-2.8-2.4-1.5-2.8-2.4-2.8-6.6 0-5.4-.8-6.1-6.6-6.1-2.7 0-3.4.4-3.4 1.9M1040 399.4c0 1.2-1.1 3.8-2.5 5.7-3.8 5.2-4.7 7.7-3.5 10 1.9 3.5 11.4 6.2 14.6 4.1 1.5-.9 3.4-7.7 3.4-11.9 0-2.4-1-4.2-3.4-6.8-4.2-4.3-8.6-4.9-8.6-1.1M30.9 399.6c-2.4 1.2-2.7 2.1-3.2 8.6-.3 4-.1 7.8.4 8.5 1.4 1.6 12.4.5 17.7-1.9 4-1.8 4.2-2.1 4.2-6.1-.1-5.6-2.3-8-8.8-9.5-6.3-1.4-6.9-1.4-10.3.4M925.7 473.9c-1.6.3-3.4 1.7-4.2 3-1.2 2.3-1.3 2.3-2.3.5-.9-1.5-1-1.1-.5 2.1.3 2.2 1 4.8 1.4 5.7.5.9.9 2.7.9 4s.6 4.8 1.4 7.8c.7 3 2.1 9 3.1 13.3.9 4.5 2.1 7.5 2.6 7.1.6-.3.8-.8.6-1.1-.3-.2.5-1.4 1.7-2.7 10.2-10.7 15.6-16.9 15.6-17.9 0-.7 1.8-2.9 4-5 3.2-3 4-4.4 4-7.2 0-1.9-.4-3.5-1-3.5-.5 0-.7-.6-.5-1.3.3-.6-1-2-2.7-3.1-3.4-1.9-18.1-3-24.1-1.7M913 478.8c0 .8-.5 1-1.2.5-.7-.4-.5.5.5 2 1.9 3 1.5 5-.8 4.1-.8-.4-1.8.1-2.1 1-.4 1.1-1.9 1.6-4.5 1.6-3.1 0-3.8.3-3.7 1.7.4 2.9-1.3 10.3-2.3 10.3-.5 0-.9.7-.9 1.5 0 1.9-6.3 2.1-7.8.2-1.3-1.5-7.1-2.1-9-.8-1.1.7-1.1 2.9.3 13.2.9 6.8 2.2 16 3 20.4s1.5 9.7 1.5 11.7.4 3.9.9 4.3c.6.3 2.7-.9 4.8-2.7 2-1.8 4.4-3.9 5.3-4.6.8-.8 4.4-3.6 7.8-6.3 3.5-2.7 7-5.6 7.8-6.4s3.5-2.9 5.9-4.6c5.1-3.6 6.1-5.9 4.7-9.7-.6-1.5-1.3-4.3-1.6-6.2s-.8-4.6-1.1-6c-2.2-8.5-2.7-10.9-3.2-14.3-.3-2-.9-3.7-1.4-3.7s-.9-1.2-.9-2.8c0-1.5-.5-3.4-1-4.2-.7-1.1-1-1.1-1-.2M860.3 495.7c-2.4.2-4.3.8-4.3 1.4 0 .5-1.2.9-2.7.9-1.6 0-3.5.5-4.3 1-1.2.8-1 1 1 1.1 1.4.1.3.5-2.5.8-3.4.4-5 1.1-5.1 2.1-.2 3.1-1.5 4.8-3.5 4.3-1-.3-1.9-1.2-1.9-1.9 0-.8-.5-1.4-1-1.4-.7 0-.7.6 0 1.9.5 1.1 1 3.1 1 4.4 0 1.6 1.2 3.4 3.4 5.1 1.9 1.4 4.1 3.2 4.8 4 3.5 3.4 37.2 30.6 37.6 30.2.2-.2-.1-4.4-.7-9.3-.7-4.8-1.6-12.6-2.2-17.3s-1.5-9-2-9.6c-.4-.6-.9-2.6-1-4.5-.4-5.9-6-13.2-10.4-13.4-1.1-.1-3.9 0-6.2.2M800.1 501.7c.3 3.3-.1 4.3-1.6 4.3-.8 0-1.5.4-1.5 1 0 .5-.7 1-1.6 1-1.1 0-1.5.8-1.3 2.7.5 6.8 0 9.3-2.1 9.3-1.3 0-2-.7-2-2 0-1.5-.7-2-2.5-2-3.8 0-10.3 3.6-11.1 6.2-.3 1.3-1.5 3.5-2.5 5-1.1 1.4-1.9 3.2-1.9 3.9 0 1.6 31.1 31.8 32.7 31.9.7 0 2.4-2.1 3.8-4.8 1.4-2.6 5.3-9.2 8.6-14.7 3.2-5.5 6.2-10.7 6.6-11.5s1-1.7 1.3-2c.7-.5 1.3-1.6 5.9-10.5 2.3-4.5 2.3-4.7.5-6-1.1-.8-2.6-1.5-3.5-1.5s-3.8-1.2-6.5-2.6-7.8-3.8-11.4-5.2-6.9-2.9-7.4-3.3c-1.6-1.4-2.7-1-2.5.8M637.6 510.3c-.4 1.5-.5 4.2-.2 6.1.9 4.6-.3 11.6-1.8 11-1.4-.5-5.6 2.8-5.6 4.5 0 2.1-2 1.1-2.1-1.2-.1-1.2-.6.9-1 4.8-.5 3.8-.7 7.6-.4 8.3.4 1 2.5 1.3 8.4 1 4.4-.2 7.7-.6 7.5-.9-.2-.4.4-1 1.3-1.3.9-.4 1.9-.2 2.3.4.8 1.2 4.9-6 4.3-7.7-.2-.6.1-1.4.6-1.8 2-1.2 1.2-5.5-1.1-6.4-1.3-.5-2.6-.7-3-.4-.5.2-.8 0-.8-.6s-.6-.8-1.4-.5-1.4 1.3-1.4 2.2c.1.9-.2 3.5-.6 5.7-.8 3.9-.9 3.9-1.9 1.5-.5-1.4-1.3-8.1-1.6-15-.5-8.9-.9-11.7-1.5-9.7M768.5 511c-1.1.4-4 .6-6.4.2-3.8-.4-4.6-.2-6.2 1.9s-1.8 2.2-2.4.6c-.4-.9-1.3-1.7-2.1-1.7-.7 0 .3 1.6 2.3 3.5 2.8 2.7 3.9 3.2 4.6 2.3.6-1 .7-.9.4.3-.3.9 0 2.2.6 2.8 1.2 1.2 3.1 1.5 2.4.3-.3-.4 1-.7 2.9-.8 1.9 0 3.4.3 3.4.8 0 .4-.4.8-.9.8-1.6 0-2.2 3.2-.9 4.7 1.1 1.3 1.5 1.2 3-.7 1.3-1.7 1.5-2.6.7-4.1-1.2-2.3-.1-4.9 1.2-2.8 1.2 2 2.3.3 2.3-3.6 0-1.9.4-3.5.9-3.5.4 0 .5-.5.2-1-.7-1.2-3.2-1.2-6 0M949.8 518.2C929 541.6 930 540 933.1 546.6c3.3 7.1 3.3 7.2-.1 3.5-1.8-1.8-3.5-2.9-3.9-2.5-1.2 1.3-2.7 6.8-12.5 44.8-1.4 5.4-2.6 10.2-2.6 10.8 0 3.1 27.7-33.4 28.6-37.7.4-1.7 1-3.2 1.4-3.5 1.2-.8 7.6-20.3 10-30.5 2.6-10.8 3.6-19.5 2.3-19.5-.5 0-3.4 2.8-6.5 6.2M748.1 515.7c.3 1.8-.2 3.3-1.1 3.3-.5 0-1.1-.8-1.1-1.8-.2-2.7-1.8 5.9-1.8 10-.1 3.2.2 3.8 1.9 3.8 2.4 0 2.7 1.5.4 2.4-.8.3-1.2 1-.9 1.6.3.5.2 1-.4 1-.5 0 .2 1.8 1.7 4.1 1.5 2.2 2.8 3.6 3 3s-.4-1.8-1.2-2.7c-.9-.8-1.6-2.3-1.6-3.2 0-1.2.6-.9 1.8 1 .9 1.6 2 2.8 2.4 2.8.5 0 .8.6.8 1.4 0 4.1 4.6 1.3 9.8-6.1 2.9-4.1 2.8-5-.7-5.8-1.6-.3-3.2-1.3-3.5-2.1-.3-.9-1-1.3-1.5-1s-1.4-.8-2-2.6c-1.4-3.9-1.4-4.1.2-3.3.6.4.3-.1-.7-.9-1.1-.9-2.5-1.6-3-1.5-.6 0-.5.3.2.6.6.2 1.2.9 1.2 1.4 0 .6-.8.5-2-.1-1.6-.9-1.8-1.5-1-3 .7-1.3.7-2.1 0-2.5-.6-.4-1-.3-.9.2M323.5 519.6c1 2.5 2.1 7.8 3 13.6.5 4.1 1 4.8 2.8 4.8 1.2 0 3.4 1.2 5 2.5 3 2.7 3.3 3.5 1.3 3.5-1.8 0-2.6 12.2-1 14.5 1 1.3 1.2 1.3 1.7-.5.3-1.1 1.1-2 1.9-2 1.6-.1 9.8-12 9.8-14.3 0-.9-1.6-3.3-3.5-5.4s-3.5-4.1-3.5-4.6c0-.4-.7-.7-1.5-.7-.9 0-2.4-1.3-3.3-3-.9-1.6-2-3-2.4-3-.5 0-.8-.6-.8-1.3-.1-1.6-4-4.4-7.5-5.3-2.5-.6-2.7-.5-2 1.2M368.2 525.4c.2 3.6.7 6.4 1.3 6.3s.9.3.8.9c-.1.7.5 1 1.6.7 1.7-.4 3.7 1.1 4.1 3.2.2.9 8 8.6 8 7.9 0-.1 1.3 1.1 2.9 2.7s3.4 2.9 4 2.9c.7 0 1-3.1.8-9-.3-7.7-.6-9.3-2.5-11-1.2-1.1-2.8-2-3.7-2-1.1 0-1.5-1-1.5-3.9v-3.8l-6.1-.7c-10.7-1.1-10.1-1.5-9.7 5.8M833.5 522c-.4 1.1-1.1 2-1.6 2-.6 0-.7.5-.3 1.1.3.6.2 1.4-.3 1.8-1.1.7-9.2 13.9-15.9 26.1-2.6 4.7-5.6 9.7-6.6 11.1-2 3-1.9 3.4 5 14 2 3.1 7 10.9 11.1 17.4 4.1 6.4 8.1 11.9 8.9 12.2 1.4.6 3.2-1.2 18.7-18.3 4.4-4.8 10.6-11.6 13.9-15.1 3.2-3.4 7.5-8.4 9.5-11 2-2.7 3.9-5 4.4-5.1.4-.2.7-1.3.7-2.3 0-1.2.4-1.7 1.1-1.4 2.4 1.6-1.6-3.2-5.1-6-2.1-1.7-9.2-7.4-15.8-12.8-10.8-8.7-12.6-9.8-17-10.4-3.3-.3-5.9-1.4-7.5-2.9-2.5-2.3-2.6-2.3-3.2-.4M922 527.8c0 .5-2.4 2.5-5.2 4.5-2.9 2-6.5 4.7-7.9 5.9-1.5 1.3-4.4 3.6-6.5 5.3-7.1 5.6-13.9 11.6-14.5 12.8-.8 1.5-2.6 17.3-3.4 29.7l-.6 9.5 2.1-2.5c1.2-1.4 4.7-5.9 7.8-10 5.5-7.4 6.8-9 10.6-13.3 1-1.2 3.1-4 4.6-6.2s6-8.3 9.9-13.5l7.2-9.5-.3-6.8c-.2-5.7-.5-6.7-2-6.7-1 0-1.8.4-1.8.8M400.4 529.5c-.4.8-1.4 1.5-2.4 1.5-1.5 0-1.9 1.3-2.6 9.2-.9 9.4-.5 11 2.1 8.8 1.2-1 1.3-1.6.3-2.9s-1-1.4.2-.4c1 1 2.2.6 5.5-1.8 2.4-1.7 5.7-4.5 7.4-6.3l3.1-3.2-3.7-.2c-4.1-.3-6.1-1.6-4.4-2.6.6-.4 1.1-1.4 1.1-2.2 0-1.9-5.9-1.9-6.6.1M355.9 530.3c-.2 2-.2 2.3-1.2 6-.6 2.2-.1 3.7 2.5 7.5 1.8 2.6 4.1 5.4 5 6.3 1 .9 1.6 1.8 1.4 2-.3.2 2.3 4.1 5.7 8.5 8.7 11.3 10.4 13.6 19.1 25.3 6.7 9 7.7 9.9 7.2 7-.4-1.9-1.3-9.7-2.2-17.4-2-18.7-2.7-21-6.4-22.5-1.7-.7-2.8-1.5-2.6-1.7.7-.8-8.5-7.7-12.1-9.2-1.8-.7-3.3-2-3.3-2.8s-.4-1.2-.9-.9-2.1-1-3.5-2.9c-1.5-1.9-3.2-3.5-3.8-3.5s-2-.7-3-1.7c-1.7-1.5-1.8-1.5-1.9 0M458.3 532.5c-.2.8-.1 2 .3 2.7.5.7.9 1.9 1.1 2.7.1.8.5 1.7 1 2 .4.3 2.1 3.2 3.8 6.3 1.6 3.1 3.3 5.4 3.7 5.2.4-.3 1.3 1.4 1.9 3.6.7 2.3 2.1 4.7 3.1 5.5 1.5.9 1.6 1.4.6 1.8q-1.35.6.3.6c2.4.1 14.1-12.1 12.6-13.2-.8-.6-.7-.7.4-.4 1 .3 2.6-.5 4-1.9l2.3-2.4-4.4-3.8c-2.3-2-5.5-4.9-7.1-6.3-2.5-2.3-3.8-2.7-12.9-3.2-8-.4-10.2-.2-10.7.8M448.8 535.8c-3 .3-3.8.7-3.8 2.3 0 1.8-.2 1.9-2.9.4-2-1-6.6-1.6-14.3-1.7l-11.3-.3-9.1 7.5c-12.5 10.3-12.4 10-6.8 15.5 2.5 2.5 4.2 4.5 3.9 4.5-.7 0 5.4 6.9 12.5 14 3 3 8.6 9.1 12.5 13.5 8.5 9.7 14.3 15.5 15.4 15.5 1.9 0 9-10.1 21.2-30.3l6-9.8-2.3-3.7c-1.2-2-2.6-3.9-3-4-.4-.2-.8-.9-.8-1.6 0-.6-1.6-3.6-3.6-6.6s-4.2-6.7-5-8.3c-.8-1.5-1.9-2.5-2.4-2.2-.6.4-1-.2-1-1.2 0-3-1.3-3.8-5.2-3.5M506.1 537.3c-.6.8-.7 1.8-.3 2.2.4.5 0 .6-.8.3-1.1-.4-6.2 4-15.4 13.2-14.5 14.4-15.4 16-10.1 18 2.2.8 2.4 1.3 1.5 3.5-.8 2.1-.4 4.2 2 10.3 1.6 4.2 3 8.3 3 8.9 0 2.1.9 1.6 7.9-4.1 12.6-10.3 22.2-21.9 28.7-34.7 2.1-4.3 2.2-4.9.9-6.3-.9-.8-2.2-1.3-3-1-.7.3-1.8-.4-2.5-1.6-.6-1.1-1.5-1.8-2.1-1.5-.5.4-.9.2-.9-.3s-1.7-1.7-3.9-2.8c-2.8-1.3-3.7-2.3-3.3-3.6.5-2.1-.1-2.3-1.7-.5M772.3 537.2c.4 1 .3 1.8-.1 1.8s-2.2 1.4-4 3c-1.9 1.6-5.3 3.8-7.7 5-2.4 1.1-4.6 2.8-4.9 3.7-1.1 2.7 11.9 22.7 19.2 29.7 6.4 6 17.8 15.6 18.6 15.6.3 0 .6-2.6.6-5.7 0-4.9.2-5.4 1.3-3.9 1.2 1.6 1.6.9 4.1-6.1 5-14.2 5-12.6-.3-18-11.8-12.1-27.4-26.6-26.8-25.1M347.8 549.5c-1 1.3-1.8 2.9-1.8 3.4 0 .6-.9 1.6-2 2.3s-2 2.1-2 3c0 1-.4 1.8-.9 1.8s-1.6 1.1-2.5 2.5c-1.3 1.9-1.4 3-.6 4.5.6 1.1 1.5 1.8 2.1 1.5.5-.4.9.2.9 1.1 0 1 1.7 3.8 3.8 6.3 2.2 2.5 4.6 6.1 5.6 7.8.9 1.8 2.1 3.3 2.6 3.3.6 0 1 .6 1 1.2 0 .7 1.8 3.2 3.9 5.5 2.2 2.3 4.4 5 5 6 1.9 3.5 2.1.5.3-6.3-5.6-21.3-12.7-46.4-13.2-46.4-.3 0-1.3 1.1-2.2 2.5M661.5 553.3c.2 1.7.4 9 .5 16l.2 12.8 6.5-.5c7.3-.5 9.3-1.7 9.3-5.5q0-2.7-.9-1.2c-1.4 2.1-2.1-.2-1.4-4.5.6-3.6.7-3.7 1.5-1.4.4 1.4.5-1.7.2-7-.3-5.2-.7-9.6-.9-9.8s-3.3-.6-7-.8-7.1-.6-7.5-.9-.7 1-.5 2.8M921.7 552.2c-.8 1.3-2.3 3.2-3.4 4.3-1 1.1-3.3 4-5 6.5s-3.9 5.5-4.9 6.7c-4.7 5.4-9.1 11-11.9 14.9-1.6 2.4-5.2 7.1-7.9 10.5-2.7 3.3-5.2 7.7-5.7 9.7-.7 3.5-5.9 51.9-5.9 55.7 0 1.4.3 1.3 1.8-.6 2.2-3.1 3.6-5.4 6.7-10.9 2.5-4.5 4.3-7.5 5.8-9.4 2.3-3.3 9.6-15.2 13.4-22.1 4.4-7.9 6.1-12.8 8.9-25.4.8-3.6 2.5-10.1 3.8-14.5 3.2-11 6.8-26.7 6.3-27.2-.2-.3-1.1.6-2 1.8M605 551.7c0 .5-.5 3.9-1.1 7.8-1.1 7.9-.5 13.5 1.6 13.5.8 0 1.8.6 2.2 1.3 1.2 2.1 9.7 6.7 12.1 6.7 2.1 0 2.2-.5 2.3-7.8 0-4.2.1-11 .2-15l.2-7.2H619c-1.9.1-5.4.5-7.7.9-2.4.5-4.3.4-4.3 0 0-1.1-2-1.2-2-.2M656 552c0 .6-1.2 1.5-2.7 2.1-1.6.6-4.7 2-7 3.1l-4.3 2.2v24.5l6.5-4.1c3.6-2.2 7.2-4.9 7.9-5.9.7-1.1 1.6-1.6 1.9-1.2.9.8.9-9.5.1-16.5-.4-2.8-1.1-5.2-1.5-5.2-.5 0-.9.5-.9 1M625.1 566c-.1 7.2-.4 13.7-.7 14.5-.3.7.3 1.8 1.5 2.4 3 1.6 3.9 1.3 1.3-.5-3.2-2.2-1.7-3.7 1.8-1.9 1.6.8 4 1.5 5.4 1.5s2.8.6 3.3 1.2c.4.7 1-3.8 1.3-10.2.5-11.3.5-11.5-2-13.7-1.4-1.3-2.9-2.3-3.4-2.3s-1.7-.6-2.5-1.4c-.9-.7-2.6-1.7-3.7-2-2.2-.7-2.2-.5-2.3 12.4M356.7 555.7c.3 1 .9 2.2 1.2 2.8.3.5.7 2.1.9 3.5s2.8 12.2 5.8 23.9c5.2 20.2 7 25.6 9.8 29 .6.7 2.7 4.2 4.6 7.7 1.9 3.4 6.9 11.8 11 18.6s8 13.3 8.7 14.5c.6 1.3 1.9 3.3 2.8 4.5 1.7 2.2 1.7 2.1 1.1-3.2-.4-3-1.8-16.2-3.2-29.3-2.7-25.7-3-26.7-10.3-35.2-2.8-3.3-5.9-7.2-11.7-15-7.5-10.1-9.9-13-11.2-13.8-.7-.5-1.7-2-2.2-3.3s-1.6-2.4-2.4-2.4c-.7 0-1.6-.9-1.9-2s-1.2-2-2.1-2c-1 0-1.3.6-.9 1.7M883 559.8c0 .6-1 2.2-2.2 3.5-4.6 4.7-12.4 13.3-15.7 17.2-1.9 2.2-8.9 9.8-15.5 16.8-13.4 14.3-14.2 15.3-12.7 17 1.1 1.4 3.8 10.6 8.4 28.7 1.8 6.9 3.6 12.4 4.1 12.3.9-.1 2.9-3.6 12.1-20.8 2.1-3.9 4.4-8.1 5.2-9.4 5.2-8.3 13.2-24.4 13.7-27.7 1-6.1 3.5-37.8 3-38.3-.2-.2-.4.1-.4.7M396 566.5c0 2.8.7 11.3 1.5 19s1.5 14.3 1.5 14.7c0 .3 1.2 2 2.6 3.7s2.3 3.1 2 3.1c-.8 0 3.6 8.6 8.6 16.8 2.3 3.7 5.2 8.9 6.4 11.7 2.3 5 7.2 13.9 10.1 18.4 1.9 3 2.7 1.8 3.8-5.3.4-2.7 2.7-11.5 5.2-19.5 2.4-8 4.6-15.4 4.8-16.5.3-1.3-2.7-5-9.9-12.5-5.7-5.8-12-12.4-14-14.6-1.9-2.2-7.8-8.5-13.1-14l-9.5-9.9zM805 571.5c0 .9-.7 2.6-1.4 3.8-.8 1.2-2.2 4.7-3 7.7s-2.1 7.5-2.9 10c-.7 2.5-1.2 5.1-1 5.7.3.7 3.7 3.7 7.6 6.7 4 3 10.1 7.6 13.5 10.4l6.4 4.9 4.4-4.7 4.5-4.8-2.9-4.3c-1.6-2.4-5.1-7.8-7.7-11.9-15.8-24.9-17.5-27.2-17.5-23.5M469.8 575.2c-1.5 2.4-3.4 5.2-4.1 6.3-.8 1.1-5.3 8.2-10.1 15.7l-8.8 13.8 3.6 3.5c2 1.9 3.6 4.1 3.6 5 0 1.6 1.6 2.1 2.2.7.2-.4 5.2-4.5 11.2-9.2 6-4.6 12.2-9.6 13.7-11.1l2.8-2.7-2.5-6.9c-1.3-3.7-3.1-7.3-4-7.9-1-.8-1.3-2-.8-3.8.7-2.8-1.2-3.8-2.2-1.2-.7 1.7-3.3 1-3-.7.1-.7.8-2.2 1.4-3.5 2.2-3.9-.2-2.3-3 2M515 575.6c-5.4 3-9.9 7.1-11.1 10.2-.5 1.3-1.3 2.1-1.8 1.7-.9-.5-11.9 8.5-13.3 11-.8 1.3 1.3 4.4 12.2 18.3 5.7 7.3 7.7 8.8 6.6 4.9-.3-1.2-.9-4.9-1.3-8.1-.4-4.4-.3-5.7.5-5.2.7.4 1.2 2.2 1.2 3.9.1 1.8.7 5 1.5 7.2s1.5 4.8 1.5 5.7c0 2.2.9 2.3 4 .1 4.7-3.2 17-13.4 17-14.1 0-.4-2.5-2.5-5.7-4.7-3.1-2.2-7.4-5.7-9.5-7.7s-5-4.6-6.5-5.7c-2-1.7-2.2-2.1-.8-2.1 1.8 0 3.8 1.4 13.3 9.2 8.2 6.9 8.5 6.7 4.8-3.9-2.4-7.1-3.9-12-5.6-19.1-.6-2.3-1.4-4.2-1.8-4.1-.4 0-2.7 1.2-5.2 2.5M757.5 575.7c-.5 2.5-2.5 9.4-7.1 24.2-2.1 6.7-1.8 7.8 1.1 5 4.2-4.1 16.9-13.9 18-13.9 1.5 0 .1 1.9-2.9 4.1-1.8 1.3-6.4 5.2-10.1 8.6-3.7 3.5-7.1 6.3-7.6 6.3-3.5 0 6.5 10.1 16.3 16.4 2.7 1.8 2.8 1.8 3.8-.9.5-1.4 1-3.5 1-4.5s.5-2.2 1-2.5c1.1-.7 1.3.4 1.1 4.5l-.2 2.5 2.3-2.6c1.3-1.4 3.2-3.8 4.3-5.3 6.4-8.9 8.7-11.6 9.7-11 .6.4.8.2.4-.4-.3-.6-.2-1.3.4-1.7.5-.3 1-1.5 1-2.5s.5-2 1.2-2.2c1.4-.5-8.2-9.7-12.8-12.1-1.9-1.1-3.4-2.4-3.4-2.9 0-1.6-9.3-10.3-10.7-10-.6.1-1.4-.2-1.8-.8-1.3-2.1-4.5-1-5 1.7M945.5 578.2c-.4 1.3-1.7 4.5-3 7.3-1.3 2.7-2.8 6.8-3.3 9-.6 2.2-3.1 9.8-5.6 17-4.7 13.2-5.4 16.5-3.6 16.5.9 0 1.4-1.5 1.1-3.3-.1-.5.3-.6.7-.3.5.3 2.5-2 4.5-5.2 3.2-5.2 4.6-9.9 4.7-16 0-1.3.4-2.1.9-1.8 1.1.7 2.1-2.8 2.1-7.5 0-1.9.5-4 1-4.5.9-.9 2.3-13.4 1.5-13.4-.2 0-.7 1-1 2.2M936.5 581.6c-1.4 1.4-3.3 3.7-4.2 5.2-2.2 3.5-7.3 9.9-14.5 18.5-3.2 3.7-5.8 7.3-5.8 7.9s.8 2.1 1.8 3.2c1.3 1.5 1.7 2.9 1.2 5.1l-.6 3-.8-3.3c-.4-1.7-1.2-3.2-1.6-3.2-1 0-2.7 5.7-4 13.4-.5 2.8-2.2 11.8-3.8 20.1-3.2 16.1-4.4 23-3.7 22.3.2-.2 3.1-4.2 6.4-8.9 3.3-4.6 7.2-10 8.6-11.9 3.3-4.4 4.1-7.6 2.7-11.4-.6-1.7-1.3-5.4-1.6-8.1l-.6-5 2.1 6.3c1.1 3.4 2.4 6.2 2.8 6.2.5 0 2-4.8 3.5-10.8 1.4-5.9 3.2-12.1 4-13.7.8-1.7 2.4-6.6 3.6-11 1.1-4.4 2.9-10.5 4-13.5 2.3-6.8 4-13 3.5-13-.2 0-1.6 1.2-3 2.6M343 583.5c1 1.2 1 1.5 0 1.5s-1 .3 0 1.5c.7.8.9 1.5.4 1.5-.4 0-.3.5.4 1.2s1.2 2.5 1.2 4.1 1.1 6.1 2.4 10c1.4 4 2.8 8.9 3.1 10.9.4 2.1 1.3 4.2 2.1 4.9.8.6 1.4 2.1 1.4 3.3s.8 4.7 1.7 7.7c2 6.3 2 6.5 2.2 8.1.2 2.1 3-2.6 3.1-5.2 0-2.7 1.6-5.8 2.4-4.9.3.2-.2 3.4-1 6.9-2.5 10.9-2.7 12.2-1.7 12.9.5.3 2.5 2.8 4.4 5.6 1.8 2.7 3.9 5.6 4.6 6.3s3.1 4.2 5.4 7.7c2.3 3.6 4.4 6.4 4.6 6.1.3-.3-4.3-25.3-7.7-41.6-.5-2.5-1.2-6.7-1.6-9.3-.7-5.1-2.1-5.7-4.1-1.6-1.2 2.3-1.3 2.3-1.3.2 0-1.2.8-3.5 1.7-5.1 1.7-2.9 1.7-3.1-1.2-7.3-1.7-2.3-6-7.6-9.8-11.8-3.7-4.2-8-9.3-9.5-11.3-1.5-2.1-3.1-3.7-3.6-3.8-.5 0-.3.7.4 1.5M337 588.3c0 1.5-.5 3.6-1.2 4.6-2.1 3.4.9 12.9 7.9 25.3 8.2 14.5 9.7 16.1 7.3 7.7-.9-3.5-3.4-11.1-5.4-16.9s-4.3-12.6-5.1-15.2-1.8-5.6-2.4-6.5c-.9-1.6-1-1.4-1.1 1M641.8 597.1c-.2 4.5 0 8.3.5 8.6.4.2.7 0 .7-.5s1.1-1.5 2.5-2.2 2.6-2.3 2.6-3.4c.1-1.9.2-1.9.6-.2s.6 1.6 1.7-.5c1.2-2.5 5.3-3.4 4.9-1.2-.2.7.4 1.3 1.2 1.3 1.2 0 1.5-1.2 1.4-5.3s-.3-4.7-.9-2.7c-.8 2.4-.8 2.4-.9.2-.1-2.1-.5-2.2-7-2.2h-6.9zM476.8 606.8c-3.1 2.6-8.8 7.2-12.7 10.2-3.9 2.9-7.1 5.6-7 6 0 .3 5.1 5.1 11.2 10.7 7.4 6.8 11.4 9.9 11.8 9 .6-1.1 1.9-13.6 3.4-33.5.3-3.9.2-7.2-.2-7.2-.5 0-3.3 2.2-6.5 4.8M796 604.2c0 4.9 2.2 38.4 2.6 39.7.3 1 1 .7 2.7-1 2.7-2.8 15.3-14.4 19.1-17.6l2.6-2.1-5.3-4.4c-2.8-2.5-8.9-7.2-13.4-10.6-7.5-5.6-8.3-6-8.3-4M485.6 607.2c-.3 2.4-1 10.1-1.6 17.3-.6 7.1-1.2 14.9-1.5 17.2-.2 2.4 0 4.3.4 4.3 1.1 0 16.6-9.4 20.7-12.5 1.9-1.4 3.4-3 3.4-3.4 0-.9-19.8-27.1-20.4-27.1-.2 0-.6 1.9-1 4.2M783.5 615.4c-4.8 6.3-9.3 12-10.1 12.7-2.5 2.1-1.5 3.4 5.7 7.9 3.9 2.5 9 5.7 11.2 7.2 4.1 2.7 6.7 3.5 6.7 2 0-.4-.7-9.3-1.5-19.7-.8-10.5-1.5-19.6-1.5-20.3 0-2.8-2.2-.6-10.5 10.2M879 608.6c0 .6-3 6.2-6.6 12.5-3.6 6.2-8.2 14.3-10.1 17.9-2 3.6-5.1 9.3-7 12.8-2 3.7-3.3 7.2-3 8.3.3 1.2 0 1.9-.9 1.9-1.7 0-1.7 2-.4 12.6.5 4.3 1.7 14 2.6 21.4 1.8 15.4 2.8 18.5 4 12.5 1-5 .9-4.5 2.1-7.5.6-1.4 2-5.1 3.1-8.2 1.2-3.1 3.8-9.1 5.8-13.4 2.1-4.2 3.7-9 3.7-10.5 0-1.6.4-2.9.8-2.9s1-3 1.4-6.8c.3-3.7 1.3-12.6 2-19.7 2.3-19.8 3.2-31 2.9-31.4-.2-.2-.4 0-.4.5M729.5 613.6c-1.6 1.4-6 4.5-9.7 7-5.4 3.6-6.8 5.1-6.8 7.1v2.5l4.8-2.8c2.6-1.5 5-3.2 5.4-3.8s.8-.8.8-.4 1.6-.1 3.6-1.2c3.6-2.1 5-3.1 8.5-6.3 1-.9 2.7-1.7 3.7-1.7 1.5-.1 1.5-.2-.2-1.5-2.9-2.2-6.7-1.8-10.1 1.1M401 615.9c0 4.2.7 11.4 3 30.6.5 4.4 1.2 10.2 1.5 12.9s.9 5.4 1.3 6c.3.6.8 2.6.9 4.5.1 1.8 1.7 6.6 3.6 10.5s5.5 12 8 18.1c3.7 8.9 4.6 10.5 5.1 8.5.9-4.3 3.6-27 4.2-36.6l.7-9.2-2.8.6c-1.9.3-2.6.1-2.1-.7.4-.6 1.4-1.1 2.2-1.1s1.4-.3 1.4-.6c0-.7-8.3-15.8-13.1-23.9-1.6-2.8-4.6-8.2-6.5-12-2-3.9-4-7.2-4.4-7.5s-1.2-1.4-1.8-2.5c-1-1.7-1.1-1.4-1.2 2.4M444.1 615.4c-4.2 10.6-10.9 35.2-9.9 36.2.3.2 2-2 3.8-4.9 1.9-2.8 5.2-8.1 7.5-11.7 6.8-10.5 6.8-10.6 4.8-13.7-1-1.6-2-3-2.3-3.3s-1.1-1.6-1.7-3l-1.1-2.5zM527 618.8c-8.9 7.1-12.9 11.3-12.3 12.8.3.8.9 1.4 1.3 1.4.5 0 3.9 2 7.7 4.5 3.7 2.5 9 5.2 11.7 6s5.9 2.1 7 2.8c5.2 3.4 10.6 2.6 10.6-1.4 0-2.4-6.2-13.2-11.5-20-2.3-3.1-4.8-6.5-5.4-7.6-1.8-3.4-3.4-3.2-9.1 1.5M744.1 616.8c-.7 1.6-2.2 3.9-3.5 5.3-3.1 3.3-15.6 21.7-15.6 22.9 0 1.3 3.5 3 6.3 3 6.7 0 33.7-13.9 33.7-17.4 0-.7-3.3-3.9-7.2-7-4-3.2-8-6.3-8.8-7-3.2-2.6-3.8-2.5-4.9.2M830.8 618.9c-1.6 2.2-2.8 4.3-2.8 4.8 0 2 16.8 29.8 17.6 29.1.5-.6-4.7-21.3-7.7-30.6-1.2-3.9-2.8-7.2-3.3-7.2-.6 0-2.3 1.8-3.8 3.9M943.7 620.8c-.3 1.5-2.8 11.7-5.6 22.7-5.4 21.2-6.2 26.3-3.4 21 .9-1.7 2-3.3 2.5-3.6s1-1 1-1.5c.1-.5.8-2.5 1.6-4.4 2.4-5.7 4.1-14.1 4.2-20.5.1-3.3.5-8.2.9-10.8.8-5-.3-7.7-1.2-2.9M733.5 622c-2.8 1.6-7.5 4.2-10.5 5.9-7.6 4.2-9.4 5.7-8.4 7.2 3.5 5.7 6.9 6.6 5.9 1.6-.5-2.5-.4-2.8.5-1.5.6 1 1 3 .8 4.5-.2 1.7.2 2.8.9 2.8 1.1 0 16.7-22.4 16.1-23.1-.2-.1-2.6 1-5.3 2.6M544 622.7c0 .9 2 4.8 4.4 8.7 2.5 3.9 4.8 8.3 5.1 9.9.4 1.5 1.1 2.7 1.6 2.7.4 0 3-2.2 5.7-5l4.9-4.9-2.1-1.9c-1.2-1.1-2.9-2.2-3.8-2.5-1-.4-4.2-2.1-7-4-7.1-4.5-8.8-5.1-8.8-3M936.7 625.2c-13.8 21.4-14.2 22.3-15 34.5 0 .7-.3 1-.7.8-.6-.4-6.3 22.3-7.5 29.5-.2 1.9-.8 5.3-1.1 7.5-.7 4-.7 4 1.4 2.2 1.1-1 2.6-3.3 3.3-5 .7-1.8 2.4-4.7 3.7-6.5 1.4-1.8 2.7-5.2 3-7.8.3-2.8.8-4.1 1.3-3.3s1.3-.7 2.2-4.2c5.1-19.1 7-26.7 9.1-36.9 1.3-6.3 2.7-12.3 3.1-13.3 1.2-2.9.1-1.9-2.8 2.5M341 623.6c0 1.1 3 15 6.4 30.3 3.6 16 6.1 23.8 9.6 30.1 1.6 3 4.4 8.3 6.1 11.7 3.5 7 6.4 10.3 5.5 6.2-.4-1.3-2-8.9-3.6-16.9-5.1-24.8-5.3-25.3-6.8-19.9-.8 2.9-1.1 3.1-1.7 1.5-.5-1.1-.3-2.7.4-3.9 2-3.2.4-15.4-2.5-19.3-1.3-1.7-2.4-3.5-2.4-4 0-.8-9.2-14.9-10.6-16.3-.2-.2-.4 0-.4.5M374.1 624.3c-.2 2.7 8.6 51.7 9.3 52.5.4.3 17.2-7.3 18.4-8.3 1.2-1.1-24-42.5-25.9-42.5-.4 0-1-.8-1.2-1.8-.4-1.6-.5-1.5-.6.1M902 628.2c-1.8 2.9-5.2 8.2-7.5 11.8-10 15.5-16.6 27.2-16.1 28.6.7 1.8 16.7 9.7 17.7 8.7.4-.5 2.3-9.6 4.3-20.3s4.2-22.8 5-26.8c.7-3.9 1-7.2.7-7.2-.4 0-2.2 2.4-4.1 5.2M333.8 626.2c-.5 3.4.3 8.2 1.2 6.8.4-.6.7 1 .7 3.7-.1 6.2.8 9.6 4.2 16.3 1.5 3 3.6 7.9 4.5 10.8 1 2.9 2 5.1 2.3 4.9.5-.6-5.7-29-8.2-37.3-1.8-6.2-4.2-8.8-4.7-5.2M812.3 636.2c-6.8 6-12.3 11.5-12.3 12.1 0 1.1 9.3 12.3 11.9 14.3 1.2.9 1.8.6 2.9-1.5.7-1.4 1.7-3 2.3-3.6 1.4-1.4 1.1.8-.5 3.9-.8 1.5-1.2 3.5-.9 4.4.6 2.5 7.6 12.5 9 12.9.6.3 2.9-1.2 5.1-3.1 2.2-2 4.2-3.6 4.5-3.6 1 0 11.7-10.8 11.7-11.8 0-.7-1-2.9-2.2-5-5.9-10-11.4-19.1-13.9-23l-2.7-4.2-1.8 5.7c-2.2 6.9-6.3 17.2-6.4 15.8 0-.6 1.1-4.6 2.5-8.9s2.5-8.6 2.5-9.5c0-1 .5-2.2 1.2-2.9.8-.8.8-1.5.3-2.1-.6-.6-5.6 3.2-13.2 10.1M454 626.9c0 .6.4 1.2.9 1.5s1.1 1.8 1.4 3.3c.4 2.4 1.5 6.7 4.3 17.8.2 1.1-.5.3-1.6-1.8-1.2-2.1-2.9-7-3.9-10.8-1-3.9-2.2-7.1-2.7-7.2-1-.2-17.9 25.6-18.7 28.7-.4 1.3 1.6 3.9 7.6 9.8 4.5 4.4 9.4 8.8 10.8 9.8l2.6 1.9 4.5-6.9c4.3-6.5 4.5-7.2 3.6-10.7-1.9-7.6-1.8-8.7.4-4.1 1.3 2.7 2.6 4.8 3 4.8.8 0 11.9-11.5 13.1-13.5.8-1.4-3.3-5.7-16.8-17.4-7-6-8.5-7-8.5-5.2M593.1 634.2c-.8 1.8-1.3 3.6-1.2 4 0 .5-.4.8-1 .8s-.9 1.4-.6 3.2c.3 2.7.8 3.2 3.4 3.5 1.7.2 3.4-.1 3.8-.7.4-.7 1.7-.1 3.7 1.5 1.6 1.4 3.4 2.5 3.9 2.5 2.7 0-1.1-14.5-4-15.3-2.4-.6-3.5.1-5.4 3.9-.9 1.7-2.3 3.6-3.1 4.3-1.3 1.1-1.6 1.1-1.6-.3 0-.9.4-1.6 1-1.6.5 0 1.2-1.1 1.6-2.4.3-1.4 1.2-2.7 2-3 1.8-.7 1.9-3.6.1-3.6-.7 0-1.9 1.5-2.6 3.2M676.1 634.4c-1.4 1.7-3.6 13.4-2.7 14.4.4.3 1.6.1 2.6-.6 1.1-.6 4.4-1.5 7.5-1.8 6.4-.8 7.3-1.6 4.8-4.1-1-1-3.1-3.5-4.6-5.6-2.9-3.9-5.6-4.7-7.6-2.3M500.5 639c-4.4 2.7-9.7 5.8-11.7 7-2.1 1.1-3.8 2.3-3.8 2.6 0 1 2.8 3.4 3.9 3.4.6 0 1.1.6 1.1 1.3 0 .8 1.1 1.9 2.5 2.5s2.5 1.6 2.5 2.2c0 .5.7 1 1.5 1s1.5.4 1.5 1c0 .5 1.4 1.7 3 2.5 3.5 1.8 3.4 2 5-7 .8-4.4 2.9-21.8 2.5-21.5 0 .1-3.6 2.3-8 5M511.5 636.3c-.3 1-2.4 14.1-4.1 25.9-.7 4.3-.7 4.3 3.2 2.4 7.6-3.7 10.8-4.9 23.3-8.9l13.4-4.3-5.4-2.3c-3-1.3-5.5-2.3-5.7-2.2-.1.1-4.8-2.2-10.5-5.2-12.7-6.6-13.7-7-14.2-5.4M760 638.6c-12.2 6.8-15.4 8.4-20.7 10-2.9.9-5.3 2.3-5.3 3 0 1.9-2 2.8-3.3 1.5-1.5-1.5-2.7-1.4-2.7.4 0 .7.8 1.9 1.8 2.4.9.6 1.2 1.1.5 1.1-.6 0-1.5-.5-1.8-1-.3-.6-2.2-1-4.1-1-4.4 0-4.4.7-.3 19.2 1.1 5 2.4 6.1 3.3 3 .3-.9.4-.1.2 1.9-.3 2 0 4.1.6 4.7.7.7.3 1.4-1.1 2.1-1.8 1-2.1 2.1-2.1 8.4 0 6.9.1 7.3 2.8 8.3 4 1.7 9.4 2.6 8.7 1.4-.7-1.1 2.3-6 3.6-6 1.4 0 1.1 2.2-.6 4.1-2.6 2.7.1 4.5 6.9 4.4 3.1-.1 5.6.2 5.6.7 0 .4.6.8 1.4.8s1.7-1.5 2-3.5c.4-1.9 1-3.5 1.4-3.5 1.3 0 3.3 1.7 3.1 2.6-.4 1.5 1.2 4.4 2.5 4.4 1.6 0 3.6-4.8 3.6-8.7 0-3-.3-3.3-4.2-4.3-2.4-.7-7.6-2.3-11.7-3.6-4.1-1.4-8-2.3-8.7-2s-1.6.1-2-.5c-.9-1.5 1.5-3.9 4-3.9 1.2 0 4.4-1.5 7.1-3.3 2.8-1.9 6.9-4.4 9.3-5.7 2.3-1.3 4.2-2.7 4.2-3.1 0-1 6-3.3 6.7-2.5 1.3 1.3-4.9 5.4-19.9 13.3-5.2 2.7-4.2 4 5 6.2 4.8 1.2 9.4 2.4 10.3 2.6 1.2.4 2-1.5 3.8-9.9 1.3-5.7 2-11.2 1.7-12.3-.9-2.7-9.5-6.4-33.6-14.6-4.4-1.5-4.5-1.5-1.2-1.6 3.5-.1 29.1 8.1 33 10.5 2.7 1.8 2.7 2.6.2-14.6-1.1-7.4-2-13.8-2-14.3 0-1.2-1.3-.8-8 2.9M771 639c0 5.7 2.9 24.3 4 25.4.5.5 1.4-.1 2.2-1.3.7-1.1 2-2.1 2.8-2.1s3.2-1.8 5.2-4c2.1-2.1 5.1-4.6 6.8-5.5 1.6-.8 3-1.7 3-2 0-.2-3.3-2.5-7.2-5.1-10.9-7-11.6-7.4-14.3-8.4-2.4-.9-2.5-.8-2.5 3M587.6 650.2c-1.2 5.8-2.8 19.5-2.5 21.3.3 1.4 1.2.6 3.8-3.8 1.9-3.1 3.7-5.5 3.9-5.3s-1 3.1-2.7 6.5c-1.6 3.3-2.6 6.3-2.2 6.5.8.5 20.3 4.6 22 4.6s1.3-7-1-17.9l-2.2-10.1-3.6-.6c-2-.3-5.5-1.2-7.9-2-5.8-1.9-7.1-1.8-7.6.8M688.5 648.5c-.5.1-4.2 1.2-8.1 2.4l-7.2 2.2-2.2 8.7c-2.6 10-3.4 15.6-2.7 17.6.5 1.2 1.6 1.1 7.4-.4 3.7-1 8.8-2 11.2-2.4 2.4-.3 4.6-.7 4.8-.9s-.4-2.1-1.3-4.3l-1.6-3.9 2.6 2.4 2.6 2.4v-2.6c0-3.1-1.9-17.5-2.6-20-.5-1.7-.9-1.8-2.9-1.2M583.9 649.4c-.3.3-2.6.9-5 1.2s-7.3 1.4-10.9 2.3c-7.3 2-6.8 1.1-9.9 17.8l-1.8 10.2 3.1-.5c1.7-.3 5.4-1 8.1-1.5 2.8-.5 6.6-1.1 8.5-1.4 4.7-.8 5.7-1.8 6.3-6.8.3-2.3 1.1-7.2 1.7-10.9 1.1-6.6 1.1-11.6-.1-10.4"/><path d="M694.2 653.1c.3 2.4 1.1 8.6 1.9 13.6l1.3 9.3 7.6 1.6c4.1.9 9.9 2.2 12.8 2.9 5.9 1.5 6.1 1.3 4.3-6.8-.6-2.3-1.7-7.6-2.6-11.8l-1.6-7.6-8-1.8c-4.4-.9-9-1.8-10.2-2-1.2-.1-3-.6-4.1-1-1.6-.7-1.8-.4-1.4 3.6M796 650.9c0 .5-.9 1.2-2 1.6-1 .3-5.4 3.9-9.6 8-6.2 5.9-7.5 7.7-6.6 8.8 1.3 1.6 17.7 12.7 18.7 12.7.3 0 1.6-1 2.9-2.3 1.3-1.2 4-3.7 6.1-5.6 5.8-5.4 6.2-7.6 2.1-12.5-4.5-5.4-10.3-11.6-11-11.6-.3 0-.6.4-.6.9M474.1 658.7l-7.1 7.8 8 7.8 7.9 7.9 9.2-6.3c5-3.4 9.3-6.8 9.6-7.5.8-2-16.3-17.4-19.3-17.4-.7 0-4.4 3.5-8.3 7.7M542 655.4c-3.6 1.3-10 3.8-14.3 5.5s-8.2 3.1-8.6 3.1c-.5 0-3.1.9-5.7 2.1l-4.8 2 2.9 2.4c1.7 1.3 3.4 2.4 3.8 2.5.4 0 3.3 1.7 6.4 3.7 9.7 6.5 12.7 8.2 14.4 8.3 2.3 0 4.6 2.8 2.8 3.3-.8.3-3 .9-4.9 1.5-1.9.5-6.2 1.8-9.5 2.7-12.4 3.5-13 4.1-10 9.9.8 1.5 1.5 3.5 1.5 4.2 0 1.8 2 1.7 4.3-.1 1.3-.9 1.7-2 1.2-3.6-.6-1.9-.4-2.1 1.4-1.6 1.1.3 2.4.1 2.7-.4 1-1.7 2.5-.9 1.9 1-.9 3 7.1 4.4 15 2.7 8.1-1.8 9.5-2.5 9.5-4.7 0-1 .5-1.9 1-1.9 1 0 1.4-9.8.4-12.3-.3-.9-1.5-1.3-3.2-1-2.6.3-2.6.3-.4-.6 2.7-1.3 2.7-1.2.1-5.6-2.7-4.5-1.5-6 1.6-2.1 1.2 1.5 2.5 2.4 2.8 1.9.7-1 2.5-11.2 3.4-18.3.5-4.3.4-4.4-1.1-2.5l-1.7 2 .3-2c.2-1.6-.2-1.9-2.1-1.7-1.3.1-3 1-3.7 2-1.2 1.6-1.3 1.5-1.4-.6 0-1.5.6-2.2 2-2.2 1.1 0 2-.5 2-1 0-1.5-2.9-1.1-10 1.4M362 655.7c0 5.5 11.4 54 13.1 55.7.5.6 1-.9 1.1-4 .2-6 .4-7.5 1.1-9.4.3-.8 1.1-4.7 1.7-8.7 1.3-8.4 1.3-8.6-8.8-23.3-7.5-10.9-8.2-11.8-8.2-10.3M915.8 657.7c-2.1 2.4-11.8 16.6-14.6 21.3-2.2 3.8-2.2 4.1-.8 9.7 1.9 7.4 2.5 10.5 3.3 17.7.6 5.6.7 5.7 1.9 3.3.8-1.4 2.1-6.1 2.9-10.4 2.4-12 3.3-15.9 6-27.8 3.6-15.5 3.6-15.5 3.2-15.5-.2 0-1.1.8-1.9 1.7M640.9 658.7c-.4 2.5.4 47.9.8 48.3.3.3.8-.1 1-.8.3-.6.8-1 1.2-.7.5.2 1.6-1.5 2.5-3.8 3.1-7.5 8-16.9 8.4-15.9.1.5-1.3 4.3-3.3 8.3-2 4.1-3.4 8.2-3.3 9.2.5 3.3 7.4-4.6 8.2-9.3.5-3.3-1.9-33.2-2.7-33.4-.1-.1-1.2-.7-2.4-1.4-2.5-1.3-10.2-1.7-10.4-.5M628.2 660.7c.2 1.2-.2 1.7-1.4 1.5s-1.8.4-1.8 1.5c0 1-.5 5.2-1 9.3-2.4 18.6-.7 27.9 5.7 30.9 1.5.7 4 1.9 5.5 2.6 2.6 1.3 2.8 1.2 3.3-.8.3-1.2.4-12.1.3-24.2l-.3-22-5.3-.3c-4.7-.3-5.3-.1-5 1.5M843.9 666.9c-2 2-6.6 6.1-10.2 9.1s-6.6 6.2-6.6 7c0 1.4 3.1 6 12.9 18.7 2.5 3.2 5.9 7.9 7.5 10.5 1.7 2.6 3.3 4.7 3.7 4.8 1.3 0 2.1-7.1 1.4-12.9-.3-3.1-1.3-10.6-2.1-16.6-.8-6.1-1.8-13.9-2.1-17.5-.4-3.6-.7-6.5-.8-6.6 0-.1-1.7 1.5-3.7 3.5M431.6 667.2c-.3 1.3-1 6.3-1.6 11.3-.5 4.9-1.7 14.6-2.5 21.3-1.8 14.8-1.8 14.2-.3 14.2.6 0 .9-.2.6-.5s2.3-3.3 5.8-6.7c3.5-3.3 6.3-6.3 6.2-6.7-.3-2.7.5-4.1 2.3-4.1 1.1 0 1.8-.4 1.4-.9-.3-.5.5-1.8 1.8-2.8 2.9-2.3 6.7-7.7 6.7-9.5 0-1.5-17.4-17.8-19-17.8-.5 0-1.2 1-1.4 2.2M460.7 675.1l-4.5 6.3 6.6 7.3c3.6 4 6.8 7.3 7.2 7.3.6 0 5.6-5.1 8-8.3 1.2-1.6 1.2-2-.1-2.9-1.1-.8-1.1-.9.4-.4 3.8 1.2 2.2-1-8-10.7l-5.1-4.9zM807.5 675.4c-9.4 9.8-9.1 8.7-3.9 15 2.5 3.1 4.8 5.6 5.2 5.6.9 0 5.8-5.5 9-9.9 2-2.7 2.2-3.4 1-4.4-.8-.7-2-2.6-2.7-4.2l-1.2-3 2.6 3c1.5 1.6 3.1 3.7 3.5 4.5.5.8 1.1 1.2 1.4.9.6-.6-5.3-10-7.8-12.6-.8-.8-2.6.4-7.1 5.1M401.6 672.5c-.3.8-1.2 1.2-2 .9-1.3-.5-6.5 1.6-12.8 5.1-1.8 1-2.5 5-1 5.7.4.1 2 3.4 3.6 7.1 1.6 3.8 4 8.5 5.4 10.5s4 6.7 5.7 10.4c1.8 3.7 3.5 6.4 3.9 6.1.8-.8.8-11.7-.1-31.6-.6-14.5-1.2-18-2.7-14.2M499.5 673.6c-2.2 1.5-4.4 3.2-5 3.8-.5.6-2.7 2.2-4.7 3.6-2.1 1.4-3.8 2.8-3.8 3.1s2.6 2.8 5.7 5.5 6.1 5.4 6.7 6c1.1 1.2 8.3 0 9.9-1.6.5-.4.4-3.3-.2-6.4s-1.6-8.1-2.2-11.1-1.4-5.5-1.7-5.5c-.4 0-2.5 1.2-4.7 2.6"/><path d="M507.9 671.8c-.5 3.2 3.1 20.8 4.2 20.7.4-.1 16-4.3 18.7-5.1 1.9-.5 1.4-1.8-1.6-3.5-1.5-.9-6.9-4.2-11.9-7.2-5.1-3.1-9.3-5.3-9.4-4.9M773.7 674.2c-.5 3.3-2.3 13.4-3.2 17.4-.4 1.7.4 2.5 3.5 3.9 2.3 1 4.7 1.8 5.5 1.8s1.5.4 1.5.9 1.2 1.3 2.8 1.9c1.5.5 4.4 1.9 6.5 3 5.3 2.7 6.7 2.4 11.7-2.1l4.4-4-5.2-5.2-5.2-5.2-2 2.2c-1.1 1.2-2.4 2.2-2.9 2.2-.4 0-2.1 1.1-3.7 2.5-3 2.6-5.4 3.2-5.4 1.5 0-.6 1-1.4 2.3-1.9 1.2-.5 3.9-2.7 6-4.8l3.7-3.9-4.7-3.4c-2.7-1.9-5-3.6-5.3-4-.9-.9-8.6-6-9.2-6-.3 0-.8 1.5-1.1 3.2M875.7 682.6c-.4 5.9-.7 16.6-.7 23.8v13.1l3.3-6.2c14-26.9 15.7-30.6 15.2-32.2-.5-1.7-10.3-7.2-15.1-8.6-2-.5-2.1-.1-2.7 10.1M406.4 679.2c.3 1.3.5 11 .5 21.6l.1 19.3 7.5-.2c7.2-.2 7.4-.3 8-2.9.4-1.8-.3-4.7-2-8.6-1.5-3.2-4.2-9.9-6.2-14.9-5.3-13.6-9-20.2-7.9-14.3M691.8 677.6c-.4.3-2.6 1-5 1.5-2.4.6-7.3 1.9-11 3l-6.8 2.1.6 3.6c.3 2.1 1.2 4.1 2 4.5s1.4 1.8 1.4 3c.1 1.9.2 2 1.3.6.7-.9 1.7-1.8 2.3-2 .7-.2 4.1-3.2 7.7-6.6 3.6-3.3 7.4-6.6 8.4-7.1 1.3-.8 1.5-1.4.7-2.2-.6-.5-1.3-.8-1.6-.4M585.5 679.8c-.9 1.4-1.1 5.6-.6 10.9 0 .7.9 1.3 1.9 1.3 2.6 0 9.4 3.5 9 4.6-.2.5.6 1 1.6 1.2 1.9.4 1.9.4.1-2.4-3.5-5.5-5-7.3-6-7.4-1.2-.1-5.8-7-5.1-7.7.3-.3 4.3 3.4 8.9 8.1s8.9 8.6 9.5 8.6c1.6 0 2.3-3.1 1.1-4.7-.7-.7-.9-1.6-.5-2 .3-.3.6 0 .6.8s.9-.1 2-1.9c2.8-4.6 1.8-5.5-9.3-8.2-5.1-1.2-9.9-2.3-10.7-2.6-.8-.2-2 .4-2.5 1.4M699 679.5c0 1.6 7.3 12.6 9.7 14.6 2.7 2.2 4.6 2.9 11.7 4.2 1.1.2 3.4-12.8 2.4-13.8-.3-.3-1.4-.7-2.4-.9-1.1-.2-4.8-1.2-8.4-2.1-12.1-3.2-13-3.4-13-2M573.3 680.4c-2.3.8-7.1 1.9-10.7 2.6l-6.6 1.2v4.8c0 2.7.5 6.1 1 7.6 1 2.5 1.3 2.6 6.3 2 6.1-.8 7.8-2.4 13.3-12.9 3.8-7.2 3.6-7.4-3.3-5.3M870.4 682.5c-4.9 9-8.2 18.4-11.5 32-.6 2.2-1.5 4.3-2.2 4.7s2.5.8 6.9.8h8.2l.7-15.3c.4-8.3.5-17.7.3-20.7l-.3-5.5zM452.7 690.4c-1.6 3-3.3 7-3.7 8.8-.5 1.8-1.6 5.8-2.5 8.8s-1.9 6.6-2.2 8c-.4 2.2-.3 2.2 1.6-.7 2.5-3.9 3.5-4.2 2.9-.8-.6 2.9.4 3.2 2.3.9s2-4.6.2-5.9c-2-1.5-2-8.5-.1-9.6 2.1-1.3 2.9.4 2.9 6.4.1 3.7.5 5.7 1.3 5.7 2.1 0 11.6-11.3 11.6-13.7 0-.4-2.6-3.6-5.8-7.1l-5.7-6.2zM821 688a920 920 0 0 1-6.3 6.7l-3.9 4.1 2.8 4.3c1.6 2.4 3.9 5.7 5.1 7.2 1.3 1.6 2.3 3.9 2.3 5.3 0 2.3-1.1 2.8-5.7 2.7-.7-.1-1.3.3-1.3.8s2.7.9 6 .9c5.9 0 5.9 0 5-2.4-.5-1.4-1.5-3.4-2.2-4.5-1-1.7-1-2.4 0-3.9.7-.9 2-3.3 2.8-5.2.9-1.9 2.1-3.8 2.6-4.1 1-.7-2.6-13.5-4-14.2-.4-.2-1.8.8-3.2 2.3M477.2 691.9l-4.2 5 4.5 4.5 4.4 4.5 7-3.7c3.9-2 7.1-4 7.1-4.4 0-1-12-10.8-13.3-10.8-.7 0-3.1 2.2-5.5 4.9M380 694.3c-.7 2.3-1.4 7.1-1.7 10.7-.2 3.6-.5 8.4-.7 10.8l-.4 4.2h4.9c4.7 0 4.8-.1 4.4-2.8-.5-2.6-2-13.1-3.2-22-.8-5.7-1.7-6-3.3-.9M385.5 693.2c1.1 4.9 3.4 25.2 2.9 26-.3.4 2.4.8 6 .8s6.6-.1 6.6-.3c0-.1-1.9-3.9-4.3-8.3-10.6-20.5-12.4-23.5-11.2-18.2M896.1 698.2c-.6 4-1.6 9.7-2.1 12.7-1.7 9.1-1.7 9.1 4 9.1h5v-5.4c0-8.2-3.2-23.6-4.9-23.6-.5 0-1.4 3.3-2 7.2M891.4 694.3c-.6 1.2-3.8 7.5-7.1 14l-6.1 11.8 6.1-.3 6.2-.3 1.1-8.5c2.4-17.5 2.4-22.1-.2-16.7M831.1 694.2c-.1.4 1 3.7 2.3 7.5 1.4 3.7 3 9.4 3.7 12.5l1.4 5.8h5.2c8.3 0 7.9-1.1-10.2-23.5-1.3-1.7-2.4-2.7-2.4-2.3M500.5 700.4c-7.1 2.5-14.7 6.7-15.2 8.1-.2.6 1.1 2.1 2.8 3.4 2.6 1.9 4.4 2.3 10.3 2.4 7.4 0 14.2-2.1 15.2-4.7.8-2.1-3.8-11.6-5.6-11.5-.8.1-4.2 1.1-7.5 2.3M767.7 703.9c-1.8 5.7-1.6 8.8.3 7.6.5-.3 2 .1 3.4 1 1.3.9 4.1 1.7 6.2 1.9 6.4.5 7 .8 4.4 1.5-1.8.5-.1 1 5.9 1.5 6.5.6 8.6.5 9.2-.6 1.1-1.7 1.1-4.8 0-4.8-.5 0-2.4-1.4-4.2-3.1-1.9-1.8-5-3.8-6.9-4.6s-4.4-1.8-5.5-2.3c-3.6-1.6-9.7-4-10.4-4-.3 0-1.4 2.7-2.4 5.9M443.1 699.5c-.1.6-1.3 2.5-2.8 4.2-1.6 1.7-4.1 4.8-5.8 6.7-1.6 2-3.9 3.9-4.9 4.2-1.9.6-1.9.7-.1 1.7 1.8.9 1.8 1-.1 2.4-1.7 1.2-1.2 1.4 4.6 1.1l6.5-.3 2.2-8.3c1.5-5.7 1.9-9.1 1.3-10.5-.5-1.2-.9-1.7-.9-1.2M577.5 701.2c-2.2.5-7.1 1-10.9 1.1s-7.1.7-7.3 1.3c-.4 1.2 5.9 4.4 8.7 4.4 1.3 0 2-.7 2-2 0-1.1.5-2 1-2 1.3 0 1.3 1.6 0 4-1.4 2.7 1.8 4.4 5.5 3 3.3-1.3 4.8-1.3 4 0-.3.5-1.5 1-2.5 1s-2.1.8-2.4 1.8c-.8 2.3-4.6 4.8-4.6 2.9 0-2.2-3.1-4.4-8.4-5.8-3.4-1-5-2-5.2-3.2-.4-2.6-.9-3-3.3-2.2-1.2.3-2.4 1.7-2.7 3s-1.2 2.6-2 2.9c-1.7.7-1.9 5.7-.2 7.4 1.3 1.3 8.8 1.7 8.8.4 0-.4 1.8-.7 4-.7s4 .3 4 .7c0 .5 7 .8 15.5.8h15.4l1.7-3.5c.9-1.9 2-3.3 2.4-3 .9.6 2-1.9 2-4.5 0-1.6-.4-1.6-5.5-.5-4.7 1.1-5.5 1.1-5.5-.1 0-.8.4-1.4.9-1.4s2.2-.5 3.7-1c2.5-1 2.6-1.2 1.1-2.7-1.9-1.9-10.7-3.5-12.4-2.2-.7.6-.8 2-.4 3.7.5 2 1.5 2.8 3.4 3 1.5.2 2.7.7 2.7 1.2 0 1.3-3.2 2.8-4.8 2.3-.7-.3-2 .1-2.9.8-1.4 1.2-1.5.8-.8-4.8.4-3.3.3-6.3-.2-6.5-.4-.3-2.6-.1-4.8.4M684.6 702.1c-3.2.5-6.1 1.1-6.3 1.3-1.1 1.1 1.1 2.7 5.2 3.7 6.4 1.6 4.5 3.1-3.1 2.6l-6.4-.5v10.9l9.6-.3 9.7-.3.3-9.3c.3-10.4 1.2-9.6-9-8.1M611.8 703.2c-.8.4-.2 1.1 1.5 1.9 1.5.7 2.7 1.6 2.7 2 0 1 4.1 4.9 5.2 4.9.4 0 .8-.7.8-1.5 0-2.1 1.7-1.9 2.5.2.3 1 2.1 3.5 4 5.5 2.6 2.8 4.3 3.8 6.6 3.8 2.7 0 3-.3 2.7-2.5-.2-1.4-.6-2.4-.9-2.3-1 .5-4.1-2.5-4.9-4.8-.5-1.1-3-3.5-5.5-5.2-3.8-2.5-5.7-3.1-9.2-3-2.4.2-4.9.6-5.5 1M721 706.7c0 .5-1.7 1.8-3.7 2.9-5 2.5-7.4 4.5-6.7 5.5.8 1.4-.3 1.1-3.7-1-3.1-1.9-3.1-1.9-.8-2.3 1.3-.2-.5-.4-4.1-.3l-6.5.1-.3 4.2-.3 4.2h9.8c6.7 0 9.3-.3 8.3-1-1.2-.8-.9-1 1.1-1 1.5 0 2.9-.6 3.2-1.4.4-.9 1.4-1.2 2.6-.9s2.1.1 2.1-.6c0-.6 1.1-1.1 2.5-1.1s3.6-.9 4.7-2c2-1.8 2-2.2.7-3.5-1.8-1.8-8.9-3.2-8.9-1.8"/></svg>