<svg xmlns="http://www.w3.org/2000/svg" width="1706.667" height="960" viewBox="0 0 1280 720"><path d="M0 7v7l3.8 1.9c2 1 4 1.8 4.4 1.7.9-.2 8.4 4.4 12.2 7.5 6.2 5 9.9 6.5 16.6 6.8 5.8.2 12.7 1.7 14 3.1.3.3 1.8 1.1 3.4 1.8 2.8 1.2 2.8 1.2 2.3-1.5-.5-2.5 1.3-5.2 3.4-5.3 1.6 0 1.8 3.4.4 6-2.2 4.2-1.9 7.7.8 9.1 1.2.7 2.8 2 3.4 3 1.2 1.6 3.2 2.7 13.5 7.4 2 .9 4.9 1.5 6.4 1.3 2.1-.2 3.8.6 6.4 2.9 1.9 1.8 4.2 3.3 5.1 3.3.8 0 3 1.2 4.7 2.7 1.7 1.6 5 4.1 7.2 5.7 4.4 3 6 5.9 6 10.8 0 2.4-.3 2.9-1.6 2.4-.9-.3-5.6-.7-10.5-.7l-8.9-.1-2.8-3.4c-1.5-1.9-3.6-3.4-4.8-3.4-1.6 0-2.3-.8-2.8-3-.3-1.7-1.4-3.3-2.3-3.7-1-.3-4.1-2.3-6.9-4.4-2.7-2.1-6.6-4.5-8.5-5.3-2-.8-4.7-2.6-6-4-2.1-2.3-3.2-2.6-9.4-2.6h-7.1L36 47.5c-3.6-3.6-7.6-6.7-9.2-7-1.5-.4-2.8-1.3-2.8-2.1s-.5-1.4-1-1.4c-.6 0-2.2-1.1-3.6-2.5-1.3-1.3-4.2-3-6.4-3.6-2.2-.7-4-1.6-4-2.1s-.5-.6-1-.3c-.6.4-2.6-.3-4.5-1.5L0 24.8v30.1c0 23.3.3 30.3 1.3 30.6.6.2 3.3.6 6 1 2.6.3 4.5 1 4.2 1.5-.8 1.2 6.1 3 11.7 3 3.6 0 5-.5 6.1-2 1.4-2 1.5-2 2.6.8.9 2.1 2.3 3.3 5 4.1 5 1.4 4.8 1.5 5.5-1.5.6-2.3 1-2.5 3.9-1.8 1.8.3 6.5 2.4 10.5 4.5 5.3 2.8 8.6 3.9 11.7 3.9 4.2 0 4.4.2 4.9 3.2.3 1.8.5 5 .4 7.2-.2 3.2.3 4.3 3 6.7 1.8 1.6 4.3 2.9 5.5 2.9 2.2 0 9.7 6.3 9.7 8.2 0 .5-1.4 2.3-3 4-2.8 2.8-3.6 3-7.8 2.5-2.5-.3-4.8-1-5-1.6S75 131 74 131c-2 0-22.1-9.5-23-10.9-1-1.5-4.5-2.8-9.3-3.5-5.6-.9-10.9-2.9-12.6-4.9-1.3-1.7-12.1-7.2-13.4-6.9-1.4.4-8.2-3.6-11.4-6.7C2.5 96.4.9 95 .6 95c-.4 0-.6 9.3-.6 20.6 0 20.1.1 20.6 2.3 22.5 2.9 2.7 8.1 4.9 11 4.9 3.3 0 7.4 3.4 8 6.7.3 1.6.9 4 1.3 5.5.6 2.8.6 2.8-4.3 2.8-2.9 0-7.6-1-11.3-2.5C3.5 154.1.5 153 .3 153S0 190.1 0 235.5V318h14.1c12.3 0 14.4-.2 15.5-1.7.7-1 1.4-2.4 1.4-3.1s.7-2 1.5-2.8c.8-.9 1.5-2.6 1.5-3.8 0-2.1 2.7-5.6 4.3-5.6.3 0 1.5 2 2.6 4.5s2.5 4.5 3.1 4.5 1.5 1.1 2 2.4c.8 2.3 1.2 2.4 4.2 1.5 1.8-.5 3.4-.9 3.5-.9.2 0 .2-.3.2-.8-.4-2.3.5-3.5 3.7-4.8 2-.8 3.8-2.4 4.1-3.4.5-1.9 2.2-3 5.6-3.6 1.5-.3 1.6.2 1.1 3.9-.4 2.3-1 4.6-1.5 5.1-1.2 1.4-1.1 4.3.2 5.1.5.4 3.7.4 7 0 5-.6 6.2-1.1 6.9-3 .5-1.3 1.5-2.5 2.2-2.8.8-.3.5-.6-.7-.6-1.8-.1-1.8-.2-.2-1.8 1.4-1.4 2.1-1.5 3.5-.6.9.6 1.6 1.7 1.4 2.3-.2 1 .9 1.1 4.2.7 2.6-.4 4.6-.2 4.8.4s4.6.9 11.3.7c9.4-.3 10.4-.4 6.7-1.2l-4.4-.9 3.4-2.1c1.8-1.1 3.5-2.4 3.6-2.8.2-.5 1-.8 1.8-.8s1.4-.4 1.4-1c0-.5 1.1-1.2 2.4-1.6 1.3-.3 2.6-1.4 2.9-2.5.4-1.6 1.1-1.8 3.1-1.3 3.9.9 7.6-.3 7.6-2.6 0-1.4.9-2.1 3.8-2.6 4.4-.8 6.2-2 6.2-4.4 0-1 .7-2.3 1.5-3s1.6-2.4 1.6-3.9c.1-1.8.3-2.1.6-.8.4 1.6.7 1.5 2-.9.8-1.6 1.2-3.6 1-4.6-.4-1.4 0-1.6 2.4-1.1 1.8.3 2.9.1 2.9-.6 0-.6-.4-1.1-1-1.1-.5 0-1-.5-1-1.1s1-.9 2.3-.7c2 .4 2.2.1 1.9-2.1-.3-2-1.7-3.2-5.5-5.1-2.7-1.4-5.2-3.3-5.5-4.2-.2-1-.8-1.6-1.2-1.3s-1-.2-1.3-.9c-.3-.8-2.7-1.8-5.4-2.2-2.6-.3-5.2-1-5.8-1.3-.5-.4-2.8-.9-4.9-1-5-.4-8.5-2.6-9.2-6-.3-1.4-1-3.8-1.5-5.2-.7-1.9-.6-3.7.6-7 1-2.4 1.8-8.3 2-13.3.3-7.4.7-9.1 2.5-10.8 1.6-1.5 2.4-1.7 3.5-.8.9.7 1.5.8 2 .1.3-.6 2.1-1.8 4-2.7 3.4-1.6 3.5-1.9 3.5-7 0-3-.4-5.4-1-5.4-1.9 0-1-2.1 1.2-2.9 2.8-1 7.8.6 7.8 2.5 0 .8-1.1 3.7-2.5 6.4s-2.5 6-2.5 7.4c0 1.3-.5 2.6-1.1 2.8-1.7.6.7 4.8 2.6 4.8 1 0 1.5 1.1 1.5 3.4 0 2.6-.7 3.9-3 5.7-1.6 1.3-3 3-3 3.6 0 .7-.4 1.3-1 1.3-.5 0-1.9 2-3 4.5-2 4.3-2 4.6-.3 7.2 2.9 4.7 4.7 6 9.8 6.8 11.1 1.6 19.5-.5 19.5-5.1 0-1.9.5-2.4 2.5-2.4 1.9 0 2.6.7 3.1 2.7 1.2 5.2 5.2 7.9 12.2 8.6 4.4.3 6.6.1 7.5-.8.7-.7 2.3-1.6 3.5-1.9 1.2-.4 2.2-1.2 2.2-1.7s.7-.9 1.5-.9 1.5-.9 1.5-2c0-1.3-.7-2-2-2-1.1 0-2-.6-2-1.4 0-2.5 1.2-4.6 2.6-4.6.8 0 1.4-.4 1.4-.9 0-1.5 5.9-3.4 9.3-2.8 5 .8 8.7-.2 8.7-2.4 0-1.1-.7-1.9-1.5-1.9-.9 0-1.5-.9-1.5-2.5 0-1.4.6-2.5 1.3-2.5.8 0 .7-.4-.3-1s-1.1-1-.2-1c.6 0 1.2-.5 1.2-1.2 0-.6.6-1.9 1.4-2.7.7-.9 2.6-4.1 4.2-7.1 1.5-3 2.9-5.6 3-5.8s1.1.1 2.1.7c1.5.8 2.2.6 3.3-.9.8-1 1.8-1.6 2.3-1.3q.9.45.3-.6c-1-1.6.3-5.1 2-5.1.8 0 1.4-.5 1.4-1 0-1.5 5-1.2 5.1.2 0 .7.5.1 1.1-1.4.8-2.3 1.3-2.6 2.8-1.8 1.6.9 1.9.6 2.2-2.1.3-2.9.6-3.1 4.8-3.4 2.5-.2 6-1.1 7.7-2 1.8-.9 4.3-1.7 5.5-1.8 2.4-.1 5-2 4.7-3.4-.4-1.8 1.4-4.1 2.7-3.6.8.3 1.4-.1 1.4-1 0-.8.4-1.7.9-1.9 1.3-.5 2.4-26 1.2-29-.7-1.8-.6-4.2.4-7.9.7-3 1.8-11.7 2.4-19.4.7-7.7 1.7-17.5 2.3-21.8.7-4.8.8-8.1.2-8.7-.5-.5-2.6-1-4.7-1.2-2.9-.2-3.9-.7-4.2-2.3-.6-2.2-1.3-6.5-1.4-7.9-.2-1.4-22.3-22.7-26.4-25.3-6.5-4.1-7.3-10.9-1.6-13.8 2.9-1.6 3.2-1.5 8.1 1.5 2.8 1.7 6.1 4.4 7.4 5.9 1.2 1.5 5 4.2 8.3 6 3.4 1.8 6.5 4 7.1 5 .5 1.1 3.2 3.5 5.9 5.4 4.3 3.1 5.1 3.4 5.5 1.9.2-.9 1.7-7.1 3.1-13.7 1.5-6.6 4.5-19.2 6.6-28 2.1-8.9 3.9-16.6 3.9-17.2 0-.9-30-1.2-118.5-1.3C80.3 0 60 .2 60 1.3c0 1.2 4.7 6.1 6 6.2.3 0 1.6.8 3 1.7 1.4.8 3.6 1.8 5 2.2 1.4.3 4.2 2.1 6.3 4.1 2.1 1.9 4.5 3.5 5.3 3.5s1.4.4 1.4 1c0 .5 1.2 1.2 2.8 1.6 5.7 1.2 6.3 1.6 7.6 4.8 1.1 2.7 2.2 3.5 5.9 4.5 2.5.6 5.4 1.1 6.4 1.1 1.1 0 3.9 2 6.3 4.5s5.2 4.5 6.2 4.5c2.5 0 9.7 4.7 10.5 6.8.9 2.4 3.4 4.1 6 4.2 1.2 0 2.5.4 2.8 1 .3.5 1.4 1 2.4 1 2 0 6.1 4 6.1 6 0 .7-1.1 2.8-2.5 4.6-3.2 4.1-4.2 4-19.1-3.1-6.3-3-11.7-5.5-11.9-5.5-.3 0-2.5-1.6-5.1-3.5-6.3-4.8-11.5-4.8-14.2 0-1 1.7-1.1 1.8-1.2.2 0-.9-.7-1.7-1.5-1.7s-1.5.4-1.5 1c0 .5-.7 1-1.5 1s-1.5.7-1.5 1.5c0 1.2-.3 1.2-2-.2-1.3-1.2-1.8-2.4-1.3-4.1.7-2.9-1.4-7-4.1-7.8-1.1-.4-2.9-1.7-3.9-3-1.7-2.2-13.7-9-13.7-7.8 0 .7-1.6-1.1-6.9-7.4-2.4-2.9-6.7-6.8-9.5-8.7-2.9-1.9-5.8-4.5-6.5-5.8C40.6 6.8 36 4 32.8 4c-1.2 0-3.4-.9-4.8-2-2.2-1.7-4.1-2-15.2-2H0zm227.7 77.4c2 2 3.3 3.6 2.9 3.6s1.5 1.8 4.2 4c4.7 3.6 5.1 4.3 5.7 9.4.5 4.1.3 6.3-.9 8.7-.9 1.8-1.6 4.8-1.6 6.9 0 4-4.3 13.5-6.5 14.4-.8.3-1.5 1.5-1.5 2.6 0 2.7-3.6 4-11 4-5.5 0-5.9.2-6.8 2.7-.6 1.6-1.1 2.2-1.1 1.5-.1-.7-.6-1-1.2-.6-1.5.9-9-1.6-11.2-3.7-.9-1-3.6-2.3-5.8-2.9-2.3-.6-5.2-2.2-6.5-3.5-1.2-1.2-2.6-2-3-1.6-.4.3-.4-1.9-.1-5 .6-6 5.4-14.3 8.9-15.5 1-.3 1.9-1.2 1.9-2 .1-.8.2-1.7.3-2.2.1-.4.6-2.2 1-4 .4-1.7 1.1-3.2 1.6-3.2s1.2-.9 1.5-2c.4-1.1 1-1.8 1.4-1.6.4.3 4.3-3 8.6-7.3 7.7-7.6 8-7.7 11.7-7.1 2.5.5 5.2 2 7.5 4.4M148.2 146c2.9 1.1 6 2 6.9 2 .8 0 3.9 1.1 6.8 2.5 10.4 5.1 22.9 8.1 29.6 7.2 5.3-.8 8.5.1 8.5 2.3 0 .9.9 2.9 2 4.3s2 3 2 3.5.7 1.5 1.5 2.2 1.5 2.4 1.5 3.7c0 3.3-3 8.3-5.1 8.3-2.8 0-8.1-2.2-12.5-5.2-2.3-1.5-5.6-3.1-7.3-3.4-1.8-.4-2.9-.9-2.7-1.2.3-.3-2.5-1.5-6.2-2.9-6.4-2.2-6.9-2.3-10.3-.7-3 1.3-4.1 1.4-6 .4-4.2-2.2-5.9-4.2-5.9-7 0-2.2-.9-3.1-5.9-5.4-4.7-2.3-6-3.5-6.8-6.1-.9-2.7-.7-3.6.5-4.9 2.1-2.1 3.1-2 9.4.4m-105.7 6.4c3.3 1.3 8 3 10.5 3.6 2.5.7 8.4 2.6 13.2 4.2 4.8 1.5 9.4 2.8 10.2 2.8 1.8 0 9.7 3.9 11.1 5.5.6.7 2.9 1.8 5.3 2.5 2.4.8 4.8 2.2 5.3 3.2 1.5 2.8-.7 8.7-3.8 9.9-3 1.1-11.6 1.2-12.9.1-1.7-1.5-14.8-6.9-25.9-10.7-6-2.1-11.5-4.1-12.1-4.6s-3.4-1.6-6.3-2.5c-7.1-2.1-10.1-5.3-9.5-10.1.3-2.1.7-4.4 1-5.1.6-2 7.4-1.4 13.9 1.2m34.8 135.7c2.1 4.6 1 5.9-4.7 6.1-5.6.1-9.6-2.9-9.6-7.3 0-2.3.5-2.9 3.2-3.4 4.3-1 6.8-2.6 6.8-4.5.1-.8.7.1 1.4 2s2 5.1 2.9 7.1"/><path d="M212 97.3c-2.1 1.1-2.5 1.9-2.2 5.2.5 6.1-.4 8.3-3.1 7.8-1.4-.3-2.9.2-3.7 1.2-1.3 1.5-1 2.2 2.7 5.6 6 5.6 10 5.5 13.8-.3 1.5-2.3 3-6.2 3.3-8.6.4-4 .2-4.7-3.4-8.3-4.3-4.4-4-4.3-7.4-2.6M322.3.7c-.8.3-1.1 1.5-.7 3.1.4 2 .3 2.3-.5 1.2-1.1-1.6-1.1-1.5-5.3 10-1.1 3-2.9 7.5-4 9.9-1.1 2.5-1.7 5.4-1.4 6.7.3 1.2.2 2.6-.4 2.9-1.2.7-1.4 19.5-.2 19.5.4 0 1.3-1.5 2-3.3 1.4-3.9 1.7-12 .3-9.8-.6.9-1.1 1-1.5.2-.4-.6 0-1.3.8-1.6.9-.3 2.3-.7 3.2-1s1.4-1.1 1.1-1.9.1-2.2.8-3.3c2.5-3.6 5.5-13.7 5.5-18.6 0-4.4.2-4.8 1.6-3.6s1.5.7.9-4.6c-.9-6.9-.6-6.4-2.2-5.8M332.2 5.3c-1.3 2.8-2.8 6-3.3 6.9-1.3 2.6-1.1 5.1.8 7.8 1.6 2.2 1.6 2.3 0 1.7-1.4-.5-1.7 0-1.7 2.8 0 1.9.2 3.5.4 3.5s3.2-4.8 6.6-10.8c3.5-5.9 7.1-12.2 8.2-14l2-3.2h-10.7zM351.9 8.7c.1 4.9.7 8.9 1.1 9.1.5.2.6 4.7.3 10l-.6 9.7 5.6-6c6-6.4 7.8-5.9 2.6.7-1.7 2.1-2.9 4.1-2.7 4.4 1.1 1 18.2-17.4 20.6-22.1.6-1.2.8-4.7.5-8.3l-.6-6.2h-27.2zM398.3 1.4c-.4.7-4.1 4.2-8.1 7.6l-7.4 6.3.7 12.1c.7 12.7 2.1 25.5 2.7 26.2.6.5 8.9-2.7 19.9-7.9 5.3-2.4 10.5-4.8 11.6-5.1 1.2-.4 2.3-1.2 2.5-1.9.4-1.1-2.8-31.4-3.8-36.5-.4-2.1-.9-2.2-8.9-2.2-6 0-8.6.4-9.2 1.4M419.3 4.2c.4 2.4 1.4 10.6 2.3 18.3s2.1 14.3 2.7 14.7c1.2.7 4.6.3 17.7-2.3 5.2-1 11.9-2.1 14.8-2.4s6.5-1 7.9-1.6c2.2-.8 2.4-1.4 2-4.2-.4-1.7-1.2-8.5-1.8-15L463.6 0h-44.9zM467.8 12.7c2.1 19.8.6 17.7 12.5 16.9 5.6-.3 16.7-.9 24.6-1.2l14.3-.7-.6-9.1c-.4-5-1-11.2-1.3-13.9l-.6-4.7h-50.3zM519.3 2.2c.3 1.3 1.1 7.2 1.7 13.2s1.3 11.3 1.6 11.7c.2.4 12.4.8 26.9.9 20.9 0 26.5-.2 26.5-1.2 0-.9.3-.8 1 .2 1.2 1.8 1.3-6.3.3-18.8l-.6-8.2h-57.9zM579.4 4.7c.3 2.7.8 8.7 1.2 13.5.4 6.2 1 8.8 2.1 9.2.8.3 11.4 1.3 23.6 2.1s24.3 1.7 27 2l4.7.6V0h-59.2zM641 16.1v16.2l5.8-.6c3.1-.4 13.8-1.1 23.7-1.7s19.9-1.3 22.2-1.6c4.1-.5 4.2-.6 4.7-4.7.3-2.3.8-8.6 1.1-14L699 0h-58zM701 3.7c0 2.1-.3 8.3-.6 13.9l-.6 10.1 27.3.6c19.2.4 27.5.3 28-.5.4-.6 1.2-6.1 1.8-12.2.7-6.1 1.4-12.1 1.7-13.4L759 0h-58zM760.7 4.2c-.4 2.4-.9 7.4-1.2 11.3-.4 3.8-.8 8.2-1.1 9.7-.5 2.5-.3 2.7 3.8 3.2 2.4.3 13.6.8 24.9 1.1l20.6.6 1.1-7.3c.6-4 1.4-10.8 1.8-15.1l.6-7.7h-50zM813.6 2.2c-.9 4.1-3 27.8-2.5 28.2.4.4 7 1.4 31.9 5.1 5.2.8 10.2 1.5 11.1 1.5 1.8 0 2-1.1 5.3-26.8L860.7 0H814zM862.6 2.2c-.6 2.7-2.6 20.6-3.3 29.8l-.5 6.5 3.3 1.4c1.9.8 7 3.1 11.5 5.2 4.5 2 9.5 4 11.3 4.4 1.7.3 3.1 1 3.1 1.5 0 .8 6.1 3.3 6.7 2.7.2-.2.8-8.6 1.3-18.6 1.2-20.9 1.9-18.7-9-28.6-3-2.8-5.6-5.3-5.8-5.8-.2-.4-4.4-.7-9.3-.7-8.4 0-8.9.1-9.3 2.2M900.6 7.1c-.6 5.5-.4 7.5.8 9.2.8 1.2 6.9 7.8 13.5 14.7 9.9 10.1 12.1 12 12.3 10.2.1-1.2.2-3.4.4-5 .1-1.5.5-10.2.9-19.5l.8-16.7h-28zM931.7 10.2c-.4 5.7-.9 16.4-1.3 23.8l-.6 13.5 3.6 6.3c1.9 3.4 5.7 9.6 8.3 13.7 2.6 4 5.8 9.1 7 11.2l2.2 3.8V77c.1-3 .6-13.3 1.2-22.8 1.1-15.6 1-17.4-.4-19-1-1-1.7-2.4-1.7-3.1 0-1.3-3-6.9-9.2-16.8-2.1-3.4-3.8-6.4-3.8-6.7 0-.2-1.1-2.3-2.4-4.6l-2.3-4.1zM936.7 1.7c1.1 3.1 15.8 28.3 16.5 28.3 1 0 .8-11.9-.3-12.5-1.3-.9-1.1-6.3.2-6.7.6-.2 1.4-2.7 1.7-5.6l.5-5.2h-9.6c-8.8 0-9.6.2-9 1.7M957.7 2.6c-.3 1.6-.9 9.5-1.3 17.6-.7 16.2-.7 16 6.7 32.6 1.6 3.5 2.9 6.8 2.9 7.3 0 .6.5.7 1.2.3s.8-.3.4.5c-.4.6-.1 2.3.8 3.6s1.6 3.1 1.6 3.9.4 1.7.9 2c.4.3.6-.6.3-1.9-.2-1.4-.8-2.8-1.3-3.1-1.4-.8-1.1-4.8.6-7 1.8-2.4 2.2-19.5.4-19.2-.6.2-1.4-.3-1.6-1-.3-.6.2-1.2 1.1-1.2s1.6-.7 1.6-1.6c0-1.8-10.1-28.7-12.4-33.1l-1.4-2.7zM984 1.5c0 .8 1.1 6.4 2.6 12.3 1.4 5.9 4.1 18.3 6 27.6s3.7 17.3 3.9 17.6c.4.7 2.2 13.3 5 35.5 3.5 28 5 88.4 2.4 101.8-1.2 6.4-1.2 18.7 0 16.8.7-1.1 1-1 1.5.6s1.8 2.1 6.3 2.6c3.9.4 6.4 1.3 8.2 2.9 2 1.9 3.7 2.4 7.4 2.3 3.3-.1 4.7.2 4.7 1.2 0 .7.6 3.1 1.3 5.3 1 3.5 1.7 4.2 5.2 5.1 6.6 1.8 7.1 2.1 5.8 2.6-2.8 1-1 2.3 3.1 2.3 3.8 0 4.6.4 5.2 2.2.4 1.3 1.1 2.6 1.7 2.9.5.4 1.1 2.4 1.3 4.5.5 6 1.3 8.4 2.8 8.4.8 0 1.6.7 2 1.5.3.8 1.1 1.5 1.9 1.5.7 0 2.1 1.3 3 3 1.7 2.8 1.7 3.1.1 5.5-.9 1.4-2.2 2.5-2.8 2.4-3.3-.4-3.8.2-3.3 3.8 1 8.3 3.6 11.3 9.6 11.3 2 0 3.1-.5 3.1-1.4 0-.8.7-1.7 1.6-2 2.5-1 7.4-.7 7.4.4 0 .5.6 1 1.3 1 1.1 0 2.4 2.3 4.1 7.2.3 1.1 1.5 1.8 3.1 1.8s2.5.6 2.5 1.5c0 1.1 1.1 1.5 4 1.5 3.1 0 4.6-.6 6.9-3.1 2.7-2.7 2.8-3.3 1.9-6.2-.6-1.8-1.5-3.8-2.1-4.5q-.9-1.2.3-1.2c1 0 1.1-1.5.7-6-.5-4.8-.4-6 .8-6 .7 0 1.7.5 2 1 .4.6 1.1.8 1.6.5.5-.4.9-.2.9.4 0 1.2 8.5 5.1 11.2 5.1 2.2 0 6 1.8 7 3.4.4.6.8 2.7.8 4.6v3.5l19.7-.3 19.8-.4 4.7 5.2 4.7 5.2 7.3.1c4 .1 8.2-.1 9.4-.6 2.5-.9 6.4 2.1 6.4 5 0 1 .5 2.4 1.2 3.1.9.9.5 2-2.1 4.6-2.8 2.9-4.4 3.6-9 4.2-6.6.8-7.2 1-6.5 2.8.3.9 3.3 1.5 9 1.9 4.6.3 9.2 1.1 10.2 1.6 1.5.9 1.4 1-.8 1.1-4 .1-.3 1.6 6 2.4 8.2 1.1 8.1 1.1 13.5 2.8 2.8.9 10.7 2 17.8 2.3 9.6.5 12.7 1 12.7 2 0 .9 1.6 1.5 4.3 1.8l4.2.4-4.2.1c-3.6.2-4.3.5-4.3 2.2s-.7 2-4 2c-2.2 0-4 .4-4 1 0 .5-1.8 1-4 1s-4 .4-4 .8c0 2-5.7 3.2-14.5 3.2-5.2 0-9.5.4-9.5.9s-1.8 1.2-4 1.6c-2.5.4-4 1.2-4 2.1 0 .8-1 1.5-2.2 1.5-1.4.1-.5.6 2 1.2 2.4.5 4.2 1.6 4.2 2.3 0 .9 1.2 1.4 3.4 1.4 1.8 0 3.9.7 4.6 1.5s1.9 1.5 2.6 1.5c.8 0 1.4.7 1.4 1.5s.9 1.5 2 1.5c3 0 2.8 4.7-.2 5.3l-2.3.4 2.3.2c1.2 0 2.2.5 2.2 1 0 1.1-3.5 2.1-7.5 2.1-3.8 0-4.8.8-6.4 4.7-.8 1.8-2 3.3-2.7 3.3-.8 0-1.4.6-1.4 1.4 0 1.7-2.4 2.8-4.5 2-.8-.4-1.5-.2-1.5.4 0 .5-2.2 1.2-4.9 1.6s-5.1 1-5.3 1.5-3.9 1.2-8.3 1.6c-12.2 1.1-13 1.1-12.8 0 .2-1.4-23-1-23.5.4-.2.6-1 1.1-1.7 1.1-1.6 0-6.5 4.9-6.5 6.5 0 1.2 3.6 4.5 5 4.5.5 0 1.6 1 2.4 2.1 1.3 2 1.3 2.4-.9 4.7-3.2 3.4-9.1 5.4-10.6 3.6-2.5-3-7.4 3.1-5.8 7.3.7 1.9 1.4 2.2 3.7 1.7 4.2-.9 7 .9 6.6 4.2-.1 1.5-.8 3.2-1.5 3.8-.9.8-1 .7-.5-.4.4-.8 0-.6-.9.5-.8 1.1-2.2 2-3 2s-1.5.4-1.6 1c-.1.5-1.4 2.5-3 4.3-2.9 3.3-3.8 7.5-1.8 8.7.6.4 7 .8 14.2 1 11.8.2 13.9.5 19.6 2.9 9.8 4.2 11.5 7.3 5.4 9.7-3.7 1.4-28.8.5-30.8-1.1-3.2-2.7-7.4 1.7-4.4 4.7.6.6.9 2.3.7 3.9-.3 2.9-.4 2.9-7.7 3.4-4.7.3-7.6 1-7.9 1.7-.5 1.6-4.6 1.7-7.3.3-1.5-.8-2.6-.6-5 1.2-3.3 2.5-5.5 2.7-21.9 1.6-10.3-.6-13-1.3-13-3.3 0-1.5-3-3.1-6.5-3.4-.8 0-1.5-.8-1.5-1.6 0-2.2-1.1-1.8-4.4 1.5-1.6 1.7-3.3 3-3.7 3s-.9 2.4-1.1 5.2c-.3 5.1-.4 5.3-3.4 5.6-2.5.2-3.3-.1-3.7-1.9-.3-1.2 0-3 .6-4.1 1-1.6.8-2.2-1.2-3.9-4.1-3.3-18.8-2.4-21.3 1.4-.3.6-3.1 1.3-6.2 1.8-3.1.4-6.2 1.4-7 2.1-1.7 1.8-.9 6.8 1.3 8.5 1.4 1.1 1.3 1.2-.6 1.3-1.9 0-2.3.6-2.3 3.2 0 3.1-1 9.6-3.3 20.8-.6 3-1.8 6.6-2.7 8s-3 5.2-4.6 8.4c-3.2 6.6-8.9 12.9-11.9 13.4-3.2.6-4.1 2.3-5.3 9.7-.6 3.8-2.1 12.8-3.2 20-1.1 7.1-2.9 18.4-4 25-3.1 19.7-3.3 18 1.9 22.6C989.5 627.8 994 631 998 631c2.6 0 4 .5 4 1.3 0 1.6 3.2 4.4 5.7 4.9 1.5.3 1.8 1.3 1.7 5.8 0 5.5-.1 5.5-3.5 6.1-1.9.3-4 .8-4.6 1.2-1.2.7-10.1-5.1-10.2-6.6-.1-1.2-10.4-10.5-16.5-15-2.8-2-5.7-4.2-6.4-4.8-.8-.7-1.7-.8-2.2-.3s-2.8 8.3-5 17.4c-2.3 9.1-5.2 19.9-6.5 24-8.5 26.7-11.8 36.4-14.5 43.5-1.7 4.4-3.4 8.8-3.7 9.7-.5 1.7 6.2 1.8 131 1.8h131.5l.6-4.5c.5-2.9 1.2-4.5 2.2-4.5.8 0 1.4-.8 1.4-1.9 0-1.2.9-2.1 2.8-2.4 2.2-.5 3.3.1 5.9 2.9 3 3.2 10.8 7.4 13.8 7.4.7 0 1.8.7 2.5 1.5 1 1.3 5.3 1.5 26.6 1.5h25.4V575.1l-3.3-2.5c-1.9-1.5-3.9-2.6-4.5-2.6-1.9 0-1.4-3.4.7-5.2 1.6-1.3 1.9-2.5 1.4-5.2-.6-4.1 1.1-7 3.9-6.3 1.7.5 1.8-.5 1.8-15.9V521h-3.5c-2 0-6.6-1.4-10.3-3.2-4.8-2.2-9-3.4-14.7-3.9-4.4-.4-11.1-1.5-15-2.4-3.8-.9-9.7-2-13-2.4-3.8-.5-8.2-2-11.9-4-4.7-2.7-6.5-3.2-9.5-2.7-11.3 2-10.8 2.1-15.1-2.1-4.1-4.1-5.1-7.8-2.8-10.1 1.6-1.6 7-1.5 10.3.2 1.5.8 3.4 1.2 4.1.9.8-.3 2.6.2 4 1.2 1.4.9 6.1 2 10.7 2.5 4.5.5 10.5 1.8 13.2 3 2.8 1.2 8.2 2.5 12.2 2.9 4.6.4 7.9 1.3 9.1 2.4 1 .9 2.9 1.7 4.2 1.7s3.3.9 4.5 2c1.7 1.6 4.1 2.2 10.6 2.7 4.6.3 9.4 1.3 10.7 2.1l2.2 1.4v-8.1c0-8 0-8.1-2.5-8.1-1.4 0-2.5-.4-2.5-.9 0-1.8-4.4-2.4-16.5-2.6-7.3 0-14.6-.7-18.6-1.7-8.9-2.2-12.6-2.9-17.9-3.5-2.5-.3-5-.9-5.6-1.4s-3.6-1.7-6.5-2.6c-3-.9-5.6-1.7-5.9-1.8s-2-.6-3.7-1c-1.8-.4-3.3-1.1-3.3-1.6s-1.1-.9-2.4-.9-4.5-.9-7-2c-4.7-2-5.9-4.5-3.7-7.9 1.7-2.7 31.9.9 42.4 5 2.6 1 6 1.9 7.6 1.9 1.5 0 3.1.3 3.5.8.4.4 4.2 1.3 8.4 1.9 10.8 1.8 11.1 1.9 16.8 4.1 2.8 1.2 7.9 2.4 11.3 2.8l6.1.7V0h-80.4c-72.1 0-80.5.2-81.7 1.6-2.1 2.6-9.8 7.5-12.4 8-1.3.2-2.8-.1-3.2-.8s-1.7-1.8-2.8-2.4-2.1-2.3-2.3-3.8l-.3-2.6h-56.5C990.8 0 984 .2 984 1.5M1145.5 115c.8 1.3-6 8-7.9 8-.8 0-1.9.7-2.6 1.5s-2.7 1.5-4.6 1.5c-1.8 0-3.6.4-3.9 1-.6.9-3.1 2.2-10.2 5.1-2.3 1-3.1 1.9-3 3.4.2 1.5-.5 2.1-2.8 2.3-1.6.2-3.4.8-3.9 1.3-.6.5-2.2.9-3.6.9-1.5 0-3.6 1-4.9 2.4-1.2 1.3-3.6 2.6-5.2 3-1.6.3-3.5 1-4.2 1.6-7.9 6.6-12.6 8.6-14.2 6-.3-.6-1.4-1-2.5-1-1.4 0-1.7-.5-1.2-2.3.3-1.2 1.3-2.7 2.1-3.4.9-.6 1.3-1.4.9-1.8-1.3-1.4 2.7-4.5 5.8-4.5 1.7 0 3.7-.7 4.4-1.5s2.2-1.5 3.4-1.5c1.1 0 3.4-.7 5-1.5 1.5-.8 3.8-1.5 5.1-1.5 1.2 0 3.9-1.6 5.9-3.5s4.3-3.2 5-2.9c.8.3 1.7.1 2.1-.5.3-.6 1.3-1.1 2.2-1.1s2.4-.6 3.2-1.3c2-1.7 11.6-3.8 13.6-3.1.8.4 1.5.1 1.5-.5s.4-1.1.9-1.1c.6 0 2.2-1.1 3.6-2.4 1.5-1.4 3.9-2.7 5.3-2.9 1.5-.2 3-.5 3.4-.6.4 0 1 .4 1.3.9m17.5 14c0 .5-.7 1.3-1.6 1.8-1.5.8-1.5 1 .1 1.5.9.4 2.5.2 3.5-.3 1.3-.7 2.1-.7 2.6.1 1 1.7-1.6 2.8-4.8 2.2-1.9-.4-2.8-.1-2.8.8s-.4.8-1.2-.4c-.9-1.2-3.5-1.9-8.6-2.3l-7.3-.7.7 5.2c.4 3.2.3 5.1-.4 5.1-.5 0-1.2 1-1.6 2.2-.5 1.8-.8 2-1.5.9-.7-1-2.2 0-6.4 4.3-3.1 3.1-5.9 5.6-6.1 5.6-1.2 0-3.6-7.4-3-9.2.3-1 1.7-2.6 3-3.5 1.4-.9 3.7-4.2 5.1-7.5 2.7-5.9 4.3-6.9 8.1-4.9.9.5 5.1 1.1 9.2 1.3 6.1.3 7.7.1 9.2-1.4 2-2 3.8-2.4 3.8-.8m3.9 50.2c2.3 5.2 3 7.5 3.6 12.1.4 3.1.2 3.6-2 4.1-1.4.4-2.5 1.1-2.5 1.6 0 .6-.7 1-1.6 1s-2.5 1.1-3.6 2.5c-3.2 4.1-8.3 2.5-8.6-2.9 0-1.1-2.3-2.6-4-2.6-.7 0-2.1 1.4-3.1 3.1l-1.9 3-1.1-3.2c-2.1-6.2-.5-10.9 4.8-13.6 1.9-1 4.5-2.8 5.9-4 1.3-1.2 4.5-2.9 7.1-3.7 2.5-.8 4.7-1.4 4.8-1.5.2-.1 1.2 1.8 2.2 4.1m18.7 15.5c.3 1.6 1.2 4.2 2 6 .8 1.7 1.4 3.4 1.4 3.8 0 2-4.5 9.5-5.7 9.5-.8 0-2.5 1.1-3.9 2.5s-3.1 2.5-3.7 2.5c-.7 0-3.1.9-5.2 2.1-5.3 2.8-16.3 2-20.5-1.4s-6.4-11-4.1-14.5c.6-1 1.8-.3 5 2.7 4.1 4 4.5 4.1 11.4 4.2 8.4.2 7.2.3 12.2-1.5 2.2-.8 4.1-2.1 4.3-2.9.2-.9 1.3-1.7 2.5-1.9 1.7-.2 2.3-1.1 2.5-4 .2-2-.2-4.6-.8-5.8-1.1-2.1-.6-4 1-4 .5 0 1.2 1.2 1.6 2.7m78.6 353.8c4.2 2.1 7.8 4.6 8 5.4.7 2.7-.2 5-1.7 4.5-.7-.3-3 1.3-5.1 3.5-3.5 3.8-4.1 4.1-9.2 4.1-5.4 0-19.2-4.4-19.2-6.2 0-.4-1.7-.8-3.7-.8-2.1 0-5.6-1.1-7.8-2.3-3.5-2-4-2.7-3.8-5.7.1-2.2.9-4 2.5-5.2 2-1.6 4.1-1.8 17.3-1.5l15 .3zm-137.6 106.2c1.5 2.1 3.3 4.1 3.8 4.5.7.5.5.8-.4.8-.8 0-2.1.9-2.7 2-1.1 1.7-.8 2.2 2.8 4.3 5.9 3.6 2.5 4-4 .6-2.9-1.6-5.7-2.7-6.1-2.4-1.3.8-4.2-5.9-3.8-9 .2-2.1 1-3.1 2.8-3.6 4.2-1.2 4.7-1 7.6 2.8m79.8 28c1.7 5.1 3.3 9.3 3.6 9.3s2-4.3 3.9-9.5c2.6-7.5 3.7-9.5 5.2-9.5 1 0 1.9.3 1.9.7 0 .5-1.8 5.7-4.1 11.8-2.2 6-4.2 11.6-4.4 12.2-.6 1.9-4.2 1.6-5-.5-.3-.9-2.4-6.8-4.6-13-3.8-11-3.8-11.3-1.7-11 1.8.2 2.7 2 5.2 9.5m-44.6-4.2c.6.3 1.2 1.8 1.2 3.4 0 1.7.5 4.2 1.2 5.6 1.1 2.5 1.6 2.6 6.7 2.4 5.6-.3 10.1.6 10.1 2 0 .4 1.6 1.3 3.5 2 3.9 1.4 4.1 1.8 2 4.5-1.2 1.5-3 2-8.2 2.2-4.7.2-7.1.8-7.9 1.9-.6.8-2.5 1.5-4.2 1.5-2.5 0-3.1-.5-3.7-2.9-.3-1.6-1.3-3.2-2.1-3.5s-1.4-1.2-1.4-2c0-.7-.6-1.6-1.4-1.9-.7-.3-2.3-2.6-3.6-5.1-1.2-2.5-2.5-4.6-2.9-4.6-1.4 0-3-4.7-2-5.7.9-.9 9.6-.7 12.7.2m73.6 3.7c1.4 1.3 2.8 3.5 3.2 5l.6 2.8h-7.1c-6.4 0-7.1.2-7.1 2 0 3.5 5.9 5.3 8.9 2.6 1.2-1.1 2.1-1.2 3.1-.5 2.4 1.5-2.4 4.9-7 4.9-3 0-4.4-.6-6.4-3.1-7.3-8.7 3.4-21.1 11.8-13.7m23 .4c2 2.1 2.6 3.7 2.6 7.1 0 5.9-3.2 9.3-9 9.3s-9-3.3-9-9.4c0-3.7.5-4.8 3.1-7 4.1-3.5 8.8-3.5 12.3 0M347.3 2.2c-.4.7-1.4 2.6-2.3 4.1-.8 1.5-4.6 7.8-8.4 13.9-4 6.6-6.4 11.4-5.7 11.6.6.2 1.1 1.1 1.1 1.9 0 1.3-.3 1.3-1.5.3-2.1-1.8-2.1-2.2-1.1 20.5.9 19 1.9 26.5 3.1 22.7.4-1.2 1-2.2 1.4-2.2.3 0 1.7-2.1 3.1-4.8 1.4-2.6 3-5.2 3.6-5.8.6-.7 2.4-3.8 4-7 1.6-3.3 3.4-6.2 3.9-6.6.6-.4 1-6.8 1-15.5 0-13.7-.7-34.3-1.2-34.3-.1 0-.5.6-1 1.2M372.7 26.6c-3.7 4.3-7.4 8.5-8.2 9.2-.9.7-1.2 1.8-.9 2.4.4.6.3.8-.2.5s-2.7 1.2-4.8 3.3l-3.9 3.9 2.9 1.2c6.3 2.5 20.8 6.9 22.7 6.9s2-.4 1.3-14.9c-.4-8.3-1.1-16.2-1.5-17.7-.7-2.8-.8-2.7-7.4 5.2M899.3 20.2c0 .7-.4 8.8-.8 18l-.8 16.6 5.4-1.3c7.5-1.8 20.9-6.7 20.9-7.6 0-1.5-6.5-6.9-8.4-6.9-1.3 0-1.6-.5-1.2-1.6s-1.7-4.3-6.6-9.9c-7.5-8.6-8.4-9.4-8.5-7.3M493.5 32.2c-11.5.5-21.3 1.2-21.8 1.7-1.3 1.3 3.3 39.5 5.1 42.6.3.5.6 2.1.7 3.5.3 7.2.5 7.8 2.8 8.4 1.4.4 2.6 0 3.4-1 .6-.9 1.7-1.3 2.3-.9s2-.1 3.2-1.2c2.4-2.1 11.9-2.6 12.6-.6.2.7 1.2 1.3 2.3 1.3 2.3 0 2.5 1.6.3 2.4-3 1.2-.7 1.7 8.8 2.1 6 .3 8.6.1 7.3-.5-1.6-.7-1.7-.9-.4-.9 2-.1 3.1-2.4 2.3-4.6-.4-.8-.4-1.5 0-1.5.3 0 1 1.5 1.5 3.2.8 2.7.9 2.1.6-3.2-1-13.9-2.5-31-3.7-41.3-1.1-10.6-1.2-10.7-3.7-10.5-1.4 0-12 .5-23.6 1M523 31.7c.1 2 2.1 25.2 2.5 28.3.2 1.9.7 5.9 1.1 8.9.3 3 1 6.5 1.5 7.8s.5 2.3.1 2.3-.6 2-.4 4.5c.3 2.9.9 4.5 1.7 4.5s2 .8 2.7 1.8c.9 1.3 3.7 2.2 9.7 3 4.6.7 8.6 1 9 .8.4-.3 3.8.1 7.6.9 3.9.7 10.7 1.6 15.3 1.9 8.1.7 8.2.6 8.1-1.6 0-2.2-.1-2.2-.9-.3s-.9 1.9-.9-.3c-.1-1.2.4-2.2 1-2.2.8 0 1-2.2.5-7.3-.3-3.9-.8-13.7-1.2-21.7-.3-8-.9-18.3-1.3-23l-.6-8.5-27.7-.3c-15.3-.1-27.8.1-27.8.5M582 36.7c0 3.2.5 12.8 1 21.3.6 8.5 1.2 19.3 1.5 24 .6 9.5 1.1 12 2.7 12 1 0 .9-.6-1-8.3-.6-2.2-.6-3.9-.1-4.3.5-.3 1 .1 1.1.8.6 5.8 1.7 7.8 4.3 7.8 1.3 0 2.6-.4 2.9-.9s1.7-1.1 3.1-1.3c2.7-.6 5.5 2.5 5.5 6.1 0 1.1.8 2.2 1.8 2.4 1.2.3 1 .5-.7.6-1.3 0-2.1.4-1.7.8 1.2 1.2 9 1.1 9.8-.1.4-.6 1.2-.5 2.2.3.8.7 2.3 1.1 3.3 1s2.5 0 3.3.4c.8.3 5 .8 9.3 1l7.7.5V35.3l-10.7-1.2C616.7 33 590.2 31 584.8 31c-2.7 0-2.8.1-2.8 5.7M681.5 32c-6 .4-16.4 1-23 1.4s-13.3 1.2-14.8 1.8l-2.8 1.1.1 31.7c.1 17.5.3 32 .5 32.2s4.6.1 9.7-.3 16.1-1 24.3-1.4c8.3-.3 15.7-.8 16.5-1.1.9-.2 1.6-1.4 1.7-2.6.4-5.7 2.3-38.6 2.9-50.6l.6-13.2-2.3.2c-1.3.1-7.3.4-13.4.8M699.7 33.6c-.6 3.1-1.2 20.9-1.2 35.6 0 6-.3 10.8-.7 10.8-1.3 0-.9 3.7.6 4.9 1.9 1.6 2.9 7.7 1.6 10.1-1.3 2.5-3.2 2.6 23-.5 1.4-.2 6.3-.6 11-1 13.1-1 15.3-1.6 15.6-4.5.2-1.4 1.2-12 2.4-23.5 1.1-11.6 2.3-23.7 2.6-27.1.6-5.8.5-6.1-1.7-6.7-1.3-.4-13.7-.7-27.5-.7h-25.2zM757.6 34.4c-.3 1.6-1.3 11.5-2.2 22-.8 10.5-1.9 22.5-2.3 26.6-.5 4.1-.6 7.8-.2 8.1.7.7 23.7-.9 26.1-1.8.8-.3 5.6-.6 10.7-.7s9.6-.6 10.2-1.1c1.3-1.4 5.4-33.1 4.7-36.6-.3-1.6-.2-2.9.3-2.9.9 0 2.4-14 1.6-14.9-.4-.3-11.4-.8-24.5-1.1l-23.9-.5zM456.4 35.7c-3.8.7-11.4 2-16.9 2.8-16.4 2.5-15.4 2.1-14.9 6.3 2 15.8 4.9 31.6 6.1 32.8.8.8 1 1.4.4 1.4s-1.1 1-1 2.2c0 2.2.1 2.2.9.3.7-1.6.9-1.7.9-.3.1 2.2 3.2 3.1 7.8 2.2 2.1-.5 4.1-.7 4.5-.6s2.2.2 4 .4c3.3.2 7.1 2.5 6.3 3.8-.4.6 11.2 2 17.3 2 4.2 0 1.4-1.5-3.8-2-.8-.1-.3-.7 1.3-1.4 1.5-.7 2.4-1.5 2.1-1.9-.4-.4 0-.7.9-.7 2 0 2-.1.6-3.7-.6-1.5-1.2-5.5-1.3-8.8s-1-12.8-2.1-21.2c-2.2-17.4-.8-15.9-13.1-13.6M809.6 37.6c-.5 3.4-1.2 9.3-3.1 26.4-.3 2.5-1 7.9-1.5 12s-1 8.5-1 9.7V88h21.9c24.9 0 22.2 1 24-9.5 1.6-8.9 5.1-34.2 5.1-36.3 0-1.6-2.2-2.2-16.8-4.6-9.2-1.5-19.3-3-22.4-3.3l-5.6-.6zM858 41.7c0 .5-.9 6.9-2.1 14.3-1.9 13.3-3.9 28.4-3.9 30.7 0 .7 2.9 1.4 7.8 1.8 15 1.2 18.8 1.6 25.5 2.6 3.8.6 7.1.9 7.3.6.7-.6 2-29.4 1.6-32.5-.3-1.8-2-3.1-7.7-5.7-4-1.8-8.4-3.6-9.7-4s-5.9-2.5-10.3-4.6c-8.9-4.3-8.5-4.2-8.5-3.2M325.2 42.8c-.1.7-1.8 4.6-3.7 8.6-1.9 4.1-3.5 7.9-3.5 8.4 0 .6-1 2.8-2.2 4.8-1.3 2.2-1.8 3.9-1.2 4.1 1.5.5.4 6.3-1.2 6.3-3.5 0 .5 5.5 6.3 8.7 2.8 1.6 6.7 1.8 4.3.3-1.2-.8-1.1-1 .8-1 2.2 0 2.2-.2 2.1-11.3-.1-10.5-1.4-31.7-1.7-28.9M418 43.5c-1.4.8-7 3.3-12.5 5.6s-10.7 4.8-11.6 5.6c-.9.7-1.9 1-2.2.6-.4-.3-.7-.1-.7.5 0 .7-.7 1.2-1.5 1.2s-1.5.8-1.6 1.7c0 1.5-.2 1.5-.9-.2-.7-1.6-.9-1.4-.9 1.5-.1 2.6.2 3.1.9 2 .6-.9 1-1 1-.3 0 .6-.4 1.4-.9 1.8-.6.3-.8 2.2-.6 4.3.1 2 .3 7.8.4 12.8l.1 9.1 3.8.4c6.5.6 20.6 0 23.2-1 1.8-.7 2-1 .8-1-3.3-.2-1.6-3.1 2.2-3.8 5.7-.9 8.6-.9 9.3.1.5.6.6-.3.3-1.9-.3-1.7-1.3-8.6-2.1-15.5-2.2-17.7-3.1-23.9-3.6-24.4-.2-.3-1.5.2-2.9.9M954.7 58.7c-.9 17.8-.9 29.1.1 27.8 1-1.4 7.2-1.9 7.2-.5 0 .6-.5 2.1-1.1 3.2-.9 1.6-.7 2.6 1 4.9 1.2 1.5 2.1 3.4 2.1 4.1 0 .9.3.9 1-.2.8-1.3 1-1.3 1 .2 0 .9-.4 2-1 2.3-1.4.8-1.2 4.3.4 8.8 1.9 5.6 2.5 3.2 3.8-15.5 1.1-14.1 1-16.3-.4-19.1-.9-1.8-4-9.2-6.9-16.4-3-7.3-5.7-13.3-6-13.3s-.9 6.1-1.2 13.7M354 70.9c0 22.2.6 31.1 2.1 31.1.5 0 .6-.7.2-1.6-.4-1.2-.2-1.5.8-1.2.8.3 1.3 1 1.2 1.6-.3 1.1 3.3.2 6.1-1.6.6-.3 1.8-.7 2.6-.9 6.3-.9 7.8-1.5 8.3-3.4.4-1.6 1-1.9 3.4-1.3 2.5.7 2.7.6 1.4-1-1.2-1.4-1.2-1.6.1-1.1 2.7 1.1 3.6-3.5 3-15.8-.2-6.5-.9-12-1.3-12.3-.5-.3-.9.3-.9 1.3-.1 1.3-.5 1.1-1.6-1-1.6-2.9-1.2-4.7 1.2-4.7.8 0 1.4-.5 1.4-1 0-.6-.6-1-1.3-1-.8 0-7-1.8-13.8-4s-12.5-4-12.6-4c-.2 0-.3 9.8-.3 21.9M912.5 53c-6 2.2-11.8 3.9-12.7 4-1 0-1.8.6-1.8 1.4 0 .9.7 1.2 1.8.9q1.8-.45 3 2.1c1.3 3 0 3.5-2.4 1.1-.9-.8-1.9-1.5-2.4-1.5-.9 0-2.3 20.3-1.8 27.3l.3 4.8 14.4 4.9c8 2.7 14.7 4.7 15 4.4s.8-12.5.9-27c.4-25.2.3-26.4-1.5-26.3-1 0-6.7 1.8-12.8 3.9M349.7 54.7c-.4.3-.7 2.8-.7 5.5 0 2.6-.4 4.8-.9 4.8-.4 0-.7-1.7-.5-3.8l.4-3.7-1.4 3c-.7 1.6-2.5 4.8-4 6.9-1.4 2.1-2.6 4.4-2.6 5s.5.4 1-.4 1-1 1-.4-.7 1.7-1.5 2.4-1.5 1.9-1.5 2.7c0 .9-.6 1.3-1.4 1-2.5-1-3.6 4.4-2.3 11.2 1.1 5.6 2.9 7.9 4 4.8.3-.9 1.1-.9 3.5 0 2.4.8 3.2.8 3.2 0 0-.7.4-.6.9.2.8 1.2 1.2 1.3 2.6.1 1.3-1.1 1.5-4 1.5-20.6-.1-10.7-.3-19.4-.4-19.4s-.6.3-.9.7M929.8 58c-.3 2.5-.5 13.7-.4 25 .1 19.9.2 20.6 2.6 24.5 1.3 2.2 3.7 5.2 5.2 6.8 1.4 1.5 3 3.7 3.3 4.8.4 1.3 1.2 1.8 2.1 1.5s1.2-.1.9.4c-.3.6-.1 1 .5 1 .7 0 1 .7.6 1.5-.5 1.4.5 2 2.7 1.6.5-.1.6.3.2.9-.3.6.4 2.3 1.6 3.8l2.2 2.7-.6-18.4c-.5-13.3-1-18.7-1.9-19.3-.8-.5-.9-.8-.2-.8 1.8 0 2.4-3.9 1.1-6.9-1.5-3.3-12.1-21.3-15.7-26.6-1.5-2.2-2.9-4.7-3.2-5.5-.2-.8-.7.5-1 3M790 92.2c-3.6.4-9.9 1-14 1.3-4.1.2-11.1.7-15.6 1l-8 .6.3 4.7c1.4 17.7 2 23.4 2.2 18.3l.1-5.4 4.7.7c2.5.3 4.9.8 5.2 1.1s.7 3.5.9 7.1c.4 5.9.7 6.7 3.6 8.8 1.8 1.4 5.3 2.6 8.5 3q8.1 1.05 8.1 4.8c0 3.2 2.2 3.7 5.9 1.4 2-1.2 4.8-2.7 6.4-3.4 2.3-1 2.7-1.7 2.7-5.4 0-3 .3-3.9.9-2.9.9 1.5.7-6.9-.8-27.4-.7-10.3-.1-9.8-11.1-8.3M804.4 98.6c.3 4.3.6 8.8.6 10.1 0 1.8.5 2.3 1.8 2.1 1.1-.2 2 0 2 .4.5 2.1.1 2.7-1.5 2.1-1.4-.6-1.5.2-.9 7.8.5 4.6.8 9.6.8 11.1.1 1.6.5 2.8.9 2.8.5 0 .9-.7.9-1.5 0-1.3.4-1.3 2.6.2 1.5.9 4 1.8 5.7 1.9 1.7.2 3.4 1 3.9 1.8.5.9 1.4 1.6 2.1 1.6s.6-.4-.3-1c-1.5-.9-1.6-.9 3.5-2.5 1.3-.4 2 .6 1.6 2.7-.2 1.3 1.6.9 2.9-.7.7-.8.9-1.5.4-1.5s1-1.2 3.3-2.5c2.8-1.7 4-3.1 3.6-4-.3-.8 0-1.5.7-1.5s1-.8.7-1.9 0-2.2.7-2.5c.6-.3 2.9-1.6 5.1-2.9l4-2.4-.3-11.4c-.2-6.3-.4-12.3-.6-13.4-.3-1.9-1.2-2-22.6-2.3l-22.3-.2zm38.8 10c-.1 2-.8 4.4-1.7 5.4-.8.9-1.5 2.1-1.5 2.7s-1.5 1.4-3.2 1.8c-1.8.4-4.1.9-5 1.1-1 .3-2.1-.3-2.8-1.5-1.1-2.2-.4-7.1 1.1-7.1.5 0 2-1 3.5-2.3 2.5-2.1 8.5-4.8 9.3-4.1.2.2.4 2 .3 4M851.5 96.1c.3 3 1 8.3 1.5 11.9s1.2 11.1 1.6 16.8c.4 5.6 1.1 10.5 1.7 10.9.6.3.7.1.3-.5s.7-1.7 2.7-2.7c4.2-2 6.8-6.3 7.2-12.2.3-4.9 1.5-6.3 5.8-6.3 2.7 0 2.7.1 2.4 5.3-.2 3.3.1 5.4.7 5.5 6.5 1.1 10.9 2 10.2 2.1-.5 0-.3.7.3 1.5.7.8 1.1 3 .9 4.8l-.3 3.3h4.8c4.7 0 4.7 0 4.2-3-.3-1.7-.7-7.3-1-12.5s-.8-13.2-1.1-17.6l-.6-8.2-5.6-.6c-3.1-.3-8.2-.8-11.2-1.1s-6.6-.7-8-1-5.8-.8-9.8-1.2l-7.3-.6zM735.5 96.5c-.5.2-8.6 1.1-18 2-16.3 1.6-19.5 2.2-16.7 3.2 2 .7 1.4 2.3-.9 2.3-1.5 0-1.9-.5-1.5-1.5.3-.8 0-1.5-.6-1.5-.8 0-.9 2.3-.4 7.7.3 4.2.6 10.6.6 14.2 0 6.6 1.2 10.3 2.7 8.7.4-.5.2-1.1-.4-1.3q-1.35-.45-1.2-6.6c.1-3.4.4-4.9.6-3.2.2 1.6.8 4.7 1.5 6.8.9 3.1 1.5 3.6 3.2 3.1 2.6-.8 4.5-2.4 2.8-2.4-2.2 0-1.3-3.7 1.1-4.4 3.3-.9 3.7-.8 3.7.9 0 1.1 1.1 1.5 4 1.5s4 .4 4 1.5c0 .8.9 1.5 2 1.5s2 .5 2 1c0 .6.8.5 2-.2 1.7-1.1 2.2-1 3 .2s1 1.1 1-.7c0-1.2 1-3 2.3-4 1.2-1 2.3-2.9 2.4-4.2s.6-2.8 1.2-3.4c.7-.7.8-.3.4 1.2-.5 2-.2 2.1 5.1 2.1 4.9 0 5.7-.3 5.5-1.8-.4-3.9.1-4.8 1.5-2.9 1.2 1.6 1.4 1.4 1.8-1.8.2-1.9 0-6.9-.5-11l-.9-7.5-6.2.1c-3.3 0-6.5.2-7.1.4M896 99.3c0 8.4 3.3 33.3 4.6 34.3 1.6 1.2 1.9 2.8.5 1.9-.5-.3-1.3 0-1.6.6-.5.7.3 1 2.1.8 1.6-.1 4 .3 5.4 1 2.5 1.1 2.5 1.1-.5.6-2.9-.5-2.9-.5-1 1 1.2.9 2.9 1.4 4.3 1 1.2-.3 2.2-.1 2.2.4 0 1 7.4 3.7 12.5 4.5 6 1 6.1.7 3.9-19.9-1.5-13.2-2.5-18.9-3.5-19.5-1.2-.8-18.6-6.8-26.1-9-2.6-.8-2.8-.7-2.8 2.3M545.3 99.7c.2 1.9 1.1 2.8 4.2 3.9 2.2.7 5.5 1.4 7.3 1.4 2.5 0 3.5.5 3.9 2 .6 2.4 4.5 2.7 6.7.5.8-.8 2.4-1.5 3.6-1.5 2 0 5-2.1 5-3.5 0-.4-.7-.4-1.6-.1-2.3.9-9.9-.5-8.2-1.5.7-.4 2.4-.6 3.8-.3 2.5.4 2.5.4.3-.7-1.8-.9-2.7-.9-4.5.3-2.4 1.5-5.2 1.3-4.2-.3.7-1.3-1-1.7-9.3-2.2-7.1-.5-7.2-.5-7 2M677.7 102.3c-3.3.7-5.5 1.6-5.1 2 .5.5-.3.4-1.6-.1-3.7-1.3-5.8-.4-6.4 2.6-1.2 6.3-1.8 16.5-1.1 20.8.6 4.1.8 4.4 2 2.8.7-1 1.1-2.4.8-3.1s.2-1.3 1.1-1.3 1.6-.5 1.6-1c0-1.8 1.8-1.1 2.5 1 .6 1.8 1.5 2 9.6 2 7 0 8.9-.3 8.9-1.4 0-.8-.6-1.7-1.2-1.9-.9-.4-1-.8-.3-1.4 1.9-1.4 3.8-9.1 3.2-12.7-.3-2-.2-3.8.3-4.1s1.1 2.3 1.3 5.7c.3 4.5.3 3.9.3-2.2l-.1-8.5-5-.2c-2.7-.1-7.6.4-10.8 1M617 104c-.7.4-2.8.6-4.5.3-1.9-.3-3.5 0-3.9.6-.9 1.4-10.6 1.5-10.6.1 0-.6-.4-1-1-1-.5 0-1 1.6-1 3.5v3.5l9.3.2 9.2.2-8.2.3c-4.6.2-8.3.8-8.3 1.3s-1 1-2.2 1.2c-1.3.2 4.2.8 12 1.2l14.4.9-.5 2.4c-.3 1.5 0 2.2.7 2 .6-.2 1.1-1.5 1.1-3 .1-3.3 1.3-4.6 2.6-2.7.8 1.3 1 1.3 1.9 0 .7-1.1.8-.6.4 1.6-.7 3.9 1.3 5.6 2.2 1.9.4-1.6 1.3-2.5 2.5-2.5 1 0 2.2-.1 2.7-.3.4-.1 1 3.2 1.3 7.3.5 6.5.6 5.8.7-5.3.2-9.5-.1-12.9-1-13.1-3-.9-18.5-1.4-19.8-.6M642.7 104.7c-.3.5-.5 5.1-.4 10.3 0 9.1.1 9.3.7 3 .4-3.6.7-5.7.8-4.8s1 2.4 2 3.4c.9 1 1.7 2.5 1.7 3.3 0 .9.7 1.7 1.5 1.9 1.5.2 3.5-4.1 4.7-10.1.3-1.5 1.2-2.7 1.9-2.7.8 0 1.4-.5 1.4-1.1 0-.5-.4-.8-.8-.5-.5.3-1.8-.4-3-1.4-2.1-2-9.6-2.9-10.5-1.3M930.6 115.5c1.6 14.1 3.6 28 4 28.4.2.2.4-.1.4-.7 0-1.8 2.7-1.4 3.4.5.5 1.2 1 1.3 1.8.5 1.4-1.4 2-7 .8-7.7-1.5-.9-1.2-4.2.5-4.9 1-.4 1.5.1 1.5 1.4 0 1.1.7 2 1.5 2s1.5-.9 1.5-2.1c0-1.1-.4-1.7-1-1.4-.5.3-.7 0-.4-.8s-.2-2-1-2.7c-1.3-1-1.7-.9-2.4 1-.8 2.1-.9 2.2-1.6.5-.3-1-.2-2.3.4-2.9 1.5-1.5 1.2-2.9-.5-2.2q-1.5.45-1.5-1.2c0-.9-.9-2.3-2-3-1.2-.7-1.9-1.6-1.6-2.1.3-.4-.6-2.3-1.9-4.2l-2.5-3.3zM238.5 197c-1.4.6-1.6.9-.5 1 .8.1.1.6-1.6 1.1-2.4.7-3.3 1.6-3.7 3.9-.5 2.1-1.2 3-2.7 3-1.1 0-2 .4-2 1 0 .5 1 1 2.1 1 1.6 0 2 .5 1.6 2-.7 2.5.7 3.4 4.1 2.5 1.5-.4 2.1-.9 1.5-1.3s-1.5-2-1.8-3.5c-.7-2.5-.5-2.7 2.1-2.6 2.4.1 2.5.2.7.6-2.8.5-3 2.3-.3 2.3 1.3 0 2 .7 2 2 0 2.3 1.5 2.6 2.7.6.4-.8 1.7-1.5 2.8-1.7 1.2-.3 2.1-1.4 2.3-2.7.2-1.4 1-2.2 2.2-2.2 2.1 0 3.4-3.1 2.5-6-.5-1.7-1.5-2-6.3-1.9-3.1 0-6.6.4-7.7.9M0 380.7c0 4.1.4 6.2 1 5.8s6.3-.8 12.7-1.1l11.6-.4.4-3.5c.4-3.9.3-4-10.2-4.9-3.3-.3-8.1-1-10.7-1.4l-4.8-.9zM111 380c1.5.5-2.1.8-9.5.7-18.1-.1-25.4.6-26.5 2.3-.5.8-1 1.1-1 .6s-.6-.3-1.4.3c-1.4 1.2-2.7 1.1-9.5-.8-3.9-1.1-4.7-1.1-6.9.6-4.6 3.4-4.8 4.6-1.9 10.5 3 6.2 3.3 9.4 1.2 12.2-.8 1.1-1.5 3.1-1.5 4.4 0 1.6-1.5 3.9-4.1 6.4-3.1 3-4 4.5-3.7 6.6.2 1.6.9 2.7 1.8 2.7.8 0 2.9.4 4.7.8 3.6.9 3.9 1.8 4.9 13.3.8 9.2.1 13.4-2.1 13.4-1.2 0-1.5-1.5-1.5-7.4 0-10.8-2.9-16.9-4.4-9.4-.5 2.5-.9 2.9-1.6 1.9-1.4-2.4.1 7 1.6 10.1 1.3 2.5 1.2 2.8-.5 3.8-4.7 2.5-6.1-.7-6-13.4.1-4.3-.3-8.2-.8-8.6-1.7-1.7-11.1-1.5-13.1.3-1 .9-4 1.9-6.7 2.2-6.1.8-6.5 1-6.5 4.2 0 2.4-.2 2.5-3.7 1.8-5-.9-4.9-.8-5.6-5.7-.3-2.3-1.4-4.8-2.3-5.5-1-.7-1.3-1.3-.8-1.3.6 0 1.7-1.1 2.4-2.5 1.3-2.4 1.8-2.5 10-2.5 7.7 0 9.2-.3 12.4-2.5 2-1.4 4.1-2.5 4.6-2.5 2.8 0 3.7-6.7 1.8-13l-1.3-4H23c-9.3 0-10.7.2-11.7 1.9-1.4 2.3-1.5 13.1-.2 14.7.6.8.4 1.4-.8 1.8-1 .4-2.2.1-2.8-.6s-1.9-1.8-3-2.4c-1.5-.8-2-2.3-2.1-5.3-.1-2.3-.6-4.7-1.3-5.4-.8-.8-1.1 9-1.1 39.3 0 40.2 0 40.3 2 38.5 1.1-1 2-2.4 2-3.2 0-.7.9-1.3 2-1.3 3.7 0 7.1-2.2 6.8-4.4-.3-1.9.2-2.1 6.2-2 5.3.1 6.7-.2 8-1.9 1.2-1.5 3.5-2.2 8-2.8 3.6-.4 6.9-1.4 7.5-2.1.5-.8 2.2-1.8 3.6-2.1 2.9-.7 8.9.9 8.9 2.4 0 .5 2.1.9 4.8.9 5.3 0 10.1 2.5 12.8 6.5 1.4 2.1 1.4 3 .4 5.4-1.5 3.7-10.8 8.1-17.1 8.1-2.6 0-6.3 1-9 2.4-3.7 1.8-7 2.5-16.3 3-6.8.4-12.8 1.3-14.4 2.2-1.7.8-2.1 1.5-1.2 1.6.8.1-2.1.4-6.5.7l-8 .6-.3 111.8L0 720h172c97.7 0 172-.4 172-.9s-1.1-3.4-2.5-6.6c-2.7-6.1-13.7-38.2-17.9-52.5-2.7-9.1-7.8-30-9.6-39.1l-1.1-5.6-4.8 1c-3.2.6-6.1 2-8.3 4-1.8 1.7-3.7 3-4.1 2.9-.5-.1-.6.2-.2.7.5.8-9.4 8.1-11.1 8.1-.5 0-2.3 1.4-5.5 4.2-1 1-2.4 1.8-3.1 1.8-.6 0-1.8.7-2.7 1.5-7.6 7.1-9.6 7.8-12.5 4.6-2.1-2.3-1.3-4.3 2.4-5.9 1.7-.8 3-2 3-2.7s.6-1.5 1.4-1.8c4.4-1.7 13.5-8.4 13.6-10 0-1 .8-2.1 1.8-2.4 2.2-.9 3.2-1.7 9.2-7.7 2.8-2.7 5-5.2 5-5.7 0-1.1-3.6-3-4.3-2.2-.4.3-.9-.2-1.3-1.1-.4-1-.2-2.2.4-2.8 1.4-1.4 5-.1 5.7 2.3.4 1 1.2 1.9 1.8 1.9 1.8-.1 8.8-5.6 8-6.4-.3-.3.2-.6 1.2-.6 2.1 0 2.2 1.4-2.5-25.5-1.7-9.9-3.4-19.7-3.7-21.8-.3-2-.9-3.7-1.3-3.7s-.6-1.3-.4-3c.5-3.9-2.9-9.5-6.6-11-1.6-.7-3.4-1.8-4-2.5-1.5-1.8-7.5.1-11.4 3.7-1.7 1.6-3.6 2.8-4.2 2.8-.7 0-1.4.6-1.7 1.4-1.3 3.3-14.7 2.7-14.7-.7 0-.7-1.3-2.9-3-4.7-2.2-2.4-3-4.4-3-7 0-3.6-3.1-12.5-5.6-16.3-2-3-.6-14.6 2.3-18.4 1.3-1.7 2.6-4.7 2.9-6.6.4-3.3 0-3.8-4.9-7.3-2.8-2.1-5.4-3.9-5.6-4.1-.3-.2.1-.9.7-1.5 1.7-1.7 1.5-6.8-.2-6.8-.8 0-1.7-.9-2.1-1.9-.9-3-6.4-3.3-9.1-.5-1.3 1.2-3.7 2.5-5.4 2.9-1.6.4-3 1.1-3 1.6s-1 .9-2.2 1c-1.5 0-3.9 1.9-6.8 5.3-2.4 3-5 5.1-5.7 4.9-2-.8-2 4.6 0 8.6.9 1.9.9 2.5 0 2.8-1.5.5-1.8 3.3-.4 3.3.5 0 1.1 2.4 1.5 5.2.3 2.9.9 7 1.2 9 .4 2.5.2 3.8-.5 3.8-.6 0-1.1.6-1.1 1.4s-1.2 1.7-2.7 2.1c-3.8 1-14.9.6-18.1-.6-2.3-.9-3-.7-4.9 1.7-1.2 1.5-2 3.1-1.7 3.6.3.4.2.8-.3.8-.4 0-2.4 1.5-4.4 3.4-6.2 5.9-13.2 4.8-17.2-2.9-2.1-4.2-4.7-13.5-7.3-26.6l-1.6-7.6 2.6-2.8c1.4-1.5 2.6-3.2 2.6-3.6 0-.5.6-.9 1.4-.9.7 0 1.6-.9 1.9-2 .6-2.2 4.4-4 8.8-4 1.6 0 2.9-.5 2.9-1 0-.6.7-1 1.5-1s1.7-1.1 2.1-2.5c.3-1.4 1-2.5 1.4-2.5.5 0 1.1-1.3 1.5-3 .4-1.6 1.1-3.2 1.6-3.5.5-.4.9-2.6.9-5.1 0-2.4.5-4.4 1-4.4.6 0 1 2.1 1.1 4.7 0 2.7.3 4.2.6 3.5.6-1.5 10.3-1.7 10.3-.2 0 .5-2 1-4.5 1-3.8 0-4.5.3-4.5 2 0 1.6.7 2 3.5 2 2.2 0 4.3.8 5.5 2 1.1 1.1 2.8 2 3.8 2 3 0 9.2-2.1 9.2-3 0-.6 1.3-1 2.8-1s3.2-.4 3.8-.9c.5-.5 2.9-1.1 5.4-1.3 6-.6 7.2-1 9.1-3.1.9-.9 2.1-1.7 2.8-1.7.6 0 1.1-1.4 1.1-3q0-3-1.5-3c-.9 0-1.5-.9-1.5-2.3 0-2.3-3.4-5.2-4.9-4.2-.5.2-1.1-.4-1.4-1.5s-1.2-2-2.1-2-1.6-.7-1.6-1.5-.7-1.5-1.5-1.5-1.5.6-1.5 1.2c0 .9-.4.8-1-.2-1.4-2.1-1.2-6 .3-6 .8 0 .7-.4-.3-1.1-1.1-.8-1.2-1.2-.2-1.6 1.4-.6 1.7-6.3.2-6.3-.5 0-1-.6-1-1.4 0-1.4-7.4-5.6-9.7-5.6-1.6 0-2 3.6-1 9.5 2.8 17.3 1.8 25.4-3.2 25.6-3.8.2-5.6-.2-5.9-1.2-.2-.5-1.5-.9-2.8-.9-2 0-2.4-.5-2.4-2.8 0-1.9.7-3 2.3-3.7 2-.9 2.2-1.8 2.5-9.7.3-8.7-1.4-15.8-3.7-15.8-.6 0-1.1-2.2-1.1-5 0-4.3-.3-5-1.9-5-1.7 0-2-.8-2.3-5.3l-.3-5.2-13.5-.6c-7.4-.4-15.7-1.2-18.5-1.9-2.7-.7-6.7-1.2-8.7-1.1-3 .1-4.4-.5-7.5-3.4-2-1.9-4.1-3.5-4.5-3.5s-.7-.6-.5-1.3c.1-.6-.4-1.1-1.1-.9-.8.1-1.1-.2-.7-.8.3-.5-.1-1.3-1-1.7-1-.3-2 0-2.5.6-.5.9-.9.8-1.4-.4-.3-.9-.4-2.1 0-2.6.3-.5-2.6-.9-6.8-.8-5.2.1-6.6.3-4.8.9"/><path d="M1099.6 391.1c-1.7.4-3.2.6-3.4.4s-1.9 1.7-3.6 4.3c-1.8 2.6-4.2 5.1-5.4 5.7-1.2.5-2.2 1.3-2.2 1.7 0 .5-.6.8-1.2.8-2 0-6.8 4.5-6.8 6.4 0 2.2-1.7 2-2.5-.3-.3-1.2-1.9-2.1-4.1-2.5-4-.8-5.4-.2-5.4 2.4 0 1-.6 2.1-1.2 2.3q-1.5.6 0 .6c.7.1 1.2 1.4 1.2 3.2 0 1.9.4 2.8 1.1 2.3.6-.3 1.5 0 2 .7.6 1 .9 1.1.9.1 0-.6.6-1.2 1.4-1.2s1.6-.6 1.9-1.3c.2-.7 1.7.1 4 2.3 2 1.9 4.4 4.1 5.3 4.9 1.9 1.6 14.7 1.8 19.5.2 1.9-.5 4.8-1.3 6.4-1.6 1.7-.3 3.7-.7 4.4-.9.8-.1 1.7-.9 1.9-1.7.3-.8.9-1.7 1.5-2 .6-.4.6-2.3-.1-5.2-1-4.9-.6-9.7.9-9.7 1.8 0 .9-6-1.1-7.7-1.1-1-2-2.3-2-2.9 0-2.4-7.4-3.2-13.4-1.3M932 486c0 1.1-.4 2-1 2s-1 2.8-1.1 6.2c-.1 5.9-.1 6.1-1.1 2.8-1.4-4.9-2.8-6.1-1.8-1.4.5 2.2 2.1 9.2 3.5 15.6 1.5 6.5 3.1 11.8 3.6 11.8s.9-.5.9-1c0-.6 1.9-3 4.3-5.4 6.7-6.9 9.7-10.5 12.9-15.2 1.6-2.4 3.3-4.4 3.7-4.4s1.4-1.1 2.1-2.4c1.8-3.6-.3-8.6-3.6-8.6-1.3 0-2.4-.5-2.4-1 0-.6-4-1-10-1-9.3 0-10 .1-10 2M179.4 492.8c-1.1.2-2.4.9-2.9 1.5-1.4 1.6-6 4.4-11.2 6.7-4.5 2-5 2.9-3.2 6.1.9 1.8 1.9 1.9 10.9 1.7 5.4-.2 9.6-.5 9.4-.7-1.5-1.5 7.6-11.1 10.6-11.1.7 0 .8-.6 0-1.9-.7-1.4-2.3-2-6.4-2.3-2.9-.1-6.2-.1-7.2 0M914.8 497.2c-1.7.6-2.8 1.7-2.8 2.9 0 1-.6 1.9-1.4 1.9-2.2 0-6.8 4.1-6.2 5.6.4 1.1-.9 1.3-6.2 1-3.7-.2-7.9-.7-9.4-1.1-2.7-.7-2.8-.6-2.8 3.6 0 2.4.4 7.1.9 10.4.6 3.3 1.2 7.6 1.5 9.5s1.2 8.2 2 13.9c.9 5.8 1.6 11 1.6 11.8 0 2.2 1.3 1.5 6.5-3.7 2.8-2.7 5.5-5 6-5 .6 0 2.8-1.7 5-3.6 2.2-2 7.4-6.3 11.5-9.6s7.8-6.6 8.1-7.2c.6-1.2-1-12.1-3.4-22.1-1.1-4.7-1.9-6.3-4.3-7.6-3.4-2.1-3.1-2-6.6-.7M806.1 509.3c.8 1.7 1.8 2.3 3.7 2.2 2-.2 2.1-.1.5.2-1.5.3-2.3 1.2-2.3 2.4 0 1.4-.7 1.9-2.5 1.9-2.2 0-2.5.4-2.5 3.7 0 4.3-2.9 13.3-4.3 13.3-1.5 0-6.6-4.7-5.9-5.4.3-.4-.2-.4-1.2 0s-2.1.2-2.5-.4c-.5-.8-1.5-.7-3.5.3-1.6.8-3.5 1.5-4.2 1.5-.8 0-1.4 1.1-1.5 2.7 0 2.5-.1 2.6-.9.8-.7-1.8-.9-1.6-1.5 1.2-.4 1.8-1.1 3-1.6 2.8-1.7-1.1-1.8 1.5-.1 3.2 1.1 1 8.5 8.3 16.5 16.2 8.3 8.1 14.3 13.4 14 12.2-.3-1.1-.9-2.1-1.3-2.1s-.5-1.1-.2-2.5c.6-3.3 2-3.2 2.8.2 1.5 6.9 1.5 6.9 3.1 3.7.9-1.6 3.5-5.9 5.9-9.6s4.4-7 4.4-7.4c0-.3.9-1.8 1.9-3.3 3.3-4.6 8.1-13.8 8.1-15.5 0-.9.4-1.6 1-1.6 1.5 0 3.2-3.9 2.5-6.1-.4-1.3-1.3-1.8-2.3-1.5-4.6 1.4-7.2 1.4-7.2.1 0-.8-1.2-2.6-2.7-4.1-2.6-2.6-2.6-2.8-.8-3.4 1.8-.7 1.8-.8-.5-1.5-1.4-.4-2.7-.7-2.9-.6-.2.2-.7-.1-1-.6-.7-1-9.8-5.3-11.1-5.3-.6 0-.5.9.1 2.3M866.6 508.7c-2.1.3-4.5 1.1-5.3 1.9s-3.6 1.5-6.4 1.5c-7.2.3-7.3.3-8.2 1.7-.5.7-1.8 1-3.3.6-2.7-.7-2.9.1-1.4 4.1.8 2.1 1.5 2.5 3.3 2q2.25-.6.9.3c-1.1.7-.8 1.4 1.3 3 1.5 1.2 3.2 1.9 3.8 1.5.5-.3.7-.2.4.4-.7 1.1 4.4 5.7 24.1 21.6 13.1 10.6 13.4 10.8 12.9 7.5-.9-4.8-4.7-33.1-4.7-34.6 0-.7-.4-1-1-.7-.6.4-1-.5-1-1.9s-.4-2.6-1-2.6c-.5 0-1-.7-1-1.5s-.7-1.6-1.5-1.6c-.8-.1-1.9-.3-2.5-.4-.5-.1-1.7-.3-2.5-.4-.8 0-1.5-.8-1.5-1.6s-.3-1.4-.7-1.3c-.5.1-2.6.3-4.7.5M958.5 520.8c-1.1 1.5-1.9 3.1-1.7 3.5.1.5-.2.6-.7.3s-2.4 1.3-4.3 3.6c-1.8 2.4-4 5.2-4.8 6.2-.8 1.1-2.9 3.5-4.5 5.5-5.4 6.3-6.4 8.4-5.1 10.6.6 1.1 1.3 2.2 1.6 2.5 1.2 1.2 3.3 6 2.8 6.5-.3.3-1.9-1-3.6-2.9l-3.1-3.5-1.5 4.7c-1.4 4.3-6.7 24.2-12.1 45.2-1.2 4.7-2 8.7-1.7 9 .2.3.7-.1 1-.9.2-.7 1.5-2.5 2.8-4 1.3-1.4 4.3-5.1 6.6-8.1s4.5-5.7 4.9-6c.6-.6 10.3-14.5 13.3-19.3 1.4-2.2 1.6-3.2.8-3.5-.7-.2-1.2-1.1-1.2-1.9 0-.9.6-1.3 1.4-1 1.6.6 4.3-6.7 9.5-25 4.7-17 5.2-20.3 3.2-22.4-1.5-1.6-1.7-1.6-3.6.9M319 528.2c0 2.6.3 3 1.1 1.8.7-1.1.9.4.5 5-.5 6.5.4 10.4 1.8 8.1 1.2-1.8 4.4-1.2 8.7 1.6 3.5 2.3 3.9 2.8 2.5 3.9-.9.6-1.6 2.1-1.6 3.3 0 1.1-.5 2.1-1.1 2.1s-.9.7-.5 1.5c.3.8.1 1.5-.4 1.5-.6 0-1 .4-1 1 0 .5.7 1 1.5 1 .9 0 1.8.7 2.1 1.5.4.8 1 1.2 1.5.9s.7-.9.4-1.4-.1-1.2.5-1.5c.7-.5.8-1.1.1-1.9s-.1-1.5 2-2.5c2.1-.9 2.8-1.8 2.4-3q-.45-1.8 1.5-2.7c1.9-.9 1.8-1-.9-4.1-1.5-1.8-3.1-3-3.5-2.6-.3.3-.6 0-.6-.8 0-.9-.7-2.4-1.6-3.5-.8-1-1.2-1.2-.8-.4s-.6.2-2.4-1.5c-1.8-1.6-2.8-3.1-2.2-3.3.5-.2.4-.9-.3-1.6-.6-.8-1.8-1.1-2.6-.8-1 .4-1.3.1-.8-1.2.4-.9.3-1.5-.2-1.2s-1.4-.1-2.1-.9c-2.2-2.6-4-1.8-4 1.7M837.1 529.6c-.9 2-.8 2.2.7 1.8.9-.3.6.1-.8.9-1.4.9-3.6 3.5-4.9 5.9-1.3 2.3-6.7 11.5-11.8 20.2-5.2 8.7-9.2 16.4-8.9 17.1.9 2.4 24.6 39.3 26 40.4 1.1.9 3.2-.9 11.2-9.6 5.5-5.9 12.2-13.2 15-16.3 11.6-12.5 21.3-23.8 23-26.7 1.4-2.4.9-3.1-7.1-9.9-16.2-13.8-27.8-22.5-28.5-21.4-.5.8-2 .9-4.6.4-4.5-.8-6.7-2.2-6-3.9.8-2.2-2.2-1.2-3.3 1.1M746.3 532.6c-.1 1.9.1 3.3.4 3s1.1.1 1.9.8c1.5 1.5 6.4 11.9 6.4 13.5s2.9 1.3 4.6-.4c.8-.8 2.2-1.8 3-2.3s1.6-1.6 1.8-2.6c.1-1 .9-2.2 1.7-2.7 1.2-.8 1.1-1.1-.6-2.1-1.1-.7-2-1-2-.8 0 .9-6.3-5.7-6.8-7.1-.3-.9-2-1.9-3.7-2.3-6-1.1-6.6-.9-6.7 3M928.7 533.8c-1 1-1.4 2.2-1 2.7.5.4.2.5-.5.1-.8-.5-3.6 1-7.5 4-3.4 2.7-6.4 5.1-6.7 5.4-.3.4-1.2 1.1-2.2 1.6-.9.5-3.4 2.5-5.5 4.4s-5.7 5-8 6.8-4.4 4.1-4.7 5c-.5 1.5-3.6 34.6-3.6 38.2 0 2 1.5.1 24.5-30.3 10.8-14.2 19.3-26.1 19.1-26.5-.3-.4-.6-3.6-.8-7-.1-3.4-.5-6.2-.9-6.2-.3 0-1.3.8-2.2 1.8M644.3 537.7c-.8.3-1.3 2.1-1.3 4.3 0 2.1-.4 4.2-1 4.5-.5.3-1 .1-1-.5s-.5-.8-1.1-.4c-.8.4-.9-.3-.5-2.2.3-1.6.2-3.6-.4-4.4-.6-1-1-1.1-1-.3 0 .7-.9 1.3-2 1.3s-2 .4-2 1c0 .5.9 1 2 1 2.1 0 2.5.8 1.2 2.6-.4.7-2.1.7-4.9.2-3.1-.7-4.3-1.4-4.6-3.1-.3-1.2-.3.5-.1 3.8.3 4.2.9 6.4 2.2 7.3 2.1 1.6 10.7 1.2 10.7-.5 0-2.1 1.4-2.5 4.4-1.5 2.7 1 3 .8 4.2-2 .7-1.7 1.3-4.6 1.3-6.6.1-3-.3-3.7-2.4-4.2-1.4-.4-3.1-.5-3.7-.3M354.3 540c-1.3.5-2.3 1.6-2.3 2.5 0 .8-.7 1.5-1.5 1.5-1.9 0-1.9 1.9.1 4.1.8.9 1.7 2.4 1.8 3.3s1.3 2.8 2.6 4.3c1.4 1.6 4 5 5.9 7.8 1.9 2.7 3.8 5.1 4.3 5.3.4.2.8.9.8 1.6s1.5 2.9 3.3 4.8c1.7 2 6.4 8 10.2 13.3 3.9 5.4 7.8 10.7 8.8 11.8.9 1.1 1.7 2.5 1.7 3 0 .6.2.8.5.6.6-.7-3.2-34.2-4.5-38.9-.8-3-1.9-4.3-5.2-6-2.4-1.2-5.5-3.3-7-4.5-1.5-1.3-3.8-2.7-5-3.1-2.2-.7-2.2-.7-.3-1.5 1.7-.6 1.5-.8-1-.8-1.7-.1-4.1-.8-5.3-1.7-1.9-1.3-2.1-1.8-1-3.2.7-1 .9-1.4.4-1-.4.4-1.8-.4-3-1.7-1.7-1.9-2.6-2.2-4.3-1.5M777 546c1.2.8 1.1 1-.7 1-1.2 0-3.5 1.2-5 2.6s-5 3.7-7.6 5c-2.6 1.4-5 3.1-5.4 3.9-.7 2 10.9 20.6 17.1 27.4 5.4 5.8 20.6 18.2 21.5 17.6.6-.3.8-3.8.5-7.8-.4-7-.4-7.1.9-3.2 1.3 4 2.2 3.9 3.1-.6.8-3.8 3.9-12.4 4.6-12.9.4-.3.6-1.8.6-3.3-.1-2.3-3.1-5.7-14.6-16.7-8-7.7-14.9-13.9-15.5-13.9-.5-.1-.3.4.5.9M406.7 547.8c-1 1-1.4 2.1-1.1 2.5.4.3.3 1.4-.1 2.4-.7 1.6-.8 1.5-1.4-.6-.6-2.3-.7-2.3-2.1-.5-.9 1-1 1.5-.2 1 1.9-1.1 1.4.9-.7 2.8-1.5 1.3-2 1.4-2.4.4-.3-.9-1.2-.6-3.1 1.1-1.4 1.4-2.4 2.7-2.1 2.9.3.3 0 1.1-.6 1.9-.9 1-.2 2.2 3 5.3 2.2 2.2 3.9 4 3.6 4-.6 0 3.1 4.3 9.5 11.1 1.9 2 6.9 7.5 11 12 4.1 4.6 10.5 11.5 14.3 15.3 8 8.2 7.4 8.3 15.8-5 3-4.8 7.1-11.2 9.1-14.3s4.3-6.7 5.1-8.1c.7-1.4 2.1-3.7 3-5.1 1.6-2.5 1.6-2.7-.3-4.9-1.1-1.3-2-2.7-2-3.2s-.5-.6-1.2-.2-.8.3-.4-.4c1-1.6-6.5-13.1-8.1-12.5-.9.4-1.3-.4-1.3-2.3 0-2.8-2-7.3-2-4.7 0 .7-.8 1.3-1.7 1.3-2.1.1-5.3 2.3-5.3 3.7s-6.7 1.5-9.3.1c-1.2-.7-6-1.5-10.7-1.8-7.5-.4-8.5-.7-8.9-2.5-.2-1.1-.8-2.3-1.5-2.7-2-1.4-6.3-.8-7.9 1M496.5 551.1c-1.6 1.6-2.9 3.6-2.7 4.5q.3 1.5-1.5 1.2c-1.1-.2-1.7.2-1.5 1 .1.8-.2 1.1-.8.7-1.4-.9-17 14.4-17 16.7 0 1.6.6 1.8 4 1.4l3.9-.4-.6 4.1c-.3 2.3-1 4.7-1.5 5.4-1.2 1.5-.4 5.2 2.6 12.6l2.2 5.6 2.5-2.2c1.3-1.2 4.7-4 7.4-6.1 6-4.8 17.5-16.5 17.5-17.8 0-.6.8-2.2 1.9-3.6 2-2.8 5.4-8.8 7.9-13.5 1.1-2.3 1.2-3.1.2-4s-1.1-.9-.6 0-.1 1.3-1.8 1.3c-1.6 0-2.6-.6-2.6-1.5 0-.8-1.3-2.1-3-3-1.6-.9-3-1.9-3-2.3s-1-.8-2.2-.9c-1.1-.1-2.4-.6-2.7-1.2-.4-.6-1.2-.6-2.1-.1-.8.5-1.9.5-2.5.1-.6-.5-2.2.3-4 2M342.2 556.4c-1.2 1.6-1.9 3.2-1.6 3.7.2.5-.4 1.4-1.6 2.1-1.1.7-2 2-2 2.8s-.9 2.1-2 2.8-2 1.9-2 2.7-.5 1.5-1 1.5c-1 0 1.9 4.7 4.8 7.8.6.7 1.7 2.2 2.3 3.3.5 1.1 1.4 1.7 1.8 1.4.5-.3 1.2.6 1.5 2 .4 1.4 1.1 2.5 1.7 2.5s.8.4.5.9c-.6.9 6.2 10.4 9.7 13.6 1.2 1.1 2.8 3.2 3.6 4.7 2.5 4.8 2.8 3.1.9-4.3-2.5-10-9.8-36.1-10.5-37.9-.3-.8-.8-2.6-1-3.9s-1-3.7-1.6-5.4l-1.3-3zM349.3 555.5c.3 1.1.9 3.3 1.3 5 .9 4.3 4.6 16.8 5.2 18 .3.5.7 2.3.9 4 .3 2.8 3.7 16 6.9 26.9.8 2.6 1.4 5.4 1.4 6 0 .7 1.6 3.9 3.6 7.2 2.1 3.2 5.4 8.8 7.4 12.4 4.6 8.1 21.1 35.3 21.8 36 .5.5.2-2.6-1.8-20.5-1.6-14.5-1.9-17.5-2.6-27-.3-5-1.3-10.5-2-12.3-1.1-2.8-6.2-10.1-8.4-12.2-.3-.3-1.8-2.4-3.4-4.8-1.6-2.3-3.2-4.2-3.7-4.2-.4 0-1-.9-1.4-1.9-.3-1.1-2.4-3.9-4.7-6.3-2.2-2.4-5.4-6.2-7-8.6-1.6-2.3-3.3-4.2-3.8-4.2-.6 0-1-.7-1-1.5 0-.9-1-2-2.2-2.5-1.3-.5-2-.9-1.6-.9.4-.1-.4-2.2-1.9-4.9-3-5.5-3.8-6.4-3-3.7M929.1 556.3c-.5 1.3-2.2 4-3.8 5.8-1.5 1.9-4.2 5.2-5.9 7.4s-5.3 6.9-8 10.4-6 7.8-7.4 9.6-5.4 7-8.9 11.6c-7.1 9.3-7.6 10.5-8.5 21-.4 4.1-1.3 13.5-2.1 20.9-2.3 22-2.7 28-2.1 28 .3 0 1.3-1.5 2.2-3.3.9-1.7 2-3.4 2.3-3.7.4-.3 3.6-5.4 7.1-11.3 3.6-6 7.3-12.1 8.2-13.5.9-1.5 2.5-4.3 3.6-6.2 4.6-8.3 6.5-11.6 7.2-12.5 1.1-1.4 3.5-9.5 8.5-29 2.4-9.4 5.5-21.5 6.9-26.9 2.5-9.3 2.8-14 .7-8.3M616.9 559.5c-.3.2-3.3.5-6.7.6l-6.1.2-.5 4.1c-1.8 14.8-1.9 13.9 1.6 17.3 3 2.7 8.9 6.4 10.3 6.3.3 0 1.5.9 2.7 1.9 1.1 1.1 2.5 1.8 3 1.5.4-.3.8-7.8.8-16.7-.1-11.6-.4-15.7-1.1-14.4-.6.9-1.5 1.5-2 1.2-.5-.4-.7-1.1-.4-1.6.6-.9-.8-1.3-1.6-.4M657.4 561.7c.2 1.6.1 2.1-.1 1.3-.7-2.1-2.3-3.7-2.3-2.2 0 .7-.5 1.2-1.1 1.2s-3.5 1.5-6.5 3.2l-5.4 3.3v12.2c0 6.8.4 12.3.9 12.3s1.1-.4 1.3-.8c.2-.5 2.8-2.5 5.8-4.5 10.8-7.1 10.3-6.2 9.5-18.2-.4-5.8-1.1-10.5-1.6-10.5s-.7 1.2-.5 2.7M662 560.6c0 .7.5 1.6 1.2 2s.8.3.4-.4q-.75-1.2 1.8-1.2c3.7 0 4.3 4.5 1.5 10.3-1.2 2.5-2.6 4.4-3.1 4.1-.4-.3-.8 3.1-.8 7.6v8.1l4.8-.6c11.6-1.5 11.2-1.3 11.1-4.8 0-1.8-.3-2.6-.6-2-.3.9-1 1-2.3.3-1.7-.9-1.7-1.3-.4-3.8.7-1.5 1.5-4.1 1.5-5.7.2-2.3.4-2 .9 1.5.6 4 .7 3.7.8-3.1.1-4.2-.3-9-.9-10.8l-1.1-3.1-7.4.1c-5.4.1-7.4.5-7.4 1.5M626.4 562.8c-.6.4-1.4 5.6-1.7 12.2l-.7 11.5 5.5 2.7c3 1.6 6.1 2.8 6.9 2.8s1.6.6 1.9 1.2c.8 2.3 1.8-9.5 1.5-17.1l-.3-7.5-5.5-3.2c-6.1-3.7-6.1-3.7-7.6-2.6M888 567c0 1-1.7 3-9 10.9-1.4 1.5-5.9 6.5-10 11.2-4.1 4.6-10.6 11.8-14.5 15.9-3.8 4.1-8.5 9.2-10.4 11.2l-3.4 3.7 3.1 10.3c1.7 5.7 4.5 15.9 6.2 22.8s3.3 12.6 3.5 12.8c.1.2 2.2-3.2 4.5-7.5 2.4-4.3 5.2-9.4 6.3-11.3 19.2-33.5 21.3-38.5 22.6-51.5 1.7-17.8 2.4-29.5 1.7-29.5-.3 0-.6.5-.6 1M391.4 578c1.6 23.4 2.4 27.9 6.8 37 2.3 4.7 6.7 13 9.8 18.5s8.3 14.8 11.4 20.7c3.2 6 6.1 10.8 6.4 10.8.4 0 2-5.3 3.6-11.8 3.5-14.4 7.3-26.9 9.1-30.2 1.3-2.3 1.1-2.7-2.8-7-3.1-3.5-28.1-29.9-38.7-41-.8-.8-2.6-2.9-3.9-4.5l-2.4-3zM809.2 578.8c.4 1.2.3 2.2-.2 2.2-1 0-4.2 7.6-7.5 17.5-1.4 4.2-2.5 7.9-2.5 8.1 0 1.1 28.8 22.4 30.3 22.4.6 0 .8-.2.5-.5s1.2-2.4 3.4-4.6c3.9-4 3.9-4 2.2-6.7-1-1.5-5.8-9-10.7-16.7s-10-15.4-11.3-17.2c-1.3-1.7-2.4-3.6-2.4-4.2 0-.5-.5-1.3-1.2-1.7-.8-.5-.9 0-.6 1.4M760.4 583.4c-.3 1.7-2.6 9.5-5 17.3s-4.4 14.6-4.4 15.1 2.2-1.1 4.8-3.7c2.6-2.5 6.6-5.9 8.7-7.5 2.2-1.7 4.2-3.3 4.5-3.6s1.7-1.1 3.3-1.7c4.8-2.2 2.9.4-4.5 6.1-4 3-9.3 7.3-11.7 9.5s-4.8 4.2-5.4 4.4c-1.7.5-.3 1.9 9.6 10 8.6 7 12 9.1 11.5 6.9-.3-1.1 1.3-7.6 2.2-8.7.4-.6 1.2-2.4 1.9-4 1.1-2.9 1.1-2.9.6 1-.3 2.2-.8 5.1-1.1 6.5-.6 2.5-.6 2.5 2.3-.5 1.6-1.7 4.2-4.8 5.8-7s4.1-5.2 5.5-6.7 3.4-4.3 4.4-6.3l1.9-3.5-4.9-4.5c-2.7-2.4-5.5-4.2-6.2-4-.7.3-1.1.1-.8-.4.3-.4-.3-1.6-1.4-2.6-1.2-1-2-1.3-2-.7 0 .7-.7 1.2-1.6 1.2-1.1 0-1.4-.6-.9-2.1.9-2.7-6.8-10.9-10.2-10.9-1.3 0-2.3-.4-2.3-.9s-.9-1.1-1.9-1.4c-1.6-.4-2.1.2-2.7 2.7M513.6 583.5c-2 1.4-4.3 2.5-5 2.5-1.8 0-6.6 5.3-6.6 7.3 0 .9.5 1.7 1.1 1.7.5 0 .7.4.4 1-.8 1.3-4.5 1.3-4.5-.1 0-1-3.2 1.3-11 7.9l-3.5 3 1.9 3.4c1.1 1.8 2.6 3.9 3.3 4.6.7.8 2.6 3 4.1 5 1.5 2.1 3.5 4.6 4.5 5.7s2.7 3.5 3.8 5.2c2.2 3.5 4.6 4.6 3.4 1.5-.9-2.3-3.5-15.9-3.4-18 .1-4 5.9 16.8 5.9 21 0 1 .3 1.8.8 1.8 1.1-.1 19.5-15.4 19.9-16.6.2-.6-2.5-3.3-5.9-6-3.5-2.6-8.5-7-11.3-9.6-2.7-2.7-5.3-4.8-5.8-4.8-.4 0-.5-.5-.2-1 1-1.6 2.2-1.2 4.9 1.5 1.4 1.4 2.9 2.5 3.3 2.5s2.2 1.4 3.8 3.1c4.3 4.5 10.5 9.2 10.5 8.1 0-.5-1.8-6.3-4-12.9-3.4-10.2-4.5-14.6-4.9-19.6-.2-1.3-1.7-.8-5.5 1.8M463.4 587.8c-1.7 2.6-5.7 8.7-8.9 13.7-3.1 4.9-7 11-8.7 13.4-2.9 4.3-3 4.5-1.2 6.1 2.2 1.8 4.2 4.8 5 7.2.5 1.5 1.4 1.1 6.3-2.4C461 622 481 606 481 605.6c0 0-1-2.8-2.3-6.1-3.6-9.8-3.8-10-9.8-9.8-3.2.1-4.7-.2-3.8-.7.7-.5 1-1.2.6-1.6s-.2-1.3.5-2.1c.6-.7.9-1.5.7-1.7s-1.8 1.7-3.5 4.2M941.9 589.3c-1.9 2.3-4.6 5.8-5.9 7.7-3.1 4.5-13.8 18-16.2 20.3-2.2 2.2-2.3 3.7-.3 6.3.8 1 1.5 3.3 1.5 4.9 0 2.7 4.4 20.2 5.2 21.1.2.2 1.7-4.3 3.2-9.9 1.6-5.6 4.6-15.3 6.7-21.6 2.2-6.3 3.9-12.4 3.9-13.6 0-1.1.4-2.5.8-3.1 1.1-1.2 5.5-15.4 5-15.9-.2-.3-2 1.5-3.9 3.8M948 591.5c-.6 1.5-1.5 4.6-2 6.9-.5 2.2-2.1 7.2-3.5 11.1-3.2 8.5-10.5 31.8-10.1 32.3.2.2 1.9-2.3 3.7-5.5s4.1-7.2 5.1-8.8c4.4-7.4 5.7-10.5 5.2-11.9-.4-1.1 0-1.6 1.2-1.7 1.1 0 1.4-.3.7-.6-.9-.3-1.3-2.5-1.2-6.1.1-5.6.1-5.7 1.4-2.7l1.4 3 .2-3c.3-5.7 0-14.7-.5-15.2-.3-.3-1 .7-1.6 2.2M338.3 591.8c-1.3.8-1.1 1.7 2.4 14.2.8 3 2.1 7.1 2.8 9 2.9 7.7 6.1 19.1 8.2 29.2.3 1.6.8 2.8 1.2 2.8.6 0 5-12.7 6.7-19 .3-1.4 1.3-3.5 2.1-4.8 1.3-2.1 1.3-2.6-.1-4.7-1.6-2.5-21.5-27.5-21.9-27.5-.1 0-.7.4-1.4.8M332 598.5c0 1.4-.7 2.8-1.5 3.1-1 .4-1.3 1.5-.9 3.7.7 4.2 4.2 12.5 6.6 15.9 1.1 1.6 1.6 2.8 1.2 2.8-.3 0-.1.7.6 1.5.6.8 2.8 4.5 4.7 8.2 3.7 7.3 5.9 10.2 5 6.8-.3-1.1-1.1-4-1.7-6.5-1-3.7-4.4-14.3-11.4-34.8-1.3-3.8-2.6-4.2-2.6-.7M642.1 605.2c-.1 4.5-.4 8.5-.7 9-1 1.5 1.3.8 4-1.3 1.9-1.5 2.5-2.7 2-4.1-.4-1.3-.1-1.8.8-1.6 1.4.3 6.5-2.8 8.6-5.2.8-.8 1-.9.7-.2-1.2 2.4-1.3 6.3-.1 5.9 1.3-.4 2.2-8.8.9-8.6-.4.1-1.2 0-1.8-.1-.5-.1-3.9-.1-7.4 0-4.3.1-6.1-.2-5.6-.9.3-.6.2-1.1-.3-1.1s-1 3.7-1.1 8.2M466.2 620.8l-13.3 10.7 4.8 4.5c2.7 2.5 8.1 7.3 12.1 10.8 8.4 7.5 7.6 8.6 9.2-12.3.6-7.7 1.3-16.4 1.6-19.3.3-2.8.1-5.2-.3-5.1-.4 0-6.8 4.8-14.1 10.7M799.4 616.1c.6 6.5 1 12.6 2.2 28.1.4 6.6.9 8.8 2 8.8.8 0 1.4-.4 1.4-.8s4.9-5.2 11-10.7c10.3-9.2 10.9-10 9.2-11.5-.9-.9-7.3-5.8-14.1-10.9l-12.4-9.4zM482 616.5c0 3.1-.4 9.7-.9 14.8-2.3 22.3-2.3 23.7-.6 23.7.9 0 2.8-.8 4.3-1.9 1.5-1 6.6-4.4 11.5-7.5 4.8-3 8.7-5.8 8.7-6.1s-.4-1.1-1-1.8c-2.2-2.7-9.9-12.6-15-19.5-3-3.9-5.8-7.2-6.2-7.2-.5 0-.8 2.5-.8 5.5M785.3 625.3c-6.1 7.8-10.9 14.5-10.6 15 .9 1.4 24.4 14.9 25 14.3.7-.7-1.5-35.6-2.6-40.5-.6-2.9-.9-2.6-11.8 11.2M880.2 624.3c-2.3 4.5-8.5 15.6-13.8 24.7-8 13.8-9.4 17-9 19.7.3 2.4.1 3.1-.9 2.7-2.2-.9-2.3.7-.9 12.6.7 6.3 1.8 16 2.4 21.5s1.3 11.1 1.6 12.5l.6 2.5 1.3-2.5c.8-1.4 1.4-3.1 1.5-3.8 0-1.4 3.8-10.4 9.2-22.2 5.8-12.5 6-13.1 4.7-14.6-.9-1.1-.8-1.4.3-1.4s1.7-2.9 2.6-12.3c.7-6.7 2.1-20.1 3.1-29.7 1.1-9.6 1.8-17.6 1.7-17.7-.1-.2-2.1 3.4-4.4 8M395.4 619.7c.2 1 .7 4.9 1 8.8.3 3.8 1.6 15.9 2.8 26.8 2.2 19.4 2.3 19.8 4.5 19.2 1.2-.3 2.5-.1 2.8.5.3.5 0 1-.8 1s-2 .6-2.6 1.4c-1.3 1.5-1.5 1 6.1 17.6 1.7 3.6 4.1 9.4 5.5 13 4.9 12.8 4.4 13.1 6.9-4.5 1.3-8.8 2.6-19.9 3-24.6l.6-8.7-4.3.8c-4.9.9-6.8.5-2.3-.5 5.7-1.3 5.6-1.2 3.3-5.7-1.2-2.4-6.7-12.4-12.2-22.3-5.6-9.9-10.8-19.4-11.7-21.2-1.6-3.4-3.5-4.5-2.6-1.6M734.5 620c-2.6 2.5-9.8 8-10.4 8-.4 0-1.6.8-2.7 1.9-1.1 1-3 2.3-4.1 2.9s-2.3 2.4-2.6 3.9c-.6 3 0 4.4 1.1 2.7.4-.6 4.1-3 8.2-5.4 7.6-4.3 15.1-9 16-10.1.3-.3 1.4-.9 2.5-1.3 1.7-.7 1.4-1-2-2.2-4.6-1.6-4.7-1.6-6-.4M437.1 632.4c-3.3 10.5-8.2 29.8-7.6 30.4.1.2 1.2-1.2 2.2-3 1.1-1.8 5.3-8.6 9.2-15 3.9-6.5 7.1-12 7.1-12.3 0-.5-7-10.5-7.4-10.5-.1 0-1.7 4.7-3.5 10.4M530 623.7c-.8.3-1.7.9-2 1.2-.3.4-4 3.5-8.2 6.9-8.4 7-9.7 8.8-6.8 9.7 1.1.4 2.6 1.2 3.2 1.9 3.1 3 15.6 9.2 28.8 14.1 3 1.2 3.7 1.1 5.3-.3 1-.8 1.5-2.3 1.2-3.3-.9-2.8-9.7-16.9-14.3-23-2.3-3.1-4.2-6.1-4.2-6.7 0-1.3-.6-1.4-3-.5M741.8 632.3c-3.7 5.1-8.5 12.1-10.8 15.6l-4.2 6.4 2.6 2.5 2.5 2.6 6.3-2.8c12.5-5.6 24.4-11.7 27.3-14.1l3-2.4-4.5-4.3c-4.3-4.1-12.3-10.7-14.5-12-.6-.4-4 3.5-7.7 8.5M835.1 626.7c-1.7 2.1-3.1 4.4-3.1 5.2 0 1.5 16.7 30.1 17.6 30.1.5 0 .2-1.6-3.2-15.5-2.9-12-5.3-19.4-6.9-21.8-1.2-1.7-1.5-1.5-4.4 2M950 625.4c0 1.4-.5 3.7-1.1 5.3-.6 1.5-2.8 10.2-5 19.3s-4.8 19.6-5.9 23.5c-1 3.8-1.7 7.1-1.5 7.3.4.5 8.5-16.7 8.5-18.1 0-.7.6-2.1 1.4-3.2 1.8-2.6 3.7-11.9 3.5-17.5-.1-2.5.3-7.8.8-11.8.5-3.9.6-7.2.1-7.2-.4 0-.8 1.1-.8 2.4M361.8 628c-2 4.5-4.4 12.3-5.9 19.9l-1.3 5.9 4.9 7.4c2.7 4 5.2 7.5 5.5 7.8.4.3 2.6 3.5 5 7.3 2.4 3.7 4.5 6.5 4.7 6.3s-.1-2.3-.6-4.7c-.6-2.4-2.8-14.1-5.1-25.9-2.2-11.8-4.4-22.9-4.9-24.5l-.8-3zM915.7 626.6c-.3 1-1.5 7.3-2.7 13.9s-3.4 18.7-5.1 27c-1.6 8.2-2.9 15.3-2.9 15.8 0 .9 8.9-11.7 11.8-16.6 1-1.6 3.2-4.9 5-7.3l3.3-4.4-2.6-11.3c-1.4-6.1-2.8-12.1-3-13.2s-1.1-2.9-1.8-3.9c-1.4-2-1.5-2-2 0M539.1 628.6c.9 1 3 4.5 4.8 7.7 1.8 3.1 3.8 6.3 4.4 7 .7.6 2.1 3.1 3.1 5.4 1.1 2.4 2.3 4.3 2.8 4.3.4 0 .8-2.1.9-4.8 0-2.6.5-5.6 1-6.7.6-1.4.8-.4.6 3.7-.4 6.2.7 6.8 3.7 1.8.9-1.7 2.1-3 2.7-3 2.5 0 .2-2-6.8-6-4.3-2.3-8.5-4.8-9.3-5.5-.8-.6-3.3-2.2-5.5-3.5-3.5-2-3.8-2.1-2.4-.4M739.5 628.2c-1.1.6-4.6 2.8-7.7 4.9-3.2 2.2-6.2 3.9-6.6 3.9-1.7 0-10.3 6.3-9.5 6.9.5.3 1.9 2.1 3.2 3.8 1.2 1.8 3.1 3.3 4.1 3.3s2 .6 2.3 1.2c.2.7 1.2-.3 2.2-2.2 2.4-4.7 10.4-17 12.8-19.7s2-3.6-.8-2.1M368.5 631c1.4 9.9 2.9 19.2 6.1 36.5 1.9 10.4 3.6 19 3.7 19.2.4.4 16.2-7.9 17.6-9.3 1.3-1.2 1.2-1.6-.2-3.2-.9-1-1.7-2.2-1.7-2.6 0-1.1-19.9-34.4-21.6-36-.7-.8-2-2.9-2.8-4.7l-1.5-3.4zM943 631.2c-.8 1.8-2 4.1-2.9 5.1-1.5 1.8-2.4 3.1-9 14.2l-3.4 5.7.7 10.2c.9 12.1 2.5 20.6 3.6 18.5.4-.8 1.7-5.5 2.8-10.4 1.2-5 3.3-14 4.7-20 1.4-6.1 3.4-14.5 4.4-18.8 1.9-7.9 1.4-10.3-.9-4.5M335.5 633.5c.4 2.7 1.9 10.2 3.5 16.5 1.5 6.3 3.6 14.9 4.5 19 1 4.1 2.4 9.7 3.3 12.5l1.5 5 1.3-4.5 1.2-4.5.1 7.8.1 7.8 6.2 9.4c3.4 5.2 6.3 9.3 6.4 9.2s-.7-4-1.7-8.7-3.1-14.1-4.5-21c-1.4-6.8-3-13.3-3.4-14.5-.8-1.7-.9-1.6-1 1 0 3.3-1.5 6.3-2.5 5.3-.4-.3-.1-4 .5-8.2 1.3-8.7 1-10-3.6-17.2-1.9-2.9-3.4-5.7-3.4-6.1 0-.5-1.3-2.4-3-4.3-1.6-1.9-2.9-4-3-4.6 0-.5-.7-1.9-1.6-3-1.4-1.8-1.5-1.5-.9 3.1M904.1 641.8c-4.1 6.4-8.4 13.3-9.7 15.2-5.2 8.1-11.4 19.3-11.4 20.6 0 .8 1 1.8 2.3 2.3 1.2.5 5.1 2.3 8.6 4 3.6 1.7 6.7 3.1 7.1 3.1.6 0 1.9-6 7.5-36.4 2-10.4 3.4-19.3 3.3-19.8-.2-.4-3.6 4.5-7.7 11M329.5 632.9c-.3 1.2-1 1.9-1.4 1.7-.4-.3-.5.9-.3 2.6.3 1.6.7 2.5 1.1 2 .4-.6.7.8.7 3.1 0 5.5 1.1 10.3 3.4 15.2 3.4 7.3 6.7 15 7.4 16.9.4 1 .8 1.7 1.1 1.5.2-.3-.9-5.6-2.4-11.9-1.6-6.3-3.9-15.8-5.1-21-2.5-11.1-3.5-13.3-4.5-10.1M450 634.9c0 .5.4 1.2.9 1.5s1.1 1.8 1.4 3.3c1.3 6.7 4.7 19.3 6.7 24.8 1.1 3.3 2.4 6.8 2.7 7.8.4 1.4 2 .1 7.9-6 4-4.3 7.3-8.1 7.4-8.5 0-.8-24.5-23.1-26.1-23.6-.5-.2-.9.1-.9.7M824.9 636.8c-1.5 1.5-4.6 4.4-7 6.5s-6.8 6.1-9.7 8.9l-5.2 5 3.2 4.1c4 5.4 10 11.7 10.9 11.7.4 0 1.5-2 2.5-4.5 2.2-6 2.8-5.1 1.3 2.1l-1.2 5.9 4.2 6.2c2.3 3.5 4.5 6.3 5 6.3 1 0 8.3-6.3 16.5-14.1l5.8-5.6-9.7-16.3-9.8-16.3-1.8 4.8c-1 2.6-2.1 6-2.4 7.6-.4 1.6-1.1 3.2-1.7 3.5-1.2.7-1.1.3 1.6-10.1 2.4-9.5 2.1-10.3-2.5-5.7M445.4 641.8c-1.7 2.6-6.1 9.7-9.8 15.9-5.7 9.5-6.5 11.4-5.5 13 .7 1 5.6 5.7 10.9 10.5l9.7 8.7 4.7-6.8c4.7-6.7 4.7-6.8 3.6-11.7-1-4.5-8.2-28.6-9.8-32.6-.6-1.4-1.3-.8-3.8 3M677.5 643.7c-.8.8-1.7 2.6-2.1 4.1-.3 1.5-.9 4.5-1.4 6.7-.5 2.1-.8 4.1-.6 4.2.1.2 2.9-.6 6.1-1.7s7.1-2 8.7-2c2.9 0 4-2.3 1.4-3.3-.7-.3-2.7-2.5-4.2-4.8-3.1-4.6-5.6-5.6-7.9-3.2M497 648.5c-4.7 3-9.2 5.8-10 6.1-.8.4-2.2 1.3-3.2 2.1-1.5 1.3-1.2 1.8 3 5.6 2.6 2.3 5.4 4.9 6.2 5.7s3.2 2.8 5.2 4.3l3.7 2.7.6-4.7c.3-2.7 1-6.7 1.5-8.9 1.1-4.7 2.5-18.4 1.9-18.3-.2 0-4.2 2.5-8.9 5.4M773.4 646.2c.3 1.8 1.3 8.5 2.2 14.8 2 13.9 2.5 15.1 4.8 11.6.9-1.4 2.2-2.6 3-2.6.7 0 3.3-2 5.7-4.5s4.8-4.5 5.2-4.5c.5 0 1.5-.6 2.3-1.4 1.2-1.3 1-1.8-1.9-4-1.9-1.4-3.7-2.6-4-2.6-.4 0-3.5-1.7-6.9-3.8-11.3-6.9-11-6.8-10.4-3M508.1 650.2c-.6 3.5-1.5 9.7-2.1 13.8s-1.3 8.5-1.7 9.8c-.6 2.5-.3 2.4 8.7-1.6 7.6-3.4 17.2-6.8 24.3-8.7 3.7-.9 6.6-2.2 6.5-2.7-.2-.5-2.6-1.8-5.3-2.9-2.8-1.1-10.2-4.7-16.7-7.9-6.4-3.3-11.8-6-12.1-6s-1 2.8-1.6 6.2M763 647.6c-10 5.6-15 7.9-21.8 10.4-4.9 1.8-6 2.5-5.1 3.6.6.7 2.7 1.6 4.8 1.9 3.5.6 18.6 5.6 28.5 9.6 2.7 1 5.1 1.7 5.3 1.5.3-.2-.5-6.9-1.6-14.8-1.2-8-2.1-14.8-2.1-15.1 0-1.2-1.4-.7-8 2.9M566.6 647.9c-2.7 5-5.6 13.1-4.8 13.1 1.4-.1 19.5-5 20-5.5.3-.3.3-.6.1-.8s-3.4-2.4-7.1-5l-6.7-4.7zM704.3 649.8c-3.4 2.6-6.2 5-6.2 5.3-.1.5 10.8 3.9 14.5 4.5.6.1 2.1.5 3.3.9 1.1.3 2.1.4 2.1 0 0-1.3-6.3-15.5-6.9-15.4-.3 0-3.4 2.2-6.8 4.7M586.6 661.1c-2.7 16.1-3.3 23-1.7 21.4.5-.6 2.6-3.7 4.5-6.9 2-3.3 3.6-5.4 3.6-4.7 0 1.8-3 8.1-5.2 11-1 1.3-1.8 2.7-1.8 3.1 0 1.1 23.6 6.1 24.5 5.2 1-1 .5-5.8-1.7-16.8l-2.3-11.2-3.4-1.1c-1.9-.5-3.9-.8-4.4-.4-.5.3-1.2.1-1.6-.6-.4-.6-2.8-1.4-5.3-1.7l-4.7-.7zM685.5 658.7c-1.1.3-2.4.9-2.9 1.4-.6.5-2.3.9-3.8.9-1.9 0-2.8.5-2.8 1.6 0 .8-.4 1.3-.9 1-1.3-.8-6.1 16.5-6.1 22.3 0 4.8.1 5.1 2.3 4.6 1.2-.3 6.4-1.4 11.6-2.5s9.6-2.2 9.8-2.4c.3-.2-.3-1.6-1.3-3-.9-1.5-1.4-2.9-1.1-3.3.4-.3-.5-2.6-1.9-5.1-1.6-2.8-2-4.1-1-3.3.9.8 1.6 1.7 1.6 2.2 0 .8 4.5 7.8 5.7 8.9.6.5-.4-13.9-1.4-20.3-.5-3.2-.9-3.7-3.2-3.6-1.4.1-3.5.3-4.6.6M695.6 663.2c.3 2.9 1 7.1 1.5 9.3s.9 5.9.9 8.3c0 3.7.4 4.4 2.8 5.3 3.4 1.4 23.5 6 23.9 5.5.6-.6-1.7-14.8-3.4-20.9-1.3-4.9-2.1-6-4.7-7.1-3.9-1.6-15.6-3.9-16.3-3.2-.3.3-1.2-.1-2-.9-2.6-2.7-3.4-1.7-2.7 3.7M471.6 667.2c-4.2 4.5-7.6 8.5-7.6 8.8 0 .7 1.8 2.6 9.8 10.3l6.1 5.9 9.8-6.7c5.4-3.7 10-7 10.3-7.2.3-.3-1.3-2-3.5-4-2.2-1.9-5.8-5.2-8-7.2s-5.2-4.6-6.6-5.9l-2.6-2.3zM581.7 659.6c-.4.4-2.6.9-4.9 1.1-3.7.4-17.8 4-17.8 4.6 0 .1-.9 5.4-2 11.7-2.8 16.1-3.1 15 3.8 13.5 3.1-.8 8.4-1.9 11.7-2.6s6.6-1.7 7.2-2.2c.9-.6 1.1-3.3.8-8.6-.2-4.2-.1-6.4.1-4.9.6 3.1 2.4 3.8 2.4.9 0-1 .3-4.6.6-8 .6-5.6 0-7.4-1.9-5.5M791.5 666.8c-11.9 10.4-12.5 11.2-10.1 12.6 1 .6 4.6 3.2 8 5.7 10 7.5 10.3 7.6 14 4.1 1.7-1.7 4.8-4.6 6.8-6.5 6.1-5.7 5.9-7.1-2.4-16l-7.3-7.8zM356 662.4c0 1.1 5.3 26.2 7.4 34.8 1.4 5.7 3 13 3.7 16.4l1.2 6.1h6l6 .1-.6-5.7c-.3-3.1-1.1-8.1-1.8-11.1l-1.2-5.5-1.3 3c-.7 1.6-1.8 6.5-2.4 10.8-.8 4.9-1.7 7.6-2.4 7.4-.6-.2-1-1.3-.9-2.3.6-5 1-7 1.5-8.4s2.3-7.7 3.5-12.4c.9-3.4.6-7-.6-7.4-.6-.2-1.1-1-1.1-1.7 0-.8-.6-2-1.2-2.7-.7-.7-4.4-5.9-8.2-11.6-6.3-9.3-7.6-10.9-7.6-9.8M546 662.9c-.8.5-5.1 2.1-9.5 3.6-11.9 4.1-22.5 8-26.9 9.9l-3.9 1.6 9.2 6.1c11.9 7.8 19.7 11.9 22.8 11.9 3 0 11.5-2 12.6-3 .4-.3-.2-1.8-1.3-3.2-1.1-1.5-2-3.3-2-4.2s-.5-1.6-1.1-1.6c-1.4 0-.5-9.8 1.1-11.4 1.4-1.4 1.3 1.9-.1 4.6-.6 1.1-.8 3-.5 4.1.6 2.3 5.4 8.2 6.1 7.6.2-.2 1.1-4.7 1.9-9.9.9-5.2 1.9-10.6 2.2-12l.6-2.5-2.1 2.5c-1.8 2.2-2 2.3-1.5.4.8-3.1-4.3-6.2-7.6-4.5M729 662.6c0 .4 1 1.5 2.2 2.5 1.7 1.5 1.8 1.9.5 1.9-.9 0-1.9-.5-2.2-1-.9-1.4-6.5-1.3-6.5.2 0 .6.3.9.6.5.3-.3 1.9 1 3.6 2.9s3.6 3.4 4.3 3.4c2.4 0 2.3 8.9-.2 13.9-1.2 2.5-2.3 5.1-2.3 5.8 0 1.6 10.4 3.6 14.9 2.8 2-.3 5.9-2.1 8.6-3.9 2.8-1.8 8.7-5.5 13.3-8.1 8.8-5.2 8.9-5.8 2.5-8.3-12.9-4.9-32.1-11.2-34-11.2-1.3 0-2.3-.5-2.3-1 0-.6-.7-1-1.5-1s-1.5.3-1.5.6M913.5 676.7c-4.9 7.5-8.9 14.3-8.9 15.2.1.9 1.2 5.8 2.7 10.9 1.4 5 2.2 9.2 1.8 9.2s-1.3-1.9-2-4.3c-3.3-10.9-4.4-11-6.1-.2-.6 3.8-1.3 8.2-1.6 9.8-.5 2.5-.3 2.7 2.9 2.7s3.6-.3 4.5-3.8l1-3.7.1 3.7c.1 4.4 3.1 5.6 3.1 1.4 0-1.4.4-2.7.9-3s1.2-2.3 1.6-4.3c.3-2.1 1.5-7.4 2.5-11.8s2.8-12.7 4-18.5c1.3-5.8 2.6-12 3.1-13.8.4-1.7.4-3.2.1-3.1-.4 0-4.7 6.1-9.7 13.6M922.1 683.6c-1.8 9.3-3.8 18.9-4.6 21.4-1.7 5.7-2.6 11-1.9 11 .3 0 1.2-1.5 2-3.3.8-1.7 1.8-3.9 2.3-4.7 7.7-12.8 9.6-17.4 9.3-22.4-.3-5.8-2-15.4-3.2-17.5-.4-.8-2.1 5.8-3.9 15.5M642.8 668.7c-1.7.4-1.8 2.5-1.8 25.4 0 20.5.2 24.9 1.4 24.9s5.6-8.3 5.6-10.7c.1-1.4 7-11.8 7-10.5 0 .7-1.4 4.1-3.2 7.5s-3.3 6.4-3.3 6.7c-.1.3-.5 1.3-1 2.3-1.2 2.9-.1 2.9 3.4 0 4.8-4 6.2-7.5 6.2-15.1 0-5.8-1.5-20.8-2.6-26.8-.7-3.4-6.3-5.1-11.7-3.7M628 670.1c0 .6.8 1.8 1.8 2.6 1.3 1 .9 1-1.5-.1l-3.2-1.6-.6 5.3c-1.6 13.5-2.2 25.3-1.3 29 1.2 5.3 2.5 7.7 4.4 7.7.8 0 1.7.7 2 1.5.4.8 1.5 1.5 2.5 1.5s2.8.9 3.9 2c1.6 1.6 2.2 1.7 2.6.7.3-.8.4-12.1.2-25.3l-.3-23.9-5.2-.3c-3.6-.2-5.3.1-5.3.9M427.8 674.5c-.4 1.1-1.2 6.7-1.8 12.5-.7 5.8-1.8 14.7-2.6 19.7-.8 5.1-1.4 10.2-1.4 11.3 0 3.5 4.3 2.4 9.4-2.4 4.6-4.5 5.4-6 3.6-7.1-1.4-.9 1.1-4.5 3.1-4.5 1.7 0 6.4-4.7 9.5-9.5 1.5-2.3 1.4-2.5-2.7-6.2-2.3-2.1-6-5.5-8.3-7.5-2.2-2.1-4.9-4-5.8-4.3s-1.8-1.4-2-2.3c-.4-1.5-.5-1.4-1 .3M846.8 677.3c-7.1 6.5-14.8 13.1-15.9 13.7-1.1.7 1.1 4.1 12.1 18.9 6.4 8.5 7.9 10.1 10.3 10.1 1.6 0 3-.7 3.4-1.6.5-1.5-3-34.4-4.6-42.1l-.6-3.2zM456.6 685.6c-3.7 5.1-4.5 6.9-3.4 7.5.7.4 4.1 3.6 7.4 7l6.2 6.2 3.8-4.3c7.5-8.3 7.6-7.3-.7-15.6-4-4.1-7.6-7.4-7.9-7.4-.4 0-2.8 3-5.4 6.6M810.8 685.1c-3.2 3.3-5.8 6.7-5.8 7.5s-.4 1.2-1 .9c-2.7-1.7-.5 2.9 3.6 7.4l4.7 5.2 4.9-5c2.7-2.8 6.1-6 7.4-7 2.5-1.9 2.5-2 .8-4.8-2.9-4.5-7.5-10.3-8.2-10.2-.4 0-3.3 2.7-6.4 6M396.5 681.2c-.3.7-1.6 1.4-2.9 1.4-3.2.2-13.6 6.2-13.6 7.8 0 .7 2.5 6.2 5.7 12.2 3.1 6 6.3 12.3 7.2 14.1 1.2 2.5 2.3 3.2 4.4 3.3h2.7v-7.8c0-13.5-1.3-32.2-2.2-32.2-.5 0-1.1.6-1.3 1.2M499.4 681.8c-1.2 1-5.3 3.9-9.2 6.7-3.9 2.7-7.1 5.3-7.2 5.7 0 .3 3.4 3.4 7.6 6.8 7.6 6.2 7.7 6.2 11.5 5.1 2.1-.6 4.1-1.5 4.4-2 .4-.7-4.1-23.1-4.8-23.7-.1-.1-1.2.5-2.3 1.4M772.8 682c-1 .9-6.8 4.5-12.9 8-6.1 3.4-10.7 6.6-10.2 7 .4.4 4.4 1.7 8.8 2.9 4.4 1.1 8.9 2.3 10 2.6 1.8.5 2.2-.4 4.4-9.8 2.6-11.3 2.5-13.3-.1-10.7M777.6 681.1c-.2.8-1.1 5.2-2.1 9.9-.9 4.7-1.9 9.5-2.2 10.7-.4 1.8.3 2.6 4 4.3l4.5 2.1 2.5-2.3c1.3-1.3 4.8-4.3 7.7-6.7l5.2-4.5-2.8-2.3c-14.9-11.7-16.3-12.7-16.8-11.2M505.4 685c.4 2.5 1.4 7.6 2.2 11.3 1.5 6.3 1.8 6.8 3.8 6.2 1.1-.3 4.4-1.2 7.3-2 2.8-.8 6.6-2 8.3-2.7l3.2-1.3-10.3-6.4c-5.7-3.6-11.5-7.2-12.8-8l-2.4-1.5zM880.5 682.2c-.2.7-.5 9.5-.7 19.5l-.4 18.3h2.6c2.9 0 3.3-.4 11.2-15.9 3.9-7.5 5.8-12.1 5.4-13.5-.3-1.4-2.7-3.3-6.8-5.3-8.4-4.1-10.7-4.8-11.3-3.1M402 702.8V720h14.9l-1.6-3.7c-4.4-10.8-12.6-29.9-12.9-30.2-.2-.2-.4 7.3-.4 16.7M871.3 700.3c-3.4 7.8-6.5 15.4-6.8 16.9l-.7 2.8h13l.7-16.5c.4-9.1.6-16.8.3-17-.2-.2-3.2 6-6.5 13.8M585.5 689c-.2.4 4 5.1 9.5 10.4l9.8 9.7 1.3-5.5c.7-3.1 1.5-5.6 1.8-5.6.4 0 .7-.9.8-2 .1-1.5-.7-2.2-3.5-2.9-12.4-3.3-19.3-4.7-19.7-4.1M691.9 688.4c-.2.3-1.7.7-3.2 1s-5.1 1.1-8 1.9-6.4 1.8-7.9 2.1c-3.1.7-3.8 3.6-1.3 5.6 1.2 1 1.5 1 1.5-.4 0-2.1 1.6-2.1 2.4 0 .9 2.4.7 5.4-.4 5.4-.5 0-1-.7-1-1.7 0-.9-.2-1.4-.5-1.1s-.2 1.9.1 3.6l.6 3 3.1-2.6c1.7-1.5 6-5.5 9.6-8.9 3.6-3.5 7-6.3 7.4-6.3.5 0 .5-.5.2-1-.6-1-1.9-1.3-2.6-.6M700 688.7c0 .8 3.5 7 8 14 .8 1.3 2.5 2.3 3.7 2.3s2.8.6 3.5 1.2c1.5 1.5 8 4 8.6 3.3.2-.2.5-3.6.6-7.6l.1-7.2L714 692c-5.8-1.4-11.3-3-12.2-3.4-1-.5-1.8-.4-1.8.1M567 691.7c-5.8 1.4-11.1 2.7-11.9 2.9-1.1.3-1.2 1.8-.7 6.5 1 8.3 1.2 8.7 4.9 8.3 1.8-.1 4.3-.3 5.7-.4 1.8 0 3.4-1.4 5.9-5.1 3.4-5 8.1-13.3 8.1-14.4 0-.7-.2-.7-12 2.2M450.3 696.8c-.3.9-1.4 3.5-2.4 5.8-5.4 12.3-6.9 17.4-5 17.4.5 0 1.4-2.7 2.2-6 .7-3.3 1.6-6 2-6 1.5 0 3.8 3.1 3.3 4.3-.2.7.8 2.4 2.3 3.7 2 1.7 2.3 2.5 1.3 2.8-.7.3-2.3-.7-3.5-2.2-1.9-2.4-2.3-2.5-2.9-1.1-1.4 3.6-.7 4.5 3.5 4.5 4.1 0 6.8-2 11.9-9.1l1.9-2.5-7-6.7c-5.7-5.5-7.1-6.4-7.6-4.9M545.2 696.1c-2.9.5-6.3 1.4-7.5 2.1s-2.8 1.1-3.4 1c-1.3-.3-19.5 5.2-22.3 6.7-1.9 1-1 9 1.5 12.9.1.1 1.6-.3 3.3-.9 4.2-1.4 4-3.4-.3-5.5-4.2-2-5.9-4-2.4-2.8 1.3.4 4.3.8 6.6.9 5.1.1 5.8.7 4.4 3.3-.8 1.6-.7 2.1.5 2.6 2.3.9 3.1.7 1.4-.4-.8-.5-1.2-1.2-.8-1.5.3-.4 1.5.2 2.5 1.2 2 2 3.9 1.9 14.6-1.1 3.2-.9 6-1.6 6.2-1.6 1.3 0 .2-2.5-1.7-4.2l-2.3-2 3.3.7 3.2.7v-6.6c0-3.6-.3-6.5-.7-6.5-.5.1-3.2.5-6.1 1M821.3 701.7c-3.5 3.6-6.3 6.9-6.3 7.4s1.1 1.5 2.5 2.1c1.7.7 2.1 1.4 1.4 1.9-1.5.9 1.9 6.9 4 6.9 1.8 0 8.3-6.9 7.6-8-.3-.5.2-1.5 1-2.4 1.4-1.3 1.3-2.1-.6-7.3-1.2-3.2-2.4-6.1-2.8-6.5-.3-.3-3.4 2.3-6.8 5.9M474.1 701.7l-5 5.7 4 3.4c2.1 1.8 3.9 4 3.9 4.8 0 2 1.5 1.8 5.8-.9 2-1.3 5.6-3.1 8-4.1 2.3-1.1 4.2-2.2 4.2-2.5s-1.7-1.7-3.6-3.1c-2-1.4-4.4-3.2-5.3-4s-2.8-2.3-4.3-3.2l-2.7-1.8zM727.7 697.5c-1.1 2.8-.8 15.7.3 15 .6-.3 1-.2 1 .4 0 1.3 6.3 2.5 8.9 1.6 1.3-.4 2.1-1.5 2.1-2.9 0-1.3.7-2.9 1.5-3.6 1.3-1.1 1.5-.8 1.5 1.9 0 1.7-.5 3.1-1.1 3.1s-.9.7-.5 1.5c.3.8 0 1.6-.7 1.6-1.9.3 9.4 1.7 14.1 1.8 3.1.1 4.2-.3 4.2-1.4 0-.8-.9-1.5-2-1.5s-2-.4-2-.8c0-1.2 7.5-3.6 9.1-2.9 1 .4.7.8-.8 1.2-1.3.4-2.3 1.1-2.3 1.6 0 1.2 3.7 4.9 4.9 4.9s3.4-12.1 2.4-13c-1.3-1.3-19.5-6.2-22.8-6.2-1.6 0-3.4-.7-4-1.4-.5-.7-3.7-1.6-7.1-2-5.2-.5-6.2-.4-6.7 1.1M797.5 698c-.4.6-2.3 2.2-4.3 3.5-2.1 1.3-5 3.4-6.6 4.8l-3 2.4 5.9 2.7c3.3 1.5 6.7 3.4 7.7 4.3 1.6 1.4 2 1.3 5.5-1.5 7.9-6.2 7.9-6.2 2.7-12-4.5-5.1-6.7-6.2-7.9-4.2M502.5 709.3c-1.1.7-4 1.9-6.5 2.6-5.6 1.6-11.2 4.5-12.9 6.5-1.2 1.4-.3 1.6 9 1.6 5.7 0 9.9-.4 9.3-.8s-1.3-1.5-1.7-2.4c-.5-1.5-.3-1.6 1.8-.6 1.4.6 2.5 1.7 2.5 2.5s1.2 1.3 3 1.3c2.3 0 3-.5 3-1.9 0-1.1-.6-2.6-1.4-3.4s-1.2-2.4-.9-4c.4-2.2.2-2.7-1.4-2.7-1 0-2.7.6-3.8 1.3M771 711.4c0 1.9-.4 3.8-1 4.1-.5.3-1 1.5-1 2.6 0 1.8.8 1.9 13.6 1.9 10.4 0 13.5-.3 13.2-1.3-.5-1.4-9.6-6.1-15.5-7.9-2.4-.7-4.3-1.6-4.3-2s-1.1-.8-2.5-.8c-2.2 0-2.5.4-2.5 3.4M579.9 711.4c-.2.2-5.1.7-10.9 1.1-5.7.4-10.8.9-11.3 1.2-1.5.9 2.5 4.3 6.2 5.3 2 .5 6.6 1 10.3 1h6.7l.7-3.6c.6-3.1-.5-6.2-1.7-5"/></svg>