<svg xmlns="http://www.w3.org/2000/svg" width="1706.667" height="960" viewBox="0 0 1280 720"><path d="M0 6.9c0 6.5.1 6.9 2.5 7.5 1.4.4 2.4 1.1 2.2 1.7-.4 1.8 7.5 5.4 14.8 6.8 3.9.8 8.1 1.9 9.5 2.6s4.7 2.3 7.3 3.6c2.7 1.3 6.4 4.3 8.3 6.6 1.8 2.2 5.4 5.1 7.9 6.3 2.4 1.2 5.9 3.1 7.7 4.4 1.8 1.2 4.9 2.8 6.8 3.6 1.9.7 4.2 1.9 5 2.5.8.7 3.1 1.5 5.2 1.9 2 .4 3.9 1.4 4.2 2.3.4.9.9 1.3 1.2 1C84.5 55.9 98 66.2 98 69.4c0 .7.4 1.6.9 2.2.5.5.5 1.9 0 3.1-1 2.7-5.3 3.1-8.4.9-1.1-.7-3.7-1.6-5.8-1.9-3.9-.6-6.6-2.7-18.7-14.2-4.5-4.3-6.4-5.3-10.3-5.9-2.9-.5-5.8-1.7-7.4-3.2-1.4-1.3-3.4-2.4-4.4-2.4-1.1 0-1.9-.4-1.9-.8 0-1.4-4.8-3.2-8.4-3.2-3.9 0-9.3-2.5-12.3-5.7-1.2-1.3-2.9-2.3-3.8-2.3-.8 0-1.5-.6-1.5-1.4 0-.7-1.7-2.1-3.7-3-2.1-.9-4.5-2.1-5.3-2.6-.8-.6-2.7-1.7-4.2-2.5L0 24.9v60l4.2 1.2c2.4.6 7.1.9 10.5.7 5.3-.3 6.2-.1 6.6 1.4.3 1 1.4 1.8 2.5 1.8 1.2 0 2.4.4 2.7 1 .3.5 1.5 1 2.5 1 2 0 8.3 3 8.8 4.2.2.5 2.6.8 5.2.8 4.8 0 5.1.2 12.4 7.6 5 5.1 8.3 7.7 10.1 7.9 1.5.1 4.3 1.8 6.1 3.7 3.4 3.3 3.4 3.5 2 6.3-1 1.9-2.5 3-4.3 3.3-4.1.5-11.1-1.8-11.8-3.9-.7-2-1.3-2.2-9.7-3.9-3.4-.7-6.7-2.1-8.3-3.6-4-3.7-7.4-5.1-14.2-5.7-6.4-.7-14.5-4.4-20.6-9.4C3.1 98 1.4 97 .9 97s-.9 8.6-.9 20.5v20.4l5.2 1.6c2.8.8 5.8 1.5 6.7 1.5.8 0 2.3.7 3.3 1.7 1 .9 3.7 1.9 6.1 2.4 2.3.4 6.7 1.7 9.7 2.9s8.9 3.4 13 4.8 9.9 3.6 12.9 4.9 7.2 2.8 9.5 3.2c6.3 1.3 20.8 9.2 22.5 12.3 3.2 5.6-2.2 9.7-12.3 9.7-5.1-.1-6-.5-14-7.2-1.9-1.5-4.3-2.7-5.5-2.7s-3.2-.6-4.4-1.4-4.9-1.7-8.2-2.1c-5.5-.7-19.6-6.6-25.8-11-1.2-.8-4-1.5-6.3-1.5s-5.8-.7-7.7-1.5c-2-.8-3.9-1.5-4.2-1.5S0 190.7 0 235.5.4 317 .8 317s1.2-.4 1.7-.8c.9-.8 8.4-3.2 9.9-3.2.3 0 .6.9.6 2 0 2.3 2.8 2.7 3.6.5.4-.9 1.9-1.5 3.5-1.5 2.4 0 2.9-.4 3.1-2.8.4-5.1.6-7.7.8-8.2.1-.3.3-2.4.4-4.7.3-5.3 3-8.3 6.9-7.6 1.5.3 2.7 1.1 2.7 1.8s.7 1.5 1.5 1.9c.8.3 1.2 1.1 1 1.8-.3.7 1.1 2.4 3.1 3.8 2 1.3 4.6 3.7 5.7 5.2 1.9 2.6 2.1 2.6 4.8 1.2 1.6-.8 2.9-2 2.9-2.7s1.7-2.6 3.9-4.2c2.6-2 3.7-3.5 3.3-4.7-.2-1-.8-1.8-1.3-1.8-1.4 0-1.1-10 .4-10.4 6-1.6 7.2-2.3 7.5-4.4.6-4.2 6.2-1.7 6.2 2.8 0 2 1.1 4.1 3.5 6.6 1.9 1.9 3.5 4.1 3.5 4.7.1 2.8 2.8 4.5 8.1 5.2l5.6.7.6-3c.4-2.1 1.3-3.1 3.2-3.6 2.6-.7 3.4-3.1 1.3-3.9q-1.5-.6 0-.6c.6-.1 1.2-.8 1.2-1.6s.7-1.5 1.5-1.5 1.5-.5 1.5-1c0-.6 1-1 2.3-1 3.4 0 4.7-1.9 4.7-6.8 0-3.5.5-4.8 2.5-6.4 1.5-1.2 2.5-3 2.6-4.6 0-1.5.3-2.1.6-1.5.2.7 1.3 1.3 2.4 1.3 1 0 1.9.7 1.9 1.5s.7 1.5 1.5 1.5c.9 0 1.5-.9 1.5-2.5 0-1.9.5-2.5 2.1-2.5 1.8 0 9.7-1.9 10.7-2.5.8-.6-1.3-3.5-2.5-3.5-.9 0-2.1-.6-2.7-1.4-.6-.7-3.6-2.6-6.6-4.2s-6.3-3.9-7.3-5.2c-1-1.2-2.3-2.2-2.8-2.2-1.3 0-3.9-2.6-3.9-3.8 0-.6-.5-1.2-1.1-1.4-.8-.3-1-1.9-.5-5.1.5-3.4 1.4-5.2 3.2-6.3 1.4-1 2.4-2.6 2.4-4 0-1.3.4-2.4.9-2.4s1.1-1 1.3-2.3c.4-2 .1-2.3-2.4-1.9-2 .3-3-.1-3.5-1.4-.4-1.1-1.3-2.5-2-3.3-1.2-1.1-1.2-1.7 0-3.5 1.2-1.7 2.4-2.1 7.2-2.1 5 0 5.9-.3 6.6-2.2 1.3-3.4 1.4-18.6.2-20.9-1.4-2.5-.5-4 2.8-4.9 2-.5 3.4.1 6.5 2.9 2.1 1.9 5.6 5 7.6 6.8 3.2 2.9 3.8 4.1 4.4 9 .4 4.2.3 5.8-.6 5.8-2.3 0-3.7 2.7-4.2 8.2-.3 3.4-1.1 6.3-2.1 7.3-1.4 1.3-1.7 3.7-1.7 12.9v11.3l4.5.6c6.4.9 10.4-.1 10.9-2.7 1.1-5.3 1.4-15.6.6-15.6-.6 0-1-.6-1-1.3 0-.9 2.1-1.3 7.5-1.4 9.2-.2 11.5-.9 11.5-3.4 0-1.5.7-1.9 3.3-1.9 1.7 0 4.6-.9 6.2-2 3-2 3-2 .5-2-1.4 0-2-.4-1.5-.9 1.8-1.6 15.8-6.1 19.2-6.1 2.3 0 3.3-.5 3.3-1.5s1-1.5 3.4-1.5c1.9 0 3.8-.5 4.1-1 .3-.6.1-1-.5-1s-.8-.5-.5-1.1c.4-.6 1-.8 1.3-.5s1-.4 1.6-1.7c.7-1.2 2.4-2.8 3.9-3.5s2.7-1.8 2.7-2.3c0-.6.9-.7 2-.4 1.4.5 2 .2 2-.9 0-.9.5-1.6 1-1.6.6 0 1-.7 1-1.5 0-.9.8-1.9 1.7-2.2 1-.4 2.3-1.1 2.8-1.5.6-.5 2.1-1.7 3.4-2.8s3-2 3.8-2c.7 0 1.3-.6 1.3-1.3s.3-.8.8-.2c.9 1.3 7.2 1.7 7.2.5 0-.6-.7-1-1.6-1-1.1 0-1.4-.5-1-1.6.3-.9.6-2 .6-2.5s.7-.9 1.5-.9 1.5.4 1.5 1c0 2.1 3 .9 3.6-1.5.3-1.4 1-2.5 1.5-2.5 1.5 0 4.8-12.3 3.8-14.3-.6-1.1-.6-1.7.1-1.7.5 0 1-.8 1-1.9 0-1.4.8-1.8 3.8-1.8 5.8-.1 6.2-.2 6.2-1.8 0-2.6 1.9-1.6 2.2 1.2l.4 2.8.9-3c.4-1.7 1.1-3.2 1.5-3.5 1.2-.9 2.2-6.2 1-5.5-.5.3-1-.2-1-1.4 0-2.8 1.1-5.2 2.1-4.5.5.3.9-.6.9-2s-.4-2.6-1-2.6c-1.5 0-1.2-8.1.4-9.9 1.3-1.5 2.4-9.4 4.3-30.3.5-5.7.4-5.8-2.1-5.6-1.9.2-2.2.5-1.4 1.5.5.7.7 2.4.4 3.8-.6 2.2-1 2.4-3.4 1.9-3.5-.9-3.4-.7-2.6-3.8.3-1.4 1.2-2.6 1.9-2.6 1.5 0 .1-4.8-2.6-9-.9-1.4-2.1-3.3-2.6-4.3-1.1-2.2-26.2-27.7-27.2-27.7-.4 0-1.7-.9-2.9-2-1.6-1.5-2.2-3.2-2.2-6.3 0-3.5.4-4.4 2.6-5.4 2.3-1 3.3-.9 7.4 1.2 2.7 1.4 5.2 3 5.5 3.6.4.6 2.8 2.4 5.4 4 5.2 3.3 10.6 7.6 16.4 13.2 2.2 2 5 4 6.3 4.3 1.2.3 2.5 1.2 2.8 2 1.2 3.1 2.5 1 4.1-6.4.9-4.2 3.2-14 5-21.7C290 14.5 293 1.3 293 .4c0-.2-54.9-.4-122-.4C98.2 0 49 .4 49 .9s1.7 1.2 3.8 1.6c4.8.8 9.2 4.6 9.2 8 0 2.3.4 2.5 4.3 2.5 2.3 0 4.8-.4 5.6-.9C75.2 10 82 15 82 19.5c0 1.4.4 2.5.9 2.5s1.3.9 1.6 2.1c.5 1.4 1 1.7 1.8 1 .7-.5 2.8-1.2 4.8-1.6 3.2-.6 4.1-.2 8.3 3.4 2.6 2.3 5.5 4.1 6.5 4.1s2.4.7 3.1 1.5c.7.9 3.4 2.5 6.1 3.6 2.6 1.1 5.7 3.1 7 4.5 1.2 1.3 4.2 3.3 6.5 4.5 8.5 4.1 12 11.2 6.7 13.6-5.4 2.5-8.3 1.7-16.8-4.7-4.3-3.3-15.1-9-17-9-.3 0-2.1-1.1-3.9-2.5-2.7-2-4.4-2.5-9.4-2.5-6.5 0-11.7-2.1-15.7-6.4-1.1-1.1-4.9-3.6-8.5-5.4-9.4-4.9-16.2-9.7-20.2-14.5-2.1-2.5-6-5.4-9.7-7.2-3.3-1.7-6.3-3.8-6.7-4.8C26.9.2 25.3 0 13.4 0H0zm197 63.6c1.6.7 5.6 1 11.1.8 8-.4 8.9-.2 11.2 1.9 1.4 1.3 3.7 3.3 5.1 4.5 1.4 1.3 2.7 3.1 2.7 4 .3 4.4-.2 17.7-.7 18.4-.3.5-.7 1.9-.9 3.1-.3 1.2-.9 2.4-1.5 2.8s-1.5 3.1-2 6.1c-1.4 7.5-1.4 7.4-3.3 9.3-.9.9-3.2 4.1-5.1 6.9-6.4 9.6-9.6 11.2-18.1 9.2-3.4-.9-7.5-4.2-7.5-6.2 0-.7-1-1.3-2.2-1.3-2.1 0-6.4-2-4.4-2 1.7 0-8.1-4.8-11.2-5.5-2.5-.5-3.6-1.6-5.2-5.2-1.1-2.5-2-5.2-2-5.9 0-2.6 4.1-9.2 6-9.7 1.1-.3 2-1.2 2-2.1s.7-1.6 1.5-1.6 1.5-.5 1.5-1c0-.6-.4-1-1-1-.5 0-1-.9-1-2 0-2.2 3-10.2 4-11 .4-.3 1-1.5 1.4-2.8.4-1.2 1.2-2.2 1.8-2.2.5 0 3.2-2.3 5.9-5.1 5.1-5.3 5.7-5.4 11.9-2.4M148 145c2.2 1.1 5 2 6.4 2s2.8.4 3.1 1c.3.5 1.8 1 3.2 1s5.2 1.3 8.5 3c3.2 1.7 7.3 3 9.1 2.9 4.4-.1 8.2-1.4 8-2.6-.1-.5 1.1-.7 2.8-.5 1.6.2 2.9.8 2.9 1.2 0 .5.9 1.2 2.1 1.5 1.1.4 2.8 2.3 3.6 4.3.8 2.1 2.8 5.2 4.4 7 3.4 3.8 4.4 7 3.5 11.5-.7 3.5-5.6 9-6.3 7-.2-.7-1.1-.9-1.9-.6s-4.5-1.5-8.2-4-8.7-5.4-11.2-6.5-5.4-2.9-6.4-4.1c-1.1-1.1-2.7-2.1-3.7-2.1s-2.1-.5-2.4-1c-.3-.6-1.9-1-3.5-1s-3.5-.6-4.2-1.4c-.8-.7-2.4-1.7-3.6-2-1.2-.4-2-1.1-1.7-1.5.6-1.1-4.1-3.1-7.4-3.1-1.6 0-3.4.7-4.1 1.5-.7.9-2.9 1.5-5.5 1.5-3.5 0-5-.7-9-4.2-4.6-4.1-4.7-4.2-2.8-5.8 1.1-.9 2.3-2.6 2.7-3.7.5-1.6 1.7-2.3 4.4-2.6 9.3-.9 13.4-.6 17.2 1.3"/><path d="M193 77.3c-1.9.5-3.8 1.4-4.2 2-2.1 3.3 0 11.6 3.6 14.6 1.1 1 1.4 2.4.9 5.6-.5 3.9-.2 4.6 2.7 7.5 3.7 3.6 5 3.5 7-.8.8-1.7 2.3-3.7 3.2-4.4 1.1-.8 1.8-2.9 1.9-5.9.3-4.8-.8-7.2-5-11.6-1.1-1.2-2.3-3.3-2.6-4.6-.8-3-2.8-3.7-7.5-2.4M318.3 3.2c-1 3-1.1 3.1-1.3.8-.2-2.5-.2-2.5-1.5.5-1 2.3-1 3.3-.2 4.4.9 1.1.9 1.3.1.8-1.2-.7-4.4 4.8-4.4 7.6 0 .9-.5 1.9-1 2.2-.6.4-1.7 2.2-2.5 4.2-1.7 4-1.9 5.5-.5 3.3.8-1.2 1-1.1 1 .7 0 1.3.5 2.3 1 2.3 1.8 0 1 2.9-1 3.5-2.2.7-2.6 2-1 3 1.7 1.1 5-.5 5-2.4 0-1 .7-2.4 1.5-3.1s1.5-2.5 1.5-4 .7-4.1 1.5-5.6c.8-1.6 1.5-5.3 1.5-8.3 0-4.6.2-5.2 1.5-4.1s1.5.7 1.5-2.6c0-5.7-1.4-7.3-2.7-3.2M328.8 3.1c-1 1.7-1.8 4.1-1.8 5.3s-.6 2.8-1.2 3.5c-1 1.1-1 1.4 0 1.8 1.7.7 1.6 7.3-.2 7.3-.8 0-1.3 1-1.2 2.4 0 1.4.4 2.2.8 1.8C326.1 24.3 340 1 340 .4c0-.2-2.1-.4-4.7-.4-4.3 0-5 .3-6.5 3.1M342.4 1.7c-.4 1-.8 2-.8 2.3-.1.3-.9 1.6-1.8 3s-4.2 6.7-7.3 11.9c-6.2 10.4-6.2 10.9 1.4 13 1.8.6 4.2 1.8 5.2 2.7s2.7 1.4 3.8 1.1q1.95-.45 2.4 1.2c.7 2.6.8-14.7 0-26.2-.6-10.4-1.3-12.5-2.9-9M348 6.4c0 4.4.5 6.9 1.5 8 1.7 1.7 2 5.2.5 6.1-1.2.8-1.3 12.5-.1 14.4.7 1.1 1.4.5 3-2.5 2-3.9 6.5-9.4 7.6-9.4 1.3 0 .3 3.9-1.5 6.1-1.1 1.3-2.3 2.8-2.8 3.4-3.8 4.7-.9 2.5 5.3-4 10.6-11 14.9-16.4 14-17.3-.4-.4-1-.1-1.2.5-.3.7-.9 1.3-1.5 1.3s-.6-.6.2-1.5c.6-.8.9-1.9.6-2.4-.4-.5-.2-1.2.4-1.6.5-.3 1 .2 1 1.1 0 1 .3 1.5.6 1.1.4-.3.3-2.7 0-5.2l-.7-4.5H348zM391.5 2.6c-1.6 1.4-5 4.4-7.4 6.6l-4.5 4 1.2 18.6c1.2 18.8 1.8 21 5.1 19.2.9-.5 8.3-3.7 16.5-7.2l14.9-6.2-.7-8.6c-.3-4.7-1.1-13.1-1.8-18.8L413.6 0h-9.5c-8.9 0-9.8.2-12.6 2.6M417 2.7c0 3.1 3 30.3 3.5 31.9.2.8 3 .7 9.7-.3 5.1-.7 10.9-1.6 12.8-1.9s4.2-.7 5-1 3.9-.8 6.9-1.1c10.4-1 9.8.1 8.1-16.2L461.6 0H417zM465.6 9.2c.7 5.1 1.3 10.9 1.3 12.8.2 6.3.1 6.3 17.4 4.9 8.6-.7 15.4-1.6 15.1-2.1-.3-.4 0-.8.5-.8.6 0 1.1.4 1.1 1s3 1 7.3.9c3.9-.1 6.4-.3 5.4-.6s-2.9-1-4.3-1.8l-2.4-1.2 2.5-1.7c1.4-.9 3.1-2.8 3.7-4.2l1.2-2.5 1.2 2.8c1.1 2.4 1.2 1.6.7-5.7-.2-4.7-.6-9.1-.9-9.8-.2-.9-5.9-1.2-24-1.2h-23.7l.6 4c.3 2.2.1 4.3-.4 4.6s-.9-.8-.9-2.5c0-3.3-.9-6.1-1.9-6.1-.4 0-.1 4.2.5 9.2M518.4 3.7c.3 2.1.8 6.7 1.1 10.3s.8 7.6 1.1 9l.4 2.5 26.7-.1c18.1-.1 26.8-.5 27.1-1.2.2-.6.9-.9 1.5-.6.9.3 1-2.1.6-9.8-.4-5.7-.7-11.1-.8-12.1C576 .1 573.9 0 546.9 0h-29.1zM579.5 11.2c.7 11.4 1.1 12.7 3.6 13.2.8.2 2.1.6 2.9.9 1.5.6 41.9 3.7 48.5 3.7h3.5V0h-59.2zM641 14.6v14.7l12.3-.6c17.5-1 44.1-2.9 44.6-3.3.2-.2.7-6 1-12.9l.6-12.5H641zM701.8 7.2c-.1 4-.2 9.8-.3 12.8v5.5l11.5.3c6.6.2 13.1-.2 15.4-.8 2.7-.8 4.2-.8 4.9-.1s5.6 1.1 12.3 1.1h11.2l1-7.8c.6-4.2 1.4-10.1 1.7-13l.7-5.2H702zM761.1 12.6c-.7 6.9-1.1 12.7-.9 12.9.4.4 39.1 2.5 46 2.5 4.3 0 4.2.2 6.1-16.8L813.6 0h-51.2zM815.6 4.2c-2.1 16.2-2.7 22.8-2.2 23.6.3.5 2.5 1.3 4.8 1.6 10.9 1.8 37.3 5.6 38.8 5.6 1.4 0 2-2.3 3.4-13.3.9-7.2 2-15.1 2.3-17.5l.5-4.2h-47.1zM864.1 11.2c-.7 6.2-1.5 14.4-1.8 18.3l-.4 7 11.9 5.2c6.6 2.9 12.6 5.3 13.4 5.3.9 0 2.7.9 4.1 2s3.2 2 4.1 2 1.6.5 1.6 1.2c0 .6.3.9.6.6s.7-4.1 1-8.4c.3-4.4.8-13 1.2-19.3l.8-11.3-7.6-6.9-7.5-6.9h-20.1zM904 4.2c0 2.4-.3 5.3-.6 6.5-.5 1.8 1.4 4.3 10.4 13.5 6 6.2 12.3 12.8 13.9 14.7l3 3.5.7-13c.4-7.1.9-16.6 1.3-21.2l.6-8.2H904zM935.7 3.3c-.4 1.7-.9 12.2-1.3 23.2l-.6 20 4.4 7.5c2.5 4.1 5.7 9.3 7.2 11.5s3.4 5.3 4.2 7c.8 1.6 2.3 4.1 3.3 5.4 1.9 2.4 1.9 2.3 2.7-16.5 1.1-25.5 1.1-27.4-.1-28.2-.5-.4-1.1-1.4-1.3-2.2C953.7 29.1 938 1.1 937 .5c-.4-.3-1 1-1.3 2.8M941.4 2.5c.9 1.3 2.8 4.6 4.2 7.2 1.5 2.6 4.5 7.9 6.8 11.8l4.1 7 .3-7c.2-4.2-.1-7.1-.7-7.3S955 12 955 9.7c0-3.8.1-3.9 1.5-2.1 1.3 1.8 1.4 1.5 1.5-2.9V0h-18.2zM960.6 9.2c-1.3 18.6-.8 24.7 2.3 32.8 1.6 4.1 4.6 11.1 6.7 15.5s4.1 9.1 4.5 10.5c.7 2.5.7 2.5.8-.3 0-1.6-.6-3.5-1.4-4.3-.8-.9-1.5-2.9-1.5-4.6 0-2.5.3-2.9 1.9-2.5 1.7.4 1.9-.3 2-9 .1-5.2-.2-9.2-.6-9-.5.3-1.5.1-2.3-.4-1.3-.8-1.1-1.2.8-2.6 1.2-.8 2.2-2.1 2.2-2.7s-2.5-7.6-5.6-15.6c-8.1-20.6-8.8-21.2-9.8-7.8M987.5 1.8c3.2 8.4 14.2 62.5 16.5 81.2 1.1 9.6 2.3 19.1 2.5 21 1.3 9.9 2.7 37.1 2.6 48.7-.1 10.1.2 13.3 1.1 13.4.7.1 1.8.2 2.3.4.6.1 1.7.3 2.5.4 2.7.2 6.6 9.1 4 9.1-.5 0-1 1.8-1 4 0 3.7-.3 4.1-3.1 4.7-2.9.6-3 .7-2.4 5.2.3 2.5.7 6.2.9 8.1s.7 4.8 1.2 6.4c.6 2.5.4 2.8-1 2.3-.9-.4-1.6-.2-1.6.3 0 .6.9 1 2 1 1.4 0 2-.7 2.1-2.3.1-1.7.3-1.4 1 1.1.9 2.9 1.1 3.1 2.5 1.7 1.1-1 1.6-3.7 1.7-9l.1-7.5h5.3c2.9 0 5.3.4 5.3 1 0 .5 1.6 1 3.6 1 5.9 0 6.6 1.4 6.2 14.5-.2 10.9-.1 11.6 2 13.1 1.2.8 3.2 1.7 4.5 1.9 6.4 1.3 7.7 1.8 7.7 3.1 0 .8-.8 1.4-1.7 1.5-1.3 0-1 .3.7 1 1.4.5 4.4 3.1 6.8 5.7 3.5 3.9 4.2 5.3 4 8.2-.3 3.5-.2 3.5 2.9 3.2 2-.3 3.3 0 3.3.7 0 .6 1.7 1.1 4 1.1 3.8 0 4 .2 4 3s.2 3 4 3c5.4 0 5.1 2-.2 2.2l-4.3.1 3.7.4c2.8.3 3.8.9 4.1 2.6l.4 2.2.2-2.3c0-1.2.6-2.2 1.2-2.2.8 0 1 1.2.6 3.4-.4 2.6-.1 3.9 1.4 5.2 1 .9 1.9 2.8 1.9 4.1 0 2 .5 2.3 3.4 2.3 3.3 0 3.5.2 3.9 3.7.2 2.1.4-2.2.5-9.5.2-10.4.5-13.7 1.7-14.8 1.9-2 2-7.4.1-7.4-1.7 0-2.8-5.5-2-9.8.5-2.6 1.2-3.3 4-3.8 4.6-.8 6.4 0 6.4 3.1 0 1.4.7 2.8 1.5 3.1.8.4 1.5 1 1.5 1.5 0 1.2 3.8 4.9 5 4.9.6 0 1 .9 1 2s.4 2 .8 2c.5 0 .9.6.9 1.3 0 2 6.2 10.7 7.6 10.7 2.1.1 6.7 4.8 6.7 7 0 1.1.6 2.3 1.4 2.6s1.2 1.2.9 2 0 1.4.6 1.4c1.4 0 1.4 2.5-.1 4.9-.6 1-.9 2.5-.6 3.2.9 2.4 11.7 4.1 23.9 3.9 6.3-.1 13.7.2 16.4.7 4.5.7 5 1.1 4.7 3.2-.1 1.4.7 3.3 2.3 4.8 2 2.1 3.1 2.4 5.7 1.9 5.7-1.2 7.6-.9 10 1.6 3.5 3.6 4.8 6.4 4.8 10.1 0 1.8-.6 3.9-1.2 4.6-1.1 1.1-.6 1.2 2.5.7 2.1-.4 4.5-1 5.3-1.3s1.4 0 1.4.6c0 .7 2 1.1 5 1.1 2.8 0 5 .4 5 1 0 .5 1.8 1 3.9 1 2.3 0 4.6.7 5.6 1.6 1.7 1.8 5.6 2.4 15.5 2.7 5.5.2 6.6.6 7.4 2.3.8 1.9 1.8 2 12.3 2.1l11.3.1v-8.9c0-8.7-.1-8.9-2.6-9.5-3.1-.8-2.9-3.5.4-4.9l2.2-1V0h-146.6C994.6 0 986.8.1 987.5 1.8m137.3 121.1c1.8 1.1-3.9 6.9-9 9.3-2.1.9-3.8 2.2-3.8 2.7 0 .6-1.2 1.4-2.7 1.7-3.5.9-7.4 3.3-9.1 5.6-.7 1-2.1 1.8-3 1.8-1.7 0-4 1.6-10.1 6.8-2.2 1.8-3.7 2.2-8.8 2.1-4.6-.1-6.3-.6-6.3-1.5 0-.8-.4-1.4-1-1.4-.5 0-1-.7-1-1.5s.9-1.5 2-1.5 2-.5 2-1c0-1.9.3-2.5 1.9-3.7.9-.6 1.3-1.5.8-1.9-1.5-1.6 2.6-4.4 6.5-4.4 2.1 0 3.8-.4 3.8-.8s1.9-.9 4.2-1.1c4.6-.2 13.4-3.9 18.3-7.6 1.7-1.4 3.4-2.3 3.7-2s1.8-.1 3.4-1c3.2-1.7 6.2-1.9 8.2-.6m49.9 52.8c.6 1.6 1.4 6.1 1.8 10 .5 6.2.4 7.2-.8 6.7-1-.3-1.8.2-2.2 1.5-.4 1.2-1.2 1.8-2.1 1.4-.7-.3-1.4-.1-1.4.4 0 1.7-4.5 6.3-6 6.3-2.7-.1-6.3-3.9-5.7-6 .6-2.3-2.7-3.8-4.7-2.1-.7.6-1.7.7-2.2.3-.4-.4-.2.2.6 1.2 1 1.3 1 1.7.2 1.2-.7-.4-1.5-.1-1.9 1-.5 1.3-.9 1-2.3-1.6-1.4-2.7-1.5-3.8-.5-6.6.6-1.8 2-4.3 3-5.4 2.4-2.7 12.8-7.7 17.8-8.6 2-.3 3.7-1 3.7-1.5 0-1.9 1.6-.8 2.7 1.8m22.3 22.1c0 2.8-4.6 13.2-5.8 13.2-.4 0-2 1.1-3.5 2.6-2.5 2.3-2.9 2.4-4.3 1-1.9-2-3.1-2.1-1.5-.2 1 1.2.8 1.7-.8 2.5-1.1.6-2.4 1-2.8 1-.4-.1-1.5.1-2.3.4-6.5 2.8-15.2 2.2-17.6-1.1-.9-1.3-7.3-5.2-9.1-5.7-.1 0 .4-2.5 1.1-5.5 1.2-4.8 1.6-5.5 3.6-5.2 1.3.1 3.1 1.1 4 2.2 1 1.1 2.2 2 2.9 2 .6 0 1.1.6 1.1 1.3s.9 1.3 2 1.4c1.4.1 2-.5 2.1-2 .1-2 .2-2 .9.3.4 1.4.8 2.1.9 1.6s.8-.3 1.6.4c.8.6 1.9.9 2.4.6.5-.4 1.2-.2 1.5.3 1 1.6 7.5 2.2 9.8 1 3.4-1.7 10.8-9.9 11.4-12.6.8-3.2 2.4-2.9 2.4.5m-83.6 5.7c0 2.7-.5 7.7-1.1 11-1 5.7-1.1 5.8-1.2 1.7l-.1-4.2h-4.6c-3.6 0-4.5-.3-4.1-1.4.3-.8.3-1.6-.1-1.8-.8-.3-4.5-8-4-8.2.2 0 1.2-.6 2.3-1.2s4.5-1.1 7.5-1l5.5.1zM374.8 18.1c-1 .6-1.8 1.5-1.8 2.1 0 .7.6.6 1.5-.2 1.3-1.1 1.4-1 .9.4-.4 1-1.3 1.5-2 1.2-1.5-.6-10.6 9.3-9.8 10.6.3.4-.1.5-.9.2s-1.7.2-2.1 1.1c-.3.9-.2 1.4.3 1.1.5-.4.7.3.4 1.5-.4 1.5-.8 1.7-1.4.8-.6-1-1.4-.6-3.5 1.4-1.5 1.5-2.5 2.9-2.3 3 .2.2 1.5 1.2 2.9 2.2 1.4.9 1.8 1.5.8 1.2-.9-.3-1.9-.3-2.2.1-.8.8 18 7.1 21.2 7.2h2.4l-.7-13.3c-.4-7.2-1-15.1-1.4-17.4-.5-3.6-.8-4-2.3-3.2M902.6 24.7c-.3 4.3-.8 12.4-1.2 17.9l-.6 10.2 2.9-.5c4-.7 15-4.2 20.3-6.5l4.4-2-3.7-3.4c-2-1.9-4.6-3.4-5.7-3.4s-2-.7-2-1.5.5-1.5 1-1.5c.6 0-1.2-2.4-3.9-5.3-2.7-2.8-6.2-6.7-7.9-8.5l-3-3.4zM545 28.9c-9.1.3-15.6.9-14.5 1.2 1.5.5 1.2.7-1.3.8-2 .1-3.1-.3-2.7-.9s-.7-1-2.6-1c-2.8 0-3.1.2-2.4 2.2.4 1.3.7 3.2.7 4.3s.4 6.7.9 12.5c1.5 15.3 3.4 21 7.3 21 .9 0 1.6.7 1.6 1.5s.9 1.5 2 1.5c1.7 0 2 .7 2 4s.3 4 2 4c1.3 0 2-.7 2-2s.7-2 2-2 2-.7 2-2c0-1.8.7-2 8-2s8 .2 8 2 .7 2 7.6 2c5.7 0 7.9-.4 9.2-1.7 1.6-1.6 1.7-1.4 2.4 2.3.4 2.1.5-2.2.3-9.6-.8-25.8-1.5-36.3-2.4-37.4-1.1-1.3-8.3-1.5-32.1-.7M493.5 30c-20.1.8-25.9 1.6-25.1 3.5.3.8 1.2 7.1 2.1 14.2C472 59.4 473 64 473 59.6c0-.9.5-1.4 1-1.1.7.4.7 1.2 0 2.5-.5 1-.9 3.4-.9 5.2.1 1.8.3 2.6.6 1.7.2-1 1.3-1.9 2.4-2.2 1.5-.4 2-1.2 1.7-2.9-.2-1.3-.7-2.6-1.2-3-.6-.4.2-1 1.6-1.3 1.4-.4 2.8-1.5 3.1-2.6.6-2.4 6.7-2.8 6.7-.4 0 .9.9 1.5 2.3 1.6 1.6 0 2.9 1.3 4.8 5.2l2.6 5.2 6.7.3c3.6.2 6.6.7 6.6 1.1 0 .5 1.4 1.1 3 1.3 2 .3 2.9.1 2.7-.7-.3-.6.1-1.9.8-2.8.8-1.2 1.2-4 .9-8-.3-6-.3-6.1.6-1.8.5 2.5 1.2 5 1.5 5.5.7 1.5-.3-13-1.7-24.2l-1.1-9.2-3.6.2c-2 .1-11.2.4-20.6.8M581.3 35.6c.4 3.8 1 14.1 1.4 22.9.4 9 1 14.5 1.3 12.5l.6-3.5.8 3.2c.7 3 1.3 3.3 4.6 2 3.7-1.4 7.8-1.5 9.6-.3 1 .8 3.4 1.7 5.2 2.1 1.7.3 3.2 1.3 3.2 2s.5 1.5 1 1.7c.6.2.7 1.4.1 3.4-1.2 4.1.2 6.4 3.9 6.4 1.7 0 3 .4 3 1 0 .5 1.6 1 3.5 1 2.8 0 3.8.5 4.7 2.5.6 1.4 1.7 2.5 2.5 2.5.7 0 1.6.7 1.9 1.5.4.9 1.9 1.5 4 1.5h3.4l.2-11.8.2-11.7.6 12.5c.4 9.4.6 5.2.8-16.6.1-16 .5-30.5.8-32.1 1-5.2-.7-5.8-18.7-7.1-9-.7-21.5-1.5-27.8-1.9l-11.4-.6zM680.5 30.1c-4.9.4-15.2 1-22.7 1.4-7.6.5-13.8 1.2-13.8 1.7 0 .4-.7.8-1.5.8-1.3 0-1.5 2.7-1.5 18.3 0 17.5.1 18.4 2.2 20.7 1.9 2 2.2 3.3 2 8.6-.2 4.5.1 6.6 1.2 7.7.9.9 1.6 2.3 1.6 3.1 0 1 .9 1.6 2.1 1.6 1.7 0 1.8.2.7 1.3-.7.7-2.2 1.8-3.3 2.5-1.8 1-1.5 1.1 2.1 1.2 4.2 0 5.3-1 7-6.9.6-2.4.7-2.4 10.8-1.7 5.5.3 12 .9 14.4 1.2 3.8.6 4.2.5 4.2-1.5 0-1.1.5-2.1 1-2.1.6 0 1 .9 1 2s.7 2 1.5 2 1.6.6 1.7 1.2c.1.7.4-1.6.8-5.2l.7-6.5.2 7c.2 5 .5 6.3 1 4.5.9-2.8 1.7-16.3 2.6-40 .3-8.5.8-17.4 1.1-19.8l.5-4.3-4.3.3c-2.4.2-8.3.6-13.3.9M700.6 34.2c-1.2 11.8-1.5 28.3-.6 26.8.5-.8 1-1 1-.5 0 .6-.4 1.5-.9 2-1.2 1.2-1.7 14.2-.7 15.2.4.5.7.3.6-.2-.1-.6-.2-2.8-.1-5 .2-3.7.3-3.8 1.2-1.6.5 1.4.9 3.2.8 4-.1.9.1 2.3.4 3.1 1.9 4.8 2.6 9.4 1.5 10.7-.6.7-.8 1.6-.4 2 .3.3-.1 1.5-1.1 2.5-.9 1-1.3 2.1-.8 2.6.4.4.9.2 1.2-.3.2-.6 1.8-.9 3.6-.7s4.8-.1 6.7-.6l3.5-1-2.9-.1c-2.3-.1-2.7-.4-1.8-1.3.7-.7 1.2-2 1.2-2.9 0-1.9.7-1.8 5.8.1 1.7.6 3.2 1.8 3.2 2.6 0 1 1.2 1.4 4.3 1.3 2.5 0 3.5-.3 2.5-.7s3.3-.8 9.3-.9c6.1 0 11.5-.5 11.9-1 .5-.4 1.5-7.8 2.4-16.3s2.1-19.6 2.6-24.7c1.4-12.5 1.3-19-.2-19.6-.7-.2-13.1-.5-27.5-.6l-26.1-.2zM759.5 30.2c-.2.7-.9 7.1-1.5 14.3-.6 7.1-1.5 17.5-2 23-1.2 12.6-1.2 20.1 0 16.5.4-1.4.8-1.8.9-.9s1.1 2.4 2.2 3.5l2.1 1.9-3.8.7c-2.2.4-.1.4 4.6.1s10.3-.6 12.5-.7c7.2-.4 8.2-.9 4-1.7-2.4-.4 1.3-.6 9-.3 8.8.3 12.5.2 11.5-.5-1.3-.9-1.3-1.2.1-2.3.9-.7 1.9-2 2.2-2.8s.6 0 .6 1.9c.1 1.9.3 3.2.6 2.9.5-.5 5.9-41.7 6.7-50.4l.3-4.1-11-.6c-6-.3-16.8-.6-23.9-.7-7.1 0-13.3-.3-13.8-.6-.4-.3-1 .1-1.3.8M325.3 40.5c.4 5.5.7 13.7.7 18.3 0 7.8.1 8.3 1.9 7.7 1.4-.4 2.3 0 3.1 1.5 1.2 2.2 1.2 2.2 2.5.3.8-1.1 1.5-2.6 1.7-3.3s1.1-2.2 2.1-3.2 1.5-2.3 1.2-2.8c-.4-.6-.2-1 .3-1s2.5-3.1 4.5-7c3.7-7.3 3.9-11 .6-11-1 0-2.2-.7-2.6-1.5-.5-.9-3.6-2.3-6.8-3.2-3.3-.9-6.9-2.3-7.9-3.2-1.8-1.6-1.9-1.3-1.3 8.4M460 32.9c-3.3.4-3.4.4-1 1.2 1.7.6.6.7-3.2.4-3.1-.3-5.9-.1-6.3.5-.3.5-1.2.7-2 .3-.8-.3-2.3-.2-3.2.2-1.7.7-1.6.8.2 1.5 1.5.7 1 .9-2 .9-3.1 0-3.6-.2-2-.9 1.8-.8 1.7-.9-.7-.9-1.9-.1-2.8.4-2.8 1.4 0 .8-.5 1.5-1.1 1.5-.5 0-.7-.5-.3-1.1.5-.9-.7-1-4.7-.5-10.2 1.3-9.6.8-8.7 8.9.4 4 1.3 10.3 2 14.1 1.3 6.9 1.3 6.9 3.2 5s2-1.9 1.4.2c-.4 1.7-.2 2 1.3 1.7 1.1-.3 1.9-1.1 1.9-1.8s1.8-2.8 4-4.5c3.1-2.5 4-2.8 4-1.5s.9 1 4-1.5l4-3.2v2.6c0 2.5.2 2.5 7.7 2.8 6.9.3 7.8.5 8.1 2.3.7 4.3 1.4 5.1 2.3 2.7.5-1.3.7-2.8.3-3.3-.3-.5 0-.9.5-.9.6 0 1.1 1 1.1 2.2s.2 1.9.5 1.6c.9-.9-2.9-31.7-3.9-32-.6-.2-2.7-.2-4.6.1M812.6 33.5c-.3.8 0 1.5.7 1.5.9 0 .8.3-.1.9-.7.4-1.7 3.9-2.2 7.7-1 7.4-3.8 33.6-4.2 39.4l-.3 3.5h5.8c22.7-.2 37.9-.8 35.7-1.5l-2.5-.8 2.6-.1c3.2-.1 4.1-2.9 6.4-19.1.9-6.3 2-13.9 2.5-16.9 1.7-9.7 1.7-9.8-4.2-10.6-2.9-.3-9-1.3-13.5-2.1-8.5-1.6-12.3-.9-12.3 2 0 1.6-3.9 5.2-6.7 6-1.6.5-2.5.2-3.2-1.3-1.5-2.7-1.5-2.9 1.6-5.7 2.3-2.1 2.5-2.7 1.3-3.4-2.3-1.5-6.7-1.2-7.4.5M861 39.7c0 .5-1.4 10-3 21.3-3.8 26.2-3.9 24.7.8 25.4 12.3 1.7 13.2 1.7 13.2.3 0-.8.9-1.7 2.1-2 2.4-.7 8.8 2.8 6.7 3.6-.7.3-.2.6 1.2.7s5 .5 8.2.9l5.6.7.6-6.1c.3-3.3.8-11.2 1.2-17.5l.6-11.5-3.9-1.7c-8.6-3.7-24.1-10.6-28.2-12.6-5-2.5-5.1-2.5-5.1-1.5M413.5 42.2c-2.2 1.2-4.3 2.5-4.6 3s-1 .8-1.5.7-2 .2-3.4.8-4.6 2-7.2 2.9c-2.5 1-4.4 2.2-4.2 2.6.3.5 0 .8-.6.8-1.4 0-4.9 4-5 5.7 0 .7-.4 1.3-.9 1.3s-1.2 1-1.4 2.2c-.3 1.5-.5.9-.6-1.4 0-2-.4-3.9-.8-4.1-.5-.3-.7 5-.5 11.8.3 11.7.4 12.3 2.3 11.8 1.2-.4 2.6.2 3.8 1.6 2.1 2.4 3.3 2.6 6.3.8 3.1-1.7 5.2-3.7 3.9-3.7-.6 0-1.1-.7-1.1-1.5 0-1 1-1.5 3.4-1.5 4.4 0 6.6-.9 6.6-2.5 0-.8 1.7-1.6 4-2 3-.5 4-1.1 4-2.6 0-1 .5-1.9 1-1.9.6 0 1-.9 1-1.9 0-3.8 1.8-3.1 2.5 1 .4 2.2.9 3.9 1.1 3.6.5-.5-2.6-25.5-3.4-27.7-.7-1.7-.9-1.7-4.7.2M958.6 59.7c-.4 10.3-.9 20-1.1 21.5s0 3 .5 3.3c.6.3 1 .3 1-.2 0-.4 1.6-.9 3.6-1l3.6-.2-.7 4.6c-.5 3.8-.4 4.5.8 4 1.1-.4 1.3 0 1 1.4-.4 1.5-.2 1.8 1.1 1.3.9-.3 1.5-1.4 1.4-2.3-.2-.9.7-2 2-2.6 2.7-1.2 3.1-6.9.5-9.7-1.3-1.5-1.5-2.3-.6-3.7.9-1.5-.1-4.9-5.4-18.2-3.6-9-6.6-16.5-6.8-16.7s-.6 8.2-.9 18.5M350.1 56.8c.1 5.3.5 16.2.9 24.2l.6 14.5.2-11.8c.1-7.9.6-11.7 1.3-11.7.8 0 1 2.6.5 9-.9 11.4-.5 12.8 3.9 12.8 4.3 0 5.4-1.4 6.2-7.7.5-4.1.9-5.1 2.4-5.1 1.1 0 1.9.4 1.9 1 0 1.5 2.7 1.2 4.5-.6.9-.9 1.3-2.4 1-3.4-.5-1.5-.2-1.7 1.5-1.3 1.1.3 2 0 2-.6s.4-1.1.8-1.1.9 1.7 1 3.7c.5 7.3 1.2 4.5 1.2-4.8 0-5.2-.5-10.1-1-10.9-.7-1.1-1-.7-1 1.7 0 3.3-1.3 4.3-4.2 3.5-1.8-.4-2.6-3.2-.9-3.2.5 0 1.1-1.8 1.3-4 .3-2.9 0-3.9-.9-3.6-.7.3-1.5 0-1.9-.6-.4-.7.7-.8 3.6-.3 3 .5 4.1.4 3.6-.4-.4-.6-1.4-1.1-2.2-1.1-.7 0-4.1-.9-7.4-2.1-3.4-1.1-6.8-1.8-7.6-1.5-.9.3-1.2.1-.9-.4.3-.6.3-1-.2-1-.4 0-2.9-.7-5.5-1.5l-4.8-1.4zM919 50.1c-12.2 4.4-16.7 5.8-17.3 5.3-.6-.6-1.8 14.9-2 27.1l-.2 8.9 15.3 5.3 15.2 5.2.1-23.5c0-12.9.1-25.1.2-27.2 0-2.5-.4-3.8-1.4-3.9-.8-.1-5.2 1.1-9.9 2.8M933 74.9c0 16.6.3 24.1 1.1 24.1.6 0 .8-1.2.5-3.3-.6-3.2-.6-3.2.5-.5 1 2.5 3.9 4 3.9 2 0-1.1 6.6-4.2 9-4.2 1.1 0 2-.5 2-1 0-.6.9-1 2-1 2.4 0 2.7-3.3.5-7-.8-1.4-1.8-3.4-2.3-4.5s-4.6-8-9.1-15.4L933 50.8zM346 65.1c0 4.6-.4 8.8-.8 9.4-1.5 2-4.9 3.3-8 2.9-2.9-.3-3.2-.1-3.2 2.2 0 1.4.4 2.3.9 1.9.6-.3 1.3 1 1.7 3 .7 3.7 1.7 4.8 4.6 5 1.9.2 2.8-1.4 3.4-6.5.7-4.8 1.4-5.1 1.4-.4 0 2.1.5 4.6 1 5.4.7 1 .8-3.9.4-14.5-.4-8.8-.8-16.2-1-16.4s-.4 3.4-.4 8M821.3 89.7c-14.4.3-15.3.5-15.3 2.3 0 1.3.5 1.8 1.5 1.4 1.2-.5 1.5.2 1.5 2.9 0 4 2.4 6.8 3.4 4.1.4-.9.4-3.2 0-5-.5-2.6-1.2-3.4-3.3-3.7-1.4-.2 4.6-.5 13.5-.6 8.9 0 18.3-.4 21-.7 3.3-.4 4.5-.3 3.5.4-1.1.8-1 1.1.5 1.5 1 .3-2 .3-6.7 0l-8.6-.6-.6 3.2c-.8 3.7-.1 5.8 2.9 8.8l2.3 2.3.6-2.1c.6-1.7.9-1.9 1.6-.8.6 1 .9.8.9-.9 0-1.2.6-2.2 1.4-2.2s2.4-1.1 3.7-2.4c2.4-2.5 4.9-2.5 4.9 0 0 .8.4 1.4.9 1.4.4 0 .5-1.7.1-3.8-.3-2-.6-4.2-.6-4.7.1-1.1-5.9-1.3-29.1-.8M788 91l-6.5.7 6.9.1c6.8.2 6.9.2 5.1 2.2-1 1.1-2.6 2-3.7 2-1 0-1.8.4-1.8 1 0 .5-.9 1-2 1-1.5 0-2 .7-2 2.9v2.9l8 .4c4.7.2 8.2-.1 8.4-.7.3-.6.9-.3 1.5.5.8 1.1 1.1-.5 1.1-6.3V90l-4.2.2c-2.4.1-7.2.4-10.8.8M854.6 95c.4 3 1 7.3 1.4 9.5.7 3.8.8 3.8.9.8l.1-3.2 5.5 3.2c3 1.8 5.6 3.9 5.8 4.7.4 1.1.5 1.1.6-.3.1-1.3 1-1.7 3.6-1.7 1.9 0 3.5-.4 3.5-.9s2.4 1.5 5.3 4.4c4.5 4.4 5.9 5.2 8 4.8 2.2-.4 2.7-.2 2.7 1.6 0 2.6 3.9 3 4.1.3.1-.9.5-.1 1 1.8.8 3.6.4-7.7-.7-19.7-.7-7.1.4-6.6-17.4-8.2-5.8-.6-12.6-1.3-15.1-1.7-3.5-.5-4.9-.2-6.2 1-1.5 1.5-1.7 1.5-2.6-.1-.8-1.4-1-.4-.5 3.7M772 94c0 2.3-1.5 2.7-2.3.7-.4-1-2.2-1.3-6.4-1.2-9.5.4-9.3.3-9.3 2.7.1 2.3.1 2.3 1.6.3 1.4-1.9 1.5-1.9 2.1.3.4 1.5 1.6 2.5 3.4 2.9 2 .4 2.9 1.2 2.9 2.4 0 1.7.8 1.9 8.1 1.9h8.2l-.7-3.1c-.3-1.7-.6-4.1-.6-5.3 0-1.8-.2-1.9-1.1-.6-.9 1.2-1 1.1-.6-.8s.1-2.2-2.4-2.2c-2.2 0-2.9.5-2.9 2M953 98.3c0 2.5-.4 4.9-1 5.2-.6.4-1-1.2-1-4 0-3.3-.4-4.5-1.2-4.1-.7.2-3 1-5.1 1.7-3.9 1.3-4.1 2-2.1 7.3.4 1.1.1 1.6-1 1.6-.9 0-1.6.6-1.6 1.4s-.6 1.6-1.2 1.9c-.9.3-.5 1.2 1.2 2.8 1.8 1.8 2 1.9.7.3-1.8-2.1-1.7-2.2 1.2-2.6 2.2-.3 3.1 0 3.4 1.4.3 1 .1 1.6-.4 1.2-.5-.3-.9.2-.9 1 0 .9.5 1.6 1.2 1.6.6 0 2.2 1 3.5 2.2l2.3 2.1.9-2.4c.9-2.2 1-2 1.1 1.6.1 2.2.6 5.1 1 6.5.5 1.4.7-4.4.4-13.9-.2-9.1-.7-16.7-.9-17-.3-.2-.5 1.6-.5 4.2M905.7 98.2c.4.7-.6.9-2.8.4l-3.5-.6.8 7.2c.4 4 1.1 10.6 1.4 14.5.4 4 1.1 7.3 1.5 7.3.5 0 .9-1.1.9-2.5s.6-2.5 1.3-2.4c1.8.1 5.4 1.7 4 1.8-2.1.1-1.4 2.1.7 2.1 1.1 0 2 .5 2 1.1 0 .7-1 .9-2.4.7-1.9-.4-2.2-.1-1.8 1.4.5 2.1 2.8 2.4 3.5.5.4-.9.6-.9.6.1.1.7.8 2 1.6 2.8 1.3 1.4 1.5 1.4 1.5 0 0-2 1.4-2 3.4-.1.8.8 3.2 1.5 5.6 1.5 3.3 0 4 .3 3.8 1.7-.2 1.3.5 1.9 2.4 2.1l2.6.3-.4-6.3c-.3-3.5-.7-7.9-.9-9.8s-.4-4.5-.4-5.8c-.1-1.2-.5-2.2-1-2.2s-1.2 1-1.4 2.2c-.3 1.7-.5 1.5-.6-.9-.1-2.2-.7-3.4-2.1-3.8-1.5-.5-2-1.5-2-4 0-2.6.3-3.3 1.5-2.9.8.4 1.5.4 1.5.1 0-.5-14.3-5.7-18.7-6.7-2.2-.5-3.1-.4-2.6.2M1273.8 376.9c-1.4 1.6-3.5 3.4-4.6 4-2.9 1.5-7.3 1.4-8.6-.3-.7-.9-4.2-1.6-10.4-1.9l-9.3-.6-.6 3c-.4 2.4-1 2.9-3.4 2.9-1.6 0-2.9.4-2.9 1 0 .5-.7 1-1.5 1s-1.5.4-1.5 1-2.8 1-6.2 1c-6.7 0-18.3 2.1-25.8 4.6-3 1-9 1.6-17.8 1.7l-13.3.2-1 3.7c-.9 3.6-1.9 4.3-7 5.3-2.6.5-3.9 1.6-4.4 3.6-.9 3.8-1.8 5.9-2.6 5.9-.5 0-.9.7-.9 1.5s-.4 1.5-1 1.5c-.5 0-1 2-1 4.4 0 5.6-.8 7.6-2.6 6.9-.7-.3-1.7.2-2 1.1s-1.2 1.6-2 1.6c-.9 0-1.4 1.1-1.4 3q0 3 1.5 3c.8 0 1.5.4 1.5.9s3.7 1.3 8.3 1.7c7.5.8 8.2 1.1 8.5 3.2.2 1.6 1.4 2.7 3.3 3.4 1.6.5 2.9 1.6 2.9 2.3s.8 1.6 1.8 1.9c3.1 1.2 8.2 5.1 8.2 6.3 0 2-10.7 4.4-19.5 4.4-7.4 0-8.5.2-9 1.9-.4 1.1-1.4 2-2.3 2-1.3 0-1.1.4.7 1.6 1.5 1.1 2.1 2.3 1.7 3.8-.2 1.1.2 3.9 1 6.1.7 2.2 1.4 5.1 1.4 6.5 0 2.5 4.4 6.8 8.3 8.3 1.1.4 1.7 1.4 1.5 2.4-.3 1.5-1.6 1.9-7.3 2.1-4 .2-7.6.9-8.5 1.7-1.5 1.3-9.9 2.1-20.2 1.7-5.2-.2-5.8-.4-5.8-2.4 0-1.2-1.1-4.1-2.6-6.5-1.4-2.4-2.2-4.8-1.9-5.3.3-.6 3.1-1 6.1-1 3.6 0 5.4-.4 5.4-1.3 0-.8.4-.7 1 .3.8 1.2 1 1.2 1 .1 0-.8.3-1.2.6-.8 1.3 1.2 3.2-2 3.6-6.1.3-3.8.1-4.2-2.4-5.1-1.8-.6-4.9-.6-8.8 0-4.2.7-6.7.6-8.1-.1-1.5-.8-2.8-.8-4.9.2-1.7.7-3 1.6-3 2s-2 1.9-4.5 3.4c-4.8 2.8-6.6 2.8-17 .4-2.7-.6-8.1-1.3-12-1.5-3.8-.1-7.7-.6-8.7-.9-.9-.4-2.9-.6-4.5-.4-2.4.2-2.9.8-3.3 3.8-.5 3.3-.8 3.6-5.9 4.8-6.4 1.6-7.8 1.2-7.8-2.2 0-4.3-1.9-5.6-8.4-5.6-3.2 0-7-.5-8.5-1-2-.8-2.9-.8-3.5.1-.4.7-1.4.9-2.2.6-1.7-.6-5.7 2.3-5.7 4.2 0 1.5 1.7 1.4 2.3-.2.3-.6.6-.3.6.8.1 1.5.3 1.7 1 .6.9-1.4.9-1.4 2.6 4.8.4 1.4-.1 2-1.9 2.5-2.6.6-5.3 4.5-8.1 11.9-1 2.6-2.1 4.7-2.6 4.7-.4 0-1.1 2.6-1.4 5.7-.4 3.4-1.5 6.6-2.6 7.8-1 1.1-3.2 5.1-4.9 8.8-3 6.7-9.2 14.3-10.8 13.3-1.3-.8-5.2 2.3-5.2 4 0 .8.5 1.4 1.2 1.4s.6.5-.4 1.2c-1 .9-2.5 7.4-4.7 20.8-1.7 10.7-3.8 23.5-4.6 28.5-2 12-2 12.3-1.1 17.3.7 3.9 1.3 4.6 5.4 6.5 2.5 1.2 6.6 4.1 9 6.4 2.4 2.4 4.7 4.3 5.2 4.3.4 0 2.8 2 5.3 4.5 2.6 2.5 5.3 4.5 6.1 4.5.9 0 1.8 1.1 2.2 2.5.3 1.4 1 2.5 1.4 2.5 1.4 0 1.8 5 .4 6.1-2.4 2-8.4-.1-12.1-4.2-2-2.2-4.2-3.9-5-3.9s-3.6-2.2-6.2-4.9c-2.7-2.8-6-5.3-7.5-5.7-1.4-.3-2.6-1-2.6-1.5s-.9-.9-2-.9-2-.5-2-1c0-.6-.4-1-.9-1-.4 0-2.5 6.6-4.6 14.8-7.5 29.2-15.1 53.8-21.4 69.6l-3.9 9.6H1215l.6-2.5c.3-1.4 1.1-2.5 1.6-2.5 2.3 0 9.4 2.4 10.9 3.7 1.2 1 7.3 1.3 26.7 1.3h25.2V571.4l-9-1.1c-7.1-.8-9.8-1.6-13-3.8-2.2-1.6-4-3.6-4-4.6 0-2.2-3.6-2.7-4.3-.7-.3 1-1.1 1-3.9 0-1.9-.6-4.2-1.2-5.1-1.2-2 0-3.4-4.7-1.9-6.2.7-.7 1.6-.6 3 .1 1.2.6 3.6 1 5.4.9s4.1.2 5.1.6c1.3.6 1.7.3 1.7-1.2 0-2.5 3.5-3.8 11.7-4.7 4.6-.4 7-.2 9.2 1 1.7.8 3.5 1.5 4.1 1.5.7 0 1-27.5 1-89 0-84.1-.1-89-1.7-89-1 0-3 1.3-4.5 2.9m-66.8 80.6c1.7.9 3 1.7 3 1.9 0 .3.3 1.1.6 2 .5 1.4-.4 1.6-6.7 1.6-10.6 0-21.1-3.2-19.5-5.9 1.1-1.8 19-1.4 22.6.4m2.5 12.1c9.7 2.7 14.9 4 20.5 5.3 1.9.4 4.4 1.2 5.5 1.8s5.7 1.4 10.3 1.8c4.5.4 8.2 1.1 8.2 1.5 0 1.2 5 2.8 11 3.5 8.6.9 14 3.3 14 6.1 0 4.4-1.8 4.8-23.1 4.8-11.5.1-18.1-.3-19-1-.8-.6-4.1-1.4-7.5-1.7-3.6-.4-9.5-2.1-14.3-4.2-4.6-1.9-9-3.5-9.9-3.5-1 0-3-.7-4.6-1.5-1.5-.8-3.8-1.5-5-1.5-1.6 0-1.8-.2-.7-.9s.7-1-1.4-1.3c-4-.4-5.1-2.7-3.6-7.7 1.2-4.1 1.2-4.1 5.9-4.1 2.6.1 8.8 1.2 13.7 2.6m-145.1 20.9c.3.9.2 2.3-.3 3.3-.5.9-1.4 2.9-2.2 4.4-.8 1.9-2 2.8-3.6 2.8-1.3 0-2.3.6-2.3 1.4 0 3.3-15.1 2.7-17.5-.6-1.6-2.4-.4-6.6 2.5-9.3 1.8-1.6 2-1.6 4.5.3 2.5 2 5.5 2 5.5.1 0-.5.7-.9 1.5-.9s1.5-.4 1.5-.9c0-.9 2.1-1.4 8.1-1.9.9-.1 2 .5 2.3 1.3m138.7 1.7c.3.4 3.2 1.4 6.5 2 3.2.7 6.3 1.8 6.7 2.5.5.9 3.3 1.3 8.5 1.3 6.6 0 8.3.4 11.3 2.4 2.7 1.9 5.2 2.5 9.7 2.7 3.4.1 5.9.6 5.7 1-.6.8 1.9 1.9 4.5 1.9 1 0 2.5.7 3.3 1.5s1.7 1.1 2.1.8c.3-.4.6.3.6 1.4 0 3.2-2.5 4.5-9 4.6-5.4.2-6.4-.1-8-2.2-1.6-2.2-2.4-2.4-8.1-2.1-11.7.6-12.8.4-15-1.8-1.1-1.2-2.9-2.2-3.9-2.2-1.1 0-2.9-.9-4-2-2.2-2.2-4.8-2.5-10.2-.9-2.9.7-3.8 1.5-3.8 3.2 0 1.8-.6 1.5-4.5-2.3-3.9-3.9-4.5-5-4.3-8 .2-2.5 1-3.8 2.7-4.7 2.5-1.2 8.1-.7 9.2.9m3.3 190.5c1.7 5.1 3.3 9.3 3.6 9.3s2-4.3 3.9-9.5c2.6-7.5 3.7-9.5 5.2-9.5 1 0 1.9.3 1.9.7 0 .5-2 6.2-4.4 12.8-3.5 9.7-4.8 12.1-6.5 12.3-1.2.2-2.1.2-2.1 0s-2-6-4.5-12.8-4.5-12.6-4.5-12.8 1-.2 2.2 0c1.8.2 2.7 1.9 5.2 9.5m29.7.2c1.6 1.6 2.9 3.9 2.9 5 0 1.9-.6 2.1-7 2.1-6.3 0-7 .2-7 2 0 3.5 5.9 5.3 8.9 2.6 1.2-1.1 2.1-1.2 3.1-.5 2.4 1.5-2.4 4.9-6.9 4.9-5.7-.1-9.1-3.8-9.1-10 0-4.3 4.7-9 9-9 2.2 0 4.1.9 6.1 2.9m21.4-1.3c3.4 2.2 4.8 7.7 3 12-1.6 3.9-4.1 5.4-9 5.4-5.2 0-8.5-3.6-8.5-9.2 0-2.4.6-5 1.3-5.9 3.1-4 9-5 13.2-2.3m-87.2 5.6c.7.7 1.9 2.6 2.7 4.1.8 1.6 2.2 3.3 3.2 3.8s1.8 1.6 1.8 2.4c0 1.1 1.2 1.5 4 1.5 2.6 0 4 .4 4 1.3 0 2-2.1 3.7-4.6 3.7-3.2 0-5.4 1-5.4 2.5 0 1.8-5.1 3-6.1 1.4s-7.7-3.9-11.6-3.9c-2.4 0-3.7-.7-4.9-2.6-1.6-2.3-1.6-2.6-.1-4.1 1.3-1.3 2.1-1.4 4-.6 3.2 1.5 4.3.6 5.1-4.2 1.1-5.5 5.1-8.2 7.9-5.3M55.3 391.6c-.7.7-1.3 3.4-1.3 5.9s-.4 4.5-.9 4.5-1.4 1.3-2.1 3c-.8 1.8-2 3-3.1 3s-1.9.3-1.9.7c0 .5-2.7 3.6-6 7s-6 6.8-6 7.6c0 1.7 4.2 4.7 6.5 4.7 1.1 0 1.5.7 1.3 2.1-.4 2.6-3.5 4.9-4.6 3.4-.4-.6-1.7-1.1-2.9-1.3-2-.3-2.3.1-2.3 3.4 0 2.2.6 4.1 1.6 4.9 2.3 1.6 1.1 16-1.4 17-.9.3-1.3.3-1-.1.4-.3.1-1.9-.7-3.5-1-1.7-1.5-5.7-1.5-10.7 0-10.1-1-11.6-7.8-11.5-5.6.1-14 3.2-11.9 4.5.7.5.1.8-1.8.8-1.6 0-4 .3-5.2.6-2.3.6-2.3.9-2.3 17.5C0 465.7.4 472 1 472s1 .5 1 1.1c0 .5-.4.7-1 .4-.6-.4-1 .5-1 1.9s.5 2.6 1 2.6c.6 0 1-.5 1-1.1q0-3.9 9-3.9c4.3 0 7.4-.6 9.9-2 10.6-5.7 16-6.3 24.4-2.6 4.8 2.2 6.5 2.4 12.5 1.9 6.7-.5 7.2-.4 9.5 2.1l2.5 2.7-2.1 3.7c-1.6 3-3 4.1-7.2 5.5-2.8.9-6.5 1.7-8.2 1.7-4.6 0-9.3 1.1-8.7 2.1.2.5-.8 1.1-2.3 1.5s-3.4 1.2-4.1 1.7c-.8.6-6.9 1.3-13.5 1.5-6.7.2-13.5.8-15.2 1.5l-2.9 1.1 2.4.7c1.8.5 1 .7-2.7.8L0 497v223h169.6c161.1 0 169.6-.1 168.9-1.8-9.7-23-25.9-77.5-28.1-94.3-.6-4.6-.8-4.9-3.6-4.9-3.8 0-8.8 2.2-11.2 4.9-1.1 1.1-2.5 2.1-3.1 2.1-.7 0-1.6 1.1-1.9 2.5-.4 1.4-1.3 2.5-2.1 2.5s-2.3.9-3.2 2c-1 1.1-2.3 2-3 2s-1.3.3-1.3.7c0 .5-1.9 1.7-4.1 2.8-2.3 1-5.1 2.9-6.2 4.2-1.2 1.2-2.7 2.3-3.2 2.3-.6 0-1.8.9-2.8 2-2.5 2.9-8.7 2.5-8.7-.7 0-1.8 5.3-7.1 10.5-10.4 6.3-4.1 11.5-9.1 11.5-11.1 0-1 .7-1.8 1.5-1.8s1.5-.4 1.5-.9 1.7-1.8 3.7-2.8c4.4-2.1 8.2-8.1 6.1-9.5-1.1-.6-1.1-1 .1-1.7 1.1-.7 1.1-.9 0-1.4q-1.65-.6 0-.6c1.2-.1 1.1-.4-.3-1.4-1.6-1.2-1.6-1.3.3-1.4 1.2-.1 2.1.4 2.1 1.3 0 2.3 6.7 1.8 8-.6.6-1.1 2-2 3-2 1.5 0 2-.7 2-2.6 0-4.2-2.1-16.8-3.1-18.6-.5-1-1-3.7-1-6-.1-4-.2-4.1-.9-1.3-.6 2.3-.8 1.5-.9-3.7 0-3.7-.5-7-1.1-7.3-.5-.3-1-1.5-1-2.6s-.6-2.2-1.4-2.5-1.2-1.2-1-1.9c.3-.7.1-1.6-.4-1.9s-.8-3.5-.6-7.1c.2-5.8.1-6.5-1.6-6.5-1.1 0-3-1.1-4.3-2.4-2.4-2.4-2.7-2.4-6.8-1.1-2.4.7-7.2 3.1-10.5 5.4-3.4 2.3-7.1 4.1-8.3 4.1s-3.3 1.1-4.7 2.5c-2.8 2.9-5.6 2.6-8.7-.6-1-1.1-2.2-1.9-2.7-1.9-1.5 0-1.2-2.7.4-4.3 2.2-2.1 1-15.9-1.6-18.7-2-2.1-5.4-2.7-6-1-.5 1.6-4.6 0-5.1-2.1-.3-1-1.1-1.9-1.9-1.9s-3.8-1.2-6.8-2.8c-6.2-3.1-7-5.1-5-13 .9-3.7.8-4.7-.5-6.2-.8-.9-1.5-3.1-1.5-4.8 0-2.2-.5-3.2-1.5-3.2-.8 0-1.5-.9-1.5-2 0-1.3-.7-2-2-2-1.1 0-2-.4-2-1 0-.5-.8-.9-1.7-.8-1 .1-3.9-.1-6.4-.6-4-.7-5.2-.5-8.3 1.6-3.7 2.4-4.5 4.2-2.3 5.2.6.3.3.4-.9.1-2.4-.6-5.9 2.5-3.6 3.2.6.3 1.2 1.1 1.2 1.9s.9 2.8 2.1 4.3c1.5 2.1 2.2 4.8 2.5 10.2.3 4 .8 7.6 1.3 7.9.4.3 1 1.7 1.3 3.2.5 2.7.3 2.8-3.3 2.8-2.1 0-5 .5-6.6 1.1-3.9 1.5-16.3 1.5-19 .1-2.1-1.1-2.5-.9-5.3 2.9-1.6 2.3-3 5-3 6.1 0 1-.4 1.8-1 1.8-.5 0-1 .6-1 1.3s-2.3 2.1-5.1 3.2c-5 1.7-5.3 1.7-8.6 0-4.2-2.3-8.7-11.3-10.9-21.6-.8-4-2.1-8.4-2.9-10-.8-1.5-1.5-4.4-1.5-6.4 0-4.2 2.6-10.5 4.4-10.5.6 0 1.7-1.3 2.3-2.9.8-2.3 1.9-3.1 4.8-3.7 2.7-.5 3.3-.9 2.3-1.6-.7-.6-.9-1.1-.3-1.4.6-.2.9-3.2.7-7-.6-11-.6-11 8.8-10.6 5.2.2 8 0 8-.7 0-.6.6-1.1 1.4-1.1s1.8-1 2.2-2.3c.4-1.2 1-2.4 1.5-2.7.4-.3.9-2.3 1.1-4.5.3-3.9.2-4-3.1-4.3l-3.4-.3.7-5.2c.3-2.9.6-6.2.6-7.5 0-1.9.5-2.2 3.5-2.2 1.9 0 3.5-.3 3.5-.6 0-1-2.8-3.4-3.9-3.4-.6 0-1.1-.5-1.1-1 0-.6-.7-1-1.5-1s-1.5-.4-1.5-.9c0-.4-1.2-.8-2.7-.9-12.5-.3-15.8-1.1-18.4-4.2-1.5-1.7-2.9-4.7-3.2-6.6-.8-4.5-9.5-13.4-13.2-13.4-1.4 0-2.5-.5-2.5-1 0-.6-2.9-1-6.7-1-8.4 0-18.7-1.6-19.1-3-.2-.5-1.5-1-2.9-1-1.3 0-3.1-.6-3.8-1.4-1.5-1.5-12.2-3.2-13.3-2.1-.4.3 0 1 .8 1.5 1 .6-1.7.8-7.3.5-4.9-.2-9.4-.8-10-1.4-.8-.6-1.6-.4-2.4.5M4.8 401.7l-4.8.4V423h2.9c1.7 0 3.3-.5 3.7-1.1.4-.8.9-.7 1.5.2.6 1 1.3 1.1 3.1.2 1.3-.6 3.9-1.8 5.9-2.7 3.7-1.6 4.9-4.1 4.9-10.5 0-3.7-3.4-7.1-7-7.1-1.5 0-3.4-.1-4.2-.3-.7-.2-3.4-.2-6 0"/><path d="M158 501c-1.1 1.1-2.4 2-3 2-.5 0-1 .3-1 .8 0 .4-1.3 1.3-2.9 2-7.1 3.1-10.4 9.2-5.8 10.9 3.2 1.2 19.4 1 19.4-.2 0-5.3.5-6.6 2.7-7.5 1.3-.5 2.7-1.8 3.1-2.9.3-1.1 1.9-2.6 3.5-3.3 5.6-2.4 3.7-3.8-5.5-3.8-7.2 0-8.8.3-10.5 2M890.1 520.5c0 1.1.8 7.8 1.8 15 1.1 7.1 2.3 16.3 2.6 20.2l.8 7.3 4.9-4.3c2.8-2.3 8.4-6.8 12.5-10 4.1-3.1 6.9-5.7 6.1-5.7-.7-.1-.3-.6.9-1.3s2.2-1.5 2.2-2c.1-.4.2-.6.4-.5.8.5 4.7-2.5 4.2-3.3-.4-.5.1-.9.9-.9 1.8 0 2.1-3.2.6-6.1-1.1-2-6.4-2.7-7.4-1-1.2 2-15.3 3.1-16.5 1.4-1.1-1.7-9.5-3.3-10.3-2-1 1.6-1.5.8-2.6-4.3-.5-2.5-1-3.6-1.1-2.5M962.1 524.4c-1.4 1.5-2 3-1.6 3.7.5.7.4 1-.3.5-.5-.3-2.5 1.3-4.4 3.6-4.3 5.5-5.4 6.8-9.4 11.1-1.9 2-3.4 4.1-3.4 4.6s-.8 1.7-1.7 2.7c-1.3 1.3-1.4 1.9-.5 2.2.6.2 1.2.9 1.2 1.7 0 .7 2.3 3.6 5 6.5 2.8 2.9 5 5.8 5 6.6 0 2 1.9 2.7 3.5 1.4s2.1-5.5.6-4.5c-.5.3-1.2.1-1.6-.5-.3-.5 0-1 .7-1 2.1 0 3.6-3.3 6.4-13.7 3.9-14.9 4.5-17.5 4-18.7-.2-.6-.5-.3-.5.8-.1 1.5-.4 1.6-1.6.6-1.6-1.3-2.1-6-.6-6 .5 0 1.1-.9 1.4-2 .7-2.5.5-2.5-2.2.4M875 527.7c-.8.3-1.8 1.1-2.2 1.7-.5.8-.8.7-.8-.2 0-.6-.9-1.2-1.9-1.2-1.1 0-2.1.6-2.4 1.2-.3 1-.9 1-2.9-.1-3.7-1.9-6.6-.7-6 2.6.3 1.8.1 2.4-.7 1.9-.6-.4-.9-1.2-.6-1.7s-.1-.6-1-.3c-1.3.6-1.2.9.7 2.3 1.3.9 2.6 1.5 3.1 1.3.4-.1.6.2.5.7-.3.9 21.6 19.1 22.9 19.1.3 0-.4-1.2-1.8-2.6l-2.4-2.7 2.8 1.8c1.5 1 2.6 2.4 2.3 3-.4 1.2 1.2 3 5.8 6.5 1.8 1.4 1.9 1.3 1.2-2-.3-1.9-1.1-7.3-1.6-11.9-.6-4.7-1.5-8.8-2.1-9.2-.7-.4-.8-1.2-.5-1.8.4-.6.2-1.1-.3-1.1-.6 0-1.1-.7-1.1-1.5s-.7-1.5-1.5-1.5c-.9 0-1.9-.8-2.2-1.8-1.1-3-3.7-3.9-7.3-2.5M856.3 538.2c.4 1.2.2 1.5-.8 1.2-.8-.3-2-.2-2.7.2s-2.9.7-5 .5c-2.2-.1-3.8.2-3.8.8s-1.5 1.1-3.4 1.1-3.8.5-4.1 1c-.4.6-1 .8-1.5.5-.8-.5-2.2 2.4-1.7 3.6.1.3-.6 1.4-1.6 2.4-3.1 3.1-4.9 6.4-4.1 7.6.4.7.3 1-.2.7s-3.9 4.5-7.5 10.7l-6.6 11.2 7.7 12.4c14.3 23.3 23.1 35.8 20.7 29.5-.4-.9-.3-1.5.2-1.1.5.3 2-.8 3.4-2.4 1.4-1.7 2.8-2.7 3.1-2.4.3.4.6.1.6-.5s1.7-2.8 3.8-4.9c2-2.1 7.1-7.6 11.2-12.3s9.7-11 12.5-14c2.7-3 6.1-7 7.5-8.9s3.2-4.1 4.1-5c4.3-4.3 3.9-4.8-16.1-20.6-6.9-5.4-13.4-10.6-14.4-11.4-1.8-1.5-1.9-1.5-1.3.1M827.3 542c.3 1.1.1 3.3-.5 4.8-.9 2.4-1.5 2.7-4.9 2.4-3.1-.3-3.9-.1-3.9 1.2 0 .9-.6 1.6-1.2 1.5-.7-.1-2.9.1-4.9.5-3.3.7-3.5 1-3.4 4.4.3 8.4 4.5 21.5 4.5 14.2 0-1.1.4-2 .8-2s1.6-1.3 2.5-3c1-1.6 2.3-3.5 3-4.2 2.1-2.2 3.7-6.7 2.7-7.3-.6-.4-1-1.6-1-2.8.1-2.1.1-2.2 1.5-.3.8 1.1 1.6 1.8 1.8 1.5 2.7-3.3 6.4-9.9 5.7-9.9-.6 0-1-.7-1-1.5s-.5-1.5-1.1-1.5-.9.9-.6 2M925.3 543.3c-2.1 1.8-6.5 5.3-9.8 7.7-3.3 2.5-6.8 5.2-7.9 6s-4.3 3.7-7.2 6.5l-5.1 5-1.3 16c-.7 8.8-1.6 17.9-2 20.2-.4 2.4-.3 4.3.1 4.3.5 0 .9-.4.9-.9s.8-1.7 1.7-2.7c.9-.9 8.6-10.9 17-22.3 8.5-11.3 15.9-21.3 16.6-22.1 3.4-4.1 4.7-6.7 4.8-9.5.1-1.7.3-2.2.6-1.2.7 2.5 2.3 1 2.3-2.1 0-2.1-.3-2.3-1-1.2-1.2 2-2.1.8-2.3-3.2-.3-4.5-2.4-4.6-7.4-.5M780 551.5c0 .6.9 1.6 2 2.3 2.6 1.6 2.6 4.2-.1 4.2-1.2 0-2.3-.8-2.6-2-.7-2.5-2.8-2.6-4.5-.2-.7.9-2.5 2.3-4 2.9-1.4.7-3.6 2-4.7 3-2.3 1.9-2.8 6.8-.8 7.6.7.4.8.6.1.6-1.7.1-4.5-4.5-3.9-6.6.4-1.1.1-.9-.6.4-1 1.9-.4 3.3 4.6 11.3 3.2 5 7.3 11 9.2 13.3 4.1 4.9 23.5 21.7 24.4 21.1.3-.2.3-2.6-.2-5.4-.4-2.7-1-7.8-1.3-11.2-.3-3.5-1-9-1.5-12.2-1.1-6.2-1-7.2.8-6.1.6.3 1 2.7 1 5.3-.1 5.5.8 11.9 2.1 14.7.5 1.1 1.1 3.3 1.2 5 .2 2.3 1.1.5 3.7-7.5 1.8-5.8 3.7-11 4.2-11.6.6-.8.4-1.4-.5-1.7-.8-.3-1.7-.3-1.9.1s-.2.1 0-.7c.4-1.7-8.8-11.3-10.3-10.7-.7.3-2-.5-3.1-1.7l-1.8-2.2 2.3 1.9c1.2 1.1 2.2 1.5 2.2.9 0-1.5-3.5-4.3-6-4.8-3-.6-3.8-1.5-1.4-1.5 1.8-.1 1.8-.1.1-1.1-1-.6-3.4-2.7-5.2-4.7-1.9-2.1-3.5-3.2-3.5-2.7M938 558.7c0 1-.7 3.7-1.5 6.1-.9 2.4-1.3 4.8-1 5.3.4.5.2.9-.3.9s-1.3 1.9-1.9 4.2c-.6 2.4-3.1 12.3-5.7 22.1-2.5 9.7-4.6 18.2-4.6 18.9 0 .6 1.2-.5 2.8-2.5 2.4-3.1 18.5-24.5 23-30.5 3.4-4.7 5.3-8.7 4.1-9.1-1.8-.6-6.4-5.8-8.5-9.6-1-1.9-2.7-3.8-3.6-4.1-1-.3-1.6-.9-1.3-1.4s.1-1.1-.5-1.5c-.5-.3-1 .2-1 1.2M340.4 559.6c.3.8.2 1.2-.4.9-1.1-.7-2.4 3.8-1.7 5.7.7 2-1.2 4.8-2.8 4.2-.8-.4-1.5-.1-1.5.4 0 .6-.9 1.4-2 1.7-1.6.5-1.9 1.2-1.4 2.8.4 1.2 1.1 2.3 1.5 2.5.5.2.9 1.2.9 2.3 0 1 .5 2 1 2 .6.1 1.6.2 2.2.3.7 0 1.4 1 1.7 2.1.9 4.8 8 5.4 8.2.6.1-2.5.2-2.5.8.4s-1.5 6.5-3.8 6.5c-.5 0-1.2.6-1.4 1.2q-.6 1.5-.6 0c-.1-.6-.6-1.2-1.3-1.2-.6 0-.4.7.5 1.8 1 1 1.7 2.2 1.7 2.7 0 1.5 7.3 9.7 9.4 10.5 1.1.5 1.5.9.9.9-1.3.1 3.5 8 4.8 8.1.4 0 .1-1.9-.6-4.3-.7-2.3-2.5-8.3-3.9-13.2-1.5-5-3.3-11.7-4.1-15-.7-3.3-1.9-7.4-2.6-9-1.2-3-1.2-3-1.8-.6-.5 2-.9 1.7-2.3-2.8-1.6-5.1-1.3-6.2 1-3.9 1.5 1.5 1.5.9.1-4.8-.6-2.4-1.6-4.4-2.1-4.4-.6 0-.7.7-.4 1.6M359.8 559.9c-1.2 1.4-1.3 2.1-.5 2.4.9.3.9.8 0 1.8-2.1 2.1-1.5 4.9 1.2 6.1 1.6.7 2.5 1.9 2.5 3.3 0 2.8 3.6 7.5 5.7 7.5.9 0 1.3.6.9 1.5-.3.9 0 1.5.9 1.5 1.8 0 4.9 4.5 4.1 5.9-.7 1 .9 3.3 5.1 7.7 1.2 1.3 2.5 3.3 2.8 4.5.6 1.7.9 1.9 1.6.8.5-.8.9-1.1 1-.7.2.9.2 1 1.4 5.1 1.5 5.5 1.6 1.7.1-9.9-.8-6.6-1.8-14.6-2.2-17.9-.5-4.5-.9-5.5-1.5-4-.7 1.8-.8 1.8-.8-.5-.1-3.4-3.6-6.3-6.6-5.6-3.6.9-7.5-1.3-8.2-4.6-.3-1.5-1.2-2.8-1.9-2.8-.8 0-1.3-.3-1.3-.8.6-3.6-1.7-4.3-4.3-1.3M932.6 560.5c-.9 1.3-1.6 2.9-1.6 3.5 0 .5-.4 1-1 1-.5 0-1 .5-1 1.1 0 .5.4.7 1 .4s.7.1.3 1c-.4 1.3-.8 1.4-1.4.4-.4-.8-1-1.1-1.2-.9-.2.3-1.8 2.6-3.6 5.3-1.8 2.6-4.2 5.8-5.4 7.1s-3.8 4.5-5.7 7.1-6.5 8.6-10.2 13.4c-3.7 4.7-7.7 9.8-8.8 11.4-3.2 4-3.6 6.6-6.5 36.2-1.4 14.8-2.8 27.9-3 29-.5 1.9-.5 1.9.7.1 3.3-4.7 14.7-23.1 20.3-32.6 10.2-17.3 12.1-21.2 14.3-28.5 2.6-8.6 15.1-57.5 14.7-57.5-.1 0-1 1.1-1.9 2.5M515.4 570.2c-1.5 2.4-3.1 4.4-3.5 4.6-.5.2-.9 1-.9 1.8s-.6 1.1-1.6.7c-1.1-.4-1.2-.8-.4-1.3s.2-1-1.4-1.4c-2.8-.7-6.6 1.8-6.6 4.4 0 1.2-1.4 1.4-8.5 1.2-8-.3-8.5-.2-8.5 1.7q0 2.1-1.8 2.1c-1.4 0-2.2 1.3-3.2 5-.9 3.2-1.7 4.6-2.2 3.8-1.2-2-1 .6.4 3.9.6 1.5 1.2 3.2 1.4 3.8.4 1.4 2.8 7.9 3.1 8.4.6.8 4.2-3.1 3.9-4.2-.2-.7-.1-.9.1-.5.8 1.4 2.5.8 2-.6-.4-1-.1-1.3.8-1 1.7.7 21.5-18.8 21.5-21.1 0-.9-.4-1.3-1-1-.5.3-1 .1-1-.5 0-.7.6-1 1.4-.7 1.7.7 2.2 0 6.5-7.6 3.8-6.6 3.4-7.7-.5-1.5M603.8 566.6c-.5.4-.7 3-.7 5.8.2 4.8.2 4.9.9 1.6.5-2.8.8-3.2 1.5-1.7.4 1 .2 4.4-.4 7.5-.8 3.8-.8 5.8-.1 6 .5.2 1 1 1 1.8s1.1 1.9 2.5 2.4 2.5 1.4 2.5 1.9c0 .8 4 2.7 4.8 2.2.1-.1 1.2.8 2.5 1.9l2.2 2.1.7-4.8c.9-7 .8-26.7-.2-22.5-1.1 4.7-1.6 4.8-2.4.3-.7-4.3-1.9-5.1-7.7-5.1-2.8 0-3.9.4-3.9 1.5 0 2-1.8 1.9-2.2-.1-.2-.9-.6-1.2-1-.8M348.5 569.6c1.7 7.6 3.6 13.4 4.5 13.4.5 0 .7.6.4 1.3-.5 1.5 6.7 31.4 9.3 38.5.9 2.4 2.9 6.1 4.5 8.3 1.5 2.1 2.8 4.1 2.8 4.3 0 .5 12.5 21.5 13.7 23.1.5.5 3 4.7 5.7 9.2 2.8 4.6 5.1 8.1 5.3 7.9.4-.3-1.6-20.7-4.3-44.6-1.3-11.5-1.9-14.2-4.5-18.7-1.8-3.1-3.5-5-4.1-4.7-.6.4-.8.2-.5-.4.4-.5-.8-2.8-2.5-5-1.8-2.2-5-6.4-7-9.2-2.1-2.9-3.8-4.9-3.9-4.4 0 .5-.4-.1-.9-1.3-.7-1.6-1.4-2.1-2.6-1.6-1.3.5-1.6.3-1.1-1 .4-1.2.1-1.7-1.1-1.7-1.3 0-1.4-.2-.4-.9 1-.6.9-1.1-.4-2.2-1.6-1.2-1.7-1.2-1 .1.4.8-.1.5-1-.8-.9-1.2-2.3-2.2-3.1-2.2-.7 0-1.6-.7-1.9-1.5-.4-.8-1.1-1.5-1.6-1.5-.6 0-.7.7-.4 1.6.3.8.2 1.2-.4.9s-1-2-1-3.6c0-1.7-.7-3.7-1.5-4.6-1.4-1.4-1.5-1.3-1 1.3M652 568.5c-1.1 1.3-1 1.5.6.9 1.8-.5 1.8-.5-.1 1-1.1.9-2.5 1.4-3.2 1.1-2.4-.9-6.2 1.7-6.8 4.7-.9 3.8-.2 22.8.8 22.8.4 0 .7-.4.7-.8 0-.5 2.1-2 4.6-3.3 5.2-2.6 9.3-7.4 9.5-11 .1-1.8.3-1.5.9 1.1.5 2.5.7.8.7-5.5 0-5-.2-7.7-.4-6.2l-.5 2.9-2-3.9c-2.7-5.2-3.3-5.6-4.8-3.8M401.3 569.7c-.7.2-1.3 1.5-1.3 2.8s-.8 2.9-1.7 3.4c-1.7 1-1.7 1-.1 1.1 1 0 1.5.5 1.2 1.3-.6 1.5 6.5 9.7 8.4 9.7.6 0 1.2.7 1.2 1.6 0 1.8 2.3 4.4 3.9 4.4.6 0 1.1.5 1.1 1 0 1.8 23.1 26 24.9 26 1.9 0 11.4-14.7 10.5-16.2-.5-.7-.2-.8.6-.3 1 .6 1.2.4.7-.9-.4-1-.3-1.5.3-1.1.8.5 4.4-4.6 11.3-15.8 1-1.5 1.3-2.7.7-2.7-.5 0-1 .4-1 .8s-1.4.9-3.1 1c-2.4.2-3-.1-2.6-1.2s-.3-1.3-3.6-.8c-2.3.3-4.3.9-4.5 1.3-.2.5-1.2.9-2.3.9-1 0-1.9.4-1.9 1 0 1.5-2.7 1.2-3.3-.4-.3-.8-2.4-1.7-4.6-2.1-3.1-.5-4.1-1.1-4.1-2.6s-.7-1.9-3-1.9c-2.4 0-3.5-.7-4.8-2.9-1.1-2-2.7-3.2-4.9-3.6-1.8-.3-3.3-1-3.3-1.5 0-.6-2.8-1-6.2-1-4.5 0-5.9-.3-4.8-1 1.2-.8 1.1-1-.5-.9-1.1 0-2.6.3-3.2.6M625.5 571.3c-.6 1.9-1.4 21.9-.8 21.4.2-.3 2.1.6 4 1.9 2 1.3 4.6 2.4 5.9 2.4s2.7.7 3.2 1.6c1.1 1.9 2.2-7.2 2.2-17.7v-6.8l-4.2-1.1c-2.4-.6-5.6-1.5-7.1-2-2-.6-2.9-.5-3.2.3M890.2 573.2c-.6.6-1.2 1.8-1.2 2.5s-.5 1.3-1.2 1.3c-.6 0-2.7 1.9-4.7 4.2-4.8 5.6-21.3 24-27.2 30.3-2.6 2.7-6.5 7.1-8.7 9.7l-4 4.7 2.4 6.5c2.5 6.9 9.4 34.6 9.4 37.7 0 3.3 1.4 2.1 4.5-3.9 1.6-3.1 3.5-6.4 4.1-7.2.7-.8 2.9-4.9 5-9s4.3-8.2 5-9c.6-.8 4.4-7.8 8.2-15.5l7.1-14 1.6-18.7c.9-10.4 1.5-19.3 1.3-19.8-.2-.7-.8-.6-1.6.2M389.2 590.2c.6 10.5 1.3 17.1 2.4 22.5.1.7.9 2 1.8 2.9.9.8 1.6 2.4 1.6 3.3 0 1 .7 2.4 1.5 3.1.9.7 1.3 1.5 1.1 1.8-.5.5.5 2.6 7.4 14.7 2.2 3.8 7.2 13.1 11.2 20.5l7.2 13.4 3.7-14.9c3.3-13 7-25.3 9.2-30.5.9-2-13.6-17.6-15.4-16.5-.8.5-1 .4-.5-.4.8-1.2-.9-3.2-14.4-17.3-4.7-4.8-9.4-8.8-10.3-8.8-1.7 0-2.1-.9-1.8-4.3.2-1.2-.5-1.7-2.6-1.7h-2.8zM811 582.5c0 .2.9 1.9 2 3.7s2 4 2 4.8c0 1.2-.2 1.2-.9.2-.4-.8-1.9-1.2-3.2-1-2.3.3-3.5 2.7-7.4 14.3-.7 2.2-1.6 4.7-2 5.6-.5 1.2 2.6 4.1 12.2 11.6 14.9 11.7 17.1 13 16.9 10.5 0-.9.4-1.7.9-1.7.6 0 .9.6.9 1.2-.3 2.3 1 1.3 3.9-2.9l2.8-4-4.3-6.8c-2.4-3.8-7.2-11.4-10.7-16.9-4.6-7.3-6.7-9.8-7.4-8.9-.6.9-.7.8-.3-.5.3-1.1-.5-3.4-2-5.7-2.5-3.7-3.4-4.7-3.4-3.5M763 587c.9.6 1 1 .3 1-.6 0-1.6 2.1-2.2 4.7-.5 2.7-2.6 9.5-4.5 15.3-4.3 12.4-4.4 13.5-1.6 11.8 1.1-.7 1.8-1.8 1.6-2.4s.1-1.1.9-1c1.9.2 21.5-17.3 21.5-19.2 0-1.5-6.6-7.2-10.5-9.2-4.2-2.1-8.4-2.9-5.5-1M510.7 590.3c-1 1-2.2 1.5-2.8 1.1-1.6-.9-6.9 4.6-6.8 7 .1 1.7.2 1.8.6.3.6-2.4 2.3-1.1 2.3 1.9 0 1.4.7 2.7 1.8 3.1.9.4 2.3 1.5 3 2.5s1.7 1.8 2.2 1.8 3.1 2 5.7 4.4c5.2 4.8 10.3 8.9 10.3 8.4 0-.2-2-6.2-4.4-13.3-2.7-8-4.6-12.1-4.9-10.9-.4 1.6-.5 1.6-.6-.4 0-1.2-.7-2.2-1.6-2.2-.8 0-1.8-1.3-2.2-2.8-.8-2.7-.9-2.7-2.6-.9M471 596.5c0 .9-.9 1.5-2.5 1.5-1.4 0-2.5.5-2.5 1.1 0 .5-.4.8-.8.5-1.3-.8-7.4 3.3-6.7 4.4.4.6-.1.7-1.1.3-1.6-.6-1.5-.7.2-2 1-.7 1.5-1.3 1.1-1.3s-.3-.9.3-2.1c2.3-4.2.1-2.8-2.5 1.7-2.2 3.8-2.5 4.8-1.4 5.6s1 .9-.4.4c-1.4-.4-2.8 1.1-6.4 6.7-2.5 3.9-5.5 8.2-6.7 9.5-1.7 1.9-1.8 2.5-.6 3.2.8.5 1.8.6 2.3.3.4-.3 1.1.4 1.4 1.6s1.2 2.1 1.9 2.1c2 0 3 3 1.3 4.1-.8.5-.9.9-.3.9 1.5 0 16.8-11.4 25-18.6l6.3-5.5-1.8-4.2c-1-2.3-2.1-5.5-2.5-7.1-.6-2.4-.9-2.7-1.8-1.5-.7 1.1-.9.9-.5-.9.3-1.2.1-2.2-.4-2.2s-.9.7-.9 1.5M940.5 599.6c-4.2 5.3-5.2 6.5-13.9 18.3-5.9 7.9-6.1 9.3-1.4 12.5 1.9 1.3 1.9 1.6.5 1.6-2.2 0-2.2.2.8 12.2 2.6 10.6 3.2 12 3.8 9.7.2-.8.9-3 1.4-4.9.6-1.9 1.6-5.8 2.3-8.5.6-2.8 1.5-5.9 2-7 2.3-5.7 8.1-24.8 8.2-26.7.1-1.3.5-2.8 1-3.4.4-.6.5-2.9 0-5l-.8-3.9zM337.5 598c.3.5.2 1-.4 1s-.6 1.1-.1 3c.8 2.8-.4 4.4-1.3 1.7-.2-.6-.2.1.1 1.8.2 1.6.8 3.5 1.3 4 .4.6 1.1 3 1.5 5.3s1 4.2 1.4 4.2c.3 0 .7.6.8 1.2.2 2.3 2.2 10.2 3.1 12.3.5 1.1 2 6 3.3 11l2.5 9 2.2-5.9c1.2-3.3 2.7-8 3.2-10.5.6-2.5 1.7-5.9 2.5-7.4 1.9-4 1.9-4.3-2.3-9.5-2.1-2.6-4.1-5.1-4.6-5.7-4.5-6-13-16.5-13.3-16.5s-.2.4.1 1M489.6 606.6c-3.6 3.1-6.6 6-6.6 6.4 0 1 6.6 10 8.4 11.5.7.5 2.7 3.2 4.6 6 1.8 2.7 4.5 6.3 5.8 8 2.5 2.9 2.5 2.9 1.9.5-.3-1.4-1.1-5-1.7-8s-1.5-6.4-2-7.5-1.1-4.1-1.5-6.6c-.3-2.5-1.6-6.1-2.9-8l-2.4-3.4 2.1-2.3c3.6-3.9 1.1-2.4-5.7 3.4M780.8 602.8c-1 .2-1.8.8-1.8 1.3s-.3.8-.7.7c-1.1-.4-11.1 7.2-18.1 13.6-3.3 3.1-6.4 5.6-7 5.6-3.3 0-.7 3.4 8.2 10.7 5.5 4.6 10.4 8.3 10.7 8.3.4 0 .9-1.3 1.2-3 .4-1.6 1.6-5 2.7-7.4 1.1-2.5 2-4.9 2-5.5 0-.5.4-1.2.9-1.5.4-.3.5 1.1.1 3.2-.5 2-1.1 5.3-1.5 7.2l-.7 3.5 3-3.5c6-7.1 10.3-12.6 13.8-17.9l3.7-5.4-4.7-4.5c-2.6-2.4-5-4.2-5.3-3.8-1 .9-3.3 7.8-3.3 9.8 0 1.8-1.8 3.4-2.7 2.4-.3-.3 0-1.8.6-3.4.7-1.6 1.1-4.7.9-6.8-.2-3.1-.7-3.9-2-3.6"/><path d="M498.6 605.2c.4 1.3.8 3.6.9 5.3.1 1.6.5 3.7.8 4.5 1.3 2.9 5.7 21.1 5.7 23.3 0 4.9 1.4 4.7 8.3-.7 3.6-2.9 8.3-6.8 10.3-8.6l3.7-3.2-2.9-2.4c-1.6-1.3-5.5-4.1-8.6-6.1-3.1-2.1-5.8-4.3-5.8-4.8-.1-1-11.2-9.5-12.5-9.5-.3 0-.3 1 .1 2.2M331 608c0 2.2-.1 2.3-2 .5-1.1-1-2-1.6-2.1-1.4 0 .2-.2 1.3-.4 2.4-.7 3.3.5 6.2 3.1 7.5 1.3.8 2.4 2 2.4 2.9 0 1.4-.2 1.4-1 .1-1.7-2.6-1.2 1.1.6 4 1.4 2.3 1.4 2.3.9.2-.4-1.2-.2-2.2.4-2.2.5 0 1.1 1 1.3 2.2.2 1.3.8 2.2 1.4 2.1s1.1.4 1.1 1.2c0 .7-.6 1.1-1.4.8-.7-.3-1.3 0-1.3.6s.7 1.1 1.6 1.1c1 0 1.3.6 1 1.8-.3.9.4 3.3 1.7 5.2 1.2 1.9 3.2 5.5 4.4 8 2.8 5.7 2.3 2.6-1.9-11.5-1.7-5.5-3.4-11.6-3.9-13.5-.4-1.9-1.6-5.3-2.5-7.5-1-2.2-1.8-4.3-1.8-4.7-.2-1.9-1.6-1.8-1.6.2M473.3 619.2c-4.9 4.2-19.4 15.6-21.6 17.1-.8.5.1 1.9 2.8 4.4 2.2 2 7.6 6.9 11.9 11 4.4 4 8.2 7.3 8.6 7.3.3 0 1.2-7.8 1.9-17.3.7-9.4 1.5-19.3 1.7-22 .3-2.6.4-4.7.2-4.7s-2.7 1.9-5.5 4.2M480.2 626.5c-.6 6.1-1.4 14.6-1.7 19s-.8 9.7-1.1 11.7c-.4 2.7-.2 3.8.7 3.8 1.2 0 18.1-10.3 22.8-13.9l2.5-1.9-3.5-4.5c-1.9-2.6-6.1-8.1-9.4-12.4s-6.7-8.9-7.6-10.3c-1.5-2.3-1.6-2-2.7 8.5M794.5 621.7c-2.2 3-4.9 6.5-6.1 7.8-1.1 1.2-4.3 5.4-7.2 9.3L776 646l5.2 3.3c8.4 5.3 19.4 11.7 20.1 11.7.4 0 .7-2.6.7-5.8 0-5.8-2.7-38.2-3.2-38.7-.2-.2-2.1 2.2-4.3 5.2M801.4 621.2c.8 6.3 2.5 29.9 2.6 34.6 0 1.9.4 3.2.9 3 .9-.3 15.1-13 21.4-19.1 2.5-2.5 2.7-3 1.4-4-.9-.7-5.1-3.9-9.4-7.2s-9.6-7.4-11.7-9.2c-2.2-1.8-4.4-3.3-4.9-3.3s-.7 2.2-.3 5.2M884.5 626.8c-1.1 2-6.7 12.2-12.5 22.7-13.9 25-13.8 24.7-12.2 25.2.6.3 1.2 1.1 1.2 1.9 0 1.2-.4 1.3-2.2.3-2-1.1-2.1-1-1.6 3.7.4 2.7 1.4 12.7 2.4 22.1 2.3 21.6 3 22 9.9 6.5 2.6-5.9 6.1-13.4 7.6-16.6 3.1-6.4 3.6-9.6 1.7-9.7-.7 0-.4-.4.7-.9 1.9-.7 2.2-2.3 3.4-14.1.7-7.4 1.6-16.1 2.1-19.4s1.2-9.8 1.5-14.5c.4-4.6.8-8.8 1.1-9.1.2-.4.1-1-.4-1.3-.4-.2-1.7 1.2-2.7 3.2M393.6 633.1c.4 5.3 1.6 18.2 2.8 28.5l2.1 18.9 3.5-.2c3.1-.3 3.3-.1 1.7 1-4.8 3.2-4.7 2.9-2.7 7.2 1 2.2 3.6 8 5.8 13 6.8 15.5 8.4 18.5 9.7 18.5.7 0 1.5-1.9 1.8-4.7 2.6-20.2 4.7-38.6 4.5-38.9-.2-.1-2.2.3-4.5.9-4.3 1.1-6.9.3-4.3-1.3.8-.6 2.7-1 4.3-1 1.5 0 2.7-.2 2.7-.5 0-1.4-24.7-46.5-26-47.5-.4-.3-1-1.2-1.3-2-.4-.8-.4 2.8-.1 8.1M737 625.5c0 .3 1.2 1 2.6 1.5 1.4.6 2.2 1.5 1.8 2.1-.5.8-.9.8-1.4-.1-.6-.9-.9-.9-1.3.1-.4 1.1-.8.9-1.9-.5-1.5-1.9-1.9-1.7-10.6 4.5-6.2 4.4-9.5 7.3-10.2 9.3-1.1 3.1-.8 4.2.8 3.2.6-.3.8-1.6.4-2.9-.5-1.9-.3-2 1-.9 1.7 1.4 1.6 1.4 13.8-5.6 2.5-1.4 6.4-4 8.8-5.8l4.2-3.2-3.1-1.1c-3.5-1.2-4.9-1.4-4.9-.6M437.7 628.7c-.9 1.7-6.6 21.2-8.1 28-.9 3.9-2 8.4-2.6 10l-1 2.8 2-2.4c3.2-3.8 17-27.1 17-28.7 0-1.4-5.6-10.4-6.5-10.4-.2 0-.6.3-.8.7M525.9 631.3c-1.9 1.7-6.3 5.4-9.7 8.2-6.4 5.1-7.2 7.2-3.7 9 1.1.6 4.8 2.7 8.1 4.7 3.4 1.9 7.2 3.9 8.5 4.3s5.1 2 8.4 3.5c8.9 4.1 9.9 4.3 11.9 2.1 1.7-1.9 1.7-2.2-2-8.3-2-3.5-5.8-9.4-8.3-13.2-2.5-3.7-5.6-8.3-6.9-10.2-1.2-1.9-2.3-3.4-2.5-3.4-.1 0-1.8 1.5-3.8 3.3M838.1 631.5c-1.7 2-3.1 4.6-3.1 5.9 0 2 17 31.9 17.7 31.2.6-.6-7.8-32.6-9.6-36.6l-1.8-4.1zM746.9 632.7c-1.3 2.1-2.6 4-2.9 4.3-.5.5-13.9 20.3-15.3 22.7-.4.7.5 2 2.2 3.2l2.9 2.1 8.4-3.6c9.9-4.2 19.7-9.2 21.8-11 .8-.7 2.8-1.9 4.3-2.7l2.8-1.5-6.3-5.3c-7.3-6.3-14.5-11.9-15.2-11.9-.2 0-1.5 1.7-2.7 3.7M358.6 632.2c-.4 1.3-1.3 4.8-2.1 7.8s-2.4 8.4-3.6 12l-2.1 6.5 5.1 7.5c12.3 18 16.1 23.4 16.1 23 0-.9-5.6-30-8.6-44.8-1.5-7.8-3.1-14.2-3.5-14.2s-1 1-1.3 2.2M919 631.5c0 .3-.9 4.9-2 10.3-8.4 40.7-10.5 54.1-7.1 45.5.6-1.5 2.8-5.1 4.8-7.9 2.1-2.8 6-8.2 8.6-11.9l4.9-6.8-1.7-8.6c-2.4-12.4-5.1-21.1-6.6-21.1-.5 0-.9.2-.9.5M739.4 634.8c-2.3 1.5-7.5 4.7-11.5 7.2-4.1 2.4-7.6 4.7-7.9 5-.3.4-1.3.9-2.3 1.3-1.6.6-1.6.8.2 2.9 1.1 1.3 2.7 3.2 3.5 4.3 2.1 2.9 2.7 1.5 1.7-3.8-.4-2.6-.5-4.7 0-4.7.9 0 1.7 2.7 2.3 7.8.2 1.8.6 3.5.9 3.8.2.3 1.9-2.1 3.7-5.3s5.4-8.7 7.9-12.3c5-6.9 6.4-9.1 5.9-8.9-.2 0-2.2 1.3-4.4 2.7M914.4 634.7c-.9 2.4-4.1 7.6-16.9 27.3-4.8 7.3-11.5 19.5-11.5 20.8 0 .7 3 2.7 6.8 4.3 3.7 1.7 7.9 3.7 9.3 4.4l2.6 1.4 1.7-9.7c1-5.3 3.6-18.7 5.7-29.6 3.9-19.3 4.5-24.6 2.3-18.9M946.8 634.6c-.7 1.6-3.3 6.1-5.8 9.9-2.6 3.9-4.9 7.7-5.3 8.5s-1.6 3-2.7 4.9c-2 3.1-2 3.9-1 13.5.6 5.5 1.6 12.1 2.2 14.5l1.1 4.4 4.4-17.9c7.1-29 7.5-31.2 6.7-32.5-.4-.7-.3-1 .3-.6s1.3-.9 1.6-3c.8-4.7.1-5.4-1.5-1.7M364.3 634.2c.3 1 2.7 13.6 5.2 28 2.5 14.5 4.8 27.1 5.1 28 .4 1.5.8 1.5 4.2.2 2-.9 6.5-2.9 9.8-4.6l6.1-3.1-2.7-4.6c-1.5-2.5-6-10.2-10.1-17.1-7.3-12.4-16.5-27-17.6-28-.4-.3-.3.3 0 1.2M540.5 638.7c2.1 3.2 4.3 6.5 4.9 7.3.7.8 2.6 4.1 4.2 7.2 1.6 3.2 3.3 5.3 3.7 4.9.5-.5.7-3.6.5-7-.1-3.4-.1-6.1.2-6.1 1.4.1 2.7 1.7 2.5 3-.2.8-.5 3.2-.9 5.2-.3 2.1-.3 3.8.2 3.8.8 0 7.2-7.5 7.2-8.5 0-.3-1.7-1.4-3.7-2.3-2.1-.9-7-3.8-10.9-6.3-12-7.9-12.1-7.9-7.9-1.2M326.8 637.9c.2 1.6-.1 3.2-.7 3.5-1.3.9-1.5 7.2-.2 8 .5.3 1.1 2.3 1.4 4.3.9 7.4 2.9 12.3 4.8 12.3.6 0 .9.6.6 1.3s.8 4 2.4 7.2c3.6 7.6 3.6 6.1.1-7.8-1.6-6.2-3.9-15.6-5.1-20.9-2.1-9.2-4.3-14.2-3.3-7.9M332.6 636c.6.8 1.4 2.4 1.7 3.5.7 2 .7 2-.8.1-.8-1.1-1.5-1.6-1.5-1.2 0 3.2 12.1 52.8 12.8 52.2.1-.2 1-7.2 1.8-15.5l1.6-15-6.7-11.6c-3.8-6.3-7.5-12.1-8.4-12.8-1.4-1-1.4-1-.5.3M448.4 640.5c.4 1.1.9 2.7 1.1 3.5 2.3 10.8 9.1 33.7 10.4 35.2.4.4 4-2.9 8.1-7.4l7.4-8.1-7.9-7.4c-14.3-13.2-19.9-17.9-19.1-15.8M829.8 639.7c-.1.5-2.3 2.6-4.8 4.7-10.1 8.8-18 16.5-18 17.5 0 .6-.5 1.1-1.1 1.1-.5 0-.8.4-.5.9s1.4.8 2.4.6c.9-.1 1.1 0 .5.2-.7.3-1.3.7-1.3 1 0 .9 11.1 13.3 11.8 13.3 1.4 0 5.2-10.2 8.7-23.2 2-7.3 3.8-13.8 4-14.5.4-1.3-1.1-2.8-1.7-1.6M949.2 646.9c-1.3 4.7-3 11.4-3.8 15-.7 3.6-2.2 10-3.3 14.1s-1.9 7.5-1.8 7.6c.3.3 6.4-11.7 7.7-15.1 5-12.6 7.5-23.5 5.2-23.5-.6 0-1.2-1.5-1.4-3.3-.2-2.6-.7-1.7-2.6 5.2M437.3 657.1c-5 7.9-9.4 15.4-9.8 16.7-.7 2.5-1 2.2 14.3 16.5l6.2 5.7 4.1-5.2c6.5-8.2 6.4-7.9 2.4-20.8-2-6.3-4.6-15-5.9-19.4l-2.2-7.9zM833.2 645.7c-2 5.5-8 23.9-9.2 28.3-.7 2.5-1.5 5.2-1.9 6-.8 1.6 7.1 15 8.8 15 1.2 0 7.5-5.2 15.7-13l7.3-6.9-7.8-12.8c-4.3-7-8.7-14.3-9.8-16.1l-2-3.3zM497 653.1c-7.9 5.2-9.6 6.3-13.7 8.4-1.8 1-3.3 2-3.2 2.4 0 .3 3.9 3.9 8.6 8 6.7 5.9 8.7 7.1 9.4 6 .8-1.2.9-1.1.7.1-.2.9.2 1.8.7 2 .6.3 1.1-.6 1.3-2 .1-1.4.9-7.2 1.8-13s1.4-11.8 1.2-13.3l-.3-2.8zM680.2 649.8c-2.6.4-4.6 4.1-5.7 10.9-.5 3.5-.4 4.3.9 4.3.8 0 2-.9 2.6-2s1.8-2 2.8-2c1.5 0 1.5.2.2 1-.9.6-1 1-.3 1 .6 0 1.4-.4 1.7-.9.3-.4 2.3-.7 4.5-.5 5.2.4 6-1 2.4-4.4-1.5-1.5-3.7-3.9-4.8-5.3-1.4-1.8-2.7-2.4-4.3-2.1M763.5 654c-4.4 2.5-12.2 6.4-17.2 8.5-5.1 2.1-9.3 4.2-9.3 4.6 0 .5 2.6 1.6 5.8 2.5 9.4 2.6 27.9 9.1 29.7 10.4.6.4 1.8 1 2.9 1.4 1.6.5 1.8.2 1.2-2.6-.3-1.8-.8-5.3-1.1-7.8-1.4-12-2.9-21.1-3.4-21.4-.3-.1-4.2 1.8-8.6 4.4M775.5 652.7c.3 2.1 1.2 8.7 2.1 14.8.9 6 1.6 11.6 1.7 12.2.1 1.8.3 1.7 5.3-1.9 2.7-1.9 4.3-3.7 3.9-4.5-.2-.8 0-1.1.5-.8 1.4.9 4.3-2.2 3.4-3.6-.4-.8-.3-.9.4-.5s1.2.3 1.2-.2 1.1-1.4 2.5-2 2.5-1.6 2.5-2.1c0-.9-13.8-9.9-20.8-13.5l-3.2-1.7zM505.8 660.7c-1 6-2 13.2-2.4 16.1l-.7 5.3 2.9-1.1c1.6-.6 5.3-2.3 8.3-3.6 2.9-1.4 6-2.7 7-2.9 3.7-.9 20.7-6.8 21.4-7.5.5-.4-2.8-2.2-7.2-3.9-4.5-1.7-12.1-5.4-16.8-8.1-4.8-2.8-9.2-5-9.8-5-.5 0-1.8 4.8-2.7 10.7M566.3 653.2c-.5.7-2.1 4.1-3.6 7.6l-2.7 6.3 3.8-.7c5.6-.9 17.2-4.5 17.2-5.2-.1-.6-10.7-7.9-13.1-9-.3-.1-1 .3-1.6 1M707.8 654.5c-1.5 1.4-3 2.5-3.4 2.5-.3 0-1.9 1.1-3.5 2.4l-2.9 2.4 4.3 1.1c2.3.5 6.9 1.7 10.2 2.5 3.2.8 6.1 1.4 6.3 1.2.8-.8-5.6-14.1-6.9-14.4-.8-.1-2.6.9-4.1 2.3M586 664.7c0 .5-.7 6.2-1.5 12.8-.8 6.5-1.3 12.1-1.1 12.3s2.8-3.7 5.7-8.7 5.6-9.1 5.9-9.1c.9 0-6.9 16.1-8.7 18.2-1.9 2.1-2.1 1.9 8.9 4.3 4.3.9 8.2 1.4 8.8 1 .5-.3 1-.1 1 .6 0 .6.8.9 2 .6 1.1-.3 2 0 2.1.6 0 .7.5.1 1-1.2 1-2.6.1-9.7-2.8-21.3-1.6-6.4-1.8-6.8-5-7.4-1.9-.4-3.7-.4-4 0-.4.3-1.4-.1-2.2-.9-1.9-1.7-10.1-3.2-10.1-1.8M686 664.9c-1.7.5-2.4 1.3-2.2 2.6.5 2.5 5.5 11.7 8.1 14.8.7.9.9 2.2.5 2.9s-.3 1 .1.5c.5-.4 1.5.5 2.1 2 1.2 2.5 1.3 2 .9-4.2-.6-7.9-1.4-15.1-2.2-17.8-.5-1.8-2.9-2.1-7.3-.8M580 666c-1.4.5-5.4 1.4-9 2-13 2.3-12.4 1.7-14.9 14.9-2.7 14.8-2.7 15.3.2 14.7 15.3-3.2 22.3-4.9 23-5.6.9-.8-.6-19.2-1.8-22.3-.4-.9-.3-1.7.3-1.7s1.6 3.2 2.3 7c.7 3.9 1.4 6.9 1.6 6.7.6-.7 1.9-16.7 1.4-16.6-.4.1-1.7.5-3.1.9M792.3 674.1c-5.7 5-10.3 9.4-10.3 9.8 0 1 14.7 12 17.8 13.4 2.1 1 3 .3 9.9-6.5 5.7-5.7 7.4-8 6.9-9.4-.4-1.1-3.7-5.2-7.4-9.2l-6.7-7.3zM469.1 673.7c-3.9 4.3-7.1 8-7.1 8.4 0 1.6 15.6 15.9 16.8 15.4 1.7-.6 13.6-8.7 17.2-11.5l2.5-2-4.5-4.2c-7.4-6.8-16-13.8-16.9-13.8-.5 0-4.1 3.5-8 7.7M701.7 666.7c-.3.5-.8 4.2-1.1 8.3-.4 4.1-.9 9.6-1.2 12.1l-.6 4.7 4.9 1.6c5.9 1.9 21.3 4.9 22 4.2s-2.4-18.4-4-23.2c-1.3-3.6-1.7-3.9-7.8-5.5-11.2-2.8-11.8-2.9-12.2-2.2M353 667.5c0 1.9 4.1 22.1 7 34 1.5 6.6 3.1 13.5 3.5 15.3 1 4.9 2.9 3.8 4.3-2.5 1.4-6 2.9-11.2 4.2-14.9 1.1-2.9-.8-6.6-10.6-20.4-3.3-4.7-6.6-9.4-7.2-10.5s-1.2-1.6-1.2-1M545 668.9c-.8.5-3.1 1.4-5 2-26.2 9.1-35 12.5-35 13.6 0 .6 8.4 6.4 17.9 12.2 9.1 5.6 12.7 6.4 21.4 4.4 4.8-1.1 5.4-1.8 3.9-3.9-.7-.9-1.6-2.7-2.2-4-.5-1.2-1.7-2.2-2.5-2.2-1.2 0-1.4-.4-.5-1.9.5-1.1 1-3.5 1-5.3s.7-4.2 1.5-5.2c1.4-1.9 1.5-1.9 1.5.7 0 1.4-.5 3.7-1.1 5.1-1 2.2-.8 3 1.3 5.8 1.3 1.8 2.8 4.2 3.3 5.3.6 1.5 1.3-.6 2.5-8 .9-5.5 2-11.5 2.4-13.3.5-2.1.4-3.2-.3-3.2-.6 0-1.1.8-1.1 1.8 0 1.9-1.8 4.2-3.4 4.2-.5 0-.2-.8.7-1.8 2-2.2 2.2-3.8.5-4.8-.6-.4-.8-.3-.5.3.4.6-.4 1.4-1.8 1.7-1.4.4-2.5 1.1-2.5 1.6 0 1.2-1.1 1.3-2.9.1-1.2-.8-1.2-1.2.2-2.5.8-.9 2.3-1.6 3.2-1.6s1.3-.5 1-1c-.7-1.2-1.4-1.2-3.5-.1M730.7 668.6c-.3.3.6 1.7 2.1 3 3.1 2.7 1.9 3.1-2.7.8-3.7-1.9-8.1-1.1-4.6.8 1.1.6 2.6 2 3.4 3 .7 1.1 2.4 2.3 3.7 2.8 2 .8 2.4 1.6 2.4 5.4 0 2.9-.9 6.2-2.5 9.2-1.4 2.6-2.5 5-2.5 5.4 0 1.1 9.4 3.2 13.9 3.2 3.8-.1 5.8-1.2 24.9-13.5 3.4-2.3 6.2-4.2 6.2-4.4 0-1.8-34.5-13.6-38.7-13.4-2.4.1-3.3-.3-3.3-1.4 0-1.5-1.2-2-2.3-.9M916.6 682.3l-9.7 14.3 2.5 7.4c1.6 4.7 2.3 8.9 2.1 11.7-.3 3.7-.1 4.3 1.6 4.3 2.3 0 3.2-2.1 5.3-12.2.9-4 3.1-14.5 5-23.3s3.3-16.1 3.2-16.3c-.2-.1-4.7 6.2-10 14.1M348.5 676.1c-.5 4.1-.8 10.6-.7 14.6.1 6.2.6 7.9 3.4 12.5 1.8 2.9 3.7 5.8 4.4 6.5.6.6 1.7 2.5 2.4 4.2 1.4 3.6 3.6 4.2 2.6.8-1.1-3.7-6.2-25.7-8.1-34.7-2.5-11.8-3.1-12.4-4-3.9M673.8 671.7c-.3 1.5-1.5 6.5-2.8 11-2.4 8.8-2.2 16 .4 15 .7-.3 6-1.6 11.7-2.8 5.7-1.3 10.6-2.4 10.8-2.6.2-.1-.8-2-2.3-4.2-1.6-2.2-2.5-4.4-2.2-5 .3-.5.3-1.1-.1-1.3-.5-.1-1.7-2.1-2.7-4.3-1.1-2.2-2.9-5-4-6.3-2.3-2.6-5.6-2.9-5.6-.5-.1 1.7-.1 1.7-1.4 0-1.3-1.6-1.4-1.5-1.8 1M927.6 678c-.9 4.1-2.8 12.7-4.2 19s-3.2 14.1-3.9 17.3c-1.1 4.9-1.1 5.6.1 4.6.8-.6 1.4-1.5 1.4-2 0-.4 2.7-5.5 6-11.2l6-10.4-.5-7.4c-.3-4.1-1.1-9.7-1.8-12.4l-1.4-5zM642.3 675.6c-1.5.7-1.7 3-.4 3.9.5.3 2.9-.1 5.2-.9 4.3-1.5 6.1-1.4 4.3.3-1.5 1.4-8.3 3.3-9.4 2.6-.7-.4-1 5.9-1 18.9V720h2.9c2.2 0 3.1-.6 3.6-2.3 1.1-3.4 7.6-14.9 8.2-14.3.7.6-4.3 11.5-6.3 13.7-1.1 1.2-1.2 1.9-.4 2.4 2.1 1.3 6.1-.5 7.1-3.3 2.4-6.2.1-36.2-3-39.2-1.6-1.6-8.4-2.4-10.8-1.4M628 676.8c0 1.5 4.8 3.5 6.9 2.9 1.2-.3 2.1-.1 2.1.4 0 1.7-6.2.9-9-1.1l-2.7-1.9-1.6 11.9c-1.6 11.6-1.2 17 1.1 17 .5 0 2.1 2.2 3.6 5 1.5 2.7 2.2 5 1.7 5-.6 0-1.1-.4-1.1-.8 0-1.1-6.2-9.4-6.6-8.9-1 1 1.8 11.1 3.4 12.3.9.7 4.3 1.4 7.5 1.4h5.7v-44h-5.5c-3 0-5.5.4-5.5.8M423.1 695.8c-1.2 9.7-2.5 19.2-2.8 21l-.5 3.2h5.6c4.9 0 5.8-.3 7.2-2.6 1.5-2.1 1.5-2.7.4-3.4-1.2-.7-1.1-1.2.4-2.8.9-1.1 3-2.5 4.6-3.2 2.8-1.2 8-7.5 8-9.7 0-1.1-14-14-17.2-15.9-.8-.5-1.9-1.7-2.4-2.6-.7-1.3-1.6 3.3-3.3 16M852.8 679.8c-.1.4-4.6 4.5-9.8 9.2-5.2 4.6-9.6 8.9-9.8 9.5-.1.6.6 2 1.8 3 1.1 1 2 2.3 2 2.9s2.3 4 5 7.5c2.8 3.6 5 6.9 5 7.3 0 .5 2.6.8 5.8.6l5.7-.3-.3-7c-.1-3.9-.9-11.5-1.7-16.9-.8-5.5-1.5-11.2-1.5-12.7 0-2.7-1.5-4.8-2.2-3.1M454.8 691.3l-4.6 6.3 7.3 7.8 7.3 7.7 5.1-5.8c2.8-3.1 5.1-6.1 5.1-6.7 0-.9-14.3-15.6-15.1-15.6-.2 0-2.5 2.9-5.1 6.3M811.7 692.6c-8.6 8.6-8.6 8.2-1.2 15.4l4.6 4.5 4.5-5c2.5-2.8 5.6-6.1 6.9-7.5l2.3-2.6-4.2-6.2c-2.2-3.4-4.3-6.2-4.6-6.2s-4 3.4-8.3 7.6M393.5 686.9c-.3.5-2 1.3-3.7 1.7-3.4.7-4.2 1-10 4.4l-3.7 2.1 6.3 12.2 6.4 12.2 4.1.3 4.1.3v-5.8c0-10.8-1.3-28.3-2.1-28.3-.4 0-1 .4-1.4.9M883.6 688.2c-.3 1.3-.7 8.9-.9 17l-.5 14.8h8.3l5-9.2c6.3-11.7 7.2-14.3 5.5-16.3-1-1.3-15.2-8.5-16.6-8.5-.2 0-.6 1-.8 2.2M494 690.7c-3 2-6.1 4.3-6.8 5-.8.7-2.8 2.1-4.5 3l-3.1 1.6 3.4 2.6c1.9 1.4 5.8 4.5 8.7 6.9 5.2 4.1 5.5 4.2 9.3 3.2 2.3-.6 4-1.7 4-2.5 0-2.4-4.2-21.9-4.9-22.7-.4-.4-3.1.9-6.1 2.9M777.2 697.2c-1.1 5.7-2.4 11.1-2.7 12.1-.6 1.3.1 2.1 2.9 3.2 4.7 2 5.9 1.9 8.8-.7 1.4-1.3 4.8-4.1 7.6-6.3s5.1-4.3 5.2-4.6c0-.4-1.9-1.9-4.2-3.5-2.4-1.6-6.5-4.6-9.1-6.6-2.7-2.1-5.2-3.8-5.6-3.8-.5 0-1.7 4.6-2.9 10.2M503.3 689.2c.2.7 1.2 5.7 2.2 11.1 1.2 6.3 2.3 9.6 3 9.3.6-.2 5.3-1.6 10.3-3.2 5.1-1.5 9.2-3 9.2-3.3 0-.4-1.5-1.5-3.2-2.6-1.8-1-7-4.2-11.5-7.2-8.3-5.3-10.9-6.4-10-4.1M769 691.6c-3 1.9-8.6 5.2-12.3 7.5-3.8 2.2-6.7 4.2-6.5 4.4s4.4 1.5 9.4 2.9 9.8 2.8 10.6 3.1c1.7.7 2 0 4.3-11 .9-3.9 1.8-7.8 2.1-8.8.8-2.5-1.3-2-7.6 1.9M399 705.7V720l6.5-.1c3.6-.1 6.5-.2 6.5-.3 0-.8-8.1-19-10.3-23.1l-2.6-5zM874.8 703.7c-8.2 17.3-8.1 16.3-1 16.3h5.9l.7-13.6c.4-7.5.5-13.8.3-14s-2.9 4.9-5.9 11.3M682.5 697.4c-10 2.7-12.1 3.6-12.3 5.3-.2 1.1.4 2.3 1.2 2.6.9.4 1.6.2 1.6-.3 0-2.2 2.8-.8 3.4 1.6.9 3.4-.2 7.3-1.5 5.3-.7-1.1-.9-1.1-.9.3 0 .9.4 1.9.8 2.2.6.4 15.5-13.6 21.1-19.9.7-.8-1-.4-13.4 2.9M585.1 695.8c.5 1.4 16.9 18.2 17.8 18.2.3 0 .6-1.9.6-4.2 0-3.5.3-4.3 1.8-4.3 2.1 0 4.3-3.3 3.1-4.5-.5-.5-4.9-1.8-9.9-2.9-4.9-1.1-10.1-2.3-11.4-2.7-1.6-.5-2.2-.3-2 .4M701 695.7c0 1 4.2 8.3 6.9 12 2.1 2.9 3.6 4.1 4.6 3.7.9-.4 2.3 0 3.3.9 2.7 2.3 8.2 4.8 9.2 4.2.6-.3 1-3.9 1-7.9v-7.2l-12.5-3c-6.9-1.7-12.5-2.9-12.5-2.7M570 697.5c-1.9.7-4.6 1.4-6 1.4-2.5.1-9.5 2.3-10.5 3.3-.3.3-.3 3.6.1 7.4l.6 6.9 5.9-.3c5.3-.3 6.2-.7 8.7-3.8 1.6-1.9 4.5-6.3 6.4-9.9l3.7-6.5-2.7.1c-1.5 0-4.3.7-6.2 1.4M447 706.4c-1.2 3-1.9 6-1.5 6.5.3.6.1 1.1-.6 1.1-1 0-1 .3-.1 1.2 1 1 1.5 1 2.2-.2.8-1.2 1-1.2 1.1.5.1 1.1.1 2.6 0 3.2-.1.9 1.5 1.3 5.2 1.3 4.7 0 5.6-.3 7.4-2.8l2.1-2.9-6.8-6.6-6.8-6.7zM829.6 702.5c.5 1.1.2 1.3-1 .9-.9-.3-1.6-.2-1.6.4 0 .5-2.3 3.2-5.1 6l-5.1 5.1 2.8 2.5c4.1 3.6 11.1 3.6 13.7.1 1.8-2.4 1.7-2.7-.4-9.5-1.3-3.9-2.6-7-3.1-7-.4 0-.5.7-.2 1.5M473.5 706.2c-5.9 6.8-5.9 7.3-2.3 10.7 4.2 4 9.4 4.1 17.2.5l5.7-2.6-3.3-2.9c-1.8-1.6-3.8-2.9-4.4-2.9s-1.7-.7-2.4-1.5c-.7-.9-2.6-2.5-4.1-3.6l-2.7-1.9zM541.3 703.4c-5.5 1.5-6 2.2-3.2 4.5 3.1 2.6.9 2.7-2.4.1-3.2-2.5-3.2-2.5-13.6.6-12.6 3.7-14.3 4.5-13.7 6.1.4.8.6 2.3.6 3.4 0 1.5.7 1.9 3.3 1.9l3.2-.1-2.7-1.7c-4.1-2.5-3.4-3 2-1.7 2.8.8 5.6.9 7 .4 1.8-.7 2.2-.5 2.2 1.1 0 1.8.7 2 5.5 2 3.7 0 5.5-.4 5.5-1.3s.2-.9.8 0c.7 1.2 9.3 1.1 12.5-.2 2-.8 2.3-2.5.3-2.5-.7 0-2-.7-2.7-1.6-1.2-1.5-1-1.6 1.9-.9l3.3.7-.3-5.9c-.3-5.4-.5-5.8-2.8-5.9-1.4-.1-4.4.3-6.7 1M729.2 710.6l.3 8.9 6.3.3c4.2.2 6.2-.1 5.7-.7-.3-.6.1-2.3.9-3.8l1.5-2.8.1 3.8v3.8l8.6-.4c4.7-.3 9.1-1 9.7-1.6s2-1.1 3-1.1c1.7 0 1.8.2.6 1.6-1.1 1.4-1 1.5 1.1 1.2 1.8-.2 2.6-1.1 3.1-3.6.8-3.9.5-4.1-11.1-7.2-13.1-3.5-12.9-3.5-16-1.1-2.1 1.5-2.8 1.7-2.4.6.4-.8 1-1.5 1.5-1.5s.9-.6.9-1.4c0-.9-1.7-1.6-4.7-2.1-2.7-.3-5.8-.9-7.1-1.2-2.3-.5-2.3-.5-2 8.3M798.9 705c-1.3 1.1-2.9 2.4-3.6 3-.7.5-1.6 1-2 1-1.1.1-7.9 5.8-7.3 6.2 3.3 2.3 10.9 4.8 14.8 4.8s5.5-.6 7.9-2.8c1.7-1.5 2.8-3.3 2.5-4.2-.6-1.7-8.2-10-9.2-10-.4 0-1.8.9-3.1 2"/></svg>