<svg xmlns="http://www.w3.org/2000/svg" width="1706.667" height="960" viewBox="0 0 1280 720"><path d="M0 155v155h4.1c3.4 0 4 .3 3.5 1.6s-.2 1.5 1.4 1.1c1.8-.4 1.9-.3.9.9-.6.8-.9 1.7-.5 2.1.3.3.6.1.6-.5 0-.7.6-1.1 1.2-1 1.6.4 1.1-3.4-.5-4.4-.9-.6-.9-.8 0-.8.7 0 1-.6.7-1.4-.6-1.6 2.9-3.1 4.6-2.1.5.3 1 .3 1.1-.2 0-.4.3-1.7.6-2.8.2-1.1.4-3 .4-4.2s.4-2.5.9-2.8c.6-.4.8-1.1.4-1.6-.3-.6.2-1.8 1.2-2.8 2.6-2.4 10.1-1.7 10.9 1 .4 1 1.1 1.9 1.6 1.9s.9.9.9 2 1.1 2.7 2.4 3.5c1.3.9 2.6 2.5 2.9 3.5.3 1.1 1 2 1.5 2 .6 0 .8-.9.5-2-.4-1.4 0-2 1.1-2 .9 0 1.9-.7 2.2-1.5.4-.8 1.6-1.5 2.9-1.5 2.9 0 3.7-3.1 2.9-10.4l-.7-5.5 4.3-.7 4.2-.7-.7-4.3c-.6-4.2-.5-4.4 1.8-4.4 4.1 0 7.2 3.2 6.9 7.3-.2 2.9.2 3.7 1.9 4.2 1.2.4 3.7 2.3 5.6 4.1 1.8 1.9 3.8 3.4 4.2 3.4.5 0 1.4-2.3 2.1-5 .7-3 1.7-5 2.6-5 .8 0 1.4-.5 1.4-1 0-.6 1-1 2.3-1 3 0 4.7-1.8 4.8-4.9.1-2 .2-2.2.6-.7.7 2.7 3 4.9 3.8 3.6.3-.5.1-1-.4-1-.6 0-1.1-.9-1.1-2s.5-2 1-2c.6 0 1-.9 1-2s.5-2 1-2c.6 0 1 .9 1 2 0 1.3.7 2 1.9 2 1.1 0 2.3-.9 2.6-2s1.3-2 2.1-2 1.4-.9 1.4-2-.7-2-1.5-2c-1.8 0-1.9-2-.3-7.2.6-2.1 1.4-3.4 1.8-2.8 1 1.6 4 .1 4-2 0-1 .5-2 1.2-2.2.6-.2-1.1-2.5-3.7-5.1l-4.9-4.7.1-7.5c.1-5 .7-8.2 1.7-9.7.9-1.2 1.6-3.4 1.6-4.8s.7-3.8 1.5-5.4c.9-1.6 1.3-3.7 1-4.8-.6-1.6.7-2.4 3.7-1.9.4 0 2.3-1.5 4.2-3.4 2.8-2.7 3.6-4.3 3.6-7 0-1.9-.5-3.5-1.1-3.5s-.9-1.2-.7-2.8c.3-2.5.6-2.7 5.8-3 4.7-.2 6 .1 8.3 2 3.7 3.3 6.5 13.8 3.6 13.8-1.6 0-3.9 2.6-3.9 4.4 0 .9.5 1.6 1 1.6.6 0 1 3.3 1 8v8h8v-4c0-2.9.4-4 1.5-4 .9 0 1.8-1.2 2.2-3 .4-2.3 1.1-3 3-3 1.3 0 2.6.7 2.9 1.5.5 1.3 1.1 1.2 3.9-.5 4.2-2.6 4.5-2.5 4.6.7 0 1.6.3 2.2.6 1.5.2-.6 1.3-1.2 2.3-1.2 3.6 0 5-1.2 5-4.1 0-2.7.3-2.9 3.8-2.9 2.1 0 4.3-.5 4.9-1.1.9-.9 2.9-1.5 5.6-1.8.4-.1.7-.8.7-1.6s.9-1.5 2-1.5c1.4 0 2-.7 2.1-2.3 0-2.1.1-2.1.9-.2.7 1.7.9 1.5.9-1.3.1-2.7.5-3.2 2.5-3.2 1.3 0 2.7.6 3 1.2.5 1 .7 1 1.2 0 .3-.6 2.4-1.2 4.6-1.2 5.8 0 7.8-2.6 7.8-10.2V176h5c2.8 0 5-.5 5-1.1 0-.5 1.3-1.5 2.9-2 2.3-.8 3-1.8 3.5-4.7.6-4.2 3.5-7.2 6.9-7.2 4.6 0 6.7-1.2 6.7-3.7 0-1.3 1.1-3.5 2.5-4.9s2.5-2.9 2.5-3.4c0-.6.9-1 2-1s2-.6 2-1.3c0-.9.3-.8.9.2 1.3 2 3.4.2 2.7-2.4-.7-2.8.3-8.5 1.5-8.5.5 0 .9.7.9 1.5 0 1.9 3.1 5.6 4.2 4.9 1.5-.9.9-6.4-.7-6.4-.8 0-1.5-.9-1.5-2s-.4-2-1-2c-.5 0-1-.9-1-2 0-2.5 3-2.7 3.1-.3 0 1.1.3 1.3.6.5.6-1.4 3.3-1.6 3.3-.2 0 .5.6 1 1.4 1 1.8 0 2.5-3.5 1.7-9-.5-3.6-1-4.5-2.6-4.5-1.5 0-2-.7-2-2.5 0-1.6.6-2.5 1.6-2.5 1.5 0 5 2.8 4.6 3.7-.1.2 1-.9 2.6-2.6 2.4-2.7 2.7-3.8 2.7-10.1 0-3.8.5-7.7 1-8.5s1-1.1 1.1-.5c.3 2.7 1.7-4.7 1.8-9.4.1-5 0-5.3-1.3-3.5-1.3 1.7-1.7 1.7-3.7.6-2-1.3-2.1-1.2-1.4.5 1.3 3.2 1.8 10.3.7 10.3-.5 0-1.2-.7-1.6-1.5-.3-.8-1.3-1.5-2.2-1.5-3.8 0-6-7.5-2.9-10 .8-.7 1.5-2.8 1.5-4.8 0-4.1-4.4-12.2-6.6-12.2-.8 0-2.3-2-3.4-4.4-1-2.5-2.7-4.7-3.9-5.1-1.2-.3-2.4-1.7-2.7-3.1-.3-1.3-1.2-2.4-2-2.4-.9 0-1.4-1.1-1.4-3 0-1.8-.5-3-1.3-3-.7 0-1.9-.9-2.7-2s-2-2-2.8-2c-1.9 0-10.4-4.9-11.9-6.8-2-2.6-1.7-8.7.5-9 5.7-.8 6.6-.7 7 1.3.5 2.6 2.9 5.3 5.5 6.1 2.4.8 6 4.2 7.6 7.2.6 1.2 1.8 2.2 2.5 2.2.8 0 1.6.7 2 1.5.3.8.9 1.4 1.3 1.3.5-.2 3.6 1.8 7 4.4 5.4 4.3 6.7 4.8 11.2 4.8 5.2 0 8.1 1.7 8.1 4.7 0 3.9 1.3-.5 4.5-15.8 2-9 4.4-19.3 5.4-22.9 1.1-3.6 2.2-8.2 2.6-10.3.3-2.1.9-4.5 1.2-5.3.4-1.2-17.1-1.4-129-1.4C65.4 0 32.1.3 31.8 1.1c-.3.9-.9.9-2.5 0C28 .4 21.8 0 13.6 0H0zm97.8-20.2c2 1.3 2.8 8.2 1.1 9.3-2.1 1.3-12.2 1-14.1-.5-4.5-3.4.1-9.3 7.2-9.5 2.5 0 5.1.3 5.8.7m39.6 7.9c4.7.3 8.6.9 8.6 1.2 0 .7 4.7 2.9 7.5 3.4 1.1.2 3.3.9 4.8 1.5 1.6.7 3.5 1.2 4.2 1.2.8 0 3.5 1.1 6.1 2.5s5.7 2.5 6.9 2.5c3.5 0 8.5-2.1 8.5-3.5 0-1 .7-1.1 3.1-.5 1.7.5 4.5.7 6.2.5 2.3-.3 2.6-.3 1 .3l-2.2.7 2.5 5c1.3 2.7 2.4 5.5 2.4 6.1s.6 1.7 1.4 2.3c.8.7 1.7 3.4 2.1 6.1.6 4.4.4 5.2-1.9 7.7-1.4 1.5-2.6 3.1-2.6 3.5 0 .5-.9.8-2 .8-1.6 0-2 .7-2 3.5 0 1.9-.4 3.5-1 3.5-1 0-1.4-1.8-1-5.7.1-1.6-.7-2.6-3.2-3.7-1.8-.8-5.1-3.3-7.3-5.6s-5.6-5.1-7.5-6.3c-1.9-1.1-3.7-2.4-4-2.7s-3.1-1.7-6.3-3c-3.2-1.2-6.5-3.3-7.3-4.6-.8-1.2-2.7-2.5-4.2-2.9-5.8-1.3-11.2-3.8-11.2-5.1 0-.8-1-1.4-2.2-1.5-2.2-.1-2.2-.1.2-.9s2.4-.8.3-.9c-1.3-.1-2.3-.6-2.3-1.1 0-1.5-7-1.2-7 .2 0 .7-1.2.1-2.5-1.5-2.3-2.6-2.4-2.8-.7-4.7 1.5-1.8 1.8-1.9 2.8-.5.9 1.1 3.7 1.8 9.8 2.2m-91 17.3c.9 0 1.6-.5 1.6-1 0-.6 1.4-1 3-1 1.7 0 3 .4 3 1 0 .5.7 1 1.5 1s1.5.4 1.5.9c0 .4 1.8 1.1 4 1.4 8.2 1.1 12.5 7.2 8.3 11.9-2.3 2.6-5.4 2.2-9.1-1.1-1.7-1.6-4.1-3.2-5.2-3.6-1.1-.3-2-1.3-2-2.1s-.7-1.4-1.6-1.4c-.8 0-1.3-.4-1-.8.2-.4.1-1.4-.4-2.2-.7-1.1-3-1.3-9.9-1.1-9.9.3-13.1-.3-13.1-2.4 0-1.9 1.8-2.3 7.3-1.7 3.1.3 4.7.1 4.7-.7 0-.6-1.5-1.2-3.2-1.2l-3.3-.2 3.5-.7c3-.5 3.9-.2 6.1 2.2 1.5 1.5 3.4 2.8 4.3 2.8M312.1 6c-2.8 7.9-3.3 9.9-3.6 14.5-.1 2.2-.5 5.1-.8 6.4-.4 1.4-.1 2.9.9 3.8 1.3 1.4 1.7 1.3 2.9-.3.8-1.1 1.5-2.6 1.5-3.4s.9-3.9 2-6.8c1.4-3.7 1.9-6.5 1.4-8.8-.5-2.9-.4-3.3 1-2.8 1.8.7 2-.5 1-5.4-1-5.1-4-3.8-6.3 2.8M325.7 3.5c-.9 2-1.7 4.8-1.7 6.3 0 2.1-.2 2.4-1 1.2s-1-1.1-1 .7c0 1.6.4 2.1 1.6 1.6 1.3-.5 1.5.2 1.2 3.8-.2 2.9-.7 4.3-1.5 4.1-.8-.1-1.3.9-1.3 2.5v2.8l2.4-3.6c2.2-3.2 10.6-17.2 12.7-21.1.9-1.6.4-1.8-4.4-1.8-5.1 0-5.4.1-7 3.5M340.3 1.2c-.6.7-1.6 2.4-2.2 3.8-1.1 2.2-.9 2.2 1.3-.5 1.4-1.7 2.6-2.4 2.6-1.6 0 .7-1.5 2.7-3.3 4.5-3.5 3.3-7.4 8.7-12.2 17.1-2.4 4.3-2.5 4.7-.7 3.1 2.2-1.9 2.2-1.9 2.2.2 0 1.5.8 2.2 3 2.7 1.7.4 4.4 1.3 6 2.2 1.7.8 3.7 1.2 4.5.9 1-.4 1.5.1 1.5 1.4 0 1.1.4 2 .9 2s.8-1.7.6-3.8c-.1-2-.6-10.3-1-18.5C343.1 6.6 342.4 0 342 0s-1.2.6-1.7 1.2M346 6.4c0 4.4.5 6.7 1.5 7.6 1.7 1.4 2 6 .4 6-1.1 0-1 10.9.2 15 .7 2.4.7 2.4.8.2.1-1.2.6-2.2 1.1-2.2.6 0 1-.5 1-1 0-1.4 6.2-9.9 7.3-10 1.5 0 .6 4.8-1.3 7-1.1 1.3-1.8 2.5-1.6 2.8.5.4 5.2-4.6 15.1-15.6 4.7-5.3 4-6.7-.9-1.5-4.3 4.6-4.8 4-.6-.8 1.6-1.9 2.8-4 2.5-4.7-.3-.8-.2-1.9.2-2.5.4-.7 1-.2 1.4 1.3q.75 2.55.6-2.7l-.2-5.3H346zM384.7 6.3l-6.9 6.2 1.3 18.5c.7 10.2 1.6 18.9 2 19.4.5.6 1.7.5 3.1-.1 1.3-.6 3.9-1.7 5.8-2.4 6.7-2.4 21.5-9.2 22.1-10.1.3-.5.9-.9 1.3-.9 2.6.4 2.8-.1 2.2-5.7-.4-3.1-1.1-10.4-1.7-16.2-1.5-16.6-.3-15-12.2-15h-10.2zM415.4 5.2c2.8 23.1 4 29.8 5.3 29.8 1 0 1.1-.5.3-1.9-.7-1.3-.7-2.2 0-2.6.5-.3 1 .1 1 .9 0 2.1 5.5 2.9 11.5 1.6 2.8-.5 6.6-1.3 8.5-1.5 1.9-.3 5.8-1 8.5-1.5 2.8-.5 6.7-1.2 8.8-1.5 3.5-.6 3.7-.8 3.7-4.5 0-2.1-.6-4.5-1.4-5.3-1.1-1-1.3-3.4-.9-10l.6-8.7h-46.6zM466.5 5.1c.4 3.4.3 4.9-.4 4.4-.6-.3-1.2-2.5-1.3-4.8-.1-3.9-.2-3.9-.5-.7-.1 1.9.3 7.8 1 13 1.1 8.9 1.3 9.5 3.7 9.8 3.9.6 17.1-.9 16.5-1.8-.8-1.2 5.6-2.8 14.5-3.6 5.7-.6 7.9-1.2 9.6-3 1.3-1.2 2.5-1.9 2.8-1.6.6.5 1-2.2.7-4.6-.1-.6.3-1.2.9-1.2s.9.3.7.7c-.3.5-.1 1.7.4 2.8.6 1.3.7-.1.3-3.5-.4-3-.7-6.6-.8-8l-.1-2.5-24.3-.3-24.3-.2zM518.6 11.7c.7 6.5 1.3 12.2 1.3 12.6.1 1.3 27 .4 27.9-.9 1-1.6 4.5-2.5 6.1-1.5.7.5 1 1.4.7 2-.5.8 1 1.1 4.7 1.1 6.9 0 15.1-1.1 14-1.9-.5-.3-.1-1.4.9-2.4 1.7-1.6 1.8-1.6 1.8 1 0 1.4.3 2.4.6 2.1.3-.4.2-5.8-.2-12.2L575.7 0h-58.3zM578.5 1.7c.3 1.4 1.3 15.3 1.5 20.8 0 .5.4.3 1-.5.7-1.2 1.2-1.1 2.7.7 1.5 1.6 3.5 2.2 10.3 2.7 17.1 1.4 32.6 2.6 38.3 3.1l5.7.5V0h-29.9c-28 0-29.9.1-29.6 1.7M641 11.8c0 8.1.4 12.2 1.2 13 1 1 1 1.5-.2 2.2-3.1 1.9.4 2.2 12.2 1.2 6.8-.7 17.9-1.4 24.8-1.8 16.7-.8 17.9-.9 18.9-2 .5-.5 1.1-6.2 1.5-12.7L700 0h-59zM702.6 3.2c-.4 2.8-.9 16.5-.7 20.4.1.8 4.3 1.2 13.7 1.3 11.9.2 13.8 0 14.9-1.6 1-1.4 1.6-1.5 2.7-.5 1.1.8 1.7.9 2.6 0 .6-.6 1.9-.8 2.9-.4 1.5.6 1.5.9.3 1.6-2.5 1.5.9 2.1 10.1 1.8l8.4-.3 1.1-5.5c.6-3 1.3-8.8 1.7-12.8l.6-7.2h-57.7zM763.6 1.2c-.4 1.3-2.6 20.9-2.6 23.1 0 .7.8 1.3 1.8 1.3.9 0 12.1.4 24.8.9 13.1.4 23.4.4 23.7-.1s1-5.4 1.6-10.9c.7-5.5 1.4-11.2 1.7-12.8l.6-2.7h-25.7c-19.6 0-25.7.3-25.9 1.2M816.2 10.2c-.7 5.7-1.2 12.1-1.1 14.3 0 3.4.2 3.7.9 1.7.5-1.2 1.6-2.2 2.5-2.2.8 0 2-.9 2.7-2 2.1-3.3 4.5-2.5 5 1.7.3 2.1 0 4.1-.6 4.5-1.5 1-.4 1.2 17.9 4.1 8.8 1.4 16.3 2.2 16.6 1.8.4-.3 1.4-7.4 2.4-15.6.9-8.3 1.9-15.8 2.1-16.8.5-1.6-1.1-1.7-23.4-1.7h-23.8zM867 1.2c0 1.5-2.8 25.4-3.5 30.9l-.6 3.6 12.9 5.7c7.1 3.1 13.5 5.6 14.2 5.6.8 0 2.1.6 2.9 1.3.9.7 2.8 1.8 4.3 2.5 2.6 1.1 2.7 1 3.2-2.1.3-1.8.8-10.6 1.2-19.7l.6-16.4-6.8-6.3-6.9-6.3h-10.7c-8 0-10.8.3-10.8 1.2M906 3.7c0 2.1-.3 4.8-.6 6.1-.5 1.8.9 3.8 7.6 10.7 4.6 4.6 8.7 8.2 9.2 7.9s1.6 0 2.4.7c1.2 1 1.2 1.4.2 2-1 .7-.9.9.4.9 1 0 1.5.5 1.2 1.3-.2.7 1.1 2.7 2.9 4.5l3.4 3.3.7-11.8c.3-6.5.9-15.7 1.2-20.6l.7-8.7H906zM937.6 6.2c-.3 3.5-.8 9.8-1 14-.6 7.7-.5 7.8 1.8 7.8 2.2 0 2.3.2 1.3 2.5-1.5 3.1-2.4 3.2-3 .2-.2-1.2-.5 1.8-.6 6.8l-.1 9 10.3 17.2L956.7 81l1.1-23.2c1.1-21.9.9-27.6-.9-23.2-.6 1.4-.8 1-.7-1.6.1-2.7-1.7-6.9-8.1-18.3C943.5 6.6 939.4 0 939 0c-.5 0-1.1 2.8-1.4 6.2M943 .6c0 1 15.4 27.4 15.7 27 .8-.8.4-11.5-.5-13.2-1.5-2.9-3.1-10.7-2.4-11.8.3-.6 1.3.8 2.2 3l1.7 3.9.4-4.8.4-4.7h-8.7c-4.9 0-8.8.3-8.8.6M962.8 4.2c-1 9.9-.9 29.8.1 29.8.6 0 1.1-.4 1.1-.9 0-.4 1.1-.8 2.5-.7s2.5.4 2.5.8v1.7c0 1.4-3.7 2-5 .7-1.9-1.9-.1 4 4.1 13.5 2.2 4.8 3.9 9.1 3.9 9.7s.5 1.4 1.1 1.8c1.2.7 1.1.3-.7-6.4-.5-1.8-.2-2.2 1.4-2.2s2.3.9 2.9 3.7c.7 3.1.9 2 1.3-6.2.5-10.2.3-12.8-.9-12.1-.4.3-1.3.1-2.1-.5-1.2-.7-1-1.3 1.4-3.2 2.1-1.7 2.7-2.8 2-3.8-.4-.8-3.4-7.7-6.4-15.4-6.1-15.3-8.4-17.9-9.2-10.3M992.2 11.2c1.6 6.2 3.2 13.1 3.7 15.3s2.5 11.4 4.4 20.5c3.2 14.8 4.5 22.7 7.7 49.5 1.6 12.6 4 44.3 4 51.7 0 6.5.4 7.4 3.3 6.9.4 0 .7 1 .7 2.4s-.4 2.5-1 2.5c-.5 0-1 1.2-1 2.6s.4 2.3 1 1.9c.6-.3 1-.1 1 .4 0 .6.9 1.1 1.9 1.1 1.3 0 2.5 1.4 3.7 4.4 1.1 2.7 2.3 4.2 3.1 3.9.7-.3 1.3 0 1.3.6s-.8 1.1-1.9 1.1c-1.2 0-2 .9-2.3 2.4-.6 2.8.8 4.7 2.8 3.9.9-.3 1.4.2 1.4 1.5 0 1.2 1.1 2.4 3 3.2 1.8.8 3 2 3 3.1 0 1.7.8 1.9 6.3 1.9 3.4 0 6.8.4 7.6.9 1 .7 1.2 3.2.9 11.5-.4 10.5-.4 10.7 1.9 11.2 1.3.4 4 .4 5.9.1 2.8-.5 3.4-.3 3.4 1.2 0 1 .9 2.1 2 2.4 1.5.4 2 1.4 2 4.1 0 4.1 5 10.6 8.2 10.6 1 0 1.8.4 1.8 1 0 .5.9 1 2 1 1.5 0 2 .7 2 2.4 0 1.8.6 2.5 2.3 2.8 1.6.2 2.3 1.1 2.5 3 .3 2.5.8 2.8 3.8 2.8 3.1 0 3.4.3 3.4 2.9 0 1.8.9 3.5 2.5 4.7 1.4 1 2.5 2.7 2.5 3.6 0 1.4.8 1.8 3.4 1.8 3.3 0 3.5.2 3.9 3.7.3 2.8.4 2.3.5-2 .2-4.3.6-5.7 1.7-5.7.8 0 1.5-.5 1.5-1.1 0-.5.5-.7 1-.4.6.4 1-.7 1-2.5 0-1.7.7-3.8 1.5-4.6 2.1-2.1 3.1-6.7 1.7-7.2-.7-.2-1.2-2.1-1.2-4.3 0-3.2-.3-3.9-2-3.9-1.3 0-2-.7-2-2s.7-2 2-2c1.1 0 2 .7 2 1.5s.9 1.5 2 1.5 2-.7 2-1.5c0-1.1 1.1-1.5 4-1.5 3.9 0 4 .1 4.6 4 .4 2.5 1.6 4.8 3 5.9 1.6 1.3 2.4 2.9 2.4 5 0 2 .5 3.1 1.4 3.1 1.5 0 4.9 4.6 4.2 5.8-.2.4.2 1.2.9 1.9 1 .9 1.5.9 1.7.1.3-.8 1.1-.7 2.8.2 2.3 1.3 2.4 1.3.5 2.1-1.8.6-1.6.9 1.3 1.9 1.7.7 3.2 1.8 3.2 2.5s.7 1.5 1.5 1.9c.8.3 2.3 2.2 3.3 4.3 2.2 4.8 3 5.4 6.5 4.7 3-.6 4.9 1.8 2.8 3.9-.6.6-1.1 2.1-1.1 3.3 0 2.4 2.7 3.2 13 3.9 12.5.8 16.8 2.5 18.5 7.7.5 1.5 1.9 1.8 7.8 1.8h7.2l3.9 6.2c3 4.9 3.6 6.5 2.8 7.9-.9 1.4-.6 1.8 1.6 2.2 5.3 1 8.8-3.4 3.7-4.7-2.8-.7-3.4-3.5-.7-3.7 3.9-.3 10.8.4 12.4 1.2 1 .5 3.3 1 5.2 1.1 2 .1 3.7.7 4 1.5.3.7 1 1.3 1.6 1.3s1.8.6 2.6 1.4c.7.8 2.4 1.2 3.6 1q2.55-.45.6.3c-1.9.9-1.2 2.6 1.2 3.6 1 .3.6.6-1 .7-4.3.4 5.9 1.8 13.3 1.9 3.7.1 6.7.5 6.7 1 0 1.2 8 3.1 12.9 3.1h4.1V0H989.4zm113.6 124c.2 1.2-.5 1.9-2.2 2.4-1.4.3-2.6 1-2.6 1.5s-.7.9-1.5.9-2.6 2-4.1 4.5c-1.4 2.5-3.3 4.6-4.2 4.6-10.6.8-10.7.8-12-1.9-1.5-3.1-1.6-5.2-.2-5.2.6 0 1.1.1 1.3.2.5.4 3.1-2.4 5.2-5.5 1.7-2.7 2.1-2.9 7-2.2 2.8.3 6.2.1 7.5-.4 3.3-1.3 5.4-.9 5.8 1.1M369.8 20.9c-2.7 2.9-4.5 5.8-4.1 6.4.3.5.2.7-.4.4-.5-.3-2.5.9-4.3 2.8-1.9 1.9-2.9 3.5-2.2 3.5 1.7 0 1.5 2.7-.2 3.3q-1.5.6-.9-.9c.9-2.4-1.1-1.5-3.5 1.7-1.3 1.6-1.9 2.9-1.3 2.9s1.1-.6 1.1-1.3c0-.6.7.1 1.5 1.7 1.9 3.6 1.9 4-.2 3.1-1.2-.4-1.4-.3-.8.3 1.9 1.8 14 5.2 16.5 4.6 1.8-.4 2.1-.3 1.1.4s-.5 1.1 1.9 1.4l3.3.5-.7-14.1c-.4-7.8-1.1-15.9-1.4-18l-.7-3.9zM904.6 22c-1.4 16-1.7 30-.7 30 .6 0 1.1-.4 1.1-1 0-.5 1.2-.7 2.8-.4 2.4.5 20.2-5.3 22.1-7.1.9-1-6.9-7.4-8.4-6.9-.7.3-1.5-.2-1.8-1-.4-.9-.2-1.6.3-1.6 2 0 .9-1.9-1.9-3.1-1.6-.7-2.7-1.8-2.5-2.3.2-.6-2-3.8-5-7.1l-5.4-6zM513.8 28.5c-.7.7-20.6 1.7-30 1.5-4.3-.1-9.8.2-12.2.5l-4.5.7.6 4.7c.3 2.5 1 5.7 1.4 7.1.6 1.7.7 1.2.3-1.8-.4-2.7-.2-4.2.5-4.2.6 0 1.1 1.9 1.2 4.2 0 2.4.3 3.7.6 3 .4-1 .8-1 1.9-.1.8.6 1.4.8 1.4.3s.5-.2 1 .6c.9 1.3 1 1.3 1 0s.1-1.3 1 0c.6 1 1 1.1 1 .2 0-.6 1.1-1.2 2.5-1.2 1.8 0 2.5-.5 2.5-2 0-1.1-.7-2-1.6-2-1.1 0-1.4-.8-1.2-3.3.3-2.8.7-3.2 3.6-3.5 2.4-.2 3.2.1 3.2 1.2 0 1 .9 1.6 2.4 1.6s2.6.7 2.9 2c.4 1.7 0 2-2.4 2-1.6 0-2.9.4-2.9 1 0 .5 2.1 1 4.6 1 2.7 0 4.3-.4 3.9-1-.3-.6.3-1 1.5-1s1.9.4 1.5 1c-.3.5.3 1.8 1.3 2.8 2.2 2.2 1.8 4.2-.9 4.2-1.5 0-1.8.6-1.6 3.2.2 2.7.7 3.4 3.2 3.9 6.2 1.4 8.3 1 8.8-1.4l.4-2.2.2 2.2c0 1.3.6 2.3 1.2 2.3.7 0 .9 1.1.6 2.9-.4 1.9-.1 3.3.8 4.1 1.2 1 1.5.8 1.5-1.1s.2-2.1 1-.9c.6.9 1 1 1 .3 0-.6-.5-1.5-1-1.8-.7-.4-.7-1.2 0-2.5 1.3-2.4 1.3-6 0-6-.5 0-.7-.7-.4-1.5 1.2-3 2.2-1.4 3.2 5.2l1.1 6.8-.5-8c-1-16.1-2.4-24.5-2.4-14.2 0 4.6-1.2 6.8-2.6 4.6-.5-.8-.3-.9.5-.4 1 .6 1.2-.8.8-6.4-.3-4.1-.1-7.1.5-7.1.5 0 .6-.5.3-1-.7-1.1-1.9-1.3-2.7-.5M544 29c1.7.5-.7.8-7 .9-12.9.2-14 .5-14 4.6 0 1.8-.4 3.5-.8 3.7-.6.2.9 21.5 1.7 24.7.3 1.3 4.1-5.1 4.1-7.1 0-5.7 1-6.9 5.4-6.7 2.2.1 5-.2 6-.6 1.6-.7 1.8-.5 1.4 1.8-.4 1.8-.1 2.7.8 2.7.7 0 1.6 1.6 2 3.5l.6 3.5h7.7c6.5 0 7.9.3 9.1 2 1.2 1.6 2.6 2 7.2 2 5.2 0 5.8-.2 5.8-2.1 0-3.3 2-1.1 2.1 2.4.1 3 .1 3.1.9.7.7-2.3.8-2.1 1.3 1.5.3 2.2.3-4.2 0-14.3-.4-19.5-.7-21.4-2.8-20.6-.7.3-1.6.1-2-.5-.9-1.5-5.2-1.4-5.8.1-.3.8-.6.7-.6-.4-.1-1.2.9-1.8 3.7-2.1 2-.2-3.7-.4-12.8-.4-9.6-.1-15.5.2-14 .7M581.6 37.5c.3 5.5.4 12.5.4 15.6-.1 4.5.3 5.8 1.6 6.3 1 .4 2.2.2 2.8-.4 1.7-1.7 4.5-1.1 5.6 1.1 1.1 1.9 1.7 2 8.6 1.4 6.4-.6 7.4-.5 7.4.9 0 1.2 1 1.6 4 1.6 3.8 0 4 .1 4 3.2 0 6.8.8 7.7 5.9 7.6 2.5-.1 5.6.2 6.8.6 1.7.5 2.6.1 4-2.1 1-1.5 2.1-3 2.5-3.3s.8-3 1.1-6c.2-4.3.4-3.4.7 4 .3 6.9.6 4 1-11 .3-11.3.3-21.5.2-22.6-.3-1.9-1.3-2.2-8.5-2.8-23.7-2.1-43.1-3.3-44.8-2.9-1.2.4-1.9 1.5-2 3.2-.1 2.3-.3 2.1-1-.9-.5-2.2-.6.2-.3 6.5M686 29c-27.4 1.9-41.6 3.3-42.2 4.4-.6.8-1.1.7-1.8-.4-.7-1-.9.6-.8 5.5.1 4 .3 5.4.5 3.2.2-2 .8-3.5 1.4-3.2 1.2.8 1.2 6.6-.1 8.5-.6.9-.5 1.9.3 2.8.6.8 1 2.9.8 4.8-.1 1.9.1 3.4.6 3.4.4 0 .9 2.8 1.1 6.3.1 3.4.7 6.3 1.2 6.5.6.2 1 1 1 1.8 0 1.7 2.6 1.9 3.3.1.4-.9.8-.8 1.6.3s2.9 1.4 9.8 1.1c4.8-.1 9-.7 9.1-1.2.6-1.5 15.2-1.1 15.3.3.2 4.5 1.1 8.3 1.9 8.6.6.2 1 1 1 1.8 0 .9 1.1 1.4 3 1.4h3l.1-7.3c0-3.9.2-7.9.3-8.7.9-4.2 1.7-41 .9-40.8-.4 0-5.5.4-11.3.8M701.9 28.1c-.4 1.2-.8 7.3-1.5 22.5-.7 17.1-.7 17.1 1.5 17.7 2 .5 2.2 1.1 1.9 6.5-.1 3.7.2 6.5 1 7.4.7.9 1 2.3.6 3.1-.6 1.8 1 3.9 3.9 5 1.1.4 1.7.2 1.7-.9 0-.8.4-1.3.9-1 .5.4 1.1.2 1.3-.2.5-1.4 6.8-2.3 6.8-1.1 0 .8 1.5.9 4.6.4q4.5-.6 6 .6c1.9 1.5 9.5 1.7 11.1.3.6-.6 1.5-2.8 1.8-4.8.5-2.6 1.2-3.6 2.6-3.6 1.1 0 1.9-.5 1.9-1 0-.6.7-1 1.5-1 .9 0 1.5.9 1.5 2.5 0 1.4.5 2.5 1 2.5.6 0 1-1.3 1-2.9 0-1.5.3-5.6.7-9.1.4-4.7.3-6.1-.5-5.6-1.5.9-1.6-1.6-.2-3 .6-.6 1.2-2.6 1.3-4.5s.5-3.6.9-3.9 1-6.1 1.4-12.8l.7-12.2h-3.2c-1.8 0-3 .4-2.6.9.5.9-2.9 1.6-11.7 2.4-3.3.3-3.8 0-3.8-1.8 0-1.9-.7-2-17-2.4-9.4-.2-17.1-.2-17.1 0M760.6 31.2c-.5 2.2-2 19.2-3.1 35.3-.4 4.4-.9 9.3-1.2 10.9-.3 2-.2 2.6.6 2.2 1-.7 3.4 1.4 6.4 5.7 1.1 1.6 2.3 1.6 13.7.8 7.2-.5 12.9-.5 13.5 0 1.1 1.1 12.2 1.2 12.9.1.2-.4-2.5-.7-6.2-.5-6.2.2-6.4.2-2.9-.8 3-.9 3.7-1.6 3.7-3.6 0-5.3 5.9-6.7 6.1-1.4.2 4 2.7-11.7 4.4-27.9 2.2-21 2.2-21.3.5-21.5-.8-.1-11.9-.5-24.7-.9l-23.2-.8zM323.5 48c.4 10.2 1.1 19.2 1.6 20 .6 1.1.8.8.9-1.2 0-2.3.4-2.7 3-2.6 3 .1 3.9 1.1 2 2.3-.5.3-1 1.4-1 2.3 0 1.1.8.5 2-1.6 1.1-1.8 1.7-3.8 1.4-4.4-.4-.6-.3-.8.3-.5 1.4.9 9.6-14 9-16.4-.3-1-.2-1.9.3-1.9.4 0 .7-1.1.6-2.5-.1-1.7-.7-2.5-1.9-2.5-1 0-2-.7-2.3-1.5-.4-.8-1.7-1.5-3.1-1.5-1.3 0-3.8-.7-5.5-1.6-2.5-1.3-3.2-1.4-3.9-.2-1.4 2-.5 13.4.9 13 .7-.1 1.2.2 1.2.8 0 .5-.5 1-1 1-.6 0-1.5 1-2 2.2-.6 1.7-.9.2-1.1-5.7-.4-12.9-.6-14.5-1.4-15.3-.4-.4-.4 7.6 0 17.8M813.1 38.7c-1.5 10.2-4.1 34.1-4 37.3 0 2.3.1 2.3.9.5.7-1.5.9-1 .9 2.3.1 3.1.6 4.4 1.9 4.9 1.4.6 1.3.8-.8 1.4-1.6.4.1.7 4.8.8 3.9.1 7.2-.3 7.2-.8 0-1.7 5-2.2 6.6-.6 1.2 1.1 3.9 1.5 11.6 1.5 5.6 0 9.8-.3 9.4-.7s-2.8-.7-5.4-.6c-2.6 0-3.3-.1-1.7-.3 6.1-.9 7.2-1.4 8.4-4 1.4-3.1 7.5-41.4 6.7-42.2-1-1-16.2-3.3-24.6-3.7-4.7-.3-8.6-.9-8.8-1.5-.5-1.5-3.1-1.2-5 .6-1.5 1.5-1.6 1.5-2.2-.2-.6-1.6-.8-1.5-1.5.7l-.8 2.4-.4-2.8c-.8-4.8-2-2.9-3.2 5M449.1 33.9c-.7.5-2.2.6-3.2.4-1.5-.4-2.3.2-3.2 2.6-1.1 2.9-3.7 4.4-3.7 2 0-.5-.3-.8-.8-.6-.4.3-2.7.6-5.2.8-6.4.4-9.8 2.5-9.3 5.8.3 2.1.1 1.9-1.1-.9-1.2-3.1-1.2-3.6.2-4.8 1.4-1.1 1.3-1.2-.5-1.2-2.3 0-2.3.1-.8 13.7.7 6.8 2.4 10 2.6 5 .1-1.7.3-1.6 1 .9 1 3.4 4.4 5.2 5.3 2.7.3-.8.6-3 .6-4.9s.5-3.4 1-3.4c.6 0 1-.6 1-1.4 0-1.9 2.2-2.6 8.5-2.6 3.7 0 5.8-.5 6.7-1.6 3.8-4.6 4.8-5.2 8.3-5.2 4.6 0 6.1-1.3 4.6-4.1-.9-1.5-2.1-2.1-4.6-2.1-1.9 0-3.5-.5-3.5-1 0-1.2-2-1.3-3.9-.1M413 41.2c-3.5 2-3.5 2-.5 1.3 3.8-.9 2.8.3-1.4 1.5-1.9.5-2.9.5-2.6-.1 1.3-2-1.8-.7-4.2 1.8-1.5 1.6-2.3 2.2-1.8 1.4.4-.7.4-1.2-.1-1s-3 1.2-5.6 2.3c-4.3 1.7-4.7 2.1-4.1 4.7.5 2.8.5 2.8-3.3 2.3-4.1-.4-3.7 0 .6 1 1.8.4 3 1.6 3.9 4.1.9 2.6 1.8 3.5 3.6 3.5 1.2 0 2.5-.7 2.9-1.5.3-.8 1.7-1.5 3.1-1.5s3.9-.7 5.5-1.5c2.5-1.3 2.9-1.3 3.2 0s.6 1.3 3.1.1c2.6-1.4 2.7-1.4 2.8 1.2 0 1.5.4 3.6.9 4.7.9 2 .9 2 .9 0 .1-1.9-2.7-24.1-3.2-25.6-.1-.4-1.8.2-3.7 1.3M862.6 40.2c-.6 1.8-5.6 38.9-5.6 41 0 1.2.5 1.5 1.6 1.1 1.2-.4 1.5-.2 1.2.8-.3.8-1.2 1.3-2.2 1.1-.9-.2-1.6.1-1.6.6 0 .6 2.6 1.3 5.8 1.7 7.6 1 10.1 1.2 9.9.5-.3-1.5 1.6-5 2.9-5 .8 0 1.4-.5 1.4-1 0-1.8 2-1.1 2 .7.1 2.6 8.2 7.2 14.5 8.1l5.4.9.5-6.1c.9-10.8 1.4-31.2.6-28.1l-.7 3-.7-2.7c-.6-2.1-2.6-3.6-9-6.7-4.5-2.3-9.2-4.1-10.4-4.1s-2.2-.4-2.2-.9c0-.7-11.1-6.1-12.6-6.1-.3 0-.6.6-.8 1.2M960.7 54.6c-.4 7.6-.7 17.2-.7 21.4v7.7l4.5-.3c2.5-.3 4.5 0 4.5.5s-.4 1.1-.9 1.3c-2.3.8-1.4 3.1 1.4 3.5 4.1.6 4.4 1.1 1.5 3.3l-2.5 2h2.8c2.2 0 2.7.5 2.8 2.7.2 3.5 1.7-4.6 1.8-9.4.1-2.5-.3-3.1-1.4-2.7-1.2.5-1.5-.2-1.5-2.9 0-2-.4-3.8-.9-4.1-1.4-.9 0-4.8 1.5-4.2 1.8.7 1.8-.6-.2-4.8-1.1-2.1-2.2-3.2-3-2.9s-1.4.1-1.4-.5.4-1.2 1-1.4c.7-.2-7-21.1-8.3-22.5-.2-.2-.7 5.8-1 13.3M928.7 46.7c-.8.8-18.6 7.1-23.2 8.2-2.9.7-2.9.8-.7 1.5 1.5.5 2.9.3 4-.6 1.5-1.2 1.6-1.1.4.4-.9 1.1-1 1.8-.2 2.3.5.3 1 1.3 1 2.1 0 1.1-.6 1.3-2 .9-1.2-.4-2-.2-2 .5 0 2.1-2-.1-2.1-2.3 0-2.1-.1-2.1-.8-.2-.5 1.1-1 8.7-1.2 16.9l-.4 14.9L909 94c4.1 1.5 10.2 3.7 13.5 4.8s6.7 2.3 7.6 2.6c1.4.6 1.6-2.2 2.2-26.5.4-14.9.4-27.5.1-28-.6-1.1-2.8-1.2-3.7-.2M348.2 54.5c0 3.8.4 9.9.8 13.5l.7 6.5.1-5.6c.2-7.1 1.2-8 3.4-3.2 1.5 3.4 1.7 3.5 1.1.8-.5-2.9-.5-2.9 1-1 1.1 1.4 1.3 2.5.6 4-.9 1.8-.9 1.9.4.2 1-1.2 2.9-1.7 6.1-1.7 2.9 0 5.3-.6 6.3-1.5 1.2-1.2 1.8-1.3 2.9-.4.9.7 1.4.7 1.4.1 0-.5-.7-1.3-1.6-1.6-.8-.3-1.2-1-.9-1.6 1.2-1.9 1.6-6.2.5-5.5-.5.3-1 1.5-1 2.6 0 1-.4 1.9-1 1.9-.5 0-1-1.1-1-2.5 0-1.7-.4-2.3-1.4-1.9-1.1.4-1.3 0-.9-1.5.3-1.3 1.4-2.1 2.7-2.2 1.2 0 0-.8-2.9-1.8-8.5-3-10.5-3.3-10.5-1.6 0 .8-.6 1.5-1.3 1.5s-1.3.9-1.4 2 .2 2 .8 2c.5 0 .9.4.9 1 0 2.7-2.1.4-3.9-4.3l-2-5.2zM935.7 55.7c-.4 2.1-.6 12.8-.5 23.8 0 11.8.4 18.1.8 15.5s.8-3.4.8-2c.2 2.2.7 2.6 3.7 2.7 1.9 0 3.5-.3 3.5-.8 0-.4 1-1.1 2.3-1.4 1.2-.4 3.6-1.3 5.4-2.1 2.9-1.3 3.1-1.7 2.2-4.1s-.8-2.5.7-1.2c1.5 1.2 1.6 1.1.9-1.1-.4-1.4-1.6-3.7-2.6-5.2-1.1-1.4-1.9-2.8-1.9-3.1s-2.3-4.3-5.2-8.9c-2.8-4.6-6.1-10-7.3-12.1l-2.2-3.8zM901.7 95.7c-.3.5.1 5.7.8 11.8.7 6 1.3 9.3 1.4 7.3.2-5.8 2.1-5.7 2.1.1 0 2.8.5 5.1 1 5.1.6 0 1 .9 1 1.9s.7 2.2 1.6 2.5c2.4.9 2.9.7 1.7-.5-.9-.9-.8-1.5.3-2.6.8-.8 1.3-2.4 1.3-3.6-.2-2.2-.2-2.2-.6 0-.6 3.3-2.1 2.8-1.6-.5.7-4.1 2.5-7.5 3.4-6.1.4.7 2.8 1.3 5.3 1.4 3.8.1 4.6-.2 4.6-1.6 0-1-.5-2.1-1-2.4-.6-.4-.8-1.1-.4-1.6.3-.5.9-.7 1.3-.5.3.3.7-.4.7-1.4 0-2.7-2.7-3.5-3.3-1-.3 1.1-1 2-1.5 2s-.6-.5-.3-1c.3-.6-.1-1-.9-1-.9 0-1.6.5-1.6 1.1s-.7.4-1.5-.5c-2.6-2.6-1.8-3.7 2.3-3.1l3.7.6-2.6-1.5c-1.5-.9-4.4-2-6.5-2.5-2.2-.5-4.9-1.3-6.1-1.6-1.9-.6-2.3-.3-2.4 1.6 0 2.2-.1 2.3-.8.4-.5-1.1-.7-2.3-.4-2.8.2-.4.2-.7-.1-.7s-.7.3-.9.7M945.8 97.2c-3 1.1-3.8 4.2-1.3 5.2 2.1.8 1.9 2.4-.5 3.1-1.1.3-2 1.3-2 2.1 0 1.9-1.7 1.8-2.9-.3-.5-1-1.2-1.5-1.6-1.1-.4.3.8 2.1 2.5 4 1.7 1.8 2.9 2.8 2.6 2.2-.5-1.1 3.3-4.4 5-4.4.3 0 .4 1.4.2 3-.6 3.8 1.3 5.5 4.9 4.4 1.6-.4 3.1-.7 3.6-.6.4.1.7-3.9.7-8.8 0-5.9-.4-9-1.1-9s-1 1.2-.7 3q.45 3-.9 3c-.8 0-1.3-1.3-1.3-3.5 0-3-.3-3.5-2.2-3.4-1.3 0-3.5.5-5 1.1M1250 388.8c0 .7-.7 1.2-1.5 1.2s-1.5.4-1.5 1c0 .5-1.6 1-3.5 1-2.3 0-3.5.5-3.5 1.4 0 1.6-10.9 3-16.9 2-2.2-.3-6.2-.1-9 .6s-10.6 1.3-17.4 1.4c-6.7.1-12.8.5-13.4.9s-.9 1.6-.6 2.7c.3 1.2-.1 2.2-1.1 2.6-.9.3-1.6 1.5-1.6 2.5s-.7 1.9-1.5 1.9-1.5.4-1.5 1c0 .5-.7.7-1.5.4-1.8-.7-7.5 3.2-7.5 5.2 0 .8-.9 1.4-1.9 1.4-1.6 0-2 .9-2.4 6.2-.3 3.5-.8 7.8-1.2 9.5-.5 2.5-.4 3.3.6 3.3 1.8 0 7.4 9.1 7.9 12.8.2 1 4.2 5.2 5.1 5.2.5 0 1.9 1.1 3.3 2.5l2.4 2.4-3.1 2c-2.3 1.4-5.9 2.1-12.7 2.6-10.2.8-12.4 1.9-11.4 6.1.3 1.2.1 3-.4 4.1-.6 1.2-.6 3.8.2 7.6 1.2 5.9 3.4 8.8 8.9 11.6 1.7.9 2.6 2 2.2 2.9-.3.7-.5 1.7-.5 2.1 0 .8-.2.9-7.5 1.7-2.7.3-5.8 1.3-6.7 2.1-1.2 1-4.3 1.5-11 1.6-10.6.2-17.8-1.5-17.8-4.1 0-.9-.7-2.5-1.5-3.6-1.7-2.2-1-7.5 1.4-9.4.9-.7 2.7-1 4.3-.7 2 .5 3.5.1 5.3-1.4 2.6-1.9 2.6-2 .6-3.1-1.4-.7-2.1-2.1-2.1-3.9 0-3.3-3.5-5.3-7.9-4.5-1.6.3-3.8.1-5-.5-2.5-1.4-4.4-.4-10.5 5.1-4.6 4.2-8.3 4.8-15.1 2.3-5-1.8-11.1-1.9-17-.3-3.6 1-5 1-6.5 0-1.1-.7-3.4-1.2-5.1-1.2-2.7 0-3.1.3-2.7 2.3.3 1.8 0 2.3-1.6 2.5-1.1 0-2.4.8-2.8 1.7-1 1.6-3.6 1.9-8.7.9-2.6-.6-3.1-1.1-3.1-3.5 0-1.6-.6-2.9-1.2-3-5.1-.5-10 0-11.3 1.1-.8.7-2.5 1-3.8.8-2.2-.4-2.3-.3-1.2 2.9.6 1.8 1.4 3.6 1.8 3.9 1.4 1.4.6 2-4.8 3.9-3 1-5.4 2.3-5.3 2.9.2.6-.6 3.7-1.5 6.8-1.5 4.6-2.2 5.6-3.8 5.3-1.5-.3-1.9.2-1.9 2.6 0 1.7-.4 2.8-.9 2.5-.5-.4-.7.2-.5 1.2.3.9-.4 2.7-1.5 3.9-3 3.2-11.1 19.4-10.4 20.7.3.6.3.8-.2.4-.4-.4-2.2.3-3.9 1.5s-3.2 2.1-3.3 1.9c-.2-.1-.6-.2-1-.2-.5 0-.1.5.7 1.1 1.2.8 1.1.9-.6.4-1.2-.3-2.5 0-3.1.7-.5.7-2.7 11.4-4.7 23.8-2.1 12.4-4.4 26.1-5.2 30.5-1.8 10.5-2.8 22.7-1.5 20 .7-1.5 1-.6 1 3.7.1 5.6-.3 6.3-3.4 5.9-.6 0-2.3 5.4-3.9 12.2-5.7 24.7-14.4 54.5-21 71.4-2 5.1-3.6 9.5-3.6 9.8s75.6.5 168 .5h168V389h-4.3c-2.4 0-9.2-.3-15-.7-7.8-.4-10.7-.3-10.7.5m-42.1 69.7c3.4.6 8.1 4.7 8.1 7.1 0 1.9-6.6 1.8-14.4 0-3.4-.8-7.8-1.7-9.8-2.1-4.5-.7-8.1-3.5-7.3-5.5.5-1.3 2-1.5 10.3-.8 5.3.4 11.2 1 13.1 1.3m12.5 15.5c2.2 1.3 6 2.2 11.2 2.7 6.2.5 8.6 1.2 12 3.5 2.3 1.5 5.3 2.8 6.6 2.8 2.6 0 17.2 4.8 15 4.9-.8.1-1.2 1-1 2.3.8 6-10.6 9.2-22 6.3-3.1-.9-8.6-2-12.2-2.6-3.5-.5-7.9-1.9-9.6-3-1.7-1-3.9-1.9-4.8-1.9-1 0-1.5-.4-1.2-.8.5-.8-6.3-4.2-12.6-6.2-3.4-1-3.8-1.5-3.8-4.5 0-4 .9-6.7 2-6 .4.3 1.3-.1 1.9-.9 1-1.1 2.2-1.1 8.2 0 3.9.7 8.5 2.2 10.3 3.4M1068 493c0 1.6-.4 3-.9 3s-1.2.9-1.6 1.9c-.3 1-1.7 2.2-3 2.5-1.4.4-2.5 1.3-2.5 2.1s-.9 1.5-2 1.5c-1.6 0-2-.7-2-3 0-2.8-.2-3-4-3-3.9 0-4 .1-4 3.3s-.2 3.3-3 2.9c-2.5-.3-3.2-1-3.7-3.3-.3-1.6-1.2-2.9-1.9-2.9-1.6 0-1.7-.9-.4-3 .6-.9 1-1.1 1-.3 0 1.4 3.1.6 4.1-1 .4-.5 3.7-.9 7.3-.8 3.9.1 6.6-.3 6.6-.9 0-.5.5-1 1-1 .6 0 1 .7 1 1.5s.6 1.5 1.4 1.5c2.5 0 4.6-1.2 4.6-2.6 0-.8.5-1.4 1-1.4.6 0 1 1.3 1 3m138.4 189.7c1.7 5.1 3.3 9.3 3.6 9.3s2-4.3 3.9-9.5c2.6-7.5 3.7-9.5 5.2-9.5 1 0 1.9.3 1.9.7 0 .5-2 6.2-4.4 12.8-3.5 9.7-4.8 12.1-6.5 12.3-1.2.2-2.1.2-2.1 0s-2-6-4.5-12.8-4.5-12.6-4.5-12.8 1-.2 2.2 0c1.8.2 2.7 1.9 5.2 9.5m28.2-1.9c1.8 1.3 4.4 5.6 4.4 7.4 0 1.6-1 1.8-7 1.8-7.4 0-8.4.8-5.3 4.2 1.9 2.2 5.1 2.3 7.2.4 1.2-1.1 2.1-1.2 3.1-.5 2.4 1.5-2.4 4.9-6.9 4.9-5.7-.1-9.1-3.8-9.1-10 0-4.4 4.7-9 9.2-9 1.8 0 3.8.4 4.4.8m22.9.8c3.6 2.3 4.9 7.4 3.1 11.7-1.7 4.2-4.1 5.7-9.1 5.7-5.2 0-8.5-3.6-8.5-9.2 0-2.4.6-5 1.3-5.9 3.1-4 9-5 13.2-2.3M51.2 399.3c-1.2.6-2.2 1.6-2.2 2.2 0 .7-1.9 1.9-4.2 2.7C34 408 20.3 412 18.3 412c-1.3 0-2.4.8-2.8 2-.3 1.1-1.2 2-2 2-.7 0-1.6.6-1.8 1.2-.3.7-.6-1.5-.6-5-.1-3.8-.5-6.2-1.2-6.2-.6 0-2.2-.9-3.6-2s-3.4-2-4.5-2C0 402 0 403.4 0 441.4l.1 39.3 2.7-.5c1.5-.3 3.1-1.1 3.5-1.8.4-.8 1.4-1.4 2.1-1.4.8 0 2.7-.7 4.2-1.5 8.3-4.3 19.4.7 19.4 8.7 0 3.5-.4 4.1-3.5 5.4-1.9.7-5.4 1.4-7.9 1.4s-4.8.4-5.1 1c-.3.5-1.8.9-3.3.8s-4.8-.1-7.4 0L0 493v227h167.5c92.1 0 167.5-.2 167.5-.4 0-.3-2.7-8.4-6-18.2-10.8-31.9-19.2-63-21.5-79.6-.7-5.1-.4-5.1-7-1.5-9 4.8-11.6 5.8-14.7 5.5-4.1-.4-5.1-3.3-1.6-4.7 1.3-.6 1.7-1 .8-1.1-1.2 0-1.1-.3.2-1.1 1-.5 1.8-1.8 1.8-2.7 0-1.5.2-1.5 1-.2s1 1.2 1-.3c0-.9.8-2.5 1.8-3.5 1.7-1.7 1.6-1.8-1.5-3.9-1.8-1.2-3.3-1.8-3.3-1.3 0 .6.5 1 1 1 .6 0 1 .9 1 2s-.4 2-1 2c-.5 0-1-.7-1-1.5s-.6-1.2-1.4-.9c-1.2.5-1.3 0-.7-2.3.6-2.2 1.3-2.8 3.4-2.8 1.6-.1 2.7.5 2.7 1.2 0 .8 1.4 1.3 3.8 1.3 3.1 0 4.1-.5 5.2-2.5.9-1.8 1.9-2.3 3.2-1.9 2.3.7 2.3-.4.1-12.8-1.3-7.6-1.9-9.5-2.9-8.7s-1.4-.1-1.9-3.8c-.3-2.6-.8-5.8-1.1-7.1-.2-1.2 0-2.2.6-2.2.5 0 1-.8.9-1.8 0-1-.3-1.2-.6-.5-.2.7-.9 1.3-1.5 1.3s-.8-.6-.5-1.3-.4-1.9-1.5-2.6c-1.6-1-1.7-1.5-.7-2.7s.8-1.8-1-3.1c-1.8-1.2-2.2-2.2-1.7-4.4.5-2.8.4-2.9-3.4-2.9-3.7 0-4-.2-4-2.8 0-1.6.7-3.7 1.5-4.8 2.7-3.5 1.9-4.4-3.2-3.7-4.8.6-5.5 1-9.8 5.1-1.3 1.2-2.8 2.2-3.2 2.1-3.3-.5-6.8.5-8.8 2.6-1.4 1.3-2.5 2.1-2.5 1.7s-1.4-.9-3.1-1c-1.6-.1-3.5-.3-4.2-.5-1.4-.3-5.7-4.7-5.7-5.8 0-.5-.9-.9-2-.9-1.5 0-2.2-.9-2.7-3-1-5.3-8-10.7-17.8-13.7-2.3-.8-4-.5-7.2.9-2.4 1-4.3 2.4-4.3 3 0 .9-.3.9-1.2 0-.7-.7-2.5-1.2-4-1.2s-2.8-.5-2.8-1c0-.6-.7-1-1.5-1-1.9 0-8.7-6.8-7.4-7.5.5-.4.9-2.3.9-4.4 0-6.3 1.1-9.9 3.1-10.4 1.4-.4 1.9-1.5 2-3.9.1-1.8.3-2.5.6-1.6.6 2.6 3.1 2.2 3.6-.5l.4-2.2.2 2.2c0 1.3.7 2.3 1.5 2.3s2.3.2 3.3.5.8.1-.5-.6c-1.2-.7-2.2-1.9-2.1-2.8.5-3.4-1.3-10.1-2.7-10.1-.8 0-1.4-.9-1.4-2 0-1.4-.7-2-2.4-2-1.3 0-2.6.5-2.8 1.2-.3.8-3.1 1.2-8.5 1.3-8 0-11.3 1.2-11.3 4 0 1.8-1.8 2.3-5.6 1.8-2-.3-4.1.1-5.8 1.2-2.4 1.6-2.6 2.3-2.6 8.4 0 3.6.3 9.6.6 13.3.7 6.6.8 6.8 4 7.8 1.9.7 4.8 1 6.5.8 1.8-.2 3 .1 2.8.7-.2.5-.9.9-1.6.7s-1.3.2-1.3.8-.4.9-.9.6c-.4-.3-1.6.3-2.6 1.4s-2.2 2-2.7 2-3.3 1.1-6.1 2.4c-2.9 1.4-6.3 2.6-7.7 2.8s-3.1.7-3.8 1.2c-2.1 1.3-5.9-1.3-7.8-5.2-2.7-5.7-.2-11.9 5.4-13.7 3-.9 5.3-4.5 4.6-7.2-1-3.6-6.1-5.3-13.6-4.6l-6.5.6-.7-2.9c-.4-1.6-1.4-3.6-2.2-4.5-2.8-3.1-.1-13.9 3.3-13.9.7 0 1-.6.7-1.4-.3-.9.3-1.7 1.8-2.1 1.3-.4 2.6-1.3 3-1.9 1.1-1.6 1-12.6-.1-12.6-.5 0-1.1-.6-1.4-1.4-.4-1 0-1.2 1.4-.9 1.1.3 1.9 0 1.9-.7 0-1.2 2.4-4 3.4-4 .3 0 .6.5.6 1.1 0 2.5 3 3.9 8.3 3.9 4.8 0 5.5-.3 6.1-2.3 1-3.7.7-5.7-.9-5.7-.9 0-1.5-.9-1.5-2.4 0-1.3-.3-3.2-.6-4.1-.6-1.3-.9-1.4-1.6-.3-.7 1-1.1 1-1.4.1-.3-.7-2.1-1.5-4-1.9-4.2-.8-4.2-.8-4.5-7.1-.2-4.6-.5-5.2-2.8-5.8-1.4-.4-2.9-1.2-3.3-1.8-.6-.9-.8-.9-.8 0 0 .7-.4 1.3-1 1.3-.5 0-1-.5-1-1.1s-.7-1.8-1.6-2.7c-1.1-1-1.3-1.7-.5-2 4.4-1.5-4.3-10.2-10.1-10.2-1.8 0-2.8-.5-2.8-1.5 0-1.1-1.1-1.5-4-1.5-3.1 0-4 .4-4 1.7 0 1.4-.4 1.2-1.7-.7-2.3-3.3-3.3-4-6.5-4-1.6 0-2.8-.5-2.8-1 0-.6-1.2-1.1-2.7-1.1l-2.8-.1 3-.8c2.8-.7 2.9-.8.5-.9-1.4 0-4.1-1.4-6-3.1-3.4-2.8-3.8-2.9-14-3-11.8 0-15-.6-15-2.6 0-1-1.3-1.4-4-1.4-3.8 0-5.4 1.3-2.7 2.3.8.4.9.6 0 .6-.6.1-1.8-.5-2.5-1.2-1-1-1.9-1.1-3.6-.4M122.8 500c1.2 1.9 3.2 4.6 4.2 6 2.6 3.2 2.5 5.2-.3 6.6-13 6.3-17.4 12.3-13.1 17.9 1.3 1.8 2.5 2 10 1.8 7.3-.1 8.8.1 10.5 1.8 4.1 4.1 1.1 12.6-5 14.2-2.2.6-3.8-.7-2.1-1.8 1.6-1 1.2-3.6-.7-5.1-2.2-1.6-8.7-1.8-11.6-.3-1.8 1-2.4.8-4.5-1.6-1.6-2-2.2-3.5-1.7-5.2.4-1.6-.5-4.5-2.5-8.8-3.6-7.5-6-14.1-6-16.4s6.5-9.1 8.8-9.1c1 0 2.7-.9 3.8-2 3-3.1 7.4-2.2 10.2 2M960 532.6c-3 3.6-5.3 7.1-5.2 7.8.2.6 0 .8-.4.4s-1.5.2-2.6 1.4c-2 2.4-1.6 3.7.6 1.9 2.1-1.7 5.6-.4 5.6 2 0 1.7.5 2 2.9 1.4 2.7-.6 2.8-.4 2.4 2.2-.8 5 1.3.3 3.6-8 2.4-8.7 2.5-10.1 1.1-9.2-.5.3-1 1.8-1.1 3.3 0 2.5-.2 2.4-1.9-1.3-1.6-3.5-1.6-4.1-.3-5.2.8-.6 1.3-1.7 1.1-2.3s-2.8 1.9-5.8 5.6M858 536.4c0 .6 27.8 22.6 28.7 22.6.4 0 .1-.5-.7-1.1-1.3-.9-1.3-1 0-.6.8.2 1.5.9 1.5 1.7 0 .7 1.4 2.3 3.1 3.6l3.1 2.4-.9-6.2c-1-7.7-1.6-9.4-1.7-4.9-.1 4.1-1 3.6-1.6-.8-.2-1.7.1-3.1.6-3.1s.8-1.7.8-3.8c-.1-2-.3-2.9-.6-2-.4 1.8-2.3 2.5-2.3 1 0-.7-1.9-1.1-6.7-1.3-2.3-.1-5.3 2.2-5.3 4 0 1.4-1.3 1.4-2.8-.1s-1.6-3.1 0-2.2c.7.4.8.3.4-.5-.4-.6-1.3-1.1-1.9-1-2.8.3-3.7-.2-3.7-2.4 0-1.7-.2-1.9-1-.7s-1.5.9-4.3-1.8c-2.9-2.8-4.7-3.9-4.7-2.8M894.1 541.7c-.1 1.7.4 3.5 1 3.8.6.4.8 1.4.5 2.2-.8 2 .5 9.8 1.4 8.4.4-.7 1.1-.1 1.9 1.6 1 2.2 1.4 2.4 2.2 1.2.7-1.1.9-.9.9.8 0 1.4-.6 2.3-1.5 2.3-.8 0-1.5.7-1.5 1.5 0 1.3.6 1.1 3-.7 3.1-2.2 3.9-3.8 1.9-3.8-.5 0-.8-.4-.5-.9s1.4-.7 2.4-.5c2.2.6 9.3-5.2 8.6-7-.3-.8 0-1.7.7-2.2.8-.4 1-.3.5.4-.4.7-.1 1.2.9 1.2.9 0 1.3-.5 1-1-.3-.6 0-1 .8-1s2.1-.8 2.8-1.7c1.2-1.5 1.2-1.6-.1-.7-2.3 1.4-5.9 1.2-5.3-.3.3-.8-.2-1.3-1.3-1.3-2.2 0-5.7 2-3.6 2 .6 0 1.1.3 1 .7-.1.5.3 1.8 1 3 1.1 1.9 1 2.3-.2 2.3-.9 0-1.3-.6-1-1.4.3-.9-.3-1.7-1.5-2.1-1.2-.3-2.1-1.1-2.1-1.6s-1.8-.9-4-.9c-2.7 0-4.7-.7-6-2-1.1-1.1-2-1.7-2.1-1.3-.1.5-.5-.3-.9-1.7-.8-2.4-.8-2.4-.9.7M924.6 548.9c-.9 1.7-2.1 2.9-2.7 2.5-.9-.5-3 1-13.1 9.5-.9.8-1.5 1.8-1.2 2.3.3.4-.1.5-.9.2s-3 1.3-5.3 3.8l-4 4.3-1.2 13c-.7 7.1-1.5 15.2-1.7 17.9s-.7 6.1-1 7.7c-.4 1.6-.4 2.9-.1 2.9s2.3-2.4 4.5-5.3c2.2-2.8 7.8-10.3 12.5-16.6 4.7-6.2 8.6-11.7 8.6-12.2s.4-.9.8-.9c1.1 0 4.7-6.3 4.4-7.7-.1-.6.2-1.4.8-1.8.6-.3.7 0 .4.9-1.1 2.9.5 1.6 3.5-2.8 2.4-3.4 2.7-4.6 1.8-5.7-1-1.1-.9-1.1.5 0 1.5 1.1 1.9.8 3.4-2.1l1.7-3.3-2.2 1.9-2.1 1.9 1.5-3.6c2.1-5.1 2-8.1-.2-7.2-3 1.1-7.9 1.7-6.6.8.7-.5.9-1.4.3-2.2-.6-1.1-1.2-.6-2.4 1.8M945.1 551.4c-1.7 2.4-2.8 4.6-2.3 4.8.4.2 1.5 2 2.6 4 1.1 2.3 2.3 3.5 3.2 3.1.8-.3 1.4.1 1.4 1.1s.8 1.6 2.3 1.6c4.6 0 6.6-1.2 6.9-3.9.2-1.6.8-2.5 1.7-2.3s1.1-.3.7-1.3c-.3-.9-.6-2.3-.6-3.1s-.7-1.4-1.5-1.4-1.5-.9-1.5-1.9c0-2.4-.7-2.8-5-3.6-1.8-.3-3.7-.8-4.1-1.1-.4-.2-2.2 1.6-3.8 4M867.7 549.7c-.4.3-.7 1.1-.7 1.7s.4.5.9-.2c.6-1 1.2-.9 3 .5 2.2 1.8 2.2 1.8-2.3 1.8-2.4 0-4.8-.3-5.2-.8-.4-.4-1.9-.7-3.3-.6-1.4 0-2 .3-1.3.6 1.9.8 1.4 2.3-.8 2.3-1.1 0-2-.7-2-1.5 0-.9-.9-1.5-2.2-1.4-1.3 0-1.7.3-1 .6 2.3.9 1.2 2.3-1.8 2.3-2.3 0-2.8-.4-2.3-1.6.5-1.4.2-1.3-1.6.2-1.2 1.1-2.6 2-3.1 2-.6.1-1.4.2-1.9.3-.5 0-1.2 1.4-1.6 3.1-.5 2.5-1.1 3-3.6 3-1.6 0-2.9.4-2.9 1 0 .5-.9 1-2 1-1.4 0-2 .7-2 2.2 0 1.8-.2 2-.9.8-.6-.8-.7-1.8-.5-2.2.3-.4-.3-.5-1.2-.1-1.1.4-1.3.8-.6 1.1 1.4.4 1.6 3.2.3 3.2-.5 0-1.1-.5-1.3-1.2-.2-.6-1-.8-1.7-.4-.7.5-.9 1.2-.3 1.9 1.2 1.8.9 3.1-1.2 5.3-1.7 1.7-1.9 1.7-1.3.1 1.9-4.7 1.9-5-.1-2.5-1.4 1.6-2 3.3-1.5 4.4.4 1.1.3 1.5-.5 1-.6-.3-1.3-.2-1.7.4-.3.5 0 1 .7 1 .8 0 1.3 1.3 1.4 3.1.1 1.7-.2 2.5-.6 1.9-.6-.9-.9-.9-1.2.1-.3.8-.9 1-1.4.6s-.2-1.2.6-1.7c1.1-.7 1.2-1.2.3-2.1-1.8-1.8-2.8 2.9-1 4.9.7.9 2.9 4.4 4.8 7.7 4.8 8.7 19.6 31.2 21 32.1 1.4.8 6.8-4.7 26-26.6 7.5-8.5 14.6-16.4 15.8-17.4 1.3-1.2 1.9-2.6 1.5-3.8-.3-1 0-1.8.6-1.8s.8.5.4 1.2c-.5.9-.2.8 1-.1.9-.8 1.5-2 1.2-2.7-.3-.8.2-1.7 1.1-2.2 1.4-.8 1.3-1.2-.6-3.1-2.5-2.5-2.1-4.2.4-2.1.9.7 1.8 1.1 2 .8.5-.5-10.8-9.8-11.8-9.8-.3 0-2.7-2-5.3-4.5-5.1-4.6-5.6-5-6.7-3.8M940 560.5c0 .8.5 1.5 1 1.5.6 0 1 .4 1 1 0 .5-.6.9-1.2.7-.9-.1-1.2 1.1-1.1 3.8.1 3-.1 3.5-.7 2-.5-1.1-.9-1.8-.9-1.5-.1.3-1.9 7.5-4.2 16-2.2 8.5-5.3 20.4-6.9 26.3-2.3 9.1-2.5 10.5-1 9 1.2-1.2 1.4-2 .6-2.5-1.1-.8-.8-.9 1.7-1.2 1.8-.2 16.8-20.5 16.1-21.8-.4-.6-.3-.8.3-.5 1.6 1 11-13.3 10.5-16.1-.3-1.7-.9-2.3-2.2-1.9-1.3.3-2.5-.7-4.4-4.2-3.7-6.4-4.8-8.1-6.8-10.3-1.5-1.4-1.8-1.5-1.8-.3M782 562.3c0 1.5-1.1 2.2-3.2 1.8-.5 0-.8.6-.8 1.5 0 1.8-2.5 4.6-3.4 3.7-.3-.4-.6.8-.6 2.5 0 1.8-.4 3.2-1 3.2-.5 0-1-.6-1-1.4 0-1.2-2-2.6-3.6-2.6-.9 0-.3 4.9.6 5.2.5.1.6.9.1 1.6-.5.9-1.9-.5-4.4-4.5-2-3.2-3.6-5.3-3.7-4.7 0 1.7 12.9 21.6 16.8 25.8 2.1 2.1 8 7.4 13.2 11.8 9 7.6 9.5 7.8 9.8 5.4.2-1.4-.1-3.4-.7-4.4-1.5-2.7-2.6-16.2-1.2-14.2.8 1.2 1.1.8 1.2-2 .2-4.6.6-2.3 1.4 7.4.4 4.3 1 7.4 1.5 7 .4-.5 1.6-4.1 2.6-7.9 1-3.9 2.6-8.6 3.5-10.5l1.8-3.5-3.6-3.7c-2-2-4.1-3.4-4.7-3.1s-.8.2-.3-.2c.4-.5-1.4-3-4-5.7-3.5-3.6-5-4.5-6-3.7-.9.8-1.4.8-1.8-.3-.3-.7-1.5-1.4-2.6-1.5s-2.9-1.2-4-2.4c-1.5-1.8-1.9-1.9-1.9-.6M930.7 568.7c-3.1 4.2-5.7 8.5-5.7 9.5s-.8 2.2-1.9 2.6c-2.1.8-6.9 6.6-19.2 23.2-11.7 15.7-11.7 15.7-12.3 23-1.4 14.5-4.7 46.8-5.2 51l-.6 4.5 3.4-5.5c1.9-3 7-11.2 11.4-18.1 8.2-13.1 9.6-15.4 15.2-25.4 3.7-6.6 4.2-7.9 11.3-34.5 7.9-29.4 9.9-37.3 9.6-37.6-.2-.2-2.9 3.1-6 7.3M892 576c-.6 1.1-.9 2.4-.6 2.9s-.2 1.5-1.1 2.2c-1.1 1-1.4 1-.9.2.5-.9.2-1.1-.9-.7-.9.4-1.4 1.3-1.1 2.1s.2 1.2-.3.8c-.5-.3-6.4 5.6-13 13-11.2 12.5-14.5 16.7-10.4 13.4 1.4-1.2 1.6-1.2 1.1.1-.3.8-1.3 1.5-2.4 1.5s-3.6 1.8-5.6 4-5.5 6-7.7 8.4c-4.6 5-4.7 5.2-2.5 11.2.9 2.4 3.7 12.9 6.3 23.2l4.8 18.8 2.5-4.8c1.3-2.6 7.2-13.4 13-23.8 17.4-31.3 16.7-29.6 18.3-45.3 3-29.7 3-31.9.5-27.2M644.4 577.5c-1.9 1.3-2.2 2.5-2.2 10.7-.1 5.1.3 10.2.8 11.3.7 1.7.9 1.8.9.2.1-1.9 2.1-2.3 3.8-.6.7.7 2.1 0 4.7-2.4 2-1.9 3.6-3.3 3.6-3.1s.9-.5 2-1.6c1.6-1.6 2-3.2 1.8-7.8l-.1-5.7-.6 6-.6 6-1.7-5c-1.2-3.6-1.7-4.3-1.7-2.5-.1 1.9-.6 2.6-2.1 2.6-1.1 0-2-.6-2-1.2 0-.7-1-1.4-2.2-1.6-1.9-.2-2.3-.9-2.2-3.6.1-1.7.1-3.2 0-3.2s-1.1.7-2.2 1.5M621 583.6c0 6.9-1.3 7.9-2.3 1.7-.6-3.4-1-3.8-3.7-3.8-1.8-.1-3 .4-3 1.2 0 .7-.5 1.3-1 1.3-.6 0-1.5 1.1-2 2.5-.6 1.5-1.5 2.3-2.3 1.9-1-.3-1.3.2-.9 2.3.4 2.7 5.4 6.8 12.3 9.9 2.6 1.2 2.7 1.1 3.1-3 .8-6.4 1-20.6.4-20.6-.4 0-.6 3-.6 6.6M625 582.1c0 3.1-.3 7.8-.6 10.5-.4 2.7-.3 4.6.1 4.1.5-.4 2.1.5 3.7 2 2.5 2.4 3.1 2.5 6.3 1.6 2.6-.8 3.5-.8 3.6 0 .3 2.9 1.8-8.4 1.8-13.8 0-4.8-.2-5.5-1-3.6-.5 1.3-.7 4-.4 6 .5 3.3.4 3.4-.6 1.1-.6-1.4-1.1-4.3-1.1-6.5.1-2.2-.1-3.5-.4-2.8-.4.9-1.2.7-2.6-.7-1.4-1.3-3.1-1.8-4.7-1.5-1.4.2-2.9-.1-3.3-.8s-.8 1.3-.8 4.4M386.6 586c1.7 22 4 36.3 5.4 34.1 1.4-2.4 3.8 0 3.7 3.7 0 3.7 5.2 14.8 15.9 33.7 2.4 4.4 5.7 10.4 7.1 13.2 1.5 2.9 3 5.3 3.3 5.3s2-6.5 3.8-14.4c1.8-8 4.6-18.4 6.2-23.2 2.7-8.1 2.8-8.9 1.4-11.6-.9-1.7-2.2-2.8-3.2-2.6s-1.6-.3-1.4-1c.3-1.8-8-10.5-8.8-9.2-.9 1.5-7.6 2.4-8.4 1.2-.3-.6.3-1.7 1.4-2.5 1.1-.7 1.7-1.7 1.3-2-.3-.4.1-.7 1-.7 1 0 1.7.5 1.7 1.2 0 .6.3.9.6.6.7-.8-1.7-4.6-3.4-5.3-.7-.2-1 0-.7.5 1.4 2.2-.7.8-4.4-3-2.1-2.2-4.1-3.7-4.5-3.3-.3.3-.6-.1-.6-1 0-.8.5-1.7 1-1.9.6-.2-.3-1.9-2-3.7-1.6-1.9-3-3-3-2.5 0 .6.5 1.5 1.2 2.2 1.8 1.8-3.2 1.5-5.6-.3-1.1-.8-2.7-1.5-3.7-1.5-1.7 0-1.8 3.3-.5 19.5.4 4.3.3 5.2-.4 3.2-.4-1.5-1.2-7.6-1.5-13.6-.4-6-1.3-13.3-2.1-16.3l-1.3-5.3zM350.5 588.5c.7 2.1 1.2 4.2 2.1 8.5.6 2.7 4.6 17.5 6.9 25.5 1.6 5.4 5 11.6 6.2 11.4 2.1-.3 3.3.2 3.3 1.5 0 .7.7 1.9 1.6 2.7 1 .8 1.4 2.2 1 3.9-.4 2.1 1.1 5.3 6.8 14.6 7.5 12.3 12.2 20.1 14.3 23.8 1.6 2.6 1.6 3.1-.1-10-.8-6-1.7-15-2.1-19.9-.5-7.6-1.3-13.4-3.8-29-.4-2.5-4.4-10.2-5.7-11-1.4-.9-1.3.8.3 2.5 1 1.2.9 1.2-.6 0-1-.7-1.6-1.9-1.3-2.6.7-1.7-4.3-7.6-5.6-6.7-.7.3-.8.1-.4-.6.8-1.2-5.2-10-6.8-10.1-.5 0-.3.6.3 1.4.8 1 .9 1.6.1 2.1-.5.3-1.1 0-1.1-.7-.1-.7-.3-2.3-.4-3.6s-1-3.1-2-4c-1.6-1.6-1.7-1.6-.6.5 1.7 3.3 1.3 4.1-.9 1.5-1.1-1.3-2.4-2.1-3-1.7s-1.7.2-2.4-.4c-1-.8-1.7-.7-2.7.5-1.2 1.4-1.4 1.4-2.7-.3-1.4-1.7-1.4-1.7-.7.2M413.3 587.7c-.7.3-1.3 1.7-1.3 3.3s.6 3.1 1.3 3.3c1.9.8-1.2 2.7-3.2 1.9-1.4-.5-1.4-.3-.3 1.1.8.9 2 1.3 2.9 1 1.2-.5 1.5-.2 1.1.8-.3.8.1 2.4.9 3.4 1.4 1.8 1.5 1.9.9.1-.5-1.4-.2-1.7 1-1.2.8.3 2.3.6 3.1.6.9 0 1.3.3 1 .6-.4.4.3 2 1.5 3.6 1.5 2.2 1.8 3.2.9 3.7-.9.6-.8 1.1.4 2.1 1.3 1.1 1.6 1.1 1.3 0-.2-.7.3-1.5 1.1-1.8 1-.3 1.3.2.9 2.1-.3 1.5-.1 2.4.3 2.1.5-.3.9.2.9 1.1s2.1 3.9 4.7 6.6l4.6 4.9 3.4-5c1.8-2.7 3.3-5.6 3.3-6.5 0-.8.4-1.5 1-1.5.8 0 8.1-10.5 11.1-16.1 1.1-2.1 1-2.2-.3-1.2-.8.7-1.9.9-2.3.5-.5-.4-.5-.1-.1.5.4.7.3 1.3-.2 1.3-1.9 0-2.1-1.4-.4-2.6 1.5-1.2 1.5-1.5.2-2.4-2-1.3-2.6-1.3-4.2.3-.7.7-2.1 1.6-3 2-1 .3-1.8 1.2-1.8 1.9 0 .6-.9 2.2-2.1 3.4l-2.1 2.2-4.3-1.9c-2.3-1-5.9-2-7.9-2.1-2-.2-3.6-.6-3.6-1.1 0-.4-.9-.7-2-.7s-2-.5-2-1c0-.6-.4-1-1-1-1.3 0-5-3.7-5-4.9 0-.5.6-1.1 1.3-1.4.8-.3.9-.8.2-1.5-.5-.5-1.6-.7-2.2-.5M952 589.7c0 .6-2.5 4.1-5.5 7.9-3.9 4.9-5.3 7.5-4.9 8.9s.3 1.6-.4.6-1.6-.5-3.8 2.4c-1.6 2-5.5 6.9-8.6 10.8-3.2 4-5.8 7.7-5.8 8.3 0 .5.7 1.9 1.5 3 .8 1 1.5 3.3 1.5 5s.6 5 1.4 7.5c.8 2.4 2 6.6 2.6 9.2.7 2.6 1.6 4.4 2 4 1.5-1.7 5.2-17.2 4.6-19.4-.3-1.3-.3-1.8 0-1.1 1.1 2.4 2.5 0 1.9-3.6-.4-2.6-.3-3.1.4-1.7.7 1.7 1 1.3 2.1-2.5 1.8-6.7 5-17.2 6.1-19.8 1.2-2.9 1.2-4.5 0-3.7-.5.3-1.1-.5-1.3-1.7-.4-2.6 2.1-7.8 3.7-7.8 1.2 0 3.8-6.1 3-6.9-.3-.2-.5 0-.5.6M765 591c1.3.8 1.2 1-.2 1-1 0-1.8.7-1.8 1.6 0 1.2-7.6 25.5-9.8 31.3-.4 1.2-.1 1.1 1.7-.1 5.8-4.1 24.1-21.1 24.1-22.4 0-.4-.8-1.6-1.7-2.7-1.8-2-1.8-2 1.2-.2l3 1.9-2.5-2.7c-1.3-1.5-3-2.5-3.7-2.3-.7.3-1.2.1-1-.3.1-.5-.2-.9-.7-.9s-1.2-.4-1.5-.9c-1-1.4-5.9-4.3-7.3-4.3-.9 0-.9.3.2 1M810.1 594.7c-.7 1.5-2.6 6.2-4.1 10.3-1.6 4.1-3.1 8.2-3.5 9.1-.6 1.7-.1 2.1 22.4 19.1 4.2 3.2 8.1 5.8 8.6 5.7.6 0 .2-.4-.7-1-2.8-1.6-2.3-4.7.6-4.5 2 .1 2.3.4 1.4 2.1l-.9 2 1.6-2c.9-1.1 2.5-3 3.6-4.3 1.9-2.2 1.9-2.5.4-4.9-1.4-2.1-1.9-2.3-2.7-1.2s-.8 1-.4-.4c.7-2.3-9.1-18-10.7-17-.6.3-.7.1-.3-.5.4-.7-.9-3.9-3-7.2-3.8-6.2-5-7.4-3.9-4.1.6 1.9.5 1.9-2.4.5-1.7-.9-3.4-2.2-3.9-3-.7-1.2-1.1-.9-2.1 1.3M486.6 593.7c-7.2.5-10.1 2.9-8.5 7 1.2 3.2 1.1 3.6-.3 2.7-.8-.5-.9-.2-.5 1 .4 1 .7 2.2.7 2.8s.6.8 1.3.5c1.7-.6 4.1 2 2.6 2.9-.6.3-1.6 0-2.1-.7-.8-1.1-.8-1-.4.4.3 1 .6 2.1.6 2.4 0 1.4 5.4-4.1 5.5-5.7.1-1-.2-1.7-.7-1.4-1 .7-1 .1.2-3 .8-2.1 1.6-2.6 4.3-2.6 3.3 0 3.6-.2 6.5-6.3.2-.4-.5-.6-1.5-.5s-4.5.3-7.7.5M953.2 599.9c-.7 2.1-1.2 4.5-1.2 5.4 0 .8-.3 1.7-.8 1.9-.8.3-2.6 5.9-9.6 28.8-2.4 8-4.7 15.4-5.1 16.5-1.1 3.1 5.6-8 11.3-18.8 2.9-5.3 5-9.7 4.6-9.7s-.1-.7.6-1.6c.8-.8.9-1.4.4-1.3s-1.8.1-2.9 0c-1.7-.1-1.8-.3-.5-1.1 1.2-.8 1.2-1.2.2-1.8-.7-.5-1.1-1.5-.8-2.3.2-.8.7-2.7 1-4.2.4-1.5 1.1-2.5 1.6-2.2.6.3 1-.6 1.1-2.2.1-2.9.2-4.1 1.4-8.6 1.1-4.2 0-3.2-1.3 1.2M334.3 598.8c1.1 1.2 1.3 2.2.6 3.5-.7 1.1-.7 1.7.1 1.7.5 0 1-.5 1-1.1 0-.5.4-.8.9-.5.4.3.4 2.4-.2 4.6l-1.1 4-1.2-2.8c-2.5-5.4-1.3-.3 2.6 11.8 2.2 6.8 4 12.9 4 13.6s.8 1 2 .7c2.2-.6 2.8 1.5.9 3.4-1.5 1.5 1.8 14.6 3.4 13.6.6-.4.8.5.3 2.3l-.6 2.9 1.4-2.5c2-3.6 5.6-14.5 5.6-17.1 0-1.8-.4-2-2.5-1.5-1.5.4-2.5.2-2.5-.4s1.3-1.3 2.9-1.6c2-.4 3.3-1.5 4.1-3.5 1.1-2.6.9-3.2-2-6.8-1.7-2.3-3.7-4-4.3-3.8-.7.1-1.1-.4-.9-1.1.2-1.2-14.4-21.2-15.5-21.2-.4 0 .1.8 1 1.8M508.5 600c-.3.5-1.5 1-2.5 1s-2.1.9-2.5 2c-.5 1.5.5 3.1 3.9 6.6 2.5 2.5 4.6 4.3 4.6 3.9s3 2.2 6.7 5.8 6.9 6.4 7.1 6.2c.5-.4-4.7-17.5-6.4-21l-1.5-3 .6 4.3c.4 2.8.2 4.1-.5 3.7-.5-.3-1-1.4-1-2.3 0-1-1.2-2.6-2.7-3.7-1.4-1.1-3.2-2.6-3.9-3.3-.8-.8-1.5-.9-1.9-.2M471.5 602.2c-.6 1.4-1.1 1.5-3.2.5-1.5-.6-2.7-.7-3.1-.1-1.1 1.4-8.8 5.4-9.6 4.9-.3-.3-.4-.2-.1.2.3.3-.3 1.2-1.3 1.9-1.1.9-1.3 1.3-.4 1.4 1 0 1 .3 0 1.4-1.6 1.8-2.9 1.1-2.1-1.2.3-.9-.6-.1-2.1 1.8-1.4 1.9-2.4 4-2.1 4.8.2.7.1 1.1-.3.8-.4-.2-1.8 1.2-3.1 3.1-1.2 1.9-1.8 3.2-1.2 2.8.6-.3 1.1.1 1.1.9 0 .9-.8 1.6-1.9 1.6-2.5 0-3.7 1.8-2.2 3.3.8.8 1.4.9 1.9.1.5-.7 1.3-.7 2.8.1 1.6.8 2.1 1.9 2 4.8-.1 2 .3 3.7.7 3.7 1.2 0 29.7-22.9 29.7-23.8 0-.4-1.1-3.9-2.4-7.7-1.7-4.9-2.6-6.5-3.1-5.3M781.3 607.1c-1.3.5-2.3 1.2-2.3 1.6 0 .5-1.2 1.4-2.7 2.1-1.6.7-4.8 3-7.3 5.2-2.4 2.2-4.8 4-5.3 4s-.7.7-.4 1.4c.4.9.1 1.3-.6 1.1s-3.4 1.5-6.1 3.9l-4.8 4.2 6.7 5.5c8.8 7 14.6 11.2 14.9 10.8.2-.2 1-2.7 1.9-5.4.9-2.8 3.2-9.7 5.1-15.4 3.8-11.2 5.3-18.6 3.9-19.4-.4-.2-1.8-.1-3 .4M788.3 608.2c.2.7-.4 3-1.4 5-1.1 2.1-1.9 4.4-1.9 5.1 0 .8-1.1 4-2.5 7.2s-2.4 6-2.1 6.2c.2.3-.2 2.6-1 5.1-2.5 8.4-2.7 8.6 9.1-5.9 7.7-9.4 10.9-14.5 9.5-15.4-.5-.3-1-.1-1 .4 0 .6-.9 1.1-2 1.1-1.2 0-2-.7-2-1.6 0-1.1.5-1.4 1.8-.9.9.3-.1-1.2-2.3-3.4-4.1-4.3-4.9-4.9-4.2-2.9M498.6 613c.4 1.4.7 3.7.9 5.1.1 1.5.7 4 1.2 5.5.6 1.6 2.2 7.5 3.4 13.1 1.3 5.7 2.6 10.3 2.9 10.3.5 0 15.7-12.5 19-15.6 1.3-1.2 1.2-1.6-.8-3-1.2-.8-3.9-3.1-6-5-4-3.8-7.9-6.4-6.8-4.5.4.6 0 1.1-.9 1.1-1.1 0-1.5-.5-1.1-1.5.7-1.9-4.4-7.5-6.8-7.5-.9 0-1.6.4-1.6 1 0 1.4-2.7 1.2-3.4-.3-.4-.6-.3-.1 0 1.3M490.6 612.8c-1.9.4-2.9 1.1-6.3 4.2-1.5 1.4-1.6 1.3-1-.9.5-2.2.5-2.3-1-.8s-1.4 1.9 1.2 5.4c1.6 2.1 4.5 5.6 6.4 7.9 2 2.2 5.6 6.8 8 10.2s4.6 6.1 4.8 5.9c.6-.7-2.8-14-4.2-16.7-.8-1.4-1.7-4.6-2-7.2-.7-5.3-3.1-8.6-5.9-8M469 625.7c-4.7 3.8-11.1 8.7-14.2 11.1l-5.7 4.3 7.2 6.7c3.9 3.7 9.5 8.9 12.4 11.5l5.2 4.9.6-4.4c.4-3.1 3.2-40.8 3-40.8 0 0-3.9 3-8.5 6.7M798.7 621.3c-.3.7-4.8 6.7-10.1 13.4s-9.6 12.6-9.6 13.2-.6 1.1-1.2 1.1c-2.1.1 3 3.8 14.5 10.6 5.9 3.5 10.9 6.4 11.1 6.4.3 0 .3-2.1 0-4.8-1.5-18.7-2.6-33.1-2.6-36.8 0-4.2-1-5.8-2.1-3.1M802.5 621.7c.2 1 .9 9.9 1.6 19.8s1.5 19 1.8 20.1c.5 1.9 1.9 1 11.6-8.2 6.1-5.7 10.9-10.8 10.8-11.4-.2-.5.4-.7 1.2-.4 3.7 1.4.7-1.6-7.3-7.5-4.8-3.6-11-8.2-13.8-10.3-5.8-4.3-6.3-4.5-5.9-2.1M479.6 625.4c-.9 6.1-3.5 40-3 40.5.6.7 19.9-11.8 19.7-12.8-.2-.6.3-.8 1-.6.6.3 2.3-.5 3.7-1.6 1.5-1.3 1.8-1.9.8-1.5-1.2.3-1.5.1-1.2-.9.3-.8.1-2-.5-2.7s-5.2-6.5-10.2-12.8-9.2-11.6-9.4-11.8c-.1-.2-.6 1.7-.9 4.2M883.3 635.8c-2.9 5.3-9.3 16.9-14.3 25.7-7.6 13.5-8.7 16.2-7.5 17.1 1.6 1.2 2 3.4.7 3.4-.4 0-1.3-.5-2-1.2-1.6-1.6-1.6 3.1.3 20.7.8 7.7 1.5 15 1.5 16.2 0 1.9.6 2.3 3 2.3 2.9 0 3.3-.6 8.1-10.8 9-19.1 9.4-20.2 8.1-22.3-1-1.5-.9-1.9.2-1.9 1.8 0 2.1-2.1 4.5-27 1.2-11.3 2.3-23.1 2.6-26.3.3-3.1.5-5.7.3-5.7s-2.7 4.4-5.5 9.8"/><path d="M391.4 632.5c.3 3.3.8 9.1 1.1 13 .3 3.8 1 9.9 1.5 13.5s1.4 10.9 2.1 16.2c.6 5.4 1.5 9.8 2 9.8s.9-.4.9-.9.9-.7 2-.4c2.8.7 2.5 2.1-.5 2.9-1.4.3-2.5 1-2.5 1.5s1.8 5 4.1 10.1c2.2 5.1 5.3 12.1 6.7 15.5l2.7 6.1 10.3.1c9.7 0 10.4-.1 9.9-1.9-.7-2.7 1.7-5.6 5.2-6.3 2.1-.5 3.8-1.9 5.7-4.9l2.7-4.3-10.4-9.7c-11.4-10.7-12.1-10.8-11.2-1.4.3 2.9.1 4.6-.5 4.2-.5-.3-1.5 4-2.2 10.4-1.2 10.1-2.3 14.1-3.3 13-.2-.3.4-7.7 1.4-16.5s1.8-17.5 1.9-19.2c0-3.1-.1-3.2-2.6-2.3-3.2 1.2-7.4 1.3-7.4.1 0-.5 1.2-1.1 2.8-1.4 5.7-1.3 6-2.1 2.6-8.4-4.6-8.6-24.5-43.7-25.1-44.3-.3-.3-.3 2.2.1 5.5M358.1 633.7c0 1.2-.5 2.4-1 2.7s-1.5 3-2.1 5.8c-.7 2.9-2.4 8.6-3.7 12.7l-2.4 7.4 10.3 15.3c5.6 8.4 10.4 15.2 10.5 15 .1-.1-1.1-7.4-2.8-16.2-1.7-8.7-3.5-18.4-4-21.4-2.1-11.9-4.7-23.4-4.8-21.3M436.2 633.7c-2.3 4.5-11.5 38.2-10.7 39.1.3.4 4.5-6.3 4.5-7.2 0-.4-.5-.4-1.2 0s-.8.3-.4-.5c.4-.6 1.1-.9 1.6-.6.9.5 11.6-15.9 13.3-20.6.9-2.2.5-3.3-2.2-7.2-1.8-2.6-3.4-4.7-3.6-4.7s-.8.8-1.3 1.7M839.7 635c-4.8 5.6-4.6 6.4 4.9 22.3 4.9 8 9 14.5 9.2 14.3.6-.7-6.8-28.8-9.1-34.2l-2.4-5.6zM525.5 635.2c-1.1 1.3-1.8 2.7-1.7 3.1.1.5-.2.6-.7.3s-3.2 1.3-6.1 3.6c-4.6 3.7-5 4.3-3.4 5 1.7.8 1.7.8-.2.5-2.4-.5-6.4 2-4.9 3.1 6.3 4.4 18 11.2 19.4 11.2.5 0 4.2 1.5 8.3 3.4 10.4 4.8 10.3 4.7 12.8 2.1l2.3-2.4-2.7-3.1c-1.4-1.7-2.6-3.6-2.6-4 0-.5-2.7-4.8-6-9.5s-6-9-6-9.5-.5-1.2-1.2-1.6-.8-.3-.4.4.2 1.2-.4 1.2c-.7 0-.9-.7-.6-1.6.7-1.8-1-4.4-2.8-4.4-.6 0-2 1-3.1 2.2M749.5 634c-.3.5 0 1 .7 1.1.7 0 .5.4-.5.7-1 .4-2.5 1.9-3.5 3.3-.9 1.4-4.4 6.5-7.7 11.4-10.7 15.6-10.1 14.2-7.3 16.5 1.2 1.1 2.9 1.9 3.6 2 2.5 0 23.2-9.7 31-14.7l6.2-4-5.7-4.9c-8.1-6.9-15-12.4-15.7-12.4-.2 0-.8.4-1.1 1M920.5 636.5c-.8 4.5-5.4 28.2-8.6 44.8-1.2 5.9-2 11-1.7 11.2.2.2 4.8-6.1 10.2-14.2l9.9-14.6-2.7-11.5c-1.4-6.3-3.4-13.3-4.5-15.6l-1.8-4.1zM535.9 637.5c2.9 4 11.1 17 13.6 21.7 1.1 2.1 2.3 3.8 2.7 3.8 1.2 0 2-10.7.9-12.7-.6-1.1-.8-2.3-.5-2.5.2-.3-2.8-2.5-6.8-4.8-4-2.4-8.4-5.2-9.7-6.4l-2.5-2.1zM941.7 649.7l-8.7 14.8.6 9c.4 4.9 1.2 10.6 1.9 12.6.6 2.1 1 5.2.9 7-.6 6.3 1.3.7 5-14.6 7.2-29.9 10.1-43.5 9.3-43.5-.1 0-4.2 6.6-9 14.7M363.1 639.7c.5 2.1 2.1 11 3.5 19.8 1.5 8.8 3 18 3.5 20.5.4 2.5 1.2 6.9 1.7 9.8s1.1 5.5 1.4 5.7c.6.6 14.6-5.4 17.9-7.7 2.4-1.7 2.4-1.8.5-3.3-1.1-.8-1.7-1.5-1.2-1.5.7 0-.9-2.9-11.3-20.5-5.5-9.4-15.6-25.3-16.5-26.3-.2-.1.1 1.4.5 3.5M733 643.5c-6.3 4.1-12.5 7.8-13.7 8.1-1.3.3-2.3 1-2.3 1.6 0 .5.4.6 1 .3.5-.3.8 0 .5.7-.6 1.4 3.9 6.8 5.6 6.8.6 0 .8-.8.5-1.8-1.5-5-1.7-7.2-.8-7.2 1.4 0 2.2 2.5 2.2 6.5 0 5.1 1.5 5 4.6-.2 1.5-2.7 4.4-7.1 6.4-9.8 3.3-4.6 8.2-12.5 7.7-12.5-.1 0-5.4 3.4-11.7 7.5M913.5 642.8c-2.2 3.7-6 9.8-8.6 13.7-5.5 8.5-16.8 27-17.6 29-.3 1 2 2.7 8.4 5.7 4.8 2.3 9.1 4.6 9.5 5.2 1 1.4 1.4-.1 3.7-12.4 1-5.8 3.3-17.7 5-26.5 3.9-20.2 4.1-21.5 3.8-21.5-.1 0-2 3.1-4.2 6.8M329.6 638.5c-.9 2.4-.7 3.2.3 1.6.6-1 1.2-.5 2.4 1.8.8 1.7 1.2 3.1.7 3.1-.4 0-1.1-.7-1.4-1.6-.4-.9-.9-1.4-1.2-1.2-.3.3.4 4.6 1.5 9.4 4.7 20.2 10.4 43.4 10.7 43.2.8-.8 4.2-27.2 3.8-29.5s-13.3-25.4-15.4-27.6c-.4-.5-1-.1-1.4.8M950.2 653.7c-6.9 27.8-8.2 33.6-7.9 33.9s4.2-7.7 9.6-19.7c2.6-5.9 4.5-17.1 3-18-.8-.4-.9-2.7-.4-6.8.4-3.3.5-6.1.3-6.1s-2.3 7.5-4.6 16.7M325 641.3c0 1.4-.5 2.9-1.1 3.3-1.3.7-.7 8.2 1.2 14.7.7 2.7 1.5 3.7 2.4 3.3.8-.3 1.7-.1 2 .4.4.6-.3 1-1.4 1-1.9 0-1.9.4 1.3 6.7 1.8 3.8 4.1 8.7 5.1 11 1.1 2.4 2 4.1 2.2 4 .3-.4-10.7-46-11.3-46.6-.2-.2-.4.7-.4 2.2M447.5 645.5c3.3 14.6 10.5 38.5 11.6 38.5 1 0 13.9-14.7 13.9-15.8 0-1.2-3.2-4.5-12-12.6-3.6-3.3-8.2-7.6-10.3-9.5l-3.8-3.6zM825.9 648.7c-3.5 3.2-9.5 8.8-13.4 12.5-5.8 5.6-6.6 6.8-4.7 6.8 1.2 0 2.2.4 2.2 1 0 .5-.8.6-1.7.3-1-.4 1.3 2.8 5.2 7.1l7 7.8 2.3-5.3c3.6-8.1 10.8-34.6 9.8-35.7-.2-.1-3.2 2.3-6.7 5.5"/><path d="M435.2 662c-9 14.4-10.3 16.8-8.1 15.4.7-.4.6.2-.1 1.7-1.2 2.1-.9 2.6 2.7 5.9 2.3 1.9 7.1 6.2 10.7 9.4 3.7 3.2 6.8 5.7 7 5.5s2.4-3.2 4.8-6.7l4.6-6.3-1.3-4.8c-2.1-8-8.7-29.4-9.9-32.2-1.1-2.6-1.4-2.2-10.4 12.1M830.5 661.6c-2.6 8.2-5.4 17.1-6.2 19.8l-1.4 4.8 4.6 7 4.6 6.9 2.7-2c1.5-1 6.7-5.7 11.7-10.4l9-8.4-8.7-14.4c-4.8-7.9-9.3-15.3-10.1-16.3-1.2-1.7-1.8-.4-6.2 13M490.4 660.7l-12 7.6 8.5 7.7c4.7 4.2 9.5 8.2 10.7 8.8 1.8 1 2 .8 2.2-2.1.2-2.6-.3-3.6-2.5-4.9l-2.8-1.7 3.1-.1h3.1l1.2-8.3c.6-4.5 1.4-9.7 1.8-11.5.3-1.7.1-3.2-.3-3.1-.5 0-6.3 3.4-13 7.6M505.9 655.7c0 1.6-.2 3.7-.4 4.8-1.4 7-3.5 24.8-3 25.3.3.3 2.9-.5 5.8-1.7 7.5-3.3 19.1-7.6 27.4-10.1 4-1.2 7.1-2.6 6.8-3-.2-.4-3.3-1.8-6.7-3-3.5-1.3-6.9-2.8-7.5-3.3-.7-.5-2.1-.6-3-.3-1 .4-1.4.4-1 0 .6-.6-7.5-5.8-15.5-10-2.7-1.4-2.8-1.4-2.9 1.3M680 653.9c-2.1.6-2.8 1.7-4.3 8-1 4-1.6 7.5-1.3 7.8.9.9 4.6-.8 4.6-2.3 0-.8.5-1.4 1-1.4.6 0 1 .5 1 1.1s.8.3 1.7-.7c1.1-1.1 1.8-1.3 2.1-.5.2.6.8 1.1 1.3 1.1.6 0 .8-.4.5-.8-.2-.4 1.1-.6 3-.4s3.4.2 3.4-.1-1.5-2.1-3.2-3.9c-1.8-1.9-4.2-4.6-5.3-6-1.6-2-2.5-2.4-4.5-1.9M776.7 657.3c.2 2.3.9 7.3 1.5 11.2.5 3.8 1.2 8.6 1.5 10.5s.6 3.6.7 3.7 4-3 8.8-6.8 9.2-6.8 9.9-6.7c5.7 1.3-8-8.7-20.8-15.1-2-1-2.1-.9-1.6 3.2M768.7 655.5c-1.5.8-5.3 3-8.5 4.9-4.9 3.1-10.8 5.8-21.2 9.8l-2.5 1 2.5 1.3c1.4.7 6.1 2.2 10.5 3.4s12.4 4 17.8 6.2c5.3 2.1 10 3.9 10.2 3.9.8 0 .6-4.5-.4-7.6-.5-1.6-1.5-7.7-2.2-13.7-.7-6.4-1.6-10.7-2.3-10.7-.6 0-2.3.7-3.9 1.5M708 658.9c-2.5 2-5.8 4.5-7.3 5.6l-2.8 2.1 10.7 2.7c5.9 1.5 10.9 2.5 11.1 2.3.5-.5-5.5-14.8-6.5-15.7-.4-.4-2.7 1-5.2 3M563.3 662.3c-3.9 8-5 11.7-3.2 9.9.7-.6 2.2-1.2 3.3-1.2 1 0 4.2-.6 7-1.4s6.7-1.9 8.6-2.3l3.5-.9-6-4c-10.6-7.2-9.9-7.2-13.2-.1M688.7 669c-2 .4-4 1-4.3 1.3-1.1 1 1.4 6.7 6.1 13.8 2.5 3.8 4.5 7.5 4.5 8.3s.5 1.8 1 2.1c.6.4.8-.6.6-2.7-.3-1.8-1-7.9-1.7-13.6-.6-5.6-1.4-10.1-1.8-10.1-.3.1-2.3.5-4.4.9M585.6 670.7c-.8 2.8-2.8 22.1-2.4 23.2.1.6 2.8-3.2 5.8-8.3 3-5.2 5.6-9.3 5.8-9.1.6.5-6 13.8-8.5 17.3-2.7 3.7-3.2 3.3 7.7 5.7 4.1.9 9.2 2.1 11.3 2.7 2 .6 4 .8 4.3.5 1.4-1.3.7-9.5-1.5-19.2-2-8.7-2.7-10.2-4.9-11.3-3.4-1.6-4.2-1.5-4.2.3 0 2.4-2.8 1.7-3.2-.8-.3-1.9-1-2.2-5-2.5-3.8-.2-4.7 0-5.2 1.5M351.5 675c.4 3 2 10.9 3.5 17.5 1.6 6.6 3.6 15.5 4.5 19.7 1.3 6.2 2 7.8 3.4 7.8s2.5-2.2 4.9-9.7c3.6-11.4 4.2-9.4-8.6-28.3l-8.4-12.5zM468.9 677.1c-7.5 8.4-8.1 9.3-7.3 11.1.4.7 4 4.4 8 8.2l7.3 6.8 10-6.8c5.5-3.8 10.1-7.2 10.1-7.6 0-1.3-19.6-18.8-21.1-18.8-.4 0-3.5 3.2-7 7.1M798.8 673.6c-2.3 2-6.9 6.1-10.2 9.2l-5.9 5.6 3.4 2.9c1.9 1.5 6.5 4.9 10.2 7.5l6.8 4.6 7.6-7.6c7-7 7.5-7.8 6.2-9.5-1.3-1.6-1.2-1.7.4-.4.9.7 1.7 1 1.7.5 0-1.2-13.9-16.4-15-16.4-.4 0-2.8 1.6-5.2 3.6M566.2 673.2c-6.3 1.6-8.2 2.4-7.8 3.5.3.8.2 1.2-.3.9s-1.1.9-1.4 2.7c-.3 1.7-1.3 7.4-2.2 12.5-.9 5.2-1.5 9.5-1.3 9.7.4.4 25-4.4 25.6-5 .7-.7.4-7.1-.7-15.5-.7-4.7-1.2-9.1-1.3-9.8-.2-1.5-.5-1.5-10.6 1M702.3 672.2c-.4.7-1.1 5.3-1.5 10.3-1.1 12.4-1.1 13.6-.1 14.6.9.9 25.3 6.3 25.9 5.7.6-.7-2.7-19.4-4.3-23.5-1.4-3.7-2.1-4.4-5.7-5.4-2.2-.5-5.7-1.4-7.6-2-4.6-1.2-5.7-1.1-6.7.3M919.8 683.7c-11.8 17.7-11.2 16.2-8.9 23 1.1 3.2 2.3 7.3 2.6 9.2 1.1 5.1-1.1 2.9-2.4-2.6-.9-3.5-1.5-4.3-2.2-3.3-.7 1.3-.9 1.3-.9 0-.1-2.5-1.6.8-2.4 5.1-.6 3.2-.4 3.7 1.6 4.3 1.3.3 4.3.6 6.8.6h4.5l3.4-15.3c5.7-25.8 7.1-33 6.7-33.4-.2-.2-4.1 5.4-8.8 12.4M545.4 672.9c-.5.5-5.4 2.3-10.9 4.1-14.6 4.8-30.5 11-30.5 12 0 .4 6 4.7 13.3 9.4 14.5 9.3 15.6 9.7 25.9 7.5 2.9-.6 5.5-1.3 5.7-1.5.2-.1-.6-1.6-1.8-3.2-1.2-1.7-2.1-3.5-2.1-4.1 0-.5-.7-1.4-1.5-1.9-1.3-.7-1.4-1.6-.3-6.3.6-2.9 1.2-5.5 1.2-5.5.1-.1 1.2-.5 2.4-.9l2.4-.7-2.1 2.1c-1.2 1.2-2.1 3.3-2.1 4.8 0 2.7 4.7 14 5.4 13.2.3-.2 1.4-6 2.6-12.8 2.5-14.1 2.2-15-4.2-11.9-4.4 2.1-6 2-6.4-.5-.2-1.3.3-1.6 2.1-1.1 1.3.3 3.1.1 4.1-.4 1.6-.9 1.6-1-.3-2-1.1-.6-2.4-.7-2.9-.3M676.5 673c-.3.5.2 1 1.2 1 1.7.1 1.7.1-.1 1.1-1.3.8-2 .8-2.6 0-1.1-1.9-6 20-5.4 24.1.4 2 1.1 3.5 1.8 3.4.6-.2 2.2-.6 3.6-.9s5.9-1.3 10-2.2 8.1-1.8 8.8-2.1c.9-.3.4-1.5-1.6-4.1-3.1-4-4.9-7.8-3.2-6.8.6.3 1 .2 1-.4 0-.5-.4-1.1-.9-1.3s-2-2.7-3.5-5.6c-1.4-2.8-3.3-5.2-4.1-5.2s-1.5-.5-1.5-1c0-.6-.6-1-1.4-1s-1.8.4-2.1 1M731 674c0 .5 1.1 1.2 2.5 1.6 1.4.3 2.5 1 2.5 1.5 0 1.4-3.3 1.1-5.7-.6-1.5-1.1-2.8-1.2-4.5-.6-1.3.6-1.7 1-1 1 .8.1 2.7 1.4 4.4 3.1 1.6 1.6 3.6 3 4.4 3s1.4.6 1.4 1.2c.1.7.3 2.9.6 4.9.4 2.7-.1 5-2 8.8-1.4 2.8-2.6 5.5-2.6 6 0 1.1 8.6 3.1 13.5 3.1 3.3 0 9.8-3.5 26.9-14.5 4.7-3 5.6-3.9 4.3-4.6-4.4-2.5-33.9-12.5-38.9-13.3-1-.1-2.1-.5-2.4-.9-1.1-1-3.4-.8-3.4.3M930.6 677c-.4 1.9-2.8 12.2-5.3 22.8-2.4 10.7-4.3 19.6-4 19.8 1.1 1.1 4.9-3.9 9.1-11.9 4.4-8.5 4.5-9.1 4-15.5-.3-3.7-1.1-9.4-1.8-12.7-1.3-6-1.3-6-2-2.5M347.2 679.6c-.6 2.8-1.2 8.9-1.3 13.6-.1 8.1 0 8.7 3.9 15.6 2.2 3.9 5 8.1 6.1 9.4l2.1 2.2v-2.2c0-1.2-1.3-7.5-2.9-14-1.6-6.4-3.4-14.7-4-18.4s-1.5-7.8-2-9c-.7-2-1-1.6-1.9 2.8M628 680.6c0 1.4 3.6 3.3 6.3 3.4 1.5 0 2.7.4 2.7 1 0 1.7-4.3 1.1-7.8-1-1.8-1.1-3.4-2-3.6-2-.7 0-1.5 4.5-2.6 15.2l-1.2 10.8 3.6 4.2c2 2.3 3.6 4.5 3.6 5 0 1.8-1.6.6-3.8-2.8-2.8-4.4-3.5-4-2.6 1.5l.7 4.1H639v-40h-5.5c-3 0-5.5.3-5.5.6M641 700v20h15.7l.7-5.1c.4-2.8.5-5.4.2-5.6-.3-.3-2 1.8-3.7 4.6-2.7 4.2-4.9 6.4-4.9 4.7 0-1.3 5.5-9.8 6.8-10.5 1.5-.8 1.5-2.1.5-12.5-.7-6.4-1.7-12.4-2.2-13.3-.6-1-1.1-1.3-1.1-.7 0 1.2-6.9 4.4-9.5 4.4-.8 0-1.5-.5-1.5-1 0-.6.9-1 2-1 2.1 0 8-2.6 8-3.5 0-.3-2.5-.5-5.5-.5H641zM854.5 683.2c-.5.6-5.5 5.2-11 10.3l-9.9 9.2 2.4 3.1c1.4 1.7 4.3 5.6 6.4 8.7l3.9 5.5h6.4c4.9 0 6.5-.4 7-1.6.4-1.2-3.4-35.5-4-36-.1-.1-.6.3-1.2.8M453.7 695.6l-4.8 6.5 3 3.7c5.6 7.1 10.8 11.5 12.4 10.6 2.2-1.4 9.7-10.4 9.7-11.7 0-1.1-8.3-9.6-13.5-13.9-1.9-1.6-2.2-1.4-6.8 4.8M812.5 697c-5.9 6.1-7.5 8.4-6.7 9.2.7.7 1.2.8 1.2.2 0-.5 1.9-1 4.3-1.1l4.2-.1-3 1.2c-1.6.7-3.6 1.1-4.2.8-2.4-.8-1.3 1.1 3.3 5.8l4.7 4.8 5.6-6c3.1-3.3 6.1-7 6.8-8.3 1.2-2.1 1.1-2.2-2.2-1.9-1.9.1-3.7-.2-4.1-.7-.3-.5 0-.9.5-.9 1.7 0 1.3-1.9-.9-4.2-1.1-1.2-2-2.8-2-3.6 0-.7 2.1.8 4.6 3.5l4.6 4.8-3.9-5.7c-2.1-3.2-4.1-5.7-4.4-5.8-.3 0-4.1 3.6-8.4 8M885 694.3c0 2.4-.3 9.2-.7 15.1l-.6 10.7 5.4-.3c5.3-.3 5.4-.3 8.6-5.8 6.4-10.8 7.6-13.9 6-15.5-1.7-1.7-15.8-8.5-17.5-8.5-.7 0-1.2 1.7-1.2 4.3M390 692c-1.3.8-1.3 1 0 1 1.2 0 1.2.2.1 1.2s-1.4 1-1.8 0c-.7-1.7-1.7-1.5-7.9 1.5-4.9 2.4-6.9 4.3-4.4 4.3.5 0 .7.7.4 1.5s.5 3.1 1.7 5.2c1.3 2.1 3.4 5.9 4.6 8.5 2.2 4.8 2.2 4.8 7.3 4.8h5v-14.5c0-13.1-.2-14.5-1.7-14.5-1 0-2.5.5-3.3 1M489.1 698.1c-5.6 3.9-10.1 7.2-9.9 7.4.2.1 3.2 2.6 6.8 5.4s7.1 5.6 7.8 6.2c.8.7 3 .9 5.8.4 5.2-.7 5.2-.5 2.3-14.2-1.1-5.4-2.1-10.4-2.1-11.1-.1-.6-.2-1.2-.3-1.2s-4.8 3.2-10.4 7.1M502 691.2c0 1.2 4.1 20.8 4.5 22.1.5 1.2 1.1 1.4 2.3.7 1-.5 5.4-1.9 10-3.1 4.5-1.2 8.2-2.5 8.2-2.9s-3.5-3-7.7-5.6c-4.3-2.6-9.9-6.3-12.5-8.1-2.7-1.8-4.8-3.2-4.8-3.1M764.3 699.3c-7.3 4.5-13.3 8.4-13.3 8.7s2.8 1.2 6.3 1.9c3.4.8 7.9 2.2 9.9 3.2 2.1 1.1 4.1 1.9 4.6 1.9.9 0 6.6-21.4 6-22.9-.1-.5-6.3 2.8-13.5 7.2M780.6 692.2c-.3.7-1.5 5.8-2.7 11.3s-2.4 10.5-2.6 11.1c-.2.7 1.6 1.7 4.5 2.3l4.9 1.2 8.2-6.1c4.4-3.4 8.1-6.5 8.1-6.8 0-.4-2.1-2-4.8-3.7-2.6-1.6-7.1-4.6-10-6.7-3.6-2.7-5.4-3.5-5.6-2.6M397 707.5V720h6c3.3 0 6-.3 6-.6s-1.2-3.1-2.6-6.2c-6.1-13.4-8.5-18.2-8.9-18.2-.3 0-.5 5.6-.5 12.5M682.5 702.4c-10.5 2.8-12 3.4-11.7 5.1.2 1.1 1 2.4 1.8 2.8s1.4 1.8 1.4 3 .4 2.9 1 3.7c1.7 2.7 5.1-.1 18.9-15.3 2.9-3.2 3.6-3.3-11.4.7M566 702.7c-5.8 1.4-11.1 2.7-11.7 2.9-.9.2-1.3 2.6-1.3 7.2v6.9l5.3-.3c7.2-.5 10.1-2 13-6.3 2.5-3.8 6.7-11.6 6.7-12.6 0-.6.4-.7-12 2.2M589.9 706.9c10.9 12.3 14.4 13.9 15.6 7.3.4-2 1.4-4.5 2.3-5.5 2.8-3.1 1.4-3.7-21.3-8.4-2.9-.6-2.7-.3 3.4 6.6M705 707.9c4.2 8.2 5.8 9.6 9.4 8.6 1.4-.4 1.7-.3.8.3s.1 1.1 3.4 1.6c8.2 1.1 7.9 1.3 8.2-5.8.3-7.4 1.3-6.6-12.7-9.7-4.7-1.1-9.6-2.2-10.9-2.4-2.2-.5-2.1-.2 1.8 7.4M471.7 712c-2.5 2.8-4.4 5.6-4.1 6.4.7 1.8 9.4 2 13 .1 3.8-2 6.5-2 3.8 0-1.7 1.3-1.4 1.4 4 1.5h5.9l-3.8-3c-4.1-3.2-5-3.6-6-2-.8 1.3-2.5 1.3-2.5 0 0-.6.7-1 1.5-1 2.2 0 1.8-1.3-.7-2.9-1.3-.8-3.2-2-4.4-2.8-2-1.2-2.5-1-6.7 3.7M539.5 708.2c-2.2.6-4.2 1.2-4.4 1.4-.3.3 1.3 2.4 4.3 5.4 1.1 1.1 1.5 2 1 2-.6 0-2.7-1.6-4.7-3.6l-3.6-3.6-6.3 2c-3.5 1.1-8.8 2.8-11.9 3.6-3.1.9-5.9 2.3-6.3 3.1-.4 1.2.5 1.5 5.3 1.5 7.4 0 8.8-.5 10.7-4.1.8-1.6 2.1-2.9 3-2.9 1.1 0 1 .6-.7 3-1.3 1.6-2 3.2-1.7 3.5s5.6.4 11.8.3c11.1-.3 11.3-.3 9.5-2.2-1.9-1.8-1.9-1.8.5-1.1 4.8 1.4 4.6 1.8 4.1-7.3-.1-1.8-.6-2.2-3.3-2.1-1.8.1-5.1.6-7.3 1.1M729 712c0 3 .4 5 1.1 5 .6 0 .9.7.5 1.5-.4 1.2.6 1.5 5.8 1.5 6.7 0 7.5-.7 7.6-6.4 0-1.5-.3-1.6-1.5-.6-.8.7-1.5.9-1.5.5s1-1.5 2.2-2.5c2.2-1.7 2.1-1.7-4.3-2.9-10.1-1.7-9.9-1.8-9.9 3.9M799.8 709.3c-3.2 2.7-10.3 7.7-13.2 9.4-1.8 1.1-.4 1.3 8.6 1.3 8 0 11-.4 12.1-1.5.8-.8 1.7-1.2 2-.9.3.4 1.1.3 1.7-.1 1-.6-6.4-10.5-7.8-10.5-.4 0-1.9 1.1-3.4 2.3M746.2 711.2c-.7.7-1.2 3-1.2 5.1v3.9l4.8-.5c2.6-.3 6-.8 7.6-1.2 2.1-.6 2.7-.5 2.2.4-.5.8 1.5 1.1 7.3 1.1 5.2 0 8.1-.4 8.1-1.1 0-.6-.6-.9-1.2-.6-.7.2-2-.1-2.8-.8-1.4-1.2-20.5-7.5-22.7-7.5-.5 0-1.4.5-2.1 1.2"/></svg>