<svg xmlns="http://www.w3.org/2000/svg" width="1706.667" height="960" viewBox="0 0 1280 720"><path d="M0 159.6v159.6l2.8-.7c1.5-.3 3.7-.7 4.9-.7 1.3 0 2.3-.4 2.3-.9s1.1-1.4 2.4-1.9c1.8-.6 2.8-2.1 3.6-5 1.1-3.9 1.2-4.1 4.4-3.6 4.8.8 8.6 2.4 8.6 3.7 0 1.9 6.3-.2 9.8-3.2 2.8-2.5 4.1-2.9 9.2-2.9h6v3.4c0 2.9.5 3.6 2.9 4.4 2.6.9 3.2.7 5.3-1.8 1.8-2.2 4.3-3.3 12.6-5.4 5.7-1.4 11-3.2 11.8-4.1.9-.8 2.5-1.5 3.6-1.5 1.3 0 1.8-.5 1.5-1.4-.7-1.7 4-3.6 8.9-3.6 1.9 0 3.4-.5 3.4-1 0-.6 1.8-1 4-1s4 .4 4 1c0 .5.7 1 1.5 1s1.5-.5 1.5-1c0-.6.9-1 2-1 1.6 0 2-.7 2-3.1 0-2.2.5-3.2 2-3.6 1.1-.3 2-.9 2-1.4s1-.9 2.3-.9c2.2 0 5.7-3 5.7-4.9 0-.5.6-1.2 1.3-1.4q1.5-.6 0-.6c-1.8-.1-1.6-4.1.1-4.1.8 0 2.1-.9 2.8-1.9.8-1.1 3-2.2 5.1-2.6 5.2-1 5-3.5-.3-3.5-3.4 0-4-.3-4-2.1 0-1.6.5-2 1.9-1.6 1.4.3 1.8.1 1.4-.9-.6-1.6-3.3-1.9-3.3-.4 0 .5-.8 1-1.9 1-1.4 0-2.1-1-2.5-3.5-.8-4.1 1.2-11.5 3.1-11.5.7 0 1.2-.6 1.1-1.3-.2-.7 1-1.3 3-1.5 1.7-.2 3.2-.7 3.2-1.2s1.4-1.1 3-1.5c3-.7 3-.7 3-7.5 0-5.9-.2-6.8-2-7.3-1.3-.3-2-1.4-2-3 0-2 .9-3 4.3-4.5 2.3-1.1 5.3-2.3 6.5-2.7 3.7-1.1 10.4.3 13.5 2.8l2.8 2.2-2.1 2.5c-1.4 1.7-3.1 2.4-5.5 2.4-2.7 0-3.5.4-3.5 1.8s.8 1.8 4 1.8c2.9 0 4 .4 4 1.5s1.1 1.5 4.1 1.5c4.3 0 4.2.1 2.3-4.5-.6-1.4 5.1-7.5 7-7.5 1 0 1.6-.9 1.7-2.3.1-2.1.1-2.1.9.3.5 1.5.8 1.9.9.8.1-.9 1-1.9 2-2.3 1-.3 2.1-1.4 2.4-2.4.3-1.2 1.4-1.8 3.6-1.9 2.5-.1 3.1.3 3.2 2.1v2.2l.9-2.3c.5-1.2 1.4-2.2 2-2.2.5 0 1-.7 1-1.5s-.7-1.5-1.5-1.5c-2.9 0-1.4-1.9 4.3-5.4 9.7-6 16.1-10.8 16.8-12.8.3-1 1.4-1.8 2.5-1.8 1 0 1.9-.5 1.9-1 0-.6 1.6-1 3.5-1 2.4 0 3.5-.5 3.5-1.5 0-.9.6-1.2 1.5-.9.9.4 2.9.1 4.6-.6 2.7-1.1 3-1.7 2.8-4.9-.3-6 0-7.1 2.1-7.1 1.1 0 2 .4 2 1 0 2.1 1.9.9 2.8-1.8l1-2.7.1 2.7c.1 1.6.5 2.8 1 2.8.4 0 .6-1.1.3-2.5-.3-2 0-2.5 1.6-2.5 2 0 2.1-.5 1.7-6-.2-3.3 0-6 .5-6s1-1.7 1.2-3.8c.2-2.9.7-3.7 2.3-3.8 4-.2 4.5-.4 4.5-1.9 0-1.8 3.6-2 4.3-.3.3.7.6-.4.6-2.4.1-2-.4-3.9-1.1-4.1q-1.5-.6 0-.6c.6-.1 1.2-1.3 1.2-2.9 0-3.8 1.1-7.3 2-6.7 1 .6 1.6-3.9 2.5-16.8.3-4.8 1.3-12.7 2-17.5 1.7-10.4 1.9-18.2.4-18.2-.5 0-.8-.4-.4-.9.7-1.2-1.5-6.1-2.7-6.1-.5 0-.6-.5-.3-1 .3-.6.1-2.6-.6-4.4-1.4-3.8-.3-6.1 3.6-7.6 2-.9 2-.9 0-1-1.7-.2-1.6-.3.5-.9 1.4-.4 3.1-.3 3.8.2.6.5 1.2.7 1.2.5 0-.6 4-19.7 6.5-31.3.8-3.9 1.9-8.1 2.5-9.5.5-1.4 1.6-5.3 2.3-8.8l1.4-6.2H0zM312.5 3.1c-.4 1.6-.3 3.4.1 4q.6 1.05-.3.6c-1.2-.7-5.6 9-4.7 10.4.3.5.1.9-.4.9-1.3 0-4.2 7.9-3.2 8.5.5.3 1.1-.1 1.4-.7.3-.7.5.1.3 1.8-.2 2.2.1 3 .9 2.7.7-.2 1.5 0 1.9.6.3.6-.2 1.1-1.2 1.1-3.1 0-5 1.7-3.6 3.1 1.8 1.8 5.9-.7 7.4-4.5 3.7-9.4 5.6-17.2 4.8-19.4-1-2.6-.3-4.6 1.2-3.7.5.4.9-1.3.9-3.8 0-4.1-.2-4.5-2.4-4.5-1.9 0-2.6.7-3.1 2.9M324.1 6.4c-3.5 7.2-3.7 8-1.7 7.3 1.6-.6 2.7 5.5 1.4 7.6-.4.6-.8.7-.9.2 0-.6-.5.3-1 1.9-1.9 6.6-.2 4.3 9.6-12.5L337.8 0h-10.7zM340.4 1.7c.3 1-.3 3.1-1.4 4.8s-2 2.3-2 1.5-1 .1-2.2 2-3.5 5.7-5.3 8.5c-4.4 7.1-5.9 10.4-5.2 11.2.4.3.7.1.7-.5 0-.7.4-1.2.9-1.2s.7 1 .3 2.2c-.3 1.3-.1 1.9.5 1.5s1.3-.1 1.6.7c.6 1.6-2.8 1.1-5.1-.7-1.4-1.1-1.3 4.4.8 32.8.6 9.5.7 9.8 2 6.7.7-2 1.6-3 2.2-2.4.5.5-.2 2.7-1.8 5.5-1.4 2.6-2.3 4.7-2.1 4.7.3 0 2-2.5 3.8-5.6q3.15-5.55 2.1-6.3c-.7-.4-.8-1.2-.2-2.1.8-1.2 1-1.1 1 .5 0 1.7.2 1.7 1.4.5.8-.8 3.8-5.9 6.7-11.4l5.2-9.8-.7-21c-.4-11.5-1-21.6-1.3-22.4-.8-2-2.5-1.7-1.9.3M345.7 6.7c.2 3.8.9 7.2 1.4 7.7 1.2 1.3 1.2 6.3-.1 6.8-.6.2-.7 3.4-.3 8.5.3 4.7 1 8 1.5 7.7.6-.4.8-1.5.5-2.5-.3-1.1-.1-1.6.5-1.3.5.3 1.2-.3 1.5-1.5s.9-2.1 1.3-2.1c.5 0 1.8-1.6 3-3.5s2.5-3.5 2.9-3.5c1.5 0-.2 5.1-2.1 6.4-1.4 1-1.6 1.6-.8 2.1.7.5 2.3-.5 3.9-2.2 15.3-17.5 15.1-17.1 14.9-21.6l-.1-4.2-.4 4.2c-.2 2.4-.8 4.3-1.2 4.3-.9 0-.8-2.1.4-8.3l.7-3.7h-28.1zM389 2.1c-12.2 10.1-12 9.9-11.5 13.8.3 2 .9 10.7 1.4 19.4.4 8.6 1.1 16 1.4 16.3.4.4 2.1 0 3.9-.9 1.8-.8 9.4-4.1 16.8-7.2s13.8-6 14.3-6.4c.4-.4-.2-8.5-1.3-18s-2-17.6-2-18.2c0-.5-4.5-.9-10.2-.9-8.9.1-10.6.3-12.8 2.1M414.6 3.2c.3 1.8 1.3 9.6 2.3 17.3l1.7 14 6.9-.3c3.9-.1 11.3-1.1 16.5-2.2 5.2-1 11.6-2.2 14.1-2.5 2.5-.4 5.1-1 5.8-1.4 1.7-1.1 1-8.7-.8-8.3-1.1.2-1.2-1.2-.6-7.7C461.7-1 463.6 0 437 0h-22.9zM463.4 5.2c.3 2.9.9 8.2 1.2 11.8 1.1 11 .9 10.7 10.6 10.3 12.8-.6 19.3-1.4 17.8-2.3-.8-.5.2-1 2.6-1.4 2.2-.3 5.4-.8 7.2-1.1s3.2-.1 3.2.4c0 .6-1.5 1.5-3.2 2-3 .8-2.8.9 2.5 1 3.6.1 5.6-.3 5.2-.9-.3-.6 0-1 .7-1 .8-.1.5-.7-.7-1.6l-2-1.5 2-1.5c1.1-.9 2.7-2.1 3.6-2.7 1.3-1 1.5-2.5 1-8.7l-.6-7.5-25.9-.3-25.8-.2zM517.6 5.2c.3 2.9.9 8.4 1.2 12.3l.7 7 27.8.3c25.9.2 27.7.1 27.8-1.5 0-1.6.2-1.5 1 .2.6 1.4.8-.8.4-6.5-.3-4.7-.5-10.4-.5-12.8V0h-59zM578.5 4.7c.3 2.7.7 7.9 1.1 11.7.3 3.9.9 6.4 1.4 5.6s.9-.9 1.4-.1c.4.6.5 1.5.2 2s1.3 1.1 3.7 1.4c7 1 50.7 4 51.2 3.6.3-.4.7-15.8.6-25.2L638 0h-59.9zM641 14.5V29l9.3-.4c11.7-.6 43.6-2.6 46.2-3 2.5-.4 3.4-4.7 3.4-16.9L700 0h-59zM702.6 5.2c-.3 2.9-.6 8.5-.6 12.5v7.1l7.7.7c4.2.4 10.8.5 14.7.1s7.6-.6 8.1-.5c.6.1 6.6.2 13.5.3l12.5.1.6-4c.4-2.2 1-7.9 1.4-12.8l.8-8.7h-58zM763.5 4.2c-.8 5.7-2.3 21.2-2 21.5.3.5 41.7 2 45.8 1.8 2.1-.1 4-.5 4.3-.8.7-.7 3.3-19.7 3.4-24V0h-50.9zM817.6 2.7c-.3 1.6-1 7.7-1.7 13.7-1.3 12.4-1.5 12 6.5 13 2.8.4 7.4 1.1 10.1 1.6 11.8 2.2 27.5 4.3 28 3.8.7-.7 3.2-17 4.1-27.1l.7-7.7h-47.1zM867.6 2.2c-1.1 5.3-3.8 32-3.3 33.2.6 1.5 22.8 11.6 25.7 11.6 1.1 0 2 .4 2 .9 0 .9 8 4.5 8.6 3.8.2-.1.9-8.8 1.5-19.2l1.2-18.9-7.2-6.8L889 0h-10.5c-10 0-10.5.1-10.9 2.2M906 6.7l.1 6.8 13.5 13.9c7.4 7.7 13.6 13.7 13.8 13.5s.7-8.1 1.1-17.4c.3-9.4.8-18.5 1.2-20.3l.5-3.2H906zM937.9 6.2c0 3.5-.2 8.8-.4 11.8s-.6 10.6-1 16.7L936 46l8.1 13.5c4.7 7.9 8.5 13.2 9.1 12.8.7-.3.8-.1.4.6-.4.6.3 2.8 1.6 4.9l2.3 3.7.2-4.5c.1-2.5.7-12.6 1.4-22.5 1.2-20.5 1.5-19.1-7.4-34.7-3-5.1-6.6-11.7-8.2-14.6-3.9-7.1-5.5-6.9-5.6 1M946.6 6.7c6.2 11.3 7.5 13.3 8.5 12.8.5-.4.7 0 .4.7s.6 3.1 2 5.3l2.4 4 .1-8.3c0-5.1-.4-8.2-1.1-8.2-.5 0-.8-.4-.5-.9s-.1-2.3-1-4-1.4-3.7-1.1-4.4c.2-.6 1.1.3 2.1 2 .9 1.8 1.9 3.3 2.1 3.3.3 0 .5-2 .5-4.5V0h-18.1zM963.7.6c-.4.4-.7 8.3-.7 17.5 0 15.3.2 17.4 2.4 23.1 4.5 11.9 9.9 23.8 10.8 23.8.5 0 .1-1.1-.8-2.5s-1.3-3.2-1-4.1c.4-1-.1-2.5-.9-3.4-1.4-1.6-1.4-1.8-.1-2.3 1.1-.4 2.1.5 3.2 2.8.9 1.9 1.8 3.5 2 3.5s.4-5.1.4-11.4c0-10.9-.1-11.4-2-10.9-1.1.3-2 0-2-.5 0-.6.9-1.6 2-2.2 2.7-1.4 2.5-3.5-1-11.6-1.6-3.8-4.2-10.3-5.8-14.4-2.7-6.9-4.7-9.2-6.5-7.4M990.4 1.7c.3 1 1.9 7.6 3.6 14.8 1.7 7.1 3.5 14.8 4 17s2.3 10.1 3.9 17.5c2.6 12.3 3.2 16.1 4.7 30 .2 2.5.7 5.8.9 7.5 1.9 11.8 3.7 36.7 4.2 56.8.3 13 .8 23.5 1.1 23.2s1.1 0 1.9.6c1.6 1.4 1.7 6.1.2 7.6-1.8 1.8-1.5 17.3.3 17.3.5 0 .3.9-.4 1.9-.9 1.5-.8 2.2.5 3.5.8.9 2 1.6 2.6 1.6 1 0 2.2 3.2 2.6 7.4.1 1.1.3 2.4.4 2.8 0 .5 1 .8 2.2.8 1.1 0 2.7.7 3.5 1.5.9.8 2.4 1.5 3.5 1.5 1.2 0 1.9.7 1.9 1.9 0 2.6 1.9 3.9 6.5 4.3l4 .3-.3 5.2-.4 5.3h7.1c5.6 0 7.1.3 7.1 1.5 0 .8.6 1.5 1.3 1.5.9 0 .9.2 0 .8-1.5.9 0 2.9 4.8 6.1 3.2 2.1 5.7 5.9 6.3 9.4.5 2.8 1.8 5.7 2.5 5.7 1.3 0 5.1 3.6 5.1 4.8 0 .6.9 1.3 1.9 1.7 1.1.3 2.3 1.4 2.6 2.4.3 1.1 2.3 2.3 4.9 3.1 2.8.8 4.8 2.1 5.7 3.6.7 1.3 2 2.4 3 2.4 1.1 0 1.9.9 2.1 2.2.2 1.9 1 2.4 4.1 2.6 2.6.2 3.7.8 3.7 1.9 0 1.4 1.5 1.5 12.9.9 11-.6 13-.4 14.1.9s2.9 1.5 11.2.9c7.3-.5 10.5-.4 12.3.6 1.9 1 3.3 1 6.8 0 4-1.1 5.3-.9 12.2 1.1 4.3 1.3 8 3 8.3 3.7 1.5 3.9 4.9 6 10.7 6.7 3.3.4 6.7.9 7.6 1.1 2.6.7 4.3 5.9 3.5 10.7-1.5 8.8-1.9 8.2 5.7 7.8 4.4-.2 6.7.1 6.7.8 0 .6 1.8 1.1 4 1.1 4.8 0 5.4 1.9.8 2.1-3.2.1-3.2.2.7 1 6.5 1.3 10.5 1.1 10.5-.6 0-.8.5-1.5 1-1.5.6 0 1 .7 1 1.5s.6 1.6 1.3 1.7c2.1.2 5.9.7 15.2 1.8 5 .5 13.6 1.3 19.3 1.6l10.2.7V0h-145.1c-137.7 0-145 .1-144.5 1.7M373.9 15.6c-.2 2.4-.8 4.6-1.5 5.2-.4.4-.4-.1-.1-1.1 1-2.7-.3-1.8-5.6 3.9-4.9 5.3-6.4 8.2-2.5 4.8 2-1.7 1.9-1.6-.2 1.2-1.4 1.7-2.8 2.7-3.1 2.1-1.3-1.8-2.9.4-2.3 3 .5 1.8.4 2.4-.5 1.9-.6-.4-.9-1.3-.5-1.9.3-.7-1.1.6-3.2 2.7-2.7 2.9-3.4 4.1-2.3 4.4 2.1.7 3 2.5 1.6 3.5-.8.6-.4.7 1 .4 1.2-.3 2.4 0 2.6.7.7 1.9 11.6 4.3 11 2.5-.1-.4.6-.5 1.7-.2s1.8 1 1.7 1.6c-.3 1.8 4 2 4.6.3.7-1.7-1.1-34.7-1.8-35.5-.3-.2-.5 0-.6.5M904.7 28.2c-.4 6.2-.7 14.4-.7 18.3.1 6.1.2 6.8 1.4 5.2 1-1.3 1.5-1.5 1.8-.5.4 1.2 9.8-1.5 20.6-5.9 3.2-1.3 3.2-1.4 1.5-3.8-1-1.3-2.6-2.6-3.7-2.9-1-.2-1.5-.9-1.2-1.4s-.6-.7-1.9-.4c-2 .3-2.5 0-2.5-1.7 0-1.5.4-2 1.3-1.5.8.6.8.3-.1-.9-.8-.9-2.2-1.9-3.3-2.2-1-.4-1.9-1.4-1.9-2.4 0-1.5-8.7-11.1-10.1-11.1-.3 0-.9 5.1-1.2 11.2M520.5 31.2c.4 1.8.7 4.9.6 6.8s.6 9.1 1.4 16c.9 6.9 1.6 13.5 1.6 14.7-.1 2.8 1.9 3 2.6.4.6-2.2 3.3-1.7 3.3.5 0 .8.5 1.4 1 1.4.6 0 .9.3.9.7-.4 2.7.3 4.3 2.1 4.3 1.3 0 2 .7 2 2s.7 2 2 2c1.1 0 2-.7 2-1.5 0-.9.9-1.5 2.3-1.4 1.2 0 1.6.3 1 .6-3.2 1.3-.6 1.8 7.7 1.5l9-.4v3.6c0 3.3.2 3.6 2.9 3.6 1.6 0 3.1.5 3.3 1.1 1 3 11.8-1.8 11.8-5.2 0-1.1.2-1.1 1.1.1 1 1.5.9-4.2-.8-34-.3-6.9-.7-13.5-.7-14.7-.1-1.5-.9-2.3-3.1-2.9l-3-.7 3-.7c1.7-.4-7.3-.7-20-.7-13.8 0-21.2.3-18.5.8 3.6.6 2.7.7-4.2.6-4.7-.1-8.4.1-8.2.5s0 .9-.6 1.3c-.5.3-1-.3-1-1.4 0-1.2-.5-2.1-1.1-2.1-.8 0-.9 1.1-.4 3.2M581.7 47c.6 10.2 1.3 21.4 1.4 25l.3 6.5.3-5.8c.2-3.1.7-5.7 1.1-5.7s1.7-.3 2.9-.6c1.7-.5 2.5.1 3.7 2.4.8 1.6 1.2 3.2.9 3.6-.9.9 1.8 5.6 3.2 5.6.9 0 1.1 1.4.7 4.5-.7 6.4.6 7.5 8.6 7.2 4.4-.1 6.7.3 7 1.1.5 1.5 12.2 1.7 12.2.2 0-.6.9-1 2-1s2 .4 2 1c0 .5.9 1 2 1 1.3 0 2-.7 2-2s.7-2 2-2c1.8 0 2-.7 2.2-7.8.2-5.4.4-3.5.8 6.3l.6 14L638 82c.6-27.5.6-48.1 0-48.9-.3-.4-12.2-1.5-26.5-2.5-14.3-.9-27.1-1.8-28.5-1.9l-2.5-.3zM689 29c-4.1.4-15.1 1.2-24.5 1.9-9.3.6-18.5 1.4-20.2 1.7l-3.3.5.4 19c.4 17.8.6 19.2 2.5 21 1.8 1.7 2.1 3.2 2.1 9.3 0 5.6.4 7.5 1.5 8 .8.3 1.5 1.2 1.5 2.1 0 .8.5 1.5 1 1.5.6 0 1-.6 1-1.3 0-.8 2.8-1.3 10-1.5 8.1-.3 10.3 0 11.6 1.2 1.3 1.4 10.8 2.4 16.2 1.7 1.9-.3 1.4 1.7-.5 2.2-1 .3.1.5 2.3.6 3.4.1 4.3-.3 4.7-1.9.3-1.1.1-2-.4-2s-.9.7-.9 1.5-.7 1.5-1.5 1.5-1.5-.9-1.5-2c0-1.5.7-2 2.5-2 2.2 0 2.5-.4 2.5-3.6 0-5.8 1.9-47.4 2.5-54.2.4-4.7.2-6.2-.7-6-.7 0-4.7.4-8.8.8M701.4 30.6c-.3 1.3-.4 3-.1 3.7.3.8.1 6.3-.3 12.3-.5 6-1.1 17.4-1.5 25.4-.5 11.7-.3 14.1.7 12.5 1.2-1.9 1.2-1.9 1.8.5.3 1.4 1.5 2.9 2.7 3.5 2 .9 4 4.5 2.4 4.5-.4 0-1.6.6-2.7 1.4-1.7 1.3-1.3 1.4 4.1 1 3.3-.3 7.6-.9 9.5-1.3l3.5-.9-3.4-.1c-2.9-.1-3.2-.3-2.1-1.6 1-1.2 3.5-1.5 12.9-1.3 6.4.1 12.2-.1 13-.6 1.1-.7 1.3-.5.8.8-.6 1.5-.2 1.6 4.1 1 2.6-.3 4.8-.7 4.9-.8.4-.4 2.2-14.7 2.8-22.6.3-4.1 1.2-13.1 2-20 .7-6.9 1.4-14 1.4-15.8l.1-3.2h-7c-4.2 0-7 .4-7 1 0 .7-.6.7-1.7.2-1-.5-10.5-1.2-21.1-1.5l-19.2-.5zM485.2 30.1c-9.5.4-17.5.9-17.8 1.2-1.1 1.1 1.8 18.2 3.2 19 .8.4 1.4 2.2 1.4 3.8 0 1.7.7 3.7 1.5 4.5 1.3 1.3 1.5 1.3 1.5.1 0-1.7 2.1-2.7 5.6-2.7 1.5 0 2.4.6 2.4 1.6s.8 1.5 2.3 1.4c3.9-.4 4.5-.1 5.1 2.5.4 1.4 1 2.5 1.5 2.5.4 0 2.1 1.8 3.6 4 2.1 3 3.5 4 5.5 4 1.5 0 2.7.6 2.8 1.2 0 .7.2 3 .3 5 .1 2.1.6 3.8 1.1 3.8.4 0 .8-.5.8-1 0-.6.9-1 1.9-1 1.5 0 2.1-1 2.6-4l.7-3.9 2.1 2c1.9 1.7 2.2 1.8 2.5.5.2-.9.8-1.3 1.4-1 .8.5 1-2.5.6-10.2-.6-11.4.5-9.6 1.7 2.9.4 3.7.9 6.6 1.2 6.3.5-.5-1.2-21.2-2.9-34.9l-1.1-8.8-7.1.3c-3.9.2-14.9.6-24.4.9M760.6 32.2c-.3 1.8-1.3 12.8-2.1 24.3-.8 11.6-1.8 24.2-2.2 27.9l-.6 6.9 3.9-.6c2.1-.3 8.4-.9 13.9-1.4 7.6-.5 9.2-.9 6.5-1.4-2.9-.5-2.4-.7 2.7-.8 3.4 0 7-.4 8-.7 1.5-.5 1.5-.4.3.5-1.1.8-.2 1.1 4 1.1 6 0 10-.8 10-2 0-.4-1.9-.6-4.2-.5-2.4.1-3.1 0-1.6-.2 1.8-.3 2.8-1.2 3.3-3.1l.8-2.7.7 2.5c.5 1.4.8 2 .9 1.5.1-.6.6-3.7 1.1-7 1.4-8.4 5-39.1 5-42.5 0-3.7-.2-3.7-28.2-4.5l-21.7-.5zM460.6 31.7c-2.3.4-2.6.7-1.5 1.5 1 .7.3.8-2.3.3-3.3-.5-20.4 1.9-31.2 4.4-2.1.5-4.4.7-5.2.4-1.4-.5-1.5-1 1.1 16.7.8 5.8 1.6 11.7 1.8 13.2.5 4.2 1.7 4.6 1.7.5 0-2.6.4-3.7 1.5-3.7.8 0 1.5.6 1.5 1.4 0 .9.7 1.2 2 .9 1.5-.4 2 0 2 1.6 0 1.8.6 2.1 4 2.1 2.2 0 4-.5 4-1 0-.6 1.9-1.1 4.3-1.2l4.2-.1-4.5-.7-4.5-.7 4.3-.1c2.3-.1 4.2-.7 4.2-1.2 0-.6 1.8-1 4-1 2.9 0 4-.4 4-1.5 0-1.9 7.6-2.1 8.3-.3.2.7.3.5.2-.5-.2-.9 0-1.7.5-1.7 1.4 0 1.7-4.6.3-5.8-.7-.7-1.3-2.3-1.2-3.5 0-2.1.1-2.1 1-.2.6 1.3.7-.4.3-5-.4-3.9-1-7.1-1.3-7.3-.4-.1-.5-2-.3-4.2s.3-3.9.1-3.9c-.2.1-1.7.4-3.3.6M814.6 31.8c-.3.5-1.4 8.9-2.6 18.8-3.5 30.3-3.4 29.8-2.2 29 .8-.5 1.2.4 1.2 2.8 0 2-.5 3.6-1.1 3.6-.5 0-.8-.4-.5-.8.2-.4.1-1.4-.5-2.2-.6-1.1-.9-.8-.9 1.2V87l16.8-.1c9.2-.1 19.4-.5 22.7-.9l6-.7-4.5-.3c-4.4-.3-4.4-.3-.8-.7 4.6-.5 5.6-1.7 6.9-8.7 1.1-6.3 5.7-37 5.5-37.3-.2-.2-15-2.7-29.1-4.9-5.5-.9-11.2-1.4-12.7-1.2-1.5.3-2.5.1-2.2-.4.3-.4.1-.8-.5-.8-.5 0-1.2.4-1.5.8M862.5 44.2c-.3 2.9-1.5 10.9-2.5 17.8-1.1 6.9-2.2 15.2-2.4 18.5-.5 5.8-.5 5.9.8 2.5l1.3-3.5.5 2.7c.3 1.5 0 2.9-.6 3.1-2.6 1 .7 1.7 9.5 2.3 5.2.3 13.2 1.2 17.8 2 10.3 1.7 11.7 1.7 11.9.1 0-.6.4-7.7.8-15.6.5-10.8.4-14.2-.4-13.7s-1.2-.4-1.2-2.9c0-2.9-.5-3.7-2.7-4.6-1.6-.6-3.8-1.2-5-1.2-1.2-.1-1.9-.4-1.7-.6.3-.3-1.2-1.3-3.3-2.3-5.4-2.7-21.2-9.8-21.7-9.8-.2 0-.7 2.4-1.1 5.2M317.7 42c-.3 1.1 0 2 .6 2 .7 0 .2.8-1 1.8-1.2.9-2.4 2.6-2.6 3.7-.1 1.1-.6 2.6-1 3.2-.5.7-.5 1.8-.1 2.5.4.6.3.8-.2.5-1-.5-1.7.8-4.8 8.8-1.4 3.4-1.4 3.7-.1 2.1 1.4-1.9 1.5-1.9 1.3.7-.2 2.1-.6 2.6-2 2.1-1-.3-1.8-.1-1.8.4 0 .6 1.1 1.3 2.4 1.6 2.2.5 2.3.8 1.3 3.1-1 2.1-1.3 2.2-1.9.7s-.7-1.5-.7-.1c-.1 1.4 2.7 4.9 3 3.8 0-.2.2-1.1.4-2.1.2-.9.8-2.4 1.4-3.5 1-1.7 1-1.7 1.1-.1 0 1.4.8 1.8 3.5 1.8 3.3 0 3.5.2 3.6 3.2 0 1.8.3 2.7.6 1.9.3-.7.2-10-.2-20.7-.7-17.8-1.4-22.6-2.8-17.4M410 42.5c-3 1.3-5.4 2.9-5.2 3.6.2.6-.3.9-1.2.6-1.7-.7-12.9 3.7-11.9 4.7.4.4 0 .4-1 0-1.6-.6-2.5 1-.9 1.9.4.2.2.3-.3.1-2.1-.4-4.3 2.3-5.5 6.6-.7 2.5-1.5 3.9-1.7 3.2-.7-2-2.5-1.4-1.8.7.3 1 .6 5.6.7 10.1.1 8.9 1.5 17.1 1.7 9.7.1-3.5 1.3-4.8 2.6-2.7.3.5 1.5 1 2.6 1 1 0 1.9.4 1.9 1 0 .5-.9 1-2 1s-2 .4-2 .9c0 .4 1.8.3 4-.2 2.2-.6 4-1.5 4-1.9s1.4-.8 3-.8c2.3 0 3-.4 3-2 0-1.7.7-2 5-2 3.8 0 5-.4 5-1.5 0-.8.7-1.5 1.6-1.5s1.8-.9 2.1-2 .9-2 1.3-2 1-1.4 1.4-3c.6-3.3 2.2-4 2.9-1.3.6 2.5 0-4.5-1.4-16.5-.7-5.6-1.5-10.2-1.8-10.2-.3.1-3.1 1.2-6.1 2.5M961.7 50.7c-.4 5.4-.9 15.3-1.3 22l-.6 12.1 4.1-.5c3.3-.5 4.1-.3 4.1 1 0 .9-.5 1.9-1 2.2-1.4.9-.1 2.8 1.4 2.2.7-.3 1.9-.1 2.7.4 1.2.8 1.2 1-.1 1.8-1 .7-1.7.6-2.2-.2-.4-.7-.8-.8-.8-.2 0 .5 1 2.3 2.1 4 1.2 1.6 1.9 2.2 1.5 1.2-.3-1 0-1.7.8-1.7s1.7.8 2.2 1.7c.5 1.3 1 .4 1.5-3.2 1.1-7.6 1.1-13.3-.1-11.5-.5.8-1 1-1 .5 0-.6-.4-2.7-.9-4.8-1-4.3.8-4.9 2-.6.4 1.3.7 1.7.8.8.1-1.5-4.6-13.7-11.7-30.2l-2.9-6.8zM919.5 50.6c-6.6 2.4-12.8 4.5-13.7 4.6-1.9.2-1.4 1.8.6 1.8 1.8 0 4.9 4.7 3.7 5.5-.5.3-1.3 0-1.6-.6-.4-.5-1.3-.8-2.1-.5-1.3.5-1.9-.6-1.4-2.9q.15-.9-.9 0c-.6.6-1.2 7.7-1.3 17.5l-.3 16.4 14 4.7c7.7 2.6 14.5 4.8 15.2 4.8.9.1 1.2-6.9 1.3-27.9 0-15.4-.3-27.9-.7-27.9-.5.1-6.2 2.1-12.8 4.5M350.5 50.7l-.8 2.8-.7-2.5c-.5-1.4-.8 7.8-.9 20.4-.1 19.6.1 22.7 1.3 21.7 1.1-1 1.6-.8 2.1.8.5 1.7 1 1.9 3.2 1 1.5-.5 3.3-1.9 4-2.9.8-1.1 2.3-2 3.4-2 1.6 0 1.9-.5 1.4-2-.5-1.4-.2-2 .9-2 1 0 1.6-.9 1.6-2.1 0-1.5.5-1.9 1.5-1.5.8.3 1.6.1 1.6-.4.1-.6.2-1.4.3-1.8.2-1.7 3.5-4.2 4.9-3.6 1 .3 1.4-.3 1.5-2.3 0-1.6.2-3.5.4-4.2.2-.8-.6-1.4-1.9-1.6-3-.2-4.1-1.4-2.3-2.5.9-.6 1.3-2.3 1.2-4.8-.2-3.3.1-4.1 2-4.7 2.2-.7 2.2-.7.3-1.2-1.1-.2-6-1.7-11-3.3-4.9-1.5-10-3.1-11.1-3.4-1.8-.5-2.3-.1-2.9 2.1M936.2 75.5c0 13.7.3 24 .5 22.7.2-1.2 1.1-2.2 1.8-2.2s1.6 1 1.8 2.2l.4 2.3.2-2.3c0-1.3.5-2 1.1-1.7.5.3 2-.1 3.2-.8 1.3-.8 3.6-1.8 5.1-2.1 4.5-1.1 2.8 1.5-2.1 3.3-4.3 1.6-6 3.7-4.2 5.5 1.5 1.5 1.2 3.6-.6 3.6-1 0-1.4.7-1.2 2.2.2 1.6 1 2.3 2.4 2.2 1.3 0 2 .4 1.7 1.2-.8 2-3.2 1-5.8-2.6-1.4-1.9-2.5-3-2.5-2.4 0 1.2 2.8 5.2 6.2 8.9 1.4 1.7 3.6 4.1 4.8 5.5l2.2 2.5-1.9-3c-3.5-5.4-3.7-5.9-2.2-5 2.8 1.8 4.8 3.9 4.3 4.7-1.3 2 1.7.5 3.5-1.8l2-2.5.4 3.8c.2 2.1.4 0 .4-4.7s-.3-11.4-.7-15c-.7-6.1-.7-6.2-.8-1.8-.3 7-1.8 5.9-1.8-1.2.1-4.1.5-6 1.4-6 .6 0 1.2-.7 1.2-1.6 0-.8-.5-1.2-1-.9-.7.4-.9-.2-.5-1.8.7-2.5-.1-4.2-7.8-16.7-2.3-3.9-5.9-9.8-7.9-13.3l-3.8-6.2zM343.9 56.2c0 .7 0 4.5.1 8.3.1 3.9-.3 8.1-.9 9.5-.5 1.4-1 2-1 1.4-.1-1.8-8.1-1.6-8.1.2 0 .8-.4 1.2-1 .9s-1 .4-1 1.7c-.1 2.2-.1 2.2-1.5.4-1.4-1.9-1.5-1.9-1.5.8 0 1.6.5 2.6 1.3 2.5.6-.1 2.3.3 3.7.9s1.9 1.1 1.2 1.1c-.7.1-1.9.7-2.7 1.4-1.1 1.2-.9 1.7 1.5 3 1.5 1 3.3 1.7 4 1.7 1.8 0 4-2.6 4-4.8 0-1.1.3-3.5.8-5.3.6-2.9.8-2.3 1.3 4.1.4 5.1.6 1.7.7-10.8.1-10 0-18.2-.3-18.2s-.5.6-.6 1.2M801.9 90.4c-.2.3-4.7.8-9.9 1.1-5.2.4-9.7.9-9.9 1.1s3.1.4 7.3.4h7.8l-.6 4.2c-1 7.1 1.6 20.3 3.1 16 .3-.6 1.3-1.2 2.4-1.2 2.5 0 2.5-2.7-.1-3.5-1.1-.3-2-1.3-2-2.1 0-1.7 1.6-1.9 2.4-.2.3 1 .9.8 1.9-.5 1.1-1.3 1.3-2.7.6-5.5-.4-2-.5-4.8-.2-6.1.4-1.7.2-2.2-.6-1.7-.6.4-1.1 1.4-1.1 2.2 0 1.3-.2 1.3-1.6-.1-1.8-1.7-1.8-1.7 1.1-3.3 1.1-.6 1.5-1.2.9-1.2s-1.3.2-1.5.4M808.1 93.2c0 1.8.4 5.1.8 7.3l.9 4 .2-5 .3-5 .8 5c.5 2.7 1 5.4 1.1 6 0 .5-.2 2.1-.7 3.4-.6 1.9-.4 2.3.7 1.9.8-.3 2.5 0 3.9.8 1.3.7 1.8 1.3 1.1 1.4-2.6 0 1.6 3 4.2 3 2.4 0 2.6.4 2.6 4v4h8c7.3 0 8-.2 8-2 0-1.3.7-2 2-2s2 .7 2 2c0 1.2.7 2 1.8 2 .9 0 2.3-.9 3-2 1-1.7 1-2-.3-2-2.4 0-1.8-1.9 1-3.2 1.7-.7 2.7-2.2 3.2-4.7l.7-3.6.8 3c.4 1.6.5-1.5.2-7-.8-15.4-.3-14.5-9.3-14.3-4.7.1-6 .3-3.3.5 2.3.2 4.2.8 4.2 1.4 0 .5-.3.9-.7.9-.5.1-3.6.3-7 .5-3.6.3-6.4.1-6.8-.5-.3-.5-3.6-1.1-7.3-1.2-5.9-.2-5.5-.3 3.3-.8 10-.6 9.9-.6-4.7-.8L808 90zM857.2 95.5c0 3.3.4 7.3.8 9l.8 3 .2-3c.1-1.7.4-2.4.7-1.8.2.7 1.3 1.3 2.3 1.3 2.3 0 3.4 4.3 2.5 10.4-.6 3.9-.5 4.5 1.4 5.1 1.2.3 2.1 1.1 2.1 1.6 0 .7 1.7.8 4.8.3 5.5-.8 12.2-.6 13.6.4.6.5 1.7.7 2.4.6.6-.1 2.4-.2 3.8-.3 1.4 0 2.2-.5 1.9-1.1s-.1-1 .4-1c.6 0 1.1-.9 1.1-2 0-2.8 1.5-2.5 2.9.6.6 1.5 1.4 2.4 1.7 2.1.9-.8-1.8-25.1-2.9-26.2-.7-.7-.8-.6-.3.2.5 1-.4 1.3-3.3 1.3-2.2 0-4.6.7-5.5 1.5-.8.8-2.2 1.2-3 .9-.9-.3-1.6-.1-1.6.5s-.4 1.1-.8 1.1-.6-1.6-.4-3.7c.4-3 .2-3.5-1.2-3-.9.4-1.6.3-1.6-.2s-2.9-1.1-6.5-1.5c-3.5-.3-8.2-.9-10.5-1.2-3.8-.6-4-.5-4.1 2.3l-.1 2.8-.8-3c-.6-2.4-.8-1.7-.8 3M760.8 93.7c-3.9.3-4.8.8-4.8 2.3 0 1.7.4 1.8 2.7.9 2-.7 2.8-.6 3.5.3.6 1 .8 1 .8 0 0-.6.5-1.2 1-1.2.6 0 1 .9 1 2s.5 2 1 2c.6 0 1.5 1.1 2 2.4.8 2.1 1.7 2.5 5.6 2.8 4.5.3 7.7 2.8 3.7 2.8-1.4.1-1.3.3.7 1.5 2.9 1.5 3.9.6 3.2-3.1-.3-1.7 0-2.4 1.2-2.4 2.5 0 2-5.4-.8-8.4-2.1-2.4-3-2.6-9.2-2.4-3.8.1-9 .3-11.6.5M902.4 102.8c1.2 14.3 1.9 19.2 2.5 18.8.3-.2.4 3.3.2 7.7-.2 4.5-.1 8 .2 7.7s.7-3.3.8-6.8c.3-7.3 2.5-8.7 3.5-2.2.5 3.3 1 3.9 2.5 3.5 1.1-.4 1.9 0 2.2 1.2.4 1.7.5 1.7.6 0 .1-2.1 1.5-2.2 3.5-.1 1.1 1 3 1.5 5.8 1.3 3.9-.3 5 .4 6.4 3.9.1.1.9-.1 1.8-.4 1.3-.5 1.7-1.5 1.4-3.5-.3-1.5-.1-2.6.4-2.3.4.3.8 2 .9 3.7 0 1.8.3 2.6.6 1.8s-.3-8.2-1.2-16.5c-1-8.3-2-14.5-2.3-13.8-.6 1.8-5.2 1.5-5.2-.4 0-1.1.5-1.4 1.8-.9s1.4.4.5-.6c-.7-.7-3.2-1.2-5.5-1.2-3.2.1-3.7-.1-1.9-.6 2.8-.7 3.6-.4-12.3-5.4l-7.9-2.6zM1264 352c0 1.3-.7 2-2 2-1.1 0-2 .4-2 1 0 .5.9 1 2 1s2-.5 2-1c0-.6.5-1 1-1 .6 0 1 1.3 1 2.9 0 3.3 1.4 4.1 7.1 4.1 2.1 0 3.9.4 3.9.9s.7 1.1 1.5 1.5c1.2.4 1.5-.6 1.5-6.4v-7h-8c-7.3 0-8 .2-8 2M1273 374.6c-4.2 4.1-8.3 5.4-17.4 5.4-5.1 0-7.2-.4-8-1.6-1.4-1.8-4.3-1-5.1 1.6-.5 1.5-1.3 1.7-3.9 1.3-3-.5-3.4-.2-4 2.2s-1.1 2.6-5.4 2.5c-9-.3-11.2 0-11.2 1.4 0 2.7-10.9 5.6-22.5 6-5 .2-10 .8-11.2 1.5-1.2.6-3.3 1.1-4.7 1.1-3.2 0-5.6 1-5.6 2.2 0 .6-1.4 2.3-3.2 4l-3.2 3-15.7-.7c-11.1-.5-15.8-.4-16.3.4-.4.6-3.8 1.1-8.1 1.1-4.1 0-7.7.4-8 1-.3.5-1.9 1-3.6 1-1.6 0-2.9.4-2.9 1 0 .5-.7 1-1.5 1s-1.5.4-1.5 1c0 .5-1.3 1-3 1-1.6 0-3 .4-3 1 0 .5-1.1 1-2.5 1s-2.5.4-2.5 1c0 .5.9 1 2 1 1.3 0 2 .7 2 2 0 1.6-.7 2-3.5 2-1.9 0-3.5.4-3.5 1 0 .5-1.1 1-2.5 1s-2.5.6-2.5 1.3c0 2.1 7.6 3.7 18 3.7 8.7 0 10.7.3 14.8 2.4 5.8 3 8.2 5.8 8.2 9.5 0 4.7 2.2 6.1 9.6 6.1 6.2 0 6.4-.1 6.4-2.5 0-1.9.6-2.5 2.3-2.7 3.9-.2 7.2.3 7.8 1.4.4.6 1.1.8 1.7.4.5-.3 2.1 1.2 3.5 3.3 1.4 2.2 5.1 5.6 8.1 7.8 5.4 3.7 7.1 6.3 4.1 6.3-.8 0-1.5.4-1.5 1 0 .5-1 1-2.2 1.1-10.5.3-19.8 1.2-19.8 1.8 0 .4-1.8 1.4-4 2.1-3.4 1.1-4 1.7-4 4.2 0 2.3.4 2.8 2.5 2.8 2.3 0 2.5.4 2.5 4 0 2.8.4 4 1.4 4s1.6 1.3 1.8 3.7.8 3.7 1.6 3.5c.6-.1 1.2.5 1.2 1.3s.6 1.5 1.4 1.5 1.7.7 2 1.6c.3.8 1 1.3 1.5.9 1-.5 2.4 1.1 2.7 3.2.1.6-1.8 1.4-4.5 1.8-4 .5-6.7.6-16.3.4-1 0-1.8-.4-1.8-1 0-.5-.6-.9-1.3-.9-2 0-1.7-18.8.3-19.4 1.2-.3 1.1-.4-.2-.5-1.1-.1-2.1-1.5-2.8-4-1.2-4.7-1.8-4.9-13.4-4.7-8 .2-9.1.4-10.4 2.4-.8 1.2-1.8 2.2-2.2 2.2s-2.4 1.6-4.3 3.5c-3.1 3.1-3.9 3.4-7.8 3.1-9.4-.8-24.9-3.6-26.8-4.7-1.5-1-3.5-.9-9.5.4-7.4 1.6-7.8 1.6-11.4-.2-3.1-1.5-5.3-1.8-13.2-1.4-5.2.3-9.9.9-10.4 1.4-.6.5-2.6.9-4.6.9s-3.9.2-4.2.5-.2 2.6.3 5.3c.4 2.6.3 4.8-.2 5s-.9 1-.9 1.7-.5 1.5-1 1.7c-.6.2-1.4 2.7-1.9 5.6-.4 2.9-1.5 6-2.3 7-.9.9-1.8 2.8-2.1 4.2-1.7 7.4-2.9 10.8-6.3 17.8-4.3 8.6-10 15.4-14.3 17.2-2.1.8-3 2-3.4 4.3-6.1 35-10 58.6-10.8 64.2-1.4 10.3-1.6 11.2-3.9 21.5-6.3 28.3-17 65.3-23.1 80.3-1.6 4-2.9 7.5-2.9 7.9 0 .5 75.4.8 167.5.8H1280V545.5c0-165.5-.1-174.5-1.7-174.4-1 0-3.4 1.6-5.3 3.5m-61.7 101.6c2.4 1.3 7.9 2.5 17.7 3.8 13.9 2 14.9 2.2 17.1 4.6 1.2 1.3 3 2.4 3.8 2.5 2.1.1 10 3.7 8.3 3.8-.9.1-1 .6-.2 2 1.2 2.4.5 2.9-5.3 3.7-2.9.4-6.5.1-9.9-.9-2.9-.9-7.7-1.8-10.5-2.1-8.7-.8-16.3-5.2-16.3-9.5 0-2.1-1.8-3.1-5.7-3.1-2.6 0-5.2-2.4-5.3-4.8 0-1.5 3.5-1.6 6.3 0m-4.9 206.5c1.7 5.1 3.3 9.3 3.6 9.3s2-4.3 3.9-9.5c2.6-7.5 3.7-9.5 5.2-9.5 1 0 1.9.3 1.9.7 0 .5-2 6.2-4.4 12.8-3.5 9.7-4.8 12.1-6.5 12.3-1.2.2-2.1.2-2.1 0s-2-6.1-4.5-13.1c-4.3-12.3-4.4-12.8-2.3-12.5 1.8.2 2.7 2 5.2 9.5m29.7.2c1.6 1.6 2.9 3.9 2.9 5 0 1.9-.6 2.1-7 2.1-6.3 0-7 .2-7 2 0 3.5 5.9 5.3 8.9 2.6 1.2-1.1 2.1-1.2 3.1-.5 1.3.8 1.1 1.3-.9 2.9-4.1 3.5-11.8 2-14-2.7-3-6.5 1.3-14.3 7.9-14.3 2.2 0 4.1.9 6.1 2.9m22.3-.3c2 2.1 2.6 3.7 2.6 7.1 0 5.9-3.2 9.3-9 9.3-5.7 0-9-3.4-9-9.2 0-2.4.6-5 1.3-5.9 3.6-4.6 10.1-5.2 14.1-1.3M.6 380.8c-.4.3-.6 76.7-.6 169.9V720h334.7l-3.5-9.7c-14.9-42.3-22.1-71.6-28.7-115.8-3.6-24.6-6.3-39.7-7.2-40.5-.3-.3-.4 1-.1 2.7.4 3.2.4 3.2-1.4 1.6-1.6-1.5-1.9-2.9-1.6-9 .3-6.8-.5-9.3-1.8-5.8-.9 2.3-4.4-.1-4.4-3 0-1.3-.4-2.7-1-3-.5-.3-1-.1-1 .5s-1.1.5-3-.5c-4-2.1-5.4-1.9-8.1 1-1.8 1.8-3.4 2.5-6.5 2.5-3 0-4.8.7-6.8 2.5-2.1 2-3.8 2.5-7.7 2.5-3 0-4.9-.4-4.9-1.1s-1.1-2.2-2.4-3.4-2.5-2.6-2.7-3.1c-.6-1.4-12.4-8.4-14.2-8.4-.8 0-2-.7-2.7-1.6-1.1-1.3-1-1.8.7-3.5 1.6-1.6 4-2.2 11.2-2.8 5-.5 9.4-1.1 9.7-1.4 1-.9-7.1-8.7-8.9-8.7-1.5 0-1.7-1.3-1.7-9 0-8.3.1-9 2-9 1.6 0 2-.7 2-3v-3h-7.6c-7.8 0-10.4-1.1-10.4-4.4 0-.9-.7-1.6-1.6-1.6-2 0-4.4-2.4-4.4-4.4 0-.9-.4-1.6-1-1.6-.5 0-1 .4-1 .9 0 1.9-4 2.1-11 .5-4-.9-6.8-1.9-6.3-2.3.5-.3 1.5-2.1 2.2-3.9.8-1.7 1.7-3.2 2.2-3.2s.9-.9.9-2-.4-2-1-2c-.5 0-1-.9-1-2 0-1.6-.7-2-3-2-2.2 0-3 .5-3 1.7 0 1.5-.2 1.6-1 .3-.5-.8-1-2.5-1-3.8 0-1.5-.6-2.2-2-2.2-1.1 0-2-.5-2-1 0-.6-1.1-1-2.5-1s-2.5-.5-2.5-1c0-1.5-3-1.2-3.1.2-.2 2.9-1.7-4.1-1.8-8.5-.1-2.6-.5-4.7-1.1-4.7-.5 0-1-.8-1-1.8s-.9-2.4-2-3.2c-1.2-.8-2-2.6-2-4.2 0-2.1-.5-2.8-1.9-2.8-1 0-2.1-.7-2.5-1.5-.3-.9-1.9-1.5-4.1-1.5-1.9 0-3.5-.4-3.5-1 0-.5-1.1-2.1-2.5-3.5-2.3-2.2-3.4-2.5-10-2.5-4.3 0-7.5-.4-7.5-1s-.9-1-2-1-2 .4-2 1c0 .5-.9 1-2 1s-2-.4-2-.9-1-1.1-2.2-1.3c-1.9-.2-2.3-1-2.4-3.8-.2-5.5-.2-5.5-3.7-9.3-3.8-4.1-11.8-6.3-19.1-5.2-5.3.8-11.6-.3-9.5-1.6 1.1-.7.9-.9-.8-.9-1.2 0-2.5-.5-2.8-1-.4-.6-2.1-.8-4-.4-2.5.4-3.9.2-5-1-1-.9-3.3-1.6-5.6-1.6-2.2 0-4.9-.6-6-1.3-1.7-1-2.3-1-2.6 0-.6 1.5-4.3 1.7-4.3.3 0-.6-1.8-1-4-1s-4 .5-4 1.1c0 1.2-7.7.3-9.5-1.1-.5-.4-5-1-10-1.4-4.9-.3-10.1-.8-11.5-1-10.1-1.7-14.4-2.7-15.6-3.7-1.6-1.3-8.1-2.9-8.8-2.1M908 524c0 2.5-.4 2.9-4 3.5-2.2.4-4 1.1-4 1.6s-.9.9-1.9.9c-1.1 0-2.2.6-2.4 1.2-.4 1-.8.9-1.6-.2-.7-1.1-.9-.1-.6 3.5 1.2 13 2.9 25.3 3.5 25 .4-.3 1.5.4 2.4 1.4 1.1 1.3 1.4 2.1.7 2.6-.6.3-1.1 1.3-1.1 2.2s1.8-.2 5.1-3.1c2.8-2.5 5.6-4.6 6.1-4.6.6 0 .7-.7.4-1.6s-.2-1.2.4-.9c1.4.9 9.2-5.4 8.4-6.7-.4-.6-.2-.8.4-.4.6.3 2.3-.6 3.9-2 1.5-1.5 2.2-2.4 1.4-1.9-1 .5-1.2.4-.7-.4.4-.6 1.2-.9 1.7-.5 1.1.7 10.9-7.3 10.9-8.9 0-.6-.7-.2-1.5.9-1.5 1.9-1.5 1.9-3 0-.8-1.1-1.5-2.7-1.5-3.6s-.5-2.1-1-2.6c-.8-.8-.6-1.5.5-2.4 1.4-1.2 1.1-1.5-2.2-2.6-6-2.1-8.3-1.8-8.3 1.1 0 2.6-1.3 3.1-5.7 1.9-1.5-.4-2.3-1.4-2.3-2.9 0-1.4-.7-2.5-2-2.8-1.7-.4-2 0-2 2.3M965.1 527.9c-5.5 6.4-5.7 6.7-3.8 7.4.6.2.2.2-1 0-1.3-.2-2.3 0-2.3.4 0 .5-1.8 3-4 5.7-4.4 5.3-5 6.8-2.2 6 1.4-.5 1.4-.3-.2 1-1.4 1.1-2.2 1.3-2.7.5-1.1-1.8-6.2 6.6-5.4 9 .3 1 2.4 3.9 4.5 6.3 2.2 2.4 4 4.9 4 5.5 0 .7.7 1.3 1.5 1.3.9 0 2.1 1.1 2.7 2.5l1.1 2.5 1.8-4c1.6-3.5 4.9-15.1 4.9-16.8 0-.4-.5 0-1 .8-.8 1.2-1 1-1-.9 0-2-.2-2.1-1.5-1.1s-1.5.9-1.5-.9c0-1.4.6-2.1 1.9-2.1 1.1 0 2.2-.6 2.4-1.3.3-.6.6.1.7 1.8.1 2.1 1 0 2.9-6.5 1.5-5.2 3-11.1 3.4-13l.6-3.5-1.3 2.9c-.7 1.6-1.6 2.4-1.9 1.9-1.1-1.7.1-7.4 1.9-9.4.9-1 1.5-1.9 1.2-1.9-.4 0-2.9 2.6-5.7 5.9M856.1 536c3.4 2.7 6.6 4.7 7.2 4.3.6-.3.7-.1.3.5-.3.6 2.9 3.8 7.7 7.6 4.6 3.6 9 7.2 9.7 8.1 1.6 2 3.4 1.9 2.6-.1-.3-.9-.2-1.2.5-.9.6.4.8 1.3.5 2-.4 1.1 2.1 3.4 9 8.7.8.5.8-.6.3-4-.5-2.6-1.4-8.4-2-12.9s-1.4-8.1-1.8-8c-1.3.4-7.1-4.8-6.7-5.9.3-.9-1.6-1.2-6.7-1.3h-9.6c-1.4-.1-2.8.4-3.2 1.1-.4.6-1.4.8-2.3.5-.9-.4-1.6-.2-1.6.3 0 .6-.4 1-1 1-.5 0-.7-.7-.4-1.5q.6-1.5-1.2-1.5c-1.1 0-2.8-.7-3.8-1.5-1.1-.8-2.4-1.5-2.9-1.5-.4 0 2 2.2 5.4 5M854.9 539.4c1.8 2.2.6 3.1-5.2 4-2.2.4-4.5 1-5.1 1.4-.6.3-1.9.8-3 .9-1.4.3-1.7-.1-1.3-1.7.3-1.1.1-2-.4-2-.9 0-1.3 2.2-1 5.5.4 3.8-.9 6.5-2.9 6.5-1.1 0-2-.5-2-1.1 0-.5.4-.8.8-.5s1.3-.8 1.9-2.5c1.8-4.6-.2-3.4-2.9 1.8-1.4 2.7-4.4 8.1-6.7 12.2-2.2 4-3.8 7.8-3.4 8.4.3.5.1.7-.4.4-1.4-.9-5.6 6.1-4.9 8 .3.8.2 1.1-.4.8-.5-.3-1.4.3-1.9 1.4-.9 1.6 0 3.8 5.5 12.8 11.6 19 20.7 32.4 21.8 32 1-.3 21.6-22.8 34.6-37.7 3-3.5 7.2-8.2 9.2-10.4 2.1-2.3 3.7-4.6 3.7-5.1 0-.6-1.1.2-2.4 1.7-1.3 1.6-2.7 2.8-3.1 2.8s.5-1.3 2.1-3c1.5-1.6 3.1-2.9 3.4-2.8 1.9.2 2.1-.4.5-1.9-1.1-1.2-1.3-1.8-.5-2.1 2.4-.8-2-4.2-4.8-3.7-1.8.4-2.1.3-.8-.3 1.5-.6.8-1.6-4.9-6.2-11.6-9.5-13.7-11-14.7-10.3-.6.3-.7.2-.4-.4.4-.6-2.2-3.2-5.6-5.8-3.4-2.7-5.6-4.1-4.8-3.1M932.5 543.1c-2.7 2.2-6.2 5.4-7.7 7.1-1.6 1.7-2.8 2.7-2.8 2.3 0-.3-1.7.6-3.8 2.2-6.9 5-11.3 9.3-10.7 10.3.3.5 0 .8-.7.5-.7-.2-3 1.1-5.1 2.9l-3.8 3.4-1.9 19.3c-1.1 10.7-2.1 20.4-2.3 21.6s-.1 2.1.2 1.8c1.7-1 41.1-53.6 41.1-54.8 0-.4-.4-.5-1-.2-.6.4-.7-.1-.3-1.1.4-1.1.8-1.3 1.1-.6.8 2.6 1.9 0 1.7-4-.1-2.4 0-3.1.2-1.6.7 4.6 2.1 3.1 1.8-2-.5-8.9-.5-9-1.6-6.4-.5 1.3-.7 2.8-.3 3.3.3.5.1.9-.4.9-2.1 0-2.1-4.5 0-6.7 3.1-3.3 2-2.8-3.7 1.8M807.2 545.2c-1.3 1.3-1.7 10.8-.4 10.8 1.5 0 3.2 4.9 3.2 8.8 0 2.1.4 4.2.9 4.7 1.3 1.3 2 10.5.9 10.5-.5 0-.6.5-.3 1 .4.6 1.5.1 2.6-1.4 2.1-2.6 2.5-4.1.9-3.1-.5.3-1-.1-1-.9 0-.9.6-1.3 1.5-1 1.1.5 1.3-.1 1-2.5-.2-1.7 0-3.3.5-3.6s.7-1.8.4-3.3c-.3-1.8-.1-2.2.4-1.4s1.3 1.4 1.8 1.5.8.8.6 1.4c-.6 2.5.7 1.2 4.2-4.4 3.4-5.4 4.2-8.8 1.1-4.7-1.3 1.7-1.4 1.7-1.5.1 0-1.8-4-2.5-4-.7 0 1.4-2.7 1.2-3.2-.3-.3-.6-.6-3.2-.7-5.6s-.8-5-1.6-5.7c-1.7-1.7-5.7-1.8-7.3-.2M778.3 552.6c3.2 3.5 3.4 4.4.9 3.7-1-.2-2.5.3-3.3 1.3-1.3 1.6-1.1 1.7 3.4 1.2 3.7-.4 4.9-.2 5.6 1.1.8 1.3.4 1.6-2.5 1.5-1.9-.1-3.7-.4-4-.7s-3 .8-6.1 2.4c-3 1.6-6.3 2.9-7.4 2.9-1 0-2.3.9-2.9 2.1-.9 1.6-.6 2.9 1.6 6.6 2 3.5 2.9 4.2 3.6 3.2.8-1.1.8-1 .4.4-.8 2.4 3.4 9.4 9.7 16.3 4.4 4.9 22 20.4 23.1 20.4 1.2 0 1.3-4.8.1-9.3-.8-3-1-5.6-.5-6.1s1.4 1.2 2.1 4l1.3 4.9 3.7-11.5c4.3-13 4.6-14.5 2.3-13.6-.8.3-1.3.2-1-.3.5-.8-2.3-3.9-3.1-3.4-.1.2-.3 0-.3-.5-.1-1.5-9.4-10.1-10.3-9.5-.6.3-.7.2-.4-.4.3-.5-3.8-5.2-9.1-10.4s-8.4-8-6.9-6.3M934.7 565.2c-1.5 2.1-2.4 4.4-2.1 5 .4.6.3.8-.3.5-1-.7-7.3 6.4-7.3 8.2 0 .5-.4 1.1-.9 1.3-1.1.3-13.4 16.1-24.3 31.1-4.5 6.2-7.2 11-7.4 13-.2 1.8-1.5 14.9-2.9 29.2s-2.8 27-3 28.2c-.8 3.5 0 2.8 3.4-3 1.8-2.8 4.8-7.9 6.9-11.3 15.3-25 24.2-40.2 24.2-41.3 0-.7 1.2-5.3 2.6-10.4 3.4-11.7 14.3-54.1 14.1-54.3-.1-.1-1.4 1.6-3 3.8M343.4 564.6c.3 1.1 1.2 4.6 2 7.9 3.2 13.1 4.9 18.5 5.5 18.1.3-.2.6 1 .7 2.7 0 4.1 7.7 33.2 9.8 37.3.9 1.8 2.3 3.7 3.1 4.4s1.5 1.7 1.5 2.3 1.3 3.1 2.8 5.6c1.6 2.5 7.8 12.8 13.8 22.8s10.9 18.1 11.1 18c.1-.1-.2-3.6-.8-7.7-.5-4.1-2-18-3.4-30.9-2.1-19.6-2.9-24-4.8-27-4-6.5-16.9-23.1-17.6-22.6-.4.2-.8-.2-.8-.9s-1.9-3.8-4.3-6.9c-3.6-4.6-4.7-5.4-6.2-4.6-1.4.7-1.8.6-1.8-.6 0-.8-.4-1.5-1-1.5-.5 0-.7-1.2-.5-2.8.4-2-.2-3.6-2.5-6.2-1.7-1.9-2.7-2.6-2.1-1.4.5 1.1.6 2.6.2 3.2-.8 1.3-3.1-4.9-3.1-8.1 0-.9-.5-1.9-1.1-2.3-.7-.4-.9 0-.5 1.2M938.2 570.8c-1.2 4.2-3.2 12-4.6 17.2-1.3 5.2-3.7 13.9-5.1 19.3-1.5 5.4-2.8 10.6-3 11.5s-.7 2.6-1.1 3.7c-.4 1.3-.4 1.6.3 1 3.4-3.5 26.7-34.5 30.5-40.5 1.9-3 1-6-2.3-7.8-1.3-.7-3.9-3.9-5.8-7s-3.7-5-3.9-4.4c-.3.9-.8 1-1.6.2-1-.7-1.8.8-3.4 6.8M358 565.2c-1.4.6-3.2 1-4.1.9-3.1-.4-2.8 2.7.7 6.6 2 2.1 3.2 3.1 2.8 2.3s-1.6-2.5-2.7-3.8c-1.1-1.2-1.8-2.2-1.4-2.2 1.2 0 5.9 5.3 6.8 7.8.9 2.3.8 2.4-.8 1.1-1.5-1.2-1.6-1.2-.8.1 1.5 2.7 3.8 5 4.5 4.5.4-.3 1.4.3 2.1 1.3q1.95 2.25-.3.3c-2.2-1.7-2.3-.8-.2 2.4.9 1.4 2.1 2.2 2.7 1.8.5-.3.7-.1.3.5-.3.6 2.9 5.6 7.1 11.2 4.3 5.6 8.6 11.3 9.6 12.8l1.9 2.7-.6-5c-.4-2.8-1.1-9.3-1.7-14.5s-1.4-11.8-1.8-14.5l-.8-5-.3 6-.4 6-.3-4.9c-.4-4.9-2.8-10-4.3-9.1-.5.3-1.5-.2-2.4-1.1-.9-.8-2.6-1.4-3.8-1.2-2.9.4-6.1-2.4-5.2-4.5.4-1.2.1-1.7-1-1.7-.9 0-1.6-.5-1.6-1 0-1.2-.8-1.2-4 .2M614.5 571.1c-2.2.4-5.6.8-7.6.8l-3.6.1-.7 7.2c-.3 3.9-.9 8.2-1.3 9.6-.4 1.8-.2 2.3.8 2 1.7-.6 3.4 1 4.3 4 .4 1.2 1.3 2.2 2.1 2.2.7 0 1.5.3 1.7.7.4 1.1 8.5 6.3 9.6 6.3 1.3 0 2-7 1.9-19.2 0-5.7-.2-8.7-.4-6.8-.5 4-2.3 6.6-2.3 3.3 0-1.2-.5-2.5-1.1-2.8-1.2-.8-.9-5.4.4-7.3.5-.6.8-1.1.6-1.1-.2.1-2.2.5-4.4 1M671.9 571.7l4.4.4-3.1 2.9c-1.8 1.6-3.2 3.8-3.2 4.9s-1.3 2.7-3 3.8c-3 1.7-3 1.8-3 10.3 0 4.7.4 8 .8 7.4s1.6-1.4 2.7-1.8 1.6-.4 1.2 0c-1 1.1 3.6 3.1 6.4 2.8 1.3-.1 2.7-.3 3.2-.3 1.2-.2.8-1.9-.9-3.5-1.1-1.2-2-1.3-3.4-.6-1.6.9-1.8.8-1.3-.7.4-.9 1.6-2.8 2.7-4.1 1.8-2 2.1-3.7 2.1-12.3V571l-5 .2-5 .1zM400.7 572.6c-.4.4-.1 1.4.6 2.3 1.1 1.4 1 1.4-.6.2-.9-.8-2.1-1-2.5-.6s-.1 1 .6 1.2c.6.3 1.2 1.1 1.2 1.9 0 .9-.4 1.2-1 .9-.5-.3-1 .1-1 .9 0 1.9-2.6 2.2-3.2.4-.3-.8-.7-.8-1.1-.2-.8 1.3 6.1 9.4 8 9.4.8 0 1.2.4.9.8-.6 1 3.9 5.3 4.7 4.6.3-.3.4.3.4 1.3-.2 1.3.4 1.7 1.8 1.5 1.2-.2 1.6 0 .9.5-1.6 1.1 5 8.8 6.7 7.7.8-.5 1-.3.4.5-.9 1.5 3.3 6.3 4.8 5.4.6-.3.7-.2.4.4-.8 1.3 4.7 6.6 5.8 5.6.4-.5.5-.2 0 .5-1 1.9 5.2 8.2 7.4 7.5 1.2-.4 1.3-.3.2.5-1 .7-1 1.1-.1 1.7 1.4.8 2.4-.4 9-11 2.8-4.4 7.3-11.4 10-15.5 6.9-10.5 8.7-13.9 6.8-12.2-1.3 1-1.7 1-2.2-.3-.3-.8-.1-1.5.4-1.5.6 0 .9-1.2.9-2.8-.1-1.6-.3-2-.6-1-.5 1.9-4.7 2.4-7.2.9-1.1-.7-1-1.1.7-2 2.6-1.4 1.9-4.7-1.1-5.3-1.2-.2-6.2-.5-11.2-.7-4.9-.1-9.1-.7-9.3-1.2s-3.9-.9-8.3-.9c-7.2 0-7.9.2-7.9 2 0 2.4-.6 2.5-2.6.6-1.1-1.1-1.1-1.6-.1-1.9.6-.3-1.6-.6-5-.6-3.4-.1-6.3-.6-6.5-1.2-.2-.5-.7-.7-1.1-.3M332.8 573.7c-.9.2-2 1.3-2.3 2.4-.4 1.1-1.1 1.6-1.7 1.3q-1.2-.75-.3 1.2c.4 1 1 3.2 1.2 4.9.5 2.9.5 2.9-1.1 1-.9-1.2-1.5-1.5-1.6-.7 0 2.5 5.2 8.3 6.9 7.7 1.2-.4 1.7.1 1.8 1.8 0 1.2-.1 1.6-.4.9-.3-.6-.9-1.2-1.4-1.2s-.4.9.3 1.9c.6 1 1.8 1.7 2.5 1.4.8-.3 1.1 0 .8.8s1.2 3.7 3.2 6.5c7.1 9.5 14.7 19.3 14.9 19.1s-3.9-15.8-10.2-38.5c-.9-3.1-1.8-6.7-2.1-8-.8-3.4-2-2.6-1.6 1l.3 3.3-1.1-3c-.7-1.7-1.2-3.1-1.3-3.2-.4-.5-5.4-1-6.8-.6M653 574.1c0 .5-.4.7-1 .4-.5-.3-1-.2-1 .3 0 .6-1.1 1.3-2.5 1.6-1.4.4-2.5 1.1-2.5 1.6 0 .6-.9 1-2 1-1.9 0-2 .6-1.9 11.7 0 6.5.4 12.7.9 13.8.7 1.7.9 1.6.9-1 .1-2.1.4-2.6 1-1.6 1 1.5 3.4.5 8.3-3.3 1.4-1.2 3.8-3 5.2-4.1 2.6-2 2.6-2.2 2-10.8-.7-8.2-.8-8.6-2.4-7.2s-1.8 1.4-2.4 0c-.3-.9-.4-2.1 0-2.6.3-.5-.2-.9-1-.9-.9 0-1.6.5-1.6 1.1M512.4 576.8c.4 1.2.3 2.2-.2 2.2s-1.4 1-2 2.2c-.9 1.9-1.1 2-1.1.5-.1-1-.5-1.5-1.1-1.2-.5.3-1-.1-1-.9 0-.9-.5-1.6-1.1-1.6-2.4 0-4.9 2.2-4.9 4.3 0 1.3-.3 1.7-.8 1.1-.4-.6-2-1.4-3.5-1.8-2-.5-2.7-1.1-2.3-2.1.4-1.1-.3-1.5-2.7-1.5-1.8 0-4.2-.3-5.4-.6-2-.5-2.3-.2-2.3 2 0 1.4-.6 2.6-1.2 2.6-1.7.1-6.8 10.9-6.8 14.4 0 1.6-.4 2.5-1 2.1-1.4-.9-.3 3.6 2.1 9 1 2.2 1.9 4.8 1.9 5.7 0 2.5.6 2.3 6.3-2.5 2.9-2.3 6.3-5.1 7.6-6.2 5.4-4.4 13.1-13.1 12.6-14.3-.3-.7-.1-1.1.4-.7.5.3 2.4-1.9 4.3-4.7 1.8-2.9 3.6-5.8 4-6.4.4-.7 0-1.8-.9-2.5-1.4-1.2-1.5-1.1-.9.9M891.3 578.7c-1.7 2.1-4.1 5-5.4 6.4s-3.9 4.3-5.8 6.5c-1.9 2.1-7.7 8.6-13 14.4-5.3 5.7-12.1 13.1-15.1 16.4s-6.1 6.7-6.8 7.4c-.8.9-.9 1.8-.4 2.6 2.4 2.9 7.6 21 11.5 39.8.6 3.2 1.4 5.8 1.7 5.8s2.3-3.3 4.4-7.3c2.2-3.9 7.2-13.1 11.2-20.2 17.3-31.2 17-30.4 19.4-54.5 1.8-18.7 2-21 1.7-21-.1 0-1.7 1.7-3.4 3.7M625.1 581.1c0 3.1-.4 8.4-.7 11.8-.5 4.6-.4 6.1.6 6.1.7 0 1.8.7 2.5 1.7 1.5 2 11.5 3.5 12.1 1.8.3-.6.3-5.8.2-11.5l-.3-10.4-3.4-2.3c-2.7-1.8-3.6-2-4.3-1.1-.6 1-.8 1-.8 0 0-.6-.7-1.2-1.5-1.2s-1.5.7-1.5 1.5c0 2.1-1.8 1.9-2.3-.3-.3-.9-.5.8-.6 3.9M386 587.2c0 8.8 2.9 30.8 4.5 33.8 1.7 3.3 3.5 4.7 3.5 2.8 0-.9.3-.9 1 .2 1.3 2 1.3 4.3 0 3.5-.6-.4-.7.1-.3 1.2.7 1.9 20.8 38.8 24.8 45.7 2.7 4.5 2.2 5.6 6.5-13.5 1.7-7.4 4.4-17.3 6-21.9 2.4-6.8 2.7-8.6 1.7-9.9-.6-.9-6.8-7.5-13.6-14.8-8.6-9.2-12.8-13-14-12.6-1.1.3-1.2.2-.4-.4 1-.7.6-1.7-1.5-3.9-1.5-1.7-5.3-5.9-8.4-9.4-3.2-3.5-5.8-5.8-5.8-5.1s-.8 2-1.7 2.9c-1.6 1.6-1.6 1.6-1.1-.5.3-1.3.2-2.6-.3-2.9s-.9 1.9-.9 4.8M813 589c0 .5.5 1 1 1 .6 0 1 .5 1 1.2 0 .6.7 2 1.7 3 .9 1 1.4 2.1 1 2.4-1 1-4.7-.7-4.7-2.2 0-2.5-1.5-1.5-2.9 1.8-4.1 10.5-7.2 20.1-6.8 21.2.3.7 6.6 5.9 14.2 11.6 10.6 8.1 13.8 10.1 14.5 9 .5-.8.6-1.8.4-2.2-.3-.4-.1-.8.5-.8 1.6 0 2.4 2.1 1.2 3.3-.6.6-1.1 1.5-1.1 2s1.8-1.5 4.1-4.3c4.9-6.2 5.7-3.7-8.6-25.5-5.8-8.8-11.2-17.5-12.2-19.3-1.6-3.1-3.3-4.2-3.3-2.2M327.5 591.5c1 1.6 3.1 4.7 4.8 6.8 1.8 2.3 2.7 4.4 2.3 5.4-.4.9-.2 2 .5 2.4s.8 1.2.2 2.3c-.8 1.4-1.2 1-2.3-2.4-.7-2.3-1.7-4.3-2.1-4.5-.8-.5 2.8 12.2 7.1 24.8 1.7 4.9 3 9.5 3 10.3s.5 1.3 1.2 1.2c.7-.2 1.2 1.2 1.3 3.7.1 3.4 3 15.3 3.9 16.2.4.4 3-6.1 5.4-13.4 1.1-3.4 1.7-6.4 1.4-6.7-.3-.4-1.7-.6-3.1-.7h-2.6l2.3-1c1.3-.5 2.8-.7 3.2-.4.5.3 1.4-1.1 2-3 1.1-3.3 1-3.7-3.7-9.6-2.6-3.4-6.9-9-9.5-12.5-3.6-4.7-5.2-6.2-6.5-5.8-1.4.5-1.5.4-.4-.4 1.2-.9 1-1.7-1.5-4.7-1.6-2.1-3.9-5-5-6.7-3-4.1-4.1-4.9-1.9-1.3M944.9 601.2c-7.6 10.1-10.3 13.6-19.3 25.1-2.7 3.5-2.8 3.8-1.2 6.2.9 1.3 1.6 3.6 1.6 5 0 2.6 4.6 20 5.7 21.9 1.1 1.6 6.4-16.6 6.6-22.2.1-3 .4-4.5.8-3.5.4 1.2 2.5-4 5.8-14.7 7.6-24.1 8.9-28.5 8.7-28.7-.1-.2-4 4.8-8.7 10.9M764.2 591.7c0 .5-.1 1.5-.5 2.3-.3.8-2.6 8.2-5.2 16.4-2.6 8.1-4.9 15.6-5.3 16.4-.7 2 3.2-.8 10.5-7.5 2.9-2.6 7.7-6.8 10.7-9.3 6.9-5.8 7.4-7.5 3.3-11.8-1.7-1.8-3.7-3-4.4-2.8-.7.3-1.3.2-1.3-.2 0-.5-1.6-1.6-3.5-2.5-4-1.9-4.6-2-4.3-1M466.9 593.2c-.1.1-.2 1.8-.4 3.6-.3 4-1.3 5.2-2.5 3.2-.5-.8-1.2-1.1-1.6-.7s-1.3.2-2-.4c-.9-.8-1.5-.5-2.4 1q-1.05 2.1 0 2.1c.5 0 1-.4 1-1 0-.5.7-.7 1.5-.4 1.4.6 1.3.8-.1 1.9-1.1.7-1.4 1.7-.9 2.5.6.9.4 1.1-.4.6-.7-.5-1.9 0-2.7 1-1.4 1.8-1.4 1.7-.4-.4 1.8-3.7.5-3.7-1.8 0-1.5 2.4-1.8 3.5-.9 4 1.2.7 1 .9-1.4 1.2-1.7.2-10 13.9-9.6 15.8.3.9 0 1.5-.7 1.2-.6-.2-1.7 0-2.5.5-1.2.8-1.3 1.2-.1 2.6 1 1.2 1.5 1.3 2.1.3 1.1-1.7 5.4 2.3 5.6 5.2.2 2.6-1.4 2.6-2.2 0-.3-1.1-1-2-1.5-2s-.1 1.3.8 3c.9 1.6 2.1 3 2.6 3 .6 0 15.4-11.3 28.9-22.1l2-1.7-2.2-6.8c-2.2-6.9-5-12.8-5.1-10.9 0 .5-.5.3-1-.5s-.9-2.2-.9-3c0-1 .3-.8 1 .5.8 1.8.8 1.8.6-.4-.2-2-2.4-4.2-2.8-2.9M507 595.5c-1.4.8-3.8 2.7-5.4 4.4-2.6 2.7-2.7 3.1-1.3 5.1.8 1.2 3.9 4.1 6.8 6.6 3 2.4 7.8 6.6 10.8 9.2 9.4 8.2 9.3 8.4 4.9-5.1-2.2-6.7-4.4-13.6-4.9-15.2l-.8-3 .3 3.2c.2 2.6 0 3-1.1 2.2-.7-.7-1.3-1.8-1.3-2.6 0-2-3-6.3-4.4-6.2-.6.1-2.2.7-3.6 1.4M951.1 608.3c-1.8 5.6-5.7 18.1-8.6 27.7-3 9.6-5.7 18.4-6 19.5-1.1 3.1 9.9-15.9 15-26 2.5-4.9 4.7-10.6 5-12.5.5-3.5.5-3.5-1.2.7-1.9 4.8-2.7 5.4-3 2-.1-1.2-.3-3.7-.5-5.5-.3-2.4-.1-3.1.9-2.8.7.3 1.3.1 1.3-.5s.5-.7 1-.4c.6.3 1-.1 1-1 0-.8-.6-1.8-1.4-2.1s-1.2-1.3-.9-2.5c.5-1.6.8-1.8 1.4-.7.5.8.6-.1.3-2.2-.4-1.9-.8-3.6-.8-3.7-.1-.1-1.7 4.4-3.5 10M326.1 608.4c-.7 2.5-1.8 4.7-2.3 4.8-.7.3-.7 1.7.2 4.3 1.1 3.3 1.4 3.6 2 2 .6-1.8.7-1.8 1.2.3.3 1.1.1 2.3-.4 2.4-.6.2-.2 2.2 1 4.8 1.8 3.8 2 4 1.7 1.5l-.5-3 1.1 2.7c.6 1.6 1.5 2.8 2 2.8s.9.7.9 1.6c0 .8.4 1.3 1 .9.5-.3.7.8.5 2.9-.4 2.8.4 5.1 4.2 11.5 2.6 4.4 4.8 7.9 5 7.8.3-.4-13.1-44.3-14.9-48.7l-1.3-3.2zM783.3 605.4c.4.9.3 1.6-.2 1.6-1 0-8.3 5.7-21.3 16.7l-9.7 8.2 7.7 6.3c4.2 3.5 9.1 7.4 10.9 8.6l3.2 2.3 1.5-4.8c2.1-6.9 6.5-18.6 7.2-19.2.4-.3.4.3 0 1.4-1.4 4.6-3.9 14.1-4 15.5-.1.9-.6 2.2-1.1 3s.2.6 1.4-.5c3.7-3.2 20.1-24.8 20.1-26.4 0-.3-2.6-2.8-5.7-5.6-3.1-2.7-5.4-4.3-5.1-3.4.3.8-.4 3.7-1.7 6.5-1.2 2.7-2.5 5.6-2.8 6.4-.4.8-.4-.1 0-2s.7-4.5.7-5.8c.1-1.2.4-2.2.7-2.2 1.8 0 1.4-5-.4-6.5s-1.9-1.6-1.4-.1M496.8 608.7c-.2 1 0 3.1.4 4.8.5 1.6 1.1 4.1 1.4 5.5.2 1.4.8 4.1 1.4 6 3.7 13 5.9 22.4 5.4 23.1-1 1.7.9.9 4.5-1.8 4.8-3.6 15.4-12.6 16.4-13.8.8-1.1-.4-2.2-14.1-13.5-14.9-12.3-15-12.3-15.4-10.3M490.7 614.1c-1 .6-2.7.9-3.8.6-1-.3-1.7-.2-1.4.3.3.4-.2 1.3-1 2-1.3 1.1-1.5 1-.9-.6.5-1.8.5-1.8-1 0-.9 1.1-1.6 2.3-1.6 2.6s2.2 3.3 4.8 6.6c2.6 3.2 6.8 8.6 9.2 11.9 2.5 3.3 5.3 6.9 6.3 8 1.7 1.9 1.7 1.8 1.1-1.5-.7-3.8-1.3-6.2-4.5-19-3-12-3.6-13-7.2-10.9M463.8 630.9c-7.5 5.8-14 10.9-14.3 11.3-.4.4 2.4 3.5 6.1 7s9.3 8.6 12.3 11.5l5.6 5.1 1.2-11.6c1.1-11.7 3-33.6 2.9-33.8-.1 0-6.3 4.7-13.8 10.5M799.1 622.8c-.6 1.1-1.7 2.6-2.4 3.4-2 2.1-16.2 20-18.1 23l-1.7 2.6 13.3 8c12.8 7.6 13.3 7.8 13.6 5.5.4-2.7-2.6-43.5-3.2-44.1-.3-.2-.9.5-1.5 1.6M803 623.7c0 3.7 3 41.6 3.3 41.9.1.2 5.8-5.1 12.7-11.6s12.3-12 12-12.2-5-3.7-10.5-7.8-11.7-8.7-13.7-10.3l-3.8-2.9zM479.4 623.7c-.1 3.5-3.5 39.8-3.9 40.9-.2.6 0 1.6.4 2.2.5.8 5-1.5 13.8-7l13.1-8.3-2.6-3.5c-11.1-14.8-19.8-26-20.2-26-.3 0-.6.8-.6 1.7M887.2 630.6c-1.2 2.5-7.1 13.1-13.1 23.7-15.7 27.9-14.7 25.5-11.4 26.9 2.3.9 2.5 1.2 1 1.5-1 .3-2.4-.1-3.2-.7-1.9-1.6-1.9-2.5.2 19.8l1.7 18.3 3.5-.3c3.9-.3 3.3.4 10.5-14.8 6.7-14.2 7.2-16 5.5-17.1-1.1-.7-1.1-.9.2-.9 1.6 0 1.6-.2 6.9-52 .4-4.7.7-8.6.6-8.7-.1-.2-1.2 1.8-2.4 4.3M390.8 632.2c.3 5.5 2.9 30.8 3.6 34.3.6 3.3 2.1 16.9 1.9 18.2 0 .8 1.2 1.3 3.1 1.3l3.1.1-2.8 1.5c-3.3 1.8-3.7.4 4.6 18.6 6.1 13.4 6.3 13.7 9.4 13.8 3 0 3.2-.3 3.8-4.3.7-5.2 3.5-30.8 3.5-32.3 0-.8-1.7-1-4.7-.8l-4.8.4 3-1.5c1.7-.8 3.5-1.4 4.1-1.5.7 0-.2-2.7-2.1-6.3-2.8-5.4-23-41.9-25.2-45.5-.4-.8-.7 1-.5 4M729.3 636.8c-5 3.7-9.8 7.1-10.7 7.7-.9.5-1.8 2.5-2.1 4.2l-.3 3.3 4.1-2.2c5.3-2.6 19.1-11.3 23.6-14.7l3.4-2.6-3.4-.7c-2.1-.4-3.9-.2-4.8.5-1.2 1-1.4.9-.8-.6.3-.9.5-1.7.4-1.7s-4.3 3.1-9.4 6.8M433.2 641.8c-3 9.3-8.6 32.2-8 32.7.5.4 18-28.4 18.4-30.3.2-.9-1.3-4.1-3.4-6.9l-3.9-5.3zM537 635.9c6.1 4.4 25.4 16.1 26.6 16.1.4 0-1.3-1.4-3.7-3.1-5.9-4.2-6.2-4.6-5.1-5.3.5-.3 2.8.8 5.1 2.5 3.2 2.2 4 2.5 3.2 1.1-.6-1.1-2.3-2.7-3.8-3.7s-5.4-4-8.6-6.7c-6.2-5.1-7.2-5.7-6.4-3.3.4.8.1 1.7-.6 2.1s-.9.4-.5-.1c.4-.4-.4-1.4-1.8-2.2-3.8-1.9-5.1-1.6-2.6.7 2 1.9 2.7 3 1.9 3-.2 0-1.7-1.1-3.3-2.5s-3.6-2.5-4.4-2.5 1 1.8 4 3.9M955.7 634.7c-.3 1.6-3.3 13.6-6.5 26.8-3.3 13.2-6.3 25.3-6.7 27-.6 2.7 8.2-14.3 10.7-20.5 1.9-4.9 4.6-20 3.5-20-.6 0-.8-2.8-.4-8 .6-8.1.4-10.2-.6-5.3M839.2 637.1c-1.8 2.4-3.2 4.9-3.2 5.6 0 1.3 16.4 29 18.2 30.8.7.7.9.4.5-1-.3-1.1-2-7.8-3.8-15-1.8-7.1-4.4-15.6-5.9-18.8l-2.7-5.9zM951.6 634.6c-.3.9-4.3 7.7-8.7 15.2-4.5 7.4-8.5 14.9-9 16.5-.5 1.9-.2 7.4 1.1 15.9 1.1 7.2 2 13.5 2.1 14.2.1 3.3 1.8-3.2 14.9-58.9.9-4.1.7-5.8-.4-2.9M357.1 636.3c-.6 1.6-1.6 5-2.2 7.5-.6 2.6-2.2 7.8-3.5 11.5-1.3 3.8-2.4 7.5-2.4 8.3s4.7 8.5 10.5 17c5.8 8.6 10.3 14.5 10.1 13.2-.3-1.3-2.2-11.3-4.1-22.3-2-11-4.4-24.1-5.4-29-1.7-8.5-1.9-8.8-3-6.2M522.5 638.9c-3.3 2.6-8 6.6-10.5 8.9-4.4 4-4.5 4.1-2.5 5.6 6 4.7 32.9 17.6 36.6 17.6 1 0 2.4-.9 3.2-2.1 1.4-1.8 1.3-2.4-.6-5.5-5.8-9.4-19.2-29.4-19.7-29.4-.3.1-3.2 2.2-6.5 4.9M748.4 637.3c-1.2 1.8-6 9-10.8 16.1l-8.7 12.8 2.2 2.4c1.2 1.3 2.8 2.4 3.5 2.4 2.4 0 23.7-10 31-14.6 7.5-4.6 7.5-4.6 5.2-6.2-1.3-.9-2.5-1.9-2.8-2.2-.8-.9-16.9-14-17.2-14-.2.1-1.2 1.5-2.4 3.3M921.6 635.6c-.3 1.1-2.1 10.2-4.1 20.4s-4.5 22.7-5.5 27.8c-1.1 5.1-2 10-2 10.9s4.8-5.5 10.6-14.2l10.7-15.8-1.6-5.1c-.9-2.8-1.9-6.9-2.2-9.1-.8-4.6-2.3-9.8-4-13.9-1.1-2.5-1.4-2.6-1.9-1M328.5 636.5c.4 1.1.9 4.2 1.1 6.9s1 7.4 1.9 10.5c.8 3.1 2.8 11.7 4.6 19.1 1.7 7.4 3.9 16.2 4.9 19.5l1.7 6 .8-7c.4-3.9 1.3-10.1 2-13.8 1.7-9.2 1.2-11.7-4.8-22.2-6.2-10.9-13.2-21.7-12.2-19M362.5 639.5c.4 1.6 1.1 5.7 1.5 9 1.8 13.2 8 47.9 8.7 48.6.9.8 20.3-8 20.3-9.2 0-.4-1.6-1.7-3.5-2.9-3.3-2-4.8-5-2.5-5 .6 0 1 .4 1 .8 0 .5.7 1.7 1.5 2.8 2.1 2.5-2.1-5.9-5.4-11.1-1.4-2.2-5.3-8.5-8.6-14-12.5-20.3-13.8-22.2-13-19M536.8 641.2c4.2 6.1 9.5 14.6 12.2 19.5 1.3 2.4 2.7 4.3 3.1 4.3 1 0 2.2-7.9 1.7-10.8-.1-1.2.2-2 .7-1.9.6.1.8 2.5.6 5.5-.3 5-.2 5.3 1.6 4.4 1-.6 2.5-2.2 3.3-3.7.8-1.4 2-2.3 2.7-2.1 1.1.4 1.1.1.3-1.4-.6-1.1-1.5-2-2-2-1.7 0-24.2-13.8-24.8-15.3-.2-.4-.8-.7-1.3-.7-.6 0 .3 1.9 1.9 4.2M739.9 640.8c-3.1 2-9.5 5.9-14.2 8.7-4.7 2.7-8.6 5.4-8.7 5.8 0 .5.5.5 1.2.1.7-.5.8-.3.3.5-.7 1.3 4 7.1 5.8 7.1 1 0 .5-5.4-.8-8.3-.4-1-.3-1.7.3-1.7s1.4 1.7 1.7 3.7c1.6 9.1 1.6 9.1 7.5.1 10.8-16.4 13-19.8 12.8-19.8s-2.8 1.7-5.9 3.8M910 650.2c-9.1 14.5-18.2 29.4-21.2 34.7-1.8 3.2-1.8 3.4-.1 4.7 1 .7 3.3 1.8 5 2.4 1.8.7 5.4 2.3 7.9 3.6 2.6 1.4 4.8 2.3 5 2.2.4-.5 3.8-16.9 6.9-33.3 1.4-7.7 3.2-17 3.9-20.8.7-3.7 1.3-6.7 1.1-6.7-.1 0-3.9 6-8.5 13.2M324.3 642.4q.6 1.5-.9.9c-1.9-.7-1.8 2.2.2 12.7 1.6 8.4 4.2 16 5.6 16 .5 0 .8.7.8 1.6 0 1.5 6.5 16.4 7.2 16.4.2 0-2.3-11-5.7-24.5-3.3-13.5-6.4-24.5-6.9-24.5-.4 0-.6.7-.3 1.4M446.5 646.2c.2.7 2.4 8.5 4.9 17.3s5.1 17.5 5.9 19.3l1.4 3.3 7.7-8.2 7.7-8.2-2.3-2.5c-3.9-4.2-24.1-22.2-24.9-22.2-.5 0-.6.6-.4 1.2M826.3 650.1c-11.2 10-19.3 18.1-19.3 19.2 0 .7 3.3 4.7 7.3 9.1l7.2 7.9 3.2-9.4c4.4-12.8 9.3-31.9 8.2-31.9-.5 0-3.5 2.3-6.6 5.1M441.8 652.3c-1.4 2.3-5.7 9.3-9.7 15.5-7.2 11.5-7.7 12.3-6.3 12.1 1.9-.3 2.3.2 1.2 1.6-1.1 1.3.1 2.8 7.5 9.8 12.9 12.1 11.5 11.7 16.9 4.5 2.5-3.4 4.6-7.1 4.6-8.1 0-1.6-10.7-38.6-11.4-39.4-.1-.1-1.3 1.7-2.8 4M834.5 651.2c-.4 1.8-2.3 8-4.3 13.8-1.9 5.8-4.2 13.3-5.2 16.8l-1.8 6.3 4.6 6.9 4.6 6.8 2.6-1.8c3.6-2.7 7.6-6.2 14.7-13.2 5.6-5.4 6.1-6.2 5.1-8.1-1.6-3-17.9-29-18.8-30-.5-.5-1.1.6-1.5 2.5M490.9 661.7c-6.8 4.2-12.6 7.8-12.9 8.1-.3.2.3 1 1.4 1.7 1 .8 3.5 2.9 5.5 4.7s5.8 5.2 8.4 7.6 5.2 4 5.7 3.7c.6-.3 1-2.1 1-4 0-2.5-.5-3.5-2-4-1.1-.4-1.8-1.1-1.4-1.6.4-.6 1.1-.6 1.9.1 1 .8 1.5.7 1.8-.7 1.1-3.7 3.8-23.3 3.3-23.3-.1 0-5.8 3.5-12.7 7.7M597.5 654.8c-.6.4-3.1 3.5-5.7 6.9l-4.7 6.1 4.5.4c2.4.2 4.4 0 4.4-.4 0-.5.9-.8 2.1-.8 1.4 0 1.9.5 1.6 1.4-.4 1 .5 1.8 2.5 2.5 1.7.6 3.2 1 3.3.9.3-.3-2.2-12.1-2.5-12.6-.2-.1-.3-.7-.4-1.3-.2-1.7-3.9-3.9-5.1-3.1M679.2 655.5q-2.1 1.5-3.6 8.4c-.9 3.9-1.6 7.2-1.6 7.5 0 1.3 3.1.5 4.8-1.2 1.1-1 3.6-1.8 6.7-2 7.9-.4 8.1-.8 4.3-5-1.8-2-4-4.6-4.8-5.8-2.2-3.1-3.5-3.5-5.8-1.9M776.5 656.8c.7 4.1 2.5 17.1 3.2 22.4.3 2.7.8 4.8 1.1 4.8s3.2-2.1 6.4-4.6c7.3-5.7 7.5-4.5.3 1.6-5.4 4.6-8.5 8.5-4.4 5.6 6.4-4.4 15-13 14.5-14.3-.4-1-.2-1.3.8-1 .8.3 1.9 0 2.5-.7.8-.9-.3-2-4.2-4.3-2.9-1.6-8.7-5.1-12.9-7.6l-7.7-4.6zM506 655.5c0 .2-.7 5.5-1.6 11.7s-1.7 12.2-1.9 13.3c-.1 1.1-.6 3.3-1 4.9-.7 2.6-.6 2.8 1.6 2.1 1.3-.4 6.5-2.4 11.5-4.5 5.1-2.1 12.9-4.8 17.5-6 12.5-3.2 12.6-3.7 2.1-7.9-4.8-2-12.9-6-17.9-8.9-8.7-5-10.3-5.7-10.3-4.7M766.5 658.5c-6.1 3.6-13.2 7.1-24 12-6.9 3.1-6.9 3 5.7 6.6 3.8 1 11.5 3.7 17.3 5.9s11 4 11.6 4c.8 0 1-1.4.5-4.3-.3-2.3-1.1-8-1.6-12.7-1.4-11.2-2.1-15-2.9-15-.3 0-3.3 1.6-6.6 3.5M563.3 663.3c-5.1 10.7-5.1 10.6.4 9.6 4.3-.8 13.5-3.2 17.2-4.5 1.1-.4-6.3-6.2-13.7-10.8-.5-.3-2.3 2.2-3.9 5.7M705.2 662.6l-7.3 5.3 6.8 1.9c3.7 1.1 8.7 2.4 11.1 3 4.3.9 4.3.9 3.8-1.4-.9-3.3-5.4-13.2-6.4-13.7-.4-.2-4 2-8 4.9M585.5 672.2c-.9 4.2-2.5 17.9-2.5 21.1.1 3.1.1 3.1 1.6 1.2.9-1.1 2.8-4.2 4.2-6.9 3.7-6.6 4.8-8.5 5.6-9.3 2-2-5.2 13.2-8.2 17.4l-2.3 3.2 3.8 1c17.4 4.6 21.6 5.3 22.5 4 1.2-1.8.3-9.3-2.4-20.6-2.2-9.1-2.2-9.2-5.7-9.8-2.2-.4-3.7-.3-3.9.4-.6 1.8-2.2 1.2-2.2-.8 0-1.4-1-2-3.7-2.5-5.7-.9-6.2-.8-6.8 1.6M686.3 671.1l-3.2.9 1.6 3.8c.8 2 2.5 5.1 3.8 6.8s3.7 5.7 5.4 9c1.7 3.2 3.1 5.2 3.1 4.4 0-2.1-1.9-18.9-2.6-22.8-.7-3.5-2-3.9-8.1-2.1M350 671.3c0 .6 4.7 22.6 7.6 35.7.8 3.6 1.8 8 2.1 9.7.4 2.6 1.1 3.3 2.8 3.3 2 0 2.7-1.2 5.4-9.2l3.1-9.2-4-6c-6.5-10.1-17-25-17-24.3M468.6 678.5c-4.7 5.3-6.4 7.9-6 9.2.5 1.5.4 1.5-.5.3-1.2-1.7-2.4-.9-1.5 1.1.4.8 4.2 4.7 8.5 8.7l7.7 7.4 10.1-7.3c5.6-3.9 10-7.5 9.9-7.9-.4-.9-15.8-14.8-18.9-17.1l-2.6-1.8zM793.5 680.1c-5.5 5.1-10 9.5-10 10 0 .8 18.4 14.9 19.4 14.9.9 0 7.5-6.3 12.5-11.9l4.6-5.2-7.6-8.5c-4.3-4.6-8-8.4-8.3-8.4s-5.1 4.1-10.6 9.1M919.8 685.6c-5.4 7.9-9.8 15.2-9.8 16.1 0 1 1.2 5.5 2.6 10.1 2.3 7.2 2.9 8.3 4.8 8 1.7-.3 2.4-1.6 3.8-8.3 1-4.4 2.2-9.8 2.7-12 3.7-16.2 6.1-27.8 5.9-28s-4.7 6.2-10 14.1M567.5 674.4c-4.4 1.2-8.5 2.4-9.1 2.8s-1.9 4.9-2.8 10c-1 5.1-2.1 11.2-2.5 13.5l-.8 4.2 3.1-.5c9.5-1.7 22.2-4.6 23.1-5.4 1.2-1 1.1-6.7-.2-17-.4-3-.7-6.5-.7-7.8 0-2.5.4-2.6-10.1.2M701.6 675.8c-.3 2-.6 6.7-.6 10.4s-.4 6.9-.9 7.2c-.4.3-.6 1.6-.4 3 .4 1.8 1.5 2.7 4.6 3.5 6.6 1.8 22.2 4.9 22.6 4.6.5-.6-2.9-19.9-4.4-24.1-1.2-3.7-1.7-4-7.7-5.5-12.8-3.3-12.5-3.3-13.2.9M676.4 674c-1.5.6-2.5 3.3-4.7 12.1-3 12.4-2.9 19.4.2 18.5.9-.3 4.8-1.2 8.6-2.1 3.9-.9 8.7-2 10.8-2.6l3.7-1-3.1-4.6c-2.3-3.3-2.8-4.7-1.9-5.3.9-.5.7-1.2-.7-2.6-1-1.1-2.7-3.8-3.8-6.2-1.2-2.9-2.4-4.2-3.8-4.2-1.2 0-1.7-.5-1.4-1.3.6-1.5-.9-1.7-3.9-.7M545.4 674.9c.4.5-.3.7-1.4.4s-2 0-2 .6-.8 1.1-1.8 1.1c-2 0-23.9 7.5-31.9 11-2.9 1.2-5 2.6-4.8 3.1.5.8 10.3 7.3 22.3 14.8 4.9 3.1 5.7 3.3 11.2 2.8 3.3-.4 7.3-1.2 9-1.9l3-1.3-2.5-3.7c-1.4-2-2.5-4.2-2.5-4.7 0-.6-.5-1.1-1.1-1.1-.7 0-.8-.7-.4-1.8.4-.9.9-3.3 1.1-5.2.7-5.3 1.4-4.9 1.4.9 0 3.9.7 6.4 2.6 9.7 1.5 2.5 2.8 4.4 2.9 4.2.7-.8 4.6-26 4.1-26.5-.3-.3-3.1.3-6.1 1.5-3.2 1.1-5.4 1.5-5.2.9s1.6-1.5 3.3-2c3.8-1.3 4.1-1.6 2.4-2.7-1.9-1.2-4.3-1.3-3.6-.1M731.2 674.8c-.9.6-.5 1.2 1.3 2.2 2.5 1.3 3.6 3.7 1.3 2.6-.7-.3-2.1-.9-3-1.2-1-.4-1.8-1-1.8-1.4s-1.1-.5-2.5-.2c-2.5.4-2.4.5 1.8 4.3 2.3 2.1 4.7 3.8 5.3 3.9 1 0 2.7 4 2 4.7-.1.1-2.4-1.8-5.1-4.2-2.6-2.5-4.9-4.4-5.1-4.3-.1.2.7 5.3 1.8 11.3l2.1 11 2.4-5c1.2-2.8 2.3-5.6 2.3-6.3 0-.6.5-1.2 1-1.2 1.9 0 1 4.5-1.9 9.7l-2.9 5.3 3.6 1c2.1.6 6 1.3 8.7 1.7 4.8.5 5.4.3 16-6.2 19.5-12 19-11.6 17.3-12.9-3-2.2-35.9-13.6-39.2-13.6-.9 0-1.6-.5-1.6-1 0-1.2-2-1.3-3.8-.2M930.6 679.6c-.4 2.2-1.3 6.6-2.1 9.9-5.1 21.9-6.7 29.7-6.2 30.2 1.4 1.4 3.5-1 8-9 5.2-9.4 5.5-11.3 3.6-24.4-1.5-9.9-2.4-11.8-3.3-6.7M347.2 679.9c-.7 1.9-1.2 6.9-1.2 11.2s-.4 8-.9 8.4c-2.1 1.2 8.9 20.5 11.6 20.5 1.7 0 1.8.3-1.6-14-1.7-6.9-3.8-16.3-4.8-21l-1.9-8.5zM629.9 684c1.3 1.1 2.9 2 3.7 2s1.4.4 1.4 1c0 1.9-3.9.6-8.2-2.8-1.9-1.6-2-1.1-3.8 13.8-1.4 11.7-1.4 11.5 2.5 15.9 1.9 2.1 3.5 4.4 3.5 5 0 .7 2 1.1 5 1.1h5v-38h-5.7l-5.8.1zM641 701v19h4c3.5 0 4.3-.4 5.8-3.1.9-1.7 2.7-4.4 4-5.9 2.5-3.2 2.8-8 1.2-19.4-1.2-8.3-1.7-9.2-3.8-7.3-1 .8-2.8 1.8-4.2 2.2-1.4.3-3.3.9-4.2 1.1-1 .3-1.8.1-1.8-.4s1.5-1.3 3.3-1.6c1.9-.3 4.2-1.3 5.3-2.1 1.7-1.3 1.4-1.4-3.8-1.5H641zM423.3 690.2c.2 3.7.1 6.6-.3 6.3-.9-.6-1.6 2.3-2.5 10.5-.3 3-.8 7.2-1.1 9.3l-.6 3.8 6.4-.3c5.1-.2 6.3-.6 6-1.9-.2-1.7 3-5.2 4.4-4.7 1.7.5 5.2-2.2 7.2-5.6l2-3.4-7.7-7.4c-4.2-4-9.1-8.7-11-10.3l-3.4-3zM854.9 684.7c-.2.4-4.9 4.8-10.4 9.8-5.5 4.9-10 9.3-10 9.8 0 .4 2.5 4.1 5.5 8.2l5.4 7.5H860v-3.9c0-3.2-1.9-19.7-3.4-29.3-.3-2.1-1.3-3.2-1.7-2.1M453.3 696.9c-2.9 3.8-4.9 7.2-4.6 7.5 1.1 1.1 2.5.6 2.1-.7-.2-.6 1.1-2.7 2.9-4.5 1.8-1.9 3.3-3.1 3.3-2.8 0 1.1-2.5 6.1-3.3 6.7-.5.4-.1 1.9.9 3.5l1.8 2.9-2.2-1.9c-1.2-1.1-2.5-1.7-2.8-1.4s2.2 3.5 5.5 7l6.1 6.3 5.5-5.7c3-3.1 5.5-6.2 5.5-7 0-.7-3.5-4.8-7.8-9.1l-7.7-7.7zM821.3 691.2q.6 1.65-.6 1.2c-1.5-.5-16.2 14.2-14.9 15 .4.2 2.5.3 4.6.1 4.3-.4 4.1.4-.4 1.4l-3.1.6 4.9 4.8 4.8 4.8 6.7-6.8c3.7-3.7 6.7-7.5 6.7-8.4s-1.9-4.2-4.1-7.5c-4.7-6.7-5.5-7.6-4.6-5.2M885.6 692.6c-.3.9-.6 7.4-.6 14.5V720h10.6l4.8-8.5c2.6-4.6 4.6-9.2 4.4-10.2s-2.6-2.9-5.3-4.2l-8.6-4.3c-4.5-2.2-4.5-2.2-5.3-.2M389.7 692.6c-.3.3-.3 1.2 0 2s.1 1.4-.5 1.4-1.2-.5-1.4-1.2c-.3-.8-2.6-.1-7.2 2-7.8 3.6-7.7 3.1-1.5 14.3 2.1 3.9 3.9 7.6 3.9 8 0 .5 2.7.9 6 .9h6v-7.9c0-13.2-1-20.1-3-20.1-.9 0-1.9.3-2.3.6M488.7 699.6c-5.3 3.7-9.7 7.1-9.7 7.6 0 .4 3 2.9 6.6 5.6 3.7 2.6 7.2 5.2 7.8 5.7 1.5 1.4 7.6 1.9 7.6.6 0-.6.7-1.1 1.5-1.1 1.9 0 1.9-1.7-.4-12-3.3-14.6-2.1-14.1-13.4-6.4M502.1 695.3c0 1.2 1.1 6.5 2.3 11.7 1.6 7.2 2.5 9.4 3.6 9.1 5.6-1.3 18.6-5.4 19.2-5.9.4-.4-5.1-4.4-12.2-8.9-11.4-7.2-13-7.9-12.9-6M770 697.6c-3.6 2.5-8.3 5.4-10.5 6.5s-5.1 2.8-6.4 3.8l-2.5 1.9 11 3.4 10.9 3.4 1.7-5.5c3.2-10.4 4.7-18.1 3.5-18-.7.1-4.1 2.1-7.7 4.5M780.1 696.7c-.5 2.1-1.7 6.9-2.6 10.8-.8 3.8-1.8 7.8-2.1 8.7-.4 1.5.1 1.8 2.6 1.8 1.8 0 2.9.4 2.5 1-.3.6.4 1 1.7 1 2.1 0 7.1-3.2 16.3-10.4l3-2.4-2.9-2.3c-3.8-3-16.5-11.9-17.1-11.9-.2 0-.9 1.7-1.4 3.7M590.5 709.4c4.4 4.8 8.8 9.2 9.7 9.7 2.4 1.3 4.5 1.1 4.5-.4 0-.8 1-3.5 2.2-6.1 1.3-2.6 2.1-4.9 1.9-5.1-.3-.3-5.4-1.6-11.5-3s-11.9-2.8-12.9-3.2c-1.1-.4 1.7 3.3 6.1 8.1M690.5 702c-1.6.5-6.9 1.8-11.7 3-4.9 1.2-8.8 2.6-8.8 3 0 .5.7 1.6 1.6 2.5 1.4 1.3 1.9 1.4 2.5.3.7-1.1 1.1-1 1.9.2 1.3 2 1.3 5 0 5-.5 0-1-.5-1-1 0-.6-.4-1-.9-1s-.4 1.3.2 3c.6 1.6 1.8 3 2.6 3 1.3 0 11.8-10.1 17.5-16.8 2.1-2.4 1.4-2.6-3.9-1.2M701.8 702.9c5.1 11.8 11 18.6 13.3 15 .7-1.1.9-1.1.9.3 0 1.5.9 1.8 4.9 1.8 5.5 0 6.1-.8 6.1-8.6v-4.1l-6-1.2c-3.4-.7-9.2-2-13-3-6.2-1.7-6.8-1.7-6.2-.2M564 704.9c-9.1 2.2-11.5 3.1-11.4 4.4 0 .9.1 3.7.2 6.2l.2 4.5h7.1c6.2 0 7.1-.2 7.6-2 .3-1.1.9-1.8 1.3-1.5.8.5 5-4.6 5-5.9 0-.4 1.1-2.4 2.5-4.6 3.1-4.9 3.4-4.8-12.5-1.1M540.3 709.8l-6.3 1.7 3.1 3.2c3.9 4.2 2.5 4.3-1.7.2l-3.3-3.2-7.8 2.2c-4.3 1.2-9.7 2.7-12 3.3-2.4.6-4.3 1.5-4.3 2 0 .4 9.5.8 21 .8h21v-6c0-6.9.2-6.8-9.7-4.2M729.6 709.6c-.3.9-.6 3.3-.6 5.4 0 4.5.9 5 9 5 5.6 0 5.9-.1 6.3-2.8l.4-2.7.2 2.7.1 2.8h14.3c8.5 0 13.6-.4 12.7-.9-.8-.5-6.4-2.4-12.3-4.2-8.9-2.7-11.2-3.1-12.8-2.1-2.4 1.6-3 1.5-2.3-.2.5-1.3-1.5-2-12.2-4.2-1.4-.2-2.4.2-2.8 1.2M472.9 711.7c-1.3 1.6-3.5 4-4.8 5.5l-2.4 2.8 13.2-.1 13.3-.1-7.4-5.4c-4-2.9-7.8-5.3-8.4-5.4-.5 0-2.1 1.2-3.5 2.7"/></svg>