<svg xmlns="http://www.w3.org/2000/svg" width="1706.667" height="960" viewBox="0 0 1280 720"><path d="M0 160v160h3.5c2 0 6.5-1.3 10-2.9 3.6-1.7 6.5-2.7 6.5-2.3 0 .9 2.9 1.1 16.3 1.1 6.6 0 10.7.4 10.7 1.1 0 .6 2.9 1 7.1 1 6.5 0 7.3-.2 10.1-3 2.4-2.4 4.3-3.2 9.2-3.9 3.3-.5 6.4-.7 6.9-.4 1.5.9 9.7-1 9.7-2.2 0-.7.6-1.6 1.3-1.8.6-.3.1-.6-1.2-.6l-2.4-.1 2.4-2.1c1.8-1.5 3.2-1.9 5.6-1.4 2.6.5 3.3.2 3.8-1.5.6-2 2.5-2.8 2.5-1 0 .5 1.8 1 4 1s4-.5 4-1.1.9-.8 2-.4 2 .2 2-.4.9-1.1 1.9-1.1c2.7 0 8.8-5.6 6.9-6.3-.9-.4-1-.6 0-.6.6-.1 1.2-.8 1.2-1.6s.5-1.5 1-1.5c.6 0 1-.9 1-2s.7-2 1.5-2 1.5-.4 1.5-1c0-.5 1.1-2 2.5-3.4s2.5-3.2 2.5-4.1c0-.8.5-1.5 1-1.5.6 0 1-1.1 1-2.5 0-1.8.7-2.6 2.6-3.1 1.5-.4 2.9-.2 3.3.4.7 1.2 10.1-.6 10.1-2 0-.4 1.8-.8 4-.8s4-.5 4-1c0-.6-2-1-4.5-1-3.1 0-4.7-.5-5.4-1.8-.6-1-1.1-1.2-1.1-.4s-.8.5-2.2-.8c-1.3-1.2-3.5-2.4-5-2.7-1.6-.3-2.8-1.2-2.8-1.9 0-.8-.9-1.4-2-1.4-1.6 0-2-.7-2-3.5 0-2.2.6-3.8 1.5-4.1.8-.3 1.7-1.4 2-2.5.5-1.6 1.6-1.9 7.1-1.9 3.6 0 8.7.7 11.3 1.6 4.4 1.4 5.3 1.4 10.4-.1 4.1-1.2 5.4-2 5-3.1-.3-.9.2-1.4 1.6-1.4s2.1-.6 2.1-2c0-1.1.4-2 .9-2 .4 0 1.1-1.6 1.4-3.6.6-3.6 4.7-8.4 7.1-8.4.8 0 1.6-.7 2-1.5.3-.9 1.8-1.5 3.6-1.5 4.4 0 9.6-3.2 8.4-5.2-.3-.4.4-.8 1.5-.8 1.4 0 2.1-.6 2.1-2 0-1.1.7-2 1.5-2s1.5-.7 1.5-1.5c0-1 1-1.5 3.1-1.5 2.4 0 3-.4 2.5-1.5-.3-1 .1-1.5 1.3-1.5 1.1 0 2.2-.6 2.4-1.3.3-.7.6-.5.6.5.1 2.1 3.1 2.5 3.1.4 0-.8.7-1.6 1.5-2 .8-.3 1.5-1.2 1.5-2.1 0-.8.5-1.5 1-1.5.6 0 1-.9 1-2s.7-2 1.5-2 1.5-.5 1.5-1.1c0-1.8 2.6-3.7 5.6-4.1 2.3-.2 3-.8 3.2-3.1.4-3 2.2-3.8 2.3-1 0 1.1.3 1.3.6.5.2-.6 1.1-1.2 1.9-1.2 1.7 0 1.9-1.7.2-2.3-.8-.3-.6-.6.5-.6.9-.1 1.7-.7 1.7-1.4 0-.8.4-.7 1 .3.8 1.3 1 1.3 1-.1 0-2.3 3.5-5.1 6.6-5.5 3.2-.3 4.4-1.9 4.4-5.6 0-1.5.4-3.8.9-5.2.9-2.2.7-2.6-2-3.5-1.6-.5-2.9-1.4-2.9-1.9 0-1.2 2.4-2.2 5-2.2 1 0 2.6-.7 3.5-1.6s2.5-1.4 3.5-1.1c2.2.6 2.5-.6 2.1-7.4-.2-2 .2-4 .7-4.3s.8-3.4.6-6.8c-.2-4.3-.1-5.8.6-4.8.8 1.2 1 1 1-1 .2-5.3 1.9-23.8 3-31.5.6-4.4 1.9-15 2.9-23.5 1.9-15.3 7.7-44.6 12.6-63 1.3-5.2 2.5-10.1 2.5-10.8C290 .3 260.3 0 145 0H0zM312.2 2.8c-.6 1.7-.8 3.3-.5 3.6.4.3.1.6-.5.6-.7 0-1.2.5-1.2 1 0 .6-1.6 5-3.5 9.8s-3 8.8-2.5 9c.6.2 1 1.5 1 2.8 0 1.8.4 2.3 1.3 1.8.8-.5.7-.2-.2 1-.8.9-2 1.5-2.8 1.2-1.5-.6-1.8 2-.3 2.9.6.4 2.3.4 3.9 0 3.1-.7 4-2.5 7.9-15.4 1.1-3.6 2.2-5.8 2.5-5 .3.9.6.7.6-.7.1-1.2-.6-2.7-1.4-3.4s-1.5-1.7-1.5-2.2c0-.6.7-.8 1.5-.4 1.2.4 1.5-.4 1.5-4.4 0-4.7-1.2-6.6-2.3-3.8-.4 1-.8 1-1.5 0-.7-1.1-1.2-.7-2 1.6M326.1 2.1c-4.1 6.7-5.1 9.3-5 13.2.2 3 .3 3.4.6 1.4.6-3.8 2.3-2.4 2.3 2 0 3-.2 3.4-1.5 2.3s-1.5-.7-1.5 2.4c0 5.1 1 3.9 9.7-11.2L337.8 0h-5.1c-4.2 0-5.5.4-6.6 2.1M338.5 2.6c-1.4 2.2-1.5 2.8-.4 3.5 1.4.8 1.2 1-1.2 1.3-.6 0-2.1 1.9-3.3 4.1-1.3 2.2-4.2 7.1-6.5 10.9-2.3 3.7-3.9 7.1-3.6 7.4.3.4 1 0 1.5-.8.6-.8 1-1.1 1-.5 0 2-1.8 3.7-3 3-1-.6-1.1 3-.6 17.6.4 10.1 1 19.9 1.3 21.8l.6 3.4 1.8-2.4 1.9-2.4-1.1 3.3c-.6 1.7-1.5 3.5-2 3.8s-.9 1.3-.9 2.2 1.9-1.6 4.3-5.5c2.3-4 6.3-10.8 8.8-15 7.3-12.6 7.2-12.1 6.5-33.1-1-25.9-1.5-28.1-5.1-22.6M345 7c0 5.4.4 7.2 1.5 7.6 1.7.7 2.1 5.4.5 5.4-1.1 0-1.3 13.5-.2 16.3.6 1.4 1.1 1.1 2.7-2 2.3-4.3 6.3-8.9 7-8.1.8.7-.5 3.8-1.6 3.8-.5 0-.9.5-.9 1.2 0 .6-1.2 2.7-2.6 4.7-3.1 4.3 8.4-7.5 16.7-17.2 5.3-6 5.9-7.2 5.8-11-.1-3.7-.2-3.9-1-1.7-.6 1.8-.7 1.4-.3-1.8l.6-4.2H345zM384.1 6.3l-7.3 6.2.6 5c.3 2.7.9 11.5 1.2 19.3.8 15.5 1.2 16.5 6 14.3 1.3-.6 3.4-1.5 4.7-2.1 11.2-4.8 21.7-9.3 24-10.3 2.6-1.1 2.8-1.5 2.4-5.2-.3-2.2-1.4-10.6-2.3-18.8L411.6 0h-20.1zM414.3 2.7c.3 1.6 1.3 9.5 2.3 17.7 1.1 9.3 2.2 15 3 15.3 1.1.4 13.5-1.5 37.2-5.8 6.1-1.1 6.2-1.1 6.2-4.4 0-4.7-1-7.1-2.2-5.3-.6.8-.7-1.3-.3-5.9.3-4 .3-8.8-.1-10.7l-.6-3.6h-46zM463 2.3c0 2.5 1.7 17.3 2.6 22.6l.5 3.4 15.2-.7c29.2-1.2 34.7-1.8 34.7-3.3 0-.8-.4-1.1-1-.8-.5.3-1.7.2-2.6-.3-1.5-.8-1.5-1 .1-1.5.9-.4 1.3-1.1 1-1.7-.3-.5.1-1 1.1-1 1.4 0 1.6-.7 1-4.6-.3-2.6-.6-6.9-.6-9.5V0h-52zM517.5 6.7c.4 3.8 1 9.5 1.4 12.8l.6 6h28.2c15.5 0 28.4-.3 28.8-.6.3-.4.3-6.1-.1-12.8L575.7 0h-58.9zM578.4 5.7c.3 3.2.8 8.9 1.2 12.8.5 5 .9 6.4 1.5 5 .8-1.9.8-1.9 1.5.2.3 1.3.9 2.3 1.3 2.3.3 0 9.2.7 19.6 1.5 10.5.8 22.6 1.7 27 2l8 .6.3-10.3c.1-5.7-.1-12.4-.4-15.1l-.6-4.7h-59.9zM641 15c0 9.3.4 15 1 15s1-.6 1-1.3c0-.9.3-.8.9.2.7 1 2.2 1.2 6.2.7 3-.3 9.2-.8 13.9-1.1 23.9-1.6 34.3-2.4 34.8-2.9.3-.3.7-6.2 1-13.1l.5-12.5H641zM702.7 6.7c-.4 3.8-.7 9.5-.7 12.9v6.1l27.7.7c15.2.3 28 .3 28.4-.1.9-1 2.9-16 2.9-22V0h-57.7zM764 1.2c-.1.7-.7 6.7-1.4 13.3-.8 6.6-1.3 12.1-1.2 12.2s11.5.5 25.3.9c24.1.7 25.1.6 25.6-1.2.3-1 1.1-6.2 1.7-11.4s1.3-10.7 1.6-12.3l.6-2.7h-26.1C769.9 0 764 .3 764 1.2M817.7 4.2c-1.8 13.3-2.9 23.9-2.5 24.4.9.9 45.3 7.2 45.9 6.6.8-.8 3.9-26.3 3.9-31.5 0-3.3-.3-3.7-2.5-3.7-1.8 0-2.5.5-2.5 2 0 1-.9 2.4-2 3-2.6 1.4-6-.3-6-3 0-1.9-.8-2-16.9-2h-16.9zM867.5 4.2c-.3 2.4-1 8.1-1.5 12.8s-1.2 11-1.6 14.1l-.6 5.5 11.6 5.2c6.4 2.9 12.2 5.2 13 5.2.7 0 2.4.8 3.7 1.8 3.1 2.3 8 4.4 8.7 3.7.3-.3 1-9.2 1.5-19.7l1-19.2-7.1-6.8L889 0h-20.9zM906.5 6c-.8 7.3-.9 7.3 11.2 19.5 4.8 5 10.3 10.8 12.1 12.9 1.9 2 3.6 3.6 3.8 3.4.3-.4.9-7.9 2-29.1l.7-12.7h-29.1zM938.6 4.7c-.6 5.8-1.7 26.1-1.8 35.8l-.1 7 10.4 17.1c5.7 9.5 10.5 17.1 10.5 17 .1 0 .8-10.5 1.5-23.1 1.4-26.4 2.6-21.2-10.4-44.3-4.4-7.8-8.4-14.2-8.8-14.2s-1 2.1-1.3 4.7M946.8 6.8c7 12.7 12.7 22.2 13.5 22.2.4 0 .7-3.8.7-8.5 0-7.5-.2-8.4-1.7-7.8-1 .4-1.4.2-1-.4s0-2.8-.9-4.8c-2-4.8-1.1-5.7 1.2-1.3l1.8 3.3.7-3c1.5-6.7 1.8-6.5-8.6-6.5h-9.4zM963.7 6.7c-1.2 12.3-.8 27.5.9 32.3.8 2.5 4.3 11 7.7 19 4.5 10.4 6.3 13.8 6.5 12 .2-1.3-.1-2.6-.7-2.8S977 66 977 65s-.4-2.1-.9-2.4-1.1-2.2-1.3-4.1l-.4-3.5 2.1 2c1.2 1.1 2.4 2 2.8 2 1.2 0 .8-21.5-.5-22.8-.8-.8-.8-1.5.1-2.6 1-1.1 0-4.6-5.1-17.5-7.3-18.7-9.1-20.4-10.1-9.4M992 6.7c5.3 21.2 12.6 56.1 13.9 66.8.6 4.9 1.8 14.6 2.6 21.5 2.5 21 3.8 42.7 3.5 60.4-.1 12 .1 16.6.9 16.2.7-.5 1.1.7 1.1 3.3 0 2.9-.4 4.1-1.4 4.1-1.1 0-1.4 1.4-1.3 5.8.2 4.5.5 5.9 1.7 5.8s1.4 1.1 1.2 6.5c-.1 3.6.2 7.6.7 9 .5 1.3 1 1.8 1 1.1.1-.7.6-1 1.1-.7.6.4.8 1.1.5 1.6-.4.5-.2.9.3.9s.8 1.1.7 2.5c-.3 2.1.2 2.5 3.3 3.1 2 .4 4.3 1.3 5 2.1.7.7 1.9 1.3 2.6 1.3s1.8 1.1 2.4 2.5c.9 1.9.8 2.7-.3 3.9-1.1 1.1-1.2 1.6-.2 1.9.9.4.8.8-.3 1.6-1 .7-1.1 1.1-.2 1.1.6 0 1.2.7 1.2 1.5s-.9 1.5-2 1.5c-1.3 0-1.8.5-1.4 1.5.4.8 1.2 1.5 2 1.5s1.4 1 1.4 2.5c0 2.2.4 2.5 4 2.5 3.4 0 4-.3 4-2.1 0-1.4.5-1.9 1.4-1.6.8.3 3.1.9 5 1.3 2 .3 3.6 1 3.6 1.5s1.2.9 2.6.9c2.4 0 7.4 4.2 7.4 6.2 0 .4.9 1 2 1.3 1.4.4 2 1.5 2 3.6 0 1.8.7 3.3 2 4.1 1.4.9 2 2.4 2 4.9 0 2.7.5 3.8 1.8 4.1 1.6.5 3.3 3 4.6 7.1.3.9 1.7 2.2 3.1 2.7 1.5.6 2.5 1.7 2.5 3 0 1.6.7 2 3 2 1.9 0 3 .5 3 1.4 0 1.8 2.2 2.6 7.3 2.7 3.1 0 3.7.2 2.2.8-1.8.7-1.6.9 1.2 1.5 1.7.4 3.4 1.4 3.7 2.2s1.2 1.4 2.1 1.4c.8 0 1.5.4 1.5 1s3 1 7 1c5.6 0 7-.3 7-1.5 0-.8.5-1.5 1-1.5.6 0 1 .8 1 1.7 0 1.5.2 1.6 1 .3.6-1 3.6-1.7 9.7-2.2 10.9-.8 39.1-1 41.8-.2 1.1.3 3.1 2 4.4 3.9 1.3 2 3.5 3.6 5.2 4 1.6.4 3.2 1.3 3.7 2.1s3.1 1.7 6.2 2c8 .9 9.3 1.8 8.6 6.2-1.1 6.7-1.2 7.2-1.9 7.8-.4.4-4 .8-8.2 1-7.6.3-13.8 2.1-8.5 2.5 1.4.1 3.2.2 4 .1.8 0 1.8.4 2.1 1 .4.7 1.3.6 2.8-.1 3.4-1.8 9-.4 9.7 2.5.5 1.8 1.3 2.4 3.4 2.4 1.6 0 3.1-.6 3.3-1.3.4-.8.6-.6.6.4.1 1.3 1.1 1.6 5.1 1.5 2.7-.1 4.4.1 3.8.5-2.3 1.5 0 1.9 12.8 2.6 7.3.4 11.8 1 10.4 1.3-2.4.7 3.4 1.1 29.3 2.5l10.7.6V0H990.3zM371.5 18.7c-10.4 10.3-13.4 14.1-12.8 16.2.5 2.1-1.2 3.1-1.9.9-.2-.6-2.1 1-4.2 3.6-2.2 2.5-3.6 4.9-3.3 5.3.4.3 2 .6 3.7.7 1.6.1 3.2.6 3.4 1.2.2.5 3.3 1.8 6.7 2.8 3.5 1 7.4 2.2 8.7 2.7 5 2 5.1 1.8 4.5-11.9-.3-7-.8-15.3-1.2-18.6l-.6-5.9zM905.7 19.1c-.3 1.3-.9 9.5-1.3 18.2l-.7 15.8 3.4-.4c4.6-.6 20.9-6.5 22.6-8.3q1.95-1.95-.9-1.5c-.4 0-.5-.5-.2-1.3.5-1.2-1-3.1-3.1-3.8-.5-.1-.9-.6-.8-.9.1-.4-.7-.4-1.9-.1-1.8.4-2 .2-1.6-1.6.6-2.1-1.3-4.7-2.5-3.5-.4.3-.7-.1-.7-1.1s-.5-1.4-1.2-1-.8.3-.4-.5c.4-.7-1.4-3.4-4.7-6.8-5.2-5.4-5.4-5.5-6-3.2M539.8 28.7 520 29v2.5c0 1.3.4 2.7 1 3 .5.3.7 1.8.4 3.3s.2 9.4 1 17.6c.9 8.2 1.6 15.4 1.6 16.1s.9 1.5 2 1.8 2.6 2.2 3.6 4.6l1.6 4.1h5.9c6.1 0 10.5 1.4 12.6 4 1.1 1.3 1.2 1.3 1.3-.2 0-1.7.1-1.7 2-.1 1.3 1.1 1.6 2.1 1 2.7-1.8 1.8-1.1 2.7 1.6 2 1.4-.4 2.9-.2 3.3.3.3.5 3.3 1.5 6.6 2.1 3.3.7 6.2 1.7 6.3 2.2.2.6 1.2 1 2.3 1 1.3 0 1.9-.7 1.9-2.4 0-1.4.5-2.8 1-3.1.6-.3 1-1.5 1-2.6 0-1.3.4-1.8 1.1-1.3.9.5 1-2.5.5-11.7-.4-6.8-.9-19.2-1.2-27.4-.3-8.3-.7-15.7-1-16.6-.6-2.2-3.6-2.9-11.4-2.7-3.6.2-15.4.4-26.2.5M488.9 30.2c-19.3.8-22.5 1.2-22.1 2.7.1.6.7 5.4 1.4 10.6s1.5 9.5 1.9 9.5.5 1.7.2 3.7c-.3 2.1 0 5.4.5 7.3.6 1.9 1.1 2.8 1.1 1.9.2-3.1 9.1-.2 9.1 3 0 .6 1.6 1.1 3.5 1.1s3.5.4 3.5 1c0 .5-2 1-4.5 1-3.6 0-4.3.3-3.8 1.6.4 1-.1 1.7-1.6 2.1-2.7.7-2.9 4.3-.2 4.3 1.4 0 2.1-1 2.5-3.5.7-3.7 2.6-4.8 2.6-1.6 0 2.4 3.9 3.9 5 2 .5-.6.6-1.8.3-2.6-.3-.7-.1-1.3.5-1.3.5 0 1.3 1.1 1.6 2.4.7 2.8 5.5 4.9 10.4 4.6 3-.1 3.2.1 3.2 2.9s.3 3.1 3 3.1q3 0 3-1.5c0-.8.7-1.5 1.6-1.5 1 0 1.4.7 1.2 2.2-.4 2.7-2 3.6-6.8 3.9-2.9.1-2.5.3 2 .9 5.9.9 15.4 1.1 11 .3-3.5-.7-4.8-2.1-3-3.4 1-.7 1.1-1.2.4-1.5-1.4-.6-.6-4.3 1.2-6.2.9-.9 1.2-3.8.9-10-.4-8.3-.4-8.4.5-2.7.5 3.3 1.2 6.7 1.4 7.5.5 1.6-.3-15.6-.9-20-.2-1.4-.9-7.5-1.6-13.7l-1.1-11.2-6.2.2c-3.3.1-13.1.5-21.7.9M580.6 31.2c.2 1.3.9 13.1 1.6 26.3s1.4 21.9 1.6 19.3c.3-4 .6-4.7 2.9-5.3 3.5-.8 3.9-.1 1.3 2.5-2 2-2.1 2.2-.4 3.5 1 .7 1.9 2.5 2.1 4.1.3 1.6 1 3.2 1.6 3.6.9.6.8 1.1-.3 1.8-1.3.8-1.3 1 0 1 1.1 0 1.1.3.2 1.2-1.4 1.4-1.6 3.2-.3 2.3.5-.3 1.6.2 2.4 1 1.1 1.1 3.7 1.5 8.6 1.5 3.9 0 7.1.4 7.1.8 0 .5 2.1.9 4.8.9 2.6.1 6 .2 7.5.2 1.6.1 2.6.5 2.3 1-.3.4 2.2.9 5.6 1s6.7.6 7.5 1.2c1.1 1 1.3-1.1 1.5-11.7.5-37.5.4-52.4-.2-53.4-.4-.6-10.8-1.8-26.1-3-32.7-2.6-31.7-2.6-31.3.2M670 30.8c-11.3.7-22.4 1.5-24.7 1.8l-4.3.5v11.2c0 18.4 1.2 36.7 2.3 36 .6-.4.8 0 .4.9-.3.9.1 2.8.9 4.3s1.4 4.3 1.4 6.2c0 3.5 1.3 5.5 4 6.1.8.2 1.7.8 1.8 1.3.2.5 1.1.9 2 .9 1.3 0 1.4-.2.4-.8-.9-.6-.7-1.4 1-2.9 2.6-2.4 5.6-2.3 23.2.7 6.4 1.1 15 1 16.2-.3.9-.9 1.3-5.3 2.3-29.7.6-13.5 1.3-27.6 1.7-31.3l.5-6.8-4.3.3c-2.4.1-13.5.9-24.8 1.6M701.9 29.4c-.1.3-.3 3.2-.4 6.3-.1 3.2-.8 14.3-1.4 24.8-1.1 19-1.3 30.6-.4 27.2.5-2 2.3-2.3 2.3-.3 0 .7.7 2.7 1.5 4.2 1.4 2.8 1.4 2.9-1.3 4.2-2.4 1.1-1.9 1.2 4.3.7 3.9-.3 8.7-.8 10.8-1.2 3.2-.5 3.6-.8 2.5-2.1-1-1.2-1-1.4-.1-.8.7.4 2.3 0 3.5-.8 2.9-2 4.6-2 8.8.1 2.6 1.4 4.9 1.7 9 1.3 4.6-.5 5-.7 2.5-1.2-1.6-.3-.2-.3 3.3-.1l6.2.5.1-5.4c0-2.9.2-6.1.4-7.2 1.4-7.1 4.8-48.6 4.1-49.4-.9-.8-55.5-1.7-55.7-.8M760.6 33.1c-.3 1.9-1.2 13.1-2.1 24.9s-1.8 24.3-2.2 27.7l-.6 6.1 3.9-.4c2.2-.2 6.9-.6 10.7-1 3.7-.3 6.5-1 6.2-1.5-.4-.5.9-.9 2.7-.8 2.8 0 3 .2 1.3 1-1.5.7-.9.8 2 .3 2.2-.3 4.2-1 4.3-1.5.2-.5 1.6-.9 3-.9 2.2 0 2.4.2 1.2 1.1-1.1.7.7.8 6 .3 7.5-.6 9.6-1.3 7.3-2.1-1-.4-1-.8.1-1.8.7-.7 1.6-4 2-7.2 2.2-17.2 5.3-45.8 5.1-46.1-.2-.2-11.6-.6-25.3-.9l-25.1-.6zM814.6 32.6c-.3.7-1.7 11.8-3.2 24.6-1.9 16.5-2.3 23.3-1.5 23.6 1.4.5 1.5 6.2 0 6.2-.5 0-.8-.4-.5-.8.2-.4.1-1.4-.5-2.2-.6-1.1-.9-.8-.9 1.2V88l9.3-.1c11.9-.2 37-1.5 33.7-1.8l-2.5-.2 2.3-.9c1.2-.5 2.7-2.1 3.2-3.6.8-2.1 7-39.7 7-42.6 0-.4-1-.8-2.1-.8-1.8 0-10.8-1.4-41.6-6.3-1.2-.2-2.4.2-2.7.9M461 33.1c1.1.8.6.9-2.1.5-3.1-.6-38.5 4.6-39.6 5.8-.5.4 3.4 29.5 4.4 33.6.6 2.2.7 2.1 1.3-1.5.7-3.8.7-3.9.9-.8 0 1.8.6 3.3 1.1 3.3.6 0 1 .9 1 1.9s.7 2.2 1.6 2.5c.8.3 1.3 1 .9 1.5-.3.6 2.7.8 8.2.4 4.8-.3 9-1 9.1-1.5.2-.4 2.1-.8 4.1-.8 4.7 0 5.1-.4 4.1-4.1-.9-2.9-.9-2.9 3.6-2.9 3.6 0 4.4-.3 4.4-1.9 0-1 .7-2.1 1.5-2.5 1-.3 1.5.1 1.5 1.1 0 .9.3 1.4.6 1.1s-.5-8.7-1.7-18.7c-2.1-16.9-2.4-18.1-4.3-18.1-1.8 0-1.9.2-.6 1.1M317.9 40.5c-.1 1.1-.3 2.5-.3 3.1-.1.6-.6 1.8-1.2 2.5-.6.8-2.3 4.3-3.8 7.9s-3.5 8-4.3 9.9c-1.3 2.8-1.3 3.5-.2 4.2s1.1.9-.1.9c-.9 0-2.1 1.4-2.7 3-.6 1.7-.7 2.8-.2 2.4.5-.3.9.2.9 1.1 0 4.8 7.5 9.7 11.2 7.3 1-.6.9-.8-.4-.8-.9 0-2-.5-2.4-1.1-.4-.8 0-.9 1.5-.4 1.8.6 2.1.2 2.2-2.7.1-2.7.3-2.9.6-.8.3 1.4.9 2.9 1.4 3.5 1.2 1.2 0-35.5-1.2-39.5-.6-2.2-.8-2.2-1-.5M409.7 42.9c-3.3 1.5-5.5 3-5 3.5s.3.6-.5.2c-1.1-.7-5.1.8-13.9 5.1-1.8.9-3.3 2.2-3.3 3 0 .7-.6 1.3-1.4 1.3s-1.7 1.5-2 3.5c-.4 1.9-1.2 3.4-1.9 3.2-.8-.1-1.1 1.1-1 3.8.1 2.2.3 8.3.3 13.6.1 9.3.2 9.7 2.1 9.2 1.2-.3 1.6-.9 1-1.2-.7-.5-.7-1.7-.1-3.6.8-2.9.9-2.9 1.5-.8.4 1.3 1.1 2 1.7 1.7.5-.3 1.5-.1 2.3.6 1.1.9 2.3.6 5.4-1.2l4-2.3 2.3 2.5c2.2 2.3 2.3 2.3 2.7.5.4-2.4 1.9-3.5 4.8-3.5s6.3-3.7 6.3-6.9c0-1.8.3-2.2.9-1.3.6 1 1 .4 1.6-2l.7-3.3 1.3 4c1.7 5 1.7 3.9.4-5-.5-3.9-1.2-9-1.4-11.5-1-10-1.8-15-2.4-15.4-.3-.2-3.2.8-6.4 2.3M861 56.2c-2.3 16.1-3.9 30-3.4 30.6.5.8 40.6 5.4 41.2 4.8.5-.6 2.3-34.7 1.9-35.9-.3-.6-.6.3-.6 2-.1 3.7-2 4.6-2.2 1-.1-1.2-.1-2.5 0-2.9.2-1.2-3.9-2.9-5.2-2.2-.6.4-.9.3-.4-.1.7-.8-5.5-4-20.2-10.5-3.8-1.6-7.3-3-7.9-3-.5 0-1.9 7.3-3.2 16.2M961.6 56.7c-.3 8.1-.9 18-1.1 22l-.6 7.1 3.6-.8c2.9-.6 3.8-.5 4.2.7.3.8.2 1.8-.3 2.2-1.5 1-1.5 3.1 0 2.5 1.1-.4 1.3 0 .9 1.6-.7 2.4 2.4 6.3 4.4 5.6 1.7-.7 2.8 1.8 1.9 4.1-.6 1.4-.8 1.4-2.2-.3s-1.5-1.4-.9 4.1c.4 3.3 1.2 6.9 1.9 8 .9 1.7 1.2.9 1.7-5 .4-3.9 1.3-12.2 1.9-18.5l1.3-11.5-4.6-11c-2.5-6.1-5.7-13.9-7.2-17.5s-3.1-6.9-3.5-7.3c-.4-.5-1.1 5.8-1.4 14M920 51.2c-5.8 2.2-11.5 4.1-12.7 4.2-2.4.1-2.6 2.1-.2 2.1.8 0 2 1.1 2.7 2.4 1.8 3.5 1.5 4.6-.9 2.5-1.7-1.6-2.2-1.6-2.9-.4-.8 1.2-1 1.1-1-.5 0-1.2-.3-1.5-.9-1-.5.6-1.2 8.1-1.5 16.7L902 93l2.8.7c1.5.3 4.5 1.4 6.7 2.4s5.1 2 6.5 2.2 3.2.7 4 1c4.7 2 10.4 3.6 10.9 3.1.3-.3.8-12.9.9-28 .4-26.1.3-27.4-1.5-27.3-1 .1-6.5 1.9-12.3 4.1M347.3 63.7c.4 8.7.7 19.7.7 24.5 0 4.9.3 8.7.8 8.6.4-.1 1.7.2 3 .6 2.4.8 9.2-1 9.2-2.5 0-.5.7-.9 1.5-.9.9 0 1.2.6.9 1.5-.4.8-1.2 1.5-2 1.5s-1.4.4-1.4.9c0 .4 1.1.6 2.5.3 1.4-.2 2.2-.9 1.9-1.4-.4-.6.3-.8 1.7-.3 1.9.5 2.1.4.9-.5-1-.8-1.1-1.3-.3-1.6 2.6-1.1 6.1-5.3 7.4-8.7 1.5-4.2 2.6-4.7 3.2-1.5.2 1.3.5-1.1.5-5.2 0-4.8-.2-6.8-.8-5.5-.4 1.2-.6-1.5-.4-6.5.4-7.8.2-8.4-1.2-4-.5 1.3-.7 1.2-1.5-.3-1.3-2.3-.3-5.5 1.9-6 1.2-.3.7-.6-1.3-1.1-1.6-.5-7.5-2.3-13-4.1l-10-3.2-.9 2.1-.9 2.1-.4-2.3c-.3-1.2-.9-2.2-1.5-2.2-.8 0-.9 4.7-.5 15.7M343.9 51.2c-.1.7-.1 1.9 0 2.6s-.3 1.1-.9 1c-1-.3-3.5 3.4-9.2 13.7-4.3 7.8-4.6 8.9-1.4 4.2 1.5-2 3-3.7 3.3-3.7.4 0 .2.5-.5 1.2s-1.2 1.9-1.2 2.7c0 2-3.9 7.1-4 5.3 0-1.9-2-.4-2.9 2.2-.6 1.5-.3 2.9 1 4.8 1.1 1.4 1.9 3.6 1.9 4.7 0 1.8.5 2.1 2.8 1.9 2.2-.2 2.8.1 3 2 .3 2 .9 2.3 3.8 2 2.3-.2 3.8.3 4.5 1.2.6 1 .9-7 .8-22.8 0-13.3-.2-24.2-.5-24.2-.2 0-.5.6-.5 1.2M936 76c0 22.5.2 25.2 1.5 23.4.8-1.1 1.5-1.4 1.5-.7 0 1.9 2.1 1.6 4.5-.7 2-1.8 8.5-4.5 8.5-3.5 0 .3-1.8 1.4-4 2.5-4.6 2.4-5.8 4.3-4 6.5 1.1 1.3.9 1.9-1 3.7-1.7 1.6-2.4 1.8-3 .7-.5-.7-.6-1.7-.3-2.3.3-.5.1-.6-.5-.2-2 1.2-1.4 2.7 4.4 9.8 6 7.3 9.3 10.3 5.5 5-2.9-4.1-1.4-4.2 1.8-.1 1.3 1.6 3 2.8 3.6 2.5.7-.2 1.8.1 2.4.7.8.8 1.1-2.9 1.1-14.2 0-8.7-.4-15-.9-14.7s-1.2-.1-1.5-1c-.9-2.2-.8-2.4.9-2.4.8 0 1.5-.9 1.5-2.1 0-1.3-.4-1.8-1.2-1.3-.7.4-.8.3-.4-.4.4-.6-.5-3.2-1.9-5.8-3.1-5.5-17.5-29.7-18.1-30.3-.2-.2-.4 11-.4 24.9M844 91.3c0 1-1.4 1.6-4.5 1.9-5.4.4-9.5-.7-5.5-1.4 1.4-.3-4-.6-11.9-.7l-14.4-.1.6 5.7c.4 3.2 1 9.3 1.3 13.5.6 7.3.7 7.6 2.8 6.8 1.7-.6 2.5-.4 3.4 1.1.9 1.4.9 1.9.1 1.9-.7 0-.5.9.5 2.4 1.1 1.8 1.2 2.6.3 2.9-2.8 1 8.4 3 15.6 2.8 5-.2 7.7.1 7.7.8 0 .6.9 1.1 2 1.1 1.3 0 2 .7 2 2s.7 2 1.8 2c2.7 0 3.3-1 2.1-3.2-.9-1.6-.7-2.3 1-3.5 1.3-.9 2.1-2.5 2.1-4.4 0-1.6.5-2.9 1-2.9.6 0 1-.7 1-1.6 0-.8.4-1.3.8-1 .5.3 1 2.9 1.1 5.9s.6 6.7 1.1 8.3c1.1 3.2.5-7.8-1.4-28.6l-1.1-12.5-4.7-.3c-3.7-.2-4.8 0-4.8 1.1M857.2 93.5c-.1 2.2.3 8.5.8 14s1.3 13.1 1.6 17c.7 7.5 2.2 13.1 2.3 8.7.1-1.3.6-3.3 1.2-4.4.9-1.8.8-2.4-.7-3.5-1-.7-1.4-1.3-.8-1.3.5 0 1.8.7 2.8 1.5 2.6 1.9 5.5 1.9 7.7-.1 3-2.7 9.2-2.9 15.8-.4 5.7 2.1 6 2.1 8 .4 1.2-1 2.1-2.7 2.1-3.8 0-2.3 1.5-1.1 2.4 1.9.7 2.4-.2-18.1-1.1-24.2-.4-3.2-1-4.3-2-3.9-.8.3-1.2.2-.9-.3.3-.4-2.9-1.1-7.2-1.5-4.2-.3-12.4-1.1-18.1-1.8-9.6-1.1-10.4-1.1-11.6.6-1.3 1.6-1.4 1.6-1.8-.6-.2-1.4-.5-.7-.5 1.7M792 91.9c-5.1.6-5.3.7-2.5 1.5l3 .8-2.4 1.1c-1.9.9-2.6.8-3.6-.7-1.2-1.6-2.4-1.7-12.7-1-6.2.4-11.6.9-12 1-.5.1-1.9.2-3.3.3-2.5.1-2.5.2-2.3 7.8l.2 7.8.6-7c.5-5 .7-5.8.8-2.8.1 2.4.9 4.9 1.9 5.8 1.6 1.6 1.7 1.6 2.9.1.9-1.2 1.4-1.4 1.9-.5.4.6.1 1.5-.6 2-1 .6-1 .9-.2.9.7 0 1 .7.7 1.5-.7 1.8.7 2 2.4.3.9-.9 1.2-.9 1.2-.1 0 .7-.9 1.5-2 1.8-2.6.8-2.6 3.5-.1 4.2 1.1.3 2.4 1.8 3 3.4.5 1.6 1.5 2.9 2 2.9.6 0 1.1.6 1.1 1.4 0 1.4 2.9 2.6 6.5 2.6 1.4 0 2.1-.7 2.2-2.1.1-1.2.4-2.4.7-2.6.8-.8 6.6 1.8 6.6 2.8 0 .5.9.9 2 .9s2 .4 2 1c0 1.7 7.6 1.1 9.7-.8 1.8-1.5 2.1-3 2.2-10.6.1-4.9.6-9.5 1.2-10.2s.7-2.3.4-3.5c-.4-1.3-.7-4.2-.7-6.6l.1-4.3-3.7.2c-2 .1-6.2.4-9.2.7M741.5 96c-6.3.7-12.2 2.9-8 3 1.7 0 1.7.2-.5 1.7-1.4.9-2.9 2.2-3.3 2.7-.6.8-1 .7-1.4-.2-.2-.6-1.1-1.2-1.9-1.2-.9 0-1.2-.5-.8-1.1.5-.9-.1-1-2.2-.5-5 1.2-5.9 1.1-5.6-.2.2-1.4-3.3-1.5-11.5-.6-6.3.8-7.2 2.5-1 2 2.3-.2 3.4-.2 2.5.1-2.1.5-2.4 1.9-.5 2.6.9.4.9.8-.1 1.5-2.5 1.7 2.9 2.2 5.5.5 2.1-1.4 2.6-1.4 3.3-.3.5.8 2.1 1.5 3.7 1.6 1.5.1 3.4.2 4.1.3.6 0 1.2 1 1.2 2.1 0 1.8-.6 2-5 1.8-5.7-.3-6.9.5-4.6 2.7.9.9 1.6 2.3 1.6 3.1s.7 1.4 1.5 1.4 1.5.9 1.5 2c0 1.3.7 2 2 2 1.1 0 2 .7 2 1.5s.9 1.5 2 1.5 2-.7 2-1.5.9-1.5 2-1.5c1.4 0 2-.7 2-2.1 0-1.8.4-2 3.3-1.4 1.7.4 3.4 1.1 3.5 1.6.2.5 1.3.9 2.4.9 1.2 0 2.7.8 3.4 1.7 1.2 1.6 1.3 1.5 1.4-1 0-2.6 2-4 2-1.5 0 .7.5.5 1.1-.5.6-.9 1.4-1.5 1.8-1.2.5.2.7-3.3.5-7.8-.3-5.5-.1-7.5.5-6.2.8 1.6 1 1 1-2.6.1-4.5 0-4.6-2.6-4.2l-2.8.4 2.8-1.6c1.5-.9 2.7-1.8 2.7-2 0-.6-3.6-.4-11.5.5M902 97.4c0 .7.7 8 1.5 16.2s1.5 17.1 1.7 19.7c.1 2.7.5 5 1 5.3.4.3.6-1.2.5-3.2-.1-2.6.3-3.8 1.3-4.1 1.3-.4 1.3-.3 0 .6s-1.3 1.1.3 1.1c1 0 2 .6 2.3 1.3.3.8 1 1.4 1.7 1.4 4.4.3 11.3 2.4 12.3 3.7.6.9 1.8 1.4 2.6 1.1s2.6.5 4.1 1.9c2.9 2.7 3.3 2.6 1.7-.4-.7-1.3-.7-2.1 0-2.5.5-.3 1.1-3 1.1-5.8l.2-5.2.6 5.7c.3 3.1.9 6 1.4 6.4 1 1 .9-.5-.9-16.3-.8-7.6-1.6-14.5-1.7-15.4-.1-1.1-.7-1.4-2-1.1-1.4.4-1.8.1-1.5-.9.5-1.4-7-4.7-20.7-9-7.2-2.3-7.5-2.3-7.5-.5M936.8 113.8c.8 8.7 4.2 32.6 4.7 33 .3.3.5-.3.5-1.4 0-2.7 5.9-7.6 9.5-7.9 1.6-.1 3.1-.7 3.3-1.4.2-.6.9-.8 1.5-.4.7.3.3-.3-.7-1.5-1.1-1.2-2.6-2.1-3.4-2-.8.2-1.7-.3-1.9-1-.3-.8.1-1 1.3-.5 1.1.4-.1-1.8-3-5.5-2.6-3.4-5.2-6-5.7-5.7s-.7 0-.4-.7c.2-.7-1-3-2.8-5l-3.3-3.6zM1259.5 346.2c-2.7.5-7 1.6-9.5 2.4s-6.2 1.4-8.2 1.4c-3.1 0-3.8.4-3.8 2 0 1.3-.7 2-2 2-1.1 0-2 .4-2 1 0 .5.9 1 2 1s2 .7 2 1.5c0 2.1 3.7 3.3 10.2 3.3 3 0 6.4.4 7.6 1.1 1.1.6 3 1.1 4.1 1.1 1.2 0 2.1.4 2.1 1 0 .5.8 1 1.8 1 2.1 0 6.2 2.7 6.2 4.1 0 .5-.9.9-2 .9s-2 .6-2 1.4c0 1.5-1 1.9-6.9 3.1-2 .5-3.1.3-2.8-.2.4-.6-1-.6-3.4.1-3.2.8-4.2.8-4.9-.4-.9-1.5-10-1.6-11-.1-1.1 1.6-20.9 10.3-21.9 9.7-.6-.4-1.1-.2-1.1.3 0 .6-1.1 1.1-2.5 1.1-1.5 0-2.5.6-2.5 1.4 0 .9-2.5 2.2-6.5 3.5-6.9 2.2-12.5 2.7-12.5 1.1 0-.6-.7-1-1.5-1s-1.5.7-1.5 1.5-.3 1.5-.6 1.5-3.7.5-7.5 1.1c-5.3.8-7.3.8-8.4-.1-1-.8-1.5-.9-1.5-.2 0 .6-1 .8-2.2.5-5.3-1.3-8.8-1.5-8.8-.5 0 .7-3.7.9-11 .5-8-.4-11-.3-11 .6 0 .7 2.8 1.2 8.3 1.3 7.5.1 7.2.2-3.7.8-8 .4-12.1 1-12.4 1.8-.2.7-1.6 1.2-3.2 1.2s-3.1.6-3.4 1.2c-.5 1-.7 1-1.2.1-.4-1-.9-.9-2.1.2-.8.8-2.3 1.5-3.4 1.5s-2.7.7-3.5 1.5c-.9.8-2.8 1.5-4.4 1.5s-3.1.4-3.4.9-1.8 1.2-3.3 1.6c-1.5.3-4.3 2.2-6.2 4.1-2.7 2.6-4.2 3.3-5.8 2.9-1.9-.4-2.3-.1-2.3 2 0 2.3-.4 2.5-4 2.5-2.2 0-4 .4-4 1 0 .5-.9 1-2 1s-2 .7-2 1.5.9 1.5 2 1.5 2 .4 2 1c0 .5 2.3 1 5 1 3.8 0 5 .4 5 1.5 0 1.2 1.5 1.5 7.3 1.6 3.9.1 7.7 0 8.2-.1 4.3-1.3 14.5-1 17.2.3 5.7 3 9.1 7.1 9.5 11.3.3 3.3.7 4 2.8 4.2 1.4.2 3 .8 3.6 1.3s4.5.2 9.5-.7c4.6-.9 9.6-1.8 11.1-2.1 2.8-.5 7.9 3.2 5.5 4-.7.2.2 1.1 2 2 1.8 1 5.3 3.1 7.9 4.9l4.7 3.1-6.4 1.8c-5.9 1.6-13.7 1.8-22.2.4-1.6-.3-3 0-3.2.8-.7 1.8-9.3 1.6-10.5-.3-.9-1.3-1-1.3-1 .1 0 2-4.1 4.2-6.6 3.6q-1.95-.45.9-.6c1.6 0 2.6-.5 2.2-1.1-.3-.6-3.9-.9-8.2-.7l-7.6.2-1.9 3.6c-1 2-2.8 4.4-3.9 5.5-1.1 1-3.3 3.1-4.9 4.7-2.4 2.3-3.5 2.7-7.2 2.3-4.8-.5-12.2-2.1-18.6-4.2-2.6-.9-8.6-1.4-15.2-1.4-6.1 0-11-.4-11-.8s-2-1.3-4.4-2.1c-3.8-1.1-4.8-1-6.8.2-1.4.9-4.7 1.5-8.4 1.4-4.2 0-6.8.5-8.8 1.8-1.5 1-4.3 1.8-6.4 1.7-2-.1-3.2.2-2.7.6 1.7 1.2.1 22.2-1.6 22.2-.5 0-.9-.6-1-1.3-.1-2.8-1.8 3.1-1.8 6.7-.2 11.5-12.3 34.8-19.5 37.5-1.2.5-2.7 1.5-3.3 2.2-.6.8-2.7 11.1-4.7 22.9s-4.5 26.2-5.6 32c-1 5.8-2.2 13-2.5 16-2.2 19.2-17.4 75.7-26.9 99.7l-2.5 6.3H1280V345l-7.7.1c-4.3.1-10 .6-12.8 1.1m-110.3 135.7c1.1.9 1.8 2.9 1.8 4.8 0 2.1.5 3.2 1.3 3 .7-.1 1.2.8 1.1 2.5-.1 2.6.1 2.8 4.2 2.8 2.6 0 4.4.5 4.4 1.1 0 .7-1 .9-2.5.7-1.4-.3-2.5-.2-2.5.2s-1.2.7-2.7.6c-1.6-.1-2.7-.6-2.6-1.1.1-.6-1.9-.9-4.8-.7l-4.9.4v-7.4c0-9.7 1.9-11.5 7.2-6.9m79.3.2c4.5.1 11.5 1.5 9 1.8-1.4.2 8.7 5.1 10.6 5.1 2.1 0 6 2.9 3.9 3-1.3 0-1.3.1 0 1 .8.5 1.1 1 .5 1-.5 0-.3.5.5 1.1 1.1.7-.6.9-6 .5-14.4-1-23.3-3.5-27.2-7.7-2.2-2.2-2.3-2.9-.3-2.9s.7-3-1.4-3.1c-.9-.1-.5-.4.9-.8 1.4-.5 2.9-.4 3.5.1.5.4 3.2.8 6 .9m-22.1 200.6c1.7 5.1 3.3 9.3 3.6 9.3s2-4.3 3.9-9.5c2.6-7.5 3.7-9.5 5.2-9.5 1 0 1.9.3 1.9.7 0 .5-2 6.2-4.4 12.8-3.5 9.7-4.8 12.1-6.5 12.3-1.2.2-2.1.1-2.1-.1 0-.3-2-6.2-4.5-13.1-4.3-12.3-4.4-12.7-2.3-12.4 1.8.2 2.7 1.9 5.2 9.5m29.7.2c1.6 1.6 2.9 3.9 2.9 5 0 1.9-.6 2.1-7 2.1-6.3 0-7 .2-7 2 0 3.5 5.9 5.3 8.9 2.6 1.2-1.1 2.1-1.2 3.1-.5 1.3.8 1.1 1.3-.9 2.9-4.1 3.5-11.8 2-14-2.7-3-6.5 1.3-14.3 7.9-14.3 2.2 0 4.1.9 6.1 2.9m22.3-.3c2 2.1 2.6 3.7 2.6 7.1 0 5.9-3.2 9.3-9 9.3-5.7 0-9-3.4-9-9.2 0-2.4.6-5 1.3-5.9 3.6-4.6 10.1-5.2 14.1-1.3M1.8 380.8C.1 381.1 0 390 0 550.6V720h167.1c158.8 0 167.1-.1 166.4-1.8-1.7-4.3-12.7-37.7-15.5-47.1-3.1-10.9-8.4-32.7-9.5-39.6-.4-2.2-1.3-7.2-2-11-.8-3.9-2.8-16-4.5-27s-4.2-25.4-5.6-32c-1.3-6.6-2.4-13.1-2.4-14.3 0-1.5-.4-2.1-1.2-1.6s-.9.2-.5-.9c.4-1.2-.2-2.1-2.3-3.2-1.7-.9-3-1.2-3-.8 0 .5-.9-.3-2-1.7-1.2-1.6-2-2-2-1 0 1.1-.3 1.1-1.2.2-1-1-1-1.5.2-2.3 1.3-1 1.3-1 0-.6-.9.3-2.4-.1-3.4-.9-1.1-.7-2.2-1.1-2.6-.9-.4.3-1.3-.2-2-1s-1.8-1.5-2.5-1.5-1.8-.7-2.5-1.5c-1.6-1.9-3-1.9-3-.1 0 .9-.7 1.2-2 .9-1.6-.4-2-1.3-1.8-4.2.1-2 .1-5.7 0-8.2l-.2-4.7-8.4.1c-9.9.1-11.6-.8-11.6-6.3 0-5.2.8-7 3.2-7 1.8 0 1.9-.4 1.3-3.7-.4-2.1-1.1-4.1-1.7-4.4-.6-.4-.5-.8.3-1.1.9-.3.7-1-.9-2.6-1.2-1.2-2.2-2.7-2.2-3.2 0-.6-.8-1-1.8-1-.9 0-2.2-.8-2.9-1.9-.6-1-2.5-2.1-4.2-2.4-1.8-.4-3.1-1.3-3.1-2.2 0-.8-.4-1.5-.9-1.5s-1.3-.9-1.6-2c-.4-1.3-1.5-2-3.1-2-1.5 0-2.4-.6-2.4-1.5q0-1.5-3-1.5c-1.9 0-3 .5-3 1.4s-1.6 1.4-5.6 1.5c-4.8.1-5.5-.1-5.2-1.7.2-1.1 1.4-1.8 3.6-2 2.4-.2 3.2-.8 3.2-2.3 0-1.2.7-1.9 2-1.9 1.7 0 2-.7 2-4 0-3-.4-4-1.6-4-.9 0-2.3-.9-3.3-2.1-1.1-1.4-3.3-2.3-6.5-2.6-2.7-.3-5-1.2-5.3-1.9-.6-1.6-7.3-1.9-7.3-.4 0 .5-.9 1-2 1s-2 .5-2 1.1c0 .8-.5.7-1.6-.2s-1.7-1-2.3-.1c-.5.8-1.5.5-3.2-1.1-2.4-2.1-2.6-3-3.3-14.1-.7-12.6-.9-13.2-6.4-16.4-1.2-.6-5.3-1.2-9.2-1.2-4 0-7-.4-7-1s-.7-1-1.5-1c-3 0-1.5-2.9 1.8-3.3l3.2-.4-3.2-.1c-3-.2-3.3-.5-3.3-3.2 0-2.9-.1-3-5-3-3.6 0-5.2-.5-5.9-1.8-.6-1-1.1-1.2-1.1-.4 0 1.6-10 .6-11.5-1.2-.5-.7-2.8-2-5-2.9s-3.5-1.6-2.8-1.6c2.6-.2 0-3.1-2.7-3.1-1.6 0-3.1-.6-3.3-1.3q-.6-1.5-.6 0c-.1 1.7-2.8 1.6-3.8-.1-.5-.9-3.3-1.5-8.5-1.8-6.1-.3-8-.7-9.5-2.4-1.4-1.5-2.8-1.9-6-1.7-2.9.3-4.3 0-4.3-.8s-.7-.6-1.8.4c-2.3 2.1-4.9 2.2-6.8.2-1.2-1.2-4.6-1.5-15.7-1.6-29-.2-35.4-.7-44.2-3.1-7-1.9-10-2.4-11.7-2M949.3 500.2c-3 .8-5.1 4.6-3.8 6.8.3.5-.7 1.3-2.2 1.6-1.7.5-2.8.3-3.1-.4-.6-1.9-2.2-.3-2.2 2.1 0 2 0 2-1.6.1-1.4-1.8-1.5-1.7-1 2.1 1 7.7 3.8 18.5 4.6 18 .5-.3.7-1.8.5-3.3-.3-2.3 0-2.7 2.3-2.9 1.4 0 3.2-.9 3.9-1.9s1.6-1.5 1.9-1.1c1.1 1-1.6 3.7-3.7 3.7-1.1 0-1.9.3-2 .7 0 .5-.2 1.8-.3 3-.2 1.3-.2 2.3-.1 2.3.6 0 16.5-19 16.5-19.7 0-.4-.7.3-1.6 1.5-.8 1.2-1.9 2.2-2.5 2.2-1.5 0-5 4-4.4 5 .7 1.2-.5 1.3-2.1.2-4.1-2.7-3.7-9.6.7-11.1 2.6-.9 2.9-1.5 2.9-5 0-3.1.3-3.9 1.4-3.5.8.3 1.6.2 1.9-.3.7-1.1-2.1-1.1-6-.1M930 508.2c0 2.1-.6 2.8-3 3.3-1.6.4-3.9.4-5 0s-3.6-.1-5.6.5c-2.8 1-3.5 1.6-3.1 3.2.4 1.5.3 1.7-.8.8s-1.2-.7-.8.9c.5 2 .1 2.1-5.5 2.1-3.8 0-6.2.4-6.4 1.2-.8 2.2-7.1-.4-7.9-3.2-.7-2.4-.7-2.3-.8.5 0 1.6.4 5 1 7.5s1.2 6.7 1.5 9.5c.9 10.5 3.8 29.5 4.3 28.7 1-1.5 5.4-2.6 4.9-1.2-.2.6-.8 1.2-1.3 1.2-1.4.1-3.7 3.6-3.3 4.9.3 1 4.9-2.6 23-17.8 4.2-3.6 7.4-7.1 7.2-7.8-.3-.6.6-2 2-2.9 1.5-.9 2.6-2.3 2.6-3 0-1.8 2.7-2.8 3.4-1.3.2.7.5-.1.5-1.7.1-2.3-.2-2.6-1.3-1.7s-1.5.5-2-2.1c-.4-1.9-.2-3.4.5-3.9.7-.4.9-2.1.4-4.8-.4-2.3-1-3.9-1.3-3.7-.4.2-.8-1.5-.8-3.9-.1-2.3-.6-5.1-1.2-6.1-1-1.7-1.1-1.7-1.2.8M962.3 532.6c-4.3 5.3-8.8 10.7-10 12.1-2.6 2.8-3 4.5-.8 3.7.8-.4 1.5-.1 1.5.4 0 .6-1.1.9-2.4.6-1.8-.3-2.9.5-5.1 3.6-1.7 2.5-2.5 4.6-2.1 5.7 1 2.5 6.6 10.1 9.9 13.4 3 3 3.3 3.9 1.3 3.9-.8 0-2.3-1.2-3.5-2.8-7-9.1-8.1-10.3-8.2-9.1-.1.8-.4.3-.8-1.1-.5-1.8-1.7 1.4-4.9 13.5-2.3 8.8-6.2 23.3-8.6 32.2-2.3 9-4.2 16.3-4.1 16.3.5 0 14.3-17.7 21.1-27 11-15 11.5-15.7 10.7-17.6-.4-1 0-2.1.8-2.8.8-.6 2.1-2.6 2.9-4.4 1.1-2.9 1.1-3.5-.1-4.3-1.1-.7-1-.9.4-.9 1 0 1.7-.6 1.6-1.3-.1-.6 0-1.9.4-2.7 1.9-5 2.5-8.3 2.3-11.2-.2-1.8-.1-2.4.1-1.3.4 1.3 1.3-.5 2.8-5.5 2.4-8.1 4.2-18 2.6-14.5-.9 1.9-1 1.9-1-.2-.1-1.7-.5-2.1-1.8-1.6-1.2.5-.8-.4 1.1-3 1.6-2 2.6-3.7 2.3-3.7s-4.1 4.3-8.4 9.6M861.3 527c-.3 1.2-2 2.8-3.7 3.6-2.3 1-2.6 1.3-1.1 1.4 2 .1 2 .1.1 1.2-1.5.8-2.1.8-2.4 0-.2-.7-1.1-1.2-1.9-1.2-1.4 0-1.3.3.2 2 1 1.2 2.5 1.8 3.2 1.5.8-.2 1.2-.1.9.4-.6.9 3.8 4.9 18.2 16.4 8.3 6.7 9.9 7.8 8.6 5.4-.4-.7-.3-.9.2-.4s.9 1.3.9 1.8c0 1.3 9.9 9 10.3 8 .2-.5-.6-6.4-1.8-13.1-1.1-6.7-2-12.7-2.1-13.3 0-.7-.5-.3-1 .8-.7 1.5-.8 1.1-.5-1.8.3-2 .1-3.5-.4-3.2-1.1.7-4.5-6.2-4.5-9 0-1.9-.8-2-11.3-2.3-11-.3-11.4-.3-11.9 1.8M816 536.7c-1.3.3-3.8 1.8-5.4 3.4s-3.3 2.9-3.8 2.9c-.4 0-.8.5-.8 1 0 1.4-6.6 8-8 8-.5 0-1-1.3-1-2.8 0-2-.7-3.2-2.2-4-1.3-.6-1.7-1.1-1-1.1.6-.1 1.2-.6 1.2-1.1 0-1.7-4.4-1.1-6.7.9-2.7 2.3-3.1 4.6-.6 3.7 1.5-.6 1.5-.4-.2 1.4-2.2 2.4-2.9 2.6-2.1.4.4-1.1.2-1.5-.8-1.1-.8.3-1.7-.1-2-1-.6-1.4-.8-1.4-2.1.3-1.5 1.9-1.5 1.8-.8-.1.6-1.8.5-1.8-1-.6-1.4 1.1-1.5 1.7-.6 2.8.7.8 1.8 1.2 2.5.9 1.3-.5 5.4 2.5 5.4 3.9 0 .5-1.1-.2-2.5-1.5s-2.5-1.9-2.5-1.4c0 1.5 8.8 9.6 9.8 9 .5-.3 1.8.1 2.8.9s1.4 1.5.9 1.5c-.6 0-1.7-.6-2.5-1.3-.8-.6-.6-.2.4 1 1 1.3 2.3 2 2.9 1.6.5-.3.7-.1.4.4-.8 1.3 2.7 4.6 3.8 3.6.4-.5.5-.3.2.3-.6 1 12.9 15.3 13.6 14.3 1.8-2.3 4.7-8.4 4.7-10 0-1.1.7-2.2 1.5-2.6 2.1-.8 19.6-30.5 19.5-33-.1-.4-1.3 1.4-2.7 4.2-1.7 3.2-2.8 4.5-3.1 3.5-.7-1.9-2.8-4-4.1-4-1.5 0-1.4 1.7.2 2.3.6.3.2.6-1 .6-1.8.1-2.3-.4-2.3-2.5 0-4.7-2.8-6-10-4.7M834.5 552.2c-4.3 7.3-9.7 16.4-12 20.3-2.3 3.8-4.5 7.7-4.8 8.5-.4.8-1.2 2.2-1.9 3.1-1 1.4 0 3.5 5.7 12.5 15.4 24.5 20.8 32.4 22 32.4.7 0 2.8-1.7 4.6-3.8 1.9-2.1 12-13.4 22.4-25.1 10.5-11.8 18.9-22 18.9-22.7-.1-.8.2-1.2.6-.9.4.2 1.5-.4 2.4-1.4 1.5-1.6 1.5-1.9.1-2.4-.8-.4-1.5-1.1-1.5-1.7 0-.7.7-.7 2.3.1 1.9 1 2 1 .7-.3-1.5-1.5-36-29-39-31.1-.8-.6.1.6 2 2.7 2 2.1 2.8 3.4 1.8 3.1-1-.4-1.8-1.1-1.8-1.6s-.6-.9-1.4-.9-1.6-.4-1.8-.9c-.2-.6-2.2-.6-5.2 0-5.3 1-6.8.6-5.9-1.6 1.5-4.2-1.3-.2-8.2 11.7M923 552.1c-8 6.5-16.8 14-19.7 16.6l-5.2 4.8-1.6 16c-.8 8.8-1.8 18.5-2 21.5l-.5 5.5 2.3-2.9c18.6-24.1 24.6-32.3 24.2-33.4-.3-.7-.1-1.1.4-.8s3.9-3.6 7.7-8.7c3.7-5 7.8-10.7 9.1-12.5 1.3-1.7 2.1-3.7 1.7-4.4-.4-.6-.6-3.4-.5-6 .2-4.7.1-4.9-1.8-3.8-2.5 1.3-2.7.7-.5-1.5.9-.9 1.5-1.8 1.3-2-.3-.2-7 5-14.9 11.6M754 547.5c0 1.3.4 2.6 1 3 .5.3.7 1.2.3 2-.3.8-.1 1.5.4 1.5s.8 1.3.5 3c-.3 1.9 0 3 .7 3s.9.5.6 1c-.3.6.1 1.3 1 1.6 1.1.4 2.7-.6 4.9-3.1 1.9-2.1 3.9-3.4 4.5-3.1.7.5.9.1.5-.8-.4-1.1 0-1.6 1.4-1.6 1.1 0 2.3-.8 2.7-1.8.5-1.3.3-1.4-.5-.5-.9.8-1.7.7-3.1-.5-1.1-1-4.3-1.9-7.2-2.2-3.2-.3-5.1-.9-5-1.7.1-.6-.4-1.4-1.2-1.7-1.1-.4-1.5.2-1.5 1.9M776 551.3c0 .4 1.2 1.9 2.8 3.2 2.5 2.3 2.6 2.4.6 2.5-1.2 0-2.7.7-3.4 1.5s-1.9 1.5-2.6 1.5c-.8 0-1.4.4-1.4.9s1 .7 2.3.5c1.2-.3.7.2-1.2 1.1-1.9.8-3.9 2.3-4.6 3.2-.8 1.1-1.4 1.3-1.9.5-1.1-1.9-2-1.4-3.9 1.8-1.7 2.8-1.7 3.1.2 6.7 6.1 11.8 13.9 21.4 25.6 31.7 10 8.9 12.1 10.4 12.8 9 .6-1.1.5-3.6-.3-7-1.2-5.1-.8-8.9.6-4.8 1.9 6.1 2.1 6.1 3.9-.1 1.7-5.7 3.6-10.8 5.6-14.7.5-1 .9-2 .9-2.3 0-1.5-18.3-18.4-19.3-17.8-.5.3-.7.2-.4-.4.3-.5-3.2-4.7-7.9-9.4-4.6-4.6-8.4-8-8.4-7.6M347 556.4c-.6 1.9-1.6 3.7-2.3 4-.7.2-.2.5 1.1.5 1.4.1 2.2.7 2.2 1.8 0 1.5-.2 1.6-1 .3-.5-.8-1-1.2-1-.7 0 1.8 4.6 7.7 5.7 7.2.7-.2 1.5.1 1.9.7.4.7.3.8-.4.4-1.9-1.2-1.4.3 1.5 4.2 4.7 6.3 8.1 10.1 8.6 9.4.2-.4.2-.1 0 .7-.2 1 11.8 18 21.4 30.1 1 1.2 1.2.9.8-2-.2-1.9-1.2-10.3-2.2-18.7-1.4-12.2-2-15-3-14.1-1 .8-1.3.5-1.3-1.3 0-3.1-1-4.5-3.8-5.3-1.2-.4-2.1-1.4-2-2.1.2-.8-.1-1.5-.7-1.7-.5-.2-2.5-1.9-4.5-3.8-3.6-3.7-7.6-4.7-9.5-2.3-.5.7-2.7 1.9-4.7 2.8-3.8 1.5-3.8 1.5-3.8-.9 0-1.8.6-2.5 2.2-2.8 2.7-.4 3.5-3.2 1.6-5-5.7-5.3-5.5-5.2-6.8-1.4M932 570.2c-3.3 4.6-7.3 9.9-8.8 11.8-4.8 6-26.8 35.4-28.5 38-1.2 1.8-2.4 9.8-4.2 27.5-3.5 34.1-3.9 38.1-3.3 37.5.8-.8 22.7-36.8 28.3-46.5 4.3-7.4 6-11.9 9.5-25 2.3-8.8 5.1-18.9 6.1-22.5s2.9-11.1 4.3-16.7c1.4-5.7 2.7-10.7 3.1-11.3.3-.5.4-1 .1-1-.2 0-3.2 3.7-6.6 8.2M338.6 566.5c.4 3 .3 3.6-.5 2.5-.9-1.2-1.1-.9-1.2 1.5-.1 1.6-.3 2.3-.6 1.3-.2-.9-1.1-1.9-1.9-2.2-.9-.3-1.2-.1-.9.4.3.6 0 1.3-.8 1.6-.9.3-1.8 1.5-2.1 2.8-.3 1.2-1.9 3.4-3.5 5l-2.9 2.8 1.9 3.3c1.1 1.8 2.7 3.9 3.6 4.7 1.5 1.1 1.6 1.1 1-.5-.4-1.1-.3-1.6.4-1.2.6.4.8 1.4.5 2.2-.6 1.5 4.2 8.6 14.9 22.2 3.3 4.2 6.9 8.7 7.9 10.1 1.5 2.1 1.7 2.1 1.3.5-.6-2.4-4.4-16.2-6.2-22.5-.7-2.5-2-7.2-2.8-10.5-6.3-23.7-9.5-33.1-8.1-24M342.6 565c.4 1.4 1.7 6.1 2.9 10.5 1.3 4.4 3.7 13.4 5.4 20 3.6 14.6 6.8 26.8 8.3 31.5 1 3.1 31.8 55 34.1 57.5.6.6.7.3.3-1-.3-1.1-1.2-8.8-2-17-3.2-31.2-3.8-35.4-5.2-34.8-.9.3-1.4-.2-1.4-1.2s.5-1.3 1.2-.9c.8.5.9-.6.4-4.1-.5-4.1-2-6.8-9.3-16.5-17.7-23.3-20.4-26.5-22.4-26.2-1.2.2-1.9-.3-1.9-1.3s.5-1.3 1.2-.9c1.4.9.6-.6-4-6.9-1.9-2.6-3.7-4.6-4-4.3s.2 1.4 1 2.3c2.3 2.7 3.3 4.7 2 3.9-.8-.4-1.2 0-1.2 1.1-.1 1-.9-.7-2-3.7-1-3-1.7-5.7-1.5-6.1.3-.3-.2-1.5-1-2.5-1.3-1.8-1.4-1.8-.9.6M416.5 567.7c-1.3 1.2-1.9 1.3-2.4.4-.5-.8-2.9-1.1-6.8-.9-5.9.3-6.1.4-7.3 3.7-1.2 3.4-1.3 3.4-2.4 1.2-1.1-2-1.3-1.9-2.6 2.9-.7 2.7-1.6 5-1.9 5-.2 0-1.4-.8-2.5-1.8-2-1.7-2-1.6-.6.3.8 1.1 3.1 3.8 5.1 6s4.9 5.5 6.4 7.3c1.5 1.7 3.2 2.9 3.7 2.5.6-.3.8-.1.5.4-.8 1.3 14.3 17.9 16 17.7.7-.1 1 .2.7.7-.7 1.2 10.6 13.4 12.3 13.3.7-.1 1.3.7 1.3 1.9 0 1.8.2 1.8 2.3-.7 2-2.3 16.3-24.5 23.9-37.1 1.5-2.5 2.5-5.2 2.1-6.1-.5-1.3-.8-1.3-1.5-.2-.8 1-1.1 1-1.5 0-.2-.7-1-1.8-1.7-2.5-1.7-1.7-2.7-4.7-1.6-4.7 1.5 0 1.2-2.6-.5-4-1-.9-1.5-.9-1.5-.1 0 .6.5 1.1 1 1.1.6 0 1 .6 1 1.2-.1 1.1-3-1.8-7.1-7-.6-.8-4-1.2-9.9-1.2-7.3 0-9 .3-9 1.5 0 .8-.1 1.5-.2 1.5-.2 0-3.2-.9-6.8-2s-6.6-2-6.7-2-.9.7-1.8 1.7M478.2 576.3c-9.1 9.2-10.3 10.9-8 12.3.8.5.9.2.5-1-.8-2 1.7-5.1 3.3-4.1.5.3.7 0 .4-.8-.5-1.4 2.2-4.4 3.1-3.5 1.2 1.2.7 7.7-1 11.1-.9 2-1.5 4.8-1.3 6.2.3 1.4.1 2.5-.4 2.5-.6 0-.7 1.2-.4 2.7.6 2.4 4.5 13.1 5.3 14.2.6.9 13.2-10.2 12.6-11.1-.4-.7-.1-.8.6-.3.8.5 3.1-1 6.2-4.1 6.6-6.5 14.4-18.5 9.2-14.3-1.5 1.3-1.5 1.2-.2-.8.8-1.3 1.6-1.8 2-1.2.3.6 2.3-1.5 4.3-4.7 3.6-5.9 4.9-9.6 1.9-5.9-1.5 2-1.5 2-1-.3.6-2.8-2-4.5-4.7-3-.9.5-2 .7-2.3.4-.4-.3-1.2.3-2 1.4s-2 1.7-2.9 1.3c-1-.4-1.5-.1-1.4.8.1.8.2 2.1.1 2.9-.1 1.3-.2 1.3-1.1 0-.6-1-1-1.1-1-.3 0 .7-.7 1.3-1.6 1.3-1.3 0-1.2-.3.5-1.8 1.5-1.2 1.9-2.4 1.5-4-.8-2.8-3.1-2.8-5.5-.1-1.4 1.6-2.5 2-4.4 1.5-1.4-.4-2.5-1.1-2.5-1.7s-1.3.3-3 1.9c-1.6 1.7-3 3.5-3 4.1s-.7 1.1-1.5 1.1c-2.5 0-1.7-1.9 2-5.2 3.1-2.6 6.3-6.8 5.3-6.8-.2 0-4.5 4.2-9.6 9.3M664 571.9c0 .6.6 1.1 1.3 1.1.8 0 .7.3-.2.9-1 .6.1.8 3 .4 3.6-.5 4.2-.3 3.2.8-.7.7-1.3 2.1-1.3 3.1 0 .9-.9 2.2-1.9 2.8-4.6 2.4-4.9 3.5-4.5 13.7.2 5.4.4 10.1.4 10.5s1.1.7 2.5.6c3.4-.3 3.2-1.8-.2-1.8-2.5 0-2.6-.1-1.1-1.6s1.8-1.5 3.9 0c1.3.9 4.1 1.6 6.2 1.6 3.2 0 3.8-.3 3.3-1.6-.3-.9-.6-2-.6-2.6s-1.3-.8-3.5-.4l-3.5.7 3.4-3.5c2.9-2.9 3.5-4.3 3.9-8.8l.3-5.3.2 5.2c.1 3.2.7 5.3 1.3 5.3.9 0 1-2.3.5-8.3-1.1-13.1-.9-12.7-7.6-12.7-3.2 0-6.5-.3-7.4-.6s-1.6-.1-1.6.5M609.3 572.9c-2.8.4-5.4.9-5.7 1.2s-1 4.5-1.5 9.4c-.8 6.9-.8 9.1.2 9.7.6.4.8.8.2.8-.5 0 0 .6 1.1 1.3 1.2.6 5.4 3.4 9.4 6 3.9 2.7 7.5 4.6 7.8 4.2.4-.4.8-7.3.9-15.3.1-8.1 0-14.1-.3-13.5-.9 2-2.1 1.5-2.7-.9-.4-1.3-.1-2.6.6-3 1.4-.9-2.2-.8-10 .1M649.3 577.3l-7.3 4.2v12.2c0 7.1.4 12.4 1 12.8.6.3 1 .2 1-.3 0-.4 1.7-1.6 3.7-2.6 2.1-1 5.4-3.1 7.4-4.7s4.2-2.9 4.8-2.9c1.3 0 1.4-2.6.4-13.4-.4-5.2-.9-7.3-1.5-6.2-.9 1.6-3.8 1.2-3.8-.6 0-.5.4-.7.8-.4.5.3.9-.1.9-.9s-.1-1.5-.1-1.4c-.1 0-3.4 1.9-7.3 4.2M625.1 580.1c0 3.1-.4 8.9-.7 13l-.7 7.4 6.4 3.3c4.8 2.5 6.5 2.9 7.1 2 .6-1 1-1 1.8.2.7 1 1-2.6 1-11.6v-13l-3.5-1.7c-1.9-.9-3.8-1.7-4.3-1.8-.4 0-1.4-.7-2.3-1.5-1.5-1.3-1.7-1.3-2.3.1-.3.9-.2 1.3.4 1s.7.1.4.9c-.9 2.5-2.2 1.9-2.7-1.2-.2-1.5-.5-.2-.6 2.9M876.7 596.5c-9.7 11-20.9 23.4-24.8 27.7l-7 7.6 4 12.4c2.2 6.7 5.2 17.6 6.7 24.1 1.4 6.5 2.8 11.6 2.9 11.5.1-.2 2.1-3.9 4.5-8.3s6.9-12.5 10-18c3.2-5.5 8.5-15.2 11.8-21.6l6.1-11.5 2.1-19.8c1.2-10.9 2-20.8 1.8-22-.2-1.7-4 2-18.1 17.9M385.4 587c2.1 27.8 4.7 39.9 8.1 38.6.7-.2 1.6.2 1.9 1.1.4 1.1.2 1.4-.9.9-.8-.3-1.5-.3-1.5 0s6.4 12.2 14.3 26.4c12.7 23.2 14.3 25.7 14.9 23.2.4-1.5 2.3-9.3 4.3-17.3 3.4-14.6 7.1-25.9 8.6-26.9.4-.3-7.3-9.3-17.3-20-9.9-10.7-20-21.6-22.5-24.3-2.4-2.6-4.8-4.5-5.3-4.2-.6.4-.7-.2-.3-1.1.5-1.3.3-1.6-1-1.1-1.1.4-1.4.2-1.1-.7.3-.7-.3-1.9-1.2-2.7-1.6-1.3-1.6-.7-1 8.1M810.7 596.3c-1.5 3.9-3.9 10-5.3 13.5-1.3 3.4-2.4 6.9-2.4 7.7 0 1.2 20.6 18 28.1 22.8l2.6 1.7 4-5.1 4-5.2-9-14.1C815.6 590.7 814.5 589 814 589c-.3 0-1.8 3.3-3.3 7.3M954 589.7c0 1-5.6 8.6-25.3 34.2-5.4 7-5.5 7.4-4.1 9.7.9 1.2 1.4 3.3 1.2 4.6-.3 2.2-.4 2.2-1.9-.6-2-3.6-2.1-3.4-4.4 9.9-.9 4.9-2.2 12.1-3.1 16-1.6 7.8-6.4 33.2-6.4 34.1 0 .3 4.7-6.5 10.5-15.1 5.8-8.7 10.5-16.6 10.5-17.6 0-1.1-.9-5.2-2-9.1-1.1-4-2-8.2-1.9-9.3 0-1.1 1.2 2 2.7 6.9 1.4 5 2.7 8.6 2.9 8 1.4-4.3 15.9-51.3 17.3-56.2 1.1-3.5 1.6-7.1 1.3-8s-.2-1.4.2-.9c.9.7 3.8-6.3 3-7.2-.3-.2-.5 0-.5.6M326 590.4c0 .4.5 1.7 1.2 2.9s1.4 3.3 1.6 4.7c.3 2.2 3 11.3 10.7 35.5 2.1 6.9 3 7.9 4.6 5.3.6-.9.9-.9.9-.1 0 .7-.7 1.6-1.6 2.1-1.4.8-1.4 1.7.6 8.8 1.2 4.3 2.5 8.5 2.9 9.2.7 1.2 7.1-16.6 7.1-19.6 0-.6-1-1.2-2.2-1.3-2.1-.1-2.1-.2.4-1.2 1.5-.6 3.2-2.3 3.8-3.8 1.1-2.6.7-3.3-6.2-12.1-8.3-10.4-8.8-11.1-17.5-22.8-3.5-4.6-6.3-8-6.3-7.6M762.9 597.3c-.6 2.8-3.2 11.2-5.6 18.6-2.4 7.3-4.2 13.5-4.1 13.7.2.1 2.1-1.4 4.4-3.4 2.2-2 8.4-7.4 13.8-12 5.4-4.5 9.4-8.2 9-8.2-.5 0-.2-.4.5-.9 1.2-.8.7-1.7-2.5-4.6-2.1-2-5.9-4.6-8.4-5.7s-4.8-2.2-5.2-2.4c-.3-.2-1.2 2-1.9 4.9M466.7 594.7c-.4.3-.7 1.5-.7 2.5 0 1.1-.7 1.8-1.9 1.8-1.1 0-2.2.6-2.4 1.2-.3.7-.6.4-.7-.7-.1-1.9-.2-1.9-2.1.4-1.1 1.3-1.7 2.6-1.4 3 .3.3 1-.1 1.5-.9.8-1.3 1-1.2 1 .2 0 1-.4 1.9-1 1.9-.5.1-1.5.2-2 .3-1.1.1-5 5.5-5 6.9 0 .5.5.5 1.2.1s.8-.3.4.5c-.4.6-1.1.9-1.6.6-.4-.3-3.2 3.2-6 7.8-2.9 4.5-5.9 8.7-6.8 9.4-1.2 1-1.3 1.5-.3 2.7.7.8 1.8 1.3 2.5 1 1.3-.5 3.9 2 4.9 4.8.4 1 .2 1.8-.3 1.8s-1.1-.9-1.5-1.9c-.3-1.1-1.2-2.2-2-2.5-.9-.3-.5.9 1.1 3.4l2.6 3.9 8.2-6.2c15.3-11.7 22.6-17.8 22.6-18.8 0-2.6-5.5-16.1-6.7-16.6-.7-.3-1.3-.9-1.3-1.5 0-.5.5-.6 1-.3 1.2.8 1.3.3 0-2.9-.9-2.6-2.1-3.2-3.3-1.9M510.4 595c-1.2.5-2.5 1.3-2.9 1.9-.3.6-1 .9-1.5.6s-2.4 1.4-4.4 3.6c-3.2 3.8-3.4 4.3-1.9 5.4 2.1 1.5.9 3.5-1.7 2.8-1.2-.3-2 0-2 .7s1.9 8.2 4.1 16.9c2.3 8.6 4.4 17.3 4.6 19.3.3 2.1.9 3.8 1.3 3.8 1.4 0 21-15.9 21-17 0-.4-3-3.1-6.7-6.1-10.3-8.2-17.3-14.3-17.3-15.2 0-1.8 2.7-.2 9.9 6 10.4 9.1 13 11.3 13.6 11.3.2 0-.9-3.7-2.4-8.3-1.6-4.5-3.9-12.1-5.2-16.9-2.1-7.6-2.6-8.7-4.3-8.2-1.2.4-1.6.2-1.2-.5.8-1.3-.1-1.3-3-.1M756.4 599.9c-7.4 8.4-7.7 9.2-6.9 17.8 1.2 12.7 1.7 12.5 5.9-1.9 4.1-14.3 5.6-20.1 5.3-20.4-.1-.1-2 1.9-4.3 4.5M953.4 602.6c-.6 2.2-4.1 13.6-7.9 25.4-9.2 29.4-9.5 30.4-8.6 29.4 1.4-1.6 12.5-21.6 16.3-29.4 4.4-9.1 5.5-13.2 3.3-12.4-1.7.7-2.1-2.1-.5-3.1 1.4-.8 1.2-7.4-.3-10.9l-1.2-2.8zM325.4 604.4c.1 1.9.4 3.2.9 2.9.4-.2.7 0 .7.5 0 .6-.6 1.2-1.4 1.5s-1.7 1.9-2.1 3.6c-.7 3.3 1 10.1 2.6 10.1.6 0 .7.5.4 1-.4.6.6 3.6 2 6.7 2.1 4.3 2.9 5.3 3.7 4.2.7-1 .8-.9.4.7-.6 1.9 1 5.3 8.7 18.2 3 5.1 3 4.9-.9-7.8-1.4-4.7-3-10.1-3.5-12-2.5-8.9-9.4-29.7-10.4-31.2s-1.1-1.2-1.1 1.6M782.7 606.5c-.5 1.2-3.3 3.7-22.5 19.9l-8.1 6.8 10.2 8.4c5.6 4.6 10.7 8.4 11.3 8.4s1.6-1.9 2.2-4.3c1.5-6.1 6.1-18.5 6.1-16.7.1.8-.6 4.2-1.4 7.5-.9 3.3-1.7 6.8-2 7.8-.2.9-.7 2.2-1 2.7-.3.6-.3 1 .2 1 .7-.1 15-18.2 19.9-25.4l2.2-3.2-5.9-5.3-5.9-5.2v3.5c0 2-.4 3.6-1 3.6-.5 0-1 .9-1 2.1 0 1.1-.4 1.8-.9 1.5-.5-.4-.4-2.9.3-6 1.2-4.9 1.1-5.6-.5-6.9-1.4-1.2-1.8-1.3-2.2-.2M670 607.5c-3.6.7-6.7 1.3-6.9 1.4s.6 1 1.9 2.1 2 2.3 1.6 2.8c-.4.4-1.4-.1-2.1-1.1s-1.5-1.5-1.8-1c-.5 1-.9 10.3-.3 10.3s7.8-2.9 10.4-4.2c2.2-1.2 4.5-5.1 5.5-9.6.6-2.5.9-2.4-8.3-.7M642.1 621.2l-.2 8.7 4.5-2.5c2.5-1.4 4.9-3 5.2-3.5.9-1.6-.5-2.4-1.8-1.1-1.5 1.5-2.8 1.5-2.8.1 0-.5.4-.8.9-.4.5.3 1.2-.4 1.6-1.5s1.5-2 2.6-2c1.3 0 1.8.4 1.3 1.2-.5.7-.3.8.5.4.7-.5 1-1.5.7-2.3s-.2-1.1.3-.8c1 .5 2.7-3.6 2-4.5-.2-.3-3.6-.5-7.5-.5h-7.1zM486.6 617.1c-1.5 1.2-2.6 1.6-2.6.9 0-1-.4-.9-1.5 0-.8.7-1.5 1.6-1.5 2 0 .7 14.8 20.6 19.6 26.3l2.3 2.7-.6-3.7c-.7-4.8-1.7-9-4.2-17.8-1.1-3.9-2.1-8.2-2.1-9.8 0-2.4-.4-2.7-3.4-2.7-1.9 0-4.5.9-6 2.1M744 622.3c-3.1 6.4-8.4 11.8-17.8 18.1-6.9 4.7-10.2 7.9-10.2 10 0 .9 1.9-.6 5.8-4.7 1.7-1.8 4.2-2.3 4.2-.9 0 .8-5.5 5.2-9 7.2-.8.5-1.2 1.1-1 1.4.3.2 3.9-1.6 8-4.1 14.6-8.8 23.1-14.6 22.3-15.4-1.2-1.1-5.6-1.5-7-.6-1.8 1.1-1.6-.8.2-2.3.8-.7 2.6-.9 4.2-.6 4.8 1 5.4-.2 4-7.1l-1.2-6.1zM463.4 632.4c-7.7 6.1-14.2 11.3-14.5 11.6-.2.3 2.3 3 5.6 5.9 3.3 3 9 8.3 12.8 11.9l6.7 6.4.1-3.3c0-1.9.8-12.4 1.8-23.4s1.8-20 1.7-20.1c-.1 0-6.4 4.9-14.2 11M789.1 637.1c-6.3 8.1-11.4 15-11.5 15.4-.1 1.1 25.5 16.8 26.2 16 .6-.6-1.6-35.1-2.7-42l-.6-4.1zM803 624.4c0 3.1 3 40.8 3.3 42 .2.5 6-4.4 13-10.9l12.6-11.7-7.7-5.9c-20-15.4-21.2-16.1-21.2-13.5M478.1 638.6c-.7 8.7-1.7 19-2.1 22.9-.5 3.8-.6 7.3-.4 7.7.3.4 2.7-.7 5.4-2.5 2.7-1.7 8.7-5.6 13.4-8.6l8.5-5.4-8.9-11.6c-4.9-6.4-10.2-13.1-11.8-15l-2.8-3.4zM882.5 640.8c-3.8 6.9-8.9 16-11.3 20.2-2.3 4.1-5.8 10.5-7.7 14.2-3.3 6.3-3.4 6.8-1.5 6.8 1.1 0 2 .5 2 1.1 0 .7-1 .9-2.5.5-1.4-.4-2.5-.3-2.5.1 0 .5.7 7.1 1.5 14.8s1.5 15.7 1.7 17.7c.2 3.8.2 3.8 4.5 3.8 2.4 0 4.3-.4 4.3-.9 0-.4 2.7-6.5 6-13.4 6.3-13.4 6.7-14.6 4.8-16.5-.9-.9-.8-1.2.4-1.2s1.8-1.8 2.6-7.8c1.7-11.7 5.4-50 5-51.2-.1-.5-3.4 4.8-7.3 11.8M390.4 634.2c.3 2.9 1.3 11.8 2.1 19.8s2 18.8 2.7 24.1c1.1 9.2 1.2 9.5 3.5 9.1 2.9-.5 3.1 1.4.2 2.3-2.6.8-2.6.6 4.8 17 5.9 13 5.9 13 9.5 13.3 4.2.4 3.5 2.5 6.3-21 2-17 2.3-15.7-2.7-15.1-4.1.4-4.2.4-1.9-1 1.4-.8 3.2-1.2 4-.9 1.7.6-1.6-5.6-20.1-38.6-4.4-7.8-8.3-14.2-8.5-14.2s-.2 2.4.1 5.2M954.6 640.7c-3.6 13.9-11.6 47.3-11.5 48.7 0 .6 2.4-3.6 5.3-9.4 6.2-12.3 9.9-25.5 7.5-27.1-1.2-.7-1.1-.9.4-.9 1.1 0 1.7-.8 1.7-2.3 0-1.8-.2-1.9-1.1-.7-1.1 1.6-.7-6.5.6-14.3 1.2-6.8-.2-3.8-2.9 6M533 633.8c0 1 10 7.9 18.5 12.8 3.8 2.2 8.2 4.8 9.8 5.8 1.5 1 2.7 1.4 2.7.9s-1.2-1.6-2.7-2.4c-1.6-.8-3.4-1.9-4-2.6-.7-.6-1.8-1.3-2.5-1.5-.6-.2-.8-.9-.4-1.6.8-1.3 4.9.9 7.8 4.3 1 1.1 1.7 1.5 1.8.9 0-1.8-2.9-4.6-11.2-10.8-4.2-3.2-8.1-5.5-8.7-5.2-.5.4-2.1.1-3.5-.5-2.9-1.3-4.9-.4-2.6 1.1 1.3.8 1.2 1-.2 1-1 0-1.8-.4-1.8-.9s-.7-1.1-1.5-1.5c-.8-.3-1.5-.2-1.5.2M356.1 638.8c-.8 2.6-2.7 8.7-4.3 13.6s-2.9 10-3 11.2c-.2 1.5 3.5 7.9 10.2 17.8 5.8 8.4 10.6 15.3 10.7 15.2.1 0-.3-2.1-.7-4.6-.5-2.5-3-16-5.6-30-2.5-14-4.9-26.1-5.3-26.7-.4-.8-1.2.7-2 3.5M434.6 638.3c-3.8 10.8-4.7 13.5-6.1 20.2-.8 3.8-2.2 9.7-2.9 12.9-.8 3.2-1.1 5.5-.6 5 .9-1 12.9-20.4 16.8-27.2 2.7-4.9 2.5-6.1-2.8-12.4l-2.7-3.2zM840.2 637.6c-1.8 2.2-3.2 5-3.2 6.5 0 2.5 16.8 31.4 17.7 30.5.7-.6-6.3-27.3-8.9-34.5l-2.4-6.4zM944.7 648.2c-4.6 7.9-9 15.4-9.7 16.7-.9 1.8-1.1 5-.5 12 .3 5.3.4 9.4.1 9.1-.6-.6-1.4-5.4-1.5-8.9-.1-1.3-.3-2.2-.5-2-.3.3-2.5 9.7-5.1 20.9-2.5 11.3-4.8 21.3-5.1 22.3-.5 1.5-.1 1.8 1.7 1.5 1.8-.2 3.5-2.4 7-8.7 4.7-8.4 4.7-8.4 4.3-16.5-.4-8.9.1-9.1 1.4-.6l.8 5.5 1.7-5.6c.9-3.1 2.3-8.5 3.1-12s2.8-12.5 4.5-19.9c1.8-7.4 3-14.3 2.7-15.3-.2-.9-.1-1.5.4-1.2.4.2 1.4-2.2 2.2-5.5s1.3-6 1.2-6c-.2 0-4.1 6.4-8.7 14.2M323.4 637.9c.4 2.5.2 3.7-1 4.6-1.5 1-1.4 2.2.9 13.6 1.9 9.8 3.6 14.7 7.7 23.2 2.8 6 5.4 10.7 5.6 10.4.2-.2-1.4-7.8-3.6-16.8-2.3-9-5.2-21.1-6.7-26.9-2.4-10.1-4.3-15.1-2.9-8.1M327 635.6c0 .6.7 1.9 1.5 3 1.6 2.1 2 3.8.7 3-.5-.3-.1 3 .9 7.2 6 27.1 9.2 40.4 10.8 45.7l1.8 6 .7-8c.4-4.4 1.1-10.2 1.7-12.8 2.1-10.9 1.6-12.7-7.8-28.6-9-15.2-10.3-17.2-10.3-15.5M517.8 643.8c-5.9 4.8-10.7 8.9-10.7 9.2-.1.3 1.4 1.4 3.2 2.5 9.2 5.6 14.2 8.1 24.7 12.6l11.5 5 2.2-2.5 2.2-2.6-3.2-5c-12.2-19.1-18.1-27.9-18.7-27.9-.3 0-5.3 3.9-11.2 8.7M745.9 642.2c-2.4 3.4-5.7 8.3-7.4 10.8-1.6 2.6-4.3 6.6-5.8 8.9-3.9 5.9-4 6.3-.7 8.8l2.8 2.3 11-4.9c11-4.8 27.3-13.8 27.1-15-.1-.8-20.8-17.1-21.7-17.1-.5 0-2.8 2.8-5.3 6.2M361.3 638.2c.3.9 1.3 6.1 2.2 11.5s3 17.2 4.6 26.3c1.7 9.1 3.3 18 3.6 19.7.3 1.8.6 3.3.7 3.3 0 0 2.6-1 5.6-2.3 9.6-4.1 15-7.1 14.6-8.2-.2-.5-.8-.9-1.3-.8-1.6.3-5.6-4.4-5-5.9.3-.8.9-.3 1.7 1.4.7 1.6 1.7 2.8 2.2 2.8 1 0-1.3-4.1-13.1-23.5-10.1-16.7-16.6-26.6-15.8-24.3M535.2 640c3 4.4 13.2 20.7 15.2 24.2l1.9 3.3.8-2.5c.4-1.4.7-4.6.8-7.3.1-2.6.5-4.7.9-4.7s.5 2.5.2 5.5c-.7 6.6.5 7.1 4.4 2 1.5-2 3.1-3.3 3.7-3 .5.3.6 0 .3-.8-.2-.7-2.2-2.2-4.2-3.1-4-2-20.5-12-23.7-14.5-1.9-1.6-1.9-1.5-.3.9M743.9 639.4c-2.1 2-22.5 14.3-24.8 15.1-3 .9-2.6 2 2 6.8l4.1 4.2-.5-5.5c-.4-4-.3-4.9.4-3.1.5 1.3 1 3.8 1.2 5.7.3 4.3 1.5 3.9 4.7-1.4 1.4-2.3 5.3-8.3 8.8-13.3 6-8.7 7.3-11.5 4.1-8.5M916.5 641.3c-1 1.8-8.1 13.3-15.7 25.5-7.7 12.3-13.7 22.6-13.4 22.9 1.8 1.9 19.8 9.8 20.1 8.9.2-.6 1.1-5.4 2-10.6s2.1-11.1 2.6-13c1.4-5.9 6.9-36.3 6.6-36.6-.2-.2-1.1 1.1-2.2 2.9M446 646.2c0 1.2 5.8 21.6 8.7 30.6l3.6 11.2 6.8-7.2c3.8-4 7.1-8.1 7.4-9.1.6-1.7-1-3.4-20.1-21-4.4-4-6.4-5.4-6.4-4.5M819.7 657.6c-7 6.4-12.7 12.1-12.7 12.6 0 1.8 13.8 17.3 14.6 16.5 1-1 5.7-14.8 8.4-24.7 3.8-14.1 4.2-16 3.2-16-.4 0-6.5 5.2-13.5 11.6M834.8 651.6c-.3 1.6-3.1 10.8-6.2 20.4l-5.6 17.5 2.6 3.5c1.4 1.9 3.5 5 4.7 6.7 1.2 1.8 2.5 3.3 2.8 3.3s5.6-4.6 11.8-10.1c8.1-7.4 11-10.6 10.6-11.8-.7-1.9-16-26.7-18.5-30l-1.7-2.4zM442.4 652.6c-3.4 4.9-18.4 29.1-18.4 29.7 0 .2 5 5.1 11.1 10.8 12.6 11.7 11.2 11.6 18.2 1.1 2.9-4.2 3.4-5.8 2.7-7.5-.4-1.2-2.9-9.2-5.5-17.7-6.4-21.4-5.7-19.9-8.1-16.4M595.3 658.7c-1.5 2.1-4 5.1-5.6 6.8l-2.7 3 4.1.9c2.7.6 4.3.6 4.7-.1.8-1.2 4.4-.2 4.3 1.2-.1 1 4.7 3 5.4 2.4.2-.2-.4-3.7-1.3-7.8-1.2-5.2-2.3-7.8-3.9-8.8-2-1.3-2.3-1.2-5 2.4M495.5 659.9c-3.3 2.1-8.7 5.6-12 7.6l-6 3.8 4.5 3.9c13.5 11.9 16.3 13.9 17.1 12.6 1.3-1.9 1.1-6.8-.2-6.5-.6.1-1.4-.4-1.7-1.2-.3-1 0-1.2 1.2-.8 1.8.7 2 .3 4-12.8 1.3-8.6 1.3-10.5-.2-10.5-.4 0-3.4 1.8-6.7 3.9M505.5 660.8c-.7 4.7-3.1 20.2-4 25.4-.3 1.7 0 2.8.7 2.8.6 0 5.7-1.9 11.2-4.1 5.6-2.3 13.3-5 17.1-6.1 9.3-2.5 12.8-3.9 11.8-4.8-.4-.5-4.8-2.5-9.8-4.5-8.8-3.6-16.6-7.6-19.5-10.1-.8-.7-2.7-1.7-4.2-2.3-2.6-1-2.7-.9-3.3 3.7M678.8 657.2c-1.4 1.2-5.1 14.8-4.3 15.7 1.1 1 5.5-1.1 5.5-2.7 0-1.5.2-1.5 1-.2.7 1 1.3 1.1 1.8.4.4-.5 2.4-1 4.4-.9 5.7.2 6.5-.8 3.4-4.1-1.5-1.6-3.7-4.4-4.9-6.1-2.3-3.5-4.3-4.1-6.9-2.1M764.5 661c-4.4 2.7-11.6 6.3-16 8.1-12.2 4.9-12.1 4.8-9.8 6.3 1 .7 4.3 1.8 7.3 2.5s11.5 3.6 18.8 6.3c7.4 2.7 13.5 4.8 13.7 4.6s-.1-2.5-.6-5.1c-.4-2.6-1.3-8.7-1.9-13.5-1.3-10.8-2-14.2-2.8-14.1-.4 0-4.3 2.2-8.7 4.9M777.7 665.2c.7 5.1 1.6 11.9 1.9 15 .4 3.2.9 5.8 1.1 5.8s3.4-2.3 7.1-5.1l6.7-5.1-7 6.6c-3.8 3.6-6.5 6.5-5.9 6.6 1.8 0 21.2-17.6 20.3-18.4-1-.9-24.4-14.6-24.9-14.6-.4 0 0 4.2.7 9.2M564 662.8c-3.8 8-5.1 12.2-3.7 12.2.7 0 4.8-1 9.2-2.1 4.4-1.2 9-2.3 10.3-2.6 1.2-.3 2.2-.8 2.2-1.2 0-.3-3.6-2.9-7.9-5.8l-7.9-5.2zM709 661.1c-1.9 1.7-5.2 4-7.2 5.1-2.1 1.2-3.8 2.5-3.8 2.8 0 .7 22 6.4 22.5 5.8.4-.5-6.6-16.8-7.3-16.8-.4.1-2.3 1.4-4.2 3.1M349.4 672.5c.3 1.1 1.7 7.4 3.1 14.1 2.4 11.8 6.1 28.2 7.1 31.6.3 1.1 1.5 1.8 3 1.8 1.3 0 2.4-.1 2.4-.3 0-.1 1.3-4 2.9-8.6l2.9-8.4-10-15.1c-10.8-16.2-12.4-18.3-11.4-15.1M585.5 673.4c-1.1 4.6-3.1 24.6-2.5 24.6.3 0 3.1-4.2 6.1-9.4 2.9-5.2 5.5-9.3 5.7-9.1.5.4-7.7 16.7-9.4 18.6-.8.9-1.2 1.9-.7 2.2 2.2 1.3 23.4 5.9 24.9 5.3 1.4-.5 1.6-1.5 1-6.3-.4-3.1-1.6-9.7-2.8-14.6-1.8-7.5-2.5-9-4.5-9.8-3.2-1.2-5.6-1.2-4.8.1.3.5-.1 1-.9 1-.9 0-1.3-.6-1-1.5.6-1.5-.8-2-7.4-2.8-2.6-.3-3.3 0-3.7 1.7M690.5 671.5c-.5.2-2.2.6-3.7.9-1.9.4-2.8 1.3-2.8 2.6 0 1.4-.7 2-2.2 2-1.8 0-2-.2-.8-1 2.4-1.5.7-2-3.1-1l-3.5 1-2.7 11.7c-2.3 10.7-2.7 18.3-.8 18.3.9 0 23.5-5.2 23.9-5.5.2-.2-1-2.2-2.7-4.6-2.1-2.9-2.8-4.5-2-5q1.2-.6-1.5-4.5c-1.4-2.1-2.6-4.3-2.6-4.9 0-1.5 6.9 9.1 8.7 13.3 2.3 5.3 2.7 2.5 1.3-9.1-1.7-15-1.8-15.4-5.5-14.2M793.7 681.6c-8.8 7.9-10.6 10-9.5 11 .7.7 5.4 4.2 10.3 7.8l9 6.5 8.4-8.4c5.3-5.3 8.1-8.7 7.6-9.5-.6-.9-1-.9-1.7.1s-.8.9-.4-.6-1.3-4-6.2-9.4l-6.8-7.3zM469.6 678.7c-3 3.2-6.5 7.1-7.7 8.6l-2.2 2.9 7.9 7.9c4.3 4.3 8.4 7.9 9 7.9 1.2 0 18.9-12.4 19.9-14 .7-1.2-18.6-19-20.7-19-.4 0-3.2 2.6-6.2 5.7M919.8 687.2c-9.4 14.1-9.6 14.4-9.4 20 .1 5.9-.9 8.3-2.4 5.8-.8-1.2-1-1.1-1 .5 0 1.1-.3 3-.6 4.2-.6 2.1-.3 2.3 3.1 2.3 4 0 4 .1 1.9-7-1.1-4 1.2-1.1 2.6 3.2.9 3 1.7 3.8 3.6 3.8 1.6 0 2.5-.7 2.9-2.3 8.5-37.4 10-44.7 9.3-44.7-.2 0-4.7 6.4-10 14.2M565.9 675.9c-3.6 1-7.1 2.1-7.6 2.4-.6.4-1.8 5-2.8 10.4s-2.1 11.5-2.5 13.6l-.8 3.9 4.8-.7c2.6-.4 8.7-1.6 13.6-2.8 7.4-1.8 8.9-2.5 9-4.2.1-2.3-1.2-15.3-2.1-20.8-.8-4.3-1.5-4.5-11.6-1.8M702.2 675.2c-.1.7-.4 5.1-.8 9.8s-1.1 9-1.6 9.6c-.7 1 .5 6.4 1.5 6.4.6 0 23 5 24.8 5.5 1.3.5 1.3-.7-.3-10.3-1-6-2.4-12.6-3.1-14.7-1.3-3.7-1.6-3.9-8.8-5.7-8.8-2.1-11.5-2.2-11.7-.6M346.1 681.6c-.6 3.9-1.1 9-1 11.5.1 2.4-.1 5.4-.5 6.7-1.2 3.8 8.6 20.2 12.1 20.2 1 0 1.2-.6.7-2.3-.9-2.9-3.9-15.7-6.4-27.7-3.4-16.4-3.4-16.4-4.9-8.4M543.5 676.3c-1.1.7-5.4 2.3-9.5 3.6-9.9 3.1-31 11.2-31 12 .1.7 4.8 3.9 19 13 8 5 10.1 5.9 13 5.6 4.6-.6 14-2.7 14-3.2 0-.2-1.1-2.1-2.5-4.3s-2.5-4.4-2.5-4.9-.4-1.1-.8-1.3c-.9-.4.6-10.8 1.6-10.8.4 0 .5 2.4.4 5.4-.3 4.5.1 6 2.4 9.5 1.5 2.3 2.8 4 2.9 3.9.7-.8 4.7-26 4.2-26.4-.6-.7-7.5 1.5-9.5 3-.7.5-1.5.6-1.8.3-1.2-1.1.7-2.5 4.3-3.2l3.8-.7-2.5-1.4c-3.1-1.7-3.1-1.7-5.5-.1M731.5 675.9c-1.9.8-1.8.9.8 2.1 1.5.7 2.7 1.7 2.7 2.1 0 1.1-5.3-.9-6.2-2.4-.6-.9-.8-.9-.8 0 0 .6-.9.9-2 .6s-2 0-2 .6.6 1.1 1.3 1.1 2.6 1.3 4.2 3c1.6 1.6 3.4 3 4.1 3 1.3 0 2.4 3.2 2.4 7.4 0 1.6-1.3 5.5-3 8.7-1.6 3.3-2.8 5.9-2.6 5.9s4 .7 8.5 1.5l8.1 1.6 13.4-8.2c20.5-12.6 19.9-10.7 5.4-16.2-15.5-5.9-25.8-9.1-28.1-8.8-.9.1-2-.5-2.3-1.3-.7-1.8-1-1.8-3.9-.7M628 684.4c.8.8 2.9 2.2 4.5 3.1l3 1.7-3-.7c-1.6-.4-4-1.5-5.1-2.6l-2.2-2-.5 3.3c-.4 1.8-1.1 7.9-1.8 13.5l-1.2 10.1 3.8 4.6c3.5 4.3 4 4.6 8.6 4.6h4.9v-37h-6.2c-5.4 0-6 .2-4.8 1.4M641 701.5V720h4.4c4.1 0 4.5-.3 8.3-5.3l3.9-5.3-.7-7.9c-1-10.5-1.9-16.5-2.5-16.5-.3 0-1.7.6-3.2 1.4-3.7 1.9-9.2 3-9.2 1.8 0-.5 1.7-1.2 3.8-1.5 2.1-.4 4.6-1.3 5.7-2.1 1.8-1.4 1.5-1.5-4.2-1.6H641zM422.9 688.1c0 1.9-.2 4.4-.3 5.6s.1 2 .6 1.7c.4-.3.8-.1.8.5 0 .5-.5 1.1-1 1.3-1 .3-2 5.7-3.4 17.5l-.7 5.3h7.2c6.3 0 7-.2 5.9-1.5s-1-1.8.6-3c2.8-2.1 4-1.8 1.9.5-1 1.1-1.5 2-1.1 2s1.8-1.2 3.2-2.8l2.5-2.7-.6 2.5c-.4 1.6.2 1.1 1.6-1.5 1.2-2.2 2.8-4.8 3.7-5.8 1.4-1.6 1.3-2-1.9-5.3-1.9-2-6.9-6.7-11.1-10.6l-7.8-7zM845.3 695.2l-11.2 9.9 5.2 7.5 5.2 7.5 8-.3 8-.3-.4-5.5c-.2-3-1.1-10.7-2-17.2l-1.6-11.6zM813.3 699.8c-4.6 4.7-8.3 8.7-8.3 8.9s1.9.3 4.3.4c3.1 0 3.7.2 2.2.8-1.1.5-2.7.6-3.5.3-1.5-.6 6.7 9 8.3 9.7 1 .4 7.5-5.7 11.9-11.2l3.1-3.8-4.8-7c-2.7-3.8-4.9-6.8-4.9-6.8-.1.1-3.8 4-8.3 8.7M452.8 698.6l-4.8 6.6 6.6 7.4c3.7 4.1 7.2 7.4 7.9 7.4 1.4 0 11.5-10.4 11.5-11.9 0-1.1-14.8-16.1-15.9-16.1-.3 0-2.7 3-5.3 6.6M885.6 695.7c-.3 2.1-.6 8.4-.6 14.1v10.3l6.2-.3 6.2-.3 4.3-8.4c3.4-6.5 4.1-8.6 3.2-9.7s-17-9.4-18.2-9.4c-.3 0-.7 1.7-1.1 3.7M389.7 693.6c-.3.3-.3 1.2 0 2s.1 1.4-.5 1.4-1.2-.5-1.4-1c-.4-1.3-8.4 1.4-11.8 4l-2.5 1.9 4.6 8.8 4.5 8.8 6.2.3 6.2.3v-7.4c0-12.8-1-19.7-3-19.7-.9 0-1.9.3-2.3.6M490.9 699.3c-4.1 2.8-8.8 6.1-10.3 7.2l-2.7 2 7.8 5.8c7.4 5.5 8.1 5.8 13.1 5.6 6.2-.3 6.1 0 3.2-12.7-3.2-14.6-2.3-14-11.1-7.9M503.7 705.8c1.4 6.4 2.6 11.8 2.7 12 .2.1 1.6-.2 3.2-.7 1.6-.6 6.2-1.9 10.2-3.1 3.9-1.1 7.2-2.5 7.2-2.9 0-.7-16.2-11.5-24.6-16.4-.8-.4-.3 3.7 1.3 11.1M765.6 702c-7.1 4.3-13.4 8.1-14 8.3s-.9.6-.6.9c.8.7 22.1 7.1 22.4 6.7.5-.6 5.5-23.3 5.2-23.6-.1-.1-6 3.3-13 7.7M780.6 695.7c-1.6 5.9-4.8 22.4-4.4 22.8.3.3 2.7.8 5.4 1.1 4.7.5 5.2.3 12.8-5.2l7.8-5.7-2.3-1.8c-2.4-1.9-15.1-10.7-17.5-12.2-.8-.4-1.4-.1-1.8 1M585.6 705.4C594 715.5 599.1 720 602 720c2.4 0 3.1-.5 3.6-2.8.4-1.5 1.3-3.7 2.1-5 1.9-3.1 1.1-3.9-5.5-5.3-3.1-.6-8.7-2-12.4-2.9l-6.8-1.7zM683 705.4c-9.3 2.4-12.4 3.6-12.2 4.7.6 2.4 2 3.3 3.5 2 1.2-.9 1.6-.7 2.1 1.1.8 3.1.7 3.8-.3 3.8-.5 0-1.1-.8-1.3-1.7-.2-1-.6-1.4-1-.8-1.3 2.1 1.1 5.5 3.9 5.5 2.1 0 4.5-1.9 11-8.7 4.6-4.8 8.3-8.9 8.3-9 0-.5-.9-.3-14 3.1M701 702.5c0 .3 1.8 4.1 4 8.5 4.5 8.9 4.7 9 15 8.7l6.5-.2.6-4.8c.6-5.9.6-5.9-12.2-8.7-5.2-1.1-10.4-2.5-11.6-3-1.3-.5-2.3-.7-2.3-.5M567.5 705.5c-4.9 1.3-10 2.4-11.1 2.4-3.4.1-4.5 2.3-3.8 7.5l.7 4.6h7.7c8.8 0 8.7.1 14.4-10.3 2.3-4.1 3.2-6.7 2.4-6.6-.7.1-5.3 1.2-10.3 2.4M729.6 711.5c-.3 1.1-.6 3.5-.6 5.2v3.3h21.2c11.6 0 20.9-.2 20.7-.4s-5.5-1.8-11.7-3.6c-8.5-2.5-11.6-3-12.5-2.1-1.5 1.5-2.8 1.4-2.1-.2.4-1-1.5-1.8-7-2.8-7.3-1.4-7.5-1.4-8 .6"/></svg>