<svg xmlns="http://www.w3.org/2000/svg" width="1706.667" height="960" viewBox="0 0 1280 720"><path d="M0 160.6v160.6l4.8-.3c2.6-.1 5.8-.7 7.2-1.2 4.1-1.5 21.2-2 22-.6.6.8 6 1.1 19.6 1 32.1-.1 48.4-2 48.4-5.3 0-.5 1.7-.8 3.8-.8 2 0 5.2-.9 7-2s3.9-2 4.7-2 1.7-1.4 2.1-3.5c.3-1.9.9-3.5 1.3-3.5.8 0 4.4-2.6 7.2-5.3 1.1-.9 3.3-1.7 5-1.7h3.2l-.5-5.3c-.3-2.8-.3-4.6-.1-4 .3.7 2 1.3 4 1.3 2.6 0 3.6.5 4 2 1 3.7 8.3 2.3 8.3-1.6 0-2.1.4-2.4 4-2.4 2.2 0 4 .4 4 1 0 .5.7 1 1.5 1s1.5-.5 1.5-1c0-.6.9-1 1.9-1 2 0 3.1-1.8 3.1-5.1 0-1 .7-1.9 1.5-1.9s1.5-.6 1.5-1.3c0-.6.9-2.3 2-3.7 2.1-2.7 2.7-7 .9-7-.5 0-.8-.4-.4-.9.3-.5.1-1.2-.5-1.6-.5-.3-1-1.9-1-3.6 0-1.8-.5-2.9-1.4-2.9-.8 0-1.7-.6-1.9-1.3q-.6-1.5-.6 0c-.1 1.5-4.1 1.8-4.1.3 0-.6-.7-1-1.5-1s-1.5-.4-1.5-.9c0-1.3 4.6-2.2 7.4-1.5 3.3.8 13.3-1.4 14-3.1.2-.8 2.2-1.5 4.3-1.7 3.8-.3 3.8-.3 4.9-6 1-5.1 4.4-11 4.4-7.7 0 .9.4.8 1.3-.3.6-.8 3-2.7 5.1-4.1 3.6-2.4 4-2.5 5.2-.9.6.9 1 2.2.7 2.8-.3.7 0 2.1.6 3.1.6 1.1 1.1 1.3 1.1.5 0-.7.7-2 1.5-2.9.8-.8 1.3-1.9 1-2.4-.4-.5.3-.9 1.4-.9 1.4 0 2.1-.6 2.1-2 0-1.1.7-2 1.5-2s1.5-.9 1.5-2c0-1.3.7-2 2-2 1.2 0 2.5-1 3.2-2.5.6-1.4 1.6-2.5 2.2-2.5s.4-.5-.4-1-1-1-.4-1c.7 0 1.4-.9 1.7-2s1.2-2 2.1-2 1.6-.7 1.6-1.5c0-.9.6-1.2 1.6-.8s2.2 0 2.8-.9c.6-.8 2.6-2.1 4.4-2.9s3.2-2.1 3.2-3.1.7-1.8 1.5-1.8c.9 0 1.5-.9 1.5-2.4 0-1.3.3-3.1.6-4s.1-1.6-.6-1.6c-1.4 0-4-2.5-4-3.9 0-.6-.5-1.1-1.1-1.1-.8 0-.8-.5.1-1.5 1.4-1.7 5-2 5-.5 0 .5 1 1 2.3 1 1.7 0 1.9.2.7 1-1.1.7-.7.8 1.5.6 2.3-.3 3.4-1.2 5.3-4.7l2.3-4.4-2.8-1.2c-2.7-1.2-2.7-1.2 1.9-1.3h4.8l.6-4c.4-2.4 1.2-4 2-4 1 0 1.4-1.5 1.4-5.3 0-2.9.5-5.8 1.1-6.4.7-.7 1-5.4.8-13.6-.2-6.9-.1-12 .2-11.5.4.6 1-2.9 1.3-7.8s1.5-15.7 2.6-23.9c1.1-8.3 2.5-19.7 3.1-25.5 1.6-14.7 5.4-34.2 11.9-60.4 1.7-6.5 3-12.2 3-12.7S227.8 0 145 0H0zM312.1 2.3c-.6 1.5-.8 3.5-.4 4.4.3 1 .2 1.5-.2 1-1.7-1.5-9.2 19-7.6 20.6 1.3 1.3 1.5 5.7.2 5.7-.5 0-1.2-.6-1.4-1.3-.3-.6-.6.3-.6 2-.1 3.6 1.1 4.1 5.1 2.2 2.7-1.2 3.8-3.3 6.9-13.4 1.9-6.1 2.3-6.7 3-4.5.6 2.1.7 1.7.8-1.8.1-2.9-.4-4.4-1.4-4.8-.8-.4-1.5-1.2-1.5-2s.6-1.1 1.5-.8c1.2.5 1.5-.4 1.5-4.5 0-3.9-.4-5.1-1.5-5.1-.8 0-1.5.6-1.5 1.2 0 .9-.3.8-1-.2-.7-1.1-1.1-.9-1.9 1.3M324.1 5.4c-2.1 3.6-3.1 6.6-3 9.2.1 3.3.2 3.5.8 1.4.7-2.3.8-2.2 1.2 1.3.4 2.8.2 3.6-.8 3.3-.9-.4-1.3.6-1.3 3.6 0 2.3.2 3.9.4 3.7.3-.2 4.1-6.6 8.5-14.2l8-13.7h-10.8zM338.6 2.2c-1.9 2.6-2.1 4.2-.5 3.2.7-.4 1-.1.7.7s-1 1.3-1.6 1.2c-.6-.2-4 4.7-7.7 10.8-5.3 9.1-6.3 11.4-5.3 12.6s.9 1.4-.8 1.1c-1-.1-1.9.1-1.9.7.1.5.4 10 .8 21 1.2 30.5.3 29.4 10.2 12.7 12.7-21.5 11.9-18.7 11.1-38-.8-20-1.6-28.2-2.7-28.2-.4 0-1.5 1-2.3 2.2M344.8 7.2c.3 4.8.9 7.6 1.8 8.1 1.6.9 1.9 4.7.4 4.7-.6 0-1 3.8-1 9.5 0 5.2.3 9.5.8 9.5.4 0 1.8-2 3.2-4.5s2.8-4.5 3.2-4.5c.3 0 1-.9 1.3-2 .7-2.3 2.5-2.7 2.5-.5 0 .8-.5 1.5-1 1.5-.6 0-1.3.8-1.7 1.7-.3 1-1.7 3.4-3.1 5.3l-2.5 3.5 4.2-4c2.3-2.2 7.9-8.3 12.6-13.6 6.8-7.7 8.5-10.3 8.5-12.8 0-1.7-.4-3.1-1-3.1-.5 0-.7-1.3-.3-3l.6-3h-28.9zM384.1 6.3l-7.3 6.2.6 8.5c.3 4.7.9 13.6 1.3 19.8.3 6.2.9 11.5 1.4 11.7.9.6 33.8-13.2 35.7-15 .3-.2-.8-9.6-2.3-21-.2-1.7-.7-6-1.1-9.8l-.7-6.7h-10.1l-10.1.1zM414 1.2c0 .7.9 8.3 2 16.8s2 16.1 2 16.7c0 1.9 3.8 1.6 20.6-1.2 23.8-4 24.4-4.2 24.4-7.5 0-5-1.2-9.3-2.2-7.8-.6.8-.7-.6-.3-3.8.4-2.9.3-7.2 0-9.8l-.7-4.6h-22.9C419.2 0 414 .3 414 1.2M462.5 2.7c.3 1.6.9 7.1 1.5 12.3 1.7 14.9 1.2 14 8.3 13.4 3.4-.3 14.7-.9 25.1-1.2 20.1-.7 20.4-.8 18.6-5.7-.8-1.9-.8-1.9-1.8.5-1 2.3-1.1 2.3-1.1.4-.1-1.2.6-2.5 1.5-2.8 1.3-.5 1.4-1.8.9-7.8-.3-4-.8-8.3-1.1-9.6L514 0h-51.9zM517 1.6c0 .9.5 6.8 1.2 13l1.2 11.4h57.9l-.6-8.3c-.4-4.5-.7-10.3-.7-13V0h-29.5C519.8 0 517 .2 517 1.6M578.4 5.7c.3 3.2.8 9.2 1.2 13.3.5 5.2.9 6.9 1.5 5.5.6-1.6.8-1.6.8-.3.1 2.1 2.1 2.4 31.1 4.4 12.9.9 24 1.7 24.5 1.7.6.1 1.1-5.6 1.3-15.1l.3-15.2h-61.3zM641 15v15l9.8-.4c14-.6 45.5-2.7 46.9-3.1 1.3-.4 2-5.1 2.6-17.8l.5-8.7H641zM702.6 6.1c-1.1 11.5-.8 19.6 1 20.3 2.7 1 54.2.7 54.9-.4.5-.8 3.5-22.5 3.5-25.2 0-.4-13.2-.8-29.4-.8h-29.3zM763.7 4.2c-.3 2.4-.9 8.4-1.3 13.4l-.7 9.2 8.4.6c4.6.3 15.9.8 25.1 1.1 15.3.5 16.7.4 17.2-1.2S816 2.7 816 .8c0-.4-11.6-.8-25.9-.8h-25.8zM818 1.2c0 .7-.7 7.1-1.6 14.1-.9 7.3-1.3 13.2-.8 13.6.9.8 45.3 7.5 45.9 6.9.2-.2 1-6.2 1.9-13.3.9-7.2 1.9-15.1 2.2-17.8l.6-4.7h-24.1C823.5 0 818 .3 818 1.2M867.1 9.7c-.6 5.4-1.6 13.6-2.2 18.1-.6 4.7-.8 8.7-.3 9.1.5.5 5.6 2.9 11.4 5.6 5.8 2.6 12.8 5.7 15.5 7 8.3 3.8 9.4 3.9 9.9 1.3.3-1.3.9-10.1 1.3-19.7l.8-17.4-7.4-6.8-7.3-6.9h-20.6zM906.5 6.6l-.7 6.5 5.8 6.2c3.2 3.4 7.4 7.8 9.3 9.7 2 2 5.6 5.7 8 8.4 3.9 4.2 4.5 4.6 5.2 3 .3-1.1 1-10.6 1.4-21.2l.7-19.2h-29zM938.7 4.3c-.3 2.4-.9 13-1.3 23.7l-.7 19.5 10.4 17.2C952.8 74.2 957.7 82 958 82s.6-3.7.7-8.3c.1-4.5.6-14.7 1.1-22.7l.9-14.5-3.4-7c-2-3.9-5.2-9.9-7.3-13.5-2-3.6-4.9-8.6-6.4-11.3-1.5-2.6-3.1-4.7-3.5-4.7-.5 0-1.1 1.9-1.4 4.3M945.3 4.2c1.4 2.4 5 8.8 8.2 14.3 3.1 5.5 6.1 10.4 6.6 10.9.5.6.9-2.6.9-8.3 0-7.1-.3-9.1-1.2-8.5-.7.4-1 .4-.6-.1.4-.4.3-1.4-.3-2.1-1.3-1.6-3-7.6-2-6.9.5.2 1.4 1.8 2.1 3.5 1.7 4 3 2.9 3-2.6V0h-19.1zM963.5 17.2c-.7 19.4-1.2 17.1 8.8 40.9 5.9 14.1 6.8 15.5 6.5 10.7-.1-2-.5-3.5-.9-3.2-.6.4-3.3-8.5-2.7-9.1.5-.6 3.5 2 4.1 3.5.3.8.6-4.2.6-11.2.1-9.2-.2-12.8-1.1-13.2-1-.5-1-.7 0-1.2.6-.3 1.2-1.1 1.2-1.7 0-.7-2.8-8.3-6.2-17C969.2 3.9 967.3 0 965.9 0c-1.5 0-1.8 1.8-2.4 17.2M990.4.8c1.7 2.7 14.3 62.2 15.6 73.2.6 5.8 1.6 13.4 2.1 17s1.6 15.3 2.4 26 1.7 20 1.9 20.6-.2 15.6-.9 33.5c-.7 17.8-1.1 32.6-.9 32.8s.4-.5.4-1.7.4-2.2.9-2.2c.4 0 1.2 3.5 1.5 7.9.6 7.1 1 7.9 3.2 9 1.4.6 2.3 1.5 1.9 2-.3.5.8 1.2 2.5 1.6 2.7.6 4.4 3.5 2 3.5-.5 0-1 2.4-1 5.2 0 6-1.6 12.8-3 12.8-.6 0-1 .5-1 1.1 0 .7 1 .9 2.4.7 1.8-.4 2.2-.1 1.9 1.3-.3 1 .9 3.2 3 5.4 2.8 3 4.2 3.7 8.1 3.9 2.6.2 5 .6 5.3 1 .4.3 1.6.6 2.8.6 2 0 2.2.4 1.8 4.7-.6 6.4 1.7 9.3 7.6 9.3 4.3 0 9.5 2.5 8.5 4.1-.3.5.4 1.9 1.5 3.1 1.2 1.2 2.2 3.1 2.2 4.2q.15 2.25.9-.9c.6-2.3.8-2.5.9-.8 0 1.2 1.7 3.8 3.6 5.9 2 2.1 3.5 4.7 3.5 6 0 2.1.5 2.4 3.5 2.4 4.2 0 8.5 1.9 8.5 3.7 0 .7 1 1.3 2.3 1.4 2.1 0 2.1.1.2.9-1.1.5-1.5.9-.8.9.6.1 1.8.4 2.6.7.9.3 1.7-.1 1.9-.9.2-1.2.8-1.2 2.8-.4 2.5 1 2.5 1 .3 1.4-3.9.7-2.5 2 2.6 2.6 7 .8 16.1-.3 16.1-1.9 0-1 1.3-1.4 4-1.4 3.2 0 4.6-.7 7.4-3.4 1.9-1.9 3.7-3.2 4.1-2.8.3.3.4 0 .1-.8s-.1-2.2.4-3c.8-1.3 4.2-1.5 20.9-1.5h19.9l4 4c2.1 2.2 3.8 4.8 3.6 5.8-.1.9.2 1.9.7 2.3 1.2.7 1.2 4.4-.1 4.4-.5 0-1 1.3-1 3 0 2.3-.4 3-2 3-1.7 0-2 .7-2 4s.3 4 1.9 4c1.1 0 2.1.5 2.3 1 .4 1.4 4 2.1 14.3 2.7 5 .3 9.2.8 9.5 1.2.7.9 9.5 3.1 12.5 3.1 1.3 0 2.7.4 3 1 .3.5 4.7 1 9.6 1 5 0 8.8.4 8.5.9-.3.4 2.4 1.1 5.9 1.4 8.8.8 10.8 2 9.3 5.2-.9 2-1.8 2.5-5 2.5-3.1 0-3.8.4-3.8 1.9 0 2.6-3.9 3.8-14.4 4.6-4.9.3-10.2 1.3-11.7 2.1-1.6.8-4.4 1.4-6.4 1.4q-5.1 0-2.7 3.6c.4.6 2.4 1.4 4.5 1.8 2.2.4 3.7 1.3 3.7 2.1 0 .9 1 1.5 2.5 1.5s2.5.6 2.5 1.5c0 .8 1.2 1.8 2.7 2.1 1.5.4 3.8 1.3 5.2 2 1.4.8 3.1 1.4 3.8 1.4.6 0 1.4.6 1.6 1.2.3.8.6.6.6-.5.2-3 5.1-1.6 5.1 1.4 0 1.6-.8 1.9-4.9 1.9-4.5 0-5.3.4-9.4 4.5-4.6 4.6-6.2 5.4-6.9 3.3-.6-1.6-5.8-.1-5.8 1.7 0 1.4-1.2 1.9-3.2 1.6-.5 0-.8.4-.8.9 0 .6-1.3 1-2.9 1-1.7 0-3.3.5-3.6 1-.4.6-1 .8-1.5.5s-2.1.2-3.6 1.2c-3.6 2.3-21 3.7-41.9 3.4-20.7-.3-32.5.6-32.5 2.5 0 .8-1 1.4-2.5 1.4-1.4 0-4.7 1.1-7.4 2.5-2.7 1.3-5.1 2.2-5.4 1.9s-1.9-.3-3.6.1c-2.2.5-3.1 1.2-3.1 2.6 0 1-.6 1.9-1.4 1.9s-1.6.4-1.8.9c-.1.5-4.5 1.2-9.6 1.4-5 .3-9.8.9-10.5 1.4-.6.6-4.1 1.1-7.7 1.2-8.5.3-9.1 1.1-.9 1.2l6.4.2-8 .7c-4.3.5-8.1 1.3-8.3 1.9s-1.9 1.1-3.8 1.1c-2.4 0-3.4.5-3.4 1.5 0 .8-.6 1.5-1.2 1.5-.9 0-.8.4.2 1 1.1.7.3 1-3 1.1-2.5 0-3.9.3-3.2.6.6.2 1.2 2 1.2 3.9 0 2.8.4 3.5 2.5 4 1.4.3 2.5 1 2.5 1.4s3.7.8 8.3.9c11.9.2 23.9 1.2 26 2.3 1 .5 1.7.5 1.7-.1s1.7-.3 3.8.7c2.8 1.2 6.9 1.6 17.7 1.7 12.5 0 14.3.2 16.8 2 2.1 1.5 3 3.2 3.4 6.3.5 3.8.9 4.3 5.2 5.9 4.9 1.9 8.3 2 20.2.8 7.4-.7 7.8-.7 11.5 2.1 2.2 1.5 4.9 3.8 6 5.1 1.2 1.3 2.6 2.3 3.3 2.3.6 0 1.1.5 1.1 1.1s-.6.9-1.3.6-2.4.1-3.7.8c-2.3 1.2-20.1 1.1-24-.1-.8-.3-1.6-.5-1.8-.4-.1 0-1.5-.6-3.2-1.5-2.1-1.1-6.1-1.5-14.4-1.5-13 0-11.6-.9-13.1 8.5-.6 3.9-4.7 9.5-6.9 9.5-.6 0-1.7.9-2.4 2-1 1.7-2 2-6.5 1.5-6.1-.6-14.8-2.4-16.2-3.5-.5-.4-2.5-1.1-4.3-1.5-3.2-.7-3.3-.8-3-5.3.2-2.6.8-4.6 1.3-4.5.6 0 1.8-.9 2.7-2.2 1.7-2.2 1.6-2.3-2.5-4.4-3.9-1.9-5.3-2-20.6-1.6-9 .3-16.7.8-17.2 1.1-1.4.9-1 3.4.6 3.4.7 0 1.8.7 2.3 1.6s1.2 1.5 1.5 1.5c3.2-.4 3.5.7 1 3.5-2.2 2.5-9.8 5.4-13.8 5.3-5.8-.1-8.4.4-8.2 1.4.1.6-1.2 1.8-2.9 2.6-2.8 1.5-3 1.9-2.3 5.1.4 1.9.4 6 0 9l-.9 5.5-.2-4.5-.2-4.5-.8 3.5c-.5 1.9-1.2 7.1-1.5 11.5-.8 9.3-5.1 22.6-9.6 29.6-2.9 4.6-8.6 10.3-12.3 12.4-2 1.1-2.7 4.2-7.1 30.8-1.4 8.4-3.2 18.8-4 23.2-.9 4.4-2.2 12.3-3 17.5-2.7 17.7-8.8 44-14.6 63.5-2.5 8.5-11.7 36.2-13.5 41-.5 1.3 18.4 1.5 166.5 1.5H1280V0h-145.1c-79.7 0-144.8.4-144.5.8m216 681.9c1.7 5.1 3.3 9.3 3.6 9.3s2-4.3 3.9-9.5c2.7-7.8 3.7-9.5 5.3-9.5 2.3 0 2.4-.2-2.2 12-1.8 4.7-3.5 9.6-3.9 11s-1.6 2.6-2.8 2.8c-1.7.3-2.6-1.3-6.1-11-2.2-6.2-4.3-12.1-4.7-13.1-.7-1.5-.4-1.8 1.5-1.5 2 .2 2.8 1.7 5.4 9.5m29.7.2c1.6 1.6 2.9 3.9 2.9 5 0 1.9-.6 2.1-7 2.1-6.3 0-7 .2-7 2 0 3.5 5.9 5.3 8.9 2.6 1.2-1.1 2.1-1.2 3.1-.5 1.3.8 1.1 1.3-.9 2.9-5.7 4.8-15.1.2-15.1-7.5 0-4.8 4.4-9.5 9-9.5 2.2 0 4.1.9 6.1 2.9m20.2-1.7c3.5 1.8 4.6 4 4.7 8.6 0 5.8-3.3 9.2-9 9.2s-9-3.4-9-9.2c0-2.4.6-5 1.3-5.9 2.9-3.7 8-4.9 12-2.7M369.7 20.5c-2.6 2.7-4.5 5.5-4.3 6.2.3.6 0 1-.7.8-1.1-.3-17.1 16.5-16.3 17.2.9.9 24.1 8.3 26 8.3 2.2 0 2.2-.3 1.8-10.8-.2-5.9-.7-14.3-1-18.7l-.7-8zM905.7 21.6c-1.4 11.1-1.9 32.4-.9 32.4.6 0 1.3-.4 1.7-1 .3-.5 1.1-.7 1.9-.4.7.3 5.5-1.1 10.7-3 14.5-5.2 13.2-4.4 10.6-7.6-1.2-1.6-3-2.9-3.9-2.9-1-.1-1.8-.6-1.8-1.2 0-.5.5-.7 1.2-.3.6.4.8.3.5-.4-.4-.5-1.7-.8-2.9-.4-1.8.4-2 .2-1.6-1.6.6-2.1-1.3-4.7-2.5-3.5-.4.3-.7-.1-.7-1.1s-.5-1.4-1.2-1-.8.3-.4-.5c.4-.7-1.5-3.4-4.7-6.8l-5.5-5.7zM543.8 28.8 520 29v3.1c0 1.6.3 2.8.8 2.6.4-.3.8 4.1.9 9.6.1 5.6.9 15.6 1.8 22.2s1.7 13.6 1.8 15.5.9 4.5 1.7 5.7c1.3 2 2.4 2.3 7.7 2.3 3.4 0 6.5.4 6.8 1 .3.5 2.5 1.1 4.8 1.1l4.2.2-4 .7-4 .7 4 .2c2.2.1 5.8.5 8 1s8.5 1.2 14 1.6l10 .6.4-2.8c.6-4.1.1-39.9-.7-53.3l-.7-11.5-5-.5c-2.7-.3-15.7-.4-28.7-.2M508.8 29.5c-.2.1-9 .6-19.6 1-10.7.4-20.1.8-21 .9-1.7.3-1.9 4-.7 10.6.3 1.4 1.2 7.9 2.1 14.5.8 6.6 2 14.9 2.5 18.5 1.4 10.2 1.6 11.4 1.7 12.7.1.8 1.5 1.2 3.5 1.2 2.3-.1 2.6-.3 1-.6-1.3-.2-2.3-.7-2.3-1 0-1.8 4.7-4.1 9.4-4.7 5.9-.7 7.8 0 14.1 5 3.7 2.9 4.7 3.2 13 3.5l9 .4.3-5.8c.2-3.1-.1-5.7-.5-5.7s-.8-4.4-.9-9.8c0-5.3-.9-16.8-1.9-25.4l-1.9-15.7-3.7.1c-2.1 0-3.9.2-4.1.3M580.5 37.1c.3 4.6 1.2 20.1 2.1 34.4s1.7 26.1 1.9 26.3c.1.1 6 .5 13.1.8 7.1.2 16.7.9 21.4 1.4 7.9.9 18.9 1.3 19.1.7 0-.1.3-15.1.6-33.3.4-23.6.2-33.3-.6-33.8-.6-.4-10-1.3-20.8-2.2-10.9-.8-23.7-1.7-28.6-2.1l-8.7-.6zM691.9 29.4c-.2.2-5.3.7-11.4 1-6 .4-16.6 1.2-23.5 1.7s-13.3 1-14.3 1c-1.7 0-1.8 1.8-1.5 34l.3 33.9h3c3.2 0 31.4-1.7 40-2.5 2.8-.2 6.3-.4 7.8-.4 1.6-.1 2.6-.5 2.3-1-.4-.5-.2-1.1.2-1.3.5-.1 1.4-11.3 2.1-24.8.6-13.5 1.4-28.4 1.8-33.3l.6-8.7h-3.5c-1.9 0-3.7.2-3.9.4M701.5 30.2c-.4 1.3-2.5 46.6-2.5 54.2 0 2 .4 3.5.9 3.1 2.6-1.5 2.3 8-.2 9.8-.7.5.1.6 1.8.3s6.2-.8 10-1.1c8.4-.7 10.7-1.3 10-2.6-.4-.5-.1-.9.4-.9.6 0 1.1.5 1.1 1.1s.7.8 1.7.5c.9-.4 7.3-.9 14.1-1.2 6.8-.2 12.8-.6 13.2-.9.5-.3 1.1-4.4 1.5-9.3.4-4.8.9-9.4 1-10.2 1.1-6.1 3.8-42.1 3.2-42.7-.4-.4-13.1-.9-28.2-1.1-22-.2-27.6-.1-28 1M760.7 34.1c-.3 2.4-.9 8.4-1.2 13.4-.4 4.9-.9 10.6-1.1 12.5-1 8.4-2.5 31.3-2.1 31.7.3.2 4.9 0 10.3-.6 5.5-.6 14.9-1.3 20.9-1.6 12.8-.7 17.5-1.3 17.3-2.3-.1-.4.1-1.4.4-2.2 1.1-2.9 7.2-52.9 6.6-53.6-.2-.1-11.6-.6-25.4-1l-25.1-.7zM446.5 34.5C421 38.7 419 39.2 419 40.9c0 .9 1.4 10.8 3 22.1 1.7 11.3 3 20.7 3 21s.5-.2 1-1c.8-1.2 1.2-1.1 3 .8 1.6 1.7 2.5 2 4 1.2 3.6-1.9 13.4-.6 15 2 .3.4 5 1.1 10.5 1.4 9.1.6 9.8.6 8.1-.8-1.1-.9-1.4-1.6-.8-1.6q1.2 0 1.2-6c0-3.3.4-6 .9-6 .9 0 .8-2.3-2-23.5-1-8.3-1.9-15.8-1.9-16.8 0-2.1.1-2.1-17.5.8M814.5 33.2c-.4 1.1-4.9 41-5.8 51.5l-.3 3.3h44.5l1.1-3.8c1.4-4.7 7.2-43.2 6.7-44.6-.2-.6-3.9-1.6-8.3-2.2-4.3-.7-13.9-2.1-21.3-3.3-15.7-2.5-16-2.5-16.6-.9M318 40.2c-.2 1-.3 2.4-.4 3-.1.7-.4 1.5-.8 1.8-2.2 1.7-13 29.8-11.7 30.6.5.3.9 1.3.9 2.2 0 2.9 4.4 6.2 8.4 6.2 3 0 3.6-.4 3.6-2.1 0-1.2.4-1.7 1.1-1.3.6.3.9 1.5.6 2.5-.3 1.1-.1 1.9.5 1.9.7 0 .8-6.7.3-20-.7-17.9-1.9-29.5-2.5-24.8M862.1 49.7c-.7 5.4-1.8 13.8-2.6 18.8-.8 4.9-1.6 11.3-1.8 14.2l-.4 5.2 7.6.6c4.2.4 8.7.8 10.1 1 8.3 1.2 23.3 2.5 23.7 2.1.8-.7 2.2-20.9 2.1-29.6 0-5.5-.2-6.7-.8-4.5s-.8 2.5-1 1c-.1-1.1-.2-2.3-.1-2.8.1-.4-1.4-1.4-3.1-2.1-1.8-.8-5.5-2.4-8.3-3.6-19-8.5-22.7-10-23.4-10-.4 0-1.3 4.4-2 9.7M413 41.7c-.8.3-4.4 1.8-7.9 3.5-3.5 1.6-8.2 3.7-10.5 4.6-6.5 2.6-8.6 3.8-7.8 4.7.4.5-.1.5-1 .2-1-.3-1.7-.3-1.6.1.3 1.1-2 7.2-2.8 7.2-.3 0-.4-1.4-.2-3 .3-2.1 0-3-1-3-.9 0-1.2.6-.8 1.6.3.8.6 6.6.7 12.7.1 6.2.4 13.3.8 15.9l.6 4.6 3.8-1.3c2.8-.9 4.7-1 7.5-.3 4.7 1.3 8.6 1.4 14.2.4 2.5-.5 5.9-.8 7.5-.8 1.7 0 2.4-.2 1.7-.5-.6-.2-1-.9-.6-1.4.7-1.3 1.4-4.5 2.1-10.7.6-5.8 1.1-6 2.4-1 .7 2.9.8 2.8.4-1.2-.9-8.8-1.7-16.5-2-18-.2-.8-.6-4.5-1-8.3-.7-6.6-1.2-7.2-4.5-6M962 47.5c-.1 3.8-.5 13.5-.9 21.5-.5 8-.6 15-.4 15.5.2.6 1.9.9 3.8.7 3.9-.5 4.6.9 1.9 3.5-1.3 1.3-2 1.4-3.4.5-1.7-1-1.8-.9-.9 2 .5 1.8 1.4 3.6 2 4.2.8.8.9.5.4-1.2s-.2-2.2 1.2-2.2c1 0 2.3 1 2.8 2.2.6 1.3 2 2.7 3.3 3.3 2.5 1.1 2.9 2.5.7 2.5-2 0-2 4.1.1 10.9.8 2.8 1.2 6.2.9 7.4-.4 1.6-.3 1.8.3.7.5-.8 1.2-4.9 1.5-9s.9-8.6 1.2-10c1.3-5.7 1.5-22.5.4-25.5-2.7-6.7-13.1-31.1-14-32.5-.5-1-.9 1-.9 5.5M347.2 73.3c.2 21.3.5 26.1 1.5 24.8.8-1 1.2-1.2 1.3-.4 0 .7 1.2 1.3 2.8 1.4 2.6 0 2.6.1-.8 1.4-7 2.7-.3 1.4 10-1.9 5.8-1.9 9.4-3.4 8-3.5-2.3-.1-2.3-.2 1-1.9 2-1 3.7-2.7 4.1-4.2l.6-2.5 1.1 2.5c.9 2.1 1.1 1.4 1.1-4.6.1-3.9-.2-11.3-.6-16.5-.6-8.5-.8-9.1-1.8-6.5-.9 2-1.4 2.4-1.8 1.4-.3-.9 0-2.6.7-3.9 1.2-2.4 1.1-2.4-11.4-6.6-14.5-4.9-13.3-4.6-12.5-3.4.3.5.1 1.2-.5 1.6-.5.3-1-.1-1-.9s-.5-1.8-1.1-2.1c-.7-.5-1 7-.7 25.8M929.7 47.6c-.9.9-18.8 7.5-22.7 8.3l-3.5.8 2.8.8c2.7.7 4.7 3.1 4.7 5.6 0 .8-.6.6-1.8-.4-1-1-2.4-1.7-3.1-1.7s-1-.4-.6-.9c.3-.5.1-1.2-.4-1.6-1.4-.8-2.1 5.8-2.4 21.4l-.2 13.4 14.8 5c8.1 2.8 15 4.7 15.5 4.3.4-.4.9-13.1 1-28.2.4-26.5.3-27.4-1.5-27.4-1.1 0-2.2.3-2.6.6M343.8 51.2c-.2.7-.4 3-.4 5 .1 2.1-.4 3.8-1 3.8s-1.7 1.2-2.4 2.7c-.8 1.7-1.4 2.3-1.7 1.5-.3-.7.1-2.1.9-3 1.5-1.8 4-7.2 3.4-7.2-1.2 0-7.6 12.2-7 13.2.4.7.4 1-.1.6-.4-.4-3.1 3.1-5.8 7.8-4.4 7.6-4.8 8.8-3.4 9.6 1 .5 1.7 2.2 1.7 4.1.1 3.8 1.8 6.2 4.5 6.2 1.1 0 2.4 1 3 2.2 1.1 2.5 2.8 3.2 1.9.8-.5-1.1-.2-1.3 1.1-.9 1 .4 2.1.1 2.5-.6.7-1.1 1.1-1.1 2.5 0 1.4 1.2 1.5-.8 1.5-22.9-.1-13.2-.3-24.1-.5-24.1-.1 0-.5.6-.7 1.2M936.1 75.8c-.1 16.9.2 25.2.9 25.2.5 0 1-.5 1-1.1 0-.8.4-.8 1.4 0 1.1.9 2 .7 4.1-1.3 2.8-2.6 6.3-4.2 7.2-3.2.3.2-1.1 1.2-3.1 2-4.2 1.7-5.4 3.9-3.5 6.2 1.1 1.4 1.1 1.8-.4 2.9-.9.7-1.7 1.8-1.7 2.6-.1 1-.5.8-1.5-.5-.8-1.1-1.8-1.7-2.1-1.3-.4.4 1.3 3.1 3.7 6.2 2.4 3 6 7.5 7.9 9.9 3.7 4.7 5.3 5.3 5.7 2.2.5-3 1.3-3.3 1.3-.5 0 1.4-.5 3-1 3.5-.7.7-.4 1.8 1.1 3.5l2.2 2.4-.7-19.9c-.4-14.2-1-20.2-1.9-20.9s-.9-1 .1-1.4c.6-.2 1.2-1.6 1.2-2.9 0-1.6-.4-2.3-1.1-1.8-.7.4-1 .1-.7-.7.5-1.3-3-8.6-7-14.7-.9-1.3-2.3-3.8-3.3-5.5-.9-1.8-2.2-3.1-2.8-3-.6.2-.8-.3-.6-1 .3-.6-1.1-3.6-2.9-6.6l-3.4-5.5zM825.3 90.7c-19.9.4-18-1.1-16.4 12.8.5 4.4 1.2 12.9 1.6 19 .4 6 .8 11.2 1.1 11.4.2.2.4-.4.5-1.5 0-1.6.2-1.6.9.4 1.1 2.5.7 2.4 11.3 4.7 4.9 1.1 9.7 1.5 12.7 1.2 2.7-.3 5.2-.2 5.5.4.4.5 1.2.9 1.8.9.7 0 .6-.4-.3-1.1-1.1-.7-.2-.8 3.2-.3 2.5.3 6 .3 7.7-.1l3.1-.7-.5-6.6c-1-13.6-2.7-31.8-3.4-36.2l-.6-4.5H848c-3-.1-13.3.1-22.7.2M857 94c0 2.5.5 8.8 1 14 .6 5.2 1.3 12 1.5 15 .3 3 .8 7.6 1.1 10.2l.6 4.8 7.1-.2 7.2-.2-7-.5c-6.7-.6-7.4-2-.7-1.5 1.7.1 3.2-.3 3.2-.8s.4-.7.9-.4c.4.3 1.7-.1 2.7-.9 2.2-1.6 4.8-2 3.9-.5-.3.5.1 1 .9 1 .9 0 1.6.4 1.6 1 0 .5 1.5 1 3.3 1.1 2.7 0 2.9.2 1.2.9-1.5.7-1 .9 2.5 1 2.5 0 6.7.3 9.4.5l4.8.5-.5-7.3c-.3-3.9-.8-12.6-1.1-19.3-.7-17.9-.2-17-9.9-18.3-18.4-2.3-29.7-3.2-30.8-2.6-.6.4-1.5.1-2-.6-.6-.9-.9.2-.9 3.1M412.2 92c-5.3.8-7 1.5-6 2.6.6.5 11.6-1.2 14.4-2.3.8-.3 1.4.1 1.4 1 0 1.9-7.8 3.2-16.2 2.8-3.7-.2-5.8.1-5.8.8 0 .6-1.8 1.1-4 1.1s-4 .4-4 1c0 .5-.8 1-1.8 1s-3 .6-4.4 1.2c-3.3 1.6-4.7 8-2.3 10.4.8.9 1.5 1.2 1.5.8s1.5.9 3.3 3c3.2 3.5 3.5 3.6 5 2.1 1-.9 1.7-2.5 1.7-3.6 0-1.4.7-1.9 2.5-1.9 1.4 0 2.5-.5 2.5-1 0-.6 3.2-1 7.6-1h7.6l-.7-3c-.4-2-.3-3 .5-3 .7 0 1-1.3.8-3.3-.2-2.6 0-3.2 1.7-3.2 2.6-.1 3.4 1.2 3.6 5.5.1 1.9.5.3.9-3.5.4-3.9.6-7.3.3-7.8-.5-.8-2.7-.8-10.1.3M787.5 92.5c-11.2 1-29.3 2.4-31.4 2.5-.5 0 .9 30.3 1.9 40l.7 7.5.1-9.4c0-5.1.4-9.7.9-10.2.4-.4.6 3 .4 7.6-.3 9.1.2 10 5 7.4 2.7-1.4 5.9-.2 5.9 2.2 0 1.3.7 1.9 2.4 1.9 1.3 0 2.6-.5 2.8-1.2.3-.9 3.3-1.2 9.8-1.2s9.5.3 9.8 1.2c.7 2.1 3.1 1.3 3.8-1.3.3-1.4 1.1-2.5 1.8-2.5s.6-.4-.2-.9c-1-.6-.7-1 1.2-1.5 2.2-.5 2.6-1.2 2.6-4.1 0-4.4 1.7-4.6 2.3-.3.8 6.1-.2-12.6-1.4-25.7-1-10.9-1.4-13.1-2.8-13.1-.9 0-7.9.5-15.6 1.1M504 95.2c0 .5-1.9.8-4.1.6-3.2-.2-4.4.1-5.3 1.6-.8 1.4-.8 2 .2 2.3.6.3 1.2 1.3 1.2 2.4 0 1.6.7 1.9 4 1.9h4v8.3l6.2-.7c6-.6 8.1-1.7 7.2-4-1.1-2.9-2-10.5-1.3-10 .5.3.9 0 .9-.5 0-.6-1.7-1.2-3.7-1.2l-3.8-.2 4-.7c3.4-.6 3.1-.7-2.7-.7-3.8 0-6.8.4-6.8.9M455.6 96.5c-.3 1-1.9 1.5-4.6 1.5-2.5 0-3.9.4-3.5 1s-1 1-3.4 1c-2.3 0-4.1-.5-4.1-1 0-.6-1.3-1-3-1s-3 .5-3 1.2-.7 2.6-1.5 4.2c-.9 1.6-1.4 3.5-1.1 4.2s-.3 1.5-1.2 1.8 2 .3 6.6.1c8.7-.5 12.2-1.6 12.2-4 0-1 1.1-1.5 3.5-1.5 2.8 0 3.5-.4 3.5-2s.7-2 3.4-2c2.1 0 3.6-.6 4-1.5.4-1.1-.2-1.5-2-1.5-1.4 0-2.2-.4-1.9-1s-.3-1-1.3-1c-1.1 0-2.2.7-2.6 1.5M740 96.6c-5.2.7-11.3 1.3-13.5 1.4-3.3.1-3.6.3-2 1.1 1.4.6.7.7-2.4.3-5.8-.8-20.6.5-22.4 1.9-1.1.9-1.4 2.6-1 7 .3 3.3.9 5.4 1.3 4.7 1.1-1.8 3.1 7.6 2.5 11.8-.4 2.8-.3 3.2.4 1.7.9-1.8 1-1.7 1 .9.1 3.7 2.2 9.6 3.4 9.6.5 0 .6 1.6.3 3.5-.6 3.1-.4 3.5 1.8 4.1 1.3.3 2.7 1.2 3 2s1.2 1.4 2 1.4c.7 0 1.6.7 2 1.5.9 2.6 2.2 1.7 3.6-2.5 1.3-3.9 4-5.6 4-2.5 0 .8.9 1.5 2 1.5s2-.6 2-1.4 1-1.7 2.3-1.9l2.2-.4-2.2-.2c-2.8-.1-3.1-3.1-.3-3.1 1.1 0 2-.5 2-1 0-.6.9-1 1.9-1 1.6 0 1.9-.6 1.6-3-.4-2.7-.3-2.9 1.1-1.5.9.8 1.9 1.5 2.4 1.5s.8 1.6.6 3.6c-.3 4.6 2.7 6.9 7.8 6 3.3-.6 3.4-.7 4.1-7.2.6-5.8.9-6.4 2.2-5.2 1.4 1.1 1.4.9 0-1.9-1-1.8-1.7-3.8-1.6-4.5 0-.7.5-.4 1 .7.6 1.3.7-2.3.4-10.5-.2-6.9-.5-14.2-.5-16.3 0-4.3.9-4.1-13-2.1M534 97c0 .5.8 2.4 1.8 4.2s2.4 5.2 3.2 7.5c.7 2.4 1.6 4.3 2 4.3s1.3 1.3 2 3c1.2 3 1.3 3 8.9 3 6.5 0 7.9.3 9.1 2 1.2 1.6 2.6 2 7.2 2 5.6 0 5.8-.1 5.9-2.8.1-1.5.1-3 0-3.5 0-.4.8-.7 1.9-.7s2-.6 2.1-1.3c0-.6.4-.3.8.8.5 1.3 1-.6 1.5-5.9.8-9 .2-11.4-.8-3.2-.8 6.1-3 9.1-4.1 5.7-.3-1.2-1.1-2.1-1.6-2.1-1.4 0-1.1-1.7.7-3.4.8-.9 1.2-2 .9-2.6s.1-1.3.9-1.6c2.8-1.1 1.7-2.4-1.8-2.4-1.9 0-3.7.6-3.9 1.2-.4 1-.6 1-.6.1-.1-.9-1.5-1.1-4.8-.8s-4 .2-2.3-.3l2.5-.8-2.7-.6c-1.5-.3-2.5-.2-2.3.3.8 1.2-.7 1.7-6.3 2.3-2.9.2-5.2 0-5.2-.5s-1.3-.9-2.9-.9-4.2-.5-5.8-1.1c-2.2-.8-2.4-1.2-1.3-1.9s.6-1-1.7-1c-1.8 0-3.3.4-3.3 1M902.3 101.7c.4 3.2 1.1 11.9 1.7 19.3 1.5 16.8 1.8 18.9 3.1 16.9.7-1.2.9-1.1.9.2 0 .9.7 2 1.6 2.3 2.5 1 3.4.7 2.8-.8-.5-1.2.2-1.2 3.8-.3 4.5 1.1 6.1 2.4 5.4 4.3-.3.7 2.1 1.9 5.7 3 9 2.7 9 2.7 8.3 1.6-.3-.6-.1-2.1.4-3.4 1-2.3 1-2.3.6-.1-.2 1.3 0 2.6.5 2.9 1.1.7 1.1-3.4 0-11.1-.5-3.3-1.5-11.3-2.1-17.8-.7-6.4-1.7-11.7-2.2-11.7s-.6.4-.3 1c.3.5 0 .7-.9.4-.8-.3-1.3-1.1-1-1.7.3-.8-4.6-3-13.3-6-7.6-2.6-14.2-4.7-14.7-4.7s-.6 2.6-.3 5.7M372 98.1c-6.7 1.9-9 3.2-10.4 6-.8 1.6-1 3.1-.5 3.5.5.3.9 1.4.9 2.5 0 1.5-.7 1.9-3.4 1.9-1.8 0-4.7.7-6.2 1.5-2.9 1.5-2.9 1.4-3.5-1.6-.9-4.2-1.9-4.8-1.9-1.3 0 1.7.4 3.4 1 4 .5.5 1.1 2.5 1.2 4.4.2 1.9.8 3.8 1.3 4.2 1.4 1.1 9.5 1 9.5-.1 0-.5 2.7-1.2 6-1.6 5.4-.6 6.2-1 7.6-3.7 1.8-3.4 1.9-3.1-2.6-5.2-1.9-.8-2.8-1.5-2-1.5 3.2.2 4-.2 4-1.9 0-1 .5-2.3 1.1-2.9 1.9-1.9 2-6.3.1-6.3-1.3 0-1.2-.3.4-1.5 2.2-1.6 2.1-1.7-2.6-.4M585.1 102.4c-.7.8-1.1 3-.8 4.8l.4 3.3.1-3.8.2-3.7 5.8.1c3.1.1 4.7.4 3.5.6-1.3.2-2.3.8-2.3 1.3s-.8.6-1.7.3c-1.2-.5-1.5-.2-1 1 .3.9.2 1.7-.3 1.7-1.4 0-1.2 2.8.1 3.2.7.2 1.7 1.9 2.3 3.8 1 3.1 1.6 3.5 4.9 3.8 2.4.2 3.7.8 3.7 1.8s1.2 1.4 4 1.4c3.3 0 4 .3 4 2 0 1.8.7 2 6 2 3.3 0 6-.4 6-1s.9-1 2-1c1.3 0 2 .7 2 2s.7 2 1.9 2c1.5 0 2.1.8 2.4 3.2l.4 3.3.1-3.2c.2-2.6.5-3.1 2-2.6.9.4 2 1.1 2.4 1.7.4.5 1-.2 1.3-1.7.9-3.5 2.3-3.5 2.8 0 .2 1.6.5-3.1.6-10.3l.1-13.2-3.1-.6c-4.9-1-14.9-.7-14.9.4 0 .5-.9 1-1.9 1-1.1 0-2.3-.5-2.6-1-.3-.6-2.6-1-5.1-1-3.7 0-4.5.3-4.3 1.7.5 5.2-1.4 5.7-6 1.6-3.8-3.4-3.9-4.1-.3-4.6 1.5-.2 0-.5-3.3-.6s-6.9-.4-8.1-.7-2.6.1-3.3 1M686.5 101.5c-.5.2-3.1.6-5.8 1-3.3.4-4.5 1-4 1.8.4.7-.2.5-1.2-.3s-1.6-1-1.2-.3c1 1.6-.5 2.3-4.8 2.5-1.9.1-3.5.5-3.5 1 0 .4-2.2.8-5 .8-2.7 0-5 .4-5 1 0 .5-1.2 1-2.7.9-2.5 0-2.6-.1-.8-.9s1.8-.9.2-.9c-1.6-.1-1.7-.3-.3-1.6.9-1 3.4-1.5 7-1.5 3 0 5.8-.5 6.1-1 .4-.7-.7-.9-3.2-.6-2.1.3-7.6.8-12.2 1.1-4.7.3-8.5.7-8.6.8s.2 1.3.6 2.7l.7 2.5.2-2.5c.1-2.5.1-2.5 1-.3.5 1.3 1.6 2.3 2.3 2.3 1.1 0 1.6 1.7 1.9 6 .5 6.5 1.4 8.4 2.9 5.8 1.3-2.4 4.9-1.1 4.9 1.8 0 1.3.5 2.4 1.1 2.4s.9.7.5 1.5c-.4 1.1.3 1.5 3.2 1.7 2 .1 5.5.4 7.7.6s7.4.5 11.5.6c6.7.1 7.5-.1 7.8-1.9.3-1.1.9-2.3 1.4-2.6s1-2.7 1-5.3c0-3.5.4-4.9 1.8-5.6 2.5-1.3 2.8-1.3 3.3.7.3 1 .5-1.2.6-5 0-3.7-.3-6.7-.9-6.7-.5 0-.7-.7-.4-1.5.5-1.2-.2-1.5-3.2-1.4-2.2 0-4.3.2-4.9.4M936.7 112.8c.2 1.5 1.2 9.9 2.3 18.7s2 16.3 2 16.7.7.5 1.5.2c.8-.4 1.7.1 2.1 1 .3.9 1.2 1.6 2 1.6 1.7 0 1.9 4.7.2 5.2-.8.3-.1 1.7 2 3.7 1.7 1.8 3.2 3.6 3.2 4.1 0 .4.7 1 1.4 1.3 1.1.4 1.3.1.9-1s-.3-1.4.6-.9c.6.4.9 1.6.6 2.6s-.2 2.1.3 2.4c1.1.7 3.2-3.7 3.2-6.9 0-1.3.5-2.7 1-3 .6-.3 1-2.3.9-4.3 0-2-.3-3.1-.6-2.5-.2.7-1.7 1.3-3.3 1.3-2.5 0-2.8-.4-3.5-4.6-.6-4.2-.4-4.9 2.1-7.5 1.5-1.6 2.3-2.9 1.6-2.9-.6 0-1.6-1-2.3-2.1-.9-1.7-.8-2 .3-1.3 1.4.9 1.4.8-4.1-6.3-1.8-2.4-3.8-4-4.5-3.7s-1.6-.2-2-1.2c-.5-1.4-.4-1.5.9-.4 2.2 1.8 1.9-.4-.3-2.3-1-1-2.2-1.4-2.6-1s-.5.1-.2-.7-1-3.2-2.8-5.2c-3.2-3.7-3.2-3.7-2.9-1M903.1 143.2c0 1.1-.6 1.5-1.6 1.2-.9-.4-1.5 0-1.5 1 0 .9.8 1.6 2 1.6 1.1 0 2 .4 2 1 0 .5-.4 1-1 1-.5 0-1 .9-1 2 0 1.3-.7 2-2 2s-2 .7-2 2c0 1.1-.4 2-1 2-.5 0-1-.7-1-1.5 0-1.8-2.7-2-4.4-.2-.8.8-1 2-.5 3.2 1.1 3 1.1 3.3-.8 3.7-1.7.4 4.4.4 14.5 0 4.3-.2 5.7-2 2.2-2.9-2.1-.6-2.8-3.3-.9-3.3.7 0 .9-1.2.5-3.3-.3-1.7-.7-3.8-.8-4.5-.1-.6-.5-1.2-.9-1.2s-1-1.2-1.2-2.8c-.2-1.5-.5-1.9-.6-1M0 550v170h167.1c158.8 0 167.1-.1 166.4-1.8-.5-.9-3.9-10.9-7.7-22.1-7.7-22.6-14.8-49.2-17.8-66.4-1-6.2-2.4-13.9-3-17.2-.5-3.3-2.6-15.7-4.5-27.5-4.2-25.6-6.4-37.9-7.1-40.3-.6-2-5.8-4.9-6.9-3.9-.5.4-.5.2-.2-.4.7-1.2-1.8-3.8-4.2-4.6-.8-.2-2-2-2.7-3.9-.6-1.9-1.7-3.3-2.3-3.1-.6.1-1-.1-1-.5.4-2.7-.4-3.8-2.8-4-1.5 0-2.9-.6-3.1-1.2s-1-1.8-1.8-2.5c-.8-.8-1.4-2.8-1.4-4.4 0-3.6-.9-6.4-1.9-5.8-.4.3-.8-2.3-.8-5.7-.2-4.9-.7-6.5-2.5-8.3-4.3-4.3-4.9-5.2-3.5-5.7.7-.3.4-.6-.5-.6-1-.1-1.8.6-1.8 1.5 0 1-.7 1.4-2.2 1.2-3-.4-4-5.8-1.1-5.8 1.7-.1 1.7-.1 0-1.4-.9-.7-1.7-1.8-1.7-2.5 0-.6-.9-1.1-2-1.1s-2-.5-2-1c0-.6-.7-1-1.5-1-2.5 0-7.5-2.9-7.5-4.3 0-.7-.9-1.9-2-2.7-1.3-1-2-2.6-2-4.9 0-2.6-.8-4.1-3.6-6.7-1.9-1.9-4-3.5-4.5-3.5-.5-.1-1.4-.2-2-.3-1.3-.1-4.8-4.7-4.9-6.4 0-.6-.5-1.2-1.1-1.2-.7 0-1.7-.7-2.4-1.6-.6-1-2.7-2.2-4.6-2.8l-3.4-1.1v-8c-.1-4.4-.2-8.6-.3-9.3-.2-1.5-15.2-1.7-15.2-.2 0 2.4-1.8.7-2.4-2.2-.3-1.7-.9-2.8-1.2-2.5-.4.3-1.3-.1-2.1-.9s-1.9-1.2-2.4-.9c-.5.4-.9-.1-.9-.9 0-.9-.7-1.6-1.5-1.6s-1.5-.5-1.5-1c0-.6.7-1 1.5-1s1.5-.6 1.5-1.4c0-1.4-2.9-2.6-6.7-2.6-1.6 0-2.3-.6-2.3-2 0-1.1.5-2 1-2 .6 0 1-.5 1-1 0-.6-2.7-1-6-1-3.7 0-6-.4-6-1.1s1.4-.9 3.8-.6c2 .2 2.9.2 2 0-1-.2-1.8-.9-1.8-1.4s-2.2-.9-5-.9c-2.7 0-5-.5-5-1 0-.6.5-1 1-1 .6 0 1-.7 1-1.5 0-1.1-1.1-1.5-4-1.5-2.2 0-4 .4-4 1 0 .5-1.5 1-3.4 1-2.8 0-3.6-.5-4.6-3-.7-1.7-2-3-2.9-3.1-.9 0-4.2-.2-7.3-.4-5.4-.4-5.7-.3-6.7 2.3-.5 1.5-1 2.1-1 1.4-.1-.6-.6-1.2-1.2-1.2s-1.7-.7-2.6-1.5c-.8-.8-1.9-1.2-2.5-.9-.7.4-.8.2-.4-.5.9-1.4-1.7-4.1-3.8-4.1-.9 0-1.6-.4-1.6-.9 0-1.6-2.9-2.1-18.7-2.7-10.2-.4-15.8-.2-16.2.5-.4.6-2.1.7-4.8.1-2.3-.6-13.5-.9-25-.9-22.9.2-33.8-.6-36.8-2.7-1.1-.8-4.3-1.4-7.2-1.4H0z"/><path d="M1040.3 437.9c-3.8 1.9-4.3 4.1-.9 4.1 1.4 0 3.1.7 4 1.5.8.9 5 2 9.8 2.6 4.6.6 8.6 1.6 9 2.2s3.8 1.3 7.6 1.5l6.9.4.7-4.6c.9-5.8.4-6.6-4.2-6.6-2-.1-4.8-.7-6.2-1.5-3.6-2.1-22.4-1.8-26.7.4M953.8 486.5c-.2.3-2 .7-3.9.9s-3.3.8-3.2 1.2c0 .5-.5 1.5-1.3 2.2-1.2 1.1-1.4.9-1.4-1.3 0-1.6-.6-2.5-1.6-2.5-1.3 0-1.5.7-1 3 .4 2.4.2 3.2-1.2 3.7-.9.4-2.1 1.2-2.5 2-.4.7-1.5 1.3-2.2 1.3-.8 0-1.5.8-1.6 1.7 0 1.6-.2 1.5-.9-.2-.7-1.4-.8-.8-.3 2 .7 4.8 1.3 5.8 1.3 2.2 0-1.4.5-2.9 1-3.2.6-.4 1 1 1 3.5 0 2.8-.4 3.9-1.1 3.4-.8-.5-1 .1-.6 1.7.3 1.3 1.5 7.2 2.8 13.1 2.3 10.4 3.8 12.9 4 6.5l.1-3.2.9 2.9c.5 2 .4 3.4-.3 4.3-.6.7-.8 1.3-.5 1.3.2 0 3-2.9 6.1-6.4l5.7-6.5-1.5-3.3c-1.2-2.8-1.4-2.9-1.5-1.1-.1 2.5-3.1 3.3-3.1.9 0-1.9 1.9-3.3 6-4.1 1.9-.4 4.1-1.2 4.8-1.7.8-.7 1.2-.7 1.2.1 0 .7.5.9 1.1.5.8-.4.8-.9.1-1.3-.6-.4-1-1.4-.8-2.4.2-1.8 2.6-4.7 2.6-3.3 0 .5 1.4-.6 3.2-2.4 1.9-2 2.7-3.5 2-3.8-.7-.2-1.2-1.1-1.2-1.9 0-.9.6-1.3 1.5-.9 1.3.5 1.4.2.1-2.2-.7-1.5-1.6-3.4-2-4.2-.3-.8-.4-.5-.2.7.4 2.4-.9 3.2-1.6 1.1-.2-.6-2.1-1.1-4.4-1-2.5.1-3.4-.2-2.5-.7.7-.5 1-1.4.7-2-.7-1.1-2.9-1.5-3.8-.6M929 501.2c0 1.1-.7 1.4-2.5 1-1.7-.3-2.5 0-2.5.9 0 1.1-.2 1.1-1-.1-.9-1.3-1.2-1.3-2 .2-.6.9-2.8 1.9-5 2.3s-4.2 1.1-4.6 1.6c-.3.5-2.3.9-4.5.9-4.6 0-4.9 1.7-.7 3.8 2 .9 2.5 1.7 2.1 3.3-.6 2-1.1 2.1-7.2 1.6-9.5-.8-10.1-1.2-10.1-6.2 0-2.4-.4-4.6-.9-4.9-1-.7-1 .2 3 29.9 3.9 29 3.8 28.5 5.5 27.8 1.7-.6 1.8.1.2 2.7-2.2 3.5 0 3.3 4.9-.6 14.4-11.6 33.3-27.5 33.3-28.1 0-.4-.5-.2-1.2.5-1.9 1.9-2.9 1.4-1.6-.7.7-1.1 1.6-1.7 2-1.5 1 .7.9-3.4-.3-6.6-.7-2.1-.8-1.9-.4 1 .6 3.9-.9 3-1.9-1.2-.4-1.6-.2-2.8.6-3 .9-.3.5-3.7-1.5-12.8-2.7-11.8-3.7-15.2-3.7-11.8M884 512.2c0 2.2-.2 2.3-9.4 2s-9.4-.3-11.3 2.3c-2.8 4.1-9.6 10.5-10.5 9.9-.4-.3-.8.9-.8 2.5 0 3.6-.5 3.8-3.4 1.3-1.8-1.5-1.9-1.5-.8 0 3.8 4.8 46.5 38.4 47 36.9.3-1-1.7-15.7-5.5-38.1-.8-5.2-1.5-10.3-1.5-11.3.1-1.5-.1-1.5-1.4-.3-.8.9-2.1 1.3-2.9 1-1.3-.5-1.3-.8 0-2.1 1.4-1.3 2.1-6.3 1-6.3-.3 0-.5 1-.5 2.2M957.8 518.7c0 .5-.2 1.2-.3 1.8-.6 3.3-2.7 6.5-4.1 6.5-1.5 0-1.6-.2-.2-1.8.8-.9 1.8-2.4 2.2-3.2.8-1.6-2 1.3-9.7 10.3l-4.9 5.6.9 7.7.8 7.6 1.9-2.1c2-2.2 2-2.2 0-1.5-1.6.7-1.4.2.9-2.7 1.5-1.9 3.2-4.4 3.7-5.6.5-1.1 1.4-2.4 1.9-2.8.6-.3 1.1-1.5 1.1-2.5s.6-2.5 1.3-3.2c1.8-1.9 4.8-8.9 5.1-12.1.3-2.4-.2-3.9-.6-2M965.3 529.6c-4.3 5.3-10 12.2-12.7 15.3-8.1 9.4-9.8 12.4-8.6 15.2 1.3 3 7.6 11.9 9.5 13.3 1 .8 1.2 1.6.5 2.6-.5.8-1 1-1 .5 0-.6-1.1-2.3-2.5-3.9s-2.5-3.2-2.5-3.5c0-.9-6-7.5-6.4-7-.3.4-4.5 15.9-14 51.4-4 15.1-5.2 15.8 11.8-6.5 16-21 17.6-23.6 16.9-27.1-.4-2.4-.3-2.8 1-2.3 1.2.4 2-1 3.6-6.8 1.2-4 2.6-8.7 3.1-10.4 1.3-4 1.3-4.4-.4-3.8-.8.3-1.7.1-2.1-.5-.3-.6.1-1.1.9-1.1.9 0 1.6-.6 1.6-1.3 0-.9.2-.9.8.1.6.8 1.8-2.4 3.5-8.7 2.8-10.3 3.4-14.6 1.8-13.7-.5.3-1.1-.3-1.4-1.4s.7-3.5 2.5-5.9c5.4-7.4 2.1-4.3-5.9 5.5M308 522.2c0 .4 1.9 3.1 4.3 6 4.8 5.9 6.9 9.2 4.6 7-.7-.6-2.1-1.2-3-1.2-2.5 0-3.4 7.4-1.5 12.5.8 2.2 1.5 3.6 1.5 3.2.1-.4 1-.3 2.1.3 3 1.6 6.4-.5 5.6-3.5-.3-1.3-.2-3.4.3-4.7.7-1.9.1-3.2-3.8-7.9-2.5-3.1-5.8-7.2-7.3-9-1.5-1.9-2.8-3.1-2.8-2.7M809.1 524.9c-1.4 1.6-3.5 3.5-4.8 4.2s-2.3 1.8-2.3 2.6c0 1.8-.9 1.6-4.8-.7-4.2-2.6-7.8-1.8-8.8 1.8-.4 1.5-.6 3.2-.5 3.8.1.7-.5 1.4-1.2 1.7-.8.3-1.3-.1-1.2-1.1.2-1.7 2.1-6.7 3.1-8.3.3-.5.3-.9 0-.9s-3 5-5.9 11c-5.3 10.9-5.4 11.1-3.3 12.3 1.1.6 2.6 1.2 3.1 1.2.6.1.9.6.8 1.1-.1.6 5.9 7.1 13.3 14.5l13.5 13.4-.7-5c-.3-2.8-.4-4.7 0-4.4 1 1 3.5 9.9 2.5 9.3-.5-.3-.6.2-.3 1 .3.9.9 1.6 1.3 1.6 1.2 0 6.2-9.7 5.9-11.2-.2-.7.2-1.2.8-1.1s4.1-5.1 7.8-11.5c3.6-6.4 7.7-13.6 9.1-16 2.6-4.4 3.2-6.8 1.5-5.7-.6.3-.7-.1-.4-1 .4-.9 1.2-1.4 1.9-1.2.6.3 2-.9 3-2.6 1.6-2.8 1.6-3 .1-1.6-1.6 1.4-2.2 1.4-7.4-.3-3.1-1-7-2-8.6-2.4-2.3-.4-2.7-.7-1.5-1.5 2-1.2.2-1.1-2.3.2-1.3.7-1.8.7-1.4.1.3-.6.2-1.3-.4-1.7-.5-.3-1-.1-1 .4 0 .6-.4 1.1-1 1.1-.5 0-.9-.3-.9-.8.4-2.2-.3-3.2-2.1-3.2-1.1 0-2-.5-2-1 0-2-2.6-1-4.9 1.9M853.8 539.9c4.4 4.4 4 5.4-.7 1.7-1.8-1.4-9.1-1.5-9.1-.2 0 .6-.4.5-.9-.2-.9-1.4-2.5.9-16.4 24.3-8.8 14.7-9.5 16.4-7.6 17.6 1.1.8.9.9-.7.4-3.7-1-3.7 3 0 8.9 1.8 2.8 7.2 11.2 11.9 18.6 10.7 16.9 12.5 19.2 14.1 18.3 2.7-1.6 50.6-55.7 50.6-57.1-.1-1.2-25.4-20.7-26.7-20.6-.7.1-1.1-.3-1-.8s-3.6-3.9-8.3-7.5-7-5.2-5.2-3.4M754 540c0 .5-.7 1-1.6 1-1.3 0-1.5.7-.9 4.2.4 2.4 1.1 4.7 1.6 5.2.5.6.9 1.9.9 3 .1 3.1 3.7 10.6 5.2 10.6.7 0 2.9-1.8 4.8-4 3.4-3.8 5.9-5.4 4.4-2.8-.5 1.1 1.7-1.3 5.5-5.8.7-.8.3-1.8-1-3-2-1.8-2.7-.6-.8 1.3.8.8.8 1.3 0 1.8-.6.3-1.4-.1-1.7-1-.4-1-.9-1.3-1.3-.6-.4.6-2.4-.3-4.9-2.4-3.4-2.6-3.9-3.4-2.5-3.7s1-.7-1.4-1.8c-1.8-.8-3.3-1.8-3.3-2.2 0-.5-.7-.8-1.5-.8s-1.5.4-1.5 1M923 552.7c-8 6.4-16.8 13.7-19.6 16.2l-5.2 4.6-2.1 21.4c-1.1 11.8-1.9 21.6-1.8 21.8.2.1 2.5-2.8 5.3-6.5 2.7-3.7 10-13.2 16-21.2 6.1-8 14-18.6 17.5-23.5l6.6-9-.5-6.2c-.2-3.5-.8-6-1.3-5.7-1.3.8-1.1-1 .3-2.4.7-.7.8-1.2.3-1.2-.6 0-7.5 5.3-15.5 11.7M497.6 545.5c-1.9 2.8-2 3.5-.6 3.5.6 0 1-.7 1-1.5 0-1.9 2.6-2 3.3-.1.7 1.7-3.7 6.1-5.2 5.2-.6-.4-.9-.1-.5.7.6 1.7-8.2 9.3-10.2 8.9-.8-.2-1.2.3-.9 1 .7 1.9-17 19.4-18 17.8-.4-.7-.3-1.5.3-1.9 1.9-1.2.2-5.1-2.2-5.1-2.2 0-4.6-1.7-4.6-3.2 0-.4.7-.8 1.5-.8s1.5-.6 1.5-1.3c.1-.6.9-.2 1.9 1 2.4 2.8 5.6 3 5.8.4.1-1.3-.6-2.1-2-2.4-2.2-.4-2.2-.4.1-.6 2.2-.1 2.5-.7 2.4-4.6-.1-1.7 0-1.7.4-.3.9 3.1 3.4 2.1 3.4-1.3 0-2.9.2-3.1 3-2.7 1.9.3 2.9.1 2.7-.6-.2-.6-1.3-1.2-2.5-1.4-1.4-.2-2.2-1.1-2.2-2.3s-.7-1.9-1.9-1.9c-1.1 0-2.1-.5-2.3-1.1-.2-.7-1.5-.9-3.4-.5-2.6.6-3 1.1-2.6 3.1.3 1.8 0 2.5-1.2 2.5-.9 0-1.6.8-1.6 2 0 1.1-.4 2-1 2-.5 0-1-.6-1-1.3 0-.8-.3-.9-.8-.1-.9 1.4-6.6 2.9-5.7 1.4.3-.5.1-1-.4-1-.6 0-1.1-.5-1.1-1.1 0-.5.5-.7 1-.4.6.3 1-.3 1-1.5 0-1.5-.5-2-1.7-1.8-1.9.3-3.2 4.8-1.4 4.8.6 0 1.1.7 1.1 1.5 0 .9.6 1.8 1.3 2.1.8.3 1.4 1 1.4 1.7 0 1.8 10.4 18.7 11.5 18.7.5 0 8.9-7.8 18.5-17.3l17.6-17.4-2.1-2.1c-1.1-1.1-1.8-2.3-1.4-2.6.3-.3.3-.6 0-.6s-1.3 1.1-2.2 2.5M648.1 545.2c-.1 1-.5 1.9-1.1 1.9-.5.1-1.4.3-2 .4-.5.1-1.4.3-2 .4-.5 0-1.1 2.2-1.1 4.8-.1 2.7-.3 3.9-.6 2.8-.7-3.1-1.6-3.6-6.8-4l-4.7-.4.4 3.4c.2 1.8.1 3.2-.3 2.9-.4-.2-.9.6-1.2 1.8-.4 1.3-.1 2.6.6 3 .9.6.9.8 0 .8-2.2 0-1.4 1.8 1 2.3 1.9.4 1.9.4-.5.6-1.5 0-3 .6-3.4 1.2-.4.7 1.8 1 7.2.7 5.6-.2 7.8-.7 7.7-1.6-.4-1.6.3-1.5 3.1.4 2.7 1.7 2.4 2 6.8-6.5 3.2-6.3 3.4-7.7 1.2-8.5-.9-.3-1.4-1.3-1-2.1.3-.8-.1-1.8-.8-2.2-.7-.5-1.6-1.5-1.9-2.3-.4-1.2-.6-1.1-.6.2M343.2 549.9c.1 2.2-.4 4.6-1.1 5.5-1.1 1.3.1 3.4 8.2 14.3 5.3 7.1 10 12.7 10.5 12.6s.9.5.8 1.5c0 .9.4 1.6 1 1.5.7-.1 1.1.3 1 1-.1 1.1 21.6 30.8 22.2 30.3.5-.6-4.3-37.4-4.9-37.1-.3.3-.4-.7-.1-2.1.6-3.1-2.6-7.2-4.1-5.2-.6 1-.7.9-.4-.3.7-2-3.7-6.4-5.3-5.4-.6.4-.9.1-.8-.7.2-.8-.5-1.2-1.8-1.1-1.2.1-3.2-.9-4.4-2.2-2.7-2.9-2-3.2 1.5-.9 4.5 2.9 2.6.8-4-4.4-6.5-5.2-8.5-6.2-8.5-4 0 .6-1.3-.1-2.9-1.6-1.6-1.6-3.4-2.5-4-2.1-.7.3-1.1.3-1-.2.3-1.9-.2-3.3-1.1-3.3-.6 0-1 1.7-.8 3.9M384.6 554c-.4 2.5-.6 6.9-.4 9.8l.3 5.4 4-3.2c2.2-1.8 3.9-3.7 3.7-4.2-.1-.5.1-.7.6-.4s2-.6 3.3-2c2-2.1 2-2.4.5-1.8-1.4.5-1.7.4-1.2-.5.4-.6 1.5-.9 2.5-.6 1.1.3 2.6-.5 4.1-2 1.8-1.9 2-2.4.7-1.9-.9.3-1.7.1-1.7-.5s-.7-.8-1.5-.5c-.8.4-1.2 1-.9 1.5s1 .6 1.6.3c.7-.4.8-.2.4.5-.4.6-1.2.8-1.9.4-.6-.4-3.5-.7-6.4-.7-4.6-.1-5.3.2-5.4 1.9-.1 1.1-.5.2-.8-2l-.7-4zM778.4 554.8c2.2 2.4 2.6 3.2 1.4 3.2-2.4 0-7.8 3.3-7.8 4.7 0 .7-.7 1.3-1.5 1.3-.9 0-1.8.6-2.1 1.4s-1.3 1.2-2.4.9c-1.2-.3-2.4.4-3.6 2.2-2 3.1-1.9 3.4 7.3 17.5 6.1 9.5 10.2 13.9 24.1 25.9 7.8 6.8 9.1 6.7 7.7-.7-1.7-8.7-1.2-10.6 1.1-3.9l1.1 3.2 1.7-5.5c1-3 2.9-8.3 4.4-11.8l2.6-6.3-13.5-13.5c-12.7-12.9-27.5-26.2-20.5-18.6M323 555.5c-.7.8-2.1 1.5-3.1 1.5-1.2 0-1.9.7-1.9 1.9 0 2.5 1.2 3.2 3 2 1.3-.7 1.3-.9.1-.9-.8 0-1.2-.2-.9-.5s1.6-.1 2.9.4c1.6.7 1.9 1 .7 1-.9.1-2 1-2.3 2.1s-1.3 2-2.1 2c-1.8 0-1.1 4.8 1.7 10.5 1.5 3.1 1.8 3.4 1.4 1.2-.5-2.4-.2-2.7 2-2.7 1.8 0 2.6-.7 3.1-2.4.3-1.3 1.5-2.6 2.6-2.9 1.2-.4 1.7-1 1.3-1.7s-.1-1.6.6-2.1c1.1-.7 1-.9-.4-.9-1 0-1.5-.5-1.2-1 .3-.6 1.5-1 2.5-1 1.3 0 1.7-.5 1.4-1.5-.4-.8-.2-1.5.4-1.5s1.3.6 1.5 1.2q.6 1.5.6 0c.1-.7-.4-2.2-1-3.3-1-1.9-1.2-2-2.9-.4-2.2 2-6.2 1.2-5.3-1.1.7-1.9-3.1-1.9-4.7.1M444.8 556.6c-.3 2.7-.6 2.9-5.1 3.2-3.5.2-4.9-.1-5.3-1.2-.3-.9-1.7-1.6-3-1.6s-2.4-.5-2.4-1c0-.6-2.2-1-4.8-1-3.6 0-5.7.7-8.2 2.5-2.6 1.9-4.6 2.5-8.8 2.5-3.8 0-5.1-.3-4.6-1.2.9-1.5-1.4.3-10.9 8.1-7.7 6.4-9 7.8-6.2 6.8.8-.4 1.7-.1 2.1.5.4.7.3.8-.4.4-2.3-1.4-1.1.9 2.1 4.4 1.8 1.9 6.7 7.3 10.8 12 15.1 17.3 34.1 37 35 36.4.5-.3.8-.1.7.4-.2.6.1 1.1.7 1.2 1.1.3 6-6.6 18.9-26.9l9.8-15.4-1.6-3.1c-3.3-6.3-5.4-9.1-6.6-8.8-.6.1-.9-.2-.5-.7.6-1.1-2.1-7.1-3.3-7.1-.4 0-1.3-1.4-2-3-.8-1.7-1.8-2.8-2.3-2.5-.5.4-.7 0-.4-.7s-.4-2.6-1.4-4.2l-1.9-2.9zM488.6 566.3c-6.8 6.4-10.7 10.8-10.2 11.5.4.7.2 1-.6.7-2-.8-10 7.8-9.3 9.7.4 1.1 1.5 1.5 3 1.2 3-.5 3.6.5 2.6 4.2l-.8 2.9-1.1-2.8c-1.5-3.7-2.4-3.5-1.1.3.6 1.6 1.8 3 2.6 3 1.1 0 1.3.4.5 1.2-.7.9-.1 3.8 1.9 9.7 1.5 4.6 3 8.6 3.3 8.8.6.7 17.2-13.5 22.6-19.3 6.1-6.6 11.2-14.8 10.4-16.7-.3-.9-.1-2.4.5-3.4.9-1.5 1-1.3.5.9-.9 4.1 0 3.4 3.6-2.4 2-3.2 2.8-5.4 2.1-5.6-.6-.2-1.1-1.1-1.1-1.9 0-1.2-.3-1.3-1.4-.4s-1.6.9-2.1 0c-.6-.8-1-.7-1.7.2-.7 1-.8.8-.4-.6.8-2.7-2.7-5-5.4-3.5-2.5 1.3-3 1.3-3-.5 0-1-1-1.5-2.9-1.5-3.5 0-4.4-1.8-2.3-4.3 3.4-3.9.1-1.1-10.2 8.6M970.3 562.2c-9.9 19.8-11.5 23.9-11.9 29.7-.4 4.6-.1 6 1.1 6.5.8.3 1.5 1.8 1.6 3.3l.1 2.8.9-3c.5-1.8.5-3.3-.1-3.9-1.3-1.3-1.3-4.6-.1-4.6.5 0 1.1.6 1.4 1.2.3.9.6.9.9-.2 5-15.7 5.5-17.8 4.2-17.3-1.6.6-2-3.7-.5-6.5 4.7-9.2 7-14.2 6.3-14.2-.4 0-2.2 2.8-3.9 6.2M936.4 564.8c-1.1 1.7-7.5 10.3-14.4 19.3-6.8 9-16.1 21.3-20.6 27.2l-8.1 10.9-1.2 11.1c-.6 6.2-2 19.7-3.1 30.2-1.1 10.4-2 19.7-2 20.5 0 1.6 3.3-3.2 15.7-23.5 17.1-27.8 18-29.5 21.2-41.5 8.9-32.8 15-56.4 14.7-56.7-.2-.2-1.2.9-2.2 2.5M336.8 564.5c-.7.9-2.1 2.5-3 3.6-1 1-1.5 1.9-1.2 1.9s-.4 1.2-1.5 2.6c-1.1 1.5-1.8 3-1.5 3.5s-.1.9-.8.9-2.1 1.4-3.1 3.1c-1.7 3-1.6 3.2.5 6.2 5.8 8.3 19.6 26.7 23.3 31.2 2.3 2.7 4.7 5.9 5.4 7l1.2 2-.5-2c-.2-1.1-3.6-13.7-7.4-28-3.9-14.3-7.3-27.5-7.7-29.2-.8-4-2-4.8-3.7-2.8M343.2 567.6c.3 1.6 2.9 11.9 5.8 22.9s6.3 23.8 7.5 28.5c2.9 11.3 1.7 9.1 29.6 55.2 3.5 5.8 6.5 10.2 6.7 9.7.2-.4-.6-10-1.8-21.1-3.4-33-3-30.8-5.4-30.9-1.7-.1-1.7-.2-.3-.6 2.3-.6 2.3-5.8-.1-10.3-1-1.9-9.8-14.1-19.6-27-16.9-22.3-22.1-28.7-20.1-25 .5.8 1.7 2.7 2.7 4.2 2.3 3.4 2.3 4.4-.1 2.1-2-1.9-3.6-6-3.3-8 .2-.6-.3-1.5-.9-1.9-.8-.5-1 .2-.7 2.2M616 572.6c-.8.1-4 .6-7.1.9l-5.7.6-.6 4.2c-.3 2.3-.8 7-1.2 10.4-.6 5.7-.4 6.2 1.7 7.4 1.3.6 5.4 3.2 9.1 5.5 3.7 2.4 7.4 4.4 8.2 4.4 1.3 0 1.5-2.3 1.3-16.4-.1-9 .1-16.2.6-15.9.4.2.7-.1.7-.6 0-1-3.6-1.3-7-.5M650.3 577.1l-8.3 5.1v12.9c0 11 .2 12.9 1.6 12.9.8 0 1.3-.4 1-.8-.3-.5.9-1.6 2.7-2.4 1.8-.9 5.2-3.2 7.7-5.1 2.4-2 4.8-3.3 5.4-3 .6.4.7-3.4.3-10.2-.5-7-1.2-11.2-2-11.7-.9-.6-.9-.8.1-.8.6 0 1.2-.5 1.2-1 0-1.6-1.1-1.2-9.7 4.1M663.8 574.2c.2 1 1.1 1.8 1.8 1.8 2 0 1.7 1.7-.3 2.9-1 .6-1.2 1.1-.5 1.1.6 0 1.2.4 1.2 1 0 .5-.6.9-1.2.7-1-.1-1.3 2.6-1.3 11 0 7.9.3 11.3 1.2 11.3.6 0 1.3-.5 1.5-1.1.3-.8 1.4-.7 3.5.5 1.8.9 4.6 1.6 6.4 1.6 2.7 0 3.1-.3 2.6-2.1-.4-1.5-.2-1.9.9-1.5 1 .4 1.4-.3 1.4-2.7-.1-2.9-.2-3-1.3-1.2-.7 1.1-2.4 2.1-3.9 2.2-2.7.2-2.7.1-1.2-2.3.9-1.3 2-2.4 2.5-2.4s.9-1 1-2.3c.1-2.1.1-2.1.9.3 1.4 4.7 2.3-.6 1.5-9.3-1-11.4-1-11.5-9.8-11.4-6.7 0-7.4.2-6.9 1.9M625.1 579.1c0 2.5-.4 8.6-.7 13.5l-.6 8.9 7.8 3.8 7.9 3.8.3-12.8c.1-7 .1-13.2-.2-13.8-.4-1.3-12.6-7.8-12.5-6.7.1.4 0 1.6-.1 2.7-.2 1.5-.4 1.2-1-1-.7-2.7-.8-2.6-.9 1.6M883.4 589.7c-6.7 7.6-17.4 19.7-24 26.8-6.5 7.2-12.5 13.8-13.2 14.7-1 1.3-.7 3 1.7 9.9 1.7 4.6 4.7 15.3 6.6 23.6 2 8.4 3.8 15.3 4 15.3s2.7-4.4 5.6-9.8c2.8-5.3 8.5-15.5 12.6-22.5 14.2-24.8 14-24.4 16.2-44.4 2.3-21 2.9-27.3 2.7-27.3-.1 0-5.6 6.2-12.2 13.7M384.5 582.3c2.5 30.9 5.4 45.4 8.9 44.1.9-.3 1.6-.1 1.6.6 0 .6-.4.8-1 .5-2.2-1.4-.5 2.4 9.9 21.2 6 10.9 12.1 22 13.6 24.8 4 7.3 4.2 7.3 5.5.9 4.1-20.1 10.3-40.4 12.3-40.4.5 0 .6.8.2 1.7-2.5 6.3-4.9 13.9-6.6 21.3-1.1 4.7-2.6 11.2-3.4 14.4-1.8 7.6-1.2 6.9 9.9-11.1 5.7-9.3 8.6-14.8 8.2-16-1-3.2-12.6-16.5-36-41.7-12.5-13.5-23-24.6-23.2-24.6-.1 0-.1 2 .1 4.3M812 593.3c-.6 2.3-1.6 4.6-2 5.2-.4.5-1.5 3.2-2.3 6-.8 2.7-2.2 6.7-3.1 8.7-.9 2.1-1.6 4.4-1.6 5.1 0 .8 6.4 6.3 14.3 12.2 7.8 5.9 14.7 11.2 15.3 11.7.8.5 2.6-1.1 5.4-4.7 3.4-4.4 4-5.8 3-6.9-.6-.8-1.8-1.2-2.6-.9s-1.4 0-1.4-.7c0-.6.5-.8 1-.5.6.3 1 .3 1 0 0-1.1-23.8-38.3-25-39-.4-.2-1.3 1.5-2 3.8M954 590.7c0 .6-2.6 4.4-5.8 8.4-3.2 4.1-10 12.9-15.1 19.7-8.8 11.6-9.3 12.5-8.2 14.9.7 1.4 1.9 6.1 2.7 10.3s2.3 10.1 3.3 13.1l1.8 5.4 2.7-9c1.5-5 5.3-17.3 8.5-27.5 7.7-24.4 8.3-26.8 7.5-28.3-.4-.6-.3-.9.1-.4.9.7 3.8-6.3 3-7.2-.3-.2-.5 0-.5.6M326.6 592.5c.4 1.1 1.1 2.5 1.5 3.1.5.6.7 1.3.4 1.6-.6.5 1.1 6.7 6.5 23.3 2.1 6.6 4.4 13.9 5 16.3.7 2.7 1.5 4 2.2 3.6.8-.5.9-.1.5 1.1-.7 1.8 2.8 16.3 4.3 17.9.5.5 2.3-3.8 4.1-9.5 1.7-5.7 3.4-10.9 3.6-11.5.3-.8-.5-1-2.3-.6-1.9.3-2.5.1-2-.7.4-.6 1.6-1.1 2.7-1.1s2.4-1.1 3.1-2.5c1-2.2.8-3-1.9-6.3-1.6-2-8.3-10.7-14.8-19.2-13.5-17.8-13.9-18.2-12.9-15.5M515 594.2c0 .9-.5 2-1.2 2.4-.8.5-.9.2-.5-.9.3-1 .5-1.7.3-1.7-1.6 0-9.3 5-12.1 7.9-3.2 3.2-3.4 3.6-1.9 5.2 1.7 1.9.6 3.3-1.6 1.8-2.5-1.5-3.5-1.1-8.3 3.1-2.9 2.6-4.4 4.6-4 5.5.3.8 0 1.5-.6 1.5s-1.1-.5-1.1-1.1c0-.8-.5-.8-1.5.1-.8.7-1.5 1.8-1.5 2.4 0 1.2 12.1 17.5 18.3 24.7 2.2 2.4 3.7 3.6 3.4 2.7s-.9-4.4-1.3-7.7c-.3-3.4-1-6.1-1.4-6.1s-1-1.9-1.4-4.3c-.4-2.3-.9-5.3-1.2-6.7-.4-1.9-.3-2.1.4-1 1.4 2.2 7.2 23.5 7.2 26.6 0 1.5.5 2.4 1.1 2.2 2.4-.8 20.8-16.3 20.5-17.3-.1-.6-5.6-5.5-12.1-11-6.4-5.4-11.2-10.1-10.6-10.3s5.3 3.2 10.4 7.5c5 4.3 9.9 8.4 10.8 9.1 1.2.9.3-3.1-3.2-14.5-2.7-8.7-4.9-16.4-4.9-17.3 0-.8-.5-2.2-1-3-.8-1.3-1-1.3-1 .2M763.5 596.2c-.4 1.8-2.7 9.4-5 16.8-2.4 7.4-4.6 14.6-5 15.9-.6 1.8 1.6.4 8.6-5.9 5.2-4.5 10.8-9.2 12.5-10.3s4-3.4 5.2-5.1l2.2-3-3.3-3.4c-2.5-2.6-12.1-8.2-14.2-8.2-.2 0-.7 1.5-1 3.2M466.4 595.8c-.6 2.1-5.1 4.5-5.7 2.9-.1-.5-2.2 2-4.5 5.7s-3.9 7.2-3.6 7.8c.4.6.3.9-.2.5-.5-.3-4 4-7.7 9.6-6 9-6.6 10.2-5.2 11.6 1.1 1.1 1.5 1.2 1.5.3s.5-1 1.6-.4c1.9 1 4.8 7.2 3.4 7.2-.5 0-1.1-.9-1.5-1.9-.3-1.1-1.2-2.2-2-2.5-1-.3-.8.6.8 2.9 1.2 1.9 2.5 3.5 2.8 3.5 1.9 0 30.8-23.3 30.9-24.8 0-.7-1.5-5.4-3.4-10.5s-3.7-10.2-4.1-11.5c-.8-2.6-2.5-2.9-3.1-.4M519 596.4c0 .5.8 1.8 1.8 2.9.9 1.1 1.1 1.7.5 1.3-.7-.4-1.3-.2-1.3.3 0 .6.5 1.1 1.1 1.1.5 0 .8.3.5.8-.2.4 1.3 6.8 3.3 14.1 4.1 14.8 5.1 15.4 5.9 3.5.5-8.4-.4-13.6-1.9-11.3-.8 1.1-.9.9-.5-.7.5-1.5-.7-3.4-4.3-7.5-2.8-2.9-5-5-5.1-4.5M758.6 597.9c-1 1.1-1.5 2.5-1 3.2.4.8.3 1-.5.5-1.3-.9-4.4 2.2-6.8 6.8-1.2 2.3-1.4 4.7-.9 10.5.4 4.1 1.1 8.2 1.6 9 .5.9 1 1.3 1 .8 0-.4 2-7.8 4.5-16.3 2.5-8.6 4.4-15.8 4.2-16s-1.2.5-2.1 1.5M952.8 605.2c-1.4 4.6-5.6 17.9-9.2 29.7-3.7 11.8-6.5 21.6-6.2 21.8.8.8 16.9-28.8 19.2-35.2 1.8-5.3 1.8-6.6-.3-5.8-1.3.5-1.5.3-.9-1.3 1.9-4.6 2.3-8.5 1.2-12.9l-1.2-4.7zM325 599.7c0 1.2-.5 2.5-1.1 2.9-.7.4-.9 2.1-.6 4.1.4 1.9.1 4.3-.5 5.3-.9 1.4-.9 2.9.1 6.2.7 2.3 1.5 4.9 1.7 5.6s.8 1 1.4.7.7 0 .4.9 1.7 5.9 4.6 11.3c4.8 9.1 12 21.3 12.5 21.3.1 0-1.1-4.4-2.6-9.8-8.4-29-15.8-51.7-15.9-48.5M783.4 606.7c.4.7.2 1.3-.4 1.3-.5 0-2.3 1.2-3.9 2.7-1.6 1.6-8.1 7.2-14.5 12.7-6.4 5.4-11.6 10.2-11.6 10.6 0 1 19.8 17 21.1 17 .5 0 .9-.7.9-1.6 0-1.7 5-16.4 5.6-16.4.7 0-.7 7.1-2.2 11.2-.8 2.3-1.3 4.3-1.1 4.5.5.5 17.9-21.4 20.3-25.6l1.9-3.3-5.5-4.9-5.5-4.9-.3 3c-.2 1.8-.9 3-1.8 3-1.7 0-1.6.3-.5-3.7.8-2.6.6-3.5-1.2-5-1.1-1-1.7-1.2-1.3-.6M602 608c0 .6.4.9.9.6 1.4-.9 3.4 2.2 3.5 5.2.1 1.5.6 2.6 1.3 2.5.7-.2 1 .3.7 1-.6 1.6 6.5 5.1 9.2 4.5 1.4-.2 1.9-1.3 2.1-4.3.2-2.2.5-4.8.7-5.8.2-.9 0-1.7-.5-1.7s-.9.4-.9.8c0 1-7.9 3.6-8.6 2.9-.3-.2 1.2-1.2 3.3-2.2 3.2-1.6 3.5-1.9 1.8-2.5-4.1-1.5-13.5-2.2-13.5-1M669 608.2c-3 .6-5.6 1.1-5.8 1.3-.6.6-1.4 13.5-.8 13.5 2.4 0 13.4-6.1 13.9-7.6.3-1.1 1-3.4 1.5-5.2 1.2-3.7 1-3.7-8.8-2M642 621.4v9.6l5-3.1c5.5-3.4 6.5-4.5 5-5.4-.5-.3-1-1.1-1-1.7 0-.7.5-.6 1.4.1 1.7 1.4 3.2-.2 2-2.1-.4-.6-.3-.8.3-.5.6.4 1.5-.5 2.1-1.8.7-1.4 1.6-2.5 2.2-2.5.5 0 1-.4 1-.8 0-.5-3.4-.5-7.6 0-5.4.6-8.1.5-9-.3-1.2-1-1.4.5-1.4 8.5M533 621.8c0 1.1-.7 3.8-1.5 6.1l-1.4 4.2 4.7-.6c3.4-.4 5.2-.1 6.6 1 2.4 1.8 1.5 3-1.2 1.6-1.1-.6-3.4-.8-5.2-.5l-3.1.7 4.8 3.4c5.4 3.9 25.8 16.3 26.7 16.3.3 0 .6-.5.6-1.1 0-.5-.4-.8-.8-.5-1 .6-9.3-5.9-8.5-6.7.7-.7 6.3 2.4 6.3 3.4 0 .4.6.9 1.4 1.2 3.1 1.2.2-3-4.2-6.1-12.4-8.6-17.5-13.3-20.2-18.4-3-5.6-5-7.2-5-4M473.2 625.3c-2.3 1.7-8.9 6.9-14.7 11.4l-10.4 8.1 6.7 6c3.7 3.4 9.4 8.6 12.7 11.6l6 5.5.7-6.7c.6-5.1 3.5-39.3 3.3-39.2 0 0-1.9 1.5-4.3 3.3M478.1 636.6c-.6 7.7-1.4 16.6-1.7 19.9s-.7 7.4-1 9.2c-.2 1.7-.1 3.4.4 3.7.4.2 6.7-3.2 13.9-7.8l13.1-8.2-3.1-4.2c-2.6-3.3-14.5-18.9-19.3-25-.7-1-1.4 2.3-2.3 12.4M788.7 638.2l-11.8 15.2 7.3 4.6c12 7.6 19.6 11.9 20.2 11.3.3-.3.3-3.1.1-6.2-2.2-24.4-3.6-39.5-3.8-39.7-.1-.2-5.5 6.5-12 14.8M803 624.7c0 1 .7 10.3 1.5 20.8.8 10.4 1.5 19.8 1.5 20.9 0 1.3 2.5-.5 9.2-6.5 5-4.6 10.9-10 13-11.9l3.9-3.5-7.8-6c-15.8-12.3-21.3-15.8-21.3-13.8M888.4 630.7c-.8 1.6-6.1 10.9-11.6 20.8-17 30.2-16.6 29.4-14.4 31.1 1.9 1.3 1.8 1.4-.8 1.4-2.7 0-2.8.2-2.3 3.7.3 2.1 1.2 10.2 1.8 18l1.3 14.3h8.3l6.6-14.2c6.1-13 6.5-14.4 5-15.6-1.5-1.1-1.5-1.2-.1-1.2 1.2 0 1.9-1.2 2.3-4.3 1.1-7.4 6.1-56.7 5.7-56.7-.1 0-1 1.2-1.8 2.7M390 631.5c0 3.2 3.4 35.2 5.1 48.2 1.1 8 1.2 8.3 3.8 8.3h2.6l-2.4 1.9-2.5 1.9 6.4 14.1 6.3 14.1h3.8c4.4 0 3.9 1.7 6.4-20.6 1.8-16.2 2.3-14.1-7.3-31.4-3.6-6.3-9.8-17.6-13.9-25s-7.7-13.7-7.9-13.9-.4.9-.4 2.4M954.8 641.2c-4 14.8-12.7 51.2-12.4 51.5.1.2 2.8-5 6-11.5 3.8-7.8 6.4-14.9 7.7-20.7 2.1-9.8 2.3-11.9 1.1-11.1-.4.2-.8-1.8-.8-4.5 0-3.3.4-4.9 1.3-4.9.8 0 1.3 1.3 1.4 3.2l.1 3.3.7-3c.4-1.7.3-3.6-.2-4.3-.6-.7-1.3-2.9-1.6-4.8-.5-3-.9-2.3-3.3 6.8M727.9 639.7c-5.7 4.2-10.5 7.7-10.7 7.8-.1.1-.5 1.9-.7 3.8l-.5 3.7 7.8-4.6c10.8-6.4 23.2-14.7 23.2-15.5 0-1.4-6.3-1.9-7.8-.7-1.3 1.1-1.5 1-.9-.5.3-.9.5-1.7.3-1.7-.1 0-4.9 3.5-10.7 7.7M920.6 642.7c-.9 4.8-3.6 19.1-6.1 31.7s-4.3 23.1-4.2 23.3c.2.1 5.2-6.9 11-15.6 9.4-14 10.6-16.2 9.8-18.4-.5-1.3-1.9-7.1-3.2-12.8-1.2-5.7-3-11.9-3.9-13.7l-1.8-3.3zM951.4 637.2c-.9 1.8-5.2 9.2-9.5 16.3-5.6 9.3-7.8 14.1-7.9 16.5 0 1.9.8 9.6 1.8 17l1.8 13.5 1.6-5.5c3.4-12 11.2-45.7 11.2-49.2.1-2 .4-3.4.9-3.1.4.2.7.1.7-.4 0-.4.4-2.5.9-4.6 1.1-4.6.7-4.7-1.5-.5M327 636.2c0 .9.5 2 1 2.3.6.4.8 1.1.5 1.6-.9 1.3 12.5 59.2 13.9 60.6.2.3.7-3.1 1-7.4.4-4.3 1.1-10.2 1.6-13.2 2.1-11.3 1.8-12.3-8.5-29.6-5.2-8.8-9.5-15.2-9.5-14.3M355 642.1c-1.2 4.1-3.2 10.9-4.6 15.2l-2.4 7.9 2.2 3.7c4.2 6.7 19.3 28.9 19.6 28.6.2-.1-.4-3.3-1.2-7.1-1.7-7.4-4.4-22.3-7.8-41.9-1.1-6.6-2.4-12.4-2.8-12.9-.5-.5-1.8 2.5-3 6.5M839.6 639c-1.4 2.2-2.6 4.9-2.6 6.1 0 1.8 5.2 11.1 15.2 26.8 1.5 2.5 2.8 3.8 2.8 3 0-2.5-6.8-28.2-9-34.2-1.2-3.1-2.5-5.7-2.9-5.7-.5 0-2 1.8-3.5 4M322.1 641.2c-1.1 4.7-1 6.6.9 15.8 1.3 6.5 3.7 13.9 6.2 19.5 4.1 8.9 7.8 15.7 7.8 14.3 0-1-13-54.2-13.4-54.5-.1-.2-.8 2.1-1.5 4.9M517.7 644.6c-5.9 4.7-10.5 9-10.1 9.5 1.8 3.1 34.4 18.9 38.8 18.9.8 0 2.1-.9 2.9-2.1 1.4-1.9 1.1-2.6-2.5-8.7-6-10-17-26.2-17.8-26.2-.3 0-5.4 3.9-11.3 8.6M739.6 652.1l-10.9 16.1 2.9 2.8 2.9 2.8 9-3.9c10.6-4.7 17-8 24.4-12.7l5.3-3.4-3.8-3.1c-9.1-7.7-17.9-14.6-18.4-14.6-.3 0-5.4 7.2-11.4 16M361.4 640.2c.3 1.4 2 10.6 3.7 20.5 3.9 23.1 6.6 37.1 7.4 38.3.4.7 1.6.5 3.3-.4 1.5-.8 5.9-2.9 9.7-4.7 8.6-4 8.3-3.8 6.5-5.2-.8-.7-1.6-1.9-1.8-2.7-.4-1.8-21-36.4-26-43.5-2.6-3.9-3.3-4.4-2.8-2.3M738.5 643.6c-4.4 3-11 7-14.7 9-3.8 2-6.8 4.1-6.8 4.6 0 .6 1.7 2.7 3.9 4.7 6.7 6.3 6.6 6.3 8.6 2.7 1-1.7 5.3-8.4 9.7-14.9 4.3-6.4 7.8-11.7 7.6-11.6-.2 0-3.9 2.5-8.3 5.5M918.1 638.7c-.1.7-4 7.4-8.8 15-14.6 23.3-22.5 36.4-22.1 36.8.6.6 20.1 9.5 20.3 9.3.2-.3 3.7-18 8.5-43.6 1.8-8.9 2.9-16.8 2.7-17.5q-.6-1.35-.6 0M539.1 646.5c2.7 4.2 6.6 10.5 8.6 14.1 1.9 3.6 4 6.3 4.6 6.1.5-.1 1.2-3.2 1.4-6.8.3-3.5.7-6.6 1-6.9s.3 2.3.1 5.8c-.1 3.4.1 6.2.5 6.2s2.1-1.6 3.8-3.5 3.5-3.2 4-2.9.9 0 .9-.6-1.4-1.9-3.1-2.8-8.3-5-14.6-9c-6.3-3.9-11.7-7.2-11.9-7.2-.1 0 1.9 3.4 4.7 7.5M446 647.2c0 2.5 10.4 37.4 11.8 39.6.6.9 3-1.1 8.5-7.2l7.7-8.4-11.7-10.8c-16.8-15.4-16.3-15-16.3-13.2M826.4 652.1c-11.7 10.5-19.4 18-19.4 18.9 0 .5 3.2 4.6 7.1 9 7.1 8 7.2 8.1 8.4 5.7 3.7-7.1 12.8-39.7 11.1-39.7-.2 0-3.5 2.8-7.2 6.1M442.4 652.7c-6 9.2-18.4 29.6-18.4 30.3 0 1.5 22.3 21.1 23 20.3.4-.4 2.8-3.7 5.3-7.2 3.7-5.1 4.4-6.7 3.7-8.5-.5-1.1-3.2-10-6.1-19.6-2.8-9.6-5.2-17.6-5.4-17.8-.1-.1-1.1 1-2.1 2.5M835 651.4c0 1.4-7.8 26.6-10.6 34.1l-1.4 4 4.6 6.8c2.5 3.7 5 6.9 5.3 7.2 1 .5 22.5-19.1 22.9-20.9.2-.8-1.9-4.7-4.5-8.8-2.6-4-7-11-9.8-15.6-4.8-7.9-6.5-9.7-6.5-6.8M495 660.8c-4.1 2.6-9.6 6-12.2 7.5-2.7 1.5-4.8 3.1-4.8 3.4 0 1.5 20 18.6 20.8 17.8.4-.3 1-3.6 1.4-7.3.3-3.7 1.3-10.8 2.1-15.7.8-5 1.2-9.3.8-9.7s-4 1.4-8.1 4M596.5 657.7c-.7 1-3.2 4-5.5 6.8l-4 5 4.2.6c2.4.4 4.5.2 4.6-.2.2-.5 1.3-.9 2.4-.9 1.3 0 1.8.5 1.5 1.4-.4.9.5 1.9 2.4 2.6 1.6.7 3.1 1.1 3.3.9s-.3-3.8-1.1-7.9c-1.9-9.1-4.6-12-7.8-8.3M679.9 657.1c-2.3.9-2.8 1.9-4.1 8.7-.9 4.2-1.4 7.9-1.2 8.1.9 1 5.4-1.2 5.4-2.7 0-1.3.2-1.4.9-.3.6.9 1.1 1 1.5.2.4-.6 1.2-.9 1.7-.6.5.4.9 0 .9-.7 0-1 .2-1 .8 0 .6.8 1.9 1 4 .6 3.6-.7 3.7-1 2-2.8-.7-.7-2.2-2.5-3.3-4.1-4.7-6.5-5.8-7.4-8.6-6.4M776.4 658.2c.7 3.1 2.5 15.9 3.3 23 .3 3.2.9 5.8 1.3 5.8.3 0 1.7-1.1 2.9-2.4s4.3-3.8 6.9-5.6c4-2.8 3.6-2.2-2.8 3.9-4.1 4-6.6 6.8-5.5 6.2 3-1.4 17.3-15.2 15-14.4-1.1.3-1.7.3-1.4-.1.4-.4 1.7-.9 2.9-1.1 2.9-.6 3.6-1.3 2.4-2.5-1-1-17.7-11-22.7-13.6-2.7-1.4-2.7-1.4-2.3.8M505.6 659.2c-1.3 6.9-4.5 30.3-4.1 30.6.2.2 4.5-1.3 9.7-3.4 9.7-3.8 21-7.6 26.5-8.8 6.5-1.5 5.8-3-3-6.6-4.5-1.8-12.5-5.7-17.8-8.6-5.2-3-9.8-5.4-10.2-5.4s-.9 1-1.1 2.2M762.6 662.6c-4.9 2.9-12.7 6.8-17.3 8.6-4.5 1.8-8.3 3.6-8.3 4s1.9 1.2 4.3 1.9c4 1 26.5 8.7 33.7 11.4 1.9.7 3.7 1.2 3.8 1 .2-.2-.1-2.8-.7-5.7-.7-3-1.7-10.1-2.4-15.9-.9-7.8-1.6-10.4-2.7-10.6-.8-.1-5.5 2.3-10.4 5.3M563.1 665.2c-3.4 7.7-4.5 10.8-3.6 10.8 1.8 0 21.1-5.2 21.8-5.9.6-.6-11.1-9.4-14.6-10.9-.4-.2-2 2.5-3.6 6M705.1 664.5c-4.8 3.5-6.9 5.6-6 6 2.7 1 21.3 5.4 21.6 5.1.6-.6-6.2-15.9-7.2-16.2-.6-.2-4.3 2.1-8.4 5.1M349.3 673c.3 1.4 1.7 8.1 3.2 15 1.4 6.9 3.6 16.8 4.8 22 2.1 8.8 2.5 9.5 4.9 9.8s2.8-.3 4.8-5.5c4.1-11 4.4-10.1-7.5-27.8-6-8.8-10.5-14.9-10.2-13.5M585.6 673.7c-.2 1-1 6.1-1.6 11.3s-1.3 10.6-1.5 12l-.3 2.5 1.9-2.3c1-1.3 3.7-5.7 6-9.8 2.2-4.2 4.3-7.3 4.5-7.1.5.4-8.1 17.3-9.8 19.4-1 1.3-.6 1.4 15.4 5.3 4.8 1.2 9.3 1.8 9.9 1.4 1.5-.9.7-9-2.2-20.9-2.1-8.6-2.4-9.3-5.4-10.4-3.7-1.3-4.6-1.4-4.2-.4.1.5-.2.9-.8 1-.5.2-1-.3-1-.9 0-.7-1.3-1.6-3-1.9-5.4-1.2-7.3-1-7.9.8M686 673.2c-1.4.6-4.5 1.6-7 2.2l-4.4 1.2-2.7 11.2c-1.8 7.2-2.5 12.6-2.2 15.2.3 2.2.7 4 1 4 .2 0 6-1.4 12.8-3.1l12.5-3.1-3.1-3.5c-1.8-2.1-2.8-4.1-2.4-5 .3-.9 0-2.2-.6-3-.7-.7-1-1.6-.7-1.8.8-.8 6 7.4 5.3 8.4-.2.5.2 1.4 1 2.1 1.3 1.1 1.5.6 1.5-3.1 0-2.4-.5-7.3-1-10.9-1.9-12-1.9-12-4.8-11.9-1.5 0-3.8.5-5.2 1.1M467.6 681.2c-4.2 4.6-7.6 8.7-7.6 9.2s3.1 3.9 6.8 7.5c10.9 10.4 9.4 9.9 15.4 5.4 2.9-2.2 7.4-5.5 10.1-7.3 2.6-1.9 4.6-3.7 4.5-4.1-.4-.9-15.4-14.4-19-17l-2.6-1.9zM800.8 675.8c-1.8 1.4-5.5 4.8-8.3 7.3-2.7 2.6-6.1 5.6-7.5 6.7-2.9 2.4-3.5 1.6 8.8 10.6 8.1 6 9.4 6.7 11 5.5 2.9-2.2 15.2-15 15.2-15.9 0-1-11.9-14.3-14.2-15.8-1.4-.9-2.3-.6-5 1.6M920 687.5c-9.4 14.1-9.5 14.4-9.5 20.3 0 6.3-1 8.7-2.5 6.2-.8-1.2-1-1.1-1 .7 0 1.2-.3 2.8-.6 3.7-.5 1.3.1 1.6 3 1.6 3.9 0 4.3-.9 2.6-5.4-.5-1.4-.6-2.6-.1-2.6.4 0 1.3 1.8 2 4 1 3.4 1.6 4 4 4 2.5 0 2.9-.4 3.4-3.8.3-2 1.8-8.7 3.2-14.7 3.4-14.2 5.7-26.4 5.3-27.4-.2-.5-4.6 5.6-9.8 13.4M567.5 676.2c-4.4 1.1-8.5 2.4-9.1 2.9-.7.5-2.2 6.2-3.3 12.7-1.2 6.4-2.3 12.5-2.6 13.5-.4 2.1-1 2.1 15.5-1.5 5.2-1.1 10-2.4 10.5-2.9.7-.5.8-3.8.3-9.6-.4-4.8-.9-10.7-1-13-.2-2.4-.7-4.2-1.3-4.2-.5.1-4.6 1-9 2.1M702.5 676.2c-.6 2.7-2.5 18.2-2.6 21.6-.1 1.3.2 2.6.5 2.9.6.6 24.2 6.3 26.2 6.3 1.2 0-1.3-17.1-3.6-24.7l-1.2-4.1-8.2-1.7c-4.4-1-8.6-2-9.3-2.2-.7-.3-1.5.6-1.8 1.9M346.2 681.9c-.7 3.8-1.2 9-1.1 11.7s-.1 5.9-.5 7.2c-1.1 3.5 7.9 19.2 11 19.2 2.1 0 2.2-.3 1.4-2.8-.5-1.5-2.8-11.5-5.1-22.2-2.2-10.7-4.2-19.6-4.3-19.7s-.8 2.9-1.4 6.6M930.7 682.6c-.9 4.3-3.1 14.5-5 22.6-3.3 14.7-3.3 14.8-1.2 14.8 1.6 0 3.3-2 6.9-8.5l4.8-8.5-.7-8.3c-.4-4.5-1.3-10.9-1.9-14.1l-1.2-6zM542.2 677.6c-1.2.8-2.2 1.3-2.2 1 0-.5-18.9 6-31 10.7-3.6 1.4-6.4 2.9-6.4 3.3.1.5 1.3 1.6 2.7 2.4 1.3.8 7.7 4.8 14 8.7 12.2 7.8 13.9 8.2 22.7 6.2 7.5-1.6 7.4-1.4 4.5-6.4-2.8-4.6-3.9-14.5-2-16.4.7-.7.9 1.3.7 5.2-.3 5 0 6.6 1.5 8.2 1.1 1.1 2.3 2.9 2.7 4 .5 1.1 1 1.5 1.2 1 .6-1.8 4.5-25.7 4.2-25.9-1.5-1.1-7.9-3.6-9-3.6-.7 0-2.4.7-3.6 1.6M729.6 677.5c-1.5.8-3.4 1.5-4 1.5-.9 0-.5 3.7 1.3 13.4l2.5 13.3 2.2-4.1c4-7.6 4-9.7-.2-13.9-2.1-2-4.1-3.7-4.6-3.7-.4 0-.8-.8-.8-1.7 0-1.3.8-.9 3.3 1.5 1.8 1.8 3.8 3.2 4.4 3.2 3.3 0 3 8.4-.6 15.4-1.8 3.7-2.5 5.9-1.7 6.1.6.3 3.1.9 5.6 1.4 9.2 2.1 10.4 1.7 26.1-8.1 8.2-5.1 14.5-9.6 14.1-10-1.9-1.8-37.1-13.8-40.5-13.8-1 0-1.7-.5-1.7-1 0-1.4-2-1.2-5.4.5M328.5 683.1c.8 2.4 2.6 8.9 4 14.4 3 11.5 5.3 18.2 7.2 21 1.1 1.6 1.3 1.7 1.3.3 0-.9.5-1.8 1.2-2 2-.7-1.9-13.3-7.9-25.3-6.3-12.5-7.7-14.7-5.8-8.4M646.3 683.8l-5.3.3V720h4.9c4.6 0 5-.2 7.5-4.1 3.4-5 4.5-4.6 1.5.6l-2.2 3.7 2.4-.4c2.2-.3 2.4-.8 2.5-5.8 0-5.2-2.2-28.1-2.8-28.4-.2-.1-1-.6-1.8-1.1-.8-.6-3.9-.9-6.7-.7M626.3 684.8c-1 .7-4.3 19.7-4.3 25.3 0 .8 1.6 3.4 3.6 5.7 3.3 3.9 3.9 4.2 8.5 4.2h4.9v-36h-5.7c-3.2 0-6.4.4-7 .8M422.5 690.6c-.4 3.2-.3 4.9.5 5.4s.8.9-.3 1.3c-1 .4-1.6 2.9-2.1 7.9-.4 4-1 9-1.3 11.1l-.6 3.7h7.3c6.4 0 7.1-.2 6-1.5-.7-.9-1-1.8-.6-2.2.3-.3.6-.1.6.5 0 1.9 2.2 1.4 4.7-1 2.2-2.1 2.4-2.1 1.7-.3-.3 1.1 1-.6 3-3.8l3.6-5.9-7.8-7.3c-4.2-4-9.1-8.4-10.8-9.9l-3.2-2.6zM845.7 695.5c-5.9 5.3-10.7 10.2-10.7 10.9s1.2 2.9 2.8 4.9c1.5 2 3.5 4.8 4.5 6.2 1.7 2.3 2.4 2.5 9.7 2.5 4.3 0 8.1-.4 8.4-.8.4-.7-2.9-30-3.7-32.6-.2-.4-5.1 3.5-11 8.9M453.1 698.9l-5.3 7.1 6.3 7c3.8 4.2 7.1 7 8.3 7 2.2 0 11.6-9.2 11.6-11.3 0-.7-3.5-4.8-7.8-9l-7.9-7.9zM813 700.5c-6.5 6.6-8 8.6-6.7 9 .9.4 2.1.4 2.7 0 .5-.3 1-.2 1 .4 0 .5-.6 1.1-1.2 1.4-1.7.6 6 8.7 8.3 8.7 1.6 0 13.9-12.9 13.9-14.5 0-.7-8.8-13.5-9.3-13.5-.1 0-4 3.8-8.7 8.5M385.3 696c-4 1.6-8.4 3.7-9.8 4.6l-2.5 1.6 4.6 8.9 4.6 8.9H395v-6.8c0-8.5-1.1-20.2-1.9-20.2-.3 0-3.9 1.4-7.8 3M885.7 696.2c-.2 1.8-.5 7.9-.6 13.5l-.2 10.3h12.7l4.2-7.9c2.6-5 3.9-8.6 3.5-9.7-.5-1.5-15.9-9.4-18.2-9.4-.5 0-1.1 1.5-1.4 3.2M772.5 698c-3.3 2.1-9.5 6-13.9 8.6-5.3 3.2-7.4 4.9-6.5 5.5 1.8.9 18.9 5.9 20.5 5.9.6 0 2.1-4.2 3.3-9.7 3-13.6 3.2-14.3 2.9-14.2-.2 0-3 1.8-6.3 3.9M493 698.2c-2.5 1.7-6.9 4.9-9.8 7.1l-5.4 3.9 7.4 5.4c7 5.2 7.6 5.4 13.1 5.2 6.7-.2 6.5.3 3.7-11.8-1.1-4.7-2.2-9.5-2.5-10.8-.7-2.8-1.1-2.8-6.5 1M501.6 696.7c2.9 14.4 4.9 21.3 5.8 21.3 1.7 0 19-5.1 19.8-5.9.6-.5-24.2-17.1-25.6-17.1-.2 0-.2.8 0 1.7M780.7 696.7c-.3 1-1.5 6.2-2.8 11.6-1.9 8.4-2 10-.8 10.8 1.7 1.1 11.6 1.2 12.1.1.2-.5 2.3-2.2 4.8-4 8.9-6.2 8.7-6 6.4-7.7-3.3-2.6-18.3-12.5-18.8-12.5-.2 0-.7.8-.9 1.7M565.8 706.4c-7 1.7-13 3.4-13.4 3.8-.3.4-.3 2.8 0 5.3l.7 4.6 8.6-.3 8.6-.3 4.4-7.9c2.4-4.3 4.2-8 4.1-8.1-.2-.1-6 1.2-13 2.9M584 703.7c0 .3 3.2 4.1 7.1 8.4 6 6.7 7.6 7.9 10.3 7.9 2.8 0 3.4-.5 5.5-5.1 1.7-3.8 2-5.3 1.1-5.9-.6-.4-5.1-1.5-9.8-2.4-4.8-1-9.9-2.2-11.4-2.6-1.6-.5-2.8-.6-2.8-.3M681.8 706.3c-6.5 1.6-11.8 3.3-11.8 3.6 0 .4.7 1.6 1.5 2.7 1.3 1.6 1.6 1.7 2.5.4s1.1-1.3 2 0c.5.8 1 2.4 1 3.4 0 2 0 2-1.4 0-1.8-2.4-3.1-1.3-1.6 1.5 1.6 3.1 6.2 2.7 9.8-.7 1.5-1.5 5.2-5.3 8.2-8.5 6.2-6.7 6.3-6.6-10.2-2.4M701 703.9c0 .4 1.9 4 4.3 8.1l4.2 7.5 8.6.3 8.6.3.6-4.8c.3-2.6.2-5.1-.1-5.5-1-.9-26.2-6.6-26.2-5.9M540.2 711.7l-6.3 1.6 2.8 2.9c3.4 3.6 1.8 3.7-1.9.1l-2.8-2.7-8.3 2.2c-4.5 1.3-9.5 2.6-11.2 3.1-1.8.5 4.8.9 17.3 1l20.2.2V715c0-5.8.1-5.7-9.8-3.3M729.6 712.3c-.3 1.2-.6 3.4-.6 4.9v2.8l21.3-.1h21.2l-9-2.6c-4.9-1.4-11.1-2.6-13.7-2.7-2.5 0-4.6-.5-4.5-1s-1.8-1.3-4.3-1.7c-2.5-.5-5.7-1-7.1-1.3-2.1-.4-2.8-.1-3.3 1.7"/></svg>