<svg xmlns="http://www.w3.org/2000/svg" width="1706.667" height="960" viewBox="0 0 1280 720"><path d="M0 161.5V323h18.8c10.3-.1 24.8-.5 32.2-1.1 7.4-.5 32.5-.9 55.7-.9 23.3 0 42.3-.3 42.3-.7 0-.5 2.2-.6 5-.5 3.8.3 5.6-.1 7.9-1.7 1.6-1.2 4.3-2.4 6-2.7 2.1-.5 3.1-1.2 3.1-2.5 0-1.4 1-2 4-2.5 2.2-.4 4-1 4-1.5s.9-.9 1.9-.9 2.1-.7 2.5-1.5c.3-.8 1.2-1.5 1.9-1.5 1.9 0 5.3-3.1 6.1-5.5.5-1.7 1.3-2 3.9-1.7s4-.4 7.1-3.2c2.1-2 4.7-3.6 5.7-3.6 1.2 0 2.1-1 2.5-2.5.3-1.4 1.2-2.5 1.9-2.5s1.5-.9 1.8-2c.3-1.3 1-1.8 2.1-1.4s1.6.1 1.6-1c0-.9-.6-1.6-1.4-1.6-.9 0-1.2-.7-.9-2 .3-1.1.9-2 1.3-2s1.7-1.8 2.7-4c1.8-3.5 1.8-4 .4-4.3-1.3-.4-1.3-.5.2-.6 1-.1 1.7-.9 1.7-2.1 0-1.1.5-2 1-2 .6 0 1 .9 1 2s.5 2 1 2c.6 0 1-.7 1-1.5s.9-1.5 2-1.5c1.3 0 2.2-.9 2.6-2.8.4-1.5 1.2-3 1.8-3.4s1.2-1.2 1.2-1.8c.1-.5.2-1.5.3-2 0-.6.8-1 1.6-1 .9 0 1.8-.7 2.1-1.5.4-.8 1.2-1.5 2-1.5s1.4-.5 1.4-1c0-.6 1.1-1 2.5-1 1.3 0 2.8-.6 3.2-1.4.4-.7 1.5-1.6 2.3-1.9 1.2-.4 1.2-.6-.2-.6-1.2-.1-.1-1.7 3.7-5.5 4.1-4 5.5-6.1 5.5-8.2 0-1.6.5-3.6 1-4.4.8-1.3 1-1.2 1 .3 0 3.1 1.7.9 2.3-3 .4-2.4.2-4-.6-4.5s-.7-.8.4-.8c2.1 0 2.9-2 2.9-7.3 0-2.3.5-6.9 1.1-10.2 1.7-9.9 1.8-10.9.8-12.1-1.4-1.7-.8-11.4.8-13 1.1-1.1 1.3-4.8.9-18.1-.6-18.8.2-29.4 4.5-66.3 3.2-27.8 7-48.8 13-73.3C288.3 9 290 1.5 290 .9c0-.5-54.4-.9-145-.9H0zM312 2.6c-.6 1.4-1 2.8-1 3.1s-.7 1.9-1.5 3.6c-4.7 10.2-6.5 16.9-5.6 20.8.5 2.1.5 3.9.1 3.9-.5 0-1.1-1-1.3-2.3-.2-1.2-.4 5-.4 13.8-.1 9.4.2 14.6.7 12.5.4-1.9 1.7-5.8 3-8.5 1.2-2.8 2.3-6.9 2.4-9.2 0-2.2.4-3.9.7-3.7.4.2.9-.4 1.2-1.4 2.7-8.9 6.6-18.3 6.6-16.1.1 1.5-.6 4.4-1.5 6.5-.9 2-1.7 4.7-1.9 5.8-.1 1.2-.8 3.4-1.5 5.1-.7 1.6-1.4 3.7-1.5 4.5s-.9 4.2-1.9 7.5-2.2 7.8-2.8 10c-.5 2.2-1.4 5-1.9 6.2-.5 1.3-.5 2.3-.1 2.3.9 0 2.9-4.5 10.4-22.9l5-12.5-.7-9.8c-.5-7.4-1.1-9.8-2.1-9.8-.8 0-1.4-.5-1.4-1.1s.7-.9 1.5-.5c1.2.4 1.5-.5 1.5-4.9 0-5.2-.1-5.5-2.5-5.5-1.8 0-2.8.7-3.5 2.6M326.2 1.2c-2.8 3.5-5.2 10.1-5.1 14 0 3.3.2 3.8.9 2.3.8-1.8.9-1.7.9.8.1 1.6-.3 2.6-.9 2.2s-1 1.1-1 3.7c0 5.1-.4 5.6 9.8-12L337.9 0h-5.3c-3.1 0-5.8.5-6.4 1.2M338.7 2.2c-.8 1.3-4.6 7.9-8.6 14.7-6 10.4-6.9 12.6-5.9 13.9 1.1 1.3 1 1.5-.4.9-1-.3-1.9-.3-2.2.1-.2.4 0 8.4.5 17.6.5 9.3.9 20.2 1 24.2.1 4.1.3 7.4.5 7.4.4 0 16.4-27 18.9-32 1.6-3.1 1.7-5.3 1.1-20-.8-20.2-1.6-29-2.7-29-.5 0-1.5 1-2.2 2.2M344.4 2.2c.3 1.3.6 5.2.6 8.8 0 3.9.4 6 .9 5.2.4-.7.6 4.3.3 11.2s-.2 12.6.1 12.6 1.9-2.4 3.6-5.3c2.2-3.6 3.1-4.6 3.1-3.1 0 1.2-.9 3.4-2.1 5-2.6 3.6 15.1-14.5 19.8-20.3 3.4-4.1 3.5-4.4 2.8-10.3l-.7-6h-29zM384.3 6.3c-8.4 7.1-7.9 4.5-6.3 30.2.6 8.8 1.5 16.4 2 16.9s1.8.3 3.2-.6c1.3-.8 5.2-2.7 8.8-4.1s10.5-4.4 15.4-6.6l8.8-4.1-.6-3.7c-.3-2.1-1.3-10.7-2.2-19.1L411.7 0h-10.1l-10.1.1zM414.5 7.2c.4 4 1.3 11.8 2.1 17.3.7 5.5 1.4 10.6 1.4 11.3 0 1.4-.2 1.4 26-2.9 9.6-1.6 17.9-3.4 18.4-3.9.8-.8-.1-12.3-2.1-25.3l-.6-3.7h-45.9zM462.4 3.7c.3 2.1 1.1 7.8 1.6 12.8 1.7 14.1.2 12.9 14.9 12 6.9-.4 18.2-1.1 25.1-1.4l12.5-.6-.1-3c-.1-1.7-.5-7.6-.9-13.3L514.7 0h-52.9zM517.6 10.7c.4 6 1 11.9 1.4 13.3l.7 2.5h17.4c9.6.1 22.5-.1 28.7-.4l11.2-.4v-4.6c0-2.5-.3-8.3-.7-12.9l-.6-8.2h-58.8zM578.4 8.2c.4 4.6.9 10.4 1.2 13 .7 5.8-1.2 5.3 28.4 7.3 4.7.4 12.8 1 18 1.5s10.3 1 11.3 1c1.5 0 1.7-1.4 1.7-15.5V0h-61.2zM641 15.6v15.6l5.3-.6c2.8-.3 13.1-1 22.7-1.6 9.6-.5 20.3-1.3 23.7-1.6l6.2-.6.5-4.2c.3-2.2.7-8.3 1-13.4L701 0h-60zM702.6 6.1c-.3 3.4-.6 9.5-.6 13.5V27l23.3.2c22.2.2 32.8 0 33.5-.7.3-.3 3.1-22.7 3.2-25.3 0-.9-6.5-1.2-29.4-1.2h-29.3zM763.9 1.7c0 1-.6 7-1.3 13.3s-1.1 11.7-.9 12c.6.6 48.1 2.3 49.7 1.7 1.1-.4 4.6-21 4.6-27.1 0-1.4-2.7-1.6-26-1.6-24.1 0-26 .1-26.1 1.7M817.1 8.7c-.6 4.9-1.4 11.5-1.7 14.9l-.6 6 21.8 3.2c12.1 1.8 22.6 3.2 23.6 3.2 1.1 0 1.8-1.2 2.2-3.8.7-4.5 3.6-29.2 3.6-31 0-.9-5.4-1.2-23.9-1.2h-23.8zM867.1 9.7c-.6 5.4-1.7 13.7-2.3 18.6-.6 4.8-.9 8.9-.7 9 1.3.9 23.8 10.7 24.6 10.7.6 0 2.1.8 3.4 1.9 1.4 1 4.1 2.3 6.2 2.9l3.7 1v-4.6c.1-2.6.3-7.2.5-10.2.3-3 .6-9.9.8-15.2l.4-9.8-7.3-7-7.4-7h-20.8zM906.6 6.1c-.3 3.4-.2 6.7.2 7.5.5.8 3.9 4.8 7.7 9 5.1 5.6 7.2 7.3 8.6 6.9 1.1-.4 1.9-.2 1.9.5 0 .6-.4.8-1 .5-2.5-1.5-.5 1.4 4.1 6.4 3.9 4 5.3 5 5.9 4 .4-.8 1.1-9.5 1.5-19.4.3-9.9.9-18.8 1.1-19.8.5-1.6-.7-1.7-14.4-1.7h-14.9zM938.7 4.3c-.3 2.4-.9 13-1.3 23.7l-.7 19.5 10.7 17.7c5.9 9.8 10.9 17.8 11 17.8.2 0 .4-3.9.5-8.8.1-4.8.6-15.1 1.1-22.9 1.1-16.3 1.4-15.3-8.1-32-3.4-5.9-7.2-12.7-8.6-15.1-1.3-2.3-2.8-4.2-3.2-4.2-.5 0-1.1 1.9-1.4 4.3M945.3 4.2c1.4 2.4 5 8.8 8.2 14.3 3.1 5.5 6.1 10.4 6.6 10.9.5.6.9-2.7.9-8.6 0-5.4-.4-10-1-10.3-.5-.3-1.5-1.6-2.1-2.8l-1-2.2 2 2.2c1 1.3 2.2 2.3 2.5 2.3s.6-2.3.6-5V0h-19.1zM963.5 17.2c-.6 16.8-.6 17.5 1.9 23.8 5.1 13.5 13.2 32 14 32 .2 0 .5-8.3.6-18.4 0-14.1-.2-18.5-1.2-18.9q-1.5-.6 0-.6c2.2-.2 1.3-4.1-5-19.7C969.2 3.8 967.3 0 966 0c-1.6 0-1.9 1.8-2.5 17.2M992.2 7.2c3.2 12.8 11.7 52.1 12.7 58.8 2.1 13.3 5.2 43 6.3 59.8 1 16.2.2 57.6-1.8 89.2-.4 6.6-.3 8.2.6 7 1-1.2 1.1-1 .6 1-.3 1.4-.9 5.7-1.2 9.7-.4 4-1.1 7-1.5 6.7-.5-.3-.9 1.4-.9 3.8-.1 2.4-.2 6.6-.4 9.3-.2 2.8.1 5.9.5 7 .6 1.7.8 1.7.8.2.1-2.5 4.1-2.2 4.8.3.4 1.6.8 1.8 1.9.9s1.4-.8 1.4.5c0 .9.6 1.7 1.3 1.7.6.1 1.9.3 2.7.4s5 .3 9.3.4c5.3.1 7.6.5 7.2 1.2-.8 1.1 2.5 4 3.7 3.3.4-.3 2.1 1.4 3.8 3.7 1.6 2.3 3 3.7 3 3.1 0-1.4 1.9-1.2 3.6.3 2.4 2.2 3.3 5.4 3.5 12.1.1 3.8.6 8.1 1.1 9.6.7 2 .5 3.3-.7 5.2-1.4 2.1-1.5 2.9-.3 5.3.7 1.5 2.3 3.2 3.6 3.8 2.3 1 3 2.5 1 2.5-.6 0-.1.9 1.2 2 1.8 1.6 2.5 1.7 3.2.8.6-1 .8-1 .8-.1 0 .7.9 1.3 2 1.3s2 .5 2 1.1c0 .5 1.2.9 2.8.8 1.5-.1 5.5-.1 9-.1 5.6.2 6.3.5 7.1 2.6 1.1 2.8 3.4 3.5 9.7 3 2.6-.2 6.7.3 9.2 1.1 4.8 1.7 30.7 3.4 50 3.5 7.6 0 12.2.5 14 1.4 1.5.7 4.6 1.7 7 2.1 2.6.4 4.2 1.2 4.2 2.1 0 .8.6 1.4 1.4 1.4 1.9 0 2.5 2 1.3 4.6-1 2.5-5 3.2-20.1 3.9-4.8.2-9.2.8-9.9 1.2s-9.5 1.1-19.7 1.4-19.6 1.1-21 1.7-4.2 1.3-6.2 1.7c-2.9.4-3.8 1.1-3.8 2.5 0 1.1.7 2 1.5 2s1.5.3 1.5.7c0 .5 10.4.9 23 .9 13.1.1 23-.2 23-.7s.7-.9 1.5-.9 1.5.6 1.5 1.4c0 .9 1.8 1.6 5.2 2 2.9.4 5.8 1.2 6.5 1.8.9.7 1.3.7 1.3-.1 0-.6.9-1.1 2-1.1s2 .7 2 1.5.9 1.5 2 1.5 2 .7 2 1.5q0 1.5-3 1.5c-2.8 0-3 .3-2.7 2.7.3 2.3.9 2.8 3.3 2.8 1.6 0 3.2.4 3.6 1 .5.6.8.3.8-.7 0-.9.6-1.8 1.3-2.1 2-.7 4.7 1.2 4.7 3.3 0 1.8-.7 2-5.8 2-4.6 0-6 .4-7 2-1.6 2.6-3.2 2.6-3.2 0s-.6-2.5-3.6.5c-2.6 2.6-4.4 3.2-4.4 1.5 0-1.6-1.5-1.2-4 1-1.2 1.1-2.7 1.7-3.3 1.3s-4.1-.6-7.8-.5c-3.6.2-8.5-.1-10.8-.7-2.6-.5-4.1-.5-4.1.1s-4.5.7-11.9.2c-11.5-.6-12.4-.6-20.8 2.2-4.8 1.6-9.1 3.4-9.5 4-1.7 2.6-23.7 8.4-32 8.4-2.1 0-3.8.4-3.8.9s-1.4 1.1-3 1.5c-2.2.4-3 1.1-2.8 2.3s-.7 2-3.2 2.7c-3.8 1.2-8.5 5.4-9.5 8.6-.4 1.1-1 1.8-1.5 1.5-.4-.3-1.1 2-1.4 4.9-.6 4.4-.4 5.8 1.1 7.5.9 1.2 2.3 2.1 3 2.1s1.3.4 1.3.9 1.7 1.6 3.8 2.4c3.2 1.4 3.4 1.6 1.2 1.7-4.4.2-12.1 2.6-13.1 4.1-1.4 2.3-1.1 5.9.6 5.9.8 0 1.5.6 1.5 1.2 0 .7 2.3 3 5.1 5l5.1 3.7-3.8.6c-10.3 1.7-12.4 3.5-12.4 9.9 0 2.7-.6 3.9-2.9 5.5-1.6 1.2-3.3 2.1-3.8 2.1-2.8 0-4.5 4.2-5.3 13.2-2.9 29.9-4 34.5-10.4 45.6-3.3 5.4-8.8 11.3-13 13.7-2.1 1.2-2.4 2.5-10.2 48.5-9.3 54.8-13 70.8-24.4 105-3.7 11.3-7.1 21.3-7.5 22.2-.7 1.7 7.6 1.8 166.4 1.8H1280V0H990.3zm122.9 437.4c2.9.4 6.6 1.3 8.1 2 1.5.8 3.5 1.4 4.4 1.4 1 0 2.6.8 3.6 1.7 1.7 1.5 2.9 1.5 11.8.5 9.7-1.1 10.9-1.1 16 1 6 2.4 7.5 3.5 7.5 5.3 0 1.9-.7 2-10 1.9-11.6-.2-16.4-1-18.6-3.3-1.3-1.4-3.7-1.7-15.3-1.6-10.8.1-13.9.4-14.7 1.6-.5.7-.8 4-.6 7.2.3 5.5.1 6.1-3.3 9.8-3.8 4.2-5.8 4.6-13.3 3-2.3-.6-5.4-1.2-6.9-1.5-1.4-.3-4-1.7-5.6-3.1-3.3-2.8-3.3-5.2-.1-8.1 2.1-1.8 2.5-4.9.9-5.9-1.2-.7-1.4-4.6-.2-4.3 1.8.5 7.2-3.4 7.2-5.2 0-1.4.7-2 2.3-2 1.8 0 1.9-.2.7-1-1.6-1.1 16.4-.7 26.1.6m91.3 238.1c1.7 5.1 3.3 9.3 3.7 9.3s1.3-1.7 1.9-3.8c3.8-11.9 5.3-15.2 7.1-15.2 1.1 0 1.9.2 1.9.4s-2.1 6.1-4.6 13c-3.7 10.1-5 12.6-6.5 12.6-1 0-1.9-.2-1.9-.4s-2-6.1-4.5-13c-4.3-12.3-4.4-12.7-2.3-12.4 1.8.2 2.7 1.9 5.2 9.5m29-.5c1.4 1.3 2.8 3.5 3.2 5l.6 2.8h-7c-3.9 0-7.3.4-7.7 1-.9 1.4 3.2 5 5.7 5 1.2 0 2.9-.7 3.7-1.4 1.2-1.1 2.1-1.2 3.1-.5 1.3.8 1.1 1.3-.9 2.9-3.5 3-8.6 2.6-12.2-.9-8.1-8.1 3-21.5 11.5-13.9m20.9-1c3.5 1.8 4.6 4 4.7 8.6 0 5.8-3.3 9.2-9 9.2-5.6 0-9-3.6-9-9.6 0-3.5.5-4.7 3.1-6.8 3.3-2.8 6.7-3.3 10.2-1.4M371.4 18.6c-1.6 1.7-5.6 5.9-8.9 9.4-3.6 3.8-5.5 6.5-4.7 6.7.6.3 1.2.9 1.2 1.5 0 .7-.5.7-1.3-.1-1.4-1.1-2.5-.2-8 6.5-1.8 2.2-1.8 2.2 5 4.8 9.9 3.8 20.7 6.6 21.6 5.7.7-.7-.8-33.5-1.7-36.6-.1-.5-1.6.4-3.2 2.1M905.6 22.1c-.3 3-.8 11.4-1.2 18.8l-.6 13.3 3.4-.7c3.4-.7 13.1-4 20.6-7 3.4-1.4 4-2 3.1-3.1-.6-.8-1.6-1.1-2.2-.7-.5.3-.7.1-.4-.4.9-1.5-3.1-6.3-4.7-5.7-.7.3-1.6-.2-2-1.1-.4-1.1-.2-1.4.7-.9q2.1 1.2-10.5-12l-5.6-6zM543.2 28.8l-23.3.2.6 9.8c.4 5.3 1.6 17.8 2.7 27.7s2.1 19.5 2.2 21.3c.2 1.8.7 3.7 1.2 4.2.5.4 6.1 1.3 12.4 1.9s18.2 1.7 26.4 2.6c8.2.8 15.1 1.3 15.3 1.2.3-.3-2.3-58.4-3-66.1-.2-3.4 1.5-3.2-34.5-2.8M490 30.2c-24.8 1.1-24.2 1-23.6 5.1.3 1.8 1.2 8.8 2.1 15.7s2.4 18.1 3.3 25l1.7 12.5 5 .7c7.4 1 43.4 3.2 44 2.7.5-.5-2.8-38.6-4.4-51.9-.6-4.6-1.1-9-1.1-9.7 0-.9-1.3-1.2-3.7-1.1-2.1.1-12.6.5-23.3 1M580 31.7c.1 1.6.9 16.9 1.9 34.2 1.4 23.9 2.2 31.5 3.2 32.2.8.5 3.9.9 6.9.9 3 .1 8.4.3 12 .6 19 1.5 32.4 1.9 33.6.9 1.2-.8 1.4-6.8 1.2-34l-.3-33-6-.7c-6.6-.8-46.7-3.8-50.2-3.8-1.8 0-2.3.6-2.3 2.7M670.5 31.1c-12.6.9-24.3 1.9-26 2.1l-3 .5-.3 34.2-.2 34.3 8.7-.6c4.9-.4 16-1.1 24.8-1.6 21.9-1.4 21.5-1.3 21.5-5.8 0-2 .7-15.6 1.5-30.2 2-37 2.1-35-1.2-34.9-1.6.1-13.1 1-25.8 2M701.5 30.2c-.2.7-.9 13.4-1.5 28.3-.6 14.8-1.3 29.8-1.5 33.2-.3 4.7 0 6.3.9 6.3.7 0 10.2-.9 21.2-2 10.9-1.2 22.7-2.3 26.2-2.7 4.5-.4 6.2-1 6.2-2.1 0-.8 1.1-12.5 2.5-26.1 1.3-13.5 2.5-26.9 2.7-29.7l.3-5.1-17-.7c-27.1-1-39.5-.8-40 .6M760.6 34.1c-.6 4.5-3.2 34.5-4.3 49.6l-.6 8.3h4.3c5.1 0 44.4-3.1 44.8-3.5 1.4-1.3 7.5-55.6 6.4-56.6-.4-.4-11.8-1.1-25.4-1.5l-24.6-.7zM449.5 34c-5.5 1-14.6 2.6-20.2 3.6-10 1.6-10.3 1.8-10.3 4.3 0 4.2 5.7 41.7 6.5 43 .4.7 1.3 1 2.1.7.7-.3 1.6-.1 1.9.4.4.6 0 1.1-.7 1.2s3 .5 8.2.8c10.3.8 34 1.2 34 .6 0-.2-1.1-8.6-2.4-18.7s-3-22.8-3.6-28.2c-1.4-11.2.1-10.5-15.5-7.7M814.5 33.2c-1 2.8-6.4 54.3-5.7 54.9.4.3 10.6.4 22.8.1l22-.4 1.7-8.2c2.3-11.4 6.1-39.6 5.4-40.3-.4-.3-8.4-1.8-17.9-3.3-26.7-4.3-27.7-4.4-28.3-2.8M315.4 46.3c-1.8 4.5-5.1 12.8-7.5 18.5-3.5 8.6-4 10.5-2.8 11.3s1.2 1.1-.2 2.2c-.9.6-1.5 2.1-1.4 3.2s.8 8.2 1.6 15.7c.7 7.6 1.6 13.8 1.9 13.8 1 0 3-6.5 3-9.8 0-3.8 1.6-8.2 3-8.2.5 0 1 .7 1 1.6 0 .8.5 1.2 1 .9.6-.3 1 .1 1 1 0 .8-.6 1.8-1.4 2.1-1.2.5-3.8 8.7-3.5 11.2.1.9 3.5-6.8 6.6-14.8 2.1-5.6 2.2-6.2.6-4.9-2.5 2.1-4.7 1.8-5.1-.6-.3-1.1-1-2.4-1.8-2.8-3.8-2.2 2-3.1 7.5-1.3l2.4.8-.8-20.3c-.4-11.2-1-22.1-1.4-24.1l-.6-3.7zM861.1 56.2c-2.7 18.6-4.1 31.1-3.6 31.6.2.2 6.5 1 14.2 1.8 7.6.8 16.7 1.8 20.3 2.3s6.7.7 6.9.5c.6-.5 1.9-18.4 2.2-28.6.2-7.6.1-8.1-2.2-9.4-1.3-.7-3-1.3-3.7-1.4-.7 0-3.9-1.2-7-2.6-11.4-5.2-23.3-10.4-24-10.4-.4 0-1.8 7.3-3.1 16.2M399.5 47.5c-8.2 3.5-16.1 6.8-17.5 7.4-2.5 1.1-2.6 1.2-2.3 11.3.2 5.7.6 14.1.9 18.7l.6 8.3 2.6-.5c1.5-.3 10.4-1.3 19.7-2.2 9.4-1 17.5-2 18.1-2.4.7-.4.2-7.3-1.7-22.1-1.6-11.8-2.8-22.3-2.9-23.3 0-.9-.6-1.7-1.2-1.7-.7.1-8 3-16.3 6.5M961.7 55.2c-1.1 22.9-.9 32.1.6 31.1 2-1.3 5.7-1.4 5.7-.3 0 .6-.7 1.9-1.6 2.7-1.3 1.3-2 1.4-3.4.5-1.7-1-1.8-.9-1 1.6 1.7 5.2 6.1 16.7 6.7 17.2 1.1 1-.6-7-2.3-10.5-1.5-3.1-1.5-3.8-.3-4.6 1-.6 1.5-.3 1.7.9.2.9 1.2 2.6 2.2 3.7 1.2 1.3 1.5 2.7 1 4-.6 1.8.6 8.1 2.6 12.9.5 1.3.4 1.7-.4 1.2-.8-.4-.8.3-.2 2.5 1.4 4.7 1.7 4.5 1.8-1.3.1-2.9.7-7.6 1.2-10.4.6-2.7 1.2-9.7 1.3-15.5.1-5.7.6-10.7 1-11 .9-.6-13.2-35.7-15.3-38.2-.4-.4-1 5.6-1.3 13.5"/><path d="M982.9 46.1c0 .2-.2 4-.3 8.4-.3 6.7-.2 7.1.4 2.5.4-3 .7-5.3.8-5 .2.3.5 6.4.9 13.7.4 9.5.2 14-.7 16.2-1 2.5-.9 4.4.5 10.8.9 4.3 1.9 8.7 2.2 9.8 1.2 3.8 2.1-2.4 2.2-15 .1-8.1.4-11.5 1.1-10.5.6 1 .7.2.3-2.5-.3-2.2-.9-4.2-1.2-4.5s-.7-1-.8-1.7c-2.6-13.6-5.1-24-5.4-22.2M347 74c0 20.5.3 26.9 1.2 26.4.8-.5.9-.2.5.9-.5 1.4-.2 1.6 2.1 1.1 3.5-.9 20.9-6.3 24.5-7.6l2.7-1V83.1c0-5.8-.3-13.6-.7-17.4-.5-5.5-.8-6.5-1.9-5.6s-1.4.8-1.4-.4c0-.8.6-1.7 1.3-2 1.8-.6 1.4-.8-12.3-5.5-7.3-2.5-12.6-3.8-12.8-3.2-.2.5-.8 1-1.3 1-.6 0-.8-.4-.4-.9.3-.5.1-1.2-.5-1.6-.7-.4-1 8.4-1 26.5M920 51.5c-6.3 2.4-12.5 4.4-13.7 4.4-1.9.1-2.2.8-2.7 6.3-.4 3.5-.7 11.9-.9 18.8l-.2 12.5 13.5 4.7c7.4 2.6 14.5 4.7 15.8 4.7l2.2.1V75c0-21.8-.3-28-1.2-27.9-.7 0-6.5 2-12.8 4.4M342.9 52.8c-17 28.7-18.6 31.9-17.3 33.7 1.8 2.4 1.8 4.6 0 2.2-1.2-1.5-1.4-1.4-2 2-.6 4.2-.6 40.1.1 36.5.2-1.2.9-2.2 1.4-2.2.6 0 .7-.4.4-1s.1-.7 1-.4c1.3.5 1.3 1.1-.6 4.3-2 3.5-1.1 2.6 3.4-3.3 1.2-1.6 2.7-3.4 3.2-4 3.4-3.8 10.8-14.1 11.6-16.3.8-2 1.3-54.3.6-54.3-.1 0-.9 1.2-1.8 2.8M936 78v27.1l2.9 4.2c2.8 4.1 17.2 22.1 19.3 24.2.7.7.9-5.4.6-18.9-.4-15.4-.8-20-1.9-20.8-1.1-.7-1.1-1.1-.1-1.5 2.9-1.2.7-6.8-8.7-22.1-2.8-4.6-5.1-8.5-5.1-8.7 0-.5-6.3-10.5-6.6-10.5-.2 0-.3 12.2-.4 27M978.7 102.5c-2 19.5-2.1 22.9-.7 22 .6-.3 1-1.4 1.1-2.3 0-.9 1.4-2.8 3-4.1 3.1-2.4 5.1-2.2 3 .3-.8 1-.9 1.6-.1 2.1.5.3 1 .3 1-.2 0-.4.5-.1 1.1.7.8 1.1.9.6.4-2-.4-1.9-1-5-1.4-6.8-.3-1.8-1-3.2-1.6-3.2-.5.1-1.1-.4-1.4-1.1-.2-.7.1-.9.9-.4 1.4.9 1-2.7-1.9-14.7l-1.7-7.3zM828.3 90.7 808 91v3.3c0 4.9 2.9 38.5 3.6 42.3.4 2.4 1.2 3.4 2.5 3.4 2.5 0 3.3 1.7 1.2 2.4-2.1.6 2.3.2 25.5-2l17.2-1.7v-3.1c0-1.7-.9-12.3-2-23.5-2-20.5-2.5-22.4-6-21.9-.8.2-10.6.4-21.7.5M415 91.6c-1.4.2-5.4.8-9 1.4-3.6.5-10.6 1.5-15.6 2.1l-9.2 1.2-.6 6.1c-1.1 12.4-1.5 22.2-.7 18.3.9-4.3 2-5.9 2.2-3.1.4 5-.4 11-1.5 11.9-1.6 1.3-2.7 5.5-1.4 5.5.5 0 .6.9.3 2.1-.7 2.1-.6 2.1 18.8 1.7 10.7-.1 19.2-.5 18.8-.8-1.5-1.2-1-3.2.9-3.7 1.4-.4 2-1.4 2.1-3.7.4-9.9 1-19.2 1.9-27.9.5-5.5.7-10.3.4-10.8-.5-.9-2.6-1-7.4-.3M425.7 93.2c-.4 1.3-1.1 10.5-1.8 20.5-1.1 16.6-1 18.5.5 20.8.9 1.4 2 2.4 2.4 2.1.5-.3 1.4-.1 2.2.5 1.2.7 1.1.9-.5 1h-2l2 .9c1.1.5 4 .8 6.5.8 3.2-.1 3.6-.2 1.5-.5-4.2-.6-5.8-2.4-2-2.3 1.7.1 6.3.1 10.4 0 5.5 0 7.8.4 9.2 1.6 1.2 1.1 2.5 1.4 3.6.9 2.3-1 7.6-.6 8.4.6.3.5.6-.5.7-2.3 0-1.8.5-7.1 1.1-11.8 2.1-17.4 2.1-18.1.8-17.3-.9.5-.9.3 0-.8.6-.8 1.4-4.8 1.8-9l.7-7.7-22.5-.1-22.5-.1zM788 92.7c-9.1.6-19 1.4-22 1.7s-6.5.5-7.7.6c-2.2 0-2.3.4-2.3 7.2 0 7.8 1.7 36.5 2.6 43.6.4 3.2.9 4.1 1.7 3.4 1.6-1.3 6.1.4 5.1 1.9-.4.7-.1 1 .7.7s1.3-1.1 1.1-1.7c-.1-.8.3-.9 1.5-.3 1 .5 2.9.8 4.3.6 2.7-.4 28-5.2 31.8-6 1.2-.2 2.2-1.2 2.2-2.2 0-1.5.2-1.5 1.1-.2.7 1.1.8-1.3.4-8-.9-14.8-2.7-36.2-3.4-39.5l-.6-3zM857 94.7c0 4.3 2.9 37.5 3.6 41.1.5 2.3.8 2.3 11.2 2.3 5.9 0 15.3.2 21 .5l10.3.6-.6-9.8c-.4-5.5-1.1-13.2-1.6-17.2s-.9-9.5-.9-12.2v-4.8l-10.2-1.1c-5.7-.7-13.9-1.6-18.2-2.1-4.4-.6-9.4-1-11.3-1-3.2 0-3.3.2-3.3 3.7M472.9 103.7c-.7 6.5-1.3 16.6-1.3 22.5-.1 5.9-.4 9.9-.8 9s-.6.8-.6 3.8c.1 4.3.2 4.7.6 2l.5-3.5.6 3.5.6 3.5 7 .2c10.8.2 19.9 1.1 22.8 2.2 1.9.7 3.7.7 6.4-.3 2.1-.7 4.4-1.1 5.1-.9.6.3 1.2 0 1.2-.6 0-.5 1.2-1.1 2.8-1.3 2.7-.3 2.7-.4 3.3-9.5.4-5 1-15.9 1.3-24.2.5-13.9.4-15.1-1.2-15.1-.9 0-10.7-.7-21.7-1.5S478.3 92 476.9 92c-2.6 0-2.7.1-4 11.7M960.5 99.2c.3 2.9.7 12.9.9 22.2.3 9.3.7 17 .8 17.1.8.9 7.9 1.6 7.7.9-.7-3.7.4-8.6 2.2-10.3 1.9-1.7 1.9-2.1.6-4.3-.8-1.2-1.8-3.6-2.1-5.2q-.75-3-1.5-1.8c-.8 1.4-4.1.6-4.1-.9 0-.5.7-1.2 1.5-1.5.8-.4 1.5-1.2 1.5-2 0-2.4-2.3-6.4-3.3-5.7-.6.3-.7.1-.3-.5.6-1-3.1-13.2-4-13.2-.1 0-.1 2.4.1 5.2M743.5 96c-3.8.5-11.9 1.3-18 1.9-20.1 2.1-26.6 2.9-27 3.3-.4.3 2.2 44.2 3.1 53.3.1 1.6.3 3.8.3 4.7.1 1 .8 1.8 1.7 1.8 1 0 1.4.6 1 1.5-.3.8-.1 1.5.4 1.5.6 0 1-.4 1-1 0-.5 1.2-.9 2.8-.8 3.3.1 16-1.9 22.7-3.7 4.2-1.2 4.5-1.4 2-1.5-1.6-.1-2.3-.4-1.5-.7.8-.2 2.2-.7 3-1 2.5-1 5-1 5-.1 0 1.3 2.8.9 3.3-.5.3-.7.6-.8.6-.1.1.6 1.1.9 2.5.7 1.7-.4 3-2 4.7-5.6 1.3-2.9 2.8-5.5 3.3-5.9.5-.3.6-6.4.2-14.5-1.3-28-1.9-34.3-3-34.2-.6.1-4.2.5-8.1.9M525.5 104.2c-.4 4.7-.6 10.8-.4 13.7.2 2.8.1 5.1-.3 5.1-.5 0-.7 3-.7 6.7.1 4.6.3 5.8.8 3.9 1.1-5.5 2.6-2.6 2.8 5.6.1 4.7.7 8.4 1.3 8.6.5.2 1 1.2 1 2.3s.7 2 1.8 2.1c1.6.1 2.6.3 4.7.8 2.1.6 4.3.7 13.8.9 9 .1 9.7.2 9.7 2.1 0 1.3.7 2 2 2 1.1 0 2 .7 2 1.6 0 .8.4 1.3.8 1 .5-.3 3.1-.6 5.9-.7 5.8-.3 6.6-1.4 5.7-8.2-.4-2.5-.2-3.7.6-3.7.9 0 1-1.1.5-3.6-.4-2.4-.3-3.4.4-2.9.7.4 1.1-.3 1.1-1.7 0-1.3.5-10.3 1.1-20.1.7-9.8.9-18 .5-18.4-.7-.7-29.8-3.9-45.2-5l-9.2-.6zM902 97.7c0 2.7 3.1 37.5 3.6 39.9.3 1.8 3 3 15.8 7.3 8.5 2.8 16 5.1 16.6 5.1.7 0 1-1.1.6-2.8-.2-1.5-1.5-11.4-2.7-21.9-1.8-15.8-2.5-19.1-3.6-18.2-1 .9-1.3.8-1.3-.5 0-.9-.5-1.6-1.1-1.6s-6.6-2-13.5-4.5C909.6 98 903.6 96 903 96c-.5 0-1 .8-1 1.7M363.3 100.9c-12.8 4.4-13.3 4.7-13.3 6.7 0 .8-.5 1.2-1 .9-.6-.4-.8-1.1-.5-1.6.4-.5.1-.9-.4-.9-.6 0-1.1.8-1.1 1.7 0 1-.5 5.8-1 10.7-.7 6.1-.7 9.3 0 10 1.5 1.5 1.2 2.9-.4 2.3-1.1-.5-1.5.8-1.8 5.5-.1 3.3 0 6.2.5 6.5.4.2.7-.4.7-1.4 0-1.1.3-1.4.8-.7.4.6 2.8 1.6 5.4 2.3 2.8.8 4.5 1.8 4.1 2.4s0 .8.8.5 4-1.3 7.2-2.3c3.1-1 5.7-2.1 5.7-2.6s.7-.6 1.5-.3c.8.4 1.5.2 1.5-.4s-.5-1.2-1.1-1.4-.2-1.3.9-2.6c1-1.2 2.2-1.9 2.6-1.5.3.3.6.4.6.2s.7-7.4 1.5-15.9c1.9-20.5 1.9-22-.2-21.9-1 0-6.8 1.7-13 3.8M583.6 106.1c-1 9.9-2.8 52.1-2.2 52.7.3.3.6-1.5.7-3.9 0-3.4.2-3.9.9-2.4.5 1.1.9 1.4.9.7.1-.7.5-1.1 1-.8 1.3.8 1.9 7.5.6 7.9-.5.2 1.1.7 3.8 1.1 2.6.4 4.7 1.1 4.7 1.7 0 1.2 3.7 1.2 4.5-.1 1.2-2 9.5-.9 9.5 1.2 0 .6 1 1.9 2.3 3 1.9 1.7 3.1 1.9 8.2 1.4 4.6-.5 5.6-.4 4.5.5-1.3.9-1.3 1 .1.6.9-.3 3.4-.1 5.5.3 3.4.8 4.1.7 5.6-1.3 1.4-1.8 2-1.9 2.7-.8 1.3 2 2.4-22.9 1.9-43.9-.2-9.9-.7-18.2-1-18.6-.4-.3-10.2-1.2-22-2-11.7-.7-23.6-1.6-26.5-2l-5.1-.6zM689.9 101.4c-.2.2-10.1.9-21.9 1.5-11.8.7-22.8 1.4-24.3 1.7l-2.8.6.2 25.6c.2 32.4.5 35.8 3.3 36.8 1.1.4 2.7.7 3.4.8s1.6.6 2 1.2 2.6.8 5.2.5c4.1-.4 4.3-.5 1.5-1.1-1.6-.3 1.6-.6 7.2-.7 5.6 0 12.4-.6 15-1.2 5.2-1.2 11-1.9 16.1-2 1.7-.1 3.2-.6 3.2-1.2 0-.5-.4-.8-.9-.4-.5.3-1.2.1-1.6-.5-.3-.5.2-1 1.2-1 2 0 2 1.5-.2-44.8l-.8-16.2H693c-1.5 0-2.9.2-3.1.4M343 111c-.1.8-.1 2.1 0 2.9.1.9-.4 1.2-1.4.8-1.7-.7-4.9 3-4 4.5.3.5.1.7-.4.6-.5-.2-2.8 2.1-5 5.1-3.4 4.5-3.9 5.7-2.9 6.9.6.8 1 2.5.9 3.8-.3 1.8.3 2.6 2.4 3.4 1.5.6 3.4.8 4.1.6.8-.3 1.3 0 1.2.7-.1.6.1 2 .5 2.9 1.4 3.1.1 4.3-2.1 2.1-2.5-2.5-9.5-4.1-9.1-2.1.2.8-.7 1.3-2.4 1.3-3-.1-3.9 2.1-1.3 3.1 1.7.7 2.1 4.4.5 4.4-.5 0-1 1.2-1 2.6 0 1.9-.4 2.5-1.5 2-1.1-.4-1.5.2-1.5 2.3 0 4.4 1 6.1 3.4 6.1 2-.1 2-.1.3-1.4-1.2-.9-1.4-1.6-.8-2.1.6-.3 1.1-.1 1.1.4 0 .6 1.1 1 2.4.9 1.4-.1 2.2-.7 1.9-1.4s-1.1-1-1.8-.8c-.7.3-1.5.2-1.8-.3-.3-.4.7-.9 2.1-1 1.4 0 3.2-.9 3.9-1.9s1.6-1.5 1.9-1.1c.9.9-2.1 4.8-3.1 3.9-.5-.4-.5-.1 0 .7.6 1 1.6.4 4-2.5 2.3-2.7 2.9-4.1 2.2-4.7-.8-.4-.4-.9 1.1-1.3 1.2-.4 2.2-1.1 2.3-1.8.1-1.4.6-4.4 1.4-7.3.3-1.5.1-2.3-.7-2.3-1 0-1.1-.2 0-.8 1.3-.9 4.6-24.7 3.9-28.5-.2-1.2-.5-1.5-.7-.7M936.6 112.2c.2 1.3 1.3 10.2 2.5 19.8 1.6 12.9 2.7 18.4 4.2 21 2.9 5 5.8 8 7 7.3.6-.3.7-.2.4.4-.7 1.1 2 5.3 3.4 5.3.6 0 .7-.5.4-1-.3-.6-.1-1 .5-1 .7 0 .9.7.6 1.6-.4 1 .7 3 3.1 5.5 2 2.1 3.8 3.7 4 3.5.3-.2-.7-1.5-2.1-2.9-3.1-3.2-3.3-4.3-.5-5 2-.5 2-1 1.4-8.4-.7-7.1-1.5-11-1.5-7 0 2.1-1.6 2.2-2.3.3-.3-.8.4-2.1 1.5-2.8 2.3-1.5 1.7-4.3-.7-3.4-.9.3-1.1-.2-.8-1.5.4-1.5.2-1.8-1.2-1.3-1.5.6-1.6.4-.6-1.4.7-1.2 1.6-2.2 2.2-2.2 1.5 0-7.7-12.5-18.6-25.3-2.7-3.2-3.2-3.4-2.9-1.5M867.4 141.9c-1.1.2-2.3.8-2.7 1.5-.6.8-1 .8-1.4-.2-.2-.6-.8-1.2-1.2-1.2-.6 0 0 5.1 2.4 18.5l.5 3 7.8.2c6.3 0 8-.3 9.5-1.8 2.2-2.4 8.2-2.7 7.3-.4-.4 1.2.6 1.5 6.2 1.5 3.7 0 8.3-.3 10.3-.6 3.4-.6 3.6-.8 2.8-3.3-.5-1.4-1.8-5.9-3-10l-2.1-7.3-3.1.4c-1.8.3-9.6.2-17.3-.1-7.8-.3-15-.4-16-.2M386 143c6.6.5 7.3.7 3.3.8-5.2.2-5.3.3-5.3 3.2 0 1.6.5 3 1 3 .6 0 1 .9 1 2.1 0 1.5.5 2 2.3 1.7 1.2-.2 2.7.3 3.3 1.1.9 1.2 1.9 1.2 6.5.1 3-.7 6.6-1.9 8-2.6 2.2-1.1 2.9-1.1 4.6.1 1.9 1.4 2.1 1.3 2.7-1.1.5-1.9 0-3.6-1.6-6-2.1-3.2-5.8-4.7-5.8-2.4 0 .5-1.8.9-4 .8s-4-.5-4-1c0-.4-4.6-.7-10.2-.6l-10.3.2zM841.5 143c-3.3.5-9 1.1-12.7 1.5-5.1.5-6.8 1.1-7.1 2.3-.4 1.5-.5 1.5-.6-.1-.1-2-.4-2-5.3-.7-2.2.6-3.5 1.6-3.3 2.3.5 1.3 1.3 11.8 1.5 18.2 0 3.4.2 3.7 1.1 2.1.9-1.4 1.3-1.5 1.9-.6.5.9 3.1 1.3 7.6 1.2 3.7-.1 7.4.4 8.1.9 1 .9 1.5.4 2.3-1.7.9-2.3 1.3-2.6 2.1-1.4.8 1.1 1.2 1.2 1.6.2.5-1.4 8.4-1.7 9.9-.3.5.5 2.3.7 3.9.3l3-.6-2.5-.8c-1.8-.5-1.3-.6 1.7-.3 2.3.3 4.5.1 4.8-.5s-.1-.7-1-.4c-1.3.5-1.4.2-.4-2.2.6-1.6 1-3.1.9-3.2-.1-.2.1-.6.4-1 .3-.3.6.4.6 1.6s.5 2.2 1.1 2.2c.7 0 .8-1.1.4-3.1-.4-1.7-1-5.6-1.5-8.7-.4-3.1-1.2-5.8-1.9-6-.6-.2-.9-.8-.5-1.3.6-1.1-7.5-1-16.1.1M911.3 151.1c5.8 10.5 8.6 11.6 14.9 5.6 1-.9 2.5-1.7 3.3-1.7s1.5-.5 1.5-1.1c0-.5.3-.8.8-.6.4.3 1.5.1 2.5-.2 1.6-.6-11.6-5.6-25.2-9.6-2.2-.7-2-.2 2.2 7.6M793 149.6c-20.5 3.9-23.3 4.6-22.1 5.3.6.4-.8 1.6-3.5 2.9-3.9 2-4.4 2.5-3.3 3.8 1 1.3 1 1.7-.2 2.5-1.2.7-1.2.9 0 .9 1 0 .8.5-.6 1.8-1.7 1.4-1.8 1.9-.7 3 .7.6 2 1.2 2.9 1.2 1.5 0 1.5.2 0 1.7-.9.9-2 1.2-2.3.7-.4-.5-1.3-1-1.9-1.2-1-.1-1.3 1.7-1.1 7l.1 7.3.7-6c.5-5.1.7-5.5 1-2.5.4 2.8.9 3.4 2.5 3.2 1-.2 2.7-1.2 3.6-2.3 2-2.3 4.9-2.5 4.9-.4 0 .9.9 1.5 2.5 1.5 1.4 0 2.5-.5 2.5-1 0-.6.9-1 2-1s2-.5 2-1.1c0-.7 2.9-1 8.8-.8 8.5.3 8.7.3 9-2 .3-1.5 1.4-2.7 3.3-3.4 1.6-.6 3.2-1.9 3.5-2.9.7-2.4 1.9-2.3 3.2.4.9 2 1.1 1.5 1-3.2 0-3-.3-8-.8-11l-.7-5.5-.3 7c-.3 6.8-.3 6.9-.9 2.3-.7-4.5-3.5-8.3-5.3-7.2-.5.3-.8.3-.8 0s1.5-1.2 3.3-2c4.4-2 2.3-1.8-12.3 1M749.8 157.7c-1.6.2-2.8.8-2.8 1.3 0 .4-1.5.8-3.4.8-4.7 0-8.2 1.2-6.6 2.2.9.5 1.4 4.2 1.7 11.1.2 5.7.8 10.5 1.3 10.7.6.2 1 1.1 1 1.9 0 1.2.8 1.5 4.1 1 4.9-.6 4.9-.7 5.2-4.3.1-1.6.7-3.5 1.4-4.1 1.6-1.7.5-4.9-2-6.1-2-1-1.9-1.1 1.2-1.1 2.8-.1 3.3-.4 2.8-2.1-.3-1 .1-2.7.9-3.7.7-1 1.3-3.4 1.3-5.3-.1-1.9-.3-2.7-.6-1.8-.2 1-1.1 1.8-1.8 1.8-.9 0-1.2-.6-.9-1.5.4-.8.5-1.4.3-1.4-.2.1-1.6.4-3.1.6M721.5 163.5c-3.3.7-7.8 1.8-10 2.4l-4 1 3.8-.2c2.3-.2 3.6.1 3.4.7s-1.6 1-3 .8c-2.1-.3-2.9.2-3.6 2-1.1 2.8-.6 3.8 2 3.8 1 0 1.9.4 1.9 1 0 .5-1.2 1-2.6 1-4.4 0-2.6 3.3 2.4 4.4 4.3.9 6 3.6 2.2 3.6-2.5 0-2.6 1.8-.2 2.7.9.4 2.1 1.1 2.5 1.7.6.8 1 .7 1.4-.2.2-.6 1.1-1.2 1.9-1.2s1.4-.6 1.4-1.3c0-.8 1.1-2 2.5-2.7s2.5-2.2 2.5-3.2c0-2.2 2-6 3.8-7.1.6-.4 1.2-1.7 1.2-2.8 0-2.4-3.5-3.9-9.3-4l-4.2-.1 5.3-1c2.8-.5 5.2-1.4 5.2-1.9s-.1-.9-.2-.8c-.2 0-3 .7-6.3 1.4M682.5 170c-2.2.4-3.3.8-2.5.9 1.3.1 1.3.2 0 1.1-.9.6-1.8.6-2.4 0-1.1-1.1-7.7-1.1-12.1 0-1.6.4-2.4.8-1.7.9 1 .1 1 .6.1 2.2-.9 1.7-1.7 2-4.5 1.6-3-.5-3.4-.3-3.4 1.6 0 1.3-.3 1.7-.8 1.1-1.1-1.8-7.2-2.8-7.2-1.3 0 .7.3 1 .6.6.3-.3 1.7.5 3.1 1.9 2.4 2.4 2.8 2.5 11.4 1.8 6.4-.5 8.9-.3 8.9.5 0 .7 2.2 1.1 6 1.1 3.3 0 6-.4 6-1s.9-1 2-1c1.7 0 2-.7 2-4.5s-.3-4.5-2-4.5c-1.1 0-2-.5-2-1.1s.7-.8 1.5-.5c5.1 2.1 5.1 2.1 3.7.4-1.2-1.5-.9-1.7 2-2.1 3-.3 2.9-.4-.7-.4-2.2 0-5.8.3-8 .7M0 549.4V720h333.8l-3.5-9.8c-11.9-33.4-20.5-66.5-25.3-98.2-3.1-20.4-10.6-63.8-11.6-67.2-.6-2-7.2-6.1-8.5-5.3-.5.4-.6 0-.3-.8.3-.9-.4-2.1-1.5-2.9-2.2-1.6-9.1-14-9.1-16.4 0-.8-.4-1.2-1-.9-.6.4-1-.6-1-2.4 0-1.6-.4-3.3-1-3.6-.5-.3-1-2.1-1-3.9 0-5.6-1.2-12.6-2.1-12-1.4.8-2.9-3.2-3.6-9.6-.5-4.7-1.1-6.5-2.9-7.9-1.3-1.1-2.4-2.4-2.4-3 0-.7-.7-2.6-1.6-4.2-.8-1.7-1.6-4.8-1.6-7 0-2.1-.4-3.9-.8-3.9s-1-.8-1.4-1.8c-.3-.9-1-2.4-1.4-3.2-2.1-3.5-4.2-9.3-4.2-11.8-.1-3.7-1.8-5.5-6.7-7.1-2.4-.8-4.3-1.9-4.3-2.5s-.5-.4-1 .4c-.6 1-1 1.1-1 .2 0-.6-.7-1.2-1.5-1.2-1 0-1.5-1-1.5-3.1 0-2.3.4-3 1.4-2.6 1.7.7 1-2.2-1-3.8-.6-.6-1.4-2.2-1.8-3.8-.4-1.5-1.3-2.7-2.2-2.7-1.8 0-4.4-2.3-4.4-3.9 0-.6-.4-1.1-1-1.1-.5 0-1-.6-1-1.4s-.6-1.6-1.4-1.9c-.7-.3-1.6-1.8-1.9-3.4-1.1-4.6-3-6.3-8.2-6.8-6.9-.7-8.5-1.4-8.5-3.6 0-1.6-.7-1.9-5-1.9s-5-.3-5-2c0-1.1-.5-2-1.1-2-.5 0-.8-.4-.5-.9 1-1.5-6.5-2.1-17.6-1.4-9.3.5-10.8.4-10.8-.9s-2-1.7-10.2-2.3c-7.9-.6-11.1-1.3-14.4-3.1-4-2.2-7.4-2.4-7.4-.3 0 1.2-5.3 0-6.1-1.4-.4-.5-1.1-.7-1.5-.4-.5.3-5.3.8-10.8 1.1-5.4.4-10.8.9-12 1.2-9.1 2.2-55.2 1.9-75.1-.6-4.4-.5-11.7-1.3-16.2-1.6l-8.3-.7zM939 468.9c-2.3 2.6-3.4 3.1-4.2 2.3-2.4-2.4-4.5-1.3-5.8 3-1.7 5.4-1.7 5.3-3.5 3.8-2-1.7-1.9-.8.6 4.5 1.4 3 2.5 4.2 3.4 3.7 3.4-2 24.4-17.8 24.5-18.4 0-.3-.9-.4-2-.1-1.3.3-2 0-2-.8 0-1-1.3-1.4-4-1.4-3.3-.1-4.5.5-7 3.4M953.6 471.8c-.3.6-.3 1.2.1 1.5.5.2.2.2-.6 0-.7-.2-6.2 3.4-12.2 7.9-10.6 7.8-11 8.2-10.3 11.2 1.9 9.3 9.5 42 9.7 42.3.2.1 4.5-4.6 9.6-10.5s10.4-12 11.8-13.5 2.3-3.1 1.9-3.4c-.3-.4-.6 0-.6.7s-.3 1.1-.6.8c-.7-.7 1.8-4.8 2.9-4.8.4 0 .5.5.1 1.2-.5.7-.3.8.5.4.7-.5 1-1.5.6-2.4-.3-.9-.3-1.3.1-.9.9.8 3.4-1.1 3.4-2.7 0-.6-.5-.4-1.1.4-.8 1.2-.9 1-.4-.8.7-2.5-4-16.2-5.6-16.2-.5 0-.9-1.1-.9-2.5 0-3.2-2-7.6-3.2-6.9-.5.3-1.8-.2-2.8-1.1s-2-1.2-2.4-.7M963 472.7c0 2.6 1.4 4.3 3.6 4.3 2.8 0 3 .8.7 2.5-1.5 1.1-1.4 1.9 1.2 9.4 1.8 5.2 3.1 7.7 3.7 6.9.4-.7.5-2.1.2-3-.3-1 0-2.6.6-3.5.8-1.5.9-1.2.5 1.2-.5 2.9-.5 3 .6.5 4.2-9.1 4.7-11 2.4-8.6-.8.8-1.5 1.9-1.5 2.5 0 .5-.4 1.2-.9 1.5-.4.3-.6-.6-.3-2.1.4-1.9-.1-3-1.9-4.4-2.1-1.6-2.2-1.8-.6-2.5.9-.3 2.6-.4 3.8-.1 1.7.5 2 .1 1.7-2.1-.3-2.5-.6-2.7-6-3-4.1-.1-5.8.2-5.8 1 0 .9-.3.8-1-.2-.6-.9-1-1-1-.3M911.5 492.6c-21.1 3.1-23.7 3.7-22.1 4.6.9.5 1.6 1.5 1.6 2.3 0 .7.5 1.5 1.1 1.7.5.2 1.3 2.3 1.6 4.7.5 3.4.3 4.3-.8 3.9-.7-.2-1.7-2-2.2-3.9-1-4.1-3.3-6.8-2.3-2.8.3 1.4 1.7 11.1 3.1 21.5s3.2 23.6 4 29.3c.8 5.8 1.5 10.6 1.5 10.8s.5.1 1-.2c1.3-.8 1.3.8 0 2.1-.5.5-.6 1.5-.1 2.2.6 1 2.1.2 6-3 2.9-2.4 6.7-5.4 8.5-6.8 19.2-15.2 25.7-21.3 25.3-23.3-.3-1.2-1.7-7.9-3.2-14.9-1.4-6.9-3.6-16.4-4.9-21-2.2-8.3-2.2-8.3-5.7-8.4-1.9-.1-7.4.4-12.4 1.2M320.9 494c-.8 1.1-2.6 2.1-4.1 2.2-2.2.2-2.8.7-2.8 2.5 0 1.3.5 2.3 1 2.3 1.7 0 5.1 6.4 4.8 9.2-.2 2.1 1.2 4.3 6.4 10 3.6 4 7.5 8.4 8.7 9.8 1.1 1.4 2 1.9 2.1 1.2 0-.7.4-1.1.9-.7 1 .6 1.6-2.9 2.6-15.4.4-4 .9-8 1.2-8.9.4-1 .2-1.3-.5-.8-.9.5-.9 0-.2-1.9 1.3-3.3 1.3-4.4 0-2.5-.8 1.3-1 1.3-1-.2 0-.9-.8-2.3-1.8-3-1.1-.7-2.4-2.3-3.1-3.6-1-1.9-2-2.2-7-2.2-4.7 0-6.1.4-7.2 2M879 496.4c0 1.3-6.3 2.9-10 2.6-10.2-.8-25.3-.1-26.8 1.4-.3.3-1.2 0-2-.7-1.2-1-1.4-.9-.9.8.3 1.1 1.2 4.6 1.9 7.8.9 4.2 1.5 5.3 2 4 .6-1.2.6-.8.3 1-.3 1.5.2 5.9 1.2 9.8l1.7 7 12.5 10.4c17.3 14.1 35.5 28.5 36.2 28.5.6 0-.7-11-1.6-14-.2-.8-.9-5.6-1.5-10.5-2.3-19.8-6.4-43.1-7.1-40-.5 2.4-.7 2.5-.8.7-.2-4-2.5-10.2-3.8-10.2-.7 0-1.3.6-1.3 1.4M750.6 497.6c-1 2.6-.7 14.4.4 14.4.6 0 1 1.3 1 2.9s.5 3.1 1.1 3.3c.9.3.8 1.4-.1 4-.8 2.1-1.7 3.5-2.2 3.2-2.7-1.7.7 1.7 11.8 11.5 14.5 13 12.8 13.2 19.5-1.9 2.3-5.2 5.2-11.8 6.5-14.5 1.3-2.8 2.8-6.6 3.4-8.5l.9-3.5-1.8 2.2c-2 2.4-3.8 3.2-2.5 1.1.4-.7.3-.8-.4-.4-1.3.8-6.2-2.4-10.3-6.7-1.5-1.5-3.6-2.7-4.8-2.7s-2.1-.4-2.1-.8-2-1.5-4.5-2.4c-3.9-1.5-4.7-1.5-5.9-.2-.8.7-3 1.4-4.9 1.4-2 0-3.8.6-4.1 1.2-.4.7-.4-.2-.1-2 .5-3.4.1-4.2-.9-1.6M817.3 497.4c-1.3.6-2.3 1.4-2.3 1.8 0 .5-1.6.8-3.5.8s-3.5.4-3.5 1c0 .5-2.2 1-5 1-4.3 0-5 .3-5 2 0 1.1-.5 2-1.1 2-4 0 7.1 5.8 26.7 14 9.8 4.1 10.1 4.1 9.6-1-.4-3.6.9-6.2 2.6-5.5 1.4.5 1.5.4.5-.6-1.8-1.8-1.6-4 .2-3.3 1 .4 1.5 0 1.5-1.1s-.5-1.5-1.5-1.1c-1 .3-1.7-.3-2.1-2.2-1.3-4.9-3.6-7.1-7.6-7.2-2 0-4-.5-4.3-1-.8-1.2-2.3-1.1-5.2.4M350.7 501.1c-1.8 2-2.7 4.2-2.7 6.4 0 1.8-.6 4.7-1.4 6.5l-1.3 3.3-.5-3.4c-.3-1.9-.1-4.1.5-5s.7-2.5.2-3.5c-1.2-2.7-2.3 4.3-3.3 19.4l-.7 12.2 4.5 4.4c2.5 2.3 9.9 8.7 16.5 14.2 6.6 5.4 13.4 11.1 15 12.6l3 2.8.6-9.8c.4-5.3 1.2-15.1 1.8-21.7.7-7.7.7-12.1.1-12.3s-1-1.9-1-3.8c0-2-.3-3.3-.7-3.1-.5.3-.9-.9-.9-2.6-.1-1.7-.6-3.3-1.3-3.5-.6-.2-1.1-1.1-1.1-2.1 0-.9-.9-2.3-2-3.1-1.2-.8-2-2.6-2-4.2 0-1.5-.9-3.7-2-4.8-2.2-2.2-4-2.6-4-1 0 1.3-13.7 1.3-14.2 0-.2-.6-1.5.4-3.1 2.1M969.1 505.4c-.6.7-.9 2.2-.5 3.2.5 1.5.4 1.6-.5.4-.8-1.2-1.1-1.1-1.6.5-.4 1.1-1.2 3.1-1.9 4.5s-2.3 5.4-3.6 9-2.7 6.7-3 7-1.4 2.3-2.4 4.5-3.5 6.2-5.4 9c-5 7.1-2 3.9 10.3-10.9 14.5-17.5 13.7-16.1 12.4-22.9-1.2-5.9-1.9-6.7-3.8-4.3M475.8 514.4c-1.4.8-4.3 1.9-6.3 2.6-2.9.9-3.4 1.5-2.4 2.2 1.1.8 1 .9-.3.4-1.7-.5-12.8 3.8-12.8 4.9 0 .4.5.3 1.2-.1.6-.4.8-.3.5.3-.4.6-1.9.9-3.4.7-1.6-.2-2.2-.1-1.5.2.6.3 1.2 1 1.2 1.5 0 .6-.8.5-2-.1-1.7-.9-2-.8-2 .7 0 1.9-4.1 6.3-5.8 6.3-.6 0-1.2.8-1.4 1.7-.3 1.5-.6 1.5-1.7-.5-1-1.9-1-2.6.1-4s1.1-1.5-.5-.9c-1 .4-2.1.7-2.3.7-1.1 0 0 2.6 3.6 8.6 2.2 3.6 4 7 4 7.5s.5.9 1 .9c.6 0 1 .5 1 1.1s3.9 7.7 8.7 15.7c11.5 19.6 11.2 19.2 12.1 19.2.4-.1 8.8-7.9 18.7-17.4 15.2-14.7 17.7-17.6 16.7-18.9-.7-.8-4.2-7.3-7.7-14.3-3.5-7.1-6.4-12.4-6.5-11.7 0 .7-.7 1-1.7.7-1.5-.5-1.5-.4-.3.4.8.6 1.8.8 2.2.6.4-.3.8.3.8 1.2 0 1-.3 1.5-.6 1.1-.4-.3-2.2 0-4 .8-3 1.2-3.4 1.2-3.4-.1 0-.7-.6-1.4-1.2-1.4-1 0-1-.2-.1-.8 1.6-1-1.9-5.2-4.4-5.2-1.5 0-1.6.2-.3 1s1.2 1-.3 1c-1 0-2.5-.7-3.3-1.4-1.2-1.3-.9-1.7 3.1-3.5 2.5-1.1 4.5-2.2 4.5-2.5 0-.8-.1-.8-3.2.8M788.6 526.2c-3.2 7.3-7.1 15.6-8.6 18.4l-2.9 5.2 16.4 15.7c8.9 8.6 16.6 15.9 17 16.3s.4-.7 0-2.3c-.5-2.5-.4-2.7.5-1.2.7 1 .9 2.4.6 3.2-.2.7.1 1.8.8 2.4.9.7 1.7 0 3.1-2.7 1.1-2 3-5.5 4.4-7.7 4.6-7.5 15.4-26 18.4-31.5 1.6-3 3.6-6.5 4.4-7.8 1.4-2.2 1.2-2.4-5.4-5.3-3.7-1.7-8.6-3.9-10.8-4.9-9.3-4.3-16.3-7.3-21.3-9.1-4.5-1.5-5.4-1.6-5.8-.4-.3.8-1.4 1.7-2.3 2-1 .3-2.3 1.5-2.9 2.8l-1.1 2.2v-2.2c-.1-1.2.6-2.6 1.4-3 .8-.5 1.1-1.3.6-2.1s-2.8 3.4-6.5 12M400.5 516.1c-1.4 1.4-2.7 1.8-4.7 1.4-1.5-.4-3.6-.1-4.8.5-1.7.9-2.2.8-2.9-1.1-.6-1.7-.9-.1-1.4 5.7-2.8 35.3-3.6 47.4-3 47.4 1.1 0 46.6-37.9 47.6-39.6.4-.8.4-1.4-.2-1.4-.5 0-1.2.6-1.4 1.2-.3.8-.6.6-.6-.5-.1-.9.5-1.7 1.3-1.7 2 0 2.9-3.2 1.7-6.2-.6-1.5-.5-3.1.1-4.1.9-1.6.7-1.6-3.2-.1-2.2.9-4.9 1.4-6 1.1s-2.3-.1-2.6.4c-.9 1.5-4.4 1-4.4-.6 0-.8-.9-1.5-2-1.5s-2-.7-2-1.5c0-2.4-9-1.9-11.5.6M508 515.4c0 .7-.9 1.6-2 1.9s-2 .1-2-.3-.9-.6-2.1-.3-1.8 1.1-1.5 1.9-.5 1.9-1.7 2.5c-1.2.7-2.5 1.7-2.9 2.3-.6.8-1.1.6-1.9-.4-.9-1.3-1-1.3-.6 0 .2.8 1.4 1.4 2.6 1.3 1.4-.2 2.1.3 2.1 1.3 0 1.1-.6 1.5-1.9 1.1-1.8-.4-1.8-.2-.8 2.2.6 1.4 1.6 3.1 2.1 3.6.6.6 1.2 1.7 1.4 2.5.6 2.7 5.5 13 6.1 13 .4 0 2.7-2 5.1-4.5s3.8-4.5 3.1-4.5c-.6 0-.9-.5-.5-1.1.4-.8.9-.7 1.4.2.6.9 1.7.5 4.3-1.7 4.1-3.4 4.9-5.4 1.2-3-1.4.9-2.5 1.2-2.5.7s.9-1.3 2-1.6 2-1.1 2-1.6.5-.9 1.1-.9c.5 0 .7.4.4 1-1.3 2.2 1.3.8 4.1-2.1 1.8-1.9 2.2-2.8 1.1-2.4-1 .4-1.7.3-1.7-.4 0-.6.4-1.1 1-1.1.5 0 .1-1.3-.8-3-.9-1.6-2.1-3-2.5-3s-1.9-1.2-3.3-2.7c-1.7-1.8-2.8-2.3-3.2-1.6-.8 1.3-7.2 1.4-7.2.1 0-.4-.4-.8-1-.8-.5 0-1 .6-1 1.4M318.8 516.6c.6 1.1 1.8 2.7 2.7 3.4s2.1 2.3 2.7 3.4c.9 1.8.7 1.8-1.7-.4l-2.8-2.5 3.1 5.9c1.8 3.3 3.2 6.4 3.2 6.9 0 .9 6.8 11.7 9 14.4.5.7 1 1.9 1 2.7s.5 1.8 1 2.1c.6.4 1-2.3 1-7.3 0-7.9 0-8-4.1-12.3-2.2-2.4-3.8-3.6-3.5-2.6.4 1.1.2 1.6-.5 1.2-.6-.4-.8-1.3-.5-2 .4-1.1-5.4-8.8-10.1-13.5-1.4-1.3-1.4-1.3-.5.6M957.4 519.2c-2.3 2.4-6.9 7.6-10.3 11.7l-6.3 7.4.7 7.1c.4 3.9.9 7.3 1.1 7.5.5.6 3.4-2 3.4-3.1 0-.5-.5-.6-1.2-.2-1.3.8-.3-1.1 1.9-3.7 1.3-1.5 4.6-7.6 10.4-18.9 1.5-3 2.5-5.8 2.2-6.3-.2-.4.3-1.9 1.1-3.2 2.3-3.5 1.6-3.1-3 1.7M972.5 521.4c-.6.7-6.4 7.8-13 15.7-16.7 20-17 20.3-15.5 23.8.6 1.6 2 3.8 2.9 4.8 1 1.1 2.4 3 3 4.4l1.2 2.4-1.8-2.2c-1-1.1-2.9-3.5-4.3-5.2s-2.8-3.1-3.2-3.1c-.3 0-.9 1.5-1.3 3.2-.4 1.8-2.9 11.4-5.6 21.3-7.2 27.1-10.7 40.5-10.5 40.5.1 0 2-2.4 4.1-5.3 2.2-2.8 6.5-8.4 9.6-12.2 10-12.5 19-25.8 18.7-27.4-.2-.9.2-2.1.9-2.6 1.8-1.4 15.3-48.4 15.3-53.2 0-1.3-.2-1.4-1.7-.2s-1.6 1.2-.8-.1c.4-.8 1.5-2.3 2.3-3.3.8-.9 1.3-1.9 1.1-2.2-.3-.2-.9.2-1.4.9M307.8 523.2c.8 1 .9 1.7.2 2-1.1.3 1 10.7 5 24.8 1.2 4.1 2.5 8.8 2.9 10.5.4 1.6 1.2 3 1.8 3s1.5.3 1.9.7c.4.5.2.8-.4.8-1.8 0-1.5 3.3.9 9.6 1.3 3.5 2.4 5.2 2.9 4.4.4-.7.6-2.2.3-3.4-.4-2-.4-2 1.6.3 2 2.2 2.1 2.5.5 4.2-1.4 1.5-1.5 2.4-.6 4.3 1.4 3.1 24.3 34 30.3 41 .7.8-2.3-11.4-11.1-44.4-1.7-6.3-3.5-13.2-4.1-15.3l-1-3.8-2.4 2.3c-1.4 1.3-2.5 2.9-2.5 3.5 0 .7-.7 1.3-1.6 1.3-1 0-1.4.6-1 1.5.3.8.1 1.5-.5 1.5s-.8.4-.4.9c.3.6-.4 1.5-1.5 2.1s-2 .9-2 .6c0-1.3 5.5-10 8.2-13 1-1.1 1.8-2.6 1.8-3.4 0-1.7-8.8-13.8-12.1-16.7l-2.2-2 1.8 3 1.7 3-2-2.5c-1.1-1.3-1.8-2.8-1.6-3.2.6-.9-11.1-15.4-14.3-17.9-1.6-1.3-1.7-1.2-.5.3M635.3 529.9c-2.5 4-4 7.5-3.7 8.7.5 2.2-1.1 5.2-2.3 4.1-.4-.5-.1-1.2.6-1.6.7-.5 1.1-1.5.9-2.2-1.5-4.6-5.2 13.4-4.6 22.7.2 3-.1 5.6-.7 5.8-3.1 1.1 1.5 1.5 11.1.9l10.9-.6 3.5-5.6c1.9-3.1 3.5-6.1 3.5-6.6 0-.6.6-1 1.4-1s1.6-.6 1.9-1.4c.3-.9 0-1.1-.8-.6s-1.1 0-1-1.6c.4-4.5 0-5.6-2.5-6.7-1.8-.8-2.5-1.9-2.5-3.9l.1-2.8 1.4 3c1.3 2.5 1.4 2.6.9.5-.9-3.6-6.9-14.2-9.3-16.4l-2.1-1.9v14.1c0 18.8-1.9 18.9-2.2.2l-.3-13.9zM656.9 527.6c.1 2.4.8 4.4 1.3 4.4.6 0 .7-1.1.4-2.8l-.7-2.7 3.1 3.4c3.4 3.8 4.1 6.4 1 3.6-1.1-1-2-1.3-2-.7s.5 1.4 1 1.7c.8.5.7 1.2-.2 2.2-1.1 1.4-1.4 1.3-1.9-1.3l-.7-2.9-.1 3.2c-.1 4.3.9 6.9 2 5.1.6-.9.9-.6.9 1 0 1.3-.4 2-1 1.7-2.9-1.8 5.4 10.3 11.3 16.5l6.8 7.1-.6-3.8c-.3-2.1-.8-5.4-1.1-7.3-1.1-7.8-1.6-9.3-2.6-7.9-.7 1-.7.7-.3-.9.6-2.2-1.5-6-5.8-10.4-.7-.7-1.9-2.2-2.7-3.4-.8-1.1-3.1-3.9-5-6.1l-3.5-4.1zM623 527c0 2-.4 2.8-1.3 2.4-.8-.3-2.8 1.4-4.8 4.1-1.9 2.6-4.4 5.9-5.6 7.5-2.8 3.4-3.2 6-.6 3.9 1.5-1.3 1.5-1.2.3.8-1.2 1.8-1.1 2.5.3 4.7 1.8 2.8 3.7 2.6 7.1-.6 1.1-1 2.3-1.8 2.8-1.8.4 0 .8-1.4.8-3 0-1.7.5-3 1.1-3 .8 0 .9 1.1.5 3.1-.3 1.7-.6 3.5-.6 4s-.6.9-1.3.9-2.5 1.2-3.9 2.7l-2.5 2.8 3.8 5.4c2.2 3 3.9 4.8 3.9 4s.7-8.6 1.5-17.4c1.9-20.8 1.9-23.5 0-23.5q-1.5 0-1.5 3M535.3 530c-.3 1.1-.9 1.7-1.4 1.4s-.9 3-.9 7.2c0 6.1.3 7.5 1.2 6.6 2-2 3.2-1.3 1.3.8-3.9 4.3-.5 1.6 7.1-5.5 4.3-4.1 7.3-7.5 6.6-7.5s-3.1-.9-5.5-1.9c-7.2-3.2-7.8-3.3-8.4-1.1M738 530.6c-2.5 1.3-4.4 2.7-4.3 3.3.2.6-.5.8-1.5.5-.9-.3.9 1.9 4.2 5 3.2 3.1 6.3 5.3 6.7 5 .5-.3.6.1.3.9-.7 2 1.6 3.3 2.7 1.6.5-.8.9-5 .9-9.4 0-5.5-.3-7.5-1-6.5-.8 1.2-1 1.1-1-.8 0-2.7-1.2-2.6-7 .4M603.8 532.3c-10.1 9.2-12.9 15.4-9.4 20.3 1.4 1.8 1.7 1.7 5.8-2.9 3.3-3.8 4.2-5.6 4-8-.1-2.5 0-2.8.6-1.3 1.2 2.9 2.2.6 2.7-5.9.2-3 .3-5.5.1-5.5-.1 0-1.8 1.5-3.8 3.3M749.1 538.7c-.1 5.4-.4 10.7-.7 11.8-.3 1.2 1.1 4.5 3.6 8.5 4 6.5 5.4 7.6 2.4 1.9-.8-1.7-1.4-3.5-1.2-4.1.2-.5 1.4 1.1 2.6 3.6 2.5 5 3.3 5.4 5.2 3.1.7-.9 1.9-1.4 2.6-1.1.9.3 1.1 0 .7-1.1s-.2-1.4.5-.9c1.1.7 10.5-8.1 10-9.4-.4-.9-24.5-22-25.1-22-.2 0-.5 4.4-.6 9.7M527.6 531.5c-1 .8-1.5 1.8-1.2 2.3s-.2 2.7-1 5c-1.4 3.4-2 4-4.2 3.7-1.5-.1-2.8-.8-3-1.4-.5-1.4-4.2 1.5-4.2 3.2s-3.1 4.6-4.4 4.1c-.7-.3-1.9.3-2.7 1.2-1.1 1.4-1.1 1.8.4 2.9.9.7 1.7 1.7 1.7 2.2 0 1.5 8.8 10.3 10.4 10.3 1.8 0 3.1-1.7 6.7-8.9 1.7-3.3 2.7-6.5 2.4-7.1-.4-.6 0-2.2.9-3.5 1.7-2.5 2.2-12 .8-14.2-.5-.8-1.2-.8-2.6.2M432 533.7c0 .7.5 1.5 1 1.8 2.2 1.4.8 2.6-2.7 2.3-3.1-.2-3.9.1-5 2.2-.7 1.4-1.8 2.4-2.4 2.2-1.3-.3-3 .9-11 7.9-7.2 6.4-17.3 14.8-23.7 19.8l-4.2 3.3 2.1 2.6c2.7 3.5 15.3 17.5 34.6 38.4l15.5 16.7 2.2-2.7c2.8-3.3 14.3-20.7 21.4-32.3 5.3-8.6 5.3-8.7 3.8-12-.9-1.9-2.4-4.6-3.3-6.1-1-1.5-4.2-6.6-7.1-11.5-3-4.8-6.7-10.8-8.3-13.3s-3.2-5.3-3.5-6.3c-.4-.9-1-1.7-1.5-1.7s-.9-.7-.9-1.5c0-.9-.7-1.8-1.5-2.1-.8-.4-1.3-.9-1.1-1.3.2-.3-.7-2.2-2-4.1s-2.4-2.9-2.4-2.3M844.7 535.6c-.9 1.2-1.7 2.5-1.7 2.9 0 .3-.9 1.8-1.9 3.3-2.6 3.7-21.4 35.7-24 41l-2.2 4.2 4.7 7.7c6.5 10.7 19.8 31.3 22.1 34.1l1.8 2.4 10.1-10.9c8.4-9.1 25.6-28.3 38.1-42.6 1.8-2 3.3-4.1 3.3-4.7 0-1.4-39.5-32.8-41.1-32.7-2.4.1-7.9-2.7-7.9-4 0-.7.5-1.3 1-1.3.6 0 1 .4 1 .9 0 1 5 4.5 5.6 3.8.2-.2-1.3-1.7-3.4-3.4l-3.7-3zM341.1 542.7c-.1 1-.3 3.4-.7 5.4-1.1 6.9.9 10.5 23.7 40.9 21.3 28.4 22.1 29.3 21.6 24.9-.3-2.5-1.3-10.8-2.2-18.5-2.5-22.6-1.9-20.7-9.2-26.9-3.5-3.1-6.9-5.2-7.5-4.9-.6.4-.8.2-.5-.3.7-1.1-1.4-3.1-12.3-12.2-4.1-3.5-5.4-4.1-6.1-3-.8 1.1-.9 1-.7-.4.2-1.2-1-2.9-2.9-4.4-2.9-2.2-3.2-2.3-3.2-.6M923.4 552.9c-23.3 18.7-24.3 19.5-24.8 21.1-.6 1.8-4.8 43.2-4.4 43.5.2.2 10.5-13.4 23.1-30.1L940 557l-.6-7.7c-.3-4.3-.8-7.9-.9-8.1s-7 5.1-15.1 11.7M968.4 566.5c-7.7 16-12.1 27.1-10.4 26 1.1-.7.3 4.7-1.2 8-.6 1.4-.7 1-.3-1.4.3-1.9.2-3.2-.1-2.8-.9.9-2.9 7-10.9 32.7-3.6 11.8-7.2 23.4-8 25.7-.8 2.4-1.2 4.3-1 4.3.6 0 10.9-17.8 16-27.7 2.5-5 4.9-11.1 5.2-13.5.4-3.4.2-4-.7-2.8s-1 .9-.4-1.5c.4-1.7.9-5.4 1-8.3.3-5.9.7-6.8 2.4-5.7.8.5 1 2.2.7 4.9l-.6 4.1 1.6-4.4c1.2-3.5 1.3-4.8.4-6.3-.6-1-.8-2.4-.5-3 .5-.8 1-.5 1.5.8.6 1.6.8 1.5 1.4-1.1.4-1.7 2.5-8.6 4.6-15.5s3.9-13.8 3.9-15.2.9-4.8 2-7.4 1.8-4.9 1.5-5.2c-.2-.3-3.9 6.6-8.1 15.3M485.6 569.4c-11.3 10.9-17.7 17.8-17.4 18.7.3.8 1.7 4.3 3.2 7.9 1.4 3.6 3.7 10 5.2 14.3 2.4 6.9 2.9 7.6 4.3 6.4.9-.8 5.4-4.5 10.1-8.4 11.6-9.6 13-11.3 21.4-24.8 7.1-11.4 7.3-11.8 5.9-14.6-.8-1.6-2-3.2-2.6-3.6-.7-.4-.6.1.2 1 .8 1 1.1 2 .8 2.3-.7.7-7.8-6.4-7.4-7.5.2-1-4.5-9.1-5.3-9.1-.3 0-8.6 7.9-18.4 17.4M773 556.1c-1.7 2.2-3 4.2-2.9 4.4.7.6 4.5-2.9 5.2-4.8.4-1 1.1-1.5 1.7-1.2.6.4.7 1.1.4 1.7-.4.6-.3.8.2.5.6-.3 1.6-.1 2.4.4 1.3.9 1.3 1 0 .8-2-.4-9.1 4.1-8.4 5.2.3.5-.4.9-1.5.9-1.2 0-2.1.6-2.1 1.4 0 .9-.7 1.2-1.9.9-1.4-.4-2.4.3-3.5 2.6-1.6 2.9-1.5 3.3.5 7.3 4.5 8.9 14 21.8 19.5 26.5 3.1 2.6 8.3 7.2 11.6 10 3.3 2.9 6.5 5.3 7 5.3.7 0 .8-2.6.5-6.8-.5-5.5-.4-6.1.4-3.3.6 1.8 1.2 3.1 1.5 2.9.2-.3 1.5-3.6 2.8-7.4s3.2-9 4.2-11.6l1.9-4.8-9.5-9.6c-5.2-5.2-13.4-13.1-18.1-17.4l-8.6-7.9zM341.9 565.2c.5 1.3 2.3 7.9 4.1 14.8s4.9 19 7 27c2.2 8 4.4 16.3 4.9 18.5 1 3.8 9.6 18.9 26.9 47.4 5.5 9 8.2 12.6 8.2 11 0-3.1-4.6-46.3-5.9-55.1-1-7.4-1.1-7.4-14-24.3-4.6-6.1-13.5-17.9-19.8-26.3-6.3-8.3-11.6-15.2-11.8-15.2-.3 0-.1 1 .4 2.2M915.6 592.9c-12.4 16.6-22.6 30.9-22.6 31.9 0 .9-.4 5.3-.9 9.7-2.4 20.4-5.2 49.8-4.9 50.7.2.6 2.7-2.7 5.5-7.3s10.3-17 16.6-27.6l11.6-19.2 4.5-16.8c2.5-9.2 6.5-24.4 9-33.7 2.5-9.4 4.4-17.2 4.2-17.4s-10.6 13.2-23 29.7M605 571.8c-.8.4-1.6 1.6-1.8 2.7-.1 1.1-.7 4.9-1.2 8.5-1.8 12.7-2.2 12 8.3 18.4 5.1 3.1 9.9 5.6 10.5 5.6.9 0 1.3-4 1.4-14 .1-7.7.2-15.5.2-17.3.1-3.6 1-3.4-11.4-2.1-4.5.4-6.2.3-5.5-.4.6-.6 2.1-1.2 3.5-1.5l2.5-.4-2.5-.1c-1.4 0-3.2.2-4 .6M654.5 574.8c-2.7 1.6-6.7 3.9-8.7 5.3l-3.8 2.4v12.7c0 7.4.4 12.9 1 13.3.6.3 1 .1 1-.4 0-.6 1.5-1.9 3.4-2.8 1.9-1 5.5-3.3 8.1-5.2 2.6-1.8 4.6-2.7 4.3-2-.2.8-3.3 3.3-6.8 5.6l-6.4 4.3h5.6c9.1 0 8.8.4 8.7-12.9-.1-6.4-.4-14.2-.8-17.3l-.6-5.7zM662.5 573c.2.4.5 7.6.6 16 0 8.4.3 15.9.6 16.6.6 1.5 6.3 2 6.3.5 0-.5-1-1.1-2.2-1.4-1.2-.4-1.9-.9-1.6-1.2.3-.4 2 .1 3.7.9 4 2.1 7.4 2 9.4-.2 1.3-1.5 1.7-3.8 1.6-10.8 0-8.6-1.1-19-2-19.8-.8-.7-16.9-1.4-16.4-.6M310.6 575.4c.4 1.6 1.5 5.4 2.5 8.5 1.7 5 1.8 5.2 1.4 1.6l-.6-4 2 2.5c1.2 1.4 2.1 1.9 2.1 1.2s.5-1 1-.7c1.5 1 1.2 3.5-.5 3.5-.8 0-1.5.7-1.5 1.6 0 .8-.4 1.2-1 .9-1.2-.7-1.2 1.2 0 4 .8 1.8.9 1.8.9.2.1-1 .7-1.7 1.4-1.4 1.1.4 1.2 1.6.2 7.5-.2 1.3.1 3.6.7 5 1 2.3 1.2 2.4 1.6.8.2-1-.2-2.2-.9-2.6-.9-.6-.8-1.2.5-2.6 1.2-1.2 1.7-2.8 1.4-5.1-.2-1.8-.3-3.3-.1-3.3.6 0 3.3 7.4 3.2 8.9q0 1.5-.6.3c-.2-.6-.8-1.2-1.2-1.2-1 0-.5 16.9.6 21.1.9 3.1 5.3 12 12.3 24.4 2.9 5.2 8.2 13.1 7.7 11.5-.2-.8-2.3-8-4.7-16-2.3-8-7.1-23.1-10.7-33.5-3.5-10.5-6.8-20.6-7.3-22.6s-2.1-5.6-3.6-8c-1.4-2.4-2.3-3.6-2-2.7.6 2-.2 4.8-1.4 4.8-.5 0-.8-1.1-.7-2.4.1-1.4-.2-2.5-.7-2.5-.5.1-1.3-.5-1.8-1.3s-.6-.2-.2 1.6M592.5 578.9c-4.3 2.6-8 5.1-8.2 5.7-.2.5 2.1 2 4.9 3.3 2.9 1.3 6.1 3 7.1 3.9.9.8 1.7 1.1 1.7.6s.7-4.7 1.5-9.3c.8-4.7 1.3-8.6 1.2-8.7-.1-.2-3.8 1.8-8.2 4.5M624.6 584.2c-.3 5-.6 11.2-.6 13.7l.1 4.6 6.4 3.2c9.9 5 9.5 5.4 9.5-10v-13.2l-6-3.3c-3.3-1.8-6.5-3-7.2-2.6s-.8.3-.4-.4.3-1.2-.2-1.2-1.2 4.1-1.6 9.2M887.5 585.7c-4.3 4.9-8.3 9.2-8.9 9.8-.6.5-2.6 2.8-4.5 5s-7.3 8.3-12.1 13.5c-4.7 5.2-10.6 11.6-12.9 14.2l-4.3 4.7 3.5 10.3c1.9 5.7 5 16.5 6.8 24.1 1.8 7.5 3.3 13.6 3.5 13.5.4-.5 18.3-32.5 25.5-45.9 5.8-10.6 7-13.7 7.9-20 1.1-8 3.8-37.2 3.5-37.7-.1-.1-3.7 3.7-8 8.5M384.6 585.2c.2 4 .9 10.4 1.4 14.3.5 3.8 1.2 10.1 1.6 13.9.8 7.9 4 14.4 29.7 60.6 4.3 7.7 4 8.1 8.1-9.3 2.1-8.9 5.1-19.7 6.7-24.1l2.9-7.8-3.7-4.2c-19.9-21.7-46.7-50.6-46.9-50.6s-.1 3.3.2 7.2M326.4 592.7c.9 1.8 1.6 4 1.6 5.1 0 1 .6 3.8 1.4 6.3 4.2 12.8 8.6 27.1 10.1 32.2.9 3.1 2.1 5.5 2.6 5.2s.6.1.3.9c-.6 1.5 3.2 16.5 4.5 17.9.6.6 3.7-7.9 8.7-24.1l1.6-5.2-3.9-4.8c-2.2-2.6-9-11.5-15.3-19.7-12.6-16.8-13.9-18.4-11.6-13.8M458.5 601c-6.5 10.2-17.8 27.5-19.9 30.4-1.3 1.8 7.1 13.1 8.7 11.8.7-.5 6.2-4.8 12.2-9.5 6.1-4.7 12.6-9.9 14.5-11.5l3.5-3-4-11.7c-2.2-6.4-4.3-12.2-4.8-12.8-.5-.8-1.5-.3-3.2 1.5-3.1 3.6-3.9 3.5-2-.2.9-1.7 2-3 2.5-3 .6 0 1-.7 1-1.5 0-3.1-1.7-1.2-8.5 9.5M810.3 598.3c-6.3 15.9-7.6 20.6-6.3 22.2 2.1 2.5 29.1 22.6 30 22.3.4-.2 2.4-2.4 4.4-5.1l3.6-4.7-7.1-11.3C820.6 599.3 814.5 590 814 590c-.3 0-2 3.7-3.7 8.3M949.8 597.3c-2.6 3.4-7.2 9.6-10.5 13.8-3.2 4.2-8 10.4-10.7 13.9-4.6 6-4.8 6.6-3.7 9.5 1.6 4.5 1.3 5.3-.8 2.8-1.9-2.2-1.9-2.2-4.5 11.5-5.9 30.3-9.5 49.6-9.3 49.8.1.1 5-7 11-15.8l10.7-15.9-1.4-5.2c-1.8-6.5-3-14.5-1.6-10.7.5 1.4 1.4 4.4 2 6.8 1.2 4.6 2.4 4.8 3.4.5.4-1.6 4.3-14.5 8.8-28.8 11.2-36.3 11.7-37.9 11.4-38.2-.1-.2-2.3 2.5-4.8 6M510.4 595.6c-2.8 1.4-6.8 4.2-8.9 6.4-3.3 3.3-3.6 4.1-2.5 5.5.7.8 1 1.9.6 2.3s-1.3-.1-2.1-1.1c-1.3-1.8-2.8-.9-14.4 9l-3.3 2.8 5.3 7.1c12.5 16.2 17.3 22.3 17.6 22 .2-.2-.1-2.3-.6-4.7-.6-2.4-1-5.8-1-7.4 0-2.8.1-2.8.9-.7.5 1.2 1.5 5.2 2.3 8.9l1.3 6.6 10.4-8.4c5.7-4.6 10.5-8.9 10.7-9.5s-2.7-3.6-6.4-6.7c-9.3-7.6-15.8-13.6-15.2-14.1.3-.3 5.2 3.5 10.9 8.4s10.5 8.8 10.7 8.7c.1-.1-2-7.3-4.8-16-2.7-8.7-4.9-17.1-4.9-18.7 0-3.6-.1-3.6-6.6-.4M763.5 596.3c-.4 1.8-2.9 10.1-5.6 18.6s-4.9 15.6-4.9 15.8c0 .7 3.5-2 10.4-8.1 7.8-7 15.1-12.4 14.5-11-.2.6-6.1 6-13 12.1l-12.7 11 10.9 8.6c6 4.8 11.1 8.7 11.4 8.7s.5-.9.5-2.1c0-2.3 4-12.2 4.7-11.5.2.2-.3 2.8-1.1 5.7-.9 2.9-1.5 5.4-1.3 5.6.4.4 19.9-24.3 21.4-27.2 1.2-2.2.9-2.7-4.7-7.5l-6-5.2v3.1c0 1.7-.5 3.1-1.1 3.1-.7 0-.8-1.1-.4-3.1.5-2.2.2-3.6-1.1-5-1.8-2-4-2.7-2.9-.9.3.5.1 1-.5 1s-.9-.8-.6-1.8c1-2.9-6.5-9-14.8-12.2-2.2-.8-2.5-.6-3.1 2.3M519 597.2c0 1 .5 1.8 1.1 1.8.5 0 .8.4.5.9-.4.5 1.4 7.8 3.7 16.2 4.3 14.9 4.4 15.2 5.5 11.9.5-1.9 1.3-6.2 1.6-9.6.5-5.5.3-6.5-2.3-10.5-4.4-6.8-10-12.8-10.1-10.7M756.4 600.7c-6.8 8.1-7.4 9.3-7.4 15.8 0 3.3.5 7.8 1.1 10 1 3.6 1.2 3.8 2 1.8 1.8-4.7 9.1-31.5 8.7-31.8-.2-.3-2.2 1.6-4.4 4.2M670.1 608.4c-7.3 1.3-7.9 2.1-8 10.3l-.1 5.2 6.6-2.8c6.8-2.9 8-4.3 9.8-11.4.7-3 1.2-3-8.3-1.3M602.2 611.7c1.2 4.5 2.8 7.7 3.4 7 .3-.3-.2-2.2-1-4.2-.9-2.1-1.6-4.3-1.6-4.9.1-2 3 2.7 3 4.8.1 2.9 1.9 4.9 6.2 6.9 6.7 3.2 7.4 2.7 8.1-6 .3-4.5.2-5-1.2-4.3-4.8 2.7-8.1 4-8.1 3.2 0-.5 1.7-1.7 3.8-2.7l3.7-1.9-5-.7c-2.7-.4-6.7-.8-8.7-.8l-3.6-.1zM637.3 612.8c-.7.4-3.8.7-6.9.7l-5.6-.1.7 3.4c1.2 6.3 2.4 8.1 7.7 11.1 2.9 1.7 5.5 3.1 5.9 3.1.3 0 .5-1.6.5-3.5v-3.6l-5 .5c-3.5.4-4.5.3-3.1-.3 1.1-.5 3.2-1 4.8-1 1.5-.1 2.7-.4 2.8-.9 0-.4.2-2.2.3-4 .2-1.8 0-3.5-.5-3.8s-.7-1-.4-1.5c.7-1.1.4-1.1-1.2-.1M964.1 613.8c-2.1 3.9-7 18.8-10 30.7-4.8 18.2-12.1 48.9-11.7 49.2.1.2 2.9-5.1 6.1-11.8 5.7-12 11.3-31.3 9.4-32.5-1.2-.7-1.1-7.4 0-7.4.5 0 .7.8.4 1.9-.3 1 0 2.1.5 2.5.5.3 1.3-1.1 1.7-3.1.4-2.1.2-3.9-.3-4.2-1.5-.9-2.5-5.8-1.8-7.8.6-1.4.9-1.5 1.6-.4.6 1 1 0 1.5-3.2.4-2.6.7-4.9.6-5.2 0-.2.9-2.6 2-5.1 2-4.7 2-7.3 0-3.6M642.1 623.8l.1 10.3 8.1-.6c4.5-.3 8.4-.8 8.6-1.1 1.1-1.1.7-5.6-.4-6.1-.7-.2-4.3 1-8 2.6-7.6 3.5-7.5 3.4-7.5 2.2 0-.5 1.3-1.4 2.9-2 3.6-1.6 8.3-6.5 11-11.6 1.2-2.2 2.1-3.2 2.1-2.3 0 1-.9 3.3-2 5.3l-2 3.5h2.5c2.4 0 2.5-.3 2.5-5.5v-5.6l-9 .3-9.1.3zM531.9 626.4c-.9 3.9-1.1 6.2-.4 6 4.2-1.3 7.8-1.1 9.6.7 2.6 2.6 2.4 3-.7 1.9-3-1.2-8.4-1.3-8.4-.3s7.2 5.8 21 14c9.3 5.6 10.5 6.1 10.8 4.3.2-1.1 0-2.6-.5-3.3-.8-1.5-7.9-7.4-17.5-14.6-3.2-2.4-5.8-4.7-5.8-5.2 0-1.1-5.3-9.9-6-9.9-.3 0-1.3 2.9-2.1 6.4M472.9 625.8c-2.5 2-9.2 7.2-14.7 11.5L448 645l7.2 6.8c4 3.7 9.8 9.1 12.9 12l5.6 5.2 1.2-13.7c2.3-26 2.8-32.8 2.6-33 0-.1-2.2 1.4-4.6 3.5M479 625c0 1.4-.5 7.2-1.1 13-2 21.7-2.7 31.5-2.3 32.2.3.4 3.1-.9 6.2-2.9 17-10.8 21.1-13.8 20.3-14.8-5.3-6.6-20.1-25.8-21.4-27.6l-1.6-2.4zM797.9 626.8c-1.5 2-6.8 8.9-11.8 15.2-7.1 9-8.8 11.7-7.8 12.7 1.8 1.8 24.6 15.3 25.7 15.3.7 0 .9-2.4.6-6.3-1.3-15.7-2.9-33.5-3.5-36.9l-.6-3.7zM803.5 632.1c1.1 17.6 2.7 35.4 3.1 35.8s15.6-13.4 21.6-19.6l3.8-3.8-12.7-9.5c-7-5.2-13.6-10.1-14.6-10.9-1.8-1.3-1.8-1-1.2 8M389.6 630.2c.2 1.3 1.1 9.5 1.9 18.3s2.2 21.4 3 28 1.5 12.1 1.5 12.2c0 .2.7.3 1.5.3 1.2 0 1.3.4.3 1.9-.9 1.6-.1 4 5 15.2l6 13.4 4.1.3c4.7.4 4.2 1.9 6.6-20.6l1.6-14.2-3.9-7.3c-2.1-3.9-7.4-13.5-11.6-21.2-4.3-7.7-9.6-17.3-11.8-21.3-2.2-3.9-4.1-7.2-4.2-7.2-.2 0-.2 1 0 2.2M885.5 636.7c-2.7 4.8-8 14.4-12 21.3s-8.6 15.2-10.4 18.5c-3 5.8-3 6-1.1 6.7 2.9 1.1 2.4 2.1-.6 1.4-2.6-.7-2.7-.6-2.1 3.1.3 2.1 1.2 10.2 1.8 18l1.3 14.3h8.6l4.1-8.8c8.4-17.6 9-19.4 7.1-21-1.6-1.2-1.6-1.3 0-.9 1.2.4 1.7-.2 2.2-2.6 1.2-6.9 6.5-58.1 6.1-58.5-.1-.2-2.4 3.7-5 8.5M728 640c-7.8 5.9-10.7 8.6-11.4 10.9-.5 1.7-.7 3.4-.4 3.6 1.1 1.1 32.1-18.2 31.3-19.5-.3-.4-1.7-1-3.2-1.2-1.6-.3-3.5-.8-4.3-1.1-.9-.3-5.6 2.6-12 7.3M435.1 634.3c.4.5-.2 3.2-1.2 6-2.3 6-10.1 36.8-9.5 37.4.5.5 17.8-27.4 18.9-30.4.7-1.7.1-3.3-2.1-6.6-1.7-2.4-3.9-4.9-4.9-5.7s-1.5-1.1-1.2-.7M943.7 650.8l-9.8 16.7.5 6.5c1.4 14.8 3 26 3.6 25.3.4-.4 1.7-4.6 2.9-9.3 3.9-15.7 13-55.4 12.8-55.6-.1-.1-4.6 7.3-10 16.4M355.1 642c-1.2 4.1-2.8 9.3-3.6 11.5-.7 2.2-1.9 5.9-2.5 8.3l-1.1 4.2 11.2 16.8c6.1 9.2 10.9 15.6 10.6 14.2s-2.9-15.1-5.7-30.5c-2.7-15.4-5.4-28.9-5.9-30-.7-1.6-1.3-.5-3 5.5M840.6 638.1c-2.7 3.2-4 6.7-3.4 9.1.4 1.6 18.1 30.8 18.5 30.4 1-1-10.9-42.6-12.2-42.6-.2 0-1.5 1.4-2.9 3.1M323 637.9c0 2-.3 2.2-1.2 1.3-1.8-1.8-3-1.4-2 .5.5 1 1.2 4.9 1.6 8.8 1.1 11.3 3.5 19.2 9.4 31.8 3 6.4 5.7 11.5 6 11.3.2-.3-1-6.2-2.7-13.3-1.7-7-4.2-17.3-5.6-22.8-1.3-5.5-2.7-11.6-3.1-13.5-.9-4.9-2.3-7.3-2.4-4.1M327 637.3c0 2.6 13.3 59.2 14.7 62.7.4 1 .9.3 1.3-2 .7-3.3.7-3.2.9 1.5.1 4 1.1 6.6 4.7 12.7 3.2 5.6 5 7.8 6.4 7.8 2.5 0 2.5.2-.4-12.7-1.4-6-3.5-15.5-4.7-21.3-2.3-10.5-2.3-10.5-3.2-6.3-.4 2.4-1.2 4.3-1.8 4.3-.5 0-.6-1.1-.2-2.7.5-1.6.8-5.7.8-9.3-.1-6.3-.3-6.8-8.4-20.5-9.2-15.5-10.1-16.7-10.1-14.2M518 644.6c-5.8 4.7-10.6 8.9-10.8 9.3-.4 1.1 13.3 9.1 22.3 13.1 3.9 1.7 8.4 3.7 10 4.5 4.3 1.9 11.8 4.5 13.3 4.5 1.4 0 1.5-.9.2-3-.8-1.2-1.3-1.3-3-.2-2.4 1.5-2.6.5-.4-1.9 1.4-1.6 1.3-2.2-2.5-7.9-2.3-3.4-4.1-6.3-4.1-6.5 0-.7-13.2-20-13.8-20.2-.4-.1-5.4 3.6-11.2 8.3M744.7 645.3c-3.5 5-8.6 12.5-11.3 16.6l-4.8 7.3 2.2 1.8c3 2.5 2.8 3.4-.4 1.4-2.2-1.5-2.7-1.5-3.5-.3-1.4 2.2-1.1 3.9.8 3.9 2.1 0 25.2-9.3 30.7-12.4 7.8-4.4 14.6-8.8 14.5-9.4 0-.4-4.9-4.6-10.9-9.4l-10.9-8.8zM361 638.2c0 1 10 57.1 10.6 59.5.5 1.9 1.1 2.2 2.8 1.7 4.2-1.3 18.6-8.3 18.6-9.1 0-.4-.9-1.9-2-3.3s-2-2.8-2-3.2c0-1.3-28-46.8-28-45.6M534 639.4c0 .2 2.6 4.3 5.8 9.2s7.1 11.3 8.7 14.1c2.6 4.9 4.5 6.7 4.5 4.3 0-.6.6-1 1.4-1s2.8-1.6 4.6-3.6c1.7-2 3.3-3.4 3.6-3.1.3.2-1.6 2.6-4.1 5.2-4.5 4.8-4.8 6-2.6 10.3.9 1.7 8.3-15.1 7.5-17.2-.3-.8-1.3-1.7-2.2-2.1-2.1-.8-14.9-8.4-21.9-13-2.9-1.9-5.3-3.3-5.3-3.1M740.5 642.7c-2.7 1.9-9.2 5.9-14.2 9-5.1 3-9.3 5.7-9.3 6 0 .2 1.2 2 2.6 3.9 3.1 4.1 2.3 4.5-1.2.6l-2.5-2.7 1.7 4c.9 2.2 2.3 5.7 3.2 7.7 1.8 4.5 2.5 4.7 4 1.3 1.5-3.2 1.5-3-.4-5-.9-.9-1.4-1.8-1.1-2.1.2-.3 1.3.3 2.2 1.3 2.1 2 .5 3.8 13-15 4.6-7 8.1-12.7 7.7-12.6s-2.9 1.7-5.7 3.6M910.7 651.8c-4.2 7-10.1 16.5-13 21.2s-6.5 10.6-8 13.2l-2.8 4.8 10.1 4.8c5.6 2.7 10.3 4.6 10.5 4.2.9-1.5 11.7-58.9 11.3-60.1-.2-.4-3.8 4.9-8.1 11.9M446 647.7c0 2.6 10.2 37 11.9 40 .4.9 2.9-1.1 7.1-5.9 3.6-3.9 7-7.9 7.7-8.8 1.1-1.5-.4-3.2-11.2-13-12.3-11.3-15.5-13.8-15.5-12.3M819.7 658.7c-7 6.4-12.7 12.2-12.5 13 .3 1.4 12.9 16.1 13.9 16.2 1.2.2 3.7-6.2 7.8-19.7 4.4-14.4 5.9-21.2 4.5-21.2-.5 0-6.7 5.3-13.7 11.7M440.5 656.1c-2.2 3.5-6.8 10.8-10.3 16.3-3.4 5.4-6.2 10.4-6 11.2.3 1.5 20.6 20.4 21.9 20.4.5 0 2.9-2.8 5.5-6.3 3.8-5.2 4.5-6.7 4-9.5-.4-2.8-4.3-16.3-10-34.6l-1.2-4zM835 651.5c0 1.2-2.7 10.4-6 20.5l-5.9 18.5 3.5 5c6.5 9.4 6 9 8.6 7.3 1.3-.9 6.7-5.7 12-10.7l9.7-9.2-8.9-14.2c-4.9-7.8-9.8-15.3-10.9-16.7-1.9-2.3-2-2.4-2.1-.5M592.7 662.7c-3 3.8-5.3 7-5.1 7.2s2.4.7 4.8 1.1c3.3.5 4.3.3 3.9-.6-.3-.8.2-1.1 1.6-.7 1.1.3 1.8.9 1.6 1.4-.6.8 5.3 4.4 6.1 3.7.4-.5-2.4-14.7-3.2-16-.3-.4-1.4-1.2-2.4-1.8-1.6-.9-2.7 0-7.3 5.7M489.2 664.7l-12.4 7.7 4.3 3.5c2.4 2 7.2 6.2 10.8 9.3 3.6 3.2 6.6 5.6 6.8 5.4s1.3-6.6 2.3-14.2c1.1-7.6 2.3-15.1 2.6-16.7.4-1.9.2-2.7-.8-2.7-.7.1-6.8 3.5-13.6 7.7M505.6 659.2c-1.1 5.5-4.7 31-4.4 31.3.2.2 5.9-1.9 12.8-4.6 6.8-2.7 15.1-5.7 18.4-6.5 3.3-.9 7.2-2.1 8.5-2.9 2.3-1.2 2.4-1.3.5-2.3-1-.5-5.3-2.3-9.4-4-4.1-1.6-11.5-5.3-16.3-8.1-4.9-2.8-9-5.1-9.3-5.1-.2 0-.6 1-.8 2.2M678.8 658.2c-1.4 1.2-5.3 15.6-4.5 16.5.8.7 6.7-1.9 6.1-2.8-.3-.5.2-.6 1-.3 1 .4 1.6.1 1.6-.7 0-1.1.3-1.1 1 .1.5.8 1 1 1 .5 0-.6 1.7-.9 4-.7 2.2.2 4 .1 4-.3 0-.9-3.8-6.3-6.7-9.5-1.3-1.4-2.3-2.8-2.3-3.2 0-1.2-3.5-.9-5.2.4M764.5 662.2c-5 2.8-12.8 6.7-17.5 8.5-9.5 3.9-11.1 5-9.2 6.2 1.1.7 1 .9-.3 1.4-.9.4-1.8.1-2.1-.7-.5-1.4-5-1-6 .5-.3.5-1.6.9-3 .9-3.4 0-3 1 2.2 5 2.6 1.9 5.2 4.1 6 4.8 2.3 2.2 1.6 7.8-1.6 14.2l-3 5.9 5.8 1.1c3.1.6 7 1.3 8.5 1.6 2.3.5 5.2-.8 14.8-6.8 6.6-4 13.5-8.2 15.4-9.3s3.5-2.3 3.5-2.6c0-.8-18.8-8.2-28-11-9-2.8-11.6-4.1-6.7-3.4 4.7.7 15.8 4.4 25.7 8.4 9.4 3.9 10.4 3.9 9.7.3-.3-1.5-1.3-8.5-2.3-15.7-.9-7.2-2-13.3-2.4-13.7-.3-.5-4.6 1.5-9.5 4.4M777.7 666.2c.7 5.1 1.6 12.1 1.9 15.5l.7 6.2 4.6-3.6 4.6-3.7-4.2 4.5c-4.6 4.8-5.6 6.9-2.1 4.5 5-3.6 17.8-15.8 17.3-16.7-.4-.5.2-.6 1.2-.2 3.7 1.3-.4-1.6-12.1-8.6-6.6-3.9-12.3-7.1-12.6-7.1-.4 0-.1 4.2.7 9.2M564 663.5c-1.1 2.5-2.9 6.5-4 9-1 2.5-1.8 4.5-1.7 4.5 1.8-.2 22.9-5.9 23.4-6.4.8-.7 1.4-.2-8-6.5l-7.7-5.2zM705.7 664.6c-4.3 3.1-7.6 5.8-7.3 6.1s5.5 1.7 11.6 3.2c12.7 3.2 12.1 3.9 6.6-8.2l-3.1-6.8zM349.4 674c.3 1.4 1 5.2 1.6 8.5.7 3.3 2.4 11.4 4 18 1.5 6.6 3.1 13.7 3.4 15.8.7 3.6.9 3.8 3.9 3.5 2.9-.3 3.4-.8 5.4-6.3 1.2-3.3 2.2-7.1 2.2-8.5.1-1.7-3.5-7.9-9.9-17.5-11.5-17-11.3-16.8-10.6-13.5M581.3 673.3c-1.3.5-2.3 1.6-2.3 2.4 0 .7-.5 1.3-1.1 1.3-.5 0-.7-.5-.4-1 .8-1.4-1.2-1.3-9.2.5-11.8 2.7-11.2 1.7-15.2 25.4l-.9 5.3 5.2-.7c8.9-1.1 20.8-4.3 21.7-5.7.5-.7.7-2.4.5-3.8-.3-1.4-.7-6.1-1-10.5-.3-6.2-.3-7 .4-3.5.5 2.5.9 6.3 1 8.5s.3 3.5.6 3c.4-1 3.3-21.9 3-22.1 0-.1-1.1.3-2.3.9M585.6 673.9c-.2.9-.9 5.6-1.5 10.6-.7 4.9-1.3 10.5-1.6 12.2-.2 1.8-.2 3.3 0 3.3s2.7-3.7 5.4-8.2c2.8-4.5 5.1-7.9 5.1-7.5 0 1.2-6.2 13.1-7.8 15-.8.9-1.3 1.9-1.1 2.1.9 1 25.3 6.4 26.2 5.9 1.4-.8 0-12.3-2.6-22.2-2.1-8.2-2.3-8.5-5.6-9.4-2.5-.6-3.6-.5-4.2.5-.7 1-.9.9-.9-.4 0-1.8-1.5-2.3-7.7-3.1-2.4-.2-3.4.1-3.7 1.2M691 672.8c-2.7.4-16.1 4-16.6 4.4-.2.3-2.3 9.3-4.4 19.2-.4 2.1-.5 5.6-.3 7.7.5 3.5.8 3.9 2.7 3.3 1.1-.4 6.9-1.9 12.7-3.3l10.8-2.6-2-2.5c-3-3.8-4.4-6.4-2.9-5.5.9.5 1 .1.5-1.6-.5-1.8-.1-1.6 1.7 1 1.2 1.9 2.3 4.1 2.4 4.9.5 3.3 1.4 2.2 1.4-1.9 0-4.4-2.5-22.9-3.2-23.3-.1-.1-1.4 0-2.8.2M697.6 682.7c.7 5.4 1.4 10.2 1.4 10.8.1.5.5.1 1-1 .9-2 .9-2 .9 0 .1 1.2-.4 2.6-.9 3.1-2.2 2.2.6 6 5.2 7.3 7.2 1.9 22.1 5.2 22.3 4.9.4-.6-3.5-21.6-4.7-25.2l-1.3-4-10-2.1c-5.5-1.2-11.2-2.5-12.6-2.9l-2.6-.7zM796.9 679.7c-4.1 3.7-8.9 8-10.7 9.5s-3.1 3.2-2.7 3.7c.3.6 4.2 3.6 8.6 6.8 4.5 3.2 8.9 6.4 9.8 7.1 1.5 1.1 2.8.2 9.9-7 4.5-4.5 8.2-8.5 8.2-9 0-.9-8.9-11.5-12.7-15.1l-3-2.8zM920 688c-9.2 13.7-10.1 15.6-9.6 18.6.7 3.5-.1 8.4-1.4 8.4-.4 0-.6-1.2-.3-2.7.3-2.3.2-2.5-.5-.8-.5 1.1-1.2 3.5-1.5 5.2-.6 3.2-.6 3.3 2.8 3.3 3.7 0 4.4-1.4 2.5-5.1-.7-1.2-.7-1.9-.1-1.9s1.4 1.5 1.9 3.2c.7 2.8 1.3 3.4 4 3.6 1.8.2 3.2 0 3.2-.5 0-.4.7-3.7 1.5-7.3 5.9-26.8 8.3-38.5 8-38.8-.2-.2-4.9 6.5-10.5 14.8M466.7 682.3l-7.6 8.4 8.7 8.6 8.7 8.7 10.2-7.3c5.6-3.9 10.1-7.7 9.9-8.2-.4-1.6-19.6-18.5-21-18.5-.7 0-4.7 3.8-8.9 8.3M545 676.7c-.8.2-2.4.8-3.5 1.3s-4 1.5-6.5 2.4c-12.2 4-33 12-33 12.5.1.6 9.2 6.6 22.2 14.6l7.8 4.8 8.2-1.7c4.4-.9 8.3-1.8 8.5-2 .3-.2-.7-2.2-2.1-4.5-3-4.7-3.1-5.2-1.2-4.5.8.3 2 1.9 2.6 3.5.7 1.6 1.6 2.9 1.9 2.9 1.1 0 5.3-25.2 4.4-26.1-1.5-1.5-7.8-3.6-9.3-3.2M929.1 690.6c-1.9 8.2-3.9 17.6-4.7 20.9-1.8 7.9-1.7 8.5.5 8.5 1.3 0 3.3-2.4 6.4-7.8 2.5-4.3 4.6-8.4 4.8-9.2.4-2.3-1.2-16-2.5-22l-1.2-5.4zM329.7 688.2c4 15.9 8.4 29.2 10 30.8 1.4 1.3 1.5 1.3 1-.8-.4-1.9-.3-2.1.9-1.1.7.6 1.1 1.5.8 2s0 .9.5.9c1.5 0 1.4-.2-1.3-10.2-1.8-6.5-11.8-28.3-14-30.5-.1-.2.8 3.9 2.1 8.9M945.9 691.2c-5.5 11-9.9 23.1-9.9 27.3 0 .8.9 1.5 2 1.5 2.4 0 2.8-.8 8.1-19 2.2-7.4 4.6-15.4 5.3-17.8.7-2.3 1.2-4.2 1-4.2s-3.1 5.5-6.5 12.2M625.9 685.6c-1.1 1.4-3.7 17.8-3.9 24.4 0 1.5 1.3 3.9 2.9 5.8 3.4 3.7 2.9 4.3-.7.9l-2.4-2.2.4 2.5c.3 2.4.6 2.5 8.6 2.8l8.2.3V684h-5.9c-4.1 0-6.2.5-7.2 1.6M641 702v18l5.3-.1c5.1 0 5.2-.1 8.5-5.1l3.2-5.1-1.5-11.5c-.8-6.3-2-12.1-2.6-12.8-.7-.9-3.3-1.4-7-1.4H641zM422.6 689.2c-.6 3.4-3.6 28.8-3.6 30.1 0 .4 3.2.7 7 .7 6.7 0 7.2-.2 10-3.3s2.9-3.1 2.4-.7c-.4 1.8.1 1.4 1.7-1.5 1.2-2.2 2.8-4.8 3.7-5.8 1.4-1.6 1.3-2-1.9-5.3-1.9-2-6.9-6.7-11.1-10.5l-7.7-7zM845.3 696.2l-11.2 10.1 4.7 6.8 4.7 6.8 8.8.1h8.8l-.6-5.3c-1.1-9.2-3.6-28.2-3.8-28.3-.1-.1-5.2 4.3-11.4 9.8M453 699.1l-5.1 7 2.1 2.6c5.6 7.1 10.2 11.3 12.4 11.3 2.3 0 11.6-8.7 11.6-10.8 0-.6-3.6-4.6-7.9-9l-8-8zM813.3 701l-8.1 8.5 4.4 4.5c2.4 2.5 4.4 4.8 4.4 5.2 0 .5 1.2.8 2.7.8 1.9 0 4.1-1.6 8.4-6.3 3.2-3.4 5.9-6.7 5.9-7.3 0-.8-8.3-13.3-9.2-13.8-.2 0-4 3.7-8.5 8.4M384.1 697c-5.2 2.1-9.8 4.3-10.4 4.9s.6 3.8 3.5 9.3l4.4 8.3 6.7.3 6.7.3-.1-6.3c-.1-3.5-.4-9.5-.8-13.5l-.6-7.2zM885.6 697.6c-.3 2.6-.6 8.7-.6 13.5v8.9h12.8l4.1-7.5c4-7.3 5-10.2 3.1-9-.5.3-.7 0-.4-.9.4-1-.8-2.1-4.3-3.7-2.6-1.1-6.7-3-9-4-2.3-1.1-4.4-1.9-4.6-1.9s-.7 2.1-1.1 4.6M488.2 702.1c-5.6 3.8-10.2 7.2-10.2 7.4s3.1 2.6 6.9 5.4c6.5 4.8 7.2 5.1 13 5.1 5.1 0 6.1-.3 6.1-1.8 0-2-4.7-22.2-5.2-22.8-.3-.2-5 2.8-10.6 6.7M501.5 697.2c.3 1.3 1.4 6.6 2.5 11.8 1.2 5.2 2.2 9.6 2.4 9.7.3.3 15.3-3.9 19.5-5.5 2.3-.8 2-1.1-5-5.7-4.1-2.6-10.2-6.5-13.7-8.7-5.8-3.5-6.2-3.6-5.7-1.6M773 698.5c-3 1.9-9.2 5.6-13.7 8.2s-8.3 5-8.3 5.3c0 .7 22.1 7.3 22.5 6.8.6-.6 5.6-23 5.2-23.4-.1-.2-2.7 1.2-5.7 3.1M780.5 697.2c-.2 1.3-1.4 6.1-2.5 10.7-3 12.4-3.1 12.1 4.1 12.1 5.7 0 6.6-.3 12.5-4.5 3.5-2.5 6.6-4.9 6.9-5.4.4-.8-18.6-15.1-20-15.1-.3 0-.7 1-1 2.2M684 706.1c-15.6 4-14.4 3.3-12.4 7.1l2.4 4.8c.4.8 2.3 1.6 4.2 1.8 3.1.3 4.1-.4 11.1-7.8 4.2-4.5 7.7-8.3 7.7-8.5 0-.7-.2-.6-13 2.6M575.5 704.7c-5 1.1-19.2 4.4-21.2 4.8-2.4.6-3 3.4-1.7 8.2.6 2.2 1.2 2.3 8.9 2.3 6.5 0 8.5-.4 9.7-1.8 2.1-2.3 8-14.2 7.1-14.1-.5.1-1.7.3-2.8.6M584 704.6c0 .3 3 3.9 6.6 8 6.1 6.8 7 7.4 10.5 7.4 3.6 0 3.9-.3 5.9-4.7 1.1-2.6 1.7-5 1.2-5.5-.6-.6-21.7-5.8-23.6-5.8-.3 0-.6.3-.6.6M702.8 707.7c1 2.1 2.8 5.7 4.1 8l2.5 4.3h17.4l.7-4.6c.3-2.5.4-4.8.1-5.1-.5-.5-23.8-6.1-25.8-6.3-.4 0 .1 1.7 1 3.7M543.5 711.6c-2.7.8-6 1.4-7.2 1.4-1.3 0-2.3.4-2.3 1 0 .5.3 1 .8 1 .4 0 1.3 1 2.1 2.2 1.1 1.9.7 1.7-1.7-.6l-3.1-2.9-10.3 3.1-10.3 3 19.3.1 19.2.2v-4.5c0-2.5-.3-4.7-.7-4.9-.5-.2-3 .2-5.8.9M729.6 712.4c-.3 1.1-.6 3.3-.6 4.8v2.8l20.3-.1c11.1-.1 19.3-.3 18.2-.6-1.1-.2-5.9-1.6-10.7-3-7.2-2.1-9-2.4-10.3-1.3-1.2 1-1.5 1-1.5-.3 0-1.1-1.3-1.8-3.7-2.2-2.1-.3-5.5-1-7.5-1.4-3.2-.8-3.7-.6-4.2 1.3"/></svg>