<svg xmlns="http://www.w3.org/2000/svg" width="1706.667" height="960" viewBox="0 0 1280 720"><path d="M0 162.2v162.1l33.3-.9c18.2-.5 57.7-.9 87.6-.9 42.7 0 54.5-.3 54.8-1.3.3-.6 2-1.2 3.9-1.2 2.2 0 3.7-.6 4-1.5.4-.8 1.3-1.5 2.1-1.5s1.2-.4.9-.9c-.6-1 4.1-2.1 9-2.1 3.4 0 4.9-1.9 1.7-2.1-1.5 0-1.5-.2.2-.8 1.1-.5 2.3-.4 2.6 0 .3.5 1.5 0 2.7-1.1 1.1-1.1 2.6-2 3.2-2 .5 0 1-.6 1-1.4s.7-1.6 1.5-2c.8-.3 1.5-1 1.5-1.7 0-.6 3.1-4.2 7-7.9 6.8-6.6 7.7-8.4 7.1-13.6-.1-.7 1.2-1.6 2.7-2.2 2.1-.7 3.1-1.9 3.5-4.1.4-1.7 1.6-4 2.7-5.1s1.8-2 1.5-2-.1-.9.5-2 2.1-2 3.5-2c1.3 0 2.7-.5 3.1-1.1.3-.6 1.5-.9 2.5-.6 1.1.3 1.9 0 1.9-.6 0-1.1 4.2-4.4 9.2-7.3 1.9-1.1 2.8-2.6 7.8-12.3 1.9-3.6 2-4.5.9-5.2s-1.1-.9.2-.9c1.9 0 3.1-5.5 2.9-13.1-.1-5.4 1.5-10.3 3.1-9.3.8.5 1-.8.5-4.2-.3-2.7-.8-15.5-1.1-28.4s-.8-26.9-1.1-31c-.6-9.2.7-26.4 4.7-60 3.7-31.4 6.7-47.8 14-76.8C288.7 7 290 1.4 290 .9S234 0 145 0H0zM312 2.2c-5.4 12.9-9.5 25-8.7 25.5.5.3.5.8-.2 1.2-1.7 1.1-2.3 8.7-1.5 21.1.7 11.4.7 11.5 1.9 7 2.3-8.1 5.8-17 6.7-17 .5 0 .4.9-.2 1.9-.5 1.1-1 3.1-1 4.5s-.4 2.8-1 3.1c-.5.3-1 2.1-1 4s-.4 3.7-1 4c-.5.3-1 1.7-1 3.1s-.7 3.9-1.6 5.5c-.8 1.7-1.3 3.3-1 3.6.6.7 4.8-8.4 11.4-24.7 3.5-8.6 4.7-12.8 4.6-16.5 0-2.8-.2-10.3-.3-16.8L317.9 0h-2.5c-1.6 0-2.8.8-3.4 2.2M325.7 1.7c-2.1 2.4-5.7 11.7-5.7 14.8 0 1.9.4 2.3 1.8 1.9 1-.4 1.3-.3.5.3-1.3.9-1.6 2.5-1.4 6.8l.1 3 2.2-3.5c1.1-1.9 5-8.3 8.4-14.3L337.9 0h-5.3c-3.8 0-5.7.5-6.9 1.7M338.7 2.2C328 19.6 323 29 323.6 30.6c.4 1.4.3 1.6-.4.5-.7-.9-1.2-1-1.6-.2-.6.9.9 43.6 1.7 49.1.2 1.4 8.8-12.3 17.2-27.3l3.8-6.9-.7-16.1C342.8 8.8 341.9 0 340.9 0c-.5 0-1.5 1-2.2 2.2M344.5 7.7c.4 4.3 1.1 7.9 1.6 8.1 1.3.5 1.1 4-.2 4.4-.8.3-.9 3.5-.3 10.8.4 5.8.9 9.9 1.1 9.2.3-.6.8-1 1.3-.7.8.5 16-15.1 22.7-23.2 3.4-4.1 3.5-4.4 2.8-10.3l-.7-6h-29zM384 6.5l-7.5 6.4 1.1 19.7c1 17.1 1.4 19.9 3 21.1 1.7 1.2 1.7 1.3 0 1.3-1.5 0-1.7.7-1.2 4.7.2 2.7.5 10.6.5 17.8.1 7.1.5 13.6 1 14.3.7 1.1 3.7 1 17.2-.3 23.1-2.4 24.4-2.7 24.2-5-2.5-21.6-5.6-44.2-6.3-44.8-.4-.5-7 1.8-14.6 5.1-15.7 6.7-18.9 7.9-18 6.4.3-.6 3.9-2.4 7.9-4 3.9-1.7 11.2-4.9 16.1-7.1 8.8-4.1 8.8-4.1 8.3-7.4-.3-1.7-1.4-10.3-2.3-19L411.7 0h-20.2zM414 2.9c0 1.7.7 8.3 1.5 14.8 2 15.7 2.5 18.6 3 19.1.4.4 26.1-3.6 38.8-6 6.7-1.3 6.5-.1 4-18.4L459.7 0H414zM462.3 3.7c.3 2.1 1.1 8.7 1.8 14.7l1.2 10.9 17.6-.7c9.7-.3 21.4-.9 25.9-1.2l8.4-.7-.6-3.1c-.3-1.7-.8-7.7-1.2-13.4L514.7 0h-53zM517.4 9.7c.4 5.4 1 11.5 1.3 13.5l.6 3.8h26.6c14.6 0 27.6-.3 28.9-.6 2.5-.7 2.7-3.2 1.5-18.2l-.6-8.2h-59zM578.4 10.2c.9 13 1.4 15.5 3.2 16.2.8.3 10.6 1.3 21.7 2.1s23.7 1.8 28 2.1l7.7.7V0h-61.2zM641 15.6v15.7l7.3-.6c3.9-.3 15.5-1.1 25.7-1.7 26.2-1.6 24.8-1.2 25.4-6.3.3-2.3.8-8.4 1.1-13.5l.7-9.2H641zM702.7 6.7c-.4 3.8-.7 9.8-.7 13.4v6.6l27.7.7c15.2.3 28 .3 28.4-.1.9-.9 2.4-10 3.4-20.6l.7-6.7h-58.9zM764 1.7c-.1 1-.7 7-1.4 13.3s-1 11.8-.7 12.2c.4.4 11.9.9 25.6 1l25 .3 1.2-7c.6-3.9 1.5-10.3 1.8-14.3l.7-7.2h-26.1C765.9 0 764 .1 764 1.7M816.5 14.5c-1 8-1.6 14.7-1.3 15 .2.3 8.1 1.6 17.4 3s19.6 2.9 22.9 3.5c3.3.5 6.1 1 6.2 1 .5 0 4.2-30.4 4.3-34.8V0h-47.7zM868 1.2c0 1.6-2.6 24.4-3.5 31.4l-.7 5.1 13.8 6.1c14.8 6.6 24.3 11.1 23.3 11.2-1.2 0-13.6-4.9-25.2-10-6.5-2.9-11.9-5.1-12.1-4.9-.2.4-4.6 31.4-6.2 43.5-.6 4.9-.7 4.9 14.3 6.4 5.4.6 13.6 1.5 18.3 2 4.6.5 8.8.6 9.1.2.4-.4 1.2-10.2 1.8-21.7.7-11.6 1.3-23.3 1.6-26 .2-2.8.7-10.6 1.1-17.5l.6-12.6-7.6-7.2L889 0h-10.5c-7.7 0-10.5.3-10.5 1.2M906.8 6.7c-.3 6 0 7 2.4 10.1 2.4 3 16.1 17.4 22.8 24l2.5 2.4.6-8.8c.4-4.9 1-14.6 1.4-21.7l.7-12.7h-30zM938.7 8.7c-.4 4.8-.9 15.5-1.3 23.8l-.6 15 10.9 18.2L958.6 84l1.3-24.1 1.2-24-3-5.7C952.4 19.2 941.4.6 940.3.3c-.6-.2-1.3 2.8-1.6 8.4M949.7 11.7c3.6 6.5 7.1 12.5 7.8 13.3.6.8 1.6 2.4 2 3.5.6 1.4 1.1-.5 1.8-6.9.8-7.2.7-9-.4-9.8-1.1-.7-1.1-1.1-.1-1.5.7-.3 1.2-2.4 1.2-5.4V0h-18.9zM963.5 17.2l-.6 17.3 5.4 13.5c3 7.4 6.8 16.4 8.5 20l3.1 6.5.1-12.5c.1-6.9.3-15.3.4-18.8.2-3.4 0-6.5-.5-6.8s-.5-1.3 0-2.2c1.4-2.7-11.1-33.6-13.7-34-1.8-.3-2 .6-2.7 17M991 .5c0 .3 2.4 11.4 5.4 24.7 3 13.4 6.1 27.7 7 31.8 2.8 13.6 8.5 66.9 9 83.5.2 7.9-1.5 49.4-2.9 70-.8 11.5-1.7 25.3-2 30.5s-.8 11.4-1 13.7c-.4 3.4 0 4.8 1.9 6.9 2.2 2.7 2.6 2.7 14.3 3 13.2.2 12.6 0 21 8 3 2.8 4.3 4.9 4.5 7.1.1 1.8.6 2.9 1 2.7.4-.3.8 3.6.8 8.5 0 6.2.4 9.1 1.2 9.1.6 0 .3.9-.8 2.1-2.3 2.5-4.6 12.6-3 13.3.7.3.6.5-.1.5-.7.1-1.3.6-1.3 1.2 0 .5.5.7 1 .4.6-.3 1 .1 1 .9 0 1.1.9 1.6 3 1.6s3 .5 3 1.6.5 1.4 1.6 1c1-.4 2.4.2 3.5 1.5 1.5 1.8 3.9 2.3 15.1 3.5 7.3.8 21.4 1.9 31.3 2.5 19.8 1 34.2 2.5 26.8 2.8-4.2.1-4.3.2-4.3 3.6v3.4l12.3.4c11.5.2 11.3.3-4.1.5-12.8.2-16.4.5-16.8 1.6-.5 1.3-7.7 2.5-25.4 4.1-3 .3-9.8.9-15 1.4s-10.5.9-11.7 1c-2.5.1-3.3 3.1-.8 3.1.8 0 1.5.7 1.5 1.5 0 .9.7 1.8 1.5 2.1.8.4 1.5 1.6 1.5 2.8s.3 1.6.8 1c.4-.6 2.3-.9 4.5-.6 2.8.3 3.7.9 3.7 2.3 0 1.6.8 1.9 5.3 2.1 2.8 0 6.4 0 8-.1 1.5-.1 2.7.3 2.7.8 0 .6-.5 1.1-1 1.1-.6 0-1.9.8-3 1.8-2.3 2.2-1.1 4.7 1.9 3.9 1.1-.2 2.8.1 3.8.8 1.7 1.2 1.6 1.5-1 3.9-1.5 1.4-3.9 2.6-5.3 2.6s-2.4.6-2.4 1.4c0 1.6-2.1 2.6-5.5 2.6-1.4 0-2.6.7-3 1.9-.6 1.9-2.8 2.6-11.3 3.7-5.6.7-7.2 1.4-7.2 3.1 0 1.3-.9 1.5-4.7 1-6.4-.7-14.2 1.1-17.4 4-1.4 1.3-3 2.3-3.5 2.3-2.7 0-5.7 6.1-7.4 15-.5 2.5-1.3 6.3-1.8 8.6-.6 3-.5 4.6.5 5.9 1.5 2.2 1.7 5.5.3 5.5-.5 0-1-.7-1-1.5 0-2-1.6-1.9-2.4.1-1.1 2.9-.6 3.5 2.7 3.2 2.6-.2 3.2 0 3.2 1.7 0 1.6-.7 2-3.5 2-3.6 0-3.6 0-2.7 5.9.1.6 1.3 1.9 2.6 3.1 2.5 2.2 2.2 4.5-.5 4.5s-4.4 2.7-4.4 6.9c0 2.6-.5 4.1-1.2 4.1-1 0-1 .2-.1.8s.1 1.9-2.7 4.7c-5 4.9-5.5 6.8-7 24s-3 23.9-7.7 33.2c-3.7 7.5-7.3 12-13.2 16.3-3.8 2.9-3.6 2-10.1 40.5-7.1 42.2-9.1 52.9-11.5 63.5-4.8 20.5-11.2 42.3-17.9 61.4l-4.5 12.6H1280V0h-144.5C1056 0 991 .2 991 .5m165 365.3c0 .7-1.1 2.4-2.5 3.8s-2.5 3.2-2.5 4.1c0 2.4-3 4.2-7 4.3-1.9 0-9.7-.7-17.2-1.7-13.8-1.6-13.8-1.6-13.8-4.2.1-2.5.1-2.5 1.5-.7 1.2 1.6 1.5 1.7 1.5.4 0-1.7 4.5-2.8 12.5-2.8 5.3 0 6.8-.6 7.7-3 .8-2 19.8-2.2 19.8-.2m-35.3 80.6c1.5.8 4 1.7 5.5 2 1.5.4 3.2 1.5 3.8 2.6 1 1.8.7 2-2.7 2.1-2.1.1-4.2.1-4.6 0s-5.8-.3-12-.6c-6.2-.2-12.3-.7-13.7-1-1.4-.4-3.2-.7-4-.8s-1.8-1-2.2-2-1.2-1.5-1.8-1.2c-1.1.7-1.4-1.8-.3-2.8 1.3-1.4 29.1.1 32 1.7m32.8 5.1c2.2.8 4.9 1.5 6 1.5 2.9.1 6.1 2.8 4.9 4-1.9 1.9-10.9 2.3-16 .7-2.7-.8-6.1-1.8-7.6-2.1-3-.7-3.8-3-1.4-3.9.8-.3 2.3-.3 3.4 0 1.1.2 2.3 0 2.6-.6.9-1.5 3.2-1.3 8.1.4m-64.9 1.4c.5.6 3.4 1.1 6.4 1.3 4.1.2 5.5.7 5.5 1.8s-1.3 1.6-5 1.8c-6.7.4-8 .9-6.6 2.5.7.9 2.7 1.2 6.1.9 4.1-.3 5.4-.1 6.4 1.3.7 1 1.8 1.5 2.3 1.2 1.1-.7 2.3 1.4 2.3 3.9 0 1.8-2.7 4.7-5.7 6.3-1.7.9-3.8.9-8.5 0-3.5-.6-6.9-1.1-7.5-1.1-.7-.1-2.7-1.3-4.4-2.7-2.7-2.3-2.9-2.9-2-5.4.6-1.6 1.5-2.6 2-2.3.5.4 1.6-.1 2.4-.9.9-.8 2-1.5 2.6-1.5 1.9 0 1.2-1.8-1.4-3.8-2.7-2.2-3.3-3.4-1.1-2.6.8.3 1.7.1 2.1-.5.8-1.4 2.8-1.4 4.1-.2m117.8 229.8c1.7 5.1 3.3 9.3 3.7 9.3s2.2-4.3 3.9-9.5c2.5-7.6 3.5-9.5 5.1-9.5 1 0 1.9.2 1.9.4s-2.1 6.1-4.6 13c-3.7 10.1-5 12.6-6.5 12.6-1 0-1.9-.2-1.9-.4 0-.3-2-6.2-4.5-13.1-4.3-12.1-4.4-12.6-2.3-12.3 1.8.2 2.7 2 5.2 9.5m29-.5c1.4 1.3 2.8 3.5 3.2 5l.6 2.8h-7.2c-6.8 0-7.1.1-6.8 2.2.4 2.9 5.1 4.7 7.8 3 4.3-2.7 6.9-.6 2.8 2.2-3.6 2.6-8.5 2-11.9-1.3-8.1-8.1 3-21.5 11.5-13.9m20.9-1c3.4 1.8 4.6 4 4.7 8.5 0 8.5-9.4 12.6-15.4 6.7-3.9-4-3.7-10.3.5-13.8 3.3-2.8 6.7-3.3 10.2-1.4M296 14.8c-1.9 5.8-3.6 11.7-3.7 13.2-.6 7-.5 10.2.5 11.2.8.8.6 1.7-.5 3.4-.8 1.3-1.1 2.9-.7 3.6s.7 2.8.5 4.7c-.3 5.8.6 3.2 3.3-8.9 3.8-17.4 4.7-23.8 4.4-31.2l-.3-6.7zM365.6 24.6c-7.1 7.6-8.6 9.8-7.5 10.6s1 .9-.3.4c-1.2-.4-2.9.8-5.4 3.8-2 2.4-3.6 4.7-3.6 5.2.2 1.8 25.9 10.1 27.3 8.7.6-.6-.5-32.3-1.4-37.1-.1-.7-4.2 3.1-9.1 8.4M905.7 23c-.4 3.6-.9 12-1.2 18.7-.5 11.7-.5 12.3 1.4 12.3 2.6 0 13.8-3.5 20.5-6.5l5.7-2.5-3.6-4.5c-2.5-3-4.1-4.2-5.2-3.8-1.2.5-1.5.2-1-.9.4-1.1-2.2-4.5-7.8-10.4l-8.3-8.9zM504 29.7c-15.9.6-37.1 2-37.6 2.5-.4.5.6 10.1 4.1 36.3.9 6.6 1.9 13.9 2.2 16.2.5 3.8.9 4.3 3.7 4.8 3.9.6 46 3.3 46.4 3s-2.2-29.6-4.3-48.6c-.8-7.5-1.5-13.9-1.5-14.2 0-.4-1-.6-2.2-.5-1.3.1-6.1.3-10.8.5M520.4 38.7c.8 11.9 4.4 47.7 5.2 51.5.5 2.3 1.2 2.8 4.7 3.2 6.8.9 45.8 4.6 48.5 4.6h2.4l-.6-10.3c-.3-5.6-1.1-21.1-1.8-34.5L577.7 29h-58zM580 31.2c0 5.2 3 57.5 3.5 62.5.6 4.9.8 5.3 3.2 5.3 1.5 0 13.1.7 26 1.6 12.8.9 24 1.4 24.8 1 1.3-.5 1.5-5.2 1.5-34.1 0-26-.3-33.7-1.2-34-.7-.2-10.5-1.1-21.8-2-11.3-.8-24-1.8-28.2-2.2-7.8-.6-7.8-.6-7.8 1.9M672.5 31c-12.6 1-24.8 2-27 2.2l-4 .4-.3 34.2-.2 34.2h4.7c2.7 0 14-.7 25.3-1.5s21.4-1.5 22.6-1.5c2 0 2.1-.8 3.2-21.3 2.7-48.4 2.7-48.7.6-48.6-1.1.1-12.2 1-24.9 1.9M701.5 30.2c-.2.7-.9 13-1.5 27.3s-1.3 29.3-1.5 33.2L698 98h4.7c2.6 0 8.5-.5 13.2-1 4.7-.6 14.9-1.7 22.5-2.5 7.7-.9 14.1-1.7 14.2-1.8.3-.3 5.1-48.1 5.7-56.8l.3-5.6-13.4-.7c-23-1.1-43.2-.8-43.7.6M760.8 33.1c-1.1 6.5-5.2 58.8-4.7 59.3.3.3 8.6-.1 18.4-.9 30.8-2.6 30.4-2.5 30.9-4.3 1.4-4.9 7.3-54.9 6.5-55.6-.2-.2-11.7-.7-25.5-1.1l-25.1-.7zM440 35.7c-11.3 1.9-20.8 3.8-21.1 4.1-.6.7 5.7 47.2 6.5 47.9.6.6 41.9 2 43.9 1.5 1.5-.4 1.8-1.1 1.3-3.6-.3-1.7-1.5-10.3-2.6-19.1-4.4-36.1-4.1-34.5-5.9-34.4-.9.1-10.8 1.7-22.1 3.6M814.5 33.2c-.3.7-1.6 11.6-3 24.3-1.4 12.6-2.8 25-3.1 27.3l-.7 4.4 17.4-.6c9.6-.3 20-.5 23.1-.6h5.6l1.1-4.8c1.9-8.5 6.5-43.2 5.8-43.8-.4-.4-8.7-1.9-18.4-3.4-28.7-4.4-27.3-4.3-27.8-2.8M315.9 44.8c-1.5 3.7-4.8 11.8-7.4 18-3.5 8.6-4.4 11.6-3.5 12.7.8 1 .7 1.7-.6 2.9-1.4 1.5-1.5 2.6-.5 9.9 1.4 10.1 2 16 2 21.1.1 2.2.4 3.6.8 3.2 1.3-1.2 3.3-8.1 3.3-11.3 0-1.7.4-4.3 1-5.7 1-2.8 3-3.5 3-1.1 0 .8.4 1.5 1 1.5.5 0 .7.7.3 1.6-.3.8-1.2 1.3-1.9 1-1-.4-1.4.4-1.4 2.9 0 1.9-.9 5.7-2 8.5-1.1 2.7-1.6 5-1.2 5 1 0 11.3-25.2 10.6-25.9-.3-.3-1.1.1-1.7.9-1.8 2.3-4 1.8-4.7-1-.9-3.5.5-5.1 3.6-3.9 1.4.5 3 .9 3.6.9 1.1 0 .2-35-1.1-43.7l-.6-4.2zM961.7 57.7c-1.2 28.4-1.2 29 3.3 41 2.2 5.9 4.3 10.9 4.6 11.2.9.9-.7-7-2.1-10.4-.6-1.7-.9-3.8-.6-4.7.5-1.5.8-1.3 1.7 1 1.3 3.2 3.5 13.1 4 18.2.2 2 .7 4.7 1.2 6 .7 1.9 1 1.2 1.5-4.1.4-3.5 1.3-12.5 2.1-19.9.9-7.4 1.3-14.9 1.1-16.6-.4-3.3-14.6-37.4-15.6-37.4-.3 0-.9 7.1-1.2 15.7"/><path d="M983.6 51.5c.9 11.2.8 15.8-.6 15-.6-.4-1 .8-1 2.9 0 2.5.4 3.6 1.5 3.6 1.8 0 1.9 3.1.3 7.6-.9 2.7-.7 5 1.3 14.1 1.3 5.9 2.5 9.9 2.7 8.8s.7-2.9 1.2-4c1.1-2.6 1.9-20.5.8-19.9-.4.3-.8-.2-.8-1.1s.5-1.3 1-1c1.5.9 1.2-.7-3-17.5-3.6-14-3.9-14.8-3.4-8.5M347 47.8c-.5 10.1.3 53.9.9 54.5.9.9 14.7-2.7 24.6-6.4l5.5-2v-8.3c0-4.6-.3-13.1-.7-18.9-.5-9.2-.8-10.7-2.3-10.7s-8.1-2.1-26.7-8.5c-.7-.2-1.3-.1-1.3.3M920.5 51.6C914 54 907.6 56 906.4 56c-2.5 0-2.7 1.8-4 25.6l-.6 12.2 15.7 5.2c8.6 2.9 15.8 5 16 4.9.3-.4.9-46.7.6-53.2 0-2-.4-3.7-.8-3.6-.5 0-6.2 2-12.8 4.5M343.3 51.7c-.4 1-2.2 4.2-4.1 7.2s-6.1 10.1-9.4 15.8c-5.2 9.3-5.7 10.5-4.3 11.9 2.2 2.2 1.9 3.7-.5 2.4-2-1.1-2-.7-2.2 17.7 0 10.3 0 19.5.1 20.3s.3 2.3.4 3.2c.2 2.3.5 2 8.7-8.8 5.8-7.5 7.4-10.2 7.2-12.6-.1-1.7.2-2.7.7-2.3.6.3.7 1.3.4 2.3-.5 1.6-.4 1.6 1.1.1 1-.9 2.2-3.4 2.7-5.5.9-3.9 1.2-53.4.3-53.4-.3 0-.8.8-1.1 1.7M936.7 54.1c-.3 1.1-.6 13.1-.6 26.6-.1 23.6 0 24.7 2.1 27.7 3 4.3 20 25.6 20.4 25.6.2 0 .4-8.5.4-18.9 0-15.5-.3-19.2-1.5-20.5-1.7-1.7-2-3-.5-2.1.6.4 1-.7 1-2.6 0-2.3-2.4-7.3-7.7-16.3-12.9-21.8-13-21.9-13.6-19.5M300.1 84.5c-.1.5-1.4 7.5-3.1 15.5-2.8 14-3.3 19.6-1 10.8 2-7 2.2-7.6 2.7-5.4.3 1 0 3.8-.6 6.3-1.3 4.9-.3 7.3 2.8 7.3 1.4 0 1.4.2.1 1-1.2.7-1.1 1 .5 1.6 1.1.4 2.4.9 2.8 1.2.9.4.7-2.6-1.5-24.3-.9-9.3-2.5-17.5-2.7-14M978.7 104.2c-1 10.1-1.7 19.1-1.7 20.1 0 2.3 2 1.2 2.1-1.1.1-2.2 6.9-8 6.9-6 0 .8-.9 2.3-2 3.3s-2 2.6-2 3.7c0 1-.3 1.8-.7 1.8-.5 0-1.6.7-2.7 1.5-1.8 1.4-1.8 1.6-.1 9.2 2.1 8.9 2.2 9.3 3.6 7.3.8-1.1 1.2-1.2 1.6-.3.9 2.4 2.3 1.3 2.3-1.7 0-1.6-.8-3.7-1.9-4.7-2.1-2.1-3.2-5.6-2.1-7.3.6-.9 1.3-.7 2.9.9 1.5 1.5 2.1 1.7 2.1.7 0-.8.3-2.2.7-3.2.5-1.4.2-1.6-2-1.2-3.5.7-3.5-1-.1-1.8 2.5-.7 2.6-.9 2-5.8-.3-2.8-.8-6-1-7.1-.3-1.1-.5-2.6-.5-3.3-.1-.7-.6-1-1.3-.6s-.8.3-.4-.4c.7-1.2-2.2-20.2-3.4-21.5-.3-.4-1.4 7.5-2.3 17.5M828.8 90.8 808 91l.1 4.3c0 2.3.8 13.3 1.8 24.5 1.3 15.1 2.1 20.6 3.2 21.3 1.2.7 1.2.9-.1.9-1.3.1-1.3.2 0 .9.8.4 7.1.2 14-.5 6.9-.8 16.5-1.8 21.3-2.3s9.1-1.2 9.5-1.5c.6-.7-3.2-46.4-3.9-47-1-.9-6.1-1.1-25.1-.8M412.5 92.2c-3.3.5-11.5 1.5-18.3 2.2s-12.7 1.7-13.1 2.2c-.5.5-1.1 7-1.5 14.4-.5 12.1-.4 13.2.8 10.5l1.4-3 .1 3.7c.1 2.5-.6 4.5-1.9 5.8-1.4 1.4-2 3.3-2 6.5v4.5h40.7l.6-3.8c.4-2 1.1-11.1 1.7-20.2s1.3-18.2 1.6-20.3c.7-4.2.8-4.2-10.1-2.5M425.7 91.7c-.3.4-1 8.4-1.6 17.8-.6 9.3-1.4 19.8-1.7 23.2-.6 6.1-.6 6.1 2.3 6.7 4.9 1.1 23 1.5 20.8.5-1.4-.7-.7-.8 2.5-.4 2.4.3 5 1.1 5.7 1.7.7.5 2.5.7 4 .4 1.8-.4 2.3-.3 1.5.2-1 .7-.5 1.1 1.8 1.6 4.3.8 6 .8 5.8-.2-.2-.8.9-14.8 2.2-27.2.5-4.7 1.2-12.1 1.5-16.5l.6-8-22.5-.3c-12.3-.1-22.7.1-22.9.5M798 91.7c-2.5.1-9.2.7-15 1.2-5.8.6-14.2 1.3-18.7 1.7l-8.3.6v8.7c.1 11.6 2.6 48 3.3 48.8.4.3 8.4-.9 17.9-2.6 9.5-1.8 19.8-3.7 22.8-4.2s6-1.7 6.6-2.5c1-1.2 1.3-1.2 1.8-.2.3.7.4-3.7.1-9.7-.8-17.6-2.6-38.9-3.4-40.4-.9-1.7-1.3-1.8-7.1-1.4M857 94.7c0 2.8 3.5 41.8 4 44 0 .2 9.5.3 21.1.3h21.1l-.6-8.3c-1.8-23.7-3-35.7-3.5-35.7-.3 0-9.1-.9-19.6-2-24.6-2.6-22.5-2.7-22.5 1.7M473.6 94.2c-.7 3.5-3.6 40.8-3.6 45.5s0 4.7 10 6.2c3.6.5 11.2 1.9 17 2.9 13 2.5 23.8 3.7 22.7 2.6-.4-.4-2.6-1.1-5-1.5l-4.2-.6 4.8-.2c2.8 0 4.9-.6 5.2-1.4.6-1.8 2.8-51.7 2.3-52.2-.4-.4-42.2-3.5-47-3.5-1 0-1.9.9-2.2 2.2M317.2 101.7c-1.7 4.3-3.3 8.7-3.7 9.8l-.8 2 1.7-2c1.7-2 1.7-2 1.1.5-.4 1.4-.9 4.2-1.2 6.3-.3 2-.9 4-1.4 4.3-2 1.2-.7 2.4 2.6 2.4h3.6l-.6 6.2c-.4 4.3-.2 5.6.4 4.2 1-2.3 2.7-41.4 1.8-41.4-.3 0-1.9 3.5-3.5 7.7M960.8 102.8c.9 32.4 1.3 37.2 3.3 37.2 2.1 0 2.6 1.6.7 2.2-1.2.4.7 6.1 7.7 22.3l2.5 6-.5-7.9c-.5-8-1.5-11.7-1.5-5.6 0 1.8-.3 3-.7 2.7-.6-.6-1.6-14.6-1.4-20.7 0-1.4 0-3.7.1-5.3 0-1.5.6-3 1.5-3.3.8-.4 1.5-1.2 1.5-1.9 0-2.5-4.5-11-5.9-11-.8 0-1.6-.6-1.9-1.4-.3-1 0-1.2 1.2-.8 2.2.9 2.1.3-1.9-9.3-1.9-4.7-3.5-9-3.5-9.7 0-.6-.3-1.4-.7-1.6-.5-.3-.7 3.4-.5 8.1M525.6 103.2c-.7 8.3-2.6 45.2-2.5 48.3v2l.9-2c.8-1.9.9-1.9.9.1.1 1.7.9 2.3 3.9 2.7 2 .3 9.1 1.7 15.7 3.1 20.9 4.6 32 6.4 32.9 5.6 1.3-1.3-.3-3-2.2-2.3-1.2.5-1.1.1.5-1.3 2.1-1.8 2.3-3.3 3.9-29.7 1-15.2 1.4-28 1.1-28.3-.4-.4-6.8-1.3-14.4-2s-17.8-1.8-22.8-2.3c-4.9-.6-10.9-1.1-13.2-1.1h-4.1zM739 96.6c-.8.3-10.2 1.3-20.8 2.3s-19.5 2.1-19.8 2.4.2 11.9 1 25.9c.9 13.9 1.7 27.5 1.8 30.1.2 6.4 1.2 7 9.3 5.7 7.4-1.2 44.7-8.8 45-9.2.4-.5-1.3-39.5-2.1-49.1l-.7-8.7-6.1.1c-3.3.1-6.8.3-7.6.5M902 97.7c0 1 .7 8.5 1.5 16.8.8 8.2 1.5 16.9 1.5 19.2 0 2.4.7 4.8 1.5 5.7 1.5 1.5 31.6 11.8 32.3 11.1.4-.3-3.1-29.9-4.6-39.5-.8-4.9 1.2-3.9-22.4-12-10.2-3.5-9.8-3.5-9.8-1.3M361 101.7c-7.4 2.5-13.6 4.6-13.8 4.7-.2.3-2.6 20.8-3.7 32.4-.6 5.8-.4 7.2.6 7 .8-.2 1.4.4 1.4 1.2s-.8 1.4-1.7 1.4c-1-.1-1.8.2-1.8.7 0 1.3 1.9 1.1 6.7-.7 2.6-1 4-2.1 3.6-2.8-.5-.8-.2-.7.8.1 2.4 1.9 21.9-5.1 21.9-8 0-.6.7-9.1 1.5-18.7 1.9-22.4 1.9-22-.2-21.9-1 0-7.9 2.1-15.3 4.6M583.5 106.5c-.7 7-2.5 42.5-2.5 51.2 0 6.3.2 7.3 1.8 7.2 1 0 1.2-.3.5-.6-.7-.2-1.3-1.2-1.3-2 0-1.3.4-1.2 1.8.5 1.3 1.4 3.9 2.4 8.1 3.1 3.5.6 6.6 1 7 .9.3-.1 1.3.2 2.1.5s8.3 1.3 16.5 2.2c8.3.9 16.2 1.8 17.6 2 2.6.3 2.6.1 3.3-6.4.3-3.6.6-18.4.6-32.9V106l-2.2-.9c-1.3-.4-8.6-1.2-16.3-1.6s-19-1-25.2-1.4l-11.2-.6zM668 102.8c-11.3.7-22 1.5-23.7 1.8l-3.3.5v25.8c0 14.2.3 28.6.6 31.9 1 9 1.5 9.1 31 5.6 12.9-1.6 23.9-3.1 24.6-3.5.6-.4 1-4 .9-9.5-.1-8.5-1.1-31.3-1.6-35.8-.1-1.1-.3-5.8-.4-10.3l-.1-8.3-3.7.2c-2.1.2-13 .9-24.3 1.6M341.3 112.7c-1.1 1.5-5.5 7.3-9.7 12.8S324 135.7 324 136s1.4 1.1 3 1.8c3.2 1.5 4.3 4.6 1.3 3.5-1-.3-2.4-1.1-3.1-1.6-1.1-.8-1.2-.5-.7 1.6.5 1.7.3 2.7-.4 2.7-.6 0-1.1-.5-1.1-1.1 0-.5-.5-.7-1.1-.3-.7.4-1 2.7-.7 6 .3 3.1.1 5.1-.5 4.7-.5-.3-.8 1.8-.5 5.1.1 3.1 0 5.6-.4 5.6-.5 0-.8 1.1-.8 2.5s.5 2.5 1.1 2.5.8-.9.4-2c-.5-1.4-.2-2 .9-2 .9 0 1.6.7 1.6 1.5 0 2.2-3 6.6-4.1 5.9-.5-.3-.9.3-.9 1.2 0 1.6.2 1.5 2.1-.2 2.5-2.3 6.8-8.1 5.2-7.1-.6.4-1.3-.4-1.6-1.9-.3-1.7-.1-2.2.5-1.6s1.7.8 2.6.5c1.1-.5 1.3-.3.7.8-.5.8.1.6 1.3-.5 1.2-1 1.9-2.3 1.5-2.9-.3-.5-.2-.7.4-.4.9.6 5.8-4.9 5.8-6.6 0-.4.5-.6 1-.5 1.1.3 1.6-2.1 4.5-22.7 1.1-7.7 1.9-15.5 1.8-17.3l-.3-3.4zM936.5 111.2c.2.7 1.1 7.8 2 15.8 2.4 22.2 3 24.7 7.1 29.6 1.9 2.5 4 4.2 4.5 3.9.5-.4.6 0 .4.7-.5 1.3 5.8 8.4 8 9 .5.2 1 .8 1 1.4s.8 1.8 1.8 2.8c1.6 1.7 1.7 1.6 1.7-2.3 0-2.3-.4-4.1-.8-4.1s-.6-1.6-.4-3.5c.6-5-.8-15.6-1.8-13.1-.5 1.5-.8 1.7-1.5.6-.5-.8-.2-1.7.8-2.5 2.2-1.6 2.3-4.9.1-4.1-1.2.4-1.4.1-.9-1.4s.3-1.8-.9-1.4c-2 .8-2.1-1-.1-2.6 1.3-1.1 1.2-1.6-.7-4.4-3-4.2-20-25.6-20.4-25.6-.2 0-.1.6.1 1.2M846.5 142.6c-5.5.7-14.5 1.8-20 2.4-14.4 1.5-14.8 1.6-14.1 4.4.3 1.3.8 6.6 1.2 11.7.3 5.8 1 9.8 1.8 10.4.7.5 1.1 1.6.8 2.4-.4 1.1.2 1.2 2.4.7 1.6-.4 3.6-.8 4.4-.9 8.7-1.4 14.9-3.2 13.4-3.7-1.5-.6-1.4-.8.8-1.2 1.5-.3 2.5-.1 2.2.3-.8 1.4 2.4 1.1 12.9-1.3 5.3-1.2 9.7-2.5 9.7-3s-.4-.6-1-.3c-.5.3-1 .2-1-.4 0-.5.5-1.1 1.1-1.3.9-.3.7-3.1-.5-10.3-1.7-10.1-2.2-11.6-3.4-11.4-.4.1-5.2.8-10.7 1.5M864.4 142.7c-.8.8-1.4 1-1.4.4s-.5-1.1-1.1-1.1-.8.7-.5 1.6c.4.9 1.3 6 2.2 11.3.8 5.2 1.7 9.7 1.9 9.9s4.8.1 10.2-.4c5.4-.4 9.2-.9 8.5-1.1-2.2-.8-.2-2.3 3-2.3 2.7 0 2.9.2 1.7 1.6-1.1 1.4-.3 1.5 8.7.9 5.4-.4 10.4-.8 11-1 1.1-.3-2.9-18.1-4.4-19.7-.4-.4-9.2-.8-19.6-1.1-15.2-.3-19.1-.1-20.2 1M376.9 145.2c-.4 14.3-.4 17-.1 15 .2-1.2.7-2.2 1.2-2.2s1 1 1.2 2.2c.3 2.1.9 2.3 6.5 2.6s6.2.1 5.6-1.4c-.5-1.4-.2-1.6 1.8-1 1.3.3 4.2.9 6.5 1.2 3.5.5 4.4.3 6.7-2 3.1-3 3.8-3.3 3.1-.9-.3 1 1.3-2 3.5-6.5 2.3-4.6 4.1-8.8 4.1-9.3s-8.8-.9-20-.9h-20zM421.7 142.7c-.4.3-.7 1.9-.7 3.5 0 2.4.4 2.8 2.8 2.8 1.9 0 2.3.3 1.3.9-.9.6-1 1.1-.2 1.5.6.4 1.1 2 1.1 3.7 0 2.1.5 2.9 1.8 2.9 1 0 2.2.4 2.8.9 1 1 18.8 3.1 26.2 3.1 4.5 0 4.9-.2 6-3.3 1.5-4.3 1.5-6.4 0-7-.8-.3-.3-.9 1.2-1.5l2.5-.9-3.3-.8c-1.8-.4-3.6-.4-3.9-.1-.4.3-1.2.1-2-.5-1-.9-1.3-.8-1.3.1s-.4.9-1.2.2c-.7-.5-5.1-1.3-9.8-1.7s-8.9-1-9.5-1.3c-1.3-.9-9.5-3.1-11.6-3.2-.9 0-1.9.3-2.2.7M363.2 146.3c-5.2 1.8-9.8 4.1-10.3 5-.6.9-1.7 1.7-2.5 1.7-2.2 0-1.1 2.4 1.2 2.8 1 .2 2.9 1.3 4.1 2.4 1.2 1.2 2.9 1.8 3.7 1.5.9-.4 1.6-.1 1.6.5 0 3.1 10.1-10.3 11.3-15 .3-1.2.4-2.2.4-2.2-.1.1-4.4 1.6-9.5 3.3M907.8 144.6c1.3 3.4 5.4 10.8 7.4 13.6 2.4 3.4 7.9 3.9 10.5.9.9-1.1 3.5-2.7 5.9-3.7s4.4-2.1 4.4-2.5c0-.3-6-2.6-13.2-4.9-7.3-2.3-13.9-4.5-14.6-4.7-.8-.4-1 0-.4 1.3M789 150.5c-9.6 1.9-19.7 3.8-22.4 4.3-7.6 1.5-7.6 1.6-6.9 18.2.4 8.6 1 13.5 1.4 12 .4-1.6.7-1.9.8-.8.1 1 .6 1.8 1.2 1.8s.9.7.6 1.4q-.6 1.5.9.9c.7-.3 1.4-1 1.4-1.7 0-.8.3-.7.8.1.8 1.3 5.2.6 5.2-.8 0-.5-.4-.9-1-.9-1.1 0-1.4-3-.2-3 14.3-.4 18.2-.4 18.5.2.1.4 1.5.4 3.2 0 2.6-.7 2.7-.9 1-1.6-1.9-.8-1.8-.9.5-1.6 1.4-.3 3.2-.2 4.1.3 1.1.7 3 .5 6-.7 4.2-1.5 4.2-1.6.9-1.1-2.5.4-3.1.2-2-.5.8-.5 2.2-1 3.1-1 1.1 0 1.9-1.2 2.3-3.3.5-2.5.9-2.9 1.6-1.7 1.2 1.8 1.2-10.1 0-17.5-.7-4.9-.7-4.9-.9-1.1-.1 3.7-.2 3.9-1.6 2-1.7-2.2-2-5.4-.5-5.4.6 0 1-.5 1-1 0-1.2 2-1.5-19 2.5M469.1 153.1c0 3.1-.4 7-.7 8.6-.4 2.3-.2 3 1 3 .9 0 1.6-.6 1.6-1.2 0-.8 1-1 2.5-.7 1.4.2 2.5 1.1 2.5 1.8 0 .8.6 1.4 1.4 1.4s2.4 1.2 3.5 2.6c1.2 1.6 2.7 2.4 3.6 2.1.8-.4 1.8 0 2.2.7.5.8 3.1 1.7 5.8 2 7.5.9 10 1.3 12.4 2.1 1.2.4 2.1.2 2.1-.4s1.1-1.1 2.5-1.1 2.5-.5 2.5-1c0-.6 1.8-1 4-1h4v-6.1c0-3.3-.4-5.8-.8-5.5-.5.3-2.4-.3-4.3-1.3s-4.7-2.1-6.3-2.5c-2.1-.5-2.6-1-1.7-1.6 1.9-1.1.4-1.5-17.4-4.5-16.7-2.8-18.9-3-16.3-1.5 1 .6 1.4 1.8 1.1 3-.8 3-3.7 2-4.4-1.5-.5-2.3-.7-1.7-.8 2.6"/><path d="M934 157.2c-1.1 1-3.1 1.8-4.5 1.8s-2.5.4-2.5.9c0 1.1-3.9 2.6-5.7 2.3-2.4-.5-1.3.7 2 2.2 3.9 1.8 18.7 7.6 19.3 7.6.2 0 .4-1.1.4-2.5s-.4-2.5-1-2.5c-.5 0-1 .4-1 .8 0 1.4-4.8 1.2-6-.3-1-1.2-.9-1.6.4-2.1.9-.4 2-.4 2.3 0 1.2 1.1 3.3-1.6 3.3-4.3 0-2-.2-2.3-1-1.1-.7 1.1-.8.7-.4-1.5.5-2.6.3-3.1-1.6-3.1-1.1 0-2.9.8-4 1.8M750 158.1c-11.5 2.1-15 3.1-14.4 4.1.5.7.1.7-1.1.1-1.2-.7-5.6-.2-14.9 1.7-7.2 1.5-14.1 3-15.3 3.4-2.3.7-2.3.8-2.1 19.4.1 15.1.3 17 .8 9.7.3-5 .7-8 .8-6.8.1 1.3.6 2.3 1.2 2.3.5 0 1.3 1.8 1.6 4 .6 3.4 1 4 3 4 1.3 0 2.4.4 2.4 1 0 .5 1.3 1 2.9 1 1.7 0 3.2.4 3.6.9 1 1.7 8.9-1.3 9.4-3.4.2-1.1 1-2.4 1.8-2.9 1.1-.6 1.3-1.7.8-4.3-.7-4 .7-6.3 4-6.3 2.1 0 2.4.6 3 6.2.8 7.2 1.4 8.6 2.6 6.7.6-1 .9-1.1.9-.2 0 1.7 3 1.6 5.4-.2 2-1.5 2-1.5 0-1.6-1.4 0-1.5-.2-.4-.6.8-.4 2.3-1.5 3.2-2.5 1.1-1.3 2.4-1.8 3.6-1.4 1.8.6 2 .2 1.7-4.6-.2-2.9-.1-4.3.2-3.1.9 4.4 2.3 2.2 2.3-3.5 0-8.8-1.2-24.2-1.9-24.1-.3.1-2.6.5-5.1 1M530.3 159.4c-1.8.8-2.3 2-2.4 5.1-.1 2.2 0 4.4.1 5 .2.5.6 3.1 1 5.7.3 2.6.9 5.1 1.3 5.4.3.3 3.5.9 7.1 1.1 3.6.3 6.6 1 6.6 1.4 0 .5 3.6.9 8 .9 7.3 0 8 .2 8 2s.7 2 5.4 2c3 0 6.1.3 7 .6 1.1.4 1.6 0 1.6-1.2 0-1.6-.2-1.7-1-.4-.7 1.1-1 .8-.9-1.5 0-1.7.3-2.4.6-1.7.8 2.1 2.3.3 2.5-3.1.1-1.8.4.2.8 4.3.6 7 .7 6.6.8-4.8.1-7.6-.2-12.2-.8-12.2-.5 0-1.3 0-1.6.1-.4 0-1-.3-1.3-.8s-5.5-2-11.6-3.2c-6-1.3-13.9-2.9-17.5-3.7-3.6-.7-7.8-1.1-9.4-.8-1.9.4-2.6.3-2.2-.5.4-.6.6-1 .4-1-.2.1-1.3.6-2.5 1.3M943 158.5c0 .3.7 3.8 1.6 7.8 1.2 5.3 2.4 8 4.7 10.4 1.7 1.8 3.6 3.3 4.1 3.3.6-.1.1-.9-1.1-1.9-2.7-2.2-3-4.1-.7-4.1.8 0 1.2.5.9 1.1-.4.6-.1 1.6.7 2.2 2.4 2.1 7.4 8.2 5.6 6.8-1.2-.9-1.8-.9-1.8-.3s.9 1.6 2 2.2c1.7.9 2 .8 2-1 0-1.2.4-1.9.9-1.6s1.1 0 1.4-.8c.4-.9-.2-1.2-1.9-1-1.3.1-2.2-.1-1.9-.6s-.7-1.8-2.1-2.9c-1.5-1.2-2.4-2.4-2-2.8.3-.3 1.7.4 3.1 1.7s2.7 2.1 2.9 1.9c.8-.8-13.8-16.9-15.4-16.9-.5 0-1-.6-1-1.4s-.4-1.8-1-2.1c-.5-.3-1-.3-1 0M583 169c0 .5.7 1.5 1.5 2.4.8.8 1.5 1.8 1.5 2.1 0 .4-.7.5-1.5.1-1.3-.4-1.5.8-1.3 8.2.1 6 .3 7.1.5 3.4.3-4.4.7-5.2 2.4-5.2 1.5 0 1.9.7 2 3.7l.2 3.8.7-4 .7-4 .2 3.7c.1 2.5.6 3.8 1.9 4.2 2 .7 4.8 4.6 3.2 4.6-.5 0-1 .7-1 1.5q0 1.5 3 1.5c3.3 0 4.3-2.6 1.3-3.2-1-.3-.1-.6 1.9-.9 4.8-.6 7.8.5 7.8 3.1 0 1.7.7 2 4.3 2.1 6 .2 10 1.2 10.5 2.6.2.9-.8 1.3-3.2 1.3-5.1 0-4.8 2.6.3 3.5 2.2.4 4.2 1.3 4.5 2.1.4.9 2.1 1.4 5.5 1.4h5l.4-3.8.4-3.7.1 3.6c.1 2.2.8 3.9 1.7 4.3 1.3.5 1.5-1.5 1.3-14.7-.1-8.4-.3-12.8-.5-10-.3 3.8-.8 5.3-1.9 5.3-.9 0-1.4-1.1-1.4-3.3 0-3.7-.8-5.1-3.3-6-1.2-.5-1.6-1.3-1.3-2.5.5-1.6-.4-1.9-8.1-3.1-4.9-.6-9.8-1.5-11.1-1.8-1.5-.4-2.2-.1-2 .7.2.9-.8 1.3-2.7 1.4-2 0-3-.5-3-1.4 0-1.5-2.3-2-15.2-3.3-2.9-.4-5.3-.2-5.3.3M690 169c-3 .4-9.5 1.3-14.5 1.9-4.9.6-10.3 1.3-12 1.5-1.6.2-5.8.7-9.3 1.1-7.7.9-10.5 2.9-10.9 7.9-.1 2 .2 3.4.7 3.1.4-.3 1.1 2.5 1.3 6.2.5 7.3 2 16 2.9 16.9.8.7 19.8 1.3 22.6.7 1.5-.4 2.2-1.2 2.2-2.9 0-1.3.4-2.4.9-2.4s1.2-.8 1.4-1.8c.4-1.6.5-1.6.6 0 .1 2.2 1.9 2.4 2.7.3s2.1-1.9 2.9.5c.6 2 4.5 2.9 4.5.9 0-.5.5-.7 1-.4.6.3 1 1.6 1 2.8s.7 3.1 1.5 4.1 1.2 2.3.8 2.9c-.3.6-.1.7.5.3.7-.4 1.2-.2 1.2.3 0 .6.5 1.1 1 1.1.6 0 1-1.1 1-2.4 0-1.4.5-2.8 1-3.1.6-.3 1-4.4 1-9 0-13.1 1.4-13.4 2.1-.5.5 10.4.5 9.8.7-7.3.2-18.5.2-18.9-2-20.8-1.5-1.2-1.7-1.7-.7-1.3 1 .3 2 .1 2.4-.5.7-1.2-.1-1.2-8.5-.1M852 171c0 .5 1.4.7 3.3.3l3.2-.6-2.9 3.1c-1.6 1.7-3.3 2.9-3.9 2.5-.5-.3-.4-.9.4-1.3 1-.6.9-1.2-.3-2.4-1.4-1.4-2.5-1.3-11.4.6-9.3 1.9-14.7 3.7-11.6 3.8.7 0 1 .4.7 1-.3.5.2 1 1.2 1s3.1.7 4.7 1.5c1.5.8 3.5 1.5 4.2 1.5.8 0 1.4.4 1.4 1 0 .5-.5 1-1.2 1-.6 0-.9.2-.6.5.8.9 5.8-1.7 5.2-2.6-.3-.5.3-.6 1.2-.2 1.1.4 1.5.3 1.1-.4-.5-.7 0-.9 1.2-.6 1.3.3 3.2-.9 6.2-4.2 2.4-2.6 4.6-5.1 4.7-5.6.2-.5-1.2-.9-3.2-.9s-3.6.4-3.6 1M12.4 344.1c-1 .4-4.3.8-7.1.8L0 345v13h4.8c2.7 0 7.3-.4 10.3-1 3-.5 8.3-1.1 11.8-1.3 3.6-.3 6.7-1 7.1-1.7.5-.8 2.4-1.2 4.9-1 3.9.2 7.4.2 20.1.1h13.5c12.3.2 20.6-.7 21.6-2.2.8-1.2 1.1-1.1 1.9.1.6 1 1 1.1 1 .2 0-.7 1.3-1.2 3-1.2s3-.4 3-.9c0-1.4-7.3-2.3-23.5-2.8-8.2-.2-15.2-.8-15.5-1.2-.6-1.1-49.1-2-51.6-1M106 352.5c0 .3 1.1 1.7 2.3 3.1 2.1 2.3 3.2 2.5 10.3 2.7 7 .1 8.2.4 10.7 2.6 1.5 1.4 2.7 3.2 2.7 4 0 1.1.5 1 2-.4 1.1-1 2-1.4 2-1 0 .5.6.2 1.3-.7.6-.9 2.5-1.9 4.1-2.2 2.7-.7 2.8-.8 1.1-2.6-1.1-1.2-3.1-2-5.2-2-1.8 0-3.3-.4-3.3-1 0-.5-2.9-.8-6.7-.7-4.6.1-6.8-.2-7-1.1-.5-1.2-14.3-1.9-14.3-.7M129.3 375.1c-.6.6-2.6 1.3-4.4 1.5s-3.6.9-4 1.6c-.4.6-5.4 1.4-12.1 1.9-6.2.5-15.3 1.2-20.3 1.8-9.7 1-53.4-.2-71.5-1.8-5.8-.6-12-1-13.7-1.1H0v341h166.5c91.6 0 166.5-.2 166.5-.4s-3.3-10.4-7.4-22.7c-10.1-30.6-14.7-49.5-20.1-81.9-5.7-34.3-11.5-68-12.1-70.2-.3-.9-1.3-2-2.4-2.3-3.7-1.2-9.9-8.2-13.4-15.1-2-3.9-3.6-7.6-3.6-8.3 0-.6-.4-1.1-.8-1.1-1.3 0-4.8-20.8-5.1-29.9-.3-6.9-1.8-15.3-3-16.1-.5-.3-1.2-2.2-1.6-4.2-.4-2.1-1.1-3.6-1.5-3.3-1.2.8-4.1-.6-3.4-1.6.3-.5-.2-.9-1-.9-1.1 0-1.6-1-1.6-3.3 0-1.9-.3-3.7-.7-4.1-.4-.3-.8-1.4-.9-2.4-1.8-12.5-3.1-18.2-5-21.2-1.3-1.9-2.6-5.7-3-8.4-.3-2.7-1.4-5.6-2.3-6.6-.9-.9-2.3-2.6-3.1-3.8s-2-2.2-2.6-2.2c-.7 0-1.7-1.4-2.3-3-.5-1.7-1.4-3-2-3-.5 0-1.3-.9-1.6-2s-1.5-2-2.6-2c-1 0-1.9-.5-1.9-1 0-.6-.7-1-1.5-1s-1.5-.5-1.5-1c0-.6-.5-1-1.1-1s-1.7-.7-2.5-1.5c-.9-.8-2.4-1.5-3.5-1.5-1 0-1.9-.4-1.9-1 0-.5-1.1-.9-2.4-.8-3.1.3-7.6-2.1-7-3.7.6-1.5-10.7-2.5-29.6-2.5-7.4 0-17.8-.5-23-1-8.1-.9-9.7-1.4-11.5-3.4-2.4-2.9-8.3-6.6-10.5-6.6-.9 0-2.1.5-2.7 1.1M977 453.5c0 1.8-4 2-4 .2 0-.6-.9-.1-1.9 1.2-2.2 2.9-1.7 5.1 1.3 5.1 1.2 0 1.6.3 1 .8-.6.4-1.4 1.4-1.7 2.2q-.6 1.8-.6-.3c-.1-1.8-1.8-2.2-4-.8-.9.6-1.2 1.9-.8 3.6.2 1.6-.1 4.1-.8 5.8-1.2 2.8-1.2 2.9-1.8.6-.3-1.3-.9-2-1.3-1.7-.8.9.4 4.5 2.3 6.4.9.8 1.7 3 1.8 4.7.1 1.8 1.4 6.1 2.8 9.7l2.5 6.5 3.2-6.9c1.7-3.7 2.9-7.5 2.6-8.3s-.2-1.2.2-.9c.9.6 4.6-9.3 3.8-10.2-.3-.3-.6.2-.6 1.2 0 .9-.4 1.4-1 1.1-1.2-.8-1.3-5.2-.1-5.9 2.8-1.7-.8-11.2-3.8-10.1-1 .4-.8-.2.7-1.8 2.4-2.5 2.8-3.7 1.2-3.7-.5 0-1 .7-1 1.5M939.1 456.7c-2.4 2.7-3.5 3.3-4.3 2.5-1.7-1.7-4.8-1.5-4.8.2 0 .8-.9 1.7-1.9 2.1-2.3.7-3.5 3.7-3.3 7.7.2 1.9-.3 2.8-1.3 2.8-.8 0-1.5-.7-1.5-1.5s-.4-1.5-1-1.5c-.5 0-1-.6-1-1.4 0-.7-.7-2-1.7-2.7-1.5-1.3-1.5-1.2-.1 1.6.9 1.6 3.4 6.9 5.7 11.7 2.3 4.9 4.6 8.8 5.1 8.8.9 0 19-13.2 24.7-18.1 3.2-2.7 3.2-2.7 1.1-4.6-1.1-1-2.2-1.7-2.4-1.5-.8.5-5.4-3.5-5.4-4.7 0-1.5-1.7-1.4-2.3.1-.3.7-.6-.2-.6-2-.1-1.7-.5-3.2-.9-3.2-.5 0-2.3 1.6-4.1 3.7M944.9 478.6c-6.3 4.7-12.2 9.2-13.2 9.9-1.8 1.2-1.7 1.8 1.2 14.6 6.2 27.8 7.3 31.9 8.3 31.9.5 0 .6-1 .3-2.3-.4-1.5-.4-1.8.3-.8 1 1.4 2.3.2 11.3-10.4 1.9-2.2 5.1-5.8 7.1-8 3.7-4 5.2-6.9 2.3-4.5-1.3 1.1-1.4 1-.9-.4.4-1 1.3-1.5 2-1.2.8.3 2.5-.9 3.9-2.8 2.5-3.3 3.4-6.3 1.5-5.1-.5.3-.7 0-.4-.9 1-2.6-8-25.7-10-25.3-.6.1-1-.6-1-1.6.1-.9-.1-1.7-.5-1.7s-5.9 3.9-12.2 8.6M312.6 482c-.5 3-1.3 6.1-1.8 6.7-.6.7-.8 2.2-.5 3.3s.1 1.8-.4 1.4c-.5-.3-.9.4-.9 1.6 0 1.3.4 1.9 1.2 1.4s.9.2.5 2.7c-.5 2.4-.4 3 .3 1.9.8-1.2 1-1.1 1 .7 0 1.1 1.5 3.9 3.3 6.1 1.7 2.1 4.1 5 5.2 6.4 6.3 7.7 17 19.8 17.5 19.8.3 0 .6-.8.7-1.8.1-.9.6-6.2 1.2-11.7s1.4-13.4 1.6-17.5c.3-4.1.8-9.1 1-11 .4-2.6.3-3.1-.4-2-.6.8-1.1 3.7-1.2 6.5 0 2.7-.3 4.3-.6 3.5-.2-.8-.7-2.2-1-3-.9-2.7-1-8.1-.1-8.6 1.3-.8-1.4-3-7.2-5.8-6.5-3.1-11.3-3.3-14-.6l-2 2-.1-3.3c-.1-3-.1-3-.9-.7-.7 2.5-.7 2.5-1.1-.5-.4-2.5-.6-2-1.3 2.5M631.1 483.5c0 2.8.4 5.6 1 6.2.8.8.7 2.4-.4 6-.8 2.6-1.7 8.7-2 13.5l-.5 8.8h2.7c1.4 0 3.7.3 5 .7 1.9.5 2.3.3 1.8-.9-.3-.9 0-2.1.6-2.7.8-.8.8-1.4-.1-2.3-.7-.7-1.2-2.3-1.1-3.8l.1-2.5.8 2.5c.5 1.6.8-1.6.9-8.8.1-11-.4-12.7-3.1-9.8-1.1 1.1-1.5.8-2.7-1.8-.7-1.7-1.7-4.7-2.1-6.6-.7-3.3-.8-3.2-.9 1.5M654.8 498.5c.2 9.3.8 18 1.3 19.2.7 1.8 1.7 2.2 6.8 2.5l6.1.3v-6c0-3.5-.8-8.3-2-11.5-1.1-3-2-6.4-2.1-7.5 0-1.1-.3-1.4-.6-.8-.8 2.2-2.1 1.4-2.8-1.7-.8-3.6-2.9-3.9-4.7-.8-1.2 2.1-1.4 1.7-1.9-4.2-.3-3.6-.4 1.1-.1 10.5M813.3 484.2c-1.3.6-2.3 1.5-2.3 2 0 .4-2.4.8-5.2.9-3.6 0-4.7.3-3.3.8 1.8.7 1.7.8-.7 1.4-1.5.4-3 1.6-3.3 2.7s-1.1 2-1.6 2c-.9 0-.7 2.3.8 10.4.3 1.9.2 2.6-.6 2.2-.6-.4-1.1-.2-1.1.4 0 1.6 35.5 18 36.4 16.9 1.6-1.8 3.5-7.1 3-8.3s-.2-1.5 1-1c2 .8 1.3 5.8-1.1 8.6-1.4 1.5-1 1.9 3.6 4.3 5.7 2.8 6.2 2.3 3.7-4.4-1-2.7-1.4-3.1-1.9-1.8-.3.9-1.1 1.7-1.7 1.7s-.4-.7.5-1.6c1-1 1.4-2.5 1.1-3.8-.3-1.2-.6-2.7-.6-3.4s-.5-1-1.2-.6-.8.3-.4-.5c1.1-1.7-.3-7.3-1.6-6.5-.7.4-.8.2-.4-.5.5-.7.5-2.4.1-3.9-.5-2-.8-2.3-1.6-1.1-.6 1-.9.7-.9-1.2 0-1.5-1.1-3.7-2.5-5-1.3-1.3-2.5-3.3-2.5-4.5 0-1.4-1.1-2.5-3.5-3.4-1.9-.8-3.5-2-3.5-2.7 0-1.6-5.5-1.6-8.7-.1M647.9 486.4c-.1.6-.1 1.4 0 1.8 0 .5-.3.8-.8.8s-1.2 1-1.5 2.2l-.6 2.3-1.3-2.2c-1-1.8-1.2 0-1.5 10.9-.1 7.1 0 13.8.3 14.9.5 1.5 1.6 1.9 5.7 1.9h5.1l-.6-7.8c-.4-4.2-.9-11.8-1.3-16.8-.5-6.7-1-9.1-2-9.1-.8 0-1.5.5-1.5 1.1M759.3 486.7c-.7.3-1.3 1.1-1.3 1.9s-.9 1.4-2 1.4c-1 0-2.4.8-2.9 1.7-1 1.7-1.1 1.6-1.2-.2-.1-1.1-.5-.2-1 2-1 5.1-1 27.7 0 25 .8-2 .8-2 1.5.1.8 2.5-.2 5.6-1.5 4.8-.5-.3-.9.4-.9 1.5 0 1.3 4.4 5.7 12.9 13l13 11.1 5-10.6c2.8-5.8 5.1-10.9 5.1-11.3s1.3-3.4 2.8-6.7c3.5-7.2 4.5-11.1 3.2-11.9-.5-.3-1-.1-1 .4 0 .6-.7 1.1-1.5 1.1s-1.5-.5-1.5-1c0-.6.5-1 1.1-1 .5 0 .7-.5.3-1.1-.5-.8-.9-.8-1.4.1-.8 1.4-3 .5-3-1.1 0-.6.5-.7 1.2-.3.7.5.8.3.4-.5-.9-1.4-14.5-10.4-16.1-10.6-.5-.1-1.6-.3-2.2-.3-.7-.1-1.3-.6-1.3-1.2 0-.5.8-.7 1.8-.3 1.4.5 1.3.3-.3-1-1.3-1-2.2-1.2-2.6-.5-.9 1.5-4.7-.8-5.1-3-.2-1.1-.9-1.7-1.5-1.5M346 490.4c-.1.6-.5 4.2-1 8.1-2.2 16.9-4 33.2-4 36.2 0 2.7 1.1 4.1 7.8 10 12.1 10.5 30.4 25.8 31.2 26.1.4.1 1-4.6 1.3-10.5.4-5.9 1.3-18.9 2.2-28.8 1.9-22.8 1.9-23.5 0-23.5-2.3 0-1.8-1.9.8-3 1.8-.7 1.9-.9.4-.9-1.1-.1-2.1-1-2.4-2.1s-.9-2-1.4-2-.9-.4-.9-1 1-.5 2.5.2c2.7 1.2 4.9.3 2.6-1.2-1.9-1.1-11.9-3-16.7-3.2-2.2 0-4.4-.5-5.1-1s-2.2-1.1-3.5-1.3-4.9-1-8-1.8c-4.1-1-5.8-1.1-5.8-.3M745.5 491c-.9 1-1.5 2.6-1.2 3.5.4.8.2 1.5-.3 1.5-.6 0-1-1.3-1-2.9 0-2.6-.4-3-2.5-2.8-3.7.3-7.5 5.2-7.5 9.8 0 4.4-1.9 6.4-2.1 2.2-.1-1.8-.3-2.2-.6-1-.3 1-.1 2.6.3 3.5s.6 2.3.5 3.1c-.1.7.9 2.6 2.4 4.1 3 3.2 8.2 3.8 9.3 1.2.5-1.2.8-.7 1.3 1.8l.6 3.5.2-3.3c.1-2.1.6-3.2 1.6-3.2 1.2 0 1.5-1.9 1.5-11.5 0-6.3-.2-11.5-.3-11.5-.2 0-1.2.9-2.2 2M849.5 492c-.3.5-2.1 1-3.8 1-7.2 0-7.8 3.6-3.3 21 2 7.4 3.8 14.4 4.2 15.5.3 1.1 4.2 4.9 8.6 8.5 23 18.7 32.1 25.9 36 28.7l4.4 3.1-.7-5.1c-4.1-31.9-9.4-66.6-10.4-67.5-.2-.3-.3 1.7-.1 4.4s.1 3.6-.1 1.9c-.6-3.6-2.1-5.7-3.7-4.8-.7.4-.6.1.1-.9 2.5-3-2.7-4-5.9-1.1-1.4 1.3-2.3 1.4-4.1.5-3.3-1.6-13.2-4.2-16.1-4.2-1.4 0-2.6-.5-2.6-1 0-.6-.4-1-.9-1-.6 0-1.3.4-1.6 1M923 491.6c-.8.1-9 1.3-18.2 2.5-9.3 1.2-16.8 2.6-16.8 3.1 0 .4.5.8 1 .8.6 0 1 .6 1 1.2 0 .7.9 2.4 2 3.8 2 2.6 2.7 6 1.1 6-.5 0-1.6-1.9-2.5-4.1-.9-2.3-1.9-4-2.1-3.7-.3.2.2 4.5.9 9.4.8 4.9 2.9 19.2 4.6 31.9 1.8 12.6 3.5 23.1 4 23.3.4.1.5 1.4.2 2.9-.4 2-.2 2.4.9 1.8 1.3-.8 15.9-12.6 18.5-15 .6-.5 5.5-4.5 10.9-8.9l9.7-7.9-.6-4.2c-.9-5.4-7.1-32.6-8.8-38.5-1.3-4.3-2.5-5.2-5.8-4.4M617.3 493.4c-1.4.6-2.3 2.1-2.4 3.6-.1 2.3-.2 2.3-.9-.5-.5-2-.8.6-1 8-.1 6-.3 12.2-.4 13.7-.2 3 .1 3.3 2.4 1.8 1.3-.9 1.3-1 0-1-1.1-.1-1-.5.6-1.8 1.2-1 2.7-3.4 3.3-5.5.7-2 1.7-3.9 2.2-4.2.5-.4.9-1.7.9-3.1 0-1.3.9-3.3 2-4.4 5.2-5.2.2-10.1-6.7-6.6M671.5 495.9c-.8.7-.4 18.4.5 21.1.4 1.4.9 1.8.9 1 .1-1.3.3-1.3 1.4 0 .7.8 2.4 1.6 4 1.8 2.3.2 2.7-.1 2.8-2.5s.3-2.1 1.5 1.7l1.4 4.5-.5-4.5c-.9-7.8-3.7-21.5-4.8-22.8-.9-1.1-6.2-1.4-7.2-.3M600.7 498c-.3.8-.8 3.7-1 6.5-.3 2.7-.7 5.7-1 6.5-1.4 4.4-2.3 12-1.3 11.7.6-.2 1.2-1.6 1.3-3.1.3-3.6 1.3-4.7 1.3-1.5l.1 2.4 2.4-2.7c2-2.4 2.4-2.5 2.8-1 .4 1.4.6 1.3 1.2-.6.4-1.2 1.1-2.2 1.5-2.2.5 0 1.1 1 1.3 2.2.2 1.3.5-2.1.6-7.4l.1-9.7-3.2-.9c-3.3-.8-3.3-.8-3.9 3.2l-.5 4.1-.5-4.5c-.3-2.7-.7-3.9-1.2-3M464 500c0 1.8-.7 2-8 2-4.4 0-8 .4-8 .9s-.9 1.3-2 1.6-2 1.3-2 2.1-.9 1.4-2.1 1.4c-1.6 0-1.9-.4-1.4-2.1.5-1.4.3-1.9-.3-1.5-.6.3-1.3 2.8-1.7 5.6-.4 2.7-1.5 8.1-2.4 12-1.8 7-1.6 7.8 1.7 6.1.9-.5 4-1.8 6.7-2.9 2.8-1.2 9.8-4.2 15.6-6.7 5.9-2.5 11.3-4.5 12-4.5 1.1 0 1.1-.3-.1-1.1-1.3-.9-1.2-1 .3-.5.9.3 3.3-.2 5.2-1.1 3.1-1.5 3.4-2 3-5.1-.6-4.5-1.7-5.2-8.7-5.2-4.5 0-5.8-.3-5.8-1.5 0-.8-.4-1.5-1-1.5-.5 0-1 .9-1 2M395.5 500.1c-.4.6-1.3.8-2.1.5-2.2-.8-2.9 1.6-.9 3.1 1.1.7 1.3 1.3.7 1.3-.7 0-1.2.7-1.2 1.5s-.7 1.5-1.5 1.5c-1.5 0-1.4-1.9.1-6.8.2-.6-.1-1.2-.5-1.2-.5 0-1.2 1.7-1.5 3.7-.8 5.5-3.4 31.4-4 40.8-1.5 21.8-1.7 26.5-1.2 26.5.4 0 8.6-6.6 15.6-12.6 1.4-1.2 9.4-7.9 17.8-14.9 8.3-7 15.2-13 15.2-13.3 0-2.2 3.2-20.1 3.9-22.4.7-2 .6-2.8-.5-3.2-.8-.3-1.4-.1-1.4.5s-1.8.7-4.8.3c-3.7-.5-5.2-.2-6.5 1-2.3 2.3-4.3 2-7.5-1.4-2.5-2.6-3.7-3-7.9-3-6.4 0-11.4-1-10.7-2.1.3-.5.3-.9 0-.9s-.8.5-1.1 1.1M533.6 499.8c-.9.8-.7 9.2.2 9.2.4 0 1.3 1.4 1.9 3 1 2.7 1.5 3 4 2.5 2.8-.7 2.8-.7-1 3-2.2 2.1-4.3 3.3-5 2.9-.9-.5-.9-.4 0 .6s2.2.4 6.2-3c2.7-2.3 4.7-4.8 4.5-5.5-.3-.7-.1-1.6.5-2 .7-.4.8.1.4 1.2-.6 1.6-.5 1.6 1 .4 2.1-1.7 2.1-2.5 0-4.6-1.3-1.3-1.4-1.8-.3-2.5 2-1.3.2-3-3.3-3-1.8 0-4.4-.6-5.9-1.4s-2.9-1.2-3.2-.8M306.7 505.9c-1.7 8.2-1.1 10.1 6.2 19.1 11.3 14 19.2 21.8 11.5 11.3-1.3-1.7-2.4-3.7-2.4-4.3 0-1.7-11.8-24-13.3-25.1-.5-.3-.8-.9-.7-1.3s0-1.2-.3-1.9c-.2-.6-.7.3-1 2.2M512 504.1c0 1.2-1.1 1.8-4 2.1-2.8.2-4 0-4-.9 0-2.1-.8-1.7-5.5 2.4-.7.7-2.3 1.3-3.4 1.3-1.3 0-2.2 1-2.9 3.2-2 6.5-2.1 7.9-.6 8.5.8.3 1.2.9.9 1.3-.2.4.8 3.4 2.4 6.6 1.5 3.3 4.3 9.1 6.2 13l3.4 7.1 12.7-10.9 12.7-11-1.9-2.1c-1.1-1.1-2-2.4-2-2.7 0-.6-5.4-8-10.5-14.5-.9-1.1-2-2.7-2.5-3.5-.8-1.3-1-1.3-1 .1M968.2 507.3c-1 1.8-3.1 6.5-4.7 10.3-4.2 10.7-11.4 24.5-15.3 29.1-1.9 2.4-3.2 4.3-2.9 4.3.8 0 27.1-31.8 28.1-34.1 1-2.1-1-12.9-2.4-12.9-.4 0-1.7 1.5-2.8 3.3M794.4 513.2c-.4 1.3-2.4 5.9-4.4 10.3s-5.2 11.4-7 15.5-3.9 8.4-4.6 9.4c-1.2 1.7.3 3.4 16.3 19 9.7 9.4 18 17.1 18.4 17.1 1 0 4.7-6 19.6-31.9 10.6-18.5 11.4-20.1 9.7-21.3-1-.7-2.2-1.3-2.7-1.3-.9 0-2.7-.7-13.7-5.8-3.6-1.6-11-4.8-16.5-7.1s-10.8-4.6-11.7-5.1c-2.4-1.4-2.6-1.3-3.4 1.2M544.5 516.8c-2.7 2.6-5 5.3-5 6.1s-.6 1.6-1.4 1.9c-1 .3-1.1 0-.5-.9.7-1.2.5-1.2-.9 0-2.1 1.6-1.3 3.1 1.6 3.1 1.2 0 4.6 1.4 7.5 3l5.3 2.9-.2-8.8c-.4-12.7-.5-12.8-6.4-7.3"/><path d="M954.5 523c-13.9 15.7-13.6 15.2-12.9 24.3.6 6.4.9 7.5 2.1 6.6.7-.7 1.1-2 .8-2.9s.2-2.3 1-3c.9-.7 3.2-4.3 5.2-7.9s4-6.8 4.3-7.1c1.3-1.1 5-11.1 4.5-12-.3-.6.6-2.6 2.1-4.5 4.8-6.4 1.9-3.7-7.1 6.5M729.9 518.2c0 2.4-.2 6.9-.4 10.1-.3 4.9-.1 5.6 1.1 4.6.8-.6 1.1-1.5.8-2s.1-.9.9-.9 3-.2 4.8-.6l3.4-.5-4 2.2c-2.2 1.2-4.3 2.6-4.6 3.1-.4.6 2.6 4.1 6.5 7.8q7.05 6.75 7.8 5.7c.4-.7.7-5.3.7-10.2 0-5.9-.3-8.3-.9-7-.8 1.9-.9 1.8-.9-.4-.1-1.8-.5-2.2-2.2-1.8-1.7.5-1.8.3-.8-.9.7-.8 1.9-1.2 2.8-.9s-1.5-2.3-5.4-5.9c-3.8-3.6-7.6-6.5-8.2-6.6-.9 0-1.3 1.5-1.4 4.2M318.1 517c.7 1.3 1.9 3.1 2.8 4 1 .8 1.1 1.1.4.6s-1.3-.5-1.3 0c.1 2.3 16 31.4 17.3 31.4.4 0 .7-3.4.7-7.4v-7.5l-5-6c-7.5-9-16.3-17.9-14.9-15.1M468.2 517.7c-.6.3-.9 1-.6 1.5.4.6.2.8-.4.5-.5-.4-7.3 2-15 5.3-7.8 3.3-14.5 6-15.1 6-.5 0-1.3.5-1.7 1.2-.5.8 0 .9 1.4.6 1.2-.4 2.2-.2 2.2.3s-.4.9-1 .9c-1.6 0-1.2 1.6 1.9 6.7 1.6 2.6 7.3 12.2 12.6 21.3 5.4 9.1 10.9 18 12.2 19.8 2.3 3.1 2.6 3.2 3.8 1.5.7-1 1.1-2.1.9-2.4-.2-.4.2-.6 1-.5.7 0 8.4-6.8 16.9-15.1l15.6-15.3-7.9-15.6-8-15.7-3.7-.2c-2.1-.2-6-.5-8.8-.8-2.7-.2-5.6-.2-6.3 0M306.6 524.2c2.1 12.8 9.1 38.9 10.8 40.3.6.5 1 1.8.8 2.8-.5 2.6 3.9 14.2 4.8 12.7.4-.7.5-2.2.2-3.4-.5-1.9-.4-1.9 1.1-.7 2 1.6 2.1 3.4.5 6-1.5 2.4-1.5 2.4 16.1 25.8 7.5 10 13.7 17.5 13.9 16.7.4-1.7-15.2-59.9-16.4-61.3-.7-.7-4.4 3.2-4.4 4.6 0 .7-.7 1.3-1.6 1.3-1.3 0-1-.8 1.2-3.8 1.5-2 3.2-4 3.6-4.3.5-.3-1.7-4.2-4.9-8.7-4.7-6.6-6.2-8.1-7.8-7.6-1.6.4-1.7.3-.5-.5s1.1-1.3-.5-3.3c-1.1-1.2-2.5-2.7-3.1-3.3-.6-.5-3.9-4.5-7.4-8.8-3.4-4.2-6.4-7.7-6.6-7.7s-.1 1.5.2 3.2M966.5 529.2C951.6 547 943 558.1 943 559.4c0 .8 1.5 3.4 3.3 5.8 6.3 8.3 6.2 9-.2 1.5l-4.1-4.8-1 2.6c-.6 1.4-1 3-1 3.5s-1.8 7.3-3.9 15.2c-5.7 20.8-12.1 45.1-11.7 44.7 1.2-1.3 16.1-20.7 20.7-26.9 11.2-15.2 13-18 12.3-19.1-.3-.6-.1-1.5.6-1.9 1-.6 4.4-11.1 10.1-31.5 3.3-12 6.5-27.5 5.6-27.5-.2 0-3.5 3.7-7.2 8.2M624.4 524.2c-1.1 1.3-4.7 5.9-8 10.3-3.2 4.4-6.5 8.6-7.1 9.3-1 1.1-1 2 .3 4.5 2.3 4.4 4.5 6.8 5.7 6 .6-.3.7-.1.3.5-.3.6 1.2 3.6 3.4 6.8s4 5.3 4 4.8c.1-2.7 3.1-36.5 3.6-40.2.3-2.3.4-4.2.2-4.2-.3 0-1.3 1-2.4 2.2M633.9 532.3c-5.9 9.7-6.9 13.2-8.4 29.9-.6 7.2-.7 7 4.5 7 1.1 0 5.5 0 9.8-.1l7.7-.1 3.3-6c1.9-3.3 4.2-6.4 5.1-7 1.5-.8 1.8-1.8 1.3-5.7-.3-2.6-.9-5.1-1.5-5.4-.5-.4-1.5-2.3-2.2-4.2-1.3-3.8-5.8-11.4-9.2-15.5l-2.2-2.7-.1 14.2c0 18.8-1.9 19.1-2.2.3l-.3-13.9zM656.4 525.5c.3 1.6 1 6.8 1.7 11.5.6 4.7 1.4 8.7 1.8 9 .5.3 1.2 1.6 1.6 3 .9 2.7 16.5 19.5 16.5 17.7-.1-3.8-2.9-17.8-4.3-21-2.3-5.3-9.7-13.6-11.6-13-1.2.4-1.3.3-.3-.4s.5-1.9-1.9-4.9c-4.2-5.3-4.2-5.3-3.5-1.9M607.3 526.7c-.7.3-1.3.9-1.3 1.4 0 .6.6.7 1.3.3.6-.4-2.3 2.9-6.5 7.3-5.8 6-7.8 8.8-7.8 10.8 0 2.2-.4 2.6-1.7 2.1s-1.1 0 .7 2.1c1.4 1.5 2.8 3.2 3.2 3.7.8 1 8.4-7 10.4-11 .7-1.3 1.6-4.5 2-7 .5-3.8.4-4.5-.7-3.9-.8.5-.6-.1.4-1.3 2-2.2 2-5.2 0-4.5M673.4 528.5c.3 1.1 1.2 5.3 2.1 9.2.9 4 2 7.3 2.5 7.3 1.4 0 2.1 3.3.9 4.1-.9.5-.9 2.6 0 8.9 1.9 12.4 2.4 13.4 4.4 7.5 1.9-5.3 2.1-6.9 1-6.2-.5.3-1.6-1.2-2.6-3.2l-1.9-3.6 3.1 2.9c3.6 3.5 4.4 1.5 1.1-2.7-2.5-3.2-2.6-4.7-.2-1.9 1.6 1.9 2.1 2 3.7.8 2-1.4 2.3-6.2.6-9.5-.6-1.1-.9-2.6-.6-3.3.2-.7-1-2.4-2.7-3.7-2.9-2.4-3-2.4-1.9-.3.8 1.4.9 3.3.3 5.4l-.9 3.3-.7-4.8c-.4-2.6-1.1-4.5-1.6-4.2-.8.5-2.5-1.4-5.8-6.1-1.2-1.8-1.2-1.8-.8.1M535 530.2c0 1.8-.2 2-1 .8-.7-1-1 1.1-1 6.7 0 7.2.2 8.3 1.8 8.3 1.4 0 1.5.2.2 1-.8.5-1.2 1.1-1 1.3.3.3 4-2.8 8.2-6.8l7.7-7.2-5.2-2.5c-8.4-4.1-9.7-4.3-9.7-1.6M748.7 541.2c-.7 11.8-.6 12.2 1.9 16.6 1.4 2.4 3.4 5.2 4.4 6.2s2.1 2.7 2.5 3.9c.3 1.2 1.1 2.1 1.6 2.1.6 0 .6-.7-.1-1.9-.5-1.1-1-2.2-1-2.4 0-.5 4.1-2 5.2-1.8.8.1 11.8-11.8 11.8-12.7-.1-.4-2.6-2.7-5.7-5.2-3-2.5-6.1-5-6.7-5.5-.6-.6-3.8-3.3-7.2-6.2l-6.1-5.2zM527.4 532.1c-1.1 1.2-1.8 2.4-1.8 2.8.3 1.3-.8 3-2.4 3.6-1.1.4-.9-.2.7-1.9 1.4-1.5 2-2.6 1.4-2.6-1.1 0-5.9 4.9-5.6 5.8 0 .4-.3.6-.7.5-.5-.1-2.6 1.4-4.7 3.5-2.2 2-3 3-1.9 2.2 2.1-1.5 2.1-1.5.2.7-1 1.3-2.2 2-2.6 1.8-.4-.3-1.8.3-3.1 1.4l-2.3 1.8 2.2 1.4c1.2.8 2.2 1.9 2.2 2.5 0 1.2 5.5 7.1 8.8 9.2 3 2 4.3.7 8.3-7.9 1.8-3.8 3.6-6.9 4-6.9 1.2 0 1.2-18.7 0-19.4-.4-.3-1.7.4-2.7 1.5M423.5 540.6c-4.4 3.6-13.2 10.9-19.5 16.2-6.3 5.4-13.6 11.4-16.2 13.4l-4.6 3.7 5.1 5.8c2.9 3.1 10.8 11.8 17.7 19.3 23.4 25.2 32.5 35.5 35.9 40.2 1.9 2.7 3.8 4.8 4.4 4.8 1.9 0 30.6-23 30.6-24.6.1-.6-1.7-6.2-3.8-12.5-4.1-11.7-5.9-13.9-8.1-9.9-1.6 3-2.3 1.8-.9-1.3.7-1.5 1.6-2.4 2-2.1.5.3.9-.4.9-1.6s-.4-1.9-.8-1.6c-.8.5-9.8 13.9-20 30.1-2.8 4.4-5.9 8.8-6.8 9.7-3.3 3.4-2.5 1 1.9-5.3 5.5-7.9 23.7-36.8 23.7-37.6 0-.4-2.7-5.2-6.1-10.7-18.4-30.7-25.5-42-26.4-42.3-.5-.1-4.6 2.7-9 6.3M845.4 535.3c-.6.7-3.6 5.6-6.6 10.8-3 5.1-9.6 16.5-14.7 25.1-5 8.6-9.1 15.9-9.1 16.2 0 .7 23.4 37.5 26.3 41.3l2.4 3.3 9.4-10.3c10.1-10.9 30.6-33.8 37.7-41.9 2.3-2.7 4.2-5.5 4.2-6.3 0-.7-7-6.8-15.6-13.6-8.5-6.8-19.3-15.4-24-19.2-4.7-3.7-8.6-6.7-8.7-6.7-.1.1-.7.6-1.3 1.3M340 549.1c0 6.7.4 8.6 2.2 11.2 6.1 8.9 43 57.8 43.3 57.5.2-.2-.7-9.8-2-21.2-2.1-18.5-2.7-21.2-4.7-23.3-2.7-3-37.5-32.3-38.3-32.3-.3 0-.5 3.6-.5 8.1M928 549.6c-5.2 4.2-14.1 11.4-19.6 16.1l-10.2 8.6-.7 7.6c-.3 4.2-1.3 13.9-2.1 21.5-.7 7.7-1.2 14.1-1 14.3.4.4 9.5-11.3 29.1-37.7 16.1-21.6 16.5-22.3 16.5-25.8 0-4.5-1.2-12.2-1.9-12.2-.3.1-4.9 3.5-10.1 7.6M969.7 564.8c-7.6 15.6-12.7 27.2-12.7 28.8 0 .3.4.3.9 0 .5-.4.5 1.2 0 3.7-1.3 5.6-2 7-1.6 2.9.8-7.2-.5-3.5-13.3 37.8-2.3 7.4-4.8 15.5-5.6 18-1.2 4.1-1.2 4.3.2 2.5 1.9-2.4 10.9-18.4 15.8-28 4.2-8.2 6.3-16 4-15.1-.8.3-1.4-.1-1.4-.9s.5-1.5 1-1.5c.6 0 1-2.6.9-6s.1-6.4.5-6.7c.3-.3.6.7.7 2.3.1 2.9.1 2.9.9.4l.8-2.5.1 2.4c.1 3.3.9 2.3 2.5-3.5.7-2.7 3-10.5 5.1-17.4s4.3-15.2 5.1-18.5c.7-3.3 2.2-8.2 3.4-10.9 1.1-2.7 1.9-5 1.7-5.2s-4.2 7.6-9 17.4M302.1 548.1c-.2 1.4 2.3 7.5 3.6 9.1.9 1 1.2 2.5.8 3.9-.5 1.5-.4 1.9.5 1.4s1-.2.5 1.4-.2 2.1 1.2 2.1c1.3 0 1.5.3.5.8-1 .7-.4 4 3 15.5 2.3 8.1 4.6 14.7 5.1 14.7.4 0 .6-.4.2-.9-.3-.5 0-1.3.6-1.7.8-.5.9.7.4 4.3-.5 3.7-.2 6.1 1.3 9.8 1.1 2.8 2.2 7 2.6 9.5s1.9 7 3.3 10c3.3 6.9 17.6 32.1 18 31.7s-8.9-31.5-16.6-55.3c-1.6-5-3.6-10.5-4.5-12.2s-1.6-3.9-1.6-4.9-1.5-4.9-3.4-8.7c-2.3-4.8-3.5-6.4-3.9-5.2-.4.9-1.1 1.6-1.7 1.6-1.4 0-1.3-3.7.2-4.2.8-.3-.8-4.4-4.5-11.9-3.1-6.3-5.6-11.1-5.6-10.8M489.1 566.2c-16.5 16-21.1 20.7-21.1 21.8 0 .4.8 2.5 1.7 4.6.9 2.2 3.3 8.6 5.3 14.4 2.1 5.8 4.2 10.5 4.8 10.5 1.3 0 13.3-9.8 20.3-16.5 2.6-2.5 8.1-10 12.3-16.7l7.6-12.2-2.1-3.6c-1.2-2-2.4-3.4-2.7-3.1s.1 1.2.8 2.1c.7.8.8 1.5.3 1.5-1.3 0-7.4-6.5-6.7-7.2.7-.8-4.6-8.8-5.8-8.8-.6 0-7.2 5.9-14.7 13.2M771.9 558.2c-3.1 3.7-3.7 4.8-2.1 3.9 1.3-.7 2.6-1.9 2.9-2.7.3-.7.9-1.1 1.5-.8.5.3 1.2-.3 1.5-1.5.6-2.5 1-2.6 2.8-.7 1.2 1.2 1.2 1.5-.3 2-2.4.8-5.4 2.8-6.8 4.6-.7.8-1.6 1.5-2.1 1.5-2.8.2-5.2 2-6.8 4.9-1.8 3.4-1.8 3.4 1 8.2 8.8 15.1 14.8 22.1 30.7 35.8l6.8 5.8 1-2.7q1.05-2.55 0-4.5c-.5-1-1-2.9-.9-4.2.1-1.8.3-1.7 1 .9.5 1.8 1.1 3.3 1.3 3.3.3 0 1.2-2.4 2.1-5.3 1-2.8 2.8-7.8 4.1-10.9 1.3-3.2 2.4-6.4 2.4-7.1 0-1.3-31.3-33.2-34.3-34.8-1.1-.7-2.6.4-5.8 4.3M341.2 564c.3.8 2.2 7.8 4.3 15.5 2 7.7 5.7 21.4 8.1 30.4 2.4 9.1 4.4 17 4.4 17.5 0 1.5 7.3 14.1 22.4 39.1 7 11.6 12.9 21.1 13 21.2.1.2-.3-4.8-1-11-.7-6.1-2.2-20.2-3.4-31.2-1.1-11-2.3-20.8-2.6-21.7s-10.7-15.1-23.1-31.5-22.4-29.1-22.1-28.3M937 564.9c-.9 1.7-11.2 15.7-16.3 22.1-.7.8-7.1 9.4-14.3 19l-13.1 17.5-1.7 16.5c-.9 9.1-2.4 22.9-3.2 30.7-.9 7.8-1.4 14.7-1.2 15.3.3 1 7.8-10.9 25.5-40.2l8.2-13.8 7-25.7c9.2-34.2 11.3-42.4 10.7-43-.2-.3-.9.5-1.6 1.6M603.9 572.2c-1.4 4.6-2.7 13.9-2.8 19.3l-.1 5 9.1 5.7c5 3.2 9.6 5.8 10.3 5.8 1 0 1.5-4 1.8-17.3.3-9.4.3-17.4.1-17.6-.2-.3-3.8 0-8.1.6-7.5 1.1-12.6.5-6.7-.8l3-.7-3.2-.1c-1.8 0-3.3 0-3.4.1M655.9 574.4c-1.9 1.2-5.9 3.4-8.7 5.1l-5.2 3v13.1c0 11 .3 13.3 1.6 13.8.8.3 1.2.2.9-.4-.3-.5.9-1.7 2.7-2.6s4.2-2.4 5.3-3.4c1.1-.9 3.4-2.6 5-3.6l3-1.8-2.5 2.7c-1.3 1.5-4.7 4.1-7.5 5.7l-5 3h5.5c10.5 0 10 .6 9.9-13.9-.1-6.9-.4-14.9-.7-17.7l-.7-5.1zM662.8 589.3c.2 9.4.7 17.6 1.1 18 .5.4 2.1.5 3.6.1l2.8-.7-2.4-1.3c-1.6-.9-1.9-1.3-.8-1.4.8 0 2.4.6 3.5 1.4 1.1.9 3.1 1.2 4.9.9 5.7-1.1 5.8-1.5 5.2-16.3-.3-7.4-.8-14.3-1.2-15.3-.6-1.5-1.8-1.7-6.9-1.5-3.3.2-7 0-8.1-.5-2-.7-2-.3-1.7 16.6M592.5 579.2c-4.4 2.7-8.1 5.3-8.3 5.8s2.1 2.1 5 3.6c2.9 1.4 6.1 3.3 7.1 4.2.9.8 1.7 1.1 1.7.6s.7-4.9 1.6-9.8c.8-4.8 1.4-8.9 1.2-9.1-.2-.1-3.9 2-8.3 4.7M624.7 581.7c-.4 3.8-.7 10.2-.7 14.3l.1 7.5 6.8 3.2c3.7 1.8 7.3 3.3 8 3.3.8 0 1.1-3.5.9-13.6l-.3-13.6-7.1-3.9-7.1-3.9zM884 590.2c-6.3 7.2-17.7 19.8-25.2 28.1-15.2 16.7-14.5 15-10.3 25.7 1.2 3 3.9 12.6 6 21.2 2.1 8.7 4.1 15.8 4.4 15.8.4 0 1.5-1.7 2.5-3.8 1-2 5.7-10.7 10.5-19.2 4.9-8.5 11.3-20.2 14.4-26l5.5-10.5 2.1-21.9c1.2-12 2-22 1.9-22.2-.2-.1-5.5 5.6-11.8 12.8M384.4 587.2c.4 4.6 1.1 11.2 1.6 14.8s1.2 9.4 1.5 13c.7 7 1.2 8.1 20.8 43.5 5.5 9.9 10.7 19.3 11.6 21l1.5 3 .9-4.5c3.1-15.7 12.4-46.6 12.6-41.8.1 1-.8 4-1.9 6.9-1.7 4.2-6.4 22.2-8.6 32.9-.5 2.2-.4 2.3.9 1 2.1-2.3 17.3-27.2 18.1-29.6.5-1.6-.4-3.6-3.4-7.5-3.9-5.3-21.4-24.8-37.5-41.9-4.4-4.7-10.2-10.9-12.8-13.8-2.6-2.8-5-5.2-5.4-5.2-.3 0-.2 3.7.1 8.2M813 591.8c0 1-.4 2.2-.9 2.7-1 1.2-9.1 23.4-9.1 25.1 0 1.3 30.7 25 31.4 24.3 2.3-2.5 7.6-10.2 7.4-10.8-.4-.9-12.1-19.5-20.7-32.8-3.6-5.7-6.9-10.3-7.3-10.3-.5 0-.8.8-.8 1.8M953.2 593.2c-1.1 1.8-7.1 9.8-13.2 17.8-18.2 23.5-17.2 22.1-15.5 24 .8.9 1.5 2.2 1.5 2.8 0 2-2 1.3-2.8-.8-.5-1.4-1.8 3.5-4.1 15.2-1.8 9.5-4.6 23.8-6.2 31.8s-2.9 14.9-2.9 15.5c0 .5 5-6.5 11.1-15.5l11-16.5-2.1-8.3c-1.2-4.6-1.9-8.6-1.6-8.9.4-.5 1.3 2.3 3.2 9.9.6 2.9 2.4 3.9 2.4 1.4 0-.7 1.5-6.2 3.4-12.2s6.1-19.9 9.5-30.9 6.8-21.9 7.6-24.3c1.7-5 1.4-5.3-1.3-1M325.5 592.5c.4 1.1 2 6.3 3.6 11.5 1.7 5.2 4.1 13.1 5.5 17.5s4.6 15.1 7.1 23.7c2.6 8.7 5 15.8 5.4 15.8.5 0 2.4-4.8 4.4-10.8 4.3-12.9 4-10-.5 5.4l-3.3 11.2 10.3 15.3c5.6 8.5 10.6 15.8 11 16.2s-.1-3.8-1.2-9.5c-1-5.7-2.3-13-2.8-16.3-1.7-9.8-5-27.6-6.2-33-1-4.4-1.2-4.7-2-2.6-.5 1.3-1.1 2.1-1.5 1.8-.3-.4 0-1.9.6-3.5 1.2-2.8.8-3.4-8.6-15.8-8.8-11.6-11.9-15.7-20.1-26-1.6-2-2.1-2.3-1.7-.9M510.6 596c-9.1 4.5-13.9 9.7-11.5 12.6.9 1.1.8 1.4-.4 1.4-.8 0-1.7-.6-1.9-1.2-.4-1.2-5.1 1.9-14.2 9.4l-2.9 2.4 1.9 3c2 3 19 25.2 20.7 26.9.6.7.8.1.4-1.5-.3-1.4-.8-5-1.1-8-.5-4.6-.4-5 .5-2.5.5 1.6 1.6 5.6 2.2 8.7l1.3 5.7 11.2-9.1c6.7-5.5 10.8-9.5 10.1-9.9-.6-.4-.9-1.1-.6-1.6s-1.5-7.4-3.9-15.3c-2.5-8-4.8-16.6-5.2-19.2l-.7-4.7zM763.4 596.7c-.3 1.6-2.8 10-5.5 18.7s-4.8 16-4.7 16.1c.2.2 5-3.7 10.8-8.6 9.5-8.2 14-11.6 14-10.6 0 .2-5.6 5.2-12.5 11.2S753 634.8 753 635.2s4.8 4.6 10.7 9.4l10.7 8.6 1.2-4.4c.6-2.5 1.6-5.3 2.2-6.4 1-1.7 1.1-1.7 1.2-.1 0 1-.7 3.4-1.5 5.4l-1.5 3.6 2.1-1.9c2.7-2.4 15.6-18.5 19.3-24.1l2.8-4.2-5.8-5.5c-3.3-3-6.1-5-6.2-4.5-.2.5-1.3-.2-2.4-1.6s-2.4-2.2-3-1.9c-.6.4-.8.2-.4-.4.9-1.5-5.9-7.8-11.6-10.8-6-3-6.6-3-7.4.3M519 597.2c-.1 3 9.4 33.8 10.1 33.1.5-.5 1.4-4.2 2-8.3 1.1-6.9 1-7.8-.9-11.5-2.5-4.9-11.2-15.2-11.2-13.3M757.4 600.2c-7.5 7.9-8.4 9.9-8.3 17.5 0 3.7.7 8.4 1.4 10.3s1.4 3.1 1.4 2.7c.1-.8 8.7-30.9 9.6-33.5.6-1.8.3-1.6-4.1 3M601.7 611.3c.9 4.9 3.3 9.3 4.3 7.7.6-1 .9-.9 1.6.2 1.2 1.9 9 5.2 10.7 4.5 1-.4 1.6-2.5 1.9-6.4.2-3.2.4-5.9.3-6-.1-.2-1.8.7-3.9 1.8s-4.3 1.8-4.9 1.6c-.7-.2.6-1.2 2.8-2.2l4-1.8-4-.7c-2.2-.4-6.1-1-8.7-1.3l-4.7-.7zM669 609.1c-3 .5-5.8 1.5-6.2 2.2-.4.6-.8 3.8-.8 7 0 6.5-.6 6.3 8.3 2.9 4-1.5 5.2-2.6 6.7-6 1-2.2 1.5-4.3 1.2-4.7-.4-.3 0-1 .8-1.5 1.9-1.2-2.2-1.1-10 .1M963.8 615.2c-3.5 7.6-8 22.8-13.7 46.3-8.3 33.9-8 32.9-7.7 33.2.5.6 12.4-25.5 13.1-28.7.3-1.9 2.2-10.2 4.1-18.4s3.3-15.4 3-16c-.2-.6-.7.8-1.1 3.1-.4 2.4-1.1 4.3-1.6 4.3-1.1 0-1.9-3.1-1.4-5.5.2-1.1.4-2.2.4-2.5.1-.3.5.2 1 .9.8 1.2 1.1 1 1.6-1 .3-1.3.7-4.1.8-6.1.1-2.1.6-3.8 1-3.8.5 0 .5-.5.1-1.2-.4-.6-.3-.8.3-.5.7.5.8 2 .2 4.4-.5 2.1-.8 4.5-.8 5.3.1.8.7-1 1.5-4 .7-3 1.1-6.5.9-7.7s.1-2.3.5-2.5c.5-.2.6-.9.1-1.6-.6-1-1.2-.4-2.3 2M641.7 621.7c-.9 12.9-.9 12.9 7.1 12.5 10.3-.5 11.2-.8 11.2-4.2 0-3.7-1.3-4.5-4.7-2.7-1.6.8-4.6 2.3-6.8 3.3s-4.3 2-4.7 2.2c-.5.2-.8 0-.8-.5s1.6-1.7 3.6-2.8c3.6-1.9 8.3-7.1 10.9-12.2.8-1.5 1.5-2.2 1.5-1.5s-.9 3.1-2.1 5.3l-2 4.1 2.3-.4c2-.3 2.3-.9 2.6-5.9l.3-5.6-2.8.3c-5.7.6-11.8.6-13.4 0-1.4-.6-1.7.6-2.2 8.1M625 615.7c0 5.8 2.1 9.3 7.5 12.5 6.3 3.8 7.2 5.6 1.8 3.2-6.9-2.9-6.7-2.9-6-1 .4 1 .7 2.2.7 2.7 0 1.1 10 1.2 10.1.1 0-.4.2-4.9.4-10l.3-9.2h-7.4c-6.4 0-7.4.2-7.4 1.7M743.1 625.5c-3.3 6.5-4.3 7.4-19 18.1-5.6 4.1-8.1 7.3-8.1 10.7 0 1.5.8 1.3 5.8-1.5 9.3-5.1 26.4-16.6 25.5-17.1-.4-.2-2.3-.8-4-1.2-1.8-.3-3.3-1.1-3.3-1.6 0-1.1.2-1.1 5.8 0 3.7.7 4.2.6 3.7-.8-.2-.9-.9-4-1.5-7s-1.1-5.6-1.3-5.7c-.1-.2-1.7 2.6-3.6 6.1M471.9 626.8c-2.5 2-8.9 7.1-14.2 11.2s-9.7 7.7-9.6 8c0 .3 5.8 5.7 12.7 12l12.7 11.5.8-7c1.4-13.1 3.2-39.5 2.7-39.5-.3.1-2.6 1.7-5.1 3.8M800 623.7c0 .6-5.2 7.8-11.6 15.9-10.7 13.8-11.4 14.9-9.7 16.2 4.2 3.1 25.4 15.4 25.8 15 .9-.9-2.9-46.5-3.9-47.6-.3-.3-.6-.1-.6.5M803.4 630.7c.3 4.3 1.1 14.5 1.7 22.8.6 8.2 1.3 15.2 1.5 15.4.6.7 25.4-23.1 24.9-23.9-.3-.5-6.9-5.6-14.6-11.4l-14.1-10.7zM479 625.3c0 .9-.6 8.3-1.4 16.4-2.3 23.5-2.7 29.3-1.8 29.3.8 0 17.2-9.8 23.4-14.1l3.7-2.5-4.2-5.5c-2.4-3-7.4-9.5-11.1-14.4-8.6-11.3-8.6-11.3-8.6-9.2M389.5 631c.4 2.9 1.2 10.9 4 39 1.5 15.8 2.4 20 4.1 20 1.1 0 1.2.4.2 1.9-.9 1.5-.1 4 4.8 15l5.9 13.1h4.2c4.9 0 4.4 1.6 6.8-20.4l1.6-14-2.4-4.5c-2.6-5.2-16.9-31.1-24.6-44.6-4.3-7.4-5.1-8.4-4.6-5.5M881.7 644.2c-4.7 8.4-11.2 20.2-14.6 26.1-6.3 11.3-7 13.1-4.8 14.1.6.3.3.4-.8.3-2.4-.2-2.3-1-.5 20l1.4 15.3h4.2c2.3 0 4.6-.6 5.1-1.3.6-.6 3.5-6.7 6.7-13.5L884 693l2.4-21.8c3.6-31.7 4.6-41.6 4.2-41.9-.2-.2-4.2 6.5-8.9 14.9M326 634.5c0 2.1 12.4 54.6 14.8 62.5l1.6 5.5.7-3.5c.7-3.4.7-3.3.6 1 0 6.2 7.5 20 11 20 1.3 0 2.3-.1 2.3-.3s-.9-4.3-2-9.3c-1.1-4.9-2.9-13.2-4-18.4s-2.4-11.1-2.9-13l-.8-3.5-.7 4.2c-.4 2.4-1.3 4.6-1.9 5-.7.4-.8 0-.3-1.3.4-1 1-4.9 1.3-8.6l.6-6.7-5.5-9.3c-3.1-5.1-7.6-12.9-10.2-17.3-2.5-4.4-4.6-7.5-4.6-7M534 635c-2.4.6-2.4.7 2 3.9 2.5 1.8 7.7 5.1 11.5 7.4 3.9 2.3 7.7 4.6 8.6 5.2.9.5 3 1.8 4.8 2.8 3.1 1.7 3.1 1.7 3.1-.6 0-3.7-.4-4.1-15.4-15.4-5-3.8-8.9-4.7-14.6-3.3M949 642.8c-2.4 4.2-6.6 11.3-9.4 15.7-5.5 8.8-5.7 9.7-4.4 25.5l.7 8.5-1.4-7.8c-.7-4.3-1.5-8-1.7-8.2-.3-.3-7 28.5-9.6 41.3-.4 2-.1 2.3 1.9 2 1.7-.2 3.6-2.5 7-8.2 4.2-7 4.7-8.4 4.4-13-.2-4.6-.2-4.7.4-1.1.8 4.7 1.3 4 4.1-7 3.8-15.4 12.9-54.9 12.7-55.2-.2-.1-2.3 3.2-4.7 7.5M319 637.1c0 3.7 5.4 29.8 7 33.9 2.7 6.9 10 21.3 10.6 20.8.4-.5-12.5-55-13.2-55.7-.2-.2-.4.4-.4 1.5-.1 1.8-.1 1.8-1.4.1-1.5-1.9-2.6-2.2-2.6-.6"/><path d="M839.7 639.9c-1.5 2.3-2.7 5-2.7 6.2 0 1.1 3.2 7.3 7.2 13.7 3.9 6.5 8 13.2 9.1 15s2.1 3.1 2.3 2.9c.6-.6-7.2-30.6-9.4-36.2-1-2.7-2.4-5.1-2.9-5.2-.6-.2-2.2 1.4-3.6 3.6M522 641.7c-9.9 8.2-15 12.7-15 13.3 0 1 19.1 11.7 27 15 11.9 5.1 12.5 5.2 15.1 2.4 2-2.1 2.1-2.5.7-4.6-13.6-21.1-20.2-30.8-21.2-30.7-.6 0-3.6 2.1-6.6 4.6M739.6 653.1l-10.8 16.1 2.9 3 2.9 2.9 11.1-4.9c12.1-5.4 27.5-14.1 27.1-15.3-.4-.9-21-17.9-21.7-17.9-.3 0-5.5 7.3-11.5 16.1M361 639.4c0 .7 1 6.3 7 40.6 2.3 12.6 4 21 4.5 21 .7 0 19.1-8.3 19.8-9 .8-.7-9.6-18.9-23-40.4-8.2-13.1-8.3-13.3-8.3-12.2M539.4 648.8c3.5 5.3 7.2 11.5 8.4 13.8 2.2 4.3 5.2 7.5 5.2 5.5 0-.6.6-1.1 1.3-1.1.6 0 2.9-1.9 5.1-4.2 3-3.4 3.5-3.7 2.1-1.3-1 1.6-3.1 4-4.6 5.3-3.2 2.6-3.6 4.8-1.5 7.7 1.3 1.8 1.6 1.4 4.6-5 4.9-10.9 4.9-11-5-16.7-4.7-2.7-11.5-6.9-15.2-9.3l-6.7-4.5zM738.5 644.7c-4.4 2.9-11.3 7.2-15.4 9.5-4.3 2.4-6.8 4.3-6.2 4.8.7.3.9 1.3.6 2.2-.3.8.8 4.6 2.5 8.4l3.2 6.9 1.4-2.7c1.8-3.3 1.1-5-3.2-8.3-1.9-1.4-3.4-3.1-3.4-3.8.1-.7.8-.3 1.8.8.9 1.1 3.1 3 4.7 4.2l3.1 2.1 9.7-14.5c5.4-8 9.6-14.7 9.5-14.8-.2-.1-3.9 2.3-8.3 5.2M915.9 644.2c-1.8 2.9-5.8 9.3-8.9 14.3-13.5 21.3-20.1 32.8-19.3 33.5 1.3 1.2 19.6 9.1 20 8.6.6-.6 12.2-61.6 11.7-61.6-.1 0-1.7 2.4-3.5 5.2M446 648.1c0 3.4 10.4 39.4 11.7 40.9.3.3 4.1-3.3 8.4-8l7.9-8.5-7.2-6.8c-13.8-13-20.8-18.9-20.8-17.6M819.4 659.7c-13.6 12.6-13.8 12.8-10.9 13.4 1.7.4 2.2.7 1.2.8-1.4.1-.3 1.9 4.9 7.6 6.1 6.9 6.8 7.4 7.9 5.7 3.2-4.5 13.2-40.2 11.2-40.2-.2 0-6.7 5.7-14.3 12.7M438.4 659.8c-3.2 5.2-8 12.6-10.6 16.5l-4.8 7.2 11.2 10.8c6.2 5.9 11.6 10.6 11.9 10.5.4-.2 2.9-3.2 5.5-6.8l4.7-6.4-1.7-6.9c-1-3.8-3.4-11.9-5.3-18-1.9-6.2-3.8-12.3-4.2-13.7-.7-2.3-1.2-1.8-6.7 6.8M835.4 652.3c-.2.7-3.1 9.7-6.3 20l-5.8 18.6 2.5 3.8c1.4 2.1 3.6 5.3 4.9 7.1l2.4 3.2 2.7-1.9c1.5-1 6.9-5.9 12-10.8l9.2-8.8-4.8-7.5c-2.7-4.1-7.2-11.4-10.1-16.3-2.9-4.8-5.5-8.7-5.7-8.7-.3 0-.7.6-1 1.3M493.5 662.6c-4.9 3.1-10.7 6.7-12.8 8L477 673l7.1 6.3c3.9 3.4 8.8 7.5 10.7 9 4.2 3.2 4.6 2.9 5.5-6.3.3-3 1-8 1.6-11 1.7-9.9 2.1-14 1.4-14-.5 0-4.8 2.5-9.8 5.6M505.6 659.3c-.9 4.3-4.6 29.5-4.6 31 0 1.3 1.8.9 9.4-2.3 7.5-3.1 28.3-10 30.3-10 1.6 0-1.2 1.9-3.5 2.3-2.3.5-17.9 6.1-33.2 11.9l-2.5 1 2.3 1.8c1.3 1 8.1 5.6 15.3 10.1l13 8.1 8.5-1.7c4.6-1 8.4-2 8.4-2.2 0-.3-1.2-2.4-2.6-4.9-1.5-2.6-2-4.2-1.2-3.9.7.3 2.1 2 3.2 3.8l1.9 3.2 2.3-12.5c1.3-6.9 2.4-13 2.4-13.5 0-1.7-7.3-4.4-10.3-3.8-2.1.4-2.6.2-2.2-.9s-1.6-2.3-7.7-4.7c-4.6-1.8-12.9-5.9-18.5-9.1-9.8-5.6-10.3-5.8-10.7-3.7M596.1 659.2c-1.1 1.3-3.6 4.3-5.5 6.8-3.9 5-3.8 5.1 3.7 6.3 2.2.3 3.5.2 3.2-.4-.4-.5-.2-.9.3-.9.6 0 1.2.6 1.5 1.4.3.7 2 1.8 3.7 2.5 3.2 1.1 3.2 1 2.6-1.7-.3-1.5-1.1-5.2-1.7-8.2-1-4.8-2.9-7.9-5.2-8-.4 0-1.6 1-2.6 2.2M679.9 658.1c-2.2.8-2.8 2-4.3 9-1 4.5-1.6 8.3-1.3 8.5.9.9 6.4-2.2 6.1-3.4-.1-.7 0-.8.3-.2.6 1.2 4.3 1.4 4.3.2 0-.5 1.2-.7 2.8-.5 5.5.7 5.7-1 .5-8-2.6-3.6-5-6.6-5.3-6.5-.3 0-1.7.4-3.1.9M765 662.4c-4.7 2.9-12.9 7-18.2 9.1-5.4 2.1-9.8 4.2-9.8 4.6s.8 1.2 1.8 1.8c1.5.9 1.4 1-.5.8-1.3-.1-2.3-.5-2.3-.9 0-1.1-4.8-1-5.5.1-.3.6.4 1.5 1.6 2.1 1.1.7 1.8 1.4 1.5 1.7-.3.4-1.4-.1-2.5-1.1-2.2-2-7.6-1.2-6.7.9.2.7 1.5 6.7 2.7 13.4l2.2 12.1 2.3-3.8c1.2-2 2.5-5.5 3-7.6.7-3.9.5-4.1-4.2-8.2-2.7-2.4-4.6-4.5-4.4-4.8.3-.2 2.7 1.5 5.3 3.9 5.6 5.3 6 8.2 2.2 16.3-1.4 3-2.5 5.8-2.5 6.2 0 .8 6.5 2.5 13.2 3.4 3.2.4 5.1-.4 16-7.3 17.2-10.8 18-11.3 17.1-12.1-.8-.7-23.2-9.3-32.3-12.3-2.5-.9-3.8-1.6-2.9-1.6 2.4-.1 13.8 3.5 25.7 8.1 5.7 2.2 10.5 3.8 10.8 3.5.6-.6-3.7-32-4.5-32.9-.3-.3-4.4 1.7-9.1 4.6M777.2 664.2c.5 4 1.3 9.7 1.8 12.7.6 3 1 7 1 8.8 0 3.3 1.3 4.5 2.3 1.9.3-.7 2-2.4 3.9-3.6 3-2.1 2.8-1.8-1.2 2.3-2.4 2.6-3.9 4.7-3.3 4.7 1 0 19.5-15.9 20.7-17.8.3-.5-1.4-1.9-3.7-3.2s-8.2-4.7-13-7.7c-4.9-2.9-8.9-5.3-9.1-5.3-.1 0 .1 3.3.6 7.2M564.1 663.9c-1.1 2.1-2.9 6.2-4 9.1-1.7 4.5-1.8 5.1-.4 4.5.9-.3 6.3-1.7 12-3.2 5.7-1.4 10.3-2.9 10.3-3.4s-1-1.4-2.2-2c-1.3-.6-4.6-2.9-7.5-5-2.9-2.2-5.4-3.9-5.7-3.9s-1.4 1.7-2.5 3.9M711.6 660.8c-.3.5-3.5 2.9-7.1 5.3s-6.5 4.6-6.5 4.9c0 1.1 21.7 6.6 22.6 5.7.2-.2-1-3.9-2.8-8.2-3.2-7.5-4.9-9.7-6.2-7.7M349.5 676c.6 3.4 7.9 37.2 9 41.8.5 1.9 1.1 2.3 3.7 2 2.9-.3 3.4-.9 5.5-6.3 1.3-3.2 2.3-6.9 2.3-8 0-1.8-17.2-29-20.2-32-.7-.7-.8.2-.3 2.5M581.3 673.8c-1.3.2-2.3.8-2.3 1.3 0 .6-.5.7-1 .4-.8-.5-15.6 2.6-19.6 4.2-.6.2-1.7 3-2.3 6.1-2.1 10.2-3.9 21.7-3.5 22.1.5.5 25.5-4.6 26.2-5.4.3-.3.5-3.1.5-6.2-.1-4.3.1-5 .6-2.8.5 2.3 1.1.4 2.3-8.5.8-6.3 1.5-11.5 1.4-11.5 0-.1-1.1.1-2.3.3M585.6 674.1c-.4 1.4-2.1 13.8-3 21.7-.4 3.6-.2 4.1 1 3.1.8-.6 2.8-3.6 4.5-6.5 1.7-3 3.2-5.4 3.5-5.4.5 0-5 10.6-6.8 13.2-.7.9-1 1.9-.8 2.1.3.2 6.1 1.7 13 3.4 10.8 2.6 12.6 2.8 13.4 1.5 1.1-1.9.2-9.5-2.4-20.8-2.2-9-2.2-9.1-5.8-10.2-2.5-.8-3.8-.8-4.1-.1-.2.6-.8.4-1.5-.5-1.6-2.1-10.4-3.3-11-1.5M683 675.1c-3.6 1.2-7 2.2-7.5 2.4-1.7.5-6.5 22.5-5.8 27l.5 4 12.6-3.2c7-1.7 12.9-3.2 13.1-3.2.3-.1-.7-1.3-2.1-2.9-1.7-1.7-2.6-3.7-2.5-5.4.1-1.6.3-2.8.3-2.8.1 0 1 1.2 2 2.7 1.5 2.4 1.5 2.6.1 1.4-2.7-2.1-2 .3.8 2.9l2.5 2.3v-4.1c0-4.2-1.7-18.4-2.6-21.5-.7-2.2-3.2-2.1-11.4.4M696.4 674.8c.2.9.7 4.4 1.1 7.7 1 9.7 1.6 12 2.7 10.4.7-1 .8-.7.3 1.1-1 3.4-.9 7 .2 8.1.8.8 26.5 7.1 26.9 6.6.4-.4-3.4-21.6-4.6-25.3l-1.2-4.1-9.2-2.1c-5-1.1-9.4-1.8-9.8-1.5-.5.2-.8 2.1-.8 4.1s-.5 4.4-1 5.2c-.7 1.1-.9.2-.4-3 .3-2.5.7-5 .9-5.7.2-.6-1-1.6-2.6-2.2-2.6-.9-3-.8-2.5.7M920.1 688.4c-11.2 16.8-11.4 17.4-7.7 25.1.8 1.6 1.7 3.8 2 4.7.4 1.2 1.5 1.8 3.5 1.8 2.7 0 3-.4 4-4.7.6-2.7 2.9-12.9 5.1-22.7 2.2-9.9 3.9-18.3 3.8-18.8-.2-.5-5 6.1-10.7 14.6M467 682.6l-8.3 8.6 8.7 8.7c9.9 9.9 7.4 9.9 21.5-.3 4.5-3.2 8.1-6.2 7.9-6.6-.3-.8-18.7-17.2-20.6-18.4-.5-.3-4.7 3.3-9.2 8M793.9 683.1c-5.7 5.1-10.5 9.6-10.7 10-.2.3 1.9 2.2 4.5 4.1 11 7.9 15.3 10.8 16.1 10.8 1.2 0 16.2-15.4 16.2-16.6s-13.5-16.7-14.9-17.2c-.5-.2-5.6 3.9-11.2 8.9M327.5 680.4c.3 1.1 1 4 1.6 6.5 1.4 6.5 6.8 24.8 8.5 29.2 1.2 2.8 2.1 3.6 4 3.6 1.8 0 2.3-.4 2-1.6-.3-.9-1.4-4.8-2.4-8.6-1.1-3.9-4.7-12.4-8.1-19s-5.9-11.1-5.6-10.1M628.6 687.2l1.9 2.2-2.7-1.6c-2.5-1.7-2.6-1.6-3.1.5-.3 1.2-1.1 7.3-1.8 13.4-1.1 10.2-1.1 11.4.4 13.1.9 1 1.7 2.3 1.7 2.8s-.5.1-1.1-.9c-1.3-2.2-2.9-1.3-2.2 1.2.4 1.7 1.5 1.9 8.9 2l8.4.1v-35h-12.3zM641 702.5V720h5.3c5.2 0 5.4-.1 8.5-4.5l3.2-4.6-1.5-12.1c-.9-7.2-2-12.5-2.7-13-.7-.4-3.9-.8-7-.8H641zM422.6 689.2c-.6 2.4-3.6 27.5-3.6 29.6 0 .8 2.2 1.2 7 1.2 5.8 0 7.5-.4 9.3-2 1.2-1.2 2.3-1.6 2.5-1s1.9-1.5 3.8-4.6l3.4-5.6-7.3-6.7c-3.9-3.7-8.9-8.2-10.9-10-3.7-3.2-3.7-3.2-4.2-.9M845.8 696.7c-6 5.1-10.8 9.8-10.8 10.4 0 .5 1.9 3.7 4.2 6.9l4.2 6h17.8l-.6-3.8c-.3-2-1.1-8.7-1.7-14.7-.7-6.1-1.5-11.7-1.8-12.6-.5-1.3-2.9.4-11.3 7.8M453.3 698.9c-2.3 3.2-4.5 6.5-4.8 7.2-.3.9 1.7 4 5.1 7.7 7.3 8.1 9.9 8.3 16.1 1.5 2.4-2.5 4.3-5.1 4.3-5.7 0-1.1-15.1-16.6-16-16.6-.3 0-2.4 2.7-4.7 5.9M813.2 701.5c-8.2 8.3-8.9 10.2-3.7 9.8 1.6-.1 1.6-.1.3.3-2.5.8-2.3 1.6 1.5 5.2 4.8 4.7 7.6 4.3 13.4-1.9 7.3-7.7 7.3-7.8 1.9-15.3-2.6-3.6-4.8-6.6-4.9-6.6s-3.9 3.8-8.5 8.5M383.2 697.9c-5.2 2.2-9.7 4.2-10 4.6-.4.4 1.3 4.4 3.8 9.1l4.5 8.4H395v-3.8c0-7.1-1.3-22.2-1.9-22.2-.3 0-4.8 1.8-9.9 3.9M885.7 703.7c-.4 5.4-.7 11.3-.7 13v3.3h13.5l4-7.5c4.6-8.6 4.4-9.5-2.6-13.1-6.1-3.1-11.5-5.4-12.7-5.4-.5 0-1.2 4.4-1.5 9.7M779.5 702.8c-.9 4.2-2 9-2.6 10.6-2.1 6.7-2.7 6.5 16.6 6.5 9.6 0 17.5-.3 17.5-.7 0-.3-1.6-2.3-3.6-4.3l-3.7-3.7-4.9 3.9c-2.7 2.1-5.5 3.9-6.1 3.9-.7-.1.3-1.3 2.2-2.8 8.4-6.6 7.9-5.9 5.6-7.6-1.1-.8-5.9-4.2-10.7-7.6l-8.6-6zM489.9 701.3c-12 8.3-12.5 8.7-11.4 9.5.6.4 3.6 2.6 6.6 5 5.3 4 5.9 4.2 12.2 4.2 3.9 0 6.7-.4 6.7-1 0-1.1-3.8-18.5-4.6-21.3-.3-.9-.8-1.7-1.2-1.7s-4.1 2.4-8.3 5.3M501.3 697.6c.3 1.1.8 3.5 1.2 5.4.3 1.9 1.3 6.5 2.2 10.1l1.5 6.6 3.2-.7c6.5-1.6 18.6-5.4 18.6-6 0-.5-24.2-16-26.3-16.9-.5-.2-.7.5-.4 1.5M773 699c-2.5 1.7-8.4 5.4-13.2 8.2-4.9 2.9-8.8 5.5-8.8 5.8 0 .4 18.5 6.1 21.7 6.6.6.1 2-3.7 3.3-9.5 1.2-5.3 2.4-10.6 2.7-11.9.7-2.9-.3-2.8-5.7.8M565.6 707.5c-7.2 1.7-13.2 3.7-13.4 4.4s-.1 2.8.3 4.7l.6 3.5 9-.3 9.1-.3 3.9-7.4c2.1-4.1 3.8-7.5 3.7-7.6-.2-.1-6.1 1.3-13.2 3M584.5 706.1c1.1 1.3 2.4 2.8 3 3.4.5.5 2.7 3.1 4.8 5.7 3.5 4.4 4.2 4.8 8.2 4.8 4.2 0 4.6-.2 6.5-4.2 1.1-2.3 2-4.5 2-4.9s-5.3-1.9-11.7-3.4c-6.5-1.5-12.5-3-13.3-3.3-1.1-.4-.9.1.5 1.9M682.5 707.2c-6.6 1.6-12.1 3-12.2 3.2-.2.1.7 2.3 2 4.7 2.1 4 2.7 4.4 6.4 4.7 3.8.3 4.3 0 11.2-7.4 3.9-4.2 7.1-7.1 7.1-6.5 0 .5-2.8 4-6.1 7.6l-6.1 6.5H697v-4.3c0-2.3.3-5.9.6-8 .8-4.5 1.2-4.5-15.1-.5M701 704.9c0 .3 1.7 3.7 3.8 7.6l3.7 7 9.2.3c9.1.3 9.3.2 9.9-2.2 1.5-6.2.9-6.7-13.3-10.1-7.3-1.8-13.3-2.9-13.3-2.6M546.5 711.5c-.5.2-3.6.9-6.8 1.5l-5.9 1.2 2.3 2.4c2.8 3 1.4 3.2-1.7.3-2.3-2.1-2.4-2.1-9.1-.5-12.1 3-10.8 3.6 7.5 3.6h17.3l-.3-4.2c-.3-4-1.1-5.1-3.3-4.3M729.6 713.2c-.3 1.3-.6 3.3-.6 4.5 0 2.3 0 2.3 17.7 2.3 9.7 0 17.3-.4 16.8-.8-1.7-1.5-14.4-4.4-16.2-3.8-.9.4-2 .1-2.4-.5s-3-1.5-5.8-2c-2.9-.4-6-1.1-7-1.4-1.3-.4-2 .1-2.5 1.7"/></svg>