<svg xmlns="http://www.w3.org/2000/svg" width="1706.667" height="960" viewBox="0 0 1280 720"><path d="M0 162.2v162.1l31.8-.9c17.4-.5 55.6-.9 84.7-.9 40.6 0 53.5-.3 55.2-1.3 1.2-.6 3.5-1.2 5.2-1.2s3.1-.5 3.1-1.1c0-.9 2.2-2 10-5.1 2.4-1 2.4-1.1.5-1.9-1.5-.7-1-.8 1.8-.5 2.7.4 4 .1 4.4-1 .3-.7 1-1.4 1.5-1.4.6 0 1.9-1.1 3-2.5s2.4-2.5 2.9-2.5 3.2-2.2 6.1-5c2.8-2.7 5.5-4.7 6-4.4 1.7 1.1 5.3-4.1 5.7-8.1.3-3.9 3-7.5 5.8-7.5.7 0 1.3-1 1.3-2.4 0-1.3 1.1-4 2.5-6s2.5-4.1 2.5-4.5c0-1.2 9.8-4.3 11-3.6.6.3.7 0 .5-.8-.3-.7.5-1.9 2-2.7 2.6-1.4 3.3-3 1.4-3-.6 0-.9-.6-.6-1.3.2-.6.9-1.2 1.4-1.2.6 0 2-1 3.1-2.3 2.3-2.6 3.2-2.8 3.2-.7 0 2.8 1.7 1.5 2.4-1.7.3-1.7 1.2-3.9 2-4.7.7-.9 2-5.2 2.9-9.6 2.4-12.2 5.2-21 6.6-20.7.9.2 1.1-1.3.6-5.5-.3-3.2-1-19.8-1.5-36.8-1-31.8-.6-44.3 2.5-70.5.9-6.9 2.2-18.4 3.1-25.5 1.8-15.4 5.8-35.8 11.4-58.3 2.2-9 4-16.5 4-16.8 0-.2-65.2-.4-145-.4H0zM312 1.2c0 .7-2.1 6.2-4.6 12.3-2.5 6-4.8 12.3-5.1 14-1 5.4-1.5 24.9-.7 29.5l.7 4.5 1.1-4.5c.6-2.5 1.4-5 1.7-5.5.3-.6 1.6-4.4 2.8-8.5 3.9-13.3 7.4-23.5 8.2-24.5 1.6-1.7 1 2.2-1.1 7-1.1 2.6-2 5.7-2 6.9s-.5 2.7-1.1 3.3c-1 1-4.9 14.6-5.4 18.8-.3 2.2-.4 2.6-2.9 9.9-2.8 8.3-1.1 6.2 3.6-4.6 10.2-23.1 11.2-26.3 10.9-36.8-.2-6.9-.6-9.8-1.7-10.6-1.5-1.2-2-2.9-.5-1.9 1.7 1 2.2-1.4 1.5-6-.5-3.9-1-4.5-3-4.5-1.3 0-2.4.6-2.4 1.2M323.1 6.2c-2 4-3.1 7.5-3 10.2 0 3.2.2 3.7.9 2.1s.9-1.7.9-.3c.1.9-.3 2-.9 2.3-.5.3-.9 2.2-.8 4.1l.1 3.6 1.8-2.3c2.2-3 13.7-22.1 14.5-24.3.5-1.3-.3-1.6-4.9-1.6h-5.5zM339.2 1.2c-.8 1.1-7.6 12.5-16.5 27.8-1.9 3.4-1.9 4.1-.8 27.5.7 13.1 1.3 24 1.4 24.2.4.3 15.8-25.8 18.7-31.6 2.2-4.5 2.2-4.7 1.1-24-.6-10.8-1.1-20.8-1.1-22.4 0-2.9-1.1-3.5-2.8-1.5M344 6.9c0 4.9.5 7.4 1.5 8.5 1.8 1.7 2 4.3.4 4.8-.9.3-.9 3.4-.4 11.3.5 6.1 1 10.2 1.2 9.2.3-.9.8-1.5 1.3-1.2.4.2 5.3-4.4 10.8-10.3C375 11.8 374.2 13.1 373.4 6l-.7-6H344zM383.5 6.6l-7.7 6.7.6 4.6c.3 2.5.8 9.5 1.1 15.6.7 14.2 1.5 20.5 2.5 20.5.4 0 5.1-2 10.3-4.5 5.3-2.5 9.8-4.5 10.1-4.5s3.9-1.6 8.1-3.6c5.7-2.7 7.5-4 7.1-5.2-.2-1-1.3-9.5-2.2-19L411.5 0h-20.4zM414.7 10.7c.6 6 1.5 13.8 1.9 17.5.4 3.6 1 7.2 1.4 7.8.6.9 3.8.7 13.6-.9 19.4-3.2 29.8-5.3 30.7-6 .4-.4 0-7.1-.9-14.9L459.7 0h-46.3zM462 .7c0 .5.7 7 1.7 14.5l1.6 13.8h5.6c10.4-.1 44.3-1.9 44.8-2.4.3-.3.2-6.4-.2-13.5L514.8 0h-26.4c-14.5 0-26.4.3-26.4.7M517.4 10.5c.4 5.9.9 12 1.3 13.6l.6 3 28.3-.3c15.5-.2 28.5-.6 28.9-.9.3-.4.3-6.4-.1-13.3L575.7 0h-59zM578.4 10.2c.9 14.2 1.3 15.5 4.2 16.2 1.3.4 11.3 1.3 22.2 2.1 10.8.8 23 1.7 27 2.1l7.2.6V0h-61.3zM641 15.6v15.7l7.3-.6c3.9-.3 15.5-1.1 25.7-1.7 26.3-1.6 24.8-1.2 25.4-6.3.3-2.3.8-8.4 1.1-13.5l.7-9.2H641zM702.7 6.7c-.4 3.8-.7 9.8-.7 13.4v6.6l27.7.7c15.2.3 28.1.2 28.5-.2.8-.8 3.7-20.2 3.8-25V0h-58.7zM763.9 1.7c0 1-.6 7.1-1.3 13.6-.6 6.5-.9 12-.6 12.2s11.9.7 25.8 1.1c21.2.6 25.2.5 25.2-.7 0-.8.7-6.1 1.5-11.9S816 4.3 816 2.7V0h-26c-24.1 0-26 .1-26.1 1.7M818 1.2c0 .6-.7 7.1-1.6 14.5s-1.5 13.6-1.3 13.8 8.3 1.5 17.9 2.9 20 3 23 3.5 5.6.8 5.8.6c.4-.4 4.2-30.6 4.2-33.8V0h-24c-17.4 0-24 .3-24 1.2M867 11.7c-.6 6.5-1.6 14.7-2.1 18.3-1 6.1-.9 6.6 1.2 8 2.7 1.8 19.6 9.4 24.4 11 1.9.6 3.5 1.5 3.5 2s1.3 1.1 3 1.5c1.6.4 3.2 1 3.5 1.5 1.1 1.7-7.5-1.5-25.4-9.5-5.7-2.5-10.7-4.2-11.1-3.8-1.1 1.3-7.3 46.2-6.5 47.1s41.4 5.6 42.1 4.9c.4-.3 4.4-71.2 4.4-76.7 0-2-1.8-4.2-7.6-9.3L888.9 0h-20.7zM906.8 6.7l-.3 6.8 5 5.5c2.7 3 6.8 7.3 9 9.6 2.2 2.2 6.3 6.4 9 9.4l5 5.3.6-8.4c.4-4.6 1-14.4 1.4-21.7l.7-13.2h-30zM938.6 10.2c-.3 5.7-.8 16.4-1.2 23.8l-.6 13.5 11.1 18.4L959 84.3l.1-7.4c0-4.1.2-8.1.3-8.9.2-.8.6-8.4 1-16.7l.7-15.3-2.9-5.7c-5.6-11-16.7-29.6-17.8-30-.8-.3-1.3 3.1-1.8 9.9M949.1 10.5c3.2 5.7 7.2 12.5 8.8 15l2.9 4.5.7-8.6c.4-4.8.3-8.9-.1-9.3-1.1-.7-3.4-4.8-3.4-5.8 0-.5.9.5 2 2.2l2 3V0h-18.9zM963.6 16.5c-.6 14.7-.4 17.2 1.2 22.3 2 5.9 8.7 22.1 12.7 30.4l2.2 4.8.7-18.8c.5-12.6.3-18.8-.3-19-.7-.2-.8-1-.1-2.2 1.5-2.7-11-33.4-13.8-33.8-1.8-.3-1.9.7-2.6 16.3M991 .6c0 .3 1.2 5.4 2.6 11.3 7.4 30.7 11.9 53.7 13.4 68.9.6 5.9 1.5 13.6 2 17.2 3.7 25.3 4 56.3.8 107.5-3 50.4-3.2 56.5-1.8 56.5.6 0 1.9.9 2.8 2 1.5 1.6 2.3 1.8 6.2 1 4.5-.9 18-.2 19 .9.3.3 2.2 1.9 4.3 3.4 6.4 4.8 8.5 9 9.7 19.7.6 5.2 1.5 9.9 2 10.4.7.7.2 1.7-1.4 3.1-2 1.6-2.5 3.2-3 9-.3 3.8-.3 6.4 0 5.7.6-1.3 2.5-1.7 2.3-.5-.4 2.2.3 3.3 1.9 3.3.9 0 2.3.9 3 2 .9 1.5 2.3 2 5.2 2 2.2 0 4 .4 4 1 0 .5 2.1 1 4.8 1 2.6 0 6.6.5 9 1 4.2 1 15.9 2.1 43.6 4 13.6 1 19.1 2 10.8 2-2.9 0-4.2.4-4.2 1.4 0 .9 2 1.5 6.6 1.9 4 .3 7 1 7.5 1.8.6 1 .9 1.1.9.1 0-.8 1.6-1.2 4.5-1.2 2.5 0 4.5.4 4.5 1 0 .5 1.5 1 3.4 1 5.1 0 5.4 1.8.4 2.2-2.8.2-4.2.7-4 1.6.4 2-1.2 2.2-17.8 2.5-8.5.2-22.2.9-30.5 1.6-8.2.6-18.7 1.4-23.3 1.7-7.4.5-8.4.8-9.4 2.9-.7 1.7-.7 3 .4 5.1 1.2 2.5 1.8 2.9 5.1 2.6 3.2-.3 3.7-.1 3.7 1.7 0 2.3.3 2.3 23.5 2.3 8.4 0 8.6 0 3.3.8-3.1.4-6.4 1.5-7.3 2.4s-2.3 1.6-3 1.6c-.9 0-1.2.6-.8 1.6s1.4 1.4 2.9 1.1c1.3-.2 3.2.2 4.1.9 1.7 1.1 1.6 1.4-1 3.8-1.5 1.4-3.9 2.6-5.3 2.6s-2.4.6-2.4 1.4c0 1.5-2.1 2.6-4.7 2.6-.9 0-2.3.8-3.2 1.8-1.8 2.1-4.3 2.9-11.7 3.7-6.8.8-8.4 1.4-8.4 3.2 0 1.3-.9 1.5-5.2 1-6.3-.8-16.7 1.1-18.8 3.4-.8.9-2.8 2-4.5 2.6-3.7 1.2-7.3 7.7-8.5 15.4-.5 3-1.3 7.2-1.8 9.4-.6 3.1-.5 4.4.5 5.3 2.1 2 1.6 4.2-.9 3.9-2-.2-2.3.4-2.9 4.3-.6 4.3 0 7.3 1.4 7.1 2.5-.3 5.4.1 6.7.9 1.3.9 1.2 1.3-.6 2.8-1.2.9-2.4 2.5-2.7 3.4-.4 1-1.4 1.8-2.2 1.8-2.8 0-4.5 2.7-4.5 6.9 0 2.6-.5 4.1-1.2 4.1-1 0-1 .2 0 .9 1 .6.2 1.9-3.2 5.3-5 5-4.9 4.7-6.6 24.3-1.5 16.9-2.5 21.3-7 31.1-3.5 7.6-9.1 14.5-14.9 18.4-1.9 1.3-2.7 4.2-6 23-2.2 11.8-4.6 26-5.5 31.5-7.4 45.7-15.6 79.1-27 110.6l-4.3 11.9H1280V0h-144.5C1056 0 991 .3 991 .6m165 365.7c-.1 2.5-2.2 5.7-3.9 5.7-.6 0-1.1.8-1.1 1.8 0 3.6-3.5 4.4-16.1 3.7-6.6-.4-11.9-1.1-11.9-1.6s-.7-.9-1.5-.9-1.5-.4-1.5-.9c0-.6-1.9-1.2-4.2-1.4l-4.3-.4 5-.1c3.8-.2 5.3-.7 6.3-2.2.7-1.1 1.9-2 2.7-2s1.5-.5 1.5-1c0-.6 2-1 4.5-1 2.4 0 4.9-.6 5.6-1.3.8-.8 3.8-1.1 10-.9 8.4.3 8.9.5 8.9 2.5m-44.5 79.3c4.4.4 8.2.8 8.5.9s1.2.4 2 .8c.8.3 2.7.8 4.2 1.1 1.5.4 3.2 1.5 3.8 2.6 1 1.8.7 2-2.7 2.1-2.1.1-4.2.1-4.6 0s-5.8-.3-12-.6c-12.2-.5-14.3-.7-15.3-1.8-.4-.4-1.6-.7-2.6-.7s-1.8-.5-1.8-1c0-.6-.7-1-1.5-1-1.5 0-2.1-2.1-.9-3.3.6-.6 10.8-.2 22.9.9m-23.3 7.6c.3.7 2.7 1.2 6.4 1.2 4.5.1 5.9.4 5.9 1.6s-1.3 1.5-5.9 1.5c-6.1 0-7.9 1.2-5.1 3.5.8.7 1.5.9 1.5.4s.5-.2 1 .6c.6 1 1 1.1 1 .2 0-1.9 7.6-1.6 8.4.4.3.9 1.3 1.4 2 1.1 2.8-1.1 3.5 4.5.9 7.2-3.5 3.6-5.7 4.1-13.5 3-4-.5-7.9-1.1-8.5-1.1-.7-.1-1.1-.3-.9-.6.3-.2-.7-1.4-2-2.6-2.2-1.8-2.4-2.5-1.5-4.9.6-1.6 1.5-2.6 2-2.3.5.4 1.6-.1 2.4-.9.9-.8 2-1.5 2.6-1.5 1.9 0 1.2-1.8-1.4-3.8-2.7-2.2-3.3-3.4-1.1-2.6.8.3 1.7.1 2.1-.5.8-1.5 3.2-1.4 3.7.1m118.2 229.5c1.7 5.1 3.3 9.3 3.7 9.3s2.2-4.3 3.9-9.5c2.5-7.6 3.5-9.5 5.1-9.5 1 0 1.9.2 1.9.4s-2.1 6.1-4.6 13c-3.7 10.1-5 12.6-6.5 12.6-1 0-1.9-.2-1.9-.4 0-.3-2-6.2-4.5-13.1-4.3-12.1-4.4-12.6-2.3-12.3 1.8.2 2.7 2 5.2 9.5m29-.5c1.4 1.3 2.8 3.5 3.2 5l.6 2.8h-7.2c-6.8 0-7.1.1-6.8 2.2.4 2.9 5.1 4.7 7.8 3 4.3-2.7 6.9-.6 2.8 2.2-3.6 2.6-8.5 2-11.9-1.3-8.1-8.1 3-21.5 11.5-13.9m20.9-1c3.4 1.8 4.6 4 4.7 8.5 0 8.5-9.4 12.6-15.4 6.7-3.9-4-3.7-10.3.5-13.8 3.3-2.8 6.7-3.3 10.2-1.4M296.1 13.8c-1.9 5.9-3.5 11.6-3.6 12.7s-.5 3.7-.9 5.8c-.7 3-.5 4.2 1 5.8 1.4 1.6 1.5 2.2.5 2.8-.8.5-1.4 3.4-1.6 7.7-.3 6.5-.2 6.7 1.1 3.9.7-1.7 1.3-3.9 1.4-5.1 0-1.1.9-5.5 2-9.8 1.2-4.3 1.8-8.1 1.6-8.4-.3-.3-.1-1 .4-1.7.9-1.1 2.7-24.5 1.9-24.5-.2 0-1.9 4.8-3.8 10.8M365.2 25c-4.6 4.9-8 9.4-7.7 10 .3.5 0 1-.9 1-1.8 0-8.9 8.1-7.9 9 1.9 1.5 24.2 9 26.9 9 .9 0-.3-34.7-1.4-36.5-.6-1.1-2.8.7-9 7.5M905.6 24.3c-.3 3.9-.7 12.3-1 18.4-.5 13.4-1.2 12.9 12.2 8.2 4.8-1.7 9.7-3.3 10.9-3.6 4.4-1 4.5-2.8.7-7.1-2.4-2.8-4.1-3.9-5.1-3.5-1.3.5-1.5.2-1-1.1s-.7-3.2-4.3-7.1c-2.8-2.8-5.8-6.2-6.6-7.4-.8-1.1-2.3-2.5-3.4-3.1-1.7-.9-1.9-.4-2.4 6.3M493.5 30.1c-22.2 1-27.5 1.6-27.5 3.2 0 1.2 5.5 43.9 6.6 51.4.7 5.1-.4 4.8 24.4 6.3 9.6.6 19.4 1.3 21.7 1.6l4.1.5-.4-4.3c-.2-2.4-1-12.2-1.9-21.8-1.9-23-3.4-36-4.1-37.1-.3-.5-1.3-.8-2.2-.7-.9 0-10.2.5-20.7.9M519.7 29.7c-.7 1.5 5.2 60.5 6.3 62.3.6 1 43.5 5.9 52.4 6h2.9l-.6-8.8c-.4-4.8-1.2-20.3-1.9-34.5L577.6 29h-28.7c-15.8 0-29 .3-29.2.7M580 32c0 5.6 3 58.5 3.6 62.7.5 3.8.8 4.3 3.1 4.3 1.5 0 13.1.7 26 1.6 12.8.9 24 1.4 24.8 1 1.3-.5 1.5-4.9 1.3-34.3l-.3-33.8-8-.7C615 31.4 585.1 29 582.6 29c-2.2 0-2.6.4-2.6 3M672 31c-12.9 1-25.1 2-27 2.2l-3.5.4-.3 34.4-.2 34.3 11.7-.8c6.5-.4 14.3-.9 17.3-1.1 3-.1 10-.6 15.6-.9l10.1-.7 1.1-21.1c2.7-48.4 2.7-48.7.6-48.6-1.1.1-12.5 1-25.4 1.9M701.5 30.2c-.2.7-.9 13-1.5 27.3s-1.3 29.3-1.6 33.4l-.4 7.4 8.7-.6c10.5-.8 45.5-4.5 45.9-5 .3-.2 4.5-41.9 5.8-57.3l.4-5.1-13.5-.6c-23.1-1.2-43.3-.9-43.8.5M761 30.1c0 .2-1.1 12.5-2.5 27.4-1.4 14.8-2.5 28.9-2.5 31.3v4.3l5.3-.6c2.8-.3 13.7-1.2 24.2-2 10.4-.9 19.2-1.9 19.6-2.3 1.2-1.2 7.7-55.7 6.8-56.6-.5-.5-50.9-1.9-50.9-1.5M446.5 34.6c-7.7 1.2-17.3 2.8-21.3 3.5l-7.4 1.2.7 3.4c.3 1.9 1.5 10 2.6 18.1s2.4 17.5 3 20.8l1.1 6.2 8.1.6c11 .8 36.5 1.2 37.1.5.3-.3-.1-4.7-.9-9.9-.7-5.2-2.4-17.9-3.6-28.3-1.9-15.6-2.5-18.7-3.8-18.6-.9.1-7.9 1.2-15.6 2.5M814.6 33.7c-.3 1-1.7 12.1-3.1 24.8-1.4 12.6-2.8 24.7-3.1 26.8l-.6 3.9 22.8-.7c14.4-.4 23.1-1.1 23.5-1.7 1.1-1.7 8-47 7.3-47.7-.4-.4-42.7-7.1-45.1-7.1-.6 0-1.4.8-1.7 1.7M316.1 44.3c-1.4 3.4-3.7 8.9-5.2 12.2-5.1 11.2-7.9 19.3-6.6 19.8.9.3.9.8-.1 2-1.1 1.3-1.2 3.6-.2 12.9 1.9 17.4 2.7 23.6 2.9 20.1 0-1.7.5-3.3 1-3.5.6-.2 1.5-3.4 2.1-7.3.6-3.8 1.3-7.1 1.6-7.4.2-.2 1.3.5 2.3 1.6 2 2.1 1.3 5.2-.8 3.9-.7-.5-1.1.3-1.1 2.2 0 1.6-.9 5.5-2 8.8-3.4 9.7-.4 4.7 4.5-7.5 4.6-11.6 5.4-14.9 3.2-12.1-1.9 2.4-3.9 1.8-5-1.4-1.2-3.5.5-4.9 4.1-3.5 1.5.6 2.9.6 3.4.1.7-.7-.8-46.1-1.6-46.9-.1-.1-1.2 2.6-2.5 6M400.6 47c-7.6 3.3-15.7 6.5-17.9 7.2l-4 1.2.7 8c.3 4.5.6 12.4.6 17.6s.4 10.1.9 10.9c.7 1.1 2.7 1.1 11.7.2 28.5-3 29.4-3.2 29.4-5.3 0-3.2-4-35-5.1-40.6-.6-2.8-1.3-5.2-1.7-5.2s-6.9 2.7-14.6 6M962.9 42.5c-.1 1.1-.3 3.1-.5 4.5-.1 1.4-.5 11.3-.8 22-.5 17.6-.4 19.9 1.3 24 1 2.5 3.1 7.8 4.6 11.8s2.9 7.2 3 7c.5-.5-1.6-9-3.1-12.6-.9-2-1.1-3.9-.6-4.8.7-1.2 1.2-.6 2.6 2.3.9 2.2 1.6 4.3 1.5 4.9-.1.5.1 3.1.6 5.9.5 2.7.8 5.5.7 6.1s.4 2.6 1.1 4.4c1.4 3.2 1.4 3.1 2.5-5.6.7-4.9 1.7-14.3 2.3-20.9 1.1-11.8 1.1-12.1-1.4-18.5-6.4-16.3-13.7-32.3-13.8-30.5"/><path d="M983.4 50.5c.4 4 .3 5.3-.3 4-.7-1.5-.9-.4-.9 4 .1 3.3.3 4.5.5 2.7.7-5.1 2-3.7 1.7 1.8-.2 2.8.1 5 .6 5 .6 0 1-.5 1-1.2 0-.6.3-.8.6-.5.4.4.1 1.4-.6 2.2-1.2 1.5-1.5 1.4-2.6-.6-1.1-2.2-1.2-2.1-1.2 1.4 0 2.5.5 3.7 1.4 3.7s1.4 1.1 1.3 3.2l-.1 3.3-.8-3c-.7-2.6-1.6-1.7-1 1 .1.5.2 2.3.1 4 0 1.6.4 4.3.9 6 .5 1.6 1.1 5.1 1.5 7.7.3 2.6 1 5.8 1.5 7 .8 2.2.9 2.2.9-.5.1-1.5.5-2.7 1-2.7.4 0 1.1-5.1 1.5-11.3.6-10.6.5-12-2.9-26.7-2-8.5-3.9-15.7-4.2-16s-.3 2.2.1 5.5M346.3 53c.4 3.5.7 15.6.7 26.9s.4 21.2.9 22c.7 1.1 2.5.8 10-1.3 5.1-1.5 11.6-3.6 14.6-4.7l5.5-2v-8.3c0-4.6-.3-12.4-.7-17.5-.5-7.6-.9-9.1-2.1-8.6-1.2.4-1.3.3-.2-1 .7-.9 1.1-1.7.9-1.8-.8-.5-23.8-7.8-25.8-8.2-1.2-.2-2.6-.7-3.3-1.1-.8-.5-.9.9-.5 5.6M921.5 51.2c-6 2.3-12.4 4.3-14.2 4.5l-3.1.5-.6 8.6c-1.8 27.2-1.8 27.8-.4 28.9s29.9 10.6 30.3 10.1c.2-.2.5-13 .8-28.6.4-20.9.2-28.2-.6-28.1-.7 0-6.1 1.9-12.2 4.1M341.6 54.3c-16.3 27.8-17.8 30.8-16.2 32.6 2.2 2.4 2 3.4-.4 2.1-1.9-1-2-.7-2.1 6.7 0 4.3-.3 13.6-.5 20.8-.3 11-.1 12.7 1 11.2 2-2.6 3-2 1.2.8-3 4.6-.1 2.5 3.9-2.8 2.2-3 6.7-8.8 9.9-13.1l5.9-7.7.4-19.7c.2-10.8.1-23-.4-26.9l-.8-7.3zM937 52.5c0 1.1-.3 10.8-.6 21.5-.6 20.2.1 32.4 1.7 31.5.5-.4.6 0 .3.8-.2.7 1.4 3.9 3.8 7 12.6 16.4 16.1 20.7 16.9 20.7.5 0 .7-1.5.5-3.3-.2-1.7-.4-10.3-.5-18.9-.1-12.5-.4-16-1.6-17.2-1.7-1.7-2-3-.5-2.1.6.4 1-.7 1-2.5 0-3.5-2-7.4-12.7-25-3.8-6.4-7.3-12.2-7.6-13-.4-1.1-.6-.9-.7.5M299.7 86.2c-.2 1.3-1.7 8.1-3.1 15.2-2.7 13-3.1 17.8-.7 8.6 1.5-5.8 3.1-7.4 3.1-3.1 0 1.6-.4 3.3-1 3.6-1.9 1.2-1.1 6.3 1.3 8 1.2.8 2.1 1.8 2 2-.2.3-.3.8-.2 1.2.1.5.5-.3.9-1.7l.8-2.5.1 2.7c.1 1.6.6 2.8 1.2 2.8.5 0 .8-.3.6-.8-.3-.4-.8-5.9-1.2-12.2-.6-11.3-2.2-25-2.9-25.7-.2-.2-.6.6-.9 1.9M980.7 89c-.8 4.5-2.6 21.7-3.1 29.7-.3 6.4.7 8.4 1.8 3.7.4-1.5.9-2.4 1.3-2.1.3.3 1.6-.6 2.9-2.1 1.7-2 2.3-2.3 2.4-1.1 0 .9-.9 2.4-2 3.4-1.2 1-1.9 2.4-1.6 3.1s-.7 2.1-2.2 3.1l-2.7 1.8 2.1 11.5c1.7 9 2.2 10.5 2.3 6.9.1-3.3.5-4.6 1.6-4.6 1 0 1.3.7.9 2.4-.4 1.4-.2 2.3.5 2.3 1.7 0 1.3-7.6-.5-9.4-.8-.9-1.9-1.4-2.2-1.2-.4.2-.6-1.3-.4-3.4.3-3.1.7-3.7 2.3-3.3 1 .3 1.9 1 2 1.7 0 1.1 1.7-2.2 1.8-3.8.1-.4-1-.6-2.4-.4-1.4.3-2.5.1-2.5-.3 0-.5 1.1-1.1 2.5-1.5 2.9-.7 3.1-2.4 1.3-12.1-.8-4.2-1.5-5.9-2-5.1-.6.9-.8.7-.4-.7.3-1.1-.3-6.5-1.3-12-1.5-8.6-1.8-9.5-2.4-6.5M828.8 90.8C808 91 808 91 808 93.3c0 3.5 3 40.8 3.6 44.4.3 1.8.8 3.2 1.2 3.2 1.9-.3 2.5.2 1.2 1.1-2.1 1.4 1.9 1.3 21.2-.5 24.2-2.2 22.8-1.8 22.8-6.8-.1-5.5-3.6-42.6-4.1-43.1-1-.9-6-1.1-25.1-.8M410.2 92.5c-4.6.7-12.2 1.6-17 2-12.5 1-13.2 1.4-13.2 7.3 0 2.7-.4 9.8-1 15.8-.5 6-1.2 13.3-1.4 16.2l-.5 5.2 20.7-.2 20.6-.3.8-4.2c.4-2.4 1.2-11.6 1.8-20.5.6-9 1.3-17.8 1.6-19.6.7-3.8.8-3.8-12.4-1.7M425.6 91.8c-.3.5-1 7.6-1.6 15.8-.5 8.2-1.3 18.6-1.6 23l-.6 8.2 2.8.6c5 1.1 23.1 1.5 20.9.5-1.4-.7-.7-.8 2.5-.4 2.4.3 5 1.1 5.7 1.7.7.5 2.5.7 4 .4 1.8-.4 2.3-.3 1.5.2-1 .7-.5 1.1 1.8 1.6 5.1 1 5.5.8 5.8-2.2.1-1.5.8-10.6 1.7-20.2.8-9.6 1.6-20 1.9-23.1l.4-5.7-6.2-.5c-10.8-.9-38.4-.8-39 .1M793.5 92c-27.6 2.3-37 3.2-37.4 3.6-1 .9 2.2 56 3.2 57.1.4.3 8.4-.9 17.9-2.6 9.5-1.8 19.8-3.7 22.8-4.2s6-1.6 6.6-2.4 1.4-1.1 1.9-.7c.8.8-.1-19.7-1.6-32.8-.5-4.7-.9-10.6-.9-13.1 0-3.3-.5-4.9-1.6-5.3-.9-.3-1.6-.5-1.7-.4-.1 0-4.2.4-9.2.8M857 94.1c0 3.4 2.7 33.8 3.6 40.6l.5 4.3h42.1l-.7-9.3c-.8-11.8-2.7-34.1-2.9-34.4S861.1 91 858.8 91c-1.3 0-1.8.8-1.8 3.1M473.6 93.2c-.6 1.9-3.6 41.6-3.6 46.5 0 4.7 0 4.7 10 6.2 3.6.5 11.2 1.9 17 2.9 14.6 2.7 22.7 3.6 21.5 2.4-.5-.6-2.6-1.2-4.5-1.5-3-.3-2.9-.4 1.2-.5l4.7-.2.5-5.3c1.3-12.1 2.7-47 1.9-47.8-.5-.5-10.5-1.5-22.3-2.4-26.1-1.8-26-1.8-26.4-.3M319.1 96.7c-1.7 3.6-6.1 15.4-6.1 16.1 0 .3.7-.3 1.5-1.4 1.3-1.7 1.3-1.5.1 2.1-.7 2.2-1.6 5.7-1.9 7.7-.5 3.6-.4 3.8 2.2 3.8 1.5 0 3.2.5 3.8 1.1.7.7 1.2-3.8 1.5-15.3.3-9 .5-16.4.4-16.6-.2-.1-.8 1-1.5 2.5M961.5 115.6c.2 11.7.8 21.9 1.1 22.8s1.2 1.6 2 1.6c1.6 0 1.9 1.7.4 2.2-1 .3.6 6.3 3 11.3.5 1.1 2.3 5.3 3.9 9.4l2.9 7.5.1-6.9c0-7.5-1-10.7-2-6-.4 1.8-.7-.6-.8-6.1-.1-5.3-.6-9.5-1.3-10.2-.8-.8-.8-1.5.1-2.6.8-.9 1-2.7.6-4.5-.5-2.2-.2-3.2 1.1-3.9 1.1-.6 1.5-1.6 1.1-2.8-1-3.3-6.4-17.6-9.7-25.4l-3.1-7.5zM525.6 101.2c-.7 6.1-2.6 44.6-2.5 49.2.1 3 .1 3 .9.6l.8-2.5.1 2.7c.1 2.4.5 2.8 3.2 2.8 1.7 0 3.9.4 4.9 1 1 .5 3.6 1.2 5.7 1.4s4.5.6 5.3.9c1.5.6 6 1.5 21 4.2 4.7.9 9.2 1.8 10.1 2.1 1.9.5 3.4-4.3 1.5-4.9-.8-.3-.8-.8.1-1.8 1.2-1.5 5-54.5 4-55.6-.4-.3-6.8-1.2-14.4-1.9s-17.8-1.8-22.8-2.3c-4.9-.6-10.9-1.1-13.2-1.1h-4.2zM720.2 98.5c-11.7 1.2-21.5 2.5-21.8 2.8s.2 11.9 1 25.9c.9 13.9 1.7 27.5 1.8 30.1.2 6.4 1.2 7 9.3 5.7 7.4-1.2 44.7-8.8 45-9.2.4-.5-1.3-41.9-2.1-50.1l-.7-7.7-5.6.1c-3.1.1-15.2 1.2-26.9 2.4M902.5 103.2c.4 4 1.1 10.9 1.6 15.3s.9 10.5.9 13.7q0 5.7 1.5 7.2c2.4 2.4 31.9 11.7 32.3 10.2.3-1.3-4.5-42.7-5-43.1-.6-.5-30.4-10.5-31.1-10.5-.5 0-.5 3.3-.2 7.2M361 101.7c-7.4 2.5-13.7 4.6-13.8 4.8-.7.6-4.2 32.1-4 35.8.1 2 .5 3.4.9 3.1 1.3-.7 1.8 1.1.8 2.6-.8 1.3-1 1.3-1.9 0-.8-1.3-1-1.2-1 .2 0 1 .6 1.8 1.4 1.8 2.5 0 9.6-3.7 8.8-4.6-.4-.4 0-.3.8.3 1.4 1.1 6.4-.2 17.7-4.6 3.8-1.5 4.1-2.5 5.3-17.9.5-6.4 1.2-15 1.6-19 .8-8.8 1.8-8.7-16.6-2.5M583.5 105.5c-.9 7.2-2.9 52.7-2.6 58.2.1.7.5 1.3 1 1.3s.7-1 .4-2.3l-.6-2.2 2 2.2c1.3 1.5 3.9 2.5 7.9 3.2 3.2.5 6.3.7 6.7.4s1.3 0 2 .5 8.2 1.7 16.7 2.6c8.5 1 16.7 1.9 18.1 2.1 2.6.3 2.7.1 3.2-5.4.2-3.1.5-17.9.6-32.9l.2-27.2-2.3-.9c-1.3-.4-8.6-1.2-16.3-1.6s-19.1-1-25.2-1.4l-11.3-.6zM668 102.8c-11.3.7-22 1.5-23.8 1.8l-3.3.5.2 27.2c.1 15 .4 29.3.6 31.9.5 4.5.7 4.8 4.2 5.9 2.8.8 6.6.7 16.1-.5 6.9-.8 17.3-2.1 23.2-2.7 5.9-.7 11.3-1.6 11.9-2 .8-.4 1.1-3.8 1-9.5-.1-8.5-1.1-31.3-1.6-35.8-.1-1.1-.3-5.8-.4-10.3l-.1-8.3-3.7.2c-2.1.2-13 .9-24.3 1.6M341.6 112.1c-.8 1.2-1.2 2.7-.9 3.2.3.6.1.7-.4.4-1.4-.9-6.6 6-5.7 7.5.4.6.3.8-.3.5-1-.6-8.7 8.5-9.9 11.7-.3.9.6 1.9 2.5 2.7 1.7.8 3.1 1.7 3.1 2.1 0 .5 1 .8 2.2.8 1.6 0 1.9.3 1.1 1.1-.9.9-2.2.7-5.3-.9l-4.2-2 .7 2.5c.5 2.1.3 2.4-1.4 1.8-1.6-.5-1.9 0-2.3 4-.2 2.5 0 4.5.4 4.5.5 0 .8.5.8 1.1 0 .5-.4.8-.9.5-.8-.5-1.1 1.3-2.7 16.1l-.6 5.8 7-7.5c9.3-10.1 12.5-14 11.5-14-.4 0-.1-.6.8-1.3 1.5-1.2 2.1-3.6 3.9-16.7 1.9-14.9 3-25.3 2.6-25.7-.2-.2-1.1.6-2 1.8M937.6 116.1c2.4 25.1 4.1 35.6 6.6 38.7 4.8 6.4 13.2 15.1 14.1 14.9.7-.1 1.1.3 1 .9-.1.7.7 2 1.8 3 2 1.8 2 1.8 1.3-8.6-.6-8.9-2.1-17.5-2.3-13.2-.1.7-.5 1-1.1.7-1.5-.9-1.2-2.5.5-2.5.9 0 1.5-.9 1.5-2.5s-.6-2.5-1.6-2.5c-.8 0-1.2-.5-.9-1 .3-.6-.1-1-.9-1-2 0-2-1.4-.1-3 1.3-1 1-1.8-1.7-5.9-3-4.3-14.4-18.7-17.4-22-1.1-1.2-1.3-.6-.8 4M864.4 142.7c-1 1-1.3 1-1.7 0-1.1-2.6-.5 4.1.9 11.3.8 4.1 1.6 8.3 1.7 9.4.1 1.7.8 1.8 7.6 1.2 4.1-.3 8.8-.6 10.5-.7 1.7 0 2.5-.3 1.9-.6-2.4-.9-1.3-2.3 1.7-2.3 2.3 0 2.8.4 2.3 1.6-.5 1.4.6 1.5 9.3.9 5.5-.4 10.3-1.1 10.7-1.5.5-.4.5-1.6-.1-2.6-.5-1.1-1.7-5.2-2.7-9.2-1-4.1-2.3-7.5-2.9-7.8-.6-.2-9.4-.5-19.5-.7-14-.2-18.7 0-19.7 1M376.9 142.2c0 .2-.2 4.8-.4 10.3-.1 5.8.1 9 .5 7.5.8-2.4 1.2-2.1 1.4 1 .1 1.1 1.7 1.6 6.9 1.8 4.6.2 6.7-.1 6.2-.8-1-1.6.5-3.3 1.8-2.1 1.7 1.4 8.2 2.4 10.6 1.6 1.2-.3 2.1-1.4 2.1-2.2 0-.9.3-1.3.7-.9.4.3 1.3-.4 2.1-1.6 1.3-2.2 1.3-2.2.8.7-.6 3 .2 1.6 4.9-9 3.1-7.1 4.6-6.5-17.5-6.5-11 0-20 .1-20.1.2M420.4 146.5c-.3 2.5-.4 4.9 0 5.2.3.4.6-.1.6-1 0-1.2.8-1.7 2.8-1.7 1.9 0 2.3.3 1.3.9-.9.6-1 1.1-.2 1.5.6.4 1.1 2 1.1 3.5 0 2.4.5 3 3.3 3.6 1.7.4 4.2.7 5.4.6 1.1-.1 2.4.3 2.8.8.9 1.6 2.5 1.3 2.5-.4 0-2.5 6.7-2 7.5.5.5 1.7 1.5 2 6.1 2 3.9 0 6-.5 7.2-1.8 2.1-2 2.9-8.2 1.2-8.2-2.1 0 .1-2 2.3-2.1 1.8-.1 1.6-.3-.8-1-1.6-.5-3.8-.6-4.7-.3-1 .3-1.8 0-1.8-.6s-.6-1-1.2-.8c-2.3.4-20.3-1.4-21.3-2.1-1.4-1.1-8.9-3.1-11.3-3.1-1.7 0-2.2.8-2.8 4.5M843 143c-3 .4-10.2 1.3-16 1.9-14.2 1.5-15.2 1.8-14.6 3.9.3.9.8 4.8 1 8.6.7 10.2 1.7 15.6 2.7 15 .5-.3.6.3.2 1.2-.5 1.4-.2 1.6 2.3 1 1.6-.4 3.6-.8 4.4-.9 8.7-1.4 14.9-3.2 13.4-3.7-1.5-.6-1.4-.8.8-1.2 1.5-.3 2.5-.1 2.2.3-.3.5.4.9 1.6.9 3.7 0 21-4.3 21-5.2 0-.5-.6-.6-1.2-.2q-1.35.9 0-.9c1.4-1.7 1.3-3.6-1-16l-1.1-5.7-5.1.1c-2.8.1-7.6.5-10.6.9M363.2 146.3c-5.2 1.8-9.8 4.1-10.3 5-.6.9-1.7 1.7-2.5 1.7-2.2 0-1.1 2.4 1.2 2.8 1 .2 2.9 1.3 4.1 2.4 1.3 1.2 2.9 1.8 3.8 1.4.9-.3 1.3-.2 1 .4-1.2 1.9 1.2 1 3.2-1.3 3.4-3.7 10.4-15.9 9-15.7-.1.1-4.4 1.6-9.5 3.3M907.7 144.6c1 2.7 7.3 13.6 9 15.5 1.7 2 6 1.4 8.8-1.1 1.1-1 3.9-2.6 6.3-3.5 2.3-1 4.2-2.1 4.2-2.5s-6-2.7-13.2-5c-7.3-2.3-13.9-4.5-14.6-4.7-.8-.4-1 .1-.5 1.3M799 148.6c-4.1.8-13.6 2.6-21 4-16.4 3-18.7 3.9-17 5.9.7.9 1 1.9.6 2.2-.4.4-1.2.1-1.7-.7-.8-1.1-.9.4-.5 4.9.3 3.5.6 10 .7 14.5.1 5.6.3 7.3.9 5.6.5-1.7.8-1.9.9-.8.1 1 .6 1.8 1.2 1.8s.9.7.6 1.4q-.6 1.5.9.9c.7-.3 1.4-1 1.4-1.7 0-.8.3-.7.8.1.8 1.3 5.2.6 5.2-.8 0-.5-.4-.9-1-.9-1.1 0-1.4-3-.2-3 14.3-.4 18.2-.4 18.5.2.1.4 1.5.4 3.2 0 2.6-.7 2.7-.9 1-1.6-1.9-.8-1.8-.9.5-1.6 1.4-.3 3.2-.2 4.1.3 1.1.7 3 .5 6-.7 4.2-1.6 4.3-1.6.9-1.2-3.4.5-2.5-.3 2.3-1.8 1-.3 1.7-1.5 1.7-3.1 0-1.5.4-2.4 1-2 1.2.7 1.4-8.8.3-16.1-.6-4.3-.8-4.5-1.3-2l-.5 2.9-1.5-2.8c-1.2-2.2-1.2-2.9-.2-3.2 1.3-.5 1.7-2.4.5-2.2-.5 0-4.2.7-8.3 1.5M468.8 153c-.9 6.7-.9 15.4 0 12.5.8-2.4 7.2-3.6 7.2-1.3 0 1.7 4.6 3.8 8.6 3.8 1.8 0 3.4.4 3.6.9.2.6 3 .7 7.3.2l7-.8-5.5-.3c-5-.2-4.6-.4 3.5-1.1 9.5-1 15.5 0 7.5 1.1-3.6.5-2.8.7 3.8.7l8.2.1v-3.7c0-3.6-1.9-8.4-2-5.1-.1 1.2-.3 1.1-1.1-.3-.5-.9-1.5-1.7-2.2-1.7s-3-.5-5.1-1.1c-2.6-.7-3.5-1.3-2.6-1.9 1.7-1.1.1-1.5-14.5-3.9-18.4-3-21.3-3.4-19.3-2.1 1.9 1.2 1.3 5-.8 5-1.7 0-1.8 3.2-.2 4.8.9.9.9 1.5.1 2.3-1.4 1.4-2.1-1.1-2.5-8.6l-.3-5z"/><path d="M939 154.8c0 .7-.8 1.2-1.9 1.2-1 0-2.4.7-3.1 1.5s-2.5 1.5-4.1 1.5-2.9.4-2.9.9c0 1.1-3.9 2.6-5.7 2.3-2.4-.5-1.3.7 2 2.2 3.9 1.8 18.7 7.6 19.3 7.6.2 0 .4-1.1.4-2.5s-.4-2.5-1-2.5c-.5 0-1 .4-1 .8 0 1.4-4.8 1.2-5.9-.2-1.6-1.9.5-3.2 2.4-1.6 1.4 1.2 2 .4 1.6-2.2 0-.4.5-.5 1.3-.2 1.1.4 1.2-.4.5-4.2-.9-4.5-1.9-7-1.9-4.6M750 158.1c-11.5 2.1-15 3.1-14.4 4.1.5.7.1.7-1.1.1-1.2-.7-5.6-.2-14.9 1.7-7.2 1.5-14.1 3-15.3 3.4-2.3.7-2.3.9-2.1 17.9.1 9.5.4 13.9.5 9.9.4-7.3 1.6-9.3 2.7-4.7.4 1.4 1.1 2.5 1.6 2.5.6 0 1.5 1.1 2 2.4 1.3 3.4 10.9 8 14.9 7.1 3.8-.8 6-4.9 5-8.9-.5-1.6-.6-3.4-.2-3.9.3-.5.8-3.2 1.2-6 .4-3.8 1.1-5.3 2.4-5.5 2.7-.5 5.2 6.9 6 18 .1 1 .9 1.8 1.9 1.8s1.8.4 1.8.9c0 1.2 1.9.9 4.5-.7l2-1.1-2-.1c-1.5-.1-1.6-.3-.5-.7 2.2-.9 4-3 4-4.7 0-2 1.6-2.1 2.4-.1 1.2 3.3 2.4 1.2 2.1-3.8-.2-2.8-.1-4.2.2-3 .9 4.4 2.3 2.2 2.3-3.5 0-8.8-1.2-24.2-1.9-24.1-.3.1-2.6.5-5.1 1M943.6 160.5c.9 6.9 3.3 14.3 4.9 14.9.8.3 1.5.1 1.5-.4 0-.6.5-1 1-1 .6 0 1 .7 1 1.5s.3 1.5.8 1.5c.4 0 2.3 1.9 4.2 4.3 1.9 2.3 2.7 3.6 1.7 2.8s-1.7-.9-1.7-.3.9 1.6 2 2.2c1.7.9 2 .8 2-1 0-1.2.4-1.9.9-1.6s1.1 0 1.4-.8c.4-.9-.2-1.2-1.9-1-1.3.1-2.2-.1-1.9-.6s-.7-1.8-2.1-2.9c-1.5-1.2-2.5-2.4-2.2-2.6.3-.3 1.7.4 3.2 1.6s2.9 1.9 3.2 1.7c.6-.7-13.8-16.8-15.1-16.8-.6 0-1.6-1.2-2.2-2.8-1.1-2.5-1.1-2.4-.7 1.3M528.7 159.2c.2.5 1.1.8 1.9.8 2 0 1.9 6.6-.1 7.4-1.2.4-1.4 1.4-.9 4.3.4 2.1 1.1 3.9 1.5 4.1.5.2.9 1.2.9 2.3 0 1.6.7 1.9 4 1.9s4-.3 4-2c0-1.6-.7-2-3-2-2.1 0-3-.5-3-1.6 0-1.4.8-1.6 4.2-1.1 2.4.3 4.4 1.1 4.6 1.6.2.6 1 1.1 1.8 1.1s1.4.4 1.4.9.9.7 2 .4 2-1.2 2-1.9c0-.8.5-1.4 1-1.4.6 0 1 .8 1 1.9 0 1.6 1.1 2 7.3 2.6 3.9.4 9.5.8 12.2.8 4.1 0 4.3 0 1.3.4-2.1.2-3.8 1-3.8 1.6 0 1.3 3.8 1.5 5.7.4.9-.5 1.3 1 1.6 5 .2 3.2.4.3.5-6.5.1-7.6-.2-12.2-.8-12.2-.5 0-1.3 0-1.6.1-.4 0-1-.3-1.3-.8-.5-.9-6.5-2.2-29.6-6.9-3.8-.8-7.6-1.2-8.5-.9-1.6.7-2.6.4-2.3-.6.1-.4-.8-.6-2.1-.5-1.3 0-2.2.4-1.9.8M583 168.8c0 .6.7 1.7 1.5 2.6.9.8 1.2 2.2.8 3.2-.6 1.6-.7 1.6-1.4-.2-.9-2.4-1.2 5.9-.3 10.4 1.1 5.3 7.6 4.7 8.2-.7.4-3.5 1-3.8 2.8-1.3 1.3 1.9 2.2 2.1 7.4 1.8 5.7-.3 6-.2 6 2 0 2.3.3 2.5 7.2 3.8 1.1.3 1.5-.1 1.1-1-.3-.9.2-1.4 1.6-1.4s2.1.6 2.1 2c0 1.1.7 2 1.6 2 .8 0 1.2.4.9 1-.3.5-1.9 1-3.6 1-4.2 0-3.6 1.7 1 2.5 2.7.4 4.1 1.3 4.4 2.6.4 1.6 1.4 1.9 5.5 1.9h5.1l.4-3.8.4-3.7.1 3.6c.1 2.4.8 3.9 1.8 4.3 1.4.6 1.6-.2 1.2-5.5-.3-4.2-1-6.6-2.1-7.4-.9-.7-1.7-2.5-1.7-4.1 0-3.4-.8-4.8-3.3-5.7-1.2-.5-1.6-1.3-1.3-2.5.5-1.6-.4-1.9-8.1-3.1-4.9-.6-9.8-1.5-11.1-1.8-1.5-.3-2.2-.1-2 .7.3 1.4-5.9 2.2-6.8.9-.3-.5.1-.9.8-.9 3.5-.1-2.4-1.8-8.2-2.4-3.6-.4-7.7-.9-9.2-1.2-1.6-.3-2.8-.1-2.8.4M690 169c-3 .5-9.5 1.3-14.5 1.9-4.9.6-10.3 1.2-12 1.5-1.6.2-5.8.7-9.3 1.1-7.7.9-10.5 2.9-10.9 7.9-.1 2 .2 3.4.7 3.1.4-.3 1 2.5 1.3 6.2.3 3.8.8 8.1 1.1 9.8.4 1.6.9 4 1.2 5.2.3 1.7 1.1 2.3 3.1 2.3 3.6 0 6.3-3.5 6.3-8.2 0-2.1.5-3.8 1-3.8.6 0 1-1.6.8-3.8-.3-3.3 0-3.7 2.1-4 4.3-.6 11.1.8 11.1 2.4 0 .8.5 1.4 1 1.4.6 0 1 .6 1 1.3 0 .9 1.4 1.4 3.7 1.5s4.3.8 5 1.9c1.2 1.6 1.3 1.6 1.3 0 0-.9.3-1.7.8-1.7 2.2.1 3.5 2.3 3.7 6.2.1 2.3.8 5.6 1.5 7.3.7 1.6 1.2 3.4 1.1 3.8-.1.5.3.6.9.2.5-.3 1-.1 1 .5s.4.9.9.6.8-5.3.7-11.1c0-5.8.2-10.5.6-10.5s1-1 1.5-2.3c.5-1.5 1 1.6 1.4 9.3.5 10.4.5 9.8.7-7.3.2-18.5.2-18.9-2-20.8-1.5-1.2-1.7-1.7-.7-1.3 1 .3 2 .1 2.4-.5.7-1.2-.1-1.2-8.5-.1M851.8 170.5c-.2.3-4.9 1.4-10.4 2.5-13.2 2.7-14 3-12.3 4.1 1 .6 1.1.9.2.9-.7 0-1.3.5-1.3 1.1s.9.8 2 .4 3.4.1 5.2.9c1.7.9 3.7 1.6 4.5 1.6.7 0 1.3.4 1.3 1 0 .5-.5 1-1.2 1-.6 0-.9.2-.6.5.8.9 5.8-1.7 5.2-2.6-.3-.5.3-.6 1.2-.2 1.1.4 1.5.3 1.1-.4-.5-.7 0-.9 1.2-.6 1.3.3 3.2-.9 6.2-4.2 2.4-2.6 4.6-5.1 4.7-5.6.4-.9-6.1-1.3-7-.4M12.7 344.2c-.6.4-3.8.8-6.9.8H0v13.3l7.7-.7c7.1-.6 25.1-2.3 26.3-2.5.3-.1-.2-.6-1-1.2-1.1-.7 1.4-.9 8.5-.9 5.5.1 12.7.1 16 .1s9.8 0 14.5.1c13.4 0 19-.6 20.1-2.2.8-1.3 1-1.3 1.9 0 .6 1 1 1.1 1 .2 0-.7 1.3-1.2 3-1.2s3-.4 3-.9c0-1.5-7.7-2.3-23.3-2.4-9.7-.1-15-.6-15.5-1.3-.8-1.4-47.5-2.5-49.5-1.2M102 353c0 .5.9 1 2 1s2 .4 2 1c0 .5.8 1 1.8 1s2.2.4 2.8 1c.5.5 4.4 1.1 8.6 1.3 6.5.3 8.1.8 10.2 2.8 1.4 1.3 2.6 3 2.6 3.8 0 1.1.5 1 2-.4 1.1-1 2-1.4 2-1 0 .5.6.2 1.3-.7.6-.9 2.5-1.9 4.1-2.2 2.7-.7 2.8-.8 1.1-2.6-1.1-1.2-3.1-2-5.2-2-1.8 0-3.3-.5-3.3-1.1q0-1.2-4.2-.6c-2.2.3-7.8-.1-12.2-.9-9.5-1.6-15.6-1.8-15.6-.4M129.1 375.4c-.6.7-2.3 1.3-3.7 1.3-1.5 0-2.9.6-3.3 1.2-.5.7-5.9 1.6-13.2 2.2-6.8.6-16.2 1.4-20.9 1.9-9.3.8-56.4-.4-73-2-5.8-.5-11.5-.9-12.7-1H0v341h166.5c91.6 0 166.5-.2 166.5-.4s-1.6-4.8-3.5-10.2c-11.4-31.6-19.4-63.1-25-98.4-3.8-23.6-10.3-62-11.2-65.7-.2-1.2-1.8-2.7-3.4-3.3-1.6-.7-4.5-3-6.4-5.1-3.5-3.9-9.5-15-9.5-17.6 0-.7-.4-1.3-.9-1.3-1.3 0-4.1-14.6-5.1-27.5-1.2-14.9-1.8-18.1-3.6-19.6-.8-.6-1.4-2.5-1.4-4.1 0-2.2-.4-2.9-1.4-2.5-.8.3-2.3-.2-3.4-1.1-2-1.8-4.7-11-4.4-15 .1-1.2-.2-2.2-.6-2.2s-.9-2.6-1-5.8c-.1-3.1-.7-5.9-1.2-6-.6-.2-1-.8-1-1.3 0-.6-.9-1.9-2-3.1s-2.1-3.7-2.2-5.7c-.2-6.2-.3-6.4-1.6-6.9-.6-.2-1.2-.9-1.2-1.7 0-.7-.7-1.8-1.5-2.5-1.3-1-1.5-.9-1.6 1.1 0 2.3-.1 2.3-1 .4-.6-1.2-2-2.5-3.2-3-1.2-.6-2.2-1.9-2.2-3-.1-3.6-1.6-6.5-3.5-6.5-1 0-2 .3-2.3.7-.2.5-.2.2 0-.5.4-1.8-2.1-4.2-4.4-4.2-1 0-2.5-.9-3.3-2s-2.9-2.3-4.7-2.6-3.3-1.1-3.3-1.6-.9-.7-2-.3c-2.7.8-9-2.3-8.3-4.1.4-1.1-.8-1.4-6.3-1.4-36.9-.2-49.5-1.5-52.9-5.4-2.4-2.9-8.3-6.6-10.6-6.6-.9 0-2.2.6-2.8 1.4M971.2 455.2c-2.3 3.6-2.1 4.8.9 4.8 2.3 0 2.4.6.4 2.6-1.3 1.4-1.5 1.4-1.5.1 0-.9-.6-1.4-1.2-1.3-2.9.4-3.9 1.9-3.6 5.7.1 2.1-.3 4.4-1 5.1-.9.9-1.2.9-1.2 0 0-.7-.4-1.2-.9-1.2-.6 0-.6 1.2 0 3 .6 1.6 1.8 3 2.6 3 1 0 1.2.6.8 2.1-.7 2 4.2 17.9 5.4 17.9.6 0 7.3-15.4 8.6-19.7.5-1.9.3-2.2-1.1-1.6-1.3.5-1.5.3-.9-.7.5-.7 1-2.5 1.1-3.9s.5-4.2.7-6.2c.6-4.4-2.5-9.4-4.4-6.9-.9 1.3-1 1.2-.5-.3.3-1.1 0-2-1-2.4-.8-.3-1.3-1.2-1-1.9.9-2.4-.1-1.5-2.2 1.8M939.7 457c-2.6 2.9-5.7 4-5.7 2.1 0-.5-.9-.7-2-.4s-1.8.9-1.5 1.3c.7 1.1-2.2 3.3-3.4 2.6-1.2-.8-2.5 3-2.3 6.6.2 1.9-.3 2.8-1.3 2.8-.8 0-1.5-.7-1.5-1.5s-.4-1.5-1-1.5c-.5 0-1-.6-1-1.4 0-.7-.7-1.9-1.5-2.6s.5 3 3 8.1c7.7 16.4 6.6 14.9 9.5 13.1 4.1-2.7 24.9-18.2 25.4-19.1.3-.5-.3-1.6-1.4-2.6s-2-1.4-2-1c0 .5-1.1-.2-2.5-1.5s-2.5-1.9-2.6-1.4c0 .5-.5-.2-1-1.6-.8-2-1.2-2.2-1.9-1-.7 1.1-1 .8-1-1.3 0-3.5-1-3.4-4.3.3M946.4 478c-6 4.4-12.2 9-13.7 10.2l-2.8 2.3 3.6 15.5c2 8.5 4.3 18.6 5.1 22.3.9 3.7 2 6.7 2.5 6.5 2.1-.7 20.9-23 20.3-24.1-.4-.7-.3-.9.1-.4.9.8 5.5-3 5.5-4.6 0-.6-1.2 0-2.7 1.4l-2.8 2.4 2.4-2.7c1.4-1.6 2.7-2.6 2.9-2.3.3.3 1.2-.4 1.9-1.5 1.4-2 1.1-6.5-.8-10-.4-.8-2.3-5.6-4.3-10.5-2.7-6.9-3.9-8.9-5.2-8.7-1.3.3-1.5-.2-1.1-1.7.3-1.2.4-2.1.2-2.1-.1 0-5.1 3.6-11.1 8M312 482.7c-.6 3.2-1.2 7-1.3 8.5-.1 1.6-.5 2.8-.9 2.8-1.2 0-.9 2.8.3 3.2.6.2 1.2 1.8 1.3 3.5.3 3.7 2.2 6.2 16.2 22.4 11.8 13.6 10.7 14 12.4-4.1 1.3-13.1 2.1-32.1 1-24-.3 3-.7 4.5-.8 3.2-.1-1.2-.7-2.2-1.4-2.2-.6 0-.9-.3-.6-.6.4-.3.2-1.8-.2-3.4-.6-2-.5-3 .3-3.3 1.7-.5-1-3-6-5.5-4.5-2.3-12.3-3.6-12.3-2.1 0 .6-.4.8-.9.4-.6-.3-1.4.3-2 1.2-.6 1-1.1 1.2-1.1.5 0-.6-.6-1.2-1.4-1.2-.9 0-1.2-.8-.8-2.5.2-1.4.2-2.5-.1-2.5s-1 2.6-1.7 5.7M631.1 483.5c0 2.8.4 5.6 1 6.2.8.8.7 2.4-.4 6-.8 2.6-1.7 8.7-2 13.5-.5 9.6-.4 9.8 5.8 9.8 2.7 0 3.4-.4 4-2.7.4-1.7.2-2.9-.4-3.1s-1.1-1.8-1-3.5c.1-3.1.1-3.1.9-.7.5 1.6.8-1.6.9-8.8.1-11-.4-12.7-3.1-9.8-1.1 1.1-1.5.8-2.7-1.8-.7-1.7-1.7-4.7-2.1-6.6-.7-3.3-.8-3.2-.9 1.5M654.2 489c-.1 7.3 1.3 29.9 1.9 30.4.2.2 3.2.6 6.7 1l6.2.7v-6.3c-.1-6.4-4.3-21.2-5.3-18.6-.3.8-1 0-1.8-2-1.5-3.7-4.3-4.2-5.4-1-.6 1.7-1 .7-1.5-4.2l-.7-6.5zM817.2 484.5c-.7.9-3 1.5-5.2 1.5-3.3 0-4 .3-4 2s-.7 2-5.1 2c-2.8 0-4.8.4-4.4.9.3.5-.1 1.6-1 2.4-1.2 1.2-1.3 2.6-.5 7.3.7 4.3.7 6-.3 6.6-1.1.7 13.1 7.9 28.9 14.6l7.1 3 1.4-3.7c.7-2 1.4-4.2 1.4-4.8 0-.7.5-1.2 1-1 1.6.3.9 5.6-1 7.7-1.6 1.8-1.5 2 3.4 4.5 4.5 2.3 5.1 2.3 5 .8-.1-2.6-2.7-9.1-2.8-7.1-.1 1-.6 1.8-1.1 1.8-.7 0-.7-.7 0-2 1.2-2.2.4-6-1.4-7.2-.8-.6-.8-.8.1-.8.8 0 .8-.9.1-3.5-.6-1.9-1.6-3.1-2.1-2.8-.6.4-.7.1-.3-.6.5-.7.5-2.4.1-3.9-.5-2-.8-2.3-1.6-1.1-.6 1-.9.7-.9-1.2 0-1.5-1.1-3.7-2.5-5-1.3-1.3-2.5-3.2-2.5-4.1s-.9-2-2-2.3-2-1.1-2-1.6-.7-.9-1.5-.9-1.5-.7-1.5-1.5c0-1.9-3.1-1.9-4.8 0M647.6 487.7c-.3.8-.4 1.9 0 2.4.3.5 0 .9-.5.9-.6 0-1.1.7-1.1 1.6 0 1-.6 1.4-1.5 1-.8-.3-1.5-.4-1.6-.3 0 .1-.3 5.5-.6 12-.4 10.4-.3 11.6 1.1 11.1.9-.3 1.6-.2 1.6.4s-.6 1.3-1.2 1.5c-.7.3 1.1.6 4.1.6l5.3.1-.6-6.3c-.3-3.4-.8-10.6-1.2-15.9-.4-6.5-1.1-9.8-1.9-10.2-.7-.2-1.6.2-1.9 1.1M758.4 488.5c-.4.8-1.1 1.5-1.7 1.5s-1.9.7-2.9 1.7c-1.4 1.3-1.8 1.3-1.9.2-.1-.8-.5.4-1 2.6-1 5.3-1 26.7.1 24 .7-1.8.9-1.8 1.5-.3.9 2.3.1 5.4-1.3 5.1-.7-.2-1.2.6-1.2 1.6 0 1.7 4.2 5.9 15.4 15.2 1.6 1.3 4.5 3.8 6.5 5.6 2 1.7 3.9 2.9 4.3 2.5s3.4-6.8 6.8-14.2c3.3-7.4 6.8-15 7.6-16.8 2-4.3 2.7-8.2 1.5-8.2-.5 0-1.1.5-1.3 1.1s-1.5.1-3.2-1.2c-1.8-1.4-2.4-2.4-1.6-2.9 1.2-.7-2.9-4.2-9-7.6-1.9-1-3.8-2.3-4.2-2.9-.4-.5-1.3-1-2-1-2.6-.2-6.8-1.7-6.8-2.6 0-.5-.7-.9-1.5-.9s-1.5-.7-1.5-1.6.5-1.2 1.2-.8.8.3.4-.4c-1-1.7-3.6-1.5-4.2.3M345.6 492.2c-.3 1.3-.7 4.5-1 7.3-.3 2.7-1.3 10.6-2.1 17.5s-1.5 14.6-1.5 17.2v4.7l10.8 8.8c5.9 4.8 14.5 12 19.1 16s8.7 7.3 9 7.3c.4 0 .8-2.4.9-5.3.1-2.8 1.2-17.1 2.3-31.5 1.1-14.5 1.8-26.6 1.5-27-.3-.3-.6.4-.6 1.6 0 2.9-1.7 3.6-2.4.9-.9-3.4-.8-3.7 1.7-4.7 1.6-.6 1.7-.9.5-.9-.9-.1-2-1-2.3-2.1s-1.1-2-1.6-2-.9-.4-.9-1c0-1.2 5.2.7 6.2 2.3.5.8.8.4.8-.9 0-2.6-5-4.3-15.3-5.1-4-.3-8.1-1.2-9.3-2-1.1-.7-2.3-1-2.6-.7-.4.3-1.6 0-2.8-.6-2-1-2.6-.8-5.5 2.3-1.9 2-3.5 3.1-3.8 2.4-.7-2.2.5-5.6 2.2-6q1.65-.45-.6-.6c-1.6-.1-2.4.6-2.7 2.1M736.7 492.5c-.5 1.1-1.6 2.6-2.4 3.3-.7.7-1.3 3.1-1.3 5.3 0 4.4-1.9 5.4-2.1 1.1-.2-2.4-.2-2.4-.6-.4-.3 1.3 0 2.9.6 3.6.6.8.8 2.1.5 3-.5 1.2.7 2.9 3.7 5.6 2.4 2.2 4.9 4 5.4 4 .6-.1.2-.7-.7-1.4-2.4-1.7-2.3-2.5.2-1.9 1.3.4 2.2-.1 2.7-1.3.6-1.6.7-1.6 1.4.2.7 1.7.8 1.7.8.1.1-.9.8-1.7 1.6-1.7 1.2 0 1.5-1.9 1.5-11 0-6.1-.3-11-.6-11-1.6 0-3.5 3.2-2.9 5 .4 1.1.2 2-.4 2s-1.1-1.5-1.1-3.4c0-3-.3-3.4-2.6-3.2-1.5 0-3.1 1-3.7 2.1M849 492c0 .5-1 1-2.2 1-8.3.1-9 3.1-4.4 21 1.9 7.4 3.8 14.4 4.3 15.6 1 2.5 2.6 4 28.5 24.7l20.7 16.6-.5-3.7c-.3-2-.9-6.2-1.4-9.2s-1.4-9.6-2-14.5c-.6-5-2.3-16.7-3.7-26-2-12.6-2.9-16.2-3.4-14-.5 2.5-.7 2.6-.8.7-.2-3.4-2-6.4-3.4-5.5-.7.4-.7 0 .2-1 .7-.9 1-1.7.5-1.8-.5 0-1.7-.2-2.7-.4s-2.1.3-2.3 1c-.9 2.2-3.4 2.6-6.2 1.1-3.4-1.9-13.2-4.6-16.6-4.6-1.4 0-2.6-.5-2.6-1 0-.6-.4-1-1-1-.5 0-1 .4-1 1M906.8 493.8c-9.8 1.5-17.8 2.9-17.8 3.3 0 .3 1.1 2.3 2.5 4.3 2.6 3.8 3.1 6.1 1.6 7-.5.3-1.6-1.3-2.5-3.5-.9-2.3-1.8-4-2-3.8-.3.3 2.6 22.4 7.5 56.1.7 4.9 1.6 8.8 2 8.8.3 0 .4 1.1.1 2.5-.2 1.4-.1 2.5.3 2.5.6 0 14.1-11 34.3-27.8 3.1-2.6 5.2-5.2 5.2-6.4 0-2.2-7.1-33.7-9.2-40.8-.8-2.5-2-4.5-2.8-4.6s-9.5 1-19.2 2.4M617.3 493.4c-1.3.6-2.3 2-2.4 3.1-.1 1.7-.2 1.6-.9-.5-.4-1.5-.9 2.8-1.1 11.3-.3 8.8 0 13.6.6 13.4s1-.8 1-1.3 1-1.9 2.3-3.2c1.2-1.2 2.2-2.7 2.2-3.3s.6-2.5 1.4-4.2c.7-1.8 1.9-4.7 2.6-6.5.7-1.7 1.6-3.2 2.1-3.2s.9-1.3.9-2.9c0-4.1-3.7-5.2-8.7-2.7M673.3 495.7c-2.2.4-2.3.9-2.2 9.6.1 5.1.5 10.3.9 11.7s.8 2.1.9 1.6.8-.3 1.6.4c1.3 1.1 1.3 1.5.3 2.1-.9.6-.6.9 1 .9 1.3 0 2-.4 1.7-1s.3-1 1.4-1c1.5 0 2.1-.7 2.2-2.3s.5-1.1 1.5 1.8l1.4 4-.6-5c-.8-7.1-3.4-19.6-4.5-21.7-1-1.8-1.5-1.9-5.6-1.1M600.7 498c-.3.8-.8 3.7-1 6.5-.3 2.7-.7 5.7-1 6.5-1.4 4.5-2.3 12-1.3 11.7.6-.2 1.4-1.9 1.7-3.8.5-2.7.7-2.9.8-.9l.2 2.5 2.4-2.7c2-2.4 2.4-2.5 2.8-1 .4 1.4.6 1.3 1.2-.6.8-2.4 2.1-2.9 2.8-1 .3.7.6-3 .6-8.2l.1-9.5h-3.5c-3.4 0-3.5.1-3.7 4l-.1 4-.7-4.5c-.4-2.7-.9-3.9-1.3-3M395.5 499.9c-.6.5-1.9 1.1-2.9 1.3-1.8.3-1.8.4-.4 1.9 1.3 1.2 1.3 1.8.3 3.2-1.6 2.2-3.5 2.2-3.5 0 0-.9-.2-1.4-.5-1.2-1.3 1.4-6.4 65.9-5.2 65.9.5 0 8.4-6.3 15.7-12.6 1.4-1.2 9.4-7.9 17.8-14.9 8.3-7 15.2-12.9 15.2-13.2s-.8-1.2-1.7-1.9c-1-.7-1.4-1.6-1-2 .4-.5 1.2-.2 1.7.5.8 1.5 2.6-5.6 3.4-13.4.2-2.2.7-4.8 1.1-5.7 1.1-2.8-.5-4.2-2.3-2-1 1.1-3.3 2.3-5.1 2.7-3.5.8-6.1 2.6-6.1 4.3 0 1.6-7.6-.4-9.8-2.6-1.3-1.3-1.7-2.2-.9-2.2 2.3 0-1.7-2-4.3-2-2-.1-1.6-.5 1.9-1.9l4.5-1.8-3.4-.5c-1.8-.3-4.9-.2-6.7.2-1.8.5-3.3.4-3.3-.1s-.9-.9-2.1-.9c-1.1 0-1.7-.5-1.4-1 .8-1.2.2-1.3-1-.1M533.2 501.2c-1.7 1.7-1.6 7.9.1 7.2.9-.3 1.7.7 2.4 2.8.8 2.9 1.3 3.3 3.9 3l2.9-.2-3.8 3.5c-2.2 2.1-4.3 3.3-5 2.9-.9-.5-.9-.4 0 .6 1.4 1.5 1.4 1.4 10-6.4 4.8-4.4 5-4.8 2.6-7.1-1.4-1.4-1.4-1.8-.2-2.5 2.1-1.3.1-2.7-4.6-3.2-2.2-.3-4.7-.8-5.5-1.2-.9-.3-2.1-.1-2.8.6M306.5 507.7c-.3 2.6-.7 5.5-.8 6.4-.1.8.6 2.8 1.7 4.3 1.4 2.3 2 2.6 2.8 1.5s.9-1 .4.3c-.3 1.2 2.3 5.2 8 12.3 4.7 5.8 8.8 10.5 9.1 10.5.7 0-3.8-7.3-5.3-8.6-.8-.6-1.1-1.3-.8-1.6.7-.8-8.3-19.4-10.4-21.4-.9-1-1.8-2.1-1.8-2.6-.1-.4-.2-.9-.4-1.1-.1-.1-.3-1-.5-2-.7-3.6-1.4-2.9-2 2M502.3 504.7c.9.9-4.9 4.3-7.3 4.3-1.4 0-2.3 1.2-3.4 4.7-.8 2.7-1.5 4.2-1.5 3.4-.1-.8-.3-1.2-.6-.9-.9.8.6 3.8 1.6 3.2.5-.3.6.2.3 1-.3.9-.1 1.6.5 1.6s1 .3.9.7c-.2.9 3 8.4 8.2 19.1l3.5 7.3 2.5-2.3c1.4-1.3 7.1-6.3 12.7-11.1 9.4-8.1 10.1-8.9 8.7-10.5-.8-.9-4-5.2-7-9.5-3.1-4.2-6-7.5-6.5-7.2-.5.4-.9-.1-.9-.9 0-1.1-1.1-1.4-5-1.2-3.6.1-5-.2-5-1.1 0-.7-.5-1.3-1.2-1.3-.6 0-.8.3-.5.7M968.7 507.2c-1.5 1.9-2.7 3.9-2.7 4.5 0 .5-.9 2.8-2 5.1-1.1 2.2-2 4.6-2 5.1 0 1.5-7.9 16.8-11.3 22.1-4.3 6.6-1.4 3.3 12.1-13.2 9.9-12.1 11.9-15.1 11.5-17.2-.3-1.4-.9-2.4-1.3-2.1-.5.3-.6-.3-.4-1.3.3-.9.1-2.8-.4-4.1l-.9-2.4zM444.8 508.3c-3.1.9-3.7 1.5-4.4 4.6l-.8 3.6-.6-3.5c-.4-1.9-.8-2.6-.9-1.5s-1 5.4-2 9.5c-1.1 4.1-1.7 7.7-1.5 7.9s1.4 0 2.7-.6c4.5-2.2 14.5-6.3 15.1-6.3.3 0 3.9-1.5 7.8-3.3 4-1.9 9-3.9 11.1-4.6 2-.7 3.7-1.5 3.7-1.7 0-.3-.9-.2-2 .1-1.1.4-2 .2-2-.4s-.7-.8-1.6-.4c-1.3.5-1.3.7-.2 1.4 1 .7.9.9-.4.9-.9 0-1.8-.5-2-1.2-.3-.8-1.2-.9-3.6 0-1.9.6-3.2.7-3.2.1 0-.5.5-.9 1.1-.9.5 0 .7-.5.4-1-.3-.6-1.7-1-3-1s-2.5-.4-2.7-.8c-.5-1.4-7-1.9-11-.9M792.8 517.7c-1.5 3.2-5 11-7.9 17.3s-5.8 12.4-6.5 13.4c-1.2 1.8.2 3.4 16.9 19.6l18.2 17.7 5.3-9.1c3-5 7.6-12.7 10.2-17.1 5.2-8.7 15-26.3 15-26.9 0-.1-1.9-1.1-4.2-2.1-2.4-1-8.1-3.6-12.8-5.7-10.3-4.8-29.6-12.8-30.8-12.8-.4 0-2 2.6-3.4 5.7M317.4 516.7c.9 1.8 2.1 3.3 2.6 3.3s.7.6.4 1.3c-.6 1.7 5.9 15.6 10.6 22.6 2.1 3.1 4.1 6.7 4.6 8.1l.8 2.5.7-2.5c1.1-3.8 1-10.5-.1-13.5-.6-1.5-4.9-7-9.7-12.4-11.8-13.2-11.9-13.3-9.9-9.4M730.6 515.1c-.3.8-.7 5.4-1 10.2-.4 7.5-.2 8.6 1 7.6.7-.6 1.2-1.5.9-1.8-.2-.4.1-.8.8-.8.7-.1 2.7-.4 4.6-.9 2.5-.5 3.2-.4 2.7.4-.4.7-1.3 1.2-1.9 1.2-.7 0-2.5 1-4.1 2.3l-2.8 2.3 7.5 6.7c5.8 5.2 7.6 6.3 8.1 5.1 1-2.5.7-17.2-.4-17.9-.5-.3-.7-1.2-.4-1.9s-1.1-2.5-3.1-4c-1.9-1.5-4.3-3.5-5.3-4.4-4.6-4.6-6.1-5.5-6.6-4.1M958 519.3c-2.5 2.8-7.3 8.4-10.8 12.6l-6.3 7.6.6 5.5c1 8.2 1.4 9.3 3.1 7.9 1.6-1.3 1.9-3.3.3-2.3-.8.5-.8.1 0-1.4.6-1.2 1.5-2.3 2-2.6s2.1-2.9 3.6-5.8 3.3-6 4-6.8c.6-.8 2.2-4.2 3.5-7.5 1.2-3.3 2.9-7.3 3.7-8.8 2.3-4.4 1.2-3.9-3.7 1.6M468.2 517.7c-.6.3-.9 1-.6 1.5.4.6.2.8-.3.5-1.3-.8-25.5 9.4-25.6 10.8 0 1.3-2.8 3.4-4.6 3.5-.7 0-.3-.8 1-1.9l2.4-2-2.3.6c-1.2.3-2.5.9-2.7 1.4-.8 1.1 29.8 52.9 31.2 52.9.3 0 6-5.3 12.6-11.8 6.7-6.5 14.8-14.3 17.9-17.3l5.7-5.4-8.5-16.5c-4.7-9.1-8.3-15.7-8-14.7.5 1.5.3 1.6-1.5.6-1.1-.6-2.3-.8-2.6-.5-.4.3-1.2.1-2-.5-1.3-1.2-9.8-2-12.1-1.2M306.2 522.5c.9 1.6 1.3 3.6 1.1 4.2-.6 1.7 1.9 12.5 7.2 31.3 5.4 18.9 7.3 23.9 8.5 21.9.6-.8.5-1.8 0-2.3-1.2-1.2-1.3-2.6-.2-2.6.5 0 1.4 1.2 2.1 2.6 1 2.2.9 3-.3 4.3-1.9 2.1-1.9 2.1 13.8 22.9 7.2 9.6 13.9 18.6 14.8 20 1.6 2.4 1.8 2.4 1.8.7 0-1.1-1-5.4-2.1-9.5-2.4-8.6-6.6-24.2-10.3-38.3-1.5-5.3-3.1-10.9-3.6-12.2-.9-2.4-1-2.4-3-.8-1.1 1-2 2.3-2 3s-.7 1.3-1.5 1.3c-1.2 0-.8-1.1 1.6-4.6l3.1-4.6-3.6-5.3c-3.1-4.3-24.6-30.7-27.8-34-.6-.6-.4.3.4 2M968.5 527.2c-17.2 20.6-25.5 31.1-25.5 32.4 0 .7 1.6 3.4 3.6 5.9 4.6 6.1 4 6.8-.8.9l-3.7-4.5-1.9 6.8c-4 13.7-15.2 56.5-15.2 57.6 0 1.4.3 1.1 14.1-16.9 11.8-15.6 19-25.9 18.8-27.1-.1-.4.5-2.5 1.4-4.5 1.9-4.1 9.8-31.6 12.2-42.3.9-3.9 1.9-7.9 2.2-9 .5-1.7.4-1.8-1.1-.6-.9.8-1.6.9-1.6.3s.4-1.4 1-1.7c.9-.6 3.4-4.5 2.8-4.5-.2 0-3 3.3-6.3 7.2M624.4 524.3c-1.1 1.2-4.7 5.8-8 10.2-3.2 4.4-6.4 8.6-7.1 9.3-.9 1-1 1.9-.1 4 1.5 3.5 4.9 7.3 5.9 6.6.5-.3.7.1.4.8-.2.7 1.3 3.7 3.4 6.7l3.9 5.3.6-6.3c.3-3.5 1.3-13.6 2.1-22.3.8-8.8 1.3-16.1 1.2-16.3-.2-.2-1.3.7-2.3 2M642 536.9c0 8.7-.4 14.1-1 14.1s-1-5.2-1-13.7c0-8.3-.4-13.3-.9-12.8-.5.6-3.2 4.7-5.9 9.1-5.2 8.6-6.3 12.7-7.7 29.1l-.6 7.2 6.3-.3c3.5-.2 8.6-.4 11.3-.4 4.9-.2 5.1-.3 7.7-5 1.5-2.6 3.7-5.8 4.9-7.1 1.8-1.9 2.2-3.4 2-6.5-.2-2.3-.7-4.3-1.1-4.6-.5-.3-1.5-2.4-2.3-4.7-1.4-4-7.6-14.3-10.4-17.1-1.1-1.1-1.3 1.2-1.3 12.7M656.5 526.7c.3 1.6 1 6.3 1.5 10.5.6 4.2 1.9 9.2 2.8 11.1 1.8 3.6 17.2 20.8 17.2 19.2 0-2.8-3-18.4-3.9-20.9-1.2-3.1-16.1-22.5-17.3-22.6-.4 0-.5 1.2-.3 2.7M607.4 527c-.5.8-.9 1.8-.9 2.1 0 .4-3 3.9-6.7 7.9-4.7 4.9-6.8 8-6.8 9.7 0 1.8-.4 2.4-1.4 2s-.7.6.7 2.8c1.2 1.9 2.7 3.4 3.2 3.5 1.2 0 9.5-9.4 9.5-10.9 0-.5.4-1.1 1-1.3.5-.2 1.2-2.8 1.4-5.8s.7-6.3 1.1-7.2c1-2.5.1-4.6-1.1-2.8M673.3 528.4c.3.8.9 3.2 1.2 5.3 1 5.9 2.6 10.6 4.3 12.5 1.2 1.4 1.2 2.1.3 3.2-1 1.2-1 3.3-.1 9.3.6 4.3 1.4 8.7 1.7 9.7.5 1.8.6 1.8 1.8-.5 1.7-3.4 2.7-7.9 1.7-7.9-.5 0-1.6-1.7-2.5-3.8l-1.7-3.7 2.3 2.7c4 4.9 5.2 2.8 1.5-2.5-1.7-2.5-1.8-2.9-.4-1.7 2.7 2.1 4.4 2.1 5.1-.1 1-2.9 1.3-10.3.5-8.9-1 1.7-2.1-1.5-1.3-3.8.4-1.1-.1-.8-1.5.8-1.2 1.4-2.1 2-2.2 1.4 0-.5.4-1.4 1-2s.5-1.7-.6-3.2c-2-2.9-3.8-2.9-2.1 0 .9 1.4 1.1 3.4.7 5.3-.6 3-.6 2.9-1.4-1.2-.5-2.8-1.4-4.4-2.6-4.8-1-.3-2.5-2.1-3.5-4-1.5-3.4-3.3-5-2.2-2.1M534.1 529.4c-.8.9-1.1 4.9-1 11 .1 8.2.4 9.5 1.6 8.5 1.1-1 1.1-1.4.1-2.1s-.9-.8.3-.6c1.9.4 14.3-10.7 13.5-12-.6-1-7.5-4.5-11.2-5.6-1.3-.4-2.6-.1-3.3.8M517.3 540.9c-12.1 10.6-12.1 10.6-10.2 12.7 1 1.1 1.9 2.5 1.9 3.1 0 1.3 9 9.3 10.6 9.3s3-1.8 6.5-8.9c1.7-3.3 3.5-6.1 4-6.1 1.1 0 1.2-18 .1-19.6-.4-.7-5.1 2.7-12.9 9.5M748.7 541.7l-.6 11.8 3.4 5.5c3.7 6.1 6.9 7.6 11.6 5.3 2.7-1.3 7.5-6.2 10.3-10.5 1.5-2.3 1.5-2.6-.3-4.2-1.1-1-2.4-1.6-2.8-1.3-.5.3-1.5.1-2.3-.5-1.2-.8-1.2-.9.3-.4 2.5.8 2.1-.3-1-2.8-1.5-1.1-6-4.9-9.9-8.4-3.9-3.4-7.4-6.2-7.6-6.2-.3 0-.8 5.3-1.1 11.7M423.5 540.6c-4.4 3.6-13.2 10.9-19.5 16.2-6.3 5.4-13.7 11.4-16.3 13.6-2.7 2.1-4.5 4.1-4.1 4.5.5.3 4.7 4.9 9.4 10.1 29 32.4 42.5 46.4 43.9 45.6 1.8-1.1 28.1-41.6 28.1-43.2 0-.3-3.2-5.8-7.1-12.2-4-6.4-11.2-18.3-16.1-26.5-5-8.1-9.3-14.7-9.7-14.7-.3 0-4.2 3-8.6 6.6M845.5 535.4c-.6.6-4.6 7.2-8.9 14.6s-9.5 16.2-11.4 19.5-5.1 8.8-6.9 12.3l-3.5 6.2 2.9 4.4c1.5 2.5 6.9 10.8 11.8 18.6 5 7.8 10.2 15.7 11.6 17.6l2.7 3.4 10.4-11.2c5.7-6.2 13.7-15.1 17.8-19.8s8-9 8.6-9.5c4-3.8 14.4-16.5 14.4-17.6 0-.8-8.2-7.9-18.2-15.9s-20.5-16.3-23.3-18.5c-6.6-5.4-6.8-5.5-8-4.1M340 549.5v8.6l11.8 15.8c19.3 26.1 33.6 45 33.9 44.7.1-.1-.2-3.1-.7-6.6-.5-3.6-1.6-13.3-2.5-21.5-1.5-14.1-1.8-15.1-4.4-17.5-7.8-7.1-17.2-15.1-27.1-23.2l-11-8.9zM929.5 548.6c-4.4 3.7-12 9.9-17 14-14.9 12-14.2 11.1-15 20.6-.3 4.6-1.3 14.4-2 21.8-.8 7.4-1.3 13.6-1.1 13.7.1.1 2.4-2.8 5.2-6.5 2.7-3.7 11.9-15.9 20.5-27.2 21.7-28.7 20.3-26.4 20.1-32.4-.3-6.1-1.1-10.6-2-10.6-.4 0-4.3 3-8.7 6.6M302 549.1c0 .8 1.1 3.8 2.5 6.7 1.3 2.9 2.1 6 1.8 6.9-.4 1-.2 1.4.4 1 .7-.5.9.1.5 1.5-.3 1.4-.1 1.9.6 1.4.7-.4 1-.2.6.7-.4 1.3 7 29.4 8.1 30.5.3.3.5-.2.5-1.1s.4-1.7.9-1.7.8 2.6.7 5.7c-.2 11.2 9.4 35.3 21.4 53.9 2.8 4.2 3.1 4.5 2.6 1.9-1.9-8.3-16.2-53.7-19.7-62.2-1.6-4-2.9-7.9-2.9-8.7s-4-9.7-9-19.7c-4.9-10.1-9-17.6-9-16.8M969.6 565.5c-8 16.1-13.4 29.1-11.6 28 1.1-.7.3 4.6-1.2 8-.7 1.6-.8 1.5-.4-.8.8-5.7-1.3-.9-5.9 13.8-13.7 43.8-13.9 44.5-13.1 44.5.7 0 15.2-26 18-32.1 2.6-5.9 4-11.9 2.8-11.9-.4 0-.6-3-.5-6.7.3-6.8 1.2-10 1.4-4.7.1 2.9.1 2.9.9.4l.8-2.5.1 2.5c.1 2.2.3 2.3 1.2.7.6-1 .8-3.7.5-6-.4-2.7-.3-3.5.3-2.2.6 1.6 1.4-.1 3.9-8 4.7-15.3 7.3-25.3 7.1-26.7-.2-.7.7-3.5 2-6.1 1.2-2.7 2-5.1 1.8-5.3-.2-.3-3.9 6.5-8.1 15.1M485.1 570.6c-14.6 14.2-17.8 17.9-17.1 19.2 1.6 3 4.2 9.4 7.5 18.7 1.7 4.9 3.6 9 4.3 9 1.1 0 9.7-6.8 19-15 4.3-3.9 8.9-10.3 19.6-27.8 1.6-2.7 1.6-2.9-.5-5.8-1.1-1.7-2.4-2.7-2.7-2.4-.4.3 0 1 .8 1.5.8.6 1 1 .4 1-1.3 0-7.3-6.2-7.3-7.5.1-1.4-4.4-8.5-5.3-8.5-.5 0-8.9 7.9-18.7 17.6M772.6 557.6c-2 2.4-3.4 4.4-3.1 4.4 1.5 0 6.5-4.5 6.5-5.9 0-1 .3-1.2 1-.5 1.1 1.1.4 4.4-1 4.4-.4 0-2.4 1.3-4.5 3-2 1.6-4.1 2.8-4.5 2.5-.9-.6-6 5.1-6 6.6 0 2.6 13.4 23.8 17.6 27.7 5.4 5.1 21.9 19.2 22.5 19.2 1.2 0 1.7-5.4.8-7.2-.5-.9-.9-2.7-.8-4 .1-1.6.4-1 1.1 1.6l1.1 4 3.4-9.5c1.9-5.2 3.9-10.9 4.5-12.7l1.2-3.3-16.5-16.5c-9-9.1-17.1-16.9-18-17.4-1.2-.7-2.5.2-5.3 3.6M930.2 574.7c-4.9 6.5-15.2 20.2-22.9 30.4l-14 18.6-.7 7.9c-.4 4.3-1.8 18-3.2 30.4-1.3 12.3-2.4 23.3-2.4 24.5s2.2-1.6 5.3-6.8c2.8-4.8 6.3-10.5 7.7-12.7s6.7-10.9 11.8-19.5l9.4-15.5 6.3-23.2c9.7-36.1 12.2-45.8 11.9-45.8-.2 0-4.3 5.3-9.2 11.7M341.4 565.5c.4 1.1 1.3 4.5 2.1 7.5 1.2 4.9 5.8 22.3 12.9 49 2.3 8.6 4.2 12.1 19.3 37.2 9.3 15.3 17 27.3 17.2 26.7.1-.5-.4-6.9-1.3-14.2-.8-7.3-2.3-20.2-3.2-28.7-.8-8.5-2-16.9-2.5-18.7-.6-1.7-5.7-9.4-11.5-17s-15.3-20.1-21.1-27.8c-11.6-15.4-13-17.1-11.9-14M662.4 573.6c.3.8.6 9 .6 18V608h3.5c3.9 0 4.7-1.5 1.4-2.5-1.1-.4-1.8-.9-1.6-1.2.3-.2 1.9.3 3.6 1.1 4.1 2.2 7.4 2 9.6-.4 1.6-1.8 1.7-3.4 1.2-14.9-.3-7.1-1.1-13.9-1.7-15.1-1-1.9-1.7-2.1-6.3-1.5-3 .4-6.4.2-8.1-.4-2.4-1-2.7-.9-2.2.5M615 574c-1.4.4-4.6.8-7.2.9-4.6.1-4.7.2-5.4 3.8-.4 2.1-.8 7.2-.8 11.3-.1 6.5.2 7.5 1.9 8.5 1.1.5 5.1 2.9 8.7 5.2 3.7 2.4 7.4 4.3 8.3 4.3 1.3 0 1.5-2.2 1.7-14 .1-7.7.2-15.4.2-17.2.1-2.6-.3-3.2-2.4-3.4-1.4-.1-3.6.2-5 .6M651.2 577.5c-4 2.5-7.7 4.5-8.2 4.5-.6 0-1 5.4-1 14v14l8.3-.6c4.5-.3 8.8-.7 9.5-1 2-.6 1.3-35.4-.7-35.4-.4 0-3.9 2-7.9 4.5M593.3 579.1c-10 5.5-10.4 6.3-5.1 9 2.4 1.2 5.5 3 7.1 4.1 1.5 1.1 2.7 1.6 2.7 1.1 0-.4.7-4.6 1.5-9.2.8-4.7 1.4-8.6 1.2-8.7-.1-.2-3.4 1.5-7.4 3.7M624.7 581.8c-.4 3.7-.7 10.1-.7 14.2v7.6l6.5 3.2c3.6 1.8 7.2 3.2 8 3.2 1.3 0 1.5-2.2 1.5-13.3 0-11.5-.2-13.4-1.7-14.3-1-.6-4.3-2.5-7.4-4.2l-5.6-3.2zM383.5 580c.2 1.4.9 7.7 1.5 14 2.7 28.5 2.2 26.6 11.7 43.8 25.6 46.7 25.3 46.2 25.3 42.5s8.1-34.5 10.6-40.6l2.5-5.9-3.7-4.1c-2.1-2.3-11.9-13-21.8-23.7-10-10.7-20-21.4-22.3-23.9-3.6-4-4.1-4.2-3.8-2.1M887.4 586.7c-4.4 4.9-11.8 13.1-16.4 18.3-4.7 5.2-10.5 11.7-13.1 14.5-2.5 2.7-6.5 7.1-8.9 9.8l-4.3 4.7 3.2 8.3c1.7 4.5 4.7 15.2 6.7 23.7s3.7 15.6 3.9 15.8c.2.3 4.5-6.5 4.5-7.3 0-.2 2.3-4.2 5-9 2.8-4.8 5-8.9 5-9.1 0-.3 2.6-5.1 5.9-10.7 12.5-21.7 12.8-22.5 14.5-40.3.9-8.7 1.9-18.5 2.2-21.7.3-3.1.4-5.7.2-5.7s-4 3.9-8.4 8.7M812.3 593.3c-.6 1.8-2.9 8.3-5.2 14.6-2.2 6.3-4.1 11.7-4.1 12.2 0 1.2 29.4 23.8 31.2 23.9.6 0 7.8-9.6 7.8-10.4 0-.5-8.1-13.2-21.6-33.9-3.1-4.8-6-8.9-6.3-9.2-.4-.2-1.2 1.1-1.8 2.8M325.3 592c.2.8 3 9.8 6.2 20 3.1 10.2 7.7 25.5 10.2 34 2.4 8.5 4.6 15.6 4.8 15.8.6.7 2.2-3.2 3.5-8.6.6-2.8 1.7-5.5 2.2-5.8.6-.4.8.1.5 1.2s-1.6 5.5-2.8 9.8l-2.3 7.9 2.2 3.7c4 7 20.4 30.5 19.9 28.5-.7-2.6-3.8-18.6-7.7-40-4.9-26.8-4.3-25.3-12.8-36.2-12.2-15.7-21.6-28-23-30-.8-1.1-1.1-1.3-.9-.3M458 602.2c-4.1 6.2-8.9 13.8-10.9 16.8-1.9 3-5 7.4-6.8 9.7l-3.3 4.2 4.1 5.5c2.3 3.1 4.6 5.6 5.2 5.6 1.4 0 30.7-23.1 30.7-24.2 0-2.7-8.6-24.8-9.7-24.8-.7 0-1.7.9-2.3 2.1-1.6 2.9-2.3 1.7-.9-1.4.7-1.5 1.6-2.4 2-2.1.5.3.9-.2.9-1 0-3.3-2-1.2-9 9.6M952.6 594.7c-1.4 2.1-8.6 11.7-16 21.3-12.1 15.6-13.4 17.6-12.1 19.1 1.5 1.6 2 3.9.9 3.9-.4 0-1.2-.7-1.8-1.6-.9-1.2-2.5 5-7.3 30.3-3.4 17.4-6 31.9-5.9 32 .2.2 5.1-7 11-15.9l10.8-16.2-1.6-6.2c-1.7-6.7-2.1-12.4-.5-6.4.6 1.9 1.5 4.8 2.1 6.3 1.1 2.8 1.2 2.5 3.5-5.5 1.3-4.5 5-16.6 8.2-26.8s6.6-21.2 7.6-24.5c.9-3.3 2.3-7.7 3-9.8.7-2 1.2-3.7.9-3.7-.2 0-1.5 1.7-2.8 3.7M509.1 596.6c-7.9 4.2-12.2 9.4-10 12 .9 1.1.8 1.4-.4 1.4-.9 0-1.9-.5-2.2-1-.7-1.2-6.2 2.5-12.6 8.5-4.7 4.3-4.9 3.8 6.6 18.6 10 12.8 12.9 16.1 12.1 13.6-.7-2.3-1.8-13.6-1.1-12.2.2.5 1.3 4.2 2.3 8.2l1.8 7.2 9-7.1c4.9-4 9.8-8.1 10.9-9.1 2.3-2.1 2.9-1.3-7.9-10.2-7.3-6-13-11.4-12.5-11.9.2-.2 5.1 3.6 10.9 8.5 5.8 4.8 10.6 8.7 10.7 8.6.1-.2-1.2-4.5-2.8-9.7-1.7-5.2-3.9-12.2-5-15.6-1-3.3-1.9-7.5-1.9-9.2 0-3.9-1.5-4-7.9-.6M763.5 596.7c-.4 1.6-2.8 10-5.6 18.7-2.7 8.8-4.7 16.1-4.6 16.3.2.2 4.8-3.6 10.3-8.3 5.4-4.7 10.8-9 11.9-9.6 2.1-1 0 1-14.3 13.6l-9 7.8 3.1 2.7c6.3 5.4 18.6 15.1 19 15.1.3 0 .8-1.6 1.1-3.5.4-1.9 1.6-5.4 2.7-7.7 2-4.3 2-4.3 1.3-.8-.3 1.9-1.2 5.3-2 7.5l-1.3 4 3-3.5c5.1-5.9 18.5-23.4 19.8-25.7 1-2 .6-2.6-4.3-6.8-3-2.6-5.6-4.6-5.8-4.4-.1.1-3.2-2.8-6.8-6.5-4.1-4.3-8.4-7.6-11.8-9.2-2.9-1.3-5.5-2.4-5.7-2.4-.3 0-.7 1.2-1 2.7M519 597.6c0 3.9 9.4 34.4 10.2 33 .4-.7 1.3-4.6 2-8.5 1.1-6.7 1.1-7.3-1-11.3-3-5.8-11.2-15.4-11.2-13.2M755.9 602.2c-2.5 2.9-5.1 6.3-5.7 7.5-1.5 2.8-1.4 13.8.2 18.2 1.2 3.4 1.3 3.3 6-12.7 2.6-8.9 4.6-16.6 4.4-17.2s-2.4 1.3-4.9 4.2M670.2 609.4c-3.5.6-6.7 1.8-7.2 2.6s-1 4-1 7.2v5.6l6.6-2.6c5.7-2.2 6.9-3.2 8.2-6.2 1.8-4.5 2.2-8 .8-7.9-.6.1-3.9.7-7.4 1.3M601.9 612.3c.9 3.7 3 8.1 3.7 7.4.3-.2-.3-2.3-1.2-4.6s-1.4-4.4-1.2-4.6c.5-.6 2.1 2.7 3.4 7 .8 2.4 2 3.4 6.4 5.2 3 1.2 5.7 1.9 6 1.7 1-1.1 1.6-12.4.5-12-.5.2-2.7 1.1-4.7 2-2.1.9-3.8 1.2-3.8.6 0-.5 1.7-1.7 3.8-2.7l3.7-1.6-5-.8c-2.7-.4-6.6-.8-8.6-.8-3.7-.1-3.7-.1-3 3.2M963.5 616.2c-5.2 13.1-7.3 20.9-21.1 77.3-.2 1.1 2.3-3.3 5.6-9.8 5.7-11 6.5-13.6 11.5-35 3-12.8 5.4-24.1 5.4-25.2-.1-1.1-.7.2-1.4 3l-1.3 5 .2-5.5c.1-4.2.4-5.5 1.6-5.4s1.6-1 1.6-4.2c.1-2.4 0-4.4-.1-4.4-.2 0-1 1.9-2 4.2M637.9 613.5c-.2.2-3.2.5-6.7.7-6.9.3-7.4 1.1-5.1 7.7 1 3 8.3 9.1 10.8 9.1.6 0 1.1.4 1.1 1 0 1.4-.5 1.3-5.1-1.1-2.3-1.1-4.3-1.9-4.5-1.7-.7.8.9 4.8 2 4.9.6 0 2.5.2 4.3.5 1.9.2 3.5-.1 4-.9.9-1.5 1.2-19.6.3-20.2-.4-.2-.9-.3-1.1 0M641.7 622.5c-.4 5.2-.4 10.2 0 11.1.5 1.3 1.9 1.5 8.6 1.1 8.3-.6 9.7-1.3 9.7-5.5 0-3.1-2.2-2.8-10.2 1.1-7.5 3.7-9.5 2.6-2.3-1.2 4.3-2.2 6.3-4.6 9.9-11.6 1-1.9 1.6-2.4 1.6-1.3 0 .9-.9 3.3-2.1 5.2l-2.1 3.6h2.6c2.5 0 2.6-.2 2.6-5.8v-5.8l-7.7.7c-4.5.5-8.2.4-8.9-.2-.8-.6-1.3 1.7-1.7 8.6M531.9 626.5l-1.5 7.4 2.3-.4c1.3-.3 3.3-.7 4.6-1 1.5-.3 2.7.2 3.5 1.5 1.1 1.8.9 1.9-3.8 1.3-2.8-.3-5-.2-5 .3 0 1.4 19.7 14.1 29.8 19.3 3.2 1.7 2.7-.2-.5-2.1-3.3-1.9-7.9-5.8-6.9-5.8 1.1 0 6 3.2 7.3 4.9 1.5 1.7 2.6 1 1.8-1-.4-.8-5.7-5.4-12-10.3-8.3-6.4-12-9.9-13.5-13-4.7-9.4-4.4-9.4-6.1-1.1M744.5 623c-1.1 2.4-3.2 6-4.7 8.1-1.4 2-2.4 4-2 4.5.4.4.2.4-.5.1-.6-.4-5.4 2.5-10.6 6.4-7.4 5.4-9.7 7.8-10.2 10.1-1.2 5.4-1.5 5.5 19.7-8 11.3-7.2 13.2-9.2 8.5-9.2-2.4 0-5.4-1.6-4.7-2.4.3-.2 2.5-.1 5 .4s4.6.8 4.7.7-.6-3.5-1.6-7.6l-1.6-7.4zM472.9 626.3c-1.5 1.2-7.7 6-13.8 10.7s-11.1 8.8-11.1 9.1c0 .7 25 23.2 25.4 22.8.4-.5 3.6-37.5 3.6-41.7 0-3.8-.6-3.9-4.1-.9M479 624.4c0 .4-.6 7.1-1.4 14.9-2.4 24-2.8 31.7-1.6 31.7 1.1 0 21-12.1 24.5-14.9 2-1.6 1.8-1.9-9.7-16.9-6.5-8.5-11.8-15.1-11.8-14.8M792.5 634.7c-4.4 5.7-9.7 12.7-11.8 15.4L777 655l4.2 2.6c11.5 7.3 22 13.4 22.9 13.4.7 0 .9-2.5.5-7.3-2.1-27.2-3-36.4-3.5-37.8-.4-1.2-2.8 1.2-8.6 8.8M803.4 630.6c.3 3.8 1.1 13.9 1.7 22.4s1.3 15.7 1.5 15.9c.4.4 17.7-15.4 22.7-20.7l2.8-2.9-13.3-10c-7.3-5.4-13.9-10.3-14.7-10.7-1.1-.7-1.2.4-.7 6M389.5 633.5c.3 2.8 1.4 13.8 2.5 24.5 2.7 26.2 3.4 31 5.1 32.1 1.2.8 1.2 1 0 1.8-1.1.7-.1 3.6 5 14.5l6.3 13.6h4.2c4.9 0 4.6.7 6.4-18.5.6-6.6 1.3-12.7 1.6-13.6.6-2.2.7-2.1-23.6-45.4-4-7.2-7.5-13.2-7.7-13.5-.2-.2-.2 1.8.2 4.5M880.7 646.2c-5.2 9.5-11.9 21.5-14.8 26.7-4.3 7.6-5 9.6-4.1 11.1s.8 1.7-1 1.2c-1.9-.5-2-.2-1.5 2.4.3 1.6 1.1 9.5 1.8 17.6l1.3 14.8h9.2l6.2-13.3c3.3-7.2 6.3-15 6.6-17.2 2.5-18.4 6.8-59.7 6.2-60.2-.2-.2-4.6 7.4-9.9 16.9M322.1 636c-.1 2.4-.4 3.1-1 2.1-1.6-2.5-3-.3-2 3.2.5 1.7 1.9 8.8 3.3 15.7 1.9 10.4 3.3 14.5 8 24.2 3.1 6.5 5.9 11.8 6.1 11.8.6 0-.4-5.6-2-11-.7-2.5-3-11.7-5-20.5S325 642.6 324 639c-1.6-5.6-1.9-6-1.9-3M325.4 634.9c.3.5 1.7 6.2 3.1 12.7 4.5 20.9 12.6 52.9 13.7 53.9.7.7.9.1.6-1.8-.3-1.5-.1-3 .5-3.4.6-.3.8 1.1.5 3.8-.5 3.8 0 5.4 3.9 12.1 3.6 6.2 5 7.8 6.8 7.8 2.3 0 2.3 0 1-5.8-.7-3.1-2.6-11.5-4-18.7-4.5-21.5-3.8-19.7-5.8-14-1.7 5-1.7 5-1.2 1 1.9-13.7 1.9-13-1.5-19.2-5.5-10-17.2-29.3-17.7-29.3-.2 0-.2.4.1.9"/><path d="M432.2 645.2c-4 12.9-9.2 35.1-7.9 33.8 1.1-1.2 18.4-29.7 19.1-31.4.4-1.3-.6-3.4-3.4-7.2-2.2-3-4.2-5.4-4.4-5.4-.1 0-1.7 4.6-3.4 10.2M840.1 640c-2.2 3-3.1 5.3-2.9 7 .4 2.6 17.7 31.4 18.4 30.7.8-.7-7.4-31.2-9.8-36.7l-2.4-5.5zM943.5 652.5l-9.8 16.6 1.3 11c.6 6.1 1 11.3.7 11.5-.2.3-.8-2.1-1.1-5.3-1.4-11-2-10-6.6 10.4-2.4 10.9-4.5 20.6-4.8 21.5-.3 1.3.2 1.8 1.5 1.8 1.1 0 2.7-.8 3.5-1.8 3.2-3.6 10.7-19 12.3-25.2 3.5-13.4 13.4-56.4 13.1-56.7-.1-.2-4.7 7.2-10.1 16.2M517.9 645.5c-5.7 4.7-10.4 9.1-10.4 9.7 0 1.7 14 9.5 27.3 15.3l11.3 4.9 2.6-2.6 2.6-2.6-4.2-6.4c-14.7-22.5-17.7-26.7-18.2-26.8-.4 0-5.3 3.8-11 8.5M747.7 641.8c-1.9 2.6-5.2 7.4-7.4 10.8-2.1 3.3-5.5 8.3-7.6 11.1-2 2.8-3.7 5.5-3.7 6s1.4 1.9 3.1 3.2l3.1 2.3 10.8-4.7c10.4-4.5 27.1-14 26.9-15.3 0-.7-5.3-5.1-16.6-14.1l-5.2-4zM361.1 640c0 .8 1.3 9.1 2.9 18.5 1.7 9.3 3.7 21 4.6 26 1.5 9.1 3.2 16.5 3.8 16.5.8 0 19.1-8.1 19.8-8.8s-17.9-33-26.1-45c-2.1-3.1-4.1-6.4-4.4-7.2-.5-1.3-.5-1.3-.6 0M917.8 641.8c-.9 1.5-5.5 8.8-10.2 16.2-4.6 7.4-10.6 17.1-13.2 21.5s-5.3 9-6.1 10.2c-1.5 2.2-1.3 2.3 8.7 7.1 9.9 4.7 10.2 4.8 11.1 2.8.8-1.9 5.3-25 9.5-48.6.8-4.7 1.7-9.3 2-10.3.8-2.4.2-2.1-1.8 1.1M538.3 647.7c2.9 4.3 7 10.8 9.2 14.5 2.1 3.8 4.3 6.8 4.7 6.8s.9-1.2.9-2.8c.1-1.6.3-2 .6-1 .7 2.6 1.7 2.2 5.3-1.8 1.7-2 3.4-3.4 3.7-3.1.2.3-1.6 2.5-4.1 5-4.9 4.6-5.3 5.8-3.3 9.5 1.2 2.1 1.5 1.7 5-6.1 2.1-4.6 3.5-9.1 3.2-9.9-.4-.9-2-2.2-3.7-2.9s-8.3-4.6-14.6-8.6-11.6-7.3-11.7-7.3c-.2 0 2 3.5 4.8 7.7M736 646.5c-5.2 3.5-11.8 7.5-14.7 9-4.7 2.4-8.4 5.2-5.1 4 .7-.3 2.1.7 3.2 2.3 1 1.5 3.3 3.7 5.1 4.9l3.2 2.1 9.6-14.4c5.3-7.9 9.3-14.4 8.9-14.3-.4 0-5 2.9-10.2 6.4M446.5 651.7c.6 3.8 7.6 27.8 9.8 34 .6 1.8 1.4 3.3 1.8 3.3 1.2 0 14.9-15.1 14.9-16.4 0-1.2-25.2-24.6-26.5-24.6-.4 0-.4 1.7 0 3.7M819.3 660.1c-12.2 11.1-15.1 14.7-10.5 13.3 1.1-.4 1.3-.3.5.3-.9.6.7 3 5.5 8.2 7.7 8.4 6.7 8.7 11.7-3.9 3-7.7 2.7-5.5-.8 5.3l-2.5 7.7 3.7 5.8c6 9.2 5.9 9.2 13.8 2.4 3.7-3.3 8.9-8 11.6-10.6l4.7-4.6-5.5-8.7c-3.1-4.9-7.6-12.3-10.2-16.6-2.6-4.2-5-7.4-5.3-7-.3.5-1.4 3.5-2.4 6.8-2.4 7.9-4.5 13.3-4.5 11.9-.1-.7.8-4 1.9-7.5 2.4-8 3.5-14.9 2.4-14.9-.5 0-6.9 5.4-14.1 12.1M438.4 659.8c-3.2 5.2-8.1 12.7-10.8 16.9l-4.9 7.5 2.9 2.8c9 8.6 19.6 18 20.3 18 .4 0 2.9-3 5.5-6.6 5.5-7.7 5.6-5.6-1.6-29.4-2.7-9.1-5.1-17-5.2-17.5-.2-.6-2.9 3.2-6.2 8.3M685.1 656.4c.7 1.4 1.6 2.4 2.1 2.3.8-.2 4.1 7.4 3.4 8-.1.2-1.8-1.8-3.6-4.5-1.8-2.6-3.5-4.8-3.6-5s-1.6.4-3.2 1.2c-2.1 1.1-3.2 2.6-3.7 4.8-.3 1.8-1.1 5.2-1.7 7.6-.6 2.3-.9 4.5-.6 4.7.8.8 6.9-1.6 6.3-2.5-.2-.4.7-.5 2-.2 1.4.2 2.5 0 2.5-.5s1.8-.7 4-.5c3.7.4 5.4-.8 3-2.3-.5-.3-.7-1.8-.5-3.3.6-3.4-3.3-11.6-5.8-12-1.5-.3-1.6 0-.6 2.2M492 663.9c-5.8 3.6-11.6 7.3-12.8 8.2l-2.3 1.6 3.3 2.5c1.8 1.4 6.7 5.6 10.8 9.3 8.4 7.6 8.2 7.6 9.3-3.6.3-3 1-8.6 1.6-12.4 1.8-10.9 1.9-11.5 1.2-11.9-.3-.2-5.3 2.6-11.1 6.3M595.9 659.8c-1.3 1.5-3.9 4.7-5.6 6.9-2.9 3.6-3.1 4.2-1.5 4.6 5.5 1.5 7.5 1.7 8.8.6 1.1-.9 1.4-.8 1.4.4 0 1.3 5.8 4.2 6.7 3.3.2-.2-.1-2.5-.8-5.2-.6-2.7-1.4-6.2-1.8-7.8-.3-1.6-1.5-3.5-2.7-4.2-1.9-1.3-2.3-1.1-4.5 1.4M777.2 664.3c.5 4 1.3 9.6 1.8 12.6.6 3 1 7 1 8.8 0 3.3 1.3 4.5 2.3 1.9.3-.7 2-2.4 3.9-3.6l3.3-2.3-3.5 3.9c-1.9 2.1-3.8 4-4.2 4.2-.5.2-.8.8-.8 1.4 0 1.4 4.4-2 13.7-10.6l8.2-7.5-8.7-5.4c-4.8-2.9-10.8-6.5-13.3-7.9l-4.5-2.7zM505.6 659.8c-.9 3-4.8 30.2-4.4 31.1.2.5 5.2-1.1 11.2-3.5 5.9-2.4 13.1-5 16-5.8 2.8-.8 6.6-1.9 8.4-2.4 1.7-.6 3.2-.7 3.2-.3s-3.9 2-8.7 3.5c-12.1 3.9-29.3 10.7-29.3 11.5 0 .3 6.6 4.8 14.6 10l14.6 9.3 7.9-1.3c9.7-1.6 10.8-2.1 8.9-4.6-1.7-2-4-6-4-6.8 0-.2.7-.2 1.5.1.8.4 1.5 1 1.5 1.5 0 .6.8 2.1 1.7 3.5 1.7 2.6 1.7 2.6 3.5-7.7 3-17.4 3.1-18.4 2.3-17.7-.4.4-2.1-.2-3.8-1.2-2-1.2-4-1.7-5.9-1.3-2 .4-2.8.2-2.6-.7.2-.7-3.4-2.8-8.8-5.1-5-2-11.4-5.2-14.3-6.8-2.9-1.7-7-4-9.1-5.1-3.6-1.8-3.9-1.9-4.4-.2M765.2 662.5c-3.9 2.5-11.6 6.5-17.2 8.8s-10.3 4.6-10.4 5.2c0 .5 1.9 1.6 4.4 2.3 12.6 3.7 23.3 7.3 27.4 9.2 8.2 3.7 9.6 4.1 9.6 2.6 0-.7-.7-5.7-1.6-11.2-.8-5.4-1.8-12.5-2.1-15.7-.3-3.4-1.1-5.7-1.8-5.7-.6 0-4.3 2-8.3 4.5M565.6 660.9c-.8 1.3-7.6 17.1-7.3 17.1 1.6-.2 23-6 23.3-6.3s-2.5-2.7-6.3-5.3c-3.7-2.7-6.9-5.2-7.1-5.6-.5-1.1-2-1-2.6.1M706 665.1c-3.6 2.8-6.9 5.4-7.3 5.9-.9.8 4.2 2.5 16.1 5.2 3.4.8 6.2 1.1 6.2.7 0-1.6-6.7-16.3-7.6-16.5-.5-.2-3.8 2-7.4 4.7M348.6 674.5c.4 1.7 2.9 12.4 5.4 24l4.6 21h3.4c3.2 0 3.5-.3 5.7-6 1.3-3.2 2.3-6.7 2.3-7.7 0-1.6-14.8-24.8-20.2-31.8l-2-2.5zM585.5 674.3c-.3 1.2-2 13.3-2.9 21.9-.3 2.7-.4 4.8-.2 4.8.3 0 2.1-2.7 4.1-6.1 2.1-3.3 3.9-5.8 4.1-5.6.4.4-4.1 9.4-5.8 11.5-.6.7-.9 1.5-.6 1.7.2.3 6 1.8 12.8 3.4 9.4 2.3 12.6 2.7 13.3 1.8 1.1-1.7.2-9.5-2.3-20.4-2.1-9-2.2-9.2-5.7-10.4-2.9-.9-3.7-.9-4.4.2s-.9 1-.9-.3c0-1-1-2-2.2-2.2-7.1-1.4-8.9-1.5-9.3-.3M688.5 674c-8.5 2.4-13.7 3.9-14 4.2-.1.2-1.4 5.2-2.8 11.3-2.7 11.6-2.8 20.1-.1 19.1.7-.3 6.4-1.8 12.6-3.3s11.6-3.2 12-3.8c1.1-1.4 1-8.4-.2-16.8-1.9-12.9-1.5-12.3-7.5-10.7M696.4 674.8c.2.9.7 4.6 1.1 8.2.3 3.6.9 7.8 1.2 9.5l.6 3 .8-2.5.7-2.5.1 2.5c.1 1.5-.3 3-.8 3.5-.5.6-.7 2.2-.4 3.6.5 2.7 2.6 3.4 26.2 8.6 1.9.5 2.2.2 1.8-1.3-.3-1.1-1.1-5.3-1.7-9.4s-1.8-10-2.6-13l-1.5-5.5-9-1.8c-4.9-1-9.4-1.5-9.9-1.2-.6.3-1 2.1-1.1 3.8 0 1.8-.4 4.1-.9 5.2-.9 1.9-.6-2.5.6-8.2.3-1.6-.3-2.3-2.7-3.2-2.6-.9-3-.8-2.5.7M467.2 682.7l-8.1 8.7 2.8 3c1.4 1.7 5.3 5.7 8.6 8.8l6 5.6 6-4.4c3.3-2.5 7.9-5.7 10.2-7.2 2.4-1.5 4.3-3.2 4.2-3.7 0-.9-11.1-11-18.9-17.3l-2.8-2.2zM570 676.9c-9.9 2.3-11.7 3-12.7 5.1-1.3 2.9-5.4 25.2-4.7 25.9.5.5 16.9-2.4 22.7-4.1 3.8-1.2 3.9-1.3 3.8-8.3 0-3.5.1-3.7.9-1.5.7 2.1.8 2.2.9.5.1-1.1.8-6.2 1.5-11.3.9-6.5 1-9.2.2-9.1-.6 0-6.3 1.3-12.6 2.8M797 680.6c-4.2 3.8-9 8.1-10.8 9.6s-3.1 3.2-2.7 3.7c.3.6 5 4.1 10.5 8l9.9 7 8-8c4.5-4.4 8.1-8.6 8.1-9.3s-3.5-5.1-7.8-9.6l-7.8-8.3zM920 689.2c-9.4 14.2-10 15.6-9.5 19 .4 2 .2 4.5-.4 5.5-.9 1.6-1.1 1.4-1.2-1.2l-.1-3-.8 3c-1.6 6.3-1.3 7.5 2.1 7.5 3 0 3.1-.1 2.5-3.8l-.5-3.7 1.3 3.5c1 2.8 1.9 3.6 4.3 3.8l3.1.3 2.7-11.3c4.7-20 7.6-34.1 7.1-34.5-.3-.3-5 6.4-10.6 14.9M728.7 678.9c-2.6.9-4.5 2.1-4.3 2.7.3.7 1.5 6.6 2.7 13.3l2.2 12.1 2.3-3.8c1.2-2 2.5-5.4 2.9-7.5.7-3.6.5-4-3.9-8-2.5-2.4-4.6-4.7-4.6-5.2s.8 0 1.9 1.1c1 1 3.3 3.2 5.1 4.8 2.9 2.5 3.2 3.3 2.8 7-.3 2.3-1.6 6.5-3 9.3l-2.5 5.2 4.6 1c11.8 2.5 12.2 2.5 21.2-3 4.6-2.8 11-6.7 14.1-8.6 9.1-5.5 9.1-5.7-.4-9.4C759 685.7 739 679 737.3 679c-.7 0-1.3-.5-1.3-1 0-1.3-1.5-1.1-7.3.9M946.6 690.7c-5.2 10.5-10.5 24.6-10.6 28 0 .7 1.1 1.3 2.4 1.3 1.7 0 2.7-.8 3.4-2.8 1.6-4.3 8-26.4 8.8-30.2.3-1.9 1.1-4 1.6-4.7s.8-1.7.6-2.3-3 4.2-6.2 10.7M327.4 681.5c.3 1.1 1.7 6.5 3.1 11.9 1.4 5.5 3.8 13.6 5.3 18 2.4 7.1 3 8.1 5.3 8.4l2.6.3-2.3-8.8c-1.3-4.8-4.9-13.7-8-19.8-5.9-11.4-7.1-13.4-6-10M627 685.9c0 .5.7 1.2 1.6 1.5.9.4 1.4.9 1.1 1.3-.4.3-1.3 0-2.2-.7s-1.8-1-2.1-.7-1.3 6-2.2 12.7c-1.5 11.4-1.5 12.3.2 15.3 1 1.8 1.1 2.4.3 1.5-1.6-2.1-2.7-1.5-2 1.2.4 1.5 1.6 1.8 8.9 1.9l8.4.1v-35h-6c-3.3 0-6 .4-6 .9M641 702.5V720h5.4c5 0 5.6-.3 7.7-3.3 1.3-1.7 2.7-3.5 3.2-3.8 1.3-.9-2-26.1-3.5-27.1-.7-.4-3.9-.8-7-.8H641zM422 690.8c0 2.1-.7 8.3-1.5 13.8-.8 5.4-1.5 11.1-1.5 12.6 0 2.8 0 2.8 7 2.8 5.7 0 7.5-.4 9.2-2 1.3-1.2 2.4-1.6 2.8-1 .3.6 1.4-.5 2.3-2.2.9-1.8 2.4-4.3 3.2-5.4 1.5-2.1 1.2-2.5-8.2-11.4-12.7-11.9-13.3-12.2-13.3-7.2M846 696.6c-5.8 5.2-10.6 9.9-10.8 10.4s1.5 3.6 3.8 6.9l4.2 6.1h8.9c6.5 0 8.9-.3 8.9-1.3-.1-2.7-3.8-30.8-4.1-31.2-.2-.2-5.1 3.9-10.9 9.1M452.7 700.1c-2.7 3.8-4.7 7.3-4.5 7.8s2.7 3.4 5.6 6.5c4.4 4.6 5.9 5.6 8.7 5.6 2.7 0 4.1-.9 7.4-4.7 2.3-2.5 4-5 3.9-5.4-.3-.7-15.8-16.9-16.2-16.9 0 0-2.3 3.2-4.9 7.1M813.8 701.4c-4.3 4.6-7.8 8.6-7.8 9 0 .3 1.9 2.7 4.1 5.1 6.1 6.6 8.9 6.3 15.7-1.4 2.8-3.3 5.2-6.4 5.2-7 0-.9-8.9-14.2-9.3-14-.1 0-3.7 3.8-7.9 8.3M384.8 697.3c-4.2 1.8-8.6 3.9-9.8 4.7l-2.2 1.6 4.1 8.2 4.1 8.2h13v-13c0-7.2-.3-13-.7-13-.5.1-4.2 1.5-8.5 3.3M886 697.8c0 2.2-.3 8-.6 13l-.7 9.2h13.9l3.8-7c2.6-4.8 3.5-7.6 3.1-9.1-.5-1.4-3.5-3.4-9.1-6-4.6-2.2-8.9-3.9-9.4-3.9-.6 0-1 1.7-1 3.8M489.9 701.6c-13.5 9.1-13.3 8.4-5.9 13.8 6 4.4 6.5 4.6 13.2 4.6 6.8 0 7-.1 6.5-2.3-.3-1.2-1.5-6.6-2.7-12-1.2-5.3-2.3-9.7-2.5-9.7-.1 0-4 2.5-8.6 5.6M501.3 698.2c.3 1.2 1.3 6.3 2.3 11.3.9 5 2 9.4 2.4 9.8.7.7 20.6-4.5 21.8-5.7.2-.3-1.6-1.7-4-3.2-2.3-1.5-6.7-4.2-9.5-6-2.9-1.9-7.1-4.5-9.4-6l-4.2-2.6zM766.5 703.5c-6.6 4.1-12.8 7.8-13.7 8.1-1 .3-1.8.9-1.8 1.3 0 .9 21.8 7.6 22.5 7 .7-.8 5.9-23.9 5.3-23.9-.2 0-5.7 3.4-12.3 7.5M778.6 707.2c-1.4 6.2-2.6 11.6-2.6 12 0 .5 3.3.8 7.3.8 7 0 7.3-.1 13-4.5 3.2-2.5 5.5-5 5.2-5.5-.7-1.1-19-14-19.8-14-.3 0-1.7 5.1-3.1 11.2M583.7 705.4c.4.6 3.4 4.1 6.6 7.8 5.7 6.4 6.2 6.8 10.3 6.8 4.2 0 4.5-.2 6.5-4.5 1.2-2.5 2-4.7 1.8-4.8-1.7-1.1-25.7-6.2-25.2-5.3M701 705c0 .3 1.7 3.6 3.8 7.5l3.7 7 8.9.3c9.8.3 10.6-.1 10.6-5.5 0-2.7-.4-3.4-2.7-3.9-1.6-.4-7.6-1.9-13.5-3.3-6-1.5-10.8-2.4-10.8-2.1M566 707.6c-5.2 1.3-10.5 2.6-11.7 2.9-2 .5-2.3 1.2-2.3 5.1v4.5l9.7-.3 9.7-.3 3.9-7.3c4.4-8.4 4.9-8.2-9.3-4.6M681.3 707.9c-10.2 2.7-12.9 4-10.6 4.8.7.2 1.7 2 2.3 3.9 1.1 3.2 1.4 3.4 5.4 3.4 4.6 0 5.5-.6 13.3-9.2 2.3-2.5 4.7-4.8 5.5-5.1 4.2-1.7-7.3-.1-15.9 2.2M729.6 713.4c-.3 1.1-.6 3.1-.6 4.3v2.3l17.8-.1 17.7-.1-7.9-2.6c-6.6-2.2-8.1-2.4-9.8-1.3-1.8 1.1-2 1.1-1.5-.2s-.4-1.7-4.1-2.2c-2.6-.4-6.1-1-7.9-1.5-2.7-.7-3.2-.5-3.7 1.4M539 713.2c-5.7 1.3-5.7 1.3-3.4 3.9 1.9 2.2 1.9 2.2-.3.8-1.3-.8-2.3-1.7-2.3-2.1 0-1.3-2-.9-10 1.6l-7.5 2.4 17.3.1 17.2.1v-4c0-3.9-.1-4-3.2-3.9-1.8.1-5.3.6-7.8 1.1"/></svg>