<svg xmlns="http://www.w3.org/2000/svg" width="1706.667" height="960" viewBox="0 0 1280 720"><path d="M0 162.2v162.1l29.3-.8c16-.5 54.9-.9 86.4-1 56.3-.2 57.3-.3 60.5-2.4 1.8-1.1 2.6-2.1 1.8-2.1-2.6-.1 1.2-1.9 5.1-2.3 6.5-.8 8.9-1.8 8.9-3.8 0-1 .6-1.9 1.4-1.9s1.6-.7 2-1.5c.3-.8 1.2-1.5 2-1.5.7 0 1.6-.7 2-1.5.3-.8 1.2-1.5 2.1-1.5.8 0 1.5-.5 1.5-1.1 0-1.9 2.8-3.9 5.4-3.9 1.7 0 2.6-.6 2.6-1.6 0-.8.4-1.3.9-1 1.3.9 7.1-2.4 7.1-4 0-.8.7-1.4 1.5-1.4s1.5-.7 1.5-1.5c0-1.8-1.6-2-2.4-.3-.3.7-.4-.7-.1-3.2.7-5.7 2.5-7.7 2.6-2.9 0 3.2.1 3.3 1 1 .5-1.4.7-3.1.4-3.8-.2-.8 0-1.1.5-.8s1.9.1 3.1-.5c1.6-.9 2-1.9 1.7-4.1-.3-1.6-.1-2.9.4-2.9.4 0 .8-.9.8-2 0-2.3 4.2-4.5 10.3-5.5 2-.3 3.7-1 3.7-1.5 0-.6.6-1 1.3-1 .8 0 2.2-.9 3.2-2 1.4-1.5 1.5-2 .4-2s-1.1-.2.1-1c1.3-.8 1.2-1-.2-1-3 0-2-2.8 2.4-7 2.6-2.6 4.4-3.7 4.8-3s1.5-.2 2.8-2.4c1.4-2.4 1.7-3.6.9-3.9-.9-.3-.9-.7 0-1.8.6-.8 1.4-3.7 1.8-6.4.4-2.8 1.4-5.8 2.3-6.8s2.1-4.3 2.7-7.5c.8-3.9 1.6-5.6 2.6-5.5 1.1.2 1.3-1.5 1-9.5-.4-8.5-.6-9.1-1.1-4.7-.4 2.7-.8 3.9-.8 2.6-.2-1.8-.6-2.2-2.2-1.8-2.1.5-7-1.4-8.8-3.6-1.3-1.6.5-4.1 3.6-5.1 1.2-.4 2.2-1.1 2.2-1.6s.6-.7 1.4-.4c.9.3 1.7-.3 2.2-1.8.8-2.2.8-2.2 1.6.7.4 1.6.5-2 .2-8-.8-18.3-.5-42.3.6-56 2.8-35 9.9-81.1 16-103.5 1.1-4.1 2.5-9.7 3-12.3.5-2.7 1.2-5.3 1.5-5.8.4-.5-56.1-.9-144.4-.9H0zM310 5.7c-1.2 3.2-3.1 7.6-4 9.8-4.3 9.7-5.1 14.6-4.8 31.1.2 11.9.5 14.9 1.2 11.9.4-2.2 1.4-5.4 2.2-7 1.3-3.1 2.9-8.2 4.4-14.5.5-1.9 2.2-7.3 3.9-12 2.3-6.6 3-7.8 3-5.3.1 1.7-.3 3.4-.8 3.7-.9.6-2.6 7.4-2.2 9 .1.4-.3 1.4-1 2.2-1.1 1.3-4.2 12.1-5.8 19.9-.5 2.2-1.6 6.2-2.5 8.8-3.2 9-1 5.8 4.2-6C318.3 33 318 34 317.3 16c-.6-15.5-.7-16-2.8-16-1.7 0-2.6 1.2-4.5 5.7M325.2 1.2c-3.5 4.5-5.2 10.5-5.2 18.7v8.6l4-6.3c2.2-3.5 5.1-8.4 6.5-11 1.3-2.6 3.4-6.2 4.6-8l2.1-3.2h-5.5c-3.2 0-5.9.5-6.5 1.2M337.2 3.2c-1 1.8-5.3 9.1-9.4 16.3l-7.5 13 1.2 24c.7 13.2 1.3 24.2 1.4 24.5 0 .3 2.3-3.3 5-8s7.3-12.6 10.1-17.5l5.2-9-.6-21c-.9-27-1.4-29-5.4-22.3M344 7.4c0 4.1.4 7.7.9 8.1.6.3.7 3.5.4 7.4-.3 3.7-.2 9.4.2 12.6l.7 5.7 2.6-5.6c1.5-3.1 3-5.6 3.5-5.6 1.3 0 .7 1.6-1.8 5.5-1.5 2-2.5 3.9-2.3 4 .2.2 5.9-5.9 12.8-13.4 12.3-13.6 12.4-13.8 12.2-18.2-.6-8.4.3-7.9-15.3-7.9H344zM383.5 6.1c-3.9 3.4-7.1 6.3-7.3 6.4-.2.2.2 9.4.9 20.5.9 15.2 1.6 20.3 2.6 20.7 1.1.5 1.1.7 0 1.7-1.1.9-1.2 4.4-.5 19.1.5 9.9 1.1 18.1 1.4 18.4.2.2 4.8-.1 10.2-.8 5.3-.7 11.3-1.5 13.2-1.7 1.9-.1 6.8-.6 10.8-1 3.9-.3 7.2-1 7.2-1.4 0-1.8-5.9-47.3-6.2-47.5-.2-.2-7.5 2.8-16.3 6.6S383.1 54 382.7 54c-2.3 0 1.1-2.1 7.6-4.8 18.4-7.7 24.7-11.1 24.7-13.5 0-2.5-2.7-26.1-3.6-32l-.6-3.7h-20.4zM413.4 4.2c.8 4.6 3.5 28.5 3.6 30.5 0 2.4 8.5 1.5 41.3-4.5 2.1-.4 3.8-1.2 3.9-1.7.1-.6-.5-7.2-1.2-14.8L459.7 0h-47zM462 2.2c0 2.6 1.7 18.5 2.6 23.7l.5 3.3 14.7-.7c21.3-1.1 24.1-1.3 30.5-1.4l5.9-.1-.6-8.3c-.4-4.5-.9-10.6-1.2-13.5l-.6-5.2H462zM516.3 4.7c.4 2.7.9 7.7 1.2 11.3s.8 7.5 1.1 8.8l.5 2.3 28.7-.6c15.8-.4 28.8-.8 28.9-.9.2-.1 0-5.9-.4-12.9L575.7 0h-60zM578.3 11.3c.3 6.2.9 12 1.2 12.9.8 2.1 8.7 3.3 31.5 4.8 9.6.6 19.9 1.3 22.8 1.7l5.2.6V0h-61.3zM641 15.6v15.7l7.3-.7c8.9-.8 46.6-3.6 48.9-3.6 1.9 0 2.3-2.4 3.3-17.8l.7-9.2H641zM702.7 6.7c-.4 3.8-.7 9.8-.7 13.5V27l19.8.1c20.9.1 36.5-.1 37-.5.5-.6 2.1-11.5 2.7-18.9l.7-7.7h-58.9zM763.7 5.2c-.4 2.9-.9 9-1.3 13.5l-.7 8.1 4.4.6c8.2 1 46.9 1.8 46.9.9 0-.4.7-5.8 1.5-11.8.8-6.1 1.5-12.2 1.5-13.8V0h-51.7zM817 11.7c-2.1 19.5-2.7 17.5 6 18.9 15.4 2.4 35.6 5.5 37.5 5.7 1.8.2 2.1-.9 3.7-13.8.9-7.7 1.7-15.9 1.7-18.3L866 0h-47.8zM866.7 16.2c-.9 9-1.7 17.5-1.7 18.9 0 2.5 1.1 3.2 14.3 9 14.5 6.4 22.8 10.8 17.7 9.4-1.4-.4-6.5-2.5-11.5-4.7-7.7-3.5-20.5-8.8-21.1-8.8-.5 0-5.5 32.7-6.7 43.7-.6 4.9-.6 4.9 9.3 5.8 13.1 1.2 15.7 1.4 23.9 2.5 4.6.6 8.5.9 8.8.7.3-.4 2.2-29.4 4.1-64.6l.7-14.3-7.5-6.9-7.5-6.9h-21.1zM907.6 1.6c-.3.9-.6 4-.6 6.9v5.4l13.8 14.6L934.5 43l.6-4.7c.4-2.7 1-12.3 1.4-21.6l.8-16.7h-14.6c-12.3 0-14.6.2-15.1 1.6M939.8 1.2c-.3.7-.6 4-.7 7.3s-.6 10.9-1.1 17c-1.7 19.3-1.6 20.4 3.4 28.7 2.4 4 7.3 12.1 10.8 18l6.5 10.8 1.1-17.8c1.5-22.5 1.5-29.3-.1-32.8C957.4 27 941.7 0 941 0c-.4 0-1 .6-1.2 1.2M946.1 4.2c5.5 10.7 15.4 26.2 15.6 24.3.1-1.1.4-8 .5-15.3l.4-13.2H944zM964.2 19.2l.3 19.3 6.4 15c9.5 22 8.7 21.3 9.5 8.8.4-6 .6-15.3.5-20.8-.1-9.7-.3-10.5-6.3-25.7-5.4-14-6.4-15.8-8.4-15.8h-2.3zM991.4 1.7c4.4 14.9 14.2 63.1 16.1 79.8 4.8 42.1 5.5 55.6 4.5 85.5-1.2 34-1.5 40.6-3.7 70.4-1.5 20.4-1.5 23-.2 24 .8.6 1.8 1.9 2.2 2.8.3 1 1.7 1.8 2.9 1.9 2.2.1 2.2.1-.2.9-2.1.7-2.2.8-.5.9 1.2.1 2.5-.3 3-.7 3-2.6 19.5-4.2 19.5-2 0 .4 1.9 1.9 4.3 3.2 7 4.1 9.5 9 10.6 20.4.5 5.3 1.2 10.5 1.6 11.4.5 1.2.2 2-.8 2.4-1.6.6-2.1 2.2-3.2 10.8-.6 4.2-.5 4.8.7 3.8 1.1-.9 1.7-.7 2.8.8.8 1.1 2 2 2.6 2 .7 0 1.4.6 1.7 1.4.4.9 3.3 1.5 10.2 1.8 5.4.3 10 1 10.4 1.6.9 1.5 18.5 4.2 27.7 4.2 5 0 8.6.4 9 1.1s2.6 1 5.8.6c2.8-.2 11.6-.2 19.6.2 14.1.6 14.5.7 14.2 2.7s.3 2.2 7.8 2.9c7.6.7 8 .8 8 3.1 0 2.1-.5 2.4-4.2 2.5l-4.3.2 4 .6c4.7.8-9 1.9-33 2.7-8.2.2-17.7.9-21 1.4s-10.7 1.4-16.5 2.1c-5.8.6-11.6 1.7-13 2.5-1.4.7-1.9 1.3-1.2 1.4.7 0 1.2 1.3 1.2 3.3 0 3.2.1 3.2 3.9 2.9 3.2-.3 3.9-.1 4.4 1.8.3 1.2 1.5 2.4 2.6 2.7 1.2.3 2.1.9 2.1 1.4s.7.9 1.5.9 1.5.9 1.5 1.9q0 5.1 3.6 5.1c1.7 0 2.2.4 1.8 1.5-.4.8-1.7 1.5-3.1 1.5-1.3 0-3.4 1.1-4.7 2.5s-3.1 2.5-4 2.5-1.6.7-1.6 1.5c0 .9-1.2 2.1-2.6 2.7-2.1 1-2.7.9-3.5-.3-.7-1.2-.9-1.2-.9.1 0 2.2-7.5 4.7-16 5.5-8 .6-20.5 3.2-23 4.6-.8.5-3 1.6-4.9 2.5-1.8.8-3.1 1.8-2.7 2.1.9.9-1.4 4.4-2.6 3.7-.7-.4-.8.1-.3 1.6.5 1.7.4 2.1-.6 1.5q-1.35-.9-.6.9c.4.9.3 2.4-.2 3.4-.9 1.7-3.1 12.6-3.1 15.1 0 .7.4 1 .8.7 1.2-.7.8 3.4-.4 4.2-1.4 1.1-3.1 4.5-3.9 8-.5 2.5-.3 3.2.9 3.2.9 0 1.6.4 1.6 1 0 1.9 3.9 5 5.5 4.4.9-.4 2.2.1 3 1.2 1.3 1.7 1.4 1.7 1.5.2 0-1.1.6-1.5 2-1.1s2 0 2-1.1c0-.9.8-1.6 2-1.6 2.8 0 2.5 1.6-.7 3.7-1.6 1-3 2-3.3 2.4-.3.3-3.4.9-7 1.3-3.5.3-6.8 1-7.3 1.5s-1 3.1-1.1 5.8c-.1 4.4-.6 5.5-4.4 9.3-2.3 2.4-4.5 5.3-4.7 6.4-.3 1.2-1.2 9.3-2 18.1-1.8 18.2-3.3 24.3-8.1 33.5-3.7 7.2-7.2 11.2-12.6 15-2.4 1.6-3.8 3.4-4.1 5.5-.3 1.6-2.7 14.9-5.2 29.5-2.6 14.6-5.5 32.1-6.6 38.9-3.7 24.2-13.8 63.5-22.4 87.6-2.5 7.2-4.9 13.8-5.2 14.7-.5 1.7 7.9 1.8 166.1 1.8H1280V0h-144.6c-137.2 0-144.5.1-144 1.7m160.4 363.4c.2.5 1.5.9 2.8.9s2.4.4 2.4 1c0 .5-.6 1-1.4 1s-1.7.6-2 1.2c-.5 1-.7 1-1.2 0-.8-1.7-1.5-1.5-4.6 1.2-3 2.5-3.7 5.6-1.3 5.6.8 0 1.5.4 1.5 1s-2.7 1-6 1-6-.4-6-1-6-1-16-1h-16v-2.5c0-2.5.1-2.5 8-2.5 6.4 0 8-.3 8-1.5q0-1.5 3-1.5c1.7 0 3-.5 3-1 0-.6 2-1 4.5-1 2.9 0 4.8-.5 5.1-1.3.4-1.1 2.3-1.3 8.2-.9 4.2.3 7.9.9 8 1.3m-42.8 80.4c6.3.3 11.9 1 12.4 1.5.6.6 2 1 3.2 1 1.3 0 3.5 1.1 4.9 2.4l2.6 2.5-4.3.6c-2.4.4-5.6.3-7.3 0-1.6-.4-7-.8-12-1-9.2-.4-10.2-.5-14.5-2-2.9-.9-6.2-4.4-5.4-5.6.3-.5 2.4-.7 4.7-.4 2.3.2 9.4.7 15.7 1m-22.1 15.7c.4-.7 1.2-.8 2.1-.2.8.5 3.3.6 5.5.3 3.4-.4 4.6-.1 7.3 2.2 3.6 3 3.9 4.5 1.7 7.9-2 3-7.7 5.6-8.3 3.8-.2-.7-1.6-1.2-3-1.2-4.4 0-10-1.9-12.7-4.3-1.9-1.7-2.3-2.8-1.8-5 .3-1.8 1-2.6 1.9-2.3.7.3 1.8-.2 2.5-1 .9-1.1 1.5-1.2 2.6-.2 1.1.9 1.6.9 2.2 0m119.5 221.5c1.7 5.1 3.3 9.3 3.6 9.3s2.1-4.3 3.9-9.5c2.6-7.5 3.7-9.5 5.2-9.5 1.1 0 1.9.2 1.9.4s-2.1 6.1-4.6 13c-3.7 10.1-5 12.6-6.5 12.6-1 0-1.9-.2-1.9-.4s-2-6.1-4.5-13c-4.3-12.3-4.4-12.7-2.3-12.4 1.8.2 2.7 1.9 5.2 9.5m29-.5c1.4 1.3 2.8 3.5 3.2 5l.6 2.8h-7.2c-6.8 0-7.1.1-6.8 2.2.4 2.9 5.1 4.7 7.8 3 4.3-2.7 6.9-.6 2.8 2.2-3.6 2.6-8.5 2-11.9-1.3-8.1-8.1 3-21.5 11.5-13.9m20.9-1c3.5 1.8 4.6 4 4.7 8.6 0 5.8-3.3 9.2-9 9.2-5.6 0-9-3.6-9-9.6 0-3.5.5-4.7 3.1-6.8 3.3-2.8 6.7-3.3 10.2-1.4M298.1 7c-.2 1.4-.4 3.1-.4 3.7.1.7-.2 1.1-.6.9-.9-.6-4.8 12.5-5.6 18.8-.4 2.9-.2 6 .5 7.7.9 2.2 1 3.2.1 4.3-.6.7-1 2.9-.9 4.7.1 1.9-.2 5.2-.5 7.4l-.7 4 1.4-4c1.9-5.4 5.6-21.4 5.6-24.3 0-1.3.5-3.2 1-4.3.6-1.1.9-6.2.7-11.7-.1-5.3-.4-8.6-.6-7.2M371.9 17.2c-.9.7-4.9 4.8-8.9 9.2-5.8 6.2-7 8-5.9 8.8s1.1.9-.3.5c-1.1-.4-3 1-5.8 4.4-3.6 4.3-3.9 5-2.3 5.5 1 .3 4.7 1.6 8.3 2.9 8.6 3 16.6 5.5 18 5.5 1.2 0 .5-26-.9-34.3-.5-3.3-.8-3.6-2.2-2.5M905.7 28.2c-1.1 19.1-.9 25.8.8 25.8 3 0 25.5-8.4 25.5-9.6 0-1.3-7.4-9.2-8.4-9-.6.2-.8.1-.3-.2.8-.4-15-18.2-16.3-18.2-.4 0-1 5.1-1.3 11.2M532.3 28.8c-7.3.1-13.3.6-13.3 1.1 0 6.5 6.1 61.5 6.9 62.3.7.8 53.8 6.4 54.5 5.7.5-.5-2.2-61.1-3-65.6-.6-4.1-2.5-4.5-19.4-4.1-6.9.2-18.5.4-25.7.6M487.5 30.2c-11 .5-20.5 1-21.1 1.2-.7.3-.3 6 1.2 18.3 1.3 9.8 2.8 21.6 3.4 26.3 1.6 12.5 1.8 12.9 5.4 13.4 1.7.3 11 1 20.6 1.6s19.2 1.3 21.3 1.5l3.9.6-.7-10.8c-.4-5.9-1.7-20.2-2.9-31.8l-2.1-21-4.5-.1c-2.5-.1-13.5.3-24.5.8M580.5 44.2c.3 8.4.8 17.3 1 19.8s.7 11.1 1 19.3c.4 8.1 1 14.9 1.4 15.1.3.2 12.5 1.2 26.9 2.1 22.7 1.6 26.5 1.7 27.3.4 1.2-1.9 1.2-66.6 0-67.3-.5-.4-4.2-.8-8.3-1.1-4-.3-14.9-1.2-24.3-2-9.3-.8-18.9-1.5-21.3-1.5h-4.4zM674.5 30.6c-9.3.7-20.7 1.6-25.2 2l-8.3.6V102h4.1c4 0 50.3-3.1 50.5-3.3s2-34.6 3-56l.7-13.7-3.9.1c-2.2.1-11.5.8-20.9 1.5M701.5 30.2c-.2.7-.9 12.8-1.5 26.8s-1.3 29-1.6 33.2L698 98h4.7c2.6 0 8.5-.5 13.2-1 4.7-.6 14.9-1.7 22.5-2.5 7.7-.9 14.2-1.7 14.3-1.9.2-.2.8-4.8 1.3-10.2.6-5.5 1.6-16.9 2.5-25.4.8-8.5 1.6-18.2 1.7-21.5l.3-6-28.3-.3c-22.1-.2-28.3 0-28.7 1M760.7 34c-1.2 8.9-5.1 58-4.6 58.4.5.5 35-2 43.9-3.2 5.2-.7 5.5-.8 6.2-4.2 1.2-6.2 6.3-52.9 5.7-53.4-.3-.3-11.8-.9-25.6-1.2l-25-.7zM438.6 35.6c-11 1.9-20.1 3.6-20.3 3.8-.5.4 5.5 44.9 6.3 46.9.2.7 2.3 1.4 4.6 1.6 2.3.1 4.4.4 4.8.6 1 .6 35 .9 35.6.2.3-.3-.4-8.1-1.5-17.4-1.2-9.2-2.6-20.6-3.2-25.3-1.6-13.5-1.8-14-4.2-13.9-1.2.1-11.2 1.6-22.1 3.5M814.6 34.7c-.6 3-4 31.4-5.1 42.3-.3 3.6-.9 7.8-1.2 9.4l-.5 2.8 22.7-.6c12.4-.3 23-.8 23.4-1 1.2-.8 8.5-47.5 7.6-48.5-.8-.7-40.9-7.1-45-7.1-.7 0-1.6 1.2-1.9 2.7M317.3 39.7c-.3 1-1.7 4.5-3.1 7.8-9.7 23.3-11.1 27-10.2 27.9.5.5.3 1.7-.5 3-1.1 1.8-1 4.6.6 18.1 1 8.8 1.9 16.7 2 17.5.1 1.5 1.2-3.1 2.4-10s2.8-12 3.6-11.4c.5.3.9 1.4.9 2.5 0 1.2.4 1.7 1.1 1.3s1-.1.7.7-1.1 1.4-1.9 1.4c-.9 0-1.6 1.6-2 5-.3 2.7-1.2 6.5-1.9 8.3s-1 3.6-.6 3.9c.3.4.6.1.6-.6s.6-2.7 1.4-4.4c1.2-2.8 6.8-16.5 8.3-20.3.3-.8 0-1.4-.5-1.4-.6 0-1.4.9-1.7 2.1-.6 1.9-.8 2-2.6.3-1-.9-1.9-3-1.9-4.6 0-2.8.1-2.8 4.1-2.2l4.2.7-.9-20.9c-.4-11.5-.8-22.1-.7-23.7 0-3.1-.5-3.5-1.4-1M962.9 45.8c-.1 2.9-.2 5.5-.3 5.9-.1.5-.6 8-1 16.8l-.8 16.1 4.1 11.9c2.3 6.5 4.4 12.1 4.7 12.4.9.8-.4-6.8-1.7-10.1-.6-1.4-.9-3.5-.7-4.5.8-3.7 3.8 4.4 4.1 11.1.1 3.6.6 6.2 1.1 5.8.5-.3.7.2.3 1-.3.9 0 3.3.8 5.3 1 3.1 1.4 3.4 1.8 1.9 1.2-3.9 3.9-35.9 3.4-39.8-.3-3.3-13.7-37-15.3-38.5-.2-.2-.5 1.9-.5 4.7"/><path d="M983.3 53.5c0 6.7.2 8.9.7 6.5.7-3.4.7-3.4.9 1.2 0 2.7-.3 4.8-.9 4.8-.5 0-1 1.6-1 3.5 0 2.4.5 3.5 1.5 3.5 1.8 0 1.8-.2.1 4.7-1.3 3.6-1.2 5.1.5 13.4 1 5.2 1.9 9.7 1.9 10.1 0 .5.5.8 1.1.8.5 0 .8-.4.5-.9-.4-.5-.2-1.1.4-1.3 1.4-.5 1.5-28.4.2-33.8-3.5-13.3-3.5-13.4-4.4-11.4-.5 1.2-.6.4-.2-2.1.3-2.2.1-5.2-.4-6.5-.7-1.8-.9.3-.9 7.5M346.2 74.5c.2 15.1.6 27.7 1 28 .8.9 25.3-6.2 28.6-8.2 2.2-1.3 2.2-1.6 1.6-14.6-.3-7.2-.8-14.1-.9-15.2-.2-1.1-.4-2.8-.4-3.8-.1-1-.5-1.5-1.1-1.2-.5.3-1 .2-1-.4 0-.5.6-1.1 1.3-1.4.6-.2 1-.6.7-.8-.7-.6-23.8-8.2-27.3-9l-2.8-.7zM920 51.6c-6.3 2.4-12.3 4.4-13.2 4.4-1 0-2 1-2.3 2.2-.9 4.3-2.1 34.3-1.4 35.2 1.1 1.2 30.1 10.8 30.7 10.1.4-.3.8-13.2 1-28.5.4-26.9.4-28-1.4-27.9-1.1.1-7.1 2.1-13.4 4.5M342.3 52.3c-.7 1.5-1 3.3-.7 4.1s.1 1.7-.5 2.1c-.7.3-.8 0-.5-.9 1.7-4.5-1.2-.2-8.7 12.5-7 12-8.1 14.4-7.1 16 1.7 2.6 1.5 4.9-.2 2.6-1.2-1.5-1.4-1.1-2 3.5-.3 2.9-.6 13.2-.6 22.8l.1 17.5 2.7-3.1c3.8-4.5 15.5-19.4 17.5-22.5 1.5-2.3 1.7-5.6 1.5-29.9-.3-22.6-.5-26.9-1.5-24.7M937 77.8V105l2.7 4.3c2.3 3.6 16.8 22.3 19.6 25.2.6.6.7-6.3.3-19.5-.5-17.7-.8-20.7-2.3-21.8-1.6-1.1-1.6-1.2 0-1.2 4 0 1.7-5.1-13.7-30.5L937 50.6zM297.6 54.3c-.5 1-.6 4.5-.3 7.8.6 6.4 0 7.2-1.3 1.7l-.8-3.3-.1 3c-.2 3.9-2.9 9.9-3.1 7-.1-1.6-.4-1.4-1.5 1-1.4 3.1-.9 5.7.6 3.4.9-1.4.9-1.3.9 1.8 0 .5-.6.8-1.2.8-.7 0-1.4 1-1.6 2.3s.1 2.1.8 2c.7-.2 1.7.6 2.3 1.7.7 1.1 1.5 2.2 1.8 2.5s.4 1.4.2 2.5c-.3 1.1-.7 4-.9 6.5l-.3 4.5 1.4-5c.8-2.8 1.3-7.4 1.1-10.3s.1-5.5.6-5.8.8-1.8.6-3.4c-.1-1.5.3-3.4 1-4.3.9-1 1.2-4.2 1-9.9-.2-5.6-.6-7.7-1.2-6.5M299.7 85.7c-.3.4-1.2 4.4-2.1 8.8s-2.2 10.3-2.8 13.1-.8 5.8-.6 6.5c.3.8 1.1-2 1.8-6.1s1.7-8.2 2.2-9c.9-1.6.1 6.9-1.2 13.4-.7 3.3-.5 4.4 1.3 6.7 1.2 1.5 2.7 2.6 3.4 2.4.6-.2 1.4.1 1.7.8.2.7.5.1.5-1.2.1-3-3-35.5-3.4-35.9-.2-.2-.5 0-.8.5M980.1 94.8c-.6 4.8-1.3 13.7-1.7 19.7-.4 9.1-.3 10.6.7 9 .7-1.1 2.3-3.1 3.6-4.5s2.3-2.8 2.3-3.3c0-.4.5-.5 1-.2.6.3 1-.1 1-1 0-1.8-5-27.8-5.5-28.3-.1-.1-.7 3.7-1.4 8.6M829.3 90.8c-19.6.2-21.3.4-21.3 2 0 2.8 2.9 37.2 3.6 42.4.4 3.7 1.1 4.9 2.7 5.4 2.2.7 2.2.7.2 1.5-3.2 1.2 2.6 1.1 20.7-.6 25-2.3 23.7-2 23.2-6.3-.2-2-1.1-12.3-1.9-22.7-1.8-21.7-1.9-22.1-4.2-22-1 0-11.4.1-23 .3M412.5 92.1c-3.3.5-10.3 1.3-15.5 1.9-9.4 1-17 2-17 2.3 0 .1-.7 9.2-1.5 20.2s-1.5 20.6-1.5 21.2c0 1 4.7 1.3 20.4 1.3h20.4l.6-3.3c.7-3.4 3.6-37.2 3.6-41.9 0-3.1.2-3.1-9.5-1.7M424.6 95.2c-.9 6.9-2.6 31.9-2.6 38 0 5.4.1 5.7 2.9 6.3 5.2 1.1 20.1 1.4 20.1.3 0-1.3 7.2 0 8.1 1.4.4.6 2.1.7 4 .4 2.2-.4 2.7-.3 1.4.2-1.7.8-1.5 1 1.3 1.5 6.2 1.3 6.2 1.2 8.2-19.8.6-6.1 1.3-15.6 1.6-21.1l.6-10.1-3.3-.6c-1.9-.3-12-.6-22.6-.6l-19.2-.1zM798 91.7c-2.5.1-9.2.7-15 1.2-5.8.6-14.2 1.3-18.7 1.7l-8.3.6.1 8.2c0 11.9 2.4 48.4 3.1 49.2.6.6 9.7-.8 26.8-4.1 4.1-.8 10.3-2 13.8-2.5 10.1-1.6 9.9-1.3 9.1-12.7-3-39.6-3.5-42.9-5.9-42.1-.3.1-2.5.3-5 .5M857.3 92.7c-.2 4.3 3.9 44.9 4.5 45.5 1.1 1.1 41.7 1.3 41.7.2-.4-11.2-3.2-42.4-3.9-43.1-.3-.4-37.7-4.3-40.6-4.3-.9 0-1.7.8-1.7 1.7M472.6 97.7c-.3 3.2-1 12.5-1.6 20.8-.6 8.2-1.2 17.2-1.5 19.8-.4 4.4-.3 4.8 1.2 3.6 1.4-1.2 1.5-1.1.9.8-.6 2-.3 2.2 5.1 2.8 3.2.4 11.9 1.8 19.3 3.1s15.6 2.8 18.3 3.2c4.6.8 6.9-.3 2.5-1.2-1.3-.3-3.2-.7-4.3-.9-1.1-.3.1-.5 2.6-.6l4.7-.1.6-9.8c1.7-24.8 2.4-42.8 1.8-43.4s-40-3.8-46.8-3.8c-2 0-2.3.6-2.8 5.7M316.6 101.6c-3.9 10.5-4.1 11.5-1.7 7.4 2.4-4.2 2.8-2.7.4 2-.9 1.9-1.8 5.5-2.1 8.2-.3 3.1-.8 4.5-1.6 4.1q-.9-.45-.3.3c.9.9 1.4 1.1 4.7 1.3 1.6.1 1.9 1 2.2 5.8.2 3.2.7-1.6 1.1-10.7.5-9.1.7-18.7.5-21.4l-.3-4.8zM961.5 112.5c.7 23.4 1.2 27.5 3.1 27.5.8 0 1.4.4 1.4 1 0 .5-.4 1-.9 1-1.2 0 1.4 7.8 6.3 18.5l3.5 8-.1-8.5c-.1-7.2-.2-7.8-.7-3.5-.6 4.5-.7 4.7-1.2 2-.4-1.7-.7-6.2-.8-10-.1-3.9-.6-7.2-1.1-7.3-1.4-.5-1.3-3.2.1-3.2.7 0 .9-1.2.5-3.5-.5-2.7-.3-3.7.9-4.1 1.9-.8 1.9-3.1.1-7.5-.7-1.9-1.6-4.3-2-5.4-.5-1.5-.9-1.6-1.5-.6-.7 1-1 1-1.6.1-.4-.7-.2-1.6.5-2 1.1-.7.4-3.1-2.8-11.2L961 93.5zM725.2 98c-14.5 1.5-26.5 3-26.8 3.3-.3.2.3 12.6 1.2 27.3.9 14.8 1.7 28.4 1.8 30.3s.9 3.9 1.7 4.4c1 .6 8.4-.5 22.4-3.3 11.6-2.3 22.9-4.6 25.3-5 2.3-.4 4.4-.9 4.5-1.1.5-.6-1-41-1.8-50.7-.4-4.5-1-8.1-1.4-8.1-.3.1-12.4 1.4-26.9 2.9M524.7 108.7c-.4 7.1-1 20.1-1.3 28.9l-.7 16.2 4.4.5c2.4.3 9.8 1.7 16.4 3.1s15.6 3.3 20 4.1 9.2 1.7 10.6 2c2.7.6 2.7.5 3.3-6.2.3-3.7.8-10.6 1.1-15.3s1-15 1.5-23 1-15.3 1-16.2c0-1.2-1-1.9-3.2-2.2-7.5-1.1-43.7-4.6-47.9-4.6h-4.6zM903.3 104.6c.4 4.9 1.2 14.8 1.9 22.1l1.2 13.2 7 2.5c11 4 22.7 7.6 24.3 7.6 1.7 0 1.5-4.7-1.5-29.4l-1.7-13.9L921 102c-7.4-2.6-14.6-5.1-15.9-5.5l-2.4-.7zM360.5 101.8l-14 4.7-2.2 19.5c-1.2 10.7-2.4 20.5-2.6 21.7-.5 2.7.3 2.8 5.8.9 2.2-.8 7.6-2.4 11.9-3.6 4.4-1.3 9.3-3.1 11.1-4.1 2.9-1.8 3.2-2.4 4.3-10.6.6-4.9 1.5-14.3 1.8-21.1.6-10.1.4-12.2-.7-12.2-.8.1-7.7 2.2-15.4 4.8M583.6 103.5c-.3 1.1-1 12.3-1.6 25-.5 12.6-1.2 25.9-1.4 29.3-.4 6.1.7 7.5 1.7 2.2.4-2.4.4-2.4.6.2 0 1.6.6 2.8 1.2 2.8.5 0 .8.4.4.9-.5.9 3.9 1.9 11.5 2.5 1.9.2 4.2.5 5 .9 1.6.5 14.8 2.2 26 3.3 3.6.3 7.5.7 8.8.9 1.7.3 2.2-.1 2.2-1.8 0-1.2.3-8.2.7-15.6.4-10.6.3-13.2-.7-12.6s-1.1.1-.6-2.1c.4-1.6 1-9.8 1.3-18.1l.6-15.2-2.7-1.1c-1.5-.5-5.4-1-8.7-1-3.4 0-11.3-.4-17.7-1-6.4-.5-14.9-1.1-18.9-1.3-6.5-.2-7.2 0-7.7 1.8M681 102c-5.8.4-15.4 1-21.5 1.4-6 .4-12.7.9-14.8 1.2l-3.7.6.1 31.6c0 17.5.5 32.6 1 33.7.7 1.4.8.9.3-1.8-.3-2.6-.2-3.7.5-3.2.6.3 1.1 1.5 1.1 2.6s.7 1.9 1.8 2c1.5 0 1.4.2-.3.9-1.5.7-1.1.8 1.5.5 16.7-2.3 27.2-3.6 37.2-4.6 6.4-.7 12.2-1.5 12.9-1.9.8-.5 1.1-3.8 1-9.6-.1-8.5-1.1-31.3-1.6-35.8-.1-1.1-.3-5.8-.4-10.4-.1-7.8-.2-8.2-2.3-8-1.3 0-7 .4-12.8.8M340.9 112.3c-9.2 11.5-16.9 22.1-16.9 23.3 0 .8.6 1.4 1.3 1.4.8 0 2.2.9 3.2 2 1.8 1.9 1.7 2-.1 2-1.1 0-2.5-.5-3.2-1.2-.9-.9-1.2-.5-1.2 2 0 3.4-1.5 4.4-2.3 1.4-.3-1-.5-.5-.6 1.2s.6 3.4 1.6 4.2c1 .7 1.4 1.6.9 2.1-.5.4-1.1.2-1.3-.5-1.1-2.9-2.1-.7-2.7 6-.4 4-1 8.9-1.3 10.8-.5 3.1-.4 3.4 1 2.2.9-.8 1.3-2.1 1-3-.6-1.5-.4-1.5 1-.4 1.3 1.1 1.4 1.7.4 3.3-.6 1-1.5 1.9-1.9 1.9s-1.2 1-1.9 2.2c-.6 1.3 1.1.1 4-2.7 2.8-2.7 5.1-5.4 5.1-6 0-.5-.7-.2-1.4.8-.8 1-1.7 1.4-2 .9-.6-.9 1.1-2.1 2.6-1.8 1.4.2 8.6-7.7 10.6-11.7 1.4-2.8 2.7-9.3 4.1-19.7 1.5-12.2 2.9-24 2.6-24 0 0-1.2 1.5-2.6 3.3M937.4 113c.3 1.4.8 5.2 1.1 8.5s1.3 11.4 2.2 18c1.6 11.6 1.8 12.2 6.2 17.9 6.6 8.7 16.5 19 16.9 17.6.2-.6-.4-1.8-1.4-2.6-1.1-.9-1.3-1.2-.5-.8 1.2.6 1.3-.3.8-5.6-.4-3.5-.7-8.3-.7-10.7 0-4-.2-4.4-2-3.8-1.1.4-2 .2-2-.4s.7-1.1 1.5-1.1c.9 0 1.5-.9 1.5-2.5s-.6-2.5-1.6-2.5c-.8 0-1.2-.5-.9-1 .3-.6-.1-1-.9-1-2 0-2-.7-.1-2.7 1.4-1.4 1.4-1.8-.1-4.2-2.5-3.9-13.4-17.8-17.2-22-3-3.3-3.2-3.4-2.8-1.1M856.5 141.5c-.5.2-10.1 1.3-21.2 2.6s-20 2.6-19.7 3.1c.3.4-.2.5-1.1.2-1.5-.6-1.6.3-1 9.2.4 5.4 1.2 10.5 1.8 11.3.9 1.2.9 1.3-.1.7s-1.1-.1-.6 2.1c.9 3.9 1.3 4.3 3.5 4.3 1.1 0 1.9-.7 1.9-1.6 0-1.2.7-1.4 2.9-.9 3.9.8 16.3-1.5 13.5-2.6-2.1-.8-1.9-1 1.3-1.4 1.3-.1 2 .2 1.6.8-.4.7.9.8 3.8.4 8.1-1.1 18.9-3.9 18.9-4.9 0-.5-.6-.6-1.2-.2q-1.35.9 0-.9c1.2-1.3 1.2-3.2.2-10.7-1.3-8.8-2.5-12.1-4.5-11.5M864.7 141.8c-2.6.3-2.7.5-2.1 4.5.3 2.3 1.2 7.5 2.1 11.6l1.5 7.4 6.6-.7c3.7-.3 8.3-.6 10.2-.7 1.9 0 2.9-.3 2.3-.6-2.4-.9-1.3-2.3 1.7-2.3 2.2 0 2.8.4 2.3 1.6-.5 1.3.7 1.4 9.8.8 5.7-.4 10.5-.8 10.7-.9.5-.4-4.9-18.9-5.7-19.7-.7-.8-34.2-1.6-39.4-1M376.3 143.4c.3.8.2 4.8-.2 9-.6 6.9-.1 9.7 1.2 6.3.3-.6.6 0 .6 1.5.1 2.8.2 2.8 6.6 2.8 5.1 0 6.5-.3 6.5-1.5 0-1.1.7-1.3 3.3-.7 1.7.4 5 .7 7.2.7 3.5 0 4.2-.4 5.5-3.1.9-1.7 2.1-2.9 2.7-2.7.7.3 1.9-1.1 2.7-2.9.7-1.8 2.1-5 3-7.1l1.6-3.7h-20.6c-17.2 0-20.5.2-20.1 1.4M420.7 143.7c-1.1 3.9-1.7 9.8-.7 7.8.5-1.1.9-3.2.9-4.7.1-2.4.3-2.5 2.6-1.5 2.6 1.3 3.3 2.7 1.3 2.7-.9 0-.8.4.2 1 .9.6 1 1 .3 1-.6 0-1 .9-.8 2 .6 2.9 1.5 4.1 2.6 3.5.5-.4 1.2.1 1.5.9.3.9 1 1.4 1.5 1.1.4-.3 4.4-.3 8.8.1 6.6.6 8.2 1 8.6 2.5.5 1.6 1.7 1.9 7.5 1.9h6.8l.7-4.6c.5-3.4.3-4.9-.6-5.5-1-.6-.7-1 1.1-1.7l2.4-.9-2.6-.6c-1.5-.4-3.4-.4-4.2-.1-.9.3-1.6.1-1.6-.5 0-.7-.6-1.1-1.2-1-2.6.5-21.3-1.4-21.8-2.1-.3-.5-2.1-1.1-4-1.5s-4.7-.9-6.2-1.2c-1.9-.4-2.7 0-3.1 1.4M908 143.7c0 1.4 6.5 13.2 8.7 15.8 1.4 1.6 2.3 2.5 2 1.9-.4-.6.4-.9 2.3-.6 2.1.3 3.2-.1 4.2-1.7.7-1.2 1.7-2.1 2.3-2.1.5 0 3-1 5.5-2.1l4.5-2.1-13-4.3c-15-5.1-16.5-5.5-16.5-4.8M359.8 147.4c-9.6 3.1-12.5 4.6-9.7 4.6 1 .1.9.4-.4 1.1-2 1.1-1.4 2.9 1 2.9.8 0 2.8.9 4.3 2 1.6 1.1 3.5 1.7 4.4 1.4.9-.4 1.6-.1 1.6.6 0 1 .3 1 1.5 0 1.8-1.5 2-3.5.3-2.4-.7.4-.8.3-.4-.5.4-.6 1.1-.9 1.6-.6.9.5 5-4.6 5-6.3 0-.5.6-1.5 1.4-2.2 1.4-1.1 1.2-4.1-.3-3.9-.3 0-5 1.5-10.3 3.3M799 148.7c-4.1.7-13.6 2.5-21 3.9-15.7 2.9-18.8 4-17.2 5.6s1.5 2.8-.2 2.8c-1 0-1.3 1.1-1.2 3.7.2 2.1.4 8.1.5 13.3.2 6 .6 8.6 1 7 .7-2.5.8-2.4 1.5.7.7 3.2 1.6 4 2.9 2.6.4-.3 1.9-.8 3.3-.9 3.3-.4 4.2-1.3 2.4-2.4-1.7-1 3.7-2.5 12.9-3.5 4.6-.5 6.2-.4 5.7.4-.9 1.4 4.6.6 7.7-1.1 1.2-.6 3-1.2 4.2-1.3 3.5-.4 3.6-.5 2.9-1.7-.4-.7-.3-.8.5-.4.6.4 1.9.5 3 .1 1.3-.4 1.7-1.2 1.3-3.1-.3-1.5.1-2.9.8-3.4 1.5-.9 1.5-12.9 0-19l-.8-3.5-.1 3.5-.1 3.5-1.4-2.5c-.7-1.4-.9-2.9-.4-3.5 1-1.1 1.1-2.5.1-2.4-.5.1-4.2.8-8.3 1.6M472.8 148.7c1.6.6 1.5 2.8-.3 4.3-3.3 2.7-.7 9 3.7 9 2 0 2.7.6 3.2 3l.6 3h15c11.3 0 15-.3 15-1.3 0-.8.4-.7 1 .3.7 1.1 1 1.2 1 .2 0-.8.6-1.2 1.3-.9.6.2 1.1 1 .9 1.6-.1.6.5 1.1 1.4 1.1 1.3 0 1.5-.9 1.1-4.8-.7-7.3-1.2-8.7-3.3-9-1.6-.3-1.7-.1-.4.7 1.2.8.7 1.1-2.2 1.1-3.7 0-5.9-1.4-3.6-2.3 1.7-.6-1.1-1.3-18.5-4.2-14.4-2.4-18.6-2.9-15.9-1.8"/><path d="M939 154.7c0 .7-.8 1.3-1.7 1.3s-2.4.6-3.2 1.4c-2.1 1.7-11.2 5.1-13.1 4.9-1.8-.3 9.5 5.2 12.8 6.2 1.6.5 2.2.2 2.2-1s.5-1.5 1.6-1.1c2.7 1 4.6-1.9 3.8-6.1-.7-4-2.3-7.8-2.4-5.6M749.5 158.1c-2.7.5-7.9 1.6-11.5 2.4s-11.4 2.3-17.5 3.5c-16.6 3.1-16.1 3-14.5 4 2.2 1.4.4 2.3-1.9 1-2.1-1.1-2.1-1-1.9 16.7.1 14.8.3 16.3.8 8.8.3-5 .7-8.2.8-7.3.1 1 .9 1.8 1.7 1.8.7 0 1.8.6 2.2 1.4.4.7 2.6 1.8 4.8 2.4 2.5.6 3.2 1 1.8 1.1-2.7.1-3 1.9-.5 2.8.9.4 2 1.1 2.5 1.7.5.7 1 .6 1.7-.4.8-1.3 1-1.2 1 .2 0 1 .5 1.8 1.1 1.8s.9.7.5 1.5c-.7 1.9 2 2 4 .1 1.1-1.1 1.1-1.6.1-1.9-.9-.4-.9-.6.1-.6.7-.1 1.2-1.5 1.2-3.6 0-1.9.4-3.5.9-3.5 1.6 0 3.6-7.3 4.3-15.8.2-1.9 1.8-1.4 1.9.5 0 1.6.2 1.5 1-.2.8-1.6.8-1.5.4.8q-.6 2.7.9 3.3c.9.4 1.9 3.5 2.7 9 1 7.1 1.5 8.4 3.1 8.4 1.1 0 1.7.4 1.4.9-.8 1.2 1.4.8 3.9-.7l2-1.1-2-.1c-1.5-.1-1.6-.3-.5-.7 1.8-.7 5-4.2 5-5.5 0-.5.8-.8 1.7-.6 1.4.2 1.7-.4 1.6-3.7-.1-2.2.1-3.1.4-2 1.2 4.8 2.3 3.6 2.3-2.6 0-9.4-1.2-24.9-1.9-24.8-.3.1-2.8.5-5.6 1M533.8 160.4c-1 .7-1.8 2.5-1.8 3.9 0 1.7-.7 2.8-2 3.2-1.6.5-1.8 1-1 2.5.6 1 1 3.2 1 4.9s.5 3.1 1 3.1c.6 0 1 .9 1 2 0 1.7.7 2 4 2s4-.3 4-2c0-1.6-.7-2-3-2-2.5 0-3-.4-3-2.5 0-1.9.5-2.5 2.3-2.5 4.2 0 6.6 1.2 6.9 3.4.2 1.6 1.1 2.2 3.6 2.4 2.9.3 3.2.1 3.2-2.2 0-1.4.5-2.6 1-2.6.6 0 1 1.1 1 2.5 0 2.5.1 2.5 8.3 2.3 4.5 0 6.7-.3 5-.5-1.8-.2-3.3-.9-3.3-1.5s1.1-.8 2.4-.6c1.7.4 2.3.1 1.9-.9-.3-.7-1.1-1.3-1.8-1.3s-1.8-1.3-2.3-3c-.9-2.3-.8-3.3.4-4.4 1.7-1.8 1-2.3-4.1-3-2.2-.3-6.5-1.2-9.5-2-8.9-2.3-13.3-2.6-15.2-1.2M583 169c0 .6.5.8 1.2.4q1.05-.75.3.6c-.4.7-.2 1.6.5 2 .8.5 1 1.5.5 2.6-.7 1.8-.8 1.8-1.5-.1-.7-1.5-.9-.9-.9 2.3-.1 5.1 1.6 7.2 5.8 7.2 2.4 0 3.1.4 3.1 2 0 1.9.7 2 16.1 2 16 0 16 0 15.9 2.2-.1 1.3-.2 4.4-.1 7 .1 4.8.1 4.8 3.5 4.8 4.9 0 6.6-.9 6.6-3.4 0-1.2.9-2.7 2-3.4 1.3-.8 2-2.2 1.9-4-.1-2.6-.1-2.6-.8-.3-.5 1.9-.9 1.2-1.9-3.6l-1.2-6-5.2.5c-5 .5-5.1.4-4.5-1.9.4-1.3.7-3 .7-3.7 0-.6.8-1.2 1.8-1.3 2.6-.2-9.9-2.8-13.5-2.9-1.7 0-3.4.4-3.7.8-.4.7-2.2.7-7 .3-.4-.1-.6-.7-.3-1.5.4-1.1-1.2-1.5-7.1-2.1-4.2-.3-8.7-.9-9.9-1.2-1.4-.3-2.3-.1-2.3.7M695.3 168.7c.3.5-2 .8-5.1.8-3.2 0-7.9.3-10.7.8-2.7.4-7.2 1-9.9 1.3-3.3.4-4.4.9-3.5 1.5 1.1.7 1.1.9-.3.9-.9 0-2-.5-2.3-1-.4-.6-1.1-.7-1.7-.4-1.5 1 2 3.4 4.8 3.4 1.5 0 2.9 1.1 4.1 3 .9 1.6 2.1 3 2.5 3 .5 0 .3.9-.4 2-1.3 2.1-3.4 2.7-4 1.1-.1-.5-1.4-1.1-2.8-1.3-4.3-.6-8.4-6.2-5.8-8 .9-.7.4-.8-1.4-.5s-2.8 0-2.8-.8c0-1.7-7.9-.8-10.1 1.2-1.4 1.1-1.8 1.2-2.2.1-.3-.7-.6-.3-.6.9-.1 1.6.3 2.1 1.4 1.7 1.3-.6 1.5.3 1.1 6.1-.3 3.7-.7 7-1 7.2-.2.2 0 1.9.6 3.6.6 1.8 1.3 4.8 1.7 6.7.7 3.7 2.4 4.6 6.7 3.6 2.7-.7 3.3-4.5 1.1-6.8-.7-.7-1.2-1.9-1.1-2.6.1-.6.2-1.9.3-2.7.1-1.2 1.8-1.5 8.5-1.5 9.4 0 9.6.2 9.6 7.2 0 2.9.6 4.6 2.2 6 2.1 1.8 2.2 1.8 3.5-1.3 1.5-3.7 1.7-5 .3-2.9-.8 1.3-1 1.2-1-.3 0-.9.5-1.7 1-1.7.6 0 1-.8 1-1.8.1-1.6.1-1.6 1.4 0 1.8 2.4 3.5 2.3 2.9-.1-.7-2.8 3.6-4 5.4-1.5.7 1 1.1 2.5.8 3.2-.3.8-.5 2-.5 2.8 0 .9-.5 1.2-1.1.8-1.6-.9-.1 3.4 2.2 6.7 1 1.4 1.5 3 1.1 3.4-.4.5-.1.5.6.1.6-.4 1.2-.2 1.2.4s.4.9.9.6c.4-.3.6-1.6.4-3-.3-1.3 0-2.7.6-3 .7-.5 1.1-4.5 1.1-10.6 0-14.6 1.9-13.6 2.3 1.2.2 8.1.3 5.7.4-7.2 0-11-.2-18.4-.7-17-.8 2.4-.8 2.4-.9-.6-.1-1.6.4-3.5 1.1-4.2.9-.9.7-1.2-1.1-1.2-1.2 0-2 .3-1.8.7M855.5 170c-12.6 2.4-20.3 4.5-22.4 6.1l-2.4 1.9 3.1 1.2c1.8.7 3.2 1.6 3.2 2s1.2.8 2.7.8c3.6 0 2.1 1.2-5.2 4.4-3.3 1.4-5.4 2.5-4.6 2.6 1.8 0 15.1-6.2 14.7-6.9-.2-.3 1-.7 2.7-.7 2.1-.1 3.9-1.1 5.6-3.1 1.4-1.6 3.8-4.4 5.4-6.1 1.5-1.8 2.4-3.1 2-3.1-.5.1-2.6.5-4.8.9M12 345c0 .6-.6 1-1.2.9-.7-.1-3.4-.1-6 0L0 346v12h3.7c8.4 0 25.8-2.4 26.6-3.7.5-.7 1.2-1.1 1.7-.8 1.3.8 16 .8 21.4 0 3.2-.5 4.4-1 3.5-1.6-1-.6-.6-.9 1.3-.9 1.5 0 3 .4 3.3 1 .9 1.5 2.5 1.2 2.5-.5 0-1.2 1.6-1.5 8-1.5s8-.3 8-1.5c0-1.3-2.3-1.5-14.3-1.5-9.9 0-15.9-.5-19.3-1.5-5.9-1.8-34.4-2.2-34.4-.5M129.4 375.4c-.3.9-1.8 1.4-3.6 1.4-1.6-.1-3.3.3-3.6.9-.7.9-11.2 2.4-32.2 4.3-11.2 1-43.5.3-68.2-1.5C10.9 379.7 1.6 379 1 379c-.7 0-1 54-1 170.5V720h332.5l-6.7-20.2c-10.3-31.2-17.4-59.8-21.4-85.8-.3-2.5-.8-5.4-1-6.5s-1.3-8.1-2.4-15.5-2.6-16.7-3.4-20.5c-.7-3.9-2.2-11.6-3.2-17.3-1.6-9.2-2-10.5-4.3-11.7-4.9-2.5-10.3-9-14.1-17-5.5-11.6-6.8-17.2-7.9-33-1.1-15.5-2.4-21.5-4.7-21.5-.8 0-1.2-.5-.9-1 .9-1.5-.4-5-2-5-.7 0-1.6-1.6-1.9-3.5-.4-2-1.1-3.3-1.7-3-.5.4-.9-.1-.9-.9 0-.9-.4-1.6-.9-1.6-.9 0-1.6-3.8-2.7-15-.4-3-1.5-6.7-2.5-8.1-1-1.5-1.9-3.2-1.9-3.7 0-.6-.5-1.2-1.2-1.4-.7-.3-1.3-2.6-1.4-5.4-.3-6.6-.2-6.4-1.7-6.4-.7 0-2.7-1.3-4.4-2.9-2-1.8-3.4-2.5-3.7-1.7-.3.7-.5.7-.5-.2-.1-.6-1-1.2-2.1-1.2s-2-.4-2-.9c0-1.2-6.9-8.1-8.1-8.1-.5 0-.9-.7-.9-1.5s-.8-1.5-1.8-1.5-2.8-.9-3.9-2c-1.2-1.1-5.1-2.7-8.7-3.6s-6.6-2-6.6-2.5-.8-.9-1.7-.9c-1.5 0-1.6-.2-.3-1 .8-.5 1.2-1.1.9-1.4s-10.4-.7-22.5-.9c-23.9-.4-34-1.8-35-4.9-.3-1-1.1-1.8-1.7-1.8-.7 0-2.9-1.1-4.9-2.5-4.2-2.9-5.6-3.1-6.4-1.1M972.1 454.4c-2.6 4.2-2.6 5.6-.1 5.6 2.2 0 2.5.8 1 3-.8 1.2-1.2 1.3-1.9.2-.4-.8-1.7-1.2-2.7-1-1.5.3-1.9 1.2-1.9 5 0 5-1.1 7.1-2.5 4.8-.5-.8-1.2-1.2-1.5-.8-.8.8 2.3 6.8 3.5 6.8.6 0 1 1.3 1 2.9 0 1.7 1.2 6.2 2.7 10.1 2 5.7 2.8 6.8 3.5 5.5.5-.9.7-2.3.4-3.1s-.2-1.3.3-1c.8.5 1.9-1.9 6.5-14.2 2-5.2 2-6.5.1-3.2-1.4 2.4-1.4 2.3-1-2 .2-2.5.7-5.9 1-7.6.9-4.1-1-7.8-3.6-7.1-1 .3-1.9.1-1.9-.4s.7-.9 1.6-.9c1.4 0 1.5-.2.3-1.7-1-1.1-1-1.4-.1-.9.7.4 1.2.2 1.2-.4 0-.7-.8-.9-2.2-.5-1.7.6-2 .4-1.5-.9 1-2.6 0-1.8-2.2 1.8M940 458.6c-1 1.1-2.3 1.4-5 .9-3.2-.5-3.8-.3-4.3 1.4-.3 1.3-1.3 2.1-2.6 2.1-1.7 0-2.1.8-2.7 5-.7 5.6-1.4 6.1-3.8 2.7-2-2.8-1.2-.4 2.1 6.5 1.3 2.6 2.3 5.1 2.3 5.5 0 .5.9 1.9 1.8 3.1l1.8 2.4 12.4-9.4c6.8-5.1 13-9.8 13.8-10.5 1.2-1 1-1.7-1.4-4.7-1.6-1.9-3-3.3-3.3-3.1-.2.3.4 1.4 1.4 2.5s1.5 2 1 2c-.4 0-1.6-1.1-2.7-2.5s-2.3-2.3-2.8-2c-.4.3-1-.5-1.4-1.8-.5-1.8-.8-2-1.6-.7-.6 1-1 1.1-1 .2 0-1.7-2.5-1.5-4 .4M943.8 480.3c-8.5 6.3-13.6 10.7-13.3 11.5s2.1 8.9 4 18c2 9.2 4.3 18.8 5.1 21.4l1.5 4.8 4.8-5.3c5.8-6.3 16.3-18.5 21.4-24.8 4.3-5.3 4.5-3.9-3.3-22.6-3-7.3-4.6-10-5.6-9.6-.8.3-1.4 0-1.4-.6s.5-1.1 1-1.1c.6 0 1-.5 1-1 0-.6-.3-1-.7-1-.5 0-7 4.6-14.5 10.3M311.1 486.2c-.7 4-1.7 8.1-2.3 9.1-.6 1.2-.4 2.2.7 3.3.8.8 1.6 2.1 1.6 2.7.3 2.7.5 3.3 1.7 5.5.7 1.2 1.8 1.9 2.4 1.6.6-.4.8-.3.5.3-.6.9 6.5 9.5 18.6 22.7l3.5 3.8.7-5.3c.4-3 1.2-11.6 1.9-19.2 1-11.9 1-13.6-.2-12-1.3 1.6-1.4 1.4-.8-1.8.8-4.6-.3-9.9-2-9.9-.8 0-1.4-.4-1.4-.9s-2.1-1.9-4.6-3c-3.6-1.7-5.6-2.1-9.3-1.6-2.5.4-5.4.6-6.3.6-1.1 0-1.8.8-1.8 1.9 0 1-.3 2.1-.8 2.4-.4.2-.6-1.3-.4-3.5.6-6.2-.3-4.5-1.7 3.3M631.6 488.5c.2 4.9 0 9.2-.5 9.5-.4.3-1 5.1-1.3 10.7l-.5 10.3h5.1c5 0 5.2-.1 5-2.8 0-1.5-.2-9-.3-16.7-.2-10.5-.5-13.4-1.2-11.5-.6 1.4-.7 4.5-.4 6.9.5 3.3.4 4.2-.7 3.9-.7-.3-1.3-2-1.4-4.1-.1-2-.7-4.4-1.4-5.3-.8-.8-1.7-3.4-2.1-5.7-.4-2.6-.5-.7-.3 4.8M654.2 490c-.1 13.5 1.4 29.1 2.9 30.1.8.5 3.8.9 6.8.9h5.3l-.6-6.3c-1-10.3-1.8-14.7-2.7-15.3-.5-.3-.9-1.5-1-2.7 0-1.2-.3-1.6-.6-1-.8 2.2-2.1 1.4-2.8-1.7-.7-3.3-4.5-4.4-4.5-1.3 0 3.2-1.4.1-2.1-4.5-.6-4.5-.6-4.5-.7 1.8M619 487c1.1 2.1.8 4.6-.9 6.3-.9.9-1.4.9-2.1-.3-.7-1.1-1-.2-1.1 3l-.2 4.5-.6-4c-.5-2.8-.9-.4-1.2 8.5-.3 6.9-.2 12.9.3 13.5.5.5.8.2.8-.8s.5-1.4 1.4-1.1c1 .4 2.3-1.2 4.1-5.3 1.4-3.2 3-6.6 3.6-7.5.5-1 .9-2.5.9-3.3s.5-1.5 1-1.5c1.5 0 1.2-5.8-.6-9.5-.9-2-2.4-3.5-3.9-3.7-2-.4-2.3-.2-1.5 1.2M758 488.6c0 1.7-.6 2.4-2 2.4-1 0-2.4.8-2.9 1.7-1 1.7-1.1 1.6-1.2-.2-.5-5.3-1.7 10.3-1.6 20.5 0 6.3.2 9.8.4 7.7.2-2 .8-3.5 1.4-3.2 1.4 1 1.1 5.1-.6 6.5-.9.7-1.5 1.9-1.3 2.5.2.7 3.9 4.3 8.3 8.1 4.5 3.8 9.4 8.2 11 9.7 5.3 5 6.3 5.2 8.5 1.5 1-1.7 4-8.2 6.6-14.2 2.5-6.1 5.2-12.5 5.9-14.1.8-1.7 1.6-4.2 2-5.6.6-2.4.4-2.6-1.7-2.3-3 .5-6.9-2.3-4.9-3.5 2-1.3-5.9-6.4-8.4-5.5-1.1.5-1.6.4-1.2-.3.4-.5-.5-2.1-1.8-3.3-1.4-1.3-2.5-1.9-2.5-1.4s-.5.1-1.1-.8c-.5-1-2-2.3-3.2-2.9l-2.2-1 2.2 1.8c1.7 1.3 2 2.2 1.3 3.3-.8 1.3-1 1.3-1-.2 0-.9-.9-2-2-2.3s-2-1.1-2-1.7c0-.5-.6-.8-1.4-.5s-1.6-.2-1.9-1.4c-.4-1.6-.2-1.7 1.6-.7 1.9 1 2 .9.9-.4-.7-.9-2.2-1.8-3.2-2.1-1.6-.4-2 0-2 1.9M648.3 487.8c-2.1 1.3-3 5.5-2.6 10.9.4 4.3.2 5.3-1 5.3s-1.7-1.4-2-5.8c-.2-3.1-.4.3-.5 7.5L642 519h11.2l-.5-5.3c-.4-2.8-.9-10-1.3-16-.3-5.9-.9-10.7-1.3-10.7-.3 0-1.1.4-1.8.8M823.8 488.7c-1 .2-1.8.9-1.8 1.4 0 .6-.4.7-1 .4-.5-.3-1 .1-1 .9 0 .9-.9 1.6-2 1.6-1.3 0-2-.7-2-2 0-1.6-.7-2-3.5-2s-3.5.4-3.5 2c0 1.1-.7 2-1.5 2s-1.5.5-1.5 1.1-.9.8-2.2.3c-2.4-.8-6.8-.7-7.6.1-.2.2-.1 1.2.3 2.2s.7 2.8.6 4 .3 3.1.9 4.2c.9 1.7.8 2.1-.5 2.1-3.8 0-.5 2.2 11.9 7.8 14.1 6.5 23.8 10.5 24 10 1.3-2.4 2.5-8 2-9.4-.4-1.4-.3-1.6.4-.5.8 1.1 1.2 1 2.2-.8 1.3-2.6.4-8.5-1.2-7.5-.7.4-.8.2-.4-.5.5-.7.5-2.4.1-3.9-.5-2-.8-2.3-1.6-1.1-.6 1-.9.4-.9-2 0-1.9-.3-3.2-.6-2.8-.7.7-4.7-3.9-5.7-6.6-.7-1.7-.9-1.8-3.9-1M345.6 490.9c-.7 1-4.4 34-4.7 41.5-.3 7-.3 7 16.1 20.4 5.8 4.7 13.2 11 16.4 13.9 3.3 2.9 6.2 5 6.5 4.7s.6-4 .7-8.2c0-4.3.8-16.7 1.7-27.7 1.9-22.2 2.1-28.2.7-25-.7 1.8-.8 1.8-1.5-.8-.6-2.1-.3-3.3 1-4.5 1-1 1.5-1.1 1.1-.5-.4.7-.2 1.3.3 1.3.6 0 1.1-1.2 1.1-2.6 0-1.5-.4-2.3-1.1-1.9-1.3.9-6.9-1.4-6.9-2.7 0-.6.7-.7 1.6-.4 3.9 1.5 6.7 1.9 6 .8-.4-.6-2.3-1.4-4.4-1.8-2-.3-6.1-1.3-9.1-2-3-.8-5.7-1.2-5.9-.9-.3.3 0 .5.6.5.7 0 1.2.4 1.2 1 0 1.3-4.3 1.3-5.5.1-.6-.6-4-1.2-7.7-1.4-6.1-.4-6.8-.2-6.8 1.4 0 1.1-.5 1.9-1.1 1.9s-.8-.7-.5-1.6.6-2.5.6-3.5c0-1.5.5-1.9 1.8-1.5 3.8 1 8.7 1.6 6.7.8-3.3-1.5-8.4-2.2-8.9-1.3M740.5 490.8c-1.1.3-3.2 1.8-4.7 3.5-2.2 2.4-2.8 4.1-2.8 7.6 0 4.7-1.4 4.7-2.3.1-.4-2.1-.4-2-.6.7 0 1.7.3 3.4.8 3.7s.7 1.4.5 2.4c-.3 1 .7 2.9 2.6 4.7 2.6 2.5 3.3 2.7 4.1 1.5.9-1.3 1-1.3.6.1-.5 1.6.9 3.9 2.4 3.9.4 0 .9-.9 1.2-2s0-2-.5-2c-.6 0-.5-.7.3-1.6.8-1 2.1-1.3 3.6-.9l2.3.5v-11.5c0-6.3-.3-11.5-.6-11.5-1.8 0-3.3 3.2-3 6.4.1 2-.1 3.3-.5 2.9-.4-.5-.9-2.6-1.1-4.8-.3-3.4-.6-4-2.3-3.7M845.1 493.1c-2.4.5-4.6 1.1-4.9 1.4-1.5 1.5-.1 11.3 3.2 23.5 3.1 11.7 4.1 13.9 6.9 16.3 3 2.7 21.9 17.9 38.3 31l7.2 5.6-.4-4.2c-.3-2.3-.9-6.7-1.4-9.7s-1.4-9.3-2-14c-1.6-13.2-4.1-29.3-4.8-31-.3-.8-.6-2.4-.7-3.5s-.3-3.4-.4-5c-.3-3-.3-3-1.1-.5-.7 2.1-.8 2.2-.9.5-.2-4-1.6-4.8-9-5-5.2-.3-8.5-1-12.5-3-4.2-2-6.3-2.5-8.7-2-2.2.5-2.9.4-2.5-.4.8-1.2 0-1.2-6.3 0M906 494.6c-8.5 1.3-16.2 2.4-17 2.4-1.2 0-1.2.2-.2.8 1.6 1.1 5.2 7.7 5.2 9.7 0 2.6-1.7 1.6-3.1-1.7-.7-1.7-1.5-2.6-1.7-2-.8 2.5 8 60.7 9.4 61.8q1.35 1.05.3 2.1c-.6.6-.9 1.8-.7 2.7.2 1.2 5.7-2.8 20.1-14.5 21.3-17.5 20.7-16.7 18.7-25.2-.5-2.3-2.1-9.6-3.5-16.2-1.5-6.6-3.3-14.3-4.1-17.2-1.8-6.2-.4-6.1-23.4-2.7M673.3 496.7c-2.2.4-2.3.8-2.3 11.4 0 6.6.4 10.9 1 10.9s1-.5 1-1.2.7-.5 1.8.6c1.2 1.4 1.4 2 .4 2.3-1.8.7-.4 2.3 2 2.3 1.8 0 1.9-.2.7-1.7s-1.2-1.6.7-1.1c1.6.4 2.5-.1 3.4-1.7 1-1.8.9-3.9-.5-10.6-.9-4.6-2.1-9.1-2.6-10.1-1-1.8-1.5-1.9-5.6-1.1M602.3 501.6l-1.2 4.9.6-4.5c.3-3.1.2-4.2-.5-3.5-.6.5-1.8 5.9-2.7 11.9s-1.8 11.3-2.1 11.8c-.3.4.2.8 1.1.8s1.5-.7 1.3-1.6c-.2-1 .5-1.8 1.5-2 1-.1 2.5-1.1 3.3-2.1 1.3-1.7 1.3-1.7 1.4.1 0 1.9 0 1.9 1.3.1.8-1 1.9-1.5 2.5-1.1.9.5 1.2-2 1.1-9.6-.1-6.6-.4-9.2-.9-7.3-.6 2.5-.8 2.7-1.4 1.2-.5-.9-1.4-1.7-2.1-1.7s-1.5-.5-1.7-1.2c-.2-.6-.9 1.1-1.5 3.8M394.6 500.8c-.4.6-1.3.9-2.1.5-.8-.3-1.5 0-1.5.6 0 .7.7 1.4 1.5 1.7 2.1.9 1.9 3-.9 7.1l-2.4 3.5-.4-2.8c-.2-1.6 0-4.6.3-6.6.3-2.1.3-3.5-.1-3.3-1.9 1.2-7.5 69.5-5.7 69.5.5 0 12.4-9.5 13.7-10.9.7-.9 6.9-6 12-10.1 2.4-1.9 8.2-6.7 12.9-10.7l8.5-7.2 2.8-12.8c3.4-16.1 3.4-15.7.3-13.7-2 1.3-2.3 2-1.4 3 .6.7.9 1.9.6 2.6-.3.8-.6.5-.6-.7-.1-1.5-.4-1.6-1.3-.7-1.3 1.3-3.2 1.6-2.4.4.2-.4-.5-.8-1.6-.8-1.8 0-2 .5-1.5 4.3.4 4.1-1 6.2-3.4 4.7-.5-.3-1.5-.2-2.1.2-2.1 1.3-4.6 1.2-4.1-.2.2-.7-.4-1.4-1.4-1.7-1.6-.4-1.6-.5 0-.6.9 0 1.7-.6 1.7-1.1 0-.6-.8-1-1.7-1-1.5 0-1.6-.2-.3-1 1.2-.8 1.1-1-.7-1-1.6 0-2.3-.6-2.3-2 0-1.7-.7-2-5-2-3.3 0-5.1.4-5.2 1.2 0 .7-.4-.7-.7-3.2-.4-3.1-1-4.4-2-4.2-.8.2-1.7-.2-2.1-.9-.5-.8-1-.8-1.4-.1M535.2 504.5c-1 2.1-.9 3.2.2 5.4.8 1.5 1.3 3.9 1 5.2-.5 2.1-.4 2.2.8.9 1.5-1.7 4.8-2.5 4.8-1.2 0 .4-1.8 2.1-3.9 3.8-2.2 1.6-4.5 3.8-5.1 4.8-1.4 2.3 3.9-1.9 11.3-8.7 4.2-3.9 4.7-4.8 4.6-8.3l-.2-3.9-.6 4c-.6 3.6-.7 3.8-1.7 2-.6-1.1-.9-2.6-.6-3.4.6-1.9-1.6-3.1-5.9-3.1-2.9 0-3.8.5-4.7 2.5M306.6 504.8c-.3.5-.8 3.1-1.2 6-.6 5-.6 5.2 4.7 11.9 8.3 10.6 16.9 20.5 16.9 19.5 0-.5-.8-2-1.9-3.3-1-1.3-3.7-6.7-6-11.9-2.4-5.2-4.9-10.2-5.7-11.1-.8-.8-1.4-2-1.4-2.6s-.7-1.6-1.5-2.3c-.9-.7-1.3-2-1-2.8.5-1.2.3-1.3-1-.2-1.4 1.2-1.5 1-1-1.3.7-2.6.2-3.6-.9-1.9M969.2 507.2c-1.3 1.6-2.5 3.4-2.6 4.1-.2.6-1.3 3.4-2.4 6-1.2 2.7-2.2 5.2-2.2 5.6 0 1-9.7 20-11.3 22.1-4.1 5.5 8.1-8.3 15.4-17.4 9.5-11.8 9.5-11.8 6.5-20.2l-1.1-3.1zM512.1 506.7c-.8.3-2.8 1.9-4.4 3.4-2.8 2.7-3.2 2.8-4.7 1.4-1-.9-3.3-1.7-5.3-1.8-4.1-.4-5.2 1.3-5.6 8.6-.1 1.1-.6 1.5-1.3 1.1-.8-.5-.9-.2-.5 1 .4 1 .7 2 .7 2.2 0 .3.5.2 1.2-.2.6-.4.8-.3.5.3-.9 1.4 1.7 6.5 2.8 5.5.5-.4.5-.1.1.6-.5.8 1.1 5.1 3.9 10.8 4.2 8.6 4.8 9.4 6.3 8.2 23.4-19.6 23.8-20.2 20.2-23.8-.3-.3-1-1.4-1.7-2.5-3.8-6.4-9.9-15.5-10.3-15.4-.3 0-1.1.3-1.9.6M437.8 511.2c-.2 3-.3 3.6-1.5 8.3-.6 2.2-1.4 5.5-1.8 7.2l-.7 3.3 6.4-2.8c3.5-1.6 8.1-3.5 10.3-4.2s7.3-2.8 11.3-4.6c4-1.9 8.4-3.7 9.8-4 2.8-.7 3.9-2 2.4-2.9-.5-.3-1-.1-1 .5 0 .7-.9.9-2.2.5-1.4-.4-1.8-.3-1.1.2.9.6.3 1.2-1.9 2.1-2.4.9-2.9.9-2 0 .7-.7 1.2-1.9 1.2-2.8q-.15-1.5-2.1 1.2c-2.6 3.5-4.2 3.5-5.8.2-1.1-2.5-1.5-2.6-7.1-2.2-3.4.2-6.1 0-6.3-.6-.2-.5-1.3-1-2.5-1.1-1.9-.1-2.2.4-2.2 3.3 0 2.2-.4 3.2-1.2 2.9-.8-.2-1.2-1.7-1-3.5s.1-3.2-.2-3.2-.7 1-.8 2.2M794.7 513.2c-.3.7-2.1 5.2-4 9.9-2 4.8-5.8 13.2-8.5 18.7-2.7 5.6-4.6 10.3-4.2 10.4.5.2 8.6 7.9 18 17.1 9.5 9.3 17.6 16.5 18.1 16 .4-.4 2.3-3.5 4.2-6.8s6.4-11.2 10.2-17.5c7.8-13.2 15.5-27 15.5-27.7 0-.3-.7-.2-1.6.1s-1.2.2-.9-.4c.4-.6-1.5-2-4.2-3.1-2.6-1.2-7.7-3.5-11.3-5.1s-10.8-4.7-16-6.9-10.3-4.4-11.2-4.9c-2.4-1.3-3.5-1.3-4.1.2M729.9 518.7c0 2.7-.1 7.2-.3 10.1-.1 3.3.2 5.1.8 4.8.6-.2 1-.8.9-1.4-.1-.5 1.3-1.3 3.2-1.6 3.6-.7 12.7-4.5 11-4.6-.5 0-3.9-2.8-7.5-6-3.6-3.3-6.8-6-7.2-6-.5 0-.8 2.1-.9 4.7"/><path d="M957 521.3c-3 3.3-7.7 8.7-10.3 12l-4.9 6 .6 7.1c.3 3.9.5 7.5.6 8 0 1.1 3-1.4 3-2.6 0-.5-.5-.6-1.2-.2-1.3.8-.5-.6 2.8-5.1 1.2-1.7 3.9-6.2 5.9-10 2.1-3.9 4.1-7.5 4.5-8 .9-1.2 2.3-7.3 1.8-7.9-.2-.2.6-1.3 1.6-2.5 1.1-1.2 1.7-2.3 1.5-2.5-.2-.3-2.9 2.3-5.9 5.7M318.4 518.8c.9 1.7 1.6 3.8 1.6 4.6 0 2 8.1 17.4 12.3 23.3 1.9 2.7 3.6 5.5 4 6.3.3.8.6-2.2.6-6.7l.1-8.3-9.1-10.5c-9.9-11.5-11.9-13.3-9.5-8.7M466.5 519c-1.9 1-8.1 3.7-13.7 6-5.7 2.4-10.7 4.7-11.2 5.2-.6.4-1.7.8-2.5.8-3.3 0-4.4 1.6-3.1 4.1 3.4 6.6 26.6 45.5 28.9 48.5 1.6 2 2 1.7 20-15.6 10.1-9.8 17.9-18 17.3-18.4-.6-.3-1.2 0-1.4.6-.3.7-.5-.1-.6-1.7 0-1.7-3.3-9.1-7.2-16.5s-6.9-12.7-6.6-11.8c.3 1 .1 1.8-.4 1.8-.6 0-1-.5-1-1 0-.6-1.1-1-2.4-1s-2.6-.5-2.8-1.2c-.7-1.9-9.5-1.8-13.3.2M305.7 523.8c.8 4.4 7.1 30.3 8.7 35.2 1 3.3 1.8 4.4 3 4.2 1.5-.3 1.6 0 .6 1.8-1.2 2.3-.9 4.9 1.7 11.7 1.7 4.6 3.8 5.9 3.1 1.9-.4-1.8-.1-2.3.9-1.9 1.4.6 1.4 2.9-.1 6.3-.4 1 1.3 4.3 4.6 9.1 6.3 9 26.2 34.9 26.5 34.6.3-.4-10.7-42.5-13.6-52.2-.6-1.7-1.5-5-2.1-7.3l-1.1-4.4-3 3.1c-1.6 1.7-3.1 3.1-3.4 3.1-1.2 0-.3-1.7 2.5-4.7 3.7-3.9 3.6-4.2-5.4-15.3-16.5-20.5-21.9-27.1-22.6-27.5-.4-.2-.5.8-.3 2.3M970.6 525.2c-14.3 17.3-24.2 29.7-25.7 32.2-1.8 2.9-1.8 2.9 2.3 9l4 6.1-4.5-5c-3.9-4.3-4.5-4.7-5-3-.4 1.1-1.7 6.3-3.1 11.5s-5 18.9-8.1 30.4c-3 11.5-5.4 21-5.2 21.2.4.4 21-26.7 28-36.8 2.7-3.8 4.7-7.4 4.5-8-.3-.7.4-2 1.4-3s1.8-2.5 1.8-3.3c0-.9 1.6-6.8 3.5-13.3 4-13.7 9.5-35.1 9.5-37.1 0-1.1-.4-.9-1.5.5-.8 1-1.5 1.4-1.5.8s.9-2.1 2-3.4 2-2.5 2-2.7c0-1-1.3.1-4.4 3.9M624.5 524.3c-.6.7-4.6 5.8-8.8 11.4l-7.8 10.3 2.1 3.7c1.1 2.1 4.5 7.1 7.4 11.1l5.4 7.2.6-5.7c.3-3.2 1-12.3 1.6-20.3s1.2-15.5 1.4-16.8c.4-2.4-.3-2.8-1.9-.9M636.4 528.8c-9 13.8-9.2 14.5-10.9 34l-.6 7.3 11.3-.2 11.4-.2 3.8-6.9c2.2-3.7 4.5-6.8 5.2-6.8 3 0-1.7-13.4-9-25.3-5.4-8.8-5.6-8.5-5.6 6.6 0 18.1-1.8 18.3-2.2.2l-.3-13.5zM656 524.5c0 .5.5 3.8 1 7.4.6 3.6 1.3 8.1 1.6 10 .4 2.7.8 3.1 1.6 2s.9-1 .4.4c-.8 2.5 1.5 7.7 5.1 11.2 1.6 1.7 5 5.4 7.6 8.3s4.7 4.7 4.7 4c-.1-2.9-2.9-18.5-3.8-20.9-1.4-3.5-18.2-24.3-18.2-22.4M607 527.5c-.7.8-.9 1.5-.5 1.5.3 0-2.5 3.5-6.4 7.8-4.1 4.5-7.1 8.8-7.1 10 0 2.4-1.6 3.8-2.3 2q-.6-1.5-.6 0c-.1.7.6 1.5 1.4 1.8.8.4 1.5 1.2 1.5 1.8 0 .7.5 1.7 1.2 2.4.9.9 2.3.1 6-3.9 2.6-2.8 4.6-5.5 4.3-5.9-.3-.5 0-1 .6-1.2 1.1-.4 4.3-16.7 3.5-17.5-.2-.2-.9.3-1.6 1.2M675 536.3c1.1 4.8 2.6 9.5 3.5 10.3 1.2 1.2 1.3 1.9.4 3-.8 1-.8 3.6.1 10.1 1.6 11.6 2.3 12.7 4.4 6.8 1.7-5.1 2-7.3 1-6.2-.6.6-4.5-5.9-4.4-7.3.1-.3 1.2.8 2.5 2.5 1.3 1.6 2.7 2.6 3.1 2.3.7-.8.2-2.2-2.3-5.8-1.7-2.5-1.7-2.5.3-.8 3.1 2.7 5.5.5 5.8-5.5.1-2.6-.1-4.3-.4-3.6-.9 1.4-2.4-.6-1.8-2.4.3-.7-1-2.5-2.9-4-1.8-1.6-3.3-2.4-3.3-1.9 0 .6.5 1.4 1 1.7.6.3 1 2.3.9 4.3l-.1 3.7-1.1-3.5c-.6-1.9-2.3-4.6-3.7-6.1-1.4-1.4-3-3.4-3.7-4.5-.6-1.1-.3 1.9.7 6.9M535 530.6c0 .8-.4 1.2-1 .9-.6-.4-1 2.9-1 9 0 7 .3 9.6 1.2 9.3.6-.2 1.4-1 1.6-1.8.3-.7 0-1-.7-.6-.6.4-1.1.2-1.1-.4s.7-1 1.4-.8c1.5.3 13.6-9.6 13.6-11.1 0-.9-11-6.1-12.9-6.1-.6 0-1.1.7-1.1 1.6M738.5 531.1c-8.2 4.4-8.2 3.8-.4 11.5 5.6 5.6 7.1 6.6 7.9 5.4 1.3-2.1 1.3-17.3 0-16.5-.5.3-1-.1-1-.9 0-2.2-1.8-2-6.5.5M528.9 530.7c-.2.5-5.6 5.3-11.9 10.7s-11.6 10.1-11.8 10.5c-.4 1.1 9.8 12.1 12.8 13.6 2.2 1.1 2.7 2 2.3 3.7-.4 1.6.5.9 2.8-2.2 6.1-8 9.1-12.9 8.7-14-.2-.6-2.5 2.3-5.2 6.5-2.6 4.2-5.1 7.4-5.4 7.1s.1-1.4.9-2.3c.8-1 2.8-4.4 4.3-7.6 1.6-3.1 3.3-5.7 3.9-5.7s.8-3.5.4-10.1c-.6-9.6-1-12.1-1.8-10.2M748.7 542.3l-.5 12.2 3.6 5.6c3.8 6 5.4 6.6 11.3 4.2 2.5-1.1 11.9-10.8 11.9-12.3 0-.4-1.5-1.9-3.4-3.4-1.9-1.4-4-3.1-4.8-3.8-3.5-3.3-15.4-13.5-16.4-14.1-.8-.5-1.3 3-1.7 11.6M432.7 536.7c.6 1.5.4 1.6-.9.5s-2.5-.5-7.9 3.8c-4 3.2-6.3 5.8-6.1 6.8.2 1.5.1 1.5-.8.2-.7-1-1.2-1.2-1.7-.4-.7 1-8.8 7.7-26 21.6-3.5 2.7-6.3 5.2-6.3 5.5 0 .2 1.9 2.5 4.3 5.1s7.2 7.9 10.8 11.7c3.5 3.9 11.4 12.4 17.4 19 6.1 6.6 13 14.1 15.4 16.7 2.4 2.7 4.6 4.8 5 4.8.8 0 8-10.6 19.4-28.7l9.7-15.2-5.9-9.8c-3.2-5.4-9.6-15.9-14.1-23.3-4.6-7.4-9.2-15-10.3-16.8-2.1-3.5-3-4.2-2-1.5M844.6 537.2c-1.5 2.4-14.4 24.6-24 41.2l-5.7 9.8 13.8 21.6c7.6 11.9 14.3 21.7 14.9 21.9s10.8-10.3 22.5-23.4c23.1-25.6 28.9-32.5 28.9-34.2 0-1-13.9-12.7-30.2-25.4-4.4-3.4-10.1-7.9-12.6-9.9-2.6-2-5-3.7-5.4-3.7-.4-.1-1.4.9-2.2 2.1M340 550.4v8.7l22.5 30.1c12.4 16.5 22.5 29.6 22.5 29.1 0-1.6-4-36.8-4.5-39.9-.4-2.5-2.9-5.2-11.3-12.5-8.8-7.8-22.4-19-27.9-23.2-1-.7-1.3 1-1.3 7.7M934 545.7c-2.5 1.9-11.4 9.1-19.7 16-12.6 10.4-15.3 13.1-15.8 15.7-.2 1.7-1.2 11.2-2 21.1-.9 9.9-1.8 18.6-2 19.2-1.2 3.7 2.8-1.3 21.5-26.3 27.1-36.3 25-32.5 24-41.3-.4-4-.9-7.4-1.1-7.5-.2-.2-2.4 1.2-4.9 3.1M969.6 566.3c-6.2 12.7-11.6 25.3-11.6 27.4 0 .2.5.1 1.2-.3.7-.5.9-.2.5.9-.9 2.5-1.8 9.4-1 7.7.5-.8 1.4-1.6 2.1-1.8 1.4-.2.9 4.7-.9 9.5-.5 1.3-.5 2.3 0 2.3s1.4-2.1 2-4.8c.6-2.6 1.4-5.8 1.7-7.1.5-1.7.4-2.2-.4-1.7s-1.2 0-1.2-1.3c0-1.2.5-2.1 1-2.1.6 0 1 .5 1 1.2 0 2.7 1.2-.7 5.5-15.6 2.7-9.3 4.3-16.6 3.9-17.8-.3-1.2-.2-1.8.3-1.5.5.4 1 0 1-.7 0-.8.8-3 1.7-5.1 1-2 1.6-3.9 1.3-4.1-.3-.3-3.9 6.4-8.1 14.9M485.1 570.5c-14.3 14.1-17.9 18.1-17.2 19.4.5.9 1.1 2 1.3 2.6.1.5.6.9 1 .8.4-.2.5.4.2 1.2s.1 2.7.9 4.2c.9 1.5 2.2 5 3.1 7.8.8 2.7 2.2 6.7 3.1 8.9 1.5 3.4 1.8 3.7 3.3 2.3.9-.8 5.1-4.1 9.2-7.5 11.7-9.4 13.4-11.4 24.5-29.2 5.8-9.3 5.5-8.3 3.3-11.9-1.4-2.2-2.6-3-3.7-2.6-1.7.5-3.7-1.1-5.6-4.4-.6-1-.4-1.2.4-.6.7.4.2-.9-1.1-2.9-1.7-2.7-2.8-3.4-4.3-3-1.6.4-1.7.3-.5-.5.8-.5 1.2-1.3.8-1.6-.3-.4-8.8 7.3-18.7 17M772.3 558.6c-2.4 2.9-4.3 5.7-4.3 6.2s-.8 1.2-1.8 1.4c-.9.3-2.6 2-3.6 3.9l-1.8 3.5 5.8 9.9c6.3 10.5 15.1 20.3 27.9 30.7l7 5.7.7-2.6c.4-1.4.3-3.4-.2-4.4-.6-1-1-3-.9-4.6.1-2.6.2-2.5 1.3 1l1.2 3.9 1.2-2.7c.7-1.4 1.2-3.1 1.2-3.8s1.6-5 3.5-9.7l3.6-8.5-15-14.5c-8.2-8-16.4-15.9-18.2-17.6l-3.4-3.2zM305.6 559.9c-.3.4-.1 2.1.4 3.7 1.6 4.7 7.7 26.6 8.5 30.1.7 3.3 2.5 4.6 2.5 1.8 0-.8.5-1.5 1-1.5 1.2 0 1.2.7.1 4.8-.8 2.5-.5 4.9.8 9.5 1 3.4 2.4 8.4 3.1 11.2 2.2 8.6 20 42.3 20 37.8 0-.6-1.6-6.4-3.5-12.9-1.9-6.6-3.9-13.3-4.4-14.9-3.4-11.7-10.3-32.7-11.9-36.2-1-2.4-2.2-4-2.6-3.5-.4.4-.5-.4-.1-1.8.5-1.9-1-5.8-6-15.8-3.7-7.3-6.8-13.2-7-13.2s-.6.4-.9.9M933.3 571.3c-3.4 4.5-13.6 18.1-22.6 30.1-15 19.8-16.6 22.5-17.3 27-.9 6.8-6.2 59-5.9 59.3.2.3 18.7-29.6 27.6-44.7 6.6-11.3 6.9-11.9 13.8-38.1 8.4-31.6 11-41.3 10.7-41.6-.1-.1-2.9 3.5-6.3 8M341.6 567.5c.7 3.2 6.9 26.6 13.1 50l3.8 14 16.8 28c9.3 15.4 17.1 28.2 17.4 28.5s.3-.9-.1-2.5c-.3-1.7-1.2-10-2.1-18.5-2.5-25.6-4.7-42.4-5.8-44.5s-40-54-42.4-56.5c-1.2-1.3-1.3-1.1-.7 1.5M650.8 578.2l-8.8 5.3v13.2c0 7.3.2 13.3.5 13.3s1.1-.4 1.8-1c3.2-2.6 15-10.1 15.3-9.7.7.7-4.2 4.6-9.6 7.6l-5.5 3.1h4.5c2.5 0 6.2-.3 8.3-.6l3.7-.7-.1-12.6c-.1-6.9-.4-15-.7-17.8l-.7-5.3zM662.8 590.7c.2 9.8.4 17.9.6 18 .1.1 1.9 0 3.9-.4 3.4-.5 3.6-.7 2-2s-1.6-1.3.4-.4c3.2 1.6 8.2 1.3 10-.5 1.4-1.3 1.5-3.5 1-14.2-.9-17.8-.6-17.3-8.1-17.1-3.3.2-7-.1-8.1-.4-2-.7-2-.3-1.7 17M614.8 574.5c-.3.3-3 .7-5.9.8l-5.4.2-1.2 4.5c-.6 2.5-1.2 7.4-1.2 11-.1 6.1.1 6.6 2.7 8.1 1.5.9 5.8 3.5 9.6 5.8 3.7 2.4 7.2 3.9 7.6 3.4.4-.4 1-8.3 1.2-17.6l.4-16.7H619c-2 0-3.9.2-4.2.5M593 579.7c-11.3 6.7-11.2 6.5-3.6 10.2 3.6 1.7 6.8 3.6 7.1 4.1 1.3 2.1 2.3.8 2.3-3.3.1-2.3.6-6.6 1.2-9.6.5-3 .9-5.5.8-5.6-.2-.1-3.7 1.8-7.8 4.2M624.6 579.7c-.7 4.8-.8 25.8 0 25 .3-.3 2.7.7 5.2 2.2 2.6 1.5 6 3.1 7.5 3.5l2.8.7-.3-13.7-.3-13.6-6.8-3.9c-3.8-2.2-7-3.9-7.2-3.9-.1 0-.5 1.7-.9 3.7M891 583.1c-4.7 5.6-16.6 19-32.9 36.9-5.2 5.8-10.3 11.4-11.3 12.6-1.7 2-1.7 2.2.8 8.5 1.4 3.5 3.6 10.9 4.9 16.4 4.8 20.1 5.9 24.5 6.5 24.5.3 0 1-1 1.6-2.3.5-1.2 5.5-10.1 10.9-19.7s12.2-22.1 15.2-27.6l5.3-10.2 2.1-19.3c1.1-10.7 1.9-20.7 1.7-22.3l-.3-2.9zM383 579.5c0 .5 1.1 10.4 2.4 22l2.4 21 5.4 10c16.7 30.9 27.2 49.5 28 49.5.4 0 .8-1 .8-2.1 0-4 8-34.3 10.5-39.7l2.5-5.4-3.8-4.3c-4-4.7-33.3-36.3-42.4-46-3.2-3.3-5.7-5.6-5.8-5M458 602.2c-15.3 23.6-18.5 28.3-19.7 29.1-.7.4-1.3 1.3-1.3 1.8 0 .9 3.7 6 8.2 11.3.4.5 3.5-1.2 7-3.9 11.7-9.1 24.8-19.7 24.8-20.2 0-1.2-8.2-23-9.5-25.4-.8-1.4-1.2-2.9-.8-3.3.3-.3.2-.6-.4-.6s-4.3 5.1-8.3 11.2M813 592.1c0 .6-.6 2.5-1.4 4.2-1.5 3.4-7 18.9-8 22.3-.4 1.4.2 2.8 2.1 4.6 3.2 2.8 22.4 17.6 26.4 20.2l2.6 1.6 3.7-5.4c3.2-4.6 3.6-5.8 2.6-7.6-.6-1.1-1.6-1.7-2.2-1.4-.6.4-.8.3-.4-.4.6-1-6.2-12.5-18.8-31.5-4.8-7.3-6.6-9.1-6.6-6.6M953.9 593.2c-1.2 2.2-9 12.6-23.8 31.7-5.5 7.2-6.3 8.6-5.3 10.2 1.5 2.3 1.5 3.9.2 3.9-.5 0-1-.8-1-1.7 0-5-2.6 4.3-5 18.2-1 5.4-5 26.4-7.3 38.4-.9 4-1.2 6.9-.8 6.5 3.3-3.9 21.1-31.6 21.1-32.7 0-.9-.7-4.3-1.6-7.7-.8-3.3-1.3-6.6-1.1-7.3s.8.6 1.2 2.8 1.3 5 1.9 6.3c1.2 2.4 3.8-5 17.2-50.3 2.5-8.3 4.9-16.1 5.5-17.4 1.3-3.1.4-3.9-1.2-.9M325.4 593.7c.3 1 4.6 15.1 9.5 31.3 5 16.3 9.4 31 9.7 32.8 1 5.1 2.1 4.7 4.3-1.5 2.3-6.4 2.2-4-.3 5.1l-1.6 5.9 11 16.4c6.1 9 11 16.2 11 16.1 0-.5-3.7-20.6-6.5-35.3-1.4-7.7-3-16.7-3.6-20-1.4-8.8-1.8-9.5-3.4-6-1.6 3.7-1.9 1.3-.4-3 1.1-3.1.9-3.5-10.7-18.6-6.6-8.5-13.5-17.5-15.3-20.2-3.7-5-4.5-5.7-3.7-3M510 596.8c-6.7 3.3-13.4 10-11.8 11.9 1.2 1.5-.3 1.8-1.8.3-.6-.6-3.6 1.3-8.4 5.5-4.1 3.6-7.6 6.9-7.8 7.3-.1.5 2.3 4.3 5.4 8.3 3.1 4.1 8.1 10.7 11.1 14.7 3.1 4 5.7 7.1 5.9 6.9s0-1.9-.5-3.8c-1.4-5.4-2.2-12.6-1.2-10.9.4.8 1.6 4.8 2.7 8.8 1 4 2.1 7.1 2.6 7 1.6-.6 20.8-17 20.8-17.8 0-.5-.9-1.4-2.1-2-2.8-1.5-20.3-17-20.8-18.4-.2-.6.7-.2 2 1 8.8 7.5 19.7 16.4 20.3 16.4.3 0-.1-1.7-.9-3.8-2.6-6.5-8.5-27-8.5-29.4 0-4.6-1.2-4.9-7-2M763.5 597.3c-.4 1.8-2.6 9.5-5 17.2s-4.6 15.1-5 16.4c-.7 2.2-.2 2 4.1-1.8 9.5-8.3 18.5-15.4 18.9-14.9.2.2-5 5.1-11.5 10.8-6.6 5.7-12 10.7-12 11.1 0 .9 20.1 16.9 21.2 16.9.3 0 1-1.5 1.3-3.3.4-1.7 1.6-5.1 2.6-7.4 1.1-2.3 1.9-4.7 1.9-5.4s.3-1 .6-.7c.6.7-2.2 11.4-3.7 14-.5 1-.6 1.8-.2 1.8 1-.1 19.2-23.1 21.6-27.3l1.8-3.2-4.3-3.9c-6.6-6-11.9-9.6-13.1-8.9q-.9.45-.3-.6c1.1-1.7-7-8.7-13.2-11.6l-5.1-2.3zM756.9 601.5c-7.1 7.7-8.3 10.6-7.6 19 1.1 14 1.8 13.4 7.5-6 2.9-9.8 5.1-17.9 4.9-18-.1 0-2.3 2.2-4.8 5M520 603.7c1.5 5.7 5.3 18.9 7.7 26.7 1 3.4 2.3-.6 3-9.2.4-5.5.2-8.6-.7-10.3-1.6-3-10.3-13.8-11.2-13.8-.3-.1.2 2.9 1.2 6.6M951.2 614.2c-11.6 36.6-14.2 45.2-13.8 45.5.5.5 15.9-26.8 18.5-32.7 2.3-5.2 4-14.5 2.2-12-1.3 1.8-1.4.5-.2-3.6.6-2 .5-5-.3-8.4l-1.2-5.2zM601.4 611.7c1.3 5.5 2.9 8.4 4.2 7.9.8-.3 1.4-.1 1.4.4 0 1 4.6 3.2 9.1 4.3 2.5.6 2.6.5 3.5-5.8.6-3.6.7-6.5.4-6.5s-1.4.6-2.5 1.4c-2.2 1.4-8.5 3.2-7.2 2 .4-.4 2.4-1.5 4.5-2.4l3.7-1.7-6.6-1.1c-10.3-1.9-11.2-1.7-10.5 1.5M668.3 609.9c-2.4.4-4.6 1.1-5 1.5s-.9 3.7-1.1 7.3c-.4 5.3-.2 6.5.9 6.1 12.4-5 12.9-5.2 14.2-9.3 2.3-6.6 1.3-7.2-9-5.6M963.2 618.2c-1.6 4-4.1 11.3-5.5 16.3-3.6 12.8-14.8 58.7-14.4 59.2 1.1 1 12-24.5 13.6-31.8 1-4.6 3.5-15.4 5.4-23.9 2.9-12.9 5.1-27 4.1-27-.1 0-1.6 3.3-3.2 7.2M624.6 612.9c.5.6 3.8 1.2 7.4 1.4l6.5.3-6.7.2c-7.5.2-7.7.4-5.8 7.4.9 3 2.2 4.4 6.9 7.2 3.2 2 6 3.6 6.2 3.6s.4-4.2.4-9.2c0-8.8-.1-9.3-2.5-10.5-2.9-1.5-13.9-1.8-12.4-.4M641.9 619.7c-.1 3.7-.2 8.3-.4 10-.1 1.8 0 3.3.4 3.3.3 0 3.1-1.7 6.1-3.8 3.9-2.7 6.2-5.2 8.2-9.1 1.5-2.9 2.8-4.6 2.8-3.7 0 .8-.9 3.2-2 5.2-2.3 4.1-2.1 4.9.9 3.9 1.8-.5 2.1-1.4 2.1-6.1V614l-6.8.6c-4.5.4-7.6.2-9-.5-2.2-1.1-2.2-1-2.3 5.6M315.4 620.2c-.2 4.3 1.7 14.7 2.8 15.4.4.3.6 1 .3 1.5-.4.5.1 4.2.9 8.2.8 3.9 2.2 10.9 3.1 15.5 1 5.5 3.4 12.1 7.1 19.9 3 6.4 5.7 11.4 5.9 11.1.4-.4-8.5-39.9-11.7-51.8-1.1-4-1.3-4.2-1.8-2-.6 2.3-.8 2.2-1.8-1.5-.7-2.2-1.1-5.1-1.1-6.5.1-2.1.4-1.8 1.5 1.5l1.4 4-.4-3.6c-.4-3.1-5-14.9-5.8-14.9-.2 0-.4 1.5-.4 3.2M532.1 625.4c-.6 3.6-1.4 7.2-1.7 8-.5 1.3 0 1.3 3.2.5 3.8-1.1 9 .4 7.8 2.3-.3.4-1.4.4-2.4-.2-1-.5-3.2-.7-4.9-.4l-3.1.6 5.3 3.8c4.8 3.5 11.2 7.4 19.5 12.2 1.8 1 4.4 2.6 5.8 3.4 1.4 1 2.4 1.2 2.4.5 0-.6-1.2-1.7-2.7-2.5-3.1-1.6-8-5.6-6.9-5.6 1.3 0 6.6 3.4 6.6 4.2 0 .4.5.8 1 .8 2.9 0-.2-3.4-10.5-11.5-6.3-5-11.5-9.2-11.5-9.5s-1.5-3.4-3.4-6.9l-3.4-6.3zM744.1 624.6c-3 6.8-7.9 11.6-22 21.4-5.1 3.6-6.7 6.2-3.1 5.3 1.1-.3 2.3-.9 2.6-1.4s1-.9 1.5-.9c1.6 0-2.4 3.7-4.8 4.4-1.3.4-2.3 1.4-2.3 2.2s.3 1.3.8 1.1c4.1-2.2 26.4-16.2 28.6-18l3-2.4-3.7-.7c-2.1-.4-4.2-.4-4.7-.1-.6.3-.7-.1-.3-1 .4-1.3 1.4-1.5 4-1 1.9.3 4.2.9 5 1.2 1.2.5 1.5.2 1-1-.4-1-1.2-4.6-1.8-8.2s-1.2-6.5-1.3-6.5c0 0-1.2 2.5-2.5 5.6M463.9 633.6c-6.8 5.3-13.2 10.4-14.2 11.3-1.7 1.7-1.3 2.3 10.7 13.5l12.5 11.7.5-3.3c1-6.4 3.8-41.9 3.4-42.4-.3-.2-6.1 3.9-12.9 9.2M797.8 628.4c-1.5 2.2-6.8 9.2-11.7 15.4-5 6.2-9.1 11.5-9.1 11.7 0 .5 26.6 16.5 27.5 16.5 1 0-2.5-46.4-3.6-47.4-.2-.2-1.6 1.5-3.1 3.8M803.3 629.6c.3 3.2 1.1 13.7 1.8 23.1.7 9.5 1.5 17.3 1.8 17.3 1.1-.1 25.6-23.8 25.1-24.3-.7-.5-24.9-18.8-27.4-20.6-1.9-1.4-1.9-1.2-1.3 4.5M478.5 628.1c-1.2 7.1-4.1 42.4-3.5 43.2.6.7 23.6-12.7 26.4-15.4.7-.6-15.5-23.4-21.5-30.3-.4-.5-1 .7-1.4 2.5M389 631.7c0 1.9 1.3 14.9 4 38.8 2 18 2.3 19.5 3.6 19.5 1.1 0 1.2.4.3 1.8-.9 1.5 0 4.2 4.8 14.7l5.9 13 4.6.3 4.6.3.7-6.8c.4-3.7.8-8.4 1-10.3 1.9-18.7 1.9-17.8-.6-17.5-1.3.1-1.6 0-.6-.2.9-.2 1.7-.8 1.7-1.2 0-1.1-28.2-52.4-29.6-54-.2-.2-.4.5-.4 1.6M888 634.2c-1.2 2.4-7.1 12.8-13 23.3-14.2 24.9-14.8 26.3-13 27.6 1.2.8 1.1.9-.5.7-2.2-.3-2.2-1.1-.4 17.2.5 5.8 1.1 12 1.2 13.8.2 3.3.2 3.3 5.1 3l5-.3 5.8-12.8c5-10.8 6.1-14.2 7.3-23 2-14.8 5.7-52.8 5.2-53.3-.2-.3-1.5 1.4-2.7 3.8M325.4 635.5c.3 1.1 1.4 6.3 2.6 11.5 1.1 5.2 2.4 11.3 3 13.5 10.2 42.9 10.9 45.4 11 38.6 0-2.6.3-3.2 1.1-2.4s.9 2 .1 4.1c-.9 2.6-.5 3.9 3.6 11.1 3.8 6.6 5 8.1 7 8.1s2.3-.4 1.9-2.2c-.3-1.3-2.4-11-4.8-21.7-3.4-15.1-4.5-18.8-5-16.5-.4 1.6-1.2 4-1.8 5.4l-1.2 2.5.6-2.5c.3-1.4.8-5.7 1.1-9.7l.7-7.2-5.5-9.3c-3.1-5.1-7.7-12.9-10.3-17.3s-4.4-7.1-4.1-6M952.5 638.2c-1 1.8-5.3 9.3-9.7 16.6-8.5 14.2-8.9 15.4-7.5 26.7.4 3.9.3 5.3-.2 4-.5-1.1-1-3.5-1-5.4-.1-1.9-.3-3.2-.6-2.9-.6.5-7.8 30.5-9.5 39.1-.7 3.7-.7 3.8 1.8 3.5 2.1-.2 3.5-1.8 6.9-7.8 3.9-7 4.2-7.9 3.8-14l-.3-6.5 1.2 5 1.2 4.9 2.2-8.4c4.3-16.6 14-57.5 13.7-57.8-.2-.2-1.1 1.1-2 3"/><path d="M433.6 640.2c-3.5 9.8-10.3 37.4-9.4 38.4.7.6 18.8-29.7 18.8-31.4 0-1.6-6.4-11.2-7.5-11.2-.2 0-1 1.9-1.9 4.2M840.2 640.5c-1.8 2.7-3.2 5.6-3.2 6.5 0 1.4 12.8 23.6 17.5 30.2 1.5 2.3 1.5 2.2.9-1.2-1.6-8.8-7.7-31-9.7-35.4l-2.3-5zM517.8 645.7c-5.9 4.8-10.7 9.3-10.8 9.9-.1 2.6 33.5 19.4 38.8 19.4 1.2 0 2.2.4 2.2.9 0 1 5 2.5 5.7 1.7.3-.2-.1-1.4-.7-2.6-.9-1.7-1.4-1.9-2.6-.9-2.1 1.7-3 .2-1.2-1.8 1.5-1.7.8-3-8.2-16.8-5.4-8.3-10.4-15.8-11.2-16.8-1.2-1.7-2.1-1.1-12 7M739.7 654.2l-10.8 16.2 2.8 2.8 2.9 2.9 10.4-4.6c5.7-2.6 14.5-7.1 19.7-10.1l9.3-5.5-5.8-4.8c-9.5-7.9-16.3-13.1-17-13.1-.4.1-5.6 7.3-11.5 16.2M360.4 641c.7 2.9 10.6 58.8 10.6 59.6 0 1.1 5.2-.6 13.2-4.3 4.3-2 7.8-4 7.8-4.4 0-1-25-43-29.4-49.4-2.2-3.2-2.6-3.5-2.2-1.5M537.7 647.5c2.7 4.2 6.5 10.3 8.5 13.7 2 3.3 4.1 6.5 4.6 7 1.4 1.4 5-.7 9-5.1 1.8-2 2.9-2.7 2.3-1.6-.5 1.1-2.5 3.6-4.5 5.4-3.9 3.7-4.4 5.7-2.3 8.5 1.2 1.7 1.7 1 5.1-6.9 2.1-4.8 3.4-9.1 2.9-9.5-.4-.3-6-3.7-12.3-7.5-6.3-3.7-13-7.9-14.8-9.2-3.2-2.4-3.2-2.4 1.5 5.2M740 644.6c-3.6 2.5-10.2 6.5-14.7 9-4.6 2.5-8.3 4.9-8.3 5.4 0 2.4 10.3 11.3 11.4 9.8.7-.9 17.3-26.5 18-27.6 1-1.7.9-1.6-6.4 3.4M910.5 654.2c-19.1 31-22.5 36.7-22.5 37.7 0 .5 2.6 2.2 5.8 3.6 3.1 1.5 7.5 3.6 9.6 4.6 2.1 1.1 4.2 1.7 4.6 1.2.5-.4 1.8-6.4 3-13.3s3.7-20.3 5.6-29.9c1.8-9.6 3.2-17.6 3-17.8s-4.3 6.1-9.1 13.9M445 648.4c0 1.2 10.1 35.6 11.2 38.4l1.4 3.2 7.7-7.9c4.2-4.3 7.7-8.3 7.7-8.8 0-.8-9.5-9.9-22.6-21.6-3.8-3.4-5.4-4.4-5.4-3.3M820.1 660.2c-11.7 10.7-15 14.9-11.2 14 .7-.1 1 .2.6.8-.6 1 10.2 14 11.7 14s5.3-9.7 9.1-23c4.5-15.8 4.7-16.9 3.7-17.5-.4-.3-6.7 5-13.9 11.7M833.9 658.1c-1.1 4.1-3.9 12.8-6 19.4-2.2 6.7-3.9 12.9-3.9 13.9 0 1.6 2.4 5.3 7.6 11.8l2.2 2.7 3.4-2.9c1.8-1.7 6-5.3 9.3-8.2s7.1-6.5 8.3-8l2.3-2.8-2.9-4.2c-1.6-2.4-6.2-9.7-10.2-16.3s-7.4-12.2-7.5-12.4c-.2-.2-1.4 3-2.6 7M433.5 667.5c-5.6 8.9-9.3 16-8.9 16.6.4.8.3.9-.4.5-5-3.1 7.2 9.3 18.7 18.9l2.9 2.5 5.2-7.1 5.1-7.1-2.1-7.1c-3.8-12.7-10.2-32.7-10.5-32.7-.2 0-4.7 7-10 15.5M490.5 665.1c-6 3.8-11.7 7.4-12.4 7.8-1.2.7-.8 1.5 1.9 3.7 1.9 1.6 6.6 5.7 10.5 9.1 3.8 3.5 7.3 6.3 7.6 6.3.4 0 1.2-3.9 1.8-8.8.7-4.8 1.6-11.2 2.1-14.2 1.1-7.1 1.2-11 .3-11-.5.1-5.7 3.2-11.8 7.1M504.7 662.2c-.3 2.4-1.4 9.8-2.3 16.5-1 6.8-1.5 12.5-1.2 12.9.4.3 3.5-.6 7-2.1 9.6-4 18.6-7.1 26.2-9.2 3.8-1 7.1-2.3 7.3-2.9s-4-3.1-9.4-5.4-10.2-4.6-10.8-5c-.5-.4-4.4-2.6-8.6-4.9l-7.7-4.1zM592.1 664.6c-2.9 3.6-5 6.8-4.7 7.1s3 .6 6 .7c3.2 0 5.7.5 6 1.2.2.6 1.9 1.6 3.6 2.3 3.1 1 3.2 1 2.6-1.2-.4-1.2-.9-3.8-1.2-5.7-1.1-7-3.3-10.9-6-11-.6 0-3.4 3-6.3 6.6M678.8 659.4c-1.3 1-4.8 13.1-4.8 16.8 0 .3 1.6.1 3.5-.5 2.5-.7 3.4-1.5 3-2.5-.4-1.1-.2-1.2.7-.4 1.3 1 10.2.2 11.4-1.1.9-.9-9-13.6-10.6-13.6-.8 0-2.3.5-3.2 1.3M771.5 659.4c-7.8 5-17.2 10-24 12.7-10.2 4.1-11.2 4.9-8.9 6.6 1.7 1.2 1.6 1.3-.4 1.3-1.2 0-2.2-.5-2.2-1.1 0-1.2-2-.9-8.3 1.3-2.4.8-3.5 1.8-3.2 2.6s1.5 6.7 2.7 13.3l2.2 11.9 2.2-3.9c1.3-2.1 2.6-5.6 3-7.8.6-3.9.4-4.2-4-7.9-2.5-2.1-4.6-4.2-4.6-4.7 0-.4 2.3 1.1 5 3.4 6 5.1 6.4 7.6 2.4 16.9-1.5 3.3-2.5 6.3-2.2 6.6.3.2 4 1.1 8.2 1.8 8.3 1.4 7.1 1.7 16.8-3.8 8.9-5 21.8-14 21.1-14.6-1.4-1.2-11.4-5.2-24.3-9.7-8.3-2.9-11-4.1-8-3.7 4.5.6 18 5.2 27.3 9.3 7.9 3.4 7.5 5.1 4.2-16.3-.8-5.5-1.5-11.2-1.5-12.8 0-3.1-.5-3.3-3.5-1.4M777.2 665.2c.5 4 1.3 9.7 1.8 12.7.6 3 1 7 1 8.8 0 3.3 1.3 4.5 2.3 1.9.3-.7 2-2.4 3.9-3.6 3-2.1 2.8-1.8-1.2 2.3-2.4 2.6-3.9 4.7-3.3 4.7 1 0 19.5-15.9 20.7-17.8.3-.6-21.7-14.5-25.4-16-.3-.1-.3 3 .2 7M561.9 669.2c-1.9 4.5-3.5 8.4-3.7 8.8-.1.3 5.2-.7 11.8-2.3s12-3.2 12-3.6c0-.8-14.8-11.1-15.9-11.1-.4 0-2.3 3.7-4.2 8.2M705.3 666.3c-4 2.8-7.3 5.5-7.3 5.8 0 .7 22 6.3 22.6 5.7.7-.7-6-16.1-7.1-16.4-.6-.2-4.3 2-8.2 4.9M348.3 674.5c.3 1.1 1 4.5 1.7 7.5.6 3 1.5 7.3 2 9.5 1.8 7.9 6 27.3 6 27.9 0 .3 3.2.6 7 .6 7.6 0 7.8-.2 6.1-6-.7-2.5-.8-2.4-2.9 1.5-2 3.6-2.1 3.7-1.5 1 .3-1.7 1.2-4.7 1.9-6.8 1.6-4.6 2.1-3.7-9.9-21.7-9.7-14.7-11.2-16.6-10.4-13.5M921 688.5c-9.9 14.9-10.3 15.6-9.7 19.7.4 2.9.1 4.9-.9 6.2-1.3 1.9-1.4 1.9-1.4.1 0-2.6-.6-1.6-1.3 2.2-.6 3.2-.6 3.3 2.8 3.3 3.3 0 3.4-.1 2.4-2.6-.5-1.5-.7-2.9-.5-3.2.5-.4 1 .6 2.2 4.5.2.7 1.8 1.3 3.7 1.3 2.8 0 3.3-.4 3.5-2.7.1-1.4.9-4.9 1.7-7.7 1.8-6.1 8.5-36 8.1-36.3-.1-.2-4.9 6.7-10.6 15.2M580.8 674.7c-.9.2-2.2 1.6-2.7 3.1-.9 2.1-1 2.2-.7.4.5-2.6-.3-2.7-7-.8-2.7.8-6.6 1.7-8.7 2.1-2.7.4-4 1.3-4.7 2.9-1.3 3.4-5.2 25.8-4.6 26.4.3.3 6.4-.8 13.6-2.3l13-2.8v-4.9c0-2.7.4-4.7.9-4.4s1.1-1.1 1.4-3.2c1-6.1 2-17.2 1.6-17.1-.2.1-1.2.3-2.1.6M584.1 682.2c-2 15.6-2.3 18.8-1.7 18.8.3 0 2.4-2.8 4.6-6.2s4-5.9 4-5.5c0 1.3-4.4 9.2-6.3 11.4l-1.9 2.1 3.8 1.1c11.3 3.1 21.5 5.3 22.9 4.7 2.4-.9 1.9-5.8-3-27.4-.6-2.6-7.6-6.3-8.3-4.3-.2.6-.8 1.1-1.3 1.1-.6 0-.7-.5-.4-1 .8-1.3-3.7-3-8-3h-3.3zM686 675.2c-1.4.5-4.5 1.5-7 2.2l-4.4 1.1-2.8 11.5c-1.9 7.8-2.6 12.8-2.2 15.6l.6 4.1 10.1-2.7c5.6-1.5 11.5-3 13-3.4l2.8-.7-2.4-3.2c-1.3-1.7-2.4-4.2-2.3-5.5 0-1.2.1-2.2.1-2.2.1 0 1.2 1.5 2.5 3.2 2.2 3.1 2.2 3.2.2 1.4-3.1-2.7-2.8-.5.3 2.4l2.5 2.3v-4.1c0-4.2-1.7-18.4-2.6-21.5-.6-1.9-4.4-2.2-8.4-.5M466.6 683.5l-7.8 8.5 2.9 3.3c1.6 1.7 5.4 5.6 8.6 8.6l5.7 5.4 5.2-3.7c2.9-2.1 7.7-5.4 10.5-7.4 2.9-2 5.3-3.9 5.2-4.2 0-.8-20.2-18.3-21.5-18.7-.6-.2-4.6 3.5-8.8 8.2M793.6 684.2c-5.7 5.1-10.3 9.7-10.2 10.2.2.9 16.6 12.9 19.5 14.3.9.4 4.3-2.3 9.8-8 8.2-8.3 8.4-8.6 6.6-10.5-1-1-4.5-4.9-7.7-8.6-3.3-3.6-6.3-6.6-6.8-6.6-.4 0-5.5 4.2-11.2 9.2M702.7 677.4c-.4.9-.9 5-1.2 9.3-.4 4.3-1.1 8.7-1.6 9.8-.7 1.4-.7 3 0 4.7.9 2.3 2 2.9 8.8 4.3 4.3.9 10.4 2.3 13.6 3 3.1.7 5.7 1.2 5.7 1.1-.9-7.5-5.7-29.6-6.5-29.6-.7 0-15-3-16.6-3.6-.9-.2-1.9.2-2.2 1M541.7 679.2c-.8.4-5.5 2.1-10.4 3.7-10.9 3.6-27.5 10-28.6 11.1-.9.8 4.5 4.8 19.3 14 9.1 5.8 10.4 6 20.8 3.9 5.4-1.1 6.1-2.1 3.8-5.4-.7-1.1-1.7-3.1-2.1-4.5-.7-2.1-.6-2.2.6-1 .8.8 2 2.7 2.8 4.3.8 1.5 1.8 2.4 2.1 2 .4-.5 1.5-5.5 2.4-11.3 1-5.8 2-11.4 2.2-12.5.4-1.6-.3-2.4-3.3-3.5-4.5-1.8-7.5-2-9.6-.8M946.3 692.8c-3.4 7-7 15.8-8.1 19.7-1.9 7-1.9 7 .1 7.3 1.1.2 2.3-.2 2.8-1 1.7-2.7 12.2-37.8 11.5-38.5-.1-.1-2.9 5.5-6.3 12.5M327 681.5c0 1.6 7.2 27.1 9.3 32.9 1.7 5 2.2 5.5 2.8 3.7 1-2.7 2.3-2.8 1.4-.1-.5 1.4-.2 2 .9 2 2 0 2 .1-.5-8.9-2.2-7.9-13.9-32.8-13.9-29.6M646.3 685.7l-5.3.4v3.7c-.1 2-.3 9.7-.5 16.9l-.4 13.3h12.4l2.7-4.3 2.6-4.2-1.3-11.9c-.8-6.5-1.6-12.1-1.9-12.3-.2-.2-1.9.5-3.7 1.6-1.9 1.2-4.1 2.1-4.9 2.1s.4-.9 2.8-2 4.1-2.4 3.7-3c-.3-.5-.7-.9-.8-.8s-2.6.3-5.4.5M628.5 688c2.2 2.4.9 2.7-1.6.4-1.7-1.5-1.8-1.4-2.3 1.8-1.6 9.7-3 24.4-2.7 28.5.1.7.9 1.3 1.8 1.3 1.3 0 1.4-.3.5-1.2-.7-.7-1.2-1.7-1.2-2.2 0-.6.7 0 1.6 1.2 1.3 1.9 2.4 2.2 8 2.2h6.4v-34h-6.2c-6 0-6.1 0-4.3 2M420.6 701.9c-1 8-2 15.4-2.2 16.3-.5 1.6.3 1.8 7.4 1.8 5.9 0 8.3-.4 9.2-1.5.7-.8 1.7-1.5 2.2-1.5.6 0 .5.7-.2 1.5s-1 1.5-.7 1.5c1.5 0 7.7-11.3 7.2-12.8-.4-1-4.7-5.3-9.6-9.7-5-4.4-9.6-8.5-10.3-9.1-1-.9-1.6 1.9-3 13.5M847.5 696.2c-14.4 12.6-13.5 10.7-8.9 17.7l3.9 6 9.3.1c6.3 0 9.2-.4 9.2-1.2 0-3.2-3.3-28.5-3.9-29.4-.3-.7-4.2 2.1-9.6 6.8M384 697.8c-13.3 5.8-12.6 4.5-7.7 14l4.2 8.2H394l-.1-7.8c-.1-4.2-.4-10-.7-12.9l-.7-5.2zM452.2 700.8l-5 6.9 5.5 6.1c4.8 5.5 5.9 6.2 9.2 6.2 2.9 0 4.4-.7 6.7-3.2 6.3-6.8 6.5-5.9-2.8-14.8-4.5-4.4-8.4-8-8.5-8s-2.4 3.1-5.1 6.8M813.7 702c-7.6 7.7-9.1 10.8-5.1 10.2 1.6-.2 1.6-.1.4.7s-1 1.5 1.5 4.1c2.2 2.3 3.7 3 6.8 3 4 0 5.2-1 12.4-9.9l2-2.5-4.6-6.8c-2.5-3.7-4.8-6.7-5.1-6.8-.3 0-4 3.6-8.3 8M886.5 695.3c-.2.6-.5 6.5-.7 12.9l-.4 11.8h14.1l3.9-7.6c4.6-9 4.8-8.6-7.7-14.3-6-2.8-8.9-3.7-9.2-2.8M496 697.8c-6.4 4-18 12.6-18 13.3 0 .5 2.5 2.7 5.5 4.9 5.4 4 5.7 4.1 12.8 3.8l7.3-.3-2.5-11.6-2.6-11.7zM775 698.6c-1.9 1.4-8.1 5.3-13.7 8.7-5.7 3.4-9.9 6.4-9.5 6.8 1.1 1 17.8 5.9 20 5.9 1.1 0 2.3-.8 2.6-1.8 1.4-5.2 4.8-21.3 4.5-21.6-.2-.2-2 .7-3.9 2M501 697.7c0 .4 1 5.7 2.2 11.6l2.2 10.8 3.6-.6c5.3-.9 19-4.9 19-5.5 0-.4-24.2-15.9-26.2-16.8-.5-.2-.8 0-.8.5M780.5 699.2c-.2 1.3-1.4 6.3-2.5 11.1-1.1 4.9-2 9-2 9.3 0 .2 3.4.4 7.5.4 7.3 0 7.8-.1 13-4.1 3-2.3 5.5-4.4 5.5-4.7 0-.9-19.1-14.2-20.4-14.2-.3 0-.8 1-1.1 2.2M565.5 708.4l-13 3.2-.3 4.2-.3 4.3 9.8-.3 9.8-.3 3.8-7.3c2.1-3.9 3.7-7.1 3.5-7.1-.2.1-6.1 1.6-13.3 3.3M583.6 706.1c.4.8 3.3 4.2 6.3 7.6 5.3 6 5.8 6.3 10.1 6.3 4 0 4.7-.4 6.8-3.5 1.2-1.9 2.2-3.9 2.2-4.4s-5.1-2.1-11.2-3.6c-6.2-1.4-12.1-2.9-13.2-3.2-1.4-.4-1.6-.2-1 .8M682.6 708c-10.9 2.9-13.7 4.2-11.7 5.4.6.4 1.1 1.2 1.1 1.7 0 .6-.5.7-1.2.3s-.8-.3-.4.5c.4.6 1.1.9 1.6.6.4-.3 1 .4 1.3 1.5.4 1.7 1.4 2 5.5 2 4.6 0 5.1-.3 9.7-5.2 2.6-2.9 5.7-6.3 6.8-7.6 2-2.1 2-2.2.1-2.1-1 0-6.8 1.3-12.8 2.9M701 705.7c0 .3 1.6 3.6 3.6 7.4l3.7 7 9.6-.3 9.6-.3.3-4.1.3-4.1-6.3-1.2c-3.5-.7-9.6-2.1-13.5-3.1-4-1-7.3-1.6-7.3-1.3M729.6 715.1c-.3 1.7-.6 3.5-.6 4 0 1.4 11.4 1.1 12.9-.4 1.1-1 1.3-1 .7.1-.6.9 1.7 1.2 10.1 1.1h10.8l-6-2c-3.3-1.1-7.4-1.8-9.2-1.6-1.7.1-3 0-2.7-.4.5-.9-1.5-1.6-7.1-2.4-2.2-.3-5-.8-6.1-1-1.7-.4-2.3.1-2.8 2.6"/></svg>