<svg xmlns="http://www.w3.org/2000/svg" width="1706.667" height="960" viewBox="0 0 1280 720"><path d="M0 360v360h1280V0H0zM578.8 44.9c1.5 1 7 3.2 12.2 4.9 8.9 2.8 57.2 19.7 63.2 22.1 1.5.6 3.5.8 4.3.5.8-.4 1.5-.1 1.5.4 0 .6 6.9 4.6 15.4 8.8 8.5 4.3 16.9 9.1 18.8 10.7 3 2.7 3 2.8.4 1.2-7.6-4.5-24.7-13.4-28.2-14.6-2.1-.7-4.4-1.7-5.1-2.2-2.4-1.7-13.8 3.3-31.3 13.8-4.7 2.8-12 7-16.2 9.4-4.3 2.3-7.8 4.6-7.8 5s8 1.3 17.8 2c9.7.6 20.2 1.4 23.3 1.7l5.7.6 1.1-6.9c.7-3.7 1.7-10.8 2.4-15.7.7-5.4 1.7-9.1 2.5-9.4.9-.3 1 .2.3 2-.5 1.2-1.7 8.6-2.6 16.2-1.9 16.1-3.2 13.7 10.5 19.9 4.7 2.2 13.2 6.1 18.9 8.8 9.5 4.5 13.1 5.7 13.1 4.4 0-.5-19.7-26.9-28.7-38.4-7-8.9-8.8-12.1-3.8-6.6 5.7 6.2 15 17.9 18.9 23.7 1.9 2.9 5.5 7.7 8 10.6s5.3 6.6 6.3 8.3c1 1.6 2.2 2.8 2.8 2.6 1.3-.5 1.7-21.7.4-28.1-.5-2.7-.7-5.1-.4-5.4.2-.3 3.5 1.8 7.3 4.5 3.7 2.7 9.9 6.9 13.7 9.2 9.8 6 17.2 11.1 16 11.1-1-.1-22.3-13.6-30.4-19.4-2.3-1.6-4.2-2.7-4.4-2.5-.1.2-.1 7.9.1 17.1.4 16.3.4 16.8 2.5 16.8 2 0 2 .1.2 1.4-2.2 1.6-1.9 2.5 5.3 17.1 2.4 4.9 5.2 11 6.2 13.5s2.6 6.2 3.4 8.2c3 7.1.5 3.8-3-4-8.9-19.4-13.5-28-15.5-28.5-1.7-.5-2.8 1.2-7.8 11.1-3.2 6.5-8.1 15.3-11 19.7-2.8 4.4-5.1 8.5-5.1 9.1 0 .5 2.3 3 5.2 5.5 2.9 2.4 5.9 5.1 6.8 5.9 1.4 1.4 7.8 6 11.9 8.4 1.2.8 1.3-3.4.7-28.4-.5-18.6-.4-29 .2-28.6.5.3 1.1 6.8 1.2 14.3.1 7.6.5 20.8.8 29.3l.7 15.5 7.5-.2c11.8-.4 18.2-1.3 17.7-2.6-.2-.7-.8-2.3-1.2-3.5-.7-2.3-.7-2.4 1.2-.5 1.1 1 1.8 2 1.6 2.2-.1.2.1.9.5 1.5.5.6.6 4.5.2 8.6-.4 6-.7 7-1.4 5-.5-1.4-.8-4.5-.7-6.8l.2-4.4-3.8.6c-2.1.3-6.3.8-9.3 1.1-12.8 1.4-12.9 1.4-12.6 4.3.2 1.5.7 6.5 1.1 11.2.3 4.7 1.6 16.1 2.6 25.5 1.1 9.3 2.2 20.4 2.3 24.5.2 4.1.2 5.7 0 3.5-.3-2.2-1.1-8.7-1.9-14.5s-2.4-19.5-3.6-30.5c-1.1-11-2.5-20.5-3-21.1-.9-1.1-26 2.3-34.4 4.7l-4 1.1 5 4.5c2.8 2.5 7.3 6 10 7.8 2.8 1.8 6.4 4.7 8 6.4 1.7 1.7 3.5 3.1 4.1 3.1.8 0 3-6.1 9-24.9.2-.8.7-1.1 1-.8.6.6-2.6 12-5.7 20.5-1 2.9-1.9 6.1-1.9 7.1 0 1.4-.5 1.8-1.9 1.4-1-.2-3.6.4-5.7 1.5-2.2 1.1-7.3 3.1-11.4 4.5-8 2.7-17 6.5-17 7.2 0 .2 2.6 2.1 5.8 4.1 3.1 2 8.2 5.6 11.2 7.9s7.2 5.4 9.3 6.9c2.1 1.6 3.6 3 3.4 3.3-.5.4-10.7-6.6-18.7-12.7-3.4-2.6-7-4.4-7-3.5 0 .3 1.5 2.6 3.4 5.2 1.8 2.7 4.1 6.4 5.1 8.3 2.8 5.5 12.6 19.8 13.9 20.2 2.6.8 25-.8 25.3-1.7.2-.6-2.3-2.6-5.4-4.4-9.2-5.4-15.2-9.5-15.3-10.4 0-.4 2.6 1 5.8 3.1 5.4 3.6 15.5 9.2 16.7 9.2.3 0-.1-1.3-1-3-1.9-3.6-1.9-4 .1-4 .9 0 1.8.9 2.1 2 .7 2.7 2.3 2.5 2.3-.3 0-1.3.4-2.7.9-3.3.6-.5 1.5-3.9 2.1-7.6.5-3.7 1.5-7.7 2-9 .9-2 1-2 .4.7-.3 1.6-1 5.6-1.5 8.9-.6 3.2-1.7 8.7-2.5 12.3s-1.2 7.3-.9 8.4c.6 1.7.4 1.8-2.2.8-3.4-1.3-27.1-.3-29 1.2-.8.7-1.8.4-3.1-.9-2.7-2.7-23.1-7.5-28.6-6.7-2.2.4-11.1 2.9-19.6 5.7-13.9 4.6-22.1 8.4-29.8 13.6-1.5 1-5.2 3.1-8.2 4.7s-7.5 4.2-10 5.8l-4.5 2.9 9.4-.4 9.3-.3 3.2-3.8c2.1-2.5 3.9-3.7 5.7-3.7 1.5 0 2.9-.7 3.3-1.5.3-.8 1.2-1.5 2-1.5 1.3 0 2.9-3.3 3.1-6.2.1-2.2 1.4-1.5 2 1.1.5 2.6 1 2.9 2.4 2.1 1-.5 4.9-1.2 8.7-1.6l6.9-.6 6.3-6.6c3.4-3.6 6.2-6.3 6.2-5.9s-2.1 3.4-4.7 6.7c-2.5 3.3-4.3 6.3-4 6.7.4.3.7.1.7-.6 0-2 7.9-.1 15.4 3.6 2.3 1.1 3.1 1.1 3.7.2.7-1.2-2.4-10.9-5-15.8-1.4-2.5-1.4-3.1-.1-3.1.6 0 1 .7 1 1.5s1.9 5.2 4.1 9.7c2.3 4.6 4.7 9.3 5.3 10.5 1.2 2.4 2.6 3.1 2.6 1.2 0-.5.5-.7 1.2-.3.6.4 2.3-.7 4-2.7 2.8-3.4 2.9-2.2.1 3.1-1.8 3.5-1.6 4.5 1.2 6 1.4.7 2.5 1.7 2.5 2.1s1.6 2.2 3.5 4.1c2 1.8 5.3 5 7.5 7 4.3 4.3 5.4 4.6 6.9 2 .9-1.5 1-1.4 1.1.6 0 1.2.6 2.4 1.3 2.6 8.3 2.5 8.4 2.5 1.6 2.1-6-.4-6.9-.2-9 2.1l-2.3 2.4 2.5-.2c1.3-.2 2.9-.9 3.4-1.6 1.5-1.9 2.1 15 1.1 29.1-.5 6-.3 6.7.9 5.7.8-.7 1.5-1.7 1.5-2.3 0-.5.6-1.5 1.4-2.1 1.3-1 2.9-3.7 9.8-16.6 1.7-3 3.9-6.4 4.9-7.6 3-3.3 2.3-5-2.8-6.8l-4.8-1.7 4 .6c2.2.4 5 .8 6.2 1s3-.4 4-1.3c4.2-3.8 5.6-4.4 2.6-1.1-3.6 3.8-4.1 6-1.8 7.9.8.7 1.5 1.6 1.5 2.1s-1-.1-2.2-1.4l-2.3-2.2-1.2 15.3c-.6 8.4-1.9 19.6-2.8 24.9-.9 5.2-1.4 9.7-1.1 10 .2.2 1.8-1.1 3.6-2.9l3.3-3.3-3.2 4.2c-1.8 2.4-2.9 4.8-2.5 5.4.4.8 0 .9-1.4.4-2-.6-23.4 6.6-25.6 8.6-.6.5-2 .9-3.2.9-2.1 0-10.3 1.8-18.7 4.1-3.5.9-3.8 1.3-3.3 3.7.5 2 .4 2.3-.3 1.2-.8-1.2-1.4-1.1-3.5.9-3.9 3.6-10.9 14.9-10.3 16.4.3.8 2 1.7 3.8 2.1 1.8.3 3 .9 2.7 1.2-.4.3-2.4 0-4.6-.7-3.9-1.1-4.2-1.1-6.7 1.7l-2.6 2.9 2.3-3.3 2.3-3.3-6-5.5c-3.3-3-7.6-6.6-9.5-8.1s-5.2-4.4-7.3-6.6c-2.1-2.1-4.1-3.6-4.4-3.3-.4.3-.1 3 .5 5.8.6 2.9 1.8 12.7 2.8 21.8 2.1 21.8 2.3 22.4 6 22.7 1.6.1 7.6-1.3 13.4-3.1 5.8-1.9 11.4-3.6 12.5-3.9s5.1-1.5 8.9-2.6 6.6-1.8 6.3-1.4c-.8.7-23 8-34.4 11.3-4.6 1.3-8.3 2.7-8.3 3.1 0 2 16.6 20.1 20.1 22 1.4.7 2.1.4 3-1.3 1.7-3.1 7.9-11.3 7.9-10.3 0 .4-1.8 3.4-4.1 6.7-2.2 3.3-3.8 6.2-3.5 6.5.7.7-1.5 2.7-3.9 3.7-5.4 2-33.4 16.2-33.5 16.9 0 .5.9 2.3 2.1 4l2.1 3.2-2.4-2.8c-2.2-2.5-6.8-3.8-6.8-1.9 0 .4-2.4 2.6-5.2 4.7-2.9 2.2-6.6 5.2-8.3 6.7-1.6 1.6-3.3 2.8-3.6 2.8-1.4 0-1.9 3.4-.7 4.2 1.1.6 1.1.8 0 .8s-7.2-3.1-15.9-7.9c-7.2-4.1-17.6-8.1-18.6-7.3-.7.5-4.3 2-8.2 3.2-3.8 1.3-7.5 2.7-8 3.1-.6.4-4.6-1-8.9-3.1l-7.9-3.7-6.6 3.5c-3.6 1.9-7.9 4.2-9.4 5-3.4 1.7-4.4 3.7-2.7 5.7 1.4 1.7 0 2.1-1.6.5-.7-.7-2.7-.7-6.3.1-2.9.6-6.1.9-7.2.6-1-.3-2.1-.2-2.3.2-.3.4 3 1.5 7.2 2.5s8.5 2.2 9.5 2.7 2.1.8 2.5.5c.5-.3 2.6-.1 4.8.4 2.1.5 8.2 1.2 13.4 1.5s10.7.8 12.3 1.1c4.4.9 3.1-.3-1.5-1.5-9.7-2.3-15.2-3.9-13.8-4 .8 0 5 .8 9.4 1.9s9.2 1.6 10.9 1.3c2.1-.4 2.8-.3 2.3.5-.4.7-1.5 1.2-2.4 1.3-1.3 0-1.2.2.4.9 1.2.5 5.4.5 9.5 0s15.8-1.4 26.1-2c10.2-.6 20.1-1.5 22-2 1.8-.6 6-1 9.3-1 7.1-.1 5.7-1.5-2.7-2.8-4.4-.7-3.3-.8 6.4-.8 11.7.1 14.2-.4 12-2.6-1.9-1.9-1.4-3.3.6-1.6.9.9 2.3 1.3 3 1.1.6-.3 4.1-6.4 7.6-13.6 3.6-7.3 7.2-14.1 8.1-15.2.8-1.1-1.9 5-6.1 13.5s-8 15.7-8.6 15.8c-.5.2-.4 1 .3 1.8.8 1 .8 1.4 0 1.4-.6 0-1.1.6-1.1 1.4s-1.4 1.7-3 2.1c-4.4 1-28 15.4-28 17.2 0 1-.6 1.2-1.9.8-1.1-.3-4.8.3-8.3 1.5-3.5 1.1-14.4 3.7-24.3 5.6-9.9 2-18.5 4-19.2 4.6s-3.2.3-7-.7c-3.2-.9-10.3-2.8-15.8-4.2-5.5-1.3-13.2-3.7-17.2-5.3-5.1-2-7.4-2.5-8.2-1.7s-1.1.5-1.1-.9c0-1.8-5.2-7.1-15.5-15.5-1.6-1.3-4.2-3.6-5.8-5.1-1.6-1.6-3.2-2.8-3.7-2.8s-1.1-.4-1.4-.9c-.4-.5.3-.7 1.4-.4s2 .1 2-.3c0-.5-2.1-5.4-4.6-10.9-9.9-21.6-10.6-23.1-8.5-20.5 1.1 1.4 2.8 4.3 3.7 6.5 7 16.5 9.5 21.5 11.6 22.6 1 .6 1.6 1.4 1.3 1.8-.2.5.2 1.4 1 2.1 1 .8 3.9 1 9.7.6 4.6-.3 9.5-.6 11.1-.6 1.5 0 2.7-.6 2.7-1.3 0-1.2-10.4-13.3-16.5-19.3-3.4-3.2-22.4-15.9-25.4-16.9-2.5-.8-6.4-6.4-13.2-19.2-6.2-11.5-11.4-19.5-12.1-18.8-.3.3-.8-.1-1.1-1-.4-.8-.2-1.5.4-1.5 1.2 0 4.8 4 4.9 5.3 0 .5 1.3 2.7 2.9 5s5 8.2 7.6 13.2c2.7 5.3 6.5 10.7 9 13 4.1 3.8 15.3 11.5 16.8 11.5.4 0 2.6 1.3 4.9 3 3.1 2.3 4.4 2.7 5.4 1.9.8-.6 1.4-1.6 1.4-2.1 0-.6 1.4-4 3.1-7.5 3-6.3 3.1-6.7 1.6-9.7-1.9-4-12.5-15.6-14.2-15.6-.7 0-1.6-.8-2-1.7-.6-1.5-1.2-1.2-4.1 2.2-3.3 3.9-3.4 3.9-1.8.7.8-1.7 2-3.2 2.5-3.2 2.2 0 .6-3-1.8-3.6-1.6-.4-5.7-2-9.3-3.6-12.1-5.6-23.5-9.8-26.3-9.8-1.8 0-3-.6-3.3-1.8-.3-.9-1.4-3.7-2.5-6.1-2.5-5.5-1.8-6.3 1.2-1.4 2.2 3.4 2.4 3.6 2.7 1.5.2-1.2.8-2.2 1.3-2.2s.9.6.8 1.2c-.7 5.8-.1 6.4 8.4 9.7 4.5 1.8 12.4 5.1 17.5 7.3s9.5 3.8 9.8 3.5c.7-.7-8.9-14.6-16.7-24.1-1.4-1.7-2.9-4-3.3-5-1.1-3.2-9.9-16.6-10.8-16.6-.4 0-.8-.6-.8-1.3 0-1.8-3.2-4.3-6.6-5.1-1.5-.4-5.2-1.9-8.1-3.2-4.6-2.2-5.1-2.8-4.5-4.7.4-1.2.3-5.5-.3-9.4l-1-7.3-3.2 3.1c-1.8 1.6-3.4 3.8-3.4 4.7-.2 3.1.3 5.7 1.3 7 .8.9.7 1.1-.5.6-1.4-.5-1.6.1-1.3 4 .2 2.6.7 5 1.1 5.4s.5-.8.2-2.6c-.4-2-.3-3.1.3-2.7.5.3 1.2 2.1 1.6 4 .3 2 1 3.8 1.5 4.1 1.2.7 1.2 2.4 0 2.4-.5 0-1.3-.9-1.6-2-1.2-3.7-2.5-2.1-1.9 2.2.4 2.4.4 4 0 3.6-.4-.3-.9-2.3-1.1-4.5-.1-2.1-.6-4.6-1-5.6-.4-.9-.5-2.8-.3-4.2.3-1.3.1-2.6-.4-2.7-1-.4-3.1-12.5-2.3-13.8.3-.4.1-1-.4-1.2-1.4-.4-2.5-26.3-1.5-33.4l.8-5.9.7 4c.4 2.2.5-1 .3-7-.1-6.1-.1-10 .2-8.7s1.2 2.6 2 2.9 1.4 1.7 1.4 3.2c0 1.4 1.2 8 2.6 14.6 1.5 6.6 2.7 12.7 2.9 13.5.9 5.7 1.9 9.2 2.9 9.6 3.3 1.2 24.8 3.9 25.2 3.2.3-.4-.3-1.1-1.3-1.5s-2.7-1.5-3.8-2.6c-1.1-1-4.1-3.1-6.8-4.7-2.6-1.7-5.2-4.1-5.7-5.5-.5-1.3-1.8-3-3-3.7-1.1-.7-2-2.2-2-3.3 0-3.4-3.1-15.8-4.9-19.5-1-1.9-1.7-4.9-1.6-6.5.1-1.7-.2-3.5-.7-4.2s-.8-2-.5-3c.4-1.4.5-1.3.6.4 0 1.3.6 2.3 1.1 2.3.6 0 1 .9 1 2s.4 2 .9 2c.4 0 3.8-3.2 7.5-7 6.5-6.9 6.6-7.1 5.2-9.8-.7-1.5-1.6-3.8-2-5.2-.7-2.4-.6-2.4.9.2.9 1.6 2 2.8 2.4 2.8.5 0 1.6-2.6 2.4-5.8l1.5-5.7.1 4.7c.1 2.5.6 4.8 1.3 5 .6.2 4.1-.6 7.7-1.8 3.6-1.1 7.6-2 8.9-1.7 3.2.5 2.8-.8-1.9-6.1-5.6-6.3-4.5-6.8 1.6-.6 4.8 4.8 4.8 4.9 9.9 4.3 5.5-.7 7.6-2.4 7.3-6.1-.2-2.9-.9-3.3-15.5-8.4q-11.7-4.05-17.4-4.2c-5.2-.1-5.5-.2-3.3-1.3 1.3-.7 2.6-2.1 2.9-3 1-3.1 2.6-15.6 2.6-20.2 0-4.4 0-4.4-2-2.6-1.1 1-2.3 1.5-2.7 1.2-.3-.4.8-2 2.7-3.7 2.1-1.8 3-3.5 2.7-4.5-.8-1.8-.5-3.1.6-2.7.4.1.8-2.2.8-5 .1-2.9.5-9.6.9-14.8l.7-9.5.3 10c.2 5.5.3 10.8.2 11.7-.2 2.3 1.4 2.3 2.1 0 .3-.9 2.4-4.9 4.6-8.9 5.1-9.1 4.9-11.9-1.4-15.2l-4.3-2.3-3.8 3.9c-2.2 2.1-2.7 2.5-1.3.8 1.5-1.6 2.9-4.6 3.3-6.5.6-3.7 5.3-16.6 8.6-23.5 1-2.2 2.9-7 4.1-10.8 1.3-3.9 2.7-6.3 3.2-5.8s.2 2.1-.7 4c-.9 1.7-2.8 6.3-4.2 10.3-1.5 4-3 7.8-3.5 8.4-.5.7-2 4.8-3.3 9.3-2.6 9-2.8 8.4 4.7 12.5l4.7 2.7v-2.8c0-1.5.8-9.6 1.7-17.8.9-8.3 1.7-19.2 1.9-24.3.3-8.6.2-9.2-1.4-8.3-2.1 1.1-16.1 15.1-17.3 17.3-.4.7-.4 4.5.1 8.3.5 3.9.9 8.6.9 10.5 0 5.8-1.6.5-2.4-8.3-.4-4.2-1.1-7.7-1.6-7.7s-.4-1.1.1-2.5.7-3.3.3-4.2c-.5-1.6-.4-1.5.9.1 1.4 1.8 1.9 1.5 9.9-6.9 4.6-4.8 8.9-9.3 9.5-9.9 1.9-1.9-.3-4.8-7.9-10.4-4-2.9-9-6.6-11.1-8.3-4.9-3.7-6.3-2.7-4.7 3.3.6 2.4 1.3 6.3 1.6 8.8 1.5 16.3 1.7 19.4 1.3 19-.3-.3-1.3-6.4-2.2-13.5-.9-7.2-2-14.1-2.3-15.5-.6-2.3-.7-2.2-1.9 1.5-.7 2.2-1.3 5.3-1.3 6.9-.1 1.6-.4 2.6-.8 2.3-.3-.4.2-5.2 1.2-10.8 1.5-8 2.3-10.4 4.2-11.9 1.3-1 2.3-2.4 2.3-3.1 0-1 .2-1.1.8-.2 1 1.6 6.8-1.2 17.7-8.6 11.2-7.7 13.2-9.7 16.5-17.8 4.5-10.9 8.9-23.3 8.2-23.3-.3 0-1.9 1.2-3.4 2.7S472 88 472 87.4c0-1 5.4-6.4 6.7-6.6.4-.1 1.4-.8 2.1-1.5 1.5-1.5 4.3-1.8 3.9-.4-.2.9 8.4 10.3 18.6 20l6.7 6.4 28.4-28.9c15.7-15.9 28.7-28.6 29-28.3.3.2-7.6 8.8-17.5 18.9-20 20.5-30.2 31.2-33.7 35.4l-2.4 2.8 35.7-.5c23.2-.4 36.1-.9 36.8-1.6.6-.6 3-1.1 5.4-1.1 2.8 0 4.3-.4 4.3-1.3 0-.6-1.8-5-4-9.5-2.3-4.6-5.2-11.2-6.5-14.7s-3.7-9-5.4-12.2-3.1-6.2-3.1-6.7c0-.4-1-3-2.2-5.7-1.5-3.2-2.9-4.9-4-4.9-1.8 0-2.4-2-1.1-3.3 1.3-1.4 6.5-.7 9.1 1.2m352.6 75.2 7.5 7 6.8-1.5c3.8-.9 12-2.7 18.4-4.1l11.6-2.5 12.9 7.6c18.2 10.8 22.5 13.6 22 14.1-.3.3-1.7-.4-3.3-1.4-3.6-2.6-20.6-12.9-23.6-14.3-1.2-.7 5.5 6.3 14.8 15.4 12.5 12.1 17.8 16.6 20 17 13.5 2.2 14.3 2.4 6.2 1.9l-7.7-.6 1.3 2.9c3.3 7.7 18 35.4 18.7 35.4.4 0 1.2-2.1 1.8-4.8.9-4.3 1-4.1.5 2.5-.5 6.2-.3 7.5 1.6 10.1 1.1 1.7 2.1 3.3 2.1 3.6 0 .4 2.6 5 5.8 10.4 3.3 5.3 8.5 14.3 11.7 20 3.2 5.6 6 10.1 6.2 9.8.2-.2-.1-2.5-.8-5-.6-2.6-.9-4.9-.7-5.1.7-.8 3 10.3 2.4 11.4-.4.5-.1 1.3.6 1.7s1 .4.6-.1c-.4-.4-.3-1.4.2-2 2.5-3 2.2-9.9-.9-19.5-2.6-8.3-2.8-9.2-1-7 1.4 1.8 1.8 1.9 1.1.5-1.4-2.8-4.5-17.5-3.9-18.1.2-.3.8 1.2 1.1 3.3.4 2.1 1.1 4.9 1.6 6.3 2.9 8.4 11.1 40.3 11 43.2-.1.7-1.3-2.5-2.9-7.2-2.9-9-3.4-9-4.6 0-.6 4.4-.5 4.7 3.2 7.3 2.1 1.5 3.3 2.7 2.8 2.7-.6 0-1.9-.7-2.9-1.5-3-2.3-3.4-1.9-2.8 3 .3 3 .1 4.5-.7 4.5-.7 0-1.1-1.9-1.1-4.8 0-5.7-2.3-10.5-17.9-37.2-10.6-18.1-12.9-21.5-11.7-17 .8 2.9 6.5 34.5 7.3 40.8.3 2.3 1 4.5 1.4 4.8.5.3.9 1.4.9 2.5s.8 3.1 1.7 4.6c1 1.4 1.8 3.1 1.9 3.7.3 1.6 2.4 9.9 4.5 18 1 3.9 1.7 7.2 1.5 7.4-.3.2-1.8-3.8-3.5-9-1.7-5.1-4.1-12.2-5.3-15.8l-2.3-6.5-.8 6c-1.4 9.4-1.4 17.5-.1 23.5.7 3 1.8 8.1 2.4 11.2.6 3.2 1.5 5.8 2 5.8.9 0 7-9.5 7-11 0-.5-2.2-3.2-5-6.1-2.7-2.9-5-5.4-5-5.7 0-.7 12.4 11 14.5 13.8 1.1 1.4 3 3.7 4.2 5l2.3 2.3-.1-16.3c0-8.9.3-16.5.6-16.8s.5 7.1.5 16.4.3 18.7.5 20.9l.5 4-1.9-4c-1.1-2.2-3.4-5.6-5-7.5l-3-3.5-.2 3.5c-.1 3.5-.1 3.5-.8.6-.3-1.7-.9-3-1.3-3-.4-.1-2.1 2.1-3.9 4.8l-3.1 5 2.4 1.8c5.4 4.3 7.8 5.9 7.8 5.1 0-.4.7.3 1.6 1.5 1.9 2.8 3.6 2.4 4.5-.9.7-2.3.7-2.3.8.5.1 1.6-.3 4.3-.9 6-.5 1.7-1.4 4.9-2 7.1l-1 4 .5-4.5c.2-2.5.7-5.2 1-6 .3-.9-.4-2.1-1.5-2.8-1.9-1.2-2.3-.8-5.1 5.5-1.7 3.7-3.6 7.8-4.2 9.1-1.3 2.8.4 4.4 4.3 4 2-.2 2.6-1 3.1-3.8.4-1.9.7-2.8.9-2 .1.8.2 1.9.1 2.3-.3 1.5 1.5.4 5.9-3.6 4.5-4.2 4.5-4 2.4-15.7-.4-2.2-.3-2.3.5-.5.5 1.1 1 3.3 1.2 5 .1 1.6.7-.6 1.4-5l1.3-8-.1 8.8c-.1 4.8-.1 8.7.1 8.7.9 0 2.5-6.6 3.2-13l.9-7.5-.4 7.5c-.2 4.1-.7 8.8-1 10.5-.6 2.9-.6 2.9.9 1.1.9-1.1 1.6-1.5 1.6-.9s-.8 2.1-1.9 3.4c-1 1.3-1.9 2.7-1.9 3.2 0 .4-1.1 3.3-2.3 6.5-1.6 4.1-2.3 8.7-2.7 16.5-.5 11.9-.4 12.4 7.6 30.2 2.4 5.5 4.6 10.9 4.7 12s.3 2.4.4 2.8c0 .5.5.5 1.1.2.5-.3.7 0 .5.7-.3.8.6 4.5 2 8.3 1.5 3.9 3.1 8.3 3.7 10 .7 1.6 2 4.3 3 6 1 1.6 1.8 3.9 1.8 5 0 2.1 2.7 9.5 4.8 13.2 1.1 2 5.2 3.3 5.2 1.8 0-.3-3.1-6.7-6.9-14.3-3.8-7.5-7.2-14.8-7.5-16.2s3.2 5.1 7.9 14.5c6.8 13.5 8.4 17.6 8 20-.3 1.6-1 3.4-1.7 4-.8.7-.9.5-.3-1 1.3-3.6 1.1-5-1-5-1.6 0-2.1.8-2.5 4l-.5 4-.9-3.5-.9-3.5-.7 4c-.9 5.6-3.6 11.5-5.2 11.4-.7 0-2.2-.4-3.3-.9-1.7-.7-1.5-.9 1.1-.9 2.8-.1 3.4-.7 4.8-4.1.9-2.2 1.6-4.9 1.6-6 0-1.7-.6-1.5-5.9 1.8-6.5 4.1-13.5 8.4-19.6 12-3.1 1.8-3.4 1.9-1.5.4 1.4-1.2 2.3-2.3 2-2.5-.6-.6-13.1 1.7-15.1 2.7-.8.4-.5 0 .5-.8 1.1-.9 2.5-1.6 3.2-1.6 3.4 0 11.3-2.3 10.8-3.1-.3-.5-2.9-2.1-5.7-3.5-2.9-1.5-5.9-3.2-6.7-3.9s-2.5-1.6-3.7-1.9l-2.1-.7 2 5.6c1.1 3.1 1.7 5.9 1.4 6.2-.3.4-.6.1-.6-.6 0-.6-.9-3.1-2.1-5.4s-2.3-6.9-2.5-10.1c-.2-3.3-.5-6.1-.7-6.3-.5-.4-6 22.4-7.8 32-1.2 6.3-1.1 7.4 1.5 18 1.5 6.1 3.5 13.7 4.5 16.7l1.8 5.5.6-7.5c.4-4.1.8-14.8.9-23.7.3-16.1.3-16.2 2.3-14.4 3.9 3.6 8.7 5.5 10.7 4.2 1.1-.7 1.8-.7 1.8-.1 0 .5-.4 1-1 1-1.6 0-2.3 6.7-1.2 12.2 2 9.7 4.3 18.3 5.4 19.3.7.7.8-.1.3-2.5-.4-1.9-.8-5.8-.9-8.7-.2-5.6-1.6-8.6-1.7-3.7 0 2.5-.2 2.6-.9.9-1.2-2.7-1.2-10.7 0-12.5.5-.8 1-1.3 1.1-1 0 .3 1.2 4.8 2.5 10 4 15.3 4.6 19.2 2.9 20.9-1.2 1.2-1.7 1.1-3.3-.9l-1.9-2.3-7.6 6.4c-4.3 3.5-7.7 6.7-7.7 7.1s2.3 1.8 5.2 3.2c6.2 3 6.9 2.6 11.3-5.9 1.6-3 3.1-5.3 3.3-5.1.7.7-4.8 10.5-7.7 13.9-2.7 3-2.9 3.7-2.1 7.3.5 2.1 1 5.2 1 6.9 0 4.4-1.8 1.2-2.6-4.7-.5-3.4-1.1-4.6-2.3-4.6-.9.1-2.7-.2-3.9-.6-2.2-.7-2.3-.6-1.7 1.6.4 1.2.9 3.1 1.2 4.1.5 1.8.6 1.8 2.4.1 1-.9 1.9-1.2 1.9-.7 0 .6-.7 1.3-1.5 1.7-.8.3-1.5 1.2-1.5 2.1 0 2.5-1.7 1.7-2.4-1.3-.4-1.5-1.2-4-1.8-5.5l-1.1-2.8-3.3 3.2c-5.4 5.2-5.3 5.3 8.4 9.7 3.5 1.2 7 1.8 7.8 1.5 1-.4 1.2 0 .8 1.1-.7 1.9-.8 1.9-3.4.6-1.1-.5-2.9-1.4-4-2-1.6-.8-2.5-.2-6 4.7-2.2 3.1-4 5.3-4 4.9s1.4-2.8 3.2-5.2c3.7-5.1 3.3-5.9-3.4-6.9-4.8-.7-4.8-.7-4.9 2.1l-.1 2.9-.7-2.8-.6-2.8-9.4 8.1c-5.2 4.4-9.9 8-10.5 8s.2-1.1 1.9-2.3c1.6-1.2 5.3-4.2 8-6.7 2.8-2.5 6.3-5.5 7.9-6.8 1.6-1.2 2.7-2.4 2.5-2.5-7-5.2-18.2-11.8-19.4-11.3-1.6.6-1.8-.5-.8-4.2.3-1.4.9-1.9 1.3-1.3.3.7 3.3-2.7 6.9-7.9 3.5-5 6.5-8.9 6.7-8.7.3.2-2.3 4.4-5.6 9.2-3.3 4.9-5.8 9.1-5.5 9.3.3.3 4.4 0 9.2-.7 17.8-2.4 17.1-2 12.3-7.4-1.6-1.9-3-3.8-3-4.2 0-.8-6.1-8.8-7.1-9.3-.4-.2-4.6-3-9.5-6.2-4.9-3.3-9.5-6-10.1-6-.8 0-1.3-1.3-1.2-3.3 0-2.3.2-2.7.8-1.4.5 1.5 2.1 0 7.9-7.8 7.8-10.3 9.4-13.2 8.5-16.3-.2-1.1.1-2.3.7-2.7.9-.5 1-.1.5 1.6-1.9 6.2 2.2-1.2 10.5-19.1 6-12.9 8.7-19.6 8-20-1.8-1.1-12-3.4-12.5-2.8-.3.3-1.2 5.6-2 11.9-1.3 10.7-1.4 10.9-1.1 3.5l.3-7.9-1.9 3.4c-1.4 2.5-1.7 2.8-1.2.9.4-1.4 1.5-4.1 2.5-6 3.4-6.2 3.1-6.4-6.1-4-1.4.4-2.7 1.6-3.1 3.1-.4 1.3-.8 1.9-.8 1.4-.1-.6-.9.1-1.7 1.5-1 1.7-1.3 1.8-.8.5 2.1-6.1 2.1-6-6.7-7.9-6.7-1.4-8.3-1.5-9-.4-.7 1-.9.9-.9-.5 0-.9-.6-1.7-1.4-1.7-.7 0-5.8-1.4-11.2-3-6.3-2-12.3-3.1-16.4-3.2-5-.1-5.9-.3-4-1l2.5-.9-2.5-1.9c-4-3.1-38-23.3-38.4-22.9-.5.5 6.8 30.2 7.8 31.7.3.5 1.8.8 3.3.6l2.8-.4-2.7 1.1c-1.8.7-2.8 1.8-2.9 3.2 0 2.1-.1 2.1-.8.2-.8-1.9-1.7-2-22.7-1.9l-21.9.2 21.2-.7c11.7-.4 21.5-.9 21.8-1.2.3-.4.1-2.4-.4-4.5-1.1-4.3-5.8-23.6-6.6-27.2-.4-1.4-1.3-2.2-2.6-2.2-1.1 0-12.3 2-24.7 4.5-23.7 4.6-40.7 7.6-43.2 7.4-2.4-.2 5.1-1.8 25-5.4 33.1-5.9 42-7.8 42-8.6 0-.5-.4-.9-.8-.9s-5-2.6-10.2-5.7-16-9.4-24-14l-14.4-8.3-3.1 2.8c-2.8 2.5-2.9 2.6-.7.1 1.2-1.4 2.2-2.9 2.2-3.4 0-.4-5.1-6-11.2-12.4-9.4-9.7-9.8-10.2-2.3-2.9 11.4 11 15.8 14.8 16.7 14.8.4 0 3 1.3 5.8 3 2.8 1.6 5.7 3 6.5 3s1.5.3 1.5.8c0 .4.9 1.2 2 1.7 1 .6 5.2 3 9.2 5.5 4 2.4 7.6 4.3 8.1 4.2.4-.1.7.3.7.9s.7.8 1.7.5c1-.4 1.4-.4 1 0s.1 1.3 1.1 2c2.1 1.7 3.6 1.8 2.6.2-.4-.7-.3-.8.5-.4.6.4.9 1.1.7 1.4-.2.4 1.4 1.8 3.6 3.1l4.1 2.3-.8-14.8c-.4-8.2-1-16.9-1.4-19.3l-.6-4.5-11.8-4.5c-6.5-2.4-11.6-4.5-11.4-4.7.1-.2 5.4 1.5 11.7 3.7 6.3 2.1 11.6 3.9 11.7 3.9.5 0 1.5-10 2.8-28.5.8-11.6 2.1-29.6 2.9-40 1.3-16.6 2.1-31.6 1.7-33.7-.1-.6-14.1 8.6-52.1 34.4-21.7 14.6-24 16.2-24 15.6 0-.4 7.5-5.7 46.5-32.3C938 227.7 939 227 939 226.1c0-.4-2.8-1.2-6.2-1.8-3.5-.7-18.2-3.7-32.8-6.8-49.5-10.5-54.9-11.5-55.7-11.3-.5.2-2.5-1.5-4.4-3.7l-3.4-3.9 3.2 2.2c1.7 1.2 3.3 2.2 3.6 2.2s2.7-3 5.3-6.8c2.7-3.7 5.2-7.2 5.6-7.7.5-.6 2.2-3 3.8-5.5s4.7-7.1 6.9-10.4c2.3-3.2 4.1-6.2 4.1-6.6 0-.5.4-1 .9-1.2.6-.2 3.5-4 6.5-8.6l5.5-8.2h-3.2c-9.5-.1-37.3-1.3-37.6-1.6-.2-.2 8.1-.4 18.5-.4s19.5-.4 20.2-.9c1-.6-2.9-4.5-14.2-14.1-8.6-7.3-15.6-13.4-15.6-13.7 0-.4 4.5 3.1 26.7 21l8.5 6.9 22.7-7.7c12.4-4.3 23.9-8.4 25.6-9.3l3-1.5-9.5-9c-5.2-5-8.1-8.1-6.4-6.9 1.8 1.2 6.6 5.4 10.8 9.3M1016 132c3 3.1 10.3 10.1 16.2 15.8 5.9 5.6 10.3 10.2 9.8 10.2s-.7.7-.3 1.6c.5 1.3.7 1.3 1.4.2.8-1.2 1.3-.4 1 1.5-.1.5.2.6.7.3.9-.5 3.8 2.2 5.7 5.4.6.9-.1.3-1.5-1.2-1.4-1.6-2.8-2.8-3.2-2.8-.8 0 3.7 13.3 7.7 22.9 1.4 3.5 2.4 6.5 2.2 6.8-.3.2-1.3-1.9-2.3-4.6-2.6-7.2-3.1-5.4-.6 2.1 1.1 3.5 3.9 13.3 6.1 21.8s4.5 17.1 5.1 19c1.1 3.8 1.3 6.7.4 5.7-.3-.3-2.8-9.2-5.5-19.8-2.7-10.7-6-22.7-7.4-26.9-1.3-4.1-3.6-11.6-5.1-16.5-1.5-5-2.9-8.6-3-8-.2.5-.8 3.5-1.3 6.5-.8 5.2-.9 5.3-1 1.5 0-2.2.3-5.4.8-7.2 1.1-3.8-.1-5.3-4.3-5.4l-3.1-.1 2.9-.7c2.8-.6 2-1.2-11.2-9.4-7.8-4.9-14.2-9.1-14.2-9.4 0-.6 6.6 3.2 17.9 10.4 4.7 2.9 9 5.3 9.5 5.3.6 0-.7-1.7-2.8-3.8-2.1-2-4.2-3.7-4.5-3.7-1 0-5.6-4.9-5.4-5.7.2-.4-.5-1.2-1.5-1.7-1.5-.8-24.3-23.4-26.2-25.9-.9-1.2 11.3 10.1 17 15.8m-631.5 3.5c-.5.3-8 1.6-16.5 3s-15.6 2.8-15.8 3c-.4.4 9 4.7 22.3 10.1 6.1 2.4 11.8 4.9 12.8 5.5 2.1 1.1 2 1.2 11.8-6.6 4.2-3.3 8.9-6.9 10.5-8 1.5-1.1 4.2-3.1 5.8-4.5 1.7-1.4 2.5-1.7 1.7-.8-.7 1-5.4 4.9-10.5 8.8-5 3.8-10.4 8.1-12.1 9.5l-3 2.5 3.5.1c2.6.1 2.9.3 1 .6-5.1.8-5.2 1-2.7 5 3.9 6.3 8.9 15.9 7.2 13.8-.9-1.1-3.4-5-5.6-8.7-4.7-7.9-5.4-8.6-7-5.7-.6 1.2-9.1 13.2-18.8 26.6-31.6 43.8-30.6 42.4-27.4 41.4 5.1-1.6 18.4-4.4 18.8-3.9.2.2-2.8 1.2-6.8 2.1-13.5 3.3-15.7 4-15.7 4.6 0 .3 1.4 1.5 3 2.6s3 2.4 3 2.9-1 0-2.3-1.2-2.6-2.2-3-2.2c-1 0-.8 12.3.8 45.5.8 16.5 1.4 33.8 1.3 38.5-.1 8.8-.2 6.6-2.8-47.5-.6-13.8-1.4-27.5-1.8-30.4l-.7-5.5-3.7 8c-2 4.3-8.1 17.1-13.6 28.4-13.3 27.6-17.6 37-17.1 37.3 2.5 1.9 29.2 17.3 34.8 20.2 2.8 1.4 3.5 1.4 4.2.3.7-1 .9-.9.9.4 0 2.2 1 2.2 5.7.3 2-.8 3.8-1.3 4-1.1s-1.6 1.2-4.1 2.1c-2.5 1-4.8 2.5-5 3.4-.3.9-1.2 7.9-2.1 15.6-2.2 19.9-2.2 19.5-1.7 19.5.3 0 5.3-2.9 11.1-6.3 9-5.4 27.1-15.6 34.9-19.6 1.2-.6 2.2-.8 2.2-.3 0 .6-.8 1.2-1.8 1.4-2.7.8-45.2 25.9-45.2 26.8 0 .4 4.1 1.5 9 2.5 5 1 8.9 2 8.6 2.2-.4.5-15-2.2-17.8-3.2-2.3-.9-3.4.9-5.2 9-1 4.4-2.3 8.7-2.8 9.5-.7 1.2-.8 1.1-.4-.5.3-1.1 1.2-5.1 2.1-8.8 1-3.8 1.4-7.1 1.1-7.4-.4-.4-8.2 4.5-17.5 10.8-9.4 6.2-16.7 11.6-16.5 11.9.3.3 2.2 1 4.2 1.7l3.7 1.2-3.5-.6c-1.9-.4-4.7-.7-6.2-.8-1.6 0-2.8-.4-2.8-.9 0-1.4-13.4-13.6-14-12.8-1.2 1.3-6.2 17.3-5.7 17.9.3.3 4.1-.7 8.4-2.1 11.4-3.8 11.3-3.1-.2 1.3-9.7 3.7-12.6 4.1-10.7 1.8.9-1.2 5.3-16 4.8-16.4-.1-.1-3.4 4.1-7.4 9.3-4 5.3-7.2 9.2-7.2 8.7s3.3-5.4 7.4-10.9c4.1-5.4 7.3-10 7.2-10.1-.6-.7-14.1 2.9-14.8 3.9-.4.7-.8 4.2-.9 7.8-.2 6.4-.2 6.4-.8 1.8-.9-6-1.6-6.7-3.5-3.1-.8 1.5-1.5 2.3-1.6 1.8 0-.6.9-2.4 2-4 3.2-4.9 1.8-8.9-1.8-5.3-.9.9-1.2.7-1.2-1 0-1.2-.4-2.2-1-2.2s-1 3.1-1 7.4c0 4.1-.3 8.3-.6 9.3-.4 1.3 0 1.1 1.5-.7 2.5-3 2.8-1.5.4 1.9-1.5 2.3-1.5 2.5.2 3.7 2.8 2.1 5.4 1.7 6.5-.9l.9-2.2v2.2c.1 1.5.7 2.3 1.9 2.4 1.3 0 1.4.2.2.6-.8.3-1.8 1.1-2.2 1.6-.4.7-1.1.7-2 .1-.7-.6-2.6-1.6-4.2-2.2-2.7-1.2-2.8-1.2-2.4 1.3.3 1.4.1 2.5-.3 2.5-1.1 0-1.1.1-1.4-13.5-.2-11.4-1.1-17.5-2.4-17.5-1.2 0-5 13.8-6.6 23.7-.6 4-.5 4.1 1.7 3.7l2.3-.5-2.2 1c-2.6 1.2-2.9 4-.9 7.9 1.7 3.4 7.6 20.9 7.5 22.5 0 1.3-1.4-2-5.4-13.6-1.5-4.3-2.9-7.6-3.1-7.4s.2 3.7 1 7.8 2.4 14.1 3.6 22.4c1.2 8.2 2.6 16.1 3 17.5.5 1.4.9 4.1.9 6 .1 1.9.5 5.1 1 7 .8 3.3.9 3.1 1.1-2.5.3-6.6 1.7-14.1 1.8-9.5.1 1.4-.3 5.9-.8 10-.4 4.1-.7 7.6-.6 7.8.2.1 2-1.1 4.2-2.6 8.2-5.9 7.6-4.9-1.6 2.6l-2.4 2 3.3 6.3c1.9 3.5 4.7 8.2 6.2 10.3 1.6 2.2 2.9 4.3 2.9 4.7s-1.3 1.4-2.8 2.2c-3.9 1.9-14.2 9.6-14.2 10.6s11.6 12.1 15.8 15c1.8 1.3 3.1 2.6 2.8 2.9-.3.2-3.1-1.7-6.2-4.4-3-2.7-7.1-6.2-8.9-7.7l-3.4-2.8 1 3.7c.6 2 .8 3.8.5 4.1-.2.3-1-1.5-1.6-3.8-.7-2.4-1.4-4.7-1.6-5.1-.8-1.3-7.5 2.5-6.9 4 .3.8 0 1-.8.5-.6-.4-2.1-.6-3.2-.4-1.8.2-1.8.1-.4-1.1 1.5-1.2 4.9-9.7 4.9-12.1 0-.5-1.3-.7-3-.5-2 .3-3 0-3-.8 0-.7-1.2-2.2-2.7-3.3-1.8-1.3-2.3-2.1-1.3-2.1.8 0 3.2-.5 5.4-1.1l3.9-1.1-6.4-6.4c-6.6-6.7-8.4-7.6-9.3-4.7-.3 1-.3 0 0-2.2s1.7-7.8 3-12.4 2.7-10.1 3-12.2c.6-3.4.4-4-1.8-4.8-1.3-.5-3.3-2.2-4.3-3.8l-1.8-2.8 3.1 2.9c2.8 2.6 3.4 2.8 5.8 1.7 1.5-.6 2.9-1 3.1-.7.2.2-.4.7-1.4 1-1.5.5-1.8 1.7-1.9 7.4 0 4-.8 8.7-1.8 11.3-1 2.4-1.3 3.9-.8 3.4.5-.6 2.6-5.3 4.7-10.5s4.2-9.9 4.6-10.5c1.5-1.5 1-3.8-.5-3.2-1 .4-1.3.1-1-.8.6-1.5-2.5-2.4-10.4-2.9-2.8-.2-5.5-.7-6.1-1-.5-.4-1.2-.2-1.6.4-.3.5-1.1 1-1.7 1-.7 0-.6-.6.2-1.5 1.1-1.3.5-1.5-4.6-1.5-5.4 0-5.7.1-3.8 1.4 1.1.8 3.4 1.8 5 2.2s3.4 1 3.9 1.4c.6.4 2.1 1 3.5 1.3 1.4.4 3.1 1.6 3.8 2.8 1.3 2.1 1.3 2.1-1 .5-1.3-.9-4.1-2.1-6.3-2.7-5.9-1.6-16.7-7.1-17.3-8.9-.3-.8-1.1-2.2-1.9-3.2-1-1.1-1.1-1.8-.3-2.3.5-.3.7-1.1.4-1.7-.4-.7-.9-.6-1.4.3-.6.8-1.1 0-1.5-2.3-.6-3.2.7-6.3 11.8-28.9 6.9-14 14.4-29.9 16.7-35.4 2.2-5.5 4.5-10.8 5.1-11.8 1.2-2.2 1.1-28.9-.2-34.5-.4-2.1-.5-12.1 0-22.2.6-13.8.9-16.2 1-9.5.2 5.3.6 8 1 6.6s1.2-2.6 1.9-2.9c1.6-.5 1.5.8-.2 3.1-.8 1-1.2 2.8-1 4 .4 2.1.4 2.1-.5.2-.9-1.8-1-1.7-1 .8-.1 1.8.3 2.6 1 2.1.8-.4.9.1.3 1.7-2.2 6-.5 23.4 3 30.8 1.1 2.4 1.1 2.3 1.4-1.2.2-2-.4-5-1.3-6.7-2-3.8-1.3-5 1.2-2.1.9 1.2 2.8 2.1 4.1 2.1 2.1 0 2.3-.3 1.8-3.3-.3-1.7-.3-2.6 0-2 1 2.2 2.4 1.4 2.5-1.5.2-2.5.2-2.5.6-.3s.8 2.3 5.9 1.9c3-.3 5.7-.7 6-1.1.4-.3-1-3.9-3.1-7.9s-3.5-7.1-3.2-6.8c1 .9 5.7 8 5.7 8.6 0 .3 1.1 2.1 2.3 3.9 2.4 3.5 3.7 3.6 3.7.3 0-1 .5-1.8 1-1.8.6 0 .9.3.9.7-.5 2.9.3 4.3 2.4 4.3 1.2 0 4.1.9 6.4 2l4.2 1.9-4.4-8.6c-2.5-4.8-4.4-8.7-4.2-8.9.1-.1 3.4 4.7 7.2 10.7 4.6 7.1 7.5 10.7 8.4 10.4.9-.4 1.2.1.8 1.5-.3 1.1-.2 2 .3 2 .8 0 1.2-1.1 4.6-10.4 1-2.7 1.9-4.5 2.1-4 .2.6-.6 3.6-1.7 6.9-2.4 7-2.5 8.2-.5 10.1.8.9 1.5 1.3 1.5 1s1.7.1 3.8.8c2 .7 5.4 1.6 7.5 1.9 4.5.7 4.4.9 1.7-12.3-1.1-5.2-1.9-10.4-1.9-11.5.1-2.6.2-2.1 3.5 11.8 2.5 10.9 2.8 11.7 4.8 11.1 2.1-.7 16.5-8.1 24.5-12.7l4.3-2.5-2.3-1.5c-1.3-.8-8.8-5.1-16.6-9.5-7.8-4.5-15.3-8.8-16.6-9.6-1.3-.9-2.6-1.4-2.9-1.1s-.1 2.9.3 5.7c1.2 7.2.3 7.2-1.1.1-1.5-7.2-2.2-8-6.2-7.7l-3.3.3 3-.7 3-.7-5-2.6c-2.7-1.4-9.8-5.5-15.8-9-18.1-10.8-21.7-12.8-21.7-12.2 0 .3 2.6 6.4 5.7 13.5l5.7 13 10.5-.7c5.8-.3 11.4-.9 12.4-1.1.9-.3 1.7-.1 1.7.4 0 1-3.8 1.6-16.7 2.8-5.8.5-7.3 1-7.3 2.3-.1 1.4-.2 1.4-1.4-.1-.7-.9-3.3-2.2-5.8-2.7-2.5-.6-5.8-1.5-7.3-2.1-3.6-1.4-5.1-.3-2.9 2.1.9 1.1 1.5 2.1 1.2 2.4s-1.3-.6-2.2-2c-2.1-3.2-2.8-3.2-7.1.7-3.9 3.6-4.2 5.5-1.9 9.9.8 1.7 1.4 3.5 1.2 4.1s-1.2-1.1-2.2-3.8c-1.1-2.7-2.2-5.4-2.7-5.9-.4-.6-.1-3.7.6-7l1.4-6-.5 5.2c-.3 2.9-.2 5.3.3 5.3 1.1-.1 8.3-6.8 8.3-7.8 0-.4-1.2-2.5-2.6-4.6-2.5-3.7-2.8-3.8-4-2.1-1.3 1.8-1.4 1.7-1.4-.7 0-1.8 2.1-4.7 7-9.9l6.9-7.4.1-8.8c0-10.2-2.3-11.9-3.5-2.6-.5 3.5-5.6 19.2-6.7 20.4-.9 1 1.7-8.1 3.9-13.7.8-2.1 1.3-4.3 1.1-4.9-.4-1.1-7.2 14.5-9.7 22.3-.7 2.1-1.6 4-2.1 4.3-1.3.8 4.4-14.4 10.3-27.1 5.4-11.7 9.3-26 12.8-46.9.6-3.9 1.6-8 2-9.3.5-1.4.5-2.1 0-1.8-.8.6-5.1 7.9-12.1 21.1-1.5 2.7-5.1 9.4-7.9 14.7l-5.3 9.8 3.4.1 3.3.1-3.4.8c-1.8.4-3.7 1.4-4.2 2.2-.5.7-.9 5.8-.9 11.3s-.5 10.7-1.1 11.5c-.8 1.1-.9-1.7-.5-10 .7-14.9 6.2-36.2 21.3-83 7-21.6 8.3-23.8 15.8-27.7 1.7-.8 3.9-2.3 4.9-3.2 1.1-.9 1.6-1 1.2-.3s-2.5 2.4-4.6 3.7c-4.6 2.9-8.1 6.3-9.7 9.6-1.8 3.3-10.8 31.7-14.8 46.4-1.8 6.6-4.7 16.3-6.4 21.5-3.5 10.6-4 14.1-1.3 9 1-1.9 4.7-8.9 8.1-15.4 3.5-6.6 7.4-13.7 8.7-15.8s2.4-4.1 2.4-4.6.9-1.7 2-2.7 2-2.9 2-4.2c0-1.2.4-2.3.9-2.3s2.6-3.3 4.6-7.3c2.1-3.9 5.4-10.1 7.5-13.7 5.3-9.2 9-16 9-16.5 0-.2-1-.6-2.2-.8-1.9-.3-1.8-.5.6-.6 2.3-.1 5.5-2.6 14.5-11.4 13.5-13.1 11.8-11.5 16.2-15.2 1.9-1.7-3.2 3.6-11.5 11.7-8.2 8.1-14.8 14.9-14.5 15.1.5.5 28.3 9.7 29.2 9.7.4 0 .7-1.2.8-2.8 0-2.2.2-2.4.8-.8.7 1.9.8 1.9 2.2-.1 1.5-2.1 22.3-25.6 27.1-30.6l2.7-2.8-2.2-.9c-2-.8-1.9-.8.8-.8 4.3 0 12-1 23.2-3.1 8.7-1.7 17.5-2.6 14.8-1.6m380.9 161.7c-1 1.3-3.6 3.8-5.8 5.7-2.3 1.8-7.7 6.7-12.1 10.9l-8 7.6-.5 20.8c-.3 11.4-.2 20.8.2 20.8s1.5-1.1 2.5-2.5 2.6-3.6 3.6-4.8l1.8-2.2-1.2 2.5c-.7 1.4-2.3 3.9-3.6 5.6-1.2 1.7-2.3 3.8-2.3 4.7 0 1-.4 1.7-1 1.7-.5 0-1.1 1.5-1.1 3.2-.1 1.8-.5 4.6-1 6.3-.6 2.2-.7 1.5-.3-2.5l.5-5.5-7.1 7.5c-3.8 4.1-7 7-7 6.5 0-.6 3-4.2 6.5-8 7.2-7.8 8.1-9.5 6.5-12.4-.9-1.7-.8-2 .5-1.5s1.5-1.9 1.5-19.2v-19.8l-5 4.9c-2.7 2.7-5 4.6-5 4.2 0-.3 2-2.5 4.5-4.8 4.4-4 5.8-8 3.5-9.4-.5-.3-1.5-1.6-2.1-2.8l-1-2.2 1.8 2.1c4.2 4.7 5.1 4.6 12-1.9 3.5-3.3 7.4-6.7 8.6-7.6 1.2-.8 4.2-3.4 6.7-5.8 5.1-4.8 5.9-5.3 3.4-2.1m27.7 11.7c.1 1.4.2 1.4.6-.2.3-1.2 1.5-1.7 4.4-1.7 4.8 0 4.5.8-1.4 3.8-5.3 2.7-7.9 5.2-5.2 5.2.9 0 1.5.6 1.2 1.2-.2.7-1 1.2-1.6 1-.6-.1-1.1 1.2-1.1 3.3 0 3.4-3.1 10.7-5.7 13.3-2.2 2.3-3.2 4.7-3.9 10-.3 2.9-1 5.2-1.5 5.2-1.4 0-1.5-8.4-.1-11.3.7-1.6 1.2-5.4 1-9-.3-7.2 2.3-13.2 7.2-16.9 1.7-1.2 3-2.9 2.9-3.8-.2-2.6 0-3 1.6-2.4.8.4 1.6 1.4 1.6 2.3m5 61.9c-1.6 2.9-1.4 10.3.2 9.9.6-.1 1.5-.6 1.8-1 .3-.5 1 .6 1.4 2.5.7 3.1.8 2.9 2.1-3.7.8-3.9 1.6-7.5 1.9-8 .3-.8.1 7.8-.5 15.7 0 .4-.9 1.5-1.9 2.5s-2 2.7-2.2 3.7-1.2 2.3-2.1 2.7c-4.9 2.4-13.1 7.8-14 9.3-.4.6-.5 2.1-.1 3.4.3 1.2.1 2.8-.4 3.5-.6.6-1.2 2.2-1.5 3.3-1.4 5.5 5.3-.7 12-11.1 1.2-1.9 1.2-1.9.6.5-1 3.7-7.4 11.8-11.6 14.5-4.4 2.9-4.6 3-4.4.9.1-1.8-10.8-8.3-12-7.1-.5.5-.9 2.8-.9 5.2-.1 5-1.5 7.6-1.5 2.8 0-7.4 4.4-21.5 7.4-23.5.5-.3 1.4-2.1 2-3.9 1.2-3.5 3.6-5.1 3.6-2.5 0 1.8-2 5.7-3.5 6.8-.5.4.1.8 1.5.8s3.6.7 4.9 1.4c1.6.9 3.4 1.1 5.1.6 3.8-1.1 11.1-6.1 10.4-7.1-.3-.5-2.4-.9-4.7-.9-5.2 0-8-1.5-5.7-3 .8-.5 1.1-1 .7-1s-.3-.9.3-2c.6-1.2 1.1-4.3 1.2-7.1 0-3.9.3-4.8 1.3-3.9 1.9 1.5 4.2.3 6.5-3.7 2.1-3.7 4-4.1 2.1-.5M691.6 527.7c-3.6 4.3-7.2 8.2-7.9 8.8-.7.5-5.3 4.4-10.2 8.5-5 4.2-11.2 9.1-13.8 11-10.3 7.4-15.7 12.2-15.7 13.7 0 1.1-.6 1.4-2.2 1-1.2-.4-3.8.3-6.2 1.7-6.1 3.4-46 21.6-47.3 21.6-.7 0-1.8.9-2.6 2s-1.7 1.7-2 1.3c-.4-.3-1.7.2-3 1.3-1.2 1.1-3.8 3-5.7 4.4-10.7 7.5-20.9 14.4-23.7 16.2-1.8 1.1-3.3 2.4-3.3 2.8s2.5 2.2 5.5 3.9 5.5 3.4 5.5 3.7-2.5-.8-5.5-2.5c-3.1-1.8-6.1-3-6.8-2.9-.7.2-4.2-2.5-7.7-5.8-6.7-6.4-15.5-13.7-22.5-18.8-2.2-1.6-5.6-4.4-7.6-6.1-2-1.8-7.8-5.8-13-8.9-5.2-3.2-12.1-7.5-15.4-9.6-7.1-4.6-9.1-5.1-7.4-1.8.7 1.3 1.8 2.9 2.5 3.6.8.7 3.9 5.7 7.1 11 14.9 25.6 20 34.1 23 38.6 1.8 2.7 3 5.2 2.8 5.6-.2.3.7 1.9 2 3.6l2.4 2.9.1-7.4c0-4.1.2-7.2.4-7s.7 4 1 8.4c.8 10.5.8 10.5 1.8 9.9.5-.3 1.9.1 3.1.9 1.2.7 6 2.4 10.7 3.6 4.7 1.3 9.6 3 11 3.7 1.9 1.1 2 1.4.5 1-7.1-1.7-12-3-19-5.2-7.8-2.4-8.2-2.6-16.6-11.7-12.5-13.4-27.2-31.7-25.6-31.7.5 0 6.8 7.6 12.2 14.6 5.3 6.9 13.7 15.4 14.7 14.8.5-.3.3-1.3-.5-2.2-2.4-2.8-14-22-21.7-35.7-4-7.1-8.8-15-10.6-17.4-1.9-2.4-3.4-5-3.4-5.7 0-.8-.4-1.4-.8-1.4-.5 0-1.6-1.7-2.5-3.8-1.5-3.4-11.5-16-18.8-23.9-2.8-3-8.5-15-7.6-15.9.2-.2 1.8 2.3 3.5 5.6 4.1 7.7 10.6 16.7 18 24.7 1.2 1.3 2.9 3.5 3.8 4.8s2.4 2.7 3.5 3c1.1.4 1.7 1 1.5 1.4-.8 1.2.7 2.7 4.9 5 2.2 1.2 7.4 4.3 11.5 7 11.1 7.4 20.2 12.6 20.9 12.2.3-.1.5-.7.3-1.2-.1-.5.3-.9.8-.9.6 0 1 .8.8 1.7-.5 3 4.2 4.2 20 4.9l15.2.7.1-2.9c.1-2.9.1-2.9.8-.4l.7 2.5 15.4.1c12.2.1 16.1-.2 18.2-1.4 1.5-.9 2.5-1.8 2.3-2.1-.2-.4.3-1.7 1.1-3.1l1.5-2.5-.5 3.2-.5 3.2 4.1-.5c2.2-.4 7.7-2.3 12.2-4.4 7.3-3.4 11.9-5.5 29.9-13.8 5.7-2.6 6.8-3.7 4.5-4.5-.7-.2-.3-.2.9-.1 1.2.2 2.5-.1 2.8-.6.4-.6 2.6-2 5-3.1 2.3-1.1 8-5 12.6-8.7s10.3-8.1 12.5-9.7c5.9-4.3 12.4-10.3 12.4-11.5 0-.5.7-1 1.5-1s4.3-3.3 7.7-7.4c3.5-4.1 6.5-7.3 6.6-7.1.2.2-2.6 3.9-6.2 8.2M989.9 547c6.6 4.5 7.1 4.7 7.2 2.2 0-1 .3-1.2.6-.5.2.7.4 1.5.4 1.8-.3 1.7 5.8 5.5 19.3 12.1 8.5 4 15.8 7.4 16.3 7.4.4 0 1.7-1.2 2.7-2.8.9-1.5 1.5-1.9 1.2-1-.7 2.3.2 2.3 2.8.1 1.8-1.5 1.8-1.4-.1.8-2.8 3-2.9 3.9-.5 4 1.6.1 1.6.2 0 .6-2.8.7-2.2 2 3.8 8.1l5.6 5.7-.7-7c-.4-3.9-1.1-7.2-1.6-7.3-.6-.2-.5-1 .2-1.8.6-.8 1.5-2.9 2-4.7.8-3 .8-2.9.4.8-.3 2.2 0 8.6.6 14.2l1.2 10.2-3.1 4.9c-1.8 2.6-4.4 5.9-5.9 7.3-2.8 2.4-2.8 2.3.1-.8 3.7-4.1 3-5.1-.9-1.6-1.7 1.4-5 4.2-7.5 6.2s-5.6 4.6-7 5.8c-2.4 2.2-2.4 2.3-.5 3.8 1.9 1.6 1.9 1.6-1 1-3.6-.8-5.6-2.5-3.7-3.2.6-.3.9-.9.6-1.5-.4-.6.1-.8 1.2-.4 1.4.4 3.9-1.2 8.9-5.5 10.8-9.4 17.6-16.1 17.3-17-.2-.4-3.2-4.1-6.8-8l-6.4-7.2-1.3 2.9-1.3 2.9.6-3.8c.6-3.5.5-3.8-3-5.2-2-.9-9.8-4.5-17.2-8-7.4-3.6-13.9-6.5-14.4-6.5s-.2 1.2.6 2.7c2.4 4.7 1.5 5.1-1.1.4-1.4-2.3-2.5-5-2.5-5.9 0-.8-.3-1.3-.6-.9-.4.3-3-1.2-5.9-3.4-2.8-2.1-5.7-3.9-6.3-3.9-.7 0-1.2-.5-1.2-1 0-1.5.6-1.3 6.9 3m214.3 128.5c1.1 1.4 2.3 2.3 2.7 2 .9-.5 3.1 3.9 3 5.8 0 .7-.7-.2-1.4-1.8-1.7-3.7-1.9-1.6-.3 3.9 1.5 5.4 2.8 6.7 2.3 2.5-.2-1.9-.1-2.6.1-1.7 1 3.3 2 1.9 4.4-5.7 1.8-5.6 2.8-7.5 4.1-7.5 1.6 0 1.4 1-1.6 9.6-2 5.2-3.6 11.1-3.8 12.9-.2 3.1-.4 3.4-2.7 2.8-1.4-.3-2.6-.6-2.7-.7-.4-.3-8.3-23-8.3-23.8 0-1.6 2.3-.7 4.2 1.7m20.8 5.1-.8 3.6 2.2-2.1c1.7-1.6 3-2 5.4-1.5 1.7.4 3.7 1.3 4.3 2 .6.8 1.6 1.4 2.2 1.4s1.8.7 2.8 1.6c1.6 1.4 1.8 1.4 2.9-.5 1.5-2.9 6.7-5.4 9.6-4.7 3.5.9 9.9 4.9 8.5 5.4-.9.3-.7.9.5 2.3.9 1.1 1.4 2.2 1.1 2.6-.4.3-.7.1-.7-.5 0-.7-.4-1.2-1-1.2-.5 0-1 .9-1 2.1 0 1.1-.4 1.7-1 1.4-.5-.3-.7 0-.4.8s-.6 2.3-2 3.5c-3.1 2.4-3.3 3.2-.6 3.2 1.2 0 3.2-1.1 4.5-2.5 1.4-1.3 2.5-2.1 2.5-1.6 0 .4-1.1 1.8-2.4 3.1-1.9 1.7-3.1 2.1-5.3 1.6-1.5-.4-3.6-.7-4.5-.7-1 0-2.5-1-3.3-2.2s-1.5-1.7-1.5-1.2c0 .4-1-.1-2.3-1.3-1.8-1.7-2.8-2-5.2-1.3-1.7.5-2.6 1-2.1 1 .4.1-.2 1-1.5 2-3.4 2.7-1.5 3.9 2.6 1.6 4.3-2.3 5.7-1.2 2.5 1.8l-2.4 2.2 1.8-2.3c2.2-2.6 1.5-2.8-1.9-.6-1.6 1-3.4 1.4-5.1 1-1.8-.5-2.4-.3-1.8.5.9 1.5-.7.6-5.4-2.9-2.2-1.7-3.1-3-2.7-4.1.3-.8.3-1.2-.1-.9-.9 1-2.9-1.3-3.7-4-.3-1.3-.3-2.1 0-1.8.7.7 4.3-6.4 4.3-8.6 0-1 .4-1.8.9-1.8s.5 1.5.1 3.6"/><path d="M574.7 46.2c-.4 1.3 1 4.7 8.1 19.8 2.2 4.7 5.9 12.8 8.3 18 5.5 12.2 9.7 19 11.7 19 .9 0 7.9-3.5 15.6-7.9 18-10 23.6-13.1 31.4-17.1 3.4-1.8 6.2-3.6 6.2-3.9 0-.4-2.8-1.6-6.2-2.8-3.5-1.1-15.5-5.3-26.8-9.2-11.3-4-25.2-8.8-31-10.7-5.8-2-11.6-4.1-13-4.7s-2.8-1.2-3.2-1.4c-.3-.2-.8.3-1.1.9M480.2 84.4c-1.1 1.8-2.3 4.4-2.7 5.7s-2.5 6.9-4.7 12.4-4.2 11.1-4.4 12.5c-.3 1.4-.9 3.8-1.4 5.5-.8 2.5-3.8 22.2-5.3 34.2-.4 3.7.5 4.2 2.5 1.4.7-1 7.7-8.6 15.6-16.8 7.8-8.3 15.5-16.8 17.1-18.9 1.5-2.2 4.3-5.4 6-7.2 1.8-1.9 3-3.6 2.7-4-.4-.3-7.3.6-15.4 2.2-19.8 3.7-21 3.9-19.2 2.8.8-.5 3.8-1.3 6.5-1.6 2.8-.4 10.3-1.8 16.8-3.2 6.4-1.3 12-2.4 12.3-2.4s.4-.6.2-1.4c-.3-1.7-22.6-24.6-23.8-24.6-.4 0-1.7 1.5-2.8 3.4M653.5 116.7c-.3 2.7-1 7.7-1.5 11.3s-1.2 11.2-1.6 16.9l-.7 10.3 3.1-.7c4.2-.9 19.5-7.4 38.3-16.4 3.6-1.7 7.1-3.1 7.7-3.1 2.4 0 2.1-2.1-.5-3.1-1.5-.6-11.8-5.3-22.8-10.5s-20.3-9.4-20.7-9.4-.9 2.1-1.3 4.7M505.8 113.8c-.9.4-3.6 3.2-6 6.3s-7.1 8.2-10.3 11.5c-5.1 5-12.8 13.4-24.6 27-2.4 2.8-2.7 5.2-.7 6.5.5.3 1.9 1.9 3.1 3.6 3.1 4.3 13.4 17 17.6 21.8 2 2.3 6.7 7.8 10.5 12.3s7.2 8.2 7.6 8.2 1.2-9.3 1.9-20.8c.6-11.4 1.5-26.6 2-33.7.9-13.1 1.5-43.6.9-43.4-.2 0-1.1.3-2 .7M463.8 117.8c-.4 1-9 6.9-19.2 13.2-3.9 2.5-8.4 5.5-9.9 6.6-3.2 2.6-2.6 3.7 5.3 8.8 3 1.9 8.4 5.8 12 8.6 5.6 4.3 6.6 4.7 7.2 3.2.3-.9 1.8-9.4 3.3-18.7 1.4-9.4 2.9-18.2 3.2-19.8.5-2.4-1-4-1.9-1.9M687.1 142c-15 7.4-20.7 10-21.4 10-2.2 0-14.7 6.5-14.7 7.6 0 .8.3 1.4.8 1.4.4 0 2.1 1.2 3.7 2.6 1.7 1.5 4.4 3.3 6.1 4s5.2 2.9 7.6 4.8c6.9 5.2 8.9 6.1 9.9 4.5.4-.8 2.6-4.3 4.8-7.9s6.9-12.2 10.5-19.3c5.1-10.2 6.1-12.7 4.7-12.7-1 0-6.4 2.3-12 5M652.7 171.2c1.4 4.6 3.3 11.2 4.3 14.8 3.5 12.8 6.2 21 6.9 20.6.7-.5 6.4-11.6 10.2-20.1 1.3-2.8 2.5-5.3 2.7-5.7.4-.7-10.5-8.6-15.8-11.4-1.9-1.1-4.9-2.9-6.7-4.2-1.7-1.2-3.3-2.2-3.6-2.2s.6 3.7 2 8.2M460.6 168c-.8 5.5-3.5 32.5-4.2 42.5-.3 4.9-.7 9.4-.7 10-.1.5.9.9 2.3.8 5.7-.4 44.5-4.6 44.9-4.9.2-.2-1.3-2.2-3.3-4.6s-6.2-7.5-9.4-11.4c-3.1-4-10.4-13-16.2-20-5.8-7.1-11-13.5-11.7-14.3-.9-1.3-1.2-1-1.7 1.9M647.6 171.7c-.2 1-.7 11.6-1.1 23.6l-.7 21.7 4.9-1.9c9-3.6 10.3-4.4 10.3-6.4 0-2.6-4.5-18.2-8.1-28-1.6-4.3-2.9-8.5-2.9-9.3 0-2-1.8-1.7-2.4.3M675.9 186.7c-1.2 2.7-2.7 6.4-3.4 8.3-.7 2-2.2 5.1-3.4 7-2.9 4.9-2.8 7.2.4 6.5 5.8-1.2 7.5-1.5 17.8-3 6-.9 12-2 13.4-2.6 2.2-.8 2.3-1.1 1.2-2.6-.8-.8-3-2.6-4.9-3.8-1.9-1.3-6.8-5-10.7-8.4-4-3.3-7.5-6.1-7.8-6.1s-1.5 2.1-2.6 4.7M537.4 199.6c-2.7 1.4-5.6 3.1-6.4 3.8-.8.6-2.7 1.8-4.2 2.6-1.6.7-2.8 1.9-2.8 2.7 0 .7-.8 1.3-1.7 1.3-1 0-3.7 1.3-6.1 2.9l-4.3 2.9 30.4.2c25.2 0 30.4-.2 30.4-1.3 0-.8-2-2.4-4.4-3.7-2.3-1.2-4.3-2.6-4.3-3.1 0-1-13.7-9.2-15.9-9.6-.8-.1-2.5-.4-3.7-.7-1.3-.4-4.1.4-7 2M665 215.6c0 1.6-.5 4.5-1 6.4-.6 1.9-1.7 7.3-2.4 12-.8 4.7-1.7 9.3-2.1 10.2-.5 1.3-.2 1.8 1 1.8 2.1 0 21.3-6.5 27.5-9.2l4.4-2-4.4-3.9c-2.5-2.2-6.1-4.8-8-5.8-1.9-1.1-4.9-3.2-6.5-4.8-1.7-1.5-4.3-3.9-5.8-5.2l-2.7-2.4zM488.5 219.5c-20 2.2-31.6 3.8-32.1 4.6-.2.4 1.1 2.7 2.8 5.1 1.8 2.4 4.7 6.3 6.3 8.7 1.7 2.5 7.1 10 12 16.7 5 6.7 10.8 14.8 13 17.9 4.7 6.7 4.6 7 7.5-11.3 1.2-7 2.7-16.5 3.5-21.2.7-4.7 1.7-11.5 2-15.3.6-6.1.5-6.7-1.2-6.6-1 .1-7.2.7-13.8 1.4M508.9 219.1c-.5.3.2 2.7 1.7 5.2 1.4 2.6 2.3 4.7 2 4.7s.5 2.5 1.9 5.5c1.3 3 2.2 5.5 2 5.5s.6 2.1 2 4.7c4.9 9.9 10.8 23.1 13.7 30.3 3.8 9.5 10.9 24.2 11.5 23.6.2-.2.5-1 .7-1.8.1-.7 2.9-7 6.3-13.8 7.5-15.3 12.7-26.4 26.9-57.9 1.4-2.9 2.4-5.5 2.2-5.6-.6-.6-70-1-70.9-.4M584.4 222.7c.3 2.1 1.1 8.3 1.6 13.8 1.4 13.2 4.8 36.6 5.5 37.3.2.3 2.9-2 5.9-5.1 8.8-9.2 22.3-24 24.8-27.2 1.2-1.7 5.9-6.7 10.3-11.3s8.1-8.7 8.3-9.1c.3-1-21-2.1-41.2-2.1h-15.9zM504.6 233.1c-.9 6.3-2.8 17.5-4.1 24.9-4 21.9-4.4 19.8 5.5 24.7 18.6 9.1 33 15.7 33 15 0-.6-7.1-17.9-8-19.5-.5-.9-2.9-6.2-5.4-11.7-2.4-5.5-5.9-13.2-7.8-17-1.8-3.9-3.9-9-4.7-11.5-.7-2.5-2.5-7.2-4-10.4l-2.8-6zM571.5 244.2c-5.4 11.7-13.4 28.5-17.6 37.3-4.3 8.8-7.4 16.1-6.9 16.3.4.2 5.2-1.8 10.6-4.4 5.5-2.5 11.7-5.3 13.9-6.2 2.2-.8 5.1-2.3 6.5-3.2 1.4-1 4.2-2.3 6.2-2.9 3.8-1.2 5.4-3.7 4.4-6.9-.6-2-3.1-20.8-5.1-38.1-.8-6.8-1.6-12.5-1.8-12.7s-4.8 9.2-10.2 20.8M450.5 233.2c-1.3 2.9-4 8.2-6 11.6-1.9 3.5-3.5 6.7-3.5 7.2 0 .4 1.7 1.5 3.9 2.3 2.1.9 6 3 8.7 4.6 7.7 5 8.2 4.6 6.8-5.3-1.4-9.2-3.8-18.1-5.5-20.2-.6-.8-.9-2-.6-2.9.4-.8.2-1.7-.3-2-.6-.3-2.1 1.8-3.5 4.7M457.9 233.7c1.6 3 6.1 22.5 6.1 26.6 0 3.2.4 3.9 2.8 4.8 1.5.6 3.6 1.6 4.7 2.2 5.8 3.1 17.7 8.8 18 8.5.2-.2-2.1-3.7-5.1-7.8-2.9-4.1-7.1-10-9.1-13-7.1-10.4-15.5-21.5-17-22.3-1.1-.7-1.2-.5-.4 1M438.8 264.7c-.1 11.5-.1 11.4-1.1 13-1.8 2.9.6 3.2 5.1.6 2.6-1.5 4.9-3 5.2-3.3 1.2-1.3 8.7-6 9.6-6 .6 0 1.5-.5 2.2-1.2.9-.9.5-1.6-1.8-3-1.7-1-3.7-1.8-4.5-1.8s-1.5-.4-1.5-.9c0-.7-7-4.6-12.2-6.9-.5-.2-.9 4.1-1 9.5M658.7 257.6c-.2 1.4-.5 7-.6 12.5-.2 8.1 0 9.9 1.3 9.9.8 0 1.6.5 1.8 1 .4 1.2 19.8 7.3 20.6 6.5.3-.2-.8-2.1-2.4-4.1-4.4-5.5-8.5-11.3-8.4-11.9.1-1.6-.2-2.3-2.5-4.9-1.4-1.6-3.8-4.9-5.3-7.3s-3-4.3-3.3-4.3c-.4 0-.9 1.2-1.2 2.6M465.9 268.4c-.5.6 1 22.8 1.6 23.5.8.7 25.5-10.6 25.5-11.7 0-.5-2.6-1.9-5.7-3.2-3.2-1.3-9-3.8-13-5.7-7.7-3.5-7.7-3.5-8.4-2.9M457.7 272.6c-1.6.8-2.5 2-2.1 2.6.4.7.3.8-.5.4-1.1-.7-8.2 3-8.9 4.6-.2.4-1 .8-1.8.8-1.9 0-5.9 3.6-4.2 3.7.7 0 6.1 1.7 12.1 3.7 5.9 2 10.9 3.6 11.2 3.6.7 0 .5-9.4-.3-15.4-.8-5.6-1.5-6.1-5.5-4M583.8 282.6c-1.3.7-10.2 5-19.8 9.5-9.6 4.6-17.8 8.7-18.2 9.3-.6.9 1 1.7 18.7 9.1 4.4 1.8 9.4 4 11 4.9 2.8 1.5 3.1 1.5 4.6-.6 1.2-1.5 1.8-1.7 2.1-.7.4 1.3 4.7-1.1 14.8-8.1 1.4-.9 6.1-3.6 10.5-6s8.5-4.8 9.2-5.3c1.9-1.4-.7-3.4-8-6.2-3.5-1.3-8.4-3.5-10.8-4.8-4.8-2.7-10.3-3.1-14.1-1.1M481.1 288.2c-11.2 5.4-12.2 6.1-10.5 7.3 1.1.7 8.7 4.8 16.9 9 8.3 4.3 15.8 8.4 16.8 9.3 1.5 1.4 1.7 1.4 1.7 0 0-2-5-16.9-6-18.3-.5-.6-1.8-3.5-3-6.5s-2.4-5.8-2.8-6.2c-.4-.3-6.3 2.1-13.1 5.4M497.5 285.2c.4 1.8 2.7 8 5.2 13.8 8.2 19.2 7.5 18.5 13.4 15.4 1.7-.8 3.3-1.3 3.6-1 .3.2-1.3 1.4-3.6 2.6-2.3 1.1-4.1 2.6-4.1 3.4 0 .7 1.7 2.8 3.8 4.6 2 1.8 6.1 5.6 9 8.4 5 4.8 5.4 5 6.7 3.3.7-1.1 1.7-3.8 2-6 .4-2.3 1.5-6 2.4-8.2 1-2.2 2.3-5.1 2.9-6.5 1.9-4.4 1.3-.5-.9 5.6-2 5.7-4.9 17.6-4.9 20.1 0 1.4 5.7 1.8 7.6.5 1.6-1 2.9-37.2 1.4-37.2-.6 0-4.5 1.8-8.7 4-4.3 2.2-8 4-8.3 4-1.1-.1 3.7-3.3 9.3-6.1 3.1-1.6 5.7-3.6 5.7-4.4s-.4-1.5-1-1.5c-.5 0-6.6-2.7-13.5-6s-12.7-6-13-6c-.2 0-3.3-1.4-6.8-3-8.4-3.8-9-3.8-8.2.2"/><path d="M545.6 307.1c.4 1.9 2.6 7.4 4.9 12.4 2.4 4.9 5.3 11.2 6.5 14l2.1 5 4.6-5.3c2.5-2.9 5.4-5.7 6.5-6.3s-.5 1.9-3.6 5.5c-6.6 7.8-7.2 10.6-2.3 10.6 7.1 0 28.3-10.9 27.4-14-.1-.3 1.3-2.3 3-4.5 1.8-2.2 2.9-4.2 2.5-4.6s-4.2-.9-8.5-1.2c-7.5-.5-7.9-.5-11.1 2.4-4.3 3.7-5.8 3.8-2.3.1l2.7-2.9-2.7-1.3c-2.2-1-20.6-9-29-12.7-1-.4-1.1.4-.7 2.8M545 327.9v12.8l3.6.6c2.9.5 8.4-.5 8.4-1.5 0-2.2-10.5-24.8-11.5-24.8-.3 0-.5 5.8-.5 12.9M504.6 319.9c-.3.4-.1 2.3.4 4.1s.8 3.7.7 4.2 1.2 1.7 2.9 2.7c1.7.9 2.9 2.1 2.7 2.6-.3 1 9.2 7.3 13.4 8.8 1.3.5 2.3 1.5 2.3 2.3 0 .9.5 1.2 1.1.9.6-.4.8-1.3.5-2-.2-.7 0-1.7.6-2.3 1-1-7.6-10.2-14.7-15.7-1.6-1.2-4.1-3.2-5.4-4.4-2.6-2.3-3.7-2.6-4.5-1.2M714.7 347.6c-1 1.4-3.6 6.1-5.8 10.4-2.2 4.4-4.5 8.5-5.2 9.2-2.5 2.7-6.7 8.7-6.7 9.7 0 .5.8 1.5 1.8 2 .9.6 1.3 1.1.9 1.1-.5 0 2.2 2.7 6 6l6.8 5.9 1.7-12.7c4.2-31.1 4.3-36.7.5-31.6M558.5 359.5c-.3 1.6-1 4.8-1.5 7s-1.4 10.1-1.9 17.6c-.6 7.5-2 18-3.1 23.3-1.2 5.4-2.2 13-2.3 16.9-.1 4-.6 7.5-1 7.8-.5.4-.7 1.6-.5 2.9.3 2.1.3 2.1 2.3.3 2.4-2.1 14.8-17.1 18.4-22.2 1.9-2.8 2.2-4.1 1.7-8-1.2-9.9-8-40.6-9.9-45.1l-1.5-3.5zM523.9 366.5c-.5 5.6-.9 8.1-2.2 15-.9 4.4-1.9 9.1-2.2 10.5-3.2 15-4.2 31-2.2 36.3l1.4 3.9 1.1-2.9c.6-1.5 1.4-5.3 1.7-8.3.4-3 .8-6.6 1-8 2.5-15.9 4.6-37.1 4.1-40.4-.6-3.9-2.5-8.2-2.7-6.1M517.4 369.8c-.6.4-1.9 2.2-2.8 3.9-.9 1.8-2 3.3-2.4 3.3-.5 0-.6 1.5-.4 3.4.4 3 .1 3.4-2.8 4-1.8.3-4.2.6-5.4.6-2.4 0-7 5.2-7.9 9-.3 1.4-.8 3.5-1.2 4.6-.6 1.9-.1 2.4 3.2 3.4 2.1.7 4.1 1.7 4.4 2.2s3.1 1.2 6.2 1.5l5.5.6 1.1-3.9c.6-2.1 1.6-7.5 2.2-11.9s1.5-9.9 2-12.2c1.7-7.7 1.1-10.4-1.7-8.5M418 379.5c0 .3 3.8 6.1 8.5 12.9 4.6 6.8 8.2 12.6 7.8 13-.3.3-.1.6.5.6 1.5 0 2.6-2.3 6.1-12 2.1-6 2.5-8.3 1.7-9.3-.6-.8-5.8-2.4-11.6-3.6-10.8-2.2-13-2.5-13-1.6M694 385.2c-.6 2.4-1.3 5-1.6 5.8s-.9 3.4-1.4 5.8c-.8 4.3-.8 4.4 1.9 3.7 5.2-1.2 17.1-6.8 17.1-8.1 0-.7-1.9-2.7-4.2-4.6-2.4-1.8-5.2-4.1-6.2-5-3.1-2.8-4.4-2.2-5.6 2.4M685 388.7c-3 3-5.4 6-5.2 6.5.1.5-.2.7-.7.4-.4-.3-3.7 2.2-7.2 5.5-3.6 3.4-5.5 5.8-4.4 5.5s5.6-1.2 10-2.1c8.4-1.6 11.5-3.6 11.5-7.9 0-1.1.7-3.9 1.5-6.1 1.6-4.4 1.9-7.5.8-7.5-.5 0-3.3 2.6-6.3 5.7M454.7 407.5c-6.6.8-13 1.6-14.2 1.9l-2.4.6 3.5 6.3c2 3.4 4.2 6.9 5 7.8.8.8 1.4 2.3 1.4 3.2 0 3.7 2 2.2 17.7-13.1 3.6-3.4 6.9-6.2 7.4-6.2s.9-.5.9-1c0-1.2-4.1-1.1-19.3.5M477 408.6c-.6 1.4-1 5.5-1 9.2 0 8.1-2.6 31.5-4 35.7-1 3-1 3-.5-.5 1.9-12.3 3.8-44 2.6-44-.5 0-3.8 2.8-7.3 6.2-3.5 3.5-8.7 8.5-11.6 11.1l-5.3 4.8 2.3 2.8c1.3 1.6 5.7 7.6 9.9 13.3 4.4 6 8.4 10.5 9.4 10.5.9 0 3.1-1.6 5-3.6 6.4-6.8 14.2-15.6 20.1-22.6 3.2-3.9 7.9-9.3 10.5-12.1 4.5-4.8 6.7-8.9 5.5-10.1-.8-.8-22.1-3.2-28.9-3.3-5.3 0-5.8.2-6.7 2.6M593.8 407.4c-9.1.6-17 1.4-17.4 1.8-.8.8 1.4 3.3 24 27.2 18.1 19 19.7 20.6 21.3 20.6s1.6-.7-.2-16.5c-.9-7.2-1.8-15.6-2.2-18.8-.4-4.2-1.2-6.3-3-8.1-2.2-2.2-2.3-2.5-.7-3.4 2.6-1.5 1-4.2-2.3-4-1.5 0-10.3.6-19.5 1.2M624 408.5c3.5 4 12.8 12.7 15.4 14.4 1.1.8 3.4 2.6 4.9 4l2.8 2.6 2.7-3.5c1.5-1.9 3.5-5 4.5-7 1.1-1.9 2.8-4.5 4-5.7 1.6-1.8 1.7-2.3.6-2.7-2.1-.7-16.4-2.4-24.8-3.1-4.1-.3-8.6-.8-10-1.2l-2.6-.6zM570.3 414.7c-1 1.6-2.8 3.9-4.1 5.3s-4.8 5.7-7.7 9.5c-2.9 3.9-6 7.6-6.9 8.4-2.3 1.9-2 4 .7 4.6 2.4.6 22.9 2.5 26.5 2.5 2.3 0 2.8-1.8 1.3-4.8-1.2-2.2-6.1-23.3-6.1-26 0-3-1.6-2.7-3.7.5M577.5 418.7c.4 2.1 1 4.2 1.5 4.8.4.5 1.6 3.7 2.5 7 1.9 6.4 3.5 11 7 19 2.1 4.8 5.6 14 8.9 23.6 3.2 8.9 3.1 8.9 12.6-.1 4.7-4.5 9.6-8.9 10.9-9.7l2.3-1.7-4.3-4.1c-2.4-2.3-12.9-12.8-23.3-23.3-17.8-18.1-18.8-19-18.1-15.5"/><path d="M506.4 422.2c-2.3 2.4-6.2 7.2-8.9 10.7-2.6 3.5-9.2 10.8-14.6 16.3-5.5 5.5-9.9 10.5-9.9 11.1.1.7 4.3 5.5 9.5 10.7l9.3 9.4 1.8-3.9c.9-2.2 2.2-5.1 2.8-6.4l1-2.3.8 3c1.1 4 3.4 5.9 5.6 4.5 1.9-1.1 4.2-.6 4.2.9 0 .6-.3.9-.6.5-.4-.3-1.4.3-2.3 1.4-1 1.2-3.3 2.3-5.9 2.6-2.4.3-4.6 1.2-4.9 1.9-.4 1.1.4 6.5 3.3 22.4.8 4.3 3.3 11.6 3.3 9.7.1-.9.5-1.7 1-1.7.9 0 1.1-.6 3.7-10.2 2.1-8 2.2-8.6 3.5-14.8 1.4-6.5 3.4-9.5 2.4-3.5-.4 2.2-1.3 6.2-2 9-.7 2.7-1.8 7.7-2.5 11-.6 3.3-1.8 7.7-2.7 9.8-2.6 6-.7 6.5 7.3 2.2 9.6-5.2 9.7-5.3 9.1-10-2.6-18.8-7-37.5-10.4-43.3-1.3-2.3-2.3-5-2.1-5.8.2-.9 1.6.9 3.3 4.1 1.6 3.1 3.8 6.1 4.8 6.7 1.5.8 1.7 1.2.6 1.8-1 .7-1 2.2.4 8.2.9 4 2.4 11.1 3.4 15.7 1.5 7.7 1.7 8.2 2.8 6 .7-1.3 1.6-4.4 1.9-6.9 2.1-14 4.8-18.6 3.8-6.5-.3 4.3-.1 6.5.6 6.5.6 0 1.4-.5 1.7-1 .4-.6 1-.8 1.4-.5.5.2 2.2-2.1 3.8-5.3 2.8-5.5 5.3-7.7 5.3-4.8 0 .7 1 2.6 2.1 4.1l2.2 2.7 2.3-2.6c1.6-1.6 2.4-3.7 2.4-5.9 0-3.3.2-3.5 4.5-4.1 2.5-.4 5.3-.3 6.4.3 2.7 1.5 3.7 1.4 5.5-.5 2-2 2.1-4.4 0-4.4-.8 0-1.2-.5-.9-1 .3-.6 1.7-1 3.1-1s2.4-.6 2.4-1.4.7-1.7 1.6-2c1.3-.5 1.5 0 1.1 2.8l-.4 3.3 3.3-1c1.9-.6 3.4-1.5 3.4-2 0-1.9 3.5-3.5 6.6-3 4.9.8 5-.6 1.2-10.7-3.6-9.3-7.6-10.7-7.9-2.7-.1 1.5-.4 1.1-1.1-1.3-.5-1.9-1.3-3.8-1.6-4.2-.4-.3-5.4-.9-11.2-1.3-5.8-.3-12-.8-13.7-1.1-1.8-.3-3.3-.1-3.3.4s1.6 3 3.5 5.5 3.5 4.9 3.5 5.3-1-.6-2.2-2.2c-5.6-7.3-7.6-8.8-9.2-7.5-.9.8-1.6 1-1.6.5-.1-.5-1 .9-2.1 3.1-3.3 6.4-6.3 10.5-7.6 10.5-.7 0-1.3-.5-1.3-1.2 0-.6-.8-2.1-1.7-3.2-1.6-1.7-1.4-1.7 1.2.3l2.9 2.2 2.3-4.5c1.2-2.4 2.7-4.7 3.3-5.1.5-.3 1-1.2 1-1.9 0-1.1-2-1.2-9.2-.8-5.1.2-9.6 1-10 1.6-.5.6-.8.7-.9.1 0-.6-.4-.1-.9 1-.9 1.9-.9 1.9-1.6-.3-.6-2-1.2-2.2-7.5-2.2H505v3.2c-.1 2.9-.2 3.1-1.1 1.4-1.7-2.7.7-15.7 4.3-23.9 1.6-3.8 2.8-7.3 2.6-7.8s-2.2 1-4.4 3.3M624.9 464.2c-.6 2.5-1.3 4.9-4.3 13.8-1.9 5.8-4.2 13.2-5.2 16.5-.9 3.3-2.2 6.3-2.8 6.7s0 .8 1.4.8c2.4 0 26.4-11.3 30.5-14.3 1.9-1.5 1.7-1.8-5.5-9.4-4.2-4.3-8.5-8.9-9.5-10.3-1.9-2.4-4.4-4.5-4.6-3.8M614.3 472.3c-3.9 3.4-8.1 7.4-9.3 8.9l-2.1 2.7 3.6 7.6c1.9 4.2 4 7.5 4.6 7.3s2.4-4.6 4.1-9.8c1.6-5.2 3.8-12.4 4.9-15.9s1.9-6.5 1.7-6.6c-.2-.2-3.5 2.4-7.5 5.8"/><path d="M569.7 481.7c-.9 3.8-1.7 7.6-1.7 8.5 0 1-.4 1.8-1 1.8-.5 0-1 1.3-1 3 0 1.6.5 3 1 3 .6 0 1 1.3 1 3 0 2.5-.4 3-2.5 3-1.9 0-2.3-.4-1.8-1.7.6-1.5.5-1.6-.9-.3-1.2 1.2-1.3 1.7-.2 2.7.7.7 1.7 1.3 2.3 1.3s1.1.4 1.1 1c0 .5-.6 1-1.4 1-1.5 0-2.9 2.7-2.1 4 .3.4 1.6 1.1 3 1.4 1.3.3 5 2.1 8.2 4 5.2 3 12.6 6 9.6 3.9-.6-.5-1.5-3.2-1.9-6.1s-1.3-6-2.1-6.8c-.8-.7-1.3-2.2-1.2-3.1.1-1-.1-2.5-.4-3.3-.4-.8-.8-3.3-1-5.5-.4-3.9-.4-3.9-.5.7-.2 4.6-.3 4.8-3.2 4.8q-3 0-3-1.5c0-.8.8-1.5 1.9-1.5 1.6 0 1.9-1.1 2.5-6.9.8-7.6.1-12.1-1.9-12.1-.8 0-1-.9-.7-2.5.9-5.1-.4-2.3-2.1 4.2M489.3 491.1c-1.2 2.4-2.9 6.4-3.9 8.7l-1.7 4.4 7.4 7.4c6.8 6.9 9.5 8.2 7 3.6-.5-1-1.7-5.9-2.5-10.8-.9-4.9-2.1-10.9-2.8-13.3l-1.3-4.4zM602.5 491.3c.6 2.2-1.2 6-2.5 5.2-.7-.4-2.9 4.1-3.4 7-.1.5-.9 2.6-1.8 4.4-.9 1.9-1.4 4.1-1.1 4.8s0 1.3-.7 1.3c-.6 0-.9.4-.5.9.3.5.1 1.2-.5 1.6-.5.3-1 1.3-1 2.1s3.6-1.4 8.8-5.4c6.6-5.1 8.8-7.5 9-9.5.2-1.5-.1-2.7-.6-2.7s-1.2-.8-1.6-1.8c-.3-.9-1-2.4-1.5-3.2s-1.4-2.6-2-4c-.7-1.4-.9-1.7-.6-.7M478.5 529.8c-.5.6 8.3 9.2 14.1 13.8l3.1 2.4 7.2-4.7c3.9-2.7 7.1-5.1 7.1-5.4s-3-1.1-6.7-1.7c-3.8-.6-10.7-1.9-15.5-3s-9-1.7-9.3-1.4M959 123.7c-20.2 4.4-19.3 4.1-17.6 6.5.8 1.1 8.2 9.9 16.3 19.5l14.8 17.4 1.2-14.3c.6-7.9 1.2-18.2 1.2-23.1.1-10.3 1.5-9.7-15.9-6M976.7 122.7c-.3.5-.8 10.6-1.2 22.6l-.8 21.7 3.4-.6c3.3-.6 28.8-6.7 33.8-8.1 2.2-.6.9-2.1-16-18.5-10.1-9.8-18.5-17.8-18.6-17.8s-.4.3-.6.7M930.5 131.6c-3.2 1.3-6.5 2.4-7.3 2.4-.7 0-1.1.3-.9.7.3.5-.5.9-1.6.9-1.2.1-5.7 1.4-10 3-5.5 2-7.3 3.1-6.2 3.6.9.6 2.4.3 4-.8 2-1.3 2.8-1.4 4-.4 1.3 1.1 1.8 1 2.8-.3 1.4-1.8 11.2-3.1 15.4-2.1 2.5.7 2.5.8.8 1.5-1.9.7-1.8.8.3.8 1.8.1 2.2.7 2.2 3.1 0 2.3.4 3 2 3 1.5 0 2 .7 2 2.5 0 2.1.5 2.5 3 2.5 1.7 0 3 .4 3 1 0 .5 2 1 4.5 1 3.9 0 4.5-.3 4.5-2.1 0-1.1.4-1.8 1-1.4.5.3.7 1.2.4 1.9-.3.8.4 1.6 1.7 1.9 1.3.4 2.4.5 2.6.4.7-.7-9.9-12.7-10.8-12.1-.5.3-.8.2-.7-.3.4-1.1-4.4-8.3-5.5-8.3-.5 0-.5.5-.1 1.2s.3.8-.5.4c-.6-.4-.9-1.2-.5-1.7.6-1-2.3-5-3.5-4.8-.3 0-3.3 1.2-6.6 2.5M1006 161.2c-5 1.5-19.8 5.8-24.4 7.1l-3.8 1 3.8 2.4c6.8 4.1 50.4 25.3 52.3 25.3.4 0-3.4-8.2-8.5-18.3-9.1-17.9-9.3-18.2-12.6-18.4-1.8-.1-4.9.3-6.8.9M979 173.6c0 .3 1.5 2.2 3.3 4.2 1.9 2 6 6.6 9.2 10.2s7.2 7.9 8.9 9.5c1.7 1.7 6.2 6.3 9.9 10.3l6.9 7.2 8.1-6.2c4.5-3.3 8.6-6.5 9.2-7 1.4-1.3-1.1-3-11-7.6-7.8-3.5-22.1-10.3-39.7-18.8-2.7-1.3-4.8-2.1-4.8-1.8M976 175.6c0 .6.3 1.4.8 1.8.4.4.7 1.1.7 1.4.2 2 2 10.5 5.6 25.2 5.3 22.5 6 25 7.1 25.6 1.2.8 14.8-7.8 14.1-8.9-.3-.6-.1-.7.5-.3 1.1.6 6.2-1.4 9-3.7 1-.8-1.1-3.5-9-11.6-5.7-5.8-14.4-15.1-19.5-20.6s-9.2-9.5-9.3-8.9M1026.8 210c-4.9 3.4-8.8 6.3-8.8 6.6s1.3 2.4 2.8 4.7c1.6 2.3 4.8 7.7 7.3 11.9 2.4 4.3 4.7 7.8 5.2 7.8.4 0 .7-2.3.7-5.1s.5-10.4 1.1-16.9c.6-6.6.9-12.6.7-13.5-.2-1.3-2.3-.2-9 4.5M1037.7 212c-.3 1.4-.8 6.8-1.2 12-.3 5.2-.8 11.8-1.1 14.5l-.6 5 5.6 4.3 5.6 4.2-.5-2.8c-.3-1.5-1.4-7.9-2.5-14.2-3.7-21.4-4.7-25.7-5.3-23M1010.7 221c-2.6 1.6-5 3-5.2 3-1 0-12.5 7.5-12.5 8.1 0 .4 7.3 2.5 16.3 4.8 8.9 2.2 17.3 4.4 18.6 4.7 2 .6 2.2.4 1.6-1.5-.8-2.7-12.8-22.1-13.5-22.1-.4 0-2.7 1.3-5.3 3M946.4 232.7c2.8 7.2 34.9 70.2 35.7 70.3.7 0 1-3.6 3.3-35.5.9-11.6 1.6-24 1.6-27.6v-6.6l-10.2-1.6c-18.5-2.9-21.9-3.1-22.9-1.6-.7 1.2-1 1.1-2.1-.3-.7-.9-2.7-1.9-4.5-2.3l-3.2-.6zM941.6 237.7c-.3 3.7-1.1 13.8-1.6 22.3-.6 8.5-1.5 19.5-2 24.5-1.2 11-3 44.8-2.4 45.4.7.8 45.4-21.9 45.4-23 0-1.2-36.7-73.9-38-75.2-.4-.5-1.1 2.2-1.4 6M992.9 236.7c.5 1 2.8 5.6 5.1 10.3 6.2 12.4 8 15.2 9.7 14.6 2.6-1 20.9-13.5 22.7-15.5 1.7-1.9 1.6-2-3.6-3.4-2.9-.9-6.4-1.8-7.8-2.1s-7.7-1.7-14.1-3.1c-13.8-3-13.1-2.9-12-.8M989.3 238.6c.3 1.7.1 5.3-.4 8-1.1 6.6-4.2 53.5-3.5 54.1.3.3 1.3-1.2 2.3-3.3.9-2.2 2.5-5 3.4-6.4 2.1-3.2 13.9-26.1 13.9-27 0-.8-5.7-11-12.3-22-3.2-5.4-3.8-6-3.4-3.4M1030.8 247.9c-.2.5-5.2 4.1-11.2 8.2-8.9 6-10.5 7.4-9 8.1 1.1.4 8.1 3.4 15.7 6.8 7.6 3.3 14.2 6 14.7 6 .8 0-3.6-18.2-6.3-25.8-1.2-3.5-3.2-5.2-3.9-3.3M996.7 284.3c-5.4 10.5-9.8 19.5-9.7 19.9 0 1 2 .2 12-4.5 4.7-2.2 11.2-5.2 14.5-6.7s10.4-4.8 15.8-7.4c5.4-2.5 10.2-4.6 10.7-4.6.6 0 1-.5 1-1.1 0-1.4-30.4-14.9-33.5-14.9-.5 0-5.4 8.7-10.8 19.3M1042.4 284.6c-.4 1-2.2 5.2-4 9.2-1.9 4.1-3.4 7.7-3.4 8.1 0 .3-.9 2.4-2.1 4.5-1.1 2.1-1.9 4-1.7 4.1.2.2 4.3-.6 9.1-1.7l8.8-2-.7-3.6c-1.1-6.3-4.3-19.4-4.8-20-.3-.3-.8.4-1.2 1.4M1039.8 310.6c-4.9 1.2-9.2 2.5-9.7 2.8-.8.5.2 6.5 2.2 11.8 1.7 4.9 4.7 3.7 9.6-4 2.4-3.7 5.2-7.9 6.2-9.4s1.5-2.9 1.1-3.1-4.6.6-9.4 1.9M980.6 320.6c-5.1 21.8-6.3 23.9-2.1 3.6 1.4-6.6 2.5-12.5 2.5-13.1 0-.5-7.5 2.8-16.7 7.4-9.3 4.6-19.2 9.3-22 10.5-2.9 1.3-5.3 2.6-5.3 2.9 0 .7 31.3 16.7 33.9 17.3.8.2 2-1.6 3.2-4.7 1.8-4.8 1.9-4.8 1.3-1.2-.3 2.1-.8 4.6-1.1 5.4-.5 1.3-.1 1.5 2.3 1 1.6-.3 5.7-.9 9.1-1.3 4.4-.4 7.1-1.4 9-3 1.5-1.2 3-2.1 3.5-1.8 1.8 1.1.6-3-3.2-11.2-2.2-4.8-3.9-8.9-3.7-9 .1-.2 2.3 3.3 4.7 7.6 2.4 4.4 4.7 8 5 8 .4 0 2.3-1.3 4.1-3 1.9-1.6 4.6-3.6 6.2-4.2 2.5-1.2 10.1-9.8 13.9-15.9l1.7-2.6-14.2-1.7c-7.8-.9-17.6-2-21.8-2.3l-7.6-.6zM1048.6 313.3c-2.3 3-8.6 14.5-8.6 15.7 0 .3.8.6 1.8.7.9.1 3.4.4 5.5.8l3.7.8.1-3.9c.1-2.2.3-3 .6-1.9.2 1.1.6 3 .9 4.2.2 1.3.8 2.3 1.2 2.3 1.2 0 7.2-11.6 7.2-13.7-.1-1.5-7.8-8.3-9.4-8.3-.3 0-1.6 1.5-3 3.3M936.5 350.2c.3 8.4.8 16.7 1.1 18.5.6 3 .7 3.1 2.8 1.9 10.2-6.5 28.6-18.7 28.6-19.1 0-.5-31.5-16.5-32.5-16.5-.3 0-.3 6.9 0 15.2M1068.6 348.7c-1.9 5.6-2.2 8.6-.5 6.3.8-1.1.9.5.6 5.8l-.4 7.3 9.1 19.7c5.1 10.8 9.7 20.6 10.4 21.7 1.7 3 1.4-.1-.3-3.6-.9-1.6-3.6-8.2-6.1-14.7-10.9-27.9-10.6-27-10.8-37.4 0-5.4-.2-9.8-.3-9.8 0 0-.8 2.1-1.7 4.7M985.6 350.1c-3.8.4-8 1-9.3 1.4l-2.4.6 3 3.7c5.9 7.3 25.1 26.5 25.8 25.8 1.4-1.3-1.8-10.7-6.2-18.1-2.4-4.1-3.6-14.3-1.5-13 .6.3 1 .1 1-.4 0-1.2-.4-1.2-10.4 0M968.5 355.5c-1.6 1.3-3.4 2.4-3.8 2.5-1.2 0-24.7 15.2-24.7 15.9 0 .6 3.3 2.7 12 7.6 1.9 1.1 5.3 3.2 7.5 4.6 6.7 4.3 20.5 12.9 20.8 12.9.2 0-1.2-7.3-3-16.3-5.3-25.5-5.4-26.1-5.4-28 0-2.1.2-2.2-3.4.8M974.3 356.3c.3.9 1.3 5.9 2.2 11 .9 5 2.2 11.4 3 14.2.7 2.7 1.7 7.2 2.1 10 .3 2.7.9 5.5 1.3 6.2.4.8 3.6-1 9.4-5.3 6.3-4.6 8.5-6.9 8-7.9-.5-.7-4.7-5.6-9.4-10.7s-10.6-11.6-12.9-14.3c-2.4-2.8-4.1-4.2-3.7-3.2M1044.5 391.3c-.9 4-1.5 9.7-1.3 12.7l.3 5.4 5 1.3c2.8.7 5.3 1.3 5.8 1.3 1.2 0 .8-3.6-1.9-15-1.9-7.8-3.2-11.4-4.5-12-1.6-.9-1.9-.2-3.4 6.3M1008.2 388.1c.5 1.3 19 21.9 19.8 21.9.3 0 .7-2.1.8-4.8.1-2.6.5-6.4.8-8.4.5-3.3.3-3.9-1.8-4.8-3.8-1.7-19.9-4.9-19.6-3.9M998.5 390.7c-5.3 2.8-13.6 9.6-12.8 10.3.4.4 3.7 1.5 7.3 2.3 3.6.9 8.7 2.3 11.3 3.2 4.5 1.3 4.8 1.3 4.3-.3-.3-.9-1-4-1.7-6.7-1.3-5.5-3.6-10.5-4.7-10.5-.4.1-2 .8-3.7 1.7M1006.9 394.2c1 2.9 2.1 6.9 2.5 8.9.8 4.6 1.7 5.3 9.1 6.9 3.3.7 6.7 1.5 7.5 1.8s-1-2.1-4-5.4c-3-3.2-7.7-8.5-10.5-11.7-2.7-3.1-5.3-5.7-5.7-5.7s.1 2.4 1.1 5.2M1075.5 391c.3 1.4.7 3.5.8 4.7 0 1.3.7 2.3 1.4 2.3 1.6 0 3.2 3.8 2.6 6.1-.3 1-1.1 1.5-1.9 1.2s-1.4.1-1.4 1.1c0 .9-.7 1.6-1.5 1.6-1.1 0-1.5 1.1-1.5 4 0 3 .4 4 1.6 4 1.1 0 1.5.6 1.1 2-.3 1.1-.1 1.8.4 1.4.5-.3.9-1.2.9-2 0-1.1.6-1.3 2-.9 1.3.4 2.2.1 2.6-.9.5-1.2 1.1-1 3 1.3 1.3 1.6 2.4 3.4 2.4 4 0 .5.9 1.5 1.9 2.1 1.8.9 1.6.1-1.1-6-2.2-5.1-3.4-6.7-4.1-5.8-.6 1-.7.9-.4-.4.6-1.7-3-11-7.1-18.3-1.5-2.8-2-3.3-1.7-1.5M1035 392.1c0 .5-.5.7-1.1.3-1.2-.7.9 3.5 4 8.1 1.2 1.6 2.1 3.6 2.1 4.4s-1.7-1.1-3.7-4.2c-2.1-3.1-4.1-5.7-4.4-5.7-.4 0-.9 1.7-1.3 3.7-.7 4.4-.8 13.3-.1 13.3.2 0 2.6-.5 5.2-1l4.9-1.1-.2-5.2c-.2-5.9-1.2-10.6-2.7-12.5-1.2-1.5-2.7-1.6-2.7-.1M1053.1 424.2c-.5 1.3-4.3 9.5-8.5 18.3-5.1 10.6-7.5 16.7-7.2 18.1.4 1.6.1 2.1-1.1 2-1.5-.1-15.3 16.7-15.3 18.7 0 1 16.4 11.7 17.9 11.7.7 0 .9-1 .6-2.3-1.2-5.5-2.5-15.5-2.4-19.2.2-4.3.2-4 2.1 9.5l1.2 8.5 1.2-6.5c.8-4.3.9-7.1.2-8.3-.5-1-.7-2.3-.4-3 .2-.7.5-.4.5.6.2 3.7 1.9.6 3-5.5.7-3.5 2.1-9.9 3.1-14.3s2.4-10.9 3-14.5c.7-3.6 1.8-8.6 2.6-11.3 1.3-4.8 1-6.4-.5-2.5M1076.5 445c-6 .4-12.3.8-14 .9-2.9.2-2.9.2-1 1.7 2.9 2.3 15.7 8.4 17.6 8.4 1.8 0 7.6-3.2 17.9-9.8l3.5-2.2-6.5.2c-3.6.1-11.4.5-17.5.8M1056.6 489.5c-.4 10.8-.6 19.8-.4 20.1.2.2 3.4-2.1 7-5.1 6.6-5.5 6.6-5.6 5.2-8.3-.7-1.5-1.4-3-1.4-3.4 0-.5-1.6-4.2-3.5-8.4-1.9-4.1-3.5-8.1-3.5-8.7-.1-.7-.7-2.3-1.4-3.6-1.1-2-1.4.3-2 17.4M1043.6 516c-3.8.5-8.1 1.2-9.5 1.6s-2.9.8-3.3.8c-.5.1-.9.5-1 1.1-.2 1.1 13 10.4 14.7 10.5 1 0 6.5-7.2 6.5-8.4 0-.3-1.9-.7-4.2-.8-4-.1-4-.2 1.2-.7 3-.3 7.6-.2 10.3.3 3.3.7 5 .7 5.8-.1.9-.9.2-1.6-2.7-2.8-5-2.2-9.3-2.5-17.8-1.5M333.2 160.2c-8.3 9.5-15 17.4-14.7 17.6.2.2 11.3-2.9 24.7-6.8 24.9-7.4 35.2-10.3 40.1-11.4 2.7-.6 3.8-2.6 1.4-2.6-1.2 0-7.4-2.5-27.6-10.9-4.1-1.7-7.7-3.1-8.1-3.1s-7.5 7.7-15.8 17.2M277 182.7c-3.5 6.5-7.8 14.4-9.8 17.6-1.9 3.2-3.2 6-3 6.3.8.7 3.8-.7 3.8-1.7 0-.5.8-.9 1.8-.9s2.2-.4 2.8-.9c.5-.4 5.4-3.2 10.9-6.1 14.2-7.5 29.5-16.3 29.1-16.8-.8-.7-26.1-9.2-27.7-9.2-1 0-3.9 4.3-7.9 11.7M307 185.6c-2.5 1.4-8.1 4.5-12.5 6.9-4.4 2.3-10.5 5.7-13.5 7.4s-8.3 4.6-11.7 6.3c-3.5 1.7-6.3 3.5-6.3 4 0 1.3 4.6 5.5 10.4 9.6 4.1 2.9 4.9 3.2 5.9 1.9 7.2-9 32.1-37.7 33-38.1.7-.2.8-.5.2-.5-.5 0-3 1.1-5.5 2.5M297.4 202.5c-17.7 21-18 21.5-16.8 22.3.6.4 4.5 3.3 8.7 6.4 4.2 3.2 8 5.8 8.5 5.8.4 0 1.6-3 2.6-6.8 1-3.7 3.8-13.7 6.2-22.2s4.8-17.1 5.4-18.9c.5-1.9.8-3.7.6-3.9-.2-.1-7.1 7.6-15.2 17.3M321.9 202.7c-.1.5-.1 1.2 0 1.6.2 1.4-2.9 1.9-4.3.8-1.2-1-1.6-.2-2.6 4.4-.6 3-1 7.9-.8 10.8.4 4.4.8 5.2 2.6 5.5 1.2.2 2.2.9 2.2 1.5 0 .7.4.6 1-.3.6-1 1.3-1.1 1.9-.5 2.1 2.1-.6 3.5-7.6 3.8-4 .2-7.8.9-8.7 1.6-1.3 1.1-1.6 1.1-1.7 0-.1-.8-.1-1.8 0-2.2.1-.5-.3-.6-.9-.2-1.3.8-1.3 4.5 0 4.5.6 0 1 .4 1 1 0 .5-.7.7-1.5.4-.8-.4-1.5-.1-1.5.5 0 1.3 6.6.7 16.5-1.4 3.3-.7 8.5-1.6 11.5-2 4.2-.6 5-1 3.5-1.6-1.1-.4-1.4-.8-.7-.8.6-.1 1.2-.6 1.2-1.1 0-2-9.2-24.5-10.1-24.8-.5-.2-.7-.8-.3-1.3.3-.5.3-.9 0-.9s-.7.3-.7.7M262.6 227.2c1 21 .8 20.8 8.2 8.2 5-8.6 6-10.9 5-12.1-1.3-1.6-12.6-10.3-13.3-10.3-.3 0-.3 6.4.1 14.2M259.7 220c-.3 1.4-1.6 7.4-2.7 13.5-1.2 6-2.7 13.6-3.5 16.7-1 4.5-1 5.8-.1 5.8.7 0 1.6-.3 2.2-.8.5-.4-.1.2-1.3 1.3-2.1 1.9-2.3 2.9-2.3 12 0 5.4.2 9.6.5 9.3 1-1 9.2-25.8 8.6-25.8-.4 0-1.3.6-2.1 1.2-.8.7-.4.1.9-1.4 2.3-2.6 2.3-2.7 1.4-18.5-.5-8.7-1.2-14.7-1.6-13.3M271.4 237c-3.9 6.5-6.8 12.4-6.5 13.2s4.3 4.8 8.9 8.8c7 6.2 8.5 7.1 9.6 5.9.7-.8 4.2-6.8 7.6-13.3 5-9.4 5.9-11.8 4.4-11.4-1 .3-7.9 2.5-15.2 4.8s-13.5 4-13.8 3.8c-.2-.2 6.4-2.6 14.6-5.1 8.3-2.6 15-5.1 15-5.5s-.8-1.2-1.7-1.9c-1-.6-5-3.3-8.8-6.1l-7.1-5zM315.3 236.5c-7.3 1.3-13.8 2.5-14.5 2.8-1 .3-1.3 7.9-1.3 34 0 38.1-.5 36.8 7.5 20.2 2.6-5.5 10-20.7 16.4-33.9 6.4-13.1 11.6-24.2 11.6-24.7 0-1.3-4.9-.9-19.7 1.6M290.7 255l-6.7 12.8 4.6 12.4c2.6 6.7 5.2 13.8 5.8 15.5.7 1.8 1.5 3.6 1.9 3.9.4.4.7 1.6.7 2.6s.4 1.8.8 1.8c.6 0 .5-61-.1-61.7-.1-.1-3.2 5.6-7 12.7M262.2 254.8c-3.4 8.4-8.2 23.7-8.2 25.7 0 1.5 1.1 3.2 3 4.5 6.9 4.9 39.5 23 39.8 22.1.2-.6-1.6-6.1-4.1-12.3-2.4-6.2-5.4-14.5-6.7-18.3-2.8-8.2-3.6-9.3-5.2-7.7-.7.7-1.6 1.2-2.2 1.2-.5 0-.2-.6.7-1.3 1.5-1.1 1-1.8-5-7.2-11.4-10.2-10.9-9.9-12.1-6.7M251 289.9c-2.6 9.7-3.8 18.2-2.6 18.7 4.3 1.6 14.6 4.1 14.6 3.6 0-.4-2.1-5.7-4.6-11.7-2.5-6.1-4.9-11.9-5.4-13-.6-1.7-1-1.3-2 2.4M324.1 344.3l-14.3 8.1 2.6 2.1c7.1 5.6 8.9 6.8 10.2 6.8.8 0 1.4.5 1.4 1.1 0 1.1 2.9 3.6 8.1 6.9 3.4 2.2 2.9 3.5 5.9-16.9 2.3-15.9 2.3-16.4 1.3-16.3-.5.1-7.3 3.8-15.2 8.2M291.5 352.2c-.2.7-.5 3.9-.8 7.1-.3 4.4-1.1 6.7-3.4 10-1.7 2.3-3.4 5.8-3.8 7.7s-.5 3.3-.3 3c2.5-2.6 16.9-19.4 18.6-21.5 1.2-1.6 2.5-2.5 2.8-2.2.4.3-.4 1.9-1.7 3.5-7.5 9.2-17.4 20.9-18.6 21.8-.7.6-1.3 1.5-1.3 1.9 0 1.4 12.4 13.5 13.1 12.8 1.2-1.3 9.8-38.5 9.5-41.3-.2-1.9-1-2.7-3.2-3.1-5.1-1.1-10.4-1-10.9.3M303.2 375.3c-2.9 11.5-5 21.2-4.8 21.4.4.4 14.3-8.6 27.9-18.1l7.8-5.4-2.6-1.9c-1.4-1-6-4.4-10.3-7.7-4.2-3.2-8.8-6.6-10.2-7.6l-2.5-1.8zM217 403.2c-7.3 14.5-13.9 27.2-14.6 28.3-.8 1.1-1.4 2.3-1.4 2.7 0 .8 21.9-12.4 32.2-19.4l5.8-3.8-.7-14.3c-.3-7.8-.7-14.4-.9-14.6s-2-.4-3.9-.4c-2.3 0-3.5-.5-3.5-1.4 0-.8.4-1.1 1-.8s.7-.1.4-.9c-.3-.9-.7-1.6-.8-1.6-.2 0-6.3 11.8-13.6 26.2M229 419.5c-5.2 3.6-13.4 8.8-18.2 11.7-5.4 3.2-8.3 5.5-7.5 5.9.6.4 7.5 1 15.2 1.3s13.1.2 12.1-.2c-1.9-.8-1.9-.9.3-1.5 1.8-.4 2.4-.1 2.8 1.4.4 1.3 1.4 1.9 3.5 1.9h2.9l-.2-13.5c0-7.4-.4-13.5-.8-13.4-.3 0-4.9 2.9-10.1 6.4"/><path d="M242 436c-.1 3.6-.2 8.7-.2 11.5v5l-.7-4.5c-.6-4.8-1.4-4.6-2.6.7-.3 1.8-1.1 3.6-1.7 4-.8.4-.9 0-.4-1.3 1.4-3.6 1.8-7.4.9-7.4-1.9 0-16.3 7.1-16.3 8 0 .5 2.6 1.4 5.8 2 3.1.6 7.2 1.6 8.9 2.1 1.8.6 3.7.8 4.3.4.7-.4 1 5.3 1 17.2 0 9.8.3 19.6.7 21.8.7 4 .7 3.9 2.5-4 4.9-21.7 4.7-20.5 3.2-32.1-.7-6-1.8-12.9-2.4-15.4-.5-2.5-1.4-6.8-1.9-9.5l-.9-5z"/><path d="M200.1 440.7c-.8.9-.6 2.4.8 6 1.8 4.5 2.1 4.8 6 5.1 7.5.6 7.6-.9.5-5.7-9.3-6.1-7.3-6.2 2.4 0l8.1 5.1 7.3-3.3c11.3-5.1 11.9-5.6 6.7-6.3-11.1-1.6-30.7-2.1-31.8-.9M238 465.6c-.6 1.4-1.9 4.6-2.9 7.2-1.1 2.6-3.1 7.8-4.6 11.6l-2.7 6.9 5.3 5.3c2.9 3 5.7 5.4 6.1 5.4.5 0 .8-8.8.8-19.5-.1-10.7-.3-19.5-.6-19.5-.2 0-.9 1.2-1.4 2.6M247.1 484.5c-1.2 5.5-2.6 11.6-3.1 13.5l-.9 3.5 2.5-3 2.6-3-2.2 4.3c-1.2 2.4-1.9 4.6-1.6 5 .8.7 13.4 3.1 16.8 3.2h2.8l-5.6-9.3c-3.1-5-5.8-9.4-5.9-9.5-.2-.2-1.1 1-2 2.8s-1.8 3-2.1 2.8c-.2-.3.3-1.9 1.2-3.6 1.2-2.5 1.4-4.5.7-9.9l-.9-6.8zM238.2 507.9l-4.3 1.7 2.4 1.3c1.4.7 3.4 1 4.7.6 1.7-.6 2.1-.3 1.8 1.2-.1 1 .7 3.1 1.9 4.7 1.9 2.4 2.5 2.6 4.5 1.5 4.5-2.3 12.8-8.1 12.8-8.9 0-.4-3.7-1.3-8.2-2-4.6-.6-9-1.3-9.8-1.5s-3.4.4-5.8 1.4"/></svg>