<svg xmlns="http://www.w3.org/2000/svg" width="1706.667" height="960" viewBox="0 0 1280 720"><path d="M0 360v360h342.4c273 0 342.5-.3 342.9-1.3q.6-1.35.6 0c.1 1 8.5 1.3 38.7 1.3 36.7 0 38.6-.1 37.3-1.8-1.3-1.6-1.3-1.6.7.1 1.9 1.6 15.8 1.7 259.7 1.7H1280V0H0zM563.8 45.2c1.3 1.3 74.6 26.9 77.7 27.1 1.1.1 2.2.5 2.5.9 1.1 1.5 26.8 13.6 32.1 15.1 3 .9 6.4 2.6 7.4 3.7s2.6 2 3.5 2 2.5.9 3.6 2.1c1 1.2 3.2 2.8 4.9 3.6 1.6.9 5.3 3 8 4.8 20 12.9 24.9 15.6 25.5 13.9.5-1.3.9-1 1.9 1.4.7 1.7 1.2 3.2 1 3.4s.6 1.9 1.9 3.9c1.2 2 2.2 4 2.2 4.5-.1.5-.8-.4-1.6-1.9-1.8-3.2-3.4-2.7-3.5 1.1 0 3.7-3.6 21.2-3.8 18.6 0-1.2.5-5.5 1.3-9.5 3-15.5 2.7-18-1.8-15.6-2.4 1.2-13.7 3.9-14.3 3.3-.2-.2 2.7-1.1 6.4-2 8.7-2.2 10.5-3.2 8-4.9-6.1-3.9-17.2-11-23.2-14.7-3.8-2.3-8.3-5.2-9.8-6.2-1.6-1.1-3-1.8-3.1-1.6-.2.1-.6 8-1 17.5l-.7 17.1 2.3-.4 2.3-.5-2.2 1.2c-2.1 1.1-2.1 1.2-2 34.8l.2 33.6 7.5-.3c12.2-.4 20-1.3 20-2.3 0-.6-.9-2.9-2.1-5.2-3.1-6.3-6.9-16-6.5-16.4.3-.4 4.6 9 4.6 10.3 0 .3 1.6 3.2 3.5 6.4l3.6 5.8-.9 7.9c-.5 4.3-1 6.8-1.1 5.5-.2-3.5-2.1-1.5-2.1 2.2 0 1.8-.6 5.5-1.4 8.2s-3.3 12.9-5.6 22.7-4.4 17.6-4.6 17.4c-.4-.4 5.8-29 8.3-38.2 2.8-10.1 5.2-23.4 4.4-23.9-1.4-.8-27.6 2-27.6 2.9.1 3.5 5.3 52.5 6 57 .3 1.7.2 2.5-.3 2-.5-.6-2.1-12-3.6-25.5-3.1-29.1-3.5-31.5-4.5-30.4-.5.5-2.9 6.8-5.4 14.1l-4.6 13.2 2 5.2c1 2.9 1.7 5.5 1.4 5.7-.4.5-2-2.9-3.8-8.1-.8-2-2.3-2.2-5.8-.3-1.4.7-6.6 2.7-11.5 4.4-13.5 4.8-18.1 6.6-18.5 7.6-.6 1.2 29.7 21.6 50 33.5 5.6 3.4 6 3.1 3.1-1.7-2.6-4.2-2.6-6.5 0-3.2l2 2.5-.5-7.5c-.3-5.9-.3-6.7.5-3.5.4 2.2 1 5.9 1.1 8.3.4 5.8 1.6 6.2 2.9 1 2.3-9.4 3.8-14.2 3.9-12.5.1 1-1 6.3-2.4 11.8s-2.2 10.5-1.9 11.2c.4.7 4.1 5.7 8.1 11.2 4.1 5.5 6 8.4 4.3 6.5-1.8-1.9-5-5.9-7.2-8.9-2.2-2.9-4.9-5.6-5.9-5.8-1.1-.3-1.9-1-1.9-1.5 0-.6-5.1-.7-14.2-.2-7.9.4-14.9.7-15.5.7-.7 0-1.3.6-1.3 1.4 0 .7-.4 1.3-1 1.3-.5 0-1-.6-1-1.4s-1.5-1.9-3.2-2.5c-6.9-2.3-23-6.1-23.8-5.6-1.2.7 10.6 24.1 12.5 24.9 1.5.5 5.5-1.2 5.5-2.4 0-.4.7-1.5 1.5-2.6 1.4-1.7 1.4-1.5 0 2-2.1 5.4-2 6 2.5 10.4 2.2 2.1 4 4.4 4 5 0 1.7 11.2 9.3 12.8 8.7.8-.3 2 .2 2.6 1 .9 1.3 4.3 2.3 20.4 6 2.2.5 2.3.3 2.1-3.9-.2-2.5 0-4.8.4-5.2s.7 1.4.7 3.9c0 4.8.7 5.6 2.8 3.5.9-.9 1.2-.9 1.2 0 0 .7-.4 1.2-1 1.2-1.9 0-1 4.1 1.7 7.8l2.7 3.7-3.7-3.4c-2-1.9-3.7-3.3-3.7-3-.1.2-.3 2.6-.5 5.4-1.7 19.7-2.8 29.4-3.9 36.4-.7 4.5-.9 8.1-.5 8.1s1.9-1.4 3.2-3c1.4-1.7 2.9-3 3.3-3 .3 0-1 1.8-3 4s-3.6 4.4-3.6 5c0 .5-1 .9-2.2.8-1.9-.1-18.8 5.3-24.8 7.9-.8.4-2.4.7-3.5.9-1.1.1-5.1.9-9 1.9-3.8 1-8.7 2.2-10.8 2.7-2.3.5-3.7 1.4-3.4 2.1.2.7.7 2.3 1.1 3.7.6 2.5.6 2.5-.5.2-1.8-3.4-3.3-2.7-7.5 3.5-2.1 3.1-4.9 7-6.1 8.7-2.8 4-2.8 4.1.7 5.6 3.8 1.6 3.3 2.4-.6 1-2.3-.9-3.1-.8-4 .4-1.6 2.2-2.7 2-1.5-.3 1.2-2.2.5-3.1-12.4-14.5-5-4.4-9.8-8.9-10.9-10-1.8-2.1-1.8-2-1.1 6.4 1 12.4 4.5 41.1 5.1 42.1 1 1.6 5.7.9 16.8-2.6 33.7-10.5 32.1-9.9 32-12-.1-1.1-.7-3.3-1.3-4.8-.7-1.7-.7-2.6-.1-2.2.6.3 1 1.2 1 2 0 1.8 3 2.8 4.6 1.4 1.1-.9 1.2-.6.2 2.2-1.4 4.2-2.8 6-4 5.3-.8-.5-11.4 2.7-40.2 12-3.9 1.2-7.2 2.8-7.4 3.4-.6 1.9 20.1 22.4 22 21.7.8-.3 4.6-5.3 8.4-11 3.7-5.7 7-10.2 7.2-10s-2.8 5.1-6.8 11c-4 6.1-7.2 11.9-7.3 13.5s-.6 2.5-1.1 2c-.4-.4-2.1-.4-3.7 0-5.1 1.5-31.9 15.3-31.9 16.5 0 .6.7 2.1 1.6 3.3.9 1.3 1.4 2.5 1.2 2.7s-1.2-.9-2.3-2.6c-1.1-1.6-2.5-2.8-3.1-2.7-.6.2-3.3 2.2-6 4.4-2.7 2.3-7.3 6.1-10.3 8.5-6.5 5.3-7.1 6.6-3.4 7.2 1.5.3.9.4-1.4.3s-5.1-1-6.1-1.9c-.9-.9-6.2-3.7-11.7-6.2s-11.4-5.3-13.2-6.2c-2.3-1.2-3.5-1.4-4.5-.6-.7.6-4.7 2.2-8.8 3.6-7.2 2.5-7.8 2.5-11.9 1.1-2.4-.8-5.6-2.1-7.2-2.9-4.4-2.3-6.6-1.8-15.1 3.1-8.8 5.2-9.5 5.9-7.8 7.9.8.9.8 1.5.2 1.5s-1.2-.5-1.4-1.1c-.2-.7-1.2-.7-3.1 0-1.6.6-4.8 1.1-7.3 1.1-2.4 0-4.4.3-4.4.7 0 .7 12.7 4.3 15.7 4.6.7 0 1 .4.8.8-.3.4-2.2.3-4.2-.2-3.6-.9-19.3-3.9-20.3-3.9-.2 0 3.1 3.6 7.5 8s8.4 8 8.8 8c.5 0 4.3-2.1 8.4-4.7 6.6-4.2 7.2-4.8 5.2-5.5-3.7-1.4-1.2-2.1 3.3-1 5.2 1.4 25.8 3.5 26.5 2.8.3-.3-.8-.8-2.3-1.1-6.6-1.4-16.8-4.4-15.4-4.4.9-.1 4.2.6 7.3 1.4 3.2.8 7.6 1.5 9.7 1.5 3.9 0 5.3 1.3 2.8 2.4-3.1 1.4 52.5-2.3 59.7-4 3.3-.7 7.6-1.4 9.5-1.5l3.5-.1-4.5-1.3c-4.3-1.3-4.1-1.4 5.1-.8 6.6.4 9.8.2 10.3-.6.4-.6-.7-3.2-2.4-5.8l-3.2-4.8 3.9 4.4c3.1 3.4 4.1 4 4.9 3 .6-.8 4.2-7.3 8-14.6 3.7-7.3 7-13 7.2-12.8s-3 6.9-7.2 15c-4.2 8-7.5 14.9-7.5 15.3.3 1.8-.2 3.2-1.1 3.2-.8 0-9.2 4.5-15.8 8.5-.9.6-4.7 2.7-8.4 4.8-3.8 2.2-6.8 4.1-6.8 4.4s1.7 2.1 3.8 4c2 1.9 2.7 2.8 1.5 2.1-1.3-.7-2.3-1.6-2.3-1.9 0-.4-1.3-1.2-2.9-1.8-2.4-1-4.2-.8-11.7 1.4-4.9 1.5-10.5 2.9-12.4 3.1s-10.1 1.8-18.3 3.5l-14.8 3.1-15.2-4.2c-8.3-2.3-17.8-5.3-21.1-6.6-4.2-1.8-6.2-2.2-7.1-1.4-1 .8-1.4.4-2-1.7-.3-1.5-1.8-3.8-3.3-5.1-9.4-8.5-17.2-16.7-17.2-18.3 0-.9-2.9-7.8-6.4-15.3-3.5-7.4-6.7-14.5-7.1-15.8-1-3.9 3.1 3.9 8.6 16.5 2.9 6.4 5.8 11.7 6.5 11.7s1.1.6.8 1.4c-.9 2.3 1.3 2.9 10.5 2.7s13.1-.8 13.1-2.1c0-2.4-16.1-20.5-20.6-23.2-1.6-1-5.6-3.6-8.9-5.8s-7.6-4.8-9.6-5.7c-2.2-1.1-4.5-3.3-5.8-5.8-6-10.7-14.2-26.5-13.8-26.5.5 0 11.7 19.6 11.7 20.6 0 2.1 7.7 9.6 14 13.5 3.9 2.4 8.8 5.6 10.7 7.1 5.5 4.3 6.4 3.8 10.7-5.7 4.6-10.1 4.7-9.5-4.9-20-5.4-5.9-6.6-6.8-7.6-5.5-.9 1.3-1 1.2-.5-.3 1-3.1-2.1-3.1-4.9 0-2.7 2.8-2.4 1.2.3-1.9.8-.9 1.2-2.2 1-2.8-.5-1.7-34.4-15.8-35.4-14.8-.2.3.5 2.3 1.7 4.4l2.1 3.9-2.4-3c-1.2-1.6-3-3.7-4-4.6-2.1-2.2-3.1-5.6-1.9-6.3.5-.4-.1-1.7-1.4-3.1-1.9-2.2-4-6.5-3-6.5.2 0 1.2 1.6 2.4 3.5 2.4 4 3.8 4.4 4.4 1.2.3-1.6.5-1.3.6 1 0 1.8.5 3.3 1.1 3.3 1.7 0 15-9.1 15-10.3 0-1.4-12.5-20.3-14.4-21.8-1.2-1-3.3-2-4.7-2.3-3.1-.6-11.9-5.7-11.9-6.9 0-.5.5-.5 1-.2 1.2.7 1.2 0-.3-9.2l-1.2-7.3-2.7 2.3c-2.9 2.3-3.8 6.4-2.3 10.1.6 1.4.4 1.7-1.1 1.4-1.5-.2-2-1.5-2.6-5.8-.8-7.2-.7-49.5.2-63.5l.7-11 .3 9c.2 4.9.3 9.6.3 10.2-.1.7.5 1.3 1.3 1.3 1 0 1.4 1.5 1.4 5.4 0 5.5 2.3 20.7 4 26.1.5 1.6 1.2 4.2 1.4 5.6.5 2.3 1.2 2.7 7.3 3.7 3.8.7 9.3 1.4 12.3 1.8l5.5.5-3-2.6c-5.2-4.7-7.1-6.1-10.1-7.9-4.5-2.8-8.6-10.1-10.5-19.1-.9-4.4-2-9.4-2.4-11.2-.7-3.1-.5-3.3 3.8-5.4 3.1-1.5 4.7-3 5-4.6.2-1.2.2-2.3 0-2.3s-2.7 2.3-5.6 5.1l-5.2 5.1-1.2-7.3c-1.6-10.5-1.5-11.3.9-3.7l2 6.6 6.3-7 6.3-7.1-1.9-4.4c-2.3-5.3-2.4-6.9-.3-3.1 2.1 3.9 3.1 3.5 3.9-1.8.7-5.1 1.3-5.3 1.7-.6.3 3.8.7 3.8 9 1.2 3.4-1.1 7.1-2 8.1-2 2.6 0 2.1-1.3-2.5-7.1-7.3-8.9-8-9.9-6.9-9.9.6 0 1.1.3 1.1.7 0 1.5 12.7 13.6 14.6 14 1 .2 3.7.1 6-.2 4-.6 4.1-.6 3.9-4.7-.2-4.7-.2-4.7-12.6-8.9-5.2-1.7-9.8-3.5-10.4-4-1.3-1.3-4.9-1.1-6.3.3-.9.9-1.2.9-1.2 0 0-.7-1.2-1.3-2.7-1.3-1.7-.1-2.1-.3-1.1-.6.9-.2 1.9-1.2 2.2-2.1 1.4-4.5 3.7-22.8 3.2-25.2-.2-1.5 0-3.2.6-3.8.7-.7.7-1.6 0-2.8-.5-1-.6-2.5-.2-3.3.7-1.4 2.2-11.8 3.6-24.5.2-2.1.6-4.1.9-4.4.6-.7.5 4.7-.3 16-.4 4.9-.4 8.8 0 8.8.3 0 2.8-4.2 5.3-9.4 5.7-11.3 5.6-13.5-.8-16.7-2.3-1.2-4.5-2.6-4.9-3.2-.3-.6.2-2.9 1.2-5.1 1-2.3 2.8-6.9 4.1-10.4 1.2-3.4 2.4-6.1 2.6-5.8.2.2-.9 4.5-2.6 9.6-1.7 5-3.1 9.7-3.1 10.5 0 1.1 7.7 6.5 9.3 6.5.3 0 .8-3 1.2-6.8.4-3.7 1.3-11.2 2-16.7 2.2-16.6 2.8-24.8 1.6-24-1.4.8-1.4-1.1-.1-3.6 2-3.6-.4-1.9-8.4 5.8-6 5.9-6.8 6.4-3.1 2.3 2.6-3 6.6-7.3 8.7-9.4 2.1-2.2 3.8-4.7 3.8-5.6 0-1-1.7-2.9-3.7-4.3-5.5-3.7-15-12.6-13.6-12.7.7 0 3.1 1.9 5.5 4.3s6.3 5.8 8.8 7.6l4.5 3.3.6-4.9c1.4-10.6 7.2-37.3 8.1-37.3.6 0 .7.8.3 1.7-1.7 4.6-6.6 34.6-5.7 35.5.6.6 2.5-.7 5.3-3.8 2.4-2.7 7.8-8.5 11.9-12.9s10.6-11.7 14.5-16c3.8-4.4 8-9 9.2-10.2 1.3-1.2 2.3-2.5 2.3-2.9 0-.3-2.6-.4-5.7-.1-5.9.6-4.8 0 3.8-2.1l3.2-.7-4.4-5.5c-2.4-3-4.8-6-5.4-6.6-.5-.6-3.2-3.7-5.9-6.8-5-5.8-7.3-6.8-8.2-3.9-.6 1.9-3.6 8.3-9.8 21.4-2 4.1-3.6 7.8-3.6 8.2s1 .8 2.3.8c1.9.1 1.9.2.3.6-2.6.7-5.7 2.6-19.1 11.8-15.7 10.8-17.7 12.5-17 14.3.3.8.1 2-.4 2.6s-.6 3.2-.1 6.1c.4 2.7 1 9.5 1.3 15l.6 10-1.4-8c-.7-4.4-1.4-10.3-1.4-13.2-.1-6.5-1.6-7.6-2.6-2-.5 2.4-1 3.5-1.2 2.4-.3-1 0-3.2.6-4.9s1.1-4.9 1.1-7.1c0-2.7.4-3.8 1.3-3.4.7.2 2.2-1.6 3.6-4.8 1.5-3.2 3.4-5.6 5-6.3 1.4-.7 4.5-3.8 6.9-7 2.4-3.1 6.2-7.7 8.6-10.2 6.5-7 15.6-18 18.1-21.9 2.7-4.3 8.1-10.1 9.4-10.1.5 0 1.8-.3 2.8-.6 1.1-.3.9 0-.5.8l-2.3 1.4 3.3 3.7c16 18 19.4 21.6 20.2 21.6.5.1 8.5-7.4 17.8-16.7 9.4-9.2 18-17.6 19.2-18.7 1.1-1.1 6.9-6.7 12.9-12.4 5.9-5.7 10.7-10.1 10.7-9.7s-12.9 13.5-28.7 29.2L495.5 106h26c28.8-.1 51.3-1.3 54.5-3 2.2-1.2 2.1-2.5-.6-8.5-.7-1.7-2-5-2.9-7.5-4.8-13.5-5.7-15.8-7.2-19-1-1.9-1.7-3.7-1.8-4 0-.8-3.5-10.1-5.2-14.2-1.3-3-1.9-3.6-3-2.7-1 .9-1.3.8-1.3-.3 0-.8.3-1.8.7-2.1 1.1-1.1 7.8-.8 9.1.5M927 119.5l5.8 5.6 18-3.8c9.9-2 17.9-4 17.6-4.4-.2-.4.6-.7 1.8-.6 2.2.2 6.2 3.2 6.9 5.4.2.6 7.9 8.3 17 17.1 13.2 12.7 17.4 16.2 20 16.6 6.7 1.1 22.2 2.7 22.5 2.3.3-.2-5.2-3.9-12.1-8.1s-12.5-7.9-12.5-8.2c0-.6 2.6.8 13.3 7.3 4.9 3 9.1 5.2 9.3 5.1.2-.2-3.1-3.8-7.2-8-4.1-4.1-7.7-8.5-7.9-9.7-.2-1.3 0-1.9.6-1.5.6.3.8.9.5 1.2-.9.9 2.6 4.2 3.7 3.5.5-.3.7-.1.3.5-.3.6.1 1.8 1 2.7 2.1 2.1 3.1 1.1 1.3-1.2-1.1-1.5-1-1.5.9.1 1.4 1.2 1.8 2.2 1.2 2.6s-.2 1.4 1.1 2.6c2 1.7 2.2 1.7 1.6.1-.8-2.2-.4-2.2 1.8.3 1.7 1.8 1.7 2 .2 1.4-2.4-.9-2.1-.2 1.3 3.7 1.6 1.9 3 3.7 3 4.1 0 .5.6.8 1.3.8.8 0 2.4 1.2 3.8 2.7 1.3 1.6 1.7 2.2.9 1.5-2.4-2-3.1-1.4-1.6 1.5 2 4.1 12.7 30.9 20.1 50.7 1.4 3.8 2.9 7.4 3.4 8s1.6 3.5 2.6 6.4c.9 2.9 1.9 5.1 2.2 4.8.3-.2-.4-3.1-1.5-6.3-3.6-10.7-5.2-16.2-5.2-18.2 0-1.2-1.6-8.2-3.5-15.7-2-7.5-3.4-13.8-3.2-14 .5-.5 5.2 16.1 6.7 23.6.6 3 1.4 6.2 1.7 7 .4.8.5 2.1.4 2.7-.1.7.3 2.2 1 3.4 1.5 2.9 5.1 16.1 9.5 34.7l3.5 15.2-1.5 12.8-1.5 12.7.6-11c1.1-19.3 1.5-17.3-4.6-20.8l-5.3-3 .3 8.1c.2 4.5 0 8.2-.5 8.2s-.7 8.2-.4 18.9c.2 10.5.1 18.8-.4 18.5-.4-.3-.8-1.3-.8-2.3 0-.9-1.6-3.6-3.6-6-2-2.3-3.4-4.4-3.2-4.7.3-.2 1.9 1.1 3.7 3.1l3.1 3.6.2-17.3c.1-9.5.1-20.5.1-24.3l-.1-7L1055 236c-18.7-30.9-22.6-36.4-20-28.4.5 1.6 2.4 11.9 4.1 22.9s3.4 20.3 3.8 20.7c.3.4 4 1.1 8.1 1.7l7.5 1-7.2-.4c-4-.2-7.3 0-7.3.4s.5 2.2 1.1 3.9c.7 2.2 1.9 3.3 4 3.7 3.4.8 3.6 1.8.9 4.5-1.7 1.7-1.8 2.1-.6 2.6 1.1.4 1.4 1.5 1 3.7-.4 2.5-.3 2.8.5 1.7.9-1.3 1.1-1.3 1.1.2 0 1 .7 1.8 1.5 1.8.9 0 1.5.9 1.4 2.2q-.15 2.4-.6.6c-.4-1.6-3.3-3.4-3.3-2s4.6 14.8 5.8 16.9c.7 1.3.8 2.3.3 2.3s-.8 1.7-.5 3.7c.4 3.7.4 3.7-.6.8-.5-1.7-.8-3.5-.5-4.2.2-.7.1-1.4-.3-1.7-.4-.2-2.5 2.3-4.7 5.6l-3.9 6.1 4.5 3.8c2.4 2.1 4.9 3.9 5.4 3.9.6 0 1-1.6.8-3.8l-.2-3.7.8 3.5c.5 1.9 1.1 4.2 1.5 5.1s0 2.1-.9 2.9c-.8.7-1.5 1.8-1.5 2.4 0 .7-1.3 4-3 7.4-4.4 9.1-4.3 9.2 3.8 9.6 1.1.1 1.6-.5 1.4-1.7-.3-1.9 1.4-2.4 2.1-.5.3.8 2.2-.4 5.1-3.2 2.5-2.4 4.6-4.1 4.6-3.7s-2.3 2.9-5.2 5.6c-4.8 4.6-5.1 5.1-4.8 9.2.1 2.4.3 5.4.4 6.6.2 3.3 1.4 1.8 5.5-7 5.3-11.3 5.3-11.4 7.3-26.2.7-5 1.4-7.7 1.6-6 .3 3-2 20.1-3.2 24-.4 1.1 0 .6.8-1 .8-1.7 2.2-5.5 3-8.5 3.8-14 4.5-18.6 4.1-29-.3-8.2-.2-9.3.5-5 2 13.6 3.2 25.1 2.6 25.7-.3.3-.6-1-.6-3 0-5.6-1.7-4.4-2.9 2-.6 3.2-1.6 7.2-2.1 8.9-.6 1.7-1 3.9-1 5s-.4 2.4-.9 3c-1.3 1.4-2.4 6.7-1.1 5.9.5-.3 1-1.2 1-2s.4-1.6.9-2c1.4-.8-.2 4.2-3.3 10.2-1.9 3.9-2.6 6.7-2.6 11.2 0 5.7.6 7.7 5.8 19.1 4.1 9.2 5.2 12.2 4.5 13.3-.3.5-.2.7.4.4.5-.3 1.9 1.4 3.1 3.8 2.6 5.4 2 6-.7.7-1.1-2-2-3.3-2.1-2.9 0 .4.7 2.2 1.6 3.9.8 1.6 2.2 4.9 2.9 7.2 2.2 6.7 6.4 17.8 7.3 19 .5.6 2.1 5 3.6 9.8 3.3 10.3 4.5 12.1 7.4 11.6 2.2-.3 1.9-1-5.2-15.3-8.2-16.6-12.9-27.5-12.3-28.1.3-.3 1.1 1.2 2 3.3.8 2.1 5.2 11.4 9.7 20.8 8.6 17.8 10.5 22.5 8.9 22.5-.5 0-.9-.4-.9-.9 0-.4-1.2-.6-2.6-.3-2.4.4-2.6.7-2 5.1.5 4.5.5 4.5-.7 1.4-1.7-4.4-2.2-4.7-2.5-1.2-.4 4.5-3.1 10.6-5 11.1-1 .3-2.6.1-3.7-.3-1.6-.6-1.4-.8 1.2-.8 2.8-.1 3.3-.6 4.8-4.5 3-7.8 2-8.2-7-2.6-4.4 2.7-8.5 5-9.1 5-1.6 0-4.5 3.5-3.7 4.4.4.4-.5.2-2-.3-1.6-.6-3.8-.9-5-.7-8.5 1.6-13.7 3-13.7 3.7 0 .5 1.9 1.8 4.2 3 3.4 1.7 4.6 1.9 6 1 1.8-1.1 1.8-1.1.2 1.4-1.4 2.1-1.6 3.9-1 9.7.3 3.9 1.1 7.7 1.6 8.3s1.2 3.1 1.6 5.5c.8 5 2 8 3.4 8 .5 0 .5-1.3 0-3.1s-1-6.1-1.2-9.6c-.1-3.5-.6-6.7-1-6.9-.5-.3-.8-.2-.7.3.4 2.4-.2 5.3-1.1 4.8-1.6-1-1.2-8.3.6-11.8l1.7-3.2 1.7 8.6c1 4.7 2.2 9.5 2.7 10.5.6 1 1.3 4.3 1.6 7.2.5 4.2.3 5.4-.9 5.9-.9.3-1.3 1.3-.9 2.7.3 1.1-.2.7-1.1-1.1-1-1.8-2.4-3.5-3.1-3.8-1.6-.6-2-.3-11.7 7.5l-6.8 5.5 5.9 2.7c3.2 1.4 6.3 2.7 6.9 2.7.7.1 2.6-2.2 4.4-4.9 1.8-2.8 3.5-4.8 3.8-4.6.5.5-2.3 4.9-6.7 10.6-1.8 2.3-1.8 3-.6 10 1.8 10.2 1.3 10.6-8.5 7.6-4.1-1.2-9.1-2.6-11.1-3-3.4-.6-3.7-.4-4.7 2.6-1 2.7-1.1 2.8-.7.5.3-1.6.1-2.7-.6-2.7-.6 0-5.3 3.6-10.5 8-5.2 4.5-9.4 7.5-9.4 6.8s1.1-2 2.4-2.8c3.4-2.2 17.6-14.2 17.6-14.9-.1-.9-17.9-12.1-19.3-12.1-.7 0-1.9.6-2.6 1.2-1.1 1.1-1.1.9-.2-.9.6-1.2 1.1-3.4 1.2-5 0-1.5.3-2.2.6-1.6.2.7.8 1.3 1.3 1.3 1.2 0 15.3-19.4 14.2-19.8-.5-.1-5.1-2.9-10.3-6.2s-10-6-10.6-6c-1.5 0-1.8-2.7-.4-3.2 1.5-.5 16.2-20.1 15.8-21.1-.3-1-19.4-11.7-20.8-11.7-.5 0-.9.7-.9 1.6 0 .8-.4 1.3-1 .9-.5-.3-1.4.9-1.9 2.7s-1 2.5-1 1.5c-.1-1 .3-2.6.9-3.6.6-1.2.6-3 0-5-.8-2.8-.7-3.1.9-2.6 1.2.4 2.1-.1 2.5-1.2.6-1.4.9-1.5 1.5-.4.7 1.1 2.2.6 7.2-2.4 9.1-5.5 10-6.3 9.6-9.9-.3-1.7-.2-2.3 0-1.4.6 2.4 2 2.3 2.8-.3.4-1.1.8-1.9 1-1.7.7.7-2.3 8.2-3.4 8.6-.7.2-3.4 1.9-6.2 3.7-2.7 1.9-6.5 3.9-8.4 4.6s-3.5 1.8-3.5 2.4c0 .9 13.4 8.7 21.1 12.3.3.1 1-1.7 1.6-4 .6-2.8.9-3.2.6-1.1-.2 1.8-.2 3.3.1 3.3.7 0 21-41 20.5-41.4-.5-.5-12.4-3.6-13.8-3.6-.6 0-1.1.9-1.1 1.9 0 1.1-.5 2.3-1.1 2.7-.6.3-1.9 2.6-2.9 5-1.1 2.4-2.2 4.4-2.4 4.4-.7 0 .8-3.9 2.9-8 1.8-3.5 1.9-6.1.3-5.5-.7.2-3.2.9-5.5 1.5-3.9 1-4.3 1.4-4.4 4.3-.1 1.8-.3 2.4-.6 1.4-.5-2-1.9-2.2-2.7-.5-.3.7-.3.1 0-1.3.6-3.1.2-3.3-10.5-5.5-4.2-.8-12.3-2.9-18.1-4.6-16.5-4.7-18.7-4.9-30.8-2.2-5.8 1.4-11 2.3-11.6 2.1-.5-.2 3.9-1.4 9.7-2.7 5.9-1.2 10.7-2.6 10.7-3 0-.8-6.1-4.9-13-8.8-1.9-1.1-8.8-5.2-15.4-9.1-6.5-4-12-7-12.2-6.8-.5.5 7.6 31.1 8.4 31.9.4.4 2.3.3 4.2-.2 1.9-.6 4.2-1 5-.9 1.8.1.9.4-4.7 1.9-3.4.8-4.3 1.5-4.4 3.3 0 2.1-.1 2.1-.8.2-.8-1.9-1.7-2-20.2-1.9l-19.4.2 18.7-.7c10.3-.4 19-1 19.3-1.3s-1.4-7.9-3.8-16.9l-4.3-16.4-4.5.2c-2.5.2-12.4 1.9-22 3.8-19.3 4-41.7 7.7-43.2 7.2-.5-.1 5.7-1.5 13.9-3 37.2-6.9 53.4-10.1 53.4-10.7 0-.4-1-1.1-2.2-1.7-1.3-.6-11.5-6.6-22.8-13.3-11.3-6.8-21.6-12.8-23-13.4-2.3-1-22-20.6-20.7-20.6.3 0 4.7 4 9.7 8.8 6.6 6.5 11.2 10 16.8 12.8 4.2 2.1 7.9 4.2 8 4.6.2.5.9.8 1.7.8.7 0 1.8.7 2.5 1.5.7.9 1.9 1.4 2.7 1.1s1.2-.2.9.3c-.3.4 1.4 1.8 3.7 3.1s6 3.5 8.2 5 6.7 4.2 9.9 6l5.9 3.3-.7-13.4c-.4-7.4-.9-16-1.3-19.2-.7-6.9.2-6.3-22.3-14.7-18.3-6.9-19.1-7.2-18.7-7.6.1-.2 5.2 1.5 11.2 3.7 6.1 2.2 15.1 5.5 20.2 7.3l9.1 3.2 1.1-9.5c.6-5.3 2-22 3.2-37.1 1.1-15.1 2.6-34.1 3.3-42.3.6-8.1.8-14.7.4-14.7-.7 0-20.8 13.4-37.3 24.9-17.4 12.1-32.7 22.3-32.1 21.2.4-.6 8.4-6.3 17.8-12.8 9.5-6.5 21.9-15.1 27.7-19.1s13.4-9.2 16.8-11.5c3.5-2.3 6.3-4.5 6.3-5 0-.4-1.2-.7-2.8-.7-1.5 0-4.3-.5-6.2-1-1.9-.6-11.6-2.6-21.5-4.6s-28.4-5.8-41.2-8.5-24-4.6-24.9-4.2c-1.1.4-1.5.3-1-.5.3-.6.1-1.4-.6-1.9-.7-.4-2.2-1.9-3.3-3.3l-2-2.5 3.5 2.6 3.5 2.6 4.7-6.6c2.7-3.6 6.4-8.9 8.2-11.6 1.9-2.8 4.4-6 5.5-7.2 1.2-1.2 2.1-2.6 2.1-3.1 0-.4 2-3.6 4.5-7 2.5-3.5 4.3-6.8 3.9-7.4s-.3-.8.3-.5c1.4.9 3.4-1.6 3-3.4-.2-.8-.2-1.1.1-.6.2.4 1.7-1.1 3.4-3.4 2.4-3.3 2.7-4.3 1.6-5-.7-.5-9.2-.9-18.8-1l-17.5-.2 18-.8c9.9-.5 18.6-1 19.4-1.1.9-.2-2.2-3.4-7.3-7.8-4.9-4.1-11.4-9.9-14.5-12.9-5.2-4.9-5-4.8 2.9 1.5 4.7 3.8 11.9 9.7 16 13.1 4.8 4.1 8 6.1 9 5.7.8-.3 11.8-4.1 24.4-8.4 12.6-4.4 23-8.1 23.3-8.4.7-.7-8.5-2.2-40.7-6.7-9-1.3-11-2.4-2.5-1.5 9.3 1.1 40.7 5.6 43.5 6.3 2.1.5 1.6-.3-3-5.1-7-7.2-5.6-7.3 2-.1m-554.5 19.6c-5.5 1.1-12.7 2.5-16 3.2l-6 1.3 3.5 1.6c16.1 7.3 31.6 13.8 32.8 13.8.7 0 4.6-2.6 8.5-5.8 8.2-6.6 12.5-9.3 5.7-3.5-2.4 2.1-6.3 5.5-8.5 7.5l-4 3.7 2.6 4.8c7.5 13.6 9.1 16.7 8.1 15.8-.9-.9-3.6-5.4-6.9-11.5-.7-1.4-2.2-3.6-3.3-5l-2.1-2.5-1.7 2.5c-6.6 9.5-27.5 38.8-31.7 44.5-2.8 3.8-7.7 10.5-10.8 14.7-3.1 4.3-5.7 8-5.7 8.3s1.2.3 2.8-.1c2.1-.4 2.4-.3 1.2.5-.8.6-2.3 1.1-3.2 1.1-2.1 0-2-1-2 16.5v14l-.9-11.4c-.4-6.3-1-12.2-1.2-13-.3-1.5-3.2 4.1-14.2 27.4-2.3 4.9-7.9 16.6-12.4 25.9-6.7 13.8-8 17.2-6.9 18.2 1.4 1.3 36.3 21.4 37.2 21.4.3 0 .7-4.6.8-10.3l.2-10.2.3 9.5c.4 12.3.5 12.5 4.4 10.5 1.7-.9 3.3-1.4 3.7-1.1.3.3.1.6-.4.6s-2.5 1-4.4 2.2-3.8 2.2-4.1 2.3c-1.1 0-29.9 16-29.8 16.5 0 1.3 23.2 18.1 23.9 17.4 1-1 5-23.6 5-28.2 0-1.7.4-3.3.8-3.6.8-.5.5 2.7-2.1 23.1-1.3 10.1-1.3 10.1.8 9.1 1.1-.6 9.1-5.3 17.7-10.4 15.6-9.3 25.1-14.4 26.4-14.4.6 0-22.4 13.7-40.8 24.3-2.1 1.2-3.8 2.5-3.8 2.9s2.6 1.2 5.8 1.8c7.5 1.5 9 2.2 2.7 1.3-11.5-1.7-12.2-1.5-26.6 8.2-7.4 4.9-15.1 10.2-17.3 11.7-3.8 2.7-3.8 2.8-1.5 3.7 1.9.7 1.5.9-2.1.7-3.2-.2-7.5.8-14.8 3.5-8.5 3-10.3 3.4-9.9 2.1 3.4-11.7 4.5-16.2 4.2-16.2s-3.4 4-7.1 9c-7.4 10.2-9.7 12.2-3.2 2.9 9.7-14 11-16.1 9.1-15.6-1 .3-4.2 1.1-7 1.7-2.9.7-5.4 1.6-5.4 2.1-.1.5-.3 1.3-.4 1.9-.1.5-.3 2.9-.4 5.2-.2 3.7-.4 4-1.1 2-.5-1.2-.7-3-.4-4 .4-.9-.3-.4-1.3 1.3-1.1 1.6-2.3 4.2-2.6 5.7-.4 1.6-1.2 2.8-1.7 2.8-1.6 0-1.1 2.7.6 3.4 3 1.1 4.4.6 4.5-1.7v-2.2l.9 2.2c.5 1.3 1.7 2.3 2.7 2.3 1.4 0 1.2.3-.7 1.4-1.4.7-2.9 1-3.5.6-.5-.4-2-1.1-3.2-1.4-2-.6-2.3-.4-2.3 2 0 1.5-.3 2.5-.6 2.1-.4-.3-.6-7-.5-14.9s-.3-14.9-.8-15.7c-1.1-1.6-1.5-.9-3 5.4-.7 2.7-1.6 6.6-2.1 8.5s-1.2 5.6-1.5 8.3c-.7 4.3-.6 4.7 1.1 4.1 1.8-.6 1.8-.6 0 .8-2.2 1.7-2.3 1.1 3.3 20.3 4.5 15.5 6.8 20.8 8.8 20.1 1-.4 1-.1.2 1.3-.9 1.4-.6 2.6 1.7 6.2 1.5 2.4 3.9 6.4 5.2 8.9s3 5 3.8 5.6c1.9 1.5 1.9 4.5-.1 3.8-.8-.4-1.5-1.2-1.5-2 0-1.3-4.2-8.8-8.4-15.1l-2.4-3.5-1.2 3.7c-.7 2-1.4 3.4-1.7 3.2-.2-.3.2-2 1-3.8 1.3-3.2 1.1-4.2-2.4-15.4-7.8-25-7.9-25.2-7.3-21 .3 2.2.9 7.1 1.3 11 1 9 4.1 29.6 4.7 31.5.4 1.3.6 1.3 1.5 0 .7-1 .8-.2.3 2.5-.8 4.4-.8 5.6.1 13.3.4 2.8 1.1 5.2 1.6 5.2s.9-.4.9-.8c0-.5 2.1-2.3 4.8-4.1l4.7-3.2-5.3 4.6c-5.1 4.6-5.2 4.7-3.7 7.3 2.6 4.9 4.6 9.2 4.1 9.2-.3 0-1.7-2.3-3.2-5-1.5-2.8-3-5-3.4-5s-1.3 1.1-2 2.5c-1.9 3.5-2.3 2.5-.5-1.2 1.1-2.3 1.3-4.3.6-8.9-.9-6.9-1.2-6.3-4.1 7.1-1.1 5.4-2.3 10.1-2.5 10.4-.9.8-.4-3.4 1.1-9.9 4.1-18.2 4.3-19.9 2.2-33.6-1-7.1-2.3-15.6-2.7-18.9l-.8-6-.2 4.9c0 2.7-.7 5.7-1.4 6.5-.8.9-2 3.8-2.7 6.5-.8 2.8-1.5 4.5-1.8 3.8-.2-.6.2-2.8.8-4.8 1.4-4.3 1.2-4.7-2.1-3-1.4.7-4.7 2.1-7.2 3.1-6.9 2.6-7.7 4.1-3 5.4 11.3 3.2 11.2 3.1 5.8 2.5-2.7-.3-5.8-.7-6.7-1-1-.3-1.8 0-1.8.6s-1.3.2-3-1c-2.5-1.8-3.8-2-7.7-1.4l-4.7.7 3.9 1.5c3 1.2 4.1 1.3 5.7.3 1.8-1.1 1.9-1 1.3.8-.5 1.7 0 2.1 2.8 2.6 1.8.4 3.8 1.5 4.5 2.6 1.2 1.8 1.1 1.8-2.3-.1-2-1.1-4.2-2-5-2-.7 0-4.6-1.4-8.5-3.2-5.1-2.3-7.2-3.8-7.6-5.5-.4-1.3-1-2.3-1.5-2.3s-.8-.3-.8-.8c.1-.4.1-1.6 0-2.7-.1-1.5-.3-1.7-1-.6-.6 1-1.1.5-1.6-1.9-.6-2.8.2-5.2 5.6-15.9 10.9-21.9 18-37.2 23.6-51.1l5.5-13.5-.9-14.5c-1-18.2-1-44.6 0-66 .8-17.5 2-22.7 14.3-62.8 1.9-6.1 5-16.5 7-23 5.5-18.3 6.4-20.1 10.9-23.9 2.3-1.9 5.1-4 6.3-4.6 1.1-.7 4.3-2.7 7.1-4.4 7.8-5 6.1-3.1-2.1 2.4-13.7 9-14 9.5-19.7 27.1-2.8 8.6-6.3 20.2-8 25.7-1.6 5.5-4.7 16-7 23.4-2.2 7.4-3.9 13.6-3.7 13.8s3.4-5.6 7-12.9c3.7-7.3 7.6-14.7 8.6-16.3.9-1.7 2-4.2 2.4-5.8.3-1.5 1.1-2.7 1.7-2.7 1.3 0 2.3-2.3-10.6 23.2-6.1 11.9-10.8 21.9-10.5 22.2s3.3-.1 6.5-.9c3.3-.7 6.1-1.2 6.3-1 .5.4-5.5 2.2-10.1 3-2.1.3-4 1.1-4.2 1.8s-.6 9-1 18.6c-.3 9.6-.8 17.8-1.1 18.3-.3.4-.2 1.3.2 1.9.3.6 2.3-3.9 4.4-10 2-6.2 4.1-11.5 4.5-11.9.5-.4.6 0 .3.8s-2 6-3.8 11.5-3.8 11.1-4.3 12.5c-.6 1.4-1 2.7-1 3s.3 2.5.7 5c.4 3.1.3 4-.4 3-1.4-2.1-1.3 5.5.1 13.4 1.5 8.7 4.2 17.4 4.7 15.3.2-1-.3-3.7-1.1-6.2-1.7-5-1.2-6.4 1.3-3.3 1 1.3 2.3 1.9 3.3 1.5 1.5-.6 1.5-1 .2-4.1-2-4.7-1.9-5.3.5-2.6l2 2.3.1-3.4c.1-3.1.2-3 1.4 1.6.7 2.7 1.3 4.2 1.4 3.2.1-1.2 1-1.7 3.4-1.7 6.1 0 6.4-1.1 2.3-8.9-2-3.9-3.5-7.1-3.3-7.1.3 0 2.6 3.6 5.3 8.1l4.9 8.1 1.2-2.9c1.1-2.5 1.2-2.6 1.3-.6 0 2.5 2.5 4.2 6.4 4.5 1.5.1 2.6.5 2.6.9s.7.9 1.5 1.3c2.6.9 1.7-2.6-2-8.9-2-3.2-3.4-6-3.2-6.2.4-.3 7.9 10.5 11.3 16.4 1 1.8 2.2 3.3 2.6 3.3s.8.7.8 1.6c0 3.1 1.9.2 4-6.2 1.2-3.6 2.4-6.3 2.7-6.1.2.3-.3 2.6-1.1 5.1-.9 2.6-1.6 6.2-1.6 8 0 3.4 0 3.4 7.1 5 3.9.9 7.8 1.6 8.5 1.6 1.6 0 1.8-4 .4-8.4-.5-1.7-1.9-8.6-3.1-15.4-1.2-6.7-2.5-12.2-2.9-12.2s-.7-.8-.6-1.7c.1-1.4-.7-1.7-3.9-1.6-3.7.1-3.8.1-1-.6 2.7-.7 2.8-.9 1-1.6-1.1-.5-3.1-1.6-4.5-2.5-6.2-4.3-34-20.8-34-20.3 0 .4 2.4 6.4 5.3 13.5l5.2 12.8 4.5-.1c2.5 0 7.8-.4 11.8-.8 3.9-.4 7.2-.4 7.2 0 0 .6-2.9 1.1-16.7 2.5-4.8.5-6.3 1-6.3 2.2 0 1.4-.1 1.4-1.2 0-1.6-2.1-15.2-6.2-15.6-4.7-.3.7-.8.7-1.6 0-.9-.8-2.3 0-5 2.8-3.2 3.3-3.6 4.2-2.7 5.9.6 1.1 1.1 2.7 1.1 3.4-.1.7-.9-.3-1.9-2.3-1.4-2.8-1.6-4.7-1.1-7.5.6-3.2.8-3.4.9-1.2.1 3.6 1 3.5 4.9-.5l3.1-3.2-2.2-3.9c-2.6-4.7-4-4.8-4.9-.4-.6 3-.6 2.9-.3-.7.1-2.2 2.3-9.9 4.8-17 4.8-13.9 6.4-15.8 2.2-2.8-1.4 4.5-2 7.9-1.5 8.1.6.2.7.8.4 1.4-.4.6-1 .5-1.6-.3-.7-1-.8-.9-.4.5.4 1 .2 2.4-.4 3.1-.7.8-.3 2.4 1.3 5.3 2.5 4.8 3.4 5.2 4 1.9.3-1.4.5-1 .6 1.3.1 3.6.2 3.6 7.1 5.7 5.5 1.6 7 1.7 7 .7 0-1.1-8.7-24.3-9.5-25.2-.1-.1-1.1 3.2-2.1 7.4-1 4.3-2 7.2-2.2 6.5-.4-1.1.8-7 2.5-12.6.5-1.7.4-1.8-1.1-.6-.9.7-1.6.9-1.6.3 0-.5.7-1.5 1.5-2.2 1.1-.9 1.5-3.4 1.5-10.4-.1-8.2-.2-8.9-1.4-6.7-.8 1.4-1.1 3.2-.8 4 .3.9.1 1.2-.6.7-.8-.4-1.8.8-2.8 3.4-.9 2.2-1.9 3.9-2.1 3.6-.3-.2 1.2-4.2 3.3-8.8 3.8-8.4 8-25.4 12.4-49.4l2.2-12.2 3.7-1.6c2-.8 4.3-2 5.1-2.5s6.5-3.6 12.5-6.9c15.3-8.2 29.5-16.4 29.5-17.1 0-.3-6.2-2.6-13.6-5.1l-13.6-4.5-1.7 2.4c-.9 1.3-4.2 7.4-7.4 13.5-7.7 14.5-10.8 19.8-11.3 19.4-.4-.5 5.7-12.5 11-21.8 6.8-12 7.2-13 5.6-14-1.2-.8-1.1-1 .5-1 2.1 0 4.8-2.4 22.8-19.8 5.3-5.2 9.9-9.3 10.2-9.1.2.3-6.1 6.7-14 14.3-8 7.6-14.5 14.2-14.5 14.7 0 .4 2.8 1.7 6.3 2.8 3.4 1.1 9.4 3.1 13.2 4.5 6 2.1 7.2 2.3 8.1 1 .6-.7 1.5-1.4 2-1.5.5 0 5.7-5.5 11.7-12.2 5.9-6.7 12.7-14.4 15.2-17.1 2.5-2.6 4.5-5 4.5-5.1 0-.2-.8-.6-1.7-.8-1.2-.3-.9-.5.7-.5 4.5-.1 12.3-1.2 21.5-3.1 5-1 10.4-1.9 12-1.9 1.7 0-1.5.9-7 1.9m23.8 110.6c-.3.8-.1 1.8.5 2.2.7.4.6 2.3-.4 6.1-.8 3-1.3 7.2-1.1 9.2.3 2.1.1 5.4-.3 7.5s-1.1 7.1-1.5 11l-.6 7.3h2.9c3.3 0 7.2-4.7 11.6-14 1.5-3 3.6-6.6 4.7-8 2.3-2.8-5.3 12-8.3 16.2-1.1 1.6-1.6 2.8-1.2 2.8s-.1.9-1.1 2c-1.2 1.3-3.1 2-5.6 2h-3.8l.6 9.5c.4 6.8.2 9.5-.6 9.5-1.6 0-1.4-18.3.3-35 .8-7.4 1.8-18.5 2.2-24.5.5-8 .9-10.2 1.5-8.2.4 1.6.5 3.6.2 4.4m400.9 59.1c-7.8 8.1-12 13-13.6 15.4-1 1.6-2.3 2.8-2.8 2.8-1 0 2.9-5.3 9.4-12.9 2.1-2.4 3.8-4.8 3.8-5.3 0-1.3-5.1 0-7.1 1.8-.8.8-2 1.4-2.5 1.4-.5.1-2.2 1.2-3.9 2.6l-3 2.5 3-.7 3-.7-2.8 2.8c-1.9 2-2.4 3.1-1.6 3.6 1.4.8-2 8.4-6.2 13.9-1.5 1.9-3 4.7-3.3 6.2-.4 1.6-1.1 2.8-1.6 2.8-1.3 0-1.3-2.2-.1-5.4.6-1.3 1.1-5.9 1.2-10.1.2-6.5.6-8.1 3-11.4 1.5-2.1 4.8-4.8 7.3-6.1 4.9-2.3 5.9-4 2.6-4-1.1 0-2-.5-2-1.1 0-.5.4-.7 1-.4 2 1.2 15.2.6 16.6-.8.4-.3 1-.4 1.5-.2.4.3-.5 1.8-1.9 3.3m2 55c-.7 2-1.7 7.5-2.2 12.2-.9 7.4-2.3 12.3-4 14-.3.3-1 1.4-1.6 2.5-1 1.8-5.3 4.7-10.9 7.4-4 1.8-6.3 4.8-5.8 7.5.3 1.3-.2 3.8-1 5.5-.9 1.7-1.1 3.3-.6 3.6 1.1.7 4.6-3 9.1-9.5 3.7-5.6 5.9-6.7 3.1-1.8-2.7 5-7.5 10.5-11.4 13.1-6.1 4.1-6.2 4.1-5.5 1.9.6-1.6-.3-2.5-4.9-5.1-3-1.7-5.9-3.1-6.4-3.1-1.4 0-3 5.6-2.4 8.1.4 1.5.3 2-.5 1.5-2-1.2-1.2-5.8 2.5-14.3.7-1.7 1.6-4.5 1.9-6.3.4-1.7 1.5-3.5 2.5-4.1 1.1-.5 2.8-2.8 3.9-4.9 1.1-2.2 2.3-4 2.5-4 1.3 0 .2 4.9-1.5 6.8-2.5 2.7-2.5 3.2 0 3.2 1.1 0 3.7.7 5.7 1.5 3.6 1.5 3.7 1.5 9.9-2.2 3.5-2.1 6.4-4.1 6.4-4.6 0-.4-2.5-.8-5.5-.8-3-.1-6-.2-6.7-.3-1.9-.2-2-2.2-.2-4 2.2-2.3 3.7-9.2 2.4-11.6-1.6-2.9-1.2-3.5 1.1-1.4 2.5 2.3 4.4 1.3 7.9-4 1.3-2.1 2.6-3.3 2.8-2.7s-.4 2.1-1.2 3.3c-1.8 2.5-2.2 8.8-.6 8.8h1.8c.4 0 1.2 1.5 1.8 3.3l1.1 3.2 1.2-3.8c.7-2.1 1.4-4.8 1.6-6 1-5.9 2.4-16.9 2.4-17.5-.1-.4 0-2.3.1-4.2l.2-3.5 1.1 4.3c.7 3 .7 5.3-.1 8M244.1 451c-.9 10.9-.6 46.3.4 48 .6 1 1.3.7 3.2-1.6l2.5-2.9-2.1 4.2c-2.6 5.2-2.6 5.2.2 6.3 1.9.8 1.7.9-1.4.9-3.4.1-12 3-9.1 3.1.7 0 1 .5.6 1.1-.4.7.6 1 3.2.7 3.3-.2 3.8 0 3.9 2 .1 1.3 1.1 3.2 2.2 4.4 2 1.9 2.1 2 4.9.2 1.6-1 4.6-3.1 6.7-4.7s4-2.7 4.2-2.5c.3.2-2.4 2.6-6 5.2s-6.5 5.1-6.5 5.5c0 1 13.7 14.5 15.2 15 .7.2 1.8 1 2.5 1.7 1 1 .9 1.3-.2 1.8-.9.3-1.5 0-1.5-.9 0-.8-.4-1.5-.8-1.5s-4.1-3-8.1-6.7c-5.2-4.7-7.2-6.1-6.7-4.5 1.6 5.8 1.8 6.7.7 5.2-.6-.8-1.1-2-1.1-2.7 0-.6-.4-2.3-1-3.8l-1-2.6-5.6 3c-3 1.7-6.1 3.1-6.7 3.1-.7 0-.1-.6 1.3-1.3 1.6-.8 2.7-2.5 3.2-5.2.5-2.2 1.3-4.4 1.8-4.9 1.8-1.8 1.1-3.8-1.2-3.5-1.9.3-7.8-4-7.8-5.6 0-.2 1.8-.6 4.1-1 2.2-.4 3.9-1.1 3.7-1.5-.5-1.4-11.7-12.8-13-13.2-.9-.3-.6-2.3 1-7 1.1-3.6 2.7-9.6 3.4-13.3 1.2-6.7 1.2-6.8-1.3-8.9-1.3-1.1-3.3-3.2-4.4-4.6-1.4-1.8-1-1.6 1.4.6l3.3 3.2 3.9-1.7c2.1-.9 3.9-2.2 3.9-2.9 0-.6.6-1.1 1.3-1 .7.2 1.3-1 1.5-3.2.3-4.7 1.3-10.3 1.6-9.9.2.2.1 3.8-.3 7.9m718.3 25.2c-.3.5-1.2.8-1.9.8-.8 0-4.3 2.6-7.7 5.9-3.5 3.2-9.8 8.9-14 12.6-4.3 3.8-7.8 7.4-7.8 8.1 0 1.1 14.3 14.8 22.8 21.9l3.2 2.7.1-3.4c.1-3.1.2-3 1 1.1.5 2.5 1.4 4.8 2.1 5.2s1 1.1.6 1.4c-.6.6-7.3-5.2-22.5-19.7l-9.2-8.8-21.8-.2-21.8-.3 20.5-.2c13.6-.2 21.3-.7 23-1.5 2.8-1.4 14.1-10.9 24.4-20.6l6.9-6.5-1.8-5.1c-3-8.3-2.9-8.5.8-1.1 2 3.8 3.3 7.3 3.1 7.7m-265.6 24.3c-.3 3-.1 3.5 1.7 3.6 2 .1 2 .1 0 .6-2.2.6-14.5 12.9-26.5 26.5-4.1 4.7-10.8 10.9-14.9 13.9-4 3-7.9 5.9-8.5 6.4-.6.6-5.7 4.4-11.3 8.5-5.7 4-10.3 7.9-10.3 8.7 0 .7-1.1 1.3-2.5 1.3-1.9 0-2.3.4-1.9 1.7s.3 1.5-.4.5c-.7-1.1-2-.8-6.3 1.2-15.5 7.2-43.6 19.6-44.5 19.6-3.1 0-4.9 3-5.5 9.2l-.6 6.3-.1-5.8c-.1-3.1-.4-5.7-.7-5.7-.4 0-6.3 3.9-13.3 8.7-7 4.9-15.1 10.4-17.9 12.3-2.9 1.9-5.3 3.7-5.3 4s2.9 2.1 6.4 4c3.6 1.9 6.3 3.6 6.1 3.8-.2.3-3.2-1.1-6.7-3s-7.1-3.4-8.1-3.2c-.9.1-1.5-.2-1.2-.6.6-1-28.2-26-39.4-34.1-7.3-5.3-19.1-12.9-20-12.9-.5 0-1.1-.4-1.3-.8-.1-.4-1.8-1.8-3.6-3.1s-3.1-2.5-2.9-2.7c.5-.5 4.7 1.6 6.7 3.4 4.5 4 25.6 17.2 27.4 17.2.3 0 .2-.7-.1-1.7-.4-1.1-.3-1.4.5-.9.7.4 1.2 1.6 1.2 2.6 0 2.5 1.7 3.5 3.6 1.9 1.2-1 1.3-.9.8.5-.6 1.4.9 1.6 14.5 1.6 11.4 0 15.1-.3 15.2-1.3q0-1.5.6 0c.3 1 4.6 1.3 16.6 1.3 18.1 0 20.8-.7 21.8-5.5.5-2.1.7-2.4.8-.9.2 3.7 2.3 4.6 6.7 3 3.6-1.3 30.4-13.1 40-17.7 2.2-1 4.6-1.9 5.3-1.9.8 0 1.1-.6.7-1.6-.3-.8-.2-1.3.3-1s2-.3 3.3-1.4c1.4-1.1 2.8-1.7 3.1-1.4s5.2-2.9 10.9-7.2c5.7-4.4 12.6-9.4 15.3-11.3 5.7-3.9 12.5-10.1 12.5-11.4 0-1.1 2.2-3.1 3.9-3.5.8-.2 2.3-1.5 3.5-3 1.1-1.5 4.8-5.6 8.2-9.2 11-11.6 14.1-15.7 14.8-19.4.9-4.6 1.9-4.7 1.4-.1m-266.3 30.2c2.3 6.2 5.4 10.5 6.7 9.6.7-.4.9 0 .5 1-.3 1-.2 1.7.3 1.7.6 0 1 .7 1 1.4 0 1.7 7.8 12.1 13.8 18.6 2.6 2.7 4 5 3.7 6-.3.9.5 3.2 1.8 5.1s6 10.1 10.6 18.4c4.6 8.2 9 15.7 9.7 16.6.8.8 1.4 2 1.4 2.5s2.7 5.2 6 10.4c3.2 5.2 5.7 9.6 5.5 9.9-.5.4-4.4-4-4.5-5.1 0-.4-1.6-3.2-3.5-6.2s-3.5-5.7-3.5-6-1.5-2.9-3.3-5.8c-1.9-2.9-5.5-9.4-8.1-14.3-4.6-8.6-10.7-18.8-14.7-24.7-1.1-1.5-1.9-3.3-1.9-4 0-1.2-2.2-4.2-9.8-13.3-5.9-7.2-13.3-19.8-14.6-24.8-1.1-4.4.9-2.4 2.9 3M985 548.6c5 3.5 6.6 4.2 6.8 3 .2-.9.7-1.6 1.2-1.6s.6.7.3 1.7c-.5 1.2-.3 1.4.7.8.7-.5 1.1-.4.7.1-1 1.6 1.7 3.9 7.3 6.3 10.1 4.3 14.4 6.3 21.8 9.9 7.8 3.9 8.4 3.8 10.1-1.8l1.1-3.5-.3 3.2c-.3 2.9-.2 3.1 1.7 2.1 2.1-1.1 2.1-1.1.2 1.1l-1.9 2.1 3.4.1 3.4.1-3.8 1.1-3.8 1.2 7.2 7c3.9 3.8 6.8 6.1 6.4 5s-.8-4.5-1-7.5c-.3-5.4-.2-5.4.5-1 .7 4.5.7 4.5 1 1 .3-2.9.4-2.5.9 2 .6 5.9-.1 12.8-1.5 13.9-.5.3-1 1.2-1.2 1.9-.3 1.3-7.2 10.2-8 10.2-.6 0 3.6-5.6 5.3-7 .8-.7 1.5-1.7 1.5-2.2 0-1-3.6 1.5-8.6 5.9-1.8 1.5-5.7 4.8-8.7 7.3-3.1 2.5-5.6 4.8-5.7 5.2 0 .4.9 1 2 1.3s2 1.1 2 1.6c0 1.2-1.7 1.2-2.5-.1-.3-.6-1.5-1-2.5-1-2.2 0-3.9-2.2-2.2-2.8.7-.2.9-.8.6-1.4-.4-.6.1-.8 1.3-.4 1.5.5 4.6-1.6 12.9-8.7 16.6-14.3 15.9-12.2 7.8-21.2-3.7-4.1-7.1-7.5-7.5-7.5s-1.2 1.2-1.8 2.7c-1 2.6-1.1 2.6-.6-.9l.6-3.8-8.8-4.1c-18.6-8.7-28.7-12.9-31.2-12.9-2.1 0-2.3-.2-1.1-1 1.3-.9 1.3-1.2-.2-2-.9-.6-3.8-2.6-6.3-4.5s-5.2-3.5-6-3.5-1.5-.5-1.5-1c0-1.7 1.3-1.1 8 3.6m-365.9 28.1c-2.5 3.3-17.9 24.7-20.3 28.3-2.1 3.1-13.2 17.2-21.6 27.5-3.5 4.3-6.1 8.2-5.9 8.9.5 1.5-1.7 3.6-3.8 3.6-.9 0-4.2.7-7.2 1.6s-5.7 1.4-5.9 1.1c-.3-.2 1.7-1 4.3-1.7 6.4-1.7 7.1-2.5 3.7-4.5-1.6-.9-2-1.3-.9-1 5.3 1.8 5 2.2 4.9-7.7l-.1-9.3.4 8.2c.3 5.8.8 8.3 1.6 8.3 1.5 0 16.2-18.3 33-41 14.6-19.7 18.7-25 19.4-25 .2 0-.5 1.2-1.6 2.7m585.1 98.8c1.1 1.4 2.3 2.3 2.7 2 .9-.5 3.1 3.9 3 5.8 0 .7-.7-.2-1.4-1.8-1.7-3.7-1.9-1.6-.3 3.9 1.5 5.4 2.8 6.7 2.3 2.5-.2-1.9-.1-2.6.1-1.7 1 3.3 2 1.9 4.4-5.7 1.8-5.6 2.8-7.5 4.1-7.5 1.6 0 1.4 1-1.6 9.6-2 5.2-3.6 11.1-3.8 12.9-.2 3.1-.4 3.4-2.7 2.8-1.4-.3-2.6-.7-2.7-.7-.4-.3-7.5-20-8-22.4-.7-3 1.4-2.9 3.9.3m20.8 5.1-.8 3.6 2.3-2.2c1.8-1.7 3-2 5.3-1.5 1.7.3 3.6 1.3 4.3 2.1.6.8 1.6 1.4 2.2 1.4s1.8.7 2.8 1.6c1.6 1.4 1.8 1.4 2.9-.5 1.5-2.9 6.7-5.4 9.6-4.7 3.5.9 9.9 4.9 8.5 5.4-.9.3-.7.9.5 2.3.9 1.1 1.4 2.2 1.1 2.6-.4.3-.7.1-.7-.5 0-.7-.4-1.2-1-1.2-.5 0-1 .9-1 1.9 0 2.6-4.4 7.6-5.8 6.7-.8-.5-.6-1.3.8-2.8 2.7-2.9 2.7-7.8.1-7.8-2.2 0-5.1 3.5-5.1 6 .1 2.1 4.6 7 6.5 7 .9 0 2.7-1.1 4-2.5 3.1-3 3.3-2 .3 1.2-2.4 2.5-4.8 2.9-8.1 1.1-2.1-1-2.1-1-.7.7s1.4 1.7-.7.7c-1.2-.7-2.9-2.2-3.7-3.4-.9-1.2-1.6-1.9-1.6-1.4 0 .4-1.1-.1-2.5-1.2-1.5-1.2-3.4-1.8-5-1.4-1.4.2-2.4.7-2.1.9.3.3-.5 1.4-1.7 2.3-3.2 2.7-1.2 3.7 2.8 1.5 4.3-2.3 5.7-1.2 2.5 1.8l-2.4 2.2 1.8-2.3c2.2-2.6 1.5-2.8-1.9-.6-1.6 1-3.4 1.4-5.1 1-1.8-.5-2.4-.3-1.8.5.9 1.5-.7.6-5.4-2.9-2.2-1.7-3.1-3-2.7-4.1.3-.8.3-1.2-.1-.9-.9 1-2.9-1.3-3.7-4-.3-1.3-.3-2.1 0-1.8.8.8 4.3-6 4.3-8.4 0-1.1.4-2 .9-2s.5 1.5.1 3.6"/><path d="M559.4 46.5c-.3.7 1 5.1 2.9 9.7s6.3 15.3 9.7 23.8c3.5 8.5 6.9 17.2 7.8 19.2.8 2 2.1 3.9 2.8 4.2s3.7-.7 6.6-2.2C627.7 81.2 640 74.6 640 74s-19-7.4-50.5-18c-13.2-4.4-25.3-8.7-26.8-9.5-2.4-1.2-2.9-1.3-3.3 0M636.5 78c-1.6.9-7.3 4-12.5 6.8s-15.3 8.2-22.5 12c-7.1 3.9-13.1 7.4-13.2 7.9-.2.6 6.9 1.5 15.9 2.2 9 .6 19.5 1.4 23.4 1.7l7 .6 1.3-5.8c.8-3.3 1.9-8.4 2.7-11.4 1.7-7.3 2.5-14.8 1.6-15.3-.4-.3-2 .3-3.7 1.3M642.5 79.2c-.3 1.8-1.1 5.8-1.6 8.8-.6 3-1.4 7.1-1.9 9s-1.2 5.5-1.5 8l-.7 4.6 9.4 4.1c5.1 2.3 14.5 6.5 20.8 9.3 13.1 5.9 15 6.6 15 5.4-.1-.9-.5-1.5-12.6-17.5-9.8-13.1-15.3-20.6-19.3-26.4-1.9-2.8-3.8-5.3-4.3-5.6-.6-.3-.9-1-.8-1.5s-.3-1-.8-1.2c-.6-.2-1.3 1.2-1.7 3M647.9 78.8c.8 1.6 14.6 20.3 23.6 32.3 9.6 12.7 13.9 17.9 14.6 17.9 1 0 1.7-5.7 2.4-20.2.6-11.4.6-11.7-1.7-12.9-3.5-2-5.5-2-6.2-.2-.6 1.3-1.1 1-3.1-1.9-2.2-3.3-12.5-9.1-27.3-15.5-3.2-1.3-3.3-1.3-2.3.5M461.8 87.9c-.4 1.1-5.8 7.7-14.3 17.4-3.3 3.8-8.4 9.9-11.3 13.5-2.9 3.7-6.9 8.3-8.9 10.4-4.5 4.6-3.9 6.5.9 3 2.1-1.5 7.9-5.7 13-9.4 7.1-5.1 9.8-7.6 11.4-11C459.2 98.3 464 88 464 87.6c0-1-1.8-.7-2.2.3M636.6 113.3c-1 3.1-5.6 37.4-5.6 41.4 0 1.4 2.9.3 26.9-9.6 19-7.9 25.1-10.8 25.1-11.9 0-.4-1.8-1.5-3.9-2.5-40.9-18.8-42-19.3-42.5-17.4M480.4 122.6c-17 18.7-20.9 23-25.8 28.5-2.6 3-5.9 6.6-7.2 8.1-1.3 1.4-2.4 3-2.4 3.4 0 .6 11.4 16.1 16.2 21.9.9 1.1 4.9 6.2 9 11.3 13.8 17.7 13.6 17.5 14.2 15.5.3-1 1-7.9 1.5-15.3 1-12.2 1.7-24.9 4-68 .4-7.4.5-13.9.1-14.3-.4-.5-4.7 3.6-9.6 8.9M665.5 144.1c-9.9 4.3-19.5 8.4-21.3 9-4 1.3-12.2 5.8-12.2 6.7 0 .8 9.2 7.2 10.3 7.2.4 0 3.2 1.8 6.1 3.9 5.6 4.2 12.6 7.6 12.6 6.2 0-.5 2.5-4.9 5.5-9.7 3.1-4.9 6-9.6 6.5-10.4 3.5-5.6 11.2-20.1 10.9-20.4-.2-.2-8.5 3.2-18.4 7.5M682.4 144.7c-2.4 4.2-6.3 10.7-17.5 29.6-1.6 2.7-2.9 5.2-2.9 5.7 0 .8 2.2 2.6 18 15.1l6.5 5.2.8-5.4c.5-3 .6-10.6.3-16.9s-.6-17.5-.6-24.8c0-7.7-.4-13.2-1-13.2-.5 0-2.1 2.1-3.6 4.7M631.5 164.8c.4.9 1.1 3 1.5 4.7 2.8 10.4 8.3 28 10 32.1l2.1 4.8 6.9-12.9c3.8-7 6.7-13.1 6.5-13.6-.3-.4-2.9-2.1-5.8-3.8-2.8-1.7-9-5.4-13.5-8.1-5.6-3.3-8.2-4.4-7.7-3.2M443.6 167.2c-.3.7-1.2 8.3-2.1 16.8s-2.1 18.9-2.5 23c-.5 4.1-.9 9.3-.9 11.4l-.1 3.9 5.3-.6c2.8-.4 12.9-1.4 22.2-2.3 9.4-.9 17.2-1.8 17.4-2 .6-.6-6.2-10.4-12.1-17.4-2.9-3.6-6.3-7.7-7.3-9.1-12.9-17.2-18.8-24.9-19.2-24.9-.2 0-.5.6-.7 1.2M629 169c-.1.8-.3 2.6-.5 4-.3 2.3-1.8 35.7-1.9 40.7 0 2.9.5 2.9 5.7.4 2.3-1.1 5.4-2.4 6.9-3 3-1.1 3.1-2.9.4-12.1-3.3-11-10.5-31.5-10.6-30M653.8 195.1c-3.6 7.1-6.2 13.1-5.9 13.3 1.9 1 36.3-5.5 36.7-6.9.2-.6-4.2-4.4-9.7-8.5-5.6-4.1-11.1-8.3-12.3-9.2-2.2-1.7-2.2-1.7-8.8 11.3M521.5 197.9c-1.1.3-4.7 2.3-7.9 4.5-3.3 2.1-7 4.3-8.3 4.9-1.3.5-2.3 1.6-2.3 2.4 0 .7-.6 1.3-1.3 1.3-1.9 0-7.7 3-7.7 3.9 0 .5 1.4 1.1 3.1 1.5 4 .8 55.4.8 56.2 0 .9-1-.4-3.4-1.9-3.4-.8 0-1.4-.4-1.4-.9s-.8-1.1-1.7-1.5c-1-.3-3.6-2-5.8-3.6-2.2-1.7-6.4-4.2-9.2-5.6-2.9-1.4-5.3-2.9-5.3-3.2 0-.9-3.9-1.1-6.5-.3M680.5 205c-9.1 1.2-29.9 5.1-31.3 5.9-1.1.6-.7 1.4 1.9 3.4 1.9 1.5 8.1 6.3 13.8 10.8 5.7 4.4 10.7 7.7 11.1 7.2.5-.4 2.7-6.4 5.1-13.3 2.3-6.9 4.7-12.8 5.2-13.1 1.7-1.2-.7-1.5-5.8-.9M644.1 219.8c-.6 3.7-1.6 10.3-2.2 14.7-.5 4.4-1.2 8.8-1.5 9.7-.4 1.2 0 1.8 1 1.8 2.1 0 21.1-6.3 27-9l4.8-2.2-5.2-4.6c-2.9-2.6-6-5.1-6.9-5.6s-4.3-3-7.6-5.6-6.5-4.9-7.1-5.3c-.7-.4-1.5 1.7-2.3 6.1M463.5 221c-18.5 2-24.5 3-24.5 3.9 0 1.2 9.2 15.3 17.3 26.6 4.5 6.3 10.4 14.6 13 18.5 2.6 3.8 5.2 7 5.7 7 1.1 0 2.7-7.4 5.5-27 1.4-9.1 2.9-19.2 3.5-22.5.5-3.3 1-6.6 1-7.3 0-1.5-1.1-1.4-21.5.8M489.2 222.2c.6 1.8 1.5 3.7 1.9 4.2.5.6.9 1.6.9 2.3 0 .8.8 2.5 1.7 4 1 1.4 1.8 3.1 1.9 3.7.1.7 1.1 3.2 2.2 5.6 6.7 14.8 8.1 18.1 8.3 18.8.1.4 1.4 3.4 2.9 6.8 1.5 3.3 3.1 7.1 3.5 8.5 1.3 4.3 10.4 22.7 11.6 23.5.7.4.9.3.6-.4-.4-.5 0-2.3.8-3.9.8-1.5 3.1-6.4 5.1-10.8s5.4-11.7 7.5-16.3c2.2-4.6 3.9-8.5 3.9-8.7s2.5-5.7 5.5-12c3-6.4 5.5-12 5.5-12.5s1.6-3.9 3.5-7.7c1.9-3.7 3.5-7.1 3.5-7.6 0-.4-16.2-.7-35.9-.7h-36zM564.2 220.9c-.3.7 0 4.8.6 9 .7 4.2 1.4 10.3 1.7 13.6 1 10.5 3.7 29 4.4 29.8.6.6 5.2-3.7 18.1-17.2 2.4-2.5 18.9-20.7 27.5-30.3l4.3-4.8-3.2-.5c-1.7-.2-14.3-.6-28-.7-20.4-.3-24.9-.1-25.4 1.1M558.6 228.5c-6.3 13.1-17.6 37.5-17.6 37.9 0 .2-2.8 6.2-6.2 13.3-3.4 7-6.7 14.2-7.3 16-1.2 3.1-1.2 3.1 1.4 2.2 6-2.3 37.1-17.5 38.4-18.8.7-.7-.5-12.3-5.2-51.6l-.6-5zM483.6 241.7c-1.5 9.8-3.2 19.1-3.7 20.8-.5 1.6-1.2 6.2-1.6 10.1l-.6 7.1 5.4 2.6c15.9 7.5 34.4 15.7 35.5 15.7.5 0-5.2-15-7.5-19.6-1.1-2.2-4.1-9.2-6.6-15.5-2.6-6.3-5.3-12.5-6-13.9-1.4-2.6-4.5-9.5-8.6-19.2-1.3-3.2-2.7-5.8-3-5.8-.4 0-1.9 8-3.3 17.7M430.9 237.7c-2.3 4.9-5 9.9-6 11.2-1.1 1.3-1.9 2.7-1.9 3.1 0 .6 18.3 11 19.4 11 1 0-.3-10.7-2.4-19.6-1.2-4.9-2.4-10.1-2.7-11.7-.3-1.5-.9-2.7-1.4-2.7s-2.7 3.9-5 8.7M440.4 235.5c.3 2.2 1.2 6.9 2.1 10.5.8 3.6 2.1 9.1 2.7 12.4 1.3 6.5 2.6 7.7 14.8 13.3 11.9 5.5 11.8 5.5 4.5-4.9-3.6-5.1-9.1-13.1-12.3-17.8-3.1-4.7-6-9-6.5-9.5-.4-.6-1.9-2.6-3.4-4.5l-2.5-3.5zM638.7 261.1c-1.1 10.3-.9 18.9.6 18.9.9 0 .9.2 0 .8-.8.5 2.7 2 9 3.9 5.6 1.7 11 3.4 12 3.8 2.8 1.2 2-.8-4-9.3-3.2-4.5-7.3-10.5-9.1-13.4s-4.4-6.6-5.6-8.1l-2.3-2.9zM643.6 256.1c.5.8 5.7 8.7 11.6 17.6l10.7 16.3 13.3-.6c7.3-.3 13.7-.9 14.2-1.4s-1.1-2.1-3.8-3.7c-2.6-1.5-7.3-4.6-10.4-6.8-3.2-2.3-11.2-7.4-18-11.5-6.7-4.1-13.6-8.4-15.4-9.4-2.1-1.3-2.8-1.5-2.2-.5M421.5 266.7c-.4 6-.9 11.6-1.1 12.5-.8 2.6 1.6 1.5 11.6-5.1 11.5-7.6 11.4-7.3 5-10.8-1.9-1.1-5.7-3.2-8.3-4.6-2.6-1.5-5.2-2.7-5.6-2.7-.5 0-1.2 4.8-1.6 10.7M447.4 279.7c.4 6.5 1 12.1 1.4 12.5.5.5 6.3-1.9 13.1-5.2 6.8-3.4 12.1-6.3 11.8-6.7-.6-.6-20.2-9.7-24.6-11.4l-2.4-1zM440 272.3c-1.4.7-6.1 3.5-10.4 6.4-8.9 5.8-9 5.4 2.3 9.4 3.5 1.2 7.5 2.8 9 3.5 5 2.6 5.2 2.2 4.5-8.4-.8-13.4-.7-13.1-5.4-10.9M551.9 288.6c-7.9 4-17 8.3-20.1 9.6-3.2 1.2-5.8 2.8-5.8 3.4 0 1 30.3 14.4 32.7 14.4.6 0 1.5-1 1.9-2.3.6-1.9.8-2 1.3-.5s1.9 1 10.2-4c5.2-3.2 13-7.8 17.2-10.2s7.7-4.7 7.7-5c0-.4-1-1.2-2.2-1.8-14.9-7.2-22.8-10.5-25.4-10.7-2.1-.1-7.7 2.2-17.5 7.1M462.2 288.4c-9.8 4.9-12.1 6.3-11.1 7.3.7.7 1.6 1.3 2 1.3.3 0 5.1 2.5 10.6 5.5 5.6 3 10.3 5.5 10.7 5.5.3 0 .3-.6 0-1.4s0-1.7.6-2.1c.8-.5 1.1.2.8 2.1-.2 2.5.2 3 2.8 3.9 1.6.5 4.2 1.8 5.7 2.8 1.5.9 2.7 1.4 2.7.9 0-1.4-5.6-16.5-7.3-19.9-.9-1.6-2.1-5.1-2.8-7.6-.6-2.6-1.4-4.6-1.8-4.5-.3 0-6.1 2.9-12.9 6.2"/><path d="M478.5 285.7c.4 1.6 1.5 4.8 2.5 7.3s3 7.4 4.5 11c5.6 13.9 5 13.4 13.1 10 6.5-2.8 6.5-2-.1 1.5-3 1.5-5.5 3.3-5.5 3.8 0 .6 3.7 4.5 8.2 8.8 4.6 4.3 7.9 8.1 7.4 8.6-.4.4-1.8-.4-3.1-1.9-1.2-1.4-5.5-5.4-9.3-8.7-7.1-6.1-10.8-7.8-9.8-4.4.3 1 .8 3.1 1.2 4.7.8 3.5 3.4 6.7 4.6 5.9.5-.3 1.2.3 1.4 1.3.5 1.8 6.4 6.4 8.3 6.4.5 0 1.4.6 2 1.3.9 1.2.3 1.3-3.2 1.1-3.4-.3-3.8-.2-1.9.6 2.4 1 2.8 2 1.1 3.7-1.4 1.4-.3 4.9 1.8 5.7 2 .8 2.9-.5 3.7-5.5.4-2.6 1.2-4 2.6-4.4 1.1-.3 2-1.5 2-2.6 0-1 .4-1.9.8-1.9 1.3 0 3.8-6.3 6.3-15.5 1.1-4.4 2.5-8.4 3-9 .5-.5.9-2.2.9-3.7s.5-2.8 1-2.8c.6 0 1-.7 1-1.5 0-2.1-.7-2-9 2.5-10 5.3-11.5 5.1-2.1-.3 4.1-2.3 7.5-4.7 7.5-5.2.1-1.1-15.5-9.2-25.3-13.1-3.6-1.5-8.3-3.5-10.3-4.5-5-2.6-5.9-2.4-5.3.8M620.5 288.3c-21.8 6.9-20.5 6.2-20.5 11.3 0 5 .2 5.1 7.4 2.9 2.7-.8 6.4-1.5 8.1-1.5 2.7 0 4.3-1.1 9.4-6.5 6.6-7.1 9.2-8.8 3.9-2.6-1.8 2.2-4.1 5.2-5 6.8l-1.7 2.9 4.2.2c5.3.3 10.4 1.9 14 4.4 2.7 1.9 2.7 1.9 2.7 0 0-2.2-3-11.1-5.5-16.3-2.8-5.8-3.7-5.9-17-1.6M589 301.1c-3.6 2.3-9.9 5.9-14 8.1s-8.2 4.6-9 5.3-2.2 1.5-3 1.8c-2 .7 15.9.8 18.6.1 1.2-.3 2.8-1.7 3.5-3.1.8-1.5 2.8-3.2 4.4-3.9 4.8-2.1 8.3-5.6 9-9.2.9-4.4-1.2-4.2-9.5.9M525.5 305.8c.4.9 1.5 3.7 2.5 6.2 5.6 14.1 10.8 26 11.4 26 .9 0 18.1-18.2 18.1-19.2 0-.6-3.1-2.4-7-4-3.8-1.7-9.5-4.2-12.5-5.5-3-1.4-7.2-3.2-9.4-3.9-3.5-1.3-3.8-1.3-3.1.4M520.6 315.7c-1.6 6.6-6.1 19.9-6.9 20.4-1.7 1.2-.2 4.4 2.6 5.3 4.7 1.7 5.5-.3 6.3-15.2.5-8.9.4-13.2-.3-13.2-.6 0-1.4 1.2-1.7 2.7M524.8 324.7c-.4 16.5-.3 17.3 3.1 17.3 4.9 0 9.1-1.2 9.1-2.6 0-.8-1.8-5.5-4.1-10.6-2.2-5.1-4.6-10.8-5.2-12.6-.5-1.7-1.4-3.2-1.8-3.2s-.9 5.3-1.1 11.7M552.3 327c-9.4 9.7-12.6 14.6-10.4 15.9 1.1.7 1 1.1-.5 1.9-1.6.9-1.7 1.1-.1 2.7 1.7 1.7 2.1 2.7 1.8 5.6-.1.8.9 2.1 2.3 2.8 2.1 1.2 2.7 1.1 4-.2.9-.9 1.6-2.2 1.7-2.9s.5-.2.9 1.2c.7 2.2.8 2.3.9.4q.15-2.1-3.9-4.8c-2.2-1.4-4.4-2.6-4.9-2.6s-1.3-.5-1.6-1c-1.2-2 2.3-.9 6.6 2 5 3.4 7.4 3.7 8.8 1.2.6-.9 1.1-1.1 1.1-.5 0 .7.7 1.3 1.5 1.3 1 0 1.5-1 1.5-2.9 0-1.6.4-4 .9-5.3l.9-2.4-6.7 2.3c-3.6 1.2-7.7 2.2-9.1 2.2-1.5 0 .1-.9 4-2.2 10.9-3.8 23-11.6 23-14.9 0-.7.9-2.4 2-3.8s2-2.8 2-3.2-4.2-.8-9.2-1l-9.3-.3zM677.4 335.4c-.3.9-.3 3.5 0 5.8 1.1 7.3 1.3 14.8.4 14.8-.4 0-.8-1.4-.8-3.2v-3.1l-2 2.3c-2.5 2.8-2.5 4.6-.2 5.9 2.6 1.4 3.4 1.4 4.3-.1.7-1.1.9-1.1.9 0 0 2.3-3.1 4.6-6.4 4.6-2.8.1-3.1.4-2.8 2.8.3 2.2-.4 3.2-3.7 5.4-2.3 1.5-4.1 3.2-4.1 3.9 0 1.6 3.4 2.3 8.3 1.7 3.5-.4 3.7-.6 3.8-4.1.1-2 .5-4.7.9-6.1.6-2 .8-1.3.9 2.9.1 4.6.3 5.2 1.6 4.1.8-.7 1.5-1.6 1.5-2.1 0-1.3 17.1-26.3 18.7-27.2 3.8-2.3-1.1-5.6-11.2-7.7-3.3-.6-6.8-1.4-7.8-1.6-1-.3-2 .1-2.3 1M695.4 350c-2.1 3.3-6.9 10.6-10.6 16.2-3.8 5.7-6.8 10.7-6.8 11.3s3.8 4.1 8.5 7.8l8.4 6.6.5-3.2c.3-1.8 1.2-9.7 2.1-17.7s2-17 2.5-19.9c.6-3 .6-5.9.2-6.3-.5-.5-2.6 1.8-4.8 5.2M538.2 358.6c-.2 3.7-.7 7.4-1.1 8.3-.9 1.6-3.9 24.4-3.8 29.1 0 1.4-1.2 7-2.7 12.5-3.2 12.2-3.6 24.2-.9 24.2 1 0 2.7-1 3.9-2.1 3.5-3.5 18.4-21.6 18.4-22.4 0-.4-.5-2.5-1-4.7-.6-2.2-1.7-7.2-2.5-11-.9-3.9-2.5-11.1-3.6-16-1.1-5-2.5-11.4-3-14.4-.5-2.9-1.5-6.4-2.2-7.8-1.2-2.1-1.3-1.7-1.5 4.3M499.5 370c-3.1 1.2-5 3.9-5.1 7.4-.3 7.3-.4 7.6-2.2 7.6-1 0-2.6-.6-3.6-1.3-1.6-1.1-2.5-1-6.2.6-3.7 1.7-4.4 2.6-4.9 5.8-.4 2.1-1.3 4-2.1 4.3s-1.4 1.2-1.4 1.9c0 .8-.7 2-1.5 2.7-2.5 2.1-1.5 3.4 3.8 4.6.4.1 1 .3 1.5.4.9.4 1.7.5 7.7 1.4 2.8.4 5.9.9 7.1 1.1 1.8.4 2.2-.5 4.2-9.4 2.2-9.7 5.3-27.3 4.9-27.7-.1-.1-1.1.2-2.2.6M504 376c-.4 3.7-.5 4-3.7 16.5-.8 3.3-1.8 7.8-2.3 10-1.4 6.7-2.1 23.8-1.2 27 .9 2.9 1 2.7 2.1-3 .6-3.3 1.6-8 2.1-10.5.6-2.5 1.7-9.8 2.5-16.2s1.7-12.7 2-14 .1-4.6-.4-7.3c-.6-3.2-1-4.1-1.1-2.5M402 379.6c0 .3 1.3 2.4 2.9 4.7 5.7 8.3 12.6 20 12.3 20.9-.1.6.3.8 1 .6 1.6-.6 7.8-16.3 7.8-19.8 0-2.6-.4-2.8-9.7-4.8-9.8-2.2-14.3-2.7-14.3-1.6M675.6 382.2c-4.5 14.5-5.3 18.8-3.7 18.8 2 0 16.7-5 18.4-6.2 2.6-1.9 1.5-3.7-5.7-9.1-6.5-4.9-8.4-5.6-9-3.5M670 385.2c-1.4 1.1-2.3 2.6-2.2 3.2.2.6.1.8-.3.4s-2.8 1.3-5.4 3.6c-2.5 2.4-7.1 6.7-10.1 9.5l-5.5 5.1 3.5-.6c7.1-1.2 16.5-3.7 17.8-4.6.6-.6 1.2-1.9 1.2-3 0-1 .9-4.8 2.1-8.4s2-6.7 1.8-6.9-1.5.6-2.9 1.7"/><path d="M435.7 407.5c-6.5.7-12.5 1.6-13.3 1.9-1.5.6.5 5 7.6 16.9l2.2 3.7 10.9-10.7c6.1-6 11.5-11 12.2-11.2.7-.1-4.1 5-10.5 11.4-9.6 9.6-11.6 12-10.7 13.4.5.9 3.2 4.5 5.9 8.1s6.5 8.9 8.5 11.7c3.7 5.6 4.4 6 6.3 4.1 1.6-1.6 2.8-.2 1.3 1.6s-1.2 2.4 4.9 9c2.6 2.8 6.3 6.9 8.3 9.1 4.1 4.6 5.3 4.2 6.8-2.5.5-2.3 1.6-5.2 2.4-6.4l1.5-2v2c0 1.7 1.1 2.4 5.3 3.5 4.8 1.4 5.2 1.7 5 4.4-.3 4.6-4 5.4-7.1 1.6-1.2-1.5-1.3-1.5-1 .1.5 2.6-1.6 2.2-2.3-.4-.5-2.1-.7-1.9-2.7 2-2.4 4.6-2.4 5.5 1.4 25.2 2.3 11.6 2.4 12 3.3 12 1.2 0 9.9-30.6 10.6-37.4.2-2.2.9-4.2 1.5-4.6 1.7-1-.3-7.3-3.4-11.1-1.4-1.7-2.6-3.8-2.6-4.7s1.6.8 3.7 3.8c2 3 3.9 5.7 4.3 6s1 3.7 1.3 7.5c.3 3.9 1 8.2 1.5 9.5.6 1.4 1.6 6 2.3 10.3.6 4.3 1.5 7.4 1.9 7 .3-.4 1.7-5.5 2.9-11.3 3.7-16.8 4.9-16.3 2.6 1-.3 1.9-.2 2.9.1 2.2.3-.6 1-1.2 1.5-1.2 1.5 0 5.5-5 7.6-9.2 1-2.1 2.1-3.8 2.5-3.8 1.1 0 4.8 5.1 4.8 6.6 0 2 .7 1.7 3.5-1.1 1.7-1.6 2.5-3.5 2.5-5.9 0-3.1.4-3.6 3.8-4.6 5.2-1.6 8.6-3.3 9.5-4.7.4-.7 2.1-1.3 3.7-1.3 1.8 0 3.9-1 5.5-2.5 1.5-1.6 2.5-2.1 2.5-1.2 0 .7-.5 1.8-1.2 2.5-2 2 3.7 1.5 7.3-.7 3.5-2.2 8.2-1.5 10.5 1.6 1.2 1.7 1.3 1.6.9-.4-.2-1.3-2-6.2-4.1-11-2-4.9-4.5-11.3-5.5-14.3-2.6-7.2-4.2-8.7-2.4-2.2 1.1 4.3 1.1 5.8 0 9.4-.9 2.8-1.4 3.5-1.4 2-.1-2-.4-2.1-2.3-1.2-2 1-2.1.9-.6-.3 2.5-2 2.6-3.9.3-4.2-1.1-.1-6-.5-11-.9-4.9-.4-11.2-.9-13.8-1.2l-4.9-.6 2.7 4.3 2.7 4.4-4-4.2-4.1-4.2-2.6 2.7c-1.5 1.5-3.5 4.3-4.6 6.4-1 2-2.3 4-2.9 4.3-.6.4-.8 1.1-.5 1.6.4.5-.1.9-.9.9-.9 0-1.6-.6-1.6-1.3 0-.6-1.5-2.3-3.2-3.7-5-3.9-9.4-7.9-8.6-8 .4 0 3.4 2.2 6.7 5 3.3 2.7 6.2 5 6.5 5s1.5-1.9 2.7-4.3c1.2-2.3 2.6-4.5 3.2-4.8 2.1-1.4-.4-2.4-5.5-2.2-2.9.1-7.2.2-9.6.3-3.5 0-4.4.4-5.1 2.2l-.8 2.3-.7-2.2c-.5-1.6-1.8-2.4-4.4-2.8-5.6-1-6.1-1.3-1.9-1.4l3.7-.1-.6-8.3c-.4-4.5-1-8.6-1.4-9-1-1.1-4.9 9.2-5.7 14.9-.3 2.4-.9 4.4-1.4 4.4-2.1 0-1.8-1.3 4.4-21.8.9-2.8 1.3-5.2.8-5.2-.4 0-4.3 4.5-8.7 10.1-8.2 10.4-24.4 28-24.4 26.5 0-.5 2.1-3.2 4.8-6.1 14.9-16.2 31.2-36.6 31.2-39.1 0-.8-.1-1.4-.2-1.4-.2 0-5.2-.7-11.3-1.5-6-.8-13.8-1.5-17.2-1.5h-6.2l-.6 4.2c-.3 2.4-1.2 11-1.9 19.3-.7 8.2-1.4 12.7-1.4 10-.1-2.8.3-10.6.8-17.5s.7-13.3.4-14.2c-.6-2.1-3.3-2.2-20.7-.3M578 407.1c-5.2.4-12.1 1-15.3 1.2s-6 .6-6.2.9c-.9.9 4.1 6.3 38.1 41.5 7.3 7.6 9.8 9 8.9 5-.2-1.2-.9-6.7-1.6-12.2-1.4-12.7-3.6-27.5-4.3-29.5-.4-.9-1.6-1.7-2.8-1.7-1.2-.1-2.8-.9-3.7-1.8-1.4-1.4-1.3-1.5 1.8-.9 2.3.5 3.6.3 4.1-.7 2-3.1-.7-3.4-19-1.8M604.1 408.7c3.7 4.4 21.5 20.3 22.7 20.3.6 0 3.9-4.2 7.2-9.3l6.1-9.2-5.3-.7c-2.9-.4-10.4-1.2-16.7-1.8s-12.5-1.3-14-1.7l-2.6-.6z"/><path d="M546.4 418.7c-8.5 9.7-10.5 12.4-9.7 13.6.3.6.1.7-.5.3-.7-.4-1.2-.3-1.2.2s-1.6 2.5-3.6 4.5c-3.3 3.2-3.4 3.6-1.7 4.5 1 .6 7.6 1.5 14.6 2.1 17.6 1.5 16.8 1.6 15.8-1.3-.5-1.3-1.6-6.3-2.5-11.2-.8-4.9-2.4-11.3-3.4-14.2l-1.9-5.2zM557 416.3c.1.6.8 3 1.6 5.2s2.9 8 4.5 13c2.7 7.8 11 29.6 15.6 40.7.9 2 2.1 3.9 2.9 4.2 2.2.8 14.4-9.4 14.4-12.2 0-.4 1.4-1.6 3-2.7 3.3-2.2 3.6-3 1.8-4.9-19.4-20-43.8-44.2-43.8-43.3M428.7 434.2c-5.6 5.2-7.8 6.8-9 6.8-.7 0-2.1.6-3.1 1.3-2.5 1.8-1.5 2.4 15.4 9.1 8 3.2 15.1 6.3 15.8 6.8 1.9 1.6 2.5.3 1.1-2.4-.9-1.9-14.3-20-16.9-23.1-.4-.5-1.9.2-3.3 1.5M601.8 473.8c-2 5.3-4 11-4.4 12.7-.3 1.6-1.5 5.9-2.5 9.4s-1.9 6.5-1.9 6.7c0 .7 3.6-.9 18.9-8.3l15.4-7.4-5.1-5.2c-2.8-2.9-7.7-8-10.9-11.4l-5.8-6.2zM598.7 469.3c-1.6 1.2-5.8 4.9-9.3 8.2l-6.6 6.1 3.8 8.2c2 4.5 4 8.2 4.3 8.2s2.3-5.5 4.4-12.3c2.1-6.7 4.5-14 5.3-16.1.7-2.2 1.3-4.1 1.1-4.2-.1-.1-1.5.8-3 1.9M492.1 486.7c-1.1 4.9-3.4 13.7-5.1 19.8-1.6 6-3 11.5-3 12.2 0 1.4 16-6.5 16.7-8.3.5-1.4-2.2-21.5-3.9-28.2-.6-2.3-1.4-4.2-1.8-4.2-.5 0-1.8 3.9-2.9 8.7M469.6 494.4c-2 4.3-3.6 8.2-3.4 8.7.4 1.1 13.1 16 13.4 15.7.1-.2-.4-3-1.2-6.3-.7-3.3-2.2-10.5-3.2-16l-1.9-10zM583 492.6c0 .7-1.4 2.7-3 4.5-1.7 1.7-2.8 3.9-2.5 4.6.3.8.5 2.1.5 2.9s.9 1.4 2 1.4c2.7 0 2.5 1.2-.6 4-2.1 2.1-2.7 2.2-3.4 1-.5-.8-.7-2.3-.4-3.3.9-2.7-.5-2-1.7 1-.7 1.9-.7 2.8.3 3.4.9.6.8 1.2-.5 2.7-.9 1-1.7 2.7-1.7 3.6 0 1.8 2.7-.1 14-10.1l4.4-4-1.9-2.9c-1-1.6-2.7-4.5-3.7-6.4-.9-1.9-1.7-3-1.8-2.4M546 499.5c0 .8-.6 1.5-1.2 1.5-.9 0-.8.4.2 1 1.3.9 1.3 1.1 0 2.1-1.1.8-1.2 1.2-.2 1.6 1.9.8 1.4 2.3-.8 2.3-1.1 0-2 .4-2 1 0 .5.7 1 1.5 1s1.2.6.9 1.4.3 1.9 1.5 2.5c1.8 1 2 .9 1.4-.6-.4-1.1.3-.7 1.5.8s3.4 3 4.8 3.3c1.5.4 3.3 1.4 4.1 2.1.8.8 2.4 1.4 3.6 1.4 1.9-.1 2-.2.3-.6-1.1-.3-1.5-.8-.8-1.2.6-.4.8-2.3.5-4.8-.5-4.1-.6-4.1-2.8-2.7-2 1.3-2.4 1.3-3.9-.1-.9-.9-1.6-1.7-1.6-1.8s.4-1.7.9-3.5c.9-2.9.8-3.1-.8-2.3-1.9 1.1-5.1-1.7-5.1-4.4 0-.8-.4-1.5-1-1.5-.5 0-1 .7-1 1.5M955.5 121.5c-5.5 1.3-12.6 2.8-15.8 3.5l-5.8 1.2 2.8 3.7c1.5 2 8.6 10.8 15.8 19.4 10.7 13 13.1 15.4 13.7 13.8.4-1.1 1.2-7.5 1.8-14.3s1.5-15.5 2-19.3c1.4-10.5 1.4-10.5-1.7-10.4-1.6.1-7.3 1.1-12.8 2.4M971.6 125.2c-1.3 10.7-3.6 40.1-3.2 40.5.2.2 3.7-.5 7.7-1.6 4.1-1.1 11.2-3 15.9-4.1 13.2-3.1 16-4 16-5s-2.9-3.9-22.6-23.3c-6.6-6.4-12.3-11.7-12.6-11.7s-.9 2.4-1.2 5.2M1021.5 175.7c5.2 10.3 9.9 19.1 10.4 19.6s1.2-.8 1.6-3.2c.4-2.3 1.1-3.9 1.5-3.6.5.3.4 2-.1 3.8-.5 1.7-.9 4.2-.9 5.3 0 1.2 5.9 11.6 13.1 23 7.2 11.5 14 22.6 15 24.6 2.2 4.2 3.5 5 2.5 1.5-.3-1.2-2.9-11-5.6-21.7-2.8-10.7-6.6-24.5-8.5-30.5-1.9-6.1-4.8-15.7-6.6-21.5-3.6-11.9-3.8-11.9-6.4 3.3-1 5.4-2 9.5-2.2 9.3-.3-.3.2-4 1-8.3.9-4.3 1.8-10.1 2.2-12.9l.6-5.1-10.1-1.2c-5.5-.6-11.6-1.1-13.6-1.1h-3.4zM987.5 163l-17 4.8 18.5 9c22.7 11 40.1 19.2 40.6 19.2.2 0-3.9-8.6-9.1-19-9.5-19-9.5-19-12.8-18.9-1.7.1-10.8 2.3-20.2 4.9M975.2 175.2c3.7 4.5 18 19.8 29.5 31.5l6.2 6.3 7.3-5c9.6-6.5 12.4-8.7 11.7-9.4-.3-.3-4.8-2.6-10-5-6.8-3.2-9.7-4.1-10.7-3.4-.9.8-1.1.7-.6-.6.3-.9.1-1.6-.5-1.6-1.1 0-22-9.6-27.4-12.6-1.5-.8-3.2-1.2-3.7-.9-.6.3-1 .2-1-.4s-1-1.6-2.2-2.2c-1.8-1-1.5-.3 1.4 3.3M970.4 175.5c.3 1.1.8 3.8 1.1 6 .4 2.2 1.8 8.3 3 13.5 1.3 5.2 3.3 13.6 4.4 18.7 1.1 5 2.7 10.6 3.6 12.2 1.4 2.9 1.7 3 3.8 1.7 1.2-.8 4.2-2.6 6.7-4 2.5-1.3 4.4-3 4.2-3.5-.2-.9 1.1-1.5 2.1-1 .7.5 8.7-4.3 8.7-5.2 0-1.6-7.3-7.8-8.4-7.2-.5.4-.6.1-.2-.5s-3.3-5.2-8.6-10.8c-5.1-5.3-11.9-12.4-15.1-15.8-3.5-3.6-5.6-5.3-5.3-4.1M1047 177.7c0 .6 1.1 4.4 2.4 8.4 3.7 11.5 5.4 17.7 11.6 42l5.7 22.6 1.6-6.8c1.9-7.9 2.4-6.2-9.8-37.9-3.7-9.6-7.7-20-8.8-23-2.1-5.8-2.7-7-2.7-5.3M1022 207.6c-4.7 3.1-8.9 6-9.4 6.5-.6.5.3 2.6 2.2 5.3 1.8 2.4 3.5 5.3 4 6.3.4 1 2.5 4.7 4.7 8.3l4 6.4.8-8.5c.4-4.6 1.2-12.7 1.9-18 .6-5.3.9-10.1.7-10.7-.3-.8-3.7 1-8.9 4.4M1032.3 214.5c-1.9 11.9-3 25.9-2.2 27.6.4.8 3.1 3 6 4.7l5.1 3.3-.5-2.8c-.4-1.5-1.8-9.3-3.2-17.3-4.6-25.4-4-23.6-5.2-15.5M997.8 223.3c-11.5 7-13.1 8.3-10.5 8.4 1.3.1 11.4 2.6 27.1 6.7 5.5 1.4 10.1 2.5 10.2 2.3.5-.4-13.9-24.7-14.6-24.7-.3.1-5.8 3.3-12.2 7.3M937 228.6c.6 1.5 5.4 11.3 10.7 21.8s13.4 26.7 18.1 35.9c4.6 9.3 8.5 16.7 8.7 16.5s.5-2.8.9-5.8c.3-3 1-9.8 1.5-15 .9-8.6 2.8-34 3.4-44.8.2-2.4-.1-4.5-.4-4.8-.4-.2-6.9-1.4-14.4-2.5-12.9-2-13.7-2-14.9-.3-.9 1.2-1.5 1.4-2 .6-.4-.7-2-1.2-3.5-1.2-1.6 0-3.4-.7-4.1-1.5s-2.1-1.5-3.1-1.5c-1.6 0-1.7.4-.9 2.6M934.6 231.7c-.3 1-1.2 11.9-2.1 24.3-.8 12.4-2 26.6-2.5 31.7-1.2 11.5-3.1 41.5-2.6 42 .2.3 10.8-4.8 23.5-11.1L974 307l-1.8-3.7c-1.8-4.1-36.3-72.6-36.7-73.1-.2-.2-.6.5-.9 1.5M982.3 237.7c.3 1.8.1 4.9-.3 7-.5 2.1-1.5 14.1-2.4 26.8-.9 12.6-1.8 24.5-2.1 26.2-.2 1.8-.2 3.3 0 3.3.3 0 1.4-1.9 2.6-4.1 1.7-3.4 1.8-4.3.7-5-1.2-.8-.4-1.3 1.5-1 1 .2 3.8-4.5 10.2-17.4l5.6-11-5.8-10.2c-3.5-6.2-6.1-9.7-6.5-9s-.8-.1-.8-1.8-.8-3.9-1.6-5c-1.5-1.9-1.5-1.9-1.1 1.2M992.1 247.7c3.3 6.5 6.4 12.1 6.8 12.6.4.4 2.1.1 3.7-.7 4.5-2.3 22.7-15 23.1-16.1.4-1.4-24.9-6.9-27.6-6-1.2.3-1.9 1.1-1.6 1.6 1.1 1.7-4.2.9-6.8-1.1-1.4-1.1-2.8-2-3.1-2-.4 0 2.1 5.3 5.5 11.7M1024.5 247.3c-1 .7-4.2 2.7-7 4.6-2.7 1.9-7 4.8-9.5 6.5-5.7 3.7-5.4 3.5-4.8 4.1.8.9 32.1 13.6 32.4 13.2 1.2-1.1-6.3-26-7.6-25.2-.5.3-1.1.1-1.4-.4-.4-.5-.2-1.2.4-1.6 1.2-.7 1.4-2.5.3-2.4-.5 0-1.7.6-2.8 1.2M1041.1 265.7c-.7 4.3-1.4 8.7-1.6 9.9-.4 1.5 1.2 3.4 6.5 7.9 3.9 3.1 7 6.2 7 6.8 0 .9-2.6-1.2-9-7.3-.3-.3-1.4-1.2-2.4-2-1.8-1.4-1.9-1.3-1.2 2.5.4 2.2 1.7 8 2.8 12.9l2.1 9 2-2.5c1.1-1.3 3.1-4.7 4.3-7.5l2.4-5.1-3.9-11.9c-2.1-6.5-4.8-13.8-5.9-16.2l-1.9-4.3zM991.6 278.7c-4.1 8.2-8.6 16.8-10 19.3s-2.6 4.9-2.6 5.3c0 1.2 3.4 0 13.5-4.7 5-2.3 16.8-7.8 26.2-12.1 9.5-4.4 16.9-8.2 16.5-8.6-1-1.1-33.1-13.9-34.7-13.9-.8 0-4.8 6.6-8.9 14.7M1034.7 287.9c-1.5 3.2-2.7 6.4-2.7 7s-.4 1.1-1 1.1c-.5 0-1 .5-1 1.2 0 .6-1.2 3.5-2.7 6.4s-2.5 5.6-2.2 5.8c.4.4 17.7-3.2 18.6-3.8.4-.3-4.8-21-5.6-22.4-.4-.7-1.7 1.1-3.4 4.7M976.3 308.8c-.6.4-2.3 6.1-3.8 12.7s-2.9 12.2-3.1 12.4c-.8.8-.4-3.8.5-6.2.5-1.3 1.2-4.8 1.6-7.7s1.1-6.4 1.6-7.7.6-2.3.2-2.3c-.3 0-9.3 4.3-19.8 9.5s-20.4 9.9-21.9 10.5c-1.5.5-2.4 1.5-2.1 2 .3.6 8.2 4.8 17.5 9.3l16.9 8.3 2.1-5c2-4.9 2-5 1.5-1.3-.4 2.1-.9 4.5-1.2 5.3-.6 1.6-.7 1.6 14.4-1.2 5.6-1 9.1-2.1 9-2.8-.1-.6.4-1 1.1-.9 2.1.5 1.4-2.3-2.9-11.3-2.2-4.7-3.9-8.8-3.6-9 .2-.2 2.3 3.2 4.7 7.6s4.7 8 5.1 8 1.6-1.1 2.6-2.4c1.1-1.3 3.7-3.3 6-4.4 2.2-1.2 5.1-3.4 6.4-5 3.7-4.4 10.3-14.2 9.8-14.6-.4-.3-38.2-4.6-40.4-4.6-.5 0-1.5.4-2.2.8M1031.3 310.2l-8.3 2.1.6 4.1c1.9 12.3 6 14 11.9 4.8 2.1-3.1 4.5-6.8 5.4-8.2 3.3-4.8 3.3-5 .9-4.9-1.3 0-6 1-10.5 2.1M1045.1 308.4c.4.4-.4 1.8-1.6 3.2-2.7 2.9-9.2 15-8.5 15.8.3.2 2.9 1.4 5.8 2.5l5.2 2.1.1-4.8.1-4.7 1 4.5c.5 2.5 1.3 4.9 1.8 5.3.8.9 8-12.5 8-14.7 0-.7-2.1-2.8-4.7-4.7-5.3-3.8-8.1-5.6-7.2-4.5M928.4 349.2c.8 16.8 1.2 20.7 2 21.5.2.3 3.2-1.2 6.6-3.3 16.7-10.6 24-15.5 24-16.2 0-.4-7.5-4.4-16.7-9l-16.6-8.3zM1067.9 344.7c-5.1 13.5-4.1 18.6 9.5 47.3 9.4 19.7 13.6 27.8 11.1 21.5-.4-1.1-2.5-6.7-4.6-12.5-2.2-5.8-5.3-13.9-7-18-5.3-12.7-5.6-13.4-6.9-16.7-.8-2.2-1.1-6.8-.8-13.8.2-5.8.2-10.5.1-10.5-.2 0-.8 1.2-1.4 2.7M974 350.2c-3.6.5-6.8 1.2-7.3 1.7-.8.8 27.7 30.9 28.6 30.1 1.1-1.1-1.3-10-4.8-17.3-2.9-6.1-3.5-8.4-3-11 .4-1.7 1.3-3.5 1.9-3.9 1.5-1-7.3-.8-15.4.4M952 360.6c-6.3 4-12.9 8.1-14.7 9-5.1 2.6-6 4.2-3.4 6.1 4.4 3 38.4 23.3 38.7 23.1.1-.2-.4-3-1.2-6.3s-2.1-9.6-2.9-14-2.3-11.9-3.2-16.6l-1.8-8.7zM967.5 361c3.2 15.2 4.7 22.9 5.9 29.8.7 4 1.6 7.5 1.9 7.8 1 1 18.6-13 17.9-14.2-.4-.7-6.1-6.9-12.6-13.8-6.6-7-12.5-13.4-13.2-14.4-1-1.3-1-.3.1 4.8M1042.5 384c-.6.9-3.4 17-3.7 21.4l-.3 3.9 6.8 1.7 6.7 1.7v-3.1c0-2.7-1.8-10.6-5-22.7-.9-3.2-3.3-4.8-4.5-2.9M1001 387.9c0 .9 20.1 22.1 20.9 22.1.9 0 .9.1 1.5-10.2l.5-7.6-6.7-1.6c-9.7-2.3-16.2-3.4-16.2-2.7M985.8 394.2c-4.1 2.9-7.5 5.7-7.4 6.3 0 .9 22.7 7.7 23.3 7.1.7-.7-4.7-17-5.9-17.7-1.9-1.3-1.8-1.3-10 4.3M1000.6 396.7c1.3 4.3 2.4 8.5 2.4 9.4s.8 2 1.8 2.4c1.4.5 14.6 3.5 15.7 3.5.2 0-3.2-3.7-7.5-8.3-4.2-4.5-9-9.7-10.5-11.5-1.5-1.7-3-3.2-3.5-3.2-.4 0 .3 3.5 1.6 7.7M1041.9 440.9c-6.9 13.5-9.4 19.2-8.9 20.6.4 1.1.5 3.6.1 5.5l-.6 3.5-.5-4.5-.5-4.5-8.2 10.2c-9.4 11.7-9.6 10.2 2.9 17.7 8.3 5 10.2 5.6 9.4 2.8-.2-.9-1-5.3-1.6-9.7s-1.3-8.8-1.5-9.8c-.2-.9 0-1.7.4-1.7s1.3 4.8 2.1 10.7l1.3 10.8 1.3-5c1.8-6.8 1.7-9.4-.6-14.3-2.7-5.5-2.5-6.8.2-1.7l2.1 4 .9-3c2.1-7.6 8.4-35.6 9.3-41.5.2-1.4.8-3.8 1.5-5.4 2.6-6.8-.2-2.3-9.1 15.3M1050.6 434.7c-1.1 4.1-6.6 27.3-8 33.9l-1.5 7.2 3.5 12.8c1.9 7.1 3.9 14.4 4.4 16.2.4 1.9 1 3.6 1.3 3.9.9.8 1.9-16 2-35.7.1-10.7.3-17.7.5-15.5.4 5.3 1.3 6 5.3 4.2 1.9-.9 5.8-1.9 8.6-2.2 2.9-.4 5.5-1 5.7-1.4.2-.3-2.6-2.2-6.2-4.1-3.7-1.9-6.9-3.8-7.2-4.1-1-1.2-5.2-3-5.8-2.5-.3.3-.1.6.5.6s1.4 1.7 1.8 3.7c.4 2.1 1.2 4.4 1.7 5.1.8.9.8 1.6.1 2.3s-1.4-.5-2.3-3.5c-.7-2.5-1.8-5-2.4-5.5-.8-.7-1.1-3.8-.9-9.1.3-7.8-.1-9.8-1.1-6.3"/><path d="M1076.6 445.4c-15.2.8-19.6 1.4-18.5 2.2 2.4 2 9 5.5 14.1 7.5 5.6 2.2 5.6 2.2 18.6-5.8 6.6-4.1 8.4-5.6 6.5-5.1-.5.1-9.8.6-20.7 1.2M1053.4 491.9c-.8 18.1-.8 19.8.7 18.7 7.2-5.1 12.8-10.3 12.5-11.6-1-3.8-11-27-11.6-27-.4 0-1.1 8.9-1.6 19.9M1035.5 499.3c-3.4 4-12.6 17.9-12.2 18.4.6.5 24.7-2.4 25.4-3.1.2-.2-1.9-3.5-4.8-7.2-2.8-3.8-5.3-7.5-5.6-8.2-.6-1.5-1.5-1.5-2.8.1M344.3 148.4c-1.5 1.8-8.3 9.5-15.1 17-6.8 7.6-12.2 14-11.9 14.2.2.3 4.7-.8 9.8-2.5 12.7-3.9 46.3-13.7 52.2-15.2 2.6-.6 4.7-1.5 4.7-1.9 0-.8-33.8-15-35.7-15-.6 0-2.4 1.5-4 3.4M371.2 166c-6.2 1.6-12.6 3.6-14.4 4.4-1.7.9-3.7 1.6-4.5 1.6-.7 0-1.3.4-1.3.9s-1.9 1.2-4.2 1.5c-4.6.6-6.4 1-8.8 1.8-4.6 1.7-12.4 3.8-13.7 3.8-.9 0-1.3.6-1 1.4.3.7 0 1.9-.6 2.6-.9 1-.9 1.1.1.6.7-.4 1.2-.1 1.2.8s.5 1.6 1 1.6c.6 0 1 .6 1 1.4 0 1.3 2 2.6 4.1 2.6 1.6 0 1-5.8-.6-6.2-1-.2-.7-.6.9-1.4 2.4-1.1 2.4-1.1 2.3 4.1-.1 2.9-.4 5.1-.7 5-1.7-1.1-3.1 2-3.9 8.6-1 8.1-.7 13.5.9 15.5.6.7 1.3 2.4 1.6 3.8.2 1.5 1.2 4.6 2.2 7.1l1.7 4.4 6.1-8.2c3.3-4.5 7.1-9.8 8.5-11.7 1.3-1.9 3.1-4.4 4.1-5.4 1-1.1 1.8-2.5 1.8-3.2s.4-1.4.8-1.6c1.7-.7 17.2-22.8 17.2-24.5 0-.6.6-1.3 1.3-1.6 1.4-.5 9.2-11.5 8.6-12.1-.2-.2-5.5.9-11.7 2.4M295.5 193.6c-8.2 4.8-16.2 9.3-17.7 10.1s-2.5 2-2.2 2.7c.4 1-.2 1.2-1.9.9-1.6-.3-4 .5-6.7 2.2l-4.2 2.6 3 2.7c5.9 5.3 11.3 9.3 12.1 9 1.4-.5 33.8-38.8 32.9-38.8-.2 0-7 3.9-15.3 8.6M295.6 205.7C287 216 280 225 280 225.6c0 .9 15.4 12.9 16.7 12.9.6 0 15.4-50.8 14.9-51.2-.2-.2-7.4 8.1-16 18.4M312.4 192.4c-.3 1.7-1.6 6.2-2.9 10.1-2.9 9-3.9 13.7-2.5 11.2.6-.9 1.7-1.7 2.5-1.7 1.7 0 3 3.7 1.8 5.3-.5.7-1 2.2-1.1 3.5-.1 3-1.9 5.2-4.3 5.2-1.1 0-1.9.5-1.9 1.1s-.7 1.7-1.5 2.5c-.8.9-1.5 2.5-1.5 3.8 0 1.2-.5 2.7-1.2 3.4-.9.9-.5 1.2 1.8 1.2 2.6 0 16.4-2.3 27.1-4.6l3.1-.6-1.2-4.2c-.7-2.2-4.3-12-8-21.7-6.9-17.8-8.9-20.6-10.2-14.5M263.1 223.7c.1 10.5 1.2 24.9 2 25.7.3.3 5.4-1 11.4-2.9s11-3.3 11.3-3.1c.2.2-4.8 2.1-11.2 4.2-6.4 2-11.6 4.1-11.6 4.5 0 .8 15.9 15.4 16.7 15.4.9 0 14.1-25.8 13.9-27.1-.2-1-10.8-9.3-16.4-12.8-.6-.4-2.8 2.3-5.3 6.6-6.9 12.1-8.1 13.9-8.6 13.4-.3-.3 1.1-3.1 3-6.3s4.7-8 6.1-10.7l2.6-4.9-3.2-2.9c-1.8-1.5-4.5-3.6-6-4.5-1.6-1-2.8-2.1-2.8-2.5s-.4-.8-1-.8-1 3.5-.9 8.7M260 222.7c0 1-1.6 9.2-3.5 18.2-1.9 9.1-3.3 16.6-3.1 16.8s2.2-1.1 4.5-2.9l4.1-3.3-.2-15.2c-.2-8.4-.6-15.3-1-15.3-.5 0-.8.8-.8 1.7M314 237.9l-15.5 2.6-.2 34-.2 34 6.7-13.5c13.8-27.7 28.2-57.9 28.2-59 0-1.3-.7-1.2-19 1.9M295.4 245.5c-.6 1.1-3.7 6.8-6.8 12.7l-5.6 10.7 2.9 8.3c1.6 4.6 4.6 12.8 6.7 18.3l3.9 10 .3-15.2c.5-27.1-.2-47.1-1.4-44.8M259.1 265.6c-2.2 6.3-4.4 13.2-4.7 15.2l-.6 3.7L273 296c10.6 6.3 20.1 11.8 21.2 12.2 2.1.9 2-.3-.9-7.2-.8-1.9-3.5-9.4-5.9-16.5l-4.5-13-9.2-8.7c-5.1-4.8-9.5-8.8-9.8-8.8-.4 0-2.5 5.2-4.8 11.6M299 314.8c0 2.5 6.7 35.2 7.3 35.9.6.5 12.3-5.3 23-11.5l7.8-4.4-2.8-1.8c-1.5-.9-9.1-5.2-16.8-9.5s-15-8.5-16.2-9.3c-2.1-1.3-2.3-1.3-2.3.6M289.6 357.6c.2 5.3-.2 7.1-1.7 8.7-2.4 2.6-5.9 9.8-5.9 12 0 1.7 3.9-2.5 17.4-18.6 2.9-3.3 4.5-6.1 4-6.6s-3.8-1.2-7.4-1.5l-6.5-.7zM301.4 375.7c-2.8 11.5-4.9 21-4.8 21.2.7.8 34.4-22.4 34-23.4-.1-.6-1.8-2-3.7-3.2-1.9-1.3-3.8-2.6-4.4-3.1-.5-.4-4.2-3.3-8.1-6.5-3.9-3.1-7.3-5.7-7.5-5.7-.3 0-2.7 9.3-5.5 20.7M301.5 359.8c-1.1 1.5-5.9 7.3-10.7 12.9-4.9 5.6-8.8 10.6-8.8 11.1 0 1.4 11.7 13.8 12.4 13.2.7-.7 9.9-39.1 9.4-39.5-.2-.2-1.2.9-2.3 2.3M225.5 393.7c-4.9 9.8-11.6 23.1-15.1 29.5-3.4 6.5-5.7 11.5-5 11.1 5.2-3.1 26.2-16.4 30.8-19.4l5.6-3.9-.5-14.2c-.3-7.9-.9-14.8-1.4-15.4s-2-.9-3.4-.6c-1.5.2-2.5 0-2.5-.7s.5-.9 1-.6c1.2.7 1.3-.5.1-2.3-.5-.9-3.6 4.4-9.6 16.5M279.6 387.1c-.3.8-1.6 4.9-3.1 9.3-1.4 4.3-2.4 8-2.1 8.3.6.6 12.9-3.2 16.3-5 2.2-1.2 2.2-1.4-4.2-7.7-4.4-4.4-6.6-5.9-6.9-4.9M227.5 422.3c-7.7 5.1-15.8 10.3-18 11.6l-4 2.4 2.6.7c5.1 1.4 23.2 2.3 22.5 1.1-.4-.6-.2-1.1.3-1.1.6 0 1.1.5 1.1 1.2 0 .6.6.3 1.4-.8 1.4-1.8 1.5-1.8 2.1-.2.5 1.1 1.8 1.8 3.5 1.8 2.7 0 2.9-.2 3.4-6.3.7-6.8.4-19.7-.4-19.7-.3 0-6.8 4.2-14.5 9.3M205 439.6c0 .5 3.6 3.2 8.1 6.1l8 5.2 4.7-2.3c2.6-1.2 6.6-3.1 8.9-4.2 2.4-1 4.3-2.2 4.3-2.5s-4.6-.9-10.2-1.3c-5.7-.3-13.3-.9-17-1.3-3.8-.3-6.8-.2-6.8.3M236.1 476.9c-2.8 7.2-5.1 13.4-5.1 13.8 0 1.3 11 11.9 11.1 10.8.2-2.6-.3-37-.6-37.3-.1-.2-2.6 5.5-5.4 12.7"/></svg>