<svg xmlns="http://www.w3.org/2000/svg" width="1706.667" height="960" viewBox="0 0 1280 720"><path d="M0 360v360h348.1c330.4 0 348.3-.1 349.6-1.8 1.4-1.6 1.4-1.6.9 0-.5 1.7 14.2 1.8 290.4 1.8h291V0H0zM539.9 45.6c1.7.4 2.8 1 2.5 1.5-.2.5-1.8.6-3.5.2-2.9-.5-3-.5-2.3 2.3.4 1.6 4.6 14.6 9.3 28.9 8.3 25 8.7 26 11 25.7 3.1-.5 58.3-28.4 58.8-29.8.2-.5-3.2-2.1-7.4-3.6-53.4-18-65.3-22.2-64.9-22.6.3-.2 2.7.3 5.3 1.2 13.8 4.6 44.6 15 57.3 19.4 8 2.7 20.6 7.9 28 11.4s16.9 7.7 21 9.3 7.9 3.2 8.5 3.7c.5.4 1.9.8 3.2.8s2.3.6 2.3 1.2c0 1.4 9.4 7.5 27.5 17.8 12.8 7.4 12 6.8 11.2 7.6-.3.3-3.2-1.1-6.4-3.2-3.2-2-8.3-5-11.3-6.7-3-1.6-9.3-5.4-13.9-8.4-5.7-3.7-8.6-5.1-9.1-4.3s-.9.4-1.3-.9c-.3-1.3-1.3-2.1-2.5-2.1s-2.3-.4-2.6-.9c-.4-.5-4.1-2.4-8.4-4.1-4.2-1.8-12.4-5.4-18.2-8-11.5-5.3-15.2-6.6-14.8-5.3.1.4-.6 3.3-1.6 6.3-3.5 10.7-6.5 22.7-6.6 25.7 0 1.4.8 2.4 2.3 2.9 1.2.3 4 1.4 6.2 2.4s9.4 3.9 16 6.5 12.9 5.3 14 6c2.4 1.5 7.5 2.8 7.5 1.9 0-.4-3.1-4.8-6.8-9.8-16.4-21.9-27.2-37.4-27.2-39 0-.6 4.3 4.8 9.5 11.9 25.3 34.6 28.3 38.4 29.3 37.2.5-.7 1.2-5.3 1.5-10.2.9-12.5 1.9-18.8 2.8-17.8.4.4.4 2.8-.1 5.3-.4 2.5-1.1 9.4-1.5 15.4l-.8 10.9 2.4-.6c2.3-.6 9.2-2.1 30.4-6.8 5.5-1.1 10.7-2.7 11.6-3.5 2.9-2.6 5.9 1.5 3.8 5.1-.4.5-1.4 4.6-2.4 9-.9 4.4-2 8.4-2.4 8.8-.5.4.1-3.1 1.1-7.9 2.1-9.7 2-13.1-.2-12.5-.8.1-6.9 1.4-13.5 2.7-17.4 3.5-29.4 6.5-30.1 7.5-.3.5.6 3 1.9 5.7 7.3 14.5 15.1 30.8 18.7 39.2 6.9 16 7.5 17 8.8 17 .6 0 1.2.3 1.3.7 0 .5.2 2.7.5 5 .3 2.9.1 4.3-.7 4.3-.6 0-.9.7-.6 1.5.4.8.2 1.7-.3 2-1.2.8-1.8-1.6-1.2-5.3l.5-3.3-7.4.6c-4.1.4-11 .9-15.4 1.3l-8 .7.3 6c.2 3.3.7 8.5 1.2 11.5s1.4 11.3 2 18.5c1 11.9 2 22.1 3.7 36.2.4 3.3 1.1 5.3 1.9 5.3 1.2 0 1.5-1.1 2.9-9.5.4-2.1 1.3-5.2 2.1-6.7s1.9-5 2.5-7.8 1.3-4.9 1.5-4.7c.7.7-6.2 28.2-7.9 31.6-.8 1.7-1.3 3.9-1 5s4.5 6.1 9.4 11.2c4.9 5 8.9 9.3 8.9 9.6 0 .2-1.3-.5-2.9-1.6-1.6-1.2-3.6-2.1-4.4-2.1s-1.7-1.3-2-2.9c-.6-3-7.5-11.1-9.5-11.1-.6 0-1.4.9-1.7 2.1-.4 1.1-.9 1.8-1.2 1.6-.2-.3 0-1.4.6-2.6.7-1.2.7-2.2.2-2.6-.6-.3-7.8-.2-16.1.1-11 .5-15.6 1.1-16.6 2.1-1.2 1.3-1.5 1.2-2-.1-.3-.8-2-2-3.7-2.5-6.3-2-23.3-5.4-26.2-5.2-1.6.1-10.2 2.3-19 4.9l-16 4.8-.3 4.5c-.2 4.7 1.2 8.3 2.6 6.3.4-.7 3.8-1.5 7.6-1.9 4.3-.5 7.5-1.4 8.5-2.4.9-1 3.8-4.1 6.5-7 5.9-6.5 7-6.2 1.5.4-6.9 8.4-6.9 8.5.3 8.5 3.6 0 7.5.6 9.2 1.5 1.5.8 3.5 1.5 4.2 1.5 2.5 0 1.4-5.7-2.8-14.8-1.1-2.4-1.8-4.5-1.6-4.8.5-.4.5-.4 6.7 12.8 4 8.4 6.3 11.8 8.1 11.8.5 0 2.8-2.3 5-5.1 4.2-5.3 5.3-5.5 2.2-.4-1 1.6-2.2 4.2-2.5 5.7-.6 2.4-.4 2.8 1.3 2.8 1.1 0 2 .6 2 1.4s1.3 1.9 2.9 2.4c1.8.7 3.1 1.9 3.5 3.7.4 1.5 1.2 3.3 1.9 3.9 1.4 1.5 10.1 6.6 11.1 6.6.3 0 1.5-1.5 2.6-3.3 2.2-3.5 2.5-3.3 1.1.7-1.2 2.9 0 4.2 4.4 4.9 1.9.3 1.4.4-1.5.4-4.1-.1-4.6.1-5.9 2.8-2.3 4.8-2.7 13.1-.7 15.1 1.4 1.4 1.7 3.3 1.4 11.5-.2 5.5 0 9.9.5 9.9.4 0 .7-.4.7-.8s.7-1.7 1.5-2.7c.8-1.1 3.6-5.2 6.2-9 2.5-3.9 7.1-9.8 10-13.3s5.3-6.9 5.3-7.6c0-.8-1.7-2.1-3.7-3-2.1-.9-2.7-1.4-1.3-1 1.4.3 3.7.8 5.3 1.1 1.5.3 2.7.9 2.7 1.4 0 .4 1.4 2.5 3.2 4.6l3.2 3.8-3.3-3-3.3-3-4.8 5.5c-2.7 3-5.9 7.2-7.2 9.3-1.3 2-5.1 7.6-8.5 12.3-3.5 4.7-6.3 9.1-6.3 9.8 0 .6 2.1 2.4 4.8 4.1 2.6 1.6 6.7 4.4 9.2 6.3l4.5 3.4.6-3.9c.4-2.1 1.4-10.3 2.3-18.3s2.3-16.8 3.1-19.5c1.6-5.5 1.6-4.5-.4 9.5-3.5 26.4-4.1 33.2-2.8 34.7.9 1.2-.2 1.8-2.7 1.4-.9-.2-7.8 1.7-21.6 5.9-5.2 1.6-14.8 4.1-21.2 5.5-6.5 1.5-11.8 2.7-11.8 2.8s.4 1.8 1 3.7l.9 3.5-1.8-2.2c-2.4-2.8-3.8-2.9-4.6-.2-.4 1.1-2.7 4.9-5.1 8.5-2.4 3.5-4.4 7-4.4 7.7s2.1 2.3 4.8 3.5c2.6 1.2 3.8 1.9 2.7 1.6-9-2.9-9.3-2.9-12.1-.3l-2.6 2.4 1.9-3.3 1.8-3.2-12.4-12.1c-6.8-6.6-12.6-11.8-12.9-11.5-.5.5 1.9 21.7 3.8 34.2.6 3.3 1 7.9 1 10 0 2.2.6 4.9 1.4 5.9 1.3 1.8 1.5 1.8 8.7-.5 4.1-1.2 10.1-3.1 13.4-4.1s9.8-2.9 14.4-4.4c4.6-1.4 8.6-2.4 8.8-2.2.3.4-9.9 3.8-34.4 11.7-8.7 2.7-10.1 3.5-9.4 4.9 1.3 2.4 20.6 21.1 21.8 21.1.6 0 2.9-2.7 5.2-6s4.5-6 4.7-6c.6 0-.1 1.3-4.2 7-1.7 2.5-3.5 5.5-3.8 6.7-.4 1.3-1.5 2.3-2.4 2.3-2.8-.1-35.2 16.4-34.8 17.6.3.7-.3 1-1.2.8-1.9-.5-15.4 8.9-22.1 15.4-4.3 4.2-6.1 5.1-6.1 3.2 0-1-1.6-1.8-10-5.3-1.9-.8-7.2-3.1-11.7-5.2l-8.1-3.7-7.4 2.7c-4 1.4-8.3 3.1-9.6 3.6-1.7.7-3.8.1-9.1-2.5l-6.9-3.4-3.9 1.9c-6.6 3.3-11.6 6.7-13.4 9l-1.7 2.2-1.7-3.4c-1.8-3.4-10.2-14.6-14-18.5-2.9-3-19.7-14.1-22-14.5-1.1-.3-2.9-2.2-4.1-4.4-10.4-19.7-13.1-24.7-15.9-29.1-1.8-2.8-3.6-6-3.9-7.2-.8-2.4-2.2-2.9-2.9-1-.3.7-.6-.1-.6-1.8-.1-1.7-.8-4.8-1.7-6.9-.8-2-1.3-4.2-1.1-4.8.3-.7.8 0 1.2 1.5.4 1.6 1.2 2.8 1.7 2.8.6 0 .8.7.5 1.4-.4 1-.1 1.3.7 1s1.6.4 2 1.8c.6 2.4 1.6 2.9 20.4 11.2 12.1 5.4 14.9 5.8 15.8 1.9.7-2.4.8-2.5 1.4-.8.4 1.1.3 3-.3 4.2-.8 1.8-.2 2.8 4 7 2.7 2.6 6.7 7 8.8 9.6s4.2 4.6 4.7 4.5c.6-.2 1.8-2.6 2.7-5.3 1-2.8 2.5-6.4 3.4-8 1.4-2.6 1.6-2.8 2.3-1.1.4 1 .2 2.1-.4 2.5-.5.3-2.2 3.2-3.6 6.4-2.1 4.7-2.5 6.9-2.1 11.5.4 4.7 2.8 20.4 4 26.2.2.8.4 1.7.4 2 .1.3.6-.2 1.2-1 .8-1.1.9-.6.7 2.1-.3 3.3-.1 3.7 1.9 3.4 3.3-.3 13.2-6.6 13.9-8.8.3-1 0-6.6-.6-12.5-.7-5.9-1-12.1-.8-13.7.3-2.2.6-1.4 1.1 3 1 7.5 3 17.6 3.5 17.1.2-.2.9-4.5 1.7-9.6 1.7-11.5 4.1-14.9 3.2-4.8-.4 3.8-.5 6.8-.2 6.8 1.9 0 4-2 5.9-5.9 6.4-12.8 6.1-12.6 9.2-6.2 1 2.3 2.2 4.1 2.5 4.1s1.5-.9 2.7-2c1.5-1.5 2.2-3.3 2.2-5.9s.5-4.1 1.6-4.5c1-.4 1.3-.2.7.7-.4.6.5.4 2-.6 1.4-.9 3.3-1.7 4.1-1.7s2.6-1.1 3.8-2.3c1.4-1.4 4.2-2.7 6.6-3.1 2.3-.3 4.2-1.2 4.2-1.8 0-.9.3-.9 1.2 0 1.6 1.6 4.4 1.5 7.2-.3 1.8-1.2 3-1.3 5-.6 1.4.6 2.6.7 2.6.3s.9.6 2.1 2.3c1.4 2 1.9 2.3 1.5 1-.3-1.1-.7-3.1-1-4.5-.2-1.4-.7-3.9-1.1-5.5-1.6-6.3 1.3-.8 3.9 7.7 1.5 4.8 3.6 9.9 4.7 11.2 1.9 2.4 2.1 2.4 3.8.8 4.3-4.1 16.1-14.5 17.8-15.7 1.9-1.4 0-3.6-26.8-30.4-5.2-5.3-10.8-11.3-12.3-13.4-1.6-2-3.2-3.7-3.7-3.7-1.1 0 0 5.8 1.7 9 .7 1.4 2.3 6.1 3.5 10.5s3.2 10.8 4.5 14.2c1.3 3.5 2 6.3 1.6 6.3-.9 0-4.8-9-6.7-15.8-.9-2.8-1.7-5.2-1.9-5.2s-.2 3.6-.2 7.9c.1 5.7-.3 8.4-1.3 9.3-.8.7-1.1.8-.7.1 1.1-2 1.6-10.6.6-11.8-.5-.6-1.4-4.5-2-8.6s-1.4-8.8-1.9-10.4c-.5-1.7-1.2-4.7-1.6-6.7-.5-3.2-.8-3.6-2.1-2.5-2.3 1.9-8.9 8.9-12 12.7-1.6 1.9-3.3 4-3.9 4.6-4.1 4.5-9 10.9-9 11.8 0 .7 5.3 1.6 13.5 2.3 13.8 1.3 18.6 2 17.8 2.9-.3.2-3.6 0-7.4-.5-12-1.7-25.4-2.2-25.4-1 0 .6 1.4 3 3.2 5.3l3.1 4.1-5.1-4.9c-5.9-5.7-5.7-5.7-12.5 4.7-3.6 5.6-4 6-4.8 4-.4-1.2-1.9-2.9-3.3-3.9-1.5-.9-2.6-2.1-2.6-2.6s1.5.5 3.2 2.1c2.6 2.4 3.5 2.8 4.4 1.8 1.4-1.4 5.4-8.5 5.4-9.5 0-.4-4.4-.7-9.7-.7-7.2 0-10.1.4-10.9 1.4-.9 1.2-1.2 1.1-1.7-.3-.5-1.1-1.9-1.6-4.8-1.6h-4.2l.7-4.2c.8-4.8 4.2-12.3 6.9-15 .9-1 1.7-1.5 1.7-1.1.1.5 1-.3 2-1.6 2-2.3 2.6-6.1 1.3-7.4-.7-.8-3.3 3.8-3.3 5.9 0 .8-.4 1.4-1 1.4-.5 0-.7-.7-.4-1.5 1.2-3.1-.6-1.2-9 8.7-4.6 5.7-11.5 13.5-15.3 17.4-7.1 7.4-6.8 6.4.7-2.2 17.9-20.3 26-31.6 26-36.2 0-1-18.8-3.2-27.7-3.2-4 0-6.3.4-6.6 1.2-.2.7-.2 3.8 0 6.8s-.3 10.7-1.1 17l-1.5 11.5.4-11c.8-19.2.9-24.5.1-25.2-.4-.4-2.6-.6-4.9-.4-6.4.4-26.9 3.1-27.8 3.7-.4.2 1 3.7 3.3 7.7 7.5 13.5 5.4 13.2 17.1 1.7 5.5-5.5 10.2-10 10.4-10 1 0-.7 2-9.7 11-5.5 5.5-10 10.4-10 11 0 1.4 3.7 7.1 10.4 16 5.3 7 6.8 9.9 4.7 8.5-1.7-1-17.5-23.8-17.6-25.4-.3-2.4-9.8-17.4-11.4-17.9-.8-.3-1.1 0-.7.7.4.6.2 1.1-.4 1.1s-.9-.8-.6-1.8c.8-2.3-1.1-4-9.1-8.2-5.5-2.9-8.8-6-6.3-6 .6 0 .8-2.6.5-6.3l-.4-6.2 1 5.5c.6 3 1.2 6.5 1.5 7.7.4 2.2 5.7 5.3 11.7 6.8 2.1.6 2.8.3 3.3-1.1.3-1.1 1-2.8 1.4-3.9 2.7-6 6-15 6-16 0-.6-3-1.9-6.7-2.8-9.2-2.1-16.3-3.1-16.3-2.1 0 .8 7.3 14.3 9.8 18.1.8 1.3 1 2.3.5 2.3s-2.4-2.6-4.3-5.8c-5.6-9.3-7.3-11.4-8.2-10-.9 1.5-.9 1.2-1.3-6.9-.1-2.8.2-5.7.6-6.5.6-.9.9-.5.9 1.3 0 1.5.6 3.1 1.3 3.7 1.4 1.2 15.3 4.2 19.2 4.2 2.5 0 2.5-.1.9-2.5-.9-1.4-2.2-2.5-2.8-2.5-1.4 0-7.6-6.7-6.9-7.4.3-.2-.5-.9-1.6-1.6-1.2-.6-2.1-1.5-2.1-2.1 0-.5-1.1-2-2.5-3.3-1.9-1.8-2.5-3.6-3.1-9.2-.4-3.8-1.5-8.6-2.5-10.6-1.8-3.5-4.3-16.7-3.4-17.6.2-.3.9 1.6 1.6 4.2.6 2.5 1.3 4.6 1.5 4.6.7 0 6.8-7 8.8-10.2 1.6-2.4 1.7-3.4.8-4.9-1.6-2.6-1.6-4.7 0-3.1 2 2 2.8 1.4 2.9-2.6 0-2 .4-4.6.9-5.7.6-1.5.9-.6.9 3.2.1 5 .8 5.8 3.6 4.2.6-.4 3.8-1.2 7.3-2 3.4-.7 6.2-1.6 6.2-2 0-.7-7.3-10.3-9.7-12.7-.7-.8-1.8-2.2-2.3-3.3-.8-1.5-.7-1.7.5-1.3.8.4 1.5 1 1.5 1.4s2.5 3.5 5.6 6.9l5.6 6.1H421v-3.7c0-3.6-2.2-7.3-4.5-7.3-.6 0-5.2-1.6-10.1-3.5-4.9-2-10.2-3.5-11.9-3.4-1.6 0-4.1 0-5.5-.1-2.5-.1-2.5-.1-.3-1.2 1.5-.7 2.4-2.3 2.8-5.2.3-2.2 1-6.1 1.5-8.6s1.2-6.9 1.5-9.9c.5-4.8.4-5.3-.9-4.1-2 1.6-2 .1-.1-2.4.8-1.1 1.2-2.9.9-3.9-.3-1.1-.1-2.3.5-2.6.6-.4 1.3-4.2 1.6-8.4.2-4.2 1-9.7 1.6-12.2 1.4-5.4 3.5-7.5 2.5-2.4-1.3 6.2-2.1 14.4-1.8 17.3.3 2.5.8 2 4.4-5 4.7-9.1 5.8-12.5 5.1-15.2-.4-1.8-4.9-4.8-6.6-4.4-1.6.4-1.9-3.1-.7-7.1.8-2.3 1.4-4.7 1.6-5.2.4-1.8 4.7-13.9 6-17 2.1-4.7 1.6-1.5-.7 5-2.7 7.5-5.9 19-5.9 21 0 1.2 6.6 5.5 8.4 5.5.7 0 1.5-4.8 2.6-16 1.8-18.7 2.1-21.5 2.6-23.9.3-1.3.7-2.1.9-1.9.3.2-.2 6.2-1 13.4-1.8 17-2.3 29.9-1 29.7 1.2-.2 26.6-3.1 34.3-3.9 6.2-.7 6.5-1.6 2-7.8-12.4-16.8-24.3-33.7-28.2-39.9-1.7-2.6-3.4-4.7-3.8-4.7s-.8 2.4-.8 5.4-.4 5.7-.9 6c-1.2.8-2.3-3.9-1.5-6.9.9-3.5-.4-3.1-4.8 1.6-5.2 5.6-4.8 4.2.7-2.2 2.5-2.9 4.5-6.3 4.5-7.5 0-1.3.8-2.4 2-2.7 1.5-.4 2-1.4 2.1-3.9 0-1.8.5-4.2 1-5.3.7-1.4.8-.7.4 2.7-.3 2.8-.1 4.8.5 4.8s1-.3 1-.8c0-.4 2.7-3.6 6.1-7.2 5.3-5.7 15.8-17.4 30.7-34 2.3-2.7 4.2-5 4.2-5.2s-1.7-.3-3.7-.1l-3.8.2 3.8-1c2-.6 3.7-1.7 3.7-2.4s-1.6-3.6-3.5-6.4-3.5-5.5-3.5-6c0-.4-.7-1.4-1.6-2.1-.8-.8-2-2.3-2.6-3.4l-1-2.1 2 2.1c1.1 1.1 3.1 3.8 4.4 6 1.4 2.2 3.3 4.5 4.2 5.3.9.7 1.6 1.9 1.6 2.7 0 .7.9 1.8 2 2.4 1.6.9 2.2.6 3.5-2 .8-1.6 2.1-3 2.8-3s3.1-1.9 5.2-4.1c2.2-2.3 11.7-11 21-19.3 9.4-8.4 19.7-17.8 23-20.9 3.3-3 6.2-5.4 6.4-5.1.3.2-1.8 2.6-4.6 5.2-7.4 6.8-22.1 20.2-27.2 24.8-2.4 2.1-6.1 5.5-8.1 7.4s-6.4 6.1-9.8 9.3-6.2 6.2-6.2 6.7-.6 1.1-1.2 1.3c-2 .8 14 .7 46.2-.3 19.1-.6 29.6-1.2 29.8-1.9.2-.6 1.2-1.1 2.3-1.1 2.3 0 2.3 0-.2-8-2.4-7.7-2.4-7.7-4.4-16-.9-3.6-2.2-7.9-3-9.7-.8-1.7-1.5-3.7-1.5-4.4s-1.2-5.1-2.7-9.7l-2.8-8.3-3.5.6-3.5.6 3-2c3.3-2.2 4.8-2.4 9.4-1.5m384 76.4c2.4 0 36.5-7.2 37.1-7.9.9-1 4-1.2 4-.3 0 .5 6.9 4.8 15.3 9.5 21.7 12.1 41.8 23.7 44.9 25.8 1.4 1.1 3.2 1.9 4 1.9 1.9 0 7.9 4.5 7.1 5.3-.8.9 4.3 13.7 7.9 20 1.5 2.6 2.8 5.4 2.8 6.1 0 .8 2.2 6.3 4.8 12.2 2.7 6 5.9 14 7.2 17.8 1.2 3.8 3.1 7.7 4.1 8.7 1.1 1.1 1.9 3 1.9 4.3 0 1.4.5 2.8 1 3.1.6.3 1 1.4 1 2.3s.6 2.8 1.3 4.2 1.6 3.4 2 4.5c.6 1.6.3 1.5-1.2-.5-2.2-2.8-1.9-3.2-4.5 6.5-1.5 5.8-1.6 11.4-.2 23.5l.6 5.5-1.4-6c-.8-3.3-1.6-8-1.9-10.5-.4-2.5-.6-4.5-.6-4.6-.1-.1-4.8-.4-10.5-.7-5.7-.4-11.4-1.1-12.7-1.7-2-.9-1.8-1 1.6-.6 8.8 1.1 20.5 1.9 20.5 1.3 0-.9-24-36.8-29.4-44-5-6.6-6.8-7.3-4.8-1.9.6 1.5 1.4 4.7 1.7 7.2 2.8 19.8 7.2 39.2 10 44.6.8 1.6 1.5 4.3 1.5 6.1 0 1.7.5 3.5 1 3.8.6.3 1 1.7 1 3 0 1.2 1.4 6.3 3.2 11.1 2.7 7.6 4 9.7 9 14.6 7 6.9 7.6 8.6 1.1 2.8-7.7-6.8-7.5-6.8-13.1.2l-4.9 6.2 6.5 4.3c3.6 2.4 7.1 4.3 7.8 4.3 1.9 0 1.8.7-.7 3.8l-2.1 2.7.7-2.5c.5-2.2-.1-3-6-6.8-5.7-3.8-6.8-4.2-8.2-3-1.5 1.1-1.6 1.1-1-.5.8-2.1 1.4-2.2-11 1l-10.5 2.7.6 4c2 12.2 6.4 13.4 13.4 3.9 2.5-3.5 4.7-6.1 4.9-5.9s-1.2 3-3.1 6.2l-3.6 5.9 3.3 1.1c1.7.7 4.6 1.9 6.2 2.8l3 1.6.5-3.8.5-3.7 1.3 4.2c.7 2.4 1.6 4.3 2.1 4.3.4 0 2-2.2 3.5-5 4.2-7.7 5.1-7 1.2.9-2 3.8-3.2 7.2-2.8 7.5.5.3 3.1.8 5.9 1.2 4.9.6 5.1.5 4.8-1.7-.1-1.3 0-1.6.2-.7.6 2.4.9 2.3 5.3-1.2 5.7-4.5 6-3.6.5 1.5l-4.9 4.4 1.5 7.7 1.4 7.7 2.4-5.9c1.3-3.2 3.4-8.2 4.7-10.9 1.2-2.8 2.6-6.4 3-8 .4-1.7 1-3.5 1.4-4 1.1-1.5 2.9-10.2 3.9-18.5.5-4.1.9-5.9 1-3.8.1 5-1.7 18.3-3.5 24.2-.8 2.7-1.4 5.9-1.4 7 0 1.9 0 1.9 2.3-.1 3.4-3.1 5.5-3.9 3-1.2-1.9 2.1-2 2.6-.8 4.3 1.6 2.1 3.5 1.3 3.5-1.4 0-1 .4-2.1.9-2.4 1.1-.7-.5 6.8-2.1 9.8-.6 1.1-2.7 3.9-4.5 6.1-3.3 3.8-3.4 4.3-3.1 10 .3 4.4 1.6 8.3 4.6 14.7 2.3 4.8 4.2 9 4.2 9.3s1.1 2.8 2.5 5.7c2.6 5.3 3.2 7.5 1.5 4.8-.7-1.1-1-1.1-1-.2 0 1.1 1.8 6.4 8.2 23.7.6 1.6 1.6 3.6 2.2 4.4.6.7 1.2 2.5 1.4 4 .4 3.7 2.1 8.9 4.4 13.3 1.4 2.9 2.5 3.8 4.3 3.8 1.4 0 2.5-.3 2.5-.6s-2.9-6.5-6.4-13.7c-3.4-7.3-7-14.8-7.8-16.7-4.2-9.6-6.7-16-6.2-16 .2 0 1.3 1.9 2.3 4.2 2.3 5.3 8.3 18.1 14.5 31 5.3 11.1 6.2 14.3 4.7 17.8-1 2.4-1.1 2.3-.8-1 .2-3.1-.1-3.5-2.3-3.5-2.3.1-2.5.4-2.4 4.2 0 2.3-.3 4-.8 3.7-.4-.3-.8-1.3-.8-2.3 0-5.9-3.7 1.9-4.3 9.1-.1 1.5-1.1 1.8-6.7 1.6l-6.5-.1 5.5-.6 5.5-.6 1.9-5.3c1-2.9 1.6-5.5 1.3-5.8-.4-.5-16.6 8.2-19.2 10.3-2.6 2.2-7.4 5.3-8 5.3-.4 0-.1-.7.6-1.7 1.3-1.5 1-1.5-2.6-.9-9.3 1.7-13.5 2.8-13.5 3.5 0 .4 1.9 1.8 4.1 3.1 3.4 1.8 4.6 2.1 6 1.1 1.2-.7 1.9-.7 1.9-.1 0 .5-.4 1-.9 1-1.5 0-2 4-1.4 10.6.6 6.2 2.3 8 2.3 2.5 0-1.5 1.1-4.9 2.4-7.6l2.3-4.9.8 6.9c.4 3.8 1.1 8 1.7 9.5.5 1.4 1.6 5.7 2.4 9.7l1.4 7.2-3.6 6.8c-2 3.7-4.9 8.3-6.5 10.1-2.5 2.8-2.8 3.8-2.4 8 .6 5.6 1.2 8.9 1.9 10.1.3.5-.2 1.8-1.2 3-1.6 1.9-1.9 1.9-4.2.5l-2.5-1.5 3.3.5c3.8.7 4-.2 1.5-8.2-1.9-5.8-2.8-6.5-9.9-7.4l-4.2-.6 2.4 5.5c1.4 3.1 2.3 6.1 2.1 6.7s-1.6-1.7-3.2-5.2c-1.5-3.4-3-6.2-3.4-6.2-.7 0-7.1 7.1-7.1 8 0 .3 2.6 1.4 5.8 2.4 3.1 1 7.3 2.5 9.2 3.3l3.5 1.4-3.1-.5c-1.7-.3-3.6 0-4.3.7-1 .9-1.1.8-.6-.4.5-1.3-.2-1.8-3.2-2.3-2.1-.4-4.8-1-6-1.3-1.7-.4-2.5.1-3.3 1.8-1 2.3-1 2.3-.6.1.2-1.2.1-2.2-.3-2.2-1 0-19.5 14.9-19.9 16-.2.6-1.6 1-3 1-2.7 0-2.7 0 .6-1.8 3.6-1.9 21.2-16.1 21.2-17.1 0-.7-17-11.8-19.5-12.7-.9-.4-2.6.2-3.7 1.2l-2.2 1.9 1.7-2.7c.9-1.5 1.7-3.4 1.7-4.2 0-.9.6-1.3 1.3-1 1.2.4 15.7-17.4 15.7-19.3 0-.5-3.3-2.5-7.4-4.7-4.1-2.1-8.7-5-10.2-6.3l-2.9-2.5 3.5 2c1.9 1 6.6 3.6 10.4 5.7l6.8 3.7-.6-2.8c-.6-3.1-3.4-22.2-3.9-26.7-.2-1.5-.7-2.7-1.3-2.6-1.6.1-16.5 18.9-15.9 19.9.3.6-.3 1-1.4 1-2.3 0-2.4-.1-1.5-2.4.3-.9 1-1.4 1.4-1.1.5.3 1.9-.9 3.1-2.7 1.3-1.8 5-6.6 8.2-10.6 3.3-4 5.8-7.4 5.6-7.6-.2-.1-2-1.2-3.9-2.4-4.1-2.6-3.1-3 1.1-.5 2.6 1.5 3.1 1.6 3.9.3.6-.9.5-1.7-.2-2.1s-.7-.9 0-1.3c.6-.3 1.2-.1 1.4.6.3.7 2.9-3 6-8.2 9.2-15.9 16.9-31.3 16.1-32-.4-.4-4.1-1.5-8.2-2.5-7.6-1.8-9-1.5-9.1 2.2 0 .7-.4 1.3-.9 1.3-.9 0-8.1 13.8-8.6 16.8-.2.9-.4 1.9-.5 2.2s-.2.9-.1 1.3c.1.5-.3.6-.8.3s-4.4 1.2-8.7 3.4c-10.5 5.3-12 5.1-2-.3 4.3-2.3 8.4-5.1 9-6.2s1.4-2.3 1.9-2.6c.8-.6 9.7-18 9.7-19 0-.9-12.4 2.3-12.8 3.3-.2.4-1.2 1.3-2.3 1.8-1.5.8-1.7.7-1.3-.5.7-1.8-2.2-3-11.3-4.6-3.8-.6-12.9-2.9-20.3-5-8.2-2.4-15.6-4-19-4-4.4 0-22 3.6-32.5 6.8-1.1.3-1.7.2-1.2-.3.8-.8 8.9-3 22-5.9 4.3-.9 7.6-2.2 7.5-2.7-.2-.6-4.2-3.4-8.8-6.3-20.6-12.8-30.3-18.5-30.7-18.1-.5.5 2.7 13.8 6.1 25.5 1.7 5.7 2.2 9 1.6 10s-1 1.1-1 .3c0-.9-4.1-1.3-16.2-1.4l-16.3-.2 15.5-.3c8.5-.2 15.8-.7 16.1-1.1.4-.4-1.2-8.1-3.5-17.2-3.7-14.2-4.6-16.5-6.3-16.8-1.2-.2-11.2 1.6-22.4 3.9s-24.2 4.7-28.9 5.5c-4.7.7-11.2 1.7-14.5 2.3s-6.9 1-8 1c-2.3-.1 2.1-1.1 14.5-3.3 16-2.8 51.5-9.7 55.4-10.7l3.9-1.1-4.4-2.5c-11.7-6.8-19.4-11.4-31-18.5-7-4.3-13.3-7.8-14-7.8s-2.2.8-3.3 1.7c-2.1 1.8-2.1 1.8-.3-.3.9-1.1 1.7-2.4 1.7-2.9 0-.4-5.3-6.3-11.7-12.9l-11.8-12.1 11 10.6c13.5 13 11.8 11.7 24.8 19.4 6 3.6 11.4 6.2 12 5.8.7-.3.9-.3.5.2-1.1 1.2 23.6 16.5 26.6 16.5.3 0 .3-1.2.1-2.8-.2-1.5-.7-9.8-.9-18.6-.3-8.7-.7-16-.8-16.1-1-.9-6.9-3.4-10.3-4.5-2.2-.7-7.6-2.7-12-4.6-4.4-1.8-11.3-4.5-15.2-6-4-1.5-7.1-2.9-6.9-3.1.1-.2 5.9 1.7 12.7 4.2 6.8 2.4 13.3 4.5 14.3 4.5 1.1 0 2.7.6 3.5 1.3 2.1 1.8 13.1 5.8 14.1 5.2.4-.2 1.1-5.8 1.4-12.2.9-14.8 4.4-58 5.1-61.3.2-1.4.7-7.7 1-14s.8-12.8 1.1-14.3c.5-2.6.4-2.8-1.3-1.9-2.9 1.6-24.3 16.1-49.8 33.8-24.7 17.2-25.5 17.7-25.5 17.1 0-.4 16.9-12.4 43-30.5 28.8-20.1 32.1-22.4 31.7-22.8-.3-.3-37.3-7.9-77.7-16-9.6-1.9-18.1-3.2-18.9-2.9-.9.3-1.2.3-.8-.1s-1.2-2.8-3.5-5.3l-4.3-4.5 3.8 3.3c2.2 1.7 4.3 3.1 4.7 2.9 1.4-.5 20.8-26.2 30.1-39.8 4.7-6.9 8.6-13.5 8.6-14.7.2-2.2-.1-2.2-12.5-2.6l-12.7-.3 14.3-.2c7.8-.1 14.2-.5 14.2-.8 0-.5-6.7-7-21.7-21-2.4-2.1-4.3-4.3-4.3-4.9 0-.5 2.8 1.8 6.3 5.1 3.4 3.3 9.9 9.3 14.5 13.3l8.2 7.3 4.3-1.7c2.3-.9 13.4-4.9 24.7-8.7 11.3-3.9 21.3-7.6 22.3-8.3 1.8-1.3 1.7-1.6-2-5.7-7.3-8.3-7.7-9.3-.9-2.6 3.8 3.8 7.6 6.8 8.5 6.8m-584.4 21.1c4.2 1.1 8.5 1.7 9.6 1.4 1.3-.5 1.9-.3 1.5.3-.8 1.4.5 2.2 12.9 7.7 6.1 2.7 11.4 5.2 12 5.7 1.5 1.3-7.6-2.1-10.3-3.8-1.3-.9-3-1.3-3.7-1-.8.3-1.7.1-2.1-.5-.3-.5-2.9-2.1-5.7-3.4l-5.2-2.5-7 7.3c-8.5 8.8-25.6 27.9-25.2 28.3.1.2 7.9-2.1 17.2-5.1 9.4-2.9 24-7.5 32.5-10 8.5-2.6 15.7-4.9 16-5.2.2-.2-.2-.8-1-1.3-2.1-1.3-.3-1.2 2.2.1 1.7.9 2.5.6 5.4-2.2 1.9-1.8 3.4-2.8 3.4-2.3 0 .6-1.3 2.3-2.9 3.8-2 1.9-2.7 3.4-2.4 4.9.4 2 .3 2-.7.4-1-1.5-2.1-.4-8.8 8.9-4.2 5.9-9.3 12.8-11.2 15.5s-4.8 6.8-6.5 9.1c-1.6 2.4-7.8 11.2-13.8 19.6s-10.7 15.5-10.5 15.8c.3.2 1.7 0 3.2-.6 1.5-.5 3.5-1 4.4-.9.9 0-.7.8-3.6 1.6-3.8 1.1-5.1 2-4.8 3 .4.8.1 1.1-.5.7-.7-.4-.9 4.7-.5 17.2.5 17.8.5 17.9-.4 3.9-.5-7.7-1.2-16-1.5-18.3-.6-3.9-.9-4.3-2.8-3.8-1.2.3-8.5 1.5-16.2 2.7s-14.3 2.5-14.7 2.8c-1 .9-1.5 66-.5 65.4.5-.3 2.9-4.8 5.3-10.1 9.3-19.9 19.7-41.2 20.1-40.9.2.2-3.1 7.6-7.3 16.3-10.2 21.3-17.4 37.2-17.4 38.2 0 .5 2.1 2.2 4.8 3.9 7.4 4.7 32.1 18.3 33.1 18.3 2.2 0 2.1 2.1-.1 2.9-1.8.7-18.7 10-28.7 15.9-1.1.6.2 2 5 5.7 3.5 2.7 6.6 5.2 6.9 5.5 1.4 1.6 8.9 7 9.8 7 1.2 0 1.6-1.5 3.8-15.9 1-6.3 2-10.9 2.2-10.2.2.6-.1 4-.6 7.4-1.8 10.3-2.5 20-1.6 19.5.8-.5 23.5-13.9 32.2-19 1.7-1.1 3.2-1.6 3.1-1.1 0 .4-7.9 5.5-17.6 11.2-11.6 6.9-17.1 10.7-16.2 11.1.8.4 4 1.3 7.2 2 3.2.6 5.7 1.4 5.4 1.6-.2.3-3.7-.3-7.7-1.2-3.9-.9-7.5-1.2-8-.8-.4.5-1.5 3.9-2.5 7.7-2.2 8.3-3.1 8.2-1.2-.2.8-3.5 1-6.1.5-6.1-1.3 0-31.8 21.1-31.8 22 0 .4 1.5 1.2 3.3 1.8 3.1 1.1 3.1 1.1.2.5-6.7-1.4-8.2-1-27.1 6.4-.6.2.2-3.5 1.7-8.3 1.6-4.8 2.7-8.9 2.5-9.1-.2-.3-2.2 2.2-4.5 5.4-4.4 6.3-8.7 11.7-7.5 9.3.4-.8 3.2-5 6.2-9.3s5.2-8.1 4.8-8.4c-.3-.3-2.9.1-5.8.9-5.3 1.4-5.3 1.5-5.6 5.7-.2 3.2-.7 4.1-1.7 3.7-1-.3-1.6.5-2.1 3-.3 1.9-1 3.7-1.5 4-1.4.8-1.1 4.4.4 4.4.7 0 1.9-.6 2.5-1.2 1-1 1.5-1 2.2.1 1 1.7-1.8 5-2.8 3.4-1.1-1.6-4.2-2.4-4.2-1 0 .8-.3.7-.9-.2q-.9-1.5.9-5.1c1-2 2.1-5.3 2.5-7.3s1.1-3.7 1.6-3.7c1.2 0 1.1-4.7-.1-5.5-.5-.3-1 .2-1 1.2 0 1.4-.2 1.5-.9.4-.5-.7-.7-2.3-.4-3.5.3-1.4-.1-1.2-1.2.9l-1.5 3 .3-2.7c.2-1.5.1-3.2-.3-3.9-.8-1.1-4.5 13.4-5.7 21.9-.5 3.8-.4 4.2 1.3 3.6 1.8-.5 1.8-.5.2.6-2.2 1.4-2.2 3.1-.2 11 .8 3.4 1.3 6.4 1 6.7s-.8-.8-1.1-2.3c-.4-1.6-1.1-3.8-1.6-4.9l-.9-2 .4 2c.5 2.1 1.6 9.7 4.1 29 2.1 16 2 15.4 2.7 16 .8.8-.3 9.9-1.3 10.5-.4.3-1.6 4.6-2.5 9.5-.9 5-2.1 9.4-2.6 10-1 1.1-1 .6 2.3-13.5 2.5-10.9 2.6-18.1.4-30.5-.8-4.8-1.5-9.8-1.5-11.1 0-1.2-.4-2.5-.9-2.8s-.9 0-.8.7c0 .6-.1 2.8-.2 4.7-.2 2.8-.4 3.1-1 1.6-.6-1.6-1-1-2.1 3-.7 2.7-1.5 4.3-1.7 3.6-.3-.7 0-2.7.6-4.4s.9-3.3.7-3.6c-.6-.6-14.4 5.8-15.6 7.3-.7.9.5 1.5 4.8 2.4 6 1.4 12.2 3.6 7.2 2.7-8.8-1.7-11.3-1.9-10.6-.8.4.7.3 1.2-.3 1.2-.5 0-1.3-.5-1.7-1.1-.3-.6-1.4-.9-2.4-.6-1.3.3-1.7 0-1.3-.9.4-1.1-.7-1.4-4.8-1.4-2.9 0-4.9.3-4.5.8.4.4 4.2 1.9 8.4 3.3 4.2 1.5 7.8 3.2 8 3.8.4 1.3-5.6-.7-15-5.1-4.7-2.1-6.8-3.7-7.2-5.3-.3-1.3-.8-3.1-1.2-4.2-.3-1 .4-.1 1.6 1.9 1.9 3.6 2.3 3.8 7 3.8 2.8 0 5-.5 5-1 0-.6-.4-1-.8-1-.5 0-1.7-.8-2.8-1.8-1-1-3.4-2.7-5.1-3.7-1.8-1.1-3.3-2.3-3.3-2.8 0-1 .5-.7 8.6 5 3.4 2.4 6.6 4.3 7.2 4.3.5 0 4.8-2 9.3-4.5 4.6-2.4 7.7-4.5 6.8-4.5-.8 0-7.5-.5-14.9-1.1-14.6-1.1-20.9-.7-19.1 1.5.8.9.7 1.3-.4 1.3-1 0-1.5-1-1.5-2.9 0-3.8 15-35.9 16.3-35.1.6.3.7.1.3-.5-.9-1.6 1.5-6.2 3.3-6.2 1.3 0 1.3-.2.2-.9-.7-.5-1-1.4-.7-2 .4-.6 1.1-.9 1.6-.6s1.2 0 1.6-.6c.4-.8.3-.9-.4-.5-2 1.2-1.4-.6 4.6-14.5l5.7-13.4-.3-15.3c-.1-8.5-.7-17.5-1.3-20-2-9.2.7-65.4 3.4-70.6.9-1.6 1.4-3.4 1.3-4-.2-.6-.1-.8.1-.3.3.4.9.5 1.4.1.5-.3-.1 1.5-1.3 4s-2 4.8-1.7 5c.5.5 6.2-.7 9.3-2 1.4-.5 1.7-.4 1.2.4-.4.7-2.5 1.5-4.6 1.8-6.8 1.1-6.7 1-7.7 21.9-.5 11.2-.5 19.3.1 19.6.5.4.5 1.3.1 2-2.3 3.6-.2 27.3 3.1 35.7 1.2 3.1 1.3 3.3.8.7-.3-1.7-.7-4.6-1-6.5-.4-3.4-.4-3.4.7-.8 1 2.7 2.8 3.6 4.2 2.2.4-.4.3-1.2 0-1.8-.4-.6-.8-1.6-.9-2.1-.1-.6-1-2.7-1.9-4.8-.9-2.2-1.1-3.6-.6-3.2.6.3 1.1 1.2 1.1 1.9 0 .8.7 1.9 1.5 2.6 1.2 1 1.5 1 1.6-.1 0-.8.5 0 1 1.7.8 2.8 1.2 3.1 4.6 2.9 4.2-.3 5.2-2 3.3-5.5-.6-1.2-.9-2.4-.6-2.7s1.3 1.1 2.2 3c1.8 3.8 3.4 4 3.4.6 0-1.1.5-1.7 1-1.4.6.4.8 1 .5 1.5-1 1.6 1.5 5 3.6 5 2.4 0 7.8 2.8 9.6 5 2.6 3.2 1.1-.4-4.3-10.1-3.1-5.5-5.4-10.2-5.2-10.4.1-.2 2.7 3.6 5.7 8.3 2.9 4.8 6.5 10.5 7.9 12.6l2.5 4 1.8-4.5 1.8-4.4-.6 5.1-.5 5.1 3.9 1.5c2.1.9 6 1.9 8.7 2.3l4.8.8-.6-2.9c-.4-1.6-.9-4.3-1.2-5.9-.2-1.7-.9-5.4-1.4-8.4-1.1-5.9-1.3-8.7-.6-8 .3.2 1.2 4.9 2.2 10.4 2.7 16.4 1.6 15.6 14.1 8.9 11.7-6.2 18.3-10.3 18.3-11.3 0-.3-3.7-2.6-8.2-5.1s-10.9-5.9-14.1-7.7-7.3-4.1-9.1-5.3c-5-3-5.5-2.7-4.4 3.1.5 2.8.7 5.3.5 5.6-.3.2-.8-1.5-1.2-3.9s-1-4.8-1.4-5.3c-.3-.6-.6-1.4-.6-1.9 0-1.2-5.2-4.8-23.7-16.5-8.1-5.1-15.1-9.1-15.6-8.9-.5.1 1.3 5.9 3.9 12.8 4.2 11.3 4.9 12.5 7.1 12.4 1.2-.1 6.6-.4 11.8-.8 11.2-.6 7.1.8-5.3 1.9-5.3.5-8 1.2-8.4 2.1-.5 1.3-.7 1.3-1.7 0-1.4-1.9-14.9-5.9-14.3-4.3 1.5 3.7 1.6 4.8.2 2.4-.9-1.5-2-2.5-2.5-2.2-.4.3-.6-.3-.3-1.3.2-1.1-.3-3.6-1.1-5.7-1.4-3.3-1.8-3.6-3.2-2.4s-1.4.8.1-2.6c1-2.2 2.1-5.5 2.5-7.3 1.1-4.5 2.2-5.5 1.4-1.2-.6 2.6-.4 3.1.6 2.5.8-.5.4.5-.8 2.2-2 2.9-2 3.1-.4 6.6.9 2.1 1.9 3.7 2.2 3.7 1.5 0 4-16.9 4.6-30 .3-7.8.2-9-.8-6.5-.6 1.6-1.8 3.9-2.6 5l-1.4 2 .7-2c3.4-9.5 4.8-13.8 6-19 .7-3.3 2.3-10.3 3.5-15.5 2.5-11.2 3.8-18 4.5-23.4.6-5.4 1.5-7.7 2.6-7 .9.5 10.1-4.4 27.9-14.9 16-9.5 19.3-11.9 17.9-12.8-1-.6-.8-.9.9-.9 1.6 0 2.2-.6 2.2-2.3 0-1.5.3-1.8.8-.9.6.9 2.4-.6 6.2-5 3-3.5 5.7-6.5 6-6.8s4.9-5.3 10.3-11.2l9.8-10.7-4.3-1.1c-5.4-1.4-12.5-3.8-11.6-3.9.4-.1 4.2.8 8.3 2m711.1 18.9c3.9 4.1 4.5 5.5 8.3 20 2.2 8.5 4.1 17.2 4.3 19.2.1 2.1.6 3.8 1 3.8s.8 1.2.8 2.6c0 1.5.8 3.3 1.8 4 1.6 1.3 1.6 1.4 0 .8-1.6-.5-1.7-.3-.6 2.7.6 1.9 1.7 4.1 2.4 5 .8.8 1.4 2.2 1.4 3s.7 4.2 1.6 7.4c.9 3.3 1.7 6.7 1.8 7.5.2.8.5 2.4.9 3.5s1.5 6 2.5 11c1.7 8.2 1.8 10.1.6 20.5-.7 6.3-1.3 12.4-1.4 13.4 0 1.1-.2 1.7-.5 1.4s-.1-6.5.5-13.9l1.2-13.3-2.4-1.8c-1.2-.9-3.2-1.8-4.3-1.8s-2.9-.8-4-1.6c-1.9-1.6-1.9-1.6.5-.9 1.4.4 4 1.4 5.9 2.1 1.9.8 3.5 1.3 3.7 1.2.1-.2-.4-2.1-1.2-4.3s-1.6-5.6-1.8-7.5c-.7-5.6-5.1-22.2-6.9-25.7-1-1.8-1.7-3.9-1.7-4.8s-.4-1.4-.9-1.1c-.9.6-1.4-2.2-2.6-13.4-1-9-7.9-34.2-10-36.4-1.2-1.1-4.5-4.8-7.5-8.1-4.2-4.6-4.5-5.2-1.5-2.5 2.2 1.9 5.8 5.5 8.1 8M782.8 306.4c-3.2 3.2-14.3 15.9-15.5 17.6-.8 1.1-1.9 2-2.5 2-1.5 0-5.8 4-5.8 5.4 0 .5-1.5 2.5-3.2 4.3-1.8 1.9-3.3 4.2-3.3 5.1 0 1-.9 1.8-2.2 2-2.9.4-3-1.9-.3-3.6 1.7-1.1 2-2.3 2-9.7V321l3.8-3.8c2.1-2.1 6-4.9 8.5-6.1 2.6-1.3 4.7-2.7 4.7-3.3s1-.8 2.4-.4c1.4.3 2.8.2 3.1-.4.8-1.3 3.5-1.3 3.5 0 0 .5-.8 1-1.7 1-1 0-2.7.7-3.7 1.5-1.1.8-3 1.5-4.2 1.5-1.3 0-3.5 1.1-5 2.5-2.1 1.9-2.4 2.8-1.5 3.9.6.7.9 2.1.5 3-.4 1-.1 1.6.7 1.6 1.2 0 1.2.2 0 .9-1 .6-1 1-.1 1.6.7.4 2.2-.5 3.8-2.4 3.1-3.7 8.5-9.9 12.4-14.1 1.4-1.7 3.2-3 3.8-3 .8 0 .7.4-.2 1.4m-409.1 40c.4 4.1.9 6.2 1.4 5.4.5-.7.8 1.4.8 5.1-.1 3.5-.5 5.8-.9 5.2-.9-1.5-2.2 7.4-2.2 14.4v10c-.1 2.7-.1 6.5-.1 8.3 0 1.9-.5 3.1-1.1 2.9-.7-.2-1.2-7.8-1.4-22.3-.2-12-.4-23.3-.4-24.9-.2-5.3 1.3-12.8 2.3-11.8.5.5 1.2 4 1.6 7.7m399.1 27.4c-.9 3.7-.8 4.5.8 6.3s2 1.9 3 .5c1.3-1.9 2.4-1.1 2.4 1.8 0 1.7.2 1.8 1 .6.6-.8 1.5-3.2 2.1-5.4.6-2.1 1.2-3.6 1.4-3.5.8.9-1.6 10.5-3.3 12.7-.9 1.4-2.4 3.6-3.2 5-1.5 2.4-4.5 4.5-13.1 9.1-3.8 2.1-6.1 4.4-5.7 5.7.5 2.2-1.5 9.4-2.4 8.7-.7-.3-.8-.1-.4.5.4.7 1.1 1.2 1.7 1.2 1 0 5.9-4.8 10.8-10.7 2.9-3.5 3-3.5 1.9-.9-2.7 6.3-11.1 13.6-18.8 16.3-3.1 1.1-3.3 1-1.6-.3 1.1-.7 2.3-1.4 2.8-1.4 4.1 0-6.1-6.2-11.6-7.2-1.5-.2-2.2.5-2.9 2.9-.9 3-2.7 4.6-2.7 2.5 0-2.5 8.4-19.7 10.3-21.2 1.2-1 2.9-3.4 3.7-5.4.7-2 1.9-3.5 2.4-3.3 2 .7 1.8 3.9-.5 6.3-1.2 1.3-2.1 2.5-1.8 2.7.2.1 2.8 1 5.7 2l5.4 1.8 7.1-4.3 7.2-4.3-4.5-.3c-7.8-.4-11-1.2-11-2.7 0-.8.6-1.5 1.3-1.5 1.7 0 4.2-7.2 3.4-10-.5-1.9-.3-2.1 2-1.5 2.7.6 4.5-.9 6.4-5.4 1.5-3.6 1.9-2 .7 2.7M248.1 475.3c-.1 10.6.2 20.3.7 21.6.8 2.4.8 2.4 2.8-1 1.1-1.9 2.3-4.3 2.7-5.3s1-1.6 1.3-1.4c.3.3-.9 3.4-2.5 6.9-1.7 3.4-3 6.3-2.8 6.4.1.1 1.1.7 2.2 1.3 1.8 1 1.7 1.1-1.1 1.2-2.5 0-4.4-1.4-10.3-7.3-7-6.9-7.3-7.3-6.3-10.2 1.7-4.8 5.2-19.2 5.2-21.3 0-1-1.6-3.3-3.6-5.1-1.9-1.8-3.3-3.5-3.1-3.7.3-.3 2.2 1 4.2 2.9 4 3.7 4.1 4.6 2 15.4-.3 1.6.5-.1 1.8-3.7s3.1-7.9 4-9.7c2.1-3.9 2.1-4.7.2-3.9-1.9.7-1.9.1.1-1.9.9-.9 1.9-1.3 2.2-1s.5 9.2.3 19.8m10.5-3.6c-.9 5.3-1 11.2-.3 11.9.4.4 1.5.1 2.4-.7 1.7-1.3 1.7-1.3.1.7-1 1.1-1.8 2.5-1.8 3 0 1.5 7.9 16.7 9.7 18.7.9.9 1.4 1.9 1.2 2.1s-3.3 2.5-6.9 5.2c-6.2 4.5-8 6.1-8 7.5 0 .9 7.5 8.6 12.4 12.7 2.1 1.8 3.6 3.6 3.2 3.9-.3.3-4-2.8-8.1-6.8-7.1-6.8-7.6-7.2-7.1-4.4.5 2.3.4 2.6-.3 1-.5-1.1-1.2-2.8-1.5-3.8-.6-1.7-.7-1.7-3.5-.1-1.7 1-2.8 2-2.6 2.3.1.3-1.1.7-2.8.7-1.8.1-2.4-.1-1.4-.3.9-.2 1.7-1.1 1.7-1.9s.4-1.2 1-.9c.5.3 2.1-.1 3.4-1l2.5-1.7-2.1-4.3c-1.2-2.5-2.6-4.1-3.2-3.8-.6.4-.5-.1.3-1 1.9-2.4 4.5-2.3 3.2.1-.7 1.4-.4 2.5 1.2 4.6l2.2 2.8 6.5-4.7 6.4-4.8-3-1.3-2.9-1.4 3.3.6c1.9.3 3.2.1 3.2-.5 0-1.5-8.9-17.4-10.2-18.2-.7-.4-.9-2.5-.6-5.3.3-2.7.2-4.6-.4-4.6-.7 0-.7-.4 0-1.3.6-.6 1.3-2.9 1.7-5 .4-2 .9-3.7 1.2-3.7s.2 1.7-.1 3.7M421.4 503c4.1 10.8 7.7 18 9.2 18 .8 0 1.1.6.8 1.4-1 2.5 3.4 3.8 11.2 3.4 7.7-.4 8.7 0 3.2 1.1-3.2.7-3.1.8 3.7 2.8 9.2 2.8 20 5.3 23.1 5.3 1.3 0 2.4.5 2.4 1.1 0 .5.5.7 1.1.3.6-.3 3.6-.7 6.7-.9 3.1-.1 7-.6 8.6-1 2.5-.7 2.8-.6 2.3.9-.6 1.6 0 1.7 7.1 1.2 4.2-.3 15.4-1.1 24.7-1.7 9.4-.6 20.4-1.7 24.5-2.5s8.6-1.4 10-1.4 3.7-.6 5.1-1.4c1.5-.7 4.6-1.4 6.9-1.4 2.6-.1 5-.8 6.2-1.9 1.1-.9 4.9-7.5 8.5-14.6 3.6-7 6.7-12.7 6.8-12.5.2.2-2.8 6.6-6.6 14.2-4.9 9.6-6.7 14.1-5.8 14.6.8.6.8.9 0 1.4-.6.4-.9 1.2-.6 1.7s-.1.6-.9.3c-2.3-.9-33.4 16.5-32 17.9.4.4-.3.7-1.6.7s-8.7 1.5-16.4 3.4c-7.8 1.9-18.4 4.2-23.6 5.1-5.2 1-10.5 2.2-11.8 2.6-1.6.6-6-.2-15-2.7-23.9-6.8-33.2-10.1-33.2-12.2 0-.8-3.2-5.2-7.2-9.6-9-10.1-10-11.2-11.8-11.9q-1.8-.6.3-.6c2.3-.1 2.2-1-.7-6.2-2.3-4.2-11.6-26.4-11.6-27.8 0-1.6 3.9 6.2 6.4 12.9m251-3.5-.6 4.5 3.8.2 3.9.1-3.8.4c-3.1.4-5 1.7-11 7.6-4 4-9 9.4-11.2 12.1-6.2 7.7-13.6 14.9-17.9 17.6-2.2 1.3-6.5 4.4-9.5 7-3.1 2.5-10.2 7.6-15.8 11.4-5.6 3.7-10.3 7.6-10.6 8.7-.3 1-1.3 1.7-2.5 1.6-1.7-.1-8.4 2.3-18.7 6.8-1.6.8-5.2 2.2-8 3.3-2.7 1.1-9.1 4.1-14.2 6.6-5 2.5-9.7 4.6-10.3 4.6-2.7 0-8.1 3.3-7.6 4.6.6 1.6-1 1.9-1.9.3-.5-.7-1.5-.4-2.9.8-2.5 2.3-11.8 8.4-16.1 10.6-1.6.8-4.3 2.7-6 4.2-1.6 1.4-4.7 3.5-6.9 4.6-2.1 1.1-4.1 2.9-4.3 4-.4 1.2-1.3 1.8-2.8 1.7-1.3-.1-2.1-.6-1.9-1 .3-.4-2.1-3.2-5.3-6.1-10.4-9.6-22.1-19.7-22.8-19.7-.3 0-1.8-1.4-3.2-3.1-4.1-4.8-31.8-24.3-33.2-23.4-.5.3-1.2-.9-1.6-2.7s-1.5-4.2-2.4-5.3c-1.8-2.1-10.1-14.5-10.1-15.1 0-.1-1.1-1.5-2.5-2.9-1.3-1.5-3.2-5-4.1-7.8-.9-2.9-2-5.6-2.5-6.2-.5-.5-.9-1.8-.9-3 0-1.1 1.7 1.6 3.6 6 3.4 7.6 9.7 17.6 11.6 18.3.4.2.8 1 .8 1.8s.4 1.4.8 1.4c.5 0 1.4 1.2 2.1 2.7 1.7 3.8 5.3 7.2 7.6 7.4 1.7.1 1.7.2.3.6-2.9.7-2.1 2 3.8 6 3.1 2.1 7.1 5 8.8 6.4 5.9 5 17.1 12 17.4 10.9.2-.5.8-1 1.4-1s.8.6.5 1.3c-1.1 3 1.1 3.9 12.1 4.7 17.3 1.3 54.5 1.2 53.7-.1-.5-.6 0-1 1.1-.9 3.4.4 4.4 0 4.4-1.5 0-.8.5-1.5 1-1.5.6 0 1 .7 1 1.7 0 1.4.3 1.4 2.2-.3 1.2-1 1.8-1.3 1.3-.5-1.2 2.2 3.5.7 14.5-4.4 12-5.6 30.2-13.3 33.5-14.1 2.7-.7 3.3-1.9 1.3-2.7-.7-.3-.2-.6 1.2-.6 1.4-.1 3.1-1 3.9-2.2.9-1.6 1.5-1.8 2-1 .6.9 3.7-.8 10.5-5.6 5.3-3.7 10.6-7.3 11.8-8 1.1-.6 2.3-1.5 2.7-2.1.3-.5 3.8-3.1 7.6-5.7 7.2-4.9 9-6.8 8-8.5-.3-.6.1-1 .9-1 1.9 0 5.3-2.8 11-9 2.2-2.4 7.4-7.9 11.4-12.1 5-5.4 7.2-8.5 7.2-10.3 0-1.4.5-2.8 1-3.1.6-.3 1-1.5 1-2.6 0-1 .3-1.9.6-1.9s.2 2-.2 4.5m362.7 69.7c-5.1 5.1-5.2 5.3-3 5.9 2.3.7 2.3.7-.3.8-1.6.1-2.8.5-2.8.9 0 1.2 14 14.5 14.7 13.9.3-.3 0-2-.6-3.8s-1-4.8-1-6.8c.1-3 .3-2.7 1 1.8 1.1 6.6 1.9 7.7 1.9 2.8 0-2.1.5-3.7 1-3.7.9 0 .6 8.2-.6 13.5-.2 1.1-3.6 4.5-7.5 7.5s-9.6 7.4-12.6 9.7c-3 2.4-6.2 4.7-7.1 5.3-1.5.9-1.5 1.2.7 3 1.3 1.1 2.2 2.3 1.9 2.6-.6.5-7-2.7-8-4.1s.2-2.7 1.9-2.1c1.3.5 5-1.5 9-4.9.7-.5 5.5-4.4 10.7-8.5s9.5-7.9 9.6-8.3c0-.9-15.3-16.7-16.1-16.7-.3 0-1.2 1.8-1.9 4-1.7 5.3-2.5 4.4-.9-1 1.2-3.8 1.1-4.4-.6-5.6-1.7-1.3-1.7-1.4-.1-1.4.9 0 1.5-.4 1.2-.9-.3-.4.5-.6 1.7-.4 1.5.3 3.7-.9 7.2-4.1 6.8-6.2 7.2-5.8.6.6m169.1 106.3c1.1 1.4 2.3 2.3 2.7 2 .9-.5 3.1 3.9 3 5.8 0 .7-.7-.2-1.4-1.8-1.7-3.7-1.9-1.6-.3 3.9 1.5 5.4 2.8 6.7 2.3 2.5-.2-1.9-.1-2.6.1-1.7 1 3.3 2 1.9 4.4-5.7 1.8-5.6 2.8-7.5 4.1-7.5 1.6 0 1.4 1-1.6 9.6-2 5.2-3.6 11.1-3.8 12.9-.2 3.1-.4 3.4-2.7 2.8-1.4-.3-2.6-.7-2.7-.7-.4-.3-7.5-20-8-22.4-.7-3 1.4-2.9 3.9.3m20.8 5.1-.8 3.6 2.3-2.2c1.8-1.7 3-2 5.3-1.5 1.7.3 3.6 1.3 4.3 2.1.6.8 1.6 1.4 2.2 1.4s1.8.7 2.8 1.6c1.6 1.4 1.8 1.4 2.9-.5 1.5-2.9 6.7-5.4 9.6-4.7 3.5.9 9.9 4.9 8.5 5.4-.9.3-.7.9.5 2.3.9 1.1 1.4 2.2 1.1 2.6-.4.3-.7.1-.7-.5 0-.7-.4-1.2-1-1.2-.5 0-1 .9-1 1.9 0 2.6-4.4 7.6-5.8 6.7-.8-.5-.6-1.3.8-2.8 2.7-2.9 2.7-7.8.1-7.8-2.2 0-5.1 3.5-5.1 6 .1 2.1 4.6 7 6.5 7 .9 0 2.7-1.1 4-2.5 3.1-3 3.3-2 .3 1.2-2.4 2.5-4.8 2.9-8.1 1.1-2.1-1-2.1-1-.7.7s1.4 1.7-.7.7c-1.2-.7-2.9-2.2-3.7-3.4-.9-1.2-1.6-1.9-1.6-1.4 0 .4-1.1-.1-2.5-1.2-1.5-1.2-3.4-1.8-5-1.4-1.4.2-2.4.7-2.1.9.3.3-.5 1.4-1.7 2.3-3.2 2.7-1.2 3.7 2.8 1.5 4.3-2.3 5.7-1.2 2.5 1.8l-2.4 2.2 1.8-2.3c2.2-2.6 1.5-2.8-1.9-.6-1.6 1-3.4 1.4-5.1 1-1.8-.5-2.4-.3-1.8.5.9 1.5-.7.6-5.4-2.9-2.2-1.7-3.1-3-2.7-4.1.3-.8.3-1.2-.1-.9-.9 1-2.9-1.3-3.7-4-.3-1.3-.3-2.1 0-1.8.7.7 4.3-5.8 4.3-7.8 0-.8-.6-1.7-1.2-1.9-.7-.3-.3-.6.8-.6 2-.1 2.1.2 1.4 3.5"/><path d="M613 78.3c-1.4.7-9.9 5.2-19 9.9-9.1 4.8-20.2 10.6-24.8 13.1l-8.3 4.4 4.8.6c11.6 1.5 41.5 2.9 42.2 2.1.5-.5 1.5-3.6 2.4-6.9s2.2-8 3.1-10.5c4.9-15 4.9-15.4-.4-12.7M609.2 115.2c0 1.3-.6 4.5-1.2 7.3-1.4 5.7-1.7 7.4-2.5 16.5-.4 3.6-1.1 8.2-1.7 10.4-1.3 5.4-.1 6.3 5.7 3.7 2.6-1.2 5.1-2.1 5.6-2.1s3.7-1.3 7.1-2.9c3.5-1.5 7-3.1 7.8-3.4 1.2-.4 1.1-.6-.2-.6-2.6-.1-2.4-4.1.2-4.1 1.1 0 2 .7 2 1.5 0 1.8.1 1.8 3.7.4 1.5-.6 5.2-1.7 8.2-2.5 7.4-2 13.4-5.4 12.1-6.9-1.4-1.6-38.7-17.7-44.1-19-2.3-.6-2.7-.3-2.7 1.7M456.4 123.3c-3.9 4-9.7 10.3-13 14.2-3.2 3.8-9.7 10.9-14.4 15.8s-8.6 9.3-8.8 9.8c-.5 1.3 19.2 30.6 27.3 40.6 2.4 2.9 4.6 6.2 5 7.2.3 1.1 1.2 2.2 2 2.5 1.8.6 2-.8 4.1-22.9 2.5-27.4 5.8-73.5 5.2-74.1-.2-.2-3.6 2.9-7.4 6.9M649 140.1c-4.1 1.7-13.6 5.6-21 8.6-15.7 6.3-24.5 10.6-23 11.1.5.2 1 1 1 1.7s1.7 2.4 3.8 3.6c2 1.3 3.9 2.7 4 3.1.2.4.8.8 1.4.8s2.8 1.4 4.9 3.1 3.9 2.8 3.9 2.4 1.6.3 3.6 1.5c1.9 1.2 3.8 2 4.1 1.6.4-.3 0-.6-.8-.7-.8 0-.4-.4.9-.9 1.2-.5 3-2.4 4-4.1.9-1.7 3.4-5.4 5.5-8.1 7.9-10.1 16.7-24.1 16.7-26.3 0-.9-1.5-.4-9 2.6M650 155.7c-5.8 8.6-11.1 17-11.9 18.6s-2 3.1-2.8 3.4c-2.7 1.1-1 3.2 8 10 15 11.3 15.8 11.8 16.8 10.2.7-1.2 1.4-58 .7-57.9-.2 0-5 7.1-10.8 15.7M664 141.5c-.4 5-.7 14.7-1 36.5l-.4 23.5h3c7.5 0 27.4-1.8 27.2-2.5-4.3-11-28.6-59.6-28.8-57.5M603.3 166.7c1.3 4.2 3.9 13.5 6.2 21.8 3.3 12.4 5 17 6.3 17 1.1 0 2.6-2.5 10.3-17.3l3.8-7.3-5.2-3.3c-2.9-1.8-7.4-4.6-10.2-6.1-2.7-1.6-5.2-3.2-5.5-3.6-.6-.8-4.6-2.9-5.6-2.9-.3 0-.4.8-.1 1.7M602 180c0 1.1-.6 2-1.4 2-2.3 0-2.7 2.7-2.5 18.9.1 8.6.4 14.8.6 13.8.3-.9 1.1-1.7 1.9-1.7s1.4-.7 1.4-1.5c0-1.2 3.4-2.8 6.3-3 1.7 0 2.4-2.9 1.5-6.8-.4-2.3-1-5.3-1.3-6.7s-1.5-5.8-2.7-9.7c-2.3-7.1-3.8-9.3-3.8-5.3M624.9 195.5c-3.4 6.9-6 12.8-5.7 13 .3.3 1.8.1 3.4-.4s5.8-1.2 9.4-1.5c7.2-.6 21.6-3.1 24.2-4.1 1.4-.6 1.2-1.1-1.5-3.4-6-5-21.4-16.1-22.5-16.1-.7 0-3.9 5.6-7.3 12.5M488.5 200.4c-5.3 2.9-19.6 12.1-25 16.1-1.8 1.2 1.8 1.4 31 1.4h33l-3-2.5c-1.6-1.4-3.7-2.8-4.5-3.2s-5.4-3.3-10.2-6.5c-4.7-3.1-9-5.7-9.6-5.7-.5 0-1.5-.7-2.2-1.5-1.7-2.1-2.7-1.9-9.5 1.9M650 206c-2.5.4-10.7 1.6-18.2 2.6-7.6 1-13.8 2.2-13.8 2.6s.3.8.8.8c.4 0 1.8 1 3.2 2.3 6.8 6.2 24 18.7 25.8 18.7.4 0 1.5-2.1 2.4-4.8.9-2.6 3-8.5 4.7-13.2s3.1-8.8 3.1-9.2c0-.9-1.6-.9-8 .2"/><path d="M656.6 214.7c-1.3 4.3-3.5 10.7-4.8 14.3-2.8 7.4-3.1 5.7 5.6 26.4 2.5 6 4.6 11.2 4.6 11.5 0 1.5-3-4.1-4.9-9.3-1.2-3.3-3.3-8.4-4.7-11.3-1.3-3-2.4-6-2.4-6.7s-.7-1.9-1.5-2.6c-1.3-1.1-2.4-.9-6.3.8-2.6 1.1-6.5 2.6-8.7 3.3-2.2.6-6.8 2.5-10.3 4-3.4 1.6-6.7 2.9-7.2 2.9s-2.1.5-3.7 1.1l-2.8 1 3.9 2.4c3.6 2.2 10.5 6.6 32.7 20.7 4.9 3.2 9.4 5.8 9.9 5.8.6 0 1 .3 1 .7 0 .7 9.2 6.3 10.3 6.3.3 0 .8-.7 1.1-1.6.3-.8.2-1.3-.3-1-1 .7-2.6-2.6-3.9-7.9-.5-2.2-1.3-4.9-1.7-6-.5-1.3-.5-1.7.2-1 .6.5 1.8 3.2 2.8 6 3.4 9.3 4.3 8.2 2.5-3-.5-3.3-1.6-13.9-2.5-23.5-.8-9.6-2-20.2-2.5-23.5s-1.2-8.6-1.6-11.8c-.3-3.1-.9-5.7-1.4-5.7s-2 3.5-3.4 7.7"/><path d="M615.9 216.1c-1.2.7-1.2.9.1.9.9 0 1.1.3.5.8-.6.4-1.7 2.7-2.4 5.2-1.4 4.7-4.1 23.2-3.5 23.9.5.6 8.1-1.7 13.2-4 2.3-1.1 5.7-2.2 7.5-2.6 1.7-.3 4.9-1.4 6.9-2.4 2.1-1.1 4.4-1.9 5.3-1.9.8 0 1.5-.4 1.5-.9 0-.7-6.3-5.3-13.1-9.6-4.5-2.8-7.5-5.1-8.2-6.2-1.4-2.2-6.2-4.2-7.8-3.2M451 220.6c-2.5.6-30.2 3.7-34.2 3.8-4.9.1-4.9 1.4.2 9.4 2.2 3.4 4 6.5 4 6.9 0 .3 3.7 5.8 8.3 12.2s10.3 14.9 12.6 18.9c2.4 4.1 4.5 7.2 4.7 7 .6-.7 3.1-15 4.9-27.8.8-6.3 2.2-15.2 3.1-19.8 2-10.6 1.6-11.9-3.6-10.6M459 221.9c0 1.1-.4 2.2-.9 2.5-.4.3-1.1 2.2-1.4 4.3s-1.9 11.7-3.5 21.3c-1.7 9.6-3.3 20.5-3.7 24.1l-.7 6.5 9.4 4.3c5.1 2.4 13.9 6.6 19.4 9.3 5.6 2.7 10.9 4.8 11.8 4.6 1.3-.2.4-2.8-5-14.3-3.6-7.7-8.1-17.8-10.1-22.5s-4.9-11.4-6.6-15c-1.6-3.6-4-9.4-5.2-13-1.3-3.6-2.6-7.3-3-8.3-.4-.9-.3-1.7.2-1.7 1 0 2 2.1 6.3 13.5 2.2 5.7 10.2 24.3 17.5 40.6 5.1 11.4 9.2 18.4 10.9 18.7.9.2 1.6-.1 1.6-.7s2.4-6.2 5.3-12.4c5.2-10.8 6.4-13.4 14.2-31.7 2-4.7 4-9 4.5-9.5.7-.9 6-13.7 7.4-17.8.3-.9 1.3-1.7 2.1-1.7 1.5 0 1.5-.2.1-1.5-1.2-1.3-6.6-1.5-36-1.5-33.6 0-34.6.1-34.6 1.9M533.9 220.6c-.1.5-.1 1.2 0 1.6 0 .4.8 8.3 1.6 17.5 2.2 24.6 3.6 33.3 5.2 33.3 2.9 0 48.3-47.7 48.3-50.7 0-.9-2.2-1.3-7.8-1.3-4.4 0-16.7-.3-27.5-.7-11.6-.3-19.7-.2-19.8.3"/><path d="M528 228.4c-1.1 2.6-2 4.9-2 5.2 0 .2-3.1 6.9-7 14.8-3.8 8-7 15-7 15.6 0 1-7 16.7-13.5 30.2-2.1 4.4-2.2 4.8-.6 4.8 2.4 0 34.6-16.1 37.8-19 .7-.6 1.1-2.5.8-4.8-.2-2-.9-9.6-1.5-16.7-1.3-14.5-3.7-33.6-4.5-34.3-.2-.3-1.4 1.6-2.5 4.2M409 231.3c0 1.9-8.2 17.7-8.9 17.2-.4-.2-1.2.5-1.9 1.5-.9 1.5-.8 2.3.6 3.9 1.6 1.9 13.6 9.1 15.1 9.1s1.1-9.9-.7-18.1c-1-4.6-1.8-9.6-1.8-11.1.1-1.5-.4-3-1.1-3.2-.7-.3-1.3 0-1.3.7M413.6 236.2c.3 1.3 1.4 7.9 2.6 14.8 1.1 6.9 2.3 13 2.7 13.7.6 1.2 24.1 13.7 24.1 12.8s-4.7-8.4-10.4-16.5c-7-10-11.1-16.1-14.8-22.4-2.9-4.9-5-6.1-4.2-2.4M618 263.2c2.9 4 8.2 11.8 11.7 17.2l6.5 9.9 9.1-.7c4.9-.3 11.4-.6 14.4-.6 2.9 0 5.3-.4 5.3-.9s-2.1-2.2-4.7-3.7c-2.7-1.5-7.5-4.7-10.8-7.2-7-5.1-33.9-21.2-35.5-21.2-.6 0 1.2 3.3 4 7.2M395.6 266.5c-.4 5.2-1.1 10.8-1.6 12.5-.8 2.9-.7 3.1 1.3 2.4 1.2-.4 2.4-1.1 2.5-1.5.2-.5.8-.9 1.4-.9.5 0 2.4-1.1 4.1-2.4 1.8-1.3 5.1-3.3 7.5-4.5 2.3-1.2 4.2-2.7 4.2-3.5 0-1.5-15.5-11.6-17.9-11.6-.5 0-1.1 4.3-1.5 9.5M609.5 259c-1.3 2.1-1.8 12-.6 12 .6 0 1.1 1.3 1.1 2.9 0 2 .8 3.5 2.2 4.5 1.2.9 1.7 1.7 1 1.7-2.6.3-3.1.4-3.7 1.1-.3.3.9 1.1 2.7 1.6 13.3 4.1 17.9 5.3 18.9 5 .7-.2 0-1.7-1.5-3.5-1.4-1.7-2.6-3.5-2.6-4.1 0-.5-.7-1.6-1.6-2.3s-3.4-4-5.7-7.4c-5.5-8.2-9.5-12.7-10.2-11.5M419.3 270.6c-.8 2.2.6 20.7 1.7 21.8s24.2-9.3 23.7-10.8c-.3-1.1-16.7-9.7-22-11.5-2.2-.8-2.9-.7-3.4.5M411.5 274.2c-1.1.6-5.3 3.3-9.3 5.9l-7.3 4.7 3.3 1.6c5.1 2.3 18.9 6.8 19.4 6.3.3-.2.1-4.6-.3-9.8-.8-9.9-1.6-11.1-5.8-8.7M530.5 284.5c-2.2 1.3-10.6 5.7-18.7 9.7s-14.8 7.7-14.8 8.1 4.6 3 10.3 5.6c20.2 9.5 22.7 10.4 22.7 7.8 0-.7.8-1.3 1.8-1.4.9-.1 5.8-2.6 10.7-5.6 5-3 12.3-7.1 16.3-9.2 4-2 7.1-4.2 6.9-4.8-.3-1.1-25.2-12.7-27.3-12.7-.7 0-1.5.6-1.7 1.2q-.6 1.5-.6 0c-.1-1.7-1-1.5-5.6 1.3M443.5 285c-1.9 1-5.4 2.5-7.7 3.5-7.8 3-13.7 6-13.5 6.7.2.8 10.9 6.6 25.4 13.8 4.5 2.2 8.5 4.5 8.8 5 .3.6 1.1 1 1.7 1 1.4 0 .2-4.4-3.1-11-3.4-6.8-7.5-17.9-6.9-18.5.7-.7 4.5 7.6 6.8 14.7.6 2.1 1.5 3.8 1.8 3.8.8 0 5.2 9.2 5.2 10.8 0 .6.5 1.2 1.2 1.4 1.8.6 21.5-8.4 25.2-11.5l3.1-2.6-2.5-.7c-1.4-.4-6.6-2.9-11.7-5.6-5-2.6-11.3-5.6-14-6.7-2.6-1.1-6.6-2.7-8.8-3.7-5.3-2.4-7-2.5-11-.4"/><path d="M561.5 299.7c-2.8 1.4-6.7 3.7-8.7 5-2.1 1.2-4.1 2.3-4.5 2.3-.5 0-3.1 1.5-5.8 3.3-2.8 1.9-6.5 4-8.2 4.8-3.6 1.5-4.3 2.8-1.5 3 .9.1.1.5-1.8.9-2.5.6-3.9.5-5-.4-.8-.8-3.1-2-5-2.9-1.9-.8-8-3.6-13.6-6.1-5.5-2.5-10.4-4.6-10.8-4.6-1.4 0 .4 7.2 2.4 9.8 1 1.3 2.7 4.6 3.6 7.5 1.4 4.2 5.9 14.2 7 15.5.1.2 3.5-2.9 7.5-7 6.7-6.8 7.1-6.3.5.9-1.6 1.8-3.1 3.9-3.3 4.5-1.7 7.4-1.8 7.1 5.3 11.6 5.1 3.2 10.4 4.2 10.4 1.9 0-.9.3-.8.9.2 1.5 2.3 5 .3 5.6-3.2.4-2.5.2-6.3-.4-7.3-.1-.1-3.8.9-8.3 2.2s-9.1 2.3-10.2 2.3c-2.1-.1-2.1-.1-.1-.6 5.8-1.4 14.4-4.7 17.5-6.7 1.9-1.3 4.9-3.1 6.5-4.1 2.6-1.6 4.8-4 5-5.5.3-2.1 1.8-5 2.6-5 .5 0 .9-.5.9-1 0-.6-2.8-1-6.2-1-10.5 0-10.2-1.8.3-2.1 9.8-.4 12.4-1.6 14.2-6.3.5-1.2 1.4-1.7 2.8-1.3 1.3.4 2.2 0 2.6-1.1.4-.9 1.5-2.4 2.5-3.3 1.8-1.6 2.6-8.9 1-8.9-.4 0-3 1.2-5.7 2.7M488.5 306c-2.2 1.5-8.2 4.9-13.2 7.6-5.7 2.9-9.3 5.4-9.3 6.4 0 .8 3.8 5.3 8.4 9.9l8.4 8.4 3.3-10.8c1.8-5.9 3.5-10.3 3.7-9.7.4 1.3-3.4 15.8-5 18.9-1.7 3.3-.4 5.3 3.6 5.3 3.4 0 3.5 0 4.1-5.3.3-2.8.5-11.6.3-19.3l-.3-14.2zM495.5 315.1c-.3.8-.4 7.1-.3 14l.3 12.4 3.4.3c5.3.5 10.5-.7 9.3-2.1-.6-.7-2.9-5.5-5.2-10.7-6.6-15.3-6.8-15.7-7.5-13.9M512.9 349.3c.5 1.4.7 2.8.3 3.2s0 .5.8.3c.9-.2 1.6.6 1.8 2.1s0 2.1-.7 1.7c-1.5-1-1.4 1.1.5 6.4.9 2.5 1.7 5.8 1.9 7.5 1.2 9.9 1.8 12.9 3 15.1.6 1.3 1.5 2.1 1.8 1.7 1.6-1.5 0-20.6-1.6-20.1-1.5.5-3.5-4.6-3-7.6.5-2.5.9-2.7 3.4-2.2 1.6.3 2.9.1 2.9-.3 0-.5.2-1.6.5-2.4.7-1.5-5.7-6.2-9.9-7.3-2.5-.6-2.6-.5-1.7 1.9M509.5 359c-.3 2.5-.6 4.9-.5 5.4s-.4 1.2-1.2 1.7c-.7.5-1.3 1.2-1.4 1.6-.5 7-1.9 14.5-3 17.1-.9 1.9-1.7 7.2-1.9 12.5-.2 5.6-1 10.7-2 13.1-.9 2.2-2.1 8.2-2.6 13.5s-1.2 10.7-1.5 12.1c-.4 2 1 1 6.3-4.6 7.9-8.1 16.2-17.7 18.7-21.6 1.6-2.5 1.6-3.1.2-9-3-11.6-4.1-16.8-7.1-33.1-.8-4.8-2-9.7-2.4-11-.8-1.9-1-1.6-1.6 2.3M469 372.5c-1.8 1.9-2.3 3.5-2.2 6.7.1 2.4-.3 4.5-1 5-1.6 1-4.8 1-4.7 0 .8-4.7-4.1-3.8-10.2 1.9-2.7 2.6-4.9 5.4-4.9 6.3s-.5 1.6-1.1 1.6-3 1.8-5.2 4.1c-5 5-4.4 5.5 7.2 6.4 4.7.4 10.7 1 13.3 1.4 2.6.5 5.2.5 5.9.1 1.1-.7 3.7-12.3 4.5-20.5.2-2.2.7-6.1 1.2-8.7 1.1-6.1.2-7.5-2.8-4.3M647.2 382.3c-.6.7-1.5 3.1-2.1 5.2-.5 2.2-1.5 5.9-2.2 8.3-.6 2.3-.9 4.6-.5 4.9.6.7 13-2.7 19-5.2 2-.9 3.6-2.1 3.3-2.8-.2-.6-3.2-3.1-6.8-5.5-9.1-6.2-9.5-6.4-10.7-4.9M635.2 391.4c-2.9 2.9-4.9 5.5-4.6 5.9.4.4 0 .7-.9.7s-1.7.5-1.7 1.1c0 .5-.4.8-.9.4-.5-.3-1.6.2-2.4 1-.9.8-1.8 1.5-2.2 1.5-.3 0-1.8 1.1-3.3 2.5s-2.4 2.5-2 2.5c3.1 0 20-4.1 21.2-5.1 1.2-1.1 3.6-13.2 2.8-14.6-.5-.8-2.5.6-6 4.1M544 407.5c-8 .7-15.3 1.6-16.2 2-1.4.5-1 1.3 2.5 4.9 2.3 2.3 6 6.2 8.2 8.8 8 9.1 32.1 33.5 34.3 34.7 2.1 1.1 2.3 1.1 1.9-.6-.3-1-.8-4.5-1.2-7.8-1-9.9-3.5-26.5-5.2-35.3l-1.6-8.2-4.1.1c-2.2.1-10.6.7-18.6 1.4M584.5 418.5l12 11.6 3.7-4.3c3.7-4.2 8.9-13.7 8.2-14.9-.4-.8-15-2.6-26.9-3.4l-9-.6zM392 446.7c0 .5 1.6 3.3 3.5 6.3s5.8 10.1 8.6 15.7c6.5 12.7 10.9 17.5 23.1 25.7l9.6 6.5 2.4-3.7c1.4-2 3-4.8 3.6-6.2s1.1-1.8 1.1-1c.1.8-1 3.5-2.4 5.9-1.4 2.3-2.5 4.8-2.5 5.5 0 .6 2.7 4.5 6.1 8.6 7.1 8.8 7.5 9.1 6.4 6.5-.4-1.1-.9-2.9-1-4-.2-1.1-.8-4.7-1.3-8-.6-3.3-1.3-8.6-1.7-11.8-.4-3.1-1.1-5.5-1.6-5.2-.5.4-.9-.7-.9-2.2 0-1.7-1.2-4.4-2.7-6.3-5.8-7.1-11.7-13.5-12.7-13.9-.6-.2-1.6-1.2-2.3-2.1s-7.4-4.5-15-8c-7.6-3.4-14.7-6.9-15.8-7.6-2.1-1.5-4.5-1.8-4.5-.7M574.5 468.2c-.4 1.8-1.1 3.7-1.5 4.3-.7.9-1.8 4.2-6.8 20.5-1.1 3.6-2.4 7.3-2.7 8.2-.4 1.1-.3 1.8.5 1.8 1.6 0 32.4-15.4 32.8-16.4.5-.9-19.5-21.6-20.8-21.6-.5 0-1.2 1.5-1.5 3.2M566.9 470.3c-7.4 6.1-14.1 13.8-13 15.1.5.6 2.5 4.2 4.4 7.9l3.5 6.8 2.5-7.3c1.4-4 4-11.5 5.7-16.6 1.8-5.1 3-9.5 2.8-9.8-.3-.2-3 1.5-5.9 3.9M554 493.7c0 .5.5 1.4 1.1 2 .7.7.2 1.4-2 2.1-1.7.6-3 1.5-2.9 2 .2.5-.7 1.8-1.9 2.8-1.2 1.1-2.5 3-2.9 4.4-.6 2.2-.5 2.3.9 1.1.9-.7 2.5-1 3.4-.7 1.5.6 1.5.9.3 1.6-.8.5-1.8.6-2.2.4-.5-.3-1.1.2-1.4 1.1-.6 1.3-.8 1.4-1.5.3-.7-1-.9-.9-.9.4 0 .9.6 1.9 1.3 2.1.7.3.4.6-.6.6-1 .1-1.6.5-1.3 1 .4.5.1 1.1-.6 1.3-.8.3-.9.6-.1 1.1.6.4 2.8-.7 4.9-2.4 2.2-1.8 6-4.5 8.7-6.1 2.6-1.6 4.7-3.2 4.7-3.5 0-.4-1.1-3-2.5-5.9-2.3-4.9-4.5-7.7-4.5-5.7M947 118.6c-5.8 1.4-12.9 3-15.9 3.7s-5.6 1.7-5.8 2.2c-.2.6 6.4 9.5 14.6 19.8l14.9 18.8 1.1-3.3c.9-3.2 2.3-12.1 3.7-23.8.3-3 1-7.7 1.5-10.4s.9-5.9.9-7.2c0-3-1.2-3-15 .2M963.1 120.8c-.6 2.6-1.8 11-2.7 18.7-.8 7.7-1.7 16.4-2.1 19.3-.6 5.3-.6 5.3 1.8 4.3 3-1.2 17.3-5.1 29.7-8.2 5-1.2 9.2-2.6 9.2-3s-7.1-7.7-15.7-16.3c-8.7-8.5-15.5-15.7-15.3-16 .3-.2 8.1 6.9 17.3 16 9.2 9 17.1 16.4 17.5 16.4 1.9 0 23.1 2 26.2 2.5l3.5.6-4.5-2.9c-2.5-1.6-6.9-4.2-9.7-5.8-2.9-1.6-13.9-7.9-24.5-14-17.5-10.1-23-13.2-28-15.5-1.3-.7-1.8 0-2.7 3.9"/><path d="M1003 153.6c0 .3 4.3 8.9 9.5 19.1s9.5 19.2 9.5 20c0 2.8 2 .1 3.4-4.5.8-2.6 1.5-4 1.5-3.1.1.9-.6 3.6-1.4 6-1.5 4.2-1.5 4.4 1.2 8.6 6.8 10.4 33.5 48.7 33.1 47.3-.3-.8-2-7.6-3.8-15s-4.9-18.9-7-25.5c-3.9-12.4-8.3-27.9-9.4-32.8-1.2-5.1-4.7-13.7-5.5-13.3-.4.3-1.3 3-2 6.1s-1.5 5.5-1.7 5.2c-.3-.2.3-3.7 1.2-7.6.9-4 1.4-7.4 1.2-7.6-.1-.2-5.7-.8-12.3-1.4-6.6-.7-13.2-1.4-14.7-1.6-1.6-.3-2.8-.2-2.8.1M995.5 155.7c-2.7.8-8.4 2.3-12.5 3.3s-10.2 2.8-13.4 3.9c-3.3 1.2-6.6 2.1-7.5 2.1-2 0 .3 1.4 12.8 7.5 5.2 2.5 10 4.4 10.8 4.1s1.1-.1.8.4c-.3.6-.1 1 .4 1 .6 0 3.4 1.1 6.3 2.5 5.5 2.7 7.3 3.2 4.8 1.4-1.2-.9-1.2-1 .3-.5 1 .3 2.4.6 3 .6.8 0 .7.4-.2.9-.9.6-.1 1.1 2.9 1.6 2.3.4 3.8 1 3.2 1.4-.7.4 1.7 2.1 5.4 3.9s6.9 3 7.2 2.7c.6-.5-3.8-9.5-10.8-22.5-1.7-3-3.8-7.4-4.6-9.7-2.3-5.8-3.1-6.2-8.9-4.6M1041.4 174.5c1.5 6.2 6 22.3 8.6 30.5 1.6 5.2 3.8 13.1 4.9 17.5 1 4.4 2.8 11.4 3.9 15.5s2.2 8.6 2.4 10c.3 2.1.5 1.8 1.9-2 4-11.5 4-11.4-.3-21-1.2-2.5-3.8-8.8-5.8-14-9.9-25.4-16.9-41.8-15.6-36.5M962.4 176.5c.3.8.1 1.5-.5 1.5-.7 0-.9 1.4-.5 3.7.3 2.1.9 5.6 1.2 7.8.4 2.2 1.1 5.1 1.7 6.5s1 2.8.9 3.2c-.2.7 3.5 18 4.4 21 .7 2.2 3.2 1.9 6.7-.9 3.5-2.7 3.4-4-.4-9.1-2.4-3.2-2.9-4.9-2.5-6.8.5-1.9.1-3.1-1.5-4.5-1.5-1.3-2-2.6-1.7-4.4.4-1.7.1-2.5-.8-2.5-.8 0-1.4-.9-1.4-2s-.4-2-1-2c-.5 0-1-.7-1-1.5s-.9-1.9-2-2.5c-3-1.6-2.4-3.3.9-2.8l2.9.4-2.5-3.3c-2.7-3.5-3.9-4.2-2.9-1.8M1007.1 194.5c-.7 1.9-1.7 3.5-2.2 3.5s-.9.9-.9 1.9c0 1.7-.7 2-5.5 2-3.1 0-5.8-.6-6.2-1.2-.5-.7-1.9-2.1-3.3-3.2-1.5-1.3-1-.3 1.5 2.8 2.6 3.3 4.1 4.5 4.9 3.7.5-.5 1.4-1 2-1 .5 0 .2.6-.8 1.3-1.6 1.2-1.5 1.4 1 3.6 2.6 2.2 2.9 2.3 5.3.9 1.4-.8 2.5-2 2.3-2.7-.1-.7.2-.9.9-.5.6.3 1.4.3 1.8-.2.3-.5 1.5-1.4 2.6-2.1 1.1-.6 1.9-1.6 1.7-2.3-.1-.6.2-.9.7-.6.9.6 8.1-3.1 8.1-4 0-.3-1.7-.3-3.7 0-2.8.4-3.1.3-1.3-.2l2.5-.8-3-1.6c-6.1-3.2-7-3.1-8.4.7M1010.8 205.8c-4.9 3.1-8.8 6-8.8 6.3 0 1.2 13.9 23.4 14.8 23.7.6.2 1.3-1.6 1.6-4 .2-2.4 1-9 1.7-14.8.6-5.8 1.4-12 1.6-13.8.7-4.4-.5-4.1-10.9 2.6M1023.7 207.5c-.3 1.1-1.4 8.3-2.2 15.9-.9 7.7-1.9 14.4-2.2 14.9-.5.9.5 1.8 7.5 6.8 2.4 1.7 4.6 2.9 4.8 2.6.3-.3-.8-7.6-2.5-16.3-1.6-8.8-3.3-18.2-3.8-20.9-.7-3.7-1.1-4.5-1.6-3M988.5 220c-5.5 3.2-11.1 6.8-12.5 7.9l-2.5 2.1h3.5c3.3 0 7.6.9 14.5 3 6.7 2 22.9 5.9 23.2 5.6.4-.4-14.6-24-15.5-24.3-.4-.2-5.2 2.4-10.7 5.7M925.1 228.7c2.6 6.3 36.2 73.3 36.6 72.9.3-.3 1-5.2 1.8-13.1.3-3.3.7-7.1.9-8.5.5-2.6 2.3-27.5 3-39.5.2-3.9.6-7.7.7-8.5.5-2-23-5.7-24.2-3.8-.6.9-1.4.9-3.6-.1-1.5-.7-3.9-1.5-5.3-1.8-1.4-.2-4.3-.8-6.5-1.3s-4.3-1-4.7-1 .2 2.1 1.3 4.7M922 229.7c0 .5-.7 8-1.5 16.8-2.5 27-4.4 48.6-5 58-.3 4.9-.8 12.2-1.1 16.2s-.1 7.4.4 7.7c.9.6 10.1-3.6 24.2-11 3.6-1.9 10-5.1 14.3-7.1 6.8-3.1 7.7-3.9 7.1-5.7-.4-1.2-8.7-18.2-18.5-37.8C932 247.1 924 230.6 924 230c0-.5-.4-1-1-1-.5 0-1 .3-1 .7M974.1 234.2c.7 1.6 1.6 2.8 2.1 2.8.4 0 .8.5.8 1.2 0 2 9.4 20 10.7 20.5 1.2.5 7.1-3 20.9-12.4 4.5-3.1 7.1-5.4 6.3-5.7-1.2-.4-7.6-1.6-16.9-3.3-1.4-.2-5-1.1-8.1-1.9-7.1-1.8-6.6-1.8-7.3.8-.3 1.4-.9 1.9-1.3 1.3-.5-.6-1.5-1-2.3-.9-.8 0-2.5-1.1-3.8-2.5l-2.3-2.6zM970 235.6c0 1.1-.4 6.8-1 12.9-.5 6-1.4 17.3-2 25s-1.6 16.6-2.1 19.9c-.6 3.2-.8 6-.6 6.2.4.5 9.5-14.9 17.7-29.9l4.2-7.8-2.7-5.2c-5.6-10.9-8.7-15.7-10.1-15.7-1 0-1.3-.7-.9-2.3.4-1.5.1-2.8-.9-3.6-1.4-1.1-1.6-1.1-1.6.5M1020.4 245.2c1.9 6.4 5.9 21.6 6.3 24 .3 1.6.9 2.8 1.3 2.8 1 0 1.7-4.2 2.6-14.1l.7-7.7-4.9-3.6c-5.7-4.2-6.9-4.4-6-1.4M1007.9 249.1c-4.1 2.8-9.6 6.5-12.3 8.2-4.5 2.8-4.7 3.1-3 4.4 1 .7 2.2 1.3 2.6 1.3.5 0 7.2 2.5 14.9 5.5s14.4 5.5 14.9 5.5c.8 0-.7-6.5-4.7-20.3-.9-3.3-2.2-5.7-3-5.7-1.6 0-1.7-1.2-.1-2.8.9-.9.9-1.2-.4-1.2-.8 0-4.8 2.3-8.9 5.1M1032.6 258c-.3 1.9-1 6.8-1.7 10.9l-1.1 7.4 3.8 3.4c2.2 1.8 5.7 4.8 7.8 6.5l3.9 3.2-.7-2.9c-.4-1.6-1.6-4.8-2.7-7.2-1-2.3-1.9-4.8-1.9-5.6s-.6-3-1.4-4.9-1.6-4.6-1.8-5.9-1.1-3.7-2-5.4l-1.6-3zM980 277c-3.8 7.7-8.6 16.5-10.5 19.5s-3.5 5.7-3.5 6c0 1.3 6.3-1.3 33.2-13.8 5.1-2.4 12.9-5.8 17.3-7.7s8.2-3.6 8.4-3.7c1-.7-3.8-3.3-9.4-5.1-3.3-1.1-8.5-3-11.5-4.2-7-2.8-14-5-15.6-5-.7 0-4.5 6.3-8.4 14M1030 280.6c.2 4 4.7 21.8 5.7 22.1 1 .4 9.3-9.9 9.3-11.5 0-.5-1.5-2.1-3.4-3.6-1.9-1.4-4-3.2-4.8-3.9-.7-.7-2.5-2.1-4-3.1-2.7-1.8-2.8-1.8-2.8 0M1022.5 290.1c-2.1 4.5-3.8 8.8-3.8 9.5 0 .8-.4 1.4-.9 1.4s-.6.4-.3 1c.3.5.1 1-.6 1s-1 .3-.6.6c.3.4 0 1.3-.8 2.1-2.7 2.7-1.5 3.1 4.3 1.7 11.4-2.8 13.2-3.5 13.2-5 0-1.2-2.9-12.9-4.6-18.7-.9-3-2-1.9-5.9 6.4M965 307.3c0 1 12.3 25.3 14.8 29.4l2.6 4.1 2.5-2.6c1.4-1.5 3.4-3.1 4.5-3.7 2.2-1.1 13.3-14.1 16.5-19.3 1.5-2.4 1.7-3.4.8-3.7-.6-.2-8.2-1.1-16.7-1.9-8.5-.9-17.6-1.9-20.2-2.2-2.7-.3-4.8-.4-4.8-.1M949.1 314.5c-11.5 5.8-13.1 6.9-13.1 9.1 0 3-2.8 4.4-4.5 2.1-1.1-1.5-1.9-1.3-8.5 1.9l-7.4 3.5 4.5 2.6c3.3 1.9 25.6 13.1 30.1 15.1.9.4 3.3-5.3 4.2-10.2.4-2.1.9-3.6 1.2-3.3.3.2-.2 3.3-1 6.8s-1.3 6.6-1 6.8c.5.6 18.1-1.8 23.2-3.1 3.7-.9 4.2-1.4 3.6-3.2-1.1-3.7-16.6-34.6-17.4-34.6-.4 0-6.6 2.9-13.9 6.5M914.8 335.2c-.7 2 1.1 32.8 2 34.4.7 1.3 1.2 1.2 3.4-.6 1.4-1.1 2.9-2 3.2-2 1.1 0 24.6-15.3 24.6-16s-31.1-17-32.3-17c-.3 0-.7.6-.9 1.2M1064.6 342.2c-.2.7-1.3 3.9-2.5 7.1-2 5.6-2 11.7.1 11.7.5 0 .6 1.6.2 3.5-.5 2.9.3 5.4 4.9 15.2 9.4 19.9 17.6 36.8 17.7 36.1 0-.3-3.2-8.9-7.1-19-12.3-32.2-11.8-30.2-12.1-43.7-.2-11.6-.4-13.6-1.2-10.9M966.2 349c-9 1.3-12.2 2.1-12.2 2.8 0 1.5 20.6 23.2 22 23.2.5 0 1.1.9 1.5 1.9.3 1.1 1.7 2.6 3 3.5l2.5 1.7-.5-8.1c-.4-4.5-1-9.2-1.5-10.5-.5-1.4-1-5.4-1.2-9l-.2-6.5-4.1.1c-2.2.1-6.4.5-9.3.9M946.5 355.5c-1.6 1.3-3.4 2.4-3.8 2.5-1.1 0-18.1 10.9-21.3 13.5-1.4 1.1-2.1 2.5-1.6 3.1.4.6 5.2 3.8 10.7 7.1s14 8.5 18.9 11.7c4.9 3.1 9.1 5.4 9.4 5.2.2-.3-.1-2.9-.8-5.8-.6-2.9-1.4-7.3-1.7-9.8-.2-2.5-1.6-9.1-2.9-14.7-1.3-5.7-2.4-11.4-2.4-12.8 0-3.1-.7-3.1-4.5 0M953.4 356.7c.4 1.2 1.7 7.6 3.1 14.3 1.6 8.5 2.9 12.6 4.2 13.6 1.3 1.1 1.4 1.7.6 2-.9.4-1.1 2-.7 5.2.9 7.5.9 7.5 5.1 4.7 2.1-1.4 5.2-3.5 7-4.6 1.7-1.1 3.9-3.1 4.8-4.5s2.1-2.2 2.7-1.8.8.3.5-.3c-.3-.5-2.7-.8-5.3-.6-3.3.3-4.4.1-3.9-.7.4-.6 1.3-.9 2.1-.6.7.3 1.6.1 2-.5.3-.6 1.3-.8 2.3-.4 1.1.4.9-.1-.6-1.4-2.3-2.2-3.8-2.8-2.8-1.1.3.5.1 1-.6 1-.6 0-.9-.8-.6-2 .4-1.5-1.9-4.5-9-12.2-12.4-13.4-11.6-12.7-10.9-10.1M1036.3 384.6c-.7 1.6-1.5 4.5-1.8 6.4-1 5.6-2.6 10-3.5 10-.5 0-.8-.6-.5-1.3 1-3.1 1.3-10.7.4-11.2-.5-.4-.9-.1-.9.5s-.5.8-1.2.4c-.8-.5-1 .8-.5 4.9.3 3.1.9 6.2 1.3 6.9.4.6.8 2.8.8 4.7l.1 3.5 7.9 1.9c4.3 1 8.1 1.5 8.4 1.2.6-.6-1.4-10.6-4.5-22.8-1.2-4.2-2.2-6.5-3-6.3-.6.3-1.3 0-1.5-.6s-.9.2-1.5 1.8M989 387.8c0 .3 5.1 5.6 11.2 11.9l11.3 11.3 1-3.6c.5-2 .9-6.2.7-9.3l-.4-5.8-6.6-1.7c-7.9-2-17.2-3.5-17.2-2.8M972.8 394.3c-4.6 2.9-8.2 5.7-8.1 6.2.2.8 9.7 3.7 22.5 6.8l2.7.7-1.9-6.2c-2.6-9.1-3.7-11.5-5.4-12.1-.8-.3-5 1.6-9.8 4.6M987.5 393.6c.9 2.7 2.1 6.9 2.8 9.4 1.4 5.3 1.8 5.6 7.7 7 2.5.5 6.2 1.4 8.3 1.9 2 .5 3.7.7 3.7.6 0-.5-20.1-20.7-22.2-22.4-1.7-1.2-1.7-1-.3 3.5M1023 391.9c0 .5-1.1.8-2.5.6-1.4-.1-2.5 0-2.5.2s2.1 3.4 4.6 6.9c2.6 3.6 4.4 6.7 4.2 7-.3.2-2.6-2.3-5.3-5.6-2.6-3.3-5.1-6-5.5-6-.7 0-2.1 17.1-1.5 17.8.2.2 2-.1 4.1-.6 2.2-.6 5-1.3 6.4-1.6 1.9-.4 2.6-1.2 2.7-3.3.4-4.7-1.8-15.1-3.3-15.7-.8-.3-1.4-.1-1.4.3M1044.6 423.7c-.7 1.7-7.6 14-16.6 29.4-3.8 6.4-3.8 6.6-3 13.5 1.7 14.2 3.5 25.4 4.1 25.4.3 0 1.2-3.1 1.9-6.9 1.1-6.1 1.1-7.1-.4-9.2-2.2-3.3-2-5 .3-1.9l1.9 2.4 1-3.9c8.1-30.9 13.8-56.7 10.8-48.8M1043.7 439.7c-3.2 10.8-7.8 30.4-8.4 35.1-.5 4.8.6 9.6 6.5 27.7l2.6 8 .7-4.5c.4-2.5.8-7.9.8-12.1.2-15.6 1.4-32 2.4-31 .6.6 2.1.4 4.1-.4 1.7-.7 5.7-1.6 8.8-1.9 3.2-.4 6-1.1 6.2-1.5.3-.3-2.5-2.2-6.2-4.1s-8.5-4.6-10.7-5.9-3.4-1.7-2.7-1c.6.7 1.2 1.9 1.2 2.7s.7 2.9 1.6 4.8 1.4 3.7 1 4.1c-.3.3-1.3-1.1-2.1-3.3-.9-2.1-2.1-4.8-2.7-5.9-.7-1.1-1.1-5.1-.9-9.3.1-3.9.1-7.2-.2-7.2-.2 0-1.1 2.6-2 5.7"/><path d="M1072 446.3c-10.7.5-19.7 1.1-20 1.4-.7.6 2.1 2.2 11.7 6.5l8.3 3.8 5.5-3c7.5-4.1 13.2-7.7 14-9 .3-.5.5-.9.3-.8-.2 0-9.1.5-19.8 1.1M1048.6 475.7c-.3 2.1-.6 8.3-.6 13.8-.1 5.5-.4 13-.9 16.7-.4 3.8-.5 6.8-.3 6.8s3.9-2.7 8.3-6.1c6.4-4.8 7.8-6.3 6.9-7.4-1.6-1.9-7.4-14.2-8.9-18.8-.7-2.2-1.9-5-2.6-6.3-1.2-2.4-1.2-2.4-1.9 1.3M1025.3 504.1c-6.1 8.3-10.3 14.3-10.3 15 0 .3 1.5.5 3.3.4 5.3-.3 23.1-2.7 24-3.2.5-.3-.2-1.7-1.5-3.2-1.3-1.4-4.3-5.2-6.6-8.4-2.4-3.1-4.4-5.7-4.6-5.7s-2.1 2.3-4.3 5.1"/><path d="M1058.5 506.1c-2.7 2.2-7.1 5.8-9.7 7.9-3.3 2.8-5.7 4-8 4.1-1.8 0-6.9.6-11.3 1.3-10.4 1.5-8 2.5 7.9 3.2 6.6.3 12.3.6 12.6.6 4.3.4 9-.4 8.4-1.4-.4-.6-.3-.8.4-.5 2 1.3 4.1-.5 8.1-6.9l4.1-6.5-3.3-2.9c-1.7-1.6-3.4-2.9-3.7-2.9s-2.7 1.8-5.5 4M379 165.1c-1.4.5-7.9 2.5-14.5 4.4-18.7 5.7-45.9 14.5-47.3 15.4-1.1.7-.1 4.6 4.8 19.2 8.2 24.8 10.1 29.9 11 29.9.4 0 1.1-1 1.7-2.3.6-1.2 4.6-7 8.9-12.9 4.4-5.8 11.5-15.6 15.9-21.8 4.4-6.1 10.2-14.2 12.9-17.8 5.6-7.7 9.9-14.3 9.4-14.6-.2-.1-1.4.1-2.8.5M299 194.5c-15.1 9.2-18.7 11.4-26 15.3-3.6 1.9-6.9 3.8-7.3 4.2s2.3 3.5 6 6.9l6.8 6.2 2.8-3.3c1.6-1.8 8-9.6 14.3-17.3s12.3-15 13.4-16.3c1-1.2 1.5-2.2 1.2-2.2-.4 0-5.4 2.9-11.2 6.5M297.7 206c-7 8.7-13.9 16.9-15.2 18.2-1.4 1.3-2.5 2.7-2.4 3.3 0 1 11.9 10.7 13.9 11.3.6.2 1 .8 1 1.4 0 1.1-4.4-1.9-11.3-7.6-2.6-2.1-4.9-3.7-5.1-3.5-.1.2-2.7 4.9-5.6 10.4s-5.5 10.4-5.8 11c-.3.5-.7 1.7-.7 2.7-.2 2 13.9 16.3 15.1 15.5.8-.5 12.3-22.7 15.1-29.2.7-1.7 2.9-8.6 4.9-15.5 1.9-6.9 4.9-17.1 6.6-22.8 1.6-5.7 2.8-10.5 2.6-10.7s-6.1 6.7-13.1 15.5M312.1 194c-.7 2.2-.9 4.4-.6 4.9s0 1.1-.6 1.3c-1.1.4-6.3 18.7-5.5 19.5.2.2-.5 2.6-1.6 5.1-1.9 4.3-4.8 13.5-4.8 15.5 0 .5.4.6.9.3.5-.4 3.4-.8 6.4-1.1 3-.2 9-1.2 13.4-2.1 4.3-.9 8.6-1.6 9.6-1.6 1.4.1 1.7-.4 1.2-1.6-.4-.9-3.6-9.8-7-19.7-7.8-21.9-8.8-24.5-9.6-24.5-.3 0-1.1 1.8-1.8 4M265.1 233.5c0 9.2.3 16.4.7 16 .4-.3 3.2-5.2 6.3-10.8 6.4-11.6 6.6-10.4-2.4-17.9l-4.7-4zM262.5 225.2c-.2 1.3-1.8 9-3.5 17.1-1.6 8.2-3.3 15.3-3.6 15.8-.8 1.4.9 1.1 3.6-.7 1.6-1 1.3-.4-.9 1.7-3.4 3.1-3.5 3.4-3.9 12.3-.2 5 0 8.7.4 8.3 1.5-1.4 8.3-22.9 7.7-24.3-.3-.8 0-1.4.6-1.4.9 0 1.1-4.4 1-15.5-.1-8.5-.3-15.5-.5-15.5s-.6 1-.9 2.2M289.1 258.1c-4.2 8-6.1 12.8-5.8 14.2 1.1 4.7 10.8 32.2 11.6 33 .5.5.9-11.5 1-29.2.1-16.6 0-30.1-.1-30.1-.2 0-3.2 5.4-6.7 12.1M263.7 259.1c-2.1 5.2-7.6 22.1-7.9 24.7-.3 2 2 3.8 17.4 13.7 9.7 6.2 18.6 11.6 19.7 12 1.6.5 1.1-1.9-4.5-18.2l-6.5-18.8-8.3-8.4-8.4-8.4zM251.2 300.6c-1.2 5.3-1.9 10-1.6 10.5s1.4.9 2.4.9c1.1 0 3.8.7 6 1.6 2.3.9 4.3 1.4 4.5 1.2.3-.3-1.3-5.6-3.5-11.9s-4-11.5-4-11.7c0-.1-.4-.2-.8-.2-.5 0-1.8 4.3-3 9.6M287.5 352.8c.6.4 1.1 3 1 5.8 0 3.9-.6 5.7-2.7 8.2-1.4 1.7-2.9 4.6-3.3 6.4s-.9 4.2-1.2 5.3c-.5 1.8-.3 1.8 2.1-.4 3.5-3.3 18.6-22.6 18.6-23.8 0-.6-2.4-1.3-5.2-1.7-7-.8-10.5-.7-9.3.2M304.2 357.3c0 1.2-2.1 10.3-4.6 20.2s-4.6 18.3-4.6 18.8c0 1 5.7-2 10-5.3 1.9-1.5 7.9-5.8 13.3-9.6 5.3-3.7 9.7-7.2 9.7-7.6s-1.2-1.5-2.6-2.5-5.4-4.1-8.7-6.8c-3.4-2.8-7.6-6.1-9.3-7.3l-3.1-2.2zM296.8 364.3c-2.6 3.4-7.3 9.2-10.4 12.9l-5.6 6.8 4.3 5.2c8.1 9.8 8.1 9.8 10.3-.3.8-3.5 2.6-11.5 4.1-17.8 1.4-6.2 2.5-11.7 2.3-12.2s-2.4 1.9-5 5.4M238.4 380.2c-1.5 2.9-8.2 16.2-15 29.5-6.7 13.4-12.1 24.3-11.8 24.3.6 0 24.3-15.3 30.5-19.7l4.7-3.3-.3-10.3c-.2-5.6-.4-13-.4-16.5-.1-4-.5-6.1-1.1-5.7-1.2.7-4.2-2-3.3-2.9.4-.3.3-.6 0-.6-.4 0-1.9 2.4-3.3 5.2M276.6 395.6c-1.5 4.7-2.5 8.8-2.2 9.2.6.5 6.9-1.4 14.4-4.5l3.3-1.4-5.7-5.9c-3.2-3.3-6-6-6.3-6s-1.9 3.9-3.5 8.6M230.1 424c-9 6.1-16.8 11-17.3 11-.4 0-.8.4-.8.9 0 1 6.2 1.7 23.6 2.6l11.1.6.5-4.3c.3-2.4.3-8.2-.1-13l-.6-8.7zM245.3 465.2c-.6 1.8-2.7 7.8-4.7 13.2-2 5.5-3.6 10.7-3.6 11.6s2.3 3.8 5 6.5l5 4.9v-19.7c0-10.8-.1-19.7-.3-19.7s-.8 1.5-1.4 3.2M435 528.6c0 .5 1.4 2.3 3 4.1 1.7 1.8 3 3.4 3 3.7s1.8 2.4 4 4.8c3.7 3.8 4.3 4.1 6.2 2.9 1.1-.7 3.5-2.1 5.3-3.1 9.4-5.3 9.5-5.9 1.8-7.5-1-.2-5.6-1.3-10.3-2.5-12.7-3.3-13-3.3-13-2.4M465.5 544.9c-.9 3.2-1.5 6.4-1.1 6.9.3.6 3.1 1.6 6.1 2.2s8.3 2.2 11.7 3.6c3.4 1.3 6.5 2.4 7 2.4.4 0 .8-1.7.8-3.8 0-2.9-.8-4.5-3.5-7.4-1.9-2-3.5-4.1-3.5-4.7 0-1.1-1.3-1.5-3.8-1.2-.8.1-1.9-.3-2.6-.9-.8-.5-2.1-.8-3-.4-1.1.4-1.6.1-1.6-1 0-1-.9-1.6-2.3-1.6-2 0-2.7.9-4.2 5.9M474 598.3c6.3 5.7 15.1 13.2 15.9 13.5.5.1 1.1-1.1 1.4-2.8.5-2.1 1.2-3 2.6-3 2 0 3.1-2.5 3.1-7.1 0-2.3-.5-2.7-3.7-3.3-2.1-.3-8.1-.6-13.3-.6l-9.5.1z"/></svg>