<svg xmlns="http://www.w3.org/2000/svg" width="1706.667" height="960" viewBox="0 0 1280 720"><path d="M0 360v360h454.9l.4-2.8.4-2.7.2 2.7.1 2.8h101.4c80.2 0 101.6-.3 102-1.3.5-.9.7-.9 1.2 0 .4.9 2.9 1.3 7.2 1.3 3.6 0 6.2-.3 5.9-.7-.4-.3-.1-1.3.6-2.2.8-.9 4-5.8 7.1-10.9 3.2-5.1 6-9.1 6.3-8.8.4.4-2.3 5.3-3.7 6.6-.3.3-1.3 2.1-2.3 4-.9 1.9-2.9 5.4-4.2 7.7l-2.6 4.3h52.6l-11.7-11.6c-6.5-6.4-11.8-11.9-11.8-12.2s1.7 1 3.8 2.9c2 2 5.7 5.3 8.1 7.5 2.4 2.1 6.7 6 9.5 8.6l5.1 4.7 274.8.1H1280V0H0zM507.8 48.4c-1.5 1.1-1.4 1.3 1.5 2.3 1.8.6 18.1 5.9 36.2 11.8 18.2 5.9 35 11.7 37.5 13 2.5 1.2 10.1 4.5 17.1 7.3 6.9 2.8 15.6 6.5 19.4 8.2 5.3 2.4 7 2.8 7.6 1.8.7-1 .9-1 .9 0 0 .7.8 1.6 1.7 1.9.9.4 2.5 1.3 3.4 2.1 1.8 1.6 9.9 6.1 26.4 14.7 5.5 2.9 11.3 5.9 13 6.8q2.85 1.65 3.6.6c.4-.7.9-.5 1.2.5.6 1.6-2.8 14.5-9.8 36.6-2 6.3-5 15.9-6.6 21.3-1.6 5.5-3.8 12.2-4.8 15.1s-1.7 7.3-1.6 9.7 0 3.8-.2 3.1c-.3-.6-.9-1.2-1.5-1.2s-.8 1.7-.4 4.2c.4 3 .3 3.5-.3 1.8-.7-2.3-.9-2.2-2 2-.7 2.5-3.2 10.3-5.6 17.5-2.4 7.1-4.8 14.8-5.4 17-.5 2.2-3.8 11.9-7.2 21.5-3.5 9.6-6.3 19-6.3 20.8 0 2.3-.3 3.1-1.2 2.8-.8-.3-1.1 0-.7 1 .3.7.1 1.4-.5 1.4-.5 0-1.5 1.4-2.2 3-.7 1.7-1.7 3.3-2.2 3.6s0-1.2 1.1-3.5c3.7-7.1 3.7-7.1-10.1-6.5-18.6.7-24.8 1.4-24.8 2.7 0 .9-.2.9-.8.1-1.3-2-4.6-3.2-15.2-5.3-5.8-1.2-11.5-2.4-12.7-2.7-1.4-.4-2.3-.2-2.3.5 0 1.3 3.8 8.6 7.5 14.6 1.4 2.2 3 5 3.7 6.2.6 1.3 1.5 2.3 2 2.3.4 0 .8.7.8 1.5 0 3.2 2.1 1.3 8.5-7.4 3.2-4.4 3.2-3.7 0 2.3-2.9 5.4-3.2 8.6-.9 8.6 2.2 0 11.4 7.8 12.5 10.6 1.1 3 10.7 7.8 12.5 6.3.9-.7 1.3-.5 1.6.8.2 1.2 1.9 2.1 5.8 3l5.5 1.2-6.6-.5-6.6-.5.1 17c.1 9.3.5 17.3 1 17.8.8.8 3.2-1.6 9.6-9.7 6-7.5 11.1-13.4 14.1-16.3 1.6-1.6 2.7-3.2 2.4-3.7s-.1-1.1.5-1.5.8-1.1.5-1.6c-.4-.5-.1-.9.4-.9.6 0 1.1.5 1.1 1.2 0 .6 1 .3 2.3-.9 1.2-1.1 6.9-5 12.5-8.7 7-4.5 10.2-7.1 9.9-8.1-.3-.7 0-1.8.7-2.5 1-.8 1.5-.6 2 .6.9 2.3-.2 5.4-1.9 5.4-.8 0-4.2 2-7.7 4.4-3.5 2.3-8.4 5.5-11 7-6.8 3.9-7 5.7-1.1 11.1 2.6 2.4 4.5 4.4 4.1 4.5-.5 0-2.7-1.8-4.9-4-2.3-2.2-4.4-3.8-4.7-3.5s-1.4 5.8-2.3 12.3c-2.4 16.5-4.9 32.2-5.5 34.9-.8 3.1.6 2.9 4.7-.8 6.9-6.3 20.2-17.5 23.6-19.8 2.7-1.9 3.3-2.9 2.9-4.7-.4-1.3-.2-2.5.3-2.8.4-.3.9-8.3 1-17.8s.4-17.4.7-17.7.4 8.1.2 18.7c-.2 10.5-.1 19.2.2 19.2s6.4-6 13.6-13.3c8.2-8.3 15.2-16.4 18.8-22 3.2-4.8 6-8.7 6.2-8.7.3 0-.3 1.5-1.4 3.2-1.1 1.8-3.1 5.3-4.4 7.8s-8.5 10.8-16.1 18.6c-15.6 16-18 19-18.4 21.8-.7 4.6-6.2 21.9-6.2 19.5-.1-1.4 1-5.9 2.4-9.9 2.5-7.5 3.1-11 1.7-11-.4 0-3.5 2.4-6.8 5.2-3.4 2.9-9.8 8.2-14.2 11.8-4.5 3.6-8.1 7.1-8.2 7.7 0 .7-.7 1.3-1.5 1.3s-1.6.8-1.6 1.7c-.1 1.6-.2 1.6-.6.2-.4-1.5-.9-1.6-6.1-.2-3.1.8-9.7 2.7-14.7 4.2-4.9 1.6-13.9 3.9-20 5.1-15.3 3.1-15.7 3.3-14.5 6.6.6 1.5.9 2.9.6 3.1-.2.3-.7-.5-1.1-1.6-1.1-3.6-3-2.3-8.3 5.6-7.2 11-7.2 10.9-2.3 12.9 5.4 2.1 4.7 2.9-.7 1-4.1-1.5-4.3-1.5-6.8 1.2l-2.5 2.7 1.8-3.2 1.8-3.2-3-3.2c-4.8-5.1-20.4-18.9-21.3-18.9-1.4 0 .6 20.1 3.3 34 .8 4.1 1.3 8.8 1.1 10.5-.2 1.6.2 3.5.9 4.2 1.4 1.4 3.4.9 23.6-5.5 13.7-4.3 19.8-5.9 18.7-4.7-.7.7-28.2 9.4-37.5 11.8-2.4.7-4.3 1.6-4.3 2.1 0 1.2 21.7 22.6 22.9 22.6.5 0 2.2-1.8 3.8-4.1 3.3-4.8 7.8-10.1 6.7-7.9-.4.8-1.3 2.2-2 3-.6.8-2.2 3.3-3.4 5.4-1.7 3.1-1.9 4.1-.8 4.7 1 .7.9.9-.4.9-1 0-1.8.4-1.8.9 0 .4-1.5 1.1-3.4 1.4-1.8.3-10.1 3.8-18.5 7.8-15.3 7.3-16.8 8.6-13.8 11.9.6.8 0 .4-1.5-.9l-2.7-2.4-5.8 4.4c-7.6 5.7-17.6 13.9-18.4 15.2-.4.6-2.8 0-6-1.6-17.3-8.1-25.8-11.7-27.6-11.7-2.3 0-14.3 3.9-16 5.2-.7.6-1.9.5-3-.1-5.2-2.8-12.7-6-13.2-5.7-.3.2-.6-2.8-.6-6.7 0-4-.3-10.6-.7-14.7s-.7-9.1-.7-11c-.1-4.9-1.5-2.5-3 5-.7 3.6-2.5 11.1-4.2 16.8-1.6 5.6-2.9 11.3-2.9 12.5 0 1.3-.6 2.9-1.2 3.6-1.9 1.8 4.2-.6 6.4-2.6 1-.9 1.8-1.3 1.8-.9 0 1.2-2.4 3.2-5.8 5-5.5 2.8-4 5.1 5.2 8.2 3.8 1.2 3.9 1.3.6.7-5.9-.9-10.6-3.9-12-7.5-2.2-5.3-11.4-17-19.1-24.2-3.9-3.6-7.5-6.6-8-6.6s-.9-.5-.9-1.1c0-1.5 2.6.4 13.7 10.4l2.1 1.9 3.1-5.3c1.7-3 3.1-4.7 3.1-3.9 0 .9-.4 2-.9 2.5-.4.6-1.3 2.4-1.9 4.1-.9 2.8-.6 3.9 2.9 9.7 4.8 8 6.2 9.2 5.5 4.5-.3-1.8-.8-6.9-1.2-11.3s-.8-8.3-1-8.8c-.1-.4-.2-1.9-.3-3.5-.2-2.6-.2-2.6-1.6-.8-1.8 2.4-2 1.4-.3-1.4 1-1.5.9-2.5-.4-5.2-2-4.3-10.8-16.1-11.4-15.5-.3.3.2 3.2 1 6.5.9 3.3 1.6 7 1.5 8.3 0 2.8-3.8-10.6-3.8-13.9-.1-1.2-.8-2.5-1.6-2.8s-1.7-1.3-2-2.2c-.2-1-5.8-4.3-12.2-7.5-13-6.4-16-8.3-15-9.4.4-.3 1.7.3 3 1.4 3 2.8 21.4 11.5 23.5 11.1.9-.2 1.9-1.4 2.3-2.8l.7-2.5.7 2.2c.4 1.3 1.2 2 1.9 1.6.6-.3.6 0-.1.8-1.8 1.9-1.6 4.5.5 6.6 2.6 2.5 9.7 12.4 10.5 14.6.9 2.4 2.8 1.7 4.5-1.4 1.3-2.4 1.3-2.2-.1 9.1-.1.7 1.6 21.4 1.9 22.2.1.5.2 2.4.3 4.4 0 1.9.5 3.3 1 2.9 1.1-.6 4.3-10.8 6.6-21 .9-3.9 2.5-10.3 3.6-14.2 1-4 1.9-8.6 1.9-10.3 0-1.6.1-3 .3-3s2.1.9 4.3 2l3.9 2-3.5-.6-3.5-.5.3 3.8c.7 11.2 2.1 24.2 2.9 26.8l.9 3 .7-2.5c.4-1.4 1.4-6 2.1-10.2 1.8-9.7 4-13.9 3.1-5.8-.3 3-.9 6.5-1.2 7.7-.8 3.3 1.3 2.8 3.4-.7.9-1.7 2-3 2.3-3s1.6-1.8 3-4 2.8-4 3.2-4c1 0 5.8 7.2 5.3 8-.2.4.6.6 1.8.6 2.6-.1 3.5-2.3 3.6-8.8l.1-4.7 4.6-.7c2.5-.3 4.8-1.2 5.1-1.9.2-.7 3.4-2.1 6.9-3.1 5.6-1.5 6.7-2.2 7.9-4.8l1.4-3.1-.6 3.1c-.4 2.7-.2 3.1 1.7 2.9 1.2-.1 2.6-.8 3.2-1.6.8-1.1.9-1.1.4.3-.5 1.6.2 1.8 4.6 1.8 3.7 0 5.4.5 6.4 1.7 1.1 1.5 1.1 1.2.4-2.2-.5-2.2-1.8-6.3-2.9-9-1-2.8-3.1-8.2-4.6-12-1.4-3.9-3.3-8.4-4.1-10-1.4-3-1.4-2.9-.8 2 .9 8.3.6 12.8-1 17-.9 2.2-1.4 2.9-1.1 1.5s.8-3.7 1.1-5.2c1.1-4.8-.5-5.5-14.4-6.2-7-.4-15.8-.9-19.7-1.2-3.8-.3-6.7-.3-6.5-.1 3.5 2.8 12.8 11.7 12.4 11.7s-2.7-1.7-5.3-3.9c-4.3-3.6-8.3-6.1-9.5-6.1-.3 0-.7 1.5-.7 3.2-.2 3.1-.2 3.1-.8-.7l-.6-4-3.2 5c-1.7 2.7-4.3 6.3-5.8 8-2.3 2.7-2.5 2.7-1.4.5.7-1.4 2.6-4.2 4.2-6.2 4.6-5.7 3.5-6.8-7.2-6.8-8.3 0-9 .2-9.7 2.2-.6 2-.7 2.1-1.7.2-1.2-2.1-1.1-13.2.2-14.8.5-.6 1.1-2.5 1.5-4.1l.7-3-2.3 2.5c-3.4 3.7-8.8 10.7-8.8 11.4 0 .4-1.2 1.9-2.6 3.4-1.5 1.5.3-1.6 4-6.8 6.5-9.2 14.6-24.3 14.6-27.2 0-1-1.2-1.5-3.7-1.6-2.1-.1-8.2-.6-13.6-1.2-5.3-.6-10.2-.8-10.8-.5-.6.4-.9 3.2-.7 6.5.1 3.2-.1 6.2-.5 6.6-.5.6-1-7.6-.6-11.3.1-1.4-3.6-1.9-8.6-1.1-2.8.4-9 1.1-13.6 1.5-8.1.8-8.4.9-8.1 3.2.1 1.4 1.8 5.6 3.8 9.4 1.9 3.8 3.3 7.1 3.1 7.4-.3.2-2.1-2.9-4.2-6.9-2-4-4.3-7.8-5.1-8.4s-1.4-1.9-1.4-2.8-1.8-2.5-4.2-3.6c-2.4-1.2-5.9-3.4-7.8-5.1l-3.5-3v-9.7c0-9.3-.1-9.7-2.5-11l-2.5-1.2 2.7.5 2.7.5.1-9.7c.1-5.4.2-13.9.3-18.8.1-5-.2-11.3-.5-14-1.8-13.2-2.9-39.2-1.9-45 .6-3.3 1.6-8.9 2.2-12.3.6-3.5.9-7.2.6-8.3-.3-1-.2-1.7.2-1.4.8.4 2.9-7.3 3.5-13 .2-1.7 1.6-10.5 3-19.7 1.5-9.2 2.9-18.2 3-20 .4-3.9 2.7-9.8 3.8-9.8 1.2 0 1 1.8-.6 4.3-.7 1.2-1.6 5.8-1.9 10.2-.4 4.4-1.3 9.8-2.1 12s-1.5 5.7-1.6 7.7c0 2-1.1 9.2-2.4 16-2.7 13.3-4.6 26.2-5.2 34.5-.2 2.9-.8 6.2-1.4 7.3s-.8 3-.6 4.2c.3 1.3.8 5.7 1.1 9.8 1 13.8 1.7 20 2.4 20 .3 0 1.9-1.7 3.6-3.7 3.1-4 3.4-6.8 1.1-11.8-2.4-5.2-2.7-8.2-.4-3.8 1.2 2.4 2.6 4.3 3 4.3s.8-2.6.9-5.8c.1-5.1.2-5.4.9-2.3.5 1.9.6 4 .4 4.6-.7 1.6 2.2 3.9 3.1 2.5.3-.5 1.5-1 2.6-1 1 0 2.7-.9 3.6-2 1-1.1 2.8-2 4.1-2 2.3 0 2.3-.1.7-2.8-.9-1.5-3.9-5.2-6.6-8.2-7.3-8.3-5.9-8 2 .3 6.5 6.8 7.2 7.2 11.3 7.3 4.8 0 5.8-.8 5.8-4.8 0-2.4-.8-3.2-5.7-5.7-7.5-3.7-20.2-8.3-21.3-7.6-1.6 1-1.9-1.1-.6-4 1.5-3.3 3.6-15.7 3.6-20.8 0-1.7.7-6.6 1.6-10.7 1.7-7.9 2.9-15.1 4.4-26.1.9-6.5 4.9-20.3 5.7-19.5.2.2-.4 3.1-1.3 6.5-1 3.3-1.5 6.4-1.2 6.7s2.1-.1 4-.9c3.5-1.5 3.5-1.5 5.2-12.3 1-6 2.4-14.4 3.3-18.7.8-4.3 1.2-8.1.9-8.4s-.8 0-1 .8c-2.1 5.8-2.7 7.1-3.2 6.6-.3-.3.4-2.8 1.6-5.6 1.2-2.7 2-5.6 1.7-6.3-.2-.7.2-2.8.9-4.6 1.2-2.9 1.1-3.9-.1-6.9-1.9-4.6-1.9-5.6.1-1.9.9 1.5 2 2.4 2.4 2 .5-.5 2-4.3 3.3-8.4 6.9-21.2 8.9-28.2 8.4-30-.3-1.1.4-2.9 1.7-4.3 4.5-5 15.3-22.4 14.3-23.3-.2-.3-2.2 1.9-4.3 4.8-6.3 8.6-15.4 20.1-18.3 22.9-4.8 4.8-9.2 10.9-8.6 11.9.3.6-.1 1.3-.9 1.6-.9.3-1.6 1.4-1.6 2.4s-.7 2.1-1.5 2.4c-2.1.8-4.5 6.7-4.5 10.8 0 1.8-.4 4-1 4.8-.5.8-.6 1.7-.1 2 .4.3.4 3.2.1 6.5l-.7 6-.2-5.5-.3-5.5-2.3 7.5c-1.3 4.1-3.4 12.2-4.6 18-2.2 10.9-3.6 15.6-4.4 14.8-.3-.2 0-2 .6-3.9.5-1.9 1.2-4.3 1.4-5.4.3-1.1 1-4.3 1.6-7 .6-2.8 1.3-7 1.6-9.5s1-5 1.5-5.7 2.3-6.2 3.8-12.3c1.6-6 3.2-11.5 3.5-12 .3-.6 0-1-.7-1-.9 0-.9-.3-.2-.8.6-.4 4-4.8 7.5-9.7 3.6-5 9.2-11.9 12.4-15.3 3.2-3.5 7-7.9 8.4-10 1.4-2 2.9-4.2 3.3-4.7.5-.6 2.5-3.2 4.4-5.9 2.7-3.6 3.9-4.5 4.5-3.5.8 1.3 1 1 1.3-1.7.1-.6 2.2-3.3 4.6-6.1 4.2-4.7 11.3-9.3 14.2-9.3.7.1-1.1 1.2-4.1 2.6-5.3 2.5-5.3 2.5-4.6 6.2.7 4.3 3.5 12.3 4.7 13.6.4.6.8 1.9.8 3 0 4.6 1.6 5.1 5.6 1.8 4.7-3.9 5.8-3.3 1.8.9l-2.9 3.2 19-.7c27.8-.9 55.4-2.4 56.5-3.1 1.4-.9 1.2-10-.6-24-.8-6.6-1.9-16.1-2.4-21-.6-5-1.3-9.8-1.6-10.8-.6-1.8-.6-1.8-2.7 0-1.1 1-1.7 1.2-1.3.5s.2-1.2-.6-1.2c-.7 0-.4-.6.7-1.2 1.9-1.2 7.8-2.4 12-2.6 1.8-.1 1.9 0 .3 1.2M949 109c0 .5 3.3 2.5 7.3 4.5 3.9 2.1 7.7 4.1 8.2 4.5.6.4 5.1 2.9 10 5.5 26.2 14 42.5 23.2 42.5 24.1 0 .6-3.9-1.4-20.7-10.7-7.8-4.4-14.4-7.9-14.7-7.9s-6-3.2-12.8-7c-6.8-3.9-13.6-7.8-15.3-8.7l-3-1.6 2 2.4c1.1 1.3 3.8 4.2 6 6.4 2.2 2.3 8.7 9 14.4 14.9l10.5 10.8 7 .8c3.9.5 11.5 1.1 16.9 1.4 8 .5 9.8.4 10.3-.8.4-.9-3.5-6.3-10.3-14.3-5.9-7-11.8-14.4-13.1-16.3l-2.4-3.5 3.4 3.6c1.8 2 6.5 7.5 10.3 12.4 3.9 4.8 9.3 11.5 12.2 14.8 2.8 3.3 5.4 7.1 5.8 8.5.6 2.4 13.7 31.6 17.7 39.6 1.2 2.4 2.3 3.5 2.7 2.8s.7.3.7 2.1c0 3 10.2 27.2 11.1 26.4.2-.3-.1-4.9-.7-10.3-.6-5.5-1.5-14-2-19.1s-1.4-10.9-1.9-13c-.6-2.1-1.5-7.8-2.1-12.8-1.1-8.4-2.3-12-3.9-11.1-.4.3-1.3 0-2.1-.6-1.2-.8-1.2-.9.3-.4 2.6.8 2.1-.1-2-3.7-9.3-8.1-25.2-22.7-24.7-22.7.3 0 7.9 6.5 16.8 14.5l16.3 14.5 1.8 7.3c1 3.9 2.3 10.1 3 13.7s3.1 13.5 5.3 22c3.9 15.4 6.4 28 4.1 21.5-.5-1.7-1.4-5-1.9-7.5-.4-2.5-2-9-3.5-14.5s-3.5-13.2-4.6-17c-1-3.9-1.6-5.5-1.4-3.6 1.1 7.7 2.7 22.3 3.9 34.7 1 11.6 1.6 14 4.4 19.5 2 4 2.5 5.4 1.3 3.9-1.2-1.4-2.3-3.3-2.7-4.3-1-3.1-2.4-1.8-6.1 5.8-4.4 8.8-4.5 8.5 6.1 11 3.9.9 7.9 1.9 8.9 2.1 2.5.8 2.1-1.2-1.4-6.2-1.7-2.5-2.9-4.7-2.7-5 .3-.2 1.7 1.3 3.1 3.3 1.5 2.1 2.7 3.1 2.7 2.2 0-.8-.4-1.9-.9-2.5-.5-.5-1.1-2.9-1.4-5.3-.4-2.9-.2-4 .4-3 .5.7.9 2.5.9 3.8 0 1.8.3 2.2 1.1 1.4s.8-2.1.1-4.5c-1.5-4.5-4.9-28.7-3.7-26.3.2.5 1.6 6.8 3 14 3.9 19.3 4 31.5.2 47-2 8.2-2.1 3.9-.1-6.2.9-4.5 1.4-8.9 1.1-9.7s-2.3-1.8-4.4-2.2-4.5-1-5.3-1.4-3.6-1.1-6.2-1.4l-4.8-.7v3.3c0 1.8.7 6.9 1.5 11.3s1.4 9.1 1.3 10.5c0 1.4-.8-1.8-1.7-7-1.1-6-1.9-8.8-2.3-7.5-.4 1.1-.8 11.2-1 22.5-.3 19.6-.4 20.5-2.4 21.5-3.7 1.8-11.3 8-11.4 9.2 0 .7-.4 1.3-.9 1.3-1.1 0-8.8 17.6-8 18.4.2.2 3.4.7 7 1.1l6.6.7 1.7-3.8c1.4-3.2 1.6-3.4 1.3-1.2-.2 1.6-.2 2.8.1 2.8.4 0 15.7-9.5 17-10.6.2-.1 0-1-.6-2-.5-.9-.7-2.6-.4-3.8.6-2 .6-2 1.3.4l.6 2.5 1.1-2.5 1.1-2.5v2.6c.1 1.5-.6 4.6-1.4 6.9-1.7 4.8-2 11-.6 11 .9 0 5.9-9.8 11.2-21.5 1.2-2.8 1.8-3.4 1.8-1.9.1 1.1-.3 2.4-.8 3-.5.5-2.6 4.9-4.5 9.9l-3.6 9 7.7-7.5c4.3-4.1 8-7.6 8.3-7.8s.6-1.7.6-3.3c.6-13.4.7-13.8 1.4-5.9l.6 7.5-7.9 8.5c-4.4 4.7-8.9 9.5-10 10.7-1.8 1.9-1.9 2.3-.5 2.3 2.7 0 4.8-1.1 4.8-2.6 0-.7.6-1.7 1.3-2.1s2.3-2.3 3.6-4.1c3.2-4.6 3.7-3.4.7 1.8-1.4 2.4-2.3 4.7-2 5.2 1.1 1.8 2.5.5 4.5-4.2 1.2-2.8 2.4-4.9 2.6-4.7.7.8-2.2 10.2-4.5 14.5s-2.6 10.9-.6 15.6c.5 1.3.1 3-.9 4.8-.9 1.7-1.7 3.4-1.7 4 0 .5-.7 1.6-1.5 2.4-1.8 1.9-2 10.9-.4 18.6.7 2.9 3.1 9.3 5.4 14.3 2.3 4.9 5.1 11 6.3 13.5 1.1 2.5 4.5 10 7.6 16.6 3.1 6.7 5.6 12.7 5.6 13.4 0 1.9-4.2 11.4-5.8 13-.8.8-.4-.5.8-3 1.3-2.4 2.6-5.7 3.1-7.2.7-2.7.7-2.8-3.3-2.8s-4 0-3.6 3.5c.5 4.2.1 4.4-1.2.9-1.2-3.1-1-3.2-14.4 4.4l-10.1 5.7 3.5.6 3.5.6-4.1.2c-2.2 0-4.4.5-5 .9-.5.5-2.2 1.4-3.9 2-2.6 1.1-2.8 1-1.3-.1 1-.8 1.5-1.6 1.2-1.9-.4-.5-11.4 1.5-15.6 2.8-1 .3-1.8.1-1.8-.5s.3-1 .8-.9c.4.2 2.5-.2 4.7-.9s5.8-1.5 8-1.8c3.8-.6 3.9-.8 2-2.1-1.1-.8-3.9-2-6.2-2.6-2.4-.6-4.3-1.3-4.3-1.7 0-.7-5.4-4.1-6.6-4.1-.4 0 0 .8.8 1.7 1.9 2.1 3.4 10.3 2 10.3-.5 0-1.3-1.5-1.6-3.3-.4-1.7-1.4-4.1-2.2-5.2-1.4-1.9-1.5-1.6-.9 3 .7 5.9 2.3 9.5 4.1 9.5 1.6 0 8.6 4.1 8 4.7-.2.2-2.2-.5-4.4-1.6s-4.2-1.8-4.5-1.4c-.4.3.2 2.2 1.2 4.2s3.3 7.3 5.1 11.8c1.8 4.6 3.7 8.3 4.1 8.3.5 0 .9 1 1 2.2.1 3.3 2.6-5.3 3.9-14 .7-3.9 1.5-7.2 2-7.2.4 0 .1 3.7-.6 8.2-2.1 12.8-1.8 19.7.8 22.5 1.2 1.3 2.5 2.3 2.8 2.3.4 0 .5-2.3.2-5.1-.3-3.7-.2-5 .7-4.5.6.4 1.1 2.5 1.1 4.6s.4 4.1.9 4.4c1.8 1.1.8 6.2-2.1 10.3-3 4.5-2.8 5.5.6 2.6 1.3-1.2 1.1-.7-.6 1.4-2.3 2.9-2.5 3.7-1.7 7.2.5 2.2.8 5.8.7 8l-.1 3.9-2.2-3.1c-1.1-1.8-2.4-4.1-2.8-5.1-.7-1.9-.7-1.9 1.1-.3 2.2 2 3.2 1.4 2.5-1.4-.4-1.2-1.4-1.9-3-1.9-2.8 0-2.7-1.2-.8 13.4.3 1.7-.5.1-1.7-3.7-1.2-3.7-2.5-6.7-3-6.7-.4 0-2.4 1.7-4.4 3.7-3.7 3.9-3.8 2.7-.1-1.4 2.6-2.9 1.9-3.5-4.3-4.3-5.8-.7-6-.4-2.9 6.7 2.5 5.5 3 8.3 1.6 8.3-.6 0-1.9.8-3 1.8-1.9 1.6-2 1.6-.8-.5 1-2 .9-2.3-1.6-2.9-1.6-.3-4.5-1-6.7-1.6-2.1-.5-3.9-.8-4.1-.6s-.8 1.9-1.4 3.8l-1.1 3.5.3-3.2c.2-1.8.1-3.3-.1-3.3-.8 0-19.6 14.1-20.9 15.7-.6.8-1.3 1-1.6.6-.3-.5 2.7-3.3 6.6-6.3 4-3 9.1-6.9 11.5-8.8l4.3-3.4-4.5-2.8c-2.5-1.6-7.9-4.8-12.1-7l-7.5-4.2-3.2 3.4c-2.9 3.1-3.1 2.2-.2-1.2 1.8-2.2 1.9-4.9.5-10.8-.7-2.9-1.1-5.5-.8-5.8.2-.3.9 1.5 1.6 3.8 1.9 7.5 2.1 7.5 10.9-2.9 4.5-5.3 8.2-9.9 8.2-10.3 0-.3-3-2-6.7-3.7-3.8-1.8-9.6-4.8-13-6.8-3.5-1.9-6.3-3.1-6.3-2.6 0 .6-.6.8-1.4.5-1.5-.6-1-4.4.6-4.4.6 0 2-1.2 3.2-2.7 1.1-1.5 5.1-6.2 8.7-10.3s6.8-8.1 7-8.7c.2-.7 1.9-3 3.8-5 5-5.7 26.3-40.5 25.3-41.5-.5-.5-4.9-1.7-9.8-2.8-10.3-2.1-11.3-1.6-11.5 5.4 0 2.3-.7 7.5-1.5 11.6-1.3 7.4-1.3 7.4-.9 1.5.3-3.3.8-8.3 1.1-11 .5-3.4.3-4.7-.4-4-1 1-10.8 16.8-11.4 18.5-.2.4-5.2 3.3-11.2 6.3-12.8 6.6-12.7 5.6.1-1.3 4.9-2.6 8.7-5.4 8.7-6.1-.1-.8-.5-2.8-.8-4.4l-.7-3 1.5 3.2c.8 1.8 1.7 3.3 2 3.3.2 0 2.6-3.9 5.3-8.6 2.6-4.8 5.4-8.9 6.1-9.1 1.7-.7 1.5-3.3-.2-3.3-2.8 0-16.1 3.1-16.9 3.9-.5.5-.2 2.2.7 3.9s1.6 3.9 1.6 4.9c-.1 1.3-2.9-4.8-3-6.5 0-.1-.4-.2-1-.2-.5 0-1.6 1.2-2.4 2.7-.8 1.6-1.5 2.3-1.6 1.8 0-.6.7-2.1 1.6-3.3 2.3-3.3.5-4.8-6.9-5.7-6.5-.7-7.7-1-29.4-7-7.3-2-13.8-3.5-14.5-3.4s-2.6.1-4.3 0c-2.1-.1-2.6-.4-1.7-1 1-.6-3.4-3.9-15-11.3-8.9-5.7-18.4-11.6-20.9-13.1l-4.7-2.7.8 3.3c3.2 13.8 7.4 29.3 8 30 .4.5 6.3-.3 13-1.8s12.4-2.5 12.6-2.2c.2.2-2.2.9-5.3 1.6-3.2.7-8.8 2-12.5 2.8-4.4 1-6.8 2-6.8 2.9 0 .8-.4 1.4-1 1.4-.5 0-1-.5-1-1.1 0-.7-8.9-.9-29.2-.5l-29.3.4 28.5-.9c15.6-.6 28.7-1.2 28.9-1.5.5-.5-7.9-35.4-8.5-35.4-.3 0-9.3 1.8-20.2 4-29.6 6.1-51.4 10.2-51.8 9.7-.3-.2 3.5-1.2 8.3-2.1 17.4-3.4 57.8-11.7 59.6-12.2 2.7-.8 2.1-1.7-3.6-4.8-5.9-3.4-28-17.3-34.5-21.8-2.4-1.7-5.5-3.1-6.8-3.1-1.4 0-2.2-.2-1.9-.6.3-.3-.9-1.1-2.7-1.8s-2.3-1.1-1-.9c4 .8 3.9.6-14.8-19.1-3-3.2.4 0 7.5 7 7.2 7 14 13.3 15.2 14s7.1 4.3 13 8.1c12.8 8.2 27.1 16.9 31 19l2.8 1.4-1-19.2c-.5-10.5-1.3-19.6-1.7-20.2s-9.1-4.4-19.3-8.4-18.3-7.5-18.1-7.7 3.2.7 6.7 2.1c27.4 10.5 31 11.9 31.4 11.4.2-.2.8-3.3 1.3-6.8l1-6.5.1 6.8.1 6.7 13.8-7c15.5-7.9 32.3-16.8 32.8-17.3.2-.2-2.7-6.6-6.5-14.3-3.7-7.6-12.3-25.5-19.1-39.7-6.8-14.1-12.4-25.6-12.5-25.5-.5.5-1.4 10.4-3 29.3-.8 10.4-1.7 21.5-2 24.5-.2 3-.9 12.2-1.6 20.5-.6 8.2-1.3 15.2-1.5 15.4-.8.8.6-19.8 4.1-63.9.8-10.2 1.5-20.6 1.5-23.3 0-4.5-.1-4.7-2-3.7-1.7.9-13.6 9.4-16.5 11.8-.6.5-2.4 1.7-4 2.8-1.7 1-6.1 4.2-10 7-7 5.2-13.8 10.1-25.7 18.2-8.7 6-2.3.6 8.7-7.2 10.9-7.8 19.4-14 34.2-24.9 6.2-4.5 12-8.7 13-9.3 1-.7 1.6-1.4 1.3-1.6-.3-.3-12.2-2.8-26.5-5.6s-34.8-7-45.5-9.2-20.7-4-22.2-4c-3.2 0-3.5-.9-1-3.1.9-.9 8.9-11.4 17.7-23.3 8.8-12 17.9-24.3 20.2-27.4 2.3-3.2 4.3-6 4.3-6.5 0-.4-4.8-.8-10.7-.9l-10.8-.2 10-.3c5.5-.2 10.6-.6 11.4-.8 1.2-.5-3.7-6.4-19.1-22.9-2.6-2.8-4.5-5.2-4.4-5.4.2-.1 3.4 3 7.2 7s9.7 10.2 13 13.7l6.2 6.5 4.3-1.3c2.4-.7 11.8-3.9 20.9-7.1s19.6-7 23.4-8.3l7-2.4-8-1.1c-4.3-.6-14-1.9-21.4-2.8-7.4-1-12.9-1.9-12.3-2.1 1-.4 17.9 1.5 39.1 4.2 3.6.4 3.9 0 1.6-3.5-1.3-2.1-1.1-2 1.1.4 2.5 2.7 2.9 2.8 9 2.2 3.5-.3 7.6-1 9.2-1.5 1.5-.5 7.9-1.9 14.1-3.2 6.7-1.4 11.1-2.8 10.8-3.4-.2-.7.9-.9 3-.7 1.9.2 3.4.8 3.4 1.2m-595 38.5c-1 1.3-.9 1.5 1.1 1.6 2.1.1 2 .2-.6.9-2.9.7-2.9.8-.7 1.5 1.2.4 2.2 1.1 2.2 1.5s1.4 1.3 3 2c1.7.7 2.9 1.4 2.7 1.6-.4.4-6.6-1.8-9.7-3.5-2.3-1.3-2.7-1.1-8.8 5.5-3.5 3.8-8.9 9.8-12 13.4s-7.4 8.4-9.6 10.7c-2.2 2.4-3.5 4.3-2.9 4.3s6.8-2 13.8-4.5c14.5-5.1 20.2-6.8 18.9-5.6-.5.4-4.7 2.1-9.4 3.6-18 5.8-24 8.5-24 10.7 0 1.1 1.4 6.8 3.1 12.7 1.7 5.8 3.7 13.1 4.6 16.1 1.6 5.8 4.2 14.6 4.9 16.9.4 1.1.8 1 2-.5 1.5-1.9 1.5-1.9.9.1-1.1 2.9-1.3 5-1.6 15.5l-.3 9.5-.3-8c-.2-4.4-.6-8.7-1-9.5-.3-.8-.5-1.8-.5-2.3.3-1.1-2.4-.9-16.6 1.8-14.4 2.7-15.2 2.9-15.2 5 0 .7-.4 1.5-.8 1.7-1 .3-12.2 22.8-12.2 24.3 0 .6-1.2 1.1-2.7 1.2-1.6.1-2.1-.2-1.3-.7 1.6-1 1-1.9-5.9-9.8l-5.5-6.2-2.9 8.2c-1.6 4.6-3.7 11.3-4.7 15l-1.8 6.8 15.8 11c15.5 10.8 19 12.9 19 11.5 0-.8-3.9-14.1-7.6-25.9-1.4-4.3-2.3-8-2-8.3.4-.4 2.9 7.3 8.2 25.4.9 2.9 2 5.3 2.5 5.3s.9 1 .9 2.2c.1 1.5 1.1.1 3.1-4 4-8.5 4.9-7.3 1 1.3-1.7 3.7-3.1 6.9-3.1 7 0 .5 18.1 11.4 26 15.8 3 1.6 6.2 3.6 7.1 4.4s2.3 1.3 3 1.1c.8-.2 1.2.3 1 1.2-.2.8-1 5.5-1.7 10.4s-1.8 9.4-2.5 10c-.9.8-1 .5-.4-1.4 1.2-4.3 2.8-16 2.2-16.6-.5-.5-23.3 12.4-26 14.7-1.2.9 19.1 18.9 21.2 18.9 1 0 3.6-1.3 5.9-3 2.3-1.6 4.4-2.5 4.7-2 .3.6.1 1-.5 1s-1.8.7-2.6 1.5-2.3 1.9-3.2 2.5c-1.5.8-1.5 1.1-.2 2 1.2.8.9 1-1.2 1-2.4 0-2.8.5-3.9 5.7-.7 3.1-1.5 5.1-1.7 4.5s.1-2.7.7-4.6c.5-2 .6-3.8.3-4-.4-.2-5.2 2.9-10.7 7s-12 8.9-14.5 10.5c-3.8 2.6-4 2.7-1.5.5 3.5-3.1 3.9-3.4 8.5-6.6 1.9-1.3 4-2.9 4.6-3.5.6-.5 3.9-3 7.2-5.5 3.4-2.5 6.1-4.8 6.2-5.1 0-.4-2.1-2.4-4.7-4.5-2.7-2.2-7.2-6-10.1-8.7-2.9-2.6-5.6-4.7-6-4.7-.5 0-1.4 2.4-2 5.2-4.2 18.5-6.6 28.1-6.9 27.2-.2-.6 1-7.1 2.7-14.5 1.6-7.3 3-14 3-14.8s-1.4.5-3.2 3c-1.7 2.4-5.7 7.7-8.7 11.8-3.1 4-6 7.9-6.5 8.5-.6.8.8 3.5 4 7.9 2.6 3.7 5.1 6.7 5.4 6.7.4 0 1.1-1.7 1.7-3.8l1.1-3.7-.5 3.8c-.3 2.1 0 4.3.6 5.1 1 1.1.4 1.5-3.3 1.7-2.4.2-4.2.1-3.9-.4.2-.4 1.1-.7 1.9-.7s1.4-.2 1.4-.5c0-1-9-11.5-9.9-11.5s-6.4 17-5.8 17.7c.3.2 1.8-.2 3.4-1 1.5-.8 3.9-1.7 5.3-2.1 2.8-.7-6.4 3.8-10.2 4.9-1.9.7-2.1.5-1.2-.6.7-.8 2.3-5.2 3.7-9.9 2.3-7.6 2.4-8.2.7-6-1.1 1.4-3.2 4.9-4.7 7.8-1.4 2.9-3.2 5.7-4 6.3-2.2 1.9-1.6 4.1 1 3.4 1.7-.5 1.5-.2-.8 1.3-2.8 1.8-3.1 1.9-4.7.3-1.4-1.3-1.6-2.3-.8-5.6.5-2.2 1-5.9 1-8.3 0-2.3.5-4.2 1-4.2.6 0 1-1.1 1-2.5 0-1.9.5-2.4 2.3-2.3 3 .2 10.5-2 11.3-3.4.4-.6.8-3 1-5.4.2-3.3-.1-4.4-1.2-4.4-.8 0-1.4.5-1.4 1.1 0 .5-.4.8-.9.5-.9-.6-6.1 6.6-6.1 8.3 0 .5-.5 1.3-1.2 1.7-1.1.7-.9-.7.7-5.1.6-1.6.5-1.8-.5-.8-.7.6-1.9.9-2.6.6-1-.4-1.4.3-1.4 2.3-.1 1.6-.8 4-1.6 5.4-1.5 2.4-1.5 2.4-1.1-2.2.4-4 .2-4.7-1.9-5.6-2.2-1.1-2.3-.9-2.8 4.1-1.2 11.4-1.4 17.7-.6 18.2.4.2 1-1.8 1.4-4.5s1-5.1 1.4-5.4c.5-.3.2 2.3-.5 5.7s-1.3 7.1-1.3 8.2v4.8c0 1.6.6 6.2 1.5 10.2 1.8 8.9 1.8 10.2 0 5.5l-1.3-3.5v3c0 1.6-.1 5.2-.2 7.8-.1 2.7.3 5.4.9 6s1 2.7 1 4.6c-.1 2-.3 2.7-.6 1.6-1.5-7.2-1.3-6.9-2.9-5.3-.9.8-1.8 3.4-2.1 5.7-.3 2.2-1 4.1-1.5 4.1-.7 0-.4-2.8.7-6.7.2-.6.1-1.3-.2-1.6-.5-.5-12.8 5.6-14.6 7.3-.4.4 2.6 1.5 6.8 2.5 8.6 2 9.5 3.3 1.1 1.5-3.1-.6-6-.9-6.6-.5-.5.3-2-.1-3.4-1-1.7-1.1-4.2-1.5-8.1-1.3l-5.8.3-2.5-7-2.5-7 7.5-15.5c4.1-8.5 8.1-17 8.9-18.8.8-1.7 1.7-3.2 2.1-3.2.5 0 .8-.9.8-2 0-2.9 2.2-7 3.3-6.3.6.3.7.2.4-.4-.3-.5 1.7-6.6 4.4-13.4 4.9-11.9 5.1-12.8 5-21.3-.1-4.9-.8-12.3-1.6-16.4-1.6-8-1.3-10.7.4-5.1l1.1 3.4-.4-3.5c-.2-1.9-.7-4.6-1-6-.4-1.4.4-.3 1.6 2.3 1.3 2.7 2.6 4.5 3.1 4.1.4-.4.7.7.7 2.5 0 3 .3 3.3 2.3 2.7 1.2-.3 3-.6 4.1-.6 1.8 0 1.8-.4.1-6.7-.3-1 .2-.2 1.2 1.7l1.7 3.5.6-3 .6-3 .8 3.5c.5 1.9.8 3.8.7 4.2 0 .4.6.5 1.4.2.7-.3 2.2.4 3.2 1.5.9 1.2 2.4 2.1 3.3 2.1s2.6.7 3.8 1.6c2.1 1.5 2.2 1.4 1.3-.9-.5-1.3-3-6.1-5.5-10.6-2.5-4.6-4.6-8.6-4.6-8.9s-1.1-2-2.5-3.7c-1.5-2.1-4.1-3.8-7.4-4.9-6.3-2-6.4-2-5.8.4.3 1.1.1 1.8-.4 1.4-.5-.3-.9-1.2-.9-2s-.4-1.4-.9-1.4-.9-1.6-.8-3.5c0-1.9-.6-4.2-1.4-5.2-1.2-1.5-1.3-2.8-.3-8.3.8-4.3 1.3-5.5 1.4-3.5l.2 3 1-3.5c.6-1.9 1.2-3 1.4-2.5.3.6-.4 3.8-1.4 7-1.5 4.7-1.7 6.5-.8 8.4 1 2.2 1.1 2.1 2.2-2.5 1.9-8 3.4-17.6 3.6-22.4.1-2.5.7-5.3 1.4-6.4 1.1-1.5 1.2-1.2.8 2.5-.3 3.6.3 2.5 3.1-5.6 2-5.5 3.8-11.4 4.2-13 .9-4.6 1.3-30.5.3-27-.7 2.8-.8 2.6-.9-1.6 0-2.5.6-6.6 1.5-9.2 1.3-3.9 2.3-5 5.7-6.7 9-4.4 40-25.1 39-26.1-1-.9-21.4-9.1-21.8-8.7-.1.2-1.9 3.7-3.9 7.8-3.8 7.6-6.8 12-4.5 6.5.7-1.7 1.7-3.5 2.2-4.2.5-.6 1.6-3.1 2.5-5.5 1.2-3 4.3-6.7 10.2-12.3l8.5-7.9-6.9 7.2c-3.9 3.9-6.8 7.3-6.5 7.5.7.6 21.3 8.7 22.2 8.7.4 0 .7-.7.7-1.5s.5-1.5 1.1-1.5 2.8-1.9 4.8-4.2c2-2.4 8.7-9.7 14.9-16.4 6.1-6.7 11.2-12.7 11.2-13.3s.5-1.1 1-1.1c.6 0 2-.9 3.2-2 2.6-2.4 3.6-2.6 1.8-.5m723.5 117c.9 4.2 1.4 8.1 1.2 8.8-.3.6-.7.3-.8-.8s-.5 2.5-.9 8c-.5 7.9-.4 10.2.7 11.1 1.2 1 1.2 1.4 0 2.6-1.7 1.6-2.8 6.8-1.5 6.8 2 0 3.4-6.8 3.3-16-.2-10.5.2-9.8 3.4 5.5 2 9.3 2.1 12.8.1 5.6-1.5-5.6-2-5.1-1.4 1.1.5 4.9.4 5.1-1 3.4-1.4-1.8-1.6-1.7-3.3 2-1 2.2-3 5.1-4.5 6.7-1.5 1.5-4.1 4.4-5.9 6.5-4.2 4.9-2.6 2.1 2.7-4.8 4-5.3 4.2-5.8 5-15.5.5-5.5.9-16.4.9-24.3 0-7.8.1-14.2.1-14.2.1 0 1 3.4 1.9 7.5m-323.5 42c0 .3-5.5 6-12.2 12.8-14.7 14.7-17.9 18.6-19.5 22.9-.7 1.8-1.2 2.6-1.2 1.7-.1-.9-.9-2-1.8-2.4-1.6-.6-1.6-.8.3-1.5 1.8-.7 2.1-1.7 2.2-8 0-3.9.5-7.7 1-8.3.5-.7 1.2-2.3 1.6-3.7.6-2.5 7.6-8 12.9-9.9 1.5-.6 2.7-1.5 2.7-2.1s.8-.9 1.8-.6c.9.3 2.4.1 3.2-.4 1.5-1 9-1.4 9-.5m5.2 55.4c-.6 2.5-1.6 9-2.2 14.5-1.1 10.4-1.5 12-3.1 11.1-.5-.4-.9 0-.9.9 0 .8-1.1 2.8-2.5 4.4-1.4 1.7-2.5 3.5-2.5 4 0 .6-.4 1.3-.9 1.6-.5.4-.7-.4-.3-1.6.5-2.1.4-2.1-4.4.7-9.6 5.6-11.3 7-11.2 9 0 1.1-.7 3.7-1.6 5.7-2 4.7-2 4.7.4 4.1 1.2-.3 4.8-3.5 8-7.2 6.1-6.7 7.8-7.5 3.8-1.8-4.1 5.8-5.3 6.8-10 9.3-3.5 1.7-4.8 3.1-4.9 4.7-.1 1.7-.2 1.8-.6.4-.6-2.1-.9-2.1-4.1.1-2.4 1.7-3.9 2.4-10.7 4.7-1.1.4.9-.9 4.4-2.9 3.6-2 6.9-4 7.5-4.6.9-.9-3.4-3.2-11.9-6.1-2.2-.7-4.2-1.4-4.4-1.6-.5-.3 5.1-7.6 9.6-12.2 3-3 4.3-5.2 4.3-7.1 0-2.1.4-2.8 1.8-2.5 1.3.2 1.6 1.1 1.5 4.1-.3 4 .8 5.4 4.4 5.4 1.2 0 2.3.5 2.5 1.1.3.8 3.3-.4 8.3-3l7.8-4.1-4.9-.1c-4.8-.1-10.6-.8-11.2-1.3-.7-.7 1.1-3.6 2.3-3.6 1.5 0 3.5-5.1 3.5-9.2 0-2.5.2-2.7 1.9-1.7 2.7 1.7 5 .4 6.7-3.7s3-4.1 1.4 0c-1.3 3.5-1.3 6.9 0 6.1.6-.3 1-.1 1 .4 0 .6.7 1.1 1.5 1.1q1.35 0 .9-1.8c-.5-1.4-.4-1.5.5-.2.6.8 1.1 2.5 1.1 3.7 0 3.7 1.6 3.4 2.8-.5.5-2 1.6-9.7 2.3-17.1 1.1-10.7 1.5-12.8 2.3-10.5.6 1.8.5 4.3-.2 7.3m-509.4 97.5c.6.4 1.9.1 2.7-.6 3.2-2.9 4.5-3.8 5.2-3.8.4 0 .7 9.8.5 21.7l-.2 21.8 3-6.1c2.3-4.6 3.1-7.9 3.6-13.9.7-10 1.4-11 1.4-2v6.9l3.2-3c2.5-2.3 2.3-1.8-1 2.2-2.3 2.7-4.2 5.3-4.2 5.6s-1.1 3.1-2.5 6.2-2.6 5.9-2.7 6.3c-.2.3 1.5 1.2 3.7 1.9l4 1.3-4.5-.6c-4.5-.6-5-.9-13.6-10.6l-2.6-2.9 2.7-9.5c3.8-13.4 4.2-16.7 1.9-18.4-1.1-.8-3-2.8-4.4-4.4l-2.5-3 2.5 2.1c1.4 1.2 3.1 2.4 3.8 2.8m110.2 3.8c0 1.5-.4 3-1 3.3-1.2.7 1.5 6.5 3 6.5.6 0 1 1.2 1 2.6s.6 4 1.4 5.7c.8 1.8 1.6 4.3 1.9 5.7s1.2 4.5 2.1 7c.8 2.5 2.1 6.7 2.7 9.4.9 3.6 1.4 4.4 1.9 3.1.6-1.6.9-1.3 1.8 1.5 1.4 4 1.5 5 .2 3-1.7-2.6-1.2 1 .5 4.4.8 1.5 1.5 3.5 1.5 4.3 0 .7.9 3.1 2 5.3s2 4.7 2 5.7-1.1-.5-2.4-3.2c-1.4-2.8-2.5-4.5-2.5-3.8-.2 2 4.1 12.3 5.1 12.3.5 0 .7.4.3.9-.3.6.3 1.4 1.2 2 1.3.7 1.4 1 .4 1.1-1.1 0-.9.6.7 2.2 1.1 1.3 3.1 5 4.4 8.3 1.2 3.3 2.8 6.6 3.5 7.3s1.3 2 1.3 2.8.5 1.4 1 1.4c.6 0 1 .6 1 1.4 0 .7 4.7 5.5 10.5 10.6 5.8 5.2 10.5 9.8 10.5 10.4 0 1-2.2-.7-12.3-10.3-6.5-6.1-9-7.4-6.8-3.4.5 1 3.6 7.4 6.7 14.3 6 13.2 21.3 45.2 22 45.9 1 1.1 1.3-.8.5-3.7-.5-1.8-.6-3.2-.2-3.2 1 0 2.1 5 2.1 9.2 0 2.2.4 2.9 1.4 2.5.8-.3 1.3.1 1.2 1-.1 1.2 4 3.1 14.6 7.2 8.1 3.1 14.5 5.7 14.3 6-.5.4-13.3-4.2-24.9-8.8l-6.9-2.8-9.4-18.4c-5.2-10.1-10.6-21.1-12-24.4-1.3-3.3-4.2-9.6-6.3-14-2.1-4.5-4.2-9.4-4.5-11-.4-1.7-1.3-3.5-1.9-4-.7-.6-1.8-2.6-2.5-4.5s-4.4-9.8-8.2-17.6-7.6-17.2-8.5-21c-3-13-5.7-22.9-7-25.9-.7-1.7-3.6-9.9-6.4-18.4-4.2-12.7-5-16.1-4.4-19.4.6-4 .6-4 2-1.6.7 1.3 1.3 3.6 1.4 5.1m22.5 40.9c2.9 8.2 6.7 14.9 7.3 13.1.2-.7.8-1.2 1.3-1.2s.4.9-.3 2c-1 1.5-1 2.5-.2 3.8.9 1.3 2.5 1.7 7.8 1.7 3.6 0 6.6.3 6.6.7 0 .5-1.9.8-4.2.9-4 0-4.1.1-1.8 1.1 5.5 2.3 27.3 7.4 35.5 8.3 1.7.1 4.8.6 7 1 2.9.5 3.6.4 2.5-.4-.8-.6-2.3-1.1-3.3-1.1-2.3 0-17.9-5.1-17.3-5.7.2-.2 3.2.5 6.7 1.7 6.4 2.1 12.2 3.2 16.9 3.2 2.4 0 2.4 0 .5 1.5-1.8 1.4-1.4 1.5 4.5.9 16.7-1.4 24.6-2 25.5-1.6 2.6.9 22.1-.3 24.5-1.5 1.4-.7 5.4-1.7 8.8-2.1 3.5-.3 6.1-.9 5.8-1.1-.2-.3-4.7-.9-9.8-1.3-7.3-.7-5.9-.7 6.5-.3 14.2.5 15.7.4 15.1-1.1-.4-1.1-.2-1.5.8-1.1 2 .8 2.9-.5 8.9-12.5 5.1-10.4 11.8-22 12.6-22 .3 0-1 2.6-2.8 5.7-4 7.1-15.2 29.4-15.4 30.8-.1.5-.3 1.5-.3 2-.1.6-1 1.1-1.9 1.2-1 .1-5.2 2-9.3 4.3s-10.4 5.8-14 7.7c-8.7 4.8-8.8 4.9-5.4 7.5 1.6 1.3 4.5 3.8 6.4 5.6 2 2 .7 1.2-3.1-1.7-3.7-2.8-7.5-5.1-8.5-5.1-.9 0-6 1.1-11.3 2.5-16.1 4.1-42.5 8.4-46.3 7.6-1.8-.5-7.5-2.2-12.7-4-5.2-1.7-9.8-3.1-10.3-3.1s-2.7-1.2-4.9-2.6c-4.6-2.9-5.8-2.6-4.1 1.1 1.6 3.5 1.5 4.3-.3 1.9-.8-1-1.5-2.5-1.5-3.3 0-1.9-4.6-9.2-10.1-15.9-4.2-5.1-6.2-8.8-6.3-11.7-.1-.6-1.4-3.7-3-7-3.8-7.8-10.6-24.5-10.6-25.9.1-1.8 4.7 7.8 7.5 15.5m249-1.9c0 2.6-.9 4.1-4.5 7.3-2.5 2.2-10.2 9.6-17.1 16.3-7 6.8-13.6 12.9-14.7 13.5-1.1.7-6 4-10.9 7.5-4.8 3.4-11.7 8.1-15.3 10.5-10.7 7.1-16 11-16 11.9 0 .4-1.1.8-2.5.8s-4.5 1-6.8 2.1c-4.3 2.3-25.8 11.2-42.7 17.8l-9.5 3.7-.6 5c-.5 4.4-.6 4.5-.7 1.1-.1-2.1-.7-3.7-1.4-3.7-.6 0-3.4 1.5-6.2 3.4-2.8 1.8-10.4 6.8-16.8 11s-12 8.1-12.3 8.6.8 1.6 2.5 2.5c1.6.8 3 1.8 3 2.1 0 .2-1.3-.2-3-1.1-1.6-.8-3.6-1.5-4.4-1.5s-1.9-.7-2.4-1.5c-.4-.9-6.2-7-12.7-13.5-8.2-8.3-12.1-11.6-12.7-10.8-.7 1.2-1 .9-.7-.8 0-.3-.7-1.7-1.7-3.2-1.8-2.7-2.7-8.2-1.3-8.2.4 0 1.2 1.4 1.8 3 1.2 3.7 4.5 5.1 13.1 5.6 3.6.2 8.9.6 11.7.8 4.2.4 5.5.1 6.3-1.2.9-1.6.9-1.6 1 .1 0 1.6 1.2 1.8 14.3 1.6 15-.1 19.2-.9 14.7-2.9l-2.5-1.1 2.5.7c1.4.3 3.5.8 4.8 1.1s2.2.1 2.2-.7c0-.7.7-1 1.6-.6 1 .4 2.8-.6 4.8-2.6 1.8-1.8 4.4-4.2 5.7-5.2 6.7-5.4 15.9-14 15.9-14.9 0-.6-1-2.2-2.2-3.6l-2.3-2.6 2.6 2.3c1.4 1.2 2.8 1.9 3.2 1.6.3-.3 1-.3 1.5 0 1.1.7-3.3 5.3-13.3 13.9-10.5 9.1-13.1 11.7-11.8 11.7 1.2 0 9.3-3 14.8-5.5 1.7-.8 10.4-4.4 19.5-8 9-3.7 17.3-7.6 18.5-8.8 1.1-1.3 2.8-2.1 3.7-1.9 1.3.2 1.6-.1 1.2-1.2-.3-.8-.1-2.3.5-3.3.9-1.5 1-1.3.5.9-.7 3.4.4 3.5 4 .7 3.2-2.5 17.5-11.9 18.1-11.9 1.6 0 19.4-14.5 20.4-16.7.9-1.9 1.5-2.3 2-1.4.9 1.4 30.1-26.2 30.1-28.6 0-1.3 1.7-5.3 2.3-5.3.1 0 .2 1.5.2 3.2m408.3 57.4c-2.7 2.5-4.8 5.2-4.8 5.9 0 .8-.4 1.7-1 2s-.7-.1-.4-.9c1-2.7-.4-1.8-8.8 5.1l-8 6.8 3.3.6 3.4.6-3.7.2c-2.1 0-3.8.5-3.8 1 0 .9 15.3 15.1 16.4 15.1.3 0 .4-2.8.1-6.3l-.4-6.2 1.2 7c1.5 8.3 2.1 7.2 3.8-7 .6-5.5 1.6-10.9 2.1-12 .6-1.4.7-.9.3 1.7-.3 2-.8 6-1.1 9-1.1 11.5-2.4 17.3-4.1 18.6-1 .7-7.8 5.8-15.1 11.3-7.3 5.4-13.8 9.9-14.4 9.9-1.5 0-1.1-.4 8-6.9 16.1-11.5 20.1-14.6 20.2-15.6 0-.6-1.5-2.4-3.2-4-8.3-7.3-16-13.6-16.3-13.3-.2.1-1 2.5-1.9 5.3-1 3.2-1.4 3.7-1 1.5 1.6-8.6 1.4-9-5.1-11.4-3.3-1.2-7.6-2.9-9.5-3.8-4.6-2.2-26.4-10.8-27.2-10.8-.4 0 1.1 3.2 3.2 7 2.1 3.9 3.5 6.8 3 6.5s-2.5-3.4-4.4-7c-2-3.5-4.1-6.7-4.6-7-.6-.3-1-1.3-1-2.1 0-1.9 2.9-1.8 3.6.1.4.8 1 1.5 1.5 1.5s3.2 1.1 6.1 2.4c10.7 4.7 33.4 13.4 35.1 13.3.9 0 1.7-.5 1.7-1.1 0-.7.9-1.9 2-2.9 2-1.7 2-1.6 1.4.9-.6 2.1-.4 2.5.7 1.9 2.2-1.3 15.8-12.5 20.8-17.2 6.2-5.7 7.8-5.5 1.9.3m164.4 115.9c1.1 1.4 2.3 2.3 2.7 2 .9-.5 3.1 3.9 3 5.8 0 .7-.7-.2-1.4-1.8-1.7-3.7-1.9-1.6-.3 3.9 1.5 5.4 2.8 6.7 2.3 2.5-.2-1.9-.1-2.6.1-1.7 1 3.3 2 1.9 4.4-5.7 1.8-5.6 2.8-7.5 4.1-7.5 1.6 0 1.4 1-1.6 9.6-2 5.2-3.6 11.1-3.8 13-.1 2.4-.6 3.3-1.5 2.9-.8-.3-1.9-.5-2.6-.5-1.1 0-9.6-21.1-9.6-23.9 0-1.9 2.1-1.2 4.2 1.4m21 4c-.5 2.6.6 3.3 2.5 1.4 1.4-1.4 6.7-.3 8.4 1.7.6.8 1.7 1.4 2.4 1.4s1.8.7 2.5 1.5c1.1 1.3 1.6 1.1 4-1.5 3.9-4.1 7-4.6 12.4-1.9 5.7 2.8 8.3 5.5 9 9.4l.6 3-1.1-3c-1.4-3.7-2.8-5.5-4.2-5.5-.5 0-.2.9.8 2s1.5 2.3 1.2 2.7c-.4.3-.7.1-.7-.5 0-.7-.4-1.2-1-1.2-.5 0-1 .9-1 1.9 0 2.9-4.6 7.9-6 6.5-.7-.7-.5-1.6 1-2.9 2.7-2.4 2.7-7.5.1-7.5-2.2 0-5.1 3.5-5.1 6 .1 2.1 4.6 7 6.5 7 .9 0 2.7-1.1 4-2.5 3.1-3 3.3-2 .3 1.2-2.4 2.5-4.8 2.9-8.1 1.1-2.1-1-2.1-1-.7.7s1.4 1.7-.7.7c-1.2-.7-2.9-2.2-3.7-3.4-.9-1.2-1.6-1.9-1.6-1.4 0 .4-1.1-.1-2.5-1.2-1.5-1.2-3.4-1.8-5-1.4-1.4.2-2.4.7-2.1.9.3.3-.5 1.4-1.7 2.3-3.2 2.7-1.2 3.7 2.8 1.5 4.3-2.3 5.7-1.2 2.5 1.8l-2.4 2.2 1.8-2.3c2.2-2.6 1.5-2.8-1.9-.6-1.6 1-3.4 1.4-5.1 1-1.8-.5-2.4-.3-1.8.5.9 1.5-.7.6-5.4-2.9-2.2-1.7-3.1-3-2.7-4.1.3-.8.3-1.2-.1-.9-.9 1-2.9-1.3-3.7-4-.3-1.3-.3-2.1 0-1.8.6.6 4.3-6.2 4.3-8 0-.7-.6-1.5-1.2-1.7-.7-.3-.3-.6.8-.6 1.7-.1 2 .4 1.6 2.4"/><path d="M501.5 56.2c.3 4 1 9.5 1.5 12.3.5 2.7 1.2 7.4 1.5 10.2.6 5.6 2.3 11.3 2.4 8 .1-1.8 1.6-2.3 2.6-.8.3.5-.3 1.6-1.3 2.3-1.8 1.3-1.8 1.9-.7 9.3.8 6 1.5 7.5 3.1 7.5 2.2 0 15.4-5.7 33.9-14.4 26.3-12.5 31.4-15.1 31.4-15.7.1-.7-11.5-4.8-42.9-15-11.8-3.9-23.6-7.9-26.2-9-2.6-1-5-1.9-5.3-1.9-.4 0-.4 3.3 0 7.2M561 84.6c-8.5 4.2-18.3 8.9-21.7 10.5-16 7.3-23.3 11.1-23.3 12 0 .5.3.8.8.7.7-.2 21.5.8 36.8 1.8l9.1.6 3.3-6.8c1.8-3.8 4.5-10.1 6.2-13.9 1.6-3.9 3.4-8 4-9.2.6-1.3.9-2.5.7-2.8-.3-.2-7.5 3-15.9 7.1M578 80.2c-.7 1.8-1.9 4.6-2.6 6.3-4.2 9.8-6.4 15.6-6.4 16.9 0 .8-.4 1.6-.9 1.8-.5.1-1.2 1.4-1.6 2.8-.6 2.9-2.4 2 24.5 12.6 9.1 3.6 17.3 7 18.3 7.5 6.8 3.6 6.8 3-.1-7.4-3.8-5.6-11.7-17.7-17.7-26.9-6.1-9.2-11.3-16.7-11.6-16.7-.4-.1-1.2 1.4-1.9 3.1M583 77.5c0 .2 7.3 11.3 16.3 24.5 8.9 13.3 16.8 25.3 17.6 26.7 1.9 3.6 3.1 1.7 4.7-7.4.8-4.3 1.8-8.7 2.3-9.8s1.4-4.5 2.1-7.5 1.5-6 1.7-6.6c.5-1.3-6.7-4.9-20.2-10-4.9-1.9-10.3-4.1-12-4.9-5.2-2.5-12.5-5.4-12.5-5M413.9 90.2c-1.3 1.8-2.9 4.2-3.5 5.3s-3.5 6-6.5 10.8-6.1 10.1-7 11.7-2.2 3.6-2.8 4.4c-.7.8-1.5 2.9-1.8 4.6-.2 1.8-1.8 7.3-3.5 12.3-1.6 5.1-3.6 11.4-4.3 14.2-.8 2.7-1.7 5.9-2 7-.5 1.5 0 1.2 2-1 1.5-1.7 6.3-6.8 10.6-11.5 4.2-4.7 11-12.6 14.9-17.5 3.9-5 7.7-9.5 8.3-10 .7-.6 2.1-2.1 3.2-3.3 1.5-1.9 1.7-2.5.6-3.2-1-.6-.8-1 .8-1.5s2-1.2 1.6-2.3c-.4-1-2.4-6.5-4.4-12.5L416.4 87zM628.6 98.7c-.3 1-1 4.5-1.6 7.8-2.3 11.6-2.8 14-4.4 19.5-.8 3-1.3 5.6-1.1 5.8.4.4 40-7.2 47.3-9.1 2.3-.6 4.2-1.4 4.2-1.7s-1.7-1.5-3.8-2.6c-7.9-4.5-39.4-21.4-39.8-21.4-.2 0-.5.8-.8 1.7M417.8 123.3c-4.6 5.2-16.9 19.8-24 28.6-2 2.5-3.4 4.8-3.1 5.1s.8 0 1-.6c.6-1.8 4.3-.4 4.3 1.6 0 2.2-2.6 3.3-5 2-1.4-.7-2.7-.3-5.8 2-2.2 1.6-4.3 3.4-4.7 4-.6 1 5.2 11.1 19.2 33.9 2.3 3.7 7 11.8 8.8 15.2 1 1.9 2.5 2.6 2.5 1.1 0-1.4 3.2-25.9 6-46.2 3.4-24.3 6.3-49.6 5.8-51-.2-.5-2.4 1.4-5 4.3M672 123.2c-1.4.4-7 1.7-12.5 2.8-27.2 5.7-36.4 8-37 9.1-.3.4 1.7 5.4 4.4 11.1C635.8 165 652 198 652.4 198c.2 0 1.8-4.6 3.5-10.3 1.8-5.6 5.2-16.3 7.6-23.7 7.1-21.9 11.6-38 11.3-39.8-.2-1.4-.9-1.6-2.8-1M620 147.2c0 2.9-.7 16-1.6 29.2-.8 13.1-1.2 24.2-.7 24.7.6.6 32.1-.9 33.1-1.6.5-.4-22.1-46-24.8-50-1.5-2.2-2.9-4.8-3.3-5.8-1.3-3.4-2.7-1.6-2.7 3.5M615.5 143.9c.3.6-.1 1.3-.9 1.8-.8.4-1.5 1.1-1.5 1.5-.1.5-.3.7-.5.5-.3-.2-4.2 4.6-12.8 16.2-1.5 2-3.1 4.3-3.5 5.1-.3.8-1.1 1.8-1.5 2.1-.5.3-1 2-1 3.7-.1 3-2 4.8-3.8 3.7-.5-.3-1.1-.1-1.5.5-.3.5-.2 1 .4 1 .5 0 1.3.9 1.6 2s1.6 2.5 2.7 3.1c1.5.8 1.9.8 1.4 0-1.2-1.9 1.3-1.2 3.1.8.9 1.1 2 1.8 2.5 1.5.4-.3 1.6 0 2.5.5 1.7 1 1.6 1-.2 1.1-1.7.1-1.3.7 1.9 3.5 2.1 1.9 4.2 3.2 4.6 3 .4-.3 1.1.2 1.4 1.1.3.8 1 1.2 1.6.9.5-.3 1-.1 1 .5s.4.9.9.6c1-.7 1.9-10.8 2.6-31.1.2-7.7.5-14.7.6-15.5.5-3.8-.2-9-1.2-9-.5 0-.8.4-.4.9M424.6 162.9c-.3.5-1.5.7-2.5.4-1.6-.4-2.1.1-2.5 2.9-1.1 7.1-1.2 9.8-.4 9.8.4 0 .8 1.5.7 3.2-.1 3.1-.2 3.1-.8.8l-.7-2.5-.7 2.5c-.4 1.4-1 7.4-1.4 13.3-.6 10.5-.5 10.8 1.5 11.4 1.2.3 2.2 1.1 2.2 1.8s1.5 1.5 3.2 1.7c3.6.6 5.9-.6 12.8-6.3 1.4-1.1 1.9-1.8 1.3-1.4-.7.3-1.3.1-1.3-.6 0-.6.8-.9 2-.6 1.1.3 2 .1 2-.4s-.5-.9-1.1-.9c-.5 0-.8-.4-.5-.8.2-.4.1-1.4-.5-2.2q-.9-1.5-.9-.3c0 .7-.4 1.3-1 1.3-.5 0-1-.9-1-2s.7-2 1.5-2 1.5-.9 1.5-2 .5-2 1-2c.6 0 1.3-.7 1.6-1.4.6-1.6-1.6-4.3-5.8-6.9-2.4-1.5-2.8-1.5-2.8-.2 0 .8-.4 1.5-1 1.5-.5 0-1-.7-1-1.5 0-1.8-1.6-2-2.3-.3-.3.7-.6-.6-.6-2.9-.1-3.2.3-4.3 1.7-4.7 1.8-.6 2.4-3.3 1.6-7.4-.3-1.5-1.1-2.2-2.9-2.2-1.3 0-2.6.4-2.9.9M561 171c1.2.8 1.1 1-.7 1s-2.3.6-2.3 2.5c0 2.4 4.7 20.1 7.3 27.7 1.3 3.7 1.3 3.7 3.1 1.6 1.4-1.6 7.2-10.8 13.2-21 .7-1.1-3.3-4.3-8.4-6.9-2.6-1.3-4.9-2.6-5.2-2.9s-1.8-1.1-3.3-1.8c-3.4-1.4-5.9-1.6-3.7-.2M378.9 172.5c-.1 1.1-.2 2.7-.1 3.5s-.3 3.7-.8 6.5c-2.6 13.7-4.1 22.9-5.3 31.8-1.2 8.5-1.2 10 .1 10.4 2.7 1.1 20.6-1.7 21.9-3.3.6-.9 1.6-1.3 2.2-1 .6.4 2 .2 3.1-.4 1.6-.9 2.2-.8 2.6.5.4.9.4 1.8.2 2.1-.6.5-7.9 1.7-21.5 3.5-5.6.7-9.3 1.6-9.3 2.3s.8 2.7 1.8 4.6c4.5 8.5 9.6 17.6 12.6 22.4 1.8 2.8 5.6 9.5 8.5 14.9s5.5 9.6 5.8 9.3c.7-.7 3.8-18 6.4-35.1 1.1-7.7 2.3-15.6 2.6-17.6.4-3 .2-3.7-1.8-4.6-2-1-2.1-1.2-.6-1.2 2.3-.1 1.6-2.9-2.4-8.9-1.6-2.4-2.9-4.5-2.9-4.8s-2.7-4.7-6-9.9c-5.7-9-8.8-14.2-11.7-19.5-.7-1.4-2.2-3.6-3.3-5-1.8-2.3-2-2.4-2.1-.5M580.9 189.8c-5.1 8-10.9 17.9-10.9 18.7 0 .3 1.7.4 3.8 0 2-.3 6.6-1 10.2-1.5s9.2-1.5 12.5-2c3.3-.6 7.7-1.4 9.8-1.7s4-.9 4.2-1.4c.3-.4-3.4-3.5-8.2-6.8-4.9-3.3-10.3-7.2-12.2-8.6s-3.9-2.5-4.5-2.5-2.7 2.6-4.7 5.8M434 206.9c-6.3 4.2-13.3 8.9-15.4 10.4l-3.9 2.7h21.4c11.8 0 25.8-.3 31.3-.7l9.8-.6-2.3-1.9c-1.3-1-4-3-5.9-4.3s-7.1-4.9-11.5-8c-4.4-3-8.9-5.5-10-5.4-1.1 0-7.2 3.5-13.5 7.8M631.8 202.3c-14.5.9-14.8 1-14.8 3.3 0 1.3 1.1 14.6 2.4 29.6 1.4 15 2.8 32.1 3.2 38 .4 6 1 10.8 1.5 10.8.4 0 1.9-3.5 3.3-7.8 1.4-4.2 5.7-16.9 9.5-28.2s8.1-24.6 9.6-29.5c1.4-5 3.2-10.7 4-12.7 1.4-4.1 1.1-4.9-1.9-4.6-1.2 0-8.7.6-16.8 1.1M606.7 205.6c-.1.1-1.8.4-3.7.7-11.6 1.6-29 5.1-29 5.8 0 .5-.8.5-1.7.2-1.6-.6-1.6-.5-.4 1.1.8.9 2 1.5 2.8 1.2s1.6.1 1.9.9c.4.8 1 1.2 1.5.9s.9 0 .9.6c0 1.8 2.9 4.2 4.1 3.4.7-.4.9-.3.6.4-.7 1 4.6 6.2 6.4 6.2h1.4c.2 0 2.1 1.6 4.2 3.5 3.7 3.4 3.8 3.4 4.1 1.3.2-1.3 1-3 1.7-3.8 2-2.3 8.1-14.2 8.8-17.2.4-1.4 1-3.3 1.3-4.2.5-1.2 0-1.5-2.1-1.4-1.4.1-2.7.3-2.8.4M614 207.2c0 1.5-2.1 6.5-8.6 20.5-1.9 4-3.4 7.9-3.4 8.7 0 .9 1.2 4.1 2.6 7.3s5 11.8 8 19.2c8.7 21.3 8.6 21.2 7.9 3.1-.4-8.5-.9-16.9-1.1-18.5-.2-1.7-1.3-11.5-2.3-21.8s-2.1-19.1-2.5-19.4c-.3-.4-.6.1-.6.9M437.3 221.8c-16.1.1-24.3.6-24.3 1.3 0 1.1 4.4 12.4 13.5 34.4 13.7 33.2 17.1 40.9 18.3 41.3 1.4.4 5.5-7.9 18.2-37.8 5-11.8 10.5-24.4 12.1-27.9 1.7-3.5 3.3-7.7 3.6-9.1l.5-2.7-8.9.1c-4.8 0-19.7.2-33 .4M484.7 221.7c-1.5.4-1.7 1.2-1.3 4.1.4 2.1 1.1 9.1 1.6 15.7 1.2 13.6 2 23.2 2.5 28.9.7 7.5-.5 8.4 25.5-18.2 17.4-17.9 25-26 25-26.7 0-.4.8-1.4 1.8-2.1 1.4-1.1-2.1-1.3-22.3-1.4-13.2 0-25.6-.2-27.5-.4-1.9-.3-4.3-.2-5.3.1"/><path d="M479.7 226.2c-2.1 5-8.9 20.6-17.2 39.8-10.7 24.8-13.5 31.5-13.5 33 0 1.2 6-.8 8.3-2.8.9-.8 2-1.3 2.3-1 .6.7-4.9 4.2-8.9 5.7-1.6.6-2.7 1.7-2.5 2.4.5 1.2 15.5 8.2 26.6 12.2l6.2 2.3.1-2.2q0-2.25.6-.6c1.4 3.5 3.6 4 13.3 3.4 11.3-.8 12.4-1.1 17.3-5.7 3.5-3.4 3.7-3.8 3.7-10.1V296l-10.2 6.6c-5.6 3.6-12.6 8.4-15.5 10.6-3 2.2-5.7 3.8-5.9 3.5-.6-.6 3.1-3.2 18-13 6.1-4 11.1-7.7 11.3-8.3s-1.1-1.7-2.9-2.4-7.3-3.3-12.2-5.7c-9.9-4.8-11.2-5.1-11.9-2.6-.4 1.4-.5 1.2-.6-.5-.1-2.4-1.1-2.8-2.7-1.2-1.4 1.4-21.7 12.1-22.1 11.6-.2-.2 4.6-2.9 10.7-6.2 6.1-3.2 11.7-6.6 12.6-7.5 1.3-1.5 1.3-3.6-.1-20-3-35-3.4-37.9-4.8-34.7M580.8 226.3c2.2 2.6-1.6 3.8-4.1 1.3-1.3-1.3-1.7-1.3-3.4.2-3 2.7-5.6 3.9-8 3.7-1.3-.1-1.9.3-1.6 1.1.2.6-.1 1.5-.7 1.9s-.8 2-.4 4.2c.5 2.6.4 3.4-.5 2.9-.7-.5-1.1.2-1.1 1.8 0 3.3 2.4 3.4 10.6.5 3.2-1.1 6.6-2.2 7.4-2.4 2.9-.6 15.5-5.1 16.8-5.9 1-.6-.4-1.9-4.9-4.8-7.3-4.7-11.9-6.7-10.1-4.5M411.6 227.8c-.3.5-1.3 5.4-2.1 10.8-.9 5.5-2.7 16.2-4.1 23.9-2.9 16.8-3 19.2-.6 19.9.9.3 6 3 11.3 5.9 10.2 5.6 24.8 12.1 25.6 11.3.3-.2 0-1.3-.6-2.3-1.3-2.5-23.6-57-24.6-60.2-1.6-5.1-4.3-10.2-4.9-9.3M369 232.2c0 1.5-8.3 17.5-10 19.2-.6.6-1 1.9-1 3.1 0 1.6 1.9 3.2 7.6 6.4 4.1 2.4 7.7 4.1 8 3.9.6-.7-3.1-32.7-3.9-33.5-.4-.3-.7 0-.7.9M372 235c0 .3.6 5.2 1.4 11 1.6 11.9 3.3 19 4.5 19 .5 0 .7.8.5 1.7-.4 1.4 1.6 2.9 8 6.5 4.6 2.7 8.9 4.8 9.5 4.8 1.3 0-6.3-15.4-8.9-18-.8-.9-3.9-6.3-6.9-12.1-4.6-8.9-8.1-14.5-8.1-12.9M595 238c-.8.4-8.2 3.2-16.5 6-8.2 2.9-15.8 5.8-16.9 6.6-1.7 1.2-1.6 1.4 2 2.8 4.3 1.7 4.1 1.6 11.6 6.7 2.9 2 10.3 6.5 16.3 9.9 6.1 3.5 15 8.5 19.8 11.3 4.8 2.7 9 4.8 9.2 4.5.3-.2-.6-2.7-2-5.4-1.3-2.7-4.7-10.5-7.4-17.4-10.1-25.8-11.4-27.7-16.1-25M356.6 259.2c-.3.7-.7 4.3-1 7.9-.4 3.6-1.2 8.9-2 11.7-.7 2.9-.9 5.2-.5 5.2.5 0 2.6-1.2 4.7-2.8 16.9-11.9 16.7-11.7 13.5-14-15.3-10.5-14.1-9.9-14.7-8M572.5 264.7c.2 2 .9 3.9 1.5 4.3.7.4.9 1.6.5 2.9-.3 1.1-.3 2.1.2 2.1.4 0 3 3.6 5.7 8l4.8 8h6.3c9.9 0 27.5-1.2 27.5-2 0-.3-1.9-1.6-4.2-2.8-2.4-1.3-5.2-2.8-6.3-3.5-5.7-3.5-12.2-7.2-23.7-13.5l-12.6-7zM376.4 277.9c.6 8.1 1.7 16.4 2 16.8.1.2 4.6-2.2 10-5.3s10-5.4 10.2-5.1c.5.5-4.5 3.7-10.1 6.7-5.2 2.7-9.5 5.5-9.5 6.1 0 .3 1.7 1.3 3.8 2.2s7.6 4 12.3 6.8c12.4 7.5 18.3 10.4 17.6 8.6-.3-.9-1.1-3.3-1.6-5.4-1.3-4.9-7.9-19.7-10.9-24.5-1.7-2.7-4.4-4.7-10.5-7.8-4.5-2.3-8.6-4.5-9.2-4.9-.5-.4-1.9-1.1-2.9-1.5-1.8-.6-1.9-.2-1.2 7.3M369 275.4c-2.5 1.8-7 4.9-10 7s-5.3 4.1-5.1 4.4c.3.6 13.3 5.6 20.4 7.9 1.7.5 1.8-.1 1.2-10.3-.4-6-1-11.2-1.4-11.6-.3-.4-2.6.8-5.1 2.6"/><path d="M511.5 275c-.3.5-.3 1 .2 1 .4 0 .1.5-.8 1-2.1 1.2-6.6.1-4.7-1.2q1.35-.9-1.2-.3c-5.3 1.3-8 2.8-8 4.4 0 1.3-.2 1.3-.9.2-.6-.9-1.1-1-1.5-.2-.4.6-1.2.8-1.8.5-.6-.4-.8-.2-.4.4.6.9 6.2 4.2 7.3 4.2.2 0 .1-.5-.2-1-.3-.6-.1-1 .4-1 .6 0 1.1.6 1.1 1.4 0 1.5 4.1 3.4 8.4 3.8 2.4.2 3.1-.1 3.6-2.2.5-2.3.7-2.3 1.3-.6.5 1.1.3 2.2-.3 2.6-.7.5-.6 1.1.3 1.9 1.7 1.3 2.5 0 2.2-3.6-.1-1.2.2-2 .7-1.7.4.3.8-.5.8-1.8 0-1.8-.2-2-1-.8s-1 1-1-1c-.1-5.7-2.6-9.1-4.5-6M403 284.7c0 1.2 4.9 13 9.1 22 2.2 4.6 3.9 8.7 3.9 9.3 0 .5.6 1 1.4 1 1.7 0 16.3-6.1 20.3-8.5l2.8-1.7-2.7 2.5c-1.7 1.6-2.5 3.2-2.2 4.1s.1 1.6-.5 1.6-1.1-.5-1.1-1c0-1.6-2.1-1.1-9.3 2.3l-6.8 3.2 6.6 7c3.6 3.8 7.3 8 8.2 9.2.8 1.3 1.9 2.3 2.3 2.3s2-4.6 3.5-10.3c1.6-5.6 3.2-10.7 3.6-11.3.5-.5 1-3.1 1.3-5.7.5-6.2-1.5-8.7-10.1-12.3-3.8-1.5-7.2-3.1-7.8-3.5-1.4-1-21.3-10.9-22-10.9-.3 0-.5.3-.5.7M537 289.1c-6.9 2.2-14.1 4.7-16.1 5.6-3.5 1.4-3.7 1.7-3.2 5.7.9 8.5 1.1 8.9 3.6 7.1 1.2-.8 3.6-1.5 5.3-1.5 6.7 0 10.8-2.9 18.2-12.9 4.4-6.2 4-4.4-.8 3.3-2.2 3.5-4 6.5-4 6.8s2.6.6 5.8.7c6.3.2 7.9.5 10.4 1.5.9.4 2.5.6 3.6.4 1.8-.3 1.7-1-2.3-9.3-4.3-9-5.9-11.5-7.3-11.5-.4 0-6.3 1.9-13.2 4.1M447 306.5c0 .3 2.4 5.4 5.4 11.3 2.9 5.9 6.1 13.1 7 15.9 1 2.9 2.1 5.3 2.4 5.3.4 0 4.5-3.9 9-8.7 8.2-8.7 8.3-8.7 2.3-1.6-3.3 4-6.7 8.7-7.6 10.3-1.5 3-1.5 3.2.7 5 1.3 1.1 5.1 3.3 8.5 5 5.3 2.7 6.5 3 8.4 1.9 1.7-.9 2.4-.9 2.7 0 .8 2.3 3.9 1 5.5-2.4 1.2-2.6 1.4-4.1.7-6.1-.6-1.4-.8-3-.4-3.5.7-1.3.5-1.2-6.2 1.5-5.8 2.3-16.1 4.6-11.9 2.6 1.1-.5 3.8-1.4 6-1.9 4.9-1.3 19.3-10.5 20.2-12.9.4-.9.9-1.9 1.2-2.2s1.2-1.5 1.9-2.8c1.7-3.1.6-3.4-12.2-3-5.8.2-10.7 0-10.9-.4-.1-.4-5.8-3-12.7-5.8s-13.9-5.7-15.7-6.5c-3.3-1.6-4.3-1.8-4.3-1M447 324.9c0 6.9.4 12 .9 11.7s1.2.5 1.5 1.9c.6 2.2 1.2 2.5 5.2 2.5 4.2 0 4.5-.1 3.9-2.3-.4-1.2-1.1-2.6-1.6-3.2-.5-.5-.9-1.8-.9-3s-.5-2.6-1.2-3.3-.9-1.2-.5-1.2c.3 0-.5-2.1-1.8-4.6-1.4-2.6-2.5-5.2-2.5-5.8s-.7-2-1.5-3c-1.3-1.8-1.5-.7-1.5 10.3M613.3 360.7c-8.6 11.1-12.8 17.2-12.2 17.9.5.6 5 3.9 9.9 7.3 6.1 4.1 9.2 5.8 9.5 4.9.2-.7 1.8-10.5 3.5-21.8s3.4-21.5 3.7-22.8c.3-1.2.1-2.2-.4-2.2-.4 0-6.7 7.5-14 16.7M344.8 359.6c-.3.5-.9 4.6-1.2 9.1-.7 7.7-.6 8.3 1.1 8.3 1.1 0 2.4-1.1 3.1-2.8l1.2-2.7-.5 2.8c-.6 3 1.8 4.8 3.8 2.8 1.6-1.6 3-1.4 2.3.4-.6 1.8 2.9 3.5 7 3.5h2.5l-2.1-3c-1.2-1.7-2.6-3-3.1-3-1.4 0-3.9-2.6-3.3-3.3.3-.3-.3-.8-1.4-1.1-1-.4-2.4-1.8-3.1-3.2-.6-1.5-1.5-2.3-1.9-2-.4.4-1.4-1-2.3-3-.8-2.1-1.8-3.4-2.1-2.8M464 367.3c0 .8-.9 1.9-2 2.2s-2 1.2-2 1.9-.9 2.1-2 3.1-2 2.6-2 3.5-.4 2-1 2.6c-.5.5-1.7 5.2-2.6 10.4s-2 10.2-2.5 11.2c-2.4 4.6-.3 7.2 5 6.2 2.3-.5 3.2-.2 4 1.4 1.7 3.1-.9 5.2-5.7 4.6-2.8-.4-3.4-.3-2.2.5 1.3 1 1.3 1.3-.2 2.5-1 .7-1.8 2.2-1.9 3.2 0 1.5-.2 1.4-1.1-.6-1-2.3-1.1-2.3-1.6-.5-.2 1.1-.9 2.6-1.4 3.2-.7.9-.7 1.3.1 1.3.6 0 1.1 1.4 1.1 3.1s-.4 2.8-1 2.4-1 .8-1 3c0 2.3.4 3.4 1.1 3 .6-.4.8-1.3.5-2-.2-.7.2-1.6 1-1.9 1-.4 1.3-.2.8.7-.4.6 1.3-.6 3.7-2.9 2.4-2.2 6.6-6.1 9.4-8.5 2.7-2.4 6.8-6.2 9.2-8.4l4.2-4-2.4-11.5c-6-28.5-7.5-34.6-7.5-29.7M419.4 375c-1.3 2.2-2.4 3-3.7 2.6-1.1-.2-1.7-.2-1.4.1s-.6 1.7-2.1 3.2c-3.5 3.4-14.5 15.8-17.1 19.2-1.8 2.3-1.9 2.8-.5 3.3 3.1 1.2 24.5 2.9 25.4 2 .8-.9 3.5-14.1 4.7-23.3.5-3.6.3-4.2-.8-3.6-.8.5-.7 0 .4-1.2 1.8-2.1 2.3-4.3.8-4.3-.5 0-1.6-.3-2.4-.6-1-.3-2.2.6-3.3 2.6M345.3 381.8c.3 1.6 1 3.7 1.5 4.8.6 1 2.8 5.7 4.7 10.4 2 4.7 3.8 8.7 4 8.9.6.5 8.5-20.2 8.5-22.4 0-.1-2.5-.7-5.5-1.4s-5.7-1.7-6-2.2c-.4-.5-2.2-.9-4.1-.9-3.3 0-3.5.2-3.1 2.8M598.3 383.2c-.5 1.3-2.1 5.8-3.5 10.2l-2.6 7.8 4.2-.5c5.6-.8 20.9-6 21.3-7.2.1-.6-.9-1.8-2.5-2.7-1.5-.9-5.4-3.5-8.7-5.7-3.3-2.3-6.2-4.1-6.6-4.1-.3 0-1 1-1.6 2.2M373.5 386c.1 2 1.7 3.7 10.3 10.8 3.6 3 5.3 4 5.6 3 .3-.7 1-3.1 1.5-5.3 1.5-5.6-.6-7.5-9-8.4-3.5-.4-6.9-1-7.5-1.3-.6-.4-1 .1-.9 1.2M365.2 388.3c-.8 1.8-1.8 4-2.3 4.9-.5 1-.9 2.4-.9 3.1 0 .8-1.1 3.5-2.4 6l-2.3 4.7h2.7c1.5 0 6.6-.7 11.4-1.5s9.6-1.7 10.6-1.8c4-.6 3.5-1.4-6.6-10.7-9.6-8.7-8.8-8.3-10.2-4.7M499 407c-4.7.5-10.6 1-13.2 1.1-6.2.3-7.6 1.2-5.7 3.6 3.4 4.3 8 9.4 17.4 19.3 21.7 22.7 25.9 27 26.7 27 .5 0 .6-2.4.3-5.3-1.5-14.6-3.9-33-4.9-39.2l-1.2-7-5.5-.1c-2.9-.1-9.2.2-13.9.6M523.2 407c.2.3 5.7 5.6 12.3 11.8l11.9 11.3 1.8-2.3c2.8-3.5 9.8-15.3 9.8-16.4 0-.6-4.4-1.6-9.7-2.3-13.8-1.8-26.4-2.8-26.1-2.1M464.9 419.7c-8.8 8.2-21.2 21.3-20.7 21.9.5.5 29.1 3.4 33.3 3.4 4.3 0 4.3-.7 1.4-13.5-1.1-5-2.5-11.4-3.2-14.3-.6-2.8-1.4-5.2-1.8-5.2s-4.4 3.5-9 7.7M480 417.9c0 2 11.3 34.9 13.9 40.6 1.6 3.3 3.2 7.1 3.5 8.5 1.1 3.8 5.8 13 6.7 13 .4 0 5.1-4.2 10.4-9.3l9.6-9.2-7.7-8c-17.3-17.9-35.6-36.5-36-36.5-.2 0-.4.4-.4.9M525.6 465.1c-7.1 22.3-10.9 35.9-10.3 36.6.4.3 2.6-.3 5-1.4 2.3-1.2 6.2-3 8.7-4.1s7.6-3.4 11.3-5.1c3.8-1.7 7.3-3.1 7.8-3.1 2.6 0-.1-3.5-9.8-12.7-6-5.6-11.1-10.4-11.5-10.8-.4-.5-1-.2-1.2.6M515.8 472.3c-6.3 5.8-8.2 8.7-5.8 8.7.6 0 1 .7 1 1.5s-.7 1.5-1.5 1.5-1.5-.7-1.5-1.5c0-2.2-1.8-1.8-2.5.4-.6 1.9 4.4 13.3 6.4 14.5 1.1.7 4.1-6.2 8.1-19.4 1.8-5.8 3.4-10.8 3.7-11.3 1.3-2.2-2 .1-7.9 5.6M504 492.7c0 .5.4 1.3.9 1.8.5.6 1.2 2.1 1.6 3.5.7 2.2.6 2.3-.8 1.2-2.1-1.8-3.7-.7-3.7 2.5 0 1.5-.3 2.3-.7 1.9-.4-.3-1.2.6-1.9 2.1l-1.2 2.8-1-2.5-1.1-2.5v2.5c-.1 1.4-.8 4.6-1.6 7.2-.8 2.7-1.2 4.8-.9 4.8.7 0 10.5-7.6 15.4-11.9 2.1-1.8 3.1-3.4 2.5-3.8-1.2-1-3.2-4-4.4-7-1-2.2-3.1-4-3.1-2.6M937 112.2c-4.1.9-12.8 2.9-19.2 4.3-6.5 1.5-12 3-12.3 3.4-.2.5 1.2 3.1 3.3 5.9 2 2.8 6.9 9.6 10.7 15.2 3.9 5.5 8.2 11.6 9.7 13.6l2.8 3.6 1.1-2.8c.6-1.6 2.2-6.7 3.5-11.4s3.5-12.6 4.9-17.5c4.1-14.2 4.4-15.5 3.7-15.8-.4-.1-4.1.5-8.2 1.5M946.6 112c-.3.8-1.2 4.4-2 8s-2.8 11.4-4.4 17.5c-4.6 17.1-4.6 17.1-1.4 16.9 1.5-.1 3.2.3 3.9.8.8.7 6-.2 15.5-2.6 20.7-5.2 21.8-5.6 21.8-6.8 0-.6-5.8-7-12.9-14.2s-14.4-14.9-16.4-17.1c-2.7-3-3.7-3.6-4.1-2.5M985 148.5c0 .4 1.3 3.4 2.8 6.8 1.6 3.4 4.2 9.1 5.8 12.7s4.6 9.8 6.6 13.9l3.7 7.4 2-4.4c4.2-9.2 13.1-31.8 13.1-33.2 0-1.1-2.8-1.5-14.1-2.1-7.8-.4-15.4-1-17-1.3s-2.9-.2-2.9.2M1018.9 156.9c-8.5 18.5-12.5 30.2-10 28.6.8-.5 2.4.4 4.2 2.4 3.3 3.7 3.6 4.5 1.2 3.3-1.1-.5-3.2-.5-5.1 0l-3.3.9 2.2 3.2c1.3 1.8 7.5 9.9 13.9 18.2 6.3 8.2 14.2 18.5 17.4 22.8 3.3 4.2 6 7.6 6.2 7.4.2-.1-.8-5.2-2.2-11.2-1.3-6-2.3-11.3-2.1-11.9.3-.8 3.6 11.1 5.9 21.2 1.2 5.1 1.3 5 6.3-4.4l3.7-7-5-10.5c-2.7-5.7-9.6-20.6-15.2-33.2-5.7-12.5-10.5-22.6-10.6-22.4-.2.1.8 3.9 2.2 8.2 1.3 4.4 3.1 10.5 3.8 13.5.8 3 3 11.1 5 17.9 2 6.9 3.5 12.9 3.3 13.5-.4 1.3-2.3-4.6-7.2-22.4-2.1-7.4-5.5-19.1-7.6-25.9s-3.9-13-3.9-13.7c0-2.7-1.6-2-3.1 1.5M1009.5 219.7c2.3 13.8 4.5 25.5 4.8 26 .4.6 6.8 1.3 14.4 1.7s14.7 1 15.7 1.3c2.3.6 1.7-1.4-1.5-5.6-1.1-1.4-7.2-9.4-13.5-17.6-6.2-8.3-13.4-17.5-15.8-20.5-2.5-3-5.3-6.6-6.4-7.9-1.6-2.1-1.4.5 2.3 22.6M1002.7 207.2c-.5 3.6-.3 5.4.6 6 .9.5.8 1-.5 2-.9.8-2 4.1-2.7 8.3-.6 3.8-1.4 8.2-1.7 9.7-.5 2.3.1 3.1 3.8 5.5 4.2 2.7 8.8 5.3 9.3 5.3.1 0-.1-1.9-.5-4.3-.5-2.3-2.1-11.7-3.7-21-1.5-9.2-3.1-16.7-3.4-16.7s-.9 2.3-1.2 5.2M899 222.4c0 2.5 36.9 79 37.7 78.2.2-.2.6-2.3.8-4.7s1.1-11.2 1.9-19.4c.8-8.3 2-20.4 2.6-27s1.3-14.4 1.6-17.3c.3-2.8.3-5.2-.1-5.2-1.9 0-42.2-5.1-43.2-5.5-.7-.2-1.3.2-1.3.9M945.7 233c-.3 1.1-.1 1.8.4 1.4.5-.3.9.2.9 1 0 .9-.4 1.6-1 1.6-.5 0-.9.3-.8.7.1.5-.1 3.3-.5 6.3s-1.2 11.3-1.7 18.5c-.5 7.1-1.1 14.3-1.4 16-.2 1.6-.7 5.7-1.1 9-.3 3.2-.8 7.1-1.1 8.5l-.6 2.5 2.1-2.5c1.1-1.4 2.3-3.3 2.6-4.2.4-1 3-5.7 5.9-10.5s6.7-11.8 8.5-15.5l3.3-6.7-3.6-7.4c-4.1-8.6-7.1-12.7-9.2-12.7-1.6 0-1.9-1.7-.3-2.2.7-.2.5-1.3-.4-3.1-1.3-2.6-1.5-2.6-2-.7M1000.3 241.7c-.8.3-.9 1.3-.2 3.5.4 1.7 1.1 4.7 1.4 6.7.7 4.7 4 16.9 4.7 17.6.3.3 1.3-3 2.2-7.2 2.8-12.4 2.9-14.2 1.5-15.9-1.7-2.1-8.1-5.2-9.6-4.7M1015 249.2c0 .8 1.1 3 2.4 4.9 1.4 1.9 3.5 5.2 4.9 7.4 8 13.4 14.2 23.1 15.4 24.3.7.7 1.3 1.9 1.3 2.5 0 .7 1.6 3.6 3.4 6.5l3.4 5.2.6-16.2c.4-9 .9-20.2 1.2-24.9l.6-8.6-6.9-.6c-20.8-1.9-26.3-2-26.3-.5M1012.7 252.7c-.4.6-1.4 4.4-2.2 8.4-2.9 13.6-3.4 12.2 5.8 18.3 4.5 3 8.3 5.3 8.5 5.1.4-.3-7.3-23.2-9.7-28.8-1-2.2-2-3.6-2.4-3M961.7 262.7c-.6 1.6-3.2 6.4-5.8 10.9-2.5 4.4-6.3 11.4-8.4 15.5-2.2 4.1-4.8 8.7-5.9 10.3-1.2 1.9-1.4 2.6-.5 2.1.7-.5 1.9-1 2.5-1.1s3.3-1.2 6-2.4c5.9-2.7 28.9-12.9 43.1-19.1 5.7-2.4 10.3-4.7 10.3-5.1s-1.5-1.1-3.2-1.6c-1.8-.5-10.4-3.5-19.1-6.6-8.6-3.1-16.2-5.6-16.7-5.6-.6 0-1.6 1.2-2.3 2.7M1019 260.6c0 2.8 8.7 25.8 10.4 27.4 2.9 2.9 13.2 11 13.9 11 .3 0-2.8-5.5-7-12.3-4.1-6.7-9.5-15.5-12-19.5-4.1-6.7-5.3-8.1-5.3-6.6M1008.3 278.1c.3 1.3 1.1 5.3 1.7 8.9.5 3.6 1.6 8.4 2.3 10.8l1.3 4.3 6.3-6.5c3.4-3.6 6-7 5.7-7.5s-3.8-3.1-7.8-5.8c-10.7-7.2-10.2-7-9.5-4.2M1020.7 297.2c-3.2 3.4-5.4 6.5-5 6.9 1.7 1.6 14.3 8 15.1 7.7 1-.3-2.5-18.8-3.7-20.1-.4-.4-3.3 2-6.4 5.5M1029.2 293.6c1.1 6.7 3.1 16 3.7 17.8.6 1.7 1.3 1.4 6.3-3 3.1-2.7 5.7-5.2 5.7-5.5.1-.7-12.5-10.8-14.5-11.6-1.4-.5-1.6-.1-1.2 2.3M1000.4 306.5c-5.5 1.2-10.8 2.5-11.8 2.8-1.9.7-1.8 1.7 1 9.4 1.5 4 1.8 4.3 5.3 4.3s4.2-.6 8.5-6c2.6-3.3 4.9-6 5.2-6 .6 0-1.5 4.1-3.2 6-.7.8-1.7 2.6-2.2 4-.9 2.3-.7 2.5 2.3 2.7 1.8.2 4.5.9 6 1.7 1.6.8 3.3 1.3 3.7 1 .5-.3.7-2.9.4-5.7-.6-5.9-.4-5.6 1.9 2.5 1.1 4.1 2.1 5.8 3.2 5.8.9 0 1.3-.3 1-.6-.3-.4-.2-1.5.4-2.6 1.8-3.3 2-1.4.4 3.2-1.3 3.6-1.3 4.1-.1 3 2.1-1.7 8.9-15.9 8.3-17.4-.3-.7-4.3-3.1-8.8-5.4-7.6-3.7-8.5-3.9-9.3-2.4-.9 1.5-1 1.5-1.5-.4l-.6-2.1zM937.8 307.1c-1 .5-1.8.7-1.8.4 0-.7-14 6.3-16.7 8.5-2.1 1.6-2.1 1.9-.6 2.4 1.5.6 1.5.8.3 1.6q-1.5 1.05-2.7-.6c-1-1.4-2.5-.9-12.9 4.2-6.5 3.3-11.8 6.3-11.8 6.9 0 .5 7.5 4.8 16.7 9.5 16.2 8.2 16.8 8.4 18.2 6.6 1.5-2 1.5-2 1.5 0s.1 2 13.3.2c7.2-.9 13.3-1.8 13.5-1.8 1.5-.2-1.2-7.4-7.8-20.9-4.4-9-7.9-16.5-7.7-16.7s3.8 6.5 8 15c4.3 8.4 8.4 16.1 9.2 17.2 1.3 1.7 1.4 1.7 1.5.1 0-.9.6-1.7 1.3-1.7 2.1 0 14.8-14.1 22.6-25.1.8-1.1 1.1-2.2.7-2.6-.6-.6-34.9-4.2-40.6-4.2-1.4 0-3.3.4-4.2 1M1048.5 331.7c-3.8 2.5-7.1 4.7-7.3 4.8-.2.2.2 3 .9 6.4l1.1 6 1.9-2.2c1-1.2 1.8-1.8 1.9-1.4.1 2.1 3.4-2.9 6.5-9.8 1.9-4.2 3.5-7.8 3.5-8.1 0-1-1.9-.1-8.5 4.3M889.4 349.7c.4 9.7.9 18 1.2 18.4.9 1.5 5.2 0 11.9-4.2 17.6-11.1 20.5-13.3 19.2-14.5-.6-.6-8.3-4.8-17.1-9.2l-15.8-8.2zM941.5 348.1c-10.9 1.3-13.5 1.9-13.5 3 0 1.6 22.1 23.9 23.7 23.9.8 0 1.2.4.9.8-.3.5.9 2.2 2.7 3.8l3.2 2.9-2.9-3.3c-1.7-1.7-2.6-3.2-2.1-3.2.4 0 0-.9-1-2-1.4-1.6-1.5-2-.4-2 .8 0 2.1.6 2.8 1.2 1.1 1.1 1.3 1 .7-.2-.4-.8 0-.6.9.5 1.7 1.9 1.7 1.9 1.1-1.5-1.9-10.3-3.1-23.1-2.2-24 1.2-1.2-3.7-1.1-13.9.1M909.3 361.9c-7.9 5.3-15 10.1-15.9 10.6-1.4.9.6 2.6 12 9.8 7.6 4.8 14.1 8.7 14.6 8.7.4 0 1.3.7 2 1.5.8.9 2.1 1.3 3.4 1 1.4-.4 1.7-.3.8.3-1 .6-.2 1.6 2.7 3.5 2.2 1.5 4.2 2.7 4.5 2.7 1.2 0-2-8.8-3.8-10.2-1.1-1-1.5-1.8-.8-1.8.6 0 1.2-.9 1.2-2.1 0-1.1-.4-1.8-.8-1.5-1.2.7-3.8-1.2-2.9-2.1.5-.4 1.2-.1 1.6.6q.9 1.35 1.5.3c.6-1.1.2-4.4-2.9-21.2-.8-4.7-1.5-8.8-1.5-9.3 0-1.3-1.5-.5-15.7 9.2M928.3 358.1c.3 1.9 1.3 7.7 2.2 12.9 1.9 11.2 2.9 14 5.1 14 .9 0 2.2.7 2.8 1.6.9 1.2 1.7 1.3 4 .4 2.4-.9 2.7-1.4 2.2-3.8-.4-1.7-.3-2.2.2-1.4.7 1.1 1.1.8 1.6-1.1.3-1.4.8-3.1 1.1-3.9.3-.7-.5-1.9-1.7-2.7-2.3-1.4-2.3-1.4-.4.8 1.1 1.1 1.4 2.1.8 2.1-1.4 0-2.7-2-2.7-4.1 0-.9-3.6-5.4-7.9-9.9-7.6-8-7.9-8.2-7.3-4.9M965.3 387.7c.4.3.7 1.1.7 1.8 0 1.4 2.8 3 4.5 2.6.6-.2.6.1.2.5-.7.7 17 19.4 18.4 19.4.4 0 .9-2.8 1.3-6.3.4-3.4.9-7.7 1.3-9.6.6-3.3.5-3.3-2.6-2.6-2.5.5-3.5.3-4.5-1-1.1-1.5-1.6-1.6-3.5-.5-2 1-2.5.9-3.7-.8-.8-1.2-3.1-2.2-6-2.7-2.6-.3-5.2-.8-5.8-.9-.6-.2-.8-.1-.3.1M1020.3 388.7c0 .7.4 1.3.9 1.3s.6.4.3 1c-.3.5-1.4 1-2.4 1-1.4 0-2.3 1.8-3.9 7.4-2 6.6-2.7 10.5-1.9 10.6.1 0 4.4.9 9.5 1.9s9.4 1.5 9.6 1.2c.5-.8-3.3-18.9-4.6-22-.6-1.4-1.1-2.9-1-3.3.1-.3-1.3-.6-3.2-.5-1.8.1-3.3.7-3.3 1.4M962.4 391.5c2.1 8.8 5 16.6 6.5 17.4 2 1.1 16.2 4.3 16.7 3.8.2-.2-5.1-5.7-11.8-12.3-10.2-10.1-12-11.4-11.4-8.9M1004.5 389.9c.8 1.4-.9 2.1-4.9 2.3-4.1.1-4 .5 2.3 7 5.7 6.1 7.6 9.4 2.5 4.7-7.1-6.7-9.7-8.9-10-8.7-.4.4-3.4 18.1-3.1 18.4.1.1 4.1-.5 8.9-1.3 7.3-1.4 8.7-1.9 9.2-3.7.7-2.7-2.1-16-3.3-16.4-.6-.2-.7-1-.4-1.8s0-1.4-.7-1.4c-.6 0-.9.4-.5.9M946.3 395.3c-4.6 2.8-8.3 5.4-8.3 5.8 0 .7 26.1 7.1 26.7 6.5.2-.2-.3-2.1-1.1-4.1-.9-2.1-1.6-4.4-1.6-5.2s-.7-3-1.6-4.9c-2.2-4.7-4.3-4.4-14.1 1.9M1070.3 399.7c3.4 12.3 7.3 23.1 8 22.6.6-.3.7-.2.4.4-.3.5.6 4.7 2 9.3 1.7 5.8 2.8 7.9 3.4 6.9q.9-1.5.9 1.8c0 3.8.5 4.1 4.7 3.4l3.3-.6-4.3-8.5c-2.4-4.7-6-11.4-8.1-15s-3.8-7.4-3.9-8.5c0-1.1-.5-2.6-1-3.3-.6-.7-.7-1.5-.4-1.9.8-.8-2.1-6.3-3.4-6.3-.6 0-.7-.5-.4-1 .3-.6.1-1-.6-1-.6 0-.9.8-.6 1.7M1025.1 432.3c-3.5 5.6-9.3 14.5-12.8 19.8l-6.4 9.6.6 5.9c.4 3.2 1.5 9.6 2.6 14.2 1 4.6 1.9 9.4 1.9 10.8 0 1.3.4 2.4.9 2.4.8 0 1.5-2.3 4.1-14 .4-1.9 2.4-8.9 4.4-15.6 1.9-6.6 5.1-18.1 7-25.5s3.8-14.4 4.2-15.7c.3-1.2.5-2.2.3-2.2s-3.3 4.7-6.8 10.3M1028.1 443.3c-5.6 19.8-9.1 33.4-9.1 36.2 0 1.7 1.8 8.7 4 15.5 2.2 6.9 4.3 14 4.6 15.9 1.1 5.6 2.2 1.6 3.4-12 .6-6.8 1.4-16.9 1.9-22.4.5-5.9.5-12.1 0-15-.5-2.8-1.2-9.7-1.4-15.4-.3-5.7-.6-10.5-.8-10.7-.1-.2-1.3 3.4-2.6 7.9M1059.5 447.7c-11 .4-13.8.9-13.2 2.7.3.8.1 1.8-.5 2.4-.8.8.6 1.8 4.7 3.6 7 3.1 7.5 3.2 12.8.5 5-2.5 15.7-9 15.7-9.5 0-.2-2.4-.3-5.2-.2-2.9.1-9.3.3-14.3.5M994.6 475.1c-4.7 5.5-8.6 10.4-8.6 10.7 0 .9 22.3 12.2 23.9 12.2.7 0 1.1-.8.8-1.8-.2-.9-1.7-8.3-3.3-16.5-1.6-8.1-3.1-14.7-3.5-14.7s-4.5 4.5-9.3 10.1M1034.6 480.1c-.3 4.1-1 13.1-1.6 20.2-.5 7-1 13.4-1 14.2 0 1.1 9.4-4.4 16.5-9.8.6-.5.3-1.4-1-2.5-1.1-.9-2.1-3-2.3-4.5-.3-3.1-7.7-22.6-9.1-24-.5-.5-1.1 2.1-1.5 6.4M1015.1 492c-1.2 3.9-1.9 7.6-1.5 8.3 1.2 2 12.6 14.8 13 14.5.6-.7-8.3-29.8-9.1-29.8-.2 0-1.3 3.2-2.4 7"/><path d="M1009.5 504.9c-1.1 1.6-4.6 5.9-7.7 9.7-3.2 3.7-5.8 7.2-5.8 7.7 0 .6 2 .7 4.8.3 2.6-.3 8.8-.8 13.7-1l9-.5-9 1c-4.9.5-9.4 1.1-10 1.2-2 .7 15.4 2.6 29.5 3.3 12.7.6 14.3.5 13.2-.8-1-1.3-.9-1.5 1-1.2 1.8.3 3.1-.7 5.8-4.3 6.5-8.8 6.5-8.7 1.9-12.4-2.9-2.3-4.5-3-5.5-2.3-.7.5-5.3 3.6-10.3 6.9-4.9 3.3-9 6.3-9 6.6-.1.3 1.4 1.1 3.2 1.7 1.9.7 2.2 1 .7.7-1.4-.3-4.5-.5-7-.6s-3.7-.3-2.7-.6c1.7-.5 2.4-3.3.8-3.3-.6 0-3.1-2.8-5.8-6.3-7.8-10.1-7.8-10.2-10.8-5.8M300 200.2c-6.9 4.4-12.6 8.4-12.8 8.9s-.8.9-1.4.9c-2.3 0-13.7 8.3-14.2 10.3-.5 2.2-.8 30.8-.3 35.9.2 2.7 10.3 15.6 12.2 15.7 1.4.1 12.5-22.3 12.5-25.2 0-1.6-2-4.1-6.6-8.1-6.1-5.5-6.6-5.7-7.9-4-1.6 2.1-2 .8-.5-1.6.7-1.1-.3-2.8-4.3-6.9-5.1-5.4-5.1-5.4-.7-1.6 2.5 2.1 5 4.5 5.5 5.2 1.1 1.5 6.4-4.5 20.2-22.7 4-5.2 8.2-10.5 9.4-11.8 1.1-1.3 1.9-2.5 1.8-2.7-.2-.2-6 3.3-12.9 7.7M313.1 200.2c-1.3 4-3.1 10-4.1 13.3-3.2 10.4-9 30-9 30.6 0 .3 4.8-.3 10.8-1.3 5.9-1.1 12.3-2.2 14.2-2.5 1.9-.2 3.8-.8 4.2-1.1.3-.4-.4-4.1-1.7-8.2-1.2-4.1-3.5-12-5-17.4-2.9-10.4-5.8-19.3-6.7-20.1-.3-.3-1.5 2.7-2.7 6.7"/><path d="M302.9 207.2c-5.1 6.8-11.4 14.8-14.1 17.9-2.6 3.1-4.8 6-4.8 6.5 0 .9 12.2 12.3 13.2 12.4 1.1 0 16.4-47.8 15.5-48.7-.3-.2-4.7 5.1-9.8 11.9M260.5 293.2c.4 1.3 2.3 7.2 4.3 13.2l3.5 10.8 4.6-.6c2.5-.4 7.9-.9 11.9-1.3 4-.3 7.5-.9 7.7-1.3.3-.5-3.7-3.6-8.8-7.1-5-3.5-11.2-7.8-13.6-9.7-2.4-1.8-5.7-4-7.3-4.8-2.9-1.5-3-1.5-2.3.8M280.8 316.8c-6.5.8-11.8 1.9-11.8 2.4s1.1 2.8 2.4 5.1c5 8.8 12.8 22.2 13.1 22.5.2.2 1-.9 1.8-2.5l1.6-2.8-.6 4.2-.5 4.2 5.3 1.5c4.5 1.4 10.9 2.1 10.9 1.3 0-.1-.7-4-1.5-8.7-2.1-11.9-1.7-13.5.6-2.1 1 5.2 2.2 9.8 2.7 10.3.4.4 6.2-2.3 12.8-6.2 16-9.4 15.2-8.8 13.4-10-5.9-3.9-31.7-18.9-32.6-19-.7 0-1 1.2-.8 2.7.4 2.4.2 2.3-.9-.7-.8-1.9-2-3.6-2.8-3.6-.8-.1-6.7.5-13.1 1.4M287.9 352.9c-.4 1.8.5 4.8 1.8 6.3 1.3 1.4 1.1 2.1-1.6 5.8-2.7 3.8-6 14.4-4.8 15.7.9.8 18.7-23.5 18.7-25.5 0-1-13.9-3.2-14.1-2.3M252.3 376.5c-1.3 1.9-2.3 3.7-2.3 4.1 0 .3-5.8 12.2-13 26.5-7.1 14.2-12.6 25.9-12.3 25.9s7.7-4.8 16.5-10.6c11.9-8 15.8-11.1 15.9-12.8.5-8.4-.5-32.3-1.3-33.3-.5-.7-.7-1.7-.3-2.3.3-.5.3-1-.2-1-.4 0-1.8 1.6-3 3.5M247 420c-5.2 3.7-12.5 8.7-16.2 11-3.8 2.2-6.8 4.5-6.8 4.9 0 .5 3.9 1.2 8.8 1.5 4.8.4 12 .9 15.9 1.2 7.2.6 7.3.6 8.3-2 1.1-3.1 1.4-23.6.3-23.6-.5.1-5.1 3.2-10.3 7M222.6 438.9c-.3.5.1 3.2 1 6l1.5 5.1h10.4l-3.5-2.8c-9.7-7.6-10.9-9.8-1.5-2.7 3.3 2.5 6.6 4.5 7.3 4.5s5-1.9 9.5-4.2l8.2-4.3-14-1.2c-18-1.5-18.3-1.5-18.9-.4M253.7 459.3c-1.4.9-1.6 2-1.1 4.6.7 3.3.8 3.3 1.6 1.1.5-1.2 1.1-2.1 1.3-1.8.3.3-1.3 5.9-3.5 12.5-4.4 13.4-4.5 13.9-2.7 15.7.6.8 2.2 2.6 3.5 4.1s2.5 2.5 2.7 2.3c.8-.8 1.6-39.8.7-39.8-.4 0-1.6.6-2.5 1.3M392.7 527.2c.6.7 3.6 4.8 6.7 9 3.1 4.3 6 7.8 6.4 7.8s3.1-2.2 6.1-5c2.9-2.7 5.9-5.1 6.5-5.3 1.1-.4-9.1-3.7-11.6-3.7-.7 0-4-.9-7.2-2-7-2.4-8.2-2.5-6.9-.8M421.3 538.3c-1.3 1.6-4.8 11.6-4.2 12 1 .9 19.6 6.9 21.9 7 2.4.2 2.5 0 2.6-6.8.1-8.4-.8-10.5-4.4-10.5-1.5 0-4.3-.4-6.2-.9-7.6-2-8.8-2.1-9.7-.8M436.6 603.1c6 6 11.4 10.9 12 10.9 1.1 0 3.4-11.3 3.4-16.9v-2.9l-8.7-.6c-4.9-.4-10.8-.8-13.2-1l-4.3-.4z"/></svg>