<svg xmlns="http://www.w3.org/2000/svg" width="1706.667" height="960" viewBox="0 0 1280 720"><path d="M0 360v360h319.1c302.8 0 319.2-.1 320.5-1.8.7-.9 1.4-2.5 1.4-3.4s.5-2 1-2.3c.7-.4.8.8.4 3.4l-.7 4.1h5.8c6.9 0 6.3.5 17.1-16 4.3-6.6 8-11.8 8.2-11.6.2.3-.3 1.7-1.2 3.3-.8 1.5-2 4-2.7 5.6-.6 1.5-1.5 2.7-1.9 2.7s-1.5 1.5-2.4 3.2c-2.1 4.2-3.8 6.9-5.3 8.6-1.6 1.6-1.7 2.6-.3 1.7.6-.3 1 .1 1 .9 0 1.7 5.2 2.1 12.3 1 3.5-.6 3.7-.9 3.2-3.3-.4-2.1 0-2.9 2.2-4.2 3.6-2 9.3-2.4 9.3-.6 0 .7.9 2 2 3 1.1.9 2 2.6 2 3.7 0 1.8.7 2 6.9 2 4.9 0 7-.4 7.4-1.4.7-1.7-5.7-8.1-7.1-7.2-.6.3-1.4.1-1.8-.5-.4-.8-.3-.9.4-.5 2.6 1.6.9-1.3-2.5-4.5-2.1-1.8-7.2-6.5-11.3-10.5-7-6.6-7.6-7.4-7.7-11.5l-.2-4.4 1.7 4.9c1.5 4.2 4.2 7.1 18.3 20.2 15.7 14.7 16.6 15.4 20.6 15.4 2.4 0 4.3-.5 4.6-1.3q.6-1.35.6 0c.1 1 56.7 1.3 279.6 1.3H1280V0H0zM480.5 51l-2 .8 2 .8c12.5 4.7 13.4 6.3 1.2 2-4.6-1.6-6.9-2-7.4-1.3-1.1 1.8-1.4 52.7-.3 52.8.6.1 1.6.2 2.3.3 1.4.2 26.5-10.4 40.5-17 5.3-2.6 14-6.7 19.2-9.1 10.7-5.1 10.7-5-1.5-8.3-4.3-1.1-11-3.2-14.9-4.6s-11.7-4.2-17.4-6.1-10.1-3.7-9.9-3.9 7.1 1.9 15.3 4.7 19.4 6.3 24.9 7.9c5.5 1.5 11.2 3.3 12.8 4 2.1 1 3.3 1.1 5.2.2 3.5-1.6 4.3-1.5 2 .2-1.8 1.3-1.7 1.4 1.1 2.9 1.6.8 10.1 4.2 18.9 7.5s17.9 6.8 20.3 7.8c3.7 1.5 4.5 1.6 5.3.3.7-1.1.9-1.1.9.3 0 1 .6 1.8 1.4 1.8s1.6.4 1.8.8c.9 2.2 43.9 24.4 45.1 23.2.4-.4.4-3.3-.1-6.6-.5-3.2-.6-7.9-.2-10.4.7-4.3.8-4.4.9-1 .7 13.6 1.4 19.5 2.1 19.8.5.2.7.9.4 1.6s2.5 5.9 6 11.7c12.6 20.2 21.2 34.9 20.2 34.9-.3 0-2.2-3-4.3-6.8-2-3.7-5.3-9.3-7.3-12.4-11.3-18.4-15.5-24.8-16.1-24.8-.3 0-2.8 6.4-5.4 14.2-4.6 14-13.8 38.3-17.4 46.3-1.1 2.2-2.8 6.9-4 10.4-1.8 5.2-1.9 6.6-.9 7.9 1 1.2 1 1.6.1 1.9-.7.3-1.3 1.4-1.3 2.6 0 2.6-1.2 1.5-1.5-1.5-.1-1.3-.3-2.8-.4-3.4-.2-2.2-3-2.3-16.8-.9-7.6.8-15.5 1.5-17.6 1.5-3.2 0-3.8.3-3.4 1.7 1.4 5 1.8 10.1 5.6 67 .6 10.1 1.7 14.6 2.7 11.8.5-1.4 7.8-21.9 11.9-33.6 1.9-5.3 4.8-12.5 6.4-16.1 1.7-3.6 4.1-10.8 5.5-16 1.3-5.3 2.9-10.4 3.5-11.4 2.4-4.3 1 4.3-2.3 13.6-4.4 12.5-10.5 28.5-12.6 33.5-.9 2.2-3.6 9.4-5.9 16s-4.9 13.3-5.7 14.8c-2 4-1.9 4.1 3.2 8.9 2.6 2.4 6.9 6.4 9.7 9 2.8 2.7 5.7 4.8 6.5 4.8 1.5 0 10.7 8.8 10 9.5-.2.3-2-.9-3.9-2.5s-4-2.9-4.7-3c-.7 0-5.2-4.1-9.9-9.1-11.8-12.3-12-12.4-16.3-5.9-3.5 5.1-4 5.2-1.4.2 1.8-3.4 2.4-5.6 1.8-6.2-.7-.7-6.1-.7-15.5 0-7.9.5-16.4 1-18.8 1-3.4 0-4.2.3-3.7 1.5.4 1.2-.1 1-2.2-.4-1.5-1.1-6.3-2.7-10.7-3.5s-10.6-2.2-13.7-2.9c-5.4-1.4-5.8-1.3-5.8.4 0 1 .4 2 .9 2.3.5.4 2.6 3.6 4.6 7.4 4.7 8.5 8.4 13.4 9.6 12.7.5-.4.9.1.9 1.1 0 1.4.4 1.2 2.3-.8 1.2-1.3 3.5-4.3 5.1-6.6s3-4.2 3.2-4.2-1.2 2.9-3 6.4-3.1 6.8-2.7 7.2c.6.8 2.8 2.2 7.6 4.8 3.1 1.7 7.6 6.6 7 7.7-.4.5.1.9.9.9.9 0 1.6.4 1.6.9 0 .4 2.1 1.6 4.7 2.6l4.7 1.8 3.3-3.8c1.8-2.1 3.3-4.3 3.3-4.9s1-2.2 2.1-3.6c1.5-1.8 1.3-1.1-.7 2.5-4.8 8.9-5.4 10-5.4 10.6 0 .4 3 1.4 6.8 2.2 17.2 4 20.5 4.5 22.9 3.6 3.4-1.3 3.7-1.1 2.2.7-1.2 1.5-.2 2.8 9.1 11.5 5.8 5.5 10.2 9.9 9.9 9.9-.6 0-1.9-1.1-13.3-11.7-6.8-6.3-9.3-7.4-8.9-3.7.3 1.8-2.7 20.5-4.7 30.4-.5 2.5-1.2 6.7-1.6 9.5-.4 2.7-1.1 5.6-1.7 6.3-2.7 3.3 4.9-1.4 19.5-12.3 12.9-9.5 15.9-12.2 15.4-13.8-.4-1.5-.1-1.8 1.5-1.4 1.5.4 4.2-1.4 10.2-6.6 4.5-3.9 8.4-7.4 8.7-7.7s3.2-3 6.5-6c6.4-5.9 11.8-12.5 19.2-23.3 4.6-6.7 6.4-8.6 4.2-4.5-1.3 2.5-7.5 11.5-11.1 16.2l-2.2 2.9 3.9-.6c4-.6 3.9-.6-1.6 2.1-3.4 1.6-9.7 6.5-16 12.3-5.7 5.3-12.4 11.5-14.9 13.8-4.4 4-4.4 4.2-2.5 5.6 1.8 1.4 1.7 1.5-1.3.9-2.7-.5-3.2-.4-3.2 1.2 0 1.1-.7 3.9-1.5 6.4s-2.4 7.2-3.4 10.5c-1.1 3.3-2 5.1-2 4s1.3-6.1 2.8-11c1.6-5 2.7-9.3 2.4-9.8-.2-.4-3.2 1.5-6.6 4.3s-10.9 8.4-16.6 12.6l-10.5 7.6 2.5 1.9 2.4 1.9-3.1-1.2c-3.4-1.2-9.7 0-25.4 4.8-4.7 1.5-10.3 3-12.5 3.4-9.4 1.8-23.7 5-24.5 5.5-.5.3-.7 1.2-.3 2 .4 1.1.1 1.3-1.1.9-1-.4-2.4.3-3.6 1.7l-2 2.4 1.5-3c.8-1.6 1.1-3.2.7-3.6-.8-.8-25-3.9-29.9-3.9-1.8 0-3.3.4-3.3.9 0 1.3 20.9 21.1 22.3 21.1.6 0 2.7-2.5 4.6-5.5 1.9-3.1 3.6-5.3 3.9-5.1.3.3-1.2 2.9-3.2 5.8s-3.6 5.8-3.6 6.4c0 .7 1.6 1.9 3.6 2.9 4.6 2.2 3.9 3-.9 1-3.5-1.5-3.7-1.4-6.3 1.3l-2.6 2.7 1.8-3.3 1.9-3.3-11.9-11.4c-6.6-6.3-12.1-11.3-12.4-11.1-.2.3.2 5.4.8 11.4 1.8 15.7.7 16.1-1.5.5-.9-7.2-2.1-13.6-2.5-14.3-.6-.9-3.8-.9-14.1 0-7.4.7-15.6 1.4-18.4 1.5-6.5.4-6.5.4-6.5 1.2s1.1 2.1 15.4 17.8c13.5 14.9 20.9 22.8 25.1 26.8l4 3.9.5-2.9c.3-1.5.2-4.8-.2-7.3s-.7-5.9-.6-7.5c.1-4.9 2.1 6.2 2.2 12.1.1 4 .4 5 1.5 4.6.9-.3 1.2-.1.7.6-1.3 2.2 1.2 2.1 8.3-.3 4-1.4 7.8-2.5 8.4-2.5 1.6.1-13.4 6-15 6-.7 0-1.3.6-1.3 1.2 0 1.4 19.3 20.4 22.3 21.9 1.4.8 2.2.1 4.5-3.7 1.5-2.5 3.4-5.4 4.2-6.3s1.2-1.2.8-.6c-2.9 4.7-7.7 14.9-7.2 15.7.3.5-.5.6-2 .2-2-.5-6.4 1.2-18.8 7.1-9 4.2-16.5 7.9-16.7 8.1s.8 2.3 2.3 4.6l2.7 4.3-3.3-3.8c-1.8-2-3.8-3.7-4.4-3.7-1.8 0-23.9 18.1-23.6 19.2.2.6-.5.8-1.4.4-.9-.3-2.4-.1-3.3.6-1.4 1.1-1.4 1.1-.3-.3 1.7-2.2.9-2.7-11.8-7.9-5.8-2.3-11.9-5-13.5-6-2.9-1.8-3.2-1.8-9.5.1-3.6 1.1-7.4 2.5-8.6 3.1-1.6.7-3.2.3-7.8-2.1-3.1-1.7-6.2-3.1-6.9-3.1-.9 0-1.2-2.8-1.3-9.8-.1-5.3 0-8.1.3-6.2.5 5.3 1.3 8 2.1 8 .9 0 3.2-8 3.2-11.3 0-3.2 2-9.7 2.9-9.7.5 0 .5 1.7 0 3.7-.5 2.1-.9 5.5-.9 7.7v3.9l1.9-2.4c1-1.3 2.1-3.3 2.5-4.4.3-1.1 1.7-3.2 3.1-4.7s2.5-3.5 2.5-4.4c0-1.4.3-1.4 1.6-.3 2.1 1.7 4.8 7 4.6 8.9-.1 1 .1 1.1.4.2.3-.6 1.4-1.2 2.5-1.2 1.6 0 1.9-.8 2-5.3.1-2.8.1-5.7 0-6.4s1.5-1.5 3.6-1.9 4.9-1.1 6.3-1.7c1.4-.5 3.9-.9 5.5-.9 2.8.1 2.8.1.5-.6s-2.1-.9 2.1-2.5c2.4-.9 5.8-1.7 7.5-1.7 1.6 0 3.6-.6 4.3-1.3 1.1-1 1.3-.9.8.5-.4 1-.2 1.8.3 1.8.6 0 1-.5 1-1.2 0-.9.3-.9 1.2 0 .7.7 2.5 1.2 4 1.2s2.8.4 2.8 1c0 .5.5 1 1 1 .6 0 1-.6 1-1.3 0-2.7-5.1-17-8.5-23.9-1.9-3.9-3.5-7.9-3.6-8.7q0-1.5-.9.6c-.5 1.3-.5 3.5.1 5.5.5 1.8.9 3.6.9 3.9 0 1.1-3.8 1.7-4.7.9-1-1-37.1-3.5-37.9-2.7-.8.7 3 4.6 7.9 8.2 2.1 1.5 3.5 3 3.3 3.3-.3.2-1.8-.5-3.3-1.7-8.1-6.4-12.3-9.1-12.3-8.1 0 .7-.8.9-1.9.5-1.4-.4-2.1 0-2.5 1.3-.4 1.1-1.6 2.8-2.8 3.8l-2.1 1.9 2.1-4.1 2.1-4.1-11-1.2c-6-.6-11.4-.9-11.9-.6-1.4.8-1.3.4 1-4.3 1.1-2.2 2-5 2-6.1s.4-2.2.9-2.5c.4-.3 1.1-2 1.5-3.8s2-6.8 3.7-11.2c1.6-4.3 2.9-7.9 2.7-8.1-.6-.4-21-2.6-21.3-2.3-.2.2-.5 2.9-.8 6.1-.5 6.4-1.9 9.4-1.6 3.2.3-4.7-.7-8.1-2.4-8.8-1.7-.6-24 2.3-25.1 3.3-.8.8 7.2 19 8.4 19 .4 0 2.6-2.3 4.9-5 3.2-3.8 4.1-5.7 3.7-7.3-.4-1.7.2-2.7 2.7-4.2 4.4-2.7 5.6-3 3.1-.8-1.2 1.1-2.5 3-2.9 4.4-.4 1.3-2.2 4-3.9 6-7.6 8.8-7.3 7.5-3.7 14.3 1.7 3.4 4.5 8.5 6.2 11.3 1.7 2.9 2.6 5.3 2 5.3s-1.7-1.5-2.5-3.3c-.7-1.7-2.3-4.2-3.4-5.3-2.2-2.3-6.2-9.6-8.4-15.4-1.4-3.5-4.3-9.4-9.7-19.3-3.8-7.1-3.9-8-.5-4.4 1.9 2.1 3.2 2.7 5.2 2.3 1.5-.2 5.2-.9 8.2-1.5 3-.5 7.7-1.2 10.3-1.6l4.8-.6-2.6-3.4c-3-4-13.5-14.1-14.3-13.8-.3.1-1.6 2.8-2.9 6s-2.8 6.7-3.3 7.8c-.4 1.1-1.1 2.9-1.4 3.9-.4 1-.9 1.6-1.2 1.3-.4-.3.8-4.7 2.5-9.8 1.8-5.1 3-9.8 2.7-10.6-.3-.7-1.6-1.3-2.9-1.3-1.4 0-4.2-.7-6.3-1.6-3.7-1.5-3.7-1.7-1.9-3 1.6-1.2 2.1-1.2 2.4-.2.2.7.9 1.6 1.5 2 1.5 1.1 7.6 1 7.6 0 0-.5-1.6-2.6-3.6-4.6-2.8-2.9-3.9-3.5-4.5-2.4-.6.9-.9.6-1-1.2-.1-1.7-.3-1.9-.6-.8-.6 2.5-1.9 2.2-2.8-.5-.6-2.1-.7-2.1-1.6.8-2.1 6.1-1.1 13.5 2.7 21.3 2 4 3.4 7.6 3.1 7.9-.4.3-1.7-1.9-3-4.9-3-6.7-4.3-7.7-4.9-3.7-.3 1.6-.1 3.2.2 3.4 1.2.7 1.8 5.5.9 6.1-.5.3-1.2-.9-1.6-2.7-.5-2.8-.7-3-1.4-1.4-.5 1.4-.8.5-.9-3-.2-2.8-.2-5.3-.1-5.8 0-.4-.8-.7-2-.7s-1.7-.4-1.4-1.1c.4-.6 1.3-.8 1.9-.6.9.4 1.1-1.7.8-8.6-.4-7.9-.5-25.9-.2-32.2.1-2.5-1.5-15.1-2.5-18.8-.9-3.4.3-3.5 3.1-.2l2.1 2.5 1.2-2.7c.6-1.6 1-4.7.8-7-.1-2.3 0-3.9.3-3.6.3.2 1-1.7 1.7-4.4l1.1-4.8.1 5.3c.1 6.1 1.2 7 6.5 5.2 3.3-1 7.6-4.1 7.6-5.3 0-.4-2.6-3.7-5.7-7.4-9.2-10.8-9.2-11.4-.2-2.5 7.6 7.3 8.9 8.2 11.2 7.7 1.9-.5 2.7-.3 2.7.6 0 .8.6.5 1.4-.6.9-1.3 1.1-2.7.5-4.2-1.4-3.6.9-2.8 3.2 1.2 1.2 2 2.6 3.5 3.3 3.4.6-.1 2.4.3 3.9.9 1.6.7 3.6 1.2 4.6 1.2.9 0 2.3.6 3.1 1.2 1.2 1.1 1.2 1 .1-.4-1.6-2.2-16.3-10.8-18.3-10.8-.8 0-2.3-.9-3.4-2.1-3.3-3.6-20.4-10.4-24.1-9.4-2.3.5-2.3.4-.9-1.7 1.6-2.5 3.2-8.2 4.1-14.3.3-2.2.8-5.5 1.1-7.4.5-2.2.3-3.2-.4-2.7-1.6 1 1.1-7 3.4-9.9 1.2-1.4 3.4-5.2 5-8.5s3.2-6 3.6-6c1.2 0-2.7 9.2-6.3 14.8-1.2 2-1.2 2.4.1 3.2.8.5 4 2.7 7 5l5.5 4.1.3-7.3c.4-7.5-1.4-20.4-3.1-22.5-1-1.3-.6-5.7 1.1-13.3.6-2.5 2-10.6 3.2-18 2-12.2 4.8-24.3 4.9-21.3.1.7-.8 5.8-1.8 11.5-1.7 8.8-3.2 18.7-4.6 31.3-.3 2.1 1.5 6.7 6 16 3.5 7.1 7.7 16.3 9.5 20.3 1.7 4 4.2 8.9 5.5 10.9 1.4 2 2.5 4.2 2.5 4.9 0 2.4 2.8.4 3.4-2.4.3-1.5 1.2-5.9 2.1-9.8.8-3.9 1.7-12 2-18s1-13.7 1.6-17.2c.7-3.7.8-6.7.3-7.2s-2.6-.5-4.7 0c-2.1.4-8.2 1.1-13.5 1.4l-9.7.5 6.5-1.4c3.6-.7 9.6-1.6 13.5-1.9 3.8-.4 7.3-1 7.8-1.5.8-.8-1.1-6.1-2.3-6.1-.9 0-18.9-37.1-19.5-40-.8-4.3-2.3-4.1-2.7.4-.1 1.4-1.5 3.8-3 5.1-3.1 2.8-3.6 1.9-1.3-2.5.9-1.7 1.3-3 1.1-3-.6 0 1.8-5.8 5.5-13.4 1.6-3.2 4.7-11.1 6.9-17.5 5.4-16 6.6-18.6 9.7-21.5 3.5-3.3 4.2-2.6.9.8-2.4 2.7-8.8 17.2-10.5 24.3-1.5 6-4.2 12.7-5.3 13.4-1.7 1.1-1.9 8.9-.4 11.8.8 1.4 2.3 4.9 3.5 7.7 3.4 8.5 16.1 34.2 17.5 35.3 1 .9 1.7-1.3 3.5-10.2 1.2-6.1 2.5-14.2 3-17.9 1.4-9.9 7.1-45.4 8.5-51.8l1.1-5.5.3 6.4c.2 3.5-.2 7.7-.8 9.2-.7 1.6-.9 4.5-.5 7.2.5 3.2.2 5.3-.9 7.5-1.5 3-4.1 14-5.2 22.3-.3 2.4-1.4 9.9-2.5 16.6-1 6.8-1.9 13.6-1.9 15.2v2.9l6.1-4c3.3-2.3 6.3-4.7 6.6-5.4.3-.8.9-1.2 1.3-.9 1 .6 11.7-6.5 14.7-9.7 1.9-2 2.1-2.9 1.3-5.4-1.1-3-6.2-23.5-8.6-33.9-.7-3.3-1.3-7.2-1.4-8.8 0-1.5-.5-2.7-1.1-2.7s-.9-.6-.6-1.3-.4-6.2-1.4-12.2c-1-6.1-1.9-11.7-1.9-12.5-.2-2.7-1.9 2.3-1.9 5.7-.1 1.8-.6 3.3-1.1 3.3-.9 0-.7-2.7.6-6.8.9-2.9-1.4-.7-6.1 5.9-5.9 8.4-13.5 16.9-13.5 15.1 0-.7 2.6-4.4 5.8-8.2 11.5-13.7 14.2-17.2 14.2-18.7 0-.8-.5-1.1-1.2-.7s-.3-.3 1-1.5c1.2-1.2 2.2-2.6 2.2-3.1 0-.6.6-1 1.3-1 .6 0 5-3 9.7-6.7 12.8-10.1 40.4-32.5 41.5-33.7 2.8-3 18.7-15.7 19.1-15.3.3.3-1.4 2.1-3.8 4-2.4 2-6.8 5.6-9.8 8.1-3 2.6-9.8 8.2-15.1 12.6-5.3 4.3-10.3 8.5-11 9.2-.8.8-7 5.9-13.9 11.3-6.8 5.5-13.1 10.6-14 11.3-1.6 1.4-2 1.4 41-.8 25.5-1.3 28.8-1.7 30.1-4.1.5-1.1 1.3-13.6 1.7-28.4.7-26.2.7-26.5-1.3-25.9-1.1.4-2.7.9-3.5 1.1-.8.3.3-.7 2.5-2.1 2.9-1.9 5.3-2.6 8.5-2.5 3.3 0 4 .3 2.5.9m440.7 50c3.8 1.6 8.1 3 9.4 3s2.4.4 2.4.8c0 .5 4.8 3.4 10.8 6.5 35.9 18.7 56.4 30.1 55.1 30.5-.5.2-4-1.4-7.7-3.6-3.7-2.1-9.8-5.5-13.7-7.4-3.8-2-11.7-6.1-17.5-9.3-19.6-10.7-23-12.6-25.7-13.6l-2.7-1 1.9 2.2c1.1 1.2 3.8 3.9 6 5.8 4.4 4 3.8 3.5 15.3 15.4 4.5 4.8 8.2 9.1 8.2 9.6s1 1.3 2.3 1.7c3.8 1.2 35.7 3 36.7 2 .5-.5.2-2-.8-3.5-1.1-1.7-.2-1.2 2.5 1.5 2.2 2.3 4.6 5.9 5.3 8s5.9 12.9 11.5 24c5.6 11.2 11 22.1 11.9 24.4 3.2 8.1 10.9 24 11.6 24 .4 0 .6-1 .5-2.3-.1-1.2-.6-8.1-.9-15.2-.4-7.2-1.2-17.7-1.8-23.5-.5-5.8-1-12.7-.9-15.3.2-6.2-1.6-12.7-3.4-12.7-.7 0-1.5-.6-1.7-1.3-.3-1.2-11.9-11.9-20.8-19.1-1.9-1.6-6-5.1-9-8-3.1-2.8-10.3-9.1-16-14-11.4-9.7-15.3-13.3-13-12 1.8.9 17.6 14.4 31 26.4 5.2 4.7 14.8 12.9 21.2 18.4 10.4 8.7 11.9 10.4 13.4 14.9.9 2.7 1.6 6.1 1.6 7.6 0 1.4 1.3 7.7 2.9 13.8 4.9 18.5 13 56.9 12.8 60.8-.1 1.1-1-2.3-2-7.5-5.4-26.5-10.2-47.1-14.5-61l-1.4-4.5.5 4c.2 2.2.9 11.6 1.5 21 1.7 25 2.6 34.8 3.5 37 .8 1.8.7 1.9-.8.6-1-.8-1.8-1.2-2-1-.6 1.1-3 5-6.2 10.3-2 3.2-3.2 6.3-2.8 6.7s4.6 1.3 9.3 1.9 10 1.3 11.8 1.6c1.7.3 3.2.2 3.2-.1 0-.4-1.3-2.5-2.8-4.8-5.4-7.9-4.1-7.8 1.7.1 1.8 2.4 2 2.5 2.1.7 0-1.1.4-6.5.9-12l.8-10 .2 7.5c.1 4.1.2 10.3.1 13.7-.1 5 .2 6.3 1.7 7.2 1.7 1 1.7 1 0 1.1-2 0-2 2.2.5 33.4l1.2 14.9 3-3.6c3.2-3.7 6.6-13 6.7-18.2 0-2.5.2-2.7.8-1 .5 1.1 1.1 4 1.4 6.5s.3 3.7 0 2.7c-1-3.8-2.3-1.4-2.4 4.5 0 8.1-.8 19.9-1.4 21.5-.8 2.3 1.8 1.4 5.1-1.8 2.8-2.7 3.1-3.6 2.8-7.2l-.4-4.2 1.1 3.8c1.2 4 .5 9.2-1.1 8.2-.5-.3-3.3 1.7-6.2 4.5-2.9 2.7-5.6 5-5.9 5-1.1 0-9 7.2-10 9.1-1.7 3.3 4.2.8 6.4-2.7 2.9-4.5 4.1-4.3 2.2.2-2 4.9-1.9 5.1 1 2.4 1.4-1.3 2.5-2.8 2.5-3.3s.9-2 2-3.4c2.6-3.4 2.5-2.1-.2 2.7-1.3 2.1-1.9 4.2-1.6 4.6 1 1 3.8-1.5 3.8-3.5.1-.9.8-2.7 1.6-4.1 1.1-1.8 1.3-1.9.9-.5-.3 1.1-1.1 4-1.7 6.5-.5 2.5-1.6 5.8-2.4 7.5-2 4.3-3.4 9.5-2.5 9.5.4 0 .8.6.8 1.2.1 1.5 1 6.6 2.3 12.1.6 3 .5 3.7-.5 3.3-.9-.3-1.1.2-.8 1.5.3 1 0 1.9-.6 1.9s-1 .3-1 .7c.3 1.8-.2 3.6-.7 3-.4-.3-1.6.5-2.7 1.9-1.8 2.3-1.9 3.5-1.3 12.2.4 5.3 1.3 12.8 2.1 16.7 2.3 11.4 2.4 12.3 1.4 15.7-.5 1.8-.5 3.4-.1 3.7.4.4 1.3 2.4 2.1 4.6.7 2.2 3.1 7.7 5.2 12.1 2.2 4.5 3.9 8.6 3.9 9.1s-1.3.8-3 .5c-4.3-.6-8 .5-8 2.5 0 1.3-.3 1.4-1.1.6-1.5-1.5-25.1 10.6-24.4 12.4.4 1.2-2.3 1.8-6.5 1.4-.8-.1-3.6.3-6.2.8-2.7.4-4.8.5-4.8.1s2.6-1.1 5.8-1.6l5.7-1-9.2-4.7c-8.7-4.4-13.1-5.8-11.9-3.8.4.5.2 2-.3 3.3-.9 2.3-.9 2.3-1.6-.7-.3-1.7-1-4-1.5-5.2-.6-1.4-.6-2.5 0-2.8 1.1-.7 1.3-6.5.3-9.1-.8-2-5.7 12.6-10.4 31.1-2.9 11-3 12.4-1.9 17 1.1 4.4 4.7 14.2 8.3 22.7 1.3 3 2.3 3.6 2.5 1.5.1-.6.6-4.8 1.1-9.2s1.4-11.4 1.9-15.5c.6-4.1 1.4-10.4 1.7-14 .3-3.5.7-6.5.8-6.7.1-.1 3.8 1.6 8.2 3.9l8 4.1-.4 7.4c-.2 4.7.1 7.9.8 8.6.8.8 1.1.5 1.1-1.2 0-1.3.6-3.5 1.4-4.9.8-1.5 1.7-3.9 2-5.4.5-2 1.5-3 3.9-3.6 3-.8 3.2-.6 4.4 2.7.7 2 1.3 4.9 1.4 6.6.2 2.6.2 2.7.6.6.3-1.3 1.1-3.1 1.9-3.8.8-.8 1.4-2.8 1.4-4.4s.4-2.9 1-2.9c.5 0 .7.6.4 1.3-.5 1.4-1.1 13.5-1.3 27-.1 7-.3 7.7-1.6 6.3-.8-.8-1.5-2.1-1.5-2.9s-.7-3.1-1.5-5.1-1.8-8.2-2.1-13.8c-.4-5.7-.8-10.5-.9-10.6-.2-.2-1.3-.1-2.5.3-2.1.7-2.2 1.2-1.7 6.9.5 5.1.4 5.7-.6 3.4-1.5-3.7-2.7-3.5-2.8.4-.7 17.5-.7 17.2 1.4 19.6 2.5 2.7 5 3 4.4.4-.3-.9-.8-3.3-1.1-5.2s-.8-4.5-1-5.7c-.3-1.3-.1-2.3.4-2.3.4 0 1.1 1.8 1.4 4s.9 5.8 1.2 8c.4 2.5 1.1 4 2 4 .8 0 1.4.4 1.4.9 0 2.1-2.7 1.6-6.8-1.2-3.9-2.6-4.5-2.8-6-1.4-.9.8-3.9 2.7-6.7 4.3-2.7 1.5-7.2 4.2-9.9 6-4.9 3.3-4.9 3.3-2.5 4.4l2.4 1.1-2.5-.6c-1.4-.2-4.3-.5-6.5-.6s-3.2-.3-2.2-.6c.9-.2 1.7-.9 1.7-1.4 0-1.3-14.2-15.9-15.4-15.9-1.1 0-15.2 15.6-17 18.8-.8 1.3 0 1.4 6.5.9 4.1-.4 10.6-.8 14.4-1.1 6.2-.3 6-.3-1.7.7-4.9.5-8.8 1.3-8.8 1.6 0 .8 21.5 3 35.8 3.6 7.2.3 10.8.1 11.8-.8 4.9-4.2 7.4-6.9 7.4-8 0-.6.5-.4 1.1.6.8 1.4 1.4 1.6 2.5.6 2.2-1.8 2.7-.5.5 1.5-1.8 1.7-1.8 2-.3 7.4 1.2 4.2 1.3 5.7.4 6-.7.2-1.2 1-1.2 1.8 0 .9.5 1.2 1 .9 1.7-1.1 1.1 4.2-.7 5.6-1.5 1.3-1.5 1.2-.2-.8 1.1-1.8 1.1-2.5.1-3.5-.6-.6-1.2-2.7-1.2-4.6 0-2.8-1.2-6.4-2.6-8.1-.2-.2-1.5.8-3 2.4-2.4 2.6-2.5 3.2-2 9.9l.6 7.1-1.6-6c-.9-3.3-2-6.4-2.5-7-.6-.5-2.5.6-5.1 3l-4.2 4 3.3-3.9c3.9-4.6 3.4-5.2-5.2-6.2l-5.7-.7 2.1 6.2c1.8 5.4 2.3 6 3.7 4.9 1.3-1.1 1.4-1 .4.9-.9 1.7-.9 2.4 0 2.9 2.4 1.5-3.6 2.1-6.5.7-1.5-.8-5-1.7-7.6-2-4.4-.5-4.9-.4-5.5 1.8l-.8 2.4-.6-2.3c-.7-2.2-1-2.1-9.1 3.8-4.5 3.4-8.5 5.9-8.8 5.7-.2-.3 1.7-2 4.2-3.7 6.5-4.4 11.5-9 11.5-10.4 0-1.1-12-8.3-23-13.8-3-1.5-4.9-2.8-4.2-2.8 1.6 0 2.2-.5 11.7-11.5 4.2-4.8 7.4-9.2 7.2-9.8-.2-.7-2.1-2-4.3-3-5.4-2.6-19.4-10.9-20-11.9-.9-1.4.3-.9 5.6 2.2 2.8 1.6 5.4 3 5.7 3s2.7 1.3 5.2 2.9c8.1 4.9 8.6 4.9 10.9-1.1 4.3-11.2 4.6-12.7 2.5-15.1-1.1-1.2-3.5-4.7-5.4-7.7-2.1-3.3-3.5-4.8-3.7-3.9-.2 1.4 3.2 17.6 5.4 25.6.4 1.3.2 2.3-.2 2.3-.8 0-2.6-7.2-5.9-24-.7-3.6-1.4-6.7-1.4-7-.1-.3-2 1.5-4.3 4-2.2 2.5-7 7.6-10.5 11.4-3.4 3.7-6.3 7.2-6.3 7.7 0 2.4-1.8.5-2.3-2.4-.3-1.7-.8-4.1-1.2-5.2-.3-1.1.1-.8 1 .7.8 1.6 2 2.8 2.4 2.8 1.8 0 20.1-21 20.1-23 0-1.3.7-2 1.9-2 1.3 0 4.9-4.4 11.8-14.5 5.4-8 12-17.7 14.7-21.6 3.6-5.2 4.5-7.3 3.6-7.9-1.8-1.1-22.1-4.2-22.8-3.5-.4.3-1.4 5.4-2.3 11.3-1.7 10.6-2.4 9.1-1-2.1.4-3.1.5-5.7.2-5.7-.4 0-3.9 4.9-7.9 10.8-7.5 11-8 11.5-18.6 15.7-6.5 2.6-5.5 1.6 2.4-2.3 5.5-2.7 7.4-4.2 7.2-5.4q-.3-1.8 1.2-1.2c1 .4 3-1.9 6.5-7.4 2.8-4.3 6-8.7 7.1-9.7 4.3-3.8 2.5-4.3-8.2-2.4-5.7 1-10.5 1.9-10.7 1.9s-.1 1.7.2 3.7c.5 3.4.4 3.6-.6 1.3-1.5-3.4-1.5-3.4-3-2.1-1.2.9-1.3.7-1-1.1.4-2.2-.1-2.4-10.4-4-7.3-1.2-10.9-1.5-11.2-.7-.2.6-.8.3-1.5-.5-.6-.9-7.4-3.4-15.2-5.6-11.2-3.2-15.3-3.9-20-3.6-5.4.4-5.7.3-2.9-.8l3-1.2-4.5-3.3c-2.5-1.8-5.6-3.9-7-4.6s-8-5-14.7-9.4c-6.7-4.5-12.6-8.1-13.1-8.1-1.5 0 5.8 30.3 7.8 32.4.7.7 8.5-.7 22.5-4 1.5-.4 1.7-.3.5.4-.8.5-4 1.5-7 2.2-9.6 2.1-15 4.1-15 5.6 0 1.8-1.6 1.8-2.3 0-.5-1.2-4.2-1.4-22.9-1.1l-22.3.4 21.4-.9c11.8-.5 21.7-1.2 22.1-1.7.4-.4-.7-6.9-2.6-14.3-1.8-7.4-3.5-15.1-3.7-17-.2-2.1-1-3.6-1.9-3.8-.8-.2-13 2.2-27.1 5.3-14.2 3-26.5 5.5-27.5 5.4-2.2-.1 5.8-2.1 23.7-5.9 22.8-4.8 28.1-6.1 28.1-6.8 0-.4-1.9-1.9-4.2-3.4-2.4-1.4-11.9-7.8-21.2-14.2S819.1 343 818.3 343c-.7 0-1.3-.5-1.3-1 0-.6-1.2-1-2.7-1.1-2.2 0-2.4-.2-1-.8 1.6-.6.9-1.7-4.8-7.9-3.7-4-6.6-7.5-6.3-7.7.2-.2 3.4 3 7.2 7.2 5 5.7 10 9.7 19.2 15.7 6.8 4.5 16.7 11.1 22.1 14.7s10.9 7.2 12.1 7.8l2.4 1.3-.7-19.9c-.4-10.9-1.1-20.3-1.6-21-1.1-1.3-7.7-4.1-29.2-12.3-7.5-2.9-13.6-5.5-13.4-5.7.4-.3 7 2.1 32.4 11.8 5.6 2.1 10.6 3.9 11.1 3.9s1.2-5.3 1.5-11.8c.7-15 2.3-33.7 3.7-43.2 1.4-10.1 4-40.3 4-46.8 0-5.5-.9-6.3-3.8-3.5-.9 1-4.9 4-8.7 6.7-5.7 4.1-22.9 16.9-29.4 22-1.1.8-1.3.8-.8-.1.4-.6 6.2-5.2 13-10.3 23.6-17.5 27.7-20.8 27.7-22.1 0-.4-1.7-1.1-3.7-1.4-4.9-.9-27.3-5.2-59.2-11.6-14-2.8-26.7-5.1-28.2-5.1-1.6-.1-2.9-.5-2.9-.9 0-.9 2.2-3.8 5.2-7 .9-1 4.1-5.1 7-9.1s5.9-7.9 6.6-8.7 2.1-2.6 3-4 4.6-6.5 8.2-11.3c9.2-12.3 14.6-20 15.2-21.9.4-.9-1.5-4.1-4.9-8.3-3-3.7-5.2-7-5-7.3.3-.2 2.7 2.4 5.3 5.8 2.7 3.4 5.4 6.8 6 7.6 1 1.2 2.1 1 7.5-1.1 3.5-1.3 12-4.5 18.9-7.1 6.9-2.5 13.9-5.2 15.5-5.9 1.7-.7 5.1-1.9 7.8-2.6 9-2.4 8.3-2.7-14.3-5.7-7.4-.9-12.7-1.9-11.8-2.1s6.8.4 13 1.2c6.2.9 12.8 1.6 14.8 1.6s4.2.6 4.9 1.2c1.1 1.1 1.3.8.8-1.7-.5-3-.5-3 1.2-.9 1.5 1.9 2.3 2.1 6.7 1.3 2.7-.4 8.3-1.6 12.4-2.7s11.7-2.8 16.8-3.8c5-1 9.2-2.1 9.2-2.5 0-.3-3.1-1.9-7-3.4-6.3-2.5-8.1-3.5-6.4-3.5.3 0 3.7 1.3 7.6 3M306.9 210.7c-1.8 2.7-6.6 9.2-10.8 14.6l-7.5 9.8 5.9 5.9c3.3 3.3 6.3 6 6.6 6 .4 0 1.2-1.2 1.8-2.8l1.1-2.7-.6 3.1-.5 3.2 7.3-1.4c4-.8 7.9-1.6 8.6-1.9.6-.2 1.2-.1 1.2.4s-3.6 1.5-8.1 2.2c-5.3.8-8.5 1.9-9.2 3-1 1.3-1.4 1.4-2.4.4-.6-.7-.9-1.6-.5-1.9.3-.4-2.6-3.9-6.5-7.9s-8.9-9.1-11.1-11.5c-2.3-2.3-4.3-4.2-4.4-4.2-.2 0-.4 6.5-.6 14.5s-.2 14.5.1 14.5c.2 0 1.7-2.5 3.2-5.5 1.6-3 3.1-5.3 3.3-5.1.3.4-1.5 4-5.8 11.5-2 3.5-2 3.5 0 6.9 1.1 1.9 3.9 5.6 6.2 8.4l4.2 4.9 5.2-11c2.9-6.1 5.5-11.1 5.8-11.1.6 0-1.6 5.2-7.3 17.1l-3.1 6.5 1.8 5.5c1 3 3.1 10.5 4.7 16.6 1.6 6.2 3 11.1 3.3 10.8.2-.2.8-5.7 1.2-12.2l.8-11.8-.2 15.3c-.1 14.1.1 15.5 1.8 16.8 1.7 1.2 1.8 1.4.3 1.4-.9 0-1.7.8-1.8 1.7 0 1.2-.4.8-1.1-1-.7-2-1.7-2.7-3.6-2.8-2.3 0-2.4-.2-.8-.8s-.3-2.3-10.5-9.6c-6.8-4.9-13.7-9.9-15.2-11.2-3.1-2.5-5.6-3.2-4-1.1 1 1.4 4.4 12 6.3 19.9l1.2 4.6 5.1-.3 5.2-.3-5 1c-2.7.6-5.3 1.6-5.7 2.2-.4.7-.8.8-.9.2s-.3-1.9-.4-3c-.4-3.3-3.5-14.7-5.2-19.3l-1.6-4.3-1.8 2.8c-2 3-2.5 2-1-1.9.5-1.3 1.7-7.9 2.6-14.8 1.6-11.2 3.9-19.9 5-18.8.2.2-.3 2.8-1.1 5.8-1.4 5.1-3.4 19-2.7 19 .2 0 .8-1 1.3-2.3.8-1.7.9-1.1.5 2.5l-.5 4.7 11.2 8.3c13.9 10.3 19.8 14.1 19.8 12.9 0-1.3-7.8-30.4-9-33.5-.5-1.4-1.4-2.6-2-2.6-.5 0-1-.5-1-1.1s-2.3-4.1-5.2-7.7l-5.2-6.5-3.4 10.2c-1.9 5.6-3.6 10.1-3.8 9.9s1-5.1 2.7-10.9c1.7-5.7 3.5-12 4-13.9.9-3.4 1.1-22 .2-22-.2 0-.8 1-1.3 2.2-1.2 3.2-.4-4.2 1.1-10.2 1.5-5.6 1.8-6.1 7.1-8.9 2.4-1.2 3.4-1.5 2.3-.7-1.1.9-3 2.6-4.3 3.7l-2.3 2.2 4.8 5.2c2.7 2.9 5.1 5.2 5.5 5.1.4 0 1.7-1.5 3-3.3 1.3-1.7 4.6-6.1 7.3-9.9 2.8-3.7 6.2-8.4 7.8-10.5 3.9-5.6 4.4-4.8.6.8m314.5 60.9c.6 34 1.1 46.2 2.1 47.2.6.6 13.1-5.4 22.5-10.8 2.5-1.4 6.1-3.2 8-4s9.9-4.8 17.8-8.9c11.2-5.9 14.2-7.9 14.2-9.5 0-1.9.2-1.9 1.3.4 1.2 2.3 1.1 2.6-1.2 3.4-4.5 1.6-45.3 22.7-54.2 28l-8.7 5.1-1 20-1 20 .1-19.5c0-15-.3-19.4-1.2-19.2-.7.1-5.5 3-10.7 6.3-5.3 3.3-9.9 5.9-10.4 5.7s4.1-3.5 10.3-7.4c7.9-5 11.2-7.7 11.3-9.1.1-1.1.4-2.5.8-3.1.3-.5.3-3.1-.1-5.7l-.6-4.7-3.9.5c-2.1.3-3.8.3-3.8 0 0-1 2.7-3.1 4.6-3.5 1.8-.3 1.9-1.6 2.2-31.7.1-17.3.4-31.2.7-30.9.3.2.7 14.4.9 31.4m108.4 36.3c-.7 1.1-2 2.3-2.9 2.8-1.7.8-19.3 17.8-25.6 24.8-1.8 2-3.3 4.2-3.3 5s-.7 1.5-1.6 1.5-1.4-.3-1.2-.8c.2-.4 1-2 1.8-3.5 1-2 1.1-3 .3-3.5-1-.6-.8-4.1.5-9.5.1-.4.2-1.4.2-2.2 0-1.8 5.7-7.1 11.3-10.3 5.8-3.4 13.5-6 18-6.1 3.4-.1 3.6 0 2.5 1.8m-471.9 17.7c.1 1.2 1.2 4.3 2.6 6.9s2.4 5.3 2.2 5.9c-.6 1.7 1.9 3.6 4.7 3.6 2.3 0 2.5-.3 1.9-3.2-.6-3.1-.6-3.1 1.4-1.1 1.1 1.1 2.2 2.6 2.5 3.5.6 1.6 5.9 4.4 9.3 5 1.1.1 2.6 1 3.3 1.8 1 1.3 1.1 1.2.5-.5-.7-2-1.4-3.5-7.3-13.8-1.8-3.2-3.1-6-2.9-6.2.3-.2 3.1 4.3 6.4 10 3.3 5.8 6.3 10.5 6.7 10.5s.8-1 1-2.3c.3-1.8.5-1.6.9 1 .3 1.8.2 3-.3 2.7-.4-.3-.8-.1-.8.5s1 1.3 2.3 1.6c6.3 1.4 11.3 2.5 12 2.5.4 0 .7-1.5.8-3.3 0-2.6.2-2.8.8-1.2.5 1.1.6 2.4.3 2.9s.9.6 2.7.3c2.9-.6 3.1-.5 1.6.9-1.4 1.5-1.4 1.8 0 4.1 1.9 2.8 1.5 4.2-.5 1.8-2.2-2.7-3.9-1.7-4.7 2.7-.5 3.4-.8 3.8-1.2 2.1-.5-2-1.6-.9-8 7.7-4 5.6-7.6 9.9-7.8 9.6-.2-.2 3.1-5.3 7.5-11.3 4.4-5.9 8.2-11.7 8.3-12.7.4-2.1-1.1-2.7-8.9-4l-4.2-.6.5 3.2c.3 1.7 1.4 3.7 2.3 4.4 1.6 1.3 1.6 1.3 0 1.4-1.1 0-1.8.8-1.8 2 0 1.1-.4 2-.9 2-1.3 0-4.1 12.9-3.8 17.5.5 6.3 7.9 15.8 13.7 17.7.8.3-.7.5-3.5.4-2.7 0-5.9.3-7 .7-1.1.5-.8.1.8-.8 1.5-.8 2.7-1.8 2.7-2 0-1.2-7.4-11.5-8.1-11.5-.5 0-.9.8-.9 1.7-.1 1-.7 3.1-1.5 4.8-1.3 2.9-1.3 2.9-.8-1.8.6-5.3.2-5.5-5.2-3.3-2.8 1.2-3.5 2.1-3.5 4.3 0 4.7-1.2 10.3-2.2 10.3-.5 0-.8-3-.7-6.6.2-5.3.9-8 3.7-13.6 1.9-3.8 3.1-7.2 2.8-7.6-.4-.3-.9.4-1.3 1.6-.4 1.7-1.2 2.1-3.7 1.9-3-.2-3.1 0-3.6 4.3l-.6 4.5-.8-5c-1.1-7-1.6-8.6-2.6-8-1.1.7-5.7 8.8-6.6 11.8-.4 1.2-5.3 11.7-11 23.4S237 432.1 237 432.4s4.3-2.5 9.6-6.2 11-7.7 12.8-8.8c6.8-4.6 8.7-7.2 8.5-11.2-.1-2 0-6 .1-8.7l.3-5 .7 5c.3 2.7.5 6.5.3 8.2-.2 1.8.1 3.3.7 3.3.5 0 1-.8 1-1.8 0-.9.9-2.3 2.1-3 1.8-1.2 1.9-1.1 1 .7-1.6 2.9-1.3 4.1.7 3.4 1.2-.4 1-.1-.5 1.1-1.2.9-2.6 1.6-3 1.5-2-.3-2 .5-.1 7.2 1.1 3.9 1.8 8 1.5 9-.3 1.1 0 1.9.6 1.9.7 0 .7.4-.2.9-.9.6-1.2 1.9-.8 3.7.5 2.8-1.8 8.4-3.5 8.4-.4 0-.8.7-.8 1.5s-.5 1.5-1.1 1.5-.8-.9-.4-2.1c.7-2 .3-1.9-5.1 1.1-11.2 6.3-11 6.2-6.1 7.8 3.1 1 3.1 1-1.3.7-2.5-.3-5.9-.7-7.6-1.1-1.9-.3-3.4-.1-3.8.5-.5.8-1.3.8-2.7.1-3.2-1.8-2.1-2.5 4-2.6 4.7-.1 7.1-.9 12.5-3.9 3.6-2 6.8-4 7.1-4.5.3-.4-3-1.1-7.3-1.4-4.2-.3-10.7-.9-14.4-1.2-6.6-.6-6.8-.5-6.9 1.7-.1 2.1-.2 2.1-1.1-.6-.8-2.6-.3-4.3 4.1-13.3 2.8-5.6 5.1-10.5 5.1-10.8s2.2-5.1 4.9-10.7c4.1-8.6 7.5-16.3 12.1-27.2 1.9-4.5 2.4-8.6 2.3-20 0-9.3-.6-13.7-2.3-19.5-2.5-8.5-3.9-14.8-3.9-17 .1-2.2 1.7 2.1 1.8 4.6m477.6 53.1c-.6 6.1-1 7.4-3.1 8.8-1.3.8-2.4 2.1-2.4 2.8 0 2.1-5.1 6.2-10 8-7.6 2.8-11.3 5.5-10.7 7.8.4 1.4.1 1.9-.7 1.6s-1.3 0-1.3.6c.1.7-.5 3.3-1.3 5.9-1.3 4.3-1.9 5-7.6 7.9-3.4 1.7-6.7 3-7.3 2.8s1.3-1.5 4.4-2.9c3-1.4 5.5-2.7 5.5-3 0-1-15.5-7.1-17.1-6.7-2.7.5-1.6-2.2 3-7.5 2.7-3.1 5.1-5.5 5.3-5.3.2.3 2-1.1 3.8-3 3-3.1 3.3-3.8 2.2-5.5-1.1-1.9-.9-2 2.4-2 3.2 0 3.5.2 2.8 2.2-.3 1.3-1 2.8-1.5 3.3-1.1 1.4.3 3.5 2.7 3.9 1 .2 3 .7 4.4 1.1 1.8.4 4.3-.3 8.5-2.4 5.8-3 5.9-3 2.5-3-3.3.1-11-2.5-11-3.7 0-.3 1.4-1.9 3-3.6 2.7-2.7 3.5-5 3.1-8.6-.2-1 .5-.9 2.3.4 2.5 1.6 2.7 1.5 4.6-.7 1-1.3 2-3.1 2-3.9s.5-2.2 1-3c.6-1 .8.2.5 3.7-.2 3.6.1 5.5 1.1 6.4.8.6 1.4 2 1.4 3.1 0 1.6.3 1.8 1.3.9.8-.6 1.6-1 1.8-.8.2.1.3 0 .2-.2s.4-1 1.2-1.8 1.6-3.1 1.7-5.1.2-4.4.4-5.2c.1-.8.3-2.9.5-4.5.2-2.9.2-2.9.6.5.3 1.9.2 6.7-.2 10.7m-356 122.9c-2.9 11.7-3.1 13.8-1 13 .9-.3 1.5 0 1.5.9 0 .7-.9 1.7-2 2s-2 1.5-2 2.5c0 1.3 2.2 2.7 8.8 5.3 4.8 2 8.1 3.6 7.5 3.7-.7 0-4.7-1.4-9-3.1-5.9-2.3-8.6-2.9-11.3-2.4l-3.5.7 2.9 1.5c1.5.8 3.8 1.7 5 1.9 1.1.2 3.5.8 5.1 1.4 2.8.9 2.7 1-1 .5-2.2-.2-6.7-1.5-10-2.9-3.3-1.3-6.1-2.1-6.3-1.6-.4 1.1 7.6 15.7 9 16.6.6.4 2.1-.5 3.4-1.9s3.7-3.4 5.4-4.3c1.6-1 3-2.5 3-3.2 0-1 .7-1.2 2.8-.7 1.5.4 4.3.9 6.2 1.1 7.1.8 10 1.5 10 2.5 0 .6.5.7 1.2.3.8-.5.4-1.4-1.3-2.7l-2.4-2 3 .8c1.7.4 4.1.7 5.5.7 2.4-.1 2.5-.1.5 1.4-1.8 1.4-1 1.4 8.5.8 5.8-.3 12.1-.9 14-1.3s5.3-.3 7.5.2c5.1 1.1 20.8.1 26-1.8 2.2-.8 6-1.5 8.5-1.5 4.3-.2 4.4-.2 1.5-1.1-1.6-.5-7.5-1.4-13-1.9-8.3-.7-7.1-.7 7-.3 20.2.6 17.6.6 19.8.4 1.5-.1 1.3-.7-1.3-4.3-1.6-2.2-3-4.6-3-5.1 0-.6 1.4.8 3.1 3.1 3.2 4.4 4.4 5 5.3 2.9.3-.6.3-.2 0 1-.3 1.4-.1 2.3.6 2.3 2.6 0-.6 2.1-12.2 8-6.8 3.4-14.4 7.8-17.1 9.6-2.6 1.9-5.5 3.4-6.5 3.4-.9 0-4.9.9-8.7 2s-8.2 2-9.7 2c-1.6 0-2.8.5-2.8 1.1 0 .5-.4.7-1 .4-.5-.3-6.6.6-13.5 2-7 1.4-13.7 2.5-15.1 2.5-1.3 0-2.4.4-2.4.9 0 1-17.6-5.6-26.7-10.1-5.6-2.8-6.5-3.7-9.4-9.4-1.8-3.5-4.4-7.6-5.7-9.1s-2.8-3.8-3.3-5.1c-1.2-3.2-1.1-9.9.1-10.7.7-.4 1 .6.8 2.7-.1 1.9.2 3.9.6 4.6.9 1.5 5.5 1.6 9.1.2 2.3-.9 2.6-1.4 2-3.8-.3-1.5-2.9-6-5.6-10-5-7.3-5.8-9.6-3.9-10.7.6-.4.8-1.5.5-2.5s-.2-2.1.2-2.3c.5-.3.9 1.7 1 4.4.1 3.6.9 6.1 2.7 9 1.5 2.1 3 3.9 3.5 3.9s1.2 1.1 1.5 2.5c.4 1.4 1 2.5 1.5 2.5s.7-.9.4-1.9c-.3-1.1.4-4.6 1.5-7.8s2.5-7.8 3.2-10.2c.6-2.3 1.3-4.1 1.5-3.9.3.2-.6 4.9-2 10.4m-32.1 2.8c.9 2.9 1.9 7.5 2.1 10.1s.9 5.3 1.4 5.8c.6.6 1.1 1.8 1.1 2.7 0 1 .7 3.1 1.6 4.8.8 1.7 2.2 6 3.1 9.4.9 3.5 1.9 6.5 2.4 6.8.4.3.9 1.2 1.1 2s1 2.2 1.9 3c1.5 1.5 3.4 6.3 6 15 .7 2.5 2.3 6.7 3.6 9.4 1.3 2.8 2.3 5.6 2.3 6.3s.5 1.3 1 1.3c.6 0 1 .7 1 1.6s1.5 4.9 3.4 8.8c1.8 4 3.6 8.3 4 9.7.6 2.5-6.5-11.5-9.8-19.2-2.2-5.1-8.2-20.2-8.4-20.9-.4-2.1-3.6-9.7-5.1-12-1.9-3.1-5.1-11-5.1-12.8 0-1-.4-2.2-.8-2.7-.9-1-3.9-10.4-6.8-21.5-3.2-12.2-3.2-17.8 0-7.6m251.4 1.4c-1.8.8-22.5 19.1-31.6 27.9-3 2.9-5.7 5.3-6.1 5.3-.3 0-5.1 3.1-10.6 6.9s-14.8 10-20.7 13.7c-6 3.7-10.8 7.1-10.8 7.5 0 1.1-3.7 3-6.4 3.4-1.1.2-7.7 2.6-14.6 5.5-6.9 2.8-15.9 6.4-20 7.9-4.1 1.6-11 4.3-15.3 6.1l-7.8 3.2.5 7.7.5 7.6-1.1-7.2c-.9-7-1.1-7.2-3.1-6.1-4.1 2.1-30.9 20.1-33.6 22.4-1.4 1.3-3.3 2.9-4.1 3.6-.8.6-2.6 2.1-4 3.2s-.8.2 1.3-2c2.5-2.7 3.6-4.6 3.1-5.7-.3-.9-1-1.7-1.4-1.7-.5 0-4.4-4.2-8.7-9.2-4.3-5.1-9.5-11-11.6-13.1s-4.6-5.2-5.7-6.9c-1-1.7-4-5.3-6.6-8-2.5-2.6-4.2-4.8-3.7-4.8 1 0 4.9 3.6 11.6 10.8 2.8 3 5.7 5.2 7 5.3 1.7.1 1.8.2.5.6-1 .2-1.8.8-1.8 1.2 0 .9 13.9 16.6 17.7 19.9 1.4 1.3 2.9 2 3.3 1.5 1.1-1.1 3.2-18.1 2.5-19.3-.3-.6-3.4-1.1-6.8-1.1-3.4-.1-7.5-.5-9.2-1-2.9-.8 6.4-.6 36 .7l12.9.5-1.9-2.2-2-2.2 2.2 1.2c2.5 1.2 4.4 1.1 5.6-.4.6-.6 1-.6 1.4.2.8 2 2 1.7 18.4-4.8 8.5-3.3 20.1-7.9 25.9-10.1s10.9-4.4 11.3-4.8c.9-.8-3.5-1.4-17.6-2.6-4.3-.3-7.6-.8-7.3-1.1.2-.2 6.5.1 14 .7 12.8 1.1 13.7 1 17.8-.9 5.9-2.8 21.2-12.8 21.6-14 .2-.6 1-1.1 1.7-1.1 1.5 0 14.6-9.1 21-14.5 2.2-1.9 6.5-5.5 9.5-8.1 12.5-10.6 24-21.8 24-23.4 0-2.8 1.2-3.1 2.5-.7.6 1.2.7 2.4.3 2.5m418.7 64.2c-.4.6-4.1 3.4-8.3 6.3l-7.7 5.2 7 .5 7 .5-6.3.7c-3.5.3-6.6.9-7 1.2-.7.7 1.6 2.9 8.3 7.8 2.8 2 6.1 4.8 7.4 6.1 2.3 2.5 6.2 2.7 4.1.3-1.1-1.4-4.1-14.6-3.3-14.6.3 0 0-.6-.6-1.4-1.3-1.6.3-2.7 2.7-1.8 1.1.4 1.1.6.1 1.2-1 .7-.9 2.4.1 8.5 1 6 1.5 7.3 2.3 5.9 2-3.5 4.7-11.9 4.7-14.4 0-1.5.7-3.5 1.6-4.6 1.5-1.9 1.6-1.9.9.1-.4 1.1-1.1 4.7-1.6 7.9-.6 3.2-1.4 6.7-1.9 7.7-.6 1-1 3.1-1 4.8 0 2-.5 3.1-1.4 3.1-.7 0-1.6.8-1.9 1.9-.2 1-4.6 4.5-9.6 7.7-5.1 3.3-11.9 7.8-15.3 10.2-3.3 2.4-6.2 4.1-6.4 3.9-.3-.3 6-4.9 14-10.2 8-5.4 14.6-10.4 14.6-11.1 0-1.1-5.7-6.3-16.2-14.7-2.7-2.1-4.8-3.6-4.8-3.3s-1.6-.6-3.6-1.9c-2-1.4-4-2.5-4.4-2.5-1.5 0-8.2-3.1-7.7-3.6.3-.3 2.5.4 5 1.5 5.9 2.7 8.1 2.6 10.1-.2 1.2-1.5 1.6-1.7 1.2-.5-.9 3 1.6 2.1 9.9-3.6 9-6 8.9-6 8-4.6m186.7 105.5c1.1 1.4 2.3 2.3 2.7 2 .9-.5 3.1 3.9 3 5.8 0 .7-.7-.2-1.4-1.8-1.7-3.7-1.9-1.6-.3 3.9 1.5 5.4 2.8 6.7 2.3 2.5-.2-1.9-.1-2.6.1-1.7 1 3.3 2 1.9 4.4-5.7 1.8-5.7 2.8-7.5 4.2-7.5 1.6 0 1.4 1-1.7 9.7-2 5.3-3.6 11.1-3.8 13-.1 2.3-.6 3.2-1.5 2.8-.8-.3-1.9-.5-2.6-.5-1.1 0-9.6-21.1-9.6-23.9 0-1.9 2.1-1.2 4.2 1.4m21 4c-.5 2.6.6 3.3 2.5 1.4 1.4-1.4 6.7-.3 8.4 1.7.6.8 1.7 1.4 2.4 1.4s1.8.7 2.5 1.5c1.1 1.3 1.6 1.1 4-1.5 3.9-4.1 7-4.6 12.4-1.9 5.7 2.8 8.3 5.5 9 9.4l.6 3-1.1-3c-1.4-3.7-2.8-5.5-4.2-5.5-.5 0-.2.9.8 2s1.5 2.3 1.2 2.7c-.4.3-.7.1-.7-.5 0-.7-.4-1.2-1-1.2-.5 0-1 .9-1 1.9 0 2.9-4.6 7.9-6 6.5-.7-.7-.5-1.6 1-2.9 2.7-2.4 2.7-7.5.1-7.5-2.2 0-5.1 3.5-5.1 6 .1 2.1 4.6 7 6.5 7 .9 0 2.7-1.1 4-2.5 3.1-3 3.3-2 .3 1.2-2.4 2.5-4.8 2.9-8.1 1.1-2.1-1-2.1-1-.7.7s1.4 1.7-.7.7c-1.2-.7-2.9-2.2-3.7-3.4-.9-1.2-1.6-1.9-1.6-1.4 0 .4-1.1-.1-2.5-1.2-1.5-1.2-3.4-1.8-5-1.4-1.4.2-2.4.7-2.1.9.3.3-.5 1.4-1.7 2.3-3.2 2.7-1.2 3.7 2.8 1.5 4.3-2.3 5.7-1.2 2.5 1.8l-2.4 2.2 1.8-2.3c2.2-2.6 1.5-2.8-1.9-.6-1.6 1-3.4 1.4-5.1 1-1.8-.5-2.4-.3-1.8.5.9 1.5-.7.6-5.4-2.9-2.2-1.7-3.1-3-2.7-4.1.3-.8.3-1.2-.1-.9-.9 1-2.9-1.3-3.7-4-.3-1.3-.3-2.1 0-1.8.6.6 4.3-6.2 4.3-8 0-.7-.6-1.5-1.2-1.7-.7-.3-.3-.6.8-.6 1.7-.1 2 .4 1.6 2.4"/><path d="M551 78.5c0 .2 2.8 4.6 6.3 9.8 3.4 5.2 7.4 11.5 8.8 13.9 7.5 12.3 16.3 25.4 17.7 26.6 2.2 1.6 2.8.8 4.7-6.8.9-3.6 2.5-8.4 3.6-10.7 1-2.3 1.9-4.6 1.9-5.1s.7-2.3 1.5-3.8c2.3-4.5 1.9-6.2-2.2-8-6.2-2.6-42.3-16.2-42.3-15.9M522.9 88.3c-10.2 5.1-23.2 11.2-28.8 13.6-5.7 2.4-11.2 5.2-12.4 6.1-2 1.6-1.8 1.7 5.4 1.8 4.1.1 14.6.5 23.5.8 13 .5 16.3.4 17.3-.7 3.6-4 17.3-29.4 16.3-30.3-1.1-1.1-2.9-.4-21.3 8.7M547.3 80.2c-.5.7-1.9 3.1-2.9 5.3-3.3 6.7-11.6 21.9-12.7 23.3-.8 1.1-.6 1.7.8 2.5 5.8 3.4 31.4 13.5 43.5 17.2.3.1 1.3.5 2.3 1 1 .4 1.9.6 2.1.4s-3.5-6.5-8.1-13.9c-10.3-16.3-15-23.8-18.3-29.6-3.6-6.2-5.4-7.9-6.7-6.2M598.6 98.2c-1.6 5.1-3.9 11.5-4.6 12.9-.4.8-1.7 5.1-2.9 9.5-1.2 4.3-2.4 8.8-2.8 9.8-.5 1.7-.1 1.9 4.3 1.3 2.7-.4 6.3-.9 7.9-1.2 1.7-.3 6.8-1.2 11.5-2 10.7-1.9 30.3-6.5 31.3-7.4.4-.4-1.9-2.1-5-3.7-3.2-1.7-13.3-6.9-22.5-11.8-11.8-6.2-16.9-8.4-17.2-7.4M450 113.6c-1.4.2-12.8.8-25.3 1.4-21.2.9-27.5 1.9-26.3 3.9.3.4.8 5.2 1.1 10.5.2 5.4.8 10.2 1.1 10.7.3.6 1.7 1.4 3 1.9 1.7.7 2.4 1.7 2.4 3.5s.5 2.5 1.9 2.5c1 0 2.2.7 2.5 1.6.9 2.4.7 3.1-.4 1.4-.8-1.2-1-1.1-1 .6 0 2.5 3.5 6.8 4.8 6 1.6-.9 7 1.7 8.2 4 1.4 2.4.7 5.6-1.7 8-.9.9-1.8 3.8-2.1 6.5-.2 2.7-.8 4.9-1.3 4.9s-.9.6-.9 1.4c0 .7-.7 1.9-1.5 2.6-1.6 1.3-2.1 6.5-.6 7.4.5.3.9 0 .8-.7-.1-3 .4-4.7 1.3-4.7.6 0 2.1-1 3.3-2.1l2.2-2.1-2.4.7-2.4.7 2.3-2.3c1.6-1.7 2.4-2 2.7-1.1.4 1 .9.8 1.9-.5 1.6-2.1 1.8-3.7.4-2.8-1.2.7-1.2-.2 0-3 .7-1.7.9-1.7.9-.3.1 1.7.2 1.7 2.2 0 2.7-2.3 6.2-7.9 5.5-9-.3-.5.6-3 1.9-5.6 2-4 2.4-4.3 2.8-2.4.4 2 .4 2 .6-.4.1-1.9.5-2.6 1.5-2.2.9.4 1.5-.8 2.1-3.8.4-2.4.9-3.7 1.2-3.1.3.7.9 1.3 1.4 1.3.6 0 .8-.4.5-.9-.3-.4.3-1.6 1.4-2.6s2-2.3 2-3c0-.6.8-2 1.8-3.1 2.6-3 6.2-8.2 6.2-9.1 0-.4.9-1.9 2-3.3s2-3.5 2-4.8c0-1.2.4-2.2 1-2.2.5 0 .7.8.3 1.7-.5 1.5-.3 1.4 1-.2 2-2.4 2.1-4.2.5-4.9-.9-.3-.7-.9.6-2 1.8-1.5 1.5-1.6-4.5-1.5-3.5.1-7.5.3-8.9.5M630.5 126.1c-14.5 3.5-28.3 6.4-34.6 7.3-2.6.4-5.4 1.3-6.4 1.9-1.6 1.2-1.4 1.9 2.4 9 2.2 4.3 6 11 8.5 15.1 2.6 4 4.6 7.7 4.6 8.3 0 1.3 8.7 21 11.8 26.6 1.1 2.1 2.3 3.4 2.6 2.9s3.3-7.8 6.6-16.3 6.6-16.5 7.1-17.9c.6-1.4 2.6-6.8 4.5-12 1.8-5.2 4.7-13.3 6.4-18 1.6-4.7 3-8.8 3-9.2 0-1.3-4-.8-16.5 2.3M587.7 143.7c-1 1.6-2.6 15-4.2 33.3-.8 10.2-1.8 20-2.1 21.7-.6 3.2-.5 3.3 2.6 3.3 4.8 0 32.4-2.2 32.9-2.6.3-.3-10.6-23.4-17.3-36.4-5-9.7-11.4-20.1-11.9-19.3M548 186.8c-3 1-4 4.2-1.3 4.2 1.4 0 1.3.3-.5 2-1.2 1.2-2.2 2.5-2.2 3 0 .6-.7 1-1.6 1-1.2 0-1.4.3-.6 1.2.6.7 1.1 1.7 1.2 2.3.2.5.5 1.6.8 2.4.3.7-.1 1.6-.7 2.1-.9.5-.3.9 1.6 1.3 1.5.3 3.3.1 4-.4.7-.7 1.3-.6 1.7 0 .7 1 4.9.7 13-1.1 2.9-.6 4.3-1.4 3.6-1.8-1-.6-.9-.9 0-1.2 2.4-.8.3-5.5-2.7-6.3-1.6-.3-3.8-1.6-5-2.7-1.3-1.2-2.3-1.7-2.3-1.3 0 .5-.7-.1-1.6-1.3-.8-1.2-2.4-2.2-3.4-2.2s-2-.4-2.2-.9c-.1-.4-1-.6-1.8-.3M397 210.1c-8 5.5-15.1 10.6-15.8 11.3-1.5 1.5-3.7 1.5 37.1.1 11.9-.4 21.7-1.1 21.7-1.4s-3.1-2.8-6.8-5.4-9.6-7-13.2-9.7-6.9-5-7.5-4.9c-.5 0-7.5 4.5-15.5 10M578.1 207.8c-.1.7-2.3 5.9-5.1 11.6-2.7 5.7-5 10.7-5 11.1 0 .5-.9 1.9-2.1 3.1-1.9 2.1-2 2.5-.6 5.1 1.7 3.2 7.2 16.4 12.7 30.5 2.1 5.3 4.1 10.1 4.4 10.7.4.7.1.8-.8.5s-1.6-1.1-1.6-1.6c0-.6-.6-2.4-1.4-4.1-1.9-4.5-7.3-17.9-10.6-26.5-3.6-9.4-4.6-10.5-8.4-9.9-6.4 1.1-34.3 11.3-36.3 13.3-1 .9-.7 1.5 1.2 2.8 1.3.9 2.7 1.6 3.1 1.6.3 0 3.8 2 7.8 4.4 3.9 2.4 12.5 7.2 19.1 10.6 6.6 3.5 14.3 7.5 17 9.1 2.8 1.5 6.7 3.5 8.9 4.4 3.6 1.5 3.8 1.5 3.2-.1-.4-1-.2-2 .4-2.4 1.3-.8-3.2-68.9-4.9-73-.5-1.4-1-1.9-1-1.2M392.8 223.9c-7.5.4-13.9.8-14.2 1.1s.8 3.4 2.4 6.8c1.7 3.4 3 6.4 3 6.8 0 .7 9.1 25.2 13 34.9 8.1 20.2 9.3 23.1 10.6 24.6.8.8 1.4 2.1 1.4 2.7 0 1.8 5.1-.4 17.3-7.5 6-3.5 11.2-6.2 11.4-5.9.2.2-5.7 4-13.2 8.5-7.4 4.6-13.5 8.4-13.5 8.6 0 1.5 28.9 13.5 32.5 13.5.8 0 6.3-3.4 12.1-7.5 12.7-9.1 13-8.4.3 1.1-7.4 5.6-8.7 7-7.2 7.5 1.5.6 1.3.8-.8.8-1.4.1-3.4 1-4.4 2.1-2.1 2.3-4.4 2.7-2.5.5 1.8-2.1.9-2.8-8.5-6.4-4.4-1.7-10.6-4.3-13.7-5.8-3.2-1.5-6-2.4-6.3-2.1-.7.7 13.5 29.8 14.5 29.8.8 0 3.5-2.7 10.4-10.4 4.7-5.2 2.7-1.4-2.2 4.3-7.2 8.3-7.8 9.8-5 12.1 2.2 1.9 8.7 5.3 13.5 7.1 1.8.6 2.5.4 3.3-1.1 1.1-2.1 4-1.7 4 .6 0 .8.5 1.4 1.1 1.4.5 0 .8-.4.5-.9s.5-1.2 1.9-1.5c2-.5 2.5-1.3 2.6-3.9 0-1.7.2-4.4.4-6 .2-1.5.2-2.7-.1-2.7-.2 0-3.2 1.4-6.6 3-3.4 1.7-8.1 3.3-10.3 3.5-3.4.5-2.9.2 2.6-1.8 7.9-2.7 17.1-8.6 19.6-12.4 1-1.6 2.5-3.3 3.3-4s1.1-1.3.6-1.3-.3-.7.4-1.5c1.7-2 .4-2.4-9-2.7l-7.5-.3 8-.8c11.1-1.1 11.6-1.3 15.2-4.7 3-2.8 3.3-3.6 3.2-8.8-.2-7.1-1.4-9-4.3-6.5l-2.1 1.8 1.9-2.3c2.6-3 1.7-3.8-10.4-9.2-5.2-2.4-10-4.7-10.6-5.1-.6-.5-1.6-.3-2.3.4-1 .9-1.1.8-.6-.6.4-.9.3-1.7-.3-1.7s-.8-1.6-.5-3.8c.3-2-.3-9.1-1.2-15.7s-1.9-15.6-2.2-20-.9-9.8-1.2-12l-.8-4-1.7 4c-.9 2.2-2.6 6.5-3.6 9.5-2 6-6.2 15.9-14.5 34.5-2.9 6.6-6.3 14.7-7.6 18-2.4 6.4-3.9 8.9-3.9 6.4 0-.8 2.3-6.6 5.1-12.9 9.6-21.7 17.1-39.5 19.4-46 1.2-3.6 3.2-8.9 4.4-11.8l2.1-5.2-17.8.2c-9.7.1-23.9.4-31.4.7"/><path d="M446 223.9c1.2.8 1.2 1.1.1 1.1-1 0-1.2 1.3-.7 6.2.3 3.5.8 9.9 1.2 14.3.3 4.4 1 9.8 1.5 12s.9 6.8.9 10.2c0 9.3.6 10 4.6 5.9 1.8-1.8 3.4-3.2 3.6-3s9.3-9 20.2-20.4c10.8-11.4 20.7-21.7 21.9-22.9 1.1-1.2 1.7-2.6 1.3-3s-13.2-.9-28.4-1.1c-19.3-.2-27.2 0-26.2.7M376.8 229c0 .8-.2 1.9-.3 2.5-.9 5.7-1.6 13.9-2.1 23.4-.3 6.3-.9 12.2-1.4 13.1-1.4 2.6-3.9 15.4-3.2 16.1.4.3 6.1 2.9 12.7 5.8s14.3 6.5 17.2 7.9c5.4 2.8 7.1 2.6 5.4-.5-1.6-2.7-8.7-20.8-18.1-45.8-8.1-21.5-9.8-25.4-10.2-22.5M342 236.5c0 1.1.5 4.7 1.1 8 1.4 7.7 1.8 11.7 1.8 18.4.1 4.7.3 5.2 1.7 4 1.3-1.1 1.4-.9.9 1.2-.6 2.6-.6 2.6 11.3 9.1 5.7 3.2 6.9 2.3 3.1-2.6-1.1-1.4-4.4-7.9-7.3-14.4-7.1-15.7-12.6-26.1-12.6-23.7M327 259.5c0 3.6-3.4 23.3-4.2 24.3-2.2 2.5 3.1-.3 11.7-6.3 4.7-3.3 8.4-6.5 8.2-7-.4-1.1-13.8-11.5-14.9-11.5-.5 0-.8.2-.8.5M533.6 263.5c.4.8 1 1.2 1.5.9s.9.2.9 1.1 1 2.6 2.1 3.8c2.9 3 5.9 9.9 6.1 14 .2 6.9.8 7.1 19.3 6.4 9.1-.4 17-.9 17.5-1.2.6-.3-1.4-1.9-4.3-3.4-2.8-1.5-8.1-4.3-11.7-6.3-19.2-10.4-31.9-16.6-31.4-15.3"/><path d="M345.4 273.4c-.8 2-.1 20.2.8 21.1.6.6 3.9-.8 13.3-5.9 6.6-3.6 2.7-.5-5.5 4.3-3.5 2.1-6.5 4.2-6.7 4.7s2.3 2.3 5.5 4c3.1 1.7 9.5 5.3 14.2 8.1 9.6 5.6 13 6.8 13 4.7 0-.8-.4-1.4-.9-1.4s-1.2-1.2-1.6-2.8c-.3-1.5-2.4-6.2-4.6-10.6-3.8-7.7-5.4-13.3-2.6-9.1.8 1.1 2.1 4 3.1 6.5s3.5 7.2 5.5 10.5c2.1 3.3 4.1 7 4.5 8.2.4 1.3 1.3 2.3 1.9 2.3 1.8 0 12.5-5.5 17.2-8.8 7.1-5 8.2-4-19.8-17.8-6.6-3.2-11-4.8-13.8-4.9-3.2 0-3.9-.3-3.6-1.6.3-1.2-1.5-2.8-6.2-5.4-3.6-2.1-8.1-4.7-9.9-5.7-2.8-1.7-3.3-1.8-3.8-.4M340.8 274.9c-.1.4-3.5 2.9-7.3 5.3-3.9 2.5-7.9 5.3-8.9 6.3-1.7 1.8-1.5 1.9 7.1 5.2 4.8 1.9 9.8 3.7 11 4 2.1.5 2.2.3 1.3-2.8-.6-1.9-1-6.9-1-11.1 0-4.3-.4-7.8-.9-7.8s-1.1.4-1.3.9M465 276.7c-.8.2-2.2.7-3 1s-2.2.7-3.1.9c-.8.2-2.8 1-4.4 1.8l-2.9 1.5 7.9 3.6c4.4 1.9 9.2 4.2 10.7 5 4.5 2.5 6.3 1.9 7.8-2.5.7-2.2 1-4.3.7-4.7-.4-.3-.8-.1-.8.5-.1.7-.3 1.6-.4 2.2-.1.5-.3 1.3-.4 1.7-.1.5-.6-.2-1.1-1.5-.7-1.6-1.8-2.2-3.9-2.2-3.3 0-5-2.1-4.6-5.8.2-2.3 0-2.4-2.5-1.5M507.9 286.4c-.2.3-6.7 2.4-14.4 4.7s-14.6 4.6-15.2 5.1c-1.3 1-1.2 2 .9 10.1.6 2.8 1.3 3.6 2.1 2.9.7-.5 3.2-1.2 5.7-1.6 6.5-.9 10.1-3.1 13.8-8.5 1.7-2.6 3.2-5.1 3.2-5.5s.9-1.9 2-3.3c2.9-3.7 2.5-2.2-1.5 5.4-2 3.6-3.4 7.2-3.1 8 .4.9 2.5 1.3 6.6 1.3 3.4 0 7 .4 8 1 2.1 1.1 5 .3 5-1.4 0-.7-1.6-4.3-3.5-8.1-4-7.9-7.8-11.9-9.6-10.1M400 312c-11.4 6.9-14.3 9.2-12.8 10.1.7.5 1 .9.7.9-.6 0 9.5 10.5 12.3 12.8 1.4 1.1 1.8.4 3.4-6 1-4 1.7-7.6 1.6-8.1-.1-.4.3-.7.8-.7 1.1 0 .7 3.7-1 10-1.5 5.3-1.3 9 .5 9 .8 0 1.6.6 1.6 1.2.3 2.8 1.7-9.1 1.8-15 .1-4-.3-6.2-1-6.2-1.1 0-1-1.8.7-9.3.9-3.7-.7-3.5-8.6 1.3M562 350.7c.1 12.4.4 16.3 1.6 18.3.8 1.4 1.3 1.8 1 .8s.2-1.8 1.5-2.1c1-.3 1.9-1.2 1.9-2.1s.6-1.6 1.3-1.6c1-.1 5.3-4.7 15.8-17.2 1.4-1.7 3.1-2.9 3.7-2.7 1.1.4-5.4 8.9-20.5 26.8-2.9 3.4-5.3 6.6-5.3 7.1 0 1.6 16.3 13 18.7 13 .5 0 1-.6 1-1.3 0-.6.7-4.1 1.6-7.7 2.1-8.2 6.5-34.4 6.5-38.7.1-3.1 0-3.2-5.6-3.9-3.1-.3-6.1-1-6.7-1.4-1.5-1.1-10-3-13.4-3H562zM425.4 372.7c-.9 4.2-1.2 5-1.3 3.1-.1-1.4-.5-1.3-2.7.7-1.4 1.3-2.3 2.9-1.9 3.5.3.5-.1 1.3-1 1.6-1 .4-1.3 1.3-.9 2.6.3 1.1-.4 3.9-1.6 6.6-3.7 7.7-3.9 8.6-2.4 10 1.2 1.1 1.2 1.8-.1 5-.9 2-2.4 4.3-3.5 5.1-1.3.9-2 2.5-2 4.7 0 1.9-.3 3.4-.8 3.4-.4 0-.6 1.8-.4 3.9s-.1 4.8-.7 6c-1.1 1.9-.9 2.1 1.4 2.1 1.6 0 2.5-.6 2.5-1.5 0-.8.5-1.5 1.1-1.5.5 0 .7.5.3 1.2-1.4 2.2 8.1-5.3 16.5-13.1 10-9.2 9.7-7.5 5.3-26.1-1.1-4.7-2.3-10.6-2.6-13.2-.5-3.2-1.4-5.1-2.6-5.8-1.7-.9-2-.6-2.6 1.7M387.3 375c-1 1.1-2.3 2-3 2s-1.3.3-1.3.8c0 .4-2.5 3.3-5.5 6.6-3 3.2-5.5 6.3-5.5 7 0 .6-1.3 2.4-2.8 4.1-1.6 1.6-3.6 4.2-4.6 5.7l-1.7 2.6 9.3.9c5.1.4 9.9.8 10.7.8.9 0 2.6-4.7 5.2-15 2.1-8.3 3.8-15.3 3.9-15.6.1-1.8-3.2-1.6-4.7.1M560 384.3c0 1.3-.4 2.7-.9 3.2-.9 1-4.1 11-4.1 12.8 0 1.2 4.5.4 15.3-3 4.8-1.5 8.6-3.2 8.4-3.8-.4-1.3-15.7-11.5-17.4-11.5-.7 0-1.3 1-1.3 2.3M343 384.5c0 1.8 15.7 16.8 16.4 15.6 1.2-1.9 3.6-10.6 3.6-13.1 0-2.9-.4-2.9-13.3-3.3-4-.1-6.7.2-6.7.8M431 417c-3.6 3.3-6.4 6.4-6.3 6.9.2.5-.6 1.3-1.7 1.6-3.3 1.1-5 3.5-5 7.1 0 2-.4 4.3-1 5.3-1.9 3.6.8 4.9 12.8 6.1 6.3.7 11.6.9 11.9.6.9-.9.9-15.6.1-15.6-.5 0-.8-1.2-.8-2.8 0-1.5-.6-5-1.4-7.7-.7-2.8-1.1-5.6-.9-6.3.9-2.4-1.3-1.1-7.7 4.8M442.2 416.1c.3.8 1.8 5.2 3.2 9.9 4.1 12.9 10.5 31 12.6 35.5 1 2.2 3.1 7.1 4.6 11 1.5 3.8 2.8 7.2 3 7.4 1.1 1.4 20.7-17.6 19.7-19.2-1-1.7-6.5-7.7-17.4-19.1-5.3-5.6-12.5-13.3-16-17.1-6.9-7.7-10.7-10.9-9.7-8.4M485.7 472c-2.8 12.3-8.2 28.6-9 26.8-.5-1.5 2.1-11.7 3.3-12.8 1.6-1.4 6.3-20 5.1-20-1.1 0-13 11-15.1 14.1-1.9 2.5-2 3.4-1 6.3.6 1.9 2.9 6.2 5 9.5l3.9 6 3.9-1.3c2.2-.8 4.8-1.9 5.8-2.4 1.1-.6 6.6-3.2 12.4-5.8s10.9-5.1 11.4-5.6c1-.8-21-22.8-22.8-22.8-.6 0-1.9 3.6-2.9 8M466 492.2c0 3.2-2.2 7.8-3.7 7.8-1.6 0-1.6.6-.3 3.1.8 1.5.7 1.9-.5 1.9q-1.5 0-1.5 3c0 4.2 0 4.3-1.2 5.7-.6.7-1.5 1-2.2.6s-.7-.2.1.7c1.3 1.4 1 1.5 11.1-6.5 6-4.8 6.4-5.5 4.7-8.6-.8-1.3-2-3.8-2.8-5.5-2-4.2-3.7-5.2-3.7-2.2M917.5 109.1c-4.9 1-13.3 3-18.5 4.4s-10.3 2.6-11.3 2.6c-2.6 0-1.5 2.8 5.2 12.3 3.2 4.5 8.2 11.8 11.2 16.3 3 4.6 5.9 8.3 6.5 8.3 1.3 0 3.9-6.2 11.9-28 5.7-15.5 7.5-19.2 7.5-15.4 0 1.1-.4 2.4-.9 2.9-1.6 1.8-6.3 17.4-5.5 18.6q.6 1.05-.3.6c-1.2-.8-2.3 1.4-2.3 4.4 0 1-.4 1.9-1 1.9-.5 0-1 .8-1 1.8 0 1.1-.6 3.2-1.4 4.8s-1.7 4-2.1 5.4c-.6 2-.5 2.3.6 1.2 1.6-1.4 5.5-1.6 6.4-.2.9 1.5 5.1 1.2 6.5-.4.6-.8 1.8-1.2 2.6-.9s2.6.2 4.1-.2c2.1-.5 2.4-.8 1.2-1.6-1.2-.7-1.1-.9.4-1 2.1-.2 2.7-.3 5-1.3.9-.5 2.9-.5 4.3-.2 1.4.4 3.1.3 3.7-.2 1.2-1 6.8-2.2 10-2.3 2 0 2.4-1.9.3-1.9-.8 0-1.3-.6-1.2-1.4.2-2-29.3-32.6-31.3-32.5-.9.1-5.6 1-10.6 2M967.7 145.2q-1.05.6.6 4.2c1 2 2.4 5.3 3.3 7.3 6.6 14.9 13.5 28.4 14.5 28.1.6-.2 1.8-2.2 2.7-4.3.8-2.2 2.8-7.3 4.4-11.4 2-5.1 2.5-7.8 1.8-8.5-.5-.5-1-1.9-1-2.9 0-1.5.5-1.8 2.4-1.3 2 .5 2.5 0 4-3.7 2.2-5.8 2-6.7-1.1-6.8-1.6-.1-9-.4-16.7-.8-7.6-.3-14.3-.3-14.9.1M1004.2 148.2c-.2 2.6-3.8 11.4-6.4 15.8-1.4 2.5-3.4 6.3-4.4 8.5-.9 2.2-2.8 6.4-4.1 9.4-2.1 4.4-2.3 5.8-1.4 7.8.6 1.4 6.9 9.2 13.9 17.5 11.5 13.6 18.3 22 25.9 31.7 1.5 1.9 2.8 3 3 2.4.5-1.3-8.6-37.4-12.6-50.6-3.1-9.9-8-28.6-8.6-32.2-.3-2.2-4.2-11.5-4.8-11.5-.2 0-.4.6-.5 1.2M1013.5 168.8c1.3 4.9 3.9 14.2 5.9 20.8 3.3 11.1 9.3 34.4 11.7 45.9 2.1 9.6 2.2 9.6 6.4 3 2.1-3.3 4.1-6.1 4.6-6.3 1.7-.7 2.2-7.2.7-9.5-.8-1.2-4.3-8.3-7.8-15.7-10.2-22.1-21.9-45.8-22.9-46.4-.5-.3.1 3.4 1.4 8.2M807.8 163.1c-1 .5-1.8 1.6-1.8 2.3 0 .8-.6 1.6-1.4 1.9-2.1.8-13.8 16.7-12.3 16.8.6 0 .4.3-.5.7-1.6.7-12.3 14.1-11.6 14.6.1.2 5.5 1.1 11.8 2 6.3 1 15.2 2.4 19.8 3.3 6.7 1.3 8.7 1.4 10.9.4 1.9-.9 2.9-.9 3.1-.2.7 2.1 2.3 1.1 2-1.1-.3-2-.8-2.3-4-2-3.6.3-3.8.2-3.8-2.7 0-1.7-.3-3.1-.6-3.1-1.1 0-3.3 2.8-2.7 3.4.4.3.1.6-.5.6-.7 0-1.2-.7-1.2-1.5 0-1.8-1.7-2-2.3-.3-.2.7-.8 1-1.2.6-1.4-1.3.7-3 3.2-2.5 1.5.3 2.2 0 2-.7-.2-.6-1.1-1-2.1-.8-3.5.6-1.3-2.6 2.7-3.8 2.6-.9 3.6-1.5 2.5-1.8-1-.2-1.8-.8-1.8-1.3 0-.6-.7-1.7-1.5-2.5-.8-.9-1.5-3.3-1.5-5.4s-.2-4.4-.3-5.2c-.2-.7-.2-1 0-.6.6 1.1 3.3 1 3.3 0 0-.5-.8-1.6-1.9-2.6-1.6-1.5-2.9-2-8.1-3-1.9-.4-1.4-3.6.8-5.3 2-1.5 1.4-1.6-1-.2M987.5 197.2c.2 1.8.6 6.7 1 10.8s1.3 10.6 2 14.5c.7 3.8 1.6 9.7 1.9 12.9.2 3.3 1.1 6.5 1.8 7.2 1.3 1.2 35.6 4 36.6 2.9.3-.2-1-2.2-2.9-4.3s-5-5.8-6.9-8.3c-3.2-4-5.7-7-17.5-21s-14.9-17.4-15.6-17.7c-.5-.2-.7 1.2-.4 3M876.5 220c-.3.5.4 2.8 1.5 5.2 1 2.4 3.8 8.8 6.1 14.3 6.6 16.2 10.9 24.5 12.4 24.5.8 0 1.5.7 1.5 1.5 0 2.1-.1 1.7 3.4 9.7 7.7 17.2 10.9 23.8 11.7 23.8 1 0 1.6-4.1 2.4-16 .3-5.2 1.2-12.7 2-16.5 1.3-7 2.5-20.5 3-34.2.2-6.5 0-7.2-1.9-7.7-1.2-.3-10.4-1.4-20.6-2.6-10.2-1.1-19-2.3-19.7-2.5s-1.5 0-1.8.5"/><path d="M874.6 227.7c-.3 2.1-.8 7.4-1.1 11.8-.4 4.4-1.3 14.3-2.1 22-1.9 17.1-2.1 18.9-3.9 39.6-1.6 17.7-1.9 26.9-.9 26.9 1.4 0 33.2-16.6 37.4-19.5 2.5-1.8 5.3-3.5 6.3-3.8.9-.4 1.7-1.1 1.7-1.8 0-.6-2.2-5.7-4.9-11.2-2.6-5.6-5.4-11.9-6-13.9-.7-2-2.2-5.2-3.4-7-2.3-3.4-12.7-24.1-12.7-25.3 0-.3-1.1-3-2.4-5.8-1.4-2.9-3.2-7.4-4.2-10-2.2-6.1-3.1-6.6-3.8-2M923.6 237.6c-.8 1.9-2.3 14.2-3.2 24.4-.2 3-.8 7.5-1.3 10s-1.2 8.5-1.5 13.5l-.6 9 1.9-2.5c2.6-3.3 13.7-22.9 14.6-25.8.3-1.2 1-2.2 1.4-2.2.9 0 3.1-4.5 3.1-6.3-.1-.7-.6-.5-1.3.5-1.2 1.5-1.5 1.1-2.5-2.7-.6-2.4-.9-5-.6-5.8s-.2-2-1.1-2.7c-.8-.7-1.5-2.2-1.5-3.4 0-1.7-.2-1.8-1-.6-.8 1.3-1 1.2-1-.3 0-.9-.4-1.7-1-1.7-.5 0-.9-.4-.7-.9.1-.5-.2-.9-.8-.9-.5 0-1.2-.8-1.5-1.8-.6-1.6-.7-1.6-1.4.2M995 246.2c.1.7 1.9 3.8 4 6.8 7.6 10.5 22.7 33.5 25.6 38.9 1.6 3 3.5 5.6 4.1 5.8.7.3 1.3-2.4 1.7-7.9 2.4-32.2 2.4-32.9 1.8-15.3-.4 9.3-.7 19.8-.7 23.2 0 3.3-.3 5.9-.7 5.7-.4-.3-.9 1.5-1.1 3.8l-.4 4.3-.1-4.3-.2-4.2-7 4.7c-6.6 4.5-8.5 7.3-6 8.8.6.3 1 1.1 1 1.7 0 .5-.8 0-1.8-1.2l-1.8-2.3-2.7 7.9c-3.8 11.2-3.9 11 4 11.7 3.7.4 6.8.5 7 .4.1-.2-.4-2.5-1.2-5.2-.8-2.6-1.3-5.1-1-5.4s.8.4 1.1 1.4c.3 1.1 1.3 3.8 2.4 6 1.6 3.5 1.9 3.7 2 1.5.1-3.3 2.9-13.1 2.9-10.5 0 1.1-.4 4-.9 6.5-.4 2.5-.7 4.7-.5 4.9.2.1 1.9-.8 3.7-2.2s6.1-4 9.6-5.8c4.7-2.4 6.4-3.9 6.8-5.8.3-1.4.9-3.3 1.4-4.2 1.1-2.1 4-13.6 4-16.2.1-1.2 1-5.6 2-9.7 1.1-4.1 1.7-5.7 1.4-3.5-1 7.9-5.2 27.3-6.5 29.7-.5 1-.6 1.8-.1 1.8.8 0 2.5-1.3 9.6-7.9 2.2-2 3.3-2.6 2.5-1.5-.8 1.2-3.7 4.2-6.5 6.8-3.9 3.4-5.4 5.6-6.2 8.8-1.2 5.1-1.2 7.8 0 7.9.4.1 1.4.2 2.1.3 1.4.2 5.7-6.7 10.5-16.9 4-8.5 3.3-3.8-.9 5.8-1.7 3.8-2.9 7.2-2.7 7.6.2.5 3.9-2 8.4-5.5l8-6.3.3-9c.1-5 .4-9.9.6-11.1.2-1.1.1-2-.3-2-.9.1-7.2 8.6-7.2 9.8 0 .5-.7 1.6-1.6 2.3-1.5 1.2-1.6 1-1-2.6.4-2.2 0-12.3-.8-22.4-.9-10.1-1.3-18.8-1-19.3.3-.4.1-.8-.3-.8-.5 0-2 4.6-3.3 10.1-1.3 5.6-2.6 9.7-2.7 9.2-.2-.6.5-4.6 1.7-8.9 1.1-4.4 2.3-10.7 2.7-14l.6-6.2-4.4-.6c-2.4-.4-6.4-1.1-8.9-1.6s-6.5-1.1-8.9-1.4l-4.4-.4.6 4.6c.3 2.6.8 6.3 1.1 8.2.5 2.8.3 2.6-.8-1-.7-2.5-1.8-4.4-2.4-4.3-.7.2-.9-1-.5-3.1.4-2.7.1-3.6-1.3-4.4-1.1-.5-8.9-1.3-17.4-1.7s-16.3-.9-17.2-1.1c-1.1-.3-1.8 0-1.8.8"/><path d="M992 250c0 1.4-1.1 6.8-2.5 12-1.3 5.2-2.3 9.5-2.2 9.6s4 2.8 8.7 5.9c5.4 3.5 8.6 5.1 8.8 4.3.3-1.6-10.5-31.9-11.8-33.2-.7-.7-1-.1-1 1.4M998 255.2c0 1.4 9.2 26.3 10.6 28.5.8 1.2 4.2 4.1 7.6 6.4 3.5 2.4 6.6 4.7 7 5.3s1 .8 1.3.4c.6-.6-1.3-4.4-5.9-11.7-1.5-2.2-2.6-4.3-2.6-4.7 0-.3-3.4-5.1-7.5-10.7s-8.2-11.1-9-12.2-1.4-1.7-1.5-1.3M937.3 264.8c-2.1 3.7-4.1 7.4-4.5 8.3-.3.8-2.4 4.6-4.7 8.2-2.3 3.7-4.1 7.1-4.1 7.5s-.9 1.8-2 3.2-2 3.3-2 4.2c0 1-.4 1.8-.9 1.8s-1.1.7-1.4 1.5c-.5 1.1-.1 1.2 1.6.5 5-1.9 10.5-4.3 15.7-6.7 5-2.4 10.3-4.8 33.7-15.1 4.5-2 8-3.9 7.7-4.3-.2-.4.4-.5 1.5-.2 1 .3 2.1 0 2.5-.5.6-1-8.1-5.2-10.8-5.2-.8 0-1.8-.5-2.2-1.1-.3-.6-1.7-.9-3.1-.6-1.3.2-2.1.2-1.8-.1.6-.6-8.4-4.2-16.5-6.6l-4.9-1.5zM987.8 275.5c-.3.3.1 3.8.8 7.8.8 3.9 1.6 9.1 2 11.4.4 2.4 1 4.3 1.4 4.3 1.2 0 13-11.3 12.9-12.4 0-1.7-16.1-12.1-17.1-11.1"/><path d="M1005.5 290.3c-1.1 1.2-4.5 4.3-7.5 6.9l-5.4 4.7 4 1.7c5.1 2.1 12.6 6.5 12 7.1-.2.2-4-1.4-8.4-3.6-6.2-3.1-8.2-3.7-9.2-2.8s-1.4.9-1.7 0c-.3-.7-1.4-1.1-2.6-.8-21.9 4.5-24.7 5.5-22.8 8 .4.5 1.5 3.1 2.5 5.7 1.7 4.6 1.9 4.8 5.6 4.8 3.3 0 4.3-.6 6.7-3.7 1.5-2 4.3-5.2 6.1-7.2 3.2-3.5 3.2-3.4-.8 2.8-4.6 7.3-4.5 7.5 4 8.6 3 .4 5.8.9 6.3 1.2 1.1.6.9-1.5-.8-7.7-.8-3-1.2-5.6-1-5.8s.9 1.6 1.5 3.9c1.6 6.2 4.3 11.7 5.9 12.4.8.3 2.6-.8 4.2-2.7 3.2-3.7 3.5-3.5 1.5 1.3-1.3 3.4-1.2 5.9.4 5.9.4 0 1.1-.7 1.4-1.6.3-.8.2-1.2-.4-.9-1.5.9-1.3.1 2.5-7.7 2.2-4.8 3-7.5 2.3-7.9-.6-.4-.7-1.2-.4-1.8.4-.6-.2-3.1-1.3-5.4s-2.2-5.6-2.6-7.2c-.4-2.3-.3-2.5.3-1l.9 2 .4-2c.4-1.7.7-1.5 2.2 1.4.9 1.9 1.7 5 1.7 7 0 6.3 1 6.3 8.8.4 4-3 7.2-5.6 7-5.8-.2-.1-3.9-2.7-8.4-5.8-9.6-6.6-12.1-7.4-14.9-4.4M916.5 306c.5.9.2 1-1.4.5-1.5-.4-4.9 1-12.3 5.2-5.7 3.2-10.7 6-11.3 6.1-4 1.4-23.3 11.7-22.9 12.3.5.9 9.7 6 23.8 13.3 6.5 3.4 9.2 4.3 10.1 3.6.9-.8 1.4-.8 1.7 0 .3 1.1 25.7-1.6 27.1-2.9 1-1-3.3-12.4-9.5-24.9-2.7-5.7-4.8-10.6-4.4-10.9.3-.3 1.8 2.3 3.4 5.8s4 8.9 5.4 11.9 3.5 7.7 4.7 10.4l2.1 4.9 2.3-1.9c8-6.8 24.2-27.6 23.3-30-.3-.8-1.9-1.4-3.8-1.4-3.8 0-24.4-1.7-33.2-2.6-4.6-.5-5.7-.4-5.1.6M960 310.8c0 .6-2.5 4.6-5.6 8.9-3.1 4.2-6 8.7-6.6 9.8-1.1 1.9-1 1.9.9.2 1.1-.9 2.7-1.7 3.5-1.7 1.4 0 12.5-3.8 13.7-4.6.9-.7-2.3-10.4-4-12-1-.9-1.9-1.2-1.9-.6M1035.4 329.6c-10.1 6.8-9.8 6.1-7.8 12.6l1.7 5.5 2.3-2.6c1.3-1.4 3.2-3.5 4.3-4.6 3.3-3.3 9.4-15.5 7.8-15.5-.7 0-4.4 2.1-8.3 4.6M866.2 346.7c0 8.2.4 16.7.7 19.1l.6 4.2 5-2.6c8-4.3 26.5-16.8 26.2-17.8-.1-.4-3.4-2.5-7.2-4.5-3.9-2.1-10.9-5.8-15.6-8.4s-8.9-4.7-9.2-4.7c-.4 0-.6 6.6-.5 14.7M927 346.7c-8.2.7-20.5 2.5-21.8 3.2-1 .6.4 2.7 5.5 8.2 14.5 15.6 15.5 16.5 14.8 14.3-.5-1.8-.2-2.1 2-1.6 1.5.2 2.5 0 2.5-.7 0-.6.9-1.1 2-1.1 1.7 0 1.9-.5 1.6-2.8-.3-1.5-.6-6.4-.8-10.9-.1-4.6-.7-8.4-1.3-8.5-.5-.2-2.6-.2-4.5-.1M886 361.6c-8 5.2-14.4 9.9-14.3 10.4.2.5-.4.7-1.2.4-3.4-1.3-1.2 1.6 3.8 5 7.9 5.5 9.6 6.6 17.2 11.4 3.9 2.5 9.3 6 12 7.8 2.8 1.9 5.3 3.4 5.7 3.4s.2-1.5-.3-3.3c-1.2-3.8-1.6-6.1-2.4-14.7-.4-3.6-1.5-10.9-2.6-16.2-1-5.3-1.9-10.6-1.9-11.7 0-1.2-.3-2.1-.7-2.1-.5 0-7.3 4.3-15.3 9.6M907.4 359c.7 2.4.6 2.4-.8.6-1.9-2.4-2-1.8-.2 5.9.8 3.3 1.7 8.2 2.1 11 .7 4.3.9 4.7 1.6 2.5.7-2.4.7-2.4.9.5.1 2.4.3 2.6.9 1.1.7-1.7.8-1.6 2.4.7.9 1.5 1.7 3.3 1.7 4.2 0 1 .9 1.5 2.6 1.5 2.3 0 2.5-.3 2-2.5-.4-1.4-.2-2.5.4-2.5.5 0 1-.5 1-1 0-.6-.9-1-2-1-1.6 0-1.8-.4-1.1-2.3.4-1.2.6-2.8.4-3.5-.3-.6-.1-1.2.4-1.2s1.5.6 2.3 1.2c.8.7-.8-1.2-3.5-4.2s-5.2-5.7-5.5-6-1.8-2.1-3.4-4c-2.6-3.1-2.8-3.2-2.2-1M1002.7 389c-2.4 2.8-7.7 16.7-7.7 20.1 0 1.2 2 1.8 8.3 2.8 4.5.7 9.7 1.5 11.6 1.8 2.9.5 3.3.3 2.8-1.3-1.2-4.4-2.7-11.3-3.7-16.5-1.1-5.6-3.3-7.9-7.6-7.9-.8 0-1.2-.5-.9-1 1.3-2.1-.4-.9-2.8 2M931.1 391.2c-1.9.5-6.7 3-10.5 5.5-6.8 4.4-7 4.6-4.6 5.5 4.2 1.6 24.2 5.9 24.8 5.4.7-.7-3.8-14.8-5.2-16.2-.8-.8-2.2-.8-4.5-.2M962.5 395.1c-4.4.3-6.7.6-5.2.7 3.1.2 2.8 2.2-.4 2.2-3.1 0-2 2.5 4.1 9.1l5.5 6 1.2-4.3c1.8-6.8 3.4-14.1 3.1-14.2-.2 0-3.9.2-8.3.5M972 401.7c-.7 3.2-1.6 7.3-2 9-.5 1.8-.5 3.5-.2 3.7.7.3 19.4-3.3 20-3.9S975 396 973.7 396c-.3 0-1.1 2.6-1.7 5.7M1065 412.9c0 .5.7 1.6 1.5 2.5 1.7 1.7 2 4.6.5 4.6-.5 0-1-.6-1-1.3 0-.8-1.1-1.9-2.5-2.5l-2.5-1.2 1.6 3.8c.8 2 1.7 4.4 1.9 5.2s.8 2.9 1.4 4.7c.5 1.7.7 3.4.4 3.6-.2.3.7 2.7 2.1 5.3 1.4 2.7 2.6 5.7 2.6 6.6 0 1.4.7 1.6 4.1 1.3 2.3-.3 4.4-.7 4.7-.9.2-.3-2.3-5.7-5.7-12.1s-5.9-12.1-5.6-12.5c1.3-2.1 1.2-6.9-.2-7.4-2.1-.9-3.3-.7-3.3.3M1012.8 427.8c-2 2.6-8 11.1-13.4 18.9-5.3 7.9-10.1 14.3-10.6 14.3-1.4 0-.9 5.8.6 6.7.7.4 3.2 3.6 5.4 7 3.1 4.9 4.2 6 5.1 5 1-1.3 6.9-20.5 9.7-31.7.7-3 2.7-9.7 4.4-14.9s2.9-9.5 2.7-9.7c-.1-.2-1.9 1.8-3.9 4.4M1060.8 448.5c-.2.3-9.2.7-19.9 1.1-10.7.3-19.5.7-19.7.9-.3.3 5.7 3.6 14.1 7.7 3.9 1.9 6.6 2.7 8 2.2 3.6-1.1 20.7-10.7 20.7-11.6s-2.4-1.1-3.2-.3M999.6 488.1c-.2.8-1.4 4.3-2.5 7.8l-2.1 6.3 6.7 6.9c3.6 3.8 6.9 6.9 7.3 6.9 1.3 0-.8-8.4-4.6-18.5-4.1-11.2-4.2-11.3-4.8-9.4M256.9 420.3c-5.3 3.9-12.1 9-15.2 11.2s-5.3 4.3-4.9 4.7 4.3.9 8.7 1.3c4.4.3 10.5.8 13.5 1 8.3.8 8.4.5 8.8-13.5.2-6.6 0-12-.5-12-.4 0-5.1 3.3-10.4 7.3M383.8 535.9c-2.1.8-8.8 6.9-8.8 8.1 0 1.1 10.1 6 19.5 9.5 10.2 3.8 10.5 3.9 10.6 2.4 0-.8.4-4.7.8-8.7.4-3.9.3-7.2-.2-7.2-.4 0-.6-.4-.3-.9.3-.4-2.5-1.1-6.2-1.5-12.2-1.3-11.2-1.5-13.1 3.1-1.5 4-4.1 7.6-4.1 5.9 0-.4.9-2.7 2.1-5.2 2.3-5.1 2.2-6.4-.3-5.5"/></svg>