<svg xmlns="http://www.w3.org/2000/svg" width="1706.667" height="960" viewBox="0 0 1280 720"><path d="M0 360v360h612.8l1.6-4c.9-2.2 1.8-4 2.1-4s.2 1.8-.1 4l-.7 4h12.8l5.5-7.5c3-4.2 5.3-8.1 5.2-8.8-.2-.7-.1-.9.3-.5s3.6-3.1 7.1-7.8c5-6.6 6.4-9.3 6.5-12.2q.15-3.9.6-1.2c.9 5.4 3.7 9.1 18.1 23.2 14.9 14.8 15 14.8 19.6 14.8 2.5 0 4.6-.2 4.6-.4s-.7-2-1.5-3.9c-2.3-5.5-1.7-5.8 1.1-.5l2.4 4.8h582V0H0zM448.5 55c-1.8.7-1.7.9 1.5 2.4 4.5 2 2.5 2.1-3.1.1-2.3-.9-4.6-1.2-4.9-.8-.4.5-1.5 5.1-2.4 10.3-3.9 22.8-4.8 27.8-6.2 33-1.6 6.3-1.8 11-.4 11 .5 0 8.4-3.4 17.7-7.5 9.2-4.1 17.1-7.5 17.5-7.5s7.7-3.3 16-7.4c8.4-4 17-7.9 19.1-8.5 2-.7 3.7-1.6 3.7-2.1s-3.5-2-7.7-3.3c-13.6-4.4-29.3-10.1-28.8-10.5.3-.4 25.3 7.5 31 9.8 8.4 3.3 8.1 3.3 15.5.5 3.8-1.5 7.2-3.1 7.6-3.6.6-1.1 2.4-1.2 2.4-.2 0 .5-3.2 2.1-7.1 3.7-3.8 1.6-6.7 3.2-6.2 3.5 1.6 1.3 44.2 17.1 46.1 17.1.6 0 1.3-.6 1.5-1.3.3-.7.6-.5.6.5.1 1 .7 1.8 1.5 1.8s1.6.4 1.8.9c.4 1.3 44.9 23.1 47 23.1 1.3 0 1.8-.8 1.9-3.3.1-1.7.5-4.3.9-5.7.8-2.5.8-2.4.9.5.1 1.7-.3 4.4-.8 6.1-.9 3.1.4 7.8 2.9 10.6 1.6 1.9 10.5 15.9 11.9 18.8l1.2 2.5-1.8-2.2c-1-1.2-4.7-6.7-8.2-12.2-3.4-5.6-6.7-10.1-7.1-10.1-.5 0-1.2 1-1.6 2.2-.8 2.9-12.7 30.3-14.7 34.3-2.1 3.9-8.7 18.4-8.7 19 0 .3-1.4 3.3-3.1 6.7-1.6 3.5-3.7 7.8-4.5 9.7l-1.4 3.3 6.8-.7c3.7-.3 16.2-2.2 27.7-4 26.8-4.3 31.1-4.9 30.5-4.2-.6.6-36.5 6.7-54.4 9.2-6 .8-11.2 1.7-11.4 2-.3.3.4 1.5 1.5 2.8 3.5 3.9 3.7 5.3.3 2.2l-3.3-3 .8 18.5c.4 10.2 1.1 31.3 1.5 47 .5 15.7 1 29.4 1.1 30.5s.1 4.5-.1 7.5l-.3 5.5-.7-5.5c-.5-3-.8-13.6-.9-23.5-.1-23.9-2.3-76.5-3.2-76-.3.3-.9 1.8-1.2 3.3-.3 1.6-1.7 5.4-3.2 8.5-1.4 3.1-4.3 10-6.4 15.4-3.6 9.3-8.1 19.8-12.1 28.8-1 2.2-3 6.9-4.5 10.5s-3.6 8.4-4.8 10.8l-2 4.3 3.4 3c2.2 1.9 2.6 2.6 1.2 1.9-1.2-.5-2.5-1.5-2.8-2-1.1-1.8-2.2-1.1-5.9 4.2-2 2.9-3.6 4.9-3.6 4.6 0-1.1 4.3-8.2 5.5-9 1.4-1 .9-1.1-14-.9-20.3.2-27 1-29.5 3.4l-2.2 2 .6-2.1c.8-2.5 1.6-2.2-15.9-5.6-14-2.7-14.5-2.4-9.6 5.6 1.7 2.7 3.1 5.2 3.1 5.4 0 .3 1.6 2.5 3.6 5 3 3.6 3.9 4.2 5.4 3.4 1.3-.7 2-.6 2.3.3.4.8 1.7-.1 3.7-2.3l3.1-3.5-1.6 3.9c-2.1 5.3-2 5.9 1.8 7.5 4.6 2.1 12.7 8.4 12.3 9.7-.5 1.3 5 5 8.7 5.9 3 .8 3.6-.5 1.2-2.5-.8-.7-1.5-2-1.5-2.9s-.6-2.5-1.4-3.6c-1.9-2.8-4.7-9.7-3.6-9 .5.3 2.8 4.5 5.1 9.3s4.4 8.9 4.6 9.2 1.3-.6 2.3-2c2.1-2.6 2.7-1.2 1 2-.9 1.7-.6 2 1.7 2.5 6.3 1.4 6.9 2.5 1.3 2.2l-5.5-.2-.2 15.5c-.2 12.1 0 15.9 1.1 17.3 1.4 1.8 1.8 1.6 6.3-3.5 2.6-2.9 8.7-9.3 13.6-14.2 4.8-4.9 8.7-9.3 8.7-9.8 0-1-1.1-1.4-6.4-2.3-2.1-.3-3.6-.8-3.4-1.1.3-.2 2.7 0 5.4.5s5.1.6 5.4.2c.3-.5 1.2-.8 2-.8 2.9 0 29.2-15.6 30.3-18 1.1-2.5 2.3-3 3-1.1.3 1 1.2.9 3.8-.4 1.9-.9 5.7-2.6 8.4-3.8 6-2.6 16.7-7.4 37.8-17 8.7-4 16-7 16.3-6.7.2.2-2.8 1.9-6.8 3.7-7.3 3.3-12.1 5.5-31.4 14.4-5.6 2.5-10.4 4.6-10.8 4.6-.3 0-3.6 1.4-7.1 3.2-4.5 2.1-6.5 3.7-6.5 5 0 2-1.5 2.4-2.6.7-.3-.6-1-.7-1.4-.2-1.2 1.2-2.4 42.3-1.3 42.3s27.4-20.7 33.3-26.2c4.6-4.3 19.6-22.6 30.4-37.1 3.2-4.2 6-7.7 6.3-7.7s.1.6-.4 1.2c-.5.7-5 6.7-9.9 13.3s-9.4 12.6-10.1 13.3-3.4 4-5.9 7.4c-3.4 4.4-4.3 6.2-3.4 6.8s.6 1-1.1 1.5c-1.3.4-8.7 5.8-16.4 11.9-7.7 6.2-15.7 12.5-17.7 14-4.3 3.2-4.6 4.2-1.7 5.1 1.1.4 1.9.9 1.6 1.1-.2.3-1.6 0-3-.5-2.9-1.1-3.8-.4-5.5 4.4-1 3-1 3-.8-1 .1-2.2.7-4.9 1.3-6s1.1-6.1 1.2-11c0-5 .4-14.1.7-20.3.5-7.4.3-11.2-.4-11.2-.5 0-3.9 1.7-7.3 3.8-3.5 2.1-9.5 5.5-13.4 7.6-3.8 2.1-7.4 4.1-7.8 4.5-.8.8 9.8 10.9 20 19.2 2.9 2.3 5.1 4.5 4.8 4.7-.5.6-1.2 0-16.5-13.1-5-4.3-9.5-7.5-10-7.2-.6.3-1 1.7-1 3 0 1.2-.6 5.6-1.4 9.6-5.3 27-6.6 33.8-6.6 34.8 0 2.1 2.5 1.1 9-3.4 17.6-12.2 26.1-17.8 26.5-17.3.3.2-3 2.8-7.3 5.8-18.6 12.9-26.4 18-27.3 18-.5 0-.9.7-.9 1.5s-.3 1.5-.7 1.6c-.5.1-2.1.2-3.8.4-3.4.3-24.7 6.1-28.5 7.8-1.4.6-2.9 1-3.3.9-1-.3-24.7 4.7-25.8 5.4-.4.2-.6 1.2-.3 2.2.5 1.3.4 1.4-.4.3-.5-.7-1.4-1.1-1.9-.8-1.9 1.2-11.3 17.6-10.8 18.9.3.7-.6 1.8-2.1 2.5-2.3 1-2.4 1-1.3-.4 1.1-1.3-.3-3.1-10.4-12.9-6.4-6.3-11.9-11.4-12.1-11.4-.3 0-.7.8-.9 1.7-.3 1-.5.3-.6-1.6l-.1-3.4-9.2.7c-5.1.3-12.8 1.1-17.1 1.7-10.7 1.5-11.2 2.8-4.4 10.7 10.6 12.4 34 38.1 35.1 38.5.8.3.8-1.8-.1-8.7-.6-5-1.1-10.9-1.1-13.1s.6.1 1.3 5.1c1.8 13 2.5 16.4 3.5 16.4.4 0 2.9-3.6 5.4-8 2.6-4.4 4.9-8 5.2-8 1 0-8.3 16-10.1 17.2-1.8 1.4 3.5.8 7.2-.7 1.9-.8 4.3-1.5 5.2-1.4 2.3 0-7 3.8-9.6 3.8-1.3.1-2.3.7-2.3 1.5 0 1.8 21.2 22.2 24 23.1 2 .6 2 .8.5 2.5-.9 1-2.2 1.7-2.9 1.4-.6-.2-3.5.7-6.4 2.1-2.8 1.4-5.4 2.5-5.7 2.5-.6 0-20.7 9.9-21.4 10.5-.1.2.9 2 2.4 3.9 1.5 2 2.2 3.6 1.6 3.6s-1.1-.3-1.1-.8c0-.4-1.1-2-2.6-3.7-1.8-2.1-2.9-2.7-3.9-2-.7.6-5.2 4-9.9 7.8-4.8 3.7-9.5 7.3-10.6 7.9-2.9 1.8-2.5 3.8.8 3.9 1.5 0 3.8.2 5.2.4 9.8 1.1 31 1.6 31 .7 0-.6-1.3-3.1-3-5.5-1.6-2.5-3-4.9-3-5.3 0-.5 1.6 1.5 3.5 4.3 1.9 2.9 4.4 5.7 5.6 6.3 1.6.9 1.8 1.4.8 2.6-.6.8-1.6 1.4-2.2 1.4-1.4 0-20 9.5-26 13.3l-4.8 3 2.3 2.5 2.3 2.6-2.5-1.5c-4.2-2.6-6.6-2.7-13.7-.8-3.7 1.1-9.5 2.4-12.8 2.9s-10.2 1.6-15.3 2.4-10.6 2.1-12.1 2.9c-2.3 1.1-2.9 1.1-4 0-.7-.8-2.1-1.1-3.1-.8s-2.1.2-2.4-.4c-.8-1.2-7.4-4.6-10.6-5.4-1.4-.4-3.6-1.6-5-2.7-2.5-1.9-2.5-2-.3-2 1.2 0 2.6.6 3 1.3s3.5 2.3 6.8 3.5c3.3 1.3 6.8 2.8 7.7 3.3 4.6 2.4 5.6.5 6.1-11.6.2-5.3 0-6-1.8-6.1-1.1-.1-4.7-.3-8-.5l-6-.4-2.4 4.8c-1.3 2.6-2.5 4.6-2.7 4.5-1-1.1 2.6-9.4 4.4-10.4 2.1-1 2.1-1.1-.6-3.2-2.5-2-2.6-2.1-.6-2.1 1.3-.1 2.9 1 3.8 2.4s2.4 2.5 3.4 2.4c1.4 0 1.4-.2-.3-.9s-1.5-.9 1.3-.9c1.7-.1 3.2.3 3.2.9 0 .5 1.1 1 2.5 1 1.6 0 2.5-.6 2.5-1.5 0-2 2.7-1.9 3.8.2.8 1.4 2.4 1.5 13.3.9 6.8-.4 19.4-.8 28-.9 11-.1 16.1-.6 17.1-1.5.9-.7 2-1.2 2.4-1.1 1.2.3 8.6-1.2 8.2-1.7-.2-.1-6.8-.8-14.7-1.4-14.1-1-14.4-1.1-23.8-5.7-7.8-3.9-9.6-4.4-10.4-3.2-.8 1.1-1.3.9-3.3-1.2-3.1-3.6-6.7-5.9-9.7-6.1-2.7-.2-13.9 4-13.9 5.2 0 .4-2-.2-4.5-1.4-3.2-1.5-4.7-2.9-5.4-5.1-.5-1.7-1-2.2-1-1.3-.1.9-1.5 2.3-3.1 3.2l-3 1.5 2-2.6c1.7-2.2 2-4.1 2.1-12.2 0-5.3.4-11.6.8-14.1l.7-4.5.7 3.3c.4 1.9.2 4.2-.4 5.3-.5 1.1-.9 4.7-.7 8.2l.3 6.2 1.8-3.7c.9-2.1 1.7-5.4 1.8-7.5 0-2.1.9-5.8 1.9-8.3 2.1-5 2.6-4.4 1 1-.6 1.9-1.5 6.8-2 10.9-.6 4.1-1.5 8-2.1 8.7-.9 1.1-.7 1.4.7 1.4s1.5.3.6 1.2c-1.7 1.7-1.5 2.8.6 2.1.9-.3 1.4-.3 1 .2-.4.4-.3 1.4.3 2.2 1.3 1.5 4.3 1.8 3.4.3-.4-.6-.2-1.6.3-2.3s1.2-3 1.5-5.2c.8-6.2 2.9-17.8 3.5-19.5.6-1.5.8-2.5 1.1-4.5.2-1.3 5.1 8.6 5.1 10.2 0 .7.5 1.3 1 1.3.6 0 1 .7 1 1.7 0 4.4 1.3-.5 2.3-8.8 1.2-9.2 1.2-9.2 4.2-9.6 1.6-.3 5.8-1.8 9.3-3.4s6.8-2.9 7.3-2.9.9-.8.9-1.8c0-1.3.2-1.4.9-.4.4.7 1.9 1.3 3.2 1.3 3.7.1 11.2 2.1 13.7 3.7 2 1.3 2.2 1.3 2.2-.6 0-1-1-5-2.3-8.8-10.4-30.6-10.7-31.2-10.7-21.7 0 3.4.4 6.3 1 6.5q.9.3 0 1.8c-.7 1-1.2 1.2-1.7.4-1.2-1.8-43.3-4.5-43.3-2.8 0 .3 1.7 2 3.8 3.9 7.2 6.5 7.8 7 6.7 6.5-2.5-1.4-10.2-6.6-12.4-8.4-1.6-1.4-2.5-1.7-2.8-.9-.2.7-1 1-1.8.7-.7-.3-2.5 1.1-4.1 3.3-4.4 6.1-4.7 6.1-1.8.5 1.5-2.9 2.4-5.5 2.1-5.8s-4.4-.8-9-1.1l-8.4-.6.5 3.4c.4 3.3.4 3.4-1.2 1.2-.9-1.2-1.7-3.2-1.7-4.5-.2-2.2 5.5-18 11.9-33.3 3.6-8.7 9.5-29.2 8.8-30.8-.2-.7-.5-.4-.5.6-.1 1-.7 1.7-1.3 1.6-3.1-.4-4.1.7-11.3 10.8-8.2 11.6-8.2 12.3-.8 12.3 2.3 0 4.5.5 4.9 1.1.4.8-1.3.9-5.9.4l-6.4-.7-.6 3.3c-.3 1.9-.6 7-.7 11.3 0 4.4-.3 8.2-.5 8.5-.3.2-.5-4-.5-9.5-.1-12.6-.6-13.4-8-12.3-3 .5-8.1 1.2-11.2 1.5-6.9.8-6.9.9-2.8 11.3 3.8 9.7 2.1 7.9-2.3-2.4-1.9-4.4-4-7.9-4.6-7.8-.6.2-1.1-.9-1.1-2.5 0-1.8-.3-2.3-.8-1.4-.5.7-1.6 1-2.7.6-1.1-.5-2.2-.2-2.9.7-.6.8-2.3 2.2-3.9 3.2-2.5 1.6-2.7 2.1-2.1 6 .4 2.3 1 4.6 1.5 5.2.5.5.9 2.1.9 3.6s.5 4 1.1 5.5c.7 2 .7 4.2-.2 7.6-.8 3.7-.8 5.2 0 6.2.7.8.9 2.5.5 4-.6 2.7 2.4 13.1 5.8 19.9 1.1 2.1 1.7 4.4 1.5 5-.3.7-.8.3-1.2-.8s-1.7-4.6-3-7.8l-2.2-5.7-.6 9.9c-.3 5.4-.3 11.5 0 13.6.4 2.7.2 3.5-.8 3.3-.7-.2-1.6.9-2 2.7-.5 2.5-.7 2.6-.8.7 0-1.3.3-3.1.8-4 1.7-3.2 1.2-44.3-.5-46.1-.2-.2-.7 1-1 2.8-.4 1.7-1 3.4-1.4 3.6-.5.3-.6-.4-.3-1.5.6-2.4-.4-2.9-9.4-4l-6.8-.9 8.5.2 8.5.2.1-8.5c.1-4.7-.1-10.4-.4-12.7l-.4-4.3-6.7 5.8c-3.6 3.2-9.7 8.2-13.4 11.2-3.8 2.9-6.5 5.6-6 6.1.4.4 2.8.9 5.3 1.2 3.5.3 3 .4-2.2.5-3.8.1-6.8-.2-6.8-.7s1.1-3.1 2.4-5.8c1.3-2.6 5.2-10.7 8.6-17.8 16.4-34.3 17.5-37.9 14.5-46-1.4-3.4-1.6-6.1-1.2-11.1.6-5.6.2-7.8-2.3-15.5-1.7-4.9-3-9.9-3-11.2.1-1.2 1.2 1.1 2.5 5.1 3 9 3.1 9.1 5.3 8.5 1.4-.3 1.8-1.1 1.4-2.9-.2-1.3-.8-2.7-1.3-3s-.9-1-.9-1.5c0-2 1.9.2 4 4.6 1.2 2.5 2.6 4.5 3 4.5.5 0 1.5.3 2.4.6 2.4.9 2.1-7.6-.4-12.6-2.6-5-2.6-7.7 0-3l1.9 3.5.1-3 .1-3 1.5 2.7c.8 1.6 1.7 2.8 2 2.8s.3-.4 0-.8c-1.4-2.3-2.4-23.7-1.2-25 .3-.2.8 2.3 1.1 5.5.4 3.2 1.2 6.4 1.7 7 1.7 2.2 5.1 1.4 9.1-2l3.7-3.2-3.8-4C297.9 306 292 298 292 296.8c0-.4 1.7 1.1 3.7 3.4 8 9.2 11.8 12.4 14.8 12.3 3.8-.2 4.1-1.6 1.6-6.8-1.9-3.8-3.1-4.8-10.8-8.6-4.7-2.4-10.1-4.5-12-4.8-2.4-.4-3.3-1.1-3.3-2.4 0-1.1.5-1.9 1-1.9.6 0 .9-.3.8-.8-.2-1.2 1.4-6.6 2.5-7.9.5-.7.7-2.4.5-3.8-.3-1.4-.2-2.8.2-3 .5-.3 1.1-2.4 1.5-4.8 1.1-7.6 2.7-13.7 3.5-13.7 1.4 0 2.1 1.8 1 2.5-1.4.9.1 3.4 5.6 9.1 4.7 4.8 4.7 4.8 5.6 2.3.6-1.3.7-7.8.5-14.4-.4-8.1-.3-10.7.3-8 .5 2.2.9 9 .9 15.1l.1 11.1 5 3.4c7.2 4.9 11.9 7.2 13.3 6.6.7-.3 1.9-3.5 2.6-7.2 1-4.7 1.7-6.3 2.4-5.6.8.8.8 1.4-.1 2.3-.7.7-1.2 2.6-1.2 4.3 0 1.6-.4 4.5-.9 6.3-.9 2.9-.7 3.4 1.7 4.7 2.3 1.3 2.3 1.5.5 1-1.3-.4-2.3-.4-2.3-.1 0 1.7 8.3 20.4 10.4 23.7 1.5 2.1 2.6 4.5 2.6 5.4 0 .8.9 1.5 1.9 1.5 4.5 0 21.4-11.5 18.6-12.6-.5-.2-3.5-2-6.5-3.8-3-1.9-8.6-5.1-12.5-7.1-3.8-2-7.7-4.4-8.5-5.2-1.4-1.5 7.5 3 19.8 10 2.9 1.6 5.6 2.7 5.9 2.3.6-.5-4.3-16.1-8.7-28.1-1-2.8-3.4-10-5.4-16-1.9-6.1-4.4-13.5-5.5-16.5-2.2-5.8-2.7-8.5-1.2-7.6.5.3 1.2 2.3 1.6 4.3.4 2.1 2 6.5 3.6 9.8s2.9 6.7 2.9 7.6c0 2.6 15 47.2 16.3 48.6.4.3 1.2-.7 1.8-2.3.7-1.6 2-4.8 3-7.1 1.1-2.4 1.9-4.5 1.9-4.9 0-.3 3.5-9.4 7.9-20.2 4.3-10.8 9.1-23.3 10.6-27.7s3.6-9.4 4.6-11.3c1.1-1.8 1.9-3.7 1.9-4.2 0-1-30.9-.6-48.8.6-6.9.5-8.5.9-9.7 2.7-1.2 1.7-1.5 1.8-1.5.5 0-.9-.3-1.9-.8-2.2-.4-.2-5.9.4-12.2 1.5-12.6 2-13.6 2.1-12.8 1.4.2-.3 3.1-1 6.4-1.5 12-2 17.5-3.3 18-4.2.3-.4-.7-3.8-2.1-7.4-3.6-9.1-11.5-31.1-12.7-35.7-1.4-4.9-3-4.3-3.5 1.4-.2 2.4-1.3 8-2.3 12.4-1.1 4.4-2.9 12.9-4.1 19-1.2 6-2.5 12-3 13.2-.5 1.5-.5 2.3.2 2.3.6 0 .8.9.4 2-.3 1 .1 3.3 1 5 .8 1.6 1.3 3 1 3-.4 0 .1 1.2.9 2.7.8 1.6 2.6 5.9 4 9.8 1.3 3.8 4.3 11.6 6.6 17.3s4 10.5 3.7 10.8-1-.3-1.5-1.3c-1.4-2.6-14.2-36-14.2-37 0-.5-.8-1.9-1.7-3.2l-1.6-2.4-2.5 5.4c-1.4 3.1-2.6 4.8-2.9 4-.3-.7-.1-1.6.5-2s1.6-2.9 2.2-5.6c.6-2.8 1.8-7.3 2.6-10 2.9-9.8 5.1-23.9 4-25.1-1.5-1.6-2.8.8-3 5.8-.1 2.1-.8 4.4-1.5 5.1-1.1 1-1.2.2-.5-4.3.4-3 .8-7.3.9-9.5.3-6.8.4-7 1.7-5.7 1.9 1.9 2.6 1.4 2-1.4-.3-1.6.5-4.3 2.1-7.2 2.5-4.7 6-15.2 5.3-15.9-.2-.2-1 1-1.7 2.6-1.9 4.2-3.3 4-1.6-.2.8-1.7 1.9-5.7 2.6-8.7 1.3-5.8 3.2-11.3 3.7-10.8.1.2-.3 2.8-1 5.8s-.9 6.6-.5 8l.7 2.5 1.3-3.3c.7-1.7 1.7-3.2 2.2-3.2.4 0 .5.4.2 1-1.2 1.9.9 1 3.9-1.8l3.1-2.7-3 3.5c-1.6 1.9-3.2 3.7-3.5 4-3.5 3.6-3.8 4.6-2.9 9.5.5 2.7 3.1 11.1 5.8 18.5s6 16.3 7.2 19.7c1.2 3.5 2.5 6.3 2.9 6.3 1 0 3.2-9.6 6-26 1.2-6.9 3.3-17.3 4.6-23.2s2.3-11.1 2.2-11.5c-.6-2.6 5.2-28.3 6.5-28.3.5 0 .6.8.2 1.7-1.2 3.1-2.2 11.3-1.7 13.8.2 1.4 0 2.5-.6 2.5s-1.4 2.1-1.7 4.7c-.4 2.7-1.1 6.4-1.6 8.3-1.7 6.7-7.7 37.5-8.9 46.5-.7 4.9-1.7 9.8-2.2 10.8-1.6 3.2-.1 3 3.9-.5 2.1-1.9 8.1-6.6 13.5-10.6 5.3-3.9 9.9-8 10.3-9.1.6-2.1-3.7-38.9-5.9-50.6-1.2-5.8-1.9-10.8-3-21.7-.2-1.7-1.6-1.9-2.2-.4-.5 1.3-.9 1.4-1.4.5-.6-.8-1.4-.1-2.6 2.2-.9 1.9-2.7 4.5-4 5.9s-3.2 3.6-4.4 5c-3.3 3.9-1.1 0 2.7-4.6 3.6-4.5 8.6-13.4 7.9-14.1-.2-.2-2.6.7-5.4 2.1-2.7 1.4-5.2 2.2-5.6 1.9-.3-.4-.6-.1-.6.5s-.6.9-1.4.6c-1.6-.6-7.2 7.4-8.1 11.8q-.75 3-1.5 1.8c-.5-.8-1.8.2-4.1 3.3-1.9 2.6-3.8 4.6-4.3 4.7-.5 0 0-1 1.1-2.3 2.4-2.6 10.3-14.3 10.3-15.2 0-.4 1.6-2.5 3.5-4.8s7.3-9.2 12.1-15.2c7.9-10 13.7-16.8 10.7-12.5-.5.8-5.2 7-10.2 13.8-5.1 6.8-9.1 12.5-8.9 12.7s2.6-.7 5.3-2.1c2.8-1.3 6-2.4 7.2-2.4s2.7-.9 3.3-2 1.6-2 2.3-2 5.3-3.3 10.3-7.3c24.5-19.5 41.7-32.9 51.3-40.3 5.8-4.4 10.5-8.4 10.3-8.8-.2-.5 1.6-2.1 4-3.7 3.2-2.2 5.4-2.9 8.8-2.8 3.4 0 4 .3 2.5.9m522.9 45.3c14.7 13.2 32.4 28.4 39.9 34.5 13.5 10.8 14.6 11.9 18.2 18.9 1.9 3.8 3.5 7.2 3.4 7.8 0 .5-1.3-1.5-2.9-4.5-3.6-6.8-3.9-4.5-1 7.4 1 4.4 2.1 9.2 2.4 10.6.2 1.4.9 4.5 1.4 7 .6 2.5 2 9.7 3.2 16 1.1 6.3 2.5 13.5 3.1 16 1.2 5.1 4.9 25 4.9 26.4 0 3.5-1.5-3.2-6-25.9-2.9-14.3-5.4-26.7-5.7-27.5s-.7-2.4-.8-3.5c-.4-3-3.3-17.5-4.4-21.5-1.2-4.8-1.2-4.3-1.7 31.3l-.3 29.7 5.6 6.8c3.1 3.7 6.3 7.6 7.1 8.7 2.2 2.9-4.6-4.2-9.1-9.5l-3.7-4.5-3.8 4c-4.3 4.5-10.2 12.4-10.2 13.6 0 .4 1.5 1.1 3.3 1.4 5 1 28.7 3.1 29.2 2.7.2-.2-.5-1.3-1.5-2.5-2.1-2.2-1.8-3.9.2-1.9 1.8 1.8 2.5 1.5 3.3-1.6 1-4.1 3.7-21.1 4.1-25.7.2-2.2.5-6.6.8-9.7.5-5.5.3-6.1-8.5-24-9.9-20-10.7-23.2-1.2-4.8 9.9 19.3 10.9 22.5 17.4 55 7.3 36.5 7.3 36.5 5.7 32.3-.7-1.7-1.6-3.5-2-3.9-.6-.6-.2 17 .5 22.6.1.8-.2 1.7-.8 2s-1.1-3.2-1.3-9.3c-.2-6.8-.6-9.6-1.4-9.1-1.1.7-1 .2 1-7.7 1-4 0-13.2-2.4-22.4-.9-3.3-2-8.5-2.5-11.5s-1.5-7.5-2.3-10l-1.4-4.5-.1 4c-.1 2.2-.6 5.8-1.1 8-.6 2.2-1.4 7.4-2 11.5-.5 4.1-1.2 8.9-1.6 10.7-.6 3.1-.5 3.2 4.2 4.7l4.9 1.6-4.9-.6-4.9-.6.7 5.9c.6 5.1.5 5.6-.7 3.9-1.4-1.9-1.5-1.9-2 0-.3 1-1.9 6.4-3.6 11.9s-3.7 12.5-4.5 15.5c-5.2 20.1-7.9 29.6-8.3 30.2-1.1 1.8 1.7.5 5.3-2.5 6.7-5.5 11.4-8.8 11.4-7.9 0 .5-2.1 2.4-4.7 4.3-10.1 7.1-13.1 10.6-13.8 15.8-.3 2.6 0 2.9 3.3 3.5 4.7.7 6.2-.7 2.8-2.9-2.6-1.7-3.4-3.5-1.6-3.5.6 0 1.9.9 3.1 2.1 1.5 1.5 2.4 1.8 3.3.9 1.3-1 11.6-20.3 11.6-21.6 0-.4-.8-.3-1.7 0-1.5.6-1.6.5-.1-1.1.8-1 2.3-3.4 3.1-5.3 1.8-3.8 7.7-26.7 7.7-29.6 0-.9.3-1.5.6-1.1 1 1-1.7 14.7-4.6 23.4-1.5 4.6-2.2 8-1.6 7.6 3.9-2.2 9.6-7.7 9.6-9.3 0-1 1.4-3.4 3-5.2 2.8-3 3-3.8 2.6-8.3-.3-2.8-.3-4.1 0-3s.9 2.9 1.3 4c.5 1.1 2.3 8 4.1 15.4 2.8 11.4 3.1 13.9 2.1 16.6-.6 1.7-1.1 3.9-1.1 4.8s-.6 1.7-1.4 1.7-1.8.9-2.1 2-2.6 4.3-5.1 7.2c-2.4 2.8-4.4 5.5-4.4 5.8 0 .4 1.6.4 3.6.1 3.5-.6 3.7-.9 5.9-7.6 1.3-3.9 2.3-6.8 2.4-6.5.2 1.4-4 19.6-5.4 23.4-1.6 4.1-1.6 4.8.4 13.6 1.9 9.3 1.9 9.4 0 11.8-1.4 1.8-1.6 2.8-.8 3.8s.3 1.7-2.2 2.9l-3.2 1.7.7 7.6c1.8 20.3 1.9 32.7.4 34.2-.7.8-2.9 5.2-4.7 9.7l-3.3 8.2 2.1 3.8c3.6 6.7 4.1 10.4 2.1 16.1-2 5.6-5.6 11.2-7.1 11.2-.6 0-.3-.8.7-1.7 2.6-2.6 6.4-11.4 6.4-14.8 0-1.7-1.4-5.4-3-8.4-1.7-3-3-5.8-3-6.2 0-.5-1.3-3-3-5.5-3.5-5.6-9.5-10.9-10.5-9.4-1.1 1.7.3 4 1.9 3.4 1.3-.5 1.3-.1.4 2.4-1 2.4-.7 4 1.2 9.3 1.3 3.5 2.9 7.1 3.7 8 .7.8 1.3 2.5 1.3 3.7 0 2 .6 2.2 5.3 2.3 3.8 0 4.7.3 3.2.9-1.1.5-3.3.9-4.8.9-3.3.1-4.2 1.8-2.8 5.4.6 1.5.7 2.7.3 2.7-.5 0-1.4-1.6-2.2-3.5l-1.3-3.4-13 6.8c-7.1 3.8-13.7 7.5-14.6 8.3-2.7 2.3-4.5 3.3-3.7 2 .9-1.5-1.4-1.5-8.5-.2-5.7 1.1-10.1 3.9-6.4 4.1 2.4.1 10.6 3.7 8.7 3.8-.7.1-2.9-.6-4.9-1.4-1.9-.8-3.9-1.5-4.4-1.5-1.3 0-1.1 2.7.4 4.2.7.7 2.5 4.2 4 7.8s3.6 7.8 4.7 9.5l2 3 .1-2.8c.1-1.5.3-3.2.4-3.7.1-.6.3-3.9.4-7.5 0-3.8.5-6.5 1.1-6.5s1 .6.9 1.3c-.1.6-.1 4.7 0 9 .1 8.3 1.6 9.7 2.7 2.6.4-2.2 1.1-4.2 1.5-4.5.5-.3.9-1.6.9-2.9 0-1.4.9-2.9 2-3.5 1.2-.6 2-.7 2-.1 0 .5-.6 1.1-1.4 1.3-2.7.6 2.7 12.7 8.7 19.3.6.6.7.2.3-1.1-.3-1.1-.8-5.9-1.1-10.6-.2-4.7-.6-9.2-.7-9.8-.2-.7.2-1.4.7-1.6.6-.2 1.1.4 1.2 1.3 0 1 .4 5.3.8 9.6 1.1 10.6 2.8 7.6 2.3-3.9-.1-4.6 0-8.4.4-8.4.3 0 1.5-.3 2.5-.6 1.5-.5 1.5-.4.2.5-1.2.8-1.5 2.7-1.3 9.1 0 4.5.6 8.6 1.3 9.3.8.8 1.1.7 1.1-.6 0-1 .7-2 1.5-2.3.8-.4 1.5-1.2 1.5-2s.3-1.4.8-1.4c.4 0 1.8-2.7 3.1-6.1 1.3-3.3 2.4-5.9 2.6-5.7.3.3-1.4 8.9-4.5 22.8-1.2 5.2-2.5 11.4-2.9 13.8-1 5.6-1.7 6-3.1 1.8-.6-1.9-1.6-3.6-2.2-3.8s-2.8 1.4-4.9 3.6l-3.7 4.1-2.9-2.1c-6.6-4.9-5.8-5-21.4 3.6-9.5 5.3-15.4 8-17.4 7.9-2.7-.1-2.5-.3 1.2-1.4 1.5-.5-15.7-17-17.6-17-.4 0-3 2.7-5.8 6-2.7 3.3-6.4 7.6-8.1 9.5-1.8 1.9-3.2 3.8-3.2 4.1 0 .4 2.4.9 5.3 1.2 7.4.8 14.1 1.6 22.3 2.8 3.9.5 8.6.9 10.5.8s8 .2 13.6.6c9.4.7 10.4.6 13.7-1.4 2-1.2 4.5-3.4 5.7-4.9 2-2.5 2.2-2.5 1.6-.5-.4 2-.3 2.1 1.5 1.2 3.3-1.8 5.8-1.9 5.8-.3 0 .8-.5 1.4-1.1 1.4-.7 0-.9.9-.5 2.3.4 1.2 1 4.7 1.3 7.7s1 5.8 1.6 6.1c1.9 1.3-.2 3.7-5.3 6.3-6.9 3.5-7.7 3.3-1.5-.4 5.5-3.2 5.6-3.5 3.4-13.3-1.3-5.5-3-6-8.6-2.6-3.2 2-3.5 2.5-2.9 5.8.4 2 .9 5.4 1.1 7.6.6 5.8-1.1 2.2-2-4-1.1-8.4-1.6-8.6-8.2-2.9-6.7 5.8-8.3 6.9-8.3 5.6 0-.5 1.8-2.2 4.1-3.7 2.2-1.6 4.5-3.7 5-4.7.8-1.6.6-1.7-2.3-1.3-2.5.4-2.8.3-1.3-.4 1.7-.7 1.2-1-2.6-1.6-2.5-.4-5.5-.5-6.7-.3-2.1.3-2.1.4.7 6.7 1.6 3.5 3.6 7.3 4.6 8.4 1.7 2 1.7 2-2.6 1.4-2.4-.4-6.2-1.1-8.4-1.6-11.3-2.6-10.5-2.6-10.6.5q-.15 3.15-.6.9c-.3-1.1-.9-2.4-1.3-2.9-.8-.8-16.1 9-20.6 13.2-2.5 2.4-6 3.6-7.5 2.6-.7-.4.3-1.2 2.4-1.9 3.8-1.3 23.7-15.1 23.7-16.5 0-1.9-25.4-15.4-27.5-14.7q-1.2.6-.9-2.4c.2-1.6-.1-4-.6-5.4-.7-1.7-.7-2.4 0-2 .6.3 1 1.2 1 1.8 0 .7.4 1.8.9 2.6.7 1 1.7.5 4.3-2.5 7.6-8.5 12.9-15.6 12.5-16.7-.5-1.4-26.6-14.7-28.8-14.7-1.3 0-5.5-8.8-4.5-9.7.2-.2.8 1 1.4 2.6.6 1.7 1.8 3.1 2.6 3.1 1.4 0 20.6-19.9 21.6-22.4.3-.8 1.9-2.5 3.6-4 1.7-1.4 7.4-8.2 12.5-15.2 5.2-6.9 12-15.9 15.2-20.1 3.3-4.1 5.5-7.8 5-8.3-1.1-1-11.1-2.8-19.9-3.6l-7.2-.7-1.1 6.9c-.7 3.8-1.8 11.4-2.5 16.9-1.6 11.6-2 9-.6-3.5 1.6-13.8 1.8-17.8 1-19.1-.6-.9-3.6-.7-13.1.8-14.2 2.2-13.7 1.5-8.6 12.2 1.8 3.8 3.8 6.6 4.7 6.6.8 0 4.6-4.1 8.5-9.2 3.8-5.1 7.1-9 7.4-8.8.6.6-2.4 4.9-9.8 14.3-6.5 8.1-8.1 9.5-8.1 6.8 0-2.1-7.6-18.1-9.4-19.5-.8-.7-3.3-1.5-5.3-1.7-5.6-.7-16.7-3.2-25.8-5.9-24.1-7.1-25.4-7.2-40.5-3.4-15.3 3.9-18.1 5-19.1 7.4-.7 1.7-.8 1.8-.8.2-.1-1-1.1-2.2-2.3-2.7-1.8-.7-1.9-.9-.5-.9.9-.1 1.7-.6 1.7-1.2s-1.8-8-4-16.6c-2.3-8.5-3.9-15.7-3.7-15.9.4-.4 2.9 8.2 5.7 19.6 2.9 11.9 3.9 14.3 5.9 13.4.9-.4 7.3-2.1 14.4-3.7 7-1.7 12.7-3.4 12.7-3.9 0-1-8.4-7.2-25.4-18.6-15-10.1-14.5-10-24.6-7.6-1.8.4-2.1.3-1-.4.8-.5 3.2-1.2 5.3-1.6 2-.4 3.7-1.1 3.7-1.6s-4.4-3.7-9.7-7.2c-5.4-3.6-10.5-7.1-11.3-7.9-2.3-2.4-17.3-13.1-21.6-15.6-3-1.7-3.4-2.2-1.8-2.3 1.1 0 7.7 4.2 14.5 9.3 14.1 10.6 30.2 21.7 31.5 21.7 1.4 0 .5-39.3-.9-40.6-.7-.6-9.6-4.6-19.9-9-10.3-4.3-18.3-8-17.9-8.2.4-.1 5.2 1.6 10.6 3.9 18.4 7.6 26.8 10.9 28 10.9 1.4 0 2.3-6.7 3.1-22 .3-5.8 1-13 1.4-16 1.1-7.3.3 11.2-1.1 26.3-.6 6-.9 11-.7 11.2.4.4 4.5-1.6 18.8-9.5 6.3-3.5 14.6-7.9 18.3-9.9 7.8-4.1 7.9-4.6 3.3-14.4-4.1-8.7-7.7-17.9-7.3-18.3.2-.2 1.3 1.7 2.5 4.4 1.2 2.6 3.8 8.3 5.8 12.7l3.7 8 .8-5.5c3-20.5 4.1-29.3 5.4-43.1.8-8.5 1.7-18.3 2.1-21.7.4-4.7.2-6.3-.8-6.7-1.3-.4-39.4-5.5-41.6-5.5-.7 0-1.2.4-1.2.9 0 1.2 16.1 39.1 19 44.8 1.2 2.3 2 4.8 1.7 5.5-.3.8-.9.3-1.5-1.2-.5-1.4-2.6-5.9-4.5-10s-6-13.7-9.2-21.2c-3.2-7.6-6.1-13.5-6.5-13.3-.5.3-1.1 4.9-1.4 10.3-.4 5.3-1.1 14-1.7 19.2s-1.4 14.2-1.9 20l-.9 10.5.5-12.5c.5-14.3 2.1-34.5 3.4-43.9 1.1-7.9.3-9.7-4.7-10.4-4.8-.6-30-5.7-50.3-10.2-15.1-3.4-15.1-3.9 0-1.1 25.2 4.7 31.4 5.6 33.2 5 1.4-.4 1.8-.2 1.4.5-.4.6-.1 1.1.7 1.1 1.9 0 6.7-4.6 6.7-6.4 0-.8.2-2.1.5-2.8.3-.8-.3-2.5-1.5-3.8s-1.9-3.5-1.8-5.1c.1-1.5-.6-3.6-1.5-4.7-.9-1-1.7-2.5-1.7-3.3-.1-2-2.6-5-3.5-4.1-.5.4-.5.2-.1-.5.8-1.5-2.4-8.1-5.2-10.6-1.1-1.1-1.9-2.4-1.7-3 .2-.7-1.1-3.7-3-6.7-1.8-3-5-8.6-7.1-12.5-2-3.8-4.2-7.4-4.9-8.1-1.2-1.2-7 6.5-36.5 47.6-4.7 6.5-8.9 11.9-9.3 11.9-1.1.1 1.1-3.7 4.5-7.9 9.8-12.1 37.5-52 39.1-56.2.4-1 1.2-1.5 2.1-1.2.8.3 3.6-.4 6.3-1.5 4.7-2 34.6-13.1 45.1-16.7 2.8-1 5.2-2.2 5.2-2.7 0-.4-.3-.6-.7-.4-.5.3-6.2-.3-12.8-1.3s-10.7-1.8-9.2-1.9c1.6-.1 5.8.3 9.5.8 14.2 2 15.2 2 15.3.3 0-1.1.2-1.2.6-.5.2.7 1.3 1.3 2.3 1.3 1.5 0 39.3-9 43.5-10.3.6-.2-.3-1.1-2-2.1-1.6-.9-2.1-1.4-1-1 4.2 1.5 9.3 1.5 12.9 0 5.7-2.4 5.8-1.8.1.9-4.7 2.3-4.8 2.4-2.5 3.3 3.2 1.2 18.4 8.8 37.5 18.7 23.3 12 30.5 15.9 30.5 16.7 0 .6-27.1-12.9-58.7-29.3-5.1-2.6-9.3-4.4-9.3-4s1.7 2.5 3.8 4.8c7.5 8.2 14.7 16.7 16.3 19.2 3.5 5.4 7.7 9.1 10.6 9.1 1.5 0 9.9.5 18.5 1.1 14.9 1.1 20.9.8 20.7-.9-.3-1.9.3-1.9 2.4.1 1.7 1.8 5.2 2.7 16.7 4.7 8 1.3 13.7 2.6 12.8 2.8s-6.9-.6-13.2-1.7c-15.3-2.8-15.2-2.8-12.7.8 1.2 1.6 2.1 3.3 2.1 3.8 0 .4 3.2 7.3 7.2 15.3 3.9 8 7.6 15.4 8.1 16.5 1.4 2.8 14.8 28.8 18.2 35.3 1.5 2.9 2.9 5.2 3 5 .3-.3.8-68.5.6-71.6-.1-.7-1.5-1.2-3.3-1.3-3-.1-3.1-.2-.8-.8 2.4-.7 2.4-.7-1.4-3.6-7.1-5.5-12.2-9.9-32.1-27.5-26.1-23.1-26.5-23.5-23.6-21.6 1.4.8 5.2 4 8.5 6.9M286.9 255c-.2 5.5 0 10.3.4 10.6.4.4.7 1.2.7 1.8s-.5.5-1.2-.2c-1.8-1.8-2.8-1.5-2.8.9 0 2.3-5.8 19.9-7 21.2s.1 5.8 2.1 7c1.1.7 1.9 1.5 1.9 2 0 .4-1.1 0-2.5-.9-3-2-3-2.2-.5 7.3 1.2 4.2 1.9 8.3 1.7 9.2s-1.1-2-2.1-6.4-2.1-8.4-2.4-8.9c-.9-1.6-2.1 3-2.8 11-.6 6.8-.5 7.9 1.1 9.1 1.8 1.2 1.8 1.3-.3 1.3-1.2 0-2.1-.3-2-.8.1-.4-.4-2-1.1-3.6-.9-2.2-.9-3.2.1-4.4 1.1-1.3 1.1-1.4-.1-.8-1 .7-1.2.2-.6-2.5.3-1.9 1.3-4.8 2-6.5 1.3-2.7 3.6-13.9 5.2-24.8.6-3.7 3.3-10.4 3.3-8 0 .5-.9 4.7-2.1 9.2-2.7 11-2 12.5 1.3 2.6 5.4-16.3 6.2-19.7 6.6-31.7.1-2 .5-3.7.8-3.7s.4 4.5.3 10M701 306.8c0 .5-1.9 2.4-4.2 4.2-8.1 6.4-21.8 19.5-21.8 20.7 0 .7.5 1.2 1.1 1 .6-.1 1.3.3 1.6 1 .3.8-.5 1.1-2.4.8-3-.4-6.3 1.7-8.2 5.3-.6 1.2-1.8 2.2-2.6 2.2-1.9 0-1.9-.8 0-2.6 2.4-2.4 1.8-4.9-1.5-6.1l-3-1.1.5 7.1c.4 6.6.4 6.8-.6 2.7-.5-2.5-1.1-6.2-1.4-8.3-.3-3.5-.2-3.7 1.8-3.1 4.6 1.5 5.2 1.1 5.3-3.1 0-2.3.5-4.8 1-5.6 1.5-2.5 11.1-9.9 12.7-9.9.9 0 1.9-.5 2.2-1 .3-.6 1.2-1 1.8-1 .7 0-.1.9-1.8 2-3.8 2.5-3.9 4.6-.2 4.2 2.4-.3 2.7-.1 1.8 1.5-.5 1-1.9 2.5-3 3.3-1.2.8-2.1 1.8-2.1 2.3 0 .8 6.5-3.7 8.5-5.9.6-.6 3.1-2.8 5.8-4.9 2.6-2 4.7-4.1 4.7-4.5 0-.5-2.6-.2-5.7.5-6.8 1.6-8.5 1.2-2.2-.5 2.4-.6 4.9-1.3 5.4-1.5 2-.7 6.5-.5 6.5.3m13 63.1c0 1.9-1.7 1.2-2.3-.9-.7-2.7-2.7-2.5-2.9.2-.1 1.3-.3 4.1-.5 6.3-.6 8.5-1 11.5-1.6 12.2-.4.3-.7.1-.7-.5 0-1.9-1.8-1.4-2.5.8-.7 2.3-7.1 10.1-7.7 9.5-1.4-1.4-13.7 4.8-16 7.9-.9 1.4 2 6.6 3.6 6.6.8 0 3.3-2.1 5.5-4.8 5-5.7 5.4-4.3.7 2-3.4 4.4-10.6 9.7-10.6 7.8 0-.5.7-1.3 1.7-1.8 1.5-.9 1.5-1.2-.4-3.6l-2.1-2.6-2.1 5c-1.2 2.8-1.9 5.5-1.6 6 .3.6-.1.7-1 .4-.8-.4-2.1-.2-2.8.3-.6.5-3.9 2-7.2 3.3s-6.6 2.8-7.3 3.3-1.5.7-1.9.4c-.3-.3-2 .1-3.7.9-2.8 1.3-2.9 1.3-1.2 0 1-.8 2.3-1.7 2.9-1.9 1.3-.4.1-5.1-1.8-7.1-1.7-1.7-2-5.2-.5-6.1.6-.3 1 .4 1 1.7s.7 3.2 1.5 4.2c.8 1.1 1.5 2.8 1.5 3.7 0 1 .4 2 .9 2.4 1.1.6 15.1-5.4 15.1-6.5 0-1.2-9.5-5-15.5-6.2-3-.6-5.5-1.5-5.5-1.9 0-.5.4-.8.9-.7 1.1.3 9.1-7.9 9.1-9.3 0-.6.6-.9 1.3-.7 1.6.3 5.6-1.9 8.7-4.9 2.2-2.3 2.3-2.6.7-3.4-.9-.6-1.7-1.4-1.7-1.8 0-.9 6.9-1.3 8.2-.5.9.6-2.4 6.4-3.7 6.4-.5 0-2.1.9-3.4 1.9l-2.4 1.8 3.2.5c2 .3 3.5 0 3.7-.7.4-.9 1.5-.9 4.4-.2 2.9.8 4.9.7 7.9-.3 2.3-.7 4.1-1.6 4.1-1.8 0-1.3-3.5-4.2-5.1-4.2-2.9 0-3.4-2.1-.8-4.1 2-1.5 2.4-2.7 2.4-6.9 0-4.7.1-5 1.4-3.1 2 3.1 4.5 2.5 6.7-1.4 1-1.9 2.3-3.5 2.8-3.5.6 0 .5.5-.2 1.2-2.6 2.6.1 9.7 3.3 8.5.8-.4 1.5-.3 1.5.1 0 1.2 3.7.9 3.8-.3.1-.5.4-3.9.7-7.5s.8-8 1.1-9.8l.5-3.3 3 3c1.6 1.6 2.9 3.4 2.9 4M555.8 507.5c-1.2 1.4-2.6 2.5-3.2 2.6-.6 0-5.1 3.6-10.1 8-4.9 4.3-11.3 9.8-14.2 12.1-2.9 2.4-5.5 5.1-5.8 6-.4 1-1.2 1.8-1.8 1.8-1.4 0-21 12.9-21.5 14.2-.2.4-.8.8-1.4.8-1.3 0-18.5 10.7-21.8 13.6-1.4 1.2-3 2-3.7 1.7-.6-.2-5.6 1.5-11 3.8s-12.7 5.2-16.3 6.5c-8.3 2.9-12.5 4.5-23 8.7l-8.5 3.4.2 6.9.2 6.9-.9-5.9c-.6-3.2-1.2-6.1-1.5-6.4-.2-.3-4.2 2-8.7 5-4.6 3-12 7.8-16.6 10.7-4.5 2.9-8.6 6-9.2 7-.8 1.4-1.3 1.2-3.5-1.4-1.4-1.7-3.3-4.1-4.3-5.5-4.3-6.3-12.3-16.9-13.2-17.5-.5-.3-1 0-1 .7-.1.7-.9-1.1-2-4.1-1.1-2.9-2.7-6.5-3.6-7.9-1-1.5-1.1-2.1-.3-1.7.9.6 1.1.3.6-1.1-.7-1.8-.7-1.8.8 0 .8 1.1 1.5 2.5 1.5 3.2s1.2 2.6 2.6 4.1c2.3 2.5 3.6 2.9 12.7 3.9 6.8.8 10.4.8 10.8.2.4-.7.9-.6 1.3.1.5.7 5.6 1.1 14.9 1.1 7.8 0 13.7-.4 13.1-.8-.7-.4 1.6-.8 5.1-.9 4.6-.2 9.4-1.5 18.1-4.8 25.5-9.8 37.4-14.8 36.9-15.4-.4-.3-3.4-.9-6.8-1.2l-6.2-.6 8.5-.3c13.1-.5 13.3-.5 18-3.5 2.5-1.6 6.1-3.8 8-5.1 14.7-9.3 30-19.6 30.7-20.7.4-.7 2.7-2.6 5-4.3 8.1-5.6 31.3-26.6 31.3-28.2.1-1.6.1-1.6 1.1 0 .7 1.3.4 2.3-1.3 4.3m436.6 69.2c-2.6.9-12.4 7.5-12.4 8.4 0 1.4 12.6 1.1 21.5-.6 9.9-1.9 11.5-2.4 11.5-3.6 0-.5.9-1.8 2-2.9s2-1.6 2-1.2-.9 2.5-2 4.7-2 4.5-2 5.2-1.3 3.4-2.8 6-3.6 6.8-4.5 9.3-2.1 5-2.5 5.5c-.4.6-5.6 4.2-11.7 7.9-6 3.8-11.7 7.5-12.5 8.1-.8.7-2.4 1.5-3.5 1.8-2.4.8-3.4 1.5 12.3-8.8 5.8-3.9 10.7-7.5 10.9-8 .4-1.4-21.5-18.5-23.7-18.5-1 0-2-.7-2.4-1.5-.3-.9-1.6-2-2.8-2.5-2.2-.8-2.2-.9.5-.9 1.9-.1 3-.8 3.7-2.4l.9-2.2v2.2c.1 3.1 2 3.9 3.7 1.4.8-1.2 1.9-2.1 2.4-2.1.4 0 3.2-1.6 6-3.5 2.9-2 5.6-3.3 5.9-2.9s.1.8-.5 1.1m211.8 98.8c1.1 1.4 2.3 2.3 2.8 2 .8-.5 2.4 3.1 3.4 7.5.5 2.1.4 2.1-.9-.5-.8-1.7-1.4-3.6-1.5-4.4 0-.8-.3-1.1-.6-.8-.8.8 1.5 9.8 2.9 11.2.7.7.8.6.3-.3-.4-.7-.1-1.5.7-1.8.7-.2 2.4-3.8 3.7-7.9 1.8-5.7 2.8-7.5 4.2-7.5 1.6 0 1.4 1-1.7 9.7-2 5.3-3.6 11.1-3.8 13-.1 2.3-.6 3.2-1.5 2.8-.8-.3-1.9-.5-2.6-.5-1.1 0-9.6-21.1-9.6-23.9 0-1.9 2.1-1.2 4.2 1.4m21 4c-.5 2.6.6 3.3 2.5 1.4 1.4-1.4 6.7-.3 8.4 1.7.6.8 1.7 1.4 2.4 1.4s1.8.7 2.5 1.5c1.1 1.3 1.6 1.1 4-1.5 3.9-4.1 7-4.6 12.4-1.9 5.7 2.8 8.3 5.5 9 9.4l.6 3-1.1-3c-1.4-3.7-2.8-5.5-4.2-5.5-.5 0-.2.9.8 2s1.5 2.3 1.2 2.7c-.4.3-.7.1-.7-.5 0-.7-.4-1.2-1-1.2-.5 0-1 .9-1 1.9 0 2.9-4.6 7.9-6 6.5-.7-.7-.5-1.6 1-2.9 2.7-2.4 2.7-7.5.1-7.5-2.2 0-5.1 3.5-5.1 6 .1 2.1 4.6 7 6.5 7 .9 0 2.7-1.1 4-2.5 3.1-3 3.3-2 .3 1.2-2.4 2.5-4.8 2.9-8.1 1.1-2.1-1-2.1-1-.7.7s1.4 1.7-.7.7c-1.2-.7-2.9-2.2-3.7-3.4-.9-1.2-1.6-1.9-1.6-1.4 0 .4-1.1-.1-2.5-1.2-1.5-1.2-3.4-1.8-5-1.4-1.4.2-2.4.7-2.1.9.3.3-.5 1.4-1.7 2.3-3.2 2.7-1.2 3.7 2.8 1.5 4.3-2.3 5.7-1.2 2.5 1.8l-2.4 2.2 1.8-2.3c2.2-2.6 1.5-2.8-1.9-.6-1.6 1-3.4 1.4-5.1 1-1.8-.5-2.4-.3-1.8.5.9 1.5-.7.6-5.4-2.9-2.2-1.7-3.1-3-2.7-4.1.3-.8.3-1.2-.1-.9-.9 1-2.9-1.3-3.7-4-.3-1.3-.3-2.1 0-1.8.6.6 4.3-6.2 4.3-8 0-.7-.6-1.5-1.2-1.7-.7-.3-.3-.6.8-.6 1.7-.1 2 .4 1.6 2.4"/><path d="M434.9 60.6c-1.8 2-7.4 6.7-12.4 10.4-4.9 3.7-14.5 11.2-21.1 16.6-18.9 15.4-34.3 27.7-37.2 29.7l-2.7 1.9 6-.6c19-1.9 50.6-4.5 55.8-4.6 3.7 0 6.3-2.9 7.1-8.1.4-2.4 1.8-9.1 3.1-14.9 3-13.4 6.5-30.6 6.5-32.5 0-2.3-1.3-1.8-5.1 2.1M513 80.9c0 .5.6 1.4 1.4 2 .7.6 3.4 4.6 5.9 8.9 4.5 7.7 6.2 10.7 13.2 23.7 7 13.2 9.6 16.8 11.1 15.3.7-.7 3.6-6.7 6.4-13.3s6-13.6 7-15.6c1.1-2 2-3.9 2-4.2 0-.4-12.4-5.2-21-8-2.5-.8-8.1-3-12.5-4.7-10-4-13.5-5.1-13.5-4.1M502.9 92.3c-4 6.2-7.9 11.8-8.6 12.5s-1.3 2-1.3 2.8-.4 1.4-.9 1.4-1.1.7-1.5 1.5c-.3.8 0 1.4.7 1.2.7-.1 1.2.5 1.2 1.3 0 1.9 1.6 3.1 3.5 2.5.8-.2 2.2 0 3 .5 1.3.9 1.3 1 0 1-.8.1 2.3 1.4 6.9 3 4.7 1.6 8.9 2.6 9.5 2.3.5-.4.6-.1.1.7-.6 1-.4 1.2.8.7 1-.3 1.7-.2 1.7.4 0 .5.6.9 1.3.8.6-.1 2.6.4 4.2 1.1 1.7.7 4.2 1.2 5.8 1.1 1.7-.1 2.7.4 2.7 1.3 0 .8.7 1.6 1.5 2 .9.3 1.5 0 1.5-.9 0-.8.4-1.5 1-1.5.8 0-6.5-15-11.8-24.3-1.2-2-3.1-5.4-4.3-7.5-9.7-17.2-8.4-16.9-17-3.9M501.8 83.3c-1.6.6-2.8 1.4-2.8 1.9 0 .4-.9.8-1.9.8-2.3 0-10.9 3.6-36.3 15.4-10.3 4.7-19.1 8.6-19.6 8.6-.4 0-1.7.7-2.8 1.5-1.7 1.3.9 1.4 22.7 1.5h24.6l6.9-9.7c7.9-11.2 10.7-16 10.1-17.6-.2-.7.3-1.7 1.2-2.4 1.9-1.5 1.5-1.5-2.1 0M559 104.5c-1.6 3.5-3 6.7-3 7.1 0 .6-3.6 9.3-7.1 17-1.1 2.2-1.9 4.3-1.9 4.5 0 .7 8.1-.6 21-3.3 5.2-1 14.3-2.8 20.2-3.8 5.9-1.1 13.1-2.6 16-3.3l5.3-1.4-15-7.5c-8.2-4.1-17.9-8.8-21.5-10.3-3.6-1.6-7.2-3.5-8.1-4.2-.8-.7-1.9-1.3-2.2-1.3-.4 0-2 2.9-3.7 6.5M402 117.1c-4.1.4-12.7 1-19 1.4-10.5.6-20.8 2-21.7 2.9-.4.4 1.5 14.8 2.7 20.6.6 2.5 1.4 8.5 2 13.5 1.2 12.2 5.1 40.9 5.6 41.4.7.8 4.8-4.9 22.7-31.9 20.2-30.3 26.3-39.6 29.5-45.3l2.2-3.8-8.3.2c-4.5.2-11.6.6-15.7 1M592.5 127.1c-9.9 2.1-19.8 4.1-22 4.5-2.2.3-4.3.8-4.7 1-.5.3-5 1.3-10.1 2.3-6.4 1.3-9.1 2.2-8.9 3.1 1 4 17.6 36.3 20.5 39.8 1.9 2.2 3.8 5.8 4.2 7.8.3 2.1 1.9 6 3.5 8.7l2.8 4.9 6.6-13.5c3.6-7.5 6.6-13.9 6.6-14.3s2.7-6.3 5.9-13.3c11.4-24.5 14.2-31.1 13.9-32.9s-1.3-1.7-18.3 1.9M413.7 141.8c-.9 1-1.7 2.3-1.7 2.8 0 .6-1.3 2.5-2.9 4.3-1.8 2-2.7 3.9-2.4 4.9.4 1 .2 1.3-.5.8-1.4-.9-12.5 16.1-11.6 17.6.4.6.3.8-.3.5-.5-.3-1.6.3-2.4 1.4-.8 1.2-2.3 3.2-3.4 4.5-2.2 2.6-7.7 13.1-9.6 18.2-.7 2-1.7 3.1-2.7 3-4.5-.8-.4 4 10.3 11.9.6.5 3 2.4 5.5 4.4 6.3 5 7.5 5.6 6.7 3.6-.3-.9-.2-1.9.4-2.2.5-.4.7-1.1.4-1.6-.4-.5-.2-.9.3-.9.4 0 1.6-3.4 2.6-7.6 2.1-8.6 1.5-18.4-1-18.4-2 0-1.8-5.5.3-7.9.9-1.1 2-1.8 2.4-1.5 1.3.8 6.7-2.4 7.3-4.3.3-1 .8-4.2 1.1-7.2.3-2.9 1.2-7.4 2-9.9.9-2.5 1.4-5.1 1.1-5.8s.1-1.7.7-2.2c1.4-1.2 1.4-6 .1-8.5-1-1.7-1.1-1.7-2.7.1M546.7 148c.4 1.5 0 2-1.5 2-1.7 0-2.1 1.1-3.1 10.7-.7 6-1.2 12.1-1.1 13.8 0 1.6-.4 5.2-.9 8-.5 2.7-.7 6.1-.4 7.5.4 2 .2 2.2-.6 1s-1.1-.7-1.1 2.1c0 2-.3 5.1-.7 6.9l-.6 3.3 10.4-.7c9.6-.7 15.1-2.3 14.8-4.4-.5-3.1.3-5.2 2-5.2 2.6 0 4.4 2.5 3.6 4.9-.5 1.6-.1 2.2 1.9 2.7 1.3.3 3.4.3 4.5-.1 2-.6 2-.8.6-3.5-.8-1.6-2.9-5-4.6-7.5-2.8-4.1-3.4-4.5-6-4-1.8.4-2.9.2-2.9-.4s.4-1.1.8-1.1c1.8 0 2.9-4.4 1.7-6.5-3.1-4.9-10-17-10-17.5-.1-1.9-4-9.8-4.7-9.4-.4.3-.8-.4-.8-1.5s-.4-2.2-.9-2.5c-.5-.4-.7.3-.4 1.4M368.1 203.4c-.7.8-6.3 5.3-12.5 9.9-17.1 13-17.8 12 7.9 11.3 12.1-.4 24.4-.9 27.3-1.2 5.3-.6 5.3-.6 3.5-2.6-1.9-2.1-23.7-18.8-24.5-18.8-.3 0-1.1.6-1.7 1.4M560.5 203.5c-.5.2-6.3.7-12.9 1l-11.9.7.7 7.7c.4 4.2.9 11.6 1.2 16.6.2 4.9.9 16 1.4 24.5.6 8.5 1.2 19 1.4 23.3s.6 8.1.9 8.3c.9.9 9.8-18.8 19.3-43 3.1-7.8 6.9-17 8.5-20.5 3.1-6.8 5.2-14.1 3.9-14.1-.4 0-.5-1.1-.2-2.5.4-2.4.3-2.5-5.4-2.4-3.3 0-6.3.2-6.9.4M533.1 208.8c-.1.6-1.2 3.5-2.6 6.4-1.4 2.8-2.5 6.3-2.5 7.7 0 1.9-.3 2.2-.9 1.2-.7-1.1-1-.9-1.6.8-.3 1.1-.4 3 0 4 .4 1.4-.1 2.4-1.8 3.6-1.3.8-2.9 2.5-3.6 3.8-1.4 2.6-.3 6.1 6.5 20.5 2 4.3 5.4 11.7 7.6 16.7 2.3 4.9 4.3 9.2 4.5 9.5.7.7-.6-28.3-1.7-37-.5-4.1-1.2-13.6-1.6-21-.3-7.4-1-14.4-1.5-15.5-.4-1.1-.8-1.4-.8-.7M417.6 225l-17 .5.3 6.5c.1 3.5.5 6.8.7 7.1.2.4.9 9.4 1.4 20s1.4 19.7 2 20.3c.7.7 1 .6 1-.2 0-.6 5.3-6.5 11.8-13 14.7-14.9 30.4-31.9 31.6-34 .5-1 1.6-2.3 2.4-3 1.4-1.1 1.4-1.4.2-2.6-1.9-1.7-12.6-2.2-34.4-1.6"/><path d="M396.3 233.6c-1.3 2.7-4.3 10.3-6.8 16.9-2.6 6.6-6.6 16.9-9 23-4 9.9-10.5 27.4-10.5 28.2 0 1 3.1-.1 6.3-2.3 2.1-1.4 4.1-2.3 4.4-2.1.2.3-.6 1.1-1.9 1.8-1.2.6-2.5 1.5-2.8 1.8s-2.2 1.5-4.3 2.5c-2.1 1.1-3.4 2.2-3 2.6 1.3 1 30.1 13 31.4 13 1 0 8.6-5.4 9.9-7.1.9-1.1 5.2-3.1 5.6-2.6.2.2-1.3 1.6-3.3 3-2.1 1.5-5.1 3.8-6.8 5.3l-3 2.6 4-.6c2.2-.3 7.5-.6 11.7-.6h7.7l-1-2.9c-.6-1.6-.9-4.2-.7-5.8.4-2.5.5-2.6 1.2-.8 1.7 4.5 3.1 6.6 3.4 5.6.2-.6 1-1.1 1.7-1.1 1.7 0 1.1-11.4-.7-14.9-1.1-2.1-11.3-7.9-17.1-9.7-1.2-.4-3.3-1.5-4.6-2.5-1.3-1.1-3.3-1.9-4.5-1.9-2 0-2.1-.5-2.4-16.8-.2-9.3-.9-21.9-1.5-28.2l-1.2-11.3zM499 244.4c-8.5 3-18 6.3-21 7.4l-5.5 1.9 5.8 2.6c3.2 1.5 7 3.5 8.5 4.5 3.9 2.8 50.4 26.3 51 25.8.2-.3-.3-1.7-1.1-3.3-.8-1.5-2.2-4.4-3-6.3s-3-6.7-4.8-10.5c-1.8-3.9-5.1-11.5-7.4-17s-4.8-10.1-5.6-10.2-8.4 2.2-16.9 5.1M295.6 261.7c-.3.4-.6 1.9-.6 3.4s-.5 3.1-1 3.4c-.6.4-.8 1-.6 1.4.3.4-.1 3.2-.9 6.2s-1.5 6.7-1.5 8.2v2.8l5.8-4.5c3.1-2.5 6.8-5.7 8.1-7.1 2.3-2.5 2.3-2.6.5-4.7-4.6-5.3-9.3-9.6-9.8-9.1"/><path d="M430.5 272.9c-2.7 1-6.8 2.7-9 3.8s-6.4 2.8-9.3 3.8c-2.9.9-5.1 2.2-5 2.8.4 1.2 6.8 4.6 17.5 9.3l5.2 2.3.6-4.7c.3-2.6 1.8-7.5 3.2-10.9s2.3-6.7 2.1-7.2c-.2-.6-2.4-.2-5.3.8M437.6 276.9c-2.8 7.3-5.7 16.4-5.3 16.7.2.2 4.1-.9 8.8-2.5 4.6-1.6 9.8-3.2 11.6-3.5 1.7-.4 3.8-1.5 4.5-2.4 1.1-1.3 1.1-1.5-.4-.9-1.2.4-1.8.2-1.8-.8 0-.8-.7-1.5-1.5-1.5-1.6 0-2.8-.8-6.9-4.5-1.2-1.1-3.3-2.7-4.7-3.6-2.5-1.7-2.5-1.7-4.3 3M309.8 284.7c.2 6 .8 11.3 1.3 11.9s.7 1.8.4 2.6c-.4 1.1.2 1.8 1.8 2.2 1.3.3 4.9 2.2 7.8 4.3 5.8 4 18.1 10.4 18.7 9.8.2-.2 0-1-.4-1.7-.5-.7-1-2.1-1.1-3-.9-5.7-7.9-21-11.3-24.4-3.8-4-15.1-12.4-16.6-12.4-.5 0-.7 4.8-.6 10.7M303 279.1c-2.5 2.2-6.4 5.2-8.7 6.7-2.4 1.5-4.3 3.2-4.3 3.8s2.8 2.2 6.3 3.5c3.4 1.2 7.2 2.9 8.4 3.7s2.6 1.2 3 1c.4-.1.6-5.3.3-11.4l-.5-11.2zM457.9 288.5c-.3.2-6.1 2.1-12.9 4.1-6.9 2-12.9 4-13.3 4.4-.7.6 2 15 2.8 15 .3 0 2-.9 4-2s4.4-2 5.5-2c3 0 8.1-5.1 11.9-11.9 1.9-3.3 3.6-5.9 3.7-5.8.2.2-1.3 3.5-3.4 7.4-2.5 4.8-3.4 7.5-2.7 8.2 1.2 1.2 15.2 2.2 17.6 1.2 1.4-.5 1-1.9-2.8-9.9-4.1-8.2-4.8-9.2-7.3-9.2-1.4 0-2.9.2-3.1.5M363 310.1c-1.4 1.1-4.9 3.6-7.8 5.6-5.3 3.6-5.3 3.6-3.2 5.5 1.1 1 2 2.8 2 3.9s.4 1.8.9 1.5c.5-.4 1.9.6 3 2.1 1.1 1.6 2.1 2.2 2.1 1.5s.4-1.1.8-.8c.9.5 6.2-15.5 6.2-18.6 0-2.6-1.3-2.8-4-.7M370 309.7c0 .5 3.3 7.4 7.4 15.5l7.3 14.7 1.9-2.2c1.1-1.2 3.2-3.9 4.8-6 4.8-6.2 4-3.4-.9 3.7-4.4 6.3-5 8.6-2.1 8.6.8 0 2 .7 2.7 1.7 1.4 1.6 10.5 6.3 12.5 6.3.6 0 1.8-1.5 2.7-3.3 1.3-2.7 1.6-2.9 1.6-1 .1 2.6 1.2 3.5 3 2.3.9-.5 1.2-1.7.7-3.6-.4-1.8-.3-2.4.2-1.6.7 1 1.2.2 2-2.7.5-2.3.7-4.1.3-4.1-.3 0-2.8 1.4-5.6 3-2.7 1.6-6.1 3-7.5 2.9-2.2 0-2-.2 1-1.3 8-2.9 16.8-10.3 19.9-16.7 2.3-4.8 2-4.9-10.7-4.9-8.5 0-9.9.3-12.1 2.2-1.4 1.3-2 1.6-1.3.8 2-2.3 1.5-2.9-4-5.4-18.2-8.3-21.2-9.6-22.4-9.6-.8 0-1.4.3-1.4.7M539 351.7c-4.1 4.7-7.5 9.3-7.5 10.3s-.4 2.2-.9 2.7-.6 0-.2-1.2c.3-1.1-1.9.6-5 3.8-4.4 4.6-5.4 6.4-5 8.1s0 2.6-1.6 3.3c-1.9.8-2 1-.5 1.6.9.3 1.7.2 1.7-.4s.5-.7 1-.4c.6.4.8 1 .5 1.5-.7 1.2 3.9 4.2 6.8 4.5 4.1.4 4.2.5 2.7 1.5-1.2.8-.9 1 1.3 1 1.5 0 2.7.4 2.7 1 0 .5.5 1 1 1 .6 0 1-.9 1-2.1 0-1.1.4-2.8.9-3.8.6-1 2.4-8.9 4.1-17.7 1.7-8.7 3.5-17.5 4-19.3.5-1.9.8-3.6.7-3.7s-3.6 3.6-7.7 8.3M280.1 377.5c-.1 1.1-.7 3-1.4 4.2-3.5 6.2-4.9 9-5.2 10.5-.2.9-4.4 10.1-9.5 20.4-5 10.3-8.9 18.9-8.6 19.1.4.4 11.3-7.6 19.2-14.3 5.1-4.3 5.1-4.3 6.2-12.6 1.3-9.1 1.4-21.6.2-26.3-.5-2-.8-2.4-.9-1M386.5 380c.4 1.1.2 2-.4 2s-1-.3-1-.8c.3-1.9-.3-2.2-2.1-1.2-1.1.6-2 2.1-2 3.5 0 1.3-1.2 3.7-2.6 5.4s-2.2 3.1-1.8 3.1.3.5-.4 1.2-1.2 3.6-1.2 6.5c0 4.2-.4 5.5-2 6.5-2 1.3-2.8 4.8-1 4.8.5 0 1.2 1 1.5 2.3.4 1.5 1.8 2.6 4.3 3.4 3.3 1.1 3.9 1 5.5-.8.9-1.2 1.7-1.8 1.7-1.4s1.8-.7 3.9-2.4c3.8-3 3.9-3.3 2.9-6.7-.5-2-1.1-6.6-1.2-10.3-.3-7.3-2.5-17.1-3.9-17.1-.4 0-.5.9-.2 2M294.5 382.6c-1.9 1.9-1.7 4.6 1.1 16.2l1.7 7.3 1.5-3.3c.8-1.8 2.3-6.2 3.4-9.8 1-3.6 2.1-7.3 2.5-8.2.4-1.3-.2-1.9-2.3-2.3-1.6-.4-3.6-.9-4.5-1.1-.9-.3-2.5.3-3.4 1.2M312.6 387.7c1.6 2.1 3.5 4.4 4.4 5.3.8.9 2.8 3.1 4.3 4.9s3 3.1 3.4 2.8c.8-.8 3.3-11.7 3.3-14.5 0-2.1-.3-2.2-9.1-2.2h-9.1zM514.9 384.7c-1.7.4-4.8 6.5-6.4 12.9l-1.1 4.2 4-1.4c2.3-.7 7.9-2.2 12.5-3.3s8.6-2.3 8.9-2.6c.7-.7-2.9-3.4-4.5-3.5-.7 0-1.3-.4-1.3-.9 0-1.1-7.6-6.1-9.2-6-.7.1-2 .3-2.9.6M306 387.7c-1.4 3.7-3.8 10-5.7 14.2-.8 1.9-1 3.7-.6 4.2.8.8 18.8-1.8 21.1-3 1.5-.8-.7-4-8.6-12.6l-5.2-5.6zM441 407.1c0 1.5 20.1 21.9 21.5 21.9.5 0 2.1-1.9 3.4-4.3 1.3-2.3 3.7-6.1 5.2-8.5 1.6-2.4 2.9-4.7 2.9-5.1 0-.5-6-1.6-13.2-2.5-7.3-.9-14.8-1.9-16.5-2.2-2.2-.3-3.3-.1-3.3.7M393.5 412.1c-.5.6-2.6 2.4-4.5 4.1-1.9 1.6-2.7 2.5-1.7 1.8 2.6-1.9 2.8-1 .7 3.2-.9 2-2.1 4.9-2.4 6.5-.9 3.2-4.5 7.5-5.8 6.7-.4-.3-1.1.9-1.5 2.6-.3 1.8-1.4 3.5-2.5 3.9-2.2.8 12.8 3.1 20.1 3.1 3.9 0 4.1-.2 4.1-2.9 0-1.6-.7-6.5-1.5-10.8s-1.5-9-1.5-10.6c0-2.5-1.2-3.3-4.2-2.8-.5 0-.8-.6-.8-1.4s.7-1.5 1.5-1.5 1.5-.7 1.5-1.5c0-1.7-.1-1.8-1.5-.4M399 415.1c0 1.2 5.2 16.3 6.5 18.9.7 1.4 2.4 6.5 3.8 11.5 2.5 8.5 7.9 22.9 11.5 30.5.9 1.9 1.8 3.6 1.8 3.8.1.1 3.7-3.1 8-7.2 10.8-10.3 11.8-9.6 1.5.8l-8.5 8.5 1.4 4.3c.8 2.4 2.6 6.1 4 8.2 2 3.2 2.6 3.6 2.8 2 .2-1 2.4-7.9 4.9-15.2 2.5-7.6 4.2-14.3 3.9-15.5-.3-1.1-.1-2.6.5-3.3.8-.9-1.5-4-8.3-11.6-19.2-21.3-33.8-36.7-33.8-35.7M443.8 463.6c-.2.5-1.3 3.6-2.3 6.9-.9 3.3-2.4 7.6-3.1 9.5-2 5.4-5.5 20.2-5 20.8.3.3 4.5-1.3 9.3-3.5 4.9-2.2 11.7-5.3 15.3-6.8 7.4-3.2 9.2-4.6 8.2-6-2.6-3.5-22-21.6-22.4-20.9M421.5 490.2c-.2.7-.9 3.3-1.5 5.6-.8 3.1-1.5 4.2-2.6 3.8-1.9-.7-1.8.2.3 2.2 1.6 1.6 1.6 1.7 0 2-.9.2-1.7 1.2-1.7 2.2s-.4 2.2-1 2.5c-.5.3-1 .1-1-.6s-.2-1-.5-.7-.1 1.7.4 3.2c.6 1.4.7 2.6.2 2.6s-1.2.7-1.5 1.6c-.7 1.8 8.1-4.3 13.6-9.4 3.7-3.5 3.7-3.5 2-6.4-.9-1.5-2.1-2.8-2.6-2.8s-.7-.3-.3-.6c.6-.7-1.9-6.4-2.9-6.4-.2 0-.7.6-.9 1.2M367 543.2c-.5 2.4-1.4 5.7-1.9 7.5s-.7 3.4-.5 3.6c.5.5 21.4-3.9 22.1-4.7.4-.3-.1-.6-.9-.6-.9 0-1.8-.9-2.1-2s-1.3-2.2-2.4-2.6c-1-.3-3.9-1.6-6.4-3-2.6-1.3-5.2-2.4-5.8-2.4-.5 0-1.5 1.9-2.1 4.2M895 104c-4.1.9-12 2.9-17.5 4.5-5.5 1.5-12 3.2-14.5 3.7-2.5.6-4.7 1.2-4.8 1.3-.2.2 1 2.4 2.7 4.9 1.7 2.4 3.1 4.9 3.1 5.4s2.6 5 5.8 9.8c3.1 4.9 6.6 10.6 7.7 12.6 1.1 2.1 2.2 3.8 2.6 3.8.7 0 5.3-9.3 10.4-21 2.1-4.7 5.7-12.5 8.2-17.4 2.4-4.8 4.3-8.9 4.1-9.1-.2-.1-3.7.6-7.8 1.5M904 103.9c0 .7-1.6 4.6-3.6 8.9-1.9 4.2-3.9 8.6-4.4 9.7s-1.8 4.1-2.9 6.7c-1.2 2.6-2.1 5.5-2 6.5s.6.1 1.3-1.9c1.2-4.1 3.2-6.6 2.3-3-.3 1.2-.1 2 .4 1.6 1.4-.8-.2 4.8-1.8 6.4-.8.8-1.3.9-1.3.3 0-2.8-3.1-.6-5 3.5-2.5 5.7-2.5 6.3-.1 3.8 1-1 1.6-2.2 1.4-2.7-.9-1.6 2.7-1.8 5.7-.2 1.9 1 4.2 1.4 5.6 1.1q2.4-.6 2.4.6c0 .7.7.2 1.6-1 .8-1.2 2.4-2.2 3.4-2.2s2-.5 2.2-1.1c.4-1.3 9.8-1.9 9.8-.7 0 .4.5.8 1.1.8s.9-.7.6-1.5c-.7-1.6.7-2.7 3.8-3.2 1.1-.2 2.9-.5 4-.7s2.4-.4 2.9-.5c.4 0-.5-1.6-2-3.5-1.6-1.8-4.9-5.9-7.4-9.2-5.4-7-15.9-18.8-17.1-19.2-.5-.2-.9.1-.9.7M854.6 114.9c-.4.5-2.1 1.3-3.8 1.7-1.8.3-3.9 1-4.8 1.4-.8.5-7.6 2.9-15 5.5-7.4 2.5-14.9 5.3-16.7 6.1-1.7.8-3.6 1.4-4.2 1.4s-1.9.4-2.9.9c-.9.5-2.6 1.2-3.6 1.6-3.3 1-1.4 1.8 7.9 3.1 2.2.3 4.7.8 5.5 1.1 4.4 1.8 15 3.9 15.3 3 .1-.5 2.1-.1 4.2.9 2.2 1 4.5 1.8 5 1.9.6 0 1.5.3 2 .6 2.8 1.7 8.6 1.9 11.5.4 1.7-.9 3.9-1.3 4.9-1 2.3.7 4.3-3.6 3.7-8.3-.2-1.7.1-3.2.5-3.2.5 0 .9.5.9 1.2 0 .6.2.9.5.6 1.7-1.7-2.7-5.3-6.1-4.9-2 .2-4.7-3.7-3.9-5.6.5-1 .7-2.6.6-3.6-.4-2.7.5-2 3.3 2.8 2.7 4.5 4.1 5.9 2.9 2.9-1.3-3.4-7.2-11.4-7.7-10.5M959.4 141.2c-.3.4.3.8 1.3.8 1.5 0 1.6.2.3 1-.8.5-1.2 1-.9 1s.3 2.1-.1 4.7c-.8 5.1-.4 7.6 1.1 6.7.5-.3.9.2.9 1 0 .9-.4 1.6-1 1.6-.5 0-1 .5-1 1.1s.7.9 1.5.6c1.2-.5 1.2-.2.3 1.8-.6 1.4-1.7 2.5-2.5 2.5-.7 0-1.3.4-1.3 1 0 .5.7 1 1.5 1s1.5.4 1.5 1c0 .5-.6.7-1.4.4-1.7-.7-2.5 1.5-1.9 4.9.6 3.1 2.3 3.7 2.3.8 0-1 .6-2.4 1.4-3 .8-.7 1.8-2.6 2.1-4.2.4-1.6 1.1-2.7 1.5-2.4.5.3 2.1-1.7 3.4-4.4 1.4-2.7 3-5.3 3.6-5.6.6-.4.8-1.6.5-2.8q-.6-2.25.3-.9c.6.9 1.2.6 2-1.3.7-1.5.9-3.1.6-3.7-.4-.6-.2-.8.3-.5 1 .6 2.8-2.1 2.1-2.9-.8-.7-18-.9-18.4-.2M972 157.7c-4.7 7.9-10 16.7-11.7 19.6-1.8 2.8-3.3 5.6-3.3 6.3 0 1 2.2 3.7 16 18.9 3 3.4 9.1 10.1 13.5 15.1 4.4 4.9 10.6 11.6 13.8 14.9 4.9 5 5.8 5.6 5.4 3.5-1.1-6.4-18.8-74.3-20.2-77.7-.9-2-1.8-5.2-2.1-7s-1.1-4.4-1.8-5.7c-1.1-2.2-1.6-1.6-9.6 12.1M986 153c0 .8.7 3.5 1.6 6s5.6 20.2 10.5 39.5c10.6 41.7 10.4 41 11.2 41 .7 0 11.3-13 12.8-15.6.6-1.2-.5-4.1-4-10.5-2.6-4.9-9.4-18.1-15.1-29.4-15-30-16.9-33.4-17-31M957.6 196.5c.3 4.4.9 10 1.4 12.5s1.7 10.3 2.5 17.5c.9 7.1 1.7 13 1.8 13.1.6.6 32 2.5 36.5 2.2l5.3-.3-2.5-3.3c-1.3-1.9-6.6-7.8-11.8-13.1-9.7-10.1-26.7-28.4-31.1-33.6l-2.5-3zM889.7 235.2c-1.9 7.6-3.5 28.8-2.2 28.8.5 0 .9-1.9.8-4.3-.1-3.4 0-3.5.4-.9.4 2.8.7 3.1 1.9 2.1 1.1-.9 1.4-.9 1.4.1 0 .7.9.2 2-1.1 1-1.3 1.9-1.8 2-1.2 0 2.6 2 1.2 2.1-1.5 0-1.5.3-2.1.6-1.5.2.7.9 1.3 1.4 1.3 1.4 0 .8-7-.9-10.4-.9-1.9-1-2.6-.2-2.1 1.4.8 1.3.7-1.5-4.8-1-2-2.5-3.7-3.2-3.7-.8 0-1.6-.7-1.9-1.5-.9-2.2-2.1-1.8-2.7.7M964.2 243.2c.4.8 3.9 5.9 8 11.4 4.1 5.4 11.8 16 17.1 23.4 12.3 17.2 13.6 18.9 13.7 17 0-.8.7-8.3 1.5-16.5.8-8.3 1.5-17.3 1.5-20 0-2.8.4-5.6.8-6.3 1-1.5.6 9.1-.8 24.3-2 21.3-2 21.2.9 24.8 3.4 4.3 15.2 15.2 17.1 15.9 1.3.5 2.2-1.5 4.3-9.1 6.6-23.2 9.7-34.2 12.2-42.6 1.5-5 3-10.1 3.4-11.5.6-2.1.4-6-.2-6-.1 0-6.5-.7-14.2-1.5-19.5-2.1-19.5-2.1-19.5 1.2 0 1.6 1.1 7.1 2.5 12.3 1.4 5.1 2.4 10.1 2.3 11-.3 1.4-3.1-8-4.9-16.7-.4-2.4-1.5-5.6-2.3-7.2l-1.5-2.8-13.3-.7c-7.3-.4-16.9-.9-21.2-1.3-6.8-.5-7.8-.4-7.4.9M958.7 255.6c-1.9 6.4-2.3 9.2-1.6 10.6.7 1.3.6 1.8-.3 1.8-.7 0-.1.8 1.2 1.7 1.4.9 2.7 2 3 2.3 1.2 1.6 13.2 9.1 13.9 8.8 1.2-.4-11.1-33-12.5-33.5-.6-.2-2.2 3.5-3.7 8.3M967 251.3c0 .4.4 1.5 1 2.5.5.9 2.3 5.5 3.9 10.2 6.7 19.5 6.6 19.2 11.2 21.8 2.4 1.3 7 4 10.2 5.9 6.3 3.8 8.1 3.8 4.7.1-3.9-4.3-4.7-5.3-6.6-8.3-1.7-2.8-21.6-29.8-23.5-32-.5-.5-.9-.6-.9-.2M905.7 259c-.4 1.6-1.7 4-2.9 5.2-2.5 2.5-2.5 2.5-8.7 14.8-2.3 4.7-4.7 9.2-5.2 10-3.1 5.2-4.6 9-3.6 9 .7 0 5.9-2.3 11.5-5 5.7-2.8 10.6-5 10.9-5s3.8-1.5 7.7-3.4c3.9-1.8 11.8-5.5 17.6-8.2s10.7-5.2 10.8-5.6c.2-.5.8-.6 1.3-.2.5.3.9.1.9-.5s-.9-1.5-2-2.1c-2.7-1.5-34.6-12-36.3-12-.8 0-1.7 1.3-2 3M956.4 278.6c.9 9.4 2.1 17.2 2.9 18 .5.6 6-3.3 13.4-9.3l3.2-2.7-8.7-5.6c-4.8-3.1-9.3-6-10.1-6.4-1.1-.7-1.2.3-.7 6M1065.7 284.9c-.9 1.6-1.7 3.5-1.7 4.3 0 1.6-3.1 4.5-8.8 8.3-2.1 1.4-4.4 3.6-5 4.8-4.5 9.4-11.2 25-11.2 26.2 0 .3 4.6-2.5 10.3-6.1 6.8-4.3 10.1-7.1 10-8.2-.1-.9.3-1.9.8-2.3.5-.3 1-4.5 1-9.2.1-4.8.6-9 1.2-9.4q.9-.6.3 9.6c-.6 7.9-.5 10.1.5 10.1.7 0 .1 1.3-1.4 2.8s-2.7 3.4-2.7 4.1c0 .6-1.1 2.8-2.4 4.8-1.9 2.7-2.2 3.8-1.3 4.8.9.9 2.3 0 6.1-4.2 7.3-8.1 12.9-16.3 11-16.3-.3 0-1.9.9-3.6 2.1-1.6 1.2-3.1 1.9-3.4 1.7-.2-.3 1.4-1.8 3.6-3.3 4.6-3.2 5-5.7 2.4-14.6-2-6.5-2.2-7.7-2.3-10.7s-1.3-2.8-3.4.7M979.5 287.7c.4 1 1.1 3.4 1.5 5.3.5 1.9 1.3 5.1 1.9 7s1.1 5 1.1 6.7c0 1.8.3 3.3.6 3.3 1.2 0 11.9-6.3 14.2-8.3 1.2-1.2 2.2-1.5 2.2-.9 0 1.2-10.1 8.2-11.8 8.2-.5 0-2.3 1.4-4 3.1-4 4.1-9.4 20.4-6.1 18.3.6-.3 1.5-.1 1.9.6s.9 0 1.3-1.9c.9-4.2 2.7-3.9 2.7.3v3.4l5.8.4c3.1.2 6 .3 6.4.1 1-.5-1-5-3.9-9.1-1.3-1.7-2.1-3.2-1.7-3.2 1.5 0 5.3 5.1 5.9 8 1.5 6.7 2 4.4 5.1-21.4.3-2.7.9-4.4 1.3-3.7.7 1-.3 10.9-2.3 23.8-.4 2.4-.4 4.3 0 4.3s4.1-2 8.3-4.3c8.4-4.9 11.5-6.2 10.6-4.7-.4.6-2.5 2-4.8 3.1-7.1 3.6-13.7 8.2-13.7 9.5 0 1.8 4.1 12.7 5.2 13.9.6.6.7.4.3-.7-.5-1.1.3-2.7 2.3-4.6 1.6-1.5 4.6-5.9 6.7-9.8 2-3.8 4.3-7.6 5-8.4 3-3.6 2.5-6.1-1.9-10.4-10.4-10.1-15.4-14.6-16.5-14.6-.6 0-1.1-.6-1.1-1.3s-2.6-2.7-5.7-4.5c-3.2-1.7-8.2-4.6-11.1-6.2-6.2-3.5-6.7-3.6-5.7-1.3"/><path d="m968.6 293.4-8.9 6.5 4.4 2c2.4 1.1 7.3 3.3 10.9 4.9 3.6 1.7 6.7 2.9 7.1 2.7.7-.5-.8-9.3-3-16.8l-1.6-5.7zM945.5 303.1c-4.4 1-9.9 2.3-12.3 2.8s-4.5 1-4.7 1.2 1.2 3.5 3 7.4c1.8 3.8 3.4 6.4 3.4 5.6.1-1 1.1-1.2 4.1-.8 2.3.3 4 .1 4-.5 0-.5-.4-.6-1-.3-1.6 1-1.1-.1.7-1.6 1.4-1.2 1.6-1.2.9 0-.5.8-.5 1.2.1 1 1.2-.5 9.6-10.7 11.2-13.7 2-3.8 2.2-3.8-9.4-1.1M952.2 310.2c-5.8 9.1-5.7 9.6 2.1 9.7 2 .1 4.6.6 5.7 1.3 2.9 1.8 3.5.3 2.3-5.5-1.3-6.4-.8-7.6.7-1.5 1.1 4.1 8 13.7 8 11 0-.7.7-1.2 1.5-1.2.9 0 1.5.9 1.5 2.1 0 2.1.1 2.1 2-.4 1.1-1.4 2-2.8 2-3.1s1.1-2.9 2.5-5.8c1.4-2.8 2.4-5.2 2.2-5.3-5.5-3-22.1-9.5-24.1-9.5-.6 0-3.5 3.7-6.4 8.2M879.8 304.4c-1 .7-1.8 2.6-1.8 4.2s-.5 3.6-1 4.4c-.7 1.1-.8.2-.4-2.8.4-2.3.5-4.2.2-4.2-1.2 0-41.8 22.3-41.8 23 0 .5 8.1 5.1 23.4 13.3 8.1 4.3 9.2 4.7 10.2 3.2 1.1-1.5 1.3-1.5 1.6.2.3 1.9.6 1.9 13.8.1 7.4-1.1 13.6-2 13.7-2.2.2-.2-1.9-5.5-4.6-11.9-2.7-6.5-4.7-11.7-4.4-11.7.2 0 2.8 5 5.6 11.1l5.3 11.2 2.7-4.1c1.4-2.3 4.9-6.9 7.6-10.4 2.8-3.5 7.3-9.5 10-13.4 4.8-6.9 4.9-7.2 2.8-7.8-1.2-.3-4.7-.6-7.7-.6s-11.3-.7-18.5-1.5c-15.6-1.8-14.6-1.7-16.7-.1M918.3 319.2c-8.8 13.1-9.2 13.8-6 10.9 1.5-1.4 2.7-2.1 2.7-1.7 0 .5.6.3 1.4-.3.8-.7 2.4-1.4 3.6-1.6 1.3-.2 4.2-1.2 6.6-2.1 3.3-1.3 4.4-2.2 4.4-3.9 0-3.5-3.1-11.5-4.5-11.5-.7 0-4.4 4.6-8.2 10.2M833.6 333.3c-.7 2.9-.6 24.6.2 31.5l.7 5.4 2.7-2.1c1.4-1.2 3-2.1 3.5-2.1.4 0 2.6-1.3 4.8-2.8 14-9.5 19.5-13.5 19.5-14.2s-8.2-5.5-24.6-14.6c-6.2-3.3-6.2-3.3-6.8-1.1M984.8 336c-2.2 1.3-1.3 6.7 1.5 9.1 1.7 1.4 1.9 2.1.9 2.7-1 .7-1 1.1.2 2.1 1.3 1.1 2.2.1 6.2-5.8 2.6-3.9 4.9-7 5.1-6.8s-1.5 3.7-3.7 7.7-4 7.6-4 8.1c0 .9 8 2.2 10.6 1.7 3.2-.6 2.6-7.9-1.3-16.6-1.5-3.1-1.7-3.2-7.7-3.2-3.3 0-6.8.5-7.8 1M886.5 346.6c-13.9 1.8-16.7 2.4-16.3 3.3.6 1.5 17.1 19.1 17.5 18.7.3-.2 1.6.2 3 .9 1.8 1 3.2 1.1 4.5.4 1.2-.6 1.8-.6 1.8.1 0 .5.4 1 1 1s.8-3.4.6-8.8c-.2-4.8-.4-10.6-.5-13-.1-2.3-.4-4.2-.8-4.1-.5.1-5.3.7-10.8 1.5M865 351.7c0 .4-2.1 2.1-4.8 3.7-2.6 1.6-7.4 5-10.7 7.6-3.3 2.5-7.9 5.7-10.2 7-2.4 1.3-4.3 2.6-4.3 3 0 .5 7 5.5 17 12 5.1 3.3 15.9 10.8 18.9 13.2 3.5 2.7 3.9 2.3 2.9-3.5-1.1-7.2-4.9-35.4-5.2-39.7-.2-2.3-.9-3.6-2-3.8-.9-.2-1.6 0-1.6.5M870 354.2c0 .7.5 3.1 1 5.3.6 2.2 1.3 6.5 1.6 9.5s1 7.3 1.4 9.5l.7 4 1.3-3.3c1.4-3.6 3-2.8 3 1.5 0 2.7 1.9 3 4.7.5 1.4-1.2 1.8-2.3 1.2-3.7-1.3-3.3-1.1-6.7.4-5.9.6.5-.1-.8-1.8-2.8C873.7 357 870 353 870 354.2M896 390.7c-.8.3-1.7.9-2 1.3-.3.3-3 2.1-6.1 3.8-3.1 1.8-6.2 3.9-6.9 4.7-1.4 1.7-2 1.5 10.4 4.4 8.7 2 11.6 2 8.6 0-1.1-.8-.9-.9 1-.4 1.4.4 3 1.2 3.5 1.7.6.6.3.7-1 .3-2-.6-2-.6-.1.9 2.6 2.1 3.6 1.2 2.6-2.2-.5-1.5-1.6-5.1-2.5-8-1.4-4.3-2.1-5.3-3.5-4.9-1.3.3-1.7 0-1.3-.9.5-1.5-.2-1.6-2.7-.7M1051.8 396.8c-.9 1.5-3 4.6-4.6 7l-3 4.2 1.9 6.3c1 3.4 1.8 6.3 1.8 6.5-.2.9 4.4 9.2 5.1 9.2 1.2 0 7.2-15.2 6.3-16.1-.4-.4-3.5-1.1-6.7-1.6-3.3-.4-6.1-1.3-6.3-1.9-.3-.8 1.7-.7 6.2.4 3.6.8 6.9 1.2 7.2.8.6-.5-.3-3.1-3.7-11.1-1-2.2-1.9-4.6-2.1-5.2-.2-.7-1.1-.1-2.1 1.5M973 395.9c0 .5.5 1.3 1 1.6.6.3 1 1.6.9 2.8 0 2.1-.1 2.1-1.1-.3l-1-2.5-1.6 2.4c-3.3 4.8-5.2 10.2-3.9 10.6 2.2.8 20.6 3.5 22.9 3.4 1.7-.1 1.9-.2.6-.6-2.1-.5-2.4-1.9-.5-2.6.6-.2 0-.8-1.5-1.2-1.8-.4-2.8-1.4-2.8-2.5 0-2.9-1.1-5-2.6-5-.8 0-1.4-.6-1.4-1.4 0-.7-1.3-1.6-2.9-1.9s-3.6-1.3-4.5-2.2-1.6-1.2-1.6-.6M940 400.2c-.6 2.4-1.8 6.5-2.5 9.2-.8 2.8-1.3 5.2-1.1 5.4.4.3 23.8-3.7 24.3-4.2.3-.3-12.7-10.3-16.4-12.7l-3.2-2zM986.7 428.6c-13 17.2-23.2 30.2-25.3 32.5-3.2 3.4-3 5 1.1 9.5 1.9 2.2 3.5 4.2 3.5 4.5 0 1.6 5.8 7.1 6.8 6.5.6-.3 2.7-5.9 4.7-12.4 2.1-6.4 5.7-18 8.2-25.7 4.7-14.6 6.4-20.5 5.7-20.5-.2 0-2.3 2.5-4.7 5.6M989.5 439c-.4 1.7-1.3 4.3-2.1 5.8s-1.4 3.4-1.4 4.2c0 .9-.4 2-.9 2.5-.5.6-1.8 4.4-3.1 8.5-1.2 4.1-2.8 9.5-3.5 12-2.8 9.6-3.5 14-2.6 15.7.6 1 2.2 5.8 3.7 10.8 1.4 4.9 2.9 9.2 3.3 9.5.3.3.8 1.4.9 2.5.5 2.4 1 3.1 1.8 2.2.3-.3-.3-4.3-1.4-8.9s-2.1-7.2-2.2-5.8c-.1 2.3-.2 2.3-.9.5-.4-1.1-1.1-3.4-1.4-5.2-.6-3-.4-3.2 2.2-3.1 3.9.1 5.1-.9 5.1-4.3 0-3.7 1.8-3.8 2.6-.2.3 1.6.7 3.2.8 3.8.1.5.8-2.6 1.6-6.9 1-6.2 1.1-7.9.1-8.6-1-.5-.8-.9.4-1.4 1.3-.5 1.5-1.3 1-3.8-.7-3.1-.6-3.2.8-1.3 1.2 1.6 1.8 1.7 2.8.8.7-.7 4.5-1.8 8.6-2.5 4-.6 7.3-1.5 7.3-1.9 0-.6-19.1-10.9-20.3-10.9-.2 0-.3 2.6-.1 5.7l.3 5.8-1.3-5.6c-.7-3-1.5-5.9-1.8-6.5-.3-.5-.2-4.3.3-8.4.9-7.8.6-10.3-.6-5"/><path d="M1034.9 450.5c-.3.2-9.5.5-20.5.5-22.5.2-22.1-.1-8 7.1 9.3 4.8 11.4 4.8 20-.3 12.9-7.5 13.2-7.8 11-7.8-1.1 0-2.3.2-2.5.5M946.2 478.1c-8 8.3-10 10.8-9 11.7 2.1 1.7 25.4 13.2 26.8 13.2q2.55 0-2.4-16.5c-1.5-5-3-11.2-3.3-13.8s-.9-4.9-1.2-5-5.2 4.5-10.9 10.4M959.8 471.2c-.4 1.2 1.1 8.1 4.9 22.6l1.9 7.2 2.9-8.7 2.9-8.6-2.2-1.5c-1.3-.8-3.9-3.9-5.8-6.9-3.9-5.8-4-5.9-4.6-4.1M1015.8 496.3c-1.6 12.1-1.5 12.8 3.4 15.3 2.7 1.4 2.8 1.4 2.8-1.3 0-1.6-.7-5.9-1.5-9.8-1.7-8.2-1.8-8.5-.6-8.5.4 0 1.6 4.5 2.6 10 1.1 5.7 2.4 10 3 10s2.1-1 3.3-2.3c2.4-2.6 2.2-3.3-2.8-11.2-1.1-1.7-2.5-4-3.1-5.3-.7-1.2-1.8-2.2-2.6-2.2-.7 0-1.3-1.1-1.3-2.4 0-1.4-.4-2.7-.8-3-.5-.3-1.5 4.5-2.4 10.7M357 588.3c0 .4 11.8 16.6 15.8 21.7l1.9 2.4 1.1-6.4c.7-3.6 1.5-8.6 1.8-11.1l.6-4.7-3.8-.6c-7.1-1-17.4-1.8-17.4-1.3M379.1 599.2c-.7 4.6-1.4 9.1-1.6 10.1-.4 2-.8 2.2 10.2-5.1 5-3.2 8-5.9 7.7-6.7-.3-.7.2-1.9 1-2.8.8-.8 1.2-1.7.9-2.1-.4-.3 0-.6.8-.6s2 .5 2.6 1.1c.7.7 1.9.8 3 .4 3.1-1.3-2.2-2.3-13.3-2.4l-10.2-.1zM1004 584.9l-3.5.6.2 9c.1 6-.1 8-.7 6-.4-1.7-.8-4.9-.9-7.2-.2-7 0-6.9-10.7-6.1-5.3.3-9.7.8-9.9 1-.6.7 19.6 16.9 21.5 17.3 1.7.3 2.6-.8 5.2-6.3 1.7-3.7 3.7-7.9 4.4-9.4 2.9-5.5 2-6.3-5.6-4.9"/></svg>