<svg xmlns="http://www.w3.org/2000/svg" width="1706.667" height="960" viewBox="0 0 1280 720"><path d="M0 360v360h597.8l1.2-3.5c1.6-4.9 2.9-5.2 2.3-.5l-.6 4h6.2c5.5 0 6.5-.3 8.8-2.7 4.2-4.5 10.3-12.9 10.3-14.1 0-.7.4-1.2.9-1.2s3.4-3.4 6.5-7.7c4.2-5.6 5.6-8.5 5.6-11 0-1.8.5-3.3 1-3.3.6 0 1 1.5 1 3.4 0 3.5 0 3.5 2.8 2 1.5-.7 3.4-1.4 4.2-1.4s.2.7-1.5 1.6c-1.6.8-3.3 1.8-3.7 2.2s6.1 7.8 14.5 16.5l15.2 15.7h4.9c4.2 0 4.7-.2 4.1-1.8-.4-.9-1.8-4.5-3-7.8-1.3-3.4-2.8-7.2-3.5-8.4-.6-1.2-.9-2.4-.6-2.7.5-.5 5.6 9 5.6 10.5 0 .5.8 2.7 1.7 4.8.9 2.2 1.6 4.2 1.5 4.6-.1.5 134.1.8 298.3.8H1280V0H0zM421.9 67.2c-.5 1.8-1.6 5.5-2.4 8.3-5.1 18.4-7.5 26.5-8.9 30-2.4 6.2-2.1 7.7 1.2 6.9 3.1-.7 3.9-1 22.7-9.7 7.7-3.5 20.8-9.4 29-13.1C485.2 79.9 485 80 485 79.4c0-.2-1.2-.9-2.6-1.5-1.5-.5-2.4-1.2-2.1-1.6.4-.3 2 0 3.7.7s4.5 1 6.7.6c3.2-.5 3.5-.5 1.8.5-2.2 1.4-4.7.4 24.4 10.5 10.2 3.5 19.3 6.4 20.3 6.4 1.4 0 1.8-.8 1.8-3.3 0-1.7.4-3.7.8-4.4s.8 1.1.7 4c0 4.5.2 5.2 1.9 4.9 1-.2 1.5.1 1.2.6-1.1 1.9 47 25 48.6 23.4.5-.5 2-4.3 3.3-8.3 2.9-8.9 3.3-7.6.6 2.1-1.1 3.8-1.8 7.6-1.7 8.5s2.2 4.6 4.6 8.3 6.8 10.5 9.8 15.2 8.1 12.5 11.3 17.5c13.2 20.6 15.2 23.5 16.4 23.5.8 0 1.4 1.8 1.7 4.9.1 2.7 0 4.7-.4 4.4-.5-.2-.8-1.2-.8-2.2 0-2.8-1.9-4-4.8-3-1.5.5-9.4 1.8-17.7 2.9-8.2 1.2-24.6 3.6-36.3 5.5s-21.4 3.5-21.7 3.5c-1.3 0-.2 2.2 2.5 5.1 1.6 1.8 2.7 3.5 2.5 3.7-.3.3-1.4-.7-2.6-2.1-1.1-1.5-2.7-2.7-3.6-2.7-1.6 0-1.5 11.9.9 67 1.3 29.2 1.2 28.2.8 37.7-.2 4-.1 7.5.3 7.9s3.6-.7 7.2-2.4c3.5-1.8 6.8-3.2 7.2-3.2.5 0 1.9-.6 3.3-1.3s6.3-2.8 11-4.6c4.7-1.9 15-6.3 22.8-9.8 7.9-3.5 14.6-6.2 14.8-6 .6.6-22.8 11.1-41.6 18.8-18.2 7.5-22 9.2-22 10.1 0 .5-.6.8-1.4.8-1.1 0-1.5 2.8-2 12.7-.4 7.1-.9 16.3-1.2 20.5s-.3 8.2.1 8.7c.3.6 5.7-2.8 12.7-8.2 6.7-5 15.3-11.6 19.2-14.5 7.5-5.5 14.8-13.3 30.4-32.6 10.7-13.2 15.2-18.3 13.1-15-3.6 5.5-23.7 30.3-29.1 35.9-2.1 2.2-3.6 4.5-3.3 5.3.2.7-.6 1.7-2 2.2-1.3.5-9.5 6.4-18.2 13.1s-16.8 12.9-18.1 13.7c-1.4.9-2.1 2.1-1.7 3 .4 1.1 0 1.3-1.5.9-1.2-.3-2.3 0-2.5.6-.7 2.2-7.7 25.2-8.2 27-.3 1-.7 1.6-1 1.3-.3-.2 1.4-6.4 3.6-13.8 2.3-7.3 4.1-14.7 4-16.3 0-1.7.4-7.3 1-12.5 1.1-10.7 1.6-28.8.8-29.6-.3-.3-2.4.6-4.7 2.1s-4.9 2.8-5.9 3c-2.8.6-17.9 8.3-18.6 9.5-.8 1.3-.5 1.7 15.8 15.3 5.9 4.9 10.7 9.1 10.7 9.3 0 1.3-2.5-.3-7.8-4.9-11.8-10.2-20.3-16.9-20.8-16.4-.3.3-.8 2-1 3.9-1.3 8.6-2.7 16.1-5 25.3-3.3 13.1-4.3 19.5-3.2 19.5 1.4 0 8.8-4.5 23.6-14.3 7.4-4.9 13.6-8.6 13.8-8.4.7.7-21 15.5-34.9 23.7-2.9 1.7-3.5 2.5-2.5 3.1 1 .7.9.9-.5.9-1 0-2.2 1-2.7 2.2l-.9 2.3v-2.3c-.1-2.4-.5-2.4-10.1.3-2.5.7-7.9 2.3-12 3.5-4.1 1.1-8.3 2.5-9.3 3.1-1 .5-2.2.7-2.7.4s-3.7.1-7.2.9-8.9 2-12 2.6c-4.7.9-5.8 1.5-5.8 3.1 0 1.2-.5 1.7-1 1.4-.6-.4-1.8-.1-2.7.7-1.5 1.2-1.5 1.1-.4-.9 1.4-2.7 2.3-2.4-15.7-5.3-14.8-2.4-14.9-2.4-14.9-.5s18.5 21.5 20.2 21.5c.7 0 1.5.8 1.7 1.7.3 1.2 3.6 3 9.1 5.1 4.7 1.8 9.3 4 10.4 4.8 2.2 1.7-2.9-.2-11.7-4.3-3-1.4-6.7-2.6-8.2-2.7-1.4 0-2.4-.5-2.1-.9.3-.5-2.4-3.6-5.8-7.1-3.5-3.4-9.2-9.3-12.6-13l-6.2-6.9-9.3.7c-16.9 1.2-21.9 1.9-23.3 3.2-.7.7-1.6 1-2 .6-2.6-2.3 8.8 12.3 13.4 17.3 6.2 6.7 16.8 18.9 22 25.4 2.1 2.6 3.8 3.8 4.4 3.2s.5-4.7-.2-11c-1.6-14.5-1.1-17.7.6-4.6.8 6 1.6 12.1 1.6 13.5.3 4.4 1.6 4.9 7.9 2.9 3.4-1 6-1.3 6.4-.8.3.5.2.8-.3.7-.8-.2-11.4 3.1-12.3 3.9-.7.6 22.3 23.3 23.7 23.3.6 0 1.4-.6 1.6-1.3.2-.6.3.1.1 1.8-.5 3.2-2.1 4.7-4.1 3.7-1.6-.9-32.3 13.8-32.3 15.5 0 2 13.6 18.7 16.4 20.3 2 1 2.3 1.6 1.5 2.7-.6.7-1.7 1.3-2.4 1.3-1.5 0-20.4 9.2-26.2 12.9-2.4 1.4-4.3 3.1-4.3 3.7s1.9 2.4 4.3 4c2.3 1.6 6.9 5 10.2 7.5s6.8 4.9 7.8 5.2c.9.4 1.7 1.1 1.7 1.7 0 1.5-3 1.2-3.6-.4-.6-1.5-18.7-14.8-21.6-15.9-1.4-.5-1.8-.1-1.9 2.1l-.2 2.7-.4-2.7c-.3-1.6-1.1-2.8-1.9-2.8-2.6 0-15.9 3.2-16.8 4-.5.5-1.4.6-2 .4-1-.4-16.9 2-28.8 4.3-1.8.3-4.3-.5-8-2.5-4.8-2.6-11.8-6.5-12.6-6.9-.7-.3 4.7-10 6.4-11.4 1-.8.4 1-1.6 4.4-3.1 5.6-3.2 5.9-1.4 7.3 1.1.8 4.8 2.9 8.3 4.6 5.9 2.7 6.6 2.8 7.7 1.4 1.1-1.6 3-15.4 2.1-16.2-.2-.2-2.6-.7-5.3-1s-5.9-1.1-7.2-1.7c-1.9-.9-2.7-.6-5.2 1.8-3.6 3.5-4.1 1.7-.5-1.9 1.4-1.4 2.5-3 2.5-3.6 0-.5.6-1 1.3-1 1.6 0 3.9 1.5 3.8 2.5-.2 1.3 6.8 1.7 8.7.5 1.6-1.1 1.6-1.1 0-.6-1 .3-2 .1-2.3-.4-.4-.6 0-1 .7-1.1.7 0 2.1-.2 3.1-.4s2.6.5 3.6 1.6c1.8 2 4.5 2 32.9.5 4.5-.3 8.2-.1 8.2.3 0 1 13.2-.8 14.4-2 .6-.5 2.4-.9 4-.9 1.7 0 3.7-.4 4.5-.9 1.4-.9-5-1.8-17.4-2.4-4.3-.2-3.5-.4 3-.5 5-.1 13 .3 17.9.9 5.8.7 9.2.7 9.8.1 1-1-2.8-6.2-12.3-17l-3.8-4.3-5.3 3.7c-9.1 6.3-18.8 14.6-18.2 15.5.9 1.5-3.4.4-5.3-1.3-1-.9-2.9-1.9-4.3-2.3-2.5-.8-13.9-6.6-19.6-10-2.9-1.7-3.5-1.8-7.5-.5-2.3.8-5.8 2.5-7.6 3.7s-3.3 1.8-3.3 1.2c0-.5-1.2-1.5-2.7-2.1-1.6-.7-3.6-2.1-4.5-3.2-1.5-1.8-1.9-1.9-2.8-.6-1.3 1.8-.5-2.9 1.3-7.5.6-1.6 1.1-6.3 1.2-10.5 0-4.1.1-6.7.3-5.7.2.9.7 1.5 1.2 1.2s.6 1.7.3 4.5c-.3 2.7-.3 5 .1 5 .3 0 1.9-1.9 3.6-4.2 1.6-2.2 3-3.5 3-2.7 0 1.7-2.8 6.1-4.7 7.2-.7.4-1.3 1.6-1.3 2.5-.1.9-.7 2.8-1.4 4.1-1.8 3.2-1.1 5.4 2.6 7.6 3.3 1.9 4.7 1.1 4.9-3 .2-5.4 1-11.4 2.1-15.3.8-3.1.8-4.6 0-5.4s-.6-1.8.8-3.6c1.1-1.4 2-3.1 2-3.9s.5-1.1 1-.8c.6.4.9 1.2.8 1.8-.1.7.3 2.2 1 3.4.6 1.2 1.5 3.9 1.8 6s.8 4.1 1.1 4.5c.8 1.5 2.3.8 2.1-.9-.2-1 .3-5.7 1.1-10.6l1.3-8.7h3.3c1.9 0 4-.7 4.9-1.5.8-.8 3.6-2.4 6.3-3.6 2.6-1.1 5.6-3 6.6-4.2l1.8-2.2-.6 2.2c-.6 2.1-.3 2.3 3.7 2.3 2.4 0 4.9.5 5.4 1 .6.6 2.7 1.9 4.7 2.9 3.5 1.8 3.7 1.8 3.7.2 0-2.7-11.5-35.9-13-37.5-.4-.4-.6 1.8-.3 5 .3 3.3 1 6.2 1.6 6.6.7.4.7 1.1-.3 2.2-.7.9-1.5 1.4-1.8 1.2-.3-.3-1.7.2-3.1 1.2-1.4.9-5.7 3.3-9.4 5.2s-7.7 4.3-8.7 5.2c-2.7 2.6-5.3 2.2-6.8-.9-.9-2-.9-2.4 0-1.5.7.7 2 1.2 2.9 1.2 2.8 0 24.2-11.1 23.3-12-1.4-1.4-31.1-2.5-32.7-1.2-.7.7-1.8.7-2.7.2-1.4-.9-5 .4-5 1.8 0 .5 2.7 2.6 6 4.7s6 4 6 4.2c0 .6-6.1-2.8-11.9-6.4-9.2-5.9-9.5-5.9-12.6-.2-1.5 2.8-2.9 4.8-3.2 4.5s.2-1.7 1.1-3c.9-1.4 1.6-3.6 1.6-4.9 0-2.8-2.8-3.7-11.5-3.7-4.4 0-5.4.3-6.3 2.2-1.1 2.3-1.1 2.3-1.1-.3-.1-1.4.6-5 1.5-8 2-7 10.5-27.3 11.6-27.7 2-.8.5-2-3.3-2.6-3.4-.5-4.3-.3-6 1.6l-2.1 2.3.5-2.3c.4-1.8.1-2.2-2-2.2-4.4 0-20.3 3.2-20.3 4.1 0 1 2.5 7.8 4.6 12.6.8 1.7 1.4 3.6 1.4 4.2 0 1.5 1.3 1.4 2.9-.2 1.1-1 1.1-.8 0 1-1.1 1.9-1 2.9 1.1 7.3 1.3 2.9 3.4 5.9 4.5 6.8 3.2 2.6 5.5 6.4 5.5 9.2-.1 2.1-.3 1.9-1.4-1.3-.8-2-3.1-5.6-5.2-8-2.2-2.3-4.9-6.5-6.1-9.2-1.2-2.8-3.2-7.3-4.4-10-1.2-2.8-2.3-5.2-2.4-5.5-.7-2.9-3.1-8-3.6-8-1.8 0-2.7-21.3-1.4-35.2.2-2.1-.1-4-.6-4.4-.5-.3-.9-1.6-.9-2.9s-.5-2.7-1-3c-.7-.4-1.1-4.6-1-10.3 0-5.4-.4-12.9-1-16.7-.9-6.1-.7-28.1.3-29.2.2-.2.7 2.3 1 5.5.4 3.2.9 6.6 1.3 7.5 1.3 3.6 6.9 3.1 11.6-1.1 1.7-1.4 1.5-1.9-3-7.1-2.6-3.1-5-5.7-5.4-5.9s-2.3-2.7-4.3-5.5c-3-4.2-1.9-3.3 6.2 4.9 9.2 9.5 12.6 11.7 13.7 8.9.6-1.8-3.1-9.4-5.6-11.5-3.6-3-15.1-8.3-17.6-8.2-1.8.2-2.2-.2-1.7-1.7.3-1 1.2-4.7 2-8.2.7-3.5 1.9-8 2.5-9.9 1.3-4.2 2.1-7 2.4-9 .7-4.2 4.1-13.9 6.3-17.9 1.3-2.5 2-4.7 1.5-4.9-1.9-.6.6-14.9 4.4-25.5.8-2 1.4-4.5 1.4-5.5s.9-2.8 2-4c1.3-1.3 1.6-2.3.9-2.8-.8-.4-.8-.9 0-1.7.6-.6 1.1-2.1 1.1-3.3 0-1.3.5-2.6 1-2.9.6-.3 1-2.1 1-4 0-6.7 8.1-27.9 17.9-47 7-13.6 10.4-18.6 11.7-17.3.3.4-.4 1.5-1.6 2.5-1.3 1-4.6 6.6-7.5 12.5-2.8 5.9-5.6 11.3-6.2 12-.5.7-1.5 2.9-2.2 4.8s-1.8 4.6-2.5 5.9c-.8 1.9-.8 2.5.1 2.8.8.3.5 1.1-.8 2.4-1.5 1.5-1.9 3.3-1.9 8.6 0 4.6-.3 6.3-1 5.3-1-1.7-.6-2.5-4 9-1.3 4.1-2.5 10.5-2.8 14.2-.5 7.1-1.7 8.7-2.9 4-.7-2.6-.8-2.6-1.4 1.3-1.2 6.7-1.9 9.7-3 11.7-.6 1.1-.8 2.2-.5 2.5.3.4.1 1.2-.5 2-.6.7-.9 1.3-.5 1.3.3 0 .1 1.1-.4 2.5-.6 1.5-.6 2.6 0 3s1 1.1 1 1.6c0 .6-.5.7-1.2.3-.8-.5-.9.2-.5 2.4s-.1 4.8-1.8 8.7c-1.4 3-2.8 7.3-3.1 9.5-.6 3.7-.4 4.2 4 8.6 3.6 3.7 4.6 4.3 4.7 2.8 0-1 .1-5.7.1-10.4v-8.5l1 11.3 1 11.2 3.7 2.8c2 1.6 4.9 3.7 6.5 4.8l2.9 1.8-.7-3.9c-.4-2.2-1.4-5.4-2.1-7-.8-1.7-3.4-8.9-5.7-16.1-3.1-9.3-4.7-12.9-5.7-12.6-.9.3-1.1 0-.7-.7s.4-1.7-.1-2.4c-1.5-2-1.5-7.1 0-10 1.4-2.7 1.4-2.6 2 3.2.5 6.1 6.5 25.5 11.9 38.9 1.6 4.1 2.7 8 2.4 8.8-.3.9-.1 1.2.4.9.6-.3 1.4.5 1.9 1.8.5 1.4 2.9 3.4 5.3 4.6 2.4 1.3 6.3 3.5 8.8 5.1 11.8 7.5 16.5 9.9 16.8 8.4.2-.7-2.3-9.4-5.5-19.1-3.3-9.8-8.1-24.5-10.8-32.6-2.8-8.6-5.1-14.3-5.6-13.5-.3.7-1.2 5.3-1.8 10.3-1.3 10-3.3 20-4.2 21-.7.7-.3-2.2 1.6-12 2.4-12 3.9-25.5 2.9-26.4-.5-.5-4.5-.3-8.9.5-4.4.7-9.3 1.3-11 1.2-1.6 0 1.9-.9 7.9-1.9s11.1-2.1 11.4-2.3c.3-.3-1.2-6.1-3.3-12.8-6.3-20.5-7.5-25.2-7.2-26.8.3-1.3 3.2 7.4 9.9 29.8 1.9 6.5 2.4 7.2 3.5 5.6.7-1 1.3-1.2 1.3-.6 0 1.6 2.2.4 7-3.8 1.9-1.6 4.2-3.5 5-4.2s4.1-3.5 7.5-6.1c3.3-2.7 6.3-5.4 6.7-6.1s.3-6.4-.2-12.7c-.6-6.3-1.8-20.5-2.7-31.7-.9-11.1-2-20.2-2.4-20.2s-.5-.9-.2-2 .2-3.6-.1-5.6l-.7-3.5-3.1 3c-3.9 3.8-5 3.3-1.4-.5 1.4-1.6 2.4-3 2.2-3.2s-2.1.1-4.2.7c-5.7 1.6-5.2.6.7-1.5 2.8-1.1 5.8-2.9 6.7-4.1.8-1.3 1.9-2.3 2.5-2.3 1.1 0 5.7-3.3 17.5-12.5 4.2-3.3 9.3-7.1 11.2-8.5 1.9-1.3 3.7-2.7 4-3 .7-.8 14.3-11.3 15.5-11.9.6-.3-.1.4-1.5 1.7-2.3 2.1-7.4 6.2-33.5 26.6-4.9 3.9-9.1 7.4-9.3 7.8-.2.5-1.2.8-2.3.8-1 0-1.9.5-1.9 1.1 0 1.1 4.4.8 25-1.6 6.3-.8 16.9-1.9 23.5-2.5 10.1-.9 12.3-1.3 13.7-3.1 1.7-2 9.6-25.2 13.8-40.4 2.2-7.9 2.8-9.5 3.5-9.5.2 0-.1 1.5-.6 3.2m487 39.9c35.4 17.4 38.5 19 41.7 21.4 2.7 2.1 10.4 5.8 10.4 5.1 0-1.2-2.6-7.6-4-9.6-1.9-3-4.2-10.2-2.9-9.4.5.3.9 1.1.9 1.8s.8 2.4 1.8 3.7 2.4 4.3 3 6.6c2.4 8.1 3.9 9 20.2 11.3 13.8 2 18.2 3 12.9 3-1.3 0-6.7-.7-11.9-1.5s-10.7-1.5-12.2-1.5h-2.7l2.8 5.2c5.1 9.5 22.4 43.1 26.3 51.3 2.1 4.4 4.8 9.6 5.9 11.5s2.8 5.2 3.7 7.2c1.8 4 3.2 4.9 3.2 2 .1-7.5 1.4-25.4 2-28.2.7-3 .8-2.5.8 3 .1 3.6-.3 11.4-.8 17.5-1 13.4-1.1 13.2 13.8 28.5 7.3 7.4 7.1 7.6 9.7-4.5 1-4.4 3.1-12.4 4.7-17.9 1.5-5.4 2.8-12.4 2.8-15.5.1-3.7.4-5.1.9-4.1 1.6 2.7 5.6 21.3 10.6 48.8 1.3 7.3 2.7 14.3 3.1 15.4.4 1.3.2 1.8-.4 1.4-1.8-1.1-3.2 5.7-3.1 15.7 0 5.3.4 9.7.8 9.7.5 0 2.1-1.8 3.6-4 2-2.8 2.6-4.7 2.2-6.7-.4-2.3-.3-2.5.7-1.1.7.9 1.8 4.7 2.5 8.5.7 3.7 2.2 9.8 3.2 13.5 1.5 5.2 1.8 8.2 1.3 13.3-.4 3.6-1 6.5-1.4 6.5s-.5-1.1-.3-2.4c.3-1.3.1-3.1-.4-3.9-.7-1.3-1.8-.9-7 2.2-3.5 2.1-7.1 4.5-8 5.4-1 .8-3 1.8-4.4 2.2-1.5.4-3.9 1.9-5.4 3.5-2.2 2.3-2.4 2.8-1.1 3.3.9.4 1.6.2 1.6-.4s.4-.8.8-.5c.5.3 1.5-.6 2.2-1.9s1.9-2.6 2.6-2.9c1-.4.9.3-.2 2.9-1.8 4.3-1.8 4 .9 4.3 1.5.1 3.8-1.5 7.7-5.6 3-3.2 4.9-5 4.3-4.2-.7.9-1.3 2.1-1.3 2.6-.1.5-1.4 2.4-3 4.3-3.5 4.2-3.1 5.8 1.6 5.3 2.6-.3 3.8-1.1 4.9-3.3.8-1.5 1.5-3.2 1.5-3.8 0-.5.5-2.2 1-3.7 2.1-5.4 2-1.5-.2 8.7-2 9.8-2.5 16.4-2 26.9.4 6.7-.3 10.1-2.1 11.5-1 .7-1.6 2.3-1.5 3.6.2 1.6-.2 2.3-1.1 2.1-1.1-.2-1.2.9-.8 5.5 2.6 24.6 2.7 28.6.7 35.8-1 3.8-1.9 6.1-1.9 5-.1-1.9-.2-1.9-1.6.2-.8 1.1-2.9 5.8-4.7 10.3-1.8 4.6-3.4 7.7-3.6 7-.2-.6.1-2.2.6-3.3 2-3.9 6.2-15 6.2-16.3 0-.9-12.7-3.8-17.4-3.9-1.5 0-1.6 9.6-.1 14.5 1.7 6 5.3 12.7 7.1 13.4 1.1.4 1.4 1.9 1.3 5.5l-.2 4.8-7.9.6c-4.3.3-8.5 1.1-9.3 1.7-.8.7-1.7 2.8-2.1 4.9-.4 2-1.1 4.3-1.6 5.1-.9 1.4-.4-3 .8-7.3.7-2.1-1.2-2.1-4.8.1-1.4.9-5.6 3.4-9.2 5.5s-7.7 4.9-9.1 6.3-2.5 2-2.5 1.4c0-1-7.9-.7-15 .6-1.8.3-2.1.2-1-.5.8-.4 4.1-1.1 7.4-1.5 7.8-.9 8.4-1.4 4.4-4.1-5.1-3.5-18.7-9.5-19.3-8.5-.3.5-.1 1.1.5 1.5.5.3.9 2.1.9 3.8-.1 2.4-.3 2.6-.6.9-.2-1.2-1-3.4-1.8-4.8-.8-1.6-1.1-4.8-.9-8.7l.5-6.2-2 4c-1.1 2.2-3.4 8.9-5.1 15-1.7 6-3.7 12.3-4.3 13.9-.9 2.5-.8 3.1 1.2 4.7 3 2.4 5.2 2.4 7.9-.1 2.4-2.3 4.8-2.6 5.5-.8.3.7.6 0 .6-1.5.1-1.6-.3-2.6-.8-2.3s-1.5-.2-2.2-1.1c-1.2-1.4-1.1-1.5.9-.9 1.8.6 2.2.4 2.2-1.3 0-1.2.5-2.1 1-2.1.6 0 1 .5 1 1 0 .6 1.2 1.5 2.8 2.1 1.5.6 5.3 2.3 8.5 3.7l5.7 2.6v8.2c0 9.2 1.3 11.6 3 5.5 1.6-6.2 5-13.1 5-10.4 0 1.2-.7 4.2-1.5 6.5-.8 2.4-1.7 7.4-2 11.2-.3 3.7-1 7.6-1.5 8.6-1.4 2.6-1.4 2.6 2.4 4.9 4.4 2.8 6 2.7 5.2-.1-.9-3-2.7-14.1-3.2-19.8-.6-7.2 1.2-2.5 2.6 6.5 1.5 10.1 2.8 15.5 3.9 15.5.5 0 2-1 3.5-2.1 2.3-1.8 2.6-2.6 2-5.3-.4-1.7-.8-4.7-.9-6.6s-.5-5.1-.8-7c-.4-1.9-.4-2.9-.1-2.3 1.2 2.8 2 1 1.7-4-.2-2.8.1-6.6.6-8.2.7-2.7.8-2.4 1 2.5.1 3 .2 6.5.2 7.7-.1 1.3.3 2.3.8 2.3s.9 3 1 6.6c.2 8 1.5 11.4 2.6 6.5.4-1.7.6-6.2.5-9.9-.3-9-.2-9.2 1.6-8.5 1.3.5 1.5 1.5.9 5-.4 2.8-.2 4.9.5 5.8.7.8.9 1.9.5 2.5-.3.5-.4 1 0 1 .3 0 1-1.2 1.6-2.6 1.4-3.8 2.2-2.3 1.1 2-.6 2.1-.7 3.4-.1 3.1.5-.4 1-1.6 1-2.8.1-1.7.3-1.5.9.8l.8 3 .1-3.3c0-1.8-.4-4.2-.9-5.2-.8-1.6-.6-2.2 1-3.2 1.1-.7 2-2 2-2.8s1.1-3.2 2.5-5.2 2.5-4 2.5-4.5c0-.4 1-3.2 2.1-6.3 1.2-3 2.8-7.3 3.6-9.5 1.4-3.6 3.3-8.5 6.8-17 .7-1.7 1.8-6.8 2.4-11.5 1.6-11.6 2.3-15.2 2.7-14.7 1 .9-2.5 24.7-4 27.6-3.8 7.2-10.6 26.2-13 36.1-.9 3.6-2.2 8.1-3 10-.7 1.9-1.9 5.7-2.5 8.5-2.8 11.6-5.3 18.6-6.7 18.1-.8-.3-1.4.4-1.6 1.7-.2 1.4-.9 2.1-2 1.9-1.9-.3-8.8 3.5-8.8 4.9 0 .5.4.9.9.9s.9.6.8 1.3c-.1 3.2.4 4.7 1.7 4.7 1.9 0 2.9 3 1.5 4.6-.6.8-.8 1.4-.4 1.4s.3.6-.3 1.3-.7 1.8-.2 2.7c.6.9 1.2.1 2-3.1 1.5-5.6 1.6-5.7 2.5-9.7.4-1.8 1.2-3.5 1.8-3.9 1-.6 1-.2-1.7 10.2-1.7 7-4.5 13.8-4.6 11.3 0-1.5-.8-1.4-6.2 1.3-3.5 1.7-7.1 3.4-8 4-1 .5-2.3.9-3 .9-2.4 0 1-2.3 6.3-4.1 5.2-1.9 8.9-4.4 8.9-6.1 0-.6-1-1.8-2.2-2.9-1.3-1-1.8-1.8-1.1-1.9.6 0 1.5.4 1.8 1 1 1.6 2.5 1.2 2.5-.7 0-.9-.9-3.6-2.1-6l-2.1-4.3-4.9 2.6c-2.7 1.3-4.7 2.9-4.4 3.5.4.5.1.8-.6.7-.8-.2-1.2 1.6-1.1 6.2l.1 6.5-1.2-5.9c-.7-3.3-1.7-6.1-2.3-6.3-1-.3-10.9 6.9-15.2 11.3-2.6 2.5-4.8 3.1-5.4 1.4-.2-.6-2.8-1.4-5.8-1.9s-6.7-1.2-8.2-1.6c-2.6-.7-2.8-.5-2.8 2.6 0 2.4-.3 3-.9 2-.5-.8-.7-2-.4-2.8 1-2.6-2.1-1.2-11.3 5.2-5.2 3.6-9.4 6.3-9.4 6.1 0-.9 17.5-13.6 18.7-13.6.7 0 1.3-.3 1.3-.8 0-.9-8.5-6-16-9.5-11.4-5.4-18.6-9.7-16.2-9.7 1.9 0 2.2-.4 1.7-2.3s-.4-2 .5-.5c.6 1 1.6 1.8 2.3 1.8 1.5-.1 13.2-14.8 15.1-19.2.9-1.8 2.7-6.8 4.2-11.1 1.5-4.2 3.1-7.7 3.5-7.7 1.9 0 .8-3-2.6-7.2-6.2-7.7-9.8-11.8-10.1-11.5-.2.2 1.2 6.4 3.1 13.7 3.4 13.3 4.2 19.5 1 8.3-.9-3.2-2.5-8.8-3.6-12.5-1.1-3.6-2.1-7.6-2.2-8.7-.1-1.2-.6-2.1-1.2-2.1-1.3 0-20.5 19.4-20.5 20.7 0 .5 6.6 4.2 14.6 8.2s14.4 7.5 14.1 7.7c-.3.3-7.1-2.7-15.1-6.7-8.1-3.9-15-6.9-15.3-6.5-.3.3-1.4-1.8-2.4-4.6-1-2.9-1.6-5.5-1.3-5.7.2-.2.9 1 1.5 2.8s1.6 3.1 2.3 2.9c.6-.2 5.5-4.9 11-10.5 10.2-10.6 10.3-10.8 8.1-16.8-.6-1.7-.4-1.6 1.3.4 2.3 2.9 3.9 2.2 3.7-1.6-.2-1.8-.1-2 .2-.6.2 1.3.8 2.3 1.2 2.3s3.9-3.9 7.8-8.8c4-4.8 8.6-10.3 10.3-12.2 3.6-4.1 14.9-19.7 15.7-21.6.3-.8-.4-1.5-1.9-1.8-10.2-2-15.1-2.7-20.3-2.9l-6-.2-1.2 7c-.7 3.8-1.5 9.7-1.9 13-.3 3.3-.9 6.2-1.2 6.5-.2.3-.2-2.7.2-6.5 2-21.5 2-20.5 0-20.5-1.1 0-7.3.9-13.8 2-6.6 1-12.3 1.7-12.8 1.4-1.4-.9-.9 1.3 1.6 6.3 1.4 2.6 3.2 6.5 4.1 8.5 1 2.1 2.1 3.8 2.5 3.8 1 0 10.1-9.9 13.6-14.9 2.8-3.9 4.4-5.1 4.4-3.2 0 .5-3.9 5.3-8.6 10.6-6.4 7.1-8.5 10.1-8.1 11.6.4 1.6.3 1.8-.8.9-1-.9-3.1-.4-8.6 1.9-9.4 4-10.1 3.3-.9-.8 4.2-1.9 7-3.7 7-4.6 0-2.3-8.2-18.5-9.1-18-.4.3-.9-.1-1.2-.9s-4.3-2-9.9-3c-5.1-.9-10.3-2-11.5-2.3-1.8-.4-2.3-.1-2.4 1.3 0 1.6-.1 1.6-.9-.3-.9-2.2-4-3.4-21.5-7.8-5.4-1.4-9.4-2-10.1-1.4-.6.5-1.4.5-2-.1-1.5-1.5-30.4 6.2-30.4 8.2 0 .5 1.1 2.9 2.5 5.3s3 5.8 3.5 7.7l1 3.3-1.8-2.3c-1-1.3-2.6-4-3.6-6-1-2.1-2.3-4.8-3-6.2-.9-1.9-2-2.5-4.4-2.6-4.4 0-5.4-1.4-1-1.4 1.9 0 3.7-.2 4-.5.6-.6-3.3-20.3-5.1-25.9-.6-1.7-1.2-4.4-1.4-5.9-.4-3.5-2.3-4.8-5.4-3.6-1.4.5-3.2.9-4.1.8-.9 0 .2-.7 2.6-1.6 3.7-1.3 4.9-3.3 2-3.3-.6 0-3.1-1.7-5.6-3.7-2.5-2.1-6.1-4.8-8-6.1-1.9-1.2-6.6-4.9-10.4-8-11.6-9.4-14.4-11.4-17.9-12.3-3.2-.8-3.2-.8.9-.5 2.4.3 5.2 1.3 6.5 2.5 1.2 1.1 6.9 5.7 12.7 10.1s13.1 10.1 16.3 12.6c3.1 2.4 6.3 4.7 7.1 5 1.9.7 2.8-15.1 1.8-30.1l-.7-11-3.5-1.8c-3.2-1.6-29.2-12.7-34.9-14.8-1.3-.5-2.2-1.2-1.9-1.5.5-.4 32.6 12.7 38.5 15.8 1.3.6 2.5.9 2.7.7s.9-5.8 1.6-12.4c3-32.3 2.9-31.3 2.4-18-.3 6.6-1 15.5-1.5 19.9-.7 5-.7 8.2-.1 8.8.8.8 19.8-9.4 41.2-22 1.3-.8 1.2-1.6-.7-5.8-9.7-21.7-21.7-51.4-21-52 .3-.3 2.6 4.6 5.2 10.8 9.9 23.9 15.8 37.4 17.2 39.7 1.4 2.2 1.6 2.2 2.5.7.5-1 .7-2.8.4-4.1s.1-7.3 1-13.2c2.7-19 3.3-23.5 4.4-38.8.7-8.3 1.6-15.8 2.2-16.8.5-1 .8-2 .6-2.2-.7-.7-43.9-5.7-44.5-5.2-.3.4.8 3.6 2.5 7.2 1.8 3.5 3.2 6.8 3.2 7.3 0 .4.9 2.8 2.1 5.1 1.1 2.4 1.9 4.5 1.6 4.7-.2.2-1.8-2.8-3.6-6.8s-3.6-8.1-4.2-9.1c-2.3-4.2-3.4-6.2-4-6.7-.3-.3-1.6-3.2-2.9-6.4-1.3-3.3-4.7-10.3-7.5-15.5-2.8-5.3-6.8-13.2-9-17.6-2.1-4.4-5.8-11.4-8.3-15.5s-6.2-11.2-8.3-15.7c-2-4.5-4.7-9.1-5.8-10.2-2.1-2.1-1.9-5.3.3-4.5.6.2 7.9-2.2 16.1-5.5 16.3-6.5 25.9-9.3 13-3.8-5 2.1-7.9 3.9-7.7 4.7.5 2.1-.7 6-1.9 6-1.6 0-3.9-2.6-3.1-3.5.4-.4-.2-.5-1.3-.2-8.5 2.4-10.5 3.1-10.5 3.8 0 .4.8.7 1.8.7.9 0 7.8 1.2 15.2 2.7s14.2 2.8 15 2.9 2.4.7 3.5 1.3c4.6 2.5 26.9 5 28 3.2.4-.5 1.1-.7 1.6-.4s1.9-.3 3.1-1.4c2-1.9 2-2.2.5-3.9-.9-1-1.7-2.2-1.7-2.5 0-.4-1.3-2.8-2.9-5.4-1.6-2.7-4.5-7.7-6.5-11.3-1.9-3.6-4.1-6.4-4.8-6.3s-4.3 1.3-7.9 2.6c-8.7 3.2-12.2 4-11.5 2.8.4-.5 4.2-2.1 8.6-3.6s8.2-3 8.5-3.5-1.6-1.2-4.2-1.5c-7.8-1.1-7.3-1.4 1.4-1.1 5.7.2 10.3-.2 14.8-1.5 3.5-.9 13.5-3.4 22.2-5.3 8.6-2 16.2-4.1 16.7-4.6.6-.6 1.6-1 2.4-1s10.7 4.6 22.1 10.1m103.6 34.6c2.3 2.1 5.7 5 7.6 6.5s3.1 2.7 2.8 2.7c-.3.1-1.6-.8-2.9-1.9-2.3-2-4.2-2.6-3.8-1.3.1.5-.2 1.9-.6 3.2s-.3 4.1.3 6.5c.5 2.2 2.6 13.3 4.6 24.6s5 27.6 6.6 36.4c1.6 8.7 2.9 16.6 2.8 17.5-.1 2.6-4.5-18.5-8.9-42.9-2.2-12.4-4.4-24.3-5-26.5-.5-2.2-1-5.6-1-7.5 0-2.4-.3-3.1-1.1-2.3-.6.6-1.3 6.5-1.6 13.2s-.9 12.4-1.3 12.6c-.4.3-.6-1.9-.4-4.8 1-15.8 1.3-31.3.6-32.3-.4-.6-4.1-1.7-8.2-2.4s-7-1.5-6.4-1.7 3.8 0 7 .6c3.2.5 6.1.7 6.3.5.2-.1-.4-1-1.3-1.9s-1.6-1.8-1.6-2.1c0-1.1 1.6-.1 5.5 3.3m-324.8 164c.3.7-.3.9-1.6.6-2.2-.6-5.8 1.6-4.4 2.6.5.3.6 1.9.2 3.6l-.7 3-.1-2.8c0-1.6-.5-2.7-1-2.5-1.5.5-24.1 20.1-24.1 20.8 0 .4-1.6 2.2-3.5 4.1s-3.5 4.2-3.5 5.1c0 1-.4 1.8-.9 1.8-1.9 0-2.2-2-.7-4.2 1.7-2.3.6-4.8-2-4.8-.7 0-1.6-.5-1.9-1-.4-.7.2-.9 1.9-.4 2.4.6 2.6.4 2.6-3 0-2-.5-3.6-1.1-3.6s.1-1.5 1.6-3.3c3-3.5 15.9-12.7 17.9-12.7.6 0 1.6-.4 2.2-1 .5-.5 3.9-1.2 7.4-1.5 3.5-.2 6.8-.9 7.4-1.5 1.3-1.3 3.8-.9 4.3.7M693 368c-.6 1-1 4.3-1 7.3 0 6-2.8 11.1-11 20.3-2.5 2.8-5.2 6.9-5.9 9.2-.8 2.2-3 5.6-5 7.5-3.7 3.5-9.7 6.5-10.8 5.3-.4-.3.8-1.2 2.5-1.8 3.5-1.4 4-2.3 1.7-3.2-.8-.3-1.5-1.2-1.5-2.1 0-2.9-1.8-1.5-3.5 2.7-.9 2.4-1.5 4.7-1.3 5.1.3.8-1.3 1.6-12.5 5.7-2.7.9-5.3 2.2-6 2.9-.6.6-2 1.1-3.1 1.1-1.5 0-1.7-.3-.9-1.1.9-.9.7-2.1-.8-5-1.1-2.2-2.4-3.9-2.9-3.9-.6 0-.9-1-.9-2.3.1-1.6.2-1.8.6-.5.2 1 .8 1.8 1.3 1.8.4 0 1.8 2 3 4.5 2.4 4.9 2.3 4.9 4.8 3.6.9-.4 3.8-1.8 6.5-3 2.6-1.1 4.7-2.5 4.7-2.9 0-1.5-9.5-5.4-16.2-6.6-4.9-.8-5.1-1.7-1-4.2 2.2-1.3 4.3-3.1 4.6-4 .3-.8 1.4-1.4 2.4-1.2s3.2-.8 4.9-2.2 4.4-3.5 6-4.7c2.5-2 2.7-2.5 1.5-4.3-.7-1.1-1-2.4-.8-2.9.7-1.1 8.1-.7 8.1.4-.1 2.1-2.8 6.4-4.4 7-2.8 1.1-6.1 3-6.1 3.5 0 .3 1.2.7 2.7.8 1.9.1 3.3-.5 4.4-2 1.6-2.1 1.7-2.1 2.3-.2.7 2.3 4.7 2.4 9.7.4 2.8-1.2 4-3 1.9-3-.5 0-.9-.6-.7-1.2.1-.7-.8-1.4-2-1.6-2.9-.4-2.9-1.3.2-5.8 2.9-4.3 3-5.5.9-9.5-.8-1.7-1.3-3.3-1-3.7.3-.3.6 0 .6.7 0 1.5 4.5 6.1 6 6.1 1.6 0 4.5-7.3 3.1-7.8-1.6-.5-1.3-2.2.3-2.2 2.3 0 2.8 1.7 1.7 5.6-1.4 5.1.3 7.6 4.9 7.2s6-3.3 6-12.7c0-6.4.2-7.2 1.5-6.1 1.1.9 1.2 1.7.5 3m320.5 192.2c-1.4 4.7-4.6 11.6-9.5 20.8-1.6 3-3 6-3 6.6 0 2.1-3.2 7.4-4.1 6.8-.5-.3-.3-1.5.6-2.7.8-1.2 1.5-3 1.5-4 0-1.5-.5-1.8-2.7-1.3-1.6.3-4.7.8-7 1.1l-4.3.7.5 9.1.4 9.2-1.3-8.3c-.8-4.6-1.7-8.6-2-8.9s-5.2-.2-10.8.3l-10.2.9 6.9 5.5c7.6 6 12.9 9.8 16.1 11.7 1.9 1 2.4.6 5.8-5.3 3.6-6.1 5.6-8.5 5.6-6.7 0 .5-.4 1.3-1 1.9-1.6 1.6-7 12.6-7 14.2 0 .9-.3 1.2-.7.9-.3-.4-1.1-.2-1.8.3s-3.6 2.2-6.6 3.8c-3 1.5-7.2 3.9-9.4 5.2s-3.6 1.9-3.2 1.4c.5-.5 4.5-3.2 9-5.9 4.5-2.8 8.2-5.7 8.2-6.5 0-1.2-11.4-10.5-21.8-17.7-3.2-2.2-4-2.4-4.8-1.2-.7 1.2-.9 1.2-.9-.1 0-1.4-4.1-5.8-4.8-5.1-.1.1-.8 0-1.5-.2-.7-.3-.5-.6.6-.6.9-.1 1.7-.6 1.7-1.3 0-.6.6-.3 1.4.8 1.8 2.3 3.3 1.2 3.9-3.1.3-2.4.4-2.2.6 1.2l.1 4.2 12.3-.3c11.7-.2 14.2-.5 23.2-2.1 5.8-1.1 6.9-1.9 9-6.4 1-2.3 2.2-4.1 2.7-4.1s1.7-1.9 2.7-4.3c1-2.3 2.7-6.1 3.7-8.5 1.9-4.5 3-5.6 1.9-2m-569.6 8.2c-.2.2-8.3 3.4-17.9 7.1-9.6 3.6-21.8 8.3-27 10.3l-9.5 3.7.2 7 .2 7-.9-5.9c-.6-3.2-1.2-6.1-1.4-6.3-.7-.7-32.6 20.6-32.6 21.7 0 .5 2.7 2.4 6.1 4.1 3.4 1.6 5.9 3.2 5.7 3.4-.6.6-15.7-6.9-15.7-7.8-.1-.8-2.7-5-9.7-15.7-4.9-7.5-5-7.7-3.1-6.1 1.9 1.5 10.8 14.5 12 17.5s2.2.8 3.7-7.9c2-12.4 2.2-11.9-3-12.6l-4.5-.6 4.8-.1c4.6-.2 4.7-.3 4.9-3.5l.1-3.2.4 3.2c.4 2.7.9 3.3 3.6 3.8 3.6.7 22.5.1 30-.9 4-.5 26.1-8.5 47.7-17.1 3.3-1.3 6.8-2 5.9-1.1m760.3 107.1c1.1 1.4 2.3 2.3 2.8 2 .8-.5 2.4 3.1 3.4 7.5.5 2.1.4 2.1-.9-.5-.8-1.7-1.4-3.6-1.5-4.4 0-.8-.3-1.1-.6-.8-.8.8 1.5 9.8 2.9 11.2.7.7.8.6.3-.3-.4-.7-.1-1.5.7-1.8.7-.2 2.4-3.8 3.7-7.9 1.9-5.9 2.8-7.5 4.3-7.5 1.4 0 1.7.4 1.2 1.7-3.8 9.7-6.6 18.1-6.8 20.9-.1 2.4-.6 3.3-1.5 2.9-.8-.3-1.9-.5-2.6-.5-1.1 0-9.6-21.1-9.6-23.9 0-1.9 2.1-1.2 4.2 1.4m21 4c-.5 2.6.6 3.3 2.5 1.4 1.4-1.4 6.7-.3 8.4 1.7.6.8 1.6 1.4 2.2 1.4s1.8.7 2.8 1.6c1.6 1.4 1.8 1.4 2.9-.5 1.5-2.9 6.7-5.4 9.6-4.7 5.1 1.3 11.4 6 12.5 9.4.6 1.8.9 3.5.6 3.8-.2.3-.8-.8-1.2-2.3-.8-3.2-2.3-5.3-3.8-5.3-.5 0-.2.9.8 2s1.5 2.3 1.2 2.7c-.4.3-.7.1-.7-.5 0-.7-.4-1.2-1-1.2-.5 0-1 .9-1 1.9 0 2.9-4.6 7.9-6 6.5-.7-.7-.5-1.6 1-2.9 2.7-2.4 2.7-7.5.1-7.5-2.2 0-5.1 3.5-5.1 6 .1 2.1 4.6 7 6.5 7 .9 0 2.7-1.1 4-2.5 3.1-3 3.3-2 .3 1.2-2.4 2.5-4.8 2.9-8.1 1.1-2.1-1-2.1-1-.7.7s1.4 1.7-.7.7c-1.2-.7-2.9-2.2-3.7-3.4-.9-1.2-1.6-1.9-1.6-1.4 0 .4-1.1-.1-2.5-1.2-1.5-1.2-3.4-1.8-5-1.4-1.4.2-2.4.7-2.1.9.3.3-.5 1.4-1.7 2.3-3.2 2.7-1.2 3.7 2.8 1.5 4.3-2.3 5.7-1.2 2.5 1.8l-2.4 2.2 1.8-2.3c2.2-2.6 1.5-2.8-1.9-.6-1.6 1-3.4 1.4-5.1 1-1.8-.5-2.4-.3-1.8.5.9 1.5-.7.6-5.4-2.9-2.2-1.7-3.1-3-2.7-4.1.3-.8.3-1.2-.1-.9-.9 1-2.9-1.3-3.7-4-.3-1.3-.3-2.1 0-1.8.6.6 4.3-6.2 4.3-8 0-.7-.6-1.5-1.2-1.7-.7-.3-.3-.6.8-.6 1.7-.1 2 .4 1.6 2.4"/><path d="M484.5 83c-.4.6-1.1.8-1.6.5-.5-.4-.9-.1-.9.4 0 .6-.8 1.1-1.8 1.1-2.9 0-25.3 9.9-53.2 23.4l-13.5 6.5 23.9-.2 24-.2 4-5.2c2.3-2.9 6.4-8.2 9.1-11.9 2.8-3.7 5.7-7.4 6.6-8.3 2.1-2.1 5.3-7.1 4.6-7.1-.3 0-.9.5-1.2 1M494.1 85.6c.5 1.6 1.4 3.3 1.9 3.9.4.5 2.8 4.8 5.2 9.5 9.2 17.5 14.2 26.6 16.4 29.6 1.3 1.7 2 3.4 1.7 3.8-.4.3-.2.6.3.6.6 0 1.7-1.5 2.6-3.3.8-1.7 3.6-7.4 6.2-12.5 2.6-5.2 5.5-11.5 6.6-14.1l1.9-4.8-10.2-4.1c-5.6-2.3-14.5-5.5-19.7-7.1-15.5-4.8-14.2-4.7-12.9-1.5M486.7 86.4c-.4 1.1-.1 1.3 1 .9s1.4-.2 1.1.8c-.3.8-1.5 1.3-2.6 1.2-2.3-.3-6.7 4.8-5.4 6.2.4.5.2.5-.4.2-.7-.4-1.7 0-2.4.8s-.9 1.5-.4 1.5-.2.7-1.4 1.6c-1.2.8-2.2 2-2.2 2.5s-1.1 2.2-2.4 3.6c-2.5 2.7-2.4 5.8.1 4.9.8-.3 2.4-.1 3.6.6 1.2.6 3 1.1 4.1 1.2 1.2.1 2.3 1.1 2.7 2.6.4 1.4.8 2 .8 1.5.1-.6.5-.4.9.3.5.7 2.4 1.4 4.3 1.6 4.4.4 7.9 1.6 7.9 2.7 0 1.3 5.7 1.1 8.3-.2 1.6-.9 2.2-.9 2.5 0 .2.6.8.9 1.3.5.5-.3.9 0 .9.7s.3.9.6.6c.4-.4.1-1.3-.6-2.1-.9-1.1-2.3-1.4-5.6-.9-4.1.5-4.4.4-4.4-1.7 0-1.6.5-2.1 1.8-1.8 1.4.4 1.7-.2 1.5-4-.2-7-1.7-9-6.4-8.5-3.4.4-3.9.2-3.9-1.6 0-2.4 2.5-2.8 3.7-.6.5.8 1.4 1.1 2 .7.9-.5.1-2.8-2.5-7.9-2-3.9-4-6.9-4.4-6.7-.4.3-.5-.2-.2-1 .4-1.1 0-1.6-1.4-1.6-1.1 0-2.2.7-2.5 1.4M537.8 103.4c-1.3 2.2-3.6 7-5.2 10.6s-4 8.9-5.4 11.9c-1.9 4.1-2.2 5.5-1.2 6.1s.8.9-.6 1.4c-1.8.5.7.3 9.6-1 1.9-.2 8.9-1.5 15.5-2.9 6.6-1.3 17.2-3.3 23.5-4.5s12.1-2.5 12.8-2.9c.8-.5-1.3-2-6-4.1-4-1.8-12.7-6-19.3-9.3-6.6-3.2-14.1-6.7-16.7-7.7l-4.7-1.8zM377.5 119.6c-6.6.8-16.9 1.9-23 2.6l-11 1.3.2 5.5c.3 10.8 1.3 27.6 1.8 30.5.2 1.6.9 10.3 1.5 19.2.5 8.9 1.4 17.1 1.8 18.3.7 2 .9 1.9 3.2-1.2 1.4-1.8 7.5-10.7 13.6-19.8s12.9-19.2 15.1-22.5c9.4-13.8 21.3-33.4 21.3-35.2 0-.7-13 0-24.5 1.3M577.5 126.4c-13.5 2.8-15.5 3.4-15.5 4.9 0 .8-.3.8-.9-.1-.6-1-2.3-1-8.6.3-9.2 1.9-15.7 4.4-14.9 5.6.3.5.1.9-.4.9-.4 0-1.8 2.1-2.9 4.7-1.7 4-2 5.9-1.4 12 .4 4 1.2 7.8 1.9 8.5s1.2 1.9 1.2 2.8.9 2.5 2 3.5 2 2.4 2 3.1.6 1.9 1.3 2.6c.6.7 1.2 2 1.2 2.8s1 1.9 2.2 2.6c1.3.6 2 1.4 1.7 1.7-.4.4-.2 1.3.4 2 .7.8.9 1.6.6 1.9-.8.9 5.8 13.8 6.7 13.2.5-.3.9-1 .9-1.6s1.3-3.3 3-5.9c1.6-2.7 3.2-6 3.6-7.4.3-1.4 1-2.5 1.4-2.5s1.5-2.1 2.5-4.8c1-2.6 2.2-5.2 2.6-5.8.5-.6 5.3-10.1 10.8-21 9.2-18.7 12.4-26.5 10.4-26.3-.4.1-5.7 1.1-11.8 2.3M591 129.5c-1.1 2.6-2 4.9-2 5.2 0 .2-7.4 15.3-16.4 33.4-9.1 18.1-15.9 32.9-15.3 32.9 1.7 0 46.4-6.7 56.2-8.5 4.4-.7 10.5-1.6 13.5-2 7.3-.8 8.9-1.8 6.7-4-1-.9-2.2-2.6-2.9-3.8-.6-1.2-7-11.2-14.1-22.2-7.2-11-14.6-22.5-16.6-25.5-1.9-3-4.3-6.6-5.3-7.9l-1.8-2.3zM388.5 145.7c-15.8 23.7-20.4 30.7-23.5 35.3-8.9 13-13.8 21.3-13.4 22.5.3.7 3.3 3.5 6.7 6.1s7.5 6.3 9 8.1c5.9 6.8 6 6.7 10.2-8 4.6-16 6.4-23.5 6.5-26.3 0-1.7-.5-2-2.5-1.6-1.5.2-2.5 0-2.5-.7 0-.6.8-1.2 1.8-1.3.9 0 2.3-.2 3-.2 2.2-.2 3.9-4.8 10.1-28.1 2.3-9 4.4-19.7 3.8-19.5-.1.1-4.2 6.2-9.2 13.7M527.1 173.1c0 .9-.8 2-1.7 2.3-1 .4-1.3 1.3-.9 2.6.7 2.1-1 2.8-1.8.7-.3-.6-.6-.1-.6 1.2-.1 1.7-.5 2.1-1.6 1.7-2.1-.8-2.9 1.7-1.5 4.4.9 1.6.8 2.5-.1 3.6-.7.9-1.4 3.2-1.6 5.2s-1.1 4-1.9 4.5-1.2 1.2-.9 1.6c.2.5-.5 1.1-1.7 1.4-4.8 1.3-.7 1.4 11.3.4 11.3-.9 12.6-1.2 12.2-2.8-.3-1-1.2-1.9-2.2-2.1-.9-.2-1.6-1-1.7-1.8s-.2-2.5-.2-3.8c-.2-1.7-.8-2.2-3.2-2.2-2.7 0-3 .3-3 3 0 2.3-.4 3-2 3-3.4 0-3.7-3-.6-5.7 1.5-1.2 2.4-2.8 2.1-3.3-.4-.6.8-1 2.9-1 2 0 3.6-.5 3.6-1 0-2.3 3.2-.8 4.1 2 .6 1.6 1.7 3 2.5 3s1.4.5 1.4 1.1c0 1.6 7.3 9.9 8.7 9.9 1.9 0 1.6-2.4-.7-5.3-1.1-1.4-2-3.2-2-4.1s-.4-1.6-1-1.6c-.5 0-1-.6-1-1.4 0-2.6-4-10.4-8.6-16.5-.8-.9-5.4 1.1-5.4 2.4 0 2.4-1.8 1.7-2.3-.8-.2-1.2-.5-1.5-.6-.6M341 209.5c-3.6 3.1-9.5 7.8-13.2 10.6-3.8 2.8-6.8 5.5-6.8 6 0 1 28.3.3 43.4-1l6.9-.6-4.8-4.8c-5-5.2-17.5-15.7-18.4-15.7-.4 0-3.5 2.5-7.1 5.5M522 205.1c-13 1.5-11.9.1-11.4 13.6.3 6.5.9 19 1.4 27.8s1.2 21.5 1.6 28.2c.7 14 1 14.1 6.3 2.3 1.9-4.1 5-10.9 6.9-15 1.8-4.1 4.2-9.5 5.2-12 1.9-4.8 7-16 12.7-27.9 3.1-6.5 6.3-15.3 6.3-17.4 0-.9-19.3-.7-29 .4"/><path d="M550.4 212.6c-.9 2.1-2.9 6.7-4.5 10.1s-3.7 8.3-4.8 11c-1 2.6-3.2 7.5-4.9 10.8-1.6 3.3-3.7 7.6-4.5 9.5-10.7 23.8-14 32-14.1 35-.1 3.1.4 3.8 7.4 8.7 12.1 8.7 13.2 9.8 2.6 2.8-5.4-3.6-10.3-6.5-10.7-6.5-.5 0-.9 1.5-1 3.2 0 3.1-.1 3.2-1 .9-.5-1.3-.7-3.2-.4-4.2 1.4-4.2-1.2-1.5-3.5 3.7-1.3 3.1-2.8 5.8-3.3 6.1-.4.3-.1-1.2.9-3.4 3.4-7.9 4.4-7.3-12.7-7.3-19.1 0-25.9.7-25.2 2.6.8 2-.6 1.7-2.5-.5-1.3-1.5-5.4-2.7-15.4-4.7-7.6-1.5-14-2.5-14.4-2.2-1 1 5.8 13.7 9.2 17.1 2.3 2.2 4.2 3.3 6.1 3.2 1.5 0 3.1.4 3.6 1s1.1.5 1.6-.5c4-6.5 6-6.7 3.1-.2l-1.9 4.3 2.4.9c1.4.5 2.5 1.4 2.5 1.9s1.2 1.4 2.8 2c3 1.1 7.1 4.7 8.8 7.7 1.2 2.1 8 6.2 8.8 5.3.3-.3-.3-2.3-1.4-4.4-3.1-6-2.4-7.5 1-2.2 1.7 2.6 3 5.2 3 5.7 0 2.3 1.8.4 6.9-7 2.9-4.4 5.6-8 5.8-8 .3 0-.1 1-.9 2.2-4.1 6.3-8.7 15.6-8.1 16.1.3.4 1.8.7 3.2.7 2.5 0 16.6 3.8 14.6 3.9-.5 0-5-.6-9.9-1.4s-9.1-1.4-9.2-1.2c-.2.2-.6 26.1-.5 29.8.1 1.4.7 1.6 3.7.9 2.8-.7 6.4-3.6 15.5-12.7 11.5-11.5 11.9-12.1 12-16.4.1-2.9.3-3.5.6-1.7.2 1.6.7 2.8 1.1 2.8.7 0 27.1-13.5 30.6-15.6 1.6-1 1.7-3 1.7-21 0-21.6-2-91.6-2.7-92.3-.2-.2-1.1 1.3-2 3.5"/><path d="M506 214c-.7 1.3-.7 2-.1 2s.8.7.5 1.5c-.4.8-1.3 1.5-2.1 1.5-1 0-1.2.6-.8 2s.2 2-.7 1.8c-.8-.2-1.3.7-1.4 2.2-.2 4.2-.4 4.6-1.5 3-.8-1.1-.9-.8-.5 1.5.4 1.8.3 2.5-.2 1.7-.7-1-1.6-.4-3.5 2.2-3.9 5.1-3.9 5.3 3.6 21.6 1.6 3.6 4 9.6 5.4 13.4 1.3 3.9 3.3 8.6 4.3 10.5l1.8 3.6.7-2.7c.9-3.3-2.1-54.7-3.4-58-.4-1.3-.6-4-.3-6.1.5-4.1-.2-4.7-1.8-1.7M343.8 227.5c-12.6.6-23.2 1.5-23.8 2.1-.9.9 3.9 19.5 7.4 28.4.7 1.9 1.9 5.7 2.5 8.3s2.7 8.8 4.6 13.7 4.5 12.5 5.7 16.9c1.3 4.5 2.6 8.1 2.9 8.1.6 0 2.1-3.8 7.4-19 1.2-3.6 5-13.3 8.3-21.5 3.3-8.3 6.5-16.7 7.2-18.8.6-2.1 1.4-3.6 1.6-3.4.5.5-5.5 17.5-11.4 32.2-4.4 11-8 21.4-8.9 25.8l-.6 2.9 5.9-3.3c3.3-1.8 5.2-2.5 4.3-1.5-.8.9-3.5 2.7-6 4-2.4 1.3-4.4 3-4.4 3.7 0 2.4 25.7 14.2 29.6 13.6 1.8-.3 13.9-8.8 15.8-11.1.8-.9 1.8-1.6 2.3-1.6 1.6 0-6.4 7.6-10.2 9.7-5.4 3.1-5 4.4 1.2 3.7 3-.3 7.2-.7 9.4-.8 6.9-.5 7.2-.6 7.7-2.7.3-1.2 1-1.8 1.6-1.4 1.8 1.1 1.7-6.1-.1-10.8-.6-1.5-.8-3-.5-3.3.2-.3 1.5 2.4 2.8 6 2.1 5.7 2.5 6.3 3.9 5.1.8-.7 3.6-1.9 6.3-2.5 3.8-1 5.3-2.1 8-5.9 3.7-5 9.1-15.1 8.1-15.1-.3 0-2.9.7-5.7 1.6-16.6 5.1-23.6 7.7-24.1 8.7-.3.7-.7.4-1.1-.8-.4-1.4-4.3-3.8-11.8-7.4l-11.1-5.4-3.9 2.2c-2.1 1.3-4.1 2-4.5 1.7-.3-.3 0-.6.6-.6s2.3-1.2 3.8-2.6c2.5-2.6 2.6-3 2-11.3-.3-4.7-.8-16.6-1.2-26.4-.4-9.7-1-17.7-1.3-17.7s-1.5 2.1-2.6 4.6c-3.1 7.2-3.8 6.3-1-1.4 1.4-3.8 2.5-7.2 2.5-7.6 0-.3-1.5-.5-3.2-.4-1.8 0-13.5.6-26 1.3"/><path d="M376.9 226.7c-1 6.3 1.3 52.5 2.7 54.2.4.4 3.4-2.5 3.4-3.4 0-.4 3.1-3.9 6.9-7.8 3.8-4 13.8-14.6 22.1-23.5 12.4-13.4 14.9-16.6 13.9-17.8s-.9-1.3.5-.8c.9.3 1.6.1 1.6-.5 0-1.3-50.9-1.6-51.1-.4M468.5 246.6c-10.4 3.6-19.8 6.7-20.8 7.1-2 .6-3.3-.2 15.8 9.6 6.6 3.3 19.2 9.9 28 14.7 19.9 10.7 19.8 10.7 18.9 7.7-.3-1.2-1.3-2.9-2.1-3.9-.8-.9-2.5-4.7-3.8-8.5-1.3-3.7-4.8-12.3-7.9-19S491 241.6 491 241c0-1.8-3-1-22.5 5.6M278.7 269.5c-.3 2.9-1.2 6.6-2 8.1-.8 1.6-1.8 4.7-2.2 6.9-.7 3.9-.6 3.9 1.2 2.2 1.1-.9 2.3-1.7 2.8-1.7.4 0-.4 1-1.8 2.3-1.5 1.2-2.7 2.7-2.7 3.3 0 .5 3.4 2.7 7.5 4.8 6.7 3.4 7.7 3.7 10.6 2.7 3.1-1.1 3.2-1.1 1.5.8s-1.7 2 1.6 3.7c1.8.9 6.4 3.7 10.1 6.1 3.8 2.5 7.9 4.5 9.3 4.5s2.4.6 2.4 1.4.5 1.4 1 1.4c.6 0 1-.1 1-.3 0-1.6-3.7-12.1-5.5-15.7-1.3-2.5-2.8-6-3.5-7.8-1.1-2.9-4-4.5-4-2.2 0 .5-.5 1-1.2 1-.9 0-.9-.3 0-1.2 1.3-1.3 1.6-4.8.4-4.8-.4 0-3.5-1.9-6.8-4.3-6.1-4.5-7.5-4.7-10.9-1.7-1.1 1-3.3 2.5-5 3.5-2 1.2-1.4.3 1.9-2.6 5.6-5.1 5.5-5.9-1.2-12.1l-3.9-3.6zM404.5 273.2c-1.6.6-6.7 2.7-11.1 4.8-4.5 2.1-9.1 4.1-10.3 4.5-1.1.3-2.1 1-2.1 1.4 0 1 20.9 11.5 21.5 10.9s7.5-20.6 7.5-21.8-1.5-1.2-5.5.2M412 276.7c-.6 1.6-1.5 3.7-2 4.8-.9 2-5 12.8-5 13.2 0 .8 2.7 0 7.3-2 2.9-1.3 7.4-2.9 10.1-3.6 4.7-1.2 10.3-4.1 7.8-4.1-.6 0-2.9-1.6-4.9-3.6-3.6-3.4-7.9-5.9-9.5-5.6-.5.1-.8-.3-.8-.8 0-2.1-2.1-.9-3 1.7M310 288.7c0 .5 1.2 2.8 2.6 5.3 1.5 2.5 3.2 6.2 4 8.2.7 2.1 2.8 6.7 4.5 10.3 3.1 6.1 5 7.8 6.4 5.6.3-.5 2.9-2.4 5.8-4.1l5.2-3.2-3.9 4-3.8 4 2.3 3.2c1.3 1.7 2.5 2.7 2.7 2.1.4-1.1 3.3-.3 4.3 1.1.9 1.4 3.8-11.7 3.2-14.3-.7-2.7-4.1-6.9-5.7-6.9-.6 0-3.3-1.5-6.1-3.2-7.3-4.7-20.8-12.8-21.2-12.8-.1 0-.3.3-.3.7M430.1 296.9c-4.7 9.3-5 11.1-1.8 11.2 3.4.2 16.2-.3 16.5-.6.6-.5-8.4-17.9-9.5-18.2-.6-.2-3 3.2-5.2 7.6M347 310.8c0 1 11.9 24.4 13.6 26.7 1.5 2 1.5 2 3.5-.5 8-10.1 10.9-14.4 10.2-15-.7-.7-19.2-8.9-24.8-11-1.4-.5-2.5-.6-2.5-.2M377.4 321.8c-1.5.9-9.2 11.5-12.3 16.7-2.2 3.7-2.2 4-.4 5.2 1 .7 2.9 2.1 4.2 3 3.2 2.4 11 5.5 12.1 4.8.5-.3 1.2-2.1 1.6-4 .3-1.9 1-3.5 1.4-3.5.5 0 .6.9.3 2.1-.7 2.7 1.9 4.6 2.8 2.1.4-.9.2-2.5-.3-3.5-.7-1.4-.5-2 .9-2.3 1.9-.5 5-4.4 3.6-4.4-.5 0-3.5 1.4-6.7 3-3.2 1.7-6.8 3-8 3-1.2-.1-.3-.7 2.3-1.6 7.3-2.6 19.1-12.3 19.1-15.7 0-.6.7-1.9 1.7-2.9 1.5-1.7 1.2-1.8-8.5-1.8-5.5 0-10.6-.2-11.4-.5-.7-.3-1.8-.1-2.4.3M517.5 347.5c-1.5 2-4.4 5.5-6.5 7.8-3 3.2-3.6 4.5-2.9 5.8.5 1 .9 2.8.9 4.1 0 2.2 3 5.8 4.9 5.8 1 0 3.8-9.5 4.6-16 .4-2.5 1.1-5.8 1.7-7.3 1.6-4.1.4-4.2-2.7-.2M301.9 383.4c-.3.3-2.4.6-4.7.7-2.3.2-4.2.6-4.2 1 0 .7 8.6 11.6 11.3 14.4 2.2 2.2 2.5 1.9 4.3-4.6 1.8-7.1 1.8-10.5-.2-11.3-1.8-.7-5.9-.8-6.5-.2M311.3 391.5c-2.7 8.7-2.8 11.1-.7 11.9 2.7 1 8.1.7 9.1-.7 1.6-2 3.3-9.2 3.3-13.6 0-3.6-.2-4-1.3-2.9-1.5 1.5-6.8 9.4-7.9 11.8-.4 1-.7 1.1-.7.2-.1-.7 1-3.4 2.4-6 3.1-5.8 3.2-7.7.3-7.9-2-.2-2.6.7-4.5 7.2M288.6 389.8c-.7 1.5-1.9 4.4-2.6 6.5-.7 2.2-1.8 5.1-2.6 6.5-.7 1.4-1.1 2.8-.9 3 .5.5 14.6-1.5 18.9-2.6l2.8-.8-5.8-7.1c-3.3-3.9-6.5-7.4-7.1-7.7-.7-.3-1.9.7-2.7 2.2M495.4 388.5c-.5.8-1.8 1.5-2.9 1.7s-2.6.9-3.3 1.5c-.7.7-2.4 1.3-3.7 1.3-1.8 0-2.6.9-3.7 4.5-1.6 4.8-1.4 5.1 2.9 3.4 1.5-.6 6.8-2.2 11.6-3.4 4.9-1.3 9.1-2.6 9.5-2.9.7-.8-3-3.6-4-3-.5.3-.8.1-.8-.4s-1-1.7-2.3-2.5c-1.9-1.2-2.5-1.3-3.3-.2M428.5 396.9c-1.7 1-4.1 2.9-5.4 4.1l-2.3 2.3 3.8 1.3c4.5 1.4 19.6 3.5 20.3 2.8.3-.3 0-1.4-.7-2.4-.7-1.1-1.2-2.6-1.2-3.3 0-2.4-3.9-5-7.2-4.9-1.8 0-3.5-.3-3.8-.8s-1.9-.1-3.5.9M368 415.1c0 .8-.7 2.6-1.4 4.1-.8 1.6-1.8 4.8-2.2 7.3-.3 2.5-1.1 4.5-1.6 4.5-.6 0-.8.7-.4 1.5.3.9-.3 2.4-1.4 3.5-2.3 2.3-2.6 4-.7 4.1.6.1.1.4-1.3.8-1.8.6-.3 1 5.5 1.5 4.4.4 8.8 1 9.7 1.2 2 .6 2 1.4-.2-16.9-1.2-9.6-1.7-11.7-3.2-11.7-.5 0-.6.6-.3 1.2.4.7-.1.4-.9-.6-1.2-1.4-1.6-1.6-1.6-.5M376 416.5c0 .8 2 7.5 4.5 15.1 2.5 7.5 4.5 14.1 4.5 14.6 0 .8 4.4 12.5 10.8 28.5.9 2.4 2.1 4.3 2.5 4.3 1 0 17.7-17.2 17.7-18.2 0-1.1-9.4-12.2-20.9-24.8-5.8-6.3-12.5-13.6-14.8-16.2-2.4-2.6-4.3-4.1-4.3-3.3M417.5 465.2c-1.5 5.5-5.8 19.9-8.1 27.2-1.3 4.3-2.2 8.1-1.9 8.4s2.4-.4 4.7-1.6c2.4-1.1 7.2-3.3 10.8-4.9 3.6-1.5 9.1-4.2 12.4-5.9l5.9-3.2-10.9-11.1c-6-6.1-11.2-11.1-11.6-11.1s-.9 1-1.3 2.2M407.1 472.9l-8.3 9.1 2 5.2c3 8 5 11.5 5.6 9.7.5-1.5 7.1-22.3 8.8-27.7 1.8-6.1.2-5.4-8.1 3.7M396.5 485.9c-.3.6-.4 1.1-.1 1.1s-.3 1.9-1.4 4.2c-1 2.2-1.6 4.7-1.3 5.4.2.6-.1 1.5-.7 1.9-.8.5-.8 1.1.1 2.1.9 1.1.9 1.8.1 2.6-.7.7-1.2.9-1.2.5s-.8.1-1.8 1.1c-1.9 1.9-2.6 9.6-.8 8.4 2.3-1.3 11.2-7.8 13.3-9.6l2.2-1.9-1.9-2.8c-1.1-1.5-2-3.6-2-4.6s-.5-2.4-1-2.9c-.6-.6-1.2-2.1-1.5-3.4-.5-2.8-1.1-3.4-2-2.1M345 538.8c0 1.1-.9 4.5-1.9 7.8-1.1 3.2-1.8 6-1.6 6.2.6.6 18.5-2.7 21.8-4l2.7-1.1-2.2-1.2c-12.4-6.7-17.7-9.5-18.2-9.5-.3 0-.6.8-.6 1.8M884.5 99.9c-.6.4-7.3 2.3-15 4-21.1 4.8-30 7.6-29.7 9.4.6 3.5 18.3 32.7 19.4 32.1.4-.3.5.2.2 1-.3.9-.2 1.6.3 1.6.8 0 2.7-3.4 16.1-29 4.1-8 7.8-14.7 8.2-15 .8-.6 2.3-5 1.8-5-.2 0-.8.4-1.3.9M885.8 104.7c-1 2.1-2.4 4.9-3.3 6.3-.8 1.4-1.9 3.6-2.5 5-.5 1.4-1.4 3.2-2 4-.5.8-1.5 2.6-2.1 4-.5 1.4-2.1 4.5-3.4 7-2.3 4.4-3.4 7.9-1.5 5 .7-1.1 1-.7 1 1.7 0 3.8 1.7 4.5 9 4 3.1-.2 4.5-.7 4.5-1.8 0-.7 1-1.5 2.3-1.7 1.2-.2 2.2-.7 2.2-1.1 0-.5 2.4-1.1 5.3-1.4 4.4-.5 15.7-5 15.7-6.3 0-1-13-17.3-18-22.7l-5.5-5.9zM892 102c0 .5.5 1 1 1 .6 0 1 .6 1 1.3s.8 2 1.8 2.8c3.5 3.2 17.2 20.5 16.7 21.1-.3.2.8 1.6 2.3 3 2.7 2.6 3 2.6 23.1 3.4 15.2.5 20.2.4 19.7-.5-.4-.6-1.3-1.1-1.9-1.1-.7 0-3.2-1.4-5.7-3-2.5-1.7-11.9-6.6-21-11s-20.9-10.3-26.3-13c-10.6-5.4-10.7-5.5-10.7-4M783.1 140.3c1.1 2.3 2.7 5.9 3.5 7.9 1.4 3.3 1.8 3.6 3.9 2.6 3.3-1.5 11.2 2.1 12.1 5.6.3 1.4 1.1 2.3 1.8 2 1.8-.7 3.6 4 3.6 9.1 0 5.2 2 6.3 7.6 4.5 2.1-.7 5.4-.9 8.5-.5 4.5.6 5.1.5 5.6-1.4.3-1.1 1.4-2.3 2.6-2.7 2-.6 2-.7-.4-2-2.8-1.6-6.9-1.8-6.9-.4 0 1.6-2.7 1.2-3.4-.5-.6-1.7.2-4.5 1.4-4.5.4 0 1.1-1.6 1.4-3.5.5-2.5 1.4-3.9 3.2-4.5 2.4-.9 3.4-3 1.4-3-.5 0-1-.7-1-1.5 0-1.1-.7-1.4-2.5-.9-1.4.3-2.5.2-2.5-.4 0-1.1-8-3.3-9.2-2.6-.5.3-1.5 0-2.3-.6s-2.9-1.4-4.7-1.6c-1.8-.3-6.9-1.4-11.3-2.5s-9.4-2.2-11.2-2.5l-3.2-.4zM958.4 148c-1 2.2-2.1 4-2.5 4s-1.3 1.6-1.9 3.6c-.7 1.9-1.4 3.3-1.8 3-.9-.9-3.1 2.7-3.2 5.1 0 1.5-.5 2.1-1.4 1.7-.7-.3-1.6.2-2 1.1-.4 1.1-.2 1.4.7.9.6-.4.1.4-1.2 1.9-1.2 1.4-2 3-1.6 3.6.3.6-.1 1.4-.9 1.7-.9.3-1.6 1.3-1.6 2.1s-.4 1.2-.9.9c-.4-.3-.6.7-.4 2.2.3 2.3.2 2.4-.6.7l-1-2v2c0 1.1.4 2.7.9 3.5.6 1 1 1.1 1 .2 0-.6.5-1.2 1.1-1.2s.9.7.5 1.5c-.3.8-.1 1.5.3 1.5.5 0 .7 1 .5 2.2l-.5 2.3 1.2-2.3c2.4-4.4 4.8-1.6 4 4.7-.2.7.2 1 .8.6.6-.3 1.1.1 1.1.9 0 .9.8 1.6 1.8 1.6 2.3 0 5.6 3.5 4.7 4.9-.3.6-.1 1.1.5 1.1s1.5 1 2 2.2c.5 1.5.9 1.7 1 .8.1-.8.5-.4.9 1s1.3 2.4 1.9 2.2c.7-.1 1.2.4 1.2 1.1s1 2.2 2.3 3.4c1.2 1.1 5.7 5.9 10 10.6 4.3 4.8 8.5 8.7 9.3 8.7s1.4.8 1.4 1.7.3 1.3.7 1c.3-.4-.3-4.9-1.5-10-1.2-5-2.8-12.1-3.6-15.7s-2.6-11.2-4-17c-1.5-5.8-3.8-15.2-5.2-21s-3.7-14.2-5-18.8c-2.2-7.3-2.7-8.2-4.9-8.2-1.8 0-2.8.9-4.1 4M969 149.7c0 .6 2 8.2 4.5 16.9 2.5 8.6 4.5 16.3 4.5 17.1 0 .9 2.7 13.1 6.1 27.2 5.4 22.8 7.1 28.5 8.2 27 .5-.7 11.2-13.3 12.8-15.2 1.5-1.7 1-3-7.6-20-5.2-10-12.7-24.7-16.7-32.7-8.1-15.8-11.8-22.2-11.8-20.3M944 199.5c1 1.2 1 1.5-.4 1.5-.9 0-1.6.8-1.6 2 0 1.1-.6 2-1.3 2-.8 0-1.3 1.3-1.3 3.5 0 2.8.4 3.5 1.9 3.5 1.4 0 1.7.5 1.2 2-.7 2.1-.9 18.4-.3 21 .5 2.5 2 3 8.5 3 3.4 0 9.5.4 13.5.9s10.8 1.2 15 1.4c9 .6 9 .6 1.6-7.4-7.1-7.6-27.4-28.5-25.8-26.5 1.4 1.8 1.4 1.8-.7.6-1.1-.8-1.9-1.9-1.7-2.5.3-.7-.7-1-2.9-.7-3.1.4-3.5.1-4-2.7-.4-1.7-1.2-3.1-1.8-3.1-.8 0-.8.4.1 1.5M1041.6 207c-.5 1.9-1.9 6.9-3.2 11-2.8 9.1-5.8 24.6-5 26.6.4 1 2.2 1.4 5.8 1.4 2.9 0 6.8.4 8.7 1l3.3.9-.5-5.8c-.3-3.3-1.5-9.4-2.6-13.7-1-4.4-2.2-10.4-2.6-13.4-.3-3-1.2-6.9-1.9-8.5l-1.3-3zM1002.5 228.7c-3.3 3.7-6.8 7.8-7.9 9-1.1 1.3-1.7 2.5-1.4 2.8.7.8 35.9 4.7 36.5 4.1.2-.2-4.5-5.4-10.5-11.6l-10.9-11.2zM872.6 237.4c-.4 1.5-1.1 2.4-1.6 2.1s-1.2.5-1.6 1.7l-.6 2.1-1.4-2.4-1.3-2.4.1 2.5c.1 1.4-.4 6.5-1 11.5-.7 4.9-1.7 12.8-2.3 17.5-1.1 9.4-1.4 11.1-2.4 18.7-.4 2.9-.5 5.3-.2 5.3.9 0 12.7-25.1 12.7-27.1 0-1-.5-1.9-1.1-1.9s-.3-.7.5-1.6c.9-.8 1.6-2.9 1.6-4.5s.5-2.9 1.1-2.9.9-.7.6-1.5c-.4-.8-.1-1.7.5-2.1.7-.4.8-.3.4.4s-.2 1.2.4 1.2.9.4.6.9c-.4.5 0 1.2.6 1.4.7.3.3.6-.9.6-1.3.1-2.3.5-2.3 1.1 0 .5 1 .8 2.3.6 1.2-.1 2.2-.7 2.2-1.2-.1-3.1-1.8-9.4-2.5-9.4-1.3 0-3.1-6.5-2.4-8.3.3-.9.1-2.3-.4-3.3-.8-1.4-1-1.3-1.6 1M944 240.4c0 2.2 5 10.1 9.5 15 .6.6 5.2 6.7 10.3 13.6s10.7 14.1 12.5 16c1.9 1.9 4.4 5.3 5.8 7.5l2.3 3.9.7-3.4c.7-3.5 2.5-22.5 3.5-37 .2-4.1.7-8.2.9-9 1.1-3.9-.8-4.3-23-5.5-6-.3-13.6-.8-16.7-1.1-3.2-.3-5.8-.3-5.8 0"/><path d="M992.3 245.7c.3 1.6 1.7 7.7 3.1 13.8 1.3 6 3.2 14.6 4.1 19 2.8 13.8 5.3 24.9 6.4 28.5 1.2 3.8 1.4 6.7.5 5.7-.7-.7-1.8-4.8-5-19.5-1.4-6.2-3-12.5-3.6-14s-1-4-.9-5.6c.2-1.6-.2-4.8-.8-7.2-1.1-4.4-2.5-10.4-3.6-15.7-1.5-7.5-2.5-.1-5.2 39.2l-.6 8.4 7.9 7.5c4.3 4.1 7 6.8 5.9 6.1-1-.8-2.6-2.1-3.5-2.9-.8-.8-3.6-3.2-6.2-5.3l-4.7-3.9-4.8 2.2c-2.6 1.2-5.6 2.7-6.6 3.2-7.4 3.8-9.7 5.1-9.7 5.5 0 .8 5.3 7.6 8.7 11.3 1.8 1.9 3.3 3.9 3.3 4.5 0 1.1-8.3-7.5-10.7-11.3-.9-1.2-1.9-2.2-2.3-2.2-.9 0-2.8 4.2-4.5 9.7-1.1 3.5-1 4.3.1 4.7.8.3 1.4 0 1.4-.7.1-.7.8-.3 1.8.8 3 3.3 5.7 4.4 12.2 4.6 4.4.2 6.4-.2 7.1-1.2.7-1.1.9-1.1.9-.1 0 .8 4.1-.9 10.8-4.4 12.2-6.6 14-8 12.3-9.7s-1.3-2.9.7-2.3c1.3.4 2.2-.1 3-1.6 1.5-3 9.1-26.7 14-43.8 2.2-7.4 4.7-15.2 5.5-17.2 1.2-2.8 1.3-3.9.4-4.6-1.2-1-27.6-4.2-34.3-4.2-3.4 0-3.6.2-3.1 2.7M939.2 249.9c-1.6 4.6-1.6 17.8.1 18.4q1.5.6 0 .6c-1.4.1.9 2.7 4.3 4.8 6.6 4.2 10.6 6.4 10.9 6.1s-.6-2.6-8.3-21.3c-1.1-2.8-2.4-6.3-2.7-7.9-.5-2.1-.9-2.6-1.5-1.7-.6 1.1-.9 1-1.2-.5-.3-1.4-.7-1.1-1.6 1.5M1033.6 257.6c.3 6 .6 16.8.8 24 .2 7.3.7 13.7 1 14.3 1.3 2.1 4.1 1 9.3-3.7l5.1-4.7.7-14.5c.4-10.8.3-14.1-.5-13-1.2 1.6-1.1.6.5-6.6.6-2.7.4-3.2-2.2-4.2-1.5-.6-3.5-1-4.3-1s-3.6-.3-6.2-.7l-4.7-.8z"/><path d="M1029.7 253.7c-.3 1-1.5 5.2-2.6 9.3-2.5 8.7-11.2 36.3-14.7 46.4-1.3 3.9-2.2 7.2-2 7.4s1.9-1 3.7-2.5c3.1-2.6 10.8-8 18-12.6 3.2-2.1 3.3-2.5 2-6-.5-1.3-1.1-10.9-1.2-21.3-.3-19.3-.6-22.4-1.9-22.4-.4 0-1 .8-1.3 1.7M883.7 256.2c-.7 1.3-3.3 5.3-5.7 9.1-4.1 6.4-7.4 12.9-12.6 24.5-1.9 4.3-2.1 5.4-.9 5.8 1.4.6 32.7-13.4 33.3-14.8.2-.4 1-.8 1.7-.8.8 0 2.6-.5 4-1.2 1.9-.9 2.2-1.4 1.3-2.1-.9-.6-.8-.7.5-.3 2.6.8 17.5-6.3 17.3-8.2-.4-2.2-12.2-6.1-16.2-5.5-3.5.6-8.4-1.4-6.5-2.7 1-.5-9.7-4.4-11.9-4.2-.3 0-1-.4-1.7-1-.8-.6-1.6-.2-2.6 1.4M948.4 256.6c.4 1.6 2.5 7.3 4.7 12.8 2.1 5.4 3.9 10.3 3.9 11 0 .6 3.5 2.9 7.8 5 4.2 2.1 9.6 5.1 12 6.7 5.1 3.4 5.3 2.7.7-2.6-1.9-2.2-6.5-8.1-10.2-13.1-10.2-13.6-14.6-18.9-17.2-20.9l-2.4-1.8zM934.5 273c-.3.5-.3 1 .2 1 .4 0 .3.4-.3.8-1.4.8-.6 11.5.7 10.6.5-.3.9.9.9 2.5 0 1.8.5 3.1 1.3 3.1.9 0 .9.2 0 .8-.7.5-.9 1.3-.3 2.2.7 1.1 2.1.5 7.2-3 7.5-5.1 9.8-7.1 9.8-8 0-.4-1.5-1.5-3.2-2.4-1.8-.9-5.8-3.2-8.8-5.1-6.1-3.8-6.6-4-7.5-2.5M1055.7 284.1c-3.3 3.9-3.6 4.7-4.1 12.8-.4 4.7-.8 10.3-1 12.3-.2 2.1-.1 3.8.2 3.8 1.2 0 12.7-7.2 13.4-8.3.4-.7-.3-2.3-1.5-3.7-1.3-1.4-1.5-1.9-.4-1.1 2.5 1.9 3.3.6 1.9-3.2-.6-1.7-1.8-6.1-2.6-9.6-.8-3.4-1.6-6.5-1.9-6.7-.2-.2-2 1.5-4 3.7M958 286.8c0 1 .9 4.5 1.9 7.8 1.1 3.2 2.5 7.7 3 10l1.1 4.1 9.5-4.6c5.2-2.5 9.5-5.1 9.5-5.6 0-.6-1-1.5-2.3-2.1-5.5-2.6-15.2-7.9-15.7-8.4-.7-1-4.7-3-5.9-3-.6 0-1.1.8-1.1 1.8M946.3 292.3c-4 2.8-7.3 5.5-7.3 5.8 0 .6 20.5 9.9 21.9 9.9.8 0-.7-7.6-3.3-16-.7-2.5-1.9-4.6-2.7-4.7-.8-.2-4.7 2.1-8.6 5M1043.2 295.8c-2.9 2.6-5.2 5.2-5.2 5.9 0 .6 1.9 2.7 4.2 4.7 2.4 1.9 4 3.7 3.8 4-.3.3-2.6-1.5-5.2-4-3.4-3.2-4.9-4.1-5.5-3.2-3.7 6-9 16.7-9.5 19.4-.2 1.4.4 2 2.6 2.2 2 .3 2.6 0 2-.9-.5-.9-.2-1 1-.6 1.1.5 3.6-.5 6.9-2.6 2.9-1.8 6.1-3.7 7.2-4.3s2-2 2-3 .6-2.5 1.3-3.2c1.3-1.5 1.8-19.2.5-19.2-.5 0-3.2 2.2-6.1 4.8M928.9 300.4c-.3.3-4 1.2-8.4 2.1s-9.7 2.1-11.7 2.7l-3.7 1.1 2.5 5.6c2.7 6.1 5.3 8.9 6.5 7 .4-.7 1.8-1 3.3-.7 1.6.3 2.3.1 1.9-.5s0-.8.9-.5c1 .4 2.4-.8 4.2-3.7 1.5-2.4 3.9-5.4 5.3-6.7 1.9-1.8 1.6-.8-1.6 4.4-2.3 3.7-4.1 6.9-4.1 7.1s3 .4 6.8.3c3.7 0 7.7.4 8.9.8 2 .8 2.1.6 1.2-3.2-.5-2.2-1.3-5.2-1.9-6.7s-.9-3-.6-3.2c.2-.3 1.4 2.3 2.7 5.6 2.2 6.3 4.8 10.1 6.8 10.1.6 0 1.1.4 1.1.8 0 .5 1.4.7 3 .4 2.4-.3 3-.1 3 1.4 0 1.7.1 1.7 1.4-.2 2.4-3.4 5.6-12.8 4.7-13.7-.4-.4-6-3-12.2-5.7-10.5-4.5-11.6-4.8-13.6-3.4-2 1.3-2.3 1.3-2.3-.1s-3-2.1-4.1-1.1M859.3 304.3c.8 2-.4 2.2-2.1.5-.8-.8-1.5-.9-2-.3-.4.6-2 1.7-3.7 2.5-3 1.5-17.9 9.9-27 15.2-2.7 1.6-6.1 3.4-7.5 4-1.4.7-2.7 1.3-2.9 1.5-.8.5 2.7 3.1 8.4 6.3 3.3 1.8 7.6 4.3 9.5 5.5 6.1 3.8 14.1 7.5 16.2 7.5 1.1 0 7.6-.7 14.4-1.6l12.4-1.7-.7-2.6c-.3-1.4-2.4-6.6-4.5-11.5s-3.7-9.3-3.6-9.8c.2-.5 2.6 4.3 5.3 10.6 2.7 6.4 5.2 11.2 5.6 10.8 1.9-2.1 15-20.3 17.4-24.2 1.5-2.5 3.9-5.7 5.3-7.2s2.3-3 2.1-3.3c-.3-.2-7.9-.9-17-1.5-9-.6-18.6-1.3-21.3-1.7-4.3-.5-4.9-.4-4.3 1M1028.9 305.5c-14.2 10.5-17.6 13.4-19.1 16.4-1.3 2.6-1.4 3.8-.6 5.7.6 1.3 1.6 2.4 2.2 2.4s2.1.3 3.4.6c3.4 1 2.8-2.4-1-5.9l-3.3-2.9 4.7 2.6c2.6 1.4 4.9 2.6 5.2 2.6.4 0 2.2-3.2 4.1-7.1 1.9-4 4.5-8.6 5.8-10.3 2.7-3.6 4-6.6 2.8-6.6-.4 0-2.3 1.1-4.2 2.5M901.3 310.2c-3 3.4-10.8 14.8-12.8 18.8l-1.8 3.5 2.2-1.9c1.1-1.1 2.1-1.5 2.1-1.1s.8.1 1.8-.8c.9-.8 3.1-1.9 4.7-2.3 1.7-.4 3.5-1.1 4.1-1.6.7-.5 2.6-1 4.3-1.1 2.5-.2 3.1-.7 3.1-2.4 0-2.8-3.9-13.3-4.9-13.3-.4 0-1.7 1-2.8 2.2M1005.9 320.8c-.3.7-7.6 4.9-19.1 10.9-3 1.6-3.3 2.4-1.9 5.1.6.9 1.8 4.4 2.8 7.7.9 3.3 1.9 5.2 2.1 4.2.2-.9 1.6-3.1 3-4.7 3.2-3.5 14.6-22.9 13.9-23.6-.3-.3-.7-.1-.8.4M813.1 350.5c.1 14.4.4 19.3 1.2 18.8 4.7-2.8 26.5-17.8 27.9-19.2 1.7-1.5 1.3-1.9-6.5-6.6-4.5-2.8-10.1-6-12.6-7.3-2.4-1.2-5.3-2.9-6.4-3.7-1.2-.8-2.5-1.5-3-1.5-.4 0-.7 8.8-.6 19.5M967.3 335.3c-2.6 1.3-3 4.3-.9 6.6.8.9 1.6 2.9 1.9 4.5.4 3.7 2.2 4.4 3.7 1.7.6-1.2 1.5-2.1 2.1-2.1.5 0 .3 1.3-.6 3-.8 1.6-1.5 3.3-1.5 3.8 0 1.2 14.1 2.5 15.1 1.5.8-.8-1.8-12-3.9-17.4-1-2.4-1.5-2.6-7.4-2.6-3.4-.1-7.3.4-8.5 1M859.5 346.6c-5.5.8-10.3 1.9-10.8 2.3-.9.9 13.9 18.1 15.5 18.1.6 0 .5-.7-.3-1.7-1.2-1.5-1.2-1.6.4-1 1 .4 2.5.7 3.3.7s1.4.7 1.4 1.5c0 .9.6 1.2 1.5.9 1.1-.5 1.5.1 1.5 2.3 0 2.1.5 2.9 1.9 3 1.9.2 1.9-.6 1.8-13.5l-.2-13.7-3-.2c-1.6-.1-7.5.5-13 1.3M845.4 350.6c-3.2 1.4-31.9 21.1-31.8 21.9.1 1.1 5.3 4.9 23.1 17 6.1 4.2 11.7 8.3 12.4 9.1.6.8 1.6 1.4 2.2 1.4 1 0 1.1.1-2.2-25-1.2-8.5-2.2-17.6-2.3-20.2-.2-2.7-.3-4.8-.3-4.7 0 0-.5.3-1.1.5M848.6 357.5c.3 2.7 1 7 1.5 9.5s1.4 8.5 2 13.5c1.9 16.1 2.1 17.5 3.3 17.5 2.1 0 13.7-8 13.1-9-.4-.6.1-.7 1.2-.3 1.5.6 1.6.4.5-.9s-.9-1.9 1.2-3.6l2.5-1.9-2.8-2.7c-1.5-1.4-3.1-2.3-3.6-1.9-.4.5-.5.2-.1-.5.5-.8-1.9-4.3-6.6-9.7-4-4.6-8.5-9.8-10-11.7l-2.8-3.3zM813.6 375.8c-.2.4.4 3.2 1.4 6.2s2.6 9.5 3.5 14.4c2.4 12.9 2.9 13.8 6 12.6 1.5-.6 7.2-2.1 12.8-3.5s10.8-2.8 11.6-3.1c2-.7-2.9-5-14-12.5-5.2-3.4-12-8.2-15.1-10.6s-5.9-4-6.2-3.5M1050.2 390.7c-3.1 1.5-3.3 1.9-2.7 5.2.4 1.9 1.3 5.5 2.1 7.8.8 2.4 1.2 4.8.8 5.5-.6 1-4.2-8.5-4.6-12.4-.3-2.3-1.7-1.3-7.2 5.1-4.1 4.9-5.7 8.1-4 8.1.3 0 3.7.5 7.5 1.1 5.1.8 7.4.8 8.3-.1 1.1-.8 1.5-.8 1.9.2.3.7.6-.1.8-1.7.2-3 .2-3 .8.5.6 3.1.8 2.6 1.5-3.7.4-3.9.4-7.8 0-8.5s-.7-2.9-.5-5c.3-4.3 0-4.4-4.7-2.1M867.2 394.5c-2.4 1.3-5.7 3.4-7.4 4.7l-3.1 2.1 2.4 1c1.3.5 6.7 1.9 12 3.3 5.3 1.3 10.4 2.7 11.4 3 1.5.6 1.7.4 1.1-1.7-.4-1.3-1.4-4.9-2.2-7.9s-1.6-5.5-1.7-5.6-2-.5-4.2-.8c-3.2-.5-4.9-.1-8.3 1.9M920 400.5c-2.2 2.4-6.6 13.3-5.6 14.2.4.5 19.2-2.2 24.4-3.4 2-.5 1.6-1-4-5.4-3.5-2.7-7.1-4.9-8-4.9-1 0-1.8-.4-1.8-1 0-.5-.7-.6-1.7-.3-1.1.4-1.4.3-.9-.5 1.2-2 .1-1.4-2.4 1.3M1026.4 412.5c.2 2.2.8 5 1.4 6.2 1.7 3.2 1.5 3.5-1.3 1.7-2-1.3-2.6-1.4-2.9-.3-1.3 4.3-1.3 6.5 0 9 .7 1.5 1.4 4.3 1.4 6.1s.9 4.4 2 5.8 2 3.4 2 4.6c0 1.8.7 2.1 6.1 2.3 5.3.2 6.1 0 5.5-1.4-.3-.9-.6-2.3-.6-3 0-.8-.6-2-1.2-2.7-2.1-2.2-9.9-17.8-9.3-18.7 1.5-2.5 1.5-8.2.1-9.7-.9-.8-1.6-1.2-1.7-.7 0 .4-.4-.1-.9-1.2-.7-1.5-.8-1-.6 2M967.8 429.8c-2.6 3.7-6.4 8.5-8.4 10.7-9.9 11-20.5 24.7-20.1 25.9.9 2.3 13.1 16.6 14.2 16.6 1 0 8.6-21.4 14.5-41 1.8-5.8 3.4-11.2 3.8-12 .3-.8.4-2.1.3-2.8-.1-.8.3-2 1-2.8.6-.8.8-1.4.3-1.4-.5.1-3 3.1-5.6 6.8M975.5 451.9c-.2.4 4.5 3.1 10.5 6 10 4.8 11.2 5.2 14.2 4.2 2.8-.9 15.7-8.6 17.5-10.5.3-.3-9-.5-20.6-.4-11.6 0-21.3.4-21.6.7M944.5 510.2c-.4 1.3-2.2 3.9-3.9 5.8-1.8 1.9-5 5.7-7.2 8.4l-3.9 4.9 9.5-.7c5.2-.4 9.2-.4 8.8 0-.5.4-2.4.7-4.3.6-2-.1-3.4.2-3.1.7.5.8 16.3 2.5 32.6 3.6 4.7.3 11.9.8 16 1 8 .6 8.7.3 12.8-4.9 1.9-2.5 2.2-2.6 2.2-.8 0 1.1.7 2.2 1.5 2.6.8.3 1.5.1 1.5-.5s.4-.7 1-.4.7-.1.4-.9c-.4-1.1 0-1.6 1-1.6 2.4 0 11.6-7.2 11.6-9.1s-2.7-7.6-4-8.4c-.5-.3-1.2-.1-1.5.5-.4.6-2.5 2.2-4.7 3.6l-4 2.6-4.8-2.1c-2.7-1.2-5.6-2.1-6.4-2.1-1.8 0-22.3 10.5-24.7 12.6-.8.8-3.1 1.3-5 1.3-1.9-.1-2.6-.3-1.6-.6.9-.2 1.7-.8 1.7-1.2 0-.3-3.5-3.6-7.7-7.1-4.3-3.6-8.5-7.3-9.5-8.3-2.4-2.3-3.5-2.2-4.3.5M356 597.4c-1.7 12.4-1.7 12.4 6.2 7.4 3.7-2.4 9.9-6.6 13.7-9.4l7.1-5.1-9.8-.6c-5.3-.4-11.1-.7-12.8-.7h-3.2z"/></svg>