<svg xmlns="http://www.w3.org/2000/svg" width="1706.667" height="960" viewBox="0 0 1280 720"><path d="M0 360v360h284.4c269.8 0 284.5-.1 284.9-1.8.4-1.6.5-1.6.6 0s1.2 1.8 8.6 1.8h8.5l1.4-3.4c1.7-4.1 4.1-6.1 2.6-2.1-1.9 5.1-1.5 5.5 5.5 5.5 7.7 0 6.8.7 18.5-14 4.5-5.8 9.6-11.9 11.2-13.6 2.1-2.3 3.1-4.7 3.9-9.5 1.2-7.7 1.9-8.8 1.8-2.8-.2 7-.2 6.9 3.1 5.3 1.6-.8 4.6-1.7 6.7-2 3.5-.4 3.6-.3 1.3.7-3.3 1.5-9.4 4.3-9.8 4.5-.2.1 1.2 1.8 3.2 3.7 1.9 1.9 3.8 3.2 4.2 2.9.4-.4.4-.2.1.4-.8 1.4 6.6 8.7 7.8 7.7.4-.5.5-.3.2.3-.4.7 2.5 4.6 6.4 8.8l7.2 7.6h5.4c4.9 0 5.3-.1 4.4-1.9-1.6-2.9-8.1-21.4-7.7-21.8s6.9 14.6 8.6 19.9l1.2 3.8H1280V0H574.1l.5 3c.5 2.2.2 3.1-1 3.6-2.4.9-4.8-1.5-4.1-4.3L570 0H0zM408.5 73.6c-1.4 3.8-2.9 7.8-3.4 8.9s-2.1 5.4-3.4 9.5c-1.4 4.1-3.7 10.6-5.1 14.4s-2.6 7.3-2.6 7.8c0 1 2.8.4 7.5-1.7 1.7-.7 8.2-3.5 14.5-6.3s20.3-9 31-13.9 20.6-9.4 22-10c2.5-1.1 2.5-1.1-2-3-2.5-1.1-10.7-4.1-18.3-6.8-7.6-2.6-13.6-4.9-13.4-5.2.2-.2 9.1 2.6 19.7 6.3 12.4 4.2 20.2 6.3 21.7 5.9 1.5-.3 2.2-.1 2.1.7-.3 1.1 3.7 2.9 10.7 4.8 1.7.5 9.5 3.1 17.5 5.9s15.2 5.1 16.2 5.1c1.2 0 2-1.3 2.7-4.3l1-4.2-.5 4.7c-.6 5.1-.6 5 5.1 5l3-.1-3 .7c-2.9.7-2.7.9 5 4.6 12.2 5.9 37.7 17.7 40.2 18.7 2.7 1 3.3.2 6.8-10.8 1.4-4.3 3-8.5 3.6-9.3.9-1.2 1-1.1.4.5-6.2 18.3-6.6 20.3-5.2 23.7 1.7 4 4.7 8.8 24.4 38.5 8.5 12.8 15.8 23.3 16.1 23.3.4 0 2-2.1 3.6-4.8 4.6-7.3 9.5-15.2 13.5-21.2 1.9-3 4.4-7.1 5.4-9.1s2.7-4.5 3.9-5.5c2.1-1.9 2.1-1.9.8.6-.7 1.4-3.7 6.1-6.5 10.5-19.9 30.7-19.4 29.9-19 34.5.2 2.2-.1 4-.6 4s-.9-1.2-.9-2.6c0-2.4-.2-2.5-4.7-1.9-6.9.9-27.1 4.1-47.3 7.5-9.6 1.5-20.5 3.2-24.2 3.5-5 .5-6.8 1.1-6.8 2.2 0 .8 5.2 6.7 11.6 13.1 6.3 6.5 12 12.4 12.7 13.2.6.8-4.8-4.2-11.9-11.3-7.1-7-13.2-12.7-13.6-12.7-.7 0-.2 27.1 1.2 61 .5 12.9 1 29.9 1 37.7 0 16-.1 15.9 6.9 12.4 2.1-1.1 13.4-5.9 25.2-10.6 48.9-19.8 47.9-19.4 47.9-21.2 0-.7.5-1.3 1-1.3.6 0 1 .6 1 1.4s1.2 1.7 2.8 1.9c2.5.4 2.5.4-.5.6-1.8 0-3.3.5-3.3 1s-.8.7-1.7.5c-1-.3-8.5 2.4-16.8 5.9-8.2 3.5-24.7 10.3-36.5 15.1-11.9 4.8-22.6 9.5-23.8 10.4-2 1.6-2.2 2.8-2.9 21-.5 10.6-.6 19.9-.3 20.6.3.9 7-3.3 20.6-13.3 19.1-14 24-18.4 36.6-33.1 11.8-13.9 20.8-24 20.8-23.5 0 .8-6.7 9.4-8.9 11.5-.9.8-3.6 4-6.1 7s-7.7 9.1-11.6 13.6c-4 4.4-7.4 8.9-7.6 10-.2 1-1 1.9-1.8 1.9s-4.9 2.5-9 5.6c-4.1 3-11.5 8.4-16.5 11.9-11.4 8.1-15.1 11.1-14.7 12.2.1.4-.6.8-1.7.8-1.5 0-2.5 2.1-5.1 11.2-1.8 6.2-4.3 14.3-5.6 18-1.5 4.5-1.9 7-1.2 7.4s.5 1-.6 1.6c-.9.5-1.7 1.7-1.7 2.6-.1.9-.4.3-.8-1.3-.4-1.8-.2-3.4.5-4 .6-.6 2.3-4.8 3.7-9.5s3.6-11.8 4.8-15.8 1.9-7.5 1.6-7.8-7.2 3.6-15.4 8.8c-8.1 5.2-17 10.7-19.7 12.2l-4.9 2.9 2.4 1.3c1.3.7 3.2 1.3 4.1 1.4.9 0 1.9.4 2.2.9.4.5-1.8.3-4.6-.5-6.8-1.8-6.8-1.8-6.8.6 0 1.1-.4 2-1 2-.5 0-1-.7-1-1.5 0-2-.2-2-13.8 1.6-6.4 1.7-12.7 3.4-14 3.7-1.3.2-2.6 1.1-2.9 1.9-.4 1-.8 1.1-1.3.3s-4-.4-13 1.4c-6.8 1.4-12.5 2.8-12.7 3-.3.2.3 1.9 1.2 3.8 1.3 2.7 1.3 2.9.1 1.4-.8-1-1.7-2.4-1.9-3-.7-2-3.5 1.3-7.7 8.9-2.2 4-4 7.8-4 8.4s4.5 3.2 10 5.8c5.5 2.5 9.9 4.7 9.7 4.9s-4.5-1.4-9.5-3.6c-5.1-2.2-10.1-4-11.1-4s-2.2-.7-2.5-1.5c-.7-2-18.9-23.3-19.8-23.4-.5-.1-.8 1.1-.9 2.6-.1 3-.3 2.5-1.4-2.1l-.6-2.8-10.7.6c-5.9.4-11.8.9-13.2 1.1s-4.2.6-6.2 1c-2.1.3-3.8 1.1-3.8 1.6 0 2.9 38.2 47.1 39.5 45.8.3-.3.2-4-.3-8.2-.4-4.3-.5-7.7-.1-7.7s1 3.8 1.4 8.5 1.1 8.5 1.6 8.5c.6 0 .7.4.4 1-.8 1.3-.5 1.3 4.5-.5 5.7-2 11.1-2.9 9-1.5-.8.5-2.2 1-3 1-2.4 0-10 3.4-10 4.5 0 1.4 20.1 20.5 22.7 21.5 2.8 1.2 2.1 5.4-.8 4.5-1.2-.4-7.3 2-16.5 6.4-8 3.9-15 7.1-15.4 7.1-2.3 0-1.8 2.4 1.1 6 1.8 2.2 3 4.2 2.7 4.5-.5.5-2.8-2.1-6.1-6.8-1.1-1.6-2-1.2-10.7 5.7-12.3 9.7-18 13.3-18.9 11.7-.4-.6-6.9-4.3-14.5-8.1l-13.7-7-6.2 2.6c-3.4 1.4-6.8 2.8-7.4 3.1-1.7.7-1.7-2.1.1-7.7.8-2.5 2.2-8.1 3.1-12.5s2-8.2 2.5-8.3c.6-.2 1-1.1 1-1.9 0-1.3-.2-1.4-1.7-.2-1.7 1.3-1.7 1.3-.3-.5.8-1 1.4-3.1 1.2-4.5-.3-3.6 4.3 6.3 5.2 11.2.4 2 1.1 3.7 1.5 3.7.8 0 3.1-12.7 3.1-17 0-1.1.6-2.1 1.3-2.1.6-.1 1.7-.2 2.2-.4.6-.1 2.6-.3 4.5-.4 2.8-.2 3.1-.4 1.5-1s-1-1.1 3.3-2.5c3.3-1.1 6.1-2.9 7.6-4.8l2.4-3.1-.5 2.7c-.5 2.5-.3 2.6 3.5 2.6 2.3 0 4.3.4 4.7 1 .3.5 1.3.6 2.2.3 1.1-.4 1.4-.2.9.5-.4.7.3 1.4 1.8 1.8 1.3.3 2.7 1.5 3.1 2.7.7 2.2.8 2.2 1.2.1.4-1.9-8.6-30.2-12.1-38.4l-1.5-3.5-.1 6.7c0 4.4.4 6.8 1.3 7.1.9.4.9.7-.1 1.8s-1.6 1.1-3.5 0c-2.6-1.7-35.7-2.8-35.7-1.3 0 .6-.9 1.2-2 1.5s-2 .1-2-.5c0-.5-.5-.6-1-.3-.7.4-.1 1.6 1.5 3 2.8 2.7 14.1 9.5 15.6 9.5.5 0 5.9-2.5 12-5.6 6.1-3 11.4-5.3 11.7-5 .7.7 1.3.3-8.3 4.9-10.6 5.1-13.1 6.7-11.6 7.6.7.4-.4.8-2.4.9-2.3.1-3.5-.3-3.5-1.2 0-.7-2.4-2.6-5.2-4.1-2.9-1.6-7.7-4.4-10.5-6.2-7.3-4.6-10.3-5.7-10.3-3.7 0 .9-1 2.8-2.2 4.2-1.5 2-1.9 2.1-1.3.7 1.3-3.3 1.7-7.2.8-7.8-.4-.2-4.5-.8-9.1-1.2l-8.2-.7.8 2.3c1 2.6.6 4.9-.9 4.9-.5 0-.9-1.3-.9-2.9 0-1.7-.4-3.3-1-3.6-.5-.3-1-1.1-1-1.7 0-.7.5-.6 1.5.2 1.7 1.4 1.2 2.4 6.5-13 1.8-5.2 3.8-10.2 4.5-11 2.4-2.8 4.6-8.2 4.1-9.6-.7-1.9-4.5-1.8-6.9.3-1.8 1.7-1.9 1.7-1.6-.2.3-1.3-.1-1.9-1.1-1.8-4.2.6-18.4 3.4-18.8 3.7-.3.4 3.4 10.6 6 16.6 1.8 4 4.7 12.4 4.7 13.5 0 1.4-4.8-8.7-4.8-10.3-.1-.7-.5-2-1-3-.4-.9-1.5-3.3-2.4-5.2-5.4-12-5.9-15.4-5.6-33.5.3-17.6.3-17.7-.5-21-.5-1.7-1.5-4.9-2.3-7.2-.9-2.5-1.3-6.1-1.1-9.5.3-2.9-.1-8-.8-11.3-1.6-7.8-2.6-25.5-1.5-25.5.5 0 1.7 2.3 2.6 5.1 1 2.8 2.3 5.3 3.1 5.6 2.4.9 6.1-.6 7.7-3 1.4-2.2 1.2-2.7-5.4-11.2-3.8-4.8-6.9-9-6.9-9.1 0-.2 3.4 3.2 7.6 7.6s8 7.7 8.5 7.4.9.1.9.8c.1.9.4.7 1-.3.7-1.2.4-3.2-.8-6.5-1.4-3.8-2.7-5.4-6.7-7.9-6.6-4.1-11-5.9-13.5-5.2-1.7.4-1.9.2-1.4-2.1 1.3-5.1 4.4-16.8 7.3-27.2 1.7-5.8 3-11.7 3.1-13.2 0-1.5.4-2.9.9-3.3.6-.3.8.7.5 2.2-.4 2.7-.3 2.6 1.6-.7 2.9-5.2 2.5-1-.5 4.6-3.4 6.3-3.2 8.3 1.3 13l3.7 3.9.6-8 .5-8 .2 8.2c.1 4.5.7 8.5 1.2 8.8.6.4.8 1.1.5 1.6-.4.5-.2.9.2.9.5 0 1.9 1 3.3 2.3 9.9 9.2 11 8 14.9-16.3 1.6-10.2 3-17.6 3-16.5.2 3.9-3.1 26.1-4.9 33.3l-1.8 7.3 4.1 2.5c2.3 1.5 6.7 4.3 9.7 6.4 5.2 3.5 13.3 8 14.5 8 1.4 0 .1-5.6-4.1-17.5-4.9-14.1-8.7-27.5-8.1-28.2.6-.5 3.7 8.5 3.7 10.5 0 .7 1.1 4.1 2.4 7.5 3.5 9.1 8.6 25.6 8.6 27.9 0 3.3 2.4 1.4 3.6-2.8.6-2.2 2.1-6 3.2-8.4 1.9-4.3 11.4-30.7 14.2-39.5.7-2.2 2.5-6.7 4-10 3.5-7.8 5.4-13.5 4.6-14.3-.7-.7-4.2-.6-30.1.9-10.4.6-19.4 1.5-19.8 1.9-.5.4.1 4.9 1.3 9.9 1.3 5.1 2 9.4 1.8 9.6-.3.3-1.3-2.9-2.3-7-1.1-4.1-2.2-7.5-2.6-7.5s-.9-1.2-1.1-2.8c-.2-1.5-.7-2.6-1.3-2.6-.5.1-3 .4-5.5.7l-4.5.6 5.3-1.6c2.8-.9 5.2-1.9 5.2-2.2s-2.4-10.2-5.3-21.9l-5.4-21.4-1.5 4.4c-3.6 10.3-5.1 15.9-5 18.8 0 1.6-.4 3-.9 3-.6 0-.7-.6-.4-1.3.4-.6-.1-.3-.9.7-1 1.2-1.5 3.6-1.4 6 .1 4.1.1 4.1.5.6.3-1.9.9-4 1.4-4.5 1.4-1.4-.1 9.2-1.8 13l-1.4 3 .4-2.7c.5-3.5-.9-2.7-1.6.9-.3 1.6-.9 3.7-1.3 4.8s-.4 1.7 0 1.3c1.5-1.3 3.2 1.5 2.8 4.4-.3 1.6.9 6.6 2.7 11.6 3.2 9.1 8.9 27.9 9.7 32.2 1.2 6-1.6-1.4-5.5-14.8-2.3-7.9-5.3-16.7-6.6-19.6-1.4-3-2.6-6.7-2.7-8.4-.2-3.1-1.8-3.4-1.8-.4-.1 2.1-2.9 7.3-3 5.4 0-.7.4-2.1.9-3s1.1-3.7 1.4-6.2c.4-2.5 1.3-6.8 2.2-9.5.9-2.8 1.8-6.4 2-8.2s2-8.5 4-15c8.2-26.7 7.5-24.7 14.8-40.6 2.2-4.8 4.2-8.5 4.4-8.4.2.2-1 3.4-2.7 7-1.6 3.7-3 7.2-3 8 0 .7-.9 3-2 5.2-2.7 5.3-2.6 12.2.5 22.7 1.4 4.7 3.2 11.9 4 15.9 1.9 9.2 3.4 13.9 4.4 13.9.5 0 1.2-2.4 1.5-5.3.4-2.8 2.2-11.3 4.1-18.7 1.8-7.4 5.9-24.3 9.1-37.5s6-23.2 6.2-22.2c.4 1.9-2.4 15.1-3.8 17.6-.5.9-2 7.1-3.5 13.6-1.4 6.6-4.6 20.4-7.2 30.7-4.3 17.7-5 24.3-2 20.6.6-.9 3.9-3.7 7.2-6.3s6.2-5.1 6.5-5.4c.3-.4 2.7-2.4 5.3-4.6l4.8-3.8-.6-11.6c-.3-6.4-1-17.7-1.6-25.1-.5-7.4-1-17.1-1-21.5-.1-10.4-1.6-17-3.5-15.4s-1.8.4.2-1.5c1-1.1 1.1-1.6.3-1.6-.6 0 .3-1.6 2.2-3.5s3.8-3.5 4.2-3.5c.8 0 32.4-23.6 36.7-27.5 1.4-1.2 4.3-3.4 6.5-5l4-2.7-3.5 3.1c-1.9 1.7-6 5-9 7.4-3 2.3-6 4.6-6.6 5.2-.6.5-6.4 5-12.9 10-6.5 4.9-13 10-14.4 11.3l-2.6 2.3 3.5-.5c5.3-.8 38.5-4.4 46.8-5.2 9.6-.9 9.1-.1 19.8-29.4 2-5.2 4.4-12 5.5-15 1-3 2.2-6.1 2.4-6.9.3-.8.8-1.2 1.1-.9.2.3-.7 3.6-2.1 7.4M976 117c12.4 10.4 24.1 20.2 26 21.8 3.3 2.8 9.4 6.3 10.5 6.2 1.9-.2 3.8 2.5 6.5 9 1.7 4.1 3.6 8.1 4.3 8.9 1.5 1.8 5.3 11.2 6.3 15.6.4 1.6 1.8 5.2 3.1 8 1.2 2.7 3 8.4 3.9 12.5s2.2 9.3 2.9 11.5c.8 2.2 2.6 10.1 4.1 17.5 1.4 7.4 4.2 20.9 6.1 30 4.4 20.8 4.7 22.9 3.5 21.2-.7-1.1-1.9-.4-5 3-2.3 2.3-4.2 4.9-4.2 5.6s-.4 1.1-.8.8c-.5-.3-3.1 1.2-5.9 3.2-2.7 2-6.3 4.6-7.9 5.8l-2.8 2.1 1.8 2.9 1.8 2.9-2.2-2.2-2.3-2.2-3.9 2c-3.3 1.7-17.8 11.7-21.5 14.9-.7.5-1.6 1-2.1 1-1 0-1.5 7.4-.7 10 .4 1.3 1.4 1.7 3.3 1.5 1.5-.2 3 .2 3.4.9.5.6.8.2.8-1.1 0-1.2-1.5-3.6-3.2-5.3-2.8-2.7-2.9-3-.8-1.9 1.3.6 3.3 2.1 4.3 3.3 1.2 1.4 2 1.7 2.3.9.3-.7 1.2-.9 2-.6 1 .3 2.4-1.7 5-7.2 3.8-8.2 5.4-9.5 3-2.4-3 8.5-1.4 9.8 5.9 5.4 2.2-1.4 6.1-3.6 8.6-4.9 4-2.2 8.1-5.6 6.6-5.6-.3 0 .1-1.6.9-3.5.7-1.9 1.4-6.3 1.4-9.7 0-3.5.5-7 1.1-7.8.8-1.1.9 1 .5 7.6-.4 5-.8 10-1.1 11.2-.2 1.2-.2 2.2.1 2.2 1.2 0 12.4-6.1 13.8-7.5 1.5-1.5 1.2-2.1-4.1-7.6-5.9-6.2-7.2-7.9-5.6-7.9.5 0 2.3 1.7 3.9 3.7s3.6 4.6 4.6 5.7c2.8 3.5 3.2 1.1 1.3-7.9-1-4.7-1.6-8.7-1.3-9s1 2.1 1.7 5.2c.7 3.2 1.9 7.7 2.7 10.1 2 6.2 1.7 14.1-1.2 27.7-1.9 8.7-2.7 15.7-2.9 25.5-.2 9.3-.8 14.4-1.8 16.2-.8 1.5-1.7 2.4-2.2 2-.4-.4-.4 1.8-.1 4.8s.8 12.5 1.2 21c.6 14.2.5 15.7-1.1 17-1.7 1.4-1.8 1.3-.9-1.5.4-1.7.8-5 .8-7.5 0-6-1.4-22.3-1.9-22.9-.8-.8-1.5.5-1.7 3.2-.1 1.5-.8 2.7-1.4 2.7s-1.7.6-2.4 1.4c-.9 1.2-.7 1.5 1.2 1.3 1.3 0 2.6-.6 3-1.2.5-.6.8-.4.8.6 0 .9-1.7 2.2-4.1 3.2l-4 1.6.6 4.8c.8 5.9 3.5 13.4 4.5 12.8.4-.3 1-1.7 1.3-3.2 1.2-5.8 2.5-9.8 2.6-7.7.1 1.1-.6 4.3-1.4 7-1.6 5.5-1.7 7-.4 6.7 1.6-.5.9 1.8-1.6 5.1-1.3 1.7-3.6 5.8-5 9s-2.8 5.6-3.1 5.4c-.2-.3 1.1-4 3.1-8.3 1.9-4.3 3.4-8 3.2-8.2-.6-.6-15.6-3.3-18.3-3.3-2.2 0-2.4.4-2.4 4.2 0 2.3-.2 3.9-.4 3.7-.4-.4-1.3-4.5-1.5-7.3-.1-.4-1.3-.6-2.8-.3-2.4.4-2.6.4-1-.8 1.7-1.2 2.4-4.5.9-4.5-.4 0-.8-1-.9-2.2-.1-1.1-.7-2.4-1.3-2.8-.8-.5-.6-.9.4-1.3 1.2-.5 2 .2 2.8 2.1.6 1.5 1.2 3 1.2 3.4.2 1.4 2.6 3.3 2.6 2.1 0-.7 2.9-4.5 6.5-8.6 6.3-7.2 8.3-10.4 4.8-7.6-1.4 1.2-1.6 1.2-.9 0 .7-1.1.1-1.3-2.7-.9-2 .2-3.3 0-3.1-.4.3-.4.1-.8-.5-.8-.5 0-1.3.5-1.6 1-.4.6-1.1.8-1.6.5-.5-.4-.9-.1-.9.5s-.5.8-1.1.5c-.7-.5-.8 1.3-.5 5.7l.6 6.3-2.1-6.3c-2.2-6.9-4.5-7.9-4.3-1.9.1 2.1-.3 3.7-.7 3.7-.5 0-.9-.6-.9-1.4s-.7-1.7-1.5-2c-1.3-.5-1.5 0-.9 3.2.4 2 1 4.1 1.4 4.7.4.5 1 3.2 1.4 5.9.3 2.6 1.8 7.5 3.3 10.8 2.2 4.9 2.8 5.7 3.4 4.2.6-1.4.8-1.1 1 1.6.1 1.9.2 4.1.1 4.9 0 .8.4 2.6 1 4s1.5 4.8 2.2 7.5c.6 2.7 1.6 5.1 2.3 5.3.6.2 1.9-1.3 2.8-3.4s2.3-5.1 3.1-6.6c.8-1.6 1.4-3.7 1.4-4.7 0-1.3.5-1.7 1.5-1.4 1.2.5 1.2 1.1-.5 4.2-2.7 5.2-5 10.4-5 11.4 0 .4.9.8 2 .8s2 .3 2 .7c0 .5-4.6.9-10.3 1.1-6.9.2-10.9.8-12.5 1.8-1.3.8-3.1 1.4-4 1.3-2.9-.3-3.7 0-8.3 2.9-10.9 7-15.3 9.2-16.1 8.4-.4-.4 1.3-2 3.9-3.4 2.7-1.4 6.4-3.4 8.3-4.4 1.9-1.1 4-2.4 4.7-3.1.7-.6 1.8-1.3 2.5-1.6 3.5-1.2-1.6-1.5-21-1-11.7.3-20.9 1-20.5 1.4s4.4 2.7 8.8 4.9c8.2 4.3 15 8.9 14.2 9.6-.2.3-4.4.6-9.3.7-4.9.2-7.6 0-5.9-.4 1.7-.3 4.7-.7 6.8-.8 2.3-.1 3.7-.6 3.7-1.4 0-1.2-16.9-10.7-19.1-10.7-.7 0-.9 1.2-.5 3.5 1 5.3-.1 4.2-1.7-1.8-1.1-3.7-1.3-6.7-.7-10.2.4-2.8.6-5.2.3-5.5-.8-.7-3.6 3.8-5 7.9l-1.2 3.6.5-3.5c.3-1.9 1.5-5.5 2.5-7.9s1.9-5.2 1.9-6.3c0-1 .7-3.5 1.5-5.5s1.4-3.8 1.1-4c-.2-.2-7.2 7.9-15.7 17.9-8.4 10.1-16.4 19.1-17.6 20.1-2.8 2.2-2.8 2.7-.5 5.3.9 1.1 4.3 5 7.5 8.7s6.2 6.7 6.6 6.7 1.3-1.7 2-3.8c.8-2 1.8-4.8 2.4-6.2.5-1.4 2.5-6.8 4.3-12s3.3-8.6 3.3-7.5c.1 1.9-3.1 12.2-6.3 21-1.8 4.8-2 6.5-.6 6.5.5 0 .9-.6.7-1.3-.1-.8.8-1.1 2.5-.9 3 .3 8.8-2.2 8.8-3.8 0-.6.9-1 2-1 1.5 0 2.2-.9 2.7-3 .7-3.5 1.4-3.7 3.1-1 .7 1.2 1.6 1.8 2.1 1.6 1.3-.9 13.8 5.1 14.5 6.9.3.9.6 5.9.7 11.3.1 5.3.4 9 .6 8.2s.8-2.4 1.3-3.5 1.9-5.2 3.1-9c2.6-8.1 3.7-7.7 1.4.5-.9 3-2 8.9-2.6 13s-1.5 8-2 8.5c-1.1 1.5 0 2.9 3.8 4.9 4.3 2.2 4.6 2.1 3.9-1.4-1.1-5.7-1.9-23.7-1-24.3.5-.3.9 1.1 1 3.1.1 6.7 1.6 19.7 2.5 22 .8 2 1.2 2.1 3.1 1.1 4.7-2.5 5-6.3.9-12.2-2.6-3.9-4.8-8.7-3.8-8.7.2 0 1.4 2 2.7 4.5 2.5 4.8 3.6 5.6 4.2 2.7.3-.9.5.2.6 2.5 0 2.3.6 5.1 1.1 6.2 1.5 2.7 1.5 2.9-1.9 4.6-1.6.8-3.7 2.4-4.7 3.4-1.8 1.9-1.9 1.9-6.8-.4-2.8-1.3-5.8-2.4-6.7-2.4-1.8-.1-22 9.5-26.1 12.4-1.2.8-3.7 1.5-5.7 1.4l-3.5-.1 2.7-1c3.2-1.1 2.8-1.7-3.7-6.1-2.2-1.5-6.1-4.8-8.7-7.3-2.9-2.8-5.3-4.4-6.2-4.1-1 .4-1.3.1-1-.8.6-1.5-7-5.4-15.8-8.1-2.6-.8-5-1.9-5.3-2.5-1.4-2.1-8.8-6.1-10.6-5.6-1.1.3-1.7.2-1.4-.2.2-.4-.9-3.6-2.5-7-3.7-7.7-3.8-8.5-.5-3.7 1.4 2 2.5 4.3 2.5 5.1s.7 1.5 1.5 1.5c1.9 0 19.2-16.6 21.1-20.2.8-1.5 1.5-2.9 1.6-3 .1-.2-.4-1.4-1.1-2.8l-1.2-2.5 2 2.5c1.1 1.4 2.1 2.3 2.2 2 0-.3.3-3 .6-6 .2-3 .8-5.8 1.2-6.2.3-.4.5 1 .3 3.1-.8 8.2-.1 8 9.3-3 12.1-14.1 17.2-20.2 22.9-27.7l4.7-6.2-2.7-1.1c-1.6-.5-8-1.7-14.3-2.5s-11.9-1.6-12.5-1.7c-1.1-.2-1.9 2.7-4 15.8l-1.4 9 .1-6.5c0-3.6.5-8.2 1-10.3 1.4-5.4.1-5.8-4.1-1-16.2 18.3-16.3 18.4-15.1 19.9.6.8.9 1.7.5 2.1-.3.3-.6.2-.6-.4 0-2.1-3.2-2.2-7.2-.2-2.2 1.1-4.2 1.9-4.3 1.7-.2-.2 1.6-1.4 4.1-2.7 2.4-1.3 4.4-2.9 4.4-3.5 0-1.7-7.9-15.8-10.1-18.2-1.3-1.4-3.9-2.4-7.2-2.8-5.4-.8-10.6-2-33.7-8.1-16.1-4.2-18-4.3-18.1-1.3l-.2 2.3-.4-2.3c-.2-1.2-.9-2.2-1.5-2.2s-6.5 1.4-13 3.1c-6.6 1.7-12.1 2.9-12.4 2.6-.3-.2 4.4-1.7 10.3-3.2 5.9-1.6 11.6-3.2 12.6-3.8 1.8-.8 1.8-1-.4-3.3-1.3-1.4-5.4-4.5-9.1-7-3.8-2.4-10.6-7.3-15.2-10.9-4.6-3.5-8.7-6.1-9-5.8-.6.6-3.1-1.6-3.7-3.4-.2-.6-6.2-5.7-13.3-11.3-17.4-13.6-22.3-18-20.2-18 .9 0 1.6.4 1.6.9s2.6 2.8 5.7 5.2c3.2 2.4 10.4 8.1 16.1 12.6 5.8 4.6 11.3 8.3 12.3 8.3s5.6-2.6 10.1-5.8c4.6-3.2 11-7.8 14.3-10.1s6-4.8 6-5.4c0-1.1-25.8-17.4-27.7-17.6-.5-.1-.8 2.7-.8 6.1 0 14.4-1.3 32-2.3 30.3-.5-.9-.6-4-.3-6.8.3-2.9.7-10.9.8-17.8.1-9.9-.2-13-1.3-14.1-1.6-1.5-5.8-3.6-26.7-12.8-7.8-3.5-14.1-6.5-13.9-6.7.4-.4 5.2 1.5 13.7 5.4 6.1 2.8 28.3 12.3 28.7 12.3.2 0 .3-2.1.4-4.8.1-2.6.5-7.2.9-10.2.6-4.1.7-3.1.3 4.2-.3 5.4-.2 9.8.2 9.8s7.3-4 15.5-8.9c8.1-4.9 16.6-9.9 18.7-11 7.3-3.7 7.4-3.1-1.8-25.6-1.6-3.9-5.4-13.5-8.5-21.5-3-8-7.6-19.5-10-25.7-2.4-6.1-4.4-11.6-4.4-12.2 0-.9-1.9-1.7-2-.9-.1.2-.3 4.8-.6 10.3-.2 5.5-1.2 17.6-2 27-.9 9.3-2.2 24-2.9 32.5l-1.4 15.5.5-12.5c.3-6.9 1.1-19 1.9-27s1.7-19.5 2-25.5c.3-6.1.8-13.9 1-17.5.3-3.6.1-7.1-.4-7.9s-7.8-2.6-18.7-4.7c-21.3-3.9-31.6-6.2-28.9-6.3 1.9-.1 4.9.4 29.4 4.9 18.3 3.3 17.8 5 6.1-19.5-17.1-35.4-26.7-54-27.9-53.7-1.3.2-1.3 0-.5-2.2.3-.9 1.2-1.6 2-1.6.7 0 2.8-.7 4.6-1.5s6.2-2.5 9.8-3.9c3.6-1.3 12.6-4.8 20-7.6 7.4-2.9 14.7-5.7 16.2-6.2 1.5-.6 3.7-1.9 4.9-2.9s3.3-1.9 4.6-1.9 7.8-1.5 14.6-3.4c6.7-1.9 16.6-4.4 22-5.7 5.3-1.3 9.7-2.7 9.7-3.1s1-.8 2.1-.8c1.2 0 5.3-1.1 9.2-2.5 3.8-1.4 7.2-2.4 7.4-2.1.2.2-2.5 1.4-6.2 2.6-3.6 1.2-6.5 2.6-6.3 3.1s12.5 6.9 27.4 14.3c15 7.4 29 14.6 31.3 16.1 2.3 1.4 5.8 3.5 7.8 4.6l3.6 2-.6-2c-.7-2.7-.3-2.6 2.5.2 1.9 1.9 4.5 2.6 14.8 4.1 6.9.9 14.8 2.1 17.5 2.6 2.8.5 7.7 1.2 11 1.5l6 .6-3.1-2.8c-1.7-1.5-7.7-6.9-13.4-11.8-5.7-5-10.8-9.5-11.4-10-.6-.6-4-3.5-7.6-6.4-10.6-8.7-22.3-19.3-25.5-23.1-1.6-1.9.8 0 5.5 4.3s18.6 16.3 31 26.7M676.7 305.7c.3.7-.3.9-1.6.6-3-.8-5.7.5-4.3 1.9.7.7.8 1.6.3 2.2s-1.1 2-1.4 3.1c-.3 1.5-.5 1.3-.6-.8-.1-2.5-.3-2.7-2.3-1.6-1.3.7-2.8 1.7-3.4 2.3s-4.4 4-8.5 7.6c-11 9.7-18.9 17.8-18.9 19.5 0 .9-.6 1.2-1.5.9-1.3-.5-1.3-.8 0-2.7 2.4-3.4 1.8-4.4-3-5.6-2.5-.6-4.5-1.6-4.5-2.1 0-.6.5-1 1-1 .6 0 1 .3 1 .7 0 .5 1.5.9 3.3 1 3.1.1 3.4-.1 3.2-2.5-.1-1.5-.4-3.2-.6-3.9-.5-1.5 6-8.4 9.8-10.3 1.5-.8 3-1.8 3.3-2.2 1.3-1.7 11-5.7 15-6.2 5.8-.7 9.1-1.4 9.8-2.1.9-.9 3.5-.1 3.9 1.2m-6.2 67c-2.8 6.7-2.9 7.4-1.9 9.1 1.3 2.1 5.6 4.4 6.4 3.4.9-1.2 5-1.4 5-.2 0 .6-.4.9-.9.6s-2.6 1.6-4.7 4.2c-4.2 5.1-8.4 8.8-9.6 8.5-.4-.2-3.2.8-6.1 2.1-6.1 2.6-9.9 7-12.6 14.2-1.7 4.5-2.1 4.8-10.4 8.3-4.8 2-8.9 4-9.3 4.4s-1.5.7-2.5.7c-2.5 0-13.9 5.9-13.9 7.1 0 .5-1.2 2.2-2.6 3.7l-2.6 2.7 1.8-3.2c1.8-3.2 1.8-3.3-.4-5.6-2.7-2.9-2.9-4.4-.2-1.7 2 2 5.6 2.8 4.5 1-.4-.6-.3-.9.2-.8.4.2 3.2-.7 6.1-2 5.6-2.4 6.7-4.8 3.8-8.7-1.1-1.6-1.7-1.7-2.9-.7-1.3 1.1-1.3.8 0-2.9.7-2.3 1.2-4.8.9-5.6s.4-1.7 1.7-2.3c1.2-.5 3.4-1.9 4.9-3.3 2.1-1.8 3.7-2.3 6.5-2.1 2.1.1 4.7-.4 5.9-1.1 1.1-.7 3.1-1.5 4.4-1.7 2.5-.3 4.9-3.2 3.7-4.4-.7-.7-7.7 2.6-7.7 3.7 0 .3-1.1 1.1-2.5 1.7-5 2.3 0-3.1 6.4-6.8 1-.6 1.1-1.2.2-2.9-1.6-2.9-.8-3.7 3.3-3.9 4.5-.2 5.1.9 2.5 4.2-1.2 1.5-1.7 3.1-1.2 3.8.4.7.8 1.7.8 2.3 0 1.6 7.3 1.8 10.5.3 3.6-1.5 3.7-2.1.9-4.9-1.6-1.6-1.9-2.8-1.4-4.7 1.7-6.8 1.7-9.3 0-11.8-.9-1.4-1.4-2.8-1.2-3.1.3-.3 1.2.8 2.1 2.4 2.7 5.4 4.1 5.8 7 2 3.2-4.2 3.3-5.7.4-5.8-1.9-.1-1.7-.3.7-.9 4.6-1.2 4.8-1.1 4 .7m370.1 83.2c-.8 2.1-2.5 6.3-3.9 9.3-2.6 5.6-6.5 17.7-12.2 37.8-3.3 11.3-8 24.7-7.1 20.2.4-2.4-.8-3-2.1-1-1.2 1.9-1.2 9.8-.1 9.8q1.05 0 0 1.2c-.6.7-1.3 3.1-1.7 5.3-1 5.2-3.5 11.5-4.6 11.5-.5 0-.6-.8-.3-1.8.2-.9-.1-.7-.7.6-.7 1.2-1.7 2.1-2.3 2-1.4-.4-15.9 6.2-16.8 7.6-.4.6-1.4.6-3-.1l-2.3-1.2h2.3c1.9-.1 2.2-.5 1.7-2.4-.6-2-.6-2 .6-.5 1.3 1.7 1.9 1.5 8.7-1.7 7.4-3.6 8.1-4.2 6-6.3-1.5-1.5-.3-1.6 2.2-.2 1.6.9 1.9.5 2.5-3 .4-2.2 1.1-4.2 1.5-4.5 1.1-.7 4.2-11.3 3.8-12.7-.2-.5-2.3.6-4.6 2.5s-4.7 3.7-5.3 3.9c-.7.2-.1 1.9 1.5 4.2 2.9 4.4 3.6 7.7 1.1 5.6-.8-.7-1.2-1.6-.9-2.1s.1-.9-.4-.9-1.4-1.2-2.1-2.6c-1-2.2-1.5-2.5-4.4-1.9-1.7.4-3.6 1-4.2 1.4-1 .6-1.6.8-3.6 1-.6 0-.9.7-.6 1.5s-.1 1.3-1 1.2c-1.3-.1-1.6 1-1.5 6.4l.1 6.5-1.2-6c-1.2-5.8-1.3-6-4.2-5.9-1.7 0-3.2-.3-3.6-.8-.7-1.1-10-2.8-9.3-1.7.3.5 1.7.9 3.2.9s3.4.5 4.2 1c1.1.8 0 .9-3.7.6-4.2-.4-5.5-.1-6.3 1.2-.5 1-1 1.2-1 .4 0-.6-.5-1.2-1.1-1.2-.8 0-.8.5.1 1.5.7.8 1.6 1.3 2 1 1.4-.9 2.3 1.5 1.1 2.9-.6.7-.8 1.6-.5 1.9.9.9 6.1-2 7.2-3.9.5-.9 1.5-1.4 2.1-1 .7.5-.7 2.1-3.8 4.4-2.7 2-4.8 3.9-4.5 4.3.2.3 3.2 1.2 6.6 1.9 3.5.7 7 1.7 7.8 2.2 1.1.7.8.8-1 .4-1.4-.3-6.5-1.3-11.5-2.2-4.9-.9-11.2-2.1-14-2.6-8.9-1.8-9.9-1.6-10.6 1.7l-.7 3-.1-3.3c0-1.7-.3-3.2-.6-3.2-1 0-11.2 6.3-13.2 8.3-1.3 1.1-2.5 1.8-2.8 1.6-.6-.7 13.2-10.9 14.7-10.9 2.4-.1-3.6-4.2-12.7-8.7-4.9-2.5-9.8-5.2-10.8-6.1-1.6-1.4-1.9-1.4-2.7-.2s-1 1-1-.8c0-1.3-.4-2-1-1.7-.5.3-1-.3-1-1.4 0-1-.3-2.7-.6-3.6-.4-1.1.4-.7 2.2 1 2.7 2.5 3.2 2.6 10.9 2.1 4.4-.3 6.9-.2 5.5 0-7.8 1.7.5 3 35 5.5 8.5.6 16.1 1.2 16.9 1.4 1.6.2 8.1-6.3 8.1-8.1 0-.6.8-1.8 1.7-2.5 1.4-1.2 1.6-1.2.8 0-.4.8-.9 2.5-1.1 3.8-.3 3.1 1.9 3 4.5-.3 1.9-2.4 2.2-2.5 4.2-1.1 1.2.9 2.8 1.3 3.5 1 1.5-.5.9-2.3-.7-2.3-.6 0-.7.4-.4 1 .4.6-.1.7-1.1.3-1.5-.5-1.5-.7 0-1.5.9-.5 2-.6 2.6-.3 1.4.8 9.5-5.6 11.4-9l1.7-3-.5 3-.5 3 1.4-3c.7-1.7 1.1-4.5.9-6.4-.4-2.5-.2-3.1.7-2.6.7.5 1 .4.5-.3-.3-.6-.3-3.6.2-6.7.9-5.2.8-5.5-.8-4-1 .9-2 2.9-2.3 4.4-.6 2.9-2.7 5.6-4.9 6.3-.7.3-1.1 2.8-1.1 7.1.1 7.5-1.3 9-2.2 2.4-.6-4.6-.4-6.5.9-8.5.4-.8.5-5 .2-9.5-.5-6-.2-9.6.9-13.2l1.5-5-.6 8.2c-.5 8.1 0 9.5 2.4 7.1.9-.9 1.2-.9 1.2.2 0 2.5 7.8-6.6 8.5-9.9.4-1.7 1.1-3.1 1.5-3.1.9 0 3.9-6 6.5-13 1.9-5.1 8.5-19 9-19 .2 0-.2 1.7-.9 3.9M317 468.5c-1.6 2-3.1 10.3-3.6 20.5l-.5 9.5 3.8-5.9c4-6.2 6-6.1 2.2.1-5.7 9.7-9.1 14.2-10.9 14.8-1.1.4-2.1 1.3-2.1 2.1-.1.8-.2 1.7-.4 2.1-1.4 5.2-1.8 6.2-2.6 5.7-.5-.3-.9-.2-.9.2 0 1.4 6 6.4 8.5 7 1.4.3 2.5 1 2.5 1.5s-1.3.3-3-.6c-1.6-.8-4.2-2-5.6-2.5-2.5-1-2.5-.9-1.9 2.1.5 2.2.4 2.9-.4 2.5-.6-.4-1.1-2-1.1-3.5s-.5-3.2-1.1-3.8c-1.6-1.6-3.7-10.8-3.2-13.7.8-4.1-.5-7.6-2.7-7.6-1.8 0-1.9-.2-.8-2 .9-1.4 1-2.3.3-2.8-1.1-.8-5-12.7-5.9-18.2l-.6-3.5 1.4 3c2 4.5 3.6 9.8 3.6 12.6 0 1.9.2 2.1 1 .9.8-1.1.9-.7.4 1.5-.7 2.7-.5 2.8.8 1.7 2-1.6 2.5-.8 2.6 4.1.1 2 .6 4.6 1.2 5.8.6 1.1.9 3.5.5 5.2-.5 2.4-.4 2.8.4 1.7.8-1.2 1.1-.8 1.1 1.8 0 2.1.6 3.5 1.6 3.9 1.7.6 3.9-1.7 2.5-2.7-.4-.3-.5-2.8-.1-5.5.4-2.8.8-4.5.9-3.9 0 .5.7 1.9 1.5 2.9 2.4 3.3 4.6-2.9 5-14.3.2-5.3.9-12.2 1.5-15.2s1.3-6.4 1.5-7.5c.3-1.1.5-2.1.5-2.2.1-.1.8 0 1.6.3 1.1.5 1.3 1 .5 1.9m90.2 52.8c3.8 3.6 4.2 5.7 1.2 5.7-.8 0-5.4 2.2-10.3 5-4.9 2.7-9.2 5-9.5 5s-3.2 1.4-6.3 3.2c-6.2 3.5-6.3 3 1.1 8.3 1.5 1.1 5.8 4.2 9.4 7 3.7 2.7 7.3 5 8.1 5s1.6.6 1.9 1.2c.7 2.2-2.6 1.4-5.5-1.3-3.6-3.4-20.4-15.4-21.5-15.4-.4 0-.8.6-.8 1.2 0 .9-.3.8-1-.2-.8-1.3-1.7-1.3-7.7.3-3.7.9-7.6 1.7-8.5 1.7-1 0-1.8.7-1.8 1.6 0 1.3-.3 1.4-1.4.5-1-.8-3.1-.8-8.2.3-8.2 1.6-18.1 2.9-17.4 2.2.3-.2 4.3-1.2 9-2.2 4.7-.9 9.6-2.1 11-2.6l2.5-1-3-1.5c-1.6-.9-3.2-1.9-3.5-2.3-.9-1.4-12.9-7-13.3-6.2-.2.4-1.2 3.1-2.1 5.9-1 2.9-2 5.3-2.3 5.3s-.3-3.1 0-6.9l.6-6.9-3.7-.8c-2-.4-4.3-.6-5-.5-.8.1-2-.3-2.8-1-1.2-1-1.9-.8-3.9 1.1-1.3 1.2-2.1 2.8-1.9 3.4.3.7-.2 1.9-1.1 2.6-.8.7-1.5 1.7-1.5 2.3 0 1.1 3.6-2.8 4.3-4.6.2-.7.7-1 1-.7.4.3 0 1.9-.8 3.4-.8 1.6-1.5 3.4-1.5 4 0 1.5 10.4 7.5 14.2 8.3 1.5.3 2.8.9 2.8 1.4 0 1.9-3.8.7-10-3.1-7.1-4.4-9.7-5.1-8.5-2.3 1 2.5 5.2 13.6 7.5 20.3 1.1 3 2.4 6.4 2.9 7.5s1.5 3.5 2.3 5.2c.7 1.8 1.7 3.3 2.1 3.3.5 0 .7.6.5 1.2-.3.7 2.2 5.4 5.4 10.5s5.8 9.7 5.8 10.1c0 .5.7 1.5 1.5 2.2 1.3 1 1.5.9 1.6-.9.1-1.1.2-2.4.3-2.9.1-.4.6-3.1 1-5.9.4-2.9 1.2-5.6 1.7-5.9.9-.5.6 2.5-1.1 12.3-.4 2.4-.6 4.3-.4 4.3s3.6-2.3 7.6-5.1 10.3-7.1 14-9.7c3.8-2.6 6.8-4.9 6.8-5.2s-5.6-.6-12.5-.8c-10.8-.3-12.5-.1-12.5 1.2 0 .9-.4 1.6-1 1.6-.5 0-1-.9-1-2 0-1.6-.7-2-3.7-2.1l-3.8-.2 4-.6c2.2-.3 6-.3 8.5.1 6.6 1 25.2 1 24.6-.1-.3-.5 1-.7 3-.4 2.4.3 5.6-.4 10.2-2.3 3.7-1.5 11.7-4.6 17.7-6.9 6.1-2.3 14.1-5.4 17.8-6.9 3.8-1.4 6.6-2.3 6.3-1.8-.5.8-19.3 8.5-40.6 16.5-6.3 2.4-11.4 4.8-11.4 5.3.1.5.4 4.5.7 8.9l.5 8-1.3-7c-.7-3.9-1.1-7.3-.9-7.7 1-1.6-1.5-1.5-4.2.2-17.8 11.6-28.2 18.8-27.8 19.3.3.2-.2.7-1 1-1 .4-3.5-2.7-8.5-10.9-3.9-6.3-7.1-11.9-7.1-12.3 0-.5-.7-1.4-1.5-2.1-2.4-2-1.9 4.2 1.5 17.6 2.8 11 3.7 16.4 2.5 15.3-.6-.7-7.2-30.9-7.3-33.7 0-1.5.3-2 1.1-1.5.9.5.9.3 0-.8-1.4-1.7-4.2-9.1-4.8-12.4-1-5.2-3.1-9.5-4.7-9.5-1.3 0-1.8-1.3-2.3-5.8-.4-3.1-1.4-6.8-2.2-8.1s-1.5-3.8-1.6-5.7c-.1-1.8-.5-3-1.1-2.7-.5.3-.6.1-.2-.6.4-.6.3-1.7-.2-2.4s-1.4-2.6-1.9-4.3c-.9-2.4-.8-3.1.2-3.1.8 0 1.3 1.2 1.3 2.9-.2 5.5 1.9 5.7 6.2.8 2.2-2.5 4-4.8 4-5.3 0-1.4 2-.7 2 .9 0 .9.5 1.2 1.2.8.7-.5.9-.2.6.7-.4 1.1.3 1.4 3.3 1.1s3.9-.8 3.9-2.3c0-2.5 2.1-2.4 4.9.2 2.2 2 2.8 2.1 25.4 1.4 15.2-.5 24.6-1.2 27.2-2.1 2.2-.8 5.9-1.4 8.3-1.4 6.4 0 5-2-1.5-2.1-3.2-.1-8.7-.5-12.3-.9-4.7-.6-2.7-.7 7-.4 7.4.3 15.9.7 18.9 1.1l5.5.6-4.7-6c-2.6-3.2-4.7-6.3-4.7-6.9 0-.5 1 .4 2.2 2.1 1.2 1.6 3.9 4.7 6 6.8m598.8 39.4c-3.7 10.1-5.2 13.4-5.7 12.9-.2-.2.1-1.5.6-3 .6-1.4.7-2.6.3-2.6s-1.3 1.9-2 4.2c-.7 2.4-2.8 6.8-4.7 9.8s-3.5 6.2-3.5 7.2c0 .9-1 2.7-2.2 3.8-2.5 2.3-10 13.7-12.3 18.7-1.4 3.1-3.5 4.5-3.5 2.4 0-1.1-11.8-10.7-18-14.6-2.5-1.6-5.5-3.8-6.8-4.9-1.8-1.6-2.5-1.8-3.1-.7-.6.9-1 .7-1.4-.8-.3-1.1-1.8-2.6-3.4-3.2-2.6-1-2.6-1.2-.8-1.9 1.2-.4 2.3-.3 2.7.4.5.7 1.3.4 2.3-.9.9-1.1 1.4-1.5 1.1-.8-.4.6-.1 1.5.5 1.9 1.2.7 19.4.7 29.7-.1 5.6-.3 5.6-.3 1.5.6-3.1.7-4.1 1.4-3.8 2.7.1.9.6 5.2 1 9.4.4 4.3 1.1 7.8 1.6 7.8s.9-.4.9-.8 1.9-3.6 4.3-7.1c7.2-10.9 7.7-11.6 7.7-12.4 0-.4-1.7-.7-3.7-.8l-3.8-.1 3.8-1c4.2-1.1 7.7-5.7 13.3-17.1 1.5-3.1 3.1-5.4 3.6-5.1.4.3.8-.2.8-1 0-.9.4-1.6.8-1.6s1.6-2.5 2.7-5.5c1-3 2-5.3 2.3-5 .3.2-1 4.4-2.8 9.2m198.2 114.8c1.1 1.4 2.3 2.3 2.8 2 .8-.5 2.4 3.1 3.4 7.5.5 2.1.4 2.1-.9-.5-.8-1.7-1.4-3.6-1.5-4.4 0-.8-.3-1.1-.6-.8-.8.8 1.5 9.8 2.8 11.2.6.6.8.5.6-.5-.2-.9.4-1.4 1.4-1.4 1 .1 1.5-.2 1.2-.7s.5-4 1.7-7.9c1.8-5.4 2.7-7 4.2-7 1.4 0 1.7.5 1.2 1.7-3.8 9.7-6.6 18.1-6.8 20.9-.1 2.4-.6 3.3-1.5 2.9-.8-.3-1.9-.5-2.6-.5-1.1 0-9.6-21.1-9.6-23.9 0-1.9 2.1-1.2 4.2 1.4m21 4c-.5 2.6.6 3.3 2.5 1.4 1.4-1.4 6.7-.3 8.4 1.7.6.8 1.6 1.4 2.2 1.4s1.8.7 2.8 1.6c1.6 1.4 1.8 1.4 2.9-.5 1.5-2.9 6.7-5.4 9.6-4.7 5.1 1.3 11.4 6 12.5 9.4.6 1.8.9 3.5.6 3.8-.2.3-.8-.8-1.2-2.3-.8-3.2-2.3-5.3-3.8-5.3-.5 0-.2.9.8 2s1.5 2.3 1.2 2.7c-.4.3-.7.1-.7-.5 0-.7-.4-1.2-1-1.2-.5 0-1 .9-1 1.9 0 2.9-4.6 7.9-6 6.5-.7-.7-.5-1.6 1-2.9 2.7-2.4 2.7-7.5.1-7.5-2.2 0-5.1 3.5-5.1 6 .1 2.1 4.6 7 6.5 7 .9 0 2.7-1.1 4-2.5 3.1-3 3.3-2 .3 1.2-2.4 2.5-4.8 2.9-8.1 1.1-2.1-1-2.1-1-.7.7s1.4 1.7-.7.7c-1.2-.7-2.9-2.2-3.7-3.4-.9-1.2-1.6-1.9-1.6-1.4 0 .4-1.1-.1-2.5-1.2-1.5-1.2-3.4-1.8-5-1.4-1.4.2-2.4.7-2.1.9.3.3-.5 1.4-1.7 2.3-3.2 2.7-1.2 3.7 2.8 1.5 4.3-2.3 5.7-1.2 2.5 1.8l-2.4 2.2 1.8-2.3c2.2-2.6 1.5-2.8-1.9-.6-1.6 1-3.4 1.4-5.1 1-1.8-.5-2.4-.3-1.8.5.9 1.5-.7.6-5.4-2.9-2.2-1.7-3.1-3-2.7-4.1.3-.8.3-1.2-.1-.9-.9 1-2.9-1.3-3.7-4-.3-1.3-.3-2.1 0-1.8.6.6 4.3-6.2 4.3-8 0-.7-.6-1.5-1.2-1.7-.7-.3-.3-.6.8-.6 1.7-.1 2 .4 1.6 2.4"/><path d="M468.6 84.7c-1.9.5-15.8 6.7-51.3 22.9-9.5 4.4-17.3 8.3-17.3 8.8s9.5.6 22.8.2c25.6-.8 22.9.1 30.6-10 2-2.6 6.4-8.3 9.8-12.5 7.4-9.1 8.2-10.1 7.7-10-.2.1-1.3.4-2.3.6M479.4 85.4c1 .8 1.5 1.9 1.2 2.4-.7 1.1 6 14.3 6.8 13.4.3-.3.6.3.6 1.4s.6 2.8 1.4 3.9c.7 1.1 3.9 7.1 7.1 13.3 6.7 13 9.8 15.7 9.8 8.6 0-1.6.2-2.1.7-1.4.8 1.3 8-9.9 8-12.3 0-.7.9-2.6 2-4.2 1.1-1.7 2-3.7 2-4.6 0-.8.9-2.5 2-3.6 1.5-1.7 1.7-2.3.6-3.2-2-1.7-19.9-8.1-33.5-12.1-4-1.2-8.1-2.4-9-2.7-1.3-.4-1.2-.1.3 1.1M474.4 87.7c0 1-1 2.9-2.2 4.1-2.3 2.3-2.4 2.3-1.7.3.5-1.6.3-2-.9-1.5-.9.3-1.6 1-1.6 1.5s-1 1.9-2.1 3c-1.2 1.2-2.2 3.1-2.3 4.3s-.8 2.1-1.6 2.1-1.7 1.1-2.1 2.5-.7 2.1-.8 1.6c-.2-1.3-3.1 1.5-3.1 2.9 0 .7 1 1.3 2.3 1.3 1.2 0 3.1.2 4.2.4 1.3.2 2-.3 2-1.2 0-.8.8-2.3 1.8-3.3 1.9-1.9 2.3-5.7.6-5.7-.6 0-.9-1-.7-2.3.4-2.7 3.1-2.9 3.7-.2.2 1.1.8 2.3 1.4 2.7.5.3 1 2.1.9 4-.1 2.6.1 2.9.9 1.6.7-1.3 1.8-1.6 4.2-1.2s2.8.3 1.7-.5c-1.3-1-1.3-1.1 0-1.1s1.3-.1 0-1c-1.3-.8-1.3-1 .2-1 .9 0 1.9-.4 2.3-1 .9-1.4-3.5-10.1-4.8-9.3-.6.4-.8 0-.4-1 .3-.8 0-2-.7-2.6-1-.9-1.3-.7-1.2.6M523.7 103.8c-4.5 7.1-11.8 22.6-11.2 23.9.2.8.1 1.1-.5.8-.5-.3-1.4.4-2.1 1.6-.9 1.7-.8 2.3.2 3 1.8 1.1 5.6 1.1 6.3.1.3-.5-.9-.7-2.7-.4-2.4.2-2.8.1-1.7-.7.8-.6 4.9-1 9-1s12.5-.9 18.5-2c6.1-1.1 16.2-3 22.5-4.1 6.3-1.2 11.6-2.2 11.7-2.4.3-.3-8.9-4.9-20.2-10.1-4.4-2.1-11.4-5.3-15.5-7.2-12.5-5.8-11.7-5.7-14.3-1.5M380 119.7c-7.7.5-45.6 5.2-47.6 6-1.4.5-1.5 2.1-1 12.2.3 6.4.9 17.2 1.1 24.1.6 13.4 2.4 37.3 3 37.8.3.3 9-12 17.5-24.8 2.4-3.6 6.4-9.7 9-13.5 2.6-3.9 5.4-8.4 6.4-10 2-3.6 3.1-5.4 7.7-12.5 3.7-5.7 7.4-11.6 10.2-16.1 1.4-2.4 1.3-4.2-.2-3.7-.3.1-3.1.3-6.1.5M572.5 125.6c-1.1.3-5.8 1.2-10.5 2.1-6.6 1.2-9 2.1-10.6 4.1-2.1 2.4-4.4 2.3-4.4-.2 0-1.1-1.1-1.1-5.7.1-3.2.8-7.2 1.7-8.9 2-2.6.4-3.1.8-2.6 2.6.3 1.2 1.1 2.6 1.9 3 1.4.8 3.6 5.2 3.7 7.2.1.5 1 1.9 2 2.9 1.5 1.5 1.6 2.1.7 2.4-1.8.6-6.4-4.5-5.7-6.3.3-.8.2-1.4-.2-1.4-2.4.4-3.2-.4-3.2-3.4 0-5.2-1-5.1-4 .6-2 4-2.8 7.2-3.3 13.7-.6 9.2-.4 10.1 2.9 11.8 2.2 1.2 4 5.2 2.3 5.2-1.6 0-1 2.9 1.1 5 1.1 1.1 2.1 3.2 2.1 4.7.1 1.6.3 2.1.6 1.2.5-1.9 4-3.2 4.8-1.8.9 1.3-3.4 5.1-4.8 4.2-.7-.4-.7 0 .2 1 .7.9 1 1.7.7 1.7-.4 0 .1 1.2 1.2 2.7 1 1.6 2.4 4.3 3.1 6 .8 1.8 1.7 3.3 2 3.3.9 0 4.3-7.1 3.7-7.7-.2-.3.5-1.4 1.5-2.4 1.3-1.3 1.8-2.8 1.5-4.2-.3-1.2-.3-1.6 0-.9.7 1.5 7.3-9 8.1-13 .3-1.5.9-2.5 1.4-2.2s.9-.2.9-1 .7-2.2 1.6-3c.9-1 1.1-1.6.4-1.6-.6 0-1-.6-.8-1.2.3-.7-.4-2-1.5-2.9-1.6-1.3-1.8-2-1-4.5.7-2.2 1.8-3.1 4.6-3.8 2.1-.5 3.7-1.6 3.7-2.3 0-2.1 2.7-4.6 3.2-3.1.3.7 1.7-1.2 3.2-4.2s3.1-5.7 3.5-6 1.7-2.5 2.9-4.9c1.9-4.1 2.1-6.3.4-6-.4.1-1.6.3-2.7.5M579.3 127.1c-.6.8-3.4 6.1-6.3 11.9-9.6 19.5-14.3 28.5-15.5 30-.7.8-4.5 8-8.5 16-3.9 8-7.6 14.7-8.1 14.8-.5.2-.7.7-.4 1.1.2.4 3 .4 6.2-.1 11.1-1.6 51.8-7.9 60.3-9.3 4.7-.8 9.7-1.6 11.3-1.7 3.2-.3 3.5-2.3.9-5.2-1.1-1.2-9.6-14-19-28.6-21.6-33.4-19.5-30.5-20.9-28.9M371.9 150c-5.3 8-12.6 19-16.2 24.5-3.7 5.5-8.4 12.7-10.6 16s-5.1 7.5-6.5 9.4c-1.5 1.9-2.2 3.9-1.8 4.6.8 1.4 19.8 18.5 20.6 18.5.6 0 1.9-4.2 14.5-46 7.7-25.4 10.2-35.2 9.9-38.3-.3-3-1-2.1-9.9 11.3M525.5 204.7c-8.1.4-28.6 2.3-30.5 2.8-1.3.4-1.5 2.7-1.3 13.7.2 11.2 1.7 33.6 2.9 42.8.1 1.4.3 7.1.4 12.7.1 5.7.5 10.3.8 10.3.4 0 1.8-2.4 3.1-5.3 1.4-2.8 5.8-12 9.8-20.4 4-8.3 7.3-15.4 7.3-15.7 0-.2 2.2-5.1 4.9-10.8 12.3-26.1 14-31 10.4-30.6-1 .1-4.5.3-7.8.5M328.5 209.7c-13.3 10-21.5 17.6-20.3 18.8.5.6 47-2.3 47.6-2.9.7-.8-20.1-19.6-21.7-19.6-.3 0-2.9 1.7-5.6 3.7"/><path d="M532.5 217.7c-2.1 4.3-5.1 10.7-6.7 14.3-1.7 3.6-4 8.7-5.3 11.5-1.3 2.7-3.7 7.9-5.3 11.5s-5.3 11.4-8.2 17.5c-2.9 6-5.9 12.8-6.8 14.9l-1.5 3.9 3.4 2.9 3.4 2.8-3-1.2c-1.6-.7-3.3-1.7-3.7-2.3-.5-.6-.8-.6-.8.2 0 .7-1.1 2.4-2.5 3.9s-2.5 3.1-2.5 3.6c0 1.3-4.1 7-4.6 6.5-.3-.2 1.1-3.2 3.1-6.7 1.9-3.4 3.5-6.7 3.5-7.3 0-.7-6.3-.8-20.5-.4l-20.5.6-3 3.1c-3.2 3.2-3.8 3.3-1.8 0 .7-1 1-2.1.7-2.4-.7-.7-23.9-5.6-26.6-5.6-2.9 0-2.9.9-.1 5.7 1.2 2.1 2.7 4.9 3.4 6.4 2 3.8 6.1 7.2 9 7.5 1.5.2 3 .8 3.4 1.4.4.7 1.8-.3 3.4-2.5 3.3-4.2 4.4-4 2.2.4-2 3.8-2 6.1-.1 6.1.9 0 1.8.7 2.2 1.5.3.9 2 2.2 3.7 2.9 3.1 1.3 12.5 8.8 12.8 10.3.1.4 1.2 1.3 2.5 2 1.8.9 2.3.9 2.3-.1 0-.7-.3-1.6-.7-2-.4-.3-1.2-2.2-1.9-4.1-1.9-5.7.5-4 3.2 2.2l2.5 5.6 2.2-2.4c1.2-1.3 3.9-5 6.1-8.2 2.1-3.1 4-5.7 4.3-5.7.5 0-4.1 8-7.4 12.9-3 4.4-2.9 4.9 1 6l3.2 1-4-.2-4-.2-.3 9.2c-.1 5 .1 11.5.6 14.5.9 5.9 2.2 6.4 7.3 2.7 1.4-1 2.9-1.6 3.2-1.3s5.1-4 10.8-9.6c7-7 9.8-10.4 8.9-11-.6-.4-4.4-1-8.4-1.4-3.9-.4-8.7-1.1-10.6-1.6-3-.8-2.7-.9 2-.5 20.3 1.9 18.8 1.9 18.5-.7-.1-1.2 0-1.5.2-.5.8 3.1 2.7 2.9 9.4-.9 3.5-2 10.5-5.5 15.6-7.9l9.1-4.3.6-4.3c.3-2.4.5-6.9.4-9.9s-.8-25.4-1.5-49.8c-.8-24.3-1.2-44.6-.9-45 .2-.4.1-1.3-.3-2-.4-.8-2.2 1.7-4.6 6.5"/><path d="M489.6 214.1c-.4.9-.6 2-.5 2.5.4 2.2-.2 3.4-1.7 3.4-1 0-1.4.6-1 1.5.3.8.1 1.5-.4 1.5-.6 0-1 1.1-1 2.4 0 2.8-1.5 4.3-2.4 2.4-.3-.7-.4 0-.1 1.7.2 1.6.2 2.4-.2 1.7-.4-1-1.4-.4-3.6 2-4.4 4.7-4 7.8 2 20 2.9 5.7 6.6 13.7 8.2 17.8 1.7 4.1 4 8.6 5.1 10l2 2.5-.5-6c-1.8-20.9-3.5-45.8-3.6-52.4-.1-8.6-1.2-13.6-2.3-11M373 227l-12.5.5.3 15c.3 16.4 1.8 38.4 2.7 39.3.3.3 1.3-.5 2.3-1.7 4.1-5.5 10.2-12.4 20.7-23.6 12.9-13.7 19.7-22.3 18.8-23.9-.3-.6-.3-.8.2-.4.4.4 1.4.1 2.1-.7 1.5-1.5 1.9-2.9.6-2.1-.5.3-1.6-.4-2.5-1.5-1.8-2.1-4.9-2.2-32.7-.9"/><path d="M356.8 235c-4.4 9.4-9.9 23.9-17.4 46-2 5.8-4.3 11.8-5.1 13.4-2.2 4.2-3.3 8.5-2.4 9.1.5.2 2.6-.9 4.7-2.5s4.3-3 4.8-3 1.8-.7 2.8-1.7c1-.9 1.8-1.1 1.8-.5 0 .7-3.4 3.1-7.5 5.4-4.1 2.4-7.5 5-7.5 5.8 0 .9 2.2 2.4 5.3 3.7 2.8 1.2 9 3.8 13.7 5.7 8.9 3.8 11 4.3 11 2.5 0-.6.7-.3 1.6.5 2.5 2.5 23.4 1.6 23.4-1 0-.8.7-1.4 1.5-1.4 1.8 0 1.9-2.2.3-10.6-1.2-6.8-2-7.6-4-4.4-.7 1.1-1.9 2-2.7 2-1.1 0-.8-.6.7-2 3.9-3.7 3.5-4.2-8-10.3-3.5-1.9-7.3-4-8.5-4.8-1.9-1.1-2.7-1.1-4.3-.1-2.9 1.8-3.6 1.5-1.5-.8 1.7-1.9 1.7-3 .6-18.7-.7-9.3-1.3-21.1-1.4-26.3l-.2-9.5zM470.4 241.8c-1.1.2-3 .7-4.4 1.2s-7.2 2.3-13 4c-14.8 4.5-22 7.1-22 8.1 0 .5.6.8 1.3.6.6-.1 1.1.4.9 1.2-.2.9.3 1.1 1.4.7 1-.4 2.3.3 3.6 1.9 1.8 2.4 4.6 3.6 3.3 1.5-.3-.6-.2-1 .4-1 .5 0 1.2.8 1.5 1.8.5 1.6 6.8 5 20.6 11.1 2.5 1.1 8.3 4.1 13 6.6 4.7 2.6 9.9 5.4 11.5 6.3 1.7.9 3.8 1.7 4.7 1.9 1.5.2 1.6-.1.6-2.5-.7-1.5-1.7-3.4-2.4-4.2s-2.8-5.3-4.7-10c-2-4.7-6-13.2-9-19-4.3-8.3-5.8-10.4-7.3-10.2"/><path d="M394 253.5c0 .8-.6 1.5-1.2 1.5-1.5 0-25 24.1-24.3 24.8.2.3 1 .1 1.7-.5.7-.5 4.9-2.4 9.3-4.2 15.5-6.3 14.6-5.5 14.3-13-.2-4.6.1-6.5.9-6.4 1.7.3 2.4-2.4.7-3.1-.8-.3-1.4.1-1.4.9M268.6 269.7c-.4 2.1-1.3 5.8-2.1 8.3-.7 2.5-1.7 6-2 7.9-.6 3-.5 3.3 1.1 2.7 1.7-.6 1.7-.6.1 1.2-2.4 2.6-2.2 3 2.6 5.2 2.3 1 5.4 2.7 6.9 3.7 1.5.9 2.9 1.5 3.1 1.3.2-.3.1-5.1-.2-10.8l-.6-10.2-4 3.2-4 3.2 4.3-4.7c2.6-2.9 4-5.2 3.6-6-1.4-2.3-6.9-8.7-7.5-8.7-.4 0-1 1.7-1.3 3.7M387 274.4c-12.2 5.1-21 9.7-20.9 10.8 0 .7 4.1 3.2 9 5.6 7.2 3.5 9.3 4.1 10.5 3.2.7-.7 1.4-1.8 1.4-2.4 0-.7.8-3 1.9-5.2 1.8-3.9 4.5-13.4 3.9-14-.2-.1-2.8.8-5.8 2M393.6 279.7c-1 3.2-2.7 8-3.8 10.6-1.1 2.7-1.7 5.1-1.5 5.3.3.3 4.4-1.1 9.3-3 4.8-2 9.5-3.6 10.3-3.6.9-.1 2.7-.8 4.1-1.6s1.7-1.3.8-1c-1 .3-1.8.1-1.8-.4s-.6-.7-1.3-.4c-.8.3-2-1-3-3.1s-3-4.2-5.2-5.2c-1.9-.9-3.5-2-3.5-2.5 0-.4-.6-.8-1.3-.8s-2.1 2.6-3.1 5.7M279.6 287.7c.4 6 .8 10.9 1 11.1.1.2 1.3-.2 2.6-.8l2.3-1.2-2.2 2.3-2.2 2.2 8.7 5.8c4.8 3.2 9.8 6 11.2 6.1 1.4.2 2.8.7 3.2 1.3.4.5.9.7 1.2.5 1.3-1.4-11.7-30-13.7-30-.6 0-3.2-1.8-5.8-4s-5.2-4-5.8-4c-.7 0-.9 3.4-.5 10.7M297.6 291.2c1 3.4 7.3 16.1 8.8 17.8.8.8 1.7 2.5 2 3.7.4 1.3 1.2 2.3 1.7 2.3s.8.3.8.7c-.3 2 .3 3 1.9 3 .9 0 1.9-.3 2.2-.6.8-1 6.9-5.1 7.5-5.1.3 0-.6 1.6-2 3.5-2.4 3-2.7 6.4-.5 5 .4-.3 1.1.3 1.4 1.2.6 1.5.8 1.5 1.7.3.8-1.3 1-1.3 1.8 0 1.1 1.7 2.4.8 2.6-1.8.1-.9.5-3.2.9-4.9.9-3.9-2.3-10.5-5.8-12.1-1.2-.5-7.1-4.2-13.1-8.1-5.9-3.9-11.2-7.1-11.7-7.1s-.6 1-.2 2.2M401 293.7c-7.4 2.5-13.6 4.6-13.7 4.7-.4.4 2.7 11.6 3.7 13.6.9 1.8 1.1 1.8 5.2-.2 2.3-1.1 4.8-2.1 5.5-2.2 1.5-.3 9.3-9.3 9.3-10.8 0-.5.9-2.1 2-3.5 3.1-3.9 2.4-1.8-1.6 4.9-4.9 8.5-4.4 9.1 6.7 8.5 5-.3 9.2-.7 9.4-.9.5-.4-6.7-15.2-8.4-17.2-1.8-2.2-2.5-2-18.1 3.1M332 311c0 1.8 10.4 21.9 11.1 21.4.4-.2 1 .9 1.4 2.6.4 1.6 1.1 3 1.5 3 .5 0 .7.8.3 1.7-.3 1 2.6-2.3 6.5-7.2 5.2-6.7 6.7-9.3 5.9-10.1-1.1-1-5.5-3.1-20.9-9.8-3.2-1.4-5.8-2.1-5.8-1.6M358.2 327.2c-6.6 9.1-10.2 14.6-10.2 15.7 0 .7 2.4 1.1 5.8 1.2 3.1.1 4.8.3 3.7.6-4.2 1-3.8 2.3 1.6 4.8 6.6 3.1 7.5 3.1 8.3.2.5-1.7.8-1.9 1.5-.8.5.7 1.4 1 2 .7 1.4-.9 1.4-4.6 0-4.6-.7 0 .3-1.3 2.2-2.9 1.8-1.7 3-3.3 2.6-3.7s-.7-.2-.7.4-1.4 1.3-3.1 1.7-3.2 1.2-3.5 1.9-1 1.3-1.7 1.3-2.5.4-4.1.8c-2 .5-2.7.5-2.2-.3.3-.6 2.1-1.4 3.9-1.8 4.5-.9 14.5-9.1 16.8-13.7 1.1-2.1 2.7-4.1 3.5-4.4 3.5-1.3-1.4-2.3-11.8-2.3h-10.7zM524 331.2c-15 7.6-17.4 9.4-15 10.8.8.5 7.1 5.4 14 10.9 6.8 5.6 13 10.1 13.6 10.1.8 0 1.4-4 1.8-12.8.3-7 .8-15.7 1-19.5.2-4.5 0-6.7-.8-6.6-.6.1-7.2 3.3-14.6 7.1M505.7 342.7c-.4.3-.7 1.9-.7 3.5 0 2.5-3.4 20.2-7.5 38.8-.6 3-.9 5.6-.5 5.8.9.3 9.8-4.9 27-15.7 13.8-8.7 14-8.9 11.7-10.2-1-.6-6.4-4.7-12-9.2-15-12.1-17.3-13.8-18-13M288.8 383.9c-2.6.4-4.9.9-5.2 1.2-.5.5 1.8 3.9 8.8 13.7l2.4 3.2 1.1-3.2c.6-1.8 1.5-5.7 2.1-8.7 1.4-7.3 1-7.6-9.2-6.2M279.6 387.8c-.9 1.6-6.5 17.6-6.2 17.9.4.4 14.5-1.5 16.9-2.3 2.6-.8 2.2-1.8-3.4-9.2-5.4-7.1-6.4-7.9-7.3-6.4M419 393.8c-.8.3-1.8 1-2.2 1.6-.5.8-.8.7-.8-.1 0-1.5-5.8 1.7-8.5 4.7-1.6 1.8-1.6 2-.1 3.6 1.6 1.5 19.1 4.7 20.8 3.8.3-.2.2-2.1-.4-4.2-1.2-4.3-6.6-10.1-8.8-9.4M401 407.4c0 1.6 16.6 20.6 18 20.6.5 0 1.6-1 2.3-2.3 6.9-11.5 8.7-14.6 8.7-15 0-.5-.8-.6-17.5-3.1-12.3-1.9-11.5-1.9-11.5-.2M360 414.9c0 .8 2.2 8 4.9 16s5.2 15.9 5.6 17.6c.7 3.3 4 12 8.8 23.6l3.1 7.6 8.8-9.1c4.8-5 8.8-9.4 8.8-9.9 0-1-7.1-9.9-10.9-13.7-2.6-2.5-25.4-28.8-27.8-31.9-1-1.3-1.2-1.3-1.3-.2M297.1 422.1c-1.7 3.5-3.1 7.1-3.1 7.9 0 .9-.4 2-.9 2.5-.4.6-1.3 2.5-1.9 4.2l-1.1 3.3h5c3.2 0 4.8-.4 4.4-1s0-2.1.8-3.4c.8-1.2 1.6-3.6 1.8-5.2s.7-3.4 1.1-3.9c.8-1.3-.6-8.3-2-9.7-.7-.7-2.1 1.2-4.1 5.3M356 417.8c0 .7-.5 1-1 .7-.6-.3-1.3.2-1.7 1.2s-1.5 2.6-2.4 3.6c-1.9 2.1-3 9.5-1.4 10.1.5.2.4.5-.2.5-.7.1-1.3.6-1.3 1.2 0 .7-.7 1.7-1.5 2.3-2.9 2.1.4 4.4 7.4 5.2l6.3.7-.5-2.9c-.4-1.6-.9-7-1.3-11.9-.3-5-1-9.7-1.5-10.5-.6-1.1-.8-1.1-.9-.2M401.6 464.1c-.2.8-1.3 4.5-2.4 8.4-1.2 3.8-2.9 9.9-3.8 13.5-1 3.6-2.3 7.8-3 9.5-2.1 4.7-1.6.2.5-6.2 4.2-12.4 7.3-23.3 6.9-24.4-.2-.6-4.1 3-8.6 7.9l-8.2 9.1 1.6 3.8c4.2 9.8 6.4 14.3 7.2 14.3.5 0 6.4-2.5 13.3-5.6 6.8-3.1 13.9-6.2 15.7-7 1.7-.8 3.2-1.8 3.2-2.2 0-.9-7.7-9-15.7-16.6-4.1-3.8-6.4-5.4-6.7-4.5M380.8 486.6c-.5.4-.8 1.6-.8 2.6s-.4 1.8-1 1.8c-.5 0-1 1.3-1 2.9 0 1.7-.5 3.3-1.1 3.6-.6.4-.8 1.3-.5 2.1.6 1.6-1.2 5.4-3.2 6.7-1 .7-.8 5.2.4 6.6.3.4 6.6-4.2 11.5-8.5l3.6-3.1-3.6-7.7c-2-4.3-3.9-7.4-4.3-7M857 102.4c-22.2 5.8-28.3 7.5-29.4 8.6-.7.7.2 3 5.5 13.3 7.1 13.7 10.9 19.8 11.9 19.2.5-.3 1 0 1.2.7.5 1.4 4.5-5.1 16.8-27.2 5-9.1 9.9-17.1 10.8-17.8 2.2-1.7 1.9-1.6-16.8 3.2M881.1 102.1c.7 1.3 1.7 2.9 2.3 3.5 1.7 1.7 5 5.9 6.1 7.6 3.1 4.9 8.8 12.7 11.2 15.6l2.8 3.4 22 .5 22 .4-31.5-15.9c-17.3-8.8-32.6-16.3-33.8-16.7-2.2-.6-2.3-.5-1.1 1.6M873.2 103.7c-1.8 2.5-4.2 6.9-9.4 16.6-1.8 3.1-1.7 3.2.5 4.9 1.2.9 3.1 1.8 4.2 2 3.5.5 1.2 2.3-3 2.3-3.5 0-4-.3-3.9-2.3.1-2.9-.2-2.8-2 1-2 3.9-2 3.9.2 3.1 1.4-.5 1.5-.3.5.8-1.8 1.8-1.6 4.2.1 3.6 1-.4 1.3-.1.9.8-.3.8.2 1.8 1.1 2.1s1.3 1 1 1.5-.1.9.5.9c.5 0 1.3-.5 1.7-1.1.5-.8 1-.6 1.6.5.5.9 1.4 1.6 2.1 1.6s.6-.4-.3-1c-1.3-.9-1.3-1.1 0-2 .8-.5 2.1-.8 2.8-.5s1 0 .7-.5c-.3-.6.2-1.3 1.2-1.6s2.6-1 3.5-1.5c1-.5 3.3-.9 5.2-.9 1.8 0 3.9-.6 4.5-1.4.6-.7 2.4-1.6 3.9-1.9s3.5-1.2 4.5-1.9c1.6-1.2 1.4-1.7-2.3-7-9.9-14.3-15.1-20.8-16.7-20.8-.6 0-2 1.2-3.1 2.7M821.7 112.1c-.9.6-5.6 2.6-10.5 4.5-4.8 1.9-9.6 4.1-10.8 4.9-1.2.7-3.7 1.7-5.8 2-2 .4-3.6 1.2-3.6 1.8s-.3.8-.6.4c-.7-.6-17.1 5-19.2 6.7-1 .7 1.6 1.6 9.5 3.2 5.9 1.3 15.1 3.3 20.3 4.4 12.4 2.8 31.4 6.6 36.9 7.5 4.2.7 4.3.6 3.6-1.6-.6-2-3.1-7.3-6.5-13.8-.5-.9-2.7-5.4-5-10.1-5-10.2-5.9-11.2-8.3-9.9M769 135.4c0 1.8 12.6 25.3 14.1 26.1.5.4.9 1.3.9 2.1 0 2.6 4.2 11.4 5.1 10.8.5-.3.9.1.9.8 0 3 5.4 14.9 6.6 14.4.7-.3 1.8.2 2.4 1 .7.8 3 1.4 5.1 1.4 2.8 0 3.9.4 3.9 1.5 0 1 1 1.5 2.9 1.5 1.7 0 3.3.5 3.6 1 .4.6 1.1.7 1.7.4.7-.5.2-1.1-1.3-1.7-2.3-.9-2.3-.9-.4-1.7 1.1-.4 2.3-.6 2.8-.3.4.2.7-1.6.7-4.1 0-3.9-.3-4.6-2-4.6-1.1 0-2-.5-2-1.1s.9-.8 2-.4c1.4.5 2 .2 2-1 0-3 2.2-4.2 6.7-3.7 3.7.4 4.3.2 4.3-1.4 0-1.1.8-3.1 1.7-4.4 1-1.4 1.9-3.1 2-3.7.2-.7.5-2.1.7-3.1.3-.9.5-1.9.5-2.2.1-.3.6.2 1.1 1 .8 1.3 1 1.3 1-.2 0-.9-.5-2-1.1-2.4-.6-.3-.8-1.7-.4-3.1.4-1.9-.1-3.1-2-5-1.4-1.5-2.8-2.3-3.2-2-.3.4-1.2-.2-2-1.3-1.8-2.5-6.6-4-31.8-9.5-3.3-.7-7.1-1.6-8.5-1.9s-4.7-1-7.5-1.6c-2.7-.6-6.2-1.3-7.7-1.6-1.6-.4-2.8-.3-2.8 0M954 136.8c0 .6.3 1.2.8 1.4.4.1 6 10.9 12.5 23.8 16 32.1 26.3 52 27.5 53.2.7.7 1.2-1.1 1.6-5.3.3-3.5 1.1-11.4 1.7-17.4 1.4-14.4 3.7-48.8 3.3-49.6-.5-.8-3.1-1.3-20.5-3.9-18.4-2.7-26.9-3.4-26.9-2.2"/><path d="M1004 147.3c0 2.1.4 4.5 1 5.5 1.4 2.5 4.1 17 10.1 54.7.6 3.9.9 8.1.7 9.5-.1 1.4-1.6-5.8-3.1-16-1.6-10.2-4-24.1-5.3-31.1-1.3-6.9-2.4-13.5-2.4-14.7s-.4-2.2-.8-2.2c-.9 0-2.8 14-3.7 27.5-.3 4.4-1.2 14.7-1.9 23l-1.4 15 9.5 9.9c5.1 5.4 9.2 10.1 8.9 10.3-.2.3-4.5-3.7-9.5-8.7-6.2-6.3-9.4-8.9-10.3-8.3-3.2 2-16.8 17.2-16 17.7.9.5 6.3 1.1 30.8 3.2 8.7.8 8.9.5 6.9-10.2-.8-4.1-1.5-8.8-1.4-10.2 0-1.5.9 1.6 2 6.8 1 5.2 2.2 10.1 2.5 11 .4.8.8 1.9.8 2.5.1.5 4.4 1.5 9.6 2.1 5.2.7 10.3 1.5 11.2 1.9 1.1.4 2 .2 2.3-.7.8-2.1-2.2-19.2-3.9-22.7-.9-1.6-1.6-4.4-1.6-6.1s-.4-2.9-.9-2.6c-.4.3-1.1-2.4-1.5-6.1-.4-3.6-1-7.1-1.3-7.6-.8-1.4-5.8 12.8-9.4 26.7-1.5 6-3.3 11.4-3.9 12-1.3 1.3-1.3.9.1-3.4.6-1.9 1.9-6.9 2.9-11 1.1-4.1 3.2-11.3 4.8-16 5-14.3 5-15.9.5-23.6-5-8.7-5.3-9.2-8.9-14.4-4.3-6.3-4.6-7-3.5-7 .5 0 1.2.9 1.6 1.9.3 1.1 1.9 3.4 3.6 5.2 1.6 1.7 3.4 3.9 3.9 4.8 1.8 3.2 1-1-1-4.9-1.1-2.2-2-4.6-2-5.5 0-.8-.4-1.5-.8-1.5-.5 0-2.1-2.6-3.6-5.8-1.4-3.1-3.2-6.8-3.9-8.1-1.5-3.1-6.8-6.3-8.5-5.2-1 .6 0 2.8 4.2 9 3.1 4.5 5.6 8.5 5.6 8.8 0 1.1-3.2-2.7-7-8.2-1.9-2.8-3.7-5.2-4-5.5s-.7-1.4-.8-2.5c-.6-3.4-1.2-3-1.2.8M950.7 147.3c-1.2.8-1.9 2.7-2 5.4-.2 3.4-.6 4.3-2.4 4.8-2.4.6-3.2 4-1.2 4.7 1.4.5.1 7.8-1.3 7.5-2.1-.4-1.7 5 .5 6.4 1.1.8 3.4 2.7 5.1 4.2 1.7 1.6 4.3 3.1 5.8 3.4 2.4.5 2.8 1 2.8 4 0 1.9-.6 4.9-1.4 6.6-.7 1.8-1.8 4.4-2.4 5.9-.7 1.6-1.8 2.8-2.7 2.8-.8 0-1.5.4-1.5 1 0 .5-.7 1-1.5 1s-1.5.3-1.5.7c.1 1.6 2.9 4.5 4.7 4.7 1 .2 2 1.1 2.1 2.2.2 1 1.4 2.9 2.5 4 1.2 1.2 3 3.3 4.1 4.8 1 1.4 2.4 2.3 3 1.9.6-.3.8-.3.4.2-.4.4 0 1.4 1 2.1 1.3.9 1.9.9 2.4.1.5-.7.7-.1.6 1.3-.2 1.7.4 2.8 2 3.5 1.2.5 2.2 1.6 2.2 2.3s.4 1.1.9.7c.6-.3.5-2-.3-4.4-.8-2-1.7-5.9-2-8.6-.4-2.7-.9-5.2-1.2-5.7s-.8-3.2-1-6.1c-.3-2.9-.7-5.9-1.1-6.7-.3-.8-.7-2.2-.8-3-.9-4.9-3.1-12-3.7-12-.5 0-.8-1.8-.8-4.1 0-3.6-.2-4-2-3.4-1.1.4-2 .2-2-.4s.7-1.1 1.5-1.1 1.5-.8 1.4-1.8c0-1-.3-1.2-.6-.4-.7 1.8-2.3.4-2.3-2.1 0-1.8.2-1.9 1-.7 1.2 1.9 1.3.8.1-2.2-.6-1.3-1.3-4.4-1.6-7.1-.3-2.6-.9-4.5-1.3-4.3s-.7-1.2-.8-3.2c0-2.1-.7-5.2-1.5-7-1.3-3-1.6-3.2-3.2-1.9"/><path d="M957 149.7c0 .4 1.6 7.1 3.6 14.8 1.9 7.7 3.9 16 4.4 18.5.4 2.5 1.7 8.1 2.8 12.5 1.2 4.4 3.3 13.8 4.7 21 2.1 10.5 3.9 17.9 5.1 20.3.2.5 16.4-16.2 16.4-17 0-.9-15.3-31.7-20.7-41.8-1.6-3-5.4-10.2-8.3-16-5-9.6-8-14.4-8-12.3M944 209.9c0 .6.4 1.1.9 1.1s.4 1.5-.2 3.5c-1 3.4-1.1 3.5-6.4 3.5-5 0-5.9.5-5.4 3.3.1.4-.6 1-1.4 1.3-1.7.7-2.1 5.4-.4 5.4.6 0 .9.6.6 1.3-.3.8-.1 2 .4 2.8s.9.9.9.2c0-1.9 3.5-.3 4.5 2 .8 1.8 1.9 2.2 5.5 2.3 2.5.1 5.6.4 7 .7s7.1.9 12.8 1.2c8 .4 10.2.3 9.6-.6-1.8-3-14-14.9-15.2-14.9-.7 0-1-.4-.7-1 .4-.6-.1-.7-1.1-.3-1.3.5-1.6.2-1.2-.9.6-1.5-2.9-5.5-4.4-5-.5.1-.7-.4-.5-1.1.1-.7-.6-1.1-1.7-.9-1.3.3-1.7-.1-1.3-1.2.3-.8-.1-2-.9-2.6-1-.9-1.4-.9-1.4-.1M808 215.9c0 .8 5.5 14.9 8.4 21.6.7 1.6 6.2 15.5 12.2 30.7 6 15.3 11.4 27.9 11.9 28.2.6.2 1.2-1 1.3-2.8.3-4.5 4.2-33.8 4.7-35.6.5-1.7 2.1-16.3 3-28.7.8-9.1 1.5-8.1-8-10.2-4.4-1-29-4.1-32.2-4.1-.7 0-1.3.4-1.3.9M853 233.3c0 .9-.5 1.7-1.1 1.7-.7 0-.9 1.1-.6 2.7.3 1.5-.1 5.9-.8 9.8-1.7 8.6-3.4 18.8-3.9 23.5-.2 1.9-.7 4.2-.9 5-1.1 3.2-1.8 17.5-.8 16.5.5-.6 3.1-5.3 5.7-10.5s5.6-10.7 6.6-12.1c1.1-1.4 2-3.5 2.1-4.6 0-1.2.5-1.9.9-1.7 1.1.7 3.8-6.4 3.2-8.1-.9-2.3-2.4-1.8-2.5.7-.1 2.2-.1 2.2-.8-.2-.9-2.9-.3-5.3 1-4.4 1.1.7 1.1-4.4-.1-7.1-.8-1.8-.9-1.8-.9-.2-.1 3.1-2.1.8-2.1-2.4 0-1.8.4-2.8 1-2.4s.3-1-.7-2.9c-.9-2-2.1-3.6-2.5-3.6-.5 0-.6.6-.3 1.2.4.7-.1.4-.9-.6-1.4-1.7-1.6-1.8-1.6-.3M932.2 240.6c-.6.3-.9 1.1-.5 1.7.4.7.8 1.7.9 2.3.4 2.2 22.6 32.2 28.9 38.9 2.1 2.2 4.9 5.7 6.3 7.8 3 4.5 3.5 3.9 4.6-5.8.8-7.7 2.7-43.7 2.3-44.1-.6-.6-41.2-1.4-42.5-.8M978.4 242.2c-.3.5-.1 2.3.5 4.1 1.5 4.9 4.8 18.7 8.1 34.2 5.1 24.4 8.1 34.2 10.1 32.9.8-.4.9.1.4 1.6-.6 2-.5 2.1 1.7.9 6.7-3.5 24.8-16.4 25.3-18 .4-1.1 1-1.7 1.5-1.4 1.7 1.1 15.7-8.4 15.7-10.7 0-.7.3-6.7.7-13.3.7-10.4.6-11.7-.6-10-.8 1.1-2 3.6-2.8 5.5-.7 1.9-2.8 6.7-4.6 10.7-1.9 4-3.6 8.4-4 9.8-.3 1.4-1 2.8-1.5 3.1s-.9 1.5-.9 2.6c0 1.2-.3 1.8-.6 1.5-1-.9 2.3-10.9 6.3-19.7 4.8-10.2 7-16.5 8.1-22.8 1.1-6 2.1-5.4-11.6-7.2-4.6-.6-8.6-.9-8.8-.7-.3.3 0 5.8.6 12.3.6 6.6 1.3 15 1.7 18.8.5 5.1.3 6.7-.5 6.2-.7-.4-1.2-3.6-1.3-7.9-.1-10.8-1.5-24.1-2.6-24.4-.6-.2-.8-1.4-.6-2.7.6-2.7-.9-3.1-14.7-4.2-4.7-.3-12.2-.9-16.8-1.3s-8.6-.3-8.8.1"/><path d="M976 247.5c-.3 12.9-1 24.1-1.9 32.5-1.9 17.1-1.9 17.1 4.7 23.7l5.7 5.7-5.3-4.5c-3-2.4-5.9-4.8-6.6-5.3-.8-.5-4.5 1-10.6 4.5-5.2 2.9-9.7 5.4-9.9 5.6-1.2.9 3.1 3.5 6 3.8 3.7.3 5.3 3 2.5 4.1-2.4.9-1.9 3.4 1.1 6.6 1.5 1.5 2.2 2.8 1.7 2.8-.6 0-2.5-1.6-4.4-3.5s-3.8-3.5-4.3-3.5-1.9-.8-3.1-1.8c-1.8-1.3-2.1-2.3-1.5-4.4.6-2.5.5-2.7-1.1-1.8-3.4 1.8-6.3 15-3.3 15 .8 0 1.2.4.9.8-1.2 2 1.6 3 10.2 3.6l9.4.7-.8-2.3c-.6-1.9-.4-2.1.7-1.2 3.6 3 5.9 2.6 13.2-1.9 4-2.5 8.3-4.8 9.7-5.2s-.2 1-3.5 3c-3.3 2.1-7.2 4.6-8.7 5.6-1.5 1.1-3.2 1.9-3.7 1.9-2.8 0-1.7 5.7 2.7 14.2 1.9 3.5 3.7 4.3 2.5 1-.4-1-.2-1.3.5-.8.7.4 1.2.1 1.2-.9 0-.9.5-2.1 1-2.8 2-2.3 9.2-13.9 11.7-18.9l2.5-5-5.4-5c-5-4.8-5.1-4.9-.7-1.4 4.5 3.5 6.6 3.9 5 .7-.9-1.7-4.3-14.3-6.8-25.1-.8-3.6-1.6-7-1.7-7.5-.2-.6-.6-2.8-1-5-1.3-6.6-6.4-26.8-7.5-29.5-.9-2.3-1-2.2-1.1 1.5"/><path d="M933.5 254c-.3.5.2 1 1.2 1.1 1 0 1.3.3.6.6-.7.2-1.3.9-1.3 1.4 0 .6.4.7 1 .4.5-.3.7 0 .4.8-.2.7 1.2 6.2 3.3 12.1 4.3 12 3.1 10.8 19.1 18.5 4.5 2.2 8.2 3.7 8.2 3.4s-.9-1.5-1.9-2.7c-5.2-5.7-9.5-11.1-17.9-22.2-10.2-13.4-11.7-15-12.7-13.4M864.8 260.1c-5.6 10.4-6.1 11.3-7.5 12.7-.7.7-1.3 1.7-1.3 2.2 0 1.3-7.1 16.1-9.2 19.2l-1.8 2.6 3.6-1c2-.5 8.9-3.6 15.3-6.7 6.4-3.2 13.8-6.6 16.4-7.6s4.7-2.2 4.7-2.6c0-.5.8-.9 1.8-1 2.9-.1 14.9-6.3 14.5-7.5-.4-1.3 2.4-2.7 3.8-1.8.5.3.9 0 .9-.5 0-.6.8-1.1 1.8-1.1 2.5-.1-11.7-5-14.5-5-1.3 0-2.3-.4-2.3-.9 0-.4-2.8-1.6-6.2-2.5-3.5-1-8-2.4-10.1-3.2-2-.8-4.4-1.4-5.2-1.4s-2.9 2.8-4.7 6.1M943 285.5c0 .5 4.9 20.6 5.5 22.2.4 1.1 18.2-8 19.6-10.1.4-.5-4.7-3.5-11.2-6.7-11.1-5.5-13.9-6.6-13.9-5.4M935 289c-10.7 7.1-12 8.1-12 8.8 0 .8 11.6 6.2 13.4 6.2.6 0 2.9.9 5 2.1 2.1 1.1 4 1.8 4.3 1.6 1.1-1.2-4.2-21.7-5.6-21.7-.4 0-2.7 1.3-5.1 3M906 301.6c-4.1.7-9.3 1.8-11.5 2.5-2.2.6-4.6 1.3-5.3 1.5-.9.2-.5 1.9 1.4 6.1 1.4 3.2 2.8 6.1 3.2 6.5s2.5.2 4.7-.3c2.2-.6 4.7-1.1 5.5-1.1 1.3 0 8.4-8.6 11.7-14.2.7-1.2 1.3-1.5 1.3-.9 0 .7-1.6 3.5-3.4 6.1-1.9 2.6-4 6-4.5 7.5l-1 2.6 7.4-.4c4.7-.3 7.5-.1 7.5.6 0 .6.4.8.9.5 1.2-.8.3-6.2-1.6-10.4-.9-1.8-1.3-3.5-1.1-3.8.3-.2 1.5 1.9 2.7 4.8 3.7 9.1 4.7 10.2 8.8 11 2.1.3 5 1.1 6.4 1.6 2.5 1 2.7.8 5-4.6 1.3-3.1 2.5-6 2.7-6.4.7-1.6-24-10.2-26.9-9.3-1.1.4-1.9.2-1.9-.4 0-1.4-2.4-1.3-12 .5M843.9 304.2c0 2-.2 2.1-1.1.7-1.4-2-2.1-1.6-19.8 8.9-18 10.7-22 13.4-22 14.7 0 1.2 10.6 7.9 24.4 15.5l6 3.3 8.3-1.3c4.6-.7 8.6-1 9-.7.3.4-.5.7-1.9.7-4.3 0-13.8 2.2-13.8 3.3 0 .8 3.3 4.7 16.3 19.1.9 1.1 1.7 2.3 1.7 2.8 0 .4.5.8 1 .8.6 0-.1-1.7-1.5-3.7-1.4-2.1-2.5-4.1-2.5-4.5s2 0 4.4.9c2.5.9 4.3 2.1 4 2.5-.9 1.4.5 4.2 2.7 5.6 1.5 1 1.9 1 1.4.1-.5-.7-.7-7.2-.6-14.5.2-8.6-.1-13.4-.8-13.9-.6-.3-.9-1-.6-1.5.6-.9-7-20.4-8.8-22.8-.5-.7-.8-1.5-.5-1.8.6-.5 4.9 8.4 8.8 17.8 1.3 3.2 2.6 5.8 2.9 5.8.4 0 1.2-1.5 2-3.3.8-1.7 2.9-5 4.7-7.3 4.9-6.1 17.4-24.4 17.4-25.5 0-.5-2.8-.9-6.2-.9-3.5 0-9.2-.4-12.8-.9s-10-1.2-14.2-1.6c-7.7-.7-7.8-.6-7.9 1.7M1043 313.6c-7.4 4.2-14.1 8.2-14.9 8.9-1.2 1.2-1 1.4 1.4 1.1 1.6-.2 3.6-1.3 4.5-2.4 2.2-2.6 3.1-1.9 2 1.7-.6 2.3-.4 2.7 1.4 2.9 1.1 0 3.8-1.2 5.8-2.8 4.8-3.9 5.5-3.8 2.4.3-2.8 3.6-2.6 4.7 1 4.7 1.3 0 2.6.5 3 1.1.5.8-.1 1-1.9.7-1.5-.3-2.4-.1-2.1.3.7 1.3 3.6 1 5.5-.4.9-.7 2.5-3.8 3.6-7 1.1-3.1 2.3-5.4 2.8-5 .4.5.5 0 .2-.9-.3-1-.2-2 .3-2.3 1.5-.9 1.2-8.5-.2-8.5-.7 0-7.4 3.4-14.8 7.6"/><path d="M884.8 309.7c-2.4 2.9-15.4 21.6-16.8 24.3-1.2 2.4-1.2 2.4.6.9 1-.9 3.9-2.6 6.4-3.8 2.5-1.3 4.7-2.6 5-3 .7-1 7-3.8 10.3-4.6 1.5-.4 2.7-1 2.7-1.4-.1-1.8-4.9-13.6-5.7-13.8-.5-.2-1.6.4-2.5 1.4M953.3 333.8c-3.5.2-6.3.5-6.3.8 0 1.5 4.2 8.4 5.2 8.4.6 0 .9.3.5.6-.3.3-.1 1.1.4 1.8.5.6 1.6 2 2.4 3.1 1.3 1.9 1.5 1.9 4.5-1.5l3.1-3.5-2.1 4.2c-1.9 4.1-2 4.3-.1 5.2 2 1.1 13.8 1.8 14.7.9s-1.4-8.3-4.4-14c-2.6-5-2.9-5.3-7.2-5.8-2.5-.3-7.3-.4-10.7-.2M823.8 354.3c-3.1 2.3-10 7.1-15.2 10.7-5.3 3.6-9.6 7-9.6 7.6 0 1.1 8.6 7.6 24.2 18.3 4.2 2.9 8.4 6.4 9.3 7.7 2.5 3.9 3.8 3 3.1-2.4-2.9-23.6-4.6-38.1-4.6-40.5 0-4.9 1.7-2 2.3 4 .3 3.2.8 6.7 1 7.8.5 1.9 1.3 8.7 2.2 17 .9 9 1.8 14.5 2.2 14.5 1.6 0 4.2-2.3 3.7-3.2-.4-.7-.3-.8.4-.4 1.2.7 12.1-6.2 12.2-7.8 0-.5-.7-.3-1.5.4-2.8 2.3-1.7-1.4 1.1-3.9 2-1.8 2.3-2.5 1.4-3.6-.7-.8-1.7-1.2-2.3-.8-.5.3-.7.2-.4-.4.8-1.3-9.1-12.9-10.6-12.5-.7.2-.9 0-.5-.4s-.5-2.4-2-4.4c-2.8-3.8-10-12.1-10.4-11.9-.2 0-2.9 1.9-6 4.2M853.4 393.5c-1.7.8-3.6 2.1-4.3 2.9-.8.9-1.9 1.6-2.6 1.6-1.6 0-4.9 3.7-3.8 4.3.4.3 4.2 1.2 8.3 2.2 4.1.9 9.4 2.4 11.8 3.2s4.5 1.4 4.6 1.2c.2-.2-.7-3.8-1.9-7.9-1.9-6.4-2.5-7.5-4.3-7.2-1.1.2-2.3-.2-2.7-.8-.8-1.2-1.2-1.2-5.1.5M1030.8 401.7c-3.7 4.2-6.6 7.8-6.4 8 .3.3 8.4 1.8 15 2.8 2.8.4 3.7.2 3.4-.7-1.2-3.4-3.8-11.7-4.5-14.6l-.8-3.2zM909.6 401.7c-.2.3-2.1.6-4.1.8-1.9.1-3.7.4-3.8.6-1 1.4-3.4 11-2.9 11.3.7.4 19.5-1.9 24.6-3l2.9-.6-2.9-2.4c-6.3-5.2-12.3-8.2-13.8-6.7M914 414.6c-5.2.8-10.6 1.6-12 1.8s-3 .5-3.7.5c-.9.1 4.6 11 8.6 17.1 1.1 1.6.4 2.3 13.4-12.3 3.3-3.7 6.7-6.7 7.4-6.7s1.3-.5 1.3-1c0-1.3-3.1-1.1-15 .6M1013.1 422.4c-.6.7-.9 1.5-.6 1.7.2.3.6 4.1.9 8.4.5 9.7 2.6 15.2 6.1 16.1 4.6 1.2 5.4.1 4-5.3-.7-2.6-1.8-6.2-2.5-7.8-.6-1.7-1.4-4.1-1.7-5.5-.2-1.4-1.1-3.2-1.9-4.1-.8-.8-1.4-2.1-1.4-2.7 0-1.8-1.7-2.3-2.9-.8M921 469c0 1.1-4.8 6-14.3 14.7l-6.8 6.1 5.8 3.4c3.2 1.9 6.8 3.5 8.1 3.5 1.3.1 3.8 1.3 5.7 2.7 3.2 2.4 11.4 6.2 11.8 5.5.1-.2 1-1.8 2-3.6.9-1.7 1.7-3.9 1.7-4.8 0-1 1-3.5 2.2-5.7 2.1-3.6 2.1-4.1.7-5.2-.9-.6-2.7-2.7-4-4.6-4.5-6.6-8.1-11-9.1-11-.5 0-.7.4-.4.9.7 1.1 6.2 22.5 6.9 27.1 1.3 7.7-4-9.5-7.4-24.3-.8-3.2-1.7-5.7-2.1-5.7-.5 0-.8.4-.8 1M956.3 590.7c-7.8.4-10.3 1.3-6.8 2.7.8.3 5.9 3.9 11.2 7.9 5.4 4.1 10.8 7.9 12 8.6 2.1 1 2.1 1 1.3-2-.5-1.8-1.2-6.5-1.6-10.5l-.7-7.4-3.6.2c-2 .1-7.3.4-11.8.5"/></svg>