<svg xmlns="http://www.w3.org/2000/svg" width="1706.667" height="960" viewBox="0 0 1280 720"><path d="M0 360v360h279.4c222.6 0 279.5-.3 279.9-1.3q.6-1.35.6 0c.1.9 2.5 1.3 8.6 1.3h8.5l1.6-4c.9-2.2 2-4 2.5-4 .4 0 .2 1.8-.6 4-1.4 3.9-1.4 4 1 4 1.4 0 2.5-.7 2.8-1.7.4-1.7.5-1.7.6-.1.1 1.4 1 1.8 4.1 1.8 3.4 0 4.5-.6 7.8-4.1 5.9-6.7 8.2-10.1 8.2-12.6 0-1.5.9-2.7 2.5-3.5 1.4-.6 2.5-1.5 2.5-2 0-.4.5-.7 1.1-.6.6.2 1.4-.3 1.7-1.1s0-1.1-.7-.7c-.7.5-.9.1-.4-.9.4-1.2.8-1.3 1.3-.5 1.2 2 7-6 7-9.6 0-1.8.7-4.5 1.5-6 1.5-2.8 1.5-2.8.9 2.3-.7 5.9-.6 6 5.2 4 2.2-.8 5.7-1.7 7.9-2 3.8-.6 3.9-.5 1.5.8-1.4.8-3.4 1.5-4.5 1.5s-2.7.5-3.5 1.1c-1.1.8-.2.9 3.4.4 2.7-.4 5.5-.9 6.2-1.2.8-.3 1.4 0 1.4.6s-.5 1.1-1.1 1.1c-2.6 0-10.7 4.3-10.5 5.6.3 1.7 1.4 2.9 2.9 2.9.7 0 1.2.5 1.2 1.1 0 1.5 5 7.6 6.2 7.5.4-.1.8.3.8.7 0 .5.8 1.6 1.8 2.6.9 1 2.9 3.3 4.3 5.2 1.5 1.9 3.6 3.4 4.8 3.5 1.1 0 1.5.3.9.6-2.9 1.1 1.6 3.3 6.7 3.3 4.6 0 5.1-.2 4.4-1.8-1.3-2.9-7.3-20.6-7.3-21.7 0-2.3 3 4.6 6.1 13.7l3.2 9.8H1280V0H0zM393.1 84.5c-3.3 8.3-7.8 18.9-10 23.8-2.3 4.8-4.1 8.9-4.1 9.1 0 .5 10.3-3.9 37-15.9 10.7-4.8 24-10.8 29.5-13.2 5.5-2.5 10.7-5.1 11.6-5.9.8-.8 2.9-1.4 4.5-1.4 1.6-.1 4-.7 5.4-1.5s3.2-1.4 4-1.4-.2.7-2.2 1.6c-2.1.8-3.8 1.9-3.8 2.4s5.3 2.5 11.8 4.5c6.4 1.9 14 4.4 16.7 5.3 16.3 5.8 17.7 5.9 18.8 1.6.4-1.2.5-.8.4 1-.2 3.5-.9 3.4 19.3 2.3l11.5-.6-9.5.9c-5.2.5-11.5 1.3-14 1.8l-4.5.8 10 4.7c5.5 2.6 12 5.6 14.5 6.6 4.7 1.9 13.6 5.8 20.8 9.2 3.1 1.5 4.7 1.7 5.4 1 .6-.6 3.5-6.8 6.4-13.8 5.3-12.7 5.5-14.5 1.5-13.9-.9.1-1 0-.3-.2.6-.3 1.2-.8 1.2-1.3 0-.9.4-.9 4.4.4 1.7.6 1.7.8.3 2.4-.8.9-3.8 7.5-6.6 14.6-5.9 14.5-5.9 14.9.3 24.1 1.9 2.7 5.6 8.4 8.3 12.5 21.4 32.5 27.3 41 28.3 41 1.1 0 2.2-1.5 10.7-14.5 3.5-5.5 7.4-10.9 8.5-12s-2.4 4.7-7.8 12.9c-7.5 11.6-9.5 15.3-8.7 16.5.7 1.2.5 2.1-.7 3.4-1.7 1.7-1.8 1.7-2.3-.4-.4-1.6-1.1-2-2.9-1.6-1.3.3-7.2 1.3-13.3 2.2-6 1-18.6 3-28 4.6-9.3 1.6-19.5 3-22.5 3.3-10.2.8-19 2.7-19 4.1 0 .8 3.8 4.8 8.5 9.1 4.7 4.2 8.5 8.1 8.5 8.7 0 .5-3.9-2.8-8.6-7.2-4.8-4.5-9.1-8.1-9.5-8.1-.5 0-.7 2-.4 4.5.2 2.5 0 4.5-.6 4.5-.5 0-.9-1.7-.9-3.8l-.1-3.7-1.6 3c-.9 1.6-4.5 9.1-7.9 16.5s-9.1 19.6-12.7 27c-3.5 7.4-7.9 16.6-9.7 20.5-1.7 3.8-4.1 8.8-5.2 11l-2 3.9 3.1 2.8c3.3 2.9 2.9 3.9-.5 1.3-2.7-2-3.1-1.9-2.9 1.2.1 1.6 0 2-.2 1-.7-2.7-2.1-2-4.2 2-2.5 4.6-6 9.2-6.1 7.7 0-.6 1.3-2.8 3-5 1.6-2.1 3-4.5 3-5.2 0-.6.5-1.2 1-1.2.6 0 1-.7 1-1.6 0-1.4-1.8-1.5-16.7-.9-21.5.8-25.3 1.2-26.7 2.8-.6.7-2 2-3 2.7-1.8 1.4-1.8 1.4-.5-.7.9-1.5 1-2.6.4-3.1-.9-.8-25.6-6.2-28.3-6.2-.6 0-.8 1-.5 2.2.4 2.1.3 2.2-1 .5-.8-.9-2.3-1.7-3.3-1.7-2 0-26.1 7.6-28.1 8.8-.9.6-.7 2.2 1.1 6.7 1.3 3.3 2.6 6.8 2.9 7.8.6 1.6.9 1.6 2.9.3 1.3-.8 3.7-1.7 5.4-2 2-.5 4.1-2 5.8-4.4 5.3-7.3 5.7-7.6 3.6-3.4-1.1 2.3-1.8 4.7-1.4 5.3.6 1 18 .6 19-.4.3-.3-.9-3.3-2.6-6.7s-3-6.4-2.8-6.6c.2-.1 2.4 2.7 4.9 6.4 3.9 5.8 4.9 6.7 7.7 6.9 1.8.1 3.9.6 4.6 1.3 1.1.8 1.9.3 3.7-2.6 2.6-4.3 3.8-3.1 1.5 1.5-2.1 4.1-2 4.8.9 5.5 1.4.4 2.3 1.1 2 1.7-.4.5 1.1 1.6 3.2 2.5s5.3 3.1 7.1 5c1.7 1.9 3.2 3.2 3.2 2.8 0-.3.7-.1 1.5.6s1.3 1.6 1 2c-.5.8 4.5 3.3 5.3 2.5.3-.2-.2-1.3-1.1-2.3-1-1-1.7-2.4-1.7-3.1 0-.6-1.1-3.4-2.5-6.1-4.4-8.6-7.6-16.5-6.2-15 .8.8 2.1 3.4 3 5.7.9 2.2 3.4 7 5.5 10.5 2.1 3.4 4.2 7.6 4.6 9.1.8 3.5 1.9 2.9 6.2-3.9 1.9-3 3.7-5.4 4-5.4.6 0-1 3-4.3 8.2-1.2 2.1-2.3 4-2.3 4.2 0 1.5 26.4 5.8 29.8 4.9q2.1-.45 1.5-2.1c-.4-1.3-.3-1.3.9.2 1.4 1.8 2.2 1.5 18.1-6.5 9.1-4.6 16.7-9 17-9.9.2-.8-.2-20.2-.9-43s-1.3-45.6-1.3-50.5c.1-19.7.9-4.6 2.4 42.9.8 27.5 1.7 50.2 2 50.4.3.3 13-4.5 28.2-10.6 41.5-16.5 48.5-19.2 49.2-19.2 1.7.1-6 3.4-39.3 16.6-19.8 8-36.7 15.1-37.5 15.9-1.1 1-1.7 5.4-2.2 15.2-.5 7.6-1 16.8-1.2 20.5-.3 3.8-.3 6.8-.1 6.8s6.8-4.5 14.7-10c7.8-5.4 17.3-12 21-14.6 5.9-4.1 20.8-19.2 33.6-33.9 5.6-6.5 13.1-14.4 13.1-13.9s-5.8 7.5-13.6 16.4c-1.7 1.9-7.6 8.4-13.2 14.5-5.5 6-9.5 11.1-8.8 11.3.7.1 8.8-1.8 18-4.3 9.3-2.5 17.4-4.4 18-4.2 1.1.4-3.2 1.6-25.9 7.4l-14 3.6-13 9.2c-7.1 5-16.5 11.5-20.7 14.5-4.3 2.9-7.5 5.7-7.2 6.2.3.4-.4.8-1.5.8-1.2 0-2.1.1-2.1.3 0 .8-8 27.6-8.8 29.7-2 4.8-1.2.8 2.4-11.3 4.4-15 4.8-16.7 3.9-16.7-.4 0-8.5 4.8-17.9 10.6-9.4 5.9-18.4 11.5-20.1 12.5l-2.9 1.8 2.9 1.1c5.9 2.1 7.2 2.9 3.5 2.2-7.2-1.4-15.7-.6-29.5 3.1-7.7 2-18.7 4.5-24.5 5.7-16.3 3.2-15.3 2.8-14.6 5.5l.6 2.4-2.5-2.3c-1.9-1.8-5-2.8-11.3-4-12.6-2.2-19.2-3-19.2-2.1 0 1.1 14.2 17.6 15.7 18.2.7.3 1.5 1.3 1.8 2.4 1 3.1 2.3 2.2 5.1-3.2 1.4-2.8 2.7-4.9 3-4.7.2.3-.7 2.6-2.2 5.2-1.4 2.5-2.4 5.2-2.1 5.9s5.7 3.7 12 6.5c9.4 4.3 12.1 5.1 15.1 4.6 3.5-.5 3.6-.4 2.4 1.5-1.1 1.8-1 2.3.7 3.6 2 1.6 2 1.6-.1.6-1.8-.9-2.5-.7-3.8 1.2l-1.7 2.2.6-2.2c.9-3.4-1.9-5.4-15.6-11.2l-12.4-5.3-6.7-8.2c-3.7-4.4-8.7-10.3-11.2-13l-4.5-4.8-9.8.7c-12.6.9-23.3 2.2-24 2.9-.3.3 1.9 3.6 4.9 7.3s6.3 8 7.4 9.4c2.3 3.2 10.7 13.2 17.7 21.3 6.3 7.1 8.1 9.6 7.4 10.2-.2.2-3.7-3.5-7.8-8.2-12.9-15.2-27.3-31.9-28.6-33.2-1.9-1.9-1.6-.2 1.1 8 1.3 4 3.4 10.7 4.6 14.8 2 7.1 7.8 23.8 11.7 34.2 1 2.7 2.2 4.8 2.6 4.8.5 0 3.8-2.9 7.4-6.5s6.8-6.5 7-6.5c.5 0-5.9 7.5-8.1 9.5-.6.6-2.1 2.2-3.4 3.7l-2.3 2.5 2.1 6.5c3.8 11.7 4.4 11.7 7.9.3 1.6-5.5 3.3-11.3 3.7-12.8.3-1.5.8-2.6 1.1-2.4.3.4-.6 4.3-5.3 21.6-.9 2.9-1.3 5.5-1.1 5.8.3.2 3.8-1.2 7.8-3.3 4.1-2 11-5.3 15.5-7.3 4.4-2 8.2-4 8.4-4.5s-4.6-5.8-10.6-11.8l-10.9-10.9-1.3 4.7c-1.8 6-2.6 5-1.3-1.7.5-3 .8-10.4.7-16.4l-.3-11 1 9.8c1.1 11.1 2.1 12.1 8.9 9.2 3.9-1.6 6.6-2 5.4-.8-.3.4-1.4.8-2.4 1-2.8.4-9.2 3.3-9.2 4.1 0 .9 21.4 22.2 22.3 22.2.3 0 1.8-1.7 3.2-3.7 1.4-2.1 2.5-3.4 2.5-2.9 0 .4-.8 2-1.7 3.4-2.7 4.1-2.2 6.5 3.1 12.8l4.8 5.9-5.4-5.7c-4.8-5.1-5.8-5.7-8.9-5.4-2.6.3-28.6 12.2-30.7 14.1-.2.2 1.3 2.5 3.3 5.2 2 2.6 5.3 7 7.2 9.7 2 2.7 4.9 5.6 6.5 6.6l2.8 1.7-2.3 1c-10.7 5.1-31.9 15.9-32.3 16.4-.2.4 1 1.8 2.8 3.1 1.8 1.2 4 2.8 4.8 3.5 5.8 4.9 13.8 10.3 15.3 10.3.9 0 1.7.4 1.7 1 0 .5 1.5 1 3.3 1 1.7 0 3.8.4 4.5.9.7.4-1.3.6-4.5.3-3.3-.3-6.4-1.1-7.3-2-.8-.9-6-4.9-11.5-9-12-8.8-8-8.6-41-1.7-12.6 2.6-15.2 2.5-4.7-.2 9.7-2.5 12.4-4.4 7.4-5.1-1.2-.2-2.2-.7-2.2-1.2s-2.5-2.2-5.5-3.6c-3-1.5-5.5-3.1-5.5-3.6 0-.6-.5-.8-1.1-.6-1.3.4-6.1 14.6-5.4 15.9 1.7 2.6-1.1 2.5-5.4-.1-2.7-1.7-5.6-3-6.5-3s-1.6-.5-1.6-1c0-.6-.5-1-1.1-1-1.4 0-.8 2.6 2 10 1.2 3 2.1 5.9 2 6.5 0 .5-1.2-1.9-2.5-5.5-1.4-3.6-3-7-3.5-7.7-.6-.6-.9-1.7-.8-2.5.2-.7-.2-2.2-.8-3.3s-1.4-3.8-1.7-6l-.6-4 1.3 4 1.3 4 2.8-4.8c3.2-5.3 3-7.3-.3-3.1-3.4 4.4-2.4.5 1.2-4.3 2.8-3.9 3.5-4.3 6.2-3.8 1.7.4 4.2.7 5.7.8 1.4.1 2.4.5 2.1.9-.2.5.3.8 1.1.8.9 0 1.6.5 1.6 1 0 1.5 51.3.6 51.8-.9.2-.6 2-1.1 4-1.2 2.1-.1 4.8-.4 6.2-.8 2.1-.7 1.5-.9-3-1.5-3-.3-7.5-.8-10-.9-2.5-.2-.5-.4 4.4-.5s11.8.3 15.3.9 6.7.9 7 .6c.6-.7-3.1-5.9-9.7-13.7-2.5-2.9-5-6-5.7-6.9-1-1.4-1.9-1.1-7.5 2.8-8.9 6.3-15.8 12.2-15.8 13.6 0 .6-.6 1.2-1.2 1.2-.7 0-2.1.4-3 .8-1.2.5-1.8.3-1.8-.7 0-.8-1.9-2.3-4.2-3.3-2.4-1.1-8.2-4.1-12.9-6.7-8.6-4.8-12.3-5.7-15.7-3.9-4.2 2.3-8.6 4.1-9 3.7-.2-.3.3-2.9 1.1-5.8 1.9-6.4 4.6-18.9 5.4-24.1.3-2 .9-3.9 1.3-4.2.8-.5 3.1 5.6 4.5 11.9.9 4.3 1.7 2.5 3.4-7.6l1.6-9.1 5.2-.3c5-.2 13.2-3.3 8.8-3.3-1.1 0-3.7.6-5.7 1.3-2.1.8-3.5 1-3.3.6.3-.5 2.9-1.6 5.8-2.6 2.8-.9 6.4-3.1 8-4.7 1.5-1.6 2.7-2.4 2.7-1.9 0 .6-.5 1.4-1.1 1.8-1.6.9.9 2.4 4.3 2.4 1.5 0 3 .5 3.4 1.1.3.6 1.5.8 2.6.6 1.4-.4 1.8-.2 1.4.9-.4 1 .2 1.4 1.9 1.4 1.4 0 2.5.4 2.5 1 0 .5-.5 1-1.2 1-1.7 0-.4 1 2 1.5 2.8.5 2.6-.2-5.9-25.5-4.9-14.5-6.8-19.1-6.4-15.6.3 2.7.5 6.4.5 8.2 0 2.5.5 3.4 1.8 3.5 1.6.1 1.6.2 0 .6-1.3.3-1.8 1.5-1.9 4.1-.1 2.3-.3 2.9-.6 1.4-.2-1.2-.9-2.2-1.4-2.2-1.9 0-19.4 8.8-21.8 10.9-2.9 2.6-4.7 2.7-6 .3-1.1-2.1-19.5-13.8-23.1-14.7-2.2-.5-2.7-.1-4.3 3.8-1 2.5-2.5 5.3-3.3 6.3-1.3 1.7-1.3 1.6-.2-1.1.6-1.7 1.5-3.4 2-4 .4-.5.8-2.2.8-3.7 0-3.5-2.8-4.8-10.2-4.8-4.9 0-5 .1-4.6 2.7.3 1.6.7 3.4.9 4.2.2.7-.2 1.6-1 1.9-.8.2-1.1 0-.8-.5s.1-2.9-.4-5.3c-.9-4.1-.7-5.1 3-13.1 2.3-4.8 4.1-9.2 4.1-9.7s.7-2.3 1.5-3.8c.8-1.6 1.5-3.9 1.5-5.1s.7-2.8 1.5-3.7c1.7-1.6 2-3.6.6-3.6-.5 0-2 2.1-3.3 4.7-2.7 5.6-8.8 14.6-9.5 13.9-.2-.2 1.1-2.6 3-5.3 3.8-5.3 6.7-10.6 6.7-12.3 0-.5-.9-1-2.1-1-1.9 0-15.9 3-16.7 3.6-.8.5 5.4 17.3 6.4 17.4.6 0 1.1 1.7 1.2 3.7.2 3.7-1.3 3.6-2-.2-.1-1.1-.5-2.2-.8-2.5s-1.4-3.3-2.5-6.8c-1-3.4-2.4-6.7-3.2-7.3-1.8-1.5-1.7-7.9.2-10.6 1.3-1.9 2.8-6.9 4.9-16.4.4-2 .1-2.8-1.2-3.3-.9-.3-2.3-.9-2.9-1.2-1-.4-1.3 1.4-1.4 7.3-.1 4.3-.5 9.1-1 10.8-.7 2.5-.6-9.9.2-28 .2-3.4-.6-7.3-2.7-12.9-.9-2.3-1.4-6.7-1.3-11 .2-3.9-.2-8.7-.8-10.6s-1.4-6.9-1.7-11.2c-.4-4.2-1.3-9.9-2-12.7s-1-4.8-.6-4.6c1 .6 5.1 9.3 5.5 11.7.7 3.2 1.5 3.8 5.6 3.8 3.5 0 4.1-.4 3.8-2.7 0-.4.6-1 1.4-1.3 1.1-.4-.1-2.5-4.9-8.5-8.6-10.6-11.8-15.4-5.8-8.5 8.5 9.5 11.8 12.5 14.1 12.7 1.3.1 2.3 0 2.3-.2 0-.3-1.1-2.9-2.5-5.9-2.1-4.6-3.4-6.1-8.3-8.9-3.1-1.8-6.5-3.6-7.4-4-1-.3-1.8-1.1-1.8-1.6 0-.8 2.8.4 10.7 4.7 1.3.8 2.5 1.2 2.6 1 .6-1-.5-20.8-1.1-20.8-.4 0-3.5 2.7-7 6.1-4 3.9-6.2 6.9-6.2 8.3 0 1.3-.6 2.3-1.4 2.3-1.8 0-1.4-2.7 1.9-14.2 1.5-5 3.4-11.7 4.2-15 .7-3.3 1.9-6.4 2.5-7 .7-.7.9-.3.5 1.5-.5 2 .2 3.5 3.3 7l3.9 4.5.1-9c.1-5 .5-11.2.9-14 1.5-9.1-.2-9.1-3.3 0-1.7 5.1-3.4 8.5-4.2 8.5s-1.4-.5-1.4-1c0-.6.5-1 1.1-1s.9-1 .6-2.3c-.3-1.2-.1-3.1.4-4.2.8-1.6.8-1.5.4.7-.9 4.5.2 3.2 2.5-3 1.3-3.3 2.2-7.8 2.1-10.7 0-2.8.8-8.2 1.9-12 1-3.9 1.9-5.9 1.9-4.6.1 4.4 1.4 1.3 1.7-4.1.4-6.6.9-9.3 3.8-19.3 1.3-4.4 2.9-10.3 3.6-13 1.4-5.2 16-36.8 16.7-36.1.2.2-.9 3.1-2.6 6.5-1.7 3.3-4.2 8.8-5.5 12.3s-3.1 7.6-4 9.3c-2.3 4.3-2 8.9 1.3 23.8 1.7 7.3 3.5 16 4.2 19.4.6 3.5 1.6 6.3 2 6.3.5 0 .8-.3.7-.8-.1-.4.2-1.8.5-3.2.4-1.4 2-8.1 3.6-15 10.7-44.8 15-61.1 13.7-51.5-.2 1.6-1.7 8.2-3.3 14.5-6.2 23.9-13.4 55.2-12.8 55.8.3.3 5.5-3.9 19.3-15.7l5.3-4.6-.7-23c-.3-12.6-1-23.9-1.4-25s-.4-2.9 0-4c1-2.7 0-21.5-1.2-21.5-.5 0-.8 1.5-.8 3.2.1 3.8-1.4 11.2-3 14.8-1 2.3-1 2.2-.6-1 1.8-12.4 3.8-20.6 5.6-22.5 1.1-1.2 2-2.7 2-3.3 0-.7.7-1.2 1.6-1.2 1.8 0 2.7-.7 28.6-20.7C361 92.9 370.1 86 370.5 86c.3 0-4.9 4.4-11.7 9.7-6.8 5.4-17.2 13.7-23.3 18.5-6 4.9-11.5 8.8-12.1 8.8-.7 0-1.4.6-1.7 1.4-.5 1.2.3 1.4 4.1 1.1l4.7-.4-5.5 1.2c-4.9 1.1-5.5 1.5-5.4 3.7.2 3.3 1.7 65.8 1.7 69.2 0 1.6.3 2.8.6 2.8 1.2 0 5.8-6.6 15.1-21.5 5.1-8.3 10.6-16.8 12.2-19 3-4.2 10.4-15.5 12.4-19 4.7-8.5 5.9-10.3 8.1-12.9 1.3-1.5 3-4.1 3.8-5.7l1.5-2.8-8.7.4-8.8.4 7.5-.9c4.1-.5 8.4-1.2 9.5-1.4 2.4-.6 10.3-16.9 18.6-37.9 3-7.5 5.5-13.4 5.7-12.9.1.4-2.4 7.5-5.7 15.7m545.5 6.2c4.8 4.3 14.2 12.5 20.9 18.3 6.6 5.8 16.3 14.2 21.3 18.8 5.1 4.5 9.7 8 10.2 7.7.6-.4 1.3.1 1.6 1 .7 1.7 11.3 6.9 12.2 6 .3-.3-.2-1.3-1-2.2-3.7-4.4-2.7-4.3 1.3.1 2.4 2.7 5 6.3 5.7 8 2.4 5.3 7.1 20 6.7 20.4-.3.3-.7-.4-1.1-1.4-.3-1-2.2-6.2-4.3-11.4-3.6-9.4-3.7-9.5-9.1-12.2-3-1.5-6-2.7-6.6-2.8-2.1 0-2.4 2.9-.9 11.2 4.9 29.1 9.9 65.1 9.3 67-.3.7-1.5-5.5-2.7-13.7-1.2-8.3-3.3-22-4.6-30.5s-2.7-18.1-3.1-21.3c-.3-3.1-1-5.9-1.4-6.2-.4-.2-1 2.6-1.3 6.3-.6 6.5-2.8 24-6.2 50.6l-1.7 13 11.5 11.2c10.6 10.4 14.1 12.9 11.7 8.4-.5-1-1.2-5.1-1.5-9.2-.6-8.7-.1-8 1.5 2 .7 4.3 1.6 7 2.1 6.5s2.2-4.7 3.8-9.3c1.6-4.7 4.8-13.7 7.1-20 5.4-14.5 5.5-15.3 3.9-19.3-1.2-2.9-4.6-8.4-6-9.7-.3-.3-1.9-2.5-3.5-5-1.7-2.5-5.6-8.2-8.8-12.8-3.1-4.5-5.3-8.2-4.9-8.2.5 0 2.4 2.5 4.3 5.5s5.1 7.7 7 10.3 4 5.6 4.5 6.6c1.3 2.2 3.1 2.2 2.7-.1-.2-.8.1-1.2.7-.8.6.3 1.1 1.8 1.1 3.3 0 1.7.3 2.3 1 1.6s.5-2.6-.5-6c-1.8-6.1-1.9-7.7 0-4.4.7 1.4 2.2 6.1 3.3 10.5 12.7 50.8 13 51.8 14.7 62.5 2.8 16.8 6.5 36.1 9.5 49.6 3.5 15.2 3.4 14.5 1.8 14.2-.7-.2-1.2.5-1.2 1.4.1 1-.4 1.8-1.1 1.8-.8 0-1.7.9-2 2.1-.4 1.1-.9 1.8-1.2 1.5s.2-1.7 1.1-3c.9-1.4 1.6-2.7 1.6-3s-3 .9-6.7 2.6c-8.2 3.8-26.6 14.8-25.9 15.6.3.3 1.2 0 1.9-.7.8-.6 2.1-.9 3-.6.9.4 2.3-.4 3.4-1.9 2.5-3.1 3.4-2.5 2.3 1.4-.8 2.9.5 3.8 2.2 1.5.5-.6.8-.5.8.2 0 2.4 1.9 1.3 8.7-5 7-6.4 7-5.4 0 2-2.2 2.2-3.6 4.6-3.2 5.2.3.6 1.1.9 1.6.6.5-.4.9-.2.9.3s1 .8 2.1.8c1.2-.1 2.4.5 2.7 1.3.3 1 0 1.2-1.2.8-.9-.4-1.6-.2-1.6.3 0 1.3 2.7 1.3 3.5 0 .4-.6 1-.8 1.4-.5.5.2 1.4-2.2 2.1-5.5s1.7-6 2.1-6c.5 0 .9.6.9 1.2.1 2.3 1.7-1.5 2.4-5.6.4-2.1 1-3.6 1.3-3.3s-.6 6.6-2 13.9c-1.5 7.4-2.8 18.7-3.1 25.7-.4 9.2-.9 12.9-2.2 14.9s-1.5 3.7-.9 8.6c.3 3.4.9 12.1 1.1 19.4.3 10.3.1 13.9-1 16-1.3 2.5-1.4 2-1-5.8l.5-8.5-2.6 7c-1.5 3.8-2.8 8.8-3 11-.2 2.5-1.6 6-3.8 9.2-1.9 2.9-4.3 7.2-5.2 9.7-1 2.6-2.2 4.6-2.6 4.6-.5 0-.9-.2-.9-.4s-.3-1.2-.7-2.2c-.4-1.2-.2-1.5.8-1.2.9.3 2.6-2 5.1-7.1 2.1-4.2 3.8-8.2 3.8-8.8 0-1.4-.9-1.6-11.1-3.2-9.5-1.6-10.8-1.4-11.9 1.1-.9 2.3-.9 2.3-.9.1-.1-1.8-.6-2.1-3.8-1.8-2.1.1-2.9 0-1.8-.2 1.1-.3 2.4-.8 2.8-1.3.9-.8-.4-3.9-2.6-6.2-.7-.7-2.4-3.4-3.7-6.1-1.3-2.6-2.7-4.7-3.2-4.7-.4 0-.8-.6-.8-1.4 0-1.6-1.8-3.1-2.6-2.3-.3.2.4 3.1 1.5 6.3 3.6 11 6.3 19.9 8.2 27.4 1.1 4.1 3 9.7 4.3 12.5 3.5 7.4 5.4 14.2 4.5 15.7-.5.7-.9 3-.9 5 0 2.1-.5 3.8-1.1 3.8-.7 0-.9-1.6-.4-5l.7-5h-7.6c-5.9 0-7.8.3-8.2 1.5-.4 1-2 1.5-4.4 1.5-2.1 0-4 .3-4.2.7-.4 1.1-5.6 4.6-9.8 6.8-1.9 1-5 3.1-6.9 4.7l-3.4 3-2.1-2.5c-2-2.5-19.4-13.2-20.1-12.5-.2.2 0 2 .4 4.1.5 2 .5 3.5.1 3.2-1.4-.8-2.3-7.8-2.1-15 .2-3.9.1-6.8-.2-6.5-1.3 1.4-14.9 43.1-14.2 43.8.2.2.6-.6 1-1.7.4-1.5 1.5-2.1 3.4-2.1 4.6 0 10.1-2.7 10.1-5 0-1.3.7-2 1.9-2 1.4 0 2.1-.8 2.4-2.7.4-2.7.4-2.7 1.2-.5.4 1.2 1.3 2.2 2 2.2.8 0 3.5 1.1 6.2 2.5 2.8 1.4 4 2.5 2.9 2.5-1 0-3.4-.9-5.2-2.1l-3.4-2.1v2.1c0 1.2.5 2.2 1 2.2.6.1 1.5.2 2 .3 1.1.1 3 2.5 3 3.8 0 .5-.7.8-1.6.8-.8 0-1.3.4-1 .9s1.5.7 2.6.4c1.8-.5 2.5.7 2.2 3.8-.1.3.6.6 1.4.6s1.4-.4 1.4-.8c0-.5.6-.6 1.4-.3 1 .4 1.5-.5 1.8-3 .3-2.8-.1-4-1.6-5.1-1.9-1.4-1.9-1.4.8-.2l2.8 1.4-.1 11.4c-.1 12.3.6 12.7 3.3 2.1.9-3.5 2.5-8.3 3.5-10.5l2-4.2-.4 3.9c-.3 2.9.1 4.6 1.9 7 2.9 3.8 7.6 13.1 7.6 14.8-.1.7-1.8-1.8-3.8-5.6s-4.3-8-5.1-9.5l-1.4-2.5-1.4 3.8c-.7 2.2-1.8 6.7-2.4 10-2.4 12.9-2.4 12.1 1.3 13.7 5.7 2.4 5.8 2.3 5.2-4.4-.3-3.4-1-7.5-1.5-9.1-1.2-3.7-1.2-7.6 0-7.6.8 0 1.8 4.3 3.9 17.9.4 2.5 1.2 4.6 1.7 4.8.6.1 2.3-.8 3.9-2 2.6-2.1 2.8-2.7 1.9-5.3-.5-1.6-.6-4.6-.1-6.9.4-2.2.8-9.3.8-15.8 0-11 .1-11.7 2-11.7 1.1 0 2 .4 2 1 0 .5-.4 1-1 1s-1 3.1-1 7.2c0 4.3.4 6.8.9 6 .5-.9 1.2.7 2 4.5 1.6 7.9 5.2 19.3 6.2 19.3.4 0 .3-1.5-.2-3.3-.5-1.7-.9-9.1-.8-16.2.1-7.2-.3-14.9-.9-17.2-.9-3.9-.7-5.3.7-5.3.3 0 .7 1.8.8 4 .2 2.2.7 4.8 1.2 5.8.4.9.7 7.7.6 14.9-.2 12.3.4 15.9 1.9 11.6 1.1-3.4 8.8-14.5 12.6-18.3.5-.5 11.6-23.1 13-26.5.5-1.1 1.8-4.2 2.9-6.9 1.7-3.8 1.8-4.7.6-4.2-2 .7-1.9.3.9-2.7 2-2.2 2.5-4 3-10.9 1.2-15.6 1.4-16.3 1.1-3.8-.2 12.2-.3 12.7-4.6 23.5-2.5 6-5.3 13.9-6.3 17.5s-2.2 7.4-2.6 8.5-1.3 4-2 6.5c-.6 2.5-2.3 7.4-3.6 11s-2.4 7.3-2.4 8.1c0 .9-.9 3.8-1.9 6.5-1.1 2.7-2.2 6.2-2.6 7.8-.3 1.5-.8 2.7-1 2.5-.4-.5.9-7 3-14.4 2.5-8.7 2.9-11.2 1.7-10-.5.5-1.7 3.5-2.7 6.5s-2.1 5.9-2.6 6.4-.4-.6.2-2.5c1.5-4.8 2.6-8.8 3.8-13.2.8-3.3.7-3.8-.7-3.5-1 .2-2.8 2.4-4.2 5-1.4 2.5-3.5 6.2-4.6 8.1-1.5 2.4-1.9 3.9-1.2 5 .7 1.3.5 1.5-.7 1.1-1.1-.5-1.5 0-1.5 1.7.1 7.5 4 9.5 6.6 3.4.8-1.9 1.9-3.5 2.5-3.5 1.2 0 .2 3.8-1.6 6-.7.8-2.1 3.7-3 6.5-5.7 16.2-7.1 19.7-8 19.4-1.2-.4-.7-3.2.8-4.1 1-.6 4.6-12.8 4.7-16 0-1.3-1.2-.9-6 1.9-5.5 3.3-6 3.9-6.1 7.2-.1 3.5-.1 3.5-1 1-.7-2-1.6-2.6-3.4-2.5-1.4 0-2.5.5-2.5 1s-.3.6-.7.3c-.3-.4-1.2-.2-2 .4-.7.6-1.3.8-1.3.3s-.4-.5-.8.1c-.4.5-1.6 1.5-2.7 2.1-1.8 1-2 2-1.7 9 .2 4.4.8 8.4 1.3 9.1.7.8.4 1.5-1 2.3-1.2.6-2.1.7-2.1.1 0-1.1-5.3-2.4-21.5-5.1-6.6-1.2-13.8-2.7-16-3.5-4-1.3-4-1.3-4.6 1.3-.4 1.5-.7 1.9-.8 1-.2-2.7-1.7-3-5.5-.7-4.8 2.8-4.6 1.8.4-1.6l4-2.8-2.7-1.5c-1.6-.8-5.9-3-9.7-4.9-3.7-1.9-9.5-5.2-12.9-7.3-5-3.2-6-4.3-6.2-6.9-.2-2.8-.1-3 1-1.4 1.3 1.7 1.5 1.7 4.1-.7 2.4-2.3 2.6-2.3 1.5-.3-.6 1.2-1.6 2.3-2.3 2.5-.6.2-.8.9-.5 1.5.5.7 3.7 1 9 .7 4.5-.2 7.3-.1 6.2.2-3.8 1.1-3.6 2.1.6 2.2 2.2.1 4.4.4 4.8.7.4.2 7.9.9 16.7 1.5 20 1.3 27.5 2 29.5 2.6.9.2 2.8-.5 4.3-1.7s3-1.9 3.3-1.5c.3.3 1.4.1 2.5-.5 1.2-.6 2.4-.7 3.1-.1.7.5 2.3.6 3.7.2 2.2-.5 2.3-.7.7-1.3-1.1-.4-2.4-.4-2.9 0-.7.4-.8.1-.3-.6.4-.7 1.5-1.1 2.5-.8 1.3.3 1.7 0 1.3-.9-.7-1.8 1.4-1.8 2.4 0 .7 1.2 1.3 1.2 4.1.1 1.7-.8 3.2-1.9 3.2-2.5 0-.5.8-1 1.8-1 1.4 0 1.5-.2.2-1-.8-.5-1.7-.6-2-.1-.7 1.1-5.3 4.1-6.2 4.1-.5 0-.8-.3-.8-.8 0-.7 2.2-2.1 7.3-4.4 2.6-1.2 2.7-1.6 2.1-5.3-1.4-8.7-6.2-27-7-26.7-.5.1-.9 4.9-.9 10.5l.1 10.3-4.8 3.4c-4.4 3-5 3.1-6.6 1.7-.9-.8-2.9-1.9-4.5-2.2-1.5-.4-3-1.1-3.3-1.6s-1.2-.9-2-.9c-1.2 0-18.7 8.4-27.9 13.4-3.8 2-6.2 2.2-4.6.3 1.2-1.5 0-2.8-7.4-8.2-2.2-1.6-5.9-4.7-8.1-6.8l-4.2-3.8-2.1 2.8c-3.3 4.4-3.4 4.6-6.4 8.1-1.5 1.9-2.7 3-2.7 2.5s2.3-3.7 5.1-7.1c2.8-3.5 4.7-6.7 4.3-7.1-.5-.5-2.3-1.3-4.1-1.9-2.5-.8-3.4-.8-4.4.4-1.8 2.2-3 1.7-2.7-1.2.3-2.1-.5-3-4.2-5-15.5-8.6-16.5-8.9-18-6.6-.9 1.4-1 1.3-.5-.5.4-1.4-.4-4.5-2.1-8.3-1.5-3.3-2.4-6.3-2.2-6.6.3-.3 1.6 1.7 2.9 4.5s3.1 5 3.9 5 5.9-4.3 11.3-9.7c8.1-8 9.8-10.3 9.9-12.9.1-2.1.5-3 1.4-2.6 1.3.5 3.4-7.3 3.4-13 0-1.8.5-3.9 1.1-4.7.8-1.1.9-.8.5 1.5-1 6.2-1.8 15.5-1.2 15.5s20.5-23.1 27.6-32c1.9-2.4 5-6 6.9-8.1l3.3-3.9-2.7-1c-1.4-.5-3.8-1-5.3-1s-4.5-.5-6.7-.9c-2.2-.5-7-1.3-10.7-1.6l-6.7-.7-.5 3.3c-.2 1.9-1 7.4-1.6 12.2-1.7 12.3-2.4 10.2-1-2.8.8-6.6.8-11.1.3-11.6-.6-.6-5.4-.4-12.7.6-6.4.8-11.9 1.5-12.1 1.5s-1.1.7-1.9 1.6c-.9.8-1.6 1.1-1.6.5s-.7-1.1-1.5-1.1-1.5.3-1.5.7c.1 1.6 8.6 16.7 9.6 17s3.9-2.5 15.7-15.2c2.6-2.8 4.7-4.5 4.7-4 0 1.1-2.4 3.8-13.7 15.7-6.2 6.5-6.4 6.8-4.9 9 2.5 3.5 1.9 4.6-.7 1.4-2.3-2.8-2.3-2.8-5.6-1.2-1.8 1-3.5 1.5-3.8 1.2s1.1-1.2 3.1-2 3.6-1.9 3.6-2.3-1.9-4.7-4.2-9.5c-4.8-9.6-6.7-11.2-14.6-12.2-5.3-.7-9.1-1.6-32.7-8.1-15.6-4.2-15.9-4.2-14.5-1.3 1.1 2.3 1.1 2.3-.9-.1-1.2-1.3-2.1-2-2.1-1.5 0 .4-.5.3-1.1-.3-.8-.8-3.3-.4-9.1 1.4-4.4 1.3-8.5 2.2-9.1 2s2.2-1.2 6.3-2.3c4.1-1 8.3-2.7 9.2-3.7 2.3-2.2 2.2-3.4-.2-24.7-1.1-9.6-1.9-19.4-1.8-21.7.1-2.4-.1-4.5-.4-4.9-.7-.6-6.4 2.1-7 3.4-.5 1.3-17 13.3-20.5 15-1.8.9-3.3 2.3-3.3 3.1 0 .9 6.9 6.9 15.4 13.4 13.5 10.3 21.5 17.1 16.6 14.2-1.8-1.1-16.1-11.9-24.6-18.7-3.4-2.6-6.7-4.8-7.3-4.8-1.2 0-5.1-3.6-5.1-4.8 0-.4-.8-1.2-1.7-1.8-2.1-1.3-22.1-18.4-27.3-23.3-1.9-1.8-4.5-3.7-5.8-4.2-1.2-.5-2.5-1.7-2.9-2.6-.4-1-3.6-5.6-7.2-10.3-3.5-4.7-6.9-9.1-7.4-9.8-.5-.6-.7-1.2-.5-1.2.3 0 4.2 4.6 8.6 10.2 4.4 5.7 10.7 12.6 13.9 15.4 5.6 4.9 27 23.1 30.5 25.9 2.7 2.2 8.2-1.1 26.7-15.9 7-5.6 7-5.5-1.7-10.9-2.8-1.8-8.5-5.3-12.6-7.9L784 330v9.8c0 12.2-1.1 29.2-1.9 29.2-.3 0-.6-9.1-.6-20.2v-20.3l-19.5-9.7c-10.7-5.3-19.1-9.7-18.7-9.7.4-.1 8.9 3.7 18.9 8.4 9.9 4.7 18.7 8.5 19.4 8.5.8 0 1.5-.8 1.5-1.8.1-1.6.2-1.6.6.1.5 2.1-.2 2.5 21-11 7.2-4.5 14.3-8.8 15.7-9.5 1.4-.6 2.6-1.9 2.6-2.9 0-1.7-2.2-8.4-5.5-16.9-1.4-3.7-7.8-20.7-14-37.5-7.5-20.1-10-26.4-10.6-26.5-.3 0-.9 3.3-1.2 7.2-.3 4-1.2 14.3-1.9 22.8-.6 8.5-1.4 14.7-1.6 13.8-.4-2.2 2.6-43.6 3.3-44.8.3-.4.1-1.9-.4-3.2-.9-2.5-.2-2.3-22.1-6.4-15.5-2.9-19-3.7-18.6-4.2.5-.4 14.5 1.8 26.8 4.4 6.9 1.4 11.8 1.8 11.8.9 0-.3-3.4-7.6-7.6-16.3-4.2-8.6-8.9-18.6-10.4-22.2s-4.6-10.3-6.8-15-5.4-11.5-7.1-15.3c-1.6-3.7-3.4-6.7-3.9-6.7s-.7-1.1-.5-2.4c.3-1.4 1-2.3 1.7-2 1.3.5 9.9-2.6 20.1-7.1 12.6-5.6 17.4-7.5 27.7-11.1 5.1-1.7 7.9-3.3 8.3-4.5.4-1 1.2-1.6 2-1.3s7.9-1.1 15.7-3.1c7.9-2.1 18.3-4.7 23.3-6 4.9-1.2 9.1-2.7 9.3-3.3s.9-.9 1.6-.6c.6.2 2.9-.2 4.9-1.1 5-2 6-1.8 1.8.4l-3.5 1.8 28.5 14.2c15.6 7.8 31.3 15.7 34.9 17.7l6.5 3.5.6-2.8c.4-1.5.7-2.1.8-1.2 0 .9.9 2.6 1.9 3.7 1.4 1.8 4.7 2.4 22.2 4.6 11.3 1.5 22.5 2.9 25 3.2l4.5.6-3.5-3.2c-1.9-1.7-5.3-4.8-7.5-6.8-2.2-2.1-7.4-6.6-11.5-10.2s-8-7-8.6-7.5c-.6-.6-5.5-4.8-10.9-9.5-17-14.7-20.5-18-19.6-18 .5 0 4.8 3.5 9.7 7.7m-274 214.7c1 .8 1.6 1.8 1.1 2.2-.4.4-.7.2-.7-.4 0-.7-1.4-1.2-3.1-1.2-2.6 0-3 .3-2.7 2.2.2 1.6-.2 2.3-1.4 2.3-1 0-4.3 1.9-7.5 4.2-6.3 4.6-26.8 24-27.4 26-.3.8-.9.9-1.9.3-1.3-.8-1.2-1.2.8-2.5 3-2.2 2.8-3.3-1-5-2.9-1.2-2.5-2 .7-1.6 1.5.1 1.7-5.1.3-6-1.9-1.2 10.3-11.5 17.5-14.7 4.4-1.9 4.6-1.4.2 1.1-3.7 2.1-4 2.6-4.1 7-.1 2.6.1 4.7.4 4.7.8 0 10.2-7.4 15.2-12 4.3-3.9 4.4-4.1 1.6-3.5-1.5.3-4.2.8-6 1.1-3 .4-3 .4.9-1.5 2.2-1.1 5.6-2 7.5-2 1.9-.1 4.2-.6 5-1.1 2-1.3 2.3-1.2 4.6.4m-6.3 68.6c-.3 1.1-.9 2.3-1.4 2.6-1.8 1.1-.8 5.1 1.7 7.3l2.6 2.2 3.4-2.6c1.9-1.4 3.4-3 3.4-3.6 0-.5.5-.9 1-.9.6 0 .4 1.2-.5 2.9-.8 1.6-1.1 3.1-.7 3.4.4.2.1.2-.5.1-.7-.2-2.6 1.7-4.3 4.1-3.9 5.7-7.2 8.2-13.2 10-2.7.8-6.2 2.3-7.7 3.5-3.1 2.2-7.6 9-8.6 13.2-.7 2.8-5.1 5.3-17 9.8-3.3 1.2-8 3-10.4 3.9s-6.4 3.5-8.8 5.9-3.9 3.4-3.3 2.2c.6-1.1.8-3 .4-4.2-.4-1.3-.2-1.8.4-1.4.6.3 3.9-.7 7.4-2.2 3.5-1.6 8.8-3.7 11.8-4.7 6.7-2.2 13-5.3 13-6.4 0-.9-5.3-3.3-11.4-5.2-3.1-.9-4-.9-4.7.2-.7 1.2-.9 1.1-1-.1 0-1-.3-.8-.8.5s-.3 2.8.6 4.2c.8 1.2 1.3 3 1 4-.4 1.7-.5 1.6-1.2-.2-1.6-4-2.7-4.7-4.1-2.8-1.1 1.4-1.1.9.1-2.5.8-2.3 1.2-4.9.9-5.7-.4-.9.1-1.8 1.2-2.2 1.1-.3 3.3-1.7 5-2.9 2.1-1.7 4.1-2.3 7-2.1 3.9.3 12-3 13.6-5.6.6-.9.8-.8.9.3 0 1 .3.8.9-.5.7-1.7.9-1.7.9-.3.1 1 .9 1.8 1.9 1.9 3.5.2 7.8-.3 9.5-1.2 1.8-1 2.3-4.4.7-5.4-.5-.3-1-1.7-1-3s-.7-3-1.5-3.8c-1.2-1.3-1.2-1.6.7-2 1.6-.5 1.9-1.2 1.6-3.2-.5-2.5-.5-2.5 1.3-.9s2 1.6 3.7.1c1-.9 2.4-3.2 3.2-5.2 1.5-3.7 3.2-4.9 2.3-1.5m-387.7 77c1.5 4.1 3.2 8.8 3.9 10.5.7 1.6 3.2 8.5 5.5 15.2 2.3 6.8 4.6 12 5.1 11.7s.9-2.9 1-5.7c.1-4.8.1-5 1-2.2.6 1.6 1.3 7.2 1.6 12.3s.9 9.5 1.3 9.7c1.4.9 2.2-8.6 1.4-17.3-.5-6.1-.3-8.3.4-7.8.8.5 1.1 5.2 1 14-.1 7.3.2 13.8.6 14.4s.2 3-.4 5.3c-1 3.5-.9 4.4.6 6 1.7 1.9 1.7 2-.2 1.4-1.7-.6-1.6-.4.4 1.3 2.9 2.6 2.8 3-.4 2.4-2.8-.5-6.1-6.3-4.8-8.3 1.1-1.9-1.7-16.3-3.5-17.7-.9-.7-1.6-1.8-1.6-2.5-.2-2.5-2.8-10.8-3.6-11.3-.5-.3-.9-1.4-.9-2.4 0-2.2-3.2-12.1-8.6-26.5-2-5.5-3.8-12-4-14.5l-.3-4.5.9 4.5c.6 2.5 2.2 7.9 3.6 12m149.9 110c-.4.6-.2 1.7.4 2.4.8 1 .5 1.6-1.2 2.5-1.3.7-2.7 1.1-3.3 1-1.3-.3-6.2 1.1-10.9 3.1-12.7 5.5-40.8 16-42.9 16-1.7 0-1.8.2-1.8 7.5l.1 5-1.1-4.5c-.5-2.5-1.1-4.6-1.3-4.8-.2-.3-8.4 5-24.5 15.7-3 2.1-5.5 4.2-5.5 4.9 0 1.3 2.9 3.2 22.3 14.8 10.5 6.3 13.5 8.5 9.5 6.9-1.8-.6-14.5-8.4-26.5-16.2-3.7-2.3-7.1-4.3-7.6-4.3-.8 0-6.6-9.2-7.8-12.5-.4-1.1-2.1-4.2-3.6-6.9-1.6-2.7-2.7-5-2.5-5.3.5-.4 2.3 2.6 9.3 15.4 1.6 2.9 3.1 5.3 3.4 5.3.6 0 4.4-19.9 3.9-20.4-.2-.2-3.8-.9-7.9-1.5-9.3-1.3-10.2-.7-9.5 6.3.3 3.5 0 2.6-1.1-2.8-.8-4.3-2.5-10.8-3.8-14.5-4.5-12.4-4.1-12.1 2.4 2.1 3.4 7.3 2.1 6.6 15.4 8.4l4.9.7-.7-4.4c-.8-4.9.3-4.7 1.3.3.6 2.9 1.2 3.4 4.6 4 5 .9 19.2 1 22.3.2 1.7-.5 2.2-1.4 2.3-4.3.2-3.4.2-3.4.6-.6.8 4.8 2.3 5.1 10.3 2 1.9-.7 6.7-2.6 10.5-4 3.9-1.5 12-4.6 18-7 6.1-2.4 12.3-4.7 13.8-5.1 4-.9 2.1-2.2-3.8-2.7l-5-.3 5.6-.2c3.3-.1 6 .3 6.8 1 .7.7 1.1.8.9.3-.2-.6.4-1.8 1.2-2.7 1.6-1.9 3.5-2.4 2.5-.8M989 575.8c0 .4-1.3 2.3-3 4.2-1.6 1.9-2.9 4.1-3 4.7 0 .7-.4 1.3-.9 1.3-1.3 0-2.5 3.8-2.4 7.5.1 2.6.1 2.7-.5.6-.7-2.2-1-2-4.3 3-2 3-4.7 7.3-6 9.6-1.2 2.4-2.6 4.3-3 4.3s-1.2 1.5-1.9 3.2c-1.1 3.2-1.1 3.3-2.8 1.3-3.4-4-29-22.1-29.9-21.1-.3.3-1.3-.3-2.2-1.3s-3.8-2.6-6.4-3.6c-2.7-.9-4.6-1.9-4.3-2.2.2-.2 1.3 0 2.3.5s3.4 1.2 5.4 1.5c3.1.4 3.8.2 4.7-1.6 1-2.1 1.1-2.1 1.1.5l.1 2.7 6-3.6c3.3-2 6.3-3.4 6.5-3.1.2.2-1.6 1.5-4 2.8-2.5 1.4-4.5 2.9-4.5 3.3 0 .8 19.5.5 22.5-.3.6-.1 2.8-.1 5 0 3.8.2 3.9.3 1 .9l-3 .7.2 6.9c.1 3.9.5 8.5.8 10.4l.6 3.4 2-2.9c6.9-10 12.9-20.1 12.9-21.6 0-1 .5-1.8 1-1.8.6 0 1.4-.8 1.8-1.9.4-1 2.1-3.4 3.7-5.4 2.9-3.5 4.5-4.6 4.5-2.9m215.2 99.7c1.1 1.4 2.3 2.3 2.8 2 .8-.5 2.4 3.1 3.4 7.5.5 2.1.4 2.1-.9-.5-.8-1.7-1.4-3.6-1.5-4.4 0-.8-.3-1.1-.6-.8-.8.8 1.5 9.8 2.8 11.2.6.6.8.5.6-.5-.2-.9.4-1.4 1.4-1.4 1 .1 1.5-.2 1.2-.7s.5-4 1.7-7.9c1.8-5.4 2.7-7 4.2-7 1.4 0 1.7.5 1.2 1.7-3.8 9.7-6.6 18.1-6.8 20.9-.1 2.4-.6 3.3-1.5 2.9-.8-.3-1.9-.5-2.6-.5-1.1 0-9.6-21.1-9.6-23.9 0-1.9 2.1-1.2 4.2 1.4m21 4c-.5 2.6.6 3.3 2.5 1.4 1.4-1.4 6.7-.3 8.4 1.7.6.8 1.6 1.4 2.2 1.4s1.8.7 2.8 1.6c1.6 1.4 1.8 1.4 2.9-.5 1.5-2.9 6.7-5.4 9.6-4.7 5.1 1.3 11.4 6 12.5 9.4.6 1.8.9 3.6.6 3.8-.3.3-.8-.8-1.2-2.4-.6-2.9-4.5-7.6-4.5-5.5 0 .6.7 1.6 1.5 2.3s1.5 1.8 1.4 2.4c0 .7-.2.6-.6-.2-.7-1.9-2.3-1.4-2.3.7 0 2.9-4.6 7.9-6 6.5-.7-.7-.5-1.6 1-2.9 2.7-2.4 2.7-7.5.1-7.5-2.2 0-5.1 3.5-5.1 6 .1 2.1 4.6 7 6.5 7 .9 0 2.7-1.2 4.1-2.6 1.5-1.4 2.4-2 2.2-1.3s-1.6 2.2-3.1 3.3c-2.4 1.7-3.2 1.9-5.8.9-2.7-1.1-2.9-1-1.7.4 1.2 1.5 1.1 1.5-.9.5-1.2-.7-2.9-2.2-3.7-3.4-.9-1.2-1.6-1.9-1.6-1.4 0 .4-1.1-.1-2.5-1.2-1.5-1.2-3.4-1.8-5-1.4-1.4.2-2.4.7-2.1.9.3.3-.5 1.4-1.7 2.3-3.2 2.7-1.2 3.7 2.8 1.5 4.3-2.3 5.7-1.2 2.5 1.8l-2.4 2.2 1.8-2.3c2.2-2.6 1.5-2.8-1.9-.6-1.6 1-3.4 1.4-5.1 1-1.8-.5-2.4-.3-1.8.5.9 1.5-.7.6-5.4-2.9-2.2-1.7-3.1-3-2.7-4.1.3-.8.3-1.2-.1-.9-.9 1-2.9-1.3-3.7-4-.3-1.3-.3-2.1 0-1.8.6.6 4.3-6.2 4.3-8 0-.7-.6-1.5-1.2-1.7-.7-.3-.3-.6.8-.6 1.7-.1 2 .4 1.6 2.4"/><path d="M447 89.1c-5.8 2.6-13.6 6.3-17.5 8-3.8 1.8-9.9 4.6-13.5 6.2s-11.2 5.1-16.8 7.8c-5.7 2.7-10.7 4.9-11.2 4.9-.4 0-1.3.7-2 1.6-1.2 1.4.9 1.4 21.6.8l22.9-.7 3-3.2c4.6-5 19.9-23.5 21.2-25.8.6-1.1 1.7-2.3 2.4-2.8.8-.4 1.1-1 .9-1.2-.3-.2-5.2 1.8-11 4.4M465.6 85.8c-.6 1 7.7 18.5 8.5 17.8.3-.3.5.3.6 1.2.3 3 6.9 16.3 7.8 15.5.4-.5.5-.3.2.3-.8 1.4 2.8 9.2 5.3 11.6 2.1 2 2.3 1.9 10.3-11.8 1.5-2.5 2.7-5 2.7-5.5s.9-2.3 2-4.1c2.6-4.3 2.5-4.6-.7-5-2.4-.3-2.8-.7-2.6-3.2.3-3.9.9-4.3 3.1-1.6 1.3 1.6 2.5 2.1 3.7 1.6 1.7-.6 1.7-.7-.1-2.1-1.5-1.1-1.6-1.4-.4-1.5 1.4 0-17.5-6.6-29.9-10.5-5.3-1.6-8.8-1.4-7.6.5.3.5.1 1-.6 1-.6 0-.9-.8-.6-2 .5-2-.7-3.7-1.7-2.2M509.5 105.1c-1.4 2.2-3.1 5.2-3.8 6.7-.6 1.5-1.4 2.9-1.7 3.2-.4.3-2.8 4.5-5.3 9.4-3.3 6.1-4.4 9.3-3.7 10 .9.9 1.5-.3 1.1-2.6-.1-.8 6.1-.4 7.5.4 1.1.6 4.4.3 13.9-1.2 8.8-1.5 42.9-8.1 43.3-8.4.1-.2-1.7-.9-4-1.6-2.4-.6-4.5-1.5-4.8-1.9-.5-.7-19.7-10.1-20.7-10.1-.2 0-2.5-1-5.1-2.1-2.6-1.2-6.6-3-8.9-4-2.3-1.1-4.4-1.9-4.7-1.9s-1.7 1.8-3.1 4.1M557.9 126.4c-.3.3-3.4.8-6.9 1.2-3.6.4-6.7 1-7 1.4s-1.4.9-2.5 1.1c-1.2.3-2.1 1.4-2.3 2.7-.4 2.4-3.2 3.1-3.2.8 0-1.8-1.7-2.4-5-1.7l-2.5.5 2.5.7c2.3.6 2.3.7.3.8-3.3.2-3.6 1.6-.9 4.8 1.4 1.6 2.8 4.1 3.1 5.6.7 2.5 2.5 3.8 2.5 1.8 0-.5 2-.6 4.5-.3 2.8.3 5 0 5.9-.8.9-.6 1.9-.9 2.4-.7.4.3 1.4.2 2.1-.2 1-.6.9-1.1-.3-2.4-2.1-2.1-2-6.7.2-8.3 2-1.6 8.2-1.8 8.2-.3 0 .5-.4.7-1 .4-.5-.3-1 .4-1 1.6 0 1.8.2 1.9 1.5.9.8-.7 1.5-2.1 1.5-3.1 0-1.1.4-1.9.9-1.9 1 0 2.3-4.2 1.5-4.9-.3-.3-.9.1-1.4.9-.7 1-1 1.1-1 .2 0-1.2-1.2-1.6-2.1-.8M565.7 127.7c-.3.5-3.7 7.1-7.7 14.8s-8 15.1-8.9 16.5c-1 1.4-3.2 5.4-5 9-1.9 3.6-3.9 7.2-4.5 8-.7.8-2.1 3.3-3.1 5.5-1.1 2.2-2.7 5.1-3.7 6.5-3.9 6-7.8 14-6.8 14 .5 0 5.6-.7 11.3-1.6 5.6-.8 19-2.8 29.7-4.4s23.1-3.6 27.5-4.4c4.4-.9 9.2-1.5 10.8-1.6 1.5 0 2.7-.4 2.7-1 0-.8-13.6-21.9-18-28-1-1.4-6.5-9.6-12.2-18.2-5.7-8.7-10.6-15.8-11-15.8s-.9.3-1.1.7M367.5 137.4c-5.4 7.7-37.8 57.1-43.5 66.2-1.5 2.4-1.3 2.7 8.3 12 5.4 5.3 10.2 9.2 10.7 8.8 1.7-2 5-14.1 5-18.5 0-3.1.5-5.1 1.4-5.6.8-.4 3.5-7.6 6.1-15.8 2.6-8.3 6.3-19.7 8.2-25.4 3.7-11.2 6.5-23.1 5.4-23.1-.3 0-1.1.6-1.6 1.4M281.7 189.6c-.3 1-1.3 5-2.2 8.9-.9 3.8-2 8.6-2.5 10.5-6.2 24.2-6.6 29-3.1 41 5.8 19.5 8 28.5 8.1 32.4 0 2.3.3 2.6 1.4 1.7 1.9-1.6 3.2-10.9 1.7-12.4-1.6-1.6-1.4-2.4.9-3 1.5-.4 2-1.4 2-3.9 0-4.4 2.2-19.9 2.7-19.4.4.4 0 4.9-2.1 22.6-.2 1.9-1.2 7.1-2.1 11.5-1.6 7.5-1.6 8 0 9 .9.5 6.9 4.4 13.3 8.6 8.9 5.7 11.8 7.2 12 6 .1-.9-.9-5.4-2.3-10.1-7.3-23.8-9.8-32.5-12.7-43.5-1.8-6.6-3.6-12.2-4-12.3-.4-.2-.8-1.5-.8-2.9 0-2.3-.2-2.4-4.2-1.9l-4.3.6 3.5-1.3c3.4-1.2 3.5-1.4 3.2-5.7-.1-2.5-.7-6.5-1.2-9-.6-2.5-1.2-5.9-1.4-7.7-.6-4.8-3.7-18.6-4.6-20.2-.6-1.1-.9-1-1.3.5M499.5 206.1c-7.1.5-15 1.2-17.5 1.6l-4.5.9.3 11.4c.9 34.3 3 68.6 4.2 67.3.4-.4 3.8-7.3 7.5-15.3s9.7-20.6 13.3-28c7.1-14.9 11.6-24.7 13.8-30 .8-1.9 1.9-4.3 2.4-5.2 2.3-4.2 3-4.1-19.5-2.7M318.4 209.2c-8.5 6.5-22.3 19.1-21.8 20 .4.6 3.4.7 7.3.4 3.6-.3 13.2-.8 21.4-1.2 8.1-.4 14.9-1 15.2-1.4.2-.3-4-5-9.4-10.4l-9.7-9.7zM472.5 217c-.4 1.6-1 3-1.3 3-1 0-3.2 5-3.2 7.1s-2 3.7-2 1.7c0-.7-1.1.4-2.4 2.6-1.4 2.1-2.2 4.6-1.9 5.5.4 1.4.3 1.4-.6.1-1.2-1.7-1.3-1.6-1.6 2.5-.3 2.9.1 4 4.4 13.7 9.3 21.1 13.8 30.5 14.7 31.1.6.3.6-2.3.3-6.1-.4-3.7-1.2-18.2-1.8-32.2-1.2-27-1.7-32-3.1-32-.4 0-1.1 1.3-1.5 3M349.8 228.7l-4.8.4v6.2c0 3.4.5 15.6 1.2 27l1.2 20.9 3.5-3.9c2-2.1 6.8-7.5 10.6-11.8 3.9-4.4 9.6-10.7 12.7-14s7.8-8.7 10.5-12c2.6-3.3 5.4-6.5 6.2-7.1 1.1-.9.7-1.3-2.3-1.8-2.6-.5-4-1.4-4.3-2.7-.5-1.8-1.5-1.9-15.2-1.7-8 .1-16.7.3-19.3.5"/><path d="M318 230.1c-4.7.4-11.8.7-15.8.8-5.3.1-7.4.5-7.8 1.5-.6 1.6 3.4 18.8 6.5 28.4 1 3.1 2.6 8.2 3.5 11.2s2.1 6.4 2.5 7.5c.5 1.1 2.1 6.5 3.5 12 1.5 5.5 3 10.8 3.3 11.9.9 3.3 2.8-.2 7.3-13.2 2.4-6.7 4.4-12.1 4.6-11.9s-1.4 5.7-3.5 12.3c-5.7 18-5.6 16.9-1.8 19.1 6.8 4 24.6 11.3 26 10.7.8-.3 1.8 0 2.2.6.7 1.1 17.2.7 23.3-.6 2.8-.6 2.8-2.5.1-11.7-2.6-9-3.8-10.5-11.9-14.7-3.6-1.9-7.6-4.2-8.9-5.2-1.5-1.2-3.2-1.6-4.9-1.1-2.2.5-2.4.3-1.8-1.3.8-1.9.9-25.2.1-26.4-.2-.3-.5-6.7-.7-14.3-.2-12.2-.4-13.4-1.6-11.1-.8 1.4-2 4.7-2.7 7.2-.7 2.6-2.4 7.4-3.8 10.7-1.3 3.3-3.2 8.2-4.2 10.8-.9 2.7-1.8 4.7-2 4.5s1.9-6.8 4.7-14.8c4.6-13.5 7.8-23.2 7.8-23.8 0-.4-15.4.1-24 .9M446.5 244.5c-3.8 1.3-11.9 3.8-17.9 5.7-7.7 2.3-11 3.8-11.4 5-.2 1-.9 1.8-1.6 1.8-.6 0-.3.5.7 1.1s2.1.8 2.4.5 1.2.2 1.9 1.2c1.2 1.5 1.5 1.5 2.4.2s1-1.2.8.4c-.2 1 .3 2.1 1.1 2.4s1.1 0 .7-.7c-1.5-2.3 1.2-1 2.8 1.4.9 1.4 2.1 2.5 2.6 2.5s7.6 3.2 15.7 7.2c8.1 3.9 15.3 7.1 16 7.1s1 .4.8.8c-.6.9 10.4 6.1 11.6 5.4.5-.4.9-.1.9.6s.3 1 .6.6c.3-.3-1.7-5.3-4.5-11S467 266 467 265.6c0-2-11.3-23.6-12.3-23.5-.7 0-4.3 1.1-8.2 2.4"/><path d="M384.6 245.2c-.8 1.2-1.2 2.6-.9 3.1.3.6.1.7-.5.3-.6-.3-3.5 2.2-6.6 5.6-3 3.5-10 11-15.5 16.8-5.4 5.8-9.8 10.6-9.7 10.8.2.1 6-2.5 13-5.9 12.1-5.9 12.7-6.3 14.8-10.8 1.2-2.5 2.2-5.1 2.2-5.6.1-.6.4-1.2.7-1.5.9-.8 3.9-10.1 3.9-12.1 0-1 .6-2 1.3-2.2q1.35-.6 0-.6c-.6-.1-1.9.9-2.7 2.1M271 255c0 4.7-.3 10.8-.6 13.7l-.7 5.1 5.4 5.4c3.7 3.6 5.4 4.8 5.7 3.8.1-.8-.9-6-2.3-11.5-1.5-5.5-3.3-12.6-4.1-15.9-2.4-9.9-3.3-10-3.4-.6M374 273.7c-2.2.9-11.6 5.1-18.9 8.5l-6.4 3.1 2.3 1.7c1.3 1 5.9 3.6 10.2 5.9 5.5 3 8 3.8 8.3 2.9.2-.7 2-6 4-11.6 1.9-5.7 3.5-10.6 3.5-10.8 0-.5-1.1-.4-3 .3M376.9 280.8c-1.3 3.7-2.4 6.9-2.4 7.2s-.6 2-1.4 3.8-1.1 3.6-.7 3.9c.4.4 2.8-.1 5.4-1.1s7.4-2.7 10.7-3.9c7.3-2.6 7.1-2.5 5.8-3.8-.8-.8-1.3-.8-1.7 0-.4.6-1.8 1.1-3.2 1.1-1.7 0-2.4-.5-2.4-2 0-1.1.7-2 1.5-2 3.7 0-.4-4.7-8.1-9.3-.6-.4-2 2-3.5 6.1M269.7 277.7c-.8 1.5-.7 19.8.2 21.2.7 1.1 1.4 1 3.7-.4l2.9-1.7-3 2.6c-2.7 2.4-2.8 2.8-1.3 3.7.9.5 3.6 2.4 6 4.2 6.8 5.1 9.6 6.7 11.7 6.7 1.1 0 2.1.6 2.4 1.2.2.7.7 1.1 1 .8 1.3-1.2-8.7-25.5-10.1-24.6-.5.3-.8-.4-.8-1.5.1-2.2-11.8-13.7-12.7-12.2M286.5 293.2c1.3 4.4 10.7 22.8 11.7 22.8.5 0 .7.4.4.8-.2.4-.1 1.4.4 2.2 1 1.6 1 1.6 6.9-2.8l3.1-2.4-2 3.4c-1.8 3.1-1.8 3.4-.2 4.4 2 1.1 9.3.3 7.5-.9-.9-.6-.9-1.4-.1-3.2.6-1.3.8-3.9.4-5.9-.6-3-1.8-4.3-9.4-9.4-9.5-6.4-17.5-11.2-18.6-11.2-.4 0-.4 1-.1 2.2M322.5 320.9c3 6.1 6.2 11.4 7.1 11.9s1.7 2 1.7 3.4c.2 1.8.6 2.4 1.6 2q1.5-.6.6.9c-.8 1.2-.6 1.2.8 0 .9-.7 1.7-1.8 1.7-2.3 0-.6 1.3-2.7 2.8-4.7 1.6-2 3.7-4.8 4.6-6.3l1.7-2.6-7.8-3.8c-4.3-2-10.5-5-13.7-6.5-3.3-1.6-6.1-2.9-6.3-2.9s2.2 4.9 5.2 10.9M346 324c0 .6-1.1 2.3-2.5 3.8-3.3 3.5-9 15.2-7.8 16.1.9.8 12.3-.2 16.1-1.4 1.3-.4 2.2-.3 2.2.3 0 1.2-3.3 2.1-8 2.3-1.9 0-4.4.4-5.5.9-1.7.7-1.2 1.1 3.5 3.4 6.7 3.2 8.7 3.2 9.6.4.6-2 .8-2 1.9-.5 1.7 2.4 2.5 2.1 2.5-.8 0-1.4-.7-2.8-1.6-3.2-1.2-.4-.8-.9 1.5-2.1 3.7-1.7 4.2-3.6.6-2.2s-3.1.4 2.3-4.9c2.6-2.5 5.4-5.7 6.2-7s2.9-3.2 4.5-4.2l3-1.9h-14.2c-9.3 0-14.3.4-14.3 1M508.8 331c-15.5 7.9-17.8 9.4-16.2 10.9 4.2 3.7 20.1 16.5 23.7 19 3.4 2.3 4.6 2.7 5 1.7.7-1.8 3-37.1 2.6-38.3-.2-.4-7 2.6-15.1 6.7M455.9 336.3c-.7 9.7-.7 22.7.1 22.7.6 0 1 1.3 1 2.9v2.9l4.4-2.3c2.4-1.3 4.6-2.1 4.9-1.9.3.3 5.1-4 10.8-9.5 5.7-5.4 10.2-10.2 9.9-10.5s-3.5-.8-7-1.1c-3.6-.3-9.6-1.3-13.5-2.1-3.8-.8-7.8-1.7-8.7-1.8-1-.2-1.8.1-1.9.7M489.6 344.2c-1.8 8.6-7.7 35.4-8.9 40.5-.8 3.4-1.3 6.4-1 6.6.2.3 2.6-.7 5.1-2.3 2.6-1.5 6.1-3.6 7.9-4.6 14-8.3 27.3-17 27.3-17.9 0-.6-4.8-4.8-10.7-9.3-6-4.5-12.7-9.8-15-11.8-4.2-3.6-4.2-3.6-4.7-1.2M276.3 383.7l-3.1.4 3.5 5.9c1.9 3.2 4.1 6.4 4.9 7.1.8.6 1.4 1.8 1.4 2.5 0 .8.4 1.4 1 1.4 1.2 0 2.9-6 3.7-12.8l.6-5.2-4.4.2c-2.4 0-5.8.3-7.6.5M270.7 386.8c-1 1.5-6.9 19.4-6.5 19.7.3.2 15.3-2.4 17.6-3.1 1.4-.4.4-2.3-5.3-10-1.6-2.3-3.5-5-4.1-6-.7-1.2-1.3-1.4-1.7-.6M398.4 394.4c-1.2 1.1-3.4 3.1-4.9 4.4l-2.8 2.3 2.2 2.3c1.7 1.8 4.1 2.6 10.8 3.5 4.7.7 8.7 1.1 8.8.9.2-.2-.5-3.4-1.4-7.3-1.4-5.6-1.9-6.6-2.7-5.2-.9 1.6-1.2 1.6-3.4-.8-2.8-3-3.8-3-6.6-.1M293.6 401.2c-.3 1.3-.6 3.7-.6 5.4 0 1.9-.6 3.4-1.5 3.8-.9.3-2.1 2-2.7 3.6-.6 1.7-1.3 2.8-1.6 2.5-.6-.6-7.2 9.2-7.3 11 0 .5-1.1 3.2-2.4 6-1.3 2.7-2.1 5.3-1.8 5.8.6 1 9.3-.2 10.9-1.5.7-.5 1.4-2.3 1.7-4.1 1.1-6.6 3-12.9 5.2-16.6.8-1.4 1-3.2.6-4.4-.4-1.1-.4-4.5 0-7.5.8-5.9.6-7.9-.5-4M341.7 418.5c-.4.8-1.1 1.4-1.8 1.3-.6-.2-1.9 1.7-2.9 4.2-2.1 5-2.5 8.5-1 7.5.6-.4 1 .5 1 2.1 0 1.5-.3 2.4-.7 2.1-1.1-1.2-3.1 1.3-2.6 3.2.3 1.3-.1 2.1-1.4 2.4-1.7.5-.1.6 9.4 1.1l4.3.2-.6-4c-.3-2.3-.8-4.8-1-5.6-.3-.8-.8-4.6-1.1-8.5-.6-7.7-.8-8.3-1.6-6M313 445.1c0 .5-.4.7-1 .4-.5-.3-1-.1-1 .5 0 .8-1 .9-3 .5-1.8-.4-3-.2-3 .3 0 1.3 6.2 6.2 11.5 9.1l4.1 2.2 12.9-6.3 13-6.3-4.5-.7c-7.4-1.1-29-.9-29 .3M363.1 490.9c-1.2 3.2-2 6.9-1.9 8.2.2 1.4-.2 2.3-.9 2.2-1.6-.3-3.2 4.8-2.6 8.1.3 1.5.2 2.6-.3 2.5-2.3-.4-3.4.2-3.4 1.8.1 1.7.1 1.7 1.4.1.7-1 1.5-1.6 1.7-1.3.4.3 6.2-3.8 15.7-11 .5-.4-6.3-16.5-6.9-16.5-.4 0-1.6 2.6-2.8 5.9M303.2 526.9c-.8.4-1.3 1.1-1.3 1.5.1.3 0 .9 0 1.3-.1.5-.1 1.6 0 2.5s-.8 3.6-2.1 6c-1.2 2.4-2.3 4.6-2.3 5 0 .3 3.1 2.2 6.8 4.2l6.8 3.5 1-2.6c.5-1.4 1.2-5.2 1.6-8.4.6-5.7.5-5.9-2.3-7-1.6-.6-3.9-1.1-5.1-1.1-1.3 0-2.3-.6-2.3-1.4 0-.9 1-1.1 3.5-.7 2.2.4 3.5.2 3.5-.5 0-.6-.6-.9-1.3-.6-.8.3-2-.2-2.7-1.1-1.4-1.7-2-1.8-3.8-.6M844.5 100.9c-23.6 6.3-23.7 6.4-24.6 8.8-.9 2.3-2.9 3.2-2.9 1.3 0-.6-.4-1-1-1-1.3 0-1.3 3.5-.1 5.8 2.3 4.1 10.3 20.7 10.2 21-.1.1.7 2.3 1.9 4.8l2 4.6 1.9-2.3c1.1-1.3 1.5-2.6 1-2.7-.5-.2.2-1.3 1.6-2.4 1.4-1 4.4-5.2 6.7-9.1 2.2-4 5.1-8.8 6.3-10.7 5.3-8.6 12.5-20.9 12.5-21.4 0-.8.1-.8-15.5 3.3M861.5 98.9c-.3 1-2.3 4.6-4.4 7.9-2.1 3.2-4.2 7-4.6 8.3s-1.1 2.6-1.4 2.9c-1.7 1.2-12.1 19.8-12.1 21.6 0 .3.9 0 2-.6s2-.7 2-.3.5.2 1.2-.5c1.8-1.8 2.8-1.5 2.8.8 0 1.7.3 1.8 2.7.9 1.5-.5 3.9-.8 5.3-.5s1.9.3 1.3 0c-2.3-1-1.4-2.4 1-1.5 2.9 1.1 4.7.4 4-1.6-.5-1.4.1-1.5 4-1.1 3.9.5 4.7.3 4.8-1.1.1-3.7 12.1-8.9 13.2-5.7.2.6.7.9 1 .6s-3-5.7-7.3-12c-4.4-6.3-9.2-13.4-10.7-15.7-3.1-4.8-3.9-5.1-4.8-2.4M867 99c0 .5 1.3 2.4 2.9 4.2 1.5 1.8 4.6 6 6.7 9.3 3.8 5.8 12.2 17.5 12.7 17.5.1 0 9.2.3 20.2.6s20.8.7 21.8.9c5.4 1.1-1.6-3-30.5-17.4-17.8-8.9-32.6-16.1-33-16.1-.5 0-.8.4-.8 1M805.2 112.9c-6.4 2.2-7.7 3.4-6.7 5.8 2 4.6-.7 11.3-4.5 11.3-2.2 0-4.4-5.1-3.8-8.5.3-1.4.4-2.5.2-2.5-.8 0-20 7.3-20.9 8-.5.4-2.8 1.3-5 2s-4.9 1.9-6 2.6c-1.9 1.4-1.9 1.4 0 1.4s15.4 2.9 23.6 5c5.2 1.4 42.2 9 43.6 9 1.6 0 1.2-2.4-1-7-.9-1.9-2.5-5.8-3.6-8.5-2.9-7.6-9.2-20.5-10-20.5-.3.1-3 .9-5.9 1.9M757 136.5c2.1 5.7 6.2 13.6 7.8 15.2.9.9 1.8 2.8 2 4.2s3.2 8.7 6.8 16.3c3.5 7.6 6.4 14 6.4 14.4 0 .3.6 1.2 1.4 2 1.1 1.1 1.6 1.1 2 .1.3-.6.4-.1.2 1.3-.6 3.1 7.4 20.3 8.9 19.2S799.9 199 808 185c4-6.9 8.5-14.5 10-17 1.4-2.5 3.6-6.6 4.9-9.2 1.2-2.7 2.7-5 3.2-5.4 1.6-1 1-1.9-2.1-3.1-1.7-.6-2.8-.8-2.6-.5.2.4-.2 1.5-.9 2.6-1.1 1.4-1.8 1.6-3.2.7-1-.6-1.2-1.1-.5-1.1.6 0 1.2-.9 1.2-1.9 0-2.5-1.7-3-25.5-8.1-10.4-2.2-22.2-5-26.1-6-9.6-2.7-10.6-2.7-9.4.5M941.5 135.1c.4.6 1 .8 1.3.5.7-.7 3.2 1.3 3.2 2.6 0 .6-.7.5-1.5-.2s-1.5-.8-1.5-.3c0 2 37.4 74.8 39 75.8.5.3.9-.3.9-1.2 0-1 .9-8.6 2-16.8 4-28.5 6.5-54.5 5.4-55.5-.4-.5-5.3-1.3-10.8-1.9s-15.2-1.8-21.5-2.6c-14.2-1.7-17.3-1.8-16.5-.4M944.6 151c.3 2.5 1.6 9 2.9 14.5 1.2 5.5 3 13.6 4 18 .9 4.4 2.1 9.4 2.6 11.2.6 1.7 1.2 4.4 1.5 6 2 11.6 5.5 28.4 7 33.6.5 1.5 2.1.3 8.5-6 4.4-4.3 8.4-8.5 8.9-9.4 1-1.7.6-2.4-21-44.4-6.2-12.1-11.8-22.7-12.5-23.5s-1.5-2.2-1.8-3-.4.5-.1 3M816.5 176.2c-.4 1.6-1.1 2.8-1.6 2.8s-.9.6-.9 1.4-.6 2.1-1.3 2.8c-.8.7-2.5 3.2-3.9 5.4-2.1 3.2-2.4 4.4-1.5 6 .9 1.7.9 1.7-.6.6-1.4-1.2-1.8-.9-3.2 1.8-.9 1.7-1.8 4.4-2 5.8-.4 3.8-.4 3.9-1.4 2.3-.7-1.1-1.1-.9-2 .8-1 1.8-.9 2.1.6 2.2 1.2 0 .8.4-.9 1.1-5.8 2.1-2.5 3.9 6.5 3.6l6.2-.1-6-.7c-3.3-.4-5.2-.7-4.3-.8 1-.1 2.2-1.1 2.8-2.3 3.9-7.3 10.2-9.3 12.3-3.9.5 1.3.6 1.3.6 0 .1-.9 1.3-1.6 3.2-1.7 1.8-.1 3.4-.5 3.7-.8s.7-3.1 1-6.3c.4-5.5 1.9-8.3 5.1-9.3 1.1-.4 1-.8-.3-2.1-2-2.1-2-3.2 0-5.2 1.2-1.3 1.3-1.6.1-1.6-.7 0-3.1-.9-5.3-1.9-2.5-1.2-4.1-1.5-4.5-.9q-.6.9-1.2-.3c-.3-.8-.7-.3-1.2 1.3M1025.1 198c-6.4 16.1-15.5 43-14.7 43.7.9.9 9.9 2.1 16.3 2.2 2.8.1 5.5.6 5.8 1.2 1.1 1.8 0 2-5.1 1-2.7-.6-7.7-1.4-11.1-1.9-6.2-.8-6.2-.8-6.5 1.7-.2 1.4.1 6.6.5 11.6.4 4.9.6 10.3.5 12-.2 1.6-.7-2.3-1.2-8.8-.5-6.4-1.1-11.7-1.5-11.7s-3.7 8.9-7.3 19.7c-3.7 10.9-8.7 25.7-11.2 33-2.5 7.2-4.6 13.4-4.6 13.6s5.4-3.2 12-7.6 12.3-7.7 12.6-7.4c.5.5-16.8 12.7-21.7 15.3-2.8 1.4-3.6 2.8-4.9 8.2-.7 2.7-.5 3.5 1.1 4.5 1 .6 1.9 2.1 1.9 3.3 0 1.7.6 2.1 3.3 2 2.6-.1 3.1-.5 2.9-2.1-.2-1.1-2-3.7-4-5.8-2-2-3.2-3.7-2.6-3.7s2.5 1.6 4.4 3.5c1.8 1.9 3.7 3.2 4.1 3 .4-.3.9 0 1.1.6s2-1.4 4-4.4c5.6-8.3 12.8-23.4 12.2-25.2-.4-.8-.1-1.5.6-1.5.8 0 1-.9.6-2.5-.4-1.4-.8-7.1-1.1-12.7l-.4-10.3 1.3 10.8c.7 5.9 1.6 11 1.9 11.4.6.6 2.7-3.9 2.7-5.8 0-.5.3-.9.8-.9.4 0 1.8-3 3.1-6.8 1.4-3.7 4.1-10.1 6.1-14.2 5.4-11 6.1-13.2 6.3-18.6.2-5.2-2.1-24.3-3.1-25.9-.7-1-.9-3.2-1.6-12.5-.2-3.6-.7-7.2-1-8s-.6-2.9-.8-4.5l-.3-3zM793.5 216.3c.4 1.2 1 3.1 1.5 4.2.4 1.1 1.6 4 2.5 6.5 1 2.5 2.6 6.7 3.7 9.5 1 2.7 4.4 11.7 7.5 20 3 8.2 6.6 17.9 8 21.5s3.4 9.1 4.6 12.2c1.1 3.2 2.4 5.8 2.8 5.8 1 0 5.1-28 8.9-60.5.5-5 1.3-10.6 1.6-12.6.7-4.4 1.4-4.2-18.1-6.3-24.8-2.8-23.7-2.8-23-.3M973.1 229c-5.1 4.9-8.9 9-8.4 9.1.4 0 1.7.2 2.8.5 1.1.2 8.8.8 17 1.4 8.3.6 15.5 1.2 16 1.4.6.2 1.8 0 2.9-.3 1.6-.6 1.3-1.2-2.5-5.2-6.3-6.3-17-15.9-17.8-15.9-.4 0-4.9 4-10 9"/><path d="M1032 221c0 4.5 2.3 20.1 3.6 24 .9 2.5 1.7 6.1 1.9 8.1.1 2 .6 4.2 1 4.9s-.3.5-1.6-.3l-2.4-1.6v6.7c0 3.7-.4 9.7-.8 13.4-.5 4.5-.5 6.8.2 6.8.6 0 2.9-1.8 5.2-4 3.9-3.7 4.1-4.2 3.6-8.2-.4-2.4-.9-6.3-1.2-8.8-2.2-16.7-9.3-47.5-9.5-41M835.6 230.7c-.4 4.3-1.1 9.4-1.6 11.3s-1.1 6.4-1.5 10c-.3 3.6-.8 8.1-1.1 10-.2 1.9-.7 5.3-1 7.5-.2 2.2-.9 6.5-1.3 9.5-.5 3-1.2 8-1.6 11l-.7 5.5 4.5-8.6c2.4-4.7 6.3-11.8 8.7-15.7 5.8-9.8 8.8-17.5 8.2-21.2-.2-1.6-.9-3-1.6-3-.6 0-1.6-1.1-2.3-2.5-.7-1.6-.8-2.5-.1-2.5.6 0 .4-.8-.3-1.7-.8-.9-.9-1.4-.2-1 .6.4-.2-1.9-1.8-5s-2.9-6.1-2.9-6.7-.7-1.9-1.4-2.9c-1.1-1.5-1.4-.7-2 6M926.3 239.6c-1.3.3-2.3 1.3-2.3 2.3s-.9 2.8-2 4.1c-2.5 2.9-2.5 2.7.8 7.1 9.6 12.9 16.9 21.9 22.2 27.4 2.6 2.8 5.8 6.9 7 9.3 4 7.6 3.9 7.8 6-15.3 2-21.4 2.7-33 2-33.8s-30.4-1.8-33.7-1.1"/><path d="M963.5 241.7c1.5 3.8 11.2 42.9 12.1 49.3.9 5.6-.9-.7-6.6-23.4-3.3-13.1-6.1-24-6.3-24.2-.2-.3-1.2 8.2-2.1 18.8-1 10.6-2.1 22.7-2.5 26.8-.7 6.9-.6 7.6 1.5 9.7 1.3 1.3 1.9 2.3 1.4 2.3s-1.2-.5-1.5-1c-1.4-2.2-3.1-.9-2.9 2.2.1 2.2 0 2.5-.3.8-.3-1.4-.8-2.8-1.2-3.3-.4-.4-5.6 1.7-11.6 4.6-10.7 5.3-10.8 5.4-8.9 7.3 3.5 3.6 4.9 5.9 1.8 3.1-1.7-1.5-3.5-2.7-4-2.7-1.3 0-4.5 8.9-5 13.9-.4 4.5-.2 4.7 8.1 5 3.3.1 7.4.4 9.2.7 1.7.3 4.1.3 5.2-.1 2-.6 2-.7.3-3.3l-1.7-2.7 2.9 2.3c1.6 1.2 3.7 2.2 4.7 2.2s6.1-2.2 11.4-4.9 9.1-4.4 8.6-3.7c-.6.7-5.4 3.5-10.6 6.2s-9.5 5.4-9.5 5.9c0 .6 1.7 4.7 3.8 9l3.9 8 1.7-3.3c.9-1.7 1.4-3.2 1.2-3.2-.3 0 2.3-4.2 5.6-9.3 3.4-5 6.8-10.8 7.6-12.8 1.7-4.5 1.1-5.4-9.5-13.6-4-3-7.3-5.7-7.3-6 0-.6-.2-.7 9.8 7.1 7.3 5.7 9.2 6.5 7.4 2.9-1.2-2.4-3.5-13.3-2.9-13.9.2-.2 1.2 2.8 2.2 6.8.9 4 2.1 7.9 2.5 8.6 1.1 2.1 3.7-4.4 14.5-36.3 5.5-16 10.2-29.2 10.6-29.5.3-.3.3-1.4-.1-2.6-.7-1.9-2.1-2.2-17.2-3.3-8.9-.6-18.7-1.4-21.7-1.6-4.8-.5-5.3-.4-4.6 1.2"/><path d="M917.5 253.2c.1 1.3.8 2.3 1.6 2.3.8.1 1.2.7 1 1.5s-.4 1.9-.5 2.5c0 .5 1.4 5.3 3.3 10.7l3.5 9.6 7.7 4.1c4.2 2.3 8.5 4.1 9.6 4.1s2.8.9 3.8 2 2 1.8 2.2 1.6-.7-1.6-2.1-3.1c-1.5-1.6-2.6-3.4-2.6-4.1s-.3-1.4-.8-1.6c-.4-.2-5.5-6.1-11.2-13.3-5.8-7.1-11.7-14.2-13.1-15.7-2.5-2.8-2.6-2.8-2.4-.6M845.5 264.9c-17 31.5-16.9 31.1-14.6 31.1 1.2 0 9.5-3.8 18.6-8.5 9-4.7 17.1-8.5 17.9-8.5s2.8-1.1 4.4-2.5c1.7-1.4 3.5-2.5 4.1-2.5s1.9-.4 2.9-.9c.9-.5 3.8-1.9 6.5-3 2.6-1.2 4.7-2.6 4.7-3.2 0-.5.5-.7 1-.4.6.3 1 .2 1-.3 0-.4-6.6-3-14.7-5.6-8.2-2.6-17.1-5.5-19.9-6.5l-5.1-1.8zM1029.6 265.3c-1.5 3.4-3.6 8-4.6 10.2-3 6.3-8.1 18.8-7.7 19.1.2.2 3.6-1.8 7.5-4.3l7.2-4.7.1-5.5c0-3.1.4-8.9.8-12.9s.4-7.5 0-7.7c-.3-.3-1.8 2.3-3.3 5.8M1038.2 281.4l-4.4 4.3 7.6 7.7c4.2 4.2 7.6 7.3 7.6 6.8 0-.4-.9-5.7-2-11.7s-2-11-2-11.2c0-1.4-3.2.6-6.8 4.1M918 288.1c-3 2.2-5.6 4.6-5.8 5.4s-.9 1.2-1.6.9c-.8-.3-1.6.2-1.9 1-.4.9-1.4 1.6-2.4 1.6-2.4 0 2.6 2.6 9.7 5 3 1 7.2 2.6 9.3 3.4l3.7 1.6v-3.2c-.1-5.2-3.6-19.8-4.8-19.8-.4.1-3.2 1.9-6.2 4.1M927.6 286.7c.3 1.6.9 4.1 1.4 5.8.4 1.6 1.3 5.7 2 9l1.2 6.1 9.6-4.8c5.4-2.6 10.3-4.8 11-4.8.6 0 1.2-.4 1.2-1 0-1.1-23.4-13-25.6-13-1.1 0-1.3.7-.8 2.7M1024.5 292.2c-4.4 2.7-8.2 5.3-8.4 5.9-.1.6.5 1.9 1.5 3s1.2 1.9.5 1.9c-.6 0-1.4-.6-1.7-1.4s-1.3-1.7-2.2-2.1c-.9-.3-1.3-.3-.9.1s-.2 2.1-1.2 3.8c-1.1 1.7-3 5.8-4.4 9.1s-3.2 7.8-4.2 10c-1.3 3-1.4 3.6-.3 2.7.8-.6 1.7-.9 2-.6.4.3 4.1-1.4 8.5-3.7 4.3-2.3 9-4.8 10.4-5.6 1.5-.7 3.1-1.9 3.7-2.6 1.6-2.1 3.2-10.3 3.2-16.6 0-3.3.5-6.3 1-6.6 1.3-.8 1.3 7.5-.1 14.9-.6 3.2-.8 6-.6 6.2.6.7 16.6-7 16.7-7.9 0-.9-14.5-15.8-15.2-15.6-.2.1-3.9 2.3-8.3 5.1M893 300.1c-18.1 3.4-23 5-26.6 8.7l-3.5 3.7 2.2-3.8c1.2-2.1 2-3.9 1.8-4.1s-4.9-.6-10.4-1c-5.5-.3-14.5-1-20-1.5-5.5-.6-10-.9-10.2-.8-.1.1 1.4 3.8 3.3 8.1 1.9 4.4 3.2 8.1 3 8.3s-1.8-3.1-3.6-7.2c-3.9-9-3.2-9.1-18 .4-5.8 3.7-14 8.9-18.2 11.6-4.3 2.7-7.8 5.1-7.8 5.4s2.4 2.2 5.3 4c14.8 9.9 22.3 14.2 23.8 13.8 1.3-.3 2.2.7 3.3 3.7.9 2.2 4.2 6.7 7.2 10 4.9 5.1 5.7 5.6 6.7 4.2 1.1-1.6 1.5-1.6 5-.1 3.8 1.6 5.4 5.5 2.2 5.5-2.6 0-2.8 2.8-.6 5.6 1.2 1.5 2.1 2.3 2.1 1.9 0-.5-.7-1.7-1.7-2.7-.9-1-1.3-2.1-.9-2.5s1-.3 1.4.2c.4.6 1.7 1.6 3 2.3 1.8 1 2.2 1 2.2-.3 0-.8-.4-1.5-.9-1.5-.4 0-.5-1.7-.1-3.9.9-5.2.3-22.2-.9-23.4-.5-.5-.7-1.5-.5-2.1.3-.7-1.1-5.2-3.1-10-2-4.9-3.4-9-3.2-9.2.4-.4 2.5 4.2 6.7 14 1.1 2.7 2.4 4.6 2.8 4.2s.7-1.1.7-1.4c0-.4 1.6-3.1 3.5-6.1 1.9-2.9 4.4-6.8 5.5-8.5 3.2-5 5.5-8.1 5.5-7.3 0 .4-1 2.4-2.3 4.5-5 7.9-9.5 17.1-8.2 16.6.8-.3 1.5-1.5 1.7-2.7.2-1.4 2-3.1 5.2-4.8 2.8-1.4 5.2-3.1 5.4-3.7.2-.7.8-1.2 1.3-1.2.6 0 3.5-1.2 6.5-2.7 5.2-2.5 5.4-2.8 4.8-5.7-.3-1.7-1.5-5.1-2.5-7.5-3-6.8-1.4-6.1 2.2 1 3.7 7.5 3.8 7.7 4.7 6.3.4-.6 2.4-1.4 4.5-1.8 3.1-.6 3.7-.4 3.2.6-1.2 2.4 3.9-3.8 8.5-10.2 2.4-3.4 4.6-5.7 4.8-5 .2.6-.7 2.4-2 3.8-4.4 4.8-8.6 13.4-5.7 11.7 1.5-1 13.9-1.2 13.9-.3 0 .5.5.8 1 .8.6 0 1-1.1 1-2.5 0-4.3-7.1-16.6-9.4-16.4-.6.1-3.1.5-5.6 1M903.4 301.1c-.3.6.1 1.8.9 2.7s2.7 4.3 4.1 7.4c2.7 5.9 3.8 7.1 7.1 7.5 1.9.3 4.8 1.4 8.7 3.4 1.3.6 1.8.3 2.3-1.4.4-1.2 1.3-3.7 2.1-5.5 2.4-5.1 1.6-6.3-5.6-8.7-17.7-6-19-6.3-19.6-5.4M931 334c0 .5.5 1 1.2 1 .6 0 .9.3.6.6-.4.3-.1 1.6.6 2.9 1.9 3.6 10.9 13.5 12.3 13.5.7 0 1.3.4 1.3.8s1.4.9 3 1c1.7.1 3-.2 3-.8 0-.5 1.9-1 4.1-1h4.1l-.6-3.5c-.4-1.9-2.1-6.2-3.8-9.5l-3-6h-11.4c-6.9 0-11.4.4-11.4 1"/><path d="M816 354.2c0 .9.6 5.3 1.4 9.9 1.5 8.5 3.8 27.5 3.8 31.6 0 1.2.6 2.4 1.3 2.7 1.7.6 18-10.5 16.6-11.3-.6-.4-.7-1.2-.1-2.1.6-.8 1-2 1-2.5 0-1.5-6.1-8-7.2-7.7-.5.1-.7-.2-.3-.8.3-.5-.1-1.3-.9-1.6-.9-.3-1.4-.9-1.1-1.4.2-.4-.7-1.8-2.1-3.1s-4.1-4.7-6-7.6c-4.1-6.1-6.4-8.3-6.4-6.1M1041.5 388.6c-.5.1-3 .8-5.4 1.4l-4.4 1.1.7 4.7c.8 6.2 3.6 14.6 4.5 13.5 1-1.1 3.6-7.9 5.6-14.2 1.5-5.1 1.2-7.2-1-6.5M836.9 393.4c-5.8 3.4-11.9 7.6-11.9 8.1 0 .4 7.3 2.7 9.5 3.1.6 0 1.7.4 2.5.7.8.4 3.6 1.1 6.1 1.6 2.5.6 5.3 1.3 6.2 1.7 1.4.5 1.5.2.6-2.8-.6-1.8-1.1-4.3-1-5.6 0-1.3-.4-2-.9-1.7-.6.4-1-.5-1-2s-.5-2.5-1.2-2.4c-2.7.3-3.8-.2-3.8-1.6 0-1.9-.7-1.8-5.1.9M1025.3 398.3c-4.8 4-12.2 11.7-11.4 11.8 3.8.5 7.7 1.1 13.4 2 3.8.6 7 .9 7.2.7s-.9-4.1-2.4-8.6c-1.6-4.4-2.6-8.4-2.3-8.7s.3-.5 0-.5c-.4 0-2.4 1.5-4.5 3.3M895 403.4c-1.9.5-4.1 1.7-4.8 2.5-.8.9-1.1 1.1-.8.4.4-.6.3-1.4-.2-1.7-1-.6-3.5 2.2-5.6 6.3-1.8 3.4-.9 4.6 2.7 3.7 1.2-.3 6.3-1 11.2-1.6 5-.6 10.1-1.4 11.3-1.7l2.4-.6-2.9-2.4c-5.5-4.6-9.4-6.1-13.3-4.9M964 405c0 .5-.6 1-1.4 1-1.3 0-2.6 2-2.6 4.1 0 .5.6.9 1.3.9 1.6 0 1.5 11.9-.2 12.9-.7.5-.1 1.5 1.9 3 3.2 2.3 5 2.1 5-.6 0-1.1.7-1.4 2.3-1.1 2.2.4 2.2.3 1.9-9.3-.3-9.2-.5-9.7-2.8-10.8-3.1-1.4-5.4-1.4-5.4-.1M935.2 435.7c-6 7.1-13.7 16.2-17.1 20.3-3.5 4.1-6.9 7.9-7.7 8.3s-1.4 1.3-1.4 1.8c0 1.2 6.6 9.2 12.2 14.9l3.7 3.8 1.6-2.5c2.4-3.6 11.1-29.3 14.9-43.8.9-3.3 2.1-6.9 2.6-8 1.5-3.1 3-7.5 2.6-7.5-.3 0-5.4 5.7-11.4 12.7M952.3 425.7c-1.8.3-2.3 1.1-2.3 3.4 0 1.6-.4 2.9-.9 2.9-1 0-3.1 10.8-3.1 16 0 2.6.3 3 1.3 2.1.8-.6 2.5-.8 4.3-.3 1.6.4 5.8.4 9.4-.1 5.8-.8 6.2-1.1 4.5-2.3-1.8-1.4-1.8-1.4.2-1.4 1.1 0 2.4-.7 2.7-1.6.3-.8.2-1.2-.4-.9-1.8 1.1-1.1-2.7.8-4.1 1.6-1.2 1.5-1.3-.5-1.4-2 0-2.2-.4-1.6-3 .4-2.3.2-3-1-3-.9 0-2.4-1.1-3.5-2.5-1.1-1.3-2.2-2.2-2.5-1.8-.4.3-.9-.2-1.3-1.1-.6-1.6-1.7-1.7-6.1-.9M985.9 451.5c-.3.2-8.7.5-18.7.5-10 .1-18.4.6-18.8 1.1-.3.5-.1.9.5.9.5 0 1.6.6 2.3 1.3s4 2.8 7.3 4.7c3.3 1.8 6.7 3.9 7.5 4.6 1.2 1 2.8.5 9-3.1 4.1-2.4 8.2-5 9-5.7.8-.8 2.3-1.8 3.3-2.1 2-.7 2.3-2.7.4-2.7-.8 0-1.6.2-1.8.5M896 479.7c-9.8 9.7-10.4 10.5-8.6 11.8 3.1 2.3 17.3 9.5 18.8 9.5.8 0 3.2 1.4 5.5 3l4.1 3 1.6-2.5c.9-1.3 1.6-2.9 1.6-3.5s.8-2.3 1.8-3.7c1.3-2 1.3-2.5.2-1.8-.9.6-.6-.5.8-2.9 2.6-4.4 2.7-5 .8-7.3-8.7-10.7-11.9-14.3-12.7-14.3-.5 0-1.2 0-1.5.1-.4 0-1-.4-1.3-.9s-5.3 3.7-11.1 9.5M963 545.2c-3.6 2.2-7.6 4.9-8.9 5.9l-2.3 1.9 2.7 1c1.4.5 3.7 1 4.9 1 1.3 0 4.5.7 7.2 1.5 7.6 2.3 7.6 2.3 6.8-4.8-.7-6.8-1.9-10.7-3.1-10.6-.5 0-3.7 1.9-7.3 4.1M331.2 587.2c-.6.6-1.2 2.3-1.2 3.6s-.7 5.1-1.6 8.4c-.8 3.3-1.4 6.4-1.2 6.9.3.8 19-11 25.6-16.1 2.2-1.8 2.1-1.8-6.5-2.5-4.9-.3-9.9-.8-11.3-1.1-1.4-.2-3.1.1-3.8.8M940.1 592.8l-5.3.3 12.8 9.5c7 5.2 13 9.4 13.2 9.4.6 0-.6-14.7-1.4-17.8-.7-2.4-.9-2.4-19.3-1.4"/></svg>