<svg xmlns="http://www.w3.org/2000/svg" width="1706.667" height="960" viewBox="0 0 1280 720"><path d="M0 360v360h271.9c258.2 0 272-.1 272.4-1.8.4-1.6.5-1.6.6 0s1.2 1.8 8.9 1.8h8.8l1.2-3.3c.6-1.8 1.9-4.2 2.7-5.2 1.3-1.8 1.3-1.5 0 2.4-1.9 5.6-1.9 6.1.4 6.1 1.3 0 2.1-1.2 2.9-4.3l1.1-4.2-.4 4.3-.5 4.2h4.4c4.1 0 5.2-.7 5.4-3.5 0-.5 1-1.3 2.2-1.7 1.4-.5 2-1.4 1.6-2.4-.3-.9-.2-1.2.5-.9 1 .7 4.4-3.1 6.5-7.1.9-1.7.9-2.5 0-3.5-.8-.9-.7-1.1.6-.6 1 .4 1.7.3 1.7-.1-.4-2.2.3-3.2 2.1-3.2 1.1 0 2-.6 2-1.3 0-1.7 3.4-4.9 4.3-4.1 1.1 1.1 4.6-3.9 4.7-6.6.1-1.4 1-4.8 2.1-7.5l1.9-5-.6 6.4c-.7 7.2-1.7 6.7 8.1 4.3 5.2-1.3 15.1-2.4 14.3-1.7-.3.4-3.9 1.5-7.9 2.5l-7.4 1.9 5.8-.6c3.5-.3 5.7-.1 5.7.5 0 1.2-2.4 2.2-5.1 2.2-1.1 0-1.9.7-1.9 1.7 0 1.5-.2 1.6-1 .3-1.5-2.3-1.2-.6.4 2.5 1.1 2 1.2 3.5.5 5.3s-.6 2.9.2 3.6c.9.8 1 .7.6-.6-.9-2.6 3.7-2.4 6.2.3 1.9 2.1 2.1 3.5.8 5.6-1 1.6 5.5 9.8 7.7 9.7 1-.1 1.5.4 1.4 1.5-.2 1.3.7 1.7 5 1.9l5.3.3-1.6-3.8c-1.6-3.8-6.1-19.7-7.5-26.5-.4-2-1.5-4.8-2.4-6.2s-1.6-3.3-1.6-4.2c0-3.2 2.7.4 4 5.4 1.7 6.7 6 20.6 8.6 28.2l2.2 6.5 315.1.3 315.1.2V0H0zM541.5 81.3c5 2.8 11 6.4 13.5 8.1s5.1 3.1 5.8 3.2c.8.2 2.1.6 3 .9 1.5.6 1.5.8-.3 1.5-1.1.4-2.6 2.3-3.3 4.3-.7 1.9-3.8 8.1-6.8 13.7s-5.3 10.5-4.9 10.8c.3.3 2.7.9 5.3 1.3l4.7.6-4.8.2-4.8.1 2.1 3.7c1.2 2.1 5.2 8.3 9 13.8s11.8 17.2 17.9 26.1c6 8.8 11.6 16.6 12.4 17.2 1.2 1 2.6-.3 7.9-7.5 3.6-4.9 8-11.1 9.9-14s3.9-5.4 4.5-5.7c1.1-.4-11.9 19.4-16.9 25.7-3.3 4.2-3.3 4.1 2.6 7.3 1.5.8 2.7 1.7 2.7 2 0 .2-.9 0-1.9-.6-1.1-.5-3.1-1.4-4.4-1.9-2.2-.8-2.4-.7-2 1 .3 1 .1 1.9-.5 1.9-.5 0-1.2-1-1.5-2.1-.4-1.6-1.1-2-2.3-1.5-1.8.7-17.4 3.3-48.9 8.1-32.8 5-37.5 5.9-37.5 6.8 0 .5 3.7 4.8 8.2 9.6 4.6 4.7 6.5 7 4.3 5-8.7-7.8-11.7-10.4-13.2-11.3-1.4-.8-1.5 2.1-1.1 27 .3 17.7.2 23.9-.3 16.9-.4-6.1-.8-18.7-.9-28l-.1-17-3.7 8c-2 4.4-11.2 23.1-20.4 41.5L458 291.5l3.8 3.5c2.1 1.9 9.1 6.6 15.6 10.5 6.5 3.8 14.4 8.7 17.7 10.7 3.3 2.1 6.2 3.8 6.4 3.8.3 0 .6-3.7.7-8.3l.1-8.2.6 7.7c.4 4.3.9 8 1.2 8.2.7.7 6.9-1.3 21.4-6.9 6.6-2.6 15.6-5.9 20-7.5 4.4-1.5 15.1-5.5 23.7-8.9 8.7-3.3 16.3-6.1 17-6.1 1.9.1-4.9 3-20.7 8.9-7.7 2.9-23.3 8.8-34.7 13.2-11.4 4.3-21.1 7.9-21.5 7.9-.5 0-1.8.8-3 1.8-1.9 1.4-2.4 3.5-3.7 14.2-.9 6.9-1.7 16.2-1.9 20.7-.4 9.4-1.4 9.3 10.8 1.5 27.9-17.8 35.8-23.7 44.9-33.6 12.3-13.5 28.1-29.6 26.4-26.9-.8 1.2-5.6 6.6-10.8 12.1-21 22-23.2 24.5-21.9 25.2.8.6.6 1.1-.9 1.9-1.1.6-2.5 1.1-3.1 1.1-1.3 0-39.6 25-43.9 28.7-2.6 2.2-3.8 4.6-5.8 11.3-4.3 14.3-7.6 24.1-8 23.7-.2-.2.5-3 1.5-6.3 3.1-9.6 7.2-24.6 6.8-25.1-.2-.2-6.2 3.2-13.4 7.4-7.1 4.3-16.4 9.8-20.6 12.3s-7.7 4.8-7.7 5.2 1.6 1 3.5 1.4c1.9.3 3.8 1.1 4.2 1.7s-.4.7-2.3.2c-5.2-1.5-10.8-1.5-16.4 0-10.1 2.7-30.4 7.4-39 9-12.5 2.3-12.3 2.2-11.6 5.8.6 2.9.5 3-.8 1.2-1.1-1.5-1.7-1.7-2.8-.7-1.2.9-1.4.8-1.4-1 .1-1.5-.7-2.3-2.9-3-3-.8-20.6-3.8-22.5-3.8-1.7 0 .5 3.3 6.9 10.8 3.1 3.7 6.6 7.9 7.5 9.5 1.6 2.3 2.1 2.5 3.4 1.5 1.3-1.1 1.4-.9.7 1.2-1.1 3.5-1.4 3.6-3 1.4-2.3-3.4-8.3-10.7-14.9-18.3l-3.9-4.6.7 9c.3 4.9.9 11.5 1.3 14.5.3 3 .3 5.3 0 5s-1.3-7.1-2.3-15.3l-1.7-14.7h-3.6c-4.2.1-27.2 2.7-27.7 3.2-.5.6 5.5 8.8 16.1 21.9 5.4 6.8 12.1 15.2 14.9 18.6 5.2 6.6 6.5 7.5 6.7 4.5.1-1.1.4-.8.8.8.6 2.1 1.3 2.5 4.2 2.3l3.4-.1-2.7 1.1c-1.6.6-2.8 1.6-2.8 2.3 0 1.7 19.8 21.4 21.5 21.4 1.6 0 1.8.9.9 3.4-.3.8-1.2 1.2-2 .9-1.6-.6-31.4 13.6-31.4 15 0 .4 2.6 4.3 5.8 8.5 3.1 4.2 6.5 8.9 7.4 10.4 1 1.6 2.6 2.8 3.5 2.9 1.1 0 1.3.3.6.6-.7.2-1.3 1-1.3 1.7s-1.4 1.1-3.7 1c-4.6-.2-11.3 1.8-17.1 5.3-7 4-4.1 3.7 5.3-.7 9.7-4.4 9.5-4.4 9.5-3.1 0 .4-4.6 2.9-10.2 5.5-5.7 2.6-11.3 5.5-12.6 6.5l-2.3 1.7 11 8.2c6.1 4.5 11.5 8.2 12 8.2s1.1-.6 1.4-1.3c.2-.6.6 0 .9 1.5.7 3.7-1.2 3.6-5.4-.3-1.8-1.7-5.1-4.2-7.3-5.7-2.2-1.4-6-4.1-8.5-6-5.2-4-6.3-4-25 .1-12.9 2.8-21 4.1-21 3.3 0-.2 3.6-1.2 8-2.2 4.4-.9 8-2 8-2.4 0-1.2-4.4-4.7-9.7-7.6-2.9-1.6-5.3-3.2-5.3-3.7 0-.4-.6-.7-1.2-.7-.7 0-1.4 1.2-1.5 2.8-.1 1.5-.9 4.7-1.7 7.2l-1.4 4.5.1-8 .2-8-3.7-.9c-2.7-.7-3.8-1.5-3.8-2.8 0-1.2-1-2-2.9-2.4-5.1-1.1-8.6-6-10.5-14.8-1.7-8-1.5-11.6.3-5.5.6 2.1 1 2.6 1 1.4.1-1.1.6-2.7 1.1-3.5.8-1 .9.7.4 5.7-.6 6.8-.5 7.2 1.9 9.3 1.4 1.2 2.3 2.8 2.1 3.5-.7 1.7 7.6 4.5 14.1 4.9 1.1 0 2.3.9 2.7 1.9.6 1.4 1.5 1.7 3.5 1.3 1.6-.3 12.1-.8 23.6-1.1 11.4-.2 21.6-.9 22.6-1.5 1.1-.5 4.1-1 6.7-1 7.6 0 4.1-1.3-6.9-2.7l-10.2-1.2 13 .5c7.2.3 14.5.8 16.4 1.1 3.1.5 3.3.4 2.6-1.8S354.2 502 353.3 502c-1 0-16 11.9-21.2 16.7-3.7 3.6-5.6 4.1-6.4 1.8-.4-.8-2.5-2.4-4.9-3.6s-8.1-4.3-12.8-7l-8.6-4.9-5.4 2.2c-3 1.3-5.6 2.6-5.8 3-.2.5-.8.8-1.3.8-1.2 0-1.2-3.5 0-5.8.5-.9 1.4-4.5 2-8 .7-3.4 2-8.2 3.1-10.7 1-2.4 1.7-5.7 1.5-7.3s.1-3.5.6-4.3c.6-1.1.9-.8 1 1.1.3 3.4.4 4.1 1.6 7 .6 1.4 1.4 4 1.8 5.9 1 4.9 2 2.4 3.5-8.5l1.2-9.1 6.7-2.3c3.6-1.3 7.8-2.9 9.2-3.6 3.2-1.6 9.4-.2 12.2 2.7 1 1 2.4 1.9 3.1 1.9s2.5.9 4 2.1c2.5 2 2.6 2 2.6.1 0-1-.9-4.5-2-7.8-1.2-3.2-2.7-8.6-3.6-11.9-.8-3.3-1.8-6.7-2.1-7.5s-.7-2.2-.9-3c-.8-4-4.2-12-4.6-10.8-.8 1.9.2 11.1 1.3 12.4.6.8-.2 1.7-2.8 2.9-7 3.1-21.8 10.7-22.7 11.6-.6.5 0 .9 1.5 1q2.4.15-1.5.9c-3.3.6-4.2.4-6-1.5-3.2-3.5-22.6-14.7-24.5-14.2-.9.3-2.4.8-3.4 1.2-1.5.6-1.7.4-1.1-1.9.5-2.2.3-2.6-1.7-2.8-1.3 0-2.8-.2-3.4-.3-.5-.2-2.3-.3-3.9-.4-2.8-.1-2.8-.2-2.4-5.2.3-3 1.2-5.7 2.3-6.7 1.6-1.6 1.6-1.5.4 1.3-.8 1.6-1.4 4.3-1.4 6 0 2.9.1 3 5 3h5l1.1-4.5c.7-2.5 1.9-5.9 2.8-7.5.9-1.7 1.9-4.6 2.2-6.5.4-1.9 1.1-3.8 1.7-4.1.5-.4 1.1-4 1.3-8 .2-5.1.1-6.6-.5-4.9-.5 1.4-.9 2.1-1 1.7-.2-1.4-2.8 1.8-5 6.2-1.2 2.3-3 5-4 6s-2.3 2.7-2.9 3.7-1.4 1.5-1.8 1.1-.2-1.3.4-1.9c.7-.7 1.2-1.8 1.2-2.6 0-2.2 3.1-8.2 4-7.7.4.3 1-.4 1.3-1.6.8-2.9-1-3.2-7.8-1.4-3.3.8-6.7 1.5-7.7 1.5-2.2 0-2.2-.1-.2 6.1.9 2.7 1.4 5.2 1.1 5.5s-.8-.9-1.2-2.7-1.4-3.9-2.1-4.7c-1.6-1.5-1.8-16.7-.4-24.2.6-3.2.7-1.8.3 4.9-.4 6.8-.2 9.2.6 8.7.6-.4.9-1.1.7-1.5-.3-.4-.1-1.3.5-2.1 1.4-2.3 1.2 1.3-.3 4.5-.6 1.4-.8 2.8-.5 3.1.4.4 4 .1 8.2-.6 8.7-1.5 9.2-2.4 4.5-8.8-1.7-2.3-2.8-4.2-2.4-4.2.3 0-.4-1.4-1.6-3.1-2.5-3.3-2.9-3.2-4.7 1.4-1.2 3.1-1.2 3.1-.7-1.4.5-3.9.3-4.9-1.4-6-1.6-1.2-2-2.9-2.4-9.9-.3-5.6-1.1-9.7-2.3-12-1.3-2.5-1.9-6-2.1-12-.2-8.5-3.7-33.3-5.4-38-.5-1.4-1.2-4.8-1.5-7.5-.4-3.9.1-2.9 2 4.2 3.7 13.7 5.3 16.7 9.3 17.1 2.7.3 3.4-.1 4.2-2.3 1-2.6 1.1-2.5-13.3-21.3-.5-.6-.7-1.2-.5-1.2.3 0 2.6 2.7 5.2 6 10.9 13.9 15.6 16 10.6 4.7-2.4-5.4-6-8.6-13-11.8l-5.2-2.3.6-4.1c.8-5 4.7-18.7 5.6-19.8 1.1-1.2.1 3.7-2.1 11.1-1 3.5-1.6 6.8-1.3 7.3.3.6.1 1.6-.6 2.4-.9 1.1-.5 1.7 2.2 3.1 1.8.9 4.4 2.5 5.7 3.5 1.3 1.1 2.7 1.9 3.2 1.9s.8-5.5.7-12.3c-.1-12.5-.8-15.4-5.1-20.3-1.6-1.9-1.7-2.7-.6-7 .7-2.7 1.6-5.2 2.1-5.5.6-.3.9-.9.9-1.3-.3-2.3 0-3.6.9-3.1.5.3.7 0 .4-.8-.5-1.5 0-3.7 5.4-22.7 1.7-5.8 3.8-13.9 4.7-18 3.4-15.3 8.5-30.8 13.2-40.5 2.8-5.5 6.3-12.8 7.8-16.2 1.6-3.4 3.1-6.1 3.3-5.9.1.2-1.3 3.8-3.2 8.1-2 4.2-3.6 8.5-3.6 9.5s-1.9 4.6-4.2 8.1c-4.3 6.4-4.3 6.5-4.1 14.9.1 4.7 1.1 13.8 2.2 20.3 1.2 6.6 2.1 13.2 2.1 14.7 0 3.4.9 6 2.1 6 .5 0 .9-.7.9-1.5s.5-1.5 1.2-1.5c.6 0 3.6-2.4 6.7-5.3s7.7-7 10.3-9.2c2.6-2.1 4.9-4.9 5.3-6.2.3-1.2 1.1-2 1.8-1.8.6.3 2.7-1.6 4.5-4.2 1.7-2.6 3.2-4.2 3.2-3.7 0 .6-1.6 3.2-3.6 5.9-4.5 5.8-4.3 6.1 6.5 16.9 9 9 7.8 9.7 13.6-8.4 2.1-6.3 4.6-12.9 5.7-14.5l2-3-.6 2.7c-.6 2.6 0 3.3 2.6 2.9.4 0 2.1-.2 3.7-.3 2.1-.2 3.1-.8 3.1-1.9 0-.9.7-2.2 1.5-2.9 1.3-1.1 2.1-1 4.3.1 4.4 2.2 4.5 2.2 3.8 1-.5-.7.1-1.1 1.6-1.1 2.9 0 7.8-4.1 7.8-6.6 0-1.4.2-1.6.9-.6.6 1.1 1.3.7 3-1.4 1.3-1.7 1.8-3 1.2-3.2-1.6-.5-1.3-5.1.3-6.8 2.2-2.1 6.1-3.3 8.7-2.7 2.3.6 2.3.5-.3-2-1.6-1.4-2.8-3.1-2.8-3.7 0-1.4-6.7-1.3-7.2.2-.7 1.9-3.8-1.6-3.8-4.2 0-2.5 2.2-5 4.4-5 1.9 0 2.2-2 .4-2.1q-1.5 0 0-.6c.6-.2 1.2-2 1.2-3.9 0-2.7-.4-3.4-2-3.4-1.1 0-2-.4-2-.9 0-1.4-9.8-2.3-12-1.1-1.5.8-2 .8-2-.2 0-.8-.5-.6-1.1.5-.6.9-.8 2.6-.4 3.6.3 1.1.1 2.2-.5 2.6-1.4.8-1.3 2.6.1 2.3.7-.2 1.3 1.7 1.6 4.7.2 2.7.9 5.4 1.4 6 .5.5.9 1.7.9 2.7s.5 1.8 1 1.8c.6 0 1 .9 1 2 0 1.3-.7 2-2 2-1.1 0-2 .4-2 1 0 .5-.6 1-1.4 1-1.9 0-3-3.2-1.4-4.2 1-.6.9-.8-.4-.8-1.8 0-4.8 2.5-4.8 4.1 0 .5-.4.9-1 .9-.5 0-.7-.8-.3-1.8.3-.9.3-1.4-.1-1-.4.3-2.1 4.6-3.6 9.5-2.4 7.2-2.9 8.1-3 5.3 0-2 2.2-10.3 4.9-18.5 8-24.5 9.4-29.5 8.8-30.2-.9-.9-3.8 2.9-10.8 14.2-3.5 5.5-8.3 13.1-10.8 16.9-9.2 13.9-12.4 19.2-13.3 21.8-1.2 3.3-2.9 3.8-2 .5.6-2.5 3.4-7.2 12.5-21.1 15.3-23.4 19.8-30.6 21.3-34.1.8-2 2.3-4.5 3.2-5.5s2.5-3.2 3.5-4.9l1.8-3.1h-3.3c-3.6 0-20.5 1.7-25.3 2.5-2.7.5-2.7.4-.7-.5 1.2-.5 8.4-1.5 15.9-2.2 10.8-.9 13.9-1.5 15.3-3 .9-1 6.1-10.6 11.5-21.3s10-19.5 10.1-19.5c.6 0-3.1 8-10.7 23.4-4.4 8.7-7.7 16.1-7.4 16.4.5.5 6.2-1.9 22.3-9.4 5.1-2.4 9.5-4.4 9.6-4.4.2 0 5.6-2.5 12-5.5s11.8-5.5 12-5.5c1.9 0 21.7-10.3 21-10.9-.5-.5-4.6-2.3-9.2-4.1-4.5-1.8-8.1-3.4-7.9-3.7.5-.4 13.4 4.3 16.8 6.2 2.6 1.4 5.5 1.3 10.6-.5 2.6-.9 2.7-.9.9.5-1.1.8-2.5 1.5-3 1.5-2.9.1 19.4 7.9 34.2 11.9 4.1 1.1 8.2 2.3 9.2 2.6 1.4.5 2.4-.3 4-3.2 1.2-2.1 1.8-2.9 1.4-1.8-1.8 5.3-1.7 6.7.2 6.2 2.8-.9 31-3 32.6-2.5.7.3-5.2 1.1-13.2 1.8s-15.3 1.6-16.3 1.9c-1.3.5 3.4 3 16 8.5 9.8 4.3 20.8 9.2 24.5 10.8 3.6 1.7 7.1 2.7 7.7 2.4 1.8-1.2 14.2-24.7 13.9-26.4-.2-1.2-1.3-1.7-3.8-1.6-2.7.1-2.9 0-.7-.3 1.6-.2 2.7-.9 2.5-1.5s-7.3-5.1-15.8-10-15.9-9.4-16.5-10c-.5-.6.8-.1 3 1.2 2.2 1.2 8.1 4.5 13 7.3m380.2 6.3c4.3 3.9 12.3 10.8 17.8 15.4 5.5 4.7 15.3 13.3 21.9 19.2 6.5 5.9 12.2 10.8 12.7 10.8.4 0 2 1.1 3.5 2.5 2 1.8 2.2 2.4.9 1.9-1.8-.7-1.8-.7.1 2.4 4.3 7 17.7 26.1 22.5 32.2s5.1 6.3 4.5 3.2c-.3-2.1-.2-3.1.4-2.7.6.3 1 1.9 1 3.5 0 1.7 1 4 2.4 5.5 1.3 1.4 2.9 3.9 3.6 5.5.7 1.7 1.6 3 2.1 3s.5 1.1 0 2.3c-.5 1.3-.6 2.9-.2 3.6 1.4 2.1 2.1-1.4 1.6-7.7-.4-5.3-.2-5 1.7 3.3 1.1 4.9 2.3 9.7 2.6 10.5.8 2.3 1 3.9 1.3 8.9.2 2.5.7 4.9 1.2 5.2.5.4 1.3 4.4 1.8 9 .4 4.6 1.7 12.4 2.9 17.4 1.2 4.9 2.4 13 2.6 18 .4 10.1 2.4 22 5.4 31 1 3.3 2 6.9 2.2 8 .2 1 1.1 2.7 2.1 3.7 1.8 1.9 2.1 5.6.7 9.8-.7 2-.8 1.5-.7-2.2 0-5.8-1.5-8-5.2-7.2-4.7 1.1-20.5 7.7-23 9.6-1.4 1-4.3 2.7-6.5 3.7-2.3 1-4.9 2.5-5.9 3.3-1.7 1.3-1.5 1.4 2 1.3 2.2-.1 3.7-.6 3.6-1.2s.4-1.4 1.2-1.7 1.5 0 1.5.7c0 .8.4.7 1.1-.3.8-1.2.9-1 .4.7-.5 1.8-.2 2.3 1.4 2.3 1 0 2.7.3 3.6.6 1.1.5 3.6-1.4 8.2-6.2 5.8-6 6.6-5.3 1.3.9-1 1.2-2.8 3.3-3.9 4.6-1.2 1.3-2 2.6-1.8 2.7.1.2 1.8.5 3.7.7 2 .2 4.6.9 5.8 1.6 1.3.7 2.5 1.1 2.7.9.1-.2 1.3-3.3 2.5-7.1 1.3-3.7 2.4-6.7 2.5-6.7.3 0-.2 8.2-.9 14-.8 6.4.8 5 1.9-1.8.4-2.3 1.1-4.2 1.5-4.2.9 0 .4 5.7-1.1 10.5-.4 1.6-.9 8.4-1 15s-.5 12.4-.8 13c-.3.5-.6 11.5-.6 24.4 0 17.8-.3 23.5-1.2 23.8-.7.3-1.3-.3-1.3-1.2s.4-1.4.8-1.1c.5.3.9-2.7 1-6.7l.1-7.2-2.6 5.4c-1.4 3-3.4 7.5-4.3 10s-2.2 4.5-2.8 4.4c-.7-.2-1.2.2-1.2.7 0 .6.7 1 1.5 1 1 0 .1 2.1-3 6.5-2.4 3.6-5.2 8.8-6.2 11.5-1 2.8-2 5-2.3 4.9-.9-.1-9.1-10.9-8.3-10.9.4 0 1.7 1.4 2.8 3.1s2.8 3.5 3.7 4c1.3.7 1.8.3 2.3-2.1.4-1.7 1.6-4.3 2.8-5.8 7.1-8.9 6.7-9.6-6.5-11.5-13.8-2.1-12.8-2.1-12.8.5 0 1.9-.2 2-1 .8-.5-.8-1-1.1-1-.7 0 .5-.7.2-1.5-.7-1.1-1-2.6-1.3-5.3-.9-6 1-8.7 1.9-8.7 2.9.1 1.4 4.3 15 7.5 24.1 1.6 4.6 2.5 8.3 2.1 8.3-1 0-3.2-4.4-5.7-11.6-1.2-3.4-2.2-5-3.1-4.7-.7.3-1.3.9-1.3 1.5 0 .5.4.7.9.3 1.2-.7 2.6 3.4 1.6 4.3-.4.4-1 .1-1.2-.6-1-2.6-1.8-.2-1.4 4 .3 3.4.6 3.9 1.2 2.3.6-1.5.8-1.1.8 1.7.1 3.4.4 3.8 2.9 4 1.5 0 3.2.2 3.7.3.6.2 1.6.3 2.3.4.7 0 1 .5.7 1.1s-4.2 1-8.5 1c-8.6 0-11 .5-11 2.6 0 1-.6 1.1-2.9.3-2.6-.9-3.5-.5-9.8 4-3.8 2.8-7.4 5.1-7.9 5.1s-2.3 1.3-4 2.8l-3 2.8-1.7-2.2c-1.5-2-17.9-12.6-19.9-13-.5-.1-1.2-.2-1.6-.3-.4 0-.6-3.1-.4-6.9.3-5.1.1-6.4-.8-5.6-.6.6-1.4 3.1-1.7 5.5s-1.1 5.5-1.8 6.9-2.5 7-4 12.5-3.2 10.4-3.6 11c-1.5 1.6-1 3.5.9 3.5 2.4 0 8.1-2.8 10.6-5.2 2.3-2.1 4.2-2.3 4.9-.6.3.7.6-.5.7-2.7s.4-3.3.7-2.5c.2.9 3.6 3.3 7.6 5.3 6.8 3.5 6 4.2-1.1 1-3.5-1.6-5.2-1.3-3 .6 4.2 3.6 9.2 7.1 10.1 7.1.5 0 1.5.7 2.2 1.7 1.1 1.4 1.3 1.3 1.9-1.1.5-2.1.2-3.2-1.1-4.2-1.6-1.3-1.6-1.3.7-.5 2.4.8 2.5 1.2 2.5 8.5-.1 4.2.3 7.6.7 7.6.5 0 1.8-1.9 2.9-4.3 2.6-5.6 4.4-8.6 5.9-10 1-1 1-.7.1 1-1.5 2.9-1.4 6.2.4 11.3 1.6 4.6 3.7 15.2 3.6 18.5 0 1.1.7 2.9 1.5 4 1.5 2 1.5 2 3.4-.2 1-1.3 1.6-3.3 1.4-4.5-.2-1.3-.2-1.7.2-1.1 1.2 2.6 2.4 1.2 2.4-2.7 0-2.4-.4-3.9-1.1-3.7-.6.1-1.4-.4-1.7-1.2-.3-.9 0-1.1.7-.7s1.8.2 2.6-.4c1.3-1.1 1.5-.2 1.5 6.2 0 6.1-.3 7.6-2 9.1-1.1.9-2.6 1.7-3.3 1.7-.6 0-2.4.6-3.8 1.4-2.1 1.1-2.9 1.1-4.4 0-1-.8-4.3-2.1-7.3-2.9l-5.5-1.6-12.3 6.1c-6.8 3.4-12.4 6.6-12.4 7.1s-1.5.9-3.2.9c-2.2 0-2.9-.3-2-.9 1-.6.3-1.7-2.9-4.2-2.3-1.9-6.8-5.8-9.9-8.7-5.2-4.8-7.9-6.3-8-4.5-.1.5-2.1 3-4.6 5.8-3.6 3.9-4.1 4.3-2.3 1.5 1.2-1.9 3.1-4.5 4.2-5.7 2.8-3.2 1.6-5-6-8.6-3.8-1.7-10.4-5.1-14.7-7.5-4.4-2.4-8.7-4.1-9.7-3.9-3.9 1-2.2-2 4.5-8.3 14.1-13.1 16.6-15.7 16.6-17.3 0-.8.8-1.8 1.8-2.1 1.6-.5 2.1-2.6 3.3-13.4.7-7 1.5-11.7 1.7-10.5s-.1 6.1-.7 11c-.5 4.8-.7 9-.5 9.2.7.7 16-14.6 20.5-20.4 2.1-2.8 5.8-7.7 8.3-11s5.4-7.2 6.6-8.7 1.9-3.2 1.6-3.6c-.5-.8-5.2-1.8-21.6-4.2-10.2-1.5-9.7-1.8-10.4 5.2-.7 7.9-3.4 21.2-3.5 17.7-.1-1.5.6-6.5 1.4-11.2 1.5-8.8 1.3-11.2-.9-12-.8-.3-6.9.3-13.7 1.4-6.8 1-13.9 1.9-15.6 1.9-1.8 0-3.3.5-3.3 1.1s1.8 4.1 3.9 7.7c6.9 11.7 5.2 11.8 17.3-.4 5.9-6 11.1-10.5 11.5-10.1s-4.1 5.4-10 11c-6.6 6.4-10.7 11.1-10.7 12.3 0 1.1 1.3 4.1 3 6.7 1.6 2.6 2.7 4.7 2.5 4.7-.3 0-2.1-2.5-4.1-5.6-2.5-3.9-4-5.4-5.1-5-1.3.5-1.4.4-.3-.9 1-1.2.8-2.1-.9-4.7-1.1-1.8-3.1-5.3-4.5-7.8-4-7.2-6-8.5-17.6-10.9-13.2-2.8-12.6-2.6-18-4.6-2.5-.9-5.6-1.7-7-1.9s-5.7-1.3-9.7-2.6c-7.4-2.2-9.3-2.1-9.4.8 0 1.2-.3 1.1-.9-.6-1.1-2.7-2.1-2.7-10.5-.1-3.7 1.1-6.9 1.9-7.1 1.6-.2-.2 2.9-1.4 7.1-2.6 4.1-1.3 7.5-2.6 7.5-3.1 0-1.1-32.1-26.6-33.2-26.2-.4.1-.8-.5-.8-1.4 0-1.3-.7-1.5-3-1.1-4 .9-3.8-.1.5-1.9 2-.8 3.3-1.9 3-2.4s0-.7.8-.5c1.4.6 6.3-2.7 15.9-10.7 3.5-2.9 7.6-6.1 9.1-7.1 1.6-1 2.7-2.2 2.5-2.6-.3-.8-25.6-18.1-26.4-18.1-.2 0-.4 7.8-.4 17.4s-.3 17.7-.8 18c-.4.2-.7-7.9-.7-18.1 0-22 1.9-19.1-19.2-29.3-7.9-3.8-14.3-7.1-14.3-7.4 0-.8 2.4.2 18.2 8.1 15.2 7.6 17.4 8.3 16.4 5.8-.3-.8-.1-1.5.3-1.5.5 0 1.1.5 1.3 1.2.3.7 6.9-3.2 16.2-9.6 8.7-5.9 16-10.6 16.2-10.3.2.2-4.9 3.9-11.3 8.3-13.9 9.3-20.3 14-20.5 15.1-.2 1.6 23.7 17.6 26.7 17.8 1.2.1 2.2 1.2 2.7 3.1.5 1.6 4.2 6.9 8.4 11.9 4.1 4.9 9.9 11.9 12.7 15.5 5 6.2 5.2 6.3 5.5 3.7.2-1.5-.1-5.8-.7-9.5-1.1-7-.5-17.2 1-17.2.5 0 .9-1 .9-2.3 0-1.2.7-3.3 1.6-4.5 1.4-2.1 1.4-2.2-.8-2.2-2.1 0-2.3.4-2.2 4.2l.2 4.3-.6-4c-.8-4.5-.3-4.4-13.7-3.2-6.8.6-6.7.6 1.7-.8 8.5-1.4 18.7-5.1 18.8-6.8 0-1.2 2.7-3.7 3.9-3.7.5 0 1.6-.8 2.3-1.8s2.1-2.1 3.1-2.5 1.6-1.1 1.3-1.6.9-1.4 2.7-2.1c1.7-.7 5.1-2.1 7.4-3.1l4.1-1.9-2.7-6.5c-4-9.5-4.6-9.8-8.8-5l-3.5 4 2.6-4.6 2.7-4.7-4.3-.6c-9.4-1.3-34.2-2.6-34.7-1.8-.3.5-1.6 1.1-2.8 1.4-1.9.5-2.1.3-1.3-1.2 1.1-2-2.5-14.1-14.4-48.6-6.3-18.4-7.2-21.4-6.1-20.2.7.6 7.5 20 15.2 42.8 5.3 15.8 7.2 20.7 7.3 18.5 0-.6.9-1.1 2.1-1.1 1.4 0 1.9.5 1.6 1.8-.3 1-.1 1.8.4 1.8s.9-1 1-2.3c0-1.2.5-3.1 1-4.2.7-1.5.8-1 .4 1.7-.7 4.5 0 4.6 5.7 1.3 2.4-1.3 15.2-7.8 28.5-14.5 13.3-6.6 24.6-12.7 25.3-13.5 1.2-1.5-3.9-3.4-21.3-8-5.4-1.4-11.4-3.5-13.3-4.6-2-1.1-3.8-1.9-4-1.7-.1.2-1.2 2.4-2.3 4.8-1.1 2.5-3.2 6.5-4.6 9-4.8 8.3-11.9 22.5-11.7 23.3.2.5-.2.6-.8.2-.7-.4-.7-1.2 0-2.6.6-1 .8-1.9.6-1.9-.6 0 1.1-3.2 7.3-14 4.4-7.5 8-15.4 8.5-18.7.4-1.9-.9-5.8-4.6-13.5-4.9-10.4-6.8-12.8-6.8-9.1 0 1-.7 2.7-1.6 3.8-1.4 1.9-1.4 1.7-.8-2.5.4-2.5.7-4.7.6-5-.1-5.6-.2-5.9-3.9-7-5.6-1.5-35.4-4.7-35.9-3.8-.3.4.2 2.2 1 4 2.1 4.5 4.6 11.8 4.5 13.2 0 .6-1-1.4-2.2-4.4-3.2-8.1-5.6-11.3-7.3-9.9-1.1.9-1.4.8-1.4-.5 0-.9.5-1.6 1-1.6.6 0 1-.6 1-1.3 0-.8-6.1-2.4-17.8-4.6-9.7-1.9-17.2-3.6-16.5-3.8.6-.2 7.1.8 14.5 2.2 7.3 1.4 14.5 2.8 16.1 3.1 3.5.7 3.5-.3-.3-8.5-5.1-11.5-21.7-52.4-24.7-61.1-.9-2.5-2.4-5.4-3.4-6.5-1.5-1.7-1.6-2.3-.4-3.8.9-1.3 1.4-1.5 1.7-.5.4 1 .8 1 1.9.2.8-.6 2.3-1.4 3.3-1.8 1.9-.6 1.9-.6.3 1.2s-1.5 1.9 3.6 3.1c2.8.6 12.4 3 21.2 5.1 19.5 4.8 37.9 8.9 38.3 8.5.4-.3-.9-4.7-3.3-11.5-.9-2.5-4-9-6.8-14.5-5.2-10-5.2-10-8.7-9.7-3.1.2-3.3.1-1.7-1.1.9-.8 1.7-1.9 1.7-2.6 0-.6.7-1.1 1.5-1.1.9 0 3.5-1 5.8-2.1 3-1.6 6.2-2.2 11.7-2.3 9.4-.2 35-7.4 35-9.8 0-.6.9-.8 2-.5s4.3-.4 7.1-1.4c2.8-1.1 5.3-1.8 5.6-1.5.2.2-1.5 1-3.8 1.8-4.5 1.5-6.4 3.8-3.1 3.8 1 0 6.4 2.4 11.8 5.3 5.4 3 20.1 10.6 32.7 16.9 25 12.8 24.5 12.7 21.3 2.7-2.2-6.8-4.9-19.5-4.4-20.9.2-.6 1.2 2.4 2.2 6.7s2.5 9.7 3.2 12.1c.8 2.3 1.4 5.3 1.4 6.5 0 4.9 1.9 5.8 13.5 6.8 6.1.5 17.9 1.8 26.4 2.9 8.4 1.2 15.6 1.8 15.9 1.5s-2.1-2.9-5.4-5.7c-3.2-2.9-8.6-7.8-11.9-10.9-3.3-3-13.4-12-22.5-19.9-18.3-15.8-21.1-18.4-19.3-17.9.7.2 4.7 3.6 9 7.5m-572.1 6.7c-1.6 1.2-7.8 6.2-13.9 11.2-6 4.9-14.2 11.3-18.3 14-9 6.1-11.5 8.5-9.6 9.2 1 .4.6.9-1 1.7l-2.3 1.2-.5 34.1c-.3 18.8-.8 34.5-1.2 34.8-.4.4-.6-13.2-.5-30.3.2-17.1 0-30.9-.4-30.7-.8.5-1-6.4-.3-8.8.3-.9 1.2-1.7 1.9-1.7.8 0 2-.8 2.7-1.8 1.5-1.9 12.3-10.2 13.4-10.2.4 0 3.3-2.2 6.3-4.8 10.1-8.6 25-20.1 26.1-20.1.3 0-.8 1-2.4 2.2m290.1 213.3c.4 1.1-.1 2.2-1.3 3-8.4 6-25.3 19.9-26.8 22.2-1 1.5-3.1 3.6-4.7 4.5s-2.9 2.3-2.9 3.1c0 1-.6 1.3-1.5 1-1.2-.5-1-1.2 1.1-3.7 2.4-2.9 2.5-3.1.8-3.8-1.1-.4-2.9-.8-4.1-.8-1.8-.1-2.3.5-2.4 2.6s-.3 1.8-.8-1.2c-.9-5.2-.5-5.8 2.4-3.9 1.4.9 3.2 1.4 4 1 2-.7 1.9-4.3-.2-5.4-1.5-.9-1.3-1.3 1.7-3.8 4.2-3.6 17-11.5 17-10.6 0 .4-1.3 1.4-2.9 2.3-2.3 1.3-2.9 2.5-3.3 5.9-.2 2.3 0 4.4.4 4.6 1 .6 9.8-5.9 16.3-12 4.7-4.4 4.8-4.7 2.1-4.1-4.7 1-9.2 1.6-7.6.9.8-.3 2.4-.9 3.5-1.4 2.1-.9 5-1.7 7.3-1.9.7 0 1.5.6 1.9 1.5m.3 70.3c-1.2 2.8-2 5.7-1.7 6.5.7 1.8 7 3.3 7.5 1.7.2-.6.9-1.1 1.7-1.1.7 0 1.8-1.3 2.5-2.9.6-1.6 2.1-3.1 3.2-3.4l2-.6-2 2.2c-1.1 1.2-2.3 3.2-2.6 4.4-.4 1.2-1.6 2.5-2.7 2.8-1 .4-1.9 1.1-1.9 1.6s-1.8 2.7-4.1 4.9c-2.9 2.8-5.8 4.4-9.9 5.6-3.2.9-6.9 2.7-8.1 4s-2.9 2.4-3.6 2.4c-.8 0-1.3.6-1.2 1.2.5 2.5-5.4 12.6-8 13.8-1.4.7-3.4 1.6-4.3 2.1-1 .5-2.2.9-2.8.9s-2.9.8-5.3 1.8c-3.6 1.6-6 2.5-13.7 5-.8.2-.6-.3.6-1.1 1.1-.9 3.3-1.9 4.7-2.2 1.5-.4 2.7-1.2 2.7-1.7 0-.6.6-.8 1.3-.6 1.6.7 13.9-4.4 14.4-5.9.4-1.1-7.3-4.4-13.6-5.8-2.3-.5-3.1-.4-2.7.4.4.6.1 1.1-.8 1.1-.8 0-1.8.5-2.2 1.2-.5.8-.2.9 1 .5 1.2-.5 1.9.1 2.6 1.9 1.3 3.4 1.3 4.1-.5 4.1-.8 0-1.7-.9-2.1-1.9-.6-2.1-1.5-2.3-3.2-.6-.9.9-.9.1.2-2.8.8-2.3 1.3-5 1.3-6-.1-1 .3-1.9.8-1.9.6 0 2.6-1.2 4.6-2.8 3.6-2.7 7.3-3.5 8.4-1.7.3.5 1.3.6 2.1.3.9-.3 2 0 2.5.8.7 1.1.9 1 .9-.4 0-1.5.6-1.7 4.2-1.3 4 .5 4.3-.8.3-1.6-1.7-.3-1.5-.6 1.3-2.1 1.7-1 3.2-2.2 3.2-2.7 0-1.4-2.1-2.4-2.9-1.3-.7 1.2-5.3 3.8-6.2 3.6-.4-.1-1.5.7-2.4 1.7-2 2.2-3.5 2.6-3.5 1 0-.6.7-1 1.5-1 .9 0 1.8-.7 2.1-1.5.4-.8 1.1-1.5 1.8-1.5.6 0 2.4-1.2 3.9-2.6 2.3-2 2.7-2.7 1.7-3.9-1.6-2-.4-3.4 2.8-3.3 1.5.1 3.5-.2 4.5-.6 2.4-1.1 2.2 1.6-.4 4-1.1 1-1.8 2.6-1.6 3.6.3 1 .1 2.1-.4 2.4-2.2 1.3-.5 2 4.3 1.7 7.5-.4 9.7-2.2 9.2-7.5-.2-2.4-.5-6.7-.7-9.6l-.4-5.4 2 3.2 2 3.2 2.3-2.9c1.3-1.5 2.7-3.9 3-5.3.8-3.1 1.5-4.3 2.1-3.7.2.3-.5 2.8-1.7 5.6m241.1 148.8c-1.7 2.1-3.1 4.1-3.1 4.5 0 .5 3.6.8 8.1.8 4.4 0 7.8.4 7.5.9-.9 1.5 11.2 3 39.8 5.2l15.9 1.2 4.4-4.6c4.5-4.8 5.3-5.2 2.8-1.3-1.5 2.3-1.5 2.4 1 3 3.3.8 7.2-.2 13.7-3.5 2.8-1.4 3.3-1.1 1.4 1-1.6 1.8-1.5 2 3 6 5.3 4.7 6 4.9 6.7 2.1.3-1.1 1.1-2 1.7-2 1 0 1 .3.1 1.4-.7.8-1.4 2.4-1.6 3.7-.3 1.3-1.2 3-2.1 3.8-1.5 1.5-1.6 1.4-1.1-.8.5-1.9-.1-3.2-2.8-5.8-1.9-1.8-3.7-3.3-4.1-3.3-.7 0-.2 4.1 1.6 12.5.5 2.4-.2 3.5-2.2 3.5-1.3 0-4.1.9-6.3 1.9s-5.3 2.1-7 2.4c-2.6.6-2.5.4 1-1.3 2.2-1.1 5.9-2.8 8.3-3.8l4.3-1.7-2-2.2c-1.2-1.2-4.8-3.2-8.1-4.4s-6-2.5-6-3c0-1 2.5-.1 10 3.5 2.9 1.4 5.5 2.6 5.8 2.6.7 0-1.1-11.5-2-12.8-1.2-1.3-3.2-1.7-2.4-.4.3.5-2.9 2.2-7.2 3.8l-7.7 2.9.3 8c.3 9.1-1.1 8.6-2.3-.9-.7-5.8-.7-5.8-3.6-5.2-3.7.7-17.3 9.6-16.2 10.6.4.4 4.8 1.5 9.6 2.5s8.6 2 8.3 2.2c-.2.3-4.4-.3-9.3-1.3-4.8-.9-10.1-1.8-11.8-2-1.6-.2-6.6-1.2-10.9-2.3-4.4-1-8.5-1.7-9.2-1.4-.7.2-1.7-.4-2.3-1.5s-5-4.1-9.8-6.7c-4.9-2.5-11.8-6.5-15.5-8.7l-6.8-4 3.8-2.7c2-1.5 4.3-3.5 5.1-4.4.7-.9 1.5-1.7 1.8-1.7.2 0-.9 1.7-2.6 3.7m-589.6 44.8c1.7 4.6 3.7 8.3 5.4 9.7 1.5 1.2 1.8 1.8.9 1.5-1.3-.5-1.8-.1-1.8 1.3 0 1 .4 2.2 1 2.5.5.3 2.8 4.4 5 9 2.2 4.7 4.3 8.5 4.8 8.5.7 0 4.2-15.7 4.2-18.8 0-.7-1.6-1.2-3.9-1.2-2.2 0-4.2-.3-4.4-.8-.6-.8 5.3-.5 18.3.8 12.3 1.2 15.8 1.2 17.2-.3 1.2-1.4 5.8-1.1 5.8.3 0 .5-.9 1.2-2.1 1.5-1.2.4-1.8 1.3-1.5 2 .3.8.7 4 1 7.2l.5 5.8-1.4-6.4c-.8-3.6-1.6-6.6-1.8-6.7-.3-.3-15.5 10-23.5 15.9-4.7 3.5-6.7 6.7-4.2 6.7.5 0 4.7 2.4 9.2 5.4 4.6 3 12.3 7.7 17.2 10.5 9.5 5.5 9.4 5.5 13.9.6 1.9-2 1.9-1.9.2.8-.9 1.6-1.4 3.5-1.1 4.2.3.8 0 1.6-.7 1.8-1.7.5-4.7-.4-4.7-1.4 0-.5-1.7-1.7-3.7-2.7-5.9-3-15.2-8.4-23.2-13.6-4-2.6-7.5-4.5-7.8-4.2-1 1-2.8-1.9-8.3-13.2-3-6.1-5.7-11.2-6.2-11.2-.4 0-1.2-1.9-1.8-4.3-.6-2.3-1.9-6.5-3-9.2-2.3-6.2-3.3-9.5-2.7-9.5.2 0 1.7 3.4 3.2 7.5m584.5 8c3.6 1.5 10.8 4.7 16 7 10.4 4.8 14.7 5.8 16.9 4.1 1.1-.8 1.3-.8.7.1-1 1.8 2.4 1.6 4.8-.2 1.1-.8 2.5-1.5 3-1.5.6 0 0 .9-1.4 2-2.5 1.9-2.4 1.9 16 1.5 10.2-.2 16.5-.1 14 .3l-4.5.7.3 9c.2 4.9.7 9.3 1.1 9.8.9.9 4.6-3.2 10.7-12 2.6-3.7 5.2-7.1 5.8-7.5 1.1-.7.1-1.2-1.7-.9-.5.1-.6-.3-.2-.9.3-.5 1.2-1 2-1s2.7-1.9 4.4-4.3c1.6-2.3 3.8-5.1 4.8-6.2 1.1-1.1 2.5-2.9 3.1-4 1.1-2 1.1-1.9 1.2.2 0 1.2-.5 2.5-1 2.8-.6.4-3.2 3.9-5.7 7.8-2.6 4-5.8 8.3-7.1 9.7-1.4 1.4-3.9 4.7-5.7 7.5-1.8 2.7-4.6 6.3-6.4 7.9-1.7 1.7-3.1 3.5-3.1 4.2 0 .6-2.4 2.4-5.2 3.8-4.6 2.3-4.5 1.5.2-1.5 1.3-.8 1.3-1.1-.3-2.2-1-.7-6-4.1-11-7.7-10.2-7.3-16.8-11.5-18-11.5-.4 0-1.1-.5-1.5-1.1s-3.4-2.3-6.7-3.7c-26.8-11.3-38.5-16.4-39.1-17-.9-.9 4.3 1 13.6 4.8m328.2 96c1.1 1.4 2.3 2.3 2.8 2 .8-.5 2.4 3.1 3.4 7.5.5 2.1.4 2.1-.9-.5-.8-1.7-1.4-3.6-1.5-4.4 0-.8-.3-1.1-.6-.8-.8.8 1.5 9.8 2.8 11.2.6.6.8.5.6-.5-.2-.9.4-1.4 1.4-1.4 1 .1 1.5-.2 1.2-.7s.5-4 1.7-7.9c1.8-5.4 2.7-7 4.2-7 1.4 0 1.7.5 1.2 1.7-3.8 9.7-6.6 18.1-6.8 20.9-.1 2.4-.6 3.3-1.5 2.9-.8-.3-1.9-.5-2.6-.5-1.1 0-9.6-21.1-9.6-23.9 0-1.9 2.1-1.2 4.2 1.4m21 4c-.5 2.6.6 3.3 2.5 1.4 1.4-1.4 6.7-.3 8.4 1.7.6.8 1.6 1.4 2.2 1.4s1.8.7 2.8 1.6c1.6 1.4 1.8 1.4 2.9-.5 1.5-2.9 6.7-5.4 9.6-4.7 5.1 1.3 11.4 6 12.5 9.4.6 1.8.9 3.6.6 3.8-.3.3-.8-.8-1.2-2.4-.6-2.9-4.5-7.6-4.5-5.5 0 .6.7 1.6 1.5 2.3s1.5 1.8 1.4 2.4c0 .7-.2.6-.6-.2-.7-1.9-2.3-1.4-2.3.7 0 2.9-4.6 7.9-6 6.5-.7-.7-.5-1.6 1-2.9 2.7-2.4 2.7-7.5.1-7.5-2.2 0-5.1 3.5-5.1 6 .1 2.1 4.6 7 6.5 7 .9 0 2.7-1.2 4.1-2.6 1.5-1.4 2.4-2 2.2-1.3s-1.6 2.2-3.1 3.3c-2.4 1.7-3.2 1.9-5.8.9-2.7-1.1-2.9-1-1.7.4 1.2 1.5 1.1 1.5-.9.5-1.2-.7-2.9-2.2-3.7-3.4-.9-1.2-1.6-1.9-1.6-1.4 0 .4-1.1-.1-2.5-1.2-1.5-1.2-3.4-1.8-5-1.4-1.4.2-2.4.7-2.1.9.3.3-.5 1.4-1.7 2.3-3.2 2.7-1.2 3.7 2.8 1.5 4.3-2.3 5.7-1.2 2.5 1.8l-2.4 2.2 1.8-2.3c2.2-2.6 1.5-2.8-1.9-.6-1.6 1-3.4 1.4-5.1 1-1.8-.5-2.4-.3-1.8.5.9 1.5-.7.6-5.4-2.9-2.2-1.7-3.1-3-2.7-4.1.3-.8.3-1.2-.1-.9-.9 1-2.9-1.3-3.7-4-.3-1.3-.3-2.1 0-1.8.6.6 4.3-6.2 4.3-8 0-.7-.6-1.5-1.2-1.7-.7-.3-.3-.6.8-.6 1.7-.1 2 .4 1.6 2.4"/><path d="M435.5 87.9c-1.1.4-5.1 2.2-9 4-3.8 1.8-9.2 4.3-12 5.6-2.7 1.2-11.7 5.4-20 9.3-8.2 3.9-19 8.8-24 11.1l-9 4.1h4.5c2.5 0 13.3-.5 24-1l19.5-1 3.5-3.8c1.9-2.1 7.3-8.2 12-13.7s9.7-11.2 11.2-12.7c2.7-2.9 2.7-3.1-.7-1.9M446 88.7c0 .7.6 1.3 1.3 1.3.8 0 .8.3-.2.9-1.1.7-.9 1.4 1.3 3.6 1.4 1.4 2.4 3 2.2 3.4-.3.4.2 2.1 1 3.7.9 1.6 1.6 3.1 1.6 3.4s.3.4.8.3c.4-.1.8.8.8 2.1s1.4 5.3 3.2 8.8c1.7 3.4 3.3 7.2 3.6 8.2.2 1.1.9 2.4 1.5 3 .9.8 1 .7.4-.3s-.4-1.2.4-.6c.8.4 1 1.7.7 3.4-.5 2-.4 2.2.4 1.1.8-1.3 1.1-1.3 1.9-.1 1.2 1.8 4.1.7 4.8-1.9.3-1.1.9-2 1.4-2s.6-.7.3-1.5c-.4-.8-.1-1.5.4-1.5.6 0 1.7-1.1 2.4-2.4s2.8-4.5 4.7-7.1c1.8-2.6 3.4-5.8 3.4-7 0-1.4.7-2.5 1.8-2.8 2.4-.6 2.5-2.7.2-2.7-1.4 0-1.5-.2-.4-.9 1-.6-.4-1.4-4.5-2.5-3.3-.9-12.5-3.8-20.6-6.5-10.6-3.4-14.8-4.4-14.8-3.4M502.5 109.7c.1 1.6.3 3.6.3 4.5.1.9 1.2 2 2.5 2.4 2.6.8 4.7 2.8 6.7 6.7 1.1 2.3 1.9 2.7 4 2.3 5.9-1.4 11.3-1.6 12.6-.5 2 1.6 9.2.2 7.4-1.4-1-.9-1.4-.9-1.7 0-.3.7-1.2 1.3-2.1 1.2-1.4 0-1.2-.3.6-1.6 2.2-1.6 2.2-1.6-2.5-4.1-3.6-1.9-27.1-12.2-27.9-12.2 0 0 0 1.2.1 2.7M544.5 132.2c-1 2.4-2.4 5-3.1 5.8-.6.8-2.3 3.5-3.6 6-1.4 2.5-6.6 11.2-11.5 19.5-13.4 22.5-15.3 26.1-14.5 27 .4.5.2.6-.3.3-.6-.4-3 2.3-5.3 5.9l-4.4 6.5 4.9-.6c2.6-.3 8.4-1.3 12.7-2.1 4.4-.8 12.2-2 17.5-2.6 9.6-1 49.7-7.9 51.8-8.8.5-.2-38.7-57.5-40.8-59.6-1.4-1.4-1.7-1.2-3.4 2.7M371.9 190.6c-.9 1.2-1.5 1.2-2.7.2-1.3-1.1-1.4-1.1-.7.1.6 1.1.4 1.3-.7.8-.9-.3-1.5 0-1.5.6.1 3.2-.4 4.4-1.8 4.4-1.8 0-2-1.3-.2-2 .7-.3.5-.6-.5-.6-1-.1-1.9.5-1.9 1.1-.1.7-.2 1.7-.4 2.3-.1.5-.3 1.6-.3 2.4-.1.8-.8 1.1-1.9.7-1-.4-2.3.1-3.5 1.4-1 1.1-1.4 2-.8 2s.8 1.1.4 2.7c-.8 3.1-2.3 4.5-3.8 3.6-.5-.4-.6-.1 0 .8.5.8.9 2.1.9 2.9 0 .9 1.2 1.6 3 1.8 4 .5 6.9 3 5.4 4.9-.6.7-2.2 1.3-3.5 1.3-2.8 0-7.4 2-7.4 3.2 0 .4-.7.8-1.5.8-1.2 0-1.2-.3.2-1.9.9-1.1 2-1.8 2.5-1.5.4.3.8-.1.8-.8s.3-2.3.6-3.6c.9-3.2-3.2-3-5.9.4l-2 2.6-1.8-3.3c-1-1.9-1.9-2.8-2-2.2-.1.7-.2 1.7-.3 2.2 0 .5-.5 1.3-1 1.8s-.6.3-.2-.5c.4-.6.3-1.2-.3-1.2-.5 0-1.1.3-1.3.7-.1.5-2.5 2.8-5.2 5.2l-4.9 4.4 15.4-.8c8.5-.5 16.8-.9 18.4-1.1 1.7-.1 5-.2 7.5-.3l4.5-.2-2.4-1.9c-1.3-1.1-1.8-2-1.2-2s1.1-.7 1.1-1.5.7-1.5 1.5-1.5 1.5-.7 1.5-1.5.7-1.5 1.5-1.5 1.6-.8 1.6-1.8c.2-2.3.2-2.4-.6-4.7-.5-1.4-.4-1.6.3-.7.7 1 1.1.5 1.6-1.9.3-1.8.4-3.4.1-3.7s-.5.2-.5 1.1-.4 1.8-.8 2.1c-.8.5-.8-6.4 0-8 .4-.8.4-4 0-7-.3-1.8-4-2.3-5.3-.8M269.2 191.7c-.5 1-1.7 5.4-2.7 9.8s-2.4 10-3.2 12.5c-2.8 9.2-5.3 22.5-4.3 22.8.7.3.7.9-.1 1.8-.9 1.1-.9 2.4-.1 5.2 1.8 6.4 6.5 32.8 6 34.2-.2.7-1.7-5.2-3.2-13.1-3.7-18.5-4.5-20.3-4.5-11-.1 10.5-1 8.3-1.3-3-.1-8.6-1.4-9.6-1.7-1.3-.1 1.8-1.3 5.7-2.7 8.8-3 6.6-2.7 9 1.5 13.5 1.6 1.7 2.7 3.1 2.4 3.1s1.9 2.5 4.8 5.5c3 3 6 5.5 6.7 5.5s1-.5.6-1.2-.3-.8.4-.4 1.2 1.6 1.2 2.6c0 1.1 1.2 2.7 2.8 3.7 1.5 1 6.9 4.8 12.1 8.6 8.6 6.3 9.6 6.8 12.9 6.2 3.2-.6 3.4-.5 2.2 1-1.9 2.3-.4 3.5 13.2 9.9l11.8 5.5.7-2.7.7-2.7.8 3.4c.8 2.7.6 3.7-1 5.5-2.1 2.3-9.2 16.7-9.2 18.7 0 1.2 9.9.8 14.8-.7 1.2-.3 2.2-.2 2.2.4 0 .5-2.2 1.2-5 1.6-2.7.4-5.2 1.1-5.5 1.6-.6 1 6.7 4.9 9.2 5 .6 0 1.5-.9 1.8-2s1.3-2 2.1-2 1.4-.5 1.4-1c0-.6-.4-1-1-1-.5 0-1-.5-1-1 0-.6.6-1 1.4-1 .7 0 1.9-.7 2.6-1.5 1.1-1.4 1-1.4-1.5-.5-4.3 1.6-4 .6 1.5-4.1 2.7-2.4 5-4.9 5-5.6s.9-1.7 2-2.3 2-1.7 2-2.4 1-1.8 2.3-2.4c2.1-1 2-1.1-1.3-1.3-1.9-.1-7.5-.2-12.5-.1-8 0-8.5 0-4-.8 2.8-.4 7.7-.9 11-.9 8.6-.2 9.1-.6 7.6-8-2.3-11.9-4.7-14.9-15.8-20.5-2.8-1.4-5.4-3-5.8-3.6-.3-.5-1.8-1-3.3-1h-2.7v-22.4c0-12.3-.4-24.3-.9-26.7l-.8-4.4-1.3 3.5c-.7 1.9-2.7 7.9-4.4 13.2-1.8 5.4-3.4 9.8-3.7 9.8s-.2-1 .2-2.3c.4-1.2 2-6.8 3.5-12.5s3.4-11.1 4.3-12.1c3.4-3.7 2.1-4.4-6.6-3.8-4.6.4-13.9.9-20.8 1.1-16.9.7-7.1-1 12.7-2.2 7.9-.4 14.6-1.1 15-1.5.3-.4 0-1.3-.9-2-.8-.6-4.9-4.9-9.1-9.3l-7.6-8.2-7.5 6.7c-4.1 3.6-9.8 9.4-12.8 12.8-4.5 5.4-5.5 7.2-6.4 12.5l-1.2 6.3-.1-6.3c-.1-5.1-.4-6.2-1.8-6.2-1.5 0-1.5-.1.2-1.3 2-1.6 1.9-4.7-1.3-25.2-.9-6.1-1.6-12.7-1.6-14.8 0-4.2-.2-4.4-1.4-2M486.5 206.6c-1.1.2-8.6.8-16.6 1.2-8 .5-15 1.2-15.5 1.5-.6.3-.7 4.1-.2 9.4.4 4.8 1 18.4 1.3 30.1s.7 23.9 1 27c.2 3.1.4 7.3.5 9.2 0 2.1.4 3 .9 2.5 1.3-1.3 26.8-51.8 33.6-66.5 3-6.6 5.5-12.6 5.5-13.4 0-1.2-1-1.6-4.2-1.5-2.4.1-5.2.3-6.3.5M449.1 220.7c-.1.7-.8 1.3-1.6 1.3s-1.8 1.2-2.1 2.7c-.4 1.6-1.6 3.4-2.6 4.1s-1.8 1.9-1.8 2.5c0 .7.4.6 1.1-.3.8-1.1.9-.7.4 1.7-.6 2.9-.4 3.2 2.2 3.5 2.4.3 2.8.8 3.1 3.9l.3 3.6-5 .7c-2.8.4-5.3 1.1-5.6 1.6s.4 3.1 1.4 5.9c3.5 8.7 15.1 32.9 16.1 33.6.3.2.2-2.9-.1-6.8-.3-4-.7-13.2-.8-20.6s-.4-13.7-.6-14.1c-.2-.3-.7-5-1-10.5-.4-5.5-1-10.2-1.5-10.5-.4-.3-1-1.2-1.3-2-.3-.9-.6-1-.6-.3"/><path d="M343.5 229.7c-3.3.1-8.8.5-12.2.9l-6.3.6v15.6c0 19.8 1 38.2 2.2 38.2.4 0 .8-.5.8-1.1 0-1.1 9.9-13.1 24.5-29.6 16.9-19.1 20.5-23.4 20.5-24.3s-14.4-1.1-29.5-.3M374.7 236.6c-.4.4-.7 1.6-.7 2.6s-.5 1.7-1.2 1.5c-.6-.1-1.6 1.1-2.1 2.8-.5 1.6-1.8 4.7-2.9 6.7-1 2-1.7 4-1.6 4.5.1.4-1 2.7-2.6 5-1.6 2.4-2.5 4.7-2 5.4.4.7.3 1-.3.6-1-.6-2.8 2.1-2 3 .2.2 4.4-2.4 9.4-5.7 9-5.9 9-6 9.6-10.8.8-6.6-1.7-17.4-3.6-15.6M361.9 247.1c-3 3.3-6.9 7.7-8.7 9.7-10.5 11.5-23.2 26-23.2 26.5 0 .6 17.5-8.4 22.8-11.7 2.5-1.6 4.3-4.3 7.3-10.9 2.2-4.8 3.7-9.2 3.4-9.7-.3-.4 0-1 .6-1.2s1.3-1.7 1.4-3.2c.2-1.6.9-3.3 1.6-3.7.8-.4 1.1-1.1.7-1.4-.3-.3-3 2.2-5.9 5.6M428.5 245c.4.6-.8 1-2.8 1-1.9 0-4.7.4-6.3.9-20.5 6.4-26.4 8.6-26.4 9.8 0 2.6.2 2.8 2.1 2.6 1.1-.2 1.8.1 1.4.7-.3.5.3 1.4 1.4 2 1.8.9 2 .8 1.4-.7-.6-1.6-.5-1.6 1-.4.9.7 1.7 1 1.7.6s.7-.2 1.5.5 1.2 1.6.9 2.1c-.5.8 16.3 9.5 19.1 9.9.6.1 1.7.7 2.5 1.4 2.2 1.9 13.1 6.7 14 6.1.4-.3 1.3.2 2 1s1.9 1.5 2.6 1.5c.8 0 1.4.4 1.4 1 0 .5 1 1 2.3 1s2.8.5 3.5 1.2c1.9 1.9 1.4-.3-.8-4-1.1-1.8-3.2-6-4.6-9.5-5.8-14-12.7-27-14.5-27.4-1.1-.3-1.9-.9-1.9-1.4s-.5-.9-1.1-.9c-.5 0-.7.4-.4 1M348 276.4c-3 1.2-7.3 3.4-9.5 4.8s-5 2.8-6.2 3.2c-1.1.4-2.6 1.3-3.2 2-.9 1.1.5 2.3 7.1 6 4.5 2.6 8.8 4.5 9.6 4.4 1.7-.4 4.5-7.5 6.5-16.4.8-3.5 1.4-6.4 1.4-6.4-.1.1-2.7 1.1-5.7 2.4M353.1 284.7c-3.4 10.8-3.7 12.3-1.9 12.3 1.6 0 14.3-4.7 18.6-6.8 3.4-1.8 4-2.7 1.9-3.5-.7-.3-4.2-3-7.9-6.1-3.6-3.1-6.7-5.6-7-5.6s-1.9 4.4-3.7 9.7M255 290c0 8.9.3 11 1.4 11 .8 0 1.8-.5 2.1-1 .3-.6 1.1-1 1.6-1 .6 0-.3 1.1-1.8 2.4-2.7 2.3-2.7 2.5-.8 3.2 1.1.4 5.1 2.9 8.8 5.7 3.7 2.7 7.1 4.7 7.4 4.3.3-.3 1.2-.1 2 .5 2.1 1.8 1.6-1.3-1.2-8.3-1.4-3.4-2.5-6.4-2.5-6.7s2.3 3.7 5.1 8.9 5.5 9.9 6 10.4c.5.6 2 0 3.7-1.7 3.2-3.1 5.4-3.7 2.7-.7-1.5 1.7-1.5 2.1-.3 3.4.8.8 2.5 1.2 3.9.9 2-.4 2.4-1.1 2.7-4.9.3-4.1 0-4.7-5-9.5-2.9-2.8-6.4-5.8-7.8-6.7s-4.4-3.1-6.8-4.9c-4.7-3.5-7-4-9.1-2.1-1.1 1.1-1.1.9-.2-.9 1-2 .6-2.8-4.6-7.8-3.2-3-6.1-5.5-6.5-5.5-.5 0-.8 4.9-.8 11M369 292.6c-3.6 1.4-9.4 3.5-13 4.6-8.1 2.6-8.7 3.1-6.8 6 .8 1.3 1.8 3.6 2.2 5.3.4 1.6 1.1 4.2 1.7 5.7l1.1 2.6 4.1-2.1c2.2-1.2 5.6-3.8 7.5-5.7 2.1-2.3 3-2.7 2.3-1.4-.9 1.9-.7 2.3 1.2 2.7 3.4.8 14.2.1 16.2-1 1.5-.9 1.4-1.5-1.5-7.4-3.6-7.1-6.8-11.9-7.8-11.9-.4.1-3.6 1.2-7.2 2.6M380 291.3c0 .9 1.7 4.3 3.8 7.5 6.3 9.8 7.7 11.2 11 11.2 1.7 0 3.2.5 3.4 1.1s1.6-.8 3.2-3.1c3.4-5.2 4.4-4.6 1.7 1.1-1.2 2.3-2.1 4.4-2.1 4.5s1.1.5 2.5.8c1.4.4 2.5 1.3 2.5 2.2 0 .8.6 1.4 1.3 1.3.6-.1 1.9-.1 2.8 0 2.1.1 12.2 9.8 11.5 11-.5.7 4.2 3.1 6 3.1.1 0-1.4-3.3-3.4-7.3-5.7-11.2-9.5-19.7-9.1-20.2.3-.2 2.4 3.5 4.8 8.3s5.4 10 6.6 11.7c1.2 1.6 2.5 4 2.9 5.2.4 1.3 1.1 2.3 1.6 2.3s2.7-2.6 4.8-5.8c7.3-10.8 9.2-13.5 9.2-12.7 0 1.1-4.3 7.9-5.2 8.3-.4.2-.8.8-.8 1.2 0 .5-1.3 3.1-3 5.7-1.6 2.6-3 5-3 5.3 0 .7 16.2 3.7 24.8 4.6l6.2.7V334c0-6.5.9-6.2 1.2.3.2 3.8.6 4.6 1.8 4.1.8-.4 3.5-1.4 6-2.4 3.5-1.3 21.1-10.1 27.3-13.7 1.1-.6-7.8-6.5-16.8-11-3.8-2-11.2-6.7-16.2-10.6-10.6-7.8-9.9-7.9-16 1.7-1.8 2.8-3.3 4.7-3.3 4.2 0-1.1 4-8.6 6-11 1.5-1.8 1.1-1.9-15-1.1-9.1.4-18.9.9-21.8 1s-5.6.5-5.9.8c-.3.4.2 1.8 1.1 3.1.9 1.4 1.6 2.9 1.6 3.3s-1-.7-2.2-2.6l-2.2-3.4-1.8 2.3c-1 1.2-1.8 1.8-1.8 1.3s.5-1.4 1.2-2.1c2-2 0-2.8-11.7-5.2-6-1.3-12-2.5-13.2-2.8-1.6-.3-2.3 0-2.3 1.1M299 312.9c0 1 10.7 20.2 12.1 21.6.6.5.9.4.9-.5.1-.8.8-.2 1.6 1.3s1.9 2.5 2.4 2.2c1.6-1 8.1-12.6 7.5-13.5-.4-.7-23.1-12-24.1-12-.2 0-.4.4-.4.9M488.4 330.4c-6.6 3.3-13.9 6.9-16.2 7.9-5 2.2-5.3 3.8-.9 6.5 1.7 1.1 7.7 5.5 13.1 9.7s10.7 8 11.7 8.5c2.2 1.2 2.3.5 3.9-20 .6-8 1.4-15.5 1.7-16.8.3-1.2.1-2.1-.3-2.1-.5.1-6.3 2.9-13 6.3M431.9 336.3c0 .1-.2 5.9-.3 13-.1 7 .2 12 .6 11 .6-1.6.7-1.5.7.4.1 1.9.4 2.1 3.2 1.3 1.8-.5 3.6-.7 4-.4.5.3.9 0 .9-.6s.4-.9 1-.5c.5.3 5.6-3.8 11.4-9.2 11.3-10.5 11.4-11.1 3.1-11.2-2.2-.1-7.1-.7-11-1.5-10-2-13.5-2.6-13.6-2.3M464.9 343.7c-.5 5.6-1.6 11.6-5 26.3-2.1 9.6-3.9 18.4-3.9 19.7 0 2 .8 1.7 10.8-3.9 16.9-9.6 30.2-18.1 30.2-19.4 0-.7-.6-1.4-1.2-1.7-1.2-.5-25.7-18.3-28.5-20.7-1.4-1.2-2.3-1.3-2.4-.3M374.1 395.3c-5.3 3.9-7 6.2-5.5 7.7 1.1 1.1 19.6 6 20.3 5.4.2-.2-.2-3.7-.9-7.9-1-5.7-1.6-7.3-2.5-6.5-.9.7-1.6.6-2.5-.5-1.8-2.2-4-1.8-8.9 1.8M326.5 418c.4 1.4 1.5 4.7 2.5 7.5 1 2.7 2.8 8.8 4 13.5s3.1 11 4.2 14 2.8 8 3.7 11.1c2.4 7.3 5.3 13.9 6.2 13.9.4 0 3.5-3 6.9-6.8l6.2-6.7-4.9 6.4c-2.6 3.6-5.6 7.3-6.6 8.4-1.1 1.1-1.6 2.5-1.2 3.5.4.9 1.6 4.5 2.7 7.9 2.2 6.7 3.2 7.7 4.1 4 1.3-5.9 6.1-21.3 6.8-22.1.5-.5.4.6-.1 2.5-.6 1.9-2.2 7.3-3.5 12s-2.7 9.3-3.1 10.2c-.3 1-.1 1.7.5 1.7 1.7 0 31.1-14.2 31.1-15.1 0-.4-1.9-2.7-4.2-5.1-2.4-2.4-6.9-7.2-10.1-10.6s-6.3-6-6.7-5.7c-.5.3-1.2 2.1-1.6 4-.3 2-1 3.8-1.6 4.1-.5.3-.7-.5-.4-1.8 2.1-9.9 2.7-8.3-10.6-25-14.6-18.2-25.3-29.6-24.3-25.8M297 443.6c-.8.3-2.2.8-3 1.1s-3.2.6-5.2.5c-7-.1-6 1.9 4 8.1 7.2 4.5 8.8 4.8 12.2 2.3.8-.6 5.6-3.1 10.7-5.6s9.2-4.8 9.3-5.1c0-.4-4.6-.7-10.2-.8-5.7-.1-11.6-.3-13.3-.6-1.6-.2-3.7-.2-4.5.1M343.6 487.1c-.8 1.9-1.8 4.7-2.1 6.2-.4 1.5-1.2 2.7-1.7 2.7-.6 0-.8.9-.5 2s.1 1.8-.3 1.5c-.9-.5-2.6 3.3-2.2 4.9.2.5-.4 1.6-1.1 2.5-1.6 1.8-2.8 7.1-1.7 7.1.4 0 1.6-.8 2.8-1.8 1.1-.9 4.8-3.9 8.1-6.5 3.4-2.7 6.1-5.4 6.1-6 0-.7-1.3-4.6-2.9-8.7l-3-7.5zM823.4 99.5c-8.3 2.4-16.8 4.6-18.8 4.9-5.1.8-9.5 3.3-10.6 5.9-.5 1.2-.9 1.6-.9.8-.1-.8-.4-1.2-.7-.9s2.6 7.1 6.5 14.9c3.8 7.9 7.3 15.6 7.6 17.1.6 2.5 2.5 4 2.5 2 0-.4 1.1-2 2.5-3.6s4.6-6.8 7.2-11.5c3.9-7.3 9.2-15.7 18.2-29.1 2.8-4.2 3.3-5 2.4-4.9-.4 0-7.6 2-15.9 4.4M847 96.2c0 .6 1 2.5 2.3 4.2 1.2 1.7 2.8 4.2 3.5 5.6 2.7 5.5 7.6 13.7 10.6 17.7l3.1 4.2 12 .1c6.6.1 16.4.3 21.8.6 6.7.4 9.7.2 9.7-.5 0-.6-3.9-3.1-8.7-5.5-4.9-2.4-19-9.5-31.5-15.9-12.6-6.4-22.8-11.1-22.8-10.5M840.8 97.7c-.8 1-3.7 5.4-6.3 9.8s-5.7 9.3-6.9 11c-2.2 3-4.6 6.9-9.4 15.4-2.1 3.9-2.2 4.5-.9 5.3.9.5 1.4 1.5 1.1 2.3-.5 1.2 0 1.2 2.8.4 1.8-.6 4.9-1.5 6.8-2 1.9-.6 6.2-1.9 9.5-3s8.3-2.7 11-3.6c2.8-.9 5.4-2 6-2.4.5-.5 2-.9 3.3-.9s2-.4 1.7-1c-.3-.5 0-.7.8-.4 2.8 1 2.8-1.5 0-5.8-1.5-2.4-3.6-6.1-4.8-8.3-2.7-5-8.9-15.1-10.5-17s-2.4-1.9-4.2.2M920 132.7c0 1.3.2 1.4 1.7.2s1.6-1.2 1 .3c-.8 2.3.8 3.2 3.4 1.8 2.5-1.4 4-.3 1.9 1.3-.8.7-1.7 2.7-1.9 4.6-.2 2.9 0 3.3 1.5 2.7 1.4-.5 1.5-.4.4.8-1 1.3-.6 2.9 2.1 8.8 1.9 4 4.8 9.8 6.5 12.8s4.8 9.1 6.9 13.5c2 4.4 6 12.5 8.8 18s5.5 11 6.1 12.2c.6 1.3 1.4 2.3 1.7 2.3.4 0 1.4-3.7 2.3-8.3.9-4.5 2.7-13.8 4.1-20.7s3.2-17.5 4.1-23.5c.8-6.1 1.9-13.4 2.3-16.3s.5-5.4.2-5.6c-1.3-.8-20-3.5-28.1-4.1-4.7-.4-10.3-.9-12.5-1.1-10.9-1.4-12.5-1.3-12.5.3M738.4 135.6c.9 3.6 12.7 33.5 17.1 43.4 3.1 7 4.6 11 5.1 13.5.1.6 1.9 4.6 4.1 8.8l3.9 7.8 4.5-6.3c5-6.9 21.6-33.7 26.8-43.3 1.8-3.3 3.7-6.4 4.2-7 .5-.5.9-1.6.9-2.4s-.3-1.1-.7-.8c-.3.4-1.1.3-1.7-.2-1-.8-49.3-13-57.6-14.6-1.9-.4-4.3-.9-5.4-1.2-1.6-.4-1.8-.1-1.2 2.3M976 143c0 1.1.5 2 1 2 .6 0 1 1.7 1 3.7 0 2.1.7 7.4 1.5 11.8.9 4.4 2.5 16.8 3.5 27.5 3.4 33.9 5.2 46.3 6.9 49 .9 1.4 1.1 2.1.4 1.7-.7-.5-1.3-.4-1.3.2s1.5 1.3 3.3 1.5c3.7.7 21.9 2.6 24 2.6 1.1 0 1.3-1.7 1-8.3-.3-4.5-.8-9.1-1.3-10.2s-1.1-6.7-1.4-12.5c-.2-5.8-1.1-13-1.8-16l-1.4-5.5-1.7 3.2c-1 1.8-3.1 6.9-4.7 11.3-1.6 4.5-4.2 10.7-5.6 13.8-1.5 3.1-3.5 7.7-4.6 10.2s-2.2 4-2.5 3.3c-.2-.6.7-3.3 2-6 3.1-6.1 8.9-20.2 11.1-27 1-2.9 2.2-5.5 2.7-5.9.5-.3.7-1 .4-1.5-.4-.5-.1-.9.5-.9 2.6 0-1.2-9.6-5.7-14.5-2.3-2.5-14.8-19.3-19.2-26-1.9-2.8-4.4-6-5.7-7.3-2.3-2.2-2.4-2.2-2.4-.2"/><path d="M974.7 147.6c-.3.6-1.4 5.8-2.3 11.5s-3.1 18.5-4.9 28.4c-1.9 9.9-3.6 20.7-3.9 24l-.6 6 8.3 6.8c11.3 9.1 15.1 12.6 14.6 13.2-.3.2-3.2-1.8-6.5-4.6-3.2-2.8-7.9-6.5-10.4-8.2s-5.1-3.7-5.8-4.4c-2-1.9-3.3-1.6-7.3 2-2 1.7-6.2 5.4-9.3 8.1s-5.3 5.2-4.9 5.6 8.2 1.3 17.3 2 18.8 1.5 21.7 1.7c4.9.4 5.3.3 5.8-2 .4-1.3.2-5.1-.4-8.3s-1.5-11.5-2.1-18.4-1.3-13.9-1.5-15.5c-.3-1.7-.9-7.3-1.5-12.5-2.2-21-5.1-37.3-6.3-35.4M803.4 158.2c-.9 1.8-2.9 5.2-4.5 7.4-1.5 2.3-2.9 4.7-3.1 5.4-.2.8-1 2.2-1.8 3.2s-2.4 3.4-3.5 5.2c-4.7 7.8-14 22.3-16.3 25.3-1.3 1.8-2 3.3-1.6 3.3.5 0 .2.5-.6 1-2.8 1.8.4 2.9 11 3.9 5.8.6 13.2 1.5 16.5 2.1 10.5 1.8 10.4 1.8 9.9-4.3-.3-2.8-.9-14.9-1.5-26.7-1.2-26.1-1.1-25-2.2-25-.5 0-.7-.9-.4-2 .8-3 0-2.4-1.9 1.2"/><path d="M932.2 167.2c0 1.8-.5 5.5-1.1 8.1-.8 3.4-.8 6.6-.1 11 .6 3.4 1.6 9.3 2.1 13.2.6 3.8 1.5 7.4 2 7.9.5.6.9 2 .9 3.2 0 2.8 1.9 4.2 3.1 2.3.6-1 .9-.8.9.8 0 1.4-.6 2.3-1.5 2.3-.8 0-1.5.6-1.5 1.2.1 2.4 2 15.2 2.4 15.6.2.2 2-1.2 3.9-3.1s4.4-4 5.6-4.6c1.2-.7 1.9-1.6 1.6-2.2-.4-.5-.3-.8.2-.7.4.1 2.3-1.1 4-2.8 4-3.6 3.7-5.3-2.9-16.5-2.5-4.2-5.5-10.4-6.7-13.8s-3.2-7.8-4.4-9.9c-1.3-2-3.6-6.3-5.1-9.5-1.6-3.1-3-5.7-3.1-5.7-.2 0-.3 1.5-.3 3.2M1017.2 200.5c0 1.6.3 5.1.7 7.7s.4 4.5 0 4.3c-1.7-1.1-1.9 3.4-.5 10.9.8 4.5 1.8 10.7 2.1 13.8.4 3.2.9 5.8 1.3 5.8s.7 1.8.7 4-.4 4-.8 4c-.5 0-.5.5-.2 1 .3.6-.3 5.5-1.4 10.9-1.2 5.5-2.1 11.6-2.1 13.5 0 2-.5 3.6-1 3.6-1.2 0-.7-7 .9-14.1 1.1-4.7 2.1-13.9 1.5-13.9-.1 0-4.3 8.2-9.3 18.2-8.1 16.6-12 23.5-12.1 21.6 0-.3 3.7-8.2 8.3-17.5 9-18.1 13.3-28.1 12.4-28.9-.6-.6-27.8-3.7-28.3-3.2-.2.2.3 5.3 1.1 11.4.8 6 1.6 15.6 1.9 21.4.5 10.3.5 10.4-.4 2.5-2.6-23-3.2-27.4-4.3-31.3-.8-2.9-1.8-4.4-3.2-4.7-5.1-1.1-43.9-3.5-44.5-2.8-.5.4 0 3.3 1 6.3s1.9 6.4 1.8 7.5c0 1.1-.9-.9-2-4.4-1-3.4-2.1-6.1-2.3-5.9s-.9 8-1.5 17.3c-.6 9.4-1.7 21.2-2.4 26.4l-1.3 9.4 2.6 2.5c2.2 2.1 2.3 2.3.4 1.3-3-1.5-3.1-1.5-3.6 1.6l-.4 2.8-.2-2.8c0-1.5-.4-2.7-.7-2.7-.6 0-13.8 6.1-19.1 8.8-1.8.9-3.3 2.2-3.3 2.9s-.5 1.2-1.1 1c-1.3-.3-3.7 7-4.4 13.6-.3 3.4-.1 4.6.6 4.1.6-.3 1.4-.2 1.8.4.3.6 5.4 1.4 11.2 1.7 10 .7 10.8.6 12.8-1.4 1.6-1.6 2.1-1.7 2.1-.6 0 1.7 1.6 2 2.5.5.3-.6 1.3-1 2-1 2 0 22.5-10.1 22.5-11.1 0-.4-.4-1.1-1-1.4-.5-.3-1-1.8-1-3.2 0-4.1-5.7-27.8-11-45.8-1.1-3.8-1.9-7.4-1.7-8 .6-1.7 6.5 18.4 8.7 29.5 2.7 13.5 5.8 25.2 6.9 26.3.9.9 8.8-18.2 13.9-33.9 1.7-5 4.1-11.3 5.5-14 1.3-2.7 3.2-8.1 4.2-11.9 1.8-6.8 3.5-10.5 3.5-7.4 0 1.8-3.2 11.8-6 18.9-1.2 3-3.7 9.5-5.5 14.5-1.8 4.9-5.3 14.4-7.9 20.9-2.5 6.5-4.4 12.1-4.1 12.4.7.7 3.9-1.2 16.8-9.5 5.3-3.5 10.4-6.6 11.3-7 1.2-.5 1.5-1.7 1.1-6.2-.4-4.4-.3-5.1.5-3.1 2.7 6.9 2.9 6.9 13.6.5 5.3-3.1 7.8-5.2 7.5-6.1-.3-1 .3-1.4 2-1.4 1.4 0 4-1.2 5.9-2.8 1.8-1.5 4.1-3.4 5-4.2 1.9-1.5 2.4-4.5.9-5.4-.5-.3-1.1-1.8-1.3-3.3-.3-1.6-.8-3.7-1.2-4.8s0-.8.9.7c.8 1.6 1.9 2.8 2.4 2.8 1.7 0-.8-16.8-3.5-24.3-.8-2-1-3.7-.6-3.7s.2-.4-.4-.8c-1.2-.7-2-5.8-3.3-20.9-.4-5.1-1.3-9.8-1.9-10.5-.5-.7-1.2-2.4-1.5-3.8-.4-2.2-.4-2.2-.5.5"/><path d="M891.3 238c-3.3.9-1.4 5.2 6.1 14 5.1 6 20.1 24.2 21.8 26.5.4.5 2.5 3 4.5 5.5 2.1 2.5 4.5 5.7 5.4 7 .9 1.4 2 2.2 2.4 1.8 1.1-1.1 4.1-30 4.7-45.8l.3-8.5-5.5-.2c-12.4-.6-38-.8-39.7-.3M897.4 256.7c1.1 1.3 1.5 2.3 1 2.3s-.2.5.6 1c1.3.8 1.2 1-.4 1-1.5 0-1.7.3-.9 1.1.9.9.9 1.6.1 2.9-.9 1.4-.6 3.2 1.1 7.8 2.3 6 2.4 6.1 9.8 9.6 4.1 2 8 3.3 8.6 2.9.6-.3.7-.1.3.5-.4.7-.1 1.2.7 1.2 2.7 0 2.4-2.5-.7-6.7-8.6-11.5-14.8-19.1-18.2-22.3-2.1-1.9-3-2.5-2-1.3M1023.3 278.3c-2.8 2.3-5.2 4.9-5.2 5.8-.1.8 1.8 3.1 4 5 2.3 1.9 4.7 3.9 5.3 4.4 6.6 6 9.6 7.4 9.6 4.4 0-.6-.4-.8-1-.4-1 .6-2.2-3.5-4-14-1.5-8.8-1.8-9.5-2.7-9.4-.4 0-3.1 1.9-6 4.2M824.5 289c-6 3.3-13.1 6.7-15.7 7.6-2.7 1-4.8 2.1-4.8 2.5 0 .3 3.4.9 7.7 1.3 8.8.7 24.4.7 22.6-.1-1.9-.7-1.5-2.3.5-2.3 2.2 0 6.2-4 6.2-6.1-.1-1.8-3.5-5.9-5-5.9-.7 0-1-.7-.6-1.5.3-.8.4-1.5.3-1.4-.1 0-5.1 2.7-11.2 5.9M902.4 285.7c.3 1.6 1.3 6.6 2.1 11.3.9 4.7 1.9 8.8 2.3 9.2.8.8 22.2-9.3 22.2-10.4S905.4 283 903.4 283c-1.3 0-1.5.6-1 2.7M894.3 286.3c-1.3 1.3-2.3 2.8-2.3 3.5 0 .6-.7.9-1.5.6-1.1-.4-1.3-.2-.9.9s-.4 1.7-2.7 2.2c-2.7.6-2.9.9-1.6 1.7 2.5 1.3 2.2 3.1-.3 1.8-1.5-.8-2-.8-2 .3 0 1.2 16.6 7.7 19.6 7.7 1.2 0 1-1.7-.7-10.5-1.4-6.8-2.9-10.5-4.3-10.4-.6 0-2.1 1-3.3 2.2M1011.5 287.8c-11.9 6.8-14.5 8.5-14.5 9.5 0 .7 1.9 2.5 4.2 4s3.8 2.7 3.3 2.7c-.6 0 .4.9 2 2 1.7 1.1 2.4 2 1.7 2s-2.3-1-3.6-2.3c-1.3-1.2-3.7-3.3-5.5-4.5-3.2-2.3-3.3-2.3-5.3-.5-2 1.7-2.1 1.7-1.5 0 .4-.9.4-1.7.1-1.7-1.1 0-6.4 3.1-13.4 7.9-4 2.8-7.7 5.1-8.2 5.1-2.1 0-8.9 5.2-8.4 6.5.2.7-.2 1.6-1 1.9s-1.4 1.3-1.4 2.3-.7 3.1-1.5 4.7c-1.8 3.3-1.9 4.6-.5 4.6.6 0 1-.7 1-1.5 0-2 4.8-2 8.6 0 2.9 1.5 2.4 1.8-2.8 1.7-1.4 0-2.9.6-3.2 1.4-.7 1.9 5.2 1.8 7.9-.2 2.5-1.9 2.8-5.2.5-5.9-2.1-.7-7.8-6.5-6.3-6.5.6 0 1.6.7 2.3 1.5s3.3 2.4 5.8 3.5c4.2 1.9 4.6 1.9 6.3.4 1-.9 2.1-2.6 2.5-3.8.4-1.1 1-2.3 1.4-2.6s2.8-4.3 5.4-9 4.4-7.4 4-6-2.4 5.8-4.5 9.8c-4.3 7.9-4.6 9.2-2.4 9.2 1.7 0 17.5-7.4 22.6-10.6 4.1-2.6 6.5-8.8 7.3-19.3.3-3.5.7-6.6 1-6.9 1.6-1.6 1.7 1.7.2 10.3-.9 5.3-1.6 10.2-1.6 11 0 .9 3 .1 10-2.7l10-4.1-2.8-2.7c-4.1-4.2-15-13-15.9-12.9-.4 0-2.1.8-3.8 1.7M868.6 299c-1.5.5-7.4 1.7-13 2.6-5.5.9-10.4 2-10.9 2.4-.4.3.4 2.9 1.9 5.6 1.4 2.7 3 5.7 3.5 6.6.7 1.3 1.4 1.5 2.7.9.9-.5 3.7-1.7 6.1-2.7 3.2-1.3 5.7-3.6 9.2-8.3 6.3-8.3 6.4-8.8.5-7.1M878.1 301.6c.7 2.1 6.6 12.5 8.4 15.2.1.1 1.7.4 3.5.7 1.8.2 3.8.9 4.3 1.4.6.6 2 1.1 3.2 1.1s2.6.5 3.2 1.1c.7.7 1.4-.4 2.3-3.8.7-2.6 1.8-5.4 2.3-6.1 1.5-1.9-1.4-3.6-14.3-7.9-6.3-2.1-12.1-3.9-12.8-4.1-.9-.3-1 .3-.1 2.4M871.8 303.3c-1.4 1.7-3.6 5.2-5.1 7.7l-2.6 4.5 8.9.1c8.2.1 9 0 9-1.7 0-1.9-5.5-12.5-7-13.4-.4-.3-1.9 1-3.2 2.8M953.5 321.8c-1.6 1-5.5 2.8-8.5 4.1-11.5 4.8-11.7 5-11.2 7.7.2 1.3.8 2.7 1.3 3s.9 1.3.9 2.2c-.1 1.1-.7.6-1.6-1.3-.9-1.7-2.3-3.6-3.2-4.3-1.9-1.5-19.9-1.7-22.2-.2-1.3.8-1.2 1 .3 1 1.4 0 1.6.5 1.1 2.5-.5 1.9-.2 2.5 1 2.5.9 0 1.6.4 1.6.9 0 1.6 6 8.4 9.5 10.8 2.7 1.8 4.7 2.3 10.1 2.3h6.7l-.6-2.8c-.3-1.5-.2-3.4.4-4.2.7-1.2.9-1.2.9.3 0 1 .4 1.6.9 1.3s.7-1.5.4-2.6c-.4-1.4 0-2 1.1-2 1 0 1.5-.4 1.2-.9-.3-.4.5-1.3 1.8-1.9s2.7-2.3 3-3.8c.4-1.6 1.9-3.9 3.3-5.3 3.1-3.1 5.5-7.7 5.1-9.7-.2-1.2-.8-1.1-3.3.4M784.4 352.8c-2.1 1.6-4.5 3.6-5.3 4.5-.7.9-2 1.7-2.7 1.7-.8 0-1.4.3-1.4.7 0 .5-3.4 3.3-7.5 6.3s-7.5 5.8-7.5 6.1c0 1.1 32.2 26.9 33.6 26.9.3 0 .3-1.7 0-3.8-.3-2-1.1-9.7-1.6-17.1s-1.3-15.8-1.6-18.5c-.5-3.8-.4-4.8.5-4 .6.6 1.8 7.5 2.6 15.5 1.3 13.3 1.9 18.3 2.9 23.4.3 1.1.5 2.8.5 3.8.1 1.4.8 1 3.4-1.6 1.7-1.9 6-4.6 9.5-6.2 4.5-2 6.2-3.3 6.2-4.7 0-1.9-5-8.9-12.9-18.2-6.1-7.3-7.1-8.6-7.1-9.4-.1-.7-6.7-8.2-7.4-8.2-.1 0-2.1 1.3-4.2 2.8M937.4 386c-1.7.7-2.1 1.6-2 5.8.1 2.8-.2 4.8-.5 4.6-1.2-.7-3.3 5.9-3.3 10.7-.1 2.6-.4 5.1-.8 5.5-.5.4-.8 1.7-.7 2.8.1 1.8.2 1.8.9-.4s.8-2.3.9-.4c.2 3.9 3.2 8.3 8.4 12.4 2.9 2.2 6 4.8 7 5.6 1.3 1.1 2.2 1.2 3.1.5s1.6-.7 2.3 0 1.2-.2 1.7-3c.3-2.1 1.1-4.1 1.7-4.3 1.6-.5-.5-10.9-2.5-12-1-.6-1.6-2.3-1.6-4.8 0-2.1-.4-4.2-1-4.5-.5-.3-1-1.5-1-2.6 0-1-.3-1.9-.7-1.9-1.9-.1-4.4-3-4.9-5.6-.7-4.2-2.4-8.2-3.7-8.7-.7-.2-2.1-.1-3.3.3M973.7 390.2c-.3 2 .5 6.3 1.9 10.8 1.3 4.1 2.4 8.3 2.4 9.2s.4 2 1 2.3c1 .6 13-1.4 13-2.2 0-.9-4-8.2-5.2-9.4-.7-.8-2.4-3.1-3.8-5.1-1.4-2.1-2.8-3.8-3.2-3.8-.5 0-.8-.5-.8-1.1 0-1.2-2.9-3.8-4.1-3.9-.4 0-.9 1.5-1.2 3.2M1022.3 390.7l-5.3 1.6.7 4.1c.9 5.7 3.9 14 5.2 14.4s4.5-6.7 6.6-14.7c.8-3.3 1.5-6.2 1.5-6.5 0-1-3.1-.6-8.7 1.1M985.8 392.7c-1.6.4-1.5.9.9 4.6 1.4 2.3 2.9 4.4 3.2 4.7.4.3 1.4 1.7 2.4 3.2 1 1.7 2.3 2.5 3.2 2.2 2-.8 13.5-11.6 13.5-12.8 0-.5-.9-.1-2 .9-1.8 1.6-2 1.6-2 .2 0-1.3-.9-1.7-3.6-1.7-1.9 0-4.4-.5-5.4-1-1.7-.9-1.8-.7-1.4 2.5.2 1.9.6 5.1.8 7 .6 4.7-1.1 4.5-1.9-.3-1-5.6-3.6-10.5-5.5-10.1-.3.1-1.3.3-2.2.6M1011.3 397.8c-1.7 1.5-5.6 4.7-8.7 7.1s-5.6 4.8-5.6 5.2c0 .5 1.5.9 3.4.9s6.8.7 11.1 1.6c4.2.9 7.9 1.3 8.2 1s-.4-3-1.7-6c-1.2-3-2.3-6.9-2.4-8.5-.3-4.2-.7-4.3-4.3-1.3M920 427.6c-3.1 4.3-13.1 16.3-17.5 20.9-5.5 5.8-15.2 16.3-16.3 17.7s-.9 2.1 1.5 4.5c1.5 1.6 5.2 5.7 8.2 9.1l5.4 6.2 1.9-3.2c2-3.2 6.7-15.4 7.4-19.2.2-1.1 1.5-5 2.9-8.5 1.4-3.6 2.5-7.4 2.5-8.6s.9-4 2-6.3c2.2-4.4 6.1-16.4 5.6-16.9-.1-.2-1.7 1.8-3.6 4.3M937.7 439.5c-1.9 2.6-4.6 3.2-7.5 1.6-3.1-1.6-6.5-1.7-6.7-.1-.2.8-.6 3.7-1 6.4l-.8 4.9 3.2-.6c1.7-.4 9.2-1 16.6-1.3 7.4-.4 13.5-1.1 13.5-1.5 0-.5.7-.6 1.5-.3 1.2.5 1.2.1-.1-2.6-.9-1.7-2.2-2.9-2.9-2.7-1.4.6-4.6-2.8-3.7-3.9.4-.4.2-.4-.4-.1-.7.4-1.7 0-2.4-.8-2-2.4-7.2-1.8-9.3 1M932.3 452.7c-4.6.2-8.3.7-8.3 1.1s4.5 3.3 9.9 6.5l10 5.8 3.8-1.9c2.1-1.1 5.8-3.5 8.2-5.4 2.4-1.8 5.5-4.1 7-5 2.5-1.7 2.3-1.8-9.9-1.6-6.9.1-16.2.4-20.7.5M876.8 475.8c-3.6 3.7-8.4 8.4-10.7 10.5-2.2 2.1-4.1 4.2-4.1 4.6 0 1.3 30 16.2 31.2 15.5.6-.4.5-1-.3-1.5-1-.6-1.1-.9-.1-.9.6 0 1.2-.7 1.2-1.6 0-1 .6-1.4 1.4-1.1 1.6.6 2.6-1.2 2.6-4.7 0-1.2.7-3.1 1.5-4.2 1.6-2.1 2-5 .8-5.6-.5-.2-3.4-3.6-6.7-7.6-3.2-3.9-6.1-7.2-6.3-7.2-.3 0-.3 2.1.1 4.7l.6 4.8-1.5-3.9c-.8-2.1-1.3-4.1-1.1-4.5.2-.3-.1-1.4-.8-2.3-1.2-1.6-1.9-1.1-7.8 5M950.7 491.8c-.4 2.4-.5 4.8-.2 5.3.4.5-.3 3.6-1.4 6.9-3.3 9.4-3 10.7 2.7 12.3 4.3 1.3 4.7 1.3 5-.3.5-2.7-2.6-21.5-4.1-25.2l-1.4-3.3zM312.6 586.2c-.2.7-.9 4-1.6 7.3-.6 3.3-1.5 7.5-2 9.3-1 3.9-1.3 4 7.4-2.3 16.2-11.7 18.8-13.7 18.4-14-.1-.1-5.1-.6-11-1-8.7-.5-10.9-.4-11.2.7M920 594.9c-5.7.5-6.3.7-4.4 1.8 1.2.7 2.4 1 2.8.8.3-.3.4-.2.2.1-.8 1.1 20.9 17.2 21.9 16.3.2-.3-.1-4.9-.7-10.2l-1.1-9.7-6.1.2c-3.4.1-9 .4-12.6.7"/></svg>