<svg xmlns="http://www.w3.org/2000/svg" width="1706.667" height="960" viewBox="0 0 1280 720"><path d="M0 360v360h537.7l1.7-3.7c2.7-6.2 4.6-9.1 4.6-7.1 0 1-.9 3.2-2 5-2.6 4.4-2.5 5.8.5 5.8 1.8 0 2.5-.5 2.5-1.9 0-1 .7-3.4 1.6-5.2l1.5-3.4-.5 3.5c-.2 1.9-.7 4.3-1.1 5.2-.6 1.5-.1 1.8 3.4 1.8 3 0 4.1-.4 4.1-1.5 0-.8.5-1.5 1.1-1.5.5 0 .7-.5.4-1-.3-.6.1-1.3.9-1.6s1.8-1.5 2.1-2.5c.5-1.6 1-1.8 2.1-.8 1.1.9 1.4.7 1.4-1.4 0-1.4.5-2.9 1-3.2.6-.3 1-.1 1 .6 0 .8.4.8 1.5-.1 1.6-1.4 2-4 .6-4-.5 0-1.2.6-1.4 1.2-.3.8-.6.6-.6-.5-.1-1 1-2.9 2.3-4.1 1.2-1.3 2.6-3.1 2.9-3.9s1.9-2.1 3.6-2.8c1.7-.8 3.1-1.7 3.1-2.1 0-.5.9-.8 2.1-.8 2 0 4.9-2.1 4.9-3.5 0-.4-.7-.5-1.5-.1-.8.3-1.5.1-1.5-.5s.9-1.3 2-1.6 2.1-1.2 2.1-1.9c.2-2.2.4-2.8 1.6-4.9.5-1.1 1.3-4.3 1.7-7.2.4-2.8 1.3-6.4 2.1-8 1.8-3.5 1.8-3 .1 4.9-.8 3.5-1.7 9-2.1 12.2-.6 5.5-.5 5.8 1.2 5.1 1-.4 7-1.5 13.3-2.4s12-1.9 12.6-2.3c1.7-1.1 3 1.2 3.3 5.7.1 2.2.9 6.7 1.7 10s1.6 6.9 1.9 8c.2 1.1 1.2 5.3 2.2 9.3l1.7 7.2H1280V0H0zM874.3 66.9c.6.6 1.9 1.1 2.8 1.1 1 0 2.1.4 2.4 1s-.1.7-.9.4c-2-.8-2.1 1.2-.2 2.3.8.4 8.7 7.8 17.7 16.4 9 8.5 19.1 18 22.4 20.9 3.3 3 8.8 8.1 12.3 11.4 6.9 6.7 8.8 7.7 9.5 4.9.2-1 .3-.8.2.5s.4 3 1.3 3.8c1.3 1.4 1.3 1.7.1 2.5-.8.5-.9.9-.3.9s3.7 3.4 7 7.6c7.2 9.4 22.7 28.6 27.3 34 2.9 3.4 3.3 3.6 2.8 1.4-.8-3.8-8.6-30.1-9.3-31.1-.3-.5-.1-.9.4-.9.6 0 1.3 1.2 1.6 2.7.8 3.4 5.2 17.9 7.7 25.2 1 3 1.6 5.8 1.3 6.2-.3.5.1.6.9.3s2.5-3.2 3.7-6.5c1.2-3.4 2.4-5.9 2.6-5.6.2.2-.6 3-1.7 6.3-2.2 5.9-3.1 15.6-1.8 18.4.4.8 2.4 6.9 4.4 13.5s4.3 13.3 5.1 15c1.4 2.9 1.4 2.6 1-4.5-.4-5.9-.3-6.6.4-3.5.5 2.2.9 6.7 1 10 0 3.4 1.1 8.9 2.4 12.7s2.2 6.8 2 6.8-1-1.2-1.9-2.8l-1.6-2.7.6 4c.4 2.2 1 8.6 1.4 14.2.4 5.7 1 10.5 1.3 10.8.2.3 1.7-1.2 3.1-3.2 1.5-2.1 2.7-3.1 2.7-2.3s-1.4 2.8-3.1 4.6l-3.1 3.2 3.2 6.3c1.8 3.5 4 8.9 5 11.9s2.5 7.1 3.4 9l1.5 3.5.2-5.5c.1-3 .3-4.4.6-3 .2 1.4 1 5.6 1.9 9.3 1.5 6.5 1.5 7.7-.8 23.5-2 14.3-2.3 20.6-2.2 43.2 0 14.6.3 29.1.7 32.2.4 3.4.3 6-.3 6.3s-1 1.6-1 2.7c0 1.2-.9 4.7-2 7.8s-2.4 7.6-2.9 10c-2.1 9.3-3.9 15.5-4 13-.1-1.4.8-5.5 1.8-9.3 1.1-3.7 1.8-6.7 1.5-6.7-.2 0 .2-1.3 1-2.8 3.3-6.4 5.8-26 3.9-30.9-.8-2.1-3.5 14.3-2.7 16.9.6 1.9-1.2 5.8-2.6 5.8-.6 0-.6-.9-.1-2.3.4-1.2 1.1-5.4 1.5-9.2l.6-7-2.3 3.7c-1.2 2-4 6.8-6.2 10.7s-4.3 7.1-4.7 7.1c-1.1 0 .2-2.9 3.7-8.5 4.6-7.3 8.6-16.5 7.2-16.5-1.5.1-8.8 1.6-14.5 3.1-4.2 1.2-4.2 1.2-3.6 4.8 1.3 7.6 4.9 17.4 6.6 17.9 1.6.4 1.6.6 0 3.1-.9 1.4-2.4 3.4-3.4 4.5-.9 1-2.2 3.1-2.8 4.7-.7 1.6-1.5 2.9-1.9 2.9s-1.5 2-2.6 4.5c-2 4.4-3.5 5.8-3.5 3.1 0-.7.8-2.4 1.8-3.7 3.8-5 9.3-15.3 8.8-16.4-.5-1.3-26.2-4.3-27.3-3.2-.3.4.4 2.3 1.6 4.4l2.2 3.8-3.1-3.5-3.1-3.5.5 8.5.5 8.5-1.6-8c-.8-4.4-1.7-8.6-1.9-9.4-.3-1-1.9-1.2-7.2-.6-3.7.3-8.4 1.1-10.6 1.6-3.6 1-3.8 1.2-3.3 4.2 1.4 8.6 3.8 14.9 7 18.9 1.9 2.4 4.2 5.6 5.2 7.3l1.7 3-2.1-2.5c-3.9-4.5-4.7-5.6-5.4-7.3s-2.7-2.4-2.7-.9c0 .5.8 3.4 1.8 6.5 1.4 4.1 1.8 7.5 1.4 12.8-.5 9-1.4 11.4-4.1 11.6-2.6.2-2.6 0 .2-3.1 1.7-1.8 2.2-3.5 2.2-7.2l-.1-4.8-9.9-.4c-9.6-.4-9.8-.4-9.2 1.7.4 1.8.2 2.1-1.3 1.6s-1.9 0-2.3 2.7c-.3 3-.4 3-.5-.8-.2-5.2-.8-5.7-3.6-3-2.3 2.1-9.6 7.8-13.5 10.6-1.2.8-2.1 2-2.1 2.6 0 .8-2.1 1.3-5.5 1.6-3 .1-5.5 0-5.5-.5 0-.4 1.4-.7 3.2-.7h3.1l-2.3-2.5c-2.8-3-1.9-3.2 2.1-.5 2.6 1.9 3 1.9 4.6.5 1-.8 4.7-3.9 8.2-6.8 7.6-6.2 8.8-8.2 4.2-7.2-1.7.4-9 .7-16.1.7-17.3.1-18 .3-18.1 4.2v3.1l-1.2-3.5c-1.9-5.6-4.1-5-5.7 1.5-.7 3-1.7 5.5-2.2 5.5-1 0-1.2.7 1.6-8 1.3-4.1 2.9-7.6 3.4-7.8.6-.2.8.6.5 1.7-.3 1.2-.1 2.1.5 2.1.5 0 1-2.8 1-6.3 0-4 .9-9 2.6-14.1 1.4-4.4 2.4-8.1 2.3-8.2-.2-.2-7.5 8.1-16.2 18.3-8.8 10.2-17.5 20.2-19.2 22.1-1.8 2-3.3 3.9-3.3 4.4 0 1.3 15.4 17.8 16.6 17.8.7 0 2.1-2.6 3.2-5.8 4-11 5.7-15.2 6.3-15.2.7 0 0 3.2-2.1 10.4-1 3.3-.9 4.1.5 5.5 1.4 1.5 1.9 1.4 5.6-.7 2.9-1.7 4.4-2 5.7-1.3 1.6 1 1.6 1 0 1.1-1 0-1.8.4-1.8 1 0 .5.8 1 1.8 1 1-.1 2.5-1.8 3.7-4.3 1.9-3.7 1.9-4.5.7-7-.8-1.6-1.1-3.1-.8-3.4s.8.6 1.1 2c.5 1.8 2.4 3.4 6.6 5.6 3.2 1.8 6.1 3.6 6.4 4.1.9 1.5 0 1.2-4.9-1.4-2.8-1.5-4.6-2-4.6-1.3 0 1.2 9.6 6.7 11.7 6.7.6 0 1.3.6 1.6 1.2.3 1 .7 1 1.7.1.9-.9.7-1.4-1-2.3-3.3-1.8-1.7-2.2 2.1-.6 1.9.9 2.8 1.5 2.2 1.6-.9 0-1.3 2-1.3 6.4 0 10.6 1.6 12.3 4.6 5.1 1-2.5 2.2-4.5 2.6-4.5 1.2 0 .9-3.5-.4-4.8-.7-.7-.8-1.2-.2-1.2 1.4 0 3.4 2.2 3.4 3.7 0 1.2 3.5 7 5.1 8.3.3.3 2.3 3.5 4.3 7.2 2.1 3.7 4.1 7 4.6 7.3 1.2.7 2.2-4.4 3-15l.7-9 .1 7c.1 3.8-.1 10.6-.4 15l-.7 8.1-7.6 3.6c-6.8 3.3-7.8 3.5-9.2 2.2-.9-.9-4.3-2.3-7.6-3.3l-5.9-1.8-14.3 7-14.3 6.9-2.6-3c-3.5-3.9-17.9-16.2-18.9-16.2-.4.1-2.5 2.4-4.5 5.3-4.5 6.2-9.2 11.8-8.2 9.7.4-.8 1.5-2.4 2.4-3.5 6.7-7.8 10-14.5 7-14.5-.4 0-7.1-3.4-14.9-7.5-7.7-4.1-14.7-7.5-15.6-7.5-.8 0-1.5-.5-1.5-1 0-.6 5.4-6.3 12-12.7s11.8-11.8 11.6-12.1c-.3-.2-3.3-1.5-6.8-2.8-3.5-1.4-4.9-2.2-3.3-1.8 1.7.3 3.8.7 4.7.9 1 .2 2.5.8 3.4 1.3 3.2 1.8 5.1-1.6 5.8-10.3.3-4.3 1.1-8.4 1.7-9 .9-.7 1-.2.6 2-.3 1.6-.8 5.9-1.2 9.5l-.7 6.5 3.8-3.9c7.2-7.4 26.7-30.1 31.1-36.4 4.5-6.3 4.7-7.4 1.5-7.8-.9-.2-5.5-.8-10.2-1.5-4.7-.6-10.9-1.5-13.8-1.9s-5.5-.4-5.7 0c-.5.8-2.8 16.4-4 26.3-.4 3.2-.9 5.7-1.1 5.4-.3-.3 0-4.9.6-10.3 2.1-18.9 2.3-21.4 1.1-21.4-.6 0-1.1.5-1.1 1.1s-5.2 6.3-11.5 12.6l-11.6 11.5 3.1 5.4c3.8 6.8 3 7.1-1.1.4-1.7-2.8-3.5-5-4-5s-.9-.7-.9-1.5c0-2.1-7.7-14.5-11.2-17.9-2.4-2.4-3.1-2.7-3.9-1.5-.7 1.1-.9 1.1-.9-.4 0-1.2-.8-1.7-2.8-1.7-1.6 0-5.1-.7-7.8-1.4-2.7-.8-6-1.6-7.4-1.8s-3-.6-3.5-1c-.6-.3-2.8-.9-5-1.3s-4.4-1.1-5-1.5c-2.2-1.7-17.5-5.8-18.1-4.9-.8 1.3-3.4-.9-3.4-2.7 0-.8.7-1.4 1.5-1.4.9 0 3.9-1.7 6.8-3.9 7.6-5.7 14.5-9 11.7-5.6-.7.8-1.8 1.5-2.5 1.5-1.6 0-11.5 7.7-11.5 8.9 0 .9 2 1.7 10.5 4.6 8.2 2.7 12.5 3.8 13 3.3.3-.3-.6-4-2-8.4-1.4-4.3-2.5-8.4-2.5-9.1s-.8-1.7-1.7-2.2c-1-.6-1.5-1.1-1.1-1.1 1.5 0-2.6-7.7-6.8-12.6-2.4-2.8-4.4-5.4-4.4-5.7 0-1.1-11.2-16.8-11.7-16.3-.3.3 0 6.7.6 14.3 1.8 20.9 2.4 31.9 1.8 31.3-.8-.7-3.7-31.3-3.7-39.1 0-7.6-.6-9.9-2.6-9.9-.7 0-1.1-.6-.8-1.4.7-1.8-19-18.6-21.8-18.6-.4 0-.9 3-1.1 6.7l-.3 6.8-.2-7.6c-.2-5.8-.6-7.9-1.9-9.1-1-.8-7.9-4.9-15.3-9.2s-13.9-8.3-14.5-8.8c-1.4-1.4 3.1.9 18 9.5 14.6 8.4 14 8.5 14.6-1.3.2-4.5.2-4.4.8 1.3l.6 5.8 6.5-4.8c3.6-2.6 7.7-6 9.3-7.5 2.8-2.9 4.7-3.6 4.7-1.8 0 .5-.4 1-.9 1-.9 0-3.5 2-14.3 11.2-2.7 2.2-4.8 4.6-4.8 5.2.1.6 2.1 2.7 4.7 4.6 2.5 1.9 7.3 5.6 10.7 8.2 3.3 2.7 6.6 4.8 7.3 4.8s1.5-2.4 1.9-6c.4-3.3 1-6 1.4-6s.4 1.9-.1 4.2c-1.4 7.3-1.2 8.8 1.4 8.9l2.2.2-2.2.4c-1.3.2-2.3.7-2.3 1s3 4.8 6.8 10.1c3.7 5.3 7.4 10.8 8.3 12.2s3.2 4.2 5.2 6.4c3.5 3.8 3.6 3.8 4.2 1.5.7-2.8.7-2.2-.1-19.4-.3-7.2-.8-13.7-1.1-14.5s-.8-2.6-1-4l-.3-2.5 1.4 2.5 1.4 2.5 1.1-2.8c.6-1.6 1.1-3 1.1-3.2 0-.5 9.9-16.7 10.6-17.4.4-.3-1.6 3.9-4.5 9.3-2.8 5.4-4.9 10.1-4.7 10.3.7.8 4.6-2.1 4.6-3.4 0-.7.6-1.3 1.4-1.3s2.1-.9 2.9-2 1.7-1.7 2-1.4c.4.4.9-.1 1.3-1 .3-.9 1.2-1.6 2-1.6s1.4-.4 1.4-.8c0-1 8-4.8 9.2-4.4 1.5.4.8-2.8-1.7-8.8-1.4-3.3-2.5-6.3-2.5-6.7.1-.7.9.6 5.1 8.4 1.5 2.8 2.5 2.9 3.2.3.3-1.4 1.4-2 3.4-2.2 1.5 0 3.5-.1 4.3-.2s2.4-1.8 3.6-4c1.2-2.1 3.4-5 5-6.5l2.8-2.6-1.7 2.5c-1.6 2.4-5.7 10.1-5.7 10.7 0 .2 4.1.3 9 .3 5 0 9-.2 9-.5s-2-4.1-4.5-8.4c-3.1-5.4-5.1-7.8-6.3-7.7-3.1.4-11.6 1.7-16.2 2.6-2.5.5-6.2 1.2-8.3 1.5-3.3.5-3.8.9-3.4 2.7.4 1.5.3 1.8-.5 1s-1.6-.5-3 1.1l-1.9 2.2 1.1-2.4c.9-1.8.9-2.5 0-3.1-.6-.4-6.8-1-13.8-1.3-7-.4-14.9-1-17.6-1.3-4-.6-4.8-.5-4.4.7.3.8.8 2.5 1.2 3.9.4 1.7.1 1.5-.9-.8-1.5-3.2-2.9-4-4-2.3-.3.5-2.4 2.4-4.8 4.1-3.9 3-3.8 2.9.8-1.3l4.9-4.5-1.3-5.4c-.7-2.9-3-11.2-5.1-18.3-2.1-7.2-4-14.1-4.3-15.5s-1.9-7.2-3.6-13c-3-10.2-3.6-12.8-2.6-11.9.6.7 6.9 21.5 9.8 32.9 3.4 13 6.9 24.3 7.8 25.4.4.4 1-1.4 1.3-4 .4-2.7 2-13.2 3.6-23.4 7.5-47.3 7.7-49.4 6.3-50.3-.9-.6-19.4-3.2-28.7-4.2l-5.9-.5.6 2.7c.3 1.6.8 4.6 1.2 6.8l.6 4-1.4-3c-.7-1.6-1.6-2.5-1.9-2-.6 1-1.3 8.7-2.4 24-.4 4.9-1 11.9-1.5 15.5-.9 7-.7 3.3 1.1-28 .8-14.5.7-16.5-1.1-15.5-1.5 1-1-1.2.6-2.5 1.9-1.6 1-3-1.8-3-1.2 0-2.9-.5-3.7-1.1-1.1-.8-.8-.9 1.6-.5 1.8.3 3.4.3 3.7 0 .5-.6-1.7-8.4-9.3-31.9-2.6-8.3-6.7-21.1-9-28.5s-4.9-14.5-5.7-15.8c-1.6-2.6-1-4.2 1.8-4.2 1.1 0 4.2-1.1 7-2.5 5.9-3 9.9-4.6 9.9-4 0 .3-3.5 2.1-7.7 4.1-6.5 3-7.5 3.8-5.8 4.4 2.5 1 41.9 10.5 49.8 12 3.2.7 6.1.9 6.5.6.3-.3-.4-3.9-1.6-7.9-1.2-3.9-3.5-11.7-5-17.2-2.2-7.8-3.2-10-4.5-9.9-1.9.2-2.3-1.2-.6-1.8.5-.2 1.1-1 1.3-1.8.2-1.5 3.5-7.9 3.6-7 0 .3-.4 2-.9 3.8-.5 1.7-.6 3.2-.2 3.2 1.4 0 36.5-10.7 42.4-13 5.6-2.1 6.9-3.3 4.5-4.3-.7-.3.2-.3 1.9 0 1.8.3 3.9.1 4.5-.5.7-.5 2.9-1.3 4.8-1.7 4.4-.9 16-4.6 26.8-8.6 4.6-1.7 8.6-2.9 8.8-2.6.3.2-4.4 2.2-10.3 4.2-18.7 6.6-29.6 11.2-28.4 11.9 2.3 1.5 19.2 10.1 38.6 19.8 11 5.4 21.2 10.6 22.8 11.4 2.4 1.4 2.8 1.4 3.3 0 .3-.9.1-5.3-.5-9.8-.5-4.6-1.3-13-1.6-18.8s-.8-13.7-1-17.5c-.3-4.6-.2-6.1.4-4.4.4 1.4 1.4 10.7 2.1 20.7.6 10 1.7 21.5 2.4 25.5l1.2 7.2 23.5 1.7c12.9.9 25.8 1.9 28.7 2.2 2.8.3 5.2.2 5.2-.3s-2.6-3.2-5.7-6.1c-11.4-10.5-39-36.7-47.5-45.2-8.9-8.8-10.6-9.8-14.5-8.4-1.2.4-3.2.9-4.5 1.1-1.3.3-2.8 1.2-3.4 2-1.6 2.2-3.3 1.9-2.7-.5.3-1.1 1.4-2 2.4-2 2.9 0 7-2.2 6.5-3.6s6-.2 7.7 1.5M425 84.4c0 .3-2.3 1.2-5 2.1-5.5 1.8-5.7 2.9-.8 3.8 1.8.4 11.6 3.1 21.7 6.1 20.8 6.1 19.1 6 51.1 3.2 24.5-2.2 34.8-2.8 20-1.1-35 4-43.6 4.9-44.7 4.7-7.2-1.4 13.9 8.5 41.9 19.8l5.7 2.3 2.1-2.4c1.1-1.3 3-4 4.2-5.9s4.6-6.8 7.5-10.9c5.8-8.2 6.4-9.9 3.1-9.6-1.3.1-1.5 0-.5-.2.9-.2 1.7-.8 1.7-1.3 0-1.4 4.3.2 7.3 2.7 3.3 2.7 2.8 3.1-.9.7-1.3-.9-2.7-1.4-3.1-1.1-.3.4-4.8 6.9-9.9 14.4l-9.3 13.8 4 .7c4.4.8 43.1 3.8 48.7 3.8 2 0 3.2.3 2.9.6-.4.4-12.6-.1-27.2-1.1s-26.8-1.5-27.1-1.2c-.6.5 3.9 7.5 12.7 19.7 2.1 3 6.9 10 10.5 15.5 3.7 5.5 7 10.2 7.4 10.5s1.9 2.5 3.3 5c1.5 2.5 3.7 5.8 5 7.4l2.4 3 2.4-2.6c1.3-1.4 8.6-9.8 16.2-18.7s14.1-16.1 14.3-16.1c.7 0-14.1 18.5-22.8 28.5-4.3 4.9-7.8 9.4-7.8 10.1 0 .6 1.4 1.7 3 2.4 3.8 1.6 3.3 2.4-.6 1-2.1-.8-3-.8-3.3.1-.2.8-.5.8-1.1-.1-.6-1-3.7-.8-14.7.9-7.6 1.2-23.5 3.8-35.3 5.6-25.8 4.1-44.1 7.3-44.7 7.8-.3.3 6.5 6.5 15.2 13.8 1.1.9 4 3.4 6.5 5.6 2.5 2.1 9.7 8.1 16 13.4 26.4 21.8 34.6 28.6 38.1 31.4 2.1 1.6 6.9 5.6 10.8 8.7 3.8 3.2 7.2 5.8 7.5 5.8s.7-3 .9-6.8l.3-6.7.2 7.7c.2 7.8.2 7.8 3 7.9 1.5.1.1.7-3.4 1.4-3.3.6-12.6 3.5-20.5 6.4s-20 7.3-26.9 9.8c-17.1 6.2-22.2 8.7-24.2 12-1.7 2.7-1.7 2.7-1.8.5 0-1.2-.4-2.2-.8-2.2-1.6 0-14.8 4.8-17 6.1-2.3 1.4-2.2.8-4.2 24.4-.6 7.1-1.3 14-1.6 15.2-.2 1.3-.1 2.3.4 2.3s6.7-3.6 13.8-7.9c7.1-4.4 16.1-9.9 19.9-12.2 3.9-2.3 8.8-5.3 11-6.7s13.1-11.6 24.3-22.6c11.1-11.1 20.2-19.6 20.2-19.1s-8.7 9.7-19.2 20.3c-10.6 10.7-18.4 19.2-17.3 18.9 2.2-.6 21-5.1 36.8-8.7 9.8-2.2 13.4-3.7 23.7-9.9 4.3-2.6 5.1-2.9 3.5-1.1-1.9 2.1-4.8 3.9-13.1 8.3-3 1.5-3.3 1.9-2.2 3.7.7 1.1 2.1 2 3 2 1 0 1.8.4 1.8 1 0 .5.9 1 2 1s2-.4 2-.9.3-1.6.6-2.5c.4-1.1 0-1.6-1.5-1.6-4.4 0-.5-3.7 9.6-9l3.1-1.7-.4 3.6c-.3 2-.7 4.4-.9 5.4-.3 1.6.1 1.5 3.3-.5 4.2-2.5 17.1-12.8 19.1-15.2 1.2-1.4 1-1.6-.9-1.6-3.4 0-2.1-.6 2.5-1.3 2.2-.4 3.4-.4 2.8-.1-2.1.9-1.5 2.4 1 2.4 1.7.1 1.4.4-1.3 1.3-4.3 1.6-19.7 13.3-26.6 20.3-2.8 2.8-6 5.7-7.2 6.3s-2.2 1.8-2.2 2.6-.7 1.5-1.6 1.5c-1.3 0-1.2-.5.6-3 2.3-3.2 2.3-3.2-3.2-4.4-2.3-.5-2.7-.3-3.1 2.1-.4 2.7-.4 2.7-.6-.3 0-1.7-1-4.1-2-5.3-1.1-1.3-2.1-2.7-2.3-3.3s-2.4-.4-5.8.5c-3 .8-10.7 2.7-17 4.2-28.9 6.7-26.9 5.9-44.3 16.7-8.9 5.5-19.2 11.8-22.9 13.9-3.8 2.2-6.8 4.4-6.8 4.8 0 .5-.8 1.1-1.8 1.3-1.3.4-2.4 2.6-3.7 7.4-1 3.8-2.4 8.2-3.1 9.9-1.8 4.2-5.4 16.1-5.4 17.9 0 1.1 1.5 1.6 5.8 1.9l5.7.3-6.1.2c-5.2.2-6.2.5-7.2 2.4-1 2.3-1.1 2.3-1.1-.5-.1-1.5-.7-2.7-1.3-2.8-.7 0-.4-.4.7-.8 1.5-.6 3.2-4.7 7.1-17.2 2.9-9 4.9-16.5 4.5-16.7-.4-.1-6.3 3.1-13.1 7.1-6.9 4.1-16.2 9.6-20.8 12.2-4.6 2.7-8.5 5.2-8.7 5.6-.3.3 1.7 1.2 4.3 1.9s4.1 1.4 3.5 1.7c-.7.3-2.7 0-4.5-.6-5.5-1.7-10.6-1.1-26.3 2.9-8.2 2.1-19.9 4.9-26 6-6 1.2-12 2.8-13.2 3.6-1.4.9-2.3 1-2.5.3-.2-.6-5.7-2.1-12.1-3.3-13.8-2.7-13.6-2.8-13.9 7.1-.1 5.1-.2 5.3-.5 1.3-.2-2.5-.6-6-.8-7.8-.7-3.6.9-3.5-16-1.1-10.8 1.5-12.5 2-12.5 3.1 0 3.5 31 44.8 33.6 44.8 1.3 0 2.7 2.7 1.9 4-.2.4 4.7 6.1 11 12.6s11.5 12.2 11.5 12.6c0 .8-1.6 1.2-3.4.9-.5-.1-2.7.5-5 1.4-4.7 1.9-4.4 1.2.6-1.4 1.8-1 3.3-2.3 3.3-2.8 0-1.1-18.6-21.3-19.6-21.3-.3 0-1.3 2.8-2.2 6.2-.9 3.5-1.3 4.5-1 2.3s.7-4.9.8-6.1c.1-1.1.5-2.6.9-3.3.5-.8 0-2.3-1.3-3.9-1.1-1.5-4.2-5.6-6.8-9-10.3-13.7-25.6-32.6-24.9-30.7.4 1.1.9 2.9 1.1 4 .6 4.2 8.4 32.2 10.4 37.3 1.2 2.9 2.1 5.9 2.1 6.7s1 4 2.1 7.1l2.2 5.7 3.4-3.9c1.9-2.1 4.2-4.9 5-6.2.9-1.2 1.8-2 2.1-1.8.2.3-.8 2-2.2 3.8-1.5 1.8-4 5-5.6 7.1l-2.8 3.8 2 6.2c2.7 8.1 3.4 8.7 5.3 4.6 1.5-3.4 1.5-2.2-.1 3.8-.9 3.2.3 3 10.7-2.3 5-2.5 9.3-4.3 9.6-4s-3.7 2.6-8.8 5.1c-5.2 2.5-9.8 5-10.3 5.5-.8.8 12 19 14.5 20.5 1 .7 4.1-6.3 3.6-8.5-.1-.8.4-2.2 1.3-3s2-2.2 2.3-3c.4-.8.4.1.1 2-.4 1.9-1.7 5.7-3 8.5l-2.3 5 2.7.4 2.7.4-2.5.7c-1.4.4-2.4 1.2-2.3 1.8.2.6-.3.9-1 .6-1.3-.5-23.4 10.1-27.2 13.1-2 1.5-2 1.5.5 3.6 7.9 6.6 18.7 13.9 20.2 13.5 1-.2 1.5.1 1.1.9-.3 1 1.2 1.5 5.4 2 9.1 1 13.5 1.7 13.1 2.1-.3.2-4.4-.1-9.3-.7-7.9-.8-9-.8-10.8.8-1.9 1.7-2 1.7-1-.1 1.3-2.3.3-3.2-13.1-12.5-6.8-4.8-9.1-5.9-9.7-4.9-.7 1-.9.9-.9-.5 0-2.1-.4-2.1-9.3.2-4 1.1-8.8 2.3-10.7 2.6s-5.1 1-7 1.5c-1.9.6-4.6.9-6 .9-1.4-.1.4-.8 3.9-1.7 3.6-1 6.6-2.2 6.8-2.8.3-.9-5.8-6.7-10.6-10.1-.2-.2-.1-.6.2-1 .4-.3 1.3 0 2 .8.6.9 3.1 3 5.4 4.8l4.2 3.2 3-5.3c1.7-2.9 3.1-5.6 3.1-5.9 0-.8-10.7 0-16.2 1.2l-4.7 1.1-1.5 6.8c-2 8.6-2 9 .2 9.1 1 0 .6.5-1.1 1.1-1.6.5-3 .8-3.2.6s.2-2.2.9-4.3c.7-2.2 1.6-6.6 1.9-9.7.5-4.8.3-5.8-1.1-6.2-2-.7-4.4-4.3-4.8-7.1-.1-1.1-.5-2.9-.9-4-.7-2-.7-2 .9 0 .9 1.1 1.4 2.5 1.2 3.2-.3.7 0 1.5.6 1.9.7.4.8.3.4-.4-1.5-2.5 1.7-1.1 4.5 1.9l2.9 3.1 12.7-.6c9.7-.5 12.8-.4 13.5.6.4.7.8.8.8.3 0-.6 3.5-1 8.7-.9l8.8.1-7.5-.6-7.5-.6 10.5-.8c5.8-.5 11.3-.9 12.4-.8 4.4 0-.1-1.4-7.7-2.4-8.2-1.2-8.1-1.2 5.1-.7 8.6.3 13.2.1 13.2-.5s-1-2.3-2.2-3.9c-4.4-5.6-12.8-15.4-13.4-15.5-.3 0-5.3 3.9-11.2 8.8l-10.6 8.8 4.5.6 4.4.7-5.5-.1c-3.3 0-6.1-.6-7-1.4-.8-.8-6.5-4.5-12.7-8.3l-11.1-6.8-5.1 2.4c-3.8 1.9-5.1 3-5.2 4.7 0 2.1-.1 2.1-1-.2-.7-1.8-.5-3.5.6-6.3 1.9-4.8 6.9-24.7 6.7-27 0-1 .3-2 .9-2.3.5-.4.9.6.9 2.1 0 2.9 1.9 10.4 3 11.7.4.5 1-2.8 1.4-7.2.4-4.5 1.2-8.1 1.7-8.1.6 0 .7 3.7.3 9.5-.4 5.2-.4 9.5-.1 9.5.4 0 1.4-1.5 2.2-3.2.9-1.8 3.1-6.2 5-9.8 2.5-4.7 3.1-6.6 2.2-7.2-.8-.5-.7-.8.5-.8 1 0 2.2-.9 2.8-2 1-1.9.9-2-1.4-1.4-3.8.9-3.2-.1 1.4-2.7 2.5-1.4 3.9-2.8 3.5-3.7-.2-.7-.1-1 .4-.7s1.2-.3 1.4-1.2c.3-1 .4-.3.4 1.6-.1 1.9.4 3.6 1 3.8.8.3.8 1.3 0 3.8-.8 2.6-.7 4.9.4 9.2.7 3.2 1.3 10.4 1.4 16 0 5.6.3 10.5.8 10.9.4.4.8-.8.8-2.7.1-1.9.3-2.6.6-1.7.2 1 .8 1.8 1.3 1.8.4 0 .6 1 .2 2.2-.3 1.4-.2 1.9.6 1.4.7-.4 1.2-1.8 1.2-3.2 0-1.3.5-2.4 1-2.4.6 0 1-.9 1-2s.3-2 .8-2c1 0 3.5-6 5.6-13 1.3-4.7 1.3-5.2.1-3.6-.8 1.1-1.5 1.5-1.5.8 0-.6.6-1.7 1.3-2.4 1.5-1.4 0-9.1-4.8-24.8-1.4-4.7-3-10.1-3.5-12s-1.6-5.3-2.4-7.5l-1.6-4 .2 7.4c.1 7.4.1 7.5-3.2 9.8-3.9 2.6-5.6 2.1-2.3-.7 2.3-1.8 2.2-1.8-6.3-2.5-4.8-.4-14.2-.5-20.9-.3-6.8.3-13 .1-13.9-.4s-1.6-.5-1.6-.1c0 .9 9.2 7.2 16.7 11.4l4.3 2.4 9-4.7c4.9-2.6 9-4.4 9-3.9s-3.7 2.8-8.2 5.2c-4.6 2.3-7.8 4.4-7.2 4.6.5.2 3 .7 5.5 1.2 2.6.5 3.4.9 1.9 1-1.4.1-3.9-.3-5.6-.8s-3.7-.5-4.4-.1c-.8.5-2.4-.3-4.4-2.1-3.7-3.5-21.2-13.9-22-13.1-.3.3-.7 3.3-.8 6.6-.2 6.1-.2 6.1-.5 1.1-.5-5.4-2.6-8.7-5.1-7.8-1.5.4-1.5.3-.2-.6 1.3-1 1.3-1.2 0-2.1-2.1-1.4-9.4-1.2-10.9.2-2 2-.6-2.1 4.5-12.6 2.4-4.9 4.4-9.6 4.4-10.3s.5-1.3 1-1.3c.6 0 1-.7 1-1.5s.4-1.5.8-1.5c.7 0 3.2-5.6 3.2-7.1 0-.3-1.3-.4-3-.1-2.8.4-3 .8-3.1 4.6l-.2 4.1-.7-5c-.4-2.8-.3-6.4.2-8 2.2-7.4 3.6-15.3 3.8-21.8.1-.9.5-1.5 1.1-1.2.5.4.9.1.9-.4 0-.6-.4-1.1-1-1.1-.5 0-1-2-1-4.4s-.3-4.6-.7-4.8c-1.2-.5-5-8.7-6.2-13.3-1.5-5.4-1.4-11.1.2-12.7 2-2.1 1.9-5.4-.1-10-1.1-2.4-2.2-7-2.6-10.3l-.6-6 1.6 4c.8 2.2 2 4.5 2.7 5.1 1.2 1.2 7.7.7 7.7-.5 0-.4-2.1-3.4-4.6-6.7-4.3-5.5-7.9-11.4-7.1-11.4.3 0 1.6 1.7 2.9 3.7 2.8 4.2 9.9 11.5 10.6 10.8.6-.6-2.5-7.2-5.7-12-2.5-3.8-2.7-4.8-2.6-14.3 0-5.6-.2-10.2-.4-10.2-1 0-8.1 8.5-8.7 10.3-.4 1.2.1 2.4 1.3 3.2 5 3.7 5.5 4.4 1.5 2.4s-4.3-2.4-3.8-5.2c.3-1.7 2.9-5.4 5.7-8.4 4.6-4.9 5.1-5.8 4.6-8.9-.3-1.9-1.3-4.9-2.2-6.6-1.5-3.1-1.4-3.6 1.9-13.2 3.5-10.4 5.4-16.7 7.9-27.1 1.6-6.6 7.7-29.4 10.5-39.5 1-3.6 2.4-7.4 3.1-8.5l1.3-2-.7 2c-1.9 5.3-2.4 11.6-2.5 29.9 0 11-.2 19.7-.5 19.4-.3-.2-.5-7.5-.6-16.2 0-8.7-.3-15.6-.5-15.3-1.5 1.5-11 37.4-10.2 38.3.3.2 1.8 0 3.3-.6 4-1.5 4.2-.5.3 1.1-1.8.7-3.6 1.7-3.9 2.1-.6.9-.3 15 .5 20.8 1.1 8.5 1.8 12.7 2.2 14.7.2 1.3.1 2.3-.4 2.3-.8 0-3.2-16.2-3.2-21.9 0-4.9-1.3-2.9-2.2 3.2-.5 4.3-.6 3.9-.4-2.6.2-4.2.2-7.7 0-7.7-.1 0-1.4 3.6-2.9 7.9-1.9 5.8-2.4 8.9-1.9 11.5.6 3.5 2.4 6 2.4 3.5s1.1 0 1.5 3.6c.3 2.2 1.6 4.9 3.3 6.6l2.7 2.9.6-3.2c.6-3.2.6-3.1.8.9.1 4.1 1.4 5.7 2.4 3 .3-.6.6.2.6 1.9.1 2.6 1.2 3.9 6.3 8 11.8 9.3 14 10.7 13.4 8.7-2.2-7.7-6.9-30.4-6.3-30.9.2-.2 1.6 5 3.1 11.7 3.8 16.4 4.6 19 5.5 18.5.4-.3 1.8-3.7 3.1-7.5 1.3-3.9 2.5-6.9 2.8-6.7.2.3-.6 3.4-1.8 7-1.2 3.7-2 7-1.8 7.6.2.5 3.8-1.8 8.1-5.1 4.2-3.2 7.7-5.7 7.7-5.5s-3.6 3.4-8 7.1-8 7.2-8 7.9c0 2 13 7.7 15 6.6 1.3-.7 2.2-.4 3.5 1 1.4 1.6 1.5 2 .4 2-1 .1-.9.4.4 1.1.9.5 1.7 1.4 1.7 2 0 1.2-5.9-1.3-12-5-2.5-1.6-5.6-3.2-6.8-3.6-2.2-.6-2.2-.5.6 4.2 1.7 2.6 3.3 5.9 3.7 7.2 1.3 4.3 4.1 8.6 5.6 8.6.8 0 1.8 1 2.4 2.2.9 2 1.2 1.7 4.7-4.3 2.1-3.6 3.8-7.4 3.8-8.5 0-2.1 1.5-2.5 2.6-.8.5.8 3.5 1 10 .5 10.8-.7 12.7-1.3 12-3.3-.4-.8-.9-2.7-1.2-4.1l-.6-2.7 2 2.4c1.9 2.3 1.9 2.3 5.5.6 2.1-.9 3.7-2.3 3.7-3 0-.6.9-2 2-3s2-2.4 2-3.1.4-1.5.9-1.9c.6-.3.6.6.1 2.5-.8 2.8-.7 3 2.8 4 2 .5 6.1 1 9 1 4.1 0 5.2-.3 5.2-1.6 0-2.9-9.4-18.3-11.4-18.8s-18.1 5.9-19.2 7.5c-.3.5-1.5.9-2.8.9-1.2 0-2.8.6-3.4 1.2-1 1-1.5 1-2 .1-.4-.6-3.8-3.2-7.6-5.8-6-4.1-7.9-5.1-10.8-5.4-.3-.1-.7-8.3-.8-18.4 0-10-.5-20-1-22.2-.6-2.5-.5-4.4.1-5.1 1.2-1.5.1-9-1.6-10.4-.9-.8-6.1-.6-17.5.5-8.9.8-16.6 1.8-17.1 2.1-1.5.9-1 5.1 2.2 19 1.7 7.4 2.9 14.4 2.7 15.7-.3 1.6-.6 1.1-1.2-1.8-.4-2.2-1.8-9-3.2-15-1.4-6.1-2.8-12.5-3.1-14.3-.3-1.7-.9-3.2-1.4-3.2-1.6 0 1.4-3.8 3.4-4.4 1.3-.3 1.7 0 1.3 1.1-.5 1.2.1 1.4 3.6.9 2.4-.3 9.9-1 16.8-1.7 6.9-.6 12.7-1.3 12.9-1.5.5-.5-12-19.4-12.9-19.4-.3 0-4.4 3.8-9 8.5-4.5 4.7-8.4 8.4-8.6 8.2s3.2-4.1 7.6-8.8c4.4-4.6 8.3-9.5 8.6-10.9.3-1.5 1.5-3 2.7-3.5 1.1-.6 5.1-6.2 8.9-12.5 7.1-12.1 8.3-14.1 14.2-23.1 2-3.1 3.6-5.9 3.6-6.3 0-.5 1-2.2 2.3-3.9 2.1-3 2.6-3.9 5.8-9.7.8-1.4 2.6-4.1 4.2-6.1 1.5-2 2.7-4 2.7-4.5 0-1.5 5.4-11.9 6.6-12.6.6-.4 3.1-3.7 5.4-7.3 2.4-3.6 4.5-6.4 4.7-6.1.2.2-1 2.5-2.6 5.2-1.7 2.6-2.9 4.9-2.7 5.1s6.1-2.4 13.2-5.8 14.5-6.7 16.4-7.4c4.1-1.5 46.8-21.2 49-22.6 1.8-1.1 2.2-1.2 8.5-3.2 5.3-1.6 7.5-2 7.5-1.3m-109.7 25c-5.5 4.6-22.8 18.1-26.6 20.6-4.7 3.2-4.7 4.4.1 3.7 2.5-.5 3.2-.3 2.2.3-.8.5-2.7 1-4.1 1-1.5 0-3.1.6-3.7 1.2-.5.7-1.5 7.4-2.1 14.8-.7 7.4-1.6 17.7-2.2 22.8-.5 5.1-.9 13.4-1 18.5 0 5.6-.6 10.2-1.4 11.7-1.3 2.4-1.3 2.3-2-2.3-.6-3.6-.4-5.2.8-6.5 1.1-1.3 1.6-5.6 2.2-16.6.4-8.2.8-15.7 1-16.5.1-.9.5-5.7.9-10.6.6-8.3.5-8.8-.8-6-1.4 2.8-1.4 2.9-1.5.6-.1-2-.3-2.2-1.6-1.1-.9.8-1.3 2.1-1 3.4.5 1.8.4 1.9-.5.4-1.8-2.8 1-7.4 4.3-6.9.4 0 .7-.9.7-2 0-1.3 2-4.1 4.8-6.8 5.2-5 6.8-6.4 21.9-17.6 5.7-4.2 10.5-8.1 10.9-8.6.3-.6.8-.8 1.1-.5s-.8 1.7-2.4 3m649.5 24.9c1.7 0 3.2.4 3.2.8 0 1.2 6 5.2 6.7 4.5.3-.3-.2-1.5-1.1-2.5-1-1.1-1.6-2.5-1.4-3.2.2-.6 3.4 3.3 7 8.7 3.7 5.5 7.6 10.9 8.8 12.1 1.3 1.4 2.8 5.7 4 11.5 1.1 5.1 2.9 12.9 3.9 17.3s2.9 12.2 4 17.4c1.2 5.2 2.5 9.9 2.8 10.4.4.6.1.7-.8.2-1.1-.7-1.2-.6-.2.6 1.5 1.8 5.2 22.2 5.8 31.6.3 3.7.9 8.8 1.4 11.3.6 2.5 1 5.6 1 7-.1 1.4-.9-1.1-1.9-5.5s-1.6-8.3-1.4-8.6c.4-.8-3.3-25.7-4.4-29.4-1.7-5.4-3.5-8.9-6.1-11.8-2-2.2-2.6-4-2.9-9.5-.4-6.8.4-8.5 1.1-2.1.5 5.4 2.8 11.7 5 13.6 1.9 1.7 1.9 1.7 1.4-.2-.3-1.1-2-8.3-3.7-16-3.9-17.1-3.8-16.8-4.9-16.1-.8.5-2.4-6.9-3.4-15.6-.4-3.1-1.6-4.7-11.1-14-6.6-6.6-9.4-8.4-8.2-5.3.3.8.1 1.5-.4 1.5s-1-1.2-1.2-2.6c-.3-3.1-1.2-3.7-8.8-5.8-4-1.2-4.4-1.4-1.5-.9 2.2.3 5.5.6 7.3.6M695.3 346c8.1 9.5 21.5 24 22.3 24.3.8.2 1-3.1 1.3-17.1 0-5 .4-9.2.9-9.2.4 0 .6 6.4.5 14.2l-.2 14.3 14.2 13.9c7.8 7.7 13.1 13.1 11.7 12-3.3-2.6-3.3-2.6-14.8-13.2-5.5-5.2-10.4-9.4-10.9-9.4-.4 0-1.6-.6-2.5-1.5-1-.9-2.2-1.2-3-.7-1 .6-1 .4 0-.9 1.4-1.7-.5-4-23-28.5-2.6-2.8-4.8-5.4-4.8-5.7 0-1.4 3.2 1.5 8.3 7.5m-69.6 33c.4 0 1.5-.7 2.5-1.7 1.1-1 1.8-1.2 1.8-.4 0 .7-1.3 2-3 2.9-1.6.9-3 2.1-3 2.5 0 .9-4.8 6.2-10.8 12-1.8 1.8-6.3 4.3-10 5.8-4.4 1.6-6.7 3-6.6 4 .1.9-.7 1.5-1.9 1.5-1.4-.1-3.4 1.9-6.3 6.1-2.4 3.5-4 6.5-3.5 6.7 1.3.9 10.1-3.9 9.6-5.2-1.7-4.1-1.6-4.6.4-2.4l2.1 2.4 2.7-2.2c1.6-1.2 3.6-3.6 4.5-5.3 1.5-2.8 1.7-2.9 1.8-1 0 4.6-10.1 13.3-15.6 13.3-2.6 0-4 1.6-2.2 2.3.7.3-.2.3-1.9 0-1.8-.3-3.9-.1-4.5.4-.7.6-4.6 2.2-8.5 3.7-4.9 1.9-7.3 3.3-7.4 4.4 0 1.1-.2 1.2-.6.4-.2-.6-1.1-1.2-1.9-1.2-2.7 0-13.4 6-13.4 7.5 0 .8-.7 1.5-1.5 1.5s-1.5.4-1.5 1c0 .5-.5 1-1.1 1-.8 0-.8-.4 0-1.4 1-1.2.9-2-.3-3.9-1.6-2.3-1.6-2.3 1.3-1.9 2.6.4 3.2 0 4.4-3.1 1.6-3.6 4.2-6.3 3-3-.3 1-1.1 2.4-1.6 3.1-1.6 2-.2 2.4 2.9.8 1.6-.8 3.7-1.7 4.7-2 2.3-.7 2.2-4.7-.3-7.8-2.4-3.1-1.8-9.8 1-9.8.9 0 2.7-1.1 3.9-2.4s3.5-2.6 4.9-2.9c1.5-.2 3.6-.8 4.7-1.2 1.6-.7 1.6-.5-.4 1.2l-2.4 2 3.7.1c2 .1 4.2.5 4.9.9.8.5.8.2-.1-.9-1-1.3-1-1.7.3-2.2.8-.3 1.5-.1 1.5.4 0 .6 1.1 1 2.5 1s2.5-.5 2.5-1.1c0-.5.5-.7 1-.4.7.4.1 1.6-1.5 3-1.4 1.3-2.5 3-2.5 3.8s-.7 2-1.5 2.7c-1.6 1.3-2.1 3.4-.6 2.8 1-.4 8.1-9.5 8.1-10.5 0-.4-1-1.7-2.2-3-2.4-2.5-2.5-2.5 5.7-2.8 2.8-.1 6.1-.7 7.5-1.2 2.5-1.1 2.6-1.3 2.5-10.7-.1-8.4.1-9.4 1.2-7.4.7 1.3 1.3 3.2 1.3 4.3 0 1.2.3 1.6.8.9.4-.7 1.5-.1 3 1.8l2.4 2.8H610c-1.7 0-2.1-.4-1.5-1.8.4-1.1.3-1.4-.4-.7-1.7 1.7-2.3 7.5-.7 7.5 1.2 0 5.9-4.2 10.7-9.7.9-1 2.6-2.6 3.7-3.5 1.2-1 2.3-3 2.3-4.5.1-1.7.3-2.1.6-1.1.2 1 .7 1.8 1 1.8m337.2 74c0 4.7 0 8.9.1 9.5 0 .5 1.2-.4 2.5-2 2.7-3.3 3.4-2.3.9 1.3-2.2 3.1-.1 2.8 6.1-.9 2.8-1.6 7-3.9 9.5-5s5.2-2.6 6-3.3 2.4-1.6 3.4-2c4-1.4-1.3 3.1-6.2 5.3-5.9 2.7-19.4 9.9-20.5 11-.5.5.6 3.2 2.3 6.1s2.9 5.5 2.6 5.7c-.3.3-1.6-1.8-3-4.6-1.5-2.8-2.9-5.1-3.1-5.1-2.4 0-12.8 16-14.3 22-.6 2.5-1.4 9.2-1.8 15-.3 5.8-1 11.6-1.5 13l-.9 2.5 2-2.4c1.2-1.3 2.5-3.1 3-4s1.1-1.3 1.5-1c.3.4-.5 1.9-1.8 3.5s-2.7 3.9-3.1 5.1c-.4 1.1-1.3 2.7-2.1 3.3-2.6 2.2-1.6 2.6 4.3 1.9 6.7-.8 10.6-2 10.9-3.4.2-1.4 8.2-17.2 8.3-16.3 0 .3-1 2.8-2.1 5.5-2.2 5-4 11.3-3.2 11.3.2 0 1.8-.7 3.4-1.6 1.7-.8 3.3-1.3 3.6-1s-.7 1.1-2.3 1.8c-3.7 1.6-8.4 6.3-8.4 8.3 0 .9-.5 1.3-1 1-.6-.4-.8-1.1-.5-1.6.8-1.2-3.8-1.2-5.1 0-.5.5-4.6 2.1-9.2 3.6s-8 3.1-7.5 3.4c.4.4 2.5 1.9 4.6 3.5 2 1.5 3.7 3.2 3.7 3.9-.1.8-.5.7-1.3-.3-1.4-1.8-6.7-5.3-7.2-4.8-.2.2-.1 2.9.2 6.1.4 3.8 1 5.7 1.9 5.7 2.2 0 8.3-5.9 12.5-12.1 2.1-3.2 4.5-6.1 5.1-6.5.7-.5.5.3-.4 1.6-3.9 5.5-8.8 14.2-8.8 15.6 0 .8.8 2.9 1.7 4.7s1.9 4.8 2.3 6.7c.5 3.2.2 3.8-3.5 7-3.7 3.3-3.3 1.9.8-2.3 1.8-1.8 1.8-2 .1-3.8-1.3-1.4-1.4-2.3-.7-3 1.3-1.3-.3-6.9-1.9-6.9-.6 0-.7-.7-.4-1.6s.3-1.4-.1-1.2c-4.9 2.4-6.3 3.2-6.3 4 0 .4-.6.8-1.4.8-.9 0-1.5-2.2-1.9-7.6-.3-4.2-1-8.1-1.6-8.7s-3.1-.2-7.2 1.2c-3.5 1.1-7.3 2.1-8.4 2.1-1.2 0-2.9.8-3.7 1.7-1.7 2.1-2.4 9.3-.9 9.3.6 0 .9.6.7 1.2-.3.7-.7 2.5-1 3.9-.6 2.7-.6 2.7 3.7 1.7 2.3-.5 7.1-2 10.5-3.4 3.5-1.4 6.6-2.3 6.9-2 .8.8-4.8 3.2-13.9 6-7.3 2.2-9.4 2.5-13 1.7-2.4-.5-7-1.4-10.3-2-12.8-2.3-16.2-3-23-5-8.9-2.6-11.5-2.6-15.1 0l-2.9 2.1 2.8-2.6c3.7-3.4 2.9-4.5-6.7-9.3-3.9-2-8.7-4.8-10.7-6.4s-4.1-2.9-4.5-2.9c-.5 0-2-.9-3.3-1.9-2.3-1.7-2.3-2-.9-3.5 2.1-2 2.9-2.1 2.2-.1-.5 1.3.9 1.5 9.2 1.6 6.1.1 8.7.4 6.9.8-2.7.6-2.3.8 3.5 1.9 3.6.7 13 1.7 21 2.3 8 .5 16.9 1.4 19.9 1.9 5.7 1 16.6 1.2 14.3.3-2.4-.9 2-2.9 5.8-2.7 1.9.1 4.9.3 6.5.4 2.6.1 2.7.3 1 1-1.1.5-1.5.9-.9.9.6.1 2.4-.6 4-1.4 1.7-.8 5-1.6 7.5-1.9 4.8-.5 13.7-3.3 18.4-5.9 3-1.7 3-1.7-3.9-1.2-4.9.4-7.4 1.1-8.3 2.3-1.2 1.6-1.2 1.5-.6-.2.5-1.6.3-1.8-1.1-1.3-1 .4-3 .9-4.4 1.2-1.5.3-.6-.3 2-1.2 2.6-1 5.8-2.8 7-4.1 2-1.9 2.1-2.5 1-4.3-.7-1.1-2.6-8.2-4.2-15.7s-3.2-14.8-3.5-16.2.2-.7 1 1.6c.9 2.2 2.6 9.2 3.8 15.5 1.3 6.3 2.8 11.4 3.3 11.4.9 0 1.3-2.5 3.3-21.5.9-8.5.8-10.2-1.1-16.3-2.5-8.2-1.9-10 .7-2.2 1.1 3 2.2 5.5 2.5 5.5s3.1-3.6 6.3-7.9c5.9-8.2 6.9-11.8 4.1-14.2-.8-.7-2.2-2.6-3-4.3l-1.5-3.1 2.6 3.2c1.5 1.8 3.1 3.3 3.7 3.3.7 0 .9-4.7.5-14.8-.4-10.6-.3-12.9.4-8.2.4 3.6.8 10.3.8 15m-708.5 21.2c-.3 7-.3 7.1.7 2.8 1.2-4.7 2.5-7 4.1-7 1.2 0 .8 2.7-2.1 13.5-1.1 4.4-2.1 8.4-2.1 8.9 0 1.9 3.3-2 4.7-5.6.8-2.1 1.9-3.8 2.4-3.8s-.7 3.2-2.7 7.2c-2.7 5.4-3.8 6.8-4.6 5.7-.6-1-.8-.2-.6 2.7.2 2.7-.1 4-.8 3.7-1.2-.4-3.5-21.5-2.4-22.3.7-.5 2.5-9.5 2.3-11.8 0-.6.3-1.2.7-1.2s.6 3.3.4 7.2m739.8 2.1c-.6 1.2-2.2 5.8-3.6 10.2-3.6 11.6-6 18-6.9 18.3-.4.2-.5.8-.1 1.3.3.5-.2 1.2-1 1.5-2.2.9-4.9 5.9-8 15.4s-7.5 19.3-7.6 17c0-.8.6-2.7 1.4-4.2 2.4-4.5 5.3-13.2 4.9-14.4-.2-.7.9-3.6 2.5-6.5 6.3-11.6 7.6-14.5 7.3-15.8-.1-.7.2-1 .7-.7.9.6 2.2-4.7 2.2-9.3 0-1.8-.3-2.1-1.3-1.2-2 1.6-2.7.3-1.6-2.6.5-1.4.7-3.4.4-4.4-.4-1-.2-2.6.3-3.6 1-1.7 4.2-2.7 4.2-1.3 0 .5.3 1.6.6 2.4.5 1.4.2 1.5-1.8.7-2.4-.9-2.4-.9-1.4 2.6.7 2.2 1.2 2.8 1.5 1.7.1-.9 1.6-2.8 3.1-4 1.5-1.3 3.1-3.6 3.5-5.1.4-1.7 1-2.2 1.2-1.5.3.8.1 2.4-.5 3.5m-634.3 87.1c-.2.2-10.7 4.6-23.4 9.7-12.6 5-23.6 9.6-24.2 10.2-.7.5-1.4 1.9-1.4 3.1-.1 1.7-.2 1.7-.6.3-.2-.9-.9-1.7-1.4-1.7-1 0-18.3 12.2-21.1 14.9-5.8 5.6-6.8 6.3-7.2 4.9-.2-.7-.7-2.1-1-3-.4-1.5-.3-1.6 1.4-.6 1.6 1 2.6.6 6.7-2.8 2.6-2.2 7.8-6.2 11.5-8.9 3.7-2.8 6.7-5.3 6.8-5.6 0-.7-8.8-1.9-14.7-1.9h-4.2l-1.5 5.2c-.8 2.9-1.9 7.1-2.4 9.3-.6 2.2-1 3.1-1.1 2 0-1.1.6-4.7 1.4-8 2.1-8.7 2-9.5-1.2-9.6l-2.8-.1 3-.7c1.7-.4 4.1-.4 5.5 0s6.1 1 10.4 1.4c7.5.6 7.9.5 6.6-1.2-1.2-1.5-1.2-1.6 0-.6 2.1 1.9 4.1 1.6 3.3-.5-.6-1.5-.5-1.5 1.1-.3 1.5 1.3 2.2 1 6.4-3 3.7-3.4 4-3.6 1.7-.9-1.7 1.9-3.3 3.6-3.7 3.8-.5.2-.8.7-.8 1.2 0 1.3 2.7.3 24.3-8.6 17.6-7.2 24.2-9.5 22.6-8m584.5 13.8c-.5.7-4 4.7-7.9 8.8-26.7 27.9-32.8 34.8-32.1 35.9.3.5-.3.7-1.4.4-1-.3-3.5.5-5.5 1.7-1.9 1.2-3.5 1.9-3.5 1.7 0-.3 1.6-1.5 3.5-2.7s3.3-2.5 3-2.9c-.9-1.5-30.8-21.4-32.1-21.4-.7 0-1.5-.5-1.7-1.2-.3-.6-7-4-15.1-7.5-8-3.5-14.4-6.6-14.1-6.8.2-.2 5.6 2 12 4.8s12.6 5.3 13.9 5.4c1.2.1 2.6.5 3.2.8.5.4 8.4.6 17.4.5l16.5-.2.6-5.5.6-5.5.1 5.7.2 5.8h4.1c6.5 0 18.2-2.1 20.7-3.6 1.2-.8 2.2-2.2 2.2-3.2.1-.9.7-2.8 1.6-4.2 1.3-2.2 1.4-2.2.9-.3-1.2 4.3 1.8 3.5 7.4-2.1 5.7-5.7 6.8-6.6 5.5-4.4m259.8 98.3c1.1 1.4 2.3 2.3 2.8 2 .8-.5 2.4 3 3.4 7.5.4 1.5-.2.8-1.3-1.5-2.3-4.6-2.6-4-.9 1.9 1.1 3.9 3.3 7.8 2.6 4.6-.2-.9.4-1.4 1.4-1.4 1 .1 1.5-.2 1.2-.7s.5-4 1.7-7.9c1.8-5.4 2.7-7 4.2-7 1.4 0 1.7.5 1.2 1.7-3.1 7.8-6.3 17.4-6.9 20.4-.6 3.1-.9 3.6-3 3.2s-3-2.2-6.5-12c-2.3-6.3-4.1-11.9-4.1-12.4 0-1.7 2.2-.9 4.2 1.6m21.7 6.5c.4 0 1.2-.5 1.8-1.1 1.4-1.4 6.7-.3 8.4 1.7.6.8 1.6 1.4 2.2 1.4s1.8.7 2.8 1.6c1.6 1.4 1.8 1.4 2.9-.5 1.5-2.9 6.7-5.4 9.6-4.7 1.3.4 4.4 1.9 6.9 3.4 7.2 4.3 8.3 11.4 2.7 16.4l-2.7 2.3 2.5-2.8c3.1-3.5 3.3-9.6.6-12.6-1.1-1.2-2.1-1.9-2.4-1.6s.3 1.4 1.3 2.5 1.5 2.3 1.2 2.7c-.4.3-.7.1-.7-.5 0-.7-.4-1.2-1-1.2-.5 0-1 .9-1 1.9 0 2.9-4.6 7.9-6 6.5-.7-.7-.5-1.6 1-2.9 2.7-2.4 2.7-7.5.1-7.5-2.2 0-5.1 3.5-5.1 6 .1 2.2 4.6 7 6.7 7.1 1.6.1 1.6.2.1.6-.9.2-2.7-.1-4-.8-2.2-1.2-2.2-1.1-.8.6s1.4 1.7-.7.7c-1.2-.7-2.8-2.1-3.6-3.2s-1.6-1.8-1.9-1.5-1.1-.1-1.8-1c-2-2.4-7.2-1.8-9.3 1.1-2.5 3.4-1.4 4.2 2.8 1.9 2-1 3.8-1.5 4.2-1.2.7.8-2.6 4.7-4 4.7-.5 0 .1-.9 1.4-2 2.9-2.3 1.8-2.6-1.6-.4-1.6 1-3.4 1.4-5.1 1-1.8-.5-2.4-.3-1.8.5.9 1.5-.7.6-5.4-2.9-2.2-1.7-3.1-3-2.7-4.1.3-.8.3-1.2-.1-.9-.3.4-1.2.2-1.8-.5-1.3-1.3-2.8-6-1.7-5.3.3.2 1.5-1.6 2.6-4.1 1.2-2.6 2.1-3.8 2.3-2.9s.7 1.6 1.1 1.6"/><path d="M789 96.2c-5.2 1.6-14.7 4.7-21 6.7l-11.5 3.8.1 3.2c.2 3.2 9.2 32.1 10.1 32.1.7 0 2.6-2.2 6.8-8 2.2-3 4.3-6 4.7-6.5.5-.6 1.9-2.6 3.1-4.5 5.8-8.7 16.2-23.7 17.7-25.5 4.6-5.5 3.6-5.6-10-1.3M802.3 96.3c-1.1 1.2-5.3 6.9-9.2 12.7-12.4 18.4-20 29.4-21.5 31.4-.9 1.1-1.4 2.1-1.3 2.2.8.8 44.6-15 48.6-17.5 1.2-.8 1-1.9-.9-7.3-2.3-6.1-9.2-20-11.2-22.6-1.4-1.6-1.9-1.5-4.5 1.1M810 94.9c0 2 11.1 25.5 13.4 28.4 1.2 1.6 2.9 1.7 18.2 1.3 9.3-.2 19.8-.5 23.3-.5 5.5-.1 6.2-.3 5.1-1.6-.7-.8-1.8-1.5-2.5-1.5s-4.1-1.5-7.6-3.3c-21.6-11.3-44.8-22.7-47.1-23.3-1.8-.4-2.8-.2-2.8.5M907.2 130.2c-.7.7-1.2 1.8-1.2 2.5s-.4 1.3-1 1.3-1 2.8-1.1 6.2c0 3.5-.3 5.7-.6 5-1.1-2.7-3.3-1.2-3.3 2.3 0 2.8.4 3.5 2 3.5 1.1 0 2 .7 2 1.5s.9 1.5 2 1.5 2 .4 2 1c0 .5 1.8 1 4 1h4.1l-.2 5.7c-.1 3.2-.7 6.2-1.3 6.6-.7.6-.4.7.7.3 1-.3 2.5-.6 3.2-.6.9 0 1.5-1.4 1.7-3.8.3-3.5.5-3.7 4.3-4.2 3.4-.4 4-.8 3.8-2.8-.2-1.2.2-2.2.7-2.2.6 0 1-.5 1-1.1s.7-1.7 1.5-2.5c2-2.1 1.9-3.5-.2-2.8-1 .2-.8-.1.4-.7 2.1-1.1 3.9-6.4 4.5-13.4.3-2.5-.1-3-2.7-3.6-1.6-.4-5.8-.7-9.2-.8-4.8-.1-6.1.2-5.7 1.2.6 1.7-2.1 4.1-3.6 3.2-.5-.3-1-1.7-1-3.1 0-2-.5-2.4-2.8-2.4-1.5 0-3.3.5-4 1.2M704.7 132.7c-.3.4 1 5.3 2.8 10.8 15.6 47.6 19.5 59.6 19.5 60.8 0 .7.6 2.1 1.3 3.1 1.2 1.6 2 .6 7.7-9.1 3.6-5.9 9.4-16.4 13-23.3s8.5-16 10.9-20.4c4.5-8.1 4.4-9.5-.2-9.6-1 0-5.2-.9-9.5-1.9-8.3-2.1-36.3-8.9-39.9-9.6-1.1-.3-2.8-.7-3.6-1.1-.8-.3-1.7-.2-2 .3M941.3 137.6c.3 2.1 1.1 9.5 1.7 16.4s2 23.1 3.2 36 2.4 27.8 2.7 33c.4 5.8 1 9.3 1.6 9 .9-.4 4.7-6.6 22.7-37 7.4-12.4 7.4-12.4 4.8-15.2-1.2-1.3-3.4-3.9-4.8-5.8-1.5-1.9-7-8.9-12.2-15.4s-11-13.9-12.8-16.3-4.2-5.3-5.4-6.5l-2.1-2.1zM762 155.2c-.5 1.3-1.8 3.6-2.9 5.3-2.4 3.4-1.4 5.5 2.4 4.7 1.5-.2 2.5 0 2.5.7 0 .6-.6 1.1-1.4 1.1s-2.1.3-3 .6c-1.1.4-1.6.1-1.6-1.1 0-1.4-.3-1.5-1.5-.5-.8.7-1.2 1.7-.8 2.3.3.5 0 1.5-.8 2.1s-3 3.8-4.8 7c-1.8 3.3-3.9 6.6-4.6 7.3-.8.7-1.7 2.3-2.1 3.6-.4 1.2-1.8 3.9-3.1 6s-3.3 5.4-4.4 7.3c-1.1 2-2.6 4.6-3.5 5.9-.8 1.3-1.1 2.5-.7 2.8.8.4 11.8 1.9 27.1 3.5l7.2.8v-19.2c0-18.9 0-19.4-2.2-20.5l-2.2-1.2 2.3-.9c2.2-.8 2.3-1.2 1.7-6.1-.3-2.8-.6-7.1-.6-9.5 0-4.6-1.5-5.6-3-2M935.1 155.7c0 1.1.3 1.3.6.5.2-.6 1.3-1.2 2.4-1.2 1.5 0 1.9.7 1.9 3.5 0 4.1-.3 4.2-3.3 1.4l-2.2-2-.6 3.3c-.3 1.8-1.1 4.6-1.8 6.2-.6 1.6-.9 3.1-.6 3.4s.5-.1.5-.9.6-.3 1.3 1.1c1.7 3.1 1.1 5.6-.9 3.9-1.1-.9-1.6-.5-2.5 1.7-1.1 2.9-1.3 12.4-.3 15.6.3 1 .2 1.8-.2 1.8s-1.3-.8-2.1-1.8c-1.3-1.6-1.4-1.5-.9.7.3 1.3-.1 3.6-.9 5-.7 1.5-1.9 5.6-2.5 9.1l-1.2 6.4 2.9 2.1c8.2 5.9 19.9 15.8 21.5 18.2 1.8 2.8 1.8 2.8 1.2-5.7-.7-9.3-1-10.2-2.1-7.4-.5 1-1.4 2-2 2.2-1.6.3-1.7-2-.2-3.5.9-.9 1.2-1.7 1.8-5.3.1-.3.6.2 1.2 1 .9 1.2 1 1.1.4-.5-.3-1-1-8-1.6-15.5-.5-7.4-1.6-19.4-2.4-26.5-.8-7.2-1.5-14.3-1.5-15.8 0-2.3-.4-2.7-3-2.7-2.2 0-3 .5-2.9 1.7M769.2 159.8c-.7.5-1.1 7.9-1 24.5l.1 23.7 2.6.1q2.55.15.9.6c-2.1.5-2.4 2.3-.5 2.3 1.8 0 4.7-3.3 4.7-5.3 0-1 .5-1.4 1.5-1.1.8.4 1.5.1 1.5-.7 0-.7.3-.9.6-.6 1.1 1 4.5-1.3 3.8-2.5-.4-.6-.3-.8.4-.4.6.3 1.7-.1 2.6-.9.8-.9 1.9-1.4 2.3-1.3.4.2.9-1.2 1.1-3 .2-2.3-.1-3.2-1.1-3.2-1.7 0-3.2-6.4-2.8-11.7.2-2.5-.4-3.6-2.9-5.4-1.7-1.3-2.8-2.9-2.6-3.6.3-.7 0-1.3-.7-1.3-1.5 0-6.3-5-8-8.4-.8-1.4-1.8-2.1-2.5-1.8M916.6 176.1c-1.3 4.1-1.4 4.3-1.5 2.1-.1-1.2-.5-2.2-1.1-2.2-.5 0-1 1-1.1 2.2-.1 2.2-.1 2.2-.8-.2-.7-2.3-.9-2.1-1.8 2-.6 2.8-.6 4.7 0 5.1s.7 1.7.4 2.9c-.7 2.6 1.2 7.2 2.6 6.3.6-.3.7-.1.4.5-1.4 2.1.4 3.9 3.4 3.7 2.1-.2 2.9.2 2.9 1.3 0 1 .3 1.2.8.6 1.5-1.6 5.8-24.2 4.8-25.1-.3-.3-.9.2-1.2 1.1-.4 1-.9 1.3-1.3.8-1.1-1.8-6-2.6-6.5-1.1M978.9 188.7c-.7 1.6-2.1 3.9-3 5.3-3.9 5.8-25 42.2-24.7 42.4.4.4 34.2 2.6 34.4 2.3.4-.4-1.6-25.1-2.6-32.5-.6-4-1-10.2-1-13.8 0-6.9-.9-8-3.1-3.7M819 192c0 3.6-2.7 4.1-5.5 1-1-1.1-2.2-1.7-2.8-1.3-.6.3-2.6.8-4.6 1-1.9.2-3.7.6-4 .8-.8.8 3.7 8.6 6.9 12 1.2 1.3 1.9 2.8 1.5 3.4-.3.6 0 1.1.8 1.1s1.8.7 2.1 1.6c.3.8.2 1.2-.4.9-.5-.3-.2.7.7 2.3 1 1.7 2.2 2.8 2.8 2.6 1.4-.6 5.7-14.3 4.9-15.6-.4-.7-.2-.8.4-.4 1.3.8 3.5-6.1 2.5-7.8-1.3-2.1-3.8-4.6-4.5-4.6-.5 0-.8 1.3-.8 3M983.4 198.6c.4.9 1.1 6.7 1.6 12.8 1.4 17.4 3 26.6 4.6 26.6.8 0 1.4-.5 1.4-1.2 0-.6.9-2.1 1.9-3.2 1.7-1.9 1.8-2.7.9-7.1-.5-2.8-1.4-5.4-1.9-6-.5-.5-.9-1.8-.9-2.9 0-2.9-6.3-20.6-7.3-20.6-.5 0-.6.7-.3 1.6M790.5 202.9c-1.6.4-5.7 2.7-9 5.1-3.3 2.3-5.1 4-4 3.6 2-.6 2-.6.1.9-1.1.8-2.8 1.5-3.8 1.5-3.2 0-1.9 2 1.5 2.1 7.5.3 9.6.5 10.3 1.2.4.3 1.7.4 3 .1 1.2-.3 3.2-.1 4.3.6 2.2 1.1 19.2 4.2 19.9 3.6.9-1-1.4-5.9-3.8-7.9-1.5-1.3-3.3-4-3.9-6-.9-2.6-1.8-3.7-3.2-3.7-1 0-1.9-.5-1.9-1 0-1.1-5-1.2-9.5-.1M913.2 219.6c-4.4 3.2-5.9 5-5.5 6.1.5 1.2.2 1.5-1 1-.9-.3-1.7-.2-1.7.4s-.4.8-.8.5c-.5-.3-1.5.6-2.3 2-1.9 3.6-.7 4 12.9 4.8 6.5.4 15.9.9 21 1.3 5 .3 9.2.2 9.2-.1 0-.9-9.3-9.4-12.4-11.5-1.2-.8-4.4-3.1-7.2-5.3-2.8-2.1-5.3-3.8-5.6-3.8-.2 0-3.2 2.1-6.6 4.6M770 219c0 .6 1.6 5 3.5 9.8 1.9 4.9 3.8 10.3 4.1 12 .4 1.8 1.1 3.2 1.6 3.2s.6-.5.3-1c-.3-.6.1-1 .9-1 .9 0 1.6-.5 1.6-1.2 0-.6.8-.4 1.9.6 1.9 1.7 2.2 1.6 6.8-1 2.6-1.5 6.9-4.5 9.4-6.6s5-3.8 5.7-3.8c.6 0 1.6-.9 2.2-2s2.1-2 3.3-2.1c3.6-.2-6-2.8-12.8-3.5-3.9-.4-7-.2-8.3.5-1.7.9-2.3.8-3-.4-1.4-2.6-17.2-5.8-17.2-3.5"/><path d="M766.1 228.7c-.5 3.8-2 12.9-3.1 20.3-2.8 17.9-6 40.1-6 41.8 0 .7.5 1 1.1.7.6-.4.5.2-.2 1.3-.7 1.2-1.1 2.4-.8 2.7.8.8 7-2 15.9-7q13.2-7.5 33-17.7c5.2-2.7 9.7-5.3 10-5.7.3-.5 1.4-1 2.5-1.3 1.2-.2-2.4-1.9-9-4.2-6-2.1-14.5-5.1-18.7-6.7-4.3-1.6-8.3-2.9-9-2.9s-2.6 2.7-4.3 5.9c-1.6 3.2-6.1 12.1-10 19.6-3.8 7.6-7.1 13-7.3 12.1s.1-2.2.6-2.9c.6-.7 4.9-8.8 9.6-18.1 7.9-15.6 8.4-17 7.1-19-.8-1.1-1.5-3.1-1.5-4.3 0-2.9-7-21.3-8-21.3-.5 0-1.3 3-1.9 6.7"/><path d="M809 235.9c-.8.6-1.7.8-2 .6-.4-.2-2.4 0-4.5.6-4 1.1-6.8 3.2-5.8 4.3.4.3-.1.7-1 .7-2.7.2-3 .4-6.9 2.9-4.4 2.9-4.8 4-1.3 4 1.4 0 4.6 1.1 7.3 2.4 2.6 1.4 7.4 3.3 10.8 4.4 5.3 1.7 6.4 1.8 8.7.5 1.6-.8 2.7-2.3 2.8-3.6.4-7.1.3-8.5-.5-7.9-.5.3-.6-.5-.3-1.8.3-1.2 0-2.9-.6-3.6-.7-.7-1.8-2-2.5-2.9-1.5-1.7-2.1-1.8-4.2-.6M844.1 236.9c-.8 1.4-.7 2 .4 2.5.8.3 1.4 1 1.3 1.5-.3 1 2.3 4.5 13.2 17.6 4.1 4.9 11.3 13.7 16 19.5 8.1 10.1 11.1 13.2 11.9 12.5.5-.6 3.9-31.6 4.7-43 .3-5.5.8-10.3 1-10.6.5-.9-17.1-1.9-33.3-1.9-13 0-14.3.2-15.2 1.9"/><path d="M896.2 237.6c.3 1 3.1 10.7 6.2 21.4 3.2 10.7 6.1 21.3 6.6 23.5s1.1 5.1 1.5 6.5c.5 1.8.4 2.1-.3 1-.5-.8-2.6-7.6-4.7-15-2-7.4-5.3-18.9-7.4-25.5l-3.7-12-1.3 13c-.7 7.1-1.4 14.1-1.6 15.5s-.9 8.3-1.5 15.5c-1 12-.9 13.1.7 14.2 10.6 7.3 20.7 15.1 21.1 16.3.3.8-.8.3-2.4-1.2-4.6-4.2-18.4-13.8-19.9-13.8-.7 0-1.6 1-1.8 2.2-.4 2-.4 1.9-.6-.5 0-1.5-.5-2.7-1-2.7-.4 0-6.3 2.4-13.1 5.4l-12.2 5.3 5.9 4.9c8.8 7.3 20.3 15.9 21.3 15.9.5 0 1.1.3 1.5.7s4.8-1.3 9.7-3.8c5-2.5 9.2-4.3 9.5-4.1.2.3-3.9 2.7-9.1 5.3-7.6 3.9-9.5 5.3-9 6.6.3 1 .1 1.8-.5 1.8-.5 0-1.7 2.1-2.5 4.7-1.5 4.6-1.5 4.1-.1-4l.7-3.7h-11.7c-11.6 0-11.6 0-10.9 2.2.3 1.3 1.1 2.4 1.5 2.6.5.2.9.8.9 1.3 0 1.5 10.1 10.8 14.7 13.5 3.2 1.9 5.3 2.4 9 2.2 4.6-.3 4.8-.4 4.6-3.1-.1-1.5-1.3-5.3-2.8-8.4-1.4-3.1-2.3-5.8-2-6.1.2-.2 1.9 2.7 3.7 6.7 1.8 3.9 3.6 7.1 3.9 7.1s1.3-1.7 2.2-3.8c.9-2 3.1-6.6 5-10.2 8-15.1 8.5-16.6 4.9-15.3-1 .3-.5-.5 1-1.8 2.4-2.1 2.7-2.9 2.2-7.3-.2-2.8-1.2-7.4-2-10.3-.9-2.9-1.4-6-1.2-7 .2-.9 1.4 2.9 2.7 8.3 2.3 9 3.3 11.3 5.3 11.4.3 0 .4-.8.1-1.9-.2-1 .4-3.6 1.5-5.7 1.1-2.2 4.5-10.2 7.6-17.9 5.6-13.6 7.8-18.9 9.7-23 2.5-5.5 9.6-25.1 9.3-25.6-.4-.8-12.9-1.7-34.8-2.5-16.3-.7-16.9-.6-16.4 1.2M950.5 245.6c.8 9.1 3.5 33.7 4.3 39.3.4 2.4 1.2 4.4 1.7 4.4 1.3.1 7.2-8.5 12.7-18.3 2.3-4.1 5.9-10.1 8-13.3 2-3.3 4-6.8 4.3-7.8.6-1.9 2.5-2.7 2.5-1 0 .9-6.3 11.8-7.9 13.7-.5.7-4 6.5-7.7 13-3.6 6.6-7.3 12.7-8.2 13.6-.8 1-1.1 1.8-.7 1.8.6 0 19-9.5 20.2-10.5.5-.3 4.6-28 4.8-32.2.2-2.2.5-4.5.9-5.1 1.5-2.4-2.8-3.3-18.8-3.9l-16.7-.6z"/><path d="M947 244.4c-.5 1.5-1 3.1-1 3.6 0 .4-2 5.5-4.4 11.2-4.5 10.6-20 48-21.2 51.1-1 2.7.6 2.1 11.2-3.9 5.5-3.1 12.2-6.7 14.9-7.9 2.8-1.3 5.6-2.9 6.3-3.7 1.1-1.4.8-6.8-1.2-22.9-.3-2-1-9.4-1.6-16.5-.6-7-1.3-13-1.5-13.3-.3-.2-.9.8-1.5 2.3M987.6 248c-1.7 4.5-5.6 29.9-4.7 30.4 1.2.7 14.6-9 14.9-10.6.2-1-.5-3-1.6-4.6-1.1-1.5-2.8-5.1-3.7-7.9-2.1-6.5-4.1-9.5-4.9-7.3M991 275.7c-4.1 3-7.6 5.8-7.8 6.2-.2.5 1.4 1.8 3.4 3 2.9 1.8 3.9 1.9 4.5.9.5-.7.6-2 .4-2.9-.3-.9.4-2.4 1.5-3.4 2-1.8 2-1.8 2 .6 0 1.3-.7 3.6-1.4 5.1-1.4 2.7-1.4 2.8 1.3 2.8 3.7 0 5.1 1.7 5 5.9 0 2-.3 3-.6 2.4-1-2.5-5.8-7.3-7.3-7.3-.8 0-3.3-.9-5.4-2.1-2.5-1.3-4.1-1.7-4.5-1-.9 1.4-3.4 20.2-2.7 20.8.7.8 20.9-6.7 21.8-8.1 1-1.5 1-9.6.1-9.6-.5 0-.9-3.3-1-7.3-.1-3.9-.5-8.1-1-9.3-.8-1.9-1.2-1.8-8.3 3.3M792 280.1c-7.3 3.8-14.8 7.8-16.5 8.9-1.7 1-6.4 3.6-10.5 5.6l-7.5 3.8 4 .7c2.2.4 10.1.8 17.5 1 11.5.3 13.5.2 13.5-1.1 0-.8.9-1.9 2-2.4 2-.9 8.5-8.8 8.5-10.4 0-.5 1.1-2.2 2.5-3.8 2.7-3.2 3.2-6.6 1.2-8.2-.9-.8-4.7.7-14.7 5.9"/><path d="M1003.4 287.2c.7 9.5.9 10.5 3.4 12.5 2.5 2.1 2.5 2.2.4 1.6-1.6-.4-2.7 0-3.7 1.3-1.3 1.7-1.4 1.8-1.5.1 0-2.1-.1-2.1-4.8-.1-2 .8-5.7 2.2-8.1 3.1-4.9 1.7-24.1 11.1-24.1 11.8 0 1.2 5.3-.2 6.7-1.7 2.2-2.4 3.6-2.3 2.8.4-.6 1.7-.4 2 .9 1.5.9-.4 3.3.3 5.4 1.4 2 1.2 3.3 1.8 2.9 1.3-.4-.4.1-1.3 1.2-1.9 1.1-.5 4.4-3.3 7.2-6 2.9-2.8 4.7-4.1 4.2-3-.6 1.1-2.3 3.1-3.8 4.5s-3.6 3.8-4.7 5.4c-2.1 2.8-2.1 2.8-.1 2.2 1.2-.4 2.5-.1 3.3.9.7.8 1.8 1.5 2.4 1.5s2.2.9 3.6 2c3.6 2.9 5 2.5 4.9-1.3 0-1.7.4-7 .9-11.7l.9-8.5.2 8.2c.1 7.6 1.1 10.7 2.6 8.3.3-.5 1-1 1.5-1 .4 0-.1 2.2-1.3 4.9l-2 4.9 2.9 5.6c1.6 3 2.9 5.4 3 5.3 1-1 3.2-24.8 2.9-31-.2-3.1.1-5.5.5-5.2.5.3.7-.3.5-1.2-.2-1-.4-2.7-.4-3.7-.1-1.9-.1-1.9-1.4-.1-1.3 1.6-1.5 1.5-2-2.2-.4-2.2-1.3-4.6-2.1-5.2-.8-.7-2.2-4.3-3.1-8.1-.9-3.9-1.9-7-2.2-7s-.2 4.6.1 10.2M856.3 285.6c.8 3.6 1.3 4.2 1.8 2.8.5-1.3.7-.8.6 1.6-.3 8.7.3 13.1 1.9 13.7.9.3 3.5-.4 5.8-1.6 2.2-1.2 7.2-3.4 10.9-4.9 3.8-1.5 6.8-3.2 6.8-3.7-.1-.6-.4-1-.8-1.1-.8-.1-6.3-2.4-12.3-5.1-1.9-.9-4.8-1.6-6.5-1.6-1.6 0-2.4-.2-1.7-.5.9-.3.2-1.1-1.7-2.3-5.1-3.1-6-2.6-4.8 2.7"/><path d="M972.5 286.5c-16 8.5-15.8 8.4-14.5 10 1.5 1.8 17.8 10 18.5 9.3.9-.9 3.7-18.7 3.3-21-.3-1.8-.8-1.7-7.3 1.7M828.6 299.4c.3 1.1 1.4 2.8 2.3 3.6s2.3 2.7 3 4.2c2.4 4.7 6.8 8.8 9.5 8.8 1.4 0 2.6.4 2.6.9s2 1.1 4.5 1.3 4.5 0 4.5-.5c0-.4.9-2.6 2-4.9 1.7-3.5 1.7-4.2.5-5.5-.8-.8-7.8-3.4-15.5-5.7-13.3-4.1-14-4.2-13.4-2.2M947.5 299.3c-2.2 1.2-8.9 4.9-15 8.1-6 3.2-11.7 6.6-12.5 7.5-.9.9-1.7 3.4-1.8 5.6s-.7 5.1-1.2 6.5-1 7.6-1.2 13.8c-.3 11-.3 11.2 1.9 11.2 2.8 0 3.8-3.2 2.9-10.3-.5-5-.5-5.1.9-2.2.7 1.6 1.7 3.9 2 5 .7 1.9.8 1.9 1.8-.5.7-1.4 2-3.4 3-4.5 5-5.5 5-8.3-.2-13.8l-2.5-2.8 5.2 2.2c3.1 1.3 4.9 2.6 4.5 3.3-.3.6.6 0 2-1.4 2.1-2.1 15.7-27.5 15.7-29.4 0-1-1.3-.6-5.5 1.7M952.7 301.5c-3.2 5.6-7.5 14.8-9.3 19.8-1.3 3.8-1.3 3.8.9 3.1 2.5-.7 22.5-10.7 27.5-13.7l3.3-1.9-3.3-2.5c-1.8-1.3-5.7-3.6-8.5-4.9-2.9-1.4-5.5-2.9-5.8-3.5-1.1-1.8-2.3-.9-4.8 3.6M859.1 312.2c-2.4 7.5-2.1 9 2.2 13l4.1 3.8h20.8l-4.4-3.6c-7-5.9-20.5-16.4-21.1-16.4-.3 0-1 1.5-1.6 3.2M914 323.1c0 1.1-3.1 8.1-8.8 19.7-4.1 8.2-3.8 9.2 3.1 9.2 3.6 0 4.4-.9 3.8-4.4-.1-.4.2-1.3.8-2 1-1.2 2.7-23.6 1.7-23.6-.3 0-.6.5-.6 1.1M894.5 376.9c-.8 1.3-5.3 20.9-6.9 30.2-1.4 7.9-1.1 13.3.7 12.2.5-.3.7-.1.4.4-.6.9 13.6 15 20.3 20.2l2.6 1.9.1-2.1c.1-1.2.7-3.9 1.4-6 .9-2.9 1-4 .1-4.9-.7-.7-1.2-3.8-1.2-7s-.4-5.8-1-5.8c-.5 0-1-1.3-1-3 0-1.6-.7-5.5-1.6-8.7s-2.5-9.4-3.5-13.8c-2.6-11.5-2.7-11.9-5.7-13.3-3.1-1.4-3.9-1.5-4.7-.3M936 386.9c-3.5.6-3.5.7-3.5 5.6.1 2.7 1 8.7 2 13.3l2 8.2 3-.5c1.7-.2 5.9-.7 9.5-1.1 9.6-1 9.6-1 4.9-8.4-7-10.9-11.2-16-13.2-16-1 0-1.5-.5-1.2-1 .3-.6.5-.9.3-.9-.2.1-1.9.4-3.8.8M970 405.2l-6.2 5.3 7.3 1.1c4.1.6 10.2 1.4 13.6 1.8l6.3.7-2.2-5.8c-1.2-3.2-2.6-6.3-3.1-6.8-.7-.7-.8-.4-.4.7.9 2.5-1.9 2.3-4-.2-2.6-3-4.5-2.5-11.3 3.2M837 413.5c-.8.2-7.5 1.1-14.7 2.1-9 1.2-13.3 2.2-13.3 3 0 .7.4 1.5.9 1.8s1.9 2.5 3.1 4.8c2.6 5.1 6.3 10.8 7 10.8.5 0 17.7-16.8 21.4-20.9 1.9-2.1 1.9-2.1-.5-2-1.3.1-3.1.3-3.9.4M881.2 433.7c-1.8 7.1-3.2 14.1-3.2 15.7v2.9l9.5-.5c7.9-.4 9.8-.9 11-2.4 1.2-1.6 1.7-1.7 3.4-.7 1.2.7 4.7 1.3 7.8 1.3h5.8l-15-14.5c-8.2-8-15.2-14.5-15.5-14.5-.4 0-2.1 5.7-3.8 12.7M827.9 480.9c-6.3 6-11.2 11.1-10.9 11.4 2.1 1.8 30.3 15.8 31.3 15.4.7-.2 2.9-3.9 5-8.1 3.4-6.9 3.7-8.1 2.7-10.9-.9-2.8-12.8-16.3-13.5-15.5-.2.2.3 2.8 1.1 5.8 2.7 10.2 5.1 23 4.4 23-.4 0-1-1.9-1.4-4.3-1-6.2-3.5-16.6-5.3-21.4-.8-2.3-1.2-4.6-.8-5.2 2-3.3-2.4.1-12.6 9.8M403 93.4c-2.5 1.3-16.2 7.6-30.5 14.1C342.4 121 332 126 332 126.7c0 .6 14.3 0 35-1.3l9.5-.7 6-6.1C402.8 97.7 408.9 91 407.8 91c-.2 0-2.3 1.1-4.8 2.4M415.5 93.7c.3 1.6 1.3 4.4 2.2 6.3.8 1.9 1.9 4.5 2.4 5.7.5 1.3 1.3 3.3 1.8 4.5.5 1.3 1.5 3.9 2.2 5.8 1.8 4.9 6.7 10.8 9.3 11.2 1.1.2 2 .9 1.9 1.6-.5 2.3 1.4 1.2 2.7-1.6 1.2-2.5 1.3-2.6 2.1-.7.7 1.9.8 1.9.8-.3.1-1.2 1-3.1 2.1-4.2s2-2.5 2-3c0-.6.5-1 1.1-1s1.7-.7 2.5-1.5q1.5-1.5.3-1.5c-.9 0-.8-.4.1-1.5.7-.8 1.6-1.3 2-1 1 .6 6.2-7.3 5.5-8.5s-13.9-5.4-26.5-8.5c-5.8-1.4-11.3-3-12.2-3.5-2.7-1.5-3.1-1.2-2.3 1.7M338 128.9c-5 .5-5.3.7-3.4 1.8 1.2.7 2.5 2.4 2.8 3.9 1 3.9 2.5 5 6.6 4.6 3.2-.3 3.9-.8 4.7-3.5.7-2.7 1.4-3.2 4.3-3.5 1.9-.1 4.4-.7 5.5-1.2 1.1-.6 3.8-1.4 6-1.9 3.1-.7 1.1-.9-8.5-.8-6.9 0-15 .3-18 .6M327.4 135.7c-3.4 3.4-5.6 9.4-22 58.3-7.6 22.5-10.7 33-10.1 33.6.4.4 45.4-44.5 46.6-46.5.5-.7.6-2.2.4-3.2-.4-1.5 0-1.9 2-1.9 3.3 0 5.1-2.3 4.3-5.6-.4-1.5-2.8-6.3-5.3-10.8-2.6-4.4-6.6-12-9.1-16.9-2.4-4.8-4.5-8.7-4.7-8.7s-1.1.8-2.1 1.7M321.5 139.4c-.5.6-1.9 2.9-3 5.1-1.1 2.1-3 5.1-4.1 6.5-1.2 1.4-3.1 4.2-4.2 6.2s-4.8 8.1-8.1 13.6c-3.4 5.5-6.1 10.5-6.1 11.2 0 .6.7 1.8 1.6 2.7 1.1 1.1 1.2 1.9.5 2.6-.8.8-1.5.7-2.3-.1-.7-.7-1.5-1.2-2-1.2-.7 0-8.8 11.4-8.8 12.4 0 .3-1.8 3.5-4 7l-3.9 6.5 3.2 4.3c1.8 2.4 4.7 6.4 6.5 9 1.8 2.7 3.7 4.8 4.2 4.8.7 0 11-30.1 23.7-69 1.3-4.1 3.8-10.8 5.4-14.9 2.9-7.5 3.2-8.9 1.4-6.7M333.7 193.2c-7.3 7.3-19 18.9-26 25.7-7 6.9-12.5 12.6-12.3 12.8.5.6 41.7-1.7 42.7-2.3 1.4-.8 5.5-18.4 10.5-45.2.2-1.2 0-2.2-.6-2.2s-.8-.5-.5-1c1.7-2.8-1.6.2-13.8 12.2M550 183c0 1.3-1.7 1.4-11 1.2l-11-.4v3.1c0 2.4.4 3.1 2 3.1 1.1 0 2 .5 2 1 0 .6-1 .8-2.4.4-1.4-.3-2.9 0-3.9 1-1.9 1.9-3.4 2-4 .3-.3-.6-.6-.2-.6 1.1-.1 2.1-.4 2.2-3.6 1.6-2.8-.5-3.5-.3-3.5.9 0 1.7 2.1 1.6 14.5-.8.6-.1 3.7-.5 7-.9 3.3-.3 8.5-1.1 11.6-1.7 5.1-1 5.7-1.4 5.5-3.5 0-1.3-.5-2.4-1-2.4-.4 0-.6-.6-.3-1.3.3-.8.1-2-.4-2.8-.7-1.2-.9-1.2-.9.1M454.5 208.5c-.5.2-8.2.8-17 1.5s-16.9 1.4-18 1.5c-1.1.2-2.4.4-2.8.4-.5.1-.6.5-.3 1 .3.4.8 16.3 1.2 35.2.3 18.9 1 36.2 1.4 38.4l.7 4 2-4.5c1.1-2.5 4.5-8.8 7.5-14 6-10.4 9.1-16.4 22.7-43.8 5-10 9.1-18.7 9.1-19.2 0-.9-4.2-1.3-6.5-.5M463 211.2c0 .6-.6 1.9-1.4 2.7-.7.9-7.5 13.7-15.1 28.6-7.6 14.8-14.1 27.5-14.6 28.1-2.2 2.7-11.7 22.8-11.3 23.8.3.6 4.8 3.5 10.2 6.5 5.3 3 11.3 6.4 13.2 7.6 6.1 3.9 19.4 11.5 20.2 11.5 1.4 0 .1-75.7-1.7-98.8-.3-3.9-.2-7.2.3-7.2 1 0 1.9 23.5 2.7 68 .3 15.7.8 30.9 1.1 33.8l.6 5.3 3.1-.7c1.7-.3 6.3-2 10.1-3.6 3.9-1.7 8.2-3.2 9.6-3.5s16.7-5.7 34.1-11.9c17.4-6.3 32.1-11.4 32.8-11.4.6 0 1.1-.7 1.1-1.5s-.4-1.5-.9-1.5-3.9-2.8-7.7-6.3c-3.8-3.4-12.5-10.7-19.4-16.2s-12.7-10.3-13-10.7c-.4-.4-3.3-2.9-6.6-5.5-11.4-9-19.9-16-32.9-27.1-7.1-6.2-13.3-11.2-13.7-11.2-.5 0-.8.5-.8 1.2M411.2 235.3c.2 4.2 0 7.7-.4 7.7s-.5.6-.2 1.3c.5 1.4-5.1 6.1-6.4 5.3-.4-.3-1.4-.1-2.2.4-1.6 1-.5 4.2 8.4 24l5.6 12.5v-21.1c0-23.8-.8-36.6-2.3-35.7-.5.3-1.3-.1-1.8-.8-.6-.9-.9 1.4-.7 6.4M320 232.2c-9.6.4-19.7 1.2-22.5 1.6l-5 .7.4 12c.2 6.6.6 18.5 1 26.5l.6 14.5 2.5-3.7c1.4-2 7.9-10.3 14.4-18.5 6.6-8.1 14.5-18 17.5-21.8 3.1-3.9 6.3-7.9 7.3-8.9 1.5-1.6 2.6-4.1 1.6-3.4-.2 0-8.2.5-17.8 1M337.7 239c-.9 1.1-2 3.2-2.3 4.7-.4 1.6-3.4 8.1-6.7 14.6s-5.7 12-5.4 12.3 2.2-.6 4.4-1.9c2.1-1.3 6.1-3.6 9-5 7.8-4 8.2-4.6 7.1-11.4-1.3-8.4-2.7-13.3-3.9-13.3-.6 0-.7-.5-.4-1 1-1.7 0-1.1-1.8 1M326.4 249.7c-4.3 5.3-11.6 14.2-16.2 19.7-9.3 11.2-12.6 15.6-11.8 15.6s9.5-4.9 16.3-9.3c3.5-2.2 6.6-4.9 6.9-6.1.4-1.1 2.1-5.2 3.9-9.1 3.4-7.3 4.5-10.4 4.4-11.9 0-.5.4-1.2.9-1.5 1-.6 4.5-7.1 3.9-7.1-.2 0-4 4.3-8.3 9.7M390 246c-1.2.6-11.9 4.1-14 4.5-2 .4-17.6 5.9-18.1 6.4-.9.8 1.9 7.1 3.1 7.1.6 0 1-.5 1-1 0-.6.5-1 1.1-1s.8.7.5 1.6c-.5 1.4-.4 1.5.7.5 1.1-.9 1.7-.8 2.7.4s1 1.5-.1 1.5c-1.3.1 11.4 6.7 17.1 9 1.4.5 3.2 1.4 4 2 2.4 1.6 9.3 4.3 11.9 4.6 1.4.2 3.5 1.5 4.8 2.9s2.9 2.3 3.4 1.9c.6-.3 1.6.2 2.4 1.2 1.3 1.8 1.4 1.8 2 .2.4-.9 0-3-.9-4.5-.8-1.5-3.7-8.2-6.5-14.8-5.3-12.7-9.1-20.5-9.2-19 0 .6-.5-.1-1-1.4-.8-1.9-1.2-2.1-2.4-1.1-1.3 1.1-1.4 1-.9-.4.7-1.8.6-1.8-1.6-.6M333.8 267.3c-5.4 2.9-10.2 5.7-10.8 6.3-.9.9.3 2.3 4.5 5.5 3.1 2.4 6.6 5.2 7.7 6.1 1.1 1 2.6 1.4 3.2 1.1.7-.5.5-.9-.6-1.1-1-.2-1.8-.7-1.8-1.2s.6-.7 1.4-.4c1.5.6 5.6-11.2 5.6-16.3 0-1.6.5-3.4 1.2-4.1 2.3-2.3-.7-1.1-10.4 4.1M314.5 277.8c-1.6 1-5.7 3.4-9.2 5.4-3.5 2.1-6.7 3.8-7.2 3.8s-1.4.7-2.1 1.5c-1 1.2-.9 1.6.6 2.2 1.1.4 4.7 2.6 8.2 5s6.5 4.3 6.7 4.3c.4 0 5.7-17.1 6.8-21.8.6-2.6.2-2.6-3.8-.4M317.7 286.3c-1.6 5-3.1 10-3.4 10.9-.4 1.2 0 1.8 1.1 1.8 1.7 0 19.4-7.4 20.7-8.7.6-.6-14-13.3-15.3-13.3-.2 0-1.6 4.2-3.1 9.3M235.2 294.7c.2 8.8.6 11.7 1.7 12.1.7.2 3.7 2.5 6.6 5.1 6.8 6 9.8 8.2 10.3 7.6.7-.6-3.7-14.2-5.1-15.7-1.2-1.3-2.3-7.8-1.3-7.8.2 0 1 1.7 1.6 3.7.7 2.1 3 8.2 5.2 13.5 3.8 9.2 5.8 11.4 5.8 6.5 0-1.7.2-1.9.9-.8.8 1.2 1.3 1.1 3-1 1.7-2 2-2.1 2.1-.7 0 1-.4 1.8-1 1.8-.5 0-1 .7-1 1.5s.8 1.5 1.9 1.5c1.3 0 2-.9 2.3-3 .3-1.7.1-3.3-.4-3.6-.4-.3-.8-1.3-.8-2.3 0-1.9-5.4-7.3-14.3-14.4-6.3-5.1-7.5-5.5-8.3-3.2-.8 2-6.8 8.5-7.9 8.5-.5 0 .7-1.7 2.7-3.8 6.3-6.5 6.4-7.4 1.6-12.6-2.2-2.5-4.5-4.6-5-4.6-.6 0-.8 4.9-.6 11.7M342.5 294c1.6 5.1 11.1 18 13.3 18.1 1 0 2.7.2 4 .3 1.9.2 3-.8 5.3-4.8 3-5 3.1-3.5.2 3.4-.9 2.3-1 3.6-.3 3.8.6.2 1.6.9 2.3 1.6.6.6 3.1 1.8 5.5 2.5 2.3.8 4.2 1.8 4.2 2.3 0 .4.7.8 1.5.8s1.5.3 1.5.7c.1 1.6 2.6 4 4.9 4.8 2.3.7 2.3.5-1.4-6.1-2.2-3.8-5.6-10.4-7.7-14.7-2.1-4.2-4.1-7.7-4.4-7.7-.4 0-1.3.8-2 1.7-1.2 1.6-1.3 1.5-.8-1.2l.6-3.1-7.9-1.3c-4.3-.7-8.7-1.5-9.8-1.7s-3.7-.7-5.9-1.1c-3.7-.6-3.8-.5-3.1 1.7M402.5 295.7c-13.3.4-15.6.8-14.9 2.8.4.9 0 1.5-1 1.5-.9 0-1.6-.7-1.6-1.5 0-1.2-1.3-1.5-6-1.5-3.7 0-6 .4-6 1.1 0 1.4 8.5 16.5 14.5 26 2.5 3.8 4.5 7.3 4.5 7.9 0 3.3 2.7.6 8.6-9 3.8-6 7-10.7 7.2-10.5.3.2-2.5 5.5-6.2 11.7l-6.6 11.3 2.7.7c4.6 1.3 27.3 4.1 27.9 3.5.3-.3.2-3.2-.4-6.6-.9-6.1 0-7.7 1.2-1.9.6 2.9.7 3 2 1.3 1.5-2.1 3.6-1.3 3.6 1.4s-2.3 4.4-3.9 2.8c-1.1-1-1.1-.8 0 .9.9 1.6 1.7 2 2.8 1.4.9-.5 8.8-4.3 17.6-8.5 18.6-8.9 18.7-6.9-.7-17.9-6.8-3.8-15.9-9.1-20.3-11.9l-8-4.9-2.9 3.3c-2.5 2.9-2.7 3-1.2.6 1.7-2.8 1.4-4.9-.7-4.5-.7.1-6.1.4-12.2.5M294.3 328.3c-2.8 4.1-6.3 12.3-6.3 14.8 0 1.7.8 1.9 6 1.9 6.3 0 6.6-.2 5-4.7-.8-2.3-.8-2.5.2-1.1.7.9 1.8 2.5 2.4 3.5 1.1 1.7 1.3 1.7 3.3-.7 1.2-1.4 3.5-4.6 5.3-7.3 1.7-2.6 3.5-4.7 4-4.7.4 0 .8-.5.8-1.1 0-.7.8-1.8 1.8-2.5 1.4-1.1.1-1.3-9.3-1.4h-11zM461 326.5c-1.4.8-8.3 4.3-15.5 7.8-7.1 3.4-13.6 6.6-14.3 7.1-1.3.8 2.9 4.4 14.3 12.2 2.8 1.9 7.1 5 9.7 7 2.6 1.9 5.2 3.2 5.8 2.9 1.4-.9.2-6.7-1.6-7.8-2.1-1.2-1.7-2.6 1-3.7 2.2-.8 2.5-1.6 3-8.7.4-4.3.8-10.2 1-13.1.5-5.7.3-5.9-3.4-3.7M394.4 345.7c.3 4.3.7 9.1.9 10.8.2 1.6.4 4 .5 5.2.2 2 .5 2.1 2.9 1.2 1.4-.5 3.2-.8 3.9-.5s2.5-.7 4.1-2.1c12.6-11.6 18.5-17.5 17.9-18-.7-.7-23.7-4.2-28-4.3h-2.8zM427 349.7c-1 5.7-2.8 12.8-7 28.8-2.5 9.5-3.2 13.5-2.2 13.5.4 0 4.3-2.1 8.8-4.8 4.5-2.6 13.8-8 20.8-12.1 6.9-4.1 12.6-7.7 12.6-8.1 0-.6-26.6-19.9-30.7-22.3-.8-.5-1.5 1.1-2.3 5M367.7 386.3c-.9 1.1-1.7 2.7-1.7 3.4 0 1.7-2.5 1.7-4.3-.1-1.5-1.5-3-1.9-6-1.7-1.9.1-2 1.5-1 12.5l.5 5.8 4.4-4.3c2.3-2.3 4.2-4.7 4.1-5.2s.8-1.1 2.1-1.2c1.2-.1 3.3-1.2 4.6-2.4 2.1-2 2.3-2.7 1.3-5-1.7-4-2.1-4.2-4-1.8M312.8 386.5c-5.9 2-7.2 3.9-7.2 10.9-.1 3.8-.6 6.5-1.4 7.2-1 .7 1.4.8 8 .2 12.4-1.1 12-1 9.9-5.5-1-2.1-2.2-5.4-2.6-7.3-1.3-6-2.5-7-6.7-5.5M341.9 393.9c-3.5 2.7-7.4 6-8.7 7.3l-2.2 2.5 8.7 1.8c4.9.9 9.9 2 11.2 2.3 2.3.5 2.4.4 1.7-4.4-1.6-11.1-1.7-11.5-3.7-10.9-1.4.5-1.7.2-1.3-.9.3-.9 1-1.3 1.5-1s.9 0 .9-.5c0-1.9-1.6-1.2-8.1 3.8M246.4 401.2c-.5.7-2.7 5.4-5 10.4s-5.1 10.4-6.3 12c-1.1 1.6-3.4 5.7-5.1 9.1l-2.9 6.3h9.9v-5.2c0-3.9.3-4.9 1.2-4 1.8 1.8 4.3-.3 5.7-5 .7-2.4 1.7-5.2 2.2-6.3 1.1-2.3 2.7-7.4 3.9-12.3.9-3.8-.6-4.4-2-.7-.5 1.4-1.4 2.5-1.9 2.5s-1.3.9-1.6 2.1c-.4 1.1-.9 1.8-1.2 1.6-.2-.3.8-2.8 2.2-5.7s2.4-5.4 2.2-5.7c-.3-.2-.9.2-1.3.9M310.7 486.7c-4.7 10.9-6.1 14.2-7.7 18.8-1 2.7-2.1 5.9-2.6 6.9-.5 1.3 1.1.5 4.7-2.4 8.7-6.8 12.9-10.9 12.9-12.4 0-1.6-4-12.7-5-13.9-.3-.4-1.3 1-2.3 3M913.3 595.4c-5.6.6-10.4 1.4-10.7 1.7s0 4.9.7 10.3l1.2 9.9 10.9-11.7c5.9-6.4 10.2-11.5 9.5-11.5-.8.1-6 .7-11.6 1.3M888.6 597.9c-.4.5 0 1.2.6 1.4.8.3.6.6-.4.6-1 .1-1.8.7-1.8 1.4 0 .8-1 1.8-2.1 2.3-2.1 1-2.1 1 .5 2.7 1.4 1 2.6 1.3 2.6.7 0-.5.5-1 1.1-1s.9.6.6 1.4c-.4.9 1.4 2.9 4.8 5.5 3 2.3 5.7 4.1 6 4.1.7 0 .6-9.7-.1-15.4l-.7-4.6h-5.3c-2.9 0-5.5.4-5.8.9"/></svg>