<svg xmlns="http://www.w3.org/2000/svg" width="1706.667" height="960" viewBox="0 0 1280 720"><path d="M0 360v360h535.8l.5-2.8c.3-1.5 1-4.3 1.6-6.2l1.1-3.5-.5 4c-.2 2.2-.7 5-1.1 6.2-.6 2.1-.3 2.3 3.6 2.3 3.3 0 4.1-.3 3.7-1.4-.4-.9.2-1.8 1.5-2.2 1.1-.3 1.6-.9 1-1.3-.6-.3 1.1-2.9 3.9-6 2.9-3.2 4.9-6.4 4.9-7.8 0-1.2.9-2.8 2-3.5s2-1.7 2-2.3c0-1.2 7.8-5.5 9.9-5.5 1 0 1.2-.8.7-3-.5-2.5-.2-3 1.4-3 2.5 0 4.9-5.6 8-18.5 1.4-5.5 2.6-9.2 2.8-8.2s-.6 5.5-1.7 10c-1.7 6.7-4 22.1-2.4 16.5.5-1.8 3.3-3.3 3.3-1.7 0 .6.4.8.9.5.5-.4 5.6-.9 11.2-1.1 5.7-.3 10.8-1 11.4-1.5 2.2-1.8 3.8.6 3.2 4.9-.3 2.3-.2 3.9.3 3.6.6-.4 2 5.8 3.5 15.2.5 3.3 1.6 8.4 2.6 12.5l1 3.8H1280V0H0zM862 65.1l3.5 2-3.1-.5c-2.8-.4-3-.3-2.8 2.2.2 1.5.5 13.9.7 27.5.3 15.7.8 25.2 1.5 25.9.9.9 56.2 5.1 57 4.3 1-1-4-6.4-28.3-30.3-14.6-14.5-26.5-26.5-26.3-26.7S877.3 81.7 893 97c15.7 15.4 29 27.9 29.7 27.9.7.1 2-2.4 2.9-5.5 2-6.9 2.8-6.7 1 .3-1 3.8-1.5 11.8-.7 11.8.1 0 .3 5.6.6 12.5.6 13.1 1.8 33 3.5 54 1.4 17.5 1.9 26.8 2 32v4.5l2.3-4c1.3-2.3 7.6-12 14-21.7s11.7-17.9 11.7-18.2c0-.4 1.1-2.4 2.5-4.6 2.9-4.6 3.1-6.3 1-8-.9-.7-4.2-4.8-7.4-9-3.3-4.2-7.1-9-8.6-10.6s-4.3-4.9-6.3-7.4-4.1-5-4.6-5.5c-.6-.6-2.3-2.6-3.8-4.7-1.5-2-3.5-4.4-4.4-5.3s-1.4-1.8-1.1-2.1c.6-.6 9.6 8.8 13.5 14 2.8 3.8 16 20.4 21.2 26.6 4.7 5.7 4.4 3.3-3.4-24.3-2.1-7.1-4.1-13.6-4.5-14.5-.5-1-2.2-4.4-3.7-7.7-1.6-3.3-4.6-8.6-6.6-11.7-2.1-3.1-3.8-6.4-3.8-7.3 0-.8-.3-1.5-.7-1.5-.5 0-1.6-1.4-2.5-3-.9-1.7-2.4-3-3.3-3-.8 0-1.5-.8-1.5-1.8 0-1.1-1-2.4-2.2-3-1.3-.6-1.8-1.1-1.2-1.1 1.8-.1 7.7 5 15 13 3.7 4.1 7.3 7.8 8 8.4 1.3 1.1 16.4 19.9 20.1 25.1 1.6 2.2 1.8 3.1.8 3.1-.8 0-1.9-1.3-2.6-2.9-.6-1.5-1.5-2.8-2-2.8s-1.6-1.5-2.5-3.3c-.9-1.7-2-3.4-2.3-3.7s-1.9-2.3-3.5-4.4c-1.6-2.2-4.3-5.4-6-7.1-1.7-1.8-4.3-4.5-5.8-6.1-4.9-5.1-6.8-6.8-6.8-5.7 0 .6.9 2.2 2 3.6 1.2 1.4 4.1 6.6 6.6 11.4s5.2 9.5 6 10.4c.8.8 1.4 2.4 1.4 3.5 0 1.9 3.1 14.1 6.8 26.9 1.1 3.9 2.3 8.3 2.6 9.8l.7 2.8 2.3-2.8c1.3-1.5 3.1-4.3 4-6.1.9-1.7 1.9-3.2 2.1-3.2 1.2 0 .3 2.1-2.8 6.8-1.9 2.7-3.6 5.6-4 6.5-.6 1.5 1.2 5.7 4.7 10.9 1 1.6 1.6 2.8 1.3 2.8-.4 0-1.8-1.2-3.3-2.8l-2.6-2.7.6 12.5c.4 6.9 1.3 16.4 2.1 21.2.9 4.8 1.4 9.8 1.1 11.1-.4 2.3.8 5.6 1.7 4.7.3-.3 1.8-2.7 3.5-5.3 2.8-4.5 2.9-5.1 1.7-8-1.9-4.5-8.7-28.9-8.2-29.4.4-.3 1.5 3 6.8 20.5 1.2 4 2.6 7.5 3 7.8.5.3.9-3.2.9-7.7 0-12 .7-9.3 1.3 4.9.5 11.6.7 12.5 3.6 16.9 4 6 3.9 7.8-.1 3.3-1.8-2.1-2.8-2.7-2.3-1.5.4 1.1.9 4.7 1.1 8l.3 6-.9-5c-.4-2.8-1-6.6-1.3-8.5-.5-3.6-1.6-7-2.3-7-.1 0-1.4 1-2.7 2.2-4.7 4.5-6 9.4-3.2 12.2 1.8 1.7 6.5 11.5 6.5 13.4 0 .7.4 1.1.9.7 1.1-.6 3.7 4.6 4.5 9.2.3 1.8 1.7 5 3.1 7.3 1.4 2.2 2.5 4.6 2.5 5.4s1.6 4.5 3.5 8.2 3.5 7.6 3.5 8.8c-.1 2.1-.4 1.5-6.9-11.1-1.1-2.3-2.2-5.1-2.4-6.3-.2-1.1-.9-2.6-1.6-3.3-2.2-2-.9 16.2 1.4 19.6 1.5 2.4 1.6 2.7.1 2.1-1.2-.4-1.6 0-1.6 1.5 0 1.2-.4 2.1-1 2.1-.5 0-1-.7-1-1.5 0-1.9.2-2-7.7 1.1-13.6 5.3-14.8 5.8-16.2 6.8-.8.6-4.4 2.5-8 4.3-5.6 2.6-6.1 3.1-3.4 3 1.7-.1 3-.4 2.8-.7s.8-1.1 2.2-1.7c2.3-1.1 2.5-1 2 .8s-.2 1.9 2.3 1.4c1.6-.3 3.1-.2 3.5.4 1.6 2.7 6 1 11.9-4.7 6.2-5.9 6.3-5.7.4 1.8-4.8 6.2-5.1 6.9-3 6.3 1-.2 2.6.5 3.6 1.6 1.1 1.2 2.4 2.1 3.1 2.1.6 0 2.1.9 3.4 2.1s2.9 1.8 3.8 1.5c1.4-.6 1.5-2.2 1.1-12.4-.4-7.3-.3-9.8.2-6.7.5 2.7.9 7.5.9 10.6.1 6.6.8 7.6 3.2 4.7 2.5-2.8 2.4-1-.1 2.2-2.1 2.7-2.6 6-1 6 .5 0 2 1.8 3.2 4 1.3 2.2 2.6 4 2.9 4 .8 0 1.6-3.9 3-16 1.5-12.9 1.3-17.2-.8-18.9-1.7-1.2-1.6-1.3.5-.8 2.6.6 2.7-.3 1.3-9.8-.5-3.3-1.2-7.6-1.5-9.5s-1-7.8-1.6-13c-1.4-12.6-3.9-23.6-5.6-25.1-.8-.6-1.4-1.9-1.4-2.7 0-1.3.3-1.2 1.5.4 1.3 1.7 1.4 1.1.9-6.6-.3-4.7-1.2-11.2-2-14.5-2.4-10.7-4.5-23.5-4.1-25.3.2-.9.7.5 1.1 3.3.4 2.7 1.6 7.9 2.7 11.5s2.7 12.3 3.4 19.5c2.1 19 5.4 44.5 7.3 56 1.9 11.7 2 20.7.1 36.5-1.5 13.1-1.6 17.8-.5 52.3.5 15.9.5 25.2-.2 26-.5.6-1.3 3.3-1.6 5.9-.4 2.6-1.8 7.8-3.2 11.5-2.6 7.4-2.6 5.2.1-3.7 1.9-6.5 2.5-10.9 3.1-24.6.4-8.1.3-10.1-.9-10.1-.8 0-1.3 1.2-1.3 3.1 0 1.7-.4 7.3-.9 12.4-.8 9.1-2 12.2-4.8 12.2-.7-.1-.5-.6.4-1.3s1.9-3.6 2.3-7.2c.4-3.2 1-7.1 1.3-8.5.6-2.3.5-2.4-1.1-1.1-1 .8-3 4-4.6 7-1.6 3.1-4.2 7.1-5.9 8.9s-3.1 4-3.1 4.8c0 1.6-1.9 5.3-3.6 6.9-.6.5-2.5 3.3-4.3 6.2-1.8 2.8-3.9 5.7-4.7 6.3-.7.7-1.4 2.3-1.4 3.6 0 1.5-.6 2.4-1.5 2.4-.8 0-1.5-.6-1.5-1.3 0-.8-.9-2.2-2-3.2s-1.8-2-1.6-2.3c.3-.2 1.2.3 2.1 1.2s1.9 1.6 2.3 1.6c1 0 11.2-15.2 11.2-16.6 0-.7-4.2-1.6-10.7-2.3-6-.6-12.7-1.4-15-1.7-6.1-.9-5.6.9 2.3 9 3.6 3.7 6.4 7 6.1 7.2-.2.3-3.4-2.7-7-6.6-3.5-3.8-6.8-7-7.1-7s-.4 2.6-.1 5.7l.4 5.8-1-5c-.6-2.8-1.2-6-1.5-7.2-.5-2.5-1.3-2.5-16.6-.1l-6.8 1v3.3c0 1.9.5 3.7 1.1 4.1.8.4.7.9-.2 1.5-1.1.6-1 2.5.4 10.1.9 5.1 2 11.3 2.3 13.8s1.2 5.9 2 7.7c1.5 3.3 1.7 13.6.2 12.7-.4-.3-.8-1.4-.8-2.5 0-1.5-1.1-.8-5 3.1-2.7 2.8-5 5.4-5 5.8 0 .5-.6.9-1.4.9-2.3 0-.9-2 5.4-7.7 4.6-4 6-5.9 6-8 0-2.9-2.1-5.5-3.6-4.2-.4.4-.3 0 .4-.9 1-1.4.9-1.8-1-2.3-1.3-.3-5.8-.6-10.2-.6-6.5 0-7.7.2-7.2 1.5.4 1-.1 1.5-1.4 1.5-1.2 0-2 .7-2 1.7s-.5 2.5-1.1 3.3c-.8 1.2-.9.8-.5-1.5.9-5.7-.6-6-6.7-1.1-7.3 6-8 5.8-1.5-.4l5.3-4.9-17 .3c-21.5.5-19.8.3-19.1 2.3.3 1-.5.5-1.8-1.1-1.3-1.5-2.6-2.4-2.8-2-.3.5-.3.2-.1-.6.3-.8 1.1-4.7 2-8.5 2.6-11.8 3.1-13.9 4.2-17.5.9-3.2.9-3.3-.4-1.6-.8 1.1-1.5 1.6-1.5 1 0-.5-.6 0-1.2 1.1-2.1 3.7-21.2 26.8-28.2 34.2-7.7 8.2-7.7 6.8.4 15.8 2.5 2.8 5.5 6.3 6.7 7.8 1.3 1.5 2.7 2.7 3.2 2.7.4 0 2.1-3.5 3.5-7.8 3.3-9.3 8.7-22.3 9.9-23.7.5-.6-.1 1.5-1.3 4.5-2 5-3.7 11.1-4.3 15-.1.8-.6 1.8-1.1 2.1-.4.4 0 1.6.9 2.7 1.9 2.1 4.2 1.9 6.1-.6.7-1 2.2-1.3 4.2-1 1.8.2 3.2.1 3.2-.3s.9-1.1 2.1-1.4c1.7-.6 2-1.2 1.5-3.7-.3-1.8-.2-2.7.4-2.3.6.3 1 1.3 1 2.1s.8 1.8 1.8 2.1c.9.4 3.4 1.7 5.4 3 2.1 1.3 4.4 2.3 5.3 2.3.8 0 1.5.5 1.5 1.1 0 1.4-3.4.3-9-2.9-3.5-2.1-4.2-2.2-3-.8.8 1.1 3 2.5 4.8 3.3 1.7.7 3.2 1.9 3.2 2.6 0 .9.2.9.8-.1.6-.9 1.4-.7 3 .8 1.2 1.2 2.7 1.8 3.2 1.5 1.5-1 1.2-2.3-.7-2.9q-1.65-.45.6-.3c2.4.2 2.4.4 2.2 8.5-.2 7.8-.1 8.3 1.6 7.4 1-.6 2.9-3.3 4.3-6.1s2.9-5.1 3.4-5.1c.9 0 .6 1-1.8 7.5-.8 2.2-1 4.1-.6 4.3.5.2.6 1 .3 1.8s0 1.4.7 1.4c.6 0 1-1 .9-2.3-.1-1.2.2-3.1.6-4.1.8-1.9.9-1.9 1.6 0 .4 1 .8 3.5.9 5.4s.4 2.9.7 2.1c.4-1.1.7-1.1 1.4 0 .4.7 1.1 1 1.5.6.8-.8-2.2-8.3-4.4-11-.9-.9-1.3-2-1-2.3s1.8 1.2 3.2 3.3c4.4 6.2 9 13.3 10.2 15.5 1.1 1.9 1.2 1.8 1.9-1.1 1-4.7 2.8-5.1 1.9-.4-.4 2.1-.8 4-1 4.2-.1.1.1 1.3.6 2.5.7 2 .3 2.5-3.8 4.5-2.6 1.3-6.4 3.2-8.5 4.3l-3.7 1.9-6.8-3.4c-7.8-3.9-7.6-3.9-21.4 2.6-5.4 2.6-10.2 4.7-10.7 4.7s-1.1.5-1.3 1.1-1.6 1.3-3 1.4c-1.8.2-2.5-.1-2.2-.9.3-.7-2.1-3.5-5.3-6.1-3.2-2.7-7.7-6.7-10.1-8.9l-4.3-4.1-2 2.7c-4 5.4-6 7.2-3 2.6 1.7-2.6 3.1-5 3.1-5.5s-4.6-3.3-10.2-6.3-12.4-6.7-15.1-8.1c-2.6-1.5-5.7-2.9-6.8-3.2-1-.3-1.9-1-1.9-1.6 0-1.3 2.3-1.4 3.6-.2 1.4 1.5 28 15.9 29.9 16.3.8.2 2.1-.7 2.8-1.8 7.4-12.8 7.8-15.1 3.6-20.7-4.9-6.3-10.1-11.7-11-11.1-.4.2-1-.5-1.4-1.6-.3-1.1-1.2-2-2-2-.7 0-6 4.5-11.6 9.9-5.7 5.5-10.6 9.7-10.9 9.5-.3-.3 4.4-5.3 10.3-11.1s10.6-10.7 10.4-11c-.3-.2-7.6-2.8-16.3-5.7-8.8-3-18.1-6.3-20.9-7.3-3.3-1.3-6-1.7-8.1-1.3-2.9.6-3 .5-2.6-2.2.2-1.5.6-2.8.7-2.8 1.4 0 3.5 1.4 3.5 2.4 0 .6.9 1.2 1.9 1.3 2.5.2 9.2 2.5 20.4 6.9 4.9 1.9 11.2 4.1 14 4.8 2.9.8 6 1.7 6.9 2.1 2.7 1.1 3.5-2.1 5.8-20.5 3-25.1 3.5-33 2.1-33-.6 0-1.1.6-1.1 1.3s-4.9 6.2-11 12.2c-6 5.9-11 11.2-11 11.6 0 .5 1.2 2.9 2.6 5.5 3.5 6.3 2.5 6.6-1.1.3-2.2-3.7-3.4-4.9-4.8-4.5-1.5.3-1.6.2-.7-1 1-1.1.6-2.2-1.7-5.1-1.6-2.1-4.1-5.8-5.5-8.3-3-5.2-7.7-9-11.1-9s-18.9-3.5-21.4-4.9c-1.2-.6-3.1-1.1-4.2-1.1s-2.3-.5-2.7-1.2c-.5-.8.3-.9 2.9-.5 1.9.3 3.7.3 4 .1.3-.3-.2-2.9-1-5.7-.8-2.9-1.7-6.3-2-7.7-1-4.5-3-6-6.6-4.8-1.8.6-3.9 1.6-4.7 2.2-1.3 1-1.3.9-.1-.7.8-1 2.7-2.5 4.3-3.3s2.8-2.3 2.8-3.4c0-1-2.4-5-5.3-8.9s-7.4-10.6-10.1-15.1c-2.6-4.4-5-8-5.4-8-.8 0 1.4 44.9 2.2 45.7.3.3 2.7-.7 5.3-2.2l4.8-2.8-4 3.8-4 3.8 3 1.3c1.7.7 5.1 2 7.8 3 7.5 2.7 4.8 2.7-3.6.1-4.2-1.4-7.9-2.2-8.2-1.9s-.5 1.5-.6 2.6c-.1 1.8-.2 1.8-.8-.4-.5-1.7-1.4-2.4-2.7-2.3-1 .1-1.3 0-.6-.3 2.8-1.3 2.7-1.5-15.1-17.7-7.7-7-10.1-8.7-10.8-7.6-.6 1-.9.8-.9-.9 0-1.6-.7-2.6-2-2.9-1.9-.5-1.9-.7-.6-2.2 1.1-1.2 1.7-5.4 2.2-15.4.4-7.6 1.1-14 1.5-14.3.5-.3.7.8.4 2.3-.9 5.6-1.2 25.3-.4 25.3.5 0 .6.7.3 1.5-.4.9 4.1 6 13.3 14.9 7.6 7.4 13.9 13.4 13.9 13.3.1-.1-.5-8.1-1.2-17.7-.8-9.6-1.3-20.8-1.2-24.8l.1-7.3-4.9-4.7c-7-6.6-17.4-15.6-18.5-16-.5-.2-1 1.1-1 3-.1 2.6-.3 2.8-.6.8-1.1-7-.8-6.7-12-13.1-6.2-3.5-16.3-10.1-16.3-10.6s1.7.5 13.8 7.8c14.8 9 15.1 9.1 15.3 4.6 0-1.9.1-2 .8-.4.6 1.6 1.6 1.2 8-3.8 4-3.2 7.4-5.5 7.6-5.3s-3.2 3.3-7.6 6.8c-4.3 3.6-7.8 7-7.7 7.6.5 1.9 20.3 18.4 22.2 18.4.3 0 .6-1 .6-2.2 0-3.2.7-1.8 1.3 2.5.3 2.1 1.4 4.8 2.5 6s2.7 3.7 3.6 5.5c2.1 4.1 10.2 16.6 11.9 18.4.7.7 2.3 2.9 3.5 4.8l2.3 3.5-.6-19.5c-.4-10.7-1.1-20-1.6-20.6s-.6-1.3-.4-1.6c.5-.5-2.3-8.7-4.5-13.3-1.7-3.4-5-13.8-4.6-14.2.2-.3.9 1.3 1.6 3.4s2.7 7.4 4.5 11.8 3.5 8.8 3.8 9.7c.7 2 3.6 1.4 6.5-1.2 1.1-1 2.3-1.6 2.8-1.2.4.4.4.2.1-.4-.6-1 4.2-5.4 5.8-5.4.4 0 2-1.3 3.5-2.9 1.6-1.6 5-3.7 7.5-4.7 4.1-1.8 5.9-3.4 3.5-3.4-.5 0-1-.6-1-1.3-.1-.6-.9-3-2-5.2-3-6.2-2.3-6.6 1.2-.7 1.7 3 3.4 4.9 3.7 4.3.4-.6 2.2-1.2 4.1-1.3 2.3-.2 4.4-1.4 6.7-3.8 1.8-1.9 3.3-3.7 3.3-4.1s1.2-2.1 2.6-3.8c2.8-3.4 2.6-7.1-.4-6.6-.9.2-6.2 1.1-11.7 2.1-11.2 1.9-12.8 2.7-11.9 5.7.6 1.8.4 1.8-1.7-.5-2.1-2.2-3.3-2.5-9.9-2.7-4.1-.1-12-.6-17.4-1.2-5.5-.5-10.2-.6-10.5-.1-.3.4-1.6 1.2-2.8 1.9-2.1 1.2-2.1 1.2-.6-1.6 1.5-2.6 1.5-3.4-.6-11.7-1.2-4.9-3.1-11.8-4.1-15.4-1.1-3.6-3.8-13-6-21-4.7-17.2-7.8-28-8.5-29.9-1-2.6-2 .1-2.6 7.2-.5 4.8-.6 2.8-.4-6l.3-13.1-4.7-1.1c-2.5-.6-8.6-1.8-13.6-2.7-4.9-1-8.4-1.9-7.8-2.1.7-.3 5.7.5 11.2 1.6 5.5 1.2 11.2 2.1 12.6 2.1 3.5 0 6.1-3.1 11.3-13.1 2.3-4.6 5.3-10.3 6.6-12.5 1.4-2.3 5.9-10.9 10.2-19 4.2-8.2 8.2-15.5 8.7-16.2.6-.8.6-1.6.1-2.1-1.4-1.3-54.5-14.3-55.3-13.5-.2.2.8 3.8 2.2 8.1s3.5 11.8 4.7 16.7c1.2 5 3.7 14.4 5.6 21 5.8 20 8.2 29.1 7.8 29.5-.2.2-.5-.2-.8-1-.2-.8-1.3-4.3-2.5-7.9-2.5-7.9-8.2-28.6-12.1-43.5-1.6-6.1-4-14.2-5.3-18.2-1.4-4-2.2-7.4-1.9-7.7.9-1 4.3-.6 3.7.4-.6.9 1.7 1.6 15 4.5 4.4 1 11.4 2.6 15.5 3.7 14.1 3.7 24 5.6 24.5 4.8.3-.5-.4-4.2-1.5-8.2s-3-11.6-4.3-16.8c-2-8.8-2.4-9.5-4.6-9.4-2.1.1-2.2-.1-.8-1.1.9-.6 2.8-3.2 4.2-5.6 2.7-4.7 3.5-4.7 1 0l-1.4 2.9 4.2-1c5.9-1.3 39.8-12.8 42.2-14.3 2.5-1.5 8.4-2.4 8.2-1.2-.2.9 4.3 3.4 37.7 20.6 12 6.2 22.9 11.5 24.2 11.7l2.2.4.1-24.2c0-13.4-.2-25.8-.5-27.6-.6-3.1-.8-3.3-3.8-2.6l-3.1.6 1.9-2.1c2.3-2.6 4.1-2.6 8.6 0M511.7 87.8c7.7 4.5 14.6 8.2 15.2 8.2.5 0 2.3 1.2 3.8 2.7l2.8 2.7-2.7-1.7c-1.5-.9-3.1-1.7-3.7-1.7-1.1 0-21.1 26.8-21.1 28.3 0 .7 9.7 1.5 42.5 3.7 21.3 1.4 23.5 1.7 16 1.8-3.3.1-11.8-.2-19-.7-7.1-.5-19.2-1.3-26.8-1.6l-13.9-.7 2.8 4.3c1.5 2.4 5.3 7.8 8.4 11.9 6.6 8.6 10 13.5 22.3 31.5 4.9 7.1 9 13.2 9.2 13.4s1.9-1.4 3.7-3.5 5.6-6.3 8.4-9.4c2.9-3 6.8-7.5 8.9-10s5.2-6.1 7.1-8c1.8-1.9 4.3-4.6 5.4-6 1.2-1.4.8-.5-.9 2s-9.2 11.4-16.6 19.9c-7.4 8.4-13.5 15.9-13.5 16.5 0 .7 1.9 2 4.3 2.9 2.3 1 3.1 1.5 1.7 1.1-6.9-1.7-7.8-1.6-8.3.3-.4 1.4-.5 1.3-.6-.5-.1-2-.5-2.3-2.8-1.8-4.8 1-32.1 5.5-49.3 8.1-9.1 1.4-18.3 2.9-20.5 3.4s-8.2 1.5-13.2 2.2c-5.4.7-9.3 1.7-9.3 2.3s3.1 3.6 6.9 6.6c3.9 3 7 5.9 7 6.3.1.9-11.1-7.7-13-9.9-2.4-3-3.1-1.3-2.5 6.6.6 8.8 1.9 11.3 5.6 10.3 1.8-.5 2.1-.2 1.8 1.3-.2 1.3-1.3 2-3.6 2.2l-3.2.3v8.6c0 4.8-.3 8.3-.7 8-.7-.8-.9-3.8-1.1-22-.1-7-.5-12.7-1-12.7-.4 0-2.9 4.2-5.5 9.2-2.6 5.1-8.8 16.9-13.9 26.3-5 9.3-11.7 22.1-14.9 28.4-3.3 6.3-6.4 12-7 12.7-1.7 2.1-.5 3.9 4.3 6.6 2.4 1.4 12.3 7 22 12.6s17.9 10.2 18.2 10.2.3-14.3.1-31.8l-.3-31.7.9 31.9c.5 17.6 1.2 32.2 1.4 32.4.3.3 5.1-1.4 10.7-3.7 5.7-2.2 10.8-4.1 11.3-4.1 1.6.1-5.7 3.7-13.1 6.5-3.7 1.4-7.3 3-8 3.5-1.7 1.5-5.3 41-3.7 41 .5 0 4-1.9 7.9-4.3 42.3-25.3 40.6-24 65.4-48.1 7.4-7.2 15.1-14.4 17-16s-6.1 6.6-17.9 18.3C511.3 326.5 502 336 502.4 336s5.1-1.1 10.4-2.4c16.2-4.1 34.2-7.8 35.5-7.3.7.2-1.5 1-4.8 1.6-11.5 2.4-41 9.5-41.5 10-.3.3-1.4.7-2.4.9-1.1.2-6 2.9-11 6.1-5 3.1-10.4 6.4-12.1 7.2-4.9 2.6-19.8 11.6-22.6 13.8-1.5 1.2-3.4 2.3-4.2 2.7-.9.3-2.1 2.7-2.7 5.4-1.3 5.5-8.9 27-8.9 25.5-.1-.8 5.3-18.6 8.6-28.8.4-1.2-4 .9-13.3 6.6-7.7 4.6-17.6 10.3-22.1 12.8-4.6 2.4-8.3 4.7-8.3 5.2 0 .4 1.4 1 3 1.4 1.7.3 3.3.9 3.5 1.4.3.4-.9.4-2.7-.2-4.4-1.2-11-1.1-14.5.2-3.4 1.3-19.4 5-36.3 8.4-13 2.7-15.3 3.6-13.2 5.7.7.7 1.2 1.6 1.2 2.1 0 .4-1.2-.4-2.6-2-2.1-2.2-4.3-3.1-13.2-4.8-5.9-1.2-11.1-1.8-11.6-1.3-.6.5.2 2.1 2 4 1.7 1.8 4.3 5.5 5.9 8.3 4.4 7.7 9.2 11.8 19.9 17.4 5.5 2.8 10.1 4.9 10.3 4.7s-.1-1.5-.6-3c-1.4-3.5-.5-3.3 1.4.4 1.1 2.1 1.2 3 .4 3-.7 0-.9.3-.6.6.4.4 1.3.1 2.2-.6.8-.7 1.5-.9 1.5-.5 0 .5 1-.4 2.3-1.8 1.2-1.5 2.7-2.7 3.2-2.7s-.6 1.5-2.4 3.4-3 3.9-2.7 4.5c.4.6.2 1.1-.3 1.1-.6 0-1.1.9-1.1 1.9 0 1.1-.4 2.2-.9 2.5-.4.3-.6-.5-.4-1.7s-.2-2.9-.9-3.8c-1.6-1.9-21.9-12.7-23.3-12.3-.5.1-4.5-5.1-8.9-11.7-4.3-6.5-8.1-11.9-8.5-11.9s-.5 3-.3 6.7c.2 3.8.2 6.6-.1 6.3s-.8-3.8-1-7.8c-.3-4.1-.8-7.6-1.1-7.9s-5.3.2-11.3 1.2c-14.4 2.2-15.3 2.4-15.3 3.5 0 1.6 26.1 39 30.7 44 .2.2.8-.2 1.3-1 .8-1.2 1-1 1 .7 0 1.3.5 2.3 1.1 2.3s.8.7.5 1.6c-.6 1.6 1.9 4.6 15.2 18.3 3.4 3.5 6.2 6.9 6.2 7.5s3 4.2 6.6 8.1c3.6 3.8 7.5 8.3 8.6 10l2.1 3-2.4-2.5c-1.3-1.4-5.5-6-9.3-10.3-4.4-4.9-7.6-7.7-8.9-7.7-1.6 0-1.8-.3-1-1.1.9-.9-1.2-3.8-8.5-11.8-5.3-5.8-10-10.8-10.4-10.9-.4-.2-.8.7-.8 2 0 1.8-.2 2-.9.8-.6-.8-.7-2.6-.4-4.1.4-2.1-.1-3.5-2.1-5.6-1.5-1.5-5.3-6.4-8.4-10.7-10.6-14.7-11.7-16.2-16.1-21.9-2.4-3.1-4.5-5.7-4.6-5.7-.2 0 .3 2.1 1.1 4.7.8 2.7 2.6 9.5 4 15.3 2.2 9.1 9.3 33.9 11.3 39.4.6 1.7.8 1.7 2.3.2 2.6-2.6 3-1.8.7 1.3l-2.1 2.9 2.1 7.1c1.2 3.9 2.6 7.1 3 7.1.5 0 1.3 1.5 1.6 3.3.7 3 7.8 13.2 14.5 20.7 3.1 3.5 3.9 6 1.9 6-1.6 0-27.9 14.3-27.9 15.2 0 .3 3 2.8 6.8 5.4 3.7 2.6 8.6 6.3 10.9 8.1 3.8 3.2 4.2 3.3 5.2 1.6s1-1.6 1.1.4c0 1.9.7 2.2 5.8 2.8 3.1.3 7.3 1 9.2 1.5 3 .7 2.8.8-1.5.4-2.7-.3-7.4-.6-10.2-.7-2.9-.1-5.3-.5-5.3-.8 0-.7-9-7.3-19.2-14.3-5.1-3.5-5.9-3.7-9-2.8-7.3 2.2-26.8 6.4-28 6-.7-.3.7-.8 3.2-1.3 5-.8 8-2.1 8-3.4 0-1.4-12.1-11.2-13-10.6-.8.5-3.1 9.6-3.5 13.8-.1 1.1.6 1.7 1.9 1.8 1.6.1 1.4.3-.8 1-1.7.4-3.1.7-3.2.6 0-.1.6-4.4 1.4-9.6 1.5-8.8 1.5-9.4-.2-10.7-2.5-1.8-3.7-1-6.9 4.3-3.3 5.4-4.7 5.2-1.9-.4 2.4-4.7 5.7-7.9 6.7-6.4.3.6 1 1.1 1.6 1.1.5 0 0-.9-1.1-2-2.2-2.2-4.4-6.9-3.6-7.7.2-.3 1 .8 1.8 2.4.7 1.5 1.9 2.8 2.6 2.8s2.4 1 3.7 2.3c2.3 2.2 3.1 2.4 16.2 2.2 7.6 0 17.6-.1 22.3-.1s8.8-.3 9.2-.7-2.8-.6-7-.5c-8.8.1-7.3-.3 4.2-1.2 7.9-.7 9.1-1.9 2.6-2.9-1.9-.2.6-.3 5.7 0 5.1.2 9.4 0 9.7-.4.7-1.2-14.2-20.4-15.6-20-.4.2-5.3 4.1-10.8 8.8l-10.1 8.5 3.3.6c3 .6 2.8.7-1.4.8-2.7 0-4.8-.3-4.8-.8s-2.5-2.4-5.6-4.2c-3.2-1.8-8.6-5.2-12.3-7.5l-6.5-4.3-4.6 2.6c-2.5 1.4-4.8 3-5.1 3.5-1.3 2-1.8-2.5-.5-5 2-4.1 7.8-26.1 7.1-27.2-.3-.5-.1-1.8.4-2.7.8-1.4 1-1 1.1 2.4 0 2.3.4 5.2.9 6.5s1.3 3.6 1.7 5.3c.7 2.8.8 2.7 1.5-2 .4-2.8.8-7.5.9-10.5.2-4.8.3-5.1.9-2 .3 1.9.4 6.3.1 9.7s-.4 6.7-.2 7.3c.4 1.2 11.4-17.9 12.7-21.8.6-2.2.5-2.3-1.7-1.7l-2.3.6 2.5-2c1.4-1.1 3-2.1 3.5-2.2.6 0-.3-.7-2-1.5l-3-1.5 2.8.4c2.2.3 3.3-.2 5.3-2.7 1.5-1.9 2.1-2.2 1.5-.9-.8 1.5-.8 7.3 0 20 1.9 32.4 2 34.3 3.1 33.7.5-.3.7-1.2.4-2s-.1-1.4.3-1.4c1.6 0 13.3-29.1 12.6-31.4-.3-1.1-.8-3.8-1.1-5.9s-1-5.1-1.5-6.5c-.6-1.5-1.9-6-3-10.1-1-4.1-2.4-8-3-8.8-.7-.7-.9-1.6-.6-1.9.3-.4-.3-2.9-1.3-5.8-1.1-2.8-2.1-6.2-2.2-7.6s-.4 1.4-.7 6.3c-.3 4.8-.9 8.7-1.3 8.7-.5 0-1.7.9-2.8 2s-2.5 2-3 2c-1.7 0-1.1-2 .8-2.7 2.8-1.1-2.2-2.1-11.5-2.2-6.8-.1-8.3.2-8.3 1.4 0 1.7-1.6 2-2.5.5-.3-.6 0-1 .7-1 .9-.1.8-.3-.3-1-.8-.5-3.5-.8-6-.6-8.7.6-8.5.5-6.9 1.6 1.2.8 1 1-.8 1-1.3 0-3-.7-3.8-1.5-.9-.8-2-1.5-2.6-1.5s.2 1 1.8 2.2c3.3 2.7 17.4 10.8 18.6 10.8.4 0 4.6-1.8 9.4-4.1 4.7-2.2 8.8-3.9 9-3.7.5.6-18.3 10.8-19.8 10.8-.6 0-1.6-.7-2.2-1.5-1.1-1.5-20.5-13.5-21.7-13.5-.4 0-1 .8-1.2 1.7-.4 1.5-.6 1.5-1.2-.4s-1-2.1-2.9-1.2c-1.7 1-1.9.9-.8-.2 2.1-2.2 1.4-2.9-3.3-2.9-2.5 0-4.5-.5-4.5-1 0-.6 2-1 4.5-1 4.2 0 4.4-.1 5.4-3.8.6-2 1.1-4.3 1.1-5 0-.6.4-1.2 1-1.2 1.2 0 5.2-8.9 4.4-10.1-.3-.5-.1-.9.5-.9s1.8-2.6 2.7-5.7c.9-3.2 2-6.5 2.5-7.3 2.9-5.3 4-8.2 2.8-7.5-.9.6-1.1 0-.6-2.6.4-2.2.3-2.9-.2-1.9-.5.8-.9 1.9-.9 2.4s-.6 1.3-1.4 1.7c-1 .7-1.1 1.2 0 2.9.7 1.1.8 2 .4 2-.5 0-1.7 1.6-2.7 3.5-1.5 2.6-2.2 3.2-3.2 2.3-1-.8-1.3-.6-1.3.6 0 .9-1.5 4.1-3.4 6.9-1.8 2.9-5.7 9.9-8.6 15.5-5.3 10.2-5.5 11.2-3.6 17.7.4 1.1 0 .6-.8-1-2.5-5-1.9-7.9 4.4-19.8 3.3-6.2 6-11.9 6-12.6s.9-2.4 2-3.8 1.7-3 1.4-3.5c-.4-.6-1-.5-1.5.3-1.3 2.1-2.2.3-1.4-2.8.6-1.9.9-2.3 1.2-1.1 1 4 7.7 2.7 8.6-1.7l.5-2.7-2.5 2.6c-3.4 3.7-3.7 3.2-.9-1.3 2.5-3.8 2.8-7.1 1.1-11.4-1-2.4-1.9-2.1-3.3 1-1 2.5-1.1 2.4-.6-1.7 1-8.3.4-17.1-1.4-20.2-.9-1.7-2.3-4.1-3-5.3-1.9-3.5-3.3-12.3-2.6-16.6.4-2.1 1-3.7 1.4-3.4 1.4.9.8-5.7-1-9.8-1-2.3-2-6.5-2.4-9.2l-.5-5 1.2 4c1.1 3.6 1.6 4 5 4.3 5.2.4 4.8-2.1-1.8-10.3-1.8-2.2-3.8-5.1-4.4-6.5l-1.2-2.5 1.8 2.5c2 2.9 12.7 14 12 12.5-6.6-14.4-7.9-16.1-16.1-21.8-2.5-1.7-2.5-1.7-.9-6.2.8-2.5 1.9-4.5 2.4-4.5 1.3 0 1.1 1.2-.6 3.4-2.3 3.1-1.8 5.3 2 8.2 2 1.5 3.7 2.5 3.9 2.3.6-.7 1.1-17.9.6-17.9-.4 0-1.1.5-1.8 1.2-2 2-1.4-.2.9-3 1.6-2.1 2-3.6 1.5-7.2-.2-2.5-.2-3.7 0-2.7.3.9 1 1.5 1.5 1.2.9-.6 1.1.1 1.3 4 .1 2.4 3.2 7.5 4.6 7.5.5 0 1.1-1 1.3-2.3.2-1.2.3-.5.2 1.5-.3 4.2.1 4.7 2 2.1 1-1.4 1.1-1.1.7 1.5-.3 2.5.2 3.6 2.9 6.1 7.7 6.8 14.3 12.1 14.7 11.6.2-.2-.1-2.8-.7-5.7-1.3-5.9-1.4-6.4-7.2-36.8-4.3-22.1-5.6-34.4-3.9-35.5.6-.4 1 .7 1 2.4 0 2.5.3 2.9 1.8 2.4 1.5-.6 1.6-.5.2 1.1-1.4 1.8-1.2 1.8 3.5 1.2 2.8-.3 9.3-.8 14.5-1 9.9-.5 9.1-.3-7.3 1.5-5.5.6-10.6 1.3-11.4 1.6-1.7.7-1.3 5.4 1.8 19.8 1.1 4.9 2.6 13 3.4 18 1.8 10.6 2.1 12.8 4 21.9 1.8 8.7 4 10.5 8.1 6.8 1-.9 4.2-3.4 6.9-5.6l5-3.8-4 3.8c-2.2 2.2-5.7 5.3-7.7 7.1-2.1 1.8-3.5 3.8-3.3 4.6.6 1.3 9 5.9 13.2 7.2 2.5.7 6.7-1.1 5.8-2.6-.4-.5-.1-.9.4-.9h1.8c.3 0 .8 1.4 1 3.2.4 4 .8 4.4 3 2.7 1.7-1.3 1.7-1.2.2.6-2.8 3.5-10.6 22.1-9.7 23 .4.5 5.9.8 9.2.7 2.7-.2 2.8-.4 2.2-4l-.6-3.7 1.5 2.7c.9 1.6 2 2.8 2.5 2.8s2.7-2.6 4.9-5.8c2.2-3.1 5-6.9 6.2-8.5l2.1-2.7-9.9-.1-9.8-.2 8-.9c4.4-.5 9.1-1.1 10.4-1.4 2.4-.5 2.4-.7.5-8.4-.5-2.1-.2-1.9 1.8 1 1.2 1.9 2.9 3.6 3.6 3.8.8.1 1.1-.2.7-.8-.3-.5 0-1 .8-1 .7 0 2.5-1.7 3.8-3.7s3.1-3.9 3.9-4.1c1.2-.4 1.3-.3.2 1-1 1.3-.6 1.6 3.4 2.2 6.9.9 15.4.7 15.4-.4 0-.5-1.3-3.2-3-6-4-6.8-6.1-11-5.6-11 .3 0 1.5 1.7 2.8 3.7 4.7 7.7 9.2 13.3 10.7 13.4.9 0 2.4.2 3.3.4 1 .2 2.7-.8 3.8-2.2 1.7-2.2 2-2.3 2-.7 0 1.1-.4 2.6-1 3.4-.9 1.4 1.2 2.6 13.7 8 1.7.8 3 1.7 2.8 2s.5 1.2 1.6 1.8c1.7 1.1 1.9 1 1.5-1.1-.2-1.2-1.7-4.5-3.3-7.2-1.6-2.8-3.7-7-4.8-9.5s-2.8-5.4-3.8-6.5l-1.8-2-1.6 2c-1.4 1.9-1.5 1.9-.9-1l.7-3-13.1-2.6c-10.2-2-13-2.3-13-1.2 0 .7-.4 1.3-1 1.3-.5 0-1-.4-1-.9 0-1.3-3.2-1.9-5-.9-.8.4-5.9 2.8-11.2 5.2-5.4 2.5-9.8 5.1-9.8 5.8 0 .8-.7.5-1.8-.8-.9-1.2-4.6-4.2-8.2-6.8-3.5-2.5-5.9-4.6-5.3-4.6s3.9 2.1 7.3 4.6 6.3 4.4 6.4 4.2c.4-.6 6.5-23.2 6.3-23.4-.6-.6-21.7 12-21.7 13 0 .6-.8 1.2-1.7 1.3-1.7.1-1.8-1.6-1.8-22.8 0-12.6.3-22.9.8-22.9.4 0 .7 9 .7 19.9 0 11 .4 20.2.9 20.5s2.5-1.5 4.3-4.2c1.9-2.6 6.5-8.6 10.2-13.2 3.7-4.7 8.8-11.2 11.3-14.5 2.6-3.3 7.4-9.3 10.6-13.3s5.7-7.6 5.5-8c-.3-.8-40.2 1.4-42.6 2.3-.8.3-1.1 1.8-.7 4.7l.5 4.3-1.1-3.5c-.5-1.9-1.9-4.3-3.1-5.3-1.1-.9-1.5-1.7-.9-1.7 2.1 0 1.1-3.7-2.3-8.1-1.8-2.4-4.2-6.2-5.3-8.3l-2-3.9-4.3 3.9c-2.4 2.1-6.5 6.5-9.2 9.7-2.6 3.2-4.8 5.5-4.8 5.2 0-.9 6.5-9 12.2-15.2 2.6-2.8 4.8-5.8 4.8-6.7 0-.8 1.3-2.8 2.9-4.3 3.1-3.1 10.1-13.6 10.1-15.1 0-.5 1.7-3.3 3.8-6.3s5.8-9 8.2-13.4 5.1-9.1 6.1-10.5c.9-1.4 3.1-5.2 4.7-8.5 1.7-3.3 4-7 5.1-8.1 2.6-2.9 8.2-13.4 7-13.4-1.9 0-.8-1.8 1.5-2.4 1.4-.3 3.5-2.4 5-4.8 1.4-2.4 3.7-5.7 5.1-7.3 1.5-1.7.8-.3-1.4 3.2-2.3 3.4-4.1 6.4-4.1 6.7 0 .9 3.8-.8 16.1-6.9 6.3-3.2 13-6.3 14.9-7 4-1.5 15.5-6.8 35.8-16.6 7.8-3.8 14.8-6.9 15.6-6.9.7 0 3-.7 5.1-1.6 2-.8 4.2-1.3 4.8-1.1s-.9 1.1-3.3 2.1c-3.3 1.3-4.1 2-3 2.5.8.5 10.7 3.4 21.9 6.6 19.8 5.6 20.4 5.7 21.9 3.9 1.4-1.9 1.5-1.9.8 0-.7 2.2-4.8 2.3 35.9-1.4 20.9-1.9 28.2-2.3 26-1.5-.5.2-8.2 1.1-17 2-19.3 1.8-40.7 4.4-41.1 4.8-.7.7 46.3 20.7 48.7 20.7.3 0 2.1-2.1 3.9-4.8 1.9-2.6 6-7.9 9.1-11.7 3.1-3.9 6.1-8 6.8-9.3 1.1-2.1 1-2.2-3.1-2.4l-4.3-.1 3.8-.4c2-.2 3.7-.8 3.7-1.2s-2.4-2.1-5.2-3.6c-9.5-5.1-26-14.8-29.8-17.5-3-2.1 9.8 4.8 23.7 12.8m-197.5 18.4c-2.2 1.8-9.6 7.8-16.4 13.3s-14.2 11.3-16.5 12.8c-4.2 2.9-5.4 4.9-7.2 12.7-1.3 5.9-4.1 33.5-4.1 41.1 0 3.5-.4 5.9-1.1 5.9-.6 0-.8-1.6-.5-4.3.6-4.1 2.7-29.9 3-36.7.1-1.9-.2-3.8-.7-4.2-.6-.4-.2-2.4 1.1-5 2-4.3 7.3-9.9 12.9-13.5 1.5-1 3.8-2.7 4.9-3.8 1.2-1.1 3.1-2.7 4.4-3.5 1.2-.8 6.8-5.2 12.4-9.7 5.5-4.5 10.5-8.3 11-8.3s-.9 1.5-3.2 3.2m-66.6 87.9c-1.9 9.8-2 10.3-2.7 10.9-1.1 1-8.7 29.5-9.5 36-.7 5-.5 29 .2 30.1.4.8.3.9-.4.5s-1.2-2.9-1.2-5.6c0-2.6-.3-5.7-.7-6.7-.6-1.4-.9-1.1-1.5 1.7-.5 2.5-.6 1.8-.3-2.3.2-3.8 0-5.5-.7-5.1-.6.4-.8-.1-.5-1.2 1.5-5.1 4.7-17 7.2-26.4 5.4-20.8 10.8-40 11.2-39.7.2.2-.3 3.7-1.1 7.8m350.8 115.8c-.5.4-6.7 5.2-13.8 10.6s-13.6 11-14.4 12.5c-.9 1.5-2.8 3.2-4.4 3.8-1.5.5-2.8 1.7-2.8 2.6s-.7 1.6-1.6 1.6c-1.4 0-1.5-.2-.3-1.8.8-.9 1.9-2 2.4-2.5 1.2-.8-1.1-2.6-3.7-2.8-1-.1-2.4-.2-3-.3-.7 0-1.4-1-1.6-2-.4-1.9-.3-1.9 2.1-.3 1.4.9 3.3 1.4 4.1 1.1 2.1-.8 2.1-5.4.1-5.4-.8 0-1.5-.3-1.5-.8 0-1 3.8-4.2 4.9-4.2.5 0 1.6-.6 2.3-1.3s2.6-1.8 4.1-2.5c2.3-1 2.7-1 2.1 0-1 1.5-1.3 8.8-.4 8.8.3 0 5.4-3.6 11.3-8.1 7.1-5.4 10.7-8.7 10.7-10 0-1.7.3-1.8 2.1-.8 1.2.6 1.7 1.4 1.3 1.8m16.3 69.1c.4 0 1.5-.7 2.5-1.7 1-.9 2-1.4 2.2-1.2s-2.1 2.7-5 5.5c-3 2.9-5.4 5-5.4 4.7s-1.8 1.8-3.9 4.5c-4.8 6-9.1 9.2-12.4 9.2s-11.7 5.8-14.4 10.1c-1.2 1.9-3.1 4.6-4.3 6.1-2 2.6-2 2.8-.3 2.9 1.4 0 1.4.2.3.6-12.2 4.2-20 7.7-20.1 9.2q0 1.5-.6.3c-.2-.6-.9-1.2-1.5-1.2-2 0-13.8 6-13.8 7 0 .5 1.2 1.6 2.8 2.4 1.5.8 2 1.5 1.2 1.5s-2.4-.6-3.4-1.4c-1.7-1.3-2.1-1.2-3.3.3-1.3 1.5-1.3 1.5-.8-.6.4-1.5.1-3-.8-4-1.4-1.6-1.2-1.7 2.9-1.9 2.5-.1 5.6-.8 6.9-1.7s3-1.6 3.8-1.6c.7 0 2.1-.6 3.1-1.3 1.7-1.2 1.7-1.5 0-5-1-2-2.1-3.7-2.6-3.7-.4 0-.8-.7-.8-1.6 0-1.8 2-1.4 3.2.7.4.8 1.4 3.1 2.2 5.1 1.5 3.7 1.5 3.7 4.3 2.3 1.5-.8 3.5-1.5 4.3-1.5s2.8-.9 4.4-1.9l2.8-1.9-2.3-1.5c-4.3-2.9-10.2-4.9-14.6-5-4.5-.2-6.4-2.7-2-2.7 2.3 0 6.9-4.1 8-7 .4-1.1.6-.9.6.5.1 1.2-.4 2.6-1.1 3.3-1.6 1.6-.3 2.7 1.9 1.6 2.7-1.3 15.3-1.1 15.3.2 0 .6-1.1 2.8-2.5 4.8-3.5 5.2-1.2 4.4 3-1 3.5-4.7 4.4-7.7 2.5-8.9-2.4-1.5.4-3.1 5.3-3.2 2.9 0 6.4-.5 7.9-1.1l2.8-1.1-.3-9.5c-.3-8.4-.1-9.2 1-6.5.7 1.6 1.4 3.7 1.5 4.7.2.9 1.4 2.2 2.8 2.9l2.5 1.2-2.7.1c-2.4 0-2.8.4-2.8 3s.3 2.9 1.8 2.1c1.8-1 5.9-4.9 12.5-11.9 2-2.2 3.8-5.1 3.8-6.4.1-1.7.3-1.8.6-.6.2 1 .7 1.8 1 1.8m-67.4 10.1c1.8.1 1.6.3-.8 1.1-1.6.5-3.7 1-4.5 1.1-1.4.2-5.9 2.5-13.3 6.6-1.8 1-6.9 3.7-11.4 6-4.6 2.4-8.3 4.9-8.3 5.7s-.4 1.4-1 1.4c-.5 0-1-.4-1-.8 0-.5-7.1-1.2-15.7-1.5-8.7-.4-24.3-1.2-34.7-1.9-14.7-.9-19.1-.9-19.4 0-.5 1.7-2.2 1.5-2.2-.3 0-.8-.6-1.5-1.2-1.6-.7 0-.4-.4.7-.9 1.1-.4 2.4-.4 3 .1.5.5 4.5.9 9 .9 4.4 0 12.3.5 17.5 1s17.2 1.2 26.5 1.6l17 .6 12-6.5c6.6-3.6 13.9-7.6 16.2-8.9 2.5-1.3 4.1-2.8 3.8-3.6-.2-.7.4-1.2 1.5-1.2 1 0 2.2-.6 2.7-1.3.5-.9.8-.7 1.1.5.2 1 1.3 1.8 2.5 1.9m68.7 11.5c-.6 1.6-1.2 3.1-1.2 3.4s-1.8 1.5-3.9 2.8c-2.2 1.3-3.9 2.9-3.9 3.6 0 1.6-16.5 17.6-18 17.6-.7 0-1.7.6-2.5 1.2-.7.7-4.9 4.2-9.3 7.8-5.2 4.1-7.5 6.6-6.5 6.8 1 .3.7.8-1.2 1.8-2.5 1.3-3.5 1.1-10.7-1.3-4.4-1.5-7.6-2.9-7.1-3 .5-.2 3.5.6 6.7 1.7l5.8 2 6.5-4.8c9.9-7.2 16.3-12.3 26.7-21.2 5.4-4.6 8.6-8.6 8.6-10.5 0-1.1-1.8-.4-3.8 1.5-1.2 1.2-2.2 1.8-2.2 1.5s-1 .3-2.2 1.5c-1.2 1.1-2.4 1.8-2.6 1.5-.8-.7 3.8-4.2 9.5-7.2 2.9-1.5 5.3-3.4 5.3-4.1 0-.6.7-1.2 1.5-1.2s2.2-1.1 3.2-2.4c2.3-3 2.7-2.7 1.3 1m370.3 40.6c-.9 5.1-3.2 10-4.2 9.3-.6-.3-3.5 1.1-6.6 3-3 2-9.2 5.5-13.6 7.8-13 6.7-13.1 6.8-12.5 8.3 1.5 3.7 1.7 4.9.5 2.9-.6-1.1-1.4-2.2-1.6-2.5-.5-.6-4.3 4-9.4 11.3-4.5 6.4-6.3 12.5-7.4 23.9-.9 10.3-2.6 15.9-2.1 6.8.2-3.6.9-10.6 1.5-15.6 1-8.6.9-9.6-1.4-16.5-1.4-4-2.3-7.5-2-7.7.2-.3.8.4 1.1 1.4 2.7 7.4 4.3 10.8 5 11.1 1.1.3 12.4-16.7 12.4-18.6 0-.8-1.2-3-2.7-5l-2.6-3.6 2.6 2.4c1.9 1.7 2.7 2 2.7 1 0-.8 1 .1 2.1 1.8 2.2 3.5 2.9 3.9 4.5 2.4.5-.5 4-2.6 7.7-4.5 3.7-2 8.7-4.9 11-6.4s5.4-3.2 6.9-3.9c1.8-.8 3.7-3.1 5.4-6.7 1.5-3.1 2.8-5.6 3-5.6s.1 1.5-.3 3.2m-169.7 90.5c-.1 1.6 1 1.8 12.4 1.6 10.7-.2 11.7-.1 7.1.8-3 .5-5.6 1.1-5.7 1.2-.2.2 6.3 1.1 14.4 2s21 2.5 28.6 3.5c15.4 2.1 18.2 1.9 18.9-.9.6-2.3 3.5-2.5 4.3-.4.6 1.4.8 1.3 1.9-.2s1.6-1.6 3.9-.4c2.2 1.2 3.3 1.2 8.3-.4 3.2-.9 7.7-1.9 10-2.1 2.3-.3 6.1-1.1 8.4-1.9s4.4-1.5 4.8-1.5c1.4.1-4.7 2.8-7.9 3.5-7.3 1.5-7.5 2.3-2.3 6.1 2.6 1.9 5.6 3.7 6.5 4 1.4.5 1.5 1 .6 3-.6 1.3-1.6 2.4-2.2 2.4s-2.8 1.1-4.8 2.5c-2.1 1.4-4.1 2.4-4.5 2.3s-6.4 1.6-13.3 3.9l-12.5 4.1-7.5-1.3c-16.9-3-23.9-4.5-31-6.5-10.3-3-11.7-3-14.8-.7l-2.7 2.1 2.3-2.5c1.2-1.4 2.2-2.9 2.2-3.5 0-.5-3.7-2.9-8.3-5.3-4.5-2.4-11.3-6.4-15.1-8.9l-6.8-4.5 2.3-1.8c1.3-1 2.5-1.9 2.5-1.9.1 0 .1.8 0 1.7m94.1 66.3c-11.3 11.1-21.1 21.3-21.8 22.8-1.5 2.8-5.9 4-5.9 1.6 0-1.4-12.5-11-18.8-14.6-2-1.1-5.5-3.3-7.6-4.9-2.2-1.6-4.4-2.9-4.9-2.9s-1.6-.9-2.5-1.9c-1-1.1-7.2-4.3-14-7.2-6.7-2.8-12.1-5.3-11.9-5.5s5.9 1.9 12.7 4.7c9.3 3.8 12.5 4.7 13.1 3.7.6-.9 1-.8 1.5.5.5 1.5 2.4 1.7 17 1.7 16.3 0 16.4 0 16.5-2.3.2-2.2.2-2.2.6.2l.5 2.3 11.6-.7c11-.7 16.1-2.1 14.4-4-.4-.5-.1-.5.6-.1 1.6 1 4.1-.7 12.2-8.2 3.6-3.3 6.7-5.9 6.9-5.7.2.3-8.9 9.5-20.2 20.5m293.5 77.5c1.1 1.4 2.3 2.3 2.8 2 .8-.5 2.4 3 3.4 7.5.4 1.5-.2.8-1.3-1.5-2.3-4.6-2.6-4-.9 1.9 1.1 3.9 3.3 7.8 2.6 4.6-.2-.9.4-1.4 1.4-1.4 1 .1 1.5-.2 1.2-.7s.5-4 1.7-7.9c1.8-5.4 2.7-7 4.2-7 1.4 0 1.7.5 1.2 1.7-3.1 7.8-6.3 17.4-6.9 20.4-.6 3.1-.9 3.6-3 3.2s-3-2.2-6.5-12c-2.3-6.3-4.1-11.9-4.1-12.4 0-1.7 2.2-.9 4.2 1.6m21.7 6.5c.4 0 1.2-.5 1.8-1.1 1.4-1.4 6.7-.3 8.4 1.7.6.8 1.6 1.4 2.2 1.4s1.8.7 2.8 1.6c1.6 1.4 1.8 1.4 2.9-.5 1.5-2.9 6.7-5.4 9.6-4.7 1.3.4 4.4 1.9 6.9 3.4 5.9 3.5 7.6 8.1 5 13.5-.9 1.9-2.4 3.8-3.3 4.2-1.1.4-.8-.3.8-2 3.1-3.3 3.3-9.4.6-12.4-1.1-1.2-2.1-1.9-2.4-1.6s.2 1.3 1 2.2c.9 1 1.8 2.9 2.1 4.3.6 2.3.5 2.2-.5-.3-1.4-3.1-2.8-3.6-2.8-.8 0 1.1-1.1 3.3-2.4 4.8-1.9 2.1-2.7 2.5-3.6 1.6-1-.9-.7-1.4.9-2.5 2.9-1.8 3-7.8.2-7.8-2.2 0-5.1 3.5-5.1 6 .1 2.3 4.7 7 6.9 7 1.1 0 2.9-1.2 4-2.6 1.2-1.5 2.1-2.3 2.1-1.8 0 1.6-4.4 5.4-6.2 5.4-1.1 0-2.9-.5-4.1-1.2-2.1-1.1-2.1-1-.7.7 1.3 1.7 1.3 1.8 0 1-.8-.4-3.4-2.3-5.7-4.2-5.1-4.1-9-4.3-11.6-.7-2.5 3.4-1.4 4.2 2.8 1.9 2-1 3.8-1.5 4.2-1.2.7.8-2.6 4.7-4 4.7-.5 0 .1-.9 1.4-2 2.9-2.3 1.8-2.6-1.6-.4-1.6 1-3.4 1.4-5.1 1-1.8-.5-2.4-.3-1.8.5.9 1.5-.7.6-5.4-2.9-2.2-1.7-3.1-3-2.7-4.1.3-.8.3-1.2-.1-.9-.3.4-1.2.2-1.8-.5-1.3-1.3-2.8-6-1.7-5.3.3.2 1.5-1.6 2.6-4.1 1.2-2.6 2.1-3.8 2.3-2.9s.7 1.6 1.1 1.6"/><path d="M787.6 92.6c-.3.9-.3 2.1.1 2.6.4.7.1.8-.6.4-.7-.5-1-1.4-.7-2.2s.2-1.4-.2-1.4c-1.3.1-19.6 5.8-32.4 10.1-14.2 4.9-14.1 4.8-11.4 13.1.7 2.4 2.1 7.6 3.1 11.6 1.9 8.2 4.1 14.2 5.3 14.1.9 0 8-9 11.4-14.4 2.3-3.7 8-11.6 18.1-25.3 2.2-2.9 4.3-5.2 4.8-5.2.7 0-1.6 3.6-7.6 11.8-1.1 1.5-6.2 8.8-11.4 16.2s-10.3 14.5-11.4 15.7c-1.1 1.3-1.8 2.5-1.5 2.8s7.6-2.2 16.4-5.6c8.7-3.3 19.1-7.2 22.9-8.5 11.2-4 11.2-3.8 8-12.9-3.1-9-8.7-20.8-10.8-23-1.3-1.3-1.6-1.3-2.1.1M793.5 93.2c.4 1.3 2 5.2 3.5 8.8s3.1 7.6 3.5 9 1.9 4.9 3.3 7.9l2.6 5.4 22-.7c12.2-.4 22.5-1.1 23-1.6s-3-2.8-8-5.3c-4.9-2.4-12.3-6.2-16.5-8.5-4.1-2.2-12.7-6.6-19-9.7s-12.2-6.1-13.2-6.6c-1.6-.9-1.8-.7-1.2 1.3M779 135.9c-8.3 3.3-9.5 4-9.2 5.9.2 1.6-.2 2.2-1.6 2.2-2.8 0-3.4-1.1-1.4-2.7.9-.8-.5-.3-3.2 1.2s-4.6 2.2-4.2 1.6c.5-.8 0-.8-1.8.1-3.6 1.6-3.2 3.5.7 2.9.4 0 .7.3.7.9s1.1 1 2.4 1c1.4 0 3.1.7 4 1.5 1.5 1.5 6.6 2.1 6.6.7 0-1.1 11.3-1 12.5.2.6.6 1.7 3 2.4 5.3 1.6 4.8 2.1 5.1 7.6 4.2 2.2-.3 3.2-.7 2.1-.8-1.7-.1-1.8-.7-1.2-6.9.3-3.7.3-7.2-.1-7.9-.5-.7-4.6-1.2-10.5-1.5-8.8-.3-9.8-.5-9.8-2.2 0-1.2-.5-1.6-1.6-1.2-.9.3-1.2.2-.9-.5.4-.5 1.7-.9 3-.7 1.2.1 2.8-.2 3.6-.8 2.1-1.7 4.9-2.4 4.9-1.4 0 1.5 5 .7 6.3-.9.9-1.1.9-1.3 0-.8-1.7 1-2.8-1.3-1.2-2.4 2.8-1.8-.8-.7-10.1 3M744.4 155.7c-1.6 2.9-2.7 6.1-2.7 8.1.1 2.9-.3 3.5-2.8 4.4-1.6.5-2.9 1.5-2.9 2 0 .6-2 4.5-4.4 8.7-10.2 17.7-16.7 31.1-15.4 31.6 1.6.5 14.5 2.1 24.6 3l7.2.7v-22.4c0-15.6-.3-22.7-1.2-23.6-.8-.8-.8-1.5 0-2.5 1.2-1.4 1.9-13.3 1-14.3-.3-.3-1.8 1.7-3.4 4.3M758.7 170.8c-1.4 1.3-2.2 1.4-4.6.5l-2.9-1.1-.7 9.2c-.3 5-.5 13.8-.3 19.6.2 8.8.6 10.5 2 10.8.9.2 1.9-.5 2.3-1.7.3-1.2 1.1-2.1 1.6-2.1.6 0 2.6-1.1 4.6-2.5 2-1.3 4-2.2 4.5-1.9.4.3.8 0 .8-.5 0-.6.6-1.1 1.4-1.1s2.2-1 3-2.2c.9-1.2 1.6-1.8 1.7-1.3 0 .6.9-.9 1.9-3.3 2.2-4.9 1.7-6.7-3.2-11-1.6-1.3-2.8-3.1-2.8-3.9s-1.7-3.3-3.8-5.4c-3.6-3.6-4-3.7-5.5-2.1M920 171.4c0 .9-.4 1.5-.9 1.2-.5-.4-1.2 0-1.4.6-.4 1-.8 1-1.5-.1-.8-1.1-1.2-1-2.1.7-.7 1.3-.7 2.2-.1 2.4s1.3 3 1.6 6.2c.3 3.3.8 6.4 1 6.8.9 1.4 2.4.9 1.8-.6-.8-2 .6-2.4 4.3-1.4 2.1.5 3.3 1.6 3.7 3.1.3 1.2.3-.3.1-3.3-.3-3-.5-7.5-.6-10s-.3-3.7-.6-2.7c-.4 1.6-.8 1.4-2.9-1.4-1.7-2.4-2.4-2.8-2.4-1.5M800 185.4c0 .9-.8 1.7-1.7 1.8-1 0-2.3.2-2.9.2-.6.1-1.9.9-2.8 1.9-1 .9-2.2 1.8-2.7 1.8-.5.1-1.3.3-1.9.4-.5.1-1.7.3-2.5.4-2.5.2-1.8 2.6 4 13.2 6.9 12.6 8 13.8 9.6 10.7.7-1.3 1.3-3.2 1.5-4.4.1-1.1 1.6-5.5 3.3-9.8 3.1-7.7 3.9-12.6 2.2-12.6-.5 0-1.1-1-1.4-2.2-.4-1.2-.9-1.9-1.3-1.5s-1.3.2-2.1-.4c-1-.9-1.3-.8-1.3.5M963.6 188c-1.4 2.2-2.6 4.2-2.6 4.5s-.8 1.8-1.9 3.3c-1 1.5-5.3 7.9-9.4 14.2-4.2 6.3-9.2 13.7-11.1 16.5-4.7 6.7-4.7 8.5.2 8.6 5.4 0 15.6.9 23.7 1.9 3.8.5 7.4.5 7.8.1.9-.9.7-5.9-1.2-25.1-.6-6.3-1.4-15.1-1.6-19.4-.3-4.4-.7-8.1-.9-8.3s-1.5 1.5-3 3.7M780.2 197.2c.2.7-.7 1.4-1.9 1.6-1.3.2-2.3.7-2.3 1.2s-1.3 1.1-3 1.5c-1.6.4-3 1.1-3 1.6s-.6.9-1.3.9-1.8.9-2.4 1.9c-.7 1.1-2.8 2.5-4.8 3.2-1.9.7-3.5 1.6-3.5 2s-.9.9-2 1.2c-5.5 1.4.3 3.7 10.7 4.2 2.8.2 5.5.5 6 .8.7.4 6.4 1.7 14.1 3.2 2.6.5 6.2-1.3 6.2-3.2 0-.6-2.5-5.5-5.6-10.7-5.3-9.1-7.8-12.4-7.2-9.4M911.7 202.2c-2.4 2.7-3.7 5.1-3.7 7 0 1.5-.4 2.8-1 2.8-.5 0-.7-.8-.4-1.8.5-1.4.4-1.4-.7.2-.9 1.5-.9 2 .5 2.8.9.5 2.5 1.8 3.5 3 1.1 1.1 2.4 1.7 3 1.4.7-.5.8-.1.4 1-.5 1.3-.3 1.6 1 1.1 1-.4 1.6-.2 1.4.5-.1.6.9 1.5 2.3 1.9s2.1.8 1.5.8c-1.1.2 8.5 9.1 9.8 9.1.4 0 .5-1.7.1-3.7-.9-4.8-1.1-6.9-1.2-17.6-.2-7-.5-8.7-1.7-8.7-.8 0-1.5.4-1.5 1 0 .5-.4 1-1 1-.5 0-1-1.1-1-2.4 0-1.8-.7-2.5-3.1-3-1.7-.3-3.4-.6-3.8-.6s-2.3 1.9-4.4 4.2M714.9 212.2c-.1.7 0 1.7.1 2.3.1.5.3 2.1.6 3.5 1.6 9.8 2.6 13.9 5.3 22.6 1.7 5.4 5.3 18.4 8.2 28.9 2.8 10.4 5.5 20 6 21.2.9 2.5 3.5 2.2 4.3-.5.3-1 .4-.6.2.8s-.7 3.3-1.1 4.3c-.9 2.2 8.6-2.3 23.5-11.3 13.7-8.2 19.7-11.4 27.1-14.4 3.6-1.5 7.9-3.8 9.4-5l2.9-2.3L782 256c-17.9-5.8-19.5-6.2-20.5-4.6-.5 1-2.7 4.5-4.8 7.7-2.1 3.3-5.9 10.9-8.6 17s-5.4 11.6-6 12.2c-2.2 2.1 2.8-9.2 10.7-24.5l7.6-14.8-1.6-4.7c-4.7-13.9-8.7-23.6-9.1-22.3-.3.8-.8 2.2-1 3-.3.8-.6-.8-.6-3.7-.1-4-.5-5.3-1.8-5.7-1-.3-8-1.2-15.5-2-7.6-.8-14.2-1.7-14.8-2.1-.5-.3-1.1 0-1.1.7M901.3 216c-.8 1.1-1.9 1.7-2.8 1.4-.8-.4-1.5-.1-1.5.7 0 .7-.3 1-.6.6-.7-.7-6.4 5-6.4 6.5 0 .6-.6.5-1.7-.3-1.1-1-1.4-1-.9-.2.4.7.2 1.3-.3 1.3-1.4 0-5.1 3.7-5.1 5 0 .5 1.7 1 3.8 1.1 2 0 11.8.6 21.7 1.3s18.2 1.2 18.4 1c.3-.3-.8-1.8-2.4-3.4s-3.1-2.8-3.3-2.5c-.3.2-1.2 0-2.2-.5-1.3-.7-2-.4-3 1.4-.9 1.8-2 2.3-5.1 2.3-3.6 0-3.9-.2-3.9-2.8 0-2.5.4-2.9 2.9-2.9 4.5 0 4.7-2.7.5-6.6-1.9-1.9-4.1-3.4-4.9-3.4-.7 0-1.5-.5-1.7-1-.2-.6-.9-.1-1.5 1"/><path d="M752.5 220.2c.8 4.1 5.3 16.3 7.5 20.4 1.4 2.8 1.8 3 2.8 1.5s1.1-1.5 1.1.1c.2 3.2 2 2.9 7.3-1.3 2.9-2.2 7.4-5.7 10.1-7.6 3.8-2.8 4.7-4.1 4.7-6.5 0-1.7.4-2.7 1-2.3.6.3 1 .2 1-.4 0-.5-2.1-1.3-4.7-1.6-2.7-.4-10.4-1.7-17.2-3.1-6.8-1.3-12.8-2.4-13.3-2.4s-.7 1.5-.3 3.2M789.3 232c-1.3.5-2.3 1.4-2.3 1.9s-1.2 1.2-2.7 1.6c-3.5.8-18.6 12.2-17.3 13 1.8 1.1 21.3 7.6 25.5 8.4 2.2.5 4.9 1.2 6 1.6 1.2.4 1.5.3.8-.2s-1.2-2.4-1.2-4.3c-.1-12.8-2.4-20-6.6-20-2-.1-2-.1-.1-1.5 2.2-1.7 1.3-1.8-2.1-.5M823.5 235.1c-.6.8-.4 1 .5.4 1-.6 1.2-.4.7.8-.3 1-.2 1.7.4 1.7s.9.6.7 1.2c-.5 1.5-2.1-.6 16.4 21.6 8.4 10 16.8 20.1 18.6 22.5 5.1 6.6 5.4 6.9 6.2 6 .4-.4 1.2-4.9 1.9-9.8 3.9-31.2 5.2-43.7 4.6-44.3-.4-.4-11.6-.8-25-1-18.4-.3-24.5-.1-25 .9M878.6 234.8c-.9.2-1.4.7-1.1 1.1.2.5 2 6.9 3.9 14.2 5.3 20.7 10.3 38.3 14.3 51.1 3.5 11 5 14 5 10.2 0-1.7 6.5-15.6 7-15 .2.2-1 3.5-2.7 7.4-1.6 3.9-2.7 7.8-2.4 8.6.3.9.2 1.6-.4 1.6-2.5 0-5.1 15.9-5.2 31.3v6.8l2.8-.3c2.7-.3 2.7-.3 2.6-7.8-.1-7 0-7.3 1.2-4.5.7 1.6 1.3 4.1 1.4 5.5.1 2.4.1 2.4 1.5.5.8-1.1 2-2.7 2.7-3.4.7-.8 3-3.7 5.1-6.5 3.3-4.5 3.6-5.2 2.3-7-.7-1.2-2.3-2.6-3.5-3.2s-2.5-1.4-2.8-1.8c-1.1-1.1 2.9.5 5.2 2.1 3.8 2.6 5.2 1.6 9.6-6.7 2.3-4.5 4.3-7.9 4.5-7.7s-.8 3.4-2.2 7.2c-1.3 3.8-1.9 6.4-1.2 5.7.6-.6 1.8-1.2 2.6-1.2.7 0 8.2-3.4 16.7-7.6l15.3-7.5-9.6-5.1c-5.4-2.8-10.1-5.4-10.6-5.9-1.7-1.6-2.5-1-4.6 3.2-1.2 2.3-2.4 3.9-2.6 3.6-.3-.3.2-1.9 1-3.6 1.9-3.6 2-5.4.4-4.6-.7.4-.4-.2.8-1.2 1.6-1.4 1.9-2.4 1.3-4.1-.5-1.2-1.6-9.1-2.4-17.5-2.5-24.5-3.5-31.2-4.4-31.5-.5-.2-.7-1.1-.4-2.2.4-1.6-.3-1.9-5.9-2.4-8.5-.8-43.1-2.2-45.2-1.8"/><path d="M932.7 237.7c-.8 1.3.8 18.7 2.7 28.8.9 4.4 1.5 9.6 1.6 11.5 0 4.6 1.8 11 3.1 11 .5 0 2.7-2.7 4.7-6.1 2-3.3 4.7-7.5 5.9-9.2 1.2-1.8 3.4-5.2 4.8-7.7s3.3-5.9 4.3-7.5c.9-1.7 2.8-4.9 4.2-7.3 1.3-2.3 2.8-4.2 3.3-4.2 1.5 0 3.6-3.3 3.7-5.6 0-1.9-.7-2.2-8.2-2.8-19.6-1.5-29.6-1.8-30.1-.9M876.1 238.7c-.1.6-1 6.5-2 13s-2.4 17.9-3.1 25.3c-.6 7.4-1.4 14.2-1.6 15.1-.3 1 1.9 3.1 6.6 6.4 3.8 2.7 7 5 7 5.3 0 .4-2.2-.9-9-5.5-1.9-1.2-4.7-2.3-6.1-2.3-2.1 0-23.9 8.2-25.8 9.7-.9.7 4.9 5.8 14.7 13 5.7 4.1 10.1 7.8 9.8 8-.3.3-2.5-1-4.8-2.9-2.4-1.9-5.4-4.1-6.8-4.8s-2.7-1.6-3-1.9c-1.4-1.7-9.8-8.1-10.8-8.1-.6 0-1.8-.7-2.6-1.5-1.2-1.2-23.9-8.5-26.4-8.5-1.1 0 1.3 5.9 4 10.2 2.8 4.3 3.6 4.8 8.7 5.9 3.1.6 6.6 1.5 7.9 2 2.1.8 2.5.5 3.9-3.1 2.2-5.5 3.2-5 1.9 1l-1 5 3.7 3.1c2 1.7 3.5 3.4 3.2 3.8-.9 1.5 19.5 2.8 22.9 1.5 1.2-.5 1.6-2.1 1.6-6.7 0-7.3.7-7.1 1.5.3.4 3 .8 5.7 1.1 5.9.5.5 18.4-8.3 22.5-11.1 2.6-1.7 3.6-6.1 1.9-8.3-.4-.6-1-2.1-1.3-3.5-.6-3.2-5.1-19.9-7-26.5-4.5-15.5-8-28.5-8.8-32-.9-4.5-2.7-9.6-2.8-7.8M972.6 246c-.2.8-.7 3.7-1.1 6.5-.4 2.7-1.5 8.3-2.6 12.4-1 4.1-1.9 8.8-1.9 10.4 0 2.8.1 2.9 1.8 1.5.9-.9 4.6-3 8-4.8 3.5-1.8 6.6-3.9 6.9-4.6.5-1.5-6-16.8-8.7-20.4-1.4-1.9-2-2.2-2.4-1M964.5 254.2c-1.6 2.9-5.7 9.7-9.2 15-3.5 5.4-6.3 10-6.3 10.3 0 1-5.4 9-7 10.3-2.2 1.8 2.9-.1 10.5-4 10.9-5.5 12.5-6.7 12.5-9.8 0-1.6.7-6.4 1.6-10.7 2.2-10.9 2.8-16.3 1.7-16.3-.6 0-2.3 2.4-3.8 5.2M978.5 273.1c-11.6 6.1-13.6 8.3-9.2 10.5 1.2.6 4.2 2.2 6.7 3.4s5.6 3 7 4l2.5 1.8.3-8.7c.1-4.7-.1-9.8-.5-11.3l-.8-2.8zM774.9 278.8c-4.1 2.1-9.2 5-11.5 6.4-2.2 1.4-7.6 4.4-12 6.7-12.8 6.5-13 6.8-5.4 7.5 3.6.4 11.3.7 17.2.9 9.7.2 10.8 0 12.2-1.8.8-1.1 1.2-2.4.9-2.9-.4-.5-.1-.6.4-.3.6.4 2.2-1.6 3.6-4.3 2.2-4.3 2.4-4.9.8-4-1.7.9-1.8.5-1.6-3.8.2-3.2.8-4.8 1.8-5 1.6-.3 3.2-3.2 1.9-3.2-.5 0-4.2 1.7-8.3 3.8M952.5 287.7c-6 2.9-11.1 5.9-11.3 6.6-.3 1.5 18.1 11.3 19.5 10.4 1-.6 3.9-19.6 3.2-21.4-.2-.6-5.3 1.4-11.4 4.4"/><path d="M839.8 287.2c-.3 1.5-.1 3.2.3 4 .4.7.3 1.8-.3 2.5-1 1.3-.6 8.9.6 10 .4.5 15.1-5.4 22.4-9 3.2-1.5 1.3-3.1-8.3-6.7-8.2-3.1-12.4-3.1-12.6-.1-.1.9-.4.5-.8-.9l-.7-2.5zM964.6 295.1c-.9 5.6-1.4 10.4-1.2 10.7.7.6 10.6-2.4 17.2-5.3 3-1.3 5.1-2.9 5.1-3.8s-.4-1.4-.8-1.1c-.4.2-.9 0-1.1-.4-.8-2.3-14-10.2-16.8-10.2-.4 0-1.5 4.6-2.4 10.1M882.8 324.4c-5.3 2.8-10 5.4-10.4 5.8s.3 3 1.5 5.9c1.2 2.8 2 5.3 1.8 5.5-.2.3-1.2-1.4-2.1-3.6-3.1-7.9-4-8.3-16.3-7.7-5.9.4-10.9.6-11 .7 0 0 .4 1.1 1 2.4.7 1.3 1.5 2.2 1.9 2 .5-.3.8.1.8.9s3.2 4.3 7 7.7c5.7 5 7.3 6 8.4 5.1 1.2-1 1.3-.8.9.8s.2 2.2 2.8 2.9l3.4.8-2.7.7c-3.1.8-4.4 3.8-2.9 6.6.6 1.1 1.1 2.9 1.1 4 0 1.2.4 2.1.9 2.1 1.2 0 3.4 9.2 2.4 9.9-.5.3-1 1.7-1 3.1-.2 2.4-.1 2.4 1.2.6.8-1 1.4-3.9 1.4-6.5 0-5.8.8-9.5 2.1-9.9 1.1-.4 3.2-7.2 3.5-11.2.1-1.4-.5-4-1.2-5.9-2-4.7-.8-5 1.6-.4 2 3.7 2.1 3.7 2.7 1.3 1.1-3.8 12.1-25.7 13.3-26.5 1.7-1 1.3-2.5-.6-2.4-1 .1-6.2 2.4-11.5 5.3"/><path d="M895.4 324.8c-.9.6-5.3 9.4-7.4 14.7-.4 1.1-1.8 4.1-3 6.8-1.3 2.6-2 5-1.7 5.4.8.7 9.8.5 10.5-.2.3-.3.7-5.4.8-11.5.2-6 .8-11.9 1.4-13.1 1.3-2.3 1-3.2-.6-2.1M996.3 367.7c-.7 1.5-1.3 3.5-1.3 4.6s-1.1 2.2-2.7 2.8c-2.8.9-6.7 6.1-6.8 8.9 0 .8-.8 1.4-1.7 1.2-.9-.1-1.9.2-2.3.8-.3.5-1.8 1-3.3 1.1-2.3 0-2.4.1-.7.8 1.1.4 3.8.4 6-.1s5.7-1 7.8-1c3.7 0 4.9-.9 5.4-3.8.6-3.4 1.6-18 1.2-18-.2 0-1 1.2-1.6 2.7M875.6 377.2c-.8 3-2.7 11.5-3.1 14.3-.9 5.5-2.7 13-4.1 17.4-1.7 5.2-1.1 9.3 1.9 12.4 1.2 1.3 6.5 6.8 11.7 12.2 13.3 13.9 12.8 13.6 11.9 7-.4-3-.5-6.3-.2-7.3.2-1-.3-4.9-1.2-8.8-1.9-8-1.9-7.8-4-20.4-2.5-14.7-5.4-25.4-7.2-26.8-.9-.6-2.5-1.2-3.5-1.2s-2 .6-2.2 1.2M916.1 387.1c-2.3.9-2.4 1.2-1.7 8.2 1 11.6 3.1 20.3 4.7 19.8.8-.3 6.2-1.1 12.2-2 5.9-.8 10.7-1.8 10.7-2.1 0-1.3-10.1-15.8-13.5-19.6-1.9-2.1-3.5-4.3-3.5-4.8 0-.6-.4-.5-.8.2-.6.9-1.6 1-3.3.4-1.4-.6-3.4-.6-4.8-.1M984 389.7c-3.6.7-7.1 2.1-7.7 3-.7.9-1.3 1.2-1.3.5s-.5-1.2-1.1-1.2c-1.1 0-.6 4.2 1.1 9 .5 1.4 1.6 5.1 2.5 8.3l1.6 5.9 3.2-5.4c1.8-2.9 4.5-7.1 6-9.3s2.7-4.4 2.7-5c0-.5.9-2.1 2-3.5 3.5-4.5 2.4-4.8-9-2.3M969.2 399.6c.3 1.3 0 2.1-.8 2.1s-1.4-.4-1.4-.9c0-1.3-3.8-.9-6.9.6-1.5.8-4.2 3.1-5.9 5-1.7 2-3.7 3.6-4.3 3.6-1.9 0-.4 1 2.2 1.5 3.9.8 24 2.7 24.4 2.3.7-.9-3.9-12.5-5.8-14.2-2-2-2-2-1.5 0M815.5 414c-2.2.5-8.7 1.4-14.5 2-9.8 1.1-14.3 2.6-11.3 3.7.7.3 2.7 3.1 4.4 6.3s4.1 6.8 5.3 7.9l2.3 2.1 10-9.7c5.5-5.4 10.3-10.6 10.6-11.6.7-1.9-.2-2-6.8-.7M830.3 413.8c-1.2.8-3.4 14.3-5.3 33.7-.6 5.5-1.2 11.5-1.5 13.2-.4 3.4.6 4.2 2.5 2 .6-.6 2.7-3 4.6-5.2 3.3-3.7 21.3-25.9 28.4-34.9 4.7-6 5.1-5.7-11.8-8.1-12.7-1.7-15.2-1.8-16.9-.7M864.9 426c-.7 2.7-1.7 5-2.1 5-.5 0-.7.4-.4.9s-.5 4.8-1.9 9.5c-1.4 4.8-2.5 9.1-2.5 9.6 0 1.1 13.2 1.2 27.5.1l9-.6-9.6-10.5c-12-13.2-17.6-19-18.2-19-.3 0-1.1 2.2-1.8 5M385 98.3c-5.8 2.9-15.1 7.2-20.5 9.6-16.3 7.2-42.5 19.9-42.5 20.5 0 .4 2.4.4 5.3.2 2.8-.3 12.4-.8 21.2-1.1l16-.6 16.5-17c9.1-9.3 16.1-16.9 15.5-16.8-.5 0-5.7 2.4-11.5 5.2M403.8 94.2c.7.7 1.2 1.8 1.2 2.6s.6 2.8 1.4 4.5c1.9 4.2 4.6 12.4 4.6 14.1 0 .8.7 1.9 1.5 2.6.9.7 1.4 1.9 1.1 2.7-.3.7-.2 1.3.3 1.3.4 0 1.3 1 2 2.3s2.8 3.1 4.7 3.9c3.1 1.4 3.5 1.4 4.4-.1.8-1.4 1.1-1.4 2-.1.8 1.3 1 1.3 1-.1 0-.9 1-2.4 2.3-3.3 1.2-.8 1.5-1.4.7-1.2-.8.1-1.2.1-.7-.1.4-.3.7-1.2.8-2.1 0-1.1.2-1.3.6-.4.4 1 .8 1 1.9.1.8-.6 1.1-1.5.8-2s.1-.9.9-.9c1.6 0 3.1-2.6 1.9-3.3-.4-.2-.2-.2.5-.1 1.2.3 9.1-8.3 8.2-8.9-2.8-1.8-5.7-2.8-30.3-9.6-12.1-3.4-13.6-3.7-11.8-1.9M338 130c-17.3.9-16.3.8-15.5 2 .3.5 0 1-.8 1-1.2 0-1.3.4-.4 2.4.8 1.7 1.4 2.1 2 1.3q.9-1.2.3.6c-.3.9.6 4.3 2.1 7.5 1.4 3.1 3 6.7 3.6 7.9.5 1.2 1.5 1.9 2.2 1.7 1.6-.6 4.5 3.9 4.5 6.9 0 2.8.9 3.9 2.4 3 .6-.4 1.7-.8 2.4-.9 1-.2 1 .1.2 1.1-.6.7-.7 1.6-.2 1.9 1.2.7 3.4-6.8 2.5-9-.5-1.4-.2-1.6 1.5-1.2 2.3.6 3.5-1.2 2.5-3.9-.4-1-.2-1.4.5-.9 1.7 1 2.3-1 .7-2.4-1.9-1.6-1.9-5-.1-5 .8 0 1.8-.9 2.1-2 .7-2.3-.2-6-1.6-6-1.9 0-.8-2.7 1.7-4 2.2-1.3 3-1.2 5.5.2 2.8 1.7 2.9 1.7 1.9-.2-.8-1.6-.8-2 .4-2 .8 0 1.6.5 1.8 1.2.3.7.7.6 1.1-.5.7-1.9 2.1-1.9-23.3-.7M310.5 142.3c-3.3 4.5-6.8 9.8-7.8 11.7-1.1 1.9-3.4 5.7-5.2 8.5-7.2 11.2-11.9 22.1-8.5 20 1.6-1 2.4 4.3.9 6.1-1.2 1.4-1.5 1.4-3.1-.6s-1.9-2-3.4-.6c-.8.9-4.6 6.9-8.4 13.3l-6.8 11.8 2 4c1.1 2.2 4 6.6 6.4 9.8l4.4 5.9 1-2.7c.5-1.4 1-3.1 1-3.7 0-1.5 9.9-31 11.1-33.2.6-1.1 2.2-5.6 3.4-10 4.6-16 12.5-36.7 15-39.2 2-2.1 1.9-.9-.4 3.5-3 5.4-7.8 18.1-11.6 30.5-1.9 6.1-5.9 18.1-8.8 26.6-3 8.5-5.7 17.4-6.1 19.8l-.6 4.4 4.9-4.2c2.8-2.3 7.2-6.8 9.9-9.9 2.8-3.1 11.6-12.3 19.6-20.4 8-8.2 14.6-15.5 14.6-16.3s.5-1.4 1-1.4c2.4 0 .7-6.8-3.8-14.5-.6-1.1-3.3-6.7-6-12.5s-5.7-11.5-6.8-12.7l-1.9-2.1zM333.1 183.2c-4.7 5.1-7.1 7.9-9.7 11.3-1.5 2-3.9 4.2-5.4 5-2.7 1.4-32.2 30.7-32.9 32.7-.3.8 2.2.9 8.5.4 4.9-.3 13.1-.7 18.3-.7 13.6-.2 14.1-.4 15.8-6.9 3.9-15.1 9-44 7.9-44-.2 0-1.3 1-2.5 2.2M424 210.6c-8 .7-16.1 1.5-18 1.8s-3.6.5-3.8.6c-.2 0 0 .4.3 1 .7 1.1 1.2 20 1.6 53.7.2 18.7.5 23 1.5 22.2.7-.6 1.6-2 1.9-3 .4-1.1 2.3-4.8 4.2-8.2 13.4-23.5 36.5-68.2 35.6-69-.8-.9-5.6-.7-23.3.9M399 230.2c0 1-.6 1.5-1.2 1.3-1-.4-1.2 1-1 5.5.3 4.2 0 6-.8 6-.7 0-1 .7-.6 1.5.3 1 .1 1.5-.7 1.4-1.8-.3-5 1.2-6.4 3-1 1.4-1.3 1.2-2.4-1.4-.9-2.3-1.3-2.6-1.6-1.3-.3 1 1.5 5.7 3.8 10.5 2.3 4.9 5.7 12.2 7.6 16.3 6.9 15.3 6.3 16.5 6-13.5-.2-18.3-.7-27.6-1.5-29-1-1.7-1.1-1.8-1.2-.3M324.3 241.2c-1 1.8-2.5 4.9-3.3 6.8-.7 1.9-3.3 7.5-5.7 12.3-2.5 4.8-4.3 9.4-4.1 10.1.2.9 2.7-.2 7.8-3.5 12.3-8 12-7.6 11.6-12.1-.7-6.5-2.9-16.8-3.7-16.8-.4 0-1.6 1.5-2.6 3.2M318.9 244.1c-.6 1.3-3.9 5.5-7.3 9.5-10.7 12.6-26.1 32.4-25.1 32.4s18.1-10.4 20.3-12.3c1.2-1.2 2.6-3.4 3.1-5.1s3.2-8.2 6-14.5 4.9-11.6 4.7-11.8c-.2-.3-1 .6-1.7 1.8M370 248.6c-3.6 1.4-7.2 2.6-8 2.7-.8.2-5 1.6-9.2 3.1-6.4 2.4-7.8 3.3-7.8 5 0 3.4 1.4 4.8 4.1 4.1 1.8-.4 2.7 0 3.7 1.6.8 1.1.9 1.8.3 1.4-.6-.3-1.1-.3-1.1.2.1.4 2.2 1.8 4.8 3s8.5 4.1 13.2 6.4 9.7 4.1 11.3 4.1c1.7 0 2.7.5 2.7 1.4 0 .8.5 1.2 1 .9.6-.3 1-.2 1 .3s.9.8 2 .8c1-.1 1.9.3 1.9.9-.1 1.4 3.2 2.4 5.9 1.8 2.3-.5 3.1 1.2 1 2-1 .4-1 .6-.1.6 2.1.2 2.5-1.8.9-4.6-.8-1.6-2.2-4.8-3.1-7.3-2.5-6.8-12.7-27-13.7-27-.4 0-.8-.9-.8-2 0-2.6-1.8-2.5-10 .6M324 266c-2.5 1.6-6.2 3.9-8.3 5-5.7 3.1-5.7 4.5-.1 9.5 3.9 3.5 5.5 4.4 7.7 4 1.6-.2 3-.5 3.1-.7.2-.3 2-8.7 3.6-17.1.9-4.5.1-4.6-6-.7M307.2 280.2c-2 4-6 19.3-5.1 19.6.9.4 18.9-7.5 20.3-8.9.6-.5-.2-1.8-2-3.1-1.6-1.3-4.8-4-7-6-2.3-2.1-4.3-3.8-4.6-3.8s-1 1-1.6 2.2M228.7 291.9c-.6 9.4-.2 12.5 1.4 11.5.5-.3.9-.1.9.5 0 .5-.4 1.3-1 1.6-1.4.8-1.3 2.8.1 2.3.6-.2 3.7 2.2 6.8 5.3s6.6 6.1 7.8 6.7c2.1 1.1 2.1 1.1.7-3.3-.7-2.5-2.2-6.5-3.2-8.9-1.1-2.4-2.3-6.2-2.7-8.5-.8-4.6-1.2-4.9-3.1-2.4-1.2 1.6-1.3 1.5-.4-1 .8-2.4.6-3.3-1-5.5-1.2-1.5-2.9-3.8-3.9-5.1-1.8-2.4-1.8-2.4-2.4 6.8M383.9 296.4c-.3.3-17.8 1.4-24.8 1.6-1.2 0-1.1.3.1 1.7.9 1 2.5 3.7 3.7 6 2 4.1 15.6 27.2 16.5 28 .2.2 3.4-4.7 7.1-10.9s8.2-13.3 9.9-15.8c2.8-4 5.6-9.2 5.6-10.5 0-.6-17.5-.7-18.1-.1M403.6 297.6c-.3.9-3 5.3-6 9.8-2.9 4.4-6.4 10.1-7.8 12.6s-3.9 7.1-5.7 10.2l-3.2 5.6 5.3 1.1c2.9.5 8.7 1.5 12.8 2.1s8.8 1.4 10.4 1.7c2.6.5 2.8.3 2.2-2.3-1.3-7.1-1.6-10.5-.6-9.9.5.3 1 1.4 1 2.3s.6 3.3 1.3 5.3l1.3 3.7 14.9-6.8c18-8.1 20.5-9.3 20.5-10s-11.9-8-21.5-13.1c-4.4-2.3-11.4-6.2-15.5-8.7s-7.8-4.6-8.1-4.8c-.4-.2-1 .3-1.3 1.2M240.4 298.6c.4 1.1 1.6 4.4 2.6 7.4s3.2 8.2 4.9 11.5c2.7 5.3 3.1 5.7 3.7 3.7.4-1.4 1.2-2.1 2-1.8s1.3.2 1.2-.2c-.2-.4.5-1.9 1.5-3.3s1.5-3.2 1.1-4c-.6-1.5-14.9-14.2-16.6-14.8-.7-.2-.9.3-.4 1.5M264.1 318.4c1.1 2 2.5 3.4 2.9 3.1 1-.6 2.2 2.4 1.4 3.6-.3.5.2 1.2 1 1.5.9.3 1.6 1.4 1.6 2.3s.6 2.3 1.3 3c.9 1.1.9 1.2 0 .7s-1.1-.2-.7.8c.3.8 1.2 1.2 2 .9 1-.4 1.7.2 2.1 1.6.5 2 .8 1.8 3.1-2.1 2.2-3.6 5-13.9 3.4-12.3-.3.3-1.3-.2-2.3-1.1-1.1-1-1.9-1.2-2.3-.5-.4.6.2 1.6 1.4 2.3 1.1.7 2 1.6 2 2 0 1.2-7.1-2.2-10.9-5.2-2-1.5-4.6-3.1-5.9-3.5l-2.2-.6zM433.2 333.6c-17 8.3-17.2 8.4-15.3 10.3 1.1 1.1 3.5 2.8 5.3 3.7s7.7 5.1 13.1 9.2c10.7 8.3 11.7 8.3 11.7 1 0-3.1-.3-3.6-1.7-3.1-1.1.4-1.4.3-.9-.5.4-.7 1.3-1.2 2-1.2s1.3-.6 1.3-1.3c.1-.6.6-6.8 1.2-13.6s1-12.5.8-12.7c-.1-.1-8 3.5-17.5 8.2M380.3 345.7c1 12.7 1.5 17.5 2 18 .3.2 1.5-.1 2.7-.7 1.8-1 2.1-1 1.5.2-.5.7.4.2 1.8-1.1 1.5-1.4 2.7-1.9 2.7-1.3 0 .7-.4 1.2-1 1.2-.5 0-1 .5-1 1.2 0 .6 3.7-2.5 8.3-7 4.5-4.4 9.4-9 11-10.2 3.3-2.6 2.9-3.5-2-4.3-10.9-1.8-24-3.7-25.2-3.7-1.1 0-1.2 1.5-.8 7.7M413 347.7c0 1.5-.5 4.4-1 6.3-.6 1.9-2.4 9.1-4.1 16-1.6 6.9-3.2 13.4-3.5 14.5s-.7 3.2-1 4.7c-.3 2.2 0 2.6 1.4 2.1 2.9-1.1 12.3-6.3 21.5-12 4.8-2.9 11.5-6.9 14.8-8.7l6-3.3-8.8-6.4c-11.5-8.4-21-14.7-23.4-15.4-1.6-.5-1.9-.1-1.9 2.2M295.8 387.2c-3.1 3.1-3.3 3.6-3.2 10.3.1 4-.4 7.3-1 7.8q-.9.75.9.3c1.1-.3 5.7-.8 10.3-1.2l8.2-.7-.4-3.1c-.7-4.5-4.6-15-5.9-15.8-2.5-1.6-5.8-.7-8.9 2.4M345.2 386.1c-.8 1.2-1.9 1.8-2.8 1.5-1.1-.4-1.4 1-1.4 8.4 0 5.1.4 9 1 9 .5 0 2.6-1.7 4.7-3.8 2.1-2 5.9-5.3 8.5-7.2 2.5-1.9 5.2-4.4 5.8-5.5.7-1.1.9-1.7.5-1.3s-1.6-.2-2.8-1.3c-2.4-2.2-5.3-2.5-6-.7q-.6 1.5-.6 0c-.1-.6-1-1.2-2.1-1.2s-2 .6-2 1.2c0 1-.2 1-.8.1s-1.1-.6-2 .8M331.3 391.8c-5.9 4.3-13.6 11.2-13.1 11.6.1.2 4.2 1 9 1.9 4.7.9 9.4 2 10.4 2.4 1.6.6 1.7-.1 1.2-8.6-.3-5.1-1-9.7-1.5-10.2-.6-.6-2.9.5-6 2.9M360 393.1c-3.4 2.8-5.8 5.5-5.4 6.1s.3.8-.4.4c-.6-.3-2.8.8-4.9 2.6s-4 3.4-4.2 3.5c-.2.2-.2.5 0 .7.9.9 11.4-2.2 11.2-3.3-.2-.6.7-1.1 2-1.1 1.8 0 1.9.2.7 1-1.3.9-1.3 1 0 .9 2.7-.2 6.1-1.4 6.1-2.2-.1-.4.8-1.6 1.9-2.7s2-3.2 2-4.8c0-2.1-.2-2.4-1-1.2-.5.8-1 2.6-1.1 4s-.5.5-.8-2c-.5-3.3-.3-4.8.8-5.8.9-.7 1-1.2.3-1.2-.6 0-3.8 2.3-7.2 5.1M300.7 482.7c-1.6 2.5-11.7 28.7-11.5 29.4.3 1 11.6-7.9 15.5-12.2l2.1-2.4-2.5-7.5c-2.8-8.3-2.9-8.5-3.6-7.3M894.2 555.6c0 5 .4 8 .9 7.2.5-.7.9-1 .9-.6 0 .3 3-.5 6.8-1.9 3.7-1.4 8.5-2.9 10.7-3.5 4.4-1 7-2.8 4.2-2.8-2.6 0-3-.1-6.7-1.7-5.7-2.4-14.3-5.3-15.7-5.3-.9 0-1.2 2.3-1.1 8.6M901.5 596.6c-1.1.2-5.1.6-8.8.9l-6.9.7.6 6.1c.3 3.4.5 7.9.5 9.9 0 2.1.4 3.8.8 3.8.7 0 21.3-21 21.3-21.7 0-.3-4.6-.2-7.5.3M876 598.9c-4 .6-4.2.7-2.1 1.5 1.3.4 2 1.1 1.5 1.5-.5.3-1.4 1.5-2 2.6s-2.2 2.2-3.5 2.5c-2 .5-2.1.7-.6 1.3.9.3 2.4.4 3.2.1 1.1-.4 1.3-.2 1 .9-.9 2.1 9.4 9.4 10.7 7.5.5-.7.7-2.4.4-3.8-.2-1.4-.8-5.3-1.2-8.8-.4-3.6-1.1-6.1-1.8-6-.6 0-3.1.4-5.6.7"/></svg>