<svg xmlns="http://www.w3.org/2000/svg" width="1706.667" height="960" viewBox="0 0 1280 720"><path d="M0 360v360h263.5c257.5 0 263.5 0 263.5-1.9 0-1 .7-3.2 1.5-4.7.9-1.8 1.5-2.3 1.5-1.2 0 .9-.4 2-1 2.3-.5.3-1 1.7-1 3.1 0 2.1.4 2.4 3.8 2.4 2.7 0 4.1-.6 5-2 .7-1.2 1-2.5.7-2.9-.7-1.3 4.7-6.2 6.2-5.7.8.3 1.2.2.9-.2-.8-1.4 2.4-9.4 5.1-12.6 3-3.6 9.3-7.4 11.2-6.8.7.2 1.7-.2 2.2-.9.5-.9-.1-1.9-1.8-3.1l-2.7-1.7 2.8-.7c1.5-.3 3-.3 3.3 0 .9.9 6.2-13.1 6.2-16.5.1-1.4.4-2.9.9-3.3.4-.4 1.2-2.2 1.9-3.9 1-2.9 1.2-3 1.2-.8.1 2.6-1.2 7.4-3.5 12.9-.8 1.8-1.4 4.8-1.4 6.7v3.5l13.7-.5c7.5-.2 13.9-.8 14.2-1.4 1.4-2.2 2.8.7 3.4 6.9.4 3.6.9 7.6 1.2 9 1.4 6.6 1.7 8.9 2 14.5.2 3.3.3 6.8.4 7.7.1 1.7 16.9 1.8 337.6 1.8H1280V0H0zM882.2 99.5c27.6 27.8 25 26.3 29.8 17.2 1.1-2 2.2-3.7 2.5-3.7.7 0-1.7 5.3-3.3 7.1-1.4 1.8-1.2 8.3.4 11 .5.9 5.2 6.3 10.5 12s13.8 15.4 18.8 21.6c5 6.1 9.5 11.4 10.1 11.8 1.9 1.2 13.4-12.2 15.1-17.7 1.1-3.3 1-4.1-.5-5.7-1.7-1.9-1.5-4.1.5-4.1 2.8 0 6.8 14 6.2 21.7 0 .7.3 1 .8.8.4-.3 1.1 1.1 1.4 3.2.4 2.1 1.8 8.9 3.1 15 2 9.2 4.2 22.7 4.4 26.6 0 .5.5.5 1 .2.6-.3 1 0 1.1.7 0 .7.2 2 .3 2.8.6 3.2 1.7 13.8 2.2 21 1.4 20.4 3.8 39.6 6.9 53.8.7 3.5 1.2 7.3 1 8.5s-.6 6.2-1 11.2c-1.1 15.5-1.5 19.3-2.5 24.6-.6 2.8-.8 5.5-.5 5.9 1.2 1.9 1.6 54 .5 56.1-1.7 3-4.8 5.9-6.5 5.9-.8 0-1.2.6-1 1.2.3.7-1.1 2.1-3 3-3.8 1.9-4.9.9-1.2-1.1 1.3-.7 2.4-2.2 2.4-3.4.4-5.1 2.7-14.7 3.6-14.7.5 0 .7 1.4.3 3.2-1.6 7.5-1.8 9.8-.9 9.8 2.5 0 4-3.8 4.2-10.5.1-3.9.3-7.7.3-8.5.1-.8 0-3.5-.1-6-.2-4.4-.2-4.5-1.6-2-.8 1.4-1.5 4.1-1.5 6s-.6 4.4-1.3 5.5c-2.2 3.7-10 13.9-14.4 18.7-4.5 5-5.1 6.3-3 7.1.7.3.5.6-.5.6-1 .1-1.8.6-1.8 1.1 0 .6-.7 1.8-1.6 2.8-.8.9-3.4 4.3-5.6 7.4-6.3 8.8-6.6 6.9-.4-2.2 5.2-7.6 5.4-8 3.3-8.5-4.8-1-28.1-3.4-28.8-2.9-.5.2-.6 1.1-.2 1.9.4 1.1.1 1.3-1.2.8-1.6-.6-1.7-.1-1.3 4.8.5 5.1.4 5.2-.8 2.4-.7-1.7-1.1-4.4-.8-6.1.3-1.8.2-3.4-.3-3.7-.4-.3-5.8.1-11.8.9-12.7 1.6-14.9 1.6-11.7.4 1.3-.6 6.4-1.5 11.5-2.1s9.5-1.4 9.9-1.8c.8-.7-8.5-14.6-13-19.3-1.4-1.5-3-2.5-3.5-2.1-.6.3-.7.1-.3-.5.4-.7.2-1.2-.3-1.2-.6 0-1.1-.8-1.2-1.8 0-.9-.3-1.2-.5-.5-.4.9-1.3.9-3.2.2-1.4-.6-3.7-.7-5-.4-2.3.6-2.4.8-1.8 7.3.9 8.7 2.6 20.3 3.3 22.2.3.8.8 2.6 1 4 .2 1.3.9 3 1.4 3.6.5.7 1.4 5.4 2 10.5.5 5.2 1.6 11.6 2.4 14.4 1.8 6.3 3 16.3 1.9 15.2-.5-.5-1.3-2.7-1.9-4.8-.5-2.2-1.3-4-1.7-4-.5.1-5.8.1-11.8.1h-11.1l1.6 3c.9 1.7 1.9 3 2.3 3s1.6 1.3 2.6 2.8c1.1 1.5-.3.6-3.4-2.3l-5.4-4.9-1 3.4-1.1 3.5-.3-4.3c-.2-2.3-.5-4.2-.7-4.2-.8 0-8 4.5-9.3 5.7-.7.7-1.6 1.3-1.9 1.3-1.1 0 2.1-3.1 5.3-5.1 1.9-1.1 3.2-2.5 2.8-3-.3-.5-.8-.7-1.2-.5-1.5.9-35.4 1.8-34.9.9.3-.5.9-4.1 1.2-7.9s1.5-10 2.6-13.8c1.1-3.7 1.9-7 1.7-7.2-.9-.8-37.8 42.9-37.8 44.7 0 .5 2.1 3.3 4.8 6.2 2.6 2.9 6.1 7.1 7.8 9.3l3.2 3.9 2.5-5.5c1.5-3 4-9.8 5.7-15 1.6-5.2 2.7-7.9 2.4-6-1.4 7.7-2.3 11.7-3.8 16.4-1.4 4.4-1.4 4.8.1 4.2.9-.4 2-.2 2.3.5.9 1.3 4.6-.4 7.1-3.3 2.2-2.5 3.8-2.3 3.3.4-.4 2.2-.4 2.2.5.2.5-1.2 1.6-2.4 2.5-2.7.9-.4 1.6-1.3 1.6-2.2 0-.8.5-1.5 1-1.5 1.6 0 8.8 3.8 9.5 5 .3.5 1.5 1 2.5 1s2.2.5 2.5 1c.7 1.2-4.6.2-5.5-1-.8-1-4.7-3-6.1-3-.6 0 0 .9 1.4 2s3 2 3.6 2c.7 0 1.4.7 1.7 1.5.4.8 1 1.3 1.4 1 1.2-.8 4.1.6 3.4 1.6-.3.5.2.9 1.2.9 1.1 0 1.5-.6 1.1-2-.6-2.2.8-2.6 3.3-1 1 .7 1.1 1 .2 1-1.4 0-.7 7 1.1 10.4.9 1.9 1.1 1.9 3.3-.8 1.3-1.5 2.4-3.6 2.4-4.7 0-1 .5-1.9 1.1-1.9 1.1 0 .8 3.5-.6 7.2-.4 1.1-.3 1.8.4 1.8.6 0 1.1-1.1 1.1-2.5 0-3.1 2-2.4 4 1.4.8 1.6 3.3 5.5 5.4 8.7 4.1 6 6 6 3.2-.1-.9-1.8-1.5-4.8-1.5-6.7.1-1.8-.1-5.3-.4-7.8l-.6-4.5 1.1 4.5c.6 2.5 1.6 4.8 2.2 5.2s.7 1 .4 1.4c-.4.4-.3 1.5.2 2.5.7 1.1.6 1.9-.1 2.1s-.7 1.2.2 3.1c1.6 3.5 2.5 3.4 3.4-.6.6-2.4.9-2.7 1.2-1.3.3 1-.1 3-.8 4.3-1 1.8-1 2.6-.2 3.1.6.4 1.5 2.1 1.9 3.7.4 1.7 1.6 3.6 2.6 4.3s1.8 1.8 1.8 2.4c0 .7-.5.6-1.5-.2-1.1-.9-2.7-.7-7.7 1-3.5 1.3-7.5 2.9-8.9 3.7-2.2 1.3-3 1.3-7 0-2.5-.9-6.1-2.3-8.1-3.3-3.6-1.7-3.8-1.6-9 .6-13.7 5.8-20.8 9.4-20.8 10.4 0 .6-1 1.2-2.2 1.2-1.3.1-5.4.4-9.3.7l-7 .6 6.4-.9c3.4-.5 6.8-1.1 7.5-1.3 1.1-.4-3-4.7-13.6-13.8l-5.6-5-2.8 3.6c-3.2 4.2-4.6 3.9-1.5-.3 1.2-1.7 2.1-3.4 2.1-3.9 0-1.2-28.2-17.8-31.4-18.4-1-.2-2.3-1.1-2.7-1.9-.5-.8-2.2-3.9-3.9-6.9-3.9-6.7-3.3-7.8.8-1.4 1.7 2.6 3.5 5.5 4.1 6.3.9 1.2 3.1-.6 12.1-9.9 6-6.2 10.7-11.7 10.4-12.2s-1.8-.9-3.4-.9c-1.5 0-4.8-.8-7.2-1.9-2.4-1-7.7-3-11.8-4.4s-10.1-3.6-13.4-4.8c-3.7-1.3-7-1.9-9.1-1.6-2.8.5-3.2.3-2.8-1.2.2-1-.8-3.3-2.3-5.2-2.6-3.2-2.6-3.2-.3-1.2 1.4 1.3 3 2.3 3.6 2.3.7 0 1.9.7 2.8 1.6 1.6 1.6 6.8 3.7 25 9.9 5.5 1.9 10.8 3.9 11.7 4.5 4.7 2.7 6.7.3 3.8-4.6-1.2-1.9-2-3.7-1.8-4 .3-.2 1.9 1.8 3.6 4.6 1.7 2.7 3.5 5 4 5 .9 0 1.8-5.5 2.9-17 .2-3 .9-6.9 1.3-8.5 1.1-3.6.3 8.7-1.1 17.9-.5 3.3-.7 6.2-.5 6.4.6.5 3.2-2.2 8.1-8.3 2.2-2.7 8.4-10 13.7-16.2 5.4-6.2 10.5-12.5 11.5-14 .9-1.6 2.8-4.1 4.2-5.6 3.4-3.7 2.6-4-10.7-5.5-5.9-.7-12.8-1.5-15.4-1.8l-4.7-.6-1 3.9c-.5 2.1-1.2 7-1.6 10.9s-1.1 7.7-1.7 8.5c-.8 1.1-.9 1-.4-.4.3-1 .9-6.4 1.3-12l.6-10.2-6.4 6.1c-3.5 3.3-9.3 8.8-12.9 12.2-5.5 5.1-6.3 6.4-5.4 7.9.5 1 2 3.6 3.3 5.8l2.2 4-2.3-3c-1.3-1.6-3.5-4.2-4.9-5.7-1.5-1.5-2.5-2.9-2.2-3.1.6-.7-9.5-15.6-12.8-19-1.9-1.8-3.8-2.7-6.1-2.7-1.8 0-6.6-.9-10.7-1.9l-7.3-2 .5 2.5c.6 3.4-.2 3-1.9-1.1-1-2.6-2-3.5-3.7-3.5-1.3 0-2.7-.3-3-.7-1.4-1.4-18.2-6.2-18.5-5.3-.2.6-1.1.6-2.3 0-2.3-1.3-2.6-5-.4-5 .9 0 3.4-1.2 5.6-2.6 5.4-3.4 6.1-2.5.7 1.1l-4.2 2.8 2.7 1.4c1.5.7 5.7 2.3 9.5 3.4 3.7 1.1 7.5 2.4 8.6 3 3.6 2.1 3.9-.5 1.2-9.4-1.5-4.8-3.1-8.9-3.7-9.2-.5-.4-2.6.3-4.7 1.5-3.6 2.2-3.7 2.2-1.8.1 1-1.1 2.7-2.3 3.8-2.7 1.5-.4 1.8-1.2 1.4-3.6-.2-1.6-1.2-3.9-2-5.1-3-4.1-13-19.2-14.6-21.9-3-5.2-5.5-8.4-12-15.1-6.9-7.3-13.8-13.2-14.5-12.5-.2.2-.7 6.2-1.1 13.3-.3 7.2-1 15.7-1.4 19-.9 6.4-.5-13 .6-27.1.5-6.7.4-7.2-2.3-9.9-2.2-2.2-2.3-2.5-.7-1.7 1.2.6 2.3 1 2.5.8s1.8-.6 3.4-1c2.7-.7 2.8-.6 1.1.7-2.5 1.8-1.9 2.7 8.6 12.5l8.7 8.1 5.5-.2c3-.2 5.3.1 5 .5s-2.1.8-4 .8-3.4.4-3.4.9 1.5 3.2 3.3 6c1.7 2.7 4.8 7.6 6.7 10.7 6.1 10 12.8 18.5 13.5 17.4.4-.7.2-7.1-.4-14.3-.6-7.3-1.3-15.5-1.4-18.2l-.2-5-4 .2-4 .2 3.4-1c3.1-.9 3.3-1.3 2.8-4.2-.3-1.8-.9-4.1-1.3-5.2-.4-1.2-.3-1.7.2-1.2s1.4 2.3 2 4c1.9 5.5 3.4 4.9 17.2-7.1 5.4-4.6 11.3-8.3 12.4-7.6 1.2.8 1 .1-1.2-5.2-2.5-5.7-2-6.8.9-1.9 1.9 3.3 2.3 3.5 3.7 2.1.8-.9 2.8-1.6 4.4-1.6 2.3 0 3.4-.9 5.8-4.8 1.6-2.6 3.9-5.7 5.1-6.9 1.1-1.2 2.1-2.7 2.1-3.3s.5-.8 1-.5c.6.3 1-.1 1-.9 0-1.7-.8-2-5.5-1.7-4.9.2-23 4.2-23.6 5.2-.7 1.2-.2 1.2-18.6-.3-7.9-.6-14.3-1.4-14.3-1.9 0-.4 1.2-.6 2.8-.4 1.5.2 7.9.6 14.3 1l11.6.6 2.4-3.6c1.3-1.9 2.7-3.5 3.1-3.5.8 0 7.8-9.7 7.8-10.9 0-.5 1.6-2.6 3.5-4.5 1.9-2 3.5-4 3.5-4.5s.3-1.6.6-2.5c.5-1.4.2-1.4-3.4-.2-5 1.8-21.8 10.7-30.2 16.1-3.6 2.3-8.7 5.4-11.5 7-2.7 1.6-6 3.9-7.3 5.2-1.2 1.3-2.6 2.2-3.1 1.8-.5-.3-1.6.3-2.3 1.2-2.2 2.9-9.3 9-7.7 6.7.8-1.1 3.1-3.5 5.2-5.3 2-1.8 3.7-4.2 3.7-5.3s-1.1-5.7-2.4-10.2c-1.4-4.4-2.8-10.1-3.1-12.6-.4-2.5-2-9.8-3.7-16.3-1.6-6.4-2.8-12.4-2.6-13.3.3-1.7 6.8 23 9.9 38 2 9.4 3.4 11.6 5.6 8.8 1.1-1.5 1.2-1.3.3 1.1l-1 2.9 7.7-4.2c4.3-2.3 8.5-4.8 9.3-5.5 1.5-1.1 25.8-14.9 37.3-21 3.3-1.7 6-3.6 6-4.1.1-.5-5.9-3-13.3-5.5s-14.8-5.1-16.4-5.8c-5.1-2.1-6.7-1.8-8.5 1.4-.9 1.7-2.9 5.1-4.4 7.8-1.5 2.6-3.9 7.7-5.3 11.3-2.7 7.1-6.2 14.4-6.9 14.4-1.2 0 7.6-20.2 12.7-29.1 2.1-3.6 3.8-7.5 3.8-8.7 0-1.1-1.3-5.3-2.9-9.4-1.7-4-3.2-8.7-3.5-10.3-.8-4.3-2.7-8.6-3.6-8-.4.3-.8 2-.8 3.7 0 1.8-.6 6.2-1.2 9.8s-2.2 13.2-3.5 21.5c-1.7 10.4-2.3 12.7-1.9 7.5.3-4.1 1.2-11.1 2-15.5 2.1-11.1 3.3-21.1 3.4-27.1v-5.2l-8.6-1.2c-4.7-.7-8.3-1.4-8.1-1.7.3-.2 3.7 0 7.7.6 4 .5 7.8.7 8.6.4 1.2-.4 1.4-5.5 1.4-29 0-29.6-.3-31.5-3.9-24.7-.9 1.6-3.3 5.3-5.4 8.1-2 2.8-5.1 8.1-6.9 11.9-1.7 3.8-5.8 11.5-9 17.1s-5.8 10.8-5.8 11.7c0 1 1.4 1.7 4.8 2.1 7.7 1 8.2 1.5.9.9l-6.9-.5.7 4.3c.7 4.4 2.8 14.2 4.7 21.5.5 2.3.8 4.7.6 5.3s-1.7-4.2-3.3-10.7-3.5-12.3-4.2-12.9-1.2-3.1-1.2-5.5c.1-2.4-1.6-10.6-3.6-18.2s-3.5-14.6-3.3-15.5 1.6 3.2 3.1 9.3c4.1 16.7 4.7 18.6 5.7 18 1.4-.9 8-12.4 14-24.5 2.9-5.8 6.2-11.9 7.5-13.5 8.4-11.4 12.8-23.5 8.6-23.5-.9 0-2.1-.4-2.6-.9-.9-.8-6.4-2.4-29.8-8.4-4.3-1.1-7.6-2.1-7.4-2.4.6-.5 12.4 2.2 27.6 6.3 14.3 3.9 16.6 4.2 15.7 1.8-.4-1-1.3-5.8-2.1-10.8-3.8-23.8-3.5-22.6-5.7-22.6-1.8 0-1.8-.1-.3-1.6.8-.9 2.2-2.9 3-4.5.9-1.6 1.8-2.9 2.1-2.9.2 0-.2 1.3-1.1 2.9l-1.5 3 5.3-1.5c2.8-.9 9.2-2.9 14-4.6 4.9-1.6 9.1-2.8 9.3-2.5.5.5-7 3.3-19.4 7.3l-8.4 2.7.6 3.1c.3 1.7 1 6.7 1.6 11.1s1.5 9.6 2 11.5 1.2 4.5 1.5 5.7c1.3 4.7 2.2 3.9 16.2-14.7 4.7-6.3 9.8-13.1 11.3-15s4.8-6.3 7.4-9.8c2.6-3.4 5.2-6.2 5.8-6.2s.5.8-.3 1.9c-13 17.4-32.4 43.1-34 44.9-1.2 1.2-2 2.5-1.7 2.7.2.2 4-.9 8.4-2.5 4.3-1.7 8.3-3 8.7-3 .6 0 12.4-5 27.5-11.7 2.4-1.1 3.2-2 3.2-4.1 0-5.1-7.3-26.8-9.7-28.8-1-.9-3.4-.5-10 1.7-4.7 1.6-8.8 2.7-9.1 2.4-.3-.2.1-.7.9-.9 5.3-1.9 15.7-5.8 17.4-6.5 1.1-.5 3.6-1.5 5.5-2.1 1.9-.7 5.8-2.3 8.5-3.6 2.8-1.2 6.6-2.5 8.5-2.9 3.4-.6 3.3-.5-1.3 2-2.7 1.4-5.4 2.5-6 2.5-.7 0-3 .9-5.2 1.9l-4 1.8 4 2.5c2.2 1.4 9.6 5.3 16.5 8.8s13.7 7.2 15.3 8.2c1.5 1.1 7.5 4.6 13.4 7.9 9.5 5.3 10.9 5.8 11.9 4.4.7-.9 1.5-7.8 1.9-16.3 1.4-28.6 2.3-32 1.8-6.5l-.6 25.3h3.9c2.1 0 12.2.4 22.4 1 28.4 1.5 33 1.6 33 .8 0-.7-9.9-11.1-40.4-42.2-6.4-6.5-11.6-12.1-11.6-12.3 0-1 7.2 6 31.2 30.2M495 84.6c15.4 9 20.6 11.9 21.7 11.9.6 0 1.9.8 3 1.6 1 .9 4.1 2.8 6.8 4.2 7 3.6 5.1 3.3-3-.5-6.6-3-6.8-3.1-8.2-1.2-2.2 3-5.8 7.5-12.9 16-7.5 9-8.9 11.2-7.1 11s41 2.5 42.7 2.9c.8.3-8.7.2-21.3-.1l-22.7-.5 4.7 6.8c2.6 3.7 5 7 5.4 7.3.7.5 9.2 13.3 15.3 23.2 4.6 7.4 13.8 19.9 15.9 21.6 1.3 1.1 2.8 0 9.4-6.9 4.3-4.6 8.7-9.3 9.9-10.5 1.1-1.2 2.9-3.3 4-4.7 1.9-2.4 12.8-14.6 19.3-21.7l3.3-3.5-3.4 4.5c-1.8 2.5-6.4 8.1-10.3 12.6-3.8 4.5-8.3 9.6-9.9 11.5-1.5 1.9-6.6 7.5-11.2 12.5-4.6 5.1-8.4 9.4-8.4 9.8 0 .3 3.3 1.5 7.2 2.7 4 1.3 6.8 2.4 6.2 2.6-.5.2-3.6-.6-6.9-1.7-3.2-1.1-6.2-2-6.6-2-.5 0-1.3 1.5-1.8 3.2-.9 3.3-.9 3.3-1 .5-.1-1.5-.7-3-1.5-3.3s-5 .2-9.3 1c-4.3.9-19.3 3.4-33.3 5.6-42.2 6.7-48.9 7.8-50.9 8.5-2.1.6-3 4.2-3.2 12.4l-.2 5.6-.7-4.5c-.4-2.5-.5-5.1-.3-5.8.3-.6 0-1.2-.6-1.2s-2.2 2.4-3.5 5.2c-2.2 5.2-16.4 31.3-22.4 41.4-1.6 2.8-6 11-9.7 18.2-7.4 14.6-7.4 15.3-.8 18.7 3.3 1.7 18.6 10.2 24.8 13.7 9.7 5.6 13.8 7.8 14.2 7.8.7 0-.5-77.4-1.3-86-.4-3.6-.3-6.2.1-5.8 1.3 1.2 2.4 22.3 3.1 57.8.3 19 .8 34.8 1.1 35.2.2.5 1.9 0 3.6-.9 1.8-.9 16-6 31.7-11.3 15.7-5.4 31.2-10.8 34.5-12 12.5-4.5 19.9-7 20.9-7 2.2.1-2.3 2-14.9 6.3-7.2 2.5-18.4 6.5-25 9s-14 5.1-16.5 5.7c-4.8 1.2-23.4 7.9-29.9 10.7-4.4 1.9-4.4 1.8-6.1 16.8-1 8.7-1.9 25.5-1.4 25.5s15.5-8.7 23.6-13.7c8.3-5.1 8.7-5.5 8.1-8.3-.4-2.3-.2-3 1.1-3 1.5 0 2.1 1.2 1.7 3.4-.4 2.3 18.2-8.9 22.5-13.6 7-7.5 34.5-32.8 35.8-32.8.9 0-2.6 3.6-10.4 10.5-12.1 10.7-29.1 28-28 28.3 1.2.4-3.5 3.2-5.3 3.2-.6 0-3.8 1.8-7.1 3.9-3.4 2.2-9.7 5.9-14.1 8.4-9.7 5.3-25.8 14.7-26.5 15.3-.2.3.2.9 1 1.4 1 .6.6.9-1.6 1.2-2.8.3-3 .8-8.2 16.6-3 9-5.6 16.2-5.7 16-.6-.5 5-19.7 7.4-25.6 1.1-2.9 2.1-5.7 2.1-6.2 0-.6-6.2 2.8-13.7 7.3-14.7 8.9-26.7 15.7-29.6 16.9-1 .4-1.5 1.2-1.2 1.8.3.5-.2 1-1.2 1.1-4.5.2-7.7.8-21.3 4.2-8 2-19 4.6-24.5 5.7-5.5 1.2-10.5 2.3-11.2 2.5-.8.3-.6 1.8.8 5.4 2.1 5.7 1.6 7-.7 1.6-.8-1.9-2.1-3.5-2.8-3.5-.8 0-1.6-.8-1.8-1.7-.2-1.2-2.6-2.1-9.3-3.4-11-2.2-12.9-2.3-12.2-.7.2.7 3.5 5.7 7.2 11.1 4.7 6.9 7 9.5 7.8 8.8.9-.7 1.2-.1 1.3 2 .1 1.6-.2 2.9-.6 2.9s-3.8-4.5-7.5-10-8.2-11.6-10-13.6l-3.4-3.7-9.8 1.8c-13.1 2.3-14.3 2.6-14.3 3.6 0 1.1 9.3 15.3 21.1 32.3 5.4 7.7 9.2 12.3 11.1 13 2.1.9 2.5 1.5 1.6 2.4-.8.8.8 3.2 6.7 9.7 4.2 4.7 9 9.8 10.6 11.3 3.4 3.2 3.7 5.2.9 5.2-1.2 0-4.2 1.1-6.8 2.4-6.3 3.2-12.2 5.6-12.2 5 0-.2 3.8-2.3 8.5-4.5s8.7-4.4 9-4.8c.6-1.1-18.5-22.2-19.6-21.5-.5.3-.9 1.7-1 3.2l-.1 2.7-.7-2.5c-.4-1.4-.3-3.5.2-4.7.8-1.8.3-2.9-2.5-6.5-1.9-2.4-7.7-10.4-12.8-17.8s-10.4-14.8-11.7-16.4l-2.4-2.9.7 2.9c.3 1.6 1.5 6.3 2.6 10.4s2.6 10 3.3 13c2.1 9.1 6.6 25.3 7.6 27.2.5.9.9 2.6.9 3.7 0 4 1.4 2.9 10-7.9 4.3-5.4 1.7-.9-3.4 5.9-5.2 7-5.4 7.3-4.4 11.4.7 3.3 4.1 11.8 5.4 13.5.1.2 2-.6 4.3-1.7 2.2-1.2 4.4-2.1 4.8-2.1.4.1-1.3 1.2-3.9 2.6-2.7 1.3-4.8 2.7-4.8 3 0 1.5 14.3 19.9 16.6 21.4 2.2 1.5 2.3 1.8.9 2.4-1.5.5-1.5.9-.4 2.3 1.3 1.5 1.2 1.5-.6.3-1.8-1.1-3.2-.7-10.5 3-9.7 4.8-17 9.2-17 10.2s14.7 12.1 20 15c3.1 1.7 7.8 3.1 12.7 3.8 4.2.5 7.9 1.2 8.1 1.5.8.7-.9.6-9.3-.6-7.2-1.1-7.7-1-9.9 1-2.6 2.4-4.6 2.9-2.2.5 2-1.9 2.1-4 .2-4.7-.8-.3-5.2-3.5-9.9-7.1-11.1-8.6-12.4-9-20.1-7-3.3.9-6.8 1.8-7.6 2.1s-2.8.7-4.5.9c-1.6.2-4.3.9-5.9 1.4-1.6.6-3.1.8-3.3.6s1.5-1 3.9-1.8c3-1 4.4-2.2 4.9-3.9.4-1.3.7-2 .8-1.4.2 1.4 4.2-5.5 5.2-8.8.8-3 1.7-2.9-11.6-.8l-3.9.6 4.2 3.9c2.3 2.2 4.2 4.4 4.2 5s-2.2-1.2-5-3.9c-2.7-2.7-5.2-4.7-5.4-4.4-.3.3-1.2 3.1-2.1 6.4-.8 3.2-2 6.4-2.6 6.9-.9.8-1 .6-.5-.9.4-1.1 1-3.8 1.2-5.9.3-2.2.7-4.4 1-4.8.3-.5.2-1.7-.1-2.8-.5-1.5-1.2-1.9-2.9-1.4-1.6.4-2.5 0-2.9-1-.4-.9-.2-1.6.2-1.6.5 0 1.2.6 1.4 1.2.3.8.6.6.6-.5.1-.9-.6-1.7-1.4-1.7s-1.5-.4-1.5-1c0-.5.7-.7 1.5-.4 1.8.7 2-.7.3-2.4-.6-.6-.9-1.4-.6-1.8.4-.3 1.4.6 2.3 2 1.1 1.7 2.7 2.6 4.4 2.7 1.4 0 2 .3 1.3.6-3.7 1.5 1.6 2.1 15.6 1.9 8.6-.2 13.9 0 11.8.3-3.5.5-3.8.7-2.3 2 1.1.9 1.7 1 1.7.2 0-.7 2.3-1.1 6.4-1.1 7.4 0 9.8-1.7 3.4-2.3-3.5-.3-3.2-.4 1.8-.5 3.4-.1 7.7-.5 9.5-.8 3.4-.7 3.4-.7 1.4 1.3-1.1 1.1-2.5 1.8-3 1.6-1.2-.4-5.9 3.6-5.2 4.4.7.6 13-5.3 16.1-7.8l2.6-2.1-4-5.6c-2.2-3.1-5.9-7.8-8.2-10.5l-4.3-4.7-9.5 8.8c-6.6 6.3-9 9.1-8 9.5.8.3-.1.6-2.1.6-2.2.1-3.9-.4-4.2-1.2-.3-.7-5.2-4.3-11-7.9-7.7-4.9-11.1-6.5-12.8-6.2l-2.4.6 2.4-2c2.3-1.8 2.4-2.3 1.8-10.3-.3-4.6-.3-7.3 0-5.9.9 4.8 2.1 4.2 2.8-1.3.4-3.1.5-7.6.3-10.1s0-4.6.4-4.6c1.5 0 1.9 4.9 1.1 12.4-.5 4.2-.7 7.9-.5 8.1 1 1 3.1-1.7 2.5-3.2-.4-1-.2-1.4.4-1 .5.3 2-1.7 3.2-4.6 1.9-4.4 7.6-16.6 8.9-18.9.2-.3-.5-.8-1.5-1.1-1.1-.3-.5-.5 1.3-.6l3-.1.3 8.7c.1 4.8.4 8.9.5 9.2.2.3.7 5.3 1 11.1.9 14.7 1.7 21.3 2.6 20.3.4-.4 1.2-2.4 1.9-4.3 1.7-4.7 2.5-6.6 4.9-12.5 6.3-15.5 6.4-16.3.6-36.6-2-6.8-3.6-13.1-3.7-13.9-.4-2.3-3-9-3.7-9-.3 0-.5 2.3-.5 5.1 0 3.9-.4 5.3-1.8 6-.9.6-2.2.7-2.8.3s-1.4-.2-1.8.4c-.3.6-6 3.7-12.5 7.1l-11.9 6-2.6-2.8c-2.2-2.3-18.7-12.1-20.4-12.1-.3 0-.8 1.2-1 2.7-.4 2.6-.4 2.6-.6-.5-.1-3.4-.9-4-2.9-2-.9.9-1.2.9-1.2 0 0-.7.5-1.2 1-1.2.6 0 1-.5 1-1 0-.6-2-1-4.5-1s-4.5-.3-4.5-.8c0-.4 1.6-.7 3.7-.7 3.3 0 3.9-.4 6.1-4.4 3.4-6.2 11.4-26.2 10.7-26.9-.3-.4-1.5-.1-2.5.6-1.2.7-2 .8-2 .2 0-2.2-1.6-.8-3.2 2.9-1 2-1.8 4.1-1.8 4.4 0 .4-2.8 5.5-6.1 11.5-5.3 9.1-6.2 11.4-6.2 15.7l-.1 5-.9-4.2c-.9-4.1-.7-4.7 5.6-16.3 3.6-6.6 8.3-16.3 10.3-21.5 2.1-5.2 4.1-9.5 4.6-9.5.4 0 0 2.2-1.1 4.9l-1.8 4.9 3.1-.2c2.7-.2 3.2-.7 4.2-4.2.6-2.1 1.3-4.6 1.7-5.4 1.1-2.7.3-7.1-1.3-6.7-.9.2-1.4 1.2-1.2 2.7.2 2 0 2.2-.8 1-.8-1.3-1-1.2-1 .2 0 1-.3 1.8-.7 1.8-1.2 0-.6-9.6.6-11.9 1.4-2.5-.1-10.1-3-15-2-3.4-4.1-9-5.3-14.5-.8-3.4.3-11.8 1.5-11.1 1.3.9.8-3.7-1.1-9-2.2-5.9-3.4-13.9-2.2-13.1.5.3 1.2 1.9 1.5 3.5.5 2.5 1.1 2.9 4.7 3.3 2.2.2 4 .2 4 .1 0-.2-1.2-2.6-2.6-5.3-3.3-6.3-2.7-8.5.9-3.1 2.8 4.2 4.4 5.4 3.3 2.4-.6-1.5-.4-1.5 1.4.2 3.9 3.5 2 .3-2.9-4.8-9.3-9.9-10.1-11.1-9.2-14.3l.8-2.9.6 3.6c.5 2.6 2.7 5.5 7.7 10.7 3.9 4 7.4 7.2 7.9 7.2 1.2 0-2.3-12.4-4.2-15.4-.8-1.2-1.8-4-2.2-6.3-.3-2.4-1.5-5.3-2.4-6.5-1-1.3-2.1-3.2-2.5-4.2-.6-1.6-.4-1.7 1-.5 1.4 1.1 1.8 1.1 3-.6 1.3-1.7 1.4-1.6 1.4 2.1 0 3.5.8 4.7 7.4 11.6 6.9 7.3 9.6 9.2 9.6 6.8 0-.6-.4-1.8-.9-2.8-.6-.9-1.7-6.2-2.6-11.7s-1.9-10.9-2.1-12c-.4-1.6-.3-1.7.5-.4.5.8 1.8 6 2.7 11.5 1.9 11.4 3 14.8 4.4 13.9.5-.3 1-.1 1 .6 0 .6 2-.5 4.4-2.5 6.3-5.1 6.4-4.5.5 1.6l-5.1 5.2 3.9 3.3c2.1 1.9 5.7 3.9 8 4.5 2.3.7 4 1.5 3.7 1.9-.2.4.1 1.1.7 1.5q1.05.6.6-.3c-.4-.6 0-1.6.8-2.3s1.5-2.3 1.5-3.6c0-4 1.8-3.6 2.5.6s1.3 4.8 3.3 2.8c.7-.7 1.2-.8 1.2-.2s-.9 1.9-2.1 3c-2.5 2.2-2.2 4.6 1.5 12.7 1.5 3.1 2.6 6.1 2.6 6.6 0 1.7 1.1 1.3 3.7-1.1 1.3-1.2 2.3-2.9 2.3-3.8s.9-2.7 2-4 2-2.9 2-3.7c0-.7.8-1.3 1.7-1.3s1.3-.3 1-.6c-.3-.4-4.2-.6-8.7-.5-4.4.1-8 0-8-.3 0-.2 4.1-1 9-1.7 5-.6 9.2-1.5 9.4-1.8s-.3-2.6-1.1-4.9c-1.8-5.5-1-6.6 1.3-1.7 1.1 2.4 2.2 3.4 3.1 3.1.8-.4 2.1-.6 2.9-.6s1.9-1 2.4-2.3c.5-1.2 1.9-3.3 3-4.7 2.1-2.4 2.1-2.4 1.5-.3-.6 2-.3 2.3 2.7 2.5 1.8 0 4.7.2 6.3.4 4.4.3 8.5-.6 8.4-1.9-.1-1.9-10.2-17.9-11.9-18.9-1.1-.7-4.4.4-11.2 3.6-5.3 2.5-10.1 4.6-10.7 4.6-2 0-2.2 2.2-.6 5.6 2.7 5.6 1.2 4.8-2-1.1-2.3-4.3-4.3-6.3-10.2-10.1l-7.3-4.7-.2-17.6c-.2-27-1-35.9-3.2-37.4-.8-.5-.7-1 .4-1.6 1.2-.8 1.1-1.3-.5-3.3-1.1-1.3-2.2-2.5-2.5-2.8-1.4-1.4-6.1-9.2-5.7-9.6.2-.2 2.3 2.5 4.6 6.1s4.8 6.5 5.6 6.5c.7 0 2.1-2.1 3-4.8.9-2.6 2.5-7 3.5-9.7 1-2.8 2.5-7.3 3.4-10 1.8-6.2 7.4-22.3 8.7-25 .5-1.1 3.2-8.8 6-17 2.8-8.3 5.6-16.5 6.3-18.2.6-1.8 1.6-3.5 2.2-3.7 1.3-.5-.5 5.4-3.5 11.2-1 2.1-3.3 8.6-5.1 14.7-1.7 6-4.9 15.3-7 20.5-4.2 10.7-13.3 39-12.7 39.6.7.8 49.8-50.8 50.8-53.4.4-1-1.9-6.8-5.7-14.7-3.5-7.2-7.1-15-8.1-17.5-.9-2.5-2.4-5.6-3.2-6.9l-1.5-2.4-1 2.4c-.6 1.3-1.7 2.9-2.5 3.5s-2.1 2.5-3 4.2c-2.7 5.1-8.2 14.2-8.7 14.2-.4 0 0-1.1 3.9-10 .9-1.9 3.2-5.7 5.1-8.5 2-2.7 3.6-5.9 3.6-6.9 0-2.9 3-5.6 6.2-5.6 1.6 0 6.8-2 11.6-4.4 8.2-4.2 46.6-22.2 57.7-27 7.2-3.1 9.6-4.6 9.1-5.5-.3-.4.8-.6 2.3-.3 1.5.2 4.5-.3 6.5-1.2 5.3-2.2 5.9-1.9 1.1.6l-4 2.1 3 1.3c1.7.7 3.6 1.3 4.3 1.4.7 0 8.4 2 17 4.5 17.5 5 19 5.2 19.9 2.7.4-.9 1.8-3.1 3.2-4.8s3.2-3.9 3.9-5c1-1.6 1.1-1.5.1.6-.7 1.4-2.2 3.8-3.5 5.5-3.8 5-3.5 5.9 1.6 5.7 2.5-.2 8.6-.7 13.5-1.2 5-.5 11.5-1.2 14.5-1.4 21.2-1.8 41-4.1 41-4.7 0-.7-11.4-7.9-12.5-7.9-.8 0-22.5-13.2-22.5-13.7 0-.4 6.8 3.2 17 9.3m-41 138.7c3.1 1.9 9.2 6.6 13.7 10.3 4.4 3.8 12.4 10.3 17.7 14.4s12.7 10 16.4 13c3.8 3 8.3 6.6 10.2 8s5.9 4.5 8.9 7.1c3.1 2.5 8.7 6.8 12.5 9.7s6.3 5.2 5.5 5.3c-.8 0-2.4.2-3.6.5-2.3.4-3.3-1.1-1.2-1.8 1.6-.5-13-12.7-39.6-33.1-4.4-3.3-8.2-6.3-8.5-6.7-1.1-1.2-28.8-22.8-32.6-25.3-2.2-1.5-6.5-5-9.5-7.8l-5.4-5.1 5 4c2.8 2.2 7.5 5.5 10.5 7.5M589.5 306c-.3.5-1.3 1-2.2 1s-1.3.6-1 1.4c.4.9-.5 2.2-2.1 3.2-4.6 3-27.2 21.6-27.2 22.4 0 1.4-12.6-.5-13.5-2-1.1-1.8 1.7-2.1 3.5-.5 1 .9 2.4 1.4 2.9 1 1.4-.8 1.4-5.5 0-5.5-.6 0-.9-.6-.6-1.3.2-.6.9-1.2 1.6-1.2.6 0 1.5-.5 1.9-1 1-1.5 5.9-4.5 7.3-4.5.8 0 .8.4-.1 1.5-.7.9-1 1.8-.6 2.2.3.3.6.1.6-.6s.4-1 .9-.7c.4.3.6 1.8.3 3.2l-.5 2.7 3.1-1.9c1.8-1 4.2-2.7 5.4-3.9 1.3-1.1 4.6-3.8 7.5-5.9 5.5-4.2 7.3-6.8 5.1-7.5-.7-.2.7-1 3.2-1.6 2.5-.7 4.6-1.3 4.8-1.4.2 0 0 .3-.3.9m-1.2 75.1c-.4 1.2-1.4 2.4-2.4 2.6-1.5.4-1.7 1.3-1.2 6.1.3 3.2.7 5.9.9 6.1s2.1-1.1 4.4-2.9 4.4-3 4.7-2.7c.5.6-3.5 4.4-7.9 7.6-1.1.7-2.3 2.3-2.8 3.5-.8 2-.9 2-.9-.4-.1-1.9-.4-2.1-1.3-1.2-.7.7-2.1 1.2-3.3 1.2-3.1 0-9 5.4-13.9 12.8-4.2 6.5-4.6 6.8-12.2 9.6-4.4 1.6-8.4 3.6-9.1 4.4-.6.7-1.6 1.1-2.2.8-1.2-.8-14.1 4.9-14.1 6.2s1.9 2.7 5.5 4.1l3 1.1-3-.6c-1.6-.3-3.7-1.2-4.7-2-1.1-1-1.8-1.2-2.3-.5-.3.6-1.1 1.1-1.6 1.1-.6 0-.7-.4-.4-1 .3-.5.1-1.9-.5-3-.9-1.8-.8-2 1.7-2.1 1.5-.1 3.2-.1 3.6 0 .5.1 2-.7 3.5-1.7 1.5-1.1 4-2.2 5.5-2.6 2.6-.6 2.8-1 2.2-3.9-.4-1.8-1.3-3.9-2.1-4.8-2.2-2.4-1.8-4.2.5-2.7 1.1.7 1.8 1.5 1.5 1.9-.2.4 0 1 .6 1.4.5.3 1 1.7 1 3 0 3.2 1.2 3.7 4.6 2.2 1.6-.7 4.9-2.2 7.4-3.4l4.4-2-2.7-1.8c-4.1-2.7-9.7-4.4-14.4-4.5-2.4 0-4.3-.5-4.3-1 0-.6.9-1 1.9-1 2.4 0 7.1-5.5 7.1-8.3.1-2.2.1-2.2 1.2-.2.6 1.1 1.2 2.1 1.4 2.3.1.2 1.2-.1 2.3-.8 1.2-.6 2.1-.8 2.1-.5s-1.6 1.3-3.5 2.1c-3.9 1.6-5 3.9-1.1 2.5 1.3-.5 4.4-.8 7-.6 2.7.2 4.3-.1 4-.7-.3-.5.3-.4 1.5.4 2.6 1.6 2.7 3.8.1 6.6-1.1 1.2-2 2.6-2 3.1 0 1.8 2.5.1 4.6-3.2 1.1-1.7 2.9-4.5 4-6.2 1-1.6 1.4-2.6.7-2.2-.6.4-2.2.3-3.5-.2-2.3-1-2.3-1 .4-1 1.8-.1 2.6-.6 2.3-1.4-.3-.6-.1-1.8.4-2.5.7-1.1 1.2-1.2 2.9-.1s2.9 1 6.9-.2c4.5-1.4 4.8-1.7 5-5 .6-11.9.6-11.9 2.4-11.9 1 0 2.3-.9 2.9-2 1.4-2.6 2-2.5 1.3.1M976 433.2c-.4 1.8-1.3 4.6-2 6.3-1.6 3.5-1.5 3.2-2.5 7-.4 1.6-1 3.4-1.4 4-.6 1-.7 1.6-.9 4.8-.1 1-.6 1.6-1.1 1.2-.6-.3-1.4.3-2 1.2-.7 1.3-1 1.4-1.1.4 0-.8.7-2.3 1.7-3.3 1.8-2 1.1-3.7-.9-2.1-.7.6-4.2 2.3-7.8 3.8-9.9 4.2-21.5 9.9-21.8 10.7-.2.5-.8.8-1.3.8-2.7 0-16.9 18.1-16.9 21.5 0 1.5-.4 2.4-.9 2-.5-.3-1.3 2.1-1.7 5.2-.4 3.2-1.3 8.9-2 12.8l-1.4 7 .5-7.5c.3-4.1 1.2-10.4 1.9-13.9s1.1-7.3.8-8.3c-.2-1 .1-1.8.7-1.8 1.3 0 6.1-5.2 10.7-11.6 2.9-4.1 3.1-4.7 2-7.8-.6-1.8-1.6-4-2.2-4.7-1.6-2-2.6-3.9-2.1-3.9.2 0 1.7 1.8 3.3 4.1l2.8 4 3.3-3.8 3.3-3.8-2.6 4.7c-2.8 5.2-2.3 5.9 1.6 2.8 1.4-1.1 2.9-2 3.3-2s4.5-1.6 9-3.6 10.2-4.5 12.7-5.6c5.9-2.6 7.7-4.4 8.6-8.1.3-1.7 1.7-5 3-7.5s2.4-5.3 2.4-6.3c0-1.1.4-1.9.9-1.9s.5 1.4.1 3.2m-36.4 78c-1 5.8-2.2 9.3-3.2 9.1-1.1-.2-2.8 2.6-2 3.5 1.2 1.1 11.7-3.1 12.8-5.2.6-1.2 1.7-2.5 2.4-2.9.8-.4 1.4-1.5 1.4-2.3s.4-1.3.9-1c.5.4 1.2 0 1.4-.6.4-.9.6-.7.6.3.1.9-.6 2.3-1.5 3s-2 2.4-2.5 3.6c-.5 1.3-2.1 2.9-3.6 3.5-1.6.7-3 1.5-3.3 1.9-.3.3-2.9.8-5.8 1.1-5.6.5-7.4 1.4-5.3 2.7.9.6-.2 2.4-4.1 6.7-9.6 10.7-13.5 15.9-13.2 17.7.2 1.5-.2 1.8-1.8 1.4-1.2-.3-4.4.6-7.7 2.3-3.1 1.6-7.4 3.1-9.6 3.4l-4 .5 4.3-1.1 4.2-1.1v-5.1c0-8.6-.7-9.9-4.9-9.2-7.4 1.1-10.6 1.9-11.3 3-.6.8-.8.7-.8-.1 0-.7-.7-1-1.5-.6-1.2.4-1 .9 1.1 1.9 1.4.8 3.2 1.4 4 1.4 1.9 0 10.4 4.2 10.4 5.2 0 1.1.1 1.1-9.3-2.2-4.7-1.7-9.2-3-9.9-3-1 0-1.5 1.8-1.6 7-.3 6.5-.1 7 1.8 7 1.1 0 3.7-.7 5.7-1.5 1.9-.8 4.5-1.5 5.7-1.5 1.1.1-1.4 1.4-5.7 3l-7.8 2.9-11.2-1.9c-16.5-2.8-21.6-3.9-23.5-4.8-.9-.5-5-1.8-9.1-2.8-5.7-1.4-7.5-1.6-7.9-.6-.2.7-1.2 1.7-2.3 2.2-1.5.8-1.7.7-1.3-.4.3-.8 1.2-1.7 2-2 2.4-.9 1.6-3.1-1.8-5-1.8-1-5.3-2.9-7.8-4.2-2.4-1.3-6.9-4-9.8-6-3.3-2.2-6-3.3-7-2.9-1.4.5-1.5.4-.4-.7 1-1 .8-1.5-1-2.5-1.9-1-2-1.2-.5-1.3 1 0 1.6-.4 1.3-.8-.3-.5.1-.9.9-.9s1.6.6 1.9 1.4c.4.9 3.1 1.3 9.8 1.4 6.4.1 8.4.4 6.3.9-1.6.4-2.7.8-2.2.9 13.7 2.1 22.3 3.2 29.4 3.6 4.8.2 12 1.1 15.8 2 9.3 2 14.5 2 14.5 0 0-.8.6-1.5 1.4-1.5 2 0 2.9 1.7 1.4 2.3-.7.2-1 .7-.7 1.1.8.9 6-1.5 5.4-2.4-.6-1 1.4-2.6 4.5-3.5 2.3-.7 2.4-.6 1.1.9-1.3 1.6-1.1 1.7 2.7 1.3 2.2-.2 4.6.1 5.2.7.7.7 1.3.7 1.8.1.7-1 1.3-1.1 8.7-2 2.1-.3 4.8-.7 6-1 1.1-.2.3.3-1.7 1.2-2.1.8-3.8 1.8-3.8 2.2.1.8 8.7 7.1 9.7 7.1.5 0 1.6-1.2 2.6-2.8.9-1.5 3.7-4.9 6.2-7.5s4.5-4.9 4.5-5.2c0-.2-1.5.1-3.2.6-1.8.5-3.4.9-3.5.9-.2 0 .5-.9 1.4-2 1-1.1 2.8-2 4.1-2 1.2 0 2.5-.8 2.9-1.8.4-.9 2.5-4.6 4.8-8.2 2.4-3.6 4.5-7.7 4.9-9.3.9-3.8 1.8-3.4 1.2.5m-592.8 45.3c-1.6 1.3-2.8 2.8-2.8 3.3s-1.1 1.2-2.5 1.4c-1.4.3-2.5.1-2.5-.3 0-.5-.8-.2-1.9.7-1.8 1.6-15.3 7.4-17.1 7.4-.5 0-6.2 2.3-12.7 5.1s-12.6 5.1-13.6 5.2c-1.2.1-2 1.2-2.4 3-.5 2.3-.8 2.6-1.5 1.3s-2.1-.6-8.8 4.2c-7.8 5.8-16 12.8-16 13.7 0 .5 12.4 9.5 23.8 17.2l8.3 5.5 4.1-4.3c3.9-4.2 4-4.2 1.4-.7-1.6 2.3-2.2 3.8-1.5 3.8 1 0 1 .3.2 1.1-.6.6-.9 1.7-.7 2.3.3.7-.9 1.1-3 1.1-2.7 0-3.2-.3-2.4-1.3.6-.7.9-1.4.7-1.5s-3.8-2.5-7.9-5.1c-4.1-2.7-10.1-6.9-13.2-9.3-3.1-2.3-6-4.3-6.5-4.3-1.2 0-6.3-4.9-6.3-6 0-.6.7-1 1.5-1s5.3-3 9.8-6.8c4.6-3.7 9.7-7.7 11.3-8.9 2.8-2.1 2.8-2.2.7-2.2-3.1-.1-2.9-2.1.2-2.1 1.5 0 2.5-.6 2.5-1.5s.6-1.2 1.5-.8c.9.3 2.6-.3 3.8-1.3l2.2-1.9-2 2.4-2 2.4 3.1-.6c1.7-.3 5.7-1.8 8.9-3.3 3.3-1.4 8.8-3.7 12.4-5.1 14-5.1 19.7-7.7 21.6-9.7 1.1-1.2 3-2.1 4.1-2 1.2.1 3.2-.7 4.5-1.7 3.5-2.7 3.9-2.3.7.6M905 589.6c-3.4 3.3-6.8 6.3-7.6 6.7s-1.4 1.5-1.4 2.3-.4 1.3-.9 1c-1-.7-25.1 22.1-25.1 23.7 0 .7-1.1 1.2-2.4 1.2s-2.2-.3-2-.7c.8-1.2-19.9-16-30.7-22-1.7-.9-3.6-2.3-4.2-3.1-.7-.8-3-2.5-5.2-3.6-3.7-2-3.7-2.1-1-1.6 1.7.3 3.9.7 5 .8s2.3.6 2.7 1.2c1.5 2 49.6 1.4 61.1-.8 1.8-.3 4.5-4 4-5.3-.2-.7 0-1.5.6-1.9.6-.3 1.1-.3 1.1.2 0 .4.4 1.4.9 2.2.7 1.1 1.9.6 5.7-2.7 6.9-6.2 6.5-4.4-.6 2.4m299.2 85.9c1.1 1.4 2.3 2.3 2.8 2 .8-.5 2.4 3 3.4 7.5.4 1.5-.2.8-1.3-1.5-2.3-4.6-2.6-4-.9 1.9 1.1 3.9 3.3 7.8 2.6 4.6-.2-.9.4-1.4 1.4-1.4 1 .1 1.5-.2 1.2-.7s.5-4 1.7-7.9c1.7-5.2 2.8-7 4.1-7 1.5 0 1.4 1-1.6 9.2-1.8 5.1-3.6 10.9-4 12.9-.6 3.1-.9 3.6-3 3.2s-3-2.2-6.5-12c-2.3-6.3-4.1-11.9-4.1-12.4 0-1.7 2.2-.9 4.2 1.6m21.7 6.5c.4 0 1.2-.5 1.8-1.1 1.4-1.4 6.7-.3 8.4 1.7.6.8 1.6 1.4 2.2 1.4s1.8.7 2.8 1.6c1.6 1.4 1.8 1.4 2.9-.5 1.5-2.9 6.7-5.4 9.6-4.7 1.3.4 4.4 1.9 6.9 3.4 5.9 3.5 7.6 8.1 5 13.5-.9 1.9-2.4 3.8-3.3 4.2-1.1.4-.8-.3.8-2 3.1-3.3 3.3-9.4.6-12.4-1.1-1.2-2.1-1.9-2.4-1.6s.2 1.3 1 2.2c.9 1 1.8 2.9 2.1 4.3.6 2.3.5 2.2-.5-.3-1.4-3.1-2.8-3.6-2.8-.8 0 2.5-4 7.3-5.6 6.7-.8-.3-1.1 0-.7 1 .9 2.3 5 1.6 7.2-1.2 1.2-1.5 2.1-2.3 2.1-1.8 0 1.6-4.4 5.4-6.2 5.4-1.1 0-2.9-.5-4.1-1.2-2.1-1.1-2.1-1-.7.7 1.3 1.7 1.3 1.8 0 1-.8-.4-3.4-2.3-5.7-4.2-5.1-4.1-9-4.3-11.6-.7-2.5 3.4-1.4 4.2 2.8 1.9 2-1 3.8-1.5 4.2-1.2.7.8-2.6 4.7-4 4.7-.5 0 .1-.9 1.4-2 2.9-2.3 1.8-2.6-1.6-.4-1.6 1-3.4 1.4-5.1 1-1.8-.5-2.4-.3-1.8.5.9 1.5-.7.6-5.4-2.9-2.2-1.7-3.1-3-2.7-4.1.3-.8.3-1.2-.1-.9-.3.4-1.2.2-1.8-.5-1.3-1.3-2.8-6-1.7-5.3.3.2 1.5-1.6 2.6-4.1 1.2-2.6 2.1-3.8 2.3-2.9s.7 1.6 1.1 1.6"/><path d="M777.3 91.2c.3.7 2 5.8 3.7 11.3s4 12.2 5.1 15l1.9 5 12.8-.1c7-.1 17.7-.2 23.7-.3l11-.1-2.5-2c-1.4-1.1-3.4-2.3-4.5-2.6-1.1-.4-5.6-3-10-5.9-6.9-4.5-39.4-21.5-41.1-21.5-.3 0-.3.6-.1 1.2M775 129.7c-.8.3-5.5 2.1-10.5 4-4.9 1.8-11.3 4.5-14.2 5.8-2.8 1.4-5.8 2.5-6.5 2.5-.7.1-2.8.9-4.7 1.9l-3.4 1.8 3.7 1.3c2.1.7 5 1.8 6.4 2.6 1.5.8 3.5 1.4 4.5 1.4.9 0 1.7.4 1.7 1 0 .5.7 1 1.5 1s3.2.9 5.4 2.1c2.2 1.1 4.6 1.7 5.3 1.3s1-.4.6.1c-1.2 1.3 8.9 5.4 14.6 6.1l5.3.5-.2-3.8c-.1-2.1.4-5.4 1.2-7.3 1.5-3.6 1-8-.8-8-.6 0-.8-.8-.4-1.9.3-1-.1-2.4-1-3.1-1.2-1-1.3-1.5-.4-2.1 1-.6 1-1.1 0-2.3-.7-.9-1.1-2.3-.7-3.1.3-.8 0-1.5-.7-1.5s-2.1-.2-3.2-.5c-1.1-.2-2.7-.1-3.5.2M909.9 131.5c-.3 2.5.2 20.6 1.2 38.5.5 10.7 1.3 27.9 1.7 38.2.8 20.6 1.7 23.5 5.1 17.7 2.5-4.4 6-9.2 8.9-12.7 1.3-1.5 5.7-7 9.7-12.3 4-5.4 8.2-10.6 9.3-11.7s2.8-3.7 3.8-5.7c1.5-3.2 1.6-3.9.3-4.9-.8-.6-1.8-1.9-2.4-2.8-1.4-2.3-15.8-19.9-18.7-22.8-6.1-6.2-15.3-16.8-16.9-19.5-1.1-1.7-2-2.6-2-2M732.7 153.2c-.2.7-.1 3.5.3 6.1s.3 7.1-.2 10c-.9 5.7-1 41.7-.1 41.7.4 0 2.9-1.7 5.7-3.8 9.8-7.4 12.3-9.1 16.6-11.5 2.4-1.4 4.6-2.9 4.7-3.4.2-.6-2.3-4.7-5.7-9.2-3.3-4.4-6-8.4-6-8.7s-1.3-2.5-3-4.9c-1.6-2.4-3-4.7-3-5.1 0-.8-4-4.4-5.1-4.4-.4 0-.5-.9-.2-2 .4-1.4.1-2-.7-1.8-.7.2-1.4-.5-1.5-1.5-.5-2.5-1.1-3.1-1.8-1.5M741.6 154.7c-.9 1 .8 4.3 2.3 4.3 1.2 0 1.3.2.3.9-1.1.7-1.1 1.1.2 2.4.9.8 1.6 2 1.6 2.6s.9 1.1 2.1 1.1c1.5 0 1.9.5 1.5 1.5-.3.9.1 1.8.9 2.1s2 2.1 2.7 4c.6 1.9 1.7 3.4 2.4 3.4 1.4 0 2.7 2.7 1.4 3.2-.5.2-.2 1.2.6 2.2 1.2 1.7 1.4 1.8 1.4.3 0-2.1.8-2.1 3.2 0 1.1.9 1.8 1.1 1.8.5 0-.7.9-.3 2 .8s2.4 2 2.9 2c1.1 0 2.4-3.1 1.6-3.8-.3-.3-.5 0-.5.5 0 1.2-2.5 1.2-3.6 0-.3-.3-.4-1.7-.1-3 .6-2 1.1-2.2 4.2-1.9 3.2.4 5.1 2.2 2.3 2.2-1 0-.9.3.1.9 1.6 1 5.1.3 5.1-1.1 0-.5.4-.7.9-.4.5.4.7-.2.4-1.3-.3-1 0-2.2.6-2.5.7-.4.8-.1.5.8s-.2 1.6.3 1.6.9-.9 1-2-.2-2-.8-2c-.5 0-.9-.4-.9-1 0-.5.8-.6 1.7-.3 1.2.5 1.1.1-.5-1.5-1.2-1.2-2.2-2.7-2.2-3.3s-.8-.8-1.8-.5c-1.2.4-2.8-.4-4.7-2.4-1.6-1.6-3.3-3-3.9-3-1.4 0-11.9-4.3-12.6-5.1-1-1.3-13.4-3.2-14.4-2.2M966 162.8c-6.1 7.4-11 14.2-11 15.4 0 .7.9 2.6 2.1 4.3 1.1 1.6 2.7 4.3 3.5 6 1.4 2.7 1.3 2.6-1.6-.8-1.7-2-3.5-3.7-3.9-3.7-1.2 0-1.3 18.4-.2 28.1.5 4.6 1.3 11.8 1.6 15.9.4 4.1.9 7.7 1 7.8.2.2 2.3-1.4 4.6-3.6l4.3-3.9-2.2-6.9c-1.1-3.8-2.4-8.7-2.7-10.9-.4-2.2-1.5-6.4-2.6-9.3-1-2.9-1.9-6-1.9-7 .1-3.1 4.3 7.2 5 12.4 1 6.3 4.2 17.4 5.1 17.4.8 0 2-9 2-15.6.1-2.7-.6-6.9-1.5-9.4-1.8-5.2-1.6-5.8.9-3 2 2.3 2.5 10.6 1.3 25.4-.5 6-.3 8.7.8 10.8 1.7 3.3.2 3.8-2 .6l-1.5-2.1-4.5 3.6c-4.7 3.9-4.8 4.3-2.4 9.7 4.6 10.5 6.3 16 4.9 16-.6 0-1.4-1.2-1.7-2.8-.4-1.5-1.3-3.6-1.9-4.7-.7-1.1-1.5-3.5-1.9-5.3-.3-1.8-1.3-4-2.1-4.8-1.7-1.8-2-.2-.5 2.7.7 1.3.7 1.9 0 1.9-1.3 0-1.3 7.7 0 8.5s1.3 4.5 0 4.5c-1.6 0-4.7 7.2-5.2 12.1l-.5 4.7 8.1-4.3c9.2-4.9 8.2-2.5 8.5-21.9.1-13.7 1.3-13.2 1.5.6.1 12.4.8 13.9 4.5 10.6l2.6-2.3-2.2 2.6c-2.9 3.2-2.9 5.3.2 11.7 1.4 2.9 2.5 5.6 2.5 6 0 1.4 12.1 23.6 13.2 24.4.9.5.8 1.1-.2 2.3-1.2 1.4-1.6.9-3.9-4.2-1.4-3.2-4.5-9.2-6.9-13.4-2.3-4.2-4.2-8.2-4.2-8.8s-.4-1.1-.9-1.1-1.3-1-1.6-2.3c-.4-1.2-1.3-3.2-2.1-4.4-1.4-2.2-1.5-2.2-5.7-.6-4.6 1.9-12.9 7.3-13.4 8.9-.2.5 2.6 2.5 6.2 4.3s8.2 4.7 10.2 6.4l3.6 3.2-.7-8.2c-.4-4.8-.2-8.4.3-8.7 1.1-.7 1.8 2.3 2.7 11.9.4 4 1.3 7.7 2.2 8.7 1.4 1.6 1.3 1.8-.3 1.8s-1.7.8-1.1 9.2c.4 5.1 1 10.9 1.4 12.8l.8 3.4 1.8-2.4c1.9-2.6 1.8-2.2-.7 4-.8 2.2-.5 3.4 2.4 7.8 1.9 2.8 3.7 5.2 4 5.2s.6-2.1.8-4.7c.3-5.9 1.1-7 1.1-1.5 0 4.5.8 7.2 2.1 7.2.5 0 .9-2.9.9-6.4 0-3.6.9-10.4 2.1-15.3 2.3-9.8 2.3-12.1-1.1-33.3-1.2-7.4-2.5-17.8-2.9-23.1-.9-10.3-2.1-14.2-3.1-9.9-.5 2.1-.8 1.8-2.2-2.5-.9-2.8-2-5.9-2.4-7-.7-1.9-.7-1.9.9-.3.9.9 1.7 2.1 1.7 2.7s.5 1.1 1.1 1.1c.5 0 .8.4.4.9-.3.5-.1 1.2.5 1.6s1-1.1 1-4c0-2.5-.4-4.4-.9-4.1s-1.1-1.1-1.4-3.2c-2.4-16.9-3.7-28.8-3.3-29.8.3-.7-.2-3.6-1-6.6-.7-2.9-1.4-6.9-1.4-8.9 0-1.9-.4-3.9-.9-4.5-.4-.5-1.4-3.8-2.1-7.4-.8-3.6-2-7.1-2.7-7.8-.7-.8-1.1-1.8-.8-2.3.4-.5.1-.9-.4-.9-.6 0-1.1-2-1.1-4.5 0-4.9-.7-5.5-3-2.7M787.1 178.9c-1.1.7-1.1 1 0 1.5.8.3.5.4-.6.1-1.4-.3-3.2.5-5.3 2.5-1.8 1.6-4.4 3.3-5.8 3.6-1.3.3-2.4 1-2.4 1.4 0 .5-1.5 1.4-3.4 2-6.4 2.1-6.4 2.8.6 15.4 3.4 6.4 6.6 11.6 6.9 11.6.4 0 1.2-1.5 1.9-3.3.7-1.7 1.6-4.1 2-5.2 2.6-6.6 8.1-24.7 8.5-28 .2-2.7-.2-3-2.4-1.6"/><path d="M949.5 187.7c-1 1.6-2.4 3.2-3.2 3.6-.7.4-3 3.4-5.2 6.5-2.1 3.1-5.4 7.5-7.2 9.8-1.9 2.2-4.3 5.3-5.4 6.9-1.1 1.5-3.1 4.2-4.5 5.9-4.2 5.2-6.7 9-7.4 11.4-.7 2.1-.4 2.2 4.6 2.3 2.9 0 6.2.2 7.3.4s6.5.7 12 1c5.5.4 11.1.7 12.5.8 2 .2 2.4-.2 2.3-1.8-1-8.1-2.2-28.9-2.3-38.3 0-6.1-.4-11.2-.9-11.2s-1.7 1.2-2.6 2.7M759.5 197c-1 1.1-2.3 2-3 2-.6 0-4.2 2-7.9 4.5-3.8 2.5-7.1 4.5-7.4 4.5-.2 0-1.9 1.3-3.7 2.8l-3.2 2.9 8.6 1.7c12.3 2.5 28.4 5.6 29.5 5.6 2 0-.6-7.6-5.7-16.5-5.3-9.3-5.5-9.4-7.2-7.5M734.4 216.6c-2.8 1.2 6.5 27.4 9.7 27.4 1.4 0 13.1-7.1 21.8-13.4l8.4-6-3.4-1.1c-1.9-.7-5.6-1.5-8.4-1.9-2.7-.4-8.6-1.5-13-2.6-10.4-2.4-13.8-3-15.1-2.4M885.6 221.7c-.4.9-1.4 1.2-3.3.7-3.9-.8-8.7-.5-9.1.6-.2.6-.8.8-1.3.4-.5-.3-.9 0-.9.7 0 .6-.7 1.7-1.5 2.3-2.3 1.7-.8 5.6 2.1 5.6 1.3 0 2.4-.5 2.4-1 0-.6-.4-1-1-1-.5 0-1-.5-1-1 0-.6.6-1 1.4-1s1.7-.8 1.9-1.8c.4-1.6.5-1.6.6 0 0 1 .6 1.8 1.1 1.8.6 0 1 .8 1 1.9 0 1.6 1.1 1.9 9.3 2.5 13.7.9 20.6 1 21.2.4.3-.3-.6-.8-2-1.2s-2.5-1.3-2.5-2.2c0-1.1-.9-1.4-3.2-1.2-2.6.2-3.5-.2-4.3-2-.5-1.2-1.8-2.5-2.7-2.8-1-.3-1.8-1.1-1.8-1.9 0-1.8-5.7-1.7-6.4.2M771.9 229.7c-.1.5-.1 1.2 0 1.6.1.5-.3.6-.9.2-1.1-.7-7 2.4-7 3.7 0 .4-.6.8-1.3.8-.8 0-2.2.9-3.2 2s-2.3 2-3 2c-1.4 0-9.5 5.9-9.5 7 0 .9 12.9 6.5 17.5 7.5 1.7.4 5.5 1.6 8.6 2.6 3 1 5.9 1.9 6.3 1.9 1.8 0-2-25.9-4.1-28.2-1.7-1.9-3.2-2.3-3.4-1.1M808.5 235.4c-1.6 1.2-1.8 1.9-.9 5.2.6 2.3 1.5 3.8 2.3 3.6.7-.1 1 .1.7.6-.4.8 4.5 7.2 13.6 17.7 1 1.1 4.7 5.8 8.4 10.5 7.8 10 12.5 15 14 15 .7 0 1.4-2.5 1.7-5.8.3-3.1 1.3-10.7 2.2-16.7.8-6.1 1.7-15.2 1.8-20.3.1-5 .5-9.2.9-9.2.5 0 .8-.5.8-1 0-.6-7.9-1-21.8-1-17 0-22.2.3-23.7 1.4M857 235c0 .7 1.3 5.1 3 9.8 1.6 4.8 4.1 13 5.4 18.2 4 15 5.3 19.8 5.9 20.7.4.6.9 2.5 1.2 4.4s1.4 5.6 2.4 8.4c1 2.7 2.2 6.9 2.6 9.2.4 2.4 1.1 4.5 1.6 4.9.5.3.7 1 .4 1.5-.8 1.2 4.1-.9 8.6-3.8 1.9-1.3 8.7-4.7 15-7.6s12.4-6 13.7-6.8l2.2-1.6-2.5-21.4c-1.4-11.8-2.8-23.4-3.1-25.9l-.6-4.5-3.3 6.5c-1.8 3.6-4.2 8.3-5.3 10.5-5.3 10.3-10.5 22-13.7 31.1-2 5.4-4.2 11.2-5 12.9-.7 1.6-1.6 4.3-2 6-.4 1.6-.9 2.5-1.1 2-.5-1.4 1.3-7.1 6.9-21.7 4.4-11.1 6.7-16.3 16.9-37.8 6.9-14.3 6.9-13.7-1.6-14.4-17.9-1.4-47.6-1.7-47.6-.6M914.5 237.1c-.3.8.4 8.6 1.5 17.4s2.5 19.8 3.1 24.5c.9 7.5 2.1 11.3 3.2 9.9.2-.2 4.8-6.9 10.2-14.9s11-16.3 12.5-18.5c7.1-10.4 9.7-15 9.3-16.1-.2-.7-4.1-1.4-9.6-1.8-29.2-1.9-29.6-1.9-30.2-.5M855.3 240.6c-.6 1-1.3 5.9-1.6 10.9-.8 10.7-3.5 35.7-4.2 38.8-.5 1.8.5 2.9 5.6 6.2 3.4 2.2 9.1 6.4 12.7 9.2 6.6 5.3 9.2 6.4 9.2 4 0-.6-1.3-5.5-3-10.7-1.6-5.2-3-10.5-3-11.8s-.6-3.5-1.4-5c-.7-1.5-3-8.6-5-15.7-6.6-23.5-8.2-28.1-9.3-25.9M952.2 247.2c-.7.7-1.2 1.8-1.2 2.5s-.4 1.3-1 1.3c-.5 0-1 .6-1 1.3 0 .8-.9 2.2-2 3.2-1.2 1.1-2.7 3.3-3.5 4.9-.8 1.7-3.2 5.3-5.3 8.1-4.3 5.8-12.6 19.5-12 20 .2.2 5.3-1.9 11.4-4.7l11-5.1 1.8-8.1c1.3-5.9 3.6-24.6 3.1-24.6-.1 0-.6.5-1.3 1.2M937.5 285.8c-10.7 5-14.5 7.1-14.5 8.1 0 .8 15 8 19.6 9.5 1.8.6 2.2 0 3.2-4.6 2.1-10.1 2.6-16.8 1.1-16.8-.8 0-5 1.7-9.4 3.8M948.5 294.1c-.9 6-1.6 11.1-1.4 11.3s5.4-1.3 11.4-3.3c7.5-2.4 11.1-4.1 11.3-5.2.3-1.4-9-8-18.4-13.2-.7-.4-1.7 3.1-2.9 10.4M828.2 285.5c.4 2.1-2.6 6.5-4.4 6.5-1 0-1.8.7-1.8 1.5s-.4 1.5-1 1.5c-.5 0-1 1.8-1 4s.2 4 .5 4 3.1-1.3 6.2-2.8c3.2-1.5 8.4-3.4 11.6-4.1 3.1-.8 5.7-1.7 5.7-2.1 0-1.9-8.1-5.9-11.9-6-.8 0-2-.8-2.8-1.8-.7-.9-1.2-1.3-1.1-.7M842 297.5c-4.1 1.2-9.5 3-12 3.9-2.5 1-5.3 2-6.2 2.3-3.4 1-1.7 3.2 8.4 10.5 5.6 4 11.8 8.8 13.8 10.5 2.1 1.8 4.3 3.3 5 3.3q1.2 0 .6-3.3l-.6-3.2 1.6 3.4c.9 1.9 1.9 3 2.2 2.5.4-.5 5.6-3.4 11.5-6.3 5.9-3 10.6-5.7 10.5-6.1-.3-.6-6.5-6.1-11.4-10-3-2.4-12.8-8.6-14.4-9.2-.8-.3-4.9.5-9 1.7M917.5 299.7c-1.6 4.2-4.5 9.6-4.5 8.3 0-.3.9-2.9 2-5.9 1.2-2.9 1.9-5.5 1.7-5.7-1.1-1.1-29.4 13.4-33.9 17.4-1.6 1.3-1.6 1.6.5 3.3 1.2 1 1.7 1.8 1 1.9-.6 0-1.5-.5-1.8-1-1.4-2.2-2.3-.7-3 4.7-1.1 8.8-1.1 27.7 0 28.5 1.6 1.2 3.2.9 5-.9 1.6-1.6 1.6-3.3 0-10.8-.3-1.1.6.2 1.9 2.9 2.4 4.7 2.4 4.8 3.7 2.5.6-1.3 3.2-5 5.6-8.1 2.3-3.1 4.3-6.3 4.3-7.1 0-.9-1.2-2.5-2.7-3.7l-2.8-2.2 2.7 1.6c4.1 2.4 6.7 2 7.9-1.2 1.2-3.4 6.3-13.2 6.6-12.8.1.1-.6 2.6-1.7 5.4-3 8-2.8 8.4 3 5.6 2.7-1.3 5.2-2.4 5.4-2.4.3 0 4.2-2.1 8.8-4.8 4.7-2.6 9-4.8 9.8-5 .7-.2 2.4-.9 3.8-1.6l2.4-1.3-2.8-1.8c-4.2-2.7-19.1-10.5-20.2-10.5-.5 0-1.7 2.1-2.7 4.7M790 298.8c0 .6 1.6 3.8 3.5 7.1 2.8 4.8 4.1 6.1 6 6.1 1.3 0 2.6.4 2.9.9.3.4 2.6 1.1 5.2 1.5 2.6.3 5.2 1.1 5.9 1.6.9.8 1.6.2 2.5-2 2.3-5.6 3.6-5.4 3.3.6-.1 4.1.3 5.9 1.5 7 .9.8 2 1.4 2.4 1.4s1.9 1.1 3.3 2.4c1.6 1.5 4.3 2.5 7.7 3 6.7.8 13.8.8 13.8 0 0-1.9-29.3-21.6-30.1-20.2-.3.5-.8.1-1.1-.9-.4-1.6-6.9-4-25-9-1-.3-1.8-.1-1.8.5M969 300c-.8.5-5.8 2.4-11 4.1-5.2 1.8-10.6 3.9-12 4.8-2.8 1.8-4.2 6.8-1.7 5.8.9-.3 3.2.3 5.3 1.3l3.8 2 3-2.5c1.7-1.3 4.6-3.6 6.4-5 1.7-1.5 3.2-2.4 3.2-2.1 0 .5-.7 1.3-6.2 7.2l-3.7 3.9 4.1.2c2.8.2 4.7 1 6.4 2.8 1.3 1.4 2.7 2.5 3.2 2.5.6 0 1.3.7 1.6 1.6 1.1 2.9 2.6.3 2.6-4.5 0-10.4-1.3-23.1-2.4-23.1-.6 0-1.8.5-2.6 1M865.2 323c-5.6 2.7-10.5 5.6-10.8 6.4-.7 1.8 5.6 17.8 6.9 17.3 1.7-.5 15.1-26.1 14.5-27.7-.2-.5-4.9 1.3-10.6 4M873.9 329.2c-1.3 2.3-3.8 7.4-5.7 11.3-1.8 3.8-3.8 7.3-4.3 7.6-1.9 1.2 6.2 3.4 10.9 3 .9-.1 1.2-2.9 1.2-10.5 0-5.8.4-10.7.9-11 1-.6.9-3.1-.1-4.2-.4-.3-1.7 1.4-2.9 3.8M830.3 330.6c-.7.3-.9 1.3-.6 2.2.9 2.2 15.6 17.2 16.9 17.2.6 0 1.6-1 2.2-2.3 1.1-2.1 1.2-2.1.9-.1-.1 1.1.4 2.8 1.2 3.7.7 1 .9 1.7.3 1.7-1.8 0-2.1 2.7-1.1 12.2 1.1 10 1.2 17.1.3 20.3-.5 1.6-.4 1.7.6.8 1.2-1.1 3.1-8.1 3.1-11.5 0-1 .4-2 1-2.3.5-.4.9-2.1.9-3.8 0-1.8.7-5.4 1.5-8.2 1.4-4.6 1.4-5.1-.2-6.2-1.6-1.2-1.6-1.3 0-1.3 3 0 2.8-2.2-1.1-12.6l-3.7-10-10.5-.2c-5.8-.1-11 .1-11.7.4M983 368.9c-.5 1.1-1 2.7-1 3.5 0 .9-.5 1.6-1 1.6-.6 0-3.3 2.2-6.1 5-2.7 2.7-5.4 5-5.9 5-.6 0-1 .7-1 1.5s-.9 1.5-2 1.5-2 .5-2 1.1c0 .7.9.9 2.3.5 1.2-.3 5.4-.9 9.2-1.2 3.9-.4 7.3-1.1 7.7-1.7.3-.6.9-3.8 1.3-7.1.3-3.4.8-7.3 1.1-8.9.6-3.1-1-3.7-2.6-.8M858 372.5c0 .3-1.6 6.8-3.6 14.3-4.7 17.4-6.3 24.9-6.4 28.7 0 2.4 2 5.4 9.9 14.5 5.4 6.3 10.9 12.5 12.3 13.8l2.5 2.3.2-6.8c.1-3.9-1-14-2.8-24.3-2.6-14.9-3.9-23-5.6-34.5-.2-1.1-.4-2.5-.4-3.2-.1-1.2-6.1-5.9-6.1-4.8M969.1 390.6c-5.2 1.1-9.6 2.5-9.8 3.1-.5 1.3 3.3 18.2 4.2 19.1.3.4 1 0 1.5-.8s3-3.8 5.5-6.5c3.9-4.2 11.5-15.2 11.5-16.7 0-.8-3.7-.3-12.9 1.8M944.4 402c-2.5 1-4.1 3-2.5 3 .6 0 1.1-.5 1.1-1.1 0-.5.5-.7 1-.4 1.7 1.1.2 2.2-3.7 3l-3.8.7 3 1.6c1.7.8 2.5 1.7 1.8 1.9s-2 0-3-.5-2.7-.6-3.7-.3c-2.2.8 7.5 2.7 19.1 3.7l7.3.6-.7-3.4c-.3-1.8-1-4.3-1.4-5.6-1-2.6-4.1-4.2-4.7-2.4-.3.9-.9.9-2.3.2-1.4-.8-1.9-.7-1.9.2-.1.8-.5.7-1.4-.5-1.5-1.9-1.3-1.9-4.2-.7M800.8 413.5c-.2.3-6.9 1.2-14.9 2-7.9.9-15 1.8-15.6 2-.8.3.9 3.7 4.8 9.5 3.3 5 6.4 9 6.8 8.8 1.3-.4 23.1-21.5 23.1-22.2s-3.5-.8-4.2-.1M846 425.7c-.6 2.1-1.5 4.7-2 5.8-1.4 3.6-3 10.2-3 12.8 0 1.4-.4 2.8-.9 3.1-.4.3-.6 1.7-.3 3.2l.5 2.6 10.1-.7c5.5-.4 12.9-1 16.4-1.4l6.2-.6-4.2-4.9c-12.7-14.7-20.2-23.1-20.9-23.4-.4-.2-1.2 1.4-1.9 3.5M790.4 481.2c-5.7 5.6-10.4 10.5-10.4 10.8 0 .8 28.4 17 29.7 17 .9 0 5.3-6.2 5.3-7.5 0-.5 1.2-2.6 2.6-4.6 2.5-3.6 2.5-3.8.8-7.1-1.8-3.4-10.3-14-11.8-14.7-.5-.2-1.7-1.2-2.7-2.2-1.1-1.1-2.2-1.9-2.5-1.9-.4 0-5.3 4.6-11 10.2M394.4 97.6c1.5 8.3 7.1 25.4 8.3 25.4.7 0 1.3.7 1.3 1.5 0 2.1 3.9 5.8 5.5 5.1.8-.3 1.6.3 1.8 1.2.3 1.3.7.9 1.7-1.3 1-2.4 1.4-2.6 1.7-1.2.5 2 2.8 1.8 2.8-.3 0-.7 1.5-2.8 3.3-4.6 1.9-1.9 3.1-3.8 2.7-4.4s-.2-.9.3-.8c1.4.4 8.3-7.2 8.5-9.3.1-.9.7-1.5 1.4-1.2 2.4.9 1.3-.6-1.4-2.1-2.9-1.4-34.8-10.6-37.1-10.6-.8 0-1.1.9-.8 2.6M374.5 100.2c-4.4 2.3-12.5 6.1-18 8.5-5.5 2.5-17.2 8-26 12.2-8.8 4.3-16.9 8.1-17.9 8.4-1 .4-1.6 1-1.3 1.3.9.9 41.7-1.5 43.7-2.6.9-.5 3.4-2.8 5.5-5.2s8.7-9.4 14.6-15.6c6.4-6.6 10.1-11.2 9.1-11.2-.9.1-5.3 1.9-9.7 4.2M498 100.1c-4.1.5-13.1 1.5-20 2.4-6.9.8-17.6 1.9-23.8 2.4-6.3.5-11.6 1.1-11.8 1.4-.5.5 30 13.8 41.5 18.2l7.5 2.8 2.5-3c11.9-13.7 20.1-23.8 20.1-24.5 0-1-5.7-.9-16 .3M325 131.7c-10.4.4-15 1.3-15 2.8 0 .8 2.5 6.6 5.5 12.9s5.5 11.9 5.5 12.5.7 1.1 1.5 1.1c.9 0 2 1.1 2.5 2.5.8 2.2 1.3 2.4 3 1.5 1.1-.6 2.5-.8 3.2-.4.6.4.9.1.6-.7-.5-1.5 1.4-3.9 3.1-3.9.6 0 1.1-.5 1.1-1.1s1.2-3 2.8-5.3c1.5-2.2 3.3-5.3 4.1-6.9.8-1.5 1.8-2.7 2.3-2.7.4 0 .8-1.4.8-3.1 0-1.6.4-2.8.9-2.5 1.2.8 2.2-2 1.4-4.1-.5-1.2-.2-1.5 1-1 .9.3 1.7.2 1.7-.3 0-.9-15-1.7-26-1.3M306 200.8c-9.6 9.8-20.9 21.3-25 25.6l-7.5 7.7 16-.6c8.8-.4 17.5-.8 19.3-.9 1.7-.1 3.2.1 3.2.4 0 .4-5.1 1-11.2 1.4-18.4 1-28.3 1.8-28.8 2.3-.8.8.2 49.8 1.1 51.3.5 1 .8 1.1.9.2 0-.6.7-1.2 1.6-1.2.8 0 1.3-.4 1-.9-.9-1.4 2-7.1 6.2-12.2 2-2.5 8.4-10.8 14.2-18.3 5.7-7.6 10.6-13.3 10.8-12.7s-2.5 4.7-6 9c-15.6 19.3-25.4 32.8-24.5 33.7.7.7 14.1-7.4 16.4-9.8 4.5-5 14.4-27.2 14.7-33 0-1.4 1.1-3.7 2.4-5 1.2-1.4 2.2-3.1 2.2-3.9s.4-1.9.9-2.5c1-1.1 8.4-33 9.5-41.5.3-2 .8-4.3 1.2-5.2.3-1 .2-1.7-.2-1.7-.5.1-8.8 8.1-18.4 17.8M406 212.1c-13.3 1.3-15.2 1.8-14.6 3.5.3.8.2 1.2-.4.9s-.9 9.3-1 25.2c0 29.7.8 47.5 2.3 47 .5-.1 4-5.9 7.7-12.7 3.7-6.9 9-16.5 11.9-21.3 5.1-8.7 20.9-38.4 22.3-41.9.7-1.7-.1-1.8-9.5-1.7-5.6.1-14 .5-18.7 1M311.8 242.8c-5.2 11.2-10.8 24.3-10.8 25.1 0 .5-.7 1.4-1.5 2.1-3.3 2.8-1.2 2.8 3.5 0 2.8-1.7 5.4-3 5.9-3 .4 0 2.8-1.6 5.3-3.5 4-3.1 4.5-4 4.2-7-.3-4.3-3.6-17.5-4.4-17.5-.3 0-1.3 1.7-2.2 3.8M383.7 241.6c-.3.3-.3 1.3 0 2.2.4 1.3.3 1.4-.5.3s-1.3-1-3.1.5c-1.1 1-2.1 2.6-2.1 3.6 0 2.2-1.5 3.1-4.1 2.3-1.4-.5-1.8-1.2-1.4-2.3.5-1.4.4-1.4-.6-.5-1 1-.9 1.6.4 3 .8 1 1.7 2.2 1.8 2.8.6 3.1 2.2 6.5 3 6.5.5 0 .9 1 .9 2.3 0 3 3.4 10 4.4 9 .4-.4.4 0 0 1-.3.9-.2 1.7.3 1.7.6 0 1.6 2.5 2.3 5.5 3 12.6 4.4 5.3 3.4-18.8-.6-16.8-1.1-19.6-3.5-19.7-.3 0-.8.3-1.2.6M351.5 251.4c-19.4 7-19.8 7.2-18.5 9.6.6 1.1.8 2.5.4 3.1-.4.8.1.9 1.5.4 1.6-.5 2.6-.1 3.6 1.1.7 1.1 1.2 2.2.9 2.5-.3.5 15.9 8.3 17.6 8.4.3.1 2.1 1.1 4 2.3s4.2 2.1 5 1.9c.8-.1 2 .3 2.5 1.1.6.7 2 1.4 3.2 1.5 1.2 0 1.9.5 1.7.9-.6 1 8.4 5 9.6 4.3.4-.3 1.1.2 1.4 1.1.4.9.9 1.4 1.2 1.2.3-.3-.2-2.3-1.2-4.4-.9-2.2-2.7-6.6-3.9-9.9-3.1-8.2-6.9-16.9-7.6-17.5-.3-.3-1.7-3.1-3.2-6.3-1.8-3.9-3.1-5.7-4.4-5.6-1 0-7.2 2-13.8 4.3M308 269.2c-4.7 2.7-8.8 5.5-9.2 6.1s.1 2 1 3c2.2 2.5 14.1 11.5 12.4 9.5-.9-1.1-.9-2.2-.3-3.9.5-1.3 1-1.8 1-1 .2 2.7 1.2.3 2.6-5.5 2.1-9.6 2.6-13.4 1.8-13.3-.4 0-4.6 2.3-9.3 5.1M292.9 289.4c-2 6.1-3.5 11.3-3.3 11.5.4.4 19.2-7.7 20.6-8.9.4-.3-2.5-3.5-6.5-7.1l-7.2-6.6zM288.3 281.3c-1.7 1.2-5.6 3.7-8.7 5.6-3 1.9-5.4 3.9-5.3 4.4.3 1.6 13 9.8 13.7 9 .4-.5 1.3-3.1 2-5.8.6-2.8 1.8-6.7 2.6-8.8 2.6-7.1 1.5-8.3-4.3-4.4M316 294.1c0 1.2 4.3 8 9.3 14.6 3.4 4.5 4.4 5.3 7.3 5.3 2.3 0 3.8-.7 4.9-2.3 1.7-2.2 1.7-2.2 1.1 1.4-.6 3.5-.6 3.5 4.9 5.8 3 1.2 5.8 2.3 6.2 2.3s2.4 1.3 4.4 2.9 3.9 2.9 4.3 2.9c1.1 0-1.5-5.4-6.6-13.8-2.7-4.6-4.8-8.5-4.6-8.7.4-.4 7 9.6 16.7 25.2 1.4 2.3 2.8 4.2 3.1 4.2.3.1 2.3-3 4.4-6.7 6.6-11.3 14.7-23.2 15.8-23.2.6 0-.5 1.9-2.4 4.2-3.6 4.5-15.8 25.8-15.8 27.7 0 .6.3 1.1.8 1.1.4 0 6.6.9 13.7 2 7.2 1.1 13.4 2 13.8 2 .8 0 .2-6.2-1-10.4-.3-1.1-.1-1.6.5-1.2.5.3 1.2 2.4 1.6 4.6.3 2.2 1.1 4 1.7 4s.9.7.5 1.5c-.3.8-.3 1.5-.1 1.5.5 0 17.6-7.8 29.4-13.5l8.4-4.1-8.9-5.1c-4.9-2.8-12.7-7.1-17.4-9.6s-11-5.9-13.9-7.6c-5.6-3.3-6.4-3.2-9.9.9-1 1.2-1 1-.2-1.3.6-1.6.8-3.2.6-3.5-.5-.8-42.8.6-43.5 1.4-.3.3 0 1.4.7 2.4.7 1.1.8 2 .3 2s-1.2-.7-1.5-1.7c-.6-1.4-.8-1.4-2.1.3-1.4 1.8-1.5 1.7-.9-.8.7-3.1 1.7-2.7-13.6-5.3-5.2-.9-10.1-1.8-10.7-2.1-.7-.2-1.3.1-1.3.7M232.9 299.7c1 3.3 5.4 13.7 7.3 17.3 2.8 5.2 2.8 5.3 5.9 1.8 2.7-3.1 3.9-7.8 2-7.8-.5 0-3.9-3.2-7.7-7-3.7-3.9-7.1-7-7.5-7s-.4 1.2 0 2.7M435 327.3c-1.4.6-7 3.3-12.5 6-5.5 2.8-12.2 6.1-15 7.5-4.5 2.2-4.8 2.5-3.1 3.7 1 .8 2.4 1.1 3.2.8.9-.3 1.2 0 .9.8-.3.9 1.5 2.7 4.8 4.7 2.8 1.9 7.5 5.1 10.2 7.3 4.9 3.8 11.2 6.9 9.9 4.8-.3-.5-.1-1.5.4-2.2s1.2-4.1 1.5-7.7c.4-3.6 1.1-11 1.6-16.4.6-5.5 1-10 .8-10.2-.1-.1-1.3.3-2.7.9M368.1 348.2c.1 5.1-.3 10.5-.9 12-.7 1.6-.7 2.8-.2 2.8.4 0 1.1-.8 1.3-1.8.4-1.6.5-1.6.6 0 .1 1.1.9 1.8 2.1 1.8 2.1 0 2.7 1.5 1 2.5-.5.3-1 1-1 1.6 0 .5.9.4 2-.3s1.9-1.7 1.7-2.3c-.2-.5.4-1.9 1.4-2.9 1.3-1.3 1.9-1.5 1.9-.6 0 .7 3.3-1.9 7.3-5.8 3.9-3.9 8.3-7.9 9.7-9 1.6-1.3 2.1-2.4 1.5-3-1.1-1-20.5-4.2-25.5-4.2h-3.1zM400 347.4c0 2.2-7.8 33.9-9.6 38.9-.8 2.2-1.4 4.4-1.4 4.9 0 1.5 4-.1 10-4 3-2 8.4-5.2 12-7.1 18.1-10 21-11.7 21-12.6-.1-1.2-27.7-20.6-30.2-21.3q-1.8-.45-1.8 1.2M288.3 381.8c-2.4.2-3.3.8-3.3 2.2 0 1-.9 2.1-1.9 2.5-2.5.8-3.4 5.7-2.2 12 .5 2.7.7 5.3.5 5.7-.6 1 7.4.9 13.6 0 5.3-.9 5.3-1.3 1.8-12.7-2.5-8.3-4.1-10.2-8.5-9.7M333.5 384.9c-1.1.5-2.8 1.8-3.8 2.9-1.7 1.8-1.7 2.8-.8 9.7.6 4.2 1.1 7.9 1.1 8.2 0 .2 1.7-1.3 3.8-3.4s5.4-5 7.4-6.5c4.5-3.4 6.4-8.1 4.2-10.3-1.7-1.6-8.5-1.9-11.9-.6M317.9 393.4c-3.5 2.9-7.4 6.4-8.7 7.8l-2.2 2.5 7.7 1.6c4.3 1 8.9 2 10.2 2.4l2.4.6-.6-9.3c-.3-5.1-1-9.7-1.4-10.1-.5-.5-3.8 1.5-7.4 4.5M348 392.9c-6.3 4.7-14 12-14 13.2 0 .9.9.7 11.5-1.6 6.8-1.5 7.2-1.8 8.8-5.6 1.9-4.4 2.2-6.9.8-6.9-.5 0-1.1-.7-1.3-1.6-.2-1.3-1.5-.8-5.8 2.5M236.8 442.7c-1.6.2-2.8.8-2.8 1.3 0 .6-1.1.5-2.6 0-3.9-1.5-1.9.7 2.9 3.2 2.3 1.1 6.1 3.4 8.5 5l4.2 2.9 8.3-3.6c17.2-7.6 17.5-8.5 2.5-8.6-6.2 0-12.9-.2-14.8-.3-1.9-.2-4.7-.1-6.2.1M262.4 483.8c-3.1 6-3.9 8.3-3.3 10.4.4 1.5.3 4.3-.1 6.2-.8 3.5-.7 3.6 6.1 8.1 3.7 2.5 7.1 4.5 7.4 4.5s.5-4.7.5-10.4c0-8-.4-10.8-1.5-12-.8-.8-1.5-2.7-1.5-4.3-.1-1.5-.9-4.5-1.8-6.6l-1.8-3.7zM289 483.5c0 1.3-1.8 6.3-7.1 19.7-3 7.3-2.6 8.4 1.9 5.1 2-1.5 5.7-4.6 8.1-6.9l4.5-4.2-1.8-4.8c-3.4-9.4-3.8-10.4-4.7-10.4-.5 0-.9.7-.9 1.5M879 597.7c-4.1.2-8 .9-8.7 1.4-.9.8-1.1 3.5-.6 10.2.3 5.1.6 9.3.7 9.4 0 0 5.3-4.8 11.6-10.8 11.4-10.7 11.5-10.9 8-10.7-1.9.1-6.9.4-11 .5"/></svg>