<svg xmlns="http://www.w3.org/2000/svg" width="1706.667" height="960" viewBox="0 0 1280 720"><path d="M0 360v360h512.8l.5-2.2c.7-3.1 3.2-9.6 3.9-10.3.8-.8-.3 4.8-1.2 6-.4.5-1 2.2-1.4 3.7-.6 2.6-.4 2.8 2.7 2.8 3.7 0 8.3-3.9 7.4-6.3-.6-1.5 4.4-7.7 6.2-7.7.6 0 1.1-.5 1.1-1.1s.7-.9 1.5-.5c.8.3 1.5.1 1.5-.5s.6-.7 1.3-.4c.6.4.5.1-.4-.7-2.8-2.4-3-4.6-.4-6.7 1.4-1 2.5-2.4 2.5-3s.8-1.1 1.8-1.1c1.1 0 2.7-.9 3.6-1.9 2-2.2 5.6-3.4 5.6-1.9 0 .5.7.3 1.5-.6 2-1.9 1.9-2.3-.5-2.9-1.1-.3-2-1-2-1.6s.9-1.1 2-1.1 2-.5 2-1c0-.6.8-1.8 1.8-2.8 1.8-1.8 4.5-8.2 5.6-13.5.7-3.1 2.6-3.7 2.6-.7 0 1.1-.4 2-.9 2-.8 0-1.5 2.2-2.8 9.7-.5 3.1-.3 3.3 2.3 3.5h4.7c1-.1 1.6.2 1.3.7-.9 1.4 1.5 1.8 7.5 1.2 3-.3 7.5-.6 10-.6h4.4l.1 6.2c.1 3.5.4 8.4.8 11 1.7 13.5 1.8 15.3.7 15.3-.6 0-1 1.6-.9 3.5.1 3.9 1.4 4.7 2.1 1.3l.4-2.3.2 2.2.1 2.3h296.9l.4-2.3.4-2.2.2 2.2.1 2.3h390V0H934C704 0 588 .3 588 1c0 .5-.9 1-1.9 1-1.1 0-2.3-.5-2.6-1-.4-.7-98.8-1-292.1-1H0zM825.6 59.8c.5.5 8.8 4.2 18.4 8.2s18 7.7 18.5 8.2c.6.5-.1.5-1.5-.1-7.6-2.9-27.6-11.4-30.1-12.7-3.7-1.9-6.9-.2-6.9 3.8 0 1.5-.4 3.7-.9 5s-1.6 8.4-2.5 15.8-1.9 15-2.2 16.7c-.3 2.2-.1 3.3.7 3.3 1.8 0 3.8 3.2 3.9 6 .1 5.1 3.1 6 24.6 7 10.9.5 21.7.7 24 .3l4.3-.6-2.1-3.1c-2.1-2.9-11.8-14.3-16.3-19.1-1.1-1.1-7.5-8.2-14.1-15.5-6.7-7.4-13.1-14.4-14.3-15.4-1.1-1.1-2.1-2.5-2.1-3.2 0-1.2 7.8 6.7 17.5 17.7 13.4 15.2 36 38.9 37 38.9 1.6 0 9.1-8.8 14.4-16.8 2.3-3.3 4.5-6.3 5.1-6.7 1.1-.7-8 12.9-13.3 19.8-4.2 5.5-4.5 6.7-1.7 6.7 1.1 0 2 .4 2 1 0 .5-.7.7-1.5.4-3-1.2-1.4 1.8 4.7 8.9 6 7 24.9 28.3 31.6 35.6l3.3 3.6-.7-5.7c-.3-3.2-1.9-11.7-3.4-19-1.6-7.9-2.4-13.7-1.9-14.2.5-.6.9-.7.9-.3 0 1.4 4 24 5.7 31.9.9 4.5 2.1 7.8 2.8 7.8.6 0 4.3-3.4 8.1-7.6s8-8.7 9.2-10.1c1.3-1.3 2.2-3 1.9-3.7s-5.4-4.8-11.4-9.1c-5.9-4.3-11.8-8.8-13.1-9.9s-2.9-2.1-3.5-2.1c-.7-.1-2.4-.6-4-1.3-1.5-.6-5.5-1.6-9-2.1l-6.2-1 6.5.4c3.6.2 7.3.7 8.3 1 1.2.5 1.7.2 1.7-.9 0-1.3-2.6-7.7-4.7-11.9-.2-.4-.1-.7.2-.7s2.1 3.4 4 7.4c3.3 7.3 3.8 7.8 14.8 16 6.3 4.8 12.2 8.6 13.1 8.6s2.5.9 3.6 2 2.4 2 2.9 2 .8 1.1.5 2.5c-.2 1.4 0 3.4.6 4.5s1.7 6.7 2.5 12.6c.9 5.8 1.7 10.9 1.9 11.3.3.4.7 3.4 1.1 6.6.4 3.3 1.1 7.6 1.6 9.5 1 3.8 1.2 11.7.4 10.8-.3-.3-.8-2.7-1.1-5.4s-1.2-8.5-1.9-12.9c-3.7-21.3-4.9-26.6-5.7-25.2-.4.8-1.3 7-1.9 13.8s-1.3 12.6-1.6 12.9c-.9 1 .5-19.5 1.7-25.2.7-3.1.9-6.9.6-8.4-.7-2.8-.9-2.6-10.2 7.1-5.2 5.5-9.4 10.8-9.4 11.7 0 1 1.2 3 2.8 4.6 1.5 1.6 4.1 4.5 5.7 6.4 1.7 1.9 3.7 3.7 4.5 4s1.1.9.7 1.4c-.4.4-3.7-2.3-7.2-6.1s-6.6-6.7-7-6.4c-.3.3 2.6 10 6.4 21.5s7.2 20.2 7.4 19.4c1.1-3.6 2.7-22.9 2.1-25.8-.4-1.9-.2-3.2.4-3.2 1.9 0 2.2 6.2.7 14.7-2.5 14.5-1.8 19.2 2.6 17.8l2.4-.8-2.4 2-2.5 2 4.7 6.7c2.5 3.6 4.5 6.6 4.2 6.6-.2 0-2.5-2.7-5-5.9-6-7.6-8-7.4-7.1.8.4 3.1.9 9.6 1.2 14.6.7 10 1.4 11.7 4.2 9.2 1-.9 2.3-1.7 2.8-1.7.4 0-.6 1.3-2.3 2.9l-3.2 2.9.5 14.7c.2 8.1.7 15.1.9 15.6.3.4 3 1.9 6 3.3 6.1 2.8 7.7 4.6 1.8 2-5.7-2.5-8.3-2.9-8.3-1.3 0 1.2-.2 1.2-.9.1s-2.3-.8-8.2 1.3c-4.1 1.5-10.1 3.5-13.4 4.6-8.2 2.6-13.8 8.9-8 8.9 1.4 0 4.2.7 6.1 1.5l3.6 1.5 5.9-5.7c6.9-6.5 7.7-6.2 1.7.9-4.4 5.3-4.2 6.8 1 6.8 1.3 0 3.6.7 5.1 1.5 1.6.8 3.1 1.2 3.4.9s1.2.3 1.9 1.5c2.1 3.5 2.8 2.4 2.9-4.7l.2-6.7 1.2 6c.7 3.3 1.3 6.2 1.4 6.4s1-.4 2.1-1.4c2.4-2.1 2.5-1.7.6 2-1.8 3.5-.7 5.9 5.4 12.3l4 4.2 1-2.5c1.1-3 2.4-3.4 1.5-.4-1 3.2.2 6.5 2.5 6.6 1.6.1 2-.4 2-3.3 0-1.9.5-3.4 1.1-3.4s.9-.6.6-1.3-.2-5.8.3-11.3c.4-5.4.3-14.4-.2-19.9s-1.1-12.9-1.4-16.4c-.2-3.6-.8-6.7-1.3-7.1-.6-.3-1.2-12.5-1.5-30.5-.2-16.5-.6-33.6-.9-38-.4-6.8-.3-7.3.5-3.5 1.4 6.6 1.6 10.8 1.8 41.5.2 15.7.7 28.3 1.2 28.6 1.1.7 2.9 14 3.7 28.4.6 10.9.6 11 3.1 11 2.1 0 2.5.5 2.7 3 .1 2 0 2.3-.4.7-.3-1.3-1.2-2.2-2.3-2.2-2 0-2.6 1.8-3.3 11.8-.3 4.3-.2 5 .9 4.1.8-.6 1.4-1.9 1.4-2.8s.5-2.3 1-3.1c1.6-2.5 0 5-2.1 9.5-2.2 4.9-3.9 18.2-3.8 29 .2 7.3.3 6.9 1-4.4.5-6.9 1-13 1.2-13.5.3-.6.8 3.7 1.2 9.6.8 12.3.1 23.9-2.3 35.9l-1.7 8.2-5.5 2.8c-3 1.5-6 3.5-6.6 4.4-.7.9-1.5 1.2-1.8.6-.6-1-3.6-.4-9.1 1.9-7 2.9-7.2 3.1-6.8 5.8.3 2.3.2 2.4-.6.7-.5-1.2-1.5-2.6-2.2-3.2-2-1.6-32.1-5.3-33.4-4.2-.7.7 2.9 4.8 10.2 12l11.2 11 2.6-4c1.4-2.2 2.5-4.3 2.5-4.5 0-1.2 6.3-9.7 6.8-9.2.3.3-1 2.9-2.9 5.8s-4.5 7.4-5.7 10c-2.1 4.2-4.2 6.3-4.2 4 0-1.1-21.9-23.6-22.5-23-.3.3.1 6.7 1 14.3.8 7.5 1.4 16.7 1.3 20.3-.1 5.6-.2 5.9-.5 1.7-.6-10.7-3.6-38-4.2-38.7-.4-.4-3.3-.3-6.6.2-10 1.5-22.2 2.1-20.4 1 1-.5 4.6-1.2 8-1.5 12.3-1 16.9-1.6 17.3-2.4.7-1-13.9-19.8-16.4-21.1-1.1-.6-2-1.7-2-2.4 0-.8-.8-2-1.7-2.7-1.7-1.3-1.7-1.3-.3.5 1.5 1.9 1.4 1.9-1.5.3-1.6-.8-3.9-2.4-5-3.4-4-3.5-4.5-2.8-4 5.5 1.3 20.9 2 25.4 5.2 32.9.9 2.1 1.7 5.8 1.8 8.3s.8 7.9 1.7 12c3.8 17.3 4.5 22 3.2 20.9-1.4-1.1-5.1 2.9-6 6.7-.3 1.3-1.5 2.6-2.5 2.9-1.4.5-1.9 1.6-2 4.8l-.1 4.2-.9-4.5c-.8-4.2-.7-4.6 2.4-7.9 1.7-1.9 4.4-4.5 5.9-5.8 2.3-2 2.6-2.8 1.8-4.9-.6-1.4-1-3.7-1.1-5.2 0-1.5-.7-4.5-1.4-6.7-1.2-3.6-1.4-3.8-2-1.8-.4 1.3-1.1 2.1-1.5 1.8-.5-.3-1.2.4-1.5 1.5-.8 2.5 1.1 5.1 3.1 4.3.8-.3 1.4 0 1.4.6s-1.1 1.1-2.5 1.1c-1.6 0-2.5.6-2.5 1.5 0 1.7-3.5 2.1-4.5.5-.3-.6-4.9-1-10.1-1h-9.6l3.6 4.2c4.8 5.5 3.6 6.3-1.5 1-2.3-2.3-4.5-3.9-5-3.6s-1 2-1 3.7c-.1 3.2-.1 3.2-.9-.6-.4-2-1-4-1.4-4.4-.3-.3-7.5-.5-15.8-.4-8.4.1-15.1 0-14.8-.2.3-.3 5-.7 10.5-1.1 9.1-.6 15.6-1.4 16.2-1.9.1-.2-.3-1.2-1-2.4-7.1-12.8-16.5-25.5-18.5-25.1-.8.2-2.1 2.5-2.9 5.3-.7 2.7-1.8 6.3-2.3 8-2.2 7.1-4 15.7-3.5 16.4.5.8-2.4 2.5-3.1 1.8-.2-.2.1-1.9.6-3.8s1.1-5 1.4-6.9c.2-1.9 1.2-5.8 2.1-8.5 2.7-8.2 3.4-10.5 3-10.5-.5 0-2.4 2-7.7 8.1-10.5 12.1-13.8 16.3-13.8 17.6 0 .7-.5 1.3-1.1 1.3-1.3 0-2.4 1-8.7 8.9-2.9 3.6-5.2 7.1-5.2 7.7 0 .7 2.2 3.9 4.8 7.1 2.7 3.2 5.6 7 6.6 8.6 1 1.5 2.4 2.7 3 2.7 1.6 0 6-9.1 8.1-16.8 1-3.4 2.1-6.2 2.5-6.2 1.1 0-.5 7.8-2.9 14.1-2.4 6.1-2.4 6.2-1.3 5.6.4-.3.5 1.9.4 4.9-.2 3-.8 5.4-1.3 5.4s-.9-.5-.9-1.2c0-.6-.3-.8-.7-.5-.6.6.8 6.5 2.7 11.2 1.3 3.2 2 6.6 2.6 12 .3 2.7.9 5.4 1.5 6 .5.5.9 1.8.9 3 .1 2.2 2.7-4.4 3.4-8.5.2-1.4.8-3.6 1.4-5s1.8-6.3 2.7-11c3.4-16.5 5.7-26 6.3-26 .4 0 2.5 1.1 4.7 2.5s4.8 2.8 5.8 3.1c.9.4 1.7 1.3 1.7 2.1 0 2.1 2.7 4.7 3.3 3 .2-.6-.3-1.7-1.2-2.4-1.4-1-1.4-1.1.3-.9 1.1.2 2.2.8 2.4 1.4.2.7.7 1 1 .8.4-.2.8 1 .9 2.7.1 2.8.7 6 1.3 7.7.1.3.2.8.1 1.2 0 .5.4.8 1 .8 1.5 0 6.9-5.9 6.9-7.6 0-.8.5-1.4 1-1.4.6 0 1 .6 1 1.4 0 1.8 3.8 8.6 6 10.6.9.8 2.4 2.6 3.4 4 1.8 2.5 1.8 2.4 1.2-5-.4-4.1-.8-9.1-1.1-11-.6-4.6 3.1 6.6 4.1 12.3.3 2.2 1.2 4.7 1.9 5.4 1.1 1 1.5-.1 2.5-6 1.5-9.3 2.1-10.8 1.4-3.2-.3 3.3-.9 9.8-1.2 14.5l-.7 8.4-8 3.3c-9 3.8-11.7 3.8-19.6-.3l-4.7-2.5-6.4 2.7c-10 4.2-19.8 9.3-19.8 10.4 0 2-3.6-.6-12.2-8.9-5-4.7-9.5-8.8-10.1-9s-1.8-1.2-2.7-2.1c-2.1-2.4-27.4-17-29.4-17-.9 0-1.6-.4-1.6-.9s-.6-1.6-1.2-2.3c-.7-.8-2.5-3.9-4.1-6.9-2.3-4.6-2.4-5-.5-2.5 1.3 1.6 3.3 4.1 4.4 5.5l2.2 2.5 2.9-2.9c1.5-1.7 6.3-6.3 10.6-10.3 4.2-4 7.7-7.6 7.7-8s-5-2.5-11.1-4.7c-6.1-2.1-11.3-4.3-11.5-4.7-.3-.4 4.2.9 10 3 5.8 2 10.8 3.4 11.1 3 .4-.3-1-3-3-6l-3.7-5.3 3.3 3.6c1.9 2.1 4.2 4.7 5.3 6l1.9 2.2 6.6-6.9c3.6-3.8 7.9-8.7 9.6-10.9 1.6-2.2 5.1-6.3 7.6-9 7-7.5 16-19.8 15.7-21.4-.2-.8-1.7-1.8-3.3-2.2-4.4-1.2-26.8-3.6-28.2-3.1-.7.2-1.3 1.6-1.3 3.1-.1 1.4-.7 5.5-1.4 9.1l-1.3 6.5.4-9 .5-9-2.4 2.7c-1.2 1.4-4.5 4.5-7.3 6.9-2.7 2.3-7.4 6.4-10.4 9.1l-5.4 5 1.8 3.1c1 1.8 2.7 4.8 3.7 6.7l2 3.5-2.6-3c-1.5-1.7-3.2-4.2-3.9-5.8-.6-1.5-1.9-2.7-2.9-2.7s-1.5-.6-1.2-1.8c.3-.9-.3-2.6-1.3-3.7-1.1-1.1-3.8-4.6-6.1-7.8-2.4-3.1-4.6-5.7-5.1-5.7s-1.1-.9-1.4-1.9c-.3-1.4-1.7-2-5.8-2.6-3-.3-7-1.1-8.9-1.5-1.9-.5-5-1-6.8-1.2-1.8-.1-4-1-4.9-2s-2.4-1.8-3.4-1.8-2.1-.5-2.5-1.1c-.4-.8.3-.9 2.5-.4 2.9.6 3.1.5 3.1-2.2 0-1.6-.7-5.3-1.6-8.2-.8-2.9-1.3-5.9-1-6.6.2-.7-.2-1.6-1.1-1.9-.8-.4-1.3-1.3-1-2 .3-.8-.3-2.6-1.4-3.9-1-1.4-1.9-2.9-1.9-3.5 0-.5-.8-1.6-1.7-2.5-1-.9-2.7-3.3-3.8-5.4-1-2.1-2.4-4.5-3-5.3-.7-.8-1.9-3.5-2.8-6s-2.7-5.7-4-7.2-3.2-3.8-4.3-5.2c-1-1.4-2.7-2.6-3.7-2.6-1.3 0-1.7-.5-1.3-1.5.3-1-1.2-3.7-3.9-7.1-2.5-3-4.5-5.8-4.5-6.2.1-.4 1.1.6 2.3 2.1 1.2 1.6 4.3 5 6.9 7.7 5 5.3 6.2 5.2 7.1-.5.4-2.6.5-2.5.4.6-.1 2 .4 4.4 1.1 5.2 1 1.2 1 1.6 0 1.9-.9.3-.6 1.6 1.3 4.4 1.4 2.2 3 5 3.4 6.4s1.7 4.1 2.9 6 2.7 4.6 3.4 6 2.9 4.7 4.9 7.5c3 4 3.7 4.6 4.3 3.1.5-1.6.7-1.5 1.7.7.9 1.9 2.1 2.6 5.2 2.9 4 .3 4.1.3 4.1-2.7 0-1.7-.6-4-1.4-5-.8-1.1-1.1-2.5-.9-3.2.3-.8-.4-2.2-1.6-3.2-1.1-1-2.1-2.3-2.1-3 0-.6-.4-1.1-.9-1.1-1.4 0-3.3 5.7-2.6 7.9.3 1.2.2 2.1-.3 2.1-1.4 0-1.9-7.2-.8-11.2.5-1.8 1.1-2.7 1.3-2.1.6 1.8 2.3 1.6 2.3-.2 0-.8.5-1.5 1.1-1.5.5 0 .7-.5.4-1-.4-.6-1.1-.8-1.6-.5-1.4.9-1.1-.2.7-1.9 1.4-1.5 1.4-1.6 0-1.6-.9 0-1.6-.7-1.6-1.6 0-.8-1.1-3-2.5-4.8s-2.5-4-2.5-4.9c0-1.2-.8-1.7-2.6-1.7h-2.6l2.3-1.9c1.7-1.4 2.8-1.6 3.6-.9 1.4 1.2 2.8-1.2 2-3.4-.2-.7.9-3.9 2.5-7.1 4.4-8.6 4.8-7.3.7 2-1.9 4.2-2.4 7.3-1.3 7.3 1 0 3.3-2.7 2.9-3.4-.3-.3-.2-.4.1-.1.8.6 6.5-3.4 8.2-5.7.7-1 1.9-1.8 2.5-1.8.7 0 2.9-1.5 5-3.3l3.8-3.4-2-4.7c-2.2-5-1.1-5.4 1.4-.5 1.5 2.9 1.6 2.9 4.6 1.4 1.6-.9 3.3-1.4 3.7-1.1.5.3 2.3-2.5 4.1-6.1 1.7-3.6 3.4-6.3 3.7-6s-.2 1.9-1 3.6c-2.7 5.1-2.2 6.4 2.2 5.7 2-.3 6.5-.7 9.9-.8l6.1-.3-2.1-3c-3.1-4.6-10.1-12-10.9-11.7-.5.1-.8-.2-.8-.8 0-1.7-5-1.1-16 1.9-9.4 2.5-10.5 3-10.4 5 .1 2.2.1 2.2-2-.3-2-2.3-2.9-2.5-16.1-3.4-13.9-.9-16.8-.5-14.8 2 .6.7 1.4 2.4 1.8 3.8.5 1.9.1 1.7-1.7-1.1-1.3-2-2.9-3.4-3.6-3.2-1.1.4-1.1.1-.1-1.4 1-1.6.8-4.3-1.1-13.9-1.2-6.5-2.4-12.8-2.5-13.9-.2-1.1-1.5-8-2.9-15.4-1.5-7.3-2.5-13.8-2.3-14.4.4-1.3 7.3 32.4 9.2 45 .7 4.7 2.4 6.6 3.1 3.6.3-1 1.4-2.5 2.5-3.1 1.9-1.2 1.9-1.2.4 1.7-2 3.9-1.9 5.5.2 4.7 1.8-.7 33-19.1 40.9-24.1 2.7-1.8 6.9-4.2 9.1-5.4 2.3-1.1 4.4-2.5 4.7-3s-4-2.6-9.5-4.6c-5.6-2-13.3-5-17.1-6.6-3.9-1.6-7.4-2.7-7.8-2.4-.9.6-14 27-14 28.3 0 .5-.7 1.6-1.6 2.3-1.5 1.2-1.5 1-.1-2.1.8-1.9 4.3-9.3 7.8-16.4 5.9-12 6.2-13 5-16-.7-1.7-2.4-7.8-3.9-13.6s-3.2-10.4-3.7-10.3c-1 .2-3.4 12.7-5.9 30.8-2.5 17.9-2.8 19.7-3.2 19.2-.8-.7 4.5-38.7 6.7-48.4.5-2.3.9-4.9.9-5.7 0-1.4-3.5-2.8-10-3.9-1.4-.2.2-.2 3.6 0l6.1.4.6-3.8c.4-2.1.7-8.5.7-14.3s.5-17.6 1-26.3c.6-8.7.7-16.3.4-16.9-.3-.5-2.4 1.6-4.5 4.9-4.6 6.9-5.3 5.9-.8-1.2 1.7-2.8 3.2-6.3 3.3-8 .1-2.7-.3-3.1-3.9-3.9-5.6-1.2-19.8-6.8-15.5-6 3.5.6 5.1 1 14.8 4 7.5 2.3 7.8 1.7 6.4-9.8-.6-5.1-1.4-12-1.7-15.3-.9-9-1.2-9.7-3.8-8.4-2 1.1-1.9.9.3-1.3 1.4-1.3 2.6-2.3 2.8-2.2s3.1-.7 6.5-1.7c6.9-2.1 7.3-2.2 6.4-1.3-.3.4-3 1.4-5.9 2.4l-5.3 1.7.3 7.9c.3 8.1 2.7 26.2 3.6 27.1.8.9 19.4-5.7 33.6-11.9 7.4-3.2 14-5.8 14.7-5.8s1.3-1.1 1.3-2.4c0-2.3-3.3-20.5-4.4-23.6-.2-.8-.7-2.7-1-4.1-.6-2.8-.4-2.8-11.1-.5-1.6.3-.4-.4 2.8-1.7s6.2-2.8 6.5-3.4c.4-.5 2.1-1.3 3.7-1.7 3.3-.8 23.1-8 33.4-12 6.6-2.6 10.1-3.4 6.8-1.5-.9.5-6.5 2.8-12.5 5-5.9 2.2-12 4.6-13.7 5.3-1.6.7-5.1 2.2-7.7 3.2l-4.6 1.8 2.6 1.6c1.5.9 9.5 5.2 17.7 9.4 8.3 4.3 16.1 8.6 17.5 9.6 3.2 2.3 15.9 8 17.6 8 .8 0 1.4.7 1.4 1.7 0 1.5 1.5 1 1.5-.5.1-.4.8-4.1 1.7-8.2s2.2-10.9 2.8-15c.7-4.1 1.9-11.1 2.8-15.5.8-4.4 1.7-10 2-12.4l.4-4.3-3.3.7-3.4.6 3-2c3.3-2.3 4.6-2.5 6.1-1.3M484 87.5c10 5.8 19.1 10.5 20.1 10.5s1.9.4 1.9 1c0 .5 2.6 2.3 5.8 3.9 6.9 3.6 5.8 4.1-1.3.6-2.7-1.4-5.7-2.5-6.5-2.5-.9 0-4.1 2.8-7.2 6.2-12.3 13.8-17.8 20.3-17.8 20.9 0 .7 3.6 1 46 3.5 14.6.8 27 1.7 27.5 2 1.5.6-36.6-.5-39.2-1.2-1.9-.5-2.3-.2-2.3 1.8 0 3.3-1.5 4.5-5 4-2.1-.3-3.1-1.2-3.9-3.3l-1-2.9-9.3.1c-5.1.1-8.5.3-7.5.6 2 .5 2.2 1.4.5 3.1-.9.9-.9 1.2 0 1.2.7 0 1 1.2.8 3-.4 3.2 3.4 9.6 4.9 8.2.5-.4.5-.2.1.5-.5 1 6.2 13.3 8.4 15.3.3.3 2.8 3.9 5.5 8 7.8 11.6 9.3 13.2 12.9 13 5.6-.3 5.8-.2 4.6 2.2-.6 1.3 7.2-6.2 17.5-16.6 10.2-10.3 18.8-18.7 19-18.4.4.4-3.8 5-24.7 26.5-7 7.3-12.8 13.6-12.8 14 0 .5 3.9 2.1 8.6 3.7 11 3.6 10.3 4.6-.8 1.2-10-3.1-9.8-3.1-9.8-.9-.1 1.7-.1 1.7-1.4.1-1.5-2 1-2.3-46.1 5.5-18.1 3-36.8 6-41.5 6.7-10 1.5-10.5 1.7-8.9 3.7 1.3 1.4 14 11.5 30.8 24.3 4.7 3.6 13.2 10.2 18.9 14.5 12.3 9.6 15.3 11.6 16.4 10.9.4-.3.8 0 .8.7s1.9 3 4.3 5.2c5.6 5.3 3.9 4.1-13.3-9.1-15.6-12.1-34.9-26.8-55.6-42.4-3.8-2.9-5.8-2.8-5 0 .5 1.7 1.1 20.4 2.1 62.7.3 12.1.8 26.8 1.1 32.7l.6 10.6 24.7-8.5c62.6-21.6 70.4-24.1 68-21.9-.2.2-8.5 3.1-18.4 6.5-9.9 3.3-27.2 9.2-38.5 13.1s-22.3 7.7-24.5 8.4c-9.1 3-11.2 4.6-12 9-.5 3-2.3 34.1-2 35.3 0 0 5-2.8 11-6.3 6.1-3.5 15.8-9.2 21.7-12.5 5.9-3.4 10.5-6.6 10.1-7.2-.3-.6-.1-.7.5-.3 2.2 1.4 8-2.9 23.7-17.8 8.8-8.3 18.9-17.8 22.5-21 10.3-9.4 10.4-8.9-1.2-18.1-5.5-4.4-10.2-8.4-10.6-8.9-.3-.6.6-.2 2 .9 12 9.3 18 13.5 19.3 13.5.8 0 1.5.7 1.5 1.5 0 1 1.1 1.6 3.3 1.7l3.2.1-3.2.4c-1.8.2-3.3.9-3.3 1.4 0 .6-.4.8-.8.5-.5-.3-4.7 3.2-9.3 7.7s-14.9 14.3-22.8 21.6c-11.8 11.1-14 13.6-12.5 14.2 1.5.5.9.9-2.6 1.9-2.5.8-5.2 1.9-6 2.5-.8.7-5.5 3.4-10.5 6-4.9 2.6-9.7 5.3-10.5 5.9-1.9 1.5-20.9 12.3-23.2 13.2-2.9 1-2.1 2.3 2 2.9 2 .4 4.8 1.1 6.2 1.6 2.1.8 1.9.8-1 .4-1.9-.3-5.6-.9-8.1-1.2l-4.7-.6-4 12.9c-6 19.3-6.6 21.4-5.8 22.1.3.4 8.3 1.1 17.6 1.7 9.4.5 17 1.2 17 1.5s-4.4.3-9.7 0c-5.4-.4-13.5-.7-17.9-.8-9.1-.1-9.6.2-8.9 6.6.2 2.1-.2 1.1-.8-2.2-.7-3.3-.9-6.1-.5-6.3s2.1-4.9 3.8-10.5 4-13 5.1-16.5c1.2-3.5 1.9-6.6 1.6-6.8-.2-.3-5.7 2.7-12.1 6.6-6.4 3.8-11.9 7-12.1 7s-4.8 2.6-10.2 5.7l-9.7 5.7 5.4 1.8c6.3 1.9 5.2 2.4-1.7.6-3.5-.8-5-.8-6.4.1-1.4.8-1.9.8-1.9 0 0-.7-.9-.9-2.2-.5-11.6 3.3-44.3 10.6-47.5 10.6-2.5 0-4.5 3.1-2.5 3.8.7.2 1.2 1.3 1.2 2.5-.1 2.2-.1 2.2-1.2.2-2.5-4.2-4.7-5.6-10.4-6.5-3.2-.5-7.4-1.4-9.1-1.9-3.2-.9-5.7.3-3.7 1.8 2.1 1.5 10.2 15.1 9 15.1-.2 0-2.2-3-4.5-6.8-2.3-3.7-5-7.8-6.1-9.1l-2-2.3-11.5 1.8c-8.2 1.3-11.5 2.3-11.5 3.2 0 .8 2 4.5 4.5 8.2s4.5 7 4.5 7.3c0 .4 3.1 5.3 6.8 10.9 3.8 5.7 7.7 11.8 8.8 13.6 1 1.8 2.4 3 3 2.8 1.1-.4 2.5 2.1 2.8 5 .2 1.5 16.6 20.4 18.8 21.5 1 .6 1.6 1.4 1.3 1.8-.5 1 2.3 4.6 14.2 18.2 11.4 13 11.2 12.8 13.5 9.6 1.1-1.5 2.5-2.7 3.1-2.7s-.2 1.3-1.8 3c-2.2 2.3-2.6 3.2-1.6 4.4.9 1.1.9 1.5-.1 1.8-1.1.4-2.5-1-9.3-10.2-6.1-8.2-19.2-22-20.7-22-1 0-5.7 2.1-10.4 4.6-4.7 2.6-8.7 4.5-8.9 4.2-.2-.2 3.8-2.6 9-5.3s9.5-5.4 9.5-6c0-.5-1.5-2.6-3.3-4.6-1.7-2-5.8-6.6-9-10.3-4.3-4.9-6.2-6.4-7.1-5.7-1 .8-1.1.3-.8-1.9.3-2.1-.4-3.9-2.5-6.7-2.6-3.4-5.7-8.1-19.7-29.6-2-3.3-3.9-5.7-4.1-5.5-.3.3 2 11 5.9 26.8 3.6 15.2 8.1 31 8.7 31 .4 0 1.7-1.6 2.9-3.5s2.4-3.5 2.6-3.5c.6 0-1.5 3.9-3.7 7-1.7 2.3-1.8 3-.4 9.5.8 3.8 2 7.1 2.5 7.3.6.2 1 1.2 1 2.3 0 1 .5 1.9 1.1 1.9.5 0 .7.5.4 1.1-.6.9 9.2 15.1 14 20.3 2.2 2.3 3 7.3.9 5.5-.9-.7-4.8 1-13.8 6.1l-12.6 7.2 4.3 3.5c2.3 2 5.3 4.3 6.7 5.2s3.1 2.1 3.8 2.8c.8.7 2.3 1.8 3.4 2.4s1.8 1.3 1.5 1.5c-.3.3-4.3-2.3-8.9-5.7-11.7-8.7-12.5-9-20.6-6.7-3.7 1.1-7.7 2.1-8.9 2.3s-3.6.6-5.5 1c-2.4.5-2.9.4-1.8-.4.8-.6 2.2-1.1 3.1-1.1 1 0 2.8-2.6 4.8-6.8 1.7-3.8 3.1-7.1 3.1-7.5 0-.6-13.1.2-13.9.9-.2.2.2 1.2 1 2.1 1.2 1.6 1.2 1.6-.8 0-2.1-1.8-2.2-1.8-3.1 0-1.5 3-3.4 12.2-2.8 13.8 1 2.6-1.2 2.6-4.3-.1-1.8-1.5-3.1-3.5-3-4.7.1-2.1.2-2.1.6-.2.5 2 3 4.5 4.5 4.5.4 0 .8-1.2.8-2.6s.4-3.3.9-4.2 1.2-3.6 1.6-5.9c.6-3.9.5-4.3-1.4-4.3-1.7 0-2.1-.6-2.1-3.3 0-2.3-1.1-4.8-3.6-8-2.2-2.8-3.6-5.8-3.6-7.4-.1-3.4 7-27.7 7.1-24.7.1 1.1-.8 5.4-2 9.5-4.4 16-4.4 16.6-.7 21.8 6.8 9.6 7.6 10 16.4 10.2 4.3.1 8.9-.1 10-.5 2.2-.7 4.5.8 5.8 3.6.5 1 .7 1 1.2 0 .3-.7 2.5-1.2 5.2-1.2 2.6 0 6.3-.4 8.1-1 4.4-1.2 5.3-.4 2.1 2-4.2 3.2-.2 2.2 6.8-1.7 4.2-2.4 6.1-3.9 5-4.1-.9-.2-2.6.2-3.7.7-1.1.6-4.1 1-6.8.9-4.7-.1-4.7-.1-.8-.5 8.1-.8 5.3-2.1-7.5-3.3-9.3-.9-13.7-1.7-15.3-3-1.2-.9-6.3-4.5-11.3-7.9l-9.2-6.2-3.8 1.5c-3.4 1.4-3.6 1.4-1.9.1 6.3-4.8 6-3.2 4.1-23.5-.6-5.6-.4-5.3 1.6 3.8 1.5 7 2.8 4.9 2.8-4.8 0-4.7-.5-8.1-1.2-8.9-1.1-1.1-1-1.3.2-.9 2 .6 2.8 20.7.8 21.9-.7.4-.9 1.1-.5 1.5 1 1 .9 1.2 8.1-13.6 5.7-11.8 6.3-13.6 4.8-14.2-1.4-.5-1.3-.7.6-.7 2.5-.1 2.8-1.1 1-3-1.1-1.1-1-1.3.3-.8.9.3 2.1.1 2.6-.4.6-.6 1 2.4 1.1 8.3.1 5.1.4 10 .6 10.8.3.8.8 8 1.1 16 .4 8 .8 14.6 1 14.8.6.6 5.1-10.2 9-21.5l3.9-11.2-2.2-10.8c-1.2-5.9-3-13.5-4-16.8s-2.5-8.5-3.2-11.5c-2-8.7-2.9-9.3-3-1.8 0 4.4.4 6.8 1.3 7.1 1.1.5.6.7-3.5 1.1-.7 0-1.5 1.2-1.8 2.6-.7 3.1-3.9 9.9-4 8.4 0-.6.7-2.8 1.5-4.8 1.5-3.4 1.4-3.6-.5-3.6-2.1 0-19.6 8.6-20.6 10.1-.8 1.4-5.4 1.1-4.9-.4.6-1.3 0-1.7-12.5-8.9-5.5-3.2-9.3-4.8-10.8-4.5-1.8.3-2 .2-1.1-.9s.7-1.4-.9-1.4c-1.1 0-3.3-.3-5-.6-2.8-.6-3.1-.4-3.5 2.2-.3 2.4-.4 2.2-.6-1-.1-3.1 1.3-6.2 6.6-15.7 3.8-6.5 7.2-11.9 7.6-11.9.5 0 0 1.5-1.1 3.2-3.9 6.4-11.2 20.1-11.2 20.9 0 .5 1.7.9 3.8.9 3.9 0 3.9 0 7.5-7.8 6.2-13.5 9.6-22.1 8.9-22.6-.4-.3-1.7.9-2.7 2.5-1.1 1.6-2.4 2.9-2.8 2.9-1 0-.2-1.4 3.5-6.1 1.5-2 2.8-4 2.8-4.3 0-.4.9-1.9 2-3.5 1.2-1.5 2.2-3.7 2.3-4.9s.4-2.2.7-2.2c.4 0 1.2-1.6 1.8-3.7.6-2 .8-3.2.3-2.7-2.1 2.5-7.9 11.1-8.5 12.8-.3 1-.9 1.6-1.2 1.3s.9-3.4 2.6-6.9c1.8-3.5 3.7-7.1 4.2-8.1 2.3-4.6 2.1-11.1-.6-17.7-1.5-3.6-3.1-7.3-3.6-8.2-1.6-2.8-2.4-12.4-1.1-13.2 1.6-1 1.4-6.2-.4-9.6-.9-1.6-1.7-4.9-1.9-7.2-.2-2.4-.2-3.5.1-2.6.2 1 .7 1.9 1.1 1.9 3.3.6 6.2.7 6.2.3 0-.3-.9-2.2-2-4.4s-2-4.7-2-5.7c.1-1.1.9-.3 2.1 2 2.5 4.8 5.4 7.7 6.7 6.8 1.4-.8-2.8-7.2-9.7-14.7-2.8-3.1-4.9-6-4.5-6.5.3-.5.7-8.4.9-17.5.3-12.9.8-18 2.4-22.7 1-3.4 2.7-9.7 3.7-14 .9-4.2 2.1-7.7 2.7-7.7.5 0 .6.8.2 1.7-.8 2.1-2.5 15.5-2 16.3.2.3 0 1.2-.6 2-.7 1.2-.9 1.1-.9-.5-.1-1.2-.7-.4-1.5 2-.9 2.3-1.8 9.9-2.2 18-1.2 25.7-1.7 23.1 5.7 31.3 3.6 4 6.6 6.8 6.8 6.2.3-.8-2.2-9.9-4.6-17-.3-.8-.2-1.2.2-.9.4.4 1.9 3.8 3.2 7.5 4.1 11.2 5.3 14 5.4 12.6 0-2.1 2-1.3 2 .8 0 2.7 2.6 2.5 3.4-.3.9-3.4.7-6.7-.4-6.7-.5 0-1-.8-1-1.9 0-2.6-9.3-14.2-13.6-16.9-1.5-1-5.4-6.8-5.4-8.2 0-.6.4-.9.9-.6 1.1.7 2.1-1.7 2.2-5.7.1-4.4.6-2.4 1.4 5.3.6 6.3.8 6.7 7.5 13.9 6.2 6.8 6.8 7.2 6.5 4.5-.2-1.6-.9-6.3-1.5-10.4s-1.3-9.3-1.5-11.5l-.5-4 1 3.5c.5 1.9 1.6 7.9 2.4 13.4 1.5 10.2 2.1 12 3.2 9.3.3-.9 1.2-1.3 1.9-1.1.7.3 1.9-.3 2.6-1.3.8-1 2.3-2.5 3.4-3.3 1.9-1.4 1.9-1.4.5.5-.8 1.1-2.7 3.1-4.1 4.6-4.4 4.4-4.4 6.1.4 9 2.3 1.5 5.1 2.9 6.3 3.3 1.1.3 3.2 1.8 4.5 3.3 1.9 2.1 2 2.5.6 2-1-.4-2.2-.7-2.6-.7s-2.1-1.2-3.7-2.6c-3.3-2.9-8.4-5.8-8.4-4.8 0 .4 2 4.7 4.5 9.5 6.1 11.9 10.5 16.5 10.5 11 0-.9.7-2.9 1.6-4.6 1.2-2.3 1.4-5 1-12-.5-8-.4-8.6.7-5.5.9 2.4 1.8 3.5 3.1 3.3 1.6-.1 1.7.4 1.2 3.8l-.6 3.9h3.7c2.1 0 5.5-.3 7.6-.7 3.8-.6 3.9-.7 3.4-4.2-.3-2-.8-4.7-1.2-6.1-.4-1.6.1-1.1 1.7 1.5 1.3 2.2 2.7 3.9 3.1 3.7.4-.1 1.4-.2 2.2-.2s2.5-1.9 3.7-4.3c1.9-3.6 2.3-3.9 2.6-2 .2 1.7 1.1 2.3 3 2.5 3.5.2 14.6-.3 15-.7s-4.4-9.9-7.5-14.8c-1.3-2.2-2.3-4-2.1-4.2s3.2 3.9 6.7 9.1c4 5.8 7.1 9.4 8.2 9.4 1 0 2.3.2 3.1.5.7.3 2.1-.7 3-2.2l1.7-2.8-.5 3.5c-.7 4.1-.2 4.5 10.9 8.1 3.7 1.3 6.7 2.8 6.7 3.5 0 .6.7 1.5 1.6 1.8 1.6.6 1.2-.1-6.6-13.9-4.3-7.5.8-1.2 7.9 9.8 3.8 5.9 7.3 10.8 7.8 10.7.4 0 3.4-4.4 6.5-9.8 3.2-5.3 5.8-9.3 5.8-8.9 0 .5-2.3 5.3-5.1 10.8-2.9 5.5-5 10.2-4.7 10.5s5.7 1.4 11.9 2.4c6.3 1.1 12.5 2.1 13.7 2.4 2.3.3 2.4.2 1.8-4.8-.3-2.8-.8-7.1-1.1-9.6-.5-4.9-.4-4.6 2.9 7.5.9 3.2 1.8 6 1.9 6.2.3.2 5-1.9 30-13.5 3.1-1.5 5.7-2.9 5.7-3.2 0-.6-9.8-6.4-18.6-11.1-2.8-1.4-9.9-5.5-15.8-8.9l-10.7-6.2-1.8 2.1c-1.1 1.2-2.6 3.2-3.4 4.4-1.5 2.2-1.5 2.2-1-.6.3-1.5.9-2.7 1.4-2.7s.9-.9.9-2c0-2.4.9-2.4-22.7-.9-9.8.6-18.2 1.4-18.7 1.9s.1 2.4 1.4 4.5c1.2 2 2 3.8 1.7 4.1s-1.5-1.3-2.8-3.5c-2.4-4.3-3.4-4.9-4.3-2.9-.3.7-.4.4-.1-.8.5-1.9-.3-2.2-7.7-3.8-12.4-2.7-22.3-3.4-25-1.9-1.3.6-5.7 2.8-9.8 4.8-4.1 2.1-7.8 4.2-8.2 4.8-.5.8-.9.6-1.3-.5-.6-1.6-12.4-11.2-13.7-11.3-.5 0-.8-.3-.8-.8 0-38.4.2-48 .9-46.9.4.8.6 10.8.3 22.3-.3 14.5-.2 20.9.6 20.9.6 0 1.3-.9 1.7-2 .9-3 14.9-22.6 28.3-39.7 4.6-5.8 8.1-11.2 7.8-11.9s.1-1.8.9-2.4c.7-.6 1.6-3 2-5.3s1.3-6.7 2.1-9.8 2.5-10.8 3.8-17c1.3-6.3 2.8-12.7 3.2-14.3.4-1.9.3-2.7-.4-2.5-1.2.5-33.2 34.8-37.1 39.8-1.4 1.9-4.5 5.3-6.9 7.5-2.3 2.1-3.9 4.2-3.5 4.6s5.3.3 10.8-.1c21.2-1.7 24-1.8 22-1-1.1.5-6.7 1.2-12.5 1.7-5.8.4-11.3.9-12.2 1-1 .1-3.8.2-6.3.3-4.3.1-4.5.2-5.5 4.1-.6 2.2-1.2 4-1.4 4s-.3-2.3-.1-5.1c.2-4.5-.2-5.9-3.6-11.3-2.1-3.4-3.9-6.8-3.9-7.6s.6-.4 1.3 1c3.9 7.4 7.1 12 7.8 11.3.4-.4 4.9-13 9.9-27.8 13.6-39.9 14.2-41.7 14.7-41.1.2.2-4.5 15.2-10.6 33.2s-10.8 33-10.5 33.3 1.5-.5 2.5-1.9c1.1-1.4 6.2-7 11.4-12.5 5.1-5.5 11-12 13-14.5 2-2.4 6.5-7.4 10-11 8.8-9.1 11.6-12.7 11.7-14.7.1-2.4-13.7-37.2-15.5-38.9-.7-.7-2 2-6.8 14.3-3.7 9.4-5.1 10.5-1.9 1.7 1.1-3.2 2-6.1 2-6.3 0-1.1-2.9 3.7-7.1 11.4-2.3 4.4-5.5 10-7 12.5-1.6 2.5-4.1 7.2-5.7 10.5-2.6 5.4-6.2 10-6.2 8 0-.7 3.4-6.9 10-18 1.4-2.4 5.3-9.3 8.8-15.4 3.9-6.8 6.7-10.9 7.4-10.5s.8.2.4-.5c-.4-.6.2-2.8 1.3-4.7 1.2-1.9 2.1-4.2 2.1-5.1s1.1-2.6 2.5-3.9 2.5-2.6 2.5-2.9 1.7-2.3 3.8-4.4c3.2-3.4 12.7-14.4 17.8-20.7.8-1 1.2-1.2.8-.4-.9 1.8-6.3 9.1-7.8 10.5-.6.5-3.6 3.9-6.6 7.5s-5.8 6.6-6.2 6.8c-1.2.5-.9 2.2.3 2.2.6 0 7-3 14.2-6.6 7.3-3.7 17-8.4 21.7-10.4 4.7-2.1 13.5-6.1 19.5-9 6.1-2.9 13.4-6.3 16.3-7.6 3-1.3 5.1-2.7 4.8-3.2s.5-.7 1.8-.5c1.2.3 4-.3 6.2-1.2 6-2.6 26.7-9.5 27.1-9.1.3.2-2.6 1.4-6.4 2.6-11 3.6-22.3 8.1-22.3 8.8s24.9 7.9 35.9 10.4c4.6 1 5.5 1 5.9-.2.3-.7 2-2.9 4-4.9l3.5-3.6-2.7 3.7c-4.3 6-3.8 6.5 5.7 5.6 4.5-.4 20.1-1.9 34.7-3.3s27.8-2.9 29.5-3.4c3-.7 2.9-.8-4.5-5.1-24-14-29-17-27.8-17 .4 0 8.9 4.7 18.8 10.5m85.7 222.1c.2.5-1.1 1.8-2.9 2.7-5.3 2.7-13 8.7-20.8 15.9-10 9.3-10.2 9.5-9.3 7.3.5-1.5.3-1.7-1.1-1.2-2.8 1.1-3.8-.2-2.1-2.6.8-1.2 1.5-3.2 1.5-4.5 0-2.1-.2-2.2-1.5-1.2-.9.7-1.5.8-1.5.2 0-1.4 4.6-4.2 7.4-4.4 1.4-.1 2.3-.6 2-1s.6-1.2 1.8-1.9c2-1.1 2.1-1 1.1.2-.7.8-1 2.4-.7 3.5.3 1.2-.6 3.1-2.5 5.1-4.8 5.3-1.8 3.8 8.7-4.2 14.7-11.3 16.9-13.4 15.2-14.6-1.1-.7-.8-.9 1.4-.7 1.6.2 3.1.8 3.3 1.4m-11.3 93.3c-3.5 2.1-6.2 4.6-8.5 8.3-1.8 2.9-3.7 5.4-4.1 5.6-.5.2-.8.9-.8 1.6s-4.3 3-9.5 5.1c-5.2 2-9.5 4.1-9.5 4.5 0 .5-.8.6-1.8.3-1.2-.3-1.8-1.3-1.7-2.6.1-1.2-.7-3.7-1.7-5.5-1.8-3.3-1.7-5.2.3-5.2.6 0 .7.4.4 1-.3.5-.2 1 .4 1 .5 0 1.2 1.8 1.6 4s1 4.2 1.5 4.5c.4.3 3-.4 5.7-1.6 2.6-1.1 5.9-2.5 7.2-3 2.2-.9 2.2-1.1.8-2.7-2-2.2-10.4-5.3-15.1-5.5-3.7-.2-5.2-1.7-1.7-1.7 1.1 0 3.3-1.6 4.9-3.6 2.5-3 3.3-3.4 4.8-2.5 1.7.9 1.7 1 .2 1.1-1.8 0-4.8 2.6-4.8 4.1 0 1.3 3.8 1.1 4.2-.3.2-.6 1.3-1.2 2.4-1.2 1.1-.1 2.5-.5 3.2-1 .6-.4 1.7-.4 2.2-.1.6.3 1-.1 1-.9 0-.9.4-1.6 1-1.6.5 0 .6.8.3 1.7-.5 1.2-.2 1.5.9 1 2.4-.9 2.8 2.6.7 5.4-1 1.3-1.9 3-1.9 3.6 0 2.8 2.2 1 5.7-4.5 2.1-3.1 4.2-5.9 4.6-6 .4-.2.1-1.5-.8-2.8l-1.6-2.4 4.6.2c2.5 0 4.8-.2 5.2-.5.3-.4 1.6-.7 2.7-.7 1.4 0 .5.9-3 2.9m405 38.8c-.3 2.1-1 5.1-1.6 6.8-.6 1.6-1.4 5-1.8 7.5-3.5 21-8.5 42.9-12.2 53.3-2.7 7.6-3.4 6.7-.9-1.1 1.1-3.4 2.2-7.9 2.5-9.9.2-2.1 1-5.3 1.6-7.1.7-1.8.9-3.9.6-4.8-.3-.8-.2-1.2.4-.9s1-.3 1-1.4c0-1.2-.6-2.1-1.2-2.1-.9 0-.8-.4.2-1 1.3-.8 1.3-1-.2-1-1.4 0-1.5-.4-.7-2.9.7-2.1.7-3.6 0-5-.6-1.1-1.1-3-1-4.3.1-1.8.3-1.7 1 .9.5 1.8 1.4 3.3 1.9 3.3 1.6 0 7.7-22.7 8.3-31.2.1-.9.5-1.4.9-1.2.4.3.8 0 .8-.5 0-.6.2-1.1.4-1.1.3 0 .2 1.7 0 3.7M922 462.1c-6.9 3.3-12.6 6.4-12.8 6.9-.2.6-1 1-1.8 1s-1.7.6-2 1.3c-.3.8-2.9 4-5.9 7.2-3 3.3-6.2 7.4-7.2 9.2-1.6 3.1-1.6 3.4 0 6.9 1 2 1.6 3.9 1.3 4.2-.3.2-1.1-.7-1.7-2.2-1.9-4-2.6-3.2-3.4 3.6-.6 5.9-1.4 10.7-3.5 20.3-.5 2.2-.8 4.1-.6 4.2.1.1 3.2-3.4 6.9-7.9 6.6-8 6.6-8 5.1-11-.9-1.6-1.3-3.2-1-3.5s.8.2 1.2 1.1c.3.9.9 1.4 1.3 1.2.3-.2 1.2.7 1.8 2 1 2.2.9 2.8-.8 4.2-2.8 2.3-14.3 16.2-15.8 18.9-.6 1.3-1.9 2.3-2.9 2.2-1 0-1.2-.3-.4-.6.6-.2 1.2-2.1 1.2-4.1 0-2.2.4-3.2.8-2.5.8 1.2 6.3-30.6 6.2-35.9 0-1.6-.9-5.5-2.1-8.8-1.1-3.3-1.9-6.6-1.6-7.3.2-.6 1.4 2.1 2.7 6 1.6 5.1 2.6 7 3.5 6.5.7-.4 4.3-4.2 7.9-8.5 4.7-5.6 6.5-8.4 6.1-9.7-.7-2.2 3.3-4 4.5-2 .5.9 2 .6 5.6-1.1 20.4-9.3 25.8-10.6 7.4-1.8m-8.9 53.6c-1 2.8-2.2 5.8-2.7 6.5-2.2 2.8-3.3 6.7-2.3 7.4 1.1.7-22.6 24.4-24.4 24.4-.5 0-2.9 1.1-5.1 2.4-2.3 1.3-6.1 2.7-8.6 3.1s-9.1 2.3-14.7 4.1L845 567l-14.7-3c-8.2-1.7-18.9-4.2-23.9-5.6-8.6-2.5-9.2-2.6-12.2-1-1.8.9-3.2 1.2-3.2.7s.7-1.1 1.5-1.5c3.2-1.2 1.1-3.4-9.5-10-6.1-3.8-11.7-7.8-12.5-9-1.5-2-1.5-2-1.6-.1 0 1.9-.1 1.8-.9-.2-.5-1.2-1.7-2.6-2.7-3.2-1.7-1-1.7-1 0-1.1.9 0 1.7-.5 1.7-1.2s.7-.5 1.8.5 3.9 1.7 7.5 1.8c3.1.1 5.7.6 5.7.9 0 1 16.2 4.1 24 4.7 15.6 1 17.5 1.2 17.5 1.3 0 .6 17.2 2.6 18.3 2.2.6-.2 1.2-1 1.2-1.8s.7-1.4 1.6-1.4c1.1 0 1.4.6.9 2-.6 1.9-.5 1.9 3.5.5 2.3-.8 7.6-1.7 11.8-2.1s9.2-1.2 11-2c2.8-1.1 3.2-1.1 3.2.3 0 1 .5 1.3 1.8.8 3.5-1.5 5.6-1.5 2.5 0-1.8.8-3.3 1.8-3.3 2.3 0 .6 7.5 5.8 10.2 7 .9.4 15.8-14 15.8-15.2 0-.5-.6-.4-1.2.1-.7.6-2.1 1.3-3.2 1.7-1.4.5-1.7.2-1.2-.9.4-1.1-.2-1.5-2.2-1.6l-2.7-.1 2.5-.8c1.4-.4 3.9-.9 5.5-.9 4.8-.2 6-1.4 4.7-5-.7-1.9-.7-3.1-.1-3.1.5 0 .9.7.9 1.5 0 3.1 1.6 1.2 5.5-6.5 2.1-4.4 4-7.8 4.1-7.7.2.1-.5 2.6-1.5 5.4M888 585.4c0 .2-3 2.4-6.7 5-11 7.5-10.3 6.5-10.5 14.7l-.2 7.4-.3-6.3c-.2-3.4-.7-6.2-1-6.2-.8 0-7.2 5.8-18.7 16.9-5.5 5.3-10.4 9.5-10.9 9.3-.5-.1-3.8 1.3-7.3 3.3-8.1 4.5-8.3 3.8-.4-1.1 3.3-2 6-3.8 6-3.9 0-1.1-30.7-22.5-32.3-22.5-.7 0-1.7-.8-2.4-1.8-.6-1-3.8-3.1-7.2-4.7-3.3-1.6-5.9-3-5.8-3.2.2-.1 2.8.6 5.8 1.7 3.2 1.2 5.5 1.6 5.7 1 .5-1.5 2.2-1.2 2.2.4 0 2.1 5.9 2.6 27.7 2.5 23.3 0 37.5-1.1 38.1-2.9.3-.7 1.8-2.7 3.4-4.4 2.8-3 2.9-3 1.2-.3-1.9 3.1-1.4 4.6.8 2.4.8-.8 3.3-2.4 5.5-3.6 2.3-1.1 4.4-2.5 4.8-3.1.6-.9 2.5-1.4 2.5-.6m316.2 90.1c1.1 1.4 2.3 2.3 2.8 2 .8-.5 2.4 3 3.4 7.5.4 1.5-.2.8-1.3-1.5-2.3-4.6-2.6-4-.9 1.9 1.1 3.9 3.3 7.8 2.6 4.6-.2-.9.4-1.4 1.4-1.4 1 .1 1.5-.2 1.2-.7s.5-4 1.7-7.9c1.7-5.2 2.8-7 4.1-7 1.5 0 1.4 1-1.6 9.2-1.8 5.1-3.6 10.9-4 12.9-.6 3.1-.9 3.6-3 3.2s-3-2.2-6.5-12c-2.3-6.3-4.1-11.9-4.1-12.4 0-1.7 2.2-.9 4.2 1.6m21.7 6.5c.4 0 1.2-.5 1.8-1.1 1.4-1.4 6.7-.3 8.4 1.7.6.8 1.6 1.4 2.2 1.4s1.8.7 2.8 1.6c1.6 1.4 1.8 1.4 2.9-.5 1.5-2.9 6.7-5.4 9.6-4.7 1.3.4 4.4 1.9 6.9 3.4 5.9 3.5 7.6 8.1 5 13.5-.9 1.9-2.4 3.8-3.3 4.2-1.1.4-.8-.3.8-2 3.1-3.3 3.3-9.4.6-12.4-1.1-1.2-2.1-1.9-2.4-1.6s.2 1.3 1 2.2c.9 1 1.8 2.9 2.1 4.3.6 2.3.5 2.3-.5-.2-1.5-3.4-3.6-4.5-3.1-1.4.5 2.6-3.4 7.9-5.3 7.2-.8-.3-1.1 0-.7 1 .9 2.3 5 1.6 7.2-1.2 1.2-1.5 2.1-2.3 2.1-1.8 0 1.6-4.4 5.4-6.2 5.4-1.1 0-2.9-.5-4.1-1.2-2.1-1.1-2.1-1-.7.7 1.3 1.7 1.3 1.8 0 1-.8-.4-3.4-2.3-5.7-4.2-5.1-4.1-9-4.3-11.6-.7-2.5 3.4-1.4 4.2 2.8 1.9 2-1 3.8-1.5 4.2-1.2.7.8-2.6 4.7-4 4.7-.5 0 .1-.9 1.4-2 2.9-2.3 1.8-2.6-1.6-.4-1.6 1-3.4 1.4-5.1 1-1.8-.5-2.4-.3-1.8.5.9 1.5-.7.6-5.4-2.9-2.2-1.7-3.1-3-2.7-4.1.3-.8.3-1.2-.1-.9-.3.4-1.2.2-1.8-.5-1.3-1.3-2.8-6-1.7-5.3.3.2 1.5-1.6 2.6-4.1 1.2-2.6 2.1-3.8 2.3-2.9s.7 1.6 1.1 1.6"/><path d="M753.5 91c.3.5.8 2.2.9 3.7.2 1.6.9 5.7 1.6 9.3 1.2 6.6 1.5 8 2.8 13.9l.7 3.3 14.9-.1c8.2-.1 15.2-.4 15.6-.6.3-.2 4-.5 8.2-.6 7.1-.2 7.6-.3 6.5-2-.6-1-3.4-3-6.2-4.5-2.7-1.5-5.7-3.2-6.5-3.9s-6.4-3.8-12.5-7c-22.9-12.1-27.6-14.2-26-11.5M755 125.8c-2.6.4-14.6 5-21.7 8.2-2.4 1.1-4.7 2-5.3 2-.5 0-3.1 1-5.7 2.1-6 2.7-8.1 3.6-11.7 4.9-2.8 1-2.8 1.1-1 2.5 1 .8 2.4 1.5 3 1.5 1 0 31 13.1 37.8 16.6 1.6.7 3.7 1.4 4.7 1.4s2.1.5 2.4 1c.4.6 1.1.8 1.6.4.5-.3.7-1 .4-1.5-.4-.5-.2-.9.4-.9.5 0 1.1.3 1.4.7.2.5.1.1-.1-.7-.3-.8-.9-6.9-1.4-13.5-1.2-17.7-1.9-22.5-3.1-22.5-.7 0-.6-.4.3-1 1.9-1.2 1.1-1.7-2-1.2M883.8 148.7c.2 15.1.6 20.1 1.8 21.7 1.6 2.3 1.9 5 .5 4.2-2.4-1.5-2.8 50.1-.4 52.5.8.8 1.3.5 1.8-1.2.7-2.2 14.1-19 15.7-19.7.8-.4 10.3-12 17.5-21.6 5.1-6.7 5.2-6.9 3.5-9-10.2-12.9-18.1-22.2-23.1-27.6-3.4-3.6-8.5-9.3-11.4-12.7-2.8-3.4-5.4-6.2-5.7-6.2-.3-.1-.4 8.7-.2 19.6M706.3 154.5c0 3.3-.5 17.2-1.1 31-.6 13.7-1 25.1-.7 25.3.2.2 3.9-2.2 8.2-5.4s10.2-7.5 13.1-9.6c2.8-2.1 5.2-4.2 5.2-4.6s-1-2.3-2.2-4.2c-4.5-7.1-5.9-9.6-7.9-13.7-1.1-2.3-2.4-4.5-3-4.9-.6-.3-1.4-1.6-2-2.7-.5-1.2-1.5-3.1-2.1-4.2-3.6-5.6-6.4-10.2-6.9-11.5-.4-.8-.7 1.2-.6 4.5M710 149.3c0 .7 4 7.9 12.8 23.2 5.6 9.8 9.4 16.4 9.9 17.3.1.4 22.4-13.8 24-15.4.7-.7 1.8-1.5 2.5-1.8 1.1-.5 1.1-.7 0-1.2-.7-.3-1.8-1.1-2.5-1.8-.6-.6-5.5-3.1-10.7-5.5s-12.2-5.6-15.5-7.1c-13.7-6.4-20.5-8.9-20.5-7.7M746.7 184.7c-7.3 4.7-11.7 8.3-11.7 9.3 0 1.7 9.3 20.7 10.9 22.3 1.3 1.3 2.2-.9 7.9-17.8 5.2-15.8 6.7-21.5 5.4-21.5-.5 0-6.1 3.4-12.5 7.7M919.6 190.3c-11.2 12.5-24.3 28.3-26.9 32.4-1.4 2.3-3.1 4.4-3.7 4.8-1.1.7-1.4 4.5-.2 4.6.4 0 2.1.2 3.7.4 1.7.2 9.5.6 17.5 1s15.9.8 17.5.9c2.4.1 3-.3 2.8-1.9-.7-6.8-2.3-31.8-2.2-36 .1-4.4.2-4.7.9-2 .7 2.6 3 31.1 3 37.3v2.4l3.8-2.3c7.4-4.5 7.2-3.9 4.7-13.7-2.2-8.1-7.4-23.5-8.7-25.7-.3-.6-.9-2.5-1.3-4.2-.9-4.5-2.2-5-1.9-.7.2 2-.1 3.2-.6 2.9-.6-.4-1-1.7-1-3 0-4.2-1.6-3.6-7.4 2.8M722.5 200.8c-4.4 3.1-9.9 7-12.2 8.7-4.7 3.3-5.3 4.5-2.3 4.5 1.1 0 3.9.5 6.2 1 6.1 1.5 28.6 6 29.8 6 1.5 0 1.2-2.7-.5-4.4-.8-.8-1.5-1.7-1.5-2 0-1.7-9.4-19.6-10.3-19.6-.7 0-4.8 2.6-9.2 5.8M705 217c0 .6.9 3.9 1.9 7.3s2.9 9.5 4.1 13.4c1.2 4 2.4 7.3 2.6 7.3.6 0 6.6-4.2 7.4-5.1.3-.3 5.6-4.1 11.8-8.4 10-7 11.1-8 9.2-8.7-2.4-.9-33.3-6.8-35.6-6.8-.8 0-1.4.5-1.4 1M856.8 221.8c-1.6 1.7-1.3 4.2.6 5.4 1.8 1.2 0 2-3.6 1.5-3-.4-3.1-.5-1-1.2 2.4-.8 3.1-3.5.8-3.5-.8 0-1.7-.6-1.9-1.3-.3-.7-.6-.5-.6.5-.1 1-.7 1.8-1.3 1.8-.7 0-2 .5-2.8 1-1.3.9-1.3 1.1 0 2 1.1.7-1 1-7 1.1-6.2.2-4.2.4 7 .9 8.5.4 19.6 1 24.5 1.4 6.3.5 8.6.4 7.5-.3-.8-.6-2.6-1.1-4-1.1-2 0-2.2-.2-1-1 1-.6 1.1-1 .3-1-2.3 0-2.8.2-2.5 1.1.1.5-.6.9-1.6.9-1.2 0-2.2-1.4-3.1-4.6-.8-2.8-1.7-4.1-2.1-3.4-.6.9-.9.9-1.1.1-.7-2-5.5-2.2-7.1-.3M736.4 231.6c-3.8 2.5-10 6.9-13.8 9.7l-6.8 5.1 5 2.2c2.7 1.2 7.9 3.2 11.4 4.4 3.4 1.2 7.7 2.8 9.5 3.6 5.9 2.7 6.3 2.3 6.3-6.6 0-10.6-1.9-23-3.5-23-.7 0-4.3 2.1-8.1 4.6M937.9 232.3c-3 2.1-3.4 2.8-3.2 6.6.1 2.5 1.3 6.1 2.9 8.9 1.6 2.6 3.7 6.5 4.8 8.7l2.1 4 .3-3c.3-1.7-.1-7.8-.8-13.7s-1-11.4-.7-12.3c.9-2.2-1.5-1.9-5.4.8M774.5 233.9c.3.5-.3 1.2-1.2 1.4q-1.95.45-.3.6c.9 0 2.1 1.5 2.7 3.2.8 2 1.6 2.8 2.4 2.3.9-.5 1-.2.6.9-.3 1-.3 1.7.1 1.7.5 0 1.9 1.9 3.2 4.2 1.3 2.4 5.6 7.9 9.4 12.4 3.9 4.4 8.4 9.6 10 11.5 9.8 11.8 13 14.8 14.3 13.7.7-.6 1.3-2.5 1.3-4.2s.7-6.7 1.5-11.1 1.8-14 2.1-21.3c.4-7.3 1.1-13.5 1.6-13.8 3.1-1.9-1.5-2.4-23.8-2.4-14.7 0-24.3.4-23.9.9M826 233.3c0 .4.6 2.6 1.4 4.9 1.4 4.4 5.7 18.9 14.1 47.3 2.6 8.8 5.1 16.2 5.5 16.5.5.3 1 2.3 1.2 4.4.3 4.2 2.8 6.4 2.8 2.6 0-1.2 1.4-5.4 3.1-9.3 7.1-16.8 10-23.7 12.9-31.7 1.8-4.7 5.4-13 8-18.5s5-11.2 5.4-12.8l.6-2.7h-10.2c-5.7 0-18.1-.3-27.5-.7-9.5-.3-17.3-.3-17.3 0M886.2 234.7c-1.7.3-2.2.9-1.7 2.1.7 1.6 1.4 7.1 4.5 34.7.6 5.5 1.4 11.8 1.8 14l.7 4 4.2-5.5c5.3-6.9 22.3-29.9 28.6-38.7 2.6-3.7 4.7-7.2 4.7-7.8 0-.9-5.3-1.4-18.2-1.9-10.1-.4-19.2-.9-20.3-1.1-1.1-.1-3-.1-4.3.2"/><path d="M823 243.8c0 3.7-.7 12.6-1.6 19.7-3.6 28.9-3.6 27.6-.2 30.7 1.7 1.5 5.6 4 8.7 5.7 3.1 1.6 6.5 3.8 7.6 4.8s3.7 2.9 5.8 4.2c4.3 2.6 4.7 1.8 2.3-4.6-2.1-5.6-7.3-22.8-9.1-30.3-.9-3.6-3.1-11-5-16.5-1.8-5.5-3.8-12.1-4.5-14.7s-1.8-4.9-2.6-5.2c-1.1-.4-1.4.9-1.4 6.2M881.7 241c-.4 1.4-.6 2.7-.6 2.9s-.4.7-.9 1c-1.2.7-8.6 14.7-9.7 18.1-.8 2.8-9 23.9-11 28.5-4 8.9-7.4 17.9-7 18.3.8.8 34.7-17.3 35.7-19.1.6-1.3.6-4.5-.1-10-.6-4.4-1.1-10.1-1.1-12.6 0-5.1-2.8-24.5-3.9-27.6-.7-1.8-.8-1.7-1.4.5M931.7 242.2c-.3 1.3-1.5 5.4-2.5 9.3-2.5 8.8-4.6 21.4-3.7 22.3.8.9 17.5-7.7 18.1-9.3.5-1.1-4.9-12.1-8.2-17-.8-1.1-1.4-3.2-1.4-4.7 0-3.4-1.5-3.7-2.3-.6M924.6 249.2c-2 2.4-4.7 5.5-6 7-1.3 1.4-4.3 5.5-6.7 9-2.3 3.4-4.6 6.5-5.1 6.6-.5.2-1.6 1.8-2.5 3.5-.8 1.8-2.9 4.8-4.4 6.8-1.6 2-2.9 4-2.9 4.3 0 3.2 21.9-8 22.1-11.2 0-1.1.2-1.2.6-.5.9 2.3 2.1 1.4 2.6-2 1-6 4.5-21.2 5.7-24.1 1.6-4.3.7-4.1-3.4.6M934.8 272.3c-4.8 2.8-8.4 5.5-8.1 6 .4.6 0 .8-1 .4-.9-.3-1.9-.2-2.2.3s2.7 2.6 6.7 4.6 7.5 4 7.8 4.3c.3.4 2 1.7 3.8 3 2.9 2 3.3 2.1 3.8.6.9-2.2-.3-22.6-1.3-23.6-.4-.4-4.7 1.6-9.5 4.4M737 271.2c-3 1.6-13 7.4-22.2 12.9s-18.1 10.4-19.8 11c-6.8 2.4-3.2 3.5 14.6 4.4l12 .7 6.7-10c3.7-5.4 7.4-10.5 8.2-11.2 1.9-1.5 6.9-9.9 6.4-10.5-.2-.2-2.9 1-5.9 2.7M907.5 285.6c-12.6 5.7-12.8 5.8-13.2 7-.2.5 2.9 2.5 6.9 4.4 4 1.8 9 4.2 11 5.2l3.7 1.8 1.4-5.3c2.1-7.3 2.9-17.7 1.4-17.7-.7 0-5.7 2.1-11.2 4.6M920.9 287.7c0 2.7-.4 7.2-.8 10.1s-.4 5.5.1 5.8c1.3.8 23.8-6.9 23.8-8.1 0-.6-2.4-2.5-5.2-4.2-17.5-10.3-17.8-10.3-17.9-3.6M799.7 287.6c.3 1 0 1.2-1 .8-1-.3-1.8.2-2.2 1.5-.3 1.1-2.4 2.7-5 3.7-4.1 1.5-4.5 2-4.5 5v3.3l5.7-2c3.2-1.1 6.2-2.4 6.7-2.9.6-.6 2-1 3.2-1 1.3 0 2.6-.5 2.9-1 .3-.6 1.4-1 2.4-1s2.4-.7 3.1-1.5c1.1-1.3.6-1.8-2.6-3.1-6.8-2.9-9.3-3.4-8.7-1.8M809.5 296.2c-2.7 1.1-8 3-11.7 4.3-10.9 3.8-10.9 3.7-4.2 8 3.3 2.1 6.8 4.4 7.9 5.2 1.1.7 5 3.4 8.7 5.8 6.8 4.6 8.8 6.5 6.9 6.5-.6 0-1.1-.4-1.1-.8s-2.8-2.5-6.2-4.5c-3.5-2-9.7-5.9-13.8-8.6-4.1-2.8-7.8-5-8.2-5-.5-.1-.8 2.3-.8 5.3 0 4.8.3 5.6 3.2 8 5.5 4.5 10.7 6.4 20 6.9 8.7.6 8.8.6 9.4-1.8.3-1.4.4-3.2 0-4-.3-.8-.1-1.5.4-1.5.6 0 1 1.3 1 2.9 0 1.7.3 3.2.8 3.4.7.5 14.3-5.5 22-9.6 3.2-1.8 4.4-4.7 1.8-4.7-.8 0-1.6-.3-1.8-.8-1.1-2.6-22.1-15.6-26.3-16.4-1.8-.3-5.1.3-8 1.4"/><path d="M879.4 298.3c-20.3 9.9-31.7 17.6-26.1 17.7.6 0 2.3.9 3.7 2l2.5 2-3.7-1.5c-2.1-.8-4.2-1.5-4.9-1.5-1.2 0-.8 6.1.6 9.5.9 1.9.8 1.9-.9.2-1-.9-2.2-3.3-2.7-5.2-.7-2.3-1.6-3.5-2.7-3.5-.9.1-6.4 2.4-12.2 5.3l-10.5 5.2-.6 7c-.5 6.5-.6 6.6-.7 1.8-.3-7.9-.6-8.3-7.1-8.3-3.1 0-7.3.3-9.3.6-3.5.6-3.6.8-2.6 2.8.7 1.1 1.2 2.6 1.3 3.1 0 2 13 13.6 15.8 14.2 3.5.7 4.1 1.7 2.6 4.5-1.2 2.3-1.5 16.4-.3 20 .3 1.1 0 4-.6 6.5-1 3.5-1 4.7-.1 5.6.7.7 1.1.7 1 .2-.3-1 1.7-9.8 5.1-22.4 1.6-5.9 1.7-7.7.8-8.3-1-.6-.9-.8.2-.8 2.1 0 2.4-7.3.5-11.1-.8-1.5-1.5-3.4-1.5-4.1s1 .6 2.1 3c1.2 2.4 2.6 4.1 3.1 4 .5-.2 2.7-4.2 4.8-8.8 5-11 9.3-18.7 9.7-17.3.2.6-1.6 5.1-4.2 10.1-2.5 5-4.5 9.4-4.5 9.9 0 .4-1.2 2.6-2.6 4.7-3.2 4.7-2.3 5.6 5.4 5.6h5.2l.1-6.8c.1-6.9 1.4-17.9 1.9-15.2.1.8.1 6.1.1 11.7-.2 9.2 0 10.2 1.7 10.7 3.1 1 7.2-1.3 6.7-3.8-.2-1.2-.6-3.9-.9-6.1l-.5-4 1.5 4.7c.8 2.7 1.8 4.8 2.2 4.7.8 0 12.6-15.9 13-17.6.2-.6-.7-2.1-2-3.3l-2.3-2.2 2.3 1.1c1.2.6 2.2 1.6 2.2 2.1s.7.7 1.5.4c.8-.4 1.5-1 1.5-1.4s2.4-5.9 5.3-12.1c2.9-6.3 5.9-12.9 6.6-14.7.8-1.7 1.7-3.2 2.2-3.2s-.5 2.7-2.1 6.1c-1.7 3.3-3.6 7.3-4.2 8.7-1.5 3.8-5.6 15.2-5.5 15.2s4.9-2.5 10.7-5.5c5.8-3.1 14-7.2 18.2-9.3 4.2-2 7.7-4.3 7.8-5 0-.6-.3-1.2-.8-1.2-.4 0-5.4-2.4-11-5.4s-11.3-5.3-12.6-5.2c-1.3 0-5.9 1.8-10.2 3.9M762.4 299.9c.4.6 0 1.4-.8 1.7-1.4.5-1.4.9-.1 3.2 2.6 4.7 5.4 7.4 8.2 7.8 1.6.2 5.1.7 7.8 1 2.8.4 5.3 1.1 5.6 1.7.4.5 1.2-1.2 1.7-3.9 1.3-6 1-6.4-8.5-9.3s-14.8-3.8-13.9-2.2M967.8 346.7c-2.1.3-3 1.4-4.3 4.7-.9 2.4-1.6 5.2-1.4 6.2.6 4.3-4.4 17.4-6.6 17.4-.8 0-1.4.4-1.2.9.1.5-1.6 2.3-3.7 4-2.2 1.8-4.6 4.1-5.3 5.1-.8 1.1-2.3 2-3.4 2-1 0-1.9.5-1.9 1.1s1.3.8 3.3.5c1.7-.3 6.6-.8 10.9-1.2 6.8-.6 7.7-.9 8.7-3.1.6-1.3 1.1-3 1.1-3.8s.7-3.5 1.6-6c.8-2.5 1.6-6 1.8-7.8.1-1.8.8-4.8 1.4-6.7 1-3.4 2.6-14.2 2-13.9-.2.1-1.5.4-3 .6"/><path d="M828.1 370.3c-.5 1.8-2.6 10.2-4.6 18.7s-4.1 17.4-4.7 19.7c-1.1 4.3-.3 13.3 1.1 13.3.8 0 8.3 10.4 12.6 17.4 1.1 1.8 3.3 4.8 4.8 6.6l2.9 3.3-.6-3.4c-.3-1.9-.8-9.9-1.1-17.9s-1.7-22.2-3.1-31.5c-2.9-19.3-3.2-21.9-3.3-25.6-.1-4.1-2.8-4.4-4-.6M966.7 377.2c-1.6 5.1-2.8 9.9-2.7 10.5.2 3.7 0 5.2-1.3 9.8-2.8 10-2.9 10.5-1 10.5 2.7-.1 7.3-4.6 8.4-8.3 1.1-3.5 1.1-19.2 0-27l-.6-4.8zM948.5 390c-1.6.4-4.7 1.1-6.8 1.5-2.1.3-3.5 1-3.2 1.6.4.5-.1 1.2-.9 1.5-2 .8-2 2.9 0 10.9 2 8.1 3.5 9.5 5.9 5.8 1-1.6 3.7-5.1 6-7.8 2.3-2.8 5.6-7.1 7.3-9.8l3.1-4.7-4.2.1c-2.3 0-5.5.4-7.2.9M775.9 412.5c-.5.4-9.3 1.6-27.3 3.5-4.9.6-9.1 1.2-9.3 1.4-.5.5 7.7 12.7 10.6 15.7l2 2.1 8.3-7.3c4.6-4.1 9.9-8.8 11.9-10.5 3.3-2.9 5.5-5.4 4.6-5.4-.2 0-.6.2-.8.5M769.5 473.6c-16.8 14.5-19.5 17.5-17.3 19.4 3.1 2.7 28.1 16.9 28.9 16.4.5-.3 2.1-3.1 3.5-6.2s3.1-6.8 3.9-8.1c1.1-2.2 1-2.9-1.3-6.5-4.8-7.7-10.3-14.7-11.1-14.1-.5.2-1.1-.4-1.4-1.5-.7-2.6-1.6-2.5-5.2.6M790.3 497.2c-.6.7-2 3.5-3.3 6.1-2.1 4.5-2.1 4.9-.5 6.6 1.2 1.4 1.3 2.1.5 2.6s.8 2.8 4.6 6.6c3.2 3.3 6.1 5.9 6.5 5.9 1.4 0-2.4-17-4.1-18-.6-.4-1.2-1.7-1.3-2.8-.1-1.2-.5-2.2-.9-2.2s-.5-1.4-.1-3c.6-3.2.1-3.8-1.4-1.8M378.7 97.6c-.3.4-.3 1.4.2 2.3.4.9 1.6 5.5 2.6 10.3 1 4.9 2.1 8.8 2.6 8.8s.9 1.3.9 2.9c0 3.4.9 6.3 1.9 5.7.3-.2.6 1.2.5 3.2-.4 8 3.5 11 8.1 6.2 1.7-1.7 2.4-3.3 2-4.1-.5-.7-.4-1 .2-.6 1.2.8 6.3-5.4 6.3-7.7 0-.8-.5-1.8-1.1-2.2-1.6-1 1.2-2.5 3.4-1.8 1.2.4 2.9-.6 5.3-3.3 1.9-2.1 4.3-4.7 5.4-5.8 1.1-1.2 2-2.4 2-2.7 0-.8-6.3-2.8-24.2-7.8-16.6-4.5-15.3-4.2-16.1-3.4M361 102.8c-5.2 2.6-12.4 6-16 7.6s-13.7 6.4-22.5 10.7c-8.9 4.3-18.3 8.6-21 9.7-4.4 1.7-4.7 2-2.6 2.7 1.2.4 5.7.4 9.9.1 4.3-.3 11.5-.8 16.2-1.2 5.3-.3 10.1-1.3 12.6-2.5 4-1.9 36-31.9 33.9-31.8-.5 0-5.3 2.1-10.5 4.7M495.5 100.7c-1.6.2-15.4 1.7-30.5 3.3s-29.9 3.2-32.9 3.6c-4.6.5-5.1.7-3.5 1.8 2.6 1.7 31.6 13.9 39.9 16.8l6.7 2.3 11.9-12.5c12.5-13.1 14.9-16.1 12.7-15.9-.7.1-2.6.4-4.3.6M304.8 134.7c-10.6.4-10.5.2-4.9 12.9 4.6 10.8 9.8 23.2 10.5 25.7.5 1.7.9 1.5 3-1 1.3-1.5 3.5-5.1 5-8 1.4-2.9 5-9.2 7.9-14 2.8-4.8 6-10.5 6.9-12.6l1.8-3.7-10.8.2c-5.9.1-14.6.4-19.4.5M410 211.7c-1.9.2-10.1 1-18.2 1.8-8 .9-16.1 1.8-17.8 2.2l-3.2.6.6 9.1c.4 5 .6 9.8.6 10.6-.8 17.8-.9 30.1-.3 41.5l.8 13.9 4.9-8.4c7.1-12.2 25.6-45.2 25.6-45.7 0-.2 1.9-3.6 4.2-7.6 5-8.8 8.8-16.4 8.8-17.7 0-.5-.6-.9-1.2-.8-.7 0-2.9.3-4.8.5M414.6 219.5c-1 2.2-3.7 7.4-6.1 11.5-9.5 16.7-25.5 46-28.9 53-2.1 4.1-4.2 7.9-4.7 8.4-2.6 2.7-.3 4.6 17.9 14.8 24.4 13.9 26.2 14.8 26.8 14.8.9 0-.6-64.8-2-87.5l-1.1-19zM365.5 234c.3 1.1.2 2-.4 2-.5 0-1.1 1-1.3 2.2-.2 1.7-1.1 2.4-3 2.6-2.2.3-2.8.9-2.8 2.8 0 1.3-.5 2.4-1.1 2.4s-.8.9-.4 2 .2 2-.4 2-1.1-.9-1.1-2-.4-2-.8-2c-.7 0-.8 2.1-.3 6.8 0 .7.6 1 1.3.6s.8-.3.4.5c-.4.6.1 3.1 1.2 5.4 1 2.3 4.1 9.3 6.8 15.5 4.7 10.8 4.9 11.1 5.6 8 .4-1.8.5-3.9.3-4.6-.2-.6-.5-9.3-.5-19.3-.1-14.6-.4-18.1-1.6-18.6-.8-.3-1.4-1.2-1.4-2s.4-1.2.8-.9c.5.3.6-.8.4-2.5-.2-1.6-.9-2.9-1.4-2.9s-.6.9-.3 2M293.5 247.8c-2.1 4.2-5.3 11.5-7.2 16.2s-3.9 8.9-4.4 9.4c-.5.6-.9 1.4-.9 1.9s2.1-.7 4.8-2.6c2.6-1.9 7.1-4.7 10-6.3 3-1.6 5.5-3.8 5.8-5 .3-1.1-.2-5.1-1-8.8-.9-3.7-1.6-7.8-1.6-9.1 0-4.7-1.8-3.3-5.5 4.3M288.3 249.9c-1 1.6-5 7.1-8.8 12.2-3.9 5.2-7.7 10.4-8.5 11.5-.8 1.2-3.4 4.9-5.8 8.3-2.3 3.3-4 6.1-3.7 6.1.8 0 13.6-8 15.8-9.9 1.9-1.6 3.6-5 10.2-20.9 4.2-9.9 4.6-13.1.8-7.3M330.5 253.7c-8.8 3.1-16.2 5.8-16.5 6-.2.2 0 .7.5 1.1 1.6 1.1 1.7 3.4.3 4.5-.9.6-.8.7.5.3 1.1-.3 2 0 2.3.9.6 1.5 19.9 11.5 22.1 11.5.6 0 1.3.3 1.5.7.8 1.9 17.4 9.5 21 9.8 3.7.2 3.9.1 3.4-2-.3-1.3-2.2-5.7-4.1-9.8s-3.5-7.7-3.5-8.1c0-.3-1.1-2.9-2.4-5.8s-3.3-7.4-4.5-10.1c-1.2-2.6-2.7-4.7-3.4-4.6-.6 0-8.4 2.5-17.2 5.6M297.5 267.1c-5.8 3-14.8 9.2-15.2 10.6-.4 1.2 7.2 9.3 8.7 9.3.5 0 1.6.7 2.4 1.6 1.5 1.4 1.7 1.3 2.7-1.3 1-2.8 3.6-12.4 4.4-16.4.2-1.1.7-2.9 1-4 .8-2.3.9-2.3-4 .2M272 283.5c-2.9 1.9-5.5 3.5-6 3.5-1.4 0-6 4.1-6 5.3.1 1.3 10.8 10.3 11.4 9.6 1.4-1.5 7.2-21.9 6.3-21.9-.3 0-2.8 1.6-5.7 3.5M279 281.4c0 .9-1.1 4.9-2.5 9s-2.5 8.4-2.5 9.5c0 2.4.8 2.2 12.7-3.6l7.6-3.7-3.9-3.4c-8.8-7.6-11.4-9.4-11.4-7.8M401.3 335c-9 4.3-16.3 8.2-16.3 8.7.1 1.1 7.6 6.6 12 8.8 1.9 1 3.9 2.4 4.3 3.1.4.8 1.4 1.4 2.1 1.4.8 0 1.6.6 1.9 1.4.8 2.1 4.7 2.8 4.7.8.1-2.5 2.7-5.5 4.3-4.9 1 .4 1.8-.6 2.5-3.1 1.4-4.7 2.6-24.2 1.5-24.2-.4 0-8.1 3.6-17 8M349 344.2c0 2.9.3 8.3.6 12 .6 5.9.9 6.7 3 7.1 1.3.2 3.2-.1 4.1-.8s2.3-1.1 3-.8 1.3-.2 1.3-1.1.6-1.6 1.3-1.6c1.6 0 16.3-14.7 15.5-15.6-.6-.5-24.2-4.3-27.5-4.4-.9 0-1.3 1.7-1.3 5.2M380.7 349.2c-1.1 6.6-5.7 25.5-8.1 33.7-1.4 4.6-2.5 8.6-2.3 8.7.4.5 9.2-4.2 20.2-10.6 5-2.9 12.3-7.2 16.2-9.5l7.3-4.2-5.8-3.9c-3.1-2.1-10.1-6.9-15.4-10.6-5.4-3.8-10.1-6.8-10.7-6.8-.5 0-1.1 1.5-1.4 3.2M275.4 377.6c-.5.1-2.1.5-3.6.8-1.9.4-3 1.6-3.8 4.1-.6 1.9-.9 3.9-.6 4.4.4.5.2 1.2-.4 1.6-.5.3-1 1.8-1 3.3-.1 1.5-.7 4.9-1.4 7.7-.8 2.8-1 5.4-.5 5.9.5.6 4.8.4 10.9-.4 8.3-1.1 10-1.6 10-3.1 0-.9-1.1-6-2.5-11.3-2.3-8.9-4.8-13.5-7.1-13M322.4 384c-3.4.4-7.2 1.5-8.7 2.6-2.9 2.1-3.2 4.5-2.1 13.9l.6 5.1 3.2-2.9c1.7-1.7 6.1-5.7 9.9-9 4.7-4.2 6.7-6.7 6.7-8.3 0-2.6.3-2.6-9.6-1.4M299.2 395.1c-4.4 4.1-8 7.7-8.1 8s3.6 1.4 8.2 2.4c4.5 1 8.8 2 9.5 2.3 1.1.4 1.2-1.3.7-8.9-.4-5.2-1.1-9.8-1.5-10.3-.5-.5-4.4 2.4-8.8 6.5M326.8 394.9c-4.3 3.8-8.8 8.1-10 9.6-2 2.6-2 2.7-.2 2.2 1-.3 4.7-1.1 8.1-1.8 3.5-.6 7-1.7 7.8-2.3 2.3-1.7 4.4-8.6 3.4-11.2-.5-1.5-.4-2.4.4-2.8.8-.3.6-.5-.3-.5-.8 0-5 3-9.2 6.8M213.6 442c.9.8 2.3 1.6 14.7 8.4l6.4 3.6 5.9-3.1c3.2-1.7 8.3-4.1 11.3-5.3l5.5-2.4-16-.6c-8.7-.4-18.8-.8-22.3-1s-5.9-.1-5.5.4M256 468.1c0 .6-2.5 6.2-5.7 12.6-3.1 6.4-5.6 12.2-5.6 12.9 0 .8-.5 1.4-1 1.4-.6 0-.7.3-.4.6.3.4.2 1.4-.3 2.4-1.1 2 .2 3.4 10.2 10.3 3.6 2.6 6.8 4.2 7 3.7.2-.6 0-5.7-.4-11.3s-1-15.5-1.4-22c-.3-6.4-1-11.7-1.5-11.7s-.9.5-.9 1.1M274.2 485.2c-1.1 2.6-3.2 8.2-4.6 12.5-1.3 4.3-2.7 8.6-3.1 9.5-1.4 3.4 1.6 1.8 8.3-4.6l6.7-6.5-1.3-4.5c-.6-2.5-1.8-6.1-2.6-7.8l-1.4-3.3zM273.1 506.5c-9.2 9.6-9.6 8.6 4.4 10.4 14.6 1.9 18.6 2.2 19.5 1.6 1-.6-13.4-20.5-14.9-20.5-.4 0-4.5 3.8-9 8.5M858.5 598.7c-2.2.1-6.8.5-10.2.9l-6.2.5.3 4.2c.2 2.3.6 4.9 1 5.8s.2 3.5-.3 6c-.5 2.4-.9 4.5-.7 4.6.2.2 1.1-.7 2.2-1.9 1-1.2 1.3-1.8.5-1.3-1 .5-1.2.4-.7-.4.4-.6 1.2-.9 1.7-.5.9.5 18.8-15.7 19.7-17.8.2-.5-.5-.7-1.5-.6s-3.6.3-5.8.5"/></svg>