<svg xmlns="http://www.w3.org/2000/svg" width="1706.667" height="960" viewBox="0 0 1280 720"><path d="M0 360v360h247.6c234.5 0 247.8-.1 249.1-1.8 1.4-1.6 1.4-1.6.9 0-.4 1.5.1 1.8 2.7 1.8 3.2 0 3.4-.2 5.6-7.1 1.2-3.9 2.5-6.9 2.7-6.6.3.2-.2 2.4-1 4.8-2.4 6.8-2.1 8.9 1.2 8.9 1.9 0 3.7-1.2 6.2-4.2 1.9-2.2 3.4-4.5 3.2-5-.1-.5.1-.7.5-.5 1.3.8 4.6-2 3.8-3.2-.3-.6.2-1.4 1.2-1.8 3-1.1 4.3-3.5 2.7-5.1-.8-.7-1.4-1.7-1.4-2.1 0-1 4.5-5 8.5-7.5 4.4-2.9 5.2-3.9 5.1-6.6-.1-1.7.5-2.6 1.8-2.8 2.3-.5 7.6-5.5 7.6-7.2 0-.7.6-2.6 1.4-4.3.8-1.8 1.6-4.2 1.8-5.5.3-2.6 2.1-3.1 2.4-.7.1.8-.1 1.5-.6 1.5-.4 0-1.3 2.2-2 5-1 4.3-1 5.2.4 6.6.9.9 2.3 1.3 3.1 1 .9-.3 2.7-.1 4.1.4 2.2.9 2.5.8 2-.5-.3-.9 0-1.5.9-1.5 2.1 0 6.5 2.2 6.5 3.3 0 .5 2.3.8 5.6.5 5.1-.4 5.6-.3 6.5 1.9.4 1.2.5 3.2.1 4.3-.4 1.2-.2 7.4.4 13.8.7 6.7.8 11.8.3 12s-.9 2.2-.8 4.5c.1 3.6.2 3.8.9 1.7.8-2.4.8-2.4.9-.3l.1 2.3h151.4c120.2 0 151.5-.3 151.9-1.3q.6-1.35.6 0c.1 1 40.2 1.3 197.1 1.3h197V0h-219.4c-208 0-219.4.1-220.1 1.7-.6 1.7-.7 1.7-1.9 0C837.3.1 816.2 0 418.6 0H0zM819.2 61.8c3.5 1.6 14.3 6.2 24.1 10.2 9.7 4 17.6 7.5 17.4 7.7-.3.3-45.9-18.1-47.9-19.3-1.9-1.2-.5 1.5 2.8 5.1 1.9 2.2 6.7 7.8 10.7 12.5 3.9 4.7 12.4 14.6 18.9 22 6.4 7.4 13.1 15.1 14.7 17l3.1 3.5 7.3-7.5c4-4.1 9.2-9.8 11.5-12.5 3.7-4.3 3.6-4-.9 2-2.8 3.8-5.4 7.2-5.8 7.5-1.6 1.3-9.1 10.4-9.1 11.1 0 .4 1.9 1.2 4.3 1.7l4.2 1-3.7.1c-2.1.1-3.8.5-3.8 1s3.7 4.9 8.1 9.8c4.5 4.8 10.4 11.5 13.1 14.8 6.6 7.9 18.7 20.5 19.8 20.5 1 0 .5-5-2.2-20.5-1.1-6.6-2.3-13.9-2.5-16.2l-.5-4.2-5.6-1.2c-3.1-.6-7.6-1.5-10.1-1.9l-4.6-.8h4c2.2-.1 6.6.5 9.7 1.2 3.1.8 5.9 1.2 6.2.9.4-.5-1.6-5.8-5.1-13-.8-1.8-1.3-3.7-1.1-4.4.2-.6 2.1 3.1 4.2 8.3l3.8 9.5 12.2 8c6.6 4.4 13.4 8.9 15 9.9l3 1.9-.6-2.3c-.6-2-.4-2.1.9-1 .8.6 1.9 2.3 2.4 3.5.8 2.1 1.2 2.2 3.1 1.2 1.9-.9 2.1-.9 1.1.2-1.5 1.5-1.7 6.8-.4 10.2.5 1.3 1.2 6.7 1.4 11.8.4 7.9.3 8.6-.5 4.4-2.4-12.8-4.1-19.6-4.9-20.1-1-.5-5.1 2.6-11.9 9-1.9 1.8-5.2 4.5-7.3 6-2.1 1.6-4.1 3.4-4.4 4.2s1.3 3.4 3.7 6c2.3 2.5 3.9 4.9 3.5 5.2-.4.4-1.7-.5-2.8-1.9-3.8-4.6-4.5-2.4-1.9 5.9 1.3 4.2 2.8 8.7 3.4 9.9.6 1.3.9 2.6.6 2.9-.9.8-4.7-8.1-6.1-14l-1.1-4.9-1.2 2.8c-1.1 2.7-1.2 2.8-1.8.7-.4-1.2-.5-2.5-.3-2.9.3-.5.1-1.7-.3-2.8-.6-1.9-.8-1.8-2 .5-.7 1.4-2 3.2-2.9 4-9.5 8.9-36.1 41.6-36.1 44.3 0 .5 11 1.3 31.4 2.3l12.9.6-.6-12.3c-.4-6.8-.9-16.7-1.2-21.9-.4-6.2-.3-9 .3-8 .6.8 1.5 10.5 2.1 21.4.6 11 1.4 20.2 1.6 20.5.3.2 1.4-.5 2.6-1.7 1.1-1.2 3.6-2.9 5.5-3.7 3.3-1.4 3.5-1.6 2.9-5.2-.6-3.2-4.8-15.2-6.2-17.6-.2-.4 0-.7.4-.7s1.9 2.9 3.2 6.5c1.2 3.6 3.2 7.1 4.3 7.9 1.2.8 1.9 2.3 1.7 3.8-.3 3.4 1.4 6.8 5.7 11.3 8.1 8.5 13.4 14.8 12.8 15.4-.3.3-1.8-1-3.2-2.9-1.5-1.9-5.7-6.7-9.4-10.5l-6.8-7v9.4c0 11.9-1 11.4-1.3-.8-.2-5-.5-9.2-.8-9.4-1.1-.5-9.9 5.8-10.4 7.4-.6 1.7 9.4 23 12 25.5 1.1 1.1 1.7 1 3.8-.6 3.9-3.1 4.4-2.4.7.9l-3.3 2.8 5.2 10.3c2.9 5.7 6.1 11.6 7.2 13.1 1 1.5 1.9 3.1 1.9 3.5s.6 1.5 1.4 2.3c1.3 1.7 4.6 11 4.6 13.3 0 .7-.7 0-1.5-1.6-.8-1.5-1.5-3.4-1.5-4 0-1.5-5.7-12.6-7.5-14.6-.7-.8-3.2-5.3-5.5-10l-4.1-8.5.5 12.7c.4 7 .9 13.4 1.2 14.2s1.8 1.8 3.4 2.1 3.5 1.4 4.2 2.3c1.1 1.3 1.1 1.4-.1.8-2.2-1.4-8.1-2.5-8.1-1.5 0 .5-.5.9-1.1.9-.5 0-.8-.4-.5-.9 1-1.5-7 .5-19.4 5-8.9 3.2-11.9 4.7-11.5 5.7.3.8-.2 2-1 2.6-1.3 1-.3 1.4 5.6 2.4l7.3 1.3 4-3.9c2.3-2.1 5-4.5 6.1-5.3 1.9-1.3 1.9-1.3.5.6-.8 1.1-2.3 2.9-3.3 4-3.1 3.3-4 5.5-2.5 5.9 1.7.6 7.1 1.9 8 2 .3.1 1 .4 1.4.8.4.5 1.5.8 2.5.8s2.2.8 2.8 1.7c.8 1.4 1 1.1 1.5-1.7.3-1.9.7-5.1.9-7 .2-2.4.5-1.3 1.1 3.7.5 4 1.2 7.3 1.6 7.3.5 0 2-1.4 3.4-3.1 3.1-3.7 3.3-3.2.5 1.5-1.2 2-1.8 4.3-1.5 5.4.8 2.3 11 12.6 12.2 12.2.5-.1 1.4-1.4 2-2.9.9-2.3 1-2.1 1 2.4l-.1 5 4.3.1 4.2.2v-11c0-6.5.5-11.8 1.2-13.1s1.1-6.1 1.1-11.7l-.1-9.5.9 8c1.2 10.6 1.2 10.5 5.6 10.1 2.1-.2 5.1-.1 6.7.2 2.7.5 2.8.6 2.2 5.1-.9 6.3-2.4 7.3-1.8 1.2.4-4.3.2-5.1-1.2-5.1-.9 0-2.6 1.6-3.7 3.5-1.2 1.9-2.5 3.5-3 3.5-1.2 0-1.1-2.7.1-3.5.6-.3 1-1.4 1-2.3-.1-1.3-.7-1-2.4 1.2-2.6 3.2-3.8 7-2.5 8.3.4.4.9 3.2 1 6 .2 2.9.6 5.3 1 5.3.7 0 2.5-10.1 2.2-12.7 0-.7.3-1 .9-.7.5.3.7 2.3.5 4.5-.5 4.8 0 5.4 2.4 2.6 2.6-3.2 2.3-.9-.6 3.8-1.4 2.2-2.5 5-2.5 6.2s-.4 2.5-1 2.8c-.5.3-1 .1-1-.6 0-2.1-1.9.4-2.4 3.1-.2 1.4-.5 5-.5 8-.1 4.2-.4 5.1-1.2 4-.8-1.2-1-1-.5 1 .3 1.4.9 6.8 1.3 12 .4 6.4.9 8.7 1.4 7 .4-1.4.7-1.9.8-1.2s.5 1.1 1 .8c.5-.4 1.2 0 1.4.6.3.7.6-.1.7-1.7.2-5 1-10.5 2-14.4.8-2.8.9-2 .5 3.9-.7 10.6-3.1 29-4.3 32.5-.6 1.6-1.8 7.4-2.8 12.8-.9 5.5-2 9.3-2.4 8.7-.4-.7-1.2-1-1.7-.7s-.9-.3-.9-1.3.3-1.7.7-1.4c.3.2 1-2.3 1.3-5.6.4-3.3 1.1-5.8 1.5-5.5.5.2 1.1-1.4 1.4-3.8.4-2.5.2-4.3-.5-4.6-.6-.2-.5-.7.3-1.2 1-.6 1.1-.9.2-.9-.7 0-1.3-.9-1.3-2.1 0-1.1-.4-1.8-.9-1.4-.5.3-1.2-.3-1.5-1.2-.3-1-.4-.5-.2 1.1.2 1.7 0 4-.5 5.3-.7 1.8-.5 2.1.9 1.6 1.4-.6 1.5-.4.5.8-.7.8-1.2 2.4-1.3 3.4-.2 5.3-.8 8.5-1.8 9.7-.6.7-1.4 2.7-1.8 4.3-1.1 4.5-4.4 11.3-4.4 9.2 0-2.8 3.1-12.1 4.5-13.2.6-.6 1-1.5.8-2.2s.1-2.1.6-3.2c1.7-3.2-.6-3.5-2.6-.4-2 3.2-4.3 5.7-4.3 4.8 0-1.3 3.1-6.5 3.9-6.5 1 0 2.3-4.1 1.6-4.9-.3-.2-1.3.3-2.2 1.1-1 .9-4 2.6-6.6 3.8-3.1 1.5-4.6 2.8-4.3 3.6.3.7.1 1.6-.4 1.9-.6.4-1 .1-1-.4 0-2-5.5-1.1-12.6 2.1s-7.3 3.3-12.8 12.6c-4.9 8-5.5 9.6-4.4 11 1.2 1.5 1.1 1.6-.5.3-.9-.8-2-1.2-2.3-.9-.2.3-3.5-2.7-7.2-6.6s-7-7.2-7.4-7.4c-.5-.2-.8-.8-.8-1.4 0-.5 3.5 2.2 7.7 6.1 7.2 6.7 9.3 8.1 9.3 6.3 0-.4 2.3-4.5 5-9.1 2.8-4.7 4.7-8.8 4.3-9.1-.8-.7-23.4-3.9-29.8-4.2-4.7-.3-5.5.7-5.6 7.5-.1 3.4-.4 4.8-.6 3.2-1.4-12.3-1.1-11.6-4.6-11-2.6.5-11.7 1.5-25 2.8-1 .1-1.5.7-1.2 1.5.3.7.5 2.9.5 4.8 0 2 .4 3.3.9 3s1.7.7 2.6 2.2c1 1.5 1.2 2.1.4 1.5-1.4-1.4-3.3-1.8-2.5-.5.2.4 1 4.8 1.7 9.7.6 4.9 1.8 10.7 2.5 12.9.8 2.1 1.4 5 1.4 6.5-.1 2.4-.2 2.3-2.2-1.3-1.1-2.2-2-5.7-2-8 .1-2.2-.3-4.5-.8-5.1-.8-1-2.1-8.2-2.1-11.8 0-.9-.4-1.5-1-1.2-.5.4-.9 3.3-.9 6.5 0 6-.7 9-2 9-.4 0-1-8.7-1.3-19.3-.4-12-1.2-21.4-2.1-25.2-.9-3.3-1.6-8.6-1.6-11.8s-.4-5.6-.9-5.3c-1.2.8-1.3 20.3-.1 30.1.5 4.4 1.4 12.5 2 18 1.4 14.3 1.9 16.4 4 18.5 1.8 1.8 1.7 1.8-1.8 2.5-2.1.4-8.1.6-13.5.6-9.6-.2-9.8-.2-8.7 1.8.6 1.2 1.4 2.1 1.8 2.1s1.6 1.5 2.6 3.2l1.8 3.3-3.4-3.6c-4.3-4.8-6.6-5.5-7.8-2.6-.5 1.4-.9 1.6-.9.6-.1-.8-.7-2.4-1.5-3.4-1.2-1.7-2.7-1.8-15.7-1.6-7.9.1-15.1.4-15.9.6-1.7.6-4.4 6.8-8.2 19-2 6.1-2.4 9.3-2 13.4.3 3.8.2 5.2-.6 4.7-.7-.4-.9-2-.5-3.9.8-4.4-.7-2.8-1.7 1.8-.7 3-.2 5.7 2 12.9 1.5 5 3.1 10.9 3.4 13.1.4 2.2 1.3 5.1 2.1 6.5l1.3 2.4 1.2-3.9c3.8-13.1 9.3-39.3 8.4-40.7-.4-.7-.3-.8.4-.4q1.2.75 1.2-1.8c0-3.5 1-3.7 5.3-1.1 3.6 2.1 3.7 2.3 1.5 2.8-2.2.6-2.2.7-.3 2.4 1.9 1.9 8.2 2.3 7.8.5-.3-1.1 3.5-.4 4.2.8.3.5-.4.6-1.5.3-2.2-.6-2.3-.3-1.4 2.2.5 1.3.9 1.4 1.5.4s1.1-1 2.3 0c.9.7 1.3 1.7 1 2.3-.3.5 0 1.5.6 2.3s.9 1.9.5 2.5c-.3.5-.1 1 .5 1s.9.4.5.9c-.3.5-.1 1.2.4 1.5.9.6 6.1-6.3 6.1-8.2 0-.7.5-1.2 1-1.2.6 0 1 .9 1 2s.4 2 .9 2 1.3 1 1.6 2.2c.4 1.1 2.1 3.6 3.7 5.3 1.6 1.8 3.5 4.1 4.3 5.1 1.9 2.5 1.9 1.1 0-10.1-.9-4.8-1.3-9-1.1-9.3.3-.3.8.1 1 .9s1.1 3.6 2 6.3 1.6 6 1.6 7.3c0 2.8 1.7 6.3 2.9 6.3.5 0 1.4-1.7 1.9-3.8.9-3.1 1-2.5.5 3.8-.9 12-1.5 14.3-4.3 15-1.4.4-4.9 1.9-7.9 3.4-3 1.4-6.1 2.6-6.8 2.6s-4.4-1.4-8.1-3.1c-4.6-2.1-7.6-2.9-9.6-2.5-3.3.7-21.4 9.2-23.6 11.1-1.3 1.1-2.9 0-11.5-8.1-5.5-5.1-10.3-9.4-10.6-9.4-.6 0-4.2 4.9-4.4 6-.3 1.2-4.2 7.5-6.3 10.1-2.7 3.2-2.5 3.4 4.8 4.3 2.5.3 7 1.2 10 2.1 8.9 2.5 16.9 3.7 26.5 4 5 .2 10.3.9 11.9 1.5 1.7.6 6.5 1.4 10.8 1.7 6.8.5 7.8.4 7.8-1.1 0-.9.4-1.6 1-1.6.5 0 .6.8.3 1.7-.5 1.3-.3 1.5 1.3.8 1-.4 4.4-1.1 7.4-1.6s6.8-1.1 8.4-1.4c2.1-.4 2.7-.2 2.3.9-.5 1.1 0 1.2 2.6.2 1.8-.6 3.4-1.4 3.7-1.7.3-.4 3.7-.6 7.5-.6 6.9.1 6.9.1 3.1 1.2-4.2 1.2-6.1 3.5-2.9 3.5 1 0 3.8 1.6 6.3 3.6l4.4 3.5 1.9-2.5c1-1.4 5-5.2 8.8-8.6 3.9-3.3 6.7-6 6.2-6-.4 0-2.5.4-4.6.9-3.2.8-3.8.7-3.3-.5.3-.8.2-1.2-.3-.9s-1.2.1-1.6-.5 1.2-1 4.4-1c5.8 0 8.1-.7 8.1-2.5 0-.7.5-1.5 1-1.7.6-.2 2.3-3 3.9-6.3 2.8-5.9 2.9-5.9 2.7-2.4 0 2.1-.4 3.5-.8 3.2-.4-.2-1.6 1.2-2.5 3.2-1.4 3-1.5 3.8-.4 4.5 1.1.6.8 1.4-1.4 3.4-1.5 1.4-3.1 2.6-3.5 2.6-.3 0-4.7 3.8-9.6 8.4-8.3 7.8-8.8 8.5-7.4 10.2 2.1 2.6 4.2 6.5 3.8 7-.2.2-1.5-1.5-2.8-3.7-2.8-4.5-3.9-4.6-12.3-.3-2.6 1.3-5.1 2.3-5.5 2.2-1.4-.4-11.5 2.3-20.3 5.2-4.9 1.7-9.3 2.8-9.8 2.6-.4-.3-7.7-1.9-16.2-3.6-8.5-1.8-18.6-4.2-22.6-5.6-3.9-1.3-7.8-2.4-8.5-2.4-.8 0-3.8 2.5-6.8 5.6-3 3-6.3 6-7.3 6.5-1 .6 1.2-1.9 4.9-5.5 4.2-4.1 6.4-7 6.1-8-.3-.8-5.4-4.7-11.4-8.7-5.9-3.9-11-7.5-11.3-7.8-.3-.4-1.8-1.7-3.4-2.9-2-1.6-2.4-2.2-1.2-2.2.9 0 1.9-.7 2.2-1.5.4-.8 1-1.2 1.5-.9s.9 0 .9-.6 2.3-4.4 5-8.5c2.8-4.1 5-8 4.9-8.7 0-.7-5.4-4.5-12-8.3-6.5-3.9-13-8-14.4-9.2-1.4-1.3-2.7-1.9-3-1.3s-1.1 1-1.7 1-.8-.3-.5-.7c.4-.3-.2-2.1-1.3-4-1.1-1.8-2.9-4.9-4.1-6.8-3-5.1-1.6-4.3 2.5 1.5 2 2.7 4 5 4.5 5 1.7 0 21.1-20.4 20.2-21.3-.5-.5-5.5-2.4-11.2-4.3s-10.8-3.9-11.3-4.4c-.6-.6 2.8.3 7.5 1.9 10 3.4 13.9 4.4 13.9 3.5 0-.4-1.2-2.8-2.6-5.3l-2.6-4.6 3 3.5c1.7 1.9 4 4.6 5.1 6 1.8 2.3 2 2.3 2 .5-.1-6.2 1.1-22.9 1.7-23.4.3-.3.4 4.5.2 10.6-.2 6.2-.2 11.3 0 11.3.5 0 6.6-7.2 9.7-11.4 1.6-2.3 3.8-4.7 4.7-5.4 2-1.4 10.5-11.8 18.1-22.1 4.1-5.5 4.6-6.7 3.4-7.9-1.4-1.3-15.5-3.7-26.2-4.4l-5-.3-1.1 6.5-1.2 6.5-.1-5.4-.1-5.3-2.7 1.8c-1.6 1-4.8 3.7-7.3 6-4.6 4.3-7.2 6.6-12.4 11-2.1 1.8-2.7 3.1-2.3 4.9.2 1.4 0 2.5-.4 2.5-.5 0-.9-.5-.9-1 0-.6-.9-1-2-1-1.3 0-1.8-.5-1.4-1.5.4-.8-1.6-4.5-4.6-8.7-8.3-11.5-9.6-12.5-17.6-13.8s-14.4-3-16.1-4.3c-.8-.5-1-1.9-.7-3.3.4-1.3.2-3-.4-3.7-.5-.6-1.3-3.4-1.7-6.1s-1.1-6-1.6-7.3c-.8-2-1.2-2.2-3-1.3-1.1.7-2.4.9-2.7.5-.3-.3.4-.8 1.6-1.2 1.4-.3 2.2-1.3 2.2-2.7 0-2-1-3.9-9.1-18.1-1.9-3.3-4.1-7.9-4.8-10.3-1.6-4.9-2.7-5.4-3.3-1.4-.5 3.2 1.1 39 1.8 41.1.3 1 1.3.7 3.9-1.3 1.9-1.5 3.5-2.3 3.5-1.9s-1.4 1.7-3 2.8c-3.9 2.6-3.8 4.3.6 6.1 4.1 1.7 4.1 3 0 1.4-3.7-1.4-4.6-1.3-4 .5.4.8.2 1.5-.4 1.5-.5 0-1.2-.9-1.5-2.1s-1-1.8-1.5-1.5c-.6.4-.7-.7-.3-2.7.8-3.3.5-15-.8-39.1-.6-11.2-1.1-14.1-2.4-15.1-.9-.7-1.7-1.5-1.7-1.9 0-2.1-10.6-15.4-11.5-14.4-.3.3-.8 3-1.2 5.9-.9 8.3-2.4 9.5-1.7 1.4.4-3.9.8-7.2 1-7.4s-.1-1-.7-1.7c-1.3-1.6.7-5.1 3.4-5.8 1.7-.4 1.8-.3.3 1.3-2.3 2.5-2.1 3.2 2.4 7.6 2.2 2.1 4 4.4 4 4.9 0 1.5 6.2 7.6 7.7 7.6.7 0 1.3.5 1.3 1.1 0 .5.4.8.9.4.5-.3 1.2-.1 1.6.4.3.5-.1 1.4-1 1.8-1.3.7-1.1 1.4 1.1 4.6 1.4 2.1 3.1 5.3 3.7 7 .7 1.8 3.8 8 7.1 13.9 6.3 11.5 6.7 11.8 15.7 11.8 3.5 0 3.9-.3 3.9-2.5 0-3.4-2-7.5-3.8-7.5-.8 0-1.2-.6-.8-1.5.6-1.7-2.2-5.5-4.2-5.5-.7 0-1.5.7-1.9 1.6-1 2.5-3.3-4.1-3.2-9 .1-2.2.3-3.2.6-2.1.2 1.1.6 3 .9 4.2.5 2.6 1.9 2.9 3.8 1 2-2 1-7.7-2.3-12.6l-1.5-2.4-.6 2.4c-.5 1.9-.8 1.5-1.4-2.4-.6-4.2-1-4.7-3.4-4.8-2.7 0-2.7 0-.4-1.1 1.2-.6 2.2-1.7 2.2-2.5 0-1.1.4-1.1 2-.1s2.3.9 4.3-1c1.3-1.2 2.8-2.2 3.3-2.2s2.4-1.3 4.2-3c1.8-1.6 3.8-3 4.3-3 .6 0 .8-.4.5-.9-.3-.4 1.5-2.1 4-3.7 4.7-3 4.9-3.7 2.9-9.9-.4-1.3 0-1 1.1.7 1.4 2 2.4 2.6 3.9 2.2 4.6-1.2 6.4-2.9 8-7.3 1-2.5 2.2-5.1 2.8-5.6.7-.7.8-.3.3 1-.4 1.1-1 3.3-1.3 4.9l-.6 2.9 5.9-.7c9.9-1.1 13.4-1.7 13.4-2.4 0-.4-2.3-3.6-5-7.1-2.8-3.6-5-6.8-5-7.3 0-2-1.9-.5-3.5 2.8-.9 2-1.9 3.3-2.2 3.1-.2-.3.1-1.5.7-2.7 1.6-3 .6-5.1-2.2-4.6-6.5 1.2-21.5 6-23 7.3-1.4 1.2-1.7 1.3-2.5 0-.5-1-4.1-1.7-11.3-2.5l-10.5-1 11.8.5c11.4.5 11.8.5 12.4-1.6.3-1.1.8-2.1 1.2-2.1s1.5-1.5 2.6-3.2c1-1.8 4.3-6.4 7.2-10.3 9.8-13 10.4-14 9.4-14.3-1.2-.4-13.5 6.5-21.9 12.3-3.4 2.3-11 6.9-16.7 10.1-10.1 5.7-12.2 7.4-9 7.4.8 0 1.5.4 1.5 1 0 .5-1 .9-2.2.7-1.9-.2-2.3.3-2.1 2.3.1 1.4-.1 1.9-.3 1.2-.3-.6-1.1-.9-1.7-.5-.7.4-.8 0-.4-1.3.4-1.1-.6-.4-2.4 1.6l-3.1 3.5 2.6-3.9c2.8-4.4 2.8-7.9 0-22.8-.8-4.5-1.7-10.3-2-12.8l-.4-4.5 1.4 5.5c.8 3 2 8.9 2.6 13s1.4 8.2 1.7 9 .6 2.4.5 3.5c0 1.1.4.3 1.1-1.8.6-2 1.4-3.7 1.9-3.7 1.2 0 1 2.4-.4 3.8-.9.9-.8 1.3.5 1.7 1.5.6 15.3-6.8 22.2-11.9 3.7-2.7 21.7-13.7 26.5-16.1 5.1-2.6 6.4-4.9 3.3-5.8-6.9-2.1-25.4-9.2-28.1-10.8l-3.3-1.9-6 12.6c-3.2 6.9-5.9 12.7-5.9 13 0 1.2-4.3 10.4-4.7 10.1-.5-.6 2.7-8.5 7.7-19.2 2.2-4.8 4-9 4-9.3 0-.4.7-2 1.5-3.6 1.7-3.2 1-7.4-3.1-21.3-.9-2.9-1.4-5.8-1.1-6.5.2-.7 1 .7 1.6 3.2.7 2.5 2.2 7.8 3.5 11.9 2 6.6 2.3 7.2 3.7 5.8.9-.8 3.8-3 6.6-4.8 10.9-7.3 20.2-13.9 20.7-14.7.8-1.3-6-3.1-26.1-6.8-5.1-.9-9.6-1.6-10-1.5-.5.1-.8 1.1-.9 2.4 0 1.2-.5 2.1-1 2-.9-.2-2.8 9.9-5.5 30-.7 4.8-1.4 8.5-1.6 8.3-.6-.5 1.4-17.3 3.2-28.1.8-4.4 1.5-9.8 1.7-12l.3-4-5-1.2-5-1.3 5.2.5 5.1.4.7-11.7c.4-6.4 1.2-20.1 1.9-30.5.6-10.3.8-18.7.4-18.7-1.1 0-4.1 5.5-14.9 27-5.6 11.3-11.4 22.2-12.7 24.3-2.8 4.2-2.4 5 2.8 6.6l3.5 1-4.2-.5c-4.9-.7-5.1-.2-3.3 8.3 1.9 9 3.6 21.2 2.9 20.8-.4-.3-1.3-4.3-2-9s-1.6-8.2-2-7.8c-.5.5-1.3 4-1.8 7.8l-1 7 .6-8c.3-4.4.6-9.2.8-10.8.1-1.5-.1-3-.6-3.3s-.9-1.6-.9-3-.7-2.7-1.5-3c-2-.8-1.9-2.4 0-2.4 1.2 0 1.5-1 1.3-4-.1-2.2.1-4.3.5-4.6.4-.4.7.7.7 2.4 0 1.8.5 3.2 1 3.2 1.5 0 4-4.3 16.2-28.5 6-12.1 11.6-22.7 12.3-23.5s1.5-2.7 1.9-4.3c.7-3.1.5-3.2-9.9-6.3-3.3-.9-5.4-1.9-4.8-2.1.7-.3 2.8.1 4.8.7 3 1 3.7.9 5.7-.9 1.2-1.2 2.5-2.1 2.9-2.1s1-1.6 1.3-3.5c.9-4.4 2.6-3.7 2.1.9-.2 2.7.2 3.6 2.1 4.7 2.1 1.1 3.5.9 10.7-1.6 4.5-1.6 12.9-5 18.7-7.5 5.8-2.6 12.7-5.5 15.3-6.5 4.1-1.5 4.8-2.2 4.3-3.9-.3-1.2-1.1-6.8-1.7-12.6s-1.3-12-1.5-13.9l-.5-3.4-5.7.6-5.7.5 5-2c2.8-1 5.2-2.4 5.3-2.9.2-.5 1.4-.9 2.8-.9 1.3 0 5.2-1.1 8.6-2.4 16-6.2 49.6-18.6 50.4-18.6 1.2.1-27.2 11.5-35.1 14.1-8.6 2.9-20.5 8.1-20.5 9s4.2 3.5 13.5 8.4c15.5 8.3 19.4 10.3 27.8 14.9 7.9 4.3 9.1 4.7 11.2 3.6 2.2-1.2 6.5-10.6 6.5-14.2 0-.8 1.2-6 2.6-11.4s2.9-11.5 3.4-13.4 1.5-5.8 2.2-8.5l1.3-5 .3 3.9c.2 2.1-.1 4.2-.6 4.5s-1.7 4.2-2.7 8.6c-.9 4.4-2.6 11.8-3.7 16.5-2.2 9.2-3.5 21.9-1.9 18.5.8-1.8.9-1.9 1.6-.3.4 1 1.3 1.8 2.1 1.8 1.7 0 1.9 2 .2 2.1-2.3.2 4.6 1.7 8.5 1.8 3.6.1 3.7 0 3.7-3.3 0-2.1-.6-3.6-1.5-4-2.1-.8-.5-4.8 2.6-6.3 3-1.5 4.9-.1 4.9 3.8 0 2.1-.5 2.8-2.2 3.1-1.6.2-2.4 1.1-2.6 2.8-.5 4.1 3.9 5 23.6 5 9.5 0 17.2-.3 17.1-.8-.1-2.8-46.9-57.8-50-58.7-1-.3-2.7-.1-3.8.4-3.3 1.8-3.8 1.2-.6-.9 3.8-2.5 7.4-2.1 15.7 1.8M479.1 90.9c7.5 4.4 14.6 8.1 15.7 8.1 1.2 0 2.5.6 2.9 1.2.4.7 2.8 2.4 5.3 3.7 7.1 3.8 7.1 4.5 0 1.2-3.6-1.7-7.2-3.1-8.1-3.1s-6.5 5.3-12.5 11.7c-6 6.5-11.8 12.7-13 13.9l-2.1 2.1 15.1 1.2c8.3.6 24.3 1.3 35.6 1.7 11.3.3 23.4 1 27 1.4 3.8.5-4.9.6-21.1.3-19.6-.3-27.9-.2-28.3.6-1 1.6-5.3 1.4-5.9-.3-.7-1.7-5.6-.9-6.4 1-.3.8-1.1 1.4-1.9 1.4s-1.4.4-1.4 1c0 .5.4 1 .9 1 1.2 0 2.1 3.4 2.7 10 .3 3 .9 5.9 1.5 6.6.5.6.7 1.8.3 2.7-.6 1.6 1 5.2 3.3 7.5.8.8 2.9 3.9 4.8 6.8 1.9 3 4.2 5.4 5 5.4s1.5.8 1.5 1.7c0 1.6-.2 1.6-1.1.3s-1-1.3-.6 0c.2.8 1 1.4 1.7 1.2.7-.1 1.7.1 2.4.6 1.6 1.3 5.5 2.1 6 1.3.3-.4 2.1-.8 4.2-.9 3.4-.3 3.6-.1 2.3 1.5-2 2.7-1.1 1.9 12.3-11.2 18-17.5 21.8-21 21.8-20.1 0 .5-9 10-20.1 21.2l-20.1 20.2 8.3 2.6c7.8 2.4 12.7 4.6 10.4 4.6-.5 0-5-1.1-10-2.5-4.9-1.4-9.1-2.5-9.2-2.5-.2 0-.4 2.6-.4 5.7-.1 3.2-.3 4.7-.6 3.3-1.3-8.7-1.4-9-3.3-9-2 0-40.9 6.6-59 10-5.8 1-16.2 2.7-23.2 3.6-7.1.9-12.8 2-12.8 2.5 0 1.4 11.6 10.9 28.8 23.6 5.5 4.2 20.3 15.3 32.7 24.7 3.3 2.5 12.7 9.7 20.9 16.1 8.2 6.3 15.4 11.5 15.8 11.5.5 0 1.7.7 2.5 1.6 1.4 1.3 1.4 1.7.2 2.5-.8.5-1.9.9-2.5.9-.7 0-1.4.6-1.7 1.4-.3.7-9 8.9-19.4 18.2-10.3 9.3-20.3 18.2-22 19.8-3.8 3.4-4.2 5.1-1 4.2 1.2-.4 12.1-2.9 24.3-5.6 25-5.6 25.6-5.8 24.7-7.4-.4-.7-.1-.6.9.2.9.7 1.3 2.2 1 3.7-.4 2.2-.6 2.3-1.6 1s-4-.9-26.1 4c-13.7 3-25.9 5.9-27 6.4-1.1.6-2.7 1.1-3.5 1.3s-12.1 6.3-24.9 13.7c-18.4 10.5-23 13.6-21.5 14.2 1 .4 6.8 1.8 12.9 3.1 6 1.2 10.2 2.4 9.3 2.6s-5.4-.6-10.1-1.8c-4.7-1.1-10.6-2.3-13-2.6l-4.6-.7-1.1 4.4c-.6 2.4-2.6 9.1-4.4 14.9-4.6 14.4-4.8 15.7-3.2 16.3.7.3 8.6.9 17.5 1.3 8.8.4 16.1 1.1 16.1 1.6s-.3.7-.7.5c-.5-.3-8.6-.8-18-1.2-16.3-.6-17.3-.6-17.4 1.2-.1 1.2-.3 1-.8-.7-.4-1.5-.2-3.5.6-5 1.7-3.3 9.6-31 9.1-31.6-.3-.2-2.2.7-4.2 2.1s-3.9 2.5-4.3 2.5c-.3 0-3.9 2-8 4.5-4 2.5-7.6 4.5-7.8 4.5s-3.7 1.9-7.7 4.3-8.1 4.6-9.1 5c-3.2 1.2-1.3 3.1 4.7 4.5 3.1.8 5.5 1.6 5.3 1.9-.3.2-3.4-.4-7.1-1.3-5.1-1.3-6.9-1.4-8-.5s-1.5.9-1.8 0-4.1-.3-13.9 2c-7.3 1.8-14.1 3.5-14.9 3.9-.8.3-2.2.7-3 .8-10.6 1.8-20.5 4.3-20.8 5.2-.2.7.1 1.2.8 1.2.6 0 .9.4.5 1-.8 1.3-3.5.1-3.5-1.5 0-2.3-17.2-5.4-19.4-3.6-1.1 1-1.6.9-2.4-.4-.8-1.6-1.6-1.6-11.5 0-8 1.4-10.7 2.2-10.7 3.3 0 .8 2 4.5 4.5 8.3s4.5 7 4.5 7.3c0 .8 14.2 24 15.8 25.9.9 1 2.1 1.6 2.8 1.3.8-.3 1.1.1.7 1-.3.9.1 1.4 1.2 1.4 1.4 0 1.5.3.5 1.5s0 2.8 5.4 9.2c3.7 4.3 8.2 9.5 10.1 11.6 1.9 2 3.5 4.1 3.5 4.5.1.4 2.7 3.8 6 7.6s5.7 7.2 5.4 7.5-1-.1-1.5-1c-2.3-4.3-11.3-13.9-11.9-12.8-.5.6-1.2-.2-1.8-2-1.6-4.6-17.4-23.4-18.4-21.8-.5.7-.8.1-.8-1.7 0-1.6-1.3-4.4-3.1-6.7-1.7-2.1-4-5.7-5.2-7.8-3.1-5.6-13.3-22.1-15.8-25.6-2-2.9-2.1-2.9-1.5-.5.3 1.4 1.7 7.7 3.2 14 3.4 15.3 9.4 40.1 10 41.9.3 1 1.3.3 3-2.2 3.4-5.1 4.1-4.6 1 .7-1.4 2.5-2.6 5.3-2.6 6.2 0 3.1 2.4 12.4 3.2 12.4.4 0 1.2-1.9 1.8-4.3 1.5-5.6 1.8-6.5 1.9-4.7 0 .8-.6 3.9-1.3 6.9-.9 3.2-1.2 6.2-.7 7.5.9 2.3 13.7 19.7 15.2 20.7.5.3 1.1 1.5 1.4 2.8.3 1.8.1 2.1-1.5 1.6-1.2-.4-3.1.2-4.9 1.4-1.6 1.2-3.2 2.1-3.5 2.1s-3.2 1.6-6.3 3.6c-3.2 2-6.9 4.3-8.2 5.1l-2.4 1.6 2.4 1.9c1.3 1 5.7 4.4 9.7 7.4 7.2 5.6 9.6 8.1 4.5 4.9-1.6-1-3.9-2.7-5.3-4-6.1-5.3-11.5-8.5-14.5-8.5-1.8 0-5.8.9-8.9 2-3.2 1.1-6.1 1.9-6.4 1.8-.4-.1-4 .6-8 1.6-7.3 1.8-7.4 1.8-10-.1-1.5-1.1-2.8-2.9-2.9-3.9-.3-1.6-.1-1.6.6.2 1.5 3.4 5.7 4.3 12.1 2.7 3-.8 5.7-1.7 6.1-2.1.9-1.2 6.1-13.3 5.7-13.6-.1-.1-3.1 0-6.6.2-5.2.3-6.2.7-5.7 1.9.4 1.3.3 1.4-.9.4s-1.8 0-3.6 5.9c-1.2 3.9-2.4 6.9-2.7 6.6-.3-.2 0-2 .6-3.9.7-1.9 1.4-5.5 1.7-7.8.4-3.9.3-4.2-1-2.7-1.9 2.6-2.6 2.2-1.7-1 .5-1.5.4-3.8-.1-5.1-1.3-3.6-.4-3.6 2.7.1 2.4 2.8 3.2 3.2 7.2 2.9 3.5-.2 4.3 0 3.7 1.1s-.5 1.1.9 0c.9-.8 2.6-1.2 3.9-1.1 1.3.2 2.8 0 3.5-.4 1.2-.7 3.8 1.2 4.6 3.5.3 1 .9 1.1 2.6.1 2.9-1.8 5.1-1.6 5.2.4.1 1.7.2 1.7.6.1.3-1.2 1.4-1.8 3.1-1.8 1.5 0 3.4-.4 4.2-.9 2.8-1.9 3.2.2.4 2.6l-2.9 2.4 3.6-1.4c5.2-2.1 12.6-7 11.2-7.4-.7-.3-2.1 0-3.2.6s-3.7 1.1-5.8 1l-3.8-.1 4-1.2c3.9-1.1 3.6-1.2-8.5-2.4-12.4-1.3-12.6-1.3-19.5-6-3.8-2.5-9-6.1-11.4-7.9-4.2-3.2-4.4-3.2-7.5-1.6-5.2 2.6-5.6 3.2-4.5 6.1.6 1.5 2 3.7 3.1 4.9 1.2 1.3 1.8 2.3 1.4 2.3-1.4 0-3.7-2.9-5.2-6.5-1.3-3.3-1.3-4.1 1-11.8 1.4-4.5 2.8-9.9 3.2-12 .3-2 1-4 1.5-4.3s.9-1.8.9-3.5c0-1.6.5-2.9 1-2.9 1.6 0 1.2 5.7-.5 6.4-.8.3-1.5 1.6-1.5 2.8 0 1.3-.7 4.8-1.6 7.8s-1.8 6.8-2.1 8.4l-.6 2.9 3.1-1.8c3.3-2 4.2-4 4.2-9.7 0-2 .4-3.9.9-4.2 1.4-.9 2.5-16.6 1.2-17.9-1.6-1.6-1.4-2.7.4-2.1 2 .8 2.1 15.2.1 21.7-.8 2.6-1.2 4.7-1 4.7.5 0 13.1-25.4 14-28.3.4-1.3.2-1.7-.5-1.3-.6.4-1.1.2-1.1-.3 0-.6.7-1.1 1.5-1.1 1.8 0 2-1.7.3-2.3-.7-.2-.1-.6 1.3-.9l2.6-.5.2 7.6c0 4.2.5 14.3 1.1 22.6.5 8.2 1 16.3 1.1 18l.1 3 1-3c.6-1.7 1.4-3.5 1.9-4.1s2.5-5.7 4.5-11.5c2-5.7 4-11.1 4.5-12 1-2-.9-13.8-4.6-28.9-1.5-5.8-3.1-12.4-3.7-14.8-1.4-5.7-2.8-5.3-2.8.7 0 3.9.4 5 1.8 5.4 1 .2.2.7-2 1.1-2.6.6-3.6 1.3-3.5 2.5.1 1.7-3 9.1-3.8 9.1-.2 0 .2-1.9 1-4.1 1.9-5.3 1.9-5.2-.7-4.4-3.2 1-16.8 7.8-17.4 8.7-.3.4 1.2 1.1 3.3 1.7 7.5 1.9 7.7 2 2.8 1.4-2.7-.3-6.5-.7-8.3-.8-1.9-.1-3.7-.7-4.1-1.4-1.5-2.4-20.4-13.1-23.2-13.1-1.7 0-2.8-.5-2.6-1.2.3-1.6-6.9-2.8-8.4-1.4-.8.8-.9.5-.4-1.4.9-3.3 13.9-26.2 14.3-25.2.2.8-9.9 19.4-12 22-1.6 1.9.4 3.4 3.8 3 2.5-.3 3.4-1.4 6.9-8.3 4.1-8.3 6.3-13.1 9-20l1.5-4-4 4.5c-5.1 5.7-5.2 4.3-.2-2.4 5.6-7.4 8-11.8 9.7-17.2l1.4-4.9-2.5 3c-1.3 1.6-4.7 7.2-7.5 12.2-2.7 5.1-5.2 9.3-5.4 9.3-.3 0 2.3-5.3 5.7-11.8 3.4-6.4 7.3-14 8.7-16.7 3.1-6 3.6-16.5 1-20.5-2.8-4.5-4.4-11-3.2-12.9 1.3-2.1.3-8-2.2-12.7-1.9-3.6-2-7.9-.2-6.7 4.1 2.5 4.7.3 1.6-5.8-1.1-2.2-1.8-4.6-1.6-5.2.2-.7 1.5 1.1 3 3.9 2.9 5.8 5.2 8.1 6.2 6.4.8-1.3-2.7-6.9-7.4-11.9-5.1-5.4-7.1-8.3-6.6-9.2.3-.4 1-7.9 1.4-16.6.7-12.1 1.7-18.9 4.1-28.8 4.1-16.8 4-16.5 5.2-16.5q1.05 0 0 1.2c-.5.7-1.3 5.6-1.7 10.9s-1.1 10.3-1.6 11c-.7 1.1-.9.9-.9-.6-.1-1.9-.1-1.9-1.1-.2-.6 1-1.2 5.5-1.5 10-.2 4.5-.8 12.3-1.4 17.3-.8 7.1-.7 10 .2 12.8 1.3 3.6 9.6 14.5 11.1 14.6.5 0 .6-1.5.2-3.3l-.6-3.2 1.4 3c.8 1.6 1.8 3.8 2.1 4.9.5 1.4.9 1.6 1.9.7 1.1-.8 1.3-.4.9 1.9-.3 2.2 0 3 1.1 3 .8 0 1.7.4 1.9 1 .2.5.3-1.8.2-5.3-.1-8.4-.6-9.6-12.1-24.6-.2-.2-.6-.2-.9.2-.3.3.4 3.6 1.6 7.2s2 6.8 1.7 7.1c-.5.5-4.7-12-4.7-14.3 0-.9-.6-2.4-1.4-3.2-2-2.2-3.1-7.1-1.7-7.1.6 0 1.1-1.5 1.2-3.3 0-1.7.7-4.8 1.5-6.7 1-2.4 1.3-2.7 1-1-.3 1.4-.6 5.5-.7 9.3l-.2 6.8 5.9 7.9c7.3 9.7 8.7 10.1 10.5 2.6.7-3.1.7-3.1.8-.4.1 3.3.7 3.5 2.9 1 1-1 1.3-1.1.7-.2-.5.8-1.7 2.3-2.7 3.3-3.5 3.5-2.4 5.2 7.2 10.7 1.4.9 3.7 2.6 5.1 3.9l2.4 2.3-3-1.3c-1.6-.8-5-2.8-7.4-4.6s-4.6-3.1-4.9-2.9c-.8.9 7.1 18.8 8.6 19.3.7.3 1.7 1.5 2.2 2.7.7 1.9.9 1.8 2.3-1.4.8-1.9 1.7-4.4 2.1-5.4 1.5-4.2 1.6-.4.2 5.2-2.4 9-2.3 9.2 2.9 9.2 2.5 0 4.5-.2 4.5-.5 0-1.9-3.4-12.6-5-15.6-1.1-2.3-1.5-4.1-.9-4.4.5-.4.7-1 .5-1.4-.3-.4-.7-2.1-1-3.7s-.8-4.3-1.1-5.9l-.6-3 1.5 3.1c1.9 4.3 3.4 5 4.5 2.2.9-2.1 1-1.9 1 1.4.1 2-.6 4.3-1.4 5.2-1.4 1.4-1.4 1.6.8 2.1 1.2.4 4.5.2 7.2-.2 4.7-.8 5-1 4.9-3.8 0-1.7-1-5.4-2.2-8.3-3-7.3-1.8-6.5 1.9 1.3 1.8 3.6 3.5 6.5 3.8 6.5 1.4 0 5.2-4.2 6.3-6.8s1.2-2.6 1.5-.5c.4 2.1 2.9 3 6.5 2.4.5 0 3-.2 5.8-.3 2.7-.1 5-.6 5-1.1 0-1.8-8.4-16.7-10.4-18.6-2.1-2-2.2-1.9-8.5 1-3.5 1.6-6.6 2.8-6.8 2.5-.3-.3 2.5-1.9 6.3-3.6l6.7-3-2.4-2.6c-1.3-1.4-4.5-4.3-7-6.5l-4.6-3.9-2.4 7.5c-1.3 4.1-2.7 7.5-3 7.5-.4 0 .2-2.8 1.2-6.2 1.1-3.4 1.8-6.8 1.7-7.5-.3-1.4-13.4 6.9-17.1 10.8-2.5 2.6-3 2.4-2.4-1 1.1-5.4.9-45.6-.2-45.4-.6.2-.9-1.5-.6-4.4.4-3.9-.1-6-3.7-13.5l-4.2-9-3.8 4.4-3.8 4.3 3.5-5.4c1.9-2.9 3.5-6.3 3.5-7.5 0-1.1.7-3.9 1.5-6.1l1.6-4-.4 3.8c-.4 5 .9 3.5 6.3-7.1 2.3-4.5 4.6-8.2 5.1-8.2 1.7 0 .9 2.7-1.6 5.6-2.8 3.2-10.5 17.5-10.5 19.5 0 1.5 7.3 16.9 8.1 16.9.3 0 4-10.5 8.3-23.3 10.1-30 14.7-42.9 15.3-42.3.3.3-2.3 8.5-5.7 18.3-8 22.6-14.9 44.3-14.2 44.3.2 0 1.3-1 2.4-2.3 1.1-1.2 4.8-5.4 8.3-9.2 5.6-6.3 21.3-24 31.9-36.2 2.9-3.4 4-5.4 3.9-7.7-.1-3.3-13.3-37.6-14.4-37.6-.4 0-1.5 2.4-2.5 5.2-.9 2.9-2.5 7.1-3.5 9.3-.9 2.2-2.5 6.4-3.4 9.3s-1.9 5.1-2.2 4.9c-.2-.3.9-4.5 2.6-9.3 3.5-10 3.4-9.7 2.1-8.9-.5.3-2.7 4-4.8 8.3-2.2 4.2-6 11.4-8.6 16-2.5 4.5-4.6 9.3-4.6 10.7 0 1.6-.6 2.5-1.5 2.5-.8 0-1.5.4-1.5.8 0 .5-.6 1.7-1.4 2.8-1.1 1.4-1 .6.3-3.2.9-2.8 2.4-5.9 3.3-6.8s2-2.6 2.4-3.9c.4-1.2 1.7-3.8 3-5.8 1.2-2 4.1-7 6.4-11.3 2.3-4.2 5.9-10.7 8.1-14.4 2.1-3.7 3.9-7.4 3.9-8.2s2.7-4.4 6-7.9 6-5.9 6-5.4-1.6 2.4-3.5 4.3-3.5 3.7-3.5 4.1c0 1.2 7.8-2.2 19.2-8.4 5.9-3.1 11.3-5.7 12-5.7 2.4 0 45.7-21.5 45.8-22.7 0-.7.6-1 1.4-.7s6.7-1.3 13.1-3.6 11.9-4 12.1-3.8c.2.3-3.9 2-9.2 3.8-5.3 1.9-9.8 3.8-10 4.2-.5.7 12.8 5.1 29 9.3l9.8 2.7 2.4-2.3c1.3-1.2 2.4-2.7 2.4-3.3.1-.6 2.4-3.4 5.2-6.1 4.6-4.5 4.4-3.5-.5 2-2.8 3.1-6 8.5-5.4 9.1.3.3 11-.6 23.9-2 12.8-1.4 28.9-3 35.8-3.7s13.3-1.5 14.4-1.9c1.4-.5-1.2-2.4-11.3-8.4-7.2-4.3-13.4-8.3-13.8-8.9-.3-.5-.2-.8.3-.5zm78.5 302.2c-.3 2.1-.3 3.9.2 3.9.4 0 2.2-1.4 4-3 3.2-2.9 5.2-3.8 5.2-2.3s-7 6.4-11.2 7.9c-9.8 3.4-12.7 5.6-17.5 12.8-5.2 8-5.2 8-11.3 10.2-9.9 3.5-12.1 4.7-11.5 6.2.4 1.2.3 1.3-.9.2-1.9-1.5-9.3 1.1-13.2 4.7-2.5 2.3-2.8 2.3-4.3.8-1.1-1.1-1.3-1.8-.5-2.3.7-.4 1.4-1.6 1.7-2.7.3-1.5.5-1.3.6.8 0 1.6.4 2.7.9 2.5 12.5-5.9 14.1-7.8 10.7-12.4-1.6-2.1-2-5.4-.7-5.4.9 0 4.2 7 4.2 8.8 0 .7.7 1.2 1.5 1.2 1.7 0 12.7-3.9 13.8-5 1.5-1.4-5.2-5.1-12.3-6.8-3.8-.9-7-2.1-7-2.5 0-.5.5-.5 1-.2.6.4 2.2-.1 3.5-.9 2.2-1.5 2.5-1.5 2.5-.1 0 .8.9 1.5 2 1.5s2-.5 2-1c0-.6.6-1 1.3-1 1.8 0 7.5-2.8 8.2-4.1.4-.5 1.1-.9 1.7-.9.7 0 .6.5-.2 1.5-1 1.1-.9 1.8.4 3 1.4 1.4 1.3 1.9-.4 4.8-2.2 3.6-2.5 4.7-1 4.7.5 0 2.8-2.5 5.1-5.6 3.1-4.2 4-6.3 3.7-8.4s0-3 1.4-3.3c1-.3 2.1-.1 2.4.4.6 1.1 3 .6 8.5-1.8 3.3-1.3 3.6-1.8 3-4.2-.8-3.1-.7-5 .4-7.5.7-1.7.9-1.7 1.8-.1.5.9.6 3.5.3 5.6m321.7 63.8c5.5 7.1 7.4 8.9 9.3 8.7 1.3 0 2.4-.4 2.4-.7s.7-1.4 1.6-2.5c1.5-1.8 1.5-1.8.5.3-1.5 2.9-1.4 3.3.7 3.4 1.1 0 .8.4-.9 1-3.1 1.2-4.3 3.4-5.9 11.4-.7 3.3-1.9 8.5-2.6 11.6-.8 3.1-1.4 6.6-1.4 7.8s-.4 2.1-.9 2.1c-.9 0 1.2-13 3-18.8 1.4-4.2 1.8-8.2 1-8.2-.4 0-1.8 1.5-3.1 3.2-1.3 1.8-2.9 3.7-3.7 4.1-2.2 1.3-7.3 9.5-7.3 11.6 0 1.2-.4 2.1-.8 2.1-.5 0-1.7 5.5-2.6 12.2-1 6.8-2.1 13.5-2.6 15-.5 1.6-.7 2.8-.4 2.8.6 0 10.3-10.3 12.1-12.9.8-1.2 1.1-3 .8-4.1-.8-2.4.3-2.6 2-.3 1.1 1.5 1.9 1.2 8-3.3 3.7-2.7 8.7-6.3 11.1-7.9 2.4-1.7 4.6-3.8 5-4.8.3-1 1.2-1.6 1.9-1.3.8.3 2.2-1.7 4-5.5 2.7-6.1 4.2-8 2.4-3.2-3.1 8.6-5.1 10.8-17.5 19.3-6.8 4.7-12.7 9.3-13 10.3-.3.9-.9 1.5-1.3 1.3-.9-.6-15.3 14.8-16.3 17.5-.8 2.1-3.8 2.6-3.9.6-.2-3.4-1-7.9-2.8-15.2-4.9-19.4-7.2-29.8-6.8-30.8.1-.5 1.8 5.2 3.6 12.9 1.8 7.6 4.1 16.9 5.2 20.6 1 3.6 1.9 7.4 2 8.5.1 3.1 1.8-3.5 4-15.7 2.7-14.8 2.7-22.9 0-30.4-1.2-3.3-2.1-6.9-2.1-8 0-1.2 1.3 1.6 2.9 6.2s3.1 8.6 3.4 8.8c.5.5 8.5-8 13.6-14.5l3.2-4.1-2.3-2.3c-1.3-1.3-4.3-5-6.8-8.3-2.4-3.2-5.1-6.7-5.9-7.7-.8-.9-1-1.7-.5-1.7s4 4 7.7 8.9M284 570.8c-3 1.5-7.4 3.5-9.7 4.4-4 1.5-4.3 1.9-4.4 5.5-.1 2.1-.3 2.9-.6 1.8-1-4.7-1.2-4.7-6.5-.3-9.3 7.6-16.1 14.5-15.4 15.6.3.6 6.7 5.6 14 11.1 13.2 9.9 13.5 10.1 18.1 9.7 2.5-.3 6.5-1.6 8.8-2.9 4.7-2.7 7.7-3.9 7.7-3.1 0 .3-3.9 2.4-8.7 4.7-6.1 2.8-8.2 4.2-6.8 4.5 1.1.2 2.4.8 2.9 1.2.5.5-.8.5-2.8 0-2-.4-3.9-.4-4.2.1s-1 .9-1.6.9c-.7 0-.7-.5.1-1.4.9-1.1-1.8-3.6-14.1-12.7-8.4-6.2-15.4-11.3-15.5-11.4-.1 0-.4-1.9-.6-4-.2-2.2-.2-3 0-1.8.2 1.3.8 2.3 1.3 2.3s5.3-3.9 10.5-8.8c8.7-7.9 9.4-8.8 7.3-9.4-2-.5-1.8-.6 1-.7 3.6-.1 3.7-.3 2.1-3.3l-1.2-2.1 2.7 2c3 2.4 4.4 2.2 13.6-2 7.3-3.4 9-3.3 2 .1M751 582c12.3 6.5 27.3 13.8 29.8 14.5 1.7.5 2.2.2 2.3-1.2 0-1.5.2-1.5.9.4 1.1 2.6 5 2.9 36.8 2.7 24.7-.2 33.2-1.5 32.5-4.8-.4-1.5-.2-1.7.5-.8 1.1 1.7 1.4 1.6 5.2-.3 4.4-2.3 3.7-1-1.5 2.5-4.2 2.9-4.5 3.4-4.6 7.8-.1 2.6-.3 3.8-.6 2.7-.2-1.1-.6-3.1-.9-4.3l-.5-2.4-1.8 2.4c-1 1.2-7.3 7-14 12.8-6.6 5.8-12.1 11.1-12.1 11.8 0 .8-.6 1.2-1.2.9-.7-.3-4.1 1.1-7.5 3-7.8 4.2-8.3 3.6-.8-.9 5-3 6.8-4.8 4.7-4.8-.5 0-7.8-4.9-16.3-10.9-12.5-8.9-15.7-10.7-16.8-9.8-.8.7-1.2.7-.9.2 1.3-2.1-2.1-4.4-17.7-12.2-15.1-7.6-23.5-12-24.4-12.9-1.5-1.4 2.5.2 8.9 3.6m123.2 23.6c-14.4 24-19.7 34.8-13.4 27.2 1.5-1.8 3-3.4 3.4-3.6s5.8-6 12-13c6.2-6.9 13-14.4 15.2-16.6 3.6-3.9 3.7-3.9 1-.4-4 5-14.5 17.1-21.8 24.9-3.3 3.6-9.1 9.8-12.8 13.8-6.8 7.2-11.8 10.3-18.8 11.5-2.6.4-2.1.1 2-1.4 3-1.1 6.6-3.2 8.1-4.6 2.4-2.3 2.6-3 1.7-5-.9-1.8-.8-2.8 0-3.6.9-.9 1.2-.4 1.3 2.2 0 3.1.2 3.3 1.2 1.7.7-1 2-2.8 3-3.9.9-1.2 1.7-2.5 1.7-3.1 0-1.1 8.3-16 14.3-25.7 2.2-3.6 4.7-7.6 5.4-8.8.8-1.3 1.7-2.2 1.9-1.9.3.3-2.2 4.9-5.4 10.3m330 69.9c1.1 1.4 2.3 2.3 2.8 2 .8-.5 2.4 3 3.4 7.5.4 1.5-.2.8-1.3-1.5-2.3-4.6-2.6-4-.9 1.9 1.1 3.9 3.3 7.8 2.6 4.6-.2-.9.4-1.4 1.4-1.4 1 .1 1.5-.2 1.2-.7s.5-4 1.7-7.9c1.7-5.2 2.8-7 4.1-7 1.5 0 1.4 1-1.6 9.2-1.8 5.1-3.6 10.9-4 12.9-.6 3.1-.9 3.6-3 3.2s-3-2.2-6.5-12c-2.3-6.3-4.1-11.9-4.1-12.4 0-1.7 2.2-.9 4.2 1.6m20.5 6-.4 2.6 1.9-2.1c2.2-2.4 4.4-2.5 7.8-.5 1.4.8 3.2 1.7 4 2.1s2.3 1.3 3.2 2.1c1.4 1.3 1.8 1.2 2.8-.6 1.5-2.9 6.7-5.4 9.6-4.7 1.3.4 4.4 1.9 6.9 3.4 5.9 3.5 7.6 8.1 5 13.5-.9 1.9-2.4 3.8-3.3 4.2-1.1.4-.8-.3.8-2 3.1-3.3 3.3-9.4.6-12.4-1.1-1.2-2.1-1.9-2.4-1.6s.2 1.3 1 2.2c.9 1 1.8 2.9 2.1 4.3.6 2.3.5 2.3-.5-.2-1.5-3.4-3.6-4.5-3.1-1.4.5 2.6-3.4 7.9-5.3 7.2-.8-.3-1.1 0-.7 1 .9 2.3 5 1.6 7.2-1.2 1.2-1.5 2.1-2.3 2.1-1.8 0 1.6-4.4 5.4-6.2 5.4-1.1 0-2.9-.5-4.1-1.2-2.1-1.1-2.1-1-.7.7 1.3 1.7 1.3 1.8 0 1-.8-.4-3.4-2.3-5.7-4.2-5.1-4.1-9-4.3-11.6-.7-2.5 3.4-1.4 4.2 2.8 1.9 2-1 3.8-1.5 4.2-1.2.8.8-2.6 4.7-4.1 4.7-.6 0-.3-.5.7-1.1.9-.5 1.7-1.4 1.7-2 0-.5-1.1-.2-2.5.7-1.6 1-3.4 1.4-5.1 1-1.8-.5-2.4-.3-1.8.5.9 1.5-.7.6-5.4-2.9-2.2-1.7-3.1-3-2.7-4.1.3-.8.3-1.2-.1-.9-.3.4-1.2.2-1.8-.5-1.3-1.3-2.8-6-1.7-5.3.3.2 1.5-1.6 2.6-4 2.2-5 3-5.6 2.2-1.9"/><path d="M735.8 89.2c.5.7 1.2 4.6 1.6 8.6.6 7.8.8 8.6 2.7 17.6l1.3 5.8 15-.6c8.3-.3 19.4-.9 24.6-1.3l9.4-.6-2.9-2.3c-1.7-1.4-5-3.4-7.5-4.6-2.4-1.2-7.3-3.9-10.7-6s-6.6-3.8-7-3.8c-.5 0-2.5-1.1-4.5-2.5s-4.4-2.5-5.2-2.5c-.9 0-1.6-.4-1.6-.8 0-.8-14.1-8.2-15.6-8.2-.3 0-.2.6.4 1.2M725.5 129.1c-6.6 2.7-12.9 5.3-14 5.9-1.1.5-6 2.5-10.9 4.3-5 1.9-9.2 3.9-9.4 4.6-.4 1.1 4 3.3 24.8 12.6 5.8 2.6 12.2 5.5 14.3 6.6 2.1 1 4.6 1.9 5.7 1.9 1 0 2.2.4 2.5 1 .3.5 1.3 1 2.2 1 1.3 0 1.4-1.5.9-10.8-1.1-17.8-2.8-29.4-4.3-28.8-.7.3-1.3.1-1.3-.4 0-.6.7-1 1.5-1s1.5-.5 1.5-1c0-1.4-.2-1.4-13.5 4.1M865.1 174.7c.1 57.7-.6 54.9 10.2 40.5 2.6-3.4 4.7-6.6 4.7-7.1 0-.4 2.6-3.3 5.8-6.3 7.2-7 12.1-12.3 15.2-16.8 1.4-1.9 2.7-3.7 3-4 4.3-4.3 4.3-4.7 1.4-8.7-3.4-4.5-15.2-17.9-27.8-31.6-5-5.4-9.8-11-10.8-12.5-1.7-2.6-1.8-.8-1.7 46.5M904.5 131.7c.4 1 1.1 4.9 1.6 8.8.5 3.8 1.3 9.2 1.8 12 .6 2.7 1.3 8.1 1.7 11.8.8 8.1 2.2 9.2 6.4 5.2 1.6-1.5 3.8-3.3 4.8-3.9 4.5-2.5 15.1-12.2 15.1-13.8.1-1-1.1-2.5-2.6-3.5-1.6-.9-8.5-5.4-15.5-10s-13-8.3-13.4-8.3c-.3 0-.3.8.1 1.7M691.3 149.8c.9 1 3 4.7 4.7 8.2 1.6 3.6 4 8.3 5.3 10.5 9.1 16 12.1 20.6 13.1 20.3 1.7-.5 26.6-17.1 26.6-17.8 0-.4-8.4-4.6-18.7-9.4-27.4-12.8-29.2-13.6-31-13.6-1.5 0-1.5.1 0 1.8M688 150.8c0 2.4-3.1 58.8-3.3 60.1-.2 1.8 3.8 4 7.3 4.1 1.4.1 9 1.4 17 3 8 1.5 14.7 2.7 14.9 2.5s0-1.2-.4-2.2c-.5-1-.9-2.3-1.1-2.8-.2-1-2.3-5.8-7-16.3-1.3-2.8-3-5.2-3.7-5.2s-3.1 1.5-5.3 3.3c-2.1 1.8-4.9 3.9-6 4.7-1.2.8-4.7 3.5-7.9 5.8-5.2 4.1-7.4 5-5.7 2.7.4-.6 4.3-3.7 8.7-7s9.9-7.5 12.3-9.4l4.2-3.4-3.1-5.6c-1.7-3.1-4.1-7-5.3-8.6-1.3-1.7-4.9-8-8.1-14-5.9-11.3-7.5-13.8-7.5-11.7M732.1 181c-4.1 2.8-7.8 5-8.2 5-.5 0-2.8 1.4-5.3 3.1-3.7 2.4-4.4 3.3-3.6 4.7.5.9 2.5 5.5 4.5 10.1 1.9 4.7 4.2 9.6 5.1 10.9l1.7 2.5 2.4-5.9c5.6-13.6 12.7-35.4 11.5-35.4-.4.1-4.1 2.3-8.1 5M718.4 229.8c-15.2 10-22.4 15.3-22.4 16.5 0 .7 2.1 2 4.8 2.9 2.6.9 9.3 3.2 15 5.2 5.6 2 10.7 3.4 11.3 3 1.1-.6.4-20.6-1-28.6l-.6-3.7zM753.7 232.6c-1.5 1.5 1 7.5 6.2 14.4 5.9 8 30.9 38 32.6 39.2.5.4 1.3.4 1.6 0 .6-.7 2.1-10.5 4-26.7.6-5.5 1.7-13.7 2.4-18.2s1-8.5.7-8.8c-.8-.7-46.7-.6-47.5.1M805.4 233.6c.5 1 1.6 5 2.6 8.9 1 3.8 3 10.8 4.5 15.5s3.1 10.1 3.6 12c.6 1.9 2.8 9 5 15.6 3.9 11.9 4.1 12.2 7.2 12.7 4.7.7 5.9-.4 8.7-7.5 1.3-3.4 4.6-11.3 7.3-17.3 2.7-6.1 7.1-16.6 9.8-23.5s5.4-13.3 5.9-14.2c1.5-2.6-.1-3-10.8-2.8-5.3.2-17.5-.1-27.1-.5-16.9-.8-17.4-.8-16.7 1.1M864.4 234.2c-.7 1.1 3 30 6.2 49.1l.7 3.9 2.9-3.4c1.6-1.8 4.1-4.9 5.6-6.8s3.9-4.7 5.4-6.3c1.5-1.5 5.3-6.5 8.4-11 3.2-4.5 8.4-11.4 11.6-15.4 3.2-3.9 5.8-7.6 5.8-8.1 0-.9-11.3-1.6-38.3-2.5-4.3-.1-8.1.1-8.3.5M802.4 238.4c.3 1.3-.1 7.3-1 13.2-1.9 13.6-4.3 34-4.4 37.5 0 2.6 4.2 5.7 20.3 15.3 7.4 4.4 8.2 4.7 8.5 3.1.2-.8-.4-2.5-1.2-3.7-.9-1.2-1.6-3.3-1.6-4.6 0-2.1-6.9-24.9-13.4-44.7-1.3-3.9-3.2-9.6-4.1-12.8-1-3.1-2.2-5.7-2.7-5.7-.6 0-.7 1.1-.4 2.4M861 238.8c0 1-1.7 5.4-3.9 9.8-2.1 4.3-5.9 12.8-8.5 18.9-2.6 6-5.1 11.9-5.6 13-4.1 8.8-11.2 27.6-10.6 28.2.8.8 33.8-16 35.5-18.1 1.1-1.3.9-4.4-.8-17.3-1.1-8.7-2.5-18.1-3-20.8-.6-2.8-1-7.1-1-9.7-.1-2.6-.5-5-1.1-5.3-.5-.3-1 .2-1 1.3M913 242.5c0 .8-.4 2.3-.9 3.3-2.6 5.1-7.6 24.6-6.7 26.1.7 1 4.3-.3 13.6-4.8 2.4-1.1 4.8-2.1 5.4-2.1 2.1 0-2.2 2.9-11.2 7.6-5.1 2.6-9.1 5.2-8.9 5.8.2.5 4.2 3 8.9 5.5 4.8 2.5 9.9 5.3 11.5 6.2l2.8 1.7-.6-12.7c-.9-16.2-.5-14.8-6.7-27.4-5-10-7.2-12.8-7.2-9.2M902.3 251.5c-3.5 3.7-6.3 7.2-6.3 7.7 0 1.1-7.1 11.2-8.2 11.6-.4.2-.8 1-.8 1.8s-.4 1.4-.9 1.4-2.4 2.2-4.2 5c-1.8 2.7-3.6 5-4.1 5-.4 0-.8.5-.8 1 0 .7.6.7 1.8.1.9-.5 2.2-1 2.7-1.1 2-.5 5.5-2.3 5.5-2.9 0-.4 1.1-.8 2.4-.9 2.7-.2 11.1-3.7 11.9-4.9.3-.5.8-2.9 1.2-5.3.3-2.5 2-8.5 3.6-13.4s2.8-9.6 2.7-10.5c-.2-.9-2.6 1-6.5 5.4M891 283.5c-4.7 2.4-10.6 5.1-13.2 6-6.1 2.1-5.5 2.7 8 8.8 11.9 5.3 11 5.8 13.1-6.8 2-11.8 2.1-12.5 1.3-12.4-.4 0-4.5 2-9.2 4.4M902.1 287.3c-1.7 9-2.3 15.7-1.4 15.7 1.2 0 22.4-7 24.1-7.9 1.9-1.1-2-3.7-13-8.9l-8.7-4zM778 287.6c0 .8-.4 1.3-.8 1-.5-.3-2.1.8-3.6 2.5-1.5 1.6-3.4 2.9-4.2 2.9s-1.4.5-1.4 1.1c0 .5-.4.7-1 .4-.6-.4-1 .6-1 2.3 0 3 0 3 4.1 2.1 5-1.2 7.9-2.6 7.9-4 0-.6.3-.8.8-.6 1.4.8 10.7-2.8 10.7-4.2 0-.7-2.2-2.2-5-3.2-6.1-2.3-6.5-2.3-6.5-.3M783 297.6c-5.8 2.4-11.8 4.8-13.4 5.3l-2.9 1.1 7.4 5.1c4 2.8 8.6 6.2 10.2 7.5s3.3 2.4 3.7 2.4c1.4 0 10 5.4 10 6.3 0 1.1-2.8-.5-17.2-10C765 305 765 305 765 308.8c0 4.9 1.2 9.3 2.7 9.9.7.3 2.6 1.7 4.2 3.2 3.7 3.4 9.2 5.1 16.7 5.1 4.2 0 5.5.3 4.4 1-.8.5-3.6 1-6.1 1s-4.8.3-5.2.6c-.6.7 1.3 5.6 2.6 6.5.5.3.7.9.5 1.3-.1.3 2.6 3.1 6.1 6.2 4.3 3.7 7 5.4 8.3 5.1 1-.3 1.6-.1 1.3.3-.3.5 0 1.2.6 1.5.6.4.7 1.4.2 2.4-.9 1.9-1.1 31.1-.2 31.1.8 0 1.9-5.2 1.9-8.6 0-1.4.4-3.2 1-4.2 1.5-2.7 3.9-15.3 3.3-17-.4-.9-.2-1.3.3-.9 1 .6.9-5.6-.1-10.1-.8-3.2.4-2.7 1.6.8.6 1.6 1.4 3 1.8 3 .6 0 15.1-29.1 15.1-30.4 0-.4-.9-.2-1.9.4-2.3 1.2-3.1 1.3-3.1.2 0-.4 1.4-1.3 3-2 1.7-.8 3-1.7 3-2.2 0-.4-3.9-3.3-8.7-6.4-4.9-3.1-9.3-6-10-6.6-.7-.5-1.5-1-1.8-1s-2.3-1.2-4.4-2.6c-2.2-1.4-5-2.7-6.3-2.8s-7 1.7-12.8 4M869 294c-1.9.4-4.4 1.1-5.5 1.8-1.1.6-5.4 2.7-9.5 4.6s-10.4 5.1-14 7c-3.6 2-7.2 3.3-8.1 3.1-1.3-.4-1.5 0-1.2 1.8.3 1.5 1.8 3 4 4.1 2 .9 3.3 1.9 3 2.2-.2.3-2.1-.4-4.1-1.6-4.6-2.5-4.8-2.5-4 .5.3 1.4.2 3.1-.4 3.8-.8.9-1.8 23.6-1.3 29.3.1 1.3 6.7.2 8.2-1.3.7-.7-.9-11.1-2.7-16.6-.3-1.1-.2-1.7.3-1.4s1.8 4 2.8 8.1c1.1 4.2 2.2 7.6 2.6 7.6s1.6-1.5 2.6-3.3c1.1-1.7 4.1-5.9 6.8-9.1l4.8-5.9-2.9-2.4c-1.6-1.2-2.4-2.3-1.8-2.3s1.7.7 2.4 1.5c2.2 2.7 3.4 1.5 7.4-7 2.2-4.7 4.1-8.3 4.3-8.2.3.4-1.6 5.5-4.3 11.5-1.8 3.8-1.2 5.1 1.2 3.1 1.7-1.4 13.9-7.9 27.2-14.5 3.9-2 7.2-4.2 7.2-4.8 0-.7-4.6-3.4-10.2-6.1-5.7-2.7-10.5-5.2-10.8-5.5s-2.1-.3-4 0M742.1 300.3c-3.6 1.8-3.5 2.9.3 7.3 3 3.5 4.2 4.1 11.2 5.5 7.3 1.5 8 1.5 9.2 0 .7-.9 1.2-3.1 1-5-.3-3.2-.6-3.4-7.5-5.6-10.8-3.4-11.6-3.5-14.2-2.2"/><path d="M819.1 335.1c-4.3 8.7-6.5 14.2-5.8 14.4s3.6.6 6.5.9l5.2.5.1-3.2c0-1.8.2-4.1.4-5.2.6-4.1 1.5-21.5 1.1-21.5-.3 0-3.6 6.3-7.5 14.1M853.7 331.3c-7.1 7.6-13.7 16.6-13.7 18.7 0 1.5 5.1.4 6.5-1.4.6-.7 1.8-1.5 2.8-1.9.9-.3 1.7-1.1 1.7-1.7 0-.5.5-1 1-1 3 0 9.5-10.5 8.4-13.5-.9-2.2-4.2-1.8-6.7.8M948.2 350.8c-1.3 2.6-2 5.5-1.7 6.4.4.9-.1 3.2-.9 5.3-.9 2.1-1.6 4.6-1.6 5.6 0 1.1-.4 1.9-1 1.9-.5 0-1 .9-1 2.1s-.8 2.3-2 2.6c-1.1.3-2 1.2-2 1.9 0 .8-.3 1.4-.7 1.4-.5 0-1.7 1.4-2.8 3s-2.5 3-3.1 3c-.7 0-1.4.6-1.7 1.4s-1.8 1.7-3.4 2c-1.5.2 1.7.3 7.2 0 11.4-.5 14-1.7 14.9-6.7.9-4.6 5.5-15.7 5.6-13.3 0 1-1.2 5.4-2.7 9.8-2.2 6.6-2.5 8.4-1.6 10.9 1.2 3 .6 3.8-1.4 1.8-.8-.8-2.6.8-6.6 5.8-3 3.7-6.8 8.4-8.6 10.3-1.7 1.9-3.1 3.8-3.1 4.2s-.7 1.4-1.6 2.2c-1.4 1.5-1.4 1.6.4 1.6 1.1 0 3.5-1.1 5.5-2.4 1.9-1.3 3.8-2.2 4-1.9 1.9 1.9 16.7-6.8 16.7-9.8 0-.9.5-1.9 1.2-2.1.8-.3 1.1-4 .9-12.9-.2-6.8-.4-13.5-.5-14.9-.2-1.4-.4-3.5-.4-4.8-.1-1.2-.9-2.2-1.7-2.2-1.2 0-1.3-.5-.4-2.8 1.5-4 2.8-11.3 2.2-12.9-.3-.7-1.7-1.3-3.2-1.3-2.2 0-3 .8-4.9 4.8M807.2 371c-1.2 5.2-2.7 11.1-3.2 13-2.3 8.3-4 16.3-4 18.5 0 1.3-.4 2.7-1 3-1.5.9-1.3 16.2.3 17.2.6.4 1.7 1.5 2.2 2.5 3 4.9 14.8 21.9 15.7 22.4.6.4.7-1.9.4-6.2-.3-3.8-.8-12.3-1.2-18.9-.3-6.5-.7-12.2-.9-12.5-.1-.3-.6-3.7-.9-7.5-.3-3.9-1.3-10.8-2.2-15.5s-1.9-12.3-2.2-17l-.7-8.5zM849.2 378.8c-1.1.8-.9 7.7.8 24.6.6 5.4 1 10.3 1 10.8 0 .7 1.3.8 3.3.4 1.7-.4 5.7-.9 8.7-1.2 16.7-1.4 19.2-2.1 17.1-4.5-.6-.8-4-5.1-7.6-9.6-3.6-4.4-7.3-8.4-8.2-8.7-.9-.4-1.3-.9-1-1.3.9-.9-1.3-3.4-2.4-2.7-1 .6-6.9-2.6-6.9-3.7 0-.4-.8-.6-1.7-.4-1 .1-1.2 0-.5-.2 1.5-.6 1.5-1.1-.1-2.8-.8-.7-1.9-1-2.5-.7"/><path d="M932.2 389.9c-4.7.9-8 2-7.5 2.5.4.5.3.6-.5.2-.6-.4-1.9-.1-2.7.7-.8.9-1.9 1.7-2.5 1.9-.7.2-.5 1.9.5 4.8.9 2.5 1.8 6.3 2.1 8.5.5 4.2 2.3 7 3.1 4.8.4-1.2 5.8-7.5 11.7-13.8 1.5-1.6 4.1-4.9 5.8-7.3 2.9-4.2 2.9-4.2.6-4.1-1.3.1-6 .9-10.6 1.8M745.5 413.8c-7.6.7-26.9 3.3-27.2 3.6s8.3 12.5 12.4 17.5c.3.5 10.3-8.1 18.8-16.2l6-5.8-3.5.3c-1.9.2-4.8.4-6.5.6M794.8 426.7c-.9 2.1-2.9 8.3-4.3 13.8-1.5 5.5-3 10.6-3.3 11.4-.5 1.2 1.4 1.3 12.1.8 11.6-.7 15.7-1.3 15.7-2.3 0-1.8-16.8-27.3-18.1-27.4-.3 0-1.2 1.7-2.1 3.7M786.4 430.7c-3.3 3.7-8.2 9.7-10.9 13.3s-5.7 7-6.6 7.7c-.8.7-4.4 4.8-7.7 9.3l-6.2 8 4.2 5.4c2.4 2.9 5.9 7.3 7.8 9.8l3.4 4.5 2.3-5c1.3-2.7 3.5-8.4 5-12.6 1.4-4.2 3-8.1 3.4-8.6 1.3-1.8 4.8-11.8 5.5-16 .4-2.2.8-4.7 1-5.5.1-.8 1.4-4.9 2.8-8.9 1.4-4.1 2.4-7.6 2.2-7.8s-3 2.7-6.2 6.4M741.8 480.6c-5.4 5.4-9.8 10.3-9.8 11.1 0 2.1 27 18.7 28.3 17.3.3-.3-.3-4.6-1.3-9.5-1-5-2.1-11.3-2.4-14l-.6-5 1.4 4.7c.8 2.7 1.6 6.7 1.9 9 .3 2.4.8 5 1 5.8.3.8.8 2.8 1.2 4.5.6 2.9.8 2.7 4-4 1.9-3.9 3.4-7.6 3.5-8.3 0-.8-2.8-5.2-6.2-10-6.1-8.3-6.3-8.5-6.7-5.6-.4 2.7-.5 2.6-1-1.1-.4-2.4-1.2-4.1-2.1-4.2-.8-.2-5.9 4-11.2 9.3M767.1 502.5c-1.7 3-3.1 6.4-3.1 7.6 0 2.5 14.2 16.9 14.8 15 .2-.7.1-1.6-.4-2-.5-.3-.9-1.1-.9-1.6-.3-6.9-4.6-22.1-5.9-20.8-.4.4-.4 0-.1-.9.4-.9.2-1.9-.3-2.2-.6-.3-2.4 1.9-4.1 4.9M369.4 100.7c.2 1 1 4.5 1.6 7.8 2.3 12.4 3.3 15.3 5.3 15.9 1.8.4 1.8.6.4 2.1-1.7 1.7-1.5 9.5.5 14.7 1.6 4.3 2.1 4 9.8-5.2 3-3.6 6-6.8 6.5-7.2.6-.5.4-.8-.5-.8-.8 0-.4-.6 1-1.3s2.4-2.1 2.4-3c-.1-.9.2-1.5.6-1.2s3.3-2.4 6.4-5.9c3.1-3.6 5.3-6.7 4.9-6.9-2.8-1.5-35.1-10.7-37.9-10.7-1 0-1.4.6-1 1.7M342.5 109.5c-10.4 5.1-19.1 9.8-19.3 10.4s-1.3 1.1-2.4 1.1c-1.6 0-29.1 12.2-30.7 13.6-1.5 1.4 2.7 1.5 16.6.5 21.1-1.6 21.2-1.6 25.8-5.7 7.3-6.5 30.5-29.4 29.7-29.3-.4 0-9.2 4.3-19.7 9.4M365 101.8c0 .7-.7 1.2-1.6 1.2-1 0-1.4.6-1.1 1.4.4.9.1 1.3-.6 1-.7-.2-2.4.7-3.7 2.2-2.4 2.5-2.4 2.6-.4 2 1.7-.5 2.3-.2 2.8 1.6.8 3.2.8 3.8-.5 3.8-.6 0-.9-.7-.5-1.5.4-1.2.2-1.3-1.4-.2-1.1.6-2 1.5-2 1.9s-1 .4-2.2-.1c-1.8-.6-3-.1-6 2.7-3.5 3.2-3.6 3.6-2 4.9 1.5 1.3 1.5 1.3-.4.4-1.7-.8-2.5-.6-4.2 1.2l-2.1 2.2 4.4 4.4c2.5 2.4 4.5 5 4.5 5.7 0 1.5 2.7 2.6 3.5 1.4.3-.4.2-1.6-.1-2.5-.6-1.5-.4-1.6 1.6-.5 1.2.6 3.5 1 5.1.8 2.5-.4 2.9-.1 3 2.1.1 1.4.1 3.2 0 3.8-.1.7.7 1.3 1.8 1.3 2.4 0 3.6-1.8 3.2-4.8-.1-1.2.2-2.2.8-2.2s1.1.9 1.1 2.1c0 1.1.5 1.7 1 1.4.6-.3 1 .1 1 .9 0 1 .9 1.6 2.1 1.6 1.8 0 2-.4 1.6-3.3-2.1-12.8-4.1-16.3-5.1-9.3-.7 4.6-.8 4.6-4.7 4.6-3.2 0-3.9-.3-3.9-2 0-1.3.7-2 2-2 1.1 0 2-.5 2-1 0-.6.7-1 1.5-1 .9 0 1.2-.6.9-1.5-.4-.8-.2-1.5.3-1.5s.9-.8 1-1.8c.1-.9.5-2.9.8-4.4 1-3.9-.2-9.8-1.9-9.2-1.6.6-3-2.3-1.6-3.1.6-.4 1-.1 1 .4 0 .6.5 1.1 1 1.1.6 0 .8-1.1.4-2.8-.7-3-2.4-5.4-2.4-3.4M473.5 103c-8.8 1-19.8 2.3-24.5 2.9s-13.4 1.6-19.5 2.2c-6 .6-11.4 1.4-11.8 1.6-.8.5 3.3 2.7 9.8 5.4 25.2 10.6 34.7 14 37.1 13.4 1.9-.4 26.4-25.4 26.4-26.9 0-.3-.3-.5-.7-.5-.5.1-8 1-16.8 1.9M307.5 136.1c-21.2 1.3-20 1.1-19.7 3.4.4 2.1 6.4 18.8 8.6 24 .8 1.6 2.1 5.1 3.1 7.7 1 2.7 2 4.8 2.4 4.8.8 0 4.1-4.9 8.4-12.5 1.9-3.3 6.2-10.7 9.5-16.4 3.4-5.7 5.9-10.8 5.6-11.3-.3-.4-1.5-.7-2.7-.7-1.2.1-8 .6-15.2 1M296.4 186.9c-1 1-4.6 4.9-7.9 8.7s-8.3 9.4-11.1 12.4-7.4 8.4-10.3 12c-2.8 3.6-5.6 6.9-6.2 7.5-4.6 4.4-8.9 9.1-8.9 9.9 0 .4 3 .5 6.8.1 11.8-1.3 26.2-2.1 26.2-1.4 0 .3-6.6 1.1-14.7 1.9-20 1.7-20.9 1.9-20.6 5.6.1 1.6.2 12.9.2 25.2v22.3l5.8-3.8c13.7-8.9 13.2-8.4 19-21.6 2.9-6.7 6-13.5 6.8-15.2.7-1.6 1.2-3.2.9-3.4-.2-.2-.5-.2-.7 0s-3.9 5.3-8.4 11.4c-4.4 6-10.8 15.2-14.3 20.2-6 8.9-8.4 11.8-5.9 7 2.2-4.1 14.6-22.1 23.8-34.6 5-6.8 9.1-12.9 9.1-13.6 0-.6.6-2.5 1.4-4.1s3.7-12.8 6.6-24.8c2.8-12.1 5.3-22.3 5.6-22.8 1-1.5-1.2-.8-3.2 1.1M299.2 195.7c-.7 3.2-1.4 6.9-1.6 8.3-.1 1.4-.5 3.2-.9 4-.9 2.2-4.4 15.9-5.1 20.2l-.7 3.7 3-.9c3.3-.9 11.2-6 9.3-6-.6 0-1.1-.8-1-1.8.3-3.6-.2-5.2-1.7-5.2-1.1 0-1.4-1.4-1.4-6.2.1-3.5.6-7.4 1.2-8.8l1-2.5.8 2.5c.4 1.4.5-.1.2-3.5-.9-9.4-1.7-10.4-3.1-3.8M384 214.1c-4.1.5-11.3 1.3-15.9 1.7l-8.4.7-.3 5.3c-.1 2.9.3 7.7 1.1 10.5.8 3.3 1 5.6.4 6.3-.8 1-1.3 53.4-.4 53.4.6 0 24-41.3 32.5-57.5 2.9-5.5 5.6-10.5 6-11 .4-.6 1.7-3.1 2.8-5.8l2.1-4.7-6.2.1c-3.4.1-9.6.6-13.7 1M407.5 234.6c.3 10.9 1 32.7 1.6 48.4.5 15.7.9 31.1.9 34.4 0 5.1.2 5.8 1.8 5.3.9-.3 17-5.8 35.7-12.2 18.7-6.5 39.7-13.6 46.8-15.8 7-2.3 12.7-4.5 12.7-4.9 0-.5-.8-1.1-1.7-1.5-1-.3-3.4-2-5.4-3.7s-6.7-5.4-10.5-8.3-9.6-7.3-12.9-9.8-12.3-9.3-20-15c-7.7-5.8-14.9-11.3-16-12.4-1.1-1-3.6-2.9-5.5-4.2s-7.8-5.6-13-9.5-10.8-7.9-12.3-8.9l-2.8-1.8zM400.6 224c-2.1 4.1-9.9 18.4-17.3 31.8-10.9 19.5-13.4 24.8-12.9 26.8.4 1.4.3 2.3-.2 2-1.5-.9-8.2 7.8-8.2 10.6 0 .7 1.5 2.3 3.3 3.4 7.6 5.1 41 23.4 42.5 23.4.8 0 .7-4.7-.8-58.5-.6-20.9-1.5-40-1.9-42.5l-.7-4.5zM294.7 233.8l-4.9 2.7.7 5c.3 2.7 1.2 7.5 2 10.5 1.2 5 1.3 5.2 1.5 2 .1-2.9.3-3.2 1-1.5.7 1.6.9 1.1.9-2.1.1-2.4.7-4.7 1.6-5.4 1.5-1.3 3.9-8.1 3.9-11.4.1-2.8-1.3-2.8-6.7.2M352.6 236.5c-1.1.8-1.7 1.8-1.3 2.1.8.8-1.2 2.8-3.7 3.7-1.2.5-1.7 1.4-1.3 2.6.3 1.1-.1 2.2-.9 2.5-.7.3-1.1 1.2-.8 2.1.4.8.1 1.5-.6 1.5-.8 0-1-.9-.5-2.7.5-2.2.4-2.5-.8-1.5-.8.7-1.8.8-2.3.4-.4-.4-.3 0 .4.9.6.9.9 1.8.6 2.1-.6.6 6.1 16.6 12.5 29.9l4 8.4v-13c.1-21.4-1-35.5-2.7-35.5-1 0-1.2-.7-.8-2.5.7-2.9.7-2.9-1.8-1M285.7 245.2c-2.6 5.9-11.8 26.3-12.8 28-.5 1-.9 2.2-.9 2.7 0 .9 18.5-11.2 19.3-12.7.3-.4.1-3-.4-5.7-.5-2.8-1.2-7.2-1.5-9.8-.9-6-1.9-6.7-3.7-2.5M334 249.7c-.8.3-7.8 2.8-15.5 5.5s-14.1 5.1-14.3 5.3c-.2.1.5 2.1 1.5 4.4 1.6 3.8 2.7 4.5 17.3 12 8.5 4.3 16.9 8.6 18.5 9.5 1.7.9 3.8 1.6 4.7 1.6s2 .5 2.4 1.1c.3.6 1.5.9 2.5.6 1.1-.3 2.3.2 2.9 1.1.8 1.4.9 1.2.6-.9-.4-2.7-3.9-11-10.6-25.4-2-4.4-4.3-9.7-5.1-11.8-1.3-3.6-1.9-4.1-4.9-3M282.7 270.9c-3.7 2.6-7.6 5.6-8.7 6.7-2 2-2 2 3.7 7.7 3.1 3.1 6 5.7 6.5 5.7.4 0 1-1.2 1.4-2.8.3-1.5 1.4-5.4 2.4-8.7 2.3-8 3.3-13.5 2.3-13.4-.4 0-3.8 2.2-7.6 4.8M503.8 292.5c-.2.3-16.2 5.8-35.4 12.4-57.9 19.7-58 19.8-58.2 22.3 0 .7-.6 5.6-1.2 10.8s-.8 12.4-.4 15.9c.5 4.9.4 6.2-.6 5.6-.9-.6-1-.3-.1 1.2.7 1.4.7 2.4-.2 3.3-.7.7.3.4 2.1-.6 3.4-2 4.2-3.4 1.7-3.4-.8 0-1.5-.4-1.5-.9 0-1.3 3-.7 3.9.8.6.8 2.5.2 7.2-2.4 3.5-2 6.9-4 7.4-4.5.6-.4 7.3-4.3 15-8.5 14.1-7.8 18-10.9 40.5-32 4.2-3.8 10.7-9.8 14.5-13.2 3.9-3.4 6.7-6.4 6.4-6.7s-.8-.4-1.1-.1M287.6 295.8c-.3.2 0 .9.5 1.6.6.6 3.6 4.9 6.7 9.6s6.4 8.7 7.2 8.9 2.2.5 3 .8c1 .3 2.4-1 3.8-3.4 1.3-2.1 2.1-2.9 1.8-1.8-1.8 7-1.8 7 1.1 8.2 1.5.6 4.6 1.7 6.8 2.3 2.2.7 5.3 1.8 6.8 2.6 1.5.7 2.6 1 2.4.6s-2.1-3.5-4.1-7c-6.6-11-3.1-7.8 5 4.7 4.4 6.6 8.1 12 8.4 12 .9.1 21-35 21-36.6 0-.6-25.1.4-36.3 1.3l-6.8.6 2.6 4.6c3.1 5.5 2.6 6.8-.6 1.5-3-5.1-2.9-4.9-4-3.3-.8 1.1-.9 1-.4-.8.3-1.2.3-2.2-.2-2.2-.4-.1-2.8-.5-5.3-1-10.3-2.2-19-3.7-19.4-3.2M361 299.5c0 .3.7 4 1.6 8.1.8 4.2 1.3 7.8 1.1 8.1-.3.2-1-2.5-1.8-6.1-1.7-8.8-2.4-9.7-4.6-6.6-1 1.4-2.3 3.4-2.9 4.5-3.8 7.1-10.6 19.8-12.8 23.9-1.5 2.7-2.3 5.3-1.9 5.7.9.8 27.4 5.1 28 4.6.2-.3-.1-2.4-.6-4.8-.6-2.4-1-5.8-1-7.4.1-2.6.3-2.5 1.4 1.5.7 2.5 1.6 5.8 1.9 7.3.8 3.5.7 3.5 19.1-5.3 7.7-3.7 15-7.1 16.3-7.6 2.1-.9 1.8-1.2-4.5-4.9-3.7-2.1-10.6-5.9-15.3-8.4-4.7-2.4-11.6-6.4-15.5-8.8-6.7-4.1-8.5-4.9-8.5-3.8M402.5 328.9c-12.4 5.2-27.6 13.4-26.4 14.2.7.4 1 1.1.6 1.5-.3.4-1.3.1-2.2-.6-.8-.7-1.5-.9-1.5-.4s2.4 2.5 5.2 4.4c2.9 1.9 6.1 4.2 7.1 5.1.9.9 3 2.2 4.5 3s3.2 2.1 3.9 3c1.3 1.8 5.7 3.4 4.7 1.7-.9-1.4 1.6-6.8 3.2-6.8.8 0 1.9-1.2 2.5-2.8 1.2-3.1 3.8-24.3 3-24.1-.3.1-2.4.9-4.6 1.8M338.1 347.6c.2 4.9 0 9.5-.4 10.2-.5.6-1.2 3.3-1.7 6-.4 2.6-1.1 5.7-1.5 6.9-1 3.3 1.2 2.9 5.5-.8 3-2.7 3.2-3 1.1-2.4-2 .6-2.3.4-1.8-.9.4-1 .1-1.6-.8-1.6-.8 0-1.5-.4-1.5-.8 0-.5 1.4-.7 3-.4 2 .3 3.7-.2 5-1.3 1.4-1.2 2-1.4 2-.5 0 1 .3 1 1.5 0 .8-.7 1.2-1.6.9-2.1s.1-.9.8-.9c2.1 0 17.1-13.7 16.4-14.9-.5-.8-8-2.1-20.1-3.6-2.7-.3-5.8-.9-6.9-1.2-1.7-.5-1.8.1-1.5 8.3M369.5 347.2c-.4 1.4-3.9 17.8-5.1 23.8-.3 1.9-1 3.9-1.4 4.5-.4.5-1 2.1-1.4 3.5-.3 1.4-1.2 4.6-2 7.2-1.3 4.1-1.3 4.8-.1 4.8.7 0 2-.6 2.7-1.3.7-.6 2-1.3 2.8-1.5s6.2-3 11.8-6.3c5.7-3.2 10.7-5.9 11-5.9.5 0 10.3-6.3 12.5-8.1.8-.6-17.9-14.3-25-18.5-1.8-1-3.3-2.2-3.3-2.6 0-1.3-2-.9-2.5.4M261.1 379.6c-.5 1.2-1.7 5.5-2.5 9.6-.9 4-2 8.9-2.6 10.8-1.1 3.9-.5 7.1 1.3 6.5.7-.1 5.2-.9 10-1.6l8.9-1.2-.7-4.5c-1.1-7.2-4.5-19.3-5.8-20.6-.7-.6-2.6-1.1-4.4-1.2-2.3-.1-3.4.5-4.2 2.2M323.9 382.4c-.2.2-3.7.7-7.7 1s-8.5 1.2-10 2c-1.5.9-3.5 1.9-4.6 2.2-1.5.6-1.7 1.4-1.2 4.3.3 2 .6 5.8.6 8.4 0 2.7.4 4.7.9 4.5 1.7-.7 23.5-21.7 23-22.3-.3-.3-.8-.3-1-.1M314 396.6c-5.5 5.3-9.9 9.8-9.7 10 .4.4 14-2.5 16.3-3.5 2.8-1.2 6.4-14.3 4.3-15.6-.5-.4-5.4 3.8-10.9 9.1M289.2 395.5l-8.1 8.1 7.7 1.7c11.4 2.6 10.9 2.8 10.4-5.1-.2-3.7-.7-8.1-1.1-9.7l-.7-3zM205.5 440.7c1.8 1.9 19.8 12.3 21.2 12.3 1.9 0 22.1-10 20.3-10-16.9-.6-39-2-40.5-2.5-1.4-.6-1.7-.5-1 .2M248.3 468c-.6 1.4-3.6 7.8-6.7 14.3s-5.6 12.3-5.6 13-.5 1.8-1.2 2.5c-.6.6-1 1.3-.7 1.5 1.1 1 15.6 11.4 16.8 12.2 1.2.7 1.3-1.7.6-15.1-.3-8.7-1-19.3-1.4-23.4-.6-6.6-.9-7.2-1.8-5M267 480c0 .3-2 6.3-4.5 13.4s-4.5 13.3-4.5 13.8c0 1.4 3.2-.8 8.8-6 2.8-2.7 5.2-5.8 5.2-6.8 0-3.3-4.8-17.1-5-14.4M264.4 505.5c-9 9.6-9.4 8.7 4.1 10.4 15.4 2 19.3 2.2 19.9 1.2.4-.5.2-1.3-.4-1.6-.6-.4-4-4.7-7.6-9.6s-6.9-8.9-7.3-8.9-4.4 3.8-8.7 8.5M843.9 599.4c-.2.2-4.9.6-10.3.9-5.4.4-10.4 1.1-11 1.7-.8.8-.6.9.7.5 1.4-.6 1.7-.1 1.7 2.8 0 2.7.5 3.7 2 4.2 2.3.7 2.7 2.5.5 2.5-1.8 0-2 3-.2 3 .6.1-.4 1.5-2.3 3.2-2.9 2.6-3 2.8-.7 1.4 1.6-1 3.6-2.5 4.6-3.4.9-.9 3.3-3.1 5.2-4.7 10.7-9 14.1-12.5 12.2-12.5-1.1 0-2.2.2-2.4.4"/></svg>