<svg xmlns="http://www.w3.org/2000/svg" width="1706.667" height="960" viewBox="0 0 1280 720"><path d="M0 360v360h483.6l3.8-7c2-3.8 3.9-7 4.2-7 1 0 .2 2-3.1 7.4-1.9 3.2-3.5 6-3.5 6.2s1.5.4 3.3.4c2.5 0 3.5-.6 4.4-2.7.7-1.5 1.3-3.3 1.3-4s.5-1.3 1-1.3c1.3 0 1.2 1-.5 4-2 3.5-1.9 4 .9 4 1.6 0 5-2.6 10.8-8.3 4.7-4.6 8.9-9 9.4-9.8s2.2-2.5 3.8-3.7 2.4-2.2 1.8-2.2-1.3.4-1.7 1c-.8 1.3-3.5.1-3.5-1.6 0-.8.7-1.4 1.5-1.4s1.5-.6 1.5-1.3c0-.8 1.2-2 2.7-2.8 4.6-2.4 7.4-5.4 6.2-6.6-1.5-1.5-.2-3.4 1.9-3.1 1.1.2 1.8-.5 2-2s.9-2.2 1.7-1.8c1.2.4 3-3.6 6.5-14.7.6-2 1.4-3.7 1.7-3.7.7 0-.7 7.9-2.3 12.4-.8 2.1-1.2 4.1-1 4.3.8.9 11.6 1.1 12.2.2.9-1.6 5-1 7.8 1.2 1.4 1.1 2.6 1.8 2.6 1.4 0-.3.9-.1 2 .5 1.5.8 2 .8 2-.1 0-.8.4-.8 1.5.1 1.6 1.3 1.6 12.1-.1 33.8l-.6 8.2H1280V0H0zM795.5 59.9c5 2.2 14 5.8 20 8.1 19.5 7.3 44.5 17.4 44.1 17.8-.2.2-7.9-2.6-17-6.3-9.2-3.6-22.1-8.6-28.9-11.1-6.7-2.5-15-5.6-18.4-7-3.4-1.3-6.8-2.1-7.7-1.8-1.6.6-1.8 1.2-8.9 22.9-2.5 7.7-5.7 17.1-7.1 21-1.4 3.8-2 6.2-1.2 5.2 1.7-2.2 2.3-2.2 3.6.2.7 1.4.7 2.8 0 4.7-1 2.4-.9 2.6 1.1 2.1 1.1-.3 3.9.1 6.2.9 3.2 1.2 8.1 1.4 20.7 1.2 9.1-.1 17.1.1 17.9.6s1.6.3 2.2-.5c.5-.8.9-.9.9-.3 0 1.3 4.7.6 5.6-.8.3-.5.3-1.6-.1-2.6-.5-1.4-.7-1.4-1.6-.2s-1 1.1-.5-.4c.5-1.4-.5-3-3.7-6.1-2.4-2.2-5.3-6.1-6.5-8.6s-5.2-8.3-9-13c-11.8-14.8-19.3-25.1-18.7-25.8.4-.3 1.3.3 2.1 1.4 6.4 8.9 21.1 27.3 26.6 33.1 3.8 3.9 6.8 7.8 6.8 8.5 0 1.7 8.6 12.8 10.5 13.5.7.3 5.2-2.6 10-6.5 4.7-3.9 8.9-7.1 9.3-7.1s2.4-1.6 4.4-3.5 4-3.5 4.4-3.5c1.5 0-4.4 5.4-12.1 11.2-7.7 5.7-13.3 11.4-12.2 12.4.9.9 38.8 5.6 39.6 4.8.2-.2-.8-4.1-2.3-8.6-4.2-13.2-6.4-21.8-5.6-21.8.4 0 1.5 3 2.4 6.7 2.2 8.5 5.7 19.3 7.6 23.3.7 1.5 20.6 14.7 27.3 18 6.6 3.2 4.9.6-11.8-18.7-4.9-5.8-9.7-11.5-10.5-12.7s-3-4.1-4.8-6.4c-1.9-2.3-2.9-4.2-2.4-4.2s1.7 1.2 2.7 2.6c.9 1.5 2.7 3.8 4 5.3 11.2 13.1 15.7 18.5 19.9 23.8 2.7 3.5 5.2 6.3 5.6 6.3s1.3 1.3 2 3c.7 1.6 1.6 3 2.1 3 1.3 0 1.1-1-1.1-8-1.1-3.5-1.9-6.5-1.7-6.7.5-.4 4.2 9.8 5.1 14 .8 3.5 3.1 4.4 5.6 2.2 1-.9 3.3-2.5 5.2-3.4 1.8-1 3.4-2.5 3.6-3.3s-1.4-3.5-3.4-5.9c-4-4.8-8.4-11.4-8.4-12.6 0-.4 1.5 1.5 3.4 4.2 1.9 2.8 5.3 7 7.6 9.5 4.1 4.5 5.6 7.8 4.7 10.2-.3.8-.9.2-1.6-1.4l-1-2.8-3.8 2.5c-2.1 1.3-5.1 3.4-6.6 4.6-3.2 2.5-3.2 3.8.1 12.9 1.1 3 2.3 7.1 2.6 9l.5 3.5-2-4.2c-1.2-2.4-2.4-4.1-2.8-3.9-.3.2-.7-1-.8-2.7-.3-4.2-2.6-5.5-3.5-1.9-1.2 4.7-5.8 23.6-6.4 26.1-.3 1.3-.7 2.1-1 1.8-1.2-1.2 6.8-33.1 8.1-32 .4.5.2-.2-.4-1.5l-1.2-2.2-3.7 2.8c-8.2 6.3-18.6 13.4-21.8 15-5.9 2.8-4.8 4.4 11.7 17.6 3.1 2.5 6 4.2 6.4 3.8 1.4-1.3-1.6 12.9-4.5 21.3-2.2 6.5-2 4.2.8-7.5 2.6-11.1 2.2-12.2-8.2-20.2-4.9-3.7-9.3-6.8-9.7-6.8-.9 0-.8.4 3.1 11 1.5 4.1 4.2 12.2 6 18s3.7 10.9 4.4 11.5c.6.5 1.8 2.4 2.6 4.1 1.5 3 10 13.2 17.3 20.5 3.7 3.8 4.6 5.9 2.7 5.9-.5 0-1-.4-1-.9 0-1.8-17.5-20.3-20.7-22-2-1-3-.7-7.8 2.9-3 2.2-5.5 4.6-5.5 5.3 0 1.1 2.3 5.8 8 16.7l2.4 4.5.7-4.5c.4-2.5.5-7.9.2-12s0-8.6.5-10c.9-2 1.1-.9 1.3 6 .2 4.7.1 12.2 0 16.7-.2 6 0 8.3.9 8.3.7 0 1 .7.6 1.5-.3.9 1.9 3.9 6.2 8.1 6 6 7 8.1 1.6 3.2-5.1-4.6-3 1.1 7.8 20.7l4.4 8 5.8-.2c7.2-.3 6.3 1.4-.9 1.9l-5 .3.2 3.5c.2 2.8 0 3.1-.7 1.5-.5-1.1-.9-3-.9-4.3-.1-1.2-.6-2.2-1.2-2.2s-4.4-1.4-8.6-3c-4.1-1.7-7.9-3-8.5-3-.7 0-.9 1.9-.5 5.5.3 3 .4 5.5.2 5.5s-.9-2.4-1.5-5.4l-1.1-5.4-8.4 2.8c-4.7 1.6-11.6 3.6-15.4 4.6-3.9.9-7.7 2.4-8.5 3.3-1.9 2.2-2.4 5.3-.8 5.8.6.3 1.2 0 1.2-.6s.5-1.1 1.1-1.1c.5 0 .7.4.4 1-.4.6 1.4 1.1 4.7 1.2 2.9 0 6 .2 6.8.3s4.1-2.3 7.3-5.4c3.1-3 5.7-5 5.7-4.4s-.7 1.6-1.5 2.3c-.9.7-2.5 2.6-3.6 4.2-2.7 3.7-1.4 5.3 4.9 6.3 2.6.4 5.5 1.1 6.5 1.7 2.6 1.4 3.1.5 2.9-5.5l-.2-5.2 1.4 4c.8 2.2 1.7 5.7 2 7.7.4 2.1 1 3.8 1.4 3.8s2-1.8 3.6-4 3.1-3.8 3.3-3.6c.3.2-.7 2.7-2.1 5.5-3.2 6.3-2.7 7.9 4.9 14.9 6 5.4 8.5 6.4 8.5 3.5 0-2.4.6-1.3 1.3 2.4.5 2.4.3 3.3-.7 3.3-1.2 0-3.3 6.8-4 13.5-.2 1.6-.9 4.3-1.5 5.9-.8 2-.9 3.2-.1 4 .5.5 1 1.9.9 3 0 2.1 0 2.1-.9.1-.5-1.2-.7.4-.3 4.2.6 6.8.7 6.8-3.1 5.3-1.4-.5-2.6-.6-2.6-.1s-1.6 1.2-3.5 1.5c-2.1.4-3.5 1.3-3.5 2.1s-.4 1.5-1 1.5c-.5 0-1 .5-1 1.1 0 .7 1.1.8 3 .4 1.7-.4 5-.7 7.4-.7 2.9 0 5-.6 6-1.6 1.8-2 12.6-32.7 12.6-35.9 0-1.3.8-2.4 2.1-2.8s1.8-1.2 1.5-2.1-.1-1.2.4-.9c1.5.9.1 7.4-2.1 10.7-1.1 1.4-1.9 3.6-1.9 4.7 0 1.2-.4 2.1-.8 2.1-.9 0-6.4 14.3-8.2 21.2-1.1 4.3-1 5 1 8.2 1.2 2 1.8 3.6 1.3 3.6-.4 0-1.4-.9-2.1-2s-1.6-2-2.1-2-1.7 3.5-2.6 7.7c-.9 4.3-2 8.2-2.4 8.6-1.2 1.2.5-9.8 1.9-12.3 1-1.8.9-2.1-.3-1.8-1.9.4-20.1 21.7-19.3 22.6 1.4 1.4 13.1-2.5 24.1-8.1 8.5-4.3 9.5-6.5 10.1-22.7.7-19.1 1.1-23.5 2-23.5.5 0 .7 4.3.4 9.5-.7 14.4-.6 20.5.4 20.8.5.2 2-2.3 3.4-5.5 2-4.7 2.5-7.6 2.6-15.3.1-5.2-.2-11.5-.6-14l-.7-4.5 1.3 5c1 3.8 1.4 4.5 1.9 3 .4-1.1.4 3.1.2 9.3-.5 11.8-3.8 24.7-6.9 26.4-.7.4-1.7 2.8-2 5.2-.6 3.7-1 4.3-2.6 3.9s-2 0-2 1.8c0 3.9-2.8 10.8-5.5 13.7-1.4 1.5-2.5 2.1-2.5 1.4 0-.6.3-1.2.8-1.2.8 0 3.9-6.7 5.3-11.3 1-3.7-.4-3.5-7.7.9-5.9 3.7-7 4.1-17.6 6.7-6.7 1.7-7.8 2.3-7.8 4.3 0 .8-.5 1.3-1.1 1.1-1.8-.3-11.9 13.9-11.9 16.8 0 .7-.7 1.5-1.5 1.9-.8.3-1.5.1-1.5-.5 0-1.4-22.6-23.1-23.7-22.7-.4.2-.7.5-.7.8.1.3.4 5.9.7 12.5.6 13.6-.6 8.8-1.8-6.9l-.8-9.8-9.1.7c-12.6.9-22.6 2.2-23.4 2.9-.3.4.3 2.1 1.3 3.9 2.5 4.3 20.5 28.2 24.7 32.9 1.8 2 4.6 5.3 6.1 7.2 1.5 2 3.2 3.6 3.8 3.6s.8-4 .5-11.3c-.4-8-.2-9.8.4-6.2.4 2.7.9 7.8.9 11.1.1 8.7 1.2 9.3 10.4 6.5 4-1.2 8-2.7 8.9-3.2 1-.5 2.3-.9 3-.9 2 0-3.7 2.7-7.4 3.5-1.8.4-5.8 2.1-8.9 3.7-4.7 2.5-5.8 3.5-6.2 6.1-2.2 12.1-5.6 26.1-6.3 25.5-.5-.6 3.2-20 4.6-24 .5-1.6.6-2.8.3-2.8-1.4 0-15.3 16.3-15.3 17.9 0 .7 1.8 4.3 4 8s4 7.3 4 7.9c0 2.1 3.4 1.3 9-2.3 3-1.9 7.5-4.6 10-6.1 7.1-4.3 9.1-6.4 8-8.5-.6-.9-1.6-2.3-2.2-3.1-3.7-3.8-3.6-4.8 0-1.4 2.3 2.2 4.3 3.8 4.5 3.5.2-.2 1.2-1.5 2.2-2.9 1.3-1.9 1.6-2 1-.5-.4 1.1-1.1 3.4-1.6 5.2-.5 1.7-1.5 3.4-2.2 3.7-.6.3-2.8 1.6-4.9 2.8-2 1.3-7.4 4.6-12 7.5-4.5 2.9-8.8 5.6-9.3 6.1-.6.5-1.6 1.1-2.2 1.3-1.2.4-12.7 13-15.8 17.3l-2 2.7-6.9-3.6c-3.7-2-8.5-4.7-10.6-6-4.7-3-5.8-3.2-9.5-1.5-13.8 6.1-13.1 5.9-17.8 4.5-2.4-.7-6.3-2.3-8.7-3.5l-4.2-2.2-11.2 4.8c-6.1 2.6-11.8 5.5-12.8 6.5-.9 1.1-2 1.9-2.6 1.9-.5 0-3.7-3-7.1-6.7-6.4-7.1-10-10.8-12.9-13.3-2-1.7-17.1-11.8-21.9-14.5-1.8-1.1-3.3-2.3-3.3-2.8 0-.9 3.5 1 14 7.8 6.5 4.2 10.5 6.5 11.3 6.5.6 0 8.7-16.4 8.7-17.5 0-1.4-11.3-18.5-12.2-18.5-.5 0-.7.8-.4 1.7 1.1 3.7 3.7 24.3 3.4 26.5-.2 1.3-.9-2-1.7-7.2-.7-5.2-1.7-11.1-2.2-13s-.9-5.2-.9-7.3c0-2.3-.5-3.7-1.3-3.7-.7 0-5.9 4.7-11.6 10.4-9.4 9.4-10.3 10.7-9 12.2s1.2 1.6-1 .9c-1.6-.5-2.1-.4-1.7.4.4.6.2 1.1-.3 1.1-.6 0-1.1-.9-1.1-1.9 0-1.1-.4-2.3-1-2.6-.5-.3-1-1.4-1-2.4 0-1.1-1.5-4.1-3.3-6.7-4.8-7.1-5.4-8.4-1.9-4.4 1.7 1.9 4.1 5.4 5.4 7.7 1.3 2.4 2.7 4.3 3.3 4.3 1.4 0 20.5-19.2 20.5-20.7 0-.7-2.5-2-5.5-2.8-3-.9-5.5-1.8-5.5-2.1 0-.2 2.1-.1 4.7.3l4.7.6-2.2-3.5c-1.2-1.9-2.2-3.9-2.2-4.4.1-1.2 3.9 3.8 4 5.1 0 .5 1.2 1.8 2.5 2.8l2.5 1.8.2-7.8.2-7.8.3 6.7c.2 3.8.6 6.8 1 6.8.3 0 1.5-1.2 2.7-2.8 1.1-1.5 5.1-6.2 8.8-10.4 3.8-4.2 6.8-8 6.8-8.3 0-.4.6-1.2 1.3-1.9 1.9-2.1 4.9-5.8 8.2-10.1 1.6-2.2 3.9-5.1 5.1-6.4 3.5-3.8 4.9-7 3.7-8.2-1.1-1.1-30.2-5-31.4-4.3-.4.2-1.2 4.1-1.8 8.6-1.8 13.3-2 13.9-1.5 4 .5-10.3.1-10.8-5-6.6-3.7 3.2-16.8 14.9-20.5 18.3-1.5 1.5-2.6 2-2.9 1.3-.8-2.5-10.1-16-13-19-1.7-1.8-4.2-3.2-5.4-3.3-1.3 0-5.4-.8-9.3-1.9-4.1-1-7.1-1.4-7.4-.8-.2.5-1 0-1.8-1.1-1.6-2.4-10.4-6.7-15.7-7.6-3.1-.6-3.6-.5-3.7 1.1 0 1.6-.2 1.5-.9-.4-.5-1.2-1.4-2.2-2-2.2s-.9-.8-.6-1.8c.4-1.2-.9-3.8-4-7.8-5.2-6.6-8-11.6-4.2-7.3 1.3 1.5 3.2 3.9 4.3 5.4 3.4 4.8 4.5 5.5 7.3 4.9 2.3-.4 2.4-.3.9.6-2.4 1.5-.7 4.4 3.5 6 1.8.7 4.7 1.8 6.3 2.5 3.6 1.6 6.3 2.2 6.6 1.5.5-1-3.4-18.1-4.3-18.6-.4-.3-.8-1.6-.8-2.9 0-2.8-11.3-28-14.1-31.5l-2.1-2.5.6 6.5c.3 3.6.7 12.8 1 20.5.4 11.7.3 12.6-.4 5.5-.4-4.7-1.1-14.1-1.4-21-.6-13.1-1.5-17.6-4.2-21.7-1.4-2.2-1.1-2.1 2.9.9 2.4 1.8 4 3.6 3.5 3.9s.4 3.4 2 7c8.5 18.6 14.3 29.9 15.1 29.4.5-.3 1.1-.1 1.3.4.1.5 3.9 1.2 8.3 1.5s7.2.3 6.2 0c-1.3-.4-1.7-1.2-1.4-2.5.3-1 .2-1.9-.2-1.9-.7 0-3.5-5.1-4.5-8.3-.3-1.1-1.5-2.1-2.5-2.4-2.5-.6-3.5-3.1-2-4.9.6-.8.7-1.4.2-1.4s-.8-1.7-.7-3.8c0-2.3-.8-5.1-2.3-7.4-2.7-4.3-2.9-5.2-.9-4.5 1.9.7 4-1.8 3.2-3.8-.3-.8-1.5-1.5-2.6-1.5-1.5 0-2 .7-2 2.4 0 1.4-.4 2.8-1 3.1-.6.4-1-.5-1-2 0-1.4-.7-2.8-1.5-3.1-1-.4-1.2-1.1-.6-2.2.4-1 .6-2.3.3-3.1s0-1.1.7-.7c.6.4 1.1 1.4 1.1 2.2s.7 1.4 1.6 1.4c2 0 6.6-3.5 5.7-4.4-.3-.3-.1-.6.6-.6.6 0 2.4-1.2 3.9-2.8 4.7-4.5 10.3-9.2 11.3-9.2.4 0-.1-2.1-1.1-4.6-2.7-6.1-2.5-6.4 1-2.4 1.6 1.9 2.9 2.9 3 2.1 0-.7.6-1.1 1.4-.8.7.3 1.9 0 2.5-.6s1.1-.7 1.1-.1c0 .5 1.6-1.6 3.6-4.6 3.4-5.2 3.5-5.3 3.2-2.3-.2 1.8-.1 3.3.2 3.5 1 .5 15-2.4 15-3.2 0-.4-.8-1.8-1.8-3.1s-2.9-4.3-4.2-6.7c-2.2-3.8-5-5.7-5-3.2 0 .5-.5 1-1.1 1s-.9-.7-.5-1.5c.6-1.8-1.8-2-7.3-.6-2 .5-6.6 1.7-10.3 2.6-6.6 1.7-7.2 2.2-6.9 5.7.3 2.6-.8 2.2-1.9-.7-.9-2.3-1.4-2.5-8.2-2.6-4 0-9.3-.4-11.8-.9-2.8-.5.2-.6 8-.3l12.6.6 1.2-2.8c.7-1.5 4.5-7.7 8.5-13.7 4-6.1 7.2-11.4 7.2-11.8 0-.5 1.1-1.8 2.4-2.9 1.3-1.2 1.9-2.1 1.4-2.1-1.5 0-13.3 9-13.3 10.1 0 .5-.8.9-1.8.9-3.4 0-30.8 18.1-31.7 21-.3 1-.1 3 .5 4.6l1 2.9-2-2.3c-1.1-1.4-2.4-2-3.1-1.6-.9.5-1 .2-.4-1.2.4-1 .8-3.6.7-5.6 0-2.1.4-4.1 1-4.4.6-.4.8-.3.5.2-.3.6-.2 1.6.4 2.4.6 1.1.9.7 1-1.5l.1-3 .7 2.7.6 2.7 7-4.4c3.9-2.4 8.1-5.2 9.5-6.3 4-3 15.7-11.1 25.3-17.5 4.9-3.2 8.6-6.4 8.4-7-.2-.7-2.1-1.8-4.3-2.6-2.1-.7-9-3.4-15.2-5.8-6.2-2.5-11.4-4.4-11.6-4.2-.1.2-1.2 2.7-2.4 5.5-4.4 10.6-9.3 20.6-9.8 20.1-.3-.3-.1-1.3.5-2.4 2.1-3.6 8.4-17.9 9.6-21.8.8-2.7.9-4.8.3-6.5-.5-1.4-1.4-4.8-1.9-7.5-.5-2.8-1.9-8.2-3.1-12.2l-2.2-7.2-5.6-1.5-5.5-1.4 5.6.5 5.6.5.6-3.8c.4-2.2.7-6.2.7-8.9 0-2.8.7-10 1.5-16 .8-6.1 1.6-15.4 1.7-20.8.2-5.3.6-9.7 1.1-9.7 1.1 0 .9 6.9-.8 26.2-.8 9.5-1.7 20.1-1.9 23.6l-.5 6.4 2.7-1.8c4.9-3.1 17.7-13.1 19.5-15.2 1.7-1.8 1.7-2.5.7-5.9-1.7-5.1-17.8-38-19-38.8-.6-.4-1 .6-1.1 2.2 0 1.5-.3 2.2-.6 1.5-.5-1.2-6.5 10.3-14.8 28.6-2.1 4.5-4 8-4.2 7.8-.4-.4 1.7-5 11.3-25.3 3-6.2 5.4-11.9 5.4-12.7s.5-1.8 1-2.1c1.5-.9 1.2-3.6-.7-5.7-1.4-1.6-1.5-1.8-.1-1.3 1.3.5 1.9-1.4 3.7-11.2 1.2-6.5 2.4-12.5 2.6-13.3 1-3.4-.6 13.6-1.7 17.7-.8 3.3-.8 4.7.1 5.6 1.4 1.4 4.2.5 24.1-8.5 8.5-3.9 17.4-7.8 19.8-8.7l4.3-1.6-.2-15.5c-.1-8.5-.4-15.9-.7-16.3-.2-.5-1.2-.1-2.2.8-1.8 1.6-1.9 1.6-1.7-.4.1-1.2.4-2.1.8-2.1s1.5-.8 2.5-1.8c1-.9 2.5-1.8 3.3-1.8.9-.1 9.1-3.1 18.4-6.8 17.1-6.8 36.4-13.6 38.2-13.5.6 0-3 1.5-8 3.4-4.9 1.9-9.9 3.9-11 4.4-1.1.6-6.2 2.4-11.3 4.1-5.2 1.7-12.8 4.7-16.9 6.6l-7.5 3.5 3.4 2.2c1.8 1.3 5.3 3.4 7.8 4.7 2.5 1.4 4.7 2.7 5 3 .5.5 5.1 3.5 14 9.2 5.8 3.7 14.4 8.2 17.2 9.1 2.2.8 4.2-1.7 6.8-8.3 1.2-3 2.8-6.9 3.5-8.5 3.7-8 12.8-35.4 12.8-38.3-.1-1.7.4-3.2 1.1-3.2.6 0 5.2 1.8 10.1 3.9m-340 25.6c5.4 3 8.7 5 17.9 10.9 3.2 2.1 7.2 3.9 8.9 4 1.6.1 3.3.9 3.8 1.8.5.8 2.2 2.1 3.9 2.8s2.9 1.4 2.7 1.7c-.2.2-2.3-.5-4.7-1.6s-5-1.7-5.9-1.4-5.4 4.4-10.1 9.2c-4.7 4.7-11.2 10.9-14.4 13.7l-5.9 5.1 10.4.7c5.7.4 25.5 1.1 43.9 1.6s33.6 1 33.8 1c.1 0 .2.4.2 1 0 .5-2.4 1-5.4 1-6 0-8.9.7-8.1 2.1.7 1.1-2.8 2.9-4.2 2.1-.6-.4-1.3-1.7-1.7-3-.7-2.2-1-2.2-16.1-2.2-8.4 0-16-.3-16.9-.6-1.2-.4-1.6 0-1.6 1.6 0 1.3-.8 2.4-2 2.7-1.3.3-2 1.4-2 2.9 0 1.3-.4 2.4-1 2.4-.5 0-1 1.6-1 3.5s.5 3.5 1 3.5c.6 0 1 1.8 1 4s.4 4 .8 4c.5 0 1.4 1.8 2.1 4 .7 2.3 1.8 4 2.6 4s1.5.4 1.5 1c0 .5.7 1 1.5 1s1.5-.5 1.5-1.1.7-.4 1.5.4c.8.9 3.4 1.8 5.7 2.2 6 1.1 7.8 3.4 5.5 7.2-1.2 1.9.3 1.6 2.2-.5.9-.9 4.1-3.9 7.1-6.6 21.4-19.3 37-34.4 37-35.9 0-.4.7-.7 1.5-.7s1.5.4 1.5 1c0 .5-.4 1-.8 1-.5 0-7.8 6.9-16.3 15.3S515 173.7 507 181.2l-14.5 13.6 7.5 2.2c8.8 2.6 17.9 5.9 16.5 5.9-.5.1-3.2-.6-6-1.5-2.7-.8-6.1-1.8-7.5-2-1.4-.3-4-.9-5.9-1.4-4.2-1.1-4.6-.8-3 2.2 1.1 2.1 1 2.1-1.6-.5-1.5-1.5-3.5-2.7-4.3-2.7-2.5 0-54.3 9-57.7 10-1.6.5-10 1.9-18.5 3-20.6 2.9-20.2 2.8-19 5.1.6 1 3.8 3.7 7.3 6.1 13.8 9.3 65 48.8 64.3 49.6-.2.2-4.2-2.6-8.8-6.2-29-22.7-63.6-48.1-64.5-47.2-.3.3 1.3 60.6 2.3 88.4.6 16.3.8 18.2 2.3 17.6 3.9-1.7 12.2-4.5 51.9-17.9 23.2-7.8 42.4-14.4 42.7-14.7.2-.2-2.3-2.4-5.6-4.8-13.6-10.1-18.9-14.3-18.6-14.7.2-.2 5.8 3.7 12.4 8.6 6.5 4.9 13.9 9.6 16.4 10.4 3.8 1.3 4 1.5 1.9 1.8-2.4.4-2.5.7-2.3 6.4l.2 6-1-5.5c-.5-3-1.5-5.7-2.1-6.1-.7-.4-2.8-.1-4.7.7-2 .9-9.9 3.6-17.6 6.1-12.2 4-59.5 20.3-69.5 23.8-1.9.7-4.1 2.2-4.8 3.3-1.4 2.1-3.3 19.6-2.7 24.2.6 4.4.7 4.5 1.5 2l.8-2.5.1 2.7c.1 1.6-.3 2.8-.9 2.8-.5 0-1 .4-1 .9s.9.7 2 .4c1.5-.4 2 0 2 1.6 0 1.1-.6 2.1-1.2 2.1-.7 0-2.4 1-3.8 2.1s1.3.1 6-2.2 8.7-4.5 8.8-5c.2-.5.8-.9 1.3-.9s6.7-3.3 13.7-7.3c7-4.1 14.4-8.2 16.5-9.3 4-2 20.8-16.2 39.5-33.3 6.2-5.7 11.5-10.1 11.8-9.8.6.6-19.8 19.7-28.2 26.3-3.3 2.7-8.7 7.3-12 10.3l-5.9 5.4 3.5-.6c1.9-.3 8.7-1.8 15-3.2s15.8-3.4 21-4.5 10.5-2.2 11.8-2.5c1.4-.4 2.2-1.3 2.3-2.8.1-1.7.2-1.8.6-.5.6 2.5 1.6 2.3 8.9-1.8 3.6-2 6.7-3.4 7-3.1s-2.9 2.4-7 4.7c-7.8 4.3-9.8 7.2-5.5 8.3 1.2.3 1.8 1 1.4 1.6-1.1 1.9-2.2 1.2-4-2.4-1.1-2.6-2.1-3.4-3.3-3.1-2.7.8-33.2 7.6-38.7 8.6-7.3 1.3-12.5 3-12.5 4 0 .4-.8.6-1.8.3-1.9-.4-4.5.9-27.8 14.1-7.6 4.3-16.1 9.1-18.8 10.6l-4.8 2.7 6.8 1.6c6.4 1.5 17.3 4 36.7 8.2 4.3.9 7.6 1.9 7.4 2.2-.5.4-11.8-1.9-37.7-7.7-7.4-1.6-14-3-14.6-3-1.3 0-12.9 33.8-11.9 34.8.3.4 8.4 1.2 17.8 1.8 13.2.8 15.1 1.1 8.2 1.2-4.9 0-13-.3-17.8-.6-7.4-.6-9-.5-9.8.8-.7 1.3-.8 1.2-.9-.3 0-.9-.6-1.7-1.2-1.7-.7 0-.2-.7 1-1.6 1.2-.8 2.2-2.2 2.2-2.9 0-2.1 4.5-17.1 6.9-23.4 1.2-2.9 2-5.7 1.9-6.2-.2-.4-3.7 1.3-7.8 3.8s-10.5 6.1-14.1 7.9c-3.6 1.7-9 4.8-12 6.7s-6.4 3.7-7.6 4.1c-2.7.9-3 2.4-.5 3.2.9.3 2.6 1 3.7 1.5 1.7.8 1.6.8-.4.3-6.2-1.6-12-1.1-25 2.2-7.5 1.9-14.6 3.7-15.8 3.9-5.3.8-17.9 3.9-18.6 4.6-.5.4-.4 1.7.3 2.9 1.8 3.4.4 3.5-1.6.1-1.5-2.5-2.8-3.2-7.3-4.1-3.1-.6-6.8-1.5-8.3-2-3.7-1.2-3.6-.1.7 7.8 2 3.5 3.4 6.6 3.1 6.9-.2.2-2-2.4-4-5.9-6.2-10.8-5-10.1-15.7-8.3-5.1.9-9.7 1.9-10.1 2.2-.5.2.2 2.3 1.5 4.6 1.4 2.3 4.5 8 7 12.7 10.3 19.6 16 28 19.1 28 1.9 0 1.9.1.2 1.3s-1.3 2.1 5.9 11.3c4.2 5.4 8.5 10.5 9.6 11.3 1 .7 1.9 1.8 1.9 2.4s.8 1.9 1.7 3.1c1.2 1.2.4.9-1.9-.8-2.1-1.6-3.8-3.1-3.8-3.5 0-.5-14-19.4-15.6-21.1-.3-.2-1 .2-1.5 1-.7 1.1-.8.6-.4-1.8.5-2.6.1-3.9-2.2-7-4.8-6.2-12.7-19.5-19-32-2.7-5.3-3.2-3.7-1.3 4.5 1 4.3 4 17.3 6.6 29l4.8 21.1 1.9-2.6c3.7-4.8 4.1-4.8 1.4.2-2.6 4.6-2.7 5.2-1.6 11.2.6 3.5 1.4 6.6 1.9 6.9.4.2 1.3-2.1 2-5.3 1.8-8 3.9-15 3.9-13.2.1 2.8-3.7 18.2-4.7 19.2-1.4 1.4-.3 4 1.2 3.1.6-.4.5 0-.2.9-1.1 1.4-1 2 .5 3.5 1 1 4.1 5.2 6.8 9.3 2.8 4.1 5.8 8.1 6.8 9 1.2 1 1.6 2.2 1.1 3.3-.5 1.4-.9 1.6-1.5.6-.6-1.1-1.3-.9-3.1.8-1.3 1.1-5.9 4-10.3 6.4-4.4 2.3-8.3 4.8-8.7 5.3-1 1.5 2.3 4.8 12.5 12.4 4.8 3.6 8.5 6.7 8.3 6.9-.2.3-5.1-3.1-10.8-7.4-14.6-11-13.3-10.5-21.4-7.8-7.5 2.5-15.3 4.2-14.2 3.1.3-.4 1.4-.8 2.5-1 1.2-.1 3.1-2.8 5.5-7.6 2-4.1 3.6-7.5 3.5-7.5-1-.6-13.1 1.2-12.9 1.8.2.5-.3 1.4-1.1 2-.8.7-2 2.9-2.7 4.9-.6 2.1-1.6 4-2.1 4.3-.5.4-.4-.6.2-2.1.5-1.6 1-5.4 1-8.6.1-5.2-.2-6-3.5-9.4-2-2-3.6-4.4-3.6-5.2 0-.9-.7-2.4-1.7-3.4-.9-1-1.4-2-1.2-2.2.3-.3 2.6 2.6 5.2 6.5 2.7 3.8 5.5 6.9 6.3 6.9.7 0 1.4.7 1.4 1.5s.3 1.5.8 1.6c2.7.3 10.6.1 15.2-.4 3-.3 4.9-.3 4.3 0-2.1.8-1.5 2.6 1.9 5.8l3.1 3-.5-3.2c-.4-3.1-.3-3.3 2.6-3.2 2.6 0 2.8.2 1.1.9-1.1.5-1.6.9-1.1.9.5.1.3.8-.4 1.6-1 1.2-1 1.5.3 1.5 2.1 0 12.4-4.7 16.2-7.3l2.9-2.1-3.4-.8c-1.9-.4-8.6-1.4-14.8-2.2-10.8-1.5-11.5-1.7-18-6.3-3.7-2.6-8.2-5.9-10.1-7.4l-3.4-2.8-5.1 2c-2.8 1-5.2 1.9-5.3 1.9-.2 0-.3-1-.2-2.3 0-1.2.3-1.7.5-1 .6 1.4 6.1 0 8.2-2.1 2.9-2.8 5.6-28.6 3.2-30.1-1.2-.7-.4-2.5 1.2-2.5.7 0 .9 3.8.6 12-.3 6.6-.1 12 .3 12 .5 0 .9-.4.9-1 0-.5 2-5.2 4.4-10.4 5.6-11.9 7-16.7 5.3-17.8-.8-.5-.4-.8 1-.8 1.2 0 2.7-.8 3.3-1.8.8-1.4.9-1.2.4 1-.5 2.4.3 18.6 2.2 41.8l.6 7.4 1.5-3.4c1.3-2.9 3.7-10.7 7-22.5.3-1.1 1-2.6 1.6-3.3 1.3-1.6.2-12.3-2.3-22.7-1-4.4-2.1-9.3-2.5-10.8-.4-2.2-1.1-2.8-2.8-2.5-1.9.3-2.3 1.1-2.9 6.2-.4 3.2-1 6.1-1.3 6.4-.3.4-.3-2.1.1-5.4.8-7-.4-6.5-3.4 1.6-1.2 3-2.1 4.8-2.1 3.9-.1-.9.6-3.3 1.4-5.2 1.8-4.3 1.8-4.7.5-4.7-2.1 0-19 8.4-18.3 9.1.5.3 3.9 1.5 7.7 2.5s6.4 2 5.8 2.2-3.6-.4-6.6-1.2c-7.1-2.1-8.7-2.1-8 .1.5 1.6.4 1.6-.8.3-1.6-1.9-11.7-8.7-18.3-12.5-2.7-1.6-6-3.5-7.2-4.3-2.2-1.4-2.3-1.3-1.9 1.4.2 1.6.1 2.1-.1 1.1-.2-.9-.9-1.7-1.4-1.7s-.9-.7-.9-1.5c0-.9-.9-1.5-2.5-1.5-3.7 0-4 .2-3.8 3.5l.2 3-1.1-2.9c-1.4-3.8-.2-7.2 7-19.6 6.2-10.8 9.2-15.3 9.9-14.7.2.3-1.6 3.6-4 7.3-2.4 3.8-6.1 10-8.1 13.8-4 7.2-3.8 9.4.6 8.3 1.8-.5 3.5-3 7.1-10.6 2.6-5.4 6-13.4 7.6-17.7 1.5-4.4 4-10.3 5.5-13.3 2.9-6.2 2.9-6.1 1.7-6.1-.5 0-2.1 2-3.5 4.5-5.6 9.4-3.2 3.8 5.9-13.9 8.8-17.3 9.3-18.7 8.3-21.8-.5-1.8-1.4-5.6-1.8-8.3-.4-2.8-2.5-8.2-4.5-12.1-2.1-4.1-3.4-7.7-3-8.4.6-.9 1-.9 1.6.1 2 3.2.8-2-1.6-6.7-2.9-5.7-3-6-1-4 .8.8 1.5 1.7 1.5 2 0 1.2 4.5 7.6 5.3 7.6 2 0-.2-5.6-3.6-9.4-2.1-2.2-4-5.1-4.3-6.4-.4-1.2-1-2.2-1.6-2.2-.5 0-.6 1-.3 2.2.7 2.2.6 2.2-.7.3-2.2-3-4.9-10.5-3.9-10.5.5 0 1.2 1.3 1.6 3 .7 3.2 2.4 5 2.1 2.3 0-.9.5-1.8 1.2-2 .7-.3 1 .1.6 1.1-.6 1.4 7.3 14.6 8.8 14.6.4 0 .3-1.4-.2-3.1-.8-2.6-.7-2.9.5-1.9.8.7 1.5 2.5 1.5 4.1 0 1.5.6 3.2 1.3 3.6 1.4.9 4.2 6.3 3.8 7.6-.1.5.2.6.7.3 1.7-1 1.2-9.6-.8-15.6-1.2-3.4-1.9-6.5-1.5-6.8.3-.3.5 0 .5.6 0 .7.4 1.2.9 1.2.4 0 .7-1.1.6-2.5-.2-1.4 0-2.7.4-2.9.4-.3.7 1.5.6 4 0 4 .3 4.7 4 7.7 8.2 6.6 12.5 9 12.5 6.9 0-.5.7-1.7 1.5-2.8 1.3-1.7 1.4-1.6.8 1.8l-.6 3.8h3.9c2.2 0 5.6-.5 7.6-1l3.7-1.1-2.9-8c-3.7-10-3.8-11.2-.1-3.4 1.5 3.3 3.5 6.6 4.3 7.3 1.4 1.1 1.7.9 2.6-1.5.5-1.5 1.9-3.9 3-5.3l2-2.5-.5 2.8-.5 2.7h8.2c9.5 0 9.3.6 2.8-11.4-4-7.3-16-21.6-20-23.7-1.8-1-2.8-.4-10.8 5.8-7.3 5.7-7.9 6.4-7.6 9.6.2 1.8.1 2.2-.1.9-.2-1.2-.7-2.2-1.1-2.2-.7 0 .4-37.4 1.2-42 .2-1.4.2 5.1 0 14.5-.3 9.3-.1 18.2.3 19.6l.8 2.6 8-5.9c8.5-6.4 8.4-6.1 17.7-28.3 4-9.6 4.2-10.3 2.3-8-.9 1.1-2.4 2.9-3.3 4-1 1.1-3.2 4.3-4.9 7.2-7 11.3-17.7 27.3-18.1 26.9-.5-.6 22.4-35.8 25.4-39.1 2.1-2.3 5.7-8 5.9-9.5 0-.3.8-2.8 1.8-5.5.9-2.8 3.5-12.7 5.8-22 2.2-9.4 4.7-18.5 5.5-20.4 3.1-7.3-1.1-4-12 9.5-2.3 2.8-6.8 8.3-10.1 12.1-23.1 27.2-24.5 29.1-24.6 34.8-.1 2.7-.4 4.1-.6 3.1-.3-1.1-.8-1.5-1.2-.8-.3.6-.5-1.9-.5-5.5.2-6.7-3.4-19.9-5.7-21.4-.8-.5-.8-1.6-.1-4 .6-1.9 1.6-5 2.1-6.9l1.1-3.5-.5 3.2c-.5 3.6 1 4.5 2 1.2.4-1.1.9-1.8 1.2-1.5s-.7 2.6-2.1 5.1l-2.7 4.5 3.3 8.5c3.2 8.4 4.8 10.5 4.8 6.5 0-1.1.9-4.6 2.1-7.8 1.2-3.1 5.2-14.7 8.9-25.7 10.4-30.4 12.9-37.6 15.1-42.8 2.9-7 1.6-7-1.9 0-3.7 7.5-14.7 28.4-18.2 34.8-1.5 2.7-4 7.4-5.6 10.2-1.5 2.9-2.9 5.1-3.1 4.9s1.7-4.1 4.1-8.7c4.5-8.4 6.4-12.2 8.5-16.9.6-1.4 2.9-5.7 5.2-9.5 2.2-3.9 5.4-9.9 7.1-13.5s4.4-8.4 6-10.8c1.6-2.3 3.2-5.9 3.5-7.8.4-2.7 2.2-5.2 7.1-10 3.5-3.5 6.9-6.4 7.6-6.4.6 0-1.4 2.2-4.4 5-3.1 2.8-4.8 5-4 5.1q1.5 0 .3.6c-3.1 1.2-.8 2.3 5 2.4 6.1.2 5.7.4-3 1.5-5.3.7-5.4 1.4-1.3 12.5 1.7 4.6 4 11.5 5 15.4s2.1 7.9 2.5 9c.3 1.1-.4.2-1.4-2-1.1-2.3-2.2-5.5-2.6-7.2-.3-1.7-1.9-7.1-3.6-11.9-5.5-15.7-4.5-15.3-9-3.4-7.3 19.4-15 41.3-20.4 58-1.9 5.8-4.6 13.6-6 17.3-3 8.1-1.8 8.4 4 .9 4.4-5.6 20.1-24.1 31.1-36.6 3.8-4.5 7.3-8.8 7.6-9.6.3-.9 3.9-6.5 7.9-12.5 7.7-11.7 16.5-26.5 18-30.4l.9-2.3-10.7.5c-7.4.4-9.4.3-6.3-.3 2.5-.5 7.8-.9 11.8-.9l7.2-.1 10.8-10.3c14.3-13.7 21.2-20 24.2-22.1l2.5-1.6-3.5.5-3.5.5 3.4-1.3c1.9-.7 3.7-1.9 3.9-2.5.2-.7 1.3-1.2 2.5-1.2s4.9-1.1 8.2-2.4c11.5-4.7 29.6-10.8 30.1-10.3.3.3-.5.8-1.8 1.2-4.5 1.4-30.3 10.7-31.6 11.4-.8.5-1.1 1.1-.6 1.3 1.5.9 35.2 9.8 36.9 9.8.9 0 4-2.6 6.8-5.7 6.8-7.6 13.4-14.3 11.5-11.8-3.1 4-6.4 8-10.7 12.7l-4.4 4.8h3.4c1.9 0 6.8-.5 10.9-1 16.7-2.2 44.8-5 49-4.8l4.5.1-4 .4c-5.3.4-52.4 6.3-55 6.8-1.1.2-3.1.4-4.4.4-4 .1-1.6 1.3 17.9 9 10.2 4 20 7.9 21.8 8.7 3.8 1.7 4.9 1.7 6.5.4 5-3.9 18.3-15.9 23.1-20.8l5.9-6.1-5.9.4-5.9.4 6-1.2 5.9-1.2-9.4-6c-5.2-3.3-9.9-6.2-10.5-6.4-2-.8-13.5-8.3-13.5-8.8 0-.3 1 .1 2.3.9 1.2.8 4.5 2.7 7.2 4.3m470.4 125.2c.1 3.7 1.3 4.3 6.6 3 5.8-1.4 6.5-2.2 5.4-6-1.1-3.9-1.1-3.7.1-3.7.6 0 1 1.1 1 2.5 0 1.3.6 3 1.3 3.6.9.9 1 3.6.4 11.3-.4 5.6-.6 15.3-.4 21.6q.45 11.4-.3 7.5c-.5-2.2-.9-11.3-.9-20.3-.1-14-.3-16.2-1.7-16.2-2.7 0-10.4 2.2-10.4 3 0 .4.7 7.2 1.5 15.1 2.3 21.4 1.4 19.4-2.6-6.2-1.1-6.6-1.5-7.6-3.1-7.1-1 .2-1.8-.1-1.8-.7s.5-1.1 1-1.1c.6 0 1-1.1 1-2.5s.3-2.5.8-2.5c.4 0 .6-2.8.5-6.2-.2-5.8-.1-6 .7-2.3.5 2.2.9 5.4.9 7.2m24.8 104c.2 4.3.6 8.8.8 10 .9 4.2 2 2.4 1.8-2.9-.1-4.4 0-4.8.6-2.3.8 2.9.9 2.9 1 .5.1-2.5.3-2.6 8.1-2.8 7.4-.3 8-.2 8 1.7 0 1.1-.4 2.2-.9 2.6-.5.3-1.2 1.9-1.6 3.5-.4 1.7-1.1 3-1.6 3-1.2 0-1.2-.1.6-4.4 1.5-3.4 1.3-5.6-.3-5.6-.4 0-3.2 2.2-6.2 5-5.3 4.8-5.4 4.9-2.7 5h2.7l-2 4c-1.1 2.1-2 5.4-1.9 7.2 0 3.2.1 3.2 1 .8 2.4-5.9 5.3-11.2 5.7-10.2.2.6-.6 2.9-1.8 5.1-2 4-1.6 5.3.8 2.9 3.4-3.4-.7 3.7-5 8.8-1 1.1-1.9 3.9-2 6.2-.1 2.7-.6 4.2-1.4 4.2-.7 0-1.5 1.5-1.8 3.2-.3 1.8-.7 4.4-.9 5.8-.3 1.4-.4-1-.5-5.3 0-4.2.4-7.7.9-7.7s.9-1.2.8-2.8c0-2.4-.1-2.5-.9-.7-.5 1.1-1 1.5-1.1 1-.1-.6-.5.6-.9 2.5l-.7 3.5-.3-4.5c-.1-2.5-.4-3.7-.7-2.8-.2 1-.9 1.8-1.4 1.8-1.4 0-1.1-1.1.8-3.3 1.6-1.7 1.7-4 1.4-22-.1-11.1.1-19.9.5-19.5s.9 4.3 1.1 8.5m13.7 68.7c-1.3 8.6-2.7 16.3-3.1 17.1-.5.7-2.3 2.5-4.1 4-4.3 3.6-6.2 7.4-6.3 12.7-.1 4.4-.3 4.1-1.4-2.6-.5-2.9-.9-3.6-1.6-2.5s-.9 1-.9-.5c0-1-1-2.7-2.2-3.7-2.9-2.6-2.1-3 3-1.6 4.1 1.1 4.3 1 7.7-2.3 4.4-4.3 4.4-5.7-.1-6.6-2-.4-3.1-1-2.5-1.4.8-.5.9-2.6.1-7.6-1.2-8.6-1.2-8.6 0-7.9.6.4 1-.6 1.1-2.2 0-1.5.3-2.2.6-1.5.2.6.9 1 1.4.6.5-.3.9.8.9 2.5 0 3.9 1 6.2 2.2 5.5.6-.4 1.4 0 2 .7.7 1.1.8.9.7-.6-.2-1.1.3-3.8.9-6 .7-2.2 1.2-5.7 1.2-7.7s.6-3.8 1.3-4.1c.6-.2 1.3-.4 1.4-.3s-.9 7.3-2.3 16m-422.7 9.8c-.6 4.7.7 4.9 5.1.7 2-1.9 3.2-2.5 3.2-1.6 0 .8-1 2.1-2.2 3-1.3.8-3.4 2.5-4.8 3.8-1.3 1.3-3.3 2.2-4.3 2.1-2.1-.4-9.4 3.2-11.7 5.7-.9.9-2.6 3.3-3.9 5.5-4.4 7.2-7.6 9.3-18.4 12.6-2.1.7-4.1 1.8-4.4 2.5-.2.8-1.1 1.1-1.8.9-.7-.3-2.8.2-4.5 1.1-1.8.9-3.4 1.4-3.6 1.2-.3-.2 1.1-1.2 3.1-2.1 4.1-2 4.2-2.4 1.5-5.9-2.9-3.7-2.6-8.2.5-7.1.8.3 1.7 2.4 2 4.7.4 2.3.9 4.5 1.1 4.9.6 1 11.4-2.9 14.6-5.2 1.5-1.1 3.2-2 3.8-2 .5 0 1-.4 1-.9s1.5-3 3.4-5.4c3.7-4.9 4.5-7.4 3.2-9.6-.7-1.1-.2-1.2 2.8-.7 2.6.5 4.9.1 8.2-1.4 4.6-2 4.7-2 4-6-.3-2.2-.3-5.2 0-6.7l.7-2.7.9 2.5c.5 1.3.7 4.1.5 6.1m401.3 9c0 .4-.4.9-.9 1.2-.8.5-1.9 5-2.6 10.6-.4 3-4 15.5-4.6 16-.5.5-2.6 7.1-5 16-.5 1.9-1.3 6.4-1.8 10-1.2 8.4-2 12-3.1 13.9-.7 1.1-.9.1-.6-3.1.2-2.6.8-5.3 1.3-6s1.1-4.7 1.2-8.8c.2-4.1.8-7.8 1.3-8.1.6-.4.8-1.1.5-1.6s.6-4 2-7.9c2.6-7 6.3-20.7 6.3-23.4 0-.8.7-2.7 1.4-4.2.9-1.7 1.1-3 .5-3.4-.5-.3-.7-.9-.5-1.3.6-.9 4.6-.9 4.6.1m-81.7 133.3c-1.5 1.3-3.1 2.5-3.4 2.5-1.1 0-14.3 11-16.6 13.8l-2.2 2.6 2.1 2.3c2.7 2.9 1.2 3-1.8.2-2.1-2-2.3-2-6.1-.4-8.5 3.8-18.3 6.7-31.7 9.4-10.6 2.2-13.4 2.1-29.1-1.5-3.8-.8-7.7-1.7-8.5-1.8-.8-.2-2.2-.6-3-.9s-5-1.5-9.2-2.8c-6.7-1.9-8-2-9.5-.8-1.6 1.3-1.7 1.2-.5-.3s1-2.1-1.7-4.6c-1.7-1.5-4.9-3.9-7.1-5.3-2.2-1.3-5.7-3.9-7.8-5.6-2-1.8-4.4-3.3-5.2-3.3s-2.1-1.4-2.9-3.1c-1.2-2.7-1.2-3.3 0-4 2-1.3 2.9-1.1 2.9.6 0 1.6 2.5 1.9 16 1.8 4.1 0 5.9.1 4 .4-1.9.2-4.6.6-6 1-2.4.6-2.3.6 1 1.4 10.3 2.4 22.2 4.2 27.2 4 3.1-.1 5.9.2 6.2.7s2.2 1 4.3 1.1 6.3.5 9.4.9c5.9.9 8.3.6 7.3-.9-.3-.5.4-.9 1.5-.9 1.2 0 2.1.4 2.1.8 0 .5 2.8.5 6.3.1 15.1-1.8 37.5-3.4 36.6-2.5-.3.3-1.4.7-2.5.9-1 .2-2.9.8-4.2 1.3-2.2.9-2.1 1.2 3.1 4.7 2.9 2 5.7 3.7 6.1 3.7.5 0 3.1-2.1 5.9-4.6s6.8-5.7 8.9-7.2c4.5-3.2 4.7-3.9 1.1-3.6-1.6.1-3.7-.2-4.8-.7-1.4-.5-.2-.8 3.8-.8 4.4-.1 6.1-.6 7.4-2.1 1.5-1.7 1.9-1.8 2.6-.5.6 1.1 0 2.2-2 4M836 592.4c0 .2-2.5 1.8-5.5 3.5s-6.1 4-6.7 5.1c-.7 1.1-1.6 2-2.1 2-.4 0-4 2.6-7.9 5.7-3.9 3.2-10.3 8.4-14.2 11.6-3.9 3.1-7.2 6.2-7.4 6.7-.2.6-1.4 1-2.7 1s-2.7.5-3 1c-.7 1.1-6.5 4.3-6.5 3.7 0-.3 1.8-1.7 4-3.2l3.9-2.7-7.7-6.2c-4.2-3.4-9.9-7.7-12.7-9.6-2.7-1.8-6.3-4.4-7.9-5.7-1.8-1.5-3.5-2.1-4.7-1.8-1.4.5-1.7.2-1.3-.8.3-.9-.5-2.2-2.1-3.4-1.4-1-3.6-2.6-4.8-3.5-2.1-1.7-2.1-1.7 1.5-.3 4.4 1.8 5.1 1.8 4.3.5-.3-.6-.1-1 .4-1 .6 0 1.1.9 1.1 1.9 0 2 1.3 1.9 7.5-.5 1.7-.6 1.6-.4-.4 1.2-2.3 2-2.3 2 26.5 2.1 15.9 0 30.4-.4 32.3-.9s3.5-1.7 3.8-2.9c.6-2.1 1.9-2.5 2.5-.8.3.8 1.7.5 4.3-.9 3.9-2.1 5.5-2.6 5.5-1.8m16.9 6.3c-1.7 3.2-4.1 7.3-5.1 9.2-1.1 1.9-3.7 6-5.7 9-7.7 11.4-16.2 25.4-15.7 25.8.3.3 2.2-1.4 4.3-3.7 2.1-2.4 4.9-5.3 6.3-6.4s8.1-7.7 14.9-14.6 11.9-11.6 11.3-10.5c-1.1 2.3-17.2 18.9-30.8 31.9l-9.1 8.7-13.4 3.9c-7.4 2.1-13.5 3.7-13.7 3.5-.4-.4 18.9-6.5 20.7-6.5 1.9 0 7.6-6.1 10.6-11.5 1.5-2.8 6.1-10 10-16 4-6.1 9.6-14.9 12.4-19.8 5.7-9.6 8.2-12.1 3-3m351.3 76.8c1.1 1.4 2.3 2.3 2.8 2 .8-.5 2.4 3 3.4 7.5.4 1.5-.2.8-1.3-1.5-1.1-2.2-2-3.6-2-3.1-.2 1.6 2.2 9.1 3.2 10.1.7.7.8.6.3-.3-.4-.7-.1-1.5.7-1.8.7-.2 2.4-3.8 3.7-7.9 1.8-5.7 2.8-7.5 4.1-7.5 1.6 0 1.5 1-1.5 9.2-1.8 5.1-3.6 10.9-4 12.9-.5 3.1-1 3.6-3 3.2s-3-2.3-6.5-11.8c-2.2-6.2-4.1-11.8-4.1-12.4 0-1.9 2.1-1.2 4.2 1.4m20.5 6-.4 2.6 1.9-2.1c2.2-2.4 4.4-2.5 7.8-.5 1.4.8 3.2 1.7 4 2.1s2.3 1.3 3.2 2.1c1.4 1.3 1.8 1.2 2.8-.6 1.5-2.9 6.7-5.4 9.6-4.7 1.3.4 4.4 1.9 6.9 3.4 5.9 3.5 7.6 8.1 5 13.5-.9 1.9-2.4 3.8-3.3 4.2-1.1.4-.8-.3.8-2 3.1-3.3 3.3-9.4.6-12.4-1.1-1.2-2.1-1.9-2.4-1.6s.2 1.3 1 2.2c.9 1 1.8 2.9 2.1 4.3.6 2.3.5 2.3-.5-.2-1.5-3.4-3.6-4.5-3.1-1.4.5 2.6-3.4 7.9-5.3 7.2-.8-.3-1.1 0-.7 1 .9 2.3 5 1.6 7.2-1.2 1.2-1.5 2.1-2.3 2.1-1.8 0 1.6-4.4 5.4-6.2 5.4-1.1 0-2.9-.5-4.1-1.2-2.1-1.1-2.1-1-.7.7 1.3 1.7 1.3 1.8 0 1-.8-.4-3.5-2.4-5.9-4.4-5.1-4.1-7.9-4.2-11.6-.5-3.2 3.2-1 4.4 3.4 1.8 1.7-1 3.3-1.5 3.7-1.1.9.8-2.5 4.7-4 4.7-.6 0-.3-.5.7-1.1.9-.5 1.7-1.4 1.7-2 0-.5-1.1-.2-2.5.7-1.6 1-3.4 1.4-5.1 1-1.8-.5-2.4-.3-1.8.5.9 1.5-.7.6-5.4-2.9-2.2-1.7-3.1-3-2.7-4.1.3-.8.3-1.2-.1-.9-.3.4-1.2.2-1.8-.5-1.3-1.3-2.8-6-1.7-5.3.3.2 1.5-1.6 2.6-4 2.2-5 3-5.6 2.2-1.9"/><path d="M710.9 87.7c-.1.5-.1 1.1-.1 1.4.1.4.4 6.2.7 13s.7 13.3.9 14.4c.3 1.1.5 2.4.5 2.9.1.5 7.5.6 17.9.2 20.4-.8 28.2-1.5 28.2-2.7 0-.4-2.1-2.1-4.7-3.6-2.7-1.5-8.4-5-12.8-7.9-23.9-15.4-30.4-19.1-30.6-17.7M839 122.7c0 .4 1.7 2.7 3.8 4.9 5.1 5.7 20.5 22.5 27.2 29.7 3 3.3 6.4 7.2 7.5 8.8 2.7 3.9 3.3 3.6 2.9-1.4-.2-2.3-.9-11.6-1.5-20.7s-1.3-16.7-1.5-16.9c-.5-.6-15.1-2.8-23.4-3.5-4.1-.4-9.2-.9-11.2-1.2-2.1-.3-3.8-.2-3.8.3M702 126.4c-3 1.3-9.5 4.2-14.3 6.5-4.9 2.2-9.1 4.1-9.4 4.1-.4 0-3.7 1.4-7.5 3.1-5.3 2.5-6.6 3.5-5.7 4.5 1 1.2 28.8 15.4 30.2 15.4.3 0 3.4 1.3 6.9 2.9 11 5 10 5.8 9.3-8.2-.3-6.7-.7-16.4-.8-21.4-.2-10.6-.1-10.5-8.7-6.9M837.6 129.5c-.3.9-.3 4.3.1 7.5.4 4.2.2 6-.6 6-1.6 0-1.5 13.2.2 14.8.8.9 1.3 6.3 1.5 17.6.3 13.9.2 16.5-1.2 17.9-1.1 1.1-1.6 3.4-1.6 8.1 0 3.7-.4 6.6-1 6.6s-1 2.8-1 6.4c0 6.1.1 6.4 2.3 5.9 1.2-.4 5.1-3.6 8.6-7.2 14.3-14.8 23.1-24.6 23.1-25.8 0-.7.9-1.7 2-2.3s1.9-1.6 1.7-2.3c-.1-.7.4-1.1 1.1-.9.6.1 1.2-.2 1.2-.6 0-.5 1.1-1.4 2.4-2 1.8-.8 2.4-1.8 2.3-3.7-.1-1.4-.7-2.9-1.3-3.3s-1.4-1.8-1.7-3.2c-.8-3.2-15.6-19.2-16.9-18.3-.7.4-.8.1-.3-.6.4-.8-.5-2.6-2.6-4.7-2.3-2.3-3.5-3-4-2.2s-1 .1-1.5-1.7c-.7-2.7-3.9-7-8.8-11.7-2.4-2.2-3.2-2.3-4-.3M880.4 138.7c.8 13.6 2.6 31.6 3.2 32.2.3.3 1.1.1 1.8-.4.8-.6 6.1-4.2 11.8-8.1 12.8-8.6 17.8-12.6 17.8-14 0-.5-1.9-1.9-4.2-3-5.9-2.9-18.3-10.1-24.2-14.1-2.6-1.8-5.3-3.3-5.8-3.3-.6 0-.8 3.9-.4 10.7M663.2 148.3c.7.8 2.7 4.3 4.4 7.8 8 16.4 13.3 27.7 14.4 30.6 1.3 3.4 2.4 4.1 3.5 2.2.4-.6 2.9-2.5 5.5-4.2 12.2-8.1 19-13.3 19-14.4 0-.7-6.9-4.6-15.2-8.7-8.4-4-18.7-9-22.8-11-8-3.8-11.2-4.7-8.8-2.3M698.6 182c-5.3 3.3-10.6 6.9-11.8 7.9l-2 2 2.7 7.6c3.6 10.4 6.4 16.5 7.4 16.5.5 0 3.4-7.8 6.6-17.3 3.1-9.4 6.1-18.2 6.7-19.4.6-1.3.9-2.5.6-2.8-.2-.3-4.8 2.2-10.2 5.5M876.6 183.6c-3.1 2.6-5.6 4.9-5.6 5.3 0 .9-6 7.5-30.7 33.6-.7.8-1.3 1.8-1.3 2.3s-.7 1.5-1.5 2.2-1.5 1.6-1.5 2 9.6 1 21.3 1.4c11.6.3 22.5.9 24.1 1.3l2.9.6-.6-10.9c-.4-6-1-16.1-1.4-22.4-.8-12.9-.8-14.6 0-17.8.3-1.2.4-2.2.3-2.2-.2 0-2.9 2.1-6 4.6M884.4 199c.8 21.1 1.7 32 2.8 32s11.3-8 11.3-8.9c-.1-.3-.6-1.7-1.2-3.1s-2.8-7.9-4.8-14.5-4.1-12.4-4.6-13c-.5-.5-.9-1.6-.9-2.5 0-.8-.8-2.4-1.6-3.5-1.5-1.8-1.6-.8-1 13.5M703.5 199.9c-5.8 17.8-6.6 21.1-4.9 21.1.8 0 1.4.4 1.4.9s1.7 1.5 3.8 2.2c2 .6 4.2 1.6 4.9 2.1 2.8 2.2 3.3-.6 3.3-18.8 0-10.1-.3-18.4-.7-18.5-.5 0-1.5-.2-2.4-.4-1.2-.2-2.5 2.4-5.4 11.4M672.7 200.7c-4.7 3.8-10.1 7.7-11.8 8.8-4.6 2.9-4.7 4.3-.2 5 6.3 1.1 24.5 4.5 28.6 5.4 3.9.9 4.2.6 2.8-3.1-3.6-9.3-4.7-12-6.9-17.1-1.4-3.1-2.8-5.7-3.2-5.7-.3 0-4.5 3-9.3 6.7M657 216.5c0 .7.7 3.1 1.5 5.5.8 2.3 2 7.2 2.6 10.8 1.2 7 2.4 10.2 3.8 10.2.4 0 4.8-3 9.8-6.8 4.9-3.7 10.8-8.1 13.1-9.7 2.3-1.7 4.2-3.3 4.2-3.7 0-.7-5.5-2-18.5-4.4-4.4-.8-9.9-1.8-12.2-2.3-3.2-.6-4.3-.5-4.3.4M683.9 231.4c-5.3 3.9-11.6 8.6-13.9 10.5l-4.2 3.4 2.6 1.4c1.4.7 6.1 2.7 10.3 4.4 4.3 1.6 8.5 3.3 9.3 3.8.9.5 3.1 1.2 4.9 1.6l3.4.7-.7-15.8c-.4-8.8-1.1-16.2-1.4-16.5-.4-.3-5 2.6-10.3 6.5M697.3 225.5c-.3.9-.3 5 0 9.3 1 13.6 2.5 18.4 4.2 13.2.3-1.1 1.2-2.6 1.8-3.2 2.3-2.4 6.6-9.5 6.9-11.4.2-1.5-.2-1.8-2.1-1.6s-2.1 0-1.2-1.2c1.2-1.4-.4-2.9-6.2-5.4-2.3-1-2.9-.9-3.4.3M738.2 232l-21.2.5 3.7 4.8c3.7 4.5 5.3 6.6 17.2 22.1 3 3.9 9.5 11.8 14.5 17.5l9.1 10.4 1.2-7.9c3-19.3 3.4-22.5 4.3-31.9.5-5.5 1-11.5 1-13.3 0-3.1-.1-3.2-4.2-3-2.4.1-13.9.5-25.6.8M773.3 234c.3 1.4 2.8 10.4 5.7 20 2.8 9.6 6.7 23 8.6 29.6 3.1 11.5 4 14.1 7.7 22.4 1.4 3 1.6 3.2 1.6 1.1.1-1.3 1.9-5.6 4-9.5 2.2-3.9 5.2-10.5 6.6-14.6 1.5-4.1 5.7-13.8 9.4-21.5 5.9-12.1 9.2-19.9 11.4-26.7.8-2.3-4.2-2.8-32.6-3.1l-22.9-.2zM833.4 236.8c.3 2.6 1.2 11.2 2.1 19.2 2.2 20.6 3.2 26.2 5.1 27.9 1.3 1.3 1.7 1.3 2.1.2.5-1.2 14.8-18.9 16.3-20.1.3-.3 1.9-2.3 3.6-4.5 1.6-2.2 3.7-4.9 4.8-6 1-1.1 2.5-3.1 3.5-4.5 1.7-2.6 3.6-4.9 8.8-10.9l3.2-3.6-3.2-.6c-1.8-.4-13-.9-25-1.3l-21.9-.6zM769.6 242.1c-.4 3.5-1.6 13.1-2.6 21.4-1 8.2-2 17.9-2.1 21.4l-.3 6.3 4.5 3.2c3.4 2.5 19.7 12.4 25.2 15.4.5.2-.2-1.6-1.4-3.9-1.2-2.4-2.8-6.7-3.5-9.4-.6-2.8-4.2-14.9-7.9-27-3.8-12.1-7.3-23.8-7.9-26s-1.6-4.9-2.3-5.9c-.9-1.6-1.2-.9-1.7 4.5M830 237.6c0 1.1-2.3 6.2-5.1 11.4-4.7 8.8-16.9 35.9-16.9 37.5 0 .4-2.3 5.2-5.1 10.7-2.7 5.5-4.9 10.4-4.7 10.8.2.5 4.8-1.3 10.3-4 10.9-5.2 21.2-9.9 26.2-11.9 3.5-1.4 3.5-.7 1.4-14.6-.6-3.9-1.8-13.5-2.7-21.5-1.7-15.6-2.3-19.2-3-19.9-.2-.2-.4.5-.4 1.5M884.6 239.5c.3.8-.3 2.9-1.4 4.7s-2.7 7.2-3.6 11.9c-2 10.5-2 9.9.3 9.9 1.1 0 2.3.4 2.6 1 .3.5 1.4 1 2.3 1 1.3 0 1.4-.2.4-.9-1-.6-.3-1.1 2.3-1.5 4.9-1 8.5-3.4 8.5-5.7S886 238 884.9 238c-.5 0-.6.7-.3 1.5M875.8 247.1c-2 2.2-3.9 5.3-4.3 6.9s-1.1 3.2-1.6 3.5c-.5.4-.9 2.1-.9 3.8-.1 2.7-.2 2.9-1.1 1.4-.6-.9-.7-2.7-.3-3.9.6-2 .5-2.1-1-.6-.9.9-1.6 2.1-1.6 2.6 0 .6-.3 1.2-.7 1.4-.5.1-3.3 3.2-6.3 6.8s-5.8 6.7-6.2 7-.5 1.6-.1 2.8c.5 2 1 2.2 3.7 1.6 1.7-.3 5-1.4 7.3-2.4s4.4-1.6 4.7-1.2c.3.3.6-.2.6-1.2 0-.9.7-1.9 1.5-2.2.8-.4 1.2-1.1.9-1.6-.4-.6-.2-1.3.3-1.7 1.7-1 4.9-9.1 6.9-17.1 1-4.1 2.2-7.8 2.7-8.1.5-.4.5-.9.1-1.2-.5-.2-2.6 1.3-4.6 3.4M901.3 281.2l.2 12.3 4.5 2.3c5.4 2.9 11.7 5.1 12.4 4.4.7-.6-2.7-7.2-7.8-15.2-5.1-7.9-7-12.5-6-14.1.4-.8.3-1-.4-.5-.7.4-1.2.2-1.2-.3 0-.6-.4-1.1-.9-1.1s-.9 5.3-.8 12.2M688 275.1c-1.2 2.2-5 7.7-8.6 12.2-3.5 4.5-6.4 8.7-6.4 9.3 0 1.5 12.3-1.1 12.8-2.6.2-.6 1.2-1 2.2-1 2.7 0 3.9-2.1 5.4-9.4 1.1-5.1 1.2-7.3.3-9.6-1.6-4.1-3.3-3.8-5.7 1.1M862.6 281.5c-3.2 1.3-6.4 2.9-6.9 3.4-.6.6-2.1 1.1-3.3 1.1s-2.7.7-3.4 1.5-2.1 1.5-3.1 1.5c-2.1 0-3 1.2-2.1 2.6.7 1.1 21.3 10.8 21.6 10.2 1.4-2.5 4.6-16.9 4.6-21 0-2.3-.3-2.3-7.4.7M829 296.4c-9.4 3.7-30.7 14.2-31.5 15.6-.3.5 1.3 1.9 3.6 3 2.2 1.2 3.8 2.4 3.5 2.7s-1.6-.1-2.8-.9c-4.7-3-5.4-2.9-5.4.8.1 1.9.4 3.4.7 3.4.4 0 1 1.2 1.4 2.7.3 1.5 2.1 6.1 3.9 10.2 1.9 4.2 3.9 8.9 4.6 10.6l1.2 3 1.8-3.5c1.7-3.3 3-5 9.9-12.3l2.6-2.9-3.5-2.9-3.5-3 3.7 1.6c4.7 1.9 5.8 1.9 5.8-.1 0-1.8 6.1-15.6 6.7-15 .2.2-.8 3.4-2.2 7.1-1.4 3.8-2.3 7-2.1 7.2.6.6 36-17.6 36.4-18.7.2-.6-3.6-2.8-8.5-5.1-4.8-2.2-10-4.7-11.5-5.5-3.7-2-5.2-1.8-14.8 2M755 295.5c-1.9.6-7.4 2.5-12.2 4-4.8 1.6-8.5 3.3-8.2 3.7.9 1.4 10.3 8 18.2 12.8 3.9 2.5 7.2 4.8 7.2 5.3 0 1.1-2.8-.5-17.8-10.2-4.6-2.9-8.6-5.1-8.9-4.8s-.2 2.7.2 5.4c.6 4.7.8 4.9 6.1 7.2 3 1.4 5.4 2.8 5.4 3.2s1.8 1.6 4 2.8c4.7 2.4 15.5 3 16.3.8.2-.6.2-4.8.1-9.2-.4-9.4.2-8.9 1.1.8.4 4.2 1.2 7 2 7.3 1.9.8 24.5-10.2 24.5-11.9 0-1.5-6.2-5.7-20.5-14.1-8.4-4.9-11.3-5.4-17.5-3.1M704.3 296.7c-.7.3-1.3.9-1.3 1.4 0 .6.5.7 1 .4.6-.3 1 .3 1 1.4 0 2.4 5.3 8.7 8.9 10.5 2.5 1.3 8.7 2.5 14.1 2.9 2.3.2 2.5-.2 2.8-4.5l.3-4.6-5.8-1.7c-3.2-.9-8.3-2.3-11.3-3.2-3-.8-6.2-1.8-7-2.3-.8-.4-2.1-.5-2.7-.3"/><path d="M860 310.5c-1.4.8-3.2 1.4-4 1.5-.9 0-5.6 2.4-10.5 5.3-5 2.9-11.1 6.3-13.7 7.6-5.8 2.8-13 9.5-19.2 18.1-4.1 5.8-4.5 6.6-2.9 7.3 4 1.8 23.1-12 21.7-15.7-.3-.9-.2-1.6.3-1.6s.9-.9.9-2c0-1.6-.7-2-3-2-4.2 0-1.9-2.1 2.5-2.2 2.1-.1 4.2-1 5.7-2.5 1.3-1.3 3-2.2 3.8-1.9.7.3 1.6.1 2-.5.3-.6 1.2-.8 2-.5s1.7-.1 2-.9 2.1-1.7 4-2.1c1.9-.3 3.7-1 4-1.5s1.4-.9 2.4-.9 2.2-.9 2.5-2 1.3-2.7 2.1-3.5c1.9-1.9.7-1.9-2.6 0M781 321.2c-5.8 2.8-10.8 5.5-11.2 6.1-.3.6-4.5 1.3-9.2 1.5-7.6.4-8.6.7-8.6 2.3 0 1.1.9 2.8 2 3.9s2.1 2.3 2.2 2.7c.1.5 1.3 1.7 2.7 2.8s3.2 2.8 3.9 3.8c.8 1 3.2 2.9 5.4 4.3 2.8 1.8 3.7 2.9 3 3.7-.5.7-1 6.1-1.1 12.2 0 10.7-.8 22-1.7 26-.4 1.5-.3 1.7.4.5.5-.8 1.2-4 1.6-7s1.5-8.2 2.6-11.6c2.7-8.8 4-24.4 2.5-29.4-.6-1.9-.1-1.6 1.9 1.3 1.4 2.1 2.6 4.2 2.6 4.7 0 .6 2.7 1 5.9 1 4.7 0 6-.4 6.6-1.8.4-.9.6-7.3.5-14 0-6.8.3-12.1.7-11.9.5.3 1 5.9 1.1 12.4.2 6.5.5 12.5.8 13.4.5 1.9 4.5 2.9 7.6 2.1 1.8-.4 2-1 1.4-5.6-.4-2.8-2-7.9-3.6-11.2-1.7-3.4-3-6.8-3-7.6s-.9-2.5-2-3.8-2-3.1-2-4.2c0-2.6-1.3-2.3-13 3.4M807.8 359.3c1.4 1.7 1.7 3.5 2.2 16.7.2 5.8.4 6.7.9 4 .6-3.1.8-2.6 1.4 3.5.9 9.5.9 12.5-.3 12.5-.5 0-1-2.1-1-4.6 0-2.7-.4-4.3-1-3.9-1.2.8-1.2 21.6 0 34.5 1.6 16.8 2.2 20.3 3.1 18.8.5-.7.8 1.7.6 5.9-.1 4-.5 7.3-.9 7.3s-.5 1.5-.2 3.2l.5 3.3-1.8-3.3c-1.1-1.8-2.1-3.1-2.4-2.8s-5.9.6-12.4.7c-10.7.2-11.7.3-9 1.4 3 1.3 8 6.3 7.2 7.2-.3.2-2.1-1-4-2.6-1.9-1.7-4.3-3.1-5.4-3.1-1 0-2.6-.9-3.6-2-1.3-1.6-3-2-8.4-2.1l-6.8-.2 5.8-.7c3.2-.4 6-.9 6.2-1.2.3-.2-.6-2.8-2-5.6-1.4-2.9-2.5-5.7-2.5-6.3 0-1.3-4.9-9.9-6.7-11.7-1.1-1.2-1.7-3.2-1.5-5.3.1-.3-.6-.6-1.4-.6-.9 0-1.4 1.1-1.4 2.9 0 1.6-.7 4.4-1.4 6.3-.8 1.9-1.2 3.5-.9 3.5s0 .6-.6 1.4c-1.4 1.6-4.2 14.6-3.5 15.8.3.4 2.4.9 4.7.9 4 .2 3.9.2-1.3.9-3 .4-5.7.5-5.9.4-.7-.6 2.7-18.2 4.2-21.5.8-1.9 1.9-4.5 2.2-5.9.7-2.4.5-2.3-3 1-2.1 1.9-7 7.8-10.9 13-8.1 10.7-9.5 12.5-14.8 18.4-2.1 2.2-3.8 4.5-3.8 4.9 0 .5-.7 1.5-1.5 2.3-1.8 1.9-1.9 2.9-.2 4.6.7.7 4 5.1 7.2 9.7l5.9 8.5 2.2-5c1.2-2.7 2.5-6.5 2.9-8.4.7-3.8 4.4-9.6 4.5-7 0 .9-.5 2.1-1.1 2.7s-2 4.6-3.1 9c-1 4.3-2.2 8.7-2.4 9.9-.3 1.2.6 6.9 2.1 12.8 1.4 5.9 2.9 13.6 3.2 17.2.6 6.8 2 8.4 3 3.4.3-1.7.9-3 1.3-3s1-1 1.3-2.3c.3-1.2 1.4-5.6 2.5-9.7s2.3-10.1 2.7-13.2c.3-3.2 1.1-6 1.6-6.4.5-.3.7-.9.4-1.4-.3-.4-.1-1.9.4-3.2l1-2.3v2.3c.1 3.6-2.9 21.1-5 29.1-1 4.1-1.7 7.7-1.4 7.9.3.3-.2 1.3-1.1 2.3-3.3 3.6-.7 3.5 7.6-.4 4.7-2.2 7.9-4.2 7.2-4.4-.6-.3-.9-.9-.6-1.5.6-.9.2-2.9-2.5-11.8-.5-1.6-.2-3.3.6-4.7 1-1.5 1.1-2.7.4-4-1.5-2.9-4.6-17.6-4.3-20.3.5-3.4.9-3.6 3.2-1.5 2 1.9 2.8 4.1 1 3-.6-.4-1 .6-1 2.4 0 1.6.5 3.3 1 3.6.6.3 1 2.1 1.1 3.8 0 2.7.2 2.9.9 1.2.8-1.9.9-1.9.9.3.1 1.5.5 2.2 1.4 1.8.6-.3 1.9-.9 2.9-1.2.9-.3 1.9-1.7 2.3-3.1.6-2.5.7-2.5 2.3-.7 1 1.1 2.4 3.9 3.1 6.4.8 2.5 1.6 3.9 1.8 3.2.3-.6.9-1 1.4-.6.5.3.9 0 .9-.6 0-1.5 5-8 6.1-8 .5 0 .9.6.9 1.4 0 2.8 6.2 11.6 8.2 11.6 1.8 0 1.9-.5 1.2-7.3-.4-3.9-1.2-7.5-1.8-7.9-.7-.5-.3-.8.9-.8 1.7 0 2.3 1.2 3.8 7.2 1 4 2.3 9.9 2.9 13 1.1 5.8 2.1 6.4 3.9 2.4.7-1.5.8-.8.3 2.4-.4 2.5-.7 5.4-.8 6.4-.1 2.1 4.7 5.9 12.7 10.1l4.7 2.5v-2.8c0-1.6-.9-6.4-2.1-10.8-1.1-4.3-2.9-12.5-3.9-18.2-1-5.6-2.3-10.8-2.8-11.5-.6-.7-1.3-3.9-1.5-7-.3-3.2-.7-6.1-1.1-6.4-1-1-.7-2.5.4-1.8.6.4 1.9-.4 3-1.7 2.4-2.8 2.5-2.1.4 2.1-1.9 3.7-1.5 9.9 1 18.1 1 3 2.3 8.6 3.1 12.5.7 3.8 1.7 8.1 2.2 9.5.6 1.4 1.6 6 2.3 10.2.9 4.8 1.9 7.8 2.6 7.8.8 0 1.2-1.3 1.2-3.3-.1-1.7 1.1-9.7 2.6-17.7s2.7-15.6 2.7-17c-.1-3.1-3.7-14.2-6.3-19.3-1.2-2.4-1.8-5.3-1.6-7.5l.4-3.7.7 3c2.5 10.1 8.6 24.7 10 24.2.6-.2 4.6-4.2 9-9l7.9-8.6-5.9-6.9c-5.8-6.9-8.8-10.6-20.9-26-3.6-4.5-6.9-8.2-7.4-8.2-.4 0-.2 2.8.6 6.2.9 3.5 2.2 9.8 3 14.1 1.3 7 1.3 7.9-.1 9.3-.8.9-2 2.5-2.6 3.6s-1.3 1.7-1.6 1.5c-.3-.3.2-1.6 1.1-2.9 2.4-3.4 2-4.5-2.1-5.4l-3.8-.8 3.5-.5c3.5-.6 3.5-.7 3.2-5.1-.2-2.5-1-5.8-1.8-7.4s-1.5-6.2-1.5-10.5c-.2-6.4-.3-7-.9-3.6-.4 2.2-.8 3.3-1 2.5-.1-.9-.5-.4-1 1-.7 2-.8 1.6-1-2.5l-.2-5-1.5 4.9c-1 3.1-1.1 5.1-.5 5.5.6.3.8 1.8.5 3.3-.7 3.8-1.9 2.7-2.7-2.5-.5-3-.2-5.2 1-7.6 1.4-2.7 1.5-5.1 1-13-.3-5.3-1-17-1.6-26.1-.9-17.7-1.7-23.3-3.1-22.4-.5.3-.9-.6-.9-2 0-1.6-.8-3-2.2-3.7-2.1-1.1-2.2-1.1-1 .4"/><path d="M775.7 372.2c-.9 2.4-2.3 7.4-3.1 11.3-.8 3.8-2.2 8.8-3 11.1-1.9 5.2-3.2 14.4-2.9 21.6.2 5.8 1.5 9.4 5.8 16.3 1.3 2.2 2.9 5.8 3.5 8s1.9 5.1 2.9 6.4c1.9 2.4 1.9 2.4 2.6-6.7.4-5.1.4-12.7.1-16.9-.4-4.3-1.1-15.9-1.7-25.8-.6-12-1.4-18.2-2.2-18.7-.9-.6-.9-1-.1-1.6 1.1-.6 1.1-7.8.1-8.9-.2-.2-1.1 1.6-2 3.9M819.2 377.8c-.9.6-1.1 4.3-.7 15.3.7 17.1 1.5 22.5 3.6 22.1.8-.2 7-1 13.9-1.8 16-1.9 15.1-1.6 13.7-5.4-1.2-3.1-10.7-14-12.2-14-.4 0-1.6-1.1-2.6-2.5-1.2-1.4-2.6-2.2-3.4-1.8-.9.3-1.5-.1-1.5-1.1 0-1.2-1-1.6-3.7-1.7-2.1-.1-3-.3-2-.6 2.4-.6 2.1-2.4-1-6.1-1.9-2.1-3.2-2.9-4.1-2.4M909 390c-1.9.5-5.3 1-7.5 1.2-2.7.3-4 .9-4 1.8 0 .8-.7 1.5-1.5 1.5-1.7 0-1.8 1.6-.6 9.2 1.4 8.6 2.3 8.4 12-1.8 4.7-5 8.6-9.5 8.6-10s.6-.9 1.4-.9 1.7-.3 1.9-.8c.7-1-6.1-1.2-10.3-.2M657.5 392.5c.4 1.6.9 3.7 1.3 4.5.3.8 1 3.7 1.6 6.5.7 3.3 1.6 5 2.6 5 .8 0 1.9.6 2.3 1.2.4.7 1.6 1.3 2.6 1.3s3.5.7 5.6 1.6c2 .8 4.5 1.4 5.6 1.2 1.4-.2-1.1-3.2-10.2-12.3-10.3-10.2-11.9-11.6-11.4-9M719 413c-1.9.4-8.7 1.3-15 1.9-18.9 2-18.7 1.9-14.7 6.8 1.3 1.5 3.6 5 5.2 7.6 1.5 2.7 3.4 5.1 4.1 5.4.8.3 3.8-1.9 6.8-4.8 6-6 12.9-11.9 16.4-14 1.2-.8 2.2-1.9 2.2-2.6 0-1.4 0-1.4-5-.3M859.2 413.7q-1.2.45 2.4 4.5c4.4 4.9 19.6 18.8 20.6 18.8.4 0 2.3-2.8 4.4-6.3 2-3.4 4.6-7.2 5.7-8.5 1.3-1.3 1.7-2.6 1.1-3.1-.5-.4-7.9-1.8-16.4-3.1-8.5-1.2-15.7-2.3-16-2.5-.3-.1-1.1 0-1.8.2M840.5 496.7c-.3 2.1-1.2 6.5-2 9.8-.7 3.3-1.7 8.6-2 11.8-.9 7.1-.1 6.9 7.3-1.6 4.9-5.7 5.3-6.5 4.7-10.1-.5-3.6-4.7-12-6.5-13.1-.5-.3-1.2 1.1-1.5 3.2M737.6 499.4c-.9 1.4-2.5 4.8-3.6 7.5l-1.9 5 4.7 5.2c2.6 2.8 5.1 5.8 5.5 6.5 2.9 5.1 2.9-6.4 0-18.6-1.9-8-2.6-8.8-4.7-5.6M357 106.6c.9 4.3 3.3 19.4 5.1 32.3l1.2 8.5 6.1-6.6c3.4-3.6 8.1-9 10.6-11.9s6.9-7.8 9.7-10.8c2.9-3.1 4.9-5.9 4.5-6.2-1.2-1.2-26.4-7.7-32.4-8.4l-5.6-.7zM349.1 107.6c-3.1 2.7-3.8 3.9-2.9 4.5 1.1.7 1.1.9 0 .9-.7 0-1.1.4-.8.8.3.5-.1.9-.9.9s-1.5-.4-1.5-.9-2.7 1.7-6 4.8c-3.2 3.2-5.6 6.2-5.3 6.7.3.6.1.7-.4.4-.6-.4-3.4 1.5-6.3 4.1-3.7 3.4-4.9 5.2-4.4 6.5.3.9 1 1.8 1.5 1.8 1.1.2 2 .4 3.9 1.1 9.5 3.5 28.6 8.8 31.9 8.8 2.6 0 2.7-1.7.6-14.9-2.2-13.4-2.4-14.3-3.5-13.6-.6.3-1 .1-1-.4 0-.6.5-1.1 1.1-1.1.7 0 .8-1.9.4-5.8-1.1-8.6-1.5-8.9-6.4-4.6M290.4 188.2c.6 2.2 1.4 12.7 1.5 21 .1 2.1.4 3.7.9 3.7 3.5-.6 4.4 2.4 1.5 4.7-1.7 1.3-1.7 1.3 0 1.4 1.2 0 1.6.4 1.1 1.2-.4.7.5.2 2-1.2 1.4-1.3 2.4-3 2.1-3.8-.2-.7-.1-1.1.3-.8 1.4.9 7.9-7.7 8.2-10.9.5-4.8 0-6.5-2.1-6.5-1.1 0-1.8-.4-1.5-.9.7-1.1-2.2-2.3-3.5-1.5-.5.3-.9-.1-.9-.9s-1.3-2-3-2.6c-1.6-.5-3-1.4-3-1.8 0-.5-1-1.4-2.1-2.2-2-1.2-2.1-1.1-1.5 1.1M281.4 213.8c-2.9 11.4-5.1 20.8-5 20.9s3.4-1.3 7.4-3.2c4.9-2.4 7.2-4 7.2-5.2 0-4.2-3.4-33.3-3.9-33.3-.3 0-2.9 9.3-5.7 20.8M312.5 202.9c-.3.6-.3 1.7.1 2.3.4.7.4 1-.1.6-1.1-1-7.6 7.4-7 9 .3.7 0 1-.5.7-.6-.4-1 .9-1 3.1 0 3-.3 3.4-1.4 2.5-1-.8-1.6-.8-2.5.2-.6.8-.7 1.8-.3 2.2.4.5.2.5-.4.2-.7-.4-1.7 0-2.4.8-1.9 2.3.5 2 10-1.3.8-.3 2.1-.4 2.8-.3.6.1 1.2-.5 1.2-1.3s1.4-2.5 3.1-3.7c2.6-1.8 3.3-1.9 4-.8.5.8.9.9.9.3 0-.7 1.2-1.5 2.8-1.9 1.5-.3 3.5-1.4 4.4-2.2 1.7-1.5 1.6-1.7-1.5-4.4-1.7-1.6-3.8-2.9-4.4-2.9-.7 0-1.3-.4-1.3-.9s-.8-1.1-1.7-1.5c-1-.3-2.3-.8-3-1.2-.6-.3-1.4 0-1.8.5M369 215.6c-18.1 1.7-25.5 2.7-25.2 3.6.1.5.2 17.3.2 37.5v36.6l2.9-4.4c6.6-10.3 19-32.7 19.9-36.2.6-2.1 2-4.8 3.3-6.1 3.2-3.4 17.1-29.6 16.5-31.2-.3-.8-1.3-1.3-2.3-1.3-1 .1-7.9.7-15.3 1.5M386.3 222.1c-1.2 2.4-4 7.5-6.1 11.4-2.2 3.8-5.4 9.6-7.1 12.7-1.8 3.2-3.7 6-4.2 6.3-.5.4-.9 1.2-.9 2s-3 6.7-6.7 13.2c-15.1 26.8-16.2 29.1-14.4 30.6 1.4 1.2 7.4 4.6 26.1 14.9 2.5 1.4 7.5 4.4 11.2 6.6 3.7 2.3 7 4.2 7.3 4.2 1.3 0-.7-90.9-2.3-101.4l-.7-4.8zM281.8 235.1c-3.2 1.6-5.8 3.6-5.8 4.3 0 3.6 2.2 17.2 2.9 17.9.5.4 1.3-.5 1.9-2 2.7-7 8.2-22.4 8.2-22.8 0-.9-1.5-.4-7.2 2.6M340.1 237c-.1 1.6-.4 2.1-.9 1.3-.6-.9-2-.2-5 2.7-2.2 2.2-4.4 3.6-4.7 3-2-3.3-6.5 4.6-4.7 8.3.6 1.2 3.5 7.8 6.3 14.7 2.9 6.9 5.9 13.1 6.5 13.7.7.7 1.6 2.7 2 4.5l.8 3.3.7-4.5c1-6 .9-38.2-.1-44.5-.4-2.8-.8-3.9-.9-2.5M272.2 245.6c-1.6 2.9-14.2 32.2-14.2 32.9 0 .5 6.8-4.2 8-5.5.3-.4 2.1-1.6 4.1-2.8 6.9-4.2 7.2-4.9 5.8-14.4-.6-4.5-1.5-9.2-1.9-10.3-.7-1.9-.7-1.9-1.8.1M316.5 251.5c-1.6.8-9.2 3.8-16.7 6.7-7.6 2.9-13.8 5.7-13.8 6.1 0 .5.4.6.9.3s1.4.1 2.1.9.9 1.5.5 1.5c-1.5 0 4.2 3.7 12.5 8.2 19 10.3 31.1 16 32.5 15.4.8-.3 1.5 0 1.5.6s.3.8.7.5c.3-.4 1.5 0 2.5 1 1 .9 1.8 1.1 1.8.5s-.3-1.2-.8-1.4c-.9-.4-6.2-12-12.7-27.8-4.6-11.2-6.1-14.1-7.4-13.9-.3 0-1.9.7-3.6 1.4M271.7 270.5c-2.6 1.8-6.5 4.9-8.7 6.9-4.6 4.3-4.5 4.8 2.1 11.5 5 5 4.9 5.1 7.8-7.4 1.2-5 2.6-10.1 3.2-11.4.5-1.3.8-2.5.7-2.6-.2-.2-2.4 1.2-5.1 3M272.7 297.4c2.8 4.9 12.6 19.6 13.2 19.7.3 0 1.5.2 2.6.4 1.4.3 2.6-.4 3.8-2.3l1.7-2.7-.3 3.4c-.2 3.4-.2 3.4 7.3 6 9 3.2 10.2 3.9 9.4 5.3-.4.7-.2.8.4.4.7-.4 1.2-.1 1.2.8s.5 1.6 1.1 1.6c1 0-3.3-8.7-9.1-18.3-1.2-2-1.9-3.7-1.6-3.7s3.5 4.6 7.2 10.2c9.7 15.1 10.8 16.8 11.6 16.8.6 0 3.1-3.9 7.6-12 1.3-2.5 2.9-5 3.4-5.5 1.4-1.3 1.1-.8-4.5 10.5-4.2 8.5-4.5 9.6-3 10.1 2.7 1 13 2.8 20.1 3.5 7.1.8 7 1 5.1-9-.6-3.2-.9-6-.6-6.2.3-.4 3.7 11.8 3.9 14.3.2 1.5 1.7.9 19.6-7.8 16-7.8 16.3-8 14.4-8.6-.7-.3-4-2.4-7.5-4.7-3.4-2.3-10.7-6.7-16.2-9.6s-11.7-6.4-13.7-7.7c-4.3-2.6-6-2.9-5.2-.9.4 1 0 1.3-1.3 1-1.6-.4-2.6.8-5.3 6.1-1.8 3.6-3.8 6.8-4.2 7.2-.5.3 1.1-3.4 3.6-8.1l4.5-8.6h-4.2c-9.4 0-37.7 2.4-37.7 3.2 0 .5.5 1.9 1.1 3.1.9 1.6.2 1.3-2.3-1.1-3.6-3.4-8.7-5.1-21.2-7-3.9-.6-5.3-.6-4.9.2M226 319.7c0 .9 5.9 15.9 8.5 21.6l2.2 4.9 1.6-5.4c3.1-10.5 3.1-11.5 0-13.5-1.5-.9-3-2-3.3-2.3-1.1-1.1-7.9-6-8.4-6-.3 0-.6.3-.6.7M385 329.7c-2.5 1.2-4.9 2.6-5.5 3-.5.5-5.5 2.8-11.1 5.1-12.9 5.6-13.2 5.8-11.6 7.4.9.9 1.2.9 1.2-.5 0-2.1 1.3-2.2 3-.2 1.2 1.4.7 1.9-1.3 1.6-1.8-.3.6 2 3.6 3.5 2.4 1.1 2.8 1.1 1.5.1-2.7-2.1-2.2-2.9 1.3-2.2 2.2.5 3.4.3 4-.6 1.3-2.1 2.2-.3 1.4 2.8-.4 1.5-1 2.2-1.2 1.5-.7-1.8-2.2-1.5-1.9.5.2.9 1.1 2.2 2.1 2.7 1.1.6 2.8 1.9 3.9 2.9 2.7 2.4 6.7 4.6 4.9 2.7-1.3-1.4-.7-6.6.9-8.7 1.4-1.7 6.6-1.3 7.1.6.4 1.9 2.6-10.2 3.2-18.1.2-3.1.1-5.9-.3-6.1-.4-.1-2.7.7-5.2 2M322.6 340.9c-.4.5-.2 1.2.4 1.6s.8 1.1.4 1.6c-.3.6.2 1.9 1.1 2.9 1.2 1.4 1.5 2.7 1 5.1q-.75 3.3-1.5 1.8c-.5-.8-.8.1-.6 2.4.2 2 0 3.4-.4 3.2-.9-.6-2 1.9-2 4.6 0 1.1-.7 3.1-1.6 4.4-.8 1.3-1.4 3.4-1.2 4.5.3 1.9 1.2 1.4 7.3-4.5 3.9-3.7 6.4-6.4 5.6-6-.9.6-1.2.4-.7-.4.4-.6 1.2-.9 1.7-.5.6.3 5-3.4 10-8.2 7.3-7.2 8.6-9 7.2-9.5-1-.3-6.5-1.2-12.3-1.8-5.8-.7-11.2-1.5-12.2-1.7-.9-.3-1.9 0-2.2.5M352.9 347.7c-.3 3.3-.8 5.8-2.9 13.3-1.1 4.1-2 9.3-1.8 11.4.1 2.4-.2 4.1-1 4.4-.6.2-1.2.8-1.2 1.4 0 .5-.6 2.4-1.4 4.1-2.9 6.5-3.6 9.7-2.2 9.7.8 0 1.9-.7 2.6-1.5s1.8-1.5 2.5-1.5 2.4-.9 3.7-2c1.4-1.1 6.6-4 11.6-6.5s11.8-6.2 15-8.3l6-3.8-2.3-2.2c-2.1-2.1-12.4-9.8-15.3-11.6-.9-.5-1.9-.1-2.8 1.3-1.9 2.7-5.4 2.8-5.4.2 0-1.1.6-2.6 1.4-3.4 1.3-1.2 1.1-1.7-1.2-3.4-4.7-3.4-5.2-3.5-5.3-1.6M253.5 377.3c-1.1.7-2.2 1.3-2.4 1.4-.6.4-6.1 23.6-6.1 26 0 1.9.4 2.2 2.3 1.9 1.2-.3 5.5-1.1 9.5-1.7 4-.7 7.4-1.5 7.6-1.8.1-.3-.9-6.5-2.3-13.6-2.3-11.3-2.9-13-4.6-13.2-1.1-.1-2.9.3-4 1M298 383.7c-3.6.8-7.2 2.1-8.1 2.9-.8.8-2.1 1.4-2.7 1.4-1.3 0-1.4 3.4-.4 11.7l.7 5.2 11.8-11.5c11.5-11.1 11.7-11.4 8.5-11.3-1.8 0-6.2.8-9.8 1.6M318 386.9c-.8.6-1.9.7-2.5.5-.5-.3-.3 0 .5.8.8.7 1.4 2.5 1.2 4-.3 2.6-.1 2.8 3.5 2.8 4.9.1 2.4 1.7-3.2 2.2-3.7.3-4 .1-3.8-2.2.1-1.4 0-1.8-.3-.8s-.9 1.8-1.4 1.8c-.4 0-1.3 1.4-1.9 3.1-1 3-1 3.1 1.2 2.4 1.2-.3 6.6-1.7 12.1-3.1 5.4-1.3 10.2-2.7 10.8-3 .9-.6-5.9-6.3-7.5-6.4-.5 0-1.5-.7-2.3-1.5-1.7-1.7-4.2-1.9-6.4-.6M299.2 396.2c-9.8 9.8-10.1 11-1.8 9 2.2-.6 5.2-1.3 6.6-1.6 2.7-.6 4.5-3.7 5.6-9.6.4-1.9 1.1-4.3 1.6-5.3.7-1.3.5-1.7-.9-1.7-1 0-6 4.2-11.1 9.2M278.5 392.7c-2.1 2.7-5.3 6.2-7.3 7.9l-3.5 3.2 7.1 1.6c10.3 2.3 10.2 2.4 10.2-3.3 0-6.4-1.1-14.1-2-14.1-.4 0-2.4 2.1-4.5 4.7M196.5 440.8c2.2 2.4 18.1 11.2 20.3 11.2 1.3 0 5.1-1.3 8.5-2.9s8-3.6 10.1-4.5c2.2-.9 3.7-1.8 3.5-2s-9.2-.6-20-.9c-10.7-.4-20.4-.9-21.5-1.3-1.3-.5-1.6-.4-.9.4M233 478.7c-3 7.1-6 13.4-6.7 14.1s-1.3 2.4-1.3 3.7c0 2.4 2 4.2 13.8 12.4l3.3 2.3-.5-9.8c-.3-5.5-.8-15.6-1.2-22.7-.4-7-1-12.7-1.3-12.7-.4 0-3.1 5.7-6.1 12.7M251.1 492.6c-2.3 7.5-3.9 13.9-3.7 14.1.5.5 3.6-1.9 7.8-6.2l3.1-3-2.1 3c-1.1 1.7-4.1 5.1-6.7 7.7l-4.6 4.6 2.8.6c4.5 1 26.8 3.4 27.2 3 .8-.8-1.7-5-7.8-13.2-5.1-6.9-6.5-8.1-7.7-7.2-.9.8-1.4.9-1.4.2 0-.6.6-1.2 1.3-1.5.9-.3.8-1.9-.6-7.3-1-3.8-2.1-7.2-2.6-7.7-.4-.4-2.7 5.4-5 12.9M564.2 693.2c-.1 3.8-.6 6.8-1.2 6.8-.5 0-1 .9-1 2s.5 2 1 2c.6 0 1 .4 1 1 0 .5-.9 1-1.9 1-2.1 0-3.5-3.8-2.4-6.7.7-1.7.6-1.7-1.1-.1-.9 1-1.5 2.2-1.2 2.7.4.5-.5 2.3-2 4-3.1 3.8-3.3 5.9-.9 10.5 1.7 3.1 2.4 3.6 5.6 3.6h3.7l.7-10.3c.4-5.6.5-13.1.3-16.7l-.4-6.5zM535.3 713.1c-10.1.5-14 1.1-16.5 2.6-6.7 3.9-5.2 4.3 15.6 4.3H554l-2.6-4c-1.5-2.2-2.7-3.9-2.8-3.8 0 0-6.1.4-13.3.9"/></svg>