<svg xmlns="http://www.w3.org/2000/svg" width="1706.667" height="960" viewBox="0 0 1280 720"><path d="M0 360v360h130.9c103.8 0 131.1-.3 131.5-1.3.5-.9.7-.9 1.2 0 .7 1.7 204.4 1.9 204.4.3 0-1.4 8.2-15.1 8.7-14.6.3.2-1.4 3.5-3.6 7.2-2.3 3.7-4.1 7.1-4.1 7.6 0 .4 2.7.7 6 .7l5.9-.2 15.8-15.9c8.7-8.7 15.7-16.6 15.5-17.4s.2-1.4.8-1.4.9-1 .8-2.2c-.2-1.3.2-2.4.7-2.5.6-.1 1.5-2.1 2.2-4.5.8-3 1.1-3.6 1.2-1.9.2 3.8 1.5 1.5 4.7-7.4 3.2-9.3 5.3-14.5 5.8-14.5s-3 13.9-4.3 17.4c-1.3 3.3-1.1 3.9 1.3 3 1.4-.5 1.5-.9.5-1.5s-.6-1.1 1.3-1.8c1.4-.5 2.9-1.9 3.3-3 .3-1.2 1.4-2.1 2.4-2.1.9 0 2.2-.5 2.8-1.1.7-.7 1.7-.8 2.9-.1 1.1.5 2.4.7 3 .5.7-.2 1.4 1.4 1.8 4.2.6 3.4 1.2 4.5 2.5 4.5 1 0 3.1 1.7 4.8 3.7 2.9 3.7 2.9 3.9 1.7 8.8-.7 2.7-1.8 9.7-2.4 15.5s-1.4 12.6-1.7 15.2l-.6 4.8H1280V0H0zM761.4 55.6c.7 1.7 52.1 21.7 59.3 23 2.6.5 3.7.2 4.8-1.2 1.1-1.5 1.8-1.7 4.1-.9 3.5 1.3 4.3 3.5 1.3 3.5-2.1 0-2 .3 1.3 2.5 2 1.4 4.3 2.5 5.1 2.5s2.2.9 3.2 2 2.3 2 2.9 2c1.3 0 25.7 14.3 25.2 14.8-.2.2-5.7-2.8-12.3-6.6-6.5-3.8-13-7.1-14.5-7.4-2.5-.5-2.6-.3-2.1 3.6 1 9.9 3.5 28.1 3.8 28.7.3.3 5.3 3.1 11.2 6.2 5.9 3 13.7 7.1 17.1 9.1 8.8 5 10.6 4.6 5.8-1-1.4-1.6-8.2-10.1-15.1-18.9-7-8.8-14.4-18-16.6-20.4-2.1-2.4-3.9-4.8-3.9-5.5 0-1.3 4.7 3.6 10.4 10.9 7.3 9.3 28 35.7 29.9 37.9 1.7 2.1 1.7 2 1.1-2.4-.3-2.5-1.2-7.6-2-11.4s-1.3-7.1-1-7.3c.2-.3 1.2 3.1 2.1 7.4 3.5 16.9 3.6 17.3 5.3 17.3 1 0 6.1-1.9 11.5-4.2 7.2-3.1 9.7-4.6 9.7-6 0-1-.3-1.8-.7-1.8-.5-.1-2.1-1.2-3.8-2.5-2.6-2.1-2.7-2.4-.7-1.8l2.3.6-2.2-3.7c-2.9-5-1.5-4.5 1.8.6 1.5 2.4 3.7 5.3 5 6.6 1.6 1.6 2.3 3.4 2.2 6 0 3.6-.1 3.6-1.2 1.2-.6-1.4-1.2-2.6-1.3-2.8-.1-.1-1.4.4-3 1.3-4.3 2.2-17.1 7.5-18.2 7.5-2.4 0-1.5 5.4 2 11.5 1 1.8 1 1.9-.5.6-1.5-1.2-1.7-1-1.8 2.5-.3 7.7 3.4 49.7 4.6 53.2.3.9 1.5 1.2 3.7.8l3.3-.5-3.2 1.1c-3 1-3.3 1.4-3.3 5.2.1 3.7 1.3 14.4 2.4 20.6 1.5 8 5.7 45.3 5.2 45.7-.3.4-.6 0-.6-.7 0-2.7-5-40.8-6.5-49-.8-4.7-1.5-9.7-1.5-11.2s-.5-3-1.2-3.4c-.8-.5-.9 0-.6 1.4.4 1.2.2 2.4-.2 2.7-.5.3-1.4 3.7-2 7.6-.7 3.9-1.4 6.9-1.6 6.6-.5-.5 2.1-18.7 3-20.8 1.1-2.6-.3-2.8-7.6-1.4-3.7.7-6.5.9-6.2.4.2-.4 2.1-1.1 4.2-1.5 2-.4 4.7-1.1 6-1.5 2-.8 2.1-1.2 1.1-3.1-1.5-2.8-11.4-13.3-15.1-15.9l-2.7-2-2.7 8.8c-1.4 4.8-3.5 10.5-4.6 12.6-1.5 3.1-1.7 4.1-.7 5.3.8 1 1.5 1.2 2.3.4.5-.5 1.7-1 2.6-1 .8.1.3.7-1.3 1.6l-2.8 1.5 7.6 7.2c4.1 4 7.5 7.6 7.5 8.1 0 .4-3.6-2.4-8-6.4s-8.3-7-8.6-6.8c-.3.3-.9 6.4-1.5 13.4-.5 7.1-1.1 14.6-1.3 16.6-.3 3.8.2 4.6 1.9 2.9 1.4-1.3 17.8-8.2 18.3-7.7.4.5-8.5 4.6-9.8 4.6-.5 0-1 .3-1.2.7-.1.5-2 1.7-4 2.7-2.1 1.1-3.8 2.4-3.8 3.1 0 .6 2.8 3.2 6.3 5.8 3.4 2.6 8.2 6.6 10.7 8.9 5.1 4.7 3.4 3.7-6.5-4-3.8-2.8-7-5-7.2-4.8-.4.3 6.4 12.8 9.6 17.6.9 1.4 3.2 5.4 5.1 9l3.6 6.5 5.9-.3c3.3-.2 6.8-.6 7.9-.9q1.8-.45 1.2.6c-.4.6-3.1 1.1-6.1 1.1-6.4 0-8.5.7-8.5 2.8 0 1.2-.5 1.1-2.4-.7-2.5-2.3-17.5-8.1-21.1-8.1-2.2 0-5.1.8-23.5 6.2-10.7 3.2-11.5 3.6-11.8 6.1-.2 1.5.2 2.7.8 2.7s.8.5.5 1c-.4.6-1.1.8-1.6.5-.5-.4-.9-.3-.9.2 0 .4 3.7.7 8.1.6 8.3-.2 10.3-1 13.7-5.5.7-.9 2.7-2.7 4.5-4 2.8-2 2.6-1.6-1.5 3.2-2.7 3-4.8 5.7-4.8 6.1 0 .8 9.5 2.9 13.4 2.9 1.7 0 3.7.5 4.4 1.2 1.7 1.7 1.6-2.2-.3-9.2-2.3-8.7-1.6-9.3 1.1-.8 2.3 7.1 2.6 7.6 4.9 7.2 2.7-.5 3.2.5 1.4 2.3-1.4 1.4-2.1 6.3-.9 6.3.5 0 2.5-1.9 4.5-4.3 3.6-4.2 3.6-3.6-.3 4-1.3 2.7-1.4 3.6-.3 5.5 1.3 2.3 13.2 12.9 15.3 13.7.6.2 1.9-.7 3-2l1.9-2.4-.7 2.7c-.4 2-.2 2.9 1 3.4 2.5 1 1.9 2-1.1 1.9-2.2 0-3.1.8-4.5 3.5-.9 1.9-1.5 4-1.3 4.7.2.6-.2 1.4-.9 1.6-1 .4-1.1 1.9-.4 6.8.6 3.4.7 8.6.3 11.4-.6 5.3-.6 5.3-4.8 5.9-2.7.5-3.7 1-2.8 1.5.9.6.5 1-1.4 1.5-1.7.4-2.5 1.2-2.1 2.1.3.9-.2 1.4-1.7 1.3-2.9-.1-6.7 1.2-6.7 2.3 0 .5 1 .7 2.3.5 1.2-.3 5.8-.8 10.1-1.2 10.3-.8 9.1.6 19.8-22.4 2.2-4.7 4.7-10 5.6-11.9.8-1.9 1.9-5 2.2-7l.7-3.6.7 3.7c.7 3 .4 4.2-1.3 6.4-2.4 3.1-4.5 7.5-10.3 21.9-2.2 5.5-4.4 10.5-5 11.2-.6.8-.4 2 .7 3.7 1.7 2.6.9 3.6-1.2 1.5-1.8-1.8-3.3-.1-3.3 3.6 0 4.5-2 13.7-3.2 15-1.1 1.1-.1-7.5 1.3-11.3 2.2-5.9.1-4.7-11.1 6.4-11 10.9-13.4 14.3-8.1 11.5 1.1-.6 3.7-1.4 5.7-1.7 2.1-.3 6.7-1.6 10.1-2.9 3.5-1.2 6.3-1.9 6.3-1.6 0 1.3-6.6 3.9-17 6.5-11.8 3.1-13.2 4.1-20.4 15.3-4.7 7.4-5.5 9.8-3.3 10.6.6.2-.2.4-1.9.3s-3-.6-2.8-1.1c.3-.6-4.6-5.8-10.8-11.7-6.2-5.8-11.9-11.2-12.7-12-1.1-1.1-1.3-.5-.7 3.7 1.3 10.5 3.6 42.8 3.1 43.3-.3.3-.5-.3-.5-1.4 0-1-.6-7.5-1.4-14.4s-1.7-15.7-2-19.5c-.4-3.9-.9-8.7-1.2-10.8l-.6-3.7-6.1.1c-7.8 0-27.5 2.3-28.4 3.3-.9.9 2.2 6.1 6.3 10.6 3.1 3.4 7.2 8.3 23.9 28.7 8.1 9.9 9.7 11.3 10.3 9.5.2-.7.8-1 1.3-.7.4.3 2.2-1.3 3.9-3.6 1.6-2.3 3-3.8 3-3.2 0 .5-1.4 2.9-3 5.1-3.4 4.7-3 5 3.1 2.2 2.4-1.1 5.3-2 6.4-1.9 1.7 0-1.3 1.4-10.3 5l-2.4.9 3.1 3.6c1.7 1.9 3.1 3.8 3.1 4.2s-1.4-.9-3-2.8c-1.9-2.3-3.2-3.1-3.8-2.5-1.2 1.3-3.7 9.7-6.2 21-1.1 4.9-2.4 10.5-3 12.4-.5 1.9-.8 3.6-.6 3.8s3.1-1.2 6.6-3.2c3.4-1.9 6.4-3.5 6.6-3.5s3.1-1.8 6.5-4 6.8-4 7.6-4c.7 0 1.3-.6 1.3-1.3 0-.6 1.2-1.7 2.6-2.4 2.3-1.1 2.4-1 1.8 1-.9 3-2.4 4.8-3.5 4.1-.5-.3-3.9 1.2-7.6 3.3-3.6 2.1-9.5 5.4-13.1 7.4s-7.1 4.4-7.8 5.3c-.7 1-1.5 1.6-1.7 1.4-.8-.4-19.5 18.1-18.9 18.7.3.3-.2.5-1.1.5s-1.8-.4-2.1-.9c-.4-.5-5.9-3.5-12.3-6.5l-11.6-5.6-8.2 3.5c-4.5 1.9-8.9 3.5-9.8 3.5-.8 0-4.8-1.3-8.8-3-4.1-1.6-7.9-3-8.5-3-1.6 0-21.8 10.1-22.2 11.1-.5 1.4-3.2 1.1-3.2-.4 0-.6-1.9-3.1-4.3-5.4-2.3-2.3-5.5-6-7.2-8.2-1.9-2.7-3.6-4-4.7-3.7-1 .2-1.5-.1-1.2-.9.4-.8-2.3-3.2-6.8-6.1-4-2.6-9.5-6.4-12.3-8.4-2.7-2.1-5.9-4-7-4.2s-3-2.1-4.2-4.3c-2.9-5.2-2.9-6 .2-3 2.9 3 3.9 3.1 5.1.7.5-1 3.4-4 6.4-6.7l5.5-5-6.4 7.3-6.4 7.3 2.3 2.4c2.3 2.5 20.4 14.9 23.2 16 1 .4 2.5-1.6 5.2-7.1 2-4.2 3.5-7.9 3.2-8.2s-.1-1.2.6-1.9c.8-1 .8-1.7.1-2.1-.5-.4-3.1-4-5.7-7.9-6.3-9.6-7-9.9-6.3-2.7.4 3.8.3 5-.2 3.4-.5-1.4-.9-4.4-1-6.7-.1-5.4-1.6-6.2-5.2-2.7-3.4 3.3-3.8 2.5-.7-1.6 1.2-1.6 1.8-3.3 1.4-3.7-.3-.4-3-1.5-5.9-2.4s-11.7-4-19.6-6.8c-18.3-6.5-20.9-6.6-15.6-.9 1.4 1.5 2.5 3.1 2.5 3.5-.1.4-1-.3-2.2-1.7l-2-2.5.6 5.5c.4 3.9.3 4.9-.3 3.3-.6-1.2-1.2-4.1-1.5-6.5-.3-2.3-1-4.4-1.5-4.6-.6-.2-1.1-1.7-1.1-3.3 0-2.8.9-3.7 2.4-2.2.4.5 1.1.8 1.4.8.4 0 1.8.8 3.2 1.7s9.3 4 17.5 6.9c12.3 4.4 16 5.3 20.9 5.2 7.1-.3 7.1-.2 19.1-15.8 5.1-6.6 10.9-13.7 12.9-15.9 2-2.1 4.3-5.1 5.1-6.5 4.9-8.9 5-9.2 3.6-10.1-1.5-.9-12.1-2.5-23.2-3.6l-6.7-.7-1.1 6.9c-.5 3.8-1.5 10.3-2 14.4l-1 7.5.5-8.5c.3-4.7.7-10.8.9-13.7.3-2.9 0-5.5-.5-5.8-.6-.3-1 0-1 .8s-5.6 6.5-12.5 12.8c-6.9 6.2-12.5 11.6-12.5 11.8s.8 1.4 1.8 2.5c1.6 2 1.6 2-.2.6-1.9-1.5-3.4-3.5-10-13.6-4.2-6.6-10.2-12.4-12.7-12.4-2.2 0-15.9-4.7-17.5-6.1-.8-.6-1.1-1.5-.8-2.1 1-1.6-3.8-23.9-7.2-33.3-1.8-5-3.8-10.9-4.5-13.3-.7-2.3-1.9-4.8-2.7-5.5-1.3-1.1-1.4.8-.9 16.1.3 9.5.2 17-.3 16.7s-.9-8.8-1-18.9c0-10.1-.5-19.8-1-21.6-1.1-3.9-.7-4.8 1.4-2.7.8.8 1.3 1.7 1 2s.2 2 1.1 3.7c.9 1.8 3.2 7.8 5 13.4 6.2 18.7 7.9 20.8 16.2 21 5.5.1 7-1.7 4.2-5.2-1-1.4-1.9-3.3-1.9-4.3 0-.9-1.2-2.7-2.6-3.8-2.3-1.8-2.5-2.5-2-6.6.4-2.5.3-4.5-.2-4.5s-.8-1-.7-2.3c.1-1.2-.1-2.7-.5-3.2-.4-.6-1.9-3.1-3.3-5.8-2.8-4.9-2-6.6.9-2.1 1.3 1.9 1.9 2.2 2.5 1.2 1.2-1.8 1.1-4-.1-3.3-.5.3-1-.1-1-1 0-1.2-.8-1.6-2.7-1.4-1.6.1-3.7.1-4.7.1-1.9-.2-1.9-.2-.1-1.5 1.6-1.2 1.6-1.8.7-4.7-.7-1.8-1.2-4-1.2-4.9 0-2.8 1.8.8 2.5 5.1.7 4.2 1.8 4.6 5.6 2 3.2-2.1 13.9-13.3 13.9-14.5 0-.5.6-.7 1.4-.4 1.2.5 1.1-.4-.5-3.9-2.6-6.1-2.4-6.4 1-2.4 2.9 3.5 2.9 3.5 5 1.6 1.2-1.1 2.1-2.4 2.1-2.9 0-.6.6-1.8 1.4-2.6.7-.9 1.8-3 2.5-4.6 1-2.8 1-2.7.5 1.3l-.6 4.4 6.8-.6c8.2-.8 10.4-1.4 10.4-2.8 0-2.1-8.2-13.8-9.6-13.8-.8 0-1.4-.4-1.4-.9 0-1.8-3.7-2.1-8.6-.6-7.8 2.4-8.5 1.7-1.2-1.2 6.7-2.7 6.7-2.7 7.4-7.3 1.1-6.9 1-18.9-.1-19.2-.5-.2-2.7 2.2-4.8 5.2-2 3-5.8 8.6-8.5 12.4-2.6 3.7-5.5 8.1-6.5 9.8l-1.7 2.9 3.7-.6c2.8-.5 3.4-.4 2.3.4-.8.6-2.5 1.1-3.7 1.1-1.3 0-2.8.9-3.5 1.9-.7 1.2-1.6 1.7-2.3 1.1-.5-.4-5.3-1.3-10.5-2-8.5-1-9.6-.9-10.7.6-.7.9-1 2.1-.7 2.5.3.5-.2.6-1.1.2-1.3-.4-1.5-1.3-1-4.2.9-4.3.9-5.9.2-22.1l-.6-12.5 1.2 13.2c.7 7.2 1.4 13.4 1.7 13.7.3.2 1.8-2.7 3.4-6.5s3.1-6.8 3.3-6.5c.2.2-.3 2.1-1.2 4.2-.9 2.2-1.9 5-2.1 6.4-.3 1.3-1 3-1.6 3.7s-.7 1.3-.4 1.3c1.4 0 16-10.6 20.5-14.8.8-.7 2.6-2.1 4-3 3.2-2 3.5-2.3 8.9-6.7 2.4-1.9 4.7-3.5 5.1-3.5s2.2-1.3 4-2.9l3.3-3-3.3-2.1-3.4-2.1 3.9.7 3.9.7-.5-15.7c-.3-8.6-.8-15.9-1.1-16.2-.8-.8-12.9 8.2-20.2 14.9-6 5.4-5.9 5.5 6 11.7 4.4 2.2 6.9 3.8 5.5 3.4-1.4-.3-6-2.4-10.2-4.6s-8.1-3.7-8.6-3.4-1.2-1.8-1.6-4.7c-.4-2.8-1.1-7.5-1.6-10.2-.5-2.8-1.2-6.8-1.6-8.9-.3-2.6-.8-3.5-1.4-2.7-.5.9-.9-.4-1.1-3.3-.3-2.6-.1-5 .3-5.4.7-.7 1.9-8.5 5.3-34.7 1.4-11.4 2.1-22.8 1.4-25-.3-1.2 1.6-10 3-13.5 1-2.4 1-2.4 1 .8.1 2.7.4 3.1 1.9 2.3.9-.5 11-5.5 22.4-11.1l20.7-10.1.6-6.7c.3-3.7 1-9.7 1.6-13.4 1.3-9.4 1.2-11.8-.6-11.8-4.1 0 .6-3.7 7-5.6 2.2-.7 13.9-5 26-9.7 20.3-7.8 30.4-11.3 25-8.7-1.1.5-11.9 4.7-24 9.4-30.7 11.8-28.9 10.9-26.8 12.8 1 .8 6 4.3 11.2 7.7 5.1 3.4 11.9 8.1 15 10.5 6.1 4.6 15 10.1 15.5 9.5.6-.6 16-28.1 17.6-31.4.8-1.7 1.8-3.2 2.1-3.5 1.1-1 10.9-21.3 10.9-22.6 0-1.2-.5-1.2-3.1.1-1.7.9-3.3 1.4-3.5 1.2-.3-.3 1.2-1.4 3.3-2.5 4-2.1 11-2.4 11.7-.6M452.9 95.4c6.8 4.2 13.2 7.6 14.3 7.6 1 0 1.8.4 1.8.9s4 2.8 9 5.2c4.9 2.4 8.8 4.5 8.6 4.6-.2.2-4.3-1.4-9.2-3.7-4.9-2.2-9.6-3.9-10.5-3.8-1.4.2-14.2 10.8-30.3 25l-3.1 2.7 9.7.1c6.8 0 9.8-.4 10.1-1.3.3-.8.9-.6 1.9.7 1.3 1.7 3.4 1.9 20.9 2.4l19.4.5-1.9-2.2c-1.1-1.1-1.7-2.1-1.3-2.1.3 0 1.2-.3 2.1-.6 1.2-.5 1.6 0 1.6 1.8 0 2.4.4 2.5 7.7 3.2 4.2.3 11.2.6 15.6.6s7.8.2 7.5.6c-.5.4-40 .5-54.2 0-3.6-.1-3.9.1-4 2.6-.1 2.3.3 2.8 2.2 2.8 1.3 0 3 .7 3.8 1.5.9.8 2.4 1.5 3.5 1.5 1 0 1.9.4 1.9 1 0 .5.9 1 2 1s2 .5 2 1.1c0 1.6 5.5 6.5 9 8.1 1.7.7 3 1.6 3 2 0 .5.7.8 1.5.8s1.5.4 1.5 1c0 .5.7 1 1.6 1 1 0 1.2.5.7 1.2-.4.7.6.4 2.2-.6 2.5-1.6 2.8-1.7 1.6-.3-.8 1-1.2 1.9-1 2.1.5.5 23.2-19.2 27.7-24 2-2.1 4-3.4 5-3.1 1.5.3 1.4.5-.3 1.2-1.1.5-6.5 5.2-12 10.6-5.5 5.3-17.2 16.1-26 23.9s-18.4 16.4-21.4 19.1l-5.4 4.8 2.9.6c10.7 2.4 35.6 9.7 35 10.3-.2.2-4.8-.8-10.3-2.3-12-3.2-27.3-6.3-27.3-5.6 0 .3.9 2.2 2.1 4.1 1.9 3.2 1.7 3.1-1.9-1l-3.9-4.4-10.4 1.7c-17.9 3-38.3 6.5-41.1 7.1-1.6.3-3.9.8-5.3 1.1-1.7.4-2.5 1.2-2.5 2.6 0 1.2-.5 1.9-1.2 1.6-.7-.2-1.2-1-1.1-1.6.2-.6-.7-1.1-2-1.1-3.7 0-31.1 5-31.9 5.8s3.2 4.1 14.2 12.1c6.2 4.5 13 9.5 41.5 30.6 11 8.2 23.4 17.4 27.5 20.4 4.1 3.1 9 6.8 10.9 8.4 1.8 1.6 3.9 2.6 4.6 2.3.7-.2 1.6.2 1.9 1 .4.9 2.2 1.4 5.8 1.5 10.2.2 9.8 1.4-.4 1.5-8.7.1-11.7.6-19.3 3.2-48 16.2-76.9 26.3-81 28.2-4.5 2.1-4.8 2.4-2.5 2.8l2.5.5-2.5.6c-2.2.6-2.5 1.5-3.5 8.1-1 6.7-1.2 10-.6 15 .1.8.7.2 1.4-1.4 1.1-2.5 1.4-2.7 2.6-1.3 1.1 1.4 1 1.9-.3 3.2-1.9 2-1.9 2-.4 4.5 1 1.6.9 2.3-.7 4-1.9 2.1-1.9 2.1.6 1.1 4.2-1.5 8.9-4.7 8.2-5.4-.3-.4.3-.7 1.5-.7s3.1-.5 4.1-1.2c1.8-1.1 1.8-1.3.3-2.5s-1.4-1.3.5-.4c2.5 1.3 7.7-.5 6.6-2.2-.3-.6-.1-.7.5-.3.5.3 5.8-2.1 11.6-5.4s10.8-6 11.1-6 1.3-.6 2.1-1.3c.8-.6 2-1.7 2.7-2.2 3-2.5 19.8-17.5 25.2-22.6 6.7-6.3 17.2-15.1 19.5-16.3 2.4-1.3-13.9 14.3-21.6 20.6-3.8 3.2-9.1 7.8-11.7 10.2-2.6 2.5-6.4 5.9-8.4 7.5-2 1.7-3.5 3.3-3.2 3.5.3.3 2.9-.1 5.9-.8 3-.8 12.7-2.8 21.5-4.6s18-3.8 20.5-4.5l4.5-1.3-.2-5.8-.1-5.9 1.1 5c.7 2.7 1.5 5.5 1.9 6 .4.6.3 1.7-.1 2.4-.6.9-1.1 1-1.5.2-.5-.7-1.4-.7-2.9 0-1.2.5-7.6 2-14.2 3.4-20.5 4.1-35.7 7.5-36.9 8.2-.6.4-1.8.7-2.6.8-1.4 0-11.1 5.2-40.9 21.6-8.8 4.9-10 5.9-8 6.4 6.5 1.5 27.6 6 46.4 10 11.6 2.4 26 5.5 32 6.8 14.2 3.2 17.3 3.2 18.5.4.7-1.7.9-1.8.9-.5.1 1 .7 1.8 1.4 1.9q1.5 0 0 .6c-.7.2-1.3.9-1.3 1.4 0 .4.7.6 1.5.3.8-.4 1.5-.1 1.5.5s-.7 1.1-1.5 1.1c-.9 0-1.8.7-2.1 1.5-.5 1.3-1 1.1-2.8-.8-1.7-2-5.1-3-20.1-6.1-26.9-5.6-39.1-8.1-59.7-12.4-10.2-2.2-19-3.7-19.5-3.3-.4.3-2.9 7.1-5.5 15.1s-4.7 13.9-4.8 13.2c0-1.9 4.6-18 6.5-22.6.9-2.1 1.4-4 1.1-4.3-.5-.6-8.8 3.8-23.6 12.7-5.8 3.4-12.6 7.3-15.2 8.6-2.7 1.3-4.8 2.6-4.8 2.8s4.1 1.4 9.1 2.7 8.6 2.5 8 2.7c-.5.2-4.3-.6-8.3-1.6-4-1.1-9.1-2-11.3-2-4.2 0-25.7 5.1-28.8 6.9-1.1.6-2.1.9-2.3.7s1-4.2 2.7-8.8c1.6-4.6 2.8-9.1 2.7-9.9-.2-.9-4.1 2.5-10.3 8.7-5.5 5.7-10.1 10.6-10.3 11.1s1.4.5 3.5 0c6.2-1.5 10.8-2.2 10.2-1.5-.3.3-3.9 1.5-8 2.5-6.7 1.7-7.4 2.1-7.1 4.3.2 1.8 0 2-.8.8-.5-.8-1-1.1-1.1-.5 0 .5-.4.2-.8-.9-.5-1.3-2.8-2.4-7.5-3.6-6.9-1.7-8.9-1.2-6.4 1.8 1.7 1.9 4.8 9.6 4.7 11.5 0 .6-.9-1-2-3.6-1-2.6-2.9-6.2-4.1-8-1.3-1.8-2.3-3.3-2.3-3.4 0-.2-14.9 2.7-16.3 3.2-.8.3 2.1 7.1 9.3 21.5 9.6 19.1 12.5 23.7 12.5 19.5 0-.8.5-1.5 1-1.5 1.3 0 1.3 1.3-.2 2.8-.9.9-.6 1.4 1.3 2.1 1.7.7 1.9 1 .7 1-1 .1-1.8.7-1.8 1.4 0 1.4 13.2 19.5 15.6 21.4.9.6 1.4 2 1.2 3-.3 1.6-.6 1.5-1.7-.7-3-5.4-16.4-21.9-17.4-21.3-.6.4-.8-.2-.5-1.5.3-1.1 0-2.9-.7-3.9s-5.4-10.1-10.5-20.2c-5-10.1-9.3-18.1-9.5-17.9s.2 3.1 1 6.5 3.3 15.5 5.6 27c3.5 18 5.7 26.4 5.9 22.8 0-.6 1-2.1 2.1-3.5 1.7-2.1 1.6-1.7-.4 2.5-2.2 4.5-2.4 5.6-1.6 10.5 1.5 8.4 2 9 3.5 4l1.4-4.5-.7 4c-1.2 8.2-.7 10.1 5.7 19.7 3.4 5.1 7.1 9.8 8.2 10.4 1.5.8 1.7 1.3.9 1.9-.9.5-.8 1.3.6 2.8 1.8 2.2 1.8 2.2-.3.5-1.1-1-2.4-1.8-2.8-1.8-.5 0-3.8 2-7.5 4.4-3.6 2.4-8 5.1-9.8 6-1.7.9-3.4 2-3.7 2.5-.6 1 13.8 13.6 19.4 17 1.9 1.1 2.9 2.1 2.1 2.1s-5.3-3.1-10.2-7c-4.8-3.8-9.8-7.5-11.1-8.2s-2.6-1.7-2.9-2.1-3.1.2-6.2 1.4c-4 1.5-5.4 2.5-5 3.6.5 1.3.3 1.3-1.4.3-1.6-1-3-.9-7.4.3-7.2 2.1-7.8 1.3-5.1-6.7 3.1-8.9 2.8-11.4-1.4-15.6-1.9-1.9-3.8-4.6-4.1-5.9s-1.6-4.2-2.8-6.4l-2.3-3.9 2-6.7c1.1-3.6 2.6-8.6 3.3-11.1s1.8-5.8 2.4-7.4.9-3.8.5-4.9-.2-1.7.4-1.3c2.7 1.7 1.4 16.3-2.3 25.2-2 4.8-1.9 5.7.4 4.5 2.4-1.4 4.3-11.2 4.5-23.6.1-8.1.3-9.2 1.5-8 1.2 1.1 1.2 3.1.2 12-.7 5.9-1.1 10.9-.9 11.1s2.2-3.8 4.3-8.9c2.1-5 4.9-11.4 6.2-14 1.8-3.7 2.1-5.2 1.3-6.2s-.7-1.4.7-1.7c1.1-.2 2.2-2 3-4.8l1.3-4.5-.7 4.5c-1.3 9.6.3 50.7 2.1 51.7.6.3.8.3.4-.2-.4-.4-.1-1.9.6-3.4.8-1.4 2.6-7.1 4.1-12.6 1.4-5.5 3.1-11 3.7-12.2.6-1.3.8-4.3.4-7.5-.9-7.3-5.5-29-7.1-34.1l-1.4-4.2.2 5.5c.1 4.1-.3 5.6-1.4 5.8-1.5.3-3.5 5-4.7 11.2-.4 1.9-1 3-1.4 2.5-.3-.6.2-3.4 1.2-6.3 1.5-4.2 1.6-5.2.5-5.2-1.7 0-18.3 7.8-19 9-.3.4 3 1.6 7.3 2.6 4.2 1 7 2 6.1 2.2-1 .2-4.5-.4-7.8-1.3-3.4-.9-6.6-1.3-7.1-1s-2 .1-3.2-.6-5.2-1.2-8.8-1.2h-6.5l6.4-.6 6.4-.6-5.4-3.4c-3-1.9-7.3-4.7-9.7-6.3-2.4-1.5-4.5-2.8-4.8-2.8-.2 0-.2 1.2.1 2.7.5 2.5.5 2.6-.4.6-.7-1.6-1.6-2.1-2.8-1.6-1.5.5-1.6.3-.5-.8 1.9-2.1 1.4-2.9-1.9-2.9-3 0-3.1.1-2.5 3.2.4 2.4.3 2.9-.4 1.8-2.2-3.3-.6-8.2 6.7-20.8 4.2-7.1 3.6-4.1-.6 3.7-5.6 10.1-5.8 11.1-2.7 11.1 2.2 0 3.1-1.1 6.1-7 1.9-3.8 5.5-11.8 7.9-17.7 2.4-6 5.6-13.3 7-16.3s2.6-6.2 2.6-7c0-1.7-.7-.6-5.7 8.8-1.8 3.3-3.7 6.3-4.2 6.6-.5.4.2-1.5 1.6-4.1 1.5-2.7 4.4-8.4 6.6-12.7 3-6.1 4.1-7.6 4.9-6.5s.8 1 .4-.5c-.4-1.1 1.4-6 4.9-13.1 3-6.3 6-13.7 6.5-16.6 1.3-6.7 1.3-6.9-.5-6.3-1 .4-1.5 0-1.5-1 0-.9-1.1-3.4-2.5-5.6-1.4-2.3-2.8-5.5-3.1-7.3-.4-2.6-.3-2.8.5-1.1 1.3 2.9 3 3.9 3.7 2.1.3-.8-.9-3.6-2.5-6.3-1.7-2.6-3.1-5.4-3.1-6.1s-.4-1.3-1-1.3c-.5 0-.9-.3-.9-.8.3-1.8-.3-3.1-2.6-5.6-1.7-1.8-2.5-3.8-2.4-5.9q.15-3 .6-1.2c1 4.5 1.5 5.1 2.3 3 .8-1.8.9-1.8.9.6.1 2.8 2.2 7.9 3.4 7.9.4 0 .7.7.7 1.5 0 2 2.1 6.5 3.1 6.5.4 0-.1-2.6-1.1-5.8-6.4-19.7-6.2-18.9-4.5-28.6.8-4.9 1.3-9.1 1-9.4s-.5.3-.5 1.3-.3 1.6-.6 1.2c-.3-.3.1-3.6.9-7.4.9-3.7 1.9-10.6 2.2-15.3.4-4.7 1.5-11.4 2.5-15 1.1-3.6 3.3-11.4 4.9-17.4 1.7-5.9 3.3-11.1 3.7-11.5 1-.9-.5 5.4-3.3 14.2-1.4 4.3-2.3 8.1-2 8.3.3.3-.4 3-1.4 5.9-1.2 3.3-1.9 8.1-1.9 12.3 0 3.7-.4 7.2-.9 7.7-.5.6-1.4 6.2-2 12.5s-1.3 13.6-1.6 16.2c-.6 4.4.3 8.3 6.1 29.2 2.1 7.4 3.7 8.3 2.8 1.6-.3-3-1.2-7.1-1.9-9.1-1-3-.9-4 .3-5.5 1.3-1.8 1.4-1.8.7.3-.5 1.7-.3 2.2.8 1.8 1-.5 1.3.1.9 2.3-.3 2.4.5 3.6 6.1 8.5 3.6 3.1 6.8 5.7 7.1 5.7s.6-1.1.6-2.4c0-1.4.5-2.8 1.1-3.1q1.05-.75.3 3l-.7 3.8 5.7-.5c3.1-.3 5.9-.8 6.2-1.1.7-.7-1.5-7.1-5.2-15.2-3-6.4-3.1-6.9-1.9-7.4 5.9-2.1 6.1-2.2 4.1-.6-1 .8-2.3 1.6-2.9 1.8-1 .3 6.5 17.1 8.1 18.1 1 .6 2.6-2.8 3.8-7.7.9-3.9 2.9-4.8 2.1-.9l-.6 3 7.3.4c8.4.3 8.2.9 3.1-9.1-1.4-2.8-2.4-5.1-2.1-5.1.2 0 2.3 2.9 4.6 6.5s4.6 6.5 5 6.5c.5 0 1.5.3 2.3.6 1 .4 2.1-.4 3.1-2.3l1.5-2.8.1 3.1c0 2.9.5 3.4 7.9 6.7 4.4 2 8.7 4.7 9.5 5.9.9 1.2 1.7 2 2 1.7.6-.6-13-23.9-15.5-26.5-2-2.2-9.9-4.6-19.1-5.9-5.3-.8-5.5-.6-3.2 3.3 1.5 2.5 1.5 2.6-.1.7-.9-1.1-2-2.6-2.4-3.4-.6-1-1.3-1.1-3.2-.2-2.1 1.1-2.2 1.1-.6-.2.9-.8 1.7-1.7 1.7-2.1 0-1.2-8.3-10.7-10.1-11.7-1.3-.7-1.6-.5-1.4.9.1.9 0 1.1-.2.4-.7-1.8-1.1-1.6-7 3.5-6.5 5.5-7.1 6.7-4.8 9.3 2.2 2.4 1.3 2.6-2 .4-2.1-1.4-2.3-2.1-1.9-6.2.3-2.6.9-11.7 1.4-20.2l.9-15.5-.4 17.7c-.2 9.8 0 17.8.4 17.8 1.3 0 12.5-10 13.8-12.3 2.6-4.7 13.5-29.9 13.1-30.3-.3-.2-2.9 3.6-5.9 8.5-11.2 18.5-19.3 31.1-19.6 30.7-.2-.2 5.4-9.7 12.5-21.2s13.2-21.6 13.5-22.4c.4-.8 1.1-2.2 1.6-3 1.7-3 3.1-6.6 5-14 6.9-25.7 10.3-39.2 9.8-39.6-.3-.3-5.4 6.1-11.3 14.2-6 8.1-11.9 15.6-13 16.8-2.9 2.9-17.5 21.8-17.2 22.2.5.4 21-1.5 22.8-2.2 1-.3 1.2-.2.5.4-.5.6-5.9 1.5-12 2.2-6 .6-11.6 1.6-12.3 2.3-.9.7-1.2 2.4-.9 4.9.3 2.1.1 4-.3 4.3-1.1.7-2.4-6-1.6-8.1.5-1.4.1-1.6-2.6-1.1l-3.3.5 2.8-1.1c2.8-1.1 2.8-1.1 2.3-8.7-.4-6.4-.4-6.8.4-2.6.5 2.7 1.3 5.3 1.8 5.8s4.3-9.3 8.9-22.9c4.5-13.1 10-29 12.3-35.3 8.6-23.7 9-26.9 1-9.3-3 6.5-5.9 12.5-6.6 13.3-.6.8-2.6 4.6-4.4 8.3-1.7 3.8-3.4 6.7-3.6 6.4-.2-.2.2-1.7 1-3.3 3.4-7.1 5.6-12.4 5.6-13.7 0-.8.6-1.7 1.3-2 1.1-.5 2.3-2.6 8-14.2 1.3-2.8 3.8-7.7 5.4-11 1.7-3.3 3.4-7.1 3.8-8.5 1-3.6 4.5-7 6.9-7 1.9.1 1.9.2.4 1.1-3.3 1.9-3.8 4.2-2.3 10.5 2.1 8.8 1.6 9.9-.9 1.9l-2.1-6.9-5.4 14.9c-2.9 8.3-8.8 25.1-13.1 37.5s-9 25.8-10.4 29.9-2.6 8.1-2.6 8.9 2.7-2.3 6-6.9 8.6-11.5 11.7-15.2c3.2-3.8 9.8-12.1 14.6-18.5 7.3-9.6 8.7-12.1 8.3-14.2-.4-1.4-.9-4.3-1.1-6.5-.5-3.9-.5-3.9.9.8.8 2.7 1.6 5.1 1.9 5.3.4.5 5.7-7.1 5.7-8.2 0-.4 1.1-2.1 2.3-3.8 2.4-3 14.2-22 16.6-26.4l1.2-2.2-9.3.5c-11.5.6-10.4-.1 1.5-1 7.8-.6 9.1-1 11.5-3.5 1.5-1.5 7-6.5 12.2-11 11.7-10.2 22.3-20 21.5-20-.3 0-15 7.3-32.7 16.2-17.7 9-32.7 16.5-33.3 16.7-4.5 1.5 8.1-5.2 37-19.7 30.8-15.5 47.9-23.1 49.1-21.9.3.2-2.4 1.5-5.8 2.7l-6.3 2.3 3.2 1.4c2.8 1.1 27.4 7.8 32.5 8.8 1 .2 2.6-.6 3.5-1.9 1-1.2 5.2-5.3 9.3-9.1l7.5-6.9-8.2 8.5c-4.6 4.6-8.3 8.7-8.3 9.1s1.5.5 3.3.2c1.7-.2 12.4-1.5 23.7-2.9 46.8-5.6 53.3-6.5 53.7-6.9.2-.2-2.1-1.7-5.1-3.4-7.5-4.3-25.6-16.1-25.6-16.7 0-.3 1.7.6 3.8 1.9 2 1.4 9.3 5.9 16.1 10M961 318.1q1.05 1.8 0 2.4c-.5.3-1 .1-1-.4 0-2-1.9-1.1-2.6 1.1-.4 1.3-1.5 3.4-2.6 4.7-2.3 3-6 11.2-5.3 11.9.2.3 1.1-.1 2-.8 2.8-2.3 1.5-.3-2.6 4.1-4.3 4.7-7.4 10.3-6.4 12 .4.5.3 1.9 0 3-.5 1.5-1 1.8-1.8 1-2-2-2.7-1.2-2.8 3.1-.2 4.2-.2 4.2-.9-1.2-.5-3-.8-9.6-.9-14.5 0-7.4.4-10 2.4-14.5 1.3-3 2.4-5.2 2.5-4.8 0 .3 1.8-1.2 4-3.4 2.2-2.3 3.8-4.4 3.5-4.7-.3-.2-1.3.5-2.1 1.8-1.8 2.5-3.9 1.6-2.8-1.2.4-1.2 2.2-1.7 7.2-1.9 7.9-.4 9-.1 10.2 2.3m-5.1 59.9c-1.1 5.2-2.8 14.1-3.9 19.7-2 10.8-4.5 21.2-5.3 22-1.2 1.1.4-10 1.8-12.7.9-1.7 1.5-3.8 1.3-4.7-.4-2.1-9.8 6.2-9.8 8.8 0 1.2-.5 1.6-1.5 1.3-1.2-.5-1.5.5-1.5 5.4 0 6.8 1.4 8.8 3.1 4.5 3.8-9.2 5.1-10.3 2.9-2.3-1.2 4.3-9 10.3-8.6 6.7.1-1.2-8.5-8.7-9.9-8.7-.3 0-.5.6-.5 1.4 0 2-2 7-2.5 6.4-.3-.3.6-4.3 2-8.9s2.4-9.5 2.3-10.9c-.3-2.3-.5-2.1-3 2-3.4 5.5-3.7 4.7-.5-1.2 3.2-6 5.1-8.8 5.8-8.8.3 0 .5 2 .4 4.5-.1 3.4.1 4.2 1.1 3.4.8-.7 2.3-.6 4.7.5 3.5 1.4 3.6 1.4 9.1-2.7 3-2.2 5.3-4.4 5-4.9-.3-.4-2.9-.9-5.7-.9-2.9-.1-4.2-.4-2.9-.6 1.7-.3 2.2-.9 1.7-2.1-1.3-3.2-1.6-7.2-.6-7.2.7 0 .7-.8.2-2.2-.6-1.6-.2-3.2 1.3-5.5 2.5-3.9 4.6-4.3 4.6-.8 0 1.5.5 2.4 1.3 2.2.8-.1 1.2 1.4 1.2 5 0 11.1 4.4-2.1 4.6-14 .1-3.1.6-5.7 1-5.7.5 0 1-2.6 1-5.8l.2-5.7.7 6.5c.6 4.9.3 8.8-1.1 16M678.5 532.8c.8 1 3.8 1.3 11.7 1 5.8-.2 10.4 0 10.1.4-.2.5-3 .8-6.1.8-3.4 0-5.2.4-4.6.9 1.4 1.4 21.4 5.2 29.1 5.5 3.8.2 8 .8 9.4 1.4 1.5.6 5.7 1.4 9.5 1.7 6 .7 6.7.6 5.6-.8-1-1.2-.9-1.5.6-1.9.9-.3 2.3.1 3 .8 1.4 1.6 5.1 1.4 30.8-1 8.9-.9 19.4-2.3 23.3-3.1 4-.8 7.5-1.5 7.9-1.6.4 0-.2-.4-1.3-.9s-4.8-.9-8.2-.9c-3.4-.1-6.5-.6-6.9-1.2q-.6-1.05 1.2-.6c1.1.3 7.6.9 14.5 1.3l12.5.7 2.2-3.4c1.2-1.9 2.2-2.9 2.2-2.2 0 .6-.4 1.5-1 1.8-1.5.9-1.2 2.5.5 2.5 1 0 .8.6-.8 2.3-1.2 1.3-2.5 2.2-2.9 2s-2 .4-3.5 1.4c-2.6 1.6-17.8 12.8-19.6 14.3-.5.5-.4 1.8.3 3.1 1 2.2 1 2.2-.3.6-1.4-1.6-1.8-1.6-8.3.4-3.8 1.2-7.8 2.6-8.9 3-2.4 1.1-21.1 5.4-27.5 6.4-2.5.4-4.8 1.3-5.2 1.9-.6.8-.8.7-.8-.2 0-.6-1.2-1.2-2.6-1.2-3.8 0-27.8-5.7-36.1-8.6-7-2.5-7.2-2.5-10-.7-2.5 1.6-2.7 1.6-1.4.1 1.1-1.5 1-2.1-.5-4.2-1.9-2.5-15.9-14.6-16.9-14.6-.3 0-1.7-1.2-3-2.6-1.8-2-2.2-3-1.5-4 .8-.8.8-1.4 0-1.9-.5-.3-1-1.1-1-1.7 0-1.1 2.7.7 4.5 3m-444 27.3c3.4 3.7 3.9 4.4 1.5 2.4-1.9-1.7-4.1-3.6-4.7-4.4-1.1-1.3-1.3-1.1-1.2 1 .1 6.7 1.4 10.3 3.9 11l2.5.7-2.5.1c-2.3.1-2.5.5-2.7 5.4-.1 2.8-.5 6.8-.9 8.7l-.6 3.5 3.4-3.5c7.6-7.7 11.8-11 5.3-4-3.8 4-7.7 7.9-8.5 8.6-1.2 1-.7 1.9 3.6 6.1 5.3 5.2 20 17.6 21.2 18 .4.2 2.2-2 4.1-4.7 1.9-2.8 3.6-5 3.8-5s-.6 1.8-1.7 4.1c-1.2 2.3-1.9 4.3-1.6 4.6.3.4 2.9-.6 5.7-2.1 2.9-1.4 5.4-2.4 5.7-2.1.3.2-2.2 1.7-5.4 3.1-7.3 3.3-7.3 3.3-5.2 4.8 1.4 1 1 1.2-2.3 1.1-2.6 0-3.8-.4-3.5-1.2.3-.7-.9-2.2-2.7-3.5-1.8-1.2-3.4-2.5-3.7-2.9-1.5-1.9-15.4-12.9-15.8-12.4-.3.2.1 1.2.9 2.2 1 1.2 1 1.5.1.9-2.8-1.7-5.2-9-4.9-15.2.1-3.4.5-6 1-5.7 1.8 1.1.4-18.8-1.9-26.2-.6-1.7-.5-1.7.7-.4.8.9 3.7 4 6.4 7M665.3 571c.9 1.1 2.9 2 4.4 2.1 2.3 0 2.5.2.9.8-1.5.6-.5 1.5 5.5 5.1 4.1 2.3 9.2 5.5 11.4 7 4.1 2.7 21.1 12 22 12 .3 0 .5-.8.6-1.8 0-1.3.3-1.2 1.2.6 1.1 2.4 2.3 2.5 7.2.7 1.6-.5 1.7-.5.5.4-.8.5-1.2 1.2-1 1.4.3.3 6.7.8 14.3 1.2 10.6.6 13.7.5 13.7-.5s.3-1 1.5 0 4.8 1.1 15.3.6c15.8-.7 19.2-1.3 19.2-3.2 0-.8.5-1.4 1.1-1.4.5 0 .7.4.4 1-1.9 3 8.5-1.2 20.8-8.3 3.7-2.2 7-3.7 7.3-3.4.8.8-21.3 12.9-25.5 14-1.2.3-2.5 1.5-2.8 2.6s-.9 1.8-1.4 1.5c-1-.6-4.1.9-6.1 2.9-.7.8-3.6 3.1-6.4 5.3-16.7 12.8-20.4 16-20.4 17.1 0 .7-.7 1-1.5.7s-3.6.6-6.2 2.1q-6.6 3.6 1.2-2.1c1.9-1.5 1.9-1.6-2-5-2.2-2-8.2-6.8-13.4-10.7-5.2-4-11.1-8.4-13-9.9-5.9-4.5-10.3-7.3-16.6-10.7-3.3-1.8-10.7-6.1-16.4-9.7-5.7-3.5-10.7-6.4-11.1-6.4-.5 0-1.1.6-1.3 1.2-.4.8-.6.7-.6-.4-.1-.9-.5-1.8-.9-2s-1.8-1.8-3.1-3.6c-2.4-3.5-1.6-4.4 1.2-1.2m538.9 104.5c1.1 1.4 2.3 2.3 2.7 2 .5-.2 1.3.7 2 2.1 1.6 3.5 1.3 5.4-.4 2.4-.8-1.4-1.4-2.1-1.5-1.6 0 1.7 2.4 9.1 3.3 10.1.7.7.8.6.3-.3-.4-.7-.1-1.5.7-1.8.7-.2 2.4-3.8 3.7-7.9 1.8-5.7 2.8-7.5 4.1-7.5 1.6 0 1.5 1-1.5 9.2-1.8 5.1-3.6 10.9-4 12.9-.6 3.1-.9 3.6-3 3.2-2-.4-3-2.2-6.5-11.8-2.3-6.2-4.1-11.7-4.1-12.4 0-1.9 2.1-1.2 4.2 1.4m20.5 6-.4 2.6 1.9-2.1c2.2-2.4 4.4-2.5 7.8-.5 1.4.8 3.2 1.7 4 2.1s2.3 1.3 3.2 2.1c1.4 1.3 1.8 1.2 2.8-.6 1.5-2.9 6.7-5.4 9.6-4.7 1.3.4 4.4 1.9 6.9 3.4 5.9 3.5 7.6 8.1 5 13.5-.9 1.9-2.4 3.8-3.3 4.2-1.1.4-.8-.3.8-2 3.1-3.3 3.3-9.4.6-12.4-1.1-1.2-2.1-1.9-2.4-1.6s.2 1.3 1 2.2c.9 1 1.8 2.9 2.1 4.3.6 2.3.5 2.2-.5-.3-1.4-3.1-2.8-3.6-2.8-.8 0 2.5-4 7.3-5.6 6.7-.8-.3-1.1 0-.7 1 .9 2.3 5 1.6 7.2-1.2 1.2-1.5 2.1-2.3 2.1-1.8 0 1.6-4.4 5.4-6.2 5.4-1.1 0-2.9-.5-4.1-1.2-2-1-2.1-1-.8.5 2.3 2.9.4 1.9-5.1-2.6-4.5-3.6-5.8-4.2-8.3-3.6-1.6.4-2.5.7-2 .8.6.1-.3 1-2 2.1-2.4 1.6-2.6 2-1.3 2.5 1 .4 3.1-.1 4.7-1.1 1.7-1 3.3-1.5 3.7-1.1.9.8-2.5 4.7-4 4.7-.6 0-.3-.5.7-1.1.9-.5 1.7-1.4 1.7-2 0-.5-1.1-.2-2.5.7-1.6 1-3.4 1.4-5.1 1-1.8-.5-2.4-.3-1.8.5.9 1.5-.7.6-5.4-2.9-2.2-1.7-3.1-3-2.7-4.1.3-.8.3-1.2-.1-.9-.3.4-1.2.2-1.8-.5-1.3-1.3-2.8-6-1.7-5.3.3.2 1.5-1.6 2.6-4 2.2-5 3-5.6 2.2-1.9"/><path d="M758 57.5c0 1 9.4 16.5 18.4 30.5 14.8 23 16.7 25.9 18 26.9.9.8 4.1-.9 12.3-6.7 20.5-14.3 24.8-17.4 25.6-18.8.4-.8 1.5-1.4 2.4-1.4 1.5 0 1.4.2-.1 1.9-1.5 1.6-1.5 1.9-.1 3.1 1.2 1 1.3 1.6.4 2.6-1.5 1.8-2.9 1.8-2.9-.1 0-2.9-3.2-1.6-11.3 4.7-11.4 8.7-15.7 11.8-16.5 11.8-.4 0-2.1 1.3-3.7 3l-2.9 3h5.2c4.9 0 5.2-.1 5.2-2.5 0-2.3.2-2.5 2.1-1.4 1.7.9 1.9 1.3.8 2-2.1 1.4.6 2.7 6.6 3.3 2.7.3 8.8.9 13.5 1.4s8.9.7 9.4.4c.9-.5.2-10.9-1.5-20.7-.5-3.3-.9-7.1-.9-8.4 0-3.4-3.6-6.9-8.4-8.2-2.3-.6-5.9-1.9-8.1-2.9-3.9-1.9-6.4-2.8-28.5-11-13.5-4.9-31-11.5-33.2-12.5-1-.4-1.8-.4-1.8 0M745.3 76.8c-5.1 10.3-10.6 21.1-12.2 24-3.4 6.1-4.8 9.7-3.3 8.8 1.1-.7 3.1 1.4 2.9 2.9-.1.5 1.9 1.1 4.6 1.3 2.6.2 4.5.7 4.2 1.3-.4.5.3.9 1.4.9 1 0 2.2-.6 2.4-1.3q.6-1.5.6 0c.1 1 2.6 1.2 9.9 1.1l9.7-.2-9.5-.6-9.5-.6 12-.2c8.6-.1 11.6.1 10.5.9-1.1.7 1 .8 7 .3 9.6-.7 10-.8 10-3.2.1-1.5.2-1.5 1.5.2 1 1.4 1.5 1.5 1.4.5-.1-2.2-5.5-10.4-6.7-10.2-.6.2-.9-.4-.6-1.2.3-.7-.7-3.3-2.3-5.7-1.5-2.4-3.3-5.2-4-6.3s-4.3-7-8.1-13c-3.8-6.1-7.9-12.7-9.1-14.8-1.2-2-2.6-3.7-2.9-3.7-.4 0-4.9 8.5-9.9 18.8M676.8 87.7c0 .4-.2 1.9-.3 3.3s-.8 8.5-1.5 15.8-1.1 13.4-.9 13.5c.6.5 20-.9 34.1-2.4l11.6-1.2-2.6-2.2c-1.5-1.2-4.9-3.7-7.6-5.6s-7-4.9-9.5-6.7c-4.2-3-18.9-12.8-21.8-14.6-.7-.4-1.4-.4-1.5.1M698.5 120.6c-25.8 2-24.1 1.4-24.9 7.7-1 8.8-.7 35.9.4 35.2.6-.4.7-1.1.4-1.7-.4-.6-.2-.8.4-.4.6.3 9.1-7.5 19.4-17.7 20.9-20.9 24.5-24.8 23.2-24.6-.5.1-9 .8-18.9 1.5M802.8 122.8c-1.1 1.3.1 3.3 4.7 7.7 1.2 1.1 4.5 4.7 7.4 8 3 3.3 9 9.8 13.5 14.5s9.3 9.9 10.6 11.7l2.5 3.2-.2-20.7c-.2-11.4-.3-21.2-.3-21.9 0-2.7-36.1-5.2-38.2-2.5M650 133.3c-11.3 5.5-20.7 10.2-20.9 10.3-.5.5 3 4.4 3.9 4.4.4 0 6.3 3 13.1 6.6 6.8 3.7 14.9 8 17.9 9.6l5.5 2.9.8-14.3c.4-7.9.6-17.7.5-21.9l-.3-7.6zM844 146.4c0 11.7.3 21.6.7 21.9.3.4 2-.2 3.7-1.2s5.6-3.2 8.7-4.8c3-1.6 7.5-4.3 10-6 2.4-1.6 6.9-4.3 9.9-5.9 8.9-4.7 10.3-3.2-16.5-17.1-6-3.2-12.2-6.3-13.7-7l-2.8-1.2zM630.7 156.4c1.9 5 4.3 11.3 5.3 14.1 4.7 13.1 6.9 18 7.7 18 1.1 0 3.8-1.9 12.4-8.7 3.2-2.6 7.2-5.5 8.9-6.4 1.6-1 3.1-2.3 3.4-3 .6-1.5-8.1-6.9-23.3-14.7-6.3-3.1-11.9-6.1-12.5-6.6-.6-.4-2-1-3.2-1.3-2-.5-1.9-.1 1.3 8.6M625 153.2c0 3.9-4.1 42.4-5.6 52.7l-.7 4.4 4.8-3.7c2.7-2 7.9-6.5 11.6-10l6.8-6.4-2.9-7.8c-9.8-26.3-12.7-33.4-13.5-33.4-.3 0-.5 1.9-.5 4.2M880.5 150.2c-1.1.6-5 3.1-8.7 5.5-3.7 2.3-7 4.3-7.3 4.3s-3 1.6-6 3.5c-3.8 2.4-5.3 3.9-4.9 5 .4.8.2 1.5-.4 1.5s-1.2-.5-1.4-1.1c-.3-.8-1.4-.6-3.7.5-3.7 1.9-3.3 3.1 2.5 7 1.7 1.1 6.6 4.7 10.8 7.9 7.6 5.8 9.6 6.3 9.6 2.6 0-1 .4-2.7 1-3.7 2.2-4.1 5.3-12.8 7.3-20.7.3-1.1 1.5-4.5 2.6-7.5 1.2-3 2.1-5.6 2.1-5.7 0-.6-1.6-.2-3.5.9M883.3 155.7c-1.8 6.3-10.3 30.7-11.3 32.5-.6 1-1 2.3-1 3s4.4 5.4 9.7 10.5c11.7 11 11.2 11.5 8.9-11.1-.8-8.3-1.8-18.7-2.1-23.1-.7-10.5-1.5-15.5-2.4-15.5-.4 0-1.2 1.7-1.8 3.7M665.5 175.6c-3.1 1.6-11.2 7.5-15.5 11.4-1.4 1.2-3.4 2.8-4.4 3.6-1.9 1.3-1.9 1.6 1.8 13.4 2.1 6.7 3.5 12.4 3.2 12.7s-.7 0-1-.8c-5.4-17.9-6.8-21.9-8-21.9-.8 0-5.8 4-11.2 9-5.3 4.9-10 8.7-10.4 8.5s-.7.3-.7 1.1c0 1.6 0 1.6 13.2 3.9 5 .9 11.2 2.1 13.8 2.7s4.9.9 5 .7c1.4-2.2 4.5-10 6.7-16.9 3.1-9.6 6.2-17.5 9.2-23.8 1.2-2.3 1.9-4.4 1.7-4.7-.3-.2-1.8.3-3.4 1.1M846.4 177.3c.2.6 1.2 3.7 2.1 6.7 3.7 12.5 10.7 33 11.4 33.4 1 .7 9.4-23.3 8.7-25-.3-.7-3.3-3.3-6.7-5.8-3.3-2.4-7.5-5.5-9.1-6.8-3.9-3-7.2-4.3-6.4-2.5M668 180.5c0 .9-1.2 4.4-2.6 7.8-4 9.4-10.3 27.7-9.6 27.7.3 0 .1.5-.6 1.2-1.6 1.6-1.5 4.8.1 4.8.7 0 3.7 1.6 6.6 3.5 3 2 5.6 3.4 5.8 3.1.5-.5 2.2-33.4 2.3-43.4 0-3.5-.4-6.2-1-6.2-.5 0-1 .7-1 1.5M844 205.1v24l2.3-.7c3.4-1 9.3-4.2 11-5.8 1.6-1.7.6-5.7-7.5-27.6-2.1-5.8-3.8-11.3-3.8-12.3 0-.9-.4-1.7-1-1.7s-1 8.7-1 24.1M839.5 184.2c-.6.6-1 2.8-.8 4.7.1 2-.1 2.6-.3 1.3-.6-2.7-4.4-3.1-4.4-.5 0 2.2-5.1 4.8-6.1 3.2-.4-.8-1.4-.6-3.1.5-3.1 2-5.1 5.6-4.6 8.4.1 1.2-.1 2.1-.7 2.1-.5 0-1.3 1.5-1.7 3.3s-1 4.5-1.3 5.9c-.9 3.3 1.9 6.3 4.9 5.4 5.8-1.8 6.9-1.8 6.3-.1-.5 1.2.1 2 1.8 2.8 1.8.8 2.5 1.9 2.5 3.9 0 1.5-.6 3-1.2 3.2-.7.3 1.3.6 4.4.6l5.7.1.7-5.6c.3-3 .4-12.1 0-20.2s-.7-15.9-.7-17.5c0-3 0-3-1.4-1.5M683.3 195.5c-1.8 1.9-1.6 4.5.2 4.5.8 0 1.5.7 1.5 1.5s.7 1.5 1.5 1.5 1.5-.7 1.5-1.5-.5-1.5-1.2-1.5c-.6 0-.9-.2-.6-.5 1.1-1.1 3.8.8 3.8 2.6 0 1.6-.8 1.9-5 1.9-4.3 0-5-.3-5-2 0-1.6-.6-1.9-3.8-1.7-3.4.2-3.8.5-4 3.1-.2 1.8.5 3.6 1.8 4.8 2.8 2.7 3.4 6.1 1.6 10-.8 1.8-1.7 4.4-1.9 5.8s-.5.1-.6-2.8c0-2.9-.6-5.2-1.1-5.2-.7 0-1 2.4-.8 6.2l.3 6.2 4.8.3c3.5.2 4.7 0 4.7-1.1 0-1.7 5-3.6 9.5-3.6 2.6 0 3.5-.6 5.1-3.5 2.1-3.9 4.4-5.3 4.5-2.7q0 1.95.9-.6c.8-2 2.1-2.7 4.3-2.3.4 0 .7-.4.7-.9 0-.6-1-1-2.2-1-1.7 0-1.9-.3-1-1.2 1.8-1.8 1.4-3.7-.8-3.5-1.1.1-2 .5-2 .9s-.4.8-1 .8c-.5 0-1-.7-1-1.6 0-1-.6-1.4-1.5-1-1 .4-1.5-.1-1.5-1.4 0-1.1-.7-2-1.5-2s-1.5-.9-1.5-2-.4-2-1-2c-.5 0-1-.9-1-2 0-2.2-1.5-2.7-2.4-.8-.3.7-.3.3 0-1 .4-1.7.1-2.2-1.3-2.2-1 .1-2.4.7-3 1.5M619.1 219.7c.5 2.1 1.6 8.2 2.5 13.5.9 5.4 2 9.8 2.5 9.8.8 0 10.1-7.3 13.8-10.8 1-.9 3.9-3.4 6.4-5.5 2.6-2.1 4.7-4.2 4.7-4.6 0-1-23.3-6.1-27.6-6.1-3.1 0-3.1 0-2.3 3.7M653.9 230.2c-.2 7.1.2 23.2.6 23.6.2.2 1.3-1.7 2.6-4.1 7.6-14.1 9.2-17.6 8.6-18.9-.5-1.4-8.6-5.8-10.7-5.8-.5 0-1.1 2.4-1.1 5.2M850.7 228.6c-3.9 2.4-5.5 4-4.9 4.8.5.6 1.9 3.8 3.1 7.1 2.8 7.2 6.4 14.5 7.2 14.5.3 0 .9-4.2 1.3-9.3.3-5 .8-11.8 1.1-15 .5-6.9 0-7-7.8-2.1M689.8 231l-17.7.5 3.7 5.2c2 2.9 5.7 7.8 8.2 11 2.5 3.1 9.4 12 15.4 19.8 16.3 21.1 16 20.9 17 12.7.3-2.6 1-9 1.6-14.2 1.6-13.5 4-31.1 4.5-33.8.6-2.5 4.3-2.4-32.7-1.2M726.7 231.7c-.7 1.3 15.5 51.1 17 52.2.5.3.9 2.3 1 4.3.3 4.6 4.2 17.8 5.3 17.8.6 0 8-14.3 8-15.6 0-.2 3.4-7.6 7.5-16.4s8.6-18.8 9.9-22.2c1.3-3.5 3.6-8.8 5-11.8 4.6-9.7 6.5-9-25.3-9-15.4 0-28.2.3-28.4.7M788.4 235.7c.6 5.1 1.9 17.4 3.7 34.3.6 5.7 1.6 11.5 2.3 12.8 1.2 2.3 1.3 2.2 7.3-4.5 3.3-3.7 8.3-9.5 11-12.8s5.8-6.7 6.8-7.5 5.1-5.6 9-10.5c4-5 8.2-10.1 9.4-11.4 1.1-1.3 2.1-2.7 2.1-3.1 0-1.1-15-2-34.3-2h-17.8zM723.5 242.2c-.3 4-1 9.8-1.5 12.8-5.6 33.8-5.6 33.7 1.9 37.9 2.7 1.5 5.4 3.5 12.1 8.8 1.5 1.3 3.1 2.3 3.5 2.3.5 0 2.3 1.2 4.2 2.6s3.6 2.4 3.9 2.1c.2-.2-.7-4-2-8.3s-3.9-12.9-5.7-18.9c-1.7-6.1-4.7-15.1-6.5-20-1.8-5-4.3-12.6-5.5-17-1.1-4.4-2.5-8.4-2.9-8.8-.4-.5-1.1 2.4-1.5 6.5"/><path d="M784.3 237.3c-4.2 8.8-10.3 22.8-10.3 23.5 0 .4-1.6 3.8-3.6 7.7-3 5.8-7.5 15.5-13.6 29.5-.6 1.4-1.9 4.2-3 6.3s-1.8 4-1.5 4.3c.2.2 6.8-2.7 14.7-6.6 7.8-3.9 14.4-6.9 14.6-6.7s-6.2 3.7-14.4 7.8c-8.1 4.1-14.6 7.9-14.6 8.4.1.6 3 2.4 6.5 4.2 7.8 3.8 7.4 4.2-.9.8-3.4-1.4-6.4-2.5-6.7-2.5-1.1 0-.4 3.2 1.4 6.9 1.1 2 2.9 6.6 4.1 10.2 1.2 3.5 3.3 8.7 4.6 11.5s2.4 5.6 2.4 6.2.8 1.6 1.8 2.1c1 .6 3 2.6 4.3 4.5 2.9 4.3 3.5 4.4 4.2.9.7-3.9-.2-5.6-2.9-5-4.4.8-2.4-.8 5.2-4.3 9.5-4.3 15-9.3 15.9-14.3.4-2.1.3-3.7-.1-3.6-.5.1-3-.1-5.6-.5l-4.8-.8-6.3 6.3c-3.4 3.5-7.1 7.6-8.2 9.1-2 2.8-3.5 3.6-3.5 1.9 0-.5 3.4-4.6 7.6-9 4.2-4.5 7.5-8.3 7.3-8.5-.2-.1-2.3-1.3-4.6-2.6-5.4-3-4.9-3.6.8-1.1 4.8 2.2 5.9 2 5.9-1 0-2.1 4-12.2 4.6-11.6.2.2-.5 3.1-1.5 6.5l-1.9 6.1 3.4-1.4c1.8-.7 7.7-3.7 13.1-6.6 16.9-9 20.1-10.7 21.5-11.2 2.1-.8-1.5-3-11.6-7.3-5-2.1-10.2-4.5-11.4-5.3-1.9-1.2-2.5-1.2-3.2-.1-.4.7-1.5 1-2.3.7s-2.7.1-4.2.9c-1.6.8-3.3 1.3-3.9 1.1s.9-1.4 3.4-2.7c5.6-2.8 5.9-3.4 4.9-7.9-.4-2-1.9-13.7-3.3-26-1.5-12.4-2.8-22.6-2.9-22.8-.2-.1-.8.7-1.4 2M843.5 239c.5 2.5.3 3.1-.4 2-.8-1.2-1.3-.8-2.5 2-.8 1.9-1.7 5.3-2.1 7.5s-1.4 5.2-2.1 6.7c-2 4-1.8 4.3 3.1 4.4 2.5.1 5.1.6 5.7 1.1.9.7 2.6.5 5.6-.8 4.4-1.9 5.3-3.8 2.7-5.9-.9-.7-2.6-3.6-3.9-6.4s-3.3-7.1-4.5-9.6c-2.1-4.4-2.1-4.4-1.6-1M637.4 272.8c-5.1 3.7-12.7 9.4-17 12.6-4.4 3.3-9.4 7-11.1 8.3-1.8 1.3-3.3 2.8-3.3 3.3s2.6 1.1 5.8 1.5c15.1 1.5 13.4 1.8 16.2-2.6 1.3-2.1 2.8-3.9 3.2-3.9s.8-.4.8-.8c0-.5 3.4-5.9 7.5-12.1 6.4-9.6 8.4-13.2 7.3-13.1-.2 0-4.4 3.1-9.4 6.8M858.1 279.1l-.2 13.4 10.6 3.7c5.8 2 10.5 3.4 10.5 3.1 0-.8-7.5-13.2-14.3-23.7l-6.4-9.8z"/><path d="M820.5 279.6c-9.3 4.4-18.7 8.4-21.1 9-2.5.6-1.5 1.3 9.6 6.6 6.8 3.2 12.7 5.5 13.2 5 .4-.4 1.1-2.8 1.4-5.3.3-2.4.9-6.2 1.3-8.4.7-4.4.4-8.5-.7-8.4-.4 0-2 .7-3.7 1.5M694.3 284c-.3 1.1-.9 2-1.3 2-1.8 0-7 5.6-7 7.5 0 1.7.2 1.8 1.1.5.9-1.2 1-1.1.6.7-.3 1.5-.1 2 .9 1.6.8-.3 1.4 0 1.4.6 0 1.7 2.9 1.3 8.4-1.3 2.8-1.3 7.1-3.2 9.5-4.2l4.4-1.8-5.3-2.4c-3-1.3-5.8-2.4-6.4-2.5s-1.7-.8-2.4-1.5c-1.9-1.8-3.3-1.5-3.9.8M706.7 294.4c-8.7 2.9-9.5 3.7-7.9 7.8.6 1.7.9 3.4.6 3.7-.8.8-3.4-2.9-3.4-4.7 0-1-.7-1.2-2.7-.7-4 .9-5 2.2-3.3 3.9 1.3 1.3 13.7 9.2 27.4 17.6l3.9 2.4-.7-5.5c-.3-3-.8-7-1.1-8.9l-.5-3.5 1.1 3c.6 1.6 1.5 5.6 1.9 8.9.4 3.2 1.2 6.2 1.7 6.7.9.9 23.4-11 24-12.7.4-1.2-17.5-13.4-19.7-13.4-.8 0-3.1-1.4-5-3s-3.8-3-4.2-3c-.5 0-.9 2.1-.9 4.7l-.1 4.8-1-5.3c-.5-2.9-1.5-5.2-2.1-5.1-.7.1-4.2 1.1-8 2.3M662.6 298.5c.4 1 0 1.5-1 1.5-2.2 0-.9 2.5 3.6 7.3 2.7 2.8 4.3 3.5 8.7 4 3 .4 5.9 1.1 6.5 1.7.5.5 2 1 3.2 1 1.8 0 2.1-.6 2.1-4.5 0-5.3.1-5.3-12.4-9.5-10-3.4-11.5-3.6-10.7-1.5M687.2 309c0 1.6.4 3 .9 3s.9.8.9 1.8c0 .9.8 2.2 1.9 2.7 15.9 8.4 18.6 9.5 24 9.5h5.5l-15.4-9.6c-8.5-5.3-16-9.8-16.6-10.1-.6-.2-1.1.9-1.2 2.7M814.5 309.8c-2.7 1.6-10.8 5.9-18 9.7-7.1 3.8-12.4 7-11.7 7.3 2.5.8 12.2-.9 13.7-2.4.8-.9 1.5-1.2 1.5-.7 0 .4.5 0 1.1-1 .5-.9 1.9-1.7 3-1.7s3-.9 4.2-2 3.8-2.5 5.8-3.1c2.6-.8 4.1-2.1 5.3-4.6 2.5-5.3 2.3-5.4-4.9-1.5M742 318.1c-3 1.6-7.4 3.8-9.7 4.9s-4.9 3-5.7 4.2c-1.4 1.9-1.3 2.3.3 4.4 1 1.3 2.8 5 4.1 8.4 1.2 3.3 2.5 6 2.9 6 .3 0 1.4-1.7 2.3-3.8 3.9-8.3 6.8-15.5 6.8-16.6 0-.6 1.4-2.7 3-4.6 5.1-5.9 3.7-6.9-4-2.9"/><path d="M746 323.2c0 .7-2 5.7-4.4 11-2.4 5.4-4.7 11.1-5.1 12.8l-.7 3.1 5.5-.3c5-.3 5.6-.5 6-2.8 1-5.1.8-23.8-.3-24.5-.5-.3-1 0-1 .7M750.7 323.7c-.9 1.4-.8 25.3 0 25.4 1.2.2 4.6.2 7.2.1 2.1-.2 2.3-.5 1.6-4-1.4-8-6.5-22.2-8-22.2-.2 0-.6.3-.8.7M717.5 327.7c-1.6.2-4.8.6-7.1.8l-4.1.6 4.4 4.7c2.5 2.6 6.3 6.6 8.6 9l4.2 4.3.6-6.8c.5-6.7.9-5.8 1.4 3.7.1 1.6.7 3.5 1.3 4.3.7.8 1.1 3.4 1.1 5.8-.2 10-.4 13.9-.9 13.9-.3 0-.6 2.7-.6 6-.1 3.3 0 5.9.2 5.8.1-.2 1-4.1 1.9-8.8s2.3-11.3 2.9-14.8c1.3-6.1 1.2-6.4-2.2-14.9-1.9-4.8-4.1-9.3-4.8-10.1-.8-.7-1.2-1.7-.9-2.2.4-.6-2.2-2.4-2.8-1.9-.1.1-1.5.4-3.2.6M764 354.1c0 .5.4 2.9.9 5.2s1.6 7.9 2.5 12.4c6.5 34 7.1 34.5 4.6 4.1-.6-6.4-.8-12.3-.5-13 .3-.8-.8-3.3-2.5-5.6-2.9-4-5-5.4-5-3.1M762.5 386.2c-1 28.7-1.1 58.8-.1 58.8.9.1 4.5-7.8 8.2-18l2.3-6.5-2.1-.5c-3.3-.8-3.4-2.9-.1-2.7 2.8.2 2.8.1 2.5-4.8-.1-2.8-1.6-10.4-3.1-17-1.6-6.6-3.7-15.5-4.6-19.8-.9-4.2-1.8-7.7-2-7.7-.1 0-.6 8.2-1 18.2M729.3 378.7c-.7.3-1.3 2-1.3 3.9s-.9 6-2.1 9.2c-2.3 6.4-5 20.9-4.2 22.9.3.7 0 1.3-.5 1.3-1.1 0-.7 4.4.6 6.4.3.6.7 1.7.8 2.4.2.7 1.4 4.2 2.8 7.8 1.4 3.5 2.6 7.3 2.6 8.3s.8 2.9 1.9 4.2c1.9 2.3 1.9 2.3 2.6-11.1.9-17.8.3-53.6-1-54.8-.5-.5-1.6-.7-2.2-.5M776.5 387.4c-.9 3.4.1 25.6 1.2 26.7.7.6 21-1.4 21.7-2.2.2-.2.7-1.8 1-3.5.6-2.7.3-3.5-2.6-5.9-2-1.7-2.8-3-2-3.2.6-.3 1.2-.9 1.2-1.5s-.6-.8-1.4-.5-2.5-.3-3.7-1.4-3.2-2.2-4.4-2.5c-1.1-.3-2.5-1.5-3-2.7-.6-1.3-2.1-2.3-3.7-2.5-1.5-.2-2.9-1.1-3.1-2-.3-1.2-.6-.8-1.2 1.2M622.1 389.2c1.4 1.3 2.9 3.1 3.2 4 .4 1 1.1 1.8 1.7 1.8.5 0 1 .6 1 1.3 0 1.9 4.5 5.9 5.5 5 .4-.5.6-.3.2.2-.3.6 1 3.1 2.9 5.4 1.9 2.4 3.4 3.8 3.4 3.1s.3-1.1.6-.7c.9.9 3.6-2.1 2.9-3.2-.3-.5-.1-1.2.5-1.6.5-.3 1-1.6.9-2.8-.1-2-.2-2-.8.3-.5 1.8-.9 2.1-1.5 1.2-.4-.7-.5-1.6-.2-1.9.3-.4-.3-1.2-1.4-2s-2-2.2-2-3.2c0-1.6-1.1-2-6.5-2.6-4.5-.4-6.5-1.1-6.6-2.1-.1-.8-.2-2-.3-2.7 0-.6-1.4-1.3-3.1-1.5l-3-.2zM618.6 397.5c.4 3.8 1 7.8 1.3 8.8.7 1.9 13.3 7 16 6.5 1.5-.3-3.2-6.5-12.4-16.3l-5.6-6zM661.5 414.2c-9.3 1.1-17.2 2.2-17.4 2.5-.5.3 2.3 5.6 4.1 7.8.5.5 2.4 3.1 4.4 5.7 1.9 2.7 3.8 4.8 4.2 4.8.7 0 2.6-1.7 16.6-14.6 5.8-5.5 8.1-8.6 5.9-8.3-.5.1-8.4 1-17.8 2.1M816.1 414.3c.2.2 5.9 5.6 12.6 12.1l12.1 11.8 6.2-9.2c3.4-5 5.9-9.4 5.6-9.7s-7.6-1.6-16.3-2.9c-14.5-2.2-21.3-2.9-20.2-2.1"/><path d="M718 425.5c-.1 2.2-.7 5.8-1.5 8s-2.4 7.7-3.5 12.3c-1.2 4.6-3.2 10.7-4.5 13.5-1.3 2.9-2.6 6.1-3 7.1-.3 1-.8 1.6-1.1 1.4-.3-.3.6-3.3 1.9-6.6 1.4-3.3 3.3-9.5 4.2-13.9.9-4.3 2.1-9.6 2.7-11.8 2.6-10.5 2.5-10.5-3.2-4.2-2.9 3.2-6.4 7.5-7.8 9.5-1.3 2-2.8 3.9-3.2 4.2s-4.1 5-8.3 10.5-8.1 10.6-8.8 11.3c-.8 1-.4 2.2 1.8 5 1.5 2 4.4 6.2 6.4 9.2 6.1 9.5 6.2 9.5 9.9-2 1.8-5.5 3.5-9.9 3.7-9.7s-1 5.6-2.7 11.9l-3 11.5 2.6 13.9c1.5 7.7 2.6 15.4 2.6 17.1 0 1.8.4 3.3.8 3.3.9 0 2.3-1.9 2.6-3.5.3-1.3 2.5-10.1 6.9-27 4.3-16.6 5-26.2 2.1-29.4-2.4-2.7-1.6-2.7 1.4-.1 1.9 1.6 2.6 1.8 3.8.7 1.3-1 1.4-.9.8.1-.9 1.5 2.6 7.7 6.2 10.9 2.9 2.7 2.3 2.9-1.9.8-1.6-.9-2.9-2.1-2.8-2.8.3-2.6-.2-3.7-1.5-3.7-.8 0-1.8.5-2.1 1-.4.6-.3 1 .2.9 1.9-.3 2.3.2 1.3 2-.5 1.1-.6 2.2-.1 2.5.4.3 1.1 2.7 1.5 5.3.3 2.5 1.4 7 2.3 9.9l1.6 5.2 2.3-2.6c1.3-1.4 2.4-2.1 2.5-1.6.2 1.9 1.7-4.3 1.8-7.4.2-6.2 2.1-2.2 2.1 4.4 0 6.3 0 6.4 2.2 5.2 3-1.7 4.6-3.6 6.4-7.6 1.4-3.1 3.4-4.3 3.4-2 0 .6 1 2.7 2.3 4.5 1.6 2.4 3 3.3 5 3.3h2.9l-.4-6.5c-.4-8.5 1.5-8.6 3.3-.3.7 3.5 1.4 6.6 1.4 7 0 1.2 1.5 2.2 1.5 1 0-.6.7-.9 1.5-.6.8.4 1.3 1 1 1.4-.3.5-.1 1.1.5 1.5.5.3 1-.1 1-1s.9-3.4 2.1-5.6c1.1-2.3 1.8-4.7 1.5-5.5-.3-.7-.1-1.6.4-1.9s1.2-2.5 1.5-4.8c.4-2.6 1.4-4.8 2.5-5.5 1.5-.9 1.7-.8 1.3.6-.2.9 1.5 8.9 3.7 17.7 2.3 8.8 4.6 18 5.1 20.5.4 2.5 1.5 6.7 2.2 9.5l1.4 5 1.7-5.5c.9-3 2.7-11.2 3.8-18.2 1.3-7.5 2.6-12.4 3.2-12.1.5.4.7 0 .4-.8s-2.9-8.6-5.7-17.3c-5.9-18.3-6.8-20-8.8-15.9-1.2 2.6-1.3 1.7-.2-2.7.3-1.1-.9-1.6-5.1-2.1l-5.5-.6 5.6-.1 5.6-.2-1.4-6.8c-2.3-10.2-6.5-23.2-7.4-22.7-.4.3-1.3 2.2-2 4.3-.6 2-2.7 6.6-4.5 10.2s-3.6 8.2-4 10.2c-.6 3.7-.6 3.8 2.5 3.8 1.7 0 3.1.5 3.1 1 0 .6-.3.9-.7.9-.5-.1-2-.1-3.6 0-2.4.1-2.7.4-2.2 2.8.5 2.7.5 2.7-.6.5-1.5-2.7-2.9-2.8-3.6-.2-.9 3.2-2.9 2.2-2.4-1.2 0-.3-4.9-.7-10.9-.7-10.3-.1-11 0-11 1.9 0 1.1-.4 2-1 2-.5 0-1-.9-1-2 0-2.4-1.9-2.9-12-3.3l-7.5-.3 8.1-.2 8.1-.2-1.1-4.5c-.7-2.4-1.5-4.7-1.9-5.1s-.7-1.5-.7-2.4c0-.8-.9-3.3-2-5.5s-2-4.4-2-5-.9-2.8-2-5l-2-3.9zM779.6 428.1c.4 1.9 1 4.1 1.4 4.9s1.7 5.8 2.9 11c3.1 13.3 13.9 43.1 15.9 43.8.9.3 17.2-16.9 17.2-18.2 0-.4-1.1-1.9-2.5-3.4-1.3-1.5-5-5.9-8.2-9.7-3.2-3.9-6-7.2-6.3-7.5s-3.9-4.8-8.2-10c-4.2-5.2-8.8-10.6-10.2-11.9l-2.6-2.5zM808.2 482.6l-8 8.8 3.4 6.9c2 3.8 3.3 7.1 3.1 7.3s-1.8-1.9-3.6-4.7c-1.8-3-3.6-4.8-4.1-4.3-.4.5-1.6 4.7-2.5 9.4s-2.5 11.3-3.5 14.7c-1 3.5-1.5 6.3-1.1 6.3s4.2-3.5 8.5-7.7c6-6 7.6-8.3 7.3-10-.2-1.2.1-2.1.7-2s1.2-.9 1.4-2.3 1.9-8.7 3.8-16.4c1.9-7.6 3.3-14 3.1-14.3-.3-.2-4.1 3.5-8.5 8.3"/><path d="M770.8 495.3c-2 8-4.3 16-5.2 17.8-1.3 2.7-1.4 3.5-.4 4.5 1.5 1.5 19.5 11.4 20.7 11.4.5 0-.7-6.2-2.6-13.8-1.9-7.5-3.6-14.4-3.8-15.2-.1-.8-.8-3.5-1.5-6s-1.4-5.7-1.6-7.2c-.9-7.7-2.1-5.8-5.6 8.5M718.7 482.7c-.3.4-1.7 6.4-3.2 13.2s-3.8 16-5.1 20.4c-2.9 9.7-3 11.7-.6 11.7 2 0 14.8-7.3 17.2-9.8 1.3-1.4 1.3-1.5 0-.6-.8.6-2.4 1.4-3.4 1.8-1.5.5-1.6.4-.8-.7.8-.9.8-4.6.1-12.7-1.7-20-2.7-25.7-4.2-23.3M692.1 502.8c-1.7 3.4-3.1 7-3.1 7.9 0 1 2.5 4.5 5.5 7.8s5.4 6.3 5.5 6.7c0 .5.4.8 1 .8 1 0 .9-.9-2.2-17-1.1-5.8-2.4-10.9-2.8-11.4-.5-.5-2.2 1.9-3.9 5.2M341.3 108.6c.4 2.2 1.2 10.2 1.8 18 .5 7.7 1.3 16.3 1.7 19l.8 4.9 3.4-3.6c7.6-7.8 25.5-27.3 27.3-29.5 1.4-1.9 1.5-2.5.5-2.8-.7-.3-8.3-2.3-16.8-4.6s-16.4-4.4-17.4-4.7c-1.7-.5-1.8-.1-1.3 3.3M455.5 106.1c-2.7.5-17.8 2.4-33.5 4.4s-30.7 3.9-33.5 4.3l-4.9.7 18.4 7.4c28.2 11.3 27.8 11.2 29.8 9.5.9-.8 8.2-6.9 16.2-13.5 8-6.7 14.9-12.5 15.5-13 1.1-1.1-1-1-8 .2M333.5 111.7c-2.7 2.5-9.3 8.4-14.5 13.1-10.1 8.9-12.1 11.3-10.2 12 2 .6 1.3 2.9-1 3.6-2 .5-2.1.8-.7 1.6 2.1 1.2 25.2 8.7 30.8 9.9l4.4 1-.7-15.7c-.8-19.5-1.7-30.2-2.5-30.2-.3.1-2.8 2.2-5.6 4.7M301.8 145.2c-.3.7-1.2 1.3-2.1 1.3s-1.6.4-1.6.9-.4 1.2-.9 1.5c-1.2.8-9.4 13.7-11 17.3-.6 1.6-.8 2.8-.3 2.8s.7.9.4 2-.9 2-1.3 2c-.5 0-.6 1-.3 2.2.4 1.9.3 2-.6.8-.9-1.3-1.1-1.3-1.1.2 0 1.3-.8 1.8-2.7 1.8-1.4 0-2.3.3-2 .7.4.3-.1 1.2-1.1 1.9-.9.7-1.2 1.4-.5 1.4.6 0 1.8-.7 2.6-1.5s1.6-1.2 1.9-1c.4.4 4.7-1 9.8-3.2 16.3-7 22-9.7 22-10.4 0-.5.7-.9 1.5-.9 1.5 0 1.7-.4 1.9-5.5.1-3.4 2.3-4 6.8-1.8 3.6 1.7 8.3 1.7 9.8-.1.6-.8 2.4-1.6 3.8-1.8 1.8-.2-3.2-2.2-14.8-6.1-9.6-3.1-18-5.7-18.7-5.7-.6 0-1.3.6-1.5 1.2M273.4 191.2c.3 1.3 1 9.3 1.7 17.8.6 8.5 1.3 15.9 1.6 16.3s2.4-1.8 4.8-5c9.2-12.2 12.5-16.8 12.5-17.4 0-.7-19.6-13.9-20.6-13.9-.2 0-.2 1 0 2.2M266.6 213.5c-2.7 10.5-5.1 20.2-5.3 21.7l-.5 2.8 6.7-3.8 6.7-3.7-.7-11c-.4-6-1-14.1-1.4-18l-.6-7zM287.2 216.2c-4.5 6.6-8.1 12.2-8 12.3.2.2 2.8-.3 5.8-1.1s8.7-2.2 12.5-3c12.5-2.6 15-3.2 17.5-4.3 1.9-.7 2.1-1 .7-1-1-.1-1.7-.6-1.5-1.3.3-.7-.7-2.2-2.1-3.3-3.4-2.7-15.6-10.6-16.3-10.5-.2.1-4 5.5-8.6 12.2M343.5 218.4l-19 2.1-.3 37-.2 37 3.2-5c1.8-2.8 4-6.4 4.8-8 .8-1.7 2.9-5.3 4.6-8 1.7-2.8 4.6-7.7 6.4-11 1.9-3.3 4.2-7.4 5.2-9 1-1.7 1.8-3.8 1.8-4.7s1.1-2.9 2.5-4.4c2-2.2 12.3-20.7 14.7-26.7.9-2.1 1.2-2.1-23.7.7M370.5 221.7c.2 2.1.7 11.9 1 21.8.4 9.9 1.1 18.5 1.6 19.1.7.8.6 1.3-.1 1.6-.8.2-.9 8.7-.4 30.6.6 27.2.9 30.2 2.3 29.6 2.7-1.2 13.3-4.9 44.5-15.4 16.4-5.5 32.5-11.2 35.7-12.5 3.3-1.3 8-2.7 10.4-3.1 2.5-.3 4.5-1 4.5-1.4 0-.9-20.1-16.5-35.4-27.5-5.4-3.9-12.7-9.3-16.4-12-3.7-2.8-11.5-8.5-17.2-12.7-5.8-4.2-14.8-10.8-20-14.7s-9.8-7.1-10.3-7.1c-.4 0-.5 1.7-.2 3.7M366.4 224c-1.2 1.9-3.8 6.6-5.9 10.5-5.7 10.8-9.7 17.9-10.5 19-1.4 1.9-20 35.5-20 36.2 0 .4-1.2 2.4-2.7 4.5-1.5 2.3-2.3 4.2-1.7 4.8.5.4 5.2 3.1 10.4 5.8 5.2 2.8 15.1 8.1 22 12 11.4 6.3 12.6 6.7 13.2 5 .8-2-.8-75.3-2-91.8l-.7-9.5zM304.3 225.2c-4.6 1.1-8.3 2.4-8.3 2.9 0 .6.5.7 1.2.3s.8-.3.4.4c-.5.9-1.3.9-2.8.1-1.6-.8-3.1-.8-6.2.2-2.3.7-4.5 1.2-4.9 1.1-.5-.2-.6.2-.2.8.5.7-.3.9-2.2.4l-2.8-.7 1.9 2.2c2 2.2 4.2 2.9 3 .9-.4-.7-.3-.8.4-.4s1.2 1.4 1.2 2.2c0 1.7 1.7 1.9 2.3.1.2-.6.3-.4.1.6-.2 1.7 5.6 7 7.2 6.5.5-.1 2 .4 3.3 1.1s2.6.9 3 .5c.3-.5 1.4-1 2.4-1.1q1.95-.15 1.2 1.5c-1.1 2.9 1 .1 5.9-7.8 3.6-5.8 4.3-7.6 3.1-7.8-1.6-.4-1.9-1.4-.8-2.6.9-.9 1.3-3.6.5-3.5-.4.1-4.4 1-8.9 2.1M317.2 231.1c-1.2 2.2-1.9 4.6-1.5 5.2.3.7.3.9-.2.5-.4-.4-3.2 2.7-6.2 6.8l-5.4 7.5 4.7 10.7c2.5 5.9 5.8 13.4 7.4 16.7 1.5 3.3 3.1 7.1 3.5 8.4 1.7 5.7 2.4-1.6 2.2-24.5-.2-19.1-.5-24.5-1.6-25.8-1.2-1.5-1.2-1.9.1-3.2 1.4-1.5 1.4-6.4-.1-6.4-.4 0-1.7 1.8-2.9 4.1M275 235.6c-.6 1.6-2.2 6-3.6 9.9-1.4 3.8-3 7.8-3.5 8.8-.8 1.4-.6 2.3.5 3.6.9 1 1.6 2.3 1.6 3q0 1.35 1.8.6c3.9-1.6 20-7.7 24.1-9.2 3.7-1.4 4.1-1.7 2.5-2.3-1.1-.4-2.6-1.5-3.3-2.4s-2-1.6-2.8-1.6-1.2-.4-.9-.9c.3-.4-.5-1.3-1.9-1.9-1.3-.6-4.1-2.6-6.2-4.4-7.3-6.4-7.1-6.4-8.3-3.2M265.8 237.1c-5.7 2.9-5.8 3-5.8 7.2.1 2.3.7 7.1 1.4 10.7 1 5 1.5 6 2.1 4.5 7.2-18.6 9.5-25.6 8.4-25.5-.2.1-3 1.4-6.1 3.1M254 254.1c-1.8 4.6-3.7 8.8-4.2 9.3-1.3 1.6-.9 4.6.7 4.6.8 0 1.5.5 1.5 1.1s-.8.8-1.8.5c-1.1-.4-2.2.1-2.9 1.3-1.5 2.5-4.3 9.1-3.8 9.1.2 0 3.2-2.3 6.5-5.1 3.4-2.8 6.3-4.9 6.6-4.6.2.2-1.7 2.1-4.3 4.2-2.7 2.1-5.7 4.8-6.9 5.9l-2 2.1 2.1 3c3.5 5.3 6.3 8.5 7.1 8.5 1.2 0 7.4-23.4 6.3-23.8-.5-.2-.2-1.4.6-2.6 1.3-1.9 1.3-3.6.4-10.7-.7-4.6-1.5-9-1.9-9.8s-1.9 1.9-4 7M299 253c-.8.6-7.6 3.2-15 6s-14.1 5.7-14.7 6.3c-1 1-.8 1.8 1 3.8 2.7 3.3 44.3 24.3 46.3 23.5.8-.3 1.3-.2 1 .3s.1 1.2 1 1.5c1.8.7 1.4-1.2-1.9-8.4-2.5-5.6-6.8-16-10.9-26.3-3.1-7.6-3.9-8.4-6.8-6.7M319.3 300.7c-.7.3-1.3 1.1-1.3 1.8 0 1.7-3.4 2.8-6 2-1.1-.3-2-1.3-2-2.2 0-1.4-1.6-1.5-14.2-1-7.7.4-14.4.9-14.7 1.2-.3.4.6 2.7 1.9 5.3 3.5 6.5 18 28.2 18.9 28.2.7 0 7.7-12 12.5-21.8 1.5-2.8 2.9-5.2 3.1-5.2.5 0-.8 2.8-9.3 19.7-2.5 5.1-4.4 9.4-4.1 9.7.4.5 9.8 2.2 22.7 4.1l4.3.7-.7-4.4c-.3-2.3-1.7-9.7-3.1-16.3-3.8-18.7-4.8-21.1-7.3-16.4-.7 1.1-1.4 1.8-1.7 1.5s.2-1.7 1.1-3.1c1.9-2.9 1.8-4.4-.1-3.8M323.7 302.3c-.2.7 0 2.1.5 3.2s2.6 9.5 4.7 18.8c2.1 9.2 4.1 17 4.4 17.3.6.6 9.8-3.1 22-8.9 5.8-2.8 8.6-4.7 8.5-5.7-.3-1.8.6-2.2 2.7-1.3.9.3 1.8.4 2 .1.7-.7-33.3-20-41-23.2-2.5-1.1-3.5-1.1-3.8-.3M220.6 332.7c2.5 6.9 4.8 13.1 5.1 13.6.4.6 1.5-2.4 2.5-6.7s1.5-8.3 1-9c-1.1-1.9-11.1-10.6-12.2-10.6-.4 0 1.2 5.7 3.6 12.7M367.2 329.7c-.6.2-1 .8-.7 1.3.3.4-.3.6-1.3.3-1-.2-2.4.3-3.1 1.1-.8.9-2 1.6-2.8 1.6-.7 0-6.1 2.2-11.9 5-5.8 2.7-11.1 5-11.7 5-.7 0-.3.7.7 1.5 1.4 1 2.3 1.2 3.2.4.8-.7 1.4-.7 1.9.1.8 1.3 5.6 1.3 9.1 0 1.9-.8 2.9-.8 3.4 0 .4.6 1.3 1 2.1.8.9-.2 1.4.5 1.3 1.8 0 2.3 1.8 2.6 3.8.6.7-.7 2-1.2 3-1.2s1.8-.7 1.8-1.6c0-.8.4-1.3.9-1 1 .7 1.7-2 2.7-10.7.6-5.5.3-6.1-2.4-5M218.1 342.3c-.1 11-1.7 18-6.1 27.2-1.1 2.2-2.9 6.5-4 9.5s-2.5 6.4-3 7.5c-2.3 4.9-4 9.8-3.6 10.3.3.2 3.5-5.8 7.1-13.4 3.7-7.7 8.2-17.2 10.1-21.2 1.9-3.9 3.2-7.7 2.9-8.2-.3-.6.1-1.3.9-1.6 2.2-.8 2-2.5-1.4-12.4l-2.8-8.5zM303 341.5c0 .3 1.1 2.2 2.5 4.3 2.2 3.4 2.4 4.1 1.3 7.7-.7 2.2-1.6 4.2-2 4.5s-.8 2.3-1 4.4c-.1 2.3-.9 4.3-2 5-2 1.4-3.9 8.4-1.9 7.2.6-.4.8-1.2.5-1.8-.4-.6-.2-.8.4-.4 1.3.8 10-7 8.9-8-.8-.8 2.2-3.3 4-3.4 1.8 0 17.5-15.2 16.6-16.1-.8-.6-22-3.9-25.5-3.9-1 0-1.8.2-1.8.5M332 352.6c-.7 3.1-2 8.2-3.1 11.3-1 3.1-1.9 7.3-2.1 9.3-.1 2-.6 3.4-1 3.2-.4-.3-.8.6-.8 2s-.4 2.7-.9 3c-.4.3-1.1 1.8-1.4 3.3-.3 1.6-.9 3.6-1.2 4.5-.5 1.3-.2 1.8.9 1.8 1.5 0 5.4-1.8 6.6-3 .3-.3 3.4-2.1 7-4 3.6-1.8 10.3-5.5 14.9-8.2 4.6-2.6 8.8-4.8 9.2-4.8.5 0 .9-.5.9-1 0-.6.7-1 1.6-1 2.1 0-3-4.1-16.6-13.4-5.7-3.9-11-7.4-11.6-7.9-.9-.5-1.6 1-2.4 4.9M243.3 379.2c-2.9.8-3.4 1.5-5.3 7.9-2.3 7.8-4.5 18.8-3.8 19.4.2.3 3.9-.2 8.2-1s8-1.5 8.3-1.5.2-2.1-.1-4.8c-1.7-12.3-3-19.8-3.5-20.3-.3-.3-2-.2-3.8.3M250.5 386.5c1 10.8 1.9 14 3.8 13.9.9-.1 1.7.2 1.7.7s-.4.9-1 .9c-.5 0-1 .4-1 1 0 .9 4.1 2.3 10.8 3.6l3.2.6-.1-7.3c0-4.1-.4-8.2-.8-9.2-.6-1.6-1.1-1.3-4.1 2.3-1.9 2.3-3.9 4.9-4.3 5.6-.9 1.6-2.7 1.9-2.7.5 0-.5 1.3-2.2 2.8-3.7 1.6-1.6 3.8-4.3 5-6l2.1-3.1-2.5-1.2c-5.2-2.3-6.7-.6-7.9 9.2-.4 3.1-1.1 5.5-1.5 5.2-.4-.2-.4-2.4.1-4.7.5-2.4 1.2-6.4 1.5-8.9.6-4.4.5-4.6-1.7-4.5-1.3.1-2.8-.3-3.2-.9-.5-.5-.5 2.2-.2 6M282.5 383.4c-2.7.7-6.4 1.9-8.2 2.8-2.3 1.1-3.3 1.3-3.7.4-.2-.6-.5 3.4-.5 8.9l-.1 10 11-11.5c6-6.3 11-11.6 11-11.8 0-.5-4.9.1-9.5 1.2M297.3 384.2c-1.3 2.2-7.3 17.1-6.9 17.5.5.5 24.6-6.1 24.6-6.7 0-.8-9.6-7.8-12.5-9.2-1.4-.6-2.5-1.5-2.5-2 0-1.2-1.8-1-2.7.4M193.4 445.1c12 7.7 11.3 7.6 22.7 2.4 5.4-2.5 10.4-4.5 11.1-4.6.7 0 .4-.4-.7-.8-1.1-.5-10.8-1.1-21.5-1.5l-19.5-.6zM227.1 466c-.8 1.9-4.1 9.5-7.4 16.9-4.8 11-5.6 13.6-4.5 14.6 3.5 3.4 14.2 11.4 14.6 11.1.5-.6.2-18.2-.6-34.1-.7-11.7-.7-11.9-2.1-8.5"/><path d="M243.4 499.2c-2.2 2.9-4.6 6.2-5.6 7.2s-1.5 2.2-1.3 2.6c.3.5-.2 1.1-1.1 1.4-.8.3-1.2 1-.9 1.6.3.5 0 1-.9 1-1.5 0-7.7-4.4-16.1-11.5-3.4-2.9-5.5-4-6.5-3.4-.8.4-2.3 1-3.2 1.3-2.6.8-2.2 2.8 1.6 7.7 1.9 2.3 3.2 4.7 3 5.1-1.3 2 5.1 5.8 9.6 5.8 2 0 2.9.4 2.4 1.1-.4.8.1.9 1.7.4 2.1-.7 2.2-.6 1 .9-.7.9-2.6 1.6-4.2 1.6-2.2 0-2.9.5-2.9 1.9 0 1.1-.8 2.2-1.8 2.5-1.5.5-5.6 9.5-4.7 10.4.8.8 8.6-1.1 10-2.4.7-.8 2.6-4.8 4.2-8.9 3-8 4.7-9.4 5.7-4.4.4 2.2 1 2.9 2 2.6 1-.4 1.3-.1 1 .7-1 2.5 1.3 2.6 2.6.1 1.5-2.8 3-3.3 3-1 0 .8-.8 1.5-1.7 1.5-1.3 0-1.4.3-.5 1.2s2.5.5 6.9-1.9c9.6-5.1 12.3-6.8 12.3-7.4 0-.4-3.7-1.2-8.2-1.8-13.6-1.9-15-2.2-14.6-2.7.3-.2 6 .3 12.7 1.2s12.5 1.4 12.8 1.1c.6-.6-12.8-20.6-13.9-20.7-.3 0-2.3 2.4-4.4 5.2M685.5 541.6c2.8 2.5 6.9 6.3 9.2 8.5 3.7 3.6 4.4 3.8 6.2 2.7 1.2-.7 2.1-1.6 2.1-2 0-.5.5-.8 1.1-.8s2.4-1.1 4.1-2.5c1.6-1.4 2.4-2.5 1.8-2.5s-.9-.4-.6-.9c.6-.9-23.6-7.1-27.2-7.1-1.1 0 .1 1.7 3.3 4.6M811 538c-.8.5-4.3 1.2-7.7 1.6-3.5.3-6.3 1-6.3 1.5s.9.9 2.1.9 1.7.4 1.3 1.1c-.3.6-2 .9-3.8.6-1.7-.2-4.3-.1-5.8.4-1.6.4-2.8.4-2.8-.2 0-.5-.4-.9-.9-.9s-.8.6-.7 1.2c.3 2.4 1.7 3.8 3.7 3.8 1.1 0 1.8.4 1.4.9-1.3 2.2 4.9 3.6 6.6 1.5.6-.8 1.6-1.4 2.1-1.4.8 0 15.8-10.7 15.8-11.3 0-.7-3.8-.5-5 .3M548 687c0 .5-1.5 1-3.2 1-3.1.1-6.8 1.9-6.8 3.4 0 .4-.6 1.4-1.4 2.2-1.1 1.1-1.6 1.1-1.9.1-.3-.6-.6-.2-.6 1.1-.1 1.3-.5 2-1.1 1.7-.5-.3-1-.2-1 .4 0 .5-.9 1.2-1.9 1.6-2 .6-2 .6 0 5.1 2.6 6.2 2.5 8.8-.3 4.4-1.2-1.9-2.3-3.7-2.3-4-.7-2.6-3-6.8-4.3-8-1.9-1.7-7.2-2.4-7.2-.9 0 .5-1.1.9-2.4.9-1.7 0-2.7.7-3.2 2.2l-.8 2.3-.7-2.5c-.7-2.4-.7-2.4-.8-.3-.1 1.3-.7 2.3-1.6 2.3-.8 0-1.9.9-2.5 2s-1.5 2-2 2c-.6 0-3.7 2.6-6.9 5.8-3.2 3.1-6.8 6.4-8 7.2-1.1.8-2.1 1.8-2.1 2.2s14 .8 31 .8h31v-5.8c0-3.1.5-7.5 1-9.7 1.4-6.1 2-18.5.9-18.5-.5 0-.9.4-.9 1"/></svg>