<svg xmlns="http://www.w3.org/2000/svg" width="1706.667" height="960" viewBox="0 0 1280 720"><path d="M0 360v360h228.5c182.1 0 228.5-.3 228.5-1.3 0-1.5 9-16.6 9-15.1 0 .7-1.8 4.3-4 8-2.2 3.8-4 7.2-4 7.6 0 .5 16.8.8 37.4.8h37.4l1.1-2.8 1.1-2.7-.5 2.8-.5 2.7h746V0H0zM734.7 54.5c1.2.8 5.8 2.8 10.3 4.5 8.4 3.1 13.6 5.7 9.5 4.7-1.1-.3-6.4-2.2-11.9-4.2-5.4-1.9-10.1-3.4-10.3-3.1-.3.2.6 2.1 2 4.3 1.3 2.1 5.9 10.3 10.2 18.3 11.7 21.5 13.7 25.2 15.7 28.5 1 1.6 2.1 3.8 2.4 4.7.4 1 1 1.8 1.4 1.8 1.6 0 8.1-3.7 21-12a1633 1633 0 0 1 19.3-12.3c3.1-2 5.7-4.1 5.7-4.6 0-1.1-10.3-5.4-28-11.6-22.9-8-25.4-8.9-24.3-9.2.8-.3 35.6 11.6 46.8 16 1.7.6 3.2 1.2 3.5 1.3 5.4 1 12.9 6.2 11.7 8.1-.3.5 1 2.6 2.8 4.6 3.5 3.8 9.4 11.3 26.5 33.7 1.4 1.8 3.1 3.9 3.9 4.7.7.7 2.1 3 3.1 5.1l1.8 3.6 1-4.4c1-4.4 1-4.5 1.1-1 .2 6.6.5 6.7 15.2 1.9 7.4-2.4 13.7-4.4 14.1-4.4s1.3-.6 2-1.3c.9-.9.9-1.2 0-1.2-.7 0-2.1-.9-3.1-1.9-1.1-1.1-3.3-2.7-4.8-3.5-1.5-.9-3.9-2.5-5.3-3.7-1.9-1.5-1.4-1.4 2 .6 2.5 1.4 5.6 3.2 7 3.8s3.1 1.7 3.8 2.4 2 1.7 2.9 2.2c1.4.7 1.5 1.3.6 3.3-.9 1.8-1.2 1.9-1.2.5-.1-2-.5-2.1-2.9-.7-.9.5-6.5 2.5-12.4 4.4-14.1 4.6-16.1 5.9-15.2 10 .3 1.7 1 3.6 1.6 4.2 1.4 1.9 6.9 13.6 6.5 14-.2.2-2-2.9-4.1-6.9l-3.8-7.2.7 18.5c1 28.2 1.4 35.7 2.1 38.5.6 2.5.8 2.5 7.3 2 4.5-.4 6-.2 4.6.4-1.1.5-3.4 1-5.2 1-5.1.1-6.3 1-6.3 4.7 0 1.9-.4 3.4-.9 3.4-1.5 0-5.1 11.7-5.1 16.5 0 1.4-.5 2.5-1.1 2.5-1.1 0-.9-1.3 1.6-12.5 2.8-12.2 2.8-12.1.1-16.3-1.4-2.2-3-4.3-3.6-4.7-.5-.3-1-1.1-1-1.8 0-.6 1.5.3 3.3 2.1s3.7 3.2 4.1 3.2c.5 0 .6-2.8.2-6.3-.3-3.4-.8-11.4-1.1-17.7s-.8-15.8-1.2-21-.7-10.5-.7-11.7c-.2-4.1-1.3-3.3-4.1 3-1.5 3.4-3.7 8-4.7 10.2-1.1 2.2-3.3 7.5-4.9 11.7-1.7 4.3-3.5 8-4 8.3-.5.4-.9.5-.9.3 0-.9 7.3-18.4 8-19.3.4-.6 2-4.4 3.4-8.5 1.5-4.1 3.2-8 3.8-8.7 2.8-3.4-1.3-2.3-11.5 3.1-6.2 3.2-15.8 8.2-21.4 11s-10.1 5.5-9.9 6c.3 1.3 25.8 18.6 26.7 18.1.4-.3 1 .5 1.3 1.8.4 1.2 2.9 3.9 5.6 5.9 2.7 2.1 5.4 4.8 6.1 6 .7 1.3-1.6-.3-5-3.5s-6.7-5.7-7.4-5.4c-.6.2-2.3 3.3-3.7 6.8s-2.8 6.8-3.1 7.4c-.3.5-.9 2.3-1.3 3.9-.4 1.5-1.4 3.5-2.1 4.3-2.4 2.4-1.8 3.6 1.8 3 6.8-1.1 23.3-4.5 25-5.2 1-.4 1.7-.3 1.7.3s-2.6 1.6-5.7 2.2c-3.2.6-10 2-15 3.1l-9.3 2 2.4 2.2c5.3 4.9 8.4 7.5 13.6 11.4 9.3 7.1 10.5 8.1 9.9 8.8-.4.3-1.7-.3-3-1.4s-6.4-5.1-11.4-8.8c-4.9-3.7-9.1-7.1-9.3-7.5s-.9-.8-1.6-.8c-.8 0-1.8 4.5-3 12.7-1 7.1-2 14-2.2 15.5-.6 2.9 1.2 4.6 2.9 2.9.6-.6 1.8-1.1 2.6-1.1 1.4 0 11.4-3.6 17.9-6.6 1.8-.8 3.1-1 2.8-.5s-3.2 1.8-6.3 3c-11.9 4.5-18.3 8-17.7 9.5.3.9 1.5 1.8 2.6 2.2 1.2.3 5.7 4.3 10.2 8.7 6.8 6.7 7.4 7.7 4.1 5.7-2.2-1.3-5.2-3.2-6.7-4.2l-2.7-1.9 2.5 5.8c1.4 3.2 3.1 6.9 3.7 8.3 1.4 3 5.9 9.4 7 9.8.4.2.7.9.7 1.6s.5 1.7 1.1 2.3 1.2 3.7 1.4 6.9c.1 3.3.1 5-.2 3.9-1.1-5.4-3.6-9.4-6.2-10-1.4-.3-3.5-.7-4.6-.9-1.1-.3-4.7-1.4-7.9-2.5-6.7-2.4-10.6-2.7-10.7-.9 0 .9-.2 1-.5.1-.4-.8-2.4-.5-7.2 1.2-8 2.8-18.6 6.1-22.4 6.9-3.1.7-3.6 3.1-1.6 6.9 1 1.9.9 2-.4.9-1.3-1-1.7-1-2.1.2-.5 1.2.5 1.4 6.5.9 5.1-.4 7.2-.3 7.8.6.5.9 3.1-1 8.5-6.3 4.3-4.2 7.9-7.6 8.2-7.6s-1.6 2.4-4.1 5.4c-5 5.8-5.5 7.2-2.8 8 3.6 1 8.8 1.9 12.5 2.1 3.5.2 3.7.1 3.7-2.9-.1-1.7-.7-4.8-1.5-7-2.1-5.9.1-2.9 2.9 3.9 1.7 4.3 3 6.1 4.5 6.3 1.2.2 1.9.8 1.5 1.3-.3.6-.3 1.8.1 2.7.5 1.4 1.2 1 4.2-2.3 3.8-4.4 3.9-4.2.3 2.8-1.5 3-2.1 5.1-1.5 5.5s1.6 1.9 2.2 3.4c1.6 3.5 12.1 11.8 15.1 11.8 1.5 0 2.6-.8 3.2-2.5 1.4-3.6 2-3.1.9.7-.5 1.7-.8 3.2-.6 3.3.1.1 1.1.7 2.2 1.3 1.8 1 1.6 1.2-1.4.9-3.1-.2-3.5.1-4.8 3.8-1.1 3-1.3 5.9-.7 11.5.4 4.1.8 11 .8 15.3.1 4.2.4 7.7.7 7.7 1 0 3.5-4.1 10-16.7 3.4-6.5 6.8-12.6 7.6-13.5.9-1 1.3-2.4 1-3.3-.4-.8-.2-1.5.3-1.5.6 0 1-.7 1-1.5 0-.9.6-1.2 1.5-.9q1.5.6.9 3c-.4 1.5.1 3.4 1.6 5.4 1.2 1.7 2 3.3 1.8 3.5s-1.2-.9-2.3-2.6c-3.5-5.2-4.4-4.4-10.6 9.1-2.4 5.2-6 12-8 15-5.7 8.5-5.6 8.7 1.7 14.7 3.5 2.9 6.8 5.3 7.3 5.3s1.2-.8 1.6-1.8c1-2.1 2.4-16.3 3.1-30.7.3-6.1.7-11.5 1-12 .2-.6.1 5.5-.2 13.5-.4 8-.7 19.7-.7 26.1v11.6l-2.4-.5c-1.3-.2-4.3.5-6.6 1.6-7.3 3.6-16.9 7.1-24.2 8.8-3.8.9-9 2.1-11.3 2.7-2.4.5-4.6 1.6-4.9 2.4-.3.7-1.1 1.3-1.8 1.3-1.5 0-12.5 15.9-12.5 18.1 0 .8-1.2 2.2-2.6 3.3-2.6 1.8-2.6 1.8-1.6-.1.9-1.6-.6-3.5-11.4-14.1L783 416.1v7.9c0 4.3.4 8.1.8 8.4.5.3 1.2 5.4 1.5 11.3.4 5.9 1 13.3 1.3 16.3.4 3 .4 5.3.1 5s-.9-3-1.2-6c-2.3-21.3-3.3-25.6-5.8-23.1-.7.7-2 .2-3.9-1.4-2.9-2.5-2.9-2.5-5-.5-2.1 1.9-2.1 1.9-3.3-.3-2.2-4.4-2.5-5.6-.9-5 .7.3 1.4.1 1.4-.5 0-2.6 3.5-2 7.2 1.3 2.1 2 4.3 3.3 4.8 3 1.1-.7 1.3-7.1.4-14l-.7-4.7-6.6.6c-30.5 2.9-30.6 2.9-25.5 7.7 1.4 1.3 5 6 7.9 10.4 3 4.4 8.6 11.4 12.4 15.5 3.9 4.1 7.1 7.9 7.1 8.4 0 2.7 9.5 11 11.3 9.9.5-.3 1.3 0 1.7.8.7 1.1 1.9 1 6.5-.5 3.1-1 5.9-1.5 6.2-1.3.2.3-2 1.3-4.9 2.2-7.2 2.4-7.1 2.3-5.3 5.2l1.6 2.4-2.4-1.6c-2.4-1.5-2.6-1.5-3 .2-.3 1-2.2 8.7-4.3 17-2.1 8.4-4.1 15.3-4.5 15.3-1 0-.4-3.3 3.1-16 4.4-16.4 4.4-16.6 2.4-15-2.6 2.2-14.9 15.1-15.2 16-.4 1.2 7.3 17.1 8 16.4.4-.3.9.4 1.3 1.5.8 2.5 1.4 2.6 4.2.6 1.2-.9 5.3-3.2 9-5.2s8-4.4 9.5-5.5c1.4-1 3.2-1.8 3.9-1.8 1.5 0-5.8 4.7-17.8 11.5-4.6 2.5-8.3 4.8-8.3 5.1s.7 1.2 1.5 2c.8.9 1.5 2 1.5 2.6s-1-.2-2.2-1.7l-2.1-2.7-4.1 4.3c-2.3 2.4-6.3 6.2-9 8.4s-5.7 4.9-6.7 5.9c-1.7 1.8-2 1.8-3.6.4-1-.8-6.5-3.7-12.3-6.3s-10.9-5.1-11.3-5.5c-.5-.4-5 .9-10 3l-9.1 3.7-5-1.9c-2.8-1-6.3-2.5-7.8-3.3-3.6-2.1-4.8-1.9-11.3 1.5-7.3 3.9-8.1 3.3-1.4-.9 2.8-1.7 4.9-3.4 4.6-3.7s-.2-1.8.3-3.3c.4-1.6.2-6.5-.6-11.7-.7-4.9-1.3-10.7-1.3-12.9 0-3.8.1-3.7 1.9 2.5 1.7 5.9 2.7 7.4 4.6 7 .4-.1 1.1.4 1.5 1.2.6.8.9-.1 1.1-2.7.1-2.2.3-4.9.4-6s.3-2.9.3-4c.2-3.2 2.1.4 2.1 4 0 2.7 1.9 7.5 2 4.9 0-.7.9-1.4 2-1.7 1-.3 2.7-2.3 3.7-4.6s2.1-4.1 2.5-4.1 1.5 1.4 2.5 3c1.8 3.2 5.1 4.7 7.9 3.6 1.2-.5 1.5-1.8 1.2-6.1-.3-6.1 1-7.2 3.3-2.8 2 4 3.1 4.8 6.3 4.8 2.5 0 3-.6 4.8-5.3 1.1-2.8 2.4-5.2 3-5.2 1.3 0 .2 7.9-1.9 13.5-.8 2.2-1.9 6-2.5 8.5-.5 2.5-1.3 5.9-1.8 7.7-.5 2.2-.4 3.4.4 3.7.6.2.4.5-.5.5-2.2.1-4.3 2.7-3.4 4.2.6.8 1 .7 1.6-.2.7-1.1.9-1.1.9-.1 0 .7.5 1 1 .7.6-.3 1 .1 1 1 0 .8 1.2 2 2.6 2.5 1.5.6 3.8 1.9 5.3 2.9 1.4 1 4.3 2.6 6.5 3.5l3.8 1.6-.6-2.8c-.8-3.2-1.8-7.9-4-18.7-.9-4.3-2.3-9-3.1-10.2-.9-1.3-1.1-2.3-.5-2.3s.6-1-.1-2.8c-.6-1.5-1.1-4.4-1-6.6.1-2.4-.7-4.9-2-6.8-1.6-2.2-1.8-3.3-1-4.1 1.4-1.4 2-.7 2.3 2.6.1 1.5.5 2.7.8 2.7s1.2 2.8 1.9 6.2c.7 3.5 1.9 8.2 2.6 10.4.8 2.3 2.1 8.2 3 13 .8 4.9 2.1 11.1 2.8 13.9l1.3 5 2.2-7c2.8-9.4 4.4-17.2 4.5-21.7.1-2.3.4-3.3.9-2.5 1.4 2.2.1-13.6-1.6-19.3-.9-3-2.2-7.3-2.8-9.5s-2.2-5.7-3.5-7.7c-1.3-2.1-2.3-4.4-2.3-5.3 0-2.4-1.4-1.7-3.3 1.6-1 1.8-2 2.9-2.4 2.5-.3-.3.1-1.4 1-2.4 2.7-3 1.8-12.1-2.4-24.2-1-3-2-6.8-2.2-8.4-.2-1.7-.8-3.1-1.4-3.3s-3.6 4.9-6.8 11.4c-3.1 6.5-6.5 12.7-7.5 13.8-2.5 2.8-2 7.5 1.3 11.8 1.5 2 2.3 3.8 1.8 4.2-.5.3-1.2-.3-1.6-1.4-.7-2.4-3.5-5.6-5.6-6.3-.9-.4-2.6 0-3.8.8s-2.6 1.2-3.3.8c-.8-.5-.6-1 .8-1.5 1.1-.5-3.8-.8-11.1-.7-7.1.1-13.7-.2-14.5-.5-.8-.4-3.3-.8-5.5-1-3.5-.3-3.3-.4 1.3-.5 2.8-.1 5.2-.6 5.2-1.2 0-.5-1.1-3.3-2.4-6.2-1.4-2.9-2.7-6.7-3-8.3-1.7-9.3-2.3-11-3.1-9.3-.4 1-.4 2.5-.1 3.4.3.8.2 1.2-.4.9-.5-.3-1.4 1.1-1.9 3.2-2.5 9.2-4.3 16.6-4.5 18.6-.3 2.3-2 6.9-3.6 10.2l-1.1 2 .6-2c.4-1.1 1.1-4 1.7-6.5.5-2.5 1.4-6.1 1.9-8 2.7-10.9 4.8-21.5 4.3-21.9-.2-.3-2.3 1.3-4.6 3.5l-4.1 3.9 3.5-4.5c6.8-8.7 9.2-14 7-15.4-.9-.5-10.1-2.1-19.2-3.1-3-.4-5.8-.9-6.1-1.1s-1.4.3-2.4 1c-1.5 1.1-2.1 3.8-3.1 14.7l-1.3 13.4.5-13.2c.3-8.4.1-13.4-.6-13.8-.5-.3-1 0-1.1.7 0 .7-3.2 4-7.1 7.3-12.3 10.4-17 15.3-16.2 16.7.4.7 1.9 2.9 3.2 4.8l2.4 3.5-3.1-3.5c-1.7-1.9-3.1-3.8-3.1-4.2s-.7-.8-1.5-.8-1.5-.6-1.5-1.3c0-1.7-8.6-14.6-11.8-17.7-3.1-2.9-18.4-9.2-19.3-7.8-1.4 2.2-3.9-4.5-4.4-11.9-.3-5.3-.2-7.3.5-6.3.5.8 1 3.8 1 6.6 0 6.4 1.6 8.4 9.2 11.4 9.4 3.7 9.8 2.5 2.1-6.5-3.7-4.3-8.3-9.4-10-11.3-1.8-1.9-3.3-3.9-3.3-4.6 0-.6-.5-.4-1 .4-.7 1.1-1 .3-1-3-.1-5.3-1.1-9.6-4-17-1.2-3-2.5-6.7-2.7-8.3-.9-4.5-2.3-3-2.4 2.5-.1 3-.7-.5-1.4-8.2-.7-7.4-1.6-14.4-1.9-15.5-.4-1.1.1-.4 1.2 1.5 1 1.9 2.3 3.4 2.9 3.3s.9.6.6 1.6c-.6 2.3 3.1 17.7 5.7 23.2 1.1 2.4 2 5.4 2 6.7 0 1.2.6 3.8 1.4 5.7 1.3 3 1.7 3.3 4.2 2.6 1.7-.4 5.3-.2 8.8.7 3.3.7 6.8 1.1 7.8.9 1-.3 1.8-.2 1.8.3 0 .4 1.4 1 3.1 1.2l3.1.5-2.3-1.8c-1.3-1-2.9-1.9-3.6-1.9-.6 0-2-1.3-3-3-.9-1.7-2.1-3-2.5-3-1.1 0-9.5-8.6-10.8-10.9-.7-1.4-.6-2.2.5-3.1 1.3-1.1 1.3-1.6.2-3.4-.8-1.2-1.7-3.3-2.1-4.9-.3-1.5-1.8-5.2-3.2-8.3-2.2-4.7-2.8-5.4-4.7-4.9-2.1.6-2.1.5-.3-.9 1.6-1.3 1.8-2.4 1.3-7.8l-.5-6.3 1.3 4c.8 2.2 1.4 4.8 1.4 5.8.1 1 .5 1.7 1 1.5 1.4-.5 9.3-7 13.5-11 2.1-2.1 4.2-3.8 4.6-3.8.5 0 0-1.8-1.1-4-2.5-5.1-2.4-5.7.4-2.4 3.2 3.7 3.6 3.3 8.6-7.6 1-2.2 1.1-2.1.7 1.8-.3 3.2-.1 4.2.8 3.9.7-.3 4.7-1.1 8.9-1.7 7.6-1.3 8.5-1.7 6.9-3.6-.5-.5-1.9-2.7-3.2-4.9l-2.3-4 5 4.8c4.1 3.9 5.8 4.9 9.4 5.2 2.4.3 6 .7 8.1.9 3.6.4 3.6.4 4-3.6.3-3.4 0-4.1-2.2-5.2-2.8-1.5-22.9-8.1-24.5-8.1-.5 0-.8 1.1-.7 2.4.4 2.3.1 2.2-3-1.2l-3.5-3.6-5.4 1.9c-3 1-8 2.6-11.1 3.5-3.4 1-5.8 2.2-5.8 3 0 1.1-.5 1.1-2.7 0-1.6-.7-5.7-1.6-9.3-2-6.5-.6-6.6-.6-7.8 2.2-1 2.4-1.1 2-.6-3.2q.9-9.15 2.1-5.7c.3.6.9.9 1.5.6.7-.5.9.2.5 1.8-.6 2.2-.3 2.6 2.4 3.2 6.1 1.2 12.4.7 13.9-1.2 1.4-1.5 14.1-20.7 18.4-27.5 1-1.6 2-2.6 2.3-2.3s-1 3-3 6.1c-2.1 3-3.7 5.7-3.7 6s-3 4.6-6.6 9.6l-6.6 9.1 3.4-.7c3.7-.7 7.4-2 13.4-4.6 4.9-2.2 5.1-2.6 6-17.2.7-10.3.6-10.7-1.3-10.7-1.7 0-9.6 4.9-11.3 6.9-.4.6-10.7 9.4-18.3 15.8-1.5 1.3-2.7 1.9-2.7 1.5 0-1.6 30.5-27.2 32.5-27.2.3 0 .3.5-.1 1.2s-.3.8.5.4c1.5-1-.5-4.4-3.5-6-1-.6-2.1-1.3-2.4-1.6s-4-2.1-8.3-3.9c-4.3-1.9-8-3.8-8.3-4.2-.3-.5-1.4-.9-2.5-.9-2.1 0-2.2-.1-1.3-2.4.3-.8 1.2-1.2 1.9-1 .8.3 3.5-1.5 6.2-3.9 2.6-2.5 7.3-6.6 10.3-9.2 5.5-4.7 7.9-8 6.7-9.1-.5-.5-21-5.3-24.7-5.7-1-.1-1.6 1.2-2.1 4.6-1.1 6.9-2 7.1-1.8.5.1-3-.1-5.9-.4-6.5-.3-.5.4-1.6 1.5-2.4 3-2 11.4-9.6 17.4-15.7l5.1-5.2-2.9-11.3c-1.6-6.1-4-14.8-5.3-19.3-1.4-4.4-2.5-8.3-2.5-8.7 0-1.3 1.7-.7 1.8.5.3 3.7 10.4 37.8 11.2 37.8.3 0 3.7-2.8 7.6-6.3 3.9-3.4 9.2-7.8 11.8-9.7 3.1-2.3 4.5-4.1 4.2-5.2-.2-1 0-2.1.5-2.4s.9-2.5.9-4.9.6-9.6 1.4-16.2c2.4-19.7 2.5-21.3 1-21.3-.7 0-8.7 3.9-17.6 8.7-9 4.7-17.5 9.3-19 10-1.6.8-2.8 1.8-2.7 2.1 0 .8 13.2 9.4 21.4 14 9.1 5.1 12.7 7.4 12.2 7.9-.3.2-4.5-1.9-9.3-4.7-12.5-7.2-12.4-7.1-18-11.2-2.8-2.1-5.4-3.8-5.7-3.8-.4 0-1.6.9-2.6 1.9-1.4 1.4-1.6 2.2-.8 3.1.9 1 .9 1.1 0 .6-.6-.3-2 .8-3.2 2.7-2.4 3.7-2.8 3.2-.6-.9.8-1.6 1.7-4.8 2.1-7.1.5-3.6 1.1-4.4 3.3-5 2.7-.6 22.3-10.4 34.5-17.3l6.9-3.8 1.7-6.9c3.7-15 5-20.9 5-23 0-2-.3-2.1-3.2-1.2-4.1 1.1-4.7.5-.9-1.1 1.6-.6 3.7-2 4.7-3.1.9-1 2.5-1.9 3.5-1.9.9 0 3.9-.9 6.5-2s5.2-1.9 5.7-1.7c.6.2-1.7 1.4-5.1 2.6-3.4 1.3-6.2 2.9-6.2 3.5s2.3 2.6 5 4.5c2.8 1.9 4.8 3.6 4.6 3.9-.5.4-6-3.2-8.4-5.5-2.8-2.7-3.9-1.3-5.6 6.9-1 4.6-2.4 11.2-3.2 14.8s-1.4 7.3-1.4 8.2c0 2.1 1 2.2 11.2.9 4-.5 12.8-1.5 19.6-2.2 8-.8 12.1-1.6 11.9-2.3-.2-.6-5.6-5.1-11.9-10.1-6.4-4.9-11.5-9.2-11.3-9.4.5-.4 9.4 6.1 15.1 10.8 5 4.2 9.6 7.6 10.5 7.6 1.3 0 10.4-12.7 16.2-22.8 3.1-5.3 7.1-11.8 8.9-14.5s4.6-7.1 6.1-9.7 3-4.5 3.3-4.3c.2.3-1.2 3.4-3.2 6.9-14.1 24.4-14.3 24.7-13.5 25.5.3.4.1.4-.6.1-.7-.4-1.7.5-2.5 2.3-.7 1.6-1.6 3-2 3-.5 0-.8.7-.8 1.5s-.4 1.5-1 1.5c-.5 0-1 .7-1 1.5s-.5 1.5-1.1 1.5c-.5 0-.7.4-.4 1 .3.5.1 1-.4 1-.6 0-1.1.7-1.1 1.5s-.4 1.5-1 1.5c-.5 0-1 .5-1 1.1 0 .8.4.8 1.3.2.7-.6 4.8-.7 10.2-.2 11.4.9 35.8 1.1 38 .3 1.3-.5 1.4-.8.3-1.5-.9-.6-.7-.9 1-.9 1.2 0 2.2-.5 2.2-1.1 0-.8.4-.8 1.3-.2 1.9 1.6 4.9 1.1 5.5-.9.2-1 .9-1.8 1.4-1.8.8 0-13-27.6-15.3-30.5-.4-.6-2.4-4.3-4.4-8.2-2-4-5-8.7-6.6-10.5-2.3-2.4-2.7-3.3-1.7-3.9 2-1.3 4.1-1.1 6.5.6M435.5 93.4c3.3 2.3 7.1 4.7 8.4 5.3 1.3.7 4.5 2.5 7.2 4 4.8 2.6 4.9 2.6 6.9.8 1.8-1.7 2-1.7 1.4-.2-.5 1.3 0 1.7 1.7 1.8 2.4.2 2.4.2.2.6-3.4.6-2.8 1.8 1.5 3.1 2 .6 4.6 1.8 5.7 2.7 1.4 1.1.4.9-3.5-.6-10.3-3.9-8.2-4.9-31.6 14.7l-12.1 10.1 5.3.2c4.9.1 5.4 0 6-2.4.4-1.7 1.3-2.5 2.8-2.5 2.6.1 6 2.5 5.2 3.8-.9 1.4 9 2.1 43.8 2.8 19.6.4 30.3 1 29.5 1.6-.8.5-12.9.8-28.8.6-18.3-.2-27.5 0-27.8.7-.2.7 2 1.2 5.4 1.3 3.2.1 6 .7 6.1 1.2.2.6 1.9 1 3.8 1 2.2 0 3.4.5 3.4 1.4 0 1.7 3.3 3.1 3.8 1.7.9-2.7 6.2.1 6.2 3.3 0 .9.5 1.6 1.2 1.6 1.4 0 5.8 4.8 5.8 6.3 0 .5 1.2.7 2.6.4 2.5-.4 2.5-.4-.8 3.1-4.3 4.7-1.8 2.8 11.5-8.6 6-5.2 11.1-9.2 11.3-8.9.5.5-15.1 15-26.6 24.9-4.1 3.5-9 7.8-10.7 9.5-3 3-3.1 3.2-1.3 3.8 2.7.9 4.2 3.9 3.4 7-.5 2-1.2 2.5-3.6 2.5-1.6 0-4.2-.7-5.7-1.5-2.5-1.2-3.1-1.3-4.1 0-.6.7-1.7 1.2-2.4.9s-2.9 1.1-5 3.1c-4.2 3.9-4.4 3.7 5.5 5.9 8.5 1.9 14.9 3.9 14.9 4.7 0 .3-4.6-.5-10.2-1.8-12.9-2.9-13.2-2.9-12.5-.1.6 2 .4 1.9-1.9-.6-2.9-3.1-4.5-3.1-21.4.2l-8.5 1.7.3 3.6c.2 2.7-.1 3.8-1.4 4.3-2.2.9-4.4-1.1-4.4-4 0-3-1.5-3.1-14.6-.5-11.5 2.3-18.5 3.6-30.4 5.7-4.7.8-10.9 1.9-13.7 2.5-5 1-5.2 1.1-3.5 2.9 2.5 2.7 18.6 14.9 36.2 27.3 14.1 10.1 23.7 17.3 25 18.8.3.3 4.1 3 8.5 6 11.5 7.9 21.4 15.3 21.5 16.1 0 .4-4.5-2.5-10.1-6.5-5.5-4-11-7.9-12.2-8.7s-8.5-6.2-16.2-12-15.8-11.7-18-13.2c-8.3-5.7-17.7-12.5-27.4-20.1L357 219v7.7c.1 4.3.5 21.7 1.1 38.8.5 17 1 37.4 1.1 45.3.1 12.7.3 14.3 1.7 13.8.9-.3 5.2-1.7 9.6-3.2 37.1-12.5 48.7-16.4 53.5-17.8 3-.9 8.7-2.9 12.5-4.5 3.9-1.5 9.5-3.3 12.5-4 8.9-2 8.7-1.9 5.5-4.8l-3-2.5 2.8 1.6c1.5.9 3.2 1.4 3.7 1.1.6-.3 1 .1 1 .9 0 .9.8 1.5 1.8 1.4.9-.1 3.7 0 6.2.2 3.4.2 2.3.5-4.5 1.1-10 1-9.8.9-60.5 18.2-35.7 12.1-44.7 15.6-40.6 15.7 1.9 0 1.9 0 .1 1.4-1.4 1-2.2 3.7-3.2 11.7-.7 5.7-1.5 11.6-1.7 13.1-.3 2 0 2.5 1 2.1 1.3-.5 1.9-4.1 1.4-8.8-.2-1.9-.1-1.9 2.1.2 2.1 2.1 2.1 2.3.6 6.2-1 2.5-1.3 4.2-.7 4.6 1.6 1 1.1 2.3-1 3-1.1.3-2 1-2 1.5 0 .4 2.3-.3 5-1.6 2.8-1.3 5-2.9 5-3.6 0-.6.3-.9.6-.5.3.3 2.4-.4 4.7-1.6 2.2-1.1 3.5-2.3 2.8-2.5-.6-.2-1.8.1-2.5.8-1 .7-1.6.8-2.1 0-.3-.5.1-1 1-1s1.3-.5 1-1c-.8-1.3.1-1.3 2.5 0 1.2.6 2.9.6 5.1-.2l3.4-1.2-3-1.2c-1.8-.8-2.3-1.3-1.2-1.4.9 0 1.7-.4 1.7-.9s1.1-.9 2.5-.9 2.5.4 2.5.9-.5.9-1.2.9c-.6 0-.9.3-.6.6.9.8 6.8-2.5 6.8-3.8 0-.6.3-.9.6-.5.3.3 2.4-.4 4.5-1.5 3.3-1.7 3.8-2.3 2.7-3.5-1.1-1.4-.9-1.5 1.8-.9 3.1.7 6.3-1.1 13.9-7.9 1.7-1.4 7.9-7 14-12.3 6-5.3 12.5-11.4 14.6-13.5 2-2 4-3.7 4.6-3.7.5 0 1.8-.9 2.8-2s2.3-2 2.9-2 .5.5-.2 1.2c-1.5 1.5-1.6 3.8-.2 3.8 1.8 0 5.3-3.8 4.5-4.9-.3-.6-.2-1.1.2-1.1.9 0 3.3 9.1 3.3 12.3 0 1-.4 1.5-1 1.2-.5-.3-2.1.5-3.4 1.9-3.3 3.7-5 3.2-8.1-1.9-2.5-4.4-2.7-4.5-4.8-3-3.9 2.7-34.7 30.8-34.3 31.3.3.2 2.9-.1 5.8-.8 2.9-.6 13.9-2.9 24.3-5.1 24.1-5 22.5-4.4 22.6-8.2.2-3 .2-3.1.6-.5.6 3.6 2.4 3.5 7.8-.2 2.4-1.7 4.8-3 5.3-3s2.2-1 3.8-2.2c2.1-1.6 2.5-1.7 1.5-.5-.8 1-3.1 2.7-5 3.8-2 1.1-5.6 3.2-8.1 4.8-2.5 1.5-5.2 2.8-6 2.8-4 .1-54 11.1-54 11.9 0 .3.7 1.7 1.6 3.2l1.6 2.7-2.4-2.8c-1.3-1.5-2.9-2.7-3.6-2.7-.6 0-5.3 2.4-10.4 5.3-5.1 3-15.1 8.4-22.3 12.1-13.6 7-17.2 9.2-16.3 10.1.3.3 6 1.7 12.7 3.2 6.6 1.4 11.9 2.8 11.7 3-.2.3-5.3-.5-11.3-1.8-5.9-1.2-12.3-2.3-14.1-2.3l-3.3-.1-5.2 15.2c-2.8 8.3-5.3 15-5.5 14.8-.3-.3 6.5-22.7 8.6-28.4.7-1.9-19.2 8.6-22.4 11.7-1.3 1.4-2.4 2.8-2.4 3.3 0 .8-3.4 2.1-6 2.3-1.8.1-13.1 5.8-12.6 6.4.2.2 4.6 1.4 9.7 2.7 5.2 1.3 12.1 3.1 15.4 4 4.5 1.3 6.4 1.4 7.7.6 1.9-1.2 2.4.1 1.2 3.3-.6 1.5-.8 1.5-1.8.2-1.1-1.5-9.3-3.9-26.1-7.8-7.3-1.7-9.8-1.9-13.5-1.1-6.8 1.6-20.3 5.2-22 6-.8.4-2.2.7-3 .8s-4.2 1-7.5 2-6.6 1.9-7.3 2.1c-.8.3-1.1 1.2-.8 2.6.3 1.3.3 1.7 0 1-.3-.6-1-1-1.5-.6-.5.3-.9-.2-.9-1 0-1-1.9-2.1-5.2-3.1-7.9-2.3-8.2-2.2-5.3 3.5 1.4 2.7 2.1 5 1.5 5-.5 0-1-.7-1-1.5s-.9-2.4-2-3.5c-1.3-1.3-2.2-3.8-2.5-6.8-1.2-13.7-3-26.2-3.7-26.2-.4 0-1 .5-1.3 1-.4.6-1 .8-1.5.5-1.5-.9-2.8 1.9-5.9 12.9-4 14.2-4 15.1.2 14.1 1.7-.3 5-.8 7.2-1 2.2-.3.7.3-3.2 1.2-5.5 1.2-7.3 2-7.3 3.2 0 .9.5 2.2 1.1 2.8 1 1 8.4 17.4 13.6 30.1 1.4 3.4 3.8 7.3 5.3 8.6 1.8 1.5 2.5 2.7 1.9 3.3-.9.9 8.1 14.9 13 20.1 2.1 2.3 2.8 4.2 1.4 4.2-.5-.1-2.6-2.8-4.8-6-11.7-17.5-11.3-16.9-12.6-15-.8 1.1-.9.9-.3-.9.5-1.8-.7-5.2-4.4-13-2.8-5.8-5.9-12.6-6.9-15-3.3-8.1-7.3-15.6-7.3-13.7 0 1.1.6 4.7 1.4 8 .8 3.4 2.6 12.8 4.1 20.9 4.3 24.9 5.1 27.7 6.9 23.1.4-.9.9-1.4 1.2-1.1s-.1 1.6-1 2.9c-2.1 3.2-.9 15.2 2 20.6.1.2 1.8-.7 3.8-1.9s3.9-1.9 4.2-1.7c.2.3-1.1 1.3-3.1 2.2-2 1-3.8 2.3-4.1 3.1-.3.7 2.5 5.9 6.3 11.6 3.7 5.7 6.8 10.8 6.8 11.4 0 .5.7 1.6 1.5 2.3 1.2 1 1 1-1.1.1-2.2-.9-3.2-.6-7.3 2.3-2.6 1.8-6 4-7.5 4.8s-3.8 2.3-5.1 3.3l-2.5 1.7 5.5 4.8c10.7 9.2 12.4 11.3 4 4.8-7.4-5.7-8.5-6.3-8.8-4.6-.4 2.5-2.2 1.6-2.2-1 0-2.8-1.2-3.1-6.3-1.2-3.9 1.4-4.6 2-4.1 3.7.4 1.8.4 1.8-.6.2-.8-1.2-1.8-1.5-3.8-1.1-2.6.6-2.6.6-.7-.9 1-.8 2.5-3 3.2-4.8l1.3-3.4-.5 3.3c-.4 3.1-.3 3.3 1.8 2.7 1.2-.4 3.2-1.3 4.4-2.1l2.2-1.4-2.2-3.5c-2.6-4.1-3.2-4.2-4.2-1.3-.3 1.3-.9 1.8-1.1 1.1-.3-.7 0-2.2.6-3.3 1.5-2.7.7-3.6-1.3-1.5-.9.8-2.3 1.5-3.1 1.5-.9 0-1.6.6-1.6 1.3s-1 1.7-2.2 2.2c-1.3.6-3 3-4.1 5.5-1.9 4.7-1.7 3.4.9-6.4 1.6-5.8 1.6-5.8-.9-8.5-2.9-3.2-5.7-7.3-5.7-8.4 0-1.4 3.4 2.4 3.6 4.1.4 2.4 3.3 4.9 4.2 3.6.4-.6 2.7-1.4 5.2-1.7 4.4-.6 4.4-.6 1 .4-6.2 1.9-6.6 2.3-3.5 2.7 1.7.2 3.4.7 3.9 1.2.4.4 2 .4 3.6 0 1.5-.4 3.4-.4 4.1.1 1 .6 1.1.9.2.9-2 0-1.6 1.2 1.8 5.3l3 3.7 7.5-4c4.1-2.2 8.6-4.7 10-5.7l2.6-1.7-3.8-1.3-3.9-1.3 4.8.5c2.7.3 4.7 0 4.7-.5 0-.6-2.8-5.3-6.2-10.5-4-6.2-6.5-9.1-7.2-8.6-.6.5-3.8 4.6-7.1 9s-6.6 8.1-7.4 8.1c-1.3 0-16.3-12.4-16.9-14.1-.2-.4-1.1-.5-1.9-.2-1.3.5-1.5.2-.9-1.3 1.8-4.5 2.6-8.3 3.7-18.1l1.1-10.3-3.1-3.6c-3.5-3.9-3.8-4.6-1.6-3.8.8.4 1.5 1.2 1.5 1.9s1.1 2 2.5 2.9c2.6 1.7 2.6 2.9.5 17.4-.9 6.4-.2 5.8 3.8-3.3 1.7-3.9 4.2-9.6 5.5-12.7 1.9-4.3 2.3-5.9 1.3-6.7-1.3-1.1-14.8-4.1-18.4-4.1-1.3 0-3.6-.9-5-2.1-1.5-1.1-6.5-4.5-11.1-7.5-6.9-4.4-8.7-5.2-10.3-4.3-1.7.9-1.9.8-1.3-1 .5-1.5.2-2.1-.9-2.1-.9 0-1.6-.5-1.6-1.1 0-.5.4-.7 1-.4 1.2.8 5.6-6.2 9-14.5 1.5-3.6 4.9-11.2 7.5-17 8.4-18.5 9.5-21 9-21-.2 0-1.3 1.7-2.4 3.7-1.1 2.1-2 3.3-2 2.8 0-.9 1.6-4.4 6.2-13 .8-1.7 3.5-7.1 5.9-12 4.1-8.6 4.3-9.5 4.5-19.2.1-7.2-.3-11.8-1.4-15.5-.9-2.9-1.6-5.6-1.5-6.1.1-.4-.2-.7-.7-.7-1.3 0-4.2-8.5-3.5-10.4.4-1.1.2-1.6-.7-1.4-2.3.5-2.2-7.1.1-22.5 1.2-7.8 2.4-17.1 2.6-20.7 1-13 2.5-22.8 4.4-28.1 2.6-7.2 2.6-2.7 0 5-1.6 5-1.9 8.6-1.9 23.1 0 9.5-.3 17.5-.6 17.8s-.6-1.7-.6-4.4c-.1-3.6-.6-1.6-2 7.6-1.3 8.8-1.6 13.2-.9 14.8.6 1.3 1 3.4 1 4.8 0 2.8 2.4 11.2 4.5 15.9l1.3 3-.5-4c-.3-2.2-1-4.8-1.4-5.7-.5-.9-.8-3.6-.8-6 .1-2.6.4-3.4.6-1.9.4 1.9.7 2.1 1.5 1 .7-1 .8-.6.3 1.5-.5 2.6.1 3.6 5.7 9.3l6.3 6.3 1.3-3.2 1.2-3.3-.4 3.7c-.5 4.1-.4 4.2 5.7 3.2 3.8-.7 4.5-1.9 2.8-5.2-2.7-5.2-5.4-12.3-4.9-12.8.3-.3 2.1 2.7 3.8 6.5 1.8 3.9 3.6 7.1 4.1 7.1.4 0 1.7-2.4 2.8-5.3 1.8-4.5 2-4.7 1.5-1.6-.6 3.9.8 5.8 2.9 4 .7-.6 3.2-1.2 5.5-1.3 2.3-.2 4.2-.7 4.2-1.2 0-1.7-6.9-15.1-9-17.5s-2.2-2.4-5.3-.7-3.1 1.7-1-.1c2.9-2.3 5.8-7.7 6.7-12.3.4-1.9 1.4-5.6 2.3-8.3.8-2.6 1.7-6.4 2-8.5.6-4.4.4-18-.3-20.5-.7-2.1-2.4-2.3-2.4-.1 0 .9-.6 3-1.4 4.7-2.2 4.7-9.6 22.9-9.6 23.4 0 .3.8.2 1.7-.1 1.3-.5 1.1 0-.6 1.8-2.3 2.4-2.3 2.7-.8 4.4 1 1 1.7 2.3 1.7 2.9s.9 2.3 2.1 3.9c2 2.7 1.9 2.7-.7-.2-1.6-1.8-3.7-4.2-4.6-5.4l-1.7-2.3-5.6 4.8c-6.8 5.9-8.4 8.4-6.1 9.7 2 1.1 2.1 2.9.2 2.2-.8-.3-1.6 0-1.9.8-.2.7-.2.2 0-1.1.3-1.8 0-2.2-1.2-1.7-1.3.4-1.4.2-.5-1.4.5-1 1-4 1-6.6 0-5.1 1.1-5.6 1.2-.5.1 3.8 1.4 3.2 8.4-4.1 3.7-3.9 6.1-7.7 8.8-14.3 2.1-5 4.9-11.6 6.4-14.7 1.4-3.2 2.4-6 2.1-6.2-.3-.3-2.8 3.6-5.7 8.7-6.5 11.5-15.7 26.6-16.7 27.5s6.4-12.8 8-14.8c1.5-1.9 9.5-16 9.5-16.7 0-.4 1-2 2.3-3.7 3.2-4.4 5.1-8.5 4.4-9.2-.4-.4 0-1.2.8-1.8 1.6-1.2 3.1-6.1 7.6-25.6 1.6-6.9 3.3-13.6 3.8-15s1.2-3.9 1.5-5.5l.6-3-3.6 4c-2 2.2-4.8 5.8-6.2 8s-8.4 11.7-15.4 21.1-12.8 17.7-12.8 18.3c0 .8 2 1 6.8.7l6.7-.5-6 .9c-11 1.7-10.3.4-10.4 19.6-.1 9.2-.4 17-.6 17.3-.8.7-1.1-27.2-.5-40.4.2-3.5.3-3.7 1-1.5.5 1.9.9 2.1 1.3 1 .9-2.1 14-40.1 18.4-53 1.9-5.8 3.9-11 4.5-11.5.8-.7.9-.4.3 1-.4 1.1-2 5.8-3.5 10.5-2.9 8.8-16.3 47.2-17.5 50.2-1.5 3.7 1.1 1.5 4.8-4 4-5.9 14.6-21 19.4-27.4 7.2-9.6 14.3-19.7 14.3-20.2 0-.3.8-1.5 1.8-2.6.9-1.1 3.1-4.4 4.7-7.3 1.7-2.9 6.7-10.9 11.3-17.7 4.5-6.8 8-13 7.8-13.7-.3-.7-.1-1.3.5-1.3 1 0 5.8-4.1 22.3-19 3.9-3.6 9.1-8.2 11.5-10.3 2.3-2.1 4.1-4.1 3.8-4.3-.4-.4-21.4 10.4-49.1 25.3-6.5 3.5-12 6.2-12.3 6-.5-.5 10.2-6.4 31.7-17.5 8-4.1 19.2-9.9 25-13l10.4-5.5 6.6 2.1c3.6 1.1 12 3.5 18.8 5.3l12.3 3.3 5.7-5.5c11-10.5 14.7-13.3 5.9-4.5-4.8 4.8-8.6 9.1-8.3 9.4.6.5 12.7-.9 39.1-4.4 6.1-.9 13.2-1.7 15.9-2 6.4-.6 24.9-3.4 25.3-3.8.2-.2-2.2-1.8-5.4-3.6-7-4-20.3-12.9-20.3-13.6s1.1 0 8.5 5m513 222.8c.4.3-.9 2.8-2.7 5.5-3.9 5.6-8.8 13.8-8.8 14.8 0 .4.9.5 2.1.2 1.5-.4 1.1.4-1.9 3.7-2.1 2.3-4.4 5.1-4.9 6.1-1 1.7-1.3 1.7-2.8.5s-1.9-1.2-3.1.5c-.8 1-1.4 2.5-1.4 3.2 0 2 2.8 2.7 4.5 1.3 1.2-1 1.5-.9 1.5.8 0 2.6-1 3.3-3.8 2.5-2.8-.7-3.3-2.6-3.6-13.4-.2-4.9-.6-9.2-1-9.6-.4-.5-2 .8-3.6 2.7s-3.2 3.2-3.5 2.8c-1.1-1.1 5.1-6.8 7.3-6.8 1.7 0 4.4-3.8 4.6-6.4.1-.5 1-1 2.1-1.2s2.1-.8 2.3-1.3c.2-.6.9-1.1 1.5-1.1.7 0 2.3-.9 3.7-2 2.5-1.9 2.5-2 .3-2-1.2 0-2.7.8-3.2 1.7-.9 1.6-1 1.6-1.1-.4 0-1.2.5-2.3 1.1-2.5 1.9-.6 13.7-.3 14.4.4m.8 54.3c.4 2.2.3 3.4-.1 2.7-.9-1.4-1.9 2.3-5.8 21.8-1.4 7.4-2.9 14.2-3.2 15s-.6 1.9-.6 2.5c-.2 2-3 8.5-3.7 8.5-1.4 0-.1-7.7 2-11.5 2-3.9 2.8-7.5 1.4-7.5-1.1 0-7.7 5.1-11 8.6-2.8 3-3.1 3.9-3 8.9.2 5.5 1.9 7.5 3.1 3.7.8-2.4 5.6-8.9 5.6-7.5 0 2.5-5.4 10.5-8.1 11.8-3.4 1.8-4 1.9-3.4.2.5-1.2-8.2-7.7-10.3-7.7-.7 0-1.2.9-1.2 2.1 0 1.1-.4 1.8-.9 1.5-.9-.6.2-8.4 1.9-12.6 1.5-4 1.8-8.4.6-9.9-.9-1.2-.8-1.3.6-.8 1 .3 1.7.3 1.6-.1s.6-2.1 1.5-3.7l1.8-3-.7 4c-.3 2.2-.7 4.5-.8 5.2s-.5 1.6-.9 1.9c-.4.4-.7 1.4-.7 2.3 0 1.4.2 1.4 1 .1.7-1.2 1.6-1.2 5.9-.1 4.7 1.2 5.3 1.1 8.3-.8 4-2.5 7.8-5.7 7.8-6.5 0-.3-3-.7-6.7-.9-5-.2-6.2-.5-4.5-1.1 1.8-.7 2.2-1.7 2.4-5.5.1-2.5.1-5.7 0-6.9-.1-1.6.3-2.2 1.3-1.9.8.4 1.5-.4 1.9-1.9.9-3.3 3.2-3.1 3.1.3 0 2.1.5 2.9 2.1 3.1 2.1.3 4.2 4.2 2.3 4.2-.4 0-.6.7-.3 1.5 1.1 2.9 2 1.5 3.7-5.8 1.9-8.2 2.3-13.4 1.2-16-.4-.9-.3-1.7.3-1.7.5 0 1.3-1 1.6-2.3.7-2.1.7-2.1 1.5-.2.4 1.1 1.1 3.8 1.4 6m-279.2 68.2c-1.2 1.6-6.2 8.5-11.2 15.5-5 7.1-9.5 12.8-10 12.8-1.7 0-.9 1.6 3.1 6 2.2 2.5 4.9 6.1 6 8s2.8 4.6 3.9 6l2 2.5.9-2.5c.5-1.4 1.6-4.1 2.4-6s2.1-5.9 2.7-8.8c.7-2.8 1.7-5.2 2.2-5.2.4 0 .7.6.4 1.2-3.8 12.3-6 18.5-6.8 19.6-1.6 2.1 2.7 30.1 5.6 35.5l1.5 2.8.6-3.8c.4-2.1 1.8-7.3 3.2-11.6 2.7-8.6 6.3-24.6 7-31.9.4-3.4 0-6-1.5-9.5l-2.1-4.8 2.5 3c1.4 1.6 3.2 2.9 4 2.7 1.7-.3 2 1.3.5 2.3-1.7 1-1.1 2.1 1.8 3.2l2.7 1.2-2.7-.6c-2.2-.4-2.8-.1-3.3 1.9-.3 1.2-1.8 8.6-3.5 16.3-1.6 7.7-3.8 16.9-5 20.5-1.1 3.6-2 8-2 9.8 0 3 .2 3.3 2.3 2.7 2.1-.5 2.1-.5-.3 1.2-1.3 1-3.1 2.6-3.9 3.5-2.1 2.4-4.1 2.3-4.1-.3 0-1.1-2.1-4.3-4.7-7.1-2.7-2.8-6.5-6.9-8.5-9.1-2.1-2.2-3.8-4.2-3.8-4.5 0-.2.8-2.1 1.9-4.1 1-2 2.6-5.4 3.6-7.6s2-3.4 2.2-2.7c.3.7.1 1.8-.5 2.5-.5.7-1.7 3.6-2.7 6.5l-1.7 5.3 2.5 3.2c1.4 1.8 4.6 5.4 7.2 8.2 5.3 5.8 5.2 7.4 1.1-14.5-2.7-14.3-6.7-24.2-12.6-31.1-2.8-3.2-2.9-3.3-3-1.1 0 1.3.6 4.7 1.4 7.5 1.8 6.4 2.8 13.2 1.8 12.2-.7-.7-2.8-10.8-3.8-18.8-.7-5.3-2.4-6.8-4.9-4.3-2.4 2.3-2.8 2-.9-.9 1.7-2.6 1.2-4.5-1.2-4.5-.9 0-5-1.4-9.2-3.1-10.6-4.3-29.6-10.8-30.1-10.4-.2.3.1 1.7.7 3.2s1.3 4.6 1.6 6.8c.5 3.9.5 3.9-1.2-1-.9-2.8-2.1-5.6-2.6-6.3-.4-.7-.5-1.6-.2-1.9s-.1-1.5-.9-2.7c-.8-1.1-1.5-3-1.5-4.1.1-1.8.1-1.9 1.1-.3.5 1 1.7 1.8 2.4 1.8.8 0 1.5.6 1.5 1.4 0 1.6-.4 1.4 14.5 6.7 6.1 2.2 12.4 4.6 14.2 5.4 1.7.9 4.6 1.8 6.3 2.2l3.2.6-2.7-5.4c-1.5-3-3.6-6.4-4.8-7.7-1.1-1.2-1.6-2.2-1-2.2 1 0 6.3 7.3 6.3 8.6 0 1.5 5.1 7.4 6.2 7.1 2.3-.4 7.1-5.3 11.4-11.7 9.5-13.9 12.6-18 13.6-18 .5 0 0 1.2-1.1 2.7m-24.4 93.4c-.5 2-.3 2.1 10.8 1.7 6.2-.1 11.1 0 10.8.4-.2.5-1.9.8-3.8.8-1.8 0-4.1.3-5.1.7-2 .8 14.9 4.7 24.9 5.8 3.7.3 6.5 1.1 6.2 1.6-.4.5 1.4.9 3.8.9s7.3.3 10.8.7c5.9.6 6.3.5 5-1-1.2-1.5-1.1-1.7 1.1-1.7 1.3 0 2.9.5 3.5 1.1 1.1 1.1 17.2 1.4 22.2.4 1.1-.2 6.4-.7 11.8-1 5.4-.4 10.9-.9 12.3-1.1 11.7-2.1 14.9-2.5 17.6-2.1 1.7.3 3.7.2 4.4-.3.8-.5-.9-1.1-4.6-1.5-8.3-1-13.8-2.6-6.4-2 12.3 1.2 17.3.9 18.7-1.1 2.1-2.9 3.7-.4 1.9 3-.8 1.6-1.7 2.3-2.1 1.7-.9-1.5-2.7-.4-15 8.8-8.7 6.6-10.1 8-9.3 9.5.9 1.6.8 1.6-1.2.6-1.7-.9-3.5-.7-9.3 1.4-4 1.4-12.6 3.7-19.2 5.1s-13.7 3-15.7 3.4c-5.2 1.2-13.2.7-20.7-1.2-3.5-1-9.7-2.4-13.9-3.3s-9.5-2.7-11.8-4c-4.5-2.7-6.9-3.1-6.1-1.1.3.7-.3 1.3-1.2 1.3-1.2 0-1.6-.7-1.4-2.1.3-1.4-1.7-4.1-7-9.4-4-4-8.6-8-10-8.8-1.5-.7-3.1-2.2-3.6-3.2-1.1-2-.4-6.1 1.1-6.1.6 0 .8.9.5 2.1m31.3 64.3c0-.8.5-1.4 1-1.4.6 0 1 .9 1 1.9 0 2.3 2.5 3.4 5 2.1 1.3-.7 2-.6 2.3.3.5 1.6 25.9 3 26.9 1.4.4-.7 1.1-.7 2.2.2 2.1 1.8 29.2 1.1 28.9-.7-.2-.8.7-1 2.7-.5 2.5.4 3 .2 3-1.3s.2-1.6.9-.5c.8 1.2 1.4 1.3 3.5.3 3.6-1.6 3.3 0-.4 2.1-1.7 1-3 2.7-3 3.8 0 2.1-1.6 2.6-2.3.6-.2-.8-1.8 0-4.5 2.3-7.9 6.7-11 9-11.9 9-.5 0-2 1.2-3.4 2.6-2.9 3.2-11.3 8.9-18.2 12.6l-5.2 2.7 3.2-2.7 3.3-2.7-9.8-8c-21-17.3-25.9-21.2-30.9-24.4-6.9-4.3-6.8-5 .2-1.3 4 2.2 5.5 2.6 5.5 1.6m-19.1 28.1c11.2 12 20.3 20.7 20.9 20.1.3-.3.8-3.4 1.3-6.8l.7-6.3-.1 7.3c-.1 3.9.2 7.2.6 7.2.5 0 1.8-.5 3-1.1 2.2-1.2 2.2-1.2.3 1-1.2 1.3-1.6 2.5-1 3 .5.5 5.2 2.1 10.4 3.6 9.1 2.6 13.7 4.4 11.5 4.5-2 0-21.2-5.8-24.1-7.3-3.5-1.9-8.6-6.8-22.4-21.7-10.1-11-17-19.2-17-20.5 0-.3 2.1 1.8 4.7 4.7 2.5 2.9 7.6 8.4 11.2 12.3m-141.4 32.7c-.4 1.8-1.6 5.7-2.6 8.7s-1.7 5.6-1.5 5.9c.9.9 2.5-.9 2-2.2-.7-1.9 4.5-5.3 7.9-5.2 1.5.1 2.7-.2 2.7-.6 0-.3 1.5-.8 3.3-1 2.6-.2 3.6.3 5.5 2.6 1.2 1.7 2.2 3.6 2.2 4.3s.9 1.7 2 2.3 2 1.7 2 2.5.5 1.5 1.1 1.5c.7 0 .9 1 .5 2.7-.3 1.6-1.2 6.3-2 10.6-.7 4.3-1.6 8.1-2 8.4-.6.7.2-9.9 1-12.5.2-.9-.3-.8-1.9.2-1.2.8-5.1 2-8.7 2.6-3.5.6-7.7 2.1-9.3 3.2-2.7 1.9-2.8 2.4-2.2 6.7l.6 4.6-4-6.5c-2.1-3.6-4-7-4.1-7.5-.1-.6-.7-1.3-1.5-1.7-1.3-.8-2.6.4-24.7 21.9-13.5 13.1-8.4 6.5 7.7-10.1 8.5-8.8 15.5-16.3 15.5-16.8 0-.4-.6-.8-1.2-.9q-1.5 0 0-.6c.6-.2 1.3-2.3 1.3-4.6.1-2.3.3-3.4.6-2.5.5 1.9 2.2 2.5 2.4.8.2-1.4.4-2.1 1.3-5 1.1-3.6 6-15 6.4-15 .2 0 0 1.5-.3 3.2m687.7 18.3c1.1 1.4 2.3 2.3 2.7 2 .5-.2 1.3.7 2 2.1 1.6 3.5 1.3 5.4-.4 2.4-.8-1.4-1.4-2.1-1.5-1.6 0 1.7 2.4 9.1 3.3 10.1.7.7.8.6.3-.3-.4-.7-.1-1.5.7-1.8.7-.2 2.4-3.8 3.7-7.9 1.8-5.7 2.8-7.5 4.2-7.5 1.6 0 1.4.9-1.6 9.2-1.8 5.1-3.6 10.9-4 12.9-.5 3.1-1 3.6-3 3.2s-3-2.2-6.5-11.8c-2.3-6.2-4.1-11.7-4.1-12.4 0-1.9 2.1-1.2 4.2 1.4m20.8 5.1-.8 3.6 1.9-2.1c2.3-2.5 4.4-2.6 7.9-.6 1.4.8 3.2 1.7 4 2.1s2.2 1.3 3.1 2c1.3 1.2 1.8 1 3.7-1.5 3-4.1 7.2-4.8 12.5-2.1 5.7 2.9 8.5 5.7 9.2 9.1.7 3.3-1.8 9.4-4.3 10.4-1.1.4-.8-.3.8-2 3.1-3.3 3.3-9.4.6-12.4-1.1-1.2-2.1-1.9-2.4-1.6s.2 1.3 1 2.2c.9 1 1.8 2.9 2.1 4.3.6 2.3.5 2.2-.5-.3-1.4-3.1-2.8-3.6-2.8-.8 0 2.5-4 7.3-5.6 6.7-.8-.3-1.1 0-.7 1 .9 2.3 5 1.6 7.2-1.2 1.2-1.5 2.1-2.3 2.1-1.8 0 1.6-4.4 5.4-6.2 5.4-1.1 0-2.9-.5-4.1-1.2-2-1-2.1-1-.8.5 2.3 2.9.4 1.9-5.1-2.6-4.5-3.6-5.8-4.2-8.3-3.6-1.6.4-2.5.7-2 .8.6.1-.3 1-2 2.1-2.4 1.6-2.6 2-1.3 2.5 1 .4 3.1-.1 4.7-1.1 1.7-1 3.3-1.5 3.7-1.1.9.8-2.5 4.7-4 4.7-.6 0-.3-.5.7-1.1.9-.5 1.7-1.4 1.7-2 0-.5-1.1-.2-2.5.7-1.6 1-3.4 1.4-5.1 1-1.8-.5-2.4-.3-1.8.5.9 1.5-.7.6-5.4-2.9-2.2-1.7-3.1-3-2.7-4.1.3-.8.3-1.2-.1-.9-1.4 1.5-3.6-2.2-3-5 .5-2 .4-2.3-.4-1.2-.7 1.1-1 1.1-1 .2 0-.7.7-1.5 1.5-1.8.8-.4 1.5-1 1.5-1.6 0-.5-.4-.6-1-.3-.6.4-.7-.1-.3-1.1.4-1.1.8-1.3 1.1-.6.2.7.8 1 1.3.6 1.3-.8 1.1-4.2-.3-4.7-.7-.3-.3-.6.8-.6 2-.1 2.1.2 1.4 3.5"/><path d="M806.6 90.1c-2.1 1.1-10.4 6.4-18.5 11.8-8 5.4-16.1 10.6-17.8 11.7-1.8 1-3.3 2.2-3.3 2.6s2.6.8 5.8.9c3.1 0 6.4.2 7.2.3.8.2 8.2.7 16.5 1 8.2.4 15.3 1 15.7 1.2.7.5 1.5-20.2 1-27.4-.4-4.8-1.1-5.1-6.6-2.1M815.2 103.8c.2 10.8.7 15.4 1.7 16.6 2.3 2.8 36.6 19.4 37.8 18.2.7-.7-24.4-32.6-25.7-32.6-.5 0-2-2-3.4-4.3-1.3-2.4-3.9-5.8-5.5-7.6-1.7-1.8-2.8-3.7-2.5-4.2s-.2-.9-1.1-.9c-1.5 0-1.6 1.6-1.3 14.8M677.5 119.6c-1.6.2-8.4.9-15 1.4-17.8 1.6-17.1 1.4-17.9 6.3-.4 2.3-.9 9.4-1.2 15.7-.2 6.3-.9 13.7-1.5 16.3s-.8 5.1-.5 5.5c.6.6 30.6-29.3 40.8-40.6l4.6-5.2-3.1.1c-1.8.1-4.5.4-6.2.5M775.1 121.9 773 124l2 2c1.1 1.1 2 2.4 2 3 0 .5.5 1 1.1 1s2 1.1 3.1 2.5c1 1.3 2.4 2.4 3 2.2.6-.1 1.4.9 1.7 2.2.4 1.3 1.5 2.8 2.6 3.2s1.4.8.6.8c-1.1.1-1.1.4-.1 1.6.7.8 1.6 1.5 2 1.5 1.4 0 9 7.2 9 8.5 0 .7 1.6 2.9 3.5 4.9 2.9 3.1 3.8 3.5 5.5 2.6s2-2.1 2-8.6c0-6.4-.2-7.5-1.5-7-.8.3-1.5.2-1.5-.3s-.9-1.1-2-1.4c-1.3-.3-2-1.4-2-2.9 0-1.2-.7-3.2-1.5-4.3-1.3-1.7-1.9-1.8-4.5-.8s-3.2.9-4.5-1c-1.8-2.5-1.3-3.2 2.8-3.3 8.3-.3 10.3-.5 11.7-1.4 1.3-.9 1.3-1.1 0-2.1-1.1-.8-1.2-1.2-.2-1.6.6-.2 1-.9.6-1.4-.3-.5 0-.9.5-.9.6 0 1.1.4 1.1.9s.7 1.1 1.5 1.5c1 .3 1.5-.1 1.5-1.3 0-2-2.7-2.4-24.6-3.7-10.5-.6-11.3-.5-13.3 1.5M816 127.2c-1.5 3.9-2.7 40.2-1.3 39.7 7.2-3 42.3-21.7 42.3-22.5 0-.7-8-5.1-17.7-9.9-9.8-4.7-18.6-9.1-19.5-9.6-2.5-1.3-2.5-1.3-3.8 2.3M632.5 176.2c-1.6 1.2-5.7 4.7-9 7.8s-6.8 6.1-7.8 6.7c-1.8.9-1.8 1.4.8 12.8 1.4 6.4 2.4 11.9 2.1 12.2-.5.5-1.2-1.7-2.1-6.7-1.2-6.9-3.9-15-4.9-15-2.8.1-20.4 18.6-19 20 .5.5 3 1.4 5.4 1.9 21.9 4.4 20 4.3 22 1.8 1-1.2 2.1-3.4 2.4-4.8.3-1.5 1.1-3.3 1.8-4 .7-.8 3.6-8.2 6.3-16.4 3.7-11 5.1-14.2 5.3-12.1.2 1.6 0 3.2-.5 3.5s-1.5 2.6-2.2 5.1c-1.6 5.6-7.1 20.1-9.1 24.1-.5.9-1.2 3.2-1.5 5.1-.7 3.6-.9 3.4 6.5 6.7 1.4.6 3.3 1.6 4.2 2.3s1.9 1 2.1.8c1-1 2.9-44 2.2-47.6-.5-2.1-.7-4.5-.6-5.2.3-1.7-1-1.5-4.4 1M639.1 201.2c-.8 17.1-.9 27.3-.3 27.7.6.3 11.3.2 23.8-.3 12.6-.5 22-1.2 20.9-1.5-1.3-.4-2-1.4-1.9-2.9.1-1.6-1.7-4.2-5.3-8-3-3.1-8.2-9.3-11.6-13.6-3.4-4.4-7.1-8.9-8.2-10-1.1-1.2-2.9-3.5-4-5.2-2.1-3.2-7.9-10-10.6-12.1-1.3-1.1-1.7 2-2.8 25.9M815.5 177.8c1.3 6 12.2 37.6 13.1 37.9 1.4.5 10.4-20.7 10.4-24.5 0-1.1-21.9-16.2-23.4-16.2-.4 0-.5 1.2-.1 2.8M812.2 191.7c-.1 6-.5 16.3-.8 22.9-.4 8.4-.3 12.4.5 12.8.9.6 15.1-6.8 15.1-7.8 0-.9-10.4-31.3-11-32.1-.4-.6-1-2.2-1.4-3.8-1.3-5.4-2.2-2.5-2.4 8M824 224c-1.4.9-4.4 2.9-6.7 4.4l-4.2 2.8 1.8 4.1c1 2.3 1.6 4.8 1.4 5.4-.3.7.7 1.7 2.1 2.3 1.4.5 2.6 1.5 2.6 2.2 0 .9-.3.9-1-.2-1.9-3-2.3.1-.4 3.6 2.7 5 3.4 5.1 3.4.4 0-2.3.5-5 1.1-6.1.8-1.5 3-19.8 2.5-20.5-.1-.1-1.2.6-2.6 1.6M622 239.3v15.2l2.9-5.5c1.5-3 4.4-8.2 6.4-11.5 4.2-7.2 3.6-8.3-7-12.6l-2.3-.9zM616.3 226.3c-.4.7-3.7 3.7-7.2 6.7-8.1 7-13.1 12-13.1 13.1 0 1.4 22.4 11.7 23.2 10.6.8-1.3 1.1-27.8.2-30-.7-2-2-2.2-3.1-.4M656.1 231.1c-8.4.4-15.6 1-15.8 1.3-.8.8 9.9 16.2 20.4 29.5 5 6.4 11.3 14.4 14 17.8 2.6 3.3 5.1 5.8 5.5 5.4.9-.8 3.3-17.6 4.9-33.1.5-5.8 1.4-12.9 1.8-15.7.4-2.9.6-5.5.3-5.8-.7-.6-11.3-.4-31.1.6M692.7 231.3c-.2.6.3 3.2 1.1 5.7.7 2.5 2.2 7.9 3.3 12s3.9 13.8 6.3 21.5c2.5 7.7 6.1 19.4 8.2 26 2 6.6 3.8 12.2 4 12.3.1.2 2.4-.6 5.1-1.8 5.4-2.5 10.9-4.3 9.9-3.3-.3.4-3.4 2-6.8 3.7-3.3 1.7-6.2 3.5-6.2 4.1-.1.5 1.9 2 4.3 3.2s4.6 2.4 4.8 2.7c1 1-4.3-.8-6.2-2.1-3.1-2.1-3.7-1.6-3.2 2.7.2 2.2 0 4.3-.5 4.6s-.8 6.4-.7 13.5l.1 12.9h10.1l-.6-3.9c-.2-2.1-1.6-6.8-3-10.3-1.4-3.4-2.8-7.9-3.1-9.8l-.7-3.5 1.4 3c2.6 5.5 6.7 16.5 6.7 18 0 3.5 2.6 2.1 9.3-5 4-4.3 7.6-8.3 8-9.1.5-.9-.5-2.1-3.3-3.9-5-3.2-5.2-4.2-.3-1.5 2.1 1.1 4.3 2 4.9 2s2-2.8 3.2-6.3c1.1-3.4 2.1-5.3 2.1-4.1.1 1.2-.4 3.5-1 5.3-1.5 4.2-.9 4.6 3.2 2.2 1.9-1.1 6.1-3.5 9.4-5.3 12-6.5 23.4-13.3 23.5-13.8 0-.6-8.3-4.1-9-3.8-.3.2-2.1-.7-4-1.8-1.9-1.2-4.6-2.5-6-2.9s-3.7-1.6-5.2-2.6c-1.6-1.2-2.9-1.6-3.3-.9-.3.5-1.5 1-2.6 1s-3.3.7-4.9 1.5c-1.7.9-3 1.1-3 .6s1.8-1.6 4-2.5c2.3-.9 4.3-2.3 4.6-3.1.4-.8.1-6.1-.6-11.7-.6-5.7-1.3-12.3-1.6-14.8-1.1-12.3-1.6-16-2.6-21.2l-1.1-5.8-3.7 7.8c-7.3 14.8-19 41.5-19 43.2 0 1.5-7.9 16.3-9.6 18-2.3 2.3-1.8-.8.8-5 3.2-5 8.8-16.3 8.8-17.6 0-.6 1.8-5.1 3.9-10 13.5-30.9 17.3-39.6 16.9-39.9-.1-.1-12.8-.5-28-.9-21.1-.4-27.8-.2-28.1.7"/><path d="M753.7 231.7c-.3.5.1 5.1.8 10.3s1.7 13.8 2.1 19 .8 9.7.9 10 .5 3.1.9 6.2c.5 3.2 1.3 5.8 1.8 5.8 1 0 11-10 13.2-13.2.7-1 4.6-5.3 8.7-9.6 8-8.5 22.5-24.6 24.8-27.5 1.3-1.6-.1-1.7-25.7-1.7-14.9 0-27.3.3-27.5.7M688.2 242.2c-.6 3.5-1.6 10.8-2.2 16.3s-1.3 11.3-1.5 13c-.3 1.6-.8 6.5-1.1 10.8-.8 9-1.2 8.4 10.4 14.4 4.1 2 8.4 4.7 9.7 5.9 3.7 3.4 8.6 6.7 9.1 6.1.3-.3-.1-1.6-.9-2.9-.8-1.2-1.8-4.6-2.2-7.3-.4-2.8-1.5-7.5-2.5-10.5-2.4-7.3-10.1-32.2-13.4-43.3-1.5-4.8-3.1-8.7-3.5-8.7-.5 0-1.4 2.8-1.9 6.2M828 270.5c0 1.2-.5 2.6-1.2 3.3-.6.6-1.4 5-1.6 9.6l-.4 8.5 10.1 3.1c5.6 1.7 10.6 3 11.2 2.8s-.5-2.5-2.6-5.2c-2-2.6-5-7.7-6.7-11.3s-3.8-6.7-4.5-7-2-1.7-2.8-3.2c-1.3-2.3-1.4-2.4-1.5-.6M654.3 281.7c-.4 1-1.3 2.4-2.1 3.2-1.6 1.7-1.1 11.6.7 13.4.8.8 3.3.1 8.3-2 4-1.7 9.1-3.7 11.3-4.3 4.9-1.5 6.7-3 3.6-3-1.2 0-1.9-.4-1.6-1s.1-1-.5-1-4.4-1.6-8.4-3.5c-8.2-3.9-10.4-4.3-11.3-1.8M772.6 285c-2.2 1.1-4.6 2-5.3 2-.8 0-1.2.4-.8.9.3.5-.5 1.1-1.7 1.3-1.8.3-1.1 1 3.6 3.1 3.2 1.5 6.5 2.7 7.2 2.7.8 0 1.4.4 1.4.8 0 .7 8.5 4.2 10.3 4.2.4 0 .7-2.3.6-5-.2-2.8-.6-5-1.1-5-.4 0-.8-.9-.8-2 0-1.3-.7-2-1.8-2-1 0-2.7-.7-3.8-1.5-2.5-1.9-3.1-1.8-7.8.5M672.5 294.4c-11.6 4.2-18.5 7.1-18.5 7.8 0 .4 1.7 1.9 3.8 3.2 2.2 1.3 4.5 3.1 5.4 3.9.8.8 5.7 3.9 10.9 6.8s10.1 5.9 11.1 6.6c1.9 1.6 3.1.4 1.7-1.7-.5-.8-.9-2.9-.9-4.6 0-1.6-1.1-7.2-2.4-12.3-1.4-5.1-2.2-9.9-1.9-10.7.7-1.9-1.8-1.6-9.2 1M683.5 297.2c.4 2.4 1.3 6.3 2.2 8.8.8 2.4 1.8 7.3 2.2 10.8.4 3.4 1.2 6.7 1.8 7.3 1.3 1.3 22.3-9.8 22.3-11.7 0-.7-2.1-2.8-4.7-4.5-2.7-1.8-5-3.5-5.3-3.8-1.3-1.5-7.2-5.2-12.9-8.1l-6.3-3.1zM653 308.2c0 4.8 1.1 6.5 5.1 7.8 2.2.7 4.4 1.9 5 2.7.6.7 1.6 1.3 2.1 1.3.6 0 3.7 1.3 7 3 4.1 2.1 7.2 3 10.6 2.9h4.7l-5.5-2.8c-5.5-2.7-12.1-6.9-21.5-13.5-5.9-4.1-7.5-4.4-7.5-1.4M777.5 310.8c-4.4 2.5-12.7 6.9-18.5 9.9l-10.5 5.3h8.7c4.8 0 8.9-.4 9.3-1 .3-.5 1.2-.7 2-.3.8.3 1.5.1 1.5-.5 0-.5 1.5-1.7 3.3-2.6 2.3-1.1 2.6-1.6 1.3-1.6-1.1 0 .4-1.2 3.5-2.8 3.3-1.7 5.5-3.5 5.8-4.7.2-1.1.8-2.3 1.3-2.6.6-.4.8-1.3.6-2.1-.2-1.2-2.1-.5-8.3 3M704 319.1c-3 1.7-7.2 4.1-9.2 5.5l-3.7 2.4 5.1 8.5 5.1 8.5 2.8-6.7c1.6-3.6 3.4-8.3 4-10.2.7-2 2.3-5 3.6-6.7 1.2-1.7 2.3-3.4 2.3-3.7 0-1.6-4.9-.4-10 2.4M711 325.2c-.7 1.8-2.4 5.8-3.8 8.8-4.2 9.4-5.3 13.2-4.2 14.5 1.2 1.5 9.1.9 10.3-.8.8-1.1.2-24.5-.7-25.4-.2-.2-.9 1.1-1.6 2.9M683 327.7c-3 .2-5.9.8-6.3 1.2s1.1 2.8 3.5 5.3c2.4 2.4 5.6 6.1 7.3 8.2 2.9 3.6 2.9 3.7 3.8 1.4.5-1.3.6-4 .4-6-.5-3.4-.3-3.6 1-2.2 1.2 1.1 1.4 2.8 1 6.4s-.2 5.3.9 6.4c.8.8 1.7 3 2.1 4.8l.6 3.2 1.2-3.9c.6-2.2.9-4.5.5-5-.4-.6-1.3-3.4-2-6.3-.6-2.8-1.5-5.2-1.8-5.2-.4 0-2-2-3.5-4.5-1.6-2.5-3-4.4-3-4.3-.1.1-2.7.3-5.7.5M746 328c0 .6-2.5 3.7-5.6 6.9-9.9 10.5-12 14.3-8.8 15.5 3.8 1.5 17.2-4.5 22.9-10.2 8.4-8.4 9.5-10.8 5.3-11.6-5.9-1.2-13.8-1.5-13.8-.6M730.4 352.1c-.6 1.1.9 9.9 2.7 14.9 1.1 3.2 3.5 17.4 4.4 26.2.4 3.8 1.2 6.8 1.7 6.8.7 0 .8-6.6.3-19.7-.6-16.8-1-20.2-2.7-23.5-2.3-4.3-5.3-6.5-6.4-4.7M729.5 373.6c-.3 2.2-1 5.9-1.5 8.4s-1.1 10.3-1.5 17.4c-.3 7-1 13.6-1.5 14.6-1.3 2.5-1.3 32.7 0 33.5.6.3 1 .2 1-.4 0-1.2 7.6-16.8 11.5-23.6 3.5-6.2 3.3-11.2-1-25.5-.8-2.5-2.1-9.5-3-15.5-1.8-12.1-3-14.8-4-8.9M695.9 383.9c-2.5 2.4-6.4 17-7.9 29.3-.9 7.5 1.2 25.7 3.6 31.4l1.7 3.9.8-3c.5-1.6 1.1-9.8 1.3-18.2.3-8.4 1-19.7 1.6-25.1.6-5.3 1-12 .8-14.8-.3-4.7-.4-4.9-1.9-3.5M588 387.4c0 .8 1 2.3 2.3 3.3 1.2 1 3.8 3.8 5.7 6.3 1.9 2.4 4.2 5.2 5 6s3 3.3 4.8 5.5l3.4 4 1.6-2.4c2.7-3.8 5.1-10.3 5.1-13.8.1-2.9-.4-3.5-4.3-5.3-2.5-1.1-5.3-2-6.3-2s-3.6-.7-5.8-1.5c-5.4-1.9-11.5-2-11.5-.1M854.7 393.2c.2 1.8-.5 6-1.6 9.3-1.8 5.5-1.9 5.7-2 2.5 0-1.9.4-5.5 1-7.9.5-2.4.8-4.5.6-4.8-.3-.2-2 1.3-3.8 3.3-1.9 2-4.5 4.6-5.9 5.8-4.2 3.6-15.6 14.9-14.2 14.2.7-.4 2.9-1 5-1.2 11.3-1.3 36.2-10.3 36.2-13 0-.8-.3-1.4-.7-1.4-.5 0-2.5-1.6-4.6-3.5-3.2-2.9-8.7-6.5-9.9-6.5-.2 0-.3 1.5-.1 3.2M676.3 395c-1.3.5-2.3 1.3-2.3 1.8s-1.3 1.2-2.9 1.5-3.6 1.4-4.6 2.3c-1.3 1.3-1.9 1.4-2.5.5-.5-.9-.9-.5-1.3 1.1-1.2 4.3-.8 5.8 1.6 5.9 1.9 0 1.9.1.4.8-1.2.4 1.9 1.4 8.9 2.9 6 1.2 11 2 11.2 1.7.2-.2.6-3.2.9-6.7.5-5.9.4-6.2-1.1-4.3-1.6 2.1-2.1 1.3-1.7-2.8.1-.9-.2-1.7-.7-1.7s-1.2-.9-1.5-2c-.6-2.2-1.1-2.3-4.4-1M632.5 414.1c-10.6 1.6-11.9 1.8-16.2 1.8-2.4.1-4.3.6-4.3 1.1 0 1.3 9.2 15.1 11.2 16.7 1.1 1 2.5.1 6.9-4.1 3-2.9 6-5.5 6.6-5.7 1.3-.5 11.3-9.7 11.3-10.4s-8.8-.4-15.5.6M785 414.8c0 .9 22.7 23.2 23.6 23.2.5 0 1.9-1.7 3-3.8 1.2-2 4-6.1 6.2-9.1 2.3-3 3.9-5.8 3.6-6.3-.3-.4-2.1-.8-4-.8s-7.6-.6-12.7-1.4c-11.1-1.7-19.7-2.5-19.7-1.8M745.2 425.2c.3.7 1.5 5.6 2.7 10.8 2 8.4 5.6 19.2 9.6 28.5.7 1.6 2.5 6.6 4 11s3.4 9.3 4.3 11l1.5 3 7.8-8.5c4.3-4.7 8.1-9.3 8.5-10.3.4-1.4-.9-3.4-5-7.4-3.1-3.1-5.6-6-5.6-6.6s-2.6-3.8-5.7-7.1c-6-6.3-8.6-9.4-16.3-19.6-4.2-5.5-6.8-7.7-5.8-4.8M765.8 496.8c-.3 1.5-2.2 8.9-4.2 16.6-2 7.6-3.5 14.1-3.2 14.3.6.7 11.6-8.9 15-12.9 2.4-3 2.4-3.1.8-6.7-.9-2-2.7-5.3-3.9-7.3-1.3-2.1-2.3-4.2-2.3-4.7 0-2.4-1.8-1.8-2.2.7M445 108.2c-3.6.5-9.8 1.5-13.8 2.3s-8.8 1.5-10.8 1.5c-3.9 0-40.4 4.7-44.6 5.8-2.3.6.2 1.9 16.5 8.5 10.6 4.3 20.4 8.2 21.9 8.7 2.9.9 5.3-.7 23.3-15.2 2.8-2.2 7.1-5.6 9.8-7.5 2.6-1.9 4.7-3.9 4.7-4.4s-.1-.8-.2-.8c-.2.1-3.2.6-6.8 1.1M331.9 109.2c-.3 4.7.3 31.5.8 37.1l.6 6.8 16.8-17.3c9.3-9.5 16.9-17.6 16.9-17.9 0-.4-2.6-1.3-5.7-2.2-3.2-.8-10.9-2.9-17.1-4.6-13-3.6-12.2-3.5-12.3-1.9M327.8 110.7c-.1.5-4.6 4.6-9.8 9.3-15.9 14.2-21.1 19.8-19.2 20.3 1.2.3 1.1.5-.5.6-1.3 0-2.3.5-2.3 1.1 0 .5-.8 1-1.7 1-3.7 0 2.4 2.8 15.3 6.9 15.7 5 20.4 5.9 20.5 4 0-.8.3-4.1.6-7.4.6-8.1-.7-36.5-1.7-36.5-.5 0-1 .3-1.2.7M288.7 148.2c-.8 1.3-4 6.4-7.1 11.3-5.4 8.8-6.6 11.2-4.7 10.1.4-.3.6.5.4 1.9-.5 2.5-2.8 3.9-4.6 2.8-.7-.4-.8 0-.4 1.1.4.9.3 1.5-.2 1.2-.9-.6-6.6 7.3-5.8 8.1.3.2 4.4-1.4 9.2-3.6 4.8-2.3 13.5-6.2 19.3-8.7 5.9-2.5 12.5-5.4 14.7-6.4 2.2-.9 6.4-2.8 9.3-4 2.8-1.2 5.2-2.7 5.2-3.2s.5-.6 1-.3c.6.3 1 .2 1-.3 0-.8-22.7-8.6-30.5-10.5-1.1-.3-2.8-.8-3.7-1.2-1.1-.4-2.1.1-3.1 1.7M319.3 164.2c-1.3.6-2.4 2-2.4 3.2-.1 1.5-.3 1.6-.6.5-.3-1.4-1.4-1.2-7.8 1.4-4.1 1.7-7.2 3.4-6.9 3.9.3.4-.6.8-2.1.8-1.4 0-3.3.4-4.3.9-.9.5-6.6 3-12.7 5.5-6 2.6-12.8 5.5-14.9 6.5l-3.9 1.7 4.4 3.6c2.4 2 6.9 5.2 10 7.1l5.7 3.6 2.8-2.9c1.6-1.5 2.9-3.2 3-3.7.2-2.5 1.8-4.4 3.2-3.8 1.8.7 5.4-2.3 4.5-3.9-.3-.6-.2-.8.2-.3 1.1.9 4.6-2.3 3.9-3.5-.3-.4-.1-.7.4-.6 1.3.4 17.2-15.8 17.2-17.5 0-.8 1-1.9 2.3-2.5 1.2-.6 1.8-1.1 1.2-1.1-.5 0-2 .5-3.2 1.1M314 183c0 .6-1.6 1-3.5.8-2.6-.1-3.9.4-5.5 2.2-1.2 1.4-3.9 4.4-6 6.6-2.5 2.7-3.5 4.5-2.9 5.1 1.4 1.4-1.7 3.7-4.9 3.8-1.6 0-2.6.6-2.5 1.3.2.7-.4 1.2-1.3 1.2-1.8 0 1.9 2.7 9.8 7.4 4.7 2.8 6.8 3.2 6.8 1.6 0-.6-1-1.1-2.2-1.1-1.7-.1-1.9-.2-.5-.6.9-.2 1.7-1.2 1.8-2.1 0-1.4.2-1.3.9.3.5 1.1.9 1.4.9.7.1-.9.6-1 1.9-.4.9.5 2.3.7 3.1.4 1-.3 1.2 0 .8 1.2-.4.9-1 2.3-1.3 3.1s-.2 1.5.2 1.5c1.1 0 8.4-22.6 8.4-25.8 0-1.2.4-2.2.9-2.2s1.1-.8 1.3-1.8c.4-1.5 0-1.7-2.9-1.4-2.7.4-3.2.1-2.7-1.2.3-.9.3-1.6 0-1.6s-.6.5-.6 1M263.7 191.7c-.3.5-.1 4.2.3 8.3.5 4.1.9 12.1 1 17.7 0 5.7.4 10.3.9 10.3.8 0 11.2-14.1 14.9-20.3 1.9-3.1 2.2-2.7-8.3-9.9-3.3-2.2-6.5-4.7-7.2-5.5-.6-.8-1.3-1.1-1.6-.6M260.7 200.7c-.4.6-1.8 6-3.2 12-4.2 17.9-6.6 27.7-7.2 29.3-.7 1.7-.7 1.5.2 12.2.4 4.3 1 7.8 1.4 7.8.3 0 1.6-2.6 2.8-5.8 4.4-11.7 7.3-19.8 7.3-20.4 0-.4-2.3.6-5.1 2.3-6.8 4-5.9 1.9 1.1-2.5l5.4-3.4-.3-11.9c-.4-13.6-1.3-21.3-2.4-19.6M280.3 212.2c-6.4 8.7-8.5 11.8-8 11.8.3 0-.8 1.4-2.4 3.1-1.6 1.8-2.8 3.4-2.6 3.6.5.5 35.2-8.3 37.2-9.4 1-.6-1.2-2.6-7.8-7-5.1-3.4-9.9-6.5-10.9-6.8-1.2-.5-2.7.8-5.5 4.7M333 220c-7.4 1-15.1 1.9-17.1 1.9l-3.6.1-.7 9.7c-.7 11-1 61.3-.3 61.9.6.6 2-1.3 5-6.8 1.4-2.5 6-10.6 10.3-18 9-15.4 11.4-20.1 11.4-22.1 0-.8.6-1.7 1.3-2 1.1-.4 14.7-24.6 14.7-26.2 0-.9-6.9-.4-21 1.5M348.9 231.6c-2.9 5.4-5.8 10.9-6.3 12.3s-1.4 3.3-2.1 4.1-2.7 4.2-4.5 7.5-5.5 9.9-8.2 14.6c-2.6 4.8-4.8 8.9-4.8 9.2s-2.5 4.9-5.6 10.2c-3.2 5.4-5.3 10-4.8 10.5.5.4 4.1 2.5 7.9 4.5 6 3.2 21.3 11.8 33.3 18.6 1.8 1.1 3.5 1.9 3.6 1.9.2 0 .4-4.6.5-10.3.2-9.3 0-10.6-2-13.1-2.1-2.7-2.1-2.9-.5-5.7 1.5-2.6 1.6-5.9 1-36.6-.4-18.6-1-34.6-1.3-35.6-.5-1.4-2 .5-6.2 7.9M286.2 228.5c-9.5 2.3-17.6 4.5-17.9 4.9-.4.4-.3 1 .3 1.4.5.4 5.3 4 10.5 7.9 5.3 4 10 7.3 10.6 7.3 1.2 0 6.9-8.6 12.3-18.8 1.2-2.3 2.6-4.5 3.1-4.8 1.3-.8 1.1-2.4-.3-2.3-.7 0-9.1 2-18.6 4.4M304.7 231.9c-2.1 4-4.4 8-5.2 8.7-.7.8-2.8 3.9-4.5 6.9l-3.2 5.6 2 4.7c1.1 2.6 3 7.6 4.3 11.2 1.2 3.6 2.5 7 2.9 7.5.5.6 1.8 3.4 3 6.4 4.7 12.1 4.8 11.7 4.9-18.2.1-18.6-.2-27.8-.9-28.2-.8-.5-.8-1.1 0-2 .6-.8 1-3.3.8-5.7l-.3-4.3zM260.2 246.8c-2.3 6.4-4.5 13.2-4.8 14.9l-.6 3.3 3.8-1.4c2.2-.8 6.4-2.4 9.4-3.6s7.9-3 10.7-4c8.7-3.1 8.9-3.4 5.7-5.9-1.6-1.1-4.2-3.1-5.9-4.4-1.6-1.2-5.1-4.1-7.7-6.5-2.7-2.3-5.2-4.2-5.6-4.2s-2.6 5.3-5 11.8M275.5 258.9c-14.8 5.9-18.5 7.8-18.5 9.5 0 2.3 4.4 5.3 19 12.9 8 4.1 17.1 8.9 20.4 10.6 5.9 3.2 9.6 3.9 9.6 2 0-.5-.5-.7-1.2-.3s-.8.3-.4-.4c.4-.6.2-1.9-.3-2.9-.6-1-2.1-5-3.4-8.8-6.4-18.7-10.1-27.5-11.6-27.5-.9.1-7 2.2-13.6 4.9M248.5 280.7c-1.5 7.4-2.5 10.8-4 14.4-.9 2.4 9.8 3.8 12 1.5 1.8-1.8 2-6.6.3-6.6-1 0-.9-.3.1-.9 1.1-.7 1.1-1.5 0-4.7-.8-2.2-1.7-4.1-2-4.4s-1.4-2-2.3-3.8c-.9-1.7-1.8-3.2-2-3.2s-1.1 3.5-2.1 7.7M246.5 303.2c1.4 2.4 4.3 7.1 6.3 10.5 3.9 6.6 6.3 7.8 8.8 4.5 1.3-1.6 1.3-1.6 1.4.1 0 1.7 8.7 6.7 11.7 6.7.6 0 1.9.7 2.8 1.6s1.8 1.5 2 1.3c.7-.8-11.9-22.4-13.9-23.9-1.9-1.4-15.6-4.8-19.9-4.9-1.6-.1-1.5.4.8 4.1M284.8 302.1c-8.1.4-15.2 1-15.8 1.4s0 2.3 1.7 5.3c3.8 6.8 15 23.7 16.7 25.5.8.8 1.2 1.8.8 2.1-.3.4.1.4.9.1s2.5-2.5 3.7-4.8c5.2-10.1 11-20.8 11.6-21.4 1.2-1.2-.9 3.5-7.2 16.2-3.3 6.6-5.7 12.3-5.3 12.6.3.4 5.1 1.4 10.6 2.4 5.5.9 11 1.8 12.3 2.1 2.9.6 2.9-1-.4-17.3-1.5-7-3-14.5-3.4-16.6s-.4-3.5 0-3c.4.4 1.7 5.7 2.9 11.8 2.8 14.1 5.2 22.3 6.7 22.9 1.8.7 14.8-4.3 19.4-7.4.8-.5 4.6-2.4 8.5-4.1 5.2-2.4 6.6-3.4 5.5-4.1-29.8-17.7-42.1-24-43.7-22.5-.7.7-2.2 2.1-3.3 3.2-1.9 1.8-2.1 1.8-1.4.1.9-2.3-1.4-3.8-3.8-2.5-1.2.6-1.8.6-1.8-.1 0-.5.5-1 1.1-1 .5 0 .7-.5.4-1-.3-.6-.9-.9-1.3-.8-.4 0-7.3.4-15.4.9M353.8 330.7c-1 .2-1.8 1.2-1.9 2.1 0 1-.3 1.2-.5.5-.4-.9-1.1-.9-2.9-.1-1.4.6-2.2 1.5-1.9 2s0 .9-.7.7c-2.8-.3-3.9.1-3.9 1.6 0 .8.7 1.5 1.5 1.5 1.7 0 2.1 3.5.5 4.5s-1.2 3.8.5 3.1c1.8-.6 4.8 2.1 3.9 3.6-.4.7-.2.8.4.4.7-.4 1.2-1.6 1.2-2.7 0-1 .4-1.9.9-1.9s1.2-.8 1.4-1.8c.4-1.6.5-1.6.6 0 .2 2.6 2.1 2.2 2.2-.5 0-1.2.2-4.2.4-6.7.3-3.2.2-3.9-.5-2.5-.8 1.9-.9 1.9-.9-.3-.1-1.3.5-2.2 1.4-2.2.8 0 1.5-.5 1.5-1 0-1-.3-1.1-3.2-.3M213.1 344.2c0 10.4-.1 11-5 23-2.7 6.8-6.8 16.5-9 21.7-6.9 15.4-3.8 11.5 4.7-6 12.9-26.8 13.1-27.3 12-28.7-.8-.9-.6-1.2.6-1.2 2.1 0 2-2-.8-11.5l-2.4-8zM291 342.5c0 .9 2.5 5 3.4 5.7.5.3.3 3.2-.6 6.8-1.3 5.2-1.3 6.3-.1 6.7.7.3 1.9.1 2.6-.4.6-.5 3.1-1.5 5.4-2.3 2.7-.8 6.1-3.3 9.9-7.1 3.2-3.2 5.6-6 5.3-6.2-.6-.5-21-3.7-23.6-3.7-1.3 0-2.3.2-2.3.5M318.5 351.7c-.3 2.1-1.8 7.4-3.2 11.8s-2.9 9.6-3.3 11.5c-.5 1.9-1.7 6.7-2.7 10.6l-2 7.1 5.8-3.1c3.3-1.7 5.9-3.7 5.9-4.4 0-.6.5-1.2 1.1-1.2.7 0 2-.9 3-2.1s2.4-1.9 3.1-1.6c1.5.5 22.8-10.2 22.8-11.5 0-.4-.3-.7-.7-.6-.5.1-2.6-1.5-4.8-3.6-2.2-2-6-4.9-8.5-6.3-2.5-1.5-6.8-4.4-9.7-6.5s-5.4-3.8-5.6-3.8c-.3 0-.8 1.7-1.2 3.7M315 351.4c-2.3 1.8-8.7 9.2-6.7 7.6 1.1-.8 2.1-1 2.7-.4 1.3 1.3-.3 6.9-2.1 7-.8.1-2.7.2-4.4.3l-3 .2 2.4 1.9c1.2 1.1 2.6 1.8 3.1 1.5.4-.2.5.7.2 2.1-.2 1.4-1.2 2.8-2.1 3.1-7.9 2.4-10.7 5-10.1 9.2.1 1.3-.1 1.3-1.4.2-1.1-.9-1.6-1-1.6-.2 0 .6.4 1.1.9 1.1s2.8 1.7 5.1 3.7c2.3 2.1 4.7 3.8 5.3 3.8.8 0 4.3-10.9 4.6-14.6.1-.3-1.2-.4-2.9-.1-1.8.3-3 0-3-.7 0-.9 2.9-1.6 5.3-1.2 1 .2 4.5-8.1 5.2-12.2 1-5.4 2.9-11.2 3.9-11.9.6-.4.8-.9.6-1.2-.3-.2-1.2.1-2 .8M270.1 384.1c-4.1 1-7.8 2.5-8.3 3.2-.6.9-.8.8-.8-.3-.1-1.2-.3-1.1-1.1.2-.5 1-.9 5.4-.7 9.9l.3 8.1 8.5-9.7c4.6-5.3 9.4-10.2 10.5-10.7 1.9-1 1.9-1 .5.7-.8 1.1-2.6 3-4 4.4-1.4 1.5-5.2 5.6-8.4 9.3-6.1 7.1-6 8.1 1 5.9 1.6-.5 4.1-1.2 5.7-1.5 1.8-.5 2.7-1.3 2.7-2.7 0-1.1.9-3.9 2-6.2 1.2-2.3 2.4-6.1 2.7-8.5.7-5 .5-5.1-10.6-2.1M283.5 386.6c-.9 2.7-2.8 7.1-4.1 9.9-1.4 2.7-2.1 5.1-1.6 5.3.9.3 23.2-5.4 23.9-6.1.2-.2-3.1-3.1-7.4-6.3-4.3-3.3-8.1-6.3-8.4-6.8-.4-.4-1.4 1.4-2.4 4M248 388.6c-.7 3.1-1.3 7.3-1.5 9.4-.1 2.1-.6 4.3-.9 4.9-.8 1.2-.4 1.4 5.9 3 5.8 1.6 5.8 1.6 5.1-4.2-.9-6.1-.9-6.3-.1-10.2l.7-3-2 3c-3.8 5.6-6.1 8-6.8 7.2-.4-.4.1-1.7 1.2-3 4.9-5.6 6.7-8.9 5.3-9.8-.7-.4-1.6-.6-2-.3-.4.2-.9-.3-1.3-1.1-1.1-3-2.5-1.4-3.6 4.1M227.1 435.7c.3 3.5 0 5.4-.8 5.7-.7.3-2 3.2-3 6.6-1 3.3-2.2 6-2.7 6-.4 0-.6-.6-.3-1.3 2.4-6.4 3-8.7 2.5-9.2-.3-.4-4.9 1.5-10.2 4.1s-9.3 5.1-8.9 5.5 4.8 1.6 9.8 2.7c9.8 2.2 10.4 2 10.5-3.3 0-1.7.5-3.7 1.1-4.5.8-1.2.9-1.1.5.5-1.4 5.8-1.7 16.7-1.1 35.1.4 11.2 1 20.4 1.4 20.4s2.7-7.3 5.3-16.3l4.6-16.3-2.4-13.5c-3.9-22.7-7-33.8-6.3-22.2"/><path d="M181 439.9c0 .4 2.9 2.5 6.5 4.7 3.6 2.1 7.8 4.7 9.3 5.6 2.7 1.7 2.9 1.6 12.7-2.8 5.5-2.6 10.4-5 10.8-5.4.5-.4-6.7-1.1-16-1.4-9.2-.4-18.3-.8-20-1.1-1.8-.2-3.3 0-3.3.4M221.1 465.1c-.6 1.3-3.7 8.5-7 15.9-3.3 7.3-5.7 13.9-5.3 14.6.6 1 13.9 12.4 14.5 12.4.4 0-.5-44.5-.9-44.9-.2-.2-.8.7-1.3 2M657.2 545c4.6 4.4 8.8 8 9.5 8 1.7 0 12.4-8.1 11.8-9-.3-.4-3.5-1.5-7.2-2.5-3.8-.9-9.3-2.3-12.4-3.1-10.5-2.7-10.7-2.2-1.7 6.6"/></svg>