<svg xmlns="http://www.w3.org/2000/svg" width="1706.667" height="960" viewBox="0 0 1280 720"><path d="M0 360v360h448.9l1.8-3.8c2-4.3 7.4-13.2 8-13.2.2 0-1.7 3.8-4.2 8.5L450 720h37.4c29 0 37.5-.3 37.9-1.3q.6-1.35.6 0c.1 1 76.2 1.3 377.1 1.3h377V0H0zM718 53.8c0 1.3 5.2 3.4 25.5 10.3 48.6 16.6 50.8 17.2 52.5 16.1 1.4-.8 1.7-.7 1.6.6-.1 2.2 14.2 10 24 13.2 2.1.7 4.6 1.8 5.4 2.6.8.7 4.5 2.6 8.2 4.3 3.6 1.6 7.1 3.9 7.8 5 1.4 2.7-.2 2.7-2.6 0-1-1.2-3.7-2.9-5.9-3.9s-6.7-3-9.9-4.5-7.7-3.3-9.8-4.1c-2.2-.7-5.4-2.4-7.1-3.6-1.7-1.3-4.8-2.8-6.8-3.4l-3.6-1.1-.1 3.6c-.1 2-.6 9-1.2 15.6-.5 6.6-1 12.6-1 13.3 0 1.1 5.7 4.1 26.5 13.7 1.7.8 5.9 2.8 9.4 4.5 3.6 1.6 6.6 3 6.8 3 2 0-6.2-11.2-18.6-25.4-7.9-9.1-16.5-20.1-18.8-24-1.6-2.7-.5-3.7 1.3-1.2.7 1.1 3.1 4 5.1 6.4 2.1 2.5 5.4 6.6 7.3 9.3 1.9 2.6 7.1 9.2 11.6 14.6 4.4 5.4 9.7 12.2 11.7 15.1 3.9 5.7 4.1 5.7 5-2.3.2-2.1.6-1 1.1 3.3.7 5.1 1.2 6.2 2.5 5.8 16.5-5 30.4-8.7 30.8-8.2.3.3-.8.8-2.3 1.1-3.6.8-26.3 8.4-28.6 9.6-1.9 1-1.6 2.6 2.2 10.4 1 2.2 3 6.6 4.4 9.7 1.4 3.2 3.7 8.2 5 11 3.9 8.6 5.7 13.1 5.2 13.5-.2.2-1.4-2.2-2.7-5.4s-4.2-9.8-6.6-14.6-5-10.4-5.8-12.4c-1.9-4.4-2.4-4-2.6 1.8-.2 6.8 1.2 49.1 1.7 51.6.4 2 1.1 2.3 5.2 2.4l4.7.2-4.9 1-4.8 1.1.5 6.5c.4 5.1.4 5.9-.4 3.4-1.6-5.3-2.6-4.6-4.4 3-1 3.9-2.6 9.5-3.7 12.3-1.4 4-1.6 5.7-.8 7.9.6 1.5.8 3 .5 3.3s-.5.1-.5-.4c0-.6-.6-1.8-1.3-2.8-1.2-1.6-1.7-1.7-3.8-.6-2 1-2.2 1-1.1-.1.6-.7 1.2-1.6 1.2-1.9 0-.4-3-3.1-6.7-6.1-3.8-2.9-7-5.6-7.3-5.9s-2.6-2.1-5.2-4c-2.7-1.8-4.8-3.8-4.8-4.4q0-.9-.9 0c-1.9 1.8-4.9 29-3.5 30.4 1 .9 6.8-.6 17.2-4.6 3.4-1.3 6.8-2.4 7.4-2.4 2 0-.4 1.6-5.2 3.4-2.5 1-6.4 2.9-8.7 4.2l-4.3 2.5 2 2.1c1.1 1.2 2 2.8 2 3.5 0 1.3 1.2 1.7 3.8 1.4 1.5-.2 1.6 2.1.2 3.5-1 1 3.7 5.2 16.7 14.9 2.9 2.1 5 4.1 4.8 4.4-.3.2-1.8-.7-3.3-2-6.8-6.2-18.1-13.9-21.2-14.4-1.8-.3-3.7-.8-4.2-1.1-1.2-.8-1.1-.3 2.1 6.3 2.9 6 11.1 19.3 13.9 22.5.8.9 1.6 3.6 1.7 6 .3 3.2.1 3.9-.6 2.6-.5-1-.9-1.9-.8-2 .1-.2-.3-1.3-.9-2.5-1.1-2.1-5.2-3.7-12.2-5-1.4-.2-4.4-1.1-6.8-1.9-6-2-6.5-1.8-6 1.6.5 3.7.1 3.9-1.2.5-.8-2.2-1.4-2.4-4.7-2.1-2.1.3-7.8 1.7-12.8 3.1-4.9 1.5-10.8 3.1-13 3.7-5.1 1.4-5.7 2-6 5.8-.2 2.3.1 3 1.1 2.6.8-.3 1.4-.1 1.4.4 0 .6 3.1.9 7.7.6 7.6-.4 7.7-.5 12.1-5 2.4-2.5 4.5-4.6 4.8-4.6.2 0-1 2-2.6 4.4-1.7 2.4-3 4.6-3 4.8 0 .3 1.2.5 2.8.6 1.5.1 5.6.8 9.2 1.5l6.5 1.4.3-2.4c.2-1.3-.3-4.4-1.2-6.9-2.2-6.5-.3-4.5 3 3.1 1.6 3.6 3.2 6.5 3.7 6.5.4 0 .6.4.2.9-.3.6.3.8 1.5.6 1.1-.2 2.2.1 2.6.7s2.1-.7 4-2.9c1.8-2.1 3.4-3.6 3.4-3.3s-1.3 3.1-2.9 6.1c-2.8 5.5-2.8 5.6-1 8 1 1.3 1.9 3 1.9 3.7s.4 1 1 .7c.5-.3.8 0 .5.7-.5 1.2 5.1 5.4 11.8 8.8 2.6 1.3 2.9 1.2 4.5-1 .9-1.3 2.5-3.8 3.4-5.4 2-3.7 2.4-2.7.4 1.2-2.8 5.5-2.8 7-.4 8.3 1.3.7 3.7 1.6 5.3 2.1 2.5.6 2.2.7-1.2.3-2.3-.3-4.7-.7-5.5-1-2.6-1-3.8 1.2-4.4 8.5-.7 8.5-.8 7.2.3 20.8l.8 10.3 5.1-8.8c2.8-4.8 6.2-10.8 7.5-13.3s3.4-6 4.8-7.7c1.3-1.8 2.1-4 1.7-4.8-.3-.8-.1-1.5.4-1.5.6 0 1-1.2 1.1-2.8 0-2.4.1-2.5.9-.7 1.5 3.4 1.1 7-.9 8.2-1.7 1.1-4.2 5.3-13.1 21.8-1.8 3.3-4.2 7.7-5.3 9.8l-2.1 3.8 6.9 6.4c3.9 3.5 7.3 6.4 7.6 6.5.7 0 2.5-13.4 4-29.9 1.4-14.9 3-20.3 2.3-7.6-.4 5.5-.7 10.7-.9 11.5-1.7 9.5-2.6 20.3-2.1 24.6.5 4.7.4 5.4-1.1 5.4-1.7 0-19.5 6-23.8 8-3 1.3-15.4 4.7-20.3 5.5-2.3.4-4.9 1.3-5.6 2.1-.8.8-1.8 1.4-2.3 1.4-.8 0-6.5 8.3-10.8 15.7-1.9 3.2-1.9 3.3 0 4.8 1.9 1.6 1.9 1.6-.2.6-1.9-1-2.6-.5-6 3.7-2.2 2.6-5 6.3-6.3 8.2s-2.7 3.7-3 4c-1.5 1.2-6 7.8-6 8.7 0 .7 1.5.5 4.1-.4 2.3-.7 4.9-1.2 5.8-1 .9.1-1.1 1.2-4.4 2.3s-6.1 2.7-6.3 3.5c-.1.8.9 2.7 2.3 4.3 3.6 4.1 3.1 5.7-.6 1.8-3.3-3.5-5.8-4.2-5.7-1.5.1 2.4-5.9 26.6-7.4 29.8-.6 1.4-1.5 2.5-2 2.5-.4 0-.8.7-.8 1.5 0 2.2 3.4 1.8 7.3-.7 1.8-1.3 8.4-4.8 14.5-7.8s11.1-6 11.2-6.7c0-.6-1.5-2.3-3.2-3.7-1.8-1.4-2.9-2.6-2.4-2.6.4 0 2.2 1.2 3.9 2.6l3.1 2.6 2.9-3.3c2.3-2.6 2.6-2.8 1.7-.9-.7 1.4-1.8 2.9-2.4 3.3-.8.6-.7 1 .1 1.4 2.3.9-.5 4.3-3.5 4.3-1.5 0-6.7 2.3-11.7 5.1-4.9 2.7-11.4 6.1-14.2 7.5-5 2.4-6.5 4.5-4.3 5.9.6.3 1 1.2 1 1.8 0 .7-.9.1-1.9-1.2-2.3-3-2.7-2.8-13.5 7.6-9 8.7-12.4 10.5-14.5 7.9-.8-.9-1.8-1.6-2.3-1.6s-5.5-2.2-11.1-5c-10.8-5.3-11.7-5.6-14.5-4-.9.5-4.8 2.1-8.6 3.5l-7 2.5-7.7-3.8-7.7-3.8-5.8 2.9c-3.3 1.6-7.8 4.5-10.2 6.4-3.7 3-4.1 3.7-3 5.1 1.1 1.3 1 1.4-.7.5-1.4-.8-3.8-.7-7.9 0l-6 1.1 7 1.8c9.2 2.4 16.6 3.8 21.7 4.3 2.3.2 5.6.6 7.2.8 11 1.4 14.9 1.7 12.8.7-5.8-2.6-6.7-3-5-2.5 5.3 1.5 16.3 2.6 25.2 2.6 11.1 0 29.3-1.8 43-4.2 3.2-.6 7.9-.8 10.2-.4 2.6.4 4.3.2 4.3-.4 0-.5-.8-1-1.7-1-1 0-5.2-.4-9.3-.9l-7.5-.9h11.8c6.5 0 12-.3 12.3-.6s0-1.6-.6-2.9c-1.1-2-.9-2 1.5.5 2.9 3 2.4 5-1.7 6.3-1.1.3-7.4 4.2-14 8.6-8.9 5.9-11.7 8.3-10.9 9.1 1.9 1.9 1.2 2.9-1 1.4-2.1-1.5-6.6-1-9.2 1.1-1.7 1.3-3.9 1.8-25.1 6.2-13.5 2.7-19.5 3.6-20.8 2.9-1-.5-1.8-.8-1.8-.5 0 .2-4.8-.9-10.7-2.5-6-1.6-11.6-2.9-12.6-2.9s-5-1.4-8.9-3.1c-3.8-1.7-7.1-2.9-7.2-2.7-.2.2-.8 1.2-1.5 2.3-1.1 1.8-1.2 1.7-.8-.9s-.6-4-8.9-12.5c-5.2-5.3-9.4-9.8-9.4-10.2s-1-1.4-2.2-2.2l-2.3-1.6h2.8c1.5-.1 2.7.3 2.7.9 0 1.2 20.6 1.4 21.4.2.8-1.3-3.3-7.2-12.4-18-1.1-1.3-2-2.7-2-3.1s-2.8-2.6-6.2-4.9c-3.5-2.2-8.1-5.7-10.3-7.7-4.4-4-8.9-6.7-9.8-5.9-.3.3-1.5-1.5-2.7-4.1-2.3-5-2.3-7.2 0-3 .7 1.4 1.8 2.5 2.4 2.5s3-1.9 5.5-4.2l4.5-4.3-3.3 4.2c-1.8 2.4-3.7 4.5-4.2 4.8-1.7 1.1-.9 2.2 3.4 5.1 2.3 1.6 5.1 3.7 6.2 4.7 3.1 2.9 13.3 9.7 14.5 9.7.6 0 1.5-1.2 2.1-2.6 1.3-3.7 2.2-2.4.8 1.4-1.2 3.6-.6 5.3 5.5 12.9 4.1 5.2 6.4 6.8 5.2 3.6-.6-1.5-1.2-5.3-3.1-19.8-.8-6.7-2.7-13.9-4.4-16.7-.9-1.4-3-5-4.7-8-1.8-2.9-4.3-6.4-5.8-7.7l-2.5-2.4-2 2.4c-1.1 1.3-2 1.9-2.1 1.2 0-.6.5-1.5 1-1.8 2.2-1.3.8-3.7-3.2-5.6-2.4-1.1-3.3-1.8-2.1-1.6 1.3.3 2.6.1 2.9-.4.6-1.1-3.1-8.3-6.1-11.8-1.4-1.6-1.5-2.2-.5-1.9.8.2 3.4 3.7 5.8 7.6 2.5 3.9 4.8 6.9 5.2 6.7.7-.4 2.6-15.1 2.2-16.8-.2-.5.2-.6.8-.2.5.3.8 2.3.5 4.3-.4 4-.8 10.2-.6 11.4.1 1 7-6.7 11-12.2 3.3-4.8 8.5-11.8 9.9-13.5 9.1-11.2 10.3-13.2 12.2-19.7.8-2.6.8-2.7-6-3.8-3.7-.6-10.2-1.5-14.4-1.9l-7.6-.7-.9 3.1c-1.3 3.8-3.1 20.4-2.4 22.1.2.6-.1 1.5-.7 1.9-.8.5-.9-1.7-.3-8.2.4-4.8.8-10.8.8-13.3 0-5.3 2-5.1-21.2-2.5-9 1-16.3 2.3-16.3 2.9 0 .5 2.5 4.7 5.6 9.3l5.6 8.4 6.7-5.8c3.6-3.2 8-7 9.6-8.6 1.7-1.6 4.4-3.8 6-4.9 1.7-1.1-1.9 2.8-7.9 8.6S605.3 435 604.8 435c-.4 0-.8.6-.8 1.4 0 .7-.9 1.6-2 1.9-1.5.4-2 0-2-1.4 0-2.2-9-16.2-12.5-19.5-1.4-1.3-6-3.4-10.2-4.8l-7.8-2.4-.1-6.8c-.1-6.7-.1-6.8.8-2.4.5 2.5 1.1 5.4 1.4 6.6.3 1.6 1.8 2.5 6.5 3.8 3.4.9 6.3 1.5 6.5 1.3.7-.7-9.9-15.7-13.4-19-4.6-4.2-6.2-6.9-6.2-10.4 0-1.6-1.3-6.9-2.9-11.8-1.6-5-3.5-11-4.1-13.4-.9-3.3-1.4-4.1-2.1-3-.6.9-.9-.4-1-4.1 0-3-.2-6.9-.4-8.5-.2-1.7-.7-5.4-1-8.3-.9-7.2-.8-16.9.2-18.6.5-.9.8 1.6.8 5.7.1 9.6 1.6 21.7 2.7 21.7.5 0 .7.4.4.9-.6 1 1.5 10.8 4.4 20.6 1 3.3 2.3 8 3 10.5 2.3 8.4 2.7 9 6.2 9 1.8 0 7 .9 11.6 2 10.2 2.5 12.8 2.6 11 .6-.7-.8-1.6-1.2-1.9-1-.7.4-8.9-7.4-8.9-8.5 0-.5-1.3-1.4-3-2-1.6-.5-3-1.6-3-2.4s-1.1-2.6-2.5-4.1c-2.5-2.7-4.2-7.2-3.2-8.3.4-.3 0-1.7-.7-3.2-.8-1.4-1.4-3.8-1.4-5.3s-.7-4.4-1.6-6.3c-1.4-2.9-2.1-3.5-3.9-3l-2.2.6 2.2-1.8c2-1.7 2.1-2.2 1.2-7.2-1.7-8.9-.3-7.1 2.7 3.6.2.7.7 1.3 1.1 1.3 1.7 0 13.2-11.7 13.8-14.1.4-1.6-.4-4.3-2.4-8.4-1.9-3.6-2.3-5-1.1-3.5 4.8 6.1 5.5 7 6.1 7 .9 0 4.9-7.6 4.9-9.3 0-.9.4-1.8.9-2.1.5-.4.7 1.2.4 3.6-.6 4-.5 4.1 1.8 3.5 1.3-.4 5.4-1.2 9.2-1.8 4.4-.8 6.7-1.7 6.7-2.5s-.3-1.4-.8-1.4c-.4 0-1.6-1.5-2.6-3.4s-2.5-3.7-3.2-4c-.8-.3-1.4-1.1-1.4-1.8s2.6 1.3 5.8 4.4c5.3 5.3 6.1 5.7 11.7 6.3 3.3.4 6.8.9 7.8 1.1 1.3.4 1.7-.1 1.7-2 0-5.6-1.4-7.1-9.3-9.5-4.1-1.2-8.6-2.9-10-3.6-3.1-1.6-9.7-2.6-9.7-1.5 0 .5.6 1 1.3 1.3.9.3.9.7 0 1.7-.9.9-1.3.8-2.2-.8-.6-1-.8-2.2-.4-2.5.3-.3-.6-.9-2-1.2-2.5-.7-19.8 4.6-22.1 6.6-.6.5-.5 1.9.2 3.6 1.1 2.6 1.1 2.7-.3.9-.8-1.1-1.5-2.6-1.5-3.2 0-.7-1.7-1.6-3.7-1.9-6-1-6.1-1.3-.5-1.4 2.8-.1 5.2-.4 5.2-.9 0-.4 2.1-.8 4.6-.8 2.6-.1 4.9-.6 5.3-1.1.3-.5 3-1.8 5.9-2.8 2.8-1.1 5.2-2.4 5.2-2.9.1-.6.7-4.7 1.5-9.1s1.5-10.2 1.5-12.8v-4.8l-4.4 6.3c-2.5 3.5-6.5 9.7-9 13.8-5.2 8.5-8.5 13-8.6 11.4 0-1.4 13-21.2 16.3-24.8 1.5-1.6 2.7-3.3 2.7-3.7 0-1.8-2.1-.8-7.5 3.6-3.1 2.5-5 3.6-4.3 2.5s4.1-4.1 7.5-6.6c6.1-4.5 8.1-7 6.6-8.5-.5-.5-4.4-2.4-8.7-4.3-4.3-1.8-8.7-4.1-9.8-5-1-.9-2.3-1.4-2.8-1.1-.6.4-.9-1.4-.9-4.2.1-3 .4-3.8.6-2 .3 1.6.8 2.7 1.2 2.5.5-.2 5.6-4.8 11.5-10.3l10.7-10-2.3-1.9c-1.6-1.4-1.8-1.7-.5-1.3 2.3.8 5.3-2.1 6.5-6.5 1.7-5.6 8.8-25.2 11.1-30.2 1.1-2.7 2.1-5.4 2.1-6.1 0-.8.6-1.6 1.3-1.8.7-.3.5-.6-.5-.6-1.8-.1-10.5 6.6-17.6 13.5-4 3.9-4.3 4.5-3.6 7.6 1.2 5.1 1.3 5.8 2.3 12.8.6 3.5.8 6.6.6 6.8-.5.6-2.5-6.9-2.5-9.5 0-1.2-.5-4.5-1.1-7.3-1-4.6-1.3-5-2.7-3.7-3.5 2.9-4.6 2.9-1.8-.1l3-3.2-1.3-6.7c-.7-3.8-2.3-10.6-3.6-15.3-3-10.7-3.9-16.4-2.7-15.6.5.3 1.3 2.3 1.6 4.3.8 4.8 6.8 30.7 7.2 31.1.2.4 14.2-11 20.3-16.6 3.4-3.1 3.5-3.4 1.8-4.5-4.3-2.8-5.2-3.6-4.6-4.1.3-.4 1.8.3 3.3 1.5s2.8 2 3 1.8 1.1-7.8 2-16.9 2.2-18.5 2.7-20.9c.6-2.4.6-4.7.2-5.2-.4-.4-5.5 1.9-11.3 5.1-5.8 3.3-14 7.8-18.2 10.2-4.3 2.4-7.8 4.7-7.8 5.3 0 .5 1.7 2 3.8 3.2 5.7 3.2 21.3 14.5 20.8 15-.2.2-6.1-3.4-13.1-8.1s-12.9-8.6-13.2-8.6-.3 1.5 0 3.2c.3 1.8.3 2.8.1 2.1-.4-.9-1.2-.7-2.7.7-1.1 1.1-2.2 1.9-2.3 1.7-.6-.6 2-9.3 3-10.2.7-.6 1.8-3.3 2.6-6 .7-2.8 1.7-5.5 2.3-6 .6-.6.7-.1.2 1.5-.5 1.4-1.1 3.9-1.5 5.7l-.8 3.2 8.7-4.4c4.7-2.5 11.1-5.9 14.1-7.6s7.6-4.3 10.3-5.6c2.6-1.4 5-3 5.4-3.7.4-.6 1.8-5.1 3-9.9 1.3-4.8 3.2-11.3 4.3-14.4 2.9-8.2 2.7-8.6-1.7-6.8-5.1 2.1-5.1 1.3 0-1.5 2.3-1.3 4.6-2.9 5-3.7.4-.7 2-1.3 3.4-1.3 2.5 0 2.5.1.9 1.3-1.7 1.2-1.2 1.9 5.5 7.6 4.1 3.5 10.3 8.8 13.8 11.9 8.7 7.7 12.4 10.3 13.2 9.5 3.2-3.8 14.1-18.2 17.9-23.8 2.6-3.9 7.8-11.4 11.6-16.9 3.8-5.4 7.9-11.2 9.1-13 2.5-3.5 2.9-5.6 1.1-5.6-.9 0-.8-.4.2-1 1.9-1.2 8-1.3 8-.2m-273.6 49.7c2.5 1.4 5.4 2.5 6.5 2.5 1.2 0 1.8.5 1.6 1.3-.3.7 1.5 2.1 4.5 3.5 5.8 2.7 6.9 4 1.3 1.6-9-3.9-9.1-3.9-11.1-2.1-1 .9-2.2 1.7-2.6 1.7s-5.5 3.9-11.4 8.6-11.4 9-12.2 9.7c-6.9 5.5-8.1 6.7-6.1 6.4 1.1-.2 2.4-.6 2.7-1 .4-.4 1.5-.7 2.5-.7.9 0 1.9-.5 2.1-1.1.2-.7 1.1-.7 2.8 0 2.2.8 2.2 1 .5 1.1-1.5.1-1.2.4.9 1 1.6.5 3.3.7 3.8.4.4-.3.8 0 .8.5 0 .7 4 1.1 11.3 1.1 23.7 0 63.7 1.4 63.7 2.2 0 .4-12.9.8-28.7.8-27.3 0-35.8.7-20.1 1.7 9.7.5 11.6.9 13.2 2.6.9.8 2.6 1.2 4 1 2.1-.4 3.5.5 7.6 4.6 2.7 2.8 5 5.6 5 6.2 0 .7 1 .9 2.4.7 1.9-.4 2.3-.1 1.8 1.1-.3.9 2.8-1.2 6.9-4.6 11.7-9.8 16.1-14.1 15.4-15.3-.3-.5.3-1 1.4-1s2.3.4 2.6 1c.3.5.1 1-.6 1-.6 0-4.6 3.3-8.8 7.3-7.6 7.3-19.9 18.2-30.1 26.7-3 2.5-6.5 5.4-7.9 6.6l-2.4 2.1 2.4-.1c2.1-.1 2.4.3 2.5 4.3.2 4.1 1.8 6.6 3.6 5.5.5-.3.8 1 .6 3-.3 4.7-2.6 4.7-7.5.2-3.5-3.2-3.6-3.4-1.5-4 2.6-.9 3-4.7.7-6.6-1.2-1-2-.9-4 .4-2.5 1.7-3.6 3.3-1.2 2 .7-.4.9-.3.4.2s-1.4.9-2 .9c-.7 0-1.3 1-1.3 2.3-.1 1.2-.5 2.6-.9 3-.5.4-.5-.1-.2-1 .8-2.1-.9-3.3-2-1.5-.4.8-1.8 1.9-3 2.6-1.3.6-2.3 1.7-2.3 2.3s.8.4 1.9-.6c1.5-1.4 1.9-1.4 2.4-.3.3.9-.5 2-1.9 2.8-2.3 1.2-1.5 1.5 12 4.9 21 5.3 21.1 6.7.1 2-10.9-2.4-17.5-3.3-17.5-2.3 0 .5 1.6 3.2 3.5 6 5.2 7.8 4.2 7.7-1.4-.1-4.8-6.6-5-6.7-5.4-4-.4 2.8-.4 2.7-.6-.5l-.1-3.3-5.3.6c-9.1 1.2-20.2 4.2-20 5.4.2.6-.6 1.6-1.7 2.2-1.7.9-2 .8-2-.9 0-2.5 5.5-3.3-54.2 8-6.5 1.2-11.8 2.5-11.8 2.9 0 1.3 3.5 4.1 16 13.1 6.9 4.9 14.8 10.6 17.5 12.6 2.8 2 7.3 5.3 10 7.3 13.5 9.8 17 12.4 17.5 13.1.3.3 1.9 1.5 3.7 2.6 4.7 2.8 27.2 19.7 26.8 20.1-.3.3-11.5-7.5-18-12.6-1.7-1.3-8.6-6.3-15.5-11.2s-17.2-12.3-23-16.5c-32.7-23.8-36.5-26.3-37.2-25.2-.4.6-.5 1.4-.3 1.7.1.3.6 7.5 1 16s.8 17.7 1.1 20.5c.2 2.7.6 18.4 1 34.7.4 16.4 1 29.8 1.3 29.8s19.3-6.3 42.1-14.1c22.8-7.7 44-14.8 47-15.7s6.3-2.6 7.2-3.7c1.6-1.8 1.7-1.8 1.8-.3 0 1.3.9 1.8 3.3 1.9l3.2.2-3 .4c-1.6.3-3.5.9-4.2 1.5-.7.5-2 .7-3 .4s-4.3.4-7.3 1.5-23.5 8.1-45.5 15.6c-22 7.4-40.3 14.1-40.7 14.7s0 1.4.9 1.7c1.4.5 1.3.7-.5 1.1-1.6.5-2.2 1.4-2.2 3.5 0 1.5-.4 4.2-.9 5.9s-1.2 6.3-1.6 10.2c-.6 6.5-.5 7.2 1 6.6 1.2-.5 1.6-1.6 1.3-4-.2-1.9 0-3.4.4-3.4s.8 1 .8 2.3c0 1.2.8 3.4 1.7 4.7 1.5 2.2 1.5 2.3.1 1.2-1.1-.9-1.8-1-2.3-.2-.3.5.1 1.3.9 1.6 2.3.9 2 1.9-1 3.3-1.5.6-2.4 1.4-2.2 1.6.3.3 3.6-1.2 7.4-3.3 4.9-2.7 6.8-4.3 6.6-5.5-.2-1 .4-1.7 1.3-1.7s1.3.4 1 1c-.3.5-.3 1 0 1 .9 0 15.8-8 17-9.1 1.5-1.5-.4-1-3 .7-2 1.3-2.5 1.4-2.6.3 0-1-.2-.9-.7.2-.5 1.2-1.3 1.4-2.7.8-1.7-.6-1.7-.8-.2-.8.9-.1 1.7-.6 1.7-1.2s.7-.9 1.5-.6c.8.4 1.7.2 2-.4.4-.5 1-.7 1.4-.4.5.2 1.7-.2 2.7-1 2.6-1.9 3.4-1.9 2.8.2-.4 1.4-.1 1.3 1.4-.4 1.1-1.2 2.2-2 2.5-1.7s1.4.1 2.4-.5 1.2-1.1.6-1.1c-.7 0-1.3-.4-1.3-1 0-.5 1.3-.7 2.9-.4 1.6.4 3.2.1 3.5-.5.4-.6 1.7-.9 2.9-.6 1.2.4 11.4-1.3 22.7-3.6s21.6-4.4 23-4.7c1.4-.2 2.2-.2 1.9.2s-8 2.2-17 4.1c-31.6 6.7-31 6.5-30.4 8.9.6 2 .5 2-.8.3-.8-.9-1.7-1.7-2-1.7-.4 0-5.1 2.4-10.4 5.4-5.4 2.9-13.8 7.5-18.8 10.1-10.6 5.6-20.7 11.6-20.3 12 .6.6 26.4 6.6 39 9.1 39.3 7.6 52.1 10.4 51.4 11.1-.2.2-6.9-.9-14.8-2.5-7.8-1.7-20.4-4.2-27.8-5.7-7.4-1.4-20.5-4.1-29-6s-17.1-3.7-19.1-4l-3.6-.7-4.9 15c-7.2 22.3-7 19.1.5-6.1 1.1-3.7 1.6-6.7 1.2-6.7-2.4 0-21.1 11.3-21.6 13.1-.4 1.1-1.2 1.8-1.8 1.6-.7-.3-5.1 1.6-10 4.2-9.1 4.8-9.2 5.1-2.3 6.6 1.5.3 2.6.8 2.3 1.1-.2.3-2.3.1-4.6-.5-2.3-.5-5.6-.8-7.4-.6-3.1.2-21.7 4.9-24.7 6.2-.8.4-2.2.8-3 .9s-3.5.9-6 1.8c-2.5.8-5.6 1.6-6.9 1.6-2.1 0-2.3.3-1.8 3.2.3 1.8.3 2.7 0 2-.7-1.7-2.1-1.5-2.7.5-.2 1-.2.2 0-1.8l.6-3.5-5.6-1.4c-3.1-.7-5.9-1.1-6.2-.8-.3.4.2 2.1 1.2 4 1.9 3.6 3.1 10.4 1.4 7.8-.5-.8-1-2.1-1-2.7 0-.7-.8-3.1-1.7-5.3-2-4.5-2.9-4.7-10.7-2.7-5.7 1.5-6.6 2.9-3.7 5.4 1.2.9 2.1 2.7 2.1 3.8 0 3.2 12.5 31 13.8 30.8.7-.2 1.2.9 1.2 2.8 0 2.7.3 3 2.3 2.4 2.1-.7 2.1-.6.3.7-1.8 1.4-1.5 2 4.9 11.6 3.8 5.6 7.2 10.2 7.7 10.2.4 0 .8.5.8 1.1 0 .7 3.9 6.3 8.8 12.6 11.4 15 12 15.9 10.4 14.9-.8-.5-5.2-6-9.8-12.3-4.7-6.3-9.2-11.7-10-12-.7-.3-1.4-1.2-1.4-2s-1.3-3.2-2.9-5.2c-1.5-2-4.5-6.2-6.6-9.4-2.1-3.1-4.1-5.7-4.6-5.7-.4 0-1.1.9-1.4 2.1-.4 1.1-.9 1.9-1.1 1.7-.2-.3.2-1.8.8-3.5 1.1-2.8.8-4-2.9-12-2.3-4.9-5.7-12.8-7.7-17.6-1.9-4.8-4-9.5-4.5-10.4-1-1.7-1-1.6-1.1.2 0 1.1 1.2 8.3 2.6 16s3.4 18.6 4.4 24.3 2 10.6 2.3 10.9c.3.2 1.2-.8 2.1-2.4.8-1.5 1.5-2.4 1.5-1.8 0 .5-.6 2.1-1.4 3.5-2.6 4.6-.6 21.9 2.5 21.2 1.1-.3 1.1 0 .1 1.1-1.2 1.5 1.5 6.6 9.6 18.2 3.8 5.4 4.6 7.7 3.1 8.6-.8.5-1.5.3-1.8-.7-.4-1.1-1.5-.8-5.4 1.8-2.7 1.8-6.4 4.2-8.3 5.4-6.2 3.8-6.2 4.1-1.3 8.5 2.5 2.2 7.1 6.1 10.3 8.6 3.1 2.5 5.5 4.8 5.3 5-.2.3-1.5-.5-2.8-1.6-5.4-4.6-16.3-13.1-16.9-13.1-.4 0-.3 1.7.2 3.7 1.1 5 .4 5.4-1.1.6-.6-2.1-1.3-4.3-1.5-5-.3-.9-1.5-.8-5 .3-4.2 1.5-5.7 3.5-3.5 4.9.6.3 1 1.1 1 1.6 0 .6-1-.2-2.3-1.6-2.2-2.6-2.2-2.6-6.6-1-5.2 1.8-4.8 1.8-5.4.2-.3-.9.3-1.2 2.2-1 4.6.6 7.3-1.7 8.8-7.7.7-3 1.9-5.7 2.4-6.1.8-.4.7-.9-.1-1.4-.7-.4-2.3.4-3.9 1.9-1.5 1.4-3.5 2.6-4.4 2.6-1.1 0-2 1.4-2.7 4.1-.6 2.3-1.3 3.9-1.6 3.6-.3-.2.2-2.4 1-4.8 1.8-5.1 2-9.5.6-10.4-.5-.3-2.4-2.6-4.1-5.2-3-4.3-3-4.4-.6-2.9 1.4 1 2.7 2.5 3 3.5.8 3 5 5.1 10.5 5.2 4.3.1 5.2.5 5.2 2 0 .9 1.2 3.1 2.6 4.8l2.6 3.1 5.7-3.1c3.1-1.8 7.3-4.4 9.4-5.9l3.8-2.7-4.6-1.2c-2.5-.6-4.5-1.4-4.5-1.7 0-.5 5.7.3 9.3 1.3 2.6.7 2.1-1.2-2.3-7.9-2.3-3.3-4.8-7.4-5.6-8.9-1.9-3.7-3.4-3.6-6.1.4-1.2 1.7-3.5 5-5.1 7.2-1.5 2.2-3.1 4.8-3.5 5.8s-1.2 1.7-1.9 1.6-2.4.2-3.8.8c-4.1 1.6-8 2.4-8 1.5 0-.4 2-1.3 4.5-2s4.5-1.5 4.4-1.9c-.1-1.4-14.7-13.3-16.2-13.3-.8 0-2 .7-2.7 1.5-2.2 2.7-2.9.2-1.5-5.1 2-7.6 6.7-21.8 7.5-22.4.4-.3.9-1.3 1.3-2.2 1-2.7-13.4-16.4-23.8-22.5-4.9-2.9-9-5.2-9.1-5-.6.6 2.6 10.1 4 11.6 2.7 3.3 3 4.4.7 2.9-1.2-.7-2.8-3.4-3.6-6.3-2.1-6.8-3.8-10.5-5-10.5-.5 0-.3-.6.6-1.3 2.1-1.6 4.5-6.3 15-30 4.8-11 8.5-20.6 8.2-21.5-.4-1.3-.3-1.4.5-.4.7 1.1 1 1.1 1.5-.2.3-.8.1-1.6-.5-1.8-.7-.3-.4-1.2.9-2.5 1.2-1.2 2.4-3.2 2.8-4.5.5-1.2 2.6-6.1 4.8-10.8 3.4-7.1 4.1-9.8 4.5-16.2.5-10.2-1.2-22.7-4.3-30.4-2.8-7-3.6-12.9-2.5-18.3.8-3.5 1-6.7 2.7-32.6.6-10.9.8-11.5 1.5-7 .4 2.7.6 5.9.3 7-.2 1.1-.5 5.8-.6 10.5s-.5 9-1 9.6c-1.4 1.8-1.4 17.6.1 22.4l1.3 4.5.8-3q1.2-5.4.9 3.3c-.1 3.9.3 4.7 5 9.4 2.8 2.8 5.2 4.9 5.4 4.7s.8-1.8 1.5-3.4l1.1-3-.3 3.7-.3 3.8h4.4c4.3 0 4.4-.1 3.7-2.7-1.1-4.4-4.5-11.3-5.5-11.3-.6 0-1-.9-1-2.1 0-1.1-.5-3-1.1-4.1-.8-1.6-.8-2.2.2-2.9.7-.4 1.7-.5 2.1-.3.4.3 2.9-1.1 5.4-3 2.6-2 5.1-3.6 5.5-3.6.5 0 .9-.9.9-2s-.3-2-.7-2c-.5 0-2.1-2-3.6-4.5-2.3-3.6-3.2-4.3-4.5-3.6-3.2 1.7-10.2 9.5-10.2 11.4 0 1 .5 1.5 1 1.2.6-.3 1 .3 1 1.5 0 1.7-.3 1.9-1.9 1.1-1-.6-2.2-.7-2.6-.3-.5.4-.5-.1-.2-1.1.4-1 .7-5.5.7-9.9 0-9 .7-10.3 1.1-2 .2 2.8.4 5.2.6 5.2s2.4-1.7 4.8-3.7c4.7-3.9 5-4.5 12.8-21.8 2.7-6.1 4.6-9.7 4.2-8.1-.6 2.8-5 13.1-8 18.8-1.9 3.8-.6 3.5 3.6-.8 1.8-2 4.3-4 5.4-4.6s-.8 1.6-4.2 4.8l-6.2 5.9 3.4 5.2c1.9 2.9 3.9 5.3 4.4 5.3s1.5-2.4 2.1-5.3c.7-2.8 1.9-6.7 2.6-8.6 2.2-5.3 3-13.3 2.6-26.1-.2-7-.4-7.4-1.8-5.5-.8 1.1-1.8 3.2-2.1 4.7s-1 2.6-1.5 2.5c-.9-.2-8.5 12.1-16 25.8-2 3.8-3.8 6.6-3.8 6.2 0-1.3 4.8-10.3 12.8-24.1 11-19.1 11.3-19.7 10.7-20.6-.2-.4.2-1.3 1-2s1.5-2 1.5-2.8c0-3 9.3-39.2 10-39.2.8 0 .1 3.1-5.4 25.5-1.9 7.7-3.3 14.2-3.1 14.4.5.5 10-5.6 11.5-7.4.9-1 .9-5.2 0-16.7-.6-8.4-1.4-16.8-1.8-18.7l-.7-3.4-5.5 7.9c-3 4.3-9.1 13.1-13.7 19.4-15.2 21.2-16.3 22.8-16.3 23.9 0 .7.5.9 1 .6.6-.3 1-.1 1 .4 0 .6-.8 1.1-1.9 1.1-2.2 0-3 5.7-3.3 23.9-.2 10.3-.3 9.7-.8-5.9-.3-9.6-.2-17.9.3-18.5.4-.5.7-1.9.7-3.1 0-1.4.6-2.1 1.7-2s6.2-6.3 15-18.9c7.3-10.5 14.6-20.8 16.3-23 1.6-2.2 4.1-6.1 5.5-8.8 1.4-2.6 2.9-4.7 3.4-4.7.4 0 1.3-1.2 2-2.7.7-1.4 2.7-4.9 4.5-7.7 9.8-15 17.6-27.5 17.8-28.6.3-1.3 2.3-3.1 25.6-24.1 6.2-5.6 11-10.4 10.8-10.6-.3-.3-6.5 2.8-13.8 6.8-7.3 3.9-15.8 8.5-18.8 10.2-3 1.6-8.2 4.5-11.5 6.3-6 3.3-14.5 7.1-13.4 6 .3-.3 3-1.8 6-3.4 3-1.5 10.4-5.5 16.4-8.9 18.9-10.4 40.8-21.7 45.5-23.4 12.5-4.6 19.4-6.9 19.7-6.5.2.2-2.5 1.3-5.9 2.6-10.4 3.7-13.9 5.3-13.1 6.1.5.5 7.6 2.6 16 4.8 17.2 4.5 15.7 4.5 47.8.5 12.3-1.5 21.6-3.2 22.4-3.9.9-.9 2.2-1 4.3-.5 1.6.5 5.3.5 8.6-.1 3.1-.5 8-1.4 10.7-1.8 2.8-.5 5.3-.7 5.8-.4.4.2.7 0 .7-.6 0-.5-3.4-3.1-7.5-5.6-8.2-5.2-10.1-7.1-3-3 2.5 1.4 6.5 3.6 8.9 5M940 315.6c0 1.5-8.5 12.7-13.4 17.8-3.1 3.1-5.6 6.3-5.6 7.1s-1.4 2.7-3.1 4.3c-3.6 3.3-3.4 6.2.5 8 2.2 1 2.5.8 3.5-1.9.6-1.7.7-3.9.2-5.1-.9-2.5 0-3.7 6.3-8.4 3.4-2.5 3.8-2.6 2.8-.8-.6 1.2-2.5 3.4-4.1 5-2.4 2.2-3.1 3.9-3.6 8.6-.4 3.2-1.1 5.8-1.6 5.8-1.1 0-6.1-3.1-7-4.3-1.3-1.7-3.9.6-4 3.7l-.2 3.1-.4-3c-.3-2 .1-3.3 1.3-4.2 2.2-1.6 3.4-13.7 1.5-15.6-.6-.6-1.1-1.9-1.1-2.9q0-1.65-1.5-1.2c-.8.4-1.5.1-1.5-.4 0-.6.9-.9 2-.7 1.3.2 2.4-.4 3.1-1.8 2.2-4.2 8.7-10.5 9.7-9.5.7.7 1 .4.9-.8-.2-1.3.7-2 2.8-2.5 3.8-.8 12.5-1.1 12.5-.3m1.4 50.6c.3 1.3.7 3.2.8 4.2.4 2.8 2.8 3.2 2.8.5 0-1.2.2-2 .5-1.7s.1 3.4-.5 6.9-1.2 7.1-1.4 7.9c-.1.8-.8 2.8-1.4 4.3-.7 1.6-1.2 3.4-1.2 4.2s-.4 1.6-.9 2c-.9.5.1-4.6 1.6-8.5 1.1-2.9 1.5-12.2.4-11.6-.5.3-1.1-.2-1.3-1.1-.5-1.9-2.6 9.3-3.2 16.9-.2 2.5-.8 5.2-1.2 6-.5.7-.9 1.7-1 2.3 0 .5-.2 1.6-.2 2.2-.1.7-.7 1.3-1.3 1.3-1.6 0-14.9 8.8-15.4 10.3-.2.6-.6 3-.8 5.2-.3 2.2-.8 4.8-1.2 5.7-1.3 3.1 1.8 2 4.3-1.5 5.7-8.2 7.2-9.9 7.2-8.5 0 1.7-7.2 11.5-9.7 13.3-1 .7-2.9 1.5-4.3 1.9-1.5.5-2 .4-1.2-.1 1.4-1.1-1.9-3.8-9.3-7.8l-4.6-2.4-.6 3c-.3 1.6-.9 3.2-1.3 3.4-.5.3-.2-2.3.6-5.7 1.9-8.2 2.2-8.9 2.4-5.3.1 3.6 1.4 1.8 2.5-3.5.9-4.3 2.4-6.3 3.9-5.2 2.1 1.6 11.5 3.4 13.8 2.6 2.9-.9 11.1-6.4 10.5-7.1-.3-.2-3.1-.6-6.3-.9-6.4-.4-7.3-.9-5.6-2.6.7-.7 1.2-2.3 1.2-3.6s.5-3.2 1-4.2c.7-1.2.7-2.8 0-4.4-.9-2.4-.8-2.5 1.1-1.3 1.8 1.1 2.3.8 4.9-2.3l2.9-3.5.1 4.2c0 3.7.2 4.1 2.2 3.5 2-.5 2.1-.2 1.5 3.3-.8 5 .7 3.3 2.1-2.5 1.5-5.7 3.1-15.1 3-17-.3-5 1.7-7.1 2.6-2.8M806 559.3c0 .8-2.4 2.9-5.2 4.7-7.1 4.6-17.8 13-17.8 14 0 .4-.9.6-2 .3s-2 0-2 .6-.5 1.1-1.2 1.1c-.6 0-9.7 4.2-20.2 9.4-10.5 5.1-20.3 9.6-21.9 10-1.5.4-3.6 1.5-4.7 2.6s-2.4 2-2.9 2-4 2.4-7.7 5.3c-3.8 2.9-9.1 6.8-11.8 8.6-2.7 1.9-7.2 5.3-10.1 7.6-2.8 2.4-7.4 5.2-10.1 6.4l-4.9 2.2 3-2.6 3-2.5-6.5-6.1c-7.9-7.3-22.4-18.9-23.7-18.9-.5 0-1.5-1-2.2-2.3-.6-1.2-6.2-5.3-12.4-9.1-12.1-7.6-21-14.1-21.5-16-.2-.7-.1-.8.5 0 .4.5 2.4 2 4.3 3.2 2 1.1 4.9 3.3 6.5 4.7 4.3 3.7 21.4 13.5 23.6 13.5 1.1 0 1.9.5 1.9 1.1 0 .5.5.7 1 .4.6-.4 1.6-.2 2.3.3s7.4 1.2 15 1.6l13.7.7.1-2.3.2-2.3.4 2.3c.5 2.3.5 2.3 16.1 2.1 9.1-.1 16.5-.6 17.7-1.2 1.1-.6 2.3-1.2 2.8-1.3.4-.1.8-.2 1-.3.1-.1 1.8-.4 3.8-.6 2.1-.2 12.9-5 24-10.6 16-8 20-10.3 18.4-10.9-1.7-.6-1.3-.9 1.8-1.5 2.4-.5 3.7-1.3 3.7-2.4 0-1 .3-1.2.8-.5.5.9 1.6.7 3.8-.5 4.6-2.4 14.6-9.5 16.8-12s2.6-2.6 2.6-.8M508.5 660.2c-.4 1.8-1.1 3.7-1.5 4.3-1.4 1.8-2.3 7.8-1.1 7.1.6-.4 1.1-1.5 1.1-2.4 0-1.9-.2-1.9 12.2-2.4 7.3-.4 8.9-.2 10.2 1.3.8 1 1.2 2 .9 2.3s.2.8 1.1 1.2c.9.3 1.6 1.1 1.6 1.8 0 .6.9 1.7 2.1 2.4l2.1 1.3-2.2 2.4c-1.8 1.9-2.2 3.5-2.1 8.3 0 3.5-.5 6.6-1.3 7.7-1.2 1.6-1.3.9-.8-5.6l.5-7.4-2.2 2c-1.4 1.2-3.8 1.9-6.4 2-2.3.1-7.1.5-10.5.9-6.2.9-6.4 1-5.9 3.5.3 1.4.9 3.5 1.3 4.6 1.2 3.2-2.9-2.2-5.5-7.4l-2.3-4.3-3.5 3.3c-2 1.9-6.3 6.3-9.7 9.7-3.3 3.5-7 6.9-8.1 7.4-2.4 1.3-1.2-.1 11.8-13.5 7.8-8.2 8.7-9.5 8.7-12.9 0-2.4.4-3.7 1.2-3.6.7.2 2.1-2.5 3.3-6.2 3.3-10 6.5-15 5-7.8m695.7 15.3c1.1 1.4 2.3 2.3 2.7 2 .5-.2 1.3.7 2 2.1 1.6 3.5 1.3 5.4-.4 2.4-.8-1.4-1.4-2.1-1.5-1.6 0 1.7 2.4 9.1 3.3 10.1.7.7.8.6.3-.3-.4-.7-.1-1.5.7-1.8.7-.2 2.4-3.8 3.7-7.9 1.8-5.7 2.8-7.5 4.2-7.5 1.6 0 1.4.9-1.6 9.2-1.8 5.1-3.6 10.9-4 12.9-.5 3.1-1 3.6-3 3.2s-3-2.2-6.5-11.8c-2.3-6.2-4.1-11.7-4.1-12.4 0-1.9 2.1-1.2 4.2 1.4m20.8 5.1-.8 3.6 1.9-2.1c2.3-2.5 4.4-2.6 7.9-.6 1.4.8 3.2 1.7 4 2.1s2.2 1.3 3.1 2c1.3 1.2 1.8 1 3.7-1.5 3-4.1 7.2-4.8 12.5-2.1 5.7 2.9 8.5 5.7 9.2 9.1.7 3.3-1.8 9.4-4.3 10.4-1.1.4-.8-.3.8-2 3.1-3.3 3.3-9.4.6-12.4-1.1-1.2-2.1-1.9-2.4-1.6s.2 1.3 1 2.2c.9 1 1.8 2.9 2.1 4.3.6 2.3.5 2.2-.5-.3-1.4-3.1-2.8-3.6-2.8-.8 0 2.5-4 7.3-5.6 6.7-.8-.3-1.1 0-.7 1 .9 2.3 5 1.6 7.2-1.2 1.2-1.5 2.1-2.3 2.1-1.8 0 1.6-4.4 5.4-6.2 5.4-1.1 0-2.9-.5-4.1-1.2-2-1-2.1-1-.8.5 2.3 2.9.4 1.9-5.1-2.6-4.5-3.6-5.8-4.2-8.3-3.6-1.6.4-2.5.7-2 .8.6.1-.3 1-2 2.1-2.4 1.6-2.6 2-1.3 2.5 1 .4 3.1-.1 4.7-1.1 1.7-1 3.3-1.5 3.7-1.1.9.8-2.5 4.7-4 4.7-.6 0-.3-.5.7-1.1.9-.5 1.7-1.4 1.7-2 0-.5-1.1-.2-2.5.7-1.6 1-3.4 1.4-5.1 1-1.8-.5-2.4-.3-1.8.5.9 1.5-.7.6-5.4-2.9-2.2-1.7-3.1-3-2.7-4.1.3-.8.3-1.2-.1-.9-1.4 1.5-3.6-2.2-3-5 .5-2 .4-2.3-.4-1.2-.7 1.1-1 1.1-1 .2 0-.7.7-1.5 1.5-1.8.8-.4 1.5-1 1.5-1.6 0-.5-.4-.6-1-.3-.6.4-.7-.1-.3-1.1.4-1.1.8-1.3 1.1-.6.2.7.8 1 1.3.6 1.3-.8 1.1-4.2-.3-4.7-.7-.3-.3-.6.8-.6 2-.1 2.1.2 1.4 3.5"/><path d="M715 56.4c0 .8.4 1.7.9 2 .4.3 3 5.6 5.6 11.8 2.7 6.2 5.9 13.1 7.1 15.3 2.4 4.3 5.9 11.3 10.5 21.2 1.6 3.5 3.5 6.3 4.3 6.3.7 0 5.5-2.5 10.6-5.5 5.1-3.1 12.9-7.7 17.4-10.2 10.6-6 20.6-12.5 20.6-13.5 0-1.7-1.8-2.4-53.7-20.3-11.6-4-21.6-7.6-22.2-8-.6-.3-1.1.1-1.1.9M706 67.3c-3.6 5.6-6.4 10.7-6.4 11.4.1.7-.2 1.1-.6.8-.9-.5-2 .9-9.4 12.2-3 4.5-5.1 8.5-4.8 8.9.4.4.1.4-.5 0-.7-.4-1.3-.3-1.3.1 0 .5-1.3 2.3-3 4.1-3 3.4-5.4 9.2-3.1 7.8.6-.4 1.1-.1 1.1.7 0 1.3 2.2 1.5 13.1 1.4 7.1 0 13.2-.4 13.5-.9.3-.4 2.9-.8 5.7-.9 3.8 0 4.7-.3 3.2-.9-2-.9-2-.9.1-.9 1.1-.1 2.4-.5 3-1 .5-.5 2.2-.7 3.9-.4 2.6.5 2.7.7 1 1.4-1.9.7-1.9.8.3.8 1.2.1 2.2-.4 2.2-.9 0-.6.9-1 2-1s2-.5 2-1.2c0-.9.3-.9 1.2 0 2 2 4.8 1.4 5.8-1.4.9-2.2-.1-4.8-7-18.8-4.4-8.9-8-16.6-8-17.1 0-1.3-5.8-13.3-6.7-13.8-.4-.3-3.7 4.1-7.3 9.6M791.5 87.4c-1.1.6-6.5 3.8-12 7.2-11.2 6.8-28.5 17.2-31.8 19.1-1.2.7-2 1.3-1.7 1.4.3 0 4.1.3 8.5.5 4.4.3 10.7.9 14 1.4 3.3.6 10.1 1 15.1 1h9.1l1.2-8.8c1.3-10.1 1.5-21.9.4-22.5-.5-.3-1.7 0-2.8.7M633.6 87.7c-.3.4-.6 1.4-.6 2.4 0 2.4-4.8 19.6-6.6 23.6-.8 1.7-1.4 4.1-1.4 5.3 0 2.1.4 2.2 4.8 1.7 30.6-3.3 37.2-4.1 37.2-4.7 0-.8-20.6-19.2-28-25.1-2.6-2.1-5.1-3.5-5.4-3.2M649 120c-4.1.4-11.1 1.3-15.6 2l-8 1.2-1.2 5.6c-.6 3.2-1.6 10.6-2.2 16.7-.6 6-1.2 12.9-1.5 15.2-.3 2.4-.1 4.3.3 4.3.8 0 12.2-11.5 41.7-41.9l3.9-4.1-4.9.1c-2.8.1-8.4.5-12.5.9M794.9 123.2c-1.9 30.6-2.5 41.4-2.2 42 .2.4 5.2-1.7 11.1-4.6s13.4-6.5 16.7-8 8.9-4.3 12.4-6.3l6.3-3.5-4.3-2.5c-2.4-1.3-9.3-4.7-15.4-7.4-6-2.8-13.8-6.3-17.3-8-7.1-3.3-7.2-3.3-7.3-1.7M827 151.6c-5.8 3-10.9 5.4-11.3 5.4-.5 0-2.3 1-4 2.2-1.6 1.2-6.1 3.6-9.7 5.4-3.7 1.8-7.1 3.7-7.4 4.2-.4.6.5 1.9 2 2.9 1.4 1 3.3 2.5 4.3 3.3 1.5 1.4 15.1 10.8 17.8 12.4.8.4 2.3-1.6 4.4-6.1 1.7-3.7 5-10.6 7.3-15.3 2.4-4.7 5.1-10.7 6.1-13.3 1.1-2.9 2.7-5.2 3.9-5.7 2-.8 1.9-.9-.4-.9-1.4.1-7.2 2.5-13 5.5"/><path d="M841 148.9c0 .6-.5 1.7-1 2.4-2.3 2.6-18.7 37.5-18.1 38.3 2.4 3.4 21.3 19.5 22 18.8.4-.5.4-11.7-.2-24.9-1.2-32.1-1.4-34.5-2.1-35.2-.3-.4-.6-.1-.6.6M648.3 173.3c-1.2.7-2.8 2.4-3.4 3.9-1.3 3.2-5.3 4.7-7.9 3-2.2-1.3-3-.6-3 2.7 0 3.4 1.5 5.6 3 4.6.7-.4 1.6-.2 2.1.6s.9.9.9.4c0-.6 1.7-.9 3.9-.7 3.3.3 4.1.9 5 3.3.5 1.6 1.5 2.9 2 2.9.6 0 1.1.7 1.1 1.5s-.7 1.5-1.5 1.5c-2.1 0-1.4 3.6 1.1 5.5 3 2.3 4.4 1.8 4.4-1.5 0-1.7.5-3 1-3 .6 0 1-1.1 1-2.5 0-1.6.6-2.5 1.5-2.5 1.1 0 1.5-1.3 1.5-5.4 0-3-.4-5.7-.9-6.1-.5-.3-1.3-2-1.6-3.7-1.3-5.6-4.8-7.1-10.2-4.5M619.6 177.2c-.5 3.8-3.7 46.1-3.6 49.7v2.4l19.8-.8c10.8-.5 21.2-.8 23-.7 1.7.1 3.2-.3 3.2-.8 0-.6-.4-1-1-1-.5 0-1-.5-1-1.2 0-.6-1.1-2.5-2.4-4.2-14.5-18.6-23.6-30.3-28-36.1-3-3.9-6.3-7.9-7.4-8.9-2-1.8-2.1-1.7-2.6 1.6M794 175.6c0 .8.9 4 1.9 7.2 1.1 3.1 2.9 9.3 4 13.8 2.5 10 5.9 17.6 7.4 17.1 1.3-.4 6.5-10.4 9.6-18.5l2-5.3-4.2-3c-3.8-2.8-6-4.1-14.3-8.7-1.3-.7-2.4-1.7-2.4-2.1 0-.5-.9-1.1-2-1.4-1.3-.3-2 0-2 .9M615.2 181.1c-2.7 6.8-10.4 28.5-11.7 32.9-.7 2.5-1.6 5.5-2 6.6-.6 1.9.2 2.6 5.4 5.2 6.1 3 6.1 3 6.6.9.9-4.1 3.7-42.2 3.3-45.6l-.3-3.4zM791.7 185c-1 5-2.9 41.1-2.2 41.8.3.4 1.8-.1 3.3-1.1 1.5-.9 4.6-2.6 7-3.7 5-2.5 5.3-4.4 2.1-12.3-1.1-2.9-2.5-6.2-3-7.5s-.9-3.3-1-4.5c0-1.2-1.3-5.3-2.8-9.1-2.8-6.8-2.8-6.8-3.4-3.6M818.1 197.5c-1.1 3-3.6 8.6-5.6 12.5-1.9 3.8-3.5 7.2-3.5 7.6 0 .8 4.3.2 20-3.1 16.3-3.3 16-3.2 12.4-5.4-1.6-1-6.5-5.2-10.9-9.4s-8.5-7.7-9.2-7.7c-.6 0-2.1 2.5-3.2 5.5M828.6 216.2c-7.6 1.6-14.9 3.4-16.3 3.9-3.2 1.2-2.6 2 8.4 10.8 8.4 6.8 14.9 10.8 15.8 9.9.6-.6 7.5-25.3 7.5-26.8 0-1.2 1.4-1.4-15.4 2.2M592.9 229.7c-2.9 2.7-7.7 7.3-10.6 10.3l-5.4 5.4 2.3 1.8c2.8 2.2 17.8 10.1 18.3 9.6.5-.6 1.7-31.8 1.2-31.8-.3 0-2.9 2.1-5.8 4.7M599.8 239.1c-.2 7.7-.1 14.3.1 14.5.3.3 2.3-3.3 4.4-7.8 2.2-4.6 4.6-9.1 5.4-10 2.4-2.7 1.2-6-3.2-8.5-2.2-1.2-4.5-2.3-5.2-2.3-.9 0-1.3 4-1.5 14.1M800 226c-.8.4-3 1.4-4.7 2-2.7 1-3.3 1.8-3.3 4.1 0 1.5.4 3 .9 3.3s1.2 1.8 1.6 3.3c1.1 4.8 3.8 10.3 5.1 10.3 1.5 0 4-16.3 3.5-22.8-.1-1.4-1-1.5-3.1-.2M626.5 231c-9.8.6-10.5 2-4.8 8.8 2.2 2.6 6 7.6 8.4 11.2 2.5 3.6 6.6 9.4 9.3 13s5.2 7.4 5.6 8.5c1.1 2.9 7.9 10.9 10 11.7 1.5.5 1.9-.9 3.8-11.5 1.2-6.7 2.4-16.1 2.7-20.9s.9-9.7 1.4-11c.4-1.3 1.1-4.2 1.5-6.6l.6-4.2-15.2.2c-8.4.2-18.9.5-23.3.8M668.5 231.7c1.2 5.1 11 35.4 12.9 39.8 2.6 5.9 3.5 9.1 7.3 24.3 1.5 6.2 3.3 11.2 3.8 11 .6-.2.9-1 .8-1.8s1.6-4.8 3.7-9c2.1-4.1 5.3-11.1 7-15.5 1.8-4.4 4.6-10.9 6.2-14.5 1.7-3.6 4.6-10.1 6.5-14.5s3.8-8.9 4.4-10c1.9-4.2 3.7-10.3 3.2-10.9-.4-.3-13.1-.6-28.4-.6-25.9 0-27.8.1-27.4 1.7M729.8 231.2c-.3.7.1 6 .8 11.8s1.9 16.8 2.8 24.4c1.5 13.2 2.5 16.4 4.9 14.9.5-.3.3-.9-.4-1.4-1-.6-.8-.9.8-.9 1.5 0 5-3.1 11-9.7 21.7-23.8 31-34 33.1-36.3 1.2-1.4 2.2-2.8 2.2-3.3 0-.4-4.8-.6-10.7-.5l-10.8.3-.3 2.7c-.4 3.7-1.8 3.6-2.5-.2l-.6-3h-15c-11 0-15 .3-15.3 1.2"/><path d="M717.5 254.7c-5 10.8-10.5 23.2-12.3 27.7s-4.8 11.4-6.8 15.5c-1.9 4-3.3 7.6-3 7.9.7.7 8.6-1.9 8.6-2.8 0-.8 5.1-3.2 5.7-2.7.4.5-7.7 5.5-11.8 7.3-1.5.7-2.9 1.7-3.3 2.2-.7 1.2 25.2 14.2 28.3 14.2 1.6 0 2.2-1 3.1-5.5.6-3 1.5-5.7 1.9-5.9.4-.3.3 1.7-.3 4.4-.5 2.7-.7 5.2-.4 5.5.5.5 6.6-2.4 9.3-4.5.6-.4 3.5-2.1 6.5-3.8 10.9-6 18.3-10.8 18-11.7-.4-1-24.1-11.5-26-11.5-.6 0-1 1-1 2.2-.1 1.3-.8 3.4-1.6 4.8-1 1.7-1.3 1.8-.8.5.3-1.1.9-3.1 1.2-4.4.5-2.6.8-2.5-6.8-.6-1.4.3-.5-.5 2-1.7l4.5-2.4-.3-7.4c-.3-6.3-2.3-25.2-3.7-34-.2-1.4-.6-4.7-1-7.5-.3-2.7-.7-5.1-.8-5.2-.2-.1-4.3 8.6-9.2 19.4M609.9 241.3c-4.6 7.6-8.7 16.2-8.2 17.4.2.7 3 2.4 6.1 3.8s7.4 3.4 9.4 4.5 4 2 4.4 2c1.3 0-2-14.8-3.7-16.5-.5-.5-.9-2.3-.9-3.9 0-3.2-2.8-11.6-3.9-11.6-.3 0-1.8 1.9-3.2 4.3M665.5 239c-.3.5-1.3 7.1-2.1 14.7-.9 7.6-2.4 18.5-3.3 24.2-2.2 12.9-3.8 10.9 17.9 22.3 3 1.5 5.9 3.3 6.4 3.8.6.6 1.6 1 2.3 1 2.2 0-.4-14.1-4.1-22.2-.8-1.8-2.5-6.5-3.6-10.3-1.2-3.9-4-12.6-6.2-19.5s-4.2-13.1-4.4-13.8c-.4-1.4-2-1.6-2.9-.2M619.5 243.8c.3 1.8 1.4 4.7 2.3 6.5.9 1.7 1.7 3.8 1.8 4.5.2.8.6 2.1 1 3 .7 1.8 1.4 6.5 1.7 11.7.2 2.5 1 3.4 5.2 5.6 2.8 1.4 8 4.2 11.8 6.3 3.7 2 6.7 3.4 6.7 3 0-.3-1.8-2.9-4-5.6-2.2-2.8-4-5.5-4-6 0-2.2-8.6-11.7-12-13.2-3.2-1.4-3.6-1.9-3.2-4.6.4-3.1-3.1-10.3-6.4-13.1-1.5-1.2-1.6-1.1-.9 1.9M805.1 270.9c-2.3 1.5-4.2 17.1-2.3 19.6.8 1.2 11.6 5 17.9 6.4l4.2.9-2.6-4.2c-1.4-2.2-4.3-6.7-6.5-9.9-2.1-3.2-3.8-6.3-3.8-6.8 0-1.9-5.6-6.8-6.9-6M627.3 280.7c-.1 2.1.3 7.1.9 11.1 1.1 7.2 1.2 7.4 3.8 6.9 1.4-.3 6.8-2.5 11.9-5l9.4-4.4-12.6-6.1c-6.9-3.4-12.8-6.2-12.9-6.2-.2 0-.5 1.7-.5 3.7"/><path d="M749 284.7c-.8.3-1.7.9-2 1.3s-1.8 1.1-3.5 1.7c-3 1-3.7 2.9-1 2.7.8-.1 1.2.2 1 .7-.3.4 1.4 1.3 3.7 2 2.4.6 6.7 2.2 9.6 3.5s5.7 2.4 6.1 2.4c1.3 0 0-4.4-1.6-5.3-.7-.4-1.3-1.5-1.3-2.2 0-.8-.4-1.5-1-1.5-.5 0-1 .4-1 1 0 .5-.4 1-.9 1s-.7-1-.4-2.3c.4-1.8.3-1.9-.6-.7-.9 1.3-1.1 1.2-1.1-.3 0-1.9-2.3-4.8-3.7-4.6-.4 0-1.5.3-2.3.6M648 294.2c-3.6 1.6-9.2 4.2-12.4 5.7l-5.9 2.7 5.4 3.2c3 1.8 8.9 5.5 13.2 8.2 4.3 2.8 8.1 5 8.3 5 .3 0 2.2 1.1 4.2 2.5 3.1 2.1 3.3 2.5 1.5 2.5-2.7 0-9.5-3.7-18.4-10.1-6.9-4.9-12.1-7.9-13.8-7.9-1.2 0-.2 3.8 1.7 6.8 1.5 2.3 5 4.3 8.2 4.8.8.1 5 2 9.4 4.3 4.3 2.3 8.9 4.1 10.2 4.1 3.4 0 5.4-1 5.5-2.9 0-1 .2-1.1.6-.4.8 2.1 3.9 1.5 9.3-1.7 2.8-1.7 5.4-3 5.8-3 1 .1-4.1 4-5.2 4-.5 0-2.4 1.1-4.3 2.6l-3.3 2.5 2.4 4.3c1.3 2.3 2.7 5.8 3.1 7.7s1.3 4.2 2 5.1c1 1.5 2 0 7.2-11 8.1-16.9 8.7-20.8 2.6-17.1l-3.8 2.2 3.8-3.2c2-1.8 3.7-3.9 3.7-4.6 0-.8-3.7-3.5-8.2-6-4.6-2.5-11.2-6.4-14.7-8.6s-6.6-3.8-6.9-3.5.2 2.3 1.2 4.3c2.2 5 5.8 22.5 4.7 23.6-.4.4-2-4.9-3.5-11.9-3.3-14.9-4-17.1-5.8-17.1-.7 0-4.2 1.3-7.8 2.9M756.5 308.7c-3.3 2-8.2 4.7-11 6.2-2.7 1.4-7.2 4-9.8 5.8-2.7 1.8-5.8 3.3-6.9 3.3-1.2 0-1.6.4-1.2 1.1.5.8 2.9.9 7.8.4 3.9-.4 7.8-.7 8.6-.8.8 0 2-.5 2.6-1.1 3.4-3.2 5.5-4.5 8.3-5.1 1.8-.4 3.8-1.6 4.5-2.8 1.6-2.5 4-9.7 3.4-10.2-.1-.2-3 1.3-6.3 3.2M691.6 313.5c-.3.8 0 1.5.7 1.5 1.2 0 2.2 2 6.7 12.5 1.2 2.7 2.8 6.3 3.6 7.9s1.4 3.7 1.4 4.6.6 2.4 1.3 3.4c1.3 1.7 1.5 1.7 3.6-1 1.2-1.6 5-5.7 8.3-9.2 3.3-3.4 5.9-6.4 5.7-6.6-.9-.8-29.3-14.6-30-14.6-.4 0-.9.7-1.3 1.5M692.4 334.7l.1 12.8 3.3.6c1.8.3 4.3.4 5.6.2 2.1-.4 2.2-.8 1.5-5.5-.5-2.7-1.3-5.6-1.9-6.3s-1.8-3.6-2.8-6.5c-1-3-2.7-5.9-3.8-6.7-2-1.3-2.1-1.1-2 11.4M687.9 325.6c-.7.9-1.4 2.5-1.6 3.7-.2 1.1-.7 2.5-1.2 3.1-1.7 2.2-6.2 14.7-5.6 15.6.3.6 2.4 1 4.5 1 2.9 0 4.2-.5 5-2 1-1.9 1.6-21.7.7-22.7-.2-.2-1 .4-1.8 1.3M721.5 330.4c-1.6 1.9-5.6 6.3-8.7 9.9-7.3 8.1-7.5 9.7-1 9.7 5.4 0 11.3-2.5 18.6-7.7 5.2-3.7 5.8-4.3 8.8-9.7 2.2-3.8 1.6-4.1-7.7-4.9-7-.7-7-.6-10 2.7M709.5 357.9c.8 1.7 1.2 3.7.9 4.5-.3.9-.3 2.4.1 3.3.4 1 .7 3 .6 4.5s.1 3.3.5 4c1.1 1.8 1.3 3 2.1 13 .5 8.1 1.5 11.9 2.7 10.8.3-.3.6-8.7.7-18.8l.2-18.2-2.6-2.4c-1.5-1.4-2.7-2.2-2.7-1.9 0 .4-.5.2-1.2-.5-2.2-2.2-2.9-1.3-1.3 1.7M705.5 369.5c-.5 2.7-.8 7.2-.8 9.9 0 2.8-.3 4.3-.7 3.5-1.1-1.7-1.6 2-3 19.1-.5 7.4-1.5 19-2 25.7-.6 6.7-1 13.8-1 15.9v3.7l1.9-2.4c1-1.4 3.1-4.5 4.5-7.1s3.6-5.8 4.9-7.1c4.7-5.2 7.7-12.3 7.7-18.6 0-3.3-.4-6.3-1-6.6-.5-.3-1-1.7-1-3.1 0-1.3-.4-2.4-.8-2.4-1 0-3.9-13-4.7-21.3-.4-3.2-1.2-7.7-1.9-10l-1.3-4.2zM569 386.8c0 .5 1.6 2.7 3.6 4.8 2 2.2 6.3 7.7 9.6 12.3 5.4 7.5 6.1 8.2 7.1 6.5.6-1 1.3-2.1 1.6-2.4 2-1.6 6.4-15.1 5.3-16.2-.4-.4-3.5-1.3-6.7-1.8-3.3-.6-7.1-1.5-8.5-2-3.7-1.4-12-2.2-12-1.2M834.7 390.7c-.4.3-.7 1.6-.7 2.9 0 1.2-.9 5.2-2.1 8.9-1.1 3.7-1.8 6.9-1.5 7.2.6.7 6.8-1.4 14.6-4.9 6.2-2.8 6.4-3 4.5-4.4-2.4-1.7-4.9-3.8-9.3-7.6-3.4-2.9-4.4-3.3-5.5-2.1M656 392.7c0 .7-.9 1.3-2.1 1.3s-3.8 1.3-5.9 3c-2.1 1.6-4.1 3-4.5 3-.3 0-1.8 1.3-3.2 3-1.3 1.6-3.1 3-3.9 3s-1.4.8-1.4 1.7c0 1.4.2 1.5.9.5.6-1 1-1 2.1.3.7.8 2.4 1.5 3.7 1.5 1.4 0 6.3.8 11 1.7 10.8 2.3 10.3 2.8 10.7-13.2.1-3.7-.1-4-2.7-4-1.6-.1-3.2-.7-3.8-1.5q-.9-1.5-.9-.3M828.5 397c-1 1.1-2.2 2-2.7 2-1.9 0-9.4 6.1-12.7 10.3-1.2 1.5-1.2 1.7.2 1.1.9-.3 2.2-.2 2.9.2.9.6 0 1.2-2.7 2l-4 1.2 3.3.1c3.4.1 14.1-2.5 15.4-3.8.3-.3.9-3.5 1.3-7.1s.9-6.8 1.2-7.3c.8-1.4-.4-.7-2.2 1.3M748.5 414.7c-10.7.4-27.5 2.5-27.5 3.4 0 .5 1.7 2.6 3.8 4.7 2 2.1 5.5 6.4 7.7 9.6s7 9 10.8 12.9c3.8 4 9.2 10.1 12.1 13.7 6.4 7.9 8.2 9.5 9.1 8 .3-.5.2-1-.3-1-.6 0-1-1.5-1-3.4s-.3-4.7-.6-6.3c-.3-1.5-.8-5.5-1.1-8.8-.2-3.3-.9-8.7-1.5-12s-1.3-9.3-1.8-13.4c-.4-4.1-1.1-7.5-1.7-7.6-.5 0-4.1 0-8 .2"/><path d="M665.6 415.9c-.3.5-.7 6.3-.7 12.8l-.1 11.9-2.5.2c-2.4.2-2.4 0-1.8-4.1.4-2.3.4-3.9.1-3.6-.4.4-1.1 3.5-1.7 7s-1.7 7.1-2.4 7.9c-.8.9-1.2 2.5-.8 3.8.4 1.8.1 2.2-1.6 2.2-2.4 0-2.6-1.1-1-4.3 1.2-2.1 4.9-17.8 4.9-20.6 0-1.8-4.9 3.7-12.7 14.2-3.2 4.3-8.6 11.3-12 15.5-3.5 4.2-6.3 8.1-6.3 8.8 0 .6.9 1.9 2 2.9s4.1 5.3 6.6 9.6c2.5 4.4 5 8.1 5.5 8.4 1 .7 4.4-6.5 7.6-16 1.7-5.1 2.1-5.9 1.7-3-.5 3.6-3.7 12.4-6.5 18.1-.9 1.8-.7 7.7.5 13.6.3 1.3.8 5.4 1.1 9.3.6 7.7 2.6 17.5 3.6 17.5.3 0 1.4-3.9 2.3-8.7s2.6-10.7 3.6-13.2c2.6-6 5-15.7 5-19.8 0-1.7.5-3.5 1-3.8.6-.3 1-.3 1 .1 0 3.2-2.7 15.5-5.1 22.9-1.5 4.9-3.2 11.5-3.8 14.5-.5 3-1.3 6.3-1.7 7.4-.6 1.7-.5 1.7 1.7.6 1.3-.7 2.6-1.6 2.9-2s2.6-1.9 5.1-3.4c2.6-1.5 5-3.7 5.4-4.9 1-3.3.5-9.6-1.1-14.5-.8-2.3-1.4-5.7-1.3-7.5 0-3.1 0-3.1 2.1 1.5 1.2 2.7 2.8 4.8 3.5 4.8s1.3.8 1.3 1.7c.1 3.7 1.8-1.2 2.9-8.1 1.1-7.5 2.7-10.6 2.8-5.4 0 1.8.1 5.3.3 7.8.2 3.4.4 3.8.7 1.7.3-1.9.9-2.7 1.8-2.3 1.7.6 5.5-5.2 5.5-8.4 0-2.2.1-2.3 2-.5 1.1 1 2.2 2.6 2.5 3.6.4 1.1 1.8 2.2 3.1 2.5 3.2.8 5-1.5 5.9-7.4.7-4.6 1.1-4.9 3.4-2.8.9.8 3.3 1.7 5.4 2 3 .5 3.9.2 4.4-1.2 1.1-2.8 3-4.2 4.9-3.5 1.2.4 1.5.2 1.2-.8-.3-.8-1.6-1.6-3-1.9l-2.5-.5 3.3-2.2c3.7-2.4 4-2.1 4.3 4.1 0 1.6.8 4.3 1.6 5.9.9 1.7 1.8 4.9 2.1 7.1.4 2.3 1.7 8.8 3 14.4 1.3 5.7 2.4 11.6 2.4 13.1 0 3.4 2.6 7.4 3.3 5.1.3-.8 1-3.4 1.7-5.8.7-2.3 1-4.5.7-4.9-.4-.3-.2-1.2.4-1.9 1.6-1.9 4.9-17.8 3.8-18.2-.5-.2-.9-1.5-.9-2.8s-.4-2.4-1-2.4c-.5 0-1 .4-1 1 0 .5-1.1 1-2.5 1-2 0-2.5-.5-2.4-2.3.1-1.6.2-1.8.6-.5.2 1 .8 1.8 1.3 1.8 1.2 0 4-2.9 4-4.2 0-.5.7-.8 1.5-.4.9.3 1.5 0 1.5-1 0-.8-.4-1.2-1-.9-.5.3-.9-.8-.9-2.7.2-4.1-1.8-9.9-7.8-23.7l-1.5-3.5-2 3.2c-1.1 1.8-2.5 3.2-3 3.2-.6 0-.3-1.1.6-2.5 1.3-2 1.4-2.6.4-2.9-2.5-.8-23.9-2.8-24.4-2.3-.3.3.4 1.6 1.5 2.9 1.1 1.2 2.9 3.4 4 4.7 3.9 4.5 1.3 3.3-3.3-1.5l-4.6-4.8-4.2 4c-2.3 2.1-4.8 4.6-5.6 5.4-1.1 1.3-1.1 1.1-.1-1 .6-1.4 2-3.3 3-4.3 1.1-1 1.9-2.2 1.9-2.6 0-.5-4.7-.8-10.5-.8s-10.5.2-10.5.4c0 .1 1.7 1.9 3.8 3.9 2 2.1 2.8 3 1.6 2.1-1.1-1-2.6-1.7-3.2-1.7-.7 0-1.2-.4-1.2-.9s-1-1.1-2.2-1.5c-1.7-.4-2.8.1-4.1 1.7l-1.8 2.2.7-2.8c.4-1.7.1-3.3-.7-4.4-.9-1.1-1-1.7-.3-2 .8-.3.7-1.7-.1-5.1-.7-2.6-1.1-4.9-.9-5.1.8-.8 2.3 1.4 2.7 3.6.4 2.6 1.3 3.9 1.5 2 0-.6.6-6.1 1.3-12.1 1.3-10.4 1.3-10.9-.6-12.2-1.6-1.2-1.7-1.7-.7-2.3.8-.5 1.2-1.9 1-3.1-.3-2.5-2.2-3.7-3.2-2.1M763.6 416.4c.3.9 2.9 3.4 5.8 5.7 2.8 2.2 7.4 6.2 10.2 8.7 8.7 8.1 7.4 8.2 13.8-1.4 3.2-4.7 5.5-9.1 5.3-9.8-.3-.7-5.1-1.7-12.3-2.4-25.5-2.7-23.5-2.6-22.8-.8M760.6 419.5c-.3 1.3-.1 4.4.5 6.7.6 2.4 1.2 8.8 1.4 14.3.4 8.6 1.8 19.8 3.1 24.4.3.8 2.6-1.5 5.6-5.5 2.9-3.8 6.6-8.3 8.4-9.9 1.7-1.7 4-4.5 5-6.4l1.9-3.3-4.6-4.2c-2.6-2.2-8.3-7.4-12.7-11.4-7.7-7-8-7.1-8.6-4.7"/><path d="M716.1 424.8c-1.3 2-3.5 5.3-4.8 7.3-1.3 1.9-2.3 4-2.3 4.6s-.4 1.3-.8 1.5c-1.2.5-7.2 10.6-7.2 12.2 0 1.3 10.2 2.6 20.3 2.6h3.9l-.3-4.8c-.2-2.6-1.1-7.6-2.1-11.2-.9-3.6-1.8-7.5-1.8-8.8 0-1.2-.4-2.2-.9-2.2s-1.1-1.1-1.3-2.5c-.3-2.4-.4-2.4-2.7 1.3M723.5 428.5c.4 2.2 1 5.3 1.5 7 .5 1.6 1.2 4.9 1.5 7.2.4 2.4 1.2 4.3 1.8 4.3.7 0 .5.5-.3 1s-1 1-.4 1 2.1 2.8 3.3 6.2c1.3 3.5 2.9 7.6 3.6 9.3.7 1.6 2.2 5.2 3.3 8 1.1 2.7 3.2 7.6 4.6 10.8l2.6 5.9 8.5-8.8c8.5-8.8 9.6-10.6 7.2-12.1-.7-.4-2.7-2.8-4.5-5.3-1.7-2.5-7.6-9.4-13.1-15.5-5.6-6-10.1-11.2-10.1-11.6 0-1.1-6.2-8.4-7.1-8.4-.5 0-1.4-.7-2-1.5-.7-1.1-.8-.3-.4 2.5M752.8 484l-7.7 8 2.7 5.8c3.6 7.5 4.1 8.2 5.7 8.2 1.3 0 4.6-9.4 7.5-21.5.7-2.8 1.4-5.8 1.7-6.8q1.35-5.4-9.9 6.3M744 495c-.1.3-.3 1.2-.6 2-.2.8-2.2 7.6-4.4 15s-4 14.1-4 14.8c0 1.9 1.8.6 10-7 8.3-7.7 8.5-9 3.2-16.9-1.7-2.4-3.2-5.3-3.5-6.4-.2-1.1-.6-1.8-.7-1.5M722.3 507.7c.1 2.3 0 4.1-.3 4.1-2.5-.2-4 .5-4 1.8 0 1-.6 1.4-1.4 1.1-.7-.3-1.9 0-2.5.6-1 .9-1.6.7-2.7-.7-.8-1.1-1.4-1.4-1.4-.8 0 .7-.9 1.2-1.9 1.2-2.2 0-3.7 1.7-2.6 2.8.4.4 1 .2 1.2-.5.3-.9 1.1-.6 2.6.7 1.1 1.1 2.9 2 3.9 2s1.8.5 1.8 1.1-.9.8-2.2.3c-1.3-.3-2.1-.4-1.8-.2.8.8 17.9 9.8 18.5 9.8.3 0-.1-1.3-.9-2.8s-1.9-5-2.5-7.7c-.5-2.8-1.7-7.7-2.5-11-1.4-5.5-1.5-5.6-1.3-1.8M627 536.4c0 .2 2.2 2.5 4.8 5.2s5.7 6.1 6.8 7.5c3.8 5 5.1 5 12 .5 3.5-2.2 6.3-4.4 6.4-4.8 0-.8-5.9-2.7-19.8-6.4-9.6-2.5-10.2-2.6-10.2-2M432.5 110.5c-4.4.7-14.1 2.1-21.5 3s-20.5 2.6-29 3.9l-15.5 2.3 4.4 2.2c2.4 1.3 11.8 5.2 20.9 8.7 18.7 7.2 16.2 7.3 26.5-.8 2.9-2.2 10-7.6 16-12 5.9-4.4 10.7-8.2 10.7-8.4 0-.6-4-.3-12.5 1.1M326 110.8c0 .4-.2 10.6-.4 22.6l-.5 22 18-18c9.8-9.8 17.6-18 17.2-18.1-2.1-.7-33.5-9.3-33.9-9.3-.2 0-.4.3-.4.8M321.4 113.3c-.6.7-5.8 5.5-11.4 10.7-24.8 22.9-23.7 21.8-21.5 22.5 1.1.4 3.4 1.3 5 2 4.6 2 25.3 8.5 26.9 8.5.8 0 1.7-.9 2.1-2 .8-2.4 2.2-25.2 1.9-30-.1-1.9-.3-5.6-.3-8.3-.1-4.8-.7-5.6-2.7-3.4M357 126.5c-3 3-4.8 5.5-4 5.5 1.7 0 .7 1.1-1.4 1.4-2.3.3-7.6 5.7-6.9 6.9.3.6.2.7-.4.4-.5-.3-3.9 2.4-7.6 6.1-6 6-6.4 6.7-4.2 6.8 1.5.1 2.2-.3 1.9-1.1-.6-1.5 3.3-4.5 5.9-4.5 1 0 1.6-.4 1.2-1-.3-.5-1.3-.6-2.2-.3-1.2.5-1 0 .5-1.5 2.5-2.5 3.4-2.8 2.6-.8-.3.7.2 1.6 1 1.9.9.4 1.7-.1 2.1-1.4.4-1 1.1-1.9 1.7-1.9.5 0 .8.7.4 1.5-.3.8-.1 1.5.5 1.5.5 0 1.4-1.2 2-2.7 1.2-3.2 2.9-4.5 4.4-3.4.5.5 4.4.9 8.5.9 6.1-.1 7.8-.4 9.2-2 1.2-1.4 2.3-1.7 4.4-1.2 2.3.6 2.6.4 2.1-1-.4-.9-.2-1.6.3-1.6.6 0 1-.7 1-1.5s-.5-1.5-1.1-1.5c-.5 0-.7-.5-.3-1.1s1.9-.9 3.8-.5c3.4.6 1.9-.6-2.3-1.9-1.6-.5-2.1-.4-1.7.4.5.7-.2 1.1-1.8 1.1-1.4 0-2.6.5-2.6 1.1 0 .7-1 .9-2.5.5-1.4-.4-3.6-.4-5 0-2.1.5-2.3.9-1.4 2.5.7 1.5.6 1.9-.6 1.9-.9 0-1.5-.9-1.5-2.2 0-1.7-.3-1.9-1.2-1-1.9 1.9-4.6 1.4-5.9-1-1-1.8-.7-2.5 2.4-5.5 2-1.8 4-3.3 4.6-3.3s1.1-.5 1.1-1c0-2-1.7-.9-7 4.5M279.5 156.2C273 167 269.1 173 267 175.5c-1.7 1.9-7 11.1-7 12 0 .2 1.2-.2 2.8-1 8.9-4.6 23.5-11.5 35.7-17 7.7-3.4 15.7-7.1 17.8-8.1l3.8-1.8-4.8-1.7c-2.6-1-9.9-3.6-16.2-5.8-6.3-2.3-12.2-4.1-13-4.1-.9 0-3.7 3.5-6.6 8.2M311.5 166.3c-7.2 2.9-22.9 10.1-23.5 10.7-.3.3-1.2.6-2 .8s-4.4 1.7-8 3.4-8.3 3.9-10.5 4.8c-2.2 1-4.9 2.5-6 3.3-1.6 1.3-1.7 1.7-.6 3.1 2.1 2.5 16.3 11.7 17.5 11.4.6-.2 6.5-5.9 13-12.8 6.6-6.9 15.1-15.8 18.9-19.8 3.8-3.9 6.8-7.2 6.6-7.1s-2.6 1-5.4 2.2M312 177c0 .5-1 1-2.1 1-1.4 0-5.8 3.8-12.6 10.7-5.8 6-12 12.3-13.9 14.2l-3.3 3.3 3.5 2.4c1.9 1.3 3.8 2.4 4.2 2.4s1.8.9 3.2 2c2.9 2.3 5.2 2.6 4.4.6-.7-1.9 3.5-3.3 4.6-1.6.4.7 1.3.9 1.9.6 1.3-.9 1.4.4.2 2.4-.6.8-.7 1.8-.4 2.4.4.5 1.7-2.1 3-6 2.9-8.2 9-27.3 9.5-29.4.1-.8.7-1.8 1.2-2.2.6-.4.4-1.3-.3-2.2-1.5-1.8-3.1-2.1-3.1-.6M258.5 210.2c.4 9.5 1.1 17.9 1.5 18.7.5 1 3.1-2.1 8.6-10.3l7.8-11.8-3.4-2.9c-1.9-1.5-6.1-4.7-9.3-6.9l-5.9-4.2zM275.7 211.2c-1.4 1.8-4.5 6.5-7 10.4s-5.3 7.6-6.1 8.3c-4.1 3.4-.7 3 16.4-1.8 4.1-1.1 10.3-2.8 13.8-3.7 3.4-.9 6.2-1.9 6.2-2.3 0-.5-8-6-18.2-12.5-2.6-1.7-2.6-1.7-5.1 1.6M335.8 220c-22.6 2.7-31.2 4.1-32 5.3-.4.6-.7 15.7-.7 33.5s-.3 32.7-.5 33.1c-.3.4-.1 1.3.4 2 1.1 1.8 5.6-5.3 18.2-28.9 2.2-4.1 5.6-10 7.4-13.1 1.9-3.1 3.4-5.9 3.4-6.2s2.9-6 6.5-12.6c6.7-12.2 7.4-14.2 5.3-14-.7.1-4.3.5-8 .9M343.6 227.3c-1 1.8-3.9 7-6.4 11.7-2.4 4.7-5.8 11-7.5 14-1.6 3-6.7 12.2-11.2 20.5-4.5 8.2-9.7 17.6-11.5 20.8s-2.8 6.2-2.4 6.7c.5.4 6.1 3.6 12.4 7 6.3 3.5 15.9 8.7 21.3 11.6 5.4 3 10 5.4 10.3 5.4 1.1 0-1.3-95.9-2.5-99.2-.5-1.4-1-1.1-2.5 1.5M284 228.7c-21 5.3-21.3 5.3-22.3 6-.5.3-.1 1.3 1 2.2 10.8 8.6 19.6 15.2 19.8 14.9 3.1-3.2 15.8-24.5 15.3-25.7-.2-.5-6.4.7-13.8 2.6M299.1 230.2c-.5 1.3-4.1 7-8 12.8-4 5.8-7 11.2-6.7 12 3.2 10.4 13.5 33.2 15.4 34.4.6.3 1-12.6 1.1-30.4.1-17.1-.1-31-.4-31s-.9 1-1.4 2.2M258 237.2c0 .7-5.1 14.1-8.3 22-2 4.9-3.2 8.8-2.7 8.8s1.1-.4 1.5-.9c.3-.5 2.9-1.7 5.8-2.6 2.8-1 6.1-2.3 7.2-3 1.1-.6 5.6-2.5 10-4s8.2-3 8.4-3.2c.6-.4-2.3-3-8.9-8-3-2.3-6.8-5.3-8.4-6.7-2.5-2.2-4.6-3.3-4.6-2.4M270 259.3c-5.8 2.4-13.4 5.6-17 7.3l-6.4 3 8.4 4.8c4.6 2.7 15.7 8.7 24.7 13.3 12.7 6.6 16.4 8.1 16.9 7 .3-.8-.8-4.8-2.4-8.9-1.7-4-5-12.6-7.3-19.1-2.4-6.4-4.8-11.7-5.4-11.7-.5.1-5.7 2-11.5 4.3M244.2 276.2c-.1 1.6-1.4 6.4-4.1 14.6-1.4 4.6-1.6 6.4-.8 6.8 2.6 1 15.2 3.3 15.6 2.9.2-.3 0-.5-.6-.5s-.8-1.1-.6-2.4c.3-1.3-.5-4.3-1.6-6.6-1.2-2.4-2.1-5-2.1-5.7s-.4-1.3-1-1.3c-.5 0-.9-.3-.8-.8.1-.4-.4-2.4-1.1-4.5-1.2-3.7-2.7-4.9-2.9-2.5M233 301.8c-1.4.9-2.7 1.9-3 2.2s-2.2 1.6-4.2 2.9c-2.1 1.2-3.8 2.3-3.8 2.4s2 4 4.4 8.6l4.4 8.5 1.4-4.5 1.3-4.4.5 3.7.5 3.7 5-1.8c2.8-1 5.6-1.6 6.3-1.4.6.3 1.2 0 1.2-.6 0-1.7-8.1-17.5-9.3-18.3-.6-.4-.8-1.1-.3-1.5s1.1-.3 1.3.4c.2.6 2.8 4.8 5.6 9.2 2.9 4.4 5.7 8.7 6.2 9.6 1.3 2.2 3.9 1.1 5.3-2.3l1.1-2.7-.2 3.1c-.3 3.4.1 3.7 10.6 7.3l5.9 2.1-2.3-3.8c-1.2-2-3.9-6.7-6-10.3-2.2-3.6-4.7-7.3-5.6-8.2-2-1.7-16.7-5.7-21-5.6-1.5 0-3.9.8-5.3 1.7M274.5 303.2c-6 .5-11.6 1.1-12.3 1.3-1.6.6 1.3 5.7 12.4 21.8l8.2 11.8 6.3-13c3.5-7.2 6.5-12.8 6.7-12.6s-1.4 4.1-3.5 8.7c-6.3 13.2-7.9 17.8-6.4 18.8 2 1.2 22 4.4 22.8 3.6.4-.3-.1-4.6-1-9.5-2-10.5-2.1-13.7-.2-6.1 2.2 8.2 3.8 13.4 4.4 14.2.8.9 18-6.1 21.5-8.7 1.4-1.1 2.5-2.6 2.3-3.5-.1-.9.4-1.4 1.5-1.2 1.5.2 1.6-.1.8-2.3-.9-2.4-.8-2.6 1.2-2 2.1.5 2 .3-.5-1.7-4.3-3.5-35.1-19.8-35.9-19-.4.4 0 3.2.8 6.2s1.3 6.2 1.1 7-.9-1-1.6-4c-2-8.2-2.6-8.9-4.5-5.2-.9 1.8-1.9 3.2-2.2 3.2-.2 0 0-.8.5-1.8.6-1.1 1.2-3 1.5-4.3.4-2.5.2-2.5-6.3-2.6-3.6 0-11.5.4-17.6.9M340.5 334c-.3.5 0 1 .7 1s.4.6-.7 1.2c-3.5 2-4.7 3.6-3.2 4.2.9.5.9.7 0 1.2-1.4.6-1.8 4.6-.6 5.7 1.1 1.1 1.3 5.9.3 7.6-.8 1.4-.9 1.4-1-.2 0-.9-.7-1.7-1.5-1.7s-1.8-.1-2.2-.3c-.5-.1-.8.5-.8 1.3s-.4 1.5-1 1.5c-.5 0-.9-.4-.7-.8.1-.5-.2-.6-.8-.2-1.6 1 .9 3.7 2.7 3.1.8-.4 1.1-.1.8.5-.9 1.3 2.6 4 4.3 3.4.7-.3 1 0 .7.5-.3.6-.1 1 .4 1h1.9c1.8 0 .5-2.5-1.7-3l-2.3-.5 3.3-3.4c2.2-2.2 3-3.5 2.2-3.8-1.9-.7-1.6-3.1.6-4.5 1.5-.9 1.8-1.9 1.3-4.7-.5-3.3-.4-3.5 1.2-2.2.9.8 1.9 1.1 2.2.8.9-.9-1.7-7.8-2.7-7.2-.5.4-.9.1-.9-.4 0-1.4-1.7-1.4-2.5-.1M286 346.7c1 2.1 2.7 5.8 3.7 8.1 1.7 4.2 1.9 4.4 5.2 3.8 2.5-.4 5-2.1 8.9-6.1 3-3.1 5.2-5.9 4.8-6.2-.7-.8-16.9-3.2-21.3-3.3h-3.2zM310.5 350.7c-.4 1.6-.9 3.9-1.1 5.3-.4 2.2-3.9 14.2-6.4 22-2.6 8.2-4.2 14.2-3.7 14.6.3.3 6.8-3.2 14.6-7.8 7.7-4.6 16.8-9.8 20.1-11.7s6-3.8 6-4.3c0-.4-2.8-2.8-6.2-5.3-3.5-2.4-9.8-6.9-14.1-9.9-4.3-3.1-8-5.6-8.2-5.6-.1 0-.6 1.2-1 2.7M301.9 357.6c-1 1.2-.9 1.3.5.8 1.4-.6 1.6-.2 1 2.2-.8 3.4-2.2 4.6-4.6 3.8-1.3-.4-1.5 0-1.1 1.7.3 1.2 0 2.4-.7 2.9-.9.6-.9 1.2-.1 2.9 1 1.7.9 2.1-.4 2.1-.9 0-1.4-.4-1.1-.8.3-.5.1-2.2-.4-3.8-.4-1.6-.9-2.2-.9-1.2-.1 1.9-5.9 7-7.2 6.3-1.4-.9-6.1 2.7-5.5 4.2.3.8.1 1.1-.4.8-.6-.3-1-.2-1 .2 0 1.1 14.5 13.3 15.8 13.3.5 0 1.7-3.7 2.6-8.3 1-4.5 2.3-10.1 3.1-12.4.7-2.3 1-4.4.7-4.8-.4-.3-.1-.9.5-1.3 1.9-1.2 3.3-9 1.8-9.6-.8-.3-1.9.2-2.6 1M231.7 379.3c-1.8 1.2-7.7 20.9-7.7 25.4 0 2.6-.4 2.6 7.5.9l6-1.3-.2-5.4c-.3-9.4-1.8-20.2-2.8-20.6-.6-.2-1.9.3-2.8 1M238.1 384c-.1 1.9.2 6.6.6 10.4.5 6.1.8 6.7 2 5.1 1.1-1.6 1.3-1.7 1.3-.3 0 .9-.4 2-1 2.3-2.3 1.4-.7 3.1 4.1 4.2 5 1.2 7.4 1 6.5-.6-.3-.4-.6-4-.7-8l-.2-7.2-2.8 2.7c-3.6 3.4-3.7 2.6-.4-2.6 2.4-3.8 2.4-4 .5-4-1.2 0-2-.7-2-1.7 0-2.2-1.2-.8-2.7 3l-1.1 3.2-.1-4.9c-.1-4-.3-4.7-1.5-3.7-1.1.9-1.5.9-1.9-.1-.3-.7-.6.3-.6 2.2M267.5 383.1c-1.6.6-5.3 1.7-8.2 2.6l-5.2 1.7-.6 5c-.4 2.8-.5 6.7-.3 8.6l.3 3.5 9-10.3c11.3-13 11.3-13.1 5-11.1M277.6 382.8c-1.8 3-7.3 19.2-6.4 19.2.7 0 14.3-3.6 21.1-5.6 1.8-.6 1.8-.7 0-2.6-1-1.1-4-3.6-6.8-5.6-2.7-2-5.5-4.3-6.1-5.1-.8-1-1.3-1.1-1.8-.3M223.2 435.5c.3 3 .2 5.5-.1 5.5-.8 0-3.9 6.5-5 10.5-.5 1.6-1 2.3-1 1.4-.1-.9.6-3.5 1.4-5.8.8-2.2 1-4.1.5-4.1-1.7 0-19 8.3-19 9.1 0 .5 1 1.1 2.3 1.4 11.9 2.8 13.9 3.3 12.2 3.4-1.1 0-4.9-.6-8.5-1.3-3.6-.8-6.6-1.3-6.8-1.1-.4.3 2.8 4.2 7.1 8.7 2.1 2.2 2.7 3.7 2.3 5.6-.3 1.5-.7 5.8-1.1 9.7l-.5 7 2.2-4c3.8-7 8.8-20.9 8.2-22.7q-.45-1.8.9-1.8c1 0 1.8-1.9 2.5-5.8l1.1-5.7-.5 6.5c-.8 9.3-.4 49.4.4 50.2.4.4 1.6-2.3 2.6-6s3.1-10.9 4.7-15.9l2.8-9.2-1.9-11.3c-2.3-13.3-6-29.8-6.7-29.8-.3 0-.3 2.5-.1 5.5"/><path d="M178 439.6c0 .2 3.9 2.9 8.6 6 9.8 6.3 9.1 6.3 22 .3l8.9-4.2-3.5-.7c-4-.9-36-2.1-36-1.4M216.7 467.2c-1 2.9-4.2 10.2-7 16.2l-5.2 10.8 6 5.4c9.9 9 9.5 9.2 9.4-3.3-.1-5.9-.4-16.1-.8-22.6l-.6-11.8z"/></svg>