<svg xmlns="http://www.w3.org/2000/svg" width="1706.667" height="960" viewBox="0 0 1280 720"><path d="M0 360v360h439.1l1-2.3 1-2.2-.5 2.2-.4 2.3H638c157.3 0 197.9-.3 198.3-1.3q.6-1.35.6 0c.1 1 45.1 1.3 221.6 1.3H1280V0H0zM694 54c0 1.1 1.4 1.6 38 14.1 35 12 37.4 12.7 38.4 11 .4-.6 1.3-1.1 1.9-1.1.7 0 .3.7-.7 1.5-1.8 1.4-1.7 1.5 2 3.1 2.1.8 9.1 4.1 15.4 7.2 12.3 6.1 21.4 10.2 22.5 10.2.3 0 .4-1.5 0-3.3-.5-2.4-.4-2.8.4-1.7.6.8 1.1 2.2 1.1 3.1 0 1.9 4.6 5.3 6 4.4.5-.3.7 0 .5.7-.4.9 1.9 2.8 6.2 5.3 3.8 2.1 12.2 7 18.8 10.9 6.6 3.8 12.8 6.9 13.8 6.9.9-.1 1.7.4 1.7 1.2 0 .7.5 1.5 1.1 1.7.8.3.7.9-.3 1.9-.9.8-1.8 3.3-2 5.5-.7 5.3-5.4 31.2-7.3 40.2-.8 4-1.5 8.5-1.5 10s-.5 3.4-1 4.2c-.6 1-.8.2-.4-2.5 1-6.3 4.1-25.1 5.9-35 .9-5 2-11.6 2.5-14.7.5-3.2 1.2-6.2 1.5-6.9.9-1.4-1.6-3.1-3-2-.5.5-4.8 1.8-9.5 3s-11.6 3-15.5 4.1c-3.8 1.1-8.2 2.3-9.7 2.6-6 1.4-6 1.2 6.4 27.4 2.7 5.8 6.3 13.7 7.9 17.6s3.8 8 4.8 9.1c1.1 1.1 2.5 3.9 3.2 6.2 2.2 7.5 2.5 7.5 20.3 4 8.7-1.6 16-2.8 16.2-2.6.4.3-19.8 4.7-29.8 6.4-1.9.4-2.8 1.1-2.8 2.4 0 1-.5 2.1-1 2.4-.6.3-.8 2.5-.5 4.8q.45 4.05-.3 1.8c-.6-1.9-1-1.2-2.1 4-1.5 6.8-3 10.8-3.1 7.9 0-.9.6-4 1.4-7 1.3-5.3 2.5-11.4 2.7-13.5 0-.6-1-1.3-2.3-1.7l-2.3-.6 2.3-.1c2.7-.1 2.8-2 .3-5.2-1-1.3-2.7-4.9-3.9-7.9-3.2-8.5-21.8-48-22.6-48-.2 0-.3 1.5-.1 3.2.2 1.8.4 14.2.5 27.5.2 13.3.6 25.9.9 28 .7 3.8.7 3.8 5.1 3.6 2.5-.2 6.3-.5 8.5-.8 2.6-.4 3.6-.3 3 .4-.5.5-4.6 1.3-9 1.8l-8 .8.2 3.9c.2 3.3.1 3.6-1.2 2.6-1.9-1.6-1.6-2-4.4 7-1.2 4.1-3.2 9.6-4.3 12.2-1.7 3.9-1.9 5.3-1 8.7.5 2.3.6 3.8.1 3.5s-.9-1.1-.9-1.8-2.5-3.3-5.6-5.7-6.1-4.9-6.8-5.4c-3.3-2.9-16.3-12.3-17.8-12.8-1.9-.7-2.3.4-4.3 14.9-1.1 8.2-1.1 9.9 0 11.1.9.8 1.6.9 2 .3.3-.5.1-1-.4-1-.6 0-1.1-.7-1.1-1.4 0-1.3.5-1.3 3.6 0 2 .8 4.2 1.3 5 1 .9-.3 1.1 0 .7 1.2-.5 1.4-.4 1.5.8.6 1.7-1.3 18-5.7 18.6-5 .6.5-5.6 3.3-9.4 4.2-3.5.9-4.6 2.9-3.8 7 .7 3.8-1.3 7.4-4.2 7.4-2.5 0-1.3 3.6 1.8 5.5 11.2 7 26.1 17.6 25.6 18.2-.5.5-9.8-5.3-15.7-9.8-4.4-3.3-21.2-13.1-21.7-12.5-.5.5 3.1 6.6 4 6.6.4 0 .7.5.7 1.2s2.1 4.3 4.8 8.1c2.6 3.9 6.3 9.3 8.2 12.1l3.5 5.1 9.5-.1c18.7-.3 20.8-.7 19.4-4-.5-1.1-.7-6-.4-10.9.4-7.5.6-8.3 1.2-5 .4 2.2.5 6.4.2 9.2-.6 5.4.5 7 2.2 3.3.7-1.5.9-.5.7 3.6-.1 6-1.6 9.1-2.7 5.6-.5-1.5-1.3-1.8-3.4-1.4-1.5.2-3.3.9-3.9 1.4-.7.6-2.5.7-4 .3-4-1-17.6-.6-18.7.5-.6.6-1.5.5-2.5-.4-1.7-1.4-15.9-5.4-22.3-6.3-3.7-.5-3.7-.5-2.9 2.5.5 1.6 1.4 3.9 2 5.1.7 1.1.9 2.1.7 2.1-.3 0 1 3.1 3 7 1.9 3.8 3.7 7 3.9 7s.2-.6-.1-1.4c-.4-1.1 0-1.3 1.5-.9 1.2.3 2.1 1 2.1 1.6s1.4-.4 3-2.3l3-3.5-1.5 3.9c-1.7 4.5-1.9 7.6-.4 7.6.5 0 1.7 1.6 2.5 3.5s2.1 3.5 3 3.5c.8 0 1.4.7 1.2 1.5-.4 1.9 12.5 10.1 13.1 8.2.2-.6.7-1.4 1.1-1.7.3-.3 2-3 3.8-6 1.7-3 3.2-5.1 3.2-4.5 0 .5-1.1 2.9-2.4 5.2-4.4 7.6-4.3 8.1.9 9.4 6.3 1.6 6.6 2.8.4 1.7-5.4-1-7.9 0-7.9 3.1 0 .9-.6 2.5-1.3 3.6-1.7 2.5-2.2 11.1-.8 12 .7.4 1.1-.8 1.2-3.2.2-5.2 2 8.2 2.2 15.9 0 3.2.2 5.8.3 5.8.5 0 7.4-10.1 7.4-10.9 0-.5.4-1.1.8-1.3s1.9-2.1 3.2-4.3c1.4-2.2 4.4-6.4 6.8-9.3 2.4-3 4.1-5.9 3.9-6.5-.2-.7-2.6-1.8-5.3-2.6-2.8-.8-4.2-1.6-3.2-1.8.9-.2 2.6.1 3.7.6 3.4 1.9 5.1 1.3 5.2-1.7 0-2.7.1-2.7 1.1-.5.6 1.3 1.8 2.3 2.7 2.3 1.3 0 1.3.2-.2 1.7-1.6 1.6-1.5 1.8.6 4.1l2.2 2.5-2.2-1.2c-2.7-1.4-3-.9-3.2 5.9-.1 3-1.1 13.5-2.2 23.4-1.1 9.8-1.7 18.1-1.4 18.4.2.3 5.9-5 12.6-11.7 10.4-10.5 12-12.6 11.5-14.7-.4-1.4-.2-2.4.4-2.4.5 0 1 .4 1 1 0 2.2 1.9.8 4.8-3.8 1.7-2.6 5.8-8.4 9.1-13 3.4-4.5 6.1-8.6 6.1-9.2 0-1.5 7.9-16.6 8-15.2 0 .8-.7 2.8-1.6 4.5-3.2 6-3.4 6.7-3.4 9.2 0 1.4-.4 2.5-.8 2.5-.8 0-6 6.9-15.8 20.7-2.4 3.5-4.4 6.9-4.4 7.8 0 .8-1.2 2.2-2.7 3.2-3.4 2-24.7 23.4-24.7 24.8-.1.5-1.4 1.1-3.1 1.2-1.6.1-8.6 2.2-15.5 4.7-6.9 2.4-15.9 5.2-20 6-4.1.9-9 2-10.7 2.5-1.8.5-3.3.7-3.3.5 0-.3-1.2.2-2.8 1.1-2.4 1.4-15 20.2-14 20.9.1.2 1.7 1.1 3.3 2 2.6 1.5 2.7 1.6.5 1-1.4-.4-3.7-.7-5.2-.7-1.6 0-2.4-.5-2.2-1.2.5-1.2-21.8-23.5-23.5-23.5s-1.7-.3 2.5 34.2c.9 7.6 2 13.8 2.4 13.8.6 0 8-10.4 9.2-12.8.2-.4 2.1-2.3 4.3-4.2 2.4-2.1 3.2-2.5 1.9-1-2.7 3.3-11.2 16.2-12 18.4-.6 1.4-.2 1.6 2.2 1.1 1.6-.4 4.1-1.1 5.6-1.7 1.5-.5 3.2-.8 3.9-.6s-2.2 1.4-6.4 2.7c-4.9 1.4-7.7 2.8-7.7 3.7 0 1.4 20.6 22.4 22 22.4.5 0 1.8-1.2 2.9-2.8l2-2.7-1.7 4.9c-1.5 4.3-2.1 4.9-4.8 5.1-2.8.2-19.8 8.3-23.4 11.1-.8.6-3.2 1.7-5.2 2.5-2.1.7-3.8 1.6-3.8 2s1.6 3.1 3.5 5.9c2 2.9 3.4 5.5 3.1 5.7-.2.3-1.9-1.8-3.7-4.6-1.9-2.8-4-5.1-4.8-5.1-.7 0-4.6 2.8-8.6 6.3-10.2 8.8-11.4 9.7-12.5 9.7-.6 0-1 .6-1 1.2 0 .7-1.2 1.9-2.7 2.6-2 .9-2.4.9-1.5 0 .7-.7 1.2-1.5 1.2-1.9 0-.3-6-3.4-13.4-6.8l-13.5-6.2-7.3 2.6c-4 1.4-8.2 3-9.3 3.6-1.6.8-3.5.2-9-2.6-3.8-1.9-7.8-3.5-8.7-3.5-2.9 0-13.1 5.3-15.5 8-3.2 3.6-2.8 4.6 2 5.5 2.3.4 3.5 1 2.6 1.2-.8.2-3.3-.2-5.4-.9-3.1-1-4.4-2.2-6-5.4-4.2-8.4-10.9-17.1-16.3-20.8-1.8-1.3-5.1-4.1-7.5-6.3-2.3-2.1-6.3-5.1-8.8-6.6-3.7-2.2-5.1-3.8-6.8-7.9-2.5-6-2.3-7.2.4-2.3 1 1.9 2.2 3.5 2.6 3.5s2.3-1.8 4.2-4 3.7-4 4.1-4c1 0-3.4 6.3-5.1 7.3-.7.4-1.3 1.6-1.3 2.5 0 1.5 2.9 4 17.6 15l4.4 3.4 2-2.4 2-2.3-.5 3.5c-.6 3.1 0 4.5 4.6 11.3 5 7.2 7.9 9.6 7.9 6.3 0-.8.5-1.8 1.1-2.2.8-.5 1 .1.7 2-.5 2.5.5 3.6 1.6 1.7.3-.5 3.7-2.7 7.6-5 8.1-4.8 8-4.8 5-16.7-1.2-4.3-1.9-9.2-1.6-10.8.7-3.2-.4-11-1.3-10.1-.3.4-1.1 3.2-1.7 6.3-1.5 7.5-6.2 25.1-7.4 28.1-2.3 5.2-2 .8.4-7.1 3.9-12.9 6.3-22.6 7.7-31.1 1-6.4 1.4-7.5 2.6-6.5 1 .8 1.1 1.4.3 2.2-1.3 1.3-1.3 6.3 0 7.1.6.3 1 3.4 1 6.8 0 5.2.5 6.9 2.9 10.6l2.9 4.4 1.1-3.9c.5-2.1 1.3-5.6 1.7-7.7.9-5.3 2.6-5.8 1.9-.5-.4 2.4-.8 5.3-1.1 6.5-.3 1.8 0 2.3 1.6 2.3 1.1 0 2-.4 2-.9s1.6-3.2 3.6-6.1c2.7-3.9 3.4-5.8 3-7.8-.6-2.5-.5-2.5.6-.7.6 1.1 2 2.8 3 3.9s2 2.8 2.4 3.8c.3 1 1 1.8 1.5 1.8.6 0 .7-.5.4-1-.4-.6.5-1 1.9-1 2.1 0 2.6-.5 2.6-2.6 0-1.4-.4-3.4-1-4.4-1.5-2.9-.2-4.9 3.8-5.7 4.7-.9 4.2-.8 7.5-2.1 1.6-.7 3.8-1.2 5.1-1.2 1.2 0 2.7-.5 3.3-1.1 1.2-1.2 4.4-.5 4.2.8-.1.4 0 1 .1 1.3s.4 1.7.6 3.3c.7 4 2.3 7.7 2.3 5.4.1-1 .9-1.7 2.1-1.7 1.1 0 2-.5 2-1 0-.6.9-1 2-1 2 0 1.9-.1-.5-2.5-1.4-1.5-2.5-3.7-2.5-5.2 0-2.6 0-2.6 1.8-.6 1.6 1.9 4.8 2.1 3.7.2-.4-.5.1-.6.9-.3.9.3 1.6 1.1 1.6 1.8 0 .6.5.4 1-.4 1.2-1.9.5-5.7-2.8-13.8-2.2-5.7-2.7-6.3-4.8-5.8-1.3.4-2.4.1-2.6-.7-.3-.8-5.5-1.8-14.9-2.8-7.9-.9-14.5-1.5-14.7-1.3-.2.1.4 1.7 1.3 3.6l1.7 3.3-3-2.9-3-2.8-1.8 2.1c-2.1 2.4-3.6 2.8-2.8.6.5-1.3-.8-1.5-8.2-1.5-4.9 0-9.9-.3-11.2-.6-1.7-.5-2.3-.3-2.2.7.1.8.1 2.5 0 3.9-.2 2.4-.3 2.3-.9-.5-.4-1.7-1.2-2.9-1.9-2.8-1.1.3-1.7-1-1.3-3.1.1-.5-.5-1.6-1.3-2.5s-1.4-1.8-1.4-2.1c.1-.3-.3-1.6-.7-3-.8-2.5-.8-2.5-2.1 1-1.8 5.1-1.7 6 1.2 6 1.6 0 2.4.5 2.1 1.2-.5 1.4-1.1 1.4-3.9.3-1.6-.6-1.8-.1-1.8 3.6 0 2.4-.5 5.1-1 5.9-2.4 3.7 0-13.7 4-28.4 1.1-4.3 1.9-8 1.7-8.2-.3-.4-7.7 9.2-7.7 10 0 1-6 9.4-7.7 10.7-1.3 1-1.1.4.7-2.6 1.3-2.2 3.1-4.9 4-6 4.2-4.9 13-19.4 13-21.3 0-1.4-.8-2.2-2.7-2.6-5.5-1.2-16.9-2.6-20.9-2.6-5.1 0-5.2.3-6.1 15.3-.3 6.2-1 10.3-1.4 9.5-.5-.7-.7-2.4-.4-3.8 1-7 1.5-18.7.7-19.8s-3.3-1.1-14.8.2c-7.7.9-15.5 1.7-17.4 1.8-4.7.4-4.4 2 2 11.9l5.3 8 3.6-3.3c1.9-1.8 6.6-6.2 10.4-9.8 12-11.4 9.7-7.6-3 4.9-11.9 11.8-14.1 13.6-13 10.7.7-1.6-7.6-15.1-12-19.6-1.6-1.7-6.1-4.4-9.9-6-6.5-2.7-6.9-3.1-7.1-6.2-.1-1.8-.6-6-1.2-9.3s-1.5-9.6-2.1-14-1.3-8.6-1.5-9.3c-.2-.6 0-1.2.5-1.2s1.2 1.2 1.5 2.7c1.5 7.6 1.4 7.5 10.5 9.4 4.7.9 9.8 2.2 11.3 2.8 4 1.5 5.7 1.4 5.1-.4-.4-.8-1.1-1.5-1.8-1.5-.6 0-2.4-1.4-4.1-3.1-1.6-1.6-5.1-5.1-7.7-7.6-4.8-4.6-9.3-11.7-8.3-13.3.3-.4-.2-2.3-.9-4.2-.8-1.9-1.4-4.9-1.4-6.6.1-4.4-2-8.2-4.1-7.4-1.4.5-1.4.3-.2-1.1.8-1 1.2-3.3.9-5.7-.2-2.2 0-4 .4-4 .5 0 .8-1 .9-2.3 0-1.2.4-3.1.9-4.2.8-1.9.6 3.8-.5 10.7-.3 1.6-.1 2.8.3 2.8 1.1 0 11.8-10.3 13-12.5.8-1.4.6-3.2-.8-7l-1.9-5 2.9 3.4 2.9 3.4 2.5-7.9 2.4-7.9-.5 6.1-.6 6.2 5.4-1.5c3-.8 6.6-1.7 8.2-2 1.5-.3 3-.9 3.3-1.4.6-1-1.9-5.2-6.3-10.2-1.8-2-3.3-4.3-3.2-5 0-.6.8-.1 1.7 1.3s4 4.9 6.8 7.7l5.2 5.3h13.8l.2-3.4c.1-1.9-.4-3.8-1.2-4.5-2.2-1.8-24.4-9-26.6-8.6-1.1.2-2.2 0-2.5-.6-.4-.5-1.8-.9-3.3-.9-2.4 0-2.4-.1-.8-1.3 1-.7 2.2-3.3 2.7-5.8 1-4.5 2.7-21.9 2.1-21.9-.7 0-8.1 5.1-8.7 6-.3.5-1 1-1.5 1s1.8-2.6 5.1-5.7 5.8-6.2 5.5-6.9-.2-1.5.2-1.8c.7-.8.7-1.2 1.7-18.4.4-7.2.5-13.2.3-13.2s-4.5 4-9.5 9c-5 4.9-9.4 9-9.8 9-.5 0 3.7-4.5 9.3-10.1S566 223.4 566 223s-1-1.2-2.2-1.8c-2.2-1.1-2.2-1.1.6-.9 2.7.2 3.1-.2 4.8-4.8 1-2.8 2.1-6.4 2.4-8 .3-1.7 2-6.2 3.9-10 1.8-3.9 4.1-9.3 5-12 .9-2.8 2.3-6 3.1-7.2 1.9-3 1.8-3.6-.8-2.7l-2.3.6 2.3-2.4c2.8-3.1 2.8-4.2-.3-6.2-1.4-.9-2.5-2.2-2.5-2.8s1-.2 2.3 1c3 2.9 3.3 2.8 4.1-1.1 2.3-10.5 6.7-38.9 6.2-39.4-.2-.2-2.5.9-5.2 2.6-2.7 1.6-10 6-16.3 9.8-6.3 3.7-11.6 7.3-11.8 8-.2.6.2 1.6.9 2.2s3.4 2.8 5.9 4.8c2.5 2.1 6.4 5.3 8.7 7.2s4 3.6 3.7 3.9c-.5.5-4.6-2.5-10-7.3-1.6-1.5-4.2-3.4-5.7-4.3-1.6-.9-2.8-2-2.8-2.4s-.5-.8-1-.8c-.7 0-.9 1.8-.6 4.7 1.3 11.8 1.5 17.8.6 14.9-.5-1.6-1-5.3-1.2-8.3s-.6-5.7-1-6c-.5-.2-.8.1-.8.7s-.4.8-1 .5c-.6-.4-1 .9-1.1 3.2-.1 3.7-.2 3.7-.8.8-.4-1.7-.4-3.7-.1-4.5.4-.8 1-3.2 1.4-5.3s1.5-4.7 2.4-5.8 1.7-2.5 1.7-3.1.6-1.3 1.3-1.6c.7-.2 1 .2.6 1.2-.9 2.3 2.5.9 12.3-5 22.6-13.7 21.9-13 26-25.9.9-2.8 1.9-5.5 2.3-6 1.3-1.9 5.1-12.8 4.6-13.3-.3-.3-1.2.1-2.1.8s-1.5.8-1.5.2c0-1.6 8.2-7.2 10.4-7.2 2 .1 1.9.2-.3 1.4l-2.3 1.3 2.3 2.5c8.7 9.1 12.1 13 10.4 11.7-1.1-.7-4.4-4-7.4-7.2-2.9-3.2-5.9-5.6-6.5-5.4s-1.4 1.7-1.7 3.3c-.7 2.8-1.7 5.5-7.1 18.9-1.4 3.3-2.8 7.3-3.2 8.8l-.7 2.8 4.8-.6c2.6-.4 8.5-1.3 13-2.1 4.5-.7 11.1-1.6 14.7-2 5.9-.6 8.1-1.6 5.9-2.6-1.1-.4-7.3-8.5-7.3-9.5 0-.4 2.1 1.6 4.6 4.5 2.5 2.8 4.9 5.2 5.4 5.2 1 0 11.9-12.7 24.6-28.5 2.7-3.3 5.1-6.2 5.4-6.5.4-.3 2.6-3.4 4.9-7 2.4-3.6 5.6-7.6 7.2-8.8 3.1-2.5 6.4-8 5.4-9-.3-.3.4-1.1 1.5-1.7 2.2-1.2 8-.8 8 .5m-260.7 51.3c2.4 1.8 5 3 6.7 2.9 1.8 0 2.7.4 2.4 1.1-.2.7 1.5 2 3.8 2.9 2.3 1 3.9 2 3.6 2.3-.2.3-2.7-.5-5.4-1.6l-5-2.1-4.1 2.8c-17.2 12.1-29.4 21.9-27.7 22.3 1 .2 2.9 1.2 4.2 2.2 2.1 1.6 5.2 1.8 39.5 1.9 20.5.1 39.5.5 42.2 1 3.1.4-6.2.8-24.5 1-23.1.2-27.8.4-21.5 1.1 4.4.5 8.8 1.3 9.7 1.9 1 .5 2.9 1 4.3 1s2.5.4 2.5.9 1.4 1.1 3 1.4c2.1.5 3 1.2 3 2.7 0 1.1.5 2 1 2 .6 0 1 .8 1 1.9s1.2 2.3 3 3.1c2.9 1.2 3 1.4 1.4 3.1-1 1.1-1.3 1.9-.7 1.9 1 0 19.1-14.6 24.9-20.1 3.1-2.9 5.4-3.7 5.4-1.9 0 .5-.5 1-1.1 1s-5.3 3.7-10.3 8.2c-5 4.6-15.6 13.7-23.4 20.2-14.1 11.8-15.3 13.5-9.6 13.6 2.4 0 3.7 2.3 2.9 5-.7 2.2-2 2.8-6 2.6-2.3-.1-3-.6-3-2.1 0-1.4-.6-1.9-2-1.7-2 .2-2 .2 0-1 1.1-.7 2.1-2 2.3-2.8.3-1.2 0-1.2-1.5.2-1 1-3.3 3.1-5.2 4.7-1.8 1.6-3 3.4-2.7 4 .4.6 0 1.4-.8 1.7-2.5 1-1.9 2.1 1.5 2.8 2.6.5 3 1 2.7 3.3-.3 2.7 0 2.9 8.2 5.1 21.8 6 20.8 6.2-4.5.8-9.3-2-17.4-3.6-17.8-3.6-.5 0-.5.9-.2 2 .6 1.8.4 1.8-2-.4-2.9-2.7-3.3-2.7-15 0-3.3.7-9 1.8-12.7 2.4-3.6.6-11.1 1.9-16.5 3.1-5.4 1.1-12 2.4-14.8 2.9-8.7 1.6-26.8 5-32.2 6.1-4.1.8-5.1 1.3-4.6 2.6.4 1 .2 1.4-.4 1-1.6-1-.4 43.7 1.3 48.7.9 2.8 1 4.5.3 5.9-.9 1.6-.4 47.6.5 48.5.2.1 20-6.5 44.1-14.7 24.1-8.3 45.1-15.3 46.6-15.6 1.6-.4 3.4-1.6 4-2.7 1-1.9 1.2-2 2.1-.5.6 1.2 2.4 1.7 6.1 1.8 4.5.1 4.1.3-3.1 1.1-6 .7-14.2 3-30 8.4-11.9 4.2-29.3 10.2-38.7 13.4-30.7 10.5-29.6 10.1-29.3 11.8.2 1-.2 1.6-.8 1.5-.7-.1-1.6 2.7-2.2 7-.6 4-1.4 9.4-1.8 12.2-1.1 7-1.1 7 1.1 7 2.1-.1 2.2-.5 1-4.3-.4-1.3-.2-2.2.4-2.2 1.2 0 2.6 4.8 1.7 5.7-.3.4.1 1.7.9 3 1.1 1.6 1.2 2.3.4 2.3-.7 0-1 .2-.7.5.2.3 2.1-.3 4.2-1.3 2-1 3.4-2.1 3.1-2.4-.4-.3-.1-.9.6-1.4.8-.5 1-.3.4.6-.5.8-.3 1.1.6.8.8-.3 1.3-1.4 1.1-2.4q-.3-1.95.6-.6c.6.9 2.6.3 8.3-2.7 4.1-2.2 7.3-4.5 7.2-5-.2-.6.3-.8 1.1-.5s1.7.1 2.1-.5c.3-.6.1-1.1-.5-1.1s-.8-.5-.5-1c.3-.6 1.3-1 2.1-1s1.2.4.9 1c-.3.5-.2 1 .4 1 .5 0 1.2-.4 1.6-.9.3-.6 3.1-2.2 6.2-3.7 3.2-1.4 8.2-5 11.3-7.8 3-2.8 9.1-8.3 13.5-12.1s8.2-7.2 8.5-7.5 3.2-2.8 6.5-5.5c3.3-2.8 6.2-5.2 6.5-5.5s1.6-1.4 3-2.4c5.2-4-15.9 15.3-33.8 30.9-8.4 7.3-9.8 9.2-5.9 8.1 1.2-.3 8.7-2 16.7-3.6s17.8-3.7 21.9-4.5c4-.9 7.5-1.4 7.8-1.2.2.3-2 1-4.9 1.6-9.5 2.1-18.1 4-30.8 6.7-13 2.7-15.6 3.8-13 5.4.9.6 1 1 .3 1-.6 0-1.5-.5-1.8-1-1.3-2.1.4-3-40.7 19.5-5.9 3.3-10.6 6.1-10.4 6.3.4.3 25.6 5.9 39.6 8.7 22 4.5 49.8 10.5 51.5 11.1 1.5.6 1.7.4 1.1-1.1-.7-1.8-.6-1.8 1.4 0 1.8 1.6 2.3 1.7 3 .5.5-.8.6-1.8.4-2.2-.3-.4-.1-.8.5-.8.5 0 1.1.6 1.4 1.2.3 1 1.1 1 3.7.1 4.4-1.7 5.3-.7 1 1-2 .9-2.8 1.7-2.1 2.2.7.4 1.8.5 2.5.2s1.9-.1 2.7.4c1 .6.2.9-2.6 1-2.2.1-4.4.1-4.9 0-.4-.1-1.4.3-2.1.9-1 .8-1.6.7-2.2-.3-.9-1.7-12-4.3-49.1-11.7-13.6-2.7-29.7-6.1-35.9-7.5-6.1-1.4-11.6-2.5-12.2-2.5-1.2 0-11.1 30.1-11.1 33.9 0 .7 3.2 1.1 9.8 1.2 5.3.1 12.9.5 16.7.9 4.3.5.3.6-10.2.3l-17.2-.6.3 4.9c.2 2.7.1 3.4-.1 1.6-.2-1.7-.8-3.2-1.3-3.2-1.1 0-.7-3.9.7-6.5.6-1.1 1.9-5 2.8-8.5 1.4-5.5 3.4-12.4 6.1-21.4.5-1.6-.3-1.4-5.2 1.4-3.3 1.8-6.6 4.1-7.6 5.1-.9 1.1-2.2 1.9-3 1.9-2 0-3.7 2-3.1 3.6.3.8 0 1.4-.6 1.4s-1.1-.4-1.1-1c0-.5-.8-.6-1.7-.3-3.3 1.3-17.2 9.4-17.8 10.3-.4.6.4 1.4 1.7 2 1.7.7 1 .8-3.1.5-4-.4-7.8.2-15.5 2.6-5.5 1.7-10.8 3.3-11.6 3.7-.8.3-1.9.6-2.5.7-3 .4-5.3 1.8-5.1 3.2 0 1-.7 1.9-1.6 2.1-1.1.2-1.8-.3-1.8-1.2 0-1.1-.7-1.5-2.2-1.2-2 .3-2.3.9-2.2 4.2.1 2.2 0 3.1-.3 2.1-.5-2-2-2.3-2.6-.5-.2.7-.2.1 0-1.4.5-3-.9-4.1-6.6-5.3l-3.4-.7.6 5.1c.4 3 .2 5.1-.3 5.1-.6 0-1-2.3-1-5 0-4.2-.3-5-1.8-5-1.9 0-11.2 2.9-11.2 3.5 0 .2 1.1 2.6 2.5 5.3 1.4 2.8 2.5 5.8 2.5 6.8 0 1.2-.8.3-2-2.1l-2-4 .5 4c1.1 8.5 6.6 43.2 7.3 46l.8 3 1.7-3c.9-1.7 1.6-2.5 1.7-2 0 .6-.7 2.1-1.6 3.3-1.9 2.7-2 8-.3 15.5 1 4.5 1.6 5.7 2.8 5.2 1.1-.3 1.1-.1-.3.9-1.8 1.5-1.8 1.6 0 4.5 1.1 1.6 3.6 5.8 5.8 9.3 2.1 3.4 4.2 6.6 4.7 6.9 1.4.8 3 6.9 1.8 6.9-.5 0-1 1.5-1 3.2-.2 3.2-.2 3.2-.6.5-.6-4.2-2.7-4.3-8.5-.4-2.9 1.9-6.3 3.9-7.5 4.6-1.3.6-2.3 1.7-2.3 2.4.1.7 3.9 4.3 8.7 8.2 10.6 8.7 11.5 9.6 10.8 10.3-.3.4-.9.2-1.3-.4-1-1.4-17.8-15.4-18.5-15.4-.4 0-.2 1.2.3 2.6.6 1.4 1 3.3.9 4.2 0 .9-.7-.6-1.6-3.5l-1.5-5.1-3.7 1.5c-5 2.1-5.7 2.9-4 5 1.2 1.6 1.1 1.6-.8-.1-2.1-1.8-4.1-1.8-8.7 0-.9.3-1.6.1-1.6-.6 0-.6.3-.9.8-.6.4.2 2.1-.2 3.8-.9 2.4-1 3.4-2.3 4.4-5.9.7-2.6 1.5-4.5 1.7-4.2.3.2 0 2-.5 4-1.2 4.1-.6 4.4 3.8 2.1 3.4-1.7 3.7-2.7 1.5-4.5-.8-.7-1.5-1.9-1.5-2.7 0-.9-.6-1.3-1.4-1-1 .4-1.2 0-.9-1.4.4-1.5.2-1.8-1.1-1.3-.9.4-1.9 1.8-2.2 3.3-.4 2-1.1 2.6-3.3 2.6-2.5 0-2.7-.2-2.1-3 .5-2.5 0-3.8-2.7-7.2-2-2.4-3.6-5.6-3.8-7.5-.3-3.1-.2-3 1.8 1.4 1.7 4.1 2.4 4.7 4.4 4.3 1.3-.3 3.4-.7 4.8-1s2.5-1 2.5-1.6c0-1.5-12.2-12.8-13.8-12.9-.9 0-1.1-.7-.6-2.3 1.9-5.9 3.4-12.4 3.3-14.7 0-1.5-.5-.6-1.4 2.5-.7 2.7-2 6.9-2.8 9.2-.8 2.5-1.1 4.5-.5 5.1.5.5.3 1.4-.7 2.2-1.3 1.1-1.5.9-1.5-1 0-3.2 6.2-23 7-22.5.4.3 1-1.4 1.3-3.7.5-3.9.2-4.5-4.5-10-2.8-3.2-5.7-5.8-6.4-5.8-.8 0-1.4-.5-1.4-1 0-.6-1.9-1.1-4.2-1.1-4-.1-3.9-.2 2.2-1.4 7.5-1.5 22.4-7.5 22.2-9-.1-.6-5-1.3-10.9-1.7-6-.3-14.6-.9-19.1-1.2l-8.4-.6 2.9 2.3c1.5 1.3 5.2 3.8 8.1 5.6 2.9 1.9 5.1 3.6 4.8 3.8-.2.3-4-1.8-8.4-4.6-4.3-2.8-8.2-5.1-8.5-5.1s.3 2.7 1.5 6c1.8 5.6 2.2 6 5.1 6.1l3.2.1-2.8.8c-2.6.8-7.7-.2-7.7-1.4 0-.3.7-.3 1.5 0 .8.4 1.5.4 1.5.2 0-1.2-5.1-13.2-6.1-14.4-.8-1-.8-1.4 0-1.4.9 0 14.1-25.8 14.1-27.6 0-.3 1.1-2.9 2.4-5.7 3.1-6.9 3.9-9.1 3.8-10-.1-.4.2-.7.7-.7 1.1 0 4.2-6.5 4.6-9.6.1-1.3.7-2.9 1.2-3.6s3.1-5.9 5.7-11.5l4.7-10.2v-14.3c-.1-7.9-.6-15.9-1.1-17.8-1-3.3-2.5-29.6-1.6-27.5.3.5.8 4.1 1.2 8 .5 5.4.9 6.4 1.5 4.5.4-1.4.5.2.2 3.8-.4 6.1-.3 6.5 3.4 11.3l3.8 5 1.2-2.8 1.2-2.8.1 3.2c0 3.2.2 3.3 4.1 3.3 3.7 0 4-.2 3.3-2.3-1.3-4.4-5.7-12.2-6.1-11-.9 2.6-2.1 1.2-1.4-1.5.4-1.5 1.1-2.6 1.6-2.6 1 .1 1.3.7 4.6 7.6 2.3 4.8 3.8 5.4 4 1.5.1-1.6.3-1.4.8.8.6 2.6 1 3 3.6 2.6 1.7-.1 3.8-.7 4.8-1.3 1-.5 2.7-.6 3.7-.3 1.8.6 1.9.4 1-2-2-5.3-10.5-20.5-11.5-20.5-.6 0-3.4 1.8-6.4 4-5.9 4.5-6.6 4.7-7.5 2.4-.5-1.4-.4-1.5.9-.4 1 .8 1.5.9 1.5.1 0-.6.6-1.1 1.3-1.1.6 0 2.7-1.4 4.6-3 1.8-1.7 3.8-3 4.2-3 .5 0 .9-.4.9-.9 0-1.5-6.2-11.1-7.1-11.1-.5 0-1 1.5-1 3.2-.2 3.1-.2 3.2-.6.5l-.4-2.8-3.5 4.3c-3 3.8-4.8 8.8-2.6 7.5.4-.3.7.5.7 1.8s-.5 2.1-1.2 1.8c-.6-.2-1.3.1-1.6.9-.2.7-.3.5-.2-.4.2-1-.1-2.1-.6-2.4s-.7-.9-.5-1.3c.5-.8 1.6-32.7 1.6-45.7 0-7 .3-8.5 2.3-10.7 2.9-3.4 4.5-3.5 2.3-.2-2 3.1-2 3.5.2 3.6 1.4 0 1.3.2-.4.9-1.2.4-2.3 1.4-2.6 2.2-.3.7-.6 8.3-.8 16.8-.1 8.5-.4 18.3-.5 21.6l-.3 6.2 4-4.4c2.2-2.4 5.2-7 6.7-10.1 7.6-16.1 12.2-31.3 5.6-18.3-1.4 2.9-2.9 5-3.1 4.7-.3-.3 2-5 5-10.5 3.1-5.5 5.6-10.3 5.6-10.6s-.8-.6-1.7-.7c-1.4 0-1.3-.2.5-.9 1.2-.5 2.4-1.5 2.6-2.2s1.4-5.8 2.6-11.3 3.8-15.3 5.7-21.9c1.9-6.5 3.2-12.1 2.9-12.3-.3-.3-7 9.4-15 21.6-8 12.1-14.8 22.1-15.1 22.1-.6 0 4.1-7.9 11.2-18.5 3.3-5 9.2-13.9 13.1-19.9l7.2-11-.4-6.5c-.4-5.3-.4-5.7.2-1.9.5 2.6 1 5 1.3 5.3s4.3-5.7 8.9-13.2c4.6-7.6 8.9-14.5 9.6-15.3.6-.8 2.4-3.8 3.9-6.5 1.9-3.7 2.1-4.4.6-2.8-2.2 2.6-4.6 3-5.5.8-.3-.8-1.6-1.6-2.8-1.6-2.1-.1-2.1-.2-.3-.6 1.1-.3 2.6-1 3.2-1.5.7-.6 2.8-.7 4.8-.4 3.8.7 3.4 1 16.9-11.5 3.4-3.1 9.8-8.9 14.4-12.9 4.6-3.9 8.1-7.4 7.8-7.7-.2-.3-3.4 1.2-7 3.2s-6.6 3.5-6.6 3.2c0-.6 6.1-4.2 14.5-8.5 7-3.6 25.5-10.6 26.2-9.9.2.3-3.7 2-8.7 3.8-6.2 2.2-8.7 3.5-7.7 4 .8.5 7.1 2.4 14.1 4.3s13.5 3.8 14.6 4.1c1.3.4 4.1-1.4 10.2-6.6 4.6-4 9.4-8.2 10.8-9.3 3.7-2.9-6.7 7.2-12 11.7l-4.5 3.9 6-.6c3.3-.3 9.2-1 13-1.5 20.7-3 45.1-6.1 46.9-6 1.2.1-12.7 2.3-30.7 4.9s-33 4.9-33.2 5.1c-.3.4 12.2 6.3 25.4 12 4.1 1.7 9.3 3.3 11.5 3.5 3.1.3 3.6.2 2.1-.5-1.7-.8-1.5-1 1.5-1 3.7-.1 4.2-.4 25.6-16l12.9-9.3-6.5.5c-4.3.4-5.5.3-3.5-.2 1.7-.5 4.5-.9 6.3-1 1.7 0 3.2-.5 3.2-.9 0-.5-2.9-3-6.5-5.7-3.6-2.6-6.5-4.9-6.5-5.2 0-.5 4.8 2.8 10.3 7m-182.5 44.1c-2.4 1.8-2.3 3 .2 2.3 1.1-.3 1.8-.2 1.5.3-.2.4-1.8 1-3.4 1.3-2.8.6-2.9.7-2.6 6.9.1 3.5 0 4.5-.2 2.3s-.8-4.3-1.2-4.8c-.4-.4-6.4 16.3-13.4 37-13.3 39.8-17.3 50.6-16.1 44.3.4-1.9 2.1-7.3 3.9-12 4.8-12.6 16.7-49.1 16.2-49.7-.3-.2-1 1.1-1.6 2.9-2.3 6.6-9.5 22.8-9.9 22.3-.6-.6 9.6-24.6 11.3-26.5.7-.8 1.7-2.9 2.1-4.5.4-1.7 2-6.1 3.5-9.8 1.6-3.7 2.6-7.4 2.3-8.1-.7-1.8 3.8-4.6 8.6-5.5.3 0-.3.6-1.2 1.3m277.7 173.8c-.2 8.7 0 11.4.4 7.8.8-5.9 1.2-4.4 1.6 6 .2 5.7.6 8.4 3 20.5 2.3 11.6 2.5 13.5 1.5 13.5-.6 0-1-1.1-1-2.4s-.7-3.9-1.5-5.7c-1.3-3.1-1.4-1.8-1.5 16.8 0 19.7.1 20.2 2.2 21.7 1.2.9 1.9 1.9 1.5 2.2-.4.4-1.3.1-2.2-.6-1.2-1-1.5-1-1.5.2 0 3.1 3.3 12.3 6.6 18.4 1.9 3.5 3 6.4 2.4 6.4-.5 0-1-.6-1-1.3 0-.6-1.2-2.6-2.6-4.2l-2.7-3 .7 4c.5 3.2.4 3.6-.5 2.2-.6-1.1-.9-3-.6-4.4.2-1.4-.2-3.7-.9-5.2-.8-1.4-1.4-3.5-1.4-4.6s-.7-4.1-1.4-6.6c-2.6-8.6-3.9-27.2-3.2-46.3.4-10 .6-24 .6-31.3-.2-11.6.3-17.3 1.5-17.3.2 0 .2 6 0 13.2m393.4-9c2.1-.2 4.2.2 4.5.7.6.9-6.1 8.7-16.6 19.3-3.2 3.2-5.8 6.4-5.8 7.2s-1.3 2.3-3 3.3c-3.2 1.8-3.8 4-1.7 6.2 1 1.2.9 1.3-.7.7-1.2-.4-2.3-.2-2.7.6-1.6 2.6-2.2-.4-.6-3.1s2-9.1.5-9.1c-.9 0 .4-4.4 1.6-5.2.7-.5.4-.8-.7-.8-1 0-2-.7-2.3-1.5-.9-2.2-1.4-2-6.9 2.6-5.5 4.5-12.5 8.5-12.5 7 0-.5 1-1.3 2.3-1.7 2.5-.7 13.7-9.5 13.7-10.7 0-1.6 2.8-.5 3.7 1.5 1.1 2.3 1.1 2.3 2.3-.7 1.8-4.1 12.7-14.3 16.2-15 1.7-.4 2.8-1.3 2.8-2.3 0-1.4.2-1.5.9-.3.6 1 2.3 1.4 5 1.3m5.1 39.6c0 1.5.5 4.3 1 6.2.8 2.6.6 6.1-.6 13.9-1 5.9-1.3 10.6-.8 11 .5.3 1 1.7 1 3.1.2 2.3.1 2.3-1.2.5-1.2-1.7-1.4-1.7-1.4-.2 0 2.8.2 3.2 1.1 2.9 1.6-.4-1 3.7-3 4.7-1 .6-2.6 3.5-3.5 6.6-1 3-2.2 5.8-2.8 6.1-.6.4-.5-.3.2-1.5 2-3.8.7-4.1-4-1.2-7.5 4.8-10 7.8-10 12.3 0 2.2-.5 4.8-1 5.9-1.3 2.4.1 2.5 2.3.1.8-.9 3.1-3.3 4.9-5.2 1.8-2 3.9-4.9 4.6-6.4.7-1.6 1.5-2.6 1.8-2.3 1.6 1.6-5.8 11.6-11.8 16.1-3.4 2.5-4.1 2.7-5.1 1.3-1.4-1.7-12.6-7.7-14.5-7.7-1.4 0-.8-3.8 1.4-8.2.8-1.5 1.4-3.3 1.4-4.1s.6-1.7 1.3-2c.7-.2 2.3-2.5 3.5-5.1 1.3-2.5 2.8-4.4 3.3-4.1 1.2.8.4 6.8-1 7.3-2.4.8-.9 2.9 2.2 3.1 7 .6 12.9.3 13.6-.6.3-.5 2.1-1.8 3.9-2.8 1.7-1.1 3.2-2.3 3.2-2.7s-3.3-.8-7.2-.8c-5.5-.1-6.9-.3-5.5-1.1 1.1-.6 1.7-2.2 1.7-4.4 0-1.9.5-3.7 1.1-4 .6-.4.7-1.9.4-3.5-.6-2.6-.3-2.9 2.2-3.2 1.6-.2 3.2-1.2 3.8-2.4 1.4-2.8 3.7-5.6 4.2-5.1.2.2-.1 1.6-.7 3.1-.8 2.1-.7 3.2.4 4.7 1.1 1.7 1.4 1.8 1.9.4.9-2.2 2.7-1.9 2.7.5 0 1.1.4 2 .8 2 1.2 0 3.2-11.5 3.2-17.9 0-3.1.4-5.1 1.1-5.1s.8-.7.4-1.8c-1.1-2.8-2.2-12.1-1.3-11.6.4.3.8 1.7.8 3.2m-693 92.7c1.7 3.3 3 6.6 3 7.2 0 .7 3 5.9 6.8 11.5 3.7 5.7 6.9 10.7 7.1 11.2 1 2.3 19.6 26.3 22.6 29.1 1.8 1.7 6.7 5.3 10.9 7.9s7.6 5 7.6 5.3-1-.1-2.2-.9c-11.2-7.1-15.2-9.2-15.6-8-.2.6-.8 1-1.2.7-.5-.3-.7-1.2-.3-2 .3-.8 0-1.5-.7-1.5-.6 0-.9-.4-.5-.9.3-.5.1-1.3-.5-1.6-.6-.4-4.3-5-8.3-10.3-3.9-5.3-7.6-10.3-8.2-11-.5-.8-2.1-2.6-3.5-4-1.3-1.5-2.5-3.2-2.6-3.8s-2.7-4.8-5.8-9.4-5.6-8.7-5.6-9.2c0-1.8-1.6-.6-2.9 2.3-.7 1.6-1.5 2.8-1.8 2.6-.2-.3.3-1.9 1.1-3.6.9-1.6 1.6-3.5 1.6-4.2s-2.5-7.2-5.5-14.4c-3-7.3-5.5-13.9-5.4-14.6 0-.8 1.6 2.4 3.5 7.1s4.8 11.2 6.4 14.5m348 6c8.7 12.2 8.4 11.9 11.1 11.1 1.3-.3 4-2.7 5.9-5.2s4.3-5.6 5.3-6.8l1.8-2.1-1.1 2.3c-.6 1.3-1.8 3.1-2.5 4-.8.9-3 3.7-4.9 6-2 2.4-3.6 4.8-3.6 5.3 0 .4 1 2.4 2.3 4.3 1.2 1.9 4.2 6.6 6.7 10.5 2.4 3.8 4.7 6.8 5.1 6.5.4-.2 1-1.8 1.4-3.5s.9-2.8 1.2-2.5-.1 2.7-.7 5.4c-1 3.9-1.1 6.2-.1 10.9 1.4 7.4 2.6 26 1.6 25.1-.6-.6-3.3-22.2-3.5-27.8 0-1-.7-.7-2.1 1-1.7 2.1-2 2.1-1.4.5 2-6.1 1.8-7.1-3.8-15.7-3-4.7-6.4-9.2-7.4-9.9-1.1-.8-2.2-2-2.4-2.7s-4.2-2.9-8.9-4.8c-19.3-7.9-29.1-11.7-29.4-11.3-.5.5 1 8.6 2 11.3.5 1.3.4 1.7-.3 1.3-.6-.4-1.3-1.7-1.6-2.9-.3-1.3-1.5-5.5-2.6-9.3-2.5-8.7-2.6-10.2-.5-8.1.8.9 1.9 1.6 2.4 1.6.4 0 .6.8.3 1.9-.4 1.5 2.2 2.9 17.2 9 9.7 4 18 7 18.3 6.7.3-.4-.4-2-1.6-3.6s-2.2-3.2-2.2-3.5c0-.4-1.9-3.2-4.3-6.3s-5.3-7.3-6.6-9.2l-2.3-3.5 2.9 3.1c1.5 1.8 5.3 6.7 8.3 10.9M822.5 514c-.4 1.7-1.3 3.4-2 3.6-.7.3-5.3 5.1-10.1 10.6-12.4 14.1-16.7 18.4-25.9 25.8-4.4 3.6-8.2 6.8-8.5 7.1-.3.4-5.2 3.8-11 7.6-5.8 3.9-11.3 8-12.4 9.1-1 1.2-2.2 1.9-2.6 1.7-.5-.3-3.5.9-6.8 2.5-3.4 1.7-6.3 3-6.7 3-.3 0-5.8 2.5-12.3 5.6-6.4 3.1-15.3 7.1-19.7 8.9-5.1 2.1-8.4 4.1-9.1 5.5-.8 1.5-1.3 1.8-1.6.8-.3-.9-1.7-.4-4.9 2-13.4 10-22.3 16.2-24 16.7-1 .4-1.9 1-1.9 1.5s-.9 1.2-2.1 1.5c-1.3.4-1.8 1.2-1.5 2.1s.1 1.2-.4.9c-.6-.4-2.4.1-4.2.9-3.1 1.6-3.1 1.6-1.3-.4 1.9-2.1 1.8-2.1-.8-4.4-1.4-1.2-7.4-6.7-13.3-12.2-5.8-5.4-11.4-10.3-12.3-10.8s-2.2-1.8-2.9-2.8c-.8-1-3.2-3.1-5.5-4.5s-8.9-6.3-14.7-10.8c-13.3-10.3-13.3-10.3-11.7-6.8.7 1.5 2.8 5.7 4.8 9.3s6.3 11.7 9.6 18 8.5 16.1 11.6 21.7 5.7 10.6 5.7 11.1.7 1.6 1.6 2.3c1.5 1.2 1.6 1.1 1-.7-.3-1.2-.2-3.2.3-4.5.6-1.4 1-1.8 1.1-.9.1.8.3 3.4.4 5.8.5 6.9 2.6 8.3 22.5 14.8 4.6 1.6 7.9 3 7.3 3.2-1.3.4-24.3-7.5-25.6-8.8-.6-.6-1.7-1-2.5-1-.9-.1-2.9-1.8-4.6-3.9-1.6-2.1-5.5-6.9-8.6-10.7-7.5-9.3-16.9-22.5-16.9-23.7 0-.6 1.9 1.6 4.3 4.9 6 8.5 17.1 22.4 17.5 21.9.2-.2-2.3-5.2-5.6-11.2-3.3-5.9-8.8-16.4-12.3-23.3s-7.8-14.9-9.6-17.7c-1.8-2.9-3.8-6.4-4.3-7.8s-1.5-2.5-2.1-2.5-.8-.7-.5-1.6c.5-1.4.1-2.2-3.1-5.8-6.5-7.3-21-30-17.3-26.9.8.6 2.4 2.9 3.5 5 4.5 8.6 19.6 27.2 21.5 26.6.4-.1.7.4.6 1.1-.1 1.2 12.4 12 18.3 15.8 1.4.9 3.1 2.1 3.6 2.5 2.9 2.4 8.8 5.2 9.7 4.7.6-.4.8-.3.5.3-1.1 1.8 4.6 3.5 14.8 4.4 5.5.4 11.9.8 14.3.9 4 0 4.3-.2 3.8-2.3-.6-2.2-.6-2.2.6.1 1.2 2.4 1.3 2.4 17.2 2 8.9-.2 16.8-.7 17.6-1.3 2-1.3 3.2-1.3 4.9-.1 1 .8 1.5.8 1.8-.2.3-.6 1.2-1.2 2.1-1.2.8 0 4.3-1.3 7.6-2.8 3.4-1.6 13.2-6.2 21.9-10.3 11.5-5.3 15.3-7.5 14-8.1-1.5-.6-1.4-.7.5-.7 6.4-.2 35.6-20.5 49.7-34.6 9-9 25.2-28 25.9-30.3 1.1-3.4 1.9-1.9 1.1 1.8m-231.4 18.1c4.2 1.8 6.2 2.1 12.7 1.6 4.7-.3 6.9-.2 5.7.3-1.1.5-3.1.9-4.5 1-7.5.3 30.3 9.1 38.9 9 2.4 0 2.4 0 .5-1.6-1.8-1.4-1.8-1.5.6-.8 1.4.4 4.3.8 6.4.9 2.2 0 4.1.5 4.3 1.1.2.5 6 .9 13.3.9 10.2 0 13.3-.3 14-1.5.7-1.1 1.1-1.1 2.4-.1 1.3 1.1 2.9 1.1 7.8.2 3.5-.6 11.4-1.8 17.7-2.6 6.3-.9 11.7-1.7 11.9-1.9s-2.7-.7-6.5-1c-3.7-.4-9.5-1.1-12.8-1.6-3.6-.5-4.2-.7-1.5-.5 2.5.2 10.5.7 17.8 1.1 11.4.6 13.2.5 13.8-.9.3-.8 1.2-1.8 2-2.1.9-.4 1.2-.2.8.5-.4.6-.1 1.5.7 1.9 1 .7 1 1.1 0 2.4-.8.9-2.1 1.6-3.1 1.6-.9 0-2.9.9-4.3 2s-2.8 2-3.1 2c-.2 0-4.6 2.7-9.7 6s-9.8 6.1-10.3 6.3c-.6.3 0 1.7 1.4 3.2l2.5 2.7-3.8-2.2-3.7-2.2-4.8 2c-2.6 1.1-7.4 2.5-10.7 3.1s-12.5 2.4-20.4 4c-8 1.5-15.4 2.6-16.5 2.2-1.8-.4-1.9-.6-.3-.9 1.5-.3 1.6-1 1.1-4-.8-4.6-1.2-5.2-3-5.2-.8 0-1.4-.4-1.4-.8 0-.5-1.3-.7-2.9-.4-1.5.2-4.2-.3-5.9-1.2-3.2-1.6-5.7-2.2-3.4-.8.8.5-.1.8-2.3.8-1.9-.1-3.5-.4-3.5-.7s1.6-1.8 3.6-3.4l3.5-2.8-3.1-1.4c-1.8-.7-3.6-1.3-4.1-1.3-1.2 0-3.1 4.8-3.1 7.7 0 1.3-.4 2.3-.9 2.3s-.9.7-.9 1.5c0 .9 2.1 2 5.8 3.1 8.3 2.3 19 6.3 17.1 6.3-.8.1-5.3-1-10-2.4-4.6-1.3-9.5-2.5-10.8-2.5s-4.9-1.4-7.9-3.1c-3.3-1.8-6.4-2.9-7.8-2.6-1.5.2-2.1 0-1.7-.9.2-.7-3.9-6-9.1-11.8-5.3-5.9-9.6-11-9.6-11.5 0-.4-1.5-1.3-3.2-1.9-1.8-.5-2.7-1-2-1.1s3.6.9 6.3 2m-91.6 124c-.9 3-2.3 7-3 8.9-2.6 7-4.2 13-3.4 13 .5 0 .9-.7.9-1.5s.5-1.5 1-1.5c.6 0 1 .5 1 1.1s2.1.8 5.8.5c3.1-.2 6.3-.5 7-.5.6-.1 1.2-1 1.2-2 0-3.6 8.1-4.3 12.3-1.1 1.5 1.2 3.2 1.7 4.2 1.4 1-.4 2.1-.1 2.6.7 1.3 2.1 1.1 3.9-.6 3.9-.8 0-1.5.9-1.5 2 0 2.2-1.6 2.7-2.3.7-.3-.6-1.4.8-2.6 3.3l-2.2 4.5.6-3.8.6-3.9-4.3.8c-5.3.9-5.8.9-14 0-5.4-.6-6.8-.5-6.8.6 0 .8-.4.7-1.1-.5-1.6-2.7-3-2.1-1.9.9.6 1.4 1 3.5 1 4.7 0 1.5-.8.7-2.5-2.7-3-5.9-3.2-10.6-.7-13 1.1-.9 2.5-3.5 3.2-5.9 1.7-5.5 6.3-16.7 6.8-16.3.2.2-.4 2.8-1.3 5.7m704.7 19.4c1.1 1.4 2.3 2.3 2.7 2 .5-.2 1.3.7 2 2.1 1.6 3.5 1.3 5.4-.4 2.4-.8-1.4-1.4-2.1-1.5-1.6 0 1.7 2.4 9.1 3.3 10.1.7.7.8.6.3-.3-.4-.7-.1-1.5.7-1.8.7-.2 2.4-3.8 3.7-7.9 1.8-5.7 2.8-7.5 4.1-7.5 1.6 0 1.5 1-1.5 9.2-1.8 5.1-3.6 10.9-4 12.9-.6 3.1-.9 3.6-3 3.2-1.9-.4-2.9-1.8-4.6-6.6-1.2-3.4-3.3-9-4.6-12.5-2-5.3-2.1-6.2-.7-6.2.8 0 2.4 1.1 3.5 2.5m20.8 5.1-.8 3.6 1.9-2.1c2.3-2.5 4.4-2.6 7.9-.6 1.4.8 3.2 1.7 4 2.1s2.2 1.3 3.1 2c1.3 1.2 1.8 1 3.7-1.5 3-4.1 7.1-4.8 12.7-2s8.2 5.5 8.9 9.4l.6 3-1.1-3c-1.3-3.4-4-6.8-4.7-6-.3.3.2 1.3 1 2.2.9 1 1.8 2.9 2.1 4.3.6 2.3.5 2.2-.5-.3-1.4-3.1-2.8-3.6-2.8-.8 0 2.5-4 7.3-5.6 6.7-.8-.3-1.1 0-.7 1 .9 2.3 5 1.6 7.2-1.2 1.2-1.5 2.1-2.3 2.1-1.8 0 1.6-4.4 5.4-6.2 5.4-1.1 0-2.9-.5-4.1-1.2-2-1-2.1-1-.8.5 2.3 2.9.4 1.9-5.1-2.6-4.5-3.6-5.8-4.2-8.3-3.6-1.6.4-2.5.7-2 .8.6.1-.3 1-2 2.1-2.4 1.6-2.6 2-1.3 2.5 1 .4 3.1-.1 4.7-1.1 1.7-1 3.3-1.5 3.7-1.1.9.8-2.5 4.7-4 4.7-.6 0-.3-.5.7-1.1.9-.5 1.7-1.4 1.7-2 0-.5-1.1-.2-2.5.7-1.6 1-3.4 1.4-5.1 1-1.8-.5-2.4-.3-1.8.5.9 1.5-.7.6-5.4-2.9-2.2-1.7-3.1-3-2.7-4.1.3-.8.3-1.2-.1-.9-.9 1-2.9-1.3-3.7-4-.3-1.3-.3-2.1 0-1.8.6.6 4.3-6.2 4.3-8 0-.7-.6-1.5-1.2-1.7-.7-.3-.3-.6.8-.6 2-.1 2.1.2 1.4 3.5"/><path d="M689.8 55.6c-.5.4 3.8 13.5 8.8 26.9.9 2.2 1.9 5.3 2.4 7 1.2 4.1 4 11.7 4.8 12.9.3.6.7 1.5.8 2.1.4 2.6 3.4 8.6 4.1 8.2.5-.3 3.4-1.6 6.5-3.1 3.2-1.4 8.7-4.4 12.4-6.6 3.6-2.2 6.9-4 7.3-4 .3 0 6.7-3.6 14.1-8 7.3-4.4 14.1-8 14.9-8 5.1 0-7.5-4.9-46.4-18-13.2-4.4-25-8.5-26.3-9-2.7-1.2-2.7-1.2-3.4-.4M686 56.9c0 .7-1.5 3.3-3.2 5.9-1.8 2.6-3.1 5.3-3 6 .2.7-.4 1.5-1.3 1.8-.8.3-1.5 1.2-1.5 2s-.9 1.4-2 1.4c-1 0-2.4.9-3 1.9-.5 1.1-1.6 2.5-2.3 3.3-5.6 5.9-23.7 29.3-23.7 30.7 0 .5-.8 1.5-1.7 2-1.6.9-1.6 1.2-.3 2.2 1 .7 8.9.9 25.3.5 24.5-.6 25.4-.7 27-4.9.7-2 3.7-2.3 5.5-.5 1 1 1.5 1 2.1-.1 1-1.5.3-5.1-1-5.1-.5 0-.8-1-.8-2.3.1-2.5-13.7-43.7-15.1-45.1-.7-.7-1-.6-1 .3"/><path d="M761 87.1c-2.5 1.6-9.4 5.7-15.5 9.1-6 3.3-13.3 7.6-16.1 9.4s-6.4 3.9-8 4.6-3.7 2-4.7 2.9c-2 1.8-1 1.9 31.9 3.5l13.1.6 1.1-4.3c.6-2.4 1.6-8.5 2.2-13.4.6-5 1.3-10.5 1.6-12.3.6-3.9.2-3.9-5.6-.1M769 84.6c0 .5-1.1 7.6-2.5 15.7-1.4 8.2-2.5 15.5-2.5 16.3 0 1.5 5.1 4 26 12.9 14.5 6.2 19 7.8 19 6.7-.1-.4-1.3-2.3-2.8-4.3s-6.7-8.9-11.6-15.5C770.8 84.7 769 82.5 769 84.6M773 84.5c0 .6 23.7 32.3 29.8 39.8 2.6 3.2 5.9 7.5 7.4 9.4 2.7 3.4 4 3.2 3.6-.7-.4-2.6 1.3-19.3 2.2-22.5.6-2.2.7-1.6.4 2.5-1 11.3-1 26-.1 26 1.4 0 17.3-3.9 24.7-6 3.6-1 8.4-2.4 10.8-3 4.6-1.2 5.2-2 2.3-3.5-1.1-.6-6.1-3.5-11.3-6.6-15.6-9.4-18.1-10.9-23.5-13.5-2.8-1.3-5.7-3.1-6.3-3.9-.7-.8-1.8-1.5-2.5-1.5-.6 0-5.7-2.2-11.2-4.9-5.4-2.7-11.5-5.2-13.4-5.6-3.5-.7-10.1-4.3-10.7-5.7-.4-.9-2.2-1.1-2.2-.3M615 120.6c-5.2.7-11.7 1.7-14.3 2-3.7.5-5.1 1.2-5.7 2.8-.4 1.2-1.8 8.6-3 16.6s-2.6 16.2-3.1 18.3c-2.1 8.2-1.6 7.8 27.1-21.9 6.9-7.1 13.8-14.4 15.4-16.2l3-3.2-5 .1c-2.7.1-9.2.7-14.4 1.5M763.6 124.7c-.9 5.6-2.7 21.6-3.5 31-.5 6.2-.3 8.3.6 8.3.6 0 1.5-.5 1.8-1 .3-.6 1.4-1 2.4-1 .9 0 3.2-1.1 5.1-2.5s4.2-2.5 5.2-2.5 1.8-.5 1.8-1c0-.6.7-1 1.6-1 .8 0 1.2-.4.9-1-.3-.5 0-.7.8-.4 1.4.5 14.1-4.3 24-9.2l5.8-2.8-2.3-1.8c-1.3-1-2.6-1.8-3.1-1.8-.4 0-2.6-.9-5-1.9-8.3-3.9-32.2-14.3-33.8-14.8-1.3-.4-1.8.4-2.3 3.4M629.5 128.2c-1.1 1.3-1.8 2.7-1.7 3.1.1.5-.1.6-.5.4-1.3-.8-4.6 2.1-3.8 3.3.3.6.2.9-.3.8-1.6-.5-33.2 32-33.2 34.2 0 1.1 1.5 4 3.3 6.4 10.3 13.8 16.1 21.1 16.8 21.4.5.2.9.9 1 1.5 0 .7 2 3.9 4.5 7.2 2.4 3.3 5.4 7.5 6.5 9.2 1.9 3 5.2 4.3 6.2 2.5.3-.4.8-4.1 1.1-8.2s1.1-13.4 1.6-20.5c1.3-16 1.8-63.5.7-63.5-.1 0-1.1 1-2.2 2.2M809 144.9l-4.8 2.4c-1.9.9-3.8 1.7-4.3 1.7-1.7 0-19.8 9.3-19.4 10 .2.4-1.4 1.3-3.7 1.9-7.3 2.2-15 6-14.3 7.1.3.5 0 1-.7 1-1.4.1 2.2 3.1 7.7 6.5 1.8 1.1 6.1 3.9 9.6 6.3 3.5 2.3 7 4.1 7.7 4 .8-.2 2.9-3.2 4.9-6.8 1.9-3.6 4.9-8.8 6.7-11.5 1.8-2.8 4.6-7.7 6.2-11 1.7-3.3 3.8-7.3 4.8-8.8 2-3 1.9-3.9-.4-2.8M810.5 150.8c-1.1 2-3.4 6.1-5.3 9.1-3.6 5.7-16.2 28.1-16.2 28.7 0 .2 2.6 2.3 5.8 4.6 3.1 2.4 5.9 4.5 6.2 4.8 3.2 3.2 12.2 10.1 12.7 9.7 1.2-1.2.1-59.1-1.1-60.4-.1-.1-1.1 1.4-2.1 3.5M759.5 173c.3.6.9 2.3 1.1 3.8.3 1.5 1.6 6.1 2.9 10.2s3.6 11.7 5.2 16.9 3.4 9.6 4.1 9.9c.7.2 1.2-.1 1.2-.7s2.7-6.1 6-12.2l5.9-11.1-2.2-1.9c-1.2-1.1-4.9-3.6-8.2-5.6s-6.7-4.2-7.5-4.9c-2.5-2-9.2-5.5-8.5-4.4M587.6 175c-.3.8-1 7.3-1.6 14.5-.6 7.1-1.4 15.7-1.9 19s-1 9.4-1 13.5l-.1 7.5 12.3-.3c7.9-.2 12.9-.8 14.3-1.7 1.3-.8 2.6-1 3.5-.4 1.8 1.1 12.9 1.2 12.9 0 0-.5-1.9-3.7-4.2-7.1-2.4-3.4-4.8-7.1-5.4-8.1-.6-1.1-2.6-3.6-4.3-5.6-1.7-1.9-3.1-3.7-3.1-4 0-.6-15-21.6-18.4-25.8-1.9-2.3-2.6-2.7-3-1.5M580.7 187.7c-1.9 5.4-4.4 12.3-5.6 15.3-3.4 9.2-7.2 22.7-7.6 26.7-.2 2.1-.6 9-1 15.3l-.6 11.5 5.6-10c3.1-5.5 6-10.4 6.6-10.9 2.2-2.3.9-5.4-3.8-8.5-5.3-3.4-4-4.3 1.4-1 1.9 1.2 3.6 1.9 3.9 1.6 1.3-1.3 6.2-49.7 5.1-49.7-.2 0-2 4.4-4 9.7M758 180c-1.1 2.2-3.1 28.9-2.8 37.3l.3 8.8 4.8-3.1c2.6-1.6 5.6-3 6.7-3 1 0 2.2-.5 2.6-1.2s.3-.8-.4-.4-1.2.3-1.2-.3c0-.5.6-1.2 1.3-1.4q1.5-.6 0-.6c-.8-.1-1.3-1.5-1.3-3.4-.1-3.9-2-6.7-4.8-6.7-1.2 0-2.6-.9-3.2-2.1-1.6-2.8-.7-3.4 2.2-1.5 1.4.9 2.7 1.4 3 1.1.5-.6-1.2-6.8-4.2-15-1.1-2.8-2.1-5.9-2.3-7-.3-1.1-.6-1.8-.7-1.5M783.5 199.2c-2.2 4.4-5 10.3-6.3 13.1l-2.3 5 4.8-.7c5.5-.7 31.6-5.7 32.1-6.1 1.2-1.1-21.9-19.8-24-19.4-.2 0-2.1 3.6-4.3 8.1M802 214.5c-3 .8-7.6 1.7-10.1 2-4.7.6-14.8 3.1-15.5 3.8-.5.4 14.3 12.3 21.7 17.4 2.8 1.9 5.2 3.3 5.4 3.1.8-.7 8.5-24.7 8.5-26.2 0-1.9-2.5-1.9-10-.1M760.1 226.6c-3.6 1.7-5 2.9-4.1 3.4.7.4 1.4 1.8 1.5 3.1.4 3.5 2.7 8.6 3.2 7.3.5-1.4 4.4-.6 5.6 1 .5.7.7.3.4-1-.2-1.2.2-3.2.9-4.5 1.9-3.5 1.8-10.5-.2-11.3-1.9-.7-1-1-7.3 2M642.9 229.8l-10.7.3.9 4.2c.6 2.3 2.9 10.3 5.4 17.7 2.4 7.4 5.5 17.8 7 23 4.6 16.9 9 31 9.7 31 .4 0 2.1-3 3.8-6.6 2.9-6.3 3-6.7 1.3-8.1s-1.7-1.4.4-1c1.8.4 2.5-.5 4.9-5.7 1.5-3.3 3.9-8.8 5.4-12.1 4.8-10.6 15.2-34.9 16.6-38.8 1-2.8 1-3.7.1-3.8-3-.3-35.3-.4-44.8-.1M596 230.7c-7.6.4-12 1.2-12 2.2 0 .9 12.7 20.7 16.1 25.1 1.1 1.4 4.5 6.3 7.7 11 9.9 14.5 12.1 17.3 12.6 15.9 1.4-4.8 2.7-11.6 3.6-19.4.6-5 1.4-11.5 2-14.5.5-3 1.1-7.9 1.4-10.8s.9-6.4 1.2-7.8l.6-2.4-13.8.2c-7.7.1-16.4.3-19.4.5M694.3 239.7c.4 5.4.9 10.9 1.2 12.3s1 8.6 1.6 16 1.4 13.9 1.9 14.3c.4.5 1.7-.3 2.8-1.7s2.4-2.6 2.9-2.6 3.1-2.5 5.8-5.7c2.8-3.1 7.3-8.1 10-11.1 2.8-3.1 4.9-6.1 4.9-6.8-.1-.7.5-1 1.4-.6 1.1.4 1.4.1.9-1.2-.4-.9-.3-1.5.1-1.2 1.2.7 15.2-13.9 15.2-15.9 0-.9-.5-2.5-1-3.6-1-1.8-2.4-1.9-24.7-1.9h-23.6zM629.5 238.6c-.3 2.7-1.3 9.2-2.1 14.4-1.7 10.1-3 19.8-4 29.5l-.6 6 10.8 7.1c15.2 9.9 18.4 11.7 19.2 11 .3-.4.1-1.6-.6-2.7-.7-1-1.9-4.5-2.6-7.7-.8-3.1-2.4-8.9-3.6-12.7-1.2-3.9-3.2-10.6-4.5-15-1.2-4.4-4.3-14-6.8-21.4l-4.5-13.3z"/><path d="M686.8 241.8c-5.4 11.7-11.8 26.1-11.8 26.7 0 .2-2.2 4.8-4.8 10.2s-5.6 12-6.6 14.8c-1 2.7-3 7-4.3 9.3-1.5 2.6-2.3 5.4-2 6.8.2 1.3-.1 2.5-.7 2.7-.8.3-.8.8 0 1.8.6.8 2.8 5.4 4.8 10.4 2.1 4.9 4.4 10.3 5.1 12 .7 1.6 1.7 4.2 2 5.7.4 1.6 1 2.8 1.3 2.8s2.3-1.7 4.4-3.7c4.6-4.5 4.9-4 .8 1.2-1.6 2.1-3 4.7-3 5.8 0 1.8.5 1.9 5.8 1.4 10.7-1 23.9-9.1 27.5-16.8 1-2.2 1.7-4.3 1.5-4.5s-4.7-.6-9.9-1l-9.5-.7-1.8 2.8c-1 1.4-2 2.4-2.3 2.2-.2-.3.3-1.7 1.2-3.1l1.7-2.5-6.4-3.1c-6.6-3.2-5.6-3.4 2.5-.3 4.7 1.7 4.9 1.7 6.2 0 .8-1.1 1.4-1.4 1.7-.7.5 1.5 34.8-17.8 34.8-19.6 0-.4-6.1-3.3-19.5-9.3-3.8-1.8-7.1-2.8-7.3-2.3-.2.6-1.2.8-2.2.5-2-.5-15.9 5.9-28.1 12.9-3.8 2.2-7.4 3.8-8.1 3.6-.6-.2 1.3-1.6 4.3-3.1 3-1.4 8.7-4.4 12.8-6.6s10.1-5.2 13.3-6.6c5.7-2.6 5.8-2.7 5.8-6.8-.1-5.2-4.7-49.7-5.2-50.3-.3-.2-2 3.1-4 7.4M578.8 238.7c-2.9 3.4-9.7 15.5-10.3 18.5-.5 2.2-.2 3.3 1.2 4.3 1.9 1.5 16.9 9.5 17.8 9.5.8 0 .6-3.7-.4-6.2-.8-2-1.9-7.6-4.7-24.1-.7-4.1-1.4-4.5-3.6-2M590.6 261.5c-.3.9-.3 3.6.1 6.1.7 5.1 2 6.3 12.3 10.9 3 1.4 7.2 3.5 9.3 4.6l3.8 2-6.2-9.3c-3.4-5.1-7.8-10.8-9.7-12.6-3.8-3.4-8.6-4.3-9.6-1.7M565.6 273c-.4 5.5-.4 10.4-.1 10.9s-.1 1.1-.7 1.4c-.7.2-1 .8-.6 1.2.7.7 12.8-5.3 12.6-6.4-.1-.3.4-1.8 1-3.4 1.4-3.3 4.7-3.9 3.7-.6-.5 1.5-.4 1.9.4 1.5.6-.4 1.1-1.5 1.2-2.4 0-1.1.2-1.2.6-.4.2.6.9 1 1.4.7 1.7-1.1-1.5-3.1-4.3-2.7-2.1.3-2.8 0-2.8-1.2 0-.9-.5-1.6-1.1-1.6-.5 0-.7-.5-.4-1 .3-.6.1-1-.5-1s-2.8-1.1-5-2.5-4.1-2.5-4.3-2.5-.7 4.5-1.1 10M767.9 266.2c-.6 2.7-.6 3.7.2 3.2.5-.3.9 0 .9.5 0 .6-.4 1.1-.9 1.1-.4 0-.9 2.7-.9 6-.1 3.6.3 5.8.9 5.5.5-.4.9.1.9.9 0 .9-.6 1.3-1.5 1-1.1-.5-1.4.2-1.3 3 .1 3 .5 3.6 2.4 3.6 1.3 0 2.5.4 2.8.9.6.9 8.3 3 12.9 3.5 1.3.2 2.9.6 3.5 1 .7.4 1.2.5 1.2.3 0-1.3-20.9-31.5-21.1-30.5M592.2 285.2c1.1 14.9 1.2 15.7 1.8 15.4 2.1-1 15.3-7.2 18.8-8.9 2.4-1.2 4.5-2.4 4.7-2.8.4-.5-24.5-12.9-25.8-12.9-.1 0 .1 4.2.5 9.2M586 280.1c-.9.8-2.2 1.5-3 1.7s-1.7.8-1.8 1.3c-.2.5-.7.7-1.1.5-.4-.3-1.3 0-2.1.5-1.3.8-1.3 1.1.1 2.2.9.6 1.4 1.8 1.2 2.4-.5 1.5-3.9 1.7-4.8.4-.3-.6-1.8-.5-3.7.1-1.8.6-2.7 1.3-2 1.6.7.2 1 .7.7 1.2-.3.4.2 1.1 1.1 1.4.8.3 1.2.2.9-.4s.1-.7 1-.4c.9.4 1.3.9 1 1.2s1.2 1.2 3.2 1.9c4.2 1.5 12.6 4.3 13.2 4.3.5 0-.8-14-1.7-17.9-.6-3-.9-3.2-2.2-2M607.3 296.6c-6.2 3.1-11.3 5.9-11.3 6.2 0 .6 16.4 10.8 26.2 16.4 1.6.9 3.8 2.4 4.9 3.4 2.4 2.1 2.4 1.5-.1-8.8-2.7-11.1-6.4-22.1-7.6-22.4-.5-.2-6 2.2-12.1 5.2M623.7 297.1c1.1 4.1 2 5.9 2.9 5.5.8-.3 1.1 0 .7 1-.7 1.9 3.7 20.4 4.9 20.4.5 0 2.7-.9 4.8-2 2.2-1.1 4-1.8 4-1.5 0 .2-1.8 1.4-4.1 2.6-4.5 2.3-4.5 1.8-.6 11.4 1.3 3.3 2.7 6.8 3.1 7.8.3 1 1 1.5 1.6 1.2 1.2-.7 5-8.6 8.2-17 1.8-4.9 2.3-5.5 2.6-3.5.2 1.3-.1 2.6-.7 2.8s-1.1 1-1.1 1.8-1.6 5.4-3.5 10.1c-3.8 9.7-3.6 10.3 2.8 10.3h3.7l.1-5.3c.1-2.8.3-10.7.5-17.5l.3-12.2-2.2 1c-2 1-2 1-.4-.3.9-.8 1.7-2.2 1.7-3.1s-.8-1.9-1.7-2.3c-1-.3-4.9-2.6-8.8-5.1-9.5-6.1-19.5-12.2-19.9-12.2-.2 0 .3 2.7 1.1 6.1M761.5 294.9c-1.1.5-2.3.6-2.8.4-.7-.4-13.8 3.1-24.7 6.7l-5.5 1.9-.1 4.3-.1 4.3 3.6-.2c2-.2 5.7-.5 8.4-.6 4-.3 5.4-1 8.8-4.3 3.9-3.8 4.5-2.8 1.2 2.1-.7 1.1-1.3 2.4-1.3 3 0 .5.4.4.9-.4.8-1.2 1.9-1.1 7.5.3 8.8 2.2 11.6 2.1 11.6-.3 0-1.8-4.8-18.2-5.3-18-.1 0-1.1.4-2.2.8"/><path d="M718 309.3c-10.6 6.7-25.4 15-26.7 15-.7 0-1.3.5-1.3 1 0 .8 6.7.7 20-.5.8-.1 2.2-.9 3-1.8s3.8-2.9 6.7-4.4c4.4-2.4 5.2-3.4 5.8-6.5.3-2 .8-4.4 1.1-5.4.8-2.6-1.4-2-8.6 2.6M655.4 320.3c-.3.9-.3 2-.1 2.4.3.5.7 6.4.8 13.1l.2 12.2h5.2c2.8 0 5.4-.3 5.7-.6 1.2-1.2-6.3-21.7-9.8-26.8-1.2-1.7-1.4-1.8-2-.3M688.3 350.6c-.3.9-.9 1.1-1.2.6-.4-.6-2.8-.6-6.8 0-8.6 1.4-8.5.8-3.8 25.8 2.3 11.8 5.3 25.1 6 25.8.2.2.4-6.5.4-15 .1-8.4.4-18.5.7-22.4.6-6.7.5-7.2-1.7-8.8-1.8-1.2-2-1.6-.7-1.6.9 0 2 .5 2.4 1.1.3.6 1.5.9 2.5.6 1.1-.3 1.7-.1 1.3.4-.3.5.4.9 1.5.9 1.2 0 2.1-.6 2.2-1.3 0-.6.2-2.2.3-3.5.2-1.4-.3-2.2-1.3-2.2-1.4 0-1.4-.2-.1-1 1-.7 1.1-1 .2-1-.7 0-1.5.7-1.9 1.6M813.7 370.1 803 386.2l5.3 4.8c9.1 8.3 11.8 10.3 12.6 9.4.4-.5 1.6-9 2.5-18.9s1.9-20.1 2.2-22.8c.3-2.6.2-4.7-.3-4.7s-5.7 7.2-11.6 16.1M669.3 364.2c-.2 2.7-3.4 23.7-4.8 31.3-2.6 14.4-6 45.4-5.3 49.4.2 1.9 1 1.1 4.7-4.6 2.5-3.7 6.1-8.7 8.2-10.9 2-2.3 4.9-6 6.4-8.3 2.5-3.7 2.7-4.7 2.3-10.9-.3-3.7-1.7-11.4-3-17.2-1.4-5.8-3.6-14.9-4.8-20.3-2-8.7-3.5-12-3.7-8.5M630.4 381.3c-3.6 4-13.9 11.7-15.5 11.7-1.7 0-6.9 5-6.9 6.7 0 .7-.4 1.3-1 1.3-.5 0-1 .4-1 1 0 .5-1.4 2.3-3.1 3.9-1.6 1.6-2.6 3.2-2 3.5 1 .6 21.9 3.6 25.2 3.6 1.6 0 2.7-4.7 4.3-20 .2-1.9.6-4.2.9-5 1-3 1.6-8 .9-8-.4.1-1.2.6-1.8 1.3M540 386.1c0 .8.9 2.5 2 3.9s2 2.9 2 3.3c0 1.7 11.5 17.6 12.5 17.4 1.1-.4 8.2-14.2 8.7-17 .3-2.2-2.6-3.5-13.7-6.2-11.7-2.9-11.5-2.8-11.5-1.4M801.3 391.7c-.4 1.5-.7 3-.8 3.3 0 .3-.5 1.8-1.1 3.5-2.4 6.3-3.7 11.5-3.1 12.2.4.3 3.5-.5 6.9-2 3.5-1.4 8.5-3.3 11.1-4.3 5.4-1.9 5.8-1-4.3-9.5-7.7-6.4-7.8-6.4-8.7-3.2M562.8 406.2l-3.6 7 8.1-.6c10-.8 24-2.6 24.6-3.2.2-.2-1.3-.5-3.5-.5-2.1-.1-3.1-.3-2.2-.6 1.6-.4 1.6-.5 0-2.2-.9-1-2.3-1.6-2.9-1.3-.7.2-1.3-.1-1.3-.7s-.7-1.1-1.6-1.1c-.8 0-1.3.4-1 .9s-1.1 0-3.1-1c-2.1-1.1-4.7-1.9-5.8-1.9-1.2 0-2.5-.4-3.1-1s-2.2 1.7-4.6 6.2M700.1 415.6c-6.8.7-12.6 1.5-12.8 1.8-1.3 1.3 9 14.2 29.7 37.2 3 3.3 6.8 7.6 8.3 9.4 2 2.3 3.1 3 3.6 2.2.4-.7-.3-9.2-1.6-19-1.3-9.7-2.7-21.1-3.1-25.2l-.7-7.5-5.5-.1c-3-.1-11.1.4-17.9 1.2M738.9 426.2c6.5 6.5 12.5 11.8 13.2 11.8 1.4 0 11.9-15.8 11.9-17.8 0-1.5-2.6-2.2-7.8-2.2-2.5 0-5.9-.4-7.6-.9-1.7-.6-7.3-1.4-12.3-1.8l-9.2-.8zM681 422.3c-.8.7-3.4 3.5-5.7 6.3l-4.1 5 2.9-.4c1.8-.3 2.9 0 2.9.8 0 .7-.7 1-1.6.6-1.8-.7-6.3 3.5-11.7 11l-3.6 5 10.2 1.3c5.6.7 12.2 1.3 14.7 1.4l4.5.2-.2-5.4c0-3-.6-7.1-1.1-9-.6-2-1.6-5.9-2.3-8.6-1.8-7.5-3.1-9.6-4.9-8.2M687.6 425.8c1.8 9.6 2.7 13.2 3.8 16.2.8 1.9 2.3 6.6 3.6 10.5 3.6 11.4 12.6 34.4 14.1 36 .6.6 4.1-2.2 9.4-7.5 8.6-8.5 10.3-11.9 7-13.8-.9-.4-5.2-5.4-9.8-10.9-12.3-15.1-26.1-31.1-27.3-31.6-.7-.3-1 .2-.8 1.1M729.1 477.7c-6.4 24.8-8.6 32.4-8.9 30.2-.2-1.4 1.1-6.7 2.7-11.9 1.7-5.1 3.4-11.6 3.7-14.4.4-2.8 1.2-5.4 1.8-5.8.7-.5.5-.8-.5-.8-.9 0-3.4 1.9-5.5 4.3-8.1 8.9-11.4 13-11.4 14.1.1 2.2 7.5 16 9.1 17 1.2.7 3.2.2 7-1.7 19.3-9.4 24.5-12.1 25.3-12.8.6-.5-.6-2.4-3-4.6-2.1-2.1-6.8-6.9-10.3-10.6-3.4-3.7-6.9-6.7-7.7-6.7-.7 0-1.8 1.7-2.3 3.7M707.5 499.7c-.4 1.6-1.7 5.9-3 9.8-3.2 9.6-5.7 18.6-5.2 19.1.2.2 4.5-3.2 9.5-7.7l9.2-8.1-4.2-7.9c-2.4-4.3-4.6-7.9-5-7.9s-1 1.2-1.3 2.7M690.7 499.2c-1.5 1.2-1.5 2-.2 9.3 2.1 11.6 3.8 17.8 5.1 18.2.7.2 2.2-3.9 3.8-10.5 3.1-12.7 3-12.2 1.2-12.2-.8 0-1.8-.9-2.1-2s-1.4-2-2.4-2c-.9 0-2.2-.5-2.7-1-.7-.7-1.6-.6-2.7.2M318.6 114.1c-.2.8-.9 9.3-1.6 18.9-.6 9.6-1.4 19.3-1.7 21.5l-.5 4 18.1-17.9c9.9-9.9 17.8-18.3 17.6-18.7-.3-.3-1.5-.9-2.7-1.2-3.6-.7-25.7-6.7-27.3-7.3-.8-.4-1.7 0-1.9.7M314.4 116.3c-.6.7-6.2 5.7-12.4 11.2s-14 12.5-17.3 15.6l-6.2 5.7 3.8 1.6c10.1 4.2 29.7 10.4 30.2 9.6.6-1 1.6-9.2 3.5-29.5 1.5-16 1.3-17.4-1.6-14.2M346 130.3c-4.1 4-12.1 12.1-17.8 17.9-9.9 10.2-10.2 10.6-7 10.2 1.8-.3 5.1-1.2 7.3-1.9l4-1.4-3.5-.2c-1.9-.1-3.9-.1-4.3 0-.5.1-.6-.3-.2-.9.3-.5 1.8-1 3.3-1 2.1 0 2.4-.2 1.2-1-1.3-.9-1.3-1 0-1 1.2 0 1.2-.2.2-.9-1.1-.7-1.1-.9.2-1.4.9-.4 1.5-.1 1.3.5-.1.6 1.2 1.2 2.8 1.4 5.1.4 17.9-1.7 19.6-3.2 1-.9 2.6-1.2 4.5-.8 2.1.4 3.4.1 4.3-1 .8-.9 2.1-1.6 3-1.6 1.7 0 6.1-6 6.1-8.4 0-.8-.6-1.7-1.2-1.9-.7-.3.1-.6 1.7-.7 2.6-.1 2-.5-4.3-3.6-4-1.9-8.3-3.5-9.5-3.7-1.2-.1-2.6-.7-3.2-1.4-.7-.9-3 .7-8.5 6M275.2 153.9c-1.5 2.1-3.8 5.7-5.2 8-1.4 2.2-4.5 7.1-6.9 10.9-6.5 9.9-10.2 16.4-9.8 16.8.2.2 10.9-4.7 23.8-10.9 12.9-6.3 25.6-12.4 28.3-13.7l4.9-2.3-2.8-1.5c-1.5-.8-5.8-2.4-9.4-3.7-3.6-1.2-9.6-3.4-13.4-4.8l-6.7-2.6zM292 173.1C256.7 190 247.9 195 253.3 195c.8 0 1.7.7 2 1.5.4.8 3.1 3.1 6.2 5.1 3 2 5.5 4.1 5.5 4.5 0 .5.4.9.9.9 1 0 18.3-17 24.4-24.1 2.2-2.4 6.6-7.2 10-10.7 3.4-3.4 5.7-6.2 5.2-6.1-.6 0-7.5 3.2-15.5 7M305.6 171.3c-1.5 1.8-8.1 8.8-14.5 15.7-6.5 6.9-13.6 14.6-15.9 17.1l-4.2 4.6 2.3 2c2.4 2.2 10 7.4 13.4 9.2 2 1 2.2.9 1.6-.5-.4-1.2-.2-1.5.8-1.2.8.3 1.3 1.7 1.2 3.2-.1 1.4.2 2.4.8 2.1.5-.4.9-1.4.9-2.4 0-.9.4-2.1.9-2.7.5-.5 3.4-8.6 6.4-17.9 8.7-26.6 10.5-32.5 9.8-32.4-.3 0-1.9 1.5-3.5 3.2M250.9 198.7c-.3 1.5.3 33.8.6 34.1.2.2 3.9-5.1 8.3-11.6l8-12-2.6-2.4c-6.4-5.9-14-10.2-14.3-8.1M247.2 206.6c-.6 2.2-1.5 5.6-1.8 7.5-.4 1.8-1 3.8-1.4 4.4-.7 1-2.4 8.5-2.2 9.6.1.4-.3 2.2-.8 4-.7 2.2-.6 3.7.1 4.6.9 1 .8 1.3-.5 1.3-1 0-1.6.9-1.6 2.5v2.5l5-3.2c2.8-1.8 5.2-4.2 5.5-5.3s.1-8.8-.3-17c-.7-13.9-.9-14.7-2-10.9M267 213.3c-1.4 1.7-4.5 6.3-6.9 10.2-2.4 3.8-5.3 8-6.4 9.2-1.1 1.3-1.9 2.3-1.6 2.3 1.6-.1 34.1-9 35.4-9.8 1.5-.8.2-2.1-7.9-8.1-5.3-3.9-9.7-7.1-9.9-7.1-.1 0-1.3 1.5-2.7 3.3M322 222.1c-3 .4-10.6 1.5-16.9 2.3-6.2.9-11.6 1.7-11.8 2-.7.6-1.7 68.6-1 68.6s6.3-8.6 10.7-16.5c14.6-26.3 22.1-40.1 25.4-46.5 2.1-4.1 4.3-7.9 4.7-8.5 2.5-2.6-.5-3-11.1-1.4M333 226.1c0 1-11.7 22.9-27.3 50.9-13.3 23.8-13.3 23.8-12.2 24.9.6.5 9.8 5.7 20.5 11.6s19.9 11.1 20.4 11.6c.6.5 1.4.9 1.8.9s.8-10 .8-22.3c-.1-17.9-.3-22.6-1.5-24.1-1.8-2.3-2-6.7-.4-8.3 1.4-1.4.2-46.3-1.2-46.3-.5 0-.9.5-.9 1.1M278.5 229.5c-4.9 1.3-12.4 3.3-16.5 4.4s-7.8 2.1-8.2 2.1c-2.1 0 0 2.4 8.4 9.9 5.1 4.4 9.6 8.1 9.9 8.1.9 0 10.4-14.8 12.6-19.6.9-2.2 2.4-4.7 3.2-5.7 1.8-2.1 1.6-2.1-9.4.8M289.1 231.7c-.6 1.6-1.6 3.6-2.3 4.5-1 1.4-1 2.2 0 3.8 1.4 2.3.9 2.6-1.1.6-1.3-1.3-2.1-.4-6.6 6.9l-5.1 8.4 1.6 4.3c7.2 19 11.2 27.8 12.5 27.8.4 0 1-3 1.3-6.8.8-8.2 1.8-52.2 1.2-52.2-.2 0-.9 1.2-1.5 2.7M250.2 240.2c-.7.7-1.2 1.6-1.2 2 0 1.1-8.8 23.7-10.1 26.2-.6 1-.7 1.6-.2 1.4 8.1-3.8 13.5-6.2 21.5-9.4 5.4-2.1 9.8-4.2 9.8-4.5 0-.6-15.7-15-17.6-16.2-.6-.3-1.6-.1-2.2.5M234.3 252.7c-.7 1.2-1.3 2.9-1.3 3.8s-.4 1.4-.9 1.1c-.5-.4-.7.2-.4 1.2.2 1.1-1.6 6.8-4.1 12.8-5.1 12.4-5.3 16.4-1.5 22.8l2.3 4 1.4-5c.7-2.7 2.2-7.8 3.2-11.3 1.1-3.6 1.8-6.7 1.5-6.9-.2-.2-2.5 1.7-5.1 4.2-7.1 6.9-6.8 5.5.4-1.7l6.3-6.3-.3-10.5c-.3-8.9-.5-10.1-1.5-8.2M255.6 263.5c-8.2 3.5-15.3 6.8-15.8 7.3-1.1 1.1 2.3 3.7 10.7 8.1 3.3 1.7 7.4 3.9 9 4.9 9.3 5.5 24.4 13.2 25.9 13.2 2.5 0 2.1-1.8-3.9-17.2-8.6-22-8.9-22.8-10-22.7-.5 0-7.7 2.9-15.9 6.4M236 276.8c0 1.1-1.3 6.3-3 11.7-1.6 5.3-2.8 10.1-2.5 10.5.5.7 4.2 1.6 12.6 2.9l4.5.7-1.3-3.8c-.7-2.1-1.7-4.6-2.2-5.6-.5-.9-2.2-5.2-3.7-9.5-2.7-7.8-4.4-10.5-4.4-6.9M239.6 276.5c.4.8.9 1.5 1.3 1.5s1.3 2.2 2 5c.7 2.7 1.7 5 2.1 5 .5 0 1.4 1.6 2 3.5s1.6 3.8 2.2 4.1c.6.4.6-.1-.1-1.4s-.7-2.3-.2-2.7c.8-.5 2.7 3.1 2.4 4.5-.1.3 1.3.5 3 .5 4-.1 7.7-2.4 7.7-4.8q0-1.8 1.8-1.5c.9.2 1.6 1.1 1.4 1.9-.3 1.1-.1 1.2.9.2 1-1.1.9-1.6-.7-2.8-2.2-1.7-25-14.5-25.8-14.5-.3 0-.3.7 0 1.5M231.9 304.7c1.1 2.1 3.4 5.8 5 8.3 1.7 2.5 3.1 4.9 3.1 5.3s.5 1.3 1 2c.6.7 1.7 2.1 2.4 3.1 1.2 1.8 1.4 1.6 3-2.5l1.6-4.4-.3 3.6c-.3 3.6-.2 3.6 4.8 4.9 2.7.7 5.5 1.6 6 2 .6.4 1.8 1 2.8 1.3 1.5.6 1.1-.6-1.8-6-4.9-9-8.7-14.6-10.5-15.8-1.4-.9-16.5-5.4-18.3-5.5-.4 0 .1 1.7 1.2 3.7M280.3 304.5c-1.4 1-2.4 1.2-2.8.5-1.2-1.9-24.5-.4-25.2 1.6-.4 1.3 12.6 21 16.9 25.4 1.5 1.6 2.8 3.8 2.9 4.7 0 1 2.7-3.4 6-9.7 6.7-12.8 6.8-12.7 1 1-2.2 5.2-4.1 10.2-4.1 11.2 0 1.1 1.4 1.9 4.8 2.7 6.7 1.5 17.5 3.1 18 2.6.2-.2-.1-2.7-.7-5.5-1.8-8.2-1.1-10.2.9-2.7 1 3.8 2 7.1 2.3 7.3.3.3 7.1-2.6 15.1-6.5 12-5.7 14.5-7.3 13.9-8.7-.5-1.4-.2-1.6 2.2-1.2l2.9.6-2.5-1.9c-1.3-1-2.7-1.9-3-1.9-.4 0-3.6-1.7-7-3.8-7.5-4.5-29.4-16.2-30.4-16.2-.3 0-.3.4 0 1 .3.5-.1 1-1 1s-2.4 1.9-3.6 4.6c-1.1 2.6-2.2 4.4-2.5 4.1-.4-.3.5-2.7 2-5.3 1.4-2.5 2.3-5 2-5.5-.8-1.4-5.7-1-8.1.6M329.8 334.2c1.6 1.6 1.5 2.8-.2 2.8-.8 0-1.6.5-1.8 1.2-.2.6-1.2 1.2-2.1 1.4-1.3.2-1.5-.2-.7-1.6 1.3-2.5-.1-2.2-8.8 2-3.9 1.8-6.8 3.8-6.5 4.3.3.6.1.7-.5.3-.6-.3-2.3-.1-3.7.4-2.7 1-2.7 1.1-.9 3.1 2.3 2.5 6 4.7 4.9 2.9-.6-.9.1-1 2.6-.5 1.9.4 3.8 1.1 4.4 1.6.6.6-.4.7-2.5.3l-3.5-.7 1.9 2.2c1.1 1.1 2.6 2 3.5 1.9.9-.2 1.6.3 1.6.9 0 1.8 10.5 8.7 10.6 7.1 0-.7.4-.4.9.7.8 1.8.9 1.7.9-.8.1-1.5-.4-2.7-1-2.7-.7 0-.9-1-.4-2.8.4-1.5.9-3.5.9-4.4.1-1 .5-2.1.9-2.4.4-.4.7-1.8.7-3 0-1.7.4-2.2 1.5-1.8 1 .4 1.5 0 1.6-1.2 0-1.1.4-4 .8-6.6.7-4.1.6-4.6-1.1-4.3-.9.2-2 0-2.3-.6-.4-.5-1.1-.9-1.8-.9-.8 0-.8.3.1 1.2M275.7 346.4c.3 1.7 1 3.2 1.5 3.4.4.2.8.9.8 1.6 0 2.4-4.2 14.6-5 14.6-.9 0-1.9 2.2-3 6.7l-.8 3.2 5.9-5.1c3.3-2.8 5.9-5.4 5.9-5.7s3.8-4.4 8.5-9.1c4.6-4.7 8.5-8.8 8.5-9.1s-4.2-1.2-9.2-1.8c-5.1-.7-10.3-1.3-11.5-1.5-2-.3-2.1 0-1.6 2.8M299.7 348.8c-.3.4-.8 2.7-1.2 5.2-.6 4.1-3.3 13.5-8.5 29.7-2 6.1-2.5 9.3-1.5 9.3.3 0 4.1-2.1 8.5-4.8 9.8-5.7 9.6-5.6 19.5-11.5 8.8-5.2 12.1-7.5 11.4-8-.2-.2-4.9-3.7-10.4-7.7s-11.7-8.6-13.7-10.2c-2-1.5-3.9-2.5-4.1-2M293.4 354.7c-1.6 2.1-2.8 4.1-2.6 4.5.1.5-.3.8-.9.8-1.3 0-6.5 6.1-6.1 7.3.1.5-.2.6-.8.2-.5-.3-1-.2-1 .3 0 .4-2 2.4-4.5 4.2-2.5 1.9-5.3 4.5-6.2 5.9-1.6 2.5-1.6 2.5 5.8 9.3 4 3.7 7.6 6.4 7.9 6 .4-.4 1.2-3.2 1.9-6.2s2.4-8.9 3.7-13c2.7-8.6 6.3-22.4 5.9-22.8-.1-.1-1.5 1.4-3.1 3.5M227.9 379.7c-1 .2-2.4 3.1-3.7 7.6-2.8 10.1-4.6 18.6-4 19.3.3.3 3-.1 5.9-.9l5.4-1.3.3-6.5c.4-7.3-.6-19-1.6-18.8-.4.1-1.4.3-2.3.6M199.3 386.8c-1.8 3.7-4.7 9.2-6.4 12.2-3.2 5.6-4.1 11.7-1.8 13.1.6.4.8 1.2.4 1.9-.5.8-.4 1.1.3.6.6-.3 1.3.3 1.7 1.4.5 1.5 1.5 2 4 2 1.8 0 3.5-.3 3.7-.8.2-.4 2.3-1.7 4.8-3s5.6-3.1 7-4.2l2.5-1.9-2.4.6c-1.6.4-2.6.1-3.3-1-.8-1.5-1.1-1.4-3.4.5-1.3 1.2-2.2 2.8-1.9 3.6.3.7 0 1-.6.7-.6-.4-.8-1.3-.5-2.1.6-1.6-1.5-1.9-3-.4-1.4 1.4-4.4.2-4.4-1.6 0-.9 1.1-1.4 2.8-1.4 3.2 0 6.9-3.5 4.9-4.7-.7-.4-2-.6-3-.4-1.6.2-1.8-.2-1.1-2.1.8-2.4.8-2.5-.1-7.6-.3-2.1-.1-3.1.5-2.7s1 .3.9-.2c-.4-2.1.2-3.7.9-2.7.4.6 1.8 1.7 3.1 2.4 1.9 1 2.5 1 3.2-.1s.9-1.1.9-.1.5 1 2 .2c1.1-.6 2.5-.8 3-.5.6.3 1-.6 1-2 0-2-.4-2.6-1.4-2.2-.9.4-1.6-.1-1.8-1.1-.3-1.3-.8-1-2.1 1.3-1.5 2.7-1.6 2.8-1.7.7 0-1.2-.5-2.2-1.2-2.2-.6 0-1.9-.6-2.7-1.4-1.4-1.3-2-.7-4.8 5.2M260 383c-.8.5-2.7 1-4.2 1s-2.9.4-3.2.9-2.2 1.2-4.1 1.5c-3.8.7-4.3 1.7-2 3.6.8.7 1.5 2.2 1.5 3.4-.1 1.9-.2 1.9-1.1.3-1.9-3.2-2.8-1.7-2.6 4.3s.9 7.2 2.4 4.6c.9-1.5 8.1-10 13.7-16.3 3.5-3.9 3.3-5.7-.4-3.3M266.6 384.2c-.9 2.8-2.6 7.6-4.4 12.5-1.4 3.6-1.6 5.3-.9 5.3 1.3 0 15.8-4.3 19.6-5.7 2.3-.9 2.1-1.2-4.8-7.1-7.3-6.3-8.9-7.1-9.5-5M220 433c-.2 1.4-.2 3.6-.2 5s-.5 2.8-1 3.1-2 3.5-3.3 7c-2.6 7-3.4 6.1-.9-1 .8-2.4 1.3-4.5 1.2-4.7-.5-.4-15.3 6.1-17.8 7.9-2.1 1.5-2 1.6 3.2 2.9 8.8 2.4 14.3 3.7 14.6 3.4.1-.2.7-3.1 1.3-6.5s1.3-6 1.6-5.8c.2.3-.1 3.3-.7 6.8-1.2 7.8-1.4 51.7-.1 50.3.5-.5 2.1-5.9 3.6-11.9 1.5-6.1 3.3-12.8 4-15 1.1-3.4 1-6-.6-17.5-2.1-15.5-4.6-27.7-4.9-24"/><path d="M199.1 457.7c1.8 2.1 4.1 4.4 5.2 5.2 1.7 1.2 1.8 2.1 1.2 8.9-.4 4.2-1.1 8.7-1.6 9.9-.5 1.3-.5 2.3 0 2.3.8 0 1.7-2 6.7-14.5 1.5-3.9 3.1-7.5 3.6-8.1.7-1 .2-4.4-.7-4.4-.2 0-3.9-.7-8.2-1.5s-8.2-1.5-8.7-1.5c-.4 0 .7 1.7 2.5 3.7M214 463c0 1.3-6.6 18.2-9.6 24.4-2.2 4.5-2.4 8.6-.6 8.6.4 0 2.5 1.7 4.7 3.7 7.7 7.2 7 8.6 7-15.8 0-12-.3-21.9-.7-21.9-.5 0-.8.5-.8 1"/><path d="M223.7 486.3c-1.4 5.6-2.9 11.8-3.3 13.7l-.6 3.5 3.2-4.3c4.4-5.9 4.7-5.2.5 1.3-1.9 3.1-3.5 5.9-3.5 6.3 0 1.5-4.5 4.7-6.2 4.4-.9-.2-3.1.1-5 .6l-3.3.9 2.8 1.2c1.6.6 2.5 1.5 2.2 2.1-.3.5-.1 1 .4 1 .6 0 1.1-.5 1.1-1 0-.6 1.4-1 3-1 1.7 0 3 .5 3 1.2 0 .6 1 2.7 2.3 4.5 1.6 2.4 2.7 3.1 4.2 2.6 2.8-.8 15.6-9.5 15-10.1-.2-.3-2.6-1.1-5.2-1.8-3.1-.8-3.9-1.3-2.3-1.3 1.4-.1 4 .3 5.7.8 1.9.5 3.5.6 3.8.1.5-.9-5.7-11.9-9.5-17-1.6-2.2-2-2.3-3.7-1-1.7 1.4-1.7 1.4-.4-.3 1-1.2 1.2-3.4.8-7.6-.9-10.3-2-10.1-5 1.2M595 536.5c0 .8.8 2 1.8 2.7s3.8 3.7 6.2 6.6c4.6 5.6 12 11.5 15.6 12.6 2.3.7 3.3-.9 5.3-8.2 1.2-4.2-.1-4.2-6.3-.1-2.6 1.7-4.9 2.9-5.2 2.6-.6-.6 8-6.7 9.5-6.7 2.3 0 .9-3-1.6-3.6-1.6-.3-4.1-1-5.8-1.6-11.2-3.7-19.5-5.5-19.5-4.3"/></svg>