<svg xmlns="http://www.w3.org/2000/svg" width="1706.667" height="960" viewBox="0 0 1280 720"><path d="M0 360v360h413.4c329.8 0 413.5-.3 413.9-1.3q.6-1.5.6 0c.1 1 46 1.3 226.1 1.3h226V0H0zM676.7 54.4c.4.7 3.1 2 5.8 2.9 2.8.8 18.2 5.9 34.4 11.2 22.6 7.4 30.3 9.5 33.3 9.2 2.1-.2 3.8 0 3.8.5 0 .6-.7.8-1.5.4-2.7-1 .5 3 3.4 4.2 1.4.5 7 2.8 12.3 5s13.6 5.9 18.3 8.1c4.8 2.3 9.1 4.1 9.6 4.1 1.2 0 1.1-2.7-.1-3.5-.5-.3-1-1.2-1-1.8 0-.7.9.1 1.9 1.7 1.1 1.7 1.8 3.3 1.5 3.8-.3.4.4.8 1.6.8s1.9.4 1.5.9c-.3.5 2.8 2.9 7 5.2 4.1 2.4 7.3 4.5 7 4.7-.2.3-3.5-1.3-7.2-3.5-10.2-5.8-38.8-19.3-41.2-19.3-.6 0-3.4-1.1-6.1-2.5s-5.4-2.5-5.9-2.5 2.4 4.4 6.5 9.7c4.1 5.4 10.5 14.1 14.3 19.3 3.8 5.3 9.4 12.6 12.4 16.3l5.5 6.7.7-4.2c.4-2.4.9-5.2 1.1-6.3s.9-6.2 1.6-11.3c.7-5.5 1.5-8.9 2-8.4.6.6.3 3.9-.6 8.3-2.2 10.8-3.2 23.9-1.7 23.9.6 0 6.6-1.3 13.4-2.9 6.7-1.6 15.7-3.7 19.9-4.7 4.3-1 8.3-2.1 9-2.6 1.7-1.1-.3-2.6-10.2-7.9-4.1-2.2-8.6-4.9-10-6-2.3-1.9 11.2 4.9 18.6 9.2 1.7 1 3.4 1.5 3.8 1.1 1.1-1 3.6 2.8 3.6 5.5 0 1.3-.4 2.3-1 2.3-.5 0-1 1.5-1 3.4 0 3.4-1.2 10.3-3.2 18.1-1.4 5.8-2.3 9.4-6.2 25.6-2 8-3.6 15.5-3.6 16.5s-.5 2.6-1.1 3.4c-1.4 2-.7-2.9 2.1-14 1.1-4.7 2.9-12.3 4-17 1-4.7 2.6-11.2 3.4-14.5 1.7-6.8 4.5-23.8 4-24.4-.5-.5-43.7 10.1-45 11.1-1.3.9.2 7.8 1.7 7.8.4 0 1.5 2.1 2.3 4.8.9 2.6 2.7 6.3 4 8.2s4.8 9.2 7.9 16.3c3.1 7 6.5 13.9 7.6 15.4 1.2 1.4 2.1 3.2 2.1 4s1 2.4 2.3 3.6c1.2 1.3 2.2 2.9 2.2 3.7 0 1.6 2.9 1.8 10.5.8 2.5-.4 6.5-.9 9-1.2l4.5-.6-4 1.1c-2.2.5-7.4 1.6-11.5 2.3-7.3 1.2-7.5 1.3-8.4 4.7-.5 1.9-2 6.8-3.3 10.9-1.4 4.1-4.7 16.3-7.4 26.9-2.7 10.7-5.2 19.7-5.5 20-.8.8.3-5.1 2.1-10.9.7-2.5 2.3-9.2 3.5-15 1.3-5.8 3.3-13.4 4.6-16.9s2.4-7.2 2.4-8.2c0-1.1.4-1.9.8-1.9s.6-1.7.5-3.8c-.2-2-.3-4.6-.4-5.6 0-2.9-3.8-7.6-6-7.6-2.3 0-2.5-1.6-.3-2.8 1.3-.7.6-2.9-5.1-15.8-3.7-8.2-7.6-15.8-8.6-17-1.1-1.1-1.9-2.3-1.9-2.6s-1.2-3.2-2.7-6.4c-2.5-5.4-2.7-5.6-3.5-3.3-.6 1.3-1.1 14.9-1.1 30.2l-.2 27.9 8.5-.6c4.7-.4 10.3-.9 12.5-1.1 2.9-.4 3.4-.3 2 .4-1.1.5-6.7 1.4-12.3 1.9-5.7.6-10.5 1.2-10.7 1.4s.3 6.8 1.1 14.8c2 20.1 2.8 31.6 2.1 31-.3-.3-1.2-8.5-2.2-18.3-.9-9.8-2.1-19.1-2.6-20.5l-1.1-2.7-1.3 2.5c-.7 1.4-2.3 6.1-3.5 10.5s-3 9.6-4 11.6c-1.6 3.5-1.6 3.8.6 9.8 2.8 7.4 1.7 8-2 1.1-2.4-4.4-2.9-4.8-4.2-3.6-.8.8-1.4 1.9-1.4 2.4 0 .6-.3 1.2-.7 1.4-.5.1-1.8 2.1-3 4.3-2 3.7-2.6 4-6.7 4.3-4.3.3-6-.8-3.6-2.3.6-.3 1-1.8 1-3.2 0-2.4-.2-2.5-4.5-2-4.3.4-4.5.4-3-1.3.9-1 2.9-2 4.4-2.3 1.6-.3 4.2-2 5.9-3.6 1.7-1.7 4.1-3.1 5.4-3.1 1.8 0 2-.2.8-1s-1.2-1 .5-1 1.7-.2-.5-1.7c-1.4-.9-2.7-2-3-2.3s-2.3-1.7-4.4-3c-2.2-1.3-5.5-3.7-7.3-5.3s-4.4-3-5.7-3.1c-2.2-.3-2.6.2-3.5 4.3-2.5 11.5-3.3 19.1-2.1 20.6.7.8.9 2.3.6 3.2-.6 1.5-.5 1.6.5.5.7-.6 2.3-1.2 3.6-1.2 2 0 2.2.2 1.1 2-.7 1-1.4 1.7-1.7 1.5-.2-.3-1.3.5-2.3 1.7-1.2 1.4-1.5 2.4-.8 2.6.6.2 2.1 1.4 3.4 2.6 1.3 1.1 5.2 3.9 8.7 6.1 3.5 2.1 6.9 4.3 7.4 4.7.6.5 4.6 3.2 9 6s10.3 6.8 13.1 8.9c3.6 2.8 6.2 4 8.8 4.1 4.4.2 6-1.6 7.7-8.7.6-2.8 1.6-5.7 2.1-6.5 1.3-2.3-.1 4.5-2.3 11-1.3 3.5-1.8 6.8-1.4 9 .5 3.1.3 3.6-1.4 3.7-1.2.1-2.1-.1-2.2-.5-.5-4.5-1.3-5.7-3-4.6-.9.5-.7.9.7 1.4 1.1.4-1.3 1-6.1 1.4-4.4.4-10.5.9-13.5 1.2s-6.7.7-8.2 1c-1.4.3-3.5 0-4.5-.5-2-1.2-22.9-7.1-25.1-7.1-.8 0-1.2.6-.9 1.2.2.7.7 2.4 1.1 3.8.6 2.4.6 2.4-.5.3-2-3.7-5.8-4.4-13.5-2.1-3.8 1.1-10 2.8-13.8 3.9-10.3 3-10.6 3.2-10.6 8.9 0 4.1.3 4.8 1.6 4.3 1.9-.7 4.4-1 10.3-1.2 3.7-.1 5-.7 8.7-4.5 3.2-3.1 4.4-3.9 4.4-2.6 0 1-.7 2.3-1.5 3-1.9 1.6-2 4.1-.1 3.4.7-.3 4 .1 7.2.8s7 1.2 8.3 1c2.5-.4 2.5-.6.5-9.6-.5-2-.4-2.7.5-2.2.6.4 1.1 1.3 1.1 2 0 1.9 5.6 12.7 6.2 12.1.3-.3 1.6-.1 2.9.4 1.9.7 2.9.4 4.8-1.3 2.3-2 2.4-2 1.6-.1-1.9 5-1.7 6.5 1.4 10 1.7 2 3.1 4 3.1 4.5s.9 1.1 1.9 1.5c1.1.3 1.8 1.1 1.6 1.8-.7 1.7 11.7 9 12.9 7.6.1-.2 2-3.2 4.1-6.7 2.1-3.4 4-6.2 4.2-6.2.6 0-2.7 7.4-4.1 9-2.2 2.6-2.6 4.9-.9 5.8 1.2.7.9 1-1.5 1.5-2.3.5-3.2 1.3-3.7 3.6-.4 1.7-1.1 3.3-1.6 3.6-1.2.8-1.2 11.2.1 12 .6.4 1.1-.8 1.2-2.7l.1-3.3.5 3.5.5 3.5.8-3.5c.4-2.1.7 1.5.6 9.2-.1 6.9.1 12.4.5 12.2.4-.3 2.4-3.2 4.4-6.7 2.1-3.4 7.4-10.4 11.7-15.5s7.6-9.6 7.2-10c-.3-.4-2.1-1.2-3.8-1.9-3.2-1.2-3.1-1.2 1-.6 3.9.5 4.8.2 10-3.7 10.9-8.2 17.3-14.1 17.3-16.2 0-1.6.3-1.8 1.4-.9 1.1 1 3.4-.1 11.2-5.4 5.4-3.7 11.6-8.1 13.8-9.9 4.3-3.5 13.8-9.6 12.1-7.8-1.1 1.1-17.9 13.5-29.4 21.7-3.9 2.7-7.1 5.3-7.1 5.7 0 .5-.7.8-1.6.8s-2.2.6-2.8 1.4c-.6.7-4.8 4.1-9.4 7.6-4.6 3.4-8.6 6.9-8.9 7.7s.9 2.9 3.1 5.2c4.7 4.8 4.7 6.2-.1 1.7-2-1.9-4-3.3-4.4-3-.4.2-1 5-1.4 10.6-.7 9.7-2.6 25.7-4.1 34-.4 2.2-.3 3.8.3 3.8 1.1 0 10-7.7 18.1-15.6 2.8-2.8 5.2-4.7 5.2-4.3 0 .8-2.4 3.2-14.7 15.2-2.7 2.6-5.4 4.7-6 4.7-1.3 0-2.4 2.5-1.8 4.2.4.9-.8 1.4-3.8 1.5-2.3.1-10.5 2.2-18.2 4.8-7.7 2.5-16.7 5-20 5.5s-8.3 1.5-11.2 2.2c-4.2 1.1-5 1.6-4.3 2.8 1.6 2.5 1.1 3.4-.9 1.6-2.2-2-1.8-2.3-9.1 8.9-4.6 7-4.8 8.7-1.7 10.9 2.2 1.6 2.2 1.6-.5.4-2.1-.8-3.1-.8-4.3.2-1.3 1.1-1.5.9-1.5-1.1 0-1.7-3.1-5.4-11.2-13.1-6.2-6-11.7-10.8-12.2-10.8-.4 0-.5 3.5-.2 7.8.4 4.2.9 10.2 1.1 13.2l.4 5.5-1.3-5.1c-1.2-4.5-2.5-15.9-2.6-22 0-1.6-.8-2.3-3.1-2.8-3-.6-33.9 2.1-34.9 3.1-.2.2 0 .7.6 1.1.5.4 3.2 3.6 5.9 7.2 2.8 3.6 6.6 8.3 8.7 10.5 2 2.2 5.1 5.9 7 8.3 6.3 8.2 18 21.1 19.6 21.7.8.3 1.9.1 2.2-.6.5-.8 1.1-.7 2.1.3 1.3 1.4 2.3 1.4 13.9-.7 2.7-.5 3.1-.4 1.9.4-.9.6-3.4 1.3-5.5 1.7-4.7.7-8.6 2.5-9.1 4.1-.8 2.3 20.1 22.3 23.4 22.3.6 0 1.5-1.5 2.1-3.3l1.1-3.2-.3 3.3c-.2 3.1-.1 3.2 3.3 3.3 2.9 0 3.2.2 1.6.9-1.1.5-3.2.9-4.7.9-1.6.1-2.8.5-2.8 1.1 0 .5-.7 1-1.5 1-2.7 0-20.8 8.2-26.9 12.1-3.2 2.1-6.3 4-6.9 4.2-.5.1.5 3 2.2 6.2 1.8 3.3 2.6 5.2 1.9 4.1-.7-1-2.5-3.3-3.9-5.2l-2.6-3.3-7.9 5.5c-4.3 3-9.2 6.8-10.7 8.4-1.5 1.7-3.2 3-3.8 3-.5 0-.9.7-.9 1.5 0 1.4-2.9 1-4-.5-.3-.4-6.3-3.5-13.4-6.9l-13-6.2-9.8 3.3-9.8 3.2-7-3.7c-6.9-3.6-7.1-3.7-10.6-2.2-5.2 2.1-5.2 1.9-.5-1.5s4.6-2.2 1.5-17.5c-1.8-9-1.8-13.7.1-7.9.7 2.2 1.9 5.4 2.8 7 .8 1.6 1.2 3.6.9 4.4-.4 1 .1.9 1.4-.4 1-1.1 2.6-5.4 3.6-10l1.8-8.1-.6 7.2c-.3 4-.1 7.4.5 7.7.5.3 1.8-.9 3-2.7 1.1-1.7 3-4.6 4.1-6.2 1.1-1.7 1.8-3.9 1.6-5-.4-1.3 1-.4 3.7 2.6 3.7 4 4.5 4.4 6.5 3.5 2.1-1 2.3-1.6 1.9-5.9-.3-3.6-.1-4.7 1-4.7.8 0 1.2-.4.9-.9-.8-1.2 4.2-2.9 10.7-3.7 2.9-.4 5.9-1.3 6.8-2.1 2.2-1.8 4.6-.7 4.4 2-.1 1.2 0 2.5.2 2.9.7 1.4 5.3-2.4 5.3-4.3 0-2.4.9-2.4 2.5-.2 1.2 1.5 1.5 1.4 3.8-1.3l2.6-2.9.1 2.8c0 1.6.4 2.6.9 2.3 1.9-1.2-4.5-21.2-8.7-27.1-1.3-1.8-1.4-1.6-.8 2.3.3 2.3.2 4.2-.3 4.2-1.3 0-2-3.6-1.6-8.5.2-2.3-.1-6-.6-8.1-.6-2.2-1.4-5.7-2-7.9-2.3-9.8-3.2-12.5-4.4-12.5-1.8 0-10.5 9.8-10.5 11.8 0 1.6-4.9 8.1-10.7 14.3l-3.4 3.6 6.5.7c3.6.3 9.5.9 13.1 1.2 3.6.4 6.5.9 6.5 1.3 0 .3-5.7.1-12.7-.4-7.1-.6-13-1-13.2-.8-.2.1.6 1.4 1.8 2.9 3 3.8 2.6 5.4-.4 2.1-1.4-1.5-2.9-2.7-3.2-2.7-.4 0-2.6 2.1-4.9 4.7-2.4 2.7-4.3 4.3-4.4 3.6 0-.7 1.1-2.3 2.5-3.7 3.7-3.8 3.1-4.6-3.2-4.6-3.2 0-8-.3-10.8-.6-5.2-.6-6.1-.2-10.1 5.1-1.4 1.8-1.5 1.9-1 .1.9-2.8-.3-5.6-2.4-5.6-2.2 0-3.9-2.2-2.2-2.8.7-.2 1.2-1.9 1.2-3.9 0-1.9.7-5.8 1.5-8.6.8-2.9 1.9-7.9 2.4-11.2s1.3-7.4 1.9-9.2l1-3.2-5-1.1c-2.8-.6-9-1.3-13.9-1.7l-8.7-.6-.6 4.4c-1.2 8.9-1.3 9.3-1.5 3.2 0-3.4-.4-6.4-.9-6.7-.4-.2-6.4.2-13.2.9-6.9.8-14.2 1.5-16.3 1.7-2.1.1-4.1.6-4.3 1-.7 1.1 3.2 9.2 6.5 13.8 1.4 1.9 2.6 3.7 2.7 3.9.5.7 12-8.8 16.2-13.3 2.4-2.6 4.6-4.5 4.8-4.3.6.6-20.6 21.7-21.7 21.7-.5 0-.9-.9-.9-2 0-1.7-6-12.2-9-15.7-.5-.7-1-1.5-1-1.9 0-1.2-5.4-4.9-10.2-7-6.2-2.6-9-5.5-7.1-7.2 1-1 1.3-.9 1.3.6 0 2 8.4 7.1 9.7 5.9.8-.9-4.3-12.1-7.6-16.9-1.4-2.1-3.2-3.6-3.8-3.3-.7.2-1.3-.2-1.3-1s-.4-1.5-1-1.5-.5-1 .2-2.5c1.2-2.7-.4-14.7-2.7-20-1.3-2.9-1.3-2.7-1.6 4-.4 12.4.3 30 1.2 31 1.2 1.3 1.1 2.8-.1 2-1.5-.9-.3 4 2.4 9.7 1.9 4 2 4.5.5 3.8-4.8-2.6-7-16.7-6.8-42 .3-27.6.6-29.9 3.5-31 2-.8 2.4-1.7 2.5-5.2 0-4 .1-4.1 1.2-1.8.6 1.4 1.2 2.6 1.2 2.8.1.1 2.8-2.4 5.9-5.5l5.8-5.8-.6-5.3c-.4-3.2-.2-5.2.4-5.2.5 0 1 .4 1 1 0 2.8 2.1.4 3.4-3.8 1.3-4.3 1.5-4.4 1.5-1.6.1 4.1 1.8 4.7 7.8 2.9 2.7-.8 5.8-1.5 7.1-1.5 2.8 0 2.8-.9 0-5.7l-2.1-3.8 3.9 3.7c3.9 3.7 5.7 4.2 14.4 3.9 3.4-.1 3.5-.2 3.4-3.8-.1-3.1-.6-4-3.5-5.5-1.8-1-4.4-1.8-5.6-1.8s-4.7-1.1-7.8-2.4c-3-1.4-6.9-2.7-8.6-3l-3.1-.5 2 2.2c1.1 1.2 2.5 3.3 3.2 4.7 1.2 2.3 1.2 2.4-.3 1.1-1-.7-1.7-1.8-1.7-2.4 0-1.2-5.6-6.7-6.9-6.7-.6 0-1.3.4-1.6 1-.3.5-1.3 1-2.1 1q-1.5 0 1.2-2.4c2.5-2.1 2.9-3.4 4-12.7.7-5.7 1.3-11.5 1.4-12.8 0-2.3-.1-2.4-2-.6-3.1 2.8-3.2 1.3-.2-2.6 1.9-2.3 2.9-4.7 3.1-7.5.1-2.3.6-7.7 1.2-12 2-14.1 2.2-18.4 1-18.4-.9 0-.9-.5-.1-2.1 1.3-2.4 1.3-2.4-2-3.9-2.5-1-2.5-1 .3-.6 3 .4 4.8-1.4 6.2-6.4.4-1.4 1.5-3.6 2.5-5 .9-1.4 2.2-4.5 2.8-7s2-6.3 3.1-8.5c2.2-4.4 2.7-4.3 1 .2-.6 1.5-1.9 5.9-2.9 9.6-1 3.8-2.5 7.6-3.3 8.5-1.4 1.7-3.7 7.6-3.7 9.7 0 .6 2 2.6 4.5 4.3 4.5 3.2 6.5 3.9 6.5 2.4.3-6.4 1.3-18 2-22.7 2.9-18.1 3.7-31.1 1.9-30-.4.3.1-1.7 1.1-4.5 1-2.7 1.6-5 1.4-5s.2-1.5 1-3.4c.7-1.8 1.7-5.3 2.1-7.7 1.3-8.5 4.7-24.4 5.6-26.1 1.3-2.4 1.1-2.8-.8-2.8-1.5 0-1.5-.3.4-1.8s9.3-17 9.3-19.7c0-.5 1.1-3.4 2.5-6.4s2.3-5.6 2.1-5.8c-.2-.3-1.7.3-3.3 1.2-1.5 1-.3-.6 2.7-3.4 3-2.7 6.1-5.1 6.9-5.1 1.1 0 1.1.3.1 1.5-1.1 1.3-1 1.9.6 3.8 9 10.2 17.2 20 19.2 22.9 1.3 1.8 4.2 2.5 4.2 1 0-.4 1.5-2.3 3.3-4.2s6.6-7.3 10.6-12 7.9-9 8.5-9.5c.6-.6 4-4.4 7.6-8.5s6.8-7.7 7.3-7.8c.4-.2.7-.8.7-1.3 0-.6.9-2.2 1.9-3.7 1.1-1.5 2.2-3.7 2.6-4.9.5-2 .4-2.1-3.6-1.2-2.3.5-5 1.4-6 2-1.1.5-1.9.7-1.9.5 0-.3 2.3-1.8 5.2-3.2 4.3-2.2 5.5-2.4 7.1-1.4 1.7 1 1.9 1 1.4-.4-.6-1.5.8-2.1 3.5-1.7.4 0 1.2-.8 1.8-1.9 1.3-2.4 7.4-2.8 8.7-.6m-302.5 46.8c-.6.7-6.1 5.3-12.1 10.3-6.1 4.9-11 9.4-11.1 9.9 0 1 1.7.8 25.5-2.8 24.6-3.6 35.5-5 36-4.4.3.3-3.6 1.1-8.7 1.7-12.7 1.7-46.7 6.9-49.8 7.7-2.4.6-2.4.6 1.2 2.5 6.2 3.2 20.9 8.9 22.9 8.9 1.1 0 1.9.3 1.9.8 0 .7 7.2 4.2 8.6 4.2.3 0 .4-.6.1-1.4-.4-1.1.6-1.6 3.6-2.1 5.3-.9 6.5-1.6 15.7-8.4 4.1-3.1 10.5-7.6 14.2-10.1s6.8-4.8 6.8-5.1-2.6-.2-5.7.3-6.6.7-7.7.6c-1.2-.2 1.6-1 6.2-1.7 4.5-.7 8.2-1.6 8.2-2 0-.3-2.7-2.6-6-5s-6-4.5-6-4.8c0-.5 5 2.9 10.2 7 2.4 1.9 4.4 2.8 5.8 2.4 1.3-.3 2 0 2 .9 0 .8 2.1 2.4 4.6 3.5 2.6 1.1 4.5 2.2 4.2 2.4-.3.3-2.5-.4-4.9-1.5-7.2-3.2-5.2-4.2-27.9 12.4-10.2 7.4-11.9 9.1-10.5 9.9 1.2.6 2 .5 2.7-.4.8-1.1.9-1.1.5.2-1.2 3.7 0 3.8 38.3 4 47.5.1 59.5 1.1 29 2.4-19 .7-21 1-17 2 2.8.7 4.6 1.7 4.8 2.8.2.9.8 1.7 1.3 1.7s.9 1.1.9 2.5.5 2.5 1 2.5c.6 0 1-.5 1-1 0-.6.5-1 1-1 .6 0 1 .8 1 1.9s1.2 2.4 3.1 3.2l3.2 1.3-2.3 1.8c-1.3 1-2 2.1-1.7 2.4.7.7 25.7-19.4 26.4-21.2.6-1.6 4.3-1.9 4.3-.4 0 .5-.9 1-1.9 1-1.1 0-2.1.3-2.3.7-.4 1-17.9 16.9-24.5 22.3-5.4 4.5-6.3 4.8-6.3 2.1 0-2.1-1.6-3-4.3-2.3-1.8.5-4 6.5-2.5 7 1.3.6.9 2.8-.7 4.2-.8.7-1.3 2.2-1 3.4 1.9 9.4 1.8 9.4-2.1 10.2-2.6.5-3.9.3-4.6-.7s-.8-.8-.5.8c.4 1.8.1 2.3-1.4 2.3-1 0-1.9.4-1.9 1 0 .5-1.1 1-2.5 1-3 0-3.1-1.1-.7-4.8l1.7-2.7-2.9 2.3c-3.2 2.5-4.3 7.4-1.6 6.9.8-.1 1.4.4 1.3 1-.2.7.2 1.3.8 1.3s.8 1.1.4 2.8c-.7 3.3-.8 3.2 17 7.3 5.5 1.2 9.5 2.4 8.8 2.6-.6.2-8.7-1.2-18-3.2-9.2-1.9-18-3.8-19.5-4.1-3.4-.7-3.4 0-.6 4.6 6.6 10.8 7.4 14 1 4.3-2-3.2-4-6.2-4.4-6.7-.3-.5-1.1.6-1.7 2.5l-1.1 3.4.4-3.7c.8-6.5 1.7-6.6-43.4 2.7-9.1 1.9-23.7 4.8-32.4 6.5-11.2 2.1-16.3 3.5-17.3 4.8s-1.2 3.7-.7 10.2c.4 4.6.7 14.3.8 21.6.1 9.4.5 13.6 1.5 14.7.9 1.2 1.1 2.8.6 5.4-1 5.6-1.8 37.8-1 45 .4 3.5 1.1 6.3 1.6 6.3s20.5-6.8 44.5-15.1 43.8-14.8 44-14.6c.3.2-6.2 2.8-14.3 5.7-8.2 2.8-21.8 7.7-30.3 10.7s-19.7 6.8-24.7 8.4c-14 4.5-18.4 6.5-17.7 8.4.4.9.1 1.5-.9 1.5-1.8 0-2.3 1.8-4.2 13.9-2 12.7-2 12.9.9 12.4 1.7-.4 2.7.1 3.6 1.6.9 1.8.8 2.2-1.4 3-1.3.6-2.7 1.5-3.1 2.1-.3.5-1 .8-1.5.5s-1.1-.1-1.5.5c-.9 1.4 1.7 1.2 4-.3 2-1.4 7.8-4.6 22-12.2 6-3.3 7.9-4.8 7.7-6.2s-.1-1.5.7-.4c.7 1.1 1.9.8 6.2-1.7 3-1.8 4.6-3.2 3.7-3.2s-2-.5-2.4-1.1c-.4-.8.5-.9 3.3-.5 4.3.8 6.1-.3 16.4-10 3-2.9 9.2-8.4 13.9-12.4 8.7-7.4 12.8-11 19-16.3 1.9-1.7.6-.2-3 3.4-3.6 3.5-13.7 12.7-22.4 20.4-8.8 7.6-15.4 14.1-14.7 14.3s3.1-.1 5.4-.7c9.7-2.4 38.9-8.2 39.8-7.9.6.2-9 2.5-21.3 5.2-12.2 2.6-23.1 5.2-24.1 5.8-1.8.9-1.8 1-.1 2.9 1.6 1.8 1.6 1.9.1 1.3-.9-.3-1.7-1-1.7-1.5 0-3.3-8.4.4-31.5 13.8-2.2 1.3-7.5 4.2-11.7 6.5-4.3 2.4-7.8 4.6-7.8 4.9 0 .4 1.5.9 3.3 1.2 1.7.3 10.9 2.2 20.2 4.1 9.4 2 22.6 4.8 29.5 6.2s18.3 3.9 25.5 5.5c13.8 3.1 17.5 3.5 17.5 1.9 0-.6.9-1 2.1-1 1.3 0 1.8.4 1.3 1.2-.5.7.5.3 2-1 1.6-1.2 3.4-2.2 4-2.2s-.1.8-1.6 1.8c-3.7 2.2-3.5 3.2.4 3.2 4.6 0 3.1.8-2.2 1.1-2.5.2-4.8.8-5.2 1.3-.4.6-1.3.4-2.5-.6-1-.9-8.3-3-16.3-4.8-23-5-48.7-10-51.5-10-1.5 0-3.5-.5-4.5-1-2.9-1.6-24.4-6-25.2-5.2-.4.4-1.9 4.8-3.4 9.7-1.4 5-3.2 10.8-3.9 13l-1.4 4 .6-4c.3-2.2 1.8-7.9 3.3-12.8 1.5-4.8 2.3-8.7 1.8-8.7s-4.5 2.3-8.9 5.2c-5.7 3.7-7.6 5.4-6.7 6.1.9.6.8.7-.5.3-1.9-.6-9.7 3-18.7 8.8-5.4 3.4-5.5 3.5-3 4.5 2.1.9 1.7 1-3 .9-7.2-.1-33 7.4-33 9.7 0 .4.5.3 1 0 1.2-.8 1.3 1.5.1 3.3-.6 1.1-1.3.7-3-1.6l-2.1-3 2.8-1c1.5-.6 3.4-1.2 4.3-1.5 1.3-.4 6.9-14.5 6.9-17.3 0-1.8-16 17.7-16.4 19.9-.1.7-.5 1.8-.9 2.4-.5.7-.6 1.7-.3 2.2s0 1.1-.8 1.4q-1.35.6-1.8-2.4c-.4-2.2.3-3.7 3.1-6.7 2-2.1 6.1-6.9 9.1-10.6 3-3.8 6.1-7.5 6.8-8.2 1.1-1.2.5-1.3-3.5-.7-2.6.3-6.4 1.2-8.3 1.8-2.9 1-3.5 1.7-3.3 3.9.1 1.5-.2 2.4-.8 2.1-.8-.5-1.5 6.5-1 10.2.1.7-.3 1.3-.8 1.3-.6 0-.9-2.3-.8-5.5.1-3 0-5.5-.3-5.5s-1.6 1.6-3 3.4c-3.1 4.2-3.9 3.8-1.2-.6 2.8-4.6 3.5-8.5 1.8-9.1-1.8-.7-2.6.1-2.7 2.7 0 1.5-.4 1.1-1.4-1.4-1.3-3.4-1.4-3.2-1.4 5.2-.1 5.5.3 8.8.9 8.8.7 0 .7.6 0 1.9-.8 1.6-.5 2.1 2 3 1.7.5 3 1.2 3 1.5s-1.2.1-2.6-.4c-3.5-1.4-3.4-1.4-3.4 2.7 0 2.8.3 3.4 1 2.3 1.1-1.7 1.5-.8 2.4 5.5.4 2.7.2 3.5-.4 2.5-.5-.8-1-2.5-1-3.7 0-1.6-.4-2.1-1.5-1.7-1.2.5-1.5-.3-1.5-4 0-5.3-1.1-5.7-7.4-3.1-3.9 1.7-4.3 2.9-2.2 7.2.8 1.5 3.2 8.2 5.4 14.8 4.3 13 7.2 20.8 10.4 27 5.1 10 8.1 15.1 9.5 16.2.8.7 2.2 2.4 3 4 1.4 2.7 2.5 4.2 12.8 18.1 7.2 9.6 7.4 9.8 10.9 5.9l2.8-3.2-2.6 3.7c-3.1 4.4-2.9 4.7 7.1 11 3.4 2.2 6.3 4.2 6.3 4.5s-1-.1-2.2-.9c-10.3-6.8-13-8.1-13.9-6.7-.7 1.1-.9.9-.9-.6 0-1.2-4.4-7.9-9.8-15.1s-10.2-13.8-10.5-14.7c-.4-1-1.4-1.7-2.2-1.7-.9 0-1.4-.4-1.1-.9.4-.5-.9-3.2-2.6-5.9-1.8-2.8-4.6-7.2-6.2-9.9l-2.9-4.8-1.3 3.5c-1.5 4.1-1.6 3.2-.5-2.9.8-3.8.5-5.4-2.3-12-1.8-4.2-4.1-10.3-5-13.6-2.6-8.9-4.8-14.7-5.3-14.2-.2.3.3 4.2 1.1 8.8s2.5 15.8 3.7 24.9c1.1 9.1 2.3 16.7 2.5 16.9.2.3 1.1-.4 1.9-1.5.8-1 1.5-1.4 1.5-.7 0 .6-.4 1.4-.9 1.7-1.6 1-2.1 6.9-1 13.5.5 3.6 1.4 6.7 1.8 6.9.5.2.7 1.1.4 2.2s1.9 5.8 5.9 12.2c9.3 15.2 9 14.5 7 15.3-1 .3-2.1 0-2.8-.9-.9-1.3-2.1-.9-8.7 3.4-4.3 2.8-7.7 5.5-7.7 6 0 1.4 3 4.4 11 11.1 7 5.8 8.2 7.1 7.4 7.8-.3.3-.8.1-1.2-.4-1.1-1.6-16.8-15.5-17.4-15.5-.4 0-.4 1-.1 2.3.4 1.9.3 2-.7.4-.6-.9-.9-2.1-.5-2.6 1.3-2.2-1.8-2-5.5.2-3 1.8-3.7 2.6-2.8 3.5s.9 1.2.1 1.2c-.7 0-1.5-.5-1.9-1.1-.3-.6-1.8-.8-3.3-.4l-2.6.6 2.5-1.8c1.4-1 2.7-2.9 2.8-4.3.2-1.4.8-3.2 1.3-4 .6-1 .7-.2.3 2.2-.3 2.1-.3 3.8 0 3.8 1.5 0 6.7-3.2 6.4-3.8-3.3-6.6-4.4-8.2-6-8.2-1 0-1.8-.5-1.8-1.1s.6-.9 1.4-.6c.7.3 1.8.1 2.3-.4.7-.7 1.2-.1 1.7 1.8.3 1.5 1.5 3.9 2.6 5.1l2 2.4 8-4.9c4.6-2.8 7.8-5.3 7.5-6.1-.2-.6.2-1.2 1-1.2 2.3 0 1.9-1.2-3.6-10.2-6.5-10.6-6.6-10.6-8.4-8.2-1.3 1.7-1.3 1.5 0-1.8 1.3-3.1 1.3-4.5.2-9.4l-1.3-5.8-1.9 6.5c-1.7 6.2-4.4 17.5-4.5 19.2 0 .4 1.2-.5 2.6-2 2.7-2.9 2.3-1.6-.8 2.9-1 1.4-1.8 3.4-1.8 4.3s-.9 1.9-2 2.2-2 .9-2 1.3c0 .3-1.8.7-4 .8s-4-.3-4-.8c0-.6 1-1 2.3-1 5.6-.1 5.2-1.6-1.8-8.3-3.8-3.6-7.3-6.3-7.9-6-.6.4-.6-.1-.2-1.3 1.2-3.2 3.7-14.6 3.3-15.1-.4-.4-3.1 8.6-4.6 15.7-.6 2.4-1 3-1.5 2-.3-.9 1.1-6.7 3.2-13 6-17.7 6-17.6.5-23.3-6.6-6.9-8.8-8.1-14.1-7.8-7.7.4-8.1 1.6-1.3 3.6 3.3 1.1 6.1 2.2 6.1 2.6 0 .7 4.9 2.3 6.5 2.1.6-.1 1.6.7 2.2 1.7 1.2 1.9 1.1 1.9-2.5.4-2-.8-5.5-2.3-7.7-3.3s-6.2-2.7-9-3.9c-4.8-2-5.1-2.4-6.8-8.2-2.4-8.1-1.6-8.6 1.2-.8 1.7 4.5 2.6 5.9 3.8 5.5.8-.3 3.5-.6 5.9-.6s4.4-.3 4.4-.8c-.1-.8-15.9-10.7-17.2-10.7-.5 0-1.3-.6-1.7-1.4-.5-.7-1.4-1-2-.7-1.3.8-1.3-.1-.1-2.9l.9-2 .1 2 .1 2 1.5-2c2.9-3.7 10.5-20.6 9.8-21.7-.4-.6-.3-.8.3-.5.6.4 1.7-.8 2.4-2.6.7-1.7 2.7-6.2 4.5-9.9 1.7-3.7 2.9-6.9 2.6-7.2s0-.6.6-.6c.9 0 3.2-5.1 3.8-8.5.1-.6 2.4-5.7 5.2-11.5s5.4-12.1 5.9-14c1.5-5.4 1.5-21.7.1-30-.8-4.5-1.1-11.1-.7-16.5.6-9.5 1.4-6.3 1 4.1-.2 5.3.1 6.7 2.6 10.2 1.5 2.3 3.1 4.1 3.4 4.2.3 0 1-1.2 1.6-2.8 1.1-2.7 1.1-2.7 1.2 1.1.1 3.5.3 3.7 3.1 3.5 3.6-.3 3.7-1.5.8-8.6-1.4-3.4-2.7-5.1-3.5-4.8-1.4.6-1.6-.9-.4-3.9.8-1.8 1.1-1.5 2.6 2 1 2.2 2.5 5.5 3.4 7.3 1.5 3.1 1.6 3.2 2.5 1s1-2.2 1.4.6c.3 2.7.5 2.8 4 2.1 2-.4 4.7-.8 6-.9 1.2 0 2.2-.6 2.2-1.2s-2.5-6.1-5.6-12.3l-5.6-11.2-3.2 2.6c-1.7 1.4-4.3 3.4-5.8 4.5l-2.7 2.1-1.2-2.3c-.9-1.8-.9-2.1.1-1.1 1.6 1.5 3.3.8 8-3.4 2.5-2.3 3.7-4 3.3-5.1-.4-.9-.2-1.3.4-.9s1.5-1.7 2.2-5.1c.7-3.1 2.1-8.1 3.2-11.1 1.1-2.9 1.8-5.6 1.5-5.8-.5-.5-5.1 3.9-8.8 8.5l-2.7 3.4 2 4c2.5 4.9 2 6-.6 1.2-2.1-3.8-4.1-4-3.8-.3.2 2.1.2 2.2-.6.4-.5-1.4.1-4 2.2-8.7 1.7-3.8 3.2-6.6 3.4-6.4.3.2-.1 1.4-.7 2.6s-.9 2.4-.7 2.7c.6.6 10-9.4 10.9-11.6.8-2.1.9-20.5 0-19.6-.4.3-1.4 3.2-2.3 6.3-2.1 7-5.4 16-6.2 16.8-.7.8.4-3 2.7-9.6.9-2.4 1.5-4.9 1.2-5.5-.2-.6.7-3.3 1.9-6 1.3-2.7 2.1-5.3 1.8-5.8s-.1-1.2.4-1.6c.6-.3 2.2-5.6 3.7-11.6 3.4-13.9 4-16.1 7-26.5 1.4-4.6 2.3-8.6 2.1-8.8s-2.4 2.9-5 7c-19.9 31.4-26.5 42-26.5 42.4 0 .2 1.5.5 3.3.5l3.2.2-3.4.6c-2.6.4-3.6 1.2-4.1 3.1-.8 2.9-2.1 44.1-1.3 42.2.2-.7 1.4-1.7 2.5-2.3 1.7-.9 1.7-.6-.6 2.7-3 4.4-3.3 5.9-1 5 1.2-.5 1.4-.1.8 1.7-.9 3.1-1.4 3.4-2.5 1.7-.8-1.2-.4-40.6.5-52.3.2-1.5.3-3.6.4-4.8.1-1.1.6-1.8 1.1-1.5 1 .7 2.1-1.6 2.2-4.7.1-2.2.1-2.2.7 0 .6 2 1.4 1.1 5.6-6 2.7-4.5 9.6-15.7 15.3-24.8 6.6-10.6 10.3-17.6 10.4-19.5 0-2.5.2-2.6.8-.9.7 1.8 1 1.6 2.6-1.5 1-1.9 5.4-9.3 9.9-16.3 4.4-7 9.3-14.8 10.7-17.4 1.5-2.5 5.8-7.3 9.7-10.7 15.7-13.7 29.2-25.8 29.2-26.3 0-.3-.7-.3-1.5.1-2.7 1-1.6-.1 2.3-2.4 4.1-2.5 14.3-6.3 15-5.6.2.3-1.5 1-3.7 1.7-2.3.7-3.9 1.5-3.6 1.7.3.3 7.1 2.4 15.3 4.8 11.6 3.3 15 4 16.3 3 3-2 22.4-17.9 24.2-19.8 2-2 3.5-2.5 1.9-.6m-74.7 21c-2.7 1.7-10.2 6-16.5 9.6-6.3 3.5-17.3 9.8-24.4 14-11.7 7-12.6 7.7-10 8.3 2.9.5 2.8.5-.8 1.2-3.8.8-3.8.8-3.9 6l-.2 5.2-.7-4-.6-4-1.3 3c-.7 1.6-2.9 7.9-4.8 14-1.9 6-4.1 12.6-4.8 14.5s-3 8.7-5 15c-5.8 17.9-10.7 32.1-11.2 31.7-.2-.3 3.2-11.4 7.7-24.7 4.4-13.4 7.8-24.6 7.5-24.8-.3-.3-1 .9-1.6 2.7s-1.3 3-1.6 2.7c-.2-.2.4-2.4 1.5-4.8 4.5-9.8 11.4-28 10.9-28.5-.7-.7 6.3-8.3 7.7-8.3.6-.1 4.7-2.3 9.1-5s10.9-6.6 14.5-8.6c3.6-2.1 12.1-7 19-11 12.7-7.3 18.6-9.9 9.5-4.2m64.6 125.5c2.4 1.7 9.9 7.2 16.6 12.2s12.5 9.1 12.8 9.1 3.2 2.1 6.4 4.7c9.1 7.5 25 18.8 26.4 18.8 1.6 0 3 2.2 2.2 3.5-1 1.7-4.3 1.1-4.1-.7.1-2-5.7-6.6-34.4-27-3.6-2.6-13.5-9.9-22.1-16.2-8.6-6.4-20.4-15.1-26.2-19.4-5.9-4.3-10.7-8.2-10.7-8.7s6.4 3.9 14.3 9.8 16.4 12.1 18.8 13.9M917 315.5c0 .2-5.4 5.9-12 12.6-6.6 6.8-12 12.9-12 13.6s-.4 1.3-.9 1.3c-1.4 0-6.1 4.5-6.1 5.8 0 1.2-3.1 2.5-3.9 1.6-.3-.4 0-.9.7-1.1.6-.3 1.2-1.3 1.2-2.4 0-1 .5-1.9 1-1.9.6 0 .5-.8-.2-1.9-.9-1.5-.9-2.8-.1-5.5.8-2.6.8-3.6-.1-3.9-.7-.3-.5-1.1.7-2.4.9-1.1 1.7-2.4 1.7-2.9 0-1.2 6-7.1 8.8-8.8 7-4 9-4.9 13.1-5.5 3.9-.6 8.1.1 8.1 1.4m.7 60.5c-1 4.5-1.1 7.4-.4 9.3.5 1.5.7 3.1.3 3.4-.3.4-.7-.2-.7-1.3-.1-1.1-.4-.7-.8 1.1-.8 3.5-.3 5.4 1 3.4.7-1.1.9-1.1.9-.1 0 .7-1.3 2.5-2.9 4-3 2.8-4.9 5.9-6.2 10.1-.7 2.4-.7 2.5-.8.3-.1-2.7-.2-2.7-4.3-.2-1.8 1.1-3.7 2-4.3 2-1.5-.1 4.8-5 6.3-5 .8 0 1.2-.5 1-1.2-.3-.8-2.4-1.1-6-.9-5.2.2-8.1-1-5.8-2.4.5-.3 1-2.1 1-3.9 0-1.7.5-3.7 1-4.2.7-.7.7-1.9.1-3.6-.8-2.3-.7-2.5 1.4-2.1 2.2.5 6.5-2.2 6.5-4 0-.5 1-2.1 2.2-3.5 1.5-1.9 1.9-2.1 1.3-.7-.9 2.3-1.8 10.7-.9 8.7.8-1.8 5.4-1.5 5.4.3 0 .8.4 1.5.8 1.5 1.2 0 4.1-18.3 3-19.7-.6-.7-.4-1.9.4-3.3 1.2-1.9 1.3-1.8 1.6 1.7.1 2.1-.4 6.7-1.1 10.3m-32.6 22.2c.2 1.9.2 2-.5 5.4-.7 3-.6 3.1 4.2 4.2 2.7.6 6 .8 7.3.5l2.4-.6-2.2 2.5c-1.3 1.3-2.3 3.2-2.3 4.1s-.5 1.7-1.1 1.7c-.7 0-.9 1.1-.6 2.7.3 1.5.1 3.6-.5 4.6-.5 1-.8 2-.6 2.2.6.6 11.8-10.1 11.8-11.2 0-.6.7-1.6 1.5-2.3 1.9-1.6 1.9-.7.1 2.8-2.3 4.4-9.7 10.9-16 14.2-3.3 1.6-6.1 2.8-6.3 2.7-.2-.2.8-1 2.2-1.7s2.5-1.6 2.5-2c0-1-11.5-7-13.3-7-2.8 0-2.8-1.8-.3-6.8 1.4-2.7 2.2-5.2 1.9-5.6-.3-.3.6-1 1.9-1.5 1.8-.7 2.9-2.2 3.9-5.5 1.2-4.2 3.7-6.3 4-3.4m-352.5 48.4c1.1-.4 1.2-.2.4 1.3-1.4 2.8-.9 3.1 22 12.3 4.1 1.7 8.1 3.5 8.8 4 2.2 1.9 2.6-.1.9-4-1.8-3.8-.9-3 2.7 2.3 1.8 2.7 2.7 1.6 3.6-4.7l.8-5.3.2 6c.1 3.3.2 6.6.1 7.3-.1.8 1.5 4.1 3.7 7.5s4.9 7.9 6.1 9.9c1.3 2.1 2.6 3.8 2.9 3.8 1.5 0 3-1.6 3.5-3.5.4-1.9.5-1.8.6.2 0 1.2-.3 2.5-.9 2.8-1.4.9-1.2 7.5.5 18 1.6 9.9 2 20.4.5 17-.4-1.1-1.4-7.2-2-13.5-.7-6.3-1.5-11.9-1.8-12.4s-1.2 0-2 1c-1.4 1.8-1.4 1.8-.7-.1 1.6-4.5 1.5-5.4-1.4-10.4-1.7-2.8-3.1-5.5-3.1-5.9s-2-3.2-4.4-6.3c-3.4-4.4-5.9-6.3-11.3-8.9-6.9-3.2-27.9-12-28.9-12-.4 0 .8 2.5 4.7 8.9 1.1 1.8 1.8 3.5 1.6 3.7s-1.2-1.2-2.3-3.1c-1-1.9-2.4-3.5-3-3.5s-1.4-.9-1.7-2.1-1-1.8-1.5-1.5c-.9.5-1.4-1.8-2.7-11.4l-.5-3.5 1.5 3.3c1.1 2.3 2.1 3.2 3.1 2.8M551 485c0 1.4 13.7 15.1 18.9 18.8 2.4 1.8 5.3 3.2 6.3 3.2 1.2 0 2.4 1.3 3.4 3.7.9 2 3.1 5.6 4.9 8 1.9 2.4 3.5 4.9 3.7 5.5.3.7 1.1.6 2.5-.2 2.1-1.3 5.9-12.9 9.9-29.8 1-3.9 1.9-7 2.2-6.7.4.4-.3 3.9-4.4 21.4-.8 3.6-2.3 8.3-3.3 10.5-3.1 7-3.6 9-1.8 8.3 1.4-.5 1.4-.2.5 1.8-1.2 2.7-3.8 3.4-3.8 1.1 0-.8-2.6-5-5.8-9.3s-6.3-9-7-10.6c-.6-1.5-1.8-2.7-2.5-2.7-1.6 0-14.7-9.8-14.7-11 0-.4-1.2-1.3-2.7-1.9-2.7-1.1-9.1-11.1-7.2-11.1.5 0 .9.4.9 1m253.4 27.3c.6 2.6-.6 4.1-15.1 19-17.1 17.5-29.7 28.1-43.8 37-4.9 3.1-10.5 7-12.4 8.7-1.8 1.6-4.4 3-5.8 3-1.3 0-4 1.1-6.1 2.4-3.6 2.4-8.2 4.2-8.2 3.3 0-.3 2.5-1.7 5.5-3.2 3-1.4 5.5-3 5.5-3.5s1.6-1.4 3.6-2c4.1-1.4 23.3-13.3 25-15.5.6-.8 1.7-1.5 2.3-1.5 1.9 0 13.3-9.9 27.8-24.1 17.2-17 20.3-20.7 20.3-24.3 0-3.4.5-3.2 1.4.7m-231.6 15.4-.3 4.8 7.5.6c5.5.4 6.3.6 3 .8l-4.5.2 7 2.5c8.1 3 22 5.9 32 6.8 6.4.6 6.8.5 4.5-.7-1.4-.8-4.2-1.7-6.4-2.1-2.1-.4-3.6-1-3.3-1.3.3-.2 4.3.5 8.8 1.6 4.6 1.2 9.3 2.1 10.6 2.1 1.4 0 2.2.4 1.9.8-.7 1.2 26.1.6 37.4-.9 7-.9 11.8-1.4 22.3-2.5 7.4-.8 7.8-1.4 1.4-2.5-2.6-.5-.5-.6 5.5-.3 10.9.6 12.4-.2 8.6-4.4-1.3-1.5-3-3.6-3.7-4.7-.8-1.1.5 0 2.8 2.5l4.2 4.5 2-2.5c1.5-1.8 1.8-2 1-.5-.5 1.2-.9 2.7-.9 3.5.1.8 0 2.8-.1 4.5-.1 2.5-.3 2.7-1.2 1.2-.5-.9-1.4-1.7-1.9-1.7-.9 0-25.9 15.5-27.5 17.1-.6.7-.6 1.2 0 1.7.6.4 1.7 1.6 2.5 2.7 1.2 1.7 1 1.6-1.1-.3-2.9-2.5-6.5-2.4-14.8.2-2.5.9-8.9 2.2-14.1 3.1s-11.3 2.1-13.4 2.6c-10.7 2.9-13.7 2.8-24.1-.3-5.5-1.6-12-3.4-14.5-4s-6.9-2.4-9.8-4c-4.3-2.5-5.5-2.8-6.7-1.8-1.3 1-1.5.8-1.5-1.2 0-2.4-5.4-9.3-13.6-17.7-1.8-1.9-3.6-4.2-3.9-5.1s-1.5-2.2-2.8-2.8c-2-1-1.9-1.1 1.2-.9s3.6-.1 4.4-3.1q2.1-6.75 1.5 1.5m6.4 51.6c10.1 9.6 21.4 17.8 23.4 17 .8-.3 1.4.1 1.4.9 0 2.2 6.1 3.6 19.3 4.3l11.7.7.1-2.8.2-2.9.4 2.8.4 2.8 16.7-.5c21.5-.7 24.2-.8 23.6-1.7-.2-.4 1.1-.9 2.9-1.2 3-.4 16.1-5.6 27-10.6 2.7-1.2 5.1-2 5.4-1.7s-.3.9-1.3 1.2c-1 .4-7.7 3.3-14.9 6.4-7.1 3.1-15.1 6.5-17.7 7.5-3.3 1.2-4.8 2.3-4.8 3.5s-.6 1.7-1.7 1.4c-1-.2-2.9.5-4.3 1.6-1.4 1.2-7.7 5.4-14 9.5-13.7 8.9-17.2 11.4-16.6 12.4.3.4-.6.7-1.9.7s-2.2-.4-1.9-.8-2.1-3.1-5.2-6-9.2-8.8-13.6-13c-4.4-4.3-8.3-7.6-8.7-7.4-.3.2-1.7-1.1-3.1-3-1.4-1.8-3.2-3.6-4-3.9-.9-.3-3-1.8-4.8-3.5-1.8-1.6-5.8-5-9-7.6-3.1-2.5-6.1-5.2-6.5-6-1-1.7-.3-1.8 1.5-.1m-86.8 79.4c-.4 1.6-1.1 3.6-1.6 4.6-1.3 2.6-4.7 13.1-4.4 13.5.2.1 5.5-.3 11.9-.9 10.2-1.1 11.7-1.5 12.7-3.5 1.2-2.1 1.3-2.1 4.1-.5 2.1 1.1 2.9 2.4 2.9 4.3 0 2.8-1.4 4.5-2.4 2.9-.3-.5-1.6-.7-2.9-.4-2.2.4-2.2.4-.2-1.2 2-1.7 2-1.7-.5-1.2-1.4.3-5 .9-8 1.2-8.1 1-9.2 1.8-3.5 2.6 3.2.5 1.5.6-4.7.3l-9.8-.4.6 3.2.5 3.3-1.6-2.8c-1.7-3-2.5-3.3-4.5-1.5-.7.7-.6.2.3-1.2 1-1.3 1.7-3.6 1.7-5.1 0-1.4.8-3.3 1.8-4.3 1.1-.9 2.5-3.5 3.2-5.9 2.1-7.2 3.2-9.7 4.1-9.7.5 0 .6 1.2.3 2.7m711.8 16.8c1.1 1.4 2.3 2.3 2.7 2 .5-.2 1.3.7 2 2.1 1.6 3.5 1.3 5.4-.4 2.4-.8-1.4-1.4-2.1-1.5-1.6 0 1.7 2.4 9.1 3.3 10.1.7.7.8.6.3-.3-.4-.7-.1-1.5.7-1.8.7-.2 2.4-3.8 3.7-7.9 1.8-5.7 2.8-7.5 4.2-7.5 1.6 0 1.4.9-1.6 9.2-1.8 5.1-3.6 10.9-4 12.9-.6 3.1-.9 3.6-3 3.2-1.9-.4-2.9-1.8-4.6-6.6-1.2-3.4-3.3-9-4.6-12.5-2-5.3-2.1-6.2-.7-6.2.8 0 2.4 1.1 3.5 2.5m20.8 5.1-.8 3.6 1.9-2.1c2.3-2.5 4.4-2.6 7.9-.6 1.4.8 3.2 1.7 4 2.1s2.2 1.3 3.1 2c1.3 1.2 1.8 1 3.7-1.5 3-4.1 7.1-4.8 12.7-2s8.2 5.5 8.9 9.4l.6 3-1.1-3c-1.3-3.4-4-6.8-4.7-6-.3.3.2 1.3 1 2.2.9 1 1.8 2.9 2.1 4.3.6 2.3.5 2.2-.5-.3-1.4-3.1-2.8-3.6-2.8-.8 0 2.5-4 7.3-5.6 6.7-.8-.3-1.1 0-.7 1 .9 2.3 5 1.6 7.2-1.2 1.2-1.5 2.1-2.3 2.1-1.8 0 1.6-4.4 5.4-6.2 5.4-1.1 0-2.9-.5-4.1-1.2-2-1-2.1-1-.8.5 2.3 2.9.4 1.9-5.1-2.6-4.5-3.6-5.8-4.2-8.3-3.6-1.6.4-2.5.7-2 .8.6.1-.3 1-2 2.1-2.4 1.6-2.6 2-1.3 2.5 1 .4 3.1-.1 4.7-1.1 1.7-1 3.3-1.5 3.7-1.1.8.8-2.4 4.7-3.9 4.7-.5 0 .1-.9 1.4-2 2.9-2.3 1.8-2.6-1.6-.4-1.6 1-3.4 1.4-5.1 1-1.8-.5-2.4-.3-1.8.5.9 1.5-.7.6-5.4-2.9-2.2-1.7-3.1-3-2.7-4.1.3-.8.3-1.2-.1-.9-.9 1-2.9-1.3-3.7-4-.3-1.3-.3-2.1 0-1.8.6.6 4.3-6.2 4.3-8 0-.7-.6-1.5-1.2-1.7-.7-.3-.3-.6.8-.6 2-.1 2.1.2 1.4 3.5"/><path d="M668 57c-1.3 1.1-2 2.3-1.7 2.6s-.7 1.8-2.2 3.3c-1.5 1.4-5.4 5.9-8.7 9.9-3.2 4.1-7.3 9.1-9 11.2-1.6 2.1-6 7.1-9.6 11.1-3.5 4.1-7.6 8.7-8.9 10.3s-3.1 3.6-4 4.5c-2 2-3.1 4.9-2.1 5.5 1.5.9 56.8-1.5 59.5-2.6 2.9-1.1 2.9-1.2 1.4-7.3-.3-1.1-1.5-6.1-2.7-11-1.1-5-2.5-10.4-3-12-3.3-10.2-6-20.5-6.2-23.8-.1-2-.3-3.7-.4-3.7 0 0-1.1.9-2.4 2M672.6 55.9c-.8 1.2 1.5 11.4 3.9 18.1 1.8 4.9 2.2 6.4 3.5 12.5 1.5 6.6 6.8 23.7 7.8 24.7 1.2 1.2 11.3-3.2 25.2-10.9 3-1.6 10-5.4 15.5-8.3 13.2-7.1 17.9-10.5 16.2-11.7-1.9-1.6-15.4-6.5-37.7-13.8-18.4-6-27.3-9-32.1-11-1-.3-2-.2-2.3.4M736.5 89.4c-6 3.4-15.7 8.9-21.5 12.1s-11.7 6.7-13.2 7.8c-1.6 1-2.8 1.6-2.8 1.2 0-.3-1.1.2-2.5 1.1s-2.3 2-2 2.4c.2.4 9.3 1.1 20.2 1.5s21.1.8 22.8.9c2.9.1 3 0 5.6-9.9 1.4-5.5 2.8-10.7 3.1-11.5.6-1.5 1.9-12 1.5-12-.1 0-5.1 2.9-11.2 6.4M749.5 87.2c-.3 2.4-1.3 6.3-2 8.8-.8 2.5-1.9 7.2-2.4 10.5s-1.2 7.1-1.6 8.5c-.6 2.4 0 2.7 9.2 6.7 5.4 2.4 12.3 5.1 15.3 6.2 7.8 2.7 18.3 7.1 19.7 8.2.7.6 1.3.6 1.7.1.3-.5-1.6-3.8-4.2-7.3-2.6-3.6-6.3-8.7-8.2-11.4-1.8-2.8-5.4-7.5-7.9-10.6s-7.5-9.7-11.1-14.7-6.8-9.2-7.2-9.2c-.3 0-.9 1.9-1.3 4.2M589.9 91.7c-.6 1.6-1.9 4.6-3 6.8-2.7 5.9-8.9 22.1-8.9 23.4 0 1.4-.7 1.4 8.7-.4 4.3-.8 8.5-1.5 9.3-1.4s-3.2 1.1-9 2.3l-10.5 2.1-2.1 8.5c-2.2 8.7-6.4 31.3-5.9 31.8.1.2 1.6-1 3.3-2.5 1.6-1.5 5.1-4.6 7.7-6.8s9.3-9.2 14.9-15.5c5.5-6.3 10.3-11.7 10.6-12s2.3-2.5 4.5-4.8l4-4.3-8 .5c-7 .5-7.3.4-3-.4 2.8-.5 6.3-1.1 7.8-1.2 4.1-.3 4.3-1.4 1-5.5-1.5-1.9-4.4-5.7-6.3-8.3-3.6-5-12.7-15-13.6-15-.2 0-.9 1.2-1.5 2.7"/><path d="M606.3 129.8c-3.2 3.1-8 8.5-10.8 12-5.9 7.3-24.6 24.2-26.9 24.2-.9 0-1.6.7-1.6 1.4 0 1.2 8 14.1 14.4 23.2 4.8 6.8 18.6 27.5 18.6 27.9 0 .2 1.1 1.6 2.4 3l2.5 2.7.5-3.4c.6-3.9.9-7.3 3.1-34.8.8-11.3 2.3-26.6 3.2-34 1.8-15.4 2.4-28 1.2-28-.4 0-3.4 2.6-6.6 5.8M746 126.3c0 .5.7 1.5 1.5 2.3.8.9 1.5 2.8 1.5 4.4 0 2.8 2.2 6 4.1 6 .5 0 .9 1.1.9 2.3 0 1.3.8 3.4 1.9 4.5 1.9 2.3 4.1 2.9 4.1 1.2 0-.6 1.3-1 2.9-1 1.7 0 3.3-.5 3.6-1 .4-.7 1.4-.3 2.5 1 1.9 2.1 4.5 2.6 5.5 1 .3-.6 1.4-1 2.4-1s4.3-1 7.4-2.3c4.4-1.8 5.4-2.6 4.7-3.7-.7-1-1-1.1-1-.3 0 .7-.5 1.3-1.1 1.3-.5 0-.8-.4-.5-.9.4-.5-.7-1.2-2.4-1.6-1.6-.4-3-1.1-3-1.6 0-1.1-3-2.5-16-7.5-8.9-3.5-19-5.1-19-3.1M787 145.4c-6.4 2.3-16 7-16 7.8 0 .4-.9.8-2.1.8-1.4 0-1.9.5-1.6 1.4.3.8.1 1.7-.6 2-.7.2.5.3 2.6.1 2-.2 3.7 0 3.7.5 0 .6.6 1 1.4 1s1.6.5 1.8 1.1c.6 1.8 4.6.1 5.3-2.2.4-1 1.2-1.9 2-1.9.7 0 2-1.7 2.9-3.8.9-2 2.3-4.7 3.2-6 .9-1.2 1.5-2.2 1.3-2.2-.2.1-2 .7-3.9 1.4M792.2 147.2c-.5.7-2.1 3.5-3.5 6.3-1.4 2.7-3.4 5.9-4.6 6.9-1.2 1.1-2.1 2.6-2.1 3.3 0 1.5-2.2 4.7-7.7 11.2-1.8 2.1-3.3 4.6-3.3 5.4 0 .9-.6 2-1.4 2.4-.7.4-1.6 1.7-2 2.9-.5 1.7.4 3 4.5 6.5 2.9 2.4 7.3 5.8 9.8 7.5s5.5 4.1 6.5 5.3c3.1 3.5 4.3 2.6 5.1-3.7.5-4.5.4-55.2-.1-55.2-.1 0-.6.6-1.2 1.2M747.8 163.1c-3.4.9-7 3.4-6.2 4.2.4.4.2 1.3-.5 2.1-.9 1.1-.4 1.8 2.6 3.7 2.1 1.3 4.2 2.5 4.7 2.8.4.2 4.1 2.5 8.2 5.2 4 2.7 7.9 4.6 8.6 4.4 1.3-.5 4.9-8.1 4.7-10 0-.6-.4-.1-.9 1-.8 1.9-.9 1.9-.9-.3-.1-2-.6-2.2-5-2.2h-4.9l-.7-5.1c-.8-5.5-2.9-7.4-5.1-4.5-1.2 1.7-1.3 1.6-1.6-.2-.2-1.5-.8-1.7-3-1.1M566 177.3c0 2.6-1.1 12.3-2.4 21.5-1.4 9.2-2.6 20-2.8 24l-.4 7.3 11.1-.6c6-.3 15.4-.7 20.8-.9s10.1-.6 10.4-1c.3-.3-3-5.8-7.3-12.2-4.4-6.4-10.7-16-14.1-21.3-9.5-14.6-10.3-15.8-12.9-18.8l-2.4-2.8zM738.2 177.4c.5 2.3 2.1 7.9 3.4 12.6 1.4 4.7 3.3 11.2 4.1 14.5 2.4 9.5 3.9 11.3 5.9 7.2 5.7-11.3 9-17.6 10.7-20 1-1.6 1.8-2.9 1.6-3.1-2.1-1.6-10.3-6.8-13.4-8.5-2.2-1.2-4.7-2.5-5.5-3-.8-.6-2.9-1.6-4.6-2.4l-3.1-1.4zM758.7 204c-4 7.7-6.2 13-5.5 13s7.4-1.2 14.8-2.6c7.4-1.3 15.3-2.7 17.5-3s4.3-.9 4.7-1.2c1.1-1.1-21.4-19.2-23.8-19.2-.5 0-4 5.9-7.7 13M733.2 201.1c-.7 1-1.2 2.4-1.2 3.1 0 .9.3.8 1-.2.7-1.1 1 .2 1 4.2 0 3.5-.4 5.8-1.1 5.8-.6 0-.9 1.8-.6 4.7.5 5.2 1.6 5.7 5.3 2.2 1.1-1 3.2-1.9 4.6-1.9 2.3 0 2.5-.3 2.3-3.8-.4-6.4-.4-6.4-2.5-5.7-1.5.5-2 .2-2-1.2 0-1-.9-2.6-2-3.6-1.1-.9-2-2.3-2-3.1 0-2.4-1.5-2.6-2.8-.5M787 213.1c-1.9.4-9.9 2-17.8 3.5-7.8 1.5-14.5 3-14.7 3.4-.8 1.4 23.7 20 26.2 20 1.2 0 5.2-9.7 6-14.4.3-2 1-3.9 1.4-4.2.5-.3.9-1.3.9-2.3 0-.9.9-2.7 2-3.8 2.3-2.6 1-3.3-4-2.2M546 229.3c0 3-.7 10-1.5 15.7-.9 5.6-1.3 10.5-.9 10.9.4.3.9 0 1.1-.7.3-.7 2-3.3 3.9-5.7 4.3-5.7 9.7-16.3 9-18-.6-1.5-9-7.5-10.5-7.5-.7 0-1.1 2.2-1.1 5.3M623.3 229.7c-16.9.4-16.5.2-13.8 7 1.8 4.7 8.9 27.8 12.1 39.8 1.4 4.9 3.4 12.1 4.5 16 2.8 9.6 3.3 12.5 2.2 12.5-.5 0-2-4.6-3.5-10.3-3.3-13.4-7.9-29-13.6-46.2l-4.6-14-2.1 14.5c-1.1 8-2.2 13.1-2.4 11.5-.3-2.6.9-15.7 2.6-26.9l.5-3.8-17.8.6c-9.9.4-19.6.9-21.6 1.2-4 .6-4.9 2.3-2.3 4.4.8.7 1.5 1.8 1.5 2.5 0 .6 2.5 4.9 5.5 9.4s5.5 8.4 5.5 8.7.5 1 1 1.7c.6.7 4.5 6.4 8.6 12.7 8.3 12.6 10 14.7 11 13.7.4-.4 1.3-3.9 2.1-7.9s1.6-8 1.8-8.8.4-2.1.4-2.9c.1-.8.4-1.2.7-.8.3.3-.2 5.2-1.2 10.9-1.9 11.1-2 14.1-.6 14.6 1.4.4 20.4 13 22.2 14.7.9.8 3.2 1.6 5.1 1.9 3.4.4 3.8.1 6.8-4.8 1.7-2.9 4.5-9.2 6.2-14s5.2-13.1 7.8-18.4c8-16.2 16.6-38.3 15.2-39.1-1.3-.8-14.5-.9-39.8-.4M689 230l-19.5.5-.2 2.5c-.1 2.5 1.3 18.3 2.1 22.5.2 1.2.7 7.3 1.1 13.6s1.1 12.1 1.6 12.9c.5.9.9 1 .9.3 0-.6 1-1.5 2.2-1.9s4.5-3.2 7.3-6.3c2.7-3 8.2-8.9 12-13.1 14.5-15.4 16.6-18 15.9-19.3-.4-.6-.3-.9.1-.4.5.4 2.1-.5 3.7-2 2.1-2 2.6-3.2 2.2-5.2-.8-3.5-3.2-5.1-6.8-4.9-1.7.1-11.9.5-22.6.8"/><path d="M664.5 236.2c-.4 1.3-2.5 6-4.6 10.5-2.2 4.5-3.9 8.6-3.9 9.1s-2.7 6.8-6.1 13.8c-3.4 7.1-7.9 17.4-10.1 22.9-2.3 5.5-4.7 11-5.6 12.2-1 1.7-1.1 2.3-.2 2.3s.9.4.3 1.2c-1.3 1.6-1.4 4.7-.3 7.3.8 1.9 7.2 17.9 10.5 25.9l1.5 3.9 5.1-5.4c4-4.2 4.4-4.5 2.1-1.4-3.7 5.1-5.2 7.9-5.2 10.1 0 3.5 18.5-.4 23.1-4.8.8-.7 3.5-2.9 6.2-4.8 2.6-1.8 4.7-3.8 4.7-4.4s.6-2.3 1.4-3.7l1.4-2.7-5.2-.6c-2.8-.3-7.9-.6-11.3-.6s-6.3-.4-6.5-.8c-.1-.4-5.8-3.5-12.6-6.7-6.7-3.3-11.8-6.1-11.3-6.3.6-.2 3.9 1.2 7.3 3.2 7.7 4.3 17.4 8 18.8 7.1.5-.3 1-2.3 1.1-4.3 0-2 .4-4.6.9-5.7.6-1.3.7.1.3 3.8l-.6 5.7 6.9-3.5c3.8-2 8.9-4.9 11.4-6.4 2.5-1.6 7.4-4.6 10.8-6.7l6.4-3.8-3.4-1.5c-1.8-.8-7.7-3.6-13.1-6.3-5.4-2.6-10.5-4.4-11.3-4.1s-1.4.2-1.3-.3c.2-.5 0-2.7-.4-4.9-.8-5.1-1.4-10.9-2.7-26.6-1.1-12.7-2.6-23.8-3.4-24.6-.2-.3-.7.6-1.1 1.9M554.5 243.2c-2.2 3.5-4.2 6.7-4.4 7.3-.2.5-.7 1.2-1.1 1.5s-1.5 2.1-2.5 4c-1.7 3.3-1.7 3.5 0 4.5 1 .5 2.9 2 4.4 3.1 1.4 1.2 5.2 3.6 8.4 5.4l5.7 3.2v-2.6c0-1.4-.9-7.2-2-12.9-1-5.6-2.2-12.3-2.5-15-.4-2.6-.9-4.7-1.3-4.7s-2.5 2.8-4.7 6.2M561.4 239c.4 1.4 1.5 6.1 2.4 10.5 1.4 6.6 2 7.9 3.5 7.7 1.9-.3 2.3 1.3.6 2.3-.9.6-.9 2.8.5 12 .1 1.1 11.1 8.5 12.7 8.5.5 0 3.2 1.1 5.9 2.5 2.8 1.4 5 2.3 5 2 0-1.5-13.9-20.6-17.3-23.8-2.2-2.1-3.3-3.5-2.4-3.1 1 .3 1.7.4 1.7.1s-3-5.2-6.6-10.9c-3.7-5.6-6.3-9.2-6-7.8M543.7 264.9c.2 1.4 0 7.1-.5 12.6-.6 5.5-.9 10.1-.7 10.3.1.1 1.3-.7 2.7-1.8 1.4-1 2.8-1.6 3.2-1.3.3.3.6.1.6-.5 0-.7.9-1.2 1.9-1.2 1.1 0 2.6-.9 3.3-1.9s3-2.6 5.1-3.4c4.2-1.8 4.7-3.4 1.5-4.6-1.3-.5-5-2.9-8.3-5.3-7.9-5.9-9.2-6.3-8.8-2.9M750.8 269.7c5.1 8.5 10.4 16.5 15 22.6l4.5 6 11.3-.5c8.7-.4 12-1 14.1-2.3l2.8-1.9-2.5-.6c-1.4-.4-8.6-4.8-16-9.7-14-9.3-26.3-16.6-30-17.8-1.9-.6-1.8-.3.8 4.2M743.5 270.6c-1.6 1.2-1.8 1.8-.7 3.4.7 1.2.8 2 .2 2-.5 0-1 .9-1 2s.7 2 1.5 2c.9 0 1.5 1 1.5 2.6 0 1.8-.4 2.5-1.4 2.1-1.5-.6-2.8 3.4-1.7 5.1.9 1.3 17.8 5.5 19.5 4.9 1.4-.5 1.1-1.3-1.2-4.9-1.6-2.4-5.3-8-8.3-12.5-3-4.6-5.6-8.3-5.9-8.3-.3.1-1.4.7-2.5 1.6M569.3 288.2c.3 6.6.7 12.1.9 12.4.6.5 23.8-10.9 23.8-11.6 0-.3-5.7-3.3-12.6-6.7l-12.7-6.1zM560.5 281.3c-2.2 1.1-4.4 2.6-4.8 3.4-.4.7-1.5 1.3-2.2 1.3-.8 0-1.5.7-1.5 1.5 0 1.5-1.1 1.9-3.9 1.5-.9-.1-1.2.4-.8 1.4.4.9.2 1.6-.3 1.6-.6 0-1-.5-1-1.1 0-.5-.4-.7-1-.4-.5.3-1 1.1-1 1.6 0 .6.4.8.8.5.5-.3 2.9.6 5.4 1.9 2.6 1.4 6.6 2.9 9 3.4 2.5.6 5.2 1.3 6.2 1.7 1.6.6 1.7-.1 1.5-7.5-.2-9-.8-13.2-1.8-13-.3.1-2.4 1.1-4.6 2.2M583.1 296.9l-11.3 5.7 5.8 3.7c15.2 9.3 22.5 13.6 24.4 14.2 1.8.6 2 .3 1.5-1.7-1.7-7.2-3.5-17.1-3.2-17.4.3-.4 3.8 10.6 5.7 18.3 1.2 4.6 3 5.4 6.4 2.8 1.1-.8 2.5-1.5 3-1.5.6 0-.4.9-2.1 2-1.8 1.1-3.3 2.6-3.3 3.4 0 1.4 6.8 16.6 7.4 16.6.2 0 1.7-3 3.2-6.8 1.6-3.7 3.5-7.4 4.3-8.2 1.7-1.7 1.6-1.6-1.7 8-1.1 3-2.3 7-2.7 8.8l-.7 3.3 4.9-.3 4.8-.3v-15c.1-8.3.5-15.8.9-16.9.8-1.6.6-1.7-1.5-1.1-1.3.4-3.2 1.4-4.1 2.3-1 .8-1.8 1.1-1.8.6s1.4-1.8 3.1-2.8c3.8-2.2 3.7-5.9-.1-6.4-1.4-.2-4.3-1.8-6.5-3.6-6-4.7-18.4-12.6-20-12.6-.4 0-.4 1.9-.1 4.2l.6 4.3-1.7-4.4c-1-2.4-2.2-4.6-2.8-4.7-.5-.2-6.1 2.3-12.4 5.5"/><path d="M697.8 306.3c-1.6.6-2.8 1.4-2.8 1.9 0 .4-.5.8-1.1.8s-3.3 1.6-5.9 3.5-5.1 3.5-5.4 3.5c-.4 0-1.9.8-3.3 1.7-1.5 1-5.4 3-8.6 4.4l-6 2.7 4.3.7c3.4.6 8.8.3 18-.9.3-.1 2.4-1.5 4.5-3.2 2.2-1.7 5-3.6 6.1-4.2 1.4-.7 2.4-2.5 2.8-4.9.4-2.1.9-4.6 1.2-5.6.6-1.9.1-2-3.8-.4M631.9 320.5c-.3.2-.1 4.4.3 9.2s.9 10.9 1 13.5l.3 4.8h5.3c4.6 0 5.3-.2 4.8-1.8-.3-.9-.8-3.1-1.2-4.7-.4-1.7-1.3-4.1-2-5.5s-2.6-5.5-4.3-9.3c-3-6.6-3.3-7.1-4.2-6.2M518 342.8c0 .7-.9 1.2-2 1.2-1.2 0-2 .7-2 1.8 0 3.7 5.9 36.5 6.7 37.2.4.4 4.9 1.5 9.8 2.5 5 .9 10.1 2 11.5 2.3 2.5.5 2.5.5.6-1.7-1.1-1.1-2.4-2.1-2.9-2.1-1.5 0-12.5-11.7-13.2-14-.3-1.1-1.1-2-1.6-2s-.9-.9-.9-2c0-1.2-.7-3.4-1.5-4.9-.8-1.6-1.8-6.3-2.4-10.5-.5-4.3-1.2-8-1.5-8.3-.3-.4-.6-.1-.6.5M661.1 350c-2.9.5-5.8 1.3-6.3 1.8-.6.6-1.6.9-2.2.6-.6-.2-1.6.7-2.2 2-1.2 2.5-.8 5.9 2 19.1 1.9 8.7 2.4 11.7 3.2 17.8.4 2.6 1.1 5 1.5 5.3.5.3.9 2 1 3.7 0 2.8.1 2.9.9 1.1.5-1.2.7-8.4.6-16-.2-7.7 0-16.8.5-20.4.6-5.3.5-6.8-.9-8.3-1.5-1.7-1.4-1.7 2.2-.2 2.1.9 4.1 1.4 4.4 1.1s-.1-.6-.9-.7c-.8 0-.4-.4.8-.9 1.5-.6 2.1-1.5 1.7-2.5-.4-.9 0-1.5 1-1.5s1.3-.6 1-1.5c-.4-.8-1.1-1.4-1.8-1.4-.6.1-3.5.5-6.5.9M798.5 360.1c-2.6 3.9-5.3 7.3-6 7.6-.8.2-1.8 1.7-2.3 3.1-.5 1.5-2.6 5.1-4.5 8-5.2 7.6-5.3 8.6-1.5 11.3 1.8 1.3 5.7 4.2 8.6 6.6 3 2.4 5.8 4.3 6.3 4.3s.9-1.2.8-2.8c-.1-1.5.5-7 1.4-12.2 1.6-9.8 3.4-33 2.5-33-.3 0-2.7 3.2-5.3 7.1M645.2 366.7c-.6 2.1-1.4 5.8-1.8 8.3-.3 2.5-1.5 7.6-2.5 11.5-1 3.8-2.3 11.3-2.9 16.5s-1.5 12.2-2 15.5c-.9 6-1.4 9.5-2.6 21.2-.8 7.2.2 8.1 3.7 3 1.3-1.7 2.8-3.7 3.4-4.2.6-.6 2.3-2.9 3.8-5.2 1.4-2.2 4.1-5.6 5.9-7.5 6.9-6.9 7.2-7.5 6.9-13.6-.2-7.1-8-44-10.1-48-.4-.8-1.1.1-1.8 2.5M607.2 381.5c-1.2 1.4-2.8 2.5-3.5 2.5-.8 0-2.3.8-3.5 1.7-1.1 1-2.8 2.4-3.9 3.1-1 .7-2.3 1.6-2.8 2-.6.4-3 3.2-5.5 6.2s-5.7 6.8-7.3 8.3c-3.2 3.4-2.8 4.7 1.6 4.7 1.7 0 7.3.7 12.4 1.7 5.1.9 9.6 1.4 9.9 1 .3-.3 1-4.1 1.5-8.4 1.4-11.9 1.6-13.4 2.9-19.1.7-2.9 1-5.5.8-5.8-.3-.2-1.4.7-2.6 2.1M521 385.5c0 .3 1.8 3.8 4 7.6 2.3 3.8 5.3 9.5 6.9 12.8 2.3 4.9 3 5.7 4.4 4.9.9-.5 1.7-1.4 1.7-2s.6-1.9 1.3-2.7c2.2-2.5 5.8-12.6 5.2-14.2-.5-1.2-6.3-3-21.2-6.6-1.3-.3-2.3-.2-2.3.2M778.7 391.7c-.3 1-.9 3.1-1.3 4.8-.9 3.7-1 3.9-2.8 9.7-.8 2.7-1.2 4.8-.8 4.8 1.3 0 15.7-4.9 20.3-6.9 3.8-1.6 4.1-2 2.4-2.7-1.1-.4-2.2-1.1-2.5-1.4-.9-1.2-13.4-10-14.1-10-.4 0-1 .8-1.2 1.7M542.6 405.6c-2 4.1-3.6 7.6-3.6 7.7 0 .4 23.5-2.1 27.9-2.8l3.3-.6-2.3-2.5c-1.2-1.3-2.7-2.4-3.2-2.4s-1.6-.8-2.4-1.8c-.8-.9-1.2-1.1-.8-.5.4.8 0 1.3-1 1.3s-1.3-.5-.9-1.2c.5-.7.3-.8-.5-.3-1.4.8-10.1-2.2-10.1-3.6 0-.5-.6-.9-1.4-.9-.7 0-3 3.4-5 7.6M705.8 415.6c-.4.3 1.1 2.2 3.1 4.2 13.9 13.6 19.2 18.3 20 17.7 1-.5 12.1-17.1 12.1-17.9 0-.3-3.5-.7-7.7-1.1-4.3-.4-8.5-1.1-9.3-1.5-2-1-17.5-2.2-18.2-1.4M662.6 423.1c.4.6 1.1 2.8 1.6 4.8 1.9 7.3 3.9 15.7 4.8 19.6.7 3.5 2.1 6.9 6 16 3.7 8.5 5 12 5 13.4 0 .9.6 2.3 1.2 2.9.7.7 2 3.1 2.8 5.3.9 2.2 2 4 2.4 4 1.8 0 18.6-17.3 18.6-19.1 0-1.1-.4-2-.9-2-1.6 0-9.6-8.3-15.8-16.5-3.4-4.4-7.6-9.6-9.5-11.7-1.8-2-5.8-6.6-8.8-10.1-4.8-5.7-9.4-9.8-7.4-6.6M706 474c0 .5-.6 1-1.4 1-.7 0-3.5 2.4-6.2 5.3-12.2 13.3-11.5 11.8-8 19.2 4.8 10.1 4.8 10.1 8.9-2.6 1.9-6.3 3.8-12.3 4-13.4l.5-2v2c.1 2-.8 6.1-4.7 20.5-1.1 4.1-1.9 7.5-1.8 7.6s4.5-1.9 9.7-4.4c5.2-2.6 12.5-6 16.3-7.6 3.7-1.5 6.7-3.1 6.7-3.5 0-.3-4.9-5.7-10.9-11.9-10-10.4-13.1-12.8-13.1-10.2M313.9 115.7c-.3 1.1-.4 2.5-1.3 14.3-.4 5.8-1.4 14.1-2.2 18.5s-1.4 8.9-1.4 10c0 1.4 5.4-3.4 18-16 9.9-9.9 18-18.3 18-18.6 0-.4-1-.9-2.2-1.2-1.3-.2-5.9-1.5-10.3-2.7s-9.3-2.6-11-3c-1.6-.4-4-1-5.2-1.4-1.3-.4-2.4-.4-2.4.1M308 120.2c-4 3.5-19.8 17.9-27.8 25.2-6 5.7-6.1 5.5 4.3 9.3 16.8 6 21.6 7.5 22.1 7.1 1.1-1.2 5.8-39.1 5.2-42.7-.3-1.8-.6-1.7-3.8 1.1M343.7 128.8c-1 1-1.4 2.2-1 2.7.5.4.3.5-.4.1-1.5-.8-20.6 18.2-19.6 19.7.3.5.2.7-.4.4-.5-.3-3.2 1.7-5.9 4.5s-4.1 4.8-3.1 4.4c1-.3 3.1-.6 4.5-.6 1.7 0 2.2-.3 1.5-.8-.8-.5.2-.8 2.3-.8 2.5 0 4.1-.7 5.2-2.1 1.6-2.1 5.4-3 13.7-3.2 2.3-.1 2.7-.4 1.5-1.1-1.5-1-1.5-1 6.9-1.5 3.5-.2 5.1-1.2 5.1-3.1 0-1.7.5-1.8 3-.2 1.5 1 2.2.9 3.7-.3 1-.9 2.6-1.9 3.6-2.2.9-.4 1.7-1.4 1.7-2.3s1.2-2.8 2.7-4.2l2.7-2.5-2.5.8c-2 .7-2.2.6-1.2-.7 1.3-1.5 1.5-1.4-11-6.7-4.4-1.9-5.1-1.9-8.2-.7-2.9 1.3-3.3 1.3-2.8 0 .7-1.9-.1-1.8-2 .4M268.5 159.7c-9 13.4-13.2 19.9-16.8 26.3l-3.6 6.5 27.9-13.9c15.4-7.7 28-14.3 28-14.6 0-.9-11-5-13.3-5-.8 0-4.4-1.3-7.9-3-3.4-1.6-7.1-3-8-3-1 0-3.6 2.9-6.3 6.7M274.8 180.9c-14.2 7-26.1 13.1-26.5 13.4-.9.9 3 5 9.8 10.2l5.6 4.3 10.5-10.7c12.4-12.7 27.2-29 26.7-29.5-.2-.2-12 5.3-26.1 12.3M291.8 182.1c-6.2 6.6-14.6 15.4-18.5 19.6-4 4.1-7.3 7.8-7.3 8.1.1.8 13.6 11.1 15.6 11.9.8.3 1.4 0 1.4-.6s.5-1.1 1.1-1.1c.8 0 .7.5-.1 1.5-.9 1.1-1 1.9-.3 2.6 1.3 1.3 8.6-17.6 17.6-46.4 1.4-4.2 2.3-7.7 2.2-7.7-.2 0-5.5 5.4-11.7 12.1M246.6 199.8c-.7 1.2-.7 20.4 0 27.9.6 6.2.7 6.2 2.3 4 1-1.2 4.3-6.4 7.5-11.6l5.8-9.3-2.9-3c-2.7-2.8-10.6-8.8-11.7-8.8-.3 0-.7.4-1 .8M243.3 207c-.7 1.9-1.7 5.5-2.2 8s-2.1 9.4-3.5 15.5c-3.7 15.6-3.6 15.8 3.2 9.6l4.3-3.8-.3-16.4c-.3-14.5-.4-16-1.5-12.9M260.8 216.1c-1.8 3-5.6 8.8-8.3 12.9l-5 7.6 11.5-3.2c18.7-5.1 22.9-6.5 23.5-7.4.3-.5-3-3.5-7.2-6.6-4.3-3.2-8.6-6.4-9.5-7.2-1.6-1.3-2-.9-5 3.9M306 224.6c-9.6 1.3-18.1 2.3-18.8 2.4-.7 0-1.1.3-.8.8.3.6-.5 32.8-1.7 62-.1 4.4.1 7.1.8 6.9 1.3-.5 11.2-17.7 27.3-47.7 2.6-4.7 5-9 5.4-9.5.8-1.1 8.8-16.6 8.8-17.2 0-.5-2.6-.2-21 2.3M320.1 239c-4 7.4-11.6 21.4-16.8 31-5.3 9.6-9.9 17.9-10.3 18.5-.4.5-2.2 3.9-4 7.4-3.5 6.9-3.6 6.5 2.5 9.8 1.7.8 10.5 5.8 19.6 10.9 9.1 5.2 17.2 9.4 17.9 9.4 1 0 1.2-4.7.7-22.8-.3-12.5-1-24.1-1.5-25.7-.6-2-.6-5 .1-8.5.6-3.5.6-12.4.1-24.5l-.9-19zM270 231.6c-4.7 1.4-11.6 3.4-15.5 4.6l-7 2 9 8.4c5 4.6 9.5 8.2 10 8.1 1-.3 12.1-18.1 14.2-23 1.6-3.4.8-3.4-10.7-.1M280.3 237.2c-2.2 3.5-5.9 9.3-8.1 13l-4.1 6.6 2.3 6.9c5.1 14.4 10.5 26.5 11.6 25.8.7-.5 1.4-12.1 2.5-44.8.2-7.5.3-13.7.1-13.7s-2.2 2.8-4.3 6.2M240.4 254.2c-2.8 7.3-5.5 14-5.8 15-.7 1.5 3 .1 25.6-10 2.1-.9 3.8-2.2 3.7-2.7-.1-1.3-15.4-14.9-17.1-15.3-.8-.1-3.2 4.7-6.4 13M259 260.8c-3 1.6-8.6 4.1-12.5 5.7-3.8 1.6-8.2 3.7-9.8 4.6l-2.7 1.6 3.7 2.4c2.1 1.4 8.3 5.1 13.8 8.3 29 16.8 29.5 17.1 29.5 14.3-.1-1.5-3.4-11.6-5.3-15.9-.8-1.8-3.2-7.9-5.3-13.6-2.1-5.6-4.3-10.2-4.9-10.2-.5.1-3.5 1.3-6.5 2.8M234.2 276.1c.3.8 1.4 3.4 2.3 5.9 1 2.5 2.2 5 2.6 5.6.5.6 1.9 4.3 3.3 8.3s2.7 7.5 3 7.8c.2.3 4 .2 8.3-.3 5.4-.5 7.2-.9 5.8-1.5-1.6-.6-1.2-.8 1.6-.8 1.9-.1 3.9.3 4.5.8.5.5 3.6.6 6.9.3l6-.7-10.5-6.1c-5.8-3.3-15.4-9.1-21.5-12.8-6-3.8-11.4-7.1-11.9-7.4s-.7.1-.4.9M231.5 279.5c-.4 1.7-1.5 5.5-2.5 8.5-.9 3.1-2.1 7-2.4 8.7-.7 3.2-.7 3.2 4.6 4.7 11.2 3 11.1 3 10.3-.1-.3-1.5-1.2-4.2-2-5.8-.7-1.7-2.6-6.6-4.3-11-2.8-7.5-3.1-7.8-3.7-5M227.1 304.2c2.9 5.8 12.1 21.8 12.5 21.8.2 0 .8-1.5 1.3-3.3l.9-3.2.1 3.5.1 3.5h6.5c3.6 0 6.5-.1 6.5-.3 0-.8-5.3-10.4-8.2-14.7-3.1-4.6-3.8-5.1-10.8-7.1-9.9-3-10.4-3-8.9-.2M263 304.7c-9.1.8-16.7 1.6-16.9 1.8-.5.6 5.7 11.1 7.5 12.6.8.7 2.4 3 3.5 5.1s3.5 5.5 5.4 7.6c1.9 2 3.5 4.5 3.5 5.7 0 2.5 3-3.1 9.5-17.8 2.6-5.9 5-10.6 5.2-10.4.2.3-1.2 3.8-3.1 8-4.7 10.4-8.9 22.4-8.2 23.6.7 1 7.5 2.5 16.4 3.6 6.1.8 6 1.3 3.7-11.4-.8-4.7-1.3-8.6-1.1-8.8s1.4 4.1 2.6 9.7c1.4 5.8 2.8 10 3.5 10s2.5-.6 4.1-1.4 4.9-2.4 7.4-3.5c2.5-1.2 8.3-4 12.9-6.5l8.4-4.3-9.4-5.6c-16.8-9.8-32-18-32.5-17.4-.3.3.2 3.7 1.1 7.5 1 3.9 1.5 7.6 1.3 8.4-.3.7-1.3-2-2.2-6-1.6-6.9-4-12.4-5.5-12.1-.3.1-8 .8-17.1 1.6M311.8 338.9l-15.7 7.8 2.9 2.8c2.4 2.3 3.2 2.6 4.4 1.6s1.4-.9.9.8c-.5 1.9.4 2.6 2.9 2.2.5 0 .7.4.5 1-.3 1.6 11.4 10 13.1 9.4.7-.3 1 0 .7.5-.3.6-.2 1 .4 1 .5 0 1.3-3.2 1.7-7 .3-3.9 1-7 1.4-7s1-2.4 1.4-5.3c.4-2.8.9-6.7 1.2-8.5.5-2.6.3-3.1-.9-2.6-.9.3-1.4 1.3-1.1 2.2.5 1.4.3 1.4-.6-.1-1.5-2.3-.5-5.1 1.5-4.3.9.3 1.5 0 1.5-.9 0-.8-.1-1.5-.2-1.4-.2 0-7.4 3.6-16 7.8M271 345.9c2.2 4.3-.1 14.3-5.1 22.1-.9 1.4-1.9 4.1-2.3 6-.6 3.3-.2 3 8.2-6 4.8-5.2 11.1-11.9 13.9-14.9 2.9-3 5.1-5.6 4.9-5.8-.3-.4-17.9-3.2-19.9-3.3-.4 0-.3.9.3 1.9M291.7 354.8c-.9 3.1-2.8 9.7-4.1 14.7-5.6 19.9-6.4 23-6.1 23.3.9 1 39-22 38.9-23.4 0-.8-20.8-16.5-25.5-19.4-1.4-.8-1.9-.1-3.2 4.8M286.4 355.6c-2.1 2.5-8.3 9.1-13.6 14.7l-9.7 10.2 7.1 6.5c3.9 3.6 7.4 6.6 7.7 6.8.6.2 2.9-6.4 3.8-10.8.6-3.5 7.2-27 8.3-29.8.5-1.2.8-2.2.6-2.2-.1 0-2 2.1-4.2 4.6M205.5 373c-1.7 3.2-2 5.4-.6 4.6.5-.4.7.3.4 1.4-.6 2.4-2.3 3.7-2.3 1.9 0-.9-.3-1-1-.3-1 1-9 15.6-13.8 25.4-1.5 3-3 5.6-3.4 5.8-1.4.6-.9 3.9.8 5.3 1.4 1.1 1.4 1.3-.2 2.2-1.1.6-1.9.5-2.4-.2-.4-.8-1.6.2-3.3 2.7-1.5 2.1-2.7 4.2-2.7 4.6s-.9 2.1-2.1 3.7l-2 2.9 2.5-1c4.6-1.7 17.6-10.6 16.9-11.5-.5-.4-.3-.5.4-.1.6.3 3.7-.9 6.7-2.9 3-1.9 5.8-3.5 6.1-3.5.4 0 2.6-1.3 5-3 3.5-2.4 4.2-3.4 3.7-5.2-.5-2.2-.6-2.2-1.8.7-1.2 2.8-1.3 2.7-1.2-3.3 0-4.5.4-6.5 1.4-6.9 1.8-.7 1.9-9.7.1-11.5-.7-.7-1.8-2.2-2.5-3.3-1-1.7-1.1-1.8-1.2-.3 0 1.1-.8 1.8-2 1.8-1.1 0-2-.5-2-1 0-.6.5-1 1-1 .6 0 1-.7 1-1.5s.5-1.5 1.1-1.5c.7 0 .8-.7.4-1.8-.4-.9-.7-2.7-.6-4 .1-3-.5-2.8-2.4.8M226.5 381.2c-1.1.6-2.1 1.2-2.3 1.3-.5.4-4.4 15.2-5.1 19.7-.9 5.4-.7 5.5 5.4 3.4l4-1.4.2-12.1c.1-6.7.1-12.1 0-12.1s-1.1.6-2.2 1.2M260 386.8c-.7 2.6-2.3 7-3.6 9.9-1.2 2.8-2 5.3-1.8 5.6.5.5 14.8-3.6 18.7-5.4l2.8-1.3-3.8-3.9c-2.1-2.1-5.4-5.2-7.4-6.8l-3.6-2.9zM218.1 435.2c-.1 2.6-.5 4.9-1 5.2s-.7 2.7-.5 5.3c.3 4.2.2 4.4-.5 1.3l-.7-3.5-1.5 4.9c-.9 2.7-1.8 4.5-2.2 4-.3-.6.1-3 .9-5.3.8-2.4 1.3-4.5 1.2-4.7-.6-.5-18.8 7.8-18.8 8.6 0 .4 2.6 1.5 5.8 2.3 3.3.9 4.7 1.5 3.2 1.6-1.4.1-4-.3-5.8-.8l-3.3-1 3.2 4c1.7 2.2 4 4.4 5 5 2.3 1.2 2.5 6.4.5 15.7-.8 3.5-1 6-.6 5.5 1.9-2 9.8-23.5 9.3-25.4-.4-1.3-.1-1.9.7-1.7.7.2 1.6-.7 1.9-2s.4 8.5.3 21.7c-.2 14 0 24.1.5 24.1s2.6-6.9 4.8-15.2l3.8-15.3-1.3-11c-.6-6-2-14.8-3-19.5-1.7-7.8-1.9-8.1-1.9-3.8"/><path d="M174.4 438.8c.9 1.5 15.7 11.2 17 11.2 1.8 0 18-7 19.4-8.4 1.1-1.1-.7-1.4-10-2-6.2-.3-14.9-.9-19.2-1.3-5.4-.4-7.7-.3-7.2.5M212.6 463.5c-.5 1.1-2.9 6.9-5.3 13-2.4 6-4.9 12.2-5.6 13.8-1.1 2.6-.9 3 5.2 8.8 3.4 3.3 6.5 5.9 6.7 5.6.2-.2.3-10 .2-21.8-.2-13.6-.6-20.7-1.2-19.4M573.6 535.7c-.6.6 13.4 16.8 14.6 16.8s11.8-7.8 11.8-8.6c0-.7-6-3-16-6-8.4-2.6-9.7-2.9-10.4-2.2M606 548c2.1.7 2.2.8.5.9-1.5.1-2.6 1.4-3.9 4.5-1 2.5-1.8 4.9-1.6 5.3.2.7 23.2 9.1 25.3 9.3 1.3 0 .7-8.8-.8-10.3-.8-.8-1.1-1.8-.7-2.2s.3-.5-.3-.4c-1.6.4-8.5-3.4-8.5-4.7 0-.6-2-1.7-4.4-2.3-5.2-1.3-9.6-1.4-5.6-.1M615.1 609.4c4.2 4.1 8.4 7.4 9.3 7.2 1.8-.2 5.6-4 5.6-5.5 0-.5.4-1.1.9-1.3s1.1-1.4 1.3-2.8c.3-2.8-.8-3.1-16.7-4.4l-8-.7z"/></svg>