<svg xmlns="http://www.w3.org/2000/svg" width="1706.667" height="960" viewBox="0 0 1280 720"><path d="M0 360v360h802.9l.4-2.3.4-2.2.2 2.2.1 2.3h43.9l-1.6-5.3c-.8-2.8-1.8-5.6-2.1-6.1s0-.6.5-.3c.6.4 2.1 3.1 3.3 6.2l2.2 5.5H1280V0H0zM631.7 54.1c11 4.5 54.3 18.7 65.8 21.6 3.3.9 6.7 2 7.5 2.4.8.5 3.1 1.6 5 2.5 1.9.8 4.4 1.9 5.5 2.4 1.1.6 6.7 2.8 12.5 4.9 5.8 2.2 13 5.1 16 6.5 6.5 3 8 3.2 8.1.8 0-1.3.2-1.2.9.6.7 1.7 1.5 2.1 3.2 1.8 4.9-1 12.3-1.5 9.8-.6-1.4.4-4 .8-5.7.9-6.3.2-5.6.7 16.1 12.1 5.5 2.8 10.6 5.5 11.5 6 10.7 5.3 14 6.8 14.6 6.2.3-.4 1.1.1 1.6 1.1.6.9 2.2 1.8 3.7 1.8 2.6.2 2.6.2.3.6-1.3.3-3 1.1-3.7 1.8-1.3 1.2-6.2 15.6-8.4 24.5-.6 2.5-3.8 12.8-7.1 22.9-3.3 10-5.8 18.9-5.5 19.7s-.8 2.9-2.5 4.8c-4.8 5.5-4.2 5.5 23.1 1.5 42.5-6.4 39.9-5.7 37.5-9.2-.8-1.2-1.5-2.6-1.5-3.1 0-.6.8.1 1.7 1.4.9 1.4 2.3 2.9 3 3.3 2.2 1.4 1.6 4-.8 3.4-1.2-.3-4.6-.1-7.7.4-16.7 2.7-38.9 6.2-47.6 7.4-10.2 1.4-11.6 2.2-11.6 6.3 0 2.1-2 5.2-3.4 5.2-.3 0 .2-1.6 1-3.5 1.9-4.7 1.8-6.9-.3-6-1 .3-8.2 1.1-16.1 1.6-8 .6-15.5 1.4-16.7 1.9-2.1.8-2.2 1.3-1.5 4.7.5 2.1 1.1 7.4 1.5 11.8s1.1 11.4 1.5 15.5c.5 4.1 1.1 15.1 1.4 24.5.3 9.3.8 17.8 1.1 18.7.4 1.1.3 1.8-.4 1.8s-1.1-2.1-1.1-5.3c0-2.8-.5-8.4-1-12.2-.5-3.9-1-10.9-1-15.5-.2-10-2.6-32.7-3.8-35.9-.7-2.1-1.1-1.6-3.9 4.1-1.8 3.4-4.7 9.7-6.5 13.8l-3.3 7.5 2.7 5.5c1.5 3 2.7 6.5 2.7 7.8.1 1.2 1.5 4.9 3.1 8.2 1.7 3.3 3 6.8 3 7.8s.4 2.2.9 2.8c1 1 4.1 11 4.1 12.8-.1 1.6-7-15.6-7-17.3 0-.8-1.6-4.3-3.5-7.8s-3.5-7.1-3.5-8.1c0-.9-.9-3.6-1.9-5.9-2-4.2-5.3-6.2-7.4-4.5-.7.6-3.9 1.9-7.2 3-14 4.8-24.6 8.9-25.8 10.1-1.7 1.7 1.1 3.7 20.2 14.3 8.6 4.8 18.9 10.9 23 13.5s8.6 5.6 10 6.5c4 2.5 5.3 2.3 4.5-1-.7-2.5-.6-2.6 1.1-1.2s1.8 1.3 1.2-.3c-.3-.9-.2-1.7.3-1.7.6 0 1 .5 1 1.2 0 2.5 3.8-2.4 4.9-6.5 2.8-9.6 8.6-26.7 11.6-34.2 3-7.4 7.5-21.2 9.1-27.8.3-1.5 1-3 1.5-3.2.4-.3-.1 2.7-1.3 6.7-1.1 4-2.4 8.6-2.8 10.3-.5 1.6-2.3 6.6-4 11-5 12.7-12 33.5-12 35.9 0 1.1-1.4 4.5-3 7.5-3.6 6.5-3.8 9.3-.7 11.6 2.1 1.6 2.1 1.6-.5.1-2-1.2-2.8-1.3-2.8-.4 0 .6-.8.3-1.9-.8-1.6-1.8-2.6-1.9-7.7-1.3-3.3.4-9.5.8-13.9.9-9.6.3-14.1 1.2-13.7 2.8.3 1.8-1.5 1.4-3.5-.7-1.7-1.8-13.6-5.3-23-6.7l-4.1-.6.7 3.3c1.1 4.7 8.3 18.9 9.3 18.3.4-.3 1.1.2 1.4 1 .7 1.8 3 .8 7.8-3.4l2.8-2.5-1.6 3.2c-.9 1.8-1.6 3.7-1.6 4.3 0 1.3 6.1 9 7.2 9 .7 0 6.9 6 6.1 6-1.9 0 6.3 5.2 8.9 5.6 3.1.5 3.5.3 6.6-4.8 5-8.2 7.7-11.1 4.1-4.3-1.8 3.3-3.9 6.9-4.6 8-1.9 2.8-1.7 3.3 2 4.5l3.2 1-3-.4c-1.7-.3-3.6-.1-4.3.3-.8.5-1.1 6.2-1.1 19.4v18.8l5-5.3c2.8-2.9 6.1-6.9 7.4-8.8s5.1-6.4 8.4-10c3.4-3.6 5.9-7.1 5.6-7.7-.2-.7 0-1.3.5-1.3.6 0 1.1-1.7 1.1-3.8.2-3 .3-3.2.6-1 .2 1.6.7 2.8 1 2.8.7 0 17.1-9.9 20.8-12.5 1.7-1.2 3.8-2.5 4.9-2.9 1-.3 1.6-1.2 1.3-1.9-.3-.8-.2-2.9.3-4.8l.8-3.4.1 3.7c.1 2.1.6 3.8 1.2 3.8.8 0 .8.4.1 1.3-.6.7-1.1 2.4-1 3.8.1 1.3 0 9.8-.2 18.9l-.4 16.5-.6-18.8-.5-18.8-12.4 8.3c-6.9 4.6-12.6 8.7-12.7 9.3-.2.5 2.7 3.7 6.4 7s8 7.6 9.7 9.5c2.5 2.9 2.2 2.8-2-1-8.9-8-14.9-13-15.7-13-.5 0-.8 1.7-.8 3.7 0 2.1-.7 8.1-1.5 13.3-3.8 24.1-4.6 30.3-4.3 31.6.4 1.7 8.3-3.6 20.3-13.6 4.4-3.6 9.3-7.4 10.9-8.4l2.8-1.8-3.3-3.5c-3.1-3.3-3.2-3.4-.6-1.8 1.5.9 2.7 1.3 2.7.9 0-.5.7 0 1.5 1.1 1.4 1.8 2.3 1.2 17.3-13.5 10.6-10.5 16.3-16.9 17.5-19.7 1-2.3 2.6-4.8 3.4-5.5 1.1-.9.9.1-.7 3.2-1.3 2.5-2.6 5.6-3 7-.3 1.4-1.1 2.5-1.7 2.5-1.4 0-29.3 27.1-29.3 28.4 0 .6.8 1.5 1.8 2 2.2 1.3.7 1.4-1.8.1-2.4-1.3-2.7-.8-5.6 9.4-2.4 8.5-3.2 8.3-1.3-.4.6-2.7.9-5.5.7-6-.2-.6-5.6 3.2-12.1 8.4-6.4 5.3-13 10.2-14.5 11-1.6.8-3.5 2.2-4.2 3.1-1.2 1.5-1.2 1.9.5 3.2 1.8 1.4 1.7 1.4-2 .8-4.1-.6-16.9 2.2-27.5 5.9-4.1 1.5-18.2 4.5-28.8 6.1-4.2.7-4.4.9-4 3.6.3 2 .1 2.6-.6 1.9-1.7-1.7-2.4-1.2-5.3 3.2-1.5 2.4-3 4.5-3.3 4.8s-1.6 2.2-2.7 4.2c-2 3.4-2.1 3.9-.7 5.3.9.9 3.2 2.2 5.2 3 1.9.9 3.3 1.8 3 2-.3.3-2.7-.4-5.3-1.6-3.7-1.6-5.3-1.9-6.6-1.1-1.4.9-1.6.8-1.2-.8.4-1.3-1.8-4.2-7.2-9.9-4.3-4.4-9.4-9.9-11.3-12.1l-3.6-4-1.8 2.7c-1.5 2.3-1.5 3-.3 4.3.7.8 1.6 5 2 9.5.9 11 3.5 32.8 4 33.3.3.3 4.6-4.8 10.9-13.3.9-1.1 1.6-1.5 1.6-.8s-2.3 4.2-5.1 7.9c-7.7 10.2-7.7 10.3 5.2 23.1 6 5.9 11.5 10.9 12.2 11.1.6.1 2.4-1.7 3.9-4 1.5-2.4 2.8-3.9 2.8-3.3 0 .5-1 2.6-2.2 4.5s-2.2 4.2-2.2 5c-.1.8-1.6 1.7-3.6 2.1-1.9.4-8.6 3.3-14.8 6.3-6.2 3.1-12.9 6.3-14.8 7.1s-3.4 2.1-3.4 3-.4 1.3-1 1c-1.1-.7-8.5 4.1-14.3 9.2-2 1.8-4 3.3-4.5 3.3-1.5 0-7.3 6.3-6.4 6.9.6.4-.8.7-3.1.7-2.5.1-3.4-.1-2.4-.5 2.7-1 .9-2.2-9-6.5-4.4-1.9-10.6-4.7-13.7-6.2-5.5-2.7-5.7-2.7-9.2-1.1-1.9.9-4 1.7-4.7 1.7s-2.5.7-4.1 1.5c-2.6 1.4-3.4 1.4-7.5-.1-2.5-1-5.3-2.3-6.2-3.1-2.2-1.9-3.4-1.7-10 1.8-4.7 2.5-5.9 3.7-5.9 5.6 0 2-.4 2.3-2.1 1.8-1.5-.5-1.9-.4-1.5.4.4.6 0 1.1-1 1.1-1.6 0-1.6-.1 0-1.9 1-1.1 1.5-2.4 1.2-2.9-.6-1.1-2.1-19.2-2.5-30.7-.1-3.6-.4-4.6-1.1-3.5-.5.8-1 2.5-1 3.7s-.4 2.4-.9 2.7-.5-1.2.1-3.6c.5-2.4 1.3-4.5 1.9-4.8 1.1-.7.7-4.2-.7-6.2-.5-.7-1.6-2.6-2.4-4.2s-3.1-4.7-5-6.9c-3.4-3.7-3.7-3.9-5.3-2.3-1.5 1.6-1.6 1.5-1.4-2 .2-3.6 0-3.9-5.1-6.5-5.4-2.7-8.4-4.9-6.6-4.9.5 0 2.8 1.1 5.2 2.5 4.6 2.6 4.9 2.2 2.8-3-.8-1.9-1.3-3.5-1-3.5s1.3 2 2.4 4.5 2.4 4.5 2.9 4.5 1.4-2.4 2-5.3l1-5.2-.4 6.4c-.4 5.4-.3 6.2 1.1 5.7 1.1-.4 1.4-.1 1.3 1.2-.3 2 4.7 11.1 9 16.2l2.9 3.5 1-3.5c.7-2.4 1-2.8 1.1-1.3.1 1.2-.4 3.4-1 5-1 2.5-1.1 11.4-.4 25.8.2 2.7.3 6.3.4 7.9.1 2.5.3 2.7 1.8 1.5 1.1-.9 1.4-1 .9-.2-.4.7-.3 2 .1 2.8.7 1.2 1.8.9 6.5-2l5.6-3.6-.3-13.2c-.2-7.2-.1-11.9.1-10.2.2 1.6.9 5.5 1.5 8.5l1.2 5.5 1.3-3.5c.7-1.9 1.3-5.8 1.4-8.5.3-8.2 1.9-11.2 1.9-3.5v7.3c.2 1.5 9.1-8.6 9.7-10.9l.6-2.3 2.4 2.8c1.3 1.6 2.8 4 3.3 5.5 1.2 3 3.1 3.5 3.1.7 0-1.1.5-2.3 1-2.6 1.4-.9 1.2-8.2-.2-8.8-.7-.2.1-.8 1.7-1.1 1.7-.4 5.3-1.3 8.2-2s5-.9 4.7-.5c-1.1 1.8.9.8 4.9-2.3 2.7-2.2 5.2-3.3 7.6-3.4 2 0 5.9-.5 8.7-.9l5-.7 1.2 3.3 1.1 3.4-.3-3.5c-.2-1.9-.8-4.9-1.5-6.5-.6-1.7-2.5-7.6-4.2-13.3-3.5-11.3-5-12.1-5.4-2.8-.2 6.4-1 8-1.8 3.7-.5-2.2-1.3-3.1-3.4-3.5-3.6-.8-35.7-2.5-36.2-2-.3.3 1.1 1.8 3 3.4l3.4 3-4.9-2.7c-4.4-2.4-4.9-2.4-5.8-1-.5 1-1.5 1.7-2.3 1.7-.7 0-1.7.9-2 2-.5 1.7-2.5 2.9-2.5 1.5 0-1.7 2.6-5.5 3.8-5.5.9 0 1.2-.3.8-.7s-5-1-10.2-1.3c-8.7-.5-9.4-.4-9.4 1.4 0 1.4-.3 1.6-1.4.7-1.4-1.2-4.6-.5-4.6 1 0 .5-.4.9-.9.9-.6 0-.3-1.2.5-2.8.7-1.5 1.4-4.5 1.4-6.7s.7-6.5 1.6-9.5c.8-3 1.6-6.3 1.7-7.2.1-1.2.5-1.4 1.3-.7.8.6 1.5.1 2.2-1.8 1.3-3.6 3.5-14.3 3-14.8-.7-.7-6.3-1.6-14.4-2.2l-8.2-.6-.7 8.9c-.3 4.9-1 12.3-1.5 16.4-.8 6.9-.9 6.7-.4-3 .3-5.8.7-13 1-16l.4-5.6-3.4-.2c-3.6-.3-27.6 2.5-28.3 3.2-.8.7 7.9 17.6 9.1 17.6.5 0 2.8-1.7 4.9-3.8 2.2-2 3.5-2.8 2.9-1.7s-2.4 3.3-4.1 4.9c-3.4 3.2-3.9 5.7-1.7 7.5 1.6 1.3 9.8 14.1 9.1 14.1-.2 0-2.7-3.4-5.5-7.6-2.8-4.1-5.8-7.8-6.6-8.1-.7-.3-1.2-.8-.9-1.3.6-1-5.8-13.9-8.6-17.3-1.3-1.6-3.6-4.2-5.1-5.8-1.6-1.8-2.1-2.9-1.3-2.9 2.6 0 2.4-1.7-.6-7.6-5-10-9.5-14.3-6.8-6.6.6 1.7.9 3.7.6 4.4-.2.7-.8-.4-1.2-2.5-1.1-5.5-2.8-4.6-2.3 1.3.2 3-.1 4.9-.7 4.7-1.2-.4-1.4-20.7-.2-20.7.9 0 .9-4.3-.1-5.5-.4-.6-.5-9.8-.1-20.5s.2-22.7-.3-26.5c-1.2-9.5-.8-32.1.7-42.8.7-4.9 1.5-9.1 1.8-9.3.6-.7-.2 16.6-.9 17.7-1.1 1.8.7 3 2.4 1.7 1.2-.8 1.1-.5-.2 1-1.1 1.3-2.1 3.1-2.3 4-.5 2.8 1.9 28.5 3 31.2l.9 2.5 1.1-2.5c.6-1.4 1.5-2.8 2-3.1 2.1-1.5 2.4-7.8.6-11.9-2.4-5.2-2.4-7.6-.1-3.3 2.3 4.4 3.3 4.4 4.8.3l1.2-3.5.1 3.1c.1 1.9.7 3.4 1.6 3.8.8.3 1.5.2 1.5-.2s2.1-1.5 4.8-2.5c7.4-2.7 7.8-3.1 5.3-5.8-1.1-1.2-2.1-2.6-2.1-3s-1.6-2.4-3.5-4.5c-1.9-2-3.5-4.4-3.5-5.2 0-.9.9-.4 2.3 1.4 1.2 1.6 4.3 5.1 6.9 7.9 4.7 5 4.8 5.1 9.5 4.6l4.8-.6v-7.9l-8.5-3.3c-13.9-5.5-19.8-7.3-21.7-6.7-1 .3-1.4.2-.8-.3 3.1-2.6 7.3-19.6 7.4-30.6.1-3.1.5-6.5 1-7.5.8-1.4 4.1-19.7 4.1-22.5 0-1.7-2.7-.4-5.3 2.5-1.8 2.1-2.5 2.5-1.8 1.1.6-1.2 2.2-3 3.4-4 1.3-1 3-3.6 3.7-5.8s1.9-5.7 2.6-7.8c.8-2.2 1-3.7.4-3.7s-.9-2.3-.8-5.3l.2-5.2.3 4.7c.2 2.7.8 4.8 1.2 4.8 1.2 0 3.7-5.5 5.1-11 1.5-6.1 2-7.4 2.5-6.8.7.6-3.4 14.9-4.9 17.3-2.2 3.5-5.4 16.6-6.6 27.5-.6 5.7-1.8 12-2.6 13.8-2.1 5.1-1.7 5.1 1.6-.1 1.7-2.6 3-5.2 3-5.7 0-.6.5-1 1-1 1.3 0 1.4-.3-1.5 5.4-1.4 2.7-2.5 5.7-2.5 6.6 0 1 2.3 3.2 5.3 5.1 2.8 1.8 6.5 4.2 8.1 5.2l2.9 1.9-.8-9.9c-.4-5.4-.9-12.5-1-15.8-.2-5.8-1.9-11-3.3-10.1-1 .6-.6-4.5.6-7.5.6-1.5 1.5-5.8 2.1-9.5 1.4-8.9 3.9-19.5 4-16.9 0 1.1-.8 6.9-1.9 13-2.9 16.4-3.9 14.9 8.8 14.1 23.3-1.5 27.2-1.9 27.2-3.1 0-.6-1.3-2.9-2.8-5.1-1.6-2.1-6.7-11.3-11.4-20.4-9.1-17.7-13.9-26-14.9-26-.8 0-1.6 3-2.5 9.8-.4 2.9-1 5.4-1.4 5.7-.4.2-.5-.7-.2-2 .2-1.4.1-4.2-.3-6.2-.6-3.3-.8-3.5-1.5-1.7-.8 2.1-3 4.2-3 2.9 0-.4.8-1.9 1.8-3.3 1-1.5 2.6-4.3 3.6-6.3l1.9-3.6-5.2-7.9c-2.9-4.3-6-8.5-6.9-9.1-.8-.7-1.2-1.6-.9-2 .9-.8 2.4 1 8.3 9.9 4.2 6.4 7 9.4 5.9 6.5-.3-.7 1.4-7.1 3.9-14.3 2.4-7.1 5.1-15.5 6.1-18.7.9-3.2 1.9-5.7 2.1-5.5.5.5-2.2 11.1-5 19.3-1.3 3.8-3.1 9.4-4.1 12.3-.9 2.9-1.5 5.5-1.2 5.8s2.7-1.9 5.3-4.8c2.7-2.9 8.5-9.1 12.9-13.8 12.7-13.6 24-26.8 24-28.2 0-.7.4-1.9.8-2.6.5-.7.1-3.5-.8-6.3-2.2-6.6-1.4-7.3.9-.9 1 2.8 2.3 5 2.8 5 2.2 0 56.8-54.9 56.8-57.2 0-.3-1-.4-2.2-.2-1.3.2-1.6.1-.8-.2.8-.4 2.3-1.3 3.3-2.2.9-.8 2-1.2 2.4-.9 1.5 1.6-6.7 10.9-31.3 35.6l-26.3 26.4 17.2-.8c41.6-1.9 43.2-2 43-3.2-.2-.7.4-1 1.2-.7 1.3.5 1.5-1.4 1.5-13.2 0-16.5-1.9-41.4-3.2-43.1-2.4-2.9 1.8-4.2 6.9-2.2m-293.2 52.7c-2.2 1-10 4-17.2 6.7-7.3 2.7-13.3 5.2-13.3 5.6 0 .3 2.7 1.4 6.1 2.3 3.3 1 5.9 1.9 5.7 2.2-.3.2-2.7-.3-5.4-1.1-7.1-2.1-9.4-2-9.5.7-.1 1.7-.2 1.9-.6.5-.2-.9-.7-1.7-1-1.7s-3.1 2.4-6.2 5.4c-5.8 5.5-14.1 13.1-24.9 22.5-3.4 3-6.2 5.7-6.2 6.1 0 1.6 27 11.4 28.2 10.2.4-.4 2.3-7.7 4-16.1 1.8-8.5 3.4-14.9 3.6-14.3.3 1.1-.5 6.1-3.3 19.1-.9 4-1.4 7.7-1.3 8.2.2.5 8.3-7.1 18.1-16.8l17.8-17.7-4.3-1.7c-4.7-2-3.9-2.5 1.1-.8 4 1.4 4.5 1.1 18.3-9 7.2-5.2 7.3-5.3 3.3-1.2-2.2 2.3-5.9 5.3-8.2 6.7-7.3 4.4-8.5 4.5 25.6-.5 11.7-1.8 21.8-3 22.4-2.8.5.1-6.8 1.5-16.4 3.1-9.6 1.5-20.5 3.4-24.4 4.3-3.8.8-7.8 1.6-8.9 1.9-3.3.6-2.9 1.2 2 3.5 2.7 1.2 10 4.6 16.3 7.6 7.5 3.5 12.1 5.1 13.4 4.7 1.1-.3 5.6-3.2 10.1-6.4 4.5-3.1 13.4-9.2 19.9-13.5 6.4-4.3 11.6-8 11.4-8.1-.1-.2-4.3.3-9.2 1.1-5 .8-9.9 1.4-11 1.4-1.1-.1 3.2-1 9.5-2.1s11.7-2.2 11.9-2.4c.3-.2-.6-1.6-2-3.1l-2.4-2.7 3.4 2.8c2 1.6 4.2 2.5 5.3 2.3 1-.3 1.8 0 1.8.7s1.8 2.1 4 3.1c2.3 1 4.3 2.2 4.6 2.6.3.5-2.1-.3-5.2-1.7l-5.6-2.5-4.5 2.6c-2.4 1.5-11.5 7.7-20.2 13.9-15.6 11-15.8 11.2-12.2 11.4 2 .2 22.7.3 46.1.4 25.1 0 40 .3 36.5.8-3.3.4-12.1.9-19.5 1-13.5.2-28.1 1.6-19.7 1.9 2 0 3.7.5 3.7 1.1 0 .5.7 1 1.5 1 .9 0 1.8 1.2 2.2 3 .3 1.6.9 3 1.4 3s.9.9.9 2-.4 2-1 2c-2.8 0 1.2 5.2 4.2 5.6 1.3.1 2.7.3 3.1.3.5.1.5 1 .2 2.1-.4 1.3-.2 2 .7 2 .7 0 0 1.1-1.7 2.5-1.6 1.3-2.5 2.4-1.8 2.5.6 0 1.3-.3 1.5-.8.2-.4 3.5-3.2 7.3-6.1 8.5-6.7 20.8-16.4 21.5-17.1 2.4-2.4 5-4.1 5-3.3 0 .6-2.6 3.1-5.7 5.6-3.2 2.5-6.7 5.3-7.8 6.4-2.6 2.4-18.6 15.7-25 20.8-2.7 2.2-5.9 4.8-6.9 5.7-1.1 1-2.4 1.8-2.9 1.8s-.7.7-.4 1.4c.4 1 .1 1.3-.7 1-.7-.3-1.9.3-2.7 1.3-1.3 1.6-1.2 1.7.3.5 1.4-1.2 1.6-1.1 1.1.8-.3 1.3-1.1 1.9-1.9 1.6-1-.4-1.4.5-1.4 3.3 0 5.1-.8 7.1-2.9 7.2-2.3.1 4.7 2.5 11.4 3.9 4.6.9 5.9.9 6.5 0 .5-.8 1.5-1 2.6-.5 1.6.6 1.6.8.4 1.3-.9.4.7 1.3 4 2.4l5.5 1.8-4.5-.6c-2.5-.3-10.5-1.9-17.8-3.6-7.4-1.6-13.7-2.6-14-2.2-.4.4-.1.9.6 1.1 1.7.6 1.5 3.3-.2 3.3-.8 0-2.2-1-3-2.2-.9-1.2-1.6-1.7-1.6-1s1 2.6 2.2 4.2 1.9 3.2 1.6 3.5c-.2.3-1.7-1.2-3.1-3.2l-2.6-3.7-.9 2.5c-.9 2.2-1 2.1-1.7-1.9-.4-2.3-1.2-4.2-1.8-4.2-.7 0-9.3 1.8-19.2 3.9-9.9 2.2-29.1 6.3-42.7 9.2-13.7 2.9-24.8 5.6-24.8 6s20.5 16.1 45.5 34.9 45.5 34.4 45.5 34.7-.6.1-1.2-.4c-5.4-4.1-11.4-8.6-25.3-18.8-28.7-21.2-50.9-37.8-57.7-43.2-3.7-2.9-7-5.3-7.3-5.3-1.2 0 .5 37 1.7 38.9.9 1.5.9 2.9-.1 6-.9 3.1-1 10.7-.5 30.1.4 14.3 1 26 1.5 26 .4 0 8.1-2.7 17.1-5.9 40.3-14.7 50.1-18.1 50.5-17.8.4.4-23 9.2-49.7 18.7-15.6 5.6-17.9 6.8-15.8 8.1.9.6.7.9-.9.9-1.9 0-2.3.9-3.3 7.2-.6 4-2 11.6-3.1 17-1 5.3-1.9 9.9-1.9 10.2 0 1.3 2.3.3 11.7-5 12-6.9 15.6-8.9 25.8-14.4 4.4-2.4 8.2-4.6 8.5-5 .3-.3 1.5-1 2.7-1.5 1.2-.6 9.3-7.6 18-15.7 8.7-8 17.2-15.7 18.8-16.9l3-2.2-2.5 2.5c-1.4 1.4-5.6 5.4-9.5 8.8-10.3 9.3-23.5 22-23.5 22.7 0 .3 2.1.3 4.8 0l4.7-.6-5 1.6c-2.7.8-5.2 1.7-5.4 1.9-.3.2.9 1.9 2.5 3.7l2.9 3.2-3.5-3.3c-2-1.7-4.1-3.2-4.7-3.2s-6.6 3.1-13.3 7c-6.7 3.8-12.3 7-12.4 7s-5.3 2.9-11.5 6.4l-11.3 6.5 3.9 1c7.5 2.1 20.9 4.9 25.8 5.5 5.9.7 34.7 7.4 32.5 7.5-1.4.1-56-10.8-62.1-12.4-2.6-.6-2.8-.4-3.8 4.3-.6 2.8-1.9 7.6-3 10.9-1 3.2-2.4 8-3.1 10.6s-1.5 4.6-1.7 4.4c-.2-.3 1.2-6.6 3.2-14.1 1.9-7.6 3.5-14.2 3.5-14.8s-1-.2-2.2.9c-1.3 1.2-4.2 3.2-6.5 4.5-11.5 6.5-29.3 17.4-29.3 18 0 .3.8.9 1.8 1.1.9.3-.1.5-2.3.6-3.7.1-16.2 3.4-22.8 6-3.3 1.3-5.7 1.5-4.2.3.9-.6 3.5-7.6 6-16.1.7-2.1.4-2-2.2 1-4.1 4.8-12.3 15.8-12.3 16.5 0 .4 1.7.4 3.8 0 3.4-.5 3.3-.4-1.3 1.3-2.7 1-5.1 1.7-5.3 1.6-.4-.4 1.8-4.8 2.8-5.5.3-.3 2-2.5 3.8-5 1.7-2.5 4.9-6.7 7.1-9.5 2.2-2.7 3.8-5.1 3.6-5.4-.2-.2-3.6.5-7.5 1.5-5.7 1.5-7 2.2-7.1 3.8-.3 9-.7 12.7-1.2 13.3-.4.3-.7-1.4-.7-3.8v-4.4l-1.9 3c-2.8 4.5-3.4 9.2-1.3 9.9.9.3.4.4-1.3.2-1.6-.3-4.5.2-6.3 1-3.5 1.4-3.6 2-.6 10.6.7 2 1.5 5.8 1.8 8.5.5 4.7.5 4.6-1.3-1.7-2.3-8-2.5-5.9-.7 9 .8 6.3 1.8 16.1 2.2 21.7.3 5.7 1 10.3 1.5 10.3s.9-.5.9-1.2c0-.6.2-.9.5-.6s.1 1.8-.5 3.3c-.8 2.1-.8 5 .1 10.4.6 4.2 1.2 8.6 1.4 9.7.2 2.2 8.2 17.5 9.5 18.4.4.3 1.5 2.2 2.4 4.3l1.6 3.8-3.6-2.1c-2.4-1.5-4.3-2-6.2-1.6-1.9.5-2.3.4-1.3-.3 1.2-.8 1-1.1-1-1.5-7.4-1.7-14.4-2.5-14.8-1.8-.3.4-1.9 1.3-3.5 2-2.5 1.1-3.1 1.1-4.5-.4-1.5-1.7-1.5-1.7.3-.3 1.5 1.1 2 1.1 2.3.1.3-.6 1.3-1.2 2.3-1.2 3.9 0 3.1-2.4-3.1-8.6-4.4-4.5-6.5-6-7.1-5.1-1.1 1.5-.1-3.1 2.3-10.6 3-9.5 4.3-18.2 3-20.6-1-1.8-.9-2.1 1.1-2.1 1.3 0 1.8.3 1.2.8-.6.4-.8 1.6-.4 2.7s-.1 5.6-1.1 10c-.9 4.4-1.6 8.1-1.4 8.3.1.1 1.3-2.6 2.5-6 1.3-3.5 3.4-8.7 4.7-11.6 1.7-3.9 2.1-5.8 1.3-7.1-.8-1.5-.5-2 1-2.4 1.7-.4 2-1.4 1.9-6.9v-6.3L212 447c-1 3.2-1.8 4.6-1.9 3.3-.1-1.2.4-3.4 1.1-4.8.6-1.4.9-2.7.6-3-.5-.5-10.1 3.2-15.1 5.8-3.4 1.8-2.7 2.4 5.8 4.9 3.3 1 4.4 1.6 2.5 1.3-1.9-.4-5.1-.9-7-1.2l-3.5-.6 2.3 2.5c3.2 3.6 2.7 4.3-.7.8-1.5-1.7-3.3-3-4-3-.6 0-1.1-.5-1.1-1 0-.6-1.9-1.1-4.2-1.1-3.9-.1-4-.2-1.3-.8 3-.6 2.9-.7-4.7-5.9-4.2-2.8-7.9-5.2-8.2-5.2-.2 0 .8 2.7 2.2 6 2.2 5 3.1 6 5.2 6.1 2 0 2.2.2.7.8-1.4.5-1.1.9 2 2 2.1.7 5.6 2.1 7.8 3.1s5.6 2.5 7.5 3.4c2.6 1.1 2.9 1.6 1.4 1.6-1.1 0-2.3-.3-2.7-.6-.3-.3-3.9-2.1-7.9-3.8-4-1.8-8.8-3.8-10.5-4.6-1.8-.8-3.3-2.1-3.3-2.8s-1.1-4-2.5-7.4l-2.5-6.2 5.4-11.1c6.8-13.7 24.6-51.4 24.6-52 0-.2 1.1-2.8 2.4-5.7 1.4-2.9 2.9-7.1 3.5-9.3 1-4.1.7-18.5-.6-36-.5-5.5-.6-14.3-.2-19.5.3-5.2.6-8.2.7-6.5.2 2.3.4 2.7 1.2 1.5.8-1.3 1-1.2 1 .2 0 1-.4 1.8-1 1.8-1.7 0-1.1 4.7 1 8.6 2.3 3.9 1.9 6-.5 2.8-1.3-1.7-1.4-1.2-1.3 5.1 0 8.3 3.2 24.3 5.2 26.4 1.3 1.2 1.3.8.5-2.6-.4-2.2-1.3-5.3-1.9-6.7-.5-1.5-1-3.9-.9-5.4 0-2.5.1-2.5 1.2.8.9 2.5 1.9 3.6 3.6 3.8 1.7.3 2.1 0 1.5-1-.5-.7-.9-1.8-1-2.3-.2-.6-1.3-3.8-2.5-7.1-2.2-5.8-2.2-6.2-.6-7.8.9-1 1.7-1.3 1.7-.7 0 .5-.4 1.2-.9 1.5-1.1.7.5 7.2 2.4 9.9 1.3 1.8 1.3 1.8 2.4 0 .9-1.6 1-1.4 1.1 1.3 0 3.1.1 3.1 5.1 3.3 5.9.1 5.9.2.4-11.7-1.9-3.9-3.2-7.2-3-7.2.3 0 2.6 4.2 5.2 9.2 4.1 8.2 4.7 9 5.3 6.8l.6-2.5.7 2.7c.5 2 1.6 3 4.5 3.7 2 .6 4.4 1.1 5.3 1.1s1.9.7 2.3 1.5c.3.8 1.2 1.5 2.1 1.5.8 0 1.5.5 1.5 1.2 0 .6.2.9.5.6s-3-6.8-7.3-14.4c-6.7-11.9-8.3-13.9-10.8-14.5-1.6-.3-5.3-1.5-8.2-2.7l-5.2-2-3 3.6c-1.7 2-3 3.2-3 2.6 0-.7.7-1.7 1.6-2.5 4.2-3.4 10.3-26 11-40.4l.4-9-4.4 12.5c-2.4 6.9-4.7 13.4-5.1 14.5-.5 1.4.2 1 2.4-1.3 4.1-4.3 3.9-3.3-.5 2.8-1.9 2.7-3.3 5.4-2.9 6 1 1.6 2.4 7 1.9 7-.3 0-1-1.4-1.5-3-1.5-4.3-2.9-3.7-3.1 1.2-.1 4.2-.1 4.2-.5.7-.3-2.5.9-7.1 3.6-14.5 2.2-6 4.7-13.4 5.4-16.4.8-3 1.9-6.6 2.5-8 1.7-4.2 3.9-11.9 6.6-23.5 3.5-14.7 5.7-22.8 8.2-30.1 1.2-3.6-4.3 5.1-10.5 16.6-3.5 6.3-6.8 11.9-7.3 12.5-1.1 1 8-16.7 12.9-25 1.3-2.2 3.2-5.9 4.3-8.2s2.4-4.4 2.9-4.7 4.2-6.2 8.2-13.1c4.1-6.9 9.3-15.8 11.5-19.6 3.2-5.4 6.9-9.5 16-17.6 6.6-5.8 14.9-13.3 18.6-16.6 3.8-3.3 6.6-6.2 6.4-6.5-.6-.5 4.9-5.2 6.1-5.2 1 0 23.1-8.3 27.8-10.4 4.2-1.9 5.8-2.4 7.5-2.5.8 0-.3.8-2.5 1.7M264 144.4c0 .3-6.2 4.4-17 11.2-4.4 2.7-4.4 2.8-2 3.5l2.5.7-2.5.1c-3.6.2-4.5 1-6.8 6.1-2.4 5.6-25 74-26.2 79.5-.5 2.2-1.1 5-1.5 6.1-.6 1.9-.3 2.1 2.2 1.8 2.8-.4 2.8-.4-.4.8-1.7.7-3.4 1.5-3.6 1.8-.3.3-.8 7.9-1.2 17s-1 16.7-1.2 17c-.3.3-.3-7.2 0-16.5.4-13.7.9-18.1 2.5-22.5 1.1-3 3.5-10.5 5.2-16.5 10.1-34.2 23.4-72.1 26.7-75.6 1.3-1.4 3.6-3.2 5.1-4s6.1-3.5 10.2-6.1c7.6-4.9 8-5.1 8-4.4M892 315c1.4 2.6 1.4 2.7-2.5 2.6-2.5-.1-3.4-.5-3-1.4.8-2.2-1.5-.3-13.2 11.1-6.2 6-11.5 11.9-11.9 13-.7 2.3-4.3 5.6-6 5.7-.6 0-1.7 1.1-2.4 2.4-.7 1.4-1.9 2.7-2.6 3-1.9.7-1.8-2.2.1-4.1 1.4-1.3 1.4-1.8.2-3.7-.9-1.4-1.1-3.4-.6-6.1.4-2.2.5-4.3.2-4.8-.6-1.1 10.5-11.4 15.6-14.4 5.7-3.3 12.1-5 19.3-5.1 4.7-.1 6 .3 6.8 1.8m-13 68.5c-.6 3.9-.4 4.8 1.3 6 1.8 1.2 2.2 1.2 3.2-.2s1.3-1.1 1.9 1.8l.7 3.4 2.4-5c1.3-2.7 2.1-5.4 1.8-6-.3-.5 0-.5.7.2 1 .9 1 1.9.1 4.4-.6 1.7-1.1 4.2-1.1 5.4 0 2.2-2.4 4-4 3-.4-.3-1.1 1-1.4 2.9-.6 2.9-4.2 6.8-6.6 7.1-.3 0-1.6.7-2.8 1.4-1.3.7-3.6 1.5-5 1.7-3.4.6-8.2 6-8.2 9.4 0 5.5-4.2 13.8-5.8 11.4-.7-1-11-6.2-16.4-8.3L837 421l3.3-6.4c3.2-6.5 5.9-8.5 8.4-6.4.7.6 1.3.6 1.3.2 0-.5 1.7-.8 3.8-.6 14.6 1.5 15.7 1.4 17.7-1 1.1-1.3 1.6-2 1.1-1.6-.5.5-1.5-.1-2.3-1.1-.7-1.1-2.7-2.2-4.3-2.6-3.6-.8-3.9-2.1-.6-2.9 1.9-.5 2.4-1.1 2.1-3.3-.2-1.6.1-3.3.7-4 .5-.7.7-2.2.3-3.4-.6-1.8-.4-2.1 1-1.6 3 1.2 6.3-.4 8-3.9.9-1.9 1.7-3.4 1.9-3.4s0 2-.4 4.5M215.1 512.4c-1 1.2-.9 2 .5 4.1s1.9 2.3 3.3 1.3c1.4-1.2 1.5-1.1.2.5-2.7 3.4-.5 2.5 6.3-2.4 8.2-6.1 8.4-5 .4 1.5-3.2 2.6-5.8 5.1-5.8 5.5 0 .5 3.9 4.5 8.6 9.1 4.7 4.5 8.3 8.4 8.1 8.7-.3.2-4-2.9-8.3-7.1-5.4-5.1-8.2-7.1-8.7-6.3-.6.8-.7.5-.3-.6.3-1.1 0-2-.9-2.3-1.9-.8-7.7 3.4-6.8 4.9.4.7-.1.6-1.1-.2-1.3-1.1-2-1.1-2.8-.3-1.5 1.5-2.8 1.5-2.8.2 0-.6.5-.9 1.2-.8 1.4.4 3.2-3 5.1-9.5l1.4-4.7h-5.2l2.5-1.4c1.4-.8 3.3-1.4 4.4-1.5 1.5-.1 1.6.2.7 1.3m306.3 18.1c.8.8 3 1.8 4.8 2.2 1.8.3 4.3 1.4 5.5 2.3 2.1 1.6 10.9 4.7 20.1 7 2.3.6 4.2 1.5 4.2 2 0 1.3 5 1.3 7 0 .9-.6 1.7-.5 2.2.3.5.9 1 .9 1.9 0 .7-.7 2-.8 3.3-.4 1.1.5 8 .6 15.1.4 18.8-.5 18.8-.5 21.5-.3 2.7.3 35.1-3.7 35.7-4.4.3-.2-4.4-.7-10.4-1.1-16.6-1-14.7-1.6 3.3-.9l16.1.6 2.2-2.7c1.1-1.5 2.1-2.3 2.1-1.7s-.5 1.4-1 1.7c-1.6 1 0 2.7 2.1 2.2 1.1-.3 1.7-.1 1.3.4-.3.5-1.2.9-2 .9s-1.4.4-1.4 1c0 .5-1.1 1-2.4 1s-3.4.8-4.7 1.8-6 3.8-10.4 6.2-9.5 5.5-11.3 6.9l-3.4 2.5 3.1 2.8c1.7 1.6 3.1 3.2 3.1 3.5 0 .4-1.3-.5-2.8-2-2.5-2.4-3.4-2.7-8.3-2.3-3 .3-7.4 1-9.9 1.6s-7.4 1.4-11 1.9-9.2 1.5-12.5 2.4c-3.3.8-8.6 1.8-11.7 2.2-3.3.3-5.8 1.1-5.8 1.8 0 .8-.3.8-1.1 0s-.8-2.1-.1-4.5c.6-1.9.8-6 .4-9.7l-.7-6.4-4.1-1.2c-2.3-.7-6.2-1.4-8.7-1.7l-4.6-.5-2 4.6c-2 4.6-3 3.5-1.1-1.3 1.4-3.7-.2-3.9-4.6-.6-2.1 1.6-4.3 3-4.8 3-1.2 0 7.1-7.7 9.1-8.4.9-.4 1.4-.9 1.1-1.2-.8-.7-21.8-8.4-23.2-8.4-.2 0 .9 2.6 2.6 5.7 2.2 4.4 2.4 5.2.9 3.4-1.2-1.3-2.1-2.9-2.1-3.6 0-.8-.9-1.6-1.9-2-1.3-.4-1.8-1.2-1.4-2.1.3-.8-.5-2.6-1.7-4-1.9-1.9-2-2.4-.7-2.4.8 0 2.2.7 3.1 1.5m1.6 37.9c0 2 .4 2.3 2.3 1.9 1.7-.4 1.9-.2.7.6s-1.2 1.2.3 2.8c.9 1.1 1.4 2.7 1.1 4-.4 1.3 1.8 7.5 5.9 16.9 3.6 8.2 7.5 17.4 8.7 20.4 2.8 7.1 9.3 20.4 10.2 20.8.4.2 1.4 2.6 2.3 5.3 1.2 3.6 2.6 5.6 4.9 7 3.4 2.1 2.8 2.6-.7.7-2.8-1.5-4.4-3.4-6.4-7.8-.8-1.9-3.7-8-6.3-13.5s-5.9-12.9-7.3-16.5-3.8-9-5.3-12c-4.3-9-8.3-20-7.7-21.6.3-.8 0-1.4-.6-1.4-1.3 0-4.1-5.9-4.1-8.5 0-.8.5-1.5 1-1.5.6 0 1 1.1 1 2.4m142.7 15.7c-.9.6-4.5 2.1-8 3.3-8 3-36.6 14.4-39.2 15.6-6.7 3.3-18.4 10.5-32 20-8.9 6.2-8.8 6-6.8 7.7 2 1.6 1.1 1.4-2.9-.6-1.6-.8-2.8-1.8-2.8-2.2 0-.5-3.5-4.6-7.9-9.1-4.3-4.6-9.3-10.1-11.2-12.3-1.8-2.2-6.2-7.1-9.6-10.9-3.5-3.8-6.3-7.4-6.3-8s1 .1 2.1 1.7c1.2 1.5 2.6 2.4 3.2 2 .7-.3.9-.3.5.2-.8.8 4.4 5.5 6 5.5.6 0 1.5.7 2 1.6.7 1.2 3.4 1.7 13 2.1l12.2.6.1-4.9.2-4.9.6 4.7c.4 2.6.9 4.9 1.2 5.2.9 1 27.4.7 30.6-.2 2-.7 3.5-.7 3.8-.1.4.5 1.1.9 1.6.9.6 0 .8-.3.6-.8-.3-.4.9-.8 2.7-.9 3-.1 10.8-3 34.6-12.8 10-4.1 15.8-5.8 11.7-3.4m538.5 91.4c1.1 1.4 2.3 2.3 2.7 2 .5-.2 1.3.7 2 2.1 1.6 3.5 1.3 5.4-.4 2.4-.8-1.4-1.4-2.1-1.5-1.6 0 1.7 2.4 9.1 3.3 10.1.7.7.8.6.3-.3-.4-.7-.1-1.5.7-1.8.7-.2 2.4-3.8 3.7-7.9 1.8-5.7 2.8-7.5 4.1-7.5 1.6 0 1.5 1-1.5 9.2-1.8 5.1-3.6 10.9-4 12.9-.6 3.1-.9 3.6-3 3.2-1.9-.4-2.9-1.8-4.6-6.6-1.2-3.4-3.3-9-4.6-12.5-2-5.3-2.1-6.2-.7-6.2.8 0 2.4 1.1 3.5 2.5m20.8 5.1-.8 3.6 1.9-2.1c2.3-2.5 4.4-2.6 7.9-.6 1.4.8 3.2 1.7 4 2.1s2.2 1.3 3.1 2c1.3 1.2 1.8 1 3.7-1.5 3-4.1 7.1-4.8 12.7-2s8.2 5.5 8.9 9.4l.6 3-1.1-3c-1.3-3.4-4-6.8-4.7-6-.3.3.2 1.3 1 2.2.9 1 2.1 3.5 2.7 5.5 1.3 3.9.2 7.2-2.9 8.3-.8.4-.5-.4.8-1.8 1.2-1.3 2.2-2.9 2.2-3.6s-1.2.1-2.6 1.8c-2.7 3.3-5.2 3.8-8.7 1.9-2-1-2.1-1-.8.5 2.3 2.9.4 1.9-5.1-2.6-4.5-3.6-5.8-4.2-8.3-3.6-1.6.4-2.6.7-2 .8.5 0-.1.8-1.4 1.7-1.6 1.2-2.6 1.3-3.4.5-.7-.7-.5-1.2.9-1.8 1.7-.6 1.7-.8-.6-1.4-1.9-.5-1.4-.8 2.5-1l5-.2-5.5-.7-5.5-.7 6.3-.1c6.8-.2 7.9-1.5 4-4.8-2.3-1.9-2.3-1.9-.5.2 2.3 2.8 2.2 3.7-.4 2.3-1.6-.8-2-.8-1.4.1.5.9-.2 1.1-2.9.7-2.3-.3-3.9 0-4.7.9-.8 1-1.6 1.1-3.1.3-1.1-.6-2.2-.9-2.4-.6-1 .9.9 3.7 2.9 4.3 1.2.3 3.4 1.8 5 3.2l2.8 2.6 3.4-1.8c4.3-2.3 5.7-1.3 2.5 1.7l-2.4 2.2 1.8-2.3c2.2-2.6 1.5-2.8-1.9-.6-1.6 1-3.4 1.4-5.1 1-1.8-.5-2.4-.3-1.8.5.9 1.5-.7.6-5.4-2.9-2.2-1.7-3.1-3-2.7-4.1.3-.8.3-1.2-.1-.9-.9 1-2.9-1.3-3.7-4-.3-1.3-.3-2.1 0-1.8.6.6 4.3-6.2 4.3-8 0-.7-.6-1.5-1.2-1.7-.7-.3-.3-.6.8-.6 2-.1 2.1.2 1.4 3.5"/><path d="M627.7 55.6c-.3.3-.4 2.9-.1 5.7.2 2.9.8 11.9 1.4 20.2 1.9 27 2.2 30.5 3 30.5 1.4 0 21.1-9.3 45-21.2l23.5-11.7-3.5-1.5c-1.9-.8-8.7-3.1-15-5.1s-20.9-6.8-32.4-10.6c-23.4-7.8-21.1-7.1-21.9-6.3M672.7 95.2c-23.3 11.8-27.6 14.3-26.5 15.4 1.9 1.9 10.1 3.2 25.8 3.9l13.5.6 1.7-3.8c.9-2.1 2.6-5.9 3.8-8.6 3.8-8.9 5.9-13.2 8.5-17.5 1.4-2.3 2.3-4.2 1.8-4.2-.4.1-13.3 6.4-28.6 14.2M702 85c-3 3.8-13 26.6-13 29.6 0 .8 1 1.8 2.3 2.3 25.4 9.8 32.3 12.1 35.6 12.1 1.2 0 2.1.4 2.1.8s1.5 1.3 3.3 1.9l3.2 1.2-2.2-1.8c-2.2-1.9-2.2-1.9-.2-2.4 1.2-.3 1.8-1 1.4-1.6-.3-.6-1.1-.8-1.7-.5-.7.4-.8.2-.4-.4.8-1.4-6.3-13.7-9.7-16.9-1.4-1.3-4.4-5.5-6.8-9.5s-5.9-9.4-7.7-12-3.1-5.2-2.7-5.8c1.5-2.5-.6-.6-3.5 3"/><path d="M708 84c.6 1.2 3.9 5.7 7.2 10.2 4.2 5.6 6.3 7.6 6.8 6.7 1.4-2.1 5.5-2.1 8.3.2 3.2 2.5 3.4 3.5.7 4.2-1.1.3-2 0-2-.5 0-.6-.9-.3-2 .7-1.4 1.3-1.7 2.2-.9 3.4.5.9 2.4 4.2 4.2 7.3 4.6 8.2 9.5 14.8 11.3 15.5 2.2.8 3.1-.9 4.9-9.7.9-4.1 2.3-10.2 3.2-13.5 2.5-10 3.6-8.8-14.7-16.1-9.1-3.6-17.8-7.1-19.5-7.9-1.6-.7-4.3-1.5-5.8-1.9-2.6-.6-2.7-.5-1.7 1.4M754 101.4c0 .9-.4 1.6-1 1.6-.5 0-.9.3-.8.7.1.5-.6 4.2-1.5 8.3s-2.1 9.5-2.6 12-1.4 6.2-1.9 8.2c-.8 3.2-.7 3.8.6 3.8 1.4 0 36.5-7.9 44.3-10 2-.6 4.6-1 5.8-1 3.5 0 1.5-1.9-4.8-4.7-3.1-1.4-6.3-3-7.1-3.7s-8.1-4.8-16.2-9c-10.8-5.6-14.8-7.3-14.8-6.2M591.6 119.6c-.3.9-.6 2.7-.6 4 0 2.3-.2 2.4-7.5 2.4-4.3 0-7.5.4-7.5 1 0 .5 1.8 1 4 1h4v8h22v-3.3c0-1.7.7-5 1.5-7.2 1.2-3.6 1.2-4.1-.3-5.3-.9-.7-2.8-1-4.3-.7-1.5.4-3 .1-3.4-.4-1-1.7-7.2-1.3-7.9.5M556.4 127.8c-1.6 1.5-5 5.2-7.6 8.2s-7 8-9.9 11c-8.5 9-21.9 24.7-21.9 25.7 0 .5 3 6.1 6.6 12.4 3.6 6.2 8.5 15.2 10.9 19.9 5.6 11.1 11.3 19.8 11.8 17.9.3-.8.9-5 1.5-9.4s2.1-14.3 3.2-22c4.5-29.4 9.2-65.6 8.7-66.2-.2-.1-1.6 1-3.3 2.5M791.5 127.9c-19.8 4.4-32 7.3-34.3 8.2-1.4.5-4.1 1.2-6.1 1.5-6.4 1-6.4 1 0 14.4 3.2 6.9 6.4 13.2 6.9 14 1.9 2.9 7.8 14.6 10.1 20 2.6 6.2 7.8 15 8.9 15 1.6 0 22.6-62.8 24.2-72.4.4-2.6-.6-2.7-9.7-.7M559.1 154.8c-.1 3.8-2.2 17.9-3 20.7-1 3.1-1.2 5-1.1 9.9 0 1.6-.6 5-1.4 7.5-1.3 4.1-2.4 13.2-3.1 25.8-.3 4-.2 4.2 1.8 3.1 1.1-.6 2.6-1.5 3.1-1.9 4.8-4 10.3-7.9 11.1-7.9.6-.1 2.6-1.4 4.5-3.1 2.9-2.4 3.2-3.1 2-3.9-.8-.6-1-1-.3-1 1.6 0 .8-11.8-1.3-19.5-.9-3.3-1.7-7.6-1.8-9.7 0-2-.4-4-.8-4.4-.5-.4-.8-2.2-.8-4 0-1.9-.6-3.4-1.5-3.8-.8-.3-1.5-1.7-1.5-3.1q0-4.2-4.2-5.7c-1.1-.5-1.7-.2-1.7 1M745.9 155.1c-2.4 2.1-2.4 2.3-2.1 18.1.2 12.8 0 16.4-1.1 17.7-.8.9-1.7 4.8-2 9.2l-.5 7.7 8.1-.5c12.9-.7 25.7-2 26.3-2.6 1-1-23.3-49.8-25.4-51.1-.5-.3-2 .4-3.3 1.5M588 170c0 1.3-.7 2-2 2-1.1 0-2-.5-2-1 0-.6-.8-1-1.8-1-2 0-4.6 4.5-3.6 6.1.3.6-.2 1.6-1.2 2.3-1.5 1.1-1.6 1.8-.6 4.2.6 1.6 1.3 4.5 1.4 6.4.2 2.7.7 3.5 2.3 3.5 1.5 0 2.1-.8 2.5-3 .3-1.8 1.1-3 2-3 1.2 0 1.4-1.1 1.2-4.8-.3-3.9 0-5.1 1.7-6.6 2.1-1.9 2.9-7.1 1.1-7.1-.5 0-1 .9-1 2M684 177.8c0 .6.5 1.2 1.1 1.4.7.2.7 1.2.1 2.8-.7 1.9-.5 3.1.7 5 2.4 3.5 2.7 9.2.5 8.8-.9-.2-1.9.3-2.1.9-.3.8.4 1.3 1.7 1.3 1.1 0 2 .6 1.9 1.2-.1.7.2 2.4.8 3.8s1.3 3.2 1.6 4c.4 1.1.6 1 .7-.5l.1-2 .9 2c.7 1.8.9 1.6 1.5-1.3.4-1.7 1.4-3.2 2.1-3.2.8 0 1.4-.8 1.4-1.9 0-1 .6-2.4 1.4-3 3.2-2.7.1-12.1-3.9-12.1-.9 0-1.3-.5-1-1.1.4-.6-.2-1.3-1.4-1.6-1.1-.3-2.3-1.4-2.6-2.4-.4-1-1-1.9-1.5-1.9s-1.5-.3-2.4-.6-1.6-.2-1.6.4M708.6 194.1c-1.5 2.2-1.6 2.2-1.6.4-.1-2-.1-2-1.6 0-.9 1.1-2.5 3.8-3.5 6s-1.9 3.5-1.9 3c0-1.4-4 5.3-4 6.7 0 .6-.7 1.9-1.5 2.8-1.4 1.6-1.2 1.7 3.7 1.3 2.9-.2 7.3-.8 9.8-1.3s7.4-1.4 11-2c7.7-1.3 14-3.1 14-3.9s-6.4-5.1-7.4-5.1c-.5 0-1.6-.8-2.5-1.8-2.3-2.7-9.8-7.2-10.5-6.4-.4.3-1.1 0-1.5-.7-.7-1-1.2-.8-2.5 1M567 214.6c-4.7 3.6-10.1 8.1-12 9.9l-3.5 3.5 14-.1c12.9-.1 36.7-1.3 33.8-1.7-.7-.1-1.3-.9-1.3-1.7s-1.3-2.3-2.8-3.3c-1.5-.9-6.2-4.3-10.4-7.5-4.1-3.1-8-5.7-8.4-5.6-.5 0-4.7 2.9-9.4 6.5M567 230l-18.5.5.3 3.5c.2 1.9 1.2 6 2.2 9s3.2 10 4.9 15.5c1.8 5.5 3.6 11.4 4.1 13.1 1.1 3.3 4.6 15.8 6 21.1.4 1.9.4 3.3-.1 3.3s-.9-.8-.9-1.8c0-.9-.7-3.1-1.6-4.7-.8-1.7-2.2-5.9-3-9.5-1.4-6.3-10.7-37.4-12.4-41.5-.9-2.3-1.5-1.3-2.5 4.9-1.1 6.6-1.6 3.2-.6-4.5.5-4.1.6-7.7.2-8-1-1-36.1 1.7-37.2 2.8-.7.7 1.4 5.5 6.7 14.9 4.2 7.7 8 14.3 8.4 14.9 1.3 1.6 8.2 13.6 10.6 18.4l2.2 4.5 1.7-4c.9-2.1 2.6-10.4 3.7-18.4s2.5-15 3-15.5c.6-.6.8.3.4 2.5-.3 1.9-1.3 9.1-2.3 16-.9 6.9-2 12.7-2.3 13-1.7 1.3-1.8 6.6-.2 8.7 1.9 2.3 16.1 11.8 23.2 15.3 2.5 1.3 4.8 2.8 5.2 3.4.5.8 1.1.7 2-.2 1.4-1.4 3.2-1.6 2.3-.2-1.2 2 1.7 4.9 8 7.8 7.5 3.5 8.9 5.2 1.8 2.1-6-2.6-10.6-4-10.1-3.1.2.4 1.6 3.4 3.1 6.7s4.6 9.5 6.7 13.8c2.2 4.3 4 8.7 4 9.7 0 2.8.8 2.5 4.7-1.8l3.3-3.7-2.4 5.7-2.5 5.8h6.7c3.7 0 8.3-.6 10.2-1.3 7-2.5 14.9-8.9 18.2-14.9 1.2-2.1 2.6-3.8 3.2-3.8s.4-.5-.4-1-3.7-1-6.5-1.1c-9-.1-9.8-1.7-1-1.9 6.5-.2 15.3-1.5 12.2-1.9-.4-.1.8-1.5 2.8-3.2 3.1-2.8 3.5-3.7 3.6-8.3l.1-5.1 1.1 4.1 1.2 4.1 5.5-1.3c3-.7 6.7-1.3 8.2-1.4 2 0 3.9-1.4 7-5 5-5.9 6.6-6.5 3.8-1.5-2.5 4.5-2.5 4.5.8 4.5 1.5 0 4.5.7 6.7 1.5s5.5 1.4 7.4 1.5c2.7 0 3.2-.3 2.7-1.6-.4-.9-1.8-5.1-3.2-9.2-3.2-9.5-3.2-9.6-5.3-7.8-1.9 1.8-3.3 1.2-2.4-1 .4-1.2 0-1.2-2.1-.4-1.5.5-3.7 1.2-4.9 1.4-1.2.3-8.3 2.5-15.8 4.8-13.5 4.3-15.4 5.2-23 11.5-2.1 1.7-5.6 4.2-7.6 5.4-2.1 1.3-4.4 2.9-5.1 3.6-1.8 1.8-5.3 3.6-5.8 3-.2-.2 1.5-1.7 3.8-3.2 6.2-4 24.8-17.9 24.8-18.5 0-.3-3-2-6.7-3.7-15.3-7.1-19.1-8.5-21.3-7.8-2.1.7-2.1.6-.5-1.8 1.1-1.7 1.4-3.6 1-5.9-.3-1.8-1-9.8-1.5-17.8-.9-15.7-2.8-30-3.9-30-.4 0-2.2 3.9-4.1 8.7-3.7 9.6-16.4 41.3-20.3 50.8-1.4 3.3-2.8 6.8-3.1 7.7-.3 1-1 1.8-1.5 1.8-1 0 1-5.8 5.2-15 1.3-3 3-7.3 3.7-9.5s1.6-4.5 2-5c1.4-1.9 12.8-31.1 13.5-34.9.3-1 1.1-2.9 2-4.2.8-1.3 1.5-3.2 1.5-4.4 0-2.2 3.4-2.1-35-1"/><path d="M615.5 229.7c-3.9.2-7.3.9-7.7 1.6-1 1.5-.8 12.8.2 14.2.4.5 1.3 9.3 1.9 19.5.7 10.7 1.7 18.9 2.3 19.5.8.7.9.6.3-.3-.4-.8.1-2.1 1.4-3.3 1.2-1.1 2.1-1.7 2.1-1.3 0 .7 9.8-9.2 22.5-23 7.9-8.5 11.1-12.1 15.6-17.4.6-.8 1.5-2.9 1.9-4.7.7-3.3.7-3.3-3.6-4.4-4-1-20.6-1.2-36.9-.4M706 236.3c0 1.4-4 3.7-6.5 3.7-1.7 0-2.4 3.8-1.1 6.7.8 2.1 1 2.1 4.4.8 1.9-.8 4.3-1.5 5.4-1.5 1 0 1.6-.4 1.3-1-.3-.5 0-.7.8-.4s2.9-.4 4.7-1.4l3.2-2-4.2-3.1c-4.5-3.3-8-4-8-1.8M508.4 248c.4 3 1.1 7.7 1.6 10.5.5 2.7 1.2 7.1 1.5 9.8.7 5.5.5 5.3 11.4 11.9 4.7 2.9 8 5.3 7.4 5.5s-4.4-1.6-8.4-4c-10.7-6.3-11.1-6.4-10.4-2.4.3 1.7.6 7.4.8 12.4.1 5.1.6 9.3 1.1 9.3s5.3-2.3 10.7-5.1c9.2-4.8 9.7-5.3 8.7-7.3-.6-1.2-1.3-3.2-1.4-4.6-.2-1.4-2.3-6.1-4.7-10.5-8.9-16.1-15.9-28-17.4-29.5-1.4-1.4-1.5-1-.9 4M490.6 266.2c-.2 1.2-.9 6.1-1.5 10.8s-1.3 9.5-1.5 10.7c-.3 1.3-.2 2.3.2 2.3.9 0 4.7-2.6 11.8-7.9 9.4-7.2 9.4-6.4 1.2-11.7-4-2.6-7.8-5.1-8.5-5.6-.9-.7-1.3-.3-1.7 1.4M688 268.5c.7.8 1.7 1.2 2.4.8.6-.3.8-.3.4.2-.9 1 4.4 11.1 6.7 12.7.6.4 1 1.1 1 1.5.1 1.4 7.6 11.3 8.7 11.3.5 0 .7.4.4.8-.7 1.2 1.5 1.4 13.4 1.3 11.4 0 19-.8 19-1.9 0-.4-2.6-2.2-5.8-4-3.1-1.8-8.8-5.1-12.7-7.3-9.2-5.5-32-16.9-33.5-16.9-1 0-1 .3 0 1.5M502.5 282.5c-3.3 2.5-7.8 5.4-10 6.6s-4.2 2.3-4.4 2.5c-1 .9 2.3 3.3 5.6 3.9 1.9.3 4.3 1.1 5.2 1.6s3.8 1.8 6.4 2.9c4.1 1.7 4.9 1.8 5.4.5.7-2-.7-22.5-1.5-22.4-.4 0-3.4 2-6.7 4.4M531.5 293.8c-1.6.9-3.2 2-3.5 2.3s-2.1 1.1-4 1.8c-1.9.6-5 2-6.9 3.2l-3.3 2 7.6 4.5c4.2 2.4 11.1 6.4 15.3 8.9 8.2 4.7 9.3 5.2 9.3 3.4 0-.5-.5-.7-1.2-.3-.8.5-.9.2-.5-1 .7-1.7-1.8-12.1-3.3-14.1-.4-.6-1-2.6-1.4-4.5-.6-3.6-3.1-8-4.4-8-.4 0-2 .8-3.7 1.8M539 293.4c0 1.8 3.9 11.9 4.8 12.6.4.3 1.7 3.6 3 7.5 3.3 10.4 3.1 10.2 9.6 6.7 11.6-6.4 14.1-9.7 9.4-12.5-4.5-2.7-25.3-15-26-15.4-.5-.2-.8.3-.8 1.1M567.5 316c-.4.6-.9.8-1.3.6s-3.2 1.5-6.2 3.8c-3.9 3-5.5 4.9-5.6 6.7-.1 2.9 3.6 10 4.8 9.3.4-.3.8.3.8 1.2 0 1.4.3 1.5 1.2.6.8-.8.8-1.5-.3-2.8-.8-1-.9-1.5-.4-1.2.6.4 1.9-1.4 2.9-3.8 2-4.9 4.3-6.1 3.1-1.7-.4 1.6-1.1 4.6-1.5 6.8s-1 4.7-1.4 5.6c-.4 1-.3 2 .3 2.3.6.4.8 1.2.5 1.9-.2.7.5 1.8 1.6 2.5 1.7 1 2.1 1 2.5 0 .6-2.1 1.9-19.1 1.6-21.3-.2-1.1-.4-4.1-.5-6.8-.1-4.5-.8-5.8-2.1-3.7M572.5 326c.3 4.1.7 10 .8 13 .5 8.3 1.6 9.5 8.5 9.1 1.9-.1 2.1-.5 1.6-2.9-.3-1.5-1.6-5-2.9-7.7-1.3-2.8-3.4-7.7-4.6-11-3.2-8.8-4-8.9-3.4-.5M744.3 358.3c-2.4 2.8-6.3 7.9-8.7 11.2-2.5 3.3-6.1 7.8-8 10.1-4.2 4.7-4.9 8.1-2.2 9.8 1.1.6 2.7 1.9 3.7 2.8 1 1 3.6 2.9 5.8 4.2 2.2 1.4 4.2 3 4.6 3.6.3.5 1.2 1 1.8 1 1.2 0 3.7-14.6 3.7-21.2 0-1.5.4-2.9.8-3.2 1-.6 3.6-19.3 3.1-21.8-.3-1.4-1.4-.5-4.6 3.5M598 360c0 1.1-.7 2-1.5 2s-1.5.4-1.5 1c0 .5.5 1 1.1 1s.2.8-.9 1.7c-2.4 2-3.4 6.9-1.4 6.5.6-.1 1.2.2 1.2.7s-.6 1.2-1.2 1.4c-.8.3-.9.6-.2.6.6.1.9 1.1.7 2.3-.5 2.9 4.3 25.8 5 23.8 1-2.7 1.5-26 .6-25.5-1.5 1-2.1-4.1-1.1-8.6.5-2.4 1-3.5 1.1-2.4.1 1.6.4 1.5 1.7-1 1.4-2.7 1.4-3-.2-4.2-2.5-1.8-3.4-1.6-3.4.7M473.6 368.7c-1 7.6-.7 13.3.7 13.9.8.3 1.4 1.7 1.4 3.2.1 3.8.4 4.7 4.6 12.5 2.1 3.9 4 8.1 4.3 9.4.4 1.3.9 2.5 1.3 2.8 1.2.7 6.9-11.6 7.6-16.2.6-4 .5-4.4-2.2-5.5l-2.8-1.2 2.8-.4c1.5-.2 2.7-.6 2.7-1 0-.9-4.6-6.2-5.4-6.2-.9 0-4.6-3.8-4.6-4.8 0-.4-2.2-3.1-4.9-5.9l-4.9-5.1zM587.7 370.4c-.4 1-.7 3.6-.7 5.9 0 4.6-1.2 7.2-3.2 7.2-.7 0-1.5 1.1-1.8 2.5s-1.3 4-2.3 5.8c-1.2 2.1-1.7 5-1.6 7.7.2 2.8-.3 5.1-1.5 6.6-.9 1.3-1.4 1.8-1 1 .5-1 .3-1.2-.5-.7-.7.5-1 1-.8 1.3.3.2-.1 2-.9 3.8-1.7 4.1-1.9 16.6-.3 18.2.8.8.8 1.6 0 3-1 1.7-1 1.7-1.1 0 0-3.1-1.5-1.8-1.7 1.7-.3 4.3 1.7 6.3 4.6 4.4 1.2-.7 2.1-1.6 2.1-2 0-.5.7-.8 1.5-.8 1.3 0 1.9-1.2 1.6-3.2 0-.4.6-.5 1.4-.2.9.4 4.3-2.2 9.2-7.1 8.5-8.5 8.6-8.9 6.2-19.5-.6-2.5-1.3-5.9-1.6-7.5-.2-1.7-.8-4.6-1.4-6.6-.5-2-1.3-5.8-1.9-8.5-2.1-10.1-3.6-14.8-4.3-13M542.3 387c-1.2.5-4.7 4.2-7.6 8.2-3 4-6.6 8.4-8.1 9.7-4.9 4.6-3.8 5.2 12.1 6.7l7.2.6.6-3.9c.4-2.1 1-4.9 1.5-6.3.8-2.3 3-13.3 3-15.2 0-1.1-5.9-.9-8.7.2M720.5 391c-3.1 8.3-5.1 16.6-4.1 17.2.7.5.5.8-.6.8-1 0-1.8.4-1.8.9 0 1.1 4.5.1 20.8-4.5l5.4-1.6-5.9-4.5c-3.2-2.5-7.1-5.2-8.8-6-1.6-.9-3.3-2.1-3.7-2.7-.5-.7-.9-.5-1.3.4M495.7 397.3c-2.5 4.3-6.9 14.8-6.4 15.4.3.2 16.5-1.3 23.5-2.2 2.3-.4 4.2-1 4.2-1.4s-3.4-3.3-7.5-6.6c-4.1-3.2-7.5-6.2-7.5-6.6 0-.5-.9-1.3-1.9-1.9-1.7-.8-2.3-.4-4.4 3.3M615 416.1c-4.1.5-8.5 1.1-9.8 1.4l-2.3.6 3.1 3.7c1.7 2 4.9 6.2 7.2 9.2s6.8 8.2 9.9 11.5 7 7.6 8.5 9.5c1.6 1.9 3.4 3.9 4 4.5.6.5 2.8 3.1 4.9 5.7 2 2.7 4.2 4.8 4.8 4.8 1.8 0-.8-26.2-3.5-35.3l-1.1-3.7-2.4 2.2c-1.2 1.2-2.3 1.7-2.3 1.1s-.9-1.3-2-1.6c-3.6-.9-2.5-4.5 1.9-6.3 3.4-1.3 6.1-4.6 6.1-7.4 0-1.2-16.3-1.1-27 .1M648.6 416.9c-.4.5.6 2.4 2.1 4.3 4.7 5.8 16.7 17.8 17.9 17.8.6 0 1.8-1.2 2.5-2.8 1.9-3.7 7.2-11.6 8.2-12 .4-.2.7-1.2.7-2.2 0-1.3-1-2-4-2.5-2.2-.4-4.2-.7-4.5-.7-.2 0-2.8-.6-5.7-1.4-6-1.6-16.4-1.9-17.2-.5M588.3 430.7c-6 6-12.7 12.3-14.8 14.2-2.7 2.3-3.5 3.6-2.6 3.9 1 .3 1 .6.1 1.2-.7.4 2.5 1.1 7.1 1.5 4.6.3 11.1 1.1 14.4 1.6s7.7.9 9.8.9h3.9l-.7-6.8c-.4-3.7-1.1-8.5-1.5-10.7-.5-2.2-1.4-6.8-2.2-10.3-.7-3.4-1.6-6.2-1.9-6.2-.4 0-5.6 4.8-11.6 10.7M604.7 425.2c.5.7 1 2.5 1.2 4 .6 6.1 9.6 34.3 14.1 44.3 1 2.2 2.6 6.8 3.6 10.2 1.1 3.5 2.2 6.2 2.5 6 .4-.1 4.5-3.9 9.3-8.3 7.8-7.4 10.7-11.8 7.4-11.2-.8.2-1.2-.6-1.1-1.8.2-1.5-3.8-6.7-13-16.9-7.3-8.2-15.4-17.7-18-21.2-2.7-3.4-5.3-6.3-5.9-6.3-.7 0-.7.5-.1 1.2M644.7 483c-1 5-3.1 13.1-4.8 18.1-1.8 5.2-2.8 9.7-2.4 10.7.5 1.2.9 1.3 1.2.4.3-.6 1-1.2 1.7-1.2 1.4 0 28.2-12.5 30-14 1-.8-.8-3.1-7.8-9.8-11.9-11.5-13.8-13.2-15-13.2-.6 0-1.9 4.1-2.9 9M635.7 483.7c-4.2 4.3-7.7 8.6-7.7 9.6 0 1.1.7 3.1 1.5 4.5.8 1.5 2.1 4.4 2.8 6.4.6 2 1.6 3.8 2 4 1 .3 3.8-7 7.2-18.2 2.8-9.4 3.7-14 2.7-14-.5 0-4.3 3.5-8.5 7.7M625.6 502.5c-.4 1.9-1.1 3.5-1.5 3.5-1.2 0-6.1 12.4-5 12.6.2 0-.4.9-1.4 1.9s-1.6 2.6-1.4 3.7c.3 1 .1 1.6-.4 1.2-1-.6-1.2.9-.3 1.9.8.8 5.6-1.7 7.4-3.8.7-.9 3.7-3.2 6.7-5.2 2.9-1.9 5.3-3.6 5.3-3.8s-.6-1-1.2-1.7c-2-2.1-6.3-11.5-6-13.1.1-.4-.2-.7-.7-.7s-1.2 1.6-1.5 3.5M316.6 147.6c-9.8 9.6-17.6 17.7-17.4 18 .2.2 5.1-1 10.9-2.7 5.7-1.7 13.3-3.9 16.9-4.8 15.3-4.2 26-7.2 32.5-9.1 3.9-1.2 7.6-2.2 8.3-2.2 1.3-.1 1.7-1.8.3-1.8-.5 0-6-2.4-12.2-5.4-10.2-4.8-20.9-9.6-21.3-9.6-.1 0-8.2 7.9-18 17.6M262.7 160.2c-9.4 14.8-20.7 34.2-20.7 35.4 0 .2.9 0 2-.6 1.1-.5 2.8-1.4 3.8-1.9 3.6-1.8 29.8-16 36.5-19.8 3.7-2.1 6.8-4.3 6.8-4.8.1-.9-19.3-8.9-24.8-10.2-1.5-.3-2.6.2-3.6 1.9M283.5 175.3c-3.3 1.9-9.8 5.4-14.5 7.9-16.4 8.8-22 12-22 12.7 0 .4-1.6 1.3-3.5 2-5.1 1.8-4.9 2.4 4.3 10l6.2 5.2 4.9-5.3c2.6-2.9 10.1-11.4 16.7-18.8 6.5-7.4 12.4-14.1 13.1-14.8 1.2-1.2 1.7-2.2 1.1-2.2-.2 0-3 1.5-6.3 3.3M285.4 180.3c-16.3 17.3-32.4 36.8-38.1 45.9-3.3 5.5-6.6 10.5-7.2 11.1-2.3 2.3-.8 5.5 6.9 13.7 4.3 4.6 8.1 8.2 8.3 8 .2-.3 3.8-6.5 8-13.8l7.6-13.3-3.2.6c-1.8.4-8.6 2.5-15.1 4.6-6.5 2.2-12.1 3.7-12.4 3.5-.2-.3 6.3-2.6 14.4-5.2 8.2-2.6 15.3-5 15.7-5.4s-2.3-3.3-6.2-6.4c-7.3-6-9.9-8.6-8.5-8.6.5 0 2.7 1.7 4.9 3.8 7.3 6.8 11.6 9.6 12.5 8.1.5-.7 3-7.4 5.6-14.8 2.6-7.5 6.7-18.9 9.1-25.5 2.4-6.5 4.2-12 4-12.2s-3 2.4-6.3 5.9M238.6 204.6c-.8 2.1-.8 19.5.1 26.2.6 5.1.6 5.2 2.2 3 .9-1.3 3.9-6.1 6.8-10.8l5.1-8.5-2.6-2.8c-1.5-1.6-4.6-4.2-6.9-5.8-3.4-2.4-4.2-2.6-4.7-1.3M231.8 228.3c-2.7 10.3-4.8 18.9-4.8 19.2s1.1-.2 2.5-1.1 2.5-1.2 2.5-.8c0 .5-1.3 1.6-2.8 2.5-2.6 1.5-2.9 2.3-3.5 8.5-1.4 14.5-.6 15.6 3.3 4.4 1.3-3.6 3.2-8.5 4.2-11 1.2-2.7 1.5-4.6.9-4.8s-.2-1.5 1-3.1c1.8-2.4 1.9-4 1.7-17.6l-.3-15zM288 228.4l-13.4 2.1-.8 3.5c-.8 3.9-2.3 66.8-1.6 66 .6-.5 13.2-23.9 21.1-39 2.7-5.2 7.8-14.7 11.3-21.1s6.4-12.1 6.4-12.8c0-1.6-7.4-1.2-23 1.3M308.9 234.9c-1.3 2.7-5 9.8-8.3 15.8-3.2 5.9-9.2 17.1-13.4 24.8-4.1 7.7-9.2 17.2-11.3 21.1-3.6 6.7-3.7 7.3-2.1 8.6 1.9 1.7 38.8 22.8 39.8 22.8.3 0 .4-11.9.2-26.5-.3-22.9-.5-26.6-1.9-27.7-2.7-2.1-3-5.8-.7-8.8 1.9-2.6 2-3.9 1.6-18.4-.2-8.5-.6-15.8-.9-16.1s-1.6 1.7-3 4.4M268.8 238.7c-1.4 2.7-4.8 8.7-7.6 13.5l-5 8.6 1.4 4.4c.8 2.4 2.1 5.6 2.8 7.3.8 1.6 2.4 6.5 3.6 10.8 1.1 4.2 2.9 9.4 3.8 11.5l1.6 3.7.9-12.5c.7-9 .6-13-.3-14.3-.7-1.2-.8-2.3-.2-3 .9-1.1 2.7-34.7 1.9-34.7-.2 0-1.5 2.1-2.9 4.7M236.1 246.2c-2.3 5.9-10.1 26.9-10.1 27.4 0 .2 3.3-1.2 7.3-3.3 10.2-5.2 16.7-8.3 16.7-7.8 0 .2-5.4 3.2-12 6.6-6.6 3.5-12 6.5-12 6.9 0 .6 10.5 7.6 20.5 13.5 3.9 2.3 9.9 6.1 13.5 8.3 6 3.8 6.5 4 6.8 2.2s-2.6-12.3-4.8-17.5c-.5-1.1-1.1-3.1-1.4-4.5s-1.6-5.7-3-9.5c-2.2-6.1-2.8-7-4.8-6.7-1.8.1-2 0-.8-.7 1.1-.8.2-2.3-5-7.8-3.5-3.7-7.1-7.6-8-8.6-1.5-1.6-1.6-1.5-2.9 1.5M226.4 280.5c.3 1 2.2 6.8 4.2 12.9 1.9 6.1 3.7 11.7 4 12.5.3 1.1 1.8 1.2 6.6.7 3.3-.3 7.4-.6 8.9-.6 1.6 0 2.9-.5 2.9-1 0-.6-1-1-2.2-.9-4.3.4-5.8-.1-5.2-1.5 1.2-3.2 8.4-2.2 8.4 1.1 0 1.4 3.4 1.5 8.5.4 2.7-.6 1.6-1.4-16-12.6-21.2-13.5-21.1-13.4-20.1-11M221.6 287.9c-1 4.4-2.4 9.1-3.1 10.5-1.6 3.1-.6 4.1 5.7 6.1 2.4.7 5.1 1.6 6.1 2 1.3.6 1.7.2 1.7-1.7 0-2.7-6.5-22.7-7.8-24-.5-.5-1.6 2.8-2.6 7.1M252.5 306.7c-7.1.8-14 1.6-15.3 1.9l-2.2.4 2.2 4c6.5 11.4 17.1 27.1 17.8 26.3.5-.4 2-3.5 3.4-6.8 3.2-7.7 3.3-6.2.1 2.7l-2.5 6.9 2.6 1c2.4.9 14 2.8 17.3 2.9 1.5 0 1-6.4-1.6-18.5-.8-3.9-1.8-9.3-2.3-12.2-.9-5.5-3.5-10.4-5.4-10.2-.6.1-6.9.8-14.1 1.6M271.4 307.8c.3.6 1.5 5.9 2.7 11.9 3.3 17.4 5.1 25.3 5.8 25.8.7.4 29.8-13.9 31.3-15.3.6-.7-35.9-22.4-38.9-23-.8-.2-1.3.1-.9.6M298 339.6c-8.5 4.2-15.7 7.7-15.9 8-.5.4 3.7 4.4 9.5 8.9 9.3 7.3 14.6 10.7 15.4 9.9.7-.8 2.2-7.9 5.1-24.9.6-3.3 1.2-6.8 1.4-7.8.2-.9.2-1.7.2-1.7-.1 0-7.2 3.4-15.7 7.6M258.7 345.6c-.3.3-.2 1.6.3 2.9.6 1.5.3 4.1-1 8.1-1 3.3-1.9 5.4-2 4.9-.2-1.4-3.9 11.6-4 13.8 0 1.9 7.7-5.8 12.8-12.7 1.2-1.7 4.5-5.4 7.2-8.2 2.8-2.9 5-5.4 5-5.7s-3-1-6.7-1.6c-3.8-.7-7.7-1.4-8.9-1.6-1.2-.3-2.4-.2-2.7.1M279 351.7c0 .9-1.5 6.6-3.4 12.7-3.9 12.7-7.6 26.1-7.6 27.7 0 1.5 3.5.2 10.1-4 3.2-2 8.7-5.4 12.3-7.6 5.6-3.4 6.5-4.2 6-6.2-.5-1.7-.2-2.3 1.1-2.3 1.1 0 1.5.5 1.1 1.6-.5 1.2.3 1 3.4-.7l3.9-2.2-6.4-5.1c-13-10.5-20.5-15.5-20.5-13.9M274.3 356c-.3 1.1-.9 1.7-1.4 1.5-.4-.3-1.5.5-2.3 1.7-.9 1.3-5.4 6.3-10.1 11.3-4.6 4.9-8.5 9.5-8.5 10 0 1.2 11.8 13.5 12.9 13.5.4 0 1.5-3.3 2.5-7.3 1-3.9 2.9-10.8 4.2-15.2 2.6-8.7 4.4-17.5 3.7-17.5-.3 0-.7.9-1 2M201.7 381.3c-7.2 14.3-17.9 34.3-21.2 39.8-3.9 6.3-5.8 10.9-4.7 10.9.8 0 9.8-5.4 22.2-13.4 17-11.1 15.6-9.6 15.5-16.6-.4-16.9-.6-20.1-1.4-19.5-1.3.8-2.5-1.4-2.5-4.8-.1-2.2-.6-3.1-2.1-3.3-1.7-.3-2.8 1.1-5.8 6.9M247.1 391.6c-1.7 4.7-3.1 9.1-3.1 9.8 0 1.1 1.7.9 7.3-.9 4-1.2 8.3-2.8 9.5-3.4 2.2-1.2 2.1-1.3-3-7.1-2.8-3.3-5.7-6.1-6.4-6.4-.8-.3-2.3 2.5-4.3 8M199.3 419.3c-6.6 4.5-14.9 9.9-18.3 12s-6 4-5.9 4.2c.2.2 6.7.6 14.4 1 19.4 1.1 20.9 1 20-.5-.3-.5-.1-1.9.5-3.1 1-1.7.8-2.3-.7-3.4-1-.7-1.4-1.7-1-2.2.9-.8 1.3-.9 4.2-1.2 2-.1 2.2-15.1.3-15-.7 0-6.8 3.7-13.5 8.2M215.7 438c-2.4 31-3.5 63.2-2.2 61.8.3-.3 1.2-3.8 2-7.9s2.3-11 3.3-15.4c1.7-7.4 1.8-9.1.5-22-.7-7.7-1.7-16.7-2.1-20l-.8-6zM176.4 439.3c10.1 7.6 13.2 9.7 14.7 9.7.9 0 4.7-1.4 8.5-3.1 3.7-1.7 7.9-3.5 9.2-4 1.4-.5 2.2-1.2 2-1.5-.4-.4-34.9-3.5-36.8-3.3-.3 0 .8 1 2.4 2.2M210 465.6c-1.1 2.6-2 5-2 5.5s-1.7 5.3-3.9 10.8l-3.8 9.9 5.8 5.8 5.9 5.8.1-17.4c0-9.6.1-19.2.3-21.3.2-2 .2-3.7 0-3.7s-1.2 2.1-2.4 4.6M219.1 481.3c-2 8.2-3.9 18.2-3.6 18.5.2.2 1.5-1.9 2.9-4.7 1.5-2.8 2.9-5.1 3.2-5.1s-1.2 3.4-3.4 7.5l-3.9 7.5 3.6 1c2 .5 4.5 1 5.7 1s3.5.5 5.3 1.1 3.5.9 3.8.6c.6-.6-1.5-5.3-6.7-14.6-1.8-3.4-3.2-7.8-3.6-11.3-.4-3.2-1-6-1.4-6.3-.4-.2-1.2 1.9-1.9 4.8M554 602.3c0 .5 2.9 3.9 6.3 7.5 3.5 3.7 8 8.5 10 10.6 2 2.2 3.9 3.7 4.2 3.4.7-.7 1.1-2.6 1.9-10.3.4-3.3.9-6.7 1.2-7.7.4-1.3-.5-1.7-4.3-2.2-12.2-1.7-19.3-2.2-19.3-1.3M580 607.2c-.1 1.8-.7 6-1.5 9.3-1.8 7.5-1.8 7.5 0 7.5 2 0 9.5-4.7 9.5-6 0-.5 1.6-1.6 3.5-2.4s3.5-1.8 3.5-2.1-.4-.3-1 0c-.5.3-1-.1-1-.9 0-.9-.4-1.6-.9-1.6-1.2 0-4.1-2.9-4.1-4.1 0-.5.8-.9 1.8-.9 1.4 0 1.5-.2.2-1-.8-.5-3.4-1-5.7-1-4.2 0-4.3.1-4.3 3.2"/></svg>