<svg xmlns="http://www.w3.org/2000/svg" width="1706.667" height="960" viewBox="0 0 1280 720"><path d="M0 360v360h418.5c403.2 0 418.5-.1 418.5-1.8 0-1-1.1-4.7-2.5-8.2-1.4-3.6-2.4-6.9-2.2-7.4.2-.6 1.6 2.1 3.1 6 1.5 3.8 3.4 7.9 4.2 9.1l1.4 2.3h439V0H0zM614.2 54.8c.2.4 4.8 2.2 10.3 3.9s13.6 4.4 18 5.8c24 7.9 38.9 12.5 40.7 12.5 1.1 0 2.5.6 3.2 1.3.8.7 6.7 3.2 13.2 5.6 6.6 2.3 16.4 6 21.9 8.2 5.5 2.1 10.6 3.9 11.3 3.9.6 0 1.2-1 1.3-2.3.1-2 .2-1.9 1.1.5.7 2.1 1.6 2.8 3.6 2.8 1.8 0 2.3.3 1.4.9-1.1.6-1.1 1 0 1.8 2.4 1.8 42.3 21.3 43.7 21.3 1.1 0 1.2-1.7.6-8.8-.7-8.5-.2-11.1.8-4.2.8 5.1 2 14.3 2.2 16 .1.8 1.4 3.5 3 6s6.6 10.8 11.1 18.5c9.2 15.7 10.3 17.5 17.4 29.3 2.7 4.6 5 8.5 5 8.8 0 1.2 4.8 5.5 5.3 4.8.2-.5 1.2-3.5 2.1-6.8 1-3.2 1.9-5.6 2.2-5.3.6.6-2.5 10.8-3.7 12.1-.4.5-.4 1.7.1 2.7.8 1.5.5 1.7-2.8 1.6-3.2-.1-19.4 2.2-27.2 3.8-4.5.9-37 5.5-39.3 5.5-1.5 0-2.6.9-3.4 2.7-4 9.2-5.5 13.2-8.4 22-1.8 5.4-3.9 10.7-4.7 11.8l-1.4 2 .7-2c5-14.2 11.6-34.8 11.2-35.2-.3-.3-5.2 0-10.9.6-5.7.7-13.9 1.5-18.3 1.9l-8 .7-.3 4.7c-.2 2.6.2 8 .8 12 1.5 10.5 2.8 25.3 3.4 40.3.5 13.4 2.2 24.3 3.6 22.8 1.4-1.6 11.3-30.9 11.5-34.1.1-1.8 1.1-4.1 2.3-5.2 1.1-1.1 2.3-2.8 2.7-4 .3-1.1 1-2 1.5-2 .4 0-1 4.4-3.2 9.7-2.2 5.4-5.2 13.6-6.8 18.3s-4.2 11.9-5.9 16.2c-1.7 4.2-3.1 8-3.1 8.6 0 .5 3.7 4 8.1 7.8 11.1 9.4 18.6 16.4 17.6 16.4-.5 0-2.7-1.8-5-3.9s-6.8-6-9.9-8.6c-3.2-2.5-5.8-5-5.8-5.4s-1.2-1.3-2.7-2c-2-.9-2.8-.9-3.4 0-.4.8-.9.4-1.4-1-.7-2.2-.9-2.2-14.3-1.6-21.9.9-24.1 1.3-23.5 3.6.3 1 0 1.9-.6 1.9s-1.1-.4-1.1-.9-.9-.7-2-.4c-1.4.4-2 0-2-1 0-.9-.8-2-1.7-2.6-2.3-1.2-22.3-5.4-22.9-4.8-.3.3.1 2.6.7 5.3 1.4 5.5 6.2 14.1 9.3 16.6 1.9 1.6 2.3 1.6 4.6.1 1.4-.8 3.3-2.5 4.2-3.7 2.2-2.7 2.3-1.4.2 2.6l-1.6 3.2 3.8 3c6 4.7 14.4 13.3 14.4 14.6 0 .7.7 1 1.5.6.9-.3 1.5 0 1.5.8s1.4 1.6 3 1.8c1.9.3 3 0 3-.7s.9-2 2.1-3.1c1.1-1 3.6-4.5 5.4-7.9 1.9-3.3 3.5-5.6 3.5-5.1s-2 4.4-4.5 8.7-4.5 8.3-4.5 8.8c0 .6 1.5 1.5 3.3 2l3.2.9-4.1.1c-4 .1-4.2.3-4.9 3.7-.6 3.4-.1 15.2 1.1 27.3l.6 5.3 2.8-2.7c1.6-1.6 2.6-3.3 2.3-3.9s-.3-.8.1-.4c.5.4 2-.6 3.4-2.1 15.8-16.7 18.2-18.8 18.2-16.1 0 .5-.6 1.3-1.3 1.7-1.3.8-21.2 23-25 27.8-1.7 2.3-1.7 2.3 6 8.8 8.4 6.9 11.9 9.1 13.2 8.3.5-.3 1.1-2.7 1.4-5.3 1-8.3 3.6-23.7 4.7-27.3.6-1.9 1.3-7 1.5-11.3.5-7.3.4-7.8-1.7-8.7-2.2-1-2.2-1 .5-.7 2.3.4 2.7.1 2.7-2.1 0-2.3.1-2.4 1.3-.9 1.3 1.8 2.1 1.5 20.8-10.7 3-2 6.1-3.6 6.8-3.6q1.2 0 .6-2.1c-.6-1.8-.4-2 1-1.1 1.8.9 6.1-1 35.3-16.5 6.8-3.6 12.5-6.3 12.8-6 .6.5-5.7 3.9-30.3 16.4l-17.3 8.7v20c0 14.5-.3 19.7-1.1 18.9-.7-.7-1-6.9-.7-19.1.3-19 .3-19.3-4.2-15.7-.8.7-4.6 2.9-8.4 5s-8.4 5.2-10.3 6.8c-3.2 2.8-4.4 5.7-2.3 5.7.5 0 2.2 1.2 3.8 2.7 14.3 13.8 19.6 18.4 20.9 17.9.8-.3 1.2-.2.9.3s0 1.1.8 1.4c1.5.6 5.2-2.3 17.6-13.8 4.8-4.4 10.7-9.7 13.2-11.9 2.5-2.1 5-4.8 5.6-6 .5-1.1 3.3-5.3 6.2-9.1 2.9-3.9 5.7-8.1 6.3-9.5 1.3-2.9 7.7-12 8.4-12 .5 0-.2 1.2-3.7 6.5-1.5 2.2-3.7 6-5 8.5-1.2 2.5-2.7 4.8-3.2 5.1-1.9 1.2-7.8 11.4-7.3 12.7.2.7-.6 1.7-1.9 2.1-2.5 1-8.2 5.8-19.2 16-3.9 3.6-8.8 7.9-10.8 9.4-2.2 1.8-3.5 3.5-3.2 4.3.3.9-.2 1.4-1.4 1.4s-2.2.9-2.5 2.2-.9 4.4-1.5 7c-.6 2.7-2.2 8.7-3.6 13.5-1.5 4.9-2.9 10.1-3.1 11.8-.6 3.8-3 9.2-4.5 10.1-.8.5-.9.1-.4-1.2 3.8-9.7 11.9-39.1 11.1-40.4-.3-.5-5.6 2.9-11.8 7.5-6.2 4.7-13.6 10.1-16.4 12-2.9 2-5.3 4.2-5.3 5 0 1-1 1.5-2.9 1.5-3.5 0-12.3 2.1-25.1 6.1-5.2 1.6-14.8 3.8-21.3 4.9s-12.3 2.3-12.8 2.6c-.6.3-.7 1.5-.3 2.7.6 1.8.4 2-.7 1-1.8-1.5-2.9-.7-5.8 3.9-3.3 5.5-3.7 4.7-.6-1.1 3.1-5.6 2.7-7.1-1.7-7.1-1.7 0-6.8-.6-11.2-1.4-13.6-2.4-16.6-2.6-16.6-1 0 .8 4.7 6.2 10.5 12.2l10.5 10.7 2-2.5c1.1-1.4 2-3.1 2-3.8 0-.6.5-1.2 1.1-1.2 1.1 0 .7.9-2.2 5.1-2.3 3.2-1.1 5.1 4.5 7.4 2.1.9 3.6 1.8 3.3 2.1s-2.4-.4-4.8-1.6c-3.3-1.7-4.7-2-6-1.2-1.4.9-1.6.8-1.2-.7.3-1.3-2.5-4.9-9.7-12.2-5.6-5.7-10.6-11-11.1-11.9-.8-1.3-1.1-1.3-2.4.4-1.4 1.8-1.5 3.4-.2 6.6.8 2 2.7 17.6 2.6 20.9 0 1.4-.7-.6-1.4-4.6s-2-8-2.9-8.8c-.9-.9-1.6-2-1.6-2.4 0-.3-1.3-1.2-3-1.8-3.8-1.4-3.8-3.8 0-5.8 3.1-1.6 5-4.3 5-6.9 0-1.3-1.2-1.6-6.1-1.6-8.3 0-30.2 2-31.1 2.9-.4.4.9 2.7 3 5.2 2 2.5 5.1 6.3 6.7 8.4 1.7 2.1 6.4 7.7 10.5 12.4 4.2 4.8 8.3 9.7 9.2 11s4.2 5 7.3 8.2l5.5 5.9-.4-9.8c-.5-8.5-.4-9 .4-3.7.5 3.3 1.5 7.7 2.1 9.8 1.2 3.7 1.3 3.8 5.3 3.3l4.1-.5-3.9 1.3c-2.2.7-4.2 1.8-4.4 2.4-.4 1.3 21.7 23.2 23.5 23.2.7 0 2.4-2 3.9-4.5 3.4-5.9 4.2-5.8 1.1.2-1.4 2.7-2.8 5.6-3.1 6.6-.3.9-1.4 1.7-2.5 1.7-2.9 0-34.1 15.2-34.1 16.6 0 .7-.8 1-2 .7s-2.8.1-3.8 1.1c-.9.9-4.4 3.8-7.7 6.4s-7.7 6.4-9.8 8.4c-2.2 2.1-4.4 3.8-4.9 3.8s-2.6-1.1-4.6-2.5-4-2.5-4.4-2.5-5.6-2.3-11.4-5c-5.8-2.8-11-5-11.5-5-1.7 0-13.4 4.2-14.6 5.2-.8.7-1.9.5-3.5-.6-1.2-.9-2.8-1.6-3.6-1.6-.7 0-2.6-.9-4.1-2.1-2.8-2-2.9-2.1-5.7-.3l-2.9 1.8 2.8-2.7c2.7-2.6 2.7-2.6 2.7-16.8 0-14.9.6-18.4 1.1-6.2.3 7.6 2 12 3.3 8.6.4-1 1-5.5 1.3-10.1.3-4.5.9-8.2 1.4-8.2.4 0 .5 3.7.3 8.2l-.4 8.3 2.2-3.5c1.2-1.9 3.2-4.3 4.4-5.2 1.2-1 2.7-3.1 3.4-4.8 1.2-2.8 1.4-2.9 2.6-1.3.8 1 1.9 3.5 2.4 5.7.6 2.1 1.4 3.5 1.7 3.2s1.2-.1 1.9.5c1.7 1.4 2.9-4.6 2-10.6-.7-4.3-.6-4.5 2.1-5 1.5-.3 4.6-1 6.7-1.5 2.2-.5 4.3-.7 4.8-.4.4.3 2.8-.9 5.3-2.6s4.5-2.6 4.5-1.9c0 .6.8.9 1.8.6 9.9-3.2 12.4-3.6 11.8-2-.5 1.3-.4 1.3.8.4 1.1-.9 1.5-.6 2.1 1.6.4 1.6.9 2.3 1.1 1.7.5-1.3-3.9-18.2-5.5-21.3-.7-1.2-.8-2.1-.2-2.1.5 0 1.8 2.8 3 6.2 3.9 12.1 10 26.3 11.2 26.3 1.6 0 17.7-14.7 17.8-16.3.1-.6-.7-1.2-1.7-1.2s-2.7-.7-3.8-1.5c-1.8-1.4-1.8-1.4.9-1.5 1.7 0 2.6-.4 2.2-1.1-.4-.6-1-.8-1.3-.5s-1-.3-1.6-1.3c-2.2-3.8-10.1-13.8-17.3-22-4.1-4.6-9.7-11.2-12.5-14.8-2.8-3.5-5.3-6.2-5.5-5.9-.7.7 2.5 13.1 4.9 19.1 3.3 8.1 4.7 12.5 4.2 12.5-.2 0-1.1-1.8-2-3.9-1-2.7-2-3.8-3-3.4-1.8.7-1.9 8.3-.1 8.4q1.5 0 0 .6c-.7.2-1.4 1.9-1.4 3.6-.2 3.1-.2 3.1-.6.4-.2-1.5-1.2-3.1-2.2-3.7-1.4-.7-28.6-2.9-37.1-3-.8 0 .6 2.1 3.3 4.8 5.3 5.3 6.5 8 1.5 3.1-6.2-6-12.4-7-14.7-2.6-1 2-1 2-.5-.5.7-3.2-.2-3.5-10.9-4.2-5.5-.3-7-.1-8 1.3-2.1 3-3.8 3.5-2.9.9.5-1.3 1-4.6 1.1-7.3.2-4.3 1-8.9 3.6-20.3.3-1.3 1-2 1.5-1.7s.6 1.3.3 2.3c-.4 1.3-.3 1.4.6.6.6-.6 1.6-3.5 2.1-6.5s1.2-6.4 1.6-7.5c.5-2 .1-2.2-7.3-3-13.2-1.3-12.7-1.4-13.5 3.1-.3 2.2-1 10.3-1.4 18-.3 7.7-.9 14.2-1.1 14.5-.3.3-.2-8 .2-18.4l.7-18.9-3.3.6c-1.9.4-7.2 1.1-11.9 1.7-4.7.5-9.9 1.3-11.7 1.5l-3.2.6 2.5 3.6c1.3 2 2.4 4 2.4 4.6 0 1.4 4.2 9.7 5 9.7.3 0 2.7-2.3 5.4-5.1 2.6-2.8 4.9-4.9 5.2-4.7.2.2-2.1 3.1-5.1 6.3s-5.5 6.5-5.5 7.2-.6 1.3-1.4 1.3-1.2-.7-1-1.8c.6-2.1-5.6-15.1-9.5-20.1-3.7-4.8-4.7-6.6-3.3-5.7 1.9 1.1 1.5-.2-2.8-9-2.2-4.6-4-8.8-4-9.5 0-1-.3-1-1.1-.2-.7.7-1 3.6-.7 7.7.3 4.6.1 6.3-.7 5.5-1-1-1.3-13.2-.6-28.9.3-7.3-1.3-48.6-2.1-53-.1-.8.1-5.7.6-10.9.6-6.3.5-9.5-.2-10-.7-.4-.8-2.2-.2-5.1.4-2.5 1.4-7.7 2.1-11.7 1.5-9 2.8-8.8 1.7.3-.5 4.4-.4 7.2.3 8s.7 1.4 0 1.9c-.6.3-1.1 2-1.1 3.8 0 33.8.2 38.7 1.9 38.7 1.1 0 5.6-8.9 4.8-9.6-.4-.4-.2-1.3.4-2 .8-1 .5-2.1-1-4.3-1.2-1.6-2.1-3.7-2.1-4.8 0-1.3.7-.8 2.2 1.7l2.2 3.5.6-4 .6-4 .7 3.7c.9 4.2 2.4 4.5 6.7 1.5 1.3-.9 2.8-1.7 3.2-1.7.3 0 1.8-.4 3.2-1l2.6-1-3.4-4.8c-1.9-2.6-4.4-5.6-5.5-6.7-1.2-1-2.1-2.4-2.1-3.2 0-.7 1.5.3 3.2 2.4 8.5 9.9 9.9 10.8 15.4 10.5l5.1-.4-.6-3.6c-.6-3.4-1.2-4-7.1-6.9-3.6-1.8-10.2-4.4-14.8-5.8l-8.2-2.7 1.4-2.6c1.2-2.4 4.5-21.8 4.4-26.7 0-1.1.5-3.8 1.2-6 2-7 4-19.8 3.8-24.7-.2-2.8.3-5.3 1-6 1.1-1.1 1.2.3.7 7-.4 4.6-1.2 10.9-1.9 14-.6 3.1-1.1 7.5-1.1 9.6 0 3.7.4 4.2 6 8.1 10.3 7 9.9 7.3 9.2-5.2-.6-12 .8-9.1 1.8 3.7.4 4.2.9 8.1 1.3 8.6.9 1.3 20.2 11.7 20.8 11.2.2-.3-1.7-3.6-4.2-7.4s-7.8-13.3-11.7-21.1-7.3-14-7.6-13.8c-.2.3-.7 2.2-1.1 4.2-.8 3.7-.8 3.7-.9-1.4-.1-5.5-.9-8.6-2-7.9-.3.3-2.6 4.3-5.1 9-2.4 4.7-4.5 8.4-4.7 8.2-.3-.2 1.6-4.5 4.1-9.5s4.6-10 4.6-11.1.6-3.1 1.4-4.3 1.7-6.1 2.1-10.9c.4-5.1 1.1-8.5 1.7-8.2 1.1.7-.1 12.4-1.9 18.8-.5 1.8-.1 1.9 4.8 1.3 3-.4 10.8-.9 17.4-1.3 6.6-.3 12.3-.9 12.7-1.3.6-.6-1-4.9-3.1-8.1-.6-.8-2-3.8-3.2-6.5-1.2-2.8-4.6-10.3-7.5-16.7-3-6.4-5.4-12.2-5.4-12.7 0-.6-.4-1.1-.8-1.1-.5 0-1.7-1.6-2.8-3.5-2.2-4.1-3-3.6-4.2 3l-1 5-.1-4.3c-.1-2.7-.5-4.1-1.2-3.7-.8.6 1.5-6.2 2.5-7.3.2-.2.1-1.6-.4-3.1-.6-2.2-.5-2.8.7-2.7.9.1 2.4-2.6 4.2-7.9 1.6-4.4 3.7-10.3 4.9-13 1.1-2.8 2.4-6.4 2.8-8 .4-1.8.9-2.4 1.1-1.4.2.9-.8 4.7-2.2 8.5-1.5 3.8-3.1 8.7-3.7 10.9s-1.5 4.4-1.9 4.9c-1.1 1.2-1.2 5.6-.1 5.5.4 0 3.9-3.7 7.7-8.1 3.9-4.5 9.7-11 12.9-14.5 3.3-3.5 6.9-7.7 8-9.2 3.9-5.2 9.8-11.3 10.4-10.7.3.4-1.7 3-4.4 5.9-2.8 2.8-12.2 13.2-20.9 23-11.4 12.9-15.7 18.5-15.7 20.3 0 1.4 1.4 4.7 3.1 7.5s3.1 5.2 3.1 5.4c0 1.4 14.4 31.1 16.9 34.9l2 3 1-2.5c.5-1.4 1.4-6.8 2-12 .7-5.2 1.8-12.8 2.6-16.9.7-4.1 1.9-10.9 2.5-15s1.8-11.1 2.5-15.5c6.1-34.4 6.9-41.5 5.1-41.5-.5 0-.1-.6.9-1.4 1.6-1.2 1.7-1.7.6-5.7-2.2-7.6-2.2-10.7-.1-4.2 1.1 3.5 2.5 6.3 3.1 6.3.9 0 11.2-9.1 16.9-14.9 1.4-1.4 9-8.7 16.9-16.1s16.8-16.1 19.9-19.3c3-3.1 6-5.7 6.5-5.7.6 0-2.6 3.5-7 7.7-27.7 26.9-48.1 46.4-49.8 47.7-1.1.8-1.7 1.7-1.4 2s7.9.1 17-.4c9-.5 22.2-1.3 29.2-1.6 8.5-.5 13.3-1.2 14.2-2 1.5-1.5 2.8-27.3 2.3-44.9l-.3-11-3 .3-3 .2 3.5-1.9c3.5-2 8.6-2.7 9.2-1.3m-270.9 50.8c-3 1.3-3.3 1.8-3.3 5.9 0 2.5-.4 4.5-1 4.5-1.3 0-5-3.7-5-5.1 0-1.3-1.4-.9-16.2 4.9-6.5 2.5-11.8 5-11.8 5.4s2.5 1.5 5.6 2.4c7.1 2 6.6 2.8-.6.9-6.7-1.8-9.4-1.9-8.4-.4.4.7.1 1-.7.7-1.3-.5-6.8 4.1-23.4 19.6-3.8 3.6-7.4 6.6-8 6.6-.5-.1.4-1.2 2-2.7 7.4-6.4 22.2-20.2 25.8-24.1 2.2-2.3 4.5-4.2 5-4.2 1.2 0 26.5-9.8 28.2-10.8 1.5-1 12.8-5 14-5 .6 0-.5.6-2.2 1.4m9.7 7.5c-1.4 1.1-5.3 4.3-8.8 7.2-3.4 2.8-6.8 5.4-7.4 5.8-.7.5-1 1.1-.6 1.4.6.6 4.6.1 33.7-4.5 7.4-1.1 14.1-1.9 15-1.8.8.2-7.7 1.8-18.9 3.7-11.3 1.9-21.7 3.8-23.2 4.3-2.3.8-4.5 3.5-3.6 4.4 1 1 24.6 11.6 26.7 12s5.6-1.5 17.8-9.9c8.4-5.8 17.7-12 20.7-13.9 3.1-1.8 5.6-3.8 5.6-4.4 0-1.6 2.5-2.4 6.8-2.3 2 0 3.1.3 2.5.6-.7.2-1.3.8-1.3 1.2s4.9 3.1 11 6.1c6 3 10.8 5.6 10.6 5.8s-5.4-2.2-11.5-5.2c-6.1-3.1-11.8-5.6-12.8-5.6-1.8 0-11.3 5.6-19.8 11.6-15.5 11-20.6 14.7-21.2 15.6-.4.8 11.4 1 38.3.7 45-.5 57.8.3 23.2 1.5-19.3.7-23.8 1.1-23.8 2.2 0 .8 1 1.4 2.6 1.4 1.5 0 2.3.4 1.9 1s-.3 1.6.2 2.3c.6.7 1.6 2.8 2.3 4.7 1.1 2.7 7.8 14.5 9.7 17 .2.2.8-.2 1.3-1 .6-.8 1-1.1 1-.5 0 1.6-1.3 3.1-3.2 3.8-1 .3-1.8 1.2-1.8 1.8 0 1.2.5.8 19.4-13.8 6.6-5.1 12.2-9 12.4-8.8.5.5-1.8 2.5-17.1 14.7-6.2 5-12.1 9.8-13.2 10.7s-4.6 3.6-7.7 6c-4 3-5.5 4.7-5.1 5.8.5 1.2.2 1.5-1 1-.9-.3-2.1.1-2.9 1.1-.9 1.1-1 1.4 0 .8.8-.5 1.2-.1 1.2 1 0 .9.8 2.3 1.8 3 1.1.9 1.3 1.3.4 1.4-.7 0-1 .5-.7 1 .3.6-.4 1.4-1.6 1.8-1.9.7-.9 1.2 5.7 3 4.3 1.1 9.7 2.4 11.9 2.8 2.2.3 4.7 1 5.5 1.5 2.8 1.6-2 .9-15.8-2-7.3-1.6-13.5-2.5-13.8-2s0 .9.5.9c.6 0 1.1.7 1.1 1.5 0 2.3-2.8 1.8-4.1-.7-.8-1.4-1.4-1.8-1.6-1.1-.3.7.3 2 1.1 2.9.9.8 1.6 2.3 1.6 3.2 0 1.1-.8.5-2-1.6q-4.35-7.05-3.9 1.8c.4 7.8-.8 6.9-1.3-1-.3-3.9-.8-7.3-1.1-7.7-.3-.3-3.9.2-7.9 1.1-15.5 3.6-69.5 15.5-73.1 16.1-2 .4-3.9 1.1-4.2 1.5-.3.5 3.1 3.6 7.5 7.1 4.4 3.4 8 6.3 8 6.5 0 1.3-2.5-.3-8.8-5.6-3.9-3.3-7.3-6-7.6-6-.6 0 0 50.7 1 81.8.6 17.4.8 19.3 2.3 18.7 8.7-3.5 72.5-26.5 72.8-26.2.4.4-30.9 12.3-51.7 19.7-16.7 5.9-20.2 7.3-21.7 9.1-1 1.3-8.3 35.9-7.7 36.8.2.2 3.3-1.4 7-3.5 9.3-5.4 12.8-7.4 20.9-11.8 6.6-3.7 14.6-8.2 19-10.9 1.1-.7 6-4.8 11-9.1l9-8-8 8.2c-4.4 4.5-7.4 8.2-6.8 8.2.7 0 5.8-1.2 11.3-2.6 5.6-1.4 10.3-2.4 10.6-2.1s-4.7 1.7-11 3.3c-6.4 1.5-11.6 3.1-11.6 3.5s1.2 2.2 2.7 4.1c2.6 3.2 2.5 3.2-1.3-.5l-4-3.7-15.5 8.6c-8.5 4.7-18.7 10.6-22.7 13s-7.7 4.4-8.2 4.4c-.6 0-1 .4-1 1 0 .5.2 1 .5 1 3.6 0 61.7 12.7 59 12.9-.9.1-57-11.1-60.3-12-2-.6-2.6.9-6.8 16.9-2.2 7.8-4 13.8-4.2 13.3s1.3-7.1 3.3-14.6 3.4-13.9 3.2-14.2c-.3-.3-1.8.4-3.4 1.5-1.5 1.1-7.3 4.8-12.8 8.3-5.5 3.4-12 7.5-14.4 9.1-2.5 1.5-4.8 2.8-5.3 2.8-2.1 0-.5 1.8 2.5 2.7 2.9 1 2.6 1.1-3.3 1.1-6.3 0-22.8 4.3-24 6.3-.3.4-1.2.4-2-.1-1-.7-1.1-1-.2-1 .6 0 1.2-.8 1.2-1.9 0-1 1.1-4.9 2.5-8.6s2.4-6.9 2.2-7.2c-.3-.2-3 3.2-6 7.6-3.1 4.4-6.1 8.2-6.7 8.6-.5.3-1 1.3-1 2.1 0 1.2.7 1.4 3 .9 4.5-1 3.6.1-1.5 1.8-2.5.9-4.5 1.2-4.5.6 0-.5-.6-.9-1.4-.9-2 0-2.9-1.7-1.5-2.6.8-.4.9-.3.5.4-.4.8 0 1.2 1.1 1.2 1 0 2.9-1.6 4.3-3.6 1.4-1.9 4.8-6.5 7.5-10.2 7.4-9.8 7.3-9.4 2.8-8.6-2.1.4-5.2 1.3-6.8 2-2.8 1.1-3 1.7-3.3 6.9-.2 3.1-.8 6.6-1.3 7.8-.8 1.8-.9 1.5-.5-1.6.6-5-.9-4.7-2.7.5-1 2.8-1.6 3.5-1.6 2.2-.1-1.2.6-3.5 1.4-5 .8-1.6 1.5-3.8 1.4-4.9 0-1.3-.5-.8-1.3 1.5-1.2 3.2-1.3 2.9-1-5 .2-5.4 0-7.9-.5-7-1 1.6-4.8 15.7-6.1 22.3-.7 3.8-.7 3.8 1.9 3.3l2.6-.5-2.7 1.2c-3.3 1.3-3.4 2.1-.8 12.3 1.1 4.4 1.9 9 1.9 10.4-.1 1.4-1-.7-2-4.5-1.6-6.1-1.8-6.4-1.3-2.2 1.9 16.9 2.4 22.8 2.2 27.7-.1 5.4-.1 5.4-1-2-.4-4.1-.9-9.2-.9-11.3 0-2-.4-3.7-1-3.7-.5 0-.9 1.3-.9 2.8s-.9 4.5-2 6.7-2 4.7-2 5.7-.4 1.8-1 1.8c-1.3 0-1.3 0 .5-4.9.8-2.2 1-4.1.5-4.1-2 0-17 7.4-16.3 8.1.4.4 3.1 1.4 5.8 2.3 4.4 1.4 4.5 1.6 1.2 1.1-2.1-.4-4.6-.9-5.5-1.2-1.3-.5-1.1.1.6 1.9 1.3 1.4 2.4 3.2 2.6 3.9.1.8.5 2 .9 2.6 1.1 1.8.7 1.7-7-1.8-16.1-7.3-17.1-7.9-17.6-10.7-.7-3.5 0-4.2.9-.8.6 2.4 1 2.6 6 2.6 3 0 5.4-.3 5.4-.8-.1-.9-11.1-8.9-13.6-9.8-1.6-.6-1.7-.5-.6.7.6.7 1.2 2 1.1 2.9 0 .8-.9-.3-1.9-2.5-1.6-3.3-1.7-4.3-.5-6.5.7-1.4 2.7-5.7 4.5-9.5 1.8-3.9 6-12.9 9.5-20 3.5-7.2 9.4-19.8 13.1-28l6.9-15-.1-15c0-8.3-.5-20-1.1-26-1.6-16.1.2-58.8 2.8-67 1.1-3.3 4-12.8 6.5-21 9.8-32.4 22.4-68.9 24.7-71.3 1.2-1.3 5.1-4.2 8.7-6.3 3.6-2.2 7.5-4.7 8.8-5.6 1.2-.8 2.2-1.3 2.2-1s-3.9 3.2-8.7 6.3c-8.1 5.3-8.6 5.9-6.3 6.5 2.5.7 2.5.7.2.8-4.9.2-6.2 1.8-6.3 7.9-.1 4.5-.3 5.1-.8 2.7-.6-2.5-2.5 2.5-11.4 29.5-5.8 17.9-11.3 35.2-12.2 38.5s-2.4 7.8-3.3 9.9c-1.3 3-1.4 4-.4 4.4.8.2.6.9-.7 2-1.7 1.6-2 3.7-2.5 25.7-.4 19-.2 24.9.9 28.5.7 2.5 1.4 4 1.4 3.3.1-.7.8-1 1.6-.7.8.4 1.2 1 .9 1.5s-1 .7-1.5.3c-2.4-1.4 1.7 10.4 4.6 13.7.9.9 3.3 1.6 6 1.7l4.5.2-2.4-6.4c-1.3-3.5-3.2-7.8-4.1-9.6s-1.3-3-.8-2.7 2.6 4.4 4.8 9.1 4.3 8.6 4.8 8.6c.4 0 .6-.3.4-.8-.3-.4-.1-1.6.4-2.7.6-1.6.8-1.4.8 1.2.1 2.9.5 3.3 4.4 4.5 2.3.7 4.7 1.2 5.2 1.3.6 0 1.8.8 2.8 1.8s2.1 1.6 2.4 1.3c.5-.5-10.3-21.4-13-25-.8-1.1-4.8-3.1-9-4.6-7-2.5-7.5-2.5-6.6-.8.6 1.1.8 2.2.5 2.5-.7.7-2.1-2.7-3.6-9-1.4-5.4-3-6.2-3.1-1.5-.1 1.8-.5 4.4-.9 5.8-.6 1.8-.8 1-.4-2.5.6-6 3.5-15.5 4.7-15.5.5 0 1.8-1 2.9-2.3 2.2-2.5 1.6-1.1-1.9 4.6-2.1 3.3-2.2 4.2-1.3 7.8 1.5 5.4 3.8 7.7 9.1 9.4 2.4.7 5.3 1.7 6.3 2.1 1.7.6 1.8.4 1.2-2.2-1.7-7-7-23.4-7.6-23.4-.3 0-1.7 4.1-3 9.2s-2.6 8.6-2.8 8c-.2-.7.8-5.8 2.3-11.5 2.3-8.4 4.8-26.3 3.9-27.5-.2-.3-1 2.2-5 14.7-.2.8-.7 1.1-1 .8-.4-.3.1-2.8 1-5.4 5.5-16.5 8-25.3 10.7-37.3 1.6-7.4 3.9-16.4 5-19.9s1.8-6.5 1.6-6.8c-.3-.2-3.2 4.9-6.5 11.4s-6.8 12.7-7.6 13.8 2.3-5.4 6.9-14.5 8.5-17.5 8.5-18.7c0-1.5.5-2.1 1.4-1.7.8.3 1.8-.5 2.5-2.3.6-1.5 3.8-7.1 7.2-12.3 3.3-5.2 7.5-12.6 9.4-16.3 2.5-5 4.6-7.7 8.2-10.3 4.4-3.3 4.6-3.3 1.6-.5-1.8 1.7-3.3 3.3-3.3 3.5s2.4 1.3 5.3 2.4c15.6 6.1 21.3 7.9 22.1 7.2.4-.4 1.4-3.4 2.2-6.7 5-21.9 8.2-34.4 8.9-35.1.4-.4.5.1.2 1s-1.3 5-2.1 9c-.9 4-2.7 12.2-4 18.2-1.4 6.1-2.4 11.1-2.3 11.2s8.2-7.6 18-17.3c9.9-9.6 17.7-17.6 17.5-17.8-.1-.2-1.9-1-3.8-1.9s-2.6-1.4-1.5-1c4.8 1.4 7.4 1.5 8.7.6.7-.6 3.3-2.8 5.7-4.9 4.3-3.7 16.1-12.2 17.1-12.2.3 0-.6.9-2 2M878.4 313c1.8.7 2.4 1.4 1.9 2.6-.4 1.1-.3 1.5.5 1 .6-.3 1.3-.2 1.7.4.3.5-.3 1-1.4 1-1.2 0-2.1-.7-2.1-1.5 0-1.2-.4-1.3-1.9-.5-2.6 1.3-5.2 1.4-3.1 0 1.2-.8.9-.9-1-.7-1.4.2-2.5.9-2.5 1.4 0 .6-2.7 3.2-6 5.9-8.2 6.7-17.6 16.6-17 18.1.2.7-.2 1.3-.9 1.3s-3.7 2.3-6.6 5.1c-4.9 4.7-5.2 4.8-4.6 2.2.8-3.3.9-4.8.2-8.8-.2-1.6-.2-3.4.2-4 .3-.5.5-2.1.4-3.5-.2-2 .9-3.6 5-7.1 3-2.6 7.9-6.1 11.1-7.9 3.1-1.7 6-3.6 6.3-4.2.4-.6.9-.6 1.4.2.6 1 1.5 1 4.5 0 2-.7 4.7-1 6-.8 1.3.3 3 .1 3.7-.3 1.6-1.1 1.2-1.1 4.2.1m-12.6 72.3c-.4 5.9 3.2 8 5 2.9l.9-2.7.7 3.7c.4 2.1 1.1 3.8 1.5 3.8 1.1 0 3.4-5.6 2.8-6.7-.3-.5-.2-1.5.2-2.2 1.3-2 2.3 3.6 1.1 5.9-.5 1-1 3.1-1 4.6 0 2.1-.4 2.5-1.9 2.1s-2.2.2-3 2.3c-1 3.1-5.1 7.7-6.4 7.2-.5-.1-2.2.7-3.8 1.9-1.6 1.1-4.2 2.2-5.6 2.4-1.5.1-3.3 1.1-4 2.1-.7 1.1-2 2.7-2.8 3.7-1.7 1.9-2 3.1-.6 2.3 1.2-.8.1 3.4-1.6 5.9-.7 1.1-1.3 2.7-1.3 3.6 0 2.6-2.7 3-6.4 1-4.9-2.8-6.8-3.7-9.6-4.9-1.4-.5-3.7-1.4-5.2-2.1L822 421l3-4.7c1.7-2.6 3-5.3 3-5.9 0-1.8 2-2.8 5.1-2.6 2.9.2 4.9-2.9 4.9-7.4 0-2.1.4-2.5 2.3-2.2 3 .4 3.4 4.3.8 7.9-2.2 2.9-1.8 3.6.9 1.9.9-.5 1.9-.5 2.7.1 1.3 1.2 9.1 1.4 12.2.4 1.4-.4 1.9-1.3 1.7-3.3-.3-2.3-.9-2.8-4.5-3.5-4.4-.9-5.3-2.1-2.1-3 1.5-.4 2-1.4 2-4.1 0-2 .5-3.6 1-3.6.6 0 .8-1.1.4-2.5-.6-2.4.8-3.5 2-1.6 1 1.6 5.4-.1 6.5-2.5 1.5-3.3 2.2-3 1.9.9m-652 89.5c-1.1 24.5-.5 30.1 2.6 22.9.9-2 1.9-3.7 2.1-3.7.3 0-.2 1.7-1.1 3.7-2.8 6.5-2.3 7.2 6.6 8.7 1.4.2 3.7.7 5.3 1.1 3.7 1 3.5-.3-1.4-9.3-2.2-4-3.9-7.6-3.7-7.8s2.2 2.9 4.3 6.9 4.5 7.8 5.2 8.5 1.3 2.1 1.3 3.1c0 .9.4 2.1 1 2.7s.3 1-.9 1c-1 0-1.7-.5-1.4-1.2.4-1-5.8-3-16.6-5.3-4.3-.9-8.1.3-10.2 3.2-.4.5-.9.5-1.2 0s.7-1.7 2.4-2.7c1.6-.9 2.9-2 2.9-2.4 0-1.4-10.7-12.2-11.3-11.5-1 1 .2-5.3 2.4-12.2 1-3.3 2.1-7.9 2.5-10.3.4-2.3 1-4.5 1.5-4.8.9-.5.3 4.3-1.2 9-1.1 3.7-1.2 5.3-.1 4.1.5-.6 1.9-4.4 3.2-8.5s2.5-7 2.7-6.4-1.7 6.9-4.2 14.1-4.5 13.3-4.5 13.6 2.2 3 5 5.9l4.9 5.3.2-12.5c.1-6.9.3-16.9.4-22.3.2-5.3-.1-9.7-.6-9.7s-.9-.6-.9-1.4-.8-1.7-1.7-1.9c-1-.2-.3-.3 1.5-.1 2.4.2 3.2-.1 3.2-1.3 0-.9.2-1.4.4-1.2s-.1 10.5-.6 22.7m289 50.4-.3 5.3 9.6 4.8c5.3 2.6 11.3 4.9 13.5 5.1 4.1.5 10.8 2.9 10 3.7-.3.3 1 .6 2.9.7 5.3.4 4.9-1.3-.8-3.3-4.7-1.6-10.1-4.5-8.5-4.5.5 0 5.7 2 10.3 3.9 6.7 2.9 9.5 3.4 20.3 3.3 15.8 0 35.6-.9 38.1-1.7 1.1-.3 2.9-.2 3.9.4 1.3.7 2.6.6 4.4-.3 1.4-.7 5.2-1.7 8.4-2.1 6.8-1 6.2-1.2-6.1-2.4-7.8-.8-7.1-.9 5.4-.4 11.5.4 14.5.3 15.3-.8.7-1.1 1.1-1.1 1.5-.2.2.7 1.4 1.3 2.6 1.4 2.2 0 2.2 0 0 .9-1.3.5-2.3 1.4-2.3 2s-.4.9-.9.5c-1-.6-17 7.6-26 13.2l-5.3 3.4 2.8 3.2c2.3 2.6 2.4 2.8.4 1-3-2.6-4.8-2.7-15.7-.6-6.7 1.3-8 1.9-7.6 3.2.5 1.5.4 1.5-1.1 0-1.3-1.2-2.7-1.4-5.9-.9-2.3.4-8.7 1.5-14.2 2.4s-10.8 2.1-11.7 2.6c-1 .6-2 1-2.2 1s-.4-4.6-.3-10.2l.2-10.3-3.7-1.2c-2-.7-5.9-1.5-8.6-1.9l-4.8-.6-2.7 6.2c-1.5 3.4-2.7 6.5-2.7 7s2.4 1.6 5.3 2.4c7.1 2.1 13 4.6 12.4 5.2-.9.9-15.9-4.6-21-7.7-2.6-1.6-5.2-2.7-5.6-2.4-.5.2-1.7-1.7-2.7-4.3-2.6-6.5-2.8-7.2-.8-3.7 2 3.6 6.1 7.8 7.7 8.1.7.1 1.8.3 2.6.5 1.5.4 4.1-7.1 4.4-12.5.2-2.4-.3-3.1-2.8-3.8-1.6-.5-5.3-2-8-3.3-2.8-1.3-6.4-2.7-8-3.1-2.5-.6-2.7-.5-2.1 1.2.9 2.3.3 1.8-2.9-3-2.4-3.5-2.4-3.8-.7-3.4 1.7.5 2.1-.1 2.6-4.3.9-6.5 1.9-6.3 1.4.3m15 60.5c1.9 2.4 4.2 4.3 4.9 4.3s1.3.4 1.3.9c0 1.9 5.2 7.1 7.1 7.1 1 0 1.9.4 1.9 1 0 .5 2 1 4.5 1s4.5.4 4.5.9-2 .6-4.5.3c-2.5-.2-4.5-.1-4.5.3 0 1.1 7.3 10.1 13.8 17l5.6 6 1.3-5.5c1.9-8.8 2.1-15.4.3-15.7-.8-.1-3.6-.5-6.2-.8-2.7-.3-4.8-.9-4.8-1.3 0-.9 13.3-.7 14.8.2.6.4 7.9.6 16.2.5 14.1-.1 15.1-.2 16.5-2.2l1.5-2.1v2.2c0 1.2.4 2.2.9 2.2 1.3 0 28.2-9.8 30.5-11.1 3.2-1.9 19.8-8 20.3-7.6.2.3-1.7 1.3-4.4 2.2-2.6 1-8.2 3.3-12.3 5.1s-13.2 5.3-20.2 7.9-13.2 5.3-13.9 6.1c-.6.8-1.6 1.4-2 1.4-.5 0-4 1.9-7.7 4.2-3.7 2.4-7.9 5-9.3 5.8-5.8 3.3-15.5 10-17.6 12-2.1 2.1-4.3 2-4.3-.1 0-.5-4.5-6-10-12.1s-10-11.5-10-12c0-.4-.7-.8-1.5-.8s-1.5-.5-1.5-1.1c0-1.4-4.6-7.2-13.7-17.5-3.5-3.9-6.3-7.5-6.3-8s1.2.4 2.6 2.1c1.4 1.6 4.2 4.9 6.2 7.2m686.4 89.8c1.1 1.4 2.3 2.3 2.7 2 .5-.2 1.3.7 2 2.1 1.6 3.5 1.3 5.4-.4 2.4-.8-1.4-1.4-2.1-1.5-1.6 0 1.7 2.4 9.1 3.3 10.1.7.7.8.6.3-.3-.4-.7-.1-1.5.7-1.8.7-.2 2.4-3.8 3.7-7.9 1.8-5.7 2.8-7.5 4.1-7.5 1.6 0 1.5 1-1.5 9.2-1.8 5.1-3.6 10.9-4 12.9-.6 3.2-.9 3.6-3 3.2-1.9-.4-2.9-1.8-4.7-6.7-1.2-3.3-3.3-8.9-4.5-12.4-2-5.3-2.1-6.2-.7-6.2.8 0 2.4 1.1 3.5 2.5m20.8 5.1-.8 3.6 1.9-2.1c2.3-2.5 4.4-2.6 7.9-.6 1.4.8 3.2 1.7 4 2.1s2.2 1.3 3.1 2c1.3 1.2 1.8 1 3.7-1.5 3-4.1 7.1-4.8 12.7-2s8.2 5.5 8.9 9.4l.6 3-1.1-3c-1.3-3.4-4-6.8-4.7-6-.3.3.2 1.3 1 2.2.9 1 2.1 3.5 2.7 5.5 1.3 3.9.2 7.2-2.9 8.3-.8.4-.5-.4.8-1.8 1.2-1.3 2.2-2.9 2.2-3.6s-1.2.1-2.6 1.8c-2.7 3.3-5.2 3.8-8.7 1.9-2-1-2.1-1-.8.5 2.3 2.9.4 1.9-5.1-2.6-4.5-3.6-5.8-4.2-8.3-3.6-1.6.4-2.6.7-2 .8.5 0-.1.8-1.4 1.7-1.6 1.2-2.6 1.3-3.4.5-.7-.7-.5-1.2.9-1.8 1.7-.6 1.7-.8-.6-1.4-1.9-.5-1.4-.8 2.5-1l5-.2-5.5-.7-5.5-.7 6.3-.1c6.8-.2 7.9-1.5 4-4.8-2.3-1.9-2.3-1.9-.5.2 2.3 2.8 2.2 3.7-.4 2.3-1.6-.8-2-.8-1.4.1.5.9-.2 1.1-2.9.7-2.3-.3-3.9 0-4.7.9-.8 1-1.6 1.1-3.1.3-1.1-.6-2.2-.9-2.4-.6-1 .9.9 3.7 2.9 4.3 1.2.3 3.4 1.8 5 3.2l2.8 2.6 3.4-1.8c4.3-2.3 5.7-1.3 2.5 1.7l-2.4 2.2 1.8-2.3c2.2-2.6 1.5-2.8-1.9-.6-1.6 1-3.4 1.4-5.1 1-1.8-.5-2.4-.3-1.8.5.9 1.5-.7.6-5.4-2.9-2.2-1.7-3.1-3-2.7-4.1.3-.8.3-1.2-.1-.9-.9 1-2.9-1.3-3.7-4-.3-1.3-.3-2.1 0-1.8.6.6 4.3-6.2 4.3-8 0-.7-.6-1.5-1.2-1.7-.7-.3-.3-.6.8-.6 2-.1 2.1.2 1.4 3.5"/><path d="M609.5 64.6c-.8 9.4-.1 45.2.9 46.2 1.1 1 10.7-2.9 30.6-12.8 10.7-5.3 23.9-11.6 29.2-14.1 5.4-2.4 9.8-4.7 9.8-5 0-.4-3.9-2-8.7-3.7-10.8-3.7-54.8-17.9-58.5-18.7l-2.6-.7zM689.6 85.2c7.5 12 11.7 18 12.8 18.4.7.3 1.3 1.1 1.3 1.8 0 1.9 6.5 12.4 10.8 17.3 2 2.4 4.5 4.3 5.5 4.3 1.3 0 1.7.5 1.3 1.9-.3 1 0 2.2.6 2.5.6.4 1.1.1 1.2-.6.2-3.3 1.1-6.4 2.4-8.5.8-1.2 2.4-5.3 3.6-9s2.7-8.5 3.5-10.5c1.1-2.9 1.1-3.9.1-4.5-1.4-.9-11.5-4.8-26.7-10.3-5.8-2-12.2-4.5-14.4-5.4-2.1-.9-4-1.6-4.2-1.6s.8 1.9 2.2 4.2M680.9 86.7c-7.2 11.4-15.5 31-12.1 28.9.6-.3 1.4 0 1.9.7.8 1.3 12 5.7 23.3 9.3 3 .9 6.8 2.3 8.3 3.1 1.6.8 3.1 1.2 3.4.9.4-.3.1-.6-.5-.6s-.9-.7-.6-1.5c.4-.8 1.6-1.5 2.9-1.5 3.6 0 3.6-2.2-.1-8.1-1.8-3-3.4-5.8-3.4-6.2 0-.7-.9-2-3.7-5.2-.7-.7-1.3-1.6-1.3-1.9 0-.4-1.7-3.2-3.9-6.4-2.1-3.1-5.1-8.1-6.7-10.9-1.6-2.9-3.2-5.3-3.7-5.3-.4 0-2.1 2.1-3.8 4.7M650.9 95.7c-14 6.9-25.6 12.8-25.8 13-.3.2.5 1.3 1.7 2.5 2 2 3.7 2.3 18.2 3 9.8.5 16.8.4 17.9-.1.9-.5 3.7-4.9 6.1-9.8 2.4-4.8 5.9-11.4 7.7-14.5s3.3-5.9 3.3-6.2c0-1.9-6.5.8-29.1 12.1M734.5 103.3c-.7 1.8-2.5 7.5-4 12.7-1.4 5.2-3.2 11.5-3.9 14-.8 2.5-1 4.6-.6 4.8 1.1.4 18.2-3 34.5-6.8 7.2-1.7 14.7-3.4 16.8-3.7 2-.3 3.7-.9 3.7-1.2 0-.6-39.3-20.9-43.3-22.4-1.4-.5-2.1.1-3.2 2.6M568 119.1c-26.6 1.9-24.9 1.7-23.3 2.7.6.4 1.3 3.2 1.5 6.2.2 4 .8 6 2.3 7.1 1.6 1.4 1.9 3 2 10 .2 13.1 2.7 44.1 4.1 50.8l.5 2.3 2.4-2.8c1.4-1.6 2.5-3.5 2.5-4.2 0-.6.5-1.2 1.1-1.2.5 0 1.7-1.7 2.6-3.8.8-2 2-4 2.7-4.4.6-.4.7-.8.1-.8s-.6-.3.1-.8c1.2-.8 9.4-15 9.4-16.3 0-.5.5-.9 1-.9.6 0 1-.5 1-1.1 0-.5-.5-.7-1.2-.3s-.8.3-.4-.5c.4-.6 1.1-.9 1.6-.6.9.6 3.4-3 4.5-6.5.4-1.4 1.4-3.3 2.3-4.3.8-.9 1.2-1.7.8-1.7s.9-2 2.9-4.4c2-2.5 3.7-5.4 3.8-6.5.1-1.2.5-2.1.9-2.1s.8-.9.8-2.1c0-1.1.4-1.8.9-1.5s1.2-.1 1.5-1c.8-2.2.8-2.6-.4-1.9-.5.3-1 .2-1-.4 0-.5.5-1.3 1-1.6.6-.3 1-2.1 1-4 0-5-2.1-5.3-29-3.4M765.5 128.9c-10.8 2.8-30.9 7.4-37.3 8.6-3.9.8-3.9 1.2 2 13 2.2 4.4 4.2 8.9 4.4 10 .5 2.5 16.1 33.4 18 35.6.8.8 1.4 1.9 1.4 2.3 0 1.3 3.5 5.1 4.9 5.4 2.1.4 64.3-8.9 66.4-9.9 1.2-.7 1.5-1.4.9-2.2-.6-.7-1.9-2.8-3-4.7-2.5-4.5-12.7-21.5-21.3-35.5-3.7-6.1-8.3-13.9-10.2-17.5-3.2-5.9-5.7-8.6-5.7-6.1 0 .6-1.1 3.5-2.5 6.5s-2.5 6.3-2.5 7.3c0 1.1-.4 2.3-.9 2.8-.5.6-1.8 3.9-3 7.5-3.4 10.9-8.7 25.3-10.3 28.5-.9 1.6-2.4 5.9-3.3 9.5-2.1 7.5-4.1 12-5.5 12-.6 0-1-.3-1-.8 0-1 6.7-18.7 8.9-23.7 1-2.2 3.3-8.3 5.1-13.5s4-11.3 5-13.6c1.1-2.2 2.4-6.2 3.1-9 .7-2.7 1.8-5.8 2.5-6.9.6-1.1 1.5-3.5 1.9-5.3.7-3.2.6-3.2-3.2-3.1-2.1 0-8.7 1.3-14.8 2.8M541 132.3c0 1.9-.4 4.7-1 6.1-.5 1.5-1.2 6.3-1.6 10.9-.3 4.5-1.3 9.2-2 10.4-.8 1.2-1.4 3.5-1.4 5s-1.1 9.3-2.5 17.3c-3.9 22.6-6.1 42.5-4.5 41.5.6-.4.7-1.1.4-1.7-.4-.7-.2-.8.5-.4 1.1.7 11.4-6.3 20.9-14.1 2.3-1.9 2.4-2.2.8-2.3-1.3 0-1.6-.4-1.1-1.8 1.6-3.6 1.7-8.8.4-19.1-.8-5.8-1.3-11.2-1.3-11.9.1-.6-.2-1.2-.6-1.2-.8 0-2.8-12-3.1-19-.2-2.5-.7-5.1-1.3-5.9-.6-.7-1.1-4.7-1.2-8.8-.2-7.4-1.4-11.8-1.4-5M722.2 156.2c-1.4 4.5-2.1 14.8-1 15.4.4.3.8 1.4.8 2.5 0 1.2.7 1.9 2 1.9 1.1 0 2-.3 2-.8 0-.4.9-1.3 2-2 1.9-1.1 2.2-.9 3.5 2.2 2.1 5 1.9 8.2-.7 10.1-1.8 1.2-2.4 1.3-2.6.3-.2-.7-1.4-2.1-2.7-3.1-2.4-1.7-2.4-1.7-3.9 1.5-1.9 4-2.4 11.7-.8 12.7.8.5.5 1.2-.8 2.4-1.2 1-2 2.9-2 4.7 0 2.7.3 3 3.2 3 7.1 0 31.4-2.3 32.2-3 .4-.4-1-3.9-3.2-7.7s-5.1-9.3-6.5-12.4c-1.3-3-5-9.5-8.1-14.4s-5.6-9.4-5.6-10-.6-2.3-1.2-3.8c-1.9-3.9-5.4-3.6-6.6.5M542.1 216c-5.6 4.4-10.7 8-11.2 8s-.9.7-.9 1.6c0 .8-.4 1.2-1 .9-.5-.3-1-.1-1 .4 0 .6 1.7 1.2 3.8 1.2 7.8.3 33-.2 39-.8 6.2-.5 6.3-.6 4.4-2.4-3.6-3.3-21.3-16.9-22.1-16.9-.4 0-5.3 3.6-11 8M714 215c0 .8-9 20.3-11.9 26-.5.9-.1 3.2.9 5.5 2.2 5 4 10.2 4.6 13.5.3 1.3.9 2.9 1.3 3.5.5.5 1.6 3.2 2.6 6 1 2.7 2.2 5.4 2.5 6 .4.5 1.5 3.3 2.4 6.2 1.6 4.8 4 8.2 5.1 7.1.3-.2.1-4-.4-8.4-1.5-12.5-2.1-20-2.7-32.9-.4-11.2-3.2-33.5-4-33.5-.2 0-.4.4-.4 1M549.2 229.8l-23.2.2-1.4 3.3c-.8 1.7-2.6 12.6-4.2 24.2-1.5 11.5-3 21.4-3.4 22-.4.5-1 2.3-1.4 3.8s-1.1 2.5-1.6 2.2c-.6-.3-.7.1-.4.9.3.9 1 1.3 1.5 1s.9 0 .9.5c0 .6.7 1.1 1.6 1.1.8 0 1.3.4 1 .8s3.1 3.3 7.5 6.3c12.9 8.7 16.9 10.5 16.9 7.3 0-2.1-2.8-13.3-4-15.9-4-8.7-5.1-11.9-4.6-13.2 1-2.4 5.3 1.6 5 4.6-.1 1.4.2 3.3.7 4.2 1.4 2.7 4.9 20.8 4.3 22.4-1 2.4 1.7 2.7 3.7.4 1.8-2.1 1.9-2.1 1.9-.3 0 1.1-.5 2.5-1.2 3.2-1.5 1.5-1.8 1.2 7.5 5.6 7.6 3.6 10.9 6 4.2 3.1-1.9-.8-5.1-2.2-7.1-3.1-3.9-1.6-5.4-1.3-3.6.9.7.8 1.8 3.1 2.6 5.3 1.7 4.7 11.6 25.4 12.1 25.4.2 0 1.2-1.6 2.1-3.5s2-3.5 2.4-3.5c.8 0-.4 4.8-2.1 8.1-.4.9-.5 2-.2 2.3 1 1 10.5.6 16.1-.7 7.4-1.7 16.3-9.1 19.1-15.8l2-4.9-6.7-.1c-6.8-.1-12.3-.7-13.1-1.5-.2-.2 2.2-.4 5.5-.4 8.9 0 19.4-1.2 19.4-2.1 0-1.3 3.7-4.8 4.4-4.1.3.3.6-2.4.7-5.9.1-6 .1-6.2 1.1-2.9 1.4 4.9 1.9 5.2 7.4 3.9 7.7-1.9 10.9-3.6 14.8-7.9 4-4.4 4.2-4.4 2.2.3-1.3 3.2-1.3 3.3 1.4 3.5 1.6.1 4.7.9 7 1.7 4.8 1.7 9 2 9 .5 0-.5-.6-2.4-1.4-4.2s-2-5.2-2.6-7.4c-2-6.6-2.4-7-5.5-5-3 2-4.3 1.6-2.1-.7 1.9-1.9 1-2.8-1.7-1.7-1.2.5-7.6 2.6-14.2 4.6s-12.5 4.1-13.1 4.5c-.6.5-1.4.6-1.7.2-.4-.3-.7.5-.7 1.8-.1 2.2-.2 2.2-1.1.6-1-1.7-1.3-1.6-4.7.9l-3.7 2.6 3.3-3.1c3.2-3.2 4.1-5.1 2.2-5.1-.5 0-6.2-2.5-12.6-5.6-10.2-5-11.8-5.5-14.1-4.5l-2.5 1.1 1.9-2.3c2-2.6 2.1-1.4-.6-34.7-1.3-15.9-1.9-20-3-20-.8 0-5.1 9.8-5.1 11.8 0 .8-2.1 5.7-4.6 11s-5.5 12.4-6.6 15.7-3.1 8.1-4.4 10.7-3.4 7.3-4.5 10.3c-1.2 3.1-2.3 5.4-2.6 5.2-.5-.5 4.8-14.5 8.9-23.7 1.1-2.4 2.3-6.2 2.6-8.3.3-2.3 1.3-4.3 2.3-5 1.1-.7 1.9-1.6 1.9-2 0-.5 1.1-3.3 2.5-6.2 1.3-3 2.7-6.7 3.1-8.2.4-1.6 1.5-4.8 2.6-7.2s2-5.5 2.1-6.9c.2-3 2.5-2.8-28.1-2.4"/><path d="m587.3 229.7-4.3.4v5.2c0 6.1 2.7 40.7 3.5 45.4.3 1.8 1 3.3 1.6 3.3s.7-.5.4-1c-.3-.6.4-1.4 1.7-1.9 1.3-.6 2-1 1.6-1-.4-.1.6-1.4 2.3-3 1.9-1.8 2.8-3.5 2.3-4.2q-.6-1.05.3-.6c.6.4 4.4-2.9 8.4-7.3 4.1-4.5 10.2-11 13.7-14.6 3.4-3.6 5.9-7.1 5.6-7.6-.4-.6-.3-.8.2-.5.6.3 2.4-.9 4.1-2.6 4-4.1 3.6-8-1-9.6-2.8-1-30.6-1.3-40.4-.4M512.9 231.4c-.2.2-5.3.6-11.4.9-6 .3-11.8.9-12.7 1.2-2.3.9-2.3 3.6 0 6.6 1 1.3 2.7 4.4 3.7 6.9 3.1 7 14.3 27.9 17.7 32.8 1.8 2.6 3.4 4 3.9 3.5 1.8-1.8 3.8-13.9 6.9-40.3 1.5-12.5 1.6-12-3.3-12-2.4 0-4.6.2-4.8.4M694.4 244.9c-2.1 1-5.2 2.1-6.9 2.5-1.6.4-4.3 1.4-6 2.1-1.6.7-6.8 2.5-11.5 4s-9.3 3.2-10.2 3.6c-2.4 1.3-1.3 3.5 2.5 5 1.8.7 4.3 2 5.7 3 1.4.9 7.2 4.2 13 7.4 13.4 7.3 17.1 9.4 24.5 13.9 3.3 2 7 3.9 8.3 4.2 1.2.4 2.2 1 2.2 1.4s.9 1 2 1.3c2.5.6 2.5.4 0-4.2-1-2-3.1-6.8-4.5-10.6-1.5-3.9-4-10-5.6-13.6s-3.6-9-4.5-12c-.9-2.9-2.4-6.3-3.3-7.5-1.7-2.2-1.8-2.2-5.7-.5M470.6 265.8c-.2.4-.5 2.1-.4 3.8 0 1.6-.5 5.8-1.1 9.4s-1.1 7.8-1.1 9.3v2.8l3.2-2.3c1.7-1.3 3.9-2.8 4.7-3.5.9-.6 3.6-2.7 6-4.5 2.5-1.8 4.6-3.8 4.8-4.4.3-1-3-3.4-14.4-10.7-.6-.4-1.4-.4-1.7.1M662.9 267.2c.7 1 1.7 1.5 2.2 1.2s2.3.6 4 2 2.5 2.6 1.8 2.6-.2.8.9 1.9c2.5 2.1 2.8 4.1 1 5.9-.9.9-.6 1.2 1.3 1.2 1.8 0 2.9.8 3.7 2.5.6 1.4 1.7 2.5 2.3 2.5.8 0 .8.4.2 1.2-1.4 1.9 0 6.3 2 6.2.9-.1 1.7.4 1.7 1.2 0 1.1 3 1.3 15.4 1.1 13.5-.2 19.6-1.1 16-2.4-.6-.2-5.4-2.9-10.5-6-5.2-3-15.5-8.7-22.9-12.6-7.4-3.8-14.1-7.4-14.8-8-.7-.5-1.5-.7-1.9-.4-.3.4-1.3.1-2.2-.6-1.4-1.1-1.4-1-.2.5M490.1 285.7c0 4.3.4 10 .7 12.6l.7 4.8 3.4-2.6c1.9-1.4 3.8-2.5 4.2-2.5 1.4 0 12.9-7.2 12.9-8 0-.5-1.2-1.7-2.7-2.8-3.5-2.4-16.9-9.2-18.3-9.2-.6 0-1 3.1-.9 7.7M480.5 284.1c-7.7 5.4-9.3 6.5-11.5 8-1.3.8-1.2 1.1.4 2.4 1.1.8 2.6 1.5 3.3 1.5 1.4 0 7.7 2.6 13.7 5.7l2.9 1.5-.7-11.8c-.4-6.5-.8-11.9-.9-12s-3.3 2-7.2 4.7M609 282.5c-.7.8-2.4 1.5-3.9 1.5-3.4 0-16.1 3.2-16.1 4.1 0 .7 3.3 2.4 16.5 8.5l4.9 2.3 2.8-6.6c1.6-3.7 2.5-6.9 2-7.2s-1.1-1.4-1.5-2.4c-.8-2.1-3-2.2-4.7-.2M505.3 296.3c-4.4 2.3-9.1 4.9-10.4 5.8-2.4 1.7-1.9 3.9 1 3.9.9 0 5 2.1 9.1 4.6 9.7 6 13.9 8.4 16.7 9.5 2.2.8 2.2.8.7-3.3-2.7-7.7-1.3-8.5 2.1-1.1 3.9 8.2 3.3 8.1 13 2.3 4.3-2.7 6-4.4 6.1-5.9.2-2.6-4.2-7.1-6.8-7.1-1 0-1.8-.4-1.8-.8 0-.5-1.9-1.9-4.2-3.2-2.4-1.3-6.2-3.6-8.5-5.2l-4.3-2.9v2.6c0 1.5.4 3.4.9 4.3.4.9 1.1 3.3 1.5 5.2 1 5.7-1.1 1.4-2.5-5.3-.8-3.2-2-6.2-2.9-6.7-1-.5-4.2.6-9.7 3.3M541.4 317.2c-1.6 1.3-3 2.6-3.2 3-.2.5-.9.8-1.6.8s-2.3 1.1-3.6 2.5l-2.4 2.6 1.9 3.7c2.4 4.4 4 6.3 4.9 5.5.3-.4.6.2.7 1.3 0 1 .9-.9 2-4.4 1.1-3.4 2.4-6.2 2.9-6.2 1.2 0 1.3-.8-.5 7.5-.8 3.8-1.2 8-.9 9.2.6 2.4 3.4 3.2 3.5 1 .1-3 .9-10.5 1.4-13.4.4-2 .1-3.6-.8-4.4-.9-.9-1.2-2.9-.9-6.1.2-2.6.2-4.8-.1-4.8-.2 0-1.7 1-3.3 2.2M547.5 318c.5 2 2.1 18 2.5 25.2.1 1 1.8 2.2 4.7 3.2 2.6.9 4.8 1.6 5 1.6 1.3 0-.3-6.5-3.1-12.4-1.9-3.9-4.2-9.2-5.1-11.7-.8-2.5-2.2-5.4-3.1-6.5-1.5-1.8-1.5-1.8-.9.6M728.7 356.7c-.7 6-1.2 9.2-2.1 12.1-.3.9-1 5.3-1.6 9.7s-1.6 11.3-2.4 15.2c-.7 4-.9 7.3-.4 7.3.8 0 11.7-7.6 12.8-9 .3-.3 2.3-1.9 4.5-3.5s6.3-4.6 9.2-6.8c2.9-2.1 5.6-3.6 6.1-3.3.6.3 1.2-.3 1.5-1.4.5-1.9-7.1-10.1-17.8-19.1-2.2-1.9-4.9-4.2-5.9-5.2-1.1-.9-2.3-1.7-2.6-1.7-.4 0-1 2.6-1.3 5.7M457.6 371.2c-1.4 11.1-1.4 11 .6 11.6 1.2.3 1.5.8.9 1.6-1.4 1.7.4 9.4 3.9 17.2 1.6 3.7 3 7.6 3 8.6 0 3.9 2.5 1 5.1-5.8 5.2-13.8 5.2-13.3 1.6-15.5l-3.2-1.9h2.8c1.5 0 2.7-.4 2.7-.8 0-1.3-5.6-7.2-6.8-7.2-.7 0-1.2-.6-1.2-1.3 0-.6-2-3.3-4.4-6l-4.5-4.7zM564.7 375.9c-1 3.5-2.4 6.1-3.1 6.1-.8 0-1.9 1.5-2.6 3.2-.7 1.8-1.9 4.7-2.6 6.5-.8 1.7-1.4 5-1.4 7.3 0 4.4-1.5 8.4-2.9 7.5-.5-.2-1.1.8-1.4 2.3s-1.1 4-1.7 5.7c-1.3 3.4-1.9 13.6-.7 12.8.4-.2.8.4.8 1.4.5 6.3.4 7.3-.7 7.3-.7 0-1.5-.6-1.7-1.3-.4-.9-.6-.9-.6.1-.1.7.6 2 1.4 2.8 1.2 1.2 1.8 1.2 3.5.2 1.1-.7 2-1.6 2-2 0-.5.6-.8 1.3-.8.6 0 3.9-2.6 7.2-5.8 3.4-3.1 7.8-7.1 9.9-8.7 3.8-3 3.8-3 3.2-8.5-.4-3-1.8-11.1-3.3-18-1.4-6.9-3.1-15.1-3.7-18.4l-1.1-5.9zM528 384.7c0 .6-.8.9-1.8.6-3.7-.9-9 3.6-15.6 13.4-1.6 2.4-3.2 4.3-3.7 4.3-1.2 0-4 5.8-3.1 6.4.5.3 4.6 1 9.2 1.5 8.5 1.1 9.9.7 10-2.6 0-.7.7-3.3 1.6-5.9 1.9-5.8 4.5-17.7 3.9-18.3-.3-.2-.5 0-.5.6M696.6 392.6c-.9.8-1.9 3.3-2.2 5.5-.4 2.1-1 3.9-1.5 3.9-.4 0-.8.8-.8 1.7 0 2.3-.5 4.5-1.4 5.9-.4.8 1.2.7 5.1-.3 3.1-.8 7.5-1.8 9.7-2.3 4.6-1 9.5-2.7 9.5-3.4 0-.9-11.8-9.6-13-9.6-.6 0-1.3-.7-1.6-1.5-.8-1.9-1.9-1.9-3.8.1M476.6 396.3c-1 2.3-3.2 7-4.7 10.5l-2.8 6.4 3.7-.6c2-.3 7.7-1 12.6-1.6 4.9-.5 9.3-1.3 9.8-1.8.6-.6-15.3-17.2-16.5-17.2-.1 0-1.1 1.9-2.1 4.3M563.8 430.7c-15.1 14.7-15.8 15.4-15.8 17 0 2 3.4 3 14 4.3 5.2.6 11.7 1.3 14.4 1.6l4.9.6-.7-8.3c-.8-10.7-3.6-25.9-4.8-25.9-.4 0-5.8 4.8-12 10.7M613.1 482.8c-5 4.8-9.1 9.3-9.1 10 0 1.9 7.4 16.2 8.4 16.2.5 0 .6-.3.3-.7-.4-.3-.3-1.1.1-1.7.5-.6 1.4-3.1 2.2-5.6 3.4-11.7 5.9-18.3 6-16 0 1.5-.4 3-.8 3.5-.8.9-3.1 8.9-4.8 16.5-.3 1.4-.8 3.5-1.1 4.8l-.5 2.3 5.3-2.1c8.5-3.3 27.9-12.2 28.4-13 .7-1.1-22-23-23.8-23-.9 0-5.6 3.9-10.6 8.8M601.3 501.5c.3 1.9 0 3.8-.6 4.2-.5.3-.7.1-.3-.5.3-.6.2-1.3-.3-1.6-.5-.4-.8.5-.6 1.9.1 1.4-.1 2.5-.6 2.5-.4 0-1 1.4-1.4 3-.4 1.7-1.1 2.8-1.6 2.4-.7-.4-1.2 2.4-.8 5.2 0 .4-.4 1-1 1.3-1.5 1-2.6 7.1-1.3 7.1 1.5 0 16.2-11.8 16.8-13.5.8-1.9-6.2-15.5-7.9-15.5-.5 0-.7 1.6-.4 3.5M312.4 149.5c-9.7 9.6-17 17.5-16.2 17.5 1.9 0 60-16.5 64.8-18.4l3.5-1.4-4.5-2c-8.4-3.7-24.5-11.2-26.2-12.2-1-.6-2.2-1-2.7-1s-8.9 7.9-18.7 17.5M260.5 162.2c-2.7 3.8-20.5 34.2-20.5 35 0 1.1 1.4 1 2.6-.1.5-.6 8.8-5.4 18.4-10.7s19.9-11 22.8-12.6c2.8-1.6 5.2-3.3 5.2-3.6 0-.4-5.5-2.7-12.3-5.1-6.7-2.4-12.7-4.6-13.4-4.8-.6-.3-1.8.6-2.8 1.9M277 178.9c-29.5 16.7-35.7 20.3-37.5 21.7-1.9 1.5-1.8 1.7 4.5 7.5 3.6 3.2 6.8 5.9 7.2 5.9.6 0 7.8-8 28.2-31.3 4.2-4.8 7.3-8.7 6.9-8.6-.4 0-4.6 2.2-9.3 4.8M277.8 186.7c-5.1 5.9-12.8 14.6-17 19.4-4.3 4.8-7.8 9-7.8 9.3 0 .9 3.8 4.5 10.3 9.9l5.7 4.8 1.1-2.8c.6-1.5 3.8-10.5 7-19.8 3.3-9.4 6.8-19.3 7.9-22 2.4-6.5 3.3-9.5 2.6-9.5-.3 0-4.7 4.8-9.8 10.7M284.3 199c-1.2 2.2-2.3 3.6-2.5 2.9-.2-.6-.9.5-1.5 2.6-1 3.1-.9 3.6.3 3.1 1-.4 1.4.2 1.4 1.8s-.5 2.3-1.7 2.2c-1.9-.1-3 1.7-6.7 11.6-1.5 4-2 6.5-1.3 6.3s4.5-.9 8.5-1.5c3.9-.7 7-1.5 6.8-1.9-.2-.3 1.3-.5 3.3-.3 3.6.4 3.8.2 5.4-4 .9-2.4 1.7-5.2 1.7-6.2q0-1.8 1.5-1.2c1.2.4 1.5-.3 1.5-3.7 0-2.7-.3-3.7-.9-2.8-.5.8-1.7 1.1-3.2.7-2.3-.7-2.3-.7-.5.8 1.1.9 1.6 1.6 1 1.6-.5 0-.4.4.3.8.8.5.8 1.2-.3 2.6-.8 1.1-1.4 1.5-1.4.8 0-.6-.6-.9-1.2-.7-.7.3-2.5-.6-4-2-2.4-2.2-2.7-3.2-2.6-8.2.1-3.2-.3-6.6-.8-7.7-1-1.6-1.3-1.3-3.1 2.4M236.8 216.8c-.3 7-.3 14.6.1 16.7l.6 3.9 6.4-10.7c7.2-12.3 7.4-10.9-2-18.8l-4.6-3.8zM230.1 229.8c-2.4 9.7-4.6 18.3-4.8 19-.4 1 .4.8 2.3-.4 6.8-4.4 6.9-4.5 7.2-17.2.6-20.8.2-20.9-4.7-1.4M245.4 226.7c-3.1 5.4-6.3 10.5-7.1 11.4-.8 1-1.2 2.8-.9 4.4.6 3.1 13.5 18 14.7 16.8 1.5-1.6 15.1-25.5 14.7-25.9-.2-.2-1.9.1-3.8.6s-3.6.8-3.8.6c-.2-.3 1.4-1 3.7-1.7s4.1-1.5 4.1-1.9c0-.7-14.5-14-15.4-14-.2 0-3 4.4-6.2 9.7M284.8 229.4c-7.6 1.2-14 2.5-14.4 2.8-.3.4-1 12.7-1.5 27.5-.5 14.7-1 29.8-1.2 33.6-.1 3.7.1 6.7.4 6.7s5.7-9.6 11.9-21.3c6.2-11.6 14.8-27.8 19.2-36 4.3-8.1 7.8-14.9 7.8-15.2 0-1-8.8-.2-22.2 1.9M297.1 249.2c-5.2 10.1-12.2 23.5-15.6 29.8-10.3 18.9-13.5 25.3-13 26 .2.3 6.4 4.2 13.7 8.5s16.2 9.5 19.8 11.6l6.5 3.9.3-18.3c.2-10 0-22.8-.3-28.4l-.7-10.2-2.9-.6c-2.5-.6-2.9-1.1-2.9-4s.4-3.4 2.8-3.7l2.7-.3.3-16.3c.1-8.9-.1-16.2-.6-16.2-.4 0-5 8.2-10.1 18.2M264.8 240.7c-1.4 2.7-4.7 8.5-7.2 13l-4.7 8.2 2.9 8.8c1.6 4.8 4.4 13.4 6.2 19.1s3.4 10.1 3.6 9.9.7-10.6 1-23c.3-12.5.9-26.8 1.2-31.7.4-5 .5-9 .1-9-.3 0-1.7 2.1-3.1 4.7M234.6 246.6c-.4 1-2.8 7.3-5.3 13.9-2.4 6.6-4.9 12.5-5.5 13.2-1.8 2.2.6 1.4 6.3-2 6.4-3.8 11-5.9 11.6-5.4.4.5-3.4 2.8-11.9 7.2-3.2 1.7-5.8 3.3-5.8 3.7 0 .7 35.3 23.6 37.9 24.6 1.1.4 1.2-.2.7-3.4-.9-4.8-3.4-13.3-4.7-15.6-.5-1-.9-2.8-.9-4 0-1.3-.7-3.6-1.5-5.1-.8-1.6-2-4.7-2.6-7-.6-2.5-2.9-6-5.8-9.1-2.6-2.8-6.4-6.9-8.3-9-3.1-3.5-3.5-3.7-4.2-2M227.9 293.7c2.4 7.6 4.5 13.9 4.6 14.1.2.3 28.8-2.8 29.2-3.2.5-.4-36.8-24.6-37.8-24.6-.2 0 1.6 6.2 4 13.7M257.9 306.4c-.2.2-5.9 1-12.6 1.7-7.8.7-12.3 1.6-12.3 2.3 0 1.3 13.7 24.5 15.7 26.4.7.7 1.3 1.8 1.3 2.4 0 2.2 3-1.5 4.6-5.8 2.4-6.4 2.8-4.8.4 1.9-1.1 3.1-2 6-2 6.5 0 1.2 5.8 3.1 12 3.8 3 .3 5.9.7 6.5.8 1.4.2.8-5.7-2.1-21.4-3.3-17.3-4-19-8-19-1.7 0-3.3.2-3.5.4M269.7 320.7c3.1 16.2 5.3 25.3 6.3 25.3.4 0 7.6-3.4 16-7.6l15.3-7.7-2.4-1.8c-1.3-1-5.1-3.3-8.4-5.2-3.3-1.8-10.8-6.1-16.6-9.5-5.9-3.4-11.1-6.2-11.6-6.2s.1 5.7 1.4 12.7M292.7 340.2c-18.4 9.3-18.1 7.4-2.8 19 5.3 4 9.9 7.7 10.3 8.3 1.1 1.5 2 0 2.9-4.7 1-4.8 5.6-30.8 5.5-30.8-.1.1-7.2 3.7-15.9 8.2M254.7 347.2c1.4 1.8 2.3 5.8 1.3 5.8-.4 0-1.1 1.6-1.4 3.5-.4 1.9-1.1 3.5-1.6 3.5-1.1 0-1.7 1.9-3.4 11.1-1.4 7-1.3 7.3.2 5.4.9-1.2 6.3-7.5 12-14.2 5.6-6.7 10.2-12.6 10.2-13 0-.9-12-3.3-16.1-3.3-1.6 0-1.9.3-1.2 1.2M274.4 351.8c.2.4-.4 3.5-1.5 6.7-3 9.1-9 32.7-8.7 34.2.3 1.4 20.5-10.7 28-16.7 2-1.7 4.1-3 4.6-3s1.5-.6 2.1-1.3c1.4-1.7-.9-3.9-14.1-13.6-9.3-6.7-11.5-8.1-10.4-6.3M268 357.9c0 .5-1.9 2.9-4.2 5.3-8.1 8.2-15 16.9-14.5 18.1.9 2.3 10.9 13.7 11.6 13.2.4-.2 1.6-3.9 2.5-8.2 1-4.3 2.8-11.2 4.1-15.3 3.6-11.9 3.9-14 2.1-14-.9 0-1.6.4-1.6.9M213 373.5c0 2.7-1 3.1-3.9 1.5-1.6-.8-2.5.3-6.6 8.3-7.7 14.9-13.4 25.5-19.8 37-3.2 5.9-5.7 11-5.5 11.2.7.8 30.9-18 34.9-21.7 2.5-2.4 2.6-2.6 2.3-14-.2-8.8-.7-12.3-1.9-14.2-.9-1.4-1.3-3.1-.9-3.7.5-.9 1-.7 1.5.7.5 1.3.8.4.8-2.9.1-2.6-.1-4.7-.4-4.7s-.5 1.1-.5 2.5M246.8 383.6c-1.3 1.9-6.8 18.7-6.4 19.2.8.7 16.4-4.8 17.5-6.2.9-1-.3-2.8-4.7-7.7-3.2-3.4-6.1-5.8-6.4-5.3M206.9 415.1c-6.8 5-25.8 17.3-28.3 18.2-3.6 1.4-.5 2.1 14.4 3.2 18.8 1.5 21 1.2 21-2.6 0-1.5-.4-3.1-1-3.4-.5-.3-1-1.3-1-2.1s.5-1.2 1-.9c.6.3 1.1-.4 1.1-1.7.1-1.3.3-3.4.5-4.8.4-3.3-.6-10-1.5-10-.4 0-3.2 1.8-6.2 4.1M178.5 439.5c1.7 1.4 5.4 4.1 8.2 6.1l5.2 3.6 10-4.3c5.5-2.4 9.8-4.5 9.6-4.7-.4-.5-29.4-3.1-33.5-3.1h-2.5zM546.5 558c-.3 2.5-.8 5.5-1.1 6.7-.5 2.6-.4 2.6 5.1 1.3 2.2-.5 6-1.2 8.4-1.6 2.4-.3 6-1.2 8-1.9l3.6-1.4h-4.8c-3.2-.1-4.9-.6-5.3-1.6-.3-.8-2.1-1.9-3.9-2.5s-3.6-1.7-3.9-2.5c-.3-.9-1.6-1.4-3-1.3-2.2.2-2.6.8-3.1 4.8M557.6 609.7c-.4 3.2-1 7.7-1.3 10-.3 2.8-.1 4.3.6 4.3.6 0 4.6-2.5 8.8-5.6 4.3-3.1 9.1-6.3 10.7-7.1 2.1-1.1 2.5-1.8 1.7-2.6s-1.4-.8-2.3.1c-2.5 2.5-5.9.7-6.2-3.3-.1-.6-2.6-1.1-5.7-1.3l-5.6-.3z"/></svg>