<svg xmlns="http://www.w3.org/2000/svg" width="1706.667" height="960" viewBox="0 0 1280 720"><path d="M0 360v360h410c376.4 0 410-.1 410-1.6 0-2-6.3-19.5-9-24.9-1.8-3.7-1.9-4.3-.5-9 1.3-4.3 1.4-4.5 1.1-1.3-.7 5.9.3 7.5 7.3 12 7.3 4.7 16.2 9.7 17.3 9.8.4 0 .3-1.2-.2-2.6-.6-1.4-1-3.1-1-3.7 0-1.8 2.8 2.6 3.5 5.6.6 2.4 6 7.1 13.8 12.1 1.6.9 2.6 2 2.3 2.3s-3.5-1.6-7.2-4.1c-3.6-2.6-6.8-4.5-7.1-4.2-.2.2.3 1.8 1.2 3.6.9 1.7 1.4 3.7 1.2 4.3-.4 1.3-3.7-4.9-3.7-6.9 0-.7-.6-1.7-1.4-2.1s-1.4-1.2-1.4-1.7c0-.6-3.3-2.7-7.3-4.8-4-2.2-9.2-5.2-11.6-6.8s-4.3-2.7-4.3-2.4.9 2.4 2.1 4.7c1.1 2.3 2.2 5.1 2.4 6.2.8 3.7 6.9 15.5 8.1 15.5.6 0 1.7-.7 2.4-1.5s1.7-1.5 2.2-1.5c.6 0 .5.7-.2 1.5-1.1 1.3 23.9 1.5 224.4 1.5H1280V0H0zM586 54.9c0 .6 5.3 2.6 11.8 4.6 24.1 7.4 47.7 15.2 50.9 16.7 1.1.6 3.7.9 5.6.6 2.4-.2 3.3 0 3 .8s3.7 2.6 10.9 4.9c6.2 2.1 16.6 5.7 23.1 8.1S703.5 95 704 95c.6 0 1-1.5 1.1-3.3.1-3.3.3-3 1.3 1.5.5 2.3 1 2.6 4.3 2.3 2.1-.1 2.8 0 1.6.2-3.6.7-2.7 2.2 2.5 4.3 2.6 1.1 5.4 2.4 6.2 3 2.8 1.9 26.5 13.2 35 16.7l2.5 1 1.1-12.6 1.1-12.6.1 12.5c.2 15 .7 16.8 6.5 25.7 5.8 8.8 17.4 27.6 22.9 37.1 6.4 11 12.3 19.7 13.4 19.7.5 0 1.9-2.7 3.2-6s3.2-7.8 4.2-10c4-8.6 9.8-22.2 10.9-25.8.7-2 1.6-3.7 2.1-3.7 1.2 0-1.2 6.4-9.4 24.9-6.8 15.5-8.9 20.9-9.1 23.8-.1 1.9-1.5 2.8-2.4 1.5-.6-.9-2-1-6.2-.2-6.3 1.3-25.1 3.9-35.9 5.1-14.5 1.5-32.9 4.4-33.7 5.3-.7.6 1.7 4.7 4.3 7.5 1.3 1.4 2.4 2.9 2.4 3.4s-1.7-1.2-3.9-3.7c-2.8-3.3-4.2-4.1-5-3.3-.6.6-1.1 1.5-1.1 2s-.6 1.5-1.4 2.3c-.8.7-2.9 5.8-4.6 11.1-3.4 10.3-6.6 18.5-10.4 26.8-1.3 2.7-2.7 6.1-3.1 7.5s-3.2 7.9-6.2 14.5-6.3 13.9-7.4 16.3c-3.1 7-2.7 8 6.4 15.2 4.5 3.6 9.9 7.8 12.1 9.4s5 3.8 6.1 4.9l2 2.1-3-1.9c-3.6-2.2-15-11-18.5-14.2-1.4-1.3-4-3-5.8-3.9-2.8-1.3-3.6-1.3-5-.2-1.5 1.2-1.6 1.1-.3-.4 2.2-2.9-.3-3.1-20.1-1.9-20.8 1.3-21.9 1.4-23.6 2.5-.8.4-1.1.3-1-.5.3-1.3-2-2.1-10.2-3.8-3-.6-8.6-1.7-12.5-2.6-6.3-1.3-7.1-1.3-8.2.1-.6.9-1.4 1.1-1.7.5-.7-1-5.1 0-16.6 3.9-3 1-6.8 2.1-8.5 2.4-5.2 1.1-11.4 4.8-15.4 9.2-2.2 2.3-5.4 4.9-7.3 5.8l-3.3 1.6 2.5-2.1c1.4-1.2 5.3-4.7 8.8-7.7l6.2-5.7-4.2-2.1c-2.4-1.1-7.4-3.8-11.3-5.9-3.8-2.1-7.9-3.8-9-3.7-1.8.1-2-.4-1.7-5.9.4-7-2.5-45-3.7-48.2-.8-2.1-.9-2-2.3 1.3-.8 1.9-2.3 6-3.3 9-.9 3-2.3 6.8-3 8.5-.7 1.6-2.1 5.2-3.1 8-1 2.7-2.4 5.9-3.1 7-1.5 2.3-1.8 1.3-.3-1.3.5-.9 1.9-4.4 3.1-7.7 1.1-3.3 4.1-11.6 6.5-18.4s4.4-12.6 4.4-12.9c0-.6-44.6.7-48.3 1.4-2.4.5-2.8 1-2.4 3 .2 1.3.1 2.4-.4 2.4-.4 0-1 .8-1.3 1.7-.5 1.7-6.1 38.7-7.3 47.8l-.5 4 9.1 5.9c5 3.2 8.9 6.1 8.7 6.4-.3.2-4.3-1.9-8.9-4.8-4.7-2.8-9.3-5.3-10.4-5.5-1-.1-3.4.7-5.3 1.8-2.7 1.6-3.2 1.7-2.2.4.8-.9 2.3-1.9 3.3-2.2 1.1-.4 1.9-1.4 1.7-2.2-.3-1.6-16.2-12.3-18.3-12.3-1 0-.9 21.9.2 23 .2.3 2.7-.8 5.6-2.3 2.8-1.4 5.2-2.5 5.4-2.3.5.4-8.6 5.6-9.8 5.6-2.3 0-.5 2.3 3.7 4.8 2.5 1.5 7.5 4.6 11.2 6.9 3.6 2.4 7.7 4.3 9 4.3 1.5 0 2.1.4 1.6 1.2-.4.7-.3.8.5.4.6-.4.8-1.3.4-1.9s-.8-2.6-1-4.4c-.2-1.7-1.5-6.2-2.9-9.9-1.3-3.6-2.3-6.8-2.1-7 .6-.6 6.7 13 6.7 14.7 0 .8 1.2 3.9 2.6 6.7 3.1 6.1 3.1 6.1 13.5-.2 6.3-3.8 8.7-6.6 5.7-6.6-.8 0-.9-.3-.2-1s-.4-5.3-3.3-14.1c-2.4-7.2-4.3-13.9-4.3-14.8s-1.4-6.3-3.1-12.1c-3.4-11.4-7.1-28.1-6.4-28.8.2-.2.7.9 1.1 2.4.9 3.8 6.6 25.8 9.3 35.9 1.2 4.4 2.6 8.9 3.1 10s1.7 4.7 2.6 8 2 6.4 2.5 6.9c.5.6.9 1.8.9 2.8 0 3.8 1.6 1.5 3.8-5.7 1.3-4.1 2.6-7.5 2.9-7.5 1 0-.6 9.2-2.1 12.1-1.4 2.9-.6 3.8 1.7 1.8 4.2-3.6 25.5-16.4 26.3-15.7.2.2-3.5 2.6-8.1 5.3-4.7 2.7-8.5 5.4-8.5 6.1s-2.7 2.5-5.9 4.1c-3.3 1.5-6 3.3-6 4-.1.6 1.4 1.6 3.2 2.2 1.7.6 4.6 2.2 6.2 3.6 3.3 2.8 1.9 2.5-5.4-1.1-2.5-1.2-4.7-2.1-4.8-2-.4.4 4.7 13.1 8.1 20.1 1.9 3.8 3.7 8.1 4.1 9.3l.7 2.4 3-2.9c1.7-1.5 4.8-5.2 6.9-8.1 2.2-2.8 4.4-5.2 4.9-5.2s-.2 1.2-1.6 2.7c-1.5 1.6-3.2 4-4 5.5s-2.5 4.4-3.9 6.4-2.5 4-2.5 4.4c0 1.4 6.3 1.8 12.9.9 5.6-.8 9.6-2.7 13.7-6.4.7-.5 2.6-2.1 4.3-3.5s3.1-3 3.1-3.7.9-1.8 2-2.5c2.4-1.5 2.6-3.4.5-4.2-.8-.3-6.6-.6-13-.7-6.3 0-11.5-.5-11.5-.9s-3.1-2.2-7-4.1c-3.8-1.8-6.8-3.4-6.6-3.6.1-.2 3.5 1 7.4 2.6 6.9 2.9 7.2 2.9 9.4 1.2 1.3-1 3.9-2.6 5.8-3.6l3.5-1.8-1.9 2.2c-1.1 1.1-2.4 2.1-2.9 2.1-1.4 0-4.7 3.1-4.7 4.3 0 1.3 25.4 0 25.8-1.3.2-.6 1-1.7 1.8-2.4.8-.8 1.1-2.2.8-3-.3-.9-.1-1.6.6-1.6.6 0 .9-.3.7-.8-.3-.4-.1-2.7.3-5.2.6-3.7.8-4 .9-1.3.2 5.6.7 6.1 5.4 5.1 2.3-.6 5.5-1.1 7.1-1.1 2.2-.2 3.9-1.5 7.4-6 2.5-3.1 4.7-5.5 5-5.2.3.2.1 1-.5 1.7-.5.7-1.4 2.4-2 3.8-1 2.5-1 2.5 4.5 2.8 3.1.2 7.5.7 9.9 1.1 2.4.5 4.3.5 4.3 0s-.4-.9-.9-.9-1.4-2.1-2-4.7c-.7-2.5-2-6.4-3.1-8.5-1-2.1-1.4-3.8-1-3.8.5 0 2.6 3.7 4.9 8.2 5.1 10.6 6.1 11.8 10.4 12.5 3 .5 4 .1 6.3-2.3 2-2.2 2.5-2.4 1.9-.9-2.1 5.4-1.8 6.1 3.4 9.4 2.8 1.8 5.1 3.7 5.1 4.2 0 .4 2.5 3.4 5.6 6.5 7.2 7.2 8.8 6.3 5.5-3.2-1.2-3.6-2-6.8-1.7-7.1s.9.3 1.3 1.3 1.3 2.5 2 3.2 1.3 2.1 1.3 3.1c0 .9.4 2.1 1 2.7.5.5 1.1 2.2 1.2 3.7s.5 2.7.9 2.7 3.7-4.6 7.4-10.3c3.8-5.6 7.2-10.7 7.8-11.2 1.5-1.5-2 4.9-5.2 9.7-1.6 2.4-3.8 6.1-5 8.3-1.9 3.5-1.9 4.1-.6 5.1 2.1 1.5 1.9 2.3-.4 1.7-1.6-.4-2 .2-2.4 4.4-.5 4.1-.4 19.4.2 27.3.1 2 .3 2.2 1.1 1s1-1.2 1 .5c0 1.4 3.9-1.9 13.7-11.9 11.8-12.1 13.4-14.1 11.9-15.1-2.2-1.6-2-2.4.4-1.8 1.7.5 2 0 2.1-3.3.1-2.2.3-3 .6-1.9 1 4.6 1.1 4.6 10 0 15.5-7.9 20.6-11.1 21.5-13.5.6-1.6 1.2-2 1.9-1.3s4-.3 10.7-3.2c10.5-4.6 26.2-11.8 30.2-14 4.7-2.5 23.3-10.5 23.7-10.2.3.4-24 12.2-34.7 17-7.5 3.3-16.2 7.3-23.8 10.9l-6.4 3 .2 8.1c.4 14.5 0 30.7-.7 30.7-.5 0-.6-8.5-.5-19 .2-10.4.2-19 0-19-.3 0-4.1 2.2-8.5 4.8-4.4 2.7-11 6.4-14.6 8.3-3.7 1.9-6.7 3.8-6.7 4.4 0 .5 1.6 2.1 3.4 3.5s8 6.4 13.7 11.2c8 6.8 10.6 8.4 11.7 7.6 1-.9 1.2-.8 1 .2-.7 3 3.4 2.1 7.6-1.7 2.3-2.1 8.9-7.4 14.7-11.8 10.2-7.9 17.7-14.8 21.1-19.6 1.1-1.5.9-.4-.7 3.1-1.3 3-3 5.7-3.7 6s-4 2.5-7.2 5-7.1 5.4-8.5 6.5c-5.9 4.4-18.1 14.7-19.3 16.3-.7.9-3 2.6-5 3.7-7.9 4.3-37.8 24.9-37.8 26.1 0 .7.8 1.5 1.8 1.7.9.3-.5.5-3.3.5-6.9 0-29.8 5.3-33.7 7.9-.7.4-2.6.9-4.3.9-4.1.2-22.5 3.3-23.7 4-.5.3-.6 1.5-.2 2.7.6 2 .5 2-1 .8-.9-.8-1.8-1.2-2-1-.1.2-1.7 2.6-3.5 5.2-4.3 6.4-5.3 5.2-1.2-1.4 1.7-2.8 3-5.3 2.9-5.4-.2-.2-2.8-.5-5.8-.7-3-.1-5.8-.7-6.1-1.1s-3.7-1.2-7.5-1.8c-3.8-.5-7.9-1.1-9.1-1.4-1.5-.2-2.3.1-2.3 1 0 1.8 18.8 22.5 20.5 22.5.7 0 1.5.7 1.9 1.5.3.8 2.6 2.4 5.1 3.6 5.9 2.8 5.3 3.6-.8.9-2.5-1.1-5.1-1.8-5.9-1.5-.7.3-2.3-1.2-3.8-3.5-1.3-2.2-2.8-4-3.2-4s-2.1-1.9-3.8-4.1c-4-5.6-12.1-14.2-12.7-13.5-.3.3-.5 5.3-.5 11.3v10.8l-1.1-6.3c-.7-4.5-1.4-6.2-2.3-5.8-2 .8-2.9-1.5-1-2.6.9-.5 1.6-1.8 1.6-2.8 0-1.1.5-2 1.1-2 .5 0 .8-.4.4-.9-.3-.5-.1-1.3.5-1.6.8-.5.7-1.1-.1-2.1-1.4-1.7-7-1.8-22.8-.3-18 1.7-17 .8-10.5 9.2 4.5 5.9 14 16.9 18.9 22.1.6.6 3 3.6 5.4 6.6 5.2 6.6 10.9 13 11.6 13 .3 0 .6-3.5.6-7.8l.1-7.7.9 5.5c2.1 13.5 1.5 12.3 6.5 11.5 2.5-.3 7.2-1.5 10.5-2.6 3.4-1.1 6.3-1.8 6.5-1.6.3.2-2.2 1.2-5.3 2.2-3.2 1-6.2 2.1-6.7 2.6-.6.5-1.7.9-2.6.9s-2.5.7-3.6 1.4c-1.8 1.4-1.3 2.1 9.1 12.5 6 6.1 11.7 11.1 12.6 11.1 3.3 0 1.3 3.3-2.7 4.5-5.8 1.8-33.4 15.3-33.4 16.3 0 .8 7.1 10.7 12.7 17.7 1.4 1.6 2.9 2.5 3.7 2.2q1.5-.6.9.9c-.4 1 .3 1.4 2.8 1.5 2.2.1 2.7.3 1.4.6-1.1.3-2.6 1-3.3 1.6s-2.4 1.2-3.8 1.3c-1.4.2-3.9 1.2-5.7 2.3s-7.6 4.3-12.9 7.2c-5.4 2.9-9.8 5.8-9.8 6.4 0 .7.7 1.8 1.5 2.5s1.5 1.8 1.5 2.4-.7.2-1.5-.8c-1.9-2.6-8.5-2.5-19 .3-4.4 1.1-9.8 2.1-12 2.1s-6.7.6-10 1.4c-8.9 2-15.2 2.8-14 1.8.6-.5 5.3-1.7 10.5-2.6 10.1-1.9 15.1-3.4 11.7-3.5-1-.1-1.5-.6-1.2-1.1.3-.6-.1-1-1-1-.8 0-1.8-.7-2.1-1.5-.4-.8-1-1.3-1.4-1s-1.3-.2-2-1-2-1.5-3-1.5-2.3-.7-3.1-1.6c-.7-.8-2.1-1.3-3-1.1-1 .3-1.9.1-2.1-.4s-1.2 2-2.2 5.6-2.3 6.5-2.8 6.5c-.6 0-.8-1-.4-2.2.3-1.3.9-4.6 1.2-7.5l.7-5.1-5.9-1.2c-3.3-.6-6.8-1.4-7.9-1.7-1.8-.6-1.8-.7.5-1.4 2.2-.6 2.2-.7.4-.8-1.1-.1-2.8.7-3.7 1.7-1.8 2-5.6 10.1-5.7 12 0 .7 3.4 2.9 7.5 4.9 4.2 1.9 7.4 3.8 7.1 4-.2.2-3.4-1-7.1-2.7-3.6-1.7-7.7-3.5-9.1-4-2.3-.9-3.4-3-1.5-3 .9 0 6.1-11 6.1-12.9 0-.6.6-1.1 1.3-1.2.6 0 .1-.5-1.2-1s-2.2-1.1-2-1.4c.8-.7 8.2 1.9 11.1 3.8 1.5 1 3.9 1.7 5.4 1.5 2.6-.3 2.3-.5-2.9-3.2-8.7-4.4-7.5-4.5 2.6-.2 2.1.9 4.2 1.4 4.8 1.1.5-.4 1.1 0 1.4.7.4 1 3.4 1.2 13.3 1 7-.2 15.2-.3 18.2-.3s10.4-.6 16.3-1.4 13-1.5 15.7-1.5c2.8 0 5-.5 5-1 0-.6-1.2-1-2.7-1-5.6 0-19.8-1.3-20.3-1.8-.6-.6 23 .6 29.5 1.4 4.3.6 4.5.6 4.5-1.8 0-1.4-1-3.3-2.1-4.4-1.2-1-4.6-5.2-7.6-9.2-3.4-4.5-5.9-7-6.6-6.6-2.3 1.4-9.2 6.8-14.6 11.6-3 2.6-5.9 4.8-6.4 4.8s-1.5.7-2.3 1.5c-1.8 1.7-4.4 2-4.4.4 0-.5-4.2-3-9.4-5.4-5.1-2.4-11.2-5.5-13.6-7-4.7-3-6.9-2.8-15.7 1-4.6 2.1-5.3 2.2-7.2.8-1.3-.9-2.1-1-2.1-.3 0 1.6-4.8-2.1-5.6-4.3q-.6-1.8-2.4-1.2c-1.6.5-1.8.3-.9-2.2.5-1.5 1.2-6.9 1.6-11.8l.8-9 .3 8.5.3 8.5 4-6.3c4.6-7.3 6.4-7.7 2.4-.7-1.4 2.6-2.4 5.4-2.1 6.2s.2 1.2-.3.9-1.4.1-2 .8c-.8 1-.9 1.6-.1 2.1.5.3 1 .1 1-.5s.5-.8 1.1-.5c.6.4 1.3-.3 1.6-1.5.4-1.6 1.1-2 2.5-1.6 1.4.3 2.2-.1 2.5-1.5.3-1 .9-1.9 1.4-1.9.4 0 1.1-3.3 1.5-7.3.7-6.2.9-6.7 1.5-3.9.9 4.2 2.3 5.8 1.6 1.7-.4-1.7-.9-4.8-1.3-7l-.6-4 2.1 3c1.2 1.6 2.6 4.9 3.2 7.2.6 2.4 1.5 4.3 2 4.3 1.9 0 3.6-7.6 3.9-16.3 0-1.3.5-1.7 1.9-1.2 1.1.3 2.2.2 2.5-.3s3.1-1.5 6.3-2.2c4.3-1.1 6.6-2.4 9.4-5.2 2.3-2.4 3.6-3.2 3.3-2.1-.8 3.3.8 4.2 5.6 3.3 8.2-1.6 10-1.3 10 1.6 0 1.4.4 2.3 1 1.9.6-.3 1-1.7 1-3s-.4-2.7-1-3c-.5-.3-1-1.7-1-2.9 0-1.3-1.2-5.4-2.6-9.2s-3-8.8-3.5-11.2c-1-4.8-1.6-6.2-2.8-6.2-1.5 0-1.8 7-.5 8.1 1 .8.9 1.4-.4 2.8-2 2-6 2.7-4.3.7.6-.7.8-1.6.4-1.9-.3-.4 0-1.3.6-2.1.7-.8 1-2.3.8-3.3-1.7-6-1.8-6.8-.8-5.3.9 1.2 1.1.9 1.1-1.5 0-2.3-.3-2.7-1-1.5s-1 .8-1-1.5c-.2-4.8-3.5-18.8-4.6-19.2-.6-.2-3.1 1.4-5.5 3.6l-4.5 3.9.6 5.6c.4 4.2.2 5.9-.8 7-1.2 1.2-2.9 10.5-2 10.6.2.1 3.2.4 6.8.7s7.2.9 8 1.4c1.5.9-18.7.5-33-.6-7.2-.6-7.4-.5-4.7 1 1.5.9 2.7 1.9 2.7 2.4 0 .4 2.8 2.8 6.3 5.2 3.4 2.3 6.4 4.6 6.7 5 1.3 1.8 4.2 1 12.3-3.5 4.9-2.6 9.1-4.5 9.4-4.2.6.6-7.4 5.8-11.7 7.6-3.7 1.5-3.7 2.1-.2 4.4 1.6 1.1 1.9 1.5.7 1.1-2.5-.9-4.9-1.2-9.9-1.4-3.6-.1-3.8-.2-2.2-1.4 1.7-1.3 1.4-1.6-3.5-4.6-3-1.8-6.5-4.4-7.9-5.7-3.5-3.3-11.1-5.9-12.2-4.2-.6 1-1.1.9-2.2-.4-.9-1.3-3.1-1.8-8.7-2-7.8-.3-7.5-.5-7.8 4.7-.1 1.5-.4 1.6-1.3.7-2-2-.9-15.2 1.7-20.3.8-1.5 1.5-3.5 1.5-4.4 0-.8.4-1.5.8-1.5.9 0 6.2-14.7 6.2-17.1 0-1.7-4.4-2.9-10.7-2.9-3.2 0-3.3.2-3.5 4.2l-.1 4.3-.4-4.2c-.3-2.9-.9-4.3-2.1-4.5-.9-.2-7 .3-13.4 1.1-13.5 1.6-13.6 1.7-9.3 9.9 3.1 6 4.9 10.5 4.6 11.6-.1.4.7 2.4 1.9 4.3 2.9 5 2.5 5.3-.9.7-1.6-2.2-3.3-5.3-3.7-6.9-1.2-5.1-7.1-15.7-9.9-17.7-.5-.4-1.3-.4-1.9-.1-1.6 1 .7-2.1 2.9-3.8 2.5-2.1 7.5-12 9-18 .5-2 .2-2.8-1.7-3.7-1.7-.8-1.9-1.1-.6-1.1.9-.1 2-.6 2.3-1.1.8-1.3-3.2-7-4.8-7-.7 0-1.7-.8-2.4-1.9-.6-1-2.1-2.1-3.2-2.4-1.7-.4-2.1 0-2.2 2.1-.2 4.8.3 6.6 2.2 8.3 2.6 2.3 2.4 3-.7 1.9l-2.6-1 .6 7.2c.4 4 1.2 9.2 1.8 11.5.8 3.3.8 4.6-.2 5.8s-1.6 1-4.1-1.8c-1.6-1.7-2.9-4.2-2.9-5.4 0-2.5.2-2.5-6.7 1.1-3.5 1.8-4.7 2-3.8.7.3-.5 3-2.1 6-3.5 3.8-1.7 5.6-3.1 5.9-4.8 2-9.4 2.3-27.6.6-38.3-.6-3.9-1-9.3-1-12 .1-2.8-.6-7.9-1.5-11.5-2-8.2-2.9-18-1.7-18 1 0 2.2 4.7 2.2 8.7 0 1.3.4 2.2.9 1.9.5-.4.7.2.4 1.3-.3 1 0 2.2.6 2.5.6.4 1.1 0 1.1-.9s.5-1.3 1-1c1 .6 1.3-1 1.2-7.7 0-2.1.4-3.6.8-3.3.5.3 1.1-.7 1.3-2.2.3-2.5.4-2.4.6.7.2 4.8 1.4 6.6 3 4.6.7-.8 1.9-1.2 2.7-.9 1.7.6 7.4-1.5 7.4-2.9 0-.5.5-.6 1-.3 2.4 1.5.6-1.7-3.7-6.6-7.7-8.9-8.1-9.8-1.2-3.1 3.6 3.5 7.3 6.8 8.3 7.4 2.2 1.2 6.6-1.5 6.6-4.1 0-2 1.4-2.2 3.8-.7.7.4 1.5.6 1.8.4.6-.7-9-7-15.7-10.3-7.9-4-18.1-6.8-19.1-5.2-.6.9-.8.9-.8 0 0-.6.5-1.5 1-1.8.6-.3 1-1 1-1.5 0-1-1.9-.8-3.7.3-.9.6-1.3.1-1.3-1.3s.5-2 1.3-1.7 2 .2 2.7-.3c.8-.5 2.1 0 3.4 1.5 1.9 2.1 18.6 10.5 20.7 10.5.5 0 .8-5 .8-11 0-8.9-.3-11-1.5-11-.8 0-1.4.4-1.4.9s-2.4 2.3-5.2 4.1c-2.9 1.8-6.5 4.1-8 5.1-3 2.1-3.8 2.3-3.8 1 0-.9 9.6-7.1 11-7.1 1.8 0 8-6.8 7.5-8.1-.6-1.3-12.5-9.9-13.8-9.9-.3 0-.9 1.7-1.2 3.7-1.7 10-2.7 14.2-4 15.9s-1.3 1.5-.5-1.6c.5-1.9 1.2-6.2 1.5-9.5s.6-6.6.7-7.3c.1-.6.5-1.2 1-1.2.4 0 .8-1.3.8-2.9s.7-3.4 1.5-4.1 1.5-2 1.5-2.9 1.4-3.6 3-6.1c4.3-6.4 7.2-13 7.2-16.4-.1-4 .7-5.1 2.2-3 1.1 1.4 2.8 1.7 9.2 1.6h7.9l-6.2.8c-9.4 1.3-9.7 1.7-6.2 8.9 1.1 2.4 2.2 5.1 2.4 6 .8 3.9 5 13.7 10.2 23.9 2.4 4.6 4.3 9.6 4.3 11.2 0 3.5 1.6 4.7 2.8 2.3 2.5-5 10-51.4 8.5-53.2-.1-.2-3.5-.4-7.5-.4h-7.3l6.7-.6c3.6-.3 7-1 7.4-1.4 1-.9-2.4-11.1-6.9-20.7-1.6-3.5-3.5-8-4.2-10-2.8-7.9-8.9-20-9.9-19.7-.6.2-1.5 2.8-1.9 5.8-.5 3-1.3 5.8-1.8 6.4-1.1 1.1-.6-2.1 1.8-13.8.9-4.2 2-7.7 2.5-7.7.4 0 .8-.8.8-1.8 0-1.2.2-1.4.8-.4.9 1.3 6.5-4.1 14-13.3 1.7-2.2 3.2-3.6 3.2-3.1 0 .9-5 7.4-10.2 13.1-8.7 9.8-9.3 11.3-6 15.6 1.6 2 10.2 22.6 10.2 24.3 0 1.4 8.4 17.6 9.1 17.6s2-3 2.5-5.9c.2-.7.7-3.4 1.3-6 .6-2.5 2-9.8 3-16.1 1.1-6.3 3.2-17.1 4.6-24 3.2-15.3 7.5-42.2 6.9-43.1-.2-.4 0-1 .6-1.4 2.4-1.5.7-2.5-3.2-2l-4.3.5 4.3-1.3c2.4-.7 5.2-2.2 6.2-3.5 1.2-1.4 2-1.8 2.2-1 .4 1 6.7.8 28.9-.9 15.6-1.1 29.2-2.4 30.1-2.8 1.1-.4 1.9-2.2 2.2-4.8 6.4-50.7 6.6-53.1 5.4-53.8-1-.6-.3-.9 4.5-1.8.4 0 .7.3.7.8m122.9 1.9c2 1.6 6.1 4.2 9.1 5.9 3 1.6 12.8 7.4 21.8 12.9 8.9 5.4 18.1 10.8 20.2 11.9 2.2 1.1 4 2.2 4 2.5s-2.8.6-6.2.7c-3.5.1-13.5 1.1-22.3 2.2-8.8 1.2-16.9 2-18 2-2.9-.2 12.3-2.5 25.5-3.9 6.3-.7 12.1-1.6 12.9-2 1-.5-1.2-2.5-7.5-6.7-11.7-7.8-41.6-25.2-44.6-25.9-1.3-.3-3.9-.9-5.8-1.4-3.3-.7-3.2-.8 1.9-.9 4.4-.1 5.9.4 9 2.7M323 115.4c0 .2-4.5 2.1-10 4.2s-10 4.2-10 4.6c0 .3 3.6 1.8 8.1 3.3 4.4 1.5 7.8 2.9 7.6 3.1s-3.7-.7-7.7-2.1c-9.9-3.4-11.4-3.3-12.7.7-.5 1.8-.8 2.2-.6 1 .2-1.3 0-2.2-.5-2-.5.1-6.3 5.3-12.8 11.4-6.6 6.1-14.1 13.1-16.9 15.4-2.7 2.3-5.4 4.6-5.9 5.1s-.4 1.4.3 2.3c1 1.2.9 1.4-.8.9-1.3-.3-2.3.2-3.1 1.9-.7 1.2-4.7 8.1-8.9 15.1-9.8 16.4-12.1 20.7-11.3 20.7.4 0 3.2-1.6 6.2-3.5s7.3-4.4 9.5-5.6C264.3 186 284 173.8 284 173c0-.4-.6-1.1-1.2-1.4-.7-.2-.2-.4 1.1-.3 2 .2 2.6-.4 3.3-3.3 2.3-9 4-14.2 4.4-13.7.3.3-.2 3.3-1.2 6.6-.9 3.4-1.5 6.3-1.3 6.5s8.4-7.4 18.3-16.9c17.2-16.7 17.7-17.3 15.2-18.1-2.1-.7-1.4-.9 3.7-1.1 3.4-.1 17.6-2.2 31.3-4.7 13.8-2.5 25.7-4.6 26.4-4.6 3.9 0-1.6 1.2-22 5-12.4 2.2-25 4.6-28 5.3l-5.5 1.3 14.5 7.5c8 4.1 15.2 7.4 16 7.3 1.6 0 40.7-25.7 42.5-27.8 1.9-2.3 8.5-4.3 8.5-2.6 0 .5 3.6 2.8 8 5s8 4.2 8 4.5-3.6-1.3-8-3.5-9-4-10.3-4c-2.3 0-12.9 6.9-32.2 20.6-5.2 3.8-9.5 7.1-9.5 7.4 0 .6 28.7.4 65-.3 8-.2 12.9 0 11 .4s-9.3.9-16.5 1c-18.2.4-22.8.8-21.7 2.3.5.6 1.2 2.8 1.5 4.8.4 2.8.2 4-1 4.7-1.4.8-1.4 1.1.1 3.2 2 2.9 2 3.9.1 3.9q-3.15 0 .6 5.1l2 2.9h-2c-1.9 0-1.9.2-.8 2.7.6 1.6 1.7 3.4 2.4 4.1s1.3 1.8 1.3 2.3c0 .6.5.7 1 .4.6-.3 1-.2 1 .3 0 1.2-2.5 3.4-3.1 2.7-.3-.2-1 .5-1.7 1.6-1.7 2.7-1.7 2.7 15.2-10.1 18.7-14.2 26.4-19.7 24.6-17.5-.8 1-4 3.6-7 5.8-3 2.3-6.6 5.1-8 6.3-3.8 3.5-27.2 21.8-30.1 23.6-2 1.3-2.5 2.3-2.4 5.2.1 2 .5 4 .9 4.4s5.1 1.9 10.4 3.4c11.4 3.1 10.8 3.6-1 .9-10.6-2.5-17-2.9-17.6-1.3-.2.7-.8 1-1.3.6-.5-.3-.9 1.4-.9 3.7 0 5.7-.9 4.5-1.1-1.4-.2-3.9-.5-4.7-2.2-4.7-1.1 0-16.2 3.3-33.6 7.4s-35.1 8.2-39.4 9.1c-4.2.9-8 2.2-8.3 2.7-.4.6-.6 8.1-.5 16.7.3 33.4 1.1 84.5 1.4 84.7.1.2 13.9-4.9 30.6-11.2 16.7-6.2 30.7-11.4 31-11.4 1.4.1-3.6 2.4-13.2 6-38.6 14.5-45.1 17.1-46.7 18.5-1 .9-2.3 4-2.8 6.8-.6 2.9-2 10.1-3.1 16.2-1.2 6-2.3 11.6-2.6 12.3-1 2.6 5.5-.4 19-8.8 3.3-2 10.3-6.1 15.5-9 5.2-3 9.7-5.7 9.8-6.2.2-.4 1-.8 1.8-.8s5.2-3.6 9.8-8 8.6-8 8.8-8c.3 0-2.7 3.2-6.8 7.2-4.1 3.9-7.4 7.4-7.4 7.8s1.5.5 3.3.3c2.3-.3 1.7.2-2.3 1.5-4.9 1.7-17.1 7.7-23.2 11.5-1.3.8-7.9 4.8-14.7 9l-12.3 7.6 3.8.9c5.4 1.4 20.9 4.7 33.4 7.2 10.7 2.1 21.3 4.7 19.5 4.9-.6.1-13.2-2.4-28-5.4-14.9-3.1-27.8-5.7-28.9-5.8-1.6-.2-2.5 2.1-6.3 15.7-2.4 8.7-4.3 15.9-4.1 16.1.3.3 43 3 61.8 3.9 5.5.3 8.6.9 8.9 1.7.2.8-.2 1-1.5.5-1-.4-5.2-.9-9.4-1.2-10.8-.7-57.7-3.4-58.9-3.4-.6 0-1.1.9-1.1 2s-.4 2-1 2c-1.4 0-.6-5.1 2.5-16.5 4.2-15.5 4.9-18.5 4.3-19.1-.7-.7-1.7-.1-20.7 12.4l-14.3 9.5 2.8 1.3c2.8 1.2 2.8 1.2-2.4 1.3-5.9.1-16.2 2.7-20.9 5.2-1.7 1-3.3 1.5-3.6 1.3-.5-.6.5-4 3.5-11.8 2.1-5.8 1.8-6.8-.9-2.9-11.7 16.7-11.3 15.7-7.2 15l3.4-.6-4 1.8c-2.6 1.2-4.2 1.4-4.7.8-1-1.7-6.9 1.2-6.4 3.2.3.9 1.2 5.4 2.1 10.1.8 4.7 2.2 11.9 3 16 .7 4.1 1.6 9.2 2 11.2.6 3.6 8.1 20.8 9.5 21.8 1.1.8 2.2 5 1.3 4.9-1.4-.1-12.3-23.6-12.3-26.6 0-1.5-.4-4.4-.9-6.3s-1.2-5.7-1.6-8.3l-.7-4.9-1.9 3.6c-2.3 4.3-2.4 5.7-.4 5 1.2-.5 1.5.2 1.3 3.7-.1 3.7-.2 3.9-.5 1.1-.4-3.2-2.3-4.6-2.3-1.6 0 .8-.7 2.2-1.5 3-.8.9-1.5 2.4-1.5 3.4s-.4 2.2-1 2.5c-1.5.9-1.2-2.6.5-5.8 1.4-2.7 1.4-2.8-.8-2.1-3.3 1-14.7 6.6-15.2 7.4-.4.7 1.7 1.5 10.5 4 3.4 1 3.4 1-1 .5-2.5-.2-5.5-.7-6.5-1.1-1.7-.6-1.7-.3.5 2.1 2.8 3.2 1.2 2.5-4.1-1.7-3.3-2.7-4-2.8-9.6-2.2-5.3.5-6.1.4-6.7-1.3-.3-1-.9-2.5-1.3-3.3-.3-.8.5-.2 1.8 1.4 2.3 2.6 2.8 2.7 6.7 2l4.3-.9-7-5.3c-3.9-2.8-7.3-5.2-7.6-5.2-.2 0 0 1.2.6 2.6.5 1.5.7 2.9.5 3.2-.6.6-2.6-4.3-2.6-6.4 0-.8 4.2-10.1 9.4-20.7 5.1-10.5 9.8-20.5 10.5-22 .7-1.7 1.6-2.5 2.3-2.1.6.4.8.3.5-.4-.7-.9.6-4.1 9.2-23.9 2.8-6.6 3.1-8.1 3-17.5 0-5.7-.4-12.6-.9-15.3-2.8-15-4.1-28.5-3.5-34.5.3-3.6.9-12.1 1.1-19 .3-6.9.8-12.7 1.1-13s.3 8.9 0 20.5l-.6 21 2.4-2.8c2-2.2 2.3-3.2 1.5-5.2-1.3-3.4.1-3.1 2.1.3 1.1 2 3.2 3.4 6.9 4.6 2.9.9 5.4 1.6 5.5 1.4.6-.5-5.9-25.8-6.5-25.8-.4 0-1.4 3.5-2.4 7.7-2.1 9.5-2.5 10.7-3.1 10.1-.3-.3 1.1-7.1 3-15.1 2-8.1 3.5-16.1 3.3-17.9l-.4-3.3-1.1 2.5c-2.4 5.2-1.3-1.3 1.6-10 1.6-4.7 3.7-12.1 4.6-16.5 2-9.4 5.4-22.8 6.1-23.4.9-1 .3 2.6-2.5 13.2-1.6 6.2-3.2 13.2-3.6 15.6-.7 4-.6 4.3 1.1 3.7 1.2-.5 1 0-.7 1.7-2.2 2-2.7 3.5-3.3 10.6-.6 7.7-.3 11.4.8 8 .2-.8 2-5.8 3.9-11.2 1.9-5.3 3-9.7 2.5-9.7-.6 0-.2-1.2.8-2.8 1.5-2.3 1.8-5.3 2.1-19.7l.3-17-3 6.4c-1.7 3.5-3.3 6.1-3.7 5.8-.3-.4-.1-1.2.4-1.9 2-2.4 8.3-18.8 8.4-21.6 0-2.1.2-2.3.8-.9.5 1.4 2.6-1.5 9.2-12.5 4.7-7.9 9.5-16.4 10.8-19 1.2-2.5 3.2-5.3 4.4-6.1s3.3-2.6 4.7-3.9c1.4-1.4 4.5-4.2 7-6.3 2.5-2 9.8-8.7 16.2-14.7 11.3-10.7 12-11.2 22.5-15.4 10.8-4.3 12.3-4.8 12.3-4m537 197.9c0 .5 1.4 2.2 3.1 3.8 2.3 2.1 2.7 2.9 1.5 2.9-.9 0-2.6-.9-3.8-2s-2.8-2-3.5-2-1.3-.4-1.3-.9-.9-.7-2-.4-1.7 1-1.4 1.5-.3 1.2-1.5 1.5-2.1 1-2.1 1.5-.4.7-.8.4c-1.7-1-26.2 19.8-24.9 21.1 1.1 1 10.9-1.7 13.2-3.7 2.5-2.1 10.1-6 11.8-6 .6 0-.2.8-2 1.7-1.7 1-5.2 3.7-7.8 6-2.6 2.4-5.7 4.3-6.9 4.3-1.4 0-2.7.9-3.4 2.2l-1.1 2.3.2-2.5c.2-2.1-.2-2.4-2.2-2.2-2.9.5-6.8 2.7-9.9 5.9s-4.4 2.9-2.5-.5c2-3.5 1.1-6.6-1.7-5.9-1.6.4-2 0-1.9-2.1.1-1.7.3-2.1.6-1 .2 1 .8 1.8 1.3 1.8.9 0 2.2-4.3 2.4-7.5.3-6.4 16-17.2 28-19.4 3.3-.6 6-1.2 6.2-1.3.8-.8 12.4-.3 12.4.5m167.5 29.6c-2.2 4.9-1.5 7.8.9 3.6 1.4-2.5 1.6-2.6.9-.5-.4 1.4-.7 5.6-.5 9.4.1 4.2-.4 8.1-1.2 10-.8 1.7-1.8 4.4-2.3 6.1l-1 3-2.2-5c-1.2-2.7-2.2-6.9-2.3-9.2 0-4-.2-4.3-2.8-4.3-4.6 0-6 1-6.1 4.4 0 3-.1 3-1 .7l-1-2.5-3.2 4c-1.7 2.1-5 5.9-7.3 8.4s-4.3 5.3-4.5 6.2c-.3 1.4-1.2.8-4.4-2.5-2.2-2.3-3.1-3.4-1.9-2.4 1.1.9 2.4 1.7 2.7 1.7 1.1 0 .8-3.7-.7-9.9-.8-3.1-1.7-7.9-1.9-10.6-.4-3.6.1-2.4 1.8 4.5 1.4 5.2 2.6 11 2.7 12.8s.7 3.1 1.2 2.9 4.1-3.8 8-8.1c6.3-7 6.9-7.9 5.7-9.8-1-1.6-1-1.9.1-1.2 3.6 2.2 14.1-1 14.6-4.5.2-1.2.7-2.1 1.2-2.1s1.9-2.2 3.1-5c1.2-2.7 2.5-4.8 2.7-4.5.3.3-.3 2.2-1.3 4.4m-171.1 51.3c-.9 2.1-2.1 3.8-2.6 3.8-.4 0-.8.6-.8 1.3 0 3.4-8.2 8.7-18.2 11.7-4.7 1.4-8.1 5.9-7.3 9.7.3 1.5.2 2.2-.1 1.5-.4-.8-1.3.1-2.5 2.4-1 2-1.6 4-1.4 4.4.8 1.2-1.5 2.6-9.3 5.6-4 1.5-8 3.5-9 4.4s-2.4 1.4-3.1 1.2c-1.4-.5-12.1 4.5-13.3 6.2-.4.6-.4 1.4-.2 1.8.3.4 0 .8-.5.8-.6 0-1.1-1.4-1.1-3.1 0-1.8.4-2.8 1-2.4s3.6-.7 6.7-2.4 6.2-3.1 6.9-3.1c.9 0 .9-.8 0-3.3-.6-1.7-1.5-3.8-1.9-4.4-.6-.9-.3-1.1.7-.7.8.3 2 2.1 2.6 4 1.4 4 1.9 4 11-.6l5.5-2.8-5.9-2.7c-3.2-1.4-8.1-3.1-10.8-3.7-4.8-1.1-4.8-1.2-3-3.2 3.8-4.3 5.4-7.8 4.8-10.2-.6-2.2-.5-2.4 1.3-1.5 1.1.6 2.1.7 2.3.2.2-.6 2.2-.6 5.1 0 4 .7 5.3.5 7.5-.9 1.4-.9 2.3-1.2 1.9-.6-.9 1.6 5.2 2.7 9.8 1.8 3.3-.6 7.1-3.4 4.6-3.4-.6 0-1.1-.7-1.1-1.5 0-1-1.1-1.5-3.5-1.5-4.1 0-4.3-.9-1.1-4.7 1.4-1.6 2.7-4.9 3.1-7.5.7-4.3.9-4.6 2.6-3.5 1.6 1 2.1.9 2.9-.3.5-.8 1-1.1 1-.6s.7.3 1.5-.4c1.5-1.2 3.5-.6 3.5 1.2 0 2.2 3.6 5.3 6.3 5.3 3.2 0 4.6-1.7 4.8-6 .2-2.9.2-2.9.6.4.3 2-.3 5.1-1.3 7.3m-640.9 68.5c-.6 13.7-.7 35.4-.2 36 .3.3 1.5-1.3 2.7-3.6 1.1-2.3 2.3-4.1 2.6-4.1.2 0 .1.8-.4 1.7-3 5.9-4.3 9.3-3.8 10.2.4.6 2.3 1.3 4.2 1.7 1.9.3 3.3.9 3 1.1-.3.3-2.6 0-5.1-.6-3.2-.8-5.6-2.3-7.8-4.9-1.8-2-4.5-5-6.1-6.7l-2.9-3 2.6-7.5c1.4-4.1 2.9-9.2 3.3-11.3.3-2 1-3.7 1.4-3.7s1-1 1.3-2.2c.4-1.2.9-1.9 1.2-1.6.4.3.1 1.7-.6 3-.7 1.2-1.4 3.4-1.5 4.8-.3 3.3-3.3 14-4.5 16.3-1 1.8-.7 2.3 5.7 10.4l2.2 2.7.6-14.9c1.2-24.8 1.1-30.6-.5-31.6-1.1-.7-.9-.9.8-.9 2.2 0 2.3.2 1.8 8.7m393 121.8c-2.7 1.4-9.9 4.3-16 6.6-6 2.3-15.9 6.1-22 8.4l-11 4.3-.6 5.4c-.6 5.1-.6 5.2-.7 1-.1-2.3-.7-4.2-1.2-4.2-.6 0-3.6 1.7-6.8 3.7-21.1 13.5-26.1 16.9-26.2 17.5 0 .4 3.6 3.3 8 6.4 4.4 3 8 5.7 8 6 0 .5-9.7-5.4-13.7-8.4-1.8-1.3-3.7-2.1-4.2-1.8-.6.4-1.9-1-3-3.1s-3.9-6.1-6.3-8.9c-8.6-10.3-13.6-17-15.6-21.1-1.2-2.2-3.5-5.6-5.1-7.4-1.7-1.8-2.8-3.5-2.5-3.8.5-.6 5.3 4.5 8.7 9.4 1.4 2 2.2 2.3 3.2 1.5 1.1-.9 1.2-.7.9.8-.5 1.6.4 2 5.9 3 3.5.7 8.6 1.2 11.2 1.2 4.1 0 4.6-.2 4.1-1.8-.5-1.2-.1-1.1 1.1.5 1.7 2 2.7 2.2 14.8 2.4 14.6.2 17-.2 18-3.4.6-2.2.8-2 2 2 .3.9 1.2 1 3.7.1 3.3-1.1 18.5-6.6 26.8-9.8 2.5-1 7.1-2.7 10.3-4 3.2-1.2 7.1-2.8 8.5-3.6 1.5-.8 3.2-1.4 3.7-1.3.6 0-1.2 1.1-4 2.4m594.5 90c0 .8 1.1 1.7 2.4 2.1 2.2.5 4.7 4.1 4.5 6.7 0 .7-.5.1-1-1.2s-1.2-2.1-1.5-1.8c-.5.5 0 2.9 2.2 9.6.6 1.9 3.6-3.7 6-11.2 1.3-4.1 2.3-5.7 3.6-5.7 1.6 0 1.4.9-1.6 9.2-1.8 5.1-3.6 10.9-4 13-.6 3.3-.9 3.6-3.3 2.9-1.7-.4-3-1.7-3.4-3.2-.4-1.3-2.3-6.8-4.2-12.2-3.4-9.1-3.5-9.7-1.7-9.7 1.1 0 2 .7 2 1.5m22.2 5.7c-.5 3.1-.4 3.1 1.2 1.5 2.1-2.1 4.3-2.1 7.6-.2 1.4.8 3.2 1.7 4 2.1s2.2 1.3 3.1 2.1c1.4 1.2 1.8 1 3.3-1.2.9-1.4 2.9-3 4.3-3.6 3-1.1 8.6-.2 7.7 1.2-.3.5.4.9 1.5.9 2.9 0 7.9 5 8.6 8.5l.5 3-1.1-3c-1.3-3.4-4-6.8-4.7-6-.3.3.2 1.3 1 2.2.9 1 2.1 3.5 2.7 5.5 1.3 3.9.2 7.2-2.9 8.3-.8.4-.5-.4.8-1.8 1.2-1.3 2.2-2.9 2.2-3.6s-1.2.1-2.6 1.8c-2.7 3.3-5.2 3.8-8.7 1.9-2-1-2.1-1-.8.5 2.3 2.9.4 1.9-5.1-2.6-4.5-3.6-5.8-4.2-8.3-3.6-1.6.4-2.6.7-2.1.8.4 0-.2 1-1.5 2-3.4 2.7-1.5 3.9 2.6 1.6 4.3-2.3 5.7-1.2 2.5 1.8l-2.4 2.2 1.8-2.3c2.2-2.5 1.1-2.9-1.9-.6-1.3.9-3 1.2-4.9.8-2.1-.5-2.7-.3-2.1.6 1 1.6-.5.8-5.3-2.8-2.2-1.7-3.1-3-2.7-4.1.3-.8.3-1.2-.1-.9-.9 1-2.9-1.3-3.7-4-.3-1.3-.3-2.1 0-1.8.6.6 4.3-6.2 4.3-8 0-.7-.6-1.5-1.2-1.7-.7-.3-.4-.6.8-.6 1.8-.1 2 .4 1.6 3.1"/><path d="M583.5 58.2c-.3.7-1.6 10.3-3 21.4-2.7 21.5-3.2 32.4-1.4 32.4.5 0 5.3-2 10.5-4.5 5.1-2.5 9.6-4.5 9.8-4.5s8.2-3.8 17.8-8.4c9.5-4.5 20.2-9.6 23.8-11.2 10.1-4.5 10.2-4.8.9-8.3-4.4-1.7-8.6-3.1-9.1-3.1-.6 0-5-1.3-9.7-2.9C608.4 64 586.1 57 585 57c-.6 0-1.3.6-1.5 1.2M657 81.4c0 .2 2.3 3.7 5 7.7 2.8 4 5 7.6 5 8 0 1.1 12.8 21.6 16.7 26.8 1.8 2.4 3.3 5 3.3 5.7 0 2.3 2.7 1.6 3.5-.9.4-1.2.8-2.7.9-3.2.1-.6.6-1.7 1.1-2.5 2-3.1 3.5-6.3 3.5-7.4 0-.7 1.8-4.7 4-8.9 4.5-8.5 4.9-10.7 2-10.7-1.1 0-5-1.2-8.7-2.6-19.8-7.5-36.3-13-36.3-12M643.5 84.5c-2.7 1.3-13.4 6.5-23.6 11.4-10.2 5-19.2 9.7-19.9 10.6-.7.8-2.4 1.5-3.9 1.6-1.4 0-2 .3-1.3.6.6.2 1.2 1.1 1.2 1.9s-.6 1.4-1.2 1.4c-.7 0-.5.6.6 1.2 2 1.1 34.6 2.1 34.6 1 0-.4 1.2-2.1 2.6-3.7 1.4-1.7 3.8-5 5.2-7.5s4.5-7.8 6.9-11.8c2.4-4.1 4.3-7.8 4.1-8.3-.2-.4-2.5.3-5.3 1.6M650.7 86.1c-1.5 2.2-2.7 4.4-2.7 4.7 0 .4-.9 1.8-2 3.2s-2 3.2-2 4.1-.7 2.2-1.6 3c-1.6 1.3-5 8.8-4.6 10.1.1.5-.2.8-.8.8s-1 .4-1 1c0 .5 1.1 1 2.5 1s2.5.4 2.5 1c0 .5.9 1 2 1s2.9.9 4.1 2.1c1.3 1.3 2.9 1.9 4.1 1.6 1.4-.4 1.8-.2 1.4.9-.4 1 .3 1.4 2.3 1.4 1.6 0 3.4.7 4.2 1.6.8 1 2.1 1.3 3.6.9 1.3-.3 2.3-.1 2.3.5 0 1.1 12.1.7 14-.5 1.5-.9.3-2.4-1.8-2-.9.1-1.1 0-.4-.2.6-.3 1.2-.7 1.2-.9 0-.9-3-6.3-6-10.7-1.6-2.5-4.3-6.9-5.8-9.9-3.8-7.2-9.5-16-11.4-17.5-1.2-1.1-1.9-.6-4.1 2.8M703.5 104.5c-1.4 3-3.6 7.9-4.9 10.7-2.2 5-4.3 13.2-3.7 15.2.1.5-.4 1.3-1 1.7-2.2 1.3 3.7 2.2 7.3 1.1 1.8-.6 8.5-2 14.8-3.2 14.2-2.6 26-5 28-5.8.8-.3 2.5-.7 3.8-.9 6.8-1.1 6.5-1.8-3-6.2-5.1-2.4-15.5-7.5-23-11.2-7.5-3.8-14.2-6.9-14.7-6.9-.6 0-2.2 2.5-3.6 5.5M557.5 118.2c-13.8.8-37.7 2.7-41 3.3-1.7.3-2 1.2-1.9 4.7.2 7.1 3.4 47.9 3.9 50.2.3 1.1.7 6.5.9 12 .3 5.4.8 10.1 1.1 10.5.6.5 2.8-1.7 6.3-6.4.4-.6 1.8-2.8 3.1-5 2.8-4.6 4.3-7.1 13.8-22 3.9-6.1 9.2-15.1 11.8-20 2.6-5 7.2-13 10.2-17.9s5.3-9.1 5.1-9.5c-.2-.3-6.1-.3-13.3.1M749.5 125.6c-3.8.8-7.9 1.8-9 2.3s-4.7 1.2-7.9 1.6c-3.3.3-6.4.9-7 1.3s-2.4.9-4.1 1c-4.2.4-12.1 2.1-17.8 3.9-4 1.2-4.7 1.8-4.2 3.4.4 1.1.2 1.9-.4 1.9s-1.1 1.2-1.1 2.6c0 1.9-.4 2.5-1.5 2-1.3-.4-1.3-.2-.5 1.4.5 1 1.4 2.1 1.9 2.4s1.2 1.8 1.6 3.3c.5 2.5 4.4 9.5 10.9 20.3 1.2 1.9 3.6 6.9 5.4 11 3.9 8.8 7.5 16 8.3 16.5.3.2 1.2-1.1 2.1-2.8 1.7-3.3 11.3-23.7 12.8-27.2 4.2-9.7 7.3-17 7.4-17.9.1-.6 1.7-4.3 3.5-8.1 1.8-3.9 3.7-7.9 4.2-9 3.1-7.4 3.9-9.9 3.2-10.5-.5-.4-3.9-.1-7.8.6M759.6 126.8c-.3.4-3.4 8-7 16.8-3.5 8.7-7.8 19-9.4 22.9-1.7 3.8-5.7 13.3-9 21-4.7 11-5.6 14.1-4.5 14.3 1.7.4 15.6-1 36.3-3.9 14.4-1.9 16.4-2.2 27.1-3.5 3.1-.3 6.2-1 7-1.4 1.4-.9-3.1-9.3-15-27.7-10.9-17-12-18.7-12.8-20.3-1.6-3.1-11.4-19-11.8-19-.2 0-.6.4-.9.8M510.8 130.5c-.3.5-1.3 5.3-2.2 10.5s-2.8 15.3-4.2 22.5c-1.4 7.1-3.2 16.4-3.9 20.5s-1.8 9.7-2.4 12.3-1.5 8.9-2.1 13.9c-.5 5-1.4 9.6-2 10.2-.5.5-1 1.9-.9 3.1 0 1.1.3 1.4.6.7.2-.6 1.1-1.2 1.9-1.2s1.7-.7 2-1.5c.4-.8 1-1.5 1.5-1.5s3-1.6 5.6-3.6c2.7-2 6.1-4.5 7.7-5.7 1.5-1.2 3.2-2.4 3.6-2.7.8-.5 4-6.5 4-7.5 0-.3-.4-.3-1 0-1.2.8-1 2.1-2-12-.7-11-4.7-54-5.3-57.5-.1-.8-.5-1.1-.9-.5M557.5 153c-.3.5-1.2.7-1.9.4s-1.6.2-2 1.1c-.4 1.1-.2 1.4.7.9 1.1-.7-1.9 3.4-3.4 4.6-.7.6-4.9 9.6-4.9 10.6 0 .3.7.4 1.5 0 1.2-.4 1.5.3 1.5 3 0 3.9 2.1 5.4 5.2 3.5 1-.6 2.4-.9 3-.5s.8.3.4-.4c-.6-.9.8-5.4 3.4-11.7.5-1.1.8-4.4.8-7.3-.2-4.2-.5-5.2-1.9-5.2-1 0-2 .4-2.4 1M690.5 153c-.4.7-1.1 6.9-1.6 13.9-.5 6.9-1.3 14.8-1.9 17.6-2.4 12.4-3 15.8-3 18.5 0 2.9 0 2.9 6.8 3.2s27.7-.9 29.9-1.7c1-.3 1-1 .1-3.2-.6-1.5-1.7-3.3-2.2-3.8-.6-.6-1.2-1.7-1.4-2.5-.5-2.7-12.4-26-14.6-28.4-1.1-1.3-2.2-2.9-2.4-3.7s-.7-1.6-1.1-1.9-1.5-2.2-2.4-4.2c-1.9-4-3.7-5.7-3.7-3.6 0 1-.2 1-.9-.1-.6-1-1-1-1.6-.1M538.4 179.1c-.5.8-.3 1 .7.5.8-.4.7-.2-.2.6-1.8 1.5-8.9 12.3-8.9 13.5 0 .4.5.1 1.1-.7.9-1.2 1-1.1.6.8-.3 1.2.1 2.8.8 3.5s1.6 2.8 2 4.5c.3 1.8 1.3 3.2 2.1 3.2s1.4.7 1.4 1.5.7 1.5 1.5 1.5 1.5.4 1.5 1c0 .5-.7 1-1.6 1-1.3 0-1.4.3-.5 1.3 1.2 1.6.5 2.8-1.3 2.1-.6-.2-1.2.5-1.3 1.6s.2 1.8.8 1.5c.5-.4.9.1.9.9 0 .9.5 1.6 1.1 1.6.5 0 .7.4.4 1-.3.5-.1 1 .4 1 .6 0 2 .9 3 1.9 1.8 1.8 2 1.8 2.1.3.2-5.2.8-8.1 2.2-11.2 1.7-3.7 2.3-5.8 4.1-15.5.6-3.3 1.4-6.2 1.8-6.5.7-.5 1.3-4.4.9-7-.1-1.1-.4-.9-1 .5-.7 1.7-.9 1.7-.9.2-.1-1.3-1-1.7-3.8-1.8-4.4-.1-7.5-1.1-7.3-2.4.2-1.5-1.7-1.8-2.6-.4M710 207.6c-9.6 1.2-17.2 1.7-21 1.3-4.2-.5-6.1.1-5.6 1.8 1.1 3.4 1.4 9 .6 10.2-.4.8-1-.3-1.4-2.8-.3-2.3-1-4.1-1.4-4.1-1 0-8.4 11.9-9.9 16-1.7 4.7-3.6 8.4-4.7 9.1-1.7 1.3-.8 5.6 2.8 13.3 2 4.3 4.8 11.3 6.3 15.5 1.4 4.2 3.4 9.5 4.4 11.8 1.1 2.4 2.4 5.5 3 7 .7 2 1.3 2.3 2.1 1.5.9-.9.7-7.5-.6-26.4-1-13.9-1.9-28.5-2.1-32.3-.3-6.2-.2-6.5.6-3 1.5 6.5 2.8 19.9 3.4 37 .8 22.7 1.3 26.9 3 25.5.8-.6 1.9-2.8 2.6-4.8.6-2 2.3-6 3.6-8.7 4.5-9.2 18.7-44.5 21-51.8.8-2.6 2.5-6.9 3.9-9.4 2.6-5 3.1-8.4 1.2-8.2-.7.1-6 .8-11.8 1.5M516.8 209.8c-1.3.9-3.4 2.7-4.8 4s-5 4.1-8 6.3c-8 5.6-11.5 8.7-10.8 9.5.7.6 47.9-1.4 48.6-2.1 1-.9-3.2-4.9-12.3-11.6-10.1-7.5-10.4-7.6-12.7-6.1M575 229.6c-1.9.2-9.1.5-16 .6l-12.5.3.2 6.5c.5 14.1 4 46.1 5.3 47.3 1 .9 1.1.9.6-.1-.5-.8 0-2 1.3-3.1 1.1-1 1.8-2.1 1.4-2.5-.3-.3.1-.6 1-.6s2-.6 2.4-1.4c.4-.7 6.3-7.1 13-14.2s13.2-14.3 14.4-15.9c1.3-1.7 4.2-5 6.6-7.4 6.7-6.7 7-7.8 2.5-8.5-5.2-.9-16-1.4-20.2-1M454 240.5c-.5 1.3-2.1 4.2-3.6 6.5-2.6 4-4.4 9.8-4.7 15.4-.2 2.6.6 3.6 5.2 6.8 3 2.1 5.8 3.8 6.3 3.8.4 0 .8-2.8.8-6.2 0-7.7.6-7.2 1.4 1.2.7 7.1.3 6.5 10.1 13 9.2 6.1 9.4 5.7 3.1-7.4-2.4-5-5.8-12.7-7.5-17.1-4.3-10.7-8.1-18.5-9.2-18.5-.5 0-1.4 1.1-1.9 2.5M650.5 247.5c-10.1 3.6-20.2 7.9-21.2 8.9-.3.3-1.2.6-1.9.6s-2.5.5-4.1 1.1l-2.8 1 5.5 2.8c6.9 3.4 27.2 14.9 36.5 20.6 11 6.7 20.5 11.5 20.5 10.5 0-.5-.4-1.9-1-3.2-.5-1.3-2.1-5.5-3.5-9.3-1.5-3.9-3-7.9-3.5-9s-1.8-4.3-2.9-7.1c-2.5-6.6-8.9-18.7-10.4-19.6-1.4-.9-.4-1.2-11.2 2.7M569 282.1c-5.2 2.2-10.7 4.5-12.2 5.1-1.6.5-2.8 1.4-2.8 1.9s4.5 3.1 10 5.9c9.4 4.7 10 4.9 11 3.1.5-1.1 1-2.7 1-3.6s.9-3.5 1.9-5.8c2.2-4.9 3-9.9 1.6-10.3-.5-.2-5.3 1.5-10.5 3.7M694.5 352.2c-.4 1.4-3.1 20.4-4.5 32.5-.5 4-1.4 9-2.1 11.3-.7 2.2-1 4.3-.7 4.6s7.1-3.9 14.9-9.3c7.9-5.4 15.8-10.7 17.4-11.8 6.2-3.9 6.5-3.4-8.7-16.4-7.8-6.7-14.5-12.1-15-12.1s-1 .6-1.3 1.2M686.5 359.1c-2.8 3.3-5.8 6.9-6.7 7.9-1 1.1-1.8 2.4-1.8 3 0 .5-.4 1-1 1-.5 0-1 .7-1 1.6 0 .8-.3 1.3-.7 1.1-.5-.3-2.8 1.5-5.3 3.9-2.6 2.5-3.8 4.4-3 4.4 1.1 0 1.5 1.2 1.5 4.3 0 4.3 1.8 7.7 4.2 7.7.7 0 1.3.4 1.3 1 0 .5.7 1 1.5 1s1.5.4 1.5.9 1.3 1.9 3 3.1l3 2.1.9-2.3c.9-2.4 2.2-12.4 2.1-17.1 0-1.5.3-2.7.8-2.7s1.4-3.5 2.1-7.8c1.5-8.8 2.9-18.6 2.7-18.9-.1-.1-2.4 2.5-5.1 5.8M530.6 381.6c-1.3 4.1-2 5.3-2.7 4.3-.6-1-.9-.8-1 1.1-.4 8.4-2.2 15-4 15-.5 0-.9.8-.9 1.8s-.5 2.3-1.1 2.9c-.5.5-1.6 3.1-2.4 5.6-1.3 4.4-1.3 4.8 1 8.2 1.4 1.9 2 3.5 1.5 3.5-.6 0-1 1.6-1 3.5 0 2.8.3 3.3 1.7 2.8.9-.4 1.2-.8.6-1s-.9-1.2-.6-2.2c.4-1.5 1.2-1.8 3.3-1.4 2.5.3 7.3-1.6 9-3.8.3-.3 1.5-1.1 2.8-1.8 3.9-2.1 4.4-5.4 2.2-13.9-1.2-4.2-2.3-9.1-2.6-10.7-.3-1.7-1-5.5-1.6-8.5-.7-3-1.1-6.1-.9-6.8.1-.6-.2-1.9-.7-2.7-.6-1.2-1.3-.1-2.6 4.1M487.3 390.5c-1.2.8-3.2 3.2-4.4 5.2-1.3 2.1-2.9 4.4-3.6 5.1-2.1 2.2-6.3 7.8-6.3 8.5 0 .6 8.5 2.1 12.3 2.1 1.4 0 2.5-1.8 4.4-7.4 3.9-11.4 4.3-13.8 2.6-14.4-2.1-.9-2.6-.8-5 .9M472 391c0 .7-2.3.9-6 .5-3.6-.3-6-.1-6 .5s-.7 1-1.6 1c-1.2 0-.8 1 1.7 4 1.9 2.2 4.7 5.5 6.2 7.5 3.2 3.9 4.3 4.3 5.1 1.7.8-2.4 1.7-16.2 1.1-16.2-.3 0-.5.5-.5 1M447.8 399.6c-2 4.4-4 9.1-4.3 10.6-.6 2.5-.5 2.7 2.2 2.3 1.5-.2 6.4-.6 10.8-1 12.9-1.2 12.8-.9 3.3-10.9l-8.3-8.8zM663 396.7c0 .9.7 2.5 1.7 3.5.9 1 1.1 1.8.5 1.8s-1.3-.6-1.5-1.3c-.3-.7-.6-.4-.6.6-.1 1.1-.6 1.5-1.3 1.1-.7-.5-.9-.1-.6 1.3.4 1.6.1 1.9-1.2 1.6-1.2-.3-2 .2-2.5 1.6-.3 1.2-1.1 1.9-1.6 1.6-.5-.4-.9-.1-.9.4 0 1.6 2.6 1.4 10.3-.8 3.7-1.1 7-2 7.2-2 1.9.1 6.5-1.4 6.5-2.1 0-1-3.1-2.4-4.9-2.1-.7.1-1-.2-.6-.8.3-.6-.1-1.1-1.1-1.1s-1.5-.3-1.1-.6c.3-.4-.4-1.4-1.6-2.4-2-1.6-2.2-1.6-3.3-.1-.7.9-1.6 1.2-2 .8-.5-.4-.2-1.2.6-1.7 1.3-.8 1.2-1-.2-1-1 0-1.8.7-1.8 1.7M546 426.7c0 .9.6 3.5 1.4 5.8.8 2.2 1.7 5.2 2 6.6s1.4 3.5 2.4 4.7 2.7 6.1 3.7 10.9 2.4 9.7 3.1 10.8 2.9 6.7 4.8 12.3c2 5.7 3.9 10.8 4.2 11.4.8 1.2 18.4-16.1 18.4-18.1 0-1-.3-1.1-1.3-.3-.9.7-1.7.8-2.7.1-1.1-.8-1.2-1.2-.2-1.6 1.7-.7 1.5-2.9-.6-5-1-1-3.6-4.1-5.7-6.8-2.2-2.8-7.2-8.4-11.2-12.5-3.9-4.1-8.6-9.3-10.3-11.5s-4.2-5-5.6-6.3c-2.1-2-2.4-2.1-2.4-.5M581 479.7c-3 3.2-7.1 7.5-8.9 9.5l-3.4 3.7 2.5 5.3c1.4 2.9 3.1 6.6 3.7 8.2.7 1.6 1.5 2.6 1.8 2.2.9-.8 5-13.5 6.9-21.1.8-3.3 1.9-7 2.5-8.1.6-1.2.9-2.9.7-3.8-.2-1.3-1.7-.2-5.8 4.1M588.5 477.8c-1.1 1.5-3 6.7-4.1 11.7-3.7 15.3-4.8 19-6.4 20.2-3 2.3 1.6 2.5 6.7.3 21.5-9.7 27.3-12.5 27.3-13.5S591.8 475 590.9 475c-.2 0-1.3 1.3-2.4 2.8M567.1 501.3c-1.4 3.7-1.4 4 .4 3.3.8-.3 1.5-.1 1.5.4 0 .6-.4 1-1 1-1.5 0-5 3.8-5 5.4 0 .7-.7 1.9-1.5 2.6s-1.5 1.8-1.5 2.4c0 .7-.9 2.9-2 5-3.6 7.1-1.2 6.9 9.2-.9 4.4-3.2 6.7-5.7 6.7-7 0-1.1-1.3-4.9-2.9-8.5-2.9-6.4-2.9-6.5-3.9-3.7M307.6 152.5c-9.8 9.6-17.3 17.5-16.6 17.5s5.1-1.2 9.9-2.6c49.1-14.8 55.1-16.7 55.1-17.3 0-.9-27.5-15.1-29.2-15.1-.8 0-9.4 7.9-19.2 17.5M357.3 163.4c-1.3.6-2.3 1.3-2.3 1.7 0 .3-.9 1.6-2 2.9-2.7 3.1-3.6 7-2 8 .7.4 1.2 2.6 1.2 5-.1 3.4-.7 5-3.4 7.7-3.2 3.4-3.5 3.5-9 3-3.3-.3-6.1-.1-6.4.5-.3.5-1.2.7-1.9.4-1.3-.4-4.5 2.5-5.9 5.4-.4.8.1.4 1.2-.9l1.9-2.4.5 2.5c.2 1.4.1 3.5-.3 4.6-.7 1.8-.5 2.2 1.1 2.2 1.1 0 3.6 1 5.6 2.2 2.6 1.7 3.4 2.9 3.1 4.5-.3 1.4.3 2.5 1.7 3.1 2 1 2 1.1-.4 1.2l-2.5.2 2.7.8c2.6.8 16.3-2 17.7-3.7.3-.3-.2-.3-1.1 0-1.1.4-1.8 0-2-1.1-.5-2.3 2-7.2 3.7-7.2.7 0 2.1-.3 3-.7 1.4-.5 1.6-.2 1.1 1.5-.6 1.7-.1 2.1 2.4 2.7 1.6.4 3 1.1 3 1.6 0 1.1 6.8.4 11-1 1.4-.5 3.4-1.2 4.5-1.6 1.9-.6 1.9-.7.1-1.7-1.3-.7-2-.7-2.6.2-.4.7-1 0-1.3-1.9-.4-1.8-1.5-3.4-2.4-3.8-1.6-.6-5.9-3.7-10.6-7.8-2.2-2-1.2-3.9 1.7-3 4.4 1.3 6.1 1.4 7.5.6 1.4-.9.8-4.2-1.2-6.3-.7-.7-2.4-3.8-3.9-6.8-3.3-6.6-5-9.3-6.3-10.2-.6-.5-.6-.8-.1-.8.6 0 .1-.7-1-1.5-2.2-1.7-3-1.7-6.1-.1M320.5 164.2c-1.1.7-3.6 1.3-5.5 1.5-1.9.1-3.6.7-3.8 1.3-.2.5-.8.8-1.3.4-.9-.5-16.6 4-20.1 5.7-1.4.7-1.5 1.4-.5 4.4.6 1.9 1.4 3.5 1.9 3.5 1.1 0 1-1.8-.2-2.5-.5-.3-1-1.6-1-2.8 0-1.6.6-1.1 2.2 2 1.2 2.4 2.8 4.3 3.5 4.3s1.3.4 1.3 1c0 .5.7 1 1.5 1s1.5.4 1.5 1c0 .5.9 1 2 1s2 .7 2 1.5c0 .9.9 1.5 2.3 1.5 1.6 0 1.8.3.9.9-1.1.6-1 1 .3 1.5 1 .3 2.4.1 3.1-.5.8-.6 2.1-.8 3-.5 2.4.9 4.4-1.9 4.4-6.2 0-3.7.3-4.2 3.9-5.9 6.8-3.2 8.1-13.3 1.8-13.3-1.8 0-1.9-.2-.7-1 2.1-1.4-.1-1.2-2.5.2M266.4 185.8c-21.5 12.3-30.3 17.6-30.4 18.2 0 .6 12.2 13.2 12.4 12.8.1-.2 3.8-4.4 8.2-9.3 4.3-5 10.8-12.6 14.3-17 6.8-8.4 9.6-11.5 10.6-11.5.3 0-6.8 8.8-15.9 19.6l-16.4 19.7 5.1 5c5.7 5.4 9.5 8.2 10.2 7.5.5-.5 2.2-5 14.1-37.3 4.2-11.4 5.3-16.6 3.7-16.4-.5 0-7.6 3.9-15.9 8.7M283.4 185.7c-1.2 3.2-4.1 10.7-6.4 16.8-2.3 6-4.5 12.1-5 13.5-.4 1.4-1.9 5.5-3.3 9.2l-2.6 6.7 3.2-.5c1.8-.3 5.2-.9 7.7-1.4s6.8-1.2 9.5-1.5c2.8-.3 6.7-1.1 8.7-1.6 4.4-1.1 4.5.3-1.4-22.2-1.3-4.9-2.7-8.5-3.1-8.1s-.7-.7-.7-2.5c0-2.8-.3-3.1-2-2.6-1.9.6-1.9.4-.8-2 .9-1.9.9-2.8 0-3.7-.7-.7-1.2-1.9-1.2-2.8 0-1.3.2-1.3 1.1 0 .9 1.2 1 1.2.5-.3-.3-1-.6-2.1-.6-2.3s-.3-.4-.8-.4c-.4 0-1.7 2.6-2.8 5.7M298.9 205.2c0 1.3-.2 3.2-.4 4.3-.6 2.6 1.3 8.5 2.7 8.5.6 0 .7.7.4 1.6-.3.8-.2 1.2.4.9s1 .4 1 1.7c.1 2.2.1 2.2 1.2.3.6-1.1 1.4-2.2 1.8-2.5 2-1.6 3.8-5.5 3-6.5-.6-.7-.4-2 .4-3.7 1.2-2.2 1.1-2.8-.5-4.9s-1.8-2.2-2.4-.6c-.9 2.1-3.8 2.2-5.9.1-1.5-1.4-1.6-1.3-1.7.8M235 223.2v16.3l4.8-8c8.6-14.7 8.4-12.8 2.2-19-3-3-5.8-5.4-6.2-5.5-.5 0-.8 7.3-.8 16.2M316 211.4c0 .8-.4 1.6-.9 1.8-.5.1-3 2.9-5.6 6.1l-4.7 5.8 3.8-.6c2.2-.4 7.3-1.5 11.4-2.5s8.9-2.2 10.5-2.6c2.1-.5 2.5-.8 1.3-1.1-1-.3-1.8-1.1-1.8-1.9s-.4-1.4-1-1.4c-.5 0-1-.7-1-1.5s-.4-1.5-1-1.5c-.5 0-1 .4-1 1 0 .5-.9 1-2 1s-1.9-.5-1.7-1.1c.1-.6-.4-1.4-1.2-1.7-.8-.2-1.1 0-.7.6.3.6-.1.9-1.1.7-1-.1-1.7-.8-1.5-1.4.1-.6-.2-1.1-.8-1.1-.5 0-1 .6-1 1.4M245.7 223.2c-2.8 5.6-8.2 15.2-10.1 18-2.2 3.3-2.1 3.4 4.5.8 2.8-1.2 5.3-1.9 5.6-1.7.2.2-1.8 1.2-4.4 2.2-2.7 1-5.2 2.1-5.7 2.6-1 .9 2.2 5.8 8.3 12.8l3.8 4.3 3-5.3c1.7-3 4.7-8.5 6.8-12.2 2-3.7 4-6.6 4.2-6.3.5.4-2.5 6.3-11 21.8l-2 3.7 3.1 9.8c1.7 5.4 4.2 13.3 5.5 17.7 3.2 10.3 3.5 9 4.7-20.4.5-12.9 1.2-25.3 1.5-27.6.3-2.2.2-5-.2-6.2l-.8-2.1-6.9 2.4c-3.9 1.4-7.2 2.3-7.4 2.1s2.7-1.4 6.4-2.7c3.6-1.3 6.8-2.9 7.1-3.6.5-1.3-11.4-13.2-13.3-13.3-.6 0-1.8 1.5-2.7 3.2M295.7 228.6c-.2.2-6.1 1.3-13.3 2.4-7.1 1.1-13.9 2.2-15 2.5-2 .5-2.2 1.3-2.8 15.2-.4 8.2-.9 18.2-1.2 22.3-.7 10.2-1.3 31-.9 31 .3 0 3.2-5.3 16-29.5 2-3.9 6-11.3 8.8-16.5s5.9-11.1 6.9-13c.9-1.9 1.7-2.8 1.7-2 .1.8-1.1 3.5-2.5 6s-4.3 8.3-6.4 13-5.1 10.6-6.7 13c-1.7 2.5-6.4 10.9-10.4 18.7-6.5 12.5-7.2 14.4-5.9 15.7 1.4 1.3 37.8 22.6 38.7 22.6.2 0 .1-4.8-.2-10.8-.4-5.9-.8-27.6-.9-48.2-.2-38.1-.7-42.7-4-42.7-.9 0-1.7.2-1.9.3"/><path d="M232.1 249.8c-1 2-5.8 15-7.2 20-.6 1.8-1.4 3-2 2.7-.5-.4-.9.4-.9 1.5 0 2.1.2 2.1 5.5-.9 3-1.7 6-3.1 6.7-3.1 1.6.1-9.3 6.9-10.9 7-2.2 0-1.4 1.7 2.1 4.6 4.3 3.7 31.2 22.4 32.1 22.4.8 0 0-5.4-2-12.5-4.5-16.1-8.1-27.2-9.3-28.4-.7-.8-3.8-4.5-6.9-8.2-3-3.8-5.7-6.9-5.9-6.9s-.8.8-1.3 1.8"/><path d="M221.7 281.7c-.3.2-.1 1.6.5 3.1.5 1.5 2.2 7.4 3.8 13.1s3.1 10.6 3.4 10.9c.3.2 6.2-.1 13.1-.8 7-.6 12.8-1 13.1-.7.2.2-5.2 1-12 1.7-6.9.8-13 1.6-13.6 2-1.4.8 15.3 30 17.1 30 .4 0 1.4-1.7 2.2-3.8.9-2 1.5-2.8 1.2-1.7-.2 1.1-.6 3.4-1 5.1-.5 2.9-.4 3.1 3.5 4.3 2.2.7 6.3 1.5 9.1 1.8l5 .6-1.2-2.6c-.6-1.4-1.6-2.5-2.2-2.4-.5.1-1.2-.4-1.4-1.1-.3-.7.4-1.2 1.6-1.2s2.1-.6 2.1-1.3c.1-2.9 3 3 3 6.1v3.3l15.2-7.8c8.3-4.4 15.3-8.4 15.5-8.9.1-.5-3.7-3.2-8.5-6-19.7-11.5-28.5-16.4-29-15.9-.3.3.7 6.2 2.2 13.1 1.4 7 2.4 12.9 2.2 13.2-.3.2-.7-.6-1-1.9-3.9-18.2-5.1-22.9-6.8-25.4-1.1-1.7-6.1-5.7-11-9-4.9-3.2-12.7-8.6-17.3-12.1-4.6-3.4-8.6-6-8.8-5.7M211.5 308.6c-2.8 3-3.1 4.4-1.3 6.2.9.9.9 1.2 0 1.2-1.7 0-1.5 9 .4 12 1.1 1.9 1.4 2 1 .5-.3-1.1-.8-3.4-1.1-5l-.7-3 2.1 3.5c1.1 1.9 2.5 4.7 3.1 6.1.9 2.2 1.6 2.6 4.2 2.3 1.7-.2 3.3-.6 3.6-.8.2-.3-.3-2.4-1.1-4.8-2.8-8.1-2.7-8.3.7-1.5l3.5 6.9.4-3.9.4-3.8.1 4.1c.2 4 .3 4.2 5.8 6.3 3.1 1.1 6.2 2.1 7 2.1 1.8 0 .7-2.7-4.7-12.2-2.3-4-5-8.8-6-10.7-1.4-2.5-3.1-3.8-6.6-5.1-2.6-.9-5.6-2-6.5-2.4-1.2-.6-2.5 0-4.3 2M292.5 337.9c-23.4 12.5-22 11.4-18 14.8 1.7 1.4 4.4 3.8 6.1 5.3 1.8 1.6 5.4 4.5 8.2 6.5 6.6 4.7 5.8 6 11.5-20.8 1.3-5.9 2.1-10.7 1.8-10.7s-4.6 2.2-9.6 4.9M251 348.5c1.1 1.3 1.1 2.6 0 7-.7 3-1.6 5.5-2 5.5-.9 0-5.5 16.9-4.8 17.6.6.5 17.5-21.2 19.3-24.7.5-1 1.3-1.9 1.7-1.9.5 0 .8-.6.8-1.4 0-1.3-8.6-3.6-13.8-3.6-2.1 0-2.3.2-1.2 1.5M269.2 353.2c0 .7-1.4 6.2-3.1 12.3-6.4 22.8-7.3 26.3-7 27.4.5 1.5 33.9-20 33.9-21.8 0-.3-1.5-1.6-3.3-2.8-1.7-1.3-4.8-3.7-6.7-5.5-4.1-3.8-12.6-10.8-13.3-10.8-.2 0-.4.6-.5 1.2M264 357c-.6 1.1-3 4.2-5.3 6.9-6.8 7.9-13.7 16.8-13.7 17.7 0 1.3 9.3 12.5 10.4 12.5s4.6-10.5 4.6-13.9c0-1.2-.5-2.2-1.1-2.2-.5 0-.7-.5-.4-1 .4-.6 1-.8 1.5-.5.4.3 1.8-2.8 3-6.8 3.5-11.2 4-18.3 1-12.7M211.6 371.8c-.4.7-.4 1.7 0 2.4.4.6.3.8-.4.4-.6-.4-2.9 3.1-5.7 8.6-2.6 5.1-6.7 12.9-9.1 17.4-5 9.1-5.2 9.8-2.5 9.1 3-.8 5.3 1.1 4.1 3.4-1.3 2.3-3.3 2.5-5.3.4-1.4-1.3-2.2-.4-7.2 8.1-3 5.3-5.4 9.9-5.1 10.1.2.3 7.8-4.4 16.8-10.4 8.9-5.9 16.8-11 17.3-11.2 2.7-1-11.8 9.5-22.6 16.5-9.6 6.1-11.8 7.9-10.3 8.4 1.7.7 13.6 1.7 28.6 2.5 4.7.2 4.7.2 5.2-3.4.6-3.9 1-36 .8-53-.2-8.7-.4-10.2-1.6-9.2-1.1.9-1.5.9-1.8-.1-.3-.9-.6-.9-1.2 0M224.6 380.2c-.3 1.3-.7 4.3-1.1 6.8-.3 2.5-1.5 7.8-2.7 11.8-2.2 7.6-2 9 .9 7.7 1-.5 2.3-.8 2.8-.7.6 0 2.8-2.7 5-6.1s5.5-8.1 7.3-10.4c1.9-2.3 3.2-4.7 3-5.2s-2.4-.2-5.3.7c-4.4 1.5-5.1 2.1-6.2 5.7-.6 2.2-1.2 5.6-1.3 7.5-.1 3.4-.2 3.4-1.1 1-.6-1.5-.8-6.2-.3-11.8.3-5 .4-9.2 0-9.2-.3 0-.8 1-1 2.2M240.9 388.7c-2.7 6.3-4.5 13.1-3.6 13.9.3.4 1.4.3 2.4-.2 1-.4 4.5-1.7 7.7-2.8 3.3-1.2 6.1-2.6 6.3-3.2.4-1.2-8.6-12.4-10-12.4-.4 0-1.7 2.1-2.8 4.7M183.3 440.4c2.1 1.8 5.5 4.6 7.6 6l3.8 2.7 9.4-4.8 9.4-4.7-6.5-.7c-3.6-.4-11.2-1-17-1.3l-10.5-.7zM503 601.2c0 1.5 15 21 16.5 21.5.6.2 1.6-2.9 2.4-6.9 2.3-13.1 2.9-12-7.4-14-11.1-2.1-11.5-2.1-11.5-.6M525.2 608.2c-1.7 5.9-2.6 15.8-1.5 15.8 1.9 0 22.8-14.7 22.8-16.1 0-.8.5-1.4 1.2-1.4.6 0 1.4-.3 1.7-.6.4-.3-3.5-.9-8.5-1.2-15-1.1-14.3-1.3-15.7 3.5"/></svg>