<svg xmlns="http://www.w3.org/2000/svg" width="1706.667" height="960" viewBox="0 0 1280 720"><path d="M0 360v360h761.7l1.2-2.3 1.2-2.2-.5 2.3-.4 2.2h19.4c12.3 0 19.4-.4 19.4-1s1.4-1 3-1c3.4 0 3.5-.1 1.6-4.3-.7-1.8-2.6-7-4.1-11.7-1.6-4.7-3.2-9.1-3.8-9.8-.6-.8-.6-2.7.2-5.5.6-2.3 1.6-7.3 2.2-11.2 1.3-9.1 2.2-9.8 1.2-1-.4 3.9-.8 9.4-.8 12.4v5.4l12.3 7.3c6.7 4.1 12.5 7.4 12.7 7.4.3 0 .5-.7.5-1.5s-.4-1.5-.9-1.5c-1.1 0-4.1-7.3-4-9.8 0-.9.9.7 2 3.6s2.4 5 2.9 4.7c.4-.3 1.1.7 1.5 2.3.4 1.5 1.2 3.3 1.8 4 .6.8 1.2 2.1 1.3 3 .1 1 .5 2.9.9 4.4.4 1.8.3 2.8-.4 2.8-.5 0-1.5-1.9-2.1-4.1-1.1-4-1.2-4.1-2.6-2-.9 1.2-1.8 1.9-2.2 1.7s-.8.9-.9 2.5l-.2 2.9h19.3l-4.6-2.9c-4.4-2.8-6.7-5.1-5.2-5.1.4 0 2.2 1.1 4 2.5s3.7 2.5 4.2 2.5 1.5.7 2.2 1.5c1.1 1.3 26.6 1.5 218.6 1.5H1280V0H0zM572 55.9c0 .5 2.6 1.9 5.8 3 3.1 1.2 6.6 2.6 7.7 3.1 4.1 1.9-3.9-.2-9.8-2.7-3.3-1.3-6.6-2.3-7.4-2.1-1.2.2-2.5 5-5.3 18.8-5.2 26-7 36.3-6.6 36.8.4.3 4.4-1.4 15.3-6.4 2.8-1.3 5.4-2.4 5.6-2.4s8.7-4 18.8-8.8c10.1-4.9 21.9-10.6 26.3-12.6 4.3-2.1 7.4-4.1 7-4.6-1.5-1.4-10.4-4.6-25.9-9.5-14.1-4.3-19.7-6.5-13-5 4.2 1 28.7 8.8 36.3 11.6 6.6 2.5 6.3 2.5 15.5-1.5 4.8-2.1 4.8-1.2 0 1.1-7.1 3.5-8.4 2.8 27.3 14.6 7.8 2.6 14.4 4.7 14.7 4.7.4 0 1.1-1.5 1.6-3.3l.9-3.2.1 3.7c.1 2.1.4 3.8.9 3.8.4 0 3.6-.5 7.2-1 8.8-1.3 46.2-6 47.4-6 1.7 0-15.6-10.9-35.9-22.6-7.1-4.1-13.4-8-14-8.6-.5-.6.6-.2 2.5.9s6.1 3.5 9.4 5.3c3.2 1.7 8.1 4.5 10.8 6.1s5 2.9 5.2 2.9c.5 0 23.8 14.5 37.3 23.1 6.2 4 11.1 7.5 10.8 7.7-.3.3-4.2-1.9-8.8-5-9.6-6.5-12.7-8.2-13.4-7.4-.4.3-1.1.2-1.8-.4-1.1-.9-3.8-.6-37 3.4-20.3 2.5-20.1 1.8-3 10.1 24.3 11.9 32.7 15.6 34.4 15.3 1.1-.2 2-2.3 2.8-6.8 3.3-18.4 3.2-18.2 2.6-8.5-.3 4.9-1.1 10.7-1.8 12.7-1.4 4.3-1.2 4.8 2.4 4.9 1.4 0 3.5.5 4.6 1 1.5.7 1 .8-2.2.6-2.4-.1-4.3.1-4.3.5 0 .7 5.9 10.3 8.3 13.3 1.2 1.7 8.7 13.3 18.1 28 11.4 18 15.7 24.4 16.7 25 .6.5 21.9-41.5 21.9-43.2 0-.3 1-2.2 2.3-4.2 1.2-2 2.7-5.6 3.3-8.1l1-4.5 2.3 3.7c1.3 2.1 2.7 3.8 3.2 3.8s.9.4.9 1c0 .5-.6.7-1.4.4-2-.8-2.5 1.5-1.5 7.9 2 12.5 2.5 17.7 1.9 17.7-.9 0-3.5-16.3-3.5-22.2 0-4-.2-4.5-1.7-3.7-.9.5-2.6 2.8-3.6 5.1-1.1 2.4-6.8 14.2-12.7 26.3-8.8 18-10.5 22.3-9.6 23.7.8 1.4.8 1.7-.1 1.6-.6-.2-1.5.8-1.9 2.2l-.7 2.5-.1-2.7c-.1-1.5-.5-2.9-.9-3.2-.4-.2-3.9.2-7.7.9-3.9.8-16 2.6-27 4-11 1.5-23.4 3.2-27.5 4-4.1.7-10 1.6-13.1 2l-5.7.6-.1 18.8c-.1 10.3.1 19.5.5 20.5s1.8 2.2 3.2 2.7c2.7 1 2.1 2.4-1.3 3.1-1.1.2-1.9.8-1.8 1.4.1.5.5 17.3.8 37.4.4 20.1 1.2 37.3 1.7 38.3.6 1.1.6 2.3 0 3-.5.7-1.2 10.8-1.6 22.5-.6 17.3-.4 21.2.6 20.6 1.2-.8 19.5-14.5 22.8-17.1.8-.7 5-3.7 9.2-6.8 5.1-3.7 9.2-7.7 12.4-12.3 2.7-3.7 5.9-7.8 7.2-9.2s5-6.1 8.2-10.5 7.3-9.6 9.1-11.5l3.1-3.5-2.4 3.5c-6.1 8.8-14.7 20-19 24.9-2.6 3-6 7.8-7.5 10.7-1.5 3-3.4 5.4-4.1 5.4s-5.2 3.1-10 6.8c-4.8 3.8-13.1 10.1-18.4 14-5.4 4-9.8 7.6-9.8 8.1s-1.5 1.5-3.2 2.2c-1.8.7-10.7 6.3-19.9 12.4-9.1 6-17.4 11.5-18.4 12.1-2.8 1.5-2.9 2.9-.3 4.1 1.9.8 1.4 1-2.7.7-6.3-.5-25.3 3.2-34.5 6.7-3.1 1.1-4.8 1.5-17.9 3.6-8.5 1.4-10.5 2.1-10.9 3.6-.3 1.3-1.1 1.7-2.4 1.4-1.2-.4-2.2.1-2.6 1.1-.8 2.3-6.2 10.8-6.2 9.8 0-.4.9-2.6 2-4.8 2.7-5.5 2.6-7.8-.2-7.8-1.3 0-4.5-.9-7.3-1.9-5.7-2.2-18.3-4.6-19.2-3.7s4.1 7.1 14.5 17.9c4.5 4.8 5.9 5.8 7.2 4.9 1.4-.9 1.6-.7 1.3 1.2-.4 1.9.3 2.7 4 4.4 2.5 1.2 4.8 2.5 5.1 3s-1.6-.2-4.2-1.4c-2.6-1.3-5.7-2.4-6.9-2.4s-2.4-.8-2.8-1.8c-.3-.9-2.4-3.8-4.8-6.3-6.3-7-13.2-15-13.5-16-.2-.5-.8-.9-1.4-.9-.8 0-.9 4.3-.5 13.7l.5 13.8-1.3-8.5c-.8-4.7-1.4-11.6-1.5-15.3v-6.8l-10.7.6c-15.4.9-24.3 2.4-24.3 4.1 0 .7 2.5 4.2 5.5 7.6 8.7 10.1 20.8 24.8 25.7 31.5 6.4 8.7 7.3 9.5 10.1 8.8s4.5 1.9 2.7 4.1c-.9 1 .5 3 5.7 8.6 8.9 9.5 15.5 15.8 16.8 15.8.6 0 2.1-2 3.5-4.5 3-5.6 3.9-5.2 1 .5-1.6 3.1-1.9 4.5-1 5 1.3.8-1.6 2.5-3.7 2.1-1.7-.2-35.3 15.6-35.3 16.7 0 .3 1.7 2.8 3.9 5.6 4.3 5.8 5.5 7.6 4.7 7.6-.3 0-2.4-2.6-4.7-5.7-2.4-3.2-4.7-6.1-5.3-6.5-.5-.4-3.7 1.6-7.1 4.3-16.7 13.7-19.2 15.4-20.8 14.1-1-.9-7.7-4.5-23-12.4-2-1.1-3.9-2.4-4.2-2.8-.8-1.3-5.4-.2-11.3 2.5-6.5 3.1-7.3 3.1-10.6 0-1.5-1.4-3.1-2.6-3.7-2.6-.5-.1-1.5-.2-2.1-.3-.7-.1-1.1-.8-1-1.6.2-.8.6-4.2.8-7.5.3-3.3.9-6.4 1.5-7 .7-.7.8.7.3 4.2-.3 2.9-.3 5.3.2 5.3s1.9-2.1 3.1-4.8c1.7-3.5 2.3-4.1 2.3-2.4 0 2.8-1.7 6.4-3.6 7.5-2.1 1.2-1.7 2.1 1.6 4 1.7 1.1 3 2.7 3 3.8s.5 1.7 1 1.4c.6-.4.8-1.5.5-2.6-.4-1.1-.2-1.9.4-1.9s1-.3.9-.8c-.2-.4.2-2.1.8-3.7 2.5-6.9 4.4-13.4 4.4-14.9 0-3.5 2-.3 2.1 3.2 0 2 .4 4.6.9 5.7.8 1.8.9 1.8.9-.5.1-2.3-1.9-12.6-3.5-17.7-.3-1.3-.4-2.3 0-2.3.6 0 4.6 8.4 4.6 9.8 0 1.1 2.9 7 3.1 6.2 0-.3.3-2.1.5-4 .3-1.9.9-5.1 1.4-7 .6-1.9 1-4.7 1-6.3 0-1.5.5-2.7 1-2.7.6 0 1 .5 1 1 0 .6 1.1.5 2.8-.4 1.5-.8 4.7-1.9 7.2-2.6 2.5-.6 5.5-2.1 6.7-3.2 2.2-2.1 4.3-1.7 4.3.8 0 .8.5 1.4 1 1.4.6 0 1-.5 1-1 0-1.1 9.8-1.4 12.4-.4.9.3 1.4 1 1.1 1.4-.3.5-.1 1.1.5 1.5.5.3 1-.2 1-1.1 0-2.7-5.1-21.7-6.2-23.1-.5-.7-1.2-2.7-1.5-4.5-.4-3-3.8-11.8-4.5-11.8-.2 0-.2 5 0 11.1.2 8.7-.1 11.5-1.3 13.2-1.5 2.1-1.5 2-.9-2.1.4-2.3.4-4.2 0-4.2-.3 0-3 1.3-5.9 3-3 1.6-5.9 3-6.6 3s-2.8 1.1-4.7 2.3l-3.4 2.4 4.3 1.3c4.6 1.5 2.6 2.8-2.1 1.4-3-.9-4.1-1.1-5.9-1.3-.7 0-1.3-.7-1.3-1.4 0-.6-1.5-2.1-3.3-3.3-1.7-1.2-6.5-4.3-10.6-7-5.9-3.8-8.3-4.8-11.3-4.7-2.1.1-3.8-.2-3.8-.7 0-2.5-16.4-4.2-17.3-1.8-.2.7-.7 1.1-1 .8-1-.9 1.8-10.6 6.8-24 2.6-6.9 5.1-13.3 5.6-14.2 1.2-2.4 1.1-2.8-.6-2.8-.8 0-1.5-.4-1.5-.9 0-.6.9-.8 2-.6 2.1.4 2.4-.1 7.4-11.7 2-4.6 2-4.6-.6-5-1.6-.2-3.3.8-5.7 3.5-3.9 4.3-5 4.3-2.6-.2.9-1.7 1.1-3.1.5-3.1-.5 0-1-.8-1-1.8 0-1.7-1.6.4-3.9 5.3-.5 1.2-1.7 2.7-2.7 3.5-1.6 1.4-1.7 1.3-.9-.5.9-2.2 1.8-10.8.9-8.7-.3.6-1.1.9-1.7.5-1.3-.9-14-3.2-14.5-2.7-.7.5 12.1 18.4 13.3 18.4.6 0 1.9-1.6 2.8-3.6 1-1.9 2.2-3.2 2.7-2.9.6.3 1 .1 1-.6s.3-.9.7-.6c.4.4-.3 2.5-1.5 4.6-2.1 3.8-2.2 4-.5 5 1.5.8 1.6 1.1.3 1.5-.8.3-2.8.4-4.5.2-1.6-.2-3.7-.4-4.5-.5-1.3-.1-1.3-.3-.1-1 1.7-1.1 2.1-.3-6.4-10.9-6.8-8.4-7-8.3-10.4 2.5-1.2 4-2.6 7.5-3.1 7.8-.6.4-1 1.1-1 1.7 0 .7 2.9.9 9.5.4 5.2-.4 9.5-.5 9.5-.3 0 .3-3.9 1-8.6 1.7-5.1.7-8.8 1.7-9 2.5-.3.7.1 2.6.9 4.2.8 1.5 2 5 2.7 7.8.7 2.7 1.5 5.2 1.7 5.4.2.3 1.7-.8 3.3-2.4 1.7-1.6 3-2.5 3-2.1 0 .5-1.2 1.7-2.6 2.9-2.2 1.7-2.5 2.6-2.1 5.4l.6 3.4-2-2.4c-1-1.4-1.9-3.4-1.9-4.6 0-1.1-.6-3.5-1.4-5.3s-2-4.8-2.7-6.6c-1.6-4.5-3.4-6.1-6-5.5-1.7.5-2 1.1-1.5 3.7.4 2.2.3 2.7-.4 1.6-.5-.8-1-2.5-1-3.8 0-1.2-.6-2.5-1.2-2.7-1.5-.6-1.5-5.3.2-26.4 1.4-18.1 1.1-23.7-1.1-23.3-1 .1-2.3-1.1-3.3-3.2-.9-2-2.1-3.8-2.6-4.1-.6-.4-.8-1.1-.4-1.6.3-.6 1.2-.5 2.1.3 1.4 1.1 1.5 1 .8-1.2-.8-2.7-2.2-4-4.4-4-1.1 0-.9.4.5 1.5 1 .8 1.4 1.5.8 1.5-1.6 0-6.7-5.7-5.6-6.4.5-.3 2.3 0 4 .6 2.7 1 3.4.9 5.2-.7 1.9-1.7 2.1-2.6 1.5-7.6-.7-6.2 0-10.3 1.6-9.3.6.3.8 1.2.5 1.9-.3.8.2 1.9 1.1 2.7 1.4 1.1 1.5 1 .9-.9-.4-1.2-.2-2.4.4-2.8.6-.3.7-1.1.4-1.7-1.5-2.3-1.4-7.9.1-10 1.5-2.2 1.5-2.2 2.1 1 .5 2.7 1.1 3.2 3.5 3.2 1.7 0 4-1.1 6-2.9l3.2-3-2.8-3.8c-1.5-2.1-4.2-5.3-5.8-7.1-1.7-1.7-2.6-3.2-2.1-3.2.6 0 4.1 3.4 7.9 7.5 6.4 7 7 7.4 8.6 5.9 1-.9 1.9-3 2.1-4.8l.3-3.1 1.5 3.2c1.2 2.6 2.1 3.2 5.2 3.5l3.9.4-3-2.8c-4.5-4.2-17.6-11.9-25.9-15.2-8.3-3.4-9.6-3.1-12.5 2.5l-1.8 3.4.4-3.5c1-6.5 2.2-10.3 3.6-10.8 1-.3 1.2 0 .8 1.2-.4 1.1-.3 1.5.4 1 .6-.3.8-1.5.6-2.6-.4-1.2-.1-1.8.6-1.5.7.2 1.2 1.2 1.2 2.3.1 1 .6 1.8 1.3 1.7.6-.2.9.4.6 1.1-.3.9.3 1.7 1.8 2.1 1.3.4 5 2 8.4 3.6 3.3 1.6 6.4 2.9 6.7 2.9.4 0 .7-5 .7-11 0-6.1-.3-11-.6-11-.4 0-2.1 1.2-3.9 2.7-7.5 6.4-12.6 9.8-6.9 4.6 5.5-4.9 9.8-8.3 10.6-8.3 1.8 0 .6-3.1-1.9-4.7-1.5-1-3.7-2.7-4.9-3.8s-3.2-2.9-4.5-4l-2.4-2-.2 6c-.2 3.3-1.2 8.7-2.3 12-1.8 5.4-2.1 3.9-.6-2.5.6-2.6 1-14.8.5-16.5-.4-1.5 1.2-10.8 2.2-12.5.6-1 .8.1.9 3.1 0 2.5.3 4.9.7 5.2.3.4 1.9-1.6 3.5-4.4s3.1-4.9 3.4-4.7c.6.6-1.9 7.1-3.3 8.6-2.5 2.6-1.4 5.9 3.3 10.1 2.6 2.3 5.1 4.1 5.7 4.1s.8-4.7.4-13.5c-.3-7.4-.2-13.7.2-14 .8-.4 2.1 15.9 2.1 25.6 0 5.1 0 5.1 13.8 14.6 4.3 3 4.5 2.9 2.4-1-1-1.7-3.3-7.5-5.1-12.7-4.5-12.8-10-25.9-12.4-29.3-1.5-2.3-2.2-2.6-2.9-1.5-1.5 2 .1-7.2 1.8-10.6.7-1.6 1.4-4.1 1.5-5.5 0-1.4.7-4.4 1.4-6.6l1.3-4-.5 4.5c-.5 4-1.3 8.5-2.4 13-.2.9.2 1.4 1 1.2.7-.2 6.6-.6 13-.9 13.7-.7 16.6-1.5 15.2-4-2.5-4.4-15.3-43.3-14.8-44.7.3-.6 1.2 1.6 2.2 4.9 1.7 5.8 3.4 10.6 9.6 26.4 1.6 4 2.9 8.2 2.9 9.2 0 2.9 1.9 2.2 2.5-.9.3-1.5 1-4.1 1.6-5.9.5-1.7 1.4-5.6 1.9-8.5 1.6-9.1 5.7-29.7 9-44.8 1.7-8 3.3-16.1 3.5-18 .3-1.9.7-5.5 1-8 .4-2.5.8-5.7.9-7 .2-1.4.6-3.6 1-4.8.7-2 .5-2.3-1.1-1.8-5.1 1.5-11.4 2.8-11.8 2.4-.3-.2 2.7-1.2 6.6-2.2 4.8-1.3 7.6-2.6 8.9-4.4 1.6-2 2-2.1 2-.7 0 1.6.7 1.7 7.8 1.1 4.2-.3 11.5-1.1 16.2-1.6 4.7-.6 14.1-1.4 20.9-1.9 13.2-.9 13.3-.9 15.1-7.1 1.9-6.2 11-49.2 11-51.8 0-1-.5-1-2.2-.2-2.1 1-2.1.9.2-.9 2.5-2.1 9-2.9 9-1.2m-165 63.5c0 .3-2.4 1.6-5.2 2.9-7 3.2-39.2 25.9-38.7 27.2.2.5.6.9 1 .8.3-.1 15.6-.4 34-.6 23.6-.3 29.4-.2 19.9.4-18.6 1.1-22 1.7-22 3.6 0 .9-.6 2.4-1.4 3.2-1.8 2.1-2.9 7.1-1.6 7.1.5 0 1 .9 1 2 0 1.6-.7 2-3 2s-3 .4-3 2c0 1.3.7 2 2 2 1.1 0 2 .4 2 1 0 .5-.5 1-1.2 1-.9 0-.9.3 0 1.2 1.9 1.9 1.5 4.8-.8 4.8-1.7 0-2 .7-2 3.9 0 2.2.6 4.4 1.5 5.1.8.7 1.5.9 1.6.4 0-.5.4.1 1 1.4.5 1.5.5 3-.1 4.2-1.8 3.4.6 3 5.6-1 2.7-2.2 6-4.8 7.4-5.8s7.2-5.5 13-9.9 12.6-9.2 15-10.7c4.7-2.8 3.4-1.6-4.6 4.4-10.1 7.6-37.8 30.2-38.2 31.2-.2.5-1 .8-1.7.8s-1.6.8-2 1.7c-.5 1.5-.4 1.6.6.5 1.8-1.7 3.4-1.5 1.9.3-1 1.2-.7 1.5 1.7 2.1 1.5.3 5.3 1.5 8.3 2.6 5.8 2 4.7 1.9-8.2-.6l-6.7-1.3-.7 3.1c-.4 1.7-.7 4.7-.6 6.6l.1 3.5-1-3.5c-.5-1.9-1-4.9-1-6.7v-3.1l-5.7 1.3c-3.1.8-16.9 4.1-30.7 7.5-13.7 3.3-29 7-33.8 8.2-10.2 2.4-12.1 3.8-11.3 8.1.3 1.6.6 23 .6 47.5s.3 45.6.6 46.9c.4 1.5 1 2.1 1.8 1.5 2.1-1.6 35.7-14.4 36.3-13.8.2.2-2.2 1.4-5.4 2.6-18.7 7-31.5 12.5-32.2 13.9-.8 1.5-2.1 7.4-5.5 25.2-.8 4.1-1.6 8-1.8 8.5s-.1 1.1.2 1.3c1.3 1 23.2-11.9 27.3-16.1 1.5-1.6 3.2-2.6 3.8-2.3 1.1.7 12.2-5.3 17.1-9.2 1.8-1.5 2.7-2 2.1-1.3-2.2 2.4-1.5 3.1 2.5 2.6l3.7-.5-4 1.1c-5 1.4-5.1 1.4-3.4 3.5 1.2 1.6 1.1 1.6-.8 0-2.1-1.9-2.3-1.8-8.5 2-5.5 3.3-6.3 4.1-6 6.5.5 3.8-3.1 5.7-5.1 2.7-1.5-2-1.7-1.9-14.7 5.9-7.2 4.4-12.7 8.3-12.2 8.5.8.6 5.8 1.7 32.7 7.2 17.7 3.7 24.2 5.3 22 5.4-1.1.1-5.4-.6-9.5-1.5-26.7-5.8-48.1-10-48.4-9.5-.2.3-2 7.1-4.1 15.1-2 7.9-3.9 14.8-4.1 15.2-.9 1.4 1.6 1.8 22.6 3.2 19.9 1.4 20.1 1.5 5.5 1-8.2-.3-17.8-.7-21.3-1.1-6-.6-6.3-.5-6.9 1.8-.7 2.4-.7 2.4-1.4-.5-.4-1.5-.4-3.6.1-4.5 1.3-2.4 7-25.4 7-28.3 0-1.7-1.1-3.4-3.2-5.1-1.8-1.4-6.9-6-11.2-10.1-4.4-4.2-8.3-7.6-8.7-7.6-.3 0-2.1 6.2-3.9 13.7-1.8 7.6-4.1 17-5.2 21-2.1 7.3-1.9 10.7.5 9.7.7-.2 2.4.4 3.7 1.6 2.2 1.9 2.3 2 .2 2-1.1 0-3.3-.5-4.8-1-2.1-.8-2.9-.8-3.6.2-.5.9-.8 1-.8.1 0-.8-1.5-.7-5.2.6-9.7 3.4-13.8 5.3-13.2 6.2.3.5-.2.6-1 .3-1.3-.5-8.6 1.2-8.6 2.1 0 .1.7 1.9 1.6 4 .8 2 1.3 4 1 4.3-.3.2-.9-.4-1.3-1.4s-1.3-2.5-2-3.2c-.6-.7-1-1.9-.7-2.7.7-1.8-1.2-2-2.2-.3-1 1.6-1.2 5.8-.3 5.8.4 0 1.1 2.6 1.5 5.7.5 4.3.9 5.3 1.5 3.8.7-1.8.8-1.7.8.7.1 1.4.7 2.8 1.4 3.1.6.2.9.7.6 1.1-.4.4-1.3 0-2.2-.8-1.3-1.4-1.6-1.3-2.2.7-.7 2.1-.8 2-1.4-.8-.6-2.6-.8-2.3-1.3 2.5-.3 3-.2 5.7.1 6 .4.3.5 3.6.2 7.5l-.6 7-.5-6-.5-6-2.2 5.5c-1.3 3.4-2.2 4.6-2.2 3.3-.1-1.2.4-3.4 1.1-4.8.7-1.6.8-2.9.2-3.5-.9-.9-31.5-4-32.4-3.3-.3.3.9 1.6 2.5 3 12.2 10.3 10.3 9.8 20.2 4.6 4.6-2.4 8.7-4.2 9.1-3.9.3.3-2.7 2-6.6 3.8-3.9 1.7-7.3 3.7-7.6 4.4-.3.8 2 1.9 6.7 3.3 5.9 1.7 6.4 2 2.7 1.6-2.5-.3-5.6-.8-7-1.1-2.5-.6-2.5-.6.5 2.1l3 2.6-3.2-1.7c-1.8-1-3.3-2.2-3.3-2.7s-.7-.7-1.5-.3c-.9.3-1.5-.1-1.5-1.1 0-1.3-.9-1.5-6-1-6.7.6-7.2.2-10.5-8.6l-1.8-4.8 10.6-21.7c5.8-11.9 13.6-28.2 17.3-36.2l6.7-14.5.2-10.4c.2-6.1-.3-12.7-1.1-16-.7-3.1-2.3-10.7-3.5-17-1.9-10.1-2.1-12.4-1-19 .6-4.2 1.2-11.7 1.2-16.6.1-5 .5-12.4.9-16.5.5-4.9.6-2 .3 8.5-.3 11.4-.1 15.6.6 14.5.6-.8 1.1-2 1.1-2.7s1.2-2.5 2.6-4l2.7-2.8-2.3 4.5c-1.2 2.4-2.6 5.6-3 7.1-.9 3 .4 6 1.8 4.4 1.1-1.2 6.2-22.6 6.2-25.9 0-1.4.3-3.3.7-4.3.6-1.5.8-1.4 1.3.9.4 2.3 1.2.7 4.1-8.3 2.7-7.9 3.3-10.9 2.3-10.5-.9.3-.5-.7.9-2.7 2.2-2.8 2.5-4.6 3-15.2.5-9 .3-11.5-.5-10.1-2 3.6-7.3 25.9-8.5 36.3-.3 2.5-.9 4-1.5 3.7-.6-.4-.8.2-.3 1.5.4 1.4.2 2.1-.8 2.1-.8 0-1.9 2.1-2.7 5.1-.8 2.7-1.7 5.2-2.1 5.5-.9.5.3-4.5 2.9-12.1 3.1-9.2 5-15.9 8.1-29.5 1.6-6.9 3.7-13.9 4.5-15.5.9-1.7 1.6-4.1 1.5-5.5 0-2.3-.1-2.3-.9-.5-.5 1.1-1.1 2.9-1.4 3.9-.4 1-.9 1.7-1.1 1.4-.3-.3.7-3.6 2.1-7.4s2.9-8.2 3.1-9.8c.6-2.8.6-2.8 1.7-.7 1.2 2.1 1.3 2 10-3.5 4.8-3 9-5.4 9.2-5.1.2.2-3.3 2.7-7.8 5.5-13.6 8.3-12.9 7.3-8.8 12.4 3.3 4.2 6.8 7.3 8.2 7.3.8 0 13.3-14.5 23.4-27.2 4-5 7.9-9.5 8.6-9.9 1.6-1 .7.2-8.2 11.1-3.6 4.4-8.4 10.4-10.8 13.2-2.3 2.9-6.1 7.5-8.3 10.3-4.8 5.7-5 5.1 4.2 13.1l5.8 5 1.6-3.8c3.4-7.9 16.5-44.8 17.1-48.2l.7-3.4-3.4 2c-1.9 1.2-5.9 3.5-8.9 5.3s-7 4.1-8.7 5.2c-1.8 1.1-3.3 1.7-3.3 1.4 0-.5 9.5-6.7 19.3-12.6 3.1-1.9 5.7-3.7 5.7-4.1 0-.3-1-1.1-2.2-1.7-2.1-1-2-1.1 1.1-.9 3.3.2 3.5 0 5.3-5.3 1.5-4.8 1.7-2.9.1 2.5-.3 1.1-.3 1.8 0 1.5s8.5-8.4 18.2-18c15.8-15.5 17.5-17.6 15.9-18.7-1.5-1.1-1.4-1.2 1.2-1.1 1.6.1 6.9-.4 11.7-1.1 10.7-1.6 12.5-.9 2.5.9-4 .7-7.8 1.6-8.5 1.9-.6.3 1.8 2.2 5.5 4.1 3.6 1.9 9.7 5.2 13.5 7.2 3.9 2.1 7.8 3.8 8.8 3.8 1.5 0 20.2-12.1 41.9-27.2 4.6-3.2 10-5 10-3.4m614.1 190.2c-.6 2.4-.9 5.5-.5 6.9.4 1.6.2 2.5-.6 2.5-.7 0-.9.8-.4 2.2.6 2 .5 2.1-.8 1-1.3-1-3.7.2-14.9 7.3-7.4 4.7-14 9.3-14.7 10.4-1 1.5-1.1 3.1-.2 7.3.6 2.9 1.7 9.1 2.5 13.8 2.7 15 1.6 14.3 9.6 6.4 3.9-3.8 7.5-7.7 8.1-8.7 1.3-2.4-.8-4.7-7.6-8.7-2.8-1.6-6.4-4.1-8.1-5.5-1.6-1.4 1.6.4 7.2 4s10.5 6.5 10.8 6.5.6-.8.6-1.8c.1-1.6.2-1.6.6 0 .5 2.2.2 2.2 6.9.2 3.6-1 5.4-2.1 5.4-3.1 0-.9.6-2.1 1.4-2.7s2.6-3.3 4-6c2.8-5.4 3.5-4.9 1.1.7-2.5 6-1.4 8.1 1.6 3.1 1.5-2.5 1.6-2.1 1.2 7.3-.2 7-.9 11.4-2.5 15.3-2.7 6.9-3.8 8.2-3.8 4.5 0-2.7-.1-2.7-1.4-1-1.2 1.7-1.4 1.4-2.4-3.1-.6-2.7-1.4-6.8-1.7-9.2l-.7-4.3-3.6.7c-2.1.4-4 .9-4.4 1.1-1.1.6-1 4.1.2 4.8.6.3 1 1.1 1 1.7 0 .7-.6.6-1.5-.2-.8-.7-1.5-1.9-1.5-2.7s-.4-1.3-.9-1.1c-2.1.8-16.2 16.8-15.6 17.8 1.3 2.1-1.7.9-4.8-1.9-1.7-1.7-4.5-4.2-6.2-5.6-1.6-1.4-.6-1 2.3 1l5.2 3.7v-3.4c-.1-1.8-.7-6-1.5-9.3s-2-9.1-2.5-12.9c-.6-3.8-1.6-7.6-2.2-8.3-.8-1-.8-1.7 0-2.5.7-.7 1.3-4.7 1.4-9.3l.2-8 .5 8.7.6 8.7 4.2-2.7c2.3-1.5 8.7-5.6 14.2-9.1 8.9-5.7 10.1-6.8 10.1-9.3 0-1.5.4-2.8.8-2.8 1 0 3.1-6.6 3.3-10.1.1-1.9.2-2 .6-.5.3 1 0 3.8-.6 6.2m-174.8 4.3c.9.9.8 1.1-.5.6-1.1-.5-1.8-.2-1.8.5s-.8 1-2 .7-1.8-.1-1.4.5-.7.8-2.7.6c-3.2-.3-3.4-.1-3.2 2.7.2 2.7.1 2.8-1.1 1.3-1.2-1.6-1.4-1.6-4.3 0-5.1 2.8-20.3 16.6-20.3 18.3 0 .6-.4.7-1 .4-.5-.3-1-.1-1 .4 0 2.4 6.6.8 15.3-3.6 5.1-2.6 9.4-5 9.7-5.4.3-.5 1.2-.4 2 .1.8.6 1.2 1 .8 1.1-.5.1-1.1.2-1.6.3-1.6.2-11.2 6.9-11.2 7.7 0 .5-.6.9-1.3.9s-2.8 1.4-4.6 3.2c-2.5 2.4-3.1 3.8-2.9 6.2.3 2.7.9 3.2 6.8 5.4 3.6 1.3 7.9 3 9.5 3.8 5.7 2.6 1.2 1.4-10.4-2.8-9.5-3.5-11.1-4.3-9.1-4.9 1.4-.4 2-.7 1.3-.8-.9-.1-.8-1.1.3-3.7.8-2 1.3-3.8 1-4.1-1.1-1.1-10.4 2-12.9 4.3-3.3 3-5.4 3.2-3.3.2 1-1.4 1.2-2.7.6-3.8-.5-1-.6-2-.3-2.4.3-.3-.4-.6-1.6-.6s-1.9.4-1.6 1c.9 1.5-2.1 1.2-3.4-.4-.9-1-.8-1.5.4-2 .8-.3 1.5-1.3 1.5-2.1 0-.9.4-1.4.9-1.1 1.7 1.1 4.3-.6 3.8-2.5-.6-2.4 7.9-10.3 15.7-14.7 9.6-5.5 30.5-8.7 33.9-5.3m-2 75.3c-.5 4.7-1.1 6.7-2.6 7.7-1.1.8-2.7 2.3-3.6 3.4s-2.6 2.9-3.9 4.1c-1.3 1.1-3.3 3.6-4.4 5.4s-2.3 3.1-2.6 2.8c-.2-.3.1-1.2.8-2.1 2-2.4 1-2.5-5.7-.3-5.9 1.9-6.2 2.3-9.3 8.1-1.8 3.4-3.6 7.2-4.1 8.5-.8 2.1-.7 2.3 1.3 1.6 4.1-1.3 8.9-5.8 8.4-7.8-.4-1.4-.2-1.6.6-.8 1.6 1.6 4.6-.3 6-3.6.6-1.6 1.2-2.2 1.5-1.4.3.7-.7 3-2.1 5.1-1.4 2-2.6 4.8-2.6 6.2 0 1.9.2 2.1 1 .9 1.1-1.7 1.3-.9 1 3.2-.1 1.6.3 2.8.9 2.8s1.1 1 1.1 2.2c0 1.6-1.1 2.8-3.5 4-3.7 1.8-4.8.9-1.7-1.4 3.2-2.3 3.4-3.7.8-6.5-1.7-1.8-2.2-3.1-1.6-3.7 1.9-1.9 1-2.7-1.2-1.2-1.2.9-2.8 1.6-3.6 1.6-.7 0-3.9 1.2-7 2.6-3.1 1.5-6.6 3-7.7 3.5-9.9 4-12.5 5.2-12.5 5.8 0 .3-1.2.7-2.7.8-3.1.1-12.3 4.3-12.3 5.5 0 .4-.7.8-1.5.8-2.3 0-1.8-3.5.5-3.7 1.1-.1 3.5-.9 5.2-1.7 1.7-.9 3.9-1.6 4.8-1.6s2.4-.6 3.4-1.3c1.6-1.1 1.7-1.7.7-3.6-.7-1.2-2.2-3.2-3.3-4.3s-1.7-2.2-1.4-2.6c.4-.3 1.3.4 2.2 1.6.8 1.2 2.2 2.2 3 2.2s1.4 1 1.4 2.5c0 2.3.3 2.5 2.8 1.8 1.5-.3 4.1-1.5 5.7-2.5 1.7-1 3.8-1.8 4.8-1.8s1.7-.5 1.5-1.1c-.4-1.3-12.8-5.9-17.5-6.6-1.8-.3-3.3-1-3.3-1.5 0-.6 1.8-3.1 4.1-5.5 3-3.3 3.9-4.9 3.3-6.5-.6-2-.4-2.1 5.2-1.5 3.3.3 6.9.8 8.2 1.1 1.2.3 2.2 0 2.2-.5 0-1 6.3-.5 8 .6 1.2.7 6.3-.5 8.3-2 1.5-1.1 1.6-1.7.6-3.9-.7-1.4-1.6-2.3-2.1-2-.4.3-2-.4-3.4-1.5-1.5-1.2-2.1-2.1-1.3-2.1s2.5-1.6 3.7-3.6c1.9-2.8 2.2-4.5 1.8-7.3l-.7-3.6 1.8 2.7c1.7 2.7 4.3 3.8 4.3 1.9 0-.5.9-1.1 2-1.4 1.5-.4 2.2.1 2.6 1.8.3 1.3 1.9 2.9 3.5 3.5 1.6.7 2.9 2 2.9 2.9 0 1.1 1 .4 3-1.9 1.9-2.2 3-4.6 3-6.6 0-2.7.6-4.4 1.7-4.4.1 0 0 2.8-.4 6.2m182.8 47.4c-.5 3.3-1.6 7.7-2.5 9.8s-1.6 4-1.6 4.2c0 1.2 3.3.1 4.9-1.5 1.7-1.7 2.4-1.8 4.5-.8 3.6 1.7 3.2 2.4-1.6 3-8.8 1.2-8.2.7-9.4 9.3-.6 4.3-1.4 8.9-1.8 10.1-.4 1.3-.4 2.8.1 3.5 1.3 2.1 1.5 3.9 1.9 13.6.4 10.6 0 12.2-2.7 11.5-2-.6-2.7 1.1-.9 2.2.6.3 1 1.2 1 1.8 0 .8-.3.8-.9-.1-.6-1.1-1.2-1-2.6.4-1.7 1.7-1.7 1.6-1-2.7.4-2.4 1.4-5.5 2.2-6.9l1.4-2.5-.6 2.8c-.4 1.9-.2 2.6.5 2.2.5-.3 1-.1 1 .6s.2 1 .4.8c.3-.3.1-2.1-.3-4.2-.5-2-.5-3.7 0-3.7.7 0 .6-4.2-.3-17.5-.1-1.1.2-4 .6-6.5s.9-6.4 1.1-8.6c.2-2.3 1.3-6.4 2.4-9.3 1.2-2.8 1.7-5.1 1.2-5.1-.6 0-4.7 4-9.2 9-4.6 4.9-8.5 8.7-8.7 8.5-.3-.3 2.7-3.7 6.5-7.7 10.9-11.3 13.3-14.4 13.3-17.1 0-2.6 1-6 1.6-5.5.2.2-.1 3.1-.5 6.4m-813.9 31.1c-.6 2.1-2.3 7.7-3.7 12.6l-2.6 8.7 2.6 4.4c5 8.5 5.2 8.3 6.3-9.6l1-16.3-.1 14.2c-.1 7.8.2 14.5.6 14.9s.7-.8.7-2.7.7-7.2 1.6-11.9 1.9-10.4 2.1-12.8c.3-2.3.9-4.2 1.5-4.2s.7 1.6.3 4c-.4 2.1-.3 4.5.1 5.2s.7 2.9.5 5c-.1 2.3.2 3.8.9 3.8s.8.6.1 1.9c-.6 1-.8 2.1-.5 2.3.3.3-.1.8-.8 1.1-1 .3-1.2-1.2-1-7.2.2-4.2.1-7.3-.2-7-.9.8-3.6 16.8-3.6 21.1 0 2-.4 4-1 4.3-1.7 1-1.1 2.5 1.3 3.5 1.7.8 1.4.8-1.5.4-2.5-.4-3.8-.2-3.8.5 0 .6-.5 1.1-1.1 1.1-.8 0-.8-.5.1-1.5 1-1.2 1-1.9-.1-3.4-.8-1-2.9-3.9-4.7-6.4l-3.2-4.6 3-9.2c1.6-5.1 3-9.9 3-10.5 0-2.2 2-6.7 2.7-6 .3.3.1 2.3-.5 4.3m225.7 10.8c2.2 6.6 4.5 13.9 5.1 16.3s1.9 5.1 2.8 6 1.8 2.8 1.9 4.2c.1 2.5 3.4 12.7 5.8 18.5.7 1.6 1.6 4 2 5.2.3 1.3 1.1 2.3 1.7 2.3s2.6 1.1 4.5 2.6c1.8 1.4 3.9 2.2 4.6 1.8.9-.5.9-.4.1.5-.9 1-2 .8-5.2-.8-4-2-5.7-1.6-4.7 1.1 1.1 3 2.2 10.9 1.4 10.1-.5-.5-1.3-3.3-1.9-6.2-.5-3-2.1-7.7-3.5-10.5-1.3-2.8-3.1-7.8-4-11.1s-3.2-10.7-5.1-16.5-3.9-12.5-4.4-15c-.8-4.2-6.1-19.6-7.6-22.3-.4-.7 0-.5.9.3.8.8 3.4 6.9 5.6 13.5M573.3 536c-.5 1.7 0 2 2.8 2.1 3.1.2 3.1.2.7.6-1.6.2-2.8.9-2.8 1.4s-.9.9-2 .9c-1 0-4.3 1.4-7.1 3.1-2.9 1.7-9.7 5.3-15.1 8s-9.8 5.3-9.8 5.7 1.2 1.5 2.8 2.4c1.5.9 6.2 4.6 10.4 8.1 4.2 3.6 8.9 6.7 10.3 7.1s2.5 1 2.5 1.5c0 1.2-3.4.9-4.5-.4-1.4-1.6-15.4-12.8-18.8-15-2.4-1.6-3-1.6-3.8-.4-.7 1.1-.9 1.1-.9-.4 0-2.1-.1-2.1-9.2-.2-4 .9-13.1 2.5-20.3 3.6-7.1 1.1-14.1 2.2-15.5 2.5-1.7.3-1.3-.1 1-1 1.9-.8 4.6-1.5 6-1.5 5-.2 10-2.1 10-3.9s-11.4-8.2-14.4-8.2c-.8 0-1.6-.6-1.9-1.3-.8-2.2-2.4.5-4.6 7.6-1.5 5.1-1.8 7.4-1.1 8.8 1 1.7.9 1.8-1.5.7-2.6-1.2-3.2-2.4-1.5-3 .9-.3 4.6-16.5 3.9-17.3-.2-.2-3.2-1-6.6-1.8l-6.2-1.4-5 5.3c-4.3 4.7-4.8 5.6-3.5 6.8 3 3.1.9 3.6-2.4.6-2.3-2.1-3.1-4.7-1.1-3.4.6.3 2.6-1 4.5-3s3.1-3.6 2.8-3.6c-.4 0-.1-.7.6-1.5 1-1.1 1-1.5 0-1.5-.6 0-1-.6-.7-1.3.2-.6 1.1-1 1.8-.8.8.2 4 .6 7.1 1 5.4.7 5.6.6 4.6-1.2-.9-1.7-.8-1.9.7-1.4.9.4 2.1.7 2.7.7s.8.8.6 1.8c-.5 1.6.1 1.8 4.1 1.6 2.5-.2 13.4-.5 24.1-.8s21.5-1 24-1.5c2.5-.6 8.3-1 13-1.1 12.3-.1 8-1.6-7.5-2.6-7.2-.5-11-1-8.5-1.2s10.2.1 17.2.7l12.7 1.1 2.7-2.5c3.2-3 3.4-3 2.7-.5m-96.2 51.7c2.3 4.9 4.5 8.9 5 9.1s.9 1.6.9 3.2 1.1 4.1 2.4 5.7c1.3 1.5 4.3 5.9 6.6 9.8 2.3 3.8 4.8 7.3 5.4 7.7 1.3.9 4.7-19.2 3.4-20.6-.4-.5-2.7-1.3-5-1.7-3.2-.6-2.5-.6 2.7-.3 36.4 2 36.5 2 36.5-3 0-1.7.2-1.8.9-.6.6.8.8 1.7.5 2.1-.2.4.5 1.4 1.7 2.2l2.1 1.5-2.1 1.1c-1.3.7-2.1 2.2-2.2 3.9q-.15 2.55-.6.9c-.2-.9-.9-1.7-1.5-1.7-1.2 0-13.1 5.9-13.8 6.9-.3.3-3.7 2.8-7.7 5.5-8.1 5.4-9.5 6.7-8.5 8.2.4.6 4.2 3.4 8.5 6.4 4.3 2.9 8 5.7 8.3 6.1.7 1.2-15.6-8.9-18.1-11.2-1.1-1-2.3-1.8-2.8-1.8-1.2-.1-6.3-6.2-8.7-10.6-1.2-2.2-3.9-6.3-6-9-2.1-2.8-4.1-6.1-4.5-7.5s-2.4-5.7-4.5-9.5c-4-7.7-5.3-11.5-3.9-11.5.5 0 2.8 3.9 5 8.7m725.9 86.7c0 1.3 2.7 3.1 4.2 2.8 1-.2 4.2 8.7 3.4 9.5-.3.3-.6.1-.6-.5 0-1.9-2-6.5-2.6-5.9s1.6 8.8 2.8 10.1c.5.6.8.2.8-.8 0-1.2.5-1.6 1.6-1.2.8.3 1.2.2.9-.4s.4-4.1 1.6-8c1.8-5.4 2.7-7 4.2-7 1.4 0 1.7.4 1.2 1.7-.4 1-1.4 3.7-2.2 6-.8 2.4-1.9 4.3-2.5 4.3-.5 0-.7.4-.4.9s.2 2.2-.3 3.7c-2.1 6.5-2.2 8.4-.6 7.8.8-.4 1.5-.2 1.5.4 0 .5-1 .8-2.2.7-1.3-.1-3-.3-3.9-.4-1.1-.1-2.5-2.4-3.9-6.4-1.3-3.4-3.4-9-4.6-12.5-2.3-6-2.3-6.2-.4-6.2 1.1 0 2 .6 2 1.4m22.2 5.4c-.4 2.2-.3 2.3 1.7 1.2 2.3-1.2 8.1-.5 8.1 1 0 .5 1 1.2 2.3 1.6 1.2.3 2.9 1.3 3.8 2 1.3 1.2 1.8 1 3.7-1.5 3-4.1 7.2-4.8 12.5-2.1s8.7 5.9 8.6 7.9c0 1.1-.3 1-.9-.4-.8-2.2-4-5.3-4-4 0 .5.6 1.6 1.4 2.4.7.9 1.6 2.7 1.9 4.1.6 2.3.5 2.2-.5-.3-1.5-3.3-2.8-3.5-2.8-.3 0 1.5-1.2 3.4-3 4.9-3.6 3.1-3.7 3.7-.6 3.7 1.5 0 3.3-1.1 4.5-2.6s2.1-2.3 2.1-1.8c0 1.8-4.5 5.4-6.7 5.4-1.5 0-2.2.4-1.7 1.1 1.1 1.8-3.6-1-8.6-5-3.8-3.1-5-3.6-7.5-3-1.6.4-2.6.7-2.1.8.4 0-.2 1-1.5 2-3.3 2.6-1.5 4 2.4 1.8l3.2-1.7-2.4 2c-1.8 1.6-3.2 1.9-5.4 1.4s-2.8-.3-2.2.6c1 1.6-.5.8-5.3-2.8-2.2-1.7-3.1-3-2.7-4.1.3-.8.3-1.2-.1-.9-.8.9-3.4-1.7-3.4-3.4 0-.7.9-3 2-5.1 2.3-4.3 2.5-6.3.8-7-.7-.3-.4-.5.8-.4 1.6.1 1.9.6 1.6 2.5"/><path d="M638.7 83.7c2 3.2 3.1 4.7 5.3 7 .8.9 1.4 1.8 1.2 2-.2.3 3.7 8.2 6.9 13.8 1 1.6 2.8 5 4.1 7.5s4.1 6.7 6.1 9.3c2 2.7 3.7 5.5 3.7 6.3 0 2.7 2.8 1.4 3.5-1.6.4-1.7 1-3 1.4-3 .7 0 6.1-11.2 6.1-12.7 0-1.2 6.4-13.7 7.4-14.4 1.2-.9-.5-1.8-8.7-4.4-4-1.2-8.3-2.7-9.7-3.3-3-1.3-27.6-9.2-28.4-9.2-.4 0 .1 1.2 1.1 2.7M620.5 85.9c-4.4 2.1-13.4 6.4-20 9.6-6.6 3.1-12.9 6.4-14 7.4-1.9 1.7-4.8 3.3-7 3.7-3.1.6-5.5 1.8-5.5 2.6 0 .5.9.6 2 .3 1.4-.5 2-.2 2 1s-.5 1.5-2.1 1c-1.4-.5-2.5-.2-3 .6-.6 1.1-1.1 1.1-2.1.1-.6-.6-1.7-1.2-2.2-1.2-.6 0-.4.5.4 1.1 1.2.9 1.1 1-.6.6-1.2-.2-3 .1-4.2.7-1.6.8 3.4 1.1 21 1.1h23.1l2.9-4c1.5-2.2 3.2-4.5 3.8-5.2.9-1.1 12.5-18.8 14.4-22.1 1.1-1.9-.3-1.5-8.9 2.7M630.7 86.5c-1.5 1.9-2.5 4-2.1 4.7s.3.8-.4.4-1.2-.2-1.2.4c0 .7-1.1 2.5-2.5 4.2-1.4 1.6-2.5 3.5-2.5 4.3 0 .7-.7 1.8-1.5 2.5s-1.3 1.6-1 2c.3.5-.1 1-.7 1.3-.9.3-1 .8-.3 1.4 1.2 1.2 7.5-.3 7.5-1.8 0-.6-.7-1.7-1.5-2.5-2.4-2.5-1.9-4.5.8-3.5 1.4.6 3 .6 3.8 0 2.3-1.4 2.9-1.1 2.9 1.6 0 2.2.4 2.5 4 2.5h4v4c0 2.9-.4 4-1.5 4-.8 0-1.5.7-1.5 1.5s.7 1.5 1.5 1.5 1.5-.7 1.5-1.5c0-1.1 1.1-1.5 4-1.5 3.3 0 4 .3 4 2 0 1.3.7 2 2 2 1.1 0 2 .4 2 1 0 .5.8 1.4 1.9 1.9 1.5.9 1.4.1-1.2-4.9-1.6-3.3-3.4-6-3.9-6s-.6-.4-.3-1c.3-.5 0-.7-.8-.4s-2.3-.6-3.5-2c-1.1-1.4-2.4-2.6-2.9-2.6s-.8-2.1-.7-4.6c.1-2.6-.2-5.1-.7-5.8-.6-.6-1.8-2.7-2.8-4.5-1-1.9-2.2-3.6-2.7-3.8s-2.2 1.3-3.7 3.2M685.2 101.2c-1.1 1.8-3.2 6.2-4.6 9.8-1.5 3.6-3.1 7.4-3.7 8.5-.5 1.1-1.2 3.1-1.5 4.5s-.8 3.6-1.1 4.9c-.6 2.2-.4 2.4 2.5 1.8 3.5-.7 6.5 0 5.7 1.3-.3.5.9.4 2.7-.2 1.8-.5 5.3-1.4 7.8-1.8 2.5-.5 6.8-1.4 9.5-2 2.8-.7 6.7-1.4 8.8-1.7 2-.3 4-.9 4.3-1.4s2.2-.9 4.2-.9c3.9-.1 16-2.8 12.9-2.9-1.1-.1-1.5-.6-1.1-1.3.5-.8 0-.9-1.4-.6-1.2.4-2 .2-1.7-.3.5-.7-7.2-4.9-9.1-4.9-.4 0-1.5-.6-2.3-1.4-2.3-2.1-15.9-8.7-18.2-8.9-1-.1-1.9-.4-1.9-.8 0-.7-8-4.9-9.2-4.9-.4 0-1.5 1.5-2.6 3.2M521.5 120c-3.8.4-9.9 1.1-13.5 1.5-3.6.3-8.1 1-10 1.4-3.3.6-3.5.9-3.3 4.1.2 1.9 1 19.5 1.9 39 .8 19.5 1.7 35.7 2 35.9.8.8 3.4-2.3 5.9-7.2 1.5-2.9 3.8-6.6 5.1-8.4 1.3-1.7 2.4-3.4 2.4-3.7 0-.4 4.8-8.4 15.2-24.9 5.8-9.2 18.8-32.5 18.8-33.7 0-.4.7-1.3 1.5-2s1.5-1.6 1.5-2.1c0-1.1-17.5-1-27.5.1M717.5 128c-10.4 2.2-19.8 4.4-20.7 5-1 .5-2.9 1-4.3 1-2.2 0-2.4.3-1.9 3 .4 1.8.1 3.6-.7 4.6-1.2 1.4-1.4 1.3-2.2-.8-.9-2.2-1-2.2-1.6-.3-.3 1.1-1.5 3.6-2.5 5.5-2.8 5.1-3.1 17.1-.5 15.4.6-.3.9 0 .7.7-.3 1.7 2.2 7.9 3.2 7.9.9 0 6 10.1 6 11.8 0 .7.4 1.2.9 1.2s1.2 1.2 1.5 2.7c.4 1.6 2.3 5.2 4.2 8 1.9 2.9 3.4 5.8 3.4 6.5 0 2.3 2-1.5 2-3.8 0-1.2.7-2.7 1.5-3.4s1.5-2.1 1.5-3.1c0-1.1.4-1.9.9-1.9s1.3-1.4 1.6-3.2c.4-1.7 1.4-3.8 2.1-4.6 1.6-1.6 1.8-3.8.4-4.7-.5-.3-1-1.2-1-1.8 0-.7.4-.6 1 .3.8 1.3 1.1 1.2 2.3-.5.8-1 1.3-2.5 1-3.1-.3-.7.1-2.1.7-3.1 1.1-1.7 1.1-1.7.6 0-.3 1.1-.2 1.5.4 1.2s1-1.5 1-2.6.4-1.8.8-1.5c.9.6 5.2-8.5 5.2-10.9 0-.8.4-1.5.8-1.5.5 0 2.3-3.7 4.2-8.3 1.8-4.5 3.7-8.7 4.3-9.4.5-.7.6-1.7.2-2.3-.3-.5-.2-1 .3-1 .8 0 3.2-5.1 3.2-6.6 0-.5.5-.6-20.5 3.6M738.8 130.7c-1.4 3.2-3.6 8-4.8 10.8-1.2 2.7-3.4 7.5-4.7 10.5-1.4 3-4 8.9-5.8 13-8.6 19.8-16.6 36-17.7 36-.5 0-.8.5-.8 1.1 0 .8 1.2.9 3.8.5 2-.3 12.3-1.8 22.7-3.1 17.2-2.3 38.2-5.3 49.2-7.1l4.1-.6-1.9-3.5c-1.1-1.9-2.8-4.6-3.8-6.1s-6-9.2-11.1-17.2-10.2-15.9-11.3-17.5c-6.8-9.6-12.6-18.7-13.2-20.5-1-3.1-1.8-2.5-4.7 3.7M489.7 133.7c-1.5 13-3 21.6-5.7 33.4-1.6 7-3.2 14.3-3.4 16.1-.6 4.2-6.2 32.1-7.4 37-1.5 6.3.1 6.6 5.4.8 2.7-2.9 7.4-6.8 10.4-8.7s6-4.1 6.5-4.7c1.2-1.6-.8-54.4-2.5-68.1-1.4-10.5-2.6-12.6-3.3-5.8M541.7 138.2c-.9 2-1.7 4.2-1.7 5 0 .7-1.6 3.1-3.6 5.3s-4 4.9-4.5 6-2.5 4.7-4.4 8-4.2 7.7-5.3 9.8c-1 2-2.2 3.4-2.7 3-.4-.5-.5 0-.2 1 .4 1 .3 1.6-.1 1.3-.9-.5-3.2 3-11.4 17.4-2.3 4.1-4.8 8.1-5.5 8.8-1.6 1.6-1.7 2.9-.3 3.7.6.3 1 .2 1-.3 0-.8 3.8-.7 8.9.4l2.4.5-2.2 1.5c-2 1.5-2.9 4.9-1.3 5.6.4.1 2.8 2.6 5.4 5.5l4.8 5.2 2.1-7.2c1.1-4 2.9-9.7 3.9-12.7s2.6-8.7 3.5-12.5c.9-3.9 2-8.8 2.6-11 .5-2.2 1.1-4.9 1.3-6 .3-1.1.9-3.3 1.5-4.8.6-1.6.9-3.2.6-3.7s-.1-1.1.5-1.5c.5-.3 1-1.6 1-2.9 0-1.2.4-2.6.8-3.2.5-.5 1.4-3.6 2.1-6.9s1.6-6.9 2.1-8c1.5-3.4 2.9-9.6 2-9-.5.3-1 0-1.2-.7-.2-.6-1.2.5-2.1 2.4M668.5 165.2c.4 1.8.7 4.2.7 5.3-.3 5-1.5 11.1-2.4 12.2-.6.7-.8 2.3-.5 3.5.3 1.3-.1 3.2-.9 4.2-2 2.7-1.8 7.5.3 8.3.9.4 1.9.1 2.1-.5.2-.7.9-1.2 1.5-1.2.8 0 .8.3 0 1.1-.6.6-.9 1.8-.6 2.5.7 2 3.3 1.7 3.4-.4 0-1.2.3-1 1 .8.8 2 1.2 2.2 1.9 1 .6-.9 1-1 1-.3s-.8 1.7-1.7 2.3c-1.4.8 1.5 1 11.5.7 13.5-.5 16.6-1.3 13.7-3.7-.8-.7-1.5-1.9-1.5-2.6 0-.8-.4-1.4-1-1.4-.5 0-1-.8-1-1.7s-.9-2.6-2-3.8-3-4.7-4.3-7.9c-1.3-3.1-3.1-6.6-4-7.6-.8-1-1.3-2.1-1-2.4s-.2-.8-1.1-1.2c-.9-.3-1.6-1.2-1.6-2s-.4-1.4-1-1.4c-.5 0-.9-.4-.7-.9.1-.5-1-2-2.5-3.4-1.6-1.4-2.8-2.2-2.8-1.7 0 .6-.7 1-1.5 1s-1.5-.5-1.5-1c0-.6-1-1-2.1-1-1.9 0-2.1.4-1.4 3.2M685.3 206.7c-5 .4-6.6 1.4-4.3 2.8 1.6 1 .1 2.5-2.6 2.5-1.7 0-2.4-.5-2.4-2 0-1.8-.7-2-6.7-2-3.8 0-7.4.4-8.2.9-1.1.7-1.2 3.7-.7 16.2.4 8.5.9 17.6 1.1 20.4.2 2.7.7 12.4 1.1 21.5s.8 17.2.9 18 .3 3.1.4 5l.2 3.5 1.9-3.6c1-2 3.7-8.1 5.9-13.5s5.4-12.7 7.1-16.2c1.6-3.4 3-6.7 3-7.2 0-.6.4-1.8 1-2.8 1.4-2.5 7-15.9 7-16.7 0-.4.8-1.9 1.8-3.3 1-1.5 2.6-4.7 3.6-7.2 4-10.1 5.6-14.5 5.6-15.7 0-1.3-3.4-1.4-15.7-.6M491 213.9c-4.1 3.1-9.4 7.5-11.7 9.7-2.3 2.3-4.8 4.4-5.7 4.7-.9.4-1.6 1.2-1.6 1.8 0 .8 1.8 1 6.3.6 3.4-.4 14-1 23.5-1.3 9.4-.4 17.2-1.1 17.2-1.5 0-1.2-3.5-4.7-12.5-12.6l-8-7.1z"/><path d="M699.8 216c-2.1 4.4-8.9 19.9-13.8 31.5-.5 1.1-2.5 5.8-4.5 10.5-2.1 4.7-6.2 14.3-9.1 21.5-3 7.1-5.9 13.8-6.4 14.7-1.5 2.6-.5 3.8 7.7 9.8 4.1 3 10.1 7.5 13.2 10s8.2 6.2 11.4 8.3c3.2 2.2 5.7 4.1 5.4 4.3-.4.5-15-9-20.3-13.3-12.9-10.4-16.9-13.3-18.6-13.3-1 0-1.8.4-1.8.8 0 .5-.9 1.9-2 3.2-2.4 2.7-2.5 2.3-.5-1.6.8-1.6 1.1-3.2.6-3.7-1.1-1.1-40.5 1-40.9 2.2-.2.6-1.2.7-2.6.1-4.3-1.6-30.7-7.3-31.2-6.7-.1.2 8 14.9 11.3 20.2 1.8 3 7.1 2.1 11.1-1.8l3.3-3.2-1.5 3c-1.8 3.3-2.2 8-.6 7 .5-.3 2.4.2 4.2 1.1 3.5 1.8 15.8 13.6 15.8 15.2 0 1.3 5.6 3.6 7.2 2.9.7-.2 4.1-5.2 7.6-11s7-11.2 7.9-11.8c.8-.7 0 1.2-1.8 4.2-8.7 14.7-11.1 19.1-10.5 19.7.4.4 3.1 1.4 5.9 2.3l5.2 1.6-6.5-.1-6.5-.1v32l2.6.3c2.2.3 3-.4 4.8-4 1.1-2.4 2.1-3.7 2.1-2.9 0 .9.8.6 2.3-1 1.3-1.3 6.1-6 10.6-10.3 4.5-4.4 8-8.5 7.7-9.2-.5-1.4 1.7-3.7 2.7-2.8.8.9 29.9-14.5 32.1-17 1.7-2 1.8-3.4 1.1-22.6-.4-11.3-1.1-37.4-1.4-58l-.7-37.5z"/><path d="M654.4 218.1c-1.1 1.8-4.3 8.3-7.2 14.2-5.6 11.4-5.6 11.9-2.2 18.7.9 1.9 2.8 6.2 4 9.5 1.3 3.3 3.3 8.2 4.5 11 1.2 2.7 3.2 7.6 4.5 10.7 1.2 3.2 2.7 5.8 3.2 5.8s.7-2.7.4-6.3c-.3-3.4-1.1-15.4-1.6-26.6-1.2-23.2-1.9-32.1-2.9-37l-.7-3.5zM493 231.4l-21.5 1.1-.3 2.8c-.2 1.6.1 3.4.6 4 .5.7 1.3 2.8 1.7 4.7 3.5 17.5 12.3 50.4 16.3 60.7 1.5 3.7 2 4.1 4.2 3.7 1.4-.4 5-2.2 8-4.2 8.5-5.5 8.8-5.7 4.8-2.1-2 1.9-5.3 4.3-7.5 5.4-6 3.1-6.6 4.6-2.5 6.3l2.7 1.2-2.7-.5c-3.9-.7-3.6.8 1.6 11.2 2.4 4.9 5.2 10.7 6.2 13 2.5 5.5 4.6 6 8.4 1.7 3.7-4.2 3.8-3.7.5 2.4-1.4 2.6-2.5 5.3-2.5 5.9 0 2.6 11.2 1.2 18.9-2.4 4.3-1.9 14.1-11.5 14.1-13.8 0-.9.3-1.4.8-1.2.4.3 1.2-.1 1.9-.8 1.9-2-.5-2.5-12.6-2.5-11.5 0-12.3.3-15.9 6.6-.6 1-1.2 1.4-1.2.8s.9-2.3 2.1-3.8c2.6-3.4 2-5.1-2.8-7.4-2.1-.9-4-2-4.3-2.3s-3.1-1.8-6.3-3.3c-3.3-1.5-5.6-3-5.4-3.3.6-.6 8.2 3 16.5 7.7 4.8 2.7 5.7 2.8 5.3.7-.1-.5.3-.6.9-.2.5.3 2.4-.4 4.1-1.5 1.6-1.2 3.3-2 3.5-1.7.3.3-.6 1.3-2 2.2-6.3 4.2-1.3 5.4 14.5 3.7 9-1 10.4-2.5 9.5-10.3-.4-3.3-1-6.8-1.3-7.6-.4-.9-.2-1.4.3-1 .6.3 1.6 2.9 2.4 5.7 1.1 4 1.7 4.9 2.9 4.4.9-.4 3.7-.9 6.2-1.2 3.6-.3 4.9-.9 6.2-3 2.6-4.2 7-9 6.3-6.9-2.1 6.3-2.2 6.2 4.6 6.2 3.5 0 7.8.4 9.7.9 3.3.8 3.4.8 2.7-2-.4-1.6-2.4-6.1-4.5-9.9-3.6-6.7-3.9-7-7.2-6.8-2.9.2-23.4 6.8-30.9 10-1.4.6-3.8 2.5-5.4 4.2-1.7 1.7-3.3 3.1-3.8 3.1-.4 0 1.3-1.9 3.7-4.1 2.5-2.3 4.2-4.6 3.9-5.1-.4-.5-4.9-3-10-5.5-5.2-2.5-9.7-4.9-10-5.5-.3-.5-2-.7-3.7-.4-1.8.3-2.6.3-1.9 0 .8-.4 1.2-3.2 1.2-8.7 0-10-1.8-40.1-2.6-44.1l-.6-2.9-1.5 3.4c-.8 1.9-2.3 5.6-3.3 8.4-5.5 14.8-9.9 25.9-9.9 24.9-.1-1.4 4.3-14.5 5.8-17.3.7-1.2 2.5-6.5 4.2-11.9 1.6-5.3 3.2-10.5 3.5-11.5.4-1.4 0-1.7-2.3-1.5-1.5 0-12.5.6-24.3 1.2"/><path d="M524.3 231.6c-.3.9-.6 3.5-.6 5.8-.1 7.6 2.5 44.1 3.2 45.3.9 1.7 8.5-5 16.5-14.7 3.6-4.3 6.6-8.1 6.6-8.3 0-.3 1.7-2.2 3.8-4.4 2-2.1 5.2-5.6 7.1-7.8 1.8-2.2 5.5-6.3 8.2-9.2 2.7-2.8 4.9-5.6 4.9-6.1 0-.6.6-1.3 1.3-1.5.6-.3-10.4-.6-24.6-.6-22.9-.1-25.8.1-26.4 1.5M453 233.7c-6.9.7-13.1 1.4-13.8 1.5s-1.1.4-.9.7c1.9 3.4 10.7 24.8 10.7 26.2.1.8 2.2 6.5 4.8 12.8 4.7 11.2 7.2 14.7 7.2 9.9 0-1.3.9-7.5 2-13.8s2.6-15.8 3.4-21c.8-5.9 1.4-8 1.5-5.5 0 2.2-.8 9.6-2 16.5-4.2 26.1-4.3 32-.7 32 1 0 2.9 1.4 6.1 4.6 1.2 1.2 4.2 3.4 6.7 4.9 2.4 1.5 5.1 3.4 5.8 4.2 2.2 2.2 4.5 1.6 3.9-1-.3-1.2-1.1-4.5-1.7-7.2-.6-2.8-2.2-8.4-3.5-12.5s-4-14.7-6.1-23.5c-2-8.8-4.3-17.2-5.1-18.7-.7-1.5-1.3-3.6-1.3-4.8 0-1.1-.4-2-.9-2s-.7-.8-.4-1.9c.7-2.7-1.5-2.9-15.7-1.4M632 247.1c0 .5-.4.8-.9.5-1-.6-10 1.8-14.8 4-1.7.8-3.6 1.4-4.2 1.4-1.1 0-2.3.5-6.8 2.8-1.3.7-3.1 1.2-4.1 1.2s-2.7.7-3.8 1.6c-1 .8-1.3 1.3-.6.9.6-.3 1.2-.1 1.2.4 0 .6.5 1.1 1.1 1.1s2.4.9 4 2.1c1.6 1.1 3.4 1.7 4 1.3.7-.4.9-.3.5.4-.6 1 3.1 3.2 24.4 14.5 4.7 2.4 12.1 6.4 16.4 8.7 9.2 5 12.6 5.8 12.6 3 0-1.1-.7-2.3-1.5-2.8-.9-.4-2.9-3.9-4.4-7.8-4.6-10.9-10.7-24.2-11.8-25.6-.5-.7-1.3-2.1-1.6-3-.5-1.4-1.4-1-5.2 2.8-3 2.8-4.4 3.8-4 2.5.3-1.1.1-2.2-.5-2.6-1.8-1.1-1.1-2.5 1.4-2.5 1.3 0 2.7-.7 3-1.6.9-2.4.7-3.1-.4-1.4-.8 1.2-1 1.1-1-.8 0-1.3-.6-2.2-1.5-2.2-.8 0-1.5.5-1.5 1.1"/><path d="M439.8 288.8c.3 5.8 1.1 12 1.8 13.8 1.8 4.4 17.1 14.6 22.2 14.8 3.6.1 3.7 0 3.4-3.4-.2-1.9-1-4.7-1.7-6.2s-1.6-4.2-2-6c-.7-3.9 5.9 9.3 7.7 15.3 1.6 5.6 2.9 6.4 7 4.2 6.9-3.7 12.2-9.2 11.2-11.6-.3-.9-1.2-1.3-2-1s-2.6-.3-4.2-1.3c-1.5-1-3.2-1.9-3.9-2-.6-.1-2.2-1.2-3.5-2.4-3.8-3.7-8.5-7.1-12.5-9.1l-3.7-1.9-2.8 2.7c-3.2 3.1-3.7 2.7-.8-.7 2.7-3.1 2.6-3.5-1.7-6.1-2.1-1.2-5.1-3.3-6.7-4.6-1.5-1.3-4.1-3-5.6-3.8l-2.7-1.4zM549.8 280.1c-6.7 2.4-20.8 9.1-20.8 9.8 0 .5 15.2 8 20 9.9.3.1 1.2-1 1.9-2.5 1.3-2.8 6.1-17.3 6.1-18.4 0-1-2.3-.6-7.2 1.2M558.1 286.4c-1.1 2.8-2.1 5.7-2.1 6.3s-.8 2.5-1.7 4.2c-1 1.6-1.5 3.2-1.2 3.5.7.8 7.7-1.5 12.8-4.1 2.4-1.3 5.1-2.3 6-2.3 1.4 0 1.4-.2.1-1.1-1.2-.8-.9-.9 1.3-.5 1.5.4 2.7.2 2.7-.3 0-.6.8-.7 1.7-.4 1.5.6 1.6.5.3-.8-.8-.9-2.3-1.4-3.4-1.2-2 .4-8.1-3.9-8.1-5.7 0-1.4-1.4-2.3-3.8-2.6-2-.2-2.7.6-4.6 5M695.4 335.9c-14.7 7.8-22.4 12.2-22.4 13 0 .4 3.7 3.7 8.3 7.3 4.5 3.7 11 9 14.5 11.8 3.5 2.9 6.5 5 6.8 4.8.3-.4 2.4-41.1 2.1-41.5-.1-.1-4.3 2-9.3 4.6M670.5 355.7c-.7 5.8-4 25.9-6 36.8-.8 4.4-1.5 8.3-1.5 8.7s1.5-.1 3.3-1.1c2.8-1.6 27.3-18.1 33.6-22.7l2.3-1.7-3.5-3.2c-6.3-5.7-25.9-21.5-26.7-21.5-.5 0-1.2 2.1-1.5 4.7M664.2 358.2c-5.8 6.1-8.2 9.4-7.5 10.2.3.3-.1.6-1.1.6-1.3 0-1 .7 1.4 3.2 3.7 4 3.9 8.3.3 8.2-1.3 0-2.3.4-2.4 1 0 .6-.2 2.8-.5 4.8-.3 2.2 0 3.8.6 3.8.5 0 1 1.6 1 3.5 0 2.9-.4 3.5-2.2 3.6-1.5 0-1.8.2-.8.6.8.3 2.2 1.2 3.1 2 1.4 1.2 1.9 1.2 3.4-.3 1.3-1.4 1.6-2.8 1.1-6-.4-3.1-.2-4.6.8-5.1.8-.4 1.6-2.6 1.8-4.8.5-3.8 3.1-18 4.8-25.8.4-2 .7-3.7.5-3.7s-2.1 1.9-4.3 4.2M420.6 380.4c-.9 3.5.1 5.2 3.7 6.4l3.2 1-3.8.1-3.8.1.7 6.7c.8 9.5 2.1 13.3 4.5 13.3 1 0 1.9-.7 1.9-1.5s.4-1.5.8-1.5c.5 0 2-3.2 3.3-7.1l2.4-7-2.5-1.9c-2.4-1.8-2.4-1.8-.2-2.2 2-.3 2.1-.4.5-3.5-.8-1.8-1.9-3.1-2.3-2.8s-1.3-.2-2-1c-2-2.4-5.7-1.9-6.4.9M507.1 394.4c-.5.6-1.1 2.7-1.3 4.6-.2 2.7-.7 3.4-2 3.2-1.5-.2-1.8.5-1.8 4.7 0 3.7-.4 5.3-1.7 6-2 1.1-2.5 6.1-.7 6.1.7 0 1 .8.8 1.7-.2 1 .3 2.7 1.1 3.7 1.6 2.1 2.3 1.9 11.8-3.8 5.1-3 5.2-3.2 3.7-12.1-1.8-11.3-3.1-14.3-6.2-14.7-1.6-.3-3.2 0-3.7.6M514.4 423.7l-4 3.8.8 5.9c.8 6.2.1 8.7-3.4 11.8-1.8 1.5-1.8 1.8-.3 4.7 1.4 2.9 2 3.1 7 3.3 3 .1 6.3.2 7.3.2 1.3.1 1.7-.6 1.6-2.9-.3-6.5-3.7-30.5-4.4-30.5-.4 0-2.5 1.7-4.6 3.7M524.3 427.7c0 1.2.4 2 .8 1.7.6-.3 1.1 1.5 2.5 8.6.3 1.4 1.9 6.3 3.6 11 1.6 4.7 3.3 10.1 3.7 12 .9 4.2 4.9 16.9 6.1 19.1.5.9 1.4 3.5 2 5.8.6 2.2 1.5 4.1 2 4.1.6 0 3.5-2.5 6.6-5.6 3.1-3 5.8-5.4 5.9-5.2.2.2-2.3 3.2-5.6 6.8-3.2 3.6-5.9 6.8-5.9 7.2s.9 2.3 2.1 4.2c1.1 1.9 2.2 4.7 2.5 6.3 1 5.3 2.1 4.4 5.5-4.2 1.9-4.7 3.5-8.1 3.7-7.5s.1 1.8-.4 2.8c-1.9 4.5-5.1 18.3-4 17.8 21.7-9.4 32.6-14.5 32.6-15.3 0-.3-4.8-5.5-10.7-11.5-10-10.1-13.3-12.5-13.3-9.6 0 .6-.3.8-.7.4-.5-.4-.8-1.8-.8-2.9 0-1.2-.6-2.2-1.3-2.2-.8 0-2-1.7-2.7-3.8-1.1-3.2-5.5-9.1-13.3-17.7-4.1-4.4-4.8-5.4-10.2-12.5-5.5-7.3-9-11.1-9-9.8 0 .4-.5.1-1-.7-.7-1.2-.9-1-.7.7M481.8 455.3c1.5 1.2 3.2 2.5 3.7 3 .6.4 3.9 2.9 7.4 5.4 5.4 4 6.6 4.5 8.2 3.5 1-.7 2.6-1.2 3.4-1.2s1.5-.4 1.5-.9c0-1 2-1.8 6-2.6 1.2-.2 4.3-1.6 6.8-3.1 5.6-3.3 4.8-3.8-8-4.8-7.8-.5-8.7-.4-8.7 1.1 0 1-.4 3.6-.9 5.8-1 4.6-2.1 3.2-2.5-3-.2-3.4-.6-4-3.2-4.7-1.6-.4-6-.7-9.7-.7l-6.8.1zM543.4 507.5c-.9 1.4-2.3 2.5-3 2.5-.8 0-1.4.8-1.4 1.8s-.5 2.3-1.1 2.9c-.5.5-1.1 2.1-1.3 3.5-.1 1.4-1 3.3-1.9 4.2-1.7 1.7-1.3 4.6.7 4.6.6 0 2.5-1.3 4.3-2.8s5-4.2 7.3-6c4.3-3.6 4.6-5.8 1.4-11-1.8-2.8-3-2.8-5 .3M305 154.5 286.5 173l5.5-1.6c3-.9 7.8-2.4 10.5-3.4 2.8-1 9.7-3.2 15.5-5 26.5-8 33.9-10.6 33.7-11.5-.2-.6-1.2-1.5-2.3-2-1-.6-7.2-3.8-13.6-7.3-6.4-3.4-11.8-6.2-12-6.2s-8.6 8.3-18.8 18.5M346 156.6c-2.5.7-7.9 2.3-12.1 3.5-6.5 1.8-7.6 2.4-7.2 4 .3 1.1 0 1.9-.6 1.9s-1.1.7-1.1 1.5-.4 1.5-1 1.5c-.5 0-1-.5-1-1 0-.6-.7-1-1.6-1-1.4 0-1.4-.3-.4-1.5s1-1.5-.3-1.5c-.9 0-2.2.7-3 1.5s-1.7 1.1-2 .8c-.8-.7-25.7 7.2-28 9-1.8 1.2-1.8 1.5-.2 7.1.9 3.2 2.6 6.7 3.7 7.8 1.3 1.3 1.7 2.6 1.2 4.1-.3 1.2-.7 2.4-.7 2.7-.3.9 2.4 12.3 4.6 19.5 1.1 3.8 2 7.3 1.9 7.7-.1.5.4.8 1.1.8 2.1 0 12.4-16.1 13.2-20.8.6-3.9 1.6-4.8 4.7-4.3.7.1 6.8-7.3 6.8-8.3 0-1.4-2.9-.4-3.3 1.1-.4 1.4-.5 1.2-.6-.5 0-1.2-.5-2.2-1.1-2.2-1.8 0-3.2-4-2-5.5.7-.8.9-1.8.7-2.3-.3-.4-.3-1.3.1-1.9.9-1.4 6.7-4.3 8.7-4.3.8 0 1.5-.9 1.5-2s-.7-2-1.4-2c-1.2 0-1.3-.6-.5-3 1.2-3.4 1-3.3 4.3-2 1.4.5 2.6 1.6 2.6 2.4 0 .9.9 2 2 2.6s1.7 1.6 1.4 2.2c-.4.7-.3.8.5.4.6-.4.9-1.2.6-1.7-.4-.5.1-.9.9-.9.9 0 1.6-.4 1.6-.9s.6-1.6 1.3-2.3c2.2-2.3 6.7-8.6 6.7-9.4 0-.4.7-1.6 1.7-2.6.9-1 1.4-1.7 1.2-1.7-.2.1-2.4.7-4.9 1.5M351.4 160.4c-4.9 5.2-11.9 15-11.6 16.5.2.8-.1 1-.9.5-.7-.4-1-.3-.6.4 1.1 1.7-.4 4.2-2.4 4.2-1.1 0-2.3.8-2.6 1.7-.4 1-1.2 2.2-1.9 2.8-2.9 2.5-13.5 17.6-12.9 18.5.4.6.2.9-.3.8-.6-.2-4.6 4.6-9.1 10.5-4.6 6.1-7.3 10.6-6.3 10.3.9-.3 11.4-2.8 23.2-5.7 29.1-7 52.3-12.8 52.8-13.4.9-.9-2.2-8.8-4.2-10.7-1.1-1-2.1-2.9-2.1-4.1-.2-3.5-12.2-28.5-15.3-32.1-1-1-1.6-2.1-1.4-2.4 1-1.9-1.7-.5-4.4 2.2M280.8 186.9c-4.1 11.9-12.6 35.1-14.8 40.5-1.1 2.7-1.8 5.2-1.5 5.4.4.4 5.7-.4 22.7-3.4l8.8-1.6-.6-3.6c-.3-2.1-1.7-8-3.1-13.2-1.3-5.2-3.3-13.1-4.4-17.5s-2.3-8.7-2.6-9.5-.7-2.1-.9-2.8c-.5-2.6-.9-1.9-3.6 5.7M234.8 213.2c-.3 2.3-.6 11.3-.7 19.8l-.1 15.5 5.7 7.2c3.9 4.8 6.1 6.9 6.9 6.2.6-.5 3.5-5.5 6.4-11.1 2.9-5.7 6-11.1 6.8-12.1 1.9-2.1.7-2.2-4.8-.2-2.4.8-4.5 1.3-4.7 1.1s1.9-1.2 4.7-2.2c2.7-1 5-2.3 5-2.9 0-1.2-12.8-14-13.4-13.4-.2.2-2.8 5.1-5.9 10.9s-5.7 9.8-5.7 9c0-.9.6-2.4 1.4-3.5.7-1.1 3.2-5.6 5.5-9.9l4.2-7.9-5.4-5.5-5.4-5.4zM286.5 231.1c-3.3.5-9.9 1.6-14.6 2.5l-8.6 1.6-.7 7.1c-1.1 13.7-2.8 50.2-2.4 55.2l.3 5 5.7-11c3.1-6.1 8-15.5 11-21 2.9-5.5 7.8-14.8 10.8-20.7s5.6-10.5 5.8-10.3c.4.4-3.2 7.6-16.3 33-4.8 9.3-10.3 20.1-12.2 24-1.9 3.8-4 7.9-4.5 9-.9 1.5-.6 2.2 1.2 3.5 4.4 3 35.5 21 36.3 21 .4 0 .6-11.4.3-25.3-.3-13.8-.6-35.5-.6-48.1 0-20.4-.2-22.7-1.5-21.6-1.4 1.1-1.4 1-.5-1.4.5-1.5 1-2.9 1-3.2 0-.5-3.3-.3-10.5.7M253.8 252c-5.9 11.5-6.5 13.3-5.7 16.2.9 3.5 7.5 26.5 8.8 30.8.9 3 1.6-4.4 3.1-34 .6-11.3 1.3-21.7 1.6-23.3 1.1-5.5-1.3-2.4-7.8 10.3M230.6 252.8c-1.9 4.5-4.4 11.4-5.9 16.4-.6 2.1-1.5 3.8-1.9 3.8s-.8.9-.8 2.1c0 2 .1 2 4.7-.5 2.5-1.5 4.8-2.4 5-2.2.3.2-1.9 1.7-4.6 3.3-3 1.6-5 3.4-4.9 4.2.3 1.6 25.9 21.1 31.6 24 2.3 1.2 2.3 1.2 1.6-2.6-.5-3-5.6-22.1-9.1-34.6-.7-2.2-.6-2.2-5.4.9-2.3 1.4-4.3 2.4-4.5 2.2-.2-.3 1.4-1.5 3.6-2.7s4-2.5 4-2.9-2.6-3.9-5.9-7.9l-5.9-7.2zM218.2 288.2c-1.1 3.5-2.5 9.3-3.2 13-1.6 7.9-3.5 9.6-3.5 3.2 0-2.4-.4-4.3-1-4.1-1.6.3-1.4 17.7.3 21.2 3.2 6.8 5.9 11.7 6.3 11.5.2-.1 1.2.2 2.1.5 3.4 1.3 3.7 0 1.4-6.8-1.2-3.7-1.9-6.7-1.4-6.7.4 0 .8.5.8 1 0 .6 1 3.2 2.2 5.8l2.3 4.7.6-3c.6-2.5.7-2.3.8 1.7.1 4.6.2 4.7 3.9 5.7 2 .6 4.3 1.1 5 1.1.6 0 1.2.4 1.2 1 0 .5.7.7 1.5.3 1-.3 1.5-.1 1.3.7-.2.7.3 1.5.9 1.7 1.9.7 0-4-6.4-15.3-3-5.4-6.1-10.9-6.7-12.1-.6-1.3-1.5-2.3-2.1-2.3-2.1 0-9.5-3.3-9.5-4.3 0-.6.4-.6 1.3.1.6.5 2.9 1.5 5.1 2l3.8 1.1-.7-4.7c-.3-2.6-1.5-8.1-2.6-12.4-2.2-8.9-2.2-8.8-.9-8.8.6 0 1 .7 1 1.5 0 1.5 5.1 23.7 5.6 24.3.4.6 23.8-2 25.2-2.7.8-.5-1.6-2.8-7-6.6-4.6-3.3-12-8.8-16.5-12.2-4.6-3.5-8.5-6.3-8.7-6.3-.3 0-1.4 2.8-2.4 6.2"/><path d="M248.5 309c-2.7.5-8.5 1.1-12.7 1.5-4.5.4-7.8 1.1-7.8 1.7 0 1 2.5 5.5 12.9 23.5 2 3.5 3.9 6.3 4.3 6.3.3 0 1.1-1.2 1.7-2.8 1-2.4 1-2.3.5 1.3l-.5 4.1 4.8 1.2c2.6.6 6.5 1.4 8.7 1.8 3.7.6 3.8.6 3.1-1.7-.3-1.3-.9-3.2-1.2-4.2-.2-.9-.9-1.5-1.4-1.2-.5.4-.9-.1-.9-1 0-1.1.7-1.5 2.3-1.3 1.8.2 2.3 1 2.5 4.3.4 6.4.8 7 3.5 5.2 1.2-.8 6.7-3.8 12.2-6.7s11.5-6.2 13.3-7.3l3.3-1.9-3.3-2.2c-4-2.7-33.5-19.6-34.1-19.6-.4 0 2.1 15.1 3.8 23.3.4 1.7.5 2.9.1 2.6-.3-.3-1.7-5.8-3-12.2-1.4-6.4-3-12.6-3.6-13.7-1.2-2.2-1.1-2.1-8.5-1M294.5 335.1c-8.7 4.5-25.5 14.1-26 14.9-.3.4 1.9 2.6 4.8 4.8 2.9 2.3 6.3 5.3 7.7 6.7 1.3 1.4 3.3 2.5 4.5 2.5 1.3 0 2.7 1 3.5 2.5 1.9 3.6 2.4 2.4 6-15.4 1.7-8.4 3.4-15.9 3.7-16.7.6-1.7.7-1.8-4.2.7M248.9 347.2c-.1.2-.3 1.4-.4 2.8-.2 1.4-1.8 7.8-3.5 14.3s-3 12.5-2.8 13.5c.2 1.1 2.5-1.2 7-7 9.5-12.3 13.9-18.9 13.5-20.2-.2-.6-2.3-1.4-4.8-1.8-2.4-.4-5.4-1-6.6-1.3-1.3-.3-2.4-.4-2.4-.3M261 357c-.6 1.1-4.9 7-9.6 13.2-5.2 6.8-8.2 11.8-7.9 12.7.8 2 8.8 12 9.7 12.1.7 0 1.9-3.7 3.7-11.8.7-3.6.7-4.2-.5-3.8-.7.3-1.6.1-2-.5-.8-1.3-.1-2 2.2-2.3 1.9-.3 5.1-9.1 6.1-16.9.6-5 0-6-1.7-2.7M208.6 383.1c-3.8 7.4-8.3 16.1-10.1 19.4s-3.6 7.1-4 8.3c-.4 1.3-2.9 6-5.6 10.5-4.7 7.7-5.6 9.7-4.3 9.7.3 0 6.3-3.7 13.2-8.3 7-4.6 13.4-8.7 14.2-9.1 3.8-2-4.7 4.3-16.4 12.2-15 10-15.2 9.4 4 10.8 17.6 1.2 16.6 1.3 17.6-2.1.4-1.7.8-8 .7-14 0-6.1.3-19.4.7-29.8.6-16.6.5-18.7-.9-18.7-.8 0-1.7-.5-1.9-1.1s-3.5 4.9-7.2 12.2M227 377.5c-.1 3.5-.2 3.7-1.1 1.7-.5-1.3-1.3-2-1.9-1.7-.5.3-1 0-1.1-.7 0-.7-.5 0-1 1.7-1.3 4.3-2.3 23-1.4 25.1.5 1.1.7 2.3.6 2.7-.5 2.6 3-.9 7.5-7.2 8.7-12.3 10-12.4 1.6-.1-2.5 3.7-3.9 6.6-3.2 6.8 2.1.7 7-2 7-3.9 0-1 .9-4.2 2-7.1 2.2-6 2.4-7.2 1-6.3s-1.2-.2.6-3c1.6-2.4 1.5-2.4-1.3-1.6-7.7 2.4-7.7 2.4-9.5 10.2l-1.8 7.4.4-8c.2-5.9.9-9.1 2.4-12 2.3-4.1 2.9-7 1.3-6.1-.5.4-1.2 0-1.4-.6-.3-.7-.6.5-.7 2.7M240.5 385.5c-.4 1.1-1.1 3.1-1.7 4.5-1.4 3.5-3.7 12.4-3.3 12.9.6.6 15.9-5.5 16.2-6.5.1-.5-2.2-3.6-5.1-6.9-4.8-5.3-5.5-5.8-6.1-4M502.6 607.7c-1.7 13.9-1.8 16.3-.8 16.3.5 0 1.5-.7 2.2-1.5s1.7-1.5 2.2-1.5c1.9 0 21.6-15.5 20.5-16.1-.7-.4-6.2-.9-12.3-1.3l-11.2-.7zM803.6 698.7c.9 2.1 1.9 4.9 2.3 6.3s1.9 5.3 3.5 8.7c2.6 5.5 3.2 6.1 5.8 6.1 2.1-.1 3-.7 3.4-2.5.4-1.2 1.2-2.3 2-2.3s1.5-.5 1.5-1c.1-.6.2-1.6.3-2.3 0-.6 1.2-1.3 2.5-1.5 2.2-.3 2.2-.4.5-1.6-1.1-.7-5-3-8.9-5.1-3.8-2.1-8.4-4.9-10.1-6.1-4.2-3.3-4.7-3-2.8 1.3"/></svg>