<svg xmlns="http://www.w3.org/2000/svg" width="1706.667" height="960" viewBox="0 0 1280 720"><path d="M0 360v360h728.9l1.6-3c.8-1.6 1.5-3.4 1.5-4.1 0-.6 1.5-4.4 3.4-8.3 1.8-3.9 4.1-9.7 5.1-12.9 2-6.8 2.8-7.2 1.4-.7-.6 2.5-1.3 5.8-1.6 7.5-.3 1.6-1.3 3.7-2.3 4.5s-2.8 4.2-3.9 7.5-2.3 6.8-2.6 7.7c-.6 1.6.1 1.8 7.2 1.8 6.9 0 8-.3 9.3-2.1 4.7-6.8 8.8-12 13.3-16.7 5-5.1 7.1-6.4 6.2-4-.5 1.3 2.1 5.5 2.9 4.7 1.1-1.1-3.1-7.4-5.4-8l-2.5-.7 2.5-.1c1.7-.1 2.9-1 3.8-2.9 1.4-3 4.8-15.6 6.4-24.2.6-3 1.3-4.9 1.6-4.2.4 1.2-1.7 11.9-3.8 19.7-2.1 7.6-2.2 11.6-.4 13.6.9 1 2 1.9 2.4 1.9.9 0 17.2 9.8 18.5 11.1 3 3 4.9-1.7 2.1-5.7-.8-1.1-1.6-3.4-1.9-5-.3-1.7-1-4.1-1.6-5.3-.7-1.1-.8-2.1-.3-2.1s1.5 1.5 2.2 3.3c.6 1.7 1.9 5 2.8 7.1 1.6 3.7 1.7 3.8 2.3 1.5.6-1.9.7-1.6.8 1.6.2 6.6 1 8.1 6.2 11.7 2.7 1.8 4.9 3.6 4.9 4 0 .5 105.5.8 234.5.8H1280V0H0zM654.4 54.9c1.2 1 4.1 2.9 6.6 4.2s13.4 7.7 24.2 14.1c10.9 6.5 20.1 11.8 20.6 11.8s2 .9 3.3 2.1c1.3 1.1 6.1 4.3 10.6 7 12.3 7.4 10.9 7.6-1.9.3-12.4-7.1-14.1-7.4-28.3-5.3-7 1-45.1 5.9-46 5.9-1.5 0-.1 2 1.8 2.6 1.2.4 7.3 3.1 13.5 6 6.3 3 11.5 5.4 11.8 5.4.4 0 9.3 3.9 16 7.1 4.5 2.1 7.4 2.4 7.4.8 0-.6 1.6-4.5 3.5-8.6s4.1-9.9 4.9-12.9c.8-3.1 1.8-5.9 2.2-6.2 1.4-1.3-.6 5.8-4.2 15-2 5.1-3.8 10.7-4.1 12.3l-.5 3.1 19.9 2.3c27.3 3.2 47.1 6.2 37.8 5.7-13.2-.7-39-3.7-45.6-5.2-3.7-.9-7.8-1.4-9.2-1.2-2.5.3-1.7 1.6 16.3 28.6 10.4 15.6 20.3 30.1 22 32.2 1.6 2.1 3 4.3 3 4.9 0 3.4 3.4-.3 10.9-11.7 13.8-20.9 14.9-22.7 19.1-30.4 2.3-4 5.1-8.6 6.3-10.1 1.8-2.4 1.9-2.9.7-3.7-.8-.5-2.8-1-4.5-1.1-1.6-.1-4.3-.5-6-1-2.2-.6-1.2-.7 3.3-.4 7 .5 7.4 0 4.2-5.3-1.1-1.7-1.6-3.2-1.2-3.2.5 0 1.8 1.8 3.1 4 2.7 4.8 3.5 5.4 5.3 3.8 5.3-4.8 6.9-5.8 3.4-2l-4 4.2 3.2 3.3c1.8 1.8 3.2 3.8 3.2 4.5s.5 1.2 1.1 1.2c.5 0 .7.5.4 1-.4.6-.1 1.7.5 2.5.7.8.8 1.5.3 1.5s-1.7-1.7-2.6-3.9c-.9-2.1-2.7-4.7-3.8-5.7l-2.2-1.9.6 4.5c.3 2.5 1.2 7.6 2.1 11.5.9 3.8 1.6 8.9 1.6 11.3s1.4 14.5 3 26.9c1.7 12.4 3 23 3 23.6 0 .7.7.3 1.5-.7 1.4-1.9 1.5-1.9 1.5.6q0 2.7 2.1 3.3c1.1.4 1.8.9 1.6 1.2-.3.2-1.5-.1-2.7-.7s-2.5-.9-2.8-.5c-.4.4-1 4.3-1.3 8.8l-.6 8.2-.1-9.3c-.2-8.5-.4-9.4-2.2-9.9-1.1-.3-2-.9-2-1.3 0-.5.8-.6 1.8-.3 1.7.4 1.8 0 1.1-5.4-.5-3.2-1.3-10.1-1.9-15.3-1.1-10.1-3.2-25.1-5.6-39-.8-4.7-1.4-10-1.4-11.8 0-1.9-.4-3.2-.9-3-1.1.4-12.1 16.8-12.1 18 0 .7-11.1 17.8-21.1 32.6-1.6 2.4-2.7 4.8-2.3 5.4.4.5 2.2 1.7 4.1 2.5s3.3 1.6 3 1.9-2-.1-3.8-.8c-5.2-2.1-11.9-2.3-11.9-.4s-1.7 2.1-2.2.4c-.5-1.5-1.9-1.3-64.3 7.8-9.9 1.4-18.2 2.8-18.4 2.9-.2.2 1.1 2.2 2.8 4.3 4.2 5.3 3.9 6-.6 1.7-4.5-4.2-5.8-4.4-4.8-.8 1.2 5.2 4.1 116.3 3 115.1-.9-.9-2.5-52-2.4-76.4 0-19.9-1.3-36.8-3.1-38.8-.5-.5-2 3-3.5 7.7-2.1 7.1-10.8 27.3-14.5 33.9-3.3 5.8-12.9 25-14.2 28.3-1.5 3.8-6.6 15.3-7.4 16.7-.2.3 1.4 1.9 3.6 3.5 5.3 3.7 5.1 5-.2 1.6-2.4-1.4-4.4-2.6-4.6-2.5-1.2.6-3.1 3.4-5 7.2-2.5 5.2-7.2 11.9-7.2 10.3 0-.6.8-2.1 1.8-3.4s2.8-4.8 4.2-7.7c1.3-2.8 2.8-5.2 3.4-5.2s.4-.6-.5-1.3c-1.9-1.4-36-.4-41.8 1.3-2 .5-3.9.6-4.5.1-1.3-1.1-27.5-6.5-28.1-5.9-1.4 1.4 5 13.1 10.7 19.3 4.8 5.4 7.7 4.4 12-4.3 3-6.2 3.3-4.4.3 2.3-3.1 7.1-3.1 7.5 0 7.5 2.9 0 8.5 2.6 8.5 3.9 0 .4 1.1 1.3 2.4 1.9s3.2 2.4 4.1 3.9c.9 1.6 2.7 3.4 3.9 3.9 1.1.5 2 1.5 1.9 2.2-.2.6.4.9 1.1.6 1.5-.6 0-5-6.1-18.2-1.3-3-2.2-5.6-2-5.8.3-.3 3.1 4.8 6.2 11.3 3.2 6.5 6.2 12.4 6.8 13.1.7.9 2.1-.4 5.4-5.3 4.5-6.7 6.9-9 3.5-3.3-6.7 11.2-6.6 11.9.5 14.2l4.8 1.5-5-.3c-2.7-.2-5.6-.1-6.2.1-1 .4-1.3 4.4-1.3 15.4V374h2.6q2.55 0 1.8 1.2c-.4.7.5.2 1.8-1.2 1.4-1.4 2.4-2.8 2.1-3.2-.2-.4.3-.5 1.1-.2 1.1.4 1.6 0 1.6-1 0-.9.5-1.6 1.1-1.6 1.5 0 19.9-17.2 19.9-18.6 0-.7-3.3-1.9-7.7-2.8-7.2-1.4-4.5-1.4 4.6 0l3.8.6-.4-5.3c-.3-4-.2-5 .6-3.9.6.8 1.1 2.7 1.1 4.2s.5 3 1 3.3c.6.4 3.8-.7 7.3-2.3 3.4-1.6 10.1-4.8 14.8-7.1 4.8-2.2 9.1-4.1 9.7-4.1.5 0 1.5-.6 2.1-1.3.8-1 .5-1.8-1.2-3.3-2.2-1.9-14.9-10.7-25.9-17.9-3.2-2-5.8-3.9-5.8-4.2 0-.9 9.1 4.7 21.7 13.4 6.7 4.5 12.9 8.3 13.7 8.3s1.8.4 2.1 1c.4.6 1.8.4 3.8-.7 5.1-2.6 68.5-28 76.7-30.7 6.6-2.1 7.1-2.8 7.9-10.2l.8-6.9.2 6.6c.1 5.3.5 6.8 1.9 7.5.9.4 7.8 1.1 15.2 1.6 7.4.4 16.1 1.1 19.4 1.4l5.9.6-.7-2.8c-.6-2.7-.5-2.8.8-1.1 1.1 1.5 1.8 1.6 3.4.8 1.1-.6 2.3-1.6 2.5-2.3.3-.8.6-.6.6.4.1 1-.3 1.8-.8 1.8-1.8 0-2.1 3.1-.3 3.8 2.2.9 2.7 4.6.5 3.8-.9-.4-2.2.2-2.9 1.1-1 1.3-1.4 1.4-1.2.4.6-3.4-3.1-1.8-8.7 3.6-9.6 9.3-15.3 14.3-16.2 14.3-.5 0-3.3 2.5-6.3 5.4-3 3-6.5 5.7-7.7 6.1-1.9.4-2.2 1-1.7 3.8l.5 3.2-1.5-2.7-1.6-2.6-16.7 4.4c-9.3 2.4-19 4.9-21.8 5.4-2.7.6-5.5 1.7-6.2 2.6-.6.9-1.7 1.3-2.2.9-1.5-.9-45.1 27.5-45.1 29.4 0 .4 3 1.3 6.6 2 7.6 1.6 18.6 4.9 16.4 5-.8.1-6.8-1.3-13.3-2.9-6.6-1.6-12.3-2.7-12.8-2.4s-.9 1.5-.9 2.7-.5 2.9-1.1 3.7c-.7 1.1-.8.5-.3-2.3.4-2.6.3-3.7-.6-3.7-1 0-1-.3 0-1.5.7-.9 1.1-1.7.9-1.9-.2-.1-2.2-1.6-4.4-3.2s-5.8-4.5-8-6.6c-4.4-4.1-17.6-13.8-18.7-13.8-.9 0-1.3 1.6-3.3 13-1 5.2-2.8 14.7-4.2 21-1.3 6.3-2.6 12.5-2.9 13.7-.5 2.6 1.6 3.1 3.8 1 .7-.7 4.2-3 7.8-5.1 3.6-2.2 10.1-6.2 14.5-9.1 10.7-6.9 12.9-8.1 12.3-6.4-.3 1-17.7 12-34.1 21.6-2.7 1.6-4.5 3.3-4.2 4 .2.7-.1 1.3-.8 1.3-3.4.1-10.4 1.4-22 4.1-7 1.6-14.2 3.1-15.9 3.4s-3.8 1-4.7 1.4c-.9.5-4.3 1.1-7.6 1.5-13.5 1.5-14.8 1.9-13.9 4.8.6 2.2.6 2.3-1.3.5-2-1.7-2.1-1.7-4.2 1.5-1.1 1.8-2.1 2.8-2.1 2.1 0-.6.5-1.5 1-1.8.6-.3 1-1.7 1-2.9 0-1.9-.8-2.6-4.2-3.4-5.6-1.4-22.8-3.5-23.5-2.9-1.4 1.4 21.6 26.7 26.5 29.2 1.9.9 3.1 1.9 2.8 2.2s-2.1-.4-4.1-1.6c-2-1.1-4.3-2.1-5.1-2.1s-1.4-.4-1.4-.9-1.5-2.5-3.2-4.4c-1.8-1.9-5.8-6.6-8.8-10.5-7.9-10.2-8.3-10.1-7.6 1 .4 5.1.9 11.1 1.3 13.3.3 2.2.3 3.7-.1 3.4-.9-.9-3.7-21.7-3.2-24.4.2-1.3-.1-3.1-.8-4.1-1.3-1.7-2.1-1.7-16.5-.2-8.4.9-15.5 1.8-15.8 2.1-.6.6 4.2 7.2 12.5 17.1 3.4 4.1 6.2 7.8 6.2 8.2 0 .6 6.8 9 11.3 13.9 1 1.1 2.8 3.7 3.9 5.8 1 2.2 2.2 3.6 2.6 3.3.3-.4.5-3 .3-5.9-.1-2.8-.1-5 .2-4.7.4.4 1.6 9.1 1.7 12.2 0 .7 4.3.4 9.5-.6 1.7-.3.9.1-1.7 1-3.6 1.1-4.8 2-4.8 3.5 0 1.7 20.3 23.9 22 23.9.3 0 1.4-1.5 2.4-3.2.9-1.8 1.4-2.4 1-1.3s-.9 3.2-1.2 4.8c-.5 2.9-3.8 3.9-4.4 1.3-.2-.8-5.2-6.5-11.3-12.7l-10.9-11.2-3.1 1.7-3 1.7 2.8-2.6c2.7-2.6 3.4-3.7 2-3.3-.5.1-1.9-.2-3.2-.6-1.6-.6-2-1.1-1.1-1.6 1.8-1.1-.6-5.2-8.7-14.8-3.7-4.4-8.8-10.8-11.3-14.2-4.9-6.7-12.2-15-13.2-15-.8 0 .5 4.8 2 7.6.5 1 1.2 3.8 1.6 6.1.3 2.3.9 5 1.4 6 1.3 2.5 2.9 8.1 3.6 12.8l.7 4-1.5-2.8c-.9-1.6-2.5-5.9-3.6-9.5-2.9-9.7-3.7-10.4-3.9-3.2-.1 3.7.4 6.9 1.1 7.7 1.1 1.3-.5 1.4-12.1.8-10.5-.6-13.5-.5-14.1.5-.7 1.1-1.2 1-2.5-.3-1.3-1.4-3.6-1.7-11.6-1.7-5.4 0-9.9.2-9.9.4 0 .5 14.2 9.7 19.6 12.7l4.1 2.2 10.7-5.2c5.9-3 10.9-5.1 11.2-4.8s-3.5 2.5-8.5 4.9c-8.8 4.2-10.5 6-6.3 6.6 1.1.2 2.6 1 3.4 1.9 1.2 1.5 1 1.6-1.2.8-2.5-.8-5.9-1.2-14-1.6-3.8-.2-4-.3-1.2-.6 1.7-.2 3.2-.8 3.2-1.3s-2.1-2.1-4.7-3.6c-2.7-1.5-8.1-4.6-12.1-7-4.9-2.8-8.2-4.1-9.8-3.8s-2.4 0-2.4-1c0-1.5-1.2-1.8-11.3-3.1l-4.9-.7.7-3.6c.4-2 1.1-4.2 1.5-4.7 1.4-1.7 7.8-17.4 9.5-23.3.9-3 1.3-5.8.8-6.3-1.2-1.2-18.6 1.2-19.9 2.7-.6.8-1.4 1.1-1.7.7-.4-.3-.7-.1-.7.5 0 .7.4 1.2.9 1.2s1.1 2.2 1.5 5 1.2 5 1.9 5.1q1.35 0 0 .6c-.9.3-1.3 2.8-1.4 7.1l-.1 6.7-1.3-9c-.7-5-1.8-11.1-2.5-13.6-.8-3.3-1.1-12.4-.8-30.3.1-14.1 0-25.6-.4-25.6-.5 0-.8-.7-.8-1.5s-.4-1.5-.9-1.5c-1.3 0-2.8-5-2.5-8.3.2-1.5 0-2.7-.5-2.7-.4 0-.8-2.4-.9-5.3 0-2.8-.2-6.1-.2-7.2-.3-4.8.3-10.5 1.1-10.5.5 0 .9-2.1 1-4.8l.1-4.7 1.6 4.7c.9 2.7 2 4.8 2.5 4.8 4.7 0 5.7-.1 5.3-.9-.3-.5.1-1.1.9-1.5 2.3-.9 1.8-2.6-3-10.1-4.3-6.6-3.1-6 3 1.5 1.1 1.4 3.1 3.4 4.4 4.5l2.4 2-.6-3.8c-.3-2-.2-3.7.4-3.7.5 0 .9.4.9 1 0 .5.6.7 1.3.5.6-.3 3.8.8 7.1 2.4l5.8 2.9-3-2.9c-3.2-3.2-10.2-8.2-10.2-7.3 0 1.1-5.7-2.7-8.2-5.5-2.6-2.9-12.4-8.7-14-8.3-.5.1-.8-.9-.8-2.3 0-1.6.6-2.5 1.5-2.5.8 0 1.5.9 1.5 1.9 0 1.1 1.2 2.6 2.8 3.4 6.2 3.2 9.2 5.3 9.6 6.7.2.8.4-1.9.5-6s.6-9.3 1-11.5c.7-3.3.9-2.4 1.1 5.5.1 5.2.2 9.9.1 10.4-.1.4 1.1.6 2.6.2 2.6-.5 2.7-.5.6.6-1.3.6-2.3 1.5-2.3 1.9 0 1.1 3 3.9 4.2 3.9.6 0 3.7 1.8 7 4 7.1 4.9 10.8 6.5 10.8 4.7 0-.6-.7-3.9-1.4-7.2-.8-3.3-1.3-6.1-1.2-6.2.1-.2 1.7 2.9 3.5 6.7 3 6.4 7.2 11 10 11 .5 0 1.4.6 1.8 1.3.4.8 2.3 1.7 4.1 2 2.6.5 3.2.3 3.3-1.1.1-.9.3-3.1.5-4.9.5-4.2-1.2-5.1-3.7-1.9-1.1 1.4-2.6 2.6-3.4 2.6-.7 0 .2-1.6 2-3.6 1.9-2 3.2-4.1 2.9-4.8-.2-.6-2.3-2.2-4.5-3.4-4.4-2.5-15.9-11-15.9-11.8 0-.2 3.9 2.2 8.8 5.4 9.9 6.7 11.9 7.6 12.6 5.9.3-.9.7-.9 1.4.1.7 1.1 1.4 1.1 3.8.1 1.6-.7 3.7-2 4.7-2.8 1.6-1.3 1.7-1.3 1.2 0-.3.9-2.1 2.3-4 3.2s-3.5 2.2-3.5 2.9 4.3 3.5 9.5 6.2c5.2 2.8 9.3 5.1 9.1 5.3s-2.1-.5-4.2-1.6c-7.3-3.7-13.6-6.2-14.1-5.7-.5.4 2.2 6.1 9 19.1 1.7 3.3 3.5 6.9 4.1 8.1.9 1.9 1.1 1.9 4.1-1.5 1.8-2 4-5.3 5-7.4.9-2 2.1-3.7 2.5-3.7s-1.5 4.4-4.2 9.7l-4.9 9.8 4.2.8c2.8.6 5.7.5 8.3-.3 2.8-.8 4.1-.9 4.4-.2.4 1.3 4.9-.4 7.2-2.6 1.3-1.3 1.3-1.4-.5-.7-1.1.4-2.9.9-4 1.2-1.8.4-1.8.3-.3-.6 4.7-3 14.1-13.8 13.2-15.2-.3-.5.2-.9 1-.9.9 0 1.6-.5 1.6-1 0-.9-4.2-1.2-20.6-1.5-3.3-.1-5.9-.8-7.7-2.1-3.3-2.4-3.6-4-.2-1.8 1.3.8 2.9 1.3 3.5.9.5-.3 1-.1 1 .4 0 1.2 23.6 1.6 26.4.5 1.8-.7 2.1-4 .6-7.8-1.2-3.4-2.2-12.6-1.1-10.6.5.8 1.2 3.3 1.6 5.5s1.1 4.8 1.6 5.8c1 1.7 1.1 1.7 3.6-.3 1.4-1.1 3.1-2 3.8-2 1.5 0 11.5-10.7 11.5-12.2 0-.6.3-.9.6-.6s-.2 2.3-1 4.3c-.9 2.1-1.6 4-1.6 4.4 0 .3 2 .5 4.6.3 2.5-.2 6.6.1 9.1.7 2.5.7 4.7 1 5 .7 1-.9-9.4-19.1-11.2-19.5-2-.3-6.5.9-16.5 4.5-6.6 2.4-12.1 3.3-9 1.4.9-.5 5.9-2.3 11.2-4 9.2-3 15-5.9 11.9-6-1.5 0-10-5.9-14.3-9.8-2.2-2-3-2.3-4.2-1.3-2.1 1.7-5.9 13.5-7.1 21.5-.5 3.6-.9 4-2.6 2.4-.8-.8-2.8-1.9-4.4-2.6-1.7-.7-5.8-3.1-9-5.2-3.3-2.2-6.9-4-8-4-1.9 0-2-.8-2.3-14.3-.1-7.8-.5-20.3-.9-27.7l-.6-13.5-2.3 5c-2.8 6.2-3 4.7-.4-3 1.1-3.2 2-6 2-6.3s-7.5-.3-16.7.1c-10.1.3-15 .2-12.3-.3 2.5-.5 9.5-.9 15.7-.9 6.4-.1 11.4-.5 11.8-1.1s-.8-2.8-2.5-5.1c-3.6-4.4-14.6-15.2-16.2-15.8-1.1-.4-6.5 5.1-10.2 10.3-1.1 1.5-4.2 4.6-6.9 6.9l-5 4.1.8-7.9c.4-4.4 1.7-12.1 3-17 1.3-5 2.9-11.8 3.5-15.3.7-3.4 1.6-6.2 2-6.2.3 0-.6 5.7-2.2 12.7-3.3 14.5-5.9 29.5-5.4 30 .2.3 4.9-4.1 10.4-9.7l10.1-10.2.5-18.1c.3-10 .8-26 1.2-35.5.4-11.6.2-17.2-.5-17.2-.5 0-1.3 1.6-1.7 3.5-.3 1.9-1 3.7-1.4 4s-.3-1.2.2-3.3c1.8-6.6 2.1-12.2.8-12.2-.7 0-.1-1.1 1.4-2.5 1.4-1.3 2.6-3.1 2.6-4 0-.8.5-1.5 1-1.5.6 0 1 .5 1 1.1 0 .8.6.7 1.8-.2 1.4-1.1 1.3-.9-.2.9-2.5 2.9-1.9 3.3 2.9 2.1 6.2-1.4 10.1-2 15.8-2.3 2.9-.2 9.7-.9 15.1-1.5 5.5-.6 10.1-.9 10.3-.7.3.2-2.2.7-5.4 1.1-3.2.3-8 1-10.8 1.5-2.7.5-8.4 1.2-12.5 1.5-15.3 1.3-20.6 4.2-19 10.5.3 1.4.5 11.8.4 23.2-.2 12 .1 21 .7 21.3 1.4.9 1.1 3.5-.4 3.5-1.1 0-1.6 2.6-2 10.2-.4 5.6-.4 10.4-.2 10.6.6.7 4.1-3.7 6.3-7.8.9-1.9 3.8-6.7 6.3-10.5 2.5-3.9 5.8-9 7.3-11.5 1.4-2.5 6.5-10.4 11.1-17.5 4.7-7.2 8.8-13.7 9.2-14.5.3-.8 1.7-3 3-4.7 3-4 7.3-13.2 7.3-15.5 0-1 .9-2.2 1.9-2.7 2.1-1.2 6.1-8.7 6.1-11.5 0-1 .9-3.1 2.1-4.7 1.1-1.6 1.8-2.9 1.4-2.9-.3 0 .1-1 .8-2.3.8-1.2 2.5-5.1 3.7-8.6 1.3-3.6 2.5-6 2.7-5.4.3.7-.5 3.2-1.6 5.7-1.2 2.5-2.1 4.7-2.1 4.9 0 .3-.8 2.2-1.7 4.3-.9 2.2-1.8 5-2 6.4s-1.3 4-2.4 5.8c-1 1.8-1.9 3.5-1.9 3.8 0 .7 1.8.4 4.7-.8 1.5-.6 3.3-1.2 4-1.4.6-.1 4.9-2.1 9.5-4.4s17.5-8.2 28.8-13.2c24.1-10.6 32-14.5 32-15.7 0-.5 1.6-1.1 3.5-1.3 2.7-.3 3.4-.1 3 1-.7 1.8 3.1 3.2 21.5 8.2 8.5 2.2 17.2 4.7 19.3 5.5 5.4 2.1 6.2 1.9 8.1-2.3l1.6-3.7-.4 4.2c-.3 3.3-.1 4.3 1.1 4.3.8 0 11.6-1.3 24.1-2.9s25.6-3.3 29.2-3.6c9.1-1 9.8-1.7 4.8-4.5-2.4-1.3-10.4-6.1-17.8-10.8-7.4-4.6-15.7-9.5-18.5-10.9-2.7-1.4-6-3.4-7.2-4.5-1.5-1.4-2.8-1.8-4.3-1.3-1.7.5-2.1.4-1.5-.6.6-.9.4-1.1-.8-.6-.9.3-1.9.2-2.2-.3-1.1-1.8 5.8-1 7.9.9M441 118.3c0 .2-1.8 2.7-4 5.7-2.2 2.9-3.7 5.7-3.4 6.1.3.5-.1.9-.9.9-2.1 0-5.1 4.9-7.2 11.5-2.3 7.6-6.1 16.1-8.6 19.7-1.1 1.5-1.8 3.2-1.5 3.7s-.1 1.4-.9 2.1c-.9.7-1.3 2.1-1 3s-.1 2.3-.9 2.9c-1.2 1-1.4 2.9-1.1 7.9.5 8 .7 9.2 6 33.7q.6 3.15-.3 1.5c-1.4-2.1-6.8-26.7-7.1-32-.1-1.3-.3-1.3-1.4 0-1.2 1.3-6.4 25.4-5.9 27.2.1.5-.2.8-.7.8s-1.1-1-1.3-2.3c-.3-2-.5-1.8-2 1.3-.9 1.9-1.9 4.5-2.3 5.7-.3 1.3-1.1 2.3-1.7 2.3s-.7-.8-.3-1.8c.4-.9 1.2-4.4 2-7.7 1.3-6.5 5.9-20.9 7.5-23.7 1.3-2.4 1.3-4.1-.2-3.2-1.3.8-.5-.7 2.8-5.1 1.2-1.7 2.5-5.2 2.9-7.8.7-4.7 1.7-6.3 5.4-8.9 2.6-1.8 6.7-10.3 8.6-17.8 1.7-6.5 3.1-8.8 11.9-19.8 4.5-5.6 5.6-6.8 5.6-5.9m-52.3 10c-1 .7-5.3 3.6-9.5 6.6s-12 8.1-17.2 11.4c-13.8 8.7-13.9 8.9-5.5 8.3 13.6-1 36.9-1.7 36.3-1-.4.3-5.5 1-11.4 1.5-6.9.5-11 1.3-11.6 2.1-.6 1-1 1-1.7-.2-.6-.8-1.2-1.2-1.5-.9s.3 1.5 1.4 2.7 2 2.6 2 3.2.5.8 1 .5c.6-.3 1 .3 1 1.4 0 1.4-.6 2.1-2 2.1-1.5 0-2-.7-2-2.6 0-4.2-3.4-6.4-9.4-6.3-4.8.2-4.9.2-1.6.9 3.1.6 3.2.8.8.9-1.5 0-3.8.6-5.1 1.2l-2.5 1.1 2 4.7c1.2 2.5 2.5 4.8 2.9 4.9.5.2.7.7.4 1.2-.5.8 1.2 5.6 4.5 12.5 1.1 2.2 3.3 7.8 5.1 12.5 5 13.4 3.8 13.1 16.4 3.3 6.1-4.6 12.2-9.6 13.7-11.1 1.5-1.4 3-2.3 3.3-2.1.2.3-3.9 4.1-9.2 8.5-5.3 4.3-11.2 9.3-13.1 11l-3.5 3.1 4.9 1.3c9.7 2.6 7.2 3.6-3.5 1.4-1.6-.4-2.2-.1-1.9.8 1.7 4.4 1.9 6 .9 5.4-.6-.4-1.1-1.5-1.1-2.4-.1-1-.6-.4-1.4 1.3l-1.3 3-.8-3.8c-.8-4.2-1.6-4.4-9.1-2.2-2.7.8-11 3-18.4 4.9s-20.5 5.3-29 7.6-16.1 4.2-16.8 4.2c-.8.1-1.1.9-.8 2 .3 1.3 0 1.8-.7 1.5-.9-.3-1.2 1.7-1 7.7.2 4.4.3 26.4.3 48.8.1 22.5.3 40.8.6 40.8.2 0 2.1-.7 4.1-1.5 5.3-2.2 5.5-1.7.3.8l-4.5 2.2-3.2 15.5c-1.7 8.5-3.5 17-3.9 18.8l-.6 3.2 5-3.2c2.8-1.8 8-5.1 11.6-7.3 6.7-4.1 7.7-5.7 3.8-6.3-3-.5-3-5.5-.1-7.6 1.9-1.3 2.3-1.3 4.1.4 1.3 1.2 1.8 2.5 1.4 3.6-.6 1.4-.1 1.6 3.5 1.1 2.3-.3 4.5-1 4.8-1.5s1.7-1.5 3.1-2.2 4.3-2.7 6.4-4.4c3.9-3 3.9-3 3.3-.6-.3 1.3-.1 3.1.6 3.9.8 1.2.6 1.1-.9-.1-2-1.7-2.4-1.5-14 5.5-20.5 12.6-30.4 19-30.4 19.7 0 .4 4.8 1.7 10.8 2.9 26.9 5.6 44.3 9.6 43.4 9.9-.5.1-6.2-.9-12.8-2.3-9.2-2-32.6-6.8-42.7-8.8-1.2-.2-9.3 30-8.3 31 .3.3 8.8 1.2 18.8 1.9l18.3 1.3-16.5-.5c-9.1-.3-17.5-.8-18.7-1.1-1.6-.4-2.3-.1-2.3 1 0 .9-.4 1.9-1 2.2-.5.3-.7 0-.4-.8.8-2.2-1.4-3.3-12.1-6.2-5.5-1.5-11-3.1-12.2-3.6-1.8-.7-2.3-.5-2.3.7 0 1.4-.3 1.4-1.5.4s-2.1-1-4.1-.1c-1.7.7-2.3.8-1.9 0 .4-.5 1.8-1.4 3.1-2l2.5-.9-3.9-5.2c-2.1-2.8-4.3-5.3-4.9-5.5-.8-.3-4 8.7-4.7 13.4-.1.7-.6 1.6-1 2-.9.8-.6-.8 1.2-8 1.3-5.1.1-4.7-2.1.8-1.1 2.5-2.2 4.5-2.7 4.5-.4 0 .8-3 2.6-6.8 3.8-7.6 4-8.4 1.9-7.6-.8.4-1.5.3-1.5 0 0-.4 1.4-1.2 3-1.7 2.3-.9 3-1.7 3-3.7 0-2.2.2-2.4 1.1-1.2.8 1.1 1.2 1.2 1.6.3.5-1.5 14-20.3 15.5-21.8 2-2-2.1 5.2-6.4 11-6.5 9-9.8 14.3-9.8 15.8s5.6 10.3 7.1 11.3c1.4.8 3.8-5.7 5.5-14.5.8-4.1 2.3-10.3 3.4-13.8 2.3-7.6 2.4-14.9.2-15.8-.8-.3-4.2-.8-7.5-1.2-5.9-.6-5.9-.6-4.8 1.6 1 1.7.9 3.1-.3 6.4-.8 2.3-2 6.3-2.6 8.9-.9 3.3-1.6 4.5-2.6 4.1-.8-.3-1.4-.1-1.4.5 0 .5-.8 1.2-1.9 1.5-1 .2-3 2.9-4.5 6-3 6.5-3.1 7.1-1.1 6.3.8-.3 1.5-.1 1.5.3 0 .5-.6 1.1-1.4 1.4-1.3.5-1.6 1.7-3.2 11.7-.6 4.2-.6 4.4 1.1 3s1.7-1.3 0 1.3c-1.4 2.2-1.6 3-.6 3.6s.9 1-.3 1.4c-1.1.5-1.5 1.4-1.1 2.9.3 1.3.9 6.3 1.5 11.2.5 5.2 1.5 9.3 2.2 9.8.7.4.9.8.3.8-.7 0-.7.3 0 .8.6.4 3 3.2 5.4 6.2 2.5 3 3.6 4.7 2.5 3.7-1.1-.9-2.7-1.7-3.5-1.7s-1.9-1.4-2.4-3.2c-.6-1.7-1.6-3.4-2.4-3.6-1.2-.4-1.3 1.1-.7 8.7.4 5 1 9.9 1.3 10.8.4.9.2 1.4-.3 1-.6-.3-1 5-1.1 14.1-.1 17.6-.1 17.2-1 17.2-.5 0-.7-2.4-.5-5.2.2-3.9 0-4.9-.7-3.8-1.3 1.8-1.3 1.2-.1-7 1.2-8.1 1.3-26.3.1-31l-.9-3.5-.1 3.3c-.1 1.9-.5 3.1-1.1 2.7-.5-.3-1 .2-1 1.2-.1 2-2.9 7.5-3 5.7 0-.6.5-2.6 1.1-4.3.8-2.3.8-3.6.1-4.3-.8-.8-22.2-3.6-28.9-3.8-.7 0-1.3 1-1.4 2.2v2.3l-.9-2.3c-.8-1.8 1-6.2 10.2-25 6.2-12.5 11.5-22.9 11.8-23.2.6-.6 5.5-14.5 7.2-20.2.9-3.1.7-4.4-1.1-8.1-2.6-5.4-2.7-8.7-.1-12s2.6-3.8-1.4-15.3c-3.1-9.1-5.5-19.9-5.5-24.9 0-1.1.5-5.2 1.1-9 .6-3.9 1-8.1.9-9.5-.1-2 .1-2.2.9-1 .9 1.3 1 1.3 1-.1 0-.8.9-2.5 2-3.7 1.3-1.3 2.2-4.1 2.6-7.9.6-5.9 1-8.7 2.3-15.8.8-4.1 4-11 4.1-8.7 0 .7-.5 2.2-1.1 3.3s-1.5 4.4-2 7.2c-1.3 6.8-2 11.7-1.3 9.4.3-.9 1-1.7 1.5-1.7 1.1 0 1.2 2.3 0 3.5-.4.6-1.1 2.7-1.4 4.8-.5 3.4-.3 4 3 6.5 1.9 1.5 6.3 5 9.7 7.8 3.3 2.8 8.5 6.7 11.3 8.7 6.2 4.3 6.3 4.1 3.5-7.4-1-4.1-3-11.9-4.3-17.4s-2.7-10.2-3.1-10.3c-.5-.2-.8-.8-.8-1.4 0-2-9.1-13.8-10.7-13.8-1.2 0-1.3-.3-.5-1.3 1.3-1.5 2-7.9 2.6-22.7.2-6 0-9.7-.4-8.5-.8 1.9-.9 1.9-.9-.3-.1-1.2.4-2.2.9-2.2.6 0 1-.9 1-2.1 0-1.8 4.7-12.9 5.5-12.9.2 0 .1 1-.2 2.1-.5 1.9.1 1.7 5.3-1.6 8.5-5.4 34.4-23.5 34.4-24 0-.3-2.6-1.8-5.7-3.4-3.2-1.7-5.4-3-4.9-3.1.4 0 3.1 1.1 5.8 2.5 5.1 2.6 7.8 2.2 7.8-1.1 0-.7.6-1.1 1.3-.9 1.2.5 33.7-31.6 33.7-33.4 0-.5-1.6-1.5-3.6-2.1-1.9-.7-3.3-1.4-3.1-1.6.3-.3 2.3.2 4.5 1.1 3 1.2 4.6 1.4 6 .6 1.1-.6 2.2-.8 2.5-.5s6.9-.9 14.7-2.6 14.7-2.9 15.2-2.8c1.1.4-22.9 5.9-28.4 6.6-2.1.2-3.8.7-3.8 1.1.1.8 19.1 11.9 22.9 13.4 3.1 1.2 5.8-.3 32.6-18.2 6.6-4.4 12.5-8 13-8 .6 0 .2.6-.8 1.2m8.1 103.9c-.3 3.7-.9 3.6 12.2 2.5 6.7-.5 6.9-.5 2 .3-3 .5-7.5 1.2-9.9 1.6l-4.3.6.6 4.1c.3 2.3.3 3.7-.1 3-.5-.6-.8 2.3-.7 6.5 0 4.3-.2 12.5-.5 18.4-.4 5.8-.3 10.4.1 10.2.3-.2 2 .8 3.7 2.4 1.7 1.5 4.8 3.6 6.9 4.8 4 2.2 7.1 7.3 7.1 11.4-.1 2.2-.2 2.1-1-.8-.9-2.9-3.1-4.3-4.2-2.5-.2.5-.2.2 0-.5.3-1.5-2.7-7.2-3.9-7.2-.4 0-2.3-1.4-4.1-3-4.2-3.6-5.4-3.7-9.7-.5-4.6 3.4-5.3 3.1-1.1-.4 4.1-3.3 3.8-6-.9-10.9-3.4-3.6-4.6-3.9-5.4-1.5-1.2 3.7-3.7 15.9-3.7 17.6 0 .9-.5 1.5-1 1.1-.6-.3-.7-2-.4-3.7 1.4-7.5 4.7-21.6 6.2-26.7.9-3 1.8-6.1 1.9-6.8.4-1.9 1.4-2.8 1.4-1.2q0 1.35 1.5-.6c2.1-2.8 1.8-1.4-.9 4.8-2.3 5.2-3 7.8-2.7 10.6.1 1.6 7.8 9.2 8.5 8.4 1-.9.6-25.4-.4-29.7-.6-2.9-.5-5.4.7-9.7 1.8-6.5 2.6-7.4 2.1-2.6m631.7 65.2c-1.9 8.2-3.5 15.3-3.5 15.8 0 2.1 10.1-6.1 19.3-15.7 3.5-3.6 3.7-4.2 3.2-8.5-.4-3.4-.3-4 .4-2.3 2 4.4 2.9 13.9 2.2 20.8l-.8 7-.2-8.6c0-4.7-.4-8.9-.8-9.2-.3-.4-2.1.9-4 2.8-1.8 1.9-7.2 6.6-11.9 10.6-6.4 5.4-8.4 7.6-8.1 9 .3 1.1.1 1.7-.4 1.4-.4-.3-1.1.7-1.5 2.2-1 4.6-1.2 5-1.3 1.8-.1-1.7.5-3.7 1.2-4.4 1-1.1.7-1.2-1.3-.6-1.4.4-3.2 1.3-4 2-.8.6-4.1 2.6-7.3 4.4-3.2 1.7-9 5.2-12.9 7.7-6 3.9-6.9 4.8-5.7 5.9 2.5 2.5 23.1 14.5 23.9 14 .5-.3 1.6-4.8 2.5-10 1-5.3 2-9.4 2.2-9.1.2.2-.3 4.5-1.2 9.6-1 5-1.6 9.3-1.4 9.5s3.3-.5 6.9-1.4l6.5-1.8-.2-4.9-.2-4.9 1.5 3.4 1.5 3.5 2.2-3.5c3.1-4.6 11.7-20.7 11.7-21.8 0-.5-1.7-1.3-3.7-1.8-3.7-.9-3.6-1 1.8-.9l5.7.1-1.7 2.5c-2.2 3.2-10.6 19.8-11.5 22.7-.6 1.8-.4 2 1.4 1.6 2.5-.7 5.1-4.3 7.4-10.6 2.8-7.4 2.9-5 .2 3.6-1.3 4.3-2.2 9-2 10.5 1.8 11.8 1.8 11.7-2.4 20.1-3.5 7-4.1 7.7-4.6 5.5-1-3.7-4-2.7-4.7 1.6l-.6 3.5-.2-4c0-2.2-.8-5-1.6-6.1-.8-1.2-1.2-2.4-.9-2.7s-.1-1.6-1-2.9c-.9-1.2-1.6-3.2-1.6-4.5 0-1.2-.4-2.4-1-2.8-.5-.3-.6-1.3-.3-2.2.5-1.3.2-1.5-1.8-1-1.3.4-3.4.7-4.7.7-2.2 0-2.3.3-1.8 5.7.2 3.2 1.4 10.7 2.6 16.8 2.2 11.1 3.4 19.9 2.6 18-1-2.1-6.6-30.8-6.6-33.5 0-1.6-.5-3.2-1.1-3.6-1.1-.6-19.2 16.5-18.7 17.7.2.4 5 4.4 10.8 9s11.1 8.9 11.8 9.6c.8.7 2.2 1.7 3.1 2.3 2.1 1 4.2-.9 8-7.2l2.2-3.7-2.5-2.2c-1.4-1.3-2.6-2.9-2.6-3.6 0-.8-.9-3.2-2-5.3-2.8-5.4-1.7-5.1 1.5.5 1.5 2.4 4.1 5.7 6 7.3 1.8 1.6 3.6 3.9 3.9 5.1.3 1.1.8 2.9 1.1 3.9.4 1.3 0 1.9-1.1 1.9-.9 0-1.9-.9-2.2-1.9-.7-2.9-2.6-2.1-6 2.7l-3.1 4.5 6.2 4c3.4 2.2 6.6 4.1 7.1 4.3s.7.8.3 1.4c-.5.7-1.8.1-3.7-1.7-3.6-3.3-11.5-7.4-12.9-6.6-.5.3-.8 0-.7-.8.1-1.1-21-18.7-26.5-22.1-.9-.6-5-3.5-9-6.5-4.1-3.1-11.9-8.7-17.4-12.5-5.5-3.7-10.4-7.3-11-7.8-2.1-2.1 6.5 3.4 20.5 13.1 8 5.5 14.6 9.9 14.7 9.8s-.4-4-1.2-8.7c-.8-4.6-2-12-2.6-16.4-1.2-8.1-1.9-9.3-7.6-13.3-1-.7-.4-.5 1.4.3 4.2 2 4.3 2 4.4-1.3.1-2.4.3-2.2 1.4 1.5.3 1 29.9-15.8 32.8-18.7.5-.4-1-5.2-3.2-10.5-2.3-5.4-3.9-10-3.7-10.2s1.6 2.7 3.2 6.4c1.5 3.7 3.3 7.6 3.9 8.5 1.1 1.6 1.3 1.6 2.3-.7 1-2.1 4.5-16 6.8-26.5.4-1.9.9-3 1.1-2.4s-1.2 7.7-3.2 15.8m-221.8 15.9c.4.7 2.5 2.3 4.6 3.6 2 1.2 3.7 2.7 3.7 3.2 0 1.2-3.2-.4-5-2.5-.7-.9-1.9-1.6-2.7-1.6-1.3 0-1.3.3-.3 1.5s1 1.5-.2 1.5c-.8 0-1.9-.5-2.6-1.2-.6-.6-2-1.3-2.9-1.5-2.6-.4-11.3 1.7-11.3 2.8 0 .5-.6.9-1.4.9-1.1 0-4.4 2.7-17.4 14.7-1.4 1.3-3.3 2.3-4.3 2.3-1.1 0-2.1 1-2.5 2.4-.5 2.3-4.1 6.4-5 5.8-1.1-.7-2.1.1-3.8 2.9-2.4 4.1-3.1 3-.9-1.5 2-4.4 1.1-5.6-4.5-5.6-3.6 0-3.9-1.6-.7-3.4 3.5-2 4.4-3.4 3.9-6-.3-1.6 0-2.6.7-2.6s4.6-2.2 8.8-4.9c13.7-8.7 17-10 27.3-10.7 5.1-.3 9.5-.7 9.7-1 1-1 6.1-.3 6.8.9m-.8 45.6c.5 5 1.3 9.6 1.6 10.1 1.1 1.8-1.4 1-2.7-.8-2.2-3.1-9.8-6.6-22.8-10.7-12.2-3.8-16.2-5.5-12.7-5.5 1 0 1.7-.8 1.7-1.9s.5-2.3 1-2.6c.6-.4 1 .6 1 2.4 0 2.7.5 3.1 5.3 4.7 2.8.9 8.1 2.8 11.7 4.1 7.9 2.8 7.7 2.8 7.6 0-.1-1.8.4-2.2 2.7-2.2 2.6.1 2.7-.1 2.8-5.5.1-7.7 1.5-3.7 2.8 7.9m-.7 34.2c-.2.9-2.6 4.1-5.3 7-2.6 3-4.9 5.7-4.9 6.1s-.6 1.3-1.4 2.1c-.8.7-2.3 3-3.3 4.9-3.6 6.6-8.7 12-13.8 14.3-6 2.7-23.2 9.5-24.2 9.5-.5.1-2.6.9-4.8 2s-4.6 1.9-5.4 2c-.7 0-4.1 1.3-7.5 3-4.7 2.2-6.8 3.9-8.9 7.4-1.6 2.5-3.3 4.9-3.9 5.2-.5.3.2-1.2 1.6-3.5 1.4-2.2 2.6-4.9 2.6-6 0-1.4 1-2.3 3.3-3 4.8-1.4 14.2-5.5 14.5-6.4.2-.4.8-.5 1.3-.1 1.8 1.1 14.9-4.7 14.9-6.6 0-1.5-5.2-3.1-6.5-2-.9.8-1.7.6-2.8-.5-2-1.9-3.7-1.9-3.7-.1 0 .8-.4 1.7-.9 2-.4.3-.7-.7-.5-2.3.3-2.6 0-2.9-3.6-3.5-2.2-.3-4-1.2-4-1.8 0-1.6 5.1-6.8 6.7-6.8 1.5 0 2.8-4.4 1.8-6-.6-.9-.2-.9 1.3-.1 1.2.6 2.4 1.6 2.7 2.1.4.6 1.1.8 1.6.4.5-.3 1.6 0 2.4.6s2.4 1 3.7.8c2-.3 1.9-.6-1.6-2.3-4.1-2-3.7-3.2.5-1.7 2.2.9 2.5.6 3.6-3.2.7-2.2.9-4.2.4-4.4-.4-.1-1.7-.9-2.7-1.8-1.7-1.3-1.2-1.4 5.1-1 6.5.5 10.3 1 11.5 1.6.3.1-.6.5-2 .9-2 .6-2.5 1.4-2.6 4.3-.2 3.1.2 3.8 2.7 4.8 2.4 1.1 3.7 1 7.7-.5 2.8-1.1 4.1-2 3.2-2.3-2-.7-4-3.5-3.3-4.6.4-.5.2-.7-.3-.3-.5.3-1.8-.1-2.9-.9-1-.8-1.3-1.4-.6-1.4s.9-.4.6-1c-.3-.5.6-1.2 2-1.6 1.6-.4 2.5-1.3 2.6-2.8.2-2.9.2-2.7-.5-6.6l-.7-3.5 2.1 2.7c1.7 2.2 2.7 2.6 4.9 2.2 2.2-.5 3.4.1 6.5 3.2 3.3 3.3 4 3.6 5 2.3.6-.9 1.6-1.6 2.1-1.7.6-.1 1.4-2.3 2-4.9l.9-4.8.6 3.5c.3 1.9.4 4.2.2 5.1m5.8 14.3c0 1.4-1.6 4.5-3.5 7s-3.2 4.6-3 4.6c.6 0-.4 1.3-3.3 4.5-.7.8-1.1 1.5-.7 1.5.3 0 .3.5-.1 1.1-.4.8-.9.7-1.5-.2-.6-1.1-.9-.9-.9.7 0 1.2-1 2.5-2.5 3.2-2.2 1-2.5.9-2.5-.8 0-1.1-.5-2-1.1-2s-.9-.7-.6-1.5c.8-1.9-1.2-3-2.6-1.6-.9.9-.7 1.1.8.6 1.1-.4.5.2-1.2 1.4-2.9 1.8-3.2 2.5-2.9 5.8.2 2.1.7 4.6 1.1 5.6.6 1.3.3 1.6-.9 1.1-1.6-.6-6.6 2-12.9 6.9-2.1 1.6-4 2.8-4.2 2.6s2.6-2.6 6.1-5.2c7.4-5.6 8.2-6.8 6.6-11-1.3-3.5-1.3-3.5 1.7-4 2.3-.3 4.3-2.5 3.6-3.8-.3-.3 1.2-1.5 3.3-2.5 2-1 5.6-3.6 7.8-5.7 2.6-2.4 4.4-3.5 4.8-2.8 1.5 2.3 3.7.9 5.6-3.4 2.2-5.1 3-5.6 3-2.1m226.5 22.6c-2 5.8-1.9 8.2.7 11.5l2.1 2.8-2.1-1.2c-1.2-.6-2.2-.8-2.2-.4s-.5.1-1-.7c-.6-1-.7-.3-.3 2.4.4 2.8.3 3.7-.5 3.2s-1.2.1-1.3 1.6c0 1.3-.2 3.3-.3 4.5-.2 1.3.1 2.3.6 2.3.4 0 .8.7.8 1.5s-.6 1.5-1.2 1.5c-.9 0-1 .3-.2.8.6.4 1.4 2.7 1.7 5.2.4 3 .3 3.8-.3 2.5-.9-2-1-1.5-1.5 7-.1 1.1-.5 2-1 2s-.8-.8-.7-1.7c.2-1-.1-2.6-.7-3.5-.9-1.6-1-1.6-1.1.4 0 1.2-.4 2.4-.9 2.8-.6.3-.5-.9 0-3 1.6-5.6 2.2-9.5 2.6-17.5.3-4.1.9-8.1 1.5-8.8 1.4-1.6.1-2.9-1.4-1.4-2.6 2.6-3 1-.5-1.6 1.6-1.7 2.7-3.9 2.7-5.6 0-1.5.4-2.5 1-2.1s1-.7 1-2.4.4-3.1.9-3.1 1.1-1 1.4-2.2c.4-1.2.9-2 1.2-1.7s-.2 2.5-1 4.9m-552 48c.8 3 1.9 6.8 2.5 8.4 1 2.7 1.2 2.8 2.9 1.2 3.4-3.1 4.4-1.3 1.1 2.2l-2.1 2.2 2.7 8c2.5 7.6 4.4 10.2 4.4 6.1 0-2.1 5-14.4 5.7-13.8.2.2-1 4.6-2.7 9.7s-2.8 9.5-2.5 9.8c.2.3 5-1.6 10.5-4.1 5.5-2.6 10.6-4.7 11.2-4.7 1.1 0-14.2 7.9-18.2 9.4-1.6.6-5.2 2.8-6 3.6-.3.3-2.5 2.1-5 4s-6.1 4.8-8 6.5c-2 1.6-4.8 3.9-6.2 5-1.8 1.2-2.4 2.3-1.8 3 .6.8-.2 1-2.8.6-2-.2-3.1-.6-2.4-.9 1.6-.5-.4-1.8-13.3-8.6-4.9-2.7-9.6-5.4-10.4-6.1-1.1-1.1-2.4-.9-7.5.7-3.3 1.1-6.5 2.5-7 2.9-3.5 3.2-5-3.6-2.2-10.2 1.2-2.9 1.4-3 2-1.2.4 1.1.2 3.2-.4 4.7-1.3 3.5-1.3 4.6.1 4.6.6 0 .9-.6.6-1.3-.2-.6 0-2 .5-2.9.5-1 .9-5.3.9-9.7 0-5.5.5-8.5 1.5-9.8 1.4-1.6 1.5-1 .9 5.7-.6 7.5-.7 15.2-.1 15.8.2.1 1.5-.3 3-.9 1.9-.9 2.5-1.7 2-3.1-.3-1-.1-1.8.4-1.8 1.1 0 .5-5.9-.8-7.5-.8-1.2-1.7-4.6-2.5-10.1-.4-2.1-.8-4.7-1.1-5.7-.3-.9-.1-1.7.4-1.7.9 0 3.2 6.6 3.2 9.4 0 1 .7 2.4 1.5 3.2 1.3 1.4 1.5 1.3 1.5-.5 0-2.2 2.7-13.1 3.4-13.8.2-.3 1.2 1.1 2.1 3.1l1.7 3.5 2.1-2.4c4.1-4.5 5.7-6.5 5.7-7.4 0-1.6 5.7-7.1 7.3-7.1.9 0 2.3 1 3.1 2.2.9 1.2 1.6 1.7 1.6 1 0-.8.9-1.2 2.3-1 1.5.2 2.3 1.1 2.6 2.8.4 3.1 1.9 4.1 4.8 3.4 1.4-.4 2.9 0 3.9 1 2.3 2.4 2.5 1.7 1.4-4.3-.5-2.9-.7-5.8-.4-6.3.4-.6.1-1.3-.5-1.7s-1.4-2.5-1.7-4.7l-.4-3.9 1.6 4c.9 2.2 2.2 6.5 2.9 9.5M424 503.5c-.6 4.4-1.6 9-2.2 10.2-1.2 2.4-.4 5.8 1.2 4.8.5-.3 1.5-.3 2.1.1.8.4.7.9-.2 1.5-.8.5-2.2.3-3.4-.5-1.3-.9-2.8-1-4.2-.5-2.1.7-2.2 1.3-1.6 5.6.8 6.3 1.6 7.8 5.3 9.3 1.6.7 3 1.9 3 2.6 0 1.2-.4 1.2-2.8 0-1.6-.8-3.4-2.2-4.1-3-2.1-2.5-3.1-1.9-2.5 1.6.4 2.5.3 2.9-.5 1.7-.6-.9-1.3-4.3-1.7-7.5-.3-3.3-1.3-6.9-2-8.1-.8-1.2-1.4-3-1.4-4 .1-1.2.8-.6 2 1.7l2 3.5-.1-4c0-2.2.1-7.4.2-11.5.2-5.5.3-6.3.6-3 .3 2.4.9 5 1.5 5.7.5.7.7 2.6.3 4.3-.7 3.2-.6 3.3 1.9 2.4.9-.4 1.6-1.8 1.6-3.4s.5-3.2 1-3.5c.6-.3 1-2.4 1-4.5s.5-4.2 1-4.5c.6-.3 1-2.5 1-4.8s.4-5.3.8-6.7c1.3-4.6 1.5 5.8.2 14.5m93.3 30.7c-.6.7-.9 2.1-.8 3 .2 1.2-2.6 3.2-10.8 7.4-6.2 3.1-12.3 6.4-13.7 7.3s-3.7 2.2-5.2 2.9c-1.6.6-2.8 1.8-2.8 2.7 0 1.6-1.5 2-2.4.6-.3-.5-4.7.2-9.8 1.6-5.1 1.3-11.8 2.6-14.8 2.7-3 .2-7.5.6-10 1-2.5.3-1.3-.1 2.5-1 3.9-.9 7.4-2 7.9-2.5 1.2-1.1-1-2.9-7.4-6-2.5-1.3-5.5-3.1-6.7-4.2-2.4-2.1-4.3-1.6-4.3 1.4 0 2.1-4 11.2-4.6 10.6-.3-.2.5-3.3 1.6-6.8s2-6.9 2-7.6-1.7-2-3.7-3c-2.7-1.2-3.3-1.9-2-2.1 2.3-.5 2.2-2.3-.3-2.9-3-.8-2.4-2.4.6-1.9 3.1.6 5.4 2.4 5.1 3.9-.2 1.1 37.5 1.3 45.3.2 1.9-.2 8-.7 13.5-1 9.2-.5 9.8-.4 7.5.9-3.5 2.1 0 2.2 4 .1 2.9-1.5 4.2-3.2 1.8-2.2-.7.2-4-.2-7.3-.9l-6-1.3 8.1.6c8 .5 8.1.5 10.5-2.5 1.3-1.6 2.6-2.8 2.8-2.6s-.1.9-.6 1.6m-17.8 61.6c-1.4 1.2-11.1 5.2-12.6 5.2-2.2 0-4.6 3.9-4.3 6.7.4 2.6-.1 2-1.2-1.5-.5-1.6-5.6 1.1-17.2 9.2-4 2.8-8.9 6.1-10.9 7.2l-3.5 2.2 17.3 11.5c21.8 14.4 21.1 14 23.7 12.1 2.5-1.7 2.8-.8.7 1.9-1.5 2.1-1.2 2.2-16-7.2-17-10.8-27.1-17.1-27.6-17.3-1.2-.6-2-5.8-.8-5.6.6.2 2-2.4 3-5.7l1.8-6-.6 5c-.3 2.7-1 5.8-1.5 6.8s-.7 2.1-.4 2.5c.7.6 13.5-8 20.7-14 2.6-2.1 5.2-3.8 5.8-3.8.9 0 1.7-1.9.9-2-.2 0-4.1-.3-8.8-.6-4.7-.4-8.7-.8-8.9-1s4.1-.4 9.5-.4c10.1 0 12.5-.7 13.7-4 .4-1 .6-.7.6.7.1 2.8.8 2.8 9.1-.1 7.5-2.6 8.8-3 7.5-1.8m703.5 78.6c0 1.3 2.7 3.1 4.2 2.8.9-.2 4.2 8.7 3.5 9.4-.3.3-.8-.8-1.2-2.5-.6-2.9-2.5-5.3-2.5-3.3 0 .8.4 2.2 2.7 9.2.5 1.7 4.3-6 6.4-12.8.9-3.1 1.7-4.2 3.2-4.2 1.4 0 1.7.4 1.2 1.7-.4 1-1.4 3.7-2.2 6-.8 2.4-1.9 4.3-2.5 4.3-.5 0-.7.4-.4.9s.2 2.2-.3 3.7c-2.1 6.5-2.2 8.4-.6 7.8.8-.4 1.5-.1 1.5.6 0 .6.4.8 1 .5.6-.4.7.2.1 1.7-.9 2.6-3.2 3.1-3.9.8-.5-1.3-.3-1.3 1.3 0s1.7 1.2 1.4-.5c-.3-1.1-1.1-2-1.9-2.1s-2.5-.2-3.6-.2c-1.7-.2-2.7-1.6-4.4-6.5-1.3-3.4-3.4-9-4.6-12.5-2.3-6-2.3-6.2-.4-6.2 1.1 0 2 .6 2 1.4m22.2 5.2c-.4 2.4-.3 2.5 1.7 1.4 2.3-1.2 8.1-.5 8.1 1 0 .5 1 1.2 2.3 1.5 1.2.4 3.3 1.7 4.6 2.9 1.3 1.1 2.1 1.5 1.7.9-.9-1.6 3.4-6 6.8-6.9 4.4-1.1 15.7 5.9 15.5 9.5 0 1.1-.3 1-.9-.4-.8-2.2-4-5.3-4-4 0 .5.6 1.6 1.4 2.4.7.9 1.6 2.7 1.9 4.1.6 2.3.5 2.2-.5-.3-1.4-3.2-2.8-3.5-2.8-.6 0 1.1-1.3 3.4-3 5.1-3.6 3.6-3.7 3.8-.6 3.8 1.5 0 3.3-1.1 4.5-2.6s2.1-2.3 2.1-1.8c0 1.8-4.5 5.4-6.7 5.4-1.5 0-2.2.4-1.7 1.1 1.1 1.8-3.6-1-8.6-5-3.8-3.1-5-3.6-7.5-3-1.6.4-2.6.7-2.1.8.4 0-.2 1-1.5 2-3.3 2.6-1.5 4 2.4 1.8l3.2-1.7-2.4 2c-1.8 1.6-3.2 1.9-5.4 1.4s-2.8-.3-2.2.6c1 1.6-.5.8-5.3-2.8-2.2-1.7-3.1-3-2.7-4.1.3-.8.3-1.2-.1-.9-.8.9-3.4-1.7-3.4-3.4 0-.7.9-3 2-5.1 2.3-4.3 2.5-6.3.8-7-.7-.3-.3-.6.8-.6 1.8-.1 2 .3 1.6 2.5"/><path d="M575.5 84.9c-3.3 1.5-12.3 5.6-20 9s-19.8 9.1-27 12.6c-7.1 3.5-14.9 7.1-17.2 8-2.4 1-4.3 2.1-4.3 2.6s8.5.7 20.3.4c26-.8 28.4-1.1 29.8-3.8 1.7-3.1 9.5-13.2 19.3-25 3.1-3.7 5.5-6.7 5.4-6.7-.2 0-3 1.3-6.3 2.9M590.4 83.9c.9 1 1.6 2.3 1.6 2.9 0 .7.7 1.2 1.6 1.2.8 0 1.3.4.9.9-.3.6.3 1.5 1.2 2.1 1.3.8 1.4 1.3.6 1.6-1.8.8-1.6 2.5.2 1.8.8-.4 1.5-.1 1.5.5 0 .5.8 1.8 1.9 2.8 2.3 2.3 3.1 5.5 1.9 7.9-.6 1.1-.1.9 1.1-.6 1.1-1.4 2.1-3.1 2.1-3.8 0-1.7 2-1.5 2 .3 0 .7.8 1.9 1.8 2.5 1.2.8 1.3 1.3.5 1.6-2.1.9-1.6 3.7.6 3.1 1.4-.3 2.4.5 3.9 3.2 1.2 2 2.9 4.6 3.9 5.8 1.8 2 2 2 3 .4.7-1.1.8-2.3.2-3.2-.5-.8-.9-2.6-.9-4.2 0-2 .5-2.7 2-2.7 1.1 0 2-.5 2-1 0-.6.7-1 1.5-1s1.5-.7 1.5-1.5.5-1.5 1-1.5c.6 0 1-.8 1-1.8 0-1.3.2-1.4.9-.4.6 1 1 1 2.1-.3.7-.8.9-1.5.4-1.5-.4 0 .1-.6 1.1-1.4 1.8-1.3 1.8-1.4-.3-2.5-1.1-.6-3.5-1.1-5.2-1.1s-2.9-.4-2.6-.9c.4-.6-6-2.8-17.4-5.7-.8-.2-5.5-1.5-10.4-2.8-7.8-2.2-8.7-2.3-7.2-.7M693 126.5c0 .8-.4 1.5-.8 1.5-.5 0-1.5 1.8-2.2 4s-1.7 4-2.2 4c-.4 0-.8.6-.8 1.4 0 1.4-5.3 12.1-10 20.3-.6 1-1.5 2.9-2 4.3-2 4.8-3.5 7.5-4.7 8.3-.7.4-1.5 2.3-1.9 4.2-.3 1.9-1.2 3.5-1.9 3.5-.8 0-1.7 1.5-2 3.2-.4 1.8-2 4.9-3.6 6.9-3.4 4.4-3.6 5.5-.9 7.1 2.2 1.4 2.8 5.3.7 4.5-1.6-.6-4.4.9-3.5 1.8.3.4 3.4-.1 6.8-.9 3.4-.9 7.3-1.6 8.6-1.6s2.4-.5 2.4-1.1c0-.8.4-.8 1.3-.1 1.9 1.6 50.9-4.7 58.7-7.6.8-.3 2.1-.4 2.8-.3.6.1 1.2 0 1.2-.3 0-1-5.2-9.1-13-20.2-4.7-6.6-8.9-12.7-9.5-13.6-4.1-6.3-8.9-13.4-9.4-13.8-.3-.3-2.2-2.8-4.1-5.5-1.9-2.8-4-5.6-4.7-6.3-.7-.8-1.8-2.2-2.3-3.3-1.3-2.3-3-2.5-3-.4M492.3 136.7c-.7.3-1.3.9-1.3 1.3 0 .9-10.7 17.5-15.8 24.5-1.6 2.2-4.6 6.9-6.7 10.5s-6 10-8.7 14.3c-2.6 4.3-4.8 8.3-4.8 8.8s-1.6 2.7-3.6 4.9c-3 3.3-3.4 4.4-2.7 6.5.8 2.4 15.9 18.5 17.4 18.5.5 0 1.5-2.6 2.5-5.8.9-3.1 3.4-11.1 5.6-17.7 2.1-6.6 5.2-16.7 6.9-22.5 1.6-5.8 3.9-13.4 5.1-17 9-28.4 8.8-27.3 6.1-26.3M497.3 203.8c-1.2.2-2.5 1.1-2.8 2s-2.1 2.8-4.1 4.2c-1.9 1.4-3.9 3.5-4.5 4.8-.5 1.3-1.3 2-1.9 1.7-.5-.3-.7 0-.4.9.4 1-.3 1.5-2.3 1.8-1.9.2-2.8.8-2.7 2 .1 1-.3 1.5-.8 1.2-.6-.4-1.3-.2-1.7.3-.3.5-2.1 1.9-3.8 3.2-3.2 2.2-4.3 4.1-2.4 4.1.5 0 1.2-.8 1.4-1.8.4-1.5.5-1.5.6.2s.7 1.8 6.9 1.3c3.7-.4 10.9-.9 16-1.3 5-.4 9.2-1 9.2-1.5s.7-.9 1.5-.9 1.5-.5 1.5-1.2c0-.9.3-.9 1.2 0 1.4 1.4 9.8 1.6 9.8.2 0-.6-.7-1-1.5-1s-1.5-.5-1.5-1c0-.6.5-1 1.1-1 2.7 0 4.3-3.3 4.1-8.4-.1-2.8-.7-5.3-1.2-5.4-.6-.2-1-1.2-1-2.2 0-1.7-1-1.9-9.2-2.2-5.1-.2-10.3-.2-11.5 0M628 207.2c-6.3.5-14.6 1.2-18.5 1.6l-7 .7.2 33c.1 34.9.9 49.5 2.4 49.5.6 0 1.9-2.1 3.1-4.8 4-9.2 9.9-21.8 12.9-27.2 7.4-13.7 15.3-31.1 18.5-40.7 1.8-5.8 3.9-11.2 4.5-11.9 1.3-1.6 2-1.6-16.1-.2M595.7 219.1c-1.5 2.5-2.7 5.1-2.7 5.7 0 .7-.4 1.2-1 1.2-.5 0-1 .4-1 .9s-2 4.3-4.4 8.3l-4.3 7.4 3.3 9c1.8 4.9 5.1 13.4 7.4 18.9s4.8 12.2 5.6 14.8c1.7 5.3 3.3 5.6 2.9.5-.2-1.8-.6-15.9-1-31.3s-1-30.7-1.4-34l-.6-6zM484.5 231.1c-7.1.3-13.9.7-14.9.8-1.8.1-1.9 1-1.3 24.8.3 13.7.9 25.8 1.4 27.1.8 2.2 1.1 2 6.4-4 10.6-12 16.6-19.3 19.3-23.6 1.4-2.3 4.5-5.6 6.9-7.3 6.1-4.4 13.7-14.6 13.7-18.4 0-.6-14.3-.4-31.5.6M576.6 246.4c.4 1.1.1 1.6-1 1.6-.9 0-1.6-.5-1.6-1 0-.6-.5-1-1.1-1s-.9.7-.5 1.5c.4 1.3.2 1.4-1.4.5-1.3-.7-2-.7-2-.1s-.7.8-1.5.5-3.1 0-5.2.7c-3.2 1-3.5 1.3-1.8 2 1.5.6.9.8-2.2.8-2.3.1-4.5.5-4.8 1.1-.3.5-1.5 1-2.6 1-1 0-1.8.3-1.8.7.4 2.4-.4 3.4-2.3 3.2-1.3-.1-3.4-.1-4.8.1-2.4.2-2.4.3.4.9 1.8.4 3.1 1.3 3.3 2.6.7 3.9.9 4.5 1.8 5.2.4.4.5.2.1-.5-.4-.6-.2-1.2.3-1.2.6 0 1.1.6 1.1 1.3s1.5 2 3.3 2.8c4.5 2.1 25 13 26.2 13.9.6.4 5.4 3.1 10.8 5.9 9.4 5 9.7 5.1 9.7 2.9 0-1.3-.4-2.8-.8-3.4-.5-.5-2.1-4.1-3.6-7.9-1.5-3.9-4.1-10.2-5.6-14-1.6-3.9-4.2-10.2-5.7-14-2.2-5.4-3.4-7.1-5.1-7.3-1.6-.3-2 .1-1.6 1.2M506 248.8c-3.2 2.7-3.4 3.1-2.2 5.6.7 1.5 1.2 3.3 1.2 4.1 0 2.3-1.8 1.8-2.6-.7-.6-2-.8-2-1.9-.5-.7.9-2 1.7-2.9 1.7s-1.6.4-1.6.9-2.7 3.8-6.1 7.3c-3.3 3.5-7.2 7.9-8.7 9.8-1.4 1.9-4.2 5.2-6.1 7.3-4.1 4.4-2.9 4.2 6.4-1 3.3-1.9 7.8-4.2 10-5.2s5-3 6.2-4.5c1.3-1.4 2.7-2.6 3.1-2.6.5 0 .9-.6 1-1.3.4-3.6 1.6-7.3 2.7-8.2.7-.6 1.6-2.6 2-4.5s1.4-4.3 2.2-5.2 1.3-2.6 1.1-3.8c-.3-2-.4-2-3.8.8M493.4 279.4c-1.7.8-4.8 2.5-7 3.8-2.1 1.4-6.1 3.3-8.7 4.3s-5 2.1-5.2 2.5c-.6.9 15.4 11 17.3 11 .4 0 1.3-2.1 2.1-4.8.7-2.6 2.3-7.7 3.5-11.5 1.3-3.7 2-6.7 1.7-6.7-.3.1-2 .7-3.7 1.4M741.9 295.4c-.2.2-2 .7-4 1-3 .5-44.6 16.4-55.1 21.1-1.8.8-8.7 3.5-15.3 6.1s-12.5 5.3-13.1 6c-.6.8-1.6 1.4-2.3 1.4-.6 0-1.1.8-1.2 1.7 0 1-.6 10.5-1.2 21-1 15.6-1 19.3.1 19.3.7 0 6.8-3.7 13.5-8.2s16-10.6 20.7-13.5c8.6-5.4 18.6-14.2 25-22 10.9-13.2 30-34.4 26.3-29.2-1 1.5-6.5 8.2-12.3 14.9s-11.6 13.7-13 15.4-4.7 5.2-7.4 7.9c-2.7 2.6-4.7 5-4.4 5.3.3.2 8.6-1.6 18.4-4.2 9.9-2.5 18.4-4.7 18.9-4.8 4.6-1.2 6.5-1.9 6.5-2.6 0-.4 1.5-1.1 3.3-1.4 1.9-.3 4.7-2 6.3-3.7s5.3-5 8.3-7.2c7.3-5.4 21.2-18.7 20.6-19.7-.6-.9-12.9-2.7-24-3.5-4.4-.3-9.4-.8-11.1-1.1-1.7-.2-3.2-.2-3.5 0M640.4 335.9c-3.9 2-11.3 5.5-16.3 7.9-5.3 2.5-9.1 4.8-8.8 5.5.2.7 2.3 2.7 4.8 4.4 6.8 5.1 13.2 10 15.9 12.6 3.6 3.3 9 7 9.6 6.5.9-1 2.3-11.9 2.9-23.3.3-6.6.7-13.2.9-14.8.4-3.4-.2-3.3-9 1.2M386.9 390.2c-.1 1.3-.2 3.2-.2 4.3 0 2.3 2.2 16.8 2.7 17.2.6.6 17.1-1.9 18-2.8 1.7-1.5-11.6-17.5-13.6-16.3-.7.4-.8.3-.4-.5 1.1-1.7-1.2-4.1-4-4.1-1.8 0-2.4.6-2.5 2.2M401.8 388.7c-2.7.2-4.8.9-4.8 1.5 0 .5 2.1 3.3 4.6 6.2 2.6 2.8 5.4 6.6 6.2 8.3.9 1.8 1.9 3.3 2.4 3.3 2.1 0 3.6-8.8 3-17.8-.2-2.4-.2-2.4-11.4-1.5M523 401.8c-1.4.9-4.2 2.9-6.1 4.4-2 1.6-3.9 2.8-4.3 2.8s-1.6.8-2.6 1.8c-1.9 1.8-1.7 1.9 6.8 3.5 14.4 2.7 17.2 3 17.2 1.7 0-.7-.5-4-1.1-7.4-1-5.1-1.6-6.4-3.7-7.4-3.1-1.5-3.1-1.5-6.2.6M412.7 416.6c-.3 2.8-1.3 5.3-2.6 6.5-1.1 1.1-2.1 2.5-2.1 3.1s-1.8 4.8-4 9.4-4 9.3-4 10.4c0 1.9.5 2.1 4.7 1.8l4.7-.3 1.4-5c.7-2.8 1.8-6.6 2.4-8.5.7-1.9 1.2-6.1 1.2-9.3 0-5.2.2-5.8 2.3-6.3 2.5-.7 3.2-2.4.9-2.4-.7 0-1.6-.9-1.9-2-.9-3.5-2.4-2.2-3 2.6M462.5 421.6c-.6.2-.9 4.2-.7 9.8.3 8.7.2 9.5-1.7 10.1-1.1.3-1.8 1.2-1.5 2 .3.7-.2 2.8-1.1 4.5-.9 1.8-1.5 3.3-1.3 3.5.2.1 2.7.5 5.6.7 5.1.5 5.2.5 5.2-2.3 0-1.5-.6-3-1.2-3.2-1-.4-1-.7-.1-1.4 1.2-.9 1.2-1.6-.7-15.1-.5-4.1-.8-7.8-.4-8.3.5-.9-.3-1.1-2.1-.3M306.4 153.8c-7.3 7-15.3 15.1-17.9 17.9l-4.8 5.3 4.4-1.3c10.7-3.3 44.4-15 49.5-17.3 3.3-1.5 5.3-2.9 4.8-3.4-.9-.8-22.2-14-22.7-14-.1 0-6.1 5.7-13.3 12.8M317 167.6c-34 11.9-34.5 12.1-34.4 13.5.6 8 7.1 36.6 9 39.3.7 1.1 1 3.2.7 5.2-.7 4.5.8 4.3 3.5-.5 1.3-2.2 4.6-7 7.5-10.8 2.9-3.7 7.9-10.6 11.2-15.3 3.2-4.7 7.5-10.5 9.6-13 5.1-6.3 17.9-24.2 17.9-25.2 0-1.6-3.9-.5-25 6.8M346 160.8c0 .7-.4 1.1-.8.8-.4-.2-2.6 2-4.7 5.1-2.2 3-7 9.7-10.7 14.7-3.6 5-6.5 9.3-6.2 9.5.2.2-.5 1-1.6 1.8-2.6 1.8-27.3 36.3-26.6 37 .2.2 5.2-.9 11.2-2.6 6-1.6 18.3-4.8 27.4-7.1 20.3-5.2 32.8-8.9 33.4-9.9.5-.8-3.6-11.3-12.9-33.1-5.5-13.1-8.5-18.7-8.5-16.2M273.7 184.7c-.9 1-9.5 6.9-18.9 13.3-9.4 6.3-17.3 12-17.5 12.6-.4 1.2 7.4 11.4 8.7 11.4 1 0 8.6-9.1 16.3-19.6 3.2-4.3 7.4-9.7 9.3-11.9 4-4.4 3.2-3.1-6.6 10-7.2 9.8-16 20.7-17.4 21.6-1.3 1-.6 2.2 5.5 8.7l5.6 6 2.1-5.2c3.1-7.4 17.2-47.2 17.2-48.2 0-1.1-2.8-.2-4.3 1.3M279.3 184.5c-.6 1.1-1.5 3.6-2.1 5.5s-2.9 8.7-5.2 15c-9.5 25.8-11.3 31.1-10.8 31.5.4.4 18.4-2.9 27.5-5 1.9-.4 2.1-.9 1.2-3.8-.9-3.2-6.6-30.5-7.5-36.2-.2-1.7-.8-4.4-1.3-6-.7-2.8-.8-2.9-1.8-1"/><path d="M235.6 220.2c-1.2 12.6-1.5 22.8-.7 22.8.4 0 1.5-1.6 2.5-3.6.9-2 1.9-3.4 2.2-3.1.5.5-.4 2.3-4.3 9.1-.7 1.1-1.3 3-1.3 4.2 0 2.5 9.1 16.7 10.1 15.7.4-.5 3.3-5.9 6.4-12.1 3.2-6.1 6-11 6.3-10.8.2.3-2.4 6-5.8 12.7l-6.2 12.2 1.6 7.1c.9 3.9 2.9 12 4.4 18.1l2.7 11 .6-6c.4-3.3.7-8.3.8-11.2.1-2.8.4-5.4.9-5.6.9-.7-.1 21.4-1.1 23-.5.8-.4 1.3.3 1.3.5 0 6.5-11 13.2-24.5s12.6-24.5 13-24.5-5.1 11.5-12.2 25.6c-7.2 14.1-13 26.3-13 27 0 1.4 10.3 8.4 24 16.4 4.1 2.4 8.5 5 9.8 5.8l2.2 1.4-.2-47.6c-.1-26.2-.4-47.6-.6-47.6-.3 0-1.1.8-1.9 1.7-1.1 1.5-1.1 1.1.1-2 1.4-3.4 1.4-3.7-.2-3.7-2.9 0-27.7 5.2-28.5 6-1.3 1.2-2.5 16.3-1.5 18.3.8 1.6-1.2 6.3-2.3 5.2-.3-.2-.1-4.5.4-9.5 1.1-11.2.8-12.4-3.5-11.5l-3.3.6 3.3-1.5c1.7-.8 3.2-2.1 3.2-2.8s-2.7-4.1-6-7.5-6-6.4-6-6.8c0-.9-7.3-9.5-8.1-9.5-.4 0-1 2.8-1.3 6.2"/><path d="M221.5 288.2c.4 1.3 1.5 6.9 2.6 12.6 1 5.7 2.2 10.9 2.6 11.5.4.7.7 1.9.8 2.7 0 .8 3.3 7.8 7.4 15.4l7.4 13.8 1.4-2.8 1.3-2.9-.5 3.6-.5 3.6 5.8 1.7c7 1.9 10.2 2 10.2.3-.1-.6-.7-3.9-1.5-7.2-1.7-6.9-1.8-8.5-.7-8.5.5 0 1.4 3.6 2.1 8 .8 4.4 1.7 8.3 2.2 8.5.4.3 2.5-.5 4.7-1.7 2.1-1.3 8.3-4.8 13.6-7.8 9.4-5.4 9.6-5.5 7.6-7.2-3.1-2.5-32.1-20.1-32.5-19.7-.1.2.3 4.2 1.1 8.8s1.3 8.8 1.1 9.4-.9-2.5-1.6-6.8c-1.4-9.1-3.2-13.1-5.8-12.8-1 .1-4.5.4-7.8.7l-6 .5 6.7-1.2c3.7-.7 6.9-1.4 7.2-1.7.2-.3-2.3-2.7-5.7-5.3s-9.8-7.7-14.2-11.2c-4.4-3.6-8.3-6.5-8.8-6.5s-.6 1-.2 2.2M214 313.8c.1 4.4 2.2 13.3 4.4 18.4 1.1 2.7 2.3 3.8 3.7 3.8 1.6 0 1.9-.4 1.4-1.8-.8-2.1-1.3-4-.8-3 .8 1.4 2.1.8 2.6-1 .2-.9.3 0 .1 2.1-.4 3.5-.2 3.8 3.3 5.5 2.1.9 4 1.9 4.3 2.2 1.3 1.4 6 2.9 6 1.9 0-1.2-11.9-24.2-12.9-24.9-.4-.3-1-1.2-1.3-2-.3-.9-2.9-2.3-5.7-3.2l-5.1-1.6zM280.4 340.6c-6 3.7-12.1 7.4-13.6 8.3-1.6.9-2.8 2-2.8 2.5 0 1.5 18.2 18.7 19.4 18.3.9-.3 8.9-34.7 8.2-35.4-.1-.1-5.1 2.7-11.2 6.3M259.3 364.8c-6.1 21.2-8.3 30.3-7.7 31.3.3.5 2 .7 3.9.3 1.9-.3 3.5-.1 3.9.5.5.7-.2 1.1-1.5 1.1-1.2 0-2 .2-1.7.5.9 1 19.9 6.2 20.2 5.6.7-1.1 6.6-25.9 6.6-27.5 0-2.3-.6-2.1-7.9 3.2-11.3 8.1-13.4 9.5-12.7 8.4.4-.7 3.1-2.8 6.1-4.7 2.9-2 7.3-5.3 9.6-7.4l4.3-3.8-5-4.9c-2.8-2.7-7.3-6.8-10.1-9.1l-5-4.2zM224.3 372.8c-1.1.7-30.3 57.5-30.3 58.8 0 .4 4-2.4 19-13.2 3-2.1 5.1-3.3 4.7-2.7-.5.7-5.2 4.4-10.5 8.3-14.7 10.6-15.1 10.9-12.7 11 1.1.1 8.1.7 15.5 1.4 7.4.8 13.6 1.2 13.8 1.1.2-.2.6-4.8.9-10.4.6-11 0-15.6-2-14.5-.9.5-.9.4.1-.7.6-.7 1.2-2.4 1.2-3.7s.7-3 1.5-3.9c.8-.8 1.2-1.9.9-2.5-1-1.6-.4-16.2.7-16.6s1.2-3.9.2-4.5c-.5-.2-.2-.2.5 0 .7.1 2-1.3 2.8-3.2 1.8-4.3 1.8-5.5 0-5.5-.9 0-1.6 1.2-1.8 3.2-.4 4.1-2.1 3.9-2.8-.1-.3-2.1-.9-2.8-1.7-2.3M989.3 343.7c1.6 10.4 4.8 27.6 5.3 28.4.3.5 1.2.6 1.9.1 2.3-1.2 16.5-15.4 16.5-16.3s-8.8-6.9-18.9-12.8l-5.4-3.2zM787 410c-.8.5-2.7 1.1-4.1 1.4-4.8 1-9.3 5-12.1 10.6-3.1 6.2-3.3 7-1.7 7 2 0 12.3-7.1 15.7-10.9 4.3-4.7 6.7-9.1 5-9-.7 0-2 .4-2.8.9M485.4 502.8c-.3 1-1.2 2.9-2 4.4-.8 1.4-1.4 3.3-1.4 4.2 0 1.5-3.9 10.9-6.1 14.9-.6 1.1-.8 2.1-.5 2.4s.8-.2 1.2-1.1c.3-.9 1.2-1.6 1.9-1.6 1.6 0 16.5-11.8 16.5-13.1 0-.5-1.3-3.3-2.8-6.2-2.9-5.3-5.9-7-6.8-3.9"/></svg>