<svg xmlns="http://www.w3.org/2000/svg" width="1706.667" height="960" viewBox="0 0 1280 720"><path d="M0 360v360l357.7-.2 357.7-.3 2.6-6.7c2.6-7 4-9.2 4-6.5 0 .9-.4 1.9-1 2.2-.5.3-1.4 2.4-2 4.6s-1.4 4.7-1.7 5.5c-.4 1.1.9 1.4 7.3 1.4 7.8-.1 11.4-1.3 11.4-3.9 0-.6.5-1.1 1-1.1.6 0 1.4-.8 1.7-1.7.8-2 4.6-6.5 11.4-13.6l4.6-4.7-3.1-.1c-3-.2-3-.2-.3-.6 3.1-.5 5.8-5.4 7.7-13.9.6-2.7 1.7-6.9 2.5-9.4s1.9-6.5 2.5-8.9c.6-2.3 1.3-4.1 1.5-3.9.4.4-1.4 8.5-4.9 22.3-3.2 12.4-3.2 12.9.2 15.4 1.5 1.2 3.2 2.5 3.9 3.1.7.5 3.3 1.8 5.8 2.8s4.3 2.1 3.9 2.4c-.3.4.5 1 2 1.4 1.4.3 3 1.3 3.5 2.2.5.8 1.3 1.2 1.9.8 1.4-.8.5-9-1.4-12.7-.7-1.4-2-5.2-2.8-8.5-.8-3.2-2.3-9.1-3.4-12.9-3-10.8-5.2-20.9-4.3-19.9.5.5 1.6 4.5 2.6 8.9.9 4.4 2.5 10.4 3.6 13.3 1 2.9 2.4 7.4 2.9 9.9.6 2.5 2.4 7.2 4 10.5 1.7 3.3 3.1 7 3.2 8.2 0 1.1.4-.2.8-2.9l.7-5 .3 6.2c.1 3.5.4 6.7.5 7.3.1.5.3 1.4.4 2 0 .5.8 1 1.6 1 .7 0 1.8.6 2.2 1.2.4.7 2.3 2.1 4.1 3 3.2 1.7 16.7 1.8 243.3 1.8H1280V0H0zM650.3 61.4c5 2.9 16.2 9.5 24.7 14.5s16.3 9.1 17.3 9.1c.9 0 1.7.4 1.7.9 0 .4 2.5 2.5 5.5 4.5s5.5 3.9 5.5 4.2c0 .5-6.4-2.9-11.7-6.4-2.1-1.3-2.3-1.2-2.9.4-.4 1.1-3.6 8.1-7.2 15.7-5 10.6-6.2 14.1-5.2 14.7.7.4 6.3 1.1 12.4 1.5 6.1.3 14.7 1.3 19.1 2 9.4 1.6 50.1 5.8 51.5 5.3.6-.2.2-1.9-.9-4.1-4.1-8.1-3.7-8.9.9-1.7 1.8 2.7 3.6 5 4.2 5 1 0 16.5-12.7 18.7-15.4.8-.9 1.2-1.8 1-2-1.3-1-22-12.6-22.6-12.6-.5 0-2.8-1.4-5.3-3-6.9-4.6-4-3.6 6.2 2.2 15.7 8.8 19.2 10.7 22.6 12.5 1.7.9 3.2 2.3 3.2 3.1 0 1.1-.3 1.2-1.4.3s-2.9.1-8.7 5.3c-4.1 3.5-8.7 7.5-10.4 8.9l-3 2.5 2 2.3c1.1 1.2 4 3.5 6.4 5 2.5 1.6 4.6 3.5 4.7 4.3.3 1.9-3.4.8-4.6-1.4-.8-1.5-6.2-5-7.7-5-.5 0 .6 11.6 1.2 14 .3.8.9 5.5 1.4 10.5.6 4.9 1.6 14.2 2.5 20.5.8 6.3 1.7 14.7 2.1 18.6.3 3.9.9 8.4 1.4 9.9l.7 2.9 2.9-4c1.7-2.1 3.2-4.1 3.5-4.4s1.8-2.5 3.3-5 4.5-6.9 6.7-9.9l3.9-5.5-3.3-6c-1.9-3.4-5.2-9-7.5-12.6-9-14.5-13.3-22.1-12.7-22.7.3-.3.9.3 1.3 1.4.5 1.1 3.2 5.8 6.1 10.4s7.8 12.7 10.9 17.9 5.9 9.7 6.3 10c1.3 1 1.9 3.9.6 3.4-.7-.3-2.8 1.9-4.9 4.8-7.9 11.3-14.7 21.9-14.7 22.9 0 .5 1.9 1.9 4.3 3 2.3 1.1 3.1 1.8 1.7 1.4-8.6-2-7.7-2.5-8.4 5.6-.4 4.1-.8 9.6-1 12.4-.1 2.7-.3-.7-.3-7.8 0-7-.2-12.9-.4-13s-2-1-3.9-2l-3.5-1.7 3.4.6 3.4.6-.7-6.8c-.4-3.8-1-9.8-1.2-13.4-.3-3.6-1.2-11-2.1-16.5-2.1-14.5-5.2-36.8-5.3-38.3 0-2.7-1.8-.7-7.5 8.6-3.2 5.3-8.5 13.1-11.6 17.2s-9 12.6-13.2 18.7l-7.5 11.3 4.6 2.1c2.6 1.1 6.9 3 9.5 4.1s4.6 2.2 4.4 2.4c-.4.4-13.2-4.3-15.6-5.8-2.7-1.7-3.7-.4-2.2 2.8 1.3 3 1.1 3.7-.7 2.5-.7-.4-1.4-2.1-1.6-3.7-.1-1.6-.7-2.8-1.3-2.7s-4.2.4-7.9.7c-3.8.2-13.2 1.4-20.9 2.6-7.7 1.1-18.7 2.8-24.5 3.6-15 2-39 6.1-39.6 6.6-.7.8 17 17.7 36.1 34.5 4.4 3.9 10.5 9.7 13.5 12.9 6 6.5 3.1 4.1-10-8.1-4.1-3.9-11.1-10.2-15.4-14-4.4-3.9-11.5-10.3-15.8-14.3-4.4-3.9-8.4-7.2-8.9-7.2-1.7 0-.2 52.9 1.5 55.5 1.1 1.7 1.1 2.2-.2 3.4-1.3 1.3-1.4 5.1-.8 29.4.4 16.8 1.1 28.7 1.7 29.9.8 1.5.8 2.2 0 2.7-1.3.8-3.3 41.2-2.1 42.5.5.4 3.2-1 6.2-3.2 2.9-2.2 9.1-6.3 13.8-9.1 4.7-2.9 12-7.6 16.3-10.6s8.2-5.5 8.6-5.5c1 0 11.3-10.5 16.5-16.8 1.9-2.4 9-10 15.6-17s12-13.1 12-13.6.8-1.8 1.7-2.8c1-1.1 1.9-4.5 2.3-8.6l.7-6.7.2 6.7.1 6.7 3.3.6c8.9 1.4 40.6 3.9 41.3 3.2.4-.3-.1-2.6-.9-5.1-2-5.8-1.3-5.9 1.3-.2 1.5 3.4 2.8 4.8 5.4 5.7 1.9.7 3.2 1.7 2.9 2.1-.3.5.4 1.2 1.6 1.5s2.1.9 2.1 1.3c0 .5-1.5.4-3.2-.1-2.2-.6-3.4-.6-3.6.1-.2.6-1 .6-2.3 0-1.5-.8-2.6-.4-5.6 2.3-2.1 1.9-6.3 5.3-9.3 7.6-3 2.4-7.5 6.2-10.1 8.5-2.5 2.2-5.6 4.8-7 5.7-1.3.9-2.1 2-1.7 2.4.6.6 6.7-2.1 7.8-3.4.3-.4 3.4-2.6 6.8-4.9 8.2-5.4 17.2-7.9 28.7-8.1 8.6-.2 9.1 0 12.5 2.8 2.8 2.4 3.1 2.9 1.3 2.4-1.9-.4-1.7 0 1.4 3.3 3.8 4 2.9 6.3-1.1 2.6-8.5-8.1-9.4-8.5-17.3-6.3-3.5.9-4.1 1.5-3.7 3.4.2 1.2.5 3.5.8 5.2.3 1.6.3 2.1 0 1-.4-1-1.3-2.9-2-4-.8-1.2-1.1-2.5-.7-2.8.3-.4.2-.7-.3-.7s-2.8 1.7-5.1 3.8c-2.3 2-6.3 5.5-8.9 7.7-2.5 2.2-6.3 5.5-8.3 7.3l-3.6 3.4 5.5-.5c5.4-.5 11.2-2.8 13.9-5.4.7-.8 2.7-1.7 4.3-2s3.5-1.5 4.3-2.7c.8-1.1 1.5-1.5 1.5-.8 0 .6 1 1.2 2.3 1.2 1.5.1.7.7-2.5 1.9-2.5 1-5.9 2.7-7.5 3.8-4.6 3.3-11.3 6.4-12.3 5.8-.6-.3-1-.1-1 .5 0 .8-.6.8-2 0-2.5-1.3-9.9.4-11.6 2.8-1 1.4-1.3 1.2-1.8-1.5-.6-2.7-1.1-3.1-4.1-3-1.9 0-3.2.5-2.9.9s0 .8-.5.8c-1.7 0-1.3-3.7.6-5.6 2.4-2.4 4.4-6.4 3.2-6.4-2.2 0-7.9 3-7.9 4.2 0 1-.3.9-1-.2-.7-1.2-2.2-1-10.2 1.2-5.1 1.5-14.2 3.9-20.3 5.3-18.1 4.3-18.7 4.5-18.1 6 .4 1.2.2 1.2-1.3.3s-3.5.1-12.2 5.9c-5.7 3.8-15.8 10.5-22.3 14.8-9.7 6.4-11.6 8-10 8.6 1.5.6 1.2.8-1.3.8-2.7.1-3.4.7-5.2 4.3-1.1 2.4-3.3 8.8-5 14.3-1.6 5.5-3 9.2-3 8.3-.1-.9 1.5-6.9 3.4-13.4 2-6.4 3.4-11.8 3.3-12-.3-.2-8.7 4.4-13.8 7.6-.8.5-6.4 4-12.5 7.6-11.6 7.1-16.6 10.4-17.5 11.6-.4.4-2.5 1-4.8 1.3-8.5 1.1-29.9 6.1-31.7 7.5-.5.4-2.4.8-4 .8-3 .1-19.2 2.8-22.8 3.9-1.5.4-1.7 1.1-1.2 3.1.6 2.6.6 2.6-.9.7-1.4-1.7-1.7-1.8-2.6-.5-.8 1.2-1 1.1-1-.8 0-2.7-1.7-3.4-11.5-5.1-3.8-.7-8.4-1.6-10.2-2.1-2.2-.5-3.3-.4-3.6.4-.5 1.3 12.2 18.7 18.2 24.8 2 2.1 4.2 3.8 4.9 3.8.6 0 1.2.4 1.2 1 0 1.1-7.3-2-7.9-3.3-.2-.5-1.6-2.3-3.1-4-1.5-1.8-4.3-5.6-6.4-8.5-4.9-7.1-7.8-10.2-8.7-9.7-.4.3-.6 4-.4 8.3l.4 7.7-1-6.5c-.5-3.6-.7-7.7-.5-9.2.9-4.7-.7-5-17.1-3.8-8.1.7-14.9 1.3-15.1 1.5-.8.8 4.2 8.9 9.1 14.7 2.9 3.5 7.8 9.8 10.8 14.2 11.1 16 13.8 19.9 14.8 20.9.8.8 1-1.6.7-8.3l-.5-9.5 1 7.5c1.5 11 2.2 12.3 6.2 11.5l3.2-.6-3.3 1.5c-4.3 2-4 2.5 9.3 16.2 5.7 6 10.5 11.3 10.5 11.8 0 .6 1.2 2.4 2.7 4 2.7 3 2.7 3-.8-.2-3.2-2.9-3.9-3.2-6.4-2.2-2.9 1.1-2.9 1.1-1.1-.9s1.7-2.2-5.5-10.3c-4.1-4.6-8.5-9.7-9.9-11.4-1.4-1.6-3.3-3.3-4.3-3.7-.9-.3-1.7-1.3-1.7-2.1 0-.7-.7-1.6-1.5-1.9-.8-.4-2.4-2.5-3.6-4.9s-4.1-6.6-6.4-9.3c-2.3-2.8-5.4-7-6.8-9.5-1.5-2.5-3.9-6-5.4-7.7s-4.3-5-6.2-7.3c-1.8-2.2-3.6-3.8-3.9-3.6-.3.3 0 1.1.5 1.8.9 1.1 2.6 9.3 2.2 10.8 0 .3.6 2.3 1.5 4.5s2.7 8.3 4 13.5c5 19.3 9.3 32.5 10.4 32.3 1.5-.4 1.5 1 .1 2.4-.7.7-.3 2.7 1.4 6.9 1.3 3.3 2.7 6.8 3.1 7.8.9 2.6 1.4 1.9 4.7-7.6 2.4-6.6 2.9-7.4 2.3-3.8-.3 2.4-1.5 6.9-2.5 10-1 3-1.9 6-1.9 6.6 0 .7 3.7-.6 8.1-2.8 4.5-2.1 8.3-3.7 8.6-3.4.2.2-2.8 2.1-6.9 4.3-4 2.1-7.4 4.5-7.6 5.4-.1.8 1.1 3.3 2.9 5.5 1.7 2.1 3.5 4.8 4 5.9 1.1 2.2 1.5 2.6-5.5-5.8-2.1-2.6-4.2-4.7-4.7-4.7s-2.3 1.3-4.1 2.8c-1.8 1.6-5.8 4.5-8.8 6.6-11.8 7.9-11.8 7.9-6.2 9.5 3.4.9 3.3 1-1.8.4-3.8-.4-5.9-1.1-6.8-2.5-.8-1-4.8-3.6-9-5.8-4.2-2.1-9.5-5-11.6-6.3-3.1-1.9-4.6-2.3-7.2-1.7-1.9.4-3.4.6-3.4.3s-.6 0-1.4.6c-1.9 1.6-7.6 3.2-7.6 2.1 0-.5.5-1.2 1-1.5.6-.3 1-1.1 1-1.7 0-.7-.5-.7-1.4.1-1.1.9-1.5.7-1.9-.9-.5-1.9-.2-2.1 2.6-1.6 1.8.3 2.7.3 2 0-.9-.4-.8-1.8.3-5.7.8-2.9 1.9-6 2.4-6.9.6-1 1-4 1-6.8 0-4.2.3-5 1.8-5 1.2 0 2.6 1.7 4.1 5.1 1.2 2.8 2.4 5 2.6 4.8s.6-2.7 1-5.4c.4-2.8 1-6.8 1.5-9l.8-4 .3 4c.1 2.2.1 5.7 0 7.7-.1 2.1.1 3.8.5 3.8 1.7 0 5.4-4.5 5.4-6.6 0-1.2.6-2.4 1.4-2.7 1.2-.5 2.5-2.5 6-9.4.6-1.3 1.4-2.3 1.9-2.3.4 0 .7-.7.7-1.5s.2-1.5.4-1.5 1.1-.3 2-.6c1.3-.5 1.5.3 1.4 4.2 0 2.8.4 5 1.1 5.2.6.2 1.1 1.9 1.1 3.8 0 2.8.4 3.4 2.3 3.5 1.2 0 1.6.3.8.6-1.1.4-1.1.7 0 1.4 1.6.9 1.5 10.2-.1 10.7-1.3.5-1.3 3.9.2 10.2 1 4.2.9 5.3-.2 6s-1 1.1.2 2.4c1.5 1.4 1.7 1.4 2.2 0 .3-.9.6-3.4.7-5.7 0-2.7.3-3.6.7-2.4 1 2.3 6.5-13.4 5.6-16-.5-1.4-.4-1.5.5-.3.8 1.2 1.1 1.2 1.7-.3.3-1 .4-2.1 0-2.4-.3-.3.2-1.2 1.2-1.9 1.5-1.2 1.4-1.3-1-1.4-2.1 0-2.8-.5-2.8-1.9 0-1 .7-2.1 1.4-2.4q1.5-.6.9.9c-.3.7 0 1.4.7 1.4.8 0 1-.9.6-2.8-.3-1.5-.9-5.2-1.2-8.2-.4-3-1-6-1.4-6.5-.4-.6-1.1-2.8-1.5-5s-1.5-6-2.5-8.5-3-8.1-4.3-12.5l-2.6-8 .3 8.7c.1 4.9-.2 8.8-.6 8.8s-.9 1.5-.9 3.2c-.1 2.4-.3 2.7-.6 1-.2-1.2-.7-2.2-1-2.2-.9 0-16.7 8.1-17.7 9.1-.6.5-1.8.9-2.8.9s-1.8.6-1.8 1.3c0 1-1.5 1.4-4.7 1.5-4 .1-4.4-.1-2.5-.9 1.3-.5 2.2-1.4 2-2.1-.3-.7-4.9-3.9-10.3-7.3-8.4-5.1-10.6-6-14.6-6-3.5 0-4.5-.3-4.1-1.4.7-1.7-1.6-3.1-5.4-3.1-1.6 0-3.8-.6-4.7-1.3-1.5-1-.9-1.2 4-1.2h5.7l1.1-4.3c.5-2.4 1.3-4 1.8-3.6.4.4.7-.2.7-1.3s.7-3.4 1.6-5.2 1.8-5 2.1-7.2 1-4.2 1.4-4.5c1.3-.8 1.1-6.4-.2-6.4-.7 0-.9-.9-.6-2.1 1-3.8-1.7-1.4-4.2 3.6-1.3 2.7-3.8 6.3-5.6 8.1-1.8 1.7-3.6 4.2-4 5.5-.7 2.5-2.8 7.4-5.2 12.1-.7 1.4-1.3 3.5-1.3 4.6 0 1.2-.4 2.4-1 2.7-1.5.9-1.2-3.4.5-8.3 1.8-5 6.4-14.5 7.5-15.2.4-.3 1.8-2.5 3-5s2.7-4.8 3.2-5.1 1.1-2.3 1.3-4.3c.3-3.2-.4-4.7-4.3-9.9-6.1-8.2-9.2-11.5-9.2-9.9 0 .6-.5 1.2-1.1 1.2s-.8-.9-.4-2c.5-1.5.2-2-1.3-2-1.1 0-2.3.6-2.5 1.2-.3.7-.6.4-.6-.7-.1-1.4.6-2.1 2-2.2 2.9-.2 3.7-1.2 1.9-2.3-.9-.6-1.7-.5-2.2.3-1.2 2-2 0-.8-2.2.8-1.6.8-2.1-.2-2.1s-1.2-1.2-1-4.1c.3-2.3 0-5.1-.6-6.3-.6-1.1-1.6-3.8-2.2-5.9-.6-2-1.5-3.5-1.8-3.3-.4.2-1.3-.2-2-1s-.8-1.4-.2-1.4c.5 0 1-.5 1-1 0-.6-.6-1-1.3-1-1.1 0-1-1.4.1-7.8.8-4.2 1.6-8.4 2-9.2.3-.8.4-2 .2-2.5-.9-3.5-.9-12 .1-13.1 1.3-1.6 3.3-.8 2.5 1.1-.6 1.8 5.7 2.5 7.2.8 1.9-2 1.4-4-1.7-7-3.3-3.1-8.1-10-8.1-11.6 0-.5 1 .3 2.2 1.9 3.4 4.6 8.1 9.5 10.2 10.6 1.7.9 1.9.7 1.3-2.5l-.5-3.5 3.1 1.6c1.8 1 3.4 2 3.5 2.4.2.5 1.6.8 3 .8l2.7-.1-3.1-2.7c-5.1-4.4-7.7-6.2-9-6.2-.7 0-2.1-1-3.1-2.3s-3.1-3.1-4.6-4.1c-1.5-1.1-2.5-2.1-2.2-2.4s1.3.2 2.3 1.1c1 1 2.2 1.7 2.5 1.7.4 0 .7-3.9.7-8.8 0-4.8.5-9.4 1-10.2.7-1 1 1.9 1 9.2v10.6l3.3 2.7c9.2 7.5 13.1 10.1 16.1 10.9 2.9.7 2.9.7 2.3-3.1-.3-2.1-.8-4.7-1.3-5.7-1.6-4.1 1.3-.5 4.1 4.9 2.2 4.4 3.4 5.7 5.6 6.2 1.6.3 2.9 1.2 2.9 2 0 1 .9 1.3 3.3 1.1 2.8-.3 3.2-.7 3.5-3.6.4-3.5-.4-3.9-3.4-1.7-3.2 2.4-5.1 1.9-2.8-.8 2.7-3.1 4.6-6.8 4-7.5-.3-.3-.6 0-.6.7s-.5.9-1.4.4c-2.7-1.5-15.6-13.5-15.6-14.5 0-.9 8.2 5.2 10.5 7.8.6.7 2.2 1.9 3.7 2.8l2.6 1.7-.5-4.3c-.3-2.4-1.1-6.7-1.8-9.6-.7-2.8-1-5.2-.6-5.2s1.3 2.8 2 6.2c1.8 8.8 3.1 12.8 4.1 12.8.5 0 1.8-1.9 2.9-4.3s2-3.4 2-2.4c.1 1-.4 2.8-1 4-.9 1.6-.9 2.2-.1 2.5.9.3.9.9.1 2.4-.6 1.1-.9 2.1-.7 2.3.9.9 20.7 11.3 22.6 11.9 1.3.5 2.2.3 2.2-.3s.3-1 .8-.9c.4.1 1.8-.4 3.2-1.1 2.4-1.4 2.5-1.3.8.6-1 1.1-1.8 2.5-1.8 3.1 0 1.3 6.2 1.6 15.8.6 7-.8 8.8-2.9 7.2-8.5-1.3-4.3-.5-4.8 1.5-1 .8 1.7 1.7 3.1 2 3.1.2 0 1.6-1.1 3.1-2.5s3.3-2.4 4-2.1c1.5.6 3.7-1.9 5.4-6.2 1.9-4.8 3.2-5 1.5-.2-1.1 3-1.1 4-.2 4.1.7 0 5.1.1 10 .2 10 .2 9.8.9 3.4-9.8-4.7-8-6-9.5-7.9-9.5-.7 0-7.3 2.1-14.5 4.6-11.8 4-13.5 4.4-14.8 3-.8-.8-2.5-1.8-3.8-2.2-3.1-.9-12.9-7.5-12.2-8.2.3-.3 1.8.4 3.3 1.5 4.6 3.4 13.4 7.5 14.2 6.6 1.5-1.6 7.9-21.2 7.1-21.7s-2.3.2-9.6 4.4c-2.2 1.2-6.4 3.1-9.4 4.1-2.9 1-5.9 2.5-6.5 3.3-.6.7-2.4 2.2-4.1 3.2-3 1.8-3 1.8-1.2-.2.9-1.1 1.7-2.6 1.7-3.2s.8-1.6 1.8-2.1 3.2-2.9 4.8-5.3c1.6-2.3 4-5.2 5.4-6.4s5.2-6.1 8.5-10.9 8.6-11.5 11.9-14.8c3.2-3.4 7.3-8.5 9.1-11.2 1.8-2.8 4.3-5.7 5.5-6.5 2-1.4 2-1.5-2.3-2-5.3-.7-41.9.9-42.9 1.9-1.1 1-1.2 7.7-.5 32.1.4 13.5.3 21.7-.2 20.4-.5-1.2-1-9.5-1.2-18.5-.2-20.2-.9-28.9-2.2-28.9-.5 0-.7.6-.4 1.3s-.4 2.8-1.5 4.7c-1 1.9-1.6 2.6-1.2 1.5.3-1.1 1-3.6 1.4-5.5s1.1-4.3 1.5-5.2c.5-1.2.2-2-1-2.4-1.3-.5-1.4-.9-.3-1.6s1-1.1-.2-2.1c-.9-.6-2.9-3-4.5-5.2-3.2-4.4-11.2-12.5-12.4-12.5-.5 0-5.1 4.4-10.4 9.7-5.4 5.3-9.7 9.2-9.7 8.6s4.3-5.1 9.5-10c5.2-5 9.5-9.3 9.5-9.7 0-.5 1.7-2.7 3.8-5.1 2-2.3 4.6-6 5.7-8.1 1.1-2.2 4.3-7.5 7.1-11.9 5.9-9.3 27.5-44.9 31.3-51.5 1.4-2.5 2.8-4.6 3.2-4.8s1.3-2.3 2-4.8c.7-2.4 1.7-4.4 2.1-4.4s1.9-2.3 3.4-5c2.9-5.3 5.5-7.1 2.9-1.9-.9 1.7-1.4 3.3-1.2 3.5.3.3 9.4-3.7 20.3-8.9 11-5.2 23.3-10.9 27.4-12.7 14.7-6.4 30-13.9 30-14.8 0-1-2.5-2.4-9.5-5.1-2.7-1.1-4.5-2-4-2 1.7-.1 9.7 2.9 11.9 4.4 1.1.8 2.9 1.5 3.9 1.5 1.8 0 25.7-8.2 42.2-14.5 5-1.9 9.5-3.5 10-3.5 1.3.1-12.9 5.9-23 9.4-4.4 1.6-9.5 3.5-11.3 4.3-1.9.8-5.2 2-7.5 2.7-2.2.6-4.2 1.6-4.4 2.2-.4 1.1 11.4 4.8 34.2 11 14.2 3.8 13.6 3.9 16.3-3.1 1.2-3.3 2.7-6.9 3.3-8 .8-1.7.9-1.6.3.5-.3 1.4-1.3 5.1-2.2 8.2s-1.4 5.9-1.2 6.2c.3.2 10.6-.8 23-2.4s27.1-3.4 32.8-4c5.6-.7 10.2-1.5 10.2-1.9s-3.3-2.6-7.2-4.8c-8.1-4.4-38.6-22.8-39.5-23.7-1.7-1.7 1.6-.1 10 4.8m-210.4 57.5c-6.8 7.8-8.1 9.5-8.9 11.5-.4 1.2-1.1 13.1-1.5 26.6s-1.3 29.7-2 36l-1.4 11.5.5-13.5c.2-7.4.7-19.8 1-27.5.9-19.8.9-24.3 0-29.9-.6-3.6-.6-4.7.3-4.2.6.4 1.1.2 1.1-.5 0-1.1 12.6-13.9 13.7-13.9.3 0-1 1.8-2.8 3.9m-44.3 6.6c-.8.8-2.2 1.5-3.2 1.5-1.6 0-19.5 11.5-37.4 24l-7.5 5.2 17-.5c19.3-.6 18.4.8-1.2 1.9-17.8 1-17.4.3-10.4 18.9 7.8 20.6 13 32.5 14 32.5.4 0 2.8-1.8 5.5-4 5.9-4.9 7.1-5.2 2.7-.6-4.3 4.4-3.8 6.8 1.6 8.1 2.3.6 4.5 1.4 5 1.9.4.5-.3.6-1.7.3s-4.4-.9-6.7-1.3c-4.7-.7-5.4.4-3.2 4.9.9 2 .9 2-.4.4q-2.7-3.3-2.7 0c0 1.5-.2 1.5-1.4-.2-.7-1-1.1-2.7-.8-3.8.4-1.7.2-1.9-1.4-1.3-1 .4-7.7 2.3-14.9 4.1-7.1 1.9-21.8 5.9-32.5 9-10.7 3-20 5.5-20.7 5.5-.6 0-1.9.7-2.8 1.6-1.4 1.4-1.5 6.9-1.4 50.1l.1 48.5 2.6-.6c2.6-.5 2.6-.5.5.6-1.2.6-2.7 2.5-3.2 4.2-1.6 4.8-7.2 32.8-6.7 33.3.4.4 16.9-9.5 34.1-20.5 5.5-3.5 12.9-9.2 16.5-12.5l6.5-6.2-6.2 6.5c-3.5 3.6-6.3 7.1-6.3 7.8 0 .6-.6 1.2-1.3 1.2-1.4 0-12.9 6.8-27.3 16-4.7 3-10.1 6.5-12.1 7.6-1.9 1.2-3.1 2.4-2.7 2.7.5.2 9.5 2.4 19.9 4.7 10.5 2.3 19.2 4.4 19.4 4.6.9.8-2.4.3-13.2-2.1-6.2-1.4-14.3-3.2-18.2-4-3.8-.7-7.7-1.6-8.6-2-1.3-.5-1.9.9-3.3 7.2-1 4.3-2.7 11.3-3.8 15.7-1 4.3-1.7 8-1.5 8.3.6.6 22.1 2.3 29.5 2.3 3.4 0 6.2.3 6.2.8 0 .7-14.4.1-29.7-1.2-5.5-.5-6.3-.3-6.4 1.2 0 1.2-.3 1-1-.6-.5-1.3-.6-2.8-.3-3.4.3-.5 1.2-3.5 1.9-6.6.8-3.2 2.1-8.8 3-12.7.8-3.8 1.4-7.5 1.3-8.2-.2-.9-2.2 0-5.8 2.5-10.4 7.2-10.5 6.8-.3-1.3l6.2-4.9-4.2-4.1c-6.7-6.3-15-13.5-15.7-13.5-.4 0-.7.6-.7 1.2 0 .7-1.5 6.7-3.3 13.3-4.4 16.1-6.1 23.7-5.6 24.2.2.2 3.5-1.7 7.2-4.3 6.6-4.4 6.7-4.5 2.5-.8-2.5 2.2-5.4 4.7-6.5 5.6-2.1 1.7-2.1 1.7 1.2 1.8 1.7 0 3.2.4 3.2.9s-.9.7-2 .4-2-.1-2 .5 4.2 2.4 9.3 4.1c10.6 3.5 9.3 3.4-4.7-.4-8-2.2-10-2.4-10.7-1.3s-.9 1.1-.9-.1c0-.9-.7-1.1-2.2-.8-2.2.6-2.2.5-.4-.8 1.8-1.4 1.8-1.7-1.9-7.2-3.3-5-3.9-5.5-5-4-1.6 2.2-4.9 14.6-4.1 15.4.3.3 1.7.1 3.1-.5 1.5-.7 2.5-.8 2.5-.2s-.6 1-1.2 1c-.7 0-2.5.7-4.1 1.4-2.7 1.5-2.7 1.4-2.1-1.2.3-1.5 1-4.2 1.6-5.9.5-1.8.9-4.3.8-5.5-.5-6.1 0-8.7 2-9.3 1.3-.4 2-1.5 2-3.3 0-2.2.2-2.4 1.1-1.2q1.05 1.65 1.5.3c.3-.6 3-4.6 5.9-8.7 7.3-10.1 10.5-15.3 10.5-16.9 0-1.2-12.7-4.3-13.7-3.3-.3.2.1 1.4.7 2.7 1.1 1.9.8 3.7-1.6 11.2-1.6 4.9-3 8.4-3.2 7.9-.6-1.8-4.8 1.1-7 4.7l-2.1 3.6.6-3.6c.3-2.2.1-3.9-.6-4.3-.7-.5-1.1.3-1.1 2.1q0 2.85-.9 1.5c-.6-1-2.2 1-5.4 7-6.4 11.8-24.9 49-24.5 49.3.4.4 19.6-14 23.6-17.7 1.8-1.7 3.2-3.9 3.2-5.3 0-3 1-5.5 2.1-5.5.4 0 .6.7.3 1.5-.4.8-.1 1.5.6 1.5 1 0 1 .3 0 1.4-1.4 1.7.9 15.7 3.4 20.7.8 1.6 1.1 2.7.6 2.4-.4-.3-.6.4-.3 1.5s.9 1.7 1.4 1.4.9.5.9 1.7c0 1.3 1.7 4.1 3.8 6.4 2.8 3.1 3 3.3.5 1.1-1.7-1.5-3.6-2.6-4.1-2.2-.5.3-1.2-.8-1.6-2.5-.9-4.6-2.4-2.6-1.7 2.3.4 2.4.4 5.9.1 7.8-.5 3-.6 3.2-1.2 1.3-.3-1.2-.5-4-.4-6.2.1-4.5-.9-4.1-3.9 1.4-1.5 2.6-1.6 2.7-1 .5 1.8-6.6 2.2-6.4-12-7.7-7.1-.6-13.8-1.2-14.9-1.2-1.6-.1-1.8.4-1.3 3.6.4 2.6.3 3.3-.3 2.2-2.4-4.2-1.3-7.6 10-30.4 6.3-12.7 11.5-23.5 11.6-24 .1-.6 1.4-3.8 2.8-7.2 3.3-7.9 3.3-10.7 0-15.5-2.3-3.2-2.6-4.5-2.2-8.8.3-2.8 1.2-5.8 2.2-6.8 2.3-2.6 2-6-1.4-16-3.7-10.9-5.9-20.3-5.4-23.3 1.7-12.8 2.8-17.9 4-18.3.8-.3 1.4-1.3 1.3-2.3 0-1.6-.1-1.6-.9.2-.8 1.9-.9 1.9-.9-.3-.1-1.2.3-2.2.8-2.2s1.2-1.5 1.6-3.3c1.1-5.4 1.6-6.8 2.4-6.3.4.3 1.6-1.8 2.5-4.5 1-2.7 2-4.8 2.2-4.6s-.7 3.5-2 7.3c-1.4 4.3-2 7.7-1.6 9 .4 1.1 3 3.8 5.6 5.9 2.7 2.2 8.4 7 12.8 10.7 7.4 6.4 9.6 7.8 9.6 6 0-.4-.8-4.3-1.9-8.7s-2.9-12.3-4-17.6c-1.9-9-6-18.1-11.1-24.9l-1.8-2.4-1.8 5.9c-.9 3.3-1.9 5.5-2.1 4.9-.2-.7.6-4 1.7-7.4 1.8-5.5 4-21.8 3.9-29-.1-2.3-.2-2.2-1.6 1-2.4 5.3-2.8 1.7-.5-4.3 1.1-2.8 2.5-7 3.2-9.2s2.9-6.9 5-10.5c2-3.6 4.8-8.5 6.2-11 6.1-10.9 7-12.6 8-13.5 1.5-1.4-1.5 4.3-8.4 16.3-3.3 5.7-5.7 10.6-5.4 10.9.2.3 1.9-.5 3.5-1.7 1.7-1.2 3.1-1.9 3.1-1.6s-2 1.9-4.5 3.6-4.5 3.7-4.5 4.4 1.4 3.2 3 5.4c4 5.6 3.8 6.7-.2 1.3l-3.3-4.2-1.1 7.8c-1.9 13.5-2.4 21.4-1.3 20.8.5-.4 2.5-3.8 4.4-7.6 2-3.8 3.7-6.9 4-6.9.7 0-.5 2.7-5.2 11.7-2.4 4.5-4.3 9.1-4.3 10.1 0 1.1 1.9 5.2 4.2 9.2 4.9 8.5 4.5 8.7 11.5-6.3 2.5-5.3 5-9.7 5.5-9.7s.2 1.2-.5 2.7c-.8 1.6-3.6 7.2-6.2 12.6l-4.7 9.9 2.2 9.6c1.2 5.3 2.6 11.9 3.2 14.7.6 2.7 1.5 6.1 2.1 7.5 1 2.3 1.2 2.9 1.6 5.5.1.5 1.1-.7 2.2-2.8 1.1-2 2.2-3.7 2.4-3.7.3 0-.2 1.7-1.1 3.7-.9 2.1-1.8 4.5-2.1 5.4-.3 1.2 3.1 3.9 12.9 10.1 16.6 10.6 20.4 12.8 21.2 12.8.7 0 .1-92.6-.5-96.2-.2-1.1-1-1.6-2.4-1.3-1.1.2-7.3 1.4-13.7 2.6s-12.1 2.5-12.6 2.8-1.7 8.2-2.5 17.6l-1.6 17 .5-13c.3-7.2.7-13.9 1-15.1s-.1-2.8-1-3.6c-1-1.1-1.2-1.8-.4-2.6.7-.7.5-1.8-.9-3.6-5-6.3-8.4-9.7-9.3-9.1-1.7 1.1.3-2.9 2.8-5.5 1.3-1.4 5.5-6.9 9.4-12.3 3.8-5.3 7.2-9.7 7.5-9.7 1 0-7.1 11.6-13.4 19.3-2.4 2.8-4.3 5.5-4.3 6 0 1.1 9.2 12.6 10.2 12.6.4.1 1.2-1.4 1.7-3.2.5-1.7 4.2-12 8.1-22.7 7.9-21.2 10.1-28 9.5-28-.2 0-5.3 3.5-11.2 7.8-14.7 10.6-17.3 12.4-17.3 11.9 0-.3 8.6-6.8 23.3-17.6 3.4-2.5 5.6-4.8 5.4-5.6-.3-.7.1-1.2 1-1.1 1 .1 2.5-2.3 4.4-6.9 1.6-3.9 2.9-6.4 2.9-5.7s-.7 2.9-1.5 4.9-1.4 3.8-1.2 4c.5.4 32-32.4 32.5-33.8.2-.5 0-.9-.5-.9s-1.8-.7-2.9-1.5c-1.7-1.3-1.5-1.3 1.7 0 2 .8 3.9 1.1 4.3.8.3-.4 2.1-.7 3.9-.8 1.7-.1 5-.5 7.2-.9 2.9-.4 3.4-.4 1.9.3-1.2.5-4.2 1.2-6.8 1.6-2.5.4-4.4 1-4.2 1.4 1.1 1.7 21.4 13.1 23.4 13.1 2.7 0 43.5-26.8 42.7-28-.3-.6.3-1 1.4-1s2.3-.5 2.6-1c.3-.6 2-1 3.6-1 2.7 0 2.9.2 1.5 1.5m573.3 25.9c3.2 3.9 25 26.7 30.7 32.2l4.2 4 3.9-1.9c2.1-1.1 4.6-2.6 5.6-3.5.9-.8 1.7-1 1.7-.4s-2.2 2.3-5 3.8c-5 2.7-6.2 4.6-3.7 6.1.8.4 3.8 3 6.8 5.7l5.4 4.9-4.9-3.4c-2.7-1.9-5.1-4-5.3-4.7-.3-.6-.9-1.2-1.4-1.2-.9 0 24.2 38.9 25.2 39 .3 0 1.6-2.3 2.9-5.1 2.3-4.9 2.4-5.2.8-8-1-1.6-1.3-3.1-.7-3.4.5-.4 1.2.2 1.5 1.2s.9 2.7 1.4 3.8c1.1 2.8 1.2 7.4.1 5.6-.7-1-1.5-.3-3 2.8l-2.2 4.2 4.7 9.9c4.7 10 6.7 12.5 4.4 5.5-.7-2-.9-3.9-.6-4.2 1-1 1.5.1 2.6 5.3.5 2.7 1.7 7.8 2.6 11.4 5.2 21.8 7.2 35.4 6.6 44.3-.6 10.3-1.8 10.7-1.4.5.5-11.3.1-11.9-5.1-7.1-2.3 2.1-7.7 6.5-11.9 9.7-4.3 3.2-7.8 6.2-7.8 6.6s2.4 1 5.3 1.4c7.8 1 11.8 1.8 11.4 2.3-.4.4-11.7-1.1-16.6-2.3-2.1-.5-2.3-.3-1.7 2.3.4 1.8.3 2.3-.2 1.4-1.3-1.8-1.8-.7-3.3 7.9-.7 4.1-1.4 6.8-1.6 6-.2-.9.3-4.7 1.1-8.5s1.3-7.2 1.1-7.4-5.7 2.8-12.2 6.6-13.9 8.2-16.5 9.7c-2.7 1.5-4.8 3-4.7 3.4 0 .9 24.3 15.2 25.8 15.2.6 0 1.2-.8 1.2-1.8.1-1.6.2-1.6.6.1.4 1.5 1.1 1.7 5.1 1.1 2.6-.3 6-1.4 7.5-2.3 2.6-1.5 2.8-2 2.4-6.1-.5-4-.4-4.3.9-2.5.8 1 1.4 2.5 1.4 3.3 0 2.5 2.7-.5 6.6-7.6 3.8-6.7 8.4-13.9 8.4-13 0 .3-2.2 4.8-5 9.9-2.7 5.2-5 9.9-5 10.6 0 1.6 6.2-.9 6.9-2.8.2-.6 1.5-2.8 2.8-4.8l2.5-3.6-.8 3c-.4 1.6-1.2 4.8-1.9 7.1-1 3.5-1 4.6.4 7.5 2 4 1.7 11.8-.5 13.5-1.9 1.5-5.4 10.1-5.4 13.2 0 1.5.9 4.7 2 7.1s2 5.7 1.9 7.5l-.1 3.1-1-3.5c-.5-1.9-1.3-3.7-1.7-4-.5-.3-1.4-2.9-2.1-5.9-.9-3.6-1.5-4.9-2.1-4-.7 1.1-.9 1-.9-.4 0-.9-.6-1.7-1.4-1.7s-1.7-.8-1.9-1.8c-.5-1.7-1.1 3-.8 5.5.1.7-.3 1.3-.9 1.3-.5 0-1-2-1-4.5 0-3.3-.4-4.5-1.5-4.5-.9 0-1.5-.9-1.5-2.5 0-1.4-.4-2.5-.9-2.5s-1.5-1.5-2.2-3.4c-.7-2-1.7-3.2-2.5-2.9-.6.2-1.5 0-1.9-.6-.8-1.5.4-5.3 1.5-4.6.5.3 1.2 0 1.6-.6.5-.9-.2-1-2.6-.6-1.8.4-3.9.7-4.7.7-1.9 0-.8 3.6 2.3 7.2 1.2 1.6 2.6 3.8 3 5 1.2 4.1 7.5 13 12.4 17.9 3 2.9 4.3 4.9 3.5 5.1-1.1.2-1 1.1.4 4 2.4 4.8 3.5 9.2 2.1 8.3-.5-.3-1-1.6-1-2.9 0-1.2-1.7-4.2-3.8-6.5l-3.8-4.3-3.7 4.8c-2 2.6-3.7 5-3.7 5.3.1.9 11.1 7.1 12.5 7.1 1.6 0 2.7 2.7 1.5 3.5-.6.4-1 .2-1-.4 0-1.4-11.3-8.1-14.1-8.3-1.3-.1-3.5.1-4.9.5-2.2.6-2.2.5.3-.5 2.5-1.1 3.7-2.8 1.9-2.8-.4 0-3.2-2.1-6.2-4.6-8.3-6.9-24.4-17.9-25.5-17.5-1.6.6-19.7 4.9-23.5 5.5-2.4.5-3 .4-2-.3.8-.5 3.3-1.2 5.5-1.5 2.2-.4 5.7-1.1 7.8-1.6 2-.6 5.5-1.5 7.7-2 2.2-.6 3.8-1.5 3.6-1.9-.3-.5-5.1-3.9-10.7-7.7-5.5-3.8-10.3-7.3-10.7-7.9-.3-.6 0-.6.9.1 5.4 4 22.1 14.5 22.5 14.1.3-.3-.4-5.4-1.5-11.4-1.1-5.9-2.4-13.5-2.9-16.8-.7-5.6-.9-6-3.2-5.8-1.4.1-1.9 0-1.2-.3 1-.5 1-.9.1-2.1-1.1-1.2-.8-1.3 1.4-.8l2.7.7v-12.6c0-6.9.3-12.6.8-12.6.4 0 .6 5.7.4 12.6l-.3 12.6 4.3-2.6c2.4-1.4 10-5.8 17.1-9.8 8.6-4.9 12.7-7.8 12.7-9 0-.9-1.8-5.8-4-10.9-2.3-5-3.9-9.3-3.7-9.6.4-.3 4.4 8.2 6.6 13.9 1.1 2.9 2.5 3.6 3.7 1.7.3-.6 2.6-8.5 5-17.5 3.9-15.1 4.1-16.7 2.8-19.2-4.2-8.2-8.4-17.6-8.3-19.1 0-.9.9.2 1.9 2.4 3.3 7 6.8 14.9 7.4 16.9.6 1.6.8 1.5 2.8-1 3.6-4.8 4.3-5.1 1.8-.9-3.7 6.3-3.8 6.4-6.4 17.5-1.4 5.8-3.4 13.5-4.5 17.2-1.1 3.8-1.7 6.8-1.5 6.8 1.9 0 19-13.5 23.7-18.8 2-2.2 1.9-4.7-.8-18.4-1.2-6.6-2-8.8-4.2-12.7-.2-.2-1 .2-1.9 1-1.6 1.3-1.6 1.2-.4-1 1.4-2.6 1.3-2.8-5.1-7.4-2.3-1.7-2.3-1.7.9-.1 1.9.8 3.6 1.4 3.8 1.1.5-.4-3.9-11.3-6.7-16.9-2-4-23.9-37.6-27.1-41.8l-2-2.5.7 3c.5 2.6.5 2.7-.5 1.2-1.1-1.7-1.7-3.7-1.9-6.1-.2-2.1-1.7.9-2.7 5.7-.7 2.9-2.6 11.3-4.3 18.7s-3.2 15.3-3.4 17.4l-.2 4 7.5 2.2c8.7 2.6 6.9 3.2-2 .7-3.3-.9-6.3-1.4-6.6-1-.4.3 1 4.5 3 9.3s3.5 8.9 3.2 9.1c-.2.2-1.7-2.7-3.2-6.6-1.6-3.9-3.2-7.1-3.6-7.1s-.9 3.3-1.1 7.2c-.3 6.9-.3 6.8-.5-2.1l-.2-9.5-3.2 3c-1.8 1.6-5.8 4.9-8.8 7.4-3 2.4-6.3 5-7.2 5.8-1 .8-1.8 1.3-1.8 1 0-.2 4.5-4.4 10.1-9.2 5.5-4.9 9.7-9.2 9.2-9.6-.4-.4-7.5-3-15.6-5.6-8.1-2.7-14.4-5-13.9-5.2.5-.1 7.1 1.8 14.7 4.3 7.5 2.6 13.9 4.4 14.2 4.1s-.2-1.8-1.1-3.3c-1.5-2.5-1.4-2.5 1.2.4l2.8 3.3 1.6-5.3c.9-2.8 2.4-9 3.3-13.7s2.7-12.8 4.1-18c1.3-5.2 2.4-9.9 2.4-10.6 0-.6-9-4.8-20-9.4-11.1-4.5-19.9-8.4-19.7-8.6.3-.4 33.4 12.8 36.9 14.7 1 .5 1.8.6 1.8.2s-8.7-9.7-19.3-20.6c-10.5-10.8-18.3-19.4-17.3-19.1 1.1.4 3.1 2 4.5 3.8m-25.3 10.5c-1.6 1.8-1.3 2 7.9 5.6 5.2 2.1 9.4 4 9.2 4.2-.3.2-4.2-1.2-8.8-3-4.6-1.9-8.5-3.1-8.7-2.6-.2.4 8.6 14.1 19.6 30.6 18.7 28.1 23.8 36.1 21.4 33.8-1.3-1.3-42-62.4-42.5-63.9-.2-.6-.7-.8-1.1-.5-.7.7-9.5 23.4-10.6 27.4-.4 1.6-2.6 7.4-4.9 12.7-2.4 5.4-4 10.2-3.6 10.8.3.5 0 1-.8 1-2.2 0-2.8-1.2-1.3-2.9 1.6-1.8 3.8-7.4 6.5-16.9 1-3.4 2.6-7.1 3.5-8.1.9-.9 1.6-2.4 1.6-3.2s.4-1.9.8-2.5c1.7-1.8 7.4-19.4 6.8-20.9-.4-1.1.1-1.5 1.9-1.5 1.3 0 2.7-.5 3-1 .3-.6.9-1 1.2-1s-.2.8-1.1 1.9m-542.8 4.4c-4.8 9.4-5.3 14.2-3.3 30.7.1.8.5 6 .9 11.5.8 10.3 2.3 17.5 3.7 17.5.5 0 .5.7.2 1.7-.4 1.1-.3 1.4.5.9.7-.4 1.2-.1 1.2.8 0 .8-.4 1.6-1 1.8-.5.1-.6.8-.2 1.4.5.9 5 .8 17.2-.2 19.5-1.6 19.5-1.6 18.7-.8-.4.4-2.1.8-3.9.9-24.5 2-31.4 2.8-32 3.3-.5.6 1.3 12.8 3.8 24.2 1.6 8-.6 1.6-3.7-10.3-2.6-10.3-3.7-13.1-5.3-13.7-1.7-.7-1.8-.9-.4-.9 2.5-.1 3.3-4.4 2-10.5-.6-2.8-1.6-10.5-2.2-17.1s-1.3-13.9-1.7-16.3c-.6-4.5-1.8-4.6-2.7-.2-.3 1.4-1.2 5.4-2.1 9s-1.9 7.6-2.1 9c-.3 1.4-1.2 4.7-2 7.4-.7 2.7-1.4 6.3-1.4 8s-.7 4-1.5 5c-.8 1.1-1.5 3-1.5 4.2 0 1.3-.4 2.6-1 2.9-.5.3-1 1.1-1 1.8 0 .8.3.8 1.2-.1.7-.7 2.1-1.1 3.3-1.1 1.5.1 1.6.2.3.6-.9.2-1.9 1-2.1 1.8-1.1 2.8 2.3 21.5 6.1 33.3 2.2 6.8 3.5 12.1 2.9 11.9s-2.8-6.6-4.9-14.3c-7.2-25.6-6.6-24.6-6.9-11.9-.3 14.6-.3 19.1.4 20.9.4.9 3.4 3.6 6.9 6.2 6.3 4.6 8.8 7.6 8.7 10.4 0 1-.2 1.1-.6.2-.2-.6-1-1.2-1.8-1.2-.7 0-1.8-1.2-2.4-2.8-1.6-3.5-11.3-11.4-12.5-10.1-1.7 1.6-2.8 1-2.1-1.1.4-1.3-.2-3.2-1.6-5.3-1.2-1.7-1.6-2.6-.9-2 3 2.7 3.7 1.4 4.3-7.9.3-5 .3-12 0-15.6-.6-6.3-.6-6.4-2-3.7-1.3 2.5-1.9 4.4-2.8 10-.2 1.1-1.1 4.2-1.9 6.9-1.3 3.9-1.4 5.2-.3 6.4 1 1.3.9 1.5-.5.9-1.3-.5-1.9 0-2.3 1.6-1.6 7.6-3.8 18.6-4 20.7-.1 1.4-.3 3.2-.3 4-.1.9-.5 1-1.1.5-.6-.6-.3-4.1 1-9.5 1.1-4.7 2.7-12.5 3.5-17.5.8-4.9 2.2-10.3 3-12 1.7-3.6 8.4-27.2 8.4-29.6 0-1 .4-1.9.9-2.1.6-.2 1.4-2.3 2-4.8.5-2.5 1.7-7.9 2.6-12s2.4-9.8 3.4-12.5c1-2.8 2.4-7.2 3-9.9.6-2.6 2-6.7 3-9 1-2.2 2.2-5.2 2.6-6.6 1.3-4.2 4.6-10.2 5.3-9.6.3.4-.1 2.1-1 3.9m388.7 164.4c-1.1.3-2.4.9-2.9 1.3-1.5 1.4-1 10 .9 17 1 3.6 1.9 7.7 2 9.2.2 1.4.6 5 .9 8 .7 5.2.6 5.2-1.1 3.3-1-1.1-4-3.3-6.7-4.9-3.6-2.1-4.5-3.1-3.5-3.7s1.1-.9.2-.9c-3.1 0-.7-4.8 2.6-5.3 2.4-.4 4.3-2.5 3.5-3.9-1.2-1.9-1.2-18.3-.1-19.1.7-.5-.4-.7-2.5-.5s-3.8 0-3.8-.4 2.8-.7 6.3-.7c3.4.1 5.3.3 4.2.6m6.4 56.9c-1.3 1.4-3.6 3.2-5.1 4-1.6.8-2.8 2.1-2.8 2.9 0 .7-.8 2-1.7 2.7-2.9 2.1-15.3 17.9-15.3 19.5 0 .4-2.1 3-4.5 5.6-4.3 4.5-11.6 8.7-15.4 8.7-.9 0-2.6.7-3.7 1.5-2.2 1.5-14.9 6.5-16.6 6.5-2 0 .3-1.8 3.1-2.3 1.6-.3 4.2-1.8 5.7-3.2l2.9-2.6-2.6.5c-2 .4-2.8.1-3.1-1.2-.4-1.4-1.4-1.8-4-1.8-2.5.1-3.4-.2-3.1-1.1.6-1.4-3.9-2.8-6.2-1.9-.9.3-1.8-.1-2.1-.9-.4-.8-1.4-1.5-2.3-1.6-1 0-.8-.5.9-1.2 1.4-.7 4.3-2.5 6.4-4.1 2.9-2.3 3.7-3.5 3.3-5.3-.5-2.8.4-2.9 2.7-.4 1 1 2.5 1.8 3.4 1.6s2.2-.4 2.7-.5c.6 0 .1-.7-.9-1.5-1.9-1.5-1.9-1.5.1-1.5 1.2 0 3.3-1.4 4.8-3.2l2.7-3.2-2.1-1.7c-2-1.6-1.9-1.7 1.9-2.3 7.1-1.1 16.1 1.3 11 2.9-2.3.7-4.4 5-3.6 7.1 1.2 3.1 13.4 2.4 15.2-.9.4-.7.4-.9-.1-.5-1 1-3.7-1.1-2.9-2.3.3-.5-.2-.9-1.1-.9-1.2 0-1.5-.6-1-2.1.5-1.4.2-2.5-.6-3-1-.6-.8-.9.8-.9 2.6 0 4.7-3.3 4.1-6.4-.4-2 0-2.3 3.7-2.5 3.6-.1 4.3.2 5.3 2.4.6 1.4 2.4 3.1 3.8 3.7 2.4 1.1 2.9.9 5.5-2 1.6-1.8 2.9-4.2 2.9-5.5.1-2.2.1-2.2 1.5.3.8 1.4 1.4 1.9 1.5 1.2 0-1 5.5-5.2 6.9-5.2.3 0-.6 1.2-2 2.6m-3.2 26.2c-1.3 2.8-3.4 6.3-4.6 7.9-1.2 1.5-3.1 4.4-4.3 6.3-1.7 2.7-2.3 3.1-2.6 1.8-.2-1 .8-2.9 2.2-4.3 2.5-2.5 3.3-4.5 1.9-4.5-1.2 0-4.3 3.3-4.3 4.7 0 .7-.9 1.3-1.9 1.3-1.1 0-2.3.4-2.6 1-1.1 1.7-2.3 1.1-1.8-.9.5-2.1-1.2-3.7-2.2-2.1-.4.6-.9 3-1.2 5.2-.2 2.3-1.3 5.3-2.4 6.6-1.6 2.1-8.8 6.8-17.1 11.3-4 2.1-1.4-.2 5.7-5 8.3-5.8 9.1-7.7 4.8-11.1-2.2-1.7-2.5-2.3-1.3-3 3.2-2 6.2-.5 5.4 2.6-.5 1.9-.3 2.3.9 1.8.9-.3 1.3-1.2 1-2-.8-2.2 2.9-8.4 5.5-9.1 1.2-.3 2.2-.9 2.2-1.5 0-.5.4-.6 1-.3.5.3 2.3-1.5 3.9-4s3.2-4.1 3.6-3.6c1.1 1.8 3.2 1.2 6.5-1.9 1.8-1.7 3.4-2.9 3.7-2.7.2.2-.7 2.7-2 5.5M225 440.5c0 .3-2.7 1.8-6 3.5-6.2 3.1-7.3 4.5-4.2 5.4 11 3.3 16.2 4.4 16.3 3.3 0-.7.5.1.9 1.7.5 1.6.7 3.3.4 3.8-.9 1.5-1 21.6 0 21.1.4-.3.5.4.1 1.6-.6 2.1 3.2 13.9 6 18.6.7 1.1 1.5 3.2 1.9 4.7.5 2.1.3 2.5-1.2 2.2-1.2-.2-2.7 1.2-4.9 4.7-3.8 6-3.8 6.1 4.3 15.7 4.7 5.6 6.3 8.2 5 8.2-.2 0-2.3-2.6-4.6-5.8-2.4-3.1-5.6-7-7.3-8.5-2.8-2.6-3-2.7-4.3-1-.7 1-1.1 2.4-.8 3.2.4 1.1.2 1.2-1.1.1-1.4-1.1-1.2-1.6 1-4.6 1.5-1.9 2.1-3.5 1.5-3.9-.5-.3-.9-2.3-.9-4.3l.2-3.7.6 3.4c.3 1.9 1.1 3.6 1.6 3.7 1.4.4 7.7-7.7 7.1-9.2-.3-.7 0-1.4.6-1.6.9-.3-3.8-14.6-6-18.2-.5-.8-4.1 11.4-4.2 14.1 0 .6 1.9 1.8 4.3 2.7 3.8 1.4 3.9 1.5.7.9-1.9-.4-4.5-.7-5.7-.7-1.3-.1-2.1-.7-2-1.6 0-.8-1.2-3.4-2.7-5.6-1.5-2.3-2.7-5-2.8-6-.1-1.1 1.3-6.7 3.1-12.5 1.7-5.9 3.1-11.4 3.1-12.2s.7-1.7 1.5-2c1.1-.5 1.2-.1.6 1.6-.5 1.2-2.4 7.3-4.2 13.5l-3.3 11.2 2.3 4.6c1.2 2.6 2.4 4.4 2.7 4.1s.8-4.1 1-8.4.8-9.2 1.3-10.8c.9-2.5 1-2.1.5 2.5-.2 3-.7 7.3-1 9.5-.6 4.9 1.2 2.7 2.1-2.6.3-1.8.9-3.6 1.3-3.9s.7-6.7.8-14.3c0-9.4-.3-13.4-1-12.7-1.4 1.4-2.6 1.2-2-.3.5-1.4-9.3-4.7-13.9-4.7-1.3 0-2.7-.4-3.2-.9-.6-.5-1.9-1.1-3-1.3-1.5-.3-1-.8 2-1.6 2.2-.7 6.3-2.5 9-4.1 5.1-2.9 6.5-3.5 6.5-2.6m173.7 85.9c1.1 1.2 2.9 2.7 3.8 3.5.9.7 1.4 1.9 1.1 2.6-.7 1.8 4 4.9 4.8 3.2.3-.6.3-.2 0 1-.4 1.7-.1 2.3 1 2.3.9 0 1.6-.6 1.6-1.4 0-2.2 5-.6 6.8 2.3l1.7 2.6 12-.5c6.6-.3 15.6-.2 20 .1s8.5.2 9.1-.3c1.3-1 6.7-1.6 15.6-1.8 8.4-.2 8.7-.1 5.8 1.5-2.4 1.3-2.4 1.4-.4 1.5 1.2 0 2.7-.6 3.4-1.4.6-.8 2.1-1.7 3.3-1.9 2-.4 2-.4-.3-.6-1.4-.1-7.2-.9-13-1.6l-10.5-1.4 10.5.5c5.8.3 11.9.7 13.5.9 2.5.3 3.5-.3 5.8-3.2 1.6-2.2 2.7-3 2.7-2 0 .9-.5 1.9-1.1 2.2-.5.4-.8 1.2-.6 1.8.6 1.6-1.2 4.9-2.3 4.2-.5-.3-2.8.5-5.2 1.8s-8.1 4.5-12.8 7c-12.4 6.8-11.8 5.9-7.4 10.1l3.9 3.6-4.9-2.7c-3.5-1.9-5.1-2.3-5.4-1.4s-.7.8-1.6-.3c-1-1.3-2-1.3-9.1.6-4.4 1.1-8.9 2.1-10 2.3-1.1.1-4.9.5-8.5.9s-7.4 1-8.5 1.2c-1.6.4-1.7.3-.5-.4.8-.6 4.1-1.5 7.2-2.2 3.2-.6 6-1.5 6.3-2s-1.3-2.1-3.5-3.7c-5.2-3.7-5.1-4.8.3-1.8 2.3 1.4 4.5 2.5 4.8 2.5.8 0 4.9-9.8 4.9-11.6 0-1.7-2.6-1.8-3.6-.2-.4.7-.3.8.4.4s1.2-.1 1.2.7c0 1.1-.9 1.3-4.2.6-6.8-1.3-13.8-1.1-15.3.5-.8.8-2.4 4.5-3.7 8.2-2.4 7.3-3.6 7.5-1.7.3 2.5-9.8 2.4-10.6-.9-11.4-1.7-.3-3.6-1.3-4.2-2.1-.7-.7-1.6-1.1-2.2-.8-.5.3-1.5.1-2.2-.5-1.1-.9-1.5-.5-2 2.1-.4 1.8-1.4 4.2-2.3 5.3l-1.6 2 .8-2c.4-1.1 1.1-3.7 1.5-5.7.6-3.3.4-4-2.2-6.5-1.5-1.5-3.6-4.4-4.5-6.5s-2-3.8-2.4-3.8c-.6 0-.6-1.6.1-4 .1-.3.7.4 1.3 1.4.7 1.1 2.2 2.9 3.4 4m47.9 73.5c8.5.5 11.8.3 12.1-.6.3-.8 1.2-.9 2.8-.3 1.4.5 3.8.5 6-.1 2-.6 3.9-.8 4.2-.5.3.2-1.3 1-3.6 1.6-2.2.6-4.5 1.9-5.1 3s-1.7 1.7-2.5 1.4c-.9-.4-6.3 3.1-13.7 8.6-6.7 5.1-12.8 9.4-13.5 9.7-2.4.9-1.3 3.2 2.5 5.2 2 1.1 6.8 4.2 10.7 7 3.8 2.8 7.3 5.1 7.8 5.1.4 0 3.2 1.8 6.2 4 3.5 2.6 6.5 4 8.4 4 2.3 0 2.9.4 2.5 1.5-.4.9-1.1 1.5-1.8 1.4-.6-.1-2.4.3-4 1-1.6.6-3.1.9-3.4.7-.2-.3.7-.8 2.2-1.2 1.4-.3 2.6-.9 2.6-1.3 0-.6-.7-1.1-13-8.9-4.2-2.6-10.6-6.7-14.3-9.2-3.8-2.4-7.5-4.5-8.3-4.6-.9-.1-2.2-1.1-2.9-2-1.1-1.6-.9-2 2.4-3.5 4.7-2.2 14.4-9.1 20.9-15.1l5.2-4.6-7.7-.6c-4.3-.4-9.3-.8-11.1-1.1-2-.2-3.4.1-3.6.8s-1.1 4.8-2.1 9.2-2.2 8.4-2.7 9c-1.2 1.3-1-.3.7-5.9 1.3-4.1 2-9.2 2.5-16.1 0-.6.4-.4.9.4.7 1.1 4 1.6 12.7 2m756.4 74.5c0 1.3 2.7 3.1 4.2 2.8.9-.2 4.2 8.7 3.5 9.4-.3.3-.8-.8-1.2-2.5-.6-2.9-2.5-5.3-2.5-3.3 0 .8.4 2.2 2.7 9.2.5 1.7 4.3-6 6.4-12.8.9-3.1 1.7-4.2 3.2-4.2 1.4 0 1.7.4 1.2 1.7-.4 1-1.4 3.7-2.2 6-.8 2.4-1.9 4.3-2.5 4.3-.5 0-.7.3-.4.8.2.4-.2 3.2-1 6.2-1 4-1.1 5.7-.2 6.5.8.7.9.6.4-.3-.4-.6-.2-1.2.3-1.2.6 0 1.1.6 1.1 1.2.1.7.7.2 1.5-1.2 1.9-3.3 1.9-2.1 0 2.4-1.8 4.2-3.2 4.6-4.5 1.1-.6-1.5-1.7-2.5-2.8-2.5-1.5 0-2.5-1.6-4.2-6.3-1.2-3.4-3.3-9-4.6-12.5-2.2-6-2.3-6.2-.4-6.2 1.1 0 2 .6 2 1.4m22.2 5.2c-.4 2.4-.3 2.5 1.7 1.4 2.3-1.2 8.1-.5 8.1 1 0 .5 1 1.2 2.3 1.5 1.2.4 3.3 1.7 4.6 2.9 1.3 1.1 2.1 1.5 1.7.9-.9-1.6 3.4-6 6.8-6.9 4.4-1.1 15.7 5.9 15.5 9.5 0 1.1-.3 1-.9-.4-.8-2.2-4-5.3-4-4 0 .5.6 1.6 1.4 2.4.7.9 1.6 2.7 1.9 4.1.6 2.3.5 2.2-.5-.3-1.4-3.2-2.8-3.5-2.8-.6 0 1.1-1.3 3.4-3 5.1-3.6 3.6-3.7 3.8-.6 3.8 1.5 0 3.3-1.1 4.5-2.6s2.1-2.3 2.1-1.8c0 1.8-4.5 5.4-6.7 5.4-1.5 0-2.2.4-1.7 1.1 1.1 1.8-3.6-1-8.6-5-3.8-3.1-5-3.6-7.5-3-1.6.4-2.6.7-2.1.8.4 0-.2 1-1.5 2-3.3 2.6-1.5 4 2.4 1.8l3.2-1.7-2.4 2c-1.8 1.6-3.2 1.9-5.4 1.4s-2.8-.3-2.2.6c1 1.6-.5.8-5.3-2.8-2.2-1.7-3.1-3-2.7-4.1.3-.8.3-1.2-.1-.9-.8.9-3.4-1.7-3.4-3.4 0-.7.9-3 2-5.1 2.3-4.3 2.5-6.3.8-7-.7-.3-.3-.6.8-.6 1.8-.1 2 .3 1.6 2.5"/><path d="M570.3 83.3c.9.8 1.7 2 1.7 2.6q0 1.35 3 .6c2.9-.6 3-.5 2.4 1.9-.4 1.9-.2 2.8 1 3.2.9.3 1.6 1.2 1.6 1.9s1.4 1.8 3 2.4c2 .6 3 1.7 3 3 0 1 .6 2.2 1.3 2.5.8.3.7.8-.5 1.6-2.6 1.6-2.2 3.3.7 2.8 1.4-.3 2.5-.1 2.5.6 0 .8.2.8.8 0 1.4-2.1 3.9-2.2 5.3-.2 2.1 3 5.1 5.8 6.3 5.8.6 0 .3-.5-.6-1.1-2.2-1.2-2.3-2.9-.3-2.9.8 0 1.5-.6 1.5-1.4s.9-1.8 2-2.1 2-1.1 2-1.6.6-.9 1.4-.9 1.7-.7 2-1.6c.3-.8 1-1.3 1.5-.9.6.3 1.5-.4 2.2-1.6 1.4-2.7-.1-3.9-5.4-3.9-2.1 0-3.6-.4-3.3-.9.6-1-7-3.4-14.9-4.8-1.6-.3-3.6-1-4.3-1.6-.6-.5-2.7-.7-4.5-.3-2 .4-2.7.3-1.8-.3 1.3-.8.6-1.1-6.4-2.7-.5-.1-1.9-.5-3-.9-1.9-.6-1.9-.6-.2.8M536 94.3c-13.5 6.2-30.6 14.3-38 18l-13.5 6.8 15.5-.6c24.1-1 31.2-1.4 32.9-2 .9-.4 4.3-3.8 7.6-7.7s6.5-7.5 7-8.2c1.4-1.4 13.5-17.6 13.2-17.5-.1 0-11.2 5.1-24.7 11.2M677.5 88.2c-10.9 1.2-45.3 5.7-49.2 6.4-1.8.4-3.3.9-3.3 1.3 0 1.2 26.1 13.2 29.9 13.9 2.4.3 3.2.2 2.7-.6-1-1.6 6.1-2.7 7.9-1.2.8.7 1.3 1.6 1 2-.3.5 0 1.2.6 1.5.5.4.8 1.3.5 2.1-.6 1.5 2.2 3.4 5.2 3.4 1.7 0 3.1-1.9 8.4-11.5 3.9-7 7.7-15.8 7.8-17.8 0-.8-.4-.8-11.5.5M678 121.5c0 .7 6.1 9.9 17.5 26.5 6.4 9.3 17 25.1 20.4 30.5 1.4 2.2 3.3 4.8 4.2 5.7s1.9 2.3 2.2 3c.4 1 1 .8 2.2-.7.8-1.1 2.1-2.7 2.8-3.5.6-.8 2.5-3.5 4.1-6s6.6-9.5 11.1-15.5c4.5-6.1 9.2-13 10.5-15.5 1.2-2.4 3.8-6.8 5.8-9.8 4.3-6.4 4-6.8-6.2-7.7-3.9-.3-13.8-1.2-22.1-2-8.2-.8-19-1.7-24-2-4.9-.3-10.8-1-13-1.5-6.3-1.4-15.5-2.3-15.5-1.5M480.5 137.3c-5 9.6-6.8 13.4-7.1 15.7-.7 4.1-1.5 6.2-2.1 5.6-1-1-3.2 2.8-3.3 5.4 0 1.5-.4 3-.9 3.5-.9 1.1-3.1 10.4-3.1 13.4 0 1.3 1 2.1 3.4 2.5 4.5.9 9.3 4.5 7.4 5.7-2.4 1.6-5.9.9-8.1-1.5-4.7-5-8.5 1.9-11.2 20.1-.4 2.7-1.2 4.3-2.1 4.3-.8 0-1.4.9-1.4 2 0 1.2-.7 3.5-1.6 5.1-.8 1.7-1.4 3.8-1.2 4.7.3 1.5 8.3-5.5 23.3-20.3 5.3-5.3 14.5-15.8 14.5-16.6 0-.5.6-.9 1.3-.9 1.7 0 6.9-5.4 6-6.3-.3-.4-.1-.7.6-.7.6 0 1.1-.8.9-1.8-.2-1.2.3-1.6 1.9-1.5 1.6.2 2.1-.2 1.7-1.2-.4-.9 0-1.5.9-1.5 1 0 1.3-.8.9-2.6-.3-1.7-.7-2.2-1.2-1.4q-.75 1.35-1.5-.9c-.3-1.1-1-2.1-1.4-2.1-1.5 0-3.1-5.1-3.1-9.5 0-2.5.5-4.5 1.1-4.5 1.9 0 .5-4.4-1.8-5.6-3.2-1.5-6.3-4.5-6.3-5.9 0-.7-1.1-2.4-2.4-3.8l-2.4-2.6zM473.1 135.9c-.7.5-2.3 2.4-3.5 4.4-4.8 8-12.2 20.1-14.1 23.1-9.7 15.7-16.5 27.5-16.5 28.4 0 .6-2.5 4.4-5.5 8.4s-5.5 7.9-5.5 8.6c0 .8 2.1 3.7 4.6 6.5s5.7 6.8 7.2 8.9 3.4 3.7 4.2 3.5c.9-.1 2.4-3.7 4.2-9.7 3-10.6 4.4-14.9 9.8-29.5 2.1-5.5 4.7-13.9 5.9-18.7 1.1-4.7 3.9-13.5 6-19.5 4.3-11.8 5.4-15.3 4.9-15.3-.2 0-.9.4-1.7.9M683.6 138.7c-.6 1.5-.8 1.5-1.6.3-.7-1-1-1.1-1-.3 0 .7-.7 1.3-1.5 1.3s-1.5.9-1.5 2-.4 2-1 2c-.5 0-1 .7-1 1.6s-1 2.6-2.2 3.7c-1.6 1.3-1.9 2.1-1 2.4 2.6 1 1 2.3-2.8 2.3-2.9 0-4 .4-4 1.5 0 .9.9 1.5 2.5 1.5 2.2 0 2.5.4 2.5 3.5 0 3.4-1.4 4.8-2.2 2.3-.3-.7-.7-.5-1.1.6-.4.9-.3 1.5.1 1.2.4-.2 1.4-.1 2.2.5 1.1.6.8.9-1.2.9-3.2 0-3.7 1.6-.8 2.5 2 .6 2.8 3.5 1 3.5-.5 0-1.9.9-3 2s-2 2.4-2 3c0 .5-.9 1-2 1-1.6 0-2 .7-2 3s-.4 3-2 3c-1.7 0-2 .7-2 4s.3 4 2 4c1 0 2.3.7 2.7 1.5.9 1.5 5.3 1 5.3-.6 0-1.3 4.4-1.1 7.5.3 1.4.6 2.5 1.6 2.5 2.1 0 .6 1.8.7 4.3.4 16.3-2.2 30.7-5.4 31.8-7 .4-.5.9-.4 1.3.2.7 1.1 6.6 1.6 6.6.5 0-.8-6.4-9.8-7.2-10.2-.5-.2-.8-1-.8-1.8s-.4-1.4-1-1.4c-.5 0-1-.6-1-1.3s-.9-2.3-2-3.5-2.5-3.3-3-4.7-1.6-2.5-2.2-2.4c-2.6.3-3.9-.1-3.3-1.2.4-.6 1.4-.8 2.3-.4 1.2.5 1.2.1-.4-1.7-3.6-4.2-4.2-4.7-4.8-4.1-.3.4-.6-.5-.6-2 0-1.6-1-3.3-2.7-4.7-1.4-1.1-3.4-3.8-4.4-6-1.4-3-2.2-3.8-3.5-3.3s-1.5.2-.9-1.5c.8-2.6 0-3-.9-.5M489.2 190.4c-2.3 2.3-3.9 4.6-3.5 5.1.5.4.3.5-.3.2-1.1-.6-34.4 31.5-34.4 33.2 0 1.4 2.3 1.4 25.6 0l19.2-1.2 1-3.6c.6-2 1.9-7.9 2.8-13.1 3.4-19 3.5-21 .9-21-.8 0-1.9-.8-2.4-1.8-1.6-3-4.4-2.3-8.9 2.2M604.5 207.6c-21.7 1.8-24.2 2.2-25 4.2-.9 2.4-.7 34.7.4 47.2.5 5.8.8 14.1.6 18.6-.2 4.4 0 9.6.4 11.5.7 3.3.9 3 7.7-10.6 3.9-7.7 12.3-24.3 18.7-36.8s11.7-23.5 11.7-24.2c0-.8.4-1.5.8-1.5.9 0 3.2-5.9 3.2-8.3 0-.9-.6-1.6-1.2-1.6-.7.1-8.5.8-17.3 1.5M623.1 213.6c-1.2 1.9-2.1 3.7-2.1 4 0 .6-17.7 36.4-24.8 50-3.1 6.1-7.7 15.3-10.1 20.4l-4.4 9.3 2.8 2.3c1.5 1.2 9.8 6.6 18.4 12s17.4 11 19.6 12.5 4.3 2.5 4.8 2.2c.4-.3.6-5.7.2-12.1-1.3-28-1.5-35.6-1.6-69-.1-19.3-.3-35.2-.4-35.2-.2 0-1.2 1.6-2.4 3.6M574.2 219.3c.3 1.5.1 3-.3 3.3-.5.3-.9-.3-1-1.3 0-1-.7.1-1.5 2.4s-2.6 4.9-4 5.7c-1.3.9-2.4 2.3-2.4 3s-.6 1.9-1.4 2.5c-.8.7-2.1 3.3-3 5.7-1.5 4.3-1.4 4.8.9 11.1 1.4 3.6 3.3 8.1 4.4 10.2 2.3 4.4 7.1 14.9 9.9 21.6 1.2 2.7 2.2 4.3 2.3 3.5.3-3.2-.2-18.3-1.2-37.5-1.3-27.1-1.7-31.6-2.5-32.4-.4-.3-.4.6-.2 2.2M496.5 239.8c-1.7 1.1-7.5 13.2-6.4 13.2.6 0 .6.8-.1 2-.6 1.1-1.5 1.8-2.1 1.5-.9-.6-1.4 2.7-1 7.5.1 2.3 0 2.4-1.2.7-.8-.9-1.6-1.7-1.9-1.7-.4 0-.4 2.7.1 5.2.3 1.5 4.3-.7 5.2-2.8.8-2.4 2.9-3.3 2.9-1.4 0 .7.6.7 2 0 1.9-1 1.9-1.3.5-4-1.8-3.6-1.9-4-.2-4 .8 0 1.9-1.1 2.5-2.5s1.7-2.4 2.4-2.3c1.4.3 1.4-.4-.5-7.4-.7-2.9-1.6-4.5-2.2-4M484.2 247.2c-6.1 6.6-18.5 21.5-19.1 23.2-.2.5-1.2 1.9-2.2 3-1 1-3.1 3.8-4.6 6-1.5 2.3-3.2 4.4-3.8 4.8-.5.4-.1.8 1 .8 1.2 0 5.8-2 10.4-4.4 8.9-4.5 11.5-7.6 14.3-16.8.6-2.1 1.9-4.6 2.9-5.7 1.7-1.8 5.9-11.4 5.9-13.4 0-1.5-1.8-.6-4.8 2.5M553.5 246.7c-1.4 1.7-2.2 1.9-3.6 1-1.3-.8-2.3-.6-4.4.7-1.5 1-2.4 1.3-2 .6s-1.2-.1-3.7 1.4c-2.5 1.4-5.5 2.6-6.8 2.6-2.7 0-12.1 3.1-13.5 4.5-3.5 3.4 3.8 11.3 10 10.7 1.5-.2 1.6 0 .6.7-1 .6-.5 1.2 1.9 2.5 1.8.9 3.9 1.6 4.7 1.6.7 0 1.3.4 1.3.8 0 .5.6.9 1.3.9.6 0 5.2 2.4 10 5.2s9.2 5.1 9.7 5.1c.4 0 1 .3 1.2.7.4 1 9.4 5.8 12.4 6.7 2.5.8 2.5-.8 0-9.4-1.7-5.7-11.5-26.2-12.9-26.8-.4-.2-.5-.7-.3-1 .2-.4-.6-2.9-1.8-5.7l-2.2-5zM477.7 280.7c-.2.5-1.2 3.3-2.2 6.3s-2.7 7.2-3.8 9.3-1.7 4.1-1.3 4.4c.7.7 15.5-4.2 20.9-6.9 4.6-2.3 4.1-3.2-3.7-7.6-2.8-1.7-5.8-3.7-6.5-4.6-1.4-1.7-2.7-2-3.4-.9M501.4 296.1c-.2.4 2.7 5.5 6.6 11.3 6.6 9.8 7.2 10.4 10.2 10.3 2.8-.2 3.6-1 6.8-6.4 4.7-8.2 5.7-9 2.6-2.3-3.7 8.3-4.2 11-2 11.1 1.1.1 2.3.1 2.8 0 1.1-.2 9.6 4.2 9.6 5 0 .3 1.2 1.9 2.6 3.7 2 2.4 2.9 2.8 3.9 1.9.7-.7.9-1.8.4-2.7-4.9-9.2-10.2-21-9.5-21 .3 0 11 18.8 13.6 24 .7 1.4 2.1 3.5 3 4.8l1.8 2.2 2.6-4.2c1.4-2.4 4.6-6.6 7.2-9.3l4.6-5-3.6 5.1c-2 2.9-3.6 5.7-3.6 6.3s-.4 1.1-1 1.1c-1.3 0-3.5 7.9-2.4 8.9 1.3 1.1 8.4 3 17.7 4.7 12.2 2.1 11.7 2.3 11.8-3.9.1-5.5.4-5.4 1.4.5.3 2.1 1.1 3.8 1.8 3.8 2.5.1 35.5-16.3 35.1-17.4-.4-1-13.8-10.2-16.8-11.6-.6-.3-5.6-3.5-11.1-7.1-13.3-8.7-13.6-8.9-17.6-8.3-2.4.3-3 .2-1.9-.5 1.2-.8 1.2-1.1-.4-1.7-2.3-.9-39.8.5-43.7 1.6-1.8.5-3.8.5-4.7 0-1.9-.9-18.7-4.7-24-5.3-1.8-.2-3.5 0-3.8.4M720.8 295.8c-.9.4-2.7 2-4 3.7-1.2 1.6-3.2 4.1-4.3 5.4-3 3.7-25.2 28-30.2 33-3.9 4-5.2 6.1-3.8 6.1 1.2 0 30.6-7.3 37-9.2 3.9-1.2 7.6-2.6 8.4-3.2s2.2-1 3.1-.8c1 .1 3.6-1.3 6-3.3 2.3-1.9 4.5-3.5 4.9-3.5.3 0 2-1.2 3.7-2.8 1.6-1.5 5-4.3 7.4-6.2 8.9-6.9 16-13.3 16-14.5 0-1.3-1.8-1.5-26.5-4-15.8-1.6-15.4-1.6-17.7-.7M422 317.5c0 .7.6 1.8 1.4 2.2s2 2.6 2.8 4.8 3.1 7.3 5.1 11.3c3.9 7.6 5.9 8.7 8.1 4.7.6-1.1 1.3-2.2 1.6-2.5 2.5-2.2 5-7.3 4.5-8.9-.4-1.2-4.8-4.1-11.5-7.5-5.9-3.1-11.1-5.6-11.4-5.6s-.6.7-.6 1.5M448 330.1c0 .6-1.1 2.5-2.4 4.2-3 3.9-6.5 11.5-6.6 13.9 0 1.4.9 1.8 4.1 1.8 2.3 0 6-.5 8.3-1.2 5-1.5 14.1-9.8 15.8-14.5.7-1.8 1.6-3.3 2-3.3s.8-.5.8-1c0-.6-4.3-1-11-1-7.1 0-11 .4-11 1.1M609.3 339.9c-8.4 4.2-15.7 8.1-16.3 8.7-.9.9-.2 1.9 2.6 4 2 1.6 7.2 5.7 11.6 9.1 4.3 3.5 8.1 6.3 8.4 6.3s1.7.9 3.1 2c1.7 1.3 3.4 1.8 4.6 1.4 1.4-.4 1.7-.3 1.2.6q-.75 1.35.3.6c1.5-.9 1.6-11 .1-13.7-.7-1.4-.7-3.6 0-7.2.5-2.9 1.3-8.5 1.6-12.5.6-5.7.4-7.2-.6-7.1-.8.1-8.2 3.6-16.6 7.8M555 349.8c0 3.3-.3 9.9-.6 14.9-.7 9-.7 9 1.7 9.5 3.2.6 4.9 0 4.9-1.7 0-.8 1.2-2.3 2.8-3.4 1.5-1.2 3.2-2.4 3.7-2.9.6-.4 3.5-2.7 6.5-5 10.3-7.8 13.6-11.1 12.1-12.1-1.3-.8-25.9-5.1-29.5-5.1-1.3 0-1.6 1.1-1.6 5.8M589.5 352.2c-.2.7-.9 4-1.5 7.3-2.5 15.2-4.1 23-4.9 23.9-.5.6-1.4 4.2-2 8.1-.7 3.8-1.5 8-1.8 9.2-.5 2.1.2 1.8 7.3-2.3 4.4-2.6 9.9-6 12.4-7.6s8.6-5.2 13.5-8.1c5-2.9 9-5.9 9-6.7 0-.7-2.6-3.2-5.7-5.4-6.5-4.7-21.7-16.4-23.6-18.3-1.7-1.6-2.1-1.6-2.7-.1M387.3 388.9l-6.1.6 6.6 8.8c7.4 9.7 6.7 9.7 9.7 0 .9-3.1 1-4.1.2-3.7s-.7.2.1-.7c.6-.7 1.2-2.3 1.2-3.6 0-2.5.2-2.5-11.7-1.4M465.2 399.2c-5.6 3.5-9.2 7.5-9.2 10.4 0 1.2-1 2.6-2.2 3.2-1.8.8.4 1.1 9.7 1.1 6.6 0 12.9-.4 14-.9s1.5-.9.9-.9c-.5-.1-1.8-3-2.9-6.6-1-3.6-2.2-6.5-2.6-6.5-.5 0-.6-.6-.3-1.3.8-2.2-2.4-1.6-7.4 1.5M504 399.1c0 .5-.6.9-1.3.9s-3 1.6-5.2 3.5-5.7 4.4-7.7 5.7c-2.1 1.3-3.8 2.6-3.8 2.9 0 1.1 2.9 1.9 12 3.5 4.7.8 9.5 1.7 10.8 2.1 2 .5 2.2.2 2.2-3.3-.1-2.2-.6-6.6-1.3-9.9-1.1-5.1-1.6-6-3.5-6.1-1.2-.1-2.2.3-2.2.7M402.5 453.7c.6.4 4.2 2.9 8 5.5 3.9 2.6 8 5.5 9.2 6.4 1.9 1.3 2.8 1.4 6 .3 5.5-1.7 20.3-9 20.3-9.9 0-.8-11.1-1.8-30.5-2.6-7.7-.3-13.5-.2-13 .3M465.3 499.2c-.6 1.3-1.6 3.6-2.3 5.3-.7 1.6-1.8 4.1-2.5 5.5-2.2 4.4-4.7 12.9-4.1 13.9.4.5.2 1.2-.4 1.6-.5.3-1 1.2-1 1.8 0 .9.2.9.8.1.4-.6 2.1-1.9 3.9-2.7 4.6-2.4 12.8-9.8 12.9-11.6 0-1.8-4.4-14.2-5.5-15.4-.4-.4-1.2.3-1.8 1.5M307.4 153.3c-14.7 14.8-22.8 23.6-22.2 24.2.3.3 5.6-1.3 11.9-3.5 6.3-2.3 14.1-5 17.4-6.1 9.5-3.2 26.5-10.1 26.5-10.8 0-.9-19.7-13.2-21.7-13.6-1.2-.3-5.2 3.1-11.9 9.8M317.5 168.1c-10.4 3.7-20.8 7.7-23 8.8-2.2 1.2-6 2.6-8.4 3.2l-4.4 1 .6 5.3c.3 2.9 1.2 8.1 2 11.7.8 3.5 2.5 12.1 3.8 19.1 1.2 7.1 2.6 12.8 3 12.8.5 0 3-3.3 5.7-7.3 6.9-10.2 13.9-20 27.4-38.4 6.4-8.8 12.6-17.6 13.8-19.6 2.1-3.5 2.1-3.7.3-3.6-1 .1-10.3 3.2-20.8 7M339.2 165.7c-5 7.8-12.3 18.1-21.3 30-8.9 11.8-24.9 34.7-24.9 35.7 0 .3 1.1.1 2.4-.4 1.4-.5 14.3-4.1 28.8-8 32.5-8.7 39.8-11 39.8-12.2s-16.6-43.1-18.6-47.1c-.8-1.5-1.8-2.7-2.3-2.7-.4 0-2.2 2.1-3.9 4.7M275.2 196.1c-11.4 31.1-15.1 41.4-14.7 41.7.5.6 26.8-4.8 27.7-5.7.5-.4-.4-6.1-1.7-12.6-1.4-6.6-3.3-16.2-4.1-21.4-2.5-14.7-2.5-14.7-7.2-2M222.1 289.2c-.5 1.3-1.6 4.1-2.5 6.3-2.6 6.6-3.6 12.8-2.4 14.2.7.9.7 1.3-.1 1.3-1.5 0-.7 6.6 1.6 14.5 2.1 7 4.1 10.6 4.9 8.7.9-1.9 2.1-1.4 2.8 1.2.4 1.6 2.2 3.2 5.3 4.7 8.7 4.3 8.4 4.4 5.8-1.4-7.7-17.3-13-25.7-16.1-25.7-.7 0-1.6-.5-2-1.2-.7-1.1-.5-1.1 4.5 1 1.1.4 1.3-.7.8-6.4-.5-5.8-.4-6.2.3-2.4 1.8 8.6 1.9 8.9 4.8 9.3l2.7.4-2.7.2c-1.6 0-2.8.3-2.8.6 0 .7 4.1 8.9 10.3 20.3l5 9.4 1.8-3.9c1.8-3.6 1.8-3.3.4 2.8-.4 1.6-.2 3 .5 3.4 1.7 1 13.2 3.6 13.8 3.1.2-.3-.1-2.7-.7-5.3-.5-2.6-1.3-8-1.5-11.8-.5-6.1-.4-6.4.4-2.5.5 2.5 1.2 5.8 1.5 7.5.4 2.7.9 3 4.2 3 4.4 0 5.2 1.6 2.2 4.6-1.5 1.5-2.4 1.8-2.7 1.1-.7-2.2-2.2-1.3-2.2 1.3 0 1.4.4 2.5.8 2.5.5 0 3.7-1.8 7.3-4 3.5-2.2 9.4-5.7 13.1-7.7 3.8-2.1 6.8-4.1 6.8-4.5 0-.7-4.5-3.6-24.8-16.1-4.2-2.6-8.5-4.6-9.5-4.3-.9.2-1.5.1-1.2-.4.7-1.1-2-3.1-3-2.2-.5.4-.5.2-.1-.5.3-.7-1.3-2.7-4.1-4.9-2.7-2.1-7-5.9-9.8-8.4-2.7-2.5-6.7-5.9-8.8-7.4l-3.7-2.7zM283 338.6c-3.6 2-8.1 4.9-10 6.3-1.9 1.5-5.2 3.5-7.2 4.5-3.4 1.5-3.6 1.9-2.5 3.7.6 1 1.9 2.1 2.8 2.4s2.1 1.6 2.8 2.9 3.9 4.6 7.2 7.5l5.8 5.2.7-2.8c.3-1.5 1.3-5.5 2.1-8.8 1.3-5.3 5.2-24.5 4.9-24.5-.1 0-3 1.6-6.6 3.6M257 356.9c0 .5-3.7 6.5-8.3 13.4-4.7 7-8.1 13-7.8 13.8 1.3 3.2 6.4 10.9 7.2 10.9 1 0 3.2-7.5 4.9-16.5 1-5.1 2.5-10.7 5.6-20.8.3-.9.1-1.7-.5-1.7s-1.1.4-1.1.9M216.5 420.2c-4.9 3.8-11.2 8.6-14 10.6l-4.9 3.7 3.9.6c2.2.4 9.1 1 15.3 1.4l11.2.7v-9c0-9.1-.8-15.3-1.9-15.1-.3 0-4.6 3.2-9.6 7.1M988.3 342.2c.3 1.3 1.1 5.9 1.7 10.3 1.2 8 3.6 19.4 4.2 20 .2.2 4.7-3.5 10.1-8.2 10.4-9.1 10.6-9.6 4.8-12.6-1.4-.8-6.3-3.7-10.9-6.5-4.6-2.9-8.8-5.2-9.4-5.2s-.8 1-.5 2.2M1010 361.5c-2.5 2.5-6.9 6.5-9.7 8.8-2.9 2.3-5.3 4.5-5.3 4.9s4.4 4 9.8 8.1c5.3 4 11.9 9 14.5 11 2.7 2 5.3 3.4 5.9 3.1.5-.3 2.6-3.1 4.5-6.2l3.6-5.6-2.6-2.2c-1.4-1.2-2.3-2.4-2.1-2.7.5-.5-.2-2-7.5-15-3.4-6-4.8-7.2-3.7-3.5 1.7 6.3 6.6 32.2 6.3 33.2-.5 1.2-.6.8-3.2-11.4-.9-4.1-2-9.1-2.5-11s-1.2-6.3-1.6-9.8c-.3-3.4-1-6.2-1.3-6.2-.4 0-2.7 2-5.1 4.5M770 410.9c-.8.5-3.3 1.2-5.5 1.6-4.6.8-8.4 3.9-6 4.9.8.3 1.5 1 1.5 1.6 0 .7-.7.7-2.2-.1-1.9-1-2.4-.9-3.3.6-.5 1-1.7 2.5-2.5 3.4s-2.3 2.9-3.3 4.3L747 430l3.2-.6c4.3-.8 8-3.2 7.2-4.6-.4-.6.1-.8 1.4-.4 1.6.5 3.1-.4 6.7-4.1 6.7-6.9 9.1-12 4.5-9.4"/></svg>