<svg xmlns="http://www.w3.org/2000/svg" width="1706.667" height="960" viewBox="0 0 1280 720"><path d="M0 360v360h693l2.5-4.8c2.5-4.6 2.5-4.6 1.9-1.2-.3 1.9-1.1 4.1-1.6 4.8-1.9 2.2 13 1.6 17.7-.8 2.2-1.1 3.3-2 2.6-2s0-1.3 1.6-3.1c4.6-5.1 14.4-14.4 15.4-14.7 2-.8.7-2.1-2.3-2.5-3.2-.4-3.2-.4.5-.5l3.8-.2-.6-3.7c-.3-2.5-.2-3.1.3-1.9.7 1.5 1 1.7 1.7.7 1.1-1.8 10.5-31.2 10.5-32.8 0-.7.4-1.3.9-1.3 1 0 .5 2.2-4.4 18.5-6 19.8-6.2 20.7-3.8 19.8 1-.4 1.4-.2.9.5-.7 1.2 2.9 2.6 4.4 1.7.6-.4 1.7-.2 2.3.4.7.5 4.1 1.2 7.4 1.4l6.1.4-.5-3.6c-.3-2-.9-5.1-1.5-6.9-.6-1.9-2.5-10.2-4.3-18.5-1.8-8.4-3.6-16.1-4-17.2-.6-2-.6-2 .6 0 1.2 1.8 2.6 7.6 4.9 19 .5 2.7 2.1 8.6 3.4 13 1.4 4.4 3 10 3.7 12.5s1.6 4.9 2.1 5.5c.4.5.8 1.7.8 2.6 0 1 .3 2 .8 2.2.4.3.6-7.4.6-17.1-.2-16.6-.1-17 .6-6.7.4 6 .9 15.3 1 20.5.2 9.7 1 12.3 3.6 11.3.8-.3 1.4.1 1.4.8 0 4-3.9 3.9 255.7 3.9H1280V0H0zM614 54c0 .5.6 1 1.3 1s3.5 1.5 6.2 3.3c2.8 1.8 11.3 6.8 19 11.2 13 7.3 25.7 14.7 38 22.2 5.8 3.5 35.2 20.1 41 23.2 3.4 1.8 10.3 5.8 15.5 9 .8.5 1.2 1.2.9 1.5-.2.3-5.4-2.4-11.4-5.9-5.9-3.6-11-6.5-11.3-6.5-.2 0-3.8-2-7.9-4.5-4-2.5-7.7-4.5-8-4.5-.4 0-1.4-.6-2.2-1.4-.9-.7-5-3-9.1-5.2-4.1-2.1-9.9-5.3-12.8-7.1-3-1.9-5.9-3.2-6.4-3.1-.6.2-3.1 4.1-5.7 8.5-2.5 4.5-6.3 11.2-8.5 14.9-2.7 4.6-3.5 6.9-2.7 7.4 1.8 1 26.6 3.4 28.5 2.7.9-.4 1.6-1.7 1.6-3.1 0-2.9 3.8-5.6 7.9-5.6 2.2 0 3.7 1 6 3.7 3.2 3.9 3.9 6.3 1.9 6.3-.6 0-.9.2-.7.5.6.5 15.1 2.2 26.4 3 4.4.3 9.5.8 11.2 1.2 4.7.8 5.2-1.7 2-8.3-3.6-7.4-2.6-6.8 1.4.7 1.8 3.4 3.8 6.3 4.5 6.6 1.2.4 11.5-5.9 21.8-13.5 4.5-3.3 4.7-3.7 3-4.9-2.4-1.8-1-1.7 2.6.2 3.3 1.7 4.1 3.6 1.3 2.9-1.1-.3-4.7 1.6-8.8 4.6-3.8 2.7-7.2 5-7.5 5-.4 0-3 1.8-5.9 3.9l-5.2 3.9 3.3 3.1c1.8 1.7 5.3 4.3 7.7 5.7 2.4 1.5 10 6.9 17 12.1 6.9 5.3 13.3 9.8 14.1 10.1 2.6 1 3.7 2.7 3.7 5.7 0 1.7.8 6.8 1.7 11.5 1 4.7 2.2 11 2.8 14 .5 3 1.9 9.1 3 13.5s2.3 9.9 2.7 12.3c.4 2.3 1.1 4.5 1.4 4.9.4.3 2-2.4 3.6-6.1 1.7-3.6 3.3-6.6 3.6-6.6s-.2 1.7-1.1 3.7c-.9 2.1-1.8 4.7-2.1 5.8s-.8 2.9-1.3 4-1.3 3.3-1.8 5c-.8 2.4-1.1 2.5-1.1.9-.1-1.2-.8-2.5-1.7-2.8-1-.4-1.3-1.3-.9-2.6s-.3-3.7-1.9-6.7c-3.1-5.4-2.8-6.8.3-2.1 1.3 1.9 2 2.5 1.7 1.3-2.2-7.8-3.7-14.8-6-27-4.2-22.3-4.6-23.2-8-17.3-1.1 1.8-3.2 5-4.8 7l-2.8 3.6 3 5.2c1.6 2.8 3.5 5.6 4 6.3 3.2 3.7 11.7 18.7 9.2 16.2-.5-.6-3.9-5.7-7.5-11.5s-7.3-11.4-8.1-12.5c-1.6-2-1.6-2-3.3.2-1 1.1-3.6 4.7-5.8 7.8-2.2 3.2-5 6.9-6.3 8.3-3 3.4-6.5 9.2-5.9 9.8.2.3 2.7 1.4 5.3 2.5 2.7 1.1 3.8 1.7 2.4 1.4-8.2-1.7-9.7-1.7-10.5.1-.4 1.1-.9 5.8-1.2 10.6-.3 4.9-.9 8.8-1.3 8.8-.5 0-.7-.8-.5-1.8.2-.9.6-5.8.9-10.8l.5-9.1-4.7-2.1c-2.6-1.2-9.4-3.7-15.2-5.7s-13.4-4.7-17-6.1c-9.1-3.6-16.4-6.4-16.7-6.4-.8 0-.2 4 .7 4.5.6.3 1 1.4 1 2.3 0 1 1 3.3 2.3 5.2 2.3 3.5 7 14.1 6.4 14.6-.1.2-1.8-2.9-3.7-6.9s-3.8-7.4-4.2-7.5c-.5-.2-.8-1-.8-1.8s-.5-1.4-1.1-1.4c-.5 0-.8-.4-.5-.9s0-1.4-.8-2c-1.2-1-1.4.9-1.5 12.1-.1 7.3-.4 13.5-.7 13.8-.4.3-.4-6.8-.3-15.8l.4-16.2H691c-1.4 0-11.7 1.4-23 3-11.3 1.7-29.5 4.4-40.5 6s-22.7 3.4-26 4c-3.3.5-6.3 1-6.7 1-.5 0-.8.4-.8.8 0 .8 17.9 16.6 33 29.2 4.3 3.6 15.8 13.4 25.6 21.9 9.9 8.4 20.4 17.4 23.4 20 8.7 7.3 11.6 10 10.8 10.1-.4 0-2.9-1.9-5.6-4.3-13.4-11.7-18.8-16.3-31.2-26.8-15.8-13.2-25-21-26.6-22.5-.6-.5-3.5-3-6.4-5.5-2.9-2.4-8.1-6.8-11.4-9.8-8.5-7.4-11.3-9.3-12.1-8.1-.3.6-.3 9.2.1 19.1.6 15.3 1 18.4 2.4 19.6 1.5 1.4 1.6 2 .3 7.6-1.2 4.9-1.4 13-1.1 37.9.1 17.4.5 31.9.9 32.2.3.3 4.5-.9 9.4-2.8l8.9-3.3-.3-5.6c-.2-4.5.1-5.9 1.8-7.6 2-2 7.1-2.9 7.1-1.3 0 .4 1 1.2 2.3 1.7 1.5.7 2.3 2 2.5 4.2.2 1.8.8 3.3 1.3 3.3 1.6 0 12-3.7 33.8-11.9 11.3-4.3 21.7-8.1 23.1-8.4 5.2-1.3 6.3-3 7-10.8l.7-7.4.2 7.7c0 4.3.5 7.8.9 7.8.5 0 5.9.7 12 1.5 12.6 1.6 32.7 2.3 33.9 1.2.4-.5.2-1.1-.4-1.5-.7-.5-1-1.8-.6-3 .6-2.3.6-2.3 2.4-.3 1.1 1.1 1.9 2.5 1.9 3.1 0 1.8 1.5 1.1 4.6-2.3 4.1-4.5 10.6-12.6 12.8-16.2 1.1-1.6 2.3-3.4 2.8-4 1-1.2 12.7-17 17.8-24 10.1-13.8 14-19.6 14.1-20.7 0-.9.2-.9.5-.2.7 1.6-12 20.1-32.3 47.2-6.8 9-13 17.7-13.9 19.4l-1.6 3.1 5.1-.6c5.6-.7 6.1-.2 3.1 3l-1.9 2.2 4.9 1.6c5.9 1.9 6.5 2.9 1.4 1.9-3.5-.6-3.6-.6-2.5 1.7 1.1 2.2 1.1 2.3-.3.5-.8-1-1.7-2.3-1.8-2.7-.4-1.1-10.2-3-10.6-2-.1.4-1.6.5-3.3.3-2.6-.4-3.9.3-8.2 4.5-2.9 2.7-8.1 7.1-11.7 9.8-19.9 15.2-20.5 17-1.9 5.5 13-8.1 20-10.1 33.7-9.8 5.3.1 9.6.6 10 1.2s1.8 1.7 3.2 2.4 4.8 3.4 7.5 5.9c5.4 5 4.5 4.7-2.5-.9-2.5-2-5.6-3.9-7-4.3-2.2-.6-2.3-.6-.8.6 2.1 1.7 3.1 5.9 1.9 7.8-.8 1.2-1.5 1.1-5-.3-2.3-.9-5.1-1.6-6.4-1.6-1.2 0-2.9-.5-3.7-1.1-2.1-1.4 5.4-.1 9.9 1.7 4.2 1.8 5.8.5 3.1-2.4-1.1-1.1-2-2.8-2-3.6 0-1.6-3.3-3.2-3.8-1.8-.1.5-1.6.6-3.2.4-1.7-.2-4.5.3-6.3 1.1-1.7.8-4.8 2.2-6.7 3-3 1.2-11.9 7.9-18.4 13.9-1.1 1-2.3 1.8-2.7 1.8-1.4 0-3.9 3.1-3.4 4.1.4.5 2.1.9 3.8 1 3 0 3.1.1.9 1-1.3.5-3.4.6-4.6.3-1.6-.4-2.5 0-2.9.9-.4 1-1.3 1.3-2.6 1-1.4-.4-2.4.3-3.6 2.7-.9 1.8-1.9 3-2.2 2.7-.2-.3.3-1.7 1.2-3.1 2.1-3.2 1.5-5.2-1.9-5.8-3.8-.7-4.9.4-4.1 4.3 1 4.5 0 3.5-1.8-1.9-1.5-4.2-1.4-4.4.6-5.3 8.6-3.7 9.9-7.8 1.9-5.7-2.6.6-4.6 1.8-5.1 2.9-.6 1.8-.7 1.8-1.7.1-.7-1.2-.7-2.4.3-4.2.7-1.4 1.3-1.9 1.3-1.3 0 3.1 3.3 1.2 20.5-11.6 5.5-4.2 11.4-8.7 13-10.2 1.7-1.5 4.1-3.7 5.4-4.8 1.5-1.3 2.1-2.5 1.5-3-.8-.7-14.6-2.5-36.1-4.7-7.6-.7-11.8.1-12.9 2.6-.5 1.1-10.2 11.5-21.5 23.2-18.4 19.1-22.6 24.1-19.4 23 1.8-.6 19.7-5 29-7.1 5-1.1 10.7-2.5 12.8-3 2-.5 3.7-.6 3.7-.2 0 .3-4.4 1.7-9.8 2.9-26.2 6.3-37.7 9.5-38.3 10.4-.4.6-1.4.8-2.2.5-1.4-.5-3.8.8-30.7 17.1-15.1 9.2-17.6 10.9-16.8 11.8.3.3 3 1.1 6 1.9 17.2 4.3 28.1 7.3 27 7.4-.8.1-8.8-1.7-17.8-4-9.1-2.2-17.3-3.9-18.2-3.7s-2.7 2.3-4 4.8c-2.2 4.3-2.3 4.2-.8-.8 1-3.2-.8-2.8-7.9 1.4-3.3 2-9.6 5.7-14 8.1-15.3 8.6-22 12.7-23.2 14.1-.7.8-3 1.6-5.3 1.8-5 .4-26.4 5.2-29.9 6.7-1.4.5-3.7 1.1-5.1 1.2-3.5.3-15.8 2.4-20 3.4-1.9.4-3.4 1.3-3.3 1.9.4 1.8-2.4 1.5-3.1-.3-.3-.8-1.6-1.5-2.8-1.6-1.3 0-3.2-.5-4.3-1-1.5-.7-.9-.8 2.2-.5 2.4.2 4.5.1 4.8-.3.5-.8-1.4-19.3-2-20-.8-.8-20.4 13.7-20.5 15.1 0 .5 1.5 1.4 3.3 2.2 3.6 1.6 2.2 2.1-1.7.6-1.8-.6-2.6-.6-2.6.1 0 .6-.4.8-.9.4-.6-.3-1.3 1.6-1.6 4.2-1 7.2-1.3 7.4-1.4 1.1-.1-3.1-.4-5.9-.8-6.1-1.4-.7-27.4 2-28.3 2.9-.5.5.8 3.7 3.3 7.6 6.8 11 24.2 36 27.8 40.1 3.1 3.4 3.8 3.7 7.4 3.2l4-.4-3.2 1.1c-1.8.6-3.3 1.5-3.3 2.1 0 1.9 20.1 23.7 21.9 23.7.6 0 1.1.7 1.1 1.6s1.4 3.5 3.1 5.8l3.1 4.1-3.5-3.7c-1.9-2.1-3.9-3.8-4.6-3.8-.6 0-1.1-.5-1.1-1.1 0-1.5-19.7-23.2-22.1-24.3-1-.5-1.9-1.7-1.9-2.6s-.9-2.5-2-3.5-2-2.2-2-2.6c0-.5-2.5-4.4-5.5-8.6-3.1-4.3-6.8-9.8-8.3-12.2s-3.9-5.8-5.3-7.5c-2.3-2.6-2.8-2.8-4-1.5-1.8 1.8-1.7 5.3.4 10.4.9 2.2 1.8 5.6 2.1 7.5.6 5.4 3.3 16.4 7 27.9 3.4 10.7 5.9 19.2 7 24.4.8 3.4 2.1 2.8 2.9-1.3.4-1.6 1.1-3 1.6-3 1 0 .5 3.4-1.2 6.7-1.7 3.7 0 3.8 7.5.5 3.9-1.8 7.4-3 7.6-2.7.3.3-2.9 2.1-7.1 4-4.3 2-7.7 3.9-7.7 4.3.1.9 4.7 6.2 5.5 6.2.3 0 .5-.8.5-1.9 0-1.2.9-2 2.5-2.3 3-.6 3.4-.2 2.8 2.2-.3 1-1.6 2.1-2.9 2.4-2.3.6-2.4.8-1 3.4.8 1.5 2.6 4 4 5.7 1.4 1.6 2.6 3.4 2.6 3.9s-.2.7-.4.5c-2-2.2-12.5-15-13.7-16.9l-1.7-2.5-3.8 3.2c-2.2 1.8-7.1 5.7-11.1 8.5-4 2.9-7.1 5.7-6.9 6.3.1.5 1.6 1.3 3.2 1.6l2.9.7-2.7.1c-2.8.1-7.9-1.5-8.8-2.8-1-1.6-21.8-14.1-23.3-14.1-.9 0-1.8-.4-2.2-.9-.3-.6-2-.5-4.3.3-2.6.9-3.8 2-4 3.6-.4 2.8 1.5 4.2 4 2.9 1-.6 2.3-.7 2.8-.4 1.8 1.1 0 2.5-3.1 2.5-2.2 0-2.9.5-2.9 1.9 0 1 .7 2.4 1.5 3.1s1.5 1.8 1.4 2.4c0 .6-.8 0-1.7-1.4-.9-1.3-2.9-3.8-4.4-5.4-1.6-1.7-2.8-3.5-2.8-4.1s-.9-2.9-1.9-5.1c-1.1-2.2-2.4-8.2-3-13.4-1.1-9.8-.9-12.4.4-6.8.8 3.2.9 3.1 1.5-2.2.4-3 .8-4.4.9-3 .3 2.2.4 2.1 1.3-1 .5-1.9 1.4-4.3 1.9-5.2 1.4-2.8 1.1-8.8-.5-8.8-.7 0-2.7-.7-4.2-1.5l-2.9-1.5h3.2c1.7 0 3.3.6 3.6 1.2.3 1 .7 1 1.8.1 1.8-1.5 2.1 1.5 1.2 11.7-.4 5.2-.8 6.7-1.3 5-.5-1.9-.8-1.1-1.3 3.5-.4 3.3-.9 7.8-1.3 10-.5 3.8-.5 3.9 1 1.9.8-1.1 2.7-5.1 4.1-8.7 1.5-3.7 2.9-6.7 3.2-6.7.7 0-.6 3.9-4.3 12.8-3.4 7.9-4.3 14.9-2 15.5 1.1.3 5.1-11.6 6-17.7.4-2.5 1.1-4.8 1.7-5.1 1.3-.9 1.1 1.6-.7 9.6-.9 3.9-1.3 7.3-1 7.6 1.1 1.2 5.7-.9 6.5-2.9.4-1.3.2-4.7-.6-8.2-3.4-14.5-4.2-22-1.8-15.4.8 2 1.6 5 1.9 6.5 2 10.2 2.2 10.3 3.6 2.3 2.4-13.9 3-15.1 2.5-4.7-.2 5.3-.1 9.7.3 9.7.7 0 5.8-7.6 8-12 .6-1.4 2.6-4.1 4.2-6 3.5-4 3.7-5 1.3-5-1.5 0-1.3-.4.7-2 3.5-2.8 5.1-2.5 4.9.7-.1 1.6.1 4.4.6 6.3.4 1.9 1.1 8.2 1.4 14l.6 10.5 2.8.3c1.7.2 2.7-.2 2.8-1 .1-.7.4-.2.8 1.2.6 2.2 1.1 1.7 4.7-5.4 4-8.1 4.8-13.5 3-19.6-.4-1.4-1-4.5-1.5-7-.4-2.5-1.2-4.4-1.7-4.3s-.8-1.3-.6-3.2-.5-6.2-1.6-9.7-2.6-8.7-3.3-11.6c-.7-2.8-1.6-5.2-2-5.2-1.2 0-1.7 8.4-.6 9.8.7.9.7 1.6 0 2-.5.4-1.4 2.5-1.9 4.7l-.8 4-.5-4.4c-.6-4.1-.7-4.3-2.1-2.6-.8 1-5.3 3.6-9.8 5.8-4.6 2.1-9.3 4.8-10.4 5.9-2.3 2.3-6.7 1.7-7.5-1-.2-.9-4.3-4-9.1-6.8-12.9-7.5-13.6-7.8-16.1-6.5-2 1.1-2.3.8-2-1.5.1-1.2-2.5-2.4-5.6-2.5-3-.1-3-.1.7-1.3 4.9-1.5 5.4-2 7.7-9.1 1-3.3 3.5-10.6 5.5-16.3 2-5.6 3.6-11.1 3.6-12.1 0-1.1.4-2.1.9-2.3 1-.3 1.5-3.5 1.3-8.1-.2-2.7-.3-2.7-1.9-1.2-.9.9-1.7 3.1-1.8 4.8-.1 1.8-.5 3.9-.8 4.7s-.8 2.6-1 4c-.4 2.4-.4 2.4-.6-.3-.2-4.2-1.6-3.3-4.5 3-1.5 3.2-5.9 11.8-9.7 19-6.5 12.5-6.8 13.3-4.7 13.4h2.3l-2.2.9c-1.6.7-2.3 1.8-2.3 3.7 0 2.1-.3 2.4-.9 1.3-1.4-2-.3-6.5 3.5-14.5 4.7-10.1 4.8-11 2.3-13.4-2.5-2.3-1.9-2.7 1.4-1 1.2.7 1.9.8 1.5.4s.4-1.7 1.7-2.9c2.1-1.9 6.5-8.8 6.5-10.2 0-.3-1.9-.3-4.2 0-3.1.4-3.7.3-2.3-.3 1.1-.5 3.2-1 4.6-1 3.1-.1 5.4-3.8 4.4-7.2-.5-1.8-.4-2 .4-.9.8 1.2 1.5.3 3.6-4.3 1.4-3.2 2.5-6.9 2.5-8.3 0-2.5-.1-2.6-5.2-1.9-2.9.4-5.5.9-5.8 1.2-.2.2.5 2.2 1.8 4.3 3.2 5.6 2.7 6.1-1.3 1.5-2.8-3.3-3.6-3.7-4.4-2.5-1.5 2.2-2.6 11.4-2.5 21.5 0 4.9-.1 8.1-.3 7s-.9-3.2-1.5-4.7c-.7-2-.5-5.4.8-13.2 1.4-8 1.5-10.8.6-11.8-.6-.8-6.5-2.8-13.1-4.4s-11.8-3-11.6-3.2c.4-.4 15.9 2.6 19.8 3.8 2.3.8 2.7.6 2.7-.9 0-2-2.7-6-12.1-18.3-3.1-4-8.1-10.8-11.3-15.1-3.5-4.8-6.2-7.5-6.9-7.1s-7.5 4.8-15.2 9.7c-27 17.2-25.2 15.9-23 16.8 1.1.5 11.5 2.9 23 5.5 19.2 4.2 23.8 5.4 20.7 5.4-.6 0-11.3-2.3-23.8-5.1-15.9-3.5-22.9-4.7-23.4-3.9-.4.6-1.9 7.5-3.4 15.3-3.6 18.6-3.8 19.6-4.3 17.6-.3-1.1-4-2.9-10.8-5.3-12.1-4.1-12.3-4.2-14.1-1.9-1.3 1.7-1.4 1.7-.8 0 .4-1 .1-1.7-.7-1.7-.9 0-1-.3-.2-1.1s.1-2.5-2.5-6.4c-2-3-3.9-5.1-4.2-4.9-.3.3-1.3 2.6-2.3 5.2l-1.7 4.7.4-5.3c.3-2.8.2-5.2-.2-5.2-1.7.1-3.1 1.7-3.5 4.5-.3 1.7-.4 1-.3-1.7.1-4.1.3-4.7 1.9-4.2 2.8.9 6.5-3 6.1-6.4-.3-2.5-.3-2.5.4-.3s.9 2 4.1-3c1.8-3 4.8-7.7 6.6-10.4 1.8-2.8 4-6.5 4.9-8.3 1.6-3.1 1.6-3.2-.6-4.1-1.3-.5-4.2-1.2-6.5-1.6l-4.2-.7.6 3.6c.3 2.2-.3 6.1-1.8 10.9-1.9 6.4-2.5 7.3-3.5 5.9-1.1-1.4-1.4-1.1-3 2.6-2.3 5.2-3.1 5.4-2.6.6.3-2.6.1-3.5-.7-3-.6.4-1.1 1.5-1.2 2.4 0 1.4-.2 1.4-.6.2-.3-.8-2.3-4.1-4.4-7.2-3.1-4.7-3.6-6.3-3.2-9.5.3-2.1 1.1-4.5 1.9-5.4 1.6-1.8 1.9-10.5.4-11.4-.5-.3-1-2.2-1-4.1 0-2-.5-3.3-1.2-3.1-1.5.3-4-8.1-2.9-10.1.7-1.2 1-.8 1.6 1.6.3 1.7 1.5 4.9 2.6 7.1 1 2.2 1.6 4.7 1.2 5.7-.4 1.1-.2 1.5.4 1.1s1.7 0 2.4.9c1.6 2 8.9 5.7 9.6 5 .4-.3-1.5-5.2-4.2-10.8-6.9-15-6.5-15.2.9-.5 3.6 7 6.8 12.2 7.1 11.6.4-.6 1.1-2.3 1.6-3.7.6-1.9.7-1.2.3 2.4l-.5 5.1 4.8 1.2c2.6.7 5.6 1.4 6.7 1.8 1.7.5 1.8.1 1.1-6.3-.4-3.8-.9-7.8-1.1-8.9s-.7-4.3-1-7c-1.1-8 .4-4.7 1.7 3.9 1 6.7 1.4 7.7 3 7.3 2.6-.7 5.4 1.6 4.6 3.8-.5 1.2-1.4 1.5-3.2 1.1-2.6-.7-3 0-1.9 4.1.6 2.1.6 2.1 5.7-.9 2.9-1.7 5.4-3.4 5.5-3.9.2-.5 1-.9 1.7-.9s3.6-1.6 6.4-3.5 5.5-3.5 6.1-3.5c1.6 0 1.2-2.7-.5-3.4-.8-.3-7.6-4.6-15.1-9.6-9.6-6.4-14.2-8.9-15.5-8.5-1.2.4-1.9.2-1.9-.8 0-1.3-19.3-20.1-24-23.4l-2.2-1.6.7 8.4c1.3 15.1 1.7 16.3 5 17l3 .7-2.9.1c-2.3.1-2.7.5-2.3 2 .4 1.7.1 1.6-3.1-.5-1.9-1.3-4.3-2.4-5.3-2.4-2.7 0-2.5-5.8.7-18.6 1.4-5.7 2.2-10.9 1.8-11.6s-.3-.8.4-.4c.8.5 1.2-.2 1.2-1.8 0-3.2 3.4-17.8 5.4-23.1 2.2-6 1.9-3.7-.9 6.7-2.8 10.3-3.2 13.3-1.4 10.8.8-1.2.9-1 .4.8-.4 1.2-.7 3.2-.9 4.5-.1 1.3-.6 2.8-1 3.5-.8 1.3-.6 1.5 14.3 15.5 5.1 4.8 9.7 8.7 10.2 8.7 1.2 0 1.1-.9-.5-8.8-.8-3.7-2.2-11.2-3.2-16.7-1.3-7.5-2.8-12.2-6.1-18.9-2.4-4.8-4.2-9.1-3.9-9.4.7-.7.6-.9 4.1 6.5 1.6 3.5 3.2 6.3 3.7 6.3.7 0 7-13 8.3-17.2.4-1.3 1.7-3.3 2.8-4.6 1.8-1.9 1.8-2.2.4-2.2s-1.4-.4.5-2.5c1.2-1.4 6.1-13.2 10.9-26.3 10.8-29.4 10.4-28.3 8.5-27.6-.9.3-1.4.9-1.2 1.3.3.4-.4.7-1.5.7-1.6 0-1.3-.6 1.7-3.1 2.3-2 3.4-3.6 3-4.4-.4-.7-.2-1 .5-.9.7.2 2.4-2.1 3.9-5 3.3-6.4 4.8-8 2.6-2.8-.9 2.2-1.5 4.1-1.3 4.3s3-2.5 6.2-5.9c3.2-3.5 10.3-10.9 15.7-16.6 5.5-5.7 9.8-10.5 9.6-10.6-.1-.2-1.2-.9-2.3-1.5l-2-1.3 2 .8c2.1.7 2.7.7 9 0l4-.5-3.2 1.1c-1.8.6-3.3 1.4-3.3 1.8 0 .5 2 2 4.4 3.4 2.5 1.5 4.8 3.1 5.1 3.7.4.5-1.8-.6-4.9-2.6-3-1.9-5.9-3.5-6.4-3.5-.9 0-23.1 22.2-29.7 29.7-2.1 2.4-3.2 4.3-2.6 4.3s4.6-1.3 8.9-2.9c4.2-1.6 14.5-5.4 22.7-8.5 8.3-3.1 16.5-6.3 18.4-7.2 3.3-1.5 3.3-1.5 1.5-3.5-1.9-2.1-1.9-2.1 1.1-.4l3 1.6 22-14.6c12.1-8.1 22.2-15 22.5-15.4.7-1 4-2.3 6.8-2.7 3.3-.4 2.7.3-1.5 1.7-2.1.6-5.8 2.6-8.3 4.4s-12 8.3-21.2 14.4c-15.6 10.5-19.8 13.7-16.6 12.7.7-.3 5.8-.7 11.3-1 6.5-.3 8.6-.2 6 .4-2.2.4-7.3 1-11.3 1.2-4 .3-7.5.7-7.8 1-.2.3.2 2.5 1.1 4.9s4.5 12.9 8.1 23.4c6.6 19.2 8.5 22.5 11.1 20.3 2.3-1.9 3.3-4.3 6.8-17.1 3.3-12.1 11.8-31.7 13.7-31.7 1.2 0 1.3-.2-4 9.2-2.3 4.2-4.6 9.7-5.1 12.2-1.2 6.7.3 45.4 1.8 46.9 1 .9 2.1.3 5.2-3.2 2.1-2.4 3.9-3.9 3.9-3.4 0 .6-1 1.8-2.1 2.9-1.2 1-3.3 3.7-4.7 5.8-2.3 3.7-2.4 4.6-1.9 12.5.4 7.3.3 8-.5 4.3-.6-2.3-1.4-4.2-1.9-4.2-.4 0-.8-9.3-.9-20.8-.1-20-.6-31.1-1.3-31.9-.3-.2-.9 1.6-1.5 3.9-.6 2.4-3.4 12.7-6.2 23-2.7 10.4-5 19-5 19.3s1.5.6 3.3.6c3 .2 3 .2.5.6-3.9.6-4.4 3.6-2.6 15.4.8 5.4 1.1 9.6.6 9.3-.4-.3-.8-1.3-.8-2.2s-.9-5.2-2-9.6c-1.5-6.2-1.7-8.8-.9-12.5.5-2.5 1.2-6.2 1.5-8.1s1.2-4.9 2-6.7c1.8-4.1 1.8-6.3-.2-6.3-.8 0-1.2-.4-.9-1 1-1.7-4.2-2.2-7.1-.7-1.6.8-4.5 1.8-6.4 2.1-2.2.4-.9-.4 3.5-2.2 6.8-2.7 7-2.9 6.9-6.2-.1-3.2-12.8-40.1-15.5-45.1-1.1-2.2-1.1-2.2-3.5.4-1.3 1.4-2.4 2.9-2.4 3.2s-1.7 2.9-3.8 5.8c-12.1 16.4-41.2 58.2-41.2 59.2 0 .1 6-1.5 13.3-3.6 30.4-9 37.9-11.1 38.2-10.7.2.2-11.5 3.9-26.1 8.3-14.5 4.3-26.4 8.1-26.4 8.4 0 .8 12.3 11.9 21 19.1 10.6 8.8 27 23.1 27 23.6s-23.6-19.3-37.7-31.6c-5.6-5-10.4-9-10.8-9-.3 0-.6 18.8-.7 41.7l-.2 41.8-.6-42.2c-.3-23.2-.7-42.3-1-42.6-.7-.6-25.3 4.3-26.5 5.3-.6.5-1.2 2.6-1.3 4.7-.2 3.3-1.7 20.7-3.8 44.1-.3 3.5-1 6-1.5 5.6-.5-.3-.7-.9-.5-1.3.5-.7 4.6-44.8 4.5-47.9 0-1.8-2.3 2.5-8.2 15.6l-3.7 8.3 2.1 9.7c1.2 5.3 2.5 11.9 2.9 14.7.5 2.7 1.5 6.8 2.3 9l1.6 4 1.5-3.8c.9-2 1.9-3.7 2.1-3.7.3 0-.2 1.7-1.1 3.7-3 6.9-3.1 6.8 13.6 18 8.5 5.6 15.8 10.3 16.2 10.3.5 0 .9-1.9.9-4.3l.2-4.2.7 5c.8 5.9.3 8.9-1.4 7.6-.7-.5-5 1.6-12.1 6.1-6 3.8-11.6 7.3-12.4 7.8-1.3.7-1.3 1.1.1 3.1 2 3.2 16 17 16.6 16.5.2-.3 1.7-5.3 3.2-11.3 3.3-12.5 4-11.5 1 1.3-1.1 4.8-1.9 9.1-1.8 9.5.3.8 18.5-10.5 36.3-22.6 5.4-3.7 9.3-6 8.6-5.1-1.2 1.4-1.1 1.6.5 1.7 1.7.1 1.7.2.2.6-2.7.7-2.2 2.5 2.5 8 2.4 2.8 6.1 7.5 8.2 10.4 2.1 3 5.4 7.2 7.2 9.4 5.1 6 5.1 6.1 7.7 10.9q2.25 4.35 3.6 3.6c1.6-1 .9-10.1-1-12-2.8-2.8-7.4-12.5-8.5-17.9-.9-4.2-.8-6.6.3-10.8.7-3 1.1-5.7.8-6-.2-.3-2.6 0-5.3.5-2.6.6-4.9.9-5.1.8-.1-.2 2.5-1.3 5.9-2.5 3.5-1.3 5.9-2.7 5.6-3.4-.2-.7-1-3.7-1.8-6.7-.7-3-1.4-5.7-1.6-6-.2-.2-1.5.9-2.8 2.4-1.4 1.6-2.5 2.5-2.5 2 .1-1 5.6-7.4 6.5-7.4.2 0 1.2 1.4 2 3 .9 1.7 2 2.8 2.5 2.5.6-.4 1 0 1 .8 0 .9 1.1 1.4 3 1.4s3-.5 3-1.4c0-2-4.6-9.6-7.1-11.9-1.1-1-2.5-2.8-3.1-3.9-.9-1.9-.3-1.4 7.2 7 1.4 1.6 3.9 4.1 5.3 5.4l2.7 2.5-1.4-3c-.8-1.6-1.7-4-2.1-5.4-.6-2.2-.2-2 3 1.5 2 2.1 4.4 4 5.3 4.1 1.4.2 1.4 0-.2-1.2-1.1-.8-1.6-1.4-1.1-1.4s-.6-1.6-2.5-3.5c-6.2-6.4.4-3.6 7.3 3.1 1.6 1.7 1.7 1.6 1.7-2 0-2-.7-4.8-1.6-6.1s-1.4-3-1.1-3.7c.2-.7 2.1 2.2 4.1 6.5l3.7 7.8 3.5-.7c3.1-.6 3.4-.4 3.4 1.7 0 4.6 1.6 5.2 2.8 1.1 1.4-4.6 1.5-6.9.4-7.4-1.1-.4-2.3-7.8-1.3-7.5.4.1 2-1.2 3.5-2.8l2.7-3-.5 2.7c-.8 3.3-.3 3.5 2.5.7 2.6-2.6 3.1-2.1 2.3 1.9-.5 2.2-1.2 3.2-2.5 3.2-3.4 0-2 2.5 2.9 5 2.6 1.3 4.9 2.7 5.2 3.1.3.3 3.1 2.1 6.2 3.8 5.3 3 5.7 3.1 6.7 1.4s1-1.7 1.1.2c0 1.6.5 1.3 3.1-1.5l3.1-3.5-2.2 3.7-2.2 3.8h8.1c4.4 0 9.2-.5 10.7-1 2.5-1 2.6-1.3 2-5.8l-.6-4.7 2.4 3 2.4 3 2.1-2.3c1.1-1.3 2.4-2.1 3-1.8.6.4 2.2-1.8 3.7-4.9 2.8-5.6 5.2-7.7 3.3-2.8-1.8 4.8-.8 5.4 8.6 5.2 5-.1 8.5-.6 8.5-1.2 0-.5-1.8-4.1-4-7.9-2.2-3.9-4-7.4-4-7.9s-1.2-1.6-2.6-2.5c-2.3-1.6-2.8-1.6-5.2-.2-1.5.9-7 3-12.2 4.8-5.2 1.7-10.2 3.6-11.2 4.1-1.3.7-1.8.6-1.8-.3 0-.7-2.3-2.6-5-4.2s-6.1-4-7.5-5.3c-1.5-1.5-3.2-2.2-4.3-1.9-1.6.5-1.7-.7-1.7-14.7 0-21.7-.7-42.5-1.5-43.8-.5-.7-3.1-1-6.9-.7-3.3.1-6.1 0-6.1-.3 0-.4 2.7-.9 6-1.1s6.3-.7 6.7-1.1c.3-.4-.7-2.2-2.3-4-1.7-1.7-4.2-5-5.7-7.2s-3.6-5.1-4.6-6.5l-2-2.5-2.7 2.5-2.7 2.5 2.4-3.3c2.5-3.5 2.6-4.2 5.8-37 2.4-24.4 3.1-32.9 3.1-37.1v-4.3l-2 2.3c-2.2 2.8-2.7 1.3-.5-1.7.8-1 1.5-2.5 1.5-3.3 0-1.2 8.5-10.1 9.6-10.1.3 0-.9 1.8-2.7 4s-3.3 5.2-3.4 6.7c-.2 4-2.4 26.4-3.5 36.3-.5 4.7-1.2 11.6-1.6 15.5-.3 3.8-1 10.1-1.4 14-.7 6.3-.6 8.6.3 7.4.7-.9 8.8-14.1 10.6-17.2 4.5-7.8 9.1-15.6 12.2-20.8 1.9-3 5.7-9.5 8.4-14.3 2.8-4.8 7.3-12.2 10.1-16.5s5.6-9.2 6.2-11.1l1.2-3.3-5.3.6c-12.8 1.6-13.7 1.6-6.2.1 4.4-.9 8.9-2 10-2.4 3.8-1.6 5-1.7 7-.7s2 .9.2-1.1c-2-2.2-1.4-4.5 1.7-7.2 1.4-1.1 1.5-.9.1 2.3l-1.5 3.6 2.8-.9c1.5-.4 6.1-2.5 10.2-4.5 12.4-6.2 38.1-18.5 38.6-18.5.2 0 5.8-2.7 12.5-6 6.6-3.3 12.7-6 13.5-6s1.7-.7 2-1.5c.4-.8 1.6-1.5 2.9-1.5s8-2.3 14.9-5c6.9-2.8 12.9-5 13.2-5s7.4-2.5 15.8-5.6c8.3-3.1 16-5.8 17.1-6 3.2-.8-15.5 6.7-35.5 14.1-10.2 3.8-19.3 7.4-20.3 8-1.6 1.1-1.4 1.4 2 2.3 45.6 12.4 42.2 11.6 44.3 9.7 2.3-2.1 2.9-1.9 2.3.6-.5 1.8-.2 2 1.4 1.5 1-.3 9.5-1.5 18.9-2.6 50.5-5.8 50.4-5.8 50.4-6.9 0-.4-1.9-1.6-4.2-2.7-2.4-1.1-7.9-4.3-12.3-7.1-16.9-10.7-32.4-19.5-33.4-18.9-.5.4-1.2.2-1.5-.3s-1.5-.7-2.6-.4-2 0-2-.6 1.7-1.1 4-1.1c2.2 0 4 .4 4 1m313.8 99.9c7.8 6.5 8 6.5 15.6 2.5 3.7-2 7-3.4 7.3-3.1s-2.6 2.1-6.3 4c-4.4 2.3-6.4 3.7-5.4 4.1.8.3 12.8 4.8 26.7 10 13.8 5.2 26.2 9.8 27.5 10.1 1.2.3 3.4 1.5 4.8 2.6l2.5 2-4-1.6c-2.2-.9-8-3.2-13-5-4.9-1.8-16.8-6.3-26.4-9.9-9.5-3.7-17.5-6.5-17.8-6.3-.2.3 2.6 4.9 6.4 10.3 8.9 13.1 22.6 33.2 32.2 47.4 10.9 16.1 10.5 15.9 13.4 5.8 5.5-18.8 10.2-37.5 10-39.8-.2-2.5-3.5-6.3-19.1-22.3-3.7-3.7-6.2-6.7-5.7-6.7s6.9 6.1 14.1 13.6l13.2 13.6 3.2-1.7c1.7-.9 3.4-1.4 3.7-1.1s-1.2 1.2-3.2 2.1c-2.1.8-3.6 1.7-3.4 1.9s3.9 3.1 8.2 6.5c4.2 3.4 7.7 6.4 7.7 6.7 0 .6-3.5-2-9.6-7-1.9-1.6-3.7-2.6-4-2.4-.2.3.2 1.1 1.1 1.8.8.7 1.5 2 1.5 2.9 0 1.2-.5 1-2-.9-1.9-2.3-1.8-1.9.4 4.5 3.3 9.4 5.8 18.6 5.3 19.1-.2.2-1.4-2.9-2.6-7.1-1.2-4.1-2.8-7.3-3.4-7.2-.7.1-1-1.2-.8-3.4.1-2.1-.2-4-.8-4.4-.6-.3-1.1-1.8-1.1-3.3 0-2-.3-2.3-1.2-1.4-.6.6-1.1 3.4-1.1 6.2 0 2.7-.3 5-.8 5-1.3 0-2.4 3.1-6.4 18.6-2 7.4-3.8 14.1-4.1 14.9-.4 1 .9 1.9 4.3 3l4.8 1.5-4.7-.6c-2.8-.3-4.8-.1-4.8.4s2.9 7.4 6.5 15.3c3.6 7.8 6.3 14.4 6.2 14.6-.2.1-3.2-5.9-6.8-13.5l-6.4-13.7-.6 5-.6 5-.1-6.3c-.1-3.4-.4-6.2-.7-6.2-.2 0-7.6 5.7-16.2 12.7-8.7 6.9-16.5 13.1-17.3 13.7-3.6 2.5 3.6-3.7 17.7-15.4 8.4-6.8 15-12.7 14.8-13.1-.2-.3-11.5-3.9-24.9-7.9-13.5-4.1-24.4-7.5-24.2-7.7.4-.4 15.1 3.6 30.6 8.4 4.7 1.4 10.5 3.2 12.9 3.9 5.1 1.6 6.1 1.2 3.8-1.4-1-1-1.7-2.2-1.7-2.6s-1.5-2.6-3.4-4.9c-3.2-4-19.2-27.4-34.9-50.9-4-6-7.5-10.8-7.8-10.8-.7 0-5.7 10.9-9.2 20-2.4 6.3-5.2 12.7-10.3 23.8-1.3 2.9-2.4 5.9-2.4 6.6 0 .8-.8 2.4-1.9 3.7l-1.8 2.3.4-3c.3-2.5-.2-3.2-3.4-5.2-4.9-3-10.8-8-10.2-8.6.3-.3 3.4 1.7 6.9 4.4 3.6 2.7 7 4.9 7.5 4.9 1.1.1 6-10 8.1-16.4.7-2.2 2.8-7.4 4.7-11.5s4.8-11 6.5-15.2l3-7.7-4.2-.6c-2.2-.3-6.8-.7-10.1-.9-4.1-.2-3.2-.3 3-.4 5 0 9.4-.1 9.9-.1.4-.1-1.6-1.7-4.5-3.7-6.8-4.6-8.8-6.4-7-6.4.7 0 3.3 1.7 5.9 3.9m-677 44.3c-2.9 5.7-5.3 10.8-5.3 11.4s-.5 1.8-1.1 2.5c-2.3 2.9-7 32.9-5.2 32.9.3 0 2-3 3.8-6.6 1.7-3.6 3.4-6.3 3.6-6.1s-1.4 4.1-3.6 8.6c-4.7 9.5-7.6 16.5-9.7 23.4-.8 2.7-1.6 4.7-1.9 4.5-.2-.2.6-3.6 1.7-7.4 2.5-8.4 3.6-13.6 4.7-23.2.9-7.8-.2-10.1-1.4-2.7-.3 2.5-1 4.5-1.5 4.5-1.1 0-.8-1.4 3.6-17 4.1-14.3 5.9-19.2 7.1-18.8.5.2 1.8-1.5 2.9-3.7 4.1-8.1 6.6-12.5 7-12.5.3 0-1.8 4.6-4.7 10.2m767.7 9.3c9.4 13.5 15.7 21.5 16.5 21 .4-.3 2-2.5 3.4-4.9 2.9-5 2.7-6-3.6-18.5-4.1-7.9-4.8-9.9-2.2-6.2 1.3 1.8 1.9 2 2.6 1 .8-1.1.9-1 .4.3-.3 1 1 5.2 3 9.4 1.9 4.2 4.4 11.9 5.5 17.2 1.1 5.4 3.5 15.6 5.4 22.8 2.6 9.9 3.3 13.8 2.6 15.5-1 2.4-1 2.4-1-.3-.1-3.7-2.1-4.6-2.2-1.1l-.2 2.8-.4-2.8c-.5-3-1.3-3.3-3.1-1.5-.9.9-1.2.9-1.2.1 0-.7.5-1.5 1-1.8 2.4-1.5.5-3.3-7-7-4.4-2.1-7.8-4-7.6-4.2s3.6 1.2 7.6 3.2c4.1 1.9 7.5 3.3 7.7 3.2.1-.2-1-2.8-2.5-5.8s-4-8.3-5.6-11.7l-2.8-6.2-4.2 4.6c-6.9 7.9-7.1 8.3-5 10 1.8 1.5 1.8 1.5-.3 1.1-3-.7-2.9 0 .7 5.6 1.7 2.6 3 5 3 5.2 0 .3 1.5 3.6 3.4 7.5l3.4 7.1 4.2-4.8c2.4-2.6 3.7-3.9 3-2.8-.8 1.1-2.4 3.1-3.6 4.5s-3.3 5.6-4.7 9.5c-2.9 7.9-3.5 7.9-1.1-.1l1.5-5.3-6.1-11.8-6.2-11.8.5 29.5c.2 16.2.1 27.2-.3 24.5-.5-2.8-.9-16.8-1-31.3-.2-23.3-.4-26.3-1.8-27.1-1-.5-6-1.9-11.2-3.2s-8.8-2.5-8-2.6c.8-.2 5.6.7 10.6 2l9.2 2.4-.8-2.6c-.5-1.4-1.8-5.7-3-9.4-3.3-10.6-1.9-8.8 1.9 2.3l3.3 9.8 5.4-6.3c3-3.5 5.4-7 5.4-7.7s-2.8-5.2-6.3-9.8c-8.5-11.4-16.7-23.5-16.7-24.5 0-.9 1.8 1.4 8.5 11m40.4 90.8c1.2 4.9 2.7 10.1 3.2 11.5 1.3 3.4.4 7.3-1.6 6.6-.8-.3-3 .9-5.1 3-2 2-3.8 3.6-4 3.6-.1 0 0-.9.3-1.9.4-1.4-.1-2.1-1.9-2.4-2-.4-1.9-.4.6-.6 4.1-.2 10.6-4.1 10.6-6.4 0-1-1-5.1-2.2-9l-2.2-7.2-.8 9c-1.2 13.4-1.7 13.6-1.1.2.6-12.2.2-13.4-3.2-9.7-2.3 2.6-20.8 15.8-23.2 16.7-2.7.9-1-.5 10.7-9 17-12.5 17.3-12.8 14.4-20.9-1.1-3.2-1.1-4.8-.1-8.5l1.2-4.6 1.1 10.4c.7 5.7 2.2 14.4 3.3 19.2m-28.7-3.2c-1.1 4.1-2.7 9.5-3.5 12-1.3 4.2-1.3 4.7.4 6 1 .8 5.9 2.1 10.9 2.8s8.9 1.5 8.7 1.8c-.5.4-12.2-1-18.9-2.3-2.7-.5-2.8-.4-2.3 2.8.3 1.8.2 2.6-.1 1.8-1.6-3.7-3.8-3.5-11.2 1-2.6 1.5-9.8 5.6-15.9 9-6.2 3.5-11.3 6.6-11.3 6.9 0 .9 27.3 16.1 27.8 15.6.3-.2 1.1-2.8 1.8-5.7l1.4-5.3-.5 5.2c-.6 6-.8 5.9 7.4 4.3 5.4-1 8.1-2.8 8.1-5.3 0-.9-.9-4.4-2-7.8-1-3.5-1.8-6.5-1.6-6.7s1.2 2.1 2.1 5c1 2.9 2.4 6.1 3 7.1 1.2 1.7 1.6 1.4 5.3-3.5 2.2-2.9 5.4-7.7 7.2-10.6 4.3-7 4.9-6.6.9.5-4.1 7.5-4.5 8.2-6.4 12.1-1.6 3.3-1.6 3.3.4 2.2 1.2-.6 2.1-.8 2.1-.4s.8 0 1.8-.9c1-1 2.2-1.4 2.7-1 .4.5.5 0 .2-1-.4-.9-.3-1.7.2-1.7s1.2-1.7 1.7-3.8l.7-3.7.6 3c.6 2.9.7 2.8 3-2.8 2.7-6.7 3.9-7.1 1.5-.6-.8 2.4-2.1 6.6-2.9 9.2-1.2 4.5-1.1 5.2 1.1 9.4 2.2 4 2.3 4.6.9 6.6-.8 1.2-1.5 3.8-1.5 5.7 0 2-.5 4.1-1.2 4.8s-.8 1.2-.3 1.2-.1.7-1.3 1.6c-1.2.8-1.9 2-1.5 2.7.3.6 2.3 5.8 4.4 11.6 3.7 10.6 14.5 36.2 20 47.7 2.9 5.8 3 9.4.5 9.4-1.3.1-10.9 9-10.3 9.7.3.2 1.9.5 3.6.5 1.7.1 2.8.5 2.5.9-.2.4-2 .5-3.9.2s-4.2-.2-5.2.2-3.6.9-5.8 1l-4 .4 3.5-1.5c1.9-.8 3.6-1.7 3.8-1.9.8-.8-2.8-3.5-9.1-7-2.3-1.3-3-1.4-4.1-.2-3.4 3.3-4.2 20.6-2 40.5.8 7.6 2.4 9.1 2.5 2.5l.2-4.8.7 4.5c.4 2.5.5 5.7.3 7.2-.7 3.7.8 3.6 3-.1 1.5-2.5 1.6-3.7.7-7.7-1.4-6.2-.6-6.7 1.4-.8 1.6 4.7 1.6 4.8-1.2 9.3-1.5 2.5-3.2 5.7-3.8 7.1l-1.2 2.5-1-2.7c-1.4-3.4-3.1-13.8-4.1-25.1-.5-4.8-1.1-9-1.4-9.4-.9-.8-2.7 4.2-2.7 7.2 0 1.7-.4 2.3-1.4 1.9-.9-.4-2 .6-3.1 2.5-.8 1.7-1.8 3.1-2.1 3.1s.4-1.7 1.4-3.8c5.9-11.2 10-23.5 10.8-32.8.4-4.2.3-7.4-.2-7.4-1.1 0-4.7 9.7-4 10.9.3.4.1 2.1-.4 3.7-.8 2.4-.9 1.9-.7-2.9.2-5.9-.2-6.7-2.3-4.2-.7.8-1.8 1.5-2.4 1.5s.3-1.4 2.1-3c2.7-2.6 3.1-3.5 2.6-6.5-.5-2.9-.3-3.4 1-3 1.1.5 1.8-.4 2.7-3.2.7-2.1 1.6-4.3 2-4.8 1.8-2.3 4.1-12.6 3.6-16.5-.8-6.6-9.2-20.1-12.4-20-.9.1-8.6 10-8.1 10.4.2.2 3.3 1.8 6.8 3.6 4 2 6.6 2.8 7 2.1.4-.6 1.2-.2 1.9.9.7 1.2.8 2 .2 2-.5 0-1 .8-1 1.7 0 1.5-.2 1.6-.9.3-.6-.8-.8-1.7-.6-2 .5-.9-12.4-7.1-15-7.2-1.1-.1-3.1.2-4.5.5-2.5.7-2.5.7-.2-.5 1.2-.6 2.1-1.6 1.9-2.1-.3-1-23.9-18.5-27.9-20.8-1.5-.8-1.7-.6-1.3 1.8.9 5.7 4.8 26.8 5.1 27.1.1.2 4.4-.8 9.4-2.3s9.3-2.5 9.6-2.2c.2.2-3.1 1.4-7.3 2.6-10.1 2.9-12.5 3.9-11.8 5 .3.5.1 1.2-.5 1.6s-1-.9-1-3.4c0-2.2-.9-8.4-1.9-13.8-1.1-5.4-2.4-11.8-2.8-14.3-.6-3.1-1.3-4.4-2.3-4.3-2.1.3-28.2 6-36.2 7.9-3.6.9-7.1 1.5-7.8 1.2-.6-.2 6.9-2 16.7-4.1s19.1-4.4 20.6-5.2c1.6-.8 3.4-1.2 4-.8.7.4.6-.1-.2-1-2.3-2.9-34.7-23.8-38.8-25.1-1.3-.4-2.3-1.4-2.3-2.2 0-1.1.4-1.3 1.6-.6.9.5 2.6.7 3.8.5 1.7-.4 1.8-.3.6.6-1.8 1.2-2.1.9 6.5 6.1 7.1 4.3 12.7 7.8 24.8 15.6 7.9 5.2 7.8 5.5 4.8-9.4-1.1-5.4-2.3-12.3-2.6-15.5-.5-4-1.2-5.7-2.2-5.7-.8 0-1.2-.4-.9-.8.3-.5-4.8-3.2-11.2-6.2-6.4-2.9-12.1-5.7-12.7-6.2-1.5-1.4 1.9 0 14.4 5.9 6.3 2.9 11.6 5.3 11.7 5.3.2 0 .5-3.7.6-8.3l.2-8.2.3 7.8c.3 5.7.7 7.7 1.6 7.4.7-.3 8.9-4.8 18.2-10 18-10 18.3-10.3 16-16.2-.7-1.9-.7-1.9.7-.1 2 2.5 3.5 1.4 4.8-3.7 2.4-9.1 5.2-17.8 5.7-17.4.2.3-.5 3.8-1.5 7.8m-270.4 37.6c-.3 1.4 1.3 13.5 2.8 20.6.8 3.8 1.4 8.2 1.4 9.9s.6 3.9 1.4 4.7c1.9 2.2 3 6.1 1.7 6.1-.5 0-1.3-.5-1.7-1.1-.4-.8-.9-.7-1.5.2-.6 1-.9.8-.9-.9 0-2.6-1.6-2.8-4.2-.5-2.2 2-2.4 1.1-.3-1.1 2-2 .5-4.7-3.6-6.5-2.8-1.2-2.9-1.6-2.9-7.7 0-5.3.5-7.2 2.5-10.2 2-2.9 2.5-3.2 2.6-1.7 0 1.1.3 1.4.6.7s-.2-2.3-1-3.6c-1-1.5-1.2-2.8-.6-3.7.5-.8.9-2.4.9-3.7s.6-2.2 1.5-2.2c.8 0 1.4.3 1.3.7m24.8 40.6c-.4 1.9-1.5 5.2-2.6 7.5s-2 4.8-2 5.6-.4 1.8-1 2.1c-.6.4-.7-.6-.4-2.5.8-3.8-1-4-5.7-.5-1.9 1.4-4.5 3.2-5.9 4.1s-4 3.8-5.9 6.4-4.6 5.5-6 6.5c-3.3 2.2-9.1 9.7-9.1 11.8 0 .8 1 1.8 2.3 2 1.7.3 1.5.5-.9.6-2.2.1-3.7 1-5.4 3.3-1.3 1.8-2.2 3.3-2 3.4.3 0-.8 1.3-2.5 2.7-2.9 2.5-2.9 2.6-.7 2.7 2.6 0 2.8.6.8 2.6-1.6 1.6-3 1.9-2.2.5.4-.5-.4-.7-1.6-.3-1.7.4-2 .2-1.5-1.1.8-2.3-.5-2.2-8 .5-3.5 1.2-6.3 2.7-6.3 3.4s-.8 1-1.8.7c-1.1-.2-4.6.6-7.8 2-7.4 3-11.8 4.2-10.9 2.7.3-.5 1.1-1 1.7-1 1.3 0 12.8-5.1 12.8-5.7 0-1.5-3.4-3.2-8.2-4.3-4.2-1-5.5-1.6-5.1-2.7s-.1-1.4-1.8-1.2c-2.6.3-6.9-1.6-6.9-3.1 0-.6 1-1 2.2-1 1.9 0 8.4-4.1 10-6.4.3-.5.4-1.5.1-2.3-.7-1.8.7-1.7 2.1.2.6.8 3.1 1.7 5.5 2 2.3.3 4.8.8 5.5 1.1.6.3.2-.2-.8-1-1.1-.9-2.9-1.6-3.9-1.6-1.6 0-1.7-.3-.7-1.5.7-.8 1.7-1.5 2.2-1.5s2.9-1.5 5.3-3.4c3.2-2.4 4.1-3.6 3.3-4.4s-.4-1.2 1.3-1.6c8.6-1.8 9.3-1.4 5.9 3.4-1.1 1.5-2.1 3.8-2.2 5.1-.3 2.3 0 2.4 6 2.4 5.1 0 6.7-.4 7.8-1.9.7-1 1.1-2.3.8-2.7-.3-.5 0-.9.5-.9.6 0 1.1-.9 1.1-2 0-1.2-.7-2-1.7-2-1.4 0-1.5-.2-.4-.9.9-.6 1.2-2.5 1-6.5-.2-3.1-.3-5.6-.1-5.6.9 0 4.2 4.3 4.2 5.6 0 1.2.6 1.5 2.3 1.1 2-.6 2.1-.5.4.8-1.1.7-1.4 1.6-.8 1.9.5.4 1.2.2 1.6-.4.4-.7 1.2-.7 2.5 0 2.7 1.4 3.2 1.2 2.5-1-.8-2.5.3-2.6 2.1-.3 1.3 1.7 1.4 1.7.7-.1-.5-1.5-.3-1.8 1-1.3 2.2.8 3.8-1.5 5.2-8.1 1.2-5.2 1.3-5.4 1.4-2 .1 2.1.5 3.8 1.1 3.8 1.1 0 10.3-6.2 10.8-7.3.2-.4 1.3-.7 2.5-.7 2.3 0 3.8-2.6 5.1-8.3.9-3.9 1.9-3.4 1.2.6m-11.3 29.8c-.9 1.9-2.9 5.2-4.5 7.3-2.9 4-3.6 6.2-1.7 5 3.5-2.1-10.3 15-14 17.5-2.3 1.5-2.4 1.5-1.3-.4 2-3.5 3.9-5.5 5-5.5.7 0 2.3-1.8 3.6-3.9 1.4-2.2 3-4.2 3.6-4.6 1.5-.9 1.2-3.5-.3-2.9-.7.2-2.1 1.9-3.1 3.6-2.3 3.8-10.1 11.8-11.5 11.8-.6 0-1.1.4-1.1 1 0 2-6.6 7.8-11.7 10.4-2.9 1.4-6.7 3.9-8.5 5.4-3.9 3.4-9.4 7.2-10.2 7.2-1.9 0 .1-2 4.7-4.8 3-1.8 6.2-4 7.3-5 1-.9 3.6-3 5.7-4.6 3.1-2.3 3.7-3.3 3.3-5.2-.3-1.2-.1-2.6.5-2.9.6-.4 1.3.2 1.6 1.4s1.2 2.1 1.9 2.1c1.7 0 1.7 0-.2-4-1.3-2.5-1.4-3.4-.4-4 .6-.4 1.7-1.8 2.3-3 1.4-2.6 2.9-3.6 7.1-4.5 2.1-.4 2.7-1 2.3-2.5-.3-1.2 0-1.7.8-1.4.6.3 1.8-.2 2.5-1.1.7-.8 2.5-1.5 4-1.5 2.2 0 3.6-1.2 6.8-5.3 2.2-2.8 4.5-6.3 5.2-7.5.6-1.3 1.4-2.2 1.6-1.9.2.2-.4 1.9-1.3 3.8m-538.9 1c.9-.8 1.6-.9 1.6-.3 0 .5-1.1 1.7-2.5 2.6-1.7 1.1-2.5 2.6-2.5 4.4 0 2.9 3.7 18.3 4 16.7.1-.6.5.1.9 1.5l.7 2.5 1.7-3c2-3.7 2.1-3.2.2 2-1.9 5.5-1.9 5.9 1.2 9.7 2.1 2.5 2.2 2.8.5 1.4l-2.2-1.9 1.5 4.3c.8 2.3 1.5 5.2 1.4 6.4 0 1.3-.5.6-1.3-1.9-1.3-3.9-1.5-3.8-2.9.5-.3.8-.6-.9-.6-3.8-.1-5.9-1.2-6.7-3.1-2.2-.7 1.7-1.6 3.3-2.1 3.6-1 .6 0-2.6 1.4-4.4 2.1-2.7-.4-2.2-6.7 1.4-3.6 2.1-6.2 4.1-5.8 4.4.4.4 3.3 1.4 6.5 2.4 6.5 1.9 7.4 3.2 1.1 1.5-5.8-1.6-8.4-2.1-13.1-2.3-5.7-.2-6.3-1.2-1.1-1.9 4.7-.5 19.4-8.3 20.3-10.7.6-1.4-.7-10.2-2.6-18.5-1.9-8-2-8.8-.8-12.2.8-2.5 1.4-3.1 1.9-2.2.7 1 1.1 1 2.4 0m229.7 130.1c-1.2 3.6-2.4 5.4-3.7 5.7-1 .2-3 1.1-4.4 2.1s-7.2 4.1-13 7-10.7 5.5-10.9 5.6c-.2.2.8 1.3 2.3 2.5 3.8 3 2.8 3.3-2.5.8-4.3-2.1-4.5-2.1-11.4-.4-3.8.9-7.7 1.9-8.5 2.2s-3.4.7-5.8.9-5.9.8-7.8 1.3-3.2.6-2.9.1 2.8-1.2 5.6-1.6c2.7-.4 5.2-1.1 5.6-1.7.3-.6-.7-2.1-2.3-3.5-1.6-1.3-4.7-3.9-6.9-5.8-2.1-1.9-4.2-3.4-4.5-3.4-.4 0-1.7 3.4-3 7.5s-2.7 7.5-3.2 7.5-.6-.5-.3-1.1c1.1-1.6 3.4-12.1 3.5-15.1 0-1.9-.4-2.6-1.4-2.2-.8.3-1.7.1-2.1-.5-.3-.6-.2-1.1.3-1.1.6 0 .8-.8.5-1.8-.5-2 2.2-2.7 4.3-1.1.6.5 2.6.4 4.4-.1 1.9-.5 3.6-.8 3.8-.5.2.2-1.5.9-3.8 1.5-6.1 1.7-3.8 3.4 2.8 2.2 2.9-.5 5.4-.7 5.7-.4.9.9.6 3.4-.4 2.8-.4-.3-2.7-.2-5.1.2l-4.3.7 2.8 3.4c2.9 3.4 10.3 8.6 11.2 7.8.2-.3 1.5-3.1 2.8-6.4l2.4-5.8-2.9-.8c-6.1-1.6-2.6-2 11.9-1.3 13.8.6 15 .5 16-1.1.6-1 1.1-1.3 1.1-.5 0 .9.5 1 1.9.2 1.1-.5 3.3-1 5-1s3.1-.5 3.1-1.1c0-.8 1.7-.9 5-.6 3 .3 5 .1 5-.4 0-.8 5.1-7.9 5.7-7.9.1 0-.6 2.4-1.6 5.2M433 596.6c0 1.9.4 2.4 1.8 2 .9-.3 3.1-.8 4.7-1.1 2.1-.4 1.6 0-1.5 1.3-4.4 1.8-4.5 1.9-4.3 6.2l.2 4.5-1.1-3.3c-.6-1.7-1.5-3.2-2-3.2s-5.1 3-10.1 6.8c-5.1 3.7-10.9 7.8-12.9 9.2-2.1 1.4-3.8 2.8-3.8 3.3 0 .4 2.4 2.2 5.3 4.1 2.8 1.9 10.2 7.1 16.2 11.7 11.7 8.8 15.7 10.3 17.6 6.6 1.6-2.8 9.9-13 9.9-12 0 1.2-2.8 5.2-6.7 9.6-1.8 2-3.3 4.6-3.3 5.7s-.3 2-.8 2c-1.6 0-8.4-4.2-15.1-9.2-12.5-9.5-19.5-14.5-22.8-16.2-3.6-1.8-4.3-4.7-1.8-8 .8-1.1 1.5-3.1 1.5-4.5s.5-3.3 1.1-4.1c1.7-2.4-.1 7.1-1.8 9.7-3 4.6 1.3 2.4 12.5-6.2 11-8.4 15.2-12.8 15.2-15.9 0-.9.5-1.6 1-1.6.6 0 1 1.2 1 2.6m770 77.8c0 1.3 2.7 3.1 4.2 2.8.9-.2 4.2 8.7 3.5 9.4-.3.3-.8-.8-1.2-2.5-.6-2.9-2.5-5.3-2.5-3.3 0 .8.4 2.2 2.7 9.2.5 1.7 4.3-6 6.4-12.8.9-3.1 1.7-4.2 3.2-4.2 1.4 0 1.7.4 1.2 1.7-.4 1-1.4 3.7-2.2 6-.8 2.4-1.9 4.3-2.5 4.3-.5 0-.7.3-.4.8.2.4-.2 3.2-1 6.2-1 4-1.1 5.7-.2 6.5.8.7.9.6.4-.3-.4-.6-.2-1.2.3-1.2.6 0 1.1.6 1.2 1.2 0 .7.5.2 1-1.1s1.2-2.2 1.4-1.9c.8.8-2.4 7.8-3.5 7.8-.6 0-1.5-1.1-2-2.5-.6-1.5-1.7-2.5-2.9-2.5-1.1 0-2.3-.9-2.6-2s-1.1-2-1.7-2c-.5 0-.8-.6-.5-1.3.2-.6-1-5.4-2.8-10.5-3.1-8.6-3.2-9.2-1.4-9.2 1 0 1.9.6 1.9 1.4m24.1 6.5c2.2-1.1 7.9-.3 7.9 1.2 0 .5 1.1 1.1 2.5 1.5 1.3.3 2.9 1.2 3.6 2 .9 1.1 1.6.9 3.9-1.6 3.9-4.1 7.1-4.7 12.2-2 5.4 2.7 8.8 5.9 8.7 7.9 0 1.1-.3 1-.9-.4-.8-2.2-4-5.3-4-4 0 .5.6 1.6 1.4 2.4.7.9 1.6 2.7 1.9 4.1.6 2.3.5 2.2-.5-.3-1.4-3.2-2.8-3.5-2.8-.6 0 1.1-1.3 3.4-3 5.1-3.6 3.6-3.7 3.8-.6 3.8 1.5 0 3.3-1.1 4.5-2.6s2.1-2.3 2.1-1.8c0 1.8-4.5 5.4-6.7 5.4-1.5 0-2.2.4-1.7 1.1 1.1 1.8-3.6-1-8.6-5-3.8-3.1-5-3.6-7.5-3-1.6.4-2.6.7-2.1.8.4 0-.2 1-1.5 2-3.3 2.6-1.5 4 2.4 1.8l3.2-1.7-2.4 2c-1.8 1.6-3.2 1.9-5.4 1.4s-2.8-.3-2.2.6c1 1.6-.5.8-5.3-2.8-2.2-1.7-3.1-3-2.7-4.1.3-.8.3-1.2-.1-.9-.8.8-3.4-1.6-3.4-3.2 0-2 4.5-10.8 4.8-9.4.3 1.1.8 1.1 2.3.3"/><path d="M542.1 84.6c.6.8 1.8 1.4 2.6 1.4.7 0 1.6.7 1.9 1.5.4.8 1 1.3 1.4 1 .5-.3.6.4.3 1.5s-.1 2 .5 2c.5 0 1.2.9 1.5 2 .3 1.2 1.4 2 2.6 2 1.6 0 2.1.6 2.1 2.5 0 3.6 3.8 4.2 12.7 2 4-1 7.6-1.5 8-1.2.3.4-.3.7-1.5.7s-2.2.4-2.2 1c0 .5.8 1 1.8.9 2.4-.1 7-1.7 5.4-1.8-1-.1-1-.4.2-1.6.8-.8 1.9-1.5 2.5-1.5s1.1-.5 1.1-1.1-.9-.8-2.1-.4c-1.3.5-1.9.3-1.5-.3.7-1.1-2.1-2.5-3.5-1.6-.5.3-.9.1-.9-.4 0-1.2-8.3-3.6-10.2-3-.7.3-1.9-.1-2.6-.9-.7-.7-2.6-1.3-4.2-1.3s-3.1-.4-3.4-.9c-.3-.4-1.8-1.1-3.3-1.5-1.6-.3-4.5-1-6.6-1.5-3.2-.8-3.6-.7-2.6.5M527 86.4c-3 1.3-12.2 5.5-20.3 9.5-8.2 3.9-15.1 7.1-15.3 7.1-.8 0-30.9 15.1-31.7 15.9-1.5 1.5 6.2 1.6 24.4.5l17.5-1 5.5-5.6c6.6-6.7 26.4-28.8 25.7-28.8-.1.1-2.8 1.1-5.8 2.4M630 90.6c-18.4 2.4-34.2 4.3-35 4.3-2.7.1 2 2.6 17 9.1 15.3 6.6 21.8 8 21.2 4.6-.4-2.2 1.3-3.6 4.4-3.6 2.4 0 3.8 1.4 4.8 4.7.5 1.7.2 2.2-1.5 2.5-2.1.3-2.1.3-.1 2.5 1.1 1.3 2.6 2.3 3.5 2.3 1.6 0 9.9-11.8 15.8-22.5 1.8-3.3 3.7-6.3 4.2-6.6 2.5-1.7-3.5-1.3-34.3 2.7M649 121.8c0 .5 1.5 2.6 3.3 4.8 3.4 4 9.3 12.5 18.7 26.9 7.6 11.7 20 29.6 21.8 31.8.9 1 1.9 1.6 2.3 1.5 1.1-.5 20.8-26 28.7-37.3 2.3-3.3 6.2-8.7 8.7-11.9 2.5-3.3 4.5-6.6 4.5-7.2 0-.7-1.8-1.5-4.2-1.8-13.3-1.8-27.6-3-36.8-3.1-5.8 0-11.4-.4-12.5-.7-2.6-.9-26.2-3.8-30.9-3.8-2 0-3.6.4-3.6.8M451.3 128.6c.3.4-.4 2.1-1.7 3.8s-2.8 4.9-3.4 7.1c-.7 2.2-4.5 13.9-8.5 26-4.1 12.1-10 30.1-13.2 40-3.3 9.9-6.3 18.3-6.8 18.6-.5.4-.4 1 .2 1.4.7.4 9.5-7.6 22.1-20.1 11.6-11.4 21-21 21-21.3 0-.4-1-1.1-2.2-1.6-2.3-1-3.8-5.5-2-5.5.6 0 1.2.4 1.4 1 .2.5 1.7 1.2 3.3 1.5 2.6.5 3.6 0 7.3-3.6 3.2-3 4-4.4 3.1-5-1-.6-1-1.1.2-2.5 1-1.3 1-1.6.1-1-.9.5-1.3.3-1.1-.5.1-.8-.1-2.3-.5-3.4-1.5-4.1-15.1-31-15.8-31.3-.5-.2-.8-1.2-.8-2.3s-.7-1.9-1.7-1.9c-.9 0-1.4.3-1 .6M742 132c0 2.1 3.1 29.6 4.5 40 .8 5.8 1.9 15.7 2.6 22.1.6 6.4 1.5 12.2 1.9 13 .7 1 2 .1 5.2-3.6 2.4-2.6 5-5.9 5.8-7.1s3.6-5 6.3-8.3c2.6-3.4 4.7-6.6 4.7-7.2 0-1.2-.8-2.5-17.6-28.3-5.7-8.8-10.1-16.2-9.7-16.5.3-.4.8-.1 1 .6.2.6 1.9 3.1 3.7 5.5 3.4 4.5 16.6 25.2 20.6 32.5 2.1 3.8 5 5.8 5 3.5 0-.4 2.3-3.9 5-7.7 2.8-3.8 5-7.3 5-7.6 0-.7-13-10.4-32-24-10.3-7.4-12-8.3-12-6.9M736.1 136.5c-1.3 1.9-3.4 4.6-4.7 6-1.3 1.5-4.7 5.9-7.4 9.8-6.1 8.8-13.5 18.9-21.8 29.8-6.3 8.2-6.6 9.8-2 9.9.9 0 4.7 1.4 8.4 3 3.7 1.7 12.2 4.9 18.8 7.2 6.7 2.2 13.3 4.7 14.8 5.4 3.3 1.7 6.8 1.8 6.8.2s-1.6-15.2-5.1-43.3c-4.4-35.2-3.9-33.6-7.8-28M442.2 138.7c-1.5 2.2-23 38.8-27.2 46.5-.6 1-1 2.5-1 3.3 0 .9-.4 1.4-.8 1.1-.9-.5-6.2 7.2-8.9 13-1 2.2-2.4 4.5-3 5.2-.7.7-1.3 1.8-1.3 2.4s3 5.2 6.6 10.3c5.8 8.2 6.9 9.2 8.4 8.3 1-.7 1.6-1.7 1.4-2.3-.3-.6.7-4.7 2-9.1 1.4-4.3 2.6-8.9 2.6-10.2 0-1.2.6-2.5 1.4-2.8s1.7-2.1 2-4c.4-1.9 5.2-17 10.6-33.6 5.5-16.6 9.8-30.3 9.6-30.5s-1.3.8-2.4 2.4M326 166.4c-6.3 2.4-15.3 5.9-20 7.9-9.3 4-16.3 6.6-19.7 7.4-5.3 1.2-5.3 2-.2 34.3 2.2 14.4 2.7 16.2 3.9 15.5.5-.3 5.3-7 10.6-14.8 5.4-7.8 15.2-21.9 21.9-31.2 16.7-23.5 16.7-23.5 15.8-23.4-.4.1-6 2-12.3 4.3M472.3 177.3c-.4.8-1.3 1.6-2 1.8-1.1.4-30.8 29.4-44.7 43.8-3.8 3.9-7.3 7.1-7.8 7.1-.4 0-.8.5-.8 1.1 0 .7 1.6.9 4.8.4 7.3-1 30-2.6 35.8-2.5l5.2.1.5-3.8c.3-2.1 1.7-8.1 3.1-13.3 1.5-5.2 3.3-13.8 4.2-19 .8-5.2 2-11 2.6-12.8 1.1-3.5.6-5.3-.9-2.9M278.2 190.7c-2.9 7.9-12.6 34.7-14.9 41.1-1.4 4-2.3 7.5-2 7.8.5.6 24.7-4.3 25.5-5.1.9-.9-5.6-44.5-6.8-45.8-.4-.5-1.2.4-1.8 2M563.1 208.6c-15.3 1.5-16.3 1.8-15.5 3.8.3.8-.1 2.5-1 3.8-.8 1.3-1.6 4.1-1.7 6.3-.3 9.9.1 70.5.6 70.5.3 0 2.8-4.6 5.6-10.3 2.8-5.6 5.9-11.3 6.9-12.7s5.1-9 9.3-17c4.1-8 9.6-18.6 12.2-23.5 4.6-8.9 9.5-20.1 9.5-21.7 0-1.1-9.7-.8-25.9.8M588.9 215c-1.4 2.5-7 13.3-12.4 24s-13.2 25.8-17.4 33.5c-8.9 16.4-12.1 23-12.1 25 0 1.1 11 9.5 12.5 9.5.5 0 26.5 15.9 29.7 18.1 5.2 3.7 5.1 4.4 4.3-30.4-.4-17.7-1.1-32.4-1.5-32.7s-1.5-2-2.4-3.8c-1.8-3.5-1.4-6.9 1.1-8.7 1.1-.8 1.3-4.8 1.1-20l-.3-19zM539.7 222.7c-1.1 1.2-1.7 1.3-1.7.5 0-.7-.4-1.1-.9-.8s-.7 1.5-.4 2.6c.3 1.2.2 2-.3 1.8-.5-.1-2.2 1-3.8 2.5-1.9 1.8-2.7 3.3-2.3 4.7.3 1.1.1 1.8-.4 1.4-.5-.3-.9.2-.9 1.1s-.4 1.4-.9 1.1-1.6 1.4-2.5 3.9c-1.7 5.1-1.5 5.8 3.5 16.1 1.6 3.3 2.9 6.8 2.9 7.7 0 1 .4 2.5.9 3.5 1 1.7 3.1 6.5 6.8 14.9 1 2.3 2.2 4.3 2.6 4.3s.6-6.2.3-13.8c-.3-7.5-.6-22.6-.7-33.5-.2-10.8-.3-19.7-.4-19.7 0 0-.8.8-1.8 1.7M443.8 231.7c-3.4.3-4.8.8-4.8 1.9 0 .7-.7 1.4-1.5 1.4s-1.5-.5-1.5-1c0-.7-3.6-1-10.2-.8l-10.1.3-.1 6c0 3.3.1 15.6.2 27.2.2 17 .5 21.3 1.5 21.3.8 0 1.8-1 2.4-2.3.6-1.2 3.1-4.7 5.6-7.7 4.1-4.9 7.7-9.5 21.4-27.4 2.1-2.7 5.9-7.2 8.4-10s5.1-6.1 5.8-7.4c1.2-2.2 1.1-2.2-5.6-2-3.7.1-8.9.3-11.5.5M460.4 243.2c-1 2.4-2.4 4.9-3.1 5.6s-1.3 1.9-1.3 2.5c0 .7-2 5.2-4.5 10.2-5.2 10.3-5.6 12.1-2.2 10.3 1.2-.7 2.4-1.5 2.7-1.8s2.2-1.6 4.2-3c2.1-1.4 3.8-3.3 3.8-4.3 0-1.4.4-1.6 1.6-.9.9.5 2.6.7 3.7.5 2-.4 2.2-1 1.9-6.1-.2-3.1-.6-6.4-.9-7.2-.6-1.6-.9-3.1-1.1-7.3-.3-4-2.6-3.3-4.8 1.5M450.4 249.3c-2.7 2.9-5.8 6.6-6.9 8.2s-4.7 6.2-8 10.2c-8.5 10.5-14.5 18.6-14.1 19.1.2.2 3.6-1.5 7.6-3.7 3.9-2.3 7.4-4.1 7.7-4.1 1.8 0 6.8-4.9 8-7.9.8-2 2.9-6.8 4.8-10.6 5.7-12 7.5-16.5 6.6-16.5-.4 0-3 2.4-5.7 5.3M517 247c-1.4.5-6.1 1.8-10.5 3s-9.9 3-12.1 4c-2.3 1.1-5.4 2.2-7 2.6-3.3.8-6.7 3.6-5.5 4.4.5.3 1.1 1.2 1.3 2 .4 2.1 3.6 4.3 5 3.4.7-.4.8-.3.4.5-.5.7.3 1.3 2.3 1.7 1.7.4 3.1 1 3.1 1.5 0 .4 1.9 1.4 4.3 2 2.3.7 4.9 1.8 5.8 2.6.8.7 2.2 1.3 3 1.3s2.5.9 3.9 2 2.8 2 3.2 2 3.3 1.6 6.3 3.6c3.1 1.9 6.4 3.7 7.4 3.9s3.3 1.3 5.2 2.4c3.6 2.2 6.4 2.8 5.4 1.1-.3-.6-.2-1 .4-1 .5 0-.1-2.1-1.4-4.8-1.3-2.6-3.7-8.5-5.4-13.1s-4-9.5-5-11c-1.1-1.5-2.6-4.6-3.3-6.9-.8-2.5-1.9-4.2-2.8-4.2-1.3 0-1.3-.1 0-1 1.2-.8 1.2-1-.5-1s-1.7-.2-.5-1c1.8-1.1.5-1.1-3 0M457.9 268.8c-2.4 2-6.1 4.6-8.1 5.7-2.1 1.1-3.8 2.1-3.8 2.3 0 .6 4.6 4.9 9.8 9.1l5.2 4.3v-3.4c0-1.8.3-4.3.6-5.6.5-1.7.2-2.2-1.2-2.2-1.1 0-2.6-.5-3.4-1-1.2-.8-1-1 1-.8 1.4 0 3.2-.1 4-.3 1.8-.5 4.4-3.8 3.6-4.6-.3-.3.1-1.5.9-2.7 4.2-5.8-2-6.5-8.6-.8M429.5 284.8c-6 3.2-10.9 6.2-10.8 6.7.2 1.5 12.3 9.5 14.2 9.5 1 0 2.2-1.7 3.2-4.8 1-2.6 2.6-7.4 3.8-10.6 1.2-3.3 2.1-6.1 2.1-6.3 0-.8-2.1.2-12.5 5.5M443 282.5c-.5 1.4-1.3 3.8-1.6 5.3-.4 1.5-1.8 5.1-3.1 8.1s-2.1 5.7-1.8 6c1 1 23.5-7.5 23.5-8.9 0-.4-2.3-2.4-5.1-4.6-2.7-2.1-6.1-4.9-7.4-6.2-3-2.8-3.3-2.8-4.5.3M466.4 297.6c1 2.6 7.6 12.2 10.6 15.4 1.5 1.6 2.6 3.1 2.3 3.3-.7.8 6.2.1 7.5-.7.7-.4 1.9-2.4 2.7-4.3.9-2 1.8-3.3 2.2-3 .3.4.1 1.8-.6 3-.7 1.3-1.3 3.9-1.4 5.8-.2 3.1.1 3.4 2.7 3.7 3.2.4 10.6 4.7 10.6 6.2 0 .6.5 1 1.2 1 .6 0 2 .7 3 1.7 1 .9 1.8 1.1 1.8.5 0-3.4-10.6-24-14.1-27.4-1.7-1.7-21.7-6.8-26.6-6.8-1.9 0-2.4.4-1.9 1.6M683.8 297.6c-2.1.7-5.7 2.2-8 3.2-2.4 1.1-9.2 3.7-15.3 5.9-29.4 10.8-34.1 12.6-34.9 13.4-.6.5-2.1.9-3.4.9s-2 .4-1.7 1-.1.7-.9.4c-2-.8-19.5 5.4-22 7.7-1.6 1.5-2.1 4.4-3.2 18.1-1.7 21.4-1.9 24.7-1.2 25.3.3.3 5.4-2.5 11.4-6.1 6-3.7 12.9-7.9 15.4-9.4 6-3.4 13-7.7 19.9-12.2 4.7-3 47.9-46.2 48.9-48.9.5-1.1-.4-1-5 .7M514 300.1c-7.4.4-14.3.7-15.2.8-1.8.1-2.5 2.7-.9 3.3.5.1 2.2 3 3.9 6.3 1.6 3.3 4.8 8.9 7.1 12.5 2.2 3.6 5 8.2 6.1 10.2 1.1 2.1 2.4 3.8 2.9 3.8.4 0 3.2-3.4 6.1-7.5 6.2-8.7 7.8-9.4 2.5-1-2 3.1-4.3 7.2-5.1 9-1.2 3-1.2 3.4.4 4 2 .7 18.5 4 25.5 5 4.7.7 4.7.7 4.7-2.1 0-1.6-.5-5.8-1-9.3-.6-3.5-.9-6.5-.6-6.8.2-.2.9 2.9 1.6 6.9 1.5 9.5 1.9 10.8 3.3 10.8 1.1 0 11.3-4.4 29-12.3 3.7-1.6 6.7-3.6 6.7-4.2 0-.7-5.5-4.8-12.3-9.1-16.1-10.3-15.4-9.9-21.4-12.8-2.9-1.4-5.3-2.9-5.3-3.4 0-.8-4.2-3.2-5.5-3.2-.3 0-.5.8-.6 1.7 0 1.1-.3 1.3-.6.5-.9-2.2-2.8-1.2-4.6 2.6-1.9 3.7-7.7 11.3-7.7 9.9 0-.4 2.2-4.1 5-8.2 2.9-4.2 4.6-7.7 4-8-.6-.4-4.1-.5-7.8-.3s-12.8.6-20.2.9M395 318c0 .7.8 2.9 1.8 4.9 1.1 2 3.3 6.6 5 10.3 1.8 3.8 3.6 6.8 4.1 6.8s1.3 1 1.7 2.2l.6 2.1 1.9-2.4c1-1.3 3-4.5 4.3-7 2.3-4.4 2.4-4.8.8-6.2-2.2-1.9-11.4-6.7-12.9-6.7-.6 0-2.5-1.2-4.2-2.6s-3.1-2-3.1-1.4M420 330c-.7.4-.9 1.9-.5 3.6.5 2.4.4 2.6-.5 1.1-1.3-2-3-2.3-3-.4 0 .7-.9 3.1-2 5.2-1.1 2.2-2.4 5.4-2.9 7.2-.9 3.1-.8 3.2 2.8 3.8 4 .7 9.1-.8 9.1-2.5 0-.6.4-.9.9-.5.5.3 3.1-1.5 5.7-4 3.6-3.5 4.7-5.2 4.6-7.5 0-1.8.6-3.3 1.6-3.9.9-.5 1.4-1.2 1.2-1.5-.9-.8-15.8-1.3-17-.6M585.5 335c-3.8 2-11.3 5.5-16.5 7.9s-10.1 4.9-10.8 5.5c-1 1 1.1 3 10 9.7 14.3 10.7 19 13.9 20.5 13.9.7 0 1.3-3.1 1.7-8.8.4-4.8 1.1-12.8 1.7-17.7.6-5 1-10.1.8-11.5l-.4-2.5zM519.9 347.2c-.1 1.8-.3 6.1-.5 9.5-.2 3.5 0 6.3.5 6.3 1.4 0 2.4 3.8 1.4 5.2-.5.9-1 .3-1.4-1.7-.7-3-.7-3-.8.6-.1 3.8.9 5.2 4.7 6.4 1.9.5 2.5.2 2.9-1.4.3-1.1.9-1.9 1.3-1.6.4.2 1.6-.3 2.6-1.1 1.7-1.4 1.7-1.5.2-1-1 .3-1.8.1-1.8-.4 0-.6 1-1 2.3-1s3.4-1.2 4.8-2.6c1.3-1.4 5.2-4.9 8.7-7.7 3.4-2.8 6.2-5.6 6.2-6.4 0-.7-1.2-1.5-2.7-1.9-1.6-.3-3.4-.8-4.2-1-1.8-.6-20.6-3.4-22.6-3.4-1 0-1.5 1.1-1.6 3.2M554.5 353.2c-.2.7-1.3 5.9-2.5 11.5-1.1 5.6-2.7 12.6-3.6 15.5-.8 2.9-2 8.4-2.6 12.3-.7 3.8-1.7 7.3-2.2 7.7-2.7 1.9 3.3.6 6.4-1.4 1.9-1.2 5.8-3.3 8.5-4.8 5.1-2.7 19-10.8 25.8-14.9 2-1.3 3.7-2.6 3.7-2.9-.1-.4-4.4-3.9-9.7-7.7-5.3-3.9-12.2-9.1-15.4-11.8-6-4.9-7.7-5.6-8.4-3.5M261.6 359.5c-.4 1.4-1.3 2.8-2 3.1-.9.3-2.9 6.7-5.2 16-2.1 8.5-4 15.1-4.2 14.6-.1-.5.8-5.6 2.2-11.3s2.8-12.9 3.2-15.9l.6-5.5-2.5 3.5c-4.1 5.5-9.3 13.2-11.2 16.7l-1.8 3.1 3.3 5.6c4.2 6.9 5 6.8 15.7-.9 7.5-5.4 6.7-4.3-2.7 3.7l-4.4 3.8 3.4.1 3.5.1-3 .7-3 .7 2.4 1.3c3.6 2 16.2 6.1 17.1 5.6.4-.3 1.1-2.6 1.5-5.2.3-2.7 1.3-7.1 2.1-10 .8-2.8 1.7-7.6 1.9-10.6.4-5.1.1-5.8-3.1-9.5-1.8-2.2-5.6-5.8-8.3-8.1l-4.9-4.1zM437.9 387.7c-.2.6-1.7 1.3-3.4 1.5-1.9.2-4.2 1.7-6.5 4.3-1.9 2.2-3.8 4.2-4.1 4.5-.6.5-3.9 13.1-3.9 15 0 .6 3.2 1 8.3 1 11.1 0 18.7-1 18.7-2.5 0-2.1-8.7-24.9-9.1-23.8M479.8 397.1c-1.4.8-1.8 2.2-1.7 6.7.1 3.1.4 7 .8 8.6l.6 2.8 4.4-3.8c7.5-6.5 9.3-8.6 8.7-10-.3-.8 0-1.1.8-.8s1.7.1 2.1-.5c.4-.7-.3-1.1-1.8-1.1-1.4 0-2.7-.7-3.1-1.5-.6-1.8-8.1-2-10.8-.4M380.7 453.7c-.4.6-1.8.9-3.1.8-3.6-.4-2.3 1.8 2.7 4.5 2.3 1.2 5.4 3.4 6.9 4.8 2.2 2 3.3 2.3 6.1 1.8 3.6-.7 17.9-7.4 21.2-10 1.9-1.4 1.5-1.5-6-1.6-4.4 0-12.3-.3-17.6-.6-6.1-.4-9.8-.3-10.2.3M434 499.2c-.7 1.8-2.3 5.5-3.5 8.3-1.2 2.7-3 7.2-4 10-.9 2.7-2.1 5.8-2.6 6.7-1.5 3 .7 2.9 5.2-.3 6.6-4.7 11.9-10.1 11.9-12.1 0-2.5-4.3-15.8-5.1-15.8-.4 0-1.2 1.5-1.9 3.2M986 341.2c0 2.3 1 8.3 3.5 21.3.9 4.4 1.6 8.6 1.7 9.3.1.8.7.7 1.9-.4 1-.9 1.6-2.1 1.3-2.5-.3-.5.1-.6.9-.3.9.3 4.7-2.3 9.6-6.7 7.5-6.6 9.3-8.9 7.3-8.9-.4 0-6.3-3.2-13.1-7-6.8-3.9-12.6-7-12.8-7-.1 0-.3 1-.3 2.2M1008 361.3c-3.6 3-8.5 7.3-11 9.6l-4.5 4.1 2.4 1.8c1.4.9 7.2 5.3 13 9.6 10.8 8.1 16.9 12.1 17.5 11.5.1-.2 2.2-3.1 4.6-6.3 3.5-4.8 4.1-6.2 3.2-7.5-1-1.4-5.8-8.9-14-21.9-2.3-3.7-2.3-3.7-1.7-.7.4 1.6 1.3 6.6 2 11 .8 4.4 2 11.3 2.9 15.4s1.4 7.7 1.1 7.9c-.6.6-2.4-6.7-5.9-24.1l-3.1-15.8zM1046.3 380.1c-.9 4.2-.7 7.8 1.5 26.3l.7 6 11.8 10.4c11.2 9.9 14.1 11.8 11.8 7.5-2.7-5-12.3-26.9-16.4-37.8-.7-1.7-1.8-3.4-2.4-3.8-.7-.4-1.3-1.6-1.3-2.5-.1-.9-1.1-3.7-2.4-6.2l-2.4-4.4zM1047.1 417.7c-1.3 4.6-1.5 21-.2 21.7 1.5 1 26.1-2.1 26.1-3.2 0-.7-19.6-18.6-23-20.9-1.7-1.2-2-1-2.9 2.4"/></svg>