<svg xmlns="http://www.w3.org/2000/svg" width="1706.667" height="960" viewBox="0 0 1280 720"><path d="M0 360v360h677.5l2.4-3.5c2.4-3.5 4.5-4.8 3.5-2-.4.8-1 1.5-1.4 1.5s-1 .9-1.3 2c-.6 2.2.8 2.8 1.6.7q.6-1.35.6 0c.1 2 13.7 1.8 14.5-.2.3-.8 1.5-1.5 2.6-1.5 1.2 0 1.9-.4 1.6-.9-.6-.9 2.7-4.6 12.3-13.4 5.4-5 5.9-6.8 1.6-5.9-1.5.2-2.5 0-2.5-.7 0-.6 1.6-1.1 3.5-1.1 3.6 0 3.6 0 3-3.8-.4-2-.9-4.6-1.2-5.7-.9-3.4.6-1.1 2 3.1l1.4 3.9 1.3-2.5c.8-1.4 3.9-10 7-19.2s6.2-17.3 6.8-18.1c.7-.8.9-1.7.6-2-.4-.3-.3-1.9.1-3.4l.8-2.8.7 3c.3 1.6.3 3.5-.2 4.1-.4.6-.4 1.5 0 1.9.4.5.2.5-.5.1-.8-.5-1.7 1.2-2.8 5.1-.9 3.2-3.5 11.4-5.7 18.2-5.7 17.4-5.8 16.8.8 16.9 3 0 6.2.6 7.1 1.4 1.3 1 1.7 1 2 0 .3-.6 1.1-1.2 1.9-1.2 1.7 0 1.8-3.3.3-6.2-.6-1.1-.9-2.2-.6-2.4.2-.3 1.2 1.1 2.1 3.1 2.2 4.5 2.6 4.4 1.5-.3-.5-2-1.4-6-1.9-8.7-3.4-18.7-4-22.2-3.9-23.5.1-3.1 2 3.7 3.5 12.4.8 5 2.1 11.1 2.9 13.6s2.1 7.4 3 11 2 7.4 2.5 8.5 1.3 3.3 1.8 5c.9 2.6 1.1 2.2 1.1-3.5.2-9.9 1.3-29.4 1.8-30 .2-.2.3 9.2.1 21l-.3 21.5 2.3.3c1.2.2 2.2.7 2.2 1.2 0 2.9 9.9 3 263.1 3H1280V0H0zM588 56.4c0 .2-2.4 1.1-5.2 2.1-2.9.9-16.1 5.8-29.3 10.7-13.2 5-25.5 9.6-27.2 10.2-1.8.6-3.3 1.4-3.3 1.8 0 .7 6.6 2.8 15.5 4.9 2.8.6 8.8 2.2 13.5 3.5 4.7 1.2 10.2 2.6 12.3 2.9 4.3.8 5.1.3 10.5-7.9 1.7-2.7 3.2-4.5 3.2-3.9 0 .5-1.3 3-3 5.4-3.4 5-4 8.3-1.2 7.5.9-.3 6.2-1 11.7-1.6 23-2.5 59-7.2 59.5-7.7.3-.3.1-.8-.5-1-.5-.2-3.4-1.8-6.2-3.6-2.9-1.8-12.7-7.7-21.8-13.2s-16.1-10.1-15.6-10.3 3.7 1.5 7.2 3.6c10.3 6.4 27.9 16.6 35.3 20.7 6.7 3.7 6.9 3.7 12.4 2.6 3-.6 6.9-1.1 8.6-1 3 .1 3 .1.6.9-1.4.4-4.1.9-6 .9-6.6.2-6.7 1.6-.4 5.6 3.3 2.1 8.6 5.1 11.9 6.6 6 2.8 11.2 5.7 19.5 10.9 5.2 3.2 30 17 30.6 17 .2 0-.1-1.2-.7-2.6-1.5-4-.2-4.1 1.4-.1.8 1.9 1.9 3.7 2.4 4 1.4.9 28.4-15 29.1-17.1.2-.7-.7-1.6-2-2.1-2.8-1.1-14.5-8.1-13.5-8.1 1.2 0 10.9 5 13.9 7.2 1.6 1.1 3.2 1.7 3.7 1.4 1.3-.8 4.1 2.2 4.1 4.2-.1 1.5-.2 1.5-1.1-.1-.5-.9-1.4-1.7-2-1.7-.5 0-7.1 3.8-14.5 8.5-7.5 4.7-14 8.5-14.5 8.5-2.2 0-.6 3 2.7 5 1.9 1.2 3.3 2.5 3 2.8-.3.2-1.1.1-1.8-.5-.7-.5-2.5-1.4-3.9-2l-2.6-1.1.8 4.6c2.5 15.4 4.2 27.5 5.3 39.2 1.7 18.4 3.6 34.4 4.1 34.8.3.3 1.3-.5 2.2-1.9 1-1.3 3-3.8 4.5-5.4 7.8-8.7 15.8-19.7 15.8-21.8 0-1.4-21-33.6-27.4-41.9-3.1-4.1-3.4-5.9-.6-3.3 2.5 2.2 27.9 40.4 32.3 48.5 1.1 1.9 2.7 4.6 3.6 6 5.4 8.3 10.3 17.1 9.9 17.6-.3.2-3.8-5.2-7.9-12.1-4.1-6.8-7.7-12.5-8.1-12.5s-1.5 1.2-2.5 2.6-5.8 7.5-10.6 13.6c-10.1 12.8-10.1 12.5.8 15.8 7.4 2.1 3.3 2-5.9-.2-6.7-1.7-7.3-.6-7.6 13-.1 5.9-.5 13.4-.9 16.7-.5 3.8-.6 0-.4-10 .2-8.8.6-17.2 1-18.7.6-2.9.7-2.8-7.7-5.8-1.9-.6-7.1-2.5-11.5-4.1-8.6-3.2-10.1-3.7-15.5-4.6-1.9-.3-5.1-1.4-7.1-2.4-6.4-3.2-13.9-5.7-14.4-4.9-.3.5-.1 1.1.4 1.4.5.4 1.5 2.3 2.1 4.4.7 2 2.4 5.7 3.8 8.2 2.7 4.6 5.4 11.2 4.8 11.7-.2.2-1.3-2-2.6-4.9-1.2-2.9-2.6-5.5-3-5.8-1.1-.7-5-9.1-5-10.7 0-.7-.6-1.3-1.4-1.3-1 0-1.2-.7-.8-2.2.5-2.1.3-2.1-6.4-1.4-6.1.6-35.5 4.9-81.1 11.7-7.9 1.2-14.3 2.6-14.3 3.1 0 1 1.5 2.4 15 14 9.7 8.3 42.4 35.7 50.9 42.7 14.9 12.2 28.1 23.3 28.1 23.7 0 .8-2.5-.9-7.6-5.3-9.1-7.9-36.8-30.8-46.9-38.8-5.5-4.3-12.2-10-15-12.6-7.4-7-23.8-19.8-25.3-19.9-1 0-1.2 3.8-.6 19.2.4 10.6 1 19.7 1.3 20.3.4.5.6 2.6.5 4.5-.5 8.1-.3 62 .3 67.8.4 4 1 6.1 1.7 5.8 5.8-2.5 20.3-7.9 35.6-13.1 10.2-3.5 23-8 28.5-10 5.5-2.1 14.5-5.3 20-7.2 12.3-4.2 13.6-5.2 10.3-8.3-2.2-2.2-2.2-2.2-.1-1.1 1.2.6 2.4 1.1 2.7 1.1s.7-9.1.9-20.3l.2-20.2.3 21.6.2 21.5 15.3 1.7c17.6 2 31 2.8 32.4 1.8.7-.4.6-2.5-.3-6-1.4-5.3-1.3-8.4.1-3.9 1.1 3.4 4.3 7.1 6.4 7.5 2 .3 7.9-6 17-18.2 6.4-8.6 14.1-18.4 16.1-20.5.8-.9 4-5.1 7-9.4s7.7-10.7 10.3-14.2 4.5-6.8 4.2-7.3-6.9-2.4-14.6-4.2c-7.8-1.8-13.7-3.5-13.1-3.7s6.8 1 13.7 2.7c12.3 3 15.3 3.2 13.8.8-.3-.6-.7-2.5-.8-4.1-.1-1.7-1.4-9-2.8-16.1-1.4-7.2-3.1-16.2-3.7-20-1.4-8.7-3.1-14.6-4.1-14.3-.4.2-2.3 2.5-4.1 5.2-1.9 2.7-4 5.2-4.7 5.4s1.1-2.8 4-6.8c5.1-6.9 5.2-7.3 3.4-8.6-15.2-10.6-33.9-24.4-33.1-24.4 1.2 0 15.7 9.9 25.9 17.8 3.2 2.4 6.4 4.1 7.2 3.8 1.4-.5 2.7 1.9 3.2 5.9.1 1.1 1.3 6.2 2.7 11.4 1.4 5.1 2.8 12.6 3.2 16.7.8 8.6 5.6 28 7 27.8.5-.1 2.7-3.6 5-7.7 5.5-10.4 6.3-10.9 1.9-1.2-2 4.4-4 8.4-4.6 8.9-.5.6-.9 1.6-.9 2.4 0 .7-2.2 3.9-4.8 7-2.7 3.1-5.5 6.7-6.3 7.8-6 9-12 17.4-13.1 18.5-1.6 1.7-8.9 10.8-14.3 17.9-2.2 2.9-5.5 7.1-7.3 9.4-1.8 2.2-3.9 4.8-4.5 5.6-.7.8-2.3 3-3.6 4.9l-2.4 3.4 5.3-.5c2.9-.3 6.2-.3 7.3 0 1.6.4 1.4.7-1.3 1.8-1.8.8-4.4 1.4-5.9 1.4-2 .1-1.4.5 2.4 1.9 2.8 1 6.7 2.1 8.8 2.5 2 .4 5.1 1.4 6.9 2.2l3.3 1.5-3-.4c-1.6-.2-6.4-1.3-10.5-2.4-12.1-3.3-13.8-3.5-14.9-1.5-.6.9-1.1 1.2-1.1.6 0-2-3-2.4-6.1-.9-1.6.9-5.1 3.4-7.8 5.8-5 4.3-16.5 13.2-22 17.1-1.7 1.1-3.3 2.7-3.5 3.4-.7 1.6 6.1-1.9 13.7-7 3.2-2.2 7.3-4.6 9.1-5.3 4.8-2 17.4-4.8 18.5-4.1.5.4 1.2.2 1.6-.4s1.1-.7 1.7-.4c.6.4 3.7.6 6.8.5l5.7-.2 2.2 5c3.3 7.7 2.9 8.8-1.6 4.3-1.6-1.5-4-3.3-5.4-4.1-3.2-1.6-8.5-1.1-8.1.7.1.8-.2 1.1-.9.7-1.1-.7-2.7-.1-10.4 3.8-7.9 4.1-25.9 18.9-22.5 18.6 4.1-.4 7.1.2 6.4 1.2-.3.6-1.9.9-3.5.7-1.6-.3-2.9-.1-2.9.4 0 .4-1.5.8-3.3.8-2.6 0-3.6.6-4.5 2.5-.6 1.4-1.6 2.5-2.2 2.5s-.3-1.1.6-2.5c1.8-2.7 1.3-5.5-.9-5.5-.8 0-2.1-.7-2.8-1.7-1.3-1.5-1.2-1.5 1.1-.3 2.5 1.3 2.5 1.3.7-.7-2.1-2.4-1.4-4.8 1.6-5.8l2.2-.8-2.3-.4c-1.3-.3-3.1-.1-4 .3s-2.1.8-2.7 1c-3.8 1-32.4 7.8-43.7 10.4q-13.8 3.15-13.8 4.5c0 .8-.7 1.1-2 .8-2.5-.7-7 1.5-18.5 8.7-4.9 3.1-13 7.9-18 10.8-4.9 2.9-10.1 6.1-11.4 7.1l-2.4 1.9 5.4 1.5c3 .9 16.4 4.1 29.8 7.2 13.5 3.1 24.7 5.8 25 6.2.4.3-.5.3-1.9.1-6.7-1.4-45.4-10.2-51.9-11.9-4.1-1-7.9-1.9-8.6-1.9-1.5 0-3.6 4.7-7 15.9-1.6 5.2-3.1 8.9-3.3 8.3s.4-3.2 1.4-5.9c1.9-5.7 4.4-15.6 3.9-16.1-.4-.5-8.1 3.5-14.3 7.4-2.9 1.9-5.5 3.4-5.7 3.4-1.3 0-24.6 13.9-24.5 14.7.1.4 1.1 1.3 2.3 2 2.7 1.5 1.7 1.6-1.9.3-1.8-.7-3-.7-3.9 0-.8.7-1.4.7-1.7.1-.3-1-12.9 1.3-25.8 4.9-4.1 1.1-9.1 2.2-11 2.5-14.1 2.2-21.4 3.5-21.8 4-.3.3.2 2.2 1.2 4.1.9 2 1.4 3.9 1.1 4.2-.2.3-1-.9-1.6-2.7-.7-2-1.6-3-2.5-2.7-.8.3-1.1 0-.8-.8.7-1.8-.6-2.6-7-4.2-4.3-1.1-4.5-1.3-1.1-.8 2.2.3 4.9.8 5.9 1.1 1.8.5 1.9 0 1.2-9.3-.4-5.5-1.1-10.3-1.6-10.8-.8-.8-6.2 3.2-14.9 11.1-2 1.8-4 3.3-4.6 3.4-.5 0 1 .9 3.5 1.9 4.2 1.8 2.8 2.8-1.5 1.1-2.6-1.1-4.5-.3-4.6 1.8 0 1.1-.3.8-1-.7-.8-2.1-1.4-2.3-5.1-1.8-2.4.3-8.3.8-13.1 1.2-5.9.4-9 1-9.3 1.9-.7 1.7 2.7 8.4 5.5 10.9 1.2 1.1 2.1 2.3 2.1 2.9 0 1.5 22 33.9 24.4 35.8 1.4 1.2 2.6 1.4 3.8.8.9-.5 2.3-.9 3-.8.7 0-.2.7-2 1.5l-3.4 1.5 1.9 2.9c2.7 4.2 18.6 21.5 19.5 21.3.4-.2.8.7.8 2s.6 2.9 1.3 3.7c.6.7 0 .5-1.5-.6-1.5-1-2.8-2.3-2.8-2.8s-3.3-4.6-7.2-9.1c-4-4.5-8.4-9.6-9.8-11.3s-3.1-3.1-3.7-3.2c-.7 0-1.3-.9-1.3-1.9 0-1.1-.7-2.6-1.5-3.5-.8-.8-1.5-2.1-1.5-2.9 0-.9-.4-1.7-.8-1.9-.5-.2-2.7-3.1-5.1-6.5-2.3-3.5-4.6-6.3-5.2-6.3-.5 0-1.2-.8-1.6-1.8-1.4-3.8-8.3-15-9.7-15.5-1.8-.7-1.5 7.6.6 14.8.8 2.7 1.8 7.7 2.1 11 .6 5.5.6 5.8-.6 3-.8-1.7-2-5.9-2.7-9.5s-1.8-7.6-2.3-9c-.9-2.3-1.1-2-2.1 3-.9 4.6-.9 5.7.4 6.7 1 .9 1.1 1.2.3 1.3-.7 0-1.3.9-1.3 1.9 0 2.8-1.1 5.2-2.1 4.5-.5-.3-.9-1.6-.9-2.9s-.5-2.7-1-3c-.6-.4-10.5-.8-22.1-1-18.4-.2-20.8-.1-19.7 1.2 1.5 1.8 10 7.2 14.9 9.5 3.3 1.5 3.8 1.5 7.5-.3 2.1-1 4.3-1.8 4.7-1.9.5 0 3.6-1.6 6.8-3.5 6.3-3.7 9-4.5 7-2.2-.6.8-5.4 3.5-10.6 6.1-5.2 2.5-9.5 4.9-9.5 5.2s1.7.5 3.8.4c6.1-.3 7.2-.1 7.2 1.6 0 1-.6 1.3-1.7 1-1-.3-3.9-.6-6.5-.7-2.7-.1-4.8-.6-4.8-1.1 0-.4-.7-.8-1.5-.8s-1.5-.7-1.5-1.5-.8-1.5-1.7-1.5c-1 0-5.8-2.5-10.8-5.5-4.9-3.1-10.8-6.1-13-6.7-2.2-.7-4.6-1.8-5.3-2.5s-2.3-1.4-3.5-1.4c-1.4-.1-.9-.4 1.2-.8 3.2-.6 3.5-1 8.1-12.6 2.7-6.6 5.6-13.8 6.5-16 1-2.2 1.8-5.6 1.9-7.5 0-1.9.5-3.8 1-4.2.9-.6 3.5-8.2 3.6-10.1 0-2-2-.3-2.7 2.3-.6 2.2-1.2 2.7-2.2 2.1-1.2-.8-1.1-1.7.7-6.1 3.1-7.3 2.9-7.9-1.5-7.4-2.1.3-4 .8-4.3 1.2-.8 1.2-3.1.9-8-1.1-2.5-1-10.3-3.1-17.5-4.7-7.1-1.7-19.1-4.4-26.5-6.1s-14.1-3.2-14.9-3.3c-.9 0-2 1.5-2.8 3.9-1.2 3.8-1.3 3.8-1 .7.4-3.9-1.1-4.1-4.4-.6-1.3 1.4-3.3 3-4.4 3.6-2 1 3.4-4.2 6.8-6.7 2.4-1.7 1.9-2.6-7.2-11.9-7.7-7.9-9.2-9-8.6-5.6.2 1.1-.7 4.4-2 7.3-2.1 4.4-2.5 4.8-2.5 2.5 0-2-.4-2.6-1.5-2.2-2.1.9-10 13.7-8.6 14.2.6.2.9.8.6 1.2-.3.5-1.3.6-2.2.3-1.4-.5-1.5-.1-1 2.9.7 4.6 4.7 10.8 6.9 10.8 1 0 3.2-1.2 5-2.8 1.8-1.5 5.3-4.2 7.8-6.1 3.2-2.3 2.4-1.4-2.5 3.2-3.8 3.6-6.5 6.6-5.9 6.7.7 0 1.1.7 1 1.6-.1 1.1 1.3 2.2 4.2 3.1 2.4.9 4.1 1.7 3.9 1.9s-3.2-.6-6.7-1.8c-4.6-1.7-6.4-2-6.7-1.1-.4 1-.7 1-1.7 0-.8-.6-1.2-1.7-.9-2.3.5-1.4-5.7-11.7-6.6-10.9-.3.4-1.1 2.8-1.8 5.3l-1.2 4.7.5-5.9c.5-4.9 1.3-6.8 5.1-12 2.5-3.3 5.6-8.1 6.9-10.6 1.4-2.5 3.3-5.9 4.3-7.5 1.1-1.7 2.2-4 2.5-5.2.6-1.9.2-2.3-3.6-3.3-2.4-.6-5-1.3-6-1.6-1.4-.4-1.5.1-1.1 3.5.3 2.4-.1 6-1.1 9-.9 2.7-1.6 5.7-1.6 6.5 0 .9-.4 1.6-1 1.6-.5 0-1-.8-1-1.7 0-2.4-1.3-.7-2.7 3.5l-1.2 3.7.3-3.3c.3-3.5-.7-4.2-2.3-1.5-.8 1.4-1 1.5-1.1.3 0-.8-1.6-3.9-3.5-6.7-4-6-4.3-8.8-1.6-13.9 2-3.6 2-7.1.2-11.9-2-5.1-5.1-15.1-5-16 0-.6 1.3 2.3 2.9 6.4 3.1 7.8 5.8 11.4 10.2 13.7 4.8 2.5 6.3 1.8 8.1-3.4 1.6-4.5 1.6-4.1.2 4.5-.5 3.1-.4 3.2 5.6 5.1l6.1 2-.5-5.2c-.3-2.8-.8-7.4-1-10.1-.3-2.8-.8-6.6-1.2-8.5-.5-2.6-.4-3.1.4-2 .6.8 1.3 4.1 1.7 7.3.5 4.2 1.2 6.1 2.5 6.8 2.1 1.1 2.6 4 .7 3.6-.8-.1-1.3.9-1.4 2.5-.2 4.8 1 5.2 6.3 1.9 6.7-4.1 8.1-4 1.9.1-2.7 1.8-5.2 3.9-5.4 4.6s3.6 5.4 8.6 10.4l9 9.2 1.1-6c2-10 3.3-15.5 3.7-15.1.3.3-.6 6.6-2.5 15.4-.4 2.4-.6 4.3-.3 4.3s9.1-5.7 19.5-12.7c18.8-12.6 28.7-20.4 28.7-22.6.1-1.3 4.9-5.2 5.6-4.4.2.2-2.1 3-5.1 6.2-3.1 3.2-5.4 5.9-5.2 6.2.5.4 11.8-3.6 12.9-4.6 1-.9-.2-5.2-1.3-4.5-.5.3-.7-.1-.4-.8s-.1-3.6-.8-6.4c-1.7-6.4-.8-10.2 1.1-5 1.5 4.2 5 6.6 6.3 4.5.8-1.2 1.1-1.1 1.8.1.6.8 1.3 1.2 1.6.8.7-.7-2.8-6.9-7.1-12.8-1.5-1.9-.2-.8 2.8 2.4 4 4.3 5.7 5.5 6.3 4.6q.9-1.35-.6-.6c-.8.4-.6.1.4-.7 1.6-1.4 1.5-1.8-2.5-6.3-7.1-8.3-13.7-14.4-15.4-14.4-1.6 0-1.5-1 1.3-8 1.3-3.3 1.3-3.3.8-.5-.2 1.6-.7 4-1.1 5.2-.5 1.7.2 2.7 3.3 4.7 5.5 3.6 7.5 5.6 10.7 10.3 1.5 2.2 3.6 4.3 4.8 4.6 1.1.3 1.8.9 1.5 1.4s.2.9 1.1.9c.9.1 2.4.3 3.2.5 1.9.5 2.6-3.7.8-5.8-1.1-1.4-1.1-1.6 0-1.2 1.5.5 3.7 3.9 5.2 8.2.8 2.3 1.4 2.6 3.4 2.1 1.9-.4 2.6-.1 3.1 1.6.5 1.6 1 1.8 2 1 1.4-1.1 2.6-8.2 1.3-7.4-.4.3-.8-.9-.8-2.6 0-2-.8-3.8-2.2-5-9.4-7.8-14.9-12-15.8-12-.5 0-1-.6-1-1.4 0-.7-1.1-2.9-2.4-4.9l-2.5-3.6 2.3 1c1.2.6 2.8 2.5 3.4 4.2.6 1.8 2.4 4.1 3.9 5.2s4.7 3.7 7 5.8 4.4 3.8 4.7 3.8c2-.3 2.6.1 2.6 1.6s.5 1.3 2.3-.8c1.8-2.2 2.6-2.5 3.8-1.5 1.2.9 1.3 1.5.4 3.3-.7 1.3-1.5 2-2 1.5-.4-.4-.4.1.1 1 1 1.7 15.2 11.4 19 12.8 1.6.7 2.8.4 4.5-1.1 2.8-2.4 4.3-2.4 2.9 0-.5 1.1-1 2.2-1 2.5s3.8.6 8.5.6c8.1 0 8.6-.1 9.7-2.4.8-1.9.7-3.4-.6-6.6-2.3-5.7-2-6.2 1-1.3 2.5 4.3 3.8 5.1 4.9 3.3.3-.6 1.5-1 2.6-1 1.4 0 2.6-1.2 3.7-4 1.9-4.4 4.8-6.7 3.2-2.5-.7 1.8-.6 2.5.3 2.7 2.3.3 17.7.3 17.7 0 0-1.9-7.6-14.3-12.1-19.6-.4-.4-4.2.6-8.6 2.3-4.3 1.7-9.8 3.6-12.2 4.2-4.2 1-4.3 1.1-3.7 4.2l.6 3.2-2.1-3.2c-1.1-1.8-4.2-4.5-6.9-6.2-2.6-1.6-5.9-4.2-7.3-5.7-1.6-1.7-3.1-2.5-4.1-2.1-1.8.7-2.2-.8-.6-1.8 1.2-.8.3-49.8-.9-50.3-.4-.1-.5-1.7-.3-3.4l.5-3.1-7.4.6c-4.1.3-11.1.9-15.6 1.3-5.4.5-8.3.3-8.3-.3s1.1-.9 2.3-.8c1.3.2 8.1-.2 15-.8 12.7-1 12.7-1 14.6-4.1 1-1.7 3.2-7.4 4.9-12.6 10.6-32.4 25.5-75.9 27-78.7s1.5-3.3-.1-3.3c-.8 0-4 4.8-7.2 10.7-8 14.7-8.4 15.3-15.5 27.3-3.4 5.8-6.3 11.7-6.4 13.2-.1 2.7-1.6 4.1-1.6 1.6 0-.6-.7-.3-1.5.8-2.5 3.3-1.6.1 1-3.8 1.4-2 2.5-4 2.5-4.3 0-.4 1.9-3.7 4.3-7.3 4.2-6.6 8-13.1 16-28.2 2.2-4.1 5.2-9.2 6.6-11.4 1.4-2.1 3.4-5 4.3-6.5 2.2-3.3 2.2-4.1.1-4.2-1.4 0-1.4-.2.4-.9 1.2-.5 4.6-4.3 7.7-8.4 3.1-4.2 5.9-7.6 6.2-7.6.5 0-5.3 8.9-6.5 10-1.4 1.2-3.5 4.3-2.6 3.8.6-.3 5.1-2.5 10-4.8 5-2.3 16.2-7.7 25-12C511 83.8 519 80 520 80c.6 0 5.2-1.6 10.3-3.6 5-2 13.5-5.2 18.7-7s15.6-5.6 23-8.3c12.7-4.7 16-5.6 16-4.7m371.3 83.9 3.7 2.9 7.7-2.6c4.2-1.4 7.8-2.4 8.1-2.2.2.2-2.8 1.5-6.7 2.7-3.9 1.3-7.1 2.6-7.1 3 0 1.3 34.3 35.8 35.1 35.3.5-.3.9.2.9 1 0 2 1.8 3 3.3 1.8.7-.5 3.3-1.6 6-2.5 2.6-.9 5.9-2.5 7.4-3.6 1.4-1.2 3.1-2.1 3.7-2.1s3.2 4.1 5.8 9c2.5 5 4.5 9 4.2 9-.2 0-2.4-3.6-5-8-2.5-4.4-4.7-8-5-8-.2 0-2 .9-4.1 1.9-2.1 1.1-6 3-8.8 4.1l-5 2.2 3.5 3c1.9 1.6 4.6 3.7 6 4.6 2.3 1.6 22.3 16.2 24.5 18 3.5 2.8 3.3 1.5-1.4-7.1-2.8-5.3-4.7-9.7-4.1-9.7.5 0 1 .5 1 1.1 0 1.6 4.1 8.1 4.7 7.5.3-.2-.2-1.9-1-3.8-2.1-4.9-5.8-17.3-4.8-16.2 1.1 1.1 5.9 15.6 7.1 21.1.5 2.4 1.6 5.3 2.4 6.5.8 1.3 2.5 6.8 3.6 12.3 1.2 5.5 2.6 10.9 3.1 12 1.4 3.2 6.9 23.3 6.9 25.3-.1 2.4-2.5-4.6-4.6-13.2-1.8-7.6-3.7-12.3-2.9-7.1.2 1.6.7 6.3 1 10.3s1 8.4 1.5 9.8c.6 1.4 1 3.5 1 4.8 0 1.2 1.1 4.9 2.5 8.2 1.7 3.8 2.4 4.8 2.1 2.9-1.4-9-1.9-11.1-2.8-12.3-.8-.9-.6-1.2.5-1.2 2 0 3 3.5 5.8 22 1.2 8 3 17.9 4 22 1.7 6.7 1.7 7.9.4 11.5-3.5 9.9-7.5 23.8-7.6 26.3-.1 3.3 2.3 10.2 3.5 10.2.5 0 .2.8-.6 1.7-.9 1-1.8 4.4-2 7.7-.3 3.3-1 6.2-1.5 6.3-2.1.7 3 14.4 18.7 50.3 5.5 12.6 7.9 19.2 7.5 20.8-.3 1.3-1 2-1.4 1.7-.5-.3-3.4 1.6-6.4 4.2l-5.5 4.8 4.1 1.2 4.2 1.3-5.2-.5c-3.1-.3-5.4-.1-5.8.5s-1.4.8-2.4.5-4.4.4-7.6 1.5c-3.3 1.1-5.5 1.6-5 1.1.6-.4 3.5-1.6 6.5-2.6s5.9-2.1 6.3-2.5c1-.9-6.9-6.6-10.4-7.5-2.4-.6-2.5-.4-2.2 3.7.3 4.9-.2 4.2-1.2-1.7-.5-2.8-.9-3.5-1.5-2.5-1 1.9-3.3 13.8-3.2 16.5.1 1.1.6 8.5 1.2 16.5s1.2 15.1 1.2 15.7c.1.7.5 1.3 1 1.3.4 0 .8-2.9.8-6.4 0-3.6.4-6.7.8-7 .5-.3.8.3.8 1.2s.1 5.3.2 9.7l.2 8 2-2.5c3.2-4 3.4-6.5 1.2-14.8-2.6-9.7-3.6-16.8-2.5-17.5.4-.3.9 1.4.9 3.8.1 2.4 1.4 8.4 2.9 13.4l2.8 9.1-2.3 4.3c-4.2 7.9-7.5 10.7-12.4 10.7-1.4 0-2.8.4-3.1 1-.6 1 3.7 2.5 6.8 2.2 2.1-.1 2.1.6.1 4.6-2 4.2-1.5 6.4 1.9 8 1.5.7 2.7 1.7 2.7 2.3 0 1.3-1.6 1.1-2.9-.5-2.2-2.6-4.9-2.5-7.3.3-3.5 3.9-9.6 12.1-10.1 13.4-.2.7-.8.9-1.2.4-.5-.4.3-2 1.7-3.5 1.3-1.5 4.6-5.5 7.2-9l4.8-6.3-3.1-3.5c-1.7-1.9-3.1-4-3.1-4.6 0-.5-.9-.8-2-.5-2.5.6-2.2-1 1.5-8.8 5.2-11.1 6.6-14.8 6.1-16.1-.3-.8-.2-1.2.4-.9.5.3.7-1.2.5-3.7-1.3-12.5-1.7-14.8-2.6-14.8-1.2 0-1.2-5.7 0-6.4 1.5-.9 2-6 .8-7.6-1-1.3-1-1.3.6-.1 1.6 1.3 1.7.8 1.7-7-.1-7.6-.2-8.2-1.5-6.4-.8 1.1-1.8 2.4-2.3 3-.4.5-1.3 2.6-2 4.5-.9 2.9-1.1 3-.8.7.2-1.5.1-2.7-.2-2.7s-5 3.6-10.6 8.1c-10 8-9.1 7 3.9-4.5 6-5.3 6.5-6.1 6-8.7-.4-1.8-.2-2.9.4-2.9s1.1.6 1.2 1.2c0 .7.4.3 1-1 .5-1.4 1.3-2 2-1.6q1.05.6.6-.3c-.3-.5.7-4.4 2.3-8.6 2.6-6.5 3-8.8 2.7-15.5-.1-4.4-.5-7.6-.8-7.1s-1.9-1.2-3.7-3.9c-1.7-2.7-4.3-6.1-5.8-7.6l-2.8-2.7-4.7 5.3c-2.6 2.9-4.5 5.6-4.2 6.1.6 1 13.5 6.8 14.1 6.3.2-.3-.1-2.1-.8-4-.6-2-1-4.4-.8-5.3.3-1 1 .6 1.6 3.6.7 3 1.7 6 2.2 6.6.7.9.5 1.6-.5 2.5-1.2 1-1.5 1-1.5-.2 0-.9-3-2.8-7.5-4.8-8.6-3.7-8.9-3.7-25.8 1.1l-11.8 3.4.6 4c.4 3.7.3 3.6-1.2-.5-.3-.8-.7-3.3-.8-5.5-.2-2.2-1.1-7.2-1.9-11-.9-3.9-2.1-9.7-2.7-12.9-.5-3.3-1.2-6.3-1.4-6.6-.3-.4-2.2-.4-4.2 0-11.8 2.4-37.9 8.3-38.5 8.7-.5.2-.8-.1-.8-.6 0-.6.4-1.1.8-1.1s7.3-1.3 15.2-3c15.5-3.2 23.3-5.6 22.5-7-1.4-2.3-37.8-25-40-25-.8 0-1.5-.7-1.5-1.5 0-1.1.5-1.2 2.3-.6 1.4.6 3 .6 3.8 0 .8-.5 1.9-.9 2.4-.8.6 0-.1.6-1.5 1.3l-2.5 1.4 3.3 1.9c1.9 1 10.8 6.4 19.9 12.1s16.7 10.1 17 9.9c.5-.6-1.4-14.9-2.9-21.9-.5-2.6-1.4-4.6-2-4.5s-1.3-.4-1.5-1.1c-.3-.6 0-1.2.6-1.2s1.1-1.4 1.1-3c0-2.8-.2-3-2.7-2.5-2.3.4-2.4.4-.8-.4 1.7-.7.3-1.7-8.6-5.9-5.9-2.7-11.6-5.3-12.8-5.7-1.3-.4-2-.9-1.7-1.2.2-.3 6.2 2 13.2 5.1s12.8 5.5 13.1 5.3c.2-.2.6-7 1-15.1.3-8.1 1-14.6 1.6-14.6.5 0 .7 1 .4 2.2-.8 3-1.1 25.7-.4 26.4.5.5 10.3-4.4 28-14.3 8.6-4.8 9.7-5.7 9.1-7.6-.7-2.4-3.9-9.7-6-14-.8-1.5-1.2-2.7-.9-2.7.2 0 2 3 4 6.7l3.4 6.8v-31.1c0-17.1-.4-31.5-.7-32-.8-1.1-9.5-3.5-21.2-5.8-4.1-.8-8.3-1.8-9.2-2.1-2.5-1-2.3 1.1.6 7.1 6.2 13 11.8 25.6 11.4 26-.5.4-1-.5-9-17.4-4.4-9.4-5.4-10.9-5.9-9-.6 1.8-.7 1.5-.8-1.5-.1-3.6-2.1-5.1-3.6-2.6-.4.6-3.9 3.4-7.9 6.4-5.7 4.3-23.1 17.7-29.3 22.7-.7.6-1.3.8-1.3.5s8-6.9 17.8-14.6c23.5-18.7 22.8-18.1 21.4-19-.7-.4-9.7-3.1-20-6-30-8.4-33.3-9.4-32.8-9.8.3-.3 3.1.3 6.3 1.2 3.2 1 10.8 3 16.8 4.6 6.1 1.5 15 4 19.9 5.4 4.8 1.4 9.2 2.5 9.6 2.3s-1.6-3.5-4.4-7.3c-2.9-3.9-10.6-14.7-17.1-24-6.6-9.4-15.3-21.7-19.3-27.5-4.1-5.8-7.8-11.2-8.2-12-.5-.8-1.1-1.2-1.5-.9-1.1 1.2-8.2 19.4-8.9 23-.3 1.9-1.5 4.5-2.6 5.6-2 2.3-11 20-11 21.8 0 .7 4.4 2.5 9.7 4 5.3 1.6 9.2 3 8.7 3.2s-4.7-.8-9.4-2.2c-9.6-2.9-11-3-11-1.1 0 .8-.7 1.6-1.5 2-.8.3-2 1.7-2.5 3.2-.6 1.5-1.3 2.4-1.6 2.1-.4-.3.4-2.2 1.6-4.2s2-3.8 1.8-4c-.2-.3-2.1 0-4.2.6-2 .6-4.5.9-5.4.7s.9-1 4-1.7l5.8-1.4-2.9-2.1c-1.6-1.2-7.6-5.7-13.3-10.1-5.6-4.4-12.1-9.2-14.3-10.7s-6-4.6-8.5-6.8l-4.5-4.1 4.8 3.3c4.6 3.3 13.4 9.7 19.1 14 1.6 1.3 3.7 2.7 4.6 3.3 1.9 1.1 9 5.7 13.4 8.8 2.3 1.6 3 1.7 3.7.6.5-.8.6-2.3.3-3.4-.4-1.5-.3-1.7.4-.6 1.3 1.8 6.8-9.4 7.8-15.6.3-2.3 1.3-4.4 2.1-4.7 1.4-.6 6.4-10.5 10.1-20.4l2-5.2-4.6-.1c-2.6-.1-7.2-.5-10.2-.9-4.6-.7-4-.8 4.3-.6 5.3.2 9.7 0 9.7-.4s-1.2-1.2-2.7-1.9c-2.6-1.2-15.3-11-15.3-11.8 0-.2 4.7 2.8 10.3 6.7l10.4 7.2 14.1-6.8c7.8-3.7 14.2-7.1 14.2-7.6 0-.8-1.9-2.6-6.5-6.3-3.4-2.8.8-.3 4.8 2.8m-637 4.4c-3.3.6-2.8 2.6 1.2 4.7 1.9 1.1 4.1 2.6 4.8 3.4.6.8-1.5-.2-4.7-2.3l-5.9-3.7-7.1 7.4c-17.3 17.9-25.7 27.3-24.8 27.6 1 .3 15.1-5.1 34.6-13.2 4.8-2.1 9-3.5 9.3-3.2s-.3.8-1.3 1.2c-2.6.9-25.8 10.4-36.9 15.2-10.2 4.3-9.5 2.9-8.2 17.7l.6 7-1.6-8.8c-.9-4.9-1.9-8.5-2.3-8-.4.4-2.2 4.9-4.1 10-1.8 5.1-3.5 9-3.7 8.8s1-4 2.7-8.5c3.2-8.4 3.8-11.6 2.1-10.5-.5.3-1 .2-1-.2 0-.5.9-1.4 2-2.1s2-1.9 2-2.7.4-1.5.9-1.5 3.6-2.8 6.8-6.2c9.9-10.5 24.6-26 28-29.5 2.3-2.3 4.1-3.3 6-3.2 2.4.2 2.5.2.6.6m-63.4 44.5c-4.6 7.7-11.1 20.9-10.6 21.5.3.2 1.1-.2 1.8-.9 2-1.9 9.1-7.3 10.9-8.3 2.1-1.1.6.2-7.7 6.9-8 6.4-7.6 5.7-9.7 17.6-2 11.7-2.8 20-1.8 20 .4 0 2.5-3.7 4.6-8.1 3.3-7.1 3.7-8.5 2.7-10.8-1.1-2.4-1-2.5.4-.7 1.8 2.4.6 3.7 13.2-14.6 4.7-7 8.8-12.6 9-12.4.4.3-7.1 11.7-15 22.8-2.6 3.6-4.7 6.8-4.7 7.1s1.4 2.6 3 5c1.7 2.5 3 4.9 3 5.3 0 .5-1.4-1.2-3.1-3.9-1.7-2.6-3.4-4.7-3.8-4.7-.8.1-11.1 21.6-11.1 23.4 0 .8 1.5 4.7 3.4 8.6l3.5 7.2 4.5-9.6c2.5-5.3 4.6-10.2 4.6-11s.5-1.8 1.1-2.2c1.6-.9.5 2.4-4.7 13.9-2.4 5.4-4.5 11.1-4.5 12.5-.1 1.7-.3 2.1-.6.9-.2-.9-.9-1.7-1.4-1.7-.6 0-.8-.4-.4-.9.6-1.1-5.5-14.1-6.6-14.1-.4 0-1.3 1.6-1.9 3.6-2.1 6.4-1.9 3.1.5-6.1 1.3-5 2.6-12.4 2.9-16.5.6-7.3.5-7.4-.8-3.5-2.4 6.8-1.7 2.1.8-6.2 1.3-4.3 2.7-9.4 3-11.4.7-3.8 2-6.6 10-20.9 5.6-10 7.5-13 8.1-13 .2 0-.9 2.3-2.6 5.2m98.8 10.2c-.9 1.3-1.9 5-2.2 8.2-.4 3.2-1.3 7.1-2.1 8.6s-1.4 3.7-1.4 5-.9 5.1-1.9 8.4c-3.9 12.2-4.3 23.2-1.5 41.1.8 5.6 1.4 11.4 1.2 13-.2 1.5-.9-1.5-1.6-6.7s-1.7-11.7-2.2-14.3c-.6-2.7-1-6.7-1-8.9 0-2.3-.3-3.8-.7-3.4-1.3 1.2-6.3 17-6.3 19.8 0 1.6-.5 2.8-1.1 2.8-1.4 0-1-1.9 4.1-18 5.5-17.5 9.1-30 9.6-33.5 2.3-14.4 4.1-21.5 5.5-21.5.5 0 .9-.7.9-1.5s.5-1.5 1.1-1.5c.7 0 .5.9-.4 2.4M232 275.8c0 .2-.7 2.9-1.6 5.9l-1.6 5.6 11.3 11.3c6.3 6.3 11.7 11.4 12.2 11.4s.5-2.1.2-4.8c-.6-4.4-.5-4.5.8-2.3.8 1.3 1.2 3.3.9 4.5-.5 1.8-.3 1.9 1 .8.9-.7 1.9-2.4 2.3-3.9.3-1.4.8-2.3 1.1-2s-.3 2.6-1.5 5.1c-1.7 4-1.8 4.8-.5 6 2.3 2.3 30.1 20.6 31.3 20.6 2.2 0 1 2.1-1.6 3.1-1.6.6-3.7 1.9-4.8 2.9s-3 2.1-4.2 2.5c-4.2 1.2-1.5-2 3.7-4.6 2.7-1.3 4.9-2.6 4.9-2.9s-6.7-4.9-14.9-10.4c-9.2-6.1-15.5-9.6-16.5-9.3-.9.4-1.5.1-1.5-.7 0-1.3-22.2-23.8-24.1-24.4-.9-.4-.6 6.4.7 12.5.2 1.3 0 2.3-.6 2.3-.5 0-1-2.2-1-4.9 0-7.4-1.4-6.9-3.4 1.2-1 4-2 8-2.2 8.9-.3 1.1.5 2.2 2.5 3.2 4.2 2.2 4.3 2.1 3.9-2.9-.2-2.5 0-4.5.4-4.5.5 0 .8 1.8.8 4 0 2.7.6 4.2 1.8 4.9 1.1.7 1.3 1 .3 1.1-.9 0-1.1.7-.8 2.2.5 2 .4 2.1-.6.7s-4.9-3.9-5.9-3.9c-.2 0-.3 1.7-.2 3.7.2 2.1 0 2.7-.2 1.3-.3-1.4-1.2-3.9-2.1-5.5-1.4-2.9-1.4-3.7.7-11.5 2.4-9 4.8-19.5 5.7-24.6.3-1.7 1.1-3.1 1.9-3.1s1.4.2 1.4.5M741.8 337c.6 2.7.9 5.6.6 6.5-.4.8-.1 1.5.4 1.5.6 0 1.4 2.1 1.7 4.7 1 7.1 1.5 8.3 3.3 8.3 1.3 0 1.4.2.4.9-1.4.8-1.3 9.3.1 10.7 1.1 1.1.8 2.6-.3 1.9-.5-.3-1 0-1.1.7 0 .9-.2.9-.5.1-.3-.6-1.7-.9-3.2-.7-2.4.4-2.8.1-3-2.2-.1-1.5-.3-2.8-.5-2.9-12-5.8-11.4-5.4-7.9-5.5 3.1 0 3.3-.1 2.8-3.3-1.3-7.7-1.1-8.8 1.8-12.2 2.2-2.5 2.4-2.6 2.9-.9.4 1.5.5 1.6.6.2 0-.9-.7-2.4-1.6-3.3-1.3-1.4-1.4-2.1-.5-3.6.7-1 1.2-2.8 1.2-3.9 0-3.8 1.7-2 2.8 3m5.3 51.1c.9 1.8.6 2.7-2.3 6.2-1.8 2.3-6.1 6.8-9.5 10.1-3.5 3.2-6.3 6.5-6.3 7.4 0 1.2-.3 1.2-1.5.2-1.3-1.1-1.5-.8-1.5 1.3s.7 2.8 3.3 3.6l3.2.9-3.7.1c-2.1.1-3.8.5-3.8 1.1 0 .5-1.8 2.8-4 5-3.5 3.5-3.7 4.6-.7 4.1.4-.1.3.8-.4 2-1.1 2.1-1 2.2 2 1.6 2.4-.5 3.1-.3 3.1.9s.4 1.3 2 .4c1.1-.6 1.8-1.5 1.5-2.1-.4-.5-1.1-.7-1.6-.4-.5.4-.9.1-.9-.5 0-.7.8-.9 2-.5 1.5.5 1.8.3 1.4-1-.4-.9-1.4-1.5-2.3-1.4-3.1.3-5.1-.1-5.1-1 0-.5.8-1.1 1.8-1.5.9-.3 3.3-1.5 5.2-2.6s4.5-2 5.7-2c1.3 0 2.3-.5 2.3-1.1 0-1.5 3-3.8 5-3.9 1.6 0 7-6.2 7-8 0-.6.5-.8 1-.5.6.4 1.7.1 2.5-.5 2.6-2.2 1.8 1.2-1 4.2-1.4 1.5-2.5 3.8-2.5 5.2 0 2.2-5.8 10.6-10.9 15.7-.9.9-2.8 3.2-4.4 5.1-1.7 2.2-3.6 3.6-5 3.6-4.7 0-11.8 3.3-18.7 8.6-6.2 4.8-9.9 7-10.7 6.3-.3-.3 1.5-1.8 3.9-3.3 2.3-1.5 6.6-4.4 9.3-6.4 2.8-2.1 6-4.1 7.3-4.5 1.4-.4 1.9-1.1 1.5-1.8-1.3-2.2-1.2-3.9.3-3.3.8.3 1.4-.1 1.4-.9s-.8-1.5-1.8-1.5-2.3-.5-3-1.2c-.8-.8-1.5-.8-2.7.2-1.8 1.5-2 0-.2-1.9 1-1.1.7-1.2-1.8-.7-1.6.4-4.2 1-5.7 1.3-1.6.3-2.8.9-2.8 1.4s-.3.8-.7.7c-.5 0-1.5.2-2.3.5s-3.1 1-5 1.6c-1.9.5-6 1.9-9 3.2-6.9 2.8-8.1 3.2-15.9 6-3.5 1.2-7.2 3.2-8.3 4.3-1.6 1.8-2 1.9-2.8.6-1-1.6-1.4-4.7-.4-3.8.6.7 11.4-2 12.9-3.2.6-.4 2.8-1.3 5-2 6.3-2 14.5-6 14.5-7 0-1.5-3.6-3-8-3.5-6.1-.6-8.6-1.5-6.9-2.6 1.1-.7 1.1-.9.1-.9-.7 0-1.7 1-2.3 2.2l-1 2.3.5-2.2c.3-1.6-.2-2.4-1.5-2.8-1.1-.4-1.7-1.1-1.4-1.6.4-.5.1-.9-.5-.9s-.8-.5-.5-1c.3-.6 1.6-1 2.8-1s4-1.5 6.2-3.2c3.4-2.9 4.7-3.3 10-3.4 3.3 0 6.8-.4 7.7-.8 2.6-1.2 2.9-3.3.5-4.1-1.8-.5-1.9-.8-.7-1.3.9-.4 2.7-1.5 4-2.5 2.1-1.5 2.2-1.9 1-2.7-2-1.3-1.3-1.6 4.8-2.3 4.9-.6 5.2-.5 4.2 1.3-.5 1-2 2.7-3.3 3.7-2.3 1.9-2.5 2.7-1.3 5.5.7 1.5 1.6 1.7 5 1.2 2.2-.3 5.6-1 7.4-1.6 3-.9 3.3-1.3 3.2-5.1-.1-2.3.2-6.3.6-8.9.4-3.3.3-5.3-.6-6.3-1.7-2-.1-1.9 2.2.2 1 .9 1.8 2.9 1.8 4.5s.4 2.7.9 2.3c.5-.3 1.2-.1 1.6.5 1.3 2.1 6.2.9 10.8-2.6 4.4-3.4 5.2-4.9 4.8-8.2-.3-1.9.7-1.4 2 .9M658 407.6c-2.5 1.4-8.3 4.5-13 6.9-4.7 2.3-9.2 5.1-10.2 6.1-.9 1.1-2.1 4.4-2.6 7.4-.6 3-1.5 6.6-2.1 8-1 2.4-1 2.4-1-.8-.1-2.4-.5-3.2-1.9-3.2-2.7 0-6.6-4.5-5.9-6.9.8-3.3-1.9-4.4-12.1-5.1-8.9-.6-8.3-.7 7.3-.9l17-.2L647 412c13.4-6.9 19.6-9.3 11-4.4m-423.2 11c.7 2.3 1.2 5.1 1.2 6.3s.4 1.9 1 1.6 1 .3 1 1.5.4 1.8 1 1.5c.7-.4 1 .8.9 3.4-.2 3 .3 5 2.1 7.3 1.5 2.1 1.7 2.8.6 1.9-1.6-1.3-1.7-1.2-1 1.5.4 1.6 1.1 4 1.6 5.2.4 1.3.5 2.9.2 3.4-.4.6-.9 3.6-1 6.7-1 18.1-1.7 25.1-2.7 25.1-.6 0-.8-3.5-.4-10.2.4-8 .3-9.8-.6-8.3-1.3 2.2-1.4 18.5-.2 20.4.4.7.1 3.3-.6 5.8l-1.3 4.6 3.5 3c1.9 1.6 2.4 2.4 1.2 1.8s-3.2-1.1-4.4-1.1c-2 0-2.1-.3-1.5-4.3 1.3-7.5 1.7-20.3.6-18.7-1.5 2.3-1.3-.1 1-9.4 2.8-11.5 2.4-13.6-2.5-15.3-2.2-.8-4.9-1.6-6-1.8-6-.9-8.3-1.8-7.9-3 .3-.7-1.7-3.1-4.3-5.5-2.6-2.3-5.2-4.8-5.6-5.6-.8-1.4 1.1-5.4 2.6-5.4.5 0 4.9-3.4 9.8-7.5 4.9-4.2 8.9-7.2 8.9-6.8 0 .5-4.3 4.4-9.5 8.7s-9.5 8.1-9.5 8.6c0 .9 8.5 2 15.3 2 2.6 0 4.7.4 4.7.8s-4.6.4-10.1 0c-5.6-.5-10.5-.6-10.8-.2-.3.3.7 1.5 2.4 2.7 1.6 1.2 4.2 3.5 5.7 5.1l2.7 2.8 3.8-2.3c8-4.8 8.8-5.2 7.8-4.2-.5.6-3.2 2.4-5.9 4.1l-4.9 3 6.9 2.2c3.8 1.3 7.4 2.5 8 2.7s1.4-.3 1.8-1.2c.9-2.4-1.2-9.7-2.5-8.9q-1.05.6 0-1.5c.7-1.1.8-2.1.2-2.1-.5 0-.9-1-.9-2.3 0-1.9-1.3-7.5-4.7-21.2-1.1-4.6.9-1.8 2.3 3.1m178.7 57.6c.8 3.9 1.9 7.6 2.5 8.4.7.7 1.4 2.8 1.6 4.6.6 4.2 3.3 13.2 5.4 18l1.6 3.6 6.3-3c3.4-1.6 6.4-2.8 6.6-2.6s-2.6 1.9-6.3 3.8c-3.7 1.8-6.9 3.4-7.1 3.6-.5.4 10.2 14.5 12.8 16.8 1.1 1.1 2.1 2.3 2.1 2.7 0 1.1-9.4-8.7-13.3-13.8-1.8-2.3-3.4-4.3-3.7-4.3s-3.2 2.6-6.5 5.8c-3.3 3.1-7.7 7-9.8 8.6-4.5 3.4-3.9 4 4.5 5.5l5.3 1-5-.4c-10.7-.9-14.4-1.7-13.8-3.1.3-.9-.8-2-3.2-3-2-.8-7.4-3.9-12-6.9-9-5.9-11.1-6.4-15.1-3.9l-2.5 1.7.7-4.4c1.2-8.5 1.9-11 2.9-10.8.6 0 .8.6.6 1.3-.3.6-.6 3-.9 5.3-.5 5.1 1.5 5.8 4.7 1.7 1.6-2 1.8-3.1 1-4.5-.5-1-.7-1.9-.4-1.9s-.1-1.5-.9-3.4-1.6-6.3-1.9-9.8c-.2-3.4-.2-5.2 0-3.8.3 1.4.9 2.9 1.4 3.4.5.6.9 2.1.9 3.5 0 3.3 1 7.1 1.9 7.1 1 0 3.1-10.8 3.1-15.5 0-2.1.3-3.5.7-3.2.7.8.6 13.2-.2 19.2-.2 2.2-.2 3.3.2 2.5.3-.8 1.9-3.4 3.5-5.8 1.6-2.3 2.6-4.2 2.3-4.2-1.1 0 4.8-10.4 7.6-13.4 3-3.2 3.6-4.6 1.9-4.6-.5 0-.2-.9.7-2 2.5-2.9 3.4-2.5 3.2 1.7-.2 4.3 2.8 35.2 3.7 38.9.3 1.3 1 2.4 1.4 2.4.8 0 2.9-2.2 2.8-3 0-.3 1.6-4 3.6-8.2 4.6-9.8 6.3-17.5 4.8-22.6-.6-2-1.4-5.8-1.7-8.5-.4-2.6-1.2-4.7-1.7-4.7s-.6-.6-.1-1.3c.4-.6.6-2.3.5-3.7l-.2-2.5 1 2.4c.6 1.3 1.7 5.5 2.5 9.3m-50.1.5c-.4 1.4-.2 2.3.5 2.3 1.4 0 .7 7.8-1.4 15.5-.7 2.7-1.6 7.5-1.8 10.5-.3 3-1 5.6-1.6 5.8s-1.1.8-1.1 1.3c0 .4.6.6 1.4.3 1.6-.6 2.6 2.4 2.6 8 0 4.6-.6 4.3-2.5-1.1-.8-2.1-1.9-3.7-2.6-3.5s-.9-.5-.6-2c.3-1.3.9-4.6 1.2-7.3.4-2.8 1.3-7.7 2-11 .8-3.3 1.6-8.4 2-11.2.5-4.5.4-5.2-.9-4.7-1.1.4-1.6 0-1.6-1.3 0-1-.5-2.4-1.1-3-.8-.8-.1-1.1 2.5-1 3.2.1 3.5.3 3 2.4m79.6 59.8c0 1.8-1.5 3.2-3 2.8-1.1-.3-2.8.4-4.2 1.7-1.3 1.2-7 4.5-12.8 7.2-5.8 2.8-10.7 5.2-10.9 5.4s.4 1.3 1.5 2.5l1.9 2.1-3.9-1.6c-3.6-1.5-4.4-1.5-12 .3-10.6 2.5-18.1 3.5-14.6 2.1 3.5-1.6 3.6-1.7.9-4.6l-2.4-2.7 2.9 1.9c2.2 1.4 3.1 1.5 3.4.6.2-.7.9-1.8 1.6-2.5 1.5-1.6 3.6-6.4 3.6-8.2q0-1.5-3-1.5c-1.6 0-3-.4-3-.8 0-.5 7.8-1.2 17.3-1.5 18.8-.7 28.4-1.7 26.9-2.6-.6-.3 1.4-.7 4.4-.7 3-.1 5.4 0 5.4.1m760 137.9c0 1.3 2.7 3.1 4.2 2.8.9-.2 4.2 8.7 3.5 9.4-.3.3-.8-.8-1.2-2.5-.6-2.9-2.5-5.3-2.5-3.3 0 .8.4 2.2 2.7 9.2.5 1.7 4.3-6 6.4-12.8.9-3.1 1.7-4.2 3.2-4.2 1.4 0 1.7.4 1.2 1.7-.4 1-1.4 3.7-2.2 6-.8 2.4-1.9 4.3-2.5 4.3-.5 0-.7.3-.4.8.2.4-.2 3.2-1 6.2-1 4-1.1 5.7-.2 6.5.8.7.9.6.4-.3-.4-.6-.2-1.2.3-1.2.6 0 1.1.6 1.1 1.2.1.7.7.2 1.5-1.2 1.9-3.3 1.9-1.9.1 2.5-1.7 3.9-3.5 4.5-4.3 1.6-.3-1.1-1.8-2.4-3.4-3-1.9-.6-3-1.9-3.5-3.8-.6-2.6-3.9-12.4-6.3-18.6-.9-2.4-.8-2.7.9-2.7 1.1 0 2 .6 2 1.4m22.8 10.3c-.6.7-.8 2-.6 2.9.2 1.4.8 1.3 3.8-1.2 1.9-1.6 2.9-2.1 2.2-1.3-1 1.4-1 1.8.4 2.3 2.5 1 4.6.7 3.9-.5-.4-.6-1.3-.8-2-.5-.7.2-1.2-.2-1.1-1.2 0-.9-.8-1.8-1.9-2-4.4-.7-5.1-1.3-3.2-2.3 2-1.1 7.7-.3 7.7 1.2 0 .5 1.1 1.1 2.5 1.5 1.3.3 2.9 1.2 3.6 2 .9 1.1 1.6.9 3.9-1.6 3.9-4.1 7.1-4.7 12.2-2 5.4 2.7 8.8 5.9 8.7 7.9 0 1.1-.3 1-.9-.4-.8-2.2-4-5.3-4-4 0 .5.6 1.6 1.4 2.4.7.9 1.6 2.7 1.9 4.1.6 2.3.5 2.2-.5-.3-1.4-3.2-2.8-3.5-2.8-.6 0 1.1-1.3 3.4-3 5.1-3.6 3.6-3.7 3.8-.6 3.8 1.5 0 3.3-1.1 4.5-2.6s2.1-2.3 2.1-1.8c0 1.8-4.5 5.4-6.7 5.4-1.5 0-2.2.4-1.7 1.1 1.1 1.8-3.6-1-8.6-5-3.8-3.1-5-3.6-7.5-3-1.6.4-2.6.7-2.1.8.4 0-.2 1-1.5 2-3.3 2.6-1.5 4 2.4 1.8l3.2-1.7-2.4 2c-1.8 1.6-3.2 1.9-5.4 1.4s-2.8-.3-2.2.6c1 1.6-.5.8-5.3-2.8-2.2-1.7-3.1-3-2.7-4.1.3-.8.3-1.2-.1-.9-.8.8-3.4-1.6-3.4-3.2 0-.6 1-3.2 2.2-5.9 2.1-4.4 2.4-4.6 3.4-2.7.7 1.3.7 2.6.2 3.3"/><path d="M523.2 85.8c1.4 1.2 3.1 2.2 3.8 2.2s.5.6-.4 1.6c-2 1.9-2 2.5-.1 1.8 1-.4 1.8.3 2.5 2 .5 1.4 1.6 2.6 2.4 2.6s1.6 1 1.8 2.2c.2 1.5 1.1 2.4 2.6 2.6 2.3.4 3.1 3.1 1 3.3-.7 0 .2.5 2.1 1.1 2.3.6 3.1 1.2 2.2 1.7-.9.6-.6 1 1.1 1.3 2.1.4 2.3.1 2-2.9-.3-2 0-3.3.7-3.3.6 0 1.1.4 1.1 1 0 .5.5 1 1 1 .6 0 1-.7 1-1.5 0-.9 1.2-2 2.6-2.5 3.3-1.3 5.4-1.3 5.4 0 0 .5-1.3 1-3 1-1.6 0-3 .4-3 .9 0 1.4 6.3.3 7.5-1.2.6-.8 2-1.9 3.3-2.6 1.2-.6 2.2-1.5 2.2-1.9 0-1.2-6.8-3.4-8-2.7-.5.3-1 .2-1-.4 0-1.3-7.7-3.4-10.5-2.9-1.1.3-2.6-.1-3.2-.8-.7-.6-4.7-1.9-9-2.9-4.2-1-8.4-2-9.3-2.3-.8-.3-.3.5 1.2 1.6M501 90.6c-5.8 2.9-12.7 6.3-15.5 7.5-2.7 1.2-13.9 6.6-24.7 12-10.9 5.4-20.5 9.9-21.3 9.9s-1.5.5-1.5 1.1c0 .9 2.2 1 7.8.6 4.2-.4 14-1 21.7-1.3l14-.7 5-4.6c2.7-2.5 8.7-8.9 13.3-14.1s9.9-11 11.9-12.8c5.4-4.8 1.8-4-10.7 2.4M623 89.1c-11.3 1.5-26.3 3.5-33.5 4.5-7.1.9-13.3 2-13.8 2.3-.8.8 25.2 12.4 33.1 14.7 2.6.8 4.8 1 5 .5s1.3-.7 2.5-.4c1.3.3 1.8.1 1.2-.4-.6-.4-1.1-2-1.1-3.4-.1-2 .5-2.8 2.9-3.7 3.7-1.4 6.2-.2 7.1 3.3.8 3-1.1 6.3-3.9 6.8-1.5.3-1.3.5.8.6 1.8.1 2.7.6 2.7 1.8 0 2.4 5-3.2 10.6-11.7 2.4-3.6 4.7-7 5.1-7.5 1.6-2 5.3-8.6 5.3-9.6 0-1.2.2-1.2-24 2.2M648.8 88.7c-.9 1-2.1 2.9-2.8 4.2-.7 1.4-1.7 3-2.2 3.5-2.4 2.9-12.9 20.8-12.5 21.2.7.8 4.4 1.2 18.2 2.4 6.6.5 14.1 1.2 16.8 1.6 3.4.4 4.7.2 4.7-.6 0-.9.4-.9 1.3-.3.6.6 2.3 1.3 3.7 1.7 3.1.8 42.2 3.8 42.7 3.2.3-.2-1.3-1.2-3.4-2.2s-7.6-4.1-12.3-6.9-10.3-5.9-12.5-6.9c-2.2-1.1-4.6-2.5-5.4-3.3-.7-.8-2-1.2-2.7-.9s-1.1 0-.8-.7c.2-.7-.6-1.7-1.8-2.3-3.8-1.7-21.8-11.4-25.2-13.5-3.8-2.3-3.9-2.3-5.8-.2m31.1 17.9c2.1.5 3 1.2 2.9 2.3-.2 1.1.5 1.6 2.2 1.6 1.4 0 3.3.5 4.3 1.1 1.6.9 1.7 1.4.6 3.8-.9 1.9-1.7 2.5-2.8 2-.9-.4-4-.8-7-1-2.9-.2-5.9-.9-6.7-1.5-1.1-.9-1.4-.6-1.4 1.7 0 2.1-.3 2.5-1.2 1.6s-.9-1.8 0-3.7c.7-1.4 1.2-3.4 1.2-4.3 0-3.7 2.3-4.7 7.9-3.6M443.3 123.8c-4.8.3-5.3.5-5.3 2.7 0 2.8 2 7.5 3.2 7.5.4 0 .8.8.8 1.7 0 1.5.2 1.6 1 .3.6-.9 1-1 1-.3 0 1.2 6.5 5.6 9 6 3.4.7 13.3-2.2 15.5-4.5 1.3-1.3 2.8-2.1 3.3-1.8 1 .6 4.2-3.5 4.2-5.4 0-1.4-2.5-4-3.8-4-.6 0-1.2-.4-1.4-.9-.3-.9-18.7-1.8-27.5-1.3M653 128.1c0 3.7.5 4.8 3.8 7.8 2.1 2 4.7 4.9 5.7 6.5 1.9 2.8 1.9 2.9-.4 4.7-1.3 1-2.7 1.7-3.1 1.4-.4-.2-1.5.4-2.5 1.5-1.1 1.3-2.5 1.8-3.7 1.4-1-.3-1.8-.1-1.8.4 0 1.4 5.9 9.2 7 9.2.6 0 1 .7 1 1.5s.7 1.5 1.5 1.5 1.5.9 1.5 2 .5 2 1.1 2c.5 0 .7.4.4 1-.3.5-.2 1 .4 1 .5 0 1.6 1.2 2.4 2.7 5 9.8 7.5 13.3 9.4 13.3.6 0 2.2-1.5 3.4-3.3 1.3-1.7 4.2-5.4 6.6-8.1 2.4-2.6 4.3-5.2 4.3-5.7s1.5-2.6 3.3-4.6c1.7-1.9 3.1-4 2.9-4.5-.1-.5.1-.7.6-.4s2.5-1.4 4.4-3.7c6.3-7.5 18.8-24.5 18.8-25.5 0-1.3-18.4-3.4-41-4.6-4.7-.3-12.4-.8-17.2-1.2l-8.8-.7zM431.7 130.1c-.8 1.9-2.2 5.6-3.1 8.4-1 2.7-3.1 8.6-4.7 13-1.7 4.4-4.6 13.2-6.4 19.5-1.9 6.3-5.1 16-7.3 21.5-2.1 5.5-4.2 11.3-4.6 13-.4 1.6-1.8 6.7-3.2 11.2-1.4 4.6-2.4 8.8-2.2 9.4.4 1.3 39.5-38.9 43.4-44.6 1.4-2.2 3.1-4.2 3.6-4.4.5-.1 1.9-1.3 3.2-2.5 2.7-2.5 2.2-6.8-1.4-13.1-1.2-2.2-3.1-6.7-4.2-10s-2.3-6.2-2.7-6.5c-.7-.6-2.8-4.7-6.5-12.9l-2.5-5.4zM716.5 139.6c-2.8 3.6-6.3 8.5-8 10.8-1.6 2.4-3.9 5.1-4.9 6.2-1.9 1.8-14 16.6-19.9 24.3-1.5 2-3.7 4.7-4.8 6-1.2 1.3-1.7 2.6-1.2 3 1.9 1.7 44.8 17.2 46.9 17 .2-.1 1.8.5 3.5 1.1 1.6.7 3.2 1 3.5.7 1.6-1.6-7.7-73.1-9.7-75.1-.3-.3-2.7 2.4-5.4 6"/><path d="M447.8 180.6c-1.8 2-9.6 10.2-17.4 18.3-7.8 8-17.2 17.9-20.9 21.8-4.8 5.1-7.6 7.3-9.3 7.3-1.8 0-2.3.5-2 2.2.3 2 .8 2.1 7.3 1.9 3.8-.1 7.4-.5 7.9-.9.6-.3 3.2-.4 5.9-.3 7.8.4 21.8-1 22.2-2.3.9-3.2 7.9-33.1 9.2-39.6.8-4.1 1.7-8.5 2-9.8.8-3.3-1.2-2.7-4.9 1.4M542.5 209c-2.2.5-6.8 1-10.2 1.1-6.6.2-9 1-7.9 2.8.4.6.4 1.7-.1 2.3-2.4 3.9-3 18.3-2.1 46.3.5 15.4.7 29 .5 30.2-.7 3.9.7 2.6 3.2-3 1.3-2.8 4.3-8.7 6.7-13 3.4-6.2 4-7.9 2.9-8.4-2.5-.9-1.7-3.1 1.2-3.5 2.2-.2 3.4-1.5 6-6.3 3.6-6.6 11.5-21.8 14.6-28 1-2.2 2.5-4.7 3.1-5.5 1.3-1.6 6.6-13.6 6.6-14.9 0-1.1-19.6-1.1-24.5-.1M567.5 215.9c-1.1 1.8-3 4.9-4.2 6.7-1.3 1.9-5.3 9.4-9 16.7-3.6 7.2-8.9 17.2-11.6 22.2-2.7 4.9-5 9.4-5.1 10-.1.5-1.4 2.8-2.8 5.1-3.3 5.1-10.8 20-10.8 21.4 0 .8 3.7 3.3 13 8.5 1 .6 3.5 2.2 5.6 3.6 9.3 6.1 15.4 9.9 15.9 9.9.4 0 3.3 1.8 6.6 4 5 3.5 6 3.8 6.6 2.4.3-.9.3-14.9 0-31.3-.4-24.2-.8-30.5-2.2-34.5-1.4-4.1-1.5-5.6-.6-8.5.8-2.3 1.1-10 .9-21.6l-.3-18zM517.3 223.9c-.3 1.2-1.1 2-1.7 1.8s-2.2 0-3.6.5c-1.8.7-2.1 1.1-1.1 1.7 1 .7 1 1.4-.3 3.9-.9 1.7-1.6 4.2-1.6 5.5 0 2.8-2.4 5.2-4 4.2-1.3-.8-4.2 1.4-3.4 2.6.3.5 0 .9-.7.9-.8 0-.8.4-.1 1.2.6.7 1.1 1.6 1.1 2 .8 4.9 1.6 6.8 3 6.8 1.2 0 1.3.2.3.9-1.1.6-.9 1.5.7 4.2 1.2 1.9 2.1 3.9 2.1 4.6 0 1.9 10.4 23.3 11.3 23.3s-.1-65.1-.9-66c-.3-.2-.7.6-1.1 1.9M431.5 233.9c-.5 1.8-.8 1.8-3.3.5-2.1-1.1-5.4-1.3-15.2-.9-16 .8-16.7.9-17.2 4-.3 1.4-.2 2.5.1 2.5.4 0 .8 10.9 1 24.2.1 13.4.5 24.5.7 24.8.3.2.8 0 1.2-.6 1-1.6 5.2-2.8 5.2-1.5 0 .6-.6 1.1-1.3 1.1-.8 0-2.2.9-3.2 2-1.7 1.9-1.7 2 .6 4 4.9 4.1 12 8.3 12.8 7.4 1.2-1.5 7.3-20.6 6.7-21.2-.3-.3-3.2 1.1-6.5 3.1-3.2 2.1-6.5 3.7-7.3 3.7-2-.1 1.9-2.8 8.8-6.1l6.1-2.9 6.6-14.8c3.6-8.1 6.9-15.8 7.3-17.2.6-2.2.5-2.3-1-1.1-.9.7-1.6 1.9-1.6 2.6s-1.8 3-4 5.1c-2.2 2.2-6.1 7-8.7 10.7-2.5 3.7-7.1 9.6-10.1 13-7.3 8.1-8.2 9-8.2 7.9 0-.5.9-1.7 2.1-2.8 1.2-1 6.4-7.6 11.6-14.6 5.3-7.1 9.9-12.8 10.4-12.8s.9-.4.9-1c0-1.1 6.4-9.9 8.4-11.5 1.1-1 5.6-8.2 5.6-9.1 0-.2-1.8-.4-3.9-.4-3 0-4.1.5-4.6 1.9M435.2 251c-3.3 6.9-6.9 14.9-8 17.8l-2 5.3 2.1-.7c1.2-.3 3.3-1.6 4.7-2.8 2.6-2.4 6.1-4.8 11.5-8.1 1.8-1.1 3.1-2.7 2.9-3.5s-1-4.7-1.8-8.5c-2.8-13.6-2.6-13.6-9.4.5M493.6 246.7c-.3.4-3.5 1.5-6.9 2.4-10 2.8-18.7 6-18.7 6.9 0 .7-2.9 1.9-5.5 2.4-5.1.8-7.1 3.4-3.4 4.3 1.3.4 1.7.8.9 1.3-.7.4-.2 1.3 1.6 2.5 2 1.3 2.8 1.4 3.4.5.5-.8.9-.4 1.3 1.1.4 1.3.9 2 1.3 1.6.4-.3 2.6.5 5 1.9 2.5 1.4 5.1 2.3 5.9 2 .9-.3 1.5 0 1.5.9 0 .8.7 1.5 1.5 1.5 2.7 0 3 .1 5 1.9 1.1 1 3.1 2.2 4.5 2.6s3.7 1.6 5.1 2.6c5.2 3.7 14.8 7.6 17.3 7.2l2.5-.5-1.6-4.2c-.9-2.2-3.1-7.3-4.9-11.3-1.9-4-3.4-7.9-3.4-8.8 0-.8-.4-1.5-1-1.5-1.1 0-3.9-5-4.3-7.7-.1-1-.5-2.3-.9-2.8-.3-.6-.9-2.5-1.3-4.3-.6-3.1-3.1-4.3-4.9-2.5M442.5 266.2c-1.6.6-5.2 3-8 5.3-2.7 2.3-6.1 4.8-7.4 5.5-2.4 1.2-2.4 1.3-.5 2.6 1 .8 4.1 3.5 6.8 6 5.5 5.2 6.3 4.9 6.8-2.4.2-2.3.6-4.2 1-4.2 1 0 3.1-4 3.4-6.5.1-1.1.5-3.2.9-4.8.4-1.5.6-2.7.4-2.6-.2 0-1.7.5-3.4 1.1M420 287.2c-1.2 4-2.9 8.8-3.7 10.6-.9 1.8-1.3 3.6-.9 3.9 1.5 1.6 20-5.8 21-8.3.3-.7-.9-2.4-2.6-3.6-1.7-1.3-4.8-4-7-6.1-2.2-2-4.2-3.7-4.3-3.7-.2 0-1.3 3.3-2.5 7.2M667.5 297c-3.3.9-8.7 2.9-12 4.3-5.5 2.3-40.8 15-51.5 18.4-10.3 3.4-28.6 10.5-29.7 11.6-.7.7-1.6 8.1-2.3 18.7-.6 9.6-1.3 18.3-1.6 19.2-.3 1-.2 2.7.1 3.8.6 2 .7 2 3.6.3 1.6-1 2.9-2.1 2.9-2.5s.4-.8.8-.8c1.2 0 21.4-12.2 29.7-17.9 2.2-1.5 6.8-4.2 10.2-5.9 5.1-2.6 10.2-7.1 27.6-24.7 11.8-11.8 21.9-21.5 22.6-21.5s-8.5 9.6-20.3 21.4c-11.9 11.8-21.6 21.9-21.6 22.4s3.3 0 7.3-1c3.9-1 12.4-2.9 18.7-4.3 17.5-3.8 24.4-5.7 25.3-7.1.4-.7 1.4-1.1 2.3-.7 1.7.6 6.5-2.4 18.4-11.7 4.7-3.6 10.2-7.7 12.2-9 2.1-1.4 3.8-2.8 3.8-3.2s1.8-1.7 4-2.9c2.2-1.3 3.9-2.7 3.7-3.3-.4-1.2-23-4.1-37.7-4.9-8.3-.4-11.8-.1-16.5 1.3M443 296.9c0 1.7 10.4 16.3 12.7 17.8 1.4.9 3.8 1.7 5.4 1.7 2.7.1 3.3-.5 6-5.9 1.7-3.3 2.9-5.3 2.6-4.5-.2.8-1.3 4.1-2.3 7.4-1.8 5.7-1.8 5.8.1 7.2 1 .8 2.8 1.4 3.9 1.4 2.2 0 12.6 5.9 12.6 7.2 0 .4.6.8 1.4.8 2.3 0-11.3-25.9-14.4-27.5-2.6-1.4-23.3-6.5-26.2-6.5-1 0-1.8.4-1.8.9M514.9 299.4c-.2.2-9.4.6-20.3 1-11 .3-20.1.8-20.4 1.1-.7.7 11.2 21.9 14.7 26.1.5.6 1.9 3 3 5.3 1.2 2.2 2.5 4.1 2.9 4.1s2.9-3.2 5.6-7.1c2.8-3.9 5.4-7.3 6-7.6.5-.3.7-.2.4.3-7.9 12.8-9.8 16-9.8 16.9 0 1.8 11 4.8 26.9 7.4l5.4.9-.6-8.7-.5-8.6 1.8 7.8c1 4.3 2 8 2.2 8.3.3.2 2.5-.6 4.9-1.9s6-2.9 7.9-3.6c10.3-3.9 23.1-9.5 23.7-10.4.7-1.2-5.2-6.5-10.5-9.2-2-1.1-8.3-5-13.9-8.7-5.6-3.8-10.5-6.8-10.7-6.8-.3 0-2.1-1.1-4.1-2.4-2-1.4-4.5-2.3-5.5-2.1-1.1.2-2-.2-2-.8 0-.7-1.1.4-2.3 2.3-4 6.3-9.1 13-9.5 12.6-.2-.3.8-2 2.2-3.9s2.6-3.8 2.6-4.4c0-.5.9-1.8 2-2.8 2.4-2.2 2.6-4.1.4-4.9-1.8-.7-1.9-.7-2.5-.2M376.6 319.2c.4.7 1.4 2.1 2.2 3 .8 1 1.2 1.8.9 1.8s.7 3 2.2 6.7c1.7 4.3 3.5 7.2 4.9 7.8 1.2.5 2.2 1.8 2.2 2.8 0 4.7 5.9-3.5 7.6-10.5.5-2.5.3-2.7-3.1-3.4-2-.3-6.3-2.6-9.6-5-5.8-4.4-8.7-5.6-7.3-3.2M400 331.7c0 .9-.3 1.4-.6 1-.3-.3-1.8 1.8-3.3 4.6-3 5.7-4 12.6-1.9 12.8.7 0 2.2.2 3.3.5 1.1.2 3.1.1 4.4-.2 2-.4 2.2-.9 1.7-3.5-.3-1.9-.2-2.8.4-2.4.6.3 1 1.1 1 1.6 0 .6.8 1.8 1.7 2.7 1.6 1.6 1.6 1.6 1-.2-.5-1.2-.3-1.7.5-1.3.9.3 1.4-.6 1.5-2.6.1-1.7.9-3.4 1.7-3.9.7-.4 1.7-2.3 2-4.2.4-1.9 1.3-3.7 2.1-4s1.5-1 1.5-1.6-3.3-1-8.5-1c-7.3 0-8.5.2-8.5 1.7M561.5 336.4c-3.8 1.8-10.1 4.8-14 6.5-15 7-14 6.3-11.9 7.8 1.1.7 2.6 1.9 3.5 2.6.8.8 4.6 3.5 8.5 6.2 3.8 2.6 9.5 6.8 12.6 9.2 3.1 2.3 5.9 4.3 6.1 4.3.8 0 1.7-6.1 2.7-17.7.5-5.9 1.3-13.4 1.6-16.6.8-6.8.7-6.9-9.1-2.3M497 347.3c0 1.8.5 3.8 1.1 4.4.9.9.9 2.4 0 5.8-1 4-.9 5.1.4 7.1 1.8 2.8 1.9 5.1.3 5.6-.6.2-.9 1.2-.5 2.1.5 1.5 1 1.5 3.4.5 1.5-.7 3-1.5 3.3-1.8s1.6-1.1 3-1.8c2.2-1.1 2.2-1.1.3-.6-1.3.3-2.3.1-2.3-.5s1.2-1.1 2.6-1.1c3.1 0 20.3-14.5 20.4-17.1 0-.6-5-1.7-20.1-4.4-11.9-2.1-11.9-2.1-11.9 1.8M301 360c-11.6 7.7-18.8 13.1-18 13.4s11.6 2.8 24 5.7c32.7 7.5 34.3 7.8 36.1 7.9 2.1 0 3.1-3.5 1.8-6.4-1.4-3.3-8-12.1-8.9-11.9-.4.1-.7-.3-.6-1 .1-1.6-12.6-20.7-13.9-20.7-.5.1-9.8 5.9-20.5 13M531 355.2c0 1.7-.6 5.7-1.4 8.7-6.7 26-9.3 38.1-8.1 38.1.6 0 7.5-3.9 29.3-16.7 17.1-10.2 17.9-11.6 6-10.5-3.2.2-6.3 1.1-6.9 1.9-1 1.2-1.5.9-2.6-1.8-1.9-4.5-1.7-4.7 2.4-5.1 4-.3 5.5-2.3 2.5-3.2-1.1-.4-3.3-1.8-4.8-3.2-1.6-1.3-3.3-2.8-3.9-3.2-.5-.4-3-2.4-5.4-4.5-5.5-4.6-7.1-4.7-7.1-.5M411 387.5c0 .8-.8 2-1.7 2.7-1 .7-2.4 2-3.1 2.9-1.5 1.9-4.6 18.5-3.7 19.9.5.8 24.3.5 25.2-.3.4-.4-5.3-16.5-6.7-18.9-.6-1-1-3-1-4.4 0-2.3-.2-2.5-1.6-1.3-1 .8-1.8.9-2.2.2-1.1-1.7-5.2-2.3-5.2-.8M440.3 394.2c-4.6 1.8-5.4 2.6-6.3 5.7-.6 2-1.7 4.7-2.6 6.1l-1.5 2.5.6-3c2.3-10.9 2-12.3-3.1-10.9-2 .5-2 .8-.7 5.7 1.9 7.6 3.3 10.5 4.8 10.3 1.7-.2 18.5-15.6 18.5-16.9 0-.4-.4-.5-1-.2-.5.3-1 .1-1-.4 0-1.5-1.7-1.3-7.7 1.1M459.8 393.8l-4.7 1.5.6 8.6c.3 4.7.9 9 1.4 9.5s2.5-.5 4.7-2.5c2.1-1.9 4.9-4.4 6.3-5.5 1.3-1.2 3.9-3.8 5.7-5.7 2.7-2.9 3-3.4 1.3-3-1.4.4-2.3-.1-2.8-1.3-1.4-3.8-4.5-4.2-12.5-1.6M479.3 400c-3.3 2-6.2 4.3-14.2 11.7-4.5 4.2-4.6 4.2-1.9 4.3 1.5 0 6.1-.7 10.3-1.7 6.7-1.4 7.6-1.9 8.1-4.2.3-1.4 1-3.4 1.5-4.5.8-1.3.7-1.6-.2-1.1-.9.6-1-.1-.5-2.9.4-2 .6-3.6.4-3.6s-1.8.9-3.5 2M948.8 151.7c-7.6 3.6-13.8 6.9-13.8 7.2s5.5 2.5 12.3 4.9c32.7 11.6 48.4 17.3 50 18.3 1.1.6 2.1.9 2.3.6.4-.4-35.8-37.8-36.6-37.7-.3 0-6.7 3-14.2 6.7M936.7 164.1c1 1.6 3.4 5.1 5.3 7.7 2 2.6 6.7 9.2 10.5 14.7s11.2 16.1 16.4 23.5c5.3 7.5 11.2 15.9 13.1 18.7 3.3 5.1 3.5 5.2 4.6 3 .7-1.2 2.4-6.3 3.9-11.2 1.4-5 4-13.5 5.7-18.9 3.1-10.2 3.8-13 4.1-15.6.1-1-3-2.6-9.8-5.2-16.2-6-54.5-19.8-55.1-19.8-.3 0 .3 1.4 1.3 3.1M1001.4 189.5c-.4 1.1-.8 3.7-.8 5.7s-.5 3.6-.9 3.5c-.8-.2-9.7 27.2-11.4 34.9-.5 2.2.6 2.7 13.7 5.5 3 .6 7.8 1.8 10.7 2.5 7.4 2 7.5 1.9 5.9-2.4-1.2-3.2-8.2-25.4-10.1-32.2-.4-1.4-1.1-3-1.6-3.5-.4-.6-1.3-3.1-1.9-5.5-2.7-10.9-2.6-10.7-3.6-8.5M1011.6 196.7c10.2 13.8 16.7 22.3 19.6 25.7 1.5 1.7 2.8 3.4 2.8 3.8 0 .5.4.8.9.8 1.4 0 7.3-10 6.9-11.7-.2-.9-3-3.5-6.3-5.9-25.7-18.7-29.5-21.4-30-21.4-.2 0 2.5 3.9 6.1 8.7M1005.5 194c1.2 4 7.2 22.5 13.6 42.4l2.3 6.9 6.3-6.7c3.5-3.8 6.3-7.2 6.3-7.7s-2.8-4.3-6.3-8.6c-3.4-4.3-8.6-11.2-11.5-15.3s-6.8-9.3-8.7-11.5l-3.4-4zM1039.1 224.1l-3.2 5.2 5.1 10.3c2.8 5.7 5.3 10.4 5.5 10.4.9 0-2.3-27.7-3.4-29.8-.5-.9-1.7.2-4 3.9M1028.8 237.4c-6.2 6.9-6.6 7.6-4.4 7.6.8 0 1.8.5 2.2 1.1.4.7 0 .9-1.4.5-1.5-.5-2.1-.1-2.6 1.6-1.5 5.6-.2 60.9 1.4 59.1.4-.4 1.2-2.9 1.9-5.6 1.3-5.5 5.1-16 5.6-15.5.2.2-.5 3.5-1.7 7.3-3.9 13.7-4.7 16.9-4.4 17.2.4.5 25.4-16.9 28.4-19.7 1.2-1.1 2.2-3.2 2.2-4.7 0-3.1-7.2-26.3-8.2-26.3-.3 0-2.7 2.4-5.2 5.3-4.4 5.2-9.6 15.1-9.6 18.4 0 .9-.3 1.3-.6 1-.4-.4.1-3.1 1-6.2l1.8-5.5-6.2-11.6c-3.4-6.3-5.9-11.8-5.7-12.1.5-.4 5.4 7.9 9.9 16.9 1.2 2.6 2.7 4.6 3.3 4.4 1.6-.4 10.6-12.7 10.2-13.9-.2-.6-4.1-2.8-8.8-4.9-4.6-2.1-7.8-3.8-7-3.8s3.7 1.1 6.5 2.4c10.3 4.9 10.2 5 3.9-7.8-3.2-6.4-6-11.6-6.3-11.6s-3.1 2.9-6.2 6.4"/><path d="M1049.5 296.1c-2.7 2.2-9.1 6.7-14.2 10.1-5.1 3.3-9 6.4-8.8 6.8s5 1.3 10.7 2 9.8 1.5 9.1 1.7c-.6.2-6-.3-11.9-1.1-6-.8-11-1.3-11.3-1.1-.2.3.2 1.1.9 2 1.4 1.7 0 2.1-1.7.4-1.2-1.2-2.1-.7-27.1 13-5.6 3.1-10.1 6-9.9 6.5s2.5 2.2 5.3 3.6c2.7 1.5 8.7 4.8 13.3 7.4 4.6 2.5 8.7 4.6 9.1 4.6s1.4-2.8 2.3-6.3c1.6-6.4 2.3-4.1.8 2.5-1 4.4-1.1 4.3 7.3 2.6 3.2-.6 6-1.7 6.3-2.4.2-.7 1.1-1 1.9-.7 2 .7 1.8-1.4-1-10.2-1.3-4.1-2-7.2-1.5-6.9s.9 1.1.9 1.7c.1.7 1.4 3.9 2.9 7.1l2.8 5.9 3.3-4.4c1.7-2.4 5.2-7.7 7.7-11.7 2.5-3.9 4.7-7.2 4.9-7.2.6 0-2.2 5.4-5.2 10.1-1.2 2-2.9 5.3-3.8 7.2-1.4 3.4-1.3 3.6.5 3.4 1.2-.1 1.8-.6 1.4-1.5q-.45-1.35.9-.9c.7.3 1.9 0 2.6-.6 1-.9 1.1-.9.6 0-.4.7-.3 1.3.3 1.3.5 0 1.6-2.8 2.4-6.3 1.4-5.7 1.5-5.9 1.6-2.3.1 3.2.3 3.6 1.5 2.7.8-.6 1.8-2.4 2.4-3.9s2.2-5.8 3.7-9.5c1.4-3.8 2.4-7.1 2.1-7.4-.5-.6-6.7 3.5-7.8 5.1-.4.6-.4 1.4-.1 2 .3.5.1.6-.5.2-.7-.4-1.2-1.3-1.2-2.1 0-.7-1.2-1.6-2.7-1.8-2.7-.4-2.7-.4.3-.6 2.8-.1 3.2-.5 3.8-3.9 1.2-7.3 1.9-21.2 1-21.1-.5 0-3.1 1.8-5.9 4M983.4 341.1c.4 1.9 1.1 6.8 1.6 10.9 1.2 9.1 3.1 18.2 4 19.3.4.4 1.3.1 2-.8 1.1-1.3 1-1.5-.2-1-.9.4-1.5 0-1.5-1 0-.8.6-1.5 1.3-1.5s1.7-.8 2.3-1.7c.7-1.4 1.2-1.5 2.5-.4 1.2 1 1.9 1 3.4-.1 3.6-2.6 12.2-10.3 12.2-11 0-.6-16-9.7-24.9-14.3l-3.4-1.7zM1001.1 365.2c-6 5-10.8 9.5-10.5 9.9.2.5 4.2 3.4 8.7 6.5 14.5 10.1 21.8 15.6 21.3 16.1-.3.3-3.8-1.9-7.8-4.9-9.9-7.4-22.9-16.1-23.4-15.6-.3.4 5.3 28.9 5.9 29.5.3.2 7.4-1.6 20.3-5.2 2.9-.8 5.4-2.2 5.8-3 .3-.8-.3-4.7-1.3-8.7s-2.9-13.3-4.1-20.6c-1.3-7.2-2.7-13.2-3.1-13.2s-5.7 4.1-11.8 9.2M1015.4 359.5c.4 1.1 1.2 4.5 1.7 7.5 1.6 8.9 6.1 30.5 6.4 30.9.7.7 2.3-1 6.3-6.9l4.2-6-4.6-6.8c-2.5-3.7-6.1-8.6-8-10.9s-3.4-4.5-3.4-5c0-.4-.8-1.7-1.7-2.8l-1.6-2zM1050.8 378.2c-1 1.2-1.8 2.8-1.8 3.4 0 .7-.5 1.4-1.2 1.6-.8.3-.8 1.3.1 3.9.7 1.8 1.5 8.1 1.8 13.8.6 9.6.8 10.7 3.2 12.8l2.6 2.4-2.7-1.6-2.6-1.6-.7 7.5c-.4 4.1-.4 10.2 0 13.5.6 5.4 1 6.1 2.9 6.1 3 0 25.8-2.9 26.2-3.3.2-.2-4.8-4.7-11.1-10.1s-11.5-10-11.5-10.3c0-.6.6-.1 12.8 10 5.2 4.3 9.6 7.7 9.8 7.5s-1.8-4.9-4.5-10.4c-2.6-5.5-5.2-11.1-5.6-12.4-1.2-3.9-8.6-20.4-9.4-21-.4-.3-1.9-3.5-3.5-7.3-1.6-3.7-2.9-6.7-3-6.7 0 0-.9 1-1.8 2.2M1070 439.2c-4.1.5-9.7 1.2-12.5 1.6l-5 .7 5.5 3.5c3 1.9 5.7 3.8 5.8 4.2.2.5.9.8 1.5.8 1.7 0 14.7-10.7 14-11.4-.4-.3-.9-.5-1.2-.5-.3.1-4 .6-8.1 1.1M392.7 482.7c-.4.3-.7 1.5-.7 2.5s-.5 1.8-1.2 1.8c-.6 0-.9.3-.5.6.3.3-.5 2.4-1.9 4.5-1.3 2.1-2.4 4.2-2.4 4.6 0 .5-1.6 3.9-3.4 7.8l-3.4 7 2.4 1.3c2.9 1.5 3.2 3.6.3 2.9-1.3-.3-1.9-.1-1.6.6.2.7 1 1.2 1.8 1.3.8 0 3.1.4 5.2.9 2.8.5 3.5 1 2.7 1.9-.7.9-.5 1.3.5 1.3.8 0 1.2-.4.9-.8-.2-.4.4-1.4 1.4-2.1 1.9-1.3 2.1-2.6 2.4-15.8.3-9.5-.4-21-1.1-21-.4 0-1.1.3-1.4.7M414 499.2c-1.3 5.2-3.9 11.8-5.1 12.8-1 .8-5.9 14.3-5.4 14.8 1.5 1.5 17.5-13.8 17.5-16.7.1-2.1-4.4-16.1-5.1-16.1-.3 0-1.1 2.4-1.9 5.2"/></svg>