<svg xmlns="http://www.w3.org/2000/svg" width="1706.667" height="960" viewBox="0 0 1280 720"><path d="M0 360v360h320.9c320.1 0 321 0 321.6-2 .3-1.1 1.1-2 1.6-2 .6 0 .6.8-.1 2-1 1.9-.8 2 7.2 2 7.7-.1 11.8-1.2 11.8-3.4 0-1.6 12.7-12.1 17.8-14.8 4.2-2.2 1.7-3.3-8.9-4-16.7-1.2-17.3-1.5-2.4-1.4 15.9.1 14.9.9 11.9-9.1-2.4-8.2-1.1-8.6 1.6-.6 1.3 4 2.6 7 3 6.8s4-8.6 8-18.7 7.8-18.9 8.4-19.7 1.1-2.1 1.2-3 .2-2.9.3-4.4c.1-3.6 2.1-2.5 2.1 1.2 0 1.7 1.1 3.8 3 5.6 1.6 1.6 2.8 3 2.6 3.3-.3.2-1.4-.6-2.5-1.7-2.8-2.8-4.3-2.7-3.1.3.5 1.3 1.3 5.7 1.9 9.7.6 4.1 1.5 10.5 2.1 14.2.8 5.7 3.6 16 5.7 21.7.3.8.7 2.1.9 2.8.9 4.7 2.9-2.5 3.9-13.8.4-4.1 1.1-9.9 1.6-12.8.9-4.6.8-5.7-1-9-2.1-3.5-2.1-3.6-.1-1.3 1.1 1.3 2 2 2 1.6s1.5 1.5 3.3 4.2 7.5 9.8 12.7 15.8c8.5 9.9 12.7 14.7 22.8 25.4 1.7 1.9 3.2 3.8 3.2 4.3 0 .4 115.9.8 257.5.8H1280V0H0zM562.2 56.1c1.2 1.1 12 7.9 23.8 15.1l21.5 13 7.5-1.1c4.1-.6 13.4-2 20.5-3.2 7.2-1.1 15.1-2.3 17.8-2.6 2.6-.3 4.7-1 4.7-1.5s-.3-.7-.8-.4c-.4.2-1.8-.2-3.2-1-2.4-1.2-2.4-1.3-.4-1.4 1.2 0 4 .6 6.2 1.4s4.2 1.3 4.4 1.1.9.4 1.5 1.4c1 1.6.9 2-.8 2.4-1.1.3-2.5-.1-3.3-.8-.7-.8-1.6-1.2-1.8-.9-.3.2-5.6 1.1-11.9 1.9-16.7 2.1-36.9 5.7-36.9 6.5 0 .3 3.9 2.8 8.8 5.4 4.8 2.6 10.7 5.8 13.2 7.2s12.2 6.6 21.5 11.6c9.4 5 18.7 10.1 20.8 11.5l3.8 2.4-.5-3.8c-.2-2.1-.8-4.6-1.1-5.6-.4-.9-.4-1.7-.1-1.7.7 0 2.5 4.3 3.1 7.3 1 4.7 1.8 4.7 12-.2 4.4-2.1 12.9-6.2 18.9-9.1l10.9-5.2-5.4-2.2c-7.8-3.3-49.9-24.8-46.9-24 1.4.4 12.6 5.7 25 11.8s24.1 11.8 26.1 12.5c3.8 1.4 8.3 7.1 5.6 7.1-.8 0-1.8-.9-2.3-2-.9-1.8-1.4-1.7-11.4 2.8-14.9 6.7-28.5 13.8-28.5 14.8 0 .5 3.4 3.1 7.5 5.8 9 6 37.8 23.6 38.5 23.6.3 0 .5-2.1.5-4.7 0-6 1-5 1.4 1.3l.3 4.9 7.4 3.7c4.1 2.1 6.8 3.8 6.1 3.8s-3-.9-5.2-2c-5.3-2.7-7.4-2.6-6.6.2.3 1.3 1.1 5.1 1.7 8.5 1.1 6 3.7 10.3 4.6 7.5.7-1.8 4-1.5 4.7.5 1 2.6-.9 3.8-4 2.4l-2.7-1.2.6 7.3c.4 4 1.8 11.1 3.2 15.8 1.3 4.7 2.5 9.6 2.5 11 .1 6.3 1.7 5.1 13.1-10.2 18.2-24.4 19.1-25.8 17.9-27.3-.8-.9-.8-1.5 0-2 2.6-1.6 3.4 1.3 4.6 16 .3 4.4.4 7.8.1 7.5-.6-.6-2.1-12.5-1.9-15.2.2-3.6-1.7-2.5-5.9 3.5-2.4 3.4-7.1 9.8-10.4 14.1-15.9 20.9-16.4 21.9-12.6 23.1 2.1.6 6.1 3.9 6.1 4.9 0 .4-1.5-.4-3.2-1.8-5.9-4.4-6-4.2-6 7.4v10.5l-1.2-9.9-1.1-9.9-5.7 6.9c-3.1 3.8-10 12.3-15.4 18.9S713.3 263.7 713 264s-3.7 4.3-7.6 9-8.2 9.6-9.4 11-4 4.8-6.1 7.6c-3.7 4.9-4.9 7.1-3 6 .4-.3 3.5-.8 6.7-1 5.9-.5 5.1.2-2.1 1.9l-3 .8 3.4.9c1.8.5 3.1 1.1 2.8 1.4s-2.4 0-4.7-.6c-2.6-.7-4.5-.8-4.9-.2-.3.5-1.5.6-2.5.2-2.7-.9-9.1 3.4-28.1 18.8-.5.4-5.6 3.9-11.2 7.6-5.7 3.7-10.3 6.9-10.3 7.1 0 .1 1.4.5 3.1.7 2.5.4 3 .2 2.6-1.2-.3-1.2.8-2.5 3.4-4.1 2.2-1.3 6.7-4.2 10-6.4 6.7-4.4 6.9-4.5 11.9-6.8 5.2-2.5 18.6-5 26.5-5 6.6 0 7.3.2 12.4 3.9 8.8 6.4 13.1 10.5 15.2 14.6 1.1 2.1 1.5 3.8.9 3.8-.5 0-1.6-1.5-2.4-3.4-1.3-3.2-8.5-9.4-14.6-12.6-2.2-1.2-2.4-1.2-1.2.2 1 1.3 1 1.7-.3 2.2-.8.3-1.5 1-1.5 1.6s.4.9.9.5c.5-.3 1.2-.1 1.6.5s1 .8 1.5.5c.4-.3 1 .2 1.4 1 .6 1.5-.5 2-1.8.8-1-1-3.6-1.3-3.6-.3 0 .9 3.9 2.3 6.2 2.1.9-.1 2 .3 2.4 1 .4.8.3.9-.4.5s-1.2-.3-1.2.3c0 1.2 9.2 9.2 10.4 9.1.5-.1 1.3.4 1.7 1.2.7 1 1.1 1.1 1.7 0 .6-.9 1.2-.6 2 1.3.7 1.4 1.2 3.1 1.1 3.8 0 .7-.7-.2-1.4-1.8-.8-1.7-1.4-2.4-1.5-1.8 0 2.2-1.3 1.5-9.5-5.2-8.7-7.1-17.6-11.8-24.2-13-3.4-.5-4-.9-3-1.9.9-1.1 1.8-1 4.7.2 6.5 2.7 9 3.2 9 1.7 0-1.6-1.3-2.6-6-4.2-4.6-1.7-6.5-1.6-8 .2-.7.8-2.1 1.5-3.1 1.5-1.3 0-1.9.7-2 2.2 0 1.4-.2 1.7-.6.8-.2-.8-.7-2.2-1-3-.4-1.3-.7-1.2-1.8.4-.8 1-1.9 1.5-2.5 1.1-.8-.5-.8-1.1.1-2.1 2.1-2.5.2-2.7-6.4-.5-7.5 2.5-11.8 6.6-13.7 13.1-.7 2.5-1.7 4.9-2.2 5.4-.4.6-.8 1.6-.8 2.4 0 1.1.9 1.3 3.9.8 2.3-.3 4.2-.2 4.6.4.3.5.1 1-.5 1s-.8.4-.5 1c.7 1.2-.7 1.3-2 .2-.6-.4-3.2-.5-6-.1-2.7.3-4.1.7-3 .7 1.8.2 1.7.3-.5 1.9-1.4.9-2.7 2-3 2.4-.3.5-1.2.4-2-.1-1.1-.7-.8-1 1.2-1.5 3.6-.9 3.3-4.2-.5-6.2-1.6-.8-2.6-1-2.3-.4.4.6 0 1.1-.8 1.1-.9 0-1.3-.6-1-1.3.3-.8-.3-2-1.2-2.8-1.6-1.3-1.6-1.2-.5.8.6 1.3.8 2.3.3 2.3s-.7 1.5-.6 3.2l.3 3.3-1-3.5c-2.6-8.4-2.5-8.3-7.7-7.5-9 1.3-25.9 4.8-44.2 9.1-9.3 2.2-10.1 2.5-9.6 3.3.3.4-.8.5-2.5.3-1.6-.2-3.5 0-4.2.6-.6.5-3.2 2.1-5.7 3.4-10.7 5.8-39.6 22.1-40.8 23.1-2.3 1.8-3.1 1.6 44.8 12.3 9.1 2 16.7 3.9 17 4.2.8.8-4.1-.2-47.2-9.7-10.3-2.2-19.2-4.1-19.7-4.1s-1.7 2.6-2.7 5.7c-.9 3.2-1.9 5.2-2.1 4.5-.3-.7.1-2.6.7-4.3 1.5-3.4.7-4.8-1.8-3.3-.9.6-6.9 3.8-13.3 7.2-6.3 3.3-15.3 8.3-19.9 11.1s-8.9 5.1-9.6 5.1c-3.1 0-2.1 2 1.6 3.1 5.3 1.6 4.4 2.4-1 .9-3-.8-4.6-.8-5.3-.1-.6.6-1.5.7-2.1.2s-7 .6-15.1 2.5c-7.7 1.9-18.5 4.3-24 5.4s-11 2.3-12.2 2.6c-1.6.3-2.3 1.2-2.3 2.7-.1 2.1-.1 2.1-2.1-.6-1.1-1.5-2.7-2.7-3.5-2.7-.9 0-1.2-.4-.9-1s1.4-1 2.4-1c1.7 0 1.8-.7 1.4-8.8-.3-4.8-.9-9.3-1.3-10.1-.5-1-2.9.9-8.9 6.9-4.4 4.5-7.9 8.6-7.6 9s-.2 1-1 1.4c-.8.3-1.5 1.3-1.6 2.3 0 1.6-.1 1.6-.8-.2-.4-1.1-1.9-2.3-3.2-2.6l-2.4-.7 2.4-.1c1.9-.1 2.2-.5 1.8-2.4-.3-1.2-1.5-7.2-2.7-13.2-2.4-12.2-3.8-14.5-8.8-13.7-2.6.3-3.3 1.1-4.6 5.1-.9 2.5-1.9 5.7-2.2 7.1-2.5 11.6-3.4 16.3-3.4 17.6 0 .9 1.2 1.4 3.8 1.5l3.7.1-3.9.9c-2.2.5-4.1 1.1-4.3 1.3s.2 1.6.8 3.2 1.1 4.3 1 6.1c-.1 1.7.4 3.5 1 3.8.8.6.9-.2.4-2.6-.7-3.3-.7-3.4 1.2-1.6 1.1.9 2.7 1.5 3.6 1.2 2.1-.9 3.3 1.6 1.5 2.9-1.4 1-1.3 1.8.8 6.9 1.3 3.1 3.3 7.3 4.4 9.3 1.1 1.9 1.6 3.3 1.1 2.9-.6-.3-2.9-3.9-5.2-8-5.8-10.2-7.4-10.6-6.5-1.8.4 3.7 2 12.2 3.6 18.8s3.4 15.3 4 19.3c.8 4.7 1.7 7.5 2.7 7.9.9.4 1.3 1.4.9 2.8-.6 2.5 1.1 14.6 2.3 15.8.5.5 1.6-1.1 2.5-3.5.9-2.3 1.4-3.2 1.1-1.8-1.4 5.8-1.7 10-.9 10 .5 0 2.7-1.1 4.9-2.5 2.2-1.3 4.7-2.4 5.5-2.4 1 0 .9.3-.5 1.2-4.4 2.6-8.5 6.1-8.5 7.3 0 1.1 9.9 16.5 12.2 18.9.6.7 1.6.1 2.8-1.5 1.9-2.4 1.9-2.4 1.3-.2-.3 1.2-.9 2.5-1.4 2.8-1.9 1.2-.7 2.4 2.4 2.5 3 0 3.1.1.8 1-1.6.6-2.2 1.5-1.8 2.8.4 1.7.3 1.8-2.2.3-2.6-1.5-3-1.3-10 2.7-4 2.4-9.3 5.2-11.7 6.2-2.4 1.1-4.4 2.4-4.4 2.9 0 1 12.7 12.2 19.3 16.9 2.6 1.9 4.5 3.6 4.2 3.9-.2.2-3.2-1.8-6.7-4.6-11.8-9.4-17.3-13.3-19.4-13.8-1.2-.3-5.5.3-9.5 1.4-8.5 2.3-18.6 3.9-13.4 2.1 2.3-.8 4-2.8 7.3-9 2.3-4.3 4.2-8.5 4.2-9.3 0-.9.9-1.4 2-1.3s1.9.6 1.7 1.2c-.4 1 2.3 5.5 5.6 9 1.3 1.5 2.2 1.7 3.4.9.9-.6 1.9-1.6 2.1-2.4.3-.7 0-1-.7-.6-1.8 1.2-1.3.2 1-1.8 2.1-1.8 2.2-1.8 1.6.3-.4 1.8-.2 2 2.1 1.4 1.5-.3 5.8-2.5 9.5-4.7 6.4-3.8 6.6-4.1 4.2-4.7-1.4-.4-6-1-10.3-1.4-16-1.2-19.8-2.3-26-7.5-3.1-2.6-8.7-6.7-12.5-9.3-3.7-2.5-6.3-4.8-5.9-5.1.5-.3 1.2-4 1.6-8.3.3-4.2 1.1-8.2 1.7-8.8.8-.7.9.6.5 4.8-.3 3.4-.2 5.7.4 5.7s1-.6 1-1.3c0-.6 1.8-4.6 4-8.7 11.5-21.6 11.6-21.7 9.6-23.8-.9-1.1-2.9-2.2-4.4-2.5-3.2-.7-9.7-4.6-8.9-5.3.3-.3 2.5.6 5 2 5.8 3.4 7.3 3.3 8.1-.6.3-1.7.9-2.9 1.2-2.6.3.4.1 2.2-.4 4.2-.9 3.2-.8 3.6.8 3.6 2.1 0 2.6 2.9 2.9 16 0 4.7.6 14.5 1.2 21.8 1.3 15 1.5 15 6.6 2.2 4.4-11 7.3-20.5 7.3-23.7-.1-1.5-.7-5.7-1.6-9.3-.8-3.6-1.6-8.1-1.9-10s-1.4-6.9-2.5-11-2.4-9.5-3-11.9c-.6-2.3-1.3-4.1-1.4-4-.2.2-.6 3.8-1 7.9-.3 4.1-.6 7.6-.6 7.8s-.4.1-.9-.2c-.5-.4-1.9.6-3 2.1-1.6 2.2-2 2.4-2.1 1 0-1 .6-2 1.4-2.3s1.7-1.2 2-1.9c.4-1.1 0-1.2-1.7-.6-3.1 1.2-22.3 11.1-21.7 11.2 6.6 1 7.7 1.9 2.2 1.9-5 0-7.2-.8-7.2-2.6 0-.8-.4-1.4-.8-1.4-.5 0-5.4-2.7-11.1-6.1-5.6-3.4-11.3-6.2-12.6-6.3-1.7-.1-2.5-.7-2.5-1.9 0-.9-.6-1.7-1.2-1.7-.8 0-.6-.5.4-1 .9-.6 2.6-3.5 3.7-6.5s3.4-8.1 5-11.3c1.5-3.1 4.1-9.5 5.6-14.2s3-9 3.5-9.5c.8-1 2.4-5.9 4-12.4.7-2.8.6-3.1-.5-2-1.7 1.9-8.5 14.9-8.5 16.4 0 .7-.7 1.8-1.5 2.5-2.3 1.9-1.9.8 4-11.6 6.3-13.1 6.6-13.9 4.5-13.9-.8 0-2-.4-2.6-.8-2.3-1.4-33.8-8.7-34.5-8-.4.5-1.5 5.1-2.4 10.3-1.8 10.8-3.2 17.3-3.4 14.9-.1-.9.5-5.2 1.3-9.5 2.7-15 2.7-15.6.7-14.2-3.6 2.6-18.2 16.4-19.7 18.6-1.4 2.2-1.4 2.3 3.1 4.3 6 2.6 5.8 3.4-.3 1-2.6-1-6-1.7-7.5-1.6-2.2.3-2.6.1-1.7-1 .8-.9.3-2.6-1.6-6.4-2.8-5.2-4.7-6.8-3.6-2.9.3 1.4.2 1.9-.6 1.4-1.6-.9-1.6-6.7 0-6.3.6.1 3.3-3.6 5.9-8.3 5.9-10.3 6.4-10 .9.6-2.2 4.3-4 8.2-4 8.8 0 1.7 4.3 10.6 5.2 10.6.4 0 .8-1 .9-2.3 0-2 .1-2 .8-.3s.9 1.6 3.2-1c1.3-1.6 3.8-3.8 5.5-4.9s5.9-4.6 9.3-7.7l6.1-5.7-4.9-5.8c-2.7-3.2-6.3-7.4-8-9.3l-3-3.5-.1 3.2c0 1.8-.7 5-1.5 7-.8 2.1-2.2 6.9-2.9 10.7-.8 3.8-2 7.4-2.7 8-.8.8-1 .6-.6-.9.4-1.1 1.8-6.5 3.2-12 1.5-5.5 2.9-10.2 3.1-10.4s-.1-1-.7-1.7c-.7-.9-.7-1.9 0-3.3.6-1.1 1.1-3 1.1-4.3 0-1.7.3-1.9.9-.9.7 1.1 1.6 1 4.7-.9l3.9-2.2-3.2 2.7c-1.8 1.4-3.3 3.1-3.3 3.7s2.6 4.2 5.8 8.1c3.1 3.8 6.3 7.7 6.9 8.5.7.9 1.6 1.3 1.9.9.4-.4 1.7-4.8 3-9.9 1.2-5.1 2.2-8.6 2.3-7.8 0 .8-.8 5.1-1.8 9.5-1.1 4.4-1.8 8.2-1.6 8.4.4.3 6.5-3.9 20.2-14.2 4.2-3.1 8-5.7 8.4-5.7.8 0 2.7-4.7 3.1-8 .2-1.4.9-2.4 1.6-2.3 1.5.4 1.5.3-.4-4.3-.9-2.2-2-5.3-2.4-6.9-.4-1.7-1.1-3.9-1.5-5s.4-.2 1.7 1.9c2.5 4.3 3.6 5 5.6 3.8 1.4-.9 0-4.6-4.1-11.2l-2.1-3.4 2.6 1.9c1.4 1.1 3.4 3.5 4.3 5.2 2.2 4 5.3 6.9 6.3 5.8.4-.4.1-1-.5-1.2-.7-.3-1.3-1.3-1.3-2.4s-.6-2.2-1.3-2.5c-.7-.2-3.1-3-5.3-6-2.1-3.1-5-6.7-6.3-8.1-1.3-1.3-2.1-2.6-1.9-2.9.6-.5 5.1 3.6 6.4 5.8 2.2 3.7 10.3 11.7 10.7 10.5.3-.6.6-.2.6 1 .1 2.4 3.8 4 6.7 2.9 1.3-.5 1.4-1.5.9-4.9-.4-2.3-1.4-5.7-2.1-7.6-.8-1.9-1.2-3.6-.9-3.9.2-.3.7.3 1.1 1.2.3.9 1 1.6 1.5 1.6s.2-1.4-.6-3.1c-.9-1.7-1.4-3.3-1.1-3.7.3-.3.6 0 .6.6 0 .7.7 1.2 1.6 1.2 1.4 0 1.6.7 1.1 4-.3 2.2-.2 4 .2 4 .5 0 .8 1.3.9 2.9.1 3.6 7.1 19.1 8.6 19.1.7 0 1.6 1.2 2.2 2.7.8 2.5 1 2.6 2.6.9 2.5-2.4 4.2-9.4 2.8-11.1-.8-.9-.6-1.4.9-1.8 1.1-.2 2.9-2.4 4.1-4.8 2.1-4.4 2.1-4.4 1.4-.9-.3 1.9-1.1 4-1.6 4.7-1.4 1.8.7 2.5 4.4 1.5 1.8-.5 3.9-.7 4.6-.4.7.2 2.3.1 3.6-.2 1.9-.5 2.3-1.2 2.2-3.8-.1-1.8-.7-4.3-1.4-5.5-1.9-3.4-1.4-3.8 1.2-1 2.7 3 6.1 2.7 8.7-.6 1.7-2 1.7-2 2.4.3.8 2.4.4 2.4 12.6.4l3.6-.6-3.6-6.6c-1.9-3.7-4-7.2-4.5-7.8-.6-.7-2.2-2.6-3.6-4.3-2.1-2.6-2.6-2.8-4-1.7-1.4 1.2-7.4 3.6-8.9 3.6-.3 0 1.9-1.3 4.9-2.9 3-1.5 5.6-3.5 5.8-4.2.1-.8-1-2.2-2.6-3.1-1.6-1-4.5-3.5-6.4-5.7l-3.6-3.9-2.1 7.2c-2.3 7.5-4.9 13.8-5 12.1-.1-.6 1-4.3 2.4-8.3 2.7-8 3-10.2 1.5-10.2-.5 0-1 .4-1 .8 0 .5-1.7 1.6-3.7 2.6-6.1 2.8-11.3 6.8-11.3 8.5 0 2.1 9 9.3 10.7 8.7.7-.3 1.3-.1 1.3.4 0 .6.7 1 1.5 1 1.2 0 1.2.3-.2 1.9-1.7 1.7-1.9 1.7-3.3.1-3.2-3.8-12.6-10.6-13.9-10.2-1.1.4-1.2 0-.5-1.4.5-1.1 1.1-9.1 1.4-17.9l.6-16 .2 14.7c.2 13.7.3 14.8 2.1 14.8 1 0 2.4-.7 3.1-1.5s1.8-1.5 2.4-1.6c.6 0 3.6-1.7 6.6-3.7 5.5-3.7 6.1-4.7 12.5-18.7 1.3-2.8 3.1-7.2 4-9.8 2.8-7.8 1.1-7.3-5.3 1.7-2.3 3.3-4.2 5.5-4.2 5 0-.8 10.3-16.1 12.7-18.9 1.9-2.1 4.7-7.5 4.2-7.9-.6-.6-23 1.1-25.2 1.9-.8.4-1.8.2-2.2-.4-.3-.6.2-1.1 1.2-1.1s5.6-.4 10.3-1c4.7-.5 10.5-1 12.9-1.2q4.35-.15 4.8-1.8c.3-.8.9-2.4 1.3-3.5 2.2-5.4 3.9-12.2 5.5-22.1.9-6 2.3-12.9 3-15.4s1.6-5.8 1.9-7.4l.7-2.9-2.5 1.7c-3.1 2-3.4.7-.5-2 3.8-3.4 4-5.7 1.4-14.6-1.4-4.6-2.9-9.2-3.4-10.3s-2.4-6.7-4.3-12.4c-1.8-5.8-3.8-10.6-4.3-10.8-1.2-.4-2.5 2.5-6.9 15.3-3.6 10.5-6.5 17.6-6.5 15.9-.1-.6.6-3 1.5-5.5 1.8-5.2 2.7-10.7 1.5-9.4-.5.5-2 2.7-3.5 4.9-1.4 2.2-2.6 3.5-2.6 2.9s1.8-3.9 4-7.3c6-9.3 10.1-17.3 9.8-19.1-.3-1.4 2.3-4.5 6.3-7.4.8-.6 2.9-3.1 4.6-5.6s4.6-6.1 6.3-8l3.2-3.5-3.4 4.5c-4.4 6-8.8 12.5-8.8 13.2 0 .5 49.3-24 66.3-33 4.3-2.3 8.5-4.2 9.3-4.2s1.4-.6 1.4-1.4 1.1-1.3 2.8-1.3c1.5 0 6.3-1.4 10.7-3.1 13.9-5.4 62.7-22.3 63.2-21.9.4.5-1.8 1.3-31.2 11.7-36.3 12.8-37.8 13.4-38.2 14.7-.3.7 1.2 1.6 3.4 2.1 2.1.5 11.5 2.8 21 5.1l17.2 4.1 4.8-5.2c7.6-8.3 17.8-18.5 16.2-16.3-.7 1.1-4.2 5.1-7.7 9-3.5 3.8-7.3 8.2-8.5 9.9l-2 2.9 6.4-.7c6.3-.7 48.6-6.5 62.3-8.6 3.8-.6 7.5-1.4 8.3-1.9 1.6-.9-1.3-3-20.2-14.6-6-3.7-13.3-8.3-16.2-10.1-2.8-1.9-5.7-3.4-6.3-3.4s-2.3 1.4-3.7 3c-1.4 1.7-2.8 2.9-3 2.6-.3-.3.2-1.3 1.1-2.2 1.8-1.7 1.7-3.9-.1-3.9-.6 0-1.5-.3-1.9-.8-.4-.4 1.6-.7 4.3-.7 3.8 0 5.8.6 7.5 2.1m411 70.9c3.4 1.6 6.8 3 7.3 3 .6 0 3.4 2.3 6.4 5 3 2.8 5 5 4.4 5-.5 0-2-1.2-3.4-2.6-5.1-5.5-6.5-5.6-18.2-2.1-5.9 1.8-10.6 3.5-10.4 3.9.1.4 7.7 8.3 17 17.6 9.2 9.4 16.7 17.5 16.7 18 0 .6-8-7.1-17.7-17-13.8-13.9-18.2-17.8-19.8-17.5-2.7.7-29.8 12.6-30.8 13.6-.5.5 5.8 2.9 14 5.5 8.1 2.6 23.7 7.7 34.7 11.3 20.5 6.7 21.9 6.9 21 1.9-.2-1.1.1-.8.7.9.7 1.6 1.6 3.3 2.1 3.6 1.4.9 22.8-7.6 22.8-9 0-.5-9.9-10.1-24.5-23.6-3-2.8-3.2-3.2-1-1.7 1.7 1.1 8.4 7.1 14.9 13.4 6.6 6.2 13.2 11.8 14.8 12.5 2.8 1.2 4.1 2.7 1.3 1.7-.8-.4-1.5-.3-1.5.1s2.7 5.7 6 11.7c3.4 6.1 5.9 11.2 5.7 11.4s-1.6-2-3.2-4.8c-3.5-6.6-10.6-18.8-11-18.8-.1 0-3.3 1.3-7.1 2.8s-8.8 3.4-11.1 4.2c-2.4.7-4.3 1.6-4.3 1.9 0 1.2 37.9 25.8 42.2 27.3 1.4.6 1.5.2.7-2.5-.5-1.8-.9-4.1-.8-5.2.1-2.9 7 20.3 7.3 24.5.3 4.3 5.3 26.9 7.1 32.5 1 3.2 6.5 27.6 6.5 29.1 0 .2-.4.4-.9.4s-1.3-2.6-1.9-5.8l-.9-5.7-.2 5.2c0 2.8.4 5.5.9 5.8.6.3 1 1.8 1 3.3s.9 6 2 10.1 2 7.9 1.9 8.5c-.1 1.6-4.7-12.5-4.9-14.9l-.1-2-.8 2c-1.1 2.7-4.3 21.6-3.8 22.2.8.7 9.3-3.9 10.5-5.7.8-1.4.5-4.1-1.4-11.6-2.8-11.5-2.6-10.4-1.6-10.4.5 0 1.3 2.1 1.9 4.7l1 4.8.3-7c.3-6.6.3-6.3 1.4 5 1.5 17.3 1.3 29.3-.7 33.5-2.7 5.9-4 15.6-2.6 19.7 1.4 4.5 2 17.4.8 18.9-.7.9 3.7 12.6 19.6 50.9 1.8 4.4 4.7 10.9 6.4 14.4 1.8 3.8 3.1 7.9 3 10 0 2-.3 3-.6 2.3-.2-.6-.9-1.2-1.5-1.2-1.1 0-15.7 10.7-16.9 12.4-.4.5-1.5.5-2.5.1q-1.95-.75-.6-1.2c.6-.3 1.2-.8 1.2-1.3 0-.8-9.5-6.5-13.5-8-2-.8-2.2-.6-1.7 1.2.3 1.4.1 1.9-.6 1.4q-1.05-.6-1.5 3.6c-.2 2.4-.3 0-.2-5.2s-.2-10.6-.6-12c-.5-1.9-.7-1.4-.8 2.5-.1 2.7-.8 7.9-1.6 11.5-1.3 6.1-1.4 6.2-1 1.5.3-2.8.7-8.2.9-12l.5-7-1 5.5c-2.5 13.9-3.4 20.8-3 24l.5 3.5.6-4.5c.7-4.3.7-4.2.8 2 .3 11.2 3.6 32.5 5.4 34.5.5.6.7-4.5.4-12.5-.3-9-.2-12 .4-9 .5 2.5.9 9.8.9 16.4.1 13.2.6 13.6 5.8 5.2 2.4-3.8 2.5-3.9.8-8.2-.9-2.5-1.8-5-1.9-5.7-.2-.6-.8-2.5-1.4-4-.7-1.5-1.5-3.9-1.8-5.3-.3-1.3-1.2-2.8-1.9-3.2s-1.6-3-2-5.9c-.7-5.6-.9-5.4 6.3-6.8 4.6-.9 4 .2-.9 1.5-3.4.9-3.8 1.4-2.9 2.6.9 1 .9 1.4.1 1.4-1.6 0-1.3 3 .9 7l1.9 3.5.2-3.5c.1-2.8.4-2.2 1.4 3 2.1 9.9 2.2 10.2 4.3 15.4 2.1 5.5 2.6 4.2-5.1 13.3l-3.8 4.5 2.2 1.9c1.7 1.5 2 2.2 1.1 3.1s-1.2.8-1.2-.5c0-2.3-3.7-3-9.4-1.7-2.7.6-5.1.9-5.3.6-.2-.2 1.8-.9 4.6-1.6l5-1.2-.6-7.1c-.4-4-1.2-9.2-2-11.7l-1.3-4.5.4 5c.2 2.7.7 5.9 1 7 .4 1.1 0 .7-1-1l-1.7-2.9-4.3 8.4c-4.9 9.6-5 10-2.9 10 .8 0 1.5.4 1.5.9s.8 1.2 1.8 1.4c.9.2.5.3-1 .1-3.8-.5-3.5.8 1 5 4.3 4.2 5.7 4.5 6.6 1.3.9-3.5.7-4.7-.8-4.7-.8 0-1.7-.3-1.9-.8-.3-.4 1-.7 2.9-.7 2.4 0 3.4.5 3.4 1.5 0 .9.4 2 .9 2.5 1.5 1.7 4.1 11.9 3.2 12.8-.5.5-2.5-.3-4.5-1.6-4.3-3-6.3-2.6-9.7 1.9-4.2 5.4-11 12.6-11.6 12.1-.2-.3 1.1-2.1 2.9-3.9 4.2-4.4 11.8-13.5 11.8-14.2 0-.8-8.2-10.1-9.3-10.5-.5-.2-1.9.7-3 2l-1.9 2.4 1.6-2.8c.9-1.5 1.4-3.2 1.1-3.7-.3-.6-.1-1 .4-1 .6 0 1.1-.9 1.1-2.1 0-1.1.4-1.8.9-1.5.4.3 2.7-3.2 4.9-7.7l4.2-8.2-.5-12c-.3-6.6-.8-13.3-1.1-14.9-.6-2.6-.8-2.3-4 4.5-1.8 4.1-3.4 8.2-3.4 9.3 0 1 1.7 3.3 3.7 5.2s3.4 3.6 3.1 3.9-2.3-1.4-4.6-3.8l-4-4.4-6.8 10.1c-3.8 5.5-7.8 11.3-9 12.8s-2.5 4.1-2.9 5.8c-.4 1.6-1.1 3.2-1.6 3.5-.5.4-.6-.1-.3-.9.7-1.9-.7-2.1-2.6-.3-.8.6-.4 0 .9-1.5 1.9-2.2 2.1-3 1.1-5-1.1-2.2-1-2.2.4-.4.9 1.1 1.8 1.8 2 1.5.2-.2 2.5-3.5 5-7.2s6.2-8.9 8-11.6c1.9-2.6 4.3-6.6 5.4-8.7s3.6-7.1 5.6-10.9c3.9-7.5 4.2-9.4 2.4-12.8-1-1.9-.9-2 .4-1 1.2 1.1 1.6 0 2.6-7.7.7-4.9 1-10.9.8-13.2-.4-3.6-.4-3.8.3-1.3l.9 3 .2-3.5c.9-15.1.9-17 0-17-.8 0-1.6 6.3-1.1 9.2 0 .5-.3.8-.8.8s-1.2 1-1.6 2.2c-.6 1.9-.8 2-1.2.6-.2-.9.3-3 1.1-4.7 1.9-3.5 2.1-6.7.5-7.7-.8-.5-.7-.9.1-1.4 1.3-.8-3.9-9-10.9-17l-3-3.5 1 3.5c.6 1.9 1.7 5.7 2.4 8.3s1.9 5.5 2.5 6.3c1.8 2 .8 1.8-9.3-2.2-5-2-10-3.6-11.1-3.6-1.2 0-8.5 1.6-16.4 3.6s-14.5 3.6-14.7 3.6c-.3 0-.5.9-.5 2 0 1.3-.7 2-2 2-2.2 0-2.9-3.5-.8-4.2.9-.3.3-4.6-2.6-16.4-2.1-8.7-4-16.1-4.2-16.3-.4-.4-25 4.2-35.4 6.6-1.4.3-2.3.3-2 0 .3-.4 7.1-2 15-3.8 8-1.7 15.5-3.4 16.8-3.6 1.2-.3 2.2-.8 2.2-1.2 0-.7-4-3.4-13.5-9-3.8-2.3-7.7-4.6-8.5-5.1-3.9-2.5-21.1-12-21.7-12-.4 0-2.3 1.5-4.3 3.2l-3.5 3.3 3.3-3.6c3-3.2 3.1-3.7 1.5-4.3-1.5-.6-1.5-.8-.3-1.6.8-.6 1-1 .4-1-.7 0-1.5-.8-1.9-1.7-.4-1.2.3-.9 2.2 1 1.6 1.5 3.2 2.7 3.6 2.7s2 .8 3.5 1.8c6.7 4.6 40.1 24.1 41.3 24.2.3 0-.1-4.2-.8-9.3-.7-5-1.8-12.5-2.3-16.6-1.4-10.3-1.4-10.3-20.8-18.1-4.5-1.8-8.1-3.4-7.9-3.6.3-.3 13.7 4.7 23.9 8.9 1.5.6 2.9.9 3.2.6.3-.2.8-8 1.2-17.2s1.1-17 1.5-17.3c.5-.3.7.8.4 2.3-.7 4.8-1.6 32.3-1 32.3s40.7-20.9 41.4-21.6c.4-.3-1.1-3.7-6.1-13.9-3.9-7.7-2.1-5.9 2.3 2.4l3.4 6.3.3-32.3c.1-17.7-.1-32.6-.5-33-.5-.3-8.6-2.2-18-4.2-13.2-2.6-17.3-3.1-17.3-2.1 0 1.1 16.5 35.2 19.8 40.9 2.2 3.9 7.2 14.8 6.9 15.1-.4.5-5.2-8.4-17.3-32.6-5.6-11.3-10.3-20.3-10.4-20s-1 13.8-2 30c-.9 16.2-1.7 25.4-1.8 20.5 0-5 .5-18.9 1.2-31s1.1-22.2.9-22.4c-.1-.2-1.4.5-2.9 1.5-1.5 1.1-3.9 2.8-5.5 3.9-1.5 1.1-12.5 9.3-24.4 18.3-11.8 9-24.9 18.8-29.2 21.8-4.2 3.1-9.1 6.7-11 8.1-1.8 1.4-3.3 2.3-3.3 2s4.8-4.1 10.8-8.5c17-12.6 57.5-43.4 61.1-46.5 1.9-1.5 3.2-3 3-3.2-.6-.5-39.7-10.4-47.9-12-3.6-.8-7.7-1.8-9.1-2.4-2.3-.8-3.2-.6-6 2-3.8 3.4-3.8 3.4-8.3 1.2-2.3-1.1-3.7-2.5-4.1-4.3-.8-3.6-5.1-5.7-6.4-3.2-.9 1.7-1 2.2-1.2 4.4 0 .7-.4.4-.8-.7-.8-1.9-.9-1.8-2.1.7-.7 1.6-1.7 2.8-2.3 2.8-.5 0 .3-2.1 1.8-4.6 2.3-4 2.5-4.5.9-4.1-1.1.3-3.7.8-5.9 1.2-4.3.6-3.2-.3 3-2.6l3-1-2.5-2c-1.4-1.1-4.5-3.4-7-5.2-7.7-5.4-32.3-24.4-36-27.7-4.4-4-3.6-3.5 13 8.6 7.4 5.4 14.3 9.7 15.3 9.6.9 0 1.5.4 1.1.9-.7 1.1 1 2.6 7.3 6.4l4.1 2.5 3.4-3.2c1.8-1.7 3.2-3.7 3-4.4-.2-.8.4-1.4 1.3-1.4.8 0 1.5-.5 1.5-1 0-.6.6-1 1.4-1 .7 0 1.9-.7 2.6-1.5.9-1.1 1.6-1.2 2.5-.5 1.7 1.4 2.5.1 2-2.9-.4-2-.3-2.2.3-.7.8 1.9.9 1.9 1.7 0 1.6-3.8 1.6-5.7 0-5-.8.3-1.5.1-1.5-.4 0-.6-.7-1-1.6-1-1.3 0-1.5-.6-1-2.8.4-1.5.8-3.5.9-4.5.1-.9.7-1.7 1.5-1.7.7 0 1-.5.7-1-.9-1.4 3.1-1.2 5.5.2 2.7 1.7 4.2-.4 2.9-3.9-.7-1.9-.5-2.3 1-2.3 2.1 0 3.6-1.6 4.4-4.7.7-3.1-.8-3.4-20.6-3.8-9.5-.2-18-.4-18.9-.4-1-.1-1.8-.5-1.8-1.1s7.8-.7 21.3-.4l21.2.5-3.4-2.8c-1.9-1.5-4.6-3.8-6-5.1l-2.6-2.3 2.5 1.2c1.4.7 4.3 2.7 6.4 4.6 2.2 1.8 4.7 3.3 5.5 3.3 1.8 0 31-12.5 32.3-13.8.5-.5-2.4-1.5-6.4-2.2-7.6-1.4-12.5-2.8-9.8-2.9.8 0 4.6.6 8.4 1.4s7.1 1.3 7.3 1.1-1-1.5-2.7-3c-1.7-1.4-2.7-2.6-2.2-2.6s1.5.7 2.2 1.5c.7.9 2.6 2.5 4.1 3.6l2.7 1.9 11.1-3.2c6.1-1.8 11.1-3.5 11.1-3.8-.1-.3-3.1-1.9-6.8-3.7-3.7-1.7-6.4-3.2-6-3.2.3-.1 3.5 1.2 7 2.9m-598.5 42.7c-1 2.8-1.1 4.6-.3 6.2.8 1.8.7 2.6-.4 3.5-2.6 2.1-5.8 9.1-9.5 20.7-2 6.3-4 12.2-4.6 13.1-.5 1-.9 2.6-.9 3.5 0 1-.7 3.1-1.5 4.6s-1.7 4.5-2.1 6.5c-.5 3.1-.4 3.5.7 2.4.8-.7 1.4-1.6 1.4-2.1 0-.4 2.6-3.6 5.7-7.2 3.1-3.5 9.4-10.7 13.8-15.9 13.4-15.6 19.3-22 19.8-21.5s-5.7 8.2-12.4 15.5c-11.3 12.3-21.1 23.7-24.4 28.4-.8 1.2-2.5 3.2-3.9 4.6l-2.5 2.4 2.5.6c2.3.6 2.3.6-.8 1.8-2.7.9-3.3 1.6-3.3 3.9 0 5-1.7 5.8-2.4 1.1-1.1-7.3-1.3-12.9-.4-11.6.4.7.8 2.4.9 3.8.1 1.7.3 1.9.6.7.2-.9.8-1.7 1.2-1.7s.8-.6.9-1.3c.1-2 2.3-10 3.4-12.7 1.8-4.3 2.5-6.2 6.2-18 2-6.3 4.1-12.3 4.6-13.2s1.3-3.6 1.6-6c.4-2.4 1.6-5.7 2.6-7.3 1-1.7 2.3-4.8 2.9-7 .7-2.2 1.4-3.5 1.6-2.9s-.2 2.9-1 5.1m-54.2 3.7c-3.8 1.8-11.3 5.3-16.5 7.8-5.2 2.4-11.5 5.3-13.9 6.3l-4.4 1.9.7 11.1c.8 14.2 1.6 24.6 2.5 31.5l.7 5.5 4.8-7.5c2.7-4.1 5.3-8 5.9-8.5 1.4-1.5-5.3 10.6-7.6 13.5-2.4 3.2-1.3 3.4 5.8 1 3.2-1.1 6-1.8 6.2-1.6.3.2-2.7 1.5-6.6 2.7-6.2 2-7.5 2.8-9.7 6.4-1.4 2.2-2.2 3.1-1.8 2 1.4-4.1 1.5-9.3.5-20.5-.6-6.3-1.4-15.9-1.7-21.3-.4-5.3-1-9.7-1.5-9.7-.4 0-1.2 1.2-1.7 2.7-1 2.6-1 2.6-.7-1 .1-2.1.7-4.3 1.4-5 .6-.6 1.1-1.5 1.1-1.9 0-.9 3.7-4.8 4.5-4.8.2 0 .2.7-.1 1.5-.8 2.1 3.2.5 22.1-8.4 8.3-3.9 15.5-7 16-7 .6 0-2.1 1.5-6 3.3m-69.8 92.8c1.5 2.9 2.8 6.6 2.8 8.3.2 4.6 2.6 25.8 3.2 27.5.4 1.1.8.8 1.3-1 .7-2.3.8-2.3.9.8.1 1.8-.3 3.1-.7 2.8-.4-.2-.6 1.2-.4 3.2.4 3.4.5 3.5 2 1.6 1.4-1.9 1.5-1.9.7.1-1.9 4.9-1.3 5.7 12.5 15.6 7.4 5.4 14.3 9.9 15.2 10.1 1.3.2 1.5.7.8 1.8-.8 1.3-1.1 1.3-2.2-.2-.7-1-4.1-3.7-7.5-6-3.4-2.4-9.4-6.5-13.3-9.2-5.4-3.8-7.4-4.7-8-3.7-.5 1-1 .4-1.5-1.7-.3-1.7-1.3-3.6-2.1-4.3-.8-.6-3.8-4.1-6.6-7.8-6.3-8-4.3-6.7 2.7 1.8 4.9 5.9 7.3 7.7 6.1 4.5-.3-.9-.9-4.4-1.1-7.8-.9-10.6-2.6-24-3.2-25.6-.3-.8-.7-2.7-.9-4.3-.2-1.5-1-3.8-1.8-5-1.6-2.6-3-6.7-2.2-6.7.3 0 1.8 2.4 3.3 5.2m445.7 72.4c2.3 4.7 2.7 6.6 2.4 12.3l-.3 6.6 2.9.3c1.6.2 3.2-.2 3.7-1 .7-1 .9-1 .9-.1 0 .7 1.2 1.4 2.8 1.4 2.3.2 2.4.2.5.6-2 .4-2.3 1.1-2.5 5.1l-.1 4.7-.4-4.1c-.3-3.4-.8-4.3-2.7-4.6-1.3-.3-3 .1-3.9.7-1.3 1-1.4 1.8-.6 4.9.5 2 1.4 3.4 2 3.1.5-.4.9-.1.9.4 0 .6-.4 1.1-1 1.1-1.6 0-1.2 1.4 1.5 4.3 1.4 1.5 2.1 2.7 1.4 2.7-.6 0-2.2-1.1-3.5-2.5s-2.6-2.5-3-2.5-2.4-1.6-4.6-3.6c-2.2-1.9-5.9-4.4-8.3-5.4-7.3-3.1-23.6-8.1-24.6-7.5-1.2.8-4.2-2.2-3.4-3.5.3-.5 1.2-1 1.9-1s1.9-1.1 2.6-2.4c2-3.8 3.7-3.8 6.5-.2 3 4 3.1 4.6.5 3.9-1.1-.3-2-.9-2-1.4 0-1-3.6-.7-4.6.4-.4.4 0 .7 1 .7.9 0 1.5.4 1.2.9s1.3 1.5 3.7 2.3c10.4 3.6 17.3 5.8 18 5.8.4 0 .7-1.6.7-3.5s.5-5.4 1.2-7.9c1-3.9.9-4.7-.9-7.9-1.9-3.1-2-3.7-.7-5.5.8-1.2 2.7-2.3 4.2-2.5s3-.5 3.3-.6c.3 0 1.8 2.4 3.3 5.5m-452 5.3c4.4 2.8 6.6 2.7 6.6-.2 0-1.2.5-2.9 1.1-3.7.9-1.4.8.7-.5 8.4 0 .4 2.1 1.5 4.8 2.3 2.6.8 4.6 1.7 4.3 2s-2 0-3.8-.6c-5.3-1.8-5.5-1.6-5.6 5.6-.1 5.9-3 17.7-3.2 13-.1-2.6-3.1-2.1-3.2.5-.1 2.1-.2 2.1-.6.3-.3-1.1-1.4-3.2-2.4-4.7-1.1-1.4-1.9-3.3-1.9-4.2s-.4-1.6-1-1.6c-1.4 0-1.3-6.7.1-7.6.8-.5 1-3 .6-7.8-.4-4.7-.3-6.5.4-5.4.5.9 2.4 2.6 4.3 3.7m459.4 44.5c-2.9 2.4-7.3 6.5-9.7 9s-4.6 4.6-5 4.6-1.5 1.5-2.5 3.2c-1.1 1.8-3.4 4.8-5.3 6.6-1.8 1.8-3.3 4-3.3 4.8s-1.1 3.2-2.5 5.4c-2.4 3.8-2.4 4-.5 4 1.1 0 3.9-.8 6.2-1.9 2.4-1 5.9-2.6 7.8-3.4 2.5-1.1 2.9-1.6 1.5-1.7-1.1 0-2.7-.5-3.5-1.1-1.2-.8-1-1 1-.8 5.9.3 8.2-.2 10.4-2.6 1.3-1.4 2.8-2.5 3.4-2.5s1.6-.9 2.2-2.1c.7-1.1 1.4-1.8 1.7-1.5.8.7-4.4 8.6-5.6 8.6-1.7 0-9.1 8-9.7 10.5-.3 1.4-1.2 2.5-2 2.5s-1.4.6-1.4 1.3-1.7 2.1-3.7 3.2c-2.1 1.1-4.9 3.2-6.4 4.7-1.4 1.5-4.1 3.4-6 4.3-1.9.8-5.2 2.8-7.4 4.5-2.2 1.6-6.6 4.7-9.7 6.7-3.1 2.1-5.7 4.3-5.8 5 0 2.2-1.7 2.2-7.1.3-2.9-1.1-5.6-2-5.8-2s-.2-.2.1-.5 2.4.2 4.8 1c5.3 1.9 4.7 2 6.4-1.4 1-1.9 1.2-3.1.5-3.8s-.6-1.2.5-1.6c1.8-.7 3.1 2.4 1.4 3.5-1 .6-.9.8.4.8.9 0 2.1-.6 2.5-1.3s3.5-3 6.8-5c3.3-2.1 8.1-5.3 10.8-7.2l4.7-3.4-2.2-2c-1.2-1.2-1.6-2.1-.9-2.1s1.9.7 2.7 1.5c1.4 1.3 2 1.1 5.5-1.7 2.6-2.1 3.9-3.9 3.9-5.5 0-1.7.5-2.3 1.7-2.1 1 .2 1.9-.4 2.1-1.4.3-1.5-.1-1.6-3-.7-1.8.6-4.3 1.3-5.5 1.6-1.3.3-2.3.9-2.3 1.4s-.9.9-2 .9c-1.2 0-3 .9-4.2 2-3 2.7-3.3 2.6-4.8-2-.7-2.2-1.7-4-2.1-4s-1.4-.2-2.2-.5c-1.4-.6-7.4 6.1-6.3 7.2.3.3 1.9 0 3.5-.6 1.6-.7 4-1.1 5.3-.9 1.7.3.7.9-3.7 2.1-3.3 1-6.7 2.1-7.5 2.4-.8.4-1.9.8-2.5.8-.5.1-2.1.7-3.5 1.2-4.1 1.7-20.3 7.4-22.5 7.9-3.2.8 9.3-5.1 17.3-8 3.9-1.5 7.2-3.2 7.2-3.7 0-1.5-8.8-4.9-12.6-4.9-1.9 0-3.4-.4-3.4-.9s-1.3-1.2-3-1.6c-2.7-.6-4.4-3.5-2-3.5.5 0 2.5-1.3 4.3-3 2.8-2.4 3.7-2.7 4.6-1.7.6.8.8 1.7.4 2-.3.4-.1.7.6.7.6 0 1.1-.6 1-1.3-.3-2.8.2-3.7 2.6-3.7 1.9 0 2.3-.4 1.8-1.6-.5-1.5 0-1.6 4-1.2 3.4.4 4.7.2 4.7-.7 0-1.5 4.3-4.5 6.6-4.5 1.1 0 1.4-.5 1-1.6s-.2-1.5.8-1.1c.7.3 3.3-.8 5.7-2.4 5.6-3.7 6.9-3.7 3.3 0-8 8.2-7.9 8-6.7 9.9.8 1.2 2.2 1.6 5.3 1.4 4.4-.3 10-2.6 10-4.1 0-.5.8-.7 1.9-.4 1.2.3 2.9-.8 5.5-3.8 2-2.3 3.6-4.6 3.6-5s.9-1.1 2-1.4 2-1.3 2-2c0-.8.6-1.2 1.3-.9 1.4.5 3.9-1.7 3.6-3.2-.1-.5 0-2.5.1-4.4.2-2.5.4-2.9.7-1.3.6 2.9 1.6 2.9 6.1-.2 5.8-4 5.9-2.9 0 1.9m499.2 286c0 1.3 2.7 3.1 4.2 2.8.7-.2 3.8 7.2 3.8 9.2 0 .8.7 1.7 1.6 2 .8.3 1.2.2.9-.4s.4-4.1 1.6-8c1.7-5.2 2.7-7 4.1-7 2.2 0 2.3-.6-.8 7.1-4.2 10.6-5.5 16.6-4.2 19.7.6 1.6 1.2 2.2 1.5 1.4.3-.7-.1-1.9-.7-2.8-.7-.8-1-1.7-.7-2.1.4-.3.9.2 1.3 1.1.3.9 1 1.4 1.4 1.1.5-.3.6.4.3 1.5-.9 3.3-2.3 3.4-5 .6-1.3-1.5-2.8-2.4-3.3-2.1s-1.5-1.6-2.3-4.2c-.8-2.7-2.8-8.5-4.5-13.1-2.9-7.7-2.9-8.2-1.1-8.2 1 0 1.9.6 1.9 1.4m22.8 10.3c-.6.7-.8 2-.6 2.9.2 1.4.8 1.3 3.8-1.2 1.9-1.6 2.9-2.1 2.2-1.3-1 1.4-1 1.8.4 2.3 2.5 1 4.6.7 3.9-.5-.4-.6-1.3-.8-2-.5-.7.2-1.2-.2-1.1-1.2 0-.9-.8-1.8-1.9-2-4.4-.7-5.1-1.3-3.2-2.3 2-1.1 7.7-.3 7.7 1.2 0 .5 1.1 1.1 2.5 1.5 1.3.3 2.9 1.2 3.6 2 .9 1.1 1.6.9 3.9-1.6 3.9-4.1 7.1-4.7 12.2-2 5.4 2.7 8.8 5.9 8.7 7.9 0 1.1-.3 1-.9-.4-.8-2.2-4-5.3-4-4 0 .5.6 1.6 1.4 2.4.7.9 1.6 2.7 1.9 4.1.6 2.3.5 2.2-.5-.3-1.4-3.2-2.8-3.5-2.8-.6 0 1.1-1.3 3.4-3 5.1-3.6 3.6-3.7 3.8-.6 3.8 1.5 0 3.3-1.1 4.5-2.6s2.1-2.3 2.1-1.8c0 1.8-4.5 5.4-6.7 5.4-1.5 0-2.2.4-1.7 1.1 1.1 1.8-3.6-1-8.6-5-3.8-3.1-5-3.6-7.5-3-1.6.4-2.6.7-2.1.8.4 0-.2 1-1.5 2-3.3 2.6-1.5 4 2.4 1.8l3.2-1.7-2.5 2.1c-1.7 1.5-3.2 1.9-5.3 1.5q-2.85-.6-2.1.6c.9 1.4-.7.5-5.4-3-2.2-1.7-3.1-3-2.7-4.1.3-.8.3-1.2-.1-.9-.8.8-3.4-1.6-3.4-3.2 0-.6 1-3.2 2.2-5.9 2.1-4.4 2.4-4.6 3.4-2.7.7 1.3.7 2.6.2 3.3"/><path d="M476 86.2c.9.7 1.4 2.1 1.2 3.1-.2.9.2 3.3.8 5.3.7 1.9 1.4 4.9 1.7 6.7s.9 3.8 1.5 4.4c.6.7 1.1 2.6 1.3 4.2.3 4.5 2.6 9.1 4.4 9.1.9 0 2.8.7 4.4 1.5 2.6 1.3 2.8 1.2 4.3-1 .9-1.4 1.4-3.1 1.1-3.8-.9-2.3.9-3.9 4.4-4.2 2.3-.2 3.5-.9 4.1-2.4.4-1.2 1.6-2.4 2.5-2.8 1.9-.7 4.4-2.9 4.3-3.8-.1-2.5.1-2.8 1.1-1.8.8.8 1.6.6 3-.8 2.3-2.3 2.4-3 .2-2.2-1 .4-1.4.2-1-.4.4-.7-1.9-1.7-6.1-2.8-3.7-1-10.5-2.8-15.2-4.1-4.7-1.2-9.8-2.4-11.5-2.6-1.6-.2-4.1-1-5.5-1.6-2.1-1.1-2.2-1.1-1 0M593 87.6c-5.2.7-12.2 1.8-15.5 2.3s-14.5 2.1-25 3.6c-10.4 1.4-20.3 3-22 3.4-3 .7-3 .7 3 3.5 13.4 6.3 28.2 11.8 31.3 11.7 1.7 0 3.2.3 3.2.8 0 1.3 7.4-1.5 7.9-3 .2-.8.8-1.6 1.2-2 .5-.3.3-2-.4-3.8-1.1-2.9-1-3.4.8-4.7 3.6-2.6 6.5-2.8 8.6-.6 2.1 2.3 2.5 4.7.9 5.7-.5.3-1 1.1-1 1.8 0 .6 2.8-1.9 6.3-5.7 6.2-6.9 11.2-13.5 10.5-14-.1-.2-4.6.3-9.8 1M603.9 90.1c-1.3 1.6-3.4 4.2-4.7 5.7s-3.4 4.3-4.6 6.2c-1.3 1.9-3.9 5.3-5.9 7.5-1.9 2.2-3.3 4.3-3.1 4.7.3.5-.2.8-1 .8-1.9 0-2.2 2.6-.3 2.8.6.1 5.6.2 10.9.3 5.4.1 9.5.6 9.2 1-.3.5.7 1 2.3 1.1 6.5.4 27.5.8 36.3.7 5.2-.1 11.2-.1 13.3-.1 2.2 0 4.6.7 5.7 1.7 1.6 1.4 2.3 1.5 3.4.6.8-.7 2-1 2.6-.6.5.3 1 .3 1-.1 0-1.1-4-4.3-6.4-5-1.1-.4-3.3-1.5-4.8-2.6-1.6-1.1-3.2-1.6-3.8-1.3-.5.3-1 0-1-.7-.1-.7-1.5-2-3.3-2.9s-8.9-4.8-16-8.7c-7-4-12.9-7.2-13.1-7.2s-3-1.6-6.2-3.5-6.3-3.5-7-3.5c-.6 0-2.2 1.4-3.5 3.1M465 89c-1.4.4-9.5 4.4-18 8.9-8.5 4.4-23.7 12.2-33.8 17.2-10 5.1-18.5 9.6-18.8 10-.7 1.2 7.1 1 24.8-.4l14.8-1.3 9.1-9.4c5-5.2 12.7-13.2 17.2-17.8 4.5-4.5 7.9-8.2 7.7-8.1-.3 0-1.6.4-3 .9M404.2 127.3l-12.4.9.5 2.7c.3 1.4 2.6 8.4 5.2 15.6 2.5 7.1 5.4 15.4 6.3 18.4l1.7 5.3 5.5-8.8c3-4.9 5.8-9.6 6.2-10.5.3-.9 2.2-4 4.1-7 3.2-5.1 9.7-16.8 9.7-17.5 0-.6-13.6-.2-26.8.9M687.1 132.7c.7 1 1.6 2 1.9 2.3s1.8 2.5 3.2 5 6.2 9.3 10.5 15.1c4.4 5.9 9.4 13.2 11.2 16.3s3.6 5.6 4.1 5.6c1.6 0 14.1-15.2 13.8-16.7-.3-1.4-5.2-4.7-27.3-18.1-17.5-10.7-19-11.5-17.4-9.5M683.8 134.6c-.8 3.3 5.5 72.1 6.8 73.3.3.3 2-1.2 3.7-3.4 2.7-3.3 17.4-20 21.4-24.3.9-1-.1-3-4.8-9.5-3.3-4.5-9.3-13.2-13.4-19.3s-8.3-11.9-9.3-13c-1-1-2.3-2.8-2.9-3.8-1-1.8-1-1.8-1.5 0M667 145.3c-2.5 2.8-5.4 6-6.5 7.2-1.1 1.3-4.6 5.1-7.7 8.6-10.9 12.2-11.8 13.3-11.8 14.1 0 .4-.6.8-1.2.8-1.9 0-7 6.8-6.2 8.2.4.6.3.8-.4.4-1.3-.8-5.6 4.4-4.5 5.5.4.4 2.4 1.2 4.3 1.7 1.9.6 8 2.6 13.5 4.6 9.1 3.1 20.4 6.6 26.4 7.9l2.3.6-2.3-2.6c-2.3-2.5-2.3-2.5-.2-1.4 1.2.6 3.7 1.1 5.5 1.1s4 .4 4.8 1c1.1.7.8 1.1-1.5 2.1-2.8 1-2.8 1.2-1 1.9 1.1.5 2.9.9 4 .9 2 .1 2-.1.8-19.2-1.3-20-2.7-32.8-4.5-41-.9-4.3-1.3-4.7-3.8-4.7-1.6 0-3.5-.6-4.2-1.3-1.1-1.2-2.1-.6-5.8 3.6M727.5 169.2c-8.6 10.8-8 9.3-5.5 14.1 2.7 5.2 11.9 19.5 14.2 22.1 1.9 2.1 2.4 4.1.9 3.1-1.4-.8-13.6-18.5-16.1-23.3-1.2-2.3-2.6-4.2-3-4.2-.5 0-1.8 1.2-3 2.7-1.2 1.6-5.1 6.1-8.8 10.1-8.4 9.4-13.6 16.1-13 16.7.3.3 6.5 1.7 13.9 3.1s18.5 3.6 24.7 4.9c10.8 2.2 11.2 2.2 11.2.4 0-1-.9-2.8-2-3.9s-2-2.8-2-3.8c0-1.5.2-1.5 1.1-.2 1.2 1.8 1-7.9-.3-12.5-1.2-4.2-4.5-21-5.3-26.9-.7-5.5-1.4-7.6-2.4-7.6-.3.1-2.4 2.4-4.6 5.2M412.8 186.4c-1.4 1-1.7 2.5-1.4 6.7.5 7.2.4 6.9 2.1 6.9.9 0 1.5.9 1.5 2.5s-.6 2.5-1.5 2.5c-1.7 0-2.1 5.6-.5 8 .8 1.2 1 1.1 1-.8 0-1.3.6-2.2 1.5-2.2.8 0 1.5-.5 1.5-1.1s.7-.9 1.5-.5c1 .4 1.5-.1 1.6-1.7 0-2.1.1-2.1.9-.2.6 1.4.9.3 1.1-4 .3-3.8.8-5.9 1.5-5.8 1.5.3 2.8-6.1 1.4-6.5-.5-.2-1-1-1-1.7 0-.8-1.7-1.9-3.7-2.4-4.8-1.4-5.4-1.3-7.5.3M404.5 191.2c-.4 1.8-.8 4-.9 4.8-.2.8-.6 3.3-1.1 5.5-.4 2.2-.9 5.5-1.1 7.4-.1 1.9-1 3.8-1.8 4.3-.9.5-1.6 1.8-1.6 2.9s-.4 2.8-.9 3.7-1.1 3.1-1.4 4.9c-.3 1.7-.8 3.7-1.2 4.3-.5.9-.1 1 1.6.5 2.7-.9 10.2-5.6 10.7-6.8.2-.4 1.1-.7 2-.7 1.5 0 1.5-.2.2-1-.9-.6-1-1-.3-1 .8 0 .9-.8.3-2.8-.4-1.5-1.1-8.3-1.4-15.2-.6-12.7-1.7-16.7-3.1-10.8"/><path d="M593.5 196c-13.7 2.2-29.9 4.6-36 5.5-22.2 3.3-34.9 5.6-36.8 6.7-2 1-1.9 1.1 1.1 2.7 1.8.9 3.9 2.6 4.7 3.8 1.9 2.8 21.3 18.5 32.5 26.4 2.5 1.8 9.5 7.3 15.5 12.4 11.8 9.7 31.4 25 35.5 27.7 1.4.9 4.3 3.3 6.5 5.3 7.2 6.7-.7 1.1-20.4-14.3-10.2-8.1-24-18.8-30.6-23.9s-15.7-12.4-20.3-16.1c-17-13.8-25-19.4-26.3-18.6-.7.4-.9 10.9-.7 29.1.3 22.8.7 28.6 1.8 29.3 1 .6 1.1 1.2.3 2.2-1.3 1.6-1.6 7.3-1.4 33.5.1 17.6.3 20.3 1.6 20.3 1.4 0 47.1-15.2 81.5-27.1 6.3-2.2 13.7-4.7 16.3-5.6 3.3-1.1 4.5-1.9 3.7-2.7-.5-.5-1-1.5-1-2.1 0-.5.4-.3 1 .5.8 1.3 1 1.3 1.4 0 .3-.8.7-3.8.9-6.5.3-4.3.4-4.1.5 1.7.1 3.8.3 6.8.5 6.8.1.1 5.6.3 12.2.6s14.4.9 17.4 1.4c2.9.4 9.3.8 14.3.9 10.8.3 10.8 1.9.4-19.1-3.9-8.1-6.7-14.3-6.1-13.8s4.1 6.9 7.8 14.2 7.8 14.6 9.3 16.3l2.6 3 3.1-3.6c1.8-1.9 6.6-7.5 10.7-12.4 4.1-4.8 9.3-10.9 11.5-13.5 13.7-16.1 22.9-27.3 26.8-32.5 2.4-3.3 5.4-6.9 6.5-7.9 1.2-1.1 2.2-2.4 2.2-3.1s-7.1-2.6-18.7-4.9c-37.1-7.2-35.3-7.2-35.8-1.3-.2 1.8-1 10.4-1.9 19.2-.8 8.8-2.1 22.5-2.7 30.5s-1.5 16.3-2 18.5c-1 4.6-1 5.1 2.1-34 1.1-13.8 2.4-28.3 2.8-32.3l.8-7.2-17-5.5c-9.4-3-23.2-7.4-30.6-9.9-7.5-2.4-13.7-3.9-13.9-3.4-.3.9 1.7 5.7 3 6.8.3.3 1.1 2.1 1.9 4 2.3 6 8 15.8 9.5 16.4.8.3 1.5 1.4 1.5 2.4s1.9 5.6 4.2 10.3c5.1 10.1 5.5 11 3.5 8.4-1.8-2.5-10-17.3-15.7-28.5-4.3-8.4-9-15.9-10-16-.3 0-.4 2.1-.3 4.7.2 4.1.1 4.4-.6 1.8-.5-1.7-.9-4.9-1-7.3-.1-3.7-.4-4.2-2.3-4.1-1.3 0-13.5 1.8-27.3 3.9M510.9 208.5c-.1.5-.1 1.3 0 1.7 0 .5-.4.8-1 .8-.5 0-.8.4-.5.9.8 1.2-2 2.2-3.9 1.5-.8-.4-1.5-1.5-1.5-2.5 0-1.5-.6-1.8-2.7-1.4-1.6.2-7.3.7-12.8 1-16.7.9-21.4 1.8-21.4 4.3 0 .9-.3 18.1-.7 38.1-.4 24.6-.3 36.1.4 35.7.6-.3 1.2.2 1.4 1.1.2 1.3.9.7 2.4-2.2 2.5-4.9 6.1-11.3 12.6-22.4 2.9-4.9 4.8-9.2 4.5-10.3-.3-1-.1-2.1.4-2.4s.7-1 .4-1.5.1-.6 1-.3c2 .8 3.9-1.4 7.1-8.6 1.4-3 4-7.8 5.7-10.5 5-7.8 5.4-8.7 8.3-14.4 2-4.2 2.4-5.8 1.6-7.5-.6-1.1-1.1-1.7-1.3-1.1M513.9 216.8c-4.1 5-8.9 13.2-18.9 32.7-2.5 4.9-6.8 12.4-9.5 16.5s-7.6 12.7-10.8 19-6.4 12.1-7 12.9c-.8 1-.9 1.5-.1 1.8.6.2 3.5 1.9 6.5 3.9 3 1.9 8.1 4.9 11.4 6.6s7.2 3.9 8.6 4.9 7 4.3 12.4 7.4c7.4 4.2 10.1 5.2 10.7 4.3.4-.7.6-5.6.3-10.8s-.7-29.9-.9-54.8-.6-45.5-.8-45.7c-.2-.3-1.1.3-1.9 1.3M460.6 224.6c-.8 1.6-1.5 2.3-1.6 1.6 0-1.7-2-1.5-2 .2 0 .7-.7 2-1.6 2.7-1.4 1.2-1.4 1.4.3 2 1.6.7 1.6.8-.3.8-1.9.1-2.1.5-1.6 5.2.3 3.2 1.2 5.9 2.3 7s1.9 2.2 1.9 2.6c0 1.1 4.8 3.2 5.5 2.5.9-.9.5-24.6-.4-26.1-.7-1.1-1.2-.7-2.5 1.5M404.9 227.9c-2 .9-4.4 2.2-5.2 3-.9.7-2.1 1-2.6.7-.6-.4-1.7.4-2.6 1.8-1.4 2.1-1.5 3.5-.4 10.5 1 7.5 2.9 12 2.9 7.2 0-1.2.5-2.1 1.1-2.1.5 0 .7.5.3 1.2s-.3.8.4.4c.6-.4.9-1.3.6-2s.2-1.9 1.1-2.6c.8-.7 1.5-1.8 1.5-2.4 0-.7.9-3 2-5.3 1.6-3.4 5.1-12.5 4.6-12.2 0 0-1.7.8-3.7 1.8M386.6 246.9c-1.4 3.2-3.2 7.6-4 9.7-.7 2.2-3 7.2-5 11.3s-3.4 7.7-3 8c.3.3.8.1 1.2-.5s1.8-1.7 3.2-2.4c1.3-.7 5.2-3.5 8.7-6.2 4.9-3.9 6.3-5.6 6.3-7.6 0-3.8-3.2-18.2-4-18.2-.4 0-1.9 2.6-3.4 5.9M435.5 248.5c-6 2.6-25.1 10.3-30.2 12.1-5.6 2-6.7 3.8-3 5 3.1 1 27.7 13.1 43.6 21.4 7.4 3.9 13.6 6.8 14 6.5.3-.3 0-.9-.7-1.4-.7-.4-1.2-1.8-1.1-3.2.1-3.5-.8-6.7-3.5-12.3-3.1-6.4-9.1-20.9-10.6-25.9-1.3-4.1-3.2-4.6-8.5-2.2M384 271.1c-4.7 3.3-8.9 6.7-9.3 7.5-.6 1.1.7 3 4.8 7 3 3 6 5.2 6.5 4.9s1.9-3.8 3.1-7.8c1.1-4 2.9-9.6 4-12.5 1.3-3.7 1.5-5.2.6-5.1-.6 0-5 2.7-9.7 6"/><path d="M625.5 296c-2.2.4-7.5 4.8-19 16-8.8 8.5-19.8 19.2-24.5 23.7-4.6 4.5-8.2 8.4-7.9 8.7.2.3 3.8-.4 7.9-1.4 4.1-1.1 13.6-3.1 21-4.5 7.4-1.5 16.2-3.2 19.5-3.9 6.8-1.4 6.5-.7 5.2-14.1l-.7-7 2 8.9c1.1 4.9 2.2 9.1 2.4 9.4 1.1 1 21-12.2 33.4-22 3.6-2.9 8.2-6.3 10.1-7.5 2.4-1.5 3-2.4 2-2.7-1.7-.6-33-3.5-41.9-3.8-3.6-.2-7.9-.1-9.5.2M388 297c0 1 3 5.4 9.3 13.7 1.5 1.9 2.7 3.9 2.7 4.4 0 .4 1.7 1.3 3.7 2 3.5 1.1 3.8 1 6-1.6l2.4-2.8-.5 4.2c-.5 4.3 1 6.1 5.1 6.1 1 0 2.9.6 4.3 1.3 1.4.8 4 1.9 5.8 2.5l3.3 1.1-4.1-7.6c-8.7-15.9-11.2-18.8-17.2-19.8-2.4-.4-6.8-1.3-9.8-2-10.5-2.5-11-2.6-11-1.5M605 301.6c-6.9 2.4-28 9.6-47 16s-34.9 11.9-35.4 12.2 0 1.2 1 1.9c1.7 1.4 1.6 1.4-1.3.8-3.6-.7-3.6-.8-4.8 12.5-.9 9.9-1.5 14.3-2 16.7-.3 1.3-.8 4.8-1.1 7.8-.6 5.1-.5 5.5 1.2 4.8 3.7-1.4 13.4-8 12.7-8.6-.3-.4.2-.7 1.1-.7 1.7 0 9.5-3.8 10.6-5.1.3-.4 1.5-.9 2.8-1.3 1.2-.4 1.9-1.2 1.6-1.8-.4-.7-.2-.8.4-.4.6.3 5.3-1.5 10.4-4.1 11.1-5.6 10.6-5.2 8.8-6.3-1.1-.7-.5-1 2-1 3.1 0 4.9-1.3 14.5-10.2 6.1-5.7 16.2-15.5 22.6-21.8s13-12.5 14.5-13.7c4.3-3.2 1.5-2.7-12.6 2.3M454.9 300.4c-.4.4-24 1.5-32.2 1.6-4.5 0-4.8.1-4.2 2.2 1.1 3.6 12.3 20.8 16.6 25.5 2.2 2.4 3.9 4.9 3.9 5.8 0 .8.5 1.5 1.1 1.5.5 0 .7-.5.4-1-.3-.6-.2-1 .3-1s2.9-2.6 5.3-5.8c2.4-3.1 4.7-6.2 5.1-6.7.5-.6-1.1 3-3.6 7.8-5.8 11.3-5.3 11.9 12.5 15.2 13.1 2.3 12.7 2.4 12.1-3.6-.6-6.5 1.3-5.9 2.2.6.4 2.5.9 4.5 1.2 4.5 2.2 0 38.4-16.1 38.4-17.1 0-.4-1.7-1.7-3.7-3-2.1-1.2-8.3-5-13.8-8.4-5.5-3.3-11.1-6.6-12.5-7.3s-5.2-2.9-8.5-4.9c-3.3-1.9-7.2-3.6-8.7-3.7-1.5 0-3-.7-3.3-1.4-.4-1.1-7.5-1.8-8.6-.8M503.5 337.9c-14.5 6.2-17.2 7.7-18.5 10.1-.6 1.1-1.8 2-2.8 1.9-1.4 0-1.4-.2.3-.9 1.1-.5 1.5-.9.8-.9-1.9-.1-4.3 1.1-4.3 2.2 0 .6.3.8.6.4.4-.3 2.1.5 3.9 1.8 1.7 1.4 3.5 2.2 4 1.7.5-.4.5-.1.1.6-.5.7.2 1.5 1.7 2.1 1.3.5 2.7 1.6 3 2.5.4.9 1.3 1.3 2.2 1 1-.4 1.3-.2 1 .7-.3.8.5 2 1.7 2.8 2.1 1.3 2.2 1.3.9-.2-1-1.3-1-1.7-.1-1.7.6 0 1.4.9 1.7 2s.9 2 1.4 2c.4 0 2.3 1.3 4.1 3 1.8 1.6 3.8 3 4.4 3 1 0 2.2-5.7 3-14.5.1-1.1.4-3.4.8-5 .3-1.7.8-5.5 1.1-8.5s.8-6.7 1.1-8.3c.3-1.5.2-2.7-.3-2.6-.4.1-5.7 2.2-11.8 4.8M443 346.1c0 .6.5 2 1.1 3.1.9 1.6.8 2.2-.2 2.9-.9.5.3.8 3 .6 3-.1 4.6.2 4.9 1.2.3.9-.1 1.1-1.7.6-1.1-.3-2.9-.4-4 0-1.6.5-1.8 1.3-1.4 6.8.4 5.2.2 6.6-1.4 8.4-1.1 1.3-2.3 2-2.7 1.6-.3-.3-.6.1-.6 1 0 1.1.9 1.7 2.3 1.8 1.2.1 2.9.2 3.7.3 1.4.1 3.6-1.7 13.5-10.9 2.3-2.2 6.4-6 9-8.4 6.2-5.8 5.2-6.6-9.8-8.6-14-1.8-15.7-1.8-15.7-.4M474.4 354.2c-.4 1.3-.8 5.9-1 10.3-.4 11.9-.3 11.3-1.9 9.1-1.3-1.7-1.4-1.6-2 1.6-.4 1.8-.5 3.8-.4 4.3.1.6-.3 2.3-1 4-.7 1.6-1.5 4.4-1.7 6.1s-1.1 4.7-1.9 6.7c-3.1 7.5-2.4 7.4 17.8-4 8.7-4.8 17-9.4 18.5-10.2s2.9-1.7 3.2-2.1 1.6-1.1 2.9-1.5c1.6-.5 2-1 1.1-1.5-.6-.4-1.2-1.1-1.2-1.6 0-1.6-9.1-7.4-11.5-7.4-1.3 0-2.3-.5-2.3-1.1 0-2.3-14.9-14.9-17.6-14.9-.1 0-.6 1-1 2.2M309.6 353.9c-.3.4-6.6 5-14.1 10.1-7.4 5.1-13.3 9.5-13.1 9.7 1 1 36.3 9.2 37.7 8.8 1.4-.5 1.5-1.1.4-5.8-.7-2.8-2-7-3-9.2-1.7-3.9-2.1-4.8-4.5-11.3-1.2-3.2-2.4-4-3.4-2.3M414.5 392c-2.7.3-6.2 1.2-7.7 2-2.6 1.2-2.8 1.8-2.8 7 0 6.5.9 12 2 12s22-20 22-21.1c0-1-5.9-1-13.5.1M437.3 393.7c-.7.2-1.3 1.1-1.3 1.9s-.4 1.4-.8 1.4c-1.5 0-6.8 13.8-5.7 14.9.3.2 4.4-.8 9.3-2.4 4.8-1.5 10.3-3.1 12.2-3.5s2.7-.8 1.8-.9c-1 0-1.7-.4-1.5-.9.1-.4-2-2.9-4.7-5.6-4.4-4.3-5.1-4.6-5.7-3-.7 1.7-.8 1.7-.8-.4-.1-2.2-.5-2.5-2.8-1.5M426.5 397.2c-2.2 1.8-7.1 6.3-10.9 10-3.8 3.8-7.4 6.8-8 6.8-.7 0-.6.4.2.8 1.1.8 5.5.3 15.1-1.6 2.7-.6 3.6-1.3 4.3-3.7 1-3.5 3.6-15.5 3.4-15.5-.1 0-1.9 1.5-4.1 3.2M314.1 452.7l-3.4.4 4.8 3.5c2.7 1.9 6.3 3.9 8.2 4.6 1.8.7 3.3 1.6 3.3 2 0 1.4 3.7.9 5-.7.7-.8 1.8-1.5 2.4-1.5 2 0 13.6-5.9 13.6-7 0-.5-1.1-1-2.5-1-1.5 0-2.5.6-2.5 1.4 0 2.3-3.1 2.9-3.7.7-.6-2.5-6.3-3.4-7.9-1.3-1 1.4-1.4 1.3-3.5-.1-2.3-1.6-6.1-1.9-13.8-1M349.4 480.6c-.3 1-3.7 8.2-7.5 15.9s-6.9 14.7-6.9 15.6.8 2.3 1.8 3c1.1.8 4.7 3.5 8.2 6.1 3.4 2.7 6.6 4.8 7.1 4.8 1.3 0 1.1-4.7-.2-5.5-.6-.4-.7-1.4-.4-2.4 1.1-2.4.6-37.4-.5-38.5-.6-.6-1.2-.2-1.6 1M367.3 499.8c-1.2 4.2-3.6 11.5-5.2 16.2-3.8 10.4-3.9 11.7-.9 9.6 3.3-2.4 4.1-1.9 1.6.9-1.2 1.4-2.8 2.5-3.5 2.5-1.9 0-1.6 1.8.5 2.4 3.3 1 29.3 3.7 30.2 3.1.8-.5-5.5-11.1-8-13.5-.3-.3-1.6-2.2-3-4.2-1.4-2.1-3-3.8-3.6-3.8-.5 0-2.3 1.3-3.9 3-4.5 4.6-5.2 3.5-1-1.5 2.9-3.6 3.6-5.2 3.2-7.3-1.8-8.8-3.1-13.8-3.6-14.4-.4-.4-1.6 2.7-2.8 7M924.7 158.2c.6.7 6.1 8.3 12.3 16.8s11.6 15.7 12 16c.3.3.9 1.2 1.2 2 .6 1.3 15.1 21.6 17.6 24.6.5.6 2.6 3.6 4.7 6.8 2.1 3.1 4.2 5.3 4.6 4.9s2.1-4.9 3.8-9.8c3.1-9.3 7-20 11.6-31.9 1.4-3.8 2.2-7.3 1.8-7.7s-4-1.9-8-3.2c-5.1-1.8-7.5-2.1-8.2-1.4-.8.8-1.1.7-1.1-.2 0-.8-.6-1.1-1.6-.7-.8.3-1.3.2-.9-.3.5-.8-46.8-17.1-49.6-17.1-.8 0-.8.4-.2 1.2M916.2 168.4c-2.9 5.8-5.2 11-5.2 11.6 0 .5-.4 1-.9 1-.4 0-2.2 3.1-3.8 6.8-2.7 6.2-2.9 7.1-1.7 9.5 1.6 3 .9 5.7-1.5 5.7-.9 0-2.2.9-2.9 2-.7 1.2-1.6 1.9-2 1.6-.5-.3-1.3.4-2 1.5-1 1.6-.9 1.9.3 1.9.8 0 1.5-.4 1.5-.8 0-.5 2.3-.9 5.1-1.1 4.1-.2 5.7.3 8.5 2.4 1.9 1.5 3.2 3 2.9 3.5-.3.4.2 1.1 1.1 1.4 2.7 1 4.4.7 4.4-.9 0-1.2.7-1.4 2.8-.9 3.3.8 5.2 2.2 5.2 3.9 0 .7 3.3 2.2 7.8 3.4 18.8 5 30.2 7.1 27.2 5.1-1.2-.8-.8-1 1.5-.8 1.7.2 3 .9 3 1.6 0 .8 1.5 2 3.3 2.7 1.7.8 3.2 1.1 3.2.8 0-.5-15.9-22.5-30.4-42-3.3-4.5-6.4-7.9-6.8-7.7-.5.3-.8-.2-.8-1.1 0-1.6-7.1-12.5-12.3-18.9l-2.3-2.8zM1000.6 183.1c3.4 4.3 27.3 34 29.6 36.7 1.5 1.8 3 3.2 3.5 3.1 1.2 0 9.3-10.6 9.3-12.1 0-.7-2.6-2.9-5.7-4.9-3.2-2-12.3-7.9-20.3-13.1-18.4-11.9-17.8-11.5-16.4-9.7M993.7 190.7c-2.5 6.4-13.3 36-14.4 39.4-.3 1.2 1.6 2 10.4 3.8 22.1 4.7 24.5 5 23.9 3.6-.3-.8-1-3.3-1.6-5.7-1.9-7.1-11-35.9-13.4-42.1l-2.2-5.8zM999 185.1c0 .2 2.2 6.9 4.9 14.9 2.6 8 6.5 19.8 8.5 26.2 2.1 6.5 4 11.8 4.3 11.8 1.6 0 15.3-12.1 15.3-13.5 0-.4-3.1-4.4-6.9-8.9s-10.4-12.7-14.8-18.1c-7-8.8-11.3-13.5-11.3-12.4M1039.1 219.1c-2.3 2.9-4.1 5.6-4.1 6.1 0 1 5.8 12.6 9.5 18.8l2.6 4.5-.5-4c-.3-2.2-.8-10-1.2-17.3-.3-7.2-1-13.2-1.4-13.2-.5 0-2.7 2.3-4.9 5.1M1030.5 228.6c-1.1 1.3-4.4 4.3-7.2 6.5-2.9 2.3-5.1 4.5-4.8 4.9.3.5 3.6 1.8 7.3 3 8.7 2.8 17.4 6.2 18.6 7.2 2.7 2.2 1.8-.2-4-11-3.5-6.4-6.4-12-6.4-12.5 0-1.4-1.5-.6-3.5 1.9"/><path d="M1047.6 237.5c.5 11.8.6 12.3 5.3 28.9 1.7 6 2.9 11.1 2.6 11.4-.2.2-1.8-4.2-3.5-9.9s-3.4-11-3.6-11.8c-.3-1-2.7.7-7.5 5.5-3.8 3.8-6.7 7.4-6.5 8.1.3.7-.1 1-.8.7-1.5-.6-1.3-1.1-8.6 20.3-2.7 7.8-5.4 15.1-6 16.2-1.8 3.5-1.6 3.4 17.8-8.6 13.8-8.6 19.2-12.3 19.2-13.2 0-.4-.6-1.3-1.2-2-1.1-1-1-1.1.3-.6 1.8.7 1.8-1.3.4-15.8-.6-5.4-1.2-7.7-2.1-7.7-1.5 0-1.9-2.6-.5-3.2.5-.2-.2-5.4-1.5-11.6-3.8-18.2-4.3-19.1-3.8-6.7"/><path d="M1018 242.7c0 .5 2.9 5.9 6.5 12.2 3.6 6.2 6.5 11.7 6.5 12.2 0 2 2 .5 9-6.7l7.4-7.6-3.5-1.8c-3.6-1.9-23.4-9-25-9-.5 0-.9.3-.9.7M1016.8 272.7c.1 15.9.3 29.9.5 31.3.1 1.6 2.2-2.8 5.6-12 8.3-22.2 8.4-22.5 6.2-26.3-9.2-16.3-12.3-21.7-12.4-21.7s-.1 12.9.1 28.7M1042.8 296.3c-7 4.5-15 9.6-17.8 11.3l-5.2 3.1 10.8 1.2c6 .7 13.1 1.7 15.8 2.2 3.5.7 5.2.6 5.7-.2 1-1.6 4.2-22.2 3.8-24.2-.3-1.3-3.1.1-13.1 6.6M1059.5 313.1c-5.2 2.3-8.3 5.7-13.9 14.9-4.4 7.4-4.9 9.8-1.7 8.4.9-.3 2.7-.7 4.1-.8 2.6-.2 3.6-2.9 4.1-12.1.2-2.5.5-1.2.8 3.5l.6 7.5 5.3-10.3c2.9-5.7 5.2-10.9 5-11.6-.2-1-1.3-.8-4.3.5M1018.3 314.6c.3 1.6.4 2.3.1 1.6-.8-1.7-2.2-1.5-2.8.5-.3 1-1.7 8.1-3.1 15.8-1.5 7.7-2.9 15.1-3.2 16.4-.6 2.3-.4 2.3 3.3 1.7 6.1-1.1 10.4-2.9 10.4-4.3 0-.7.5-1.3 1-1.3.6 0 .9-.3.9-.8-.7-4 1.5-5.8 2.4-2 .4 1.2.8 2 1.1 1.7.6-.6-4.7-15.6-7.4-21-1.2-2.2-2-4.3-1.7-4.5.2-.2 2.7 4.5 5.5 10.5s5.5 11.2 6.1 11.5c.6.4.9.1.5-.7-.3-.9.3-1.6 1.5-2 1.2-.3 2.1 0 2.1.6s.9.1 2-1.1c2.8-3 14-19.1 14-20.2s-3.2-1.7-16-3c-5.8-.6-12-1.3-13.9-1.7-3.3-.6-3.4-.5-2.8 2.3"/><path d="M1001.5 320.4c-19.9 10.5-24.9 13.3-25.2 14.3-.2.5 6.7 4.3 15.2 8.5l15.5 7.7.6-2.7c.3-1.5 1-4.1 1.4-5.7.5-1.7 1.8-8.2 3.1-14.5 1.2-6.3 2.9-12.3 3.7-13.3 2.5-2.9.3-2-14.3 5.7M974 338.2c.1 3.2 3.9 28.7 4.6 31 .3 1 .9 1.8 1.3 1.8 1.6 0 4.7-3.6 4.4-5.1-.5-2.2 2.4-4.3 5.7-4.1 3.7.3 16-8.5 13.9-9.9-1.9-1.3-28.7-14.9-29.4-14.9-.3 0-.5.6-.5 1.2M1015.8 351.6c-.2.1-1.7.5-3.3.7-3.5.5-3.5 1.8.3 6.6 3.7 4.6 10.7 13.7 14.5 18.9 3.7 5.1 4.3 4.3 2.6-3.5-.7-3.2-1.2-6.1-1.1-6.6.1-.4-1.7-2.6-4-4.8-3.5-3.4-4.3-4.8-4.3-7.8s-.4-3.6-2.2-3.7c-1.2-.1-2.4 0-2.5.2M1000.8 358.4c-3.1 2.3-7.4 5.8-9.6 7.7-2.1 1.8-5.6 4.3-7.7 5.5l-3.8 2.1 17.7 11.7c9.8 6.5 18 11.6 18.2 11.3.2-.2-.3-2.4-1.2-4.8s-2-6.4-2.5-8.9c-2-11.6-4.9-27.6-5.2-28.2-.1-.4-2.7 1.2-5.9 3.6M1008.8 357.7c.5 1 1.3 4 1.7 6.8.8 6 6.5 31.8 7.1 32.4s12.4-11.1 12.4-12.2c0-.9-21-28.7-21.7-28.7-.2 0 0 .8.5 1.7M980.4 380.2c.6 3.8 5.7 25.9 6.1 26.5.2.4 27.8-6.6 28.3-7.2.3-.3.3-.7.1-.9-.5-.4-17.7-11.6-27.8-18l-7.4-4.7zM1057 380.3c0 1.2-.3 8.7-.6 16.7l-.6 14.5 13.7 9.5c17.6 12.1 18.8 13 19.2 12.6.2-.2-2.4-6.1-5.7-13.2s-6-13.6-6-14.5c0-.8-.9-2.5-2.1-3.7-2.5-2.8-5.2-8.9-4.4-10.2.3-.6.1-1.8-.5-2.7-.9-1.5-1-1.4-.5.7.3 1.4-1.1-.6-3.2-4.4-3.1-5.7-4.3-7-6.5-7.2-2.3-.2-2.8.1-2.8 1.9M1024.5 393l-5.9 5.9 3 1.2c5.4 2.1 13.7 4.9 14.6 4.9.5 0 .5-.8 0-1.8-.5-.9-1.7-5-2.7-9-1.1-3.9-2.2-7.2-2.5-7.2s-3.2 2.7-6.5 6M1056 427.1v13.2l11.8-.8c6.4-.4 14-1 16.7-1.4l5-.6-6-4.8c-6.4-5.1-26-18.7-26.9-18.7-.3 0-.6 5.9-.6 13.1M1073.2 440.5c-7.3.7-13.5 1.5-13.8 1.7-.5.5 13.8 8.8 15.2 8.8.9 0 14.2-9.5 16.2-11.5.7-.6-1.1-.5-17.6 1M700.3 663.2c-1.8 4.6-3.7 10.1-4.4 12.3-.6 2.2-1.5 4.2-1.8 4.5-.4.3-1.2 2.2-1.8 4.2l-1.1 3.8 3.4-.5c3.5-.4 9.1-2.9 8.7-3.9-.5-1.2 1-3.6 2.2-3.6 2.1 0 2.5-1.4 1.6-5.1-.7-2.6-1.9-13.3-2.1-19.2 0-.4-.4-.7-.8-.7-.5 0-2.2 3.7-3.9 8.2M724 675.7c0 .5-.7 6.9-1.5 14.3s-1.5 16.3-1.5 19.7c0 3.5-.4 6.3-1 6.3-.5 0-1 .4-1 1s7.7 1 21 1c15.1 0 21-.3 21-1.1 0-.7-1.2-2.4-2.7-3.8-1.6-1.5-9.7-10.7-18.2-20.4-8.4-9.7-15.5-17.7-15.7-17.7s-.4.3-.4.7"/></svg>