<svg xmlns="http://www.w3.org/2000/svg" width="1706.667" height="960" viewBox="0 0 1280 720"><path d="M0 360v360h312.9c312.1 0 313 0 313.6-2 .3-1.1 1.1-2 1.6-2 .6 0 .6.7 0 1.9-.9 1.6-.7 1.9 1.5 1.9 1.4 0 2.3-.3 2-.5-.3-.3.1-2.2.9-4.2s1.9-6.4 2.5-9.8c.6-3.5 2.2-8.7 3.5-11.5 2.8-6 3.3-5.3 1 1.3-.9 2.4-2.5 8.2-3.6 12.9s-2.3 9.3-2.6 10.3c-.4 1.6.2 1.8 5.8 1.5s6.5-.6 7.6-2.8c.7-1.4 1.3-2.1 1.3-1.5 0 .5 1.3-.5 2.8-2.2 1.6-1.7 4.6-4.2 6.8-5.6 2.1-1.4 5.4-3.9 7.3-5.6l3.5-3.1-5.5-.1c-3 0-7.6-.4-10.4-.9-4.2-.6-3.4-.8 5.6-.9l10.6-.1-2.4-9.2c-3.2-13-2.7-14.1 1.1-2.6 3.7 11 3.2 11 8.1-.9 1.4-3.5 3.7-8.9 5.2-12 1.4-3.2 3.6-8.2 4.7-11.2 1.2-3 2.7-5.6 3.4-5.9.8-.2.6 1.1-.7 4-1.1 2.3-3.4 7.7-5 11.8s-3.7 9.2-4.6 11.4c-1.2 2.8-1.3 3.7-.3 3.3.7-.2 1.2-.9 1.1-1.5-.1-.5.3-.9 1-.9 4.4.1 5.8-.6 7.4-3.5 2-3.8 2-3.7 2.3-8.1.3-3.1.3-3.1.7-.5.2 1.6.9 2.8 1.5 2.8.5 0 .8-.7.4-1.5-.3-.8-.8-3.8-1.1-6.7s-.8-7-1-9.1c-.3-2.1-.7-4.2-.9-4.6-.3-.4.1-2.5.9-4.7l1.4-3.9.1 4c0 3.6.9 5 8.2 13 4.5 4.9 8.5 9.1 8.9 9.3.5.2 1-3.6 1.2-8.5l.3-8.8.2 10.2.2 10.1 9.3 11.3c10.9 13.4 16.7 20 25.4 29.1l6.5 6.8H1280V511.1c0-166.2-.3-209-1.2-209.4q-1.5-.6 0-.6c.9-.1 1.2-30.9 1.2-150.6V0H0zM544.5 55.6c1.5 1.5 16.4 11.2 19.6 12.7.8.4 3.9 2.3 6.9 4.2s8.6 5.4 12.4 7.7l7 4.1 15-2.1c21-3 37.8-6.4 36.3-7.4-.6-.5.6-.6 2.8-.2 3.4.6 27.5 11.8 51.9 24.2 3.8 1.9 7.7 3.5 8.5 3.6.9.1 2.5.8 3.6 1.6 3.5 2.8 13.9 13.9 13.4 14.4-.3.3-3.9-2.7-8-6.7s-7.9-7.2-8.5-7.2c-.5-.1-12.5-5.8-26.8-12.8-14.2-7-27.9-13.2-30.4-13.8-3.1-.7-6.1-.6-9.6.1-8.7 1.8-41 7-43.3 7-3.2 0-2.8 1.4 1 3.3 1.7.9 6.8 3.6 11.2 6s11.4 6.2 15.5 8.4 10.7 5.7 14.5 7.8c15.3 8.3 23.7 12.6 24 12.3s-.8-4.4-5.2-19.3c-.3-1.1-.3-1.8 0-1.5s2.2 5 4.1 10.4c1.9 5.5 4 10.4 4.5 10.9.8.8 32.3-12.4 37.9-16 1.3-.8 2.9-1.2 3.5-1 1.2.5-2.6 2.4-24.3 12.2-13.8 6.2-16.5 8-14 9.5.8.5 5.1 3.2 9.5 5.9 10.6 6.5 35.6 21.5 36.7 21.9.4.2.8-2.9.8-6.9s.2-7 .4-6.8c.4.4 1.4 9.7 1.5 14.1.1 1 1.5 2.1 3.9 2.8 2 .7 4.7 1.9 5.9 2.6 1.2.8 4.8 2.1 7.9 2.9s6.1 1.8 6.8 2.3c.6.5 5.1 2.3 9.9 4.2 4.8 1.8 9 3.7 9.3 4.2.3.4-1.9-.1-4.8-1.3s-8.2-3.2-11.8-4.4c-3.6-1.3-9.9-3.8-14-5.5-4.1-1.8-8.5-3.4-9.8-3.7-2-.5-2.2-.2-1.8 1.8.3 1.3 2.2 11.3 4.1 22.2 2 10.8 4 20.9 4.6 22.4.5 1.4 1.2 4.2 1.5 6.2.8 5.3 1.9 5.7 5.1 2 1.5-1.8 3.8-4.3 5-5.6s4.8-5.6 8-9.6c3.2-3.9 6.3-7.7 6.9-8.2.6-.6 2.4-2.8 4-5s3.1-4.2 3.4-4.5c2.8-2.7 3-3.8 1.3-7.1q-2.85-5.85-18.6-25.2c-2.2-2.6-3.8-5-3.5-5.2.2-.2 2.8 2.8 5.8 6.8s6 7.6 6.6 8.2c2 1.8 11.2 13.3 11.7 14.7.4.9 1.3.4 3.1-1.7l2.6-3-1.5 3c-.8 1.6-1.5 4.2-1.5 5.7 0 1.9-.4 2.6-1.4 2.2-.9-.4-3 1.5-5.7 5.3-4.5 6.1-16 20.2-19.4 23.8-4.7 5-9.5 10.9-9.5 11.6 0 .5 1 1.4 2.2 2s3.1 2 4.2 3c1.1 1.1 4.6 3.6 7.8 5.6s5.6 3.8 5.4 4c-.4.4-5.5-2.8-13-8.2-2.7-1.9-5.4-3.5-6-3.5-1.8 0-3.6 1.7-9.7 9-3 3.6-5.6 6.7-6 7-.3.3-6.3 7.5-13.4 16s-13.8 16.4-15 17.6c-2.9 2.9-14.6 16.2-16.9 19.3-1.1 1.4-2.5 2.9-3 3.3-2.1 1.4.3 1.9 4.1.9 4.8-1.4 6.6-1.4 5.8-.1-.3.5-2.3 1-4.3 1-5.2 0-2.9 1.5 5.6 3.5 4 1 7.1 1.9 6.9 2.2-.2.2-4.6-.6-9.7-1.7-5.2-1.1-10.1-1.8-10.9-1.4-.9.4-2 .6-2.5.5-2.2-.5-7.1 2.6-22.6 14.7-5.6 4.4-24.9 17-26.9 17.7-3.4 1.1-2.4 2.1 1.8 1.7 2.6-.3 3.8-.8 3.7-1.9 0-.8 2.4-2.9 5.5-4.6 5.8-3.3 11.4-7.2 13.7-9.4.7-.7 1.9-1.3 2.5-1.3.7 0 2.5-.7 4-1.5 3.7-1.9 19.5-4.6 27.2-4.7 5.2 0 6.7.4 11.5 3.6 5.6 3.7 16.9 13.6 15.5 13.6-.4 0-3.8-2.3-7.6-5-6-4.4-7.2-4.9-8.8-3.8-2 1.2-2 1.2 0 2.6 1 .7 1.9 2 1.9 2.8 0 2 5.6 8 10.7 11.4l4.1 2.8.5-2.3c.2-1.3-.2-3-.9-3.7-.9-.8-1-1.8-.4-2.8 1.5-2.4 2.5-.2 2.5 6.1 0 3.2-.1 5.9-.3 5.9s-2.2-1.6-4.5-3.5c-10.2-8.6-14.3-11.5-15.9-11.5-1 0-1.8.4-1.8.9 0 1.2-7.2 2.9-15 3.6-4.9.4-7.9 1.4-12.2 3.9-6 3.7-14.8 6.6-19.5 6.6-1.6 0-3.3.3-3.7.7-1.1 1.1-3.5 1.2-4.2.2-.3-.5.1-.9.8-.9 3-.1-1.9-2-5.2-2.1-2.4 0-2.9-.3-1.8-.7 1.7-.7 1.7-.8-.1-1.9-1.6-1-2-.9-2.5 1.2-.3 1.2-.4 3.8-.1 5.7.4 2.6.3 2.4-1-1.2-.8-2.5-1.2-5.3-.9-6.3s.2-1.7-.3-1.6c-.4.1-1.6-.1-2.6-.6-1-.4-4.6-.2-8 .4-10.3 2-48.1 10.3-49 10.8-.4.2-.2 1.4.4 2.6 1.2 2.1 1.1 2.1-.8.5-2.7-2.4-4.2-2.3-10.4 1.1-3 1.6-14.4 7.7-25.4 13.5-11 5.9-20.4 11.1-20.9 11.6-1.2 1.2 1.6 1.9 42.3 10.6 7.3 1.5 12.8 3 12.2 3.2-1.1.4-15.2-2.5-46.6-9.4l-11-2.4-1.6 2.1c-1 1.3-1.8 1.7-2 1-.4-1.1-20.8 9.1-35.9 18.1-4.1 2.4-8.4 4.8-9.5 5.2-1.9.7-1.9.8.5 2.1s2.2 1.4-2.3 1c-5.1-.5-34.1 5.7-35.2 7.5-.3.5-1.2.7-2 .4-.8-.4-3.8 0-6.7.7-5.4 1.3-6.2 1.4-11 1.7-1.6.1-2.8.8-2.8 1.4 0 .7-.7 2.2-1.6 3.3-1.3 1.8-1.4 1.7-.8-1.3.5-2.4.3-3.2-.7-3.2-1.1-.1-1.1-.3.1-1.3 1.8-1.4 2.6-17.3 1-19.7-1.8-2.7-15.6 13.9-18.3 22-.3.8-.6 0-.6-1.8-.1-2.8-.5-3.2-2.8-3.3-2.5-.2-2.6-.2-.5-.6 2-.4 2.3-.9 1.9-3.6-.3-1.8-1.2-8.1-2.1-14.1-1.6-11.2-2.6-13-6.1-12.1-1.1.2-2.5.5-3.1.5-.7 0-1.5 1.7-1.9 3.7-.4 2.1-1.1 4.3-1.6 4.9-.8 1-4.9 18.2-4.9 20.6 0 .4 3.5.9 7.8.9l7.7.2-7.5.9c-4.1.5-7.9 1.3-8.3 1.7-.5.5.9 4 3.1 7.8 3.9 7 11.9 24.4 10.3 22.7-.5-.5-2.3-3.6-4-6.8-6.5-12-7.4-11.9-5.5.3 2.5 16.3 12.7 65.2 14.1 67.4.2.4 2.8-.6 5.7-2.3 5.9-3.3 8.9-4.1 4.1-1.1-1.6 1.1-4.3 3-5.9 4.3l-2.9 2.5 5.6 8.4c7.2 11 10 13.9 13.4 14 2.7.1 2.7.1.4.8-3 .8-3.6 2.4-1.6 4.1.8.7 1.5 1.8 1.5 2.4-.1.6-.6.5-1.3-.4-.7-.8-2.3-2.1-3.6-2.8-2-1.2-2.8-1-7.9 2.2-3.2 2-8.2 4.8-11.2 6.2-3 1.5-5.7 2.8-5.9 3-.7.6 13.7 13.4 20.5 18.3 1.9 1.3 3.2 2.6 3 2.9-.5.5-6-3.6-14.6-10.9-3-2.6-7-5.6-8.8-6.7-3.3-2-3.4-2-9.5 0-6 1.8-11.7 2.8-11.7 2 0-.2 1.6-3.5 3.6-7.3s4-8.4 4.4-10.2c.6-2.8.8-3 1.5-1.2.9 2.2 4.3 7.2 6.3 9.3 1.1 1.2 1.7 1 3.7-1.4 1.3-1.5 2.8-2.5 3.2-2 .4.4-.3 1.6-1.7 2.7-2.4 2-2.4 2-.2 1.5 5.6-1.4 7.1-2.2 13.6-6.5 6.5-4.2 6.8-4.6 4.5-5.2-2-.6-1.8-.7 1.4-.8 2-.1 3.7-.5 3.7-1.1 0-.8-11.8-17.9-14.1-20.4-.6-.6-2.3.3-4.4 2.4-1.9 1.9-3.5 2.9-3.5 2.3s1.4-2.5 3-4.2c2.9-2.8 3.1-3.4 2.5-8.3-.8-7.3-2.5-13.2-3.4-12.2-.5.5-2.5 6.5-4.6 13.4s-4.4 13.7-5.1 15.2c-1.6 3.2-1.9 6.2-.4 3.8.5-.8 1-1.1 1-.6 0 .6.9 0 2-1.2 3.2-3.4 3.5-2.6.4 1-1.5 1.8-3.3 3.2-4.1 3-2-.4-1.6 1.6.6 2.7 1 .6 6.3 1.6 11.7 2.2 11.7 1.4 14.2 2.4 3.4 1.4-15.4-1.3-18.7-2.4-25.4-7.9-10.6-8.9-14.4-11.6-16-11.6-1.2 0-1.4-.5-.6-2.3.5-1.2 1.2-5.2 1.5-8.8.4-3.9 1.4-7.7 2.6-9.5 1.7-2.6 1.9-2.7 1.9-.7 0 1.2-.4 2.4-.9 2.7-1 .6-2 8.6-1.1 8.6.3 0 1.6-1.9 2.8-4.3 12.4-23.8 12.6-24 9.4-15.2-.9 2.8-4.1 9.4-7 14.8-2.8 5.4-5.2 10.8-5.1 12 0 1.6 2.3 3.8 7.7 7.9l7.7 5.6.6-4.1c1-6.2.1-42.8-1.1-44.2-.5-.7-.7-1.5-.4-1.8.4-.3.3-1.8 0-3.3-.4-1.4-.9-2.4-1.2-2.1-.3.2-2.4 0-4.7-.6-2.3-.5-6.5-.9-9.4-.8-4.5.2-5.7-.2-9.6-3.2-5.9-4.5-22-13.7-24-13.7-.8 0-1.8.6-2.1 1.2-.4.7-.4.2-.2-1.1.4-1.7-.1-2.5-1.7-2.9-2.2-.6-2.1-.6.3-1.2 1.5-.3 3.1-1.9 4.1-4 4.4-9.1 8.9-20.1 10.4-25.5 1-3.3 2.5-7.4 3.5-9 2.3-3.8 9.3-22.5 8.7-23.1-.6-.7-3.9 5.1-6.7 11.9-1.4 3.2-2.6 5.4-2.8 4.7-.2-.6.8-3.6 2.2-6.6s2.6-6 2.6-6.6 1-2.2 2.2-3.5c2.9-3.1 2.2-3.5-9.5-6.4-4.8-1.2-8.6-2.4-8.3-2.6.3-.3 4.5.5 9.5 1.7 12.1 3 12.6 2.8 12.2-3.8-.1-2.9-1.3-7.7-2.6-10.7l-2.4-5.4-8.3 5.6c-4.6 3.1-8.5 6-8.8 6.3s-1.6 1.4-2.9 2.3l-2.5 1.6 2.5 1.1c2.3 1 2.3 1-.6.7-2.6-.2-3.1.2-3.6 2.8-.5 2.3-.7 2.5-.8.7 0-1.2-.4-2.2-.8-2.2s-4.4 3.6-8.9 8-7.6 8-6.9 8 1.8.7 2.5 1.5c1 1.2.7 1.5-1.6 2.1-1.8.5-2.9.3-3.2-.5-.3-.9-.7-.9-1.8 0s-1 1.4.9 3c1.2 1 1.7 1.8 1 1.9-.6 0-1.5-.5-1.9-1.1-.3-.6-1.7-.8-3.1-.4-2 .5-2.4.3-2-1 .4-.8-.5-3.1-1.8-5.1-2.7-3.9-3.1-5.4-1.5-5.4.5 0 1.3 1.2 1.6 2.7.7 3 2.2 5.3 3.4 5.3.4 0 2.8-1.9 5.3-4.3 2.5-2.3 7.7-6.9 11.5-10.2 3.9-3.3 7.1-6.4 7.1-6.8.2-1.4-13.2-17.6-14.1-17.1-.4.3-.8 1.5-.9 2.7 0 1.2-.9 4.7-1.9 7.7-1.7 5-1.8 5.1-1.3 1.5.3-2.2 1-5.1 1.5-6.4.6-1.6.5-2.7-.3-3.1-.8-.6-.8-1.3.1-3 1.3-2.5 1.4-2.4-2.5-3.7-1.6-.6-3.8-1.4-4.7-1.8-1.6-.6-1.8 0-1.8 6.1 0 7-2 16.5-2.8 13.1-.2-.9-.8-1.7-1.3-1.7s-1 .8-1 1.7c-.1 1.5-.2 1.4-.6-.2-.3-1.1-1.3-3.1-2.3-4.5-2.4-3.5-4-10.6-2.7-11.9 1.1-1.1 1.2-6.7.1-11.6l-.6-3 3.3 3.2c4.5 4.1 7 4.6 8 1.3.6-2.1.7-1.8.8 1.6.1 3.8.4 4.2 4.1 5.7 4.2 1.6 6.9 1.3 11-1.1 2.4-1.5 2.4-1.4-.2 1.2-1.6 1.5-2.8 3-2.8 3.3 0 .5 8.2 11.6 12.7 17 1 1.2 1.5 1.2 4.1-.1 1.7-.9 3.3-2 3.7-2.6.3-.5 2.9-2.5 5.8-4.4 7.8-5.3 11.1-8.5 11.2-10.9.1-1.2.5-3 .9-4 .5-.9.6-2.3.3-3.1s.1-1.7.8-2c1.2-.4 1.1-1.3-.5-5.1-2.4-5.6-2.6-7.9-.5-7.2.8.4 1.7.1 2.1-.5.7-1.1-1.3-8.4-2.8-10.5-.6-.7-.3-1.3.7-1.5 1.2-.2.9-1.1-1.6-4.1-3.9-4.8-3.2-5.9 1-1.5 2.3 2.4 3 3.9 2.6 5.6-.3 1.3.1 3.2 1 4.5.8 1.2 1.5 2.9 1.5 3.8 0 1.8 2.7 4.5 3.6 3.7.3-.3-.3-2.3-1.2-4.4-1-2.2-2.1-4.7-2.5-5.6-.6-1.2-.4-1.5.5-1.2 1.1.4.9-1-.5-6.3-2.1-7.7-2.2-8.3-1.1-8.3.7 0 3.3 11.2 3.6 15.5.3 2.7 3.8 7.5 5.6 7.5 1.7 0 2-.7 2-5 0-5.9-2.5-12.6-5.1-14.1-1.1-.5-1.9-1.5-1.9-2.1 0-.7.7-.5 1.8.4 3.6 3.1 4 3 3.1-1-.5-2-.8-4.8-.8-6.2.1-1.6.4-1 1.1 1.7.5 2.4 1.2 4.3 1.6 4.3s.9 1.4 1 3.1q.3 3-.9 2.4c-2.4-1.6 1.5 4.1 5 7.1 10.3 8.9 12.3 10 18.9 10.3 3.4.1 7 0 8.1-.4 2-.6 1.9-1.9-.9-10.8-.5-1.6-.4-2.7.1-2.7s.9.6.9 1.4c0 4 5.4 5.3 8.1 2 1-1.2 1.3-1.2 2.4.2 1 1.5 1.9 1.5 8.6.4 4.1-.7 7.6-1.5 7.8-1.6.2-.2-1.8-4-4.4-8.4-5.4-9.3-5.6-12.1-.2-3.3 4.7 7.5 9.7 12.8 12.2 12.8 1.3 0 2.7-1.3 3.8-3.5l1.9-3.5-.5 3.7c-.7 4.6.7 6.3 6 7.3 3.9.7 9.2 3.2 10.5 5 1.4 1.9.7-.9-1-4.1-.9-1.8-3.7-6.8-6.1-11.3s-4.8-8.1-5.4-8.1c-.5 0-1.5-.7-2.1-1.6-.7-.9-5-2.3-10.7-3.5-5.1-1-10.4-2.1-11.5-2.4-1.6-.4-2.3.1-2.8 1.8l-.7 2.2-.9-2.3-1-2.4-3.6 2.2c-1.9 1.2-3.7 2-4 1.7-.3-.2 1.1-1.5 3-2.7 3.3-2 5-6 2.7-6-.5 0-3-2.1-5.6-4.6-2.6-2.6-5-4.3-5.4-3.8-.9.9-5.1 17.8-5.1 20.2 0 .8.5 1 1.3.6.6-.4.3.2-.7 1.4l-1.9 2.2-6.5-5.8-6.4-5.8.1-19.4c.1-10.7.4-19.6.7-19.9.2-.2.4 7.1.4 16.2 0 15.7.1 16.7 1.9 16.7 1 0 2.4-.7 3.1-1.5s1.7-1.5 2.3-1.5c1.5 0-2.2 3.8-4.3 4.5-3.8 1.2-3.3 3.8 1.5 8.2 5.3 4.9 7.5 5.4 7.5 1.9 0-1.3 1.1-6 2.3-10.5 1.3-4.4 2.3-8.1 2.1-8.1s-1.9.9-3.8 2.1c-2 1.2-3.6 1.7-3.6 1.2s1.5-1.6 3.3-2.6c1.9-1 4.4-3.8 6-6.7 3.1-5.5 4.3-6.4 3.3-2.4l-.7 2.5 3.3-2.3c1.8-1.3 3.5-2.5 3.8-2.8s3.1-2.4 6.2-4.8l5.8-4.2-.6-4.8c-1.2-9.4-2.3-16.5-2.9-17-.9-.9-3.4 3.2-3.5 5.7 0 1.3-1.8 5.6-3.9 9.5-2.2 3.9-3.9 7.5-3.9 7.9 0 1.2-2.4 6.8-2.8 6.4-.6-.6 1.5-6.7 4.8-13.5 1.6-3.5 2.8-6.6 2.5-6.9-.9-.8-4.2 2.9-7.1 7.9-3.4 5.8-4.8 7-3.3 2.6 1.4-4 1.5-4.1 6.7-10 2.3-2.5 5.4-7.2 7-10.2l2.8-5.7-3.1.5c-1.8.3-7.2.8-12.2 1.1-17.4 1.1-18.3 1.3-19.1 4.9-.4 1.7-.6 4.7-.5 6.6s-.3 4.2-.9 5c-.7 1.1-.8.3-.4-2.5.5-3.9.5-3.9-1.2-2l-1.7 2 .8-2c.7-1.8 1.4-8.6 1.5-14.4 0-1.9.3-2.1 1.4-1.2 1.1 1 2.2.3 5.3-3.5 2.1-2.6 6.1-7.5 8.8-10.8 2.8-3.4 7.2-8.9 9.9-12.4 2.7-3.4 5.2-6.2 5.5-6.2.4 0 1.4-1.2 2.3-2.8.9-1.5 5.3-6.6 9.7-11.2 4.4-4.7 8.3-9.6 8.6-11 .5-2.3-2.9-15-5.5-20.5-.5-1.1-2-6.5-3.4-12s-2.5-9.6-2.5-9c-.1.5-.5.4-.9-.2-.5-.8-2.5 3.7-5.1 11.5-2.4 7-4.7 13.4-5.2 14.2-1.5 2.6-1-.5 1.1-6.4 1.1-3.2 1.9-6.8 1.8-7.9 0-1.2 1.1-4.8 2.6-8.1 1.5-3.2 2.5-6.3 2.3-6.9-.2-.7 1.4-2.6 3.6-4.4 4.4-3.7 4.9-3.9 4.1-1.8-.3.8 6-1.9 14.3-6.2 8.1-4.2 25.4-13 38.3-19.6s23.7-12.4 23.8-12.8c.2-.5 1-.9 1.9-.9.8 0 9.9-3 20.1-6.6 31.2-11 56.5-19.5 56.9-19.1.2.2-8.1 3.3-18.4 6.9-51.5 18-56.1 19.7-53.8 20.4.6.2 10.2 2.6 21.4 5.5l20.5 5.2 1.9-2.4c2.4-3 18.7-19.7 21.8-22.4 2-1.6-3.8 5-10.1 11.5-4.9 5.2-10 11.3-10 12.1 0 .6 1.5.8 3.3.5 3.1-.5 38.3-5.5 53.7-7.6 14.7-2 20.1-3.2 19.7-4.4-.3-1-31.4-21.5-38.4-25.3-3.1-1.6-3.3-1.6-5.4.2-2.2 2-2.2 2-1.5-.3.8-2.4-.2-2.9-2.4-1-1.2 1.1-1.2 1-.1-.4.7-.9 2.2-1.9 3.4-2.1s2.5-.5 2.9-.6c.4 0 1.4.6 2.3 1.5m357.2 86.2c6.7 5 12.8 9.2 13.5 9.4.7.1 3.9-1 7.2-2.5 3.2-1.5 6.2-2.7 6.6-2.7 2 0 20.5-8.9 20.8-10 .3-.7.1-1-.4-.7s-5.2-.3-10.4-1.4c-5.2-1-9.7-1.9-9.9-1.9s-.2-.2.1-.5c.2-.3 3.9.2 8.2 1s8.7 1.5 9.8 1.5c1.8 0 1.9-.2.7-1.8-.7-.9-.2-.7 1.3.6 3.2 2.9 4.8 3 12.8.4 3.6-1.2 8.5-2.6 11-3.2 4.2-1.1 4.4-1.3 2.5-2.7-1.9-1.5-1.8-1.5 1-.8 3 .7 5.6 2.8 27.2 23 6.5 6 13.5 12.4 15.6 14.1 2 1.7 3.7 3.7 3.7 4.4s3.8 8.1 8.4 16.4c4.7 8.3 8.8 16.4 9.1 17.9.4 1.5 1.2 3 1.8 3.4.7.4.8 0 .3-1.3-.4-1-.9-3.9-1.1-6.4-.4-3.7-.2-3.4 1 2 2 8.6 4.4 15.7 6.7 19.8 2.1 3.9 2.4 6.5.3 3.8-1.9-2.5-1.9-2 .6 9.9 1.2 5.5 2.4 11.8 2.8 14s1.4 6.2 2.3 9c2.6 8 4.6 15.5 6.3 23.5.9 4.1 2.4 9.7 3.3 12.5l1.6 5 .8-3.5c.5-2.5.6-1.7.3 2.7-.2 3.5.1 6.6.6 6.9 1.5.9 1 16.1-.8 25.9-1.8 10-1.8 11.1-1.2 27.5.4 8.9 1 12.5 2.6 16 1.1 2.5 3.3 7.6 4.8 11.5 2.9 7.6 9.8 23.5 17.8 41 2.7 6 5.2 12.8 5.4 15 .3 2.8.1 3.6-.5 2.6-.8-1.2-1.5-1.1-4 .5-8.5 5.5-11.9 7.9-14.4 10.1-1.4 1.4-3.2 2.2-3.8 1.8-.9-.6-14.4 2.1-15.9 3.2-.2.1.7 1.2 2 2.3 2.3 2 2.3 2.1.2 1-2-.9-2.3-.8-2.3 1 0 2 3.6 10 4.5 10 .2 0 .1-1.6-.2-3.5s-.1-3.5.4-3.5 1.4 3.1 2.1 7c.6 3.8 2.1 9.7 3.3 13l2.1 6.1-4.9 5.5c-2.6 3.1-5.5 6.5-6.3 7.5-.9 1.1-3.8 2.3-7.3 3-7.6 1.4-8.4.6-1.1-1 4.5-1 5.4-1.6 4.9-2.9-.4-1-.9-3.5-1.1-5.7-1-8.7-2.7-16.5-3.5-16.5-1.4 0-1 5.7.6 9.7.8 2 1.3 3.8 1 4.1s-.5.1-.5-.4c0-.6-.6-1.8-1.3-2.8-1.3-1.7-1.9-1-6.5 7.4-2.9 5.1-5.2 9.5-5.2 9.7 0 .3 1.2.2 2.6-.1 1.5-.4 2.3-.3 2 .2s1.7 1.3 4.5 1.6c2.8.4 4.9.9 4.6 1.2s-2.9.1-5.8-.4c-3-.6-5.5-.9-5.7-.8-.7.7 1.3 3.4 4.9 6.5 4.5 3.8 6.3 3.3 7.5-2.2 1.5-7 4.1-4.5 7 6.5.8 3.3 1.2 6.3.9 6.6-.4.4-2.4-.3-4.5-1.6-4.8-2.7-7.2-2.9-6.4-.4.5 1.4.4 1.5-.5.2-.6-1-1.3-1.1-1.9-.5-.5.6-3.6 4-7 7.7-4.7 5.1-6 7.1-5.6 9l.5 2.3-1.1-2.4c-.6-1.3-.9-2.5-.8-2.7.2-.1 2.3-2.6 4.8-5.5 2.5-2.8 6-6.8 7.8-8.7s3.1-3.5 3-3.6c-.2 0-2.9-2.5-6-5.5-5.1-4.9-5.9-5.3-7.4-4-1.6 1.3-1.6 1.2-.5-.8.6-1.3.8-2.3.4-2.3s-.2-.5.4-1.1.9-1.8.6-2.5c-.4-1 0-1.2 1-.8 1.2.4 2.6-1.4 5.6-7.5 2.3-4.4 4.1-8.5 4.1-9 0-1-.3-1.4-7.3-7.8l-4.5-4.2-6.3 8.9c-3.5 5-6.4 9-6.6 9-.8 0 2.4-4.9 7.4-11.7 3-3.9 5.5-8 5.6-9.2 0-1.1.3-1.8.6-1.5.7.7 9.1-15.8 9.1-17.8 0-1-1.7-3.7-3.7-6l-3.7-4.3 4 3.7 4 3.8 1.8-10.8c1.1-5.9 2.5-11.4 3.2-12.3.8-.8 1.4-2.4 1.3-3.5 0-1.8-.1-1.8-.9.1-.8 1.8-.9 1.7-.9-.8-.1-1.5.3-2.7.8-2.7 1.4 0 3.3-5.5 2.9-8.6-.4-4-2.5-4.1-3.7-.2l-1 3.3.1-3c.2-4.7-1.3-15-2.4-16.6-.7-1-.8 0-.4 3.4.4 3 .2 4.6-.4 4.2-.6-.3-1-3.3-1-6.5 0-5.4-1.5-9-3.8-9-.4 0-2.9-.7-5.5-1.5-3.5-1-4.6-1.1-4-.2 1.8 3 13.7 18.3 15 19.3 1.2.8 1.4 2.1.8 5.2-.8 4.7-2.4 6.7-1.7 2.2.3-2.1-.1-3.2-1.3-3.6-1.2-.5-1.3-.9-.4-1.4.9-.6.2-2.3-2.7-6.2-5.3-7.3-10.6-13.9-11-13.5-.7.7 4.6 17.1 5.8 17.8 2.6 1.7-.6.8-10.5-2.7-11.4-4.1-13.8-4.3-22.2-1.9-3.3 1-7.6 2.1-9.5 2.5-8.3 1.7-12 3.1-12 4.5 0 .9-.9 1.5-2.1 1.5-1.7 0-2-.4-1.5-2.3.3-1.2.6-3.1.6-4.2.1-1.8.2-1.8 1.1.3.6 1.6 1.5 2.2 2.6 1.8 1-.3 7.2-1.9 13.8-3.6 15.3-4 15.5-4 13.4-4.9-1.8-.7-20.3-12.2-33.3-20.6l-2.8-1.9.7 4.5c.4 2.4 1.5 7.8 2.6 12.1 2 8 2.4 11.9.8 8-.7-1.9-3.6-14.7-5.4-24.2-.1-.8-.7-1.4-1.1-1.3-7.4 1.3-10.8 1.4-9.7.3.6-.7 2.3-1.3 3.7-1.3 1.5 0 2.8-.2 3-.6.3-.3-4.1-3.3-9.7-6.5-29.7-17.2-34-19.6-35.5-19.6-.9 0-3 1.2-4.6 2.7l-3.1 2.8 2.8-3.1c2.9-3.2 2.9-5.1-.2-8.9-1.5-1.9-1.5-1.9.4-.5 1.1.8 2.4 2.1 2.8 2.7.9 1.5 5.6 1.7 8.9.4 1.3-.5 9.4-2.6 18-4.7s15.5-4.1 15.2-4.5c-.2-.4-6.9-3.3-14.9-6.4-8-3.2-14.5-6-14.5-6.2 0-.6 3.7.5 7.5 2.3 2.8 1.2 23.7 9.4 24.1 9.4.2 0 1.2-16.7 2-35.5.3-7.7 1.1-25 1.8-38.5s1.1-24.7 1-24.9c-.7-.8-18.6 11.9-41.9 29.9-4.9 3.7-10.8 8.1-13 9.6s-5.6 3.8-7.5 5.3c-2.2 1.6-3 1.9-2 .8.8-1.1 3.7-3.5 6.6-5.5 2.9-2.1 11.4-8.4 19-14.1 7.7-5.7 16.7-12.5 20.2-15 9.3-6.8 17.4-13.3 17-13.6-.2-.2-10.4-2.9-22.8-6-12.4-3-25.1-6.2-28.3-7.1-5.6-1.4-6.1-1.4-10.2.7-3.8 1.9-4.8 2-7.4.9-1.7-.6-3.6-2.5-4.3-4.1-.9-2-2.4-3.2-4.8-3.9-4.4-1.2-6-1.3-6-.1 0 .5-.8 1.2-1.9 1.6-1 .3-3.3 3.5-5 7-1.8 3.5-3.6 6.7-4.1 7-1.9 1.2 4.3-10.9 7.4-14.4l2.1-2.4-4.2.7c-5 .7-5.9-.9-1.2-2.1l3.1-.9-11.3-8.5c-6.3-4.6-13.9-10.4-16.9-12.7s-8.6-6.6-12.5-9.6c-3.8-2.9-8.1-6.6-9.5-8.1s4.5 2.5 13 8.9c8.5 6.3 16.1 11.3 16.8 11.1.7-.3 1.1-.1.8.4-.8 1.3 4.4 4.4 7.6 4.5 1.8.1 2.9-.5 3.2-1.7.2-.9 0-1.7-.5-1.7s-.9-1.6-.9-3.5c0-3.4-.1-3.5-3.9-3.5-2.2 0-4.1-.4-4.3-1-.1-.5-1.5-1.1-3-1.2-2.3-.2-2.7-.6-2.2-2.3.8-2.4.4-2.1 3.2-2.9 1.3-.5 2.2-.3 2.2.3s.5 1.1 1 1.1c.6 0 1-.9 1-2 0-1.3-.5-1.8-1.5-1.4-.8.4-1.5.1-1.5-.5s-.7-.8-1.5-.5c-1.1.5-1.5-.1-1.5-2.4 0-1.7-.6-3.3-1.2-3.5-.7-.3-.1-.6 1.4-.6 1.4-.1 3.2-.3 4-.6.7-.2 2.4.4 3.8 1.5 2.2 1.7 2.3 2.2 1.2 4-.7 1.1-1 2.5-.7 3 .9 1.4 3.2 1.2 3.8-.3.3-.8 1-.6 2 .8 1.8 2.3 1.8 8.8.1 8.1-.7-.3-1 .3-.7 1.5.3 1 .7 1.9 1 1.9 1 0 2.9-2.6 2.6-3.6-.2-.6.3-1.7 1.2-2.4 2.1-1.7 1.9-4.7-.3-5.2-1.3-.4-1.9-1.5-2-4.2-.1-3.5 0-3.6 3.3-3.6 3.8 0 4.1-.6 2.5-6-1.4-4.9.3-6.3 8.2-6.4l6.3-.1.1 3.3c.1 4.1.5 4.5 3.5 3.3 1.7-.7 1.9-1 .7-1-1-.1-1.8-.6-1.8-1.2s1.2-1 2.8-.8c3.4.2 6.2-.9 6.2-2.6 0-.7.6-1.6 1.3-1.9.6-.3-5.8-.5-14.3-.5s-19.5-.4-24.5-.9l-9-.8 10.9-.8c6-.4 17.5-.5 25.5-.1l14.6.6-2.5-2.3c-1.4-1.3-4.1-3.4-5.9-4.8-10.3-7.8-23-18-23.7-19.2-.4-.7 1.4.5 4.1 2.8 2.8 2.2 10.5 8.2 17.2 13.2M291 186.5c-1.6 2-.1 2 4.7 0 2-.8 3.8-1.3 4-1.1s-2.1 1.4-5.1 2.6c-3 1.3-5.7 2.8-5.9 3.4-.9 2.4 1.6 46.1 2.7 46.9.6.4 2.2.5 3.6.2l2.5-.4-2.5 1.1c-1.4.7-2.8 1.7-3.2 2.2-.6 1 11.8 14.6 13.3 14.6.4 0 1.3-2.6 2-5.8 1.4-6.7 3.4-10.7 2.3-4.7-1.5 8.6-1.8 22.9-.4 23.3 1.4.5 1.2 4.8-.5 11.2-1.5 5.6-2 17.1-.8 18.3.8.9 1 6.6.1 6.1-3-1.9-3.3-14.8-.7-24.8.9-3.4.8-4.2-.6-5.2-1.2-.9-1.6-2.1-1.1-3.8.3-1.4.2-2.7-.4-3.1-.5-.3-1.2.7-1.6 2.2-1.6 7.2-2.4 8.8-1.8 3.8.3-2.8 1-5.5 1.4-6 .8-1 1.3-5.2 1.1-8.8-.1-1.7-11.8-14.7-13.3-14.7-.4 0-.6 1.2-.4 2.7.2 1.6.1 2-.1 1-.2-.9-.8-1.7-1.2-1.7-.5 0-.6-1.4-.2-3 .6-3 0-19-1.4-37.9-.7-8.9-.8-9.3-2.2-7-1.3 2.3-1.4 2.2-.8-1.6.7-4 1.3-5.1 4.9-9.3 2.2-2.4 3.6-3.1 1.6-.7m-19.6 32.7c-.4.7-3.3 5.6-6.5 10.9-3.3 5.3-5.9 10.1-5.9 10.8 0 .6-1.5 4.6-3.4 8.9-3.5 7.9-4.3 10.3-10.2 30.1-2.6 8.7-3.1 11.7-2.3 12.8 1 1.1.8 1.2-.6.6-1.4-.5-1.7-.3-1.3.8.3.8.2 2.3-.3 3.4-.7 1.8-.8 1.8-.8-.5-.1-2.9 5-23.1 7-27.5.7-1.7 1.4-4 1.5-5.2.2-1.2.8-3.1 1.3-4.2.6-1.1 1.1-3.3 1.1-4.9s1.1-7.8 2.4-13.8 2.7-12.6 3.1-14.8c.3-2.1.9-3.6 1.2-3.3.6.6-1.2 11.9-2.7 17.2-.4 1.6-1.1 4.8-1.5 7-.6 3.6-.5 3.8.8 2 .8-1.1 2.2-4.4 3.1-7.3 1-2.9 3.2-7.4 5-10s4.4-6.8 5.9-9.5c1.6-2.6 3-4.7 3.3-4.7s.2.6-.2 1.2m405 121.6c0 2.6.2 3.9.4 2.9.4-2 2.1-2.3 2.3-.5.1.7.2 3.1.3 5.3s.6 4.9 1 6c.6 1.6.6 1.7-.3.5-.9-1.3-1.1-1.3-1.1.1 0 1.9 5.7 3.2 6.4 1.5.3-.7.8-.6 1.4.3.7 1 2 1.2 4.6.7 2.3-.4 3.6-.3 3.6.4 0 .5-1.3 1-3 1-2.8 0-3 .3-3.7 5.2-.4 2.9-.7 6.1-.7 7 .1 1-.3 1.5-.7 1.2-.5-.3-.9-3.2-.9-6.5 0-6 0-6-2.7-5.7-2.2.2-2.8.9-3 3-.1 1.6.2 2.8.8 2.8.5 0 .9.8.9 1.7 0 1.6.2 1.6 1.1.3.9-1.2.9-1.1.4.5-.9 2.4-.9 3.3.1 6.4l.7 2.5-2.3-2.2c-1.3-1.2-2.9-2.1-3.4-1.9-.6.2-1.5-.5-2.1-1.6-1.7-3.3-9.8-8.3-17.6-10.7-4.1-1.2-10.3-3.1-13.9-4.3-3.6-1.1-7.1-2.1-7.9-2.3-1-.3-1.1-.7-.1-1.9.6-.7 1.8-1.1 2.6-.8s1.4 0 1.4-.6c0-1.5 3.2-5.1 4.5-5.1.5 0 2 1.8 3.3 4.1 2.2 3.8 2.2 4 .4 3-1.1-.6-2.7-1.8-3.5-2.6-1.3-1.3-1.6-1.3-2.1 0-.3.8 0 1.5.7 1.5.9 0 .8.3-.1.9-.9.5.7 1.5 5 3.1 12.9 4.6 16.9 6 17.2 6 .2 0 .6-4.1.9-9.1.7-9.1.2-11.6-3-14.7-.7-.7-1.3-1.8-1.3-2.3 0-1.3 2.8-1.1 3.2.2.3.8.9.7 1.9-.4 4.4-4.3 8.4-1.9 8.3 5.1m-1.4 56.3c0 .5-.6 1.2-1.4 1.5-.7.3-3 3-5.1 6s-4.1 5.4-4.6 5.4-1.5 1.2-2.3 2.7c-1.4 2.6-1.5 2.6-1.6.6v-2.1l-4.7 2.5c-2.7 1.3-5.2 2.9-5.8 3.5-.7.8-.6.8.4.3q1.35-.75.9.6c-.3.8-1.4 1.5-2.6 1.7-3.7.6-4.6 2.8-2.2 5.2l2.1 2.1 3.4-3.6c2-2.1 3.2-4.2 2.9-5-.4-.9 0-1.5 1-1.5.9 0 1.6-.5 1.6-1.1 0-.5.4-.8.9-.5 1.3.9.2 4.6-2.5 8.3l-2.4 3.2 2.4-.5c1.4-.2 4.6-1.5 7.3-2.8 2.6-1.4 6-2.8 7.5-3.1 1.6-.4 2.5-1.1 2.2-1.6s.4-.9 1.4-.9c1.1 0 3.9-1.6 6.2-3.5 5-4.2 7.5-4.7 3.8-.8-1.4 1.6-5.1 5.5-8.2 8.8s-5.6 6.5-5.6 7.2-.3 1.3-.8 1.3c-.4 0-3.9 2.5-7.7 5.6-3.9 3.1-8.1 6.1-9.5 6.7s-5.4 3.4-9 6.2-8.2 6.1-10.3 7.4c-2.5 1.5-3.6 2.9-3.3 3.8.4 1.1-.1 1.4-2.1 1.1-1.4-.2-2.9-.9-3.1-1.7-.3-.9 0-1.1.8-.6 1.9 1.1 2.8-1.2 3.7-9l.8-7 .5 5c.3 2.7.2 5.8-.3 6.7-.8 1.9.7 2.6 1.7.9.4-.5 5.6-4.4 11.6-8.6 6.1-4.3 11-8.1 11-8.6 0-1-5.5-4.9-6.9-4.9-.6 0-1.1-.5-1.1-1 0-.6.2-1 .3-1 .9 0 7.4 3.4 8.8 4.6 1.3 1.2 2.1.9 5.7-2.2 2.3-1.9 4.2-4.4 4.2-5.5s.4-1.8.9-1.5c.8.5 7.1-4.8 7.1-5.9 0-.2-2.9 1-6.4 2.6s-8.1 3.3-10.2 3.6c-2.2.3-4.6 1.5-5.6 2.6-1.2 1.6-1.9 1.8-3 1-1.3-1.1-6.6.5-32.2 9.6-9.6 3.4-13 3.7-4.4.3 8.8-3.4 17.8-7.7 17.8-8.5 0-.7-2.2-1.1-5-.8-1.2.2-1.2 0-.1-.7.7-.5.9-1.2.5-1.5-2.1-1.2-14.7-4.6-15.4-4.2-.5.3-1.3-.2-1.8-1.2-.8-1.3-.3-2.1 2.5-4 3.9-2.7 6.2-3.1 4.3-.8-.7.9-1 1.8-.6 2.2.3.3.6.1.6-.5 0-.7.9-1.2 1.9-1.2 2.2 0 4-2 1.9-2-.8-.1-.4-.8.9-1.9 1.4-1.2 3.2-1.7 4.5-1.4 2.3.5 2.3.5.3-1-2-1.6-1.9-1.6.8-1.7 1.6 0 3.7.5 4.9 1.1 3.3 1.8 7.8 2 7.8.4 0-1.7 6-2.1 7.6-.6 1.1 1.1 10.1-.4 12-2 .9-.7 1.4-3.4 1.4-7.5 0-3.4.5-6.6 1-6.9 1.1-.7 1.1-.5 1.2 7.2 0 2.9.3 5.3.6 5.3 1.2 0 8.2-7.5 8.2-8.8 0-.7.4-1.1.9-.8 1.2.8 3.4-2.1 2.6-3.3-.3-.7 0-.8.9-.5s1.6 1 1.6 1.5m528 277.3c0 1.3 2.7 3.1 4.2 2.8.7-.2 3.8 7.2 3.8 9.3 0 3.7 1.8.9 4-6 1.9-5.9 2.8-7.5 4.3-7.5 1.4 0 1.7.4 1.2 1.7-.4 1-2.1 5.7-3.8 10.4-3.1 8.5-3.1 8.5-1.3 12.3 1.4 2.9 1.5 4.1.6 5-.9.8-1.7.5-3.3-1.5-1.2-1.5-2.8-2.8-3.5-3-.7-.3-2.8-4.7-4.6-9.9-1.9-5.2-3.9-10.7-4.5-12.3-.9-2.4-.8-2.7.9-2.7 1.1 0 2 .6 2 1.4m22.8 10.3c-.6.7-.8 2-.6 2.9.2 1.4.8 1.3 3.8-1.2 1.9-1.6 2.9-2.1 2.2-1.3-1 1.4-1 1.8.4 2.3 2.5 1 4.6.7 3.9-.5-.4-.6-1.3-.8-2-.5-.7.2-1.2-.2-1.1-1.2 0-.9-.8-1.8-1.9-2-4.4-.7-5.1-1.3-3.2-2.3 2-1.1 7.7-.3 7.7 1.2 0 .5 1.1 1.1 2.5 1.5 1.3.3 2.9 1.2 3.6 2 .9 1.1 1.6.9 3.9-1.6 3.9-4.1 7.1-4.7 12.2-2 5.4 2.7 8.8 5.9 8.7 7.9 0 1.1-.3 1-.9-.4-.8-2.2-4-5.3-4-4 0 .5.6 1.6 1.4 2.4.7.9 1.6 2.7 1.9 4.1.6 2.3.5 2.2-.5-.3-1.4-3.2-2.8-3.5-2.8-.6 0 1.1-1.3 3.4-3 5.1-3.6 3.6-3.7 3.8-.6 3.8 1.5 0 3.3-1.1 4.5-2.6s2.1-2.3 2.1-1.8c0 1.8-4.5 5.4-6.7 5.4-1.5 0-2.2.4-1.7 1.1 1.1 1.8-3.6-1-8.6-5-3.8-3.1-5-3.6-7.5-3-1.6.4-2.6.7-2.1.8.4 0-.2 1-1.5 2-3.3 2.6-1.5 4 2.4 1.8l3.2-1.7-2.5 2.1c-1.7 1.5-3.2 1.9-5.3 1.5q-2.85-.6-2.1.6c.9 1.4-.7.5-5.4-3-2.2-1.7-3.1-3-2.7-4.1.3-.8.3-1.2-.1-.9-.8.8-3.4-1.6-3.4-3.2 0-.6 1-3.2 2.2-5.9 2.1-4.4 2.4-4.6 3.4-2.7.7 1.3.7 2.6.2 3.3"/><path d="M577.5 87.6c-3.8.7-12.2 1.9-18.5 2.9-6.3.9-18.2 2.7-26.5 4-8.2 1.3-16.7 2.6-18.8 2.8-2.1.3-4 .7-4.3.9-.7.8 26.3 11.7 29.4 12 1.7.1 2.9.5 2.6.9-.6 1 2.5 2.1 6.6 2.4 1.9.2 4 .4 4.5.5 2.9.7 5.4-.1 4.9-1.5-.4-.9 0-1.5 1-1.5.9 0 1.6-.5 1.6-1 0-.6 1-1 2.3-1 1.5 0 1.8-.3.9-.8-.7-.5-1-1.6-.6-2.5.3-1 .1-1.7-.5-1.7s-1.1-1.3-1.1-2.8c0-2.1.7-3.2 2.5-4 3.6-1.7 4.1-1.6 7.3 1.8l2.8 2.9 4-4.7c6.6-7.8 7.6-9.2 7.2-10-.2-.4-3.4-.2-7.3.4M457.6 88.1c.6.8 1.4 4.2 1.7 7.5.4 3.4 1.3 7.4 2.1 9 1.6 3.3 3.6 11.3 3.6 14.7.1 3.1 2.1 5.4 5.6 6.3 1.6.4 3.2 1.2 3.6 1.8.5.7.8.4.8-.7 0-1 .4-1.6.9-1.2.5.3 1.2.1 1.6-.5.3-.5.2-1-.4-1-.5 0-.3-1.4.5-3 1.9-3.6 2.8-3.9 2.2-.5-.3 1.3-.1 2.2.3 1.9.5-.3.9-1.2.9-1.9 0-.8 1.6-3 3.5-4.9 1.9-2 3.5-4.2 3.5-5.1 0-1 .5-1.3 1.2-.9.7.5.9.2.6-.7-.3-.8.1-2 .8-2.7.8-.7 1.4-.9 1.5-.5 0 .4.4-.2.9-1.5.5-1.2 1.8-2.5 2.7-2.9 2.1-.8 4.8-3.3 3.6-3.3-.5 0-1.4.5-2 1.1-.8.8-1.1.7-1-.6.2-1.4-2.3-2.4-12.8-5.2-7.1-1.9-15.2-3.8-18-4.2-2.7-.5-5.9-1.2-7-1.6-1.6-.7-1.8-.6-.9.6M584.2 93.1c-2.6 3.4-4.6 6.6-4.4 7 .1.5-.1.9-.5.9-.5 0-.9 1.4-1 3.1-.2 2.4.6 3.9 4.1 7.2 2.3 2.3 4.5 4.8 4.7 5.5.6 1.7 21.9 1.9 25.9.3 1.8-.7 2-1 .8-1-2.5-.1-2.3-2.1.2-2.1 1.3 0 2 .7 2 1.9 0 1.5.9 2 4.8 2.4 9.1 1 9.2.9 9.2-2.9 0-3 .3-3.4 2.8-3.5 2.7 0 2.7 0 .4-1-1.3-.5-2.8-.6-3.3-.3s-.8 0-.7-.7c.3-1.3-6.9-5.6-23.7-14.2-5.5-2.8-11.2-5.9-12.7-6.9-1.4-1-2.9-1.8-3.2-1.8s-2.7 2.8-5.4 6.1M432 98.6c-10.2 5.3-26.4 13.6-36 18.5s-18.3 9.5-19.4 10.3c-1.7 1.4-1.7 2 2.3 15.8 2.3 7.9 4.9 17.1 5.9 20.6 1.8 6.8 2.9 7.9 4.6 4.7.6-1.1 3.7-6.2 6.9-11.3s6.7-11.2 7.7-13.6c1.1-2.3 2.8-5.3 3.8-6.7 1-1.3 2.9-4.2 4.2-6.3l2.4-3.9-12.5.7c-6.8.4-12.2.5-11.9.2.3-.2 6.2-1 13.1-1.7l12.5-1.2 18.3-17.8C444 97 451.9 89 451.4 89s-9.2 4.4-19.4 9.6"/><path d="M453.5 91.8c-1.1 1-3.3 2.7-4.8 3.6-2.5 1.7-4 4.5-1.5 3 .7-.4.8-.3.4.4-.4.6-1.3.9-2 .6-1.3-.5-2.5 1.1-2.2 3 0 .5-.9 1.3-2.2 1.7-1.7.6-2.2 1.4-1.8 2.7s.1 1.9-.9 1.9c-.8 0-1.5-.5-1.5-1.1s-1.1.1-2.4 1.6-2.7 2.4-3.2 2c-.4-.4-.4.1-.1 1.1.4 1 .3 1.6-.2 1.3-.7-.5-9.1 7.6-9.1 8.7 0 .2.7.4 1.5.4.9 0 1.4-.6 1.1-1.4-.3-.7-.1-1.3.4-1.3.6 0 1 .4 1 .9s.9 1.3 2.1 1.6c1.5.5 1.8 1 1 1.8-1.7 1.7-1.3 2.7 1 2.7 1.3 0 1.8.4 1.3 1.2s0 .9 1.4.6c1.4-.4 2-.2 1.6.4s.2.8 1.6.3c1.4-.4 2-.3 1.7.3-.6.8 9.7 4.2 14.3 4.7.8.1 2.8.7 4.4 1.4 1.6.6 3.1.9 3.4.6s0-.5-.6-.5c-.7 0-1.2-.5-1.2-1 0-.6.7-1 1.5-1s1.5.5 1.5 1.2.3.8.9.2c1.3-1.4 2.1-7.3 1.1-7.9-.6-.3-1-2.1-1-3.9 0-4.1-.8-4.9-2.7-3-1.2 1.1-2.9 1.3-7.7.8-3.3-.4-6.3-1.1-6.4-1.5-.2-.5-.8-.7-1.3-.4-1.2.8-2.2-4-1.5-7 .4-1.4 1.3-2.5 2.1-2.5 1.8 0 2-1.6.3-2.3-1-.4-1-.6-.1-.6.6-.1 1.4.3 1.8.9.8 1.3 3.5.1 3.5-1.5 0-.8 1.7-1.6 4-2 2.5-.4 4-1.2 4-2.1 0-.8-.4-1.4-.9-1.4-.4 0-.6-1-.4-2.3.3-1.3.1-3.8-.4-5.6-.8-3.1-.8-3.2-2.8-1.3M670.1 133.2c1.3 1.3 4 4.8 5.9 7.8s4.1 6.2 4.8 7c3.3 3.8 10.3 13.5 14.7 20.5 2.6 4.2 5.3 7.5 5.9 7.3.7-.2 4.3-3.7 7.9-7.8 6.2-7.1 6.5-7.6 4.9-9.2-3-3.1-43.9-27.8-46-27.8-.3 0 .6 1 1.9 2.2M668.6 137.8c-.2.4-.3 3 0 5.7.4 4.9.3 5-1 2l-1.4-3 .4 3.5c1.6 12.8 2.3 21.4 2.9 35.4l.7 15.9 3 2.5c2.8 2.4 2.9 2.6 1.1 3.6-1 .6-1.9 1.8-2.1 2.6-.5 2.1 3.6-1.6 13-11.8 2.6-2.8 3.6-4.7 3.2-5.9q-.6-1.8.3-.6c.6.9 2.3-.3 5.7-3.8 2.7-2.8 4.5-5.4 4-5.7-.5-.4-2-2.8-3.4-5.3s-3.8-6.2-5.4-8.2c-1.5-1.9-2.7-3.9-2.6-4.3.1-.3-.2-1-.7-1.3-.9-.7-9.1-11.4-10.8-14-5.2-8.5-5.8-9.1-6.9-7.3M642 152.8c-4.7 5.2-9.6 10.6-11 12.1-1.3 1.4-2.3 2.9-2.2 3.3.1.5-.2.8-.8.8-1.9 0-10.8 10.3-10.2 11.8.4 1.1.1 1.4-1 1-1-.4-1.5-.1-1.4 1 0 .9-1 2.1-2.2 2.8-1.3.6-2.9 1.8-3.5 2.5-1 1.1-.9 1.1.6 0 1.4-1.1 1.7-1.1 1.7.2 0 .8-.6 1.7-1.2 2-.7.2 3.7 2 9.7 4 18 5.8 29.5 8.9 31.1 8.3.9-.3 1.2-.1.9.4-.3.6.1 1 .9 1 .9 0 1.6-.5 1.6-1 0-.6.8-1 1.8-1.1 1.4 0 1.4-.2-.3-.9-1.9-.8-1.9-.9.2-.9 1.2-.1 2.4-.7 2.6-1.4.4-.9.8-.9 1.4-.1.4.7 1.9 1.4 3.3 1.5 2.7.4 3.6-1.5 2.6-5.7-.5-2-1.1-2.3-3.9-1.8-1.7.3-2.8.2-2.2-.3.6-.4 1-1.5 1-2.3s1.1-1.6 2.3-1.8l2.4-.4-.6-13.6c-.3-7.5-.9-16.5-1.2-20l-.6-6.2h-4.5c-4.3 0-8-2-6.9-3.8.3-.5 0-.9-.7-.9s-5.1 4.3-9.7 9.5M711.9 167.2c-1.8 2.4-4.7 5.9-6.6 7.8l-3.3 3.6 4.3 6.3c2.3 3.5 4.7 7 5.2 7.9 4.2 6.8 8.7 13.1 10.9 15.1l2.6 2.4v-3.4c0-1.9-1.1-8.6-2.4-14.9s-3.2-15.4-4.1-20.3c-1-4.8-2.1-8.7-2.5-8.7-.5 0-2.3 1.9-4.1 4.2M379.9 184.7c-1.9 2.1-5.7 6.5-8.5 9.8-2.7 3.3-8.7 10.4-13.2 15.7-4.5 5.4-9.7 11.9-11.4 14.5-1.8 2.6-4.2 5.8-5.5 7-2.1 2-3.3 6-1.5 5 .4-.3 5-.8 10.2-1.2 19.5-1.4 21.5-1.8 21.8-4.1.2-1.2 1.1-2.4 2.2-2.7 1-.2 2-1.5 2.3-2.8.4-2.4.4-2.4.6-.2.1 3 1.8 2.9 8-.3l5.2-2.5-.6-9.2c-.4-5.1-1.1-11.6-1.6-14.6s-.9-7.5-.9-10c0-5.7-1.2-4.6-1.5 1.3-.1 2.5-.7 5.2-1.4 6-1.3 1.6-2.6 5.8-4 13.1-1.3 6.9-3.4 13.1-3.8 11.7-.6-1.7-2.3-1.5-2.3.3 0 .8-.4 1.5-1 1.5-.5 0-1-.9-1-2s.7-2 1.5-2c1.9 0 2.6-1.8 5.5-14 1.2-5.2 2.8-11.5 3.5-14 3.2-11.5 2.9-12.2-2.6-6.3M696.5 185.2c-2.1 2.4-7.7 8.3-12.4 13.3-4.8 4.9-9.1 9.5-9.5 10.2-.4.8.6 1.5 3.1 2.2 4.5 1.2 46.2 9.1 48 9.1 2.4 0-1-6.3-3.5-6.5-2.6-.2-4.3-1.5-1.9-1.5s2.2-.7-1.8-5.6c-1.9-2.3-3.5-4.6-3.5-5.1s-2.6-4.5-5.8-8.9c-3.2-4.3-6.1-8.7-6.5-9.7-1-2.6-2.1-2.1-6.2 2.5M392.2 187.6c-.9.4-1.1 3.2-.6 11.7.7 11.5 1.7 15.3 3.6 14.1.8-.5.9-.1.5 1-.4 1-.3 1.5.3 1.1.6-.3 1-1.2 1-2 0-.7.6-2 1.3-2.7s1.6-2.1 2-3.1 1.1-1.5 1.7-1.2c.5.3 1 0 1-.8s.7-1.7 1.5-2.1c.9-.3 1.5-2 1.6-4.3.1-2.1.3-3 .6-2 .4 1.4.8 1.6 1.9.6.7-.6 1.1-1.5.8-2s-.1-.9.5-.9.8-.7.5-1.5c-.4-.8-1.2-1.5-1.9-1.5s-1.8-.7-2.5-1.5-1.6-1.3-2-1c-.5.3-1 .1-1.2-.5-.4-1.1-8.7-2.2-10.6-1.4"/><path d="M593.5 193.1c-2.7.5-25.2 4-49.9 7.9-24.7 3.8-45.4 7.4-45.9 7.9s1.4 2.5 4.5 4.7c6.7 4.8 41.8 32.1 55.9 43.4 27.5 21.9 44 34.2 45.5 33.6.8-.3 1.4.1 1.4.8 0 1.7 3 2.2 16.7 2.5 5.9.1 13 .7 15.7 1.2s8.8.9 13.7.9h8.8l-.9-2.9c-.9-3.1-4.9-11.3-9.9-20.4-1.8-3.1-3-5.7-2.7-5.7s3.4 5.1 6.9 11.2c7.9 14.1 9 15.8 9.9 15.8.4 0 .5-.8.2-1.8-.5-1.4-.4-1.4.4-.2.6.8.9 1.7.6 2.1-.2.4 0 1 .4 1.3.5.3 4.8-3.8 9.4-9.2 4.7-5.3 9.6-10.8 10.9-12.2s4.4-5 6.9-8 4.7-5.7 5-6c1.1-.9 16.5-19 19.8-23.3 1.8-2.3 5-6.2 7-8.6s3.8-4.7 4-5.1c.1-.4-3.9-1.5-9-2.4-5.1-1-13.6-2.6-18.8-3.6-23.9-4.7-28.2-5.3-29-4-.4.6-1 6.4-1.4 12.8-.3 6.5-1.1 16.6-1.6 22.7-.5 6-1.5 17.1-2.1 24.5s-1.5 14.2-2 15c-.6 1-.8 0-.5-3 2.2-19.6 3.5-36.7 5.1-64.2.5-8.6.3-9.7-1.2-10.2-1-.2-7.6-2.2-14.8-4.4-7.1-2.2-18.4-5.4-25-7.2s-13.3-3.6-14.9-4.1c-4.2-1.3-4.4-1.2-3.8 1.8.6 2.9 7.8 17.5 11 22.1 2.6 3.8 11.6 21.1 9.6 18.7-2.9-3.7-17.6-29.5-21.3-37.3-2.2-4.7-3.1-4-3.1 2.5 0 3.1-.2 5.4-.4 5.2-.4-.4-1.5-10.2-1.6-13.7 0-2.5-1-2.6-9.5-1.1M488.9 209.9c1.2.8 1.2 1.2.2 2.5-1.5 1.8-4.5 1-3.7-1 .4-1.1-.7-1.4-5.2-1.4-10.8.1-34.2 2.7-34 3.9.1.3-.2 1.4-.7 2.4-.4 1-.5 3.6-.2 5.7.3 2.7.1 4-.6 4-.8 0-.8.3-.2.8.7.5.8 10.9.5 30.7-.3 16.5-.4 30.5-.2 31.2.3.9.8.9 2.4 0 2.4-1.4 6-8.1 5-9.2-.4-.5-.2-.5.4-.2.6.4 2.9-2.6 5.5-7.1 2.4-4.2 6-10.4 8.1-13.6 2.1-3.3 3.8-6.9 3.8-8.2 0-1.4 1.8-4.2 4.5-6.9 2.4-2.6 4.9-6.1 5.4-8 .5-1.8 2.3-5.3 3.9-7.8 2.7-3.8 6.8-12.1 8.4-16.7.4-1.1-.2-1.6-2.1-1.8-1.9-.1-2.2.1-1.2.7M497 212.7c-.2 4.1.3 108.7.5 111.6.2 2.1.5 4 .7 4.2.5.5 25.6-7.7 59.8-19.5 14.6-5.1 30.4-10.6 35.3-12.2 4.8-1.7 8.7-3.4 8.7-3.9 0-.4-1.2-1.6-2.6-2.6-5-3.5-19.9-14.7-23-17.2-5.5-4.5-6.7-5.5-17.8-13.6-6-4.4-13-9.8-15.6-12-8.8-7.6-10.2-8.6-25.3-20.3-16.7-12.9-20.7-15.6-20.7-14.5M493.4 215.5c-.5 1.1-2.6 4.6-4.7 7.7-4.2 6.4-11.2 20.8-12.3 25.1-.3 1.6-1.6 3.5-2.9 4.3-1.9 1.2-4 4.4-11.9 17.7-1 1.8-4 7.4-6.7 12.4-2.6 5.1-5.7 10.6-6.9 12.3-2.3 3.2-2.1 6 .4 6 .8 0 2.7 1 4.3 2.3 2.8 2.3 41.5 24.7 42.7 24.7.8 0 .6-89.4-.3-103.5-.5-8.1-1-10.5-1.7-9M440.7 223.9c-.2 1.1 0 2.2.6 2.4s.7.9.3 1.5c-.5.9-1.2.9-2.8.1-1.8-1-2.4-.8-3.9 1.2-.9 1.3-1.5 2.7-1.3 3.1.3.5-.2 1.1-1.1 1.4-1.3.5-1.4.8-.3 1.5 1 .6.9 1.1-.6 2.2-1.1.8-1.6 1.9-1.2 2.5.4.7.3 1.2-.3 1.2-.5 0-1.2-.6-1.4-1.3-.3-.7-.6-.5-.6.5-.1 1-.5 1.8-1.1 1.8-.5 0-.7.7-.4 1.5.4.8.1 1.5-.6 1.5-2.6 0 .6 11.5 7 25.5 1.3 2.7 3.1 7.2 4 9.9 1.1 2.9 2.5 5.1 3.4 5.2 1.3.2 1.6-1 1.7-7.4 0-4.3.2-10.2.5-13.3.4-5 .2-5.7-1.5-6.2-1.1-.3-2.2 0-2.5.7-.3.8-.7.7-1.4-.2-.5-.8-1.2-1.3-1.6-1.3-2 .3-2.6-.1-2.6-1.9 0-1.2.7-2 1.8-2 1.4 0 1.5-.2.2-1-1.2-.7-1.3-1.3-.3-2.8 1.4-2.3.6-3.7-2.6-4.7-2.2-.7-2.2-.8-.7-1.7 2.4-1.3 4.4-.3 4.8 2.4.2 1.7 1 2.3 2.9 2.4 2.5.1 2.7-.2 3.3-6.5.8-9.2.7-17.4-.3-18.9-.6-1.1-.9-.9-1.4.7M381 230.1c-3 1.7-5.8 3.6-6.3 4.3-.8 1.2-.1 9.1 1.5 17.6l1 5.4 3-6.4c4.9-10.9 8.9-24 7.1-24-.4 0-3.3 1.4-6.3 3.1M392.7 227.9c.2.2-.3 1.1-1 1.9-.6.8-2.2 4-3.3 7.1-1.2 3.1-3.1 8.1-4.3 11.1s-2 6.2-1.9 7-.1 2.1-.5 2.7c-1.2 1.8 1.4 1.6 4.1-.3 1.3-.9 3.3-1.4 4.4-1 2.4.6 11.8-3.1 11.8-4.6 0-.5.4-.7.9-.3 1.4.8 6.1-1.6 5.4-2.8q-.45-.9.6-.3c.6.4 2.3 0 3.7-.9 1.3-.9 3-1.3 3.7-.9s.4-.1-.5-1.1c-1.5-1.6-1.9-1.6-3.4-.4-1 .8-1.5.9-1.1.2s0-1.3-1-1.6c-1.4-.4-1.3-.5.5-.6l2.2-.1-2-2c-2.1-2.1-3.5-2.7-2.5-1 .3.6-.1 1.3-.9 1.6-1 .4-1.6 1.8-1.6 3.9 0 2.7-.4 3.4-2.5 3.7-2 .4-2.5.1-2.5-1.4 0-1-1.1-2.4-2.5-3-2.7-1.2-3.4-3.8-1-3.8.8 0 1.5.6 1.5 1.2 0 .7 1.1 1.3 2.5 1.3 1.8 0 2.7-.7 3.5-2.9 1.3-3.8 1.3-3.8-1-3.1-1.1.4-2 .2-2-.4s.5-1.1 1.2-1.1-.8-1.5-3.2-3.3c-2.5-1.7-4.6-3-4.7-2.7s-.8-.2-1.5-1-1.2-1.3-1.1-1.1M412.5 251.1c-3.8 1.7-9.3 3.7-12.2 4.5-2.8.8-7.9 2.8-11.2 4.4-3.4 1.7-6.6 3-7.2 3-4 0 3.4 4.7 16.3 10.6 3.9 1.7 26 13.5 29.8 15.8 4.1 2.6 10.4 5.6 11.7 5.6.4 0 .2-.4-.6-.9s-1.5-2-1.5-3.3c-.1-1.2-.4-2.8-.7-3.3-.4-.6-1.2-2.8-1.9-5s-1.8-5.4-2.6-7c-.7-1.7-3.2-8-5.5-14-4.1-10.8-5.5-13.6-6.8-13.4-.3 0-3.7 1.4-7.6 3M368.8 269.2c-2.4 1.8-6.2 4.6-8.6 6.2-2.7 1.8-4.2 3.6-4.2 4.9 0 2.4 9.8 12.3 11 11 .6-.8 8-23.4 8-24.7s-2-.5-6.2 2.6M605.8 295.8c-3.1.4-12.1 8.9-11.1 10.5q.45.9-.6.3c-.8-.5-4.8 2.7-10.9 8.6-9.1 8.8-15.2 14.6-26.2 24.6-2.5 2.2-4.3 4.3-4 4.5.3.3 6.4-.8 13.5-2.4 7.2-1.6 19.5-4.2 27.4-5.9 7.9-1.6 14.5-3.1 14.7-3.2.5-.5-1.6-17.4-2.7-22.6-.7-2.8-1-5.5-.7-5.8.7-.6 3.5 12 4.3 19.7 1 8.4 1.4 8.7 7.6 5 11.5-6.9 40.9-27.9 40.9-29.3 0-.5-1-.8-2.2-.8-1.3 0-6.6-.5-11.8-1.1-11.6-1.2-34.5-2.5-38.2-2.1M591.5 299.1c-2.7 1-12.9 4.6-22.5 7.9-46.5 15.8-67.4 23.1-67.9 23.6-.3.3.1.9.9 1.5 1.1.7.8.8-1.1.4-2.5-.6-2.5-.5-3.7 7.2-.7 4.3-1.4 10.9-1.7 14.8-.3 3.8-.9 8.8-1.5 11-1.2 5.1-1.3 8.5 0 8.5 1.7 0 7.9-4.7 7.2-5.5-.4-.5-.2-.5.5-.1 1.5.9 6.5-2.3 5.7-3.6-.3-.5 0-.9.7-.7 2.7.3 4.8-.1 6.1-1.4.7-.6 3-2.1 5.1-3.2 2-1.1 3.7-2.3 3.7-2.8 0-.4.4-.6.8-.3.5.3 4.9-1.5 9.8-3.9s9.4-4.5 10-4.5c.7 0 1.4-.7 1.8-1.5.3-.8 1.3-1.5 2.1-1.5.9 0 6.9-4.8 13.3-10.7 16.9-15.6 38.5-37.3 37-37.3-.7.1-3.5 1-6.3 2.1M433 301.1c-4.7.4-14.3.8-21.5.9-7.1.1-13.3.4-13.7.6-.8.5 7.1 15 13 23.6 2.6 3.6 5 6.4 5.4 6.2.4-.3.8.2.8 1 0 2.3 3.7 2 5-.3.5-1.1 2.4-3.5 4.1-5.3l3-3.3-3.5 7.4c-3.8 7.9-3.7 8.5 1.6 10.8 2.4 1.1 21.5 5.3 23.8 5.3.5 0 .7-2.6.4-5.8-.3-4-.2-5.1.5-3.7.5 1.1 1 2.9 1 4 .2 4.3 1.4 4.6 7.7 2.1C481.9 336 493 331 493 330.1c0-.6-16.9-11.3-22-13.9-4.9-2.6-18.5-10.6-20-11.7-.8-.7-2.9-1.5-4.7-1.8-3-.6-3.3-.3-7.5 6.4-7.8 12.6-7.6 10.2.2-3.2 1.7-2.8 3-5.2 2.8-5.3s-4.1.2-8.8.5M645.2 318.8c-7.1 1.9-13.2 7.2-13.2 11.5 0 1.3-.3 2.7-.7 3.1-.4.3-1.2 2.2-1.9 4.1-1.1 3.3-1 3.5 1 3.7 2.1.1 3.4 0 7.1-.6 2.1-.3 9.3-3.5 13.5-6 5.8-3.3 10.1-4.6 15.7-4.5 5.9.1 11.3-1.3 11.3-3 0-1-6.8-3.4-12.7-4.6-3.6-.7-4.5-2.5-1.3-2.5 1 0 4.4.9 7.5 2.1s5.8 1.9 6.1 1.6c1.1-1.1-1.1-3.8-3.5-4.3-1.4-.3-3.6-1.1-4.9-1.7-1.7-.8-3.5-.7-7.7.7-5 1.5-5.4 1.9-4.5 3.7 1.3 2.3.7 2.5-1.4.3-1.5-1.4-1.9-1.3-4.5.5-1.6 1.2-3.3 2.1-3.7 2.1s-2 1.2-3.6 2.7c-1.5 1.4-3 2.4-3.3 2.1s2-2.5 5.2-4.9c5.9-4.5 7.3-5.8 7.3-7.2 0-.9-.1-.9-7.8 1.1M321 319c0 2.7 11 27 12.3 27 .4 0 .7-.8.7-1.8s.4-2.2 1-2.8c.5-.5 1.3-3 1.6-5.6l.6-4.6-5.3-4.1c-3-2.3-6.6-5.3-8.1-6.7-1.6-1.4-2.8-2-2.8-1.4M486.5 336.3c-16.3 6.8-21.7 9.6-21.1 11.2.3.9-.3 1.9-1.4 2.5-1.6.9-2 .8-2-.5 0-1.9-2.4-2-3.9-.2-.8 1.1 0 2.1 4.1 4.7 2.8 1.8 5.8 4.1 6.6 5.1.9 1 2.2 1.4 3.5 1.1 1.6-.4 1.9-.2 1.3 1.3-.5 1.4-.4 1.6.7.6 1.1-.9 2-.7 3.8.9 1.4 1.1 1.8 1.9 1.1 2-.7 0-1 .5-.7 1 .4.6 1 .8 1.5.5.4-.3 1.6-.2 2.6.2 1.5.5 1.5.7.2 1.2-1.1.5-.7 1.2 1.9 2.8 1.9 1.3 3.1 1.8 2.8 1.3-.3-.6-.2-1 .3-1 .9 0 1.8-2.3 2.8-7.4 1-5.4 3.5-26.9 3.2-28.4-.3-1.6-.9-1.5-7.3 1.1M422.5 347.1c.3 1.2 1.1 2.9 2 3.9 1.9 2.1 1.9 3-.1 3-1.3 0-1.5.6-.9 2.7.8 3.4.9 6.1.2 8.8-.3 1.1-.6 2.6-.6 3.2-.1.7-.8 1.3-1.6 1.3s-1.5.8-1.5 1.7c0 1-.3 2.9-.6 4.3-.4 1.5-.2 2 .3 1.3.6-.8 1.4-.9 2.3-.3 1.3.8 1.3 1 .1 1-.8 0-1.1.3-.8.7.4.3 5.3-3.9 11-9.4 5.6-5.5 12.1-11.7 14.5-13.8 6.9-6.1 6.7-6.3-11.3-9-13.2-2-13.5-2-13 .6M452.8 353.2c-.5 4.6-.8 6.9-1.1 11.6-.2 3-.9 5.7-1.5 6.1-2.4 1.5-9.4 31.1-7.3 31.1.9 0 17.2-8.8 27.6-14.9 3.8-2.3 7.5-4.1 8.1-4.1s2.7-1.2 4.6-2.8c3.2-2.5 3.4-2.9 1.9-4.2-.8-.8-1.9-1.4-2.3-1.3-.5.2-.8-.4-.8-1.2s-.9-1.5-2-1.5-2-.4-2-.8c0-1-5.1-3.7-6.3-3.4-.4.1-1.1-.6-1.4-1.5-.8-2.2-1.4-2.8-8.3-8.1-3-2.3-6-4.6-6.7-5.2-1.6-1.3-2.3-1.3-2.5.2M441.2 363.8c-9.2 9.2-14.1 14.8-10.9 12.3 1.5-1.2 1.7-1.1 1.7 1.3s.4 2.7 2.8 2.4c2.3-.3 2.7 0 2.5 2.2-.1 1.4 0 1.9.3 1.2.8-1.7 3.4.3 3.4 2.6 0 1.7 1 1.1 1.4-1 .2-.7.6-2 .9-2.8 1.3-3 2.5-10.3 2-11.6-.3-.8-1.1-1.4-1.9-1.4-2.1 0-1.7-1.8.6-3 1.1-.6 1.8-1.5 1.5-2.1-.4-.5.1-.9.9-.9.9 0 1.6-.2 1.6-.4s.7-2 1.5-4 1.3-3.6 1-3.6-4.5 3.9-9.3 8.8M361.8 385.2c-.7 2.2.5 18.3 1.8 23 .1.5.2 1.2.3 1.8.1 1.3 3.1 1.3 3.1.1 0-.6 3-4.4 6.6-8.5s6.3-8 5.9-8.5c-.5-.9-6.7-3.1-8.7-3.1-.4 0-1.2 2.6-1.8 5.7-.6 3.2-1.8 7.1-2.5 8.8-1.8 3.8-1.9 2.4-.1-4 .7-2.8 1.1-6.7.8-8.5-.5-3.8-4.7-9-5.4-6.8M399.1 391c-7.8 1.2-14.1 3.1-14.2 4.4-.1 2.3.2 20.1.4 20.2.1.1 4.4-.4 9.6-1.1 9.4-1.2 12.1-2.6 12.1-6.2 0-.8.9-4.1 2-7.4 3.5-10.2 3.4-10.1-14.3 6.9-4.3 4.1-8.1 7.2-8.4 6.8-.4-.4 1.1-2.3 3.2-4.3 2.2-1.9 7.9-7.3 12.6-11.9 9.7-9.4 9.8-9.2-3-7.4M415.6 392.5c-.9.9-1.6 2.1-1.6 2.7 0 .5-.7 2.4-1.5 4.1-.8 1.8-2.1 5.4-2.9 8.1-1.5 4.8-1.4 4.8.7 4.3 6.5-1.4 22.3-6 23-6.6.4-.4-1.8-2.7-5-5.1s-6-4.6-6.3-4.9-1.5-1.4-2.6-2.4c-2-1.7-2.3-1.7-3.8-.2M341.9 444c-.3 6.7-.6 8.7-1.4 11-.8 2.5-.9 2.5-1.4.3-.6-2.1-1.1-1.9-11.8 4-6.2 3.4-11.1 6.2-11 6.3s1.4.4 3 .8c2.1.5 2.7.3 2.7-1 0-1.6.2-1.6 1.8-.1.9.8 3.5 1.9 5.7 2.2 2.2.4 4.8 1.2 5.8 1.7.9.5 1.7.7 1.7.6 0-.2.7-2.1 1.5-4.3 1.1-3.2 1.4-3.5 1.4-1.5.1 1.4-.5 4.3-1.2 6.5-1.1 3.3-1.1 7.7-.1 24.5.7 11.3 1.3 21.6 1.3 22.9.1 1.9.4 2.1 1.5 1.2.8-.7 1.8-2.6 2.1-4.3.4-1.7 2.6-7.9 5-13.9 4.5-11.4 4.5-11.6 2.4-22.9-.6-3-1.3-7.3-1.6-9.5-1-7.9-4.5-22.3-6.1-25.1-1.1-1.8-1.1-1.7-1.3.6"/><path d="M297.1 452.4c-1.2 1.4 2 3.9 12.2 9.5l3.9 2.2 6.6-3.4c14.2-7.1 13.9-6.9 11.7-7.8-3.3-1.3-4.5-1-4.5 1.1 0 1.3-.7 2-2 2-1.1 0-2-.7-2-1.5 0-2-6.9-3.2-8.1-1.4-.7 1.2-.9 1.2-.9 0 0-1-1-1.2-4.4-.7-2.7.4-4.7.3-5.1-.4s-1.2-.7-2.5 0c-2.4 1.3-4.3 1.3-3.5 0 .9-1.5-.1-1.2-1.4.4M965.8 133.3c-6 1.8-10.8 3.4-10.8 3.7s8.1 8.6 18 18.5c15.2 15.1 18 17.6 18 15.5.1-2.3.2-2.3 1.5.7.8 1.8 2.1 3.3 3 3.3 2.8 0 22.5-8.1 22.5-9.2 0-1.8-31.6-31.8-36.4-34.5-2.9-1.7-3.6-1.6-15.8 2M936 144.6c-8.5 3.6-15.9 6.9-16.4 7.4s5 2.7 12.5 5c7.4 2.2 19.9 6.2 27.9 8.7 8 2.4 17.2 5.3 20.5 6.3s6.9 2.1 8 2.6c2.5.9 4 2.5-16.9-18.5-9.9-10-18.5-18.1-19-18.1-.6 0-8.1 3-16.6 6.6M920.6 157.5c.9 1.4 2 2.5 2.5 2.5s.9.5.9 1.1c0 2 6.1 9.9 7.2 9.3.6-.4.8-.3.5.4-.4.5-.4 1.8-.1 2.7.5 1.1.9 1.3 1.4.5.8-1.2 4-.3 4 1.2 0 .6-.7.8-1.5.4-.8-.3-1.5-.1-1.5.5s.9 1.3 2.1 1.6c1.3.4 1.6.8 1 1.3-.8.4-.4 1.3 1 2.6 1.3 1 1.9 1.3 1.5.6-.4-.6-.5-1.2-.2-1.2s1 1 1.7 2.1c.7 1.5.8 1.9 0 1.5-.7-.5-.9-.1-.5.9.4.8 1.1 1.5 1.8 1.4 2.8-.3 3.6.3 3.6 3.1 0 2.2.5 3 1.8 3 1.2 0 1.4.3.4.8-.9.6.8 3.5 6 10.5 4 5.3 9.5 12.8 12.3 16.7 2.7 3.8 5.2 6.6 5.6 6.2.3-.4 2.9-7 5.8-14.7s6.9-17.7 8.8-22.3c3.2-7.7 3.8-12.2 1.3-10.7-.5.3-1 .1-1-.6s.8-.9 2.1-.6 1.8.2 1.3-.3-2.1-1.2-3.5-1.5c-2.3-.6-2.8-.2-3.7 2.3-.8 2.4-1.7 3-4.9 3.4-4.1.6-6.7-.7-5.9-2.9.3-.7-.1-1.3-.9-1.3s-1.5.4-1.5 1c0 .5-1.3 1-3 1-3 0-3.2-.7-2.1-7.1 0-.4.8-1 1.7-1.3.8-.3 1.2-.2.9.4s.1 1 .9 1 1.7-.4 2.1-.9c.5-.9-9.5-4.4-10.3-3.6-.2.2.4 1.7 1.2 3.4 1.7 3.2 2.2 5.5.6 3.1-.7-1.2-1.2-1.2-2.2-.2-.6.6-2.2 1.2-3.4 1.2s-2.5.6-2.8 1.2c-.6 1.7-4.7-2.8-4-4.5.2-.7 2.5-1.8 5-2.5s4.2-1.6 3.9-2.2c-.3-.5-7-2.9-14.8-5.4-18-5.7-20.2-6.2-19.3-4.8.5.8.2 1-.8.6-.9-.3-1.4-1-1.1-1.4s-.2-1.1-1.1-1.4c-2.5-.9-2.6-.8-.8 1.9M1008.5 172.1c-5.5 2.1-10.4 4-11 4.2-1.7.8 1.6 3.3 15.5 11.7 7.4 4.6 16.4 10 19.9 12.1 3.5 2.2 6.6 3.7 6.9 3.4 1.2-1.2-18.2-35.6-20.1-35.4-.7.1-5.7 1.9-11.2 4M927.6 180.5c-1 .8-3.7 1.6-5.9 2-5.6.9-9.7 2.7-9.7 4.2 0 .7-.9 1.3-2 1.3-1.4 0-2-.7-2-2.2 0-1.6-.3-1.9-1.1-1.1-.6.6-1.3 4.8-1.5 9.4-.2 4.5-.6 8.4-.9 8.7-1 1 6.3 2.9 9.4 2.4 1.7-.2 4.7-.1 6.6.2 3.1.6 3.5 1 3.5 3.9 0 5.8 2 8.5 7.5 10.2 17.6 5.4 25.2 7 27 5.5.7-.5 2.4-1.1 3.8-1.2 2.9-.2 2.9-.2-2.5-7.4-3.3-4.5-4.3-5.2-6.9-5-3.5.3-4.6-1.4-2.9-4.1 1.1-1.7 1.1-1.7.6.1-.5 1.3-.2 1.7.8 1.3.8-.3 1.7.1 2 1 .4.9.9 1.3 1.2 1 1.2-1.1-3.8-6.5-5.7-6.2-1.1.2-1.9 0-1.9-.6 0-.5.7-.9 1.5-.9 1.3 0 1.3-.3.3-2-.7-1.1-1.9-1.8-2.6-1.5-.7.2-1.5-.2-1.8-.9-.3-.8-1.4-1.6-2.5-1.9-1.3-.4-1.7-1-1.2-2.2.6-1.7.7-1.7 2 .1.7 1 1.3 1.3 1.3.7 0-1.8-2.7-3.6-3.5-2.2-.9 1.3-2.5-.6-2.5-3 0-1.1.3-1.1 1.7 0 .9.8.2-.8-1.7-3.4-4-5.6-7.1-8.6-5.2-5q2.55 4.65-.6 1.5c-1.1-.9-1.7-2-1.5-2.4.7-1.4-1.3-1.6-3.1-.3M1005.2 190.2c10.1 12.7 25.1 30.2 26.2 30.6.4.2 3.3-2.4 6.4-5.8l5.6-6.2-2.4-1.8c-1.2-.9-8.4-5.4-15.9-10-7.5-4.5-16.6-10.2-20.3-12.6s-7-4.4-7.3-4.4 3.2 4.6 7.7 10.2M990.5 187.5c-1.5 3.3-5.1 12.7-8.1 21-3 8.2-6.1 16.3-6.9 18-.7 1.6-1.3 3.1-1.1 3.2.5.5 32.5 7.3 34.4 7.3 1.8 0 1.9-.2.5-4.8-3.5-11.3-7.8-22-8.4-21-.4.6-1.4.8-2.3.5-1.8-.7-2.2-2.7-.5-2.7.5 0 .7-.5.4-1-.3-.6.1-1 1-1 1.8 0 1.7-.7-3-15.4l-3.3-10.1zM998.6 192.2c1.9 5.7 4.6 14.1 5.9 18.8 2 7.1 6 19.6 8 24.8.4 1 1.4.6 3.9-1.5 1.9-1.5 5.7-4.6 8.4-6.8 2.8-2.2 5.1-4.4 5.2-4.9 0-.8-7.1-9.5-14.2-17.1-2-2.2-5.6-6.5-8-9.6-4.7-6.2-11.6-13.9-12.2-13.9-.3 0 1.1 4.6 3 10.2M1038.2 216.7c-5 5.8-5.2 6.3-4 9 1.8 4.1 11 20.4 11.4 20.1.2-.3-1-21-1.9-32.2-.2-3-.2-2.9-5.5 3.1M1027.9 226.6c-1.3 1.5-4.8 4.4-7.6 6.6-2.9 2.1-5.3 4.3-5.3 4.8s4.5 2.3 10.1 4c5.5 1.7 12.1 4 14.6 5.1s4.8 1.8 5 1.5c.2-.2-1.7-3.9-4.2-8.1-2.6-4.2-5.6-9.7-6.6-12.1-1.1-2.4-2.3-4.4-2.8-4.4-.4 0-1.8 1.2-3.2 2.6"/><path d="M1046.6 235c.3 6.3.9 13.1 1.4 15s2.3 8.6 3.9 14.9c1.7 6.3 2.9 11.7 2.6 11.9-.2.3-.6-.1-.9-.9-.2-.8-1.9-6.2-3.8-12l-3.4-10.7-7.2 6.5c-4 3.6-7.2 7-7.2 7.7 0 .6 2 2.2 4.5 3.6 2.4 1.3 4.2 2.6 4 2.8s-2.3-.8-4.8-2.2c-2.4-1.4-4.8-2.6-5.3-2.6s-2.2 3.3-3.6 7.2c-4.1 11-10.5 28.1-11.4 30.2-.9 2.2 2.2.7 23.1-11.8 15.9-9.6 16.9-10.4 15.2-12.4-.7-1-.8-1.3-.1-.9 1.2.7 3-7.5 2-9.1-.2-.4-.7-3.6-1-7-.4-4.6-1.2-6.8-2.8-8.4-1.9-1.9-2-2.3-.7-2.6 1.1-.2 1.5-1.1 1.2-3-.9-5.4-3.3-16.8-4.7-22.2-1.5-5.5-1.5-5.5-1 6M974 233c0 .5 6.3 13.4 13.9 28.7 7.7 15.2 13.8 27.9 13.6 28.1-.4.4-10.4-18.5-20.8-39.3l-7.5-14.9-.6 6.4c-.7 8.5-2.4 41.5-3.1 61-.3 8.5-.8 18-1 21-.8 8.6-.1 8.9 9.6 3.8 4.6-2.5 13.9-7.3 20.7-10.8 6.7-3.5 12.2-6.7 12.2-7.3 0-.5-2-4.8-4.5-9.5-2.6-4.6-4.4-8.6-4.1-8.9.2-.2 2.1 2.7 4.3 6.6 2.1 3.9 4.1 7.1 4.6 7.1.8 0 .5-64.5-.3-65.4-.3-.2-7.3-1.8-15.5-3.5-20.7-4.1-21.5-4.2-21.5-3.1"/><path d="M1015 241.7c0 .5 2.3 4.6 5.1 9.3s6 10.2 7 12.3l2 3.8 5.5-5c6.6-6 10.8-11 10.1-11.7-1-1-25.8-9.4-27.8-9.4-1 0-1.9.3-1.9.7M1013.1 274.4c-.1 17.6.1 31.7.4 31.5.7-.7 13.2-33.1 13.8-36 .5-1.9-.8-5-5.8-13.5-3.5-6-6.8-11.6-7.4-12.4-.7-1-1 8.9-1 30.4M1057 276.1c0 2.4.4 5.6 1 7.3.5 1.7 1.9 7.7 3.2 13.3 1.2 5.7 2.6 10.3 3 10.3 1.8 0 .6 5.3-2.6 11.7-3.9 7.7-6.6 14.1-6.6 15.4 0 .5.9.9 2 .9s2-.5 2-1c0-.6.3-.9.8-.9 1.7.3 2.6-.2 1.5-.9-.8-.5-.8-1.9.2-5.7l1.3-5 .7 4.7c.4 2.6.4 5.6.1 6.5-.5 1.2-.4 1.5.3.8.6-.6 1.3-5.4 1.7-10.8.4-5.3 1.1-9.7 1.5-9.7.5 0 .9-1.6.9-3.6s-.4-3.3-1-2.9c-.5.3-1.3-1.1-1.9-3.2-2.8-11.5-3.4-14-3.6-15.9-.1-1.1-.5-2.5-.9-3.2-.4-.6-1-3.4-1.3-6.2-.7-6.3-2.3-7.6-2.3-1.9M1044.5 292.8c-6.6 4.2-8.4 5.8-7 6q4.5.9 4.5 4.8c0 2.7-2 4.4-2.1 1.7 0-1.6-.1-1.6-.9.2-.6 1.4-.9 1.5-.9.5-.1-.9-1-2.3-2.1-3.3-1.2-1-1.8-2.2-1.5-2.7.3-.6.4-1 .2-1-1 0-17.8 10.2-17.5 10.6.2.2 6.5 1 13.9 1.8 7.3.9 14.8 1.8 16.5 2.2l3.1.6 1.7-10.4c2.7-16.3 2.7-16.8 1.9-16.7-.4 0-4.8 2.6-9.8 5.7M1014 311.4c0 .2.7 2 1.6 4.1.8 2 1.3 3.9 1.1 4.1-.2.3-1-.9-1.7-2.6-.7-1.6-1.6-3-2.1-3-.4 0-1.3 2.6-1.9 5.7-.6 3.2-2.2 11.1-3.6 17.6-1.3 6.4-2.4 11.9-2.4 12.2 0 .8 5.3.5 9.1-.5 4.9-1.4 7.9-4.2 7.9-7.4 0-1.4.5-2.6 1-2.6.6 0 1 .6 1 1.4s.5 1.8 1.2 2.2c.7.5.9.2.5-.7-6.4-15.4-9.7-25.9-4.1-13.4 3.7 8.6 5.4 10.8 7 9.4.8-.6 1.4-.8 1.4-.4 0 .5.9 0 2-1 2-1.8 2.1-1.8 1.4 0-1.1 2.8 5.5-4.9 10.9-12.8 4.8-6.9 5.5-8.7 3.6-8.7-1.2 0-24.3-2.7-30.1-3.5-2.1-.3-3.8-.3-3.8-.1M991.3 322.8c-11.2 5.9-20.3 11-20.3 11.4 0 .6 5.8 3.5 27.4 13.9 2.2 1.1 4.1 1.9 4.2 1.9.4 0 2.2-6.5 3.8-14 .9-4.1 2.5-11.2 3.5-15.8 1-4.5 1.8-8.2 1.7-8.1 0 0-9.2 4.9-20.3 10.7M947.5 340.1c-7.7 2-15.5 4-17.4 4.6l-3.5.9 5.5 2.7c3 1.5 8.8 4.8 12.9 7.4 7.8 4.8 26 15.3 26.6 15.3.1 0 .1-1-.2-2.3-.2-1.2-1.3-8.5-2.4-16.2s-2.2-14.5-2.5-15.2c-.6-1.7-3.3-1.3-19 2.8M969.6 342.3c.5 6.7 3.1 23.1 4 26 .6 1.9 4.1 1.9 3.7 0-.1-.6.5-1 1.5-.9 1.2.1 1.8-.8 2-2.7.4-3.1 2.6-4.6 6.9-4.5 2 .1 4.6-1.2 8.1-3.8 2.8-2.1 5.1-4.1 5.1-4.4s-4.6-2.7-10.2-5.4-12.8-6.2-15.9-7.7l-5.8-2.8zM1006.8 351.7c-2.3.6-2.3.8.9 5.1 3 4 20.5 25.2 20.8 25.2.5 0-1.8-10.6-2.6-12.2-.6-1-.7-2.3-.4-2.8.5-.8-4.3-6-5.6-6-.4 0-.6-2.1-.6-4.8v-4.7l-5.4-.2c-3 0-6.2.1-7.1.4M995 359.2c-3.6 2.8-7.4 6.1-8.5 7.3-1.1 1.1-3.4 2.7-5.2 3.4-4.6 1.9-5.7 3.5-3.5 5.3 2.8 2.6 33.4 21.9 33.9 21.4.2-.2-.5-3.1-1.7-6.5-1.1-3.3-2-7.2-2-8.5 0-1.4-.4-3.5-.9-4.8s-1.7-6.9-2.7-12.6c-.9-5.6-2-10.2-2.3-10.2-.3.1-3.5 2.4-7.1 5.2M1005 356.1c0 2.7 4 21.8 7.2 34l1.9 7.6 6.2-6.4c3.4-3.5 6.2-6.8 6.2-7.3 0-1-4.8-7.4-13.1-17.4-2.7-3.3-5.8-7.2-6.7-8.6-.9-1.3-1.7-2.2-1.7-1.9M1062.6 376.9c-.4.5-1.3.8-2 .5-1.7-.7-2.3 5.6-2.2 23l.1 11.9 8.7 5.6c4.8 3.1 12.4 8.1 17 11.3 4.6 3.1 8.4 5.5 8.6 5.3s-2.5-5.8-6-12.6c-3.4-6.8-6.3-13.1-6.3-13.9 0-2.7-2.7-8-4-8-.7 0-1.8-1.5-2.5-3.3-4.5-11.3-10.4-21.5-11.4-19.8M1021.7 392.5c-3.1 3.1-5.7 5.9-5.7 6.3 0 .7 15.4 6.2 17.2 6.2.4 0 .2-1.2-.3-2.8-.4-1.5-1.4-5.4-2.1-8.6-.8-3.3-1.8-6.1-2.4-6.3-.5-.2-3.6 2.2-6.7 5.2M1058 426.9c0 7.3.4 13.2 1 13.6.5.3 7.5-.1 15.6-1 8.1-.8 15.4-1.5 16.2-1.5 1.4 0 1.4-.2.2-1.4-2.2-2.2-24.9-18.1-29.2-20.6l-3.8-2.1z"/><path d="M1050.2 442.1c-2.3 13.2-2.9 24.6-1.2 21.9.5-.8 1.1-3.1 1.2-5s.4.8.8 6c.6 8.5 2.7 22.1 4.8 30.5 1.1 4.8 1.9-9.7.9-17.8q-1.2-9.6.9-7.5c.6.7 1.3 12.9 1.4 24.7 0 7.4 0 7.4 2 5.6 1.2-1 3-3.4 4.1-5.2l2.1-3.4-2.1-6.2c-1.2-3.4-2.6-7.1-3.1-8.2s-1.4-3.7-2-5.8c-.6-2-1.5-3.7-2-3.7-1.3 0-2.4-9-1.2-10.2.5-.5 4.4-1.7 8.6-2.7 4.3-.9 7.7-2.1 7.8-2.6.1-1.1-12-8.4-13.8-8.5-.9 0-.9 1.1-.3 3.7 1.3 5.8.9 7.4-.6 2.3l-1.3-4.5-.1 4.4c-.1 2.4-.4 4.2-.7 3.8-.3-.3-.6-5.4-.6-11.4 0-11.7-.7-11-2.9 3-1.7 10.9-2.3 8.9-.9-3.2 1.7-14.5.7-14.5-1.8 0"/><path d="M1078.5 440.6c-1.1.2-5.5.6-9.7.9-4.3.4-7.8 1-7.8 1.3 0 .4 3.7 2.6 8.2 5l8.1 4.3 4.1-2.8c2.2-1.5 6-4.3 8.4-6.1l4.4-3.2-6.9.1c-3.7.1-7.7.3-8.8.5M1042.2 466.4c-2.3 4.9-4 9.6-3.7 10.5.5 1.6 8.7 9.1 9.9 9.1.3 0 .3-2.7 0-5.9-.3-3.3-.8-9.7-1.2-14.3l-.7-8.3zM692 655.5c0 2.3 2.9 19 5.2 29.5 1.1 5.2 2.2 10.7 2.5 12.2.3 1.6 1 2.5 1.6 2.1s.8 0 .5.9c-.4.8-.2 2.1.3 2.9.7 1.1.9 1 .9-.4 0-1 .5-1.5 1-1.2.6.3 1 .2 1-.3 0-.4.7-6 1.7-12.3 2.2-15.2 2.1-17.5-.5-19.7-1.2-1.1-2.2-2.1-2.2-2.4 0-.2-2-2.6-4.5-5.2-2.5-2.7-4.5-5.2-4.5-5.6s-.7-1-1.5-1.4c-.9-.3-1.5 0-1.5.9M710 676.2c0 .2-.7 5.7-1.5 12.3s-1.8 15.9-2.2 20.7l-.6 8.7 3.9.3c2.1.2 9.3.1 15.9-.2s14-.3 16.5 0l4.5.4-5.5.7-5.5.6 6.9.1 7 .2-2.5-2.8c-4.4-4.7-17.3-19.7-19.7-22.7-7-9.2-17.1-19.8-17.2-18.3"/></svg>