<svg xmlns="http://www.w3.org/2000/svg" width="1706.667" height="960" viewBox="0 0 1280 720"><path d="M0 360v360h606.7l2.2-5.9c1.1-3.2 2.1-6.5 2.1-7.3 0-1.6 5.7-15.8 6.7-16.8 1-.9-.9 6.1-2.3 8.8-.8 1.5-1.4 3.5-1.4 4.4 0 1-.4 1.8-1 1.8-.5 0-1 1.1-1 2.4 0 1.4-.4 3.5-.9 4.8-.4 1.3-1.1 3.5-1.5 5l-.6 2.8h5.7c4.8 0 6-.4 7.1-2 .7-1.2 1.6-1.9 2.1-1.6.4.3 2.2-1.1 4-3 3.4-3.6 12-9.9 13.5-9.9.5 0 1.2-1 1.7-2.2.5-1.3.5-2.2.1-2.1-1.8.4-24.2-1.5-24.2-2.1 0-.3 5.9-.5 13.1-.3l13 .3-.6-4.8c-.8-5.3-3.9-17.5-5.1-19.5-.5-1-.4-1 .5-.2.7.7 2.7 5.8 4.5 11.4 3.2 10.2 3.3 10.3 4.9 7.9 1.8-2.5 2.2-4.5 1-5.2-.5-.2-.2-.2.5-.1.7.2 1.7-.9 2.3-2.4.5-1.5 1.9-4.5 3.1-6.7 9.7-18.6 12.4-24.6 11.4-25.4-.6-.5-2.6-1.2-4.4-1.6s-3.1-.9-2.9-1.2c.3-.2 2.2 0 4.3.6s4 .8 4.3.5.8-2.6 1.2-5.2l.6-4.7.2 5.4c.1 4.6.6 6 3.7 9.8 4.5 5.5 14.5 15.5 15 15 .2-.2.8-4.8 1.3-10.3l.9-9.9-.1 12-.2 12 5.3 6.5c3 3.6 8.4 10.3 12 14.9 3.7 4.6 9.8 11.9 13.5 16.2l6.9 7.9 13.6-.1c7.6 0 12.8-.4 11.8-.8-1.7-.6-1.7-.8-.4-1.4 1-.3 1.9 0 2.2.9.5 1.2 35.6 1.4 262.1 1.4H1280V511.1c0-166.2-.3-209-1.2-209.4q-1.5-.6 0-.6c.9-.1 1.2-30.9 1.2-150.6V0H0zM531.2 62.7c5.7 3.6 13.9 8.7 18.3 11.4 4.4 2.6 9.4 5.9 11 7.4 2.9 2.5 3.4 2.6 10.5 2 10.2-.8 48.8-7 49.7-7.9.3-.3-2.3-1-5.6-1.7-8.4-1.6-7-2.2 2-.8 5.6.8 10.3 2.6 19.2 7 6.5 3.2 12.4 5.9 13 5.9.7 0 7.6 3.1 15.3 6.9 7.8 3.8 15.1 7.2 16.3 7.6 3 .9 2.7-1.6-.5-4.6-1.4-1.3-3-3.3-3.6-4.4-.5-1.1 1.8.9 5.2 4.5 12.8 13.7 17.1 18.8 12.2 14.7-3.1-2.5-4-2.9-5.8-2.6-.4 0-1-.5-1.4-1.2-.9-1.4-1.9-1.1-27.7 10.3-10.1 4.4-18.3 8.3-18.3 8.7 0 .8 1.6 1.9 11 7.7 16.4 10.2 37.5 22.4 38.6 22.4.3 0 .4-6.4 0-14.3-.3-7.8-.8-18.5-1-23.7s-.2-7.7 0-5.5.9 8.2 1.4 13.4c.6 5.1 1.3 14.3 1.6 20.5.3 6.1.9 11.4 1.3 11.7.3.3 3.3 1.4 6.6 2.3 7.2 2.1 37.2 12.5 39.8 13.8 3.3 1.7 1 2-2.5.4-4-1.9-42.8-14.6-44.5-14.6-.9 0-.8 1 .2 4.2 1.7 5.5 4.3 17.9 5.1 24.3.8 6.6 4.4 21.7 5.5 23 .5.5.9 2.5.9 4.5l.1 3.5 2-2.5c1.1-1.4 5.7-6.3 10.3-11 24.1-24.9 26.5-27.7 26.1-30-.2-1.2-2.4-4.7-4.7-7.7-7-9-10.3-13.9-8.5-12.4 1 .8 4.7 5.2 8.3 9.8 3.6 4.5 6.7 8.3 7 8.3.8 0 5.2-5.1 7.4-8.6 2.5-3.9 2.1-4.9-3.6-9.4-2.4-1.9-6.4-5.1-8.8-7-2.5-1.9-4.5-3.9-4.5-4.3-.1-.5 2.1 1 4.8 3.2 2.7 2.3 5.3 4.1 5.8 4.1s3.1 2.2 5.7 4.9c4.5 4.6 5.1 5.8 7.8 15.8 3.5 13.5 4.3 17 3.4 16.2-.8-.7-2.6-7.1-5.2-17.4-.8-3.3-1.8-6.3-2.3-6.8-.8-.8-5.8 4.9-8 9.2-.7 1.2-1.1 3.2-.8 4.2.3 1.2.1 1.7-.5 1.2-1.1-.6-16.3 14.7-32.4 32.5l-8.4 9.4.3 15.4c.1 8.5-.1 14.2-.5 12.7-.4-1.4-.8-7.7-1-13.9-.2-7.1-.7-11.4-1.3-11.4s-2.7 2.1-4.7 4.7c-2 2.7-4.5 5.7-5.5 6.8s-3.8 4.5-6.1 7.5c-4.2 5.3-12.1 14.1-28.1 31.4-9.9 10.7-18.1 20.7-18.1 22.2 0 .8 1.2.9 4.3.3 7-1.3 9.9-1 4.8.6-2.5.8-4.8 1.2-5.3.9-.4-.3-.8-.1-.8.4 0 .8 9.5 3.1 30 7.3 5.8 1.1 11.6 2.5 13 3.1 3.1 1.3 21.2 3.7 22.4 3 .8-.4.5-5-1.3-16.9-.4-2.9-.4-5.8 0-6.4s1 1.3 1.3 4.2c1.4 11.2 3 17.9 4.3 17.9.7 0 1.3.4 1.3 1 0 .5-.4 1-1 1-.5 0-1 .9-1 2 0 1.4-.7 2-2.4 2-1.3 0-5.9 2.3-10.2 5.2-8.5 5.5-17.5 10.7-15.9 9.1s21.8-14.3 22.7-14.3c.4 0 .8-.6.8-1.4 0-1.4-4-2.5-12-3.2-2.5-.2-5.6-.8-7-1.4-1.4-.5-8.1-2.1-15-3.5s-16.5-3.5-21.5-4.5c-13.8-3-14.5-3.1-14.5-1.4 0 1.2-.4 1.2-2 .4-1.5-.8-3-.5-6.7 1.4-4.7 2.3-19.9 13.2-23.3 16.6-.9.9-4.2 3.1-7.3 4.9s-5.7 3.5-5.7 3.7c0 1.1 4.6-1 8.8-3.8 2.3-1.6 4.2-2.7 4.2-2.5s-.8 1.9-1.7 3.8c-1 1.9-1.8 4.2-2 5.1-.1.9-.9 3.5-1.6 5.7-1.3 3.5-1.2 4.1.1 4.6.8.3 2 .1 2.6-.5 1.4-1.4 3.9-1.3 3.4.2-.3.7-2.2 1.6-4.4 1.9-2.1.3-5 .9-6.3 1.3-2 .7-2.3.5-1.8-.8.4-.9.2-1.7-.3-1.7-.6-.1-1.4-.3-2-.4-.5-.1-1.9-.3-3.1-.4-1.9-.1-1.9-.2-.5-2.3 1.9-2.6 2-3.8.5-3.8-.5 0-.7.4-.4 1 .3.5 0 .7-.8.4-1-.4-1.7.6-2.2 3.3l-.7 3.8-1.5-3.7c-.8-2-2.1-3.9-2.9-4.2-1.7-.7-19.6 2.5-35.9 6.3-6.6 1.6-14.1 3.2-16.7 3.5-2.6.4-5 1.1-5.2 1.5-.3.4.9 2.5 2.7 4.7l3.2 3.9-4.7-3.8c-2.5-2-5.1-3.7-5.6-3.7s-5.1 2.3-10.3 5.1c-5.1 2.8-16.3 8.7-24.9 13.1-18.1 9.4-18.7 9.8-16.7 11 1.5.8 25 6.1 32.7 7.3 2.5.4 10.8 2.2 18.5 4s19.9 4.5 27 6c7.2 1.5 13.7 3.2 14.5 3.7 1.1.7.8.8-1 .4-6.3-1.5-42-9.2-66-14.2-14.6-3.1-27.5-5.8-28.7-6.1-2.6-.6-5 3.6-7.8 13.7-.9 3.6-2 6.9-2.4 7.5-.3.5-1.6 3.9-2.8 7.5-1.7 4.9-2.1 5.5-1.7 2.7.3-2.1 1.4-5.8 2.4-8.3 1.7-4 3.3-9.5 5.4-18.7l.7-2.9-11.8 6.2c-6.5 3.5-12.9 7.1-14.3 8-2.6 1.8-17.3 9.4-20 10.2-1 .4-.3 1 2 2l3.5 1.4-6.7-.2c-6.3-.2-26.4 4.1-30.9 6.5-.8.5-5.1 1.2-9.5 1.6-9.8.9-12.4 1.9-12.4 4.5 0 1.1-.4 2-1 2-.5 0-1-.7-1-1.6s-.8-2.3-1.7-3c-1.7-1.3-1.7-1.3 0-1.4 1.9 0 2.1-.9 1.8-10-.4-10.4-.7-10.7-5-5.3s-7.1 8-7.1 6.5c0-.5.7-1.5 1.5-2.2 2.6-2.2 7.2-8.4 7.9-10.7.6-1.8.2-2.2-2.5-2.8-3.3-.8-9.9-4.2-11.2-6-.5-.5-.6.8-.3 3 1.5 10.8 1.8 18.4 1.3 32-.1 2.7.1 9.3.5 14.5.4 5.8.3 8.1-.2 6-.5-1.9-1.2-8.8-1.6-15.3-.6-11-.8-11.7-2.8-11.8-1.6-.1-1.7-.2-.4-.6 3.1-.8 3.3-7.9.8-23.8-.6-3.3-1-6.3-1-6.6 0-.5-4.1-.5-6.2-.1-.7.2-2.6 5.4-3.3 9.2-.2 1.2-.9 2.7-1.4 3.4-.9 1.1-4.1 14.6-4.1 17.3 0 .9 2 1.3 6.3 1.4 6.5.1 6.3.4-1.5 1.4-3 .4-4.8 1.1-4.8 1.9 0 .7 2.2 5.3 4.9 10.2 4.6 8.2 9.6 19.4 8.7 19.4-.2 0-1.6-2.4-3.1-5.3-3.3-6.2-6.4-10.7-7.4-10.7-.6 0-.3 3.9 1.4 17.5.4 2.7 1.1 5.8 1.7 6.8 1.1 2.2 5 27.8 4.9 32.7-.1 4.1 1.6 12.1 3.6 16.8l1.3 3.2 3.3-1.5 3.2-1.6-3 2.5c-2.9 2.5-2.9 2.5-1.3 5.8 2.4 5 10.2 16.1 11.5 16.5.6.2 1.3-.6 1.6-1.9.3-1.6.5-1.1.6 1.3.1 3.3.3 3.6 2.9 3.3l2.7-.4-2.8 1.1-2.8 1.1 2.7 4.6 2.6 4.7-2.5-2.8c-1.3-1.5-3-2.7-3.6-2.7s-1.4-.6-1.7-1.4c-.4-1.1-2-.5-6.8 2.4-3.5 2.1-7.9 4.5-9.7 5.4-4 1.8-6.9 4-6.9 5.2 0 .5-1.7 1-3.8 1-2 .1-5.5.9-7.7 1.9-2.2.9-5.6 1.9-7.5 2.1l-3.5.3 3.1-1.7c1.7-.9 2.9-2.3 2.7-3-.3-.7.9-3.7 2.6-6.7s3.1-5.6 3.1-5.8c0-.4-4.7 0-9.5.7-3.1.5-5.8 6.3-5.9 12.7-.1 5-.2 5.4-1.5 3.7-1.6-2.4-.8-9 1.8-13.9l1.8-3.4-2.9-4.3c-3.9-5.6-3.1-6.3 1.2-1.2 3.2 3.8 3.6 4 9 4 3.1 0 6.1-.5 6.8-1.2.9-.9 1.3-.7 1.8.6.4.9.4 2 .1 2.3-.4.3.5 1.9 1.8 3.5 1.4 1.6 2.5 3.3 2.5 3.8 0 1.7 3 1.8 6.2.2 4.4-2.3 17-10.4 16.6-10.7-.2-.2-5.2-1-11.3-2-13.9-2.1-18.5-3.3-18.5-4.8-.1-.7-2.2-2.8-4.7-4.7s-6.6-5.3-9-7.4c-3.9-3.5-4.6-3.8-6.8-2.8-1.8.8-2.5 2-2.6 3.9 0 2.5-.1 2.6-.9.8-1.3-3-1.2-3.4 1.8-6.3 3.3-3.3 6.2-11.4 6.2-17.3 0-3.4.3-4.1 1.1-2.9 1 1.5.7-3.6-.7-12.4-.4-2.3-.3-2.7.5-1.5.5.8 1.4 5.6 1.8 10.5.9 8.9.2 13-3.1 20.3-.9 2.1-.6 2.7 2.9 5.8 5.9 5.1 11.7 9.3 12.8 9.3.9 0 .3-39.8-.8-48.5-.2-1.7-.4-3.3-.4-3.7-.1-.3-1.3-1.1-2.8-1.7-2.5-.9-2.4-1 1.1-.4 4.7.7 5.6-.4 5.6-7.5 0-4-.3-5.2-1.6-5.2-.8 0-1.2-.4-.9-1 .7-1.1-5 1.2-12 4.9-2.7 1.4-5.9 2.9-7 3.2-1.6.4-1 .9 2.5 1.9 9.2 2.6 9.4 2.8 3 2.3-6.8-.5-11.6-1.9-13.8-4-.7-.7-4.1-2.9-7.5-4.9-3.3-2-7.2-4.4-8.5-5.5-3.3-2.5-5.2-2.4-5.3.3-.1 1.7-.4 1.3-1.1-1.2-.5-1.9-1.6-3.9-2.4-4.3-1.2-.7-1.1-1.1.5-2.5 2.2-1.9 13.1-26.8 13.1-30 0-2 2.3-7.6 7.5-18.7 4.8-9.9 7.5-16.4 7.5-17.7 0-.8.4-1.8.9-2.4.4-.5 1.7-3.2 2.7-5.9 1-2.8 2.4-6 3.2-7.3 1.7-2.7 1-12.1-1-13.4-1-.6-1-1 .1-1.7s1.1-1.4 0-4.6c-1.1-3-1.1-3.9-.1-4.2 1.6-.6 1.5-2.3-.2-2.3-.8 0-1.6.7-2 1.5-.3.8-1.1 1.4-1.8 1.3-.7-.2-1.6 1.6-2.1 4.4-.5 2.7-1.4 4.8-1.9 4.8-.6 0-.7-.8-.3-1.8.4-.9.9-2.7 1-4 .3-1.9.1-2.1-1.1-1.1s-1.3.9-.7-.7c.3-1 1.1-2.2 1.6-2.5.5-.4-3.4-4.3-8.7-8.9-5.3-4.5-9.6-8.4-9.6-8.6 0-.3 4.1 2.9 9.2 7s9.6 7.2 10 7c.4-.3.9-2.2.9-4.2.2-3 .3-3.2.6-1 .3 1.6 1.1 2.8 1.9 2.8s1.3-.3 1.1-.8c-.2-.4-1.1-2.3-2-4.2-5.3-11.8-5.8-15.7-1-7.5 1.5 2.6 3.3 5.2 3.9 5.9.5.6 1.4 2 1.8 3.1.8 1.9.8 1.9 1.8-.5.5-1.4.6-4.1.3-6-.6-3.2-.5-3.3.8-1.5.8 1.1 2.2 4.5 3.3 7.5 1.9 5.6 7 15 8.8 16.2 1.5 1 3.5-5.8 2.9-10.2-.6-4.1-4.4-8.7-10.7-13.1-1.8-1.2-4.4-4.5-5.9-7.3-3-5.8-3.2-6.6-1.4-6.6.6 0 2.6 2.8 4.2 6.3 1.7 3.4 4.1 7.1 5.5 8.2s3.9 3.3 5.5 4.9c2.5 2.5 3.9 3.1 9 3.3 8.1.5 9-.2 7.4-5.8-.7-2.4-1.9-5.2-2.7-6.2-.9-.9-1.3-1.9-1-2.2s1.7 1.3 3.2 3.5c3.1 4.7 4.1 5 5.4 1.2.9-2.6.9-2.6 1.6-.5.6 1.9 1.2 2.1 4.4 1.6 2-.4 5.2-.7 7-.7 1.7-.1 3.2-.6 3.2-1.2s-2.1-5.2-4.6-10.3-4.4-9.5-4.1-9.8 1.3 1.1 2.1 3.1c2.3 5.4 8.6 14.5 11.3 16.3 3 2 4.6.7 6.2-4.7.9-3.1 1-2.8.5 2.2l-.6 5.7 3.8.6c2.2.3 5.6 1.3 7.7 2.2 4.3 1.8 5.5 1.3 4-1.9-.6-1.3-1-2.5-1-2.8s-.9-2.3-2.1-4.5c-2.8-5.5-8.2-11.4-8.8-9.8-1 2.4-2.4 1.3-1.4-1.1 1.1-2.9 1.9-2.5-12.1-5.6l-9.5-2.1-4.8 2.1q-9.6 4.05-1.8-.6c2.3-1.4 4.2-2.8 4.2-3.2s-2.5-3.2-5.5-6.2c-5.9-5.9-5.1-5.7-12.7-2.5-1.1.4-1.8.3-1.8-.5 0-.6.4-.9.9-.6.9.6 2.8-1.2 8.2-7.4l2.2-2.5-.6 3.2c-.5 2.8 0 3.8 3.9 8.2 4.7 5.3 7.4 6.4 7.4 3.3 0-1.7 4.1-16.7 5.7-20.8.6-1.6.2-1.6-3.1.4-5.4 3.2-5.7 2.7-.8-1.7 4.6-4.2 4.8-5 3.1-13.2-.9-4.4-.8-6.6.5-11.3 1.5-5.9 1.3-8.2-.5-7-.5.3-.7.9-.4 1.4.2.4-.4 1.8-1.4 3.1-1 1.4-2.6 4.1-3.4 6.1s-3.2 5.8-5.2 8.5c-2 2.6-6.4 8.6-9.6 13.2s-5.9 7.9-5.9 7.3 1-2.3 2.3-3.9c4.5-5.5 15.5-22.9 18.6-29.3l3.1-6.5-3.2-.6c-2.9-.6-3-.7-.7-.8 3.4-.1 4.5-1.6 5.4-6.6.8-4.2 6.5-16.1 6.5-13.5 0 2.7-2.8 12.1-4.1 13.6-1.4 1.8-.5 3.1 1.3 1.7.7-.5 3.6-1.8 6.3-2.8 6.9-2.5 7.5-3.6 6.9-12.5-.9-14.5-1.6-20-2.5-20-.5 0-.9-1-1-2.3 0-1.3-.2-1.6-.6-.7-.2.8-.9 2.4-1.4 3.6-.6 1.1-.9 2.4-.8 3 .4 1.5-2.4 13.4-3.2 13.4-.3 0-.3-2 .2-4.5s1.1-6.8 1.3-9.6c.3-2.7 1.4-6.3 2.6-7.9 1.1-1.5 2-3.8 2-4.9 0-1.8-.3-2-1.8-1.2-3.3 1.8-22.4 25.4-39.9 49.3-2.1 2.9-2.3 5.5-.2 4.3.5-.4.9-.4.9 0 0 .3-1 .9-2.2 1.4-1.9.7-2.2 1.4-1.9 5.4.1 2.9-.2 4.7-.8 4.7-1.2 0-1.3-.4-1.6-6-.3-4.9.5-9 1.7-8.7.6.1 1.7-2.4 2.4-5.5s4.9-16.5 9.4-29.7c4.4-13.2 8-24.8 7.9-25.8 0-1-.3-1.3-.5-.6-.3.7-1.1 1-1.8.7s-2 1.2-3.1 3.6c-1 2.3-2.3 4.3-2.7 4.7-.5.3 0-1.3 1.1-3.6 1.2-2.2 2.1-4.8 2.1-5.8 0-4 1.6-4.5 4.8-1.8 3.6 3 3.9 4 1.7 6.1-.8.8-3.5 8.1-6.1 16.2-2.5 8.1-6.3 19.8-8.5 26.1-2.1 6.2-3.9 11.5-3.9 11.7 0 1.9 2.7-1.1 8.6-9.2 13.6-19 20.1-27.3 28.3-36 6.7-7.1 7.5-8.8 6.3-13.6-1.3-5.1-.9-6 1.1-2.2l1.4 2.7 4-6.9c16.1-27.6 21.1-36.9 20.2-37.3-.6-.2.7-1.5 2.8-2.9s7.2-5.7 11.3-9.5c4.1-3.9 10.7-10.1 14.5-13.7 3.9-3.6 8.9-7.8 11.3-9.4 7.9-5.4 4.2-4.4-7.7 2-6.6 3.4-13.7 7.4-15.8 8.7-6 3.8-14.4 7.9-15 7.3-.3-.3.5-1 1.8-1.5 2.4-.9 30.3-16.6 38.9-21.8 2.5-1.5 5.9-3.1 7.5-3.5 3.4-.8 34-11.3 51.4-17.7 6.3-2.3 11.8-4 12.3-3.9 1 .4-16.9 7.1-37.2 13.9-6.3 2.2-12.4 4.4-13.5 4.9-1.1.4-4.2 1.6-6.8 2.6-2.6.9-5 2.1-5.3 2.6s-.2.8.3.7c.4-.1 1.5.1 2.3.4 1.5.6 28.9 7.1 34.8 8.2 3 .6 3.8.1 13.4-9.3 5.7-5.6 10.5-9.9 10.7-9.6.3.2-3.3 4.2-7.9 8.9-4.7 4.6-8.6 8.9-8.9 9.6-.4 1.4 1.6 1.1 37.9-4.6 15.1-2.5 30-4.7 33.1-5.1s6.3-1 7-1.5c1.7-1-.7-3.1-13.1-11.3-15.7-10.4-21.3-13.8-24.8-15.3-3.1-1.3-3.4-1.2-5.7 1.4l-2.5 2.8 1.1-3.3c1.7-5 5.1-4.4 17.1 3.5m346.9 64.6c7.7 6.3 23.3 18 27.4 20.6 2 1.3 2.8 1.1 8.6-1.6 3.5-1.7 7.2-3.3 8.3-3.7 4.3-1.5 20.6-9 20.6-9.6 0-.3-1.4-.7-3.1-.8s-10.8-1.8-20.3-3.6c-9.4-1.8-21.5-4.2-27-5.2-5.4-1-9.4-2-8.9-2.1.9-.3 31.3 5 47 8.2 4 .8 8.2 1.5 9.4 1.5 2.2 0 2.2-.1-.7-3.3-2.4-2.6-2.2-2.6 1.1.5 4.7 4.4 5.5 4.5 14.4 1.9 3.6-1.1 9.2-2.5 12.4-3.1 4-.8 5.7-1.6 5.4-2.4-.9-2.2 4-.6 7 2.2 1.6 1.5 3.2 2.5 3.6 2.4.5-.1.6.2.3.7s.9 2.1 2.6 3.6c1.8 1.5 6.7 5.9 10.8 9.9 15.9 15 20.4 18.4 25.6 19.4l4.9 1-4.2.1c-4 .1-4.2.2-3.4 2.3.5 1.3 4.1 7.9 8.1 14.8s8.3 14.3 9.6 16.5c1.2 2.2 7.1 13.8 13 25.7 6 12 11 21.5 11.3 21.3.2-.3-.3-2.2-1.2-4.2-.8-2.1-3.8-11.5-6.7-20.8-6-19.8-7.7-25.1-11.6-35.9l-2.9-7.9-.6 3.9-.6 3.9-.2-3.5c-.3-5.9-2.1-12.4-3.8-13.7-.9-.7-1.4-1.6-1-2 .9-.8 4.7 2.6 4.7 4.3 0 .8 1.3 4.4 2.9 8.1 1.6 3.8 3.2 7.6 3.5 8.6.4 1.3 1.2 1.7 2.7 1.2 1.6-.5 2-.3 1.6.6-.2.8-1 1.3-1.6 1.1-.6-.1-1.1 0-1.1.2 0 .5 1.8 6 5.5 16.6 1.8 5.2 5.4 17.1 8 26.5 2.6 9.3 5.5 19.7 6.5 23 2.6 8.4 4.6 59.5 2.9 75.3-.6 6-.9 16.9-.7 24.3l.3 13.4 5.8 11.9c3.1 6.5 5.7 12.1 5.7 12.5 0 .3.6 1.8 1.4 3.3.8 1.4 1.9 4.3 2.6 6.5.7 2.1 2.3 5.8 3.5 8.3s3.3 6.7 4.5 9.5c1.2 2.7 2.9 6.1 3.6 7.5 4.2 7.7 6 12.5 5.6 14.9-.4 2.1-.6 2.2-1.1.8-.6-1.5-2.2-.8-11.6 5.5-7.8 5.2-12 7.4-14.5 7.5-1.9.2-6.1 1-9.3 2l-5.8 1.7 2.3 1.9 2.3 1.8-2.2-.6c-3-.8-2.9.5.7 8l2.8 6-.2-5.5c-.1-5 .2-5.8 3.3-8.8 1.9-1.8 3.6-3 3.9-2.7.3.2-.9 1.7-2.7 3.2-3.3 3-3.6 4-2.2 8.7 5.5 18 7.4 27.5 5.1 26.1-.5-.3-.7-1.2-.3-2 1.1-3.1-1.4-1.1-7.6 6-5.9 6.7-6.8 7.3-11 7.8-6 .7-6.5.1-.9-1 2.6-.6 4.2-1.5 4-2.2-.5-2.2-6.5-14.1-7.2-14.1s-9.5 14.4-10.6 17.2c-.5 1.4-.1 1.8 1.5 1.8 2.4 0 2.9 1.7.6 2.2-.8.2-1.1.7-.7 1.3.9 1.3 9.9 8.5 10.6 8.5 1 0 3.8-6.2 3.3-7.4-.3-.7-2.7-1.3-5.3-1.5-2.7-.1-5.1-.5-5.4-.8-.3-.2 2.9-.3 7-.1 4.9.3 7.4.8 7.3 1.6-.2.6.3.9 1 .7 2.1-.8 3.4.9 4.1 5.5.7 4.2.6 4.4-.9 2.5s-1.6-1.8-.9 1.5c.4 1.9 1.4 4 2.3 4.7 2.5 1.9-.2 1.5-5.4-.7-2.6-1.1-5.5-2-6.4-2-1.7 0-10.4 8.4-14.7 14.1-1.3 1.9-2.4 2.5-3.3 1.9-1.1-.6-.9-1 .7-1.9 1.1-.6 5-4.5 8.8-8.7l6.8-7.6-6.4-5.8c-6-5.4-6.6-5.7-8.3-4.2s-1.7 1.4-.2-2.2c.9-2 1.3-4.1 1-4.6-.3-.6 0-.7.8-.4 1 .3 3-2.1 6.3-7.8 2.7-4.6 5-8.5 5.2-8.8.3-.8-13.4-12-14.7-12-.6 0-1.1-.2-1.1-.5 0-.7 10.9-19.6 12.3-21.3.8-1 0-2.4-2.9-5.5-2.1-2.3-2.8-3.2-1.4-2.1 5.5 4.6 6 4.2 6.2-5.4.1-8.3.2-8.5.7-2.7l.6 6 .8-4.5c.5-2.5 2.4-9.8 4.3-16.2 4.2-14.6 4.2-15.3.2-16.7-1.7-.6-3.3-1-3.5-.8s-.4 2.7-.4 5.4c-.1 2.8-.6 5.7-1.1 6.4-.6.9-.8-.7-.7-4.6.2-8 .2-8.1-2-6.1-1.3 1.2-2.1 1.4-2.6.6-.4-.6-.5-1.4-.1-1.7.6-.6-15.1-20.3-16.3-20.3-.5 0 .6 3.9 2.3 8.7l3.1 8.7 5 1.8 5 1.8-5.5-.6c-3-.4-6-1.1-6.6-1.6-.7-.5-5.8-2.4-11.4-4.3-7.3-2.5-10.7-3.2-11.6-2.4-.7.5-1.4.6-1.6.1-.1-.5-3.9.1-8.3 1.3-4.4 1.3-11.1 3-14.9 3.9-3.9.9-7.4 2.3-8.2 3.3-1.2 1.7-1.3 1.7-1.9.1-.4-1-1.1-1.5-1.6-1.2s-.9 0-.9-.5c0-.6.7-1.1 1.6-1.1 1 0 1.4-.6 1-1.8-.2-.9-.7-3.3-1-5.2-.5-2.9-.4-3.1.3-1 .5 1.4 1.2 3.8 1.6 5.4.5 2.3 1 2.7 2.8 2.3 3.2-.7 26-6.7 27.6-7.3 1.7-.6.2-1.7-8.6-6.8-3.2-1.8-10.7-6.3-16.7-10-6-3.6-11.1-6.4-11.3-6.2s.1 2.3.7 4.6c1.7 6.3.4 6-1.4-.3-.9-3-2.2-5.7-2.9-6-.8-.3-3.5-.1-6.2.4-6.1 1.1-6.7.6-1.5-1.1 2.2-.7 4-1.6 4-1.9s-1.7-1.6-3.8-2.8c-23.6-14.2-39.6-23.3-41.3-23.3-.5 0-2.1 1.2-3.5 2.7-2.1 2.3-2.3 2.4-1.5.6.6-1.2 1.5-2.4 2-2.7 1.2-.8.3-4.2-1.5-5.7-.8-.6-1.4-1.6-1.4-2.2s1.3.2 2.9 1.7c1.6 1.6 4 2.8 5.3 2.8 3.6-.2 40.1-9.9 39.2-10.5-.5-.2-5.6-2.3-11.4-4.6-9.9-3.9-14.5-6-12.8-6.1.4 0 6.4 2.3 13.3 5 6.9 2.8 12.7 5 13 5 .8 0 1.4-9.1 2.5-37.5.6-16 1.5-36.4 2-45.5.8-15.4.6-19.5-.9-17.3-.3.6-4 3.3-8.1 6.2-9.8 6.8-24.4 17.4-31.7 23.1-9.7 7.5-17.2 12.3-12.2 7.8 4.7-4.2 16.1-12.9 24.1-18.4 9.7-6.7 28-20.6 27.6-20.9-.8-.8-25.4-6.7-41.3-10-4.4-.9-9.3-2-11-2.5-1.6-.5-5-1.1-7.4-1.4-2.3-.3-9.2-2-15.3-3.7-7.5-2.1-11.3-2.8-12-2.1-.6.6-.9 3.1-.7 5.6.3 2.5.1 4.6-.3 4.6-.5 0-.8-1.6-.8-3.5s-.4-3.5-.8-3.5c-.5 0-2.2 2.5-3.8 5.6-3.1 6-5 8.2-3.4 4s4.1-9 5.9-11c1.5-1.8 1.5-1.9-1.4-1.2-6.9 1.5-9.7 1.8-9.1.8.3-.6 2.1-1.4 3.9-1.8 4.3-.9 7.2-2.9 5.7-3.9-.7-.4-1.7-.1-2.2.6-.8 1.1-.9 1-.4-.3.6-1.9-4-6.2-12.9-12.4-2.7-1.9-6.1-4.2-7.5-5.1-2.7-1.9-26.6-21.3-30.9-25.1-4.9-4.4.4-.8 11 7.4 13.7 10.7 17.8 13.4 20 13.4 1.2 0 1.9-.7 1.9-2 0-1.1.5-2 1-2 .6 0 1-.5 1-1.1s-.7-.9-1.5-.6c-1.9.8-3.1-1.3-1.4-2.3.7-.5 1.7-.6 2.1-.4.4.3.8 0 .8-.5 0-.6-1-1.1-2.2-1.1h-2.2l2.2-1.6c2.2-1.5 3-4.4 1.2-4.4-.5 0-1-.8-.9-1.8 0-1 .3-1.2.6-.4.2.6.9 1 1.3.7.5-.3.7-1.2.4-1.9-.7-1.9 5-4.6 9.5-4.6 4 0 6.6-2.8 5.6-6-.4-1.2 0-2 1.2-2.3 1-.3-4.9-.6-13.2-.7-13.4-.2-14.4-.3-9-1.2 3.3-.5 18.1-.8 32.8-.6l26.9.3-2.4-2c-1.4-1.1-7.3-5.8-13.3-10.5s-12.9-10.2-15.3-12.3c-7.2-6.1-3.3-4.1 4.9 2.6M293.8 241c.4 0 1.6-1.9 2.5-4.3l1.7-4.2-.5 4c-.4 2.9-.3 3.6.4 2.5.6-.8 1.1-2.1 1.1-2.8s.7-2 1.5-2.8c1.9-1.9 1.9-1.5.1 2.2-.8 1.6-1.9 4.1-2.5 5.6s-1.6 2.6-2.3 2.4c-.7-.1-1-.1-.5.1 1.9 1.2-.4 22.3-2.5 22.3-.5 0-.9 3.7-.9 8.2-.2 6.7-.3 7.5-.9 4.3-.5-2.8-.8-.3-.9 8 0 6.6.3 13.4.8 15.1.8 2.9-.1 6.7-1.1 4.8-.3-.5-.6-8.3-.7-17.4-.2-15.7.8-25 3-27.4 1.4-1.5 1.1-13.6-.3-13.6-.6 0-.8-.3-.5-.7.4-.3.2-1.2-.4-2-.9-.9-.8-1.3 0-1.3s1.2-5.2 1.3-16.8l.2-16.7.3 15.2c.2 8.4.7 15.3 1.1 15.3m354.4 71.1c5.8 3.1 18.7 13.2 19.3 15 .4 1.2 1.5 2.9 2.6 4 1.8 1.8 1.8 1.9 0 5.3-1.7 2.9-1.7 3.5-.5 4 .8.3 1.4 1.2 1.4 2.1 0 2-8.7-4-15-10.3-4.3-4.2-9.2-6.7-18.7-9.1-1.8-.5-3.9-1.6-4.8-2.5-1.5-1.5-1.5-1.6.2-1.6 1.1 0 2.3.4 2.9.9.8.8 13.5 5.1 14.9 5.1.4 0 0-.7-.9-1.5-.8-.8-2.1-1.5-2.8-1.5s-2.1-.9-3-1.9c-1.9-2.2-8.9-3.6-11.5-2.3-1 .5-3.2.8-4.9.5-3.1-.5-6.6 1.8-13.6 9.1-1.6 1.6-3.1 2.7-3.3 2.4-.3-.3 1.6-2.5 4.2-5.1 2.7-2.5 5.4-5.3 6.2-6.3 1.3-1.6 1.2-1.6-2.4-1-2.2.4-5.6 1.6-7.7 2.7s-3.8 1.5-3.8.9c0-1.3 7.2-4.7 14.2-6.7 2.9-.8 9.4-1.9 14.3-2.3 5-.4 9.4-.7 9.8-.8.5-.1 1.8.3 2.9.9m-11 23.6c1 .2 1.7-.1 1.4-.5-.3-.5 1-.9 2.9-1 3.2-.1 7.5 2.7 7.5 4.9 0 .4.9.9 2 1.2 1.5.4 2 1.4 2 3.9 0 1.9.4 3.8.8 4.4.5.5 1.4 2.8 2 5.1 1.2 4.1 1.3 4.1 5.5 3.8 2.3-.1 4.6-.3 5-.4.5 0 .6-1.8.3-3.9-.4-2.6-.3-3.3.4-2.2.5.8 1 2.6 1 3.9 0 2 .2 2.1 1.5 1.1.8-.7 1.5-2.1 1.5-3.2 0-2.7 1.7-1.4 2.3 1.8.3 1.9 0 2.8-1.2 3.1-1.1.3-2.3 2.7-3.5 7.4-1 3.8-2.2 7.1-2.7 7.4-1.5 1-1-2.7 1.1-8.3l2-5.2h-2.3c-1.2 0-3.9.3-6 .6-3.2.6-3.7.9-3.1 2.8s.8 4.5.5 8.8c-.1 1-.6 1.8-1.2 1.8-.7 0-.9-1-.7-2.5.3-1.4-.1-3-.8-3.6-1-.8-1.4-.8-1.4 0 0 .6-.3 1-.7 1-1.9-.3-2.7.2-1.5 1 .7.4 1.4 1.8 1.5 2.9.1 1.2.6 2.2 1.2 2.2s2.1 1.3 3.3 3c2.3 3 1.5 4.3-.8 1.5-.7-.8-1.9-1.5-2.6-1.5-.8 0-1.4-.5-1.4-1 0-.6-.9-1-1.9-1-1.6 0-2.1.8-2.4 4.7-.3 4.4-.4 4.3-.5-1.4-.2-6-.3-6.2-4.8-10.2-2.6-2.3-5.1-4.1-5.6-4.1s-.6-.4-.3-1c.3-.5.8-4.3 1.1-8.5.4-6.5.1-8.2-2.1-13-1.3-3-2.9-5.5-3.5-5.5-.5 0-1-.7-1-1.6 0-1.4.2-1.4 1.6-.3.9.7 2.5 1.4 3.6 1.6m-377.4 9.5c-.3 4-.1 4.3 3.7 6.6 3.6 2.1 3 2.3-2.3.6-1.6-.5-1.8.2-1.8 6.3-.1 3.8-.7 8.6-1.4 10.7l-1.2 3.8-2.5-5.4c-2-4.2-2.5-6.8-2.5-12.7 0-4-.3-8.4-.8-9.7-1.2-3 .3-3.2 3.2-.4 3.1 2.9 4.8 2.5 4.8-1 0-1.7.3-3 .6-3s.4 1.9.2 4.2M645 398.1c0 .4-.6.9-1.4 1.2s-3 3-5 6-4.7 5.7-5.9 6.1c-1.2.3-3.1 1.2-4.2 2.1-2 1.6-1.9 1.6.5 1 2.2-.5 2.3-.5.8.8-1.1.8-1.4 1.8-.8 2.7.6 1 .1 1.9-1.8 3.1-1.5.9-2.8 2.6-2.9 3.8-.2 2 .2 2.2 2.5 1.6 1.5-.4 4.1-1.3 5.7-2 4.9-2.3 9.5-2.6 9.5-.7 0 1.8 1 1.1 1.4-1 .3-2 3.9-5.8 5.6-5.8 1.7-.1 6.7-7.6 6.2-9.4-.3-.8 0-.8.8.1 1.9 1.8-3.3 10.4-7.9 13.2-2.4 1.5-4.1 3.5-4.7 5.5-.5 1.9-1.5 3-2.4 2.9-.8-.2-4.7 2.5-8.6 6-12.1 10.5-21.5 17.1-12.1 8.4l4.9-4.4-2.7-2.2c-1.5-1.1-3.2-2.1-3.7-2.1-.6 0-.7-.7-.4-1.6.5-1.3-.2-1.5-3.9-1.3-2.4.2-4.7 0-5.1-.4s.4-.7 1.7-.7c4.3 0 5-1.3 2.5-4.5-2.4-3-6.1-3-5 0 .4.8-.1 1.7-1 2.1-.9.3-1.6 1.3-1.6 2.1s.4 1.1 1 .8.7.1.4.9c-.3.9-1.1 1.6-1.7 1.6-1.1 0-16.8 5.6-20.4 7.3-1.3.6-2.5.8-2.8.5s2.8-2.1 7-3.9c6-2.7 7.5-3.8 7.5-5.6 0-1.7-1.3-2.6-6.8-4.7-3.7-1.4-7.7-2.6-9-2.6-1.2 0-2.2-.2-2.2-.4s-.3-1.1-.6-2c-.4-1-.1-1.6.9-1.6.8 0 2.8-.7 4.3-1.5 3.1-1.6 4.5-.5 2.4 2-1.7 2-.1 1.8 3.5-.6 1.7-1 4-2.4 5.3-3 2.7-1.5 2.8-2.4.5-3.8-1.4-.8-.7-.9 2.7-.4 2.5.3 4.8 1 5.1 1.5.7 1.1 3.9-.1 3.9-1.4 0-.6-.7-.8-1.4-.5-.9.4-1.3.1-1-.6.4-1.1 9.6-7.7 11.9-8.6.6-.2 1.8-1.1 2.8-2 1.8-1.5 1.8-1.4.7 1-.7 1.5-3 3.6-5.1 4.8-4.1 2.4-4.4 2.8-3 5 1 1.6 8.2.8 14.1-1.5l3.6-1.5-.4-5.7c-.3-4.4-.1-5.4.8-4.5.7.6 1.1 2.8.8 5.2-.2 2.4.1 4.1.7 4.1 1.1 0 10.5-9.9 10.5-11 0-.4.7-.7 1.5-.7s1.5.4 1.5.8m-302.3 62.8c-.4 1.7 0 3.6.9 5 .8 1.1 1.3 2.4 1.1 2.9-.3.4 1.4 3.2 3.7 6.3 9.8 13.2 13 17.4 13.8 17.7.4.2.8 1.2.8 2.1 0 1 .8 2.7 1.8 3.9.9 1.1 4.6 5.8 8.2 10.3 9.4 12 13.7 16.9 14.4 16.2.3-.4.6.3.6 1.4 0 1.3 1.3 2.9 3.3 4.2 1.7 1.1 2.7 2.1 2.2 2.1-.6 0-2.2-.8-3.5-1.7-1.4-1-2.7-1.7-3-1.7-1.4.3-2.8-.9-2.4-2 .5-1.2-1.8-4.6-10-14.6-2.5-3-6.4-8.1-8.8-11.2-2.4-3.2-5.1-6-6-6.3-1-.4-1.8-1.1-1.8-1.6 0-1.8-14.5-22.9-15.5-22.5-.6.2-1.1-2.5-1.3-6.5-.2-4.7.1-6.9.9-6.9.7 0 .9 1 .6 2.9M1203 674.4c0 1.3 2.7 3.1 4.2 2.8.7-.2 3.8 7.2 3.8 9.3 0 3.7 1.8.9 4-6 1.8-5.7 2.8-7.5 4.2-7.5 1 0 1.8.1 1.8.2 0 1.3-6.7 17.7-7.1 17.4-.2-.2-.4 1.3-.4 3.4 0 3.6 1.4 7.1 1.6 3.9 0-.8.4-.3 1 .9.5 1.3.7 2.8.3 3.3-1 1.6-2.4.9-3.4-1.6-.6-1.5-1.7-2.5-2.8-2.5-1.5 0-2.5-1.6-4.2-6.3-1.2-3.4-3.3-9-4.6-12.5-2.2-6-2.3-6.2-.4-6.2 1.1 0 2 .6 2 1.4m22.7 9.4c-.1.4-.6.6-1.1.4s-.6.4-.2 1.3c.3.9.6 2.1.6 2.6 0 .6.8.5 2-.1s3.6-.8 5.7-.4c2.7.5 3.4.4 2.8-.5-.4-.7-1.3-1-2-.7-.7.2-1.2-.2-1.1-1.2 0-.9-.8-1.8-1.9-2-4.4-.7-5.1-1.3-3.2-2.3 2-1.1 7.7-.3 7.7 1.2 0 .5 1.1 1.1 2.5 1.5 1.3.3 2.9 1.2 3.6 2 .9 1.1 1.6.9 3.9-1.6 3.9-4.1 7.1-4.7 12.2-2 5.3 2.7 8.8 5.9 8.8 7.9 0 1.4-.1 1.4-1 .1-.8-1.3-1-1.2-1.1.5s-.2 1.7-.6.2c-.6-2.4-2.3-2.1-2.3.4 0 1.1-1.3 3.4-3 5.1-3.6 3.6-3.7 3.8-.6 3.8 1.5 0 3.3-1.1 4.5-2.6s2.1-2.3 2.1-1.8c0 1.8-4.5 5.4-6.7 5.4-1.5 0-2.2.4-1.7 1.1 1.1 1.8-3.6-1-8.6-5-3.8-3.1-5-3.6-7.5-3-1.6.4-2.6.7-2.1.8.4 0-.2 1-1.5 2-3.4 2.7-1.5 3.9 2.6 1.6 4.3-2.3 5.7-1.2 2.5 1.8l-2.4 2.2 1.8-2.3c2.2-2.6 1.5-2.8-1.9-.6-1.6 1-3.4 1.4-5.1 1-1.8-.5-2.4-.3-1.8.5.9 1.5-.7.6-5.4-2.9-2.2-1.7-3.1-3-2.7-4.1.3-.8.3-1.2-.1-.9-.8.9-3.4-1.6-3.4-3.2 0-.7 1-3.4 2.2-6.1 1.9-4.1 2.4-4.6 3-2.9.4 1.1.6 2.4.5 2.8"/><path d="M621.6 76.7c-.8.9-10.8 2.6-32.6 5.8-20.5 3-21.3 3.2-18.5 4.7 6.1 3.2 29.1 16.3 29.5 16.9.4.5 14.1 7.9 29 15.6l4.5 2.3.3-2.3c.2-1.2-.8-8.1-2.2-15.2s-2.4-13-2.2-13.2 1.3 3.8 2.5 8.9 2.6 10.6 3.1 12.3c.5 1.6 1.4 4.9 2 7.2l1 4.2 3.8-1.3c3.9-1.4 28.3-11.8 36.5-15.5 2.6-1.2 4.7-2.5 4.7-2.9 0-.8-33.3-17.2-35-17.2-.6 0-5.6-2.3-11.1-5.1-5.6-2.7-10.3-4.8-10.6-4.5s-1.3.1-2.3-.4-2-.6-2.4-.3M549 88.7c-5.2.7-17.8 2.8-28 4.5s-23.2 3.9-29 4.8c-7.5 1.2-9.9 1.9-8.5 2.5 1.1.4 6.3 2.6 11.5 4.7 12.4 5.2 18 7 20.7 7 1.3 0 2 .5 1.7 1-.4.6.3.5 1.5-.1 1.2-.7 2.6-.9 3.1-.6s2.9-.3 5.2-1.4l4.3-2 .6 2.7c.6 2.3 1 2 .8-.5 0-.7 4.7-2.2 7.8-2.5.9-.1 1-.5.2-1.4-.6-.7-.8-1.8-.4-2.4.3-.5-.1-1-.9-1-2 0-2.2-5.3-.3-6.7.6-.6 3.6-.9 6.6-.8 3.6.1 5.5-.3 5.8-1.2.3-.7 1.1-1.3 1.7-1.3.7 0 2.7-1.6 4.6-3.5 1.9-2 2.8-3.5 1.9-3.4-.7.1-5.7.8-10.9 1.6M434.1 94.7c0 5 1.4 18.8 3.6 35.2.3 2.9.8 3.9 1.4 3 .4-.7 1.1-1 1.5-.6.4.3.1 1.5-.6 2.4-1.8 2.3 14.1-13.7 25.3-25.7 4.8-5.1 8.7-9.6 8.7-10.1 0-.4-2.6-1.3-5.7-2-3.2-.6-8.4-1.8-11.6-2.6-3.1-.7-7.6-1.6-9.9-1.9-2.3-.4-6-1.3-8.1-2-2.2-.8-4.1-1.4-4.3-1.4s-.4 2.6-.3 5.7M427.4 94.4c-8 6-39.9 35.7-35.7 33.3.6-.4 2.4-.2 4 .4 1.5.6 3.9 1.3 5.3 1.5 1.4.3 7.9 2 14.5 3.9 18.6 5.2 18.1 5.2 18.8 1.2.3-1.8.1-6.7-.4-10.8-.4-4-.9-11.9-1-17.4s-.4-11.2-.8-12.6l-.6-2.6zM389.2 132.5c-1.2.9-2 2.1-1.7 2.6.4.5.1.9-.4.9-.6 0-1.1.9-1.1 1.9 0 3.1-1.1 5.1-2.4 4.4-.6-.3-.6-.1.2.8.6.7 1.2 3.2 1.2 5.5 0 3.1.7 5 2.3 6.8 2.2 2.4 2.5 2.4 5.3.9 1.6-.8 3.8-1.6 4.9-1.7 1.3 0 2.1-.9 2.3-2.4.2-1.2.8-2.2 1.3-2.2s.9-1.6.9-3.5.5-3.5 1-3.5c.6 0 1-1.6 1-3.5 0-2.8-.4-3.5-2-3.5-1.1 0-2-.6-2-1.4 0-2.9-7.5-4.4-10.8-2.1M644 131.4c0 1.9 9.7 15.2 20 27.4 1.1 1.3 2.1 3.1 2.2 4 .2.9.7 2.1 1.1 2.7.4.5 2.2 3.3 4 6.1l3.3 5.2 2.9-2.7c1.7-1.5 4.2-4.2 5.6-6.1 1.5-1.9 3.6-4.6 4.8-5.9 1.1-1.3 2.1-2.7 2.1-3 0-.4-2.6-2.1-5.7-3.9-3.2-1.8-12.3-7.3-20.3-12.2s-14.9-8.9-15.4-9c-.5 0-1.8-.7-2.8-1.7-1-.9-1.8-1.3-1.8-.9M687 166.7c-1.4 2.1-4.4 5.7-6.7 8.1l-4.2 4.4 3.1 4.7c1.7 2.5 4.8 6.6 6.8 9.1 2.1 2.5 4.9 6.4 6.4 8.8s4.1 5.8 5.8 7.5l3 3.2-.5-3.5c-2-12.9-9.3-46-10.2-46-.5 0-2.1 1.7-3.5 3.7M606 178.8c-.8.3-2.5 1.6-3.8 2.9-1.8 2-2.1 3.2-1.7 6.1 1.2 7.3 1.6 8.2 3.3 8.3 1.4 0 1.4.2-.3.8-1.8.7-1.7.8.7 1.4 3.9 1 11.8-.3 11.8-1.9 0-.8.5-1.4 1-1.4.6 0 1-.7 1-1.5s.6-1.5 1.3-1.5c.8 0 .7-.4-.3-1s-1.1-1-.2-1c1.6 0 1.5-8-.2-10.3-1.9-2.5-2.6-2.1-2.6 1.3 0 2.8-.2 3-3.9 3-3.6 0-4-.3-4.3-2.8-.2-2-.7-2.7-1.8-2.4M363 182.4c.5 1.5.8 3.1.5 3.6-.3.4.2 2.8.9 5.4.8 2.5 1.1 4.6.7 4.6-.8 0-.2 24.2.5 25 .8.8 12.4-15.6 12.4-17.6 0-.2 1.1-2 2.5-4s2.5-4 2.5-4.5c0-.7-5-4.1-13.6-9.4-1.8-1.2-4.2-2.9-5.4-4l-2.1-1.9zM672.4 183.3c-.7.7-6.2 6.1-12.4 12.2-6.1 6-11.6 11.7-12.1 12.6-.7 1.5 1.4 2.1 17.9 5.3 10.3 2 20.5 3.8 22.7 4.2 2.2.3 6 1 8.5 1.4 2.5.5 4.6.7 4.8.5.5-.5-1.9-4.9-3.1-5.6-.5-.4-3.9-4.9-7.6-10.1-7.6-10.9-16.1-21.8-17-21.8-.3.1-1.1.6-1.7 1.3M562 193.4c-4.1.7-17.4 2.9-29.5 4.9s-27.8 4.7-35 5.8c-21.1 3.5-29.8 5.4-30.2 6.6-.3.7 1 1.9 2.8 2.8 4 2.1 8.3 5.3 21.3 15.4 19.5 15.3 59.5 46.1 72.2 55.6 4.8 3.6 9.1 6.5 9.6 6.5.9 0 .9-65.9-.1-85.5-.5-10.5-.9-13-2.1-13.1-.8-.1-4.9.4-9 1"/><path d="M577 193.2c0 1 8.3 17.4 10 19.8 1 1.4 2.7 4.1 3.7 6 1.8 3.1 13.9 23.7 20.3 34.2 1.2 2.1 2 3.8 1.7 3.8-1 0-10.4-15-22.2-35.5-3.2-5.5-6.3-10.7-7-11.5s-2.5-3.8-4-6.7c-1.4-2.8-3.3-5.8-4.2-6.5-1.4-1.1-1.5.1-.9 11.2.3 6.9.7 28.8.9 48.7l.2 36.3 3.5.1c6.2.1 15.2.8 28 2 6.9.6 15.2.9 18.3.5 5.4-.7 5.7-.9 5.1-2.9-.9-2.8-9.8-20.5-13.3-26.6-2.9-4.9-4.3-8.1-3.6-8.1.4 0 9.3 15.8 15 26.7 2.5 5 4.3 7.3 5.6 7.3 1.1 0 1.9.9 2.1 2.2.3 2.1.7 1.9 4.8-2.3 2.5-2.6 9.5-10.1 15.5-16.9 6.1-6.7 13.8-15.2 17.1-18.9 3.4-3.6 9.8-11.1 14.3-16.6s9.5-11.5 11.2-13.4c1.6-1.9 2.6-3.8 2.2-4.1-.5-.4-7.8-1.9-16.3-3.4-8.5-1.4-20.7-3.5-27-4.6s-12-2-12.7-2c-1.1 0-1.4 1.1-2.8 8-.3 1.4-1 10.1-1.5 19.5-.6 9.3-1.4 20.4-2 24.5-.5 4.1-1.2 10.9-1.6 15-.3 4.1-1.1 8.4-1.6 9.5-.9 2.1-.8 1.1 1.6-22.5 1.4-13.1 3-39.3 3.1-49.5v-5l-11.5-3.7c-6.3-2-20-6-30.5-8.9-10.4-2.8-19.6-5.4-20.2-5.7-.7-.2-1.3-.2-1.3 0M383.6 199.4c-1 1.9-1.5 3.9-1.2 4.5.4.6 0 1.1-.9 1.1s-1.3.5-1 1.1c.4.5-.5 2.1-1.9 3.4s-2.6 2.7-2.6 3c0 .7-1.4 2.4-5.7 7.1l-3.1 3.4h3.2c1.8 0 3.6-.4 4.2-.9.5-.5 2.2-1.1 3.9-1.3l3-.3-2.5-2.3c-2.3-2.1-2.3-2.2-.3-2.2 2.1 0 5.3-2.9 5.3-4.7 0-1.6 2.8-2.4 3.6-1.1.4.7.2 1.4-.4 1.6-1.9.6-1.4 2 .9 2.7 1.5.5 1.8 1 1 1.8-1.8 1.8-1.3 2.5 1.4 1.9 1.4-.2 2.5-.9 2.5-1.4 0-.6.9-.8 1.9-.5 1.4.3 1.8.1 1.4-1-.5-1.2.3-1.3 4.6-.7 4.6.6 5.1.5 5.1-1.2-.1-1.8-2.9-7.7-3-6.2 0 .3-1.3-.6-2.9-2-4.2-4-11.8-9.2-13.3-9.2-.8 0-2.2 1.5-3.2 3.4M454.7 210.7c-.1.1-8.5.9-18.6 1.8-10.1.8-18.8 1.8-19.3 2.1-.4.3-.8 1.3-.8 2.2 0 1.5-.2 1.5-1.1.2-.9-1.2-1-1.1-.4.5 1.3 3.9 1.4 7.4.4 39-.7 22-.7 32.1.1 32.3.5.2 1 .8 1 1.3 0 .6-.4.8-.8.5-.5-.3-.9.1-.9.9 0 2.3 2.4-.1 5.4-5.4 1.5-2.5 3.2-5.3 3.9-6.1s4-6.9 7.5-13.5c3.4-6.6 7.7-14.2 9.6-17 1.8-2.7 3.3-5.8 3.3-6.8s.9-2.8 2-4c5.4-5.7 16-23.8 16-27.3 0-.8-6.6-1.5-7.3-.7M462.9 216.2c-.7 1.3-1.5 2.5-1.8 2.8s-1.3 1.8-2.1 3.5c-.8 1.6-2.9 5.4-4.7 8.3s-3.3 5.9-3.3 6.7-.7 1.8-1.7 2.3c-1 .6-1.6 2.1-1.5 4.1 0 1.7-.3 2.9-.8 2.6-1.5-.9-5.9 5.6-13.9 20.6-4.3 7.9-10.1 18.4-12.9 23.2-2.9 4.9-5 9.2-4.7 9.7.4.7 12.9 8 29 17 2.2 1.2 7.4 4.2 11.6 6.6s7.9 4.4 8.3 4.4.6-25.7.6-57c-.1-31.4-.3-57-.5-57s-1 1-1.6 2.2M466.6 270.6c.2 31.2.7 57 1.1 57.5.4.4 13.6-3.5 29.3-8.7s33-10.8 38.5-12.5c10-3 29.3-9.8 35-12.3l2.9-1.3-3.9-2.6c-2.2-1.4-7.8-5.5-12.5-9.2-4.7-3.6-19.7-15.1-33.5-25.6-13.7-10.4-28.1-21.6-32-24.9-7.6-6.5-22.6-17-24.2-17-.7 0-.9 19.7-.7 56.6M393 222c-1.1 1.1-2.9 2-3.9 2-1.5 0-1.8.5-1.4 2.1.4 1.2 0 2.5-.8 2.9-2 1.3-2.9.3-2.9-3.1 0-3 0-3-4.7-2.4-9.1 1.1-11.3 1.6-11.3 2.3 0 .9 6.5 7.2 7.4 7.2.3 0 1.5.9 2.7 2.1 1.1 1.1 2.7 1.8 3.5 1.5s1.2-.2.9.4c-.6 1 2.4 5 3.8 5 .5 0 1.5.7 2.3 1.5 1.8 1.7 3.4 2 3.4.5 0-.6.7-1.8 1.6-2.8.8-.9 4-5.2 7-9.4 4.1-5.8 5.4-8.3 4.9-9.9l-.7-2-1.8 2c-2.2 2.7-5 2.7-5 .1 0-1.1-.7-2-1.5-2s-2.4.9-3.5 2M410.5 223.1c-.7 2-2.3 4.4-5.5 7.8-2.2 2.4-7 9.9-7 11 0 .5-.6 1.1-1.4 1.4-.7.3-1.6 1.7-1.8 3.1-.6 2.9 4.4 18.1 5.6 16.9.4-.4.4 0 .1.9-.4.9.9 4.9 2.9 9.1 2 4.1 3.6 8.1 3.7 8.9 0 .7.4.3 1-1 .5-1.3 1.3-2.1 1.9-1.7.5.3 1.2-.4 1.4-1.7 1-4.9 1.8-51.8.8-51.8-.5 0-.7-1.1-.4-2.5.5-3-.4-3.3-1.3-.4M364 230.5c-.5 1.4-1 2.9-1 3.2s-2.5 6.1-5.5 12.8c-3 6.8-5.5 12.8-5.5 13.4 0 2.3 4.3 1.1 17-4.7 1.9-.8 6.6-2.8 10.4-4.3 3.8-1.4 6.2-2.9 5.5-3.2q-1.5-.6.3-.6c2.3-.1-2.5-5.2-10.9-11.5-3.4-2.5-6.9-5.3-7.7-6.2-1.4-1.4-1.7-1.3-2.6 1.1M356.3 230.6c-4.9 2.4-6.1 4.4-7.8 12.3-1.3 6.4-1.3 10.8.2 13.4 1.2 2.1 6.3-7.4 8.9-16.3.7-2.5 1.7-6 2.3-7.8 1.1-3.6.8-3.8-3.6-1.6M377.5 254c-6.6 2.6-15.1 6.2-19 7.9l-7 3.2 4 2.5c2.2 1.3 8.1 4.4 13.2 6.9s12.1 6.2 15.5 8.3c7.5 4.6 19.1 10.7 23.2 12.2 2.4.9 2.7.8 1.8-.3-.7-.8-.9-1.7-.5-2.1s.3-1-.3-1.4c-.9-.7-5.9-12.9-10.7-26.7-3.2-9-5.7-14.3-7.1-14.8-.7-.3-6.6 1.7-13.1 4.3M346 280.8c-1.2 4.3-2.6 8.9-3 10.4-.9 3-.5 3.8 2.2 3.8 1.1 0 1.6.4 1.3 1s.4 1 1.7 1 4.8.7 7.8 1.5c4.8 1.2 5.3 1.2 3.6 0-1.1-.8-2.9-1.5-3.9-1.5-1.9 0-1.9-.1.1-1.9 2.5-2.1 2.9-5.1.8-5.1-1.6 0-2.9-2.7-1.6-3.5.4-.3-.3-2.6-1.6-5.3-1.3-2.6-2.4-5.2-2.4-5.8 0-.7-.6-1.4-1.4-1.7-.9-.4-2 1.7-3.6 7.1M576.1 295.8c-.6.2-.6 1.5 0 3.4.5 1.8.7 3.4.4 3.6-.2.2-.7-.9-1.1-2.4-.4-1.6-.8-3.2-1-3.5-.2-.4-5 3.8-10.6 9.3-5.7 5.4-14.3 13.4-19.3 17.6-13.5 11.6-21.5 19.4-20.9 20.3.2.4 1 .6 1.7.4 2.1-.8 29.8-6.5 41.6-8.6 6.3-1.1 11.9-2.3 12.4-2.6s.6-1.5.3-2.7c-.6-1.9-3.6-23.8-3.6-26 0-.5.2-.7.5-.5.2.3 1.1 5.4 2 11.5 1.6 11.6 3 16.4 4.9 16.3.6 0 2.3-.8 3.7-1.7 5.7-3.7 22.7-15.6 28.4-19.7 3.3-2.5 8.1-5.7 10.8-7.2 2.6-1.4 4.7-3 4.7-3.5 0-.4-2.2-.8-4.9-.8s-11.1-.7-18.7-1.5c-13.9-1.4-29.5-2.3-31.3-1.7M560.5 300.3c-4.4 1.8-10 3.9-12.5 4.6-11.4 3.3-72.6 23.5-73.5 24.2-.5.5-1.8.9-3 .9-2 .1-2 .1-.1 1.5 1.9 1.5 1.9 1.5-.1 1.5-1.2 0-2.4-.6-2.6-1.3-.3-.6-.6 0-.6 1.5-.1 1.5-.5 3.7-1 5.1-1.6 4.1-2.4 12.7-1.2 12.7.6 0 1.1-1 1.2-2.3.1-1.8.3-1.6 1.1 1 .8 2.5.7 3.5-.5 4.7-.8.9-1.3 2.4-1 3.5s-.4 2.8-1.7 4.1c-1.8 1.8-2 2.8-1.4 6.6.7 4.9 1.3 5.4 3.2 2.3.9-1.4 1.9-1.8 3.2-1.4 1.5.5 2.3 0 3.2-2.2.6-1.5 1.2-3.1 1.2-3.5.1-.4.9-1.7 1.9-2.8.9-1.1 1.7-2.5 1.7-3 0-.6.9-1 2-1s2 .7 2 1.5-.4 1.5-1 1.5c-2.1 0-.9 1.8 1.5 2.2 1.3.3 2.2.1 1.9-.4-.3-.4.2-1.5 1-2.4 2-2 2-3.4.1-3.4-1.8 0-2-2.6-.2-3.3.9-.4.8-.6-.2-.6q-1.35-.15.9-2.1c2.6-2.2 4.1-2.5 5.6-1 .6.6 3.1 1.3 5.5 1.6s4.6.9 4.7 1.5c.2.5.8.9 1.4.9s.8-.7.4-1.5c-.5-1.5.4-1.9 3.8-1.5 1.2.1 1.6-.2 1-1.1-.5-.9-.2-1 .9-.6 1 .3 1.7.2 1.7-.3 0-.6.3-.9.8-.9 2.8.5 2-.5-1.3-1.5l-4-1.3h3.8c2-.1 3.9.3 4.2.7 1 1.7 6.6-1.3 10.3-5.4 2-2.3 7.6-7.4 12.4-11.4 4.7-3.9 11.7-10.2 15.5-13.9 3.8-3.8 9.4-9.2 12.6-12.1 3.2-2.8 5.2-5.2 4.5-5.2-.7.1-4.9 1.5-9.3 3.3M399.9 301.4c-.4.4-18.9 1.5-27.1 1.6-2.7 0-4.8.4-4.8 1 0 .5 1.9 4.2 4.3 8.2 2.3 4 5.1 9 6.2 11.1 1.1 2.2 3.1 5 4.4 6.3s2 2.4 1.5 2.4c-.5.1.4.8 1.9 1.6 3.5 1.9 4.6 1.1 10.3-7.2 2.1-3 3.9-5.4 4-5.4.2 0-1.5 3.7-3.6 8.2-3.5 7.2-5.1 12.3-3.4 10.5.3-.3 1.6.5 2.8 1.9 1.7 2 4.2 2.8 12.6 4.4 5.8 1.1 10.8 2 11.2 2 1.2 0 .9-5.8-.7-13-.7-3.6-1.2-6.6-1-6.8.4-.4.9 1.3 3.1 10.8.9 4.1 1.8 7.6 2 7.8.3.4 31.5-12.3 36.2-14.7l3.5-1.8-11.9-7c-6.5-3.9-17.4-10.1-24.2-13.8-11.9-6.5-12.4-6.6-14.7-5.1-1.4.9-3.2 3-4 4.6-.9 1.7-1.8 3-2.1 3s.6-2 2-4.4c1.4-2.5 2.6-4.9 2.6-5.5 0-1-10.1-1.6-11.1-.7M451 338.6c-17.7 7.4-17.7 7.4-15.8 8.8 1.5 1.1 1.5 1.3-.3 2.4-1.2.8-3.3 1-5.4.6-4.9-.9-4.4.3.6 1.6 2.7.7 4.3 1.8 4.6 3.1.3 1 .9 2 1.4 2 .5.1 1.4.2 1.9.3.6 0 1.5.8 2 1.6.7 1 1 1.1 1 .2 0-1.7 1.5-1.5 3.4.4 1.6 1.5 3.4 2.2 6.7 2.3.8.1 2.5 1 3.7 2.1 2.8 2.7 4.2 2.5 4.2-.4 0-1.4.4-3.6 1-5.1.7-1.7.7-2.4 0-2-.6.3-1-.1-1-1s.4-1.4.9-1.1c.9.6 2.1-4.7 2.7-12.9.3-2.8.6-5.6.9-6.3.7-1.9-1.2-1.4-12.5 3.4M395.6 352.1c.3 3.5.6 6.6.6 6.9.3 1.3-1.6 6.6-2.7 8-.8.8-1.6 3.2-2 5.2-.4 2.1-1.2 3.8-1.9 3.9-.6 0-.3.4.8.8 1.7.7 1.7.8.2 2.4-1 .9-1.3 1.7-.8 1.7 1.3 0 23.2-21.4 23.2-22.7 0-1.4 4.9-3.5 6.3-2.7.7.4.9.4.5-.1-.4-.4-.3-1.4.3-2.1 2.9-3.5-1.5-5.1-18.8-6.9l-6.3-.7zM422.6 355.2c-.3 1.3-1 5-1.6 8.3s-1.7 8-2.5 10.5c-5.6 18.7-7.5 27-5.8 27 .8 0 21.1-10.8 29.6-15.7 3.7-2.2 6.4-4.3 6-4.8-.5-.4-.2-.5.5-.1.8.5 2.1.1 3.3-1 2.4-2.2 2.4-3.4-.1-3.4-1.1 0-2-.4-2-.9s-1-1.1-2.2-1.3-2.3-.9-2.6-1.7c-.3-.9 0-1.1.9-.5 1.2.7 1.2.5 0-.9-.7-.9-2.3-1.7-3.5-1.7-2.3 0-6.1-2-3.8-2 .6 0 1.2-.7 1.2-1.6 0-1-.6-1.4-1.5-1-.9.3-1.5 0-1.5-.9 0-.8-1.9-2.8-4.2-4.5-2.4-1.6-5.2-3.7-6.3-4.5-2.6-2-3.4-1.9-3.9.7M402.7 372.8c-3.2 3.2-5.4 6.1-5.1 6.5.4.4-.1.7-1.2.7-1.5 0-1.6.2-.5.9.7.5 1.1 1.3.7 1.9-.3.6 0 1.2.6 1.5.7.2-.2.7-2 1.1s-3 1.2-2.6 1.7c.3.5-.7.9-2.3.9h-2.7l2.2 1.6c1.2.8 2.7 1.2 3.2.9.6-.3 1.5-.3 2.1.1.8.4.7.9-.2 1.5-1.1.7-1 .9.4.9.9 0 1.7.7 1.7 1.6 0 .8.5 1.2 1 .9.6-.3 1-.1 1 .5s.5.8 1 .5c.6-.4.9-.1.8.6-.3 1.4 4.7 4.3 6.1 3.5 1.2-.8 6.7-18.6 8-26 1.2-6.6.7-7.6-3.9-7.6-1.8 0-4.3 1.7-8.3 5.8M368.5 391.7c-3.8.8-7.9 1.6-9 1.7-1.9.3-2 1-2 10.9 0 5.8.3 10.8.6 11.1.5.5 16.7-2.2 17.7-2.9.1-.1.4-1.5.7-3.1.2-1.6 1.5-5.9 2.8-9.7 1.4-3.7 2.2-6.7 1.9-6.7s-5.3 4.7-11 10.6c-5.7 5.8-10.7 10.2-11 9.9s3.6-4.8 8.8-10c5.2-5.1 9.6-9.9 9.8-10.4.2-.6 1-1.1 1.7-1.1.8 0 1.7-.5 2-1 .9-1.4-4.6-1.1-13 .7M382.2 398.5c-1.8 4.2-3.5 9-3.9 10.7-.7 3.6-2.2 3.7 16-1l10.9-2.8-3.4-2.7c-1.8-1.5-5.8-4.7-8.9-7.2s-6-4.5-6.5-4.5c-.6 0-2.4 3.4-4.2 7.5M319.8 444c-.1 1.9-.1 4.6 0 5.9.1 1.4-.3 3-.8 3.6-.4.5-1 5-1.1 9.8-.2 4.9-.7 9.1-1.1 9.3-.9.6-.1 29.6 1.1 40.4l.7 6.5 1.2-4.2c.7-2.3 3.1-8.9 5.3-14.5 3.8-9.6 4.1-10.8 3.5-17.3-1.2-15.6-1.9-20.2-3.3-25.5-.8-3-1.9-7.8-2.5-10.5-1.2-6.3-2.7-8.1-3-3.5M270 449.7c.1 1.6 18.1 12.3 20.7 12.3 2.3 0 20.3-8.1 20.3-9.2 0-.4-1-.7-2.2-.7-2.1.1-21-1.4-33.5-2.6-2.9-.3-5.3-.2-5.3.2M326.3 501.6c-3.7 9.6-6.6 19.4-6 20.1.3.2 3.5-2.6 7.1-6.4 5.1-5.2 6.5-7.3 6.1-8.8-.4-1.1-1-3.4-1.5-5-2.3-8.5-2.5-8.5-5.7.1M332.2 512.6c-3.1 2.2-12.2 13.2-12.2 14.8 0 .8 1.1 1.7 2.4 2 5.1 1.3 24.7 3.7 25.6 3.1.7-.4-9.1-16.2-13-20.7-.3-.4-1.6-.1-2.8.8M972 127.1c-1.4.4-7.2 1.9-12.9 3.3-5.8 1.5-10.6 2.8-10.8 3-.4.4 21.3 22.6 30.3 31l6.1 5.6-.8-4.7c-1.8-11.8-1.8-12.2.6-3.4 1.3 5.1 2.6 9.5 2.8 9.8 1.2 1.1 26.8-7.6 27.4-9.4.3-.9-8.6-9.5-28.4-27.2-4-3.5-6.9-6.9-6.6-7.5s.3-.8-.1-.4c-.5.4-1.8.3-3-.1-1.1-.4-3.2-.4-4.6 0M943 136c-1.4.4-7.9 3-14.5 5.8-20 8.3-19.8 8.1-13.7 9.9 26.9 7.7 35.1 10.1 49.4 14.4 9.1 2.7 16.9 4.9 17.3 4.9.8 0 1.6.9-18.3-19.4-9-9.1-16.6-16.6-17-16.5-.4 0-1.8.4-3.2.9M1014.5 165.5c-.5.2-4.1 1.3-8 2.5-3.8 1.2-9.1 3.1-11.8 4.2l-4.7 2.1 5.4 3.3c8.6 5.4 41 23.3 41.5 22.9.9-.9-19-35.5-20.4-35.4-.5 0-1.4.2-2 .4M992.5 179.1c1.1 1.3 3.5 4 5.3 5.9 1.7 1.9 3.2 4 3.2 4.6 0 .7 2.6 3.9 5.8 7.1 3.1 3.2 8.8 9.4 12.6 13.8 3.9 4.4 7.3 8.1 7.7 8.3s1.4-.6 2.2-1.8c.8-1.1 3.4-4.1 5.8-6.7l4.3-4.6-2.6-2.2c-2.3-2-19.8-12.2-33.3-19.4-2.2-1.2-6-3.3-8.5-4.8l-4.5-2.6zM990.6 185.9c2.1 9.1 4.5 13 8.1 13.2 1 0 1.3.3.6.6-2 .7-1.5 2.3.6 2.3 3 0 3.3 1.6.6 3-1.4.7-2.5 2-2.5 2.8 0 2.2 3.1 13.6 4 14.7.5.5 1.1 2.6 1.5 4.5.3 1.9 1.2 4.3 2 5.3 1.3 1.8 1.8 1.6 8.7-3.1 4-2.7 8.3-6.1 9.5-7.4l2.2-2.4-7.2-7.4c-7.8-8-10.5-10-13.7-10-1.3 0-1.8-.5-1.4-1.5.4-.8 1-1.2 1.5-.9 3.6 2.2-3.5-7.2-11.7-15.5l-4.3-4.4zM987 185.7c0 1.2-.5 2.5-1.2 2.9q-1.05.75-.3-.6c.6-1 .4-1.2-.9-.7-1.4.5-1.7.3-1.2-.8.8-2.2-.2-1.8-1.5.6-.8 1.5-.8 1.9 0 1.5.7-.5 1.1.1 1.1 1.4 0 1.6-.5 2-1.5 1.6-1.6-.6-2.2 1.1-2.9 7.8l-.3 3.8 3.6-.6c2-.3 4.2-1.4 5-2.6 1.7-2.6 3.1-2.6 3.1 0 0 1.1.5 2 1 2 .6 0 1-1 1-2.3-.1-3-4.9-16.8-5-14M934 206.7c0 .7-.9 1.3-2 1.3-1.9 0-2.5 1.9-2.2 7 .1 2.1-1.9 3-3.9 1.9-2.2-1.1-2.9-1.1-2.9 0 0 .5 1.5 1.2 3.3 1.6 1.7.4 6.8 1.8 11.3 3.1 4.4 1.3 9.1 2.4 10.5 2.4h2.4l-2.4-1.9c-1.5-1.2-2.4-2.9-2.5-5-.1-1.8-.6-3.1-1.4-3.1-.7 0-2.9-1.7-4.7-3.8-1.9-2-3.5-3.3-3.5-2.7 0 .5-.5.3-1-.5-.6-1-1-1.1-1-.3"/><path d="M1034.4 213.8c-7.1 7.7-7.3 5.8 1.8 21 2.8 4.6 4.8 8.6 4.5 8.8-.7.7-7-9.2-10.5-16.3-1.4-2.9-3-5.3-3.4-5.3-.5 0-2.4 1.4-4.3 3.1-1.9 1.8-5.6 4.6-8.2 6.3-2.5 1.7-4.8 3.6-5 4.2-.2.5 5.3 2.6 12.4 4.6 14.7 4.2 18.8 5.6 18 6.4-.3.3-3-.3-6.1-1.5-6.2-2.3-20.6-6.1-23.1-6.1-.9 0-1.5.6-1.3 1.3.6 2.3 13.3 23.7 14.1 23.7.9 0 10.8-8 15.1-12.3l3.3-3.2-.3-17.5c-.3-14.2-.6-24.3-.9-23.9 0 0-2.8 3-6.1 6.7M974.1 210.7c0 2.2-.6 3.3-1.6 3.3-1.3 0-1.7.6-1.4 2.6 0 .4-.3 1-.8 1.3-1 .6-4.6 9.2-4.1 9.6.8.7 34 7.4 36.9 7.5.4 0-1.3-5.5-3.6-12.3l-4.2-12.2h-9.2c-6.9 0-9.4.4-10.1 1.4-.6 1.1-.9.7-1.3-1.5l-.4-2.9zM1044.3 215.4c.4.9 1.1 4.5 1.7 7.9.5 3.4 2.1 10.8 3.5 16.5s2.5 11.2 2.5 12.3c0 1 .8 2.7 1.8 3.7.9.9 1.6 2.6 1.4 3.6s.5 4 1.6 6.5c2.8 6.5 4.4 12.8 4.6 18.6.2 3.2 1.2 6.8 2.9 9.9 1.5 2.7 2.7 6.1 2.6 7.5v2.6l-1-2.5-1.1-2.5-1.2 3c-1.3 2.9-1.3 2.9-.9-1.6.4-3.3 0-5.6-1.4-8.5-1.4-2.8-1.8-4.7-1.2-6.7.4-1.7.3-2.7-.3-2.7s-.8-.7-.4-1.5c.6-1.6-3.3-14.5-4.5-14.5-.3 0-.7 3.4-.8 7.5-.2 6.5 0 7.6 1.8 8.7 2.4 1.5 2.8 3 .6 2.2-2-.8-1.9-.6 1.1 9.2 1.4 4.7 2.4 9 2.2 9.6-.2.5-1.4-2.5-2.7-6.8-3.7-12.5-3.6-12.4-4.9-7.3-.6 2.4-1.9 8.3-3 13.1l-1.9 8.8 2.6-.6c1.4-.4 4.7-1.7 7.4-2.9 4.5-2.1 4.7-2.1 4.7-.3 0 2.5 3.5 6.2 5 5.3 1.6-1 .4-52.3-1.2-54.3-.6-.6-.8-1.2-.5-1.2.8 0-9.9-23.5-18.1-39.8-1.8-3.6-4-5.7-2.9-2.8"/><path d="M1043.4 231.5c.4 12.2 2.4 25.7 4.2 28.7.6.9 2.9 8.9 3.9 13.2.9 3.9 1.5 2.7 1.5-3.1 0-11.1-.9-14.8-4.1-16.7-1.7-1-2.6-2.2-2.3-2.8.5-.7 1.4-.3 2.6 1.1l1.8 2.3-.6-3.3c-.3-1.9-1.2-6.1-2-9.4s-2.3-10.1-3.4-15l-2-9zM965 230.7c.1.9 1.2 3.2 11.5 22.8 3.7 7.1 9.7 18.8 13.3 26 8 15.9 13 24.5 14.2 24.5.6 0 1-12.8 1-33v-33l-2.4-1c-2.2-.8-24.3-5.2-33.3-6.5-2.4-.4-4.3-.3-4.3.2M963.6 243.7c-.4 5.4-1.1 20.1-1.6 32.8-.5 12.6-1.2 30.1-1.6 38.7-.4 8.7-.4 15.8 0 15.8 1.1 0 42.4-20.9 43-21.8.2-.4-.1-1.8-.7-2.9-.7-1.2-6.1-11.5-12.1-23-18.2-34.8-25.4-48.3-26.1-49.1-.1-.1-.5 4.2-.9 9.5M1006.6 243.2c-.3 1.3-.6 15.6-.6 31.8v29.5l2.1-4.5c4-8.6 11.1-25.5 12.5-29.8l1.4-4.4-4.9-8.1c-2.7-4.5-6-10.1-7.3-12.5-2.4-4-2.6-4.2-3.2-2M1033.8 257.6c-4.3 3.6-7.8 7-7.8 7.5s3 2.4 6.8 4.3c8.3 4.3 7.4 4.7-1.4.5-3.7-1.7-7.2-2.8-7.9-2.5-.7.2-1.5 1.7-1.8 3.3-.2 1.5-3.1 9.3-6.4 17.3-8.4 20.4-8.4 19.5-.9 15.8 6.5-3.3 34.5-19.5 36-20.9.5-.5.4-1.5-.4-2.4-1.1-1.3-1-1.4.4-.9.9.3 1.6.2 1.6-.2 0-1.6-9.4-28.4-10-28.4-.3.1-4 3-8.2 6.6M1043.5 289.6c-3.8 2.4-7.8 4.7-8.7 5-2.2.8-2.4 2.4-.3 2.4 3.7 0 6.2 11.1 2.8 12.4-1 .4-1.9.2-2.1-.3-.2-.6-1-1.1-1.7-1.1-.8 0-1.1-.8-.8-2.3.3-1.4.2-1.8-.4-1-.6.9-1.3.2-2.2-2.2-.7-1.9-1.6-3.5-2.1-3.5-1.1 0-18.2 9.2-17.8 9.6.2.2 6.7.8 14.3 1.3 7.7.6 15.6 1.3 17.6 1.7l3.5.6 1.8-8.3c1-4.6 2.4-10.8 3.1-13.7.6-2.8.9-5.2.6-5.1-.3 0-3.7 2-7.6 4.5"/><path d="M1052.3 312c-3.5 1.6-6.3 3.4-6.3 4s-.5.8-1 .5c-.6-.4-.8-1-.5-1.5.6-1-2.9-1.5-19.5-3-6.3-.6-12.7-1.3-14.2-1.5-4.1-.5-5.4 1.3-7.7 11-1.8 7.8-5 24.5-5.1 26.7 0 1.1 4.8 1 11.3-.3 4.5-.9 5.7-1.6 6.1-3.5.4-1.3 1.4-2.4 2.2-2.4 1.8 0 1.7-.9-1.5-8.8-2.6-6.6-1.9-6.7 1.4-.2 1.4 2.7 2.7 5 2.9 5s2-.7 4-1.5 3.9-1.4 4.3-1.3c.4.2 2.9-2.6 5.6-6.2 2.6-3.6 5.9-7.9 7.3-9.5l2.6-3-1.8 3c-1 1.6-3.1 5.1-4.7 7.8-1.7 2.6-2.8 4.9-2.6 5 .2.2 2.5.2 5.1-.1 5.3-.5 6.3-2.2 5.2-9.4-.4-2.4-.4-4 0-3.7.3.3 1 3.2 1.4 6.3s1.2 5.7 1.7 5.8c.6.1 3.2-4.2 5.8-9.6 2.7-5.4 5.1-9.6 5.3-9.3.3.2-1.5 4.9-4 10.3s-4.2 10.2-4 10.6c.8 1.3 3.4.9 3.4-.5 0-.8.3-.8.9.2.8 1.3 1.2 1.3 2.6.1.9-.7 1.4-2.2 1.2-3.1-.3-1-.1-1.7.5-1.6.5.1 2.1-2 3.5-4.6 2.3-4.3 2.4-5.1 1.2-7.5-1.5-3-4.9-7.2-5.8-7.1-.3 0-3.4 1.3-6.8 2.9M984.8 320.9c-10.2 5.3-19.7 10.3-21 11.3-2.3 1.6-2.3 1.6 4.7 4.8 9.5 4.3 11.5 5.1 11.4 4.2-.4-2.7.3-4.2 2.1-4.2 1.1 0 2 .4 2 1 0 .5-.4 1-.9 1s-1.1.9-1.4 1.9c-.4 1.6.7 2.6 5.8 5 3.5 1.7 6.8 3.1 7.3 3.1s1.7-3.5 2.6-7.8c.9-4.2 2.9-12.8 4.5-19 1.5-6.1 2.5-11.1 2.2-11.1-.3.1-9 4.5-19.3 9.8M952 335.7c-1.4.3-7.7 1.9-14 3.5-6.3 1.7-13.4 3.5-15.7 4.1-2.4.6-4.3 1.3-4.3 1.7 0 1.2 6.9 4 7.5 3 .3-.6 1.2-1 1.8-1 .8 0 .8.3-.1.9-1.5.9 6.3 6.4 21 14.8 4 2.4 8.8 5.3 10.7 6.5l3.3 2.2-.5-4c-.2-2.1-1-8.9-1.6-14.9-1.9-17.5-2.1-17.9-8.1-16.8M961 341.2c0 2.9 1 10.5 2.2 16.9l2.1 11.7 2.6-.9c3.2-1.2 8.1-5.4 8.1-7 0-.7.3-1 .6-.7s1.6-.4 3-1.7c1.3-1.2 3.7-2.5 5.3-2.8s4.1-1.7 5.6-3l2.8-2.3-12.9-6.3c-7.1-3.5-14.4-7-16.1-7.7L961 336zM1000.8 350.7c-1.6.2-2.8 1-2.8 1.6 0 2.3 23.8 30.2 24.8 29.2.2-.2-.4-3.9-1.4-8.2-1.7-7.7-3.8-11.8-5.5-10.7-.5.3-.9-.6-.9-2s-.4-2.6-.8-2.6-.8-1.7-.8-3.8v-3.7l-4.9-.1c-2.8-.1-6.2.1-7.7.3M989 357.6c-3 2.4-6.1 5.2-6.8 6.1-.7 1-1.6 1.8-2 1.8-.4.1-1.8.5-3.1.9-1.8.6-2.1 1-1 1.7s.9.9-.6.9c-3 .1-8.5 3.4-7.7 4.6 1.3 2 36.1 23.9 36.8 23.2.1-.2-1.5-7.3-3.6-15.8-2.2-8.5-4.5-18.2-5.2-21.6l-1.3-6.1zM997.5 356.5c.4 1.1 1 4 1.5 6.5s2.1 9.9 3.5 16.5 2.9 13.2 3.2 14.7c.3 1.6.8 2.8 1 2.8.9 0 14.3-12.2 14.3-13 0-.4-3-4.2-6.7-8.5-8.2-9.4-13.2-15.3-15.6-18.6-1.5-1.9-1.7-2-1.2-.4M1060.9 377.4c0 .6-.2 2.1-.5 3.3-.2 1.2.1 2.5.6 2.8 1.2.8 1.3 5.2.1 5.7-1.2.4-2.9 20.5-1.9 22.3.5.7 5 3.9 10.1 7 5 3.1 11.9 7.4 15.2 9.5 3.3 2.2 6.7 4.3 7.5 4.6.8.4 1.8 1.2 2.2 1.8s1 .8 1.3.4c.5-.5-1.4-4.4-12.8-26.3-1.4-2.8-2.9-5.7-3.2-6.5s-3.3-6.9-6.8-13.5c-5.5-10.7-6.5-11.9-8.9-12.1-1.6 0-2.8.4-2.9 1M1017.4 390.2c-6 5.1-8.5 8.1-7.7 8.9.7.7 17.1 5.9 18.5 5.9.4 0 .2-1.2-.2-2.8-.5-1.5-1.7-5.4-2.7-8.6-1-3.3-2.4-6.1-3-6.3s-2.8 1.1-4.9 2.9M1059.1 423.7c.1 7 .4 9.1 1 7.3.8-2.3.8-2.3.4.5-.2 1.6-.7 4.3-1 6-.5 2.3-.4 2.6.4 1.5.9-1.3 1.1-1.3 1.1.3 0 1.5.9 1.7 8.8 1.2 4.8-.4 12.5-1.1 17.2-1.7 7.6-1 8.3-1.2 6.5-2.5-3.7-2.5-31-20.4-32.7-21.4-1.7-.9-1.8-.2-1.7 8.8M1052.7 431.2c-.8 2.9-2.2 8.2-3.2 11.8-.9 3.6-2.1 9.2-2.5 12.5s-.8 5.2-.8 4.1c-.3-3-2.2-.6-7.2 8.9l-4.5 8.6 6 5.4c3.3 3 6.4 5.5 6.9 5.5s.6-1.7.2-3.8c-.3-2-.8-6.9-1-10.7l-.5-7 1.1 5.7c.6 3.2 1.5 5.8 2 5.8s.6-1 .4-2.3c-1.4-6.6-1.6-10-.8-11 .5-.7 1.9-8.2 3.1-16.7s2.4-17 2.7-18.8c.8-5-.4-3.8-1.9 2"/><path d="M1053.2 447.2c-2.4 16.1-2.8 25.6-1.3 30.4.5 1.6 1.7 6.8 2.6 11.6 1 4.9 2.2 8.8 2.7 8.8.6 0 .7-7.3.3-19.8l-.8-19.8 9.8-2.4 9.8-2.4-2.9-2.3c-3.6-2.8-2.3-3 2.1-.3l3.3 2 9.2-6c5.1-3.4 9-6.4 8.7-6.7-.7-.6-27.9 1.6-32.2 2.6l-3 .8 4.3 2.2c2.3 1.2 4.2 2.3 4.2 2.6 0 .6-2-.2-6.7-2.6-2-1-3.8-1.7-4-1.5s.1 1.5.7 3c.5 1.5 1 3.9.9 5.4-.1 2.3-.2 2.1-1-1.1-.5-2-1.6-4.8-2.5-6.2-.8-1.3-1.3-3.2-1-4.2.2-1 .2-3.5-.2-5.6-.6-3.2-1.1-1.3-3 11.5"/><path d="M1058.4 469.7c.3 2.1.7 10.4.8 18.5.2 8.2.6 14.8.9 14.8.6 0 8.9-8.6 8.9-9.2 0-.2-1.4-3.9-3.1-8.3s-4-10.6-5.1-13.8c-2.3-6.6-3.2-7.3-2.4-2M671.6 659.1c.8 2.2 1.7 7.4 2 11.7.3 4.2.7 8.5 1 9.4.5 1.7 1.3 5.1 1.8 7.8.9 4.4 1.9 6.1 2.7 4.8.7-1 .9-1.1.9 0 0 .7.5 1 1 .7.6-.3 1 0 1 .7s.6.4 1.4-.7c.7-1.1 2.1-6.2 3-11.3l1.7-9.3-2.8-3.2c-6.3-7.1-11.9-12.9-13.4-13.7-1.5-.9-1.5-.6-.3 3.1M689.7 677.6c-.4.4-.7 2.4-.7 4.5s-.5 5-1 6.5c-.6 1.4-1.1 5.8-1.2 9.6-.1 4.5-.4 6.5-1 5.6-.8-1-.9-1-.5.2.2.8 1.2 1.5 2.3 1.5 1.5 0 2 1.1 2.7 5 .4 2.8 1.4 5.6 2.1 6.3 1 1 5.1 1.4 16.1 1.3 8.1 0 14.9-.2 15.1-.4.2-.1-2.2-3.5-5.4-7.4-3.1-4-6.8-8.7-8.2-10.6-2.4-3.2-9.8-11.9-16.5-19.4-1.7-1.9-3.4-3.1-3.8-2.7"/></svg>