<svg xmlns="http://www.w3.org/2000/svg" width="1706.667" height="960" viewBox="0 0 1280 720"><path d="M0 360v360h289c159 0 288.9-.3 288.9-.8-.4-1.7 1.4-9.2 2.2-9.2.5 0 .9-1.8.9-4 0-4.1 4.1-14.3 4.8-12.1.2.6-.3 2.6-1.1 4.4-.9 1.8-1.9 5-2.2 7.2-.4 2.2-1.1 4.4-1.5 5-.4.5-1 2.9-1.4 5.2l-.6 4.3h6c3.3 0 5.9-.3 5.9-.8-.1-.4-.1-1.4 0-2.1.1-1.2.4-1.2 1.3-.3 1.3 1.3 3.2 1.6 2.4.4-.8-1.4 7.4-9.6 11.7-11.7 2.8-1.4 4.2-2.7 4.2-4 0-1.8-1-2.1-11.2-3-6.1-.6-11.5-1.3-11.9-1.7s1.5-.5 4.2-.3c11.2 1 22.4 1.4 22.4.7 0-.4-.9-5.6-2-11.6s-1.8-11.1-1.7-11.3c.4-.3 4 12.3 4.2 14.2.1 2.2 1.7 5.5 2.6 5.5s1-.1 1.3-6.5c.1-3.5.5-4 2.8-4.3 2.1-.3 3.2-1.4 5.2-5.8 1.4-3 2.6-5.6 2.6-5.8 0-.3 2.3-4.4 5-9.2 2.8-4.8 4.7-9 4.3-9.4-1.2-1-26.9-8.2-33.5-9.4-1.9-.3-2.5-.1-2.2.9.7 1.8-.9 2.6-2.6 1.4-1.2-.8-1.2-1.2-.2-1.6.6-.2 1.2-1.3 1.2-2.4 0-2.4 1.1-2.4 5.8 0 2.8 1.4 30.3 9.1 32.5 9.1 1.1 0 1.7-9.7 1.8-28.5.1-15.5.5-20.7 1.7-22.9.8-1.7 2.3-5.3 3.3-8 .9-2.8 1.8-4.5 1.8-3.9.1.7-1.1 4.3-2.5 8-2.5 6.5-2.7 7.9-3.2 31-.4 23.4-.4 24.3 1.6 26.5 13.5 15.1 13.2 14.8 13.3 12.5.1-1.7.3-1.5.8.9 1.9 7.8 3.5 7.1 5-2.4 2.8-18.2 5.4-37.1 5.7-42.6.4-6.3 2.4-10.5 2.4-5 0 1.6.5 3.5 1.2 4.2s.9 1.2.6 1.2c-.4 0 0 1.6.8 3.5s1.2 3.5.9 3.5-1.3-1.6-2.1-3.6-1.7-3.4-1.9-3.2-1.3 6.7-2.5 14.3c-1.1 7.7-2.4 16.9-3 20.5-2.4 16.8-2.5 16.1 1.6 22 3.8 5.6 25.8 34.7 29.3 38.7 1.8 2.2 2.5 2.3 18.6 2.3 10.8 0 16.4-.3 16-1-.3-.6-.1-1 .4-1 .6 0 1.1.4 1.1 1 0 .7 92 1 274 1h274V511.1c0-166.2-.3-209-1.2-209.4q-1.5-.6 0-.6c.9-.1 1.2-30.9 1.2-150.6V0H0zM509.5 56.9c-.6.5-4.5 1.1-8.7 1.2-4.3.2-7.8.6-7.8.9s2.8 2.5 6.3 4.8c3.4 2.4 11.6 8.2 18.2 12.8s13 8.4 14.3 8.4c1.2 0 8-.9 15-2.1 18.8-3 31.1-4.9 36.5-5.6 6-.7 6.9-2 2-2.8-6.3-1.1-25.5-5.7-25.1-6 .7-.7 37.4 7 38.5 8.1.6.6 3.8 2.1 7 3.3 3.2 1.3 8.3 3.5 11.3 5.1 7.3 3.7 36.5 16 38 16 .7 0 .4-1.1-.8-2.8-1-1.5-2.5-3.8-3.1-5.2l-1.2-2.5L652 93c1.1 1.4 2.9 4.2 4 6.2s2.8 4.2 3.7 4.7c1 .6 1.4 1.1.8 1.1-.5 0 .1 1 1.5 2.3 1.4 1.2 3.3 3.3 4.1 4.7.9 1.4 4.7 6.2 8.5 10.6 3.8 4.5 11.2 13.5 16.4 19.9 11.6 14.4 25 29.9 26.2 30.4.5.2 1.9-.6 3.1-1.6 1.2-1.1 2.9-2.3 3.7-2.7s0 .6-1.8 2.2c-1.9 1.7-3.2 3.8-3.2 5.3 0 1.3-.1 4.2-.2 6.4s.1 9.6.4 16.5c.6 13.2.4 12.4-1.5-8.6l-1.2-13.2-7.6 7.2c-26.8 25.1-36.9 35.2-36.7 36.4.2.8 5.5 4.3 11.8 7.8 13.5 7.4 20.4 11.4 22.8 13.2 2.7 2.1-1.4-.1-19.1-10-8.7-4.8-16.3-8.8-16.9-8.8-1 0-.5 16.7.7 27 .3 1.9.9 9.9 1.5 17.6 1.4 20.2 1.5 20.4 5.7 20.4 1.9 0 3.2.4 2.9.8-.3.5-1.9.7-3.5.4l-3-.4.5 5.8c.9 10.3 1.5 14.4 2.3 14.4.6 0 6.6-7.4 13.3-16.7 1.3-1.7 6.1-8.3 10.9-14.5 10.7-14.2 19.4-26.7 18.8-27.1-.2-.2-2-1.3-3.9-2.5s-2.9-2.2-2.2-2.2 2.4.7 3.8 1.6c1.3.9 2.7 1.4 3.1 1.1.3-.4.1-6.6-.6-13.9-1.2-14.5-1.4-19.4-.6-18.6.3.3 1.1 8.3 1.9 17.7.8 9.5 1.9 17.8 2.5 18.4s1.1 2 1.1 3.1c-.1 1.8-.3 1.7-1.6-.8-.9-1.5-1.9-2.4-2.4-2-.7.8-5.8 8-23.3 32.3-3.5 4.9-4.6 7.2-4.2 8.9.5 2 .3 2.3-1.4 1.7-2.2-.7-2.2-.7-9.6 9-4 5.1-4.3 6-2.8 6.6 1.6.5 1.5.7-.5 1.8-1.3.7-2.1 1.8-1.8 2.6.8 2.3-.6 2.5-4.3.6-3.7-2-8.6-3.3-18.1-5.1-3-.5-16.5-3.2-30-5.9s-24.7-4.8-24.9-4.6c-.4.5 4 6.9 5.1 7.3.4.2.8.8.8 1.3 0 .6-2.3-1.3-5-4l-5-5-5.3 3.1c-7.1 4.2-19.6 13.1-19.6 14.1-.1.4 1.3 0 3-.9 5.6-2.8 12.7-4.1 22.1-3.9 5.1.1 9.8-.2 10.4-.7.6-.4 2.7.7 5.2 2.8 2.3 1.9 6.7 5.1 9.9 7l5.7 3.4.2 7.7c.2 4.3.6 9.5 1 11.5.4 2.5.2 3.8-.5 3.8-.6 0-1.1-1-1.1-2.3 0-2.6-13.5-15.1-19-17.5-1.9-.8-5.1-2.3-7.1-3.3-2-1.1-5.1-1.9-6.8-1.9s-3.1-.5-3.1-1c0-1.5 3.5-1.2 9.5.9 5.4 1.9 5.4 1.9 4.2-.1-1.3-2.1-6.1-4.5-11.5-5.8-4-1-11.4 2.3-18.4 8.1-6.7 5.6-6.6 4.8.4-1.8 3.3-3.2 5.5-5.9 5-6.1-.6-.2-3 .2-5.4.9s-4.7 1.2-5.2 1c-.5-.1-1.6.5-2.5 1.2-.9.8-4 2.7-6.9 4.2-3 1.4-5.2 2.9-4.9 3.2s1.6-.2 2.9-1.1c2.8-2 4.8-2 4.8-.1 0 .8-.4 1.5-.9 1.5-1.2 0-2.2 4.3-1.2 5.3.5.5.1 1.7-1 2.8-3.5 3.5-2 6.6 2.5 4.9 1.5-.6 2.8-.6 3.1 0 .3.5-.6 1.2-2 1.5s-3.7.8-5.2 1.1c-1.6.3-2.5.2-2-.2.8-.8-5.6-3.4-8.5-3.4-2.2 0-2.3-1.3-.3-3 .9-.8 1.5-.8 1.5-.2s-.5 1.3-1 1.5c-.6.3-.5.4.2.3 1.6-.3 2.4-4.6.8-4.6-.6 0-.8-.5-.5-1.1.4-.6 1.3-.8 1.9-.6.7.3 1.8-.4 2.4-1.4 1.5-2.4 1.4-2.4-4.7.7-4.8 2.4-6.3 4.5-4.1 5.9.6.3 1 2.1 1 3.8 0 2.4-.3 2.8-1 1.7-.5-.8-1-2.5-1-3.8s-.6-2.2-1.5-2.2c-.8 0-1.5-.5-1.5-1 0-1.5-2.1-1.1-49 8.7-4.1.8-8.2 1.9-9 2.3-1 .6 2.8 5.1 15.5 18 9.4 9.5 17.6 17.9 18.3 18.6.7.8.9 1.4.4 1.4s-8.4-7.8-17.6-17.3c-9.1-9.6-17.6-17.9-18.9-18.6-2.2-1.2-4.1-.4-21.8 8.7-25.4 13-32.9 17.1-32.9 18.4 0 1 9.2 3.5 23.5 6.4 7.2 1.4 19.3 3.9 27 5.6 25.9 5.6 51.9 10.7 52.4 10.2.3-.2-2.2-3.2-5.5-6.7-6.2-6.5-3.3-4.3 4.2 3.2 4.3 4.2 4.5 4.3 5.9 2.5s1.5-1.8 2.1.3c.6 2 1.3 2.3 6.8 2.5 3.5.1 4.6.3 2.6.5-1.9.2-4.6.6-5.9.9-2.3.5-2.3.5-.5 2.6 1.9 2.1 1.9 2.1-.3.9-1.3-.6-2.3-1.5-2.3-2 0-1.1-5-1.1-7.5.1-1.9.9-1.9.9-.1-.6 2.6-2.1 6.4-1.1-40.4-10.7-13.5-2.8-33-6.9-43.5-9.1-10.4-2.2-20.2-4.2-21.6-4.5-3-.6-3.6.6-8.5 17.7-1.5 5.2-3.3 11.4-4 13.8-.8 2.3-1.3 4.6-1.3 5 .4 2.4-.3 5.2-1.2 5.2-1.6 0-.7-4.6 3.5-18 3.4-10.6 5.8-21.1 5.1-21.8-.1-.2-6.3 3.2-13.6 7.5-7.4 4.3-17.5 9.9-22.6 12.4-8.7 4.5-10.2 5.9-6.1 5.9 1 0 1.8.3 1.8.7 0 .5-2 .8-4.5.8-2.8 0-4.5-.5-4.5-1.2 0-.6-3.7-4.5-8.2-8.6-5.8-5.3-8.7-7.3-9.7-6.8-1.7 1-6 10.7-6.1 13.8 0 1.2-.4 2.5-1 2.8-.9.6-1.5 4.5-.6 4.5.1 0 1.6-.4 3.2-.9s4.1-1.2 5.6-1.5 3.4-1.3 4.2-2.2c.9-.8 1.6-1.1 1.6-.6 0 .7 1.2.7 3.6.1 5-1.4 6.8-.4 1.9 1-12.9 3.8-33.5 8.4-34.3 7.6-.7-.6 1.5-1.4 6.7-2.3 2.4-.4 4.7-1.4 5.1-2.2 1.5-3.1 6.2-18.2 5.8-18.6-.6-.6-7.4 6.7-17 18.4-1.6 1.9-2.8 3-2.8 2.5s.8-1.8 1.8-2.9c.9-1 2.4-2.8 3.2-4 5.3-7.5 8.6-11.3 12.2-14.2 2.2-1.7 3.5-3.2 2.8-3.2-3.5 0-14 2.5-14 3.3 0 .5-.7.7-1.5.3-1.2-.4-1.4 0-1 2.2.3 1.5.2 2-.1 1.2-.7-1.7-3.4-4-4.6-4-1.5 0-.9 26.3.7 31.5 1.7 5.7 1.3 7.4-.5 2.1-.6-2-1.5-3.4-2-3.1-1.2.8-1.7-4.6-.6-7.5.5-1.5.5-6.2 0-11.5-.9-8.7-.9-8.8-2.4-5.9-.8 1.6-2.5 4.4-3.8 6.1-1.8 2.4-2.3 4.2-2 6.8.2 2.2 0 3.4-.6 3.2-2.7-.9-1.6-5.7 2.9-13.1 3-4.9 4.5-8.3 4-9.4-.5-1.3-.8-1.4-1.4-.3-.5.7-1.4 1.1-2 .7s-1.3.4-1.7 1.9c-.9 3.4-2.1 3.2-2-.5.1-1.6.5-3 1-3 .6 0 .5-.5-.1-1.1-2.6-2.6-3.3.4-3.3 14.8 0 8.1-.3 14.3-.7 14-.3-.4-.7-5.6-.8-11.7s-.5-11.3-.8-11.6c-.4-.4-1.4-.1-2.3.7-.9.7-2.9 1.2-4.5 1.1-3.2-.3-3.3.1-6.5 15.5-.4 2 0 2.3 2.8 2.4s2.9.2.8.6c-4.1.8-4.5 1.9-2.2 7 3.2 7.2 8.4 22.4 7.9 22.9-.2.3-1-1-1.7-2.8-4.9-13.1-7-18.1-7.6-17.5-.3.2 0 2.4.6 4.8 1.8 7.5 4.6 26.9 3.9 26.9-.9 0-2-3.7-2.5-8.5-.2-2.2-.8-5.4-1.3-7-.9-2.9-.9-2.9-1.2 1.5-.1 2.5-.2 5.5-.2 6.7 0 1.3-.4 2.3-.8 2.3-.5 0-.8.6-.6 1.2.1.7-.4 1.2-1 1.1-.7-.2-1.3.3-1.3 1-.1.6-.7 2.5-1.6 4.2-1.4 2.9-1.3.7.1-2.8 1.2-2.9-2.4-2.1-11.9 2.6l-8.8 4.4 7.1 2.2c3.9 1.2 8.1 2.3 9.4 2.5 1.2.1 2.8.6 3.5 1 .8.5 1.7-.5 2.7-2.8 2.2-5.2 2.5-4.4.9 2-1.2 4.3-1.4 11-1.2 29.4.3 21 1 28.4 2.5 24.2.3-.6.9-1.2 1.4-1.2.6 0 .6.8-.1 1.9-2.1 4-1.3 4.7 6.3 6.1 3.9.7 8.6 1.6 10.2 2.1 4.9 1.3-9.4-.2-15-1.7-3.8-.9-5.2-1-5.7-.1-.6.9-.8.8-.8-.1 0-.7-3.2-4.6-7-8.7s-7-7.7-7-8.1c0-.9 3.3 2 8.3 7.3 2.2 2.4 4.2 4.3 4.6 4.3.3 0 .7-10.9.9-24.3l.3-24.2-2.1 4-2 4 .6-3.5c.4-1.9 1-4 1.5-4.5.4-.6.7-2 .5-3-.2-1.6-2-2.4-9.2-4.2-4.9-1.3-9.3-2.1-9.9-1.9-.5.2-6.5-3.5-13.3-8-6.7-4.6-12.5-8.4-12.7-8.4-.3 0-.3 1.2 0 2.7.3 1.6-.3.8-1.3-1.7s-1.5-4.7-1.1-5 2.6-5.2 5-11c2.3-5.8 5-11.6 5.9-13s2.2-4 2.9-5.8c.8-1.7 2-3.2 2.9-3.2 1.3 0 1.2-.3-.4-1.6-1-.8-1.4-1.3-.8-1s2-.1 3-.9c1.6-1.2 1.6-1.4.2-.9-1.5.5-1.6.2-.7-2.8.6-1.8 1.3-4.3 1.6-5.5.3-1.3.9-2.1 1.3-1.8.5.3 1.2-.9 1.5-2.7.4-1.8 1.1-3.9 1.6-4.8 1.4-2.7 7.9-17.1 7.9-17.5 0-.2 1.6-3.7 3.5-7.8 3.4-7.2 3.5-7.5 3.2-19-.1-6.4.2-11.8.7-12 .4-.1-.1-2.3-1.3-4.7-2.3-4.9-2.6-6-1.1-6 1.3 0 4.6 6.6 5.5 11 .9 4.3 3.2 9 4.4 9s2-8 1-10.5c-.4-1.1-3.5-4.8-6.8-8.2-3.4-3.5-6.2-6.8-6.3-7.5-.5-4-.2-12.4.4-11.5.4.7.8 2.2.8 3.4s.5 2.5 1 2.8c.6.3 1 1.7 1 3.1 0 3.6 1.6 6.2 7.1 11.9 4.4 4.6 5.3 5.1 8.4 4.7 4.4-.5 5.9-2.9 4-6.5-.8-1.5-1-2.7-.5-2.7s1.2.9 1.5 2.1c.9 2.6 2.9 1.9 3.3-1.2.4-2.6 2.1-5 1.9-2.8-.2 5.8.3 6.9 3.2 6.9 1.7 0 3.3-.5 3.6-1 .3-.6 1.9-1 3.6-1 1.6 0 2.9-.2 2.9-.5s-2.3-5.1-5.1-10.8c-2.8-5.6-4.9-10-4.6-9.7 1.1 1 5.7 8.1 5.7 8.7 0 1.3 6.5 10.2 7.8 10.7.7.3 1.7-.6 2.2-2.2 2.2-6 2.9-6.8 2.4-2.7-.2 2.2-.1 4.6.4 5.3.8 1.2 13 3.7 13.9 2.9.6-.6-6.5-13.5-10.1-18.2-1.6-2.2-3-4.1-3.1-4.2-.2-.4-14.6-4-17.5-4.4-2-.3-2.4 0-2.2 1.6l.4 2-1.6-2c-.8-1.1-1.6-2.3-1.6-2.7 0-1.5-7.2-12.8-8-12.8-.6 0-1 1-1.1 2.2 0 1.3-.7 3.9-1.5 5.8s-1.2 2.4-.9 1c.4-1.4.9-4.5 1.2-7s1.3-5.4 2.3-6.5 2-2.7 2.3-3.5c.3-.9.6-.4.6 1.2.1 1.5-.4 3-.9 3.3-1 .6 4.7 12.5 6 12.5.9 0 2.9-5.3 5.4-14.1 2.8-9.9 2.7-9.1 2.9-24.7l.2-12.2-2.1 4.7c-1.2 2.7-2.9 6.4-3.7 8.3l-1.5 3.5.5-4.5c.4-2.5 1.9-6.9 3.6-9.8 1.6-2.9 2.6-5.9 2.3-6.7s-.1-1.5.4-1.5 1.4-2.6 2-5.8c.6-3.1 2.4-10 3.9-15.2 1.6-5.2 3.4-12 4.1-15 .6-3 1.6-6.9 2.2-8.5.6-1.7 1.2-4.4 1.5-6l.5-3-2.4 3.2c-1.2 1.8-2.7 3.3-3.2 3.3s-.1-1 .8-2.3c.9-1.2 2.7-4.2 3.9-6.7s3.3-5.7 4.5-7c1.3-1.4 4.2-5.7 6.4-9.5 2.3-3.9 6.8-11.2 10-16.3 3.2-5 5.8-9.6 5.8-10.1 0-.4 1-2.1 2.1-3.6 1.8-2.2 2-2.9.8-3.6s-1.1-.9.2-.9c1.5 0 10.6-7.7 22.4-19 3.3-3.2 8.7-8.2 12-11.1 6.9-6.1 7.5-6.9 4.3-6.3-1.6.4-1.2-.1 1.2-1.4 1.9-1 4.4-2.4 5.5-3 2.1-1.2 8.4-3.6 34.5-12.9 8.5-3 20-7 25.5-9 12.7-4.5 13.5-4.8 11.4-3.4-.9.6-11.3 4.5-23 8.6-11.8 4.2-25 9-29.4 10.6-4.4 1.7-9.5 3.5-11.2 4-1.8.6-3.3 1.4-3.3 1.8 0 1 13.1 4.6 27.3 7.6 10.4 2.1 10.8 2.1 11.8.4.5-1.1 1.5-1.9 2.2-1.9s3.2-1.9 5.7-4.3c8.4-7.9 32.5-29.1 31-27.3-.8 1.1-9.1 8.9-18.5 17.4-9.3 8.6-17.2 15.9-17.4 16.4s1.2.7 3 .4c1.9-.3 8.4-1.3 14.4-2.1 6.1-.9 15.1-2.3 20-3.1 5-.8 10.1-1.7 11.5-1.9 4-.6 20.1-3.5 24.8-4.4 4.1-.8 6-1.7 5.1-2.4-.2-.2-4.9-3.7-10.4-7.7s-12.2-9-15-11c-2.7-2-6.1-4.2-7.3-4.9-2.7-1.4-7.2-.7-7.2 1.2 0 .9-.2.9-.8 0-.5-.8-1.7-.8-4.7.3-2.2.7-4.7 1.3-5.5 1.3-1.3-.1-1.3-.1 0-.6.8-.3 3.5-1.5 6-2.6 6.8-3.1 31.1-6.4 28.5-3.8m344.3 56.8c1.6.4 2 .8 1.2 1.3-1.2.7 7.9 8.3 18.4 15.3 2.2 1.5 4.2 3.2 4.4 3.7.4 1.2 12.9 11 14 11 3.4 0 41.3-16.1 40.5-17.2-.3-.6.3-.8 1.4-.4 2.2.7 30.4-7 31.3-8.5.6-.9 3.8.6 14.3 7 2 1.3 3.7 2.5 3.7 2.7 0 .7-4.2-1.6-6.3-3.4-.9-.8-1.9-1.3-2.2-1s2.7 3.4 6.7 6.9c3.9 3.5 8.3 7.5 9.7 8.8 4.2 3.8 16.5 14.6 18.2 15.9.9.7 4.5 1.5 8 1.9 3.5.3 6.6.7 6.8.9 1.1 1-.8 1.1-5.9.4-3-.4-5.8-.5-6.1-.1-.9.9 6.5 12.6 7.8 12.4.6-.1.9.5.7 1.5-.2.9 1 3.9 2.8 6.7 1.7 2.7 4.4 7.5 6 10.5s3.5 5.9 4.2 6.5c.7.5 1.9 2.8 2.6 5s1.6 4.2 2 4.5c1.2.9 5.5 8.2 12 20.5 3.5 6.6 7.2 13.1 8.2 14.4s1.8 3 1.8 3.7.5 1.6 1.2 2c.8.5.9.2.4-1.2-.4-1-3.7-11.4-7.2-22.9-8.8-28.5-18.3-55.9-19.4-56.3-.6-.2-1-1.3-1-2.4 0-1.8-6.1-8.3-7.8-8.3-1 0-8.2-4.6-8.2-5.2 0-.3 1.7.5 3.8 1.6 3.4 2 3.3 1.8-1.8-3.1-3-2.9-9.3-8.9-14-13.2-4.7-4.4-7.1-7-5.5-5.9 1.7 1.2 7.5 6.3 13 11.4 5.5 5.2 12.6 11.7 15.8 14.5 5.5 4.9 6 5.7 11 19 2.9 7.6 6.4 17.6 7.7 22.1 1.4 4.6 2.9 8.3 3.3 8.3.5 0 .5-.5.1-1.2-.5-.7-.3-.8.5-.3s1.1 1.8.7 3.7c-.3 1.7.3 5.7 1.4 9.6 1.2 3.7 3.2 10.5 4.6 15.2 1.5 4.7 3.4 11 4.4 14 3.2 9.6 3 7 4.6 44.8.4 9.5 1.1 17.5 1.5 17.8.5.3 1-5 1.1-11.8l.1-12.3.8 16c.6 12.1.5 18.3-.6 25.5-2.9 19.1-2.3 39.9 1.3 44.2.5.7 3.8 7.8 7.2 15.8s6.8 15.8 7.6 17.4 1.4 3.6 1.4 4.5c0 1.2.2 1.3.8.3.6-.9 1.9 1.1 4 5.9 3.9 8.8 3.6 10.1-.4 2-5.4-11.1-3.6-5.3 2.7 9.1 3.5 7.8 6.5 13.5 6.7 12.6s-.6-3.5-1.8-5.8c-2.6-5-4.1-9-3.5-9 .3 0 2.3 3.7 4.6 8.2 3.8 7.5 4 8.5 3 11.7-.6 2-1.2 4.7-1.4 6.1-.3 1.4-.5.4-.6-2.2 0-2.9.4-4.8 1.2-5.1.6-.2.9-.8.5-1.2s-1.4 0-2.3.9-2.1 1.6-2.6 1.6-5.1 2.8-10.2 6.2c-6.9 4.6-10.7 6.5-15.2 7.4-3.3.7-8.2 1.8-10.9 2.5l-4.9 1.1 2.4 1.9c2.4 1.8 2.4 1.8.2 1.2-3.1-.7-2.9.4 1.1 9 1.9 4 3.8 8.5 4.1 10 1.5 5.7 1.4 1.8 0-5.1-1.3-6.3-1.4-7.6-.1-10.7.8-1.9 2-3.5 2.7-3.5s.5.8-.6 2c-1.5 1.6-1.7 3-1.1 8 1 8.3 2.7 12.5 2.1 5l-.5-5.5 1.4 5.5c.7 3 2.3 7.7 3.5 10.3 2.2 5.2 2.7 10.2 1.1 11.2-.5.3-1.1 0-1.2-.7 0-.7-.2-1.8-.3-2.3-.2-.6-.4-1.9-.5-3-.2-1.9-.2-1.9-.8.1-.4 1.2-3.9 5.5-7.8 9.6-6.5 6.8-7.5 7.6-11.7 8-2.6.3-4.4.2-4.1-.3s1.8-.9 3.5-.9c3.6 0 3.7-1.3.3-7.6l-2.6-4.9 2.6 3c2.6 2.9 2.7 2.9 2 .5-.4-1.4-1.9-7-3.4-12.5l-2.7-10-.8 5.9c-.6 4.6-.4 6.6 1 9.5l1.7 3.6-2.9-3.1c-1.5-1.7-6.1-5.5-10.1-8.4s-7.1-5.5-6.8-5.7c.3-.3 1.8.4 3.3 1.6s4.6 3.6 6.8 5.2l4 3.1 1.3-7.4c.7-4 1-8.5.7-10.1-.2-1.5 0-3.9.5-5.3 1.6-4 7.4-42.3 6.7-43.1-.3-.2-1.9 4-3.7 9.4-1.7 5.4-4.2 12.7-5.5 16.3-1.6 4.6-2 7.1-1.4 8.7.5 1.4.5 3.9-.1 6.1-.8 3.4-.9 3.5-.8.7 0-1.7 0-4.1-.1-5.5l-.1-2.5-2 2.5c-1 1.4-4 6.3-6.6 11-2.7 4.7-5.3 8.8-5.8 9.2-1.5 1-2 0-.8-1.5.6-.7.9-2.4.6-3.8-.3-1.9-.3-2 .4-.5s1.9.1 6.7-7.9c5.3-8.8 5.7-9.9 4.5-11.9-1.2-1.9-1.2-2 .3-.7 1.4 1.1 1.7 1.1 1.7 0 0-.8 1.2-3.7 2.5-6.4 1.4-2.8 2.5-5.9 2.5-7 0-1.2.4-2.5.9-3 .4-.6 1.6-3.5 2.6-6.5s2.9-8.3 4.3-11.7c1.3-3.4 2.1-6.6 1.8-7.2-.8-1.2-8.6-3.5-9.4-2.7-.3.3-.8 4.5-1.2 9.3-.7 8.5-.7 8.6-1 2.8-.2-3.3-.2-7.5-.1-9.4.2-2.8 0-3.3-1.4-2.7-.9.3-2.1.6-2.6.6-.4 0-1.2 1.5-1.7 3.3l-.9 3.2-.8-2.7c-.7-2.6-2.9-3.8-7.1-3.8-1.1 0-7.7-1.8-14.5-4-16-5.3-19.7-6.1-20.3-4.6-.3.8-.7.7-1.3-.2-.7-1-1.8-.9-5.4.2-2.4.8-9.7 2.6-16.1 4.1-10.2 2.3-11.7 2.9-12.1 4.8-.4 2.4-.4 2.3-2.7-8.3-.6-2.5-2.4-9.8-4.2-16.3l-3.1-11.7h-3.5c-3.2 0-3.4-.1-1.8-1.3s.7-1.9-8.6-7.2c-5.6-3.2-13.5-7.7-17.4-10.1-13.1-7.9-21.9-12.1-26.4-12.8-2.5-.4-5.2-1.1-6-1.7-1.2-.8-1.1-.9.5-.5 1.1.3 3.8.8 6 1.2l4 .6-4-4.1c-5.1-5.4-3.3-5.3 2.2.1l4.3 4.2 5.2-1.2c2.9-.6 9.6-2.1 14.9-3.2s11.6-2.7 13.9-3.5 5.4-1.5 6.8-1.5c4.4 0 1.4-1.6-15.1-8.1-8.7-3.4-15.6-6.3-15.5-6.5.2-.1 7.1 2.2 15.3 5.3 8.3 3.1 16.1 5.6 17.5 5.7l2.5.1 1.2-23.5c2.2-44 3.3-72.5 2.7-74.7s-.8-2.1-6.8 1.9c-3.3 2.3-9.5 6.7-13.6 9.8-11 8.4-40.2 29.1-39.6 28.1.7-1 7.9-6.5 28.4-21.3 10.2-7.4 16.8-12.3 21.9-16.5 2.8-2.2 6-4.6 7-5.1 3.3-1.9.1-3.2-15.3-6.1-8.2-1.6-23.2-4.7-33.4-7-17.2-3.9-37.5-8.1-39.2-8.1-.5 0-.8 1.1-.8 2.5s-.5 2.5-1.1 2.5c-.5 0-.7-.5-.4-1 .3-.6.1-1-.4-1-.6 0-1.1.3-1.1.7-.1.5-1.2 2.1-2.7 3.8-1.8 2.1-2.1 2.3-.9.5.9-1.4 1.9-3.2 2.3-4s1.1-1.8 1.7-2.2c3.9-2.6-8.5-.8-16.7 2.4-3.9 1.5-4.5.3-.8-1.7 1.7-.8 3.1-1.3 3.1-1s1.3-.1 3-1c1.6-.8 3.2-1.5 3.5-1.4.3 0 2-.3 3.7-.6l3.2-.7-2.9-2.4c-1.7-1.4-3.7-3-4.5-3.7-7.6-6.5-15.2-11.7-16.1-11.1-.8.4-.9.3-.5-.4s-5.2-6-13.6-13c-7.9-6.6-15.9-13.4-17.8-15.2l-3.5-3.2 4.4 3.4c2.4 1.8 8.7 6.6 14 10.6 5.3 3.9 11.5 8.8 13.8 10.7s4.5 3.5 4.9 3.5-.1-.7-1.2-1.5c-1.3-1-1.4-1.4-.5-1.5 1 0 1.1-.3.2-1.3-.8-1-.7-1.7.1-2.5.9-.9.9-1.2-.1-1.2-.7 0-.9-.5-.6-1 .3-.6.2-1-.4-1-2 0 .3-7.6 3.8-12.7 3.3-4.8 3.9-5.3 7.4-5.3 3.4 0 4-.4 5-3 1.1-2.9 1.4-3 7.4-3 3.4 0 6.5-.5 6.8-1 .5-.9-27.2-1.7-36.7-1-1.4.1-2.9-.3-3.3-.9-.4-.8 9.6-1.1 33.2-1.2 18.6-.1 34.5-.1 35.3 0s-.1-1.3-2-3c-9.2-8.3-16.2-14.2-23.5-20-4.4-3.4-8.3-6.7-8.7-7.3s-1.5-.6-3.2.2c-2.4 1.1-2.5 1-1.4-.8 1.4-2.2 2-2.3 5.6-1.3m-548.9 45.9c-1.1 3.8-3.6 11.4-5.4 16.9-3.1 9.6-6.1 19.8-7.1 24-.8 3.6 3.4-4.8 7.2-14.3 2-5.1 3.9-9 4.2-8.8.5.6-5.7 16.2-11 27.2-4.6 9.8-7.7 18.8-7.9 22.9-.1 1.7-.3 2.3-.6 1.2-.2-.9-.9-1.5-1.4-1.1-.5.3-.3-1.2.4-3.3 1.6-4.4 3.9-12.1 6.3-21.3.9-3.6 5-16.4 9-28.5 4.1-12.1 7.4-22.2 7.4-22.4s.2-.2.6.1c.3.3-.5 3.7-1.7 7.4M604 334.9c0 .5 1.1 1.2 2.5 1.5 2.2.6 5.8 5.4 6.1 8.1 0 .5.8 2.6 1.7 4.5s1.8 4.7 2.2 6.3c.5 2.6.8 2.7 4.5 2.1 5-.8 5.4 1.1.5 2-3.4.7-3.6.9-3.3 4.7.1 2.1.6 3.9 1 3.9s.8.7.8 1.5-.4 1.5-.9 1.5c-1.3 0 .9 8 2.3 8 .6 0 2 1.3 3 2.7 1.8 2.4 1.8 2.6.2 2-3.4-1.3-7.5-5.2-7.6-7.2 0-1.6-.2-1.7-.9-.6-.8 1.2-1.5 1.3-3.5.3-2.2-1-2.6-.8-3.1.8-.4 1.1-.3 2.5.1 3.1.5.8.3.9-.5.4-.7-.4-1.1-1.8-.8-3.1.2-1.3 0-2.4-.4-2.4-.5 0-.9-.5-.9-1 0-1.9-4.4-7.1-7.8-9.2-2-1.3-2.9-2.3-2.3-2.8 1.6-.9 2-18.8.5-19.8-2.2-1.3-2.1-5.6.1-6.9 2.4-1.4 6.5-1.6 6.5-.4m-4.6 68.8c-5.4 6.6-9.5 9.7-14.1 10.7-1.8.4-3.6 1.2-4 1.8-.4.8 0 .9 1.1.5 2.2-.9 9.6 1 9.6 2.3 0 .6-.5 1-1.1 1-1 0-5.9 4.5-5.9 5.4 0 .5 6.5-.5 8.5-1.4 1.1-.5 3.6-1.1 5.5-1.4 3.4-.6 3.5-.6 1.2.9-1.2.9-2.6 1.4-3.1 1.1-.4-.3-1.7.2-2.7 1.2-1 .9-3 1.6-4.3 1.4s-2.1 0-1.8.5-.7.8-2.2.5c-4.1-.6-4.6 1.2-1 4.2 2.7 2.3 2.8 2.6 1 2.6-1.2 0-2.1-.6-2.1-1.6 0-1.2-.9-1.5-3.7-1.4-2.1.1-5.1.1-6.8 0l-3-.2 3.3-.9c4.1-1.2 4.3-4.2.2-6.6-3.2-1.8-3.7-2.8-2-3.8 1.3-.8 4.2 1.4 3.4 2.6-.3.5.2.9 1 .9.9 0 1.6-.5 1.6-1 0-.6.5-1 1-1 .6 0 1 .7 1 1.5s.7 1.5 1.5 1.5 1.5-.4 1.5-.9.3-1.7.6-2.6c.5-1.3.2-1.6-1.3-1.3-1.1.1-2.7-.3-3.6-1-2.1-1.7-8.7-.6-8.7 1.5 0 1-.7 1.4-2 1-1.2-.3-2.1.1-2.5 1.2-.3.9-1.9 2.2-3.6 2.8-2.6 1-3 1.6-2.4 3.5.4 1.3 1.1 2.7 1.5 3.2 1.3 1.3 5.8-2.6 6.5-5.7.4-1.6.9-2.6 1.2-2.4.2.3-.1 2.4-.8 4.6-1 3.5-2 4.6-5.8 6.4-2.5 1.3-7.2 3.1-10.3 4.1-3.2 1-5.8 2.2-5.8 2.8 0 .5-.4.7-.9.4-.5-.4-3 .3-5.6 1.4s-5.2 2-5.8 2c-1.8 0 .5-1.6 4.3-2.9 5.8-2.1 7.2-2.7 14-5.7 3.6-1.6 6.6-2.9 6.8-3 .1-.1-.2-1.3-.9-2.6-1.3-2.9-9.7-6.8-14.6-6.8-2.3 0-3.2-.5-3.6-2.1-.3-1.3-.1-1.9.6-1.6.7.2 2.3-.4 3.6-1.5 1.3-1 2.7-1.6 3-1.2.3.3-.3 1.2-1.3 2-1.1.7-1.7 1.6-1.5 1.8.7.7 8.1-1.1 8.8-2.1.3-.4 1.3-.9 2.1-1.1s2.7-.9 4.2-1.7c1.6-.8 3-.9 3.4-.4.3.5-.2.9-1 .9-.9 0-1.6.9-1.6 2 0 3.1 3.6 2.4 7.8-1.5l3.7-3.5-2.3-1.9-2.3-2 2.5-1.3c1.3-.7 5-2.8 8.2-4.5 3.2-1.8 5.9-3.1 6.1-2.9.5.4-6.3 5.6-7.4 5.6-.5 0-1.9.7-3.2 1.7-2.3 1.5-2.3 1.7-.6 3 2.6 1.9 6.5 1.6 13.2-.8 4.5-1.7 7-3.5 11.1-8 6.9-7.6 8.7-7.7 2.6-.2m439.1 99.8c-3.1 4.8-5.5 8.8-5.3 8.9 2.4 1.4 8.8 2.6 15.1 2.8 4.3.1 8 .5 8.3 1 .3.4 1.1.5 1.8.2.8-.3 1.7-.1 2.1.5 1 1.7 2.5 1.3 2.5-.7 0-1.1-1.2-2.4-2.6-3-1.4-.7-2.2-1.7-1.9-2.2 1-1.7 3.3-1.1 4 1 .9 3 2.2 2.4 4.4-1.8 1.1-2.1 2.8-4.5 3.8-5.3 1.6-1.3 1.6-1.1-.2 1.6-8.1 12.7-7.9 12.1-6.7 17.7.6 2.9 1.4 6.1 1.7 7 1.1 2.9-2.1 3.2-7.6.9-9.3-4.1-9.7-4-19.2 5.7-7.1 7.3-8.9 8.6-10.8 8.1l-2.4-.5 2.5-.7c1.4-.3 6.2-4.4 10.8-9l8.3-8.3-6.6-5.2c-7.8-6.3-9-6.8-11.3-5.1-1.5 1.3-1.6 1.2-.3-.4.8-.9 1.4-4 1.4-7 0-4.4.1-4.7.6-1.7l.6 3.5 4.6-6.5c2.6-3.6 5.2-7.6 5.8-8.8.7-1.3 1.5-2.1 1.8-1.9.2.3-2.1 4.4-5.2 9.2M307.2 505c.4 0 .5.7.2 1.5-.6 1.5 10.4 21.4 11.8 21.5.3 0 1.1-1.2 1.6-2.8.6-1.5 1.1-2.1 1.1-1.4.1.7-.4 2.2-1 3.4-.9 1.6-.6 3 1.5 7.2 1.6 3.1 2 4.3.9 3-2.9-3.4-5.2-3.7-9.2-1.1-6.9 4.5-11.6 7.3-13.3 8-1 .3-1.8 1.1-1.8 1.6 0 1.2 18.4 18.1 19.8 18.1.5 0 1.2.7 1.6 1.5 1.1 2.8-1 1.5-10.6-7-5.3-4.7-9.9-8.5-10.3-8.5-.3 0-1.3-.7-2.1-1.5-1.3-1.3-2-1.3-5.7.2-2.3.9-5 2.2-6.1 2.9-1 .7-2.5 1-3.2.7-1.1-.4-.8-1 .9-2.3 1.2-1 2.3-3 2.5-4.4.1-1.5.7-3.6 1.3-4.7 1.6-3 .5-4.6-3.5-5.1-2.8-.3-3.6 0-3.6 1.2 0 .8-.5 2.2-1.1 3-.8 1.1-.9.7-.4-1.8q.75-3.3-.9-5.7c-2.2-3.4-2-3.9.6-1.6 3.1 2.9 8.8 3.9 10.3 1.7 1.1-1.4 1.4-1.5 2.5-.1 1 1.2 1 1.8-.1 3.2-.7 1-1 1.5-.5 1.1s2.2 1.1 3.7 3.2c1.6 2.2 3.1 4 3.3 4 1.2 0 6.8-2.9 11.4-5.9 4.8-3.2 5.7-4.2 5.3-6.4-.1-.5.2-.6.7-.3.4.2 1.4.1 2.1-.3 1.3-.8 1-1.5-7.4-16.3-2.6-4.5-4.2-6.5-4.9-5.9-.8.7-1-.6-.7-4.2.4-4.9.5-5 1.5-2.5.5 1.6 1.3 2.8 1.8 2.8M1203 674.4c0 1.3 2.7 3.1 4.2 2.8.7-.2 3.8 7.2 3.8 9.3 0 3.7 1.8.9 4-6 1.9-5.9 2.8-7.5 4.3-7.5 1.4 0 1.7.4 1.2 1.7-6 15-8 22.9-6.3 23.9.7.4.8.3.4-.4s-.3-1.2.2-1.2c1.4 0 2.3 4.3 1.1 5.5-.7.7-.8.4-.4-.8.4-1 .2-1.7-.4-1.7s-1.1.6-1.2 1.2c0 .7-.4.3-.9-1-.5-1.2-1.8-2.2-2.8-2.2-1.5 0-2.5-1.6-4.2-6.3-1.2-3.4-3.3-9-4.6-12.5-2.2-6-2.3-6.2-.4-6.2 1.1 0 2 .6 2 1.4m22.6 3.9c-.5 2.2-.3 2.4 3.7 2.3 2.9-.1 4.9.5 6.1 1.6 1 1 2.3 1.8 3 1.8.8 0 1.9.7 2.6 1.5 1.1 1.3 1.6 1.1 4-1.5 3.9-4.1 7.1-4.7 12.2-2 5.3 2.7 8.8 5.9 8.8 7.9 0 1.4-.1 1.4-1 .1-.8-1.3-1-1.2-1.1.5s-.2 1.7-.6.2c-.6-2.4-2.3-2.1-2.3.4 0 1.1-1.3 3.4-3 5.1-3.6 3.6-3.7 3.8-.6 3.8 1.5 0 3.3-1.1 4.5-2.6s2.1-2.3 2.1-1.8c0 1.8-4.5 5.4-6.7 5.4-1.5 0-2.2.4-1.7 1.1 1.1 1.8-3.6-1-8.6-5-3.8-3.1-5-3.6-7.5-3-1.6.4-2.6.7-2.1.8.4 0-.2 1-1.5 2-3.4 2.7-1.5 3.9 2.6 1.6 4.2-2.2 5.8-1.3 2.7 1.5-1.2 1.1-1.7 1.5-1.2.8 1.8-2.2 1-2.9-1.5-1.2-1.6 1-3.4 1.4-5.1 1-1.8-.5-2.4-.3-1.8.5.9 1.5-.7.6-5.4-2.9-2.2-1.7-3.1-3-2.7-4.1.3-.8.3-1.2-.1-.9-.3.4-1.3 0-2.2-.8-1.2-1.3-1.3-2.2-.4-5.1.6-1.9.9-4 .8-4.6-.2-.7-.1-.9.1-.4.8 1.3 2.3-.4 2.3-2.6 0-1.8-.2-1.9-1-.7-.8 1.3-1 1.3-1-.2 0-.9.8-1.9 1.8-2.1.9-.3 1.9-.5 2.1-.6.2 0 .1 1-.3 2.2"/><path d="M572 80.5c-10.2 1.8-20.5 3.7-23 4.3-3.8.8-4 1-1.5 1.1 4.6.2 7.6 1.2 7.2 2.5-.2.6.2 2.3.9 3.8 1.4 2.7 1.3 2.7-2.1 3.4l-3.6.6 2.7 1.4c1.5.8 5.2 2.9 8.3 4.8 3.1 1.8 9.2 5.3 13.6 7.6 4.4 2.4 11.2 6 15 8.1 3.9 2.1 7.6 3.9 8.3 3.9 1.6 0 1.5-3.3-.3-15.5-1.4-9.1-3-30.1-2-26.5.2.8 1.4 9.1 2.6 18.5 1.2 9.3 2.6 18.7 3.1 20.8.8 3.6 1.1 3.8 3.6 3.2 3.1-.7 25-8.9 40-14.8l10.2-4.1-3.2-1.6c-1.8-.9-10.5-4.7-19.3-8.4-8.8-3.8-19.2-8.4-23.2-10.2-8.2-3.7-15.8-6.5-17.6-6.3-.7.1-9.5 1.6-19.7 3.4M511 90.7c-7.4 1.3-20 3.5-28 4.9s-17.6 3-21.5 3.5c-3.8.5-7.9 1.1-9 1.3-1.1.3-2.9.5-4 .5-3 .1 2.8 3.5 9.9 5.7 3.1 1 5.6 2.1 5.6 2.6 0 .4.5.8 1 .8 1.1 0 8.9 3.3 13.2 5.6 2.7 1.4 6.5 1.3 9-.3 1.6-.9 2.2-1.1 8-2.1 4-.7 5.9-2 12.5-8.4 9.6-9.3 13.2-12.6 15.7-14.4 1.1-.7 1.8-1.5 1.5-1.7-.2-.2-6.5.7-13.9 2M402.4 92.5c-.5 1.1.1 43.8.6 47.3 0 .1 5.7-5.7 12.8-13 7-7.3 15.3-15.9 18.5-19.1s5.6-6.1 5.3-6.4c-.5-.5-3.8-1.4-16.5-4.4-4.6-1.1-8.8-2.2-9.4-2.6-.5-.3-2.3-.9-4.1-1.3-1.7-.4-3.9-1.1-4.8-1.5-1.2-.5-2-.2-2.4 1M390.4 101.4c-4.4 4.4-12.9 12.6-18.7 18.1-5.9 5.4-10.6 10.3-10.4 10.9.3 1 9.2 4.4 14 5.3 2.2.4 2.7.2 2.7-1.4 0-2.6 1.9-4.3 4.7-4.3 2.7 0 3.1 3 .7 5.4-1.4 1.5-1.2 1.8 2.8 3.5 7.7 3.2 11.9 4.4 12.9 3.4 1.1-1.1 2.4-41 1.5-45.9-.4-1.9-1-3.3-1.4-3.3-.4.1-4.3 3.8-8.8 8.3M649 107.7c-3 1.4-10.2 4.3-16 6.4-13.9 5.2-28 11.2-28 11.9 0 .6 10.6 8 11.5 8 .3 0 5.2 2.6 10.8 5.8 10.1 5.8 27.5 15.2 28.2 15.2.3 0 1-12.2 1.9-32.8.5-11.4-.1-17.2-1.8-17.1-.6 0-3.6 1.2-6.6 2.6M658.6 132.3l.1 25.2 4.4 1.2c18.3 5 47 13.5 50.4 14.9 1.8.7 1.9.6.5-1.2-.8-1-4.4-5.3-8-9.4-3.7-4.1-7.3-8.5-8.1-9.7-2-3-23.9-29.9-28.8-35.3-2.3-2.5-4.1-4.8-4.1-5.2 0-.8-5.2-5.8-6-5.8-.3 0-.4 11.4-.4 25.3M355.4 137.3c-1.2 1.7-3.2 5-4.5 7.2s-2.8 4.7-3.4 5.6c-.5.9-2.1 3.6-3.4 6s-3.3 5.7-4.5 7.4c-1.2 1.6-3.4 5.1-4.8 7.6l-2.5 4.7 7.1-3.3c3.9-1.8 11.3-5.4 16.4-7.9s9.7-4.6 10.2-4.6c2 0 26.8-13.1 27.3-14.4s-1.3-2.2-6.3-3.2c-.8-.2-2.3-.7-3.5-1.3-4.3-2.1-20.8-7.1-23.3-7.1-1.9 0-3.3.9-4.8 3.3M384.2 163.9c-2.3 2.5-8.8 9.2-14.2 14.8-5.5 5.6-10 11-10 11.8 0 2.1 2.2 4.3 3.8 3.7.6-.2 2.7.1 4.6.8 2.8.9 3.5 1.7 4.1 4.7.8 4.4-1.1 6-6.5 5.4-.8-.2-.4.6 1 1.5 1.4 1 3.1 2.6 3.8 3.6 1.8 2.5 3.7 1.3 6.6-4.2 2.7-5.2 8.8-22 8-22-.3 0 .1-1.2.9-2.8.8-1.5 2.1-4.7 2.8-7.2s1.6-4.9 2.1-5.5c1.2-1.4 1-6.5-.3-6.5-.6 0-.9-.7-.5-1.5 1.1-2.9-1.9-1.2-6.2 3.4M658.5 161.7c.6 1.6 1.8 7.5 4.4 22.3 3 16.6 6.7 33 7.4 33 2.3 0 45-40.7 43.6-41.6-2.8-1.7-51-15.4-54.3-15.4-1.3 0-1.6.5-1.1 1.7M652.7 166.1c-2 2.4-3.7 4.8-3.7 5.2 0 .5-.3.6-.7.4-.5-.3-1.6.6-2.6 1.9-1.7 2.3-1.7 2.4 0 2.5 1 .1 2.1.1 2.5 0 .4 0 .3.9-.1 2.2-.5 1.2-1.4 2.1-1.9 2-1.5-.3-2.2 3.6-.9 5 .7.7 3 3.9 5.2 7.1 2.2 3.3 4.7 6.7 5.6 7.5.8.9 2.8 3.3 4.4 5.4 1.5 2.1 3 3.5 3.3 3.2 1.1-1.1 0-9.8-3.6-27.9l-3.8-18.8zM361.2 165.3c-1.2.7-1.9 1.6-1.5 2.1.4.4 0 .4-.8.1-1.7-.6-17.2 5.7-24.6 10l-4.4 2.6 3.8 2.6c2.1 1.4 6.1 4.5 9 6.9 2.8 2.4 5.6 4.4 6.2 4.4 2.1 0 13.1-10.2 13.1-12.1 0-.6-.4-.7-1-.4-1.6 1-1.2-.5 1-3.6 1.2-1.5 2.7-2.6 3.4-2.3s1.6-.2 1.9-1.1c.9-2.1-1.3-6.5-2.8-5.9-1.9.8-2.9-1.4-1.5-3.1 1.5-1.8 1.2-1.8-1.8-.2M622.7 196c-12.5 12.3-13.6 13.8-11.5 14.3 1.2.3 8.4 1.5 15.8 2.7 7.4 1.1 18.9 3 25.6 4.1 14.2 2.3 14.5 2.3 12 .4-1.1-.8-1.7-1.5-1.3-1.5 1 0-1.5-4.8-4-7.7-1-1.2-5.4-7-9.7-12.8-11.8-15.8-10.4-15.8-26.9.5M329.8 183.6c-.9.9 1.8 7.4 3.7 8.7 1.4 1.1 1.6 1.7.6 3.5-.6 1.2-1.7 2.1-2.4 1.9-1.5-.3-2.1 12.3-1 20.2l.8 5.4 8.8-12.9 8.8-12.9-4.3-3.8c-3.6-3.3-8.9-7.2-13.4-10-.6-.3-1.4-.4-1.6-.1M324.7 195.7c-.3 2.1-1.3 6.9-2.1 10.8-.9 3.8-1.6 8.6-1.6 10.5 0 2-.5 4.1-1.2 4.8-.6.6-1.9 3.7-2.9 6.7-1.8 5.9-1.3 6.5 3.1 4 2.9-1.6 4-1.8 4-.7 0 .4-2 1.6-4.4 2.7-3.4 1.5-4.6 2.7-5 4.9-.8 4-.7 20.1.1 21 .9.8 4.4-6.9 7.3-15.9 1.2-3.9 3.1-9.5 4.3-12.5 1.7-4.6 2-7.5 1.9-17.5-.2-13.9-1-22.5-2.1-22.5-.5 0-1.1 1.7-1.4 3.7M497.5 198.5c-29 4.9-55.3 9.5-65.3 11.2-2.4.5-4.3 1.1-4.3 1.6.1.9 20.7 17.6 25 20.2 1.7 1 23.8 17.7 37.1 28 4.3 3.3 12.1 9.1 17.5 13 5.4 3.8 11.6 8.5 13.8 10.3 6.5 5.4 12.5 9.3 13 8.5.2-.5.1-18.8-.4-40.8-.4-22-.8-43.9-.8-48.8-.1-8.4-.2-8.7-2.3-8.6-1.3 0-16.2 2.5-33.3 5.4M538.5 197.6c2.2 5.3 7.5 14.4 16.1 27.9 4.6 7.3 28.3 46.4 30.5 50.5 1.1 1.9 2.5 4.4 3.2 5.5 5.1 8.3 8 12.5 8.3 12.3.1-.2.5-3.7.9-7.8.3-4.1 1.3-15.6 2.1-25.5 4.3-50 4.3-49.1 1.2-49.8-1.3-.3-8-2.1-14.9-4-6.9-2-20.1-5.4-29.3-7.7s-17.4-4.4-18.2-4.7c-1.3-.5-1.3 0 .1 3.3M534.9 199.1c-.2 11.6.5 73.9 1 82.9l.6 11.5 11.5.3c6.3.1 13.9.7 16.9 1.2 8.9 1.6 18.8 1 17.5-1.1-.6-1 3.4-2.2 6.2-1.9 1.1.1 2.2.2 2.7.1 1.1-.2-5.6-13.1-13.1-25.1-3.6-5.8-9-14.6-12-19.5-3-5-6.9-11.3-8.7-14-1.7-2.8-6.2-10.1-9.8-16.2-11.6-19.5-12.7-21-12.8-18.2M349 200.1c0 .6-2.1 4-4.7 7.7-8.1 11.2-12.1 17.7-11.3 18 .7.3 5-.8 15.5-3.8 1.7-.5 7.4-2.1 12.8-3.7 9.3-2.7 11.8-4.5 7.9-5.7-1-.3-3.4-2.1-5.4-3.9-9.7-8.7-14.8-11.7-14.8-8.6M413.6 212.1c-4.3.4-12.1 1.2-17.1 1.9-8.2 1.1-9.2 1.4-8.8 3.1.4 1.3-.2 2-2.2 2.5-2.2.5-3.1.2-4.6-1.7-1.2-1.6-2.1-2.1-2.8-1.4-.5.6-1.2 13.5-1.5 31-.3 16.5-.8 34.3-1.1 39.5-.5 8.1-.4 9.1.7 7 .7-1.4 2-3.3 2.8-4.3 1.3-1.6 8.6-13.7 14.5-24.2 1.2-2.2 3.9-6.9 6-10.5 4.5-7.6 16.5-29.1 20.7-36.9 1.6-3 2.5-5.7 2.1-6-.4-.4-4.4-.4-8.7 0M605.9 212.9c-.1.6-.2 1.4-.3 1.8-.2.8-1.4 12.7-2.1 20.3-1.2 13.6-1.8 19.9-3 33-2.4 24.6-2.4 27-1 27 2.4 0 66.5-70.3 66.5-73 0-.8-7.9-2.4-17.4-3.5-6.2-.8-36.8-5.5-39.8-6.1-1.7-.3-2.9-.1-2.9.5M426.5 236.7c.1 12.6.4 38.4.5 57.5.2 31 .4 34.8 1.8 34.8.9 0 19.6-6.1 41.6-13.5 55.5-18.7 61.7-20.9 61.9-21.7.1-.3-7.2-6.2-16.3-13s-18.1-13.5-20-15-9.2-6.9-16.1-12c-21.5-15.9-33-24.5-42.9-32.3-5.2-4.1-9.8-7.5-10.1-7.5s-.5 10.2-.4 22.7M359 220.6c-15.1 3.9-24 6.6-24.7 7.7-.6 1.1 5.8 7.9 14.1 14.9l5.9 5 3-4.9c1.6-2.6 4.9-7.7 7.2-11.3 2.4-3.6 5-8.2 5.9-10.3 1.9-4.6 1.9-4.6-11.4-1.1M421.4 220.3c-.6 1.2-6.4 11.4-12.9 22.7s-12.9 22.5-14.2 25c-3.1 5.6-9.3 16.4-14.5 25-4.4 7.4-5.1 5.9 6.4 13.5 3.7 2.5 7.8 5 9 5.5 1.3.5 8.4 4.5 15.8 8.8 7.4 4.4 13.9 7.8 14.3 7.5s.5-22.8.2-50.1c-.7-59.8-1-64.3-4.1-57.9M369.8 227.2c-6.2 9.2-11.8 19.1-11.8 20.9 0 1-.4 1.9-1 2.1-1 .3 6.3 21.5 8 23.2.6.6 1.5.4 2.4-.3 2.1-1.8 3.2.6 1.2 2.8s-2 3.1-.1 3.1c.8 0 1.5.5 1.5 1.1 0 .5.4.8.9.4.6-.3 1.2 1.2 1.4 3.2.2 2.1.4-1.1.5-7.1.2-9.7 0-10.7-1.2-9.1-1.3 1.8-1.4 1.7-.9-1 .3-1.7 1.2-3.5 1.9-4.1 1.7-1.4 3.3-36 1.7-38.8-.8-1.4-1.4-.9-4.5 3.6M664.9 226.8c-1.5 2-6 7.3-10 11.8-4.1 4.4-11.2 12.3-15.8 17.5s-13.7 15-20.1 21.9c-13.6 14.5-17.4 18.9-16.8 19.5.2.3 2 0 3.9-.5 1.8-.6 5-.9 6.9-.9 3.3.2 3.3.2-1.2 1.2-2.7.6-4.8 1.3-4.8 1.7 0 .7 13.7 3.9 35 7.9 31.3 6 31.1 6 31.7 4.4.3-.7.2-5.9-.2-11.6-.3-5.6-.8-12.9-1-16.2-.9-17.6-1.7-29-2.5-37.5-.5-5.2-1-12.5-1-16.3 0-3.7-.3-6.7-.7-6.7-.5 0-2 1.7-3.4 3.8M329 230.9c-.5 1-1.5 3.5-2.3 5.7-7.8 21.2-9.5 26.3-9 26.7.6.6 6.3-1.5 16.3-6 3.6-1.7 8.7-3.8 11.3-4.8s5-2.3 5.4-2.8c.3-.6-.9-2.4-2.8-4-1.9-1.7-6.7-6-10.7-9.8-6.3-5.8-7.4-6.5-8.2-5M345.5 253.7c-13.1 5.3-25.1 10.7-26.8 12.2-1.6 1.4-1.4 1.7 4.1 5.2 6.2 3.9 42.9 23.9 43.9 23.9.4 0 1.5.7 2.5 1.7 2.9 2.6 2.3.4-4.8-19.1-7.8-21.2-10.2-26.6-11.8-26.5-.6.1-3.8 1.2-7.1 2.6M312.2 278.2c-4.1 14.3-5.1 18.2-4.9 18.5.2.1 2.7.9 5.7 1.7s7 1.9 8.8 2.5c4.1 1.2 4.1.8-.4-11-1.9-5.2-4.3-11.6-5.3-14.2l-1.8-4.8zM532.4 298.2c-2.3 2.5-28.1 26.2-41.4 37.8-5.4 4.8-7.9 7.6-6.9 7.8.9.2 12.8-2 26.5-4.8 13.7-2.7 26-5 27.3-5 2.3 0 2.3-.2 1.8-5.8-.7-7.3-3.5-25.9-4.5-29.5l-.7-2.8zM536.3 297.6c.3 1 1.5 8.4 2.7 16.4s2.4 15.5 2.6 16.8l.4 2.2 4.3-2.1c2.3-1.2 4.5-2.6 4.8-3.1s.8-.9 1-.7c.2.1 3.1-1.5 6.4-3.6 8.5-5.3 9-5.7 18.5-12.5 4.7-3.3 10.4-7.3 12.8-8.9l4.4-2.8-6.4-.2c-3.5-.1-10.1-.6-14.8-1.1-4.7-.6-15-1.3-22.9-1.7-13.8-.6-14.3-.5-13.8 1.3M518 301c-10.8 3.9-48.4 16.7-69.3 23.6-13.3 4.3-20.3 7.6-20 9.3.2.6-.1 1.1-.6 1.1s-1.1 1.1-1.3 2.5c-.3 1.4-.2 2.5.2 2.5 1 0 2.2 3.1 1.5 3.9-.3.3-1-.1-1.5-.9-.7-1.1-1-.5-1.1 2.2-.1 2.1-.2 4.2-.3 4.8-.1.5.4 1 .9 1 .6 0 .9-1.1.9-2.5-.1-1.6.4-2.5 1.4-2.5 1.4 0 1.4 1 .1 6-.2.8-.9 2-1.6 2.8-.7.7-1 1.8-.8 2.5.7 1.8-2.1 9.3-2.8 7.6-.3-.8-.6.1-.6 1.8-.1 2.4.4 3.3 1.5 3.3.9 0 1.2-.5.8-1.1-.5-.9.1-1 2-.5 1.6.4 2.6.2 2.6-.4s-.4-.8-1-.5c-.5.3-1 .2-1-.3 0-.6 1.1-1.3 2.4-1.6 1.4-.3 2.6-1.6 3-3.1.4-1.6 1.3-2.5 2.6-2.5 1.1 0 2-.6 2-1.4s.6-1.7 1.3-2c1-.5 1-.7 0-1.2-2.3-1-1.4-2.5 1.2-1.8 2.5.6 5.5-1.3 5.5-3.5 0-.6 1.5-1.1 3.3-1.2 1.7 0 4.7-.1 6.5-.2 1.7-.1 3.2.2 3.2.8 0 .5 1.2 1.5 2.6 2.2 2.1 1 2.4.9 1.4-.1-1.3-1.7 1.1-2.9 3.7-1.9 1.2.5 1.4.3.8-.7-.5-.8-.4-1.1.3-.6 1.8 1.1 6.4-.5 5.8-2-.4-1 .3-1.4 2.4-1.4s4.4-1.3 7.6-4.3c31.9-28.8 47.7-43.7 46.1-43.6-.6 0-5.9 1.7-11.7 3.9M364.5 302c-2.2.4-10.7 1-18.9 1.4-8.2.3-15.2.8-15.4 1.1-.8.7 3.2 7.6 10 17.5 8 11.7 8.1 11.8 11 12.5 2.2.6 2.9.2 4.4-2.2 7.9-13 9.4-13.7 3.2-1.7l-4.2 8.1 3.2 3.1c3.1 3.1 5.2 3.7 18.7 5.8 2.2.3 4.4.8 4.9 1.1 1.5 1 .1-7.6-7.1-42-.3-1.5-1.1-2.7-1.8-2.7s-1.5-.7-1.9-1.5c-.3-.8-.9-1.5-1.3-1.4s-2.6.5-4.8.9M376.1 308.2c.4 2.4 1.7 9.2 2.9 15.3 2.5 13.5 4.6 21.5 5.9 22.8.7.7 4.9-.6 13.3-4.2 21.3-9 24.7-10.6 24.8-11.1 0-1.2-45.1-27-47.3-27-.3 0-.1 1.9.4 4.2M416 337.2c-18.7 7.4-22.3 9.9-15.2 10.6 2.5.3 3.2.8 3.2 2.5 0 1.2.9 2.8 2 3.5 2.5 1.5 4.2 5.4 2.8 6.3-.5.3-.2 1.3.7 2.3 1.1 1 1.2 1.6.4 1.6-2 0-.1 1.3 2.4 1.6 1.2.1 2.5.3 2.9.3.4.1 1 1 1.3 2.2 1 3 2.2 1.1 2.7-4.1.3-2.5.8-5.4 1.3-6.4.6-1.5.5-1.7-.5-1.1s-1.2.2-.7-1.6c.4-1.3.7-2.9.7-3.4 0-.6.4-.4.8.3.9 1.3 3.8-14.6 3.1-16.5-.2-.6-3.4.1-7.9 1.9M357.3 348.1c.4 1.3.7 3.6.7 5.1 0 2.3.4 2.6 2.7 2.5 2.2-.2 2.9.3 3.1 2 .3 2.3-1.2 3.2-2.2 1.4-.3-.5-1.7-.9-3.1-.9-2 0-2.4.4-2 1.9.8 2.5-1.2 9.6-3 10.2-1 .4-1.4 2.3-1.4 6.9l.1 6.3 2.6-3.4c1.5-1.8 8.1-8.9 14.7-15.8 6.6-6.8 12.1-12.8 12.3-13.3.4-1.1-1.7-1.7-11.3-3-4.4-.6-9.3-1.3-10.9-1.7-2.6-.5-2.8-.3-2.3 1.8M382.5 360.2c-1 4-1.9 7.5-2 7.8s-.8 3-1.7 6c-.8 3-2.8 10-4.2 15.5-1.5 5.5-2.9 10.8-3.3 11.9-.4 1.5 1.6.7 9.3-3.4 5.5-2.9 11-6.1 12.4-7 1.4-1 5.7-3.4 9.5-5.5 9.7-5.3 14.5-8.9 12.2-9.3-.9-.2-1.7-.8-1.7-1.3s-.6-.8-1.2-.6c-.7.1-1.2-.4-1-1.1.1-.6-.3-1.2-.9-1.2s-1.7-.7-2.5-1.5c-.9-.8-2.6-1.5-4-1.5-1.3 0-2.4-.4-2.4-1 0-.5.8-.7 1.8-.4 1.6.5 1.6.5 0-.6-1-.6-2-1.1-2.2-1.1-.3 0-2-1.4-3.9-3.2-3.6-3.4-11.3-9.7-11.9-9.7-.2 0-1.2 3.3-2.3 7.2M374.4 361.6c-2.7 3.1-6.2 6.8-7.8 8.3-1.5 1.4-4.9 5.3-7.4 8.6s-5.5 6.8-6.5 7.7c-2 1.8-1.9 1.8.9 4 1.6 1.3 4.7 4.1 6.9 6.3 6.9 6.9 7.3 7.1 8.5 4 1-2.8 4.6-15.3 6-21.5 1.1-4.4 4.9-18.9 5.6-21.3 1-3.2-1.3-1.7-6.2 3.9M279.6 377.4c-.4 1.8-.4 4.1 0 5 .7 1.9-1.2 2.2-1.9.3-.6-1.3-4.6 2.9-4.7 4.9 0 2.2-8.3 18.6-11.6 23.1-1.3 1.7-2.4 4-2.4 5.1s-.6 2.5-1.4 3.1c-1 .9-1.1 2-.3 5 1 3.6 1.2 3.8 3.4 2.8 1.3-.5 2.3-1.4 2.3-1.9 0-.4.9-.8 2-.8s2-.5 2-1c0-.6.7-1 1.5-1 1.8 0 2-1.7.3-2.3-.7-.2.2-.4 2-.4 2.1 0 2.8.3 2 .9-.9.5-.6.8 1 .8 1.3 0 2-.4 1.7-1-.3-.5 0-.7.8-.4s1.8.1 2.2-.5c.3-.6 2.2-1.1 4.1-1.1 2.5 0 3.4-.4 3.4-1.6 0-1 .6-1.4 1.4-1.1s1.7-.1 2-.9c.9-2.3.7-13.1-.2-11.7-.4.6-.5-2.9-.3-7.9.2-6 0-8.8-.7-8.4-.6.3-1.6 0-2.4-.9-3.9-4.3-4.1-4.7-2.9-5.4.9-.6.9-1.4 0-3.4-1.6-3.6-2.5-3.4-3.3.7M247.5 449.8c3 3 15.7 11.2 17.3 11.2.8 0 4.4-1.4 8-3.1 3.5-1.6 8.2-3.7 10.4-4.6 2.1-.8 3.7-1.7 3.5-2-.2-.2-6.4-.8-13.8-1.3s-16.5-1.2-20.4-1.6l-7-.6zM955.5 123.9c-17.6 4.9-18.5 5.2-18.5 5.9 0 .4 8.1 8.8 18 18.7l18 18-.2-4.3c-.2-6.1.8-6.2 1.5-.1.4 2.8.8 5.3 1 5.5.4.4 19.2-5 24.7-7.1 1.9-.7 4.3-1.6 5.3-1.9.9-.3 1.7-.9 1.7-1.4 0-2.2-38-36.3-40.2-36.1-.7.1-5.8 1.3-11.3 2.8M927 133c-3.6 1.6-12.3 5.3-19.4 8.1l-12.9 5.3 10.4 2.8c37.6 10.3 47.5 12.8 48.7 12.3 2.1-.8 6.2.6 6.2 2.1 0 1.7 2.2 1.8 3.9.1 1.1-1 1.3-.9.7.1-.5.7.2 1.6 1.9 2.2 4.3 1.6 4.2 1.2-1-4-2.6-2.7-5.3-4.6-5.8-4.3-.6.3-.7.1-.3-.5.6-1.1-23.8-27.3-25.3-27.1-.3 0-3.5 1.4-7.1 2.9M993.3 164.3c-8.4 2.7-15.3 5.2-15.3 5.6 0 .3 4.2 2.7 9.3 5.3 36.5 18.4 43.1 21.7 43.4 21.4.4-.4-19.5-34.9-21-36.2-.9-.8-5.2.2-16.4 3.9M995.2 186.2c-1 2.8-.9 3.5 1 5.5 1.2 1.3 2.8 2.3 3.5 2.3.8 0 1.2.4.9.8-.3.5 1.1 2.4 3.1 4.3 2.1 2 3.4 2.7 3 1.6-.4-.9-.2-1.7.2-1.7.5 0 1.6-.3 2.4-.6.9-.3 1.6.2 1.9 1.4.6 2.2-.1 3.7-1.9 4.3-1.5.5 6.2 9.9 8.2 9.9.7 0 1.9-.7 2.6-1.7.8-.9 4-3.8 7.1-6.4l5.7-4.7-3.8-2.5c-5.1-3.4-29.7-15.7-31.4-15.7-.7 0-1.8 1.4-2.5 3.2M993 202.9c-.5.9-1 1.2-1 .7s-.7-.3-1.5.4c-1.3 1.1-1.8 1-2.9-.6-2.4-3.2-2.5-1.1-.3 4.2 1.2 2.8 2.7 4.9 3.3 4.7 1.3-.4 5.4 4.3 5.4 6.2 0 .6-.9 2.2-2 3.5-2 2.3-1.9 5.2.1 7.4 1 1.2 20.9-11.9 20.9-13.7 0-1.9-7.5-8.9-8.5-8-.4.5-.5.3-.2-.3s-.6-2.3-2.1-3.7c-3.2-3.1-9.6-3.5-11.2-.8M1028.3 207.8c-2.3 2-5.4 4.7-7 5.8-2.5 2-2.6 2.4-1.5 4.8 1.5 3.4 12.2 19.5 13.3 20.2.5.3.9-7.4.9-17 0-9.7-.3-17.6-.7-17.6-.5 0-2.7 1.7-5 3.8M1037 207.3c0 .3.7 3.2 1.5 6.4 2.6 9.7 7.5 34.6 7 35.1-.7.7-1.2-1.2-3.5-12.3-1.1-5.5-2.9-13.6-3.9-18l-1.9-8-.1 16.6-.1 16.5 6.2 4.5c3.5 2.4 7 4.7 7.8 5.1 1.3.6 1.2.7-.2.7-1.2.1-1.6 1-1.6 3.3 0 1.8-.3 7.3-.7 12.1l-.8 8.8 4.4 4.5c2.4 2.4 4.6 4.4 5 4.4s.4-1.5-.1-3.3c-.4-1.7-1.1-4.4-1.4-5.9-.4-1.8-1.2-2.5-2.3-2.4-1 .2-1.2.1-.5-.1 1.6-.6 1.5-1.3-.8-6.8s-2.8-11.1-.5-6c6 13.3 7.5 17 7.5 18.9 0 1.2.5 2.7 1 3.2.6.6 1.3 2.4 1.5 4l.5 2.9-1.5-2.5c-1.1-2-1.4-2.1-1.5-.7 0 1 .7 2.9 1.6 4.3 1.5 2.2 1.5 2.6.2 3.7-.8.7-2.3 3.1-3.3 5.5l-1.8 4.3 3.3 3.4c4.1 4.2 5.2 4.4 4.5.7-.5-1.9-.3-2.2.3-1.2 1.6 2.7 2.2 9 .8 9-.7 0-2.6 3.3-4.3 7.2-4.3 10.2-4.5 10.8-2.8 11.4 1.7.7 4.7-1.4 4-2.7-.3-.4-.1-1.6.5-2.6.5-1 1.4-4.1 1.9-6.8.5-3 1-4 1.1-2.5l.2 2.5.8-2.5c1.5-4.7 1.1-14.5-1-20.4-1-3.1-1.5-5.4-1-5.1s1.4 2.1 2 4.1c.7 1.9 1.4 3.3 1.7 3.1.2-.3-.1-11-.8-23.8-1.2-21.9-1.4-23.2-3.3-23.7-1.7-.5-1.8-.6-.3-1.1 2-.7 1.1-2.5-14.6-30.1-10-17.7-10.7-18.8-10.7-17.7M1006.8 224.8c-5.4 3.7-9.8 7-9.8 7.3 0 .4 3.3 1.5 7.3 2.4 3.9.9 11.6 3 17 4.7 5.5 1.6 10.2 2.7 10.5 2.4.3-.4-2-4.3-5-8.9-3.1-4.5-6.4-9.7-7.4-11.5-1-1.7-2.1-3.2-2.4-3.2s-4.9 3.1-10.2 6.8M951.7 228.7c.8 2.2 18.3 36.4 19.3 37.8.4.5 3.5 6.2 6.8 12.5s7.8 14.6 10.1 18.5l4.1 7 .1-30c.1-16.5.2-32.2.2-34.8s-.4-5.2-.9-5.7c-.7-.7-36.1-7-39.4-7-.5 0-.7.8-.3 1.7M949.8 233c-.1.8-.3 4.2-.4 7.5-.4 10.2-2.2 45-3.4 66.2-.6 11.1-.8 20.9-.3 21.6.6 1.2 4.9-.6 21.8-9 11.6-5.7 21.5-11 22.2-11.6.8-.9-2.4-7.7-13.4-28.2-7.9-14.9-16.7-31.3-19.5-36.5-5.6-10.6-6.7-12.1-7-10M997.6 238.2c.9 1.8 3.1 5.5 4.9 8.3 1.8 2.7 4.7 7.4 6.4 10.2l3.3 5.3 4-3.3c15.8-12.7 18.5-15.3 15.6-15.4-.7-.1-8.4-1.9-17-4.2-19.5-5.1-19.4-5.1-17.2-.9M994.1 268v31.5l2.6-5c3.9-7.4 13.3-29.6 13.3-31.4 0-1.3-4.3-8.6-14.7-24.7-.9-1.5-1.2 4.9-1.2 29.6"/><path d="M1024.3 254.3c-5.1 3.9-9.2 7.6-9.2 8.2-.1.9 2.9 2.4 22.2 11 6.3 2.8 7.4 2.8 5.9-.2-.5-1-1.3-3.6-1.7-5.8-.3-2.2-1.3-5.4-2-7-.7-1.7-2.1-5.4-3-8.3-.9-2.8-2-5.2-2.3-5.2-.4 0-4.8 3.3-9.9 7.3M1010.7 267.2c-.8 1.8-3.8 8.9-6.6 15.8s-5.8 13.8-6.6 15.3c-1.4 2.7-2 5.7-1.1 5.7.7 0 26-13.2 36.9-19.2l10.8-6.1-2.8-1.8c-1.5-1.1-6.2-3.3-10.3-5s-9.1-3.9-11-4.9c-6.9-3.5-7.8-3.4-9.3.2M1039.5 283.8c-3.5 2.2-19.9 10.9-33.5 17.8l-9.5 4.9 8.5.7c8.9.7 10.8.4 6.9-1.1-2-.8-1.5-1 2.9-1 4.5-.1 5.8-.5 8.3-3l2.9-3-2.2-1.5c-1.2-.9-1.8-1.6-1.2-1.6s2-.9 3.2-2c1.8-1.7 2.2-1.8 2.2-.5 0 1.7 1.6 2 2.5.5 1-1.6 4.5-1.2 4.5.6 0 .8.5 1.2 1.1.8 1.2-.7.4 8-.9 10-.3.6-.8 2-1 3.1-.3 2-.3 2 1.2 0 .9-1.1 1.6-3 1.6-4.1 0-1.2.7-3.5 1.5-5 .8-1.6 1.5-3.6 1.5-4.5s.8-4.1 1.9-7.2c1-3.2 1.6-5.7 1.2-5.7-.3 0-1.9.8-3.6 1.8M1041.6 295.5c-2.1 7-3.5 13-3.1 13.3.6.6 6.8-.8 11.6-2.7l2.6-1-2.9-10.3c-1.6-5.7-3.3-10.7-3.7-11.1-.5-.4-2.5 4.9-4.5 11.8M1045.4 309c-7.2 2.5-9.4 3.8-9.4 5.6 0 .8-.4 1.3-.9 1-.8-.5-11.1 14.4-11.1 16.1 0 .4.4.2.9-.6.5-.7 3.2-1.6 6-1.9l5.1-.5.1-6.1.1-6.1 1.2 5.8c2.2 10.1 3.1 9.6 11.5-7.1 4.5-9.1 4.5-9.1-3.5-6.2M1049.1 317.4c-2.8 5.9-5.1 11.1-5.1 11.5s1.6 1.5 3.7 2.5c4.4 2.1 5.2 1.3 5.4-5.9l.2-5 .6 5.5.7 5.5 3.3-6.8c3.7-7.7 3.6-9.5-.8-14.6l-2.9-3.3zM989 310.4c-16.8 8.2-41 20.9-41 21.5 0 .4 2.6 2 5.8 3.4 19.9 9.2 27.7 12.5 28.4 12.1 1.4-.9.8-3.4-.8-3.4-.8 0-1.2.4-.9 1 1.2 1.9-1.5 1-3.7-1.2-1.4-1.4-1.8-2.3-1-2.6.7-.2 1.2-1.3 1.2-2.3 0-1.1-.4-1.7-1-1.4-.5.3-1 .2-1-.3s1.6-.9 3.5-1c2-.1 4-.4 4.5-.7.6-.4 1.1.6 1.1 2.2.1 2 .3 2.2.6.8.2-1.1 1-4.7 1.8-8s1.9-9 2.6-12.8c.6-3.7 1.5-7 2-7.3 1.2-.7 1.2-.9-1 9.8-2.7 13-5.1 25.6-5.1 27.1 0 1 1.5 1.1 6.3.7 6.7-.7 14.2-2.8 13.3-3.8-.9-.8 1.5-3.2 2.6-2.6 1.3.8.3-2.3-2.8-9.5-3.1-6.9-2.3-7.9 1-1.3 3.1 6.2 4 6.8 7.1 4.8 1.3-.9 3.2-1.6 4.2-1.6 1.5 0 1.6-.2.3-1-1.2-.8-1.1-1 .6-1 1.1 0 3.4-1.5 5.1-3.3 4.2-4.4 11.7-15.7 10.9-16.4-.3-.3-2.9-.8-5.8-1s-11.5-1.1-19-1.9-14.1-1.4-14.5-1.3c-.4 0-2.8 1-5.3 2.3M933.5 335.7c-11 2.8-27.5 7.2-29.5 7.9-1 .4-.4 1.1 2 2.4 2.3 1.2 3.7 1.4 4.1.8.9-1.4 2.9-.1 2.3 1.5-.4 1.2 28.5 19.3 32.6 20.4 2.1.6 2.1.4 1.5-7.8-.7-8.8-3.2-27-3.7-27.3-.2-.2-4.3.8-9.3 2.1M946.4 341.2c.7 7.7 2.4 20.7 3.2 24.7.4 1.8.8 2.1 1.7 1.2 2-2 3.1-1.1 1.1 1-2.6 3 6.3-3 10.1-6.8 1.6-1.5 2.5-2.1 2-1.3-.7 1.2-.5 1.2 1.1-.1 1-.9 2.8-1.9 3.9-2.3 1.5-.5 1.6-.9.6-1.5s-.8-1 .6-1.6c1-.5 2.3-.7 3-.6.6.1 1.5-.4 1.9-1 .5-.8.3-.9-.7-.4-1.2.8-1.2.6 0-.8.9-1.1 2.1-1.5 3.5-1.1 1.2.3.3-.6-1.9-2s-4.3-2.6-4.6-2.6c-.7 0-20.8-9.3-24.3-11.1-1.7-1-1.8-.7-1.2 6.3M987.8 349.7c-1.6.2-2.8 1-2.8 1.6 0 2.2 25.6 30.4 26.6 29.4.7-.6-1.7-11.1-2.7-12.2-.5-.5-.9-1.7-.9-2.8 0-2.4-2.6-5-4.2-4.1-1 .6-1.1.4 0-.7 1.4-1.5 1.6-3.3.3-2.5s-3.4-4.9-2.6-7.3c.6-2 .3-2.1-5.2-2-3.2.1-7 .4-8.5.6M979.9 353.5c-.1.6-.1 1.3 0 1.7 0 .4-.5.5-1.2.2-1.4-.5-16.2 9.4-18.5 12.4-.6.9-1.8 1.7-2.6 1.8s-2.4.9-3.6 1.7c-1.9 1.4-1.8 1.6 4.2 5.4 3.5 2.3 8.6 5.4 11.3 7 2.8 1.7 8.8 5.3 13.4 8.2 8.3 5.1 8.3 5.1 7.6 2.4-.4-1.6-1.3-6.2-2.1-10.3-1.4-7.6-1.9-9.9-5-22.5-1.6-6.5-3.2-10.2-3.5-8M984.4 355.4c.6 1.7 2.3 9.5 4.5 20.1.5 2.7 1.5 7.2 2.1 10 .6 2.7 1.4 6.5 1.7 8.2.3 1.8.8 3.3 1.2 3.3.9 0 15.5-11.9 15.9-13 .2-.4-.3-1.4-1-2.1-3.5-3.7-19.7-21.8-22.2-24.9-1.5-1.9-2.5-2.7-2.2-1.6M951.5 379.7c2.5 8.7 5.5 20.8 6.1 24.1.6 3.1.9 3.3 3.8 2.7 6.1-1.2 27.1-6.7 28.3-7.4 1.3-.7-5.7-5.1-24.4-15.8-4-2.3-8.6-5.1-10.2-6.2-4.4-3.2-5.1-2.7-3.6 2.6M1064.8 377.7c-1.2.3-1.8 1.4-1.8 3.1 0 4.2-1.1 7.2-2.6 7.2-.9 0-1.4 1.2-1.4 3.2 0 1.8-.3 7-.7 11.6-.6 9.1 0 10.4 6.9 13.3 1.8.7 5.7 3 8.7 5 3.1 2.1 6 3.5 6.4 3.2.5-.3.3-.9-.4-1.4-2.4-1.5 2-4 5.9-3.4 2.1.4 3.2.2 3.2-.6 0-.6-.6-.9-1.4-.6-.9.4-1.2 0-.9-1.3.3-1-.3-3-1.2-4.4s-4.1-7.5-7-13.6-5.7-11.6-6.2-12.3-1.7-3.1-2.8-5.5c-1-2.3-2.1-4.1-2.4-4.1-.3.1-1.4.3-2.3.6M1044.9 386.2c-.1 2.4-.2 5.4-.1 6.8.2 14.8.1 14 2.7 15 1.4.5 3.6 1.3 4.9 1.6l2.4.6-3.5-14.1c-2.4-9.6-4-14.1-4.9-14.1-1 0-1.4 1.4-1.5 4.2M1008.4 388.3c-6.4 4.6-12.4 10.1-11.6 10.8 1.2 1.1 20.3 6.1 20.9 5.5 1.1-1.1-1.7-5.8-3.7-6.3-2.3-.6-2.7-2.3-.5-2.3.8 0 1.5-.7 1.5-1.5 0-1.6-2.6-8.5-3.2-8.5-.2.1-1.7 1.1-3.4 2.3M1017.8 387.7c1 1.7 9.5 11.7 15.3 17.8 1.9 1.9 1.9 1.8 1.9-6.6v-8.5l-4.7-1.7c-2.7-.9-6.8-2-9.2-2.3-4.1-.7-4.3-.6-3.3 1.3M1053 435.5c-.2 1.6-.4 4.1-.6 5.5s-1 5.4-1.9 9c-.8 3.6-1.8 10.8-2.1 16-.6 9.6.7 16.8 6.1 33 1.4 4.4 1.5 4.2 1.4-9-.2-25 0-30.7 1.4-30.8 3.3-.4 17.7-4.8 17.7-5.4 0-.8-12-7.1-15.7-8.2-2.2-.7-2.2-.7-.8 3.5.8 2.3 1.5 4.9 1.4 5.8 0 .9-.8-.5-1.7-3-.9-2.6-2.2-5.3-2.9-6.1-.7-.7-1.4-4.1-1.6-7.3-.2-3.4-.5-4.7-.7-3"/><path d="M1095.9 440.5c-.3.2-8.1.9-17.5 1.6-9.3.6-17.2 1.4-17.7 1.8-.4.4 3.5 2.7 8.8 5.2l9.4 4.5 5.8-3.6c9.2-5.6 13.3-8.4 13.3-9.3 0-.8-1.4-1-2.1-.2M1057.5 486.4v19.4l2.5-1.8c1.4-1 4-3.4 5.9-5.4l3.4-3.6-4.5-10.2c-2.5-5.7-5.1-12-5.8-14.1-.6-2-1.3-3.7-1.4-3.7s-.2 8.7-.1 19.4M643.2 663.7c.9 9.2 2.7 16.1 3.7 14.5.4-.7 2.4-1 4.9-.8 2.3.2 4.2-.1 4.2-.6 0-.6.7-.8 1.5-.5 2.1.9 2.8-.9 1-2.6-.8-.9-1.5-1.9-1.5-2.4-.1-.9-13.4-15.3-14.2-15.3-.2 0-.1 3.5.4 7.7M662.8 681.7c-.9 2.1-.2 5.8 1 5.5.8-.1 1.1.2.8.7-.9 1.4.4 4.1 2 4.1.8 0 1.4.4 1.4.9s1 1.3 2.1 1.6c1.7.6 1.9.9.8 1.6-1 .6-1.1 1.1-.3 1.6 1.7 1.2 3.4 4.9 3.4 7.7 0 3.1.9 5.6 2.1 5.6.5 0 2.7.8 4.9 1.7 3.3 1.5 4 2.3 4 4.5 0 2.7.1 2.8 4.3 2.2 2.3-.4 4.3-.8 4.5-.9.2-.2-.5-1.4-1.6-2.7-3.4-4-8.6-10.5-10.4-12.9-.9-1.3-3.2-4.4-5-6.8s-3.7-5.1-4.3-5.9c-1.8-2.8-7.8-9.2-8.6-9.2-.4 0-.9.3-1.1.7"/></svg>