<svg xmlns="http://www.w3.org/2000/svg" width="1706.667" height="960" viewBox="0 0 1280 720"><path d="M0 360v360h277.9c263.9 0 278-.1 278.4-1.8.4-1.6.5-1.6.6 0 .1 1.5 1.1 1.8 6.4 1.7 3.4 0 5.6-.3 5-.6-1.9-.7-1.6-2.3.5-2.3.9 0 3.7-1.9 6.2-4.3s6.6-5.5 9.3-7c5.1-3 6-5.4 2.5-6.2-5.2-1.1-24.3-3.3-25-2.9-.4.3-.8 1.3-.8 2.3s-.7 2.4-1.5 3.1-1.5 2-1.5 3-.7 2-1.5 2.4c-1.2.4-1.2-.2.4-3.2 1-2 2.6-5.5 3.5-7.7 1.2-2.9 1.9-3.6 2.5-2.6.9 1.4 26.6 4.9 27.8 3.8.3-.3-.2-3.9-1-7.9-2.1-9.9-2.9-14.8-2.4-14.8.3 0 1.3 3.3 2.3 7.2.9 4 1.9 6.7 2.2 5.9.8-2.3 5.2-8.5 5.2-7.2 0 .6.5 1.1 1.1 1.1 1.2 0 6.9-6 6.9-7.3 0-.5 2.2-4.7 4.9-9.3 7.5-12.6 7.7-11.6-3.6-15.2-8.8-2.8-21.6-6.1-23.5-6.2-1.5 0-.8 6.1 1.8 16.5 1.4 5.8 2.4 11.1 2.1 11.8-.2.6-.9-1.3-1.6-4.3-4.8-21.8-5.2-23-7.2-21.9-1.5.7-1.9.6-1.9-.5 0-.8.5-1.8 1-2.1.6-.4 1-1.2.9-1.8-.2-.7.3-2.6 1.1-4.2.7-1.7 1.6-3.9 2.1-5s1.3-3.8 1.8-6 .9-3 1-1.9c.1 1.2-.8 5-1.9 8.4s-2 6.6-2 7.1c0 .9 3 1.9 19.5 6.4 7.2 2 13.8 3.8 14.8 4.1 3.3 1 4.4-4.7 5.2-26.3.7-19.8.7-20.3-1.5-24l-2.2-3.8 2.5 3 2.5 3 1.7-4.3c1-2.4 1.9-4.1 2.2-3.8.2.2-.3 2.1-1.2 4.2-.8 2.1-1.3 4.4-1.1 5.1.3.7.2 1.3-.3 1.3-.4 0-1.1 10.3-1.5 23l-.7 22.9 3 3.3c11.5 12.6 13.2 14.2 12.6 11.9-.5-1.7-.4-2.1.5-1.6.6.4.9 1.6.7 2.7-.3 1.1.2 2.7 1.4 3.9 2.2 2.2 2.6 2.3 2.6.6 0-1.5 7-40.8 8.3-46.4 1.1-5 .5-7.3-2-7.3-1.1 0-2.2-.4-2.5-1-.4-.6.5-.7 2.3-.4 2.3.5 3.3.1 4.4-1.4 1.3-1.9 1.4-1.8 1.3 1.9 0 2.1-.3 3.9-.6 3.9-1 0-1.7 3.2-5.4 25.9-3.8 22.5-4.1 26.7-2.2 27.4q1.5.6 0 .6c-2.3.2-1.4 2.1 1 2.1 3.2 0 6.7 1.1 6.7 2.1 0 .4-1.4.3-3.1-.3-1.6-.6-3.2-.8-3.4-.6-.7.6 5.9 11 14.5 22.6 4.1 5.7 8.9 12.3 10.5 14.7l3 4.4h303.2l303.3.1V0H0zM457.9 64.4c-1.1 1.1-22.2 9.2-36.4 14-23.7 8-38.6 13.9-37.7 14.8.7.7 7.2 2.3 19.7 4.8 3.3.7 8.4 1.9 11.3 2.8 4.8 1.4 5.4 1.3 7.1-.2 1.2-1.1 2-1.3 2.3-.6.4 1.2 8 .3 25.8-2.9 5.8-1.1 18.4-3.4 28-5.1 9.6-1.8 18.5-3.6 19.8-4.1s2.8-.7 3.3-.3c.5.3.9.1.9-.4 0-.9-12.2-11.2-17-14.4-1.4-.9-3.8-2.8-5.5-4.3-4.2-3.7 5 2.3 13 8.6C504.2 86.2 506 87 511 86c11.7-2.3 33.6-6 43.4-7.5 6.1-.8 11.2-1.7 11.4-1.9.5-.5-2-1.2-9.6-2.7-3.4-.6-6-1.4-5.7-1.7.6-.6 23.8 4 24.5 4.9 1.1 1.3 54.7 23.9 56.9 23.9 1.3 0 1.5-1.7.1-2.2-1-.3-4.4-7.8-3.5-7.8.2 0 1.1 1.5 1.8 3.2.8 1.8 2.8 4.8 4.6 6.7 1.7 1.8 3.1 3.7 3.1 4.1 0 .5 1 1.6 2.2 2.4l2.2 1.6h-2.2c-1.2 0-2.2-.5-2.2-1 0-2.4-1.8-.7-2.4 2.2-.6 3.5-2.3 27.5-2.8 39.7l-.3 7.4 8.5 2.2c4.7 1.3 16.4 4.3 26 6.8 9.6 2.6 19 5.1 20.9 5.6 4.4 1.4 4.9.8 1.9-2.2-3.1-3.1-22.6-26-30.8-36.2-3.5-4.4-6.7-8.2-7-8.5-1.5-1.4-10.8-12.7-11.4-14-2.1-3.9 10.6 10.4 24 27.1 3.8 4.8 9.2 11.1 11.9 14.1 2.8 3 7.7 8.7 11 12.6s6.5 7.2 7.1 7.2c1.7 0 18.7-10.4 19.1-11.7.2-.6-3.4-3.9-8.1-7.3-4.8-3.4-8.6-6.4-8.6-6.7 0-.2 4.2 2.5 9.4 6 9.1 6.2 9.6 6.4 12.2 5.1 3.2-1.7 4.4-1.8 4.4-.3 0 .5-.3.8-.8.5-.4-.2-1.6.2-2.6.9-1.8 1.3-1.8 1.7-.1 8.7.9 4 1.8 7.9 2.1 8.6.2.7 0 1.1-.5.8s-1.2-1.8-1.5-3.3c-1.8-7.7-3.2-11.3-4.4-11.3-.7 0-3.3 1.3-5.7 3-2.4 1.6-4.8 3-5.3 3s-2.5 1.4-4.6 3.2l-3.7 3.1 2.8 3.1c1.6 1.7 3.5 4 4.3 5.2.8 1.1.1.5-1.7-1.4-4.4-4.7-6.8-3.9-5.9 2.1.3 2.3.8 10.5 1 18.2s.3 12.4.1 10.5c-.9-7.3-3-32.6-2.8-33.8.2-2.1-1.1-1.4-5.2 2.9-2.2 2.3-6.2 5.9-9 8.1-2.7 2.2-7.8 6.6-11.2 9.8s-8.6 7.6-11.5 9.8-6.9 5.7-8.8 7.8l-3.5 3.7 2.8 2.1c3.3 2.5 48.2 25.6 49.7 25.6.9 0 .6-20-.5-28.3-.2-1.5.1-2.7.6-2.7s.9 2.4 1 5.2c.1 8.7 1.6 28.1 2.4 30.8.7 2.4.7 2.4-.8.5-.8-1.1-1.7-1.8-2-1.5-.2.3-4.5 6.1-9.6 13-13.9 18.9-21.4 28.1-23.3 28.9-1.2.4 4.1-6.9 10.7-14.7 6.7-7.9 20.5-26.8 20.5-28 0-1.4-3.7-3.6-27.5-15.7-11.5-5.9-21.4-11.1-21.9-11.6-.6-.5-1.7-.9-2.5-.9-1.2 0-1.3 1.9-.8 12.2.4 6.8.9 13.2 1.1 14.3s.7 7.4 1.1 14c.8 12.7.1 15.9-.9 4-.3-3.9-1.1-13.3-1.8-21s-1.3-15.9-1.3-18.3c0-2.3-.3-4.2-.6-4.2-.4 0-4 3.7-8 8.2-9.1 10.1-31.2 34.1-42.8 46.4-17.4 18.3-18.4 19.5-15.9 19 3.7-.9 17.8-2.6 20.1-2.5 3.1 0-11.2 3.8-14.7 3.9-4.3 0-2.7.9 5.6 3 8.8 2.2 4.5 2.6-5.2.5-9.2-2-9.6-2-7.6 1 .9 1.3 1.6 3 1.6 3.7s-1.1-.4-2.5-2.5c-1.4-2-3.1-3.7-3.7-3.7-1.4 0-15.6 9.7-18.7 12.8l-2.5 2.5 2.4-.6c15.7-4 24.4-4.2 29.1-.8l2.6 1.9-.5-2.4c-.6-3.2 1.3-3 3.8.4 1.1 1.5 4.5 4.7 7.4 7 4.9 4 12 14.2 9.8 14.2-.6 0-1.2-.7-1.6-1.5-.5-1.3-.9-1.3-2.6-.3-1.1.7-1.8 2-1.6 2.8 1.4 5.1 1.5 7 .6 7-.5 0-1-.6-1-1.4 0-2-15.4-14.1-21.8-17.1-2.9-1.4-6.5-2.5-8-2.6s-3.8-.5-5.2-.9c-2.3-.7-2.2-.8 1-.9 1.9 0 5.4.4 7.8.8 6.2 1.2 4.9-1-1.9-3.1-7.6-2.4-11-2.3-11.6.3-.5 1.6-1.1 1.9-3.1 1.4-1.6-.4-3.1 0-4.3 1.1-1.7 1.5-1.8 1.5-1.6-.4 0-1.2.6-1.8 1.4-1.5.9.4 1.1 0 .7-1.1-.9-2.3-3.2-2-7 .9-1.8 1.4-3.6 2.5-3.9 2.5-1.3 0-5.4 3.7-4.8 4.3.3.4.1 1.3-.5 2-.7.8-.9 1.7-.5 2 .3.4 0 .7-.8.7-1.2 0-1.1.2.1 1.1 1.1.8 1.2 1.2.3 1.6-.7.2-1.3 1-1.3 1.7 0 .8-.9 2.5-2 3.9-1.8 2.3-2.4 2.4-5.5 1.6-2.3-.7-4.1-.6-5.4 0-1 .6-2.1.7-2.5.4-1-1-.7-4.3.4-4.3.6 0 1 .4 1 1 0 .5.6 1 1.4 1s1.5-1.4 1.8-3.5c.2-1.9.2-3.5-.2-3.5-1.4.1-5.5 3-5.6 3.9-.1.6-.2 1.8-.3 2.6 0 .8-.5 1.5-1 1.5s-.8-.8-.7-1.8c.1-1.4-.6-1.6-4.4-1.4-3.5.3-36.1 6.5-51.7 9.9-2.9.7-2.9 1.4.3 4.7 1.5 1.4 2.2 2.6 1.7 2.6s-1.8-.9-2.9-2.1c-3.8-4.2-5.1-4.3-11.7-.6-3.4 1.9-11.1 6.1-17.2 9.2-16.6 8.6-28.5 15.6-28 16.5.2.4 3.3 1.3 6.7 2 3.5.7 11.7 2.5 18.3 4.1 6.6 1.5 16.7 3.5 22.4 4.4 5.7.8 10.7 1.7 11.1 2 1.3.8 43.2 9.6 43.6 9.2.3-.3-8.1-9.3-18.7-20.1-10.5-10.8-18.9-19.9-18.7-20.2.3-.3 9.5 8.8 20.4 20 11 11.3 20.1 20.1 20.2 19.6.2-.6.8-1 1.3-1 .4 0 .6.6.3 1.4s.1 1.4.8 1.3c.7 0 4.2.1 7.8.3l6.5.3-4.5.8c-10.8 1.9-14.3 2.2-13.7 1.2.9-1.5.8-1.5-21.3-5.8-10.7-2.1-20.5-4.2-21.7-4.8-2.1-.9-3.9-.7-9.2.9q-2.4.75-1.8-.3c.4-.6.1-1.5-.6-2.1-.6-.5-12.2-3.3-25.7-6.2-13.5-2.8-25.5-5.4-26.7-5.6-1.8-.5-2.5.1-3.6 2.8-.8 1.8-1.7 5.1-2.2 7.3-.4 2.2-.9 3.5-1.1 3-.2-.6.2-3.4.9-6.3.8-2.8 1.1-5.2.7-5.2-1.9 0-16.3 7.9-29 16-4.7 3-14.9 7.8-15.4 7.3-.3-.4 2.4-2.2 6.1-4.1 3.8-1.9 9.7-5.3 13.3-7.6s9.2-5.7 12.5-7.6c3.3-1.8 6.2-3.6 6.5-3.9s1.3-1.1 2.3-1.6c2.4-1.3 2.4-2.7 0-4-1-.6-3.1-1.9-4.7-2.9-2.1-1.4-3.1-1.6-3.4-.8-.5 1.6-3.4 1.5-3-.1.3-1.7-1.2-5.7-2.1-5.7-.4 0-2.3-1.5-4.2-3.3s-5-4.5-7-6l-3.7-2.8-.5 2.8c-.3 1.5-2.4 8.9-4.7 16.3-5.3 17.2-9 30.2-9 31.7 0 .6 2.1 1.9 4.8 2.7 4.7 1.5 4.7 1.5.7 1-2.2-.4-5.2-.8-6.7-1.1-1.5-.2-7 1-12.3 2.6-13 4.2-15.4 3.8-3-.5 5.5-1.9 10.7-3.7 11.5-4 1.1-.4.5-1.2-2-3.2-1.9-1.5-5.4-4.4-7.7-6.6-2.4-2.1-4.8-3.6-5.5-3.3-.7.2-2.6 4.1-4.2 8.6-1.5 4.5-3.2 8.4-3.7 8.7-1.3.7-1.2.6 2-8.4 1.7-4.5 2.6-8.2 2.1-8.2-1 0-13.2 13.6-14.8 16.5-.6 1.1-1.2 1.5-1.2.9 0-2.6 8.1-12.9 14.1-17.8l3.4-2.8-4 .6c-2.2.4-6.8 1.4-10.2 2.4l-6.3 1.7-.2 10.5c-.1 5.8-.1 12.7 0 15.5.2 4.7.1 4.9-1.4 3-.8-1.1-1.3-2.8-1.1-3.7.3-.9 0-1.9-.7-2.1-.8-.3-.7-.9.3-2.1 1.4-1.6 1.6-9.6.7-17.6-.2-1.4-.4-3-.5-3.7-.2-2.5-2.9 0-3.5 3.3-.4 1.8-.6 3.5-.5 3.6.1.2-.3 1.3-1 2.6-.6 1.2-1.2 4.2-1.3 6.7 0 3.7-.4 4.5-1.9 4.5-2.3 0-2.4-1.2-.5-4.8.8-1.5 1.7-5 2.1-7.7.4-2.8.9-5.8 1.2-6.8.4-1.5.1-1.8-1.5-1.2-1.9.5-2 .3-1.6-2.7.3-1.8.1-3.9-.4-4.6-1.3-1.9-4.2-.3-4.2 2.3 0 1.3-.9 4.4-2 6.9-1.1 2.6-1.9 4.7-1.8 4.9.1.1-.4 1.8-.9 3.7-.6 1.9-1.4 5-1.7 6.7-.5 3-.3 3.3 2.2 3.4l2.7.2-2.7.4c-3.2.5-3.5 2.2-1.3 6.1 1.6 3.1 6.8 22.2 6.2 22.9-.3.2-1.2-2.2-2.2-5.4-.9-3.2-2.3-7.2-3.1-8.8-1.2-2.7-1.3-2.7-.9-.5.2 1.4.7 6.1 1 10.5s.8 9.8 1.1 12c.4 3.5.3 3.7-.7 1.7-.8-1.3-2.1-2.2-3.6-2.2-1.4 0-2.1.4-1.8 1 1.1 1.9-.6 3.1-2.1 1.5-1.7-1.6-.7-1.9-13.6 4.3-3.8 1.8-6.8 3.4-6.8 3.7 0 .2 3.3 1.4 7.3 2.6 10 2.9 10 2.9 9.6 3.4-.3.2-3.2-.2-6.4-1-3.3-.8-7-1.4-8.2-1.5-2 0-19.5-11.1-23.9-15.1-2.6-2.5-3.8-2.4-3.1.1.3 1.1.1 1.8-.4 1.4-.5-.3-.9-1.6-.9-3 0-1.5-.6-2.4-1.5-2.4-.8 0-1.5-.5-1.5-1 0-.6.6-1 1.3-1 1.4 0 11.7-21 12.2-25 .3-2.6 5.2-13 6.1-13 .7 0-.4 3.7-2.1 7.2-.8 1.6-1 2.8-.6 2.8 1.4 0 4.4-7.8 3.7-9.5-.7-1.8 2.1-8.5 3.5-8.5.5 0 .9-.6.9-1.3 0-.6 2.6-7.3 5.6-14.7 3.1-7.4 6.1-14.9 6.8-16.6.6-1.8 1.7-3.8 2.3-4.5 1.3-1.7 2.3-7.3 2.8-15.4.3-5 .2-5.3-.4-2-.7 3.4-.9 2.7-1.1-4.5-.3-10.3-.6-14-1.3-16.6-.3-1-.2-3.7.3-5.9l.8-4 .1 4.3c0 2.4 1 6.5 2.2 9.2l2.1 4.8 5.4-.3c3-.1 5.7-.5 6-.8s-.2-1.9-1-3.6c-1.8-3.3-2.2-5.7-.5-2.8.6.9 1.4 1.5 1.8 1.3.5-.3 1.3.6 1.9 1.9 1 2.2 1.5 2.3 3.7 1.5 1.5-.6 4-1 5.6-1s2.9-.3 2.9-.6-1.8-4.4-4-9.1c-2.3-4.7-3.9-8.7-3.8-8.9.2-.1 2.4 3.2 4.9 7.4s5 7.7 5.5 7.9 1.6-1.4 2.5-3.5l1.6-3.7-.5 5.1-.4 5.2 6 .7c3.3.4 7.1 1.3 8.5 2 2.3 1.2 2.1.4-2.8-8.9-6-11.5-9.9-16.1-14.7-17.1-1.8-.4-5.3-1.4-7.6-2.2-2.4-.8-4.6-1.2-4.9-.9s-.1 1.9.5 3.5c1.6 4.7.6 3.7-1.8-1.5-2.2-5.1-2.5-7.1-1-7.6.5-.2 2.3-4.4 3.9-9.3 1.6-5 3-8.1 3-6.9.1 2.9-4 15.8-5.3 16.6-.7.5-.7 1-.1 1.7 1 .9 13 5.1 14.7 5.1 1.3 0 1-3.4-.7-7.3-.8-2-1.8-5.3-2.1-7.3s-1.4-5.6-2.5-8.1c-1-2.4-1.9-5.2-1.9-6.1 0-1.5-.2-1.5-1-.2-.8 1.2-1 1.2-1.5-.2-.4-.9-.2-2.5.3-3.5 1.6-3.1 2.2-9.5 1.4-15.3-.8-4.9-1-5.2-1.6-2.8-.5 1.6-1.2 2.6-1.6 2.3-.4-.2-.7.6-.7 2 0 1.3-.8 3.1-1.7 4S283 262 283 263c0 2.5-2.1 7-3.2 7-.5 0-.4-.9.2-2 .6-1 1.2-3.2 1.4-4.7.8-5.2 2.4-9.2 8.1-20.3.7-1.4 1-3.1.8-3.8-.3-.6 0-1.2.6-1.2s1.1-.6 1.1-1.3c0-.6.9-3 2-5.2l2-4-.5 3.7c-.7 4.6.6 4.9 5.6 1.5l3.4-2.3.7-19.8c.4-11 .3-20.6-.1-21.4-.7-1.2-2 .1-5.6 5.6-2.6 4-5 7.2-5.2 7.2-.5 0 3.5-6.8 5.3-9 .7-.8 2.4-4 3.8-7.1 2.5-5.3 2.6-6 2.2-19.5-.2-7.6-.5-16.1-.5-18.7-.1-3.4-.4-4.6-1.3-4.1-.8.5-.9.2-.4-1.2.5-1 .8-2.6.8-3.4.1-1.9 4.8-7.1 6-6.4.5.3 2.8-.6 5.3-2 6.3-3.7 6.8-3.2 1 .9-11 7.6-10 5.3-9.7 22.7.3 18.9.8 24.4 1.8 23.8.5-.3.8-.9.6-1.4s.6-1.8 1.6-3c2.6-2.9 8.1-12.3 13.5-23.2 2.5-5 5.8-10.5 7.2-12.2 1.5-1.8 2.3-3.2 1.9-3.2s1.2-1.3 3.5-2.8c2.2-1.5 9.7-7.9 16.5-14.2s14.3-13 16.7-14.9l4.4-3.3-4.5 4.3c-2.5 2.4-7.2 6.8-10.5 9.8-13.3 12-20.5 19.2-20.1 20 .3.5 1.9 1.1 3.6 1.4 3.3.7 20.2 7.8 19.7 8.4-.4.3-4.8-1.1-17.1-5.6-10.4-3.7-10.6-3.6-18.6 11.4-5.7 10.6-7.1 13-11.9 21-2.3 3.7-3.9 7-3.6 7.4.4.3 1.8-.2 3.3-1.1 1.5-1 9.4-5.1 17.6-9.3 8.3-4.2 15.5-7.9 16-8.4.6-.5 2.2-1.2 3.7-1.7 4.6-1.6 17.9-9.9 17.9-11.2 0-.6.7-1.2 1.5-1.2 2.5 0 3.4-3.6 5.5-22.3 2.4-21.2 2.5-26.7.7-26.7-.8 0-6.7 3.2-13.3 7.1-13.2 7.8-19.4 11.2-19.4 10.4 0-.2 1.9-1.4 4.3-2.6 4.2-2.2 22.9-13.6 27.8-16.9 1.4-1 6.6-3.2 11.5-5 4.9-1.7 10.3-3.7 11.9-4.4 1.7-.8 12.2-4.6 23.5-8.5s23.2-8.2 26.5-9.6c5.5-2.2 8.5-3.1 7.4-2.1M951.1 112c8.6 3.2 16.3 7.3 15.4 8.2-.3.3 2.7 3.4 6.7 6.9s8.4 7.5 9.8 9c1.4 1.4 6.1 5.8 10.5 9.6l8 7 11 1.3c6 .8 10.4 1.5 9.7 1.8-.7.2-5.1-.1-9.8-.8-4.8-.6-8.8-.9-9.1-.6-.2.2.3 1.9 1.2 3.8l1.7 3.3-3-3.1-3-3-16.6 5.4c-9.1 3-16.6 5.8-16.6 6.2 0 .5 3.5 2.2 7.8 4 4.2 1.7 13.4 6 20.4 9.6 12 6.1 28.8 13.7 28.8 13 0-.6-11.8-20.8-13.2-22.4-2.2-2.7-5-8.3-4.5-8.8.9-.9 6.5 7.2 11.4 16.6 6.5 12.3 8.8 16.1 9.5 15.4.4-.3.9 1 1.3 2.8s4.2 8.5 8.4 15c4.2 6.4 10.7 16.4 14.5 22.3 3.7 5.8 7 10.4 7.3 10.1.2-.2-.2-1.7-1-3.3-1.4-2.8-3.3-8.8-12.2-38.3-2.6-8.5-5.6-17.5-6.6-20-1.1-2.5-3.4-8.7-5.1-13.8s-3.3-9-3.7-8.7c-.3.4-.9 7.9-1.2 16.8l-.6 16.2v-18l.1-17.9-2.4-.7c-1.6-.5-1.9-.7-.7-.8 4.3-.2 1.6-3.3-22-24.2-4.3-3.9-6.7-6.8-4.2-5.4 1.4.9 5.2 4.3 18.4 16.5 8.9 8.3 18.7 17.9 15.8 15.5-2.2-1.7-3.3-.9-1.4 1.1.5.5 2.1 4.7 3.6 9.4 1.6 4.7 3.6 10.1 4.6 12s2.3 5.7 3 8.5c.7 2.7 2.2 8.1 3.5 12 1.2 3.8 3.7 12.1 5.4 18.4 1.8 6.3 3.6 12.1 4 13 .5.9 2.1 5.4 3.6 10.1 3.1 9.5 4.9 12.1 8.8 12.3 1.4.1 2.7.4 2.7.7.1.3.3 1.8.4 3.5.3 2.7.2 2.8-.7.9s-2.1-2.8-7-5.2c-.4-.2-.5 7.7-.1 17.5.3 9.8.3 17.5-.1 17.1-.4-.3-1-7.8-1.2-16.5-.5-17.9-.7-19.1-3.7-20.3l-2.2-.9h2.3l2.2-.1-2.6-4.3c-2.9-4.5-14.8-22.8-24.1-37-3.1-4.9-5.9-8.4-6.1-7.9-.2.6.3 2.1 1.2 3.4.8 1.3 2.6 7.7 4 14.3 6.4 29.8 7.4 32.9 13.9 46.5 2.5 5.3 4.9 10.9 5.3 12.5.4 1.7 1.6 4.3 2.6 6 1 1.6 1.8 3.4 1.8 4 0 .5-1-.6-2.2-2.5s-2.3-3.7-2.5-4c-.2-.2-.9.2-1.4 1-.9 1.2-1 1.1-.5-.4.4-1 .3-2.4-.2-3-.4-.6-1.4-2.9-2.1-5.1-2.4-7.5-7.6-19.5-8.5-19.5-.4 0-.5.7-.2 1.6s.1 4.5-.4 8.1c-1.3 8.2-.5 10.1 6.9 16.7 7.2 6.4 10.7 11 8.8 11.4-.8.2-1.9 1.3-2.5 2.5-.7 1.2-2.1 3.4-3.3 4.8l-2.1 2.7 3.8 3.6c4.4 4 5.4 4.3 5.5 1.8.1-1.6.2-1.6.6.1.2.9.8 1.5 1.3 1.2 1.7-1.1-1 6.4-5.3 14.7-4.5 8.5-4.5 8.7-2.4 9.4 6.2 2.1 7.3 1.1 7.6-7 .2-7.5 1.1-8.8 1.1-1.7 0 5 .1 5.2 2.3 4.5l2.2-.6-2.1 2.3c-3.2 3.5-5.8 9.1-4.6 9.8.6.3 1.2 1.7 1.4 3.1.3 2.1.9 1.4 3.9-4.5 2-3.9 3.9-9 4.3-11.5s.9-5.6 1.2-7c.2-1.4.8-6.1 1.1-10.5l.7-8 1.3 5c1.3 5 1.3 5 .8-3.5-1.4-23-1.6-33.7-.8-35.8.6-1.7.9 1.2.9 9-.1 6.2.3 16.9.8 23.8.8 12.2.8 12.7-2 21-2.6 7.9-2.8 9.6-2.9 24.5v16l4.3 8.8c2.3 4.8 4.2 9 4.2 9.3s1.6 3.9 3.5 8 3.5 7.7 3.5 8 2 3.8 4.4 7.7c2.4 4 4.7 8.3 5.1 9.7s1.6 4.3 2.7 6.5 1.6 3.5 1 3c-.6-.6-2.4-3.7-4.1-7-4.3-8.5-3.8-6.2 1.5 6.8 5.1 12.5 7 16 8.4 15.2.6-.3-.4-3.3-2.1-6.7-1.7-3.3-2.8-6.2-2.6-6.5.6-.6 6.7 11.6 6.7 13.4 0 .7-.7 1.3-1.5 1.3-1.3 0-9.9 4.9-22.5 13-2.8 1.8-7 3.3-11 3.9-14.3 2.4-14.9 2.6-12.3 4.8 1.7 1.4 1.7 1.4-.1.9-2.2-.8-2.2-.6 3 12.1 2.1 5.1 4.1 9.3 4.5 9.3.3 0 0-3.3-.9-7.3-1.5-7.3-.7-12.7 1.8-12.7.6 0 .4 1-.4 2.3-1.6 2.4-1.5 3.1 2.2 17.6 2.3 9.4 2.5 6.1.3-4.4-1.1-5-1.6-9.4-1.2-9.8.5-.5 1.2 1.3 1.5 4 1.2 8.5 4.6 17 7 17.8 1.7.6 1.8.8.4 1.2-1.3.3-1.5 1.2-1.1 3.7.8 5.2-1.3 5.1-3-.2-.9-2.6-1.6-3.9-1.6-2.9-.1 1-3 4.5-6.7 7.9-7.3 6.9-9.8 10.4-6.7 9.4 1.3-.4 2.7.2 4.3 1.9 2.7 2.9 2.4 3-2.8 1-2.2-.9-4.3-1.5-4.8-1.4-1.6.3-9.9-.3-8.9-.6.6-.2 2.2-.6 3.8-.9 1.5-.4 2.7-1.2 2.7-1.9 0-.6-1.8-4.1-4-7.7s-3-5.2-1.8-3.6c1.3 1.6 3.3 4.1 4.5 5.5l2.2 2.6-2-6c-1.1-3.3-2.9-9.4-4.1-13.5l-2.2-7.5-.9 4c-.4 2.2-.6 5.7-.4 7.8l.5 3.8-2.7-1.8c-12.4-8.3-17.1-11.7-16.7-12.1.3-.2 3.8 1.9 7.9 4.7 4 2.8 7.5 5.1 7.8 5.1.2 0 .5-1.9.5-4.2.1-2.3.7-4.4 1.3-4.6 1.6-.5 1.3-7.6-.5-12.2-.9-2.3-1.4-4.3-1.1-4.6.2-.3.7.7 1.1 2.1 1.2 4.8 2.3 2.4 4.6-10.3 3.6-20 5.7-34.3 4.8-33.4-.4.4-2.1 4.3-3.6 8.7-1.6 4.4-4.6 11.6-6.7 16-3.2 6.9-3.5 8.4-2.7 11.2 1 3.4 0 4.5-1.6 1.7-.7-1.3-1-1.3-2.1-.1-2 2.5-11.1 17.8-11.1 18.8 0 .5-.6.9-1.3.9s-2.8 2.5-4.6 5.5-4.3 6.5-5.4 7.8c-11.3 12.8-12.7 14.6-11.6 15.3.8.5.7.9-.5 1.6-.9.5-2 .7-2.5.3-.5-.3-4.2 1.7-8.3 4.3-8.3 5.5-11.8 7.5-12.3 7-.2-.2 3.9-3 9-6.1 10.4-6.4 11.2-7.2 9.6-9.1-.9-1.1-.6-1.2 1.3-.9 2 .4 3.4-.7 8-6.3 3.1-3.7 5.6-7.4 5.6-8.1s1.1-2 2.5-2.9c1.3-.9 4.1-4.1 6.2-7.1 12.3-18 15.9-24 15.5-26.1-.2-.6.2-1.2.7-1.2 1.4 0 4-5.3 9.5-19.5 2.6-6.6 5.6-14.2 6.7-16.8 1.1-2.7 1.8-5.4 1.6-6.1-.5-1.2-7.1-3.6-10-3.6-.9 0-1.8 1.2-2.2 3-1 4.5-2.8 4.9-1.9.4.6-3.3.5-3.6-1.1-3.1-.9.4-2.8 1-4.1 1.3s-2.6 1.6-3 2.7c-.7 2.1-.7 2.1-1.4.2-.5-1.4-2.4-2.4-6.6-3.3-8-1.8-33.7-9.4-34.8-10.3s6 .6 14.3 3.1c6.9 2.2 8.5 2.4 7.7 1.2-.3-.5-.7-2.1-1-3.7s-1.3-3.3-2.2-3.8c-1.3-.7-1.4-1.1-.3-1.7 1-.7.9-1.7-.6-4.9-1-2.3-2.1-4.1-2.5-4.1-.8 0-12 7.9-12 8.5 0 .2 1 .1 2.3-.2 1.8-.4 1.9-.3.7.6-.8.6-2.2.9-3 .6-2-.6-4.5 1.4-5.4 4.2-.6 1.8-1.2 2.1-3.5 1.7-1.5-.3-8.1.6-14.7 2.1-19.9 4.3-20 4.5-16.9 10.5.9 1.7 1.2 3 .7 3-1.4 0-4.2-4-4.2-6 0-1.8-.7-2-7.7-2.2l-7.8-.2 7-.5 7-.6-.1-3c-.2-3.6-3.7-16.9-6.6-24.8-1.8-5-2.4-5.7-4.7-5.7s-16.2 2.8-42.6 8.5c-7 1.5-10.2 1.9-9.4 1.1.2-.2 9.4-2.3 20.4-4.6s22.6-4.9 25.7-5.8c6.7-1.8 7.1-1.2-6.2-8.9-4.7-2.7-14.3-8.3-21.5-12.5-7.1-4.1-14.2-7.8-15.7-8.2-1.7-.4-2.5-1.1-2.2-1.9.2-.7-.8-2.2-2.4-3.4-1.5-1.1-5.6-5.4-9.2-9.4l-6.4-7.4 8 7.7c4.3 4.2 9.3 8.9 11.1 10.3l3.2 2.6 6.3-1.6c3.5-.9 10.8-2.8 16.3-4.1 17.6-4.2 19.5-4.7 19.5-5.4 0-.6-12.3-5.6-27.3-11.1-3.2-1.1-5.6-2.3-5.4-2.5.2-.3 7.9 2.3 17 5.6 9.2 3.3 17.4 6 18.2 6 1.3 0 1.5-2.4 1.6-15.3.1-8.3.2-15.7.4-16.2.1-.6.4-3 .6-5.5s.6 4.8.9 16.2l.5 20.6 22.3-11c12.7-6.3 22.2-11.6 22.2-12.4 0-1.9-10.4-21.6-20.5-38.9-2.9-5-7.1-12.8-9.4-17.5-2.2-4.7-5.6-10.9-7.5-13.8l-3.4-5.3-.6 8.3c-.3 4.6-.9 15.7-1.1 24.8-.3 9-.8 16.6-1 16.9-.7.6-.4-22.2.4-39.2.5-11 .3-13.7-.7-13.5-.7.2-5 3.1-9.5 6.6-7.2 5.5-37.9 27.4-41.6 29.7-.9.5-1.2.4-.7-.3.6-1 12.8-9.9 21.1-15.3 2.2-1.5 5.8-4.3 8-6.2 3.3-3 3.7-3.8 2.5-4.7-1-.6-1.1-1-.2-1 2.2 0 2.7.2 2.5 1.1-.4 1.1 2.4 1.2 2.9.1.2-.4 2.1-2.1 4.3-3.7 2.2-1.7 5.5-4.3 7.3-6 3.3-2.9 3.3-2.9 1-3.8-1.3-.4-12.9-3-25.8-5.7s-26.8-5.6-30.9-6.5c-5.4-1.1-7.7-1.3-8.6-.5-1 .8-2 .8-3.7-.3-2.8-1.7-13-4.5-17.8-4.9-3-.3-3.5 0-3.8 2-.2 1.2-.8 2-1.3 1.6-.6-.3-1.7.2-2.4 1.2-1.2 1.6-1.4 1.7-1.5.3 0-.9.7-2.2 1.5-2.9 2.4-2 1.8-3.3-1.2-2.5-1.6.4-3.7.9-4.8 1-1.1.2-3.7.8-5.7 1.3-2.1.6-3.8.8-3.8.6 0-.9 9.6-4.4 12.1-4.4 4.9 0 4.2-.9-9.6-12-4.4-3.6-9.4-7.7-11.1-9.2-1.7-1.6-6.2-5.2-10-8-3.9-2.9-8.8-7.3-11-9.8l-3.9-4.4 3.3 2.3c1.9 1.3 6.1 4.8 9.5 7.7 6.3 5.5 8.2 6.2 8.2 2.8 0-1.9 4.8-7.4 6.4-7.4 1.4 0 4.4-5.2 3.5-5.9-.5-.3-1.1-2.6-1.2-5.1-.2-2.5-1-5.3-1.9-6.2-1.3-1.5-1.2-1.7.9-2.1 1.3-.2-2.4-.5-8.2-.7-18.1-.4-6.1-1.7 18.2-2 12.3-.1 28.1-.5 35.3-.9l13-.6-13-11.2c-7.2-6.1-14.3-12.3-16-13.8-7.3-6.5 6.7 4 18.5 14 6.9 5.8 13.2 10.5 14 10.5 1.6 0 36.5-13 39.7-14.8 1.6-1 1.5-1.1-.7-1.6-3.2-.8-47.6-8.3-59.9-10.2-5.2-.8-9.7-1.7-10-1.9-.9-.9 4.7-.2 23.9 3 1.4.2 11.9 2 23.4 4 11.5 1.9 21.8 3.5 23 3.5 1.7 0 1.3-.7-2.4-4.5-6-6.2-4-5.7 2.7.6 6.1 5.8 4.3 5.7 21.3.8 18.5-5.4 18.4-5.3 8.3-8.9-3.5-1.3-6.3-2.4-6.3-2.6 0-.7.7-.5 9.1 2.6M647.5 279.7c.4 2.1.6 7.2.6 11.3-.1 10.5.8 15.8 2.7 16.2 1 .2 3.5-1.9 6.4-5.4 2.6-3.1 5.3-6 6-6.4 1.3-.8 0 1-6.9 9.7-5.6 7-4.3 7.1 8.1.5 3.7-2 7.4-3.6 8.2-3.6.9 0 5-1.6 9.2-3.5 4.1-2 8-3.4 8.5-3.2.6.2-4.6 2.6-11.4 5.5s-14.2 6.3-16.4 7.7c-2.2 1.3-5.5 3.2-7.3 4-2.1 1-3.2 2.1-2.8 3 .3 1-.3 1.3-2.2 1.3-1.7 0-7.7 3-16.2 8.2-16.6 10.2-23.2 14-24.5 14-.5 0 1.3-1.3 4-2.9 14.5-8.2 32.8-19.7 32.7-20.6 0-.6-2-1.6-4.4-2.2l-4.3-1.3 5 .4 5 .4-.7-12.6c-.4-7-.9-15.3-1.2-18.5-.6-6.3.8-7.8 1.9-2M574 335c0 .5.7 1 1.5 1s2.7 2.1 4.2 4.7c1.5 2.7 3.1 5.1 3.6 5.4.5.4.7 1.1.4 1.6-.4.6 0 1.9.8 2.9s1.5 3.1 1.5 4.6c0 2.4.4 2.8 2.9 2.8 1.6 0 3.7.3 4.6.6 1.1.5 1.8 0 2.2-1.5.3-1.1 1-1.8 1.5-1.5.6.4 1.4.1 1.8-.6 2-3.3-.3 9.6-2.6 14-.7 1.4-1.5 3.4-1.8 4.4-.4 1-.9 1.7-1.2 1.4-.2-.3.6-4 2-8.2 1.3-4.2 2.2-7.6 1.9-7.6-.2 0-2.3.5-4.7 1.1l-4.3 1.1.8 4.6c.4 3.1.2 5.8-.6 7.8-1.3 3.3-.5 6.2 1.4 5 .6-.4 1.1-.1 1.1.7 0 .7 1 1.9 2.3 2.4 1.9.9 2.8.7 4.8-.8 3.1-2.4 3.8-2.4 3.2.1-.9 3.5-2.7 4.1-7.3 2.5-4.9-1.7-5.3-1.8-4.6-.7.3.5-.9 2.2-2.6 3.8s-2.8 2.3-2.4 1.6c.4-.6.3-1.2-.1-1.2-.5 0-1.5.6-2.2 1.2-1.1 1.1-1.1.9 0-.9.7-1.2 2.4-2.3 3.8-2.5 3.8-.5 3.3-3.2-1.2-6.1-6.1-4-6.7-3.7-6.9 3.5l-.1 6.3-.7-7.5c-.9-9.4-2.4-12.7-7.2-15.1-4.6-2.3-4.8-3.1-.8-2.3 2.9.6 4.4-1 1.8-1.8-.7-.3-1.3-2.9-1.4-6.4-.1-3.2-.7-8.8-1.4-12.3-.6-3.5-1-6.4-.8-6.5 1-.7 5.4-2.5 6.1-2.5.4-.1.7.3.7.9m-4.2 69.2c-2.8 4.2-7.3 8-11.5 9.9-4.9 2.1-5.6 3.4-1.4 2.4 2.9-.6 5.1.8 3 2-.6.4-1.4 1.7-1.9 2.9-.8 2-.9 1.9-.9-.6-.1-2.4-.3-2.5-2.3-1.6-1.6.8-2.3 2-2.3 4 0 2.8 1 3.4 5.8 3 .9-.1 1.7.3 1.7.8 0 .6-1.2 1.1-2.7 1.1-2.6.2-4.4.4-6.8.8-.6.1-.5.5.2.9.8.5.9 1.2.2 2.2-.7 1.3-1 1.3-1.8.1-.5-.7-1.4-1-2-.6-1.5.9-7.1 2.5-7.1 2 0-.2 1.6-1.2 3.6-2.1 3.7-1.8 3.9-2.9 1.9-7.8-.6-1.4-.5-1.8.6-1.4.8.2 1.5 1.5 1.7 2.7.5 3.1 2.6 2 3-1.5.2-2.2 0-2.5-.7-1.4-1.5 2.2-2.7.2-1.3-2 1.7-2.7 1.6-2.8-2-2-1.8.4-3.2 1.2-3 1.8.1.7-.2 1.2-.7 1.2-1.5 0-5.9 9.8-4.9 10.8.6.6-.1 1.2-1.9 1.7-1.5.3-3.5 1.2-4.3 2-.8.7-2.6 1.6-4 2s-7.8 2.8-14.3 5.3c-10.8 4.2-11.8 4.8-11.3 6.8.5 1.9.3 2.1-1.5 1.7-1.1-.3-2.3-1.3-2.7-2.1-.3-.8-1.7-2.7-3.2-4.1-1.4-1.4-1.6-1.8-.3-.7 2.8 2.3 5 1.5 5.6-2.1.3-2.4.4-2.3.6.8l.1 3.7 13.1-5.4c16.4-6.7 16.4-6.7 14.1-10.6-1.8-3.2-6.5-5.8-10.4-5.8-2.5-.1-5.8-2.2-5.8-3.7 0-.6.8-1.3 1.9-1.6 1.4-.3 1.7 0 1.4 1.4-.3 1.1 0 1.9.7 1.9 1.4 0 6.9-2.9 8.8-4.8.7-.6 1.8-1.2 2.3-1.2.6 0-.7 1.6-2.8 3.6-3.4 3.2-3.5 3.5-1.3 2.9 1.4-.4 4.7-1.9 7.3-3.2 5.3-2.6 7.3-2.6 3.2.1-2.9 1.9-3.3 3.6-.7 3.6 1.1 0 1.3.3.5.8-1.9 1.2-2.8 6.3-1.2 7.3 1.8 1.1 2.9 1.1 2.9-.1 0-.5 1.1-2.5 2.4-4.5 1.4-2 2.3-4.2 2-5-.3-.7-.1-1.6.5-1.9.6-.4.8-2 .4-3.6-.5-2.9-.4-3 2.5-2.4 3.4.7 12.1-1.1 16.5-3.3 1.5-.7 4.6-3.4 6.9-5.8 4.2-4.7 6.3-5.4 3.6-1.3m-308.1 70c1.7 2.1 2.5 8.8 1.3 10.3-.6.7-1 1.7-.9 2.1.1.5-.1 1.7-.6 2.7-1.1 2.6.4 3.5 2.1 1.3 2-2.9 1.8-1.6-1.6 6.7-1.6 4.2-3 8.4-3 9.4 0 1.6 10.8 13.8 11.6 13 .1-.1.4-6.9.5-15.1.1-8.1.5-17.4.9-20.5.5-3.6.8 1.7.8 15.4 0 13.9.4 21.1 1.1 21.3.6.2 1.1 1 1.1 1.7 0 .8.8 1.9 1.8 2.5 1.4.9 1.3 1-.7.4-1.5-.4-2.6-.1-3.2.7-.6 1-1 .9-1.5-.6-.4-1.1-3-4.5-5.8-7.6s-5.7-6.4-6.5-7.4c-.7-.9-2.2-1.5-3.2-1.2-1.1.3-1.9 0-1.8-.6.1-1.8 1.7-5.3 1.9-4.2.1.5.9-1.3 1.9-4 .9-2.8 1.3-5.3.9-5.6s-.1-3.2.8-6.5c2.7-9.8 2.7-13 .1-14.2-1.6-.8-1.8-1.1-.6-1.1.9-.1 2.1.5 2.6 1.1m771.9 29.9c-3.2 4.5-5.8 8.7-5.9 9.3-.1.7 1.7 1 4.8.9 3.9-.1 4.4 0 2 .6-2.3.5-.8.9 6 1.5 5 .4 9.9.4 10.9 0 1.3-.5 1.7-.4 1.2.4s.1 1.2 1.6 1.1c1.3 0 3.2.2 4.4.6 1.6.5 2.7-.1 4.7-2.5 3.4-3.9 3.5-2.8.3 1.5l-2.4 3.1 2.1 7.2c2.6 8.8 1.9 10.1-4.1 7.4-2.3-1-3.9-2.1-3.6-2.5.8-.7-2.6-11.7-3.6-11.7-.8 0-6 6.5-6 7.4 0 .4 1.8 1.3 4 2.2 5.6 2.2 4.2 3-1.7 1l-4.7-1.6-6.1 5.9c-3.3 3.3-7.2 7.1-8.7 8.4-1.6 1.3-2.8 2.9-2.8 3.4 0 .6-1.1.8-2.5.5l-2.6-.4 2.7-1.4c1.4-.8 5.6-4.3 9.3-7.9s7.6-7.1 8.6-7.9c1.6-1.1 1-1.8-6.9-7.5l-8.7-6.3-2.6 2.3-2.6 2.4 1.8-2.8c.9-1.5 1.4-2.7 1.1-2.7-.4 0-.2-.8.3-1.8.7-1.3.6-2.3-.1-3-.9-.9-.9-1.2 0-1.2.7 0 1.2.4 1.2 1 0 2.3 1.8.5 7.4-7.5 3.3-4.7 6.2-8.3 6.4-8 .2.2-2.1 4.1-5.2 8.6M1203 674.4c0 1.3 2.7 3.1 4.2 2.8.7-.2 3.8 7.2 3.8 9.3 0 3.7 1.8.9 4-6 1.8-5.7 2.8-7.5 4.2-7.5 2.2 0 2.3-.6-.8 7.1-4 10.3-5.5 16.6-4.3 19.6.5 1.4 1.2 2.3 1.5 2s.1-1.5-.6-2.6c-.6-1.2-.7-2.1-.2-2.1 1.1 0 2.3 4 1.6 5.1-.8 1.3-3.2-.1-3.7-2.2-.3-1-1.4-1.9-2.5-1.9-1.5 0-2.5-1.5-4.2-6.3-1.2-3.4-3.3-9-4.6-12.5-2.2-6-2.3-6.2-.4-6.2 1.1 0 2 .6 2 1.4m22.3 4.4c-.4 1.6.1 1.9 3.9 1.8 3-.1 5 .5 6.2 1.6 1 1 2.3 1.8 3 1.8.8 0 1.9.7 2.6 1.5 1.1 1.3 1.6 1.1 4-1.5 3.9-4.1 7.1-4.7 12.2-2 5.3 2.7 8.8 5.9 8.8 7.9 0 1.4-.1 1.4-1 .1-.8-1.3-1-1.2-1.1.5s-.2 1.7-.6.2c-.6-2.4-2.3-2.1-2.3.4 0 1.1-1.3 3.4-3 5.1-3.6 3.6-3.7 3.8-.6 3.8 1.5 0 3.3-1.1 4.5-2.6s2.1-2.3 2.1-1.8c0 1.8-4.5 5.4-6.7 5.4-1.5 0-2.2.4-1.7 1.1 1.1 1.8-3.6-1-8.6-5-3.8-3.1-5-3.6-7.5-3-1.6.4-2.6.7-2.1.8.4 0-.2 1-1.5 2-3.4 2.7-1.5 3.9 2.6 1.6 4.3-2.3 5.7-1.2 2.5 1.8l-2.4 2.2 1.8-2.3c2.2-2.6 1.5-2.8-1.9-.6-1.6 1-3.4 1.4-5.1 1-1.8-.5-2.4-.3-1.8.5.9 1.5-.7.6-5.4-2.9-2.2-1.7-3.1-3-2.7-4.1.3-.8.3-1.2-.1-.9-.3.4-1.3 0-2.2-.8-1.2-1.3-1.3-2.2-.4-5.1.6-1.9.9-4 .8-4.6-.2-.7-.1-.9.1-.4.8 1.2 2.3-.3 2.3-2.3 0-1-.6-2.1-1.2-2.3-.7-.3-.3-.6.9-.6 1.6-.1 2 .4 1.6 1.7"/><path d="M564 78.7c-10.2 1.5-20.5 3.6-22.3 4.4-2.1.9-2.1.9-.1.6 1.1-.2 2.8.1 3.7.8 1.5 1.1 1.4 1.3-.8 2.5-1.4.7-2.5 1.9-2.5 2.7 0 .7-1.2 1.8-2.6 2.3-2.9 1.1-8.4 1-8.4-.2 0-.4-.9-.8-2-.8s-2-.5-2-1c0-.6.7-1 1.5-1 1.8 0 2-1.6.3-2.6-.7-.4-.8-.3-.4.4.9 1.5-1.6 1.6-3.1.1-.7-.7-3.3-.7-8.9 0-4.2.6-7.9 1.2-8 1.4-.1.1 2.4 1.6 5.7 3.4 3.8 1.9 5.8 2.6 5.5 1.7-.7-1.7.1-1.8 1.8-.1.7.7 1.1 1.7.9 2.3-.3 1 9.4 6.4 39 21.6 5 2.7 9.5 4.8 10 4.8 1.1 0 .8-16.1-.5-30.5-.6-6.1-1.1-11.6-1.1-12.3 0-1.2-.9-1.3-5.7-.5M571.4 81.7c.8 6 1.6 15.9 2.2 29.3.3 6.8.6 12.6.8 12.7.9 1 55.6-19.3 55.6-20.6 0-.7-16-8.1-17.4-8.1-.6 0-33-13.6-37-15.6-4.3-2.1-4.8-1.8-4.2 2.3M497.5 89.9c-1.1.5-4.4 1.2-7.4 1.6-9.5 1.3-37.1 7.1-37.8 8-.5.4-.2.5.5.1s1.2-.1 1.2.8c0 1.8-2.2 2.1-4.9.6-1.7-.8-23.7 1.3-24.9 2.4-.4.5 8 5.6 9.1 5.6.4 0 5.9 2.5 12.2 5.5 12.7 6 19.2 7.2 21.7 3.7.7-1 2.7-2.9 4.4-4.2 8.4-6.7 17.3-14.1 20.7-17.3 2.1-2 4.1-3.7 4.5-3.8.4-.2 1.6-1.1 2.6-2.1 2.1-1.9 1.4-2.2-1.9-.9M380.6 95.5c-.3.9-.6 4.4-.6 7.8s-.7 10.9-1.5 16.7c-1.6 12-1.9 21-.6 21 1.1 0 38.1-36.6 38.1-37.8 0-.7-17.7-5.3-29.7-7.8-1.1-.2-2.8-.6-3.6-1-.8-.3-1.7.2-2.1 1.1M621 109.2c-5.2 2.1-14.9 5.9-21.6 8.4-6.7 2.4-14.2 5.3-16.8 6.5-4.6 2-4.7 2.1-3 4 .9 1 2.2 1.9 2.7 1.9.6 0 1.8.6 2.6 1.4.9.8 4.8 3.1 8.6 5.1 7.3 3.9 21.9 11.7 27 14.4 1.7.9 4.2 2.2 5.7 2.8l2.6 1.2 1.1-6.2c1.5-9.1 4.1-33.1 4.1-38.8 0-6-.2-6.1-13-.7M362.5 154.9c-4.6 1.5-53.5 26.2-53.5 27 0 1.3 14.6 13.1 16.1 13.1 1.8 0 16.7-14.3 21.9-21.1 1.4-1.7 4-4.6 5.9-6.3 6.5-6 12.1-11.9 12.1-12.7 0-.5-.1-.9-.2-.8-.2.1-1.2.4-2.3.8M367 158.7c-2.3.8-9 7.5-10.6 10.5-.8 1.6-2 2.8-2.7 2.9-.6 0-4.8 4.1-9.2 9-8.3 9.3-12 13.1-14.9 15.2-1.6 1.2-1.3 1.8 3.6 6.7 3.9 3.9 4.5 4.8 2.3 3.5-1.6-1-3.9-2.6-5.1-3.6-1.1-1.1-2.5-1.9-3.1-1.9-1.2 0-6.3 6.3-6.3 7.8 0 .6-.4 1.2-.8 1.4-.5.1-2.6 3-4.7 6.3s-4.7 7-5.8 8.2c-1.1 1.3-1.8 2.5-1.6 2.7.3.3 6.7-1.3 14.4-3.4 19.7-5.5 24.5-7 24.5-7.8 0-.4-1.9-2.4-4.2-4.6l-4.3-3.8 5.2 3.5c4.7 3.3 5.2 3.4 6.6 1.9.8-.9 1.7-2.6 2-3.7s3.9-11.7 8-23.7c6.2-17.8 9.3-28.2 8.4-27.7-.1 0-.9.3-1.7.6M632.5 159.9c-.3.6-.4 1.4-.2 1.8.3.5.8 3 1.1 5.8.4 2.7.9 6.8 1.2 9 .5 4 2.8 16.7 4.4 24 .5 2.2 1.2 5.7 1.5 7.9.4 2.1 1 4.9 1.6 6.3l.9 2.4 5.4-4.3c3-2.4 7-5.6 9-7.1s3.6-3.5 3.6-4.3.4-1.3 1-.9c.9.6 18.3-14 25.4-21.4l3.9-4-2.7-1c-1.4-.6-8.8-2.7-16.4-4.6-32.2-8.4-35.8-9.4-37.3-10-1-.3-2-.2-2.4.4M606.5 186.1c.6 1.7-1.9 4.4-3.3 3.5-.5-.3-1.5.3-2.4 1.2-.8.9-3.1 3.2-5.2 5-2 1.8-3.4 3.8-3 4.4s.3.8-.4.4c-.6-.3-1.5.2-2.1 1.1-.8 1.3-1 1.4-1.1.4 0-1-1.3-.2-3.5 1.9-1.9 1.8-3.2 3.7-2.9 4.2.3.4-.3.8-1.3.9-4.4.1 3 1.7 17.2 3.7 23 3.3 23.7 3.4 28.5 3.7 2.5.2 6.1.6 8 1 3.4.5 3.4.5.8-.6-2.7-1-3.8-2.9-1.8-2.9.6 0 1 .4 1 1 0 .5.5 1 1.2 1 .6 0 0-1.2-1.4-2.8-1.4-1.5-3.1-3.8-3.8-5.2-1.9-3.7-15.1-20-16.2-20-.5 0-.6-.5-.2-1.2.5-.8-.3-.9-2.8-.5-2.1.3-4 .1-4.7-.6-.9-.9-1.1-.8-.6.4M308.1 190.7c.1 2.7-.2 11.5-.6 19.8l-.7 15 6.3-8.5c9.5-12.7 12.1-16.9 11.4-18.8-.6-1.8-13.8-12.2-15.5-12.2-.5 0-.9 2.1-.9 4.7M498.5 194.1c-1.6.4-24.1 4.4-49.8 8.8s-47.2 8.3-47.7 8.6c-1.8 1.1.3 3.4 9.3 10.1 5.1 3.8 11.2 8.8 13.7 11.3l4.5 4.4-5.5-3.9c-3-2.1-9.4-6.9-14.1-10.6-4.7-3.8-9.1-6.8-9.7-6.8s-.9 1.3-.7 3.2c.3 1.8.7 27.4.9 56.8.3 29.4.5 53.5.6 53.6.1.6 21.7-6.6 66.5-22 15.4-5.4 30.1-10.4 32.8-11.2 2.6-.8 4.7-1.9 4.7-2.4 0-.6-.4-1-.8-1s-1.9-.9-3.2-1.9c-1.4-1.1-8-6-14.7-11-6.7-4.9-12.4-9.5-12.8-10.2-1.3-2 2.5.5 14.3 9.5 6.2 4.7 11.7 8.6 12.1 8.6s1.6.9 2.6 2 2.2 2 2.7 2c.6 0 .8-7.4.6-18.3-.3-10-.6-31.8-.9-48.4-.2-18-.8-30.6-1.4-31.1s-2.3-.6-4-.1"/><path d="M506.4 195.5c.3.8 0 1.5-.6 1.7s-1.1 1.7-1.1 3.3c-.2 8.7 1.5 89.3 1.8 91.1.4 2 1.3 2.2 13.7 2.8 7.3.3 16.1.9 19.5 1.2 7.4.8 15.4-.2 15-1.9-.1-.6 1.4-1.4 3.3-1.7 2-.3 3.6-1.1 3.8-2 .1-.8-3-6.7-6.9-13-7.6-12.1-12.7-20.4-24.7-39.7-13.6-21.9-15.1-24.3-18.8-30.3-2-3.2-3.4-6.5-3.1-7.2.3-.9.7-.7 1.3.7.9 2.3 7.9 13.7 16.9 27.5 3.4 5.2 7.3 11.5 8.7 14 2.4 4.2 4.8 8.1 17.9 29.2 2.9 4.6 6.1 9.9 7.3 11.8 3.7 6.3 7.6 11.3 7.7 9.9 0-.8.4-.4.9.8.5 1.3 1.3 2.3 1.8 2.3s4.9-4.4 9.8-9.8c10-10.9 20.7-22.3 33.3-35.7 12-12.6 16.2-18 15.6-19.8-.4-1 .2-1.6 1.7-2 2.7-.7 8.5-6.4 7.5-7.4-.4-.3-5.3-1.2-11-1.9-5.6-.7-19.2-2.6-30.2-4.3-11-1.6-20.1-2.8-20.3-2.6s-.8 5.9-1.2 12.7c-.5 6.8-1.5 17.5-2.3 23.8s-2.1 18.4-2.8 26.7c-.7 8.4-1.7 15.3-2.2 15.3s-.7-1.5-.4-3.3c.4-1.7.9-7 1.2-11.7.4-4.7 1.3-15 2.1-23 1.8-18.1 3-35.7 2.6-39-.3-2.5-1.3-2.8-34.3-11.2-23.3-5.9-33.9-8.2-33.5-7.3M368 215.4l-16.5 2.1-.7 20c-.8 21.2-2.5 49.3-3.5 56-.6 3.5-.5 3.8.9 2.5 4.1-4.1 28.8-47.2 40.1-70 3.1-6.4 5.7-11.9 5.7-12.3 0-1.2-8.5-.6-26 1.7M393.9 221c-1.5 1.9-5.9 9.6-9.9 17-11.9 22.3-26.1 46.9-35 60.7-.8 1.2-1.2 2.4-1 2.6 1.7 1.3 19.3 11.4 28.5 16.2 6.1 3.2 13 7.2 15.3 8.8 2.8 1.9 4.7 2.6 5.3 2 1.1-1.1 1.1-89.5 0-102.8l-.6-8zM336.5 221.7c-4.4 1.4-10 2.9-12.5 3.4-8.5 1.7-14 4-14 5.7 0 1.9 16.6 18.2 18.5 18.2.6 0 1.8-1.5 2.7-3.3.8-1.8 4.1-7.2 7.2-12s5.6-9.1 5.6-9.7c0-.5.3-1 .8-1 .4 0 1.3-.9 2-2 1.7-2.7 0-2.6-10.3.7M346.6 223.5c-.3.9-4.2 7.2-8.6 14-8.1 12.7-8.7 14.2-7.1 17.3.5.9 3.5 8.8 6.6 17.4 5.6 15.4 8.1 19.2 8.2 12.5.1-1.7.6-9.3 1.2-16.7s1.2-20.6 1.4-29.3c.3-14.5-.2-19.1-1.7-15.2M306 233.4c0 .8-.6 2.1-1.4 2.9-.8.7-1.9 2.9-2.4 4.8-.6 1.9-2 6.1-3.2 9.4-3.6 9.9-4.9 14.5-4 15 .5.3 3.8-1.1 7.5-3 3.7-2 6.9-3.4 7.1-3.2.3.2-.9 1-2.6 1.7-1.6.7-3 1.6-3 2 0 .5-2.5 1.8-5.5 3.1-3 1.2-5.5 2.7-5.5 3.2s.7.7 1.5.3c.8-.3 1.5-.2 1.5.3 0 .7 31.3 20.1 32.4 20.1.2 0 3.6 1.8 7.5 4s7.3 4 7.6 4c.8 0-.4-5.9-1.6-8-.5-.8-2.7-7.1-5-14-8.7-26.3-8.6-26.2-15.8-22.1-5.4 3.1-10.1 5.3-10.1 4.6 0-.3 3.2-2.1 7-4 3.9-1.9 7-3.8 7-4.2 0-.7-17.8-18.3-18.5-18.3-.3 0-.5.6-.5 1.4M297.5 235.5c-4 1.7-5.3 6-5.4 17.2-.1 9.3 1.1 13 2.3 7.1.8-4.2 7.6-22.9 8.9-24.6 1.3-1.6-1.8-1.5-5.8.3M507 296.1c0 .2.7 4.2 1.5 8.9s2 12.7 2.7 17.7c.6 5.1 1.6 9.3 2 9.3 1.4 0 16.6-7.7 22.3-11.3 2.8-1.7 7.7-5.2 11-7.7 3.3-2.6 8.7-6.4 12-8.6l6-3.9-7-.7c-3.9-.4-11.3-1.2-16.5-1.7-11.1-1.3-34-2.6-34-2M485.5 302.7c-8.8 3-31.4 10.8-50.2 17.2-18.9 6.4-34.3 12-34.4 12.6 0 .5-.5 1.6-1.1 2.2-1.2 1.5-.3 4.7 1.1 3.9 1.6-1 2.8 1.9 2.8 7.1.1 4.2-.3 5.2-1.8 5.6-1.1.3-1.9 0-1.9-.6s-.3-.8-.6-.4c-.4.3-1 3.5-1.3 7.1-.6 5.8-.5 6.5 1.1 7 2.1.5 6.6-1.5 8-3.6.7-.9.8-.4.4 1.4-.4 1.7-.2 2.8.4 2.8s.8.5.5 1c-.4.6.4.5 1.9-.1 1.4-.7 2.3-1.6 1.9-2.2-.3-.5.1-1.3.8-1.8 1.8-1.1 3.2-1.1 2.5 0-.4.5.5.4 1.9-.2 1.3-.7 2-1.4 1.5-1.5-.6-.2-1-1.2-1-2.2s-.5-2-1.2-2.2c-.8-.3-.8-1.2.3-3.6 1.2-2.7 2-3.2 4.9-3.3 5.1-.2 8.4.2 9.2 1 1.1 1 8.9.1 8.2-1-.3-.5.1-.6.8-.4 3.5 1.4 13.8-6.2 31.6-23 14.9-14.1 30.1-27 30.8-26.2.3.3-3.5 4-8.4 8.4-4.9 4.3-13.4 11.8-18.9 16.8-5.6 4.9-12.9 11.5-16.4 14.5-7.4 6.4-6.6 7.1 4.7 3.9 4.4-1.2 10.6-2.5 13.9-2.9 3.4-.4 7-1.2 8.2-1.8 1.2-.7 3.1-1.2 4.2-1.2 1.2 0 2.1-.3 2.1-.8 0-.4 3.9-.8 8.6-.9 4.7-.2 9-.5 9.5-.9 1.3-.8 1.1-6.7-.7-16.4-2.1-11.7-3.4-19.4-3.4-20.3 0-1.6-5.2-.3-20.5 5M341.8 302.5c-.2.3-8.4.9-18.2 1.4s-18 1.2-18.3 1.4c-.9 1 10.6 20.7 16.4 28 1.1 1.5 2.8 2.7 3.7 2.7s1.6.6 1.6 1.2c.1.7 1.3-1 2.7-3.7 1.5-2.8 2.6-5.2 2.6-5.5-.1-.3.7-1.7 1.8-3 1.5-1.9 1.4-1.1-.7 3.5-3.9 8.6-4.2 12.9-1.2 14.8 1.2.9 4 1.9 6 2.2 4.1.8 11.9 3.4 10.3 3.5-.5 0-4.5-.7-8.8-1.5s-8.2-1.5-8.7-1.5c-.4 0-.1 1.9.7 4.2 1.1 3.3 1.2 5.1.4 7.8-.5 1.9-1.3 5.2-1.6 7.2s-1 3.8-1.5 4-1.1 2.5-1.4 5.1c-.3 2.7-.8 5.3-1.1 5.8-.4.5-.2.9.4.9.5 0 2.7-2.1 4.7-4.8 2.1-2.6 7.9-8.8 13.1-13.9 8.8-8.8 11.1-12.3 7.9-12.3-.8 0-1.7-.4-2-.9-.4-.5.4-.7 1.6-.3 2 .5 2.1.3 1.5-4.9-.3-3-.8-7-1.2-8.9-.3-2 .3-1 1.5 2.5 1.1 3.3 2 7 2 8.2 0 1.3.2 2.3.4 2.3 1 0 14.2-5.3 21-8.4 4.3-2 8-3.6 8.3-3.6.4 0 2.6-1.2 5.1-2.6l4.4-2.6-5.8-3.7c-3.3-2-8.1-4.8-10.9-6.1-4.9-2.3-19.6-10.7-26.4-14.9-1.8-1.2-3.5-2-3.7-1.8s.5 5.4 1.6 11.6 1.9 12.3 1.9 13.5c-.1 2.1-1.3-2.6-2.4-9.9-1.9-12-3.1-15.8-5.2-16.6-1.1-.4-2.3-.6-2.5-.4"/><path d="M380.9 340.3c-15 6.8-15.5 7.1-15.1 9.7.2 1.5-.1 3.1-.7 3.5q-1.2.75-.6-1.8c.8-3-.2-3.8-3.5-2.5l-2.5.9 2.5 2.1c1.4 1.1 3.6 3 5 4.2 3.3 2.9 5.5 4.2 4.7 2.8-1.2-1.9.3-4 2.4-3.5 1.6.5 1.8.8.7 1.4-1 .7-.9.9.3.9 1.8 0 3.3-4 3-8-.1-1.7.1-2.1.7-1.2.6 1 1.3.8 2.7-.8 2-2.2 7.4-2.7 9.3-.8.8.8 1.4.4 2.2-1.8.6-1.6 1.7-3.4 2.4-3.9 1-.8 3.2-9 2.3-8.4-.1.1-7.2 3.3-15.8 7.2M347.5 361.4c-7.3 7.4-12.2 13-15.4 17.6-1.4 1.9-3 3.9-3.8 4.3-.7.4-1.8 1.7-2.3 2.8-.9 1.6-.3 2.8 4.2 7.5 2.9 3.1 6.5 6.2 7.9 7l2.6 1.3 2.3-8.2c1.3-4.5 2.7-8.7 3.1-9.2.4-.6 1.8-5.5 3.2-11s3.2-11.9 4-14.3c.8-2.3 1.2-4.2.8-4.1-.3.1-3.3 2.9-6.6 6.3M264.9 373.2c0 .2-.2 1.2-.4 2.2-.2 1.1-1.3 3.2-2.4 4.7-1.2 1.6-2.1 3.1-2.1 3.5 0 .3-.9 1.9-2.1 3.5-1.1 1.6-2.2 3.8-2.4 5-.3 1.2-1.6 3.8-2.9 5.8-1.4 2-5.5 9.9-9.3 17.6-3.7 7.7-7.3 14.6-8 15.3-1.9 1.9-3.7 5.4-4 7.7-.3 1.9-.2 1.9 1.1.2.7-.9 1.8-1.7 2.4-1.7.7 0 3.6-1.6 6.7-3.5 5.5-3.5 6.9-4.3 22.4-12.7 4.6-2.5 8.8-5.2 9.2-6.1 1-1.7-.4-33.8-1.5-35.6-.4-.6-1.2-.8-1.8-.5-.6.4-.8.3-.5-.3.4-.5-.3-2-1.4-3.1-1.8-2-2.8-2.6-3-2M230 447.4c0 1 17.4 12.6 18.9 12.6 1.2 0 18-7.3 20-8.7 1.5-1-2.9-1.7-18.1-2.9-20-1.5-20.8-1.5-20.8-1M943.5 121.2c-7.7 2.2-14.8 4.3-15.7 4.6-1.4.6 1.9 4.5 16.1 19.2l17.9 18.5.7-4c1.1-7 1.3-7.1 1.4-1.3 0 3.1.4 5.9.9 6.1 1 .7 34.2-10.2 34.2-11.2 0-.4-1.9-2.5-4.2-4.7-2.4-2.1-7.7-7-11.8-10.9-15.3-14.2-22.8-20.5-24.3-20.4-.7.1-7.5 1.9-15.2 4.1M915.5 130.5c-3.3 1.3-12 4.8-19.4 7.6l-13.4 5.3 4.9 1.6c6.8 2.3 13.4 3.4 11.4 2-1.2-1-1-1.1 1-.6 1.4.3 3.4.6 4.5.6 1.7 0 1.7.2.5 1-1 .7-1.1 1-.2 1 1.6 0 2.8-3 1.5-3.9-.6-.3-1.3-1.3-1.6-2.1-.4-1.1-.6-1-.6.4-.1 1.5-.4 1.7-1.2.9-2.1-2.1-.3-3.9 4.2-4.1 2.7-.2 4.9-1 5.9-2.3 2.2-2.5 5.6-2.4 7 .1 1.7 3.3.3 6-3.1 6-1.6 0-2.9.4-2.9 1 0 .5-1.1 1-2.5 1s-2.5-.5-2.5-1.2c0-.6-.3-.9-.6-.5-1.1 1.1.7 4.7 2.4 4.8 1.5 0 1.5.1-.1.7q-1.8.75 9 3.6c6 1.5 13.8 3.7 17.5 4.7 7 2 10.7 2.4 7.3.8-1.7-.8-1.6-.9.8-.5 1.8.2 3.1-.2 3.4-1 .4-1 1-.9 2.6.6 3 2.9 4.5 2.4 1.7-.5-1.3-1.4-2.9-2.5-3.7-2.5-.7 0-1.2-.3-1.1-.8.5-1.3-3-5.4-4.1-4.8-.5.4-1.3.1-1.7-.5-.5-.8-.3-.9.6-.4 3 1.8-.1-1.9-8.8-10.9-5.1-5.3-10-9.6-11-9.5-.9 0-4.4 1.1-7.7 2.4M994 184.4c0 .7-.7 1.9-1.5 2.6-1.1.9-1.3 1.6-.5 2.4.5.5 1 2 1 3.2 0 1.3.7 2.9 1.5 3.8.8.8 1.5 1.8 1.5 2.3 0 .4 1.4 1.4 3.1 2.2 1.6.7 2.8 1.6 2.5 1.9-.3.2-1.3-.1-2.2-.9-1.6-1.3-1.6-1.2-.5.9.7 1.4 1.8 2.1 2.7 1.8.7-.3 1.3-.2 1.1.2-.2.9 2.4 4.6 4 5.5 1.1.7 3.7-1 7.9-5.1.8-.7 1.4-1 1.4-.5 0 .4.6.1 1.3-.7s2.4-2.3 3.9-3.3c2.4-1.5 2.6-2 1.6-3.7-1-1.5-26.1-14-28.3-14-.3 0-.5.6-.5 1.4M1023 202.6c-.8.9-3.7 3.1-6.5 4.8-8.8 5.7-8.8 5.1-.1 18.1 4.2 6.3 8.1 11.7 8.7 12 1.2.8 1.2-33.4 0-35.4-.6-.9-1.1-.8-2.1.5M1028 217c0 5.2-.3 12.5-.6 16.1l-.7 6.7 4.9 3.6c2.7 1.9 5.2 3.6 5.5 3.6.4 0 .3-1.9-.3-4.3-1.5-6.7-4.8-21.7-6-27.7-1.8-8.9-2.8-8.1-2.8 2M1000 219.6c-3.6 2.4-8.2 5.5-10.4 6.9-2.1 1.5-3.5 3-3 3.4s4.5 1.6 8.9 2.5c4.4 1 11.9 2.9 16.8 4.3 4.8 1.3 9.2 2.3 9.7 2.1.8-.2-12.9-21.2-15.2-23.3-.2-.1-3.2 1.7-6.8 4.1M940 227.3c0 3.1 13.4 29 29.2 56.7 2.7 4.7 5.9 10.5 7.1 13l2.1 4.5.7-6.5c.4-3.6 1.1-19.3 1.5-35.1l.7-28.5-14.2-2.3c-7.9-1.3-16-2.1-18.2-1.8-2.1.3-3.9.2-3.9-.3 0-.4-1.1-1-2.5-1.2-2-.4-2.5-.1-2.5 1.5M987.1 237.2c5.2 9.7 13.2 21.8 14.4 21.8.7 0 2.4-1.2 3.7-2.8 1.3-1.5 3-2.8 3.7-3 2.7-.6 14.1-9.8 14.1-11.3 0-.9-1.5-1.3-21.2-5.8-18-4.1-17.5-4.1-14.7 1.1M982.6 263.2c-.3 15-.9 28.9-1.2 30.8-.7 3.5-.7 3.5 1.4 1.6 2.3-2 5.3-7.4 8.1-14.5 1-2.5 3.3-8.1 5-12.3l3.2-7.6-7.1-11.5c-3.8-6.3-7-11.9-7-12.6 0-.6-.4-1.1-.9-1.1-.4 0-1.1 12.3-1.5 27.2M1016.3 250.9c-13.8 9.9-13.6 9.6-7.7 12.2 6.1 2.6 26.4 10.9 26.7 10.9.2 0-1.2-4.8-3.1-10.8-1.8-5.9-3.8-12.4-4.4-14.5s-1.4-3.9-1.7-4.1-4.8 2.7-9.8 6.3M999 266.7c-1.2 2.7-4.1 9.5-6.5 15.3s-5 11.8-5.9 13.4c-.8 1.6-1.2 3.4-.9 3.9.3.6.1.7-.5.3-1.1-.7-2.8 1.1-1.9 2.1.7.7 7.9-2.6 31.2-14.2 11-5.5 20-10.4 20-10.9 0-1.5-8.1-5.2-28-12.7-2.7-1.1-5.1-1.9-5.2-1.9s-1.2 2.1-2.3 4.7M1036.1 283.2c-7.9 21.2-8.9 24.8-7 24.8 2.7 0 14.3-4.8 14.7-6s-5.6-21-6.4-21c-.3 0-.8 1-1.3 2.2M1035.5 307.8c-8.8 3.4-9.7 4-9.1 6 .2 1 1 4.3 1.6 7.4 1.7 8.5 3.7 7.9 9.6-2.7 2.6-4.7 5-8.3 5.2-8 .3.2 0 1-.5 1.7-2.1 2.7-6.7 15.8-5.5 15.7 2.5-.4 5.3.3 6.6 1.6 2.4 2.5 2.8 1.8 2.4-4.4-.1-3.3 0-5.7.5-5.4.4.2.7 2.2.7 4.3s.4 4.1.9 4.4c.8.5 8.1-11.4 8.1-13.2 0-.4-2.1-2.9-4.7-5.6-4.4-4.7-4.7-4.8-5.4-2.8-1 2.8-1.9 2.9-1.2.2.7-2.6-.6-2.5-9.2.8M957.7 318.9c-12.5 6.4-22.7 11.8-22.7 12.1s5.3 2.9 11.8 5.9c6.4 3 14.3 6.7 17.5 8.2 3.6 1.6 5.6 2.2 5.3 1.4-.2-.8.2-1.6.9-1.9.8-.3 1.8-2 2.4-3.8.9-3.3.9-3.3 1-.5.1 1.6-.4 3.7-1 4.9-.6 1.1-.9 2.2-.7 2.4.7.6 16.9-1.5 20.6-2.7 5.7-1.9 5.3-4.3-3.3-21.2-7.7-15.2-9.1-19.4-2-6.2 4 7.4 10.5 18.7 11.1 19.4.1.2 2-1 4.1-2.6s4.5-3.2 5.4-3.5c2.1-.8 12.2-12.5 14.3-16.6 1.3-2.5 1.4-3.3.4-3.6-1.5-.5-38.6-3.5-40.9-3.4-.9.1-11.8 5.3-24.2 11.7M914 336.7c-6.9 1.9-15.4 4.1-18.9 5-5.7 1.4-6.2 1.7-4.6 2.9 1.2.9 3.3 1.1 6 .7 4.2-.5 4.3-.5 5.6 3.1 1.1 2.9 1.7 3.5 3.4 3 1.5-.4 1.6-.3.6.4-1.1.8-.5 1.5 2.5 3.4 10.3 6.5 23.6 13.8 24.4 13.3s.7-2.7-.6-11.1c-.4-3.1-3.1-4.3-4.6-2-.5.6-.8.1-.8-1.2s.4-2.1.9-1.8c.5.4 1.6.3 2.5 0 3.4-1.3 1.4-18.9-2.1-19.1-1 0-7.4 1.5-14.3 3.4M933.5 335.7c.2 1.4.7 6.2 1 10.7.4 4.5.8 9.9 1 12.1s.3 4.9.4 6c.1 1.5.9 2 3.4 2.1s5.5-1.4 13.7-7.1c5.8-4 10.5-7.8 10.5-8.6s.8-1.3 2-1.1c4.2.7-.5-1.9-16.3-9.2s-16.2-7.4-15.7-4.9M982.5 348.1c-4.3.5-8.5 1.1-9.3 1.4-1.4.5 3.7 6.6 20.3 24l7.6 8-.6-5.5c-1-8.7-1.1-8.9-1.8-9.6-.4-.4-.7-1.7-.7-2.8-.1-2.2-2.9-7.8-3-6.1-.1.5-.5.1-1-1-1.5-3.4-1.1-7.3.8-8.4 2.1-1.3-.3-1.3-12.3 0M958.5 359c-5.5 3.8-10 7.3-10 7.9 0 .5-.4 1.3-.9 1.8s-.6.3-.2-.5c1.1-1.8 0-1.5-4.5 1.4-3.8 2.4-4 2.7-2.3 3.9 2.2 1.4 10.9 5.5 12 5.5.4 0 2.5 1.5 4.8 3.3 3.6 2.9 20.1 13.7 21 13.7.1 0-.5-3.9-1.5-8.8-.9-4.8-2.5-12.6-3.4-17.5-1-4.8-2.2-9-2.6-9.3-.5-.3-.9-2-.9-3.9s-.3-3.6-.7-3.8c-.5-.3-5.3 2.6-10.8 6.3M972.3 354.2c.3.9 1.8 7.8 3.2 15.5 1.5 7.6 3.3 15.9 4.1 18.5s1.4 5.6 1.4 6.7c0 2.9 1.4 2.6 2.8-.4.6-1.4 1.9-2.5 2.8-2.5s2.9-1 4.4-2.3c1.6-1.2 4-3 5.4-4s2.6-2.1 2.6-2.5-2.4-3.2-5.3-6.2c-4.5-4.8-12.7-13.9-19.7-22-1.3-1.5-2-1.9-1.7-.8M937.3 376.1c1.7 7.1 5.9 21.6 6.7 23.1.6 1 1 2.7 1 3.7 0 3.2 1.5 3.3 9.8 1.3 4.2-1.1 11-2.6 15-3.3s7.5-1.6 7.8-2c.3-.5-1.5-2-3.8-3.5-2.4-1.5-7.2-4.6-10.8-6.9s-8.5-5.2-11-6.5c-2.5-1.2-6.9-3.6-9.9-5.2l-5.4-3zM1040.6 383.8c-.3 1.5-.9 7-1.2 12.2-.5 7.5-.4 9.8.7 10.6 1.6 1.2 9.9 3.7 10.5 3.2.4-.5-2.1-11.3-4.7-20.5-2.3-7.7-4.3-9.8-5.3-5.5M1007 386.5c0 .3 3.1 3.8 6.9 7.8 3.8 3.9 7.9 8.4 9.1 9.9 1.2 1.6 2.6 2.8 3.1 2.8s.8-3.6.7-8.2l-.3-8.2-6.5-2.3c-6-2.1-13-3-13-1.8M1075 397.7c0 .6-1 1.5-2.2 1.9-3.2 1-4.9 3.5-4.3 6.1.5 1.9.1 2.3-2 2.3-1.4 0-2.5-.5-2.5-1 0-.6.5-1 1-1 .6 0 1-.9 1-2s-.4-2-1-2c-.5 0-1 .9-1 2 0 1.6-.7 2-3.5 2-2.1 0-3.6.5-3.6 1.2-.1.7-.5-.5-.9-2.7l-.7-4-.2 4.1c-.1 2.9.4 4.4 1.4 4.7.8.4 1.7.2 2-.3.4-.6 1.4-1 2.3-1 1.3 0 1.3.2-.4 1.5-1.8 1.4-1.7 1.5 1.4 1 2.2-.4 3.8 0 4.8 1 1.3 1.3.9 1.4-3.5 1.1-2.8-.2-4.8 0-4.6.5.9 1.4 6.5 3.8 6.5 2.7 0-.6 1.8-.9 4.4-.6 4.3.3 4.5.2 5.1-2.9.5-2.7 1.1-3.3 3.1-3.3 1.6 0 2.7.7 3.3 2.2.4 1.2 1 1.7 1.3 1.2.4-.5-1.1-4.3-3.3-8.4-2.1-4.1-3.9-7-3.9-6.3M1047.7 443.6c-3.8 15.6-5.2 30.2-3.5 35.4.6 1.7 1.9 6.4 3.8 13 .7 2.5 1.8 6.3 2.5 8.5l1.3 4 .1-4.5c.1-2.5.2-13.5.3-24.5s.3-18.9.6-17.7c.3 1.9.8 2.3 2.5 1.7 1.2-.3 4.1-1 6.3-1.5 2.3-.5 5.6-1.5 7.5-2.3l3.3-1.3-7.4-4c-10.9-5.8-11.2-5.9-10.4-2.6.4 1.5 1.1 3.8 1.6 5.1s.6 2.6.4 2.9c-.3.3-.7-.1-1-.9-1.7-5.9-3.9-10.9-4.8-10.9-.6 0-.8-.7-.4-1.5.3-.8.2-2.5-.3-3.7-.6-1.7-1.1-.7-2.4 4.8"/><path d="M1085 442c-4.1.4-11.3.8-16 .9-4.7.2-9.4.6-10.4 1-1.7.6-1.3 1.1 2.7 3.3 2.6 1.5 6.2 3.1 8.2 3.8 1.9.6 3.7 1.6 4 2.1 1.3 1.9 4.4.7 14-5.6 7.1-4.6 9.3-6.4 7.5-6.3-1.4.1-5.9.4-10 .8M1054.1 487.4l.1 20.8 5.6-5.3c3.1-3 6-5.8 6.4-6.4.4-.5-.4-3-1.7-5.5-1.4-2.5-4.3-9-6.5-14.5l-3.9-10z"/></svg>