<svg xmlns="http://www.w3.org/2000/svg" width="1706.667" height="960" viewBox="0 0 1280 720"><path d="M0 360v360l277.3-.1c152.4-.1 276.3-.4 275.3-.6-1.5-.4-1.6-.7-.5-1.3.7-.5 2-.5 2.8 0 2 1 8.3.1 7.5-1.1-.3-.5-1.7-.9-3-.9-2.5 0-2.5-.1 1.2-4 2.1-2.2 4.3-4 5-4 .6 0 3.1-1.7 5.5-3.9l4.4-3.8-3-.6c-1.7-.3-7.3-1.1-12.5-1.7s-10.3-1.4-11.3-1.6c-1.3-.4-2.2.5-3.7 3.8-2.2 4.9-2.7 2.5-.6-2.7 1.4-3.2 1.7-3.3 4.5-2.5 3.5 1 26 3.4 26.5 2.9.2-.2-.5-4.5-1.6-9.4-2.2-10.6-2-15.7.4-7 1.5 5.9 1.6 5.9 2.3 2.7.5-2.2 1.3-3.2 2.6-3.2 1 0 2.3-.8 2.8-1.7 1-1.7 1-1.7 1.1-.1 0 1 .4 1.8 1 1.8.5 0 .7-.7.4-1.5-.4-.8.1-1.7 1-2.1.9-.3 1.6-1.5 1.6-2.5 0-1.1.8-3.5 1.9-5.4 1.7-3.3 1.9-3.3 2.8-1.3.8 1.9 1.2 1.6 3.2-3.5 1.3-3.1 2.6-5.7 3-5.7 1.2 0 2.9-3.7 2.2-4.8-.6-1-14.8-5.7-29.3-9.6l-4.8-1.3-.1 4.1v4.1l-1.8-4c-1.2-2.6-2-3.5-2.3-2.5-.3.8-.9 1.2-1.3.8s-.3-1.3.2-2c.6-.7 2.2-4.2 3.7-7.8 2.5-5.9 2.7-5.6 1 1.4-.4 1.7-.1 2.7 1.3 3.4 2.4 1.3 33.6 10.2 35.7 10.2 1.1 0 1.6-.9 1.6-3.3 0-1.7.5-12.1 1.1-23 1.1-17.9 1-19.9-.5-21.6-.9-.9-1.6-2.6-1.5-3.7 0-1.7.2-1.7 1.1.3 1.2 2.5 2.3 2.9 3.3 1.3 1.1-1.8 12.8-29.6 14.1-33.5.6-2 .6-2 1.4 0 .4 1.1.2 2.5-.5 3.2-.7.6-3.6 6.7-6.5 13.5-2.8 6.8-5.9 13.8-6.7 15.6-.9 1.8-1.3 3.6-.9 3.9.3.3.1 1.1-.4 1.8-.5.6-1.3 11.3-1.6 23.6l-.7 22.5 2.4 2.5c1.3 1.3 3.3 3.7 4.4 5.2s3.1 2.9 4.3 3c1.3.1 2.1.6 1.8 1.3-.5 1.2 2.1 4.1 2.8 3.3.2-.2-.2-2.4-.9-4.9-3.9-13.7-4.5-16.3-4.2-16.6.2-.2 1 1.5 1.7 3.8.8 2.4 2.1 5.9 2.9 7.8s2.3 6.4 3.2 10l1.6 6.5 1.6-5.4c.9-3 2.6-10.4 3.7-16.5 1.2-6.1 3-15.5 4.1-20.9 1.9-9.3 2-11.4.4-18.2-.5-2.3-.4-2.6.4-1.5.6.8 1.1 2.3 1.1 3.2 0 2.1 1.6 2.4 2.4.5.3-.6.4-.3.1.9s.3 3.1 1.4 4.6l2 2.5-2.3-.4c-2.2-.5-2.4.1-4.5 9.9-1.9 9.3-7.1 39.1-7.1 41 0 .4 1.5.9 3.3.9l3.2.2-3.5.7c-1.9.4-3 .8-2.4.9 1.9.2 12.6 5.3 12.1 5.7-.2.3-2.4-.2-4.8-1s-4.5-1.3-4.7-1.1c-.9.9 15.3 26.4 21.4 33.7 1.2 1.6 2.5 3.7 2.9 4.8.6 2 1.2 2 312.1 2H1280V0H0zM473.5 74.2c8.8 7.3 18.2 13.8 19.5 13.3.8-.4 5.3-1.3 10-2.1s14.4-2.5 21.5-3.9c7.2-1.3 15.3-2.7 18-3.1 6.5-.9 7.7-1.6 4-2.5-9.4-2.3-13.8-3.7-12-3.8 1.1-.1 5.3.8 9.3 1.9 3.9 1.1 9.8 2 12.9 2 3.3 0 5.3.4 4.5.8-.8.5 6.4 4.2 19.7 10 11.5 5.1 21.3 9.2 21.8 9.2.4 0 3.6 1.2 7.1 2.7 6.3 2.6 8.5 2.6 6.2-.2-.8-1-.9-1.5-.2-1.5.6 0 1.7 1 2.3 2.2.7 1.3 2.7 3.7 4.5 5.3 1.9 1.7 3.4 3.6 3.4 4.2 0 .7 1.9 3.4 4.3 6.1 2.3 2.7 8.7 10.4 14.2 17.2 12.2 15.1 20.2 24.3 28.8 33.5 5.8 6.2 6.8 6.9 8.4 5.8 1-.7 3.6-2.2 5.8-3.4 6.1-3.3 13.5-8.2 13.5-8.9 0-.4-1.8-2-4.1-3.4-2.2-1.5-3.8-3-3.6-3.3.3-.3 2.2.8 4.2 2.3 2.5 1.9 4.7 2.7 6.8 2.6 2.9-.2 3-.1 1.5 1.5-1.4 1.6-1.3 2.4.7 8.6 1.2 3.7 1.8 6.6 1.2 6.4s-1.8-3-2.7-6.2-2.2-6.1-2.8-6.3-2.4.5-3.9 1.6c-1.6 1.1-5 3.1-7.8 4.5-2.7 1.5-6.1 3.5-7.5 4.6l-2.5 2 3.5 3.7 3.5 3.7-3.2-2.1c-1.7-1.2-3.4-2.2-3.8-2.2s-.4 5.5 0 12.2c.3 6.8.8 20.4 1 30.3.5 21.9 1.8 31.1 4.7 33.7 1.6 1.4 1.7 1.8.6 1.8-.9 0-2.1-.7-2.8-1.5-.7-.9-1.6-1.4-2-1.3-.8.3-11.5 13.7-17.9 22.3-2.5 3.3-7.7 9.8-11.5 14.5-3.9 4.7-8.9 10.7-11.1 13.5-2.2 2.7-4.5 5.6-5.2 6.3-3.2 3.3-.5 2.7 9.2-2 5.8-2.8 10.7-4.9 11-4.6s-4.9 3.1-11.5 6.2c-10.8 5.2-11.9 5.9-11 7.7 1.2 2.2.7 2.4-2.1.8-1.6-.8-3-.4-7.2 2.2-9.9 6.1-10.5 6.4-7.3 3.6 1.7-1.4 5-3.6 7.5-4.9l4.5-2.3-2.7-.9c-3.5-1.3-3.5-2.5.1-2.3l2.7.2-.2-14.3c-.1-7.9-.6-14.9-1.1-15.5-.5-.7-1-3.6-1-6.6-.1-3-.8-14-1.7-24.5-1-10.5-1.5-21.2-1.1-23.9.3-2.6.2-4.7-.2-4.7-1 0-7.2 6.6-30.2 32-10.2 11.2-23.3 25.3-29.3 31.3-5.9 6.1-10.6 11.2-10.4 11.3.2.2 5-.3 10.6-1.2 5.7-.8 10.5-1.3 10.8-1.1.2.3-1.4.8-3.6 1.2-2.3.4-4.1 1.1-4.1 1.5 0 .5-2.6 1-5.7 1.2-6.3.3-6.8.2 44.2 10 9.4 1.8 16.2 3.4 15.3 3.6s-11.5-1.6-23.5-3.9c-17-3.2-42.1-7.7-44.1-7.9-.9-.1 2.4 4.3 7.3 9.5 11.2 11.9 17 18.8 18.8 22.3 2.2 4.5 2.2 4.6-.8 2.6l-2.5-1.6v4c0 2.9.5 4.4 1.8 5.1 1.5.9 1.3 1-1 1.1-1.5 0-2.9-.4-3.3-.9-.8-1.5-12.4-10.1-13.4-10.1-.5 0-1.1-.7-1.5-1.5-.3-.8-1.2-1.5-2.1-1.5-.8 0-1.5-.4-1.5-1 0-1.2-5.1-3.9-12-6.2l-5.5-1.8 5 .6c6.3.8 7.6 1.1 9.8 1.9 3.3 1.3 1.7-1.6-1.6-3-6.6-2.7-12.8-3.9-13.7-2.6-.5.9-2.1 1.1-5.3.6-5.8-.9-13.2 1.4-20.4 6.3-2.9 1.9-5.3 3.6-5.3 3.8 0 .1 1 0 2.2-.4 1.4-.3 1.9-.2 1.4.6-.4.7-.2 1.2.4 1.2s.9.4.5.9c-.3.5-.1 1.2.5 1.6.5.3 1 1.1 1 1.6 0 .6-.4.8-.9.5-1.1-.7-3.3 1.8-2.4 2.7.3.4.1.7-.6.7-.6 0-1.1.6-1 1.2.3 2.8-.2 4.8-1.2 4.8-.5 0-.7-.5-.4-1 .6-.9-.7-1.4-2.7-1.1-.4 0-.5-.5-.2-1.2.2-.7-.3-2.2-1.3-3.3-2.2-2.4-2.7-4.4-1.1-4.4.6 0 .9-.2.6-.5s-1.7 0-3.1.6c-3.8 1.7-3.3 5.7.8 6.8l3 .9-2.7.1c-1.6.1-2.8.6-2.8 1.3 0 .6-.9.3-2-.7-1.9-1.7-2-1.7-2.1.1 0 1.1-.3 1.4-.6.6-.3-.7 0-1.8.5-2.5.6-.7.7-1.9.3-2.6-.7-1-2.4-1-9.2.4-4.6 1-10.3 1.9-12.6 2.1-2.3.1-6.8 1-10 1.8s-10.1 2.5-15.3 3.6c-12.7 2.8-12.5 2.7-11 4.5 1.6 1.9.1 1.9-2.4 0-1.7-1.3-3.1-.8-15 5.2-20.9 10.6-39 21.5-37.4 22.4 1.4.8 40.1 9.4 55.3 12.3 4.4.8 16.5 3.3 26.9 5.5 10.4 2.3 19.1 3.9 19.3 3.7.2-.1-10-10.6-22.7-23.1-12.6-12.6-22.8-23.1-22.5-23.3.3-.3 11.1 10 24 22.9s24.1 23.4 24.9 23.4 1.8.4 2.2.8 2.3.7 4.3.7c4.9.1 2.2 1.6-4.3 2.4-2.7.4-5.9 1.2-7 1.7-1.7.9-1.7.7.3-.9l2.4-1.9-3.4-1.1c-3.7-1.2-24-5.3-37.9-7.7-4.7-.8-11-2.2-14-3s-15.4-3.6-27.4-6c-12.1-2.5-23-4.8-24.2-5.1-2.8-.7-3.8 1.3-8.5 18.5-1.8 6.8-3.5 11.9-3.6 11.4-.4-1 .5-4.7 4.7-19.6 1.2-4.3 2-8.1 1.7-8.3-.6-.6-8.9 3.9-22.8 12.3-6.5 3.9-13.8 7.9-16.3 8.9s-4.6 2.2-4.6 2.5 1.8 1.2 4 1.9c5.5 1.8 4.2 2.6-1.6 1-3.9-1.1-4.7-1.1-5.5.1-.7 1.2-.9 1.2-.9 0 0-1.6-5.1-1-10.2 1.2-7.9 3.6-24.8 8.2-24.8 6.8 0-.3 2.1-1.3 4.6-2.1l4.7-1.5 2.8-8.5c1.6-4.7 2.9-8.9 2.9-9.4 0-1.4-3.8 2.3-9.2 9.2-2.8 3.5-5.3 6.1-5.6 5.8-.6-.7 7.2-10.9 11.7-15.3l3.4-3.3h-2.9c-1.6 0-4.9.6-7.4 1.4-2.5.7-5 1.1-5.6.9-1.3-.4-2.4 4.9-2.4 11.5 0 2.9-.4 4.1-1.1 3.6-.7-.4-.9-3.3-.6-7.9.4-6.5.2-7.4-1.4-7.8-1.3-.4-1.9 0-1.9 1.2 0 1-.7 1.8-1.5 1.8s-1.5-.4-1.5-.9c0-.4.4-.8.9-.8 1.3 0 .1-4.1-2.1-6.9-1-1.3-1.8-2.1-1.8-1.7 0 2.1-3.4 16.9-5.1 21.7-1.9 5.9-1.6 12.3 1.2 20.6 1.3 4.1.6 6.9-.9 3.3-.6-1.4-1.1-1.9-1.1-1.2-.1.7.5 2.3 1.3 3.5.7 1.2 1.7 3.5 2 5.1.7 2.6.6 2.8-.9 1.6-1.4-1.2-1.5-.5-1.1 7.6.2 5 0 9.7-.5 10.5-.7 1.1-.9 1-.7-.6.3-3.9-.2-5.5-1.7-5.5-1 0-1.5 1.1-1.6 3.2l-.1 3.3-1.1-2.7c-.9-2.3-1.5-2.6-3.6-2.2-3.7.9-18.1 7.6-18.1 8.5 0 .4 1.2 1.1 2.7 1.6 2.1.7 2.3 1.1 1.1 1.6-2.5.9-16.5-7.5-24.1-14.7-4.7-4.3-6-3.1-3.1 2.7 1.5 3 1.5 3.1-.1 1.6-3.3-3.2-2.7-8.6 2.2-18.8 2.5-5.3 4.6-10.1 4.7-10.6.1-.6 2.2-5.3 4.8-10.5 2.5-5.2 5.7-12 7-15 14-31 17.3-38.4 17.5-39.8 1.3-6.6-.1-29-2.2-37.5-1-3.9.9-3.4 2.3.7 2.6 7.1 10.2 11.8 10.2 6.2 0-1.3-.7-4-1.6-6.1-.8-2-1.3-4-1-4.3s.6-.1.6.5c0 .5 1 2.1 2.3 3.4 1.2 1.4 2.7 3.6 3.4 5.1 1 2.2 1.7 2.5 5.1 2.3 4.3-.3 6.5-1.2 5.8-2.4-1.3-2-5.4-14.1-4.7-13.7.5.3 2 3 3.4 6 2.9 6.1 4.5 7.6 5.3 4.9.3-1 1-2.7 1.5-3.8l.9-2-.1 2c-.4 6.7 0 7.5 3.4 7.5 1.7 0 4.8.4 6.6 1 1.9.5 3.6.8 3.9.6.5-.6-8.5-17.4-11.5-21.4-1.3-1.7-3.2-3.2-4.1-3.2-1.4 0-1.4-.2-.3-.9.9-.6 1.2-1.8.7-3.7-.3-1.6-.8-3.8-1.1-4.9-2.6-12.4-6.2-21.4-8.3-20.7-.9.3-1.1-.4-.6-2.5.4-1.5.9-3.2 1.2-3.8.4-.5.7-1.8.7-2.9.1-1 .9-2.3 1.8-2.8 1-.5 1.7-1.7 1.8-2.6 0-.9.3-1.2.5-.5.3.7 0 2.1-.6 3.3-.8 1.6-.8 2.5 0 3.5s.8 1.4-.1 1.7c-2.7.9.4 3.8 10.3 9.5 5.7 3.3 14.4 8.4 19.3 11.3 15.3 9 17.6 10.2 18 9.9.1-.2-1-4.5-2.5-9.4-1.5-5-4.7-15-6.9-22.3-2.8-9-4.8-13.6-6.1-14.5-1.1-.6-2-1.5-2-1.9s-3.9-4.7-8.7-9.5l-8.6-8.8-.9 2.7c-.5 1.6-1.4 2.8-1.9 2.8s-.9.6-.9 1.4c0 1.8-7.1 18.8-7.7 18.3-.2-.2 1.6-5.6 4-11.8 4.4-11.1 4.9-13.5 2.5-11.1-.7.7-1.9 1.2-2.7 1.2-.9 0-.3-.8 1.4-1.8 5.4-3.3 5.4-3.5 5.7-25 .3-18.7-.1-23.1-1.7-18.3-.3 1-1.4 2.6-2.3 3.5-1.2 1.1-.8-.6 1.4-5.2 3.2-6.5 3.3-7.2 3.4-19.7.1-7.2.5-13.9 1-15 .5-1.2.6 3.4.3 10.8-.5 10.8-.4 12.7.8 12.2 1.6-.6 2.1-1.4 6.4-9 1.5-2.8 4.1-7 5.8-9.5 7-10.3 8.5-12.7 11-17.4 1.4-2.6 4.8-6.9 7.5-9.5 15.4-14.5 26.3-24.5 28.1-25.8 3.5-2.4 2.3 0-1.4 2.8-4 3.1-24.8 22.8-25.9 24.7-.5.9.8 1.9 4.3 3.4 2.8 1.1 5.1 2.4 5.1 2.8s1.2 1.1 2.6 1.4c1.5.4 2.4.9 2.2 1.2-.3.2-4.2-1-8.7-2.7-7.9-3.1-8.2-3.2-10.1-1.4-1.1 1-2 2.4-2 3 0 1.4-9.1 15.8-12 19-1 1.1-3.5 5.4-5.6 9.5-2.2 4.1-4.6 8-5.4 8.7-3.2 2.6.7 1.1 7.9-3.1 6.1-3.5 25.5-13.6 47.8-25 1.3-.6 2.3-1.7 2.3-2.4 0-.6.4-1.2 1-1.2 2.5 0 3.9-5.1 5-18 .6-7.4 1.7-15.5 2.5-18 .7-2.5 1.6-5.8 2-7.4.3-1.5.8-2.6 1.1-2.4.2.3-.5 5.3-1.6 11.2-2.4 12.1-3.9 26.7-3 29 .4 1.2 6.2-4 21-18.4 11.3-11 20.8-20 21.2-20s1.5-1.1 2.6-2.5 4.8-4.6 8.3-7.3C430.4 81.6 434 79 434 79.5c0 .2-4.2 3.6-9.2 7.6-10.1 7.7-18.1 14.9-17.4 15.6.2.2 6.4-.8 13.8-2.2 7.3-1.5 17-3.3 21.5-4 14.1-2.3 42.3-7.9 43.5-8.6.9-.6.5-1.4-1.2-2.9-1.4-1.2-3.6-3.1-5-4.4-1.4-1.2-5.1-4.1-8.2-6.4-3.2-2.4-5.8-4.5-5.8-4.8 0-.5 4.7 2.4 7.5 4.8m475 36.8c2.2.7 4.7 1.6 5.5 2.1s3.6 2 6.3 3.4c2.6 1.4 4.7 2.8 4.7 3 0 .3-1.3-.1-3-1-1.6-.8-3.3-1.5-3.7-1.5-.8 0 .1.9 9.4 8.5 2.6 2.2 7.7 6.7 11.3 10.1 14.9 14 15.6 14.5 21.5 15.5l4 .6-3.7.2c-2.1 0-3.8.4-3.8.8 0 1.4 5.5 9.1 8.6 12.1 1.7 1.6 3.8 5.3 4.8 8.3s2.2 5.8 2.6 6.4c.4.5 2 3.2 3.5 6 3.7 6.8 4.5 7.5 4.6 4 0-1.7.5-3.9 1-5 .6-1.4.7-.5.3 3-.6 6.2 1.7 12.1 8.6 21.5 2.6 3.6 9.1 13 14.4 21s9.6 14 9.6 13.3-1.3-4.9-3-9.5c-1.6-4.6-5-15.4-7.4-24-2.5-8.7-6.8-21.6-9.6-28.8-2.7-7.1-5-13.5-5.1-14.2 0-.7-.9-3.1-1.8-5.3l-1.8-4-.7 6c-1.1 9.7-1.5 10.5-1.2 2.5.2-4.1.5-8.2.7-8.9.4-1.6-1.4-2.1-14.1-4l-6.5-1 8 .4c4.4.2 8.9.7 10 1.1 5.2 1.9-4.8-4.1-34.2-20.6-12.3-6.8-22.1-12.6-21.8-12.8.2-.2 6.4 2.9 13.7 7s16.5 9.2 20.3 11.4c3.9 2.1 7.7 4.3 8.7 4.9 6.6 4 12.3 7 13.3 6.8.6-.2 2.7 1.3 4.6 3.4 1.8 2 2.8 3.3 2.2 2.9-1.7-1-1.7-.6.8 5.6 1.2 2.9 2.3 6.2 2.4 7.3s.3 2.4.4 2.8c0 .5.5.5 1.1.2.5-.3.7 0 .4.8s.5 3.8 1.6 6.8c3 7.4 6.1 16.9 11 33.4 2.3 7.7 5.2 16.9 6.6 20.5 1.3 3.6 2.4 7.4 2.4 8.5 0 2.2 1.9 5.6 2.1 4 .4-1.9.8-7 1-10.7.1-4.3-3.1-14.6-7.2-22.9-1.6-3.2-2.9-6-2.9-6.3 0-.2-1.4-3.5-3.1-7.1-1.7-3.7-2.9-6.9-2.6-7.1.2-.2 1.9 2.8 3.6 6.8 1.8 4 5 10.9 7.1 15.3 4.7 9.7 8.3 20.7 7.1 21.4-.4.3-1.1 3.9-1.4 7.9l-.6 7.3 4.6 2c2.5 1.1 4.7 1.8 4.9 1.7.1-.2-.9-3.6-2.2-7.7-3.4-10.4-2.8-11.3.8-1.1 3.7 10.4 4.2 16.8 3.2 38-.8 16.5-.8 16.5-1.5 8-.5-4.9-.4-10.8.2-14 .6-3 .9-8.9.7-13l-.3-7.5-4.3-2.3c-2.4-1.3-4.6-2.1-5-1.7s-.6 3.4-.5 6.8c.2 4.3 0 5.7-.7 4.7-.5-.8-1-4.1-1-7.2 0-5.7 0-5.7-3.2-6.2-7.6-1.3-8-1.4-3-1.3 2.8.1 5.2 0 5.2-.1 0-1.4-33.3-49.2-34.2-49.2-.4 0-.1 1.7.7 3.7 1.3 3.3 7.5 29.1 9.1 37.8 1.2 6.2 2 7 7.7 6.9l5.2-.1-4.7.4c-2.7.2-4.8.9-4.8 1.4 0 .6 1.1 3.4 2.4 6.2 6.4 13.7 8.6 19.1 8 19.6-.4.3-.8.1-1-.4-1-2.4-7.4-14.8-7-13.3.3 1 .1 2-.3 2.2-.4.3-1.4-1.4-2.1-3.7l-1.3-4.2-1.3 4.5c-.8 2.5-1.3 6.3-1.2 8.5.2 3.4 1.1 4.7 6.3 9.7 4.2 3.9 6.1 5.2 6.3 4.2.2-.9 1.2.1 2.4 2.5 1.1 2.2 3.8 5.6 6 7.6s3.7 3.9 3.4 4.3c-.4.3-2.4-1.2-4.6-3.3-3.3-3.2-4.2-3.6-5.4-2.5-.9.7-1.4 1.6-1.1 2 .3.5-.7 2.2-2.1 3.9s-2.4 3.5-2.2 3.9c.8 2 8.7 8.2 10.4 8.2 1.1 0 3.1-1.8 4.6-3.9l2.7-3.8-.4-18.4c-.3-11.4-.1-17.6.5-16.4 1 2.3 1.4 38.2.3 37.2-.3-.4-1.7.8-3 2.6-2.5 3.3-12.3 23-12.3 24.6 0 1.2 7.6 2.5 9 1.6.6-.4.8-1.5.5-2.6-.4-1-.2-1.9.4-1.9.5 0 1.2-1.2 1.4-2.8.2-1.5.3-1 .2 1l-.3 3.8 5.5-4.3c4.8-3.7 5.4-4.5 4.9-7-.7-3.2 1.1-5.6 3.5-5 2.3.6 3.2-2.6 3.1-11.2v-7l1 7c1.3 9.5.6 14.1-2.9 20-1.6 2.8-2.8 5.6-2.5 6.3.2.6-.4 1.2-1.3 1.2-1.4 0-1.5.3-.6 1.4s.9 2.5 0 6c-.7 2.7-.9 8.5-.7 13.9.5 8.4.9 10 5.2 19 2.6 5.4 5.6 12.3 6.7 15.3s2.5 5.4 3 5.4 1.2 1.8 1.5 4.1c.4 2.5 1.7 5 3.2 6.4s2.3 2.9 1.9 3.9c-.9 2.3 8.9 28.2 11.9 31.5 2.7 2.9 2.6 0 0-6-1.5-3.3-2.6-6.2-2.4-6.5 1-.9 6.8 14 6.7 16.9-.2 3.1-.2 3.1-.6.4-.7-4.3-3.8-3.2-3.7 1.3.1 2.6 0 2.8-.3.7-.2-1.5-1-2.7-1.6-2.7-1.3 0-17.2 9.9-19.9 12.3-.9.9-5 2.1-9 2.7s-8.6 1.3-10.2 1.5c-3.9.6-5.6 2.3-3.6 3.6 1.3.9 1.2 1-.2.5-1-.3-1.8-.2-1.8.2 0 1.7 9.8 23.1 10.3 22.6.3-.3.1-1.8-.4-3.3-.6-1.4-1.2-5.5-1.4-9.1-.3-5.2-.8-6.8-2.7-8.3l-2.3-1.8 2.3 1.1c1.2.6 3.2.8 4.3.5 2-.7 2-.6.4 1.9-1.3 2-1.6 3.7-1 7.3.4 2.7 1.1 5.3 1.6 5.9.5.7 1.7 4.5 2.5 8.5l1.5 7.4-3.3 3c-1.8 1.6-5.5 4.9-8.2 7.1-4.6 4-5.4 6.4-2 6.4.8 0 2.8 1 4.4 2.2 2.9 2.1 3 2.1 5 .3 1.1-1 2-2.2 2-2.6 0-.5 1.4-2.8 3.1-5.3 3-4.2 3.1-4.5 1.5-6.7-.9-1.3-1.6-3.7-1.6-5.4 0-1.6-.7-5.5-1.5-8.5s-1.5-7-1.5-8.8c0-1.7-.4-3.2-1-3.2-.5 0-1-1-1-2.3.1-2.1.1-2.1 1.4-.4.8 1 1.7 3.9 2.1 6.4.4 2.6 1.8 6.9 3.1 9.7 3.8 7.9 3.3 13.8-1.7 21.7-2.3 3.5-5.1 7.4-6.2 8.7-2.1 2.2-2.1 2.4-.4 9 2.7 10.3 2.2 12-2.3 9.5l-2.5-1.5 2.9.7c2.4.5 2.8.3 2.3-1.2-.2-1-1.1-4.1-1.8-6.8-1.6-6.2-1.3-5.8-5.5-6.1-3.2-.3-3.5-.1-2.8 1.9.3 1.2 1 2.6 1.5 3.2.5.5.9 2.1.9 3.6s.4 2.9 1 3.1c.5.2-.2.8-1.5 1.4-1.6.8-2.4.8-2.2.1.1-.6-1.4-1.4-3.3-1.9-8.7-2.3-8-2.6-18 6.6-5.2 4.7-10 8.6-10.8 8.6-1.1 0-1-.3.2-1.5.8-.8 1.9-1.5 2.3-1.5 1.7 0 20.1-18.5 21.8-21.8.9-1.9 1.5-3.5 1.3-3.7-.4-.4-21.8-3.3-21.8-2.9 0 .1 3 2.4 6.8 5 7.7 5.4 9.5 7 7 6.1-.9-.3-4.9-2.9-8.7-5.7-3.9-2.8-7.5-4.9-8.1-4.5-1.6 1-1.2-3.1.4-4.4 1.8-1.5 13.6-18.8 13.6-19.9 0-.6-17-11.6-20-13-.3-.1-3 3-6 7s-8.3 10.4-11.7 14.3c-3.5 3.8-6.3 7.5-6.3 8.2s-.2 1.3-.4 1.3-1.1.3-2 .6c-3 1.2-1.6-1.1 5.4-8.6 7.7-8.2 19-22.4 19-24 0-.5.6-1.3 1.4-1.7.7-.4 4.3-5.1 7.9-10.3 5.1-7.5 6.3-9.9 5.6-11.3-.8-1.3-.6-1.5.5-1.1s2.8-2.1 6.5-9.8c7.5-15.6 14.3-33 13.3-34-1.2-1.2-12-3.3-12.8-2.6-.3.4-.8 5.3-1.1 11s-.7 10.5-.9 10.7-.4-3.1-.4-7.5c-.1-7.4-.2-7.7-1.5-5.4-1.9 3.3-1.9 2.4.1-3.4.9-2.6 1.4-4.9 1.2-5.1-1-1-9.2 2.4-9.9 4.1-.8 1.8-.8 1.8-1.4-.2-.5-1.6-2-2.3-7.8-3.2-4-.7-10.6-2.4-14.7-3.7-4.1-1.4-11.1-3.6-15.5-4.9-10.5-3.3-3.8-2.6 8 .8 5 1.4 9.3 2.6 9.7 2.6s-.6-2.5-2.3-5.6c-1.6-3.1-2.8-6.2-2.8-6.8.3-1.5-1.2-6.6-1.9-6.6-1.4 0-12.8 7.8-16.4 11.1-2.1 2.1-4.8 3.7-6.1 3.7-1.2-.1-7.3 1.1-13.6 2.6-13.6 3.1-15.7 3.3-7.6.5 3.3-1.1 6.2-2.5 6.3-3 .2-.5 1.6-.9 3.2-.9s4.1-.5 5.7-1.1l2.8-1.1-2.5-1.9c-1.4-1.1-3.2-2.6-4.1-3.3-3.1-2.5-32.9-18.9-32.9-18.1 0 1.2 7.2 28.5 8 30.2.8 1.9 1.5 2.2 4.2 1.8l3.3-.5-3.4 1.1c-2.6.8-3.2 1.4-2.8 3 .3 1 .1 1.9-.4 1.9s-.9-.5-.9-1c0-.6-1-1.5-2.2-2-1.8-.7-1.9-.9-.5-.9 2.4-.1 2.2-.9-2.2-16.2-2.2-7.4-4.1-14.5-4.3-15.9-.3-2.3-.7-2.5-4.3-2.2-2.2.2-13.2 2.3-24.5 4.7-18.5 3.9-32.1 6.3-29.5 5 .6-.2 7.8-1.8 16-3.4 19-3.9 37.8-8 38.3-8.5.2-.3-.7-1.1-2-1.9-5.1-3.2-20.7-12.2-26.8-15.5-3.6-1.9-9-5-12.1-6.8-3.1-1.9-6.4-3.4-7.2-3.4-.9 0-1.8-.4-2.1-.9-.3-.4-3.9-1.4-8.1-2.1-4.1-.7-7.3-1.5-7.1-1.8.3-.3 3.3.1 6.7.7 3.3.7 6.3 1 6.6.7s-3.5-4.6-8.3-9.6c-4.9-5-9.1-9.7-9.3-10.3-.2-.7 4.7 3.9 10.9 10.1 10.3 10.4 11.5 11.3 14.1 10.7 2.8-.6 4.2.8 1.7 1.8-.7.3.3 1.2 2.2 2 2.3 1 3.7 1.2 4.1.5.4-.6 1.8-.8 3.4-.4 2.5.6 2.7.5 2.3-1.8-.5-2.6 1.4-3.7 2.7-1.6.3.5.1 1-.4 1-1.6 0-1.3 1.2.9 3.8 1.7 2.1 3.2 2.8 6.3 3.1.4.1.7.8.7 1.6s.5 1.6 1 1.6c2.8.4 6 1.9 6 2.9 0 1.1-6-.6-7.4-2-.5-.5-1.6-1-2.4-1-.9 0-.5.8 1.1 2 1.4 1.1 2.7 2 3 2 .2 0 4.8 2.7 10.2 6 5.4 3.2 10.2 5.7 10.6 5.4.8-.5.4-6.8-.7-12.2-.4-2-.9-2.3-2.9-1.8s-2.5.3-2.5-1.4c0-1.4.7-2 2.3-2 2.4 0 2.4-.1 1.9-7.8-.7-12 .3-11.4-14.7-7.5-7.1 1.8-15 3.8-17.4 4.4-3.1.8-4 1.4-3 2 .8.5.9.9.3.9-.5 0-1.8-.6-2.8-1.3-1.6-1.1-.9-1.5 5.6-3.5 4-1.2 12-3.3 17.8-4.7 5.7-1.4 10.6-2.7 10.8-2.9s-1.8-1.2-4.5-2.2c-2.6-.9-7.5-2.8-10.7-4.1-3.3-1.2-7-2.3-8.4-2.3-1.3 0-3.5-.9-4.9-2s-7.5-3.6-13.7-5.5c-9.4-3-20.4-7.4-15.6-6.2 4.4 1.1 31.9 10.1 34.5 11.3 7.2 3.3 24.7 9.4 25.6 8.9.5-.4 1-5.4 1-11.3.1-5.9.5-15.2.9-20.7.6-7.6.7-5.2.5 10.2-.3 11.1 0 20.5.5 20.8.4.3 10.8-4.4 22.9-10.5 22.1-10.9 24.2-12.5 21.2-15.6-.9-.8-11.2-19.7-29.8-54.9-9.2-17.2-10.3-19.1-10.4-18.5-.5 3.5-.8 9.2-1.3 23.5-.8 19.6-1.6 30.8-2.3 31.5-.5.5-.3-8.2 1.4-44.9.5-12.2.4-14.3-.8-13.6-2.8 1.7-13.5 10.5-16.3 13.5-1.6 1.6-3.5 3-4.1 3-.7 0-5.7 3.3-11.2 7.2-5.5 4-12.6 9.1-15.8 11.3-3.1 2.2-7.5 5.4-9.8 7-10.3 7.5-18.1 12.8-17 11.5.6-.8 4.4-3.8 8.3-6.5 3.9-2.8 10.8-7.7 15.3-10.9 20.8-15 24.4-17.7 27.4-19.8 1.8-1.3 3.3-2.8 3.3-3.5s3-3 6.8-5.2c6.3-3.7 12.1-8.6 11.1-9.5-.4-.4-32.6-7.2-53.4-11.2-7.1-1.4-17-3.4-22-4.4-15.6-3.4-15.2-3.4-16-.2-.6 2.6-.7 2.6-2.1.8-1.2-1.7-1.4-1.7-1.4-.4 0 .9-.4 1.9-.9 2.2-.4.3-.6-.6-.3-1.9.5-2.9.6-2.9-7.8-.9-3.6.9-8 2-9.7 2.4-1.8.4-3.1.4-2.8 0s1.7-1 3.2-1.3c2.3-.4 15.1-4.6 16.1-5.2 1.2-.8-2.9-4.9-15.5-15.6-8.1-6.8-15.7-13.4-17-14.7-1.4-1.2-3.5-3-4.9-3.9s-2.9-2.5-3.5-3.5c-1-1.9-1-1.9 1.8-.2 1.5 1 4.3 3.3 6.2 5.2 1.9 2 3.9 3.1 4.8 2.8.8-.3 2.1-.6 2.9-.6s1.4-.9 1.4-2.1c0-2.9 3.1-6.5 5.3-6.1 1 .2 2.7-.4 3.8-1.4 1.8-1.6 1.9-1.6 2 .2 0 1.8.1 1.8.9-.1 1.3-3 1.2-3.2-1.5-3.9-1.5-.4-2.3-1.1-1.9-1.7.4-.8.9-.7 1.5.2 1.1 1.9 2.3.4 1.4-1.8-1.9-4.4.8-9.9 3.3-6.6 1.3 1.8 1.6.6.6-2.1-.7-1.8-3.9-2.2-4.9-.6-.3.5-1.2 1-1.8.9-.9 0-.9-.2.1-.6 3.4-1.4.3-2.1-7.9-1.9-5.1.1-8.2-.1-7-.6 1.2-.4 16.2-1 33.4-1.3 33.8-.7 35.9-.8 35.1-2.8-.3-.8-4.8-5.1-10.1-9.8-12.2-10.6-18.2-16.3-16.3-15.3s11 8.6 22.2 18.7l8.6 7.8 14.9-5.7c8.1-3.1 18.1-6.8 22-8.2 4-1.5 6.7-2.9 6-3.3-1.3-.6-8.7-1.9-43.7-7.4-25.8-4.1-27.4-4.4-26.7-5.1.3-.3 4.3.1 8.9.9 4.5.8 13 2.2 18.8 3.1s16.2 2.5 23.3 3.6c7 1.1 14.4 2 16.4 2h3.7l-4.2-4.3c-5.8-5.9-5.3-6.9.6-1.2 6.7 6.7 8.6 7.8 10.9 6.6 1-.6 7.2-2.4 13.8-4.1 15.5-4 15.5-4 15.5-4.9 0-.5-1.5-1.5-3.2-2.3-3.8-1.6-2.9-1.6 2.7.2m-397 224c.3.5 1.5 1 2.5 1 1.6 0 8 6.7 8 8.5 0 .3.7 1.3 1.5 2.1s1.7 3.1 2.1 5.2c.8 4.6 2 6.2 4.8 6.2 2.1 0 2.1.1-.2 1.9-2.2 1.6-2.3 1.9-.8 3.4.9.9 1.6 2 1.6 2.4s.8.9 2 1.1c2.2.4 2.4-.6 2.2-9.7-.1-3.3.2-4.1 1-3.3.6.6 1.2 1.9 1.3 2.9 0 1 .5 2.5 1 3.2.5.9.4 1.2-.3.8-.7-.5-.8.6-.5 3.2.3 2.3.1 4.1-.6 4.5-.6.4-1.1 1.6-1.1 2.7s-1 3.3-2.2 4.9c-1.7 2.4-1.9 3.2-.9 4.4 1.3 1.5 6.1 1.9 6.1.5 0-.4.7-.9 1.5-1.3 1.3-.5 1.4-.2.3 1.7-.7 1.2-1.1 2.5-1 2.9.1.5-.2.8-.8.8-.5 0-1-.6-1.1-1.3 0-.6-.4-.3-.9.8-.7 1.7-.9 1.7-.9.2-.1-1-.9-1.7-2-1.7s-2.2-.4-2.5-.9c-.6-.9-1.7 0-10.9 8.6-2.5 2.4-4.8 4.3-5 4.3-.3 0-.1-1.7.5-3.7 1.8-6.4.6-16.5-2.4-20.9-1.8-2.6-2.5-4.9-2.3-6.9.2-1.6-.1-3.6-.7-4.3-.9-1-.8-1.6.3-2.3 1.2-.8 1.2-1.1-.2-1.9-1.3-.8-1.7-2.8-2.3-11.5-.1-1.1-.5-2.6-1-3.4-.6-1-.6-1.2.2-.7s1.2-.3 1.2-2.3c0-3 1.3-4.1 2.5-2.1m-.4 67.7c-.5 1-1.8 2.5-2.9 3.4-1 .9-2.6 2.6-3.5 3.8-.8 1.3-4.4 3.4-7.9 4.7-4.2 1.6-5.2 2.2-2.8 1.8 1.9-.3 4.3-.8 5.2-1 1-.3 2.1.3 2.7 1.4.9 1.7.7 2.1-1.4 2.6-1.6.4-2.5 1.4-2.5 2.5 0 1-.7 2.1-1.5 2.5-2.8 1.1-1.6 2.6 1.7 1.9 4.9-1 2.5 1.3-2.8 2.6-4 1-5.2 2.3-2.3 2.7 2.2.3 2.3.5.9 1.4-1.3.9-1.2 1.2.4 2.5 1.1.8 1.7 1.8 1.3 2.2-.9.8-4.5-2.4-5.2-4.7-.5-1.4-1.4-1.7-4.8-1.4-4.1.4-4.1.4-.9-.6 2.1-.7 3.2-1.7 3.2-3 0-1.9-5.8-8.5-6.8-7.5-.3.2-.5 2.1-.4 4.1s-.1 3.4-.4 3.1c-1-1-1.1-4.2-.3-6.5.7-1.8.5-2.4-1.4-3.2-2.1-.8-2.1-.9-.2-1.1 1.1-.1 2.4-.1 2.9 0 .8.2.6-1.4-.5-4.4-.2-.6.1-1 .6-1 .6 0 .9.3.8.7-.6 1.8 6.4 2.4 12.1.9 5-1.2 6.8-2.3 11-6.7 5.2-5.3 7.4-6.8 5.7-3.7m-36.3 16.7c-2.2 1.6-2.4 4-.3 3.2s1.9-.1-1 3c-2.4 2.5-2.9 6.3-1.3 8 1.7 1.6-1.8 3.2-20.9 9.7-7.6 2.6-9.1 3.5-8.7 4.9.8 2.7 0 2.2-5.8-3.3-3.6-3.5-4.1-4.2-1.6-2.3 2.1 1.6 4.1 2.9 4.5 2.9s1.1-1.4 1.4-3l.7-3 .1 2.7c0 1.6.6 2.8 1.3 2.8.6 0 6.2-2 12.4-4.5 6.1-2.5 11.7-4.5 12.3-4.5 2.7 0 .6-7.4-2.5-8.9-3.3-1.5-3-3.2.4-2.6 2 .3 2.9.1 2.9-.9 0-1.7-5.7-1.3-6.7.4-.4.7-1.8.8-3.4.4-2.6-.6-2.5-.8 2.6-2.6 8-3 8.8-3.1 8.8-1.9 0 .6.5 1.1 1.1 1.1s.9-.6.6-1.3c-.3-.8.5-1.3 2.2-1.5 2.4-.1 2.4 0 .9 1.2m-251.7 51.2c-1.3 14.6-1.4 46.4-.2 46.4.5 0 .9.6.8 1.2-.1 3.8.6 5 3.6 6.3 1.7.8 2.5 1.4 1.7 1.4-.8.1-2.2-.3-2.9-.8-.9-.6-2.2-.6-3.3 0-1.4.8-2 .4-3.2-2.3-.8-1.8-3.5-5.5-6-8.2-2.5-2.8-4.6-5.3-4.6-5.8 0-.4-.7-.5-1.5-.2-2 .8-2 .8 1.4-11 3.3-11.2 4.9-19.2 4.3-21.8-.2-.9-1.2-2-2.3-2.3-1-.4-1.9-1.3-1.9-2.1 0-1 .8-.7 2.8 1.1 2.3 2.2 2.7 3.3 2.7 8.3 0 3.1-.5 7.4-1.2 9.6-.7 2.1-1.3 5-1.3 6.5 0 1.4-.7 3.5-1.5 4.5-2.6 3.5-1.7 6.1 4.4 12.7l5.8 6.4-.1-26.8c0-14.7.3-26.8.7-27 .5-.1 1.1-2.2 1.4-4.5 1.1-8.5 1.4-3.1.4 8.4m11.7 25.4c.4 0 .8 2.5.9 5.5.2 4 1.1 7.2 3.6 11.9 6 11.3 7.6 12.6 7.8 6.2 0-2.6.2-2.8.8-1.1.5 1.1.4 3 0 4.3-1.3 3.5-1.1 5.2.7 5.2 1.3 0 1.4.3.5 1.3-.6.8-.8 1.7-.4 2.1s0 .4-1 .1c-1.1-.5-3.9 1-8.7 4.5-6.6 4.9-10.3 9-8.1 9 .5 0 2.7 1.7 4.9 3.7 2.2 2.1 6 5.7 8.6 8.1 2.5 2.4 4.6 5 4.6 5.8 0 .9-3.9-2.5-8.7-7.4-5.4-5.4-9.8-9.1-11.4-9.4-1.5-.3-4.7.5-7.5 1.8-6 2.8-8.4 3.1-5.6.6 1.8-1.5 5.2-10.9 5.2-14.1 0-.7-1-1.6-2.2-2.2-2.3-1-2.3-1-.1-.5 1.2.2 2.3-.1 2.5-.8s2.3-.9 6.8-.5c5.9.5 6 .6 1.8.7-5.6.2-6 1.3-2.6 7.3 2.3 4.2 3.2 4.7 4.5 2.6.4-.8 3.4-3.2 6.6-5.6 6-4.3 7-6.1 3.8-6.1-1.1 0-2.3-.4-2.6-1-.4-.6.6-.7 2.5-.4 2.4.5 3 .3 3-1.1 0-1-.7-2.6-1.5-3.5s-3.3-5-5.4-9.1-4.4-7.3-5.1-7.1c-.7.1-.8-.2-.4-1 .5-.7.8-4.6.7-8.8 0-4.1.1-6 .4-4.3.2 1.8.7 3.3 1.1 3.3m737.6 65.4c7.4 3.5 14.5 6.7 15.6 7.1 1.9.6 2.1.5 1.1-1.3-1.4-2.7-1.4-4.3.1-1.8 1 1.8 1.1 1.8 3-.5 1.9-2.4 1.9-2.4.8-.1-.9 1.7-.8 2.7 0 3.7.7.8.9 1.8.6 2.3s1.2 2.9 3.3 5.3c2.2 2.4 4.9 5.5 6.1 6.9l2.1 2.5-.6-7.5c-.3-4.4-.2-7.1.3-6.5s1.2 4.9 1.6 9.8l.6 8.7-7.7 7.4c-4.3 4.1-9.6 8.9-11.8 10.6-4.6 3.7-6.4 6.2-4.7 6.8.7.2 1.2.8 1.2 1.3 0 1.1-4.2-1.1-8.1-4.3-2.2-1.8-2.2-1.9-.1-.8 1.6.8 2.2.8 2.2-.1 0-.6.7-.8 1.6-.5 2.2.9 6.5-2.3 17.1-12.7l9.2-9-4.4-5.6c-2.3-3.1-5.4-6.7-6.9-8-2.8-2.6-3-2.5-4.1 4.3-.3 2.1-.9 3.6-1.1 3.3-.3-.3-.1-2.8.4-5.6.6-3.5.6-5.4-.1-5.9-.6-.4-8.1-4.2-16.6-8.4-8.6-4.2-15.3-7.7-14.9-7.7.3-.1 6.7 2.8 14.2 6.3m190.6 113c0 1.3 2.7 3.1 4.2 2.8.7-.2 3.8 7.2 3.8 9.3 0 3.7 1.8.9 4-6 1.8-5.7 2.8-7.5 4.2-7.5 2.2 0 2.3-.6-.8 7.1-4 10.3-5.5 16.6-4.3 19.6.5 1.4 1.2 2.3 1.5 2s.1-1.5-.6-2.6c-.6-1.2-.7-2.1-.2-2.1 1.1 0 2.3 4 1.6 5.1-.8 1.3-3.2-.1-3.7-2.2-.3-1-1.4-1.9-2.5-1.9-1.5 0-2.5-1.5-4.2-6.3-1.2-3.4-3.3-9-4.6-12.5-2.2-6-2.3-6.2-.4-6.2 1.1 0 2 .6 2 1.4m22.3 4.4c-.4 1.6.1 1.9 3.9 1.8 3-.1 5 .5 6.2 1.6 1 1 2.3 1.8 3 1.8.8 0 1.9.7 2.6 1.5 1.1 1.3 1.6 1.1 4-1.5 3.9-4.1 7.1-4.7 12.2-2 5.3 2.7 8.8 5.9 8.8 7.9 0 1.4-.1 1.4-1 .1-.8-1.3-1-1.2-1.1.5s-.2 1.7-.6.2c-.6-2.4-2.3-2.1-2.3.4 0 1.1-1.3 3.4-3 5.1-3.6 3.6-3.7 3.8-.6 3.8 1.5 0 3.3-1.1 4.5-2.6s2.1-2.3 2.1-1.8c0 1.8-4.5 5.4-6.7 5.4-1.5 0-2.2.4-1.7 1.1 1.1 1.8-3.6-1-8.6-5-3.8-3.1-5-3.6-7.5-3-1.6.4-2.6.7-2.1.8.4 0-.2 1-1.5 2-3.4 2.7-1.5 3.9 2.6 1.6 4.3-2.3 5.7-1.2 2.5 1.8l-2.4 2.2 1.8-2.3c2.2-2.6 1.5-2.8-1.9-.6-1.6 1-3.4 1.4-5.1 1-1.8-.5-2.4-.3-1.8.5.9 1.5-.7.6-5.4-2.9-2.2-1.7-3.1-3-2.7-4.1.3-.8.3-1.2-.1-.9-.3.4-1.3 0-2.2-.8-1.2-1.3-1.3-2.2-.4-5.1.6-1.9.9-4 .8-4.6-.2-.7-.1-.9.1-.4.8 1.2 2.3-.3 2.3-2.3 0-1-.6-2.1-1.2-2.3-.7-.3-.3-.6.9-.6 1.6-.1 2 .4 1.6 1.7"/><path d="M545.5 80.1c-.4.5-1 .7-1.5.4-1.2-.7-48.6 7.8-49.8 9-.5.4 7 5.5 8.1 5.5.5 0 2.1.8 3.5 1.8 1.5 1.1 5.2 3.2 8.2 4.8s7 3.9 8.9 5.2c2.2 1.4 4.2 2 5.5 1.6 1.2-.4 1.8-.3 1.4.1-1.3 1.4 12.8 10 19.7 12.1 4.1 1.2 4.5 1.2 4.5-.4 0-.9.5-9.1 1.1-18.1 1.1-16.9.7-23.1-1.4-23.1-.7 0-2 1.8-3 4-1.7 4-1.8 4.1-4 2.3-2.1-1.5-2.2-1.8-.8-3.3.9-.9 1.9-1.5 2.3-1.3s.9 0 1.2-.5c.2-.4-.4-.8-1.4-.9-1.1-.1-2.2.3-2.5.8M556.9 95.4c-.3 29.6-.5 27.6 2.4 27.6 2 0 21.2-6.5 46.1-15.7 4.4-1.6 8.1-3.4 8.3-4 .3-.9-12.4-7.3-14.6-7.3-.5 0-9.2-3.5-19.3-7.9-10.1-4.3-19.3-8.2-20.5-8.5l-2.3-.7zM477 91.8c-4.5.6-38.4 7.4-40.3 8.1-1.6.6-1.1 1.2 2.7 3.2 2.5 1.3 4.6 2.7 4.6 3.1 0 1.2-1.4.9-3.6-.7-2.4-1.8-3.5-1.9-3.2-.3.2.8-.5 1.2-1.7 1-3.3-.5-6.4-2.4-5.9-3.7.4-1-1.6-.9-8.8.2-12.7 2-13 2.4-6.9 6.1 2.8 1.8 5.4 3.2 5.6 3.2.3 0 4.9 2 10.2 4.6 10.6 5 14.7 6.2 15.7 4.5.4-.6 1.2-.9 1.7-.5.8.5 6.8-3.7 11.5-8.1.6-.5 3.3-2.8 6-5 2.6-2.2 6.7-5.7 9.1-7.7 2.3-2 5.1-4.2 6.1-5 1-.7 2.1-1.8 2.5-2.5.7-1.2.2-1.2-5.3-.5M592 114.4c-13.5 5.1-24.4 9.7-24.3 10.2s-1 1-2.5.9c-1.7 0-2.7.6-2.8 1.5-.1 2.6.9 3.5 1.7 1.4.7-1.8.8-1.8.8.2.1 2.7 4.5 5.7 7.4 5 1.2-.3 1.6-.3.9 0-1.5.7-1.4.7 13.8 8.7 20.2 10.6 24.4 12.6 24.9 12.1.3-.3-.3-1.3-1.4-2.1-1.6-1.3-1.7-1.5-.2-1 1 .4 1.7.1 1.8-.6 0-.7.3-2.1.5-3.2.3-1.1 1.1-6.5 1.9-12s2.1-14.1 3-19c1.8-11 1.8-11.5.3-11.4-.7 0-12.3 4.2-25.8 9.3M620.2 113.1c-1.1 6.1-2.4 16.6-3.8 29.4-.3 3.3-.9 7.7-1.4 9.8-.6 2.7-.5 4 .3 4.3 2 .7 11.6 3.2 28.7 7.4 9.1 2.2 18.5 4.7 21 5.5 2.5.7 6 1.7 7.9 2 3.2.7 3.3.6 2-1.2-.8-1.1-5-5.9-9.3-10.7-4.4-4.7-11-12.6-14.8-17.4S639.9 128.8 635 123s-10-11.8-11.3-13.4l-2.4-3zM396.8 112.7c-1.5 1.6-6.3 6.4-10.7 10.8-4.5 4.4-8.1 8.5-8.1 9.2 0 .6-.5 1.5-1.2 1.9-.8.5-.9.1-.5-1.2.4-1-1.1.1-3.3 2.5s-4 4.8-4 5.3c0 1.1 3.6.1 6.8-1.8 1.6-1.1 2.2-1.1 2.2-.2s.3.9 1.1.1c.9-.9 1.7-.9 3.1 0 1.7 1 2.2.8 3.5-1.1 1.6-2.3 4.3-2.8 7.2-1.3 1 .6 2.3.6 3.2 0 1-.6 1.1-.9.1-.9-.7 0-1-.5-.7-1 .3-.6 2.8-1 5.4-1s5.1-.3 5.5-.7 1.9-.9 3.4-1.1 2.9-.7 3.2-1.2 2.9-1.2 5.8-1.6c2.8-.3 5.2-1.1 5.2-1.6 0-1.2-2-3.2-4-4.2-.9-.3-.5-.4.8-.2 2.6.5 3-1.8.5-3.2-1.3-.8-1-1.1 1.7-1.7 2.4-.5 2.9-1 1.9-1.6-.8-.5-2.2-.6-3.3-.3-1 .4-1.6.2-1.3-.3.4-.6-1.1-1.9-3.2-3.1-3-1.7-4.9-2-10.1-1.6-3.8.3-6.6 0-7-.6s-1.7.1-3.2 1.7M336.3 161c-6.8 3.3-12.3 6.4-12.3 6.9 0 .6-1.6 1.5-3.4 2.2-1.9.7-3.2 1.7-2.9 2.2.3.6.1.7-.5.3-1.2-.7-8.2 2.1-9.4 3.8-.3.5-3 1.9-6 3.2-7.7 3.2-7.5 4.9 1.6 12.3 4.1 3.4 7.7 6.1 8 6.1.9 0 4.4-3.7 9.5-9.9 6.5-8 8.9-10.8 15.3-17.6 3.1-3.3 6.7-7.4 8-9 1.2-1.7 3.2-3.8 4.3-4.7 3.5-3 .3-1.9-12.2 4.2M346.3 162.7c-2.6 3.1-8.5 9.5-12.9 14.2-11.3 12-19.4 21.4-19.4 22.6 0 1.3 6.4 7.5 13.3 13 3.3 2.7 5.1 3.5 5.8 2.8 1-1 4.1-9.3 9-23.8 1.1-3.3 2.4-6.9 2.9-8 5.8-14.4 9.1-26.5 7.1-26.5-.5 0-3.1 2.5-5.8 5.7M615.6 162.8c.2 2 .6 5.7.9 8.2.4 2.5.9 6.1 1.1 8 1.3 9 5.7 31.8 6.7 34.7l1.2 3.2 7.7-5.8c4.3-3.2 10.4-8.2 13.7-11.2 7.1-6.5 7.8-7.1 16.1-13.4 8.5-6.5 12-9.7 12-11.2 0-.7-.2-1.3-.4-1.3s-6.2-1.6-13.2-3.5c-12.6-3.5-32.4-8.1-39.4-9.2-1.9-.3-4.2-.9-5.1-1.3-1.3-.7-1.5-.3-1.3 2.8M671.3 182.2c-2.8 2.4-6.6 5.4-8.4 6.8s-6.4 5.4-10.3 9-8.9 7.9-11.1 9.5c-9.3 7-14.8 12.2-14.1 13.4.4.6 2.8 2.1 5.4 3.4s14.3 7.1 26 13.1c11.8 5.9 21.6 10.5 21.9 10.2s.1-7.9-.6-16.8c-.6-9-1.1-22.2-1-29.4 0-13.4-.8-23.4-2-23.4-.4 0-3 1.9-5.8 4.2M592 187.3c-1.4.6-2.8 1.6-3.2 2.1-.3.5-1.5 1-2.6 1.1-2.6.2-10.2 6.3-10.2 8.1 0 .9-.4 1.2-1 .9-.5-.3-1 .3-1 1.5s-.4 1.9-.9 1.6-1.2.1-1.5 1c-.5 1.3-.9 1.4-2.1.4-1.3-1-1.5-.8-1.5 1.4 0 1.5-.5 2.5-1.2 2.3-.6-.1-1.4.6-1.6 1.5-.2 1.3.3 1.8 2 1.9 4.5.3 5.3.5 7.3 1.1 1.1.4 4.9 1 8.5 1.3s7.9.7 9.5 1c1.7.3 5 .7 7.3.9 2.4.3 4.6.7 4.9.9.2.3 2 .1 4-.5 2.7-.7 3.8-.7 4.4.3.4.8 1.1 1 1.6.6.4-.5.1-1.2-.6-1.6-.9-.6-1.1-1.8-.7-3.5.3-1.4.3-2.6-.2-2.6s-1.5-1.1-2.2-2.5c-.7-1.3-1.6-2.3-1.9-2-.4.2-.7-.5-.8-1.5-.1-1.1-1-2.9-2.1-4-1-1.1-3.6-4.5-5.8-7.5-4.2-5.8-4.5-6-8.4-4.2M294.6 190.2c-.3 1.3-.6 10.3-.6 20V228h2.4c1.4 0 3.6-.4 5-1 1.4-.5 2.6-.6 2.6-.1s-2 1.4-4.5 2.1-4.5 1.6-4.5 2.1c0 .4 3.8 4.8 8.5 9.6 9.7 10.1 9.8 10.1 14.8 1.1 6.6-11.8 10-17.4 11.5-19.1 1.4-1.5 1.3-1.7-.6-1.7-1.1 0-5.1.7-8.8 1.5-9 2.1-9.3 1.2-.3-1.1 11.5-3 11.5-2.9 1.4-11.7-8.8-7.7-10.5-8.8-10.5-6.5 0 .7-2.1 4-4.6 7.3-2.4 3.3-5.9 8.4-7.6 11.3-3.2 5.7-5.1 6.6-2.3 1.1 1-1.7 4.6-7.4 8.1-12.4 3.5-5.1 6.4-9.5 6.4-9.7 0-.6-14.7-12.8-15.4-12.8-.2 0-.6 1-1 2.2M471 196.1c-5.2 1.1-20.7 3.9-34.5 6.4-42.5 7.6-51.8 9.4-52.8 10.4-1.4 1.4.5 3.4 8.2 8.9 3.7 2.5 9.1 6.8 12.2 9.4s6.1 4.8 6.6 4.8 4.3 2.9 8.5 6.4c4.3 3.5 11.2 9 15.5 12.2 4.3 3.1 17.4 12.9 29.1 21.7s21.6 15.7 22 15.3.7-5.2.7-10.7c0-5.4.3-9.9.8-9.9.4 0 .7 5.1.7 11.4v11.3l11.3.6c6.1.4 15.1.9 19.8 1.3 10 .8 15.9 0 15.9-2.1 0-1 1-1.5 2.8-1.5 4.2 0 5.4-1.2 4.3-4.3-1.2-3.1-12.4-21.8-15.8-26.3-1.3-1.7-2.3-3.6-2.3-4.2s-.3-1.2-.7-1.4c-1.1-.4-24.4-36.2-28.3-43.3-.9-1.7-2.9-5.1-4.4-7.8-4.4-7.5-1.3-5.4 3.5 2.4 2.4 4 5.1 8.3 6 9.8.9 1.4 2.5 4.2 3.6 6.1 3.2 5.4 8.7 14.1 22.4 35.2 7 10.7 14.1 22.1 15.8 25.4 3.1 6.1 5.4 9.4 6.4 9.4.3 0 .8-1.7 1.1-3.8.9-5.6 4.5-49.6 5.3-64.2l.6-12.8-3.9-1.1c-2.1-.5-6.6-1.7-9.9-2.6s-11.4-2.9-18-4.5-17.3-4.4-23.8-6.2c-10-2.7-12-2.9-12.8-1.7-.5.8-.9 5.2-.9 9.9s-.5 9.2-1 10c-.7 1.1-1-1.2-1-7.5.2-14.5.2-14.5-1.7-14.4-1 .1-6.1 1-11.3 2M557.6 217.2c-.3 2.4-.8 8.8-1.1 14.3-.4 5.5-1.7 21-3.1 34.5-2.6 26.8-2.8 30-1.6 30 1.9 0 46.4-47.5 58-62 2-2.5 5.3-6.2 7.3-8.2 2.1-2.1 3.3-4 2.9-4.3-1.5-.9-33.9-5.4-50-7-3.6-.3-7.7-.8-9.2-1.1-2.5-.5-2.7-.3-3.2 3.8M365.9 214.4c-.2.2-6.9 1.2-14.9 2.1-8 1-14.9 2.2-15.5 2.6-.5.5-1 5.1-1.1 10.2-.1 5-.7 17.3-1.4 27.2-.6 9.9-1.3 22.3-1.5 27.5s-.6 10.6-.9 11.9c-.9 4 1.5.9 7.2-9.4 2.8-5 10.7-18.9 17.6-31s12.6-22.5 12.6-23c0-.6 1.8-4.8 4-9.3 2.2-4.4 4-8.4 4-8.7 0-.6-9.4-.7-10.1-.1M380.6 220.7c.2 2.6.5 28.1.8 56.6.2 28.5.6 52 .8 52.2.6.7 22.8-6.7 49.8-16.5 6.3-2.3 15.6-5.4 20.5-6.9 14.7-4.6 31.9-10.9 32.2-11.8.2-.4-.9-1.5-2.5-2.4-1.5-.8-7-4.9-12.2-9-12.4-9.7-40.9-30.9-51.1-38-4.4-3.1-8.5-6.3-9.2-7.2-1.3-1.6-26.5-20.7-28.3-21.4-.8-.3-1 1.2-.8 4.4M376.4 219.4c-.6.6-4 7-7.5 14.1-7.4 14.7-16 30.8-16.9 31.5-1.1.9-20 36-20 37.2 0 .5.4.8.9.8s6.5 3.3 13.4 7.4c6.8 4.1 16 9.3 20.3 11.5 4.4 2.3 9.1 5.1 10.6 6.3s2.9 2 3.1 1.7c.9-1-.9-108.5-1.8-110-.8-1.3-1.3-1.4-2.1-.5M329.2 226c-.6 1.6-2.9 5.6-5.1 8.9-2.3 3.3-4.1 6.4-4.1 6.8s-1.3 2.7-2.9 5.1l-2.8 4.3 6.8 20c5.9 17.7 7.7 22.3 8 20.8.7-4.4.7-29.9 0-29.9-1.1 0-.9-1.8.6-4.5s2.8-33 1.5-33.9c-.5-.3-1.5.7-2 2.4M626.4 228.5c-.8 5.9 1.3 42.9 2.8 46.7.9 2.3 1.2 4.9 1.8 13.8.8 12.5 1.3 16.9 2.1 18.1.6 1.1 2.1 0 6.3-4.6 3-3.3 7.2-8.5 9.2-11.5 2.1-3 5.6-7.5 7.9-10 4.8-5.2 20.7-25.7 22.4-28.8 1-1.8.5-2.4-5.2-5.5-10.4-5.8-39-19.5-42.2-20.3-1.6-.4-3.3-1.2-3.7-1.7-.3-.6-1 1.2-1.4 3.8M279.5 275.6c.4 1 1.4 3.9 2.2 6.4s1.7 5.2 2.1 6c.3.8 1.3 4.3 2.3 7.8.9 3.5 1.9 6.5 2.1 6.8.3.2 7.4 0 15.9-.6 8.5-.5 16.5-1 17.8-1h2.4l-2.6-2c-1.4-1.1-3-2-3.6-2s-1.1-.4-1.1-.8c0-1-6.1-3.3-7.1-2.6-.5.3-.6-.1-.4-.9.4-.8-.6-1.9-2.2-2.8-1.5-.8-3.4-2-4.1-2.7-.7-.6-1.9-1.2-2.6-1.2s-2.1-.8-3.2-1.8c-1-.9-5.7-3.7-10.3-6.1-6.7-3.5-8.3-4-7.6-2.5M488.3 299.1c.3 1.9 1.7 9.8 3.1 17.7 1.3 7.9 2.7 14.7 3.1 15 .3.4 2.1-.2 3.8-1.2 1.8-1 5.5-3 8.2-4.5 2.8-1.5 6.2-3.5 7.6-4.4 1.4-1 6.4-3.3 11-5.1 7.1-2.9 10.1-3.5 19.2-4 8.5-.5 11.4-.3 13.7.9 3.5 1.8 4 1.8 4 .4 0-1.1-8.9-11.3-10-11.5-.3 0-1.3-.4-2.2-.8-1.9-.8-5.6 1.2-16.8 9.2-3.3 2.4-6 3.9-6 3.4 0-1 4.3-4.4 13.3-10.7l4.7-3.3-8.7-.6c-4.9-.4-12.4-1.1-16.8-1.6s-13.4-1.2-19.9-1.5l-11.9-.7zM479 298.6c-1.9.7-12 4.2-22.5 7.8-26.4 8.9-67.4 23.2-70.7 24.5-1.6.6-2.8 1.6-2.9 2.3 0 .7-.2 2.3-.3 3.5s.1 2 .5 1.7c.5-.3 1.7.4 2.9 1.6 1.7 1.7 1.8 2.3.8 3.9-.7 1.1-2.3 2.3-3.7 2.6-1.7.4-2.1.9-1.2 1.4 1.9 1.2 1 6.6-1.1 6.5-1.4-.1-1.6.4-1.1 2.7.4 2.2.2 2.9-1 2.9-.9 0-1.6 1.2-1.9 3-.4 2.6-.1 3 1.8 3 1.3 0 2.7-.6 3.1-1.4s2.9-1.7 5.6-2.1c4.1-.6 4.7-.5 4.7 1.1s.2 1.5 2-.4c2.2-2.3 3.6-2.9 2.4-1.1-.4.7 1.6-.1 4.4-1.7 2.8-1.5 4.8-3.2 4.5-3.7s-.9-.4-1.3.3c-.6.9-1.2.9-2.9-.1-2.6-1.7-2.7-2.9-.3-3 1 0 1.2-.3.5-.6-.7-.2-1.3-.9-1.3-1.4 0-.6.4-.8.9-.5s1.4-.1 2.1-.9c1.9-2.3 8-1.9 10.7.7 1.3 1.2 2.3 1.7 2.3 1.1s-.6-1.4-1.2-1.7c-.7-.3.1-.5 1.7-.4 3.3.2 9.5-1.9 9.5-3.3 0-.5.3-.8.8-.8 2.1.4 3.7-.5 8.7-5.1 3-2.8 5.9-5 6.5-5 .5 0 5.2-4.2 10.4-9.4 8.5-8.4 16.8-16 27.6-25.4 4.1-3.6 3.8-4.3-1-2.6M476.4 306.2c-4.9 4.6-13.9 13-20 18.8s-13.7 12.5-16.8 15c-3.1 2.4-5.6 4.8-5.6 5.3 0 1.9 18.9-3.8 19.7-5.9.4-1.1 1.5-1.3 4.7-.9 5.7.9 9.6-.7 9.6-4 0-2.1.3-2.4 1.8-1.5 4.4 2.4 19.7 2.8 21.9.6 1.3-1.3-3.8-33.1-5.6-34.9-.5-.5-4.8 2.9-9.7 7.5M306 304.2c-8 .6-14.9 1.3-15.3 1.8-1.6 1.5 9 19.7 16.5 28.4l3.4 3.9 4.7-7.9c5.2-8.7 6.2-9.2 2-1.1-4 8-4.6 11.7-2.1 13.8 1.9 1.7 12.7 4.5 19.3 5.1 2.7.3 3 0 2.7-2.2-.3-2.9-2.8-17.5-4.6-27.3-.8-3.7-1.1-6.7-.7-6.7s2.2 7.6 4 17c1.9 9.3 3.7 17.4 4.1 17.9.4.7 3.5-.1 8.6-2.3 4.3-1.8 10.8-4.5 14.4-6s8.5-3.7 10.9-4.9l4.3-2.1-2.8-2.3c-1.6-1.3-7.4-4.6-12.9-7.5-5.5-2.8-14.4-7.8-19.8-11-5.3-3.2-10.1-5.8-10.6-5.8-.4 0-.6 1.5-.5 3.2l.3 3.3-1.1-3.3c-.6-1.7-1.5-3.2-2-3.2s-.6-.5-.3-1c.7-1.1-1.5-1.1-22.5.2M370 338c-5.5 1.7-19.6 8.2-21.4 9.8-1 .9-1.9 1.5-2 1.3-.2-.8-4.6 1-4.6 1.9 0 .5 1.4 1.7 3 2.7 1.7.9 3 2.1 3 2.5s.6.8 1.4.8 1.6.4 1.8.9c.4 1.2 9.4 8 12.4 9.3 3.5 1.6 4.8 0 3.6-4.5-.7-2.4-.6-3.9.1-4.6.6-.6.7-1.1.3-1.1-.5 0-.4-.6.1-1.3.6-.6 1.3-2.5 1.7-4s1.1-2.5 1.6-2.2c1.4.9 2.6-2.5 2.9-7.8.3-4.9.1-5-3.9-3.7M315.2 352.7c-.2 7.4-1.2 15.5-2.2 16.8-.7 1-3 10.5-3 12.7 0 .6 2.4-1.8 5.3-5.3 5.8-7.2 9.9-11.9 17.1-19.6 3.4-3.7 4.6-5.7 3.9-6.4-1-1-14.7-3.8-18.9-3.9-2 0-2.2.6-2.2 5.7M339 355.2c-.1 1.3-1.1 6.1-2.4 10.8-6.7 24.6-7.9 28.8-9.2 31.9-.8 1.8-1.4 3.6-1.4 3.8 0 .8 5.4-.7 6-1.6.3-.5 2.5-1.9 5-3.1s7.5-4.2 11.2-6.6c3.8-2.4 8.7-5.3 11-6.5 2.4-1.2 5.8-3.3 7.5-4.6 3.7-2.9 3.8-2.6-5.2-9.3-3.3-2.4-7.6-5.8-9.6-7.5-7.3-6.1-11.8-9.5-12.3-9.5-.3 0-.6 1-.6 2.2M335 355.7c0 .5-1.8 2.9-4.1 5.3-2.3 2.5-6.6 7.6-9.7 11.5-3 3.8-6.8 8.4-8.5 10.2-4 4.3-3.3 6.5 4.5 13.9l6.2 5.9 2.4-7.5c4.8-15.2 9-29.9 9.5-33.3.2-1.9.7-4 1.1-4.5.3-.6.2-1.3-.4-1.7-.5-.3-1-.2-1 .2M252 381.8c-1.9 3.7-5.3 9.8-7.5 13.7-2.2 3.8-5.3 9.9-7 13.5-1.6 3.6-3.2 6.7-3.5 7s-2.1 3.6-4.1 7.5c-4.2 8.3-5 9.9-7.4 14.3l-1.7 3.4 2.2-1.4c1.3-.7 3.8-2.2 5.6-3.3 1.9-1.1 7.3-4.5 12.1-7.5 4.9-3 9.7-6 10.8-6.6 4.2-2.2 11-6.7 11.8-7.8.4-.6.5-4.3.1-8.1-.4-3.9-.6-9.7-.5-12.9.4-10.4-.7-15-3.9-16.9-1.5-.9-3-1.7-3.2-1.7-.1 0-1.9 3.1-3.8 6.8M305.5 392.2c-.2.7-1.6 4.7-3.1 8.8-3.1 9.1-3.4 10.6-1.4 10.2.8-.2 6-1.9 11.4-3.9l9.9-3.6-6.9-6.4c-6.9-6.3-9.1-7.4-9.9-5.1M237.5 434.3c-3.8 2.3-8.8 5.5-11 7l-4 2.7 5-.5c3.3-.4 4.3-.2 3 .3-1.4.6 1.1 1.1 8.3 1.6 5.7.4 10.6.5 10.9.2.4-.3-.3-.6-1.5-.6-1.5 0-2-.5-1.6-1.5.4-.8 1.5-1.5 2.5-1.5s1.9-.4 1.9-.9 1-1.1 2.3-1.5c1.3-.3 2.9-1.7 3.7-3.1 1.2-2.2 1.1-2.7-.6-3.9-1.1-.9-3.4-1.3-5.6-1.1-2.1.2-3.8-.1-3.8-.6 0-1.7-2.5-.8-9.5 3.4M221.8 446.6c-.8.8 4.1 5 11.5 9.8l5.8 3.8 4.2-2c2.3-1.1 6.9-3.2 10.1-4.6 3.2-1.5 5.5-3.1 5-3.5s-8.2-1.3-17.1-1.9c-8.9-.7-16.8-1.5-17.6-1.7-.7-.3-1.6-.3-1.9.1M950.5 115.2c-1.1.4-8.2 2.4-15.9 4.2-7.6 1.9-14.2 3.8-14.7 4.3-.4.4 2 3.7 5.4 7.3s11.2 11.9 17.4 18.5l11.2 12 .1-17.9c0-9.9.2-17.7.4-17.5s.6 7.9.9 17.1.8 17.2 1.2 17.8c.4.7 1.9.9 3.8.4 3.7-.7 29.6-9.2 31.4-10.3 1.3-.7-13.6-15.3-27.7-27.1-4.1-3.4-7.4-6.6-7.3-7.1.2-.5-.4-.6-1.3-.2-1.3.5-1.5 1.5-1 4.7.5 2.7.4 3.8-.3 3.1-.5-.6-1.1-3.1-1.3-5.6-.3-4.2-.5-4.5-2.3-3.7M907.2 128.6c-4.1 1.3-9.4 3.4-12 4.5-2.5 1.2-8.4 3.6-13 5.4-7.6 2.9-8.1 3.3-5.6 3.9 2 .5 3 .3 3.6-.8 1.2-2.1 2.4-2 5 .4 2 1.8 2 2 .3 2-1 0-1.6.2-1.3.5 1.6 1.6 5.8-.9 7-4.1 1.2-3.5 2.2-4.2 3.3-2.4 1.3 2.1 5.4 1 7.7-2.1 1.3-1.7 2.2-3.5 2.1-4-.5-1.8 5.7-.9 7.7 1.1 2.2 2.2 2.6 5.5.9 6.6-.6.3-.9 1.9-.5 3.5.5 2.8.4 2.9-2.9 2.9-3.1 0-3.5.3-3.5 2.5 0 1.7.5 2.5 1.8 2.5 1.4 0 1.5-.2.2-1-1.2-.8-1.2-1 .5-1 4.6 0 9.5 1.3 9.5 2.6 0 1.9 1.9 2.7 3.4 1.4 1.6-1.3 1.5-3.8-.2-4.9-.7-.4 0-1.1 1.9-1.8 2.5-1 3.2-.9 4.8.9 1.2 1.2 2.1 1.6 2.6.9.7-1.2 5.2-.4 7.4 1.3 1.1.8 1.3.8 1-.1-.8-2.6-21.2-23.3-22.7-23.2-1 0-5 1.1-9 2.5M975.8 158.8c-11.7 4-16.3 6-15.5 6.7.7.6 6.6 3.4 13.2 6.2s16.7 7.3 22.5 10.1c16.6 7.8 20.2 9.3 20.7 8.8.3-.3-2.8-6-6.8-12.8-8.1-13.5-11.4-19.2-13.1-22.6-.6-1.2-1.8-2.2-2.7-2.1-.9 0-9.1 2.6-18.3 5.7M1014 202.5c-1.9 1.9-3.8 3.5-4.2 3.5-1.3 0-7.8 4.4-7.8 5.3 0 1.1 13 20.4 14.7 21.8 1 .9 1.3.6 1.3-1.2 0-1.3.5-7.4 1.1-13.4 1-10.5.6-19.5-.9-19.5-.4 0-2.3 1.6-4.2 3.5M1021.6 215.5c-.4 5.5-1.2 12.3-1.7 15.2-1.2 6.4-.3 8.2 6 11.4 2.5 1.3 4.9 2.5 5.2 2.6.5.3-6.1-30-7.9-36.2-.7-2.4-1-1.1-1.6 7M997.5 214c-.3.5-3.6 2.8-7.3 5s-8 5.2-9.7 6.5c-3.7 3.1-2.9 3.8 6.8 5.4 3.9.7 11.1 2.3 15.9 3.6 13.3 3.8 13.5 3.7 8.7-3.8-5.7-8.9-12.2-17.7-13.1-17.7-.4 0-1 .4-1.3 1M929 224.3c0 .7 18 35.9 18.9 37.1.4.6 3.6 6.5 7.1 13.1 3.4 6.6 7.3 13.6 8.6 15.5s2.4 3.9 2.4 4.5c.1.5 1.2 2.3 2.6 4 1.5 1.6 2.4 2.2 2 1.3-.3-1-.1-8 .4-15.5.5-7.6 1.1-22.9 1.3-34l.4-20.2-5.1-1c-16.8-3.1-38.6-5.8-38.6-4.8M978.2 234.1c.7 1.2 1.8 2.9 2.3 3.8.6.9 2.7 4.6 4.7 8.2s4.9 7.7 6.4 9.2c2.7 2.7 2.8 2.7 4.8.9 1.2-1 3.5-2.7 5.1-3.7 4.9-3 14.5-11.9 13.7-12.6-.9-.8-33.3-7.9-36.2-7.9-1.8 0-1.9.2-.8 2.1M974.6 240.1c-.4 2.8-.6 9.6-.5 15.1.1 9 .3 9.9 1.9 9.5 1.2-.3 2 .2 2.4 1.6.8 3.1-.5 7.9-1.9 7.3-1.8-.7-3.5 6.7-3.5 15.1 0 8.3.8 7.7 7.3-5.2 6-12 7.6-16.7 6-17.2-2-.7-1.6-6.1.6-7.5 1.8-1.1 1.8-1.5.6-4.4-1.3-3-11.4-19.4-12-19.4-.1 0-.5 2.3-.9 5.1M1015.1 244.7c-1.9 1.5-5.7 4.7-8.3 7-2.7 2.4-5.3 4.3-5.8 4.3-.6 0-1 .6-1 1.4s-.5 1.8-1.2 2.2q-1.05.75-.3-.6t-.3-.6c-.7.4-1.2.9-1.2 1.1 0 .5 11.1 5.5 12.2 5.5.6 0 5 1.8 9.9 3.9 4.9 2.2 8.9 3.5 8.9 2.9s-.7-3.5-1.6-6.3c-1.4-4.3-2-5.1-3.8-4.8-2.8.5-4.1-.6-4.9-3.9-.6-2.2-.3-2.7 1.5-3 3-.4 3.3-2.5 1.1-7.7l-1.8-4.2zM995 262.8c0 .5-.8 1.2-1.8 1.4-1 .3-2.5 2-3.4 3.9s-3.3 7-5.3 11.4c-5.5 11.7-9.5 20.6-9.5 21.1 0 1.1 3.4-.3 17.8-7.4 8.6-4.2 19.9-9.7 25-12.1s9.5-4.8 9.7-5.2c.3-.4-.5-1.3-1.8-2.1-2.7-1.8-21.2-9.3-24.9-10.2-1.4-.3-3.3-.9-4.2-1.2s-1.6-.2-1.6.4M1027.8 286.2c-7.1 17.3-7.2 17.3.5 17.7 6.1.3 10.1-1.3 8.9-3.6-.5-1-1.7-5.3-2.6-9.5-2.7-11.7-3.7-12.3-6.8-4.6M1027.5 306.9l-9 2.7.2 3.5c0 1.9-.1 2.6-.4 1.6-.8-2.8-1.9-2-7.2 5.3-5.9 8-6.3 9.7-2.1 7.5 1.6-.8 4.5-1.5 6.5-1.5h3.5l.1-4.8.1-4.7 1.2 4c1.4 4.8 4.1 5.8 6.8 2.4 1-1.3 3.4-5.1 5.3-8.4s4.3-7 5.1-8.3c2.1-2.8 1.5-2.8-10.1.7M1040 307.7q0 2.85-.9 1.5c-.6-1-2 .6-4.9 5.6-4.8 8.4-5.7 10.8-4 11 2.3.2 4.3.8 6.5 2 3.2 1.7 3.3 1.6 3.4-3.1l.1-4.2 1 3.5c.6 1.9 1.2 4.2 1.5 5 .2.9 2.2-2 4.6-6.7l4.1-8.2-4.9-4.6c-2.7-2.5-5.3-4.5-5.7-4.5-.5 0-.8 1.2-.8 2.7M950.3 317.5c-12.8 6.3-23.5 12-23.8 12.5-.5.7 21.1 12 23 12 .3 0 2.8 1.1 5.7 2.5 5.9 2.9 6.4 3 6.6 1.2 0-.6.9-4.1 2-7.7 2.3-7.4 3-4.4.8 3.8-1.5 6.1-2.3 5.8 11.6 4.1 5.8-.8 9.5-1.8 10.9-3l2.1-1.8-2.6-6.7c-1.4-3.7-2.4-6.9-2.2-7.1.1-.2 1.5 1.9 3 4.7 3.4 6.2 4.9 7.4 4.5 3.4 0-.7 3-2.6 6.8-4.3 2.4-1.1 12.6-13 15-17.5.8-1.5 1.1-3.2.6-3.6-.8-.7-15.5-2.3-32.8-3.5l-8-.6zM926.4 335.7c-1.9.4-2.1.9-1.7 4.6.3 2.3 1.1 4.7 1.8 5.2 2.2 1.8 2.8 5.4 1 6.1-1.4.6-1.5 1.7-1 7.8.6 6.4 1.5 10.3 1.5 6.4 0-1.1.6-1.4 2-1.1 1.5.4 2 0 2-1.3.1-1.8.1-1.8 1.4-.2 1.2 1.6 1.6 1.5 6.2-1.4 2.7-1.7 4.3-3.3 3.7-3.5-1.9-.7-1.6-2.3.3-2.3.9 0 2.2-.6 2.8-1.4s2.2-1.7 3.6-2.1c2.3-.7 2.4-.7 1 1.1s-1.4 1.8.8 0c1.5-1.3 1.9-2.2 1.1-2.7s-.5-1 .8-1.8c1.1-.5 2.2-.9 2.4-.8.3.1.2-.1-.1-.4s-5.2-2.7-11-5.3-11.7-5.4-13.2-6.2c-1.4-.8-2.8-1.3-3-1.3-.1.1-1.3.4-2.4.6M1060.1 346.3c-2.2 6.7-2.7 11.2-1.2 12.1.4.3 1.1 2.2 1.4 4.2.7 4 19.9 43.8 21.7 44.9.7.4.6-.5-.3-2.1-2.3-4.7-4.5-9.5-6.7-15.2-3.2-8.3-7.9-18-9-18.7-.6-.4-.8-1.5-.5-2.4.3-1 .1-2.9-.4-4.2-.9-2.1-1-2.2-1-.4-.1 1.7-.4 1.5-1.6-.9-1.7-3.3-2.2-7.2-.5-4.6.7 1 1-1.8 1-8.8 0-5.6-.2-10.2-.4-10.2s-1.3 2.8-2.5 6.3M974.8 347.4c-5.3.6-10 1.5-10.4 1.8-.3.4.6 2.2 2.1 4 3.9 4.8 25.7 26.8 26.5 26.8.4 0 .3-2.4-.3-5.3-.5-2.8-1-5.9-1.1-6.7 0-.8-.6-2-1.2-2.5-.6-.6-2-4.3-3-8.3-1.5-5.9-1.6-7.7-.6-9.3 1.4-2.2 2.3-2.2-12-.5M958.9 352.3c-.9.7-1.4 1.8-1.2 2.5.3.8-.1 1-1.3.5-1.2-.4-1.5-.3-1 .5.4.7.1 1.2-.8 1.2s-1.6.5-1.6 1.2c0 .6-.3.8-.6.5-.4-.4-2.4.3-4.6 1.5-2.7 1.6-3.5 2.4-2.6 3.1.9.5.5.6-.9.2-1.2-.3-2.4-.2-2.7.4-.3.5-3.1 2.3-6.1 4s-5.5 3.6-5.5 4.2.7.3 1.6-.5c2-2 3-2.1 1.4-.1-1.5 1.8-2.1 1.3 6.4 6.5 5 3 7.6 4 9.5 3.6 1.4-.3 2-.3 1.3 0-1 .5-1 .9-.1 2 .6.8 1.6 1.4 2.1 1.4.6 0 4.6 2.5 8.9 5.5l8 5.4-.5-4.2c-1.2-9.3-4.7-26.6-6.6-32.5-1.1-3.4-1.8-6.7-1.5-7.2.8-1.3.4-1.2-1.6.3M963.5 354.7c1.8 4.6 2.6 7.7 4.5 19.5 2.9 17.4 4.1 21.4 6.5 21 1.1-.2 3.3-1.6 5-3.1s4.8-3.7 6.8-5c2-1.2 3.5-2.7 3.1-3.2-.3-.5.3-.9 1.2-.9 1.5 0 1.4-.4-.6-2.5-1.2-1.3-2.8-2.2-3.4-1.8-.6.3-.8.3-.4-.2.4-.4-2.1-3.8-5.6-7.4-9.8-10.1-15.5-16.5-15.6-17.4 0-.4-.5-.7-1.1-.7-.7 0-.8.7-.4 1.7M1036.9 381.7c0 .5-.2 1.7-.4 2.8-1.5 8.7-2.5 20.8-1.8 21.4 1 .9 12.4 4.4 12.8 3.9.4-.4-6.1-26.3-6.9-27.7-.8-1.2-3.6-1.5-3.7-.4M1005.6 393.1c4.5 4.6 9.3 9.7 10.7 11.4 1.4 1.6 2.8 2.7 3.2 2.4.9-.9 1.5-14.3.7-15.6-.9-1.3-7.2-3.4-8.3-2.7-.5.3-.9.1-.9-.4s-2.1-1.3-4.7-1.6c-2.7-.4-5.7-1-6.8-1.3s1.6 3.1 6.1 7.8M997.6 391.6c.4 2.1 1.9 6.3 3.3 9.3 2.4 5.1 2.9 5.5 7.6 6.7 10.2 2.6 10.5 2.2 3.3-5.8-3.5-3.9-8.3-8.7-10.7-10.7l-4.3-3.5zM1044.1 425.8c-.5 1-2.1 4.8-3.4 8.3s-4.2 10-6.4 14.4c-4.3 8.4-4.7 12.2-2.4 21.3.5 2 1.2 5.8 1.6 8.4 1.1 8.5 3.6 6.3 3-2.7-.1-2.5.1-4.5.5-4.5.7 0 2.3-7.5 5.9-28 3.4-19 3.6-21.6 1.2-17.2M1044.3 443.5c-3.5 15.9-5.6 29.4-5 32.3 1.1 6.1 8 28.2 8.8 28.2s1.4-24.6 1.2-44c-.1-3 .1-4.3.4-2.8.2 1.6.7 2.8 1.1 2.8 2.6 0 18-4.5 17.6-5.2-.5-.8-15.8-8.8-16.8-8.8-.2 0 .2 2.3 1 5.2 1.8 7.1 1.1 7.1-1.5-.1-1.2-3.2-2.9-6.2-3.7-6.5-1.1-.4-1.3-1-.7-1.9.5-.6.6-3 .3-5.2-.5-3.7-.7-3.2-2.7 6"/><path d="M1082 442.2c-5.8.4-14.8 1.2-20 1.6l-9.5.8 9.7 4.7c5.4 2.6 10.5 4.7 11.4 4.7 1.8 0 17.7-9.5 19.5-11.6.6-.8.8-1.3.3-1.3-.5.1-5.6.6-11.4 1.1M1023.7 466.5c-2.5 3.8-5.5 8.1-6.6 9.5s-2.1 2.9-2.1 3.5c0 1.1 18.8 13 19.5 12.4.3-.4-5-28.8-5.8-31.4-.2-.5-2.4 2.1-5 6M1050.8 487.5c-.2 11.3-.1 20.5.2 20.5s3.6-2.8 7.4-6.2c5.5-5 6.5-6.3 5.2-7-.9-.5-1.6-1.5-1.6-2.3s-1.7-5.1-3.8-9.7c-2.2-4.6-4.4-10-5.1-12.1-.7-2-1.4-3.7-1.6-3.7s-.6 9.2-.7 20.5"/><path d="M1037.7 483.5c-.4 2.2-.7 5.7-.7 7.7s-.4 3.9-1 4.3c-.5.3-3.5 4.3-6.7 8.8-3.1 4.5-6.1 8.3-6.5 8.5s-.8 1.1-.8 1.9c0 1.1.7 1.4 2.4.9 1.4-.3 2.6-.1 2.8.5.2.7 4.5 1.2 11.8 1.4 6.3.2 11.6.7 11.7 1.2.4 1.1 8.6.8 9-.4.4-1.1-6.3-3.7-7.6-2.9-.5.4-1.2 0-1.5-.6-.5-1-.7-1-1.2-.1-.4 1-1 1-2.5-.1-1.5-1-3-1.1-5.7-.5-2 .5-4.4.8-5.2.8-1.4-.1 1.5-1 7.3-2.3 1.5-.4 2.7-1.1 2.7-1.7s-2-4.3-4.5-8.2c-4.3-6.8-4.4-7-1-3.2 1.9 2.2 3.5 4.3 3.5 4.7 0 .5.5.8 1 .8 1.2 0 .7-2.3-2.7-13.5-3.8-12.4-3.9-12.6-4.6-8"/></svg>