<svg xmlns="http://www.w3.org/2000/svg" width="1706.667" height="960" viewBox="0 0 1280 720"><path d="M0 360v360h517l.1-2.8c0-1.5.4-3.6.9-4.7.6-1.3.7-.3.3 2.7l-.6 4.8h37l-.3-2.2c-.2-1.3-.6-4.4-.9-6.9-.6-4.5-.7-4.6-3.7-4.3-1.8.2-3.5 1-3.9 1.6-.5.7-1.2.9-1.6.4-.4-.4 1-2.3 3.2-4.1 2.6-2.3 3.7-3.7 3-4.4-.6-.5-4.4-1.6-8.5-2.4-8.6-1.7-5.7-2.2 3.9-.7 3.5.6 6.5.9 6.7.8.4-.5-6.3-33.5-7.6-37.2-.5-1.6-1-3.6-1-4.5 0-3.1 1.9 1.1 3 6.9 2.2 10.8 4.3 19.1 5.1 19.5.4.3 1-.3 1.4-1.4.3-1.1 2.2-2.5 4.3-3.2 2-.6 4.1-1.8 4.5-2.6.5-.7 1.2-1.1 1.6-.9.4.3 1.4-1.9 2.1-4.9.8-3.3 1.9-5.5 2.7-5.5.7 0 1.3-.5 1.3-1.1s.9-.9 2-.6c1.4.4 2 0 2-1.2 0-1 1.4-2.8 3.1-4 1.7-1.3 2.7-2.7 2.2-3.1-2.2-2.2-35-11.2-35.9-9.9-.3.5-.2 2.6.1 4.6.3 2.1.2 3.1-.1 2.3s-1.4-3.1-2.4-5.1c-1.6-3.3-1.7-3.8-.2-7 .9-1.9 1.9-4.3 2.4-5.4.4-1.2.5-.2.2 2.2-.5 4.1-.5 4.2 3.3 5.8s23.4 7 30.6 8.5c4.6.9 4.2 2.6 6.1-24.5 1.2-18.1 1.2-21.2 0-22.6-2.1-2.3-1.8-4.5.3-2.4 1.6 1.6 1.9 1.3 4.7-4.1 3.5-7 9-18.8 12-26.1 1.1-2.9 2.3-5.3 2.6-5.3 1.3 0 .4 4.8-1.2 6.4-1 1-1.8 2.2-1.8 2.8 0 .5-3 7.3-6.7 15-5.5 11.5-6.4 14.1-5.2 14.9 1.2.7 1.1.9-.2.9-2.1 0-2.7 5.2-3.5 28.5l-.5 18 2.5 3c2.5 2.9 2.5 2.9 2 .5-.6-2.4-.5-2.4 2.5.7 2 2.1 2.9 3.8 2.5 5-.5 1.7-.5 1.7.9 0s1.5-1.6 2.1.8c1.1 4.3 2.4 2.8 1.5-1.7-.6-2.3-1.2-4.5-1.5-4.9-.2-.5-.7-3.2-.9-6.1-.4-3.7-.2-4.9.5-3.8.5.8 1 2.5 1 3.7 0 1.3.9 4.6 2 7.5s2 6 2 6.8c.1.8.9 3.2 1.8 5.2l1.8 3.7 1.1-4.2c8.1-30.6 12-47.7 10.9-48.6-.6-.4-4.1-2.3-7.8-4.1-3.8-1.8-6.6-3.5-6.4-3.7s3.1 1.1 6.6 2.8c7.3 3.6 10.2 3.3 12-1.1.7-1.7 1.5-2.9 1.7-2.6.2.2-.3 1.8-1.2 3.5-1.1 2.2-1.4 4.3-.9 6.9.7 3.4 7.8 21.1 12.4 30.7 1 2.2 2.8 6.6 4 9.7 1.2 3.2 2.6 6 3.1 6.3.5.4.9 1.2.9 2 0 .7 2.2 4.6 4.8 8.7 6.3 9.5 6.7 10.2 5.6 9.5-.9-.5-4-4.9-10.5-14.9-1.8-2.9-2.9-3.6-4.4-3.2-1.9.6-1.9.5-.2-.8 1.8-1.3 1.8-1.6-.3-6.8-1.2-3-3.4-8.2-4.9-11.5s-4.7-10.8-7.1-16.8c-2.4-5.9-4.6-10.7-5-10.7-.7 0-1.4 2.5-7 27.4-2.1 9.4-3.7 17.3-3.4 17.7.2.4 0 1-.6 1.4-.5.3-1 1.5-1 2.6s.3 1.8.8 1.6c.4-.3 3.9-.7 7.7-1l7-.5-5 1.5c-2.7.8-5.8 1.5-6.7 1.4-1 0-1.8.2-1.8.5 0 .6 13.1 6.7 18.2 8.5 2.1.7 3.6 1.4 3.4 1.6s-4.4-1-9.4-2.7c-12.2-4.1-12.9-4-9.7 1 1.4 2.2 2.5 4.2 2.5 4.4 0 .8 11.3 18.9 15.8 25.3l4.4 6.3h53.4c30.7 0 53.4-.4 53.4-.9s.7-1.2 1.6-1.5c1.2-.4 1.5-.2 1 .9-.5 1.3 3.5 1.5 33.4 1.5 18.7 0 34-.3 34-.8 0-.4-.7-1.8-1.6-3-.9-1.3-1.4-2.5-1.2-2.8.3-.2 1.3 1.2 2.4 3.1l1.9 3.5h217.1c172.9 0 217.3-.3 217.7-1.3q.6-1.35.6 0c.1 1 4 1.3 16.1 1.3h16V0H0zM506 71.5c5.2.9 12.4 2.5 16 3.5 3.6 1.1 8.4 1.9 10.8 1.8 2.7 0 4.8.5 5.5 1.4 1.3 1.7 11.7 6.2 36.7 16.2 19.3 7.6 19.6 7.7 19.2 5.2-.2-1.1.1-1.5.7-1.1.6.3 1.1 1.1 1.1 1.8 0 1.2 6 7.7 7.1 7.7 1.2 0 17.3 10 18.9 11.8 1.7 1.8 1.8 1.8-11.1-6.1-4.2-2.6-8-4.7-8.5-4.7s-.4.4.1.8c1.2.9 11.7 13 17 19.7 5.5 7 6.4 7.9 11.5 13.4 2.5 2.6 7 7.9 10 11.6 3 3.8 7.8 9.2 10.5 12.1l5 5.3 12-6.2c6.5-3.4 12-6.7 12.1-7.2.3-1-17.4-13-30.6-20.8-9.7-5.7-26.7-16.7-25.9-16.7.7 0 10.6 5.9 19.4 11.5 17.7 11.2 27.1 17.2 29.6 18.6 1.6.9 3.6 2.2 4.5 3 1.3 1 1.7 1 2.4 0 .6-1.1 1-.9 1.9.7.9 1.7 1.8 1.9 5.3 1.6 4.2-.4 4.2-.4 1 .6-2.9 1-3.1 1.4-2.6 3.8.4 1.5 1.5 4.3 2.6 6.2 1 1.9 1.8 4.2 1.8 5-.1.8-.7 0-1.6-1.9-1.9-4.5-2.6-3.5-1.5 2.3.5 2.6.5 4.4.1 3.9-.4-.4-1.3-4.2-1.9-8.3-.7-4.1-1.4-7.6-1.7-7.9s-1.5.1-2.7.9-6.5 3.5-11.9 6.1c-5.3 2.7-10 5.3-10.4 6-.7 1.1 5.2 7.3 16.1 17 2.2 1.9 4.7 4.4 5.5 5.4.8 1.1-3.1-2.2-8.8-7.3s-11.2-9.7-12.3-10.2c-1.7-1-1.9-.7-2 2.2-.1 4.5.1 13.4.6 25.5.3 5.7.1 10.3-.4 10.3-.8 0-2.1-18.9-2.1-31.7 0-4-.4-7.3-1-7.3-.8 0-25.4 20-27 21.9-.3.3-3.2 2.4-6.5 4.6-6.3 4.2-8.5 6-8.5 6.9 0 .3.7.3 1.5 0 2-.8 2 2 0 3.6-1.1.9-2.2 1-3.8.3-1.9-.9-2.9-.5-6.1 2.2-2.1 1.8-3.6 3.7-3.2 4.3.3.6 8.8 5.1 18.9 10 29.5 14.5 35.1 17.1 35.9 16.6.5-.3.8-7.2.8-15.5 0-9.3.4-14.9 1-14.9s1 6.1 1 16.2c0 15.2.1 16.3 2.2 18.5 1.8 2 1.9 2.3.5 2.3-.9 0-1.7-.5-1.7-1 0-2.5-3.8-.5-7.2 3.8-10.9 13.7-20.7 25.6-27.3 33.2-4 4.7-9.2 10.9-11.4 13.7-2.3 2.9-4.6 5.3-5.2 5.3-1.3 0 .2-1.9 10.6-14.1 4.4-5.2 8.7-10.3 9.6-11.4 8.1-9.6 13.2-15.9 17.2-21 2.6-3.3 5.9-7.4 7.3-9.2l2.6-3.2-6.9-3.4c-3.7-1.9-14.2-6.9-23.3-11.1-20.2-9.4-19.7-9.2-24.1-10.9l-3.5-1.4.3 5.1c3.2 55 6.4 83.6 9.4 83.6.5 0 4.8-1.8 9.5-4.1s8.7-3.9 9-3.7c.4.5-14.6 8.1-18.4 9.2-1.7.6-2 1.1-1.3 2 .8 1 .3 1.2-2.3 1.2-2.2-.1-3.2-.5-2.9-1.4.3-.6 0-1.2-.6-1.2-1.8 0-42.4-7-46.1-8-1.9-.5-7.8-1.6-13-2.5-5.2-.8-11-1.8-12.9-2.1l-3.4-.6 6 6.9c3.4 3.7 7.8 8.7 9.9 11 5.9 6.3 8.3 9.3 7.6 9.3-.4 0-.2.4.3.8.6.4 3 3 5.5 5.6 3.2 3.6 3.7 4.3 1.5 2.7l-3-2.3-.3 2.8-.4 2.7-1.2-2.4c-.6-1.3-1.9-2.5-2.9-2.7-1.3-.3-1.7.4-1.7 2.7 0 1.7.5 3.1 1.1 3.1s.8.9.4 2.1c-1.1 3.2-.8 14.3.3 14.7.6.2.7 1.7.2 3.8-.7 3.1-.6 3.4 1.1 2.9 1.6-.5 1.9-.1 1.8 2.7 0 3.1-.1 3.2-1.1 1-1.6-3.3-2.5-2.7-4.2 2.5-3.2 10.2-4.1 12.3-5.3 12.3-1.5 0-11.4 8.6-12.8 11.1-.8 1.4-1.1-1.2-1-9.4 0-9.2-.3-11.7-1.8-13.9-1.1-1.5-1.6-3.2-1.2-3.8.3-.5.1-1-.5-1s-.8-.5-.5-1c.3-.6 0-1-.7-1-.9-.1-.7-.5.5-1.4 1.6-1.3 1.6-1.4-.5-2.9-1.9-1.3-2-1.8-.9-2.6 1.1-.7 1.2-1.5.3-3.8-1.7-4.4-2-17.5-.4-18.1 2.2-.7 11.9 10.1 13.1 14.5 1.3 4.7 3.7 8.3 5.7 8.3.8 0 1.4.7 1.4 1.6s-.5 1.3-1.2.9-.2.3 1.1 1.4c1.3 1.2 2.7 2.1 3.1 2.1 1.2 0 2.3-3.8 1.5-5-.4-.6-.7-4.4-.6-8.5.1-6.5-.2-7.4-1.9-8-1.1-.4-4.3-3-7.1-5.8-4-4.1-5.2-4.8-6-3.7-.7 1.2-.9 1.1-.9-.6 0-2.2-1.9-4.4-4.2-4.8-.7-.1-2.6-.9-4.3-1.7-1.6-.9-4.9-2.1-7.3-2.9-2.3-.7-4-1.5-3.8-1.8.3-.2 3.6.5 7.5 1.7 8 2.4 8.1 2.4 8.1 1.1 0-1.8-12.9-7-17.1-7-4 0-4.8.7-2.7 2.8 1.5 1.5.3 1.6-2.2.2-1.5-.8-2.6-.2-6 3.8-3.2 3.6-3.7 3.9-1.9 1.2 1.3-1.9 2.7-3.7 3.1-3.8 1-.5 1.1-4.2.1-4.2-.5.1-3.3 1.6-6.3 3.5s-6.5 3.9-7.7 4.5c-2.6 1.1-3.2 2.5-.7 1.6 1.4-.5 1.5-.4.5.8-1 1.1-1 2 0 3.8.9 1.9.9 2.1-.2 1-1.9-1.7-2.8-1.5-2.2.6.5 2.1-3.3 9.2-5 9.2-.6 0-2.1-1.2-3.2-2.6l-2.1-2.7 2.4-2.6c1.3-1.4 3.6-3.4 5-4.4 3.5-2.4 2.1-1.9-5.4 2-6.2 3.2-7.4 4.6-7.4 8.6 0 1.2-.4 2.8-.9 3.6-.6.9-.8-.2-.5-3.2.4-4.4.3-4.7-1.9-4.7-1.3 0-11.7 2.1-23.3 4.6-11.5 2.5-23.3 5.1-26.2 5.7-4.3.9-5.2 1.5-4.9 2.9.6 2.2 0 2.3-1.9.4-1.2-1.3-1.9-1.3-4.7-.1-5 2.1-34 17.5-35.7 19-.8.7-3.8 2.4-6.7 3.9-5.9 2.9-7.1 4.2-4.6 5 5 1.5 42.7 9.6 47.4 10.1 3 .4 7.4 1.3 9.9 2 2.5.8 9.2 2.4 15 3.6s14.1 3 18.5 4c4.3 1 8.1 1.6 8.4 1.4.5-.5-18.2-20.1-32.8-34.5-4.7-4.7-9.3-9.4-10.1-10.5-2.1-2.9 17.9 16.4 29 28 15.9 16.6 19 19.3 19 16.5 0-.6.7-1 1.6-1 1.4 0 1.4.3.4 1.5-1.1 1.3-.5 1.5 4.5 1.5 3.2 0 5.6.2 5.4.4-.9.9-14.8 1.4-15.1.6-.2-.4-9.7-2.7-21.3-5-24.5-4.8-24.7-4.8-43-9-29.4-6.7-42.7-8.9-44.2-7.5-.7.8-1.3 2-1.3 2.7 0 2.2-5.1 22.2-6.1 23.8-1.1 1.8-.5-1.3 2.1-11.5 2.3-9.1 3.2-14.5 2.5-14.5-.3 0-5 2.5-10.3 5.7-20.6 12-25.3 14.5-25.8 14s3.1-2.9 9.6-6.4c8.4-4.5 24.9-14.5 25.9-15.7.8-1-.4-2.4-5.2-6.2-14.5-11.6-23.7-18.5-23.8-17.7 0 .4-.2 1.5-.4 2.3s-.8 4-1.3 7c-.6 3-2.9 11.8-5.1 19.5-2.3 7.6-4.1 14.6-4.1 15.5s-.6 2.2-1.2 2.9c-1.1 1.1-.8 1.2 1.5.7 3-.7 3.8.8 1 1.9-1.6.6-1.5.8.7 2.1 2.4 1.4 2.3 1.4-1.8 1-2.4-.3-4.6-.7-4.9-.9-.3-.3-2.3.1-4.4.8-2.2.8-3.7 1-3.4.5s2.1-1.4 4-2c3.2-1 4.9-3 2.6-3-.5 0-3.4-2.5-6.5-5.6-7.6-7.4-8-7.2-11.7 5.4-1.2 4-2.4 7.1-2.6 6.8-.3-.3.2-2.7 1-5.4.9-2.7 1.7-6.4 1.9-8.3.1-1.9.6-4 1.2-4.8 1.1-1.5-1.4-1.1-9.8 1.3l-4 1.2-1.2 7.8c-.7 4.3-1.5 8-1.8 8.3-.2.3-.3-3.7-.1-8.8.5-9.1.4-9.3-.9-5.2-.8 2.2-1.6 7.5-1.9 11.7-.2 4.2-.8 7.5-1.3 7.4-.5-.2-.8-1-.7-1.8.5-3.2 2.3-19.6 2.3-21.2 0-3.3-2.9-.7-4.2 3.6-1.7 6-2.2 1.8-.5-4.6 1.9-7.3.8-9.8-2.7-6.2-1.8 1.7-2.1 8.5-.6 11.3.6 1.3.5 2.4-.5 3.7-1.6 2.1-1.9 6.2-.6 8.2.5.9 1 0 1.5-2.9.4-2.3.9-3.9 1.3-3.6.3.4 0 4-.7 8.1-.9 5.5-1 8.2-.1 10.7 1.2 3.8 4.7 21.1 5.5 27.8.3 2.4 1.1 5 1.7 5.7.7.8.9 3.1.6 5.4-.3 2.2-.1 4 .4 4s.9 1 .9 2.3 2.7 7.6 6 14.1c3.3 6.6 5.8 12.1 5.5 12.4-.7.8-.7.8-7-12.2-6.4-13.3-9.4-23.1-9.9-31.5-.3-6.4-3-19.9-4.1-20.9-.4-.4-.5.6-.1 2.3.9 4 2 32.1 1.2 31.4-.3-.3-.7-2.5-1-4.9-.5-6.5-2.6-6.3-2.8.2-.1 4-.2 4.4-.5 1.8-.7-5.4-1.9-5.6-3.2-.6-.6 2.5-1.5 4.8-2.1 5.1-1.3.8-1.3.7.6-4.9.9-2.6 1.4-4.9 1.1-5.2-.7-.7-17.7 7.7-17.7 8.8 0 .4 3.4 1.8 7.5 3s7.3 2.4 7.1 2.6-3.5-.4-7.3-1.3c-7.1-1.7-12.6-4-15.4-6.5-.9-.8-3.9-3.3-6.7-5.5-8.3-6.5-5.9-6.1 2.7.5 4.4 3.3 8.5 6 9 6 1.7 0 20.2-9.2 19.7-9.7-.3-.3-5.4-.9-11.3-1.3-5.9-.5-14.5-1.2-19-1.6l-8.3-.7v2.9c0 2.2-.3 2.6-1 1.4-.5-.8-1-2.5-1-3.7 0-2.2 5.9-15.7 17.5-39.8 12.1-25.3 19.4-43.6 20.4-51 1.2-9.3.7-21.6-1.3-29-2.3-8.4-1.9-9 1-1.5 4.9 12.7 6.1 9.3 1.7-4.9-1.4-4.7-3-8.8-3.3-9.1-1.4-.9-2.2-8.8-1.1-9.5.7-.4 1.1.4 1.1 1.9 0 1.4.4 2.7.9 3s1.2 2.5 1.5 4.8c.4 2.4 2.4 7.7 4.4 11.8 3.1 6.2 4.2 7.6 6.3 7.8 3.6.4 6.3-2.3 4.8-5-.6-1.1-.8-2.2-.6-2.5.3-.2.8.5 1.2 1.6.9 2.8 3.3 2.7 3.8-.2.3-1.7.5-1.5.6.8.1 3 .3 3.1 6.8 4.2 3.7.7 6.9 1 7.1.8s-1.1-3-3-6.2c-1.8-3.2-4.5-8-5.8-10.7-1.4-2.6-3.5-5.5-4.8-6.4-1.5-.9-1.9-1.8-1.2-2.2 1.1-.7-2.5-19.6-5.4-27.5l-1.4-4-.7 3c-2.3 9.5-3.5 13.7-4.5 15.2-.8 1.5-.9 1.2-.4-1.2.3-1.7 1.2-5.1 2.1-7.7.8-2.6 1.2-5.7.8-6.8-.3-1.1-.2-2 .3-2 .6 0 1.3-1.8 1.7-4s1.5-5 2.4-6.2c1-1.3 3-5.5 4.6-9.3 1.5-3.9 3.8-9.4 5.1-12.4 1.4-3 2.2-5.6 2-5.8-.8-.8-8.4 4.7-8.9 6.4-.3 1-.8 4.3-1.2 7.3-.3 3-1 6.2-1.5 7-1.3 1.9-.1-12.8 1.2-15.3.5-1 3.1-10.6 5.8-21.4 2.7-10.7 5.2-19.8 5.6-20.2.4-.3.4.5.1 1.9s-1.5 6.5-2.6 11.5c-1 4.9-2.7 11.7-3.6 15s-1.9 7.1-2.2 8.4l-.6 2.3 4.3-2.8c2.3-1.5 4.6-3.9 5.2-5.3.5-1.5 1.2-13.8 1.4-27.5.2-13.8.7-25.2 1.1-25.5.5-.3.9-1.5 1.1-2.6.1-1.1.6-3.4 1.1-5 .7-2.2.8-1.3.4 3.5l-.5 6.5 2.1-2.5c1.1-1.4 4.6-6.8 7.7-12 3.2-5.2 7.9-12.9 10.6-17 2.6-4.1 4.8-7.9 4.8-8.5 0-.5 3.2-3.9 7.2-7.5 10.1-9.1 31.7-29.4 35.1-33 1.5-1.6 4.2-3.6 6-4.4 5.6-2.5 14.9-5.7 15.4-5.2.2.2-2.2 1.4-5.4 2.6-8.9 3.3-12.3 5.7-12.4 8.8-.2 2.4-.2 2.4-.6.4-.2-1.2-.7-2.2-.9-2.2-.5 0-4 3.2-23.9 22.2-3.8 3.6-8.9 8.3-11.2 10.3-2.4 2.1-4.3 4.1-4.3 4.5 0 .9 15.1 8 17 8 .8 0 3.4.9 5.7 1.9l4.1 1.9 2.1-2.2c1.2-1.2 2.1-3.2 2.1-4.4 0-1.1.4-2.3.8-2.6.4-.2.6 1.2.4 3.2l-.4 3.7 8.3-8c4.6-4.4 13.8-13.1 20.3-19.4 11.2-10.6 11.9-11.4 10.1-12.7s-1.6-1.4 1.4-.8c2.8.6 3.7.2 6.9-2.8 4-3.8 15.5-13 21.1-16.8 6.2-4.3 2.4-.5-5.6 5.6-4.3 3.2-8 6.1-8.3 6.4-.3.4-2.2 1.9-4.2 3.4-4.7 3.5-4.8 4.7-.5 3.6 4.1-1 12.9-2.8 47.1-9.5 15.4-3.1 28.1-5.7 28.3-5.8.4-.4-8.7-8.9-12.9-12.1-2.1-1.6-3.8-3.3-3.8-3.8 0-1 15.6 11.5 17.6 14.1 1.3 1.7 2.1 1.6 31.4-4 11.8-2.2 23.4-4.3 25.8-4.6 5.9-.8 6.1-2.1.5-2.8-2.7-.4-5.9-1.1-7.3-1.6s-7-1.8-12.4-2.9c-5.5-1.1-10.2-2.3-10.5-2.7-.3-.3.5-.3 1.9 0s6.8 1.3 12 2.2m396.5 45.9c1.8 1.3 3.4 1.1 13.5-1.5 6.3-1.7 13.9-3.6 16.7-4.3 2.9-.7 5.9-1.9 6.7-2.5 1.6-1.3 6 .7 37.6 17.7 23.9 12.8 35.2 19.3 34.7 19.8-.2.3-5.8-2.6-12.3-6.2-15-8.5-50.7-27.4-51-27.1-.2.2 9.9 9.5 29 26.8 8.2 7.4 5.5 6.6 29.5 8.5 7.6.6 8.4.5 7.8-1-.9-2.3.1-2 3.9 1.3 1.8 1.6 2.8 3.1 2.2 3.3-.8.3 1 4.7 4.5 11.7 3.2 6.3 5.5 11.6 5.3 11.9-.3.2-1.3-1.4-2.2-3.7s-1.9-4-2.1-3.7c-.3.3 1.2 5.4 3.4 11.3s6.5 18.9 9.7 28.8c9.9 31.1 11.1 34.5 11.7 34.5.4 0 1-1.7 1.3-3.8.4-2 1.1-4.9 1.7-6.4 1.3-3.2.3-5.6-17.5-43.1-3.1-6.5-5.6-12.1-5.6-12.5.1-1 4 4.1 4 5.2 0 1.7 6.4 14.6 7.2 14.6.4 0 .8.6.8 1.2 0 1.3 9.3 22.9 9.6 22.5.1-.1-.9-5.4-2.2-11.7s-2.7-12.9-3-14.5c-.5-3.2-1-5-4.8-19.5-1.4-5.2-2.8-10.8-3.2-12.3-.4-1.6-1.3-3.1-2-3.4-.8-.3-1.4-1-1.4-1.6s.9-.3 1.9.8 3.5 7.4 5.6 14c2 6.6 5.6 18.1 8 25.5s5.3 17.1 6.6 21.5c1.2 4.4 3 10.9 4 14.4 1.1 3.5 1.7 6.6 1.5 6.9-.3.2-1.7-3.6-3.1-8.4-1.5-4.9-3.7-12.3-5-16.4s-2.8-9.5-3.5-11.9c-.6-2.3-1.3-4.1-1.6-3.9-.4.5 1.4 10.4 4.2 21.8 1.7 7.2 8.3 22.2 9.4 21.5 1.6-1 4 11.5 4.2 22.2.2 6.1 0 10.7-.3 10.1-.4-.6-1 1.8-1.3 5.3-.4 3.5-1.1 9.8-1.6 13.9-.8 7.1-.8 7-.3-2.4s.4-10-1.7-11.6-2.2-2.2-1.5-9.1c.8-7.4 2.3-7.5 2.4-.2.2 6.1 1.9 3.4 2.6-4 1.2-12.3.9-12.9-6-15.4-3.3-1.2-6.6-2.2-7.3-2.2-1-.1-1.1 5.1-.8 25.1.3 13.9 1 26.8 1.5 28.7 1 3.2.9 3.3-.7 1.7-1.7-1.5-2.1-1.3-5.4 2.2-2 2-4.6 5.3-5.7 7.2l-2.1 3.5.6-3.1c.5-2.8.1-3.5-3.8-6.6-6-4.9-9.1-6.4-9.6-4.8-.3.9-.6.9-1.2 0-.5-.8-2.9-.6-9.6 1-11.7 2.9-12.6 3.4-11.4 6.6 1.3 3.3 1.3 4.7 0 3.9-.5-.3-1-1.7-1-3.1 0-1.3-.4-2.4-.9-2.4-.4 0-3.3 3.7-6.2 8.2-6.1 9.2-6.9 10.8-4.8 9.2.8-.6 2.8-1.5 4.4-1.9 1.7-.5 3.3-.9 3.8-1 .4-.2 1.8-.3 3.2-.4 2.1-.1 2.5-.6 2.5-3.4l.1-3.2 1.7 2.7c2.8 4.6 5.2 3.6 10.2-4.2 7-11 7.4-11.2 2.5-1.2-2.5 5.2-4.1 9.1-3.5 8.7.7-.4 2.2-.3 3.3.3 3.9 1.7 7.8 3.2 8.6 3.2.5 0 .5-1.8.1-4s-.3-4 .1-4c.5 0 .9.8.9 1.7.1 1 .9 3.3 1.8 5.1l1.8 3.3 2.8-5.1c3.7-6.8 4.5-5.7 1.2 1.6-2.7 5.9-2.7 6.6.2 7 .9.2 3.2.6 5 .9 2.7.5 3.2.3 3.2-1.3 0-1 .4-2.2.9-2.8.5-.5 1.1-1.8 1.4-2.9.2-1.1.3-.2 0 1.9l-.4 4 2.3-2c1.2-1 3.4-2.9 4.8-4.2 1.3-1.2 2.9-2.2 3.5-2.2.5 0-1.9 2.5-5.3 5.6l-6.3 5.7.7 6.1c1.2 10.8 1.6 10.8 6.8-1 6.4-14.5 6.9-17.7 5.3-32.4l-.6-5.5 1.1 5.5c.5 3 1.5 5.8 2.1 6.2s.8 1 .5 1.3c-.4.4-.3 1.7.2 3 .5 1.4.4 3.6-.5 6.1-2.2 6.2-1.6 7.3 1.1 2.1 1.3-2.6 2.6-6.4 2.8-8.5.2-2 1.3-6 2.5-8.7 1.9-4.3 2.1-6.1 1.6-12.8-.4-4.3-1.1-9.2-1.6-11-1.2-4.1-1.2-5.4 0-4.2 1.1 1.3 5.5 26.4 4.7 27.2-.3.4-.6-.5-.6-1.8-.1-2.1-.2-2-1.5 1-.8 1.8-1.5 4.4-1.5 5.7 0 1.2-.4 2.6-1 2.9-.5.3-1 1.6-1 2.8s-1.2 5.2-2.7 9c-2 5.2-2.4 7-1.5 7.9s1.2.8 1.2-.5c0-.9.5-1.7 1-1.7 1.8 0-.1 5.3-3.3 9.4-2.9 3.7-3 4.1-2.4 11 .5 5.9 1.5 9 5.8 17.6 2.8 5.7 5.2 11 5.3 11.7s.8 1.9 1.4 2.5c1.5 1.5 1.6 3.2.1 2.3-.5-.4-.3 1 .7 3.2.9 2.1 1.9 4.7 2.2 5.7.8 3 5.2 10.3 5.2 8.8 0-3.1 2.4.9 10.5 17.4 7.8 16 8.4 17.9 7.5 20.7l-1 3.2.5-3.3c.4-3.1.3-3.3-2.3-3-2.4.3-2.7.7-2.5 3.8l.2 3.5-1.2-2.8-1.3-2.8-3.5 2.4c-1.9 1.2-6.3 4-9.9 6.2-3.6 2.1-6.7 4.2-7 4.6-.3.3-1.5 1-2.8 1.4-1.7.5-2.2 1.2-1.7 2.3.5 1.4.4 1.5-.6.4-1.6-1.5-2.9-1.6-2.9-.1 0 1.3-2.9 3.8-4.4 3.9-.5 0-.1-.9.9-2 1.8-2 1.7-2-4.2-2-3.3 0-6.7.6-7.7 1.3-1.6 1.2-1.3 1.5 3.2 4 3.1 1.7 5.3 2.4 5.7 1.7.3-.5 1.4-1 2.3-1 1.4 0 1.4.2-.2 1.3-2.5 1.8-3.3 9.9-1.4 12.9.8 1.3 2 5.5 2.7 9.5s1.9 7.7 2.7 8.4c1.1.9 1.4.8 1.4-.2-.1-1.8-3.5-14.5-4.9-18.2s-1.5-9.9-.1-7.7c.5.8 1 2.8 1 4.5 0 1.6.5 3.7 1.1 4.5.8 1.1.9.2.6-3.5l-.5-5 1.5 5c.8 2.7 2.3 7.2 3.4 9.9 2.1 5.5 2.6 15.6.7 15.6-.6 0-2.2-1-3.5-2.1l-2.2-2.2-5.3 4.1c-2.9 2.2-7.1 5.7-9.3 7.6-3.3 2.9-3.6 3.5-2 3.6 1.1 0 4.3 1.1 7.1 2.4l5.1 2.4 1.9-2.2c1-1.1 3.3-4.5 5.1-7.5s3.3-4.9 3.3-4.2c0 1.8-3.5 7.5-7.8 12.9l-3.4 4.2 1.6 6.5c2.9 11.8 2.3 13-5.4 9.9-2.2-.9-4.7-1.4-5.5-1-.8.3-1.5.2-1.5-.2 0-.5-2.9-1.4-6.4-2.1-6.6-1.3-9.6-.7-11.3 2.3-1.1 1.9-14.4 12.7-16.8 13.6-1.1.4-4.2 1-7 1.3-4.9.5-4.8.5 1.3-1 5.1-1.2 6.2-1.8 6.3-3.6s.2-1.8.6-.4c.4 1.5.9 1.4 4.1-1.2 6.8-5.6 15.7-13.9 15.2-14.3-2.6-2.1-19.3-11.8-20.3-11.8-.7 0-1.9.6-2.6 1.3-2.1 1.9.9-3.2 3.6-6.3 3-3.4 13.3-18.3 13.3-19.2 0-1.3-20.4-13.3-22.2-13-1.3.2-1.8-.3-1.6-2 0-1.3-.2-4.1-.5-6.3l-.6-4 1.1 4.2c.6 2.4 1.4 4.3 1.8 4.3 1.2 0 14-18.2 14-20 0-1 .6-2 1.2-2.2.7-.3 1.3-2 1.4-3.9s.9-9 1.8-15.9 1.6-14.2 1.6-16.2.4-3.9.8-4.2c.4-.2.7 1 .5 2.7-.9 9.7-3.4 30.5-3.9 32.4-.4 1.3-.2 2.3.2 2.3.8 0 5-8.1 17.2-33.8 2-4.3 3.1-7.7 2.6-8.2-.7-.7-13.1-4-15-4-.2 0-.4 1.1-.4 2.4s-.6 2.9-1.4 3.5c-.8.7-3.2 5.2-5.2 10.2-2.1 4.9-4.1 8.9-4.4 8.9s-.5-1.6-.6-3.5c0-2.1.3-3 .7-2.3s1 1 1.2.8c1-1.1 7.9-18.1 7.5-18.5-.4-.5-11.6 2-12.4 2.8-.3.2.2 2.8 1.2 5.6.9 2.9 1.4 5.5 1 5.8-.3.4-.6.1-.6-.6 0-.6-.7-2.8-1.5-4.8-1.5-3.5-1.6-3.6-3.1-1.7-1.4 1.8-1.5 1.8-.4-.4 1.7-3.4.6-5.2-3.2-5.2-1.8 0-6.4-.9-10.3-2-28.9-7.9-32.9-8.8-34.9-8.1-1.1.5-2.7.6-3.4.4-.7-.3-3.4 0-6 .6-28.2 6.2-28.3 6.2-27.7 8.2.4 1.1.2 1.9-.4 1.9s-1.2-.6-1.2-1.3c-.4-3.3-.7-5.5-1.2-8.7l-.6-3.5 1.2 3.7c.7 2 1.4 3.9 1.7 4.2.6.5 8.5-1.1 19.8-4 4.8-1.3 6.2-2 5.7-3.2-.3-.8-.1-2 .5-2.7.8-1 .5-1.7-1.2-3-4.5-3.2-12.4-8.1-18.8-11.6-3.6-2-8.2-4.6-10.4-5.8-2.1-1.2-4-2-4.2-1.8s1 5.2 2.6 11.2c1.7 5.9 2.9 11.3 2.7 11.9-.3.9-1.9-3.9-6.2-19.4-.7-2.6-1.9-4.6-2.8-4.8-1.8-.4-2.8-.2-33.6 6.2-12.3 2.6-22.6 4.5-22.9 4.2-.3-.4-.1-.6.4-.6.8 0 36.2-7.4 48.7-10.1 3.1-.7 5.7-1.6 5.7-1.9 0-.7-25.2-15.9-34.4-20.7-13.4-7.1-17.3-8.8-22.6-10l-5.5-1.2 5.3.6c2.8.2 5.2.1 5.2-.3 0-.5-5.3-6-11.7-12.3s-10.4-10.6-8.7-9.4c1.6 1.2 7.4 6.7 12.9 12.2 10.1 10.3 21.8 18 25.1 16.7.8-.3 1.2-.2.9.3s-.1 1.2.5 1.6c.5.3 1 .1 1-.4 0-.6.5-1.1 1.1-1.1.5 0 .7.5.3 1.2s-.3.8.4.4 1.7-.4 2.3 0c.8.5.8.9-.1 1.4-1.2.7 1.1 2.4 13.5 9.7 3.3 1.9 8.4 4.8 11.3 6.3 4.9 2.7 5.2 2.7 5.2.9 0-1.4-.4-1.8-1.2-1.3-1 .6-1 .4-.2-.7.8-1 .8-3.7.2-8.9-.5-4.1-1.2-11.2-1.7-15.8-.4-4.5-1-8.4-1.3-8.7-.2-.3-1.8 0-3.4.5-6.9 2.2-20.5 6-27.4 7.5-4.1.9-8.3 1.9-9.2 2.1-1 .3-1.8 0-1.8-.7s.3-1 .6-.7c.3.4 4.5-.5 9.2-1.9 4.8-1.3 11.1-3.1 14.1-3.8 3-.8 6.6-1.8 8-2.4 1.4-.5 4-1.2 5.6-1.6l3-.7-2.8-1.4c-1.5-.8-12.3-4.9-24-9-11.7-4.2-25.2-9.1-30.2-10.9-4.9-1.9-11.4-4.2-14.3-5.1s-5.1-1.9-4.8-2.1c.4-.4 18.7 5.7 48.1 16.1 7.2 2.5 13 4.6 13.1 4.6v-2.2c-.1-2.5 2.9-3.7 4.6-2 .7.7.5 1.6-.7 2.8-1.5 1.6-1.5 1.8-.1 2.6 2.5 1.4 12.9 4.9 13.3 4.4.2-.2.8-9.5 1.3-20.7 1.2-26.4 1.9-41 3-63.3.5-9.9 1-18.7 1-19.4 0-.6-.5-1.2-1-1.2-.9 0-11.6 7.5-13 9.1-.3.3-3.2 2.5-6.5 4.9-5.4 3.9-28.5 20.9-41 30-2.7 2-5.7 4-6.5 4.4-2.1 1 2.5-2.8 8-6.6 2.5-1.8 10.1-7.5 17-12.7s18.7-14.1 26.3-19.8c7.5-5.7 13.7-10.8 13.7-11.3s-.8-1.1-1.7-1.4c-2.6-.7-22.1-4.5-26.8-5.1-2.2-.4-9.2-1.7-15.5-3-15.6-3.3-43.9-8.2-47.3-8.3-2.5 0-2.7.3-2.5 3.4.2 2.5 1 3.8 2.8 4.7 3.6 1.8 3.2 4.1-.8 4.5-3 .3-3.3.1-3.2-2 .1-1.3.2-3.6.1-5.2l-.1-2.9-2.2 2.9c-1.2 1.6-2.5 3.3-3 3.9-1.5 1.6 1.4-4.8 3.1-6.8.8-.9 1.2-2 .9-2.3s-4.5.4-9.3 1.5c-4.8 1.2-9 2.1-9.3 2-1.2-.1 13.2-4.8 15-4.8 4.2-.2 3.1-2.4-4.2-8.5-3.8-3.1-13.6-11.7-23.8-20.9-3.5-3.1-6.7-5.7-7.1-5.7-.3 0-1.2-.9-1.9-2s-1-2-.8-2c.6 0 12.2 9.6 14.6 12 4.1 4.1 14 11 14 9.7 0-.7 1.1-2 2.5-2.7s2.5-2.1 2.5-3 .5-2.1 1.2-2.8c.9-.9.9-1.2-.2-1.2-1.3 0-1.3-.2 0-1 1.2-.7 1.2-1.2.2-2.2-.6-.6-1.2-2.9-1.2-5 0-2.9-.4-3.8-1.7-3.8-1.6 0-1.5-.2.3-1.3 6.4-3.8 9.4-6 9.4-6.8 0-.5.6-.9 1.4-.9 1.8 0 2.7-2.3 1.5-4.1-.5-.8-.9-2.4-.9-3.7 0-1.9.6-2.2 3.8-2.3 8.8-.4-15.5-1.7-26.8-1.4-7.8.1-10.8-.1-8-.5 2.5-.4 17.1-1.1 32.5-1.5s29.7-1 31.8-1.4l3.8-.6-13.8-14c-12.5-12.6-13.2-13.7-1.9-3 2.3 2.2 7.4 7 11.3 10.7l7.1 6.8 5.4-2.4c2.9-1.3 9.4-3.8 14.3-5.5 9.8-3.5 23.5-9.1 24.8-10.1.4-.3-3.5-1.2-8.5-1.9-5.1-.7-22.1-3.3-37.8-5.8-19.8-3.1-28.6-4.1-28.8-3.3-.3.8-.8.8-1.7 0-1-.9-2-.7-3.9.5-1.4 1-2.6 1.3-2.6.7 0-.5.9-1.2 2.1-1.5s1.8-1 1.4-1.6c-.8-1.5-.6-1.5 15.7 1.4 7.9 1.3 21.5 3.4 30.3 4.5s18.7 2.5 22 3 8 1.2 10.5 1.5l4.5.6-3.5-3.8c-6.9-7.5-8.4-9.7-3-4.6 3 2.9 6.4 5.9 7.5 6.7M517.4 407.1c-1.5 1.6-4.5 4.1-6.7 5.6-3.9 2.7-3.9 2.8-1.8 4.1 2.4 1.6 2.8 3.2.8 3.2-.7 0-1.8 1.5-2.5 3.4-1.8 4.9-5.4 8.7-7.2 7.6-.8-.5-1.1-1.2-.8-1.6.4-.4.1-1.6-.7-2.8-1.7-2.3-2-5.6-.5-5.6 1.1 0 5-3.1 5-4 0-1.3-3.9-.8-4.4.6-.3.8-1.2 1.4-1.9 1.4-.8 0-1.9 1-2.6 2.2-.6 1.3-2.4 4.1-4 6.3s-2.7 4.3-2.5 4.7c.3.5-.6 1.2-2 1.8-1.7.6-2.6 1.8-2.7 3.2-.1 1.7-.2 1.9-.6.5-.2-.9-.6-1.7-.7-1.7-.2 0-3.8 1.6-8.1 3.6-4.2 1.9-7.9 3.3-8.2 3.1-.2-.3 3.2-2.2 7.7-4.3 7.9-3.8 8.1-4 7.5-6.9-.3-1.6-1-3.2-1.6-3.6-.7-.4-.5-1.1.5-2.1 1.4-1.4 1.3-1.6-.4-2.1-2.9-.7-2.4-2.3 1.1-4.1 2.7-1.4 3.3-1.4 4.6-.1.8.8 2 1.5 2.6 1.5.7.1.2.9-1 1.9-1.3 1.1-2.3 2.6-2.3 3.5s-.4 1.6-.9 1.6c-.4 0-.6 1.1-.3 2.5.4 2.2.7 2.4 2 1.3 1.5-1.3 8.2-11.2 8.2-12.2 0-.2-1-.6-2.2-.8-2.2-.4-2.2-.5.5-1.8 1.5-.7 2.6-1.8 2.3-2.4-1.3-3.2-1.7-5-.9-3.9.6.9 2.4.1 6.3-2.9l5.5-4-4.8 4.4c-5.7 5.2-5.3 7.2 1.1 6.2 2.3-.4 4.2-1.1 4.2-1.6s.4-.6 1-.3c1.3.8 7.9-3.7 11-7.5 1.4-1.7 2.7-2.5 2.9-1.9s-.9 2.4-2.5 4M249.8 476c-1 14.2-.7 40.2.4 41 1 .7-.5 6.3-1.8 6.7-.5.1-1.7-1.3-2.6-3.2-2.6-5.3-9.2-13.4-10.4-13-.8.2-.7-1.1.3-4.3 4.7-15.5 6.3-21.9 6.3-25.3s-.4-4.1-2.7-5c-7.8-3.1-9.8-4.9-2.8-2.4 1.7.6 1.7.4-.4-1.4-1.3-1.2-1.9-2.1-1.4-2.1s2 1.1 3.3 2.5 2.9 2.5 3.7 2.5c.7 0 1.3 1.1 1.3 2.4 0 3.6 1.7 4.1 2.9.9 1-2.6 1.1-2.6.6-.3-.2 1.4-.5 3.1-.5 3.8s-.4 1.1-.9.7c-.6-.3-.9.3-.8 1.3.1 2.1-1.4 7.6-4.3 15.7-3.4 9.4-3.5 9.1 1.2 15 2.3 3 4.6 5.5 4.9 5.5.7 0 2.1-24.6 2.4-41.5.1-7.6 1.1-13.4 2-12.3.1.2-.2 5.9-.7 12.8m10.9 17.7-.2 11.8 4.4 8.2c2.5 4.6 4.8 8.3 5.3 8.3.4 0 .8 1 .8 2.2 0 1.3 1 3.9 2.1 5.8 2 3.2 2 3.4.2 1.7-1.1-.9-2.4-1.7-3-1.7-1.2 0-14.3 9.8-14.3 10.7 0 .3 1.4 2.1 3 4 3.8 4.3 3.9 6.6.1 2.9-2.1-2-3-2.4-3.4-1.4-.3.7-.6.3-.6-1-.1-2.7-1.6-2.8-5.6-.4-1.6 1-3.9 2.2-4.9 2.6-1.9.6-1.9.6-.3-1.2.9-1 1.8-3.2 1.8-4.8l.2-2.9.4 2.7c.5 3.3 1.3 3.4 4.3 1 2.3-1.9 2.3-1.9.4-5-1-1.8-2.2-3.2-2.6-3.2s-.8-.7-.8-1.6c0-.8-1.3-2.6-3-4-3.6-3.1-3.2-6.2.6-3.7 1.3.8 2.4 2 2.4 2.7s1.8 1 5.2.8q5.25-.3 3.9.6c-.7.5-2.2.7-3.2.5-2.7-.7-3.3 2-1.3 5.9.9 1.8 1.8 3.4 1.9 3.6.5.5 13.5-8.9 13.5-9.8 0-1.1-2.2-2.7-4.5-3.3-1.9-.4-1.8-.5.2-.6 1.2 0 2.4.3 2.8.9.3.5 1.2.7 2 .4 1.7-.7.6-4.1-3-8.8-1.4-1.8-3.2-5.4-4.1-7.9-1.2-3.5-1.9-4.4-3.1-4-1 .4-1.4.2-1-.4s.9-4 1.1-7.5c.5-7 1.6-15.8 2.1-15.8.2 0 .3 5.3.2 11.7m732.5 65.2c2.4 1 6.3 2.7 8.8 3.9 2.5 1.1 7.6 3.4 11.4 5.1 8.3 3.7 10.8 4.1 8.1 1.1-1-1.1-1.5-2.3-1.2-2.6.4-.4.9.1 1.3 1 .8 2 3.4 2.1 3.4.1 0-.8.5-1.5 1-1.5 1.3 0 1.3 1.7 0 2.5-1.6 1 .8 3.5 3.4 3.6 1.7.1 1.6.3-.6.8-2.7.6-2.6.6 4.3 8 6.4 6.9 9.4 8.8 7.1 4.4-.6-1-1.3-4.4-1.7-7.5-.5-4.1-1.2-5.8-2.4-6-1.2-.3-1.1-.5.5-1 2-.5 2.2 0 2.8 5.5.3 3.4 1.1 6.6 1.6 7.1 1.8 1.8 1.2 9.1-1 11.1-1.1 1-1.7 2.2-1.3 2.8.3.5.2.7-.4.4-.5-.3-2.5.8-4.4 2.4-1.9 1.7-6.9 6-11.2 9.6-7.5 6.3-7.7 6.6-6.1 8.4 2 2.2 1.5 2.4-1.7.6-4.8-2.5-5-2.7-3.6-4.2.8-.7 2.1-1.3 2.9-1.2 2.8.3 25.8-19.5 25.8-22.2 0-2.2-13.5-15.5-14.9-14.7-.6.4-1.1 1.9-1.2 3.4-.1 2.9-2.7 10.7-2.8 8.2 0-.8.6-4.3 1.3-7.8l1.4-6.3-2.7-1.3c-1.4-.8-9.3-4.4-17.6-8.1-8.2-3.7-15.2-6.9-15.4-7.1-.9-.8.9-.3 5.1 1.5M1203 674.4c0 1.3 2.7 3.1 4.2 2.8.7-.2 3.8 7.2 3.8 9.3 0 3.7 1.8.9 4-6 1.8-5.7 2.8-7.5 4.2-7.5 1 0 1.8.1 1.8.2 0 1.3-6.7 17.7-7.1 17.4-.2-.2-.4 1.3-.4 3.4s.4 4.2.9 4.7c.5.4.6.3.2-.5-.4-.6-.3-1.2.2-1.2 1.1 0 2.3 4 1.6 5.1-.8 1.3-3.2-.1-3.7-2.2-.3-1-1.4-1.9-2.5-1.9-1.5 0-2.5-1.5-4.2-6.3-1.2-3.4-3.3-9-4.6-12.5-2.2-6-2.3-6.2-.4-6.2 1.1 0 2 .6 2 1.4m22.3 4.4c-.4 1.6.1 1.9 3.9 1.8 3-.1 5 .5 6.2 1.6 1 1 2.3 1.8 3 1.8.8 0 1.9.7 2.6 1.5 1.1 1.3 1.6 1.1 4-1.5 3.9-4.1 7.1-4.7 12.2-2 5.3 2.7 8.8 5.9 8.8 7.9 0 1.4-.1 1.4-1 .1-.8-1.3-1-1.2-1.1.5s-.2 1.7-.6.2c-.6-2.4-2.3-2.1-2.3.4 0 1.1-1.3 3.4-3 5.1-3.6 3.6-3.7 3.8-.6 3.8 1.5 0 3.3-1.1 4.5-2.6s2.1-2.3 2.1-1.8c0 1.8-4.5 5.4-6.7 5.4-1.5 0-2.2.4-1.7 1.1 1.1 1.8-3.6-1-8.6-5-3.8-3.1-5-3.6-7.5-3-1.6.4-2.6.7-2.1.8.4 0-.2 1-1.5 2-3.4 2.7-1.5 3.9 2.6 1.6 4.2-2.2 5.8-1.3 2.7 1.5-1.2 1.1-1.7 1.5-1.2.8 1.8-2.2 1-2.9-1.5-1.2-1.6 1-3.4 1.4-5.1 1-1.8-.5-2.4-.3-1.8.5.9 1.5-.7.6-5.4-2.9-2.2-1.7-3.1-3-2.7-4.1.3-.8.3-1.2-.1-.9-.3.4-1.3 0-2.2-.8-1.2-1.3-1.3-2.2-.4-5.1.6-1.9.9-4 .8-4.6-.2-.7-.1-.9.1-.4.8 1.2 2.3-.3 2.3-2.3 0-1-.6-2.1-1.2-2.3-.7-.3-.3-.6.9-.6 1.6-.1 2 .4 1.6 1.7"/><path d="M519.5 81.1c-32.1 6.2-46.3 8.9-48.5 9.1-2.4.3-2.3.4 1.5 2.7 2.2 1.3 9.7 6 16.7 10.3s13.1 7.8 13.4 7.8c.4 0 3.9 2 7.8 4.4 9.6 5.9 13.5 7.8 14.6 7.1.6-.3 1-.1 1 .6s.3 1 .6.7c.7-.7 5.4-37 5.4-41.6 0-3.7.7-3.6-12.5-1.1M532.1 99.3c-1.3 10.5-2.1 20.6-1.9 22.4l.3 3.2 9-3c4.9-1.7 9.2-3.4 9.5-3.8s1.4-.7 2.5-.8c2.1 0 34.9-11.3 38-13 1.5-.9.9-1.5-4.1-3.8C582.1 99 573 95.2 565 92s-17-6.9-20-8.2c-3-1.4-6.7-2.8-8.1-3.1l-2.6-.7zM457 92.8c-1.4.2-11.3 2.1-22 4.3-13.1 2.6-19.7 4.4-20.3 5.4-.6 1.1-1.3 1.2-2.5.6-1.4-.7-22.8 2.6-27.7 4.3-1.1.3 22.6 12.1 31.1 15.4l5.1 2 2.5-2.1c1.4-1.2 4.9-4 7.7-6.2 7.7-6 13.1-10.3 18-14.3 2.4-2.1 5.4-4.4 6.5-5.2 2.7-1.8 4.9-4 4.5-4.3-.2-.2-1.5-.1-2.9.1M585 108.5c-19.2 6.6-34.5 12.7-35.6 14.1-1.2 1.6-2.9 2-1.9.4.3-.5-.8-.4-2.7.2-4.3 1.4-5 2.2-1.6 1.6 1.5-.3 2.5-.1 2.2.3-.3.5-1.1.9-1.7.9-.7 0-1.8.9-2.5 2.1-.8 1.2-.9 1.8-.3 1.4.6-.3 1.4.1 1.7.9.3.9 1 1.4 1.4 1.1s1 .2 1.3 1c.3.7 2.2 1.7 4.2 2.1 2.8.5 3.4 1 3 2.4-.6 1.9 1.9 3.5 3.7 2.3.6-.3.8-.1.5.4-.4.6.8 1.7 2.6 2.4 1.7.7 6.1 3 9.6 5.1 4.9 2.8 6.8 3.5 7.8 2.6.7-.6 2.9-.8 4.9-.5 3.3.6 3.5.5 1.8-.8-1.8-1.4-1.8-1.6.9-1.9.6-.1 1.1-1 1-2.1-.3-3.5 1.9-16.6 3.1-17.8 2-2.2 7.1-18.7 6.4-20.8-.2-.4-4.6.7-9.8 2.6M596.2 112c-2.2 12.2-4.4 24.7-4.9 27.5-.2 1.6-1 5.9-1.8 9.5-1.5 7.7-1.2 8.1 5.8 7.3 4.3-.5 4.9-.4 5.4 1.6.3 1.2 1.5 2.3 2.7 2.6 1.1.2 8 1.8 15.1 3.4 13.3 3 24.4 5.4 30.4 6.7l3.5.6-5.3-6.3c-6.3-7.5-12.1-14.4-17.3-20.3-2-2.3-5.9-7-8.7-10.4-4.6-5.8-11.5-13.8-20.2-23.6l-3.7-4zM372.9 116.4c-11.5 10.2-29.4 28.4-28.6 29.2.3.4 2.3.3 4.3-.1 2.6-.4 3.3-.9 2.4-1.5-2-1.3-.4-4 2.5-4 1.4 0 2.5.4 2.5 1 0 .5 1.2 1 2.8 1 3.1-.1 22.8-5.2 37.7-10 12.2-3.8 11.2-3.5 15.8-4.5 2-.4 3.7-1.1 3.7-1.5s-3.5-2.4-7.7-4.5c-10.5-5.1-26.2-12.5-26.7-12.5-.2 0-4.1 3.3-8.7 7.4M300 146.5c-2.5 4.1-5.4 9-6.4 10.8-1 1.7-4.5 7.4-7.7 12.5-3.3 5.1-5.9 9.7-5.9 10.3 0 1.5 2.5 1 5.1-.9 3.6-2.6 20.9-12.9 24.4-14.3 1.7-.7 4.3-2.2 6-3.4 1.6-1.1 6.1-3.6 9.9-5.6 3.9-2.1 7.2-4.1 7.4-4.7s-1.4-1.5-3.5-2.2c-2.1-.6-7.5-2.9-11.9-5-12.9-6.2-12.2-6.3-17.4 2.5M327.3 157c-5.2 2.3-18.6 10.1-19.3 11.1-.3.4-1.7 1.2-3.2 1.8-2.5.9-3.1 3.1-1.5 4.7.4.4.7 1.2.7 1.8 0 .5-.9 0-2-1.2-1.2-1.2-2.4-2.2-2.9-2.2-.4 0-5.3 2.5-10.9 5.6-9.5 5.2-12.3 7.9-10.7 10.4.3.5.2 1-.3 1s-1.2 6.9-1.6 15.2c-.4 8.4-.9 17.1-1.2 19.3l-.6 4 2.1-2.5c1.1-1.4 4.1-6.1 6.6-10.5s5.3-9.3 6.3-10.8l1.7-2.8-4.7-4.4c-2.7-2.5-4.8-4.7-4.8-5 0-1.2 6 3.6 7 5.6 2.3 4.2 2.5 4 21.1-17.6 5.6-6.6 10.5-12.2 10.8-12.5 3.2-3 12.4-13 12.1-13s-2.4.9-4.7 2"/><path d="M328.7 160.5c-1.9 1.9-7.5 8.1-12.3 13.7-4.9 5.7-11.1 12.8-13.9 15.8-9.7 10.7-9.8 11-8.5 13.9.9 2.1.9 2.4-.1 1.3-2.2-2.1-3.3-1.4-5.9 3.4-1.3 2.6-2.9 5.2-3.5 5.8-.5.6-1.8 2.7-2.7 4.6s-2.8 5.4-4.2 7.6l-2.6 4.2 4.2-.9c2.3-.6 4.5-1.2 4.9-1.4 1.4-.9-.3 3.4-1.9 4.7-1.3 1.1-1.5 1-.9-.6.6-1.5.4-1.7-1.5-1.2-1.3.3-2.6.6-3 .6-2 0-.2 3.3 5.8 10.6 3.6 4.3 6.9 8 7.4 8.2.4.2 2.3-2.2 4.1-5.2 1.9-3.1 3.7-5.6 4.1-5.6.5 0 .8-.8.8-1.8 0-1.1.9-2.7 2-3.7s2-2.2 2-2.7 1.1-2.6 2.5-4.6c2.6-3.8 3.3-6.8 1.4-5.6-.7.4-.9 0-.5-1.3s-.8-3.3-4.5-7.1c-6.4-6.6-5.1-6.8 1.6-.2 2.7 2.8 5.3 5 5.6 5 1.1 0 4.6-8.5 14.5-35 1.9-5.2 4.9-13 6.6-17.3 1.6-4.3 2.8-8 2.6-8.3-.3-.2-2.1 1.1-4.1 3.1M335 159.3c0 .8-1.1 3.4-2.4 5.8-1.4 2.4-3.8 8.2-5.4 12.9-3.9 11.2-9.4 26-12.6 33.5-1.4 3.3-2.1 6.1-1.6 6.3 1 .4 36.2-4.8 37.3-5.5 1.3-.8-6.5-4.3-9.5-4.3-2.4 0-2.8-.4-2.8-3 0-2.8.3-3 3.6-3 4.5 0 6.8-2.2 5.9-5.7-.4-1.9-.9-2.3-1.8-1.4-.6.6-1.9 1.1-2.9 1.1-2.2 0-2.5-5.2-.4-6.9 2-1.7.5-13.8-1.5-12.5-.7.4-.9-.1-.5-1.4.7-2.2-3-15.8-4.5-16.8-.5-.3-.9.1-.9.9M588.5 166c.3 3 1 8 1.6 11 .5 3 2 12.3 3.4 20.5 3.5 21.8 2.7 20.8 11.1 14.4 3.8-2.9 7.5-5.9 8.2-6.6.8-.7 3.4-2.7 5.9-4.4 3.5-2.4 4.2-3.4 3.2-4.1s-.8-.9.7-.5c2.2.5 5.8-2.5 4.6-3.8-.4-.3 0-.4.8 0 .9.3 3-.8 5-2.6 1.9-1.6 5.8-4.5 8.5-6.4 2.8-1.8 6.3-4.7 7.9-6.4l2.8-3-3.8-1c-6.4-1.7-29.1-6.9-41.1-9.4-9.2-2-11.3-2.2-11.7-1.1-.8 2-4.6 1.7-6.2-.4-1.2-1.5-1.3-1-.9 3.8M570 192.1c0 .5-.4.8-.9.5s-1.1.3-1.4 1.4c-.6 2.3-3.7 2.7-3.7.5 0-.8-.3-1.5-.7-1.6q-6.6-.75-7.8.3c-.5.5-2.2 1.7-3.7 2.9-1.6 1.1-2.8 2.9-2.8 4 0 1-.4 1.8-1 1.6-.5-.1-2.7 1.5-5 3.7-2.2 2.1-4 3.3-4 2.5 0-1-.3-1-1.1-.2-.7.7-.9 1.9-.6 2.8.5 1.3 1.6 1.5 5.5.9 3.5-.4 6.9 0 12.4 1.5 5 1.4 10.6 2.1 16.9 2.2 8.4.1 9.5-.1 10.8-2 .7-1.2 2-2.1 2.8-2.1 1.3 0 1.3-.3.3-1.5-.7-.8-1.7-1.2-2.3-.8-.5.3-.7.1-.4-.4.7-1-3.3-6.9-9.5-14.1-2.8-3.4-3.8-3.9-3.8-2.1M433 199c-31.7 6-75.2 14.8-75.7 15.4-.3.3.1 1.1.8 1.8 3.7 3.6 18.9 15.2 22.9 17.6 2.5 1.4 4.6 3 4.8 3.4.3.6 16.4 13.6 26.6 21.3 2.2 1.7 6.2 4.8 9 7 15.7 12.2 35 26.5 35.8 26.5.5 0 .7-8.4.4-20.8-.3-11.4-.8-32.6-1.1-47.2s-.8-27.1-1-27.8c-.5-1.5 2-1.8-22.5 2.8M460.8 200.2c3.3 4.8 7.5 11.4 14.7 23.3 2.7 4.4 8.1 12.8 12 18.7 3.8 5.9 12 18.9 18 29 6.1 10 12 19.3 13.1 20.7l2.2 2.5.6-3.9c.3-2.2 1.1-10.8 1.6-19 .6-8.3 1.5-21.5 2.1-29.5s1.2-17.9 1.3-22l.1-7.5-32.5-8.2c-17.9-4.5-33.3-8.2-34.3-8.3-1.6 0-1.4.6 1.1 4.2M457.4 200.4c-.4 1-.4 8.9 0 17.5.3 8.6.9 25.9 1.2 38.6.2 12.6.6 26.1.8 30l.3 7 10.4.7c5.7.4 14.7 1.1 19.9 1.6 10.1.9 14 .4 16.6-2.3.9-.9 2.6-1.5 3.8-1.4 3.3.2 4.6 0 4.6-.9 0-1.1-16.9-29.1-28.6-47.2-5.5-8.5-12.3-19.3-15.2-24s-5.7-9.2-6.2-10-2.3-3.7-3.9-6.5c-2.5-4.1-3.1-4.6-3.7-3.1M529.2 220.2c-1.9 13.1-6.6 74.3-5.8 75.7.6.8 12.7-11.3 25.5-25.4 5.7-6.3 23.5-25.5 30.9-33.3 2.4-2.5 5-5.7 5.8-7.2.9-1.4 3.1-3.7 5-5s3.1-2.6 2.7-3-5.7-1.4-11.8-2.3c-10.7-1.6-17.2-2.4-38-4.7-5.5-.6-10.7-1.3-11.6-1.6-1.3-.4-1.8.9-2.7 6.8M336.5 216.5c-4.9.8-12.7 1.9-17.1 2.5l-8.2 1.2-.5 8.6c-.4 4.8-.9 12-1.1 15.9-.3 4.3-.1 7.4.4 7.4.6.1 1.5.3 2 .4.6.1 1.7.3 2.6.4 1.4.1 1.6.9 1.1 4.2-.6 4.6-1.4 5.9-2.6 4.1-.4-.7-1.5-1-2.3-.7-1.9.7-2.7 7.7-2.9 24-.1 6-.6 11.9-1.2 13-.8 1.8-.8 1.8.6.5.9-.8 5.7-8.9 10.8-18s10.3-18.2 11.5-20.2c1.3-2.1 2.4-4 2.4-4.2 0-.3 1.4-2.9 3.1-5.8s5.9-10.7 9.2-17.2c3.4-6.5 6.2-11.5 6.4-11 .3.8-7.6 16.3-14.9 29.4-1.4 2.5-4.7 8.5-7.3 13.5-2.7 4.9-5.8 10.6-7 12.5-3.4 5.5-13.5 24.8-13.5 25.9 0 .5.8 1.1 1.8 1.5.9.3 2.4 1 3.2 1.5 2.6 1.8 17.2 10.2 24 13.9 3.6 1.9 8.9 5 11.8 6.9 2.9 1.8 5.5 3.3 5.7 3.3.7 0 .6-31.3-.2-73.8-.5-28.9-.9-36.2-1.9-36.2s-1.1-.6-.4-2.5c.9-2.4.8-2.5-2.8-2.4-2 .1-7.7.7-12.7 1.4M356 217.7c-.3 7.4.2 111.8.5 112.1.6.6 6.5-1.8 9.7-4 1.4-1 4.1-1.8 6-1.8s11.3-2.7 20.9-6.1c9.6-3.3 20.4-7 24.1-8.2 5.6-1.8 6.7-2.5 6.2-3.9-.3-1-.1-1.8.4-1.8.6 0 1.2.5 1.4 1.2.3.8 5.2-.5 15.4-4.1 8.2-3 15.2-5.7 15.6-6 .4-.4-2.5-3.1-6.5-6.1-7.4-5.6-37.4-28.7-45.4-35-2.5-1.9-7.9-6.1-12.1-9.2-7-5.1-7.9-5.5-9.4-4.2-1.5 1.4-1.7 1.3-2.3-.5-.3-1.2-.4-2.5-.1-3s-1.8-2.7-4.7-4.9c-2.8-2.1-8.5-6.5-12.4-9.6-4-3.2-7.3-5.4-7.3-4.9M589.2 229.7c-2.7 3.2-6.5 7.4-8.4 9.3-1.8 2-8.2 8.9-14.3 15.5-6 6.6-16 17.1-22 23.5-6.1 6.3-12.6 13.2-14.5 15.3l-3.5 3.9 7-.6c3.9-.4 8.6-.9 10.5-1.2 2.6-.4 3.1-.3 2 .5-.8.6-2.5 1.1-3.7 1.1s-2.5.4-2.8 1c-.3.5-3 1-5.8 1.1-5.2.1-5.2.1 3.3 1.9 7 1.6 50 9.6 61.8 11.6 4.3.7 4.5-.2 3.2-11.7-.6-5.2-1.5-14.4-2-20.4-1.5-18.3-4.2-51.9-4.3-54.3 0-1.2-.4-2.2-.8-2.2s-2.9 2.6-5.7 5.7M304.2 233.2c-1.8 3.6-4.1 7.3-5.2 8.3s-3.2 3.8-4.6 6.3c-2.5 4.3-2.6 4.8-1.5 9.3 1.8 6.9 11.7 36.8 12.4 37.6.7.6 1-7.7 1.2-33.7.1-8 .7-17.9 1.4-22 .8-4.8.9-8.4.3-9.9-.8-2.3-1.1-2-4 4.1M270.3 241.7c-5.4 11.6-10.1 23.7-10.5 26.8-.3 2.8.5 3.5 13.9 12.5 20.8 14 29.4 19.3 30 18.7.3-.4-1.4-6.8-3.7-14.4s-5.3-17.5-6.7-22c-1.9-6.4-3.6-9.5-7.2-13.6-2.5-3-6.4-7.5-8.6-10.1l-4-4.7zM259 273.5c0 .3.6 2.2 1.4 4.2.8 2.1 2.5 8.4 3.7 14.1s2.7 10.9 3.3 11.6c.9 1 3.7 1.1 13.1.4 6.6-.5 14-1.2 16.5-1.6l4.5-.7-21.2-14.2c-11.7-7.8-21.3-14-21.3-13.8M460.4 299.1c.4 1.9 1.3 7.9 2.1 13.4 1.8 11.7 3.6 20.5 4.3 20.5.3 0 3.7-1.9 7.6-4.3s11.4-6.9 16.6-10 10.7-6.7 12.1-7.9c1.5-1.3 4.9-3.9 7.8-5.8 2.8-1.9 5.1-3.7 5.1-4s-9.6-1.4-21.2-2.3c-11.7-1-24.4-2-28.2-2.4l-6.9-.5zM436.8 304c-10.4 3.8-26.3 9.4-35.5 12.6-9.3 3.1-18.7 6.5-21 7.5-4.2 1.8-4.3 1.9-4.3 6.7 0 6.4-1.3 7.5-7.9 6.6-5.9-.8-7.9-2.4-5.6-4.7 2.3-2.4 1.8-2.7-2.2-1.3-3.3 1.1-3.8 1.7-4.1 4.7-.1 1.9-.7 5.2-1.2 7.4s-1.2 5.3-1.4 7c-.2 1.6-.9 5.4-1.5 8.4-.6 2.9-1 7.7-.9 10.5.1 5 .2 5 .5.8.4-4.6 1.9-5.3 6.6-3.1 2 .9 4.2.1 16-6.1 7.6-4 14.3-7.7 15-8.4.7-.6 3-1.7 5.2-2.4 6.9-2.4 13.4-7.4 31.4-24.3 27.1-25.6 29.6-27.8 30.1-27.2.3.2-2.7 3.4-6.5 7.1-3.9 3.6-11.7 11.1-17.6 16.7-5.8 5.5-13.5 12.7-17.2 16s-6.7 6.3-6.7 6.6c0 .7 4.8-.3 23.2-4.7 6.4-1.5 11.5-3.1 11.2-3.6-.3-.4-1.2-.4-2.2-.1-1.5.6-1.5.5-.4-1 1.3-1.5 1.5-1.5 3-.1 1.2 1.2 2.6 1.5 6.1 1 2.5-.4 7-1 10-1.3l5.3-.6-.6-6.1c-.7-6-3.2-22.9-4.2-27.3-.9-4.7-3-4.4-22.6 2.7M510.5 307.7c-8.9 6.4-9 6.5-4.8 5.8 7.2-1.1 22.3-1.3 21.6-.2-.4.6 0 .8 1 .4 1.1-.4 1.7-.1 1.7.8 0 .8 1.7 2.4 3.8 3.5 2 1.1 4.8 2.8 6.2 3.7 1.9 1.4 1.8 1-.7-1.7-1.8-1.8-3.3-3.7-3.3-4.2 0-1-10.8-12.3-11.8-12.3-.4-.1-1.6-.6-2.7-1.1-1.7-.9-3.4-.1-11 5.3M280.1 305.4c-6.2.6-10.6 1.6-10.8 2.3-.4 1.1 4.3 11.3 5.6 12.3.4.3 2.4 3 4.4 6 2 3.1 4.7 6.6 6.2 8 1.4 1.3 2.5 3 2.5 3.7 0 2.7 2.3 0 5.1-6.1 1.5-3.3 2.8-5.4 2.9-4.6 0 .8-.9 3.2-1.9 5.1-2.3 4.2-3.8 12.5-2.2 11.4.6-.3 1.1-.2 1.1.3 0 1.1 5.4 2.7 14 4.2 6.1 1 7.1.9 13-1.3 3.6-1.3 9.4-3.8 13-5.4 3.6-1.7 9.3-4.3 12.8-5.8 3.4-1.5 6.2-3 6.2-3.2 0-1.5-7.3-6.1-31.3-19.6-12.1-6.9-14.3-7.8-13.4-5.3.8 2 3.4 15 4.3 21.1 1.2 9.2-.6 3.9-2.6-7.1-1-6-2.4-12.4-3-14.2l-1.2-3.2-7.1.1c-4 .1-11.9.7-17.6 1.3M341.5 339.4c-22.2 9.9-24.5 11.1-23.7 12.1 2.5 3.6 26.2 21.2 26.2 19.5 0-.7.7-1 1.5-.6.8.3 1.5.4 1.5.2s1.3-7.3 3-15.8c3.3-17.4 3.9-20.8 3.7-20.8-.1 0-5.6 2.4-12.2 5.4M292.6 347.8c.6.4 1 1.8.9 3.2s.2 3.1.8 3.8c1.3 1.6.1 8.4-2.2 12.5-1 1.8-2.1 4.6-2.4 6.2-.3 1.7-.8 4.1-1.2 5.5-.7 2.4-.6 2.4 2.2-.5 1.5-1.7 4.4-5 6.3-7.5 1.9-2.4 6.3-7.4 9.8-11 5.9-6.4 7.1-8.3 5.5-9.3-.8-.5-18.5-3.7-20.1-3.7-.4 0-.2.4.4.8M306.8 361.8c-20.6 25.3-19.7 24-18.2 27.1 2 4 9.3 12.1 10.9 12.1s1.9-1.1 8-24c2.6-9.6 4.9-18.3 5.1-19.3.9-3.1-1-1.8-5.8 4.1M244.4 375.1c-.7.8-6.5 11.7-12.9 24.4-6.5 12.6-14 26.8-16.7 31.5-2.6 4.6-4.8 8.8-4.8 9.2s7.8-4.3 17.3-10.4c9.4-6.1 18.7-12 20.5-13l3.2-2v-14.4c0-10.9-.4-15.3-1.6-18.4-.9-2.2-2-4-2.4-4-.5 0-1-1-1.2-2.2-.2-1.8-.5-1.9-1.4-.7M234.5 427.8c-8.3 5.3-17.2 11.2-20 13-2.7 1.7-4.3 3.2-3.5 3.2s7.8.7 15.5 1.5 15.9 1.5 18.2 1.5c4 0 4.2-.2 4.7-3.3 1-6.2 1.6-25.7.8-25.7-.4 0-7.5 4.4-15.7 9.8M939.5 111.5c-2.5.7-20.7 5.6-26.8 7.1-3.7.9-6.6 2.1-6.5 2.5.2.5 7.7 9 16.8 18.9l16.5 18.1.7-5.8c1-7.5 2.4-36.1 2-39.1-.3-2.1-.6-2.4-2.7-1.7M943.9 115.6c-.1 2.1-.3 5.9-.4 8.4s-.5 11.4-.9 19.8l-.6 15.3 2.3-.7c1.2-.4 3.6-1.1 5.2-1.5 12.6-3.2 29.4-8.6 30.9-9.9.9-.9-11-12.6-33.6-32.9l-2.8-2.5zM986 148.4c0 .5 6.8 12.7 18.1 32.8 2.4 4.3 4.7 7.7 5.1 7.8.4 0 .9-1 1.1-2.3.2-1.2.5-.4.6 1.9.1 3.6 1.3 5.7 9.7 16.5 5.3 6.8 10.4 13.5 11.3 14.9.8 1.4 2.7 4.1 4.2 6s4.5 6.1 6.9 9.3c2.3 3.2 4.4 5.7 4.6 5.4.2-.2-.7-3.9-2-8.3-1.4-4.3-4.1-13.3-6.2-19.9-2-6.6-5.1-15.8-6.9-20.5-1.7-4.7-3.7-10.3-4.4-12.5-1.3-4.3-3.8-11-7.2-20-1.3-3.2-2.6-5.2-3.2-4.8s-.8 0-.4-1.1c.9-2.3-1.9-3.2-12.8-4-4.9-.3-11.1-.9-13.7-1.2-2.7-.3-4.8-.4-4.8 0M974 151.9c-4.7 1.6-11.1 3.6-14.2 4.6-3.4 1-5.5 2.2-5.1 2.8.3.5.1.7-.5.4-1.7-1.1-3.8.2-3.9 2.6 0 1.2.1 1.6.4.9.3-.6.9-1.2 1.5-1.2s.7.7.4 1.6c-.5 1.3-.2 1.5 1.5 1.1 1.1-.3 1.8-.3 1.5 0-.8.9 3.2 3.5 4.3 2.9.5-.4 1.1-.2 1.3.3s1.9.4 4.1-.4c4.1-1.4 5-.8 4.3 2.9-.4 2 .1 2.5 2.2 3.1 1.4.3 5.4 2 8.9 3.6 11.8 5.5 24.6 11 24.9 10.7.2-.2-2.1-4.4-5-9.3-6.1-10.4-13.2-22.8-15.3-26.8-.8-1.5-1.8-2.7-2.1-2.6-.4 0-4.5 1.3-9.2 2.8M1004.6 198.1c-1.1 1-2.5 1.9-3.3 1.9-.7 0-1.3.3-1.3.8 0 .4-2 1.8-4.5 3.2s-4 2.7-3.3 3.1c.6.4.7 1.2.3 1.8-.5.9-1.1.9-2.3-.1-1-.8-.6.5 1 3.2 1.5 2.5 3.3 4.3 4 4.2.7-.2 1 0 .6.3-.4.4-.2 1.7.4 2.9 1.8 3.4 8.8 12.6 9.6 12.6.4 0 .8-4.8.9-10.7.2-10.2.1-10.8-2.2-12.9-3-2.8-3.1-3.8-.6-6.3 2-2 2-2 2.4.7.2 1.6.5.8.6-2.1 0-2.6 0-4.7-.1-4.6-.2 0-1.2.9-2.2 2M1012 198.5c0 .4 5.4 24.3 8 35 .5 2.2 1.2 5.5 1.5 7.2.4 1.8 1.1 3.6 1.7 3.9.7.5.8.2.3-.6-.6-.9-.4-1.1.6-.5.7.5 2.5 1 3.9 1.1 2.7.3 16.3 2.3 19.3 2.9 1.3.2 1.7-.1 1.3-1.1-.6-1.6-14.6-21.6-15.7-22.4-.4-.3-1.9-2.3-3.3-4.5-7.8-11.5-17.6-23.2-17.6-21M1009.2 218.7c-.9 12.7-1 16.9 0 18 1.3 1.6 9.8 5.7 10.4 5 .8-.7-7.8-38.2-9-39.4-.1-.1-.7 7.3-1.4 16.4M979 214.6c-3.6 2.4-7.2 5.3-8.1 6.4-.9 1-1.9 1.6-2.3 1.3-.3-.4-.6.1-.6 1s-.8 1.7-1.7 1.8c-1 0 0 .7 2.2 1.5s5.2 1.3 6.7 1.1 2.5 0 2.2.5c-.3.4.6.8 2 .8s2.6-.5 2.6-1.1c0-.5.5-.7 1-.4.6.3 1 .1 1-.4 0-.6.7-1.1 1.5-1.1s1.5.6 1.5 1.3c0 .8 1.1 1.9 2.4 2.5 1.9.9 2.5.8 3-.4.3-.8 1.1-1.4 1.8-1.4.9 0 1 .3.2.8-2.5 1.6-1.1 4 2.7 4.6 2 .3 4.5.9 5.5 1.3 1.2.4.5-1.2-2.2-5-2.1-3.1-4.5-5.6-5.2-5.7-.7 0-1.1-.4-.8-.8.3-.5-.2-1.9-1.1-3.1-1.1-1.6-1.8-1.9-2.3-1.1-.5.9-.9.9-1.4.1-.4-.6-.2-1.1.3-1.1 1.7 0 1.3-1.5-1-4.1-1.5-1.6-2.3-2-2.6-1.2-.3.7-1.2 1.3-2 1.3-1.4 0-1.4-.3.2-2 2.4-2.7 2.1-2.5-5.5 2.6M914.6 223.4c1 3.4 7.6 16.2 17 33.4 1.3 2.3 4.7 8.6 7.5 14 2.9 5.3 6.7 12.2 8.5 15.3 1.9 3.1 4.1 7.3 4.9 9.3s1.9 3.6 2.3 3.6.9-4.5 1-10c.3-9.6.3-10-1.7-10-2.7 0-2.7-2-.1-2.7 1.1-.3 2.2-1.5 2.5-2.7.2-1.1.6-12.1.7-24.2l.3-22.2-6.5-1.1c-3.6-.6-12.3-1.8-19.5-2.6-7.1-.9-14-1.7-15.3-1.9-1.9-.3-2.1 0-1.6 1.8M912.5 227.2c-1.1 2.7-.1 9.3 1.3 9 1.4-.2 2.8 2.5 1.8 3.5-.3.3-1.2.1-2-.6-1.1-.9-1.5-.6-1.9 2.1-.9 5.2-4.1 84.7-3.4 85.4s42.5-20 44.7-22.2c1.2-1.2.8-2.6-3.4-10.9-2.7-5.2-5.4-9.5-6.1-9.5s-1.5-1.5-1.8-3.3c-.3-1.7-2.7-7-5.2-11.7-2.6-4.7-8.1-14.9-12.1-22.7-9.9-19.1-11.2-21.1-11.9-19.1M966 230.2c0 .5-.4.6-1 .3-.7-.4-.7.3 0 1.9 1.5 4 3.9 8.4 4.7 8.8.5.1 1.6 2 2.6 4.1 1 2.4 2.2 3.5 2.9 3.1s.8-.3.4.5c-.4.6 0 1.4.8 1.7.9.3 1.6 1.2 1.6 1.9 0 1.6 4.5 1.1 6.4-.7.8-.7 3.9-3 7-5.1s5.4-4.2 5.1-4.7c-.3-.4-2.1-1.1-4-1.4-1.9-.4-3.9-1.5-4.5-2.6-1.4-2.6-1.3-3.3.6-2.6.8.3 1.3.2 1-.3-.3-.4-4-1.5-8.3-2.5-4.3-.9-9.5-2-11.5-2.5-2.3-.5-3.8-.4-3.8.1M960 231.6c0 .5-.3 8.6-.7 18-.6 18.8-.7 18.5 5.4 18.9 3.4.2 3.5.1 2.8-2.9-1.7-8.4-1.7-10.7 0-12.6 1-1.1 2.4-2 3.2-2 1.6 0 1.6-.5.2-3.1-.5-1.1-1.5-1.6-2.1-1.3-.7.4-.8.3-.4-.5.4-.6-1.2-4.2-3.8-8.3-2.5-3.9-4.6-6.7-4.6-6.2M1010.5 244.7c.7 2.7 2 6.6 3 8.8s1.9 4.9 2 6 .5 3.5.9 5.3c1.3 5.7 2.6 2.2 3.3-9l.6-10.6-4.5-2.6c-6.3-3.7-6.8-3.5-5.3 2.1M996 246.9c-1.9 1.7-4 3-4.7 3.1-.6 0-2.2 1.3-3.5 2.8-1.3 1.6-2.9 2.7-3.6 2.4-.7-.2-1.2.1-1.2.7 0 .7.8 1.4 1.8 1.7.9.3 2.8 1 4.2 1.6s3.7 1 5.2.9c2.1-.2 2.7.1 2.2 1.2-.4 1 1.9 2.3 8.3 4.7 4.8 1.8 9.4 3.7 10.1 4.3 1.6 1.3 1.5.6-.4-4.3-1.1-2.7-2.4-4.2-4-4.6-1.3-.3-2.4-1.2-2.4-1.9s-.7-1.5-1.5-1.9c-.8-.3-1.5-1.5-1.5-2.6 0-1.4-.7-2-2.2-2-2.1 0-2.1 0-.2-1.5 1-.8 2.9-1.5 4.1-1.5 1.7 0 2.1-.5 1.8-2.2-.6-2.7-2.5-4.9-2.5-2.8 0 1.2-.2 1.2-.9.2-.7-1.1-1.1-1.1-2.4.2-2 2-2.5 2-2.9.1-.2-1.2-1.1-.9-3.8 1.4M1037.3 248.6c-1 .4-.9.9.2 2.1 2 2 .6 3.8-4.1 5.3-1.9.6-3.4 1.4-3.4 1.6 0 1.8 5.4 10.6 7.7 12.5 1.7 1.4 2.7 3.2 2.5 4.2s.8 4 2.2 6.7 2.6 5.3 2.6 5.7c0 1.2-2.4-2.7-6.9-10.9-4.7-8.9-10.1-17.6-10.1-16.4 0 .4 2.3 6.7 5.2 14 4.1 10.5 6 14 9.5 17.5 2.4 2.4 4.6 4.1 5 3.7.4-.3.1-1.2-.5-1.8-1.8-1.8-1.4-3.3.4-1.7.8.7 1.3 2 1.1 2.9s.4 2.2 1.3 2.8c1.7 1 1.8.4 1.4-9.1-.2-5.6-.5-16.4-.7-23.9-.2-7.6-.6-14-.9-14.3-.8-.9-11.1-1.6-12.5-.9M1021.6 258c-.3 1.6-.8 5.8-1.2 9.3-.6 6.3-.6 6.4 2.3 7.6 1.6.6 4.2 2.4 5.9 3.8 1.6 1.5 4 3.6 5.2 4.7l2.4 2.1-2.5-6.5c-5.5-14.5-9.3-23-10.3-23.4-.7-.3-1.4.8-1.8 2.4M982.3 262c-.3 1.1-1.3 2-2.2 2s-2.4.6-3.3 1.3c-2.4 1.8-15.8 30.4-15.8 33.7 0 .5 4.4-1.3 9.8-3.9 5.3-2.6 12.7-6.2 16.5-8 4.9-2.3 6.7-3.7 6.7-5.2 0-1 .5-1.9 1-1.9.6 0 1 .4 1 1 0 .5.5 1 1.1 1 1.5 0 18.9-8.2 18.9-8.9 0-1-10.9-5.4-26.4-10.7-6.7-2.3-6.8-2.3-7.3-.4M1020.3 276.4c.3.8 1.1 3.4 1.7 5.8s2 7.4 3.2 11.2l2 6.9 2.4-2.9c2.3-2.8 5.4-8.7 5.4-10.5 0-1.1-13-11.9-14.3-11.9-.5 0-.7.6-.4 1.4M1015.7 281.7c-1 2.7-2.8 7.3-3.9 10.3s-2.4 5.9-2.8 6.5c-.4.5-1 2.3-1.4 3.9-.6 2.4-.4 2.7.9 2.2.9-.3 2.4-.6 3.3-.6 1.4 0 1.5-.2.2-.9-.8-.6-1.8-.7-2.2-.5-.4.3-.8.1-.8-.4 0-1.1 4.8-1.3 5.5-.2.5.8 8.3.2 10.1-.9.8-.4.3-3.3-1.7-9.6-1.5-5-3-10.2-3.3-11.8-.9-3.9-1.9-3.4-3.9 2M1036.8 290.1c-1 .6-1.8 1.5-1.8 2.2s-1.4 2.8-3 4.7c-3 3.4-3.8 6-2.1 6 .5 0 3.2 1.6 6.1 3.6 4.7 3.2 5.2 3.4 4.7 1.5-.3-1.1-.1-2.1.4-2.1s.9.9.9 2c0 2.9 1.1 2.5 5.4-1.9 4.4-4.6 4.3-5.8-1.1-9.7-2.1-1.5-4.7-3.8-5.8-5-1.5-1.8-2.4-2-3.7-1.3M956.6 306.5c-.8.8-1.8 3.7-2.1 6.3-1 7.6-1.8 10.8-2.3 9.4-.2-.7.1-4.2.8-7.8s1-6.7.7-7c-.5-.6-38 18.3-42.1 21.2-1.8 1.2-.9 1.8 10 7 15 7 21 9.5 21.8 8.7.3-.4.6 0 .6.8 0 2.6 1.9-1.2 4.2-8.8 1.2-4 2.4-7.1 2.6-6.8.4.4-1.3 8.4-2.9 13.9l-.9 2.9 8.8-.7c10.6-.9 18.2-2.4 18.2-3.7 0-.6.5-.7 1-.4.6.3 1 .3 1-.2-.1-.9-9.5-19-14.9-28.6-1.8-3.2-3.1-6.1-2.8-6.3.5-.5 2.3 2.3 5.1 8.1 2.7 5.6 11.6 20.6 13.1 22.1 1.3 1.4 1.5 1.3 1.5-.3 0-1.1 1.1-2.9 2.5-4.1 2.8-2.5 4-2.8 2.9-1-1.6 3 9.9-10.2 12.9-14.7 4.5-6.7 5.1-8.5 2.9-8.6-.9 0-2.8-.2-4.2-.4-4-.6-29-2.5-33.1-2.5-2.1 0-4.4.7-5.3 1.5M908.5 335.7c.7 5 2.4 23 2.5 26.8.1 3 .1 3 1.1.5.6-1.4 1.3-2 1.7-1.4.4.5 1.6 1 2.7 1s1.9.5 1.8 1.2c-.5 2.2.7 1.3 1.7-1.3.5-1.4 1.5-2.5 2.2-2.5.9 0 .9.3-.2 1-.8.5-1.2 1.1-.9 1.4.9 1 5-2.5 4.3-3.6-.5-.7-.2-.9.7-.6.8.3 2.3 0 3.4-.8 1-.8 1.5-1.4.9-1.5-.5-.1.2-.4 1.6-.8s2.4-1.3 2.3-1.9c-.2-.6.4-.9 1.2-.6 1.5.6 1.9-.4 1.6-3.9-.2-1 .5-1.7 1.6-1.7 1.7-.1 1.7-.1 0-1.1-1.1-.6-2.5-1.2-3.1-1.3-.7-.1-2.4-.9-3.7-1.7-3.6-2.2-15.8-7.9-17.2-7.9-.7 0-2.1-.7-3.1-1.5-3.1-2.3-3.7-1.8-3.1 2.2M960.2 346.5c-6.3.7-11.6 1.6-12 1.9-1.1 1.2 26.6 28.8 28.1 27.9.4-.2.6.1.5.8-.2.6.3 1.4 1 1.6 1 .4 1.2-.4.7-3.3-1.3-8-1.7-9.4-2.5-9.4-.5 0-1.2-2.3-1.6-5-.4-2.8-1-5-1.5-5-1.5 0-1.5-8.4.1-9.7 1.8-1.5 2.4-1.5-12.8.2M948 352.6c0 .6.3 1.4.7 1.8.4.3.8 1.4.9 2.4.2 1.7 1.6 8.7 3.4 17.6 1 5.1 2 7.2 2 4.3 0-1.1.8-1.7 2.3-1.7 1.7 0 1.9-.2.7-.9-.8-.6-1.9-.7-2.5-.4-.5.4-.2-.3.8-1.4.9-1.1 1.4-2.3 1-2.7s0-.4 1 0c.9.3 1.7.2 1.7-.4 0-.5 1.2-.7 2.8-.4 2.5.5 2.6.4 1.2-1.4-.8-1-3.6-4.2-6.1-6.9-2.6-2.8-5.8-6.4-7.2-8-1.5-1.7-2.7-2.5-2.7-1.9M937.5 355c-9.6 6.2-21 14.9-20.7 15.9.1.6-.4 1.1-1 1.1-1.6 0 8.1 6.3 17.7 11.5 3.9 2.1 7.7 4.3 8.5 4.9 1.4 1.2 6.6 3.6 7.5 3.6.3 0 .5-.7.5-1.6s.7-2.2 1.4-2.8c1.3-1 1.2-2.4-.4-10.6-2.8-13.7-3.1-14.5-3.8-13.4-.4.6-1.6 1.3-2.8 1.6-1.9.5-2.1.1-2.3-4-.1-2.5-.6-5.1-1.1-5.7-.5-.7-.7-1.5-.3-1.8 1.2-1.3-.2-.7-3.2 1.3M1052.4 358.5c.9 1.3 1.6 3 1.6 3.6 0 1.6 20.9 43.7 23.2 46.8 1 1.3 1.8 2.2 1.8 1.9 0-.7-10.6-25.3-13-30.2-1-2.1-1.6-4.4-1.3-5.2.3-1 0-1.2-1-.9-.8.4-1.7-.1-2.1-1.2-.3-1-1-2.9-1.6-4.3l-1-2.5 2 2.4c1.1 1.3 2 1.8 2 1.3 0-.6-.4-1.3-.9-1.7-.5-.3-1.3-2-1.7-3.8-.7-3.1-.8-3.1-1.4-.7l-.6 2.5-1.7-3.2c-1.9-3.6-2.2-5.7-.7-4.8.6.3.7-.1.4-.9-.3-.9-1.7-1.6-3.1-1.6-2.5 0-2.5.1-.9 2.5M1029.4 380.1c-.6.8-1.7 5.7-2.4 10.9s-1.5 10.9-1.7 12.5c-.5 3-.3 3.1 5.4 4.4 3.2.7 6.9 1.5 8.2 1.8 2.1.5 2.2.4 1.2-1.6-.7-1.2-1-2.5-.7-3s-.3-3.5-1.3-6.7c-1.1-3.3-2.5-8.5-3.2-11.7-.8-3.1-1.9-5.7-2.5-5.7-.7 0-1.4-.5-1.6-1.1-.2-.7-.7-.7-1.4.2M990.2 390.8c7.2 7.6 16.1 16.2 17.1 16.2.4 0 .7-1.2.7-2.8.1-1.5.3-5.2.6-8.3.5-5.3.4-5.7-1.8-6.2-1.4-.4-2.7-.1-3.3.7-.7.8-2.5 1.3-4.5 1.1-3.5-.2-5.2-2.2-3-3.5.8-.5.1-1-2-1.5-2.3-.5-3.5-.3-4.1.6-.7 1.1-.9 1.1-.9-.1 0-.9-.9-1.6-2-1.7-1.6-.1-.9 1 3.2 5.5M970.3 390.8c-4.3 2.9-7.1 5.4-7 6.3s.7 1.5 1.4 1.2 1.6.2 1.9 1.1 1.7 1.6 3 1.6 4.3.6 6.6 1.4c2.4.8 5.7 1.7 7.4 2.1l3.2.6-2.4-6.8c-3-8.4-4.3-11.1-5.9-11.7-.6-.2-4.3 1.7-8.2 4.2M985.4 396.1c2.1 6.6 3.6 9.4 5 9.9 2.6 1 15 3.9 15.4 3.6.6-.6-22-22.6-23.2-22.6-.1 0 1.1 4.1 2.8 9.1M1033.5 432.2c-3.4 7.3-7.9 16.2-9.9 19.7-2.8 4.9-3.4 6.7-2.5 7.7.6.8.9 2 .6 2.7s.4 5.3 1.5 10.3c1.1 4.9 2.2 10.2 2.5 11.8.4 2 .8 2.4 1.4 1.5 1.4-2.3 1-10.8-.7-14-.8-1.7-1.3-3.3-1.1-3.6.3-.3 1.2.8 2 2.4 1.8 3.3 2 3 4.2-7.7.9-4.1 2.7-12.8 4-19.2 1.4-6.4 2.5-12.9 2.5-14.5.1-1.5.7-4.5 1.4-6.6 2.6-7.1.4-3.6-5.9 9.5M1038.7 436.2c-3.4 15.1-5.6 25.6-6.7 31.5-1.4 7.7-1.5 7.1 6.4 33.7.7 2.2 1.8 4.2 2.4 4.4.9.3 1.2-3.3 1.2-13.6 0-7.6.3-18 .6-22.9.6-7.9.9-9 2.4-8.6 1 .3 2.1 0 2.4-.6.4-.6 2.3-1.1 4.3-1.1 4.2 0 9-3.2 7-4.7-1.4-1.2-13.6-8.3-14.1-8.3-.2 0 .2 1.7 1 3.7.7 2.1 1.3 4.7 1.3 5.8s-.7 0-1.5-2.5c-.9-2.5-2.3-5.1-3.2-5.7-1.1-.9-1.6-3.1-1.7-6.8-.2-6-1-7.9-1.8-4.3"/><path d="M1078 443.1c-4.7.4-12.8.8-18 .9-13.8.2-14.7.9-6.4 4.9 3.8 1.8 8.2 3.9 9.7 4.7 4.2 2.1 5.1 1.9 14-3.8 8.3-5.2 11.9-7.9 10.2-7.6-.6 0-4.8.4-9.5.9M1016.6 464.2c-6.6 8.5-11.6 15.7-11.6 16.5 0 .9 20.2 13.5 20.7 12.9.2-.1-.1-2.5-.7-5.2-.5-2.7-1.9-9.8-3-15.9-1.2-6-2.3-11.1-2.5-11.3-.1-.2-1.5 1.2-2.9 3M1044 482.9c0 13.2.2 15.2 1.5 14.7.8-.3 1.5-.1 1.5.4 0 .6-.7 1-1.5 1-1.1 0-1.5 1.2-1.5 5 0 2.7.3 5 .6 5s3.5-2.3 7.1-5.1c5.8-4.6 7.5-7.4 4.6-7.4-.6 0-1.5-.4-2-.9s-.3-.6.5-.2c1.7 1 1.5-.8-.7-5.7-1.1-2.3-3.3-7.8-5.1-12.2-1.7-4.4-3.6-8.4-4.1-9-.5-.5-.9 5-.9 14.4M1019.6 506.4c-3.6 5.2-6.6 9.9-6.6 10.4 0 1.4 24.5-2.2 25.5-3.7.4-.8-10.1-15.4-11.5-15.9-.4-.2-3.8 4-7.4 9.2"/></svg>