<svg xmlns="http://www.w3.org/2000/svg" width="1706.667" height="960" viewBox="0 0 1280 720"><path d="M0 360v360h539v-3.4c0-1.8-.3-5.4-.6-8-.6-3.7-1-4.6-2.7-4.6-1.9 0-2-.1-.2-2 1-1.1 1.6-2.2 1.3-2.5-.2-.2-3.1-1.1-6.4-1.9l-5.9-1.5 6.3.6c6.2.6 6.2.5 6.2-2 0-1.5-.9-6.6-2-11.4-1.2-4.8-1.9-9.6-1.7-10.8.1-1.1.9.6 1.6 3.7 1.3 6.2 2.6 7.9 3.6 4.9.3-1.2 1.9-2.1 4-2.5 1.9-.4 3.5-1.1 3.5-1.6 0-.6.6-1 1.3-1s1.9-1.5 2.6-3.3c.8-1.7 1.5-3.4 1.6-3.7s.6-2 1-3.8c.5-2 1.4-3.2 2.4-3.2 4.4-.1 8.7-7.5 5.6-9.9-.9-.7-29.3-9.1-30.8-9.1-.3 0-.7 1.9-.9 4.2l-.3 4.3-1.3-4.2c-1.1-3.5-1.5-4-3.5-3.5-2.1.5-2.1.5-.4-1.2 1.5-1.6 1.9-2.4 1.6-4.2 0-.4.5-1 1.2-1.5.7-.4 1.9-2.5 2.6-4.6l1.3-3.8-.5 3.5c-.3 1.9-.6 4.4-.7 5.5-.4 2.8 4.5 4.9 21.2 9 3 .7 7.2 1.9 9.4 2.5 3.1.9 4 .9 4.7-.2.7-1 .9-.9.9.5 0 1 .4 1.6.9 1.3.5-.4 1.2-5 1.5-10.4.8-12.1 2.5-31 3.1-33.9.3-1.2-.1-2.8-.7-3.5-.7-.7-2-2.6-2.8-4.2s-2.7-4.1-4.2-5.5c-1.6-1.4-2.8-3-2.8-3.4 0-.5-.9-2.3-2.1-4-2-3.1-2-3.1 1 .3 1.7 1.9 3.1 3.9 3.1 4.4 0 .4 1.1 1.7 2.5 2.8s2.5 2.5 2.5 3.2c0 2 3.9 5.1 5 4s15.4-29.5 15.6-30.9c0-.6.5-1.9 1-3 .8-1.9.8-1.9 1.4.5.7 2.7.2 5.2-.9 4.6-.8-.5-1-.2-10.1 18.4l-6.2 12.5 2.3 1.8 2.3 1.8-2.6-.6c-2.3-.6-2.7-.3-3.2 2.2-.8 3.4-2.4 34.5-2 38.8.1 1.6.3 3.8.3 4.9.1 1.9.1 1.9 6.8 0 1.8-.5 2.3-.1 2.9 2 .3 1.4.9 2.6 1.3 2.6.8 0 0-6.5-1.7-15.2-.5-2.6-.5-4.5-.1-4.2.5.3.9 1.2.9 2.1 0 2.4 6.1 21.6 7.3 23.2.7.8 1 2.4.9 3.7-.5 3.8 2.5 3 3.3-.9 1-5 5.4-19.3 12-39.3.7-2.2 1-4.5.7-5.1-.4-.5-5.1-3.2-10.4-5.9-5.3-2.6-9.6-5-9.4-5.2.2-.1 3.7 1.3 7.7 3.3 8.4 4.2 12.9 5.7 12.9 4.5 0-.4.6-1 1.3-1.3q1.2-.45 1.2 2.7c0 1.7-.2 3.3-.6 3.6-1.5 1.2-12.7 39.3-13.3 44.9-.1 1.1 1.7 1.4 8.2 1.3 10-.1 11 1.4 1.2 2-4 .2-7.5.9-8.2 1.7-1.1 1.1-.3 1.2 4.7.6 7.8-.8 10.7-1.3 18.3-2.6 6.2-1.1 6.3-1.2 5.7-3.8-.5-2.1-9.9-26.4-13.4-34.6-2.5-5.8-3-7.5-2.3-7.5.4 0 1.5 1.9 2.4 4.2 13.1 34.2 16.6 42 23.3 52.3 1.8 2.7 4.4 6.8 5.8 9.1 1.4 2.2 3.3 4.8 4.2 5.8 2.8 2.8 1.3 2.6-4-.5-4-2.4-4.4-2.8-2-2.3 2.5.6 2.8.5 1.9-.7-.6-.8-4.1-6-7.8-11.7-5-7.7-7.2-10.2-8.4-9.8-.9.3-4.9 1-8.8 1.5-10.1 1.5-17.3 3.1-17.9 4.2-.7 1.1 6.2 4.2 20.8 9.4 5.9 2.1 10.6 4 10.4 4.2-.3.2-2.4-.3-4.8-1-4-1.3-12.6-3.9-23.6-7.3-2.4-.7-4.3-1-4.3-.6 0 1 7.8 14.5 16.2 28.2l6.5 10.5 56.8.3c41.1.1 57.2-.1 58.1-.9 1-.8 1.4-.8 1.4 0s9.7 1.1 34.5 1.1H803l-3.1-5.1c-1.7-2.7-2.9-5.2-2.7-5.4s1.9 2 3.6 5l3.3 5.5h5.9c3.7 0 6-.4 6.3-1.3q.6-1.35.6 0c.1 1 47.1 1.3 231.6 1.3H1280V0H0zM496.7 73.7c18.7 4.1 24.6 4.4 37.8 2 9.8-1.8 13.3-2.1 9.8-.7-1.2.5-5.9 1.4-10.5 2-4.5.6-8.7 1.4-9.2 1.7-1.3.9 4.1 3.4 24.1 11.3 9.8 3.9 20.4 8.2 23.6 9.6 3.2 1.3 6.1 2.4 6.4 2.4s.2-1.2-.2-2.7c-.5-2.3-.4-2.5.9-1.4.9.7 1.4 1.7 1.1 2.1-.7 1.2 2.6 5.1 3.7 4.4.6-.4.8-.2.4.4-.3.6.3 1.7 1.4 2.5 1.1.7 1.8 1.6 1.5 1.9-.5.4 12 15.7 24.8 30.2 2.9 3.3 7.2 8.5 9.7 11.6 8.2 10.2 17.3 20 18.6 20 .7 0 2.5-.6 4.1-1.4 1.5-.8 7.2-3.4 12.5-5.8 5.4-2.4 9.8-4.8 9.8-5.4 0-1.1-2.9-3.3-13.2-9.8-3.2-2-5.8-3.8-5.8-4.1 0-.7.1-.6 7.3 4.1 2.8 1.9 5.6 3.4 6.1 3.4.6 0 2.3 1.2 3.9 2.7l3 2.8-.7-3c-.5-2.6-.5-2.8.6-1 1.7 2.9 2.7 3.4 6.7 2.9l3.6-.5-3.2 1.5c-3.7 1.7-3.9 2.4-1.8 5.2.8 1 1.4 2.3 1.5 2.9 0 .5-.5.3-1-.5-.7-1.1-1-.3-1.1 3l-.1 4.5-1-5.5c-.5-3-1.3-5.9-1.8-6.3-.8-.9-28 11.1-28 12.3 0 .9 10.8 11.4 19.8 19.1 3.9 3.4 7.2 6.4 7.2 6.6 0 .3-1.2-.6-2.8-1.9-10.2-8.6-14.1-11.9-19-16.1l-5.7-4.8-.7 2.8c-.4 1.5-.6 3.4-.3 4.2s.6 16.1.6 34v32.6l2.7 2.8c2.3 2.4 2.4 2.7.7 2.1-1.1-.4-2.7-1.3-3.6-2.1-1.5-1.2-1.9-1-4 1.8-3.1 4.4-16.9 21-24.2 29.3-3.4 3.9-8.2 9.5-10.7 12.5-6.9 8.5-13 14.7-13 13.5 0-1.1 4.6-6.6 17.3-20.8 10.8-12 31.6-38.1 30.9-38.8-.4-.4-7-3.6-14.7-7.1-7.7-3.6-19.7-9.2-26.7-12.6-7-3.3-13.3-6.1-14.1-6.1s-1.7 1.3-2 2.9c-.5 2.5.8 21.5 2.9 41.6.5 5.4.5 5.8-.8 4-.9-1.2-1.5-4.9-1.6-9.5-.1-4.1-.9-13.8-1.7-21.4s-1.2-14.3-.9-14.7c.3-.5.2-1.4-.1-2-.4-.6-2.3.8-4.7 3.3-2.1 2.4-7.6 8.1-12.1 12.8-21 21.9-51.2 54.2-51.6 55.2-.2.7 1.1.9 4 .5 2.4-.4 7.6-.9 11.4-1.2l7-.5-5 1.5c-2.7.9-7.5 1.9-10.5 2.3l-5.5.8 7.5 1.6c4.1 1 12.9 2.7 19.5 3.8s19.6 3.5 28.8 5.2c11.2 2 17.2 2.7 17.8 2.1.7-.7.7-3 0-6.9-1.4-8.4-1.8-22.4-.5-21.2.3.3.7 4.1 1 8.4.6 11.3 2.4 19.4 4.4 19.4.9 0 3.8-1.1 6.6-2.4 5.2-2.7 11.2-5 10.4-4.2-1.4 1.3-12.2 6.5-15 7.1-2.6.6-3.1 1.1-2.7 2.7.5 1.6.2 1.9-1.5 1.5-1.2-.3-3.4.1-4.9.9-1.5.7-3.2 1.4-3.6 1.4-.4-.1.8-.9 2.7-1.9l3.5-1.9-4-1c-2.2-.6-7.1-1.5-11-2.1-3.8-.6-13.3-2.2-21-3.6s-18.3-3.2-23.5-4.1c-5.2-.8-11.3-1.9-13.5-2.4-2.1-.5-4.1-.8-4.2-.6-.3.2 3.8 5 12.9 15.3 2.6 2.9 5 6.4 5.4 7.8.3 1.4 1 2.5 1.4 2.5s2 1.8 3.4 4.1c2 2.9 2.2 3.8 1 3.1-2.5-1.4-5.6 2.1-5.4 6.1.1 1.8.1 5.4 0 8.2l-.2 5-.9-4c-.5-2.1-.7-4.5-.5-5.2.3-.6-.4-1.5-1.5-1.8-1-.4-1.9-1-1.9-1.4s-1.8-1.6-3.9-2.6c-2.2-1-4.2-2.4-4.5-3.2-.4-.9-.1-1.1.5-.7.7.4 1 .1.7-.7s-1.1-1.4-1.9-1.4c-2 0-5.9-3.7-5.2-4.9.3-.6 0-.6-.7.1-1 .9-1.7.7-3.2-.7-1.1-1-3.5-2.1-5.4-2.4-4-.8-10.6-3.5-8.4-3.5.8 0 4.5.8 8.3 1.8 10.6 2.9 9.2-.5-1.7-4.2-6.5-2.2-11.5-2.2-13.2 0-.8 1.1-1.3 1.3-1.4.5 0-.6-.5-1.2-1.1-1.2-.5 0-.7.4-.4 1 .3.5 0 .7-.9.4-1.4-.5-10.4 2.9-11.6 4.4-1.1 1.6-7.8 6.1-12.7 8.7-4.2 2.1-5.3 3.2-5.3 5.1 0 1.3-.4 2.4-.9 2.4s-1.2.8-1.4 1.7c-.3 1-.3.1-.2-2 .3-4.2-.3-4.4-8-2.8-2.2.5-10.5 2.3-18.5 4-12.2 2.6-20.2 4.5-27.8 6.7-.8.2-1 .9-.5 1.8.4.7 9.4 10.3 19.9 21.2 10.5 11 20.8 21.8 22.9 24.1 3.8 4.4 5.9 5.5 4.8 2.7-.4-1.2-.2-1.5.8-1.2.8.3 1.3 1.3 1.3 2.2-.1 1.1.7 1.6 3 1.7 2.6 0 2.8.2 1.1.8-1.1.5-2.4.6-2.9.3-.4-.2-1.1 0-1.5.5-.3.5-2.2 1.3-4.1 1.6-3 .5-3.2.4-1.2-.5 1.2-.6 2.2-1.4 2.2-1.7 0-.6-9.9-2.9-33.5-7.6-7.1-1.4-14.8-3-17-3.5-18-4.3-55.1-11.8-55.7-11.2-.3.4-2 6.1-3.7 12.8-2.8 11.2-4.9 17.8-5 16.2-.1-1 2.7-12.7 4.4-18.2.8-2.7 1.5-6.2 1.5-7.7v-2.7l-7.7 4.7c-12.5 7.5-17 10.3-25.1 15.5l-7.7 4.9 3.5 1.4c3.3 1.2 3.3 1.3.5.8-4.7-.8-8.7-.8-12.5-.1l-3.5.7 3.8-2.1 3.8-2.1-3.8-4.1c-5.6-6-7.6-7.8-8.5-7.8-.5 0-1.8 1.9-2.9 4.2l-2 4.3.4-5.3c.2-2.8.1-5.2-.2-5.2s-2.7.7-5.3 1.4c-2.5.8-4.9 1.2-5.2.9-.3-.4-.6.5-.6 2 0 1.4-.4 2.9-1 3.2-.5.3-1 1.7-1 3s-.5 2.7-1 3c-.7.4-.8-1.2-.4-4.9.5-4.3.3-6.1-1-8.1-.9-1.4-1.3-2.5-.9-2.5.5 0 0-.5-.9-1.1-1-.5-1.5-1.7-1.2-2.7.5-1.4.3-1.4-1 .2-1.8 2.2-2.3 12.6-.6 12.6.6 0 1-.6 1-1.4 0-1.4 2.9-3 3.8-2.1.3.3 0 .5-.6.5-.7 0-1.1.3-1 .7.1.5-.3 2.6-.9 4.8-3.3 11.8-3.5 15.2-1.4 21.5 1.2 3.3 2.1 7.2 2.1 8.7 0 1.4.2 2.4.5 2.1 1-.9 1.4-16.3.5-16.8-.5-.3-.3-2.8.4-5.5l1.3-5v5.9c0 3.7.5 6.1 1.4 6.6.9.6 1 1.2.1 2.2-1.2 1.6-1.1 18.1.2 21.3.7 1.6.5 1.5-.9-.3-.9-1.3-2.1-3.5-2.6-5-.9-2.6-.8-1.2.8 12.3.2 2.2.6 6.8.8 10.1.3 5.9 3.5 15 9.7 27 1.1 2.2 1.9 4.6 1.7 5.3-.3.7-2.6-4-5.3-10.3-2.7-6.4-5.2-11.6-5.6-11.6-1 0-4.2-17.3-3.5-19.1.3-.8.1-3.4-.4-5.9l-.9-4.5-.1 5.7c-.1 3.1-.4 6.4-.7 7.2-.6 1.5-.8 1.5-2-.1-1.3-1.7-1.3-1.7-1.5.2 0 1.1-.1 3.3 0 5 .1 3.2-.4 2.7-1.3-1.8-.4-1.5-1.3-2.7-2.1-2.7-2.3 0-17.5 7.4-17.2 8.3.3 1 4.7 2.8 11.5 4.7 2.4.6 4.2 1.4 3.9 1.6-.7.7-15.7-3-19.2-4.8-1.7-.8-3.7-1.3-4.5-1.1-1.2.4-1.2.2-.2-.5 1-.6-.1-2.1-4.3-5.7-3.1-2.6-5.4-5-5.1-5.2.3-.3 2.9 1.6 5.8 4.1 2.9 2.6 6.3 4.9 7.5 5.2 2.3.6 20.3-7.2 20.3-8.8 0-.4-2.4-.8-5.2-.8-2.9-.1-10.7-.7-17.3-1.4-6.5-.8-12.5-1.1-13.3-.8-1 .3-1.2 1.4-.8 3.6.5 2.5.4 2.7-.5 1.3-2.5-4.2-1.9-6.7 5.1-21.9 3.9-8.4 8.8-18.7 11-22.8 2.1-4.1 7-15.1 10.9-24.3 5.9-14 7.2-18.2 8.1-25.5 1.2-10.7 1.3-19.3.1-22.4-1.7-4.6-2.3-10-1.1-9.3.9.5 1 .1.5-1.6-.4-1.3-1.1-2.6-1.4-2.9-.4-.3-.7-1.4-.6-2.5 0-1.1-.3-2.2-.6-2.5-.4-.3-1-3.2-1.4-6.4-.6-4.3-.5-5.7.4-5.2.6.4.9 1.1.6 1.6s-.1 1.7.4 2.7c.6 1 2 4.9 3.1 8.7 1.1 3.9 3 8.9 4.2 11.3 1.8 3.5 2.7 4.3 5 4.3 1.8 0 2.8-.5 2.8-1.5 0-.8.5-1.5 1-1.5.6 0 1-.9 1-1.9 0-3.5 1.8-3.2 2.4.4.6 3.1 1 3.4 5 4 7.9 1.2 8 1 2.6-9.8-2.6-5.3-4.4-9.7-4-9.7.5 0 1.1.8 1.5 1.9 1 3.2 12.5 20.5 14.8 22.3 3.1 2.4 3.5 2.3 5.1-1.7 2-4.6 2.7-4.5 1.1.2-3.1 9.4-3.3 9 4.2 11.2 3.8 1.1 9 2.3 11.7 2.7 4.6.6 4.9.5 4.1-1.2-.5-1.1-.9-3.7-1.1-5.9-.1-2.2 0-2.9.2-1.5.7 3.7 2.5 8 3.4 8 1.9 0 34-15.1 34-16 0-.7-7.9-5.8-19-12.2-5.2-3.1-12.7-7.4-16.7-9.8-4-2.3-7.6-3.9-8-3.7-.5.3-1.9-.8-3.2-2.4s-2.9-2.9-3.6-2.9-1.5-.4-1.7-.9c-.1-.5-4.6-3.7-9.8-7.2-5.2-3.4-13.4-9.1-18.1-12.6-4.8-3.4-8.9-6.3-9.2-6.3-.2 0-1.2 3.3-2.1 7.2-1 4-2.6 9.8-3.7 13-1.1 3.1-1.9 6-1.8 6.5.3 1.8-.2 3.3-1.1 3.3-1.5 0-1.2-3.4.9-8.7 3.2-8.2 5.4-18.5 4.2-19.3-.8-.4-.5-1.3.9-2.5 1.1-1 2-2.4 2-3 0-.7 1.3-4.1 2.8-7.6 1.6-3.5 3.2-7.3 3.6-8.3.3-1 .9-1.7 1.1-1.4.3.3-.6 3.5-2 7.2-3 7.9-3.1 9-.7 8.2 1.1-.4.9 0-.6 1-1.2.9-2.2 2-2.2 2.4 0 1.5 38.1 28 40.3 28 1.4 0 .6-3.5-3.8-18.2-2.5-8.3-4.4-15.6-4.2-16.2s.7.5 1.2 2.4c.4 1.9 1.1 3.9 1.5 4.5.4.5 2.2 5.7 4 11.5s3.8 11.3 4.5 12.3c1.1 1.6 1.3 1.6 2.7 0 1.8-2.1 30-53.5 35.4-64.6 2.1-4.2 4.2-7.7 4.7-7.7.4 0-1.2 3.7-3.6 8.2-2.4 4.6-7.5 14.1-11.2 21.3-3.8 7.1-9.2 17.2-12.2 22.3-2.9 5.1-5.3 9.5-5.3 9.8 0 .2-2 4-4.5 8.4s-4.5 8.2-4.5 8.4c0 1.1 25.5 16.9 34.6 21.4 2.3 1.2 5.5 3.2 7.2 4.6l3 2.6.6-2.3c.8-3 .8-97.2 0-103-.4-2.7-1.1-4.4-1.7-4s-.7-.7-.3-2.9l.6-3.4-13.2 1.7c-7.3 1-16.3 2.3-20 3l-6.6 1.2-.7 8.4c-.7 8.4.4 14.1 2.4 12.8 1.7-1 4.1 2.6 4.1 6 0 2.6-.4 3.3-1.4 2.9-.8-.3-2.5.1-3.8 1-2.3 1.5-2.5 2.4-3.6 19.1-.7 9.7-1 18-.7 18.5.3.6.2 1.7-.3 2.6-.8 1.4-1 1.2-1.6-1.1-.4-1.5-.5-3.4-.2-4.3.3-1 1.1-13.2 1.7-27.2 1.1-23 1.3-28 .9-33-.1-.8 0-2.2.2-3 .2-.9-.3-1.4-1.1-1.2-1.2.3-1.2 0-.1-1.2 1-1.3 1-1.9-.1-3.3-1.3-1.5-1.2-1.5.9-.4 1.3.7 2.5 1.1 2.6.9.2-.2 2.6-6.6 5.5-14.3s7.1-18.3 9.3-23.5c4.8-11.2 7.1-18.7 6.3-20-.3-.5-.1-1.9.5-3 .8-1.5.8-2-.3-2-.8 0-1.7.3-2.1.7-.7.8-3.6 1.3-3.6.7 0-.2 1.8-1.3 4.1-2.4 2.3-1.2 3.9-2.4 3.6-2.7s.5-2.3 1.9-4.4c1.3-2.1 2.4-4.4 2.4-5 0-.7.3-.9.6-.6.4.4.1 2-.6 3.7-1.5 3.5-1 4.4 1.8 3.6 1.1-.4 2.2-1.9 2.5-3.5.4-1.8 2.4-4.4 5.2-6.7 2.5-2.2 10.6-9.9 18-17.2l13.5-13.3-4.3-1.9c-4.9-2.3-3.6-2.7 1.6-.5 2 .8 4.4 1.2 5.4.8s5.9-3.9 10.8-7.8c11.9-9.4 16.5-12.8 16.5-12.2 0 .3-5.4 4.8-12.1 10.2-7.4 5.9-11.9 10.2-11.7 11.2.5 2.5 31.8 18 34.1 16.9.6-.3 3.9-2.8 7.2-5.5 3.3-2.8 12.2-9.6 19.8-15.3 9-6.7 13.1-10.4 12-10.6-2.3-.3-40.9 7.5-43.4 8.8-1 .6-2 1.8-2.4 2.9-.8 2.7-6.3 3.4-7.1.9-.6-2-2.1-2.2-5.6-.9-3 1.1-13.5 2.5-12.7 1.7.7-.8 6.1-2 38.2-8.6 13-2.7 27.4-5.8 32-6.9 4.5-1.1 15.2-3.2 23.7-4.6 8.5-1.5 20.5-3.7 26.5-5 6.1-1.2 13.3-2.6 16-3l5-.8-5.5-1.2c-3-.7-10.9-2.5-17.5-3.9-12.6-2.8-14.8-3.4-12.8-3.5.7-.1 8.8 1.6 18 3.6m442.1 34.8c2 1.4 3 2.5 2.2 2.5-1 .1-.7.7 1 2.1 1.4 1.2 5.7 5.1 9.5 8.7 9.7 9.2 22.4 20.5 24.2 21.6 1.6.9 2.6 1 21.1 2.1 6.7.4 12.2.4 12.2 0s-3.2-4-7.1-7.9-8.9-9.4-11.1-12.1c-2.2-2.8 2 1.2 9.5 8.7 7.4 7.6 14.1 13.8 14.9 13.8 1 0 1 .2.1.8s-.6 2.4 1.3 7.2c1.5 3.6 3 6.9 3.4 7.5 2 2.5 6.1 10.7 5.6 11.2-.2.3-1.7-1.8-3.1-4.7s-2.8-5-3-4.8c-.3.2.9 4 2.6 8.4 1.7 4.3 3.7 10 4.4 12.6.8 2.6 4 12.7 7.3 22.5s7 21.1 8.3 25c1.2 4 2.5 7.3 2.9 7.3.3 0 1.1-1.2 1.8-2.8l1.2-2.7-.7 3c-1.6 7.6-1.5 7.7 7.2 10.3 4.4 1.4 7.5 2.7 7 2.9-.6.2-3.7-.6-7-1.7-3.2-1.1-6.4-2-7.2-2-1.1 0-1.3 4.6-1 26.5l.4 26.5-6.2 6.3c-5 4.9-6.7 7.6-8.8 13.2-4.3 11.7-4.2 11.5-1 11.6 1.5.1 4.3.3 6.1.5 2.5.2 3.2-.2 3.2-1.5 0-.9.4-2.1 1-2.7.5-.5 1.4-2.7 1.9-4.9l.9-4 .1 3.3c.1 1.8-.4 4.2-1 5.4-1.9 3.5-.1 3.1 4.7-1.1 2.6-2.2 5.5-4.1 6.5-4.1 1.1 0 2-.8 2-1.8.3-4 .1-8.9-.6-11.7-.4-1.7-.5-2.8-.2-2.5s1.3 3.3 2.2 6.5c1.2 4.6 1.3 6.6.4 8.6-.6 1.5-.9 4-.7 5.5.3 2.9.4 2.8 2.8-1.6 3.2-5.8 4.3-11 2.1-10.2-1.1.4-.9-.3.7-2.6 3.8-5.3 5.4-11.1 4.8-17.7-.3-4.3-.2-5.3.4-3.5.7 1.8.8 1.2.4-2.5-.3-2.8-1-5.5-1.5-6.1-1.1-1.4-1.8-8.4-.9-8.4 1.2 0 4.5 15.3 4.4 20.5 0 2.8-1.4 9-3.2 14.2-1.7 5-3.4 10.9-3.7 13-.4 2.1-.9 4.6-1.2 5.7q-.45 1.8.6 1.2c1.9-1.2 1.2.2-1.1 2.4-1.8 1.7-1.9 2-.5 2 .9 0 1.7.4 1.7 1 0 .5.5 1 1.1 1 .5 0 .8-.4.5-.9s.1-1.4.9-2.1 1.5-.8 1.5-.3c0 1.6-4.1 9.6-6.6 12.9-2 2.6-2.4 4.3-2.4 10.1 0 7.3 1.2 10.7 10 28.5 3.4 6.8 3.6 7.5 1.6 5.9-1.3-1.1 5.9 17.9 8.4 22.1.5 1 1 2.5 1 3.3s.4 2.3 1 3.3c.5.9 1.9 4.6 3.1 8.2 2.9 9 5.5 13 8.5 13 1.3 0 2.4-.2 2.4-.5 0-.8-12.8-25.6-14-26.9-.5-.7-1.7-3.3-2.5-5.7-1.4-4-1.3-4.2.1-2.4 2.5 3.2 18.4 36.5 18.3 38.3-.1 1.5-.2 1.5-.6-.1-.5-1.9-.8-1.9-4-1.1-1.9.5-2.2 1.2-1.8 4.3.4 3.5.4 3.5-.7.8-.7-1.5-1.6-2.7-2.1-2.7s-5.4 2.8-10.9 6.2l-10.1 6.3 3.7.6c5.9 1 5 1.6-1.6 1.1-5.8-.4-6.1-.4-5.6 1.6.5 1.8.3 1.9-1.2 1-1.5-1-2.2-.6-4.3 1.8-1.4 1.6-2.9 2.6-3.3 2.1-.4-.4-.2-1.3.4-1.9 2-2 1.4-2.3-3.5-2-10.3.6-11.8 2-5.3 4.8 2.2 1 3.8 1.9 3.6 2.2-.3.2-2.1-.4-4.1-1.3-1.9-1-3.8-1.5-4.1-1.3-.3.3.7 3.2 2.2 6.4 5 11.3 9.6 20.6 9.9 20.2.4-.4-1.1-9.4-2.4-14.2-.9-3.8-.5-9.6.8-9.6.3 0 .6 3 .7 6.6 0 3.7.5 6.9 1.2 7.3.6.3 1.4 3.1 1.8 6.1.3 3 1.3 7 2 8.7 1.5 3.8 4 4.6 3 1.1-2.8-10-3.6-15.1-2.5-16.4.7-.8.9-2.8.4-5-.4-2.2-.3-3.4.3-3 .6.3 1.3 2.5 1.7 4.9.8 4.8 3.1 9 4.5 8.2.6-.4 1-.1 1 .4 0 .6-.6 1.1-1.2 1.1-.7 0-.4.7.7 1.6 1.6 1.2 1.7 1.6.6 2.3-1 .7-1.2 2.1-.8 5.1.6 4.6 0 7.3-1.4 6.4-.5-.3-.9 0-.9.7s-1.3 0-2.9-1.5c-2-1.9-3.4-2.5-4.3-2-3.5 2.1-16.8 12.9-16.8 13.6 0 .4.9.8 2 .8 1 0 4.2.9 6.9 2 2.8 1.1 5.7 1.7 6.5 1.4s3.4-3.5 5.7-7c2.4-3.5 4.4-6.4 4.6-6.4.7 0-5.1 10-6.8 11.8-4.5 5-5 6.6-3.4 11.2 1.8 5.2 2.2 11.7.8 13.1-.7.7-2.9.3-6.7-1.2-5.4-2-5.9-2-7.6-.4-1.7 1.5-1.8 1.5-1.6-.1.1-1.2-1.2-2-4.7-2.9-2.6-.6-5-1.5-5.3-1.8-.4-.4-1.6-.1-2.7.5-1.6.8-1.9.8-1.4-.4.3-.9-.6-2.1-2.6-3.3-1.8-1-6.4-3.9-10.4-6.5-5.2-3.4-7.5-4.4-8.7-3.8-1.4.8-1.4.5-.6-1.6.5-1.4.7-3.4.4-4.3-.5-1.4-.4-1.5.4-.4.5.7 1.5 1.1 2 .7 1.2-.7 13.4-18.8 13-19.1-.2-.1-4.5-2.8-9.5-6-5.1-3.1-9.3-5.9-9.3-6.1 0-1.1 2.3.1 10 5.1 4.6 3 8.7 5.1 9.1 4.7 1-.9-.6-9.3-1.8-10.1-.6-.3-1.3-3.8-1.6-7.6-.6-7 .5-5.5 1.8 2.5.7 4.1 2.7 9 3.7 9 .5 0 .9-1.2.9-2.8.1-1.5.3-4.2.5-6.1s.1-3.7-.4-4c-1-.8-3.4-6.3-2.8-6.8.2-.2 1 1 1.7 2.6.8 1.7 1.7 3.1 2 3.1.8 0 7-26.8 10.3-44.5.7-3.9 1.6-7.9 2-9 1.2-3.3-4.2 5.6-7 11.5-1.5 3-5.2 10.2-8.4 16-5.2 9.7-5.7 10.9-5.4 16 .2 4.5.1 4.9-.6 2.2-.4-1.8-1-3.5-1.3-3.8-.2-.3-4 4.2-8.3 10-4.4 5.8-8.5 10.7-9.1 11-.9.4-1.3-.5-1.3-2.7 0-2.4.3-2.8 1-1.7 1.1 1.8.6 2.2 9.4-9.3 4.6-6 6.6-9.5 6.3-10.8-.3-1.2 0-1.9.8-1.9 2 0 7-7.7 12.8-19.8 2.8-5.9 6.8-13.8 9-17.5 2.1-3.8 3.6-7.1 3.3-7.4-.9-1-16.1-4.3-17.3-3.9-.6.3-.9 1.3-.6 2.4.3 1.2-.4 2.4-2 3.5-1.6 1-3.5 4.5-5.8 10.6-3.5 9.5-4.9 11.2-4.9 6.1 0-1.8.5-2.9 1.2-2.8.6.2 2.1-2.3 3.2-5.4 1.2-3.1 2.8-6.5 3.7-7.5 2.4-2.6 3.4-6.3 1.7-6.2-5.9.3-12.7 2.7-15.2 5.4l-2.6 3 .6-2.7c.5-2.3.2-2.8-1.8-3.3-1.2-.3-6.1-1.4-10.8-2.5-4.7-1-13.7-3.3-20-4.9-13.4-3.6-15-3.7-15-1.4 0 1.2-.3 1.4-.8.6-2.1-3.3-15.5-1.9-32.7 3.4-4.9 1.5-9.3 4.3-6.7 4.3 1.4 0 1.6 3.6.2 4.5-.5.3-1 3-1.1 5.8-.1 5.6-.4 5.4-1.4-.6-.4-2.7-1-3.7-2-3.4-1.4.6-2.5-2.1-2.5-6 0-1.2-.6-2.4-1.2-2.6-.7-.3.1-.6 1.9-.6 1.7-.1 3.4-.4 3.6-.9 1-1.5-6.9-32.2-8.7-34-.4-.3-4.9.2-10.2 1.2-5.2 1-9.7 1.6-9.9 1.4-.3-.2 3.6-1.2 8.5-2.2 5-1.1 9-2.2 9-2.5 0-.4-4.3-3.1-9.5-6.1-5.3-3-15.9-9.2-23.6-13.8-7.8-4.5-14.8-8.2-15.5-8.2-.8 0-1.4-.5-1.4-1 0-.6-1-1-2.2-1-1.9 0-2-.2-.8-1s-.7-3.2-10-12.7c-6.9-7-8.5-8.9-4-4.8 4.1 3.9 7.8 7.5 8.2 8.1s3.2 3.2 6.1 5.7l5.5 4.6 7-1.4c3.9-.8 8.3-1.9 9.7-2.5 1.4-.5 3.2-1 3.8-.9 2.1.1-9.1 3.8-13.8 4.5-2.5.3-4.5.9-4.5 1.3 0 1.3 11.5 5.8 12.2 4.7 1-1.5 10-.9 13.3.8l2.8 1.5-2.6.6c-1.5.4-2.7 1.1-2.7 1.7 0 .5-.4.6-1 .3-.5-.3-1 .2-1 1.3 0 1.3 1.9 2.9 6.3 5.2 3.4 1.8 9.1 5.1 12.6 7.2 3.4 2.1 6.4 3.8 6.5 3.8.5 0-3.2-38.1-3.8-38.7-.1-.1-4 1.1-8.6 2.7-4.7 1.6-9.8 3-11.5 2.9h-3l2.5-1.1c1.4-.6 6.3-2 11-3.3l8.4-2.2-3.1-1.6c-2.6-1.4-19.1-7.7-20-7.7-.2 0-.3.9-.3 1.9 0 2.5-1.2 3.2-3 2.1-1.2-.7-1.2-1.4-.4-2.7 1.3-2.1 0-2.8-19.9-9.8-7.6-2.6-13.6-4.9-13.4-5.1.4-.4 38.5 12.2 44.2 14.6 4.3 1.8 16.7 6 17.6 6 1.2 0 1.8-6.8 2.3-27.5.3-10.5 1.1-32.2 1.7-48.3s.9-29.6.5-29.9c-.3-.3-2.2.9-4.3 2.7-3.8 3.3-44.2 33.5-49.8 37.2-5.2 3.5 3.1-3.6 10.5-9 7.1-5.2 23.2-17.4 34.7-26.5 4-3.1 7.3-6.1 7.3-6.6s-1.5-1.1-3.2-1.4c-13.2-2.1-23.7-4-39.3-7.1-9.9-2-20-3.8-22.5-4.1-2.5-.2-6.5-.9-9-1.4-2.5-.6-5.6-1.3-7-1.6s-4.6-.7-7.3-1c-2.6-.2-5.2-.7-5.8-1.1-.8-.4-.9 0-.4 1.5.4 1.2.2 2.1-.4 2.1s-1.1-.7-1.1-1.5c0-1.8-1.2-1.9-6.3-.4-5.8 1.6-5.6.4.2-1.6 2.8-.9 5.1-1.9 5.1-2.1 0-.7-11.8-11.6-18.5-17-3.3-2.7-8.2-6.9-11-9.4-6.5-5.9-18.9-18.1-15-14.9 1.7 1.4 3.7 3.1 4.5 3.7s5.8 4.8 11 9.4c15.2 13.4 22.1 18.3 23.1 16.7.5-.8.9-2 .9-2.7 0-.6.8-1.2 1.9-1.2s2.1-.9 2.5-2.3c.9-3.4.7-12.7-.3-12.7s-.8-2.7.3-5.3c.6-1.2 1.4-1.6 3-1.1 1.1.4 2.9.7 3.9.8s2.1.6 2.5 1.3c1.2 1.9 5.1.4 4.7-1.8-.2-1 0-1.9.6-1.9.5 0 .9-.5.9-1 0-.6-.8-1-1.7-1-2.8 0-4.4-1.5-3.7-3.3.3-.9 1.4-1.7 2.4-1.7 2.3 0 6-5 6-8 0-1.1-.4-1.9-.8-1.6-.4.2-1.4.1-2.2-.5-1.2-.7-.9-.9 1-.9 1.4 0 3.2-.5 4-1.1 1.1-.7-6.3-.9-25.2-.6-14.7.3-26.6.1-26.3-.3.2-.4 3.3-.8 6.7-.8 19.3-.3 63.4-2.6 64.2-3.3.5-.4-4.8-6.6-12-14.1-7.8-7.9-10.5-11.2-6.9-8.1 3.3 2.8 9.8 9 14.3 13.7l8.4 8.7 5.6-2.1c3.2-1.1 6.6-2.5 7.7-3 1.1-.6 5.8-2.3 10.5-4 10.5-3.7 20.9-8.3 21-9.2 0-.3-3-1-6.7-1.4-9.8-1-34.3-5.2-31.1-5.3 3.4-.1 38.7 4.7 39.9 5.5 1.9 1.1.8-1-2.6-5.2-4.5-5.4-4.5-6.6-.1-1.6 5.8 6.3 7 6.7 16.2 4.2 4.3-1.2 12.2-3.3 17.4-4.6 5.2-1.4 9.7-3 9.8-3.5.6-1.7 4.2-.9 8 1.6m101.5 61c1.9 6 4.9 15.7 6.7 21.5s4.5 14.1 6 18.5c5.5 15.5 11.8 42.4 12.5 53.4.5 7.2.4 10.2-.3 9.7-1.1-.7-1.3.3-3.1 11.4-.8 5.4-.9 5.3-1-3.5 0-5 .3-9.5.8-10 .6-.6 1.3-3.9 1.7-7.5.7-7.5-.5-13.7-6.4-33.8-2.2-7.2-3.8-13.2-3.5-13.2.2 0-.1-.9-.7-2s-2.5-6.6-4.1-12.3c-1.7-5.6-3.4-10.6-3.8-11.2-1.4-1.9-4-10-6.5-20-1.3-5.5-2.7-11.1-3.1-12.5-1.6-6.3 1.6 1.4 4.8 11.5m-736.4-5c-3.5 2.5-7.2 4.5-8.1 4.5-2 0-2.4 1.5-.8 2.5.6.3 1 1.3 1 2.1s-.4 1.4-1 1.4c-.5 0-1-.9-1-2.1 0-2.7-.7-2.4-12.9 5-5.3 3.2-10.6 6.2-11.8 6.5-1.3.4-2.3 1-2.4 1.4 0 .4-.3 1.6-.6 2.7-1.5 5.7-4.3 39.2-3.4 40.1.3.2 2-2.3 3.9-5.7 4.7-8.4 5-6.9.3 2-2.6 5-3.7 8.1-3.2 9.5.8 2.9 7.5 12.7 10.6 15.6 2.2 2.1 2.8 2.3 3.5 1 .5-.8 2.1-3.3 3.4-5.5 1.4-2.2 4.1-6.8 6.2-10.3 2-3.5 3.8-6.1 4-5.9.9.9-3.2 8.6-8.5 16.2-3.2 4.4-5.6 8.6-5.3 9.3.2.7-.2 1-1 .6-1.1-.4-6.7-8-13.5-18.1-1.4-2.2-1.1-2.6-5.6 7.2-2 4.4-3.7 7.4-3.7 6.7s1.4-4.2 3-7.9c1.7-3.6 3-6.7 3-6.9 0-1.1-1.9 0-5.1 2.9-3 2.6-3.7 4.1-4.3 8.4-.8 6.4-3.1 12.9-4.3 12.6-.6-.1-.9.9-.7 2.3.1 1.4-.1 2.3-.4 1.9-.4-.4-1.4 1.7-2.3 4.7-.9 2.9-2 5.1-2.5 4.8-1.1-.6-1.3.4 2.2-10.5 2.3-7.2 3-8.4 3.5-6.5.6 2.7.9 1.9 2.5-8.8.6-4.4 2.6-9.2 3.7-9.2.9 0 6.9-4.1 7.9-5.4.3-.5.9-7.5 1.2-15.5.4-8 .8-16.9 1.1-19.6l.4-5-1.9 2.5c-1.1 1.4-2 2.2-2 1.8 0-1.4 2.3-5.8 3.1-5.8.4 0 1.3-2.5 1.9-5.5s1.6-5.7 2.1-6.1c.6-.3.8-1.2.5-2-.3-.7 0-1.6.6-2 .8-.5.9.3.5 2.7-.5 2.6-.4 3 .4 1.6 1.4-2.4 3.2-2.2 1.9.3-.6 1.1-.8 2-.5 2 1.7 0 22-13.2 23.5-15.2.3-.4 2.4-1.4 4.6-2.1 2.1-.8 5.5-2.4 7.4-3.6 6.2-3.8 5.5-2.2-1.1 2.4m204.9 176.8c3.4 3.5 6 6.6 5.7 6.9s.1 1.1.9 1.7c.8.7 1.2 1.9 1 2.6-.8 2.1 1.4 5.5 3.6 5.5 1.7 0 1.9.3.8 1.9-1 1.7-.9 2.3.6 4 2.6 2.8 3.6 2.6 3.7-.7.1-4.2 1.2-6.3 2.8-5.3q1.35.9.3 1.5c-1 .6-.6 3.5.7 4.6 1.9 1.6 3.2 5.3 2.2 6-.7.3-.9 1.4-.6 2.2.4.9.2 1.9-.4 2.3-.7.4-1.1-.4-1.1-1.9 0-1.3-.5-2.6-1.2-2.8-1.7-.6-6 8.2-5.3 10.9.4 1.9.1 2.3-1.9 2.3-2.5 0-8.9 5.2-9.8 8-.3.9-.7 1-1.1.3-.4-.6.9-2.8 2.8-4.9 2-2.1 3.4-4.5 3.3-5.3-.3-1.7-5.4-4.9-6.3-4-.3.3-.6 3.9-.7 8-.1 4.3-.7 7.9-1.4 8.6-2 2-2.4 1.5-1.4-1.3.6-1.4 1-6 1-10.3 0-6.4-.4-8.3-2.1-10.5-1.1-1.4-1.7-2.6-1.2-2.6.4-.1-.2-.9-1.4-1.9-2.1-1.8-2.2-1.9-.3-2.4 1.3-.3 1.7-1.1 1.3-2.6-.3-1.2-1-2.1-1.5-2.1-.6 0-.5-.6.2-1.5.9-1.1.9-3.3 0-9.7-1.7-12.1-1.7-13.8-.5-13.8.6 0 3.9 2.8 7.3 6.3m-29.7 68.6c-4.8 3.7 1.4 5.6 8.5 2.6 2-.8 4.1-1.2 4.7-.8s.1 1-1.2 1.5c-2.2.8-2.2.9-.7 3.2 1.4 2.2 1.4 2.5 0 3-.8.3-1.3 1-1 1.5.8 1.3-1.5 6.3-3.7 7.9-.9.7-1.5 1.8-1.2 2.3s-.1.6-1 .2c-1-.3-2.1 0-2.6.8-.7.9-.7.5-.3-1.4.4-1.7.1-3.8-.6-5.2-1.5-2.9-.7-5.7 1.5-4.9.8.3 1.5.1 1.5-.5s-.6-1.1-1.2-1.2c-.7-.1-.2-.4 1.2-.9 2.1-.6 2.2-.8.8-1.5-1.1-.4-2.8.1-4.6 1.4-1.6 1.1-3.2 1.8-3.6 1.4-.3-.3-.6.3-.6 1.4 0 1-1.3 3.7-2.9 5.8-1.6 2.2-2.7 4.5-2.4 5.1.5 1.3-5.9 4.7-16 8.4-8.8 3.3-7.9 1.8 1-1.7 6.9-2.7 7.8-3.4 7.5-5.4-.1-1.3-.2-3.8-.2-5.6-.1-1.9-.7-3.6-1.7-4.1-1-.6-1.3-1.4-.8-2.2.6-1 1.1-.9 2.1.4.9 1.2 1.9 1.6 3.4 1.1 1.3-.4 2.1-.3 1.8.1-.2.5-1 2.1-1.7 3.6-1.7 3.3-.8 5.8 2 5.8 1.2 0 1.9-.3 1.6-.7-.4-.3.6-2.9 2.2-5.7 2.3-4.1 2.6-5.5 1.8-7.4-.7-1.5-1.6-2.1-2.9-1.6-2.7.8-2.2-.9.7-2.3 1.4-.6 2.3-.8 2-.3-.3.4.2 1 1 1.4.8.3 1.7.1 2-.4.4-.6.1-1-.4-1-.6 0-1.1-.9-1.1-2.1 0-1.3.5-1.9 1.3-1.6.7.3 2.1-.1 3.2-.9 2.8-2.1 3.4-1.6.6.5m-240.4 68.3c-.8 1.8-3.1 8.7-5 15.2l-3.6 12 2.2 3c2.9 4.2 5.6 7 6.1 6.5.2-.2.9-9.4 1.6-20.4.6-11 1.4-20.2 1.6-20.5.3-.2.3 7.9-.1 18-.3 10.2-.2 17.9.1 17.2.3-.6 1-1.2 1.6-1.2s.4.8-.5 1.8c-1.8 2-2.3 5.2-.8 5.2 1 0 .5 3.4-1.1 6.7-1.1 2.2-.5 5.4.9 5.2.4-.1 2.2-.1 3.8 0 2.2.1 2.6.4 1.6 1-.8.5-2 .7-2.8.4-1.8-.7-1.6 1.3.4 5.7l1.8 3.6 5.8-4.4c4.3-3.3 5.7-5 5.4-6.3-.4-1.6.1-1.9 2.6-1.9 2.9 0 3.2.3 3.2 2.9 0 2.7-.1 2.8-1.7 1.4s-2.2-1.1-7.8 3.7c-3.3 2.8-6 5.7-6 6.3 0 1.7 12.9 16.7 14.3 16.7.7 0 2.2 1.1 3.5 2.5 1.3 1.3 3.1 2.6 4 2.8s.1.2-1.8 0c-2.7-.4-4.6-1.7-8.5-6.1-2.7-3.2-7-7.6-9.4-9.9-4.3-4-4.5-4.1-7.3-2.7-1.5.8-2.8 1.8-2.8 2.3s-.9 1.1-2 1.4c-2.1.5-2.9-.8-.9-1.5.6-.2 1.5-2.2 1.9-4.3.6-3.2.8-3.4.9-1.3.1 3.1.9 3.4 3.6 1.4 1.9-1.3 1.8-1.5-.8-5.5-1.5-2.2-2.7-4.6-2.7-5.4 0-.7-.7-2.3-1.6-3.6-1.2-1.7-1.3-2.5-.5-3 1.7-1.1-.6-6.8-4.6-11.5-1.8-2.2-3.3-4.4-3.3-4.8 0-.5-.5-.6-1.2-.2-1.3.8-1.4 1.5 3.6-14.9 2-6.5 3.6-13 3.6-14.5 0-1.9.3-2.3.9-1.3.7 1.1 1.1.8 1.6-1 .5-1.3 1-1.9 1.2-1.2.3.7-.2 2.7-1 4.5m761.8 88.3c15.8 6.9 18.9 7.8 16.3 4.7-.8-.9-1.8-2.4-2.2-3.2s.1-.5 1 .7c.9 1.3 2.1 2.3 2.6 2.3s1.3-1 1.9-2.3c.8-2 .9-1.9.4.6-.4 1.9-.2 2.6.5 2.2.6-.4.9-.1.8.7-.2.9.9 1.2 4.2 1.1l4.5-.2-4.9 1.1-4.8 1.1 7.8 7.8 7.9 7.9 1.2-3.7c1.1-3.7 1.1-3.7.6 1.7-.3 3.3-1.3 6.3-2.4 7.6-1.1 1.1-1.7 2.3-1.3 2.6.3.3-.1.5-.9.4-1.2-.1-9.6 6.5-21.1 16.6-3 2.6-3.1 2.7-1.1 4.2 1.1.8 1.7 1.6 1.4 1.6-.8 0-6.9-3.1-6.9-3.5 0-1.7 1.4-3.3 2.5-2.8.8.2 3.1-.9 5.2-2.6 17.4-14 21.4-17.4 22.1-18.7.7-1.2-1-3.4-7-9.3-4.4-4.2-8.4-7.8-8.9-7.9-.5-.2-.9.7-1 2 0 1.2-.7 3.9-1.5 5.8-1.4 3.4-1.4 3.4-1 .5.2-1.7.7-4.6 1.1-6.6l.7-3.6-13.9-6.1c-7.6-3.3-15.4-6.7-17.3-7.5-1.9-.9-3-1.6-2.4-1.6.6-.1 7.8 2.8 15.9 6.4M1203 674.4c0 1.3 2.7 3.1 4.2 2.8.7-.2 3.8 7.2 3.8 9.3 0 3.7 1.8.9 4-6 1.8-5.7 2.8-7.5 4.2-7.5 1 0 1.8.1 1.8.2 0 1.3-6.7 17.7-7.1 17.4-.2-.2-.4 1.3-.4 3.4s.4 4.2.9 4.7c.5.4.6.3.2-.5-.4-.6-.3-1.2.2-1.2 1.1 0 2.3 4 1.6 5.1-.8 1.3-3.2-.1-3.7-2.2-.3-1-1.4-1.9-2.5-1.9-1.5 0-2.5-1.5-4.2-6.3-1.2-3.4-3.3-9-4.6-12.5-2.2-6-2.3-6.2-.4-6.2 1.1 0 2 .6 2 1.4m22.3 4.4c-.4 1.6.1 1.9 3.9 1.8 3-.1 5 .5 6.2 1.6 1 1 2.3 1.8 3 1.8.8 0 1.9.7 2.6 1.5 1.1 1.3 1.6 1.1 4-1.5 3.9-4.1 7.1-4.7 12.2-2 5.3 2.7 8.8 5.9 8.8 7.9 0 1.4-.1 1.4-1 .1-.8-1.3-1-1.2-1.1.5s-.2 1.7-.6.2c-.6-2.4-2.3-2.1-2.3.4 0 1.1-1.3 3.4-3 5.1-3.6 3.6-3.7 3.8-.6 3.8 1.5 0 3.3-1.1 4.5-2.6s2.1-2.3 2.1-1.8c0 1.8-4.5 5.4-6.7 5.4-1.5 0-2.2.4-1.7 1.1 1.1 1.8-3.6-1-8.6-5-3.8-3.1-5-3.6-7.5-3-1.6.4-2.6.7-2.1.8.4 0-.2 1-1.5 2-3.4 2.7-1.5 3.9 2.6 1.6 4.2-2.2 5.8-1.3 2.7 1.5-1.2 1.1-1.7 1.5-1.2.8 1.8-2.2 1-2.9-1.5-1.2-1.6 1-3.4 1.4-5.1 1-1.8-.5-2.4-.3-1.8.5.9 1.5-.7.6-5.4-2.9-2.2-1.7-3.1-3-2.7-4.1.3-.8.3-1.2-.1-.9-.3.4-1.3 0-2.2-.8-1.2-1.3-1.3-2.2-.4-5.1.6-1.9.9-4 .8-4.6-.2-.7-.1-.9.1-.4.8 1.2 2.3-.3 2.3-2.3 0-1-.6-2.1-1.2-2.3-.7-.3-.3-.6.9-.6 1.6-.1 2 .4 1.6 1.7"/><path d="M512.5 80.1c-2.4.9-53.3 10.9-55.8 10.9-3.5 0-1.4 1.8 10.6 8.9 6.7 4 18.3 11 25.7 15.6s13.7 7.9 13.8 7.4c.2-.5 1-.9 1.8-.9.9 0 1.4-1.2 1.4-3.6 0-1.9.4-4.3.9-5.2.8-1.4 2.5-10.5 5.8-29.8.6-3.5-.9-4.6-4.2-3.3M519.5 82c-.7 1.1-1.1 2.9-2.6 11-2.5 13.4-3 17-3.6 24.3l-.6 7.8 2.9-.7c4.2-.9 10.3-3 14.9-5 2.2-1 4.4-1.7 4.8-1.6s3.6-.9 7-2.2c3.4-1.4 11.7-4.3 18.5-6.5 16.9-5.5 16.6-5.3 9.6-8.6-3.3-1.5-8.1-3.5-10.9-4.5-2.7-.9-12.3-4.7-21.3-8.4-17.2-7-17.7-7.2-18.7-5.6M572.5 107.6c-3.3 1.4-6.8 2.7-7.8 2.9-4.7 1-14.3 4.9-15.3 6-.5.8-1.7 1.3-2.5 1.3-.7-.1-2.3 0-3.4.1-1.7.1-1.8.3-.5 1.1 1.3.9 1.3 1 0 1.1-.8.1-1.9.1-2.4 0s-2.2.1-3.9.5l-3 .6 3.2 1.5 3.1 1.6-2.7 1.4c-1.8.9-2.9 1.1-3.1.4-.6-1.8-2.2-.1-2.2 2.3 0 1.8.5 2.3 2.2 2.2 1.4-.1 2.7.8 3.4 2.1l1.1 2.3 1.1-2.5c.7-1.5 1.7-2.2 2.5-1.9s1.7-.2 2-1c.9-2.3 3.7-2 3.7.4 0 1.7.7 2 4 2 3.4 0 4 .3 4 2 0 1.8-.5 2-4 1.7-3.6-.4-4-.2-4 2 0 1.6-.6 2.3-1.9 2.3-1.4 0-1.9.6-1.8 2 .1 1.2.8 2 1.9 2s1.8-.7 1.8-2c0-1.7.7-2 4-2s4 .3 4 2c0 1.1.4 2 .9 2s1.2 1.2 1.5 2.6c.4 1.5 1.3 2.4 2.2 2.2.8-.2 1.4-.7 1.4-1.2-.1-.5.3-1.2.8-1.5.6-.4.6-2.6-.1-6-.9-4.2-.9-5.5.1-5.9.7-.2 1.2-2.1 1.2-4.3 0-2.1.4-3.9.9-3.9s1.1-.9 1.4-2c.3-1.3 1-1.8 2.1-1.4 1.7.6 4.6-1.7 4.6-3.7 0-.9.4-.8 1.5.1 1.2 1 1.5.9 1.6-.6.1-1.1.1-2.3 0-2.8-.1-.4.3-1.3.8-2 .9-1.1 2.7-8.6 2-8.6-.2 0-3.1 1.2-6.4 2.6M577.1 128.8c-2.3 11.9-4.5 22.4-4.8 23.2-1.9 4.7-.6 7.4 2.2 4.6.8-.8 2.8-1.7 4.5-2.1 1.6-.4 3-1.1 3-1.6 0-1 4.3-1.2 7.6-.3 2.5.6 4.2 6.3 2.3 7.4-1.4.9 1.3 2 5 2 1.5 0 3.1.4 3.7.9.5.5 2.3 1.2 4.1 1.4 1.7.3 3.6.8 4.1 1.1.6.3 6.2 1.5 12.6 2.5 6.4 1.1 12.1 2.3 12.6 2.6 1.3.8 1.3-.3 0-1.8-.6-.7-2-2.3-3.1-3.7s-4.2-5-6.9-8c-2.6-3-6.3-7.4-8.2-9.7-3.4-4.3-10.3-12.8-14-17.3-5.4-6.4-19.1-22.1-19.7-22.5-.4-.2-2.7 9.4-5 21.3M364.8 111.7c-.8 1-8.1 8.3-16.2 16.2-8 7.9-14.3 14.8-13.9 15.4.3.6.1.7-.5.3-1.2-.7-5.2 2.2-5.2 3.8 0 .9 5.1.3 11.3-1.4 2.1-.6 3.5-1.5 3.2-2.1-.4-.5-.2-.9.2-.9.5 0 .9-.9 1-2s-.2-1.8-.8-1.5c-1.4.9-1.1-.2.7-1.9.8-.9 1.1-1.6.5-1.6s-1.1-.9-1.1-2.1c0-1.4.5-1.9 1.8-1.7 1.2.3 1.6 1.2 1.4 3.1-.2 2.3.1 2.7 2.4 2.7 1.5 0 3.5.6 4.3 1.4 1.4 1.3 3.4 1 15.6-2.4 7.7-2.1 16-4.5 18.5-5.3 2.5-.9 6.5-2.1 8.9-2.7 4-1 4.2-1.3 2.5-2.4-2.1-1.4-31.8-16.6-32.5-16.6-.3 0-1.2.8-2.1 1.7M340.5 148.4c-1.7.6-4.9 2.1-7.3 3.4-2.4 1.2-4.8 2-5.3 1.7-.5-.4-.9-.1-.9.5s-.3.9-.7.7c-.5-.3-.9.8-1 2.4s.1 2.9.5 2.9c.5 0 1.4 2.8 2.1 6.2.8 3.5 1.6 5.8 1.8 5.1q.45-1.2 2.1-.3c.9.5 3.3 1.3 5.2 1.8 4.2 1 5.4 4.7 2.3 7-1.6 1.3-1.6 1.4-.1.9 1.3-.5 1.9.1 2.4 2.1.3 1.5.7 3.3.9 3.9.3.7-.7 2.5-2 3.9-3.4 3.6-3.2 5.4.5 5.4 2.4 0 3-.4 3-2.1 0-1.9.5-2.1 4.5-1.7 3.7.3 4.5 0 4.5-1.4q0-1.65 1.5-1.2c1.1.5 1.3.2.9-1.1-.4-.9-.3-2 .2-2.4 1.3-.9 4.4-6.7 4.4-8.1 0-1.5-2.5-4-4.2-4.1-.7-.1-.2-.5 1.2-.9 2.4-.8 2.4-.8.3-.9-1.3-.1-2.3-.6-2.3-1.1 0-.6-.7-1-1.5-1s-1.4-.3-1.4-.8c.4-2.5-.3-3.3-2.2-2.7-1.3.4-2.7.1-3.9-1-1.8-1.6-1.8-1.7.3-4.2 1.2-1.3 2.3-3.2 2.3-4.1.1-.9.4-2.8.8-4.2 1.2-4.8-2.7-6.8-8.9-4.6M319.3 158.5c-.9 1-1 1.4-.1 1.7 1.5.5-1.5 9.9-7.7 24.3-2.3 5.5-6 14.7-8 20.5-2.1 5.8-4.2 11.3-4.7 12.2-.6 1.3-.5 1.8.4 1.8 1.1 0 27.9-4.3 34.5-5.6 2-.4 2.1-.5.7-5.1-.8-2.5-1.4-6.2-1.4-8 0-5-1.6-7.6-4-6.3-1 .5-2.1 1-2.4 1-1.2 0-.6-2.2 1-3.8 1.3-1.2 1.5-2.7 1-7.1-.4-3.1-1.1-7-1.6-8.6-.5-1.7-1.9-6.2-3-10.2-2.2-7.8-2.9-8.8-4.7-6.8M571 164.7c0 2.2.2 2.5 1 1.3.6-1 .8-.4.4 2.1-.7 4 1.9 26.6 4.2 36.9 2.7 12.3 2 11.2 5.7 9.7 1.7-.8 3.2-1.9 3.2-2.7 0-.7.8-1.4 1.7-1.6 1.8-.2 6.6-3.3 5.9-3.7-.3-.1 0-1.1.7-2.2.6-1.1 1.2-1.5 1.2-.8s.7 1 1.5.7c.8-.4 1.3-.9 1.1-1.3-.2-.3.6-2.4 1.9-4.6 1.8-3.3 2.7-4 5.1-3.8 1.6 0 2.4-.1 1.7-.4-.8-.3-1-1.5-.6-3.4.4-2.1.2-2.9-.8-2.9-1.1 0-1.2-.2-.1-.9.7-.4 3.5-.6 6.2-.3 3.8.3 5.6 0 8.3-1.7 1.9-1.1 4-2.1 4.7-2.1 2 0 10.9-7.3 11-9 0-.3-5.1-1.6-11.2-2.9-12.5-2.6-19.6-4.1-30.7-6.7-9.6-2.2-11.6-2.3-11.6-.4 0 .9-1.1 1.6-3 1.8-2.3.2-2.7 0-1.5-.7 1.2-.9 1.1-1.1-.7-1.1-1.2 0-2.5-.5-2.8-1-1.2-1.9-2.5-1-2.5 1.7M633.9 179.8c-2 2.3-4.1 4.2-4.7 4.2-.7 0-1.3.4-1.3 1-.1.5-.2 1.4-.3 2 0 .5-.5 1-1.1 1.1-.5 0-1.4.7-1.8 1.5-.5.8-1.4 1.1-2 .8-.9-.5-.9-.4 0 .6 1.8 2-3.1 5.7-5.3 3.9-1.2-1-1.9-.9-3.7.9-6.1 6.1-9.1 8.7-9.3 8.2-.1-.3-2.1 1-4.4 2.9-3.2 2.5-3.9 3.6-2.9 4.2 1.2.7 1.1 1.1-.1 1.9-.8.6-2.4 1-3.5.9-3.9-.2-5 .2-8.3 3.2-3.2 2.9-3.3 3.1-1.5 4.5 2.9 2.2 10.4 5.4 11.4 4.8.5-.3.9-.1.9.5 0 .5 7.3 4.5 16.3 8.9 18.6 9.1 22.5 10.7 23.4 9.8.3-.3 1.2-.1 2 .5 1.1.9 1.3-.4 1.4-7.7.2-20.4-.3-55.2-1-58.8l-.6-4zM553 194.1c0 .6-.6.9-1.2.6-.7-.2-3.9-.1-7 .3-4.2.6-6.7 1.7-9.7 4.1-2.3 1.8-5.1 3.3-6.3 3.4-1.7.1-2.2.7-2 2.1.5 2.5 3 4.1 7.4 4.8 4 .7 5.8 2.4 3.8 3.6-.7.4.7 1 3.4 1.4 6.5 1 19.8.9 20.5-.2 1.1-1.6 5.1-3.3 6.2-2.6.8.4.7 0 0-1.5-.7-1.1-1.5-2.1-1.9-2.1s-1.6-1.4-2.6-3c-.9-1.7-2.1-2.8-2.7-2.5-.5.4-.6-.2-.2-1.1.3-1 .2-1.5-.3-1.2s-2-1.2-3.4-3.3c-2.4-3.8-4-5-4-2.8M433.5 196.1c-1.6.5-11.1 2.5-21 4.4s-22.3 4.4-27.5 5.5c-5.2 1.2-14 3.1-19.5 4.1s-13.3 2.6-17.4 3.5l-7.5 1.7 4 3.6c2.2 2 7.5 6.3 11.8 9.6s16 12.5 26.1 20.5 25.4 19.9 34.1 26.5c8.6 6.6 17.2 13.3 19 14.8 3.9 3.3 4.2 3 4.7-5.3.3-4.6.4-4.2.5 2.2l.2 7.7 8.3-.2c4.5-.1 13 .4 18.9 1.1 11.4 1.4 17.5.6 20.6-2.5.9-.8 2.6-1.3 3.9-1 1.4.2 2.7-.1 2.9-.7.6-1.6-8.3-17.2-19.4-34.2-4.8-7.4-11.4-18.1-14.7-23.9s-7.9-13.6-10.2-17.3c-2.4-3.7-4.3-7.1-4.3-7.5 0-1.4-6-9.7-7-9.7-.5 0-1.1 2.4-1.3 5.2-.3 5-.3 4.9-.5-1.4-.1-3.7-.5-6.9-.9-7.1-.5-.2-2.1 0-3.8.4M441 196.9c0 .4 1.4 2.3 3.1 4.2s3.7 4.9 4.4 6.7c.8 1.8 2.9 5.6 4.8 8.5 1.8 2.8 6.2 10.1 9.7 16.2 3.5 6 9.3 15.5 12.9 21 3.5 5.5 9.5 15.2 13.2 21.5 3.8 6.3 7.2 12 7.7 12.5.5.6 1.7 2.3 2.6 3.8 1 1.5 2.2 2.7 2.6 2.7s1-3.7 1.3-8.3c.3-4.5 1.3-16.1 2.1-25.7 1.7-18.7 3.4-46.2 2.9-46.9-.1-.2-13.7-3.6-30-7.6-16.4-4-31.5-7.7-33.5-8.3-2.1-.6-3.8-.7-3.8-.3M510.6 221.1c-.3 4.1-1.1 12.3-1.6 18.4-.5 6-1.7 18.2-2.5 27-2.3 24.9-2.6 29.5-1.6 29.5.8 0 22.9-22.8 40.7-42 17.1-18.4 25.8-27.7 27.5-29.2 1.1-.9 1.9-1.8 1.9-2.1 0-.5-8.7-2.4-14.5-3.2-2.2-.2-5.6-.7-7.5-1s-10-1.2-18-2c-8-.9-16.6-1.8-19.1-2.1l-4.6-.6zM339.8 273.7c.1 30.7.6 56.1 1 56.5.8.8 12.6-3.7 16.4-6.3 1.4-1.1 4.2-1.9 6.1-1.9 2 0 7.3-1.4 11.9-3.1 7.4-2.8 16.3-5.9 33.6-12 2.9-1 6-2.5 6.8-3.4.8-.8 2.3-1.5 3.2-1.5 3.5 0 18.7-5.8 18.7-7.1s-9.7-9.2-29.5-24.1c-5.2-3.9-14.7-11.2-21-16.3-6.3-5-15-11.8-19.2-15.1-11.6-8.8-20.1-15.6-23.7-18.7-1.8-1.5-3.6-2.7-3.9-2.7-.4 0-.6 25.1-.4 55.7M442.1 300.7c.5 2.1 1.6 7.8 2.4 12.8 2.4 13.6 3.7 19.5 4.6 19.5.4 0 5.1-2.7 10.4-6s10-6 10.6-6c.5 0 .9-.5.9-1 0-.6.4-1 .9-1 2.3 0 15.9-9.4 23.9-16.6l2.3-2.1-3.8-.1c-2.1-.1-10.8-.8-19.3-1.7-8.5-.8-19.6-1.5-24.6-1.5h-9.2zM428 300.9c-4.1 1.5-8.2 3.1-9 3.4-3.6 1.5-16.4 6.2-26.9 9.8-6.2 2.2-14 5.2-17.3 6.6l-5.9 2.7.7 5.3c.7 6-.4 8.3-4.2 8.3-1.3 0-3.3-.9-4.3-1.9-1.1-1.1-2.2-1.7-2.5-1.4-.3.4-.6-.1-.6-1.1s-.5-1.4-1.1-1c-.8.4-.8 0 0-1.5 1-1.7.9-2.1-.5-2.1-2.9 0-16.4 5.2-16.4 6.4 0 .6-1 7.2-2.1 14.6s-2.4 15.9-2.8 18.7c-.9 6.1-.4 6.4 5.4 2.8 3.8-2.3 17.9-9.8 35.6-19.1 4.3-2.3 7.7-4.3 7.4-4.5-.2-.3.5-.5 1.6-.6 2.2-.2 10.6-7.5 17.7-15.4 2.4-2.7 4.7-4.7 5.1-4.4.4.2 7.2-5.8 15.2-13.4 7.9-7.7 14.6-13.7 14.8-13.5.5.5-9.7 10.6-24.2 23.9l-9.7 9 .6 4.4c.5 3.1.3 4.2-.5 3.7-.6-.4-1.1-1.6-1.1-2.6 0-3.7-2.1-3-7.7 2.4-3.2 3.1-5.1 5.6-4.3 5.6s4.7-.9 8.5-1.9c3.9-1.1 9.3-2.4 12-3 2.8-.5 8.8-1.9 13.5-3s11.3-2.3 14.8-2.7c5.1-.5 6.2-1 6.2-2.5 0-3.8-3.2-23.6-4.7-29.2-1.9-6.8-2.3-6.9-13.3-2.8M495.1 306c-3 2.1-6.3 4.8-7.5 6l-2.1 2.2 3-.6c1.7-.3 6.2-.7 10.2-.8 5.8-.2 7.6.2 9.3 1.7 1.1 1 2 1.5 2 1.2 0-.6 5.9 2.9 8.5 5.1 5.7 4.6 1.6-2.1-8-13-2.3-2.6-7.6-5.9-9.2-5.7-.4 0-3.2 1.8-6.2 3.9M319.2 342.3l-17.3 8.2 4.8 4.4c9.9 9.1 24.8 20.3 22.9 17.2-.4-.6-.3-1.1.2-1.1s1.5-2.1 2.2-4.8c1.8-6.8 5.8-32.2 5.1-32.1-.3 0-8.4 3.7-17.9 8.2M279.6 349.7c.2 1.5.8 5 1.4 7.6 1 4 .9 5.3-.4 8.2-.9 1.9-2.1 3.7-2.6 4s-1.4 2.4-2 4.6-1.4 4.7-1.7 5.5c-1 2.6 1.2 1.4 3.4-1.9 1.2-1.7 4-5.2 6.2-7.7s4.1-4.8 4.1-5.1c0-.8 2.9-3.9 5.9-6.4 1.4-1.1.5.5-2 3.7-2.4 3.1-6 7.8-7.9 10.4s-5.2 6.6-7.2 8.9l-3.7 4.1 2.2 3.6c4.2 6.7 9.6 12.3 10.8 11.1s8.9-29.6 11.3-41.5c1.6-8.1 1.4-8.5-7-9.8-3.3-.5-7.1-1.2-8.5-1.5-2.3-.5-2.6-.3-2.3 2.2"/><path d="M384.5 349.3c-1.1.8-8.3 4.7-16 8.7s-14.6 7.7-15.3 8.3-4.5 2.9-8.4 5.1c-3.9 2.3-7.2 4.5-7.2 5.1-.1.8 27.1 7.3 49.9 11.8 8 1.6 35.2 7.6 43.2 9.5 2.3.5 4.5.7 4.8.4s-4.3-5.5-10.3-11.6c-5.9-6.1-16.7-17.3-23.9-24.9-7.2-7.5-13.5-13.7-14-13.7s-1.7.6-2.8 1.3M298.8 360.8c-1.9 9.1-6.3 26.3-8.8 34.7-2 6.4-1.9 7.5.8 5.8.9-.6 7.3-4.7 14.2-9.2 6.9-4.4 15.1-9.5 18.3-11.2 3.1-1.8 5.7-3.5 5.7-3.9 0-.5-4.8-4.7-10.7-9.5-6-4.7-11.7-9.4-12.8-10.3-5.3-4.6-5-4.7-6.7 3.6M234.6 381.2c-1.9 3.5-5.6 10.6-8.1 15.8s-5.8 11.7-7.3 14.5c-10.3 18.8-15.3 28.7-14.1 28 2.8-1.6 15.4-10 16.5-11.1.7-.6 5.6-3.7 11.1-6.9 5.4-3.3 10-6 10.2-6.2.7-.5.5-30.7-.2-33.5-.4-1.5-1.6-2.9-2.7-3.3s-1.7-1.2-1.3-2.1c1.3-3.5-.9-.9-4.1 4.8M235.5 422.3c-9.2 5.5-30.4 19.8-31.1 20.9-.3.4.3.8 1.3.8s9.1.7 18.1 1.6c8.9.9 16.5 1.4 16.8 1.1.8-.8 2.6-20 2.2-24.6l-.3-4zM922.5 112c-4.9 1.7-9.6 3-10.4 3-1.9 0-15.1 4-15.1 4.6 0 2.2 31.5 36.3 32.6 35.2.4-.4.8-4.5.9-9 .1-4.6.8-9.6 1.4-11.1.6-1.6 1.4-8 1.8-14.3.5-9.4.4-11.4-.8-11.4-.8.1-5.4 1.4-10.4 3M935.6 112.2c-.3 1.3-.8 6.8-1.1 12.3-.7 10-.9 12.9-2 25.9-.5 6.2-.4 6.8 1.2 6.1 4.2-1.8 12.4-4.4 20.3-6.5 4.7-1.2 10.9-3 13.9-3.9l5.4-1.7-9.4-9.1c-5.2-4.9-12.1-11.4-15.4-14.4s-7.2-6.6-8.8-8.2c-3.4-3.3-3.5-3.3-4.1-.5M978 146.6c0 .3 2.3 4.9 5.1 10.3 4.7 8.8 7.2 13.2 12.2 21.6 1 1.6 2.3 4.2 3 5.7 1.9 4.6 3.3 3.2 5-4.7 1.9-8.5 2.2-12.9.7-12-1.3.8-6-.5-6-1.8 0-.6.3-.7.7-.4.3.4 1.5 0 2.5-.9 1.4-1.4 2.1-1.4 3.2-.4 1.3 1 1.6.7 2.2-1.4.3-1.4 1-2.6 1.5-2.6 1.2 0 1.3-.2-2.5 15-3.5 14.2-3.4 16 .7 20.2.7.7 4.7 5.6 8.7 10.8 4.1 5.2 8.1 10.2 8.8 11s4.9 6.2 9.3 12c9.9 12.9 10.2 13.2 8.9 9.5-.5-1.7-3-9.3-5.4-17-6.3-20-12.5-37.3-12.5-35.3-.1 2.3-2.1 3.4-3.2 1.7-1.3-2-1.1-2.9.6-2.9.9 0 1.5-.9 1.5-2.3 0-3.1-10.1-31.8-11-31.2-.4.3-1.1 2.1-1.5 4.1-.3 2-.8 3.4-1.1 3.1-.3-.2-.1-2.3.4-4.5s.6-4.5.3-5.1c-1-1.6-32.1-4-32.1-2.5M969 148.6c-1.9.7-4.4 1.3-5.5 1.4-1.7 0-1.8.2-.5 1.1 1.2.8 1 1-1 .5-1.4-.2-3.6.2-5 .9-1.9 1.1-2.1 1.4-.7 1.5 3 0 1.8 2-1.3 2-2.5 0-3 .4-2.9 2.2 0 2.2.1 2.2.9.3.5-1.1.9-1.4.9-.6.1.9.9 1.2 2.8.8 2-.4 3.2.2 5 2.4 1.4 1.6 2.8 2.7 3.2 2.4.5-.2 1.7.6 2.9 1.8 4.2 4.5 5.3 5.1 6.3 3.6.7-1.1.9-.9.9.7 0 2.3 3.9 7.8 4 5.6 0-1 .6-.9 2.8.2 1.6.8 3.8 1.3 4.8 1 1.4-.3 2.3.3 3.1 2.2.7 1.5 1.1 3 .8 3.2-.3.3-.5 0-.5-.6s-.9-1-2-.9-2 .3-2 .4c0 .6 10.4 5.3 10.8 4.9.2-.3-1-2.6-2.8-5.3-4-5.9-6.1-9.5-11.5-19.9-7.1-13.7-7.4-14-13.5-11.8M1003.7 197.2c.5.7 1 2.2 1.1 3.3.1 2 3.3 17.7 7 34.3 1.1 4.5 2.2 8.5 2.6 8.9.9 1 9.9.3 11.3-.8.7-.7 1.2-.6 1.5.2s.9.7 2-.5c2.1-2 5.2-2.2 4.5-.1-.4 1 .5 1.7 3.1 2.5 4.2 1.1 6.2 1.3 6.2.4 0-.7-21.7-29.5-27.9-37-1.4-1.7-4.2-5.2-6.1-7.7-1.9-2.6-4.1-4.6-4.9-4.7-.9 0-1 .4-.4 1.2M1001.6 207.2c-.7 2.1-2.6 20.4-2.6 24.2 0 3.2.4 3.7 5.7 6.5 3.1 1.7 5.9 2.9 6.1 2.6.6-.5-.6-6.4-4.6-23.3-2.5-10.4-3.7-13.1-4.6-10M904 222.6c.6 1.6 2.6 5.8 4.5 9.4s6 11.4 9.1 17.5c3.1 6 8.4 15.9 11.7 21.8 3.4 5.9 8 14.5 10.3 19l4.1 8.2 1-6.8c1.1-8.1.6-13-1.3-12.3-1.8.7-2.7-.9-1.9-3.5.5-1.4 1.3-1.9 2.4-1.6 1.6.4 1.9-.9 2.5-13.1 1-22 .8-35.2-.6-35.7-.7-.2-8.5-1.3-17.3-2.4s-18.1-2.3-20.7-2.7l-4.8-.7zM900.6 232.2c-1.6 17.8-4.2 90.9-3.3 93.1.5 1.4 2.6.6 12.4-4.5 24.8-12.8 32.4-17 33-18.4.4-1.1-3.3-9-8.5-17.9-.7-1.1-2.1-4-3.2-6.5-1.2-2.5-3.4-6.8-5.1-9.5-1.6-2.8-4.3-7.7-5.8-11-1.6-3.3-4.8-9.4-7.1-13.5s-5.6-10.1-7.2-13.3c-1.7-3.1-3.4-5.7-3.8-5.7s-1.1 3.3-1.4 7.2M958 230.4c0 2.6 1.2 4.6 2.7 4.6 1 0 1.3.6.9 1.6-.3.8-.2 1.2.4.9 1.1-.7 3.1 3.5 2.3 4.7-.8 1.4-2.5.8-2-.7.4-.8.2-1.7-.3-2-.6-.4-1-.1-1 .5s-.4.8-1 .5c-.5-.3 0 .9 1.3 2.8 1.2 1.9 2.5 3.3 2.9 3 .4-.2 2.3.3 4.3 1.1 2.6 1.1 3.5 1.2 3.6.3 0-.7.4-.3.9.8s.9 1.4.9.7c.1-.6 1-1.2 2.1-1.2 1 0 3-1 4.3-2.3 1.3-1.2 3.2-2.7 4.2-3.3 3.1-1.8 2.7-3-1.2-4-2.1-.5-3.6-1.3-3.5-1.8.2-.5-.2-1.3-1-1.7-.9-.7-.7-.8.7-.6 1.1.1 2.6.6 3.3 1 .7.5 1.2.3 1.2-.6 0-1.7-12.2-4.3-14.2-3.1-1.7 1.1-6.9 1-7.5 0-.4-.5-.1-.6.5-.2.7.4 1.2.3 1.2-.2 0-1.1-2.4-2.2-4.6-2.2-.8 0-1.4.6-1.4 1.4M949.7 231.7c.3 1 .9 2.2 1.3 2.8.4.5.3 2.1-.1 3.5l-.7 2.5-.3-2.5c-.1-1.4-.5 1.3-.9 6-.9 9.7-.1 21.2 1.1 17 .4-1.6.7-1.9.8-.8.1 1 .6 1.8 1.1 1.8 2.1 0 .9 2-1.2 2.1-1.8.1-1.7.3.7.8 3.3.8 5.4.3 3.5-.9-.9-.6-.9-.9.1-1.3 1.1-.4 1.1-.8.2-1.4s-.9-1.9 0-5.3c.6-2.5 1.4-4.7 1.7-5 3.3-3.2 3.3-3.8-1.7-12.5-4.4-7.7-7.2-11.1-5.6-6.8M1000 239.5c0 1.8 4.7 14.4 5.9 15.9.5.6 1.1 3 1.3 5.4.3 2.3.7 4.5 1.1 4.8.7.7 1.1-1.1 2.7-12 1.2-7.7 1.1-7.9-1.2-10.2-1.2-1.3-4-3-6-3.9-3.3-1.3-3.8-1.3-3.8 0M985.5 247c-1.6.4-2.4.8-1.6.9 1 .1 1.1.4.2 1.4-.6.8-.8 1.7-.4 2.1s0 .4-1 0c-1.8-.7-2.4 1.1-.7 2.1.6.4.8 1.1.5 1.6-.4.5.1.9.9.9.9 0 1.6.5 1.6 1.1s.8.8 1.9.4c2.1-.6 4.6 1.8 3.8 3.8-.4 1 2 2.4 7.5 4.6 4.3 1.8 8.2 3 8.5 2.7.4-.3.1-.6-.5-.6-.7 0-1.2-1.1-1.2-2.4 0-3.4-1.8-4.2-2.9-1.4-.8 1.8-1 1.9-1 .5-.1-1-1-2.7-2.1-3.9-2.5-2.7-2.6-4.8-.2-4.8 1.6-.1 1.6-.1 0-1.4-1-.7-1.8-1.8-1.8-2.5 0-.6-.7-1.1-1.5-1.1s-1.5-.7-1.5-1.5c0-1.9-.7-1.9-2.5-.1-1 1-1.1 1.6-.2 2.5 1.2 1.2.3 1.4-3 .5-2.7-.7-2.9-2.1-.6-4.6.9-1 1.4-1.7 1.2-1.7-.2.1-1.7.5-3.4.9M1016.5 248.7c.3 1.5 2 4.2 3.6 6 1.6 1.9 2.9 3.8 2.9 4.3s2.3 4.3 5 8.3c2.8 4.1 5 7.7 5 8.1 0 .5 1 2.2 2.3 3.9 1.2 1.8 3.9 6.6 5.9 10.7l3.7 7.5.1-20.1c0-25.3-.5-29.2-3.6-30-1.3-.4-3.6-.3-5 0-2.5.7-2.6.8-.8 2.1s1.8 1.4-.6 4c-3.7 3.9-5.5 4.7-8.3 3.4-1.5-.7-2.9-2.5-3.6-5-1.7-5.6-8-8.7-6.6-3.2M1011.9 260c-1.5 11.3-1.4 13 .2 13 .6 0 3.9 2 7.6 4.5 6.5 4.5 9.5 5.8 7.6 3.2-1.1-1.4-9.5-21.5-11.2-26.9-.7-2.1-1.6-4-2-4.2-.4-.3-1.4 4.4-2.2 10.4M1020.5 260.5c.4 1.6 2.9 8.2 5.7 14.5 4.3 9.7 5.9 12.2 10.1 15.8 2.7 2.4 5.1 4.2 5.3 4 .6-.7-4.7-10.5-12.1-22.6-.6-.9-3-4.6-5.4-8.2-3.3-5.1-4.1-5.8-3.6-3.5M971 260.5c0 .8-.4 1.6-1 1.6-.5.1-1.4.2-1.8.3-2.1.3-4.6 4.4-10.2 16.3-3.3 7-6.5 13.6-7 14.6-.8 1.3-.7 2.2.5 3.3.8.9 1.5 1.1 1.5.5s.5-1.1 1.1-1.1c1.7 0 11.9-5.2 11.5-5.9-.2-.3.8-.6 2.2-.7 4-.2 18.4-7.3 18.9-9.4.3-1.2 1.8-1.9 5.2-2.3 4.7-.6 14.1-4.4 14.1-5.8 0-.7-9.2-4.9-10.8-4.9-.5 0-4.9-1.6-9.8-3.6-5.7-2.3-9.6-3.3-11.2-2.9-1.5.4-2.1.2-1.7-.5.3-.5.1-1-.4-1-.6 0-1.1.7-1.1 1.5M1011.5 277.2c.4 1.8 1.8 6.6 3.1 10.7 1.3 4 2.4 8 2.4 8.7 0 3.1 3.7 0 8.9-7.5l2.4-3.5-2.1-1.5c-1.2-.9-4.7-3.5-7.8-5.9-3.1-2.3-6.1-4.2-6.6-4.2-.6 0-.7 1.4-.3 3.2M1004.5 285.3c-2.2 5.6-3.9 10.5-3.7 10.9.1.5-.2.8-.7.8-1.8 0-1.8 2.6 0 2.7 1.1.1 1.9-.5 1.9-1.3 0-1.2.4-1.2 2-.2 1.3.9 1.6 1.5.7 2-2.2 1.4-.2 1.6 5.5.5 5.5-1 5.7-1.1 5.2-3.6-.8-3.2-6.5-22.1-6.7-22.1-.1 0-2 4.6-4.2 10.3"/><path d="M1026.6 290.7c-.8 1.6-2.6 3.9-4 5.2-1.4 1.4-2.6 3.3-2.6 4.3 0 1.4-.8 1.8-3.4 1.8-3.6 0-14.1 2.3-18.9 4.2-2.6 1-2.8 1.4-2.3 5.2.5 4.1.5 4.1-.6.8-.6-1.7-1.4-3.2-1.8-3.2-.8 0-6 6.5-6 7.5 0 .4-1.3 2.6-3 5-3.6 5.2-3.8 6.1-.8 4.1 1.2-.9 3-1.6 4-1.6s1.8-.4 1.8-.8 1.6-.7 3.5-.7c3.4.2 3.5 0 3.5-3.4v-3.6l1.6 3.2c1.2 2.5 2.2 3.1 4.2 3 2.1-.2 3.7-1.7 7.2-6.9 2.4-3.7 4.6-6.5 4.8-6.3s-.7 2.2-1.9 4.6c-2.7 5.5-4.3 10.7-2.7 9.1.8-.8 1.4-.7 2.5.4.8.8 2.3 1.4 3.4 1.4s2.8.4 3.8 1c1.7.8 1.8.5 1.4-3.2-.4-2.8-.2-3.8.6-3.4.6.4 1.1 1.5 1.1 2.4s.8 3 1.9 4.5c2.2 3.4 2.7 2.9 6.9-6.5l3-6.7-3.4-3c-1.9-1.7-4.8-3.8-6.4-4.6-1.7-.9-3-1.8-3-2 0-.8 5.4 1.8 8.6 4.2 3.9 2.9 4.7 2.9 4 0l-.6-2.2 1.1 2.2c.7 1.3 1.5 2.3 1.8 2.3 1.1-.1 9.1-7.8 9.1-8.9 0-1.2-8.6-7.1-10.6-7.1-1.4 0-1.7 1.3-1.5 6 .3 4.5-1.6 0-2.4-5.8s-1.8-6.5-3.9-2.5M948.5 305.2c2 5.2 17.1 31.4 18.6 32.4.5.3.9-.4.9-1.5 0-1.2 1.1-2.5 2.7-3.3 3.3-1.6 14.3-14.5 17.8-20.9l2.5-4.7-5.7-.6c-3.2-.3-11.2-.8-17.8-1.1s-13.7-.8-15.8-1.1c-2.9-.4-3.6-.3-3.2.8M944.5 306c-.4.6-.9 3.6-1.1 6.7-.7 8-2.6 10.6-2.1 2.8.2-3.3.8-6.8 1.2-7.9.5-1.1.4-1.7-.2-1.5-3.7 1.5-43.3 22.4-43.3 22.9 0 .7 24.9 12.4 30.9 14.5 2.4.8 4.6 1.3 4.9 1s1.6-4.2 2.9-8.7c2.4-8.6 2.2-3.9-.2 5.4-.7 2.7-.9 4.8-.6 4.8s5.6-.7 11.7-1.5c10.6-1.4 16.4-2.8 16.4-4 0-1.6-9.2-19.8-12.2-24-1.9-2.8-4.1-6.5-4.8-8.3-1.3-3.3-2.4-4-3.5-2.2M1048.4 328.2c-2.7 2.4-5.2 4.7-5.6 5.3-1.6 2.1-.5 16.5 1.2 16.5.3 0 1.1-1 1.7-2.3.6-1.2 3-6 5.2-10.7 3.9-8 5.1-13 3.2-13-.4 0-3 1.9-5.7 4.2M897.7 336.9c.3 3.1.6 6.2.6 7s.9 1.6 1.9 1.9c1 .2 1.8 1.3 1.8 2.3 0 2.2-1.6 3.4-2.3 1.7-.8-2-.6 6.3.2 11.2.5 2.5.9 3.8 1 2.9.1-1.1 1.1-1.6 3.1-1.6 2.2 0 2.9.4 2.6 1.4-.3.7-.1 1.3.4 1.3.6 0 1-.6 1-1.3 0-2.1 3.7-5.1 4.2-3.5.3.8 3.3-.8 8.7-4.7 8.9-6.4 10-7.5 7.7-7.5-.8 0-1.3-.6-1.1-1.3.3-.7-3.5-3-10.3-6.1-5.9-2.7-12.8-5.9-15.4-7.1l-4.7-2.2zM945.3 346.2c-5.7.8-7.3 1.3-7.3 2.6 0 2.4 25.8 27.4 27.3 26.6.7-.4.9-.4.5.1-.8.8.9 3.5 2.1 3.5 1.1 0-.7-13.3-1.9-14-.5-.3-1.1-1.9-1.2-3.6-.1-1.6-.5-3.4-1-4-1.2-1.6-1.7-10.4-.7-10.4.5 0 .9-.5.9-1 0-1.2-8.7-1.1-18.7.2M920.3 358.9c-10.7 7.5-16.3 11.9-16.3 12.9.1.9 10.1 7.2 16.7 10.6 2.9 1.4 7.4 3.9 10 5.6 2.7 1.7 6 3 7.9 3 3.2 0 3.3-.1 2.9-3.8-.7-7.7-5.2-29-5.4-25.5-.1 1.9-3.8 1.6-4.5-.3-.6-1.6 1.7-4.8 2.8-3.7.3.4.6-.1.6-1 0-1-.4-1.7-.9-1.7s-1.6-.7-2.4-1.5c-1.3-1.3-2.7-.6-11.4 5.4M901 374.8c0 .4 1.3 5.3 2.9 11 1.7 5.7 3.3 12.3 3.6 14.6 1.1 7.3.9 7.3 14.7 3.7 18.9-4.9 19.1-5 17.6-6.8-1.7-2.1-13.8-10.1-21.8-14.5-3.6-1.9-8.7-4.7-11.3-6.2-5.2-2.8-5.7-3-5.7-1.8M1024 380.8c0 1.4-.2 1.5-.9.3-.7-1-1.1 0-1.6 3.5-.4 2.7-1.1 6.2-1.5 7.9-.5 1.6-1.2 5-1.5 7.5-.4 2.4-.9 4.8-1.1 5.2-.3.4.8 1 2.3 1.4 1.5.3 5.3 1.2 8.4 2s5.9 1.4 6.3 1.4c.9 0-.2-5.4-3.7-18.2-2.3-8.8-3.6-11.8-4.9-12.1-1.2-.4-1.8 0-1.8 1.1M975 385c0 1.4 20.2 20 21.1 19.4.5-.3.9 0 .9.5 0 .6.4 1.1.9 1.1s1.1-3.6 1.3-7.9l.3-7.9-5.7.1c-3.7.1-6.2-.3-7-1.2-1.1-1.2-1-1.3.2-.6s1.3.5.2-.6c-1.3-1.4-12.2-4-12.2-2.9M963.4 388.6c-6.4 4.3-6.3 4.1-5.2 8.4.9 3.5 1.5 4 4.7 4.6 2 .4 4.3 1 5.1 1.4s3 1 4.9 1.4c2.9.5 3.2.4 2.6-1.2-.4-.9-.8-2.4-1-3.3-1.6-7.7-4.5-13.9-6.5-13.9-.4 0-2.5 1.2-4.6 2.6M972.9 388c.6 1.4 2 5.8 3.2 9.8 2.4 8.2 2.8 8.5 12.1 9.6 7.2.9 7.1.3-2-8.4-13.2-12.8-14.5-13.8-13.3-11M1033.5 434.2c-1.6 4.7-5.5 22-7.1 31l-1.8 10.7 2.3 7.8c1.3 4.3 2.7 8.9 3.1 10.3s1.6 5.3 2.5 8.8c1 3.4 2 6 2.2 5.8.9-.9 1.3-10.3 1.6-34 .1-13.9.5-22.8.9-20.2 1.1 7.7.9 7.6 7.5 5.4 11.4-3.7 11.3-3.6 2.7-8.6-4.1-2.4-7.7-4.2-7.9-4-.3.2.2 2.6 1 5.3 2 6.6 1.1 6.9-1 .3-1-2.9-2.4-5.9-3.3-6.5-1.1-1-1.5-2.8-1.3-7.3.2-5.6-.4-7.7-1.4-4.8"/><path d="M1060.5 444.1c-7.7.5-15.3 1-17 1.1l-3 .3 4.5 2.5c5.3 2.9 15.8 7 18.1 7 .8 0 5.8-2.7 10.9-6l9.4-6-4.5.1c-2.4.1-10.7.6-18.4 1M1038.8 469.6c-.4.5-.5 7.2-.4 14.9.2 12.3.5 14 1.9 14 2.4 0 2.2 1.9-.3 2.3-1.7.3-2 1.1-2 4.9 0 2.7.4 4.3 1.1 4.1.5-.2 3.9-2.6 7.4-5.3 5.9-4.6 6.2-5 4-5.6-4.1-1.2-4.6-1.8-2.9-4.4 1.4-2.2 1.3-2.9-1.4-9.7-5.4-13.3-6.8-16.2-7.4-15.2M1012.5 507.4c-3.6 5.2-6.5 9.8-6.5 10.4 0 .5 1.5.9 3.3.7 6.7-.6 22.2-3.6 23-4.4.5-.5-.6-2.6-2.5-4.7-1.9-2.2-4.7-5.6-6.2-7.7-1.6-2-3.2-3.7-3.7-3.7-.4 0-3.7 4.2-7.4 9.4"/></svg>