<svg xmlns="http://www.w3.org/2000/svg" width="1706.667" height="960" viewBox="0 0 1280 720"><path d="M0 360v360h524.3l-.7-7.7c-.3-4.2-.8-7.9-1.1-8.2s-1.5 0-2.5.7c-3 1.9-4.8 1.4-2-.5 2.5-1.7 3.5-2.9 4.2-4.8.1-.5-1.9-1.5-4.7-2.2l-5-1.3 4.8.4c2.6.2 4.9.1 5.1-.3.2-.3-1.6-10.3-4.1-22.1-2.4-11.8-4.7-23.2-5-25.3s-1.3-4.2-2.3-4.7c-1.9-1-1.6-5.7.5-7.5.7-.6 1.8-3.2 2.5-5.8s1.5-4.6 1.7-4.3c.3.2-.3 3.2-1.3 6.5-.9 3.4-1.5 6.3-1.3 6.4.7.5 17 5.5 23.4 7.3 10.9 2.9 14.8 3.5 15.6 2.3.7-1.3 3.2-27.1 3.1-33.3-.1-2.2.3-4.5.7-5.1 1.5-1.8 0-7.7-2-8.2-1-.3-1.6-.9-1.3-1.4s-.9-3-2.5-5.5c-3.5-5.1-6.1-9.9-6.1-11.1 0-.4 1.2 1.2 2.7 3.7 3.2 5.4 9.2 13 10.3 13 1.3 0 17.5-30.3 17.2-32.1-.2-.9.4-2.2 1.3-2.9 1.3-1 1.5-.9 1.5.9 0 2.1-16.5 33.1-18.2 34.2-.5.3.3 1.6 1.9 2.8l2.8 2.1-2.7-.6c-2.6-.6-2.7-.4-3.2 4.8-1.1 10.1-2.4 32.3-2.1 35.7.4 4.1 1.9 5.3 6.6 4.9 2.5-.2 3.5.1 3.2.8-.2.7 0 1.5.6 1.9 1.7 1 1.3-4.4-.9-13.6-2.1-8.7-2-12.2.1-4.8.7 2.4 1.4 4.8 1.5 5.4.2.5 1.1 4.1 2.1 8 1.9 7.6 4.5 12.1 6.2 11 .6-.3 1.1-.2 1.1.3s.6.9 1.3.9c.9 0 2.9-5.1 5.6-13.6 2.3-7.5 4.9-15 5.6-16.7.8-1.6 1.7-4.8 2-7 .6-3.7.5-4-2.7-5.2-4.6-1.9-15.1-7.3-16.3-8.4-1.1-1 3.7.9 10.3 4.2 7.7 3.8 9.6 3.7 12.8-.5 1.6-2.1 4.4-5.4 6.3-7.4l3.4-3.6-2.5 3.5c-8 11.1-9.3 14.2-6.5 15.3q1.2.6-.3.6c-2.4.1-4.9 7.4-11.7 33.8-1.5 5.6-2.3 10.6-1.9 11s6.1.8 12.7.8c11 0 15.1.8 9.7 1.8-1.7.3-1.5.5.9.6 1.7 0 3.5-.4 3.8-.9.4-.6 1.1-.8 1.6-.5.5.4.9.2.9-.4 0-1.7-5.6-16.2-9.5-24.6-4-8.7-7.6-18.7-7-19.4.3-.2.9.9 1.5 2.5s3.4 8.2 6.1 14.7c2.8 6.6 6.1 14.7 7.4 18 3.2 8.5 12.5 25.6 17.4 31.9 2.2 2.9 3.8 5.4 3.6 5.6s-1.4-.3-2.7-1.1c-2.3-1.5-21.5-8.1-22-7.6-.2.1-1.3-.3-2.6-1-2.7-1.4-21.5-7.1-22-6.6-.6.5 13.6 27.3 17.4 32.7 1.9 2.8 3.4 5.4 3.4 5.9s27.2.9 60.4.9c56.9 0 60.5-.1 60.9-1.7.4-1.7.5-1.7.6-.1.1 1.7 2.5 1.8 35 1.8h34.9l-3-5.5c-3.8-7.1-2.9-7.1 1.4 0l3.3 5.5H1280V0H0zM484 74.6c9.6 2 20.2 3.7 23.5 3.7s5 .2 3.8.5c-1.3.2-2.3.7-2.3 1.1s8.4 4.1 18.8 8.1c10.3 4 22.3 8.8 26.6 10.6 4.4 1.9 8.3 3.4 8.8 3.4.4 0 .9-1 .9-2.3.1-1.7.3-1.5.8.8.5 2.7 1.1 3.1 5.1 3.6 3.4.5 3.8.6 1.5.8l-3 .2 2.9 2.4c1.6 1.3 5.8 3.7 9.2 5.4 3.5 1.7 11 6 16.8 9.6s10.8 6.5 11.1 6.5c.2 0 4.6 2.5 9.7 5.6 12.2 7.4 21 12.6 28 16.6 3.2 1.8 6 3.8 6.2 4.5.3.7-2.7-.9-6.7-3.4-4-2.6-10.1-6.3-13.7-8.4-3.6-2-13.5-7.7-22-12.6-8.5-5-19.3-11.2-24-13.9s-9.8-5.5-11.5-6.2l-3-1.4 2 2.4c1.1 1.2 2.2 2.5 2.5 2.8 1.6 1.5 24.1 28.2 27 32 1.9 2.5 7.6 9.1 12.8 14.7l9.3 10.1 7.7-3.5c4.2-1.9 10.1-4.6 13-5.9s5.7-2.4 6.2-2.4 1.4-.8 1.9-1.8c.7-1.3.3-3.1-1.5-6.7-1.5-3-1.9-4.3-1-3.6.8.7 1.8 2.2 2.2 3.4 1.3 4.2 3.9 5.9 8 5.2l3.9-.6-3 1.7c-1.6.9-3.2 1.8-3.3 2-.2.1.8 3.5 2.2 7.5s2.4 7.4 2.2 7.6c-.2.3-1-1.2-1.7-3.1-.7-2-1.7-3.6-2.1-3.6s-.7-.3-.6-.8c.2-.4-.3-2.2-1.1-4-1.2-2.7-1.8-3.2-3.7-2.8-4.4 1.1-27.3 12.1-27.4 13.1 0 1.5 10.2 11.2 17.5 16.7 3.3 2.5 6.9 5.6 8 6.9 1.3 1.5.4 1.1-2.5-1.2-2.5-1.9-6.5-5.1-9-7s-4.7-3.6-5-3.9c-3-3-9.2-8-9.9-8-.5 0-1 7.6-1 17.2 0 9.5-.4 24.1-.7 32.4-.9 20.7-.5 23.2 4.9 26.6 2.3 1.5 5.6 3.9 7.2 5.4l3 2.6-4-2.3c-2.2-1.3-4.5-2.8-5.2-3.5-.6-.6-2.6-1.7-4.3-2.4-3.1-1.3-3.3-1.2-6.4 2.1-1.7 1.9-4.2 4.7-5.4 6.4-1.3 1.6-4.6 5.3-7.3 8.2-2.7 2.8-6.4 6.9-8.2 9.1-3.4 4.1-19.1 22.4-24.1 28s-4.1 2.5 1-3.4c2.7-3.1 7.3-8.7 10.2-12.3s8.1-9.5 11.5-13.1c3.5-3.6 10.3-11.2 15.1-16.9 10.1-12.1 10.3-11.3-2.7-16.5-3.9-1.7-12.3-5.4-18.6-8.4-6.3-2.9-13.1-5.9-15-6.6-2-.8-6-2.4-8.8-3.7-2.9-1.2-5.5-2-5.9-1.6-.3.3-.1 8.4.5 17.9s1.3 21.1 1.6 25.8l.4 8.5-1.3-8c-.7-4.4-1.6-13.4-2-20-.3-6.6-.9-14.8-1.2-18.3l-.6-6.3-3.7 3.9c-4.3 4.7-19.4 21.1-27.1 29.6-3 3.3-10.4 11.2-16.5 17.6-16.5 17.3-20.8 22.1-20.3 22.5.3.3 2.9.1 5.9-.4s7.9-1.2 10.9-1.4l5.5-.5-8.5 2.8c-5.9 1.9-7.9 2.9-6.5 3.3 3.3.9 12.3 2.6 25.5 4.7 6.9 1.1 18.9 3.2 26.7 4.7 10.9 2.1 14.6 2.4 15.5 1.5s.8-3.3-.1-10.4c-.7-5.1-1.4-12.7-1.5-16.8-.2-4.1-.1-5.5.1-3 .2 2.4.9 5 1.5 5.7.5.7.7 1.6.5 2-.3.5.1 4.4.9 8.8.7 4.4 1.4 9.5 1.4 11.2 0 1.8.3 3.3.6 3.3s4.5-1.8 9.2-4 8.7-3.8 9-3.6c.5.5-14.3 7.6-15.8 7.6-.6 0-1.6 1.1-2.2 2.5-1 2.3-1.3 2.4-2.9.9-.9-.8-4.8-2.2-8.6-2.9-15.6-3.1-40-7.1-66-10.9-2.5-.4-2.8-.1-1.3 1.7 2.5 3.1 18.7 21.9 23.8 27.5 3.1 3.5 5.9 6.6 6.2 7 .7.9-3.8-2.6-7.3-5.8l-2.9-2.5.6 3.5c.3 1.9.8 6.2 1.1 9.5.5 5.5.4 5.8-1 4-1-1.2-1.3-3-.9-5 .3-1.6 0-4.4-.6-6l-1.2-3-1.7 2.1c-2.9 3.6-2.8 29.5.1 26.6 1.2-1.2 3.8.8 3.8 2.9 0 .9-.4.8-1.5-.1-1.2-1-1.5-.9-1.5.5 0 1 .7 2.3 1.7 3 2 1.5.8 3.8-1.5 3.1-1.3-.4-2.3.7-3.9 4.2-1.2 2.6-1.8 4.8-1.3 5 2.1.7.8 2-2.5 2.6-1.9.4-3.9 1.6-4.5 2.6-.6 1.1-1.5 2-2 2-1.6 0-.1-2.5 2.6-4.1l2.5-1.5-3.8-2.7c-5.7-3.9-6.4-3.6-6.2 2.8.2 3.8.7 5.5 1.6 5.5 2 0 1.6 1.1-1.8 5-1.8 2.1-2.6 2.6-2 1.3 1.4-2.7 1.5-5 .6-13.8-.4-3.9-1.2-7.5-1.9-8-.6-.6-1-1.9-.8-2.9.2-1.1-.4-2.6-1.4-3.4-1.4-1.1-1.5-1.3-.3-.9s1.5 0 1.1-1.9c-.2-1.3-.7-2.4-1.1-2.4-.3 0-.6-2.6-.6-5.7 0-3.2-.4-8.5-.8-11.8-.5-4.2-.5-5.5.2-4.5.9 1.2 1.1 1.1 1.1-.8 0-1.2.3-2.2.6-2.2 1.1 0 13.7 13.1 13.1 13.7-.4.3-1.6-.2-2.7-1.2s-2-1.3-2-.7.5 1.4 1 1.7c.6.4 1.8 2.4 2.7 4.6 1 2.7 2.1 3.9 3.5 3.9 1 0 1.7.3 1.5.7-.7 1.1 1.1 5.3 2.2 5.3.5 0 1-4.6 1-10.3l.1-10.2-5.5-4c-3-2.2-5.5-4.3-5.5-4.7s-2.2-2.2-4.9-4.1c-4-2.7-4.7-3.6-4-5 .8-1.3.6-1.7-.6-1.7-.9 0-1.4.4-1.1.9 1 1.5-1.7 1.9-4.9.6-1.6-.7-3.9-1.5-4.9-1.9-3.9-1.3-.8-1.5 3.6-.1 3.8 1.1 4.9 1.1 5.7.1.9-1 .4-1.6-2.1-2.6-1.8-.6-4-1.5-4.9-2s-3.8-1.2-6.5-1.6l-4.9-.7 2 2.3c1.1 1.3 1.4 2 .7 1.6-3.5-2.1-7.3-1.6-13.1 1.4-3.3 1.8-6.8 4-7.9 5.1-1.1 1-3.2 2.1-4.6 2.5-1.5.3-2.9 1-3.2 1.6-.3.5-1.7 1.3-3 1.8-2.8 1.1-3.2 4-.5 4 1 0 2.4.7 3.1 1.5.8.9.9 1.5.2 1.5-.6 0-1.4-.5-1.7-1-1.1-1.7-3.5-1.1-3.5.9 0 3.7-1.9 3.1-2.2-.6-.2-2.7-.7-3.7-1.8-3.5-.7.2-9.5 2.1-19.5 4.2-19.5 4.3-31.4 7.5-32.7 8.8-.5.5 5.1 7.2 12.9 15.3 22.9 23.9 27.9 29.2 26.2 28.3-1.8-1-37.8-37.7-41.1-41.9l-1.9-2.5-11.2 5.6c-12.9 6.4-39.6 21.6-39.7 22.5 0 1.3 28.3 8.2 50.5 12.4 3.9.7 15.6 3.1 26 5.4 22.5 4.9 22.4 4.8 19.9 1.8-1.8-2.1-1.8-2.1.8.1 1.4 1.3 4.8 3 7.4 3.7 3.8 1 3.9 2.2.2 1.6-.5 0-.8.4-.8.9 0 1.5-2.8 1.2-3.7-.4-.5-.9-8.8-3.1-22.8-6-32.7-6.9-53.5-11.4-67.9-14.7-7.1-1.7-13.2-2.6-13.6-2.2s-1.7 5.3-2.9 10.8c-3.6 16.2-5.4 23-5.8 21.8-.2-.6 1-7.1 2.6-14.4 4.4-19.1 4.5-18.7-3.6-13.4-3.8 2.4-8.6 5.6-10.8 7.2-2.2 1.5-7.7 5.1-12.3 7.9l-8.3 5.1 3.8 1.6 3.8 1.7-4-.7c-2.2-.3-6-.6-8.5-.5-3.9 0-4.2-.1-2.2-1.1 1.2-.6 2.1-1.4 2-1.8-.2-.4-2.7-3.6-5.7-6.9l-5.5-6.2-1.7 3.4c-1 1.8-1.9 4.4-1.9 5.8-.1 1.4-.4 2-.6 1.3-.3-.6-.1-3.5.4-6.3.9-5 .9-5.1-1.2-4.6-1.1.3-3.7.9-5.7 1.2-3.4.6-3.7.9-4.2 4.7-.3 2.2-1 4.3-1.5 4.6-.6.3-1.2 2.2-1.4 4-.2 1.9-.8 3.6-1.4 3.8-.7.2-.9-.8-.6-2.7.3-1.8 0-3-.7-3s-1.1 2.3-1.1 6c0 3.3.2 6 .5 6 .2 0 1.4-1.8 2.5-4 2.1-4.2 3.6-5.3 2.7-2.1-.8 3.2.7 4.4 4.6 3.7 2.6-.5 3.8-1.4 4.5-3.4.7-1.7 1.1-2.1 1.1-1q.15 1.8 2.4 1.8c2.2.1 2.2.1-.3 1.5-1.4.8-3.4 1.5-4.5 1.5s-3.1.6-4.5 1.3c-2.2 1.1-2.5 2-2.6 6.7-.1 3-.2 9.3-.4 13.9-.1 5.9-.5 8-1.2 7-.6-1-.7-.3-.2 2.1.9 4.9 1.5 25 .6 25-.4 0-.7 7.5-.7 16.8 0 16.5 0 16.8 2.9 22.2 1.8 3.4 2.2 4.9 1.2 4.1-.9-.7-1.6-1.8-1.6-2.3s-.9-2.1-2.1-3.7c-1.9-2.6-2-4.1-2-20.7.1-9.9.5-19.2.9-20.9.5-1.6.5-5.5 0-8.8-.4-3.2-.5-6.4-.2-7 .3-.7-.1-.4-.9.6-1.1 1.4-1.6 1.5-2 .5-.3-.7-.6.5-.8 2.7-.1 3.1-.3 3.4-.6 1.2-.6-3.5-1.8-3.4-3.2.3-1.4 4.1-1.7 3.8-1.3-1 .2-2.2.1-4-.3-4s-6.1-.6-12.8-1.4c-20.6-2.5-20.8-2.5-21.4-1-.7 1.9-2.3.7-2.3-1.7 0-1.1 4.5-11.3 10-22.5 5.5-11.3 10-20.7 10-20.9s1.8-4.3 4-9 4-8.9 4-9.2 1.3-3.3 2.9-6.7c3.1-6.5 3.7-10.1 4.7-26.9.6-10.7-.2-16.8-3.1-24.7-.8-1.9-1.6-4.9-2-6.5-.8-4 1.1-1.3 2.5 3.5.9 3.2 8.1 12 9.9 12 .4 0 .8-1.4.9-3.2q.45-6.45 1.8-1.2c.4 1.6 1.3 3.4 2 4.1 1.2 1.2 11.4 1.9 11.4.8 0-.3-2-4.7-4.6-9.8-4.5-9.3-2.6-8.6 2.3.8 1.4 2.7 4.1 7.1 5.9 9.6 1.9 2.6 3.4 5.2 3.4 5.9s.7 1 1.5.6c.8-.3 1.4-.2 1.4.2-.4 2.4.8 3.3 6.9 5.1 3.7 1.1 8.2 2.2 10 2.6l3.4.7-.2-4.4c-.1-2.3-.1-4.8 0-5.3.3-1.8 1.9 2.9 1.9 5.7.1 1.8.6 2.8 1.6 2.8.8 0 7.3-2.7 14.3-6.1s14.3-6.8 16.2-7.6l3.5-1.5-2.4-1.9c-2.1-1.7-9.7-6.3-33.4-20.2-3.7-2.2-6.9-3.8-7.1-3.6-.3.2-.1 2.4.4 4.9.9 4.9.5 7-.5 2.4-1-4.8-4.8-12.1-7.1-13.5-1.2-.8-5.9-4-10.5-7.1-7.9-5.4-11.6-8.1-20.4-15.2-1.9-1.6-3.7-2.7-4-2.4-.2.2.2 2.8.9 5.8s1.9 8.2 2.6 11.5c2.4 11.8 2.9 12.8 5.9 12.2 1.5-.3 7.8-.8 14.1-1.1l11.5-.5-12.5 1.8c-6.9 1-13.3 1.7-14.2 1.5-1-.2-1.8.3-1.8 1.1 0 1.2-.4 1.1-2-.3-1.6-1.3-1.7-1.8-.7-2 1.2-.2 1.2-.9.1-4-.7-2-1.3-4.6-1.4-5.6 0-3.2-3.2-15-4.3-16.5-.6-.7-1-3-.9-5 .2-3.6.2-3.6-1.2-1.1-.8 1.4-1.2 2.9-.8 3.4 1.1 1.9 0 10.9-1.9 15.4l-2 4.7.6-4c.3-2.2 1-7.8 1.4-12.4.6-5.9 1.3-8.8 2.5-9.6.9-.7 1.6-2.5 1.6-4.1 0-2.2.3-2.6 1-1.4.8 1.3 1 1.2 1-.3 0-.9.4-1.7.9-1.7s1.9-2.4 3-5.3c1.1-2.8 3.2-8 4.6-11.4s2.7-7.4 2.9-9c.2-1.5 1.1-4.1 1.9-5.7.9-1.6 1.3-3.4 1-4s-.2-.8.2-.3c.5.4 1.7 0 2.7-1 2.4-2.1 2.3-.5-.2 2.7-2.6 3.3-2.6 7.6.1 9.2 1.1.7 3 2.9 4.1 4.8 2.5 4.2 5.8 8 6.9 8 .5 0 2-2 3.5-4.5 1.4-2.5 2.8-4.4 3.1-4.1.6.6-2.3 6-4.1 7.5-2.1 1.8-2 4.2.4 13.2 1.1 4.1 2.9 10.7 3.9 14.7 1.1 4 2.4 7.8 2.9 8.5s1.5 3.8 2.2 6.9c.7 3.2 1.6 5.8 1.9 5.8.4 0 2.1-2.8 3.9-6.3 9-17.5 24.2-45.4 26.8-49.2 2.8-4 1.3-.1-2.6 6.5-2.2 3.8-4 7.2-4 7.7s-1.9 4-4.1 7.8c-4.5 7.6-18.9 35.5-18.9 36.6 0 .8 9.1 7 18.2 12.4 3.8 2.2 10.4 6.1 14.7 8.7 4.4 2.6 8.2 5.2 8.6 5.8 2.3 3.6 2.5-2.5 2.5-53.6-.1-43.5-.4-54.5-1.4-54.1-.9.4-1.1-.4-.8-2.4.4-2.7.2-2.9-2.9-2.8-1.9 0-10.4 1.3-18.9 2.7l-15.5 2.7.3 8c.2 4.4.8 8.4 1.3 8.9 1.6 1.7 1 4.6-1 4.6-1.6 0-2 1.4-2.9 12.2-.6 6.8-1.4 16.7-1.8 22-.3 5.4-1 9.8-1.5 9.8-.6 0-.8-1.5-.5-3.3.3-1.7 1-11.8 1.6-22.2.6-10.5 1.6-21.3 2.1-24 .6-2.8.9-6.6.7-8.5l-.3-3.5-3 5.7c-1.6 3.2-3.6 6-4.2 6.2-.7.3.5-2.9 2.7-7 4-7.7 4.2-10.1.8-14.1-.6-.7-.6-1.3-.2-1.3.5 0 1.5.9 2.2 2s1.6 2 2.1 2c1 0 7.3-15.6 11-27.5 2.4-7.4 5-13 5.7-12.2.2.2-.5 2.5-1.6 5.1s-2 5.3-2 6c0 1.2-4 11.8-6 16.1-.6 1.1-1.8 4.6-2.9 7.8-1.7 5.2-1.7 5.7-.2 5.3.9-.3 8.5-1.7 17-3 8.5-1.4 15.8-2.9 16.3-3.4s.6-2.8.2-5.1c-.5-3.4-1-4.2-2.4-3.8-1 .2-2.4.1-3.1-.4-1.9-1.1.1-6.3 2.5-6.7 1.4-.3 1.7 0 1.3 1.2-.4.9-.2 1.6.4 1.6 1.4 0 .4-5.8-1.4-7.8-.8-1-1.7-3.3-2-5.2-.4-3.1-2.5-12.2-5.9-25.8-1-4-2.8-5.8-2.8-2.7 0 .8-.4 1.5-1 1.5-.5 0-1-.9-1-2.1v-2.1l-3.7 2.2-3.8 2.2 4-3.6c2.2-2 3.9-4.1 3.8-4.6-.2-.6.5-1 1.5-1 1.1 0 2.4-1.1 3-2.5 1.2-2.6 4.2-2.5 4.2.1 0 1 .8 1.3 2.8.8 6.7-1.5 11.1-2.7 17.2-4.7 3.6-1.2 6.9-2.1 7.4-2.2 1.6 0 1.7-2.2.1-3.5-2.3-1.9-1.8-4.9 1.1-6 3.3-1.3 3.1-1.4 3.8 1.4 1.1 4.3 5.1 5 14.1 2.2 9.7-2.9 22.6-7.4 23.3-8.1.9-.9-.9-2.2-8.8-6.5-10.4-5.7-20-10.2-21-9.8-2.3.8-26 23.1-25.4 23.9.3.5.1.8-.4.7-.5-.2-2.8 1.4-5.2 3.4-2.3 2.1-4.6 3.8-5 3.8-1.6 0 26.3-26.6 32.2-30.9 1.2-.8 1.8-2.1 1.5-3.2-.4-1.3 0-1.9 1.1-1.9 1 0 5.8-3.1 10.7-6.8 11.3-8.5 20.3-14.9 19-13.5-1.8 2-15.4 12.8-21 16.7-3 2.2-5.4 4-5.3 4.2.4.3 17.8-4.2 21-5.4 1.5-.6 4.4-1.1 6.5-1 4 0 17.1-2.6 48.1-9.7 1.2-.3 2.2-1.1 2.2-1.8s-3.5-4.8-7.7-9.2c-7.9-8-4.6-5.7 5.9 4.1 3.2 3 6.3 5.2 7 4.9.7-.2 14.3-2.9 30.2-6 16-3 29.2-5.7 29.4-6 .6-.5-5.2-1.9-20.3-5-13.7-2.7-15.9-3.3-13.5-3.4.8-.1 9.3 1.5 19 3.5m474.9 46c29.8 14.9 40 20.4 37.8 20.4-.5 0-4.5-2-9-4.4-13.8-7.3-52-26.4-55.2-27.6-2.5-.9-2.1-.3 2.5 3.7 3 2.6 9.6 8.6 14.5 13.3 17.5 16.5 16.1 15.7 27.8 16.5 5.6.4 13.5.8 17.5.9l7.3.3-2.6-2.7c-4.2-4.4-2.8-4.4 2.1-.1 2.6 2.3 5.1 4.1 5.5 4.1.5 0 .6.6.3 1.3-.4 1.3 3.1 9.3 8.2 18.6 3.3 5.8 2.4 6.4-1 .6-1.5-2.5-2.8-4.5-3-4.5-.1 0 1.7 5.7 4.1 12.7 2.4 7.1 8.2 24.2 12.9 38.2 7.4 22.1 10.2 29.9 10.4 28.1 0-.3 1.3-3.7 2.9-7.7l3-7.2-3.1-6.3c-1.7-3.5-3.8-7.4-4.8-8.8-.9-1.4-3.3-5.7-5.2-9.5-7.9-15.7-11-22.2-12.4-25.4-1.2-3-1.2-3.2.1-2.1.8.7 1.5 1.8 1.5 2.4s2 4.6 4.4 8.9c2.5 4.3 5.7 10.9 7.1 14.8 1.5 3.8 3.3 7.6 4.1 8.3.7.8 2.3 3.3 3.6 5.7 1.2 2.4 2.5 4.6 2.9 4.9 1.4 1.1 3.8 6.9 3 7.4s-6.1 16.4-6.1 18.3c0 1 14.3 5.3 17.4 5.3 2.4 0 2-1.1-3.3-9.1-2.7-4-4.9-7.6-4.8-7.9s-.5-1.6-1.2-2.8c-.7-1.3-1.1-2.6-.8-2.8.2-.3 1.9 2.4 3.6 5.8 1.7 3.5 4 7.4 5 8.7l1.9 2.4-.3-2.5c-.2-1.4-1.2-4.6-2.3-7.2-1.2-2.5-2.1-6.3-2-8.4 0-4.2-2-11.2-3.7-12.4-.7-.5-.7-.8 0-.8.6 0 .5-.4-.1-.8-1.1-.6-5.3-13.4-9-26.7l-1.3-5 .4 8c.2 4.4.1 6.9-.2 5.5-.2-1.4-2-10.3-3.8-19.7-1.9-9.5-3.8-18-4.4-19-.6-1.1-4.1-2.7-9.5-4.2-4.7-1.3-8.4-2.6-8.2-2.9.3-.2 3 .4 6.1 1.3 3.2.9 6.3 1.4 7 1.1 1.7-.6 5 3 7 7.7 2.4 5.7 9.2 27.7 11 35.2.8 3.6 2.7 9.2 4.2 12.3 2.9 6.2 4 9.5 7.8 25.2 5 20.4 5.4 22.6 6.5 31.7.7 5 2.4 14.2 3.9 20.4q2.85 11.25 3 20.4c.1 4.9.6 9.4 1.2 9.9q.9.9.9-.9c0-1 .3-1.6.6-1.2.3.3 0 2.3-.7 4.4s-1.4 3.3-1.6 2.6c-.4-1-3.1 1.7-9.9 9.6-.2.2-.4-.1-.4-.7 0-.7 1.5-2.9 3.4-4.9 5-5.7 5.6-7.4 5.6-17-.1-7.9-.2-8.6-1.5-6.9-.8 1.1-1.8 3.4-2.1 5.3-.3 1.8-1 3.6-1.5 3.9s-.9 1.2-.9 2.1-1.2 4.6-2.6 8.1c-1.4 3.6-2.4 7.5-2.1 8.8.2 1.3 0 2.1-.5 1.7-.6-.3-.5.4.1 1.6.9 1.6.9 2.1 0 2.1-.6 0-.9.7-.5 1.5.3.8 0 1.4-.6 1.2-.6-.1-1.2.3-1.5 1s.3.9 1.6.6c1.2-.3 2.1-1.1 2.1-1.8s.3-1.5.8-1.7c1-.4 5.2-6.5 5.2-7.6 0-1.3 2.9-3.6 3.6-2.9.3.3-.4 1.5-1.5 2.6-2.2 2.2-2.9 4.7-1 3.6 1.8-1.2-.1 6.5-3.2 12.7-1.6 3.1-3.3 5.9-3.9 6.3-1.3.8-1.3 5.5 0 5.5 1.6 0 1.2 2.7-1.1 7.1-1.6 3.2-1.9 5-1.4 8.2.8 4.4 5.4 15.9 8.5 21 2.6 4.2 2.5 5.5 0 2.6l-2.1-2.4 1.4 3c.8 1.6 2.7 7 4.2 12 1.5 4.9 3.1 9.2 3.5 9.5s1.5 3.2 2.4 6.4c1 3.3 3.4 9.4 5.4 13.7 3.1 6.6 4.1 7.9 6.2 8l2.5.1-2.7.9c-2.4.9-2.6 1.4-2.2 4.7l.4 3.7-1.5-3.2-1.5-3.3-5.7 3.5c-3.2 1.9-7.9 4.7-10.5 6.2-2.7 1.6-4.8 3.2-4.8 3.6s4.1.7 9 .6c5-.1 9.4.1 9.7.5.3.3 0 .6-.8.7-.8 0-7.9.2-15.9.3-13.3.3-23.5 1.6-26.2 3.2-1.3.8 6.8 5.3 9.7 5.4 1.5 0 1.7.2.6.9-.9.6-1.2 2.5-1 6.5.2 3.1.1 5.6-.2 5.6-1.2 0-2.9-8.4-1.9-9.4.6-.6 1-1.4 1-1.8 0-.9-9-5.1-9.6-4.5-.5.5 3.6 10.4 7.4 18.2l3 6 .7-3.8c.8-4.3 2.5-5.9 2.5-2.4 0 1.3.3 2.7.8 3.1.8.9.9 1.3 1.1 6.9.1 3 .8 5.1 2.4 6.7l2.2 2.5.3-2.3c.2-1.3-.6-5.2-1.7-8.7-2.3-7-2.7-10-1.1-7.5.7 1 1-.6 1-5.5s.3-6.5 1-5.5c.5.8 1 3.2 1 5.2 0 4.4 2.7 11.8 4.4 11.8.7 0 .6.3-.2.9-1.1.6-1.1 1.7-.2 5.1 1.2 4.3.7 10.5-.9 11.5-.5.3-.7-.4-.4-1.5.4-1.6.2-1.9-1.1-1.4-.9.3-1.6.2-1.6-.3 0-.6-1.2-1.5-2.6-2.2-2.4-1-3.2-.6-10.7 4.9-4.5 3.3-9.4 7-10.8 8.3-1.8 1.5-4.1 2.2-7 2.3-4.3.1-4-.3 1.5-2 1.6-.5.8-1.8-5-8.4-3.7-4.2-7.1-8.1-7.5-8.6s-4.2 3.8-8.4 9.5c-7.6 10.3-7.6 10.4-4.9 10.7 1.5.2 6.3-.1 10.7-.7s8.2-.9 8.5-.7c.2.3-1.8.8-4.5 1.1-2.6.4-5.4 1.1-6.1 1.5-1.8.9 13.5 2.3 27 2.4l10.7.1 5.3-5.5c3.7-3.9 4.7-4.6 3.3-2.3-7.9 12.7-7.7 12.3-6.6 15.5.6 1.7 1.1 4.3 1 5.7 0 1.9-.5 1.2-2-2.8-1-3-2.1-5.7-2.5-6-.3-.3-1.9 1-3.5 2.9-2.2 2.5-2.6 2.7-1.4.8 2.1-3.3 1.3-4.8-2.6-4.8-3.4 0-3.8 1.8-1.4 6.4 2.1 3.9 1.9 5.1-1.1 8.3-1.9 2-2.4 2.2-1.6.7 1-1.9.6-2.1-6.4-3.9-8.6-2.1-6.2-3.2-20.6 9.2-8.2 7.2-9.8 8.2-9.8 6.3 0-.6.5-1 1.1-1 .7 0 4.1-2.6 7.6-5.8 3.6-3.1 8-6.9 9.9-8.4l3.5-2.6-2.9-2c-1.6-1.2-6.7-4.3-11.4-7l-8.6-5-2.8 2.7c-1.9 1.7-2.2 1.9-1 .4 1-1.3 1.9-4 2-6.1 0-3.2.3-3.7 1.2-2.4s1.8.7 5.3-3.9c2.3-3 4.8-6.2 5.6-7.1 2.3-2.8 4.5-7.5 3.8-8.2-.4-.3.1-.6.9-.6 2.4 0 2.9-7.7.6-8.3-2.2-.6-2.1-5.2.1-7 1.1-1 1.3-.6.9 2.6-.2 2 0 3.7.4 3.7s.8-.3.8-.8c.1-.4.5-2.6.9-5 .7-3.7.5-4.8-1.5-7.8-3.1-4.5-3.1-5.7 0-2.1 1.3 1.5 2.6 2.7 2.9 2.7s1-2.4 1.7-5.3c.6-2.8 2.2-9.9 3.5-15.7 1.2-5.8 3-14.1 3.9-18.5s2.1-9.6 2.6-11.4c.5-1.9.8-3.6.7-3.8-.3-.3-6.4 10.1-11.2 19.2-12.5 23.6-12.3 22.6-9.4 32.4 1.1 3.5 1.9 7.2 1.9 8.3 0 3-1.7 1.2-2.3-2.4-1.1-6.9-2.5-12-3.4-12.9-.6-.6-3.3 2.2-7.3 7.3-3.5 4.6-7 8.7-7.7 9.1s-1.3 1.2-1.3 1.6c0 .5 4.6 3.4 10.3 6.6 11.5 6.5 11.2 6.3 10.6 7-.3.2-5-2.3-10.4-5.5-5.5-3.3-10.8-6-11.7-6-1.1 0-1.8-.8-1.8-2 0-1.3.5-1.8 1.5-1.4.9.4 2.6-1.1 4.7-4.2 1.8-2.6 5.3-7.1 7.6-10.1 2.6-3.2 4.1-6 3.8-6.9-.3-.8-.2-1.2.3-.9 1.3.7 5.8-6 11.1-16.5 2.4-4.7 5.3-10.1 6.5-12 2.7-4.3 9.5-16.9 9.5-17.5s-9.6-3.2-14.7-4l-4.1-.6-.6 5.3c-.3 2.9-1 10.7-1.7 17.3-1.4 14.7-2.6 22.6-2.8 17.8 0-1.7.3-6.5.8-10.5 1.7-13.1 2.3-22.8 1.4-22.8-1.2 0-9.3 15.6-9.3 17.8 0 1.2-1 1.8-3.3 1.9-3 .1-3 .1-.9-.9 1.2-.6 2.2-1.9 2.2-3 0-1 .4-1.8 1-1.8.5 0 2.3-3 4-6.7s3.7-7.4 4.4-8.3c.7-.8 1.6-2.3 2-3.4.5-1.6.3-1.8-2.1-1.2-1.6.3-5.4 1.1-8.5 1.7-5.2 1-6 1.5-8.5 5.4-5.6 8.7-5.3 8.3-4.5 6 .4-1.1 1.7-3.9 2.9-6.2 2.1-3.8 2.1-4.2.5-4.7-1.9-.6-16.5-3.7-19.7-4.2-1.1-.1-6.7-1.5-12.5-2.9-5.8-1.5-12.8-2.8-15.7-2.9-2.8-.1-5.5-.4-5.8-.8-.8-.8-32.9 6.3-34.2 7.5-.1.2.4 2.6 1.2 5.3 2.1 6.9 1.9 7.4-1.1 3.1-1.4-2.1-2.9-6.3-3.4-9.3-.5-3.1-2.5-11-4.4-17.7s-3.7-13.4-4-15c-.7-3.2-2.9-3.5-9.1-1.2-2.2.8-4.9 1.4-6 1.4-1.1-.1 0-.7 2.5-1.4s5.8-1.8 7.4-2.4l3-1.2-5-2.3c-2.7-1.3-11.4-6.2-19.4-11.1-8-4.8-17-10-20-11.4-3-1.5-6.2-3.1-7-3.6s-2.6-1.1-4-1.3c-4.6-.6-9.5-2-7.5-2.1 1.1 0 3.7.3 5.8.8 2 .5 3.7.6 3.7.3 0-.2-3.9-4.5-8.7-9.4s-9.2-9.6-9.6-10.6c-.5-.9 4.1 3.4 10.3 9.7l11.1 11.4 5.7-.6c4.6-.5 5.1-.4 2.5.4-3.6 1.1-4.2 2.3-1.5 3.3.9.3 4.4 2.1 7.6 4 3.3 1.9 6.3 3.3 6.7 3.1.4-.3 1.2.2 1.9 1 .6.7 1.9 1.1 2.8.8 1.3-.4 1.4-.3.3.5-1 .7.4 2 6 5.2 8 4.6 10.6 6 15.6 8.5l3.3 1.5-.5-4.7c-.2-2.7-1-11.1-1.6-18.8s-1.2-14.2-1.4-14.3c-.2-.2-4.5.8-9.5 2.3s-9.4 2.5-9.7 2.2c-.6-.7 12.1-4.7 14.8-4.7 3.9 0 1.7-1.8-5.2-4.4-3.8-1.4-8.3-2.6-9.8-2.6-1.6 0-3.4-.7-4.1-1.6-1.9-2.2-6.4-3.9-52.8-20.1-2.4-.8-4.1-1.7-3.9-2 .3-.2 7.4 2.1 15.8 5.1 20 7 38.6 13.2 42.4 14.1 1.7.4 3.7 1.3 4.5 2 1.5 1.3 15.8 6.5 17.9 6.5 1.4 0 1.4-5.8 0-9.9-.8-2.1-.8-3.5-.1-4.4.6-.6 1.3-9.5 1.6-19.7.4-10.2 1.1-25.5 1.6-34 1.6-24 2-39 1.2-39-.4 0-2.6 1.5-4.9 3.3-2.3 1.7-9.5 7.2-16 12.2-6.5 4.9-12.2 9.3-12.8 9.7-7.5 5.8-16.5 12.7-18.5 14-1.4 1-3.7 2.7-5.2 3.8-1.6 1.2-2.8 1.9-2.8 1.7 0-.5 8.8-7.4 19.9-15.7 21-15.7 38.1-29.6 38.1-31.1 0-.3-1.5-.9-3.2-1.2-1.8-.4-8.2-1.5-14.3-2.7-6-1.1-22.5-4.1-36.5-6.6-14-2.6-27.5-5-30-5.5-7.7-1.4-11-1.1-11.1.8-.1 1.7-.2 1.7-.6 0-.5-1.7-3.3-1.8-9.5 0-1 .2-1.8.2-1.8-.1s2-1.1 4.5-1.7c5.2-1.3 6.4-2.5 4.2-4.2-7.1-5.6-11.9-9.9-23.4-21.1-7.2-7.1-13.5-13.2-14-13.5-.4-.3-1.5-1.5-2.3-2.6-1.9-2.6 17.7 15 20.9 18.8 3.3 3.8 21 17.7 22.6 17.7.1 0 .1-.8-.2-1.9s.2-2.1 1.2-2.5c.9-.3 1.3-.2 1 .4-1.1 1.8.1 1.1 2.4-1.4 1.5-1.6 1.9-2.6 1.2-3.1q-1.05-.45-.9.6c.2.6-.3 1.4-1 1.6-2.2.8.4-3.4 3.3-5.3 1.4-.9 2.6-2.6 2.6-3.8.2-2 .2-2 .6.2l.4 2.3 2.1-2.6c1.1-1.4 1.8-2.9 1.4-3.2-.3-.4-.6 0-.7.8-.1 2.3-1.8-2.3-1.8-5.2-.1-1.5.6-3.2 1.4-3.9 1-.9 1.5-.9 1.5-.1 0 2.5 2 .9 2.1-1.7 0-1.5.3-2.1.6-1.5 1 2.6 1.8 1.2 2-3.4.1-2.5.7-5.1 1.2-5.6 1.6-1.6-1-3.6-3.1-2.4-.9.6-2 .8-2.4.5-1.1-1.2.5-4 2.6-4.5 1.1-.3 2-1 2-1.5s.4-.6 1-.3c.5.3 1.5-.5 2.2-1.9.6-1.4 1.6-2.6 2.2-2.6.6-.1 0-.7-1.4-1.5-2.5-1.4-2.5-1.4 1.5-1.5 2.2 0 4.7-.5 5.5-1.1 1.1-.8-7.4-.9-29.5-.6l-31 .5 24.5-1.4c13.5-.7 29.1-1.6 34.8-2l10.3-.6-4.2-4.6c-2.3-2.6-7.2-7.9-10.8-11.7-12-12.7-9.6-11.2 3.9 2.4 13.1 13.2 13.3 13.3 16.4 12.3 14.2-4.7 29.3-10.5 35.1-13.4l6.9-3.5-5.2-1.2c-2.9-.6-6.5-1.1-7.9-1.1-1.5 0-9-1.1-16.7-2.4-7.8-1.4-19.7-3.3-26.6-4.2-6.9-1-11.8-2-10.8-2.2.9-.2 12.6 1.3 26 3.3 13.3 1.9 26.6 3.8 29.3 4.1 2.8.3 7.4.9 10.3 1.3 2.8.5 5.2.6 5.2.3 0-.2-1.6-2.8-3.6-5.6l-3.5-5.1 5.3 5.5 5.3 5.5 6-1.3c16.7-3.8 31-8.5 30.1-10-1.7-2.8 9.7 2 38.3 16.4M279.5 150c-1.4 2.8-6.3 10.5-10.8 17.3-8.7 13-11.3 17.4-10.6 18.2.5.4 24-15.2 25-16.7.3-.5 1.2-1 2-1.2 2-.3 8.1-3.6 10.2-5.4 1.4-1.3 1.7-1.3 1.2-.1-.8 1.9-9.1 7.9-11 7.9-.8 0-1.5.5-1.5 1.1 0 .5.4.8.9.5 1.1-.7 2 1.4 1.4 3.1-.4 1-1.1.9-3.2-.1-2.5-1.3-3.1-1.2-9.6 2.8-3.9 2.4-8.7 5.5-10.8 6.9s-4.3 2.7-4.9 2.9-1.2 1.3-1.3 2.4c-.1 1-.5 2.6-.8 3.4-.6 1.5-.9 5.2-2.3 24.3-.4 6.3-1 9.5-1.6 8.9-1.3-1.3-1.2-6.1.1-14.2.6-3.6 1.1-7.9 1-9.5-.1-2.8-.2-2.7-2.4 2-3 6.3-3.2 4.4-.4-2.7 1.2-2.9 3.3-8.7 4.8-12.8 2.4-6.4 6.2-12.9 19.5-32.5.7-1.1 2.5-4.1 4-6.8 3.6-6.2 4.3-6 1.1.3M1203 674.4c0 1.3 2.7 3.1 4.2 2.8.7-.2 3.8 7.2 3.8 9.3 0 3.7 1.8.9 4-6 1.8-5.7 2.8-7.5 4.2-7.5 1 0 1.8.1 1.8.2 0 1.3-6.7 17.7-7.1 17.4-.2-.2-.4 1.3-.4 3.4s.4 4.2.9 4.7c.5.4.6.3.2-.5-.4-.6-.3-1.2.2-1.2 1.1 0 2.3 4 1.6 5.1-.8 1.3-3.2-.1-3.7-2.2-.3-1-1.4-1.9-2.5-1.9-1.5 0-2.5-1.5-4.2-6.3-1.2-3.4-3.3-9-4.6-12.5-2.2-6-2.3-6.2-.4-6.2 1.1 0 2 .6 2 1.4m22.3 4.4c-.4 1.6.1 1.9 3.9 1.8 3-.1 5 .5 6.2 1.6 1 1 2.3 1.8 3 1.8.8 0 1.9.7 2.6 1.5 1.1 1.3 1.6 1.1 4-1.5 3.9-4.1 7.1-4.7 12.2-2 5.3 2.7 8.8 5.9 8.8 7.9 0 1.4-.1 1.4-1 .1-.8-1.3-1-1.2-1.1.5s-.2 1.7-.6.2c-.7-2.6-2.1-2-2.8 1.3-.4 1.6-1.7 3.8-3.1 4.9-3 2.4-3 3.1 0 3.1 1.5 0 3.3-1.1 4.5-2.6s2.1-2.3 2.1-1.8c0 1.8-4.5 5.4-6.7 5.4-1.5 0-2.2.4-1.7 1.1 1.1 1.8-3.6-1-8.6-5-3.8-3.1-5-3.6-7.5-3-1.6.4-2.6.7-2.1.8.4 0-.2 1-1.5 2-3 2.4-1.8 3.8 1.8 2.2 2.7-1.1 2.7-1 .8.4-1.3 1-3 1.4-4.8 1.1q-2.85-.6-2.1.6c.9 1.4-.7.5-5.4-3-2.2-1.7-3.1-3-2.7-4.1.3-.8.3-1.2-.1-.9-.3.4-1.3 0-2.2-.8-1.2-1.3-1.3-2.2-.4-5.1.6-1.9.9-4 .8-4.6-.2-.7-.1-.9.1-.4.8 1.2 2.3-.3 2.3-2.3 0-1-.6-2.1-1.2-2.3-.7-.3-.3-.6.9-.6 1.6-.1 2 .4 1.6 1.7"/><path d="M495.9 81.5c-.3.2-9.5 2.3-20.5 4.5-26.5 5.3-34.8 7.1-35.2 7.5-.2.2 1.1 1.1 3 2.1 1.8.9 4.4 2.5 5.8 3.5 1.4.9 9.3 5.9 17.5 10.9 8.3 5.1 17.4 10.8 20.3 12.7 3 1.9 5.5 3.3 5.6 3.1s.7-2.6 1.3-5.3c.7-2.8 2.1-9.1 3.3-14 1.2-5 2.5-11 3-13.5s1.3-6.2 1.8-8.3l1-3.7h-3.2c-1.8 0-3.5.2-3.7.5M505.5 83.3c-2.8 3.4-5.6 15.9-8.9 39-.6 4.3-1.4 4.3 10.9 0 3.9-1.3 10.4-3.5 14.5-4.9 4.1-1.3 8.4-2.8 9.5-3.3s8.2-2.8 15.7-5.2 13.5-4.6 13.2-5c-.7-1.1-10.5-5.6-21.9-9.9-6-2.3-15.5-6-21.1-8.1-11.4-4.4-10.6-4.2-11.9-2.6M435.9 95.2c-.1.7-.1 2 0 2.8 0 1.1-.1 1.1-.5.2-1.1-2.5-3.4.9-3.4 5.1 0 3.7 2.6 7.7 5.1 7.7 1.5 0 8.9-3.2 8.9-3.9 0-.3.9-1.2 2-1.9 1.7-1 2.6-.9 5.3.4 3 1.6 3.1 1.6 1.8.1-.7-1-1.7-1.7-2.2-1.7s-1.8-.8-2.8-1.7c-3.9-3.3-14.1-8.4-14.2-7.1M410 99.6c-11.6 2.4-22.4 5.7-24.9 7.6-2.7 2-6.1 2.4-7.8.7-.8-.8-3.4-.6-9.5.6-4.5 1-8.7 2.1-9.1 2.5-.7.6 10.2 8 11.7 8 .2 0 4 2 8.5 4.5s8.7 4.5 9.5 4.5c2 0 19.3-12.7 24.9-18.2 2.6-2.7 4.7-5.6 4.7-6.7 0-2.1 1.6-3.7 4.5-4.4 4.7-1.1-6.6-.4-12.5.9M564.6 114.2c-1.5 5.2-1.3 7.5.4 4.8.7-1.1 1-.8 1.1 1.5.1 1.6.1 3.5 0 4.1-.2 1.4 2.4 2.6 6.3 3.1 1.6.2 3.1.5 3.3.7s.6 3.1.9 6.5c.4 5.6.3 6.1-1.6 6.1-1.1 0-2 .7-2 1.5s-.6 1.5-1.4 1.5c-.7 0-1.6.9-1.9 2-.4 1.7 0 2 2.9 2 2.7 0 3.4-.4 3.4-2 0-1.1.7-2 1.5-2 1.7 0 1.8-1 .5-6.4-.8-3.7-.6-4.2 2.1-6.8 1.6-1.6 2.9-3.2 2.9-3.7 0-1.4-3.6-4.2-4.4-3.4-.4.5-.6.1-.4-.7s-.3-1.4-1-1.2c-.8.1-1.2-.3-1-1 .6-1.6-2.3-4.9-3.5-4.1-.6.3-.7.1-.3-.5.6-1.1-3.9-7.2-5.4-7.2-.5 0-1.5 2.3-2.4 5.2M584.4 130.6c.7 2.9 1.4 6.2 1.5 7.6.1.5 1 .8 2.1.8 2.1 0 2.6 2.4 2.2 9.6-.2 1.8.4 3.7 1.3 4.4.8.7 1.2 1.6.9 2.1s0 .9.6.9c.8 0 1 1.2.5 3.9-.6 3.7 0 4.8 2.9 4.9.5 0 1.2.5 1.5 1s4.7 1.6 9.6 2.4c5 .8 9.9 1.9 10.9 2.3 1.9.8 1.9.7-.1-2.1-3.6-5-13.3-14.9-14.6-14.9-.6 0-1.3-.6-1.3-1.3-.1-.6-.2-1.6-.3-2.1-.2-1.5-12.2-15.6-13.1-15.4-.5.2-.7-.3-.4-1 .2-.7-.7-2.3-2.2-3.6l-2.7-2.3zM364.5 139.2c-2.2.6-4.8 1.4-5.8 1.9s-2.2.7-2.6.4c-.5-.2-1.4.2-2.1 1s-1.9 1.5-2.7 1.5-1.1.4-.8 1c.4.6-1.5.9-4.7.8-3.6-.1-9.2 1.1-17.3 3.5-17 5.2-17.8 5.6-17.1 8.1.4 1.2 1.6 6.6 2.7 12.1s2.5 10.4 3 10.9c.5.6.9 2 .9 3.1 0 1.2.3 2.5.8 2.9.4.4.7 1.3.7 1.9 0 1.2 1 1.2 5.8.1 2.4-.6 2.7-.4 2.7 1.9 0 1.4-.5 2.9-1.1 3.3-.8.4-.7.9.2 1.5 1 .6 1.1.9.2.9-2 0-1.5 3.4.6 4.9 1 .8 2.2 1.3 2.6 1.2.4-.2 1.1.3 1.5.9.8 1.4 4.8-3.8 10.6-14 2.1-3.6 4.2-6.7 4.6-6.8.4-.2.8-.8.8-1.4s1.2-2.3 2.8-3.9c4.5-4.6 5.2-5.7 5.2-8.3 0-1.4.5-2.8 1.2-3.2s.8-.3.4.4-.2 1.2.3 1.2c.6 0 1.1-.5 1.1-1.1s1.4-2.4 3.1-4c1.9-1.7 2.9-3.5 2.5-4.4q-.6-1.5 1.5-1.5c1.7 0 1.8-.3.8-2.1-.8-1.5-.8-1.9 0-1.5.6.4 1.1 0 1.1-.8 0-1-.6-1.3-1.5-1-2.5 1-3.1-2.7-.8-4.5 1.1-.9 2.2-3.1 2.6-4.9.4-1.7.5-3.1.4-3.1-.1.1-2 .6-4.2 1.1M388.1 141.2c0 1-.9 1.8-1.8 1.9-4 .2-5.7.9-8 3.5-1.2 1.5-2.3 3.1-2.3 3.7 0 1-3 4.7-11.8 14.5-6.2 6.9-8.3 10.9-6.2 12.2 1.1.7 1 1.6-.4 4.4-1.6 3.3-3.5 4.3-7 3.7-1.5-.3-4.7 3.2-6.8 7.3-1.1 2.2-2.7 4.6-3.4 5.4-2.2 2.1-3.6 5.1-2.9 6.2.4.6.1.9-.7.8-.8-.2-1.3.9-1.5 3.1-.1 3.2 0 3.3 2.9 2.7 1.7-.3 3.9-.6 5-.6 1 0 1.7-.4 1.4-.8-.7-1.2 2.2-5.2 3.7-5.2.7 0 1.9.5 2.7 1 1.3.9 1.3 1.1 0 2-1.1.7-.1 1 3.7 1 2.8 0 5.3-.4 5.5-1 .3-.9 3.3-1.7 6.8-1.9.8-.1.1-1-1.7-2-1.7-1.1-3.4-2.9-3.7-3.9-.4-1.1-1.3-2.3-2.1-2.6-2.1-.7-1.9-3.4.5-7.9 1.1-2 2-5.5 2-7.7 0-3.7.2-4 2.8-4 1.5 0 3.3-.5 3.8-1 2-2 4.7 1.5 5.4 7.1.5 3 1.1 7.2 1.5 9.3.5 2.2.4 3.7-.1 3.4-1.4-.9-5.4 1-5.4 2.5 0 .8.9 2.2 2 3.2 1.9 1.7 2.4 1.7 11.7 0 5.4-.9 12.1-2.3 15-3.1 2.8-.8 6.6-1.5 8.5-1.5 3.3-.2 3.3-.2-.7-.9-2.2-.4-3-.8-1.7-.9 1.2 0 2.2-.8 2.2-1.6 0-1.8 1.6-2 2.3-.3.3.7.6-.4.6-2.5.1-4.2-1.9-7-4.2-6.1-.9.3-2.4-.3-3.6-1.3-1.1-1-2.6-2.3-3.3-2.9-2.2-1.9-5.8-6.8-5.8-8 0-.6-.6-1.6-1.3-2.3-1-.8-1.7-8.3-.8-9.8 0-.1 1.2.2 2.6.7 2.6 1 2.4 1.4 4-6.4.3-1.5-.2-2.9-1.5-4.1-1.1-1-2-2.4-2-3.1 0-.8-1.1-2.1-2.4-3-1.4-.8-2.7-2.3-2.9-3.2-.4-1.5-.5-1.5-.6 0M564 194c0 1.3-.7 2-1.8 2-3 0-4.1 1.9-3.1 5.3.5 1.8.9 4.5.9 6.2 0 2.3.3 2.7 1 1.5.9-1.3 1-1.3 1.1 0 0 .8.5.4.9-1 .8-2.5.8-2.5.9-.2.1 1.3.5 2.1 1 1.7.5-.3 1.6.1 2.3.8 1.8 1.9 3.3.5 4.5-4.3.3-1.1 1.3-2 2.2-2s2.2-.5 2.9-1.2c1.5-1.5 1.6-6.4.2-7.3-.5-.3-1-.1-1 .4 0 2-2 1.1-3.2-1.4-.9-2-1.8-2.5-5-2.5-3.1 0-3.8.3-3.8 2M537 197c-.8 1.1-2.2 2.3-3.2 2.5-1.1.4-1.6 1.4-1.4 3.3.2 1.5-.3 4.3-1 6.4-.7 2-1 3.9-.7 4.1.7.8 3.2-1.6 2.6-2.6-.2-.4 1.2-.8 3.1-.8 4.8-.2 5.3-.3 6.2-1.2.4-.4 1.8-.7 3.1-.7 2.1 0 2.2-.3 1.3-2-.6-1.1-1.6-1.7-2.2-1.4-.7.4-.8.3-.4-.4.4-.6-.2-2.1-1.3-3.4s-2.6-3.1-3.3-4.1c-1.3-1.7-1.4-1.7-2.8.3M605 196.4c0 .9-.4 1.7-1 1.7-.5.1-1.3.2-1.8.3-.4 0-2 1.1-3.6 2.3-2 1.6-2.7 2.9-2.3 4.3.3 1.1.1 2.3-.4 2.6s-.9-.2-.9-1c0-1.9-1.4-2.8-3.4-2-1.7.7-2.2 3.4-.6 3.4.6 0 1 .9 1 2s.7 2 1.5 2 1.5.9 1.5 2 .5 2 1 2c.6 0 1 1.8 1 4 0 2.9.4 4 1.5 4 .8 0 1.5-.9 1.5-2 0-1.7.7-2 4-2s4-.3 4-2c0-1.3.7-2 2-2 1.6 0 2-.7 2-3s.4-3 2-3c1.8 0 2-.7 2-7 0-6.6-.1-7-2.2-6.8-1.3.1-3.8-.2-5.5-.6-2.7-.6-3.3-.4-3.3.8M413.5 197.6c-2.7.7-10.5 2.3-17.3 3.4-6.8 1.2-17.1 3.3-23 4.7s-15 3.4-20.2 4.5c-28.1 5.7-28.3 5.8-24.8 9.5 2.6 2.7 13.5 10.4 15.2 10.7.6.1 2.9 2 5.2 4.3 2.3 2.2 12.2 10.5 22 18.2 9.8 7.8 25.3 20.1 34.3 27.3 15.5 12.4 16.5 13 17.9 11.2s1.4-1.8.9.2c-.8 3.5.4 4.3 5 3.4 2.6-.4 9.7-.1 18 .8 13.2 1.5 24 1.1 22.8-.8-.3-.4 1.5-1.1 4-1.4 3-.5 4.5-1.2 4.5-2.2 0-2.4-14.1-26-36.9-61.9-4.6-7.2-9.3-14.8-10.5-17-2.5-4.6-7.5-12.5-7.9-12.5-.2 0-.2 13.6-.1 30.2l.2 30.3-.9-29c-.4-16-1-30.1-1.2-31.5-.3-1.4-.5-2.8-.6-3.3-.1-.9-.4-.8-6.6.9M423 198.3c0 .7.8 2 1.8 2.9 2.2 2.2 4.2 4.6 4.2 5.2 0 .3 3.2 5.5 7 11.7 3.9 6.1 7 11.3 7 11.5 0 .3.8 1.7 1.9 3.2 4.6 6.8 11.8 18.2 22.4 35.7 12.2 20.1 16.6 26.9 17.1 26.4.2-.2 1.1-10.3 2-22.4s1.8-24.3 2.1-27c.2-2.8.8-11.2 1.1-18.7l.7-13.6-3.9-1.1c-2.1-.5-10-2.4-17.4-4s-19.9-4.6-27.7-6.6c-18.2-4.6-18.3-4.6-18.3-3.2M492.6 218.1c-.8 6.9-2.5 27.4-3.2 39.4-.4 6-1.2 17.2-1.8 24.8s-.8 14.1-.5 14.3c.4.2 8.7-8 18.6-18.4 34.3-36.1 51-55 49.6-56.2-.7-.7-7.7-1.6-42.8-5.5-7.1-.8-14.4-1.7-16.2-2.1-3.1-.6-3.2-.6-3.7 3.7M324.8 274.7c.1 30.7.5 55.9.7 56.1.4.5 11.8-3.4 33.5-11.5 5.2-1.9 13.1-4.7 17.5-6.3 4.4-1.5 12.5-4.7 18-7s13.7-5.4 18.3-6.8c4.5-1.5 8.2-2.9 8.2-3.2-.1-1.2-1.8-2.9-6.6-6.6-2.8-2.1-10.9-8.5-18-14.1-37.1-29.5-55.9-44.3-62-48.8-3.7-2.8-7.4-5.5-8.3-6.2-1.5-1.1-1.6 3.8-1.3 54.4M247.7 245.5c-4 10.8-10.2 23.6-11 22.8-.4-.3-.7-.1-.7.5s.5 1.4 1 1.7c.6.4.8 1 .5 1.5-.7 1.2 11 10.7 25 20.3 6.6 4.5 12.4 8.4 12.9 8.6 1.1.5-.1-7.8-2-13.2-.8-2.3-3.1-10.5-5.1-18.2s-3.9-14.2-4.3-14.5c-.3-.3-1-1.2-1.3-2-1.2-2.6-10.2-14.3-11.2-14.7-.6-.2-2.3 3.1-3.8 7.2M418.5 298.7c-2.1.5-11.2 3.7-20 7.1-2.7 1.1-10.6 4.1-17.5 6.7s-14.3 5.6-16.4 6.7c-2.2 1.1-9.6 3.9-16.5 6.3-16.7 5.7-21.5 7.5-22.3 8.3-.6.6-1.3 4.6-4.4 23.7-1.3 7.9-2 15.5-1.3 15.5.3 0 5-2.5 10.4-5.5 5.3-3 9.8-5.5 10-5.5s3.2-1.7 6.6-3.8c5.9-3.5 21.3-11.2 22.5-11.2.3 0 2.6-1.9 5.1-4.3 4.9-4.6 10.3-12 10.3-14.2 0-1.8 1.7-2.8 2.5-1.5.4.6 1.5.8 2.6.5 3.1-1 2.2.8-2.3 4.4-5.2 4.2-13.1 13.1-12.4 13.9.3.3 3.4-.2 6.8-1.1 10.4-2.6 33.9-7.9 39.8-8.9 3-.5 5.9-1.3 6.4-1.8.4-.4.1-4.3-.8-8.8-2.2-10.8-1.9-12.5.5-2.7 1.1 4.4 2.2 8.6 2.4 9.3.4 1 2.3.4 7.3-2.4 11.6-6.5 30.3-18.3 35.1-22.3 2.5-2.1 5.5-4.3 6.6-4.9s1.6-1.2 1-1.2c-.5 0-7.7-.6-16-1.4-8.2-.8-20.8-1.5-27.8-1.6-12.5-.1-12.8 0-12.2 1.9 1 3.4 1.4 12.4.4 11.4-.8-.8-1.4-4.9-1.8-11.6-.1-1.7-.9-1.9-4.6-1M476.3 307.1c-4 2.7-7.3 5.3-7.3 5.7 0 .9 15.6.9 16.6-.1 1.2-1.2 2.2-.8 2.9 1.2.3 1 2.2 2.6 4.3 3.5 2.1 1 6.4 4.2 9.6 7.2s6 5.3 6.3 5c.6-.5-3-5.9-6.1-9.3-4.6-4.8-6.4-7-9.5-11-1.8-2.3-4.4-4.4-5.7-4.7-1.3-.4-2.4-1.1-2.4-1.6 0-1.6-1.1-1.1-8.7 4.1M305.5 342.6c-8.2 4-15.4 7.5-16 7.7-1.8.7 3.1 5.3 20.7 19.4 2.2 1.8 4.4 3 4.8 2.8 1-.6 3.5-11.4 5-21.2.6-3.7 1.4-8.9 1.9-11.6.5-3.2.4-4.7-.3-4.6-.6 0-7.8 3.4-16.1 7.5M268.3 350c-.1 1.4.4 2 1.8 2 4.4 0 1.1 16.5-3.5 17.2-1.5.2-2 .9-1.9 2.6.2 1.3-.1 2.1-.6 1.8s-1.3 1.2-1.9 3.4c-1.7 6.7 2.6 4 5.9-3.7 1-2.4 2.5-4.6 3.3-4.9s2.4-2.1 3.5-3.9c1.9-3.4 6.7-7.2 7.7-6.3.4.5-1.5 2.8-10.2 11.9-1.9 2-3.7 4.7-3.9 5.9-.3 1.3-2 4-4 6-1.9 2-3.5 4-3.5 4.6 0 1.7 10.5 14.4 11.9 14.4.4 0 .8-.6.8-1.3.1-.6 1.1-4.8 2.3-9.2s2.8-10.5 3.6-13.5c.7-3 2.1-8.4 3.2-12 1-3.6 1.8-8.3 1.7-10.4 0-4.4-.6-4.8-10.6-6-5-.6-5.5-.5-5.6 1.4M286.1 360.1c-.7 3.4-1.6 6.9-2.2 7.8-1.6 2.8-8.6 32.2-7.7 32.7.4.3 2.2-.2 3.9-1.1 4.1-2.2 32.7-21.4 33.4-22.5.4-.7-23.3-22-25.4-22.8-.4-.1-1.3 2.5-2 5.9M226.7 379.2c-5.4 11.5-8.7 19.2-8.3 19.5.2.3 1.1-.8 2-2.4.8-1.5 1.5-2.3 1.6-1.8 0 .6-1.1 2.7-2.5 4.7s-2.5 4.2-2.5 4.8-.4.8-1 .5c-.5-.3-.7 0-.5.7.3.8-3.1 8.5-7.5 17.2-4.5 8.7-7.9 16-7.7 16.2s4.4-2.5 9.3-6c4.9-3.6 12.6-8.8 17.1-11.6 8.1-5 8.2-5.1 9.2-10.3.5-2.9 1.3-7.7 1.7-10.7.3-3 1-6.2 1.4-7 1.4-2.5 2.5 1.7 1.2 4.6-.7 1.3-.8 2.4-.3 2.4 1.3 0 2.1-3.8 2.1-9.7 0-2.8.5-5.5 1-5.8 1.5-.9 1.2-2.5-.5-2.5-1.3 0-2.1 2.5-1.6 5.2 0 .5-.3.8-.9.8-.5 0-1 .7-1 1.6 0 .8-.4 1.2-1 .9-.5-.3-1-3-1-6 0-6.8-.7-8.5-3.4-8.5-1.5 0-3 1.6-5.4 6.1-4.1 7.3-5.3 7.3-1.6 0 1.4-2.9 2.4-5.5 2.1-5.7-.2-.3-1.1 1-2 2.8M233.5 419.4c-1.6.8-9.5 5.9-17.5 11.5-8 5.5-14.9 10.2-15.5 10.4-2.6 1 1.5 1.9 17.3 3.5l17.1 1.8.6-8c.6-7.4 1.3-20.7 1.1-20.6-.1.1-1.4.7-3.1 1.4M914 109.5c-4.1 1.3-11.5 3.4-16.3 4.6-4.9 1.3-9.3 2.7-9.9 3-.6.4 3 5.3 8.3 11.4 5.2 5.8 11.8 13.7 14.7 17.3 7.6 9.5 7.8 9.5 8.6.9.4-3.9 1.3-9.5 2-12.2.8-2.8 1.4-8.8 1.5-13.5s.3-9.7.5-11.3c.5-3.2.4-3.2-9.4-.2M925.5 109.2c-.2.7-.6 7.1-.9 14.3-.3 7.1-1.2 15.7-2.1 19-1.5 6.2-2 12.5-.8 12.5.3 0 8.1-2.4 17.2-5.4s18.1-5.7 19.8-6.1c4.8-1 5-2.3.7-6.2-2.2-1.9-7.3-6.7-11.4-10.6-8.9-8.6-20.4-18.7-21.4-18.7-.4 0-.8.6-1.1 1.2M969.5 144c-.4.6-.2 1.6.3 2.3s3.1 5.2 5.7 10.2c10 19 15.7 28.7 16.5 27.8 1.1-1.1 4-11.6 4-14.2 0-1.2-.5-3-1.2-4-.9-1.5-.7-2.3 1.5-4.7 1.4-1.5 2.9-4.1 3.2-5.6.4-1.5 1.1-3 1.6-3.4 1.7-1-.2 9.7-3.7 21.1-1.9 6-3.4 11.9-3.4 13 .1 1.1 3 5.6 6.5 10 3.6 4.4 9.3 11.6 12.7 16 5.9 7.6 21.8 26.5 22.3 26.5.2 0-.5-2.6-1.5-5.8-1-3.1-3.5-10.9-5.5-17.2s-5-15.3-6.6-20c-1.7-4.7-5.3-14.8-7.9-22.5-7.6-22-8.6-24.3-10.3-26.3-1.4-1.6-3.8-2-14-2.6-6.7-.3-13.9-.8-15.9-1.1s-4 0-4.3.5M994.4 194.5c.8 3.8 1.2 5.9 2.1 11.5.4 2.5 2 9.9 3.5 16.5 1.6 6.6 3.2 13.6 3.5 15.6l.7 3.7 11.6.6c6.5.4 13.9.9 16.7 1.3l5 .6-3.5-4.1c-1.9-2.2-6.6-7.9-10.5-12.7-3.8-4.8-9.3-11.5-12-14.9-2.8-3.3-7.2-8.8-9.7-12.1-2.5-3.4-5.4-6.7-6.3-7.5-1.6-1.3-1.7-1.2-1.1 1.5M992.6 207.3c.3.9.2 2.3-.3 3-.5.6-1 2.8-1.2 4.7-.1 1.9-.9 6-1.7 9.1s-1.4 6.4-1.4 7.3c0 1 2.8 3 7.1 5.1l7 3.6-.6-3.8c-1.4-7.7-6.9-27.4-8.2-29.1-1.2-1.6-1.3-1.6-.7.1M891 220.7c.1 2.3 4.9 11.3 5 9.3 0-1.1.6-.9 1.9.7 1 1.2 2.2 1.9 2.6 1.5s.5.8.2 2.6c-.6 2.7.4 5.5 5.9 16.5 6.6 13.2 15.2 27.9 16.6 28.5.5.2.8.8.8 1.3s1.8 3.8 3.9 7.2l4 6.2 1.1-3c.8-1.9 1-5.8.6-10.7-.4-4.2-.2-7.8.3-8 .5-.1 1-11.1 1.2-24.3l.4-23.9-3.7-.8c-3.8-.8-36.8-4.8-39.4-4.8-.8 0-1.4.8-1.4 1.7M888.9 229.5c0 3.3-.4 12.5-.9 20.5-2.5 40.4-3.2 61.2-2.2 62.2.6.6.7 2.1.1 4.1-1.1 4-1.1 6.8 0 8.6.7 1 4.1-.4 15.9-6.6 8.2-4.4 18.4-9.7 22.6-11.8s7.6-4.4 7.6-5.2c0-2.1-4.7-10.9-10.5-19.8-2.9-4.4-6.1-9.8-7.2-12-4.7-9.6-20.5-39-22.8-42.3l-2.5-3.7zM1005 243.7c0 1 2.9 6.2 4.2 7.7 1 1.1 1.8 2.6 1.8 3.3s1.2 2.7 2.8 4.5c3.8 4.6 6.7 9 7.5 11.3l.7 2-1.5-2c-.8-1.1-3.3-4.6-5.6-7.8s-4.4-5.6-4.6-5.3c-.2.2 1.4 4.4 3.5 9.2 2.2 4.9 4.5 10.7 5.2 12.8 1.3 4.1 4.3 7.2 11.4 11.6 8 5 7.4 6.1 7.5-14.7 0-10.2.3-18.8.6-19.1s.5 6 .5 13.9.3 18.2.7 22.8c.5 6.3.3 8.2-.5 7.7-.7-.4-1.2-.2-1.2.3 0 .6-.5 1.1-1.1 1.1-1.7 0-9.9 7.1-9.9 8.6 0 .8-.4 1.4-.9 1.4-.9 0-6.6 16.8-6 17.4.2.2 3.2.7 6.7 1.1 5.3.6 6.2.5 6.2-.9 0-1 .6-1.3 1.5-.9.9.3 4-1.2 7.5-3.6 3.3-2.3 6-3.8 6-3.4 0 .5-1.2 1.6-2.7 2.5-1.6.9-4.5 3.3-6.7 5.2-3.7 3.3-3.8 3.6-3.1 8.3.3 2.6 1.2 6.1 1.8 7.7l1.2 2.8 1.2-2.3c6.1-12.4 10.3-21.8 10.3-23.4 0-1.1.4-2.6.9-3.4.9-1.3-1.3-6.2-4.8-10.6-1.6-2-1.6-2 .7 0 1.3 1.1 3.1 3.2 4 4.7.9 1.6 2.2 2.8 2.9 2.8 1.7 0 1.6.9-.1 2.9-.7.9-1.6 3.5-1.9 5.7-.4 3.4-.2 4.1 1.1 4 1-.2 2.4-2.7 3.7-7.2 1.2-3.8 2.7-7.9 3.4-9.2 1.6-3.1.2-2.8-2.7.5-3.1 3.7-1.7.8 2-3.9 1.5-2 3.5-5.5 4.3-7.9.9-2.3 2-4.8 2.7-5.6 1.4-1.7 1.3-8.8-.1-12.3-.7-1.9-.8-.9-.4 4.1.4 4.4.2 6.9-.6 7.3-.7.5-1.1-.4-1.1-2.8 0-1.9-.5-5.9-1.1-8.8-.9-3.9-.9-5.3 0-5.6.6-.2 1.1-1.3 1-2.5 0-2.1-.1-2.1-.8-.2-.7 1.7-.9 1.6-1.4-1-.3-1.7-.4-5.3-.1-8 .4-4.8.3-4.9-.7-1.5-.6 1.9-1.4 5.3-1.8 7.5-1.2 5.7-1.2 1.6-.1-10 .8-7.7.7-10.2-.3-11.1-.6-.7-5-2.1-9.7-3.1l-8.5-2-.3 4c-.2 2.2.1 5.2.7 6.6.5 1.4 1.2 4.6 1.5 7.1.5 3.8.2 3.4-1.5-2.5-1.1-3.9-2.3-8.9-2.6-11.3-.3-2.3-.6-4.2-.7-4.3-.3-.2-32.6-2.4-32.6-2.2"/><path d="M1003.3 251c.3 1.1-.3 5.2-1.4 9.2-1 4-1.9 7.9-1.9 8.6s1.9 2.5 4.3 4c2.3 1.5 5.9 4 8 5.6s4.1 2.6 4.4 2.2c.9-.8-2.1-9.3-6.2-17.6-1.8-3.6-3.8-8.2-4.4-10.3-1.3-3.8-3.8-5.3-2.8-1.7M955.1 260.6c-1.1 1.5-2.1 3.2-2.1 3.8s-2.5 6.1-5.5 12.1c-3.1 6.1-5.4 11.8-5.1 12.7.2 1-.1 1.6-.8 1.5-.6-.1-1 .6-1 1.5.1 1-.3 1.6-.8 1.5-.6-.1-1.4.8-1.9 2-.5 1.4-.5 2.3.1 2.3s1-.7 1-1.6c0-.8.4-1.3.9-1 .9.6 4-.5 14.9-5.6 3.7-1.7 9.6-4.4 13.2-6s7.4-3.8 8.5-4.8 3.1-2.1 4.5-2.5c5.3-1.5 14-5.9 13.3-6.6-.4-.4-4.6-2.1-9.3-3.7s-11-3.9-14-5-7.4-2.3-9.6-2.7c-3.7-.6-4.4-.3-6.3 2.1M1001.5 278.4c1.8 7.6 5.5 18.6 6.3 18.6 1.5 0 3-1.7 5.7-6.5 3.5-6.1 3.4-6 4-5.3 1.1 1.1-9.1 16.2-10.4 15.4-1-.7-22.4 4.4-23.6 5.6-.7.7 2.6 10.3 4.3 12.6 2.6 3.4 6.3 1.6 10.8-5.3 2-3 3.8-5.5 4-5.5.6 0-.9 3.3-2.8 6.5-1.7 2.9-2.5 6.6-1.1 5.2.3-.4 1.3-.1 2.1.5 1.8 1.5 8.5 3.9 9.1 3.2.3-.2.4-2.4.3-4.7l-.1-4.2 1.3 4.2c1.5 4.6 3.3 6.9 5.6 6.8 1.4 0 7.8-11.4 7.9-14.1.1-.7-3.3-3.3-7.5-5.9-4.1-2.6-7.3-4.9-7-5.2s3.3 1.3 6.7 3.6c6.7 4.5 8.5 5.1 7.4 2.3-1.2-2.7-3.5-12.5-3.5-14.7 0-1.7.2-1.7 1-.5.5.8 1 2.9 1 4.6 0 1.8.7 4.5 1.5 6 .8 1.6 1.5 3.7 1.5 4.6 0 2.5.8 2.3 6.3-1.7 6.9-5.1 6.5-6-5-12.9-3.5-2.1-6.3-4.1-6.3-4.5s-2-2-4.5-3.5c-2.5-1.6-4.5-3.2-4.5-3.7 0-.7-10.1-6.9-11.2-6.9-.3 0 0 2.4.7 5.4"/><path d="M997 275.9c0 .7-1.1 3.7-2.5 6.7-2.7 5.9-3.1 8.5-1.4 8.1.7-.1 1.5 1 2 2.5.4 1.8.3 2.8-.3 2.8s-.5.6.2 1.5c1 1.2 1 1.5 0 1.5-.8 0-1.1.3-.7.6.3.3 2.9.1 5.9-.5l5.3-1.1-3.5-11c-3.4-10.4-5-13.9-5-11.1M936.6 303.8c-.5.8 16.4 31.4 18.5 33.7q.9.75.9-.9c0-.9.7-2.4 1.5-3.2.8-.9 1.5-1.3 1.5-1s2.8-2.5 6.1-6.2c3.4-3.7 7.3-7.8 8.7-9.2 2.2-2.3 2.3-2.3 1.3-.3-.6 1.2-1.6 2.5-2.1 2.8-.6.3-1.7 1.9-2.4 3.4l-1.5 2.7 5.2-1.7c2.9-1 6.7-1.8 8.4-1.9 3.6 0 3.6.2 1.3-8.3-.7-2.6-1.6-5-2-5.2-.5-.3-2 .9-3.4 2.7-2.7 3.4-3.7 2.8-1.1-.6 3.5-4.6 1.3-5.1-24-6.1-7.1-.3-13.7-.8-14.7-1.1-.9-.2-1.9-.1-2.2.4M933.1 306.8c-.6 1.2-1.4 4.3-1.8 6.9-.6 4.7-3.2 12.1-3.3 9.5 0-.7.7-4.7 1.6-8.8.8-4.2 1.3-7.8 1.1-8-.7-.7-11.4 4.4-28.1 13.5l-15.9 8.6 10.5 5c5.8 2.8 13.8 6.5 17.7 8.2 8.2 3.7 7.7 4 10.6-7 1-3.7 2-6.5 2.2-6.3s-.1 2.2-.7 4.4-1.3 6-1.6 8.3l-.6 4.2 4.8-.6c16.7-2.2 19.6-2.8 21.4-3.7s1.8-1.2.4-4.8c-2.2-5.3-7.2-14.8-11.1-21-1.8-2.9-3.3-5.6-3.3-6 0-.5-.6-1.7-1.4-2.7-1.3-1.8-1.4-1.8-2.5.3M886.1 338.2c1.2 12.1 1.8 19.1 1.9 22.8 0 2.7.3 3.1 1 1.9 1.1-1.9 6.6-2 6.2-.1-.2 1 .2 1 1.8.2 2.4-1.3 2.7-2.5.4-1.6-.9.3-1.2.2-.9-.5.4-.6 1.4-.8 2.2-.5 1.9.8 21.4-12.6 20.2-13.8-1.3-1.2-31.5-15.6-32.8-15.6-.4 0-.4 3.3 0 7.2M935.7 345.5c-4.8.7-9.1 1.5-9.4 1.9-1.4 1.3 21.9 25.2 23.6 24.2.5-.4 1.3-.1 1.7.5.4.8.3.9-.4.5s-1.2-.3-1.2.2c0 1.6 2.7 2.1 4 .9 1-1 1.2-.7.7 1-.3 1.4.1 2.7 1.1 3.5 1.3 1.1 1.4 1.1.7-.1-.5-.8-.7-3.9-.6-6.9.3-5.7-1.7-15.2-3.4-16.4-1.3-1-1.5-8-.3-9.6 1.3-1.6-4.3-1.5-16.5.3M920 351.1c0 .5-.3.8-.8.5-1.1-.7-19.7 12.9-19.5 14.2.2.6-.4.9-1.2.6s-2.8.7-4.6 2.4l-3.1 2.9 7.9 4.5c19.9 11.5 26.2 14.8 27.9 14.7 1.8 0 1.8-.1-.1-.9-1.8-.7-1.8-.8.8-1.5 2.4-.6 2.7-1.1 2.3-3.4-4.5-23.3-4.9-24.9-6.5-23.3-1.4 1.4-1.6 1.3-2.1-.9-.4-1.5-.1-2.8.8-3.5 1-.7 1.2-2 .7-4.2-.6-3-2.5-4.5-2.5-2.1M889 375.2c0 .7 1 4.7 2.1 8.8s3 11 4.1 15.2c1.1 4.3 2.5 7.8 3 7.8s7.3-1.6 15.1-3.6 14.8-3.7 15.5-3.7c5.1-.2-7.1-8.7-30-21-9.4-5.1-9.8-5.3-9.8-3.5M1017.1 379.9c-1.8 1.2-8.1 24.5-6.9 25.7.2.2 3.5 1 7.4 1.8 3.8.8 7.7 1.8 8.7 2.1 1.5.6 1.7.2 1.3-3.1-1.2-10.4-3.8-17.4-6.3-17.4-.7 0-1.3-.7-1.3-1.6s-.5-1.3-1.2-.9-.4-.2.7-1.2c3.2-2.8 1.1-7.5-2.4-5.4M964.8 385.6c1 1.7 20 19.2 22.2 20.4 2.3 1.2 2.6.4 2.9-8.7l.2-7.3-4.9.1c-2.7.1-5.8-.4-6.8-1-1.5-1-1.6-1.1-.2-.7 1 .3 2 .1 2.3-.3.2-.5-.6-1.1-2-1.3-1.7-.4-2.5-.1-2.5.9 0 .8-.5 1.1-1 .8-.6-.4-.8-1-.5-1.5.6-1-1.5-1.6-7.2-2.3-2.3-.2-3 0-2.5.9M964.3 396.2c3.5 10.1 3.2 9.8 14.5 11.7 3.4.5 5.2.4 5.2-.2 0-1.5-20.7-20.7-22.3-20.7-.3 0 .9 4.1 2.6 9.2M992.6 393.6c-.4.9-.9 4.7-1.2 8.5-.4 5.3-.3 6.9.8 7 4.4.3 10.6-.5 12.7-1.5 2.4-1.3 2.4-1.3-4.7-8.4-5.4-5.5-7.1-6.8-7.6-5.6M1025.1 439.7c-1.2 3.8-2.8 10.8-3.7 15.8-.8 4.9-2 11.4-2.6 14.3-1.3 6 0 13.2 5.3 29 1.6 4.8 2.9 9.6 2.9 10.7.1 1.8.2 1.7 1.1-.4 1.1-2.8 3.2-45.1 2.5-50.1l-.5-3.5 1.1 3.3c.9 2.8 1.5 3.2 3.2 2.7 1.2-.4 5-1.4 8.6-2.2 3.6-.9 6.8-1.8 7.2-2.2.4-.3-3.9-3-9.5-5.9l-10.2-5.2-.6 4.2-.6 4.3-.1-4.1c-.1-2.2-.5-4.4-.9-4.7-.3-.4-.5-3.4-.4-6.7s.1-6-.2-6c-.2 0-1.4 3-2.6 6.7"/><path d="M1075.9 443.4c-.2.2-9.6.7-20.8 1-11.3.4-20.7.8-20.9 1-.5.5 12.2 7.6 13.6 7.6.6 0 2.7.8 4.6 1.7 3.5 1.6 3.7 1.6 8.8-1.2 2.9-1.6 7.2-4.1 9.5-5.7 2.3-1.5 4.6-2.8 5.2-2.8s1.1-.5 1.1-1c0-1.1-.4-1.3-1.1-.6M1032.7 474c-.4 2.5-.7 9.4-.6 15.3 0 9 .3 10.8 1.4 10.3.8-.3 1.7-.1 2 .4s-.3 1.1-1.4 1.5c-1 .3-2.2 1.6-2.5 2.8-.7 2.8-.8 6.7 0 6.7 1.7 0 6-3.1 12.3-8.7l3.6-3.2-3.2-.1c-2.4 0-3.3-.5-3.4-1.8 0-1.4-.2-1.4-.9.3l-.9 2v-2c-.1-1.7-.3-1.7-1.1-.5-.8 1.3-1 1.2-1-.3 0-1 .6-1.7 1.3-1.6 5.2.7 5.2-1.9.3-12.9-2.4-5.3-4.5-10.4-4.8-11.2s-.8.5-1.1 3M513.6 642.7c.5.4 1.1 2.6 1.2 4.8.3 5.3.8 8.1 4 20.9l2.7 10.8 4.4-.5c2.5-.3 4.7-1 4.9-1.6s1-1.1 1.8-1.1 1.4-.8 1.4-1.9c0-1 .7-2.4 1.5-3.1s1.5-1.7 1.5-2.2c0-.9 1.2-2.5 4.1-5.6.9-.9 2.2-2.7 2.8-4 .6-1.2 1.9-2.2 2.8-2.2 1.3 0 1.2-.5-.8-2.7-1.3-1.4-1.8-2.3-1.1-1.9.6.4 1.2.2 1.2-.3 0-.6-.7-1.1-1.5-1.1-.9 0-4.8-1.1-8.8-2.5-3.9-1.4-9.9-3.2-13.2-4.1-3.3-.8-6.9-1.7-8-2s-1.5-.2-.9.3M602 672c-3 .4-7.7 1.1-10.5 1.4-2.7.4-6.7.9-8.9 1.2l-3.9.6 6.9 3c3.8 1.6 9.6 3.8 12.9 5 3.3 1.1 7.4 2.6 9 3.3 7.6 3.3 17.6 6.8 18 6.4.2-.3-1.1-2.8-2.9-5.5-1.9-2.8-4.7-7.5-6.3-10.5-3.2-6-4.1-6.4-14.3-4.9"/></svg>