<svg xmlns="http://www.w3.org/2000/svg" width="1706.667" height="960" viewBox="0 0 1280 720"><path d="M0 360v360h131.3c75.1 0 130.6-.4 129.8-.9-1.6-1-.6-3.1 1.5-3.1 1.3 0 1.8 1.2 1.5 3.3 0 .4 53.3.7 118.6.7h118.6l-.6-15.4c-.4-8.4-1.3-18.6-2.1-22.7s-2.7-13.7-4.2-21.4c-3.5-18.2-3.7-18.9-6.6-17.5l-2.3 1.1 2.1-1.8c1.1-1 1.9-2.4 1.6-3.1-.2-.6.3-1.9 1.2-2.7.8-.9 2-3.5 2.6-5.8 1.5-5.6 1.8-6.5 1.9-4.6.1.9-.6 3.8-1.4 6.5s-1.5 5.2-1.5 5.5c0 1 7.5 3.6 21.4 7.4 7.1 1.9 13.1 3.5 13.3 3.5s.3-.9.3-2.1c0-1.5.5-2 2.3-1.7 2.2.3 2.2 0 4.3-20.2 1.1-11.3 1.8-21.1 1.6-21.7-.2-.7-1.8-1.3-3.6-1.4-1.7-.1-4.2-.5-5.6-.9-1.7-.6-1-.7 2.3-.3 2.6.3 4.7.3 4.7-.1 0-.3-2.2-4-5-8.2-7.2-11-6.2-11.5 1.3-.6 3.4 5 6.7 9 7.2 8.8.9-.2 4.8-6.7 14.6-24.3 1.6-2.9 2.9-5.8 2.9-6.5s.7-2.2 1.5-3.2c1.4-1.9 1.5-1.9 1.5.6 0 1.5-.6 3.3-1.2 4-.7.7-2 2.6-2.8 4.3-.8 1.6-4.5 8.3-8.3 14.9-3.7 6.5-6.6 12-6.4 12.3.2.2 2.1 1.2 4.3 2.3 2.3 1.1 3.1 1.9 2.1 2-1 0-2.9-.7-4.2-1.6-1.4-.9-2.5-1.5-2.6-1.3 0 .2-.3 1.3-.5 2.4-1 4.3-3.4 32.3-3.2 37.3.1 4.6.5 5.4 2.9 6.6 1.6.8 2.9 1 3.1.5.2-.6 1.3-1.1 2.4-1.1 2-.2 2.1-.7 1.7-5.8-.3-3-1.1-8-1.9-11.1s-1.4-7-1.3-8.5l.1-2.9.8 3c.4 1.6 2 8.4 3.6 15 2.9 12.1 3.5 13.6 6.6 14.8 1.2.4 1.5.2 1.1-.9-.3-.7-.1-1.4.5-1.4 1.3 0 3.5 2.7 2.9 3.7-.2.4-.1 1.7.4 2.8.6 1.6.8 1.4.8-1.3.1-1.9.5-3.1 1.1-2.7 1.8 1.1 1.1-.7-1-2.5-1.7-1.5-1.8-1.9-.5-2.4.8-.3 1.5-.1 1.5.4 0 2.3 2.9-.5 3.6-3.3.3-1.7 1-3.8 1.4-4.7 2.2-4.2 7.6-21 7.1-21.7-.3-.5-5.5-3.3-11.4-6.2-6-2.9-10.6-5.5-10.4-5.8.3-.2 1.3 0 2.4.5 1 .5 2.9 1.4 4.3 2s5.2 2.2 8.4 3.6c3.2 1.5 6.1 2.4 6.4 2.2.2-.3-.2-2.2-1-4.3-.9-2.1-1.8-5.6-2.2-7.8l-.6-4 1.4 3.5c.8 1.9 2 5.7 2.8 8.4l1.5 5 2.4-2.9c3.5-4.2 12.9-14.8 14.7-16.5.9-.8 0 .5-1.9 3-1.8 2.5-4 5.2-4.9 6s-3 3.4-4.8 5.7c-2.8 3.5-3.2 4.7-2.7 8.2.5 4 15.9 44.4 17.9 47 .5.7 1.1 1.8 1.2 2.5.4 3.1 12.5 22.5 16.7 26.9 2.6 2.7 4.6 5.1 4.4 5.3s-1.6-1-3.2-2.6c-1.6-1.7-3.4-3-4.1-3s-1.4-.4-1.6-.9c-.5-1.4-36.6-13.3-37.9-12.5-.7.4-.9.3-.6-.2.3-.6-1.5-1.4-3.9-2-2.5-.6-4.7-.7-5-.2-.3.4 0 .8.5.8.6 0 1.1.6 1.1 1.3 0 1.3 10.9 23.4 15.8 31.9l2.7 4.8h5.7c3.7 0 8.1-.9 12.4-2.5 8.2-3.1 9.5-3.1 2.9 0l-5 2.4h55.2l55.1.1 2.2-2.8c1.5-1.9 1.8-2.1 1.1-.5-.6 1.2-1.1 2.4-1.1 2.7s13.8.6 30.7.6h30.6l-1.9-2.2-1.9-2.2 2.9 2.2c1.8 1.4 4.3 2.2 6.7 2.2h3.9l-3.6-6.5c-2-3.6-3.4-6.5-3.1-6.5s2.4 2.9 4.6 6.5l4.1 6.5h499V0H0zM488.7 80.2c-1.7 1-.8 1.5 8.9 5.4 4.9 1.9 10.9 4.4 13.4 5.4 6.5 2.7 29.9 12 30.4 12 .2 0 .7-1 1.1-2.3.8-2.1.8-2.1 1.2.5l.4 2.8 17.7.2 17.7.2-15.5.3c-8.5.2-15.8.7-16.3 1.2s1 2 3.5 3.4c2.3 1.3 13.8 7.7 25.3 14.2 11.6 6.5 29.2 16.7 39.3 22.7s18.5 10.8 18.8 10.6c.2-.3-1-2.6-2.6-5.2-4.4-6.8-3.7-7 1.1-.3l4.2 5.9 4.6-.5 4.6-.5-3.7 1.1c-3.6 1-3.8 1.3-3.9 5.1l-.1 4.1-1.4-3.3c-.8-1.7-1.8-3.2-2.4-3.2-.5 0-5.1 1.8-10.2 3.9s-12.1 5-15.5 6.2c-3.5 1.3-6.3 2.9-6.3 3.5 0 1.5 13.6 13.5 21.8 19.2 2.6 1.9 3.6 2.1 4.8 1.2 1-.9 1.4-.9 1.4-.1 0 .6-.6 1.1-1.2 1.1-.7.1.9 2.1 3.7 4.5 2.7 2.5 4.6 4.5 4.1 4.5-.8 0-9.3-6.5-10.6-8-.3-.4-4.1-3.3-8.5-6.5-4.4-3.3-9.8-7.5-11.9-9.4-3.6-3.1-4-3.2-4.6-1.5-.8 2.1-.8 2.5-1.9 39.9-.4 14.8-.5 28.3-.1 30 .4 2.2 1.7 3.6 5.1 5.5 7.9 4.4 11 7.4 3.5 3.4l-6.9-3.6.7 2.5c.3 1.4.9 3.3 1.2 4.4.3 1-.3.4-1.5-1.2-1.1-1.7-2.1-3.5-2.1-4.1s-.6-1.7-1.4-2.3c-1.1-.9-2.4-.1-6.2 4-2.7 2.9-5.6 5.9-6.5 6.8-1.8 1.9-20.1 22.5-27.8 31.4-2.9 3.4-7.6 8.6-10.4 11.6l-5.1 5.3 3.3-.7c1.8-.4 6.7-2.2 10.8-4.1 4.2-1.9 7.7-3.3 7.9-3.1.5.4-4.9 3.2-13.8 7-4.3 1.9-7.5 3.7-7.1 4 .3.4-.6.7-2.1.7s-3.9.8-5.4 1.7c-2.7 1.7-2.7 1.7-.9-.3 1.7-2.1 2.3-3.9.9-3-.4.2-3.7-.2-7.2-.9-16.3-3.4-62.3-10.6-63-9.8-.7.7 3.3 6 19.3 25.7 7.1 8.7 10 11.6 11.5 11.6 1.1 0 1.3.3.5 1.1-1.1 1.1-8.4-5.9-15.5-14.8-15.7-19.8-18.4-22.7-20.5-21.9-.7.3-1.3 0-1.3-.7 0-2.8-16.2-5.1-45.6-6.3l-15.5-.7.9 2.4c1.2 3.1 3.6 18.8 3 19.4-.3.3-1.2-4.1-2.1-9.7-1-5.6-2.1-10.6-2.6-11.1s-6.4 1.3-13.7 4.1c-7.1 2.8-14.7 5.6-16.9 6.2-2.2.7-5.1 1.9-6.5 2.6-1.4.8-8.1 3.4-15 6-13.8 5-30.2 11.5-36.7 14.5-4.3 1.9-4.5 2.3-5.7 9.9-.3 1.9-1.8 9.8-3.4 17.5s-2.8 14.1-2.7 14.3c.2.2 2-.7 4.1-1.9 2.2-1.2 8.2-4.5 13.4-7.4 20.4-11.1 30-16.8 29.5-17.5-.3-.5.3-.6 1.2-.4 1.2.3 3.5-1.2 6.6-4.4 4.8-4.9 4.9-5 3.4-7.8-1.4-2.6-1.3-3.2.3-6.5 2.7-5.2 4.2-6.2 7.6-4.9 1.6.6 3.2 1.6 3.6 2.3.5.8 1.5.6 3.5-.9 5.3-3.8 5.8-3.8 2.3.2-1.9 2.1-4.9 6-6.5 8.6-2.2 3.5-3.6 4.7-5.5 4.8-2.1 0-10 6.3-10 8 0 .3 10.7-1.8 23.8-4.7 13-2.9 24.4-5.2 25.2-5 .8.1-3.2 1.3-9 2.6-5.8 1.2-16.7 3.8-24.4 5.7-7.6 1.9-14 3.4-14.2 3.4-1.6 0 1.1 3.3 10.7 13.4 6.1 6.4 12.8 13.5 14.8 15.8 9 10.4 18.5 20.4 20.4 21.5 1.2.7 3.3 1.3 4.7 1.3 2.2.1 2.1.3-1 1.5-3.1 1.1-3.7 1-5.6-.6-1.1-1.1-2.6-1.9-3.3-1.9-1.7 0-70.9-15.1-84.9-18.5-5.7-1.4-10.7-2.3-11.1-2-.8.4-1.8 4.1-6.7 25.2-2.3 10.1-2.3 10.1 4.4 10.6l5.7.3-6.2.2c-5.6.2-6.3.4-6.3 2.2 0 1.1-.5 2-1.1 2s-.8-.9-.4-2c.5-1.6 0-2.3-2.7-3.5l-3.3-1.6 3.2.6c2.9.6 3.3.4 3.8-2.2.3-1.5 1.3-5.7 2.1-9.3 2.6-10.1 4.3-18.3 4.4-20.2 0-1.2-4.4 1.3-15.2 8.4-8.4 5.5-15.8 10.6-16.4 11.4s-1.9 1.4-2.8 1.4-1.6.5-1.6 1.1c0 .7 1.1.9 3.1.5 2.7-.5 2.8-.4 1.5.9s-3.3 1.4-8.8.6c-.5 0-.8-.8-.8-1.6 0-.9-1.9-4.3-4.2-7.5-4-5.8-6.8-7.6-6.8-4.6 0 2.3-1.6 2.7-1.7.4-.3-2.9-1-3.3-4-2.2-4.1 1.4-6.2 9.4-4.9 18.9.2 1.6.4 3.1.5 3.3.1.1.9-.1 1.9-.6.9-.5 3.1-1.2 4.7-1.6l3-.6-3 1.7c-1.6.9-3.5 1.6-4.1 1.5-2.9-.6-3.6 2.6-2.6 10.6.6 4.3 1.4 8.7 1.8 9.7.7 1.8.6 1.8-.9.6-1-.8-2.1-1.1-2.4-.7-.4.4-.3 1 .3 1.4s1.6 2.9 2.4 5.5c.7 2.6 2 5.3 2.9 6s3.6 3.5 6.1 6.2c4.5 4.9 4.5 4.9.8 2.2-2-1.5-4-2.7-4.5-2.7-.4 0-1.6-1.4-2.5-3-2-3.6-4.3-4.1-3.1-.8.4 1.3.7 5.3.5 8.9-.2 6.8.5 10 5.7 23.4 1.7 4.4 2.7 8.3 2.3 8.6-.4.4-2.3-3.9-4.2-9.7-1.9-5.7-3.7-10.4-4.1-10.4-.3 0-.5 2.6-.3 5.7.2 3.2-.1 9.4-.6 13.9-1.1 9-.1 14 5.1 24.7 1.6 3.3 2.9 6.5 2.9 7.1 0 2.1-1.8-1.1-5-9.2-1.9-4.5-3.8-8.2-4.3-8.2-.7 0-.7-6.2-.2-17.3 1-22.1.9-30.6-.3-33.7-.5-1.4-.7-3-.4-3.5.3-.6-.2-.4-1.1.4-.9.7-1.7 2-1.7 2.8 0 2-4.1 9.3-5.2 9.3-.5 0-.1-1.1.7-2.4 1.9-2.8 3.6-8.6 2.7-8.6-.4 0-1.6.6-2.7 1.3-2.6 1.8-5.7 2.9-5.1 1.8.3-.5 1.9-1.4 3.6-2.1 1.6-.7 3-1.6 3-2s-6.8-1.5-15.1-2.5c-12.8-1.5-15.2-1.6-15.9-.4-.7 1.1-1 1-1.5-.3-.4-.9.4-4 1.7-6.9 5.2-11.9 17.7-36.7 18.7-37.3.5-.4.7-1.4.4-2.3-.5-1.2-.3-1.4.7-.8.9.6 1.2.4.8-.6-.6-1.7.5-5.1 1.6-4.9.9.2 2.6-1.9 2.6-3.3 0-.5-.5-.5-1-.2-.6.4-.5-.5.2-2 .7-1.6 1.4-2.1 1.8-1.4.5.6.9.3 1.3-1 .3-1.2.1-1.9-.4-1.5-1 .6-.4-1.2 2.3-7.5 2-4.4 2-8.3.2-19.9-.3-2.3-.3-5 .1-6 1.9-4.5 1.3-9.4-2.5-21.4-6-18.9-6.5-23.3-4-35.6 1.1-5.7 2.3-12.9 2.6-16 .4-3.1 1.1-6.4 1.6-7.2.6-1 .7-.4.3 1.7-.4 1.8-.4 3.3-.2 3.3.7 0 3.4-9.3 5.3-18.5.9-4.4 2.2-9.8 3-12 .8-2.3 1.4-5.4 1.5-7 0-1.7.7-4.6 1.4-6.5l1.4-3.5-.6 4.5c-1.1 8.6-4.9 25.3-6.4 28.1-.5 1.1-.8 2.5-.6 3.2s1.1-.5 2-2.6c.9-2 1.8-3.7 2-3.7.8 0-3.7 11.5-4.5 11.8-.9.4-1.1 3.2-.2 3.2.3 0 1.5-.5 2.7-1.1 2.1-1 2.1-1 .3.5-1.1.9-2.3 1.6-2.8 1.6-3.4 0 2.3 6 15.7 16.5 7.9 6.2 15.5 12.8 15.1 13.3-.5.4-12.5-9-17.5-13.7-1.5-1.3-4.2-3.5-6.1-5-1.9-1.4-4.4-3.4-5.4-4.3-1.9-1.8-4.1-1.5-3 .4.4.5 1 3.5 1.4 6.6.4 3.2 1.3 9.2 2 13.5l1.3 7.8 4.6-.6c2.5-.3 7.5-.8 11.1-1l6.5-.4-7.5 1.4c-4.1.7-9 1.4-10.7 1.4-2.4.1-3.3.6-3.3 1.8-.1 1.7-.1 1.7-1.4 0-.7-.9-1.9-1.7-2.7-1.7-1-.1-.8-.4.4-1.1 1.9-1.1 1.9-1.1-.9-15.9-2.1-11.3-2.4-12.1-3.4-11.5-.6.3-1 2.1-1 3.8 0 1.8-.9 6.1-2 9.5-2.6 8.4-2.5 9.9.8 11.6 1.5.8 2.3 1.5 1.9 1.6-.5 0-1.7-.5-2.8-1-1.6-.9-1.9-.7-1.9 1.4 0 1.4.6 4.5 1.4 6.8.8 2.4 1.7 5.9 2 7.9.4 2.1 1.3 4.2 2.1 4.9.7.6 1.1 1.9.8 2.7q-.6 1.65.6.9c.7-.5 1-.2.9.6-.2.7.7 1.4 2 1.6 1.2.2 2.2.9 2.2 1.5 0 1.5 12.8 7.8 13.5 6.7.3-.5-1.7-5.3-4.5-10.6-6.1-12-4.5-10.7 3.2 2.4 3.1 5.3 6.1 9.6 6.7 9.5.6-.2.8.3.5 1.1-.8 2 1.5 3.2 9.2 5 3.9.8 7.9 1.9 8.9 2.2 1.5.6 1.6.1 1.1-4.2l-.6-4.9 1.5 3.9c.8 2.2 1.7 4.1 1.9 4.4.3.3 30.3-14 32.5-15.5 1.2-.8-6.8-6.2-29.4-19.5-2.7-1.7-6.5-3.9-8.3-5l-3.3-2 .6 4.4.6 4.3-1.8-5c-1.7-4.7-2.1-5-5.8-5.6-2.2-.3-3-.7-1.7-.8 4.3-.2 6-2.1 5.2-5.6-.4-1.8-1-3.7-1.3-4.2s-1.1-3.6-1.6-6.9c-.9-5.4-3.3-17.4-4.7-23.4-.3-1.4-.3-2.2.1-1.9.6.6 3.5 12.9 6.5 27.6.7 3.5 1.6 6.3 2 6.3s1.3-7.8 2.1-17.3c.7-9.4 1.5-16.1 1.7-14.8.4 2.7-1.5 28.8-2.5 33.6l-.6 3 2.2-2 2.2-1.9-1 2.8c-.6 1.5-1.1 3.4-1.1 4.1 0 2.3 39.7 27.5 43.2 27.5.9 0 7.6-2.3 15-5.1 7.3-2.7 18.3-6.8 24.3-9 6.1-2.2 12.9-4.9 15.1-5.9 2.3-1 7.7-3.1 12-4.5 4.4-1.5 9.3-3.3 10.9-4 1.7-.7 5.3-2.1 8-3.1 7.5-2.6 8-3.3 4.6-5.8-6.4-4.7-19.9-15.4-26.1-20.6-3.6-3.1-17.5-14.6-31-25.7-13.5-11-25.7-21.1-27.1-22.4-7.1-6.6-6.4-12.3-6.4 49.4l.1 55.2-.3-52.8c-.2-29-.7-52.7-1.1-52.7s-1.3.5-2 1c-.9.7-.9.7-.2-.2.6-.7 1-2.4 1-3.8v-2.7l-15.7 2.5c-19.1 3-20.3 3.4-20.3 6.6 0 1.3-.6 2.6-1.4 2.9s-2.4 2.5-3.5 4.9c-3 6.1-8.7 16-10.2 17.7-.7.8-1.3 3-1.2 5 0 2-.1 2.6-.4 1.3-.2-1.2-.9-2.2-1.4-2.2s-.9-.7-.9-1.5-1.4-3.8-3.1-6.7-3.5-6.3-4-7.6c-1.4-3.8-3.2-2.1-5.9 5.5-1.4 3.9-2.9 7.5-3.4 8-.5.4-.7.2-.4-.7.3-.8 1.5-4.9 2.8-9 1.2-4.1 2.8-8.9 3.5-10.5 1.2-2.9 2.2-12.5 3-30.9.5-9.6 1.8-13.3 9.6-26.1 2-3.3 5.3-9 7.3-12.8 2-3.7 3.9-6.7 4.2-6.7.4 0-5.9 12.3-11.5 22.2-1.8 3.2-3 6.2-2.7 6.7s-.1 1.4-.9 2.1c-2.1 1.7-2 2.3 1.9 8.3 4 6.3 6.7 8.8 7.4 6.9.2-.7.9-1.8 1.5-2.5.7-.6 3.2-3.8 5.6-7 2.4-3.1 4.5-5.7 4.8-5.7.5 0-4.6 7.4-8.7 12.5-2 2.5-3 4.7-2.7 6.1.2 1.3-.1 2-.7 1.8-1.1-.4-1.9-1.6-7.9-11.7-1.6-2.7-3-4.7-3.2-4.5-.3.3-.9 4.3-2.1 14.8-.3 3-.8 6.6-1 8s-.7 5.4-1 9c-.7 7.6-.3 7.3 5.7-4.4 2.2-4.3 4.7-8.8 5.5-10 2.2-2.9 1.7-1.9-4.9 11.3-3.1 6.3-5.5 11.6-5.3 11.9.2.2 1.3-.1 2.4-.7 1.2-.6 2.4-1.1 2.9-1.1.4.1-.4.8-2 1.6-1.5.8-3.1 1.2-3.6 1-2.6-1.6-1.3 2.9 2.8 9.6 4.3 7.2 7.1 9.7 7.1 6.4 0-.8.4-1.6.8-1.8 2.8-1.1 14.1-22 12.3-22.6-.9-.3-.9-.7 0-1.8s.7-2-.6-4.1l-1.8-2.8 2.7 2.4c1.4 1.4 2.6 2 2.6 1.5 0-.6.7-1.9 1.6-3 1.5-1.8 1.5-1.8.9.8-.5 2.5-.2 2.8 2 2.8 1.3 0 5.7-.7 9.7-1.5s10.5-2.1 14.3-2.7c5.1-1 7-1.7 6.9-2.8-.2-1.6-1.9-10.6-6-32.3-1.3-7-2.4-13.9-2.4-15.5-.1-2.6-2.8-9.8-2.9-7.6-.1.5-.8 1.9-1.6 3-1.4 1.8-1.4 1.8-.8-.4.9-3.5 1.8-4-20.7 11.8-3 2.1-5.7 3.7-5.9 3.4-.3-.2.4-1.1 1.5-1.9 4-3.1 16.5-11.5 17-11.5.4 0 2.2-1.4 4.1-3 1.8-1.7 3.8-3 4.3-3 .6 0 1-.8 1-1.9 0-1 .9-2.1 1.9-2.4 1.1-.3 2.2-1.7 2.6-3.6.3-1.7 1.1-3.3 1.6-3.6.5-.4.4.6-.1 2.1-.6 1.5-.9 2.8-.7 3s7.1-6.4 15.5-14.5c8.3-8.2 17.2-16.6 19.7-18.7 2.7-2.1 4.4-4.3 4.1-5.1-.3-.7 0-1.3.6-1.3 1.4 0 11.6-6.9 16.5-11.1 1.7-1.5 5.3-4.1 8-5.9l4.8-3.2-3.5 3.1c-1.9 1.7-7.4 6.1-12.2 9.8s-8.6 6.8-8.5 7c.2.1 3.6-.6 7.7-1.6 7.1-1.8 33.6-7.8 54-12.3 5.2-1.1 10.6-2.5 11.9-3l2.4-.9-3.4-3.7c-7.4-8-8-9.4-1.4-3.1l7 6.6 11-2.2c6.1-1.3 19.3-3.9 29.5-5.9 21.5-4.3 22.3-4.5 19.6-5.5-1.1-.4 1.1-.7 5.1-.7 3.9.1 6.6.4 6 .8m419.6 19.5c2.3.3 4.4.9 4.7 1.3.5.7 5.1 2.9 38 18.5 8 3.8 19.6 9.5 25.8 12.6 6.1 3.2 11.2 5.5 11.2 5.1 0-.3-.8-1.5-1.7-2.6-1-1.2.2-.3 2.7 1.9 4 3.5 5.9 4.3 16.3 6.9 6.5 1.5 11.6 3 11.4 3.3-.4.4-9.2-1.5-18-3.8-2.2-.6-4.1-.8-4.4-.6-.5.6 3.2 8.1 15.2 30.2 5 9.3 10.9 20.1 13 24 2 3.8 5.3 9.8 7.2 13.3s3.3 6.6 3 6.8c-.5.5-8.4-13.3-19.7-34.6-4-7.4-8.8-16.4-10.7-20-4.2-8-6.1-10.1-3.5-4 1.1 2.5 7.5 21.3 14.2 41.8s12.6 37.2 13.1 37.2 2.7-2.8 4.9-6.3c3.1-4.7 4-6.8 3.5-8.7-.4-1.4-.6-5-.5-8.2.1-3.1-.8-9.4-1.8-14-1.1-4.5-2.3-11.9-2.6-16.3l-.6-8 1.5 7.5c3.8 19.3 4.5 23.9 4.5 28.6 0 2.8.7 6.9 1.6 9 1.7 4.1 13.5 21.7 14.1 21 .5-.5-1.8-10.9-2.7-12.1-1.1-1.5-3.5-9.4-9.1-29.5-2.8-10.2-6.1-21.7-7.4-25.5-2.4-6.9-2.4-6.9-2.5-3-.2 3.1-.5 2.3-1.6-4-2.4-13.7-3.5-18.5-4.2-18.6-2.4-.2-4.5-.8-5-1.4-.4-.4.8-.5 2.7-.3 3.1.3 3.6.8 5.4 5.3 1 2.7 2.3 5.7 2.7 6.6.5.9 1.2 3.4 1.5 5.5.4 2.2 1.7 7.5 3.1 11.9 3.7 12.4 9 31.1 11.5 40.5 2 7.9 3.6 11.6 4.6 10.6.2-.2-.6-5-1.7-10.6-1.2-5.7-1.9-11-1.8-11.9.7-3 5.1 20.4 5.4 28.4.2 4.4.8 10 1.3 12.5 1 4.6 3.2 27.6 3 32 0 2.3-.1 2.3-.9.5-.5-1.1-.9-5.5-.9-9.8-.1-4.3-.5-7.6-1-7.3-.9.6-2.7 10.8-2.4 13.6.1.8-.4 4-1.2 7-.7 3-2.1 10.7-3 17-.8 6.3-2.1 12.8-2.7 14.3-.9 2.2-.8 3.1.1 3.7 1 .6.9 1.4-.4 3.9-1.9 3.8-1.7 8.5.5 8.9 1.6.2 5-4.8 5-7.6.1-1.9 7.9-17.3 8-15.7 0 .6-1.3 4.2-3 8-4.8 11.4-4.1 12 4.3 4.1l5.7-5.5v-9.5c0-5.3-.4-9.6-.9-9.6-1.2 0-2.7 2-3.7 5.1-.9 2.7-13.2 16.5-14 15.7-.2-.3 1.9-2.9 4.7-5.9 7.8-8.4 7.6-7.6 7.5-33.2-.1-20 0-22.1 1.1-17.5 1.7 7.1 3.2 13.8 3.7 16.8.3 1.4 1 4.5 1.6 6.9s1.1 10.5 1.2 18c.1 13 0 14-2.2 16.9-1.3 1.8-2.9 3.2-3.5 3.2-1.4 0-8.9 8-9.3 9.8-.3 1.5 1.4 1.6 2.3.2.4-.6 1.4-.9 2.3-.8.9.2 3.2-1.8 5.5-5 5.4-7.1 6.1-5.7.9 1.9-2.3 3.3-4.2 6.5-4.2 7 0 1.8 3.8-1 4.6-3.3.4-1.3 1.3-3.2 2.1-4.3 1.2-1.8 1.3-1.7.7 1.5-.8 4.8-3.2 10.9-5.4 14.1-1.1 1.4-1.7 2.8-1.5 3.1.3.3 1 3 1.5 6 .9 4.8.8 6.2-1 10.2-1.1 2.6-2.4 4.4-3 4.1-1.1-.7-1.2-.1-1 11.4.1 9.3.1 9.2 19.1 47.6 4.9 9.9 8.9 18.3 8.9 18.6 0 .4-1 .4-2.3.2-3.2-.6-7.7 1.3-7.7 3.4 0 1.4-.2 1.5-.9.4-.9-1.3-5.8 1.1-20.5 10l-3 1.8 2.5.9c1.9.8 1 1-4.2 1-5.9 0-16.5 1.5-21.1 2.8-1 .3-1.8.1-1.8-.4s3.3-1.5 7.3-2.2c3.9-.7 7.8-1.6 8.5-1.9.9-.5-2.7-2.8-9.7-6.5-6.1-3.1-11.1-5.4-11.1-5s.8 1.7 1.7 2.8c1 1.2.3.8-1.4-.8-2-1.8-2.9-3.4-2.4-4 .4-.6.5-3.8.1-7.1s-.8-5.2-1-4.3c-.3 2.2-.3 2.3-1.8 7.3-3.3 11.2-8.2 33-8.2 36.3 0 2 .6 5.4 1.4 7.7.8 2.2 2.5 7.4 3.7 11.5 2.2 7.3 5.7 16 6 15 .4-1.4.9-5.4 1.4-13 .3-4.7 1-14.1 1.5-21 .8-10.1.6-13.8-.6-18.9-.8-3.5-1.3-6.6-1-6.8.2-.2 1 2.2 1.8 5.4 1.3 5.4 1.6 5.8 6.5 8.3 6.5 3.2 7.6 4.2 2.6 2.5-2.1-.8-4.3-1.4-5-1.5-1.1 0 2.9 9.3 8.5 19.5l2.2 4-.4-10.2c-.4-8.2-.2-10.2 1-10.7 1.5-.6 2 .9.6 1.8-.9.5 1.1 16.2 2.2 17.3.3.3.7-.7.7-2.3.5-8.9.7-10.6 1.8-11.7.8-.8 1.1 0 1.1 3.1 0 2.3.4 4.2.8 4.2.5 0 1.7 3.9 2.6 8.7 1 4.9 2.4 10.7 3.1 13 1.7 5.3.5 6.2-3.8 2.9-4-3.1-5.4-3.2-8.1-.7-1.2 1-5.9 4.4-10.6 7.6-6.5 4.4-9.5 5.9-12.5 6-2.2.1-2.7 0-1.2-.2 1.8-.3 2.7-1 2.5-1.9-.5-2.1-14.9-16.4-16-15.8-1.2.8-14.8 19.2-14.8 20 0 .4 3.7.4 8.3.1 4.5-.3 6.4-.2 4.2.2-3.6.7-3.7.8-1.5 1.4 8.2 2 40 3.4 40 1.8 0-.7.4-.9 1-.6.5.3 2.7-1.3 5-3.6 2.2-2.3 4-3.7 4-3.1s-.4 1.4-1 1.7c-.5.3-1 1.1-1 1.6 0 .6.3.8.8.5.4-.2.8 1.4.8 3.6.1 3-.1 3.7-.8 2.5-1.1-2.1-2.7-2.2-4.3-.1-1.5 2.1 1.2 15.4 3.2 15.4 1.8 0 1.6-3.1-.6-9.5-1.1-3-1.6-5.5-1.3-5.5 1 0 4.2 9.3 4.2 12.2 0 1.4-1.2 3.6-2.8 5.1l-2.9 2.7.5-2.8c.4-2.7-2-12.3-3.7-15-.7-1.2-1-1.2-1.9 0-.7.7-2.3 2.6-3.8 4.3l-2.6 3 2.1-3.2c1.2-1.7 2.1-3.6 2.1-4.2 0-1.1-.4-1.2-5-1.5-1.4-.1-3.1-.5-3.7-.9-2.6-1.7-.2 8 2.6 10.3.3.3.6 1.1.6 1.9 0 .9 2.6 2.3 6.5 3.7 3.6 1.2 6 2.3 5.4 2.3-.6.1-3.1-.6-5.4-1.4-7.9-2.8-8.7-2.4-14.9 7.3-1.8 2.8-3.5 5.2-3.8 5.2-.5 0-.4-.1 4.9-8.5l3.8-6-2.7-.7c-1.5-.4-4.8-.9-7.2-1-4.4-.3-4.5-.2-5.8 3.7l-1.3 4 .6-4.3c.6-4.2.5-4.3-1.5-3.2-1.2.6-4.5 3-7.4 5.4-4.7 3.8-12 8.9-10.7 7.4 1.1-1.2 14.9-12.5 17.1-13.9 2.3-1.6 2.1-1.7-9.1-8.4-6.3-3.8-12.3-6.8-13.2-6.7-1.3 0-1.6-.8-1.6-4.1.1-2.3.3-3.4.6-2.4.2 1 .9 1.6 1.5 1.4 2-.6 14.7-18.1 14.7-20.1 0-1.1-.3-1.7-.6-1.4-.6.7-16.3-7.8-18.4-9.9-.8-.9 1.5 0 5.1 2 9.7 5.2 11.3 6.1 11.9 6.9.8 1 2.5-.4 3.3-2.4.4-1.2.2-1.8-.7-1.8-1.5 0-3.9-5.7-3-7.1.4-.7-.5-6.1-2.1-12.9-.1-.3-.5-2.4-.9-4.8-.4-2.3-1.1-4.2-1.5-4.2s-3.3 3.2-6.6 7.1c-3.3 4-7 8.1-8.2 9.2-2.8 2.5-2.9 4.2-.5 5.7 1.3.8 1.1.9-1.3.4-3.8-.9-4.9-2.6-2.6-3.9 2.4-1.3 14.9-16.3 16.4-19.5.6-1.4 2.1-3.4 3.2-4.5s3.7-4.5 5.6-7.5c10.1-15.6 12.8-20 15.4-25 1.6-3 3.7-6.6 4.7-7.9 3.9-5.2 2-6.3-14.3-8.6-4.6-.7-4.7-.6-5.3 2.3-.4 1.6-.6 3.3-.5 3.8.2.5-.2 4.5-.7 8.9l-.9 8-.5-9-.5-9-4.4 7.5c-2.4 4-5 8.5-5.7 9.9-.7 1.3-2.8 3-4.6 3.8l-3.3 1.3 2.9-2.4c1.8-1.5 2.7-3 2.3-4s-.1-1.3.8-1c.9.4 2.7-1.9 5.5-6.9 2.2-4.2 4.7-8.1 5.5-8.7 2.6-2.2 1.8-4.3-1.2-3.7-1.6.3-5.7.9-9.1 1.3-3.9.4-6.6 1.2-6.9 2-.4 1.2-.9 1.2-3.2 0s-7.4-2.4-19.6-4.6c-2.2-.4-9.6-2.2-16.5-4-8.4-2.3-14.8-3.4-19.4-3.4-6.3 0-7.1.2-9.1 2.8-1.4 1.8-2.5 2.4-2.9 1.7-.4-.6-.2-1.1.3-1.1.6 0 1.1-.4 1.1-.8s-1.7-.7-3.7-.5c-3.6.2-3.5.2 1.2-1.2 2.8-.8 6-1.5 7.3-1.5 4.9 0 2.9-1.8-14.3-12.3-5.2-3.2-25.6-14.7-26-14.7-.2 0 .3 2.4 1.1 5.2 2.1 7.9 1.5 9.2-.7 1.8-1.2-3.6-2.3-7.1-2.5-7.9s-1.1-1-2.1-.7c-2.8 1.1-20.5 4.8-20.9 4.4-.2-.3 4.1-1.5 9.6-2.8 5.6-1.2 10.2-2.6 10.4-2.9.5-.7-43.8-27.4-46.3-27.9-.9-.2-2-.8-2.6-1.3-.5-.5-1.8-.9-3-1-1.8 0-1.8-.1-.2-.7 1.5-.6.8-1.6-3.9-6.2-3-3-7.4-7.8-9.7-10.5-2.2-2.8.9-.2 6.9 5.8l11 10.7 4.9-.6 5-.7-2.3 2.1-2.3 2.1 2.3 1.4c1.3.8 5 3 8.3 4.9s9.6 5.7 14 8.4c4.4 2.8 10.6 6.5 13.9 8.3l5.8 3.4-.6-9.9c-.3-5.5-.9-14.3-1.2-19.7l-.7-9.8-3.1.6c-2.8.5-2.9.4-.7-.5 1.3-.6 2.2-1.2 2-1.5-.5-.4-16.1-6.2-37.7-14-7.3-2.6-13.1-5-12.8-5.2.4-.4 8.8 2.5 39.9 13.7 6.5 2.3 12.1 3.9 12.5 3.6.6-.6 1-5.3 1.2-13.4 0-2.1.1-2.2 1.6-.8 1.2 1.3 1.4 2.8.9 7.6-.6 5.6-.5 5.9 1.2 5.2 4.5-1.8 39.2-20.6 41.6-22.5l2.7-2.2-7.4-13.5c-9.9-18.2-23.7-44.4-29.3-55.8-2.5-5.1-4.9-8.9-5.3-8.5-.8.8-1.5 14.5-2.7 48.1-.3 10.6-.9 18.9-1.3 18.5-.6-.8.3-31.4 1.4-48.1.5-7.9.9-19.6.7-21.4-.1-1.1-7.5 3.8-15.6 10.3-11.5 9.1-33.2 25.3-29.9 22.2 1.7-1.5 6.6-5.5 10.9-8.8 21.4-16.5 32.6-25.8 31.8-26.5-.4-.5-7.5-2-15.8-3.5-8.2-1.5-23.8-4.2-34.5-6.1s-24.3-4.4-30.1-5.4c-13.1-2.5-14.9-2.5-15-.3-.1 1.7-.2 1.7-.6 0-.5-2.1-.9-2.1-6.3-.2-2.4.8-4.5 1.3-4.7 1.1s1.9-1.2 4.7-2.2c2.7-1 5-2.1 5-2.5 0-.5-11.2-11.7-22.7-22.7-1.8-1.7-3.3-3.5-3.3-3.9s1.5.7 3.3 2.4c1.7 1.7 4.5 4.1 6.1 5.4s6.2 5.7 10.2 9.6c4.1 4 7.8 7.3 8.3 7.3 1.5 0 6.2-7 5.5-8.2-.4-.6-.3-.8.4-.4 1 .6 7.2-6.3 7.2-8.1 0-.5.8-1.8 1.8-2.9 1.8-2.1 1.9-2.3 8-11.8 2-3.2 4.2-6.3 4.8-7 .5-.6 1.3-1.8 1.6-2.6.5-1.3-.1-1.5-2.8-1.2-2.5.3-3.5 0-4-1.3-.9-2.3 1.2-4.3 2.8-2.7 1.9 1.9 5.8 1.5 5.9-.6.1-1.6.2-1.6.6.1.4 1.6.6 1.5 2.2-.5 1-1.3 2.2-3.4 2.6-4.8s1.4-3.3 2.3-4.3c2-2.3 3.6-2.2-27.8-1.4-21.9.5-18-.5 6.5-1.8 6.6-.3 14.8-.8 18.2-1.1l6.2-.5-4.6-5.7c-2.5-3.1-6.3-7.5-8.5-9.8-4.4-4.7-10.3-12.4-9.4-12.4.2 0 3 3 6.2 6.7C807 125 814.3 133 815.2 133c.5 0 3.3-1.1 6.3-2.5 3.7-1.8 5.2-3.1 5-4.3-.1-.9.3-2 .9-2.4 1.9-1.3 4.6-.9 4.6.7 0 .8.6 1.5 1.3 1.5 1.5 0 20.6-7.3 25.6-9.8l3.4-1.7-3.4-.7c-1.9-.4-6.3-1-9.9-1.3s-8.3-1-10.5-1.5c-2.2-.4-6.9-1.2-10.5-1.6s-5.9-.9-5.2-1.1c.7-.3 5.7 0 11 .7 25.5 3.2 30.8 3.7 31.5 3.3.4-.3-.3-1.9-1.6-3.6-1.3-1.8-2.7-3.9-3.1-4.7-1-2 4.9 4.3 6.2 6.6.9 1.6 1.6 1.6 12.3-1 6.3-1.4 15.2-4 19.8-5.6l8.4-2.9-3.4-1.6c-1.9-.8-2.6-1.3-1.6-1s3.7.8 6 1.2M452.9 305.5c-10.8 7.7-10.8 7.7-9.4 9.1 1.5 1.6 2.9 1.9 2 .5-.8-1.4 2.4-1.8 7.9-.9 6 .9 7 .4 6.2-3.3-.3-1.6-.1-2.9.4-2.9.6 0 1 1.8 1 3.9 0 3.5.4 4.2 4.8 7 2.6 1.6 7.4 5.6 10.6 8.7 6.3 5.9 5.9 4.9 8 19.4.3 2.5.4 3.8 0 3-2.1-5.4-1.8-4.4-2.8-9-1.3-6.2-1.7-7.1-2.9-6.7-1.9.6-2.6 7.5-1 8.8 1.1 1 1.1 1.3-.2 2.3-1.3.9-1.4 2.2-.7 7.3.6 4.3.5 7.1-.3 9-1.3 3-.5 6.5 1.6 7.8 1.3.8 1-2.1-.6-5.9-.6-1.4-.5-1.8.6-1.4.8.2 1.9 2 2.6 3.9l1.1 3.4 1-2.5c1.4-3.2 1.5-1 .2 2.4-.7 2-1.7 2.6-3.9 2.6-2.6 0-3.1.5-4 3.7-1.5 5.2-1.4 6.1.7 6.6.9.3.3.5-1.5.6s-4.5 1.2-6.3 2.7c-1.7 1.5-3.4 2.4-3.7 2-.8-.8 3.8-5.2 5.2-4.8.5.1-.3-.9-2-2.3-3.9-3.2-4.5-3.2-4.6.7l-.1 3.3-.8-3.8c-.4-2-1.7-4.8-2.8-6-1.2-1.3-2.2-2.8-2.2-3.5 0-.6-1-2-2.2-3.2-1.8-1.7-1.9-2-.5-2 .9 0 1.7-.3 1.7-.8 0-.4-.5-4-1-8.1-.5-4-.7-7.8-.3-8.5 1.2-1.9 1.4-9.6.3-11.7-.6-1-.8-2.4-.4-3 .4-.7 1.3.3 2.1 2.2 2.3 5.5 7.4 12.9 8.4 12.3 1.9-1.1 5.9 2.5 5.8 5.4v2.7l-1.2-2.5c-1.4-3-3.6-5.4-4.3-4.7-.8.8 2.3 6.3 5.1 9.2 4.7 4.6 5.4 3.3 4.7-7.8-.3-4.7-.9-7.7-1.6-7.7-.6-.1-3.6-2.3-6.6-5.1s-8.2-6.8-11.5-9c-4.7-3-5.5-3.9-3.7-3.9 3.5 0 2.2-2.1-2.9-4.7-4.4-2.3-12-3.9-11.8-2.5.4 2.2-.4 8.4-.8 6.7-.3-1.1-.9-2.5-1.4-3.1s-.5-1.5-.1-2 .3-.6-.2-.2c-.6.5-1.6.8-2.3.8-.8 0-3.8 1.5-6.6 3.3-6.5 4.2-9.7 5.9-9.7 5.3 0-.5 11.3-8 22-14.7 3-1.9 7.4-5.1 9.8-7.2 2.4-2 5.3-3.7 6.5-3.7 1.8 0 1.6.4-1.4 2.5m274 97.4c3.7 1.7 7.2 2.7 9.1 2.5 3.1-.4 3.8.4 1.9 2.3-.7.7-.5 2.1.7 4.6 1.7 3.5 4.6 5.9 4.1 3.4-.1-.7.5-1.2 1.3-1.2.8-.1 2.6-.7 3.8-1.4 1.3-.7 2.6-1 3-.7.3.3-.1.6-.8.6-1 0-1.1.3-.3 1.1 1 1 4.8 0 4.3-1.2-.1-.2.2-1.2.6-2.2.5-1.5.8-1.6 1.8-.3.6.8 2.5 1.7 4.1 2 1.7.2 3.2.5 3.5.6.9.2-5.6 2.8-8.9 3.5-1.8.4-5.4 1.7-8 2.8-5.4 2.5-9.6 3-8 1 1.4-1.6-3.4-11.4-6.4-13l-7.4-3.7c-2.9-1.5-5.3-2.9-5.3-3.1 0-.8.6-.6 6.9 2.4M1002.2 572c-.2 2.2-.1 4 .3 4s3-1.6 5.6-3.5c2.7-1.9 4.9-3.2 4.9-2.7 0 .4-2.1 2-4.5 3.7-2.5 1.6-4.5 3.4-4.5 3.8 0 .9 12.8-.1 14.4-1.1 1.5-.8 6.6-.8 5.7.1-.4.4-5 1.2-10.2 1.8s-9.6 1.3-9.9 1.6 1.1 1.9 3.1 3.6c2.1 1.8 6.2 5.4 9.3 8.1 3.5 3 6 4.6 6.6 4 .5-.5 1.4-3.4 1.9-6.4l1-5.5-.5 6.9c-.3 3.8-1 7.7-1.7 8.7-2.4 3.4-30.7 23.9-30.7 22.2.1-.4 4.2-3.6 9.3-7 5.1-3.5 10.6-7.4 12.2-8.9 1.7-1.4 4.1-3.4 5.5-4.5l2.5-1.9-7.5-6.9c-4.1-3.8-8.6-7.6-10.1-8.5l-2.7-1.6-1.7 4.7c-2.9 8.1-3.6 9.2-2.9 4.3.4-2.5.7-5.8.7-7.3 0-1.6.3-2.4.7-1.7.6.9.9.9 1.5 0 .9-1.4.7-1.6-4-3.9l-3.9-1.9 4 .2c3.6.1 3.9-.1 4.2-2.9.3-3.1.9-5.5 1.4-5.5.2 0 .2 1.8 0 4M1203 674.4c0 1.3 2.7 3.1 4.2 2.8.7-.2 3.8 7.2 3.8 9.3 0 3.7 1.8.9 4-6 1.9-5.9 2.8-7.5 4.3-7.5 1.4 0 1.7.4 1.2 1.7-5.8 14.7-8.2 23.4-6.2 22.9.7-.1.9-.1.5.1-1.2.7-.9 3.1.4 3.9.8.5.9.1.4-1.2-.5-1.4-.4-1.6.5-.7.6.6.8 1.6.5 2.2-.9 1.5-3.3.3-3.9-2-.3-1-1.4-1.9-2.5-1.9-1.5 0-2.5-1.5-4.2-6.3-1.2-3.4-3.3-9-4.6-12.5-2.2-6-2.3-6.2-.4-6.2 1.1 0 2 .6 2 1.4m-479.7 7c.3-.3 1.8.1 3.4.9 4 2.1 9.4 3.7 8.7 2.6-.3-.5-.1-.9.3-.9.5 0 1.6 1.2 2.5 2.7 1.1 1.8 1.8 2.2 1.9 1.3.1-.8.2-2.1.3-2.9.2-2.5 2.1-2.2 3.3.5 2 4.3-.8 7.2-6.4 6.5-.6-.1-2.2.8-3.5 2-2.6 2.4-14.9 10.2-15.3 9.7-.2-.2 3.5-3.1 8.1-6.6s8.4-6.9 8.4-7.6c0-1.3-15-3.9-17.5-3-1 .4-1.5 0-1.5-1.5 0-1.2-.4-2.1-.8-2.1-.5 0-1.7-.7-2.8-1.6-1.9-1.6-1.7-1.6 3.4 0 1.6.6 2.2.3 2.2-.9 0-1.4.2-1.4 2.3 0 1.3.8 2.6 1.2 3 .9m506.3-.8c2.6 0 4.7.6 5.8 1.7 1 .9 2.3 1.7 3 1.7.8 0 1.9.7 2.6 1.5 1.1 1.3 1.6 1.1 4-1.5 3.9-4.1 7.1-4.7 12.2-2 5.3 2.7 8.8 5.9 8.8 7.9 0 1.4-.1 1.4-1 .1-.8-1.3-1-1.2-1.1.5-.1 1.6-.2 1.6-.6.3-.8-3-2.8-2.7-3 .6-.1 1.9-1.2 4-2.8 5.3-3.1 2.7-3.1 3.3-.1 3.3 1.5 0 3.3-1.1 4.5-2.6s2.1-2.3 2.1-1.8c0 1.8-4.5 5.4-6.7 5.4-1.5 0-2.2.4-1.7 1.1 1.1 1.8-3.6-1-8.6-5-3.8-3.1-5-3.6-7.5-3-1.6.4-2.6.7-2.1.8.4 0-.2 1-1.5 2-3 2.4-1.8 3.8 1.8 2.2 2.7-1.1 2.7-1 .8.4-1.3 1-3 1.4-4.8 1.1q-2.85-.6-2.1.6c.9 1.4-.7.5-5.4-3-2.2-1.7-3.1-3-2.7-4.1.3-.8.3-1.2-.1-.9-.3.4-1.3 0-2.2-.8-1.2-1.3-1.3-2.2-.4-5.1.6-1.9.8-4.2.5-5.1-.4-1.5-.3-1.5.6-.2s1.2 1.1 1.7-.8c.4-1.3 1-2 1.3-1.5s2.4.9 4.7.9"/><path d="M466.5 85.1c-19 3.8-41.3 8.7-45 9.7-3.3.9-4.3.2 32 23.6 14.7 9.5 14.5 9.4 14.5 7.5 0-.6.6-2.5 1.4-4.2.8-1.8 2.9-7.7 4.6-13.2s4-12.3 5.2-15c2.9-7.2 3.8-11.5 2.4-11.4-.6.1-7.4 1.4-15.1 3M483.1 88.7c-.7 3.2-1.9 6.8-2.7 8-.7 1.2-1.6 3.9-2 6.1-.6 3.9-.6 3.9 2.5 3.4 1.9-.2 3.1 0 3.1.7 0 .6-1.5 1.1-3.4 1.1-4 0-5.2 2.2-7.2 13.5-.3 1.6-1.1 3.6-1.7 4.3-.9 1.1-.3 1.1 2.5-.1 2-.8 3.8-1.3 4.1-1.1.5.5 15.8-4.5 17.3-5.7.5-.4 3.5-1.5 6.5-2.3s12.1-3.7 20.3-6.5 15.2-5.1 15.5-5.1c1.9 0-7.3-4.3-18.9-8.9-7.4-2.9-17.9-7.1-23.3-9.2-5.3-2.1-10.1-3.9-10.5-3.9s-1.3 2.6-2.1 5.7M409.4 101.1c-3.8 2.7-7 5.4-7.2 5.9-.2.6-1 1-1.8 1s-1.4.4-1.4 1c0 .5-.7 1-1.5 1s-1.5.4-1.5.9-2 2.1-4.4 3.5c-5.3 3.1-7 5.1-3.1 3.6 2.2-.8 2.7-.7 3.7 1.6.8 1.7 1.8 2.4 2.9 2.1q1.8-.45 1.2.9c-.3.9.2 1.4 1.6 1.4 1.2 0 2.1.6 2.1 1.4 0 1.9 2.1 2.4 10.3 2.5 5.2 0 6.7-.3 6.7-1.4 0-.9 1.8-1.9 4.5-2.6 2.5-.6 4.5-1.6 4.5-2.1s.9-.6 2-.3c1.6.5 2 .2 2-1.7 0-1.8.2-2 1-.8.7 1.1 1 1.1 1 .2 0-.7.4-1.1.9-.8 1.3.8 7.2-1.4 6.5-2.5-.3-.5.2-.9 1-.9.9 0 1.6-.4 1.6-.9 0-1.1-2.5-2.1-5.1-2.1-1 0-1.9-.5-1.9-1.1 0-.5.6-.7 1.3-.3 3.6 2-1.9-2.1-10.4-7.9l-9.7-6.6zM406.9 97.4c-.2.2-5.6 1.6-11.9 3-18.9 4.2-54.4 12.6-55.9 13.1-1 .4-.5 1.1 1.7 2.3 11.9 6.5 20.9 11.8 22 12.9 1.9 1.8 3.8.6 3.7-2.5-.1-1.5.3-3.5.7-4.5.5-1 .5-1.7-.2-1.7-.5 0-1-.7-1-1.6 0-1.4.8-1.6 5.1-1.1 2.8.4 5.7 1.1 6.4 1.7 1.8 1.5 3.9.4 14.5-7.9 4.7-3.6 10.4-7.9 12.8-9.5 4.8-3.3 6-4.6 3.9-4.6-.7 0-1.6.2-1.8.4M551 111.9c0 .5 3.9 5.4 8.8 10.9 4.8 5.6 11.7 14 15.4 18.9 6.7 8.7 24.2 28.5 25.9 29.1.8.3 26.4-9 30.3-11.1 1.9-1 1.9-1 0-2.4-6.1-4.5-30.8-19-57.9-33.8-3.8-2.1-10.3-5.8-14.3-8.2-7.9-4.6-8.2-4.7-8.2-3.4M325.7 123.7c-5.1 4.9-9.4 9-9.7 9.3s-5.3 5.2-11.3 10.9c-6.3 6-9.8 10-8.5 9.6s16.8-5.4 34.5-11.2c21.8-7.1 32-10.9 31.7-11.7-.7-1.9-23.5-15.5-26.2-15.6-.7 0-5.4 3.9-10.5 8.7M346 139c-8 2.7-23.2 7.6-33.8 11l-19.4 6.2.7 5.1c.7 5.4 3.3 19 6 31.2.8 3.8 1.5 7.3 1.5 7.6s1.2.4 2.6.1c2-.3 2.6 0 3.1 1.7.3 1.2 1 1.8 1.7 1.4.6-.4.5.1-.2 1-.8.9-1.1 2.1-.7 2.6.3.6 0 .8-.9.5-1.8-.7-3.6 2.5-2.7 5 .6 1.4 2.5-.7 9.6-10.5 5-6.8 10-13.8 11.2-15.4 1.2-1.7 3.9-5.5 6-8.5s4.6-6.4 5.6-7.5c2.7-2.9 4.7-7.1 3.9-8-.4-.5-.2-.5.4-.2.6.4 2.2-.8 3.5-2.5s2.9-3.6 3.4-4.2c1.8-1.9 8.5-11.6 8.5-12.2 0-.4.8-1.4 1.8-2.3 1.8-1.5 4.2-5.3 4.2-6.5 0-.9-.2-.8-16 4.4M361.9 139.7c-4.3 6.4-14.1 19.6-15.5 20.8-.6.5-3.5 4.4-6.3 8.5-7.2 10.6-8.2 11.9-12.1 16.6-4.5 5.3-16 21.1-16 21.9 0 .3-1.3 2-2.9 3.8-2.1 2.2-2.7 3.5-2 4.3s.6 1.4-.3 1.7c-1.6.7 4.3 6.5 16.2 15.9 4.7 3.8 11 8.9 14.1 11.5 8.4 7.2 42.8 35.3 47.9 39.3 2.5 1.9 6.2 4.9 8.4 6.8 2.8 2.5 4.1 3.1 4.6 2.2.6-.9 1-.6 1.5.9.6 1.9 1.2 2.1 9.6 1.9 4.9-.1 8.9-.6 8.9-1s1.3-.8 3-.8c1.8 0 2.9.5 2.7 1.2-.4 2.3 20.5 4 21.8 1.8.4-.6 1.1-.8 1.6-.5.5.4.9.2.9-.2 0-.5 1.2-1.3 2.6-1.9l2.6-.9-3.4-6.5c-5.4-10.1-7.5-13.6-32.2-53.3-3.4-5.4-7-11.2-8-13-4.4-7.4-10.1-16.3-11.5-18.1-1.5-1.7-1.6-1.7-2.3 1.5-.6 3-.6 2.9-.5-1.1.2-3.9-.1-4.5-1.9-4.8-1.1-.2-16 2.9-33 6.8-38.5 8.9-48.3 11-50.3 10.9-1.8-.1 1.4-1.3 7.8-2.9 2.5-.7 3.9-1.5 3.3-1.9-1.6-1-.2-2.6 3.5-3.9 2.9-.9 3.3-.8 3.9 1 .5 1.6 1.2 1.9 3.2 1.4 1.5-.3 6.1-1.2 10.2-2s15.9-3.5 26.3-6c10.3-2.5 19.3-4.6 20-4.6s2.1-.6 3-1.3c1.4-1 1.5-1.6.3-4.2-.7-1.7-2.6-5.9-4.1-9.5-1.6-3.6-4.9-11-7.5-16.5s-5.1-11.1-5.5-12.4-2-4.6-3.6-7.3-2.9-5.5-2.9-6.3-.5-1.7-1-2c-.6-.4-.8-1.1-.5-1.6.4-.5.2-.9-.4-.9-.5 0-2.4 2.1-4.2 4.7"/><path d="M398.8 199.7c.6.2 1.2.9 1.2 1.5 0 .5 2 4.1 4.5 7.9s4.5 7.2 4.5 7.4c0 .3 2 3.6 4.4 7.3 8.3 12.9 25.2 40.4 34.7 56.7 2.9 4.9 5.5 9.2 5.8 9.5s1.2 1.7 2 3.2c2.8 5.4 3 4.2 4.6-22.7.4-5.5 1.3-17.2 2.1-26 .7-8.8 1.4-19.2 1.4-23.1v-7.1l-8.7-2.1c-4.9-1.2-18.9-4.7-31.3-7.7-19.1-4.7-30-6.8-25.2-4.8M466.6 217.1c-.5 2.6-.7 5.3-3 36.4-2.8 38-3 43.6-1.3 42.9.8-.3 4.3-3.7 7.8-7.7 3.5-3.9 9.4-10.3 13-14.2 17.7-18.9 30.3-32.9 42.3-47 3.2-3.7 3.3-5.1.3-5.9-2.5-.6-21.6-2.8-39.2-4.6-6-.6-12.9-1.3-15.2-1.6-3.8-.6-4.3-.4-4.7 1.7M534 228.3c0 2.3.7 11.2 1.5 19.7s2 20.2 2.5 26c.6 5.8 1.2 13.9 1.4 18.1.4 7.2 2.6 14.9 4.3 14.9 1.4 0 7.8-6.3 12.9-12.5 2.7-3.3 7.4-8.7 10.5-12 3-3.3 7.6-8.3 10.1-11 2.5-2.8 6-6.6 7.7-8.5 1.8-1.9 3.7-4.3 4.3-5.3.8-1.7.7-1.8-1.4-1.3-1.2.4-.3-.4 2.1-1.6 8.1-4.2 9.1-3.5-25.9-18.5-9.6-4.2-20.3-8.6-23.7-9.8l-6.3-2.3zM527.5 228.2c-1.5 1.8-5.7 6.7-9.4 10.7-3.6 4.1-8.8 10-11.5 13-2.7 3.1-6.3 7-8 8.6-4.1 4.1-28.8 31.2-31.7 34.9l-2.3 2.9 3-.7c3.4-.9 5.6-1.2 13.9-2l6-.5-5 1.9c-2.7 1.1-5.4 2-5.8 2-.5 0-1.5.6-2.2 1.4-1.2 1.2-1 1.5 1.3 1.9 25.1 4.7 59.7 10.7 61.6 10.7 1.8 0 1.8-.6 1.3-9.9-.8-12-1.2-13.1-4.6-13.2-2.5-.1-2.5-.2.4-.8 3.5-.8 3.5-1.6 1.7-18.1-.7-5.2-1.9-17.7-2.9-27.8-.9-10-2-18.2-2.4-18.2s-1.9 1.5-3.4 3.2M285.8 342.9c-8 4.2-15 7.9-15.3 8.3-1.1 1 21.6 21.8 23.8 21.8.3 0 1.5-4.4 2.7-9.8 1.2-5.3 2.8-12.4 3.5-15.7 2.7-11.7 2.7-12.5 1.3-12.4-.7.1-7.9 3.6-16 7.8M250.2 349.1c.9.5 1.5 1.6 1.2 2.3s.2 2.1 1.1 3c1.5 1.5 1.5 1.6 0 1.6-1.3 0-1.5.6-1 3 .4 1.9.3 3-.4 3-.6 0-1.4 1.2-1.7 2.7-.4 1.6-1.3 3.7-2 4.8s-1.5 5-1.7 8.6c-.2 3.7-.7 7-1 7.5-.6 1 8.3 14.6 9.9 15.1 1.2.4 10.1-34.5 10.8-42.7.1-1.9.5-4.2.7-5 .3-1.1-1.3-1.9-6.1-3.1-7.7-2-12.5-2.4-9.8-.8M339 353.6c-13.7 7.4-24.1 13.3-30 17-3 1.9-6.2 3.9-7 4.4-2.3 1.5-.3 2.4 13.8 5.8 13 3.2 68.5 15.5 75.7 16.8l4 .7-7-7.4c-3.8-4.1-11.7-12.6-17.5-18.9-13.9-15.3-21.5-23-22.6-23-.5.1-4.7 2.1-9.4 4.6M268 356.1c0 1.9-3.4 15.7-9 36.4-1.1 4.2-1.5 7.4-1 7.9.6.6 3.2-.7 6.7-3.2 3.2-2.3 10.9-7.6 17.1-11.7 6.1-4.2 11.2-8.1 11.2-8.8 0-1.1-20.5-20.3-23.6-22-1-.6-1.4-.2-1.4 1.4M233.7 376.3c-2.1 1.6-3 1.9-3.6.9-1.3-2.1-3.8-.3-7.2 5.4-2.3 3.7-3.6 5-4.2 4.1-.5-.7-.6-.3-.2 1 .6 2.3-1.6 6.8-2.8 5.6-.6-.6-1.1 1.1-.8 2.9 0 .4-1.9 4.6-4.3 9.5-9.4 19-15.4 31.8-15 32.2.2.3 11.1-7.3 15.9-11.2.6-.4 4-3 7.7-5.8 3.7-2.7 7.2-5.8 7.7-6.7.4-.9 1.1-4.4 1.5-7.7 1.4-12.4 2.8-18.2 4.5-18.2 4.9 0 6.4-.5 8.6-2.8 1.9-1.8 2.5-3.5 2.5-6.7 0-3.9-.2-4.3-2.4-4.3-1.9 0-2.7.9-4.1 4.7-.9 2.7-2.1 4.8-2.7 4.8-.5 0-.7-.4-.4-.8.5-.8 2.6-9.3 2.2-9.1 0 0-1.4 1-2.9 2.2M219.5 423c-3.8 2.8-8.8 6.4-11 8.1s-6.3 4.8-9.2 6.9c-3.3 2.4-4.8 4-3.9 4.3 2.1.8 30.7 3.9 31.2 3.4 1-1 1.9-27.7.9-27.7-.5.1-4.1 2.3-8 5M904.7 105c-4 .7-5.2 1.5-5.2 3.2 0 .6-.6 1.3-1.2 1.5-.7.3-1.3-.3-1.3-1.2 0-1.1-.6-1.5-1.7-1.1-1 .3-4.7 1.2-8.3 2-8.8 2.1-15.8 4.9-15.3 6.2.2.6 1.5.9 2.8.6 2.8-.5 4.7 2.4 2.5 3.8-1 .6-.3 2 2.9 5.7 2.3 2.6 7.4 8.7 11.2 13.6 3.9 4.8 7.9 9.2 8.9 9.7 1.6.9 1.9.5 2.5-3.3.4-2.3 1.3-6.5 2-9.2.7-2.8 1.6-8.4 1.9-12.5.4-4.1 1.1-8.9 1.6-10.5 1.3-4.4 1.9-9.5 1.2-9.4-.4.1-2.4.5-4.5.9M911.6 105.1c-.3.8-.7 3.6-1 6.4-.6 5.5-2.3 16.6-3.1 20.5-1.3 5.9-2.8 19-2.3 19.6.9.8 7.8-1.8 7.3-2.7-.3-.3 1.3-.7 3.5-.7 3.5-.1 9.4-2.1 6.3-2.2-1.8 0-1.7-6 .1-6 .8 0 1.6.6 1.8 1.2.3.9.9.8 2.1-.4 1-.9 2.6-2 3.7-2.3s2-1.1 2-1.6.8-.9 1.8-.9c2.2 0 5.5 3.3 4.5 4.4-1.2 1.2 5.9-.5 7.9-1.8 1.5-1.1.7-2.2-6.7-9.4-8.4-8.2-10.2-9.6-9.1-6.6.3.9.2 1.2-.5.9-.6-.4-.8-1.3-.6-2 .5-1.1-4.5-6.4-14-14.9-2.4-2.2-3.4-2.6-3.7-1.5M918 107.1c1.4 1.2 7.7 6.9 14 12.8 20.5 19.2 18.4 17.7 27.5 18.4 23.5 1.8 27.8 2 27.2 1-1-1.6-68.4-34.4-70.4-34.3-.4.1.3 1 1.7 2.1M958 149.8c7.7 14.4 17.4 31.2 18.1 31.2.4 0 .9-1 1.2-2.3.2-1.2 2.3-7.4 4.5-13.7s4.3-12.6 4.6-14 1.2-3.4 2.1-4.5c1.6-2 1.6-1.9 1.2.5-.3 1.4-3 9.6-6.1 18.4-3.1 8.7-5.6 16.6-5.6 17.5 0 1.7 5.1 8.2 23.1 29.3 14.6 17.2 22.3 25.4 21.7 23.3-6-20.8-22.8-71.1-26.7-79.8-1.6-3.5-3.2-7.8-3.5-9.4-1-4.4-3.7-5.1-22.9-5.6l-16.8-.5zM979.5 193.7c1.3 7.8 3.6 19.5 5 25.8.9 3.8 2.1 9.7 2.6 13 .6 3.3 1.3 6.3 1.7 6.7.4.3 8.6.9 18.2 1.3l17.5.7-2-2c-1.1-1.2-2.5-2.7-3-3.4-5.6-7.1-38.5-44.2-39.6-44.6-.5-.2-.7.9-.4 2.5M977.6 210.2c-.3 1.3-.1 2.4.4 2.6.6.2 1 1.7 1 3.3 0 1.8-.4 2.8-1 2.4-.6-.3-1 .5-1 1.9 0 1.8-.4 2.4-1.5 2-1-.4-1.8.2-2.4 1.7-.6 1.9-.4 2.8 1.3 4.3l2.1 1.8-2.5-.6c-2.4-.7-2.4-.7-.5.9 1.1.8 2.4 1.4 3.1 1.1.6-.2 1.7 0 2.5.5 1.2.7 1.2.9-.1.9-1.5.1 4.7 3.9 6.4 4 1.1 0-.6-9.2-4.6-25.3-1-4.2-2.3-4.8-3.2-1.5M872 217.7c0 1.9 35.6 70 39.4 75.5 1.3 1.8 1.4 1.5 2.1-2.9.3-2.7.8-8 1.1-11.9.2-3.8.8-12.1 1.3-18.4 1.2-14.9 1.3-35.1.2-36.9-1.3-2-44.1-7.3-44.1-5.4M1035 226c0 .6-1.6 3.9-3.5 7.1-1.9 3.3-3.5 6.6-3.5 7.4 0 .9 3.7 2.2 11.1 4 6.1 1.4 11.5 2.5 12 2.3s-2.3-5-6.3-10.7c-6.8-9.8-9.8-12.8-9.8-10.1M919.1 242.7c-.1 4.8-.4 11.5-.9 14.8-.4 3.3-.5 7.6-.2 9.5l.6 3.5.7-3.8c.4-2 1.2-3.7 1.8-3.7s.7.5.3 1.1c-.4.7-.2 1 .5.8 1.8-.6 1.5-2.3-.6-2.9-1-.3-1.8-1.1-1.7-1.8.1-.6.2-1.8.3-2.5.1-.9.4-.8 1 .2.5.8 1.6 1.1 2.5.8.8-.3 1.8-.2 2.1.4.4.5 1.1.7 1.6.4.5-.4.9.2 1 1.2 0 1 .5.3 1-1.6 1-3.4.4-5.5-1-3.3-.6 1-1.2.6-2.5-1.2-1.5-2.4-1.5-2.7.4-4.6 1.1-1.1 1.5-2 .9-2s-.9-.7-.5-1.5c.8-2.1-2.5-8.9-3.6-7.3-.6 1-.8.9-.8-.2 0-.8-.7-2.3-1.5-3.3-1.2-1.7-1.4-.8-1.4 7M990.5 242.6c.4 1 1.2 3.2 1.8 4.9.6 1.6 3.7 9.7 6.9 18 5 13 6.3 15.4 10 18.7 2.4 2.1 4.8 3.8 5.5 3.8.6 0 2.4 1 4 2.3 3.6 3 6 3.9 6.6 2.4.3-1 .3-11.8-.2-45.3l-.1-4.1-9.2-.7c-5.1-.4-13.1-.9-17.7-1.3-8-.6-8.4-.5-7.6 1.3"/><path d="M1027.5 246.7c.9 5.4 1.3 9 .8 7.5-1.4-4-1.8 1.3-1.6 21.5l.3 22.8-7.1 4.9c-6.3 4.3-7 5.1-6.5 7.5.3 1.4.3 2 0 1.3-1.1-2.3-2.2-1.2-4.4 4.5-1.2 3.2-2.6 6.9-3.1 8.2-1.5 3.5.5 4.8 8.4 5.5 6.7.6 7.8.1 5.5-2.2-1.5-1.5-.3-1.5 2.1 0 1.6 1 2.6.7 5.8-1.4 2.1-1.4 5.4-3.3 7.3-4.2l3.5-1.7-3 2.5c-1.6 1.4-4.9 3.6-7.2 4.8-2.4 1.3-4.5 2.8-4.7 3.4s.3 3.9 1.1 7.3c1.2 4.6 1.9 5.9 2.8 5.1.6-.5 1.6-.6 2-.2.5.4.5-.1.2-1.1-.4-1-.1-1.7.7-1.7 1.1 0 7.8-12.7 10.6-20.3 1.2-3.5-.3-6.7-5.4-11.6-2-1.9-3.6-3.9-3.6-4.4 0-.6 1.5.7 3.4 2.7s3.8 3.6 4.2 3.6 1.3.8 2 1.7c1.6 2.3 1.4 3 6-26.7 5.4-35.6 5.5-36.3 4.7-37-.5-.4-5.5-1.7-11.3-2.9s-11.3-2.5-12.3-2.8c-1.6-.4-1.7 0-1.2 3.4M987.6 246.6c-.3 1.6-1.1 6-1.7 9.9-.6 3.8-1.5 7.8-2 8.7-.7 1.3-.3 2.1 1.3 3.3 4 2.8 16.1 10.5 16.6 10.5.7 0-.8-5.1-2.9-9.7-1-2.3-1.9-4.5-1.9-4.9s-1.3-3.6-3-7.1c-1.6-3.4-3-6.9-3-7.6-.1-.6-.7-2.3-1.4-3.6l-1.4-2.5zM938.6 256.1c.3.5.1.9-.4.9-1.5 0-7.4 11.9-6.8 13.6.3.8.2 1.3-.3 1-1.3-.9-11.6 19.9-11.2 22.6.1.5-.3.8-.9.8-.5 0-1 .5-1 1 0 .6 1.1.3 2.5-.6s2.5-1.3 2.5-.9c0 .9 8.9-4.2 11.7-6.8 1.2-1.1 2.9-1.7 3.7-1.4.9.4 1.6.2 1.6-.3 0-.6.3-.9.8-.9.4.1 1 0 1.5-.1.4-.1 1-.3 1.5-.5 2.2-.6 4.9-2 6.5-3.3.9-.8 1.7-1.2 1.7-.8s3.2-1 7-3c3.9-2.1 7-4.4 7-5.1s.5-1.3 1.1-1.3c.5 0 .7.4.4 1-1.1 1.7.8 1.1 4.7-1.7 2.1-1.4 3.5-3 3.1-3.4-2.3-2.3-37.9-12.7-36.7-10.8M985.3 275.2c1.9 8.2 5.9 19.8 6.7 19.8 1.3 0 4.6-3.7 8.1-8.9 2.7-4.2 2.8-4.5 1.1-5.5-1-.6-4.7-3-8.3-5.3-8.2-5.5-8.9-5.5-7.6-.1"/><path d="M1002.4 285.9c-1 1.3-3.4 4.1-5.1 6.1-1.8 2.1-3.3 4.5-3.3 5.4s-.6 1.6-1.4 1.6-1.7.6-1.9 1.2c-.3.8-.6.5-.6-.5-.1-1.3-.6-1.7-1.8-1.3-1 .3-6.3 1.7-11.8 3.1s-10.5 2.7-11.1 3c-1.4.4 1.8 11 4.2 13.6 2.5 2.8 6.8.6 11.5-5.7 2.2-3 4.2-5.4 4.4-5.4.3 0-.9 2.5-2.6 5.6-2.1 3.6-2.7 5.5-1.8 5.3 1.3-.2 2.6.1 7.5 2.1 4.3 1.7 5.9.6 5.7-3.6l-.3-3.9 1.6 4.3c.9 2.4 2.2 4.6 3 4.9s1.4 1.1 1.4 1.8.6 1.5 1.4 1.8c1 .4 2.6-1.6 5-6.3 2-3.7 3.6-7.5 3.6-8.3 0-.9-1.4-2.5-3.1-3.7-3.6-2.6-3.2-3.9.5-1.5 2.9 1.9 3 1.7 1.7-1.7-.5-1.3-1.1-4.1-1.5-6.3-.3-2.2-1.2-6.2-1.9-9l-1.3-5zM1006.3 285.5c.3 1.1 1.1 4.6 1.8 7.9 1.3 5.8 3.3 8.1 5 5.5 1.3-2.1 1.2 2.7-.1 5.2-1.3 2.2-1 2.3 2.1.6 4.5-2.3 8.9-5.8 8.9-7 0-1.6-2.5-3.7-7.5-6.2-2.2-1.1-5.5-3.3-7.4-5-2.8-2.4-3.3-2.6-2.8-1M917 302.5c0 1.3 16.4 31.5 18.7 34.4.4.6 3.8-3.1 13.1-14.1 9-10.7 13.1-17.6 11-18.2-.7-.3-6.9-.7-13.8-1-6.9-.4-16.2-.9-20.7-1.3-4.6-.3-8.3-.2-8.3.2M902 308.4c-5.2 2.9-14.7 8.1-21 11.5s-11.9 6.6-12.3 7c-.5.5 4.7 3.6 11.5 6.9 14.4 7.1 22.8 10.5 23.7 9.7.3-.4 1.1-3 1.8-5.8l1.2-5.2-.4 5.6c-.3 3.1-.3 5.8 0 6.1.5.5 6.6-.3 19.8-2.3 6.1-1 6.7-1.3 6.7-3.5 0-4-16.2-34.3-18.8-35.2-.8-.2-1.2 1-1.3 4 0 2.3-.7 6.1-1.4 8.3l-1.4 4 .4-4.3c.3-2.3.8-6 1.1-8.2s.4-4 .2-3.9c-.1 0-4.6 2.4-9.8 5.3M866.5 333.2c.2 1.8.7 8.2 1 14.3.3 6 1 11.4 1.5 11.9.7.7 1 .6 1-.1 0-1.4 3.9-1.1 7.1.6 2.5 1.2 3.1 1 9-3 9.6-6.3 14-10 13.4-10.9-.3-.5-3.6-2.3-7.3-4.1-3.7-1.7-10.8-5.1-15.8-7.5s-9.3-4.4-9.7-4.4c-.3 0-.4 1.5-.2 3.2M925 343.7c-6.9.6-18.1 2.6-18.5 3.3-.2.3 4.6 5.6 10.8 11.8 10 9.8 11.5 11 14 10.5 2.4-.5 2.7-1 2.9-4.7l.1-4.1.7 4.5c.6 4.1.7 3.9.8-2.8.2-5.2-.1-7.1-.9-6.6s-1-1.2-.7-6l.4-6.6-3.1.2c-1.6 0-4.6.3-6.5.5M896.8 352.3c-1.3 1-5.7 4.1-9.8 6.9-4.1 2.9-9.4 6.6-11.7 8.4l-4.2 3.2 6.2 4c3.4 2.1 11.2 6.8 17.2 10.2 6.1 3.5 12.9 7.7 15.3 9.3l4.4 2.9-1.6-3c-.9-1.7-1.6-3.8-1.6-4.7 0-.8-.3-1.5-.8-1.5-.4 0-.6-1.8-.4-4 .3-2.4 0-4-.7-4-.6 0-.8-.7-.5-1.5.6-1.4-1.6-13-3.6-20-.5-1.7-1.2-4.2-1.5-5.7-.6-3.2-3.2-3.4-6.7-.5M1004.8 380.8c-2.2.3-2.9 1.1-4.1 5-2.4 7.7-4.9 19.3-4.3 19.9.8.9 13.5 3.2 17.4 3.3 2.7 0 3.2-.3 2.8-1.8-.2-.9-1.5-5.9-2.7-11.1-1.3-5.1-2.9-9.5-3.6-9.8-1.1-.4-1.1-.8-.2-2 .9-1 .9-1.7.1-2.5-.7-.7-1.2-.8-1.2-.3 0 .6-.3.6-.8 0-.4-.6-1.9-.9-3.4-.7M955.1 387.1c1.1.7 1 .9-.3.9-3.9 0-2.4 2.6 6.4 11 5.1 4.9 9.6 9 10 9 1.3 0 3.3-17.6 2-18.3-.5-.4-2.2-.3-3.7.2-2.5.6-11-.5-12.5-1.6-.2-.2.2-.8.9-1.2.9-.6.4-.9-1.4-.9-1.9 0-2.3.3-1.4.9M986.8 387.1c-.2.6-2.2 1.4-4.3 1.8l-4 .7 7.4 7.4 7.3 7.5 1.3-2.6c1.9-3.6 3-14.5 1.6-15.3-.6-.4-1.8 0-2.6.8-1.2 1.2-1.4 3-1 8.3l.5 6.8-1.6-6.5c-.9-3.6-2-6.7-2.5-6.8-.5-.2-.7-.8-.4-1.2.3-.5.1-1.1-.4-1.4-.5-.4-1.1-.1-1.3.5M976.1 394.2c-.4 1.3-1.2 5.4-1.6 9.2l-.7 6.9 3.9-.6c2.1-.4 6.4-.9 9.6-1.3 3.1-.4 5.7-.9 5.7-1.1 0-1.2-4.1-5.5-9.8-10.2-6.1-5.1-6.2-5.1-7.1-2.9M1055.4 395.2c.6 3.4 4.3 13.9 6.2 17.6.8 1.5 1.4 3.2 1.4 3.9 0 .6.5 2.4 1.2 4 .6 1.5 1.2 3.2 1.4 3.8.1.5 1.2 3.6 2.4 6.8 1.6 4.4 2.5 5.5 3.4 4.8 1-.8 1.1-.4.8 1.9-.4 2.9-.3 3 3.8 3 3.8 0 4.1-.2 3.4-2.3-.3-1.2-1-2.7-1.4-3.2-.4-.6-2.7-4.8-5-9.5-2.4-4.7-5.1-9.6-6-11-1-1.4-2.1-3.6-2.5-5-1.6-5.3-4.8-11-6.1-11-.8 0-1.4-.8-1.4-1.8 0-.9-.5-2.4-1-3.2-.8-1.1-.9-.8-.6 1.2M1013.7 422.2c-.8 1.2-4.1 6.9-7.3 12.6-3.3 5.7-8 13.3-10.7 17-4.4 6.2-4.7 7.1-4.3 11.7.5 6.3 2.4 11.5 3.5 9.6.5-.7.6-2.3.4-3.5-.3-1.4.3-.9 1.7 1.4 1.2 1.9 2.6 3.6 3.1 3.8 1.2.5 1.1 3.2 0 3.2-.6 0-1.3-.5-1.6-1-.3-.6-1.3-1-2.1-1-1.8 0-1.8 3.4-.1 5.2.7.7 1.8 2.2 2.4 3.3 1.1 1.8 1.2 1.8 1.8-1 .4-1.7 2.9-11.3 5.6-21.5 5.2-20 10-41.2 9.4-41.8-.2-.2-1 .7-1.8 2M1039 444.8c-8.5.1-15.8.6-16.3 1.1-.8.8 9 6 17.5 9.1 4.6 1.7 4.8 1.7 8.5-.2 2.1-1.1 6.1-3.5 8.8-5.3 2.8-1.8 5.9-3.7 7-4.4 1.6-.9.9-1.1-4-.9-3.3.2-13 .4-21.5.6M987.5 524.6c1.7.9 6.2 3.6 10.1 6s7.5 4.4 7.9 4.4c.5 0 2.6-1.9 4.7-4.2 2.6-2.9 3.4-4.4 2.6-4.9-.7-.3-6-.9-11.8-1.3-5.8-.3-11.8-.9-13.5-1.2l-3-.5zM570.8 629.2c-4.5 14.1-5.1 16.5-5 19.8.1 2.6-.1 3.1-.8 2-1-1.6-1-1.5-1.4 3.2-.1.7-.7 1.9-1.4 2.6-1.7 1.9-.8 2.9 3.2 3.6 3 .6 3.5 1.1 3.8 3.9.3 2.9.6 3.2 3.8 3.4l3.5.1-3.5-.7c-2.7-.5-3.1-.8-1.7-1.3 2.1-.9 16.7 1.2 16.7 2.4 0 .4.7.8 1.5.8s1.5-.5 1.5-1.1-3.6-10.1-8-21.1c-4.4-11.1-8-20.7-8-21.5 0-3.3-2.7-.8-4.2 3.9M492.6 644.1c.3 1.9.9 5.2 1.4 7.4.6 2.2 2.1 9.8 3.4 17 1.4 7.2 2.9 14.1 3.5 15.5l1 2.5v-2.7c.1-2 .8-2.9 3.1-3.7 3.4-1.2 6-3.4 6-5.2 0-.8.4-.8 1.5.1.9.7 1.8 1 2.2.6.3-.3.1-.6-.5-.6-1.3 0-1.7-4.6-.4-5.2.9-.3 5.2-9.3 5.2-10.8 0-.5.7-1 1.6-1 1.2 0 1.4-.7.9-3-.5-2.5-.3-3 1.2-3.1 1 0 0-.7-2.2-1.5-2.2-.9-6-2.4-8.5-3.4s-7.2-2.5-10.5-3.3c-3.3-.9-6.8-1.9-7.7-2.2-1.6-.6-1.7-.3-1.2 2.6M574.2 673.4c-4.6.6-8.1 1.4-7.7 1.8s1.4.4 2.3.1c1-.4 1.3-.2.8.5-.4.7-1.4 1.2-2.2 1.2s-1.4.4-1.4 1c0 .5 1.1 1 2.4 1s2.6.4 2.8.9 4.6 2.5 9.8 4.4c5.2 2 12.6 4.7 16.4 6.1s7.2 2.6 7.7 2.6c.7 0-1.1-3.2-9-15.8l-3.3-5.2-5.1.2c-2.9 0-9 .6-13.5 1.2M503 711.3v8.7h8.5c8.3 0 8.5-.1 7.3-2-.7-1.1-1.6-2-2-2-.5 0-.8-.5-.8-1.2 0-.6-1.8-2.9-4-4.9-2.2-2.1-4-3.5-4-3.1 0 .3-1.1-.5-2.5-1.8l-2.5-2.3z"/></svg>