<svg xmlns="http://www.w3.org/2000/svg" width="1706.667" height="960" viewBox="0 0 1280 720"><path d="M0 360v360h123c81.3 0 123-.3 123-1 0-.6.9-1 2-1s2 .4 2 1c0 .7 40.1 1 118.4 1h118.3l.1-12.8c0-9.8-.6-16.6-2.9-29.7-1.6-9.4-3.2-18.1-3.5-19.5-.5-1.6-.3-2.2.3-1.5.6.5 1.6 4.4 2.3 8.5s2.1 10.6 3.1 14.5c1 3.8 2 8.1 2.2 9.5q.45 2.4.6-1.5c.1-3.7 3-8.2 4.4-6.8.3.2.8-.5 1.2-1.6.3-1.2 1.1-1.9 1.6-1.6.5.4.9.1.9-.5s.5-.8 1.1-.4c.8.5.8.1 0-1.4-.6-1.1-1.1-2.7-1-3.4 0-.7.4-.3.9 1 .5 1.2 1.5 2.2 2.2 2.1 1 0 1-.2.1-.6-1.4-.5-1.8-4.9-.5-5.5 1.7-.8 5.6-7.4 5.4-9.4-.1-1.2.5-2.7 1.3-3.4s1.5-2.1 1.5-3c0-1 .6-2.1 1.3-2.3.6-.3.2-.6-.9-.6-1.2-.1-4.3-1-7-2-6-2.4-20.9-7.1-22.4-7.1-.6 0-.9.4-.5 1 .3.5.8 3.7 1 7.2.6 7.2.1 6.8-1.5-1.5-.8-4.2-1.6-5.7-2.8-5.8-1.1 0-1.2-.2-.5-.6.7-.2 1.3-1.5 1.3-2.8s.4-2.7 1-3c.5-.3 1.4-2 2-3.8l1-3.2-.4 3c-.2 1.6-.5 3.6-.7 4.3-.2.8.3 1.7 1.1 2.1.8.5 2.5 1.3 3.6 1.9 2.1 1.1 26.3 8.2 27.8 8.2.5 0 .6-1.1.4-2.4-.4-2.2-.3-2.3 2.4-1.5 3.5 1 3.4 1.2 4.8-11.1 1.2-10.6 1.8-15.8 2.9-24.2.8-6.2.4-6.8-4.7-6.8-1.5-.1-4-.7-5.7-1.5-2.9-1.3-2.8-1.3 2.4-.8l5.3.6-1.6-3.1c-.9-1.7-2-3.4-2.6-3.7-1-.6-4.7-7-6.3-11-1.2-2.8.2-1.1 5.6 7 5.2 7.8 8.6 12 9.1 11.4.6-.6 9.8-16.6 14-24.2 2-3.7 3.5-7.1 3.2-7.6-.3-.4.3-1.6 1.3-2.5 1.7-1.6 1.9-1.6 2.4.4.3 1.3-.1 2.9-1.1 3.9-2 2.1-2.6 3.1-11.5 19-8 14.4-8.9 12.2 8.3 19.4 19.2 8.1 18.8 8 16.9 3.1-.6-1.6-1.2-4.5-1.4-6.4-.2-2.3.3-1.3 1.7 3.2 1.2 3.8 2.4 6.8 2.8 6.8.6 0 16.1-16.4 18.3-19.4.6-.8.8-.7.5.1-.2.7-4 5.5-8.5 10.7-4.6 5.2-8.3 10.2-8.3 11s.8 2 1.8 2.5c1.5.9 1.6 1 0 1.1-1.4 0-1.3.9 1.2 7.2 1.6 4 5.2 13.6 8.1 21.3 2.8 7.7 5.5 15.1 6 16.4.8 2 1.1 2.1 2.6 1 1.5-1.3 1.5-1.2.3.7-1 1.7-1 2.6.5 5.5 5.3 10.4 11.6 19.3 18.9 26.8 7.4 7.7 5.1 6.6-3.2-1.5-2-1.9-3.7-3.2-4-2.9s-1.1 0-1.8-.6c-1.8-1.5-30.5-11-31.4-10.4-.5.3-1.1.1-1.5-.5-.3-.5-1.2-1-1.8-1-.7 0-.6.4.3 1 1.1.7.2 1-3.3 1-5.2 0-7 1.8-4.6 4.6.7.8 1.4 2.6 1.5 3.9.1 1.2 2.9 7.5 6 13.9l5.8 11.6h6.6c3.6 0 7-.4 7.5-.9 1.2-1 6.5-2.4 6.5-1.6 0 .3-1 1-2.3 1.5s20.2.9 56 .9c57.3.1 58.2.1 58.8-1.9.8-2.6 2.5-2.6 1.8 0-.5 2-.2 2 35 2l35.6-.1-3.5-6.5c-2-3.5-3.3-6.4-3.1-6.4.3 0 2.5 2.9 4.8 6.5l4.2 6.5H1280V0H0zM470.8 80.5c3.6 0 5.1.4 4.8 1.2-.3.7 3.8 2.9 10.7 5.6 6.2 2.5 17.7 7.2 25.7 10.5 8.7 3.7 14.9 5.7 15.4 5.1.5-.5 1.3-4.1 1.6-8.1l.7-7.3.2 8.9.1 8.8 22.8-.6c32.6-.9 36.1-1.6 29.2-5.1-1.6-.9-3-1.8-3-2.1 0-1.1 11.4 5.8 13.1 8 2.3 2.8 1.4 3.4-1.4.9-2.1-2-2.9-2-22.7-1.2-11.3.4-24 .8-28.2.8-4.3.1-7.8.5-7.8 1s2.6 2.1 5.8 3.7c3.1 1.5 9.4 4.9 14 7.6 4.6 2.6 8.6 4.8 8.8 4.8.4 0 19.7 10.6 37.8 20.9 5.5 3.1 12.2 6.9 15 8.4s5.5 3.2 6.1 3.8c1.9 1.9 2.7.8 1.1-1.6-.9-1.4-2.3-3.6-3.2-5-2.9-4.5-.7-2.6 3.1 2.6 2.9 4.1 4.1 5 5.8 4.5 1.2-.3 4.2-.7 6.7-1l4.5-.6-5.5 1.6c-7.3 2.1-7.7 2.6-5.6 7.1 2.4 4.9 4.6 11.3 4 11.3-.2 0-1.6-2.6-3-5.8-2.7-5.8-3.9-5.7-3.2.4.2 1.9 0 3.4-.4 3.4s-.8-2.7-.8-6c0-4-.4-6.2-1.3-6.6-.7-.2-4.6.9-8.7 2.7-4.1 1.7-11.3 4.4-15.9 6-4.7 1.6-8.9 3.3-9.3 3.7-.6.6.9 2.3 3.4 4.3 2.4 1.8 6.8 5.8 9.8 8.8l5.5 5.4-6-4.4c-3.3-2.4-6.9-5.2-8-6.2-3.1-2.8-5.3-3.9-6-2.7-.3.6-1.3 13.7-2.1 29.3-.7 15.5-1.6 31.2-1.8 34.9-.5 7.9.5 9.8 7.2 13.3 2.6 1.3 5.8 3.4 7.2 4.6l2.5 2.1-3-1.8c-5.8-3.5-10-5.2-10.3-4.3-.2.5.3 2.8 1.2 5 2.7 6.6 1.7 5.8-2-1.6-1.9-3.8-3.4-6.5-3.4-6 0 .6-.4.4-.8-.3-.8-1.2-8.1 6.2-27.7 27.7-2.8 3-6 6.4-7.1 7.5-4.7 4.6-19.6 22.7-19.1 23.2.3.3 4.7-1.3 9.7-3.5 5.1-2.3 9.8-4.1 10.4-4 .6 0-.7.8-2.9 1.8-13 5.8-18.5 8.7-18.5 9.7 0 .7-1 .9-2.4.7-1.4-.3-3.1 0-3.8.7-3.5 3.1-29.8 19.6-29.8 18.6 0-.2 6.5-4.5 14.5-9.6s14.5-9.6 14.5-10.1c0-1-1.5-1.4-13-3.4-33.2-5.8-57.2-9.6-57.7-9.1s4.9 7.6 21.3 27.6c6 7.3 7 8.8 3.2 5-2.9-3.1-8.4-9.3-12.3-13.9-13.6-16.2-14.7-17.2-16.6-16.6-1.3.4-1.9.1-1.9-.9 0-1.7-6.6-3.2-18.5-4.1-4.4-.4-9-.8-10.2-1s-8.3-.7-15.7-1.1c-12.9-.6-13.6-.6-13.7 1.2 0 1.1-.3 1.4-.6.6-.2-.6-1.2-1.2-2-1.2-1.3 0-1.3-.3-.2-1.6 1-1.3 1-1.7-.2-2.4-2.5-1.6-35.2-28.4-45.9-37.7-1.4-1.2-8.8-7.4-16.5-13.8-7.7-6.5-16.6-14.2-19.7-17.1-3.2-3-6-5.4-6.2-5.4s-.3 11.4-.2 25.2c0 13.9-.2 27.3-.5 29.8-.4 2.5-.7-8-.8-23.4-.1-24.1-.3-27.7-1.5-26.6-1.3 1-1.3.7-.3-1.9.6-1.7.8-3.4.4-3.8s-6.5.3-13.5 1.6c-7 1.2-14.2 2.5-16 2.8-2.3.4-3.7 1.3-4.5 3.2-2.5 5.6-13.9 26.1-14.8 26.6-.5.4-.9 2.1-.9 3.8 0 3-.2 2.9-2.5-2.1-1.4-3-2.5-6-2.5-6.7 0-.8-.6-2-1.3-2.7-.8-.7-1.9-2.3-2.6-3.6-.6-1.2-1.5-2.2-2-2.2-.4 0-1.8 3.3-3.1 7.2-1.3 4-3.2 8.9-4.2 10.8s-1.8 4.2-1.8 5.2c0 .9-.5 2-1 2.3-.6.4-.8 1.1-.5 1.6.4.5.2.9-.3.9-1.4 0-2.1 6-.8 7.3.6.7 1.8 2.1 2.6 3.1 1.5 1.9 1.4 1.9-1.3.1-1.5-1-2.9-1.6-3.1-1.4-1.1 1.3-6.7 23.5-6.3 25 .3 1.1.1 1.9-.5 1.9-.5 0-.6 1-.3 2.2.5 1.8.4 2-.4.8-1.5-2.1-1.3-5.6.5-12 2.7-9.2 5.3-21.3 5.3-24.5.1-1.7.7-4 1.5-5 .8-1.1 2.3-6.3 3.5-11.6 1.1-5.2 2.7-11 3.6-12.9 1.5-3.4 1.6-3.4 1-.5-1.2 5.9-3.2 15-3.8 17.5-1.2 4.7 2.5-4.4 6-14.5 1.9-5.5 3.9-13.4 4.4-17.5 1.2-8.8 2.8-23 3.3-28 .2-2 2.4-7.6 5-12.5 7.6-14.8 13.7-25.9 14.8-27 1.2-1.2-10.9 22.5-12.3 24-.5.5-.9 1.8-.9 2.9 0 1.6.3 1.7 1.2.8.7-.7 1.7-1.2 2.2-1.2.6 0-.4 1-2.2 2.1-3.3 2.1-5 5.8-3.6 8 .4.7.3.9-.4.5s-1.3 1.1-1.7 4.1c-.3 2.7-1.2 7.9-2 11.8-.7 3.8-1.6 9.9-2 13.5l-.7 6.5 1.9-3c1-1.7 2.9-5.4 4.2-8.2 1.4-2.9 2.6-5.1 2.8-4.9.7.7-7 16-8.6 17.3-2.8 2-.7 2.2 3.5.4 7-3.2 9.2-3.3 2.7-.1-3.5 1.6-6.3 3.4-6.3 4 0 1.4 5.4 11.9 7.4 14.5 1.2 1.6 1.5 1.7 1.6.4 0-.9 1.1-2.9 2.5-4.5 3.8-4.4 11.8-20.6 10.5-21.4-.7-.4-.4-1.3.8-2.4 2.3-2 3.4-4.6 10.3-22.9 2.8-7.6 5.4-13.5 5.7-13.3.2.3-.5 2.8-1.7 5.6s-3.9 9.9-6 15.8-4.2 11.5-4.6 12.4c-.6 1.5-.3 1.7 2.1 1.3 21.4-3.9 29.8-5.6 30.1-5.9.3-.2-.3-3.9-1.1-8.3-.9-4.3-2.7-15.5-4.1-24.8-1.5-9.4-2.9-18.1-3.1-19.5-.6-2.5-.6-2.5-2.1-.5-1.5 1.9-1.5 1.9-1.1-.8.3-1.5.3-2.7.1-2.7s-4.2 2.9-8.9 6.5c-9 6.9-15.4 10.7-9.9 6 1.7-1.4 6.4-5.1 10.5-8.2 4.1-3.2 7.9-6.1 8.4-6.5s.4-1.3-.2-2.1c-.9-1.1-.7-1.3 1-1.3 1.6.1 2.7-.9 4-3.4l1.7-3.5-.4 3.2c-.2 1.8 0 3.3.3 3.3 1.8 0 55.5-18.1 61.5-20.7 2-.9 3.7-1.9 3.7-2.3 0-.5 1.1-1.1 2.5-1.4 1.7-.4 2.3-1.1 1.9-1.9-.4-.7-.4-.9.1-.5 1.2 1.1 5.7-1.6 16.9-10.1 5.6-4.3 13.9-10.4 18.4-13.5 4.6-3.2 8.1-6 7.9-6.2s-8.3 1.6-18 4.1-17.9 4.5-18.2 4.5c-.4 0-.3 1 .1 2.2 1.9 6-.9 11.8-5.6 11.8-3.2 0-6-3.5-6-7.4 0-2-.5-3.6-1-3.6-1.1 0-18.3 3.9-21 4.7-2.1.6 2.2 4 12.7 10.1 4.6 2.6 8.3 5.1 8.3 5.5 0 .8-7.9-3.4-11-5.8-3.2-2.5-12.1-7.5-13.3-7.5-.6 0-7.7 6.4-15.7 14.1-22.6 21.9-24.2 23-4.3 2.9 11.9-11.9 17.9-18.7 17.4-19.4-.6-.7 0-1.1 1.9-1.2s4.9-1.8 8.7-5.1c6.8-5.7 13.2-10.7 15.3-11.7 2.1-1.1-3.6 3.9-11.9 10.4-3.8 3-6.9 5.6-6.7 5.7.5.5 16.9-3.7 21.1-5.4 2.2-.9 6-1.7 8.3-1.9 2.4-.1 13.1-2.3 23.7-4.9l19.4-4.8-1.8-2.6c-3.4-5-3.3-5.6.2-1.7l3.6 3.9 6.3-1.3c16.8-3.4 53.5-11.2 54.8-11.7.9-.4-.2-1.1-3-1.9-4.4-1.3-4.5-1.4-.5-.7 2.2.4 6.4.8 9.3.8m419.7 13.9c3 2.8 11.2 4.4 14.3 2.7 1.2-.6 2.4-1.1 2.9-1.1.4.1-.5.8-2.1 1.6-3.3 1.8-2.9 2.3 4 5.2 5.8 2.4 45.7 21.2 59.2 27.9 5 2.5 9.2 5 9.2 5.5s-2.1-.2-4.7-1.6c-2.7-1.5-10.6-5.4-17.8-8.7-7.1-3.4-21-9.9-30.8-14.5s-18.1-8.4-18.4-8.4c-.7 0 21.1 20.9 29.3 28.2l5.2 4.5 15.3.7c8.5.4 16.9 1 18.6 1.3 5.3.9 5.4-2 .3-7.2-2.4-2.4-4.7-4.2-5.1-3.9-.4.2-1.3-.4-1.9-1.5-.9-1.8-.8-2 .7-1.4 1.7.6 1.7.5.1-1.4-1-1.1-1.8-2.3-1.8-2.7s-1.2-2.3-2.6-4.2c-1.5-1.9-2.4-3.4-2.1-3.4.9 0 12.7 14.9 12.7 16.1 0 .5 2.3 3.3 5.1 6 2.8 2.8 4.9 5.3 4.6 5.6-.4.3.5 2.2 1.8 4.2 1.4 1.9 2.5 4 2.5 4.4 0 .9 6.5 12.8 17 31.2 3.2 5.5 8.1 14.5 11.1 20 2.9 5.5 6.4 11.8 7.7 14l2.3 4-.6-6c-1.5-15.7-3.8-34.2-5.7-46.5-1.1-7.4-2.1-14.5-2.2-15.8-.1-1.8-1-2.5-4.1-3.3-6.2-1.6-6.3-1.7-1.7-1.6 2.5.1 4.9.8 5.7 1.7 1.7 1.9 6.5 14.3 6.5 16.7 0 1.9 9.6 36.8 14.1 51.3 1.6 5.2 3.2 11.2 3.5 13.5.3 2.2.8 5.1 1 6.5.3 1.4.3 2.2-.1 1.8s-1.3-3.5-2-7-2.9-11.9-4.9-18.8c-7.1-24.6-12.6-44.8-12.6-46.6 0-1.3-.3-1.5-1.1-.7-.7.7-.5 4.4.5 12.4 2.3 16.9 3.5 26.5 4.1 34.9.6 7 2 12.8 3.5 14 .4.3 3.5 4.2 6.9 8.7 3.4 4.6 6.5 8.3 6.8 8.3.9 0-.5-26.1-1.5-30-1.2-4.3-2.2-12.4-1.5-11.6 1.3 1.3 6 26.7 5 27.3-1.2.7-.2 17 1.2 18.7.6.7.8 2.1.6 3.2-.2 1-1.4 6.1-2.5 11.3-1.2 5.2-2 11-1.9 13 .2 2 0 4.1-.3 4.6-1.2 1.9-6.7 34.2-6 34.9.6.7 12.2-11.5 13.2-13.9.4-1.1.4-4.1 0-6.7-.8-5.4.6-5.6 1.6-.2l.6 3.5 2.5-3.3c2.2-2.9 2.4-4 1.9-9.1-.4-3.7-.2-5.6.4-5.2.6.3 1-.2 1-1.2.1-3.3 1.7.8 2.3 5.7l.5 4.5-1.4-4-1.4-4 .6 5c.2 2.7.7 10.3.9 16.8l.4 11.8-3.1 2.7c-6.7 5.8-11.6 10.8-12.7 13-1.2 2.2-1.1 2.3.7 1.3 1.1-.6 2.1-.8 2.3-.6.3.2 1.8-1.6 3.4-4 3.9-5.8 5.1-5.8 1.8 0-1.3 2.5-2 4.5-1.4 4.5s1.1-.3 1.1-.8c0-.4.9-1.8 2-3.2s2.9-3.6 4-5c3.6-4.7 2-.4-2.4 6.2-3.9 5.8-4.1 6.4-2.1 6 1.5-.2 2.9-1.9 4.5-5.3 1.2-2.8 2.4-4.9 2.5-4.7.7.7-1.6 10-3.3 13.6-1.5 3.2-1.7 5-1.1 9.8.4 3.2 1 6.6 1.3 7.4.9 2.3-2.1 10-5.1 13.2-2.6 2.7-2.6 2.8-2 14.9.4 6.8 1.3 13.4 2.1 15.2s3.1 7 5.1 11.7c2.1 4.7 6.4 13.9 9.6 20.5 3.3 6.7 5.9 12.5 5.9 13 0 .6-1.9 1.1-4.2 1.3-5.4.4-6 1-4.8 5.2 1.5 5.1 1.2 6.9-.5 3.6-.8-1.5-1.5-3.7-1.5-4.7 0-1.1-.3-1.9-.6-1.9s-5.1 2.6-10.7 5.8-11.1 6.2-12.2 6.7c-1.7.7-1.5.9 1.5 1.5 3.2.7 3.1.8-2 1-3 .2-6.2.3-7 .2-1.6-.1-17.3 2.8-17.8 3.4-.2.1 1.8 1.4 4.5 2.8 5.5 2.9 5.3 3.2-.6 1.1-2.2-.8-4.1-1-4.1-.5 0 1.7 9.2 20 10.1 20 1.1 0 1.4-4.6.6-12.4-.1-1 .3-2.1.9-2.3.8-.2 1.4 2.3 1.9 7.2.4 4.2.9 7.5 1.1 7.2.3-.2.9-3 1.4-6.2.9-5.5 2.3-8.5 3.5-7.4.2.3 1.6 6.8 2.9 14.5 2.7 15.3 3.1 17.1 4.1 19.6s-.5 2.2-4.5-.7c-4.1-3-5.3-3.1-8.8-.6-10.1 7.1-21.2 13.6-23.7 13.8-2.9.2-2.9.1-.6-.8 2.4-1 2.3-1.2-5.9-9.4-4.7-4.7-8.8-8.5-9.1-8.5-.4 0-3.4 3.7-6.7 8.3s-6.8 8.9-7.6 9.6c-3.2 2.7-1.7 3.4 6.2 2.8 6-.4 7.2-.3 5.2.6-2.3 1-2.1 1.1 3 1.8 3 .4 12.9 1 22 1.4 15 .6 16.3.5 14.6-.9-1.5-1.2-1.6-1.6-.5-1.6.8 0 2.1.6 2.8 1.2 1 1.1 2.2.3 5.8-3.7 4-4.4 4.5-4.7 3.9-2.3-.5 2.3-.3 2.6 1 2.1 1.4-.5 1.5-.3.5 1.6-.9 1.5-.9 3.2-.1 5.9 1.6 5.8 1.1 7.1-1 2.4-2.1-4.6-2.6-4.8-5.4-2.7-2.1 1.6-1.8 5.8 1 14.1.8 2.5 1.4 4.7 1.2 4.9s-2.1-.1-4.3-.5c-3.9-.7-3.9-.8-.7-.9 1.7 0 3.2-.3 3.2-.6 0-1.1-4.4-14.1-5-14.8-.7-.8-11 10-11 11.5 0 .4.6.8 1.4.8.7 0 2.9.7 4.7 1.6 2.4 1.1 2.7 1.3.9.9-1.4-.3-6.1-1.2-10.5-2s-9.4-1.7-11.2-2.1c-3-.6-3.2-.5-4.2 3.7l-1.1 4.4.4-4.3c.2-2.3.2-4.2 0-4.2-.7 0-11.7 8.2-12.9 9.5-.5.6-2.3 2-4 2.9-4.2 2.6-2.3.8 7.7-7.2l8.7-6.9-8.7-4.9c-4.8-2.7-11-6-13.8-7.4-4.6-2.2-5-2.7-5.1-5.9-.1-2.8.1-3.2.9-1.8 1.3 2.4 2.5 1.4 10.4-9.1 5.9-7.9 6.2-8.6 5.9-13-.4-4.9-1.4-10.4-3.5-18.7-.7-2.8-1.7-6.9-2.2-9.3-.6-2.3-1.4-4.2-1.9-4.2s-2.8 2.1-5.1 4.7c-2.4 2.6-6.4 6.9-9 9.7-2.5 2.8-4.5 5.3-4.3 5.6s5.8 3.2 12.4 6.5 12 6.4 12 6.8c.1.5-5.6-2.1-12.5-5.7-9-4.7-13-6.3-13.9-5.6-.9.8-1.1.4-.7-1.5.2-1.4.8-2.5 1.3-2.5 1.2 0 17.9-19.2 17.9-20.6 0-.7 1.5-2.5 3.4-4.1 1.8-1.7 5.3-6.2 7.7-10 2.4-3.9 6-9.5 8-12.4 5.9-8.9 8.9-13.8 8.9-14.5 0-.3.9-1.7 2-3.1 4-5.1 3.1-5.9-9.1-7.8-6.1-.9-11.3-1.4-11.6-1.1s-.7 2.2-.9 4.3-.7 6.9-1.1 10.8l-.8 7-.5-8.5-.5-8.5-4.9 7.5c-2.7 4.1-5.4 8.6-5.9 10.1-.6 1.6-2.2 2.9-4.5 3.6l-3.5 1.1 2.8-2.2c2.7-2.2 2.7-2.2 1.1-5.5-1-1.8-1.5-3.5-1.3-3.7.2-.3 1 .9 1.7 2.6.7 1.6 1.5 3 1.9 3s2.2-2.6 4.1-5.7c1.9-3.2 5-7.7 6.8-10.1s3.1-4.6 2.8-4.9c-.4-.4-3.5-.1-18.4 2.3-2.6.4-3.2.9-2.9 2.7.2 1.2.2 1.7 0 1.2-.8-2.2-5.2-3.9-15.8-6-6-1.2-17.3-3.9-24.9-5.9-14.1-3.7-14.7-3.7-28.1-2.1-2.9.4-3.5.2-2-.4 1.1-.5 3.2-1 4.8-1 5.6-.2 3.6-2-13.8-12.8-11.8-7.3-24.7-14.4-25.2-13.9-.2.2.1 2.5.7 5.1s.9 5 .6 5.2c-.3.3-1-2.3-1.7-5.6-.6-3.4-1.5-6.4-1.9-6.6-.5-.3-3.6.2-7 1.1-3.3.8-6.6 1.4-7.3 1.1-.6-.2 1.7-.9 5.1-1.7 3.4-.7 6.2-1.6 6.2-2.1 0-.4-1.9-1.8-4.2-3.2-2.4-1.3-12.5-7.4-22.5-13.5-10.1-6.1-18.9-11.2-19.7-11.4-.7-.2-5.5-5-10.7-10.8-5.1-5.8-9-10.3-8.6-10 .3.3 4.7 4.5 9.7 9.5l9 8.9 2.9-1.7c5.7-3.3 10.5-1.4 5 2l-3 2 2.8 1.8c1.5 1.1 5.3 3.3 8.3 5 3 1.8 11.7 7.1 19.3 11.8l13.9 8.7-.7-10.3c-.8-11.8-1.2-13.7-2.8-13.4-.7.1-1.3-1-1.5-2.6-.3-2 .1-2.7 1.3-2.7 1.5 0 1.6-.7 1-5.7-.4-3.5-1.3-6.2-2.3-7-1-.7-7.3-3.3-14.2-5.8-25.3-9.2-34.9-12.9-34.6-13.3.2-.2 4.2 1 8.8 2.6 13.8 4.9 30 10.9 35.6 13.1 2.9 1.2 5.7 2.1 6.2 2.1.6 0 1.1-3.3 1.2-7.3l.1-7.2.6 6.4c.3 3.6 1.1 6.6 1.6 6.8 1.5.5 22.8-11.5 24.4-13.8.7-1 2-1.9 2.8-1.9 1.6 0 16.5-7.9 17.4-9.3.8-1.2-.8-4.9-8.2-18.7-4.9-9-27-52-30.3-58.7-.6-1.3-1.4-2.3-1.7-2.3-.4 0-1 5.7-1.3 12.7-.4 7.1-.9 16.2-1.1 20.3s-.7 13.3-1.1 20.5c-1.2 24.6-2.1 37.1-2.2 31-.2-5.4 1-35.6 2.3-58.5.8-15.1.9-27.4.2-29.6-.6-1.6-2.1-2.3-8-3.2-10-1.7-26.3-4.6-45.7-8.3-30.2-5.7-40.2-6.9-42.7-5.4-2 1.3-2.1 1.3-1.9-1 .3-1.8-1.5-4.1-7.5-10-4.4-4.2-7.9-8.2-7.9-8.8 0-.7 3.7 2.5 8.1 7 4.5 4.6 8.5 8.3 8.9 8.3 1.1 0 7.5-8.3 16.2-21 3.5-5.2 9.9-14.5 14.1-20.7 4.3-6.1 7.7-11.6 7.7-12.1 0-.6-.9-1.4-2-1.7s-2-1.4-2-2.4c0-1.5-1.3-1.7-13.2-1.5l-13.3.3 17.5-1.6c9.6-.8 17.6-1.7 17.8-1.8.2-.2-3.2-4.7-7.5-10.2-10.2-12.6-13.7-17.3-13-17.3.3 0 4 4.4 8.3 9.7 12.2 15.2 14.7 17.7 17 16.5 1-.6 5.4-2.5 9.7-4.3 6.3-2.7 7.6-3.6 7.1-5.1-.3-1-.2-2.7.1-3.8.5-1.6 1-1.8 2.6-1 1 .6 1.9 1.9 1.9 3 0 1.6.4 1.7 3.8.8 2-.5 5.8-2 8.3-3.3 2.6-1.2 6-2.6 7.8-3 4.7-1 3.7-2.5-1.6-2.5-2.7 0-7.5-.5-10.8-1-19.8-3.1-32.5-5.1-36.3-5.7-2.3-.3-4-.8-3.8-1.1.3-.2 5.6.3 11.8 1.1 29.3 4.2 47.7 6.1 48.6 5.2.4-.4.1-1-.5-1.2-.7-.3-1.3-.9-1.3-1.5 0-.5-1.2-2.5-2.6-4.4-4.3-5.6-2.1-3.9 2.7 2.1 2.9 3.6 4.9 5.3 5.9 5 .8-.4 7.3-2.2 14.5-4 7.1-1.9 15.5-4.4 18.5-5.4l5.5-2-3-1.1c-1.7-.6-4.5-1.2-6.3-1.4-2-.1-3.8-1-4.8-2.4-1.5-2.1-1.4-2.2 1.5-2.2 1.8 0 4 1 5.6 2.4m-648 176.2c2.4 12.9 5.8 26.3 6.5 25.9.4-.3.5.7.2 2-.5 2.8 1.2 3.4 2.2.9.4-.9.9-1.4 1.3-1.1.3.4-.2 1.8-1.1 3.1-.9 1.4-1.6 2.7-1.6 3 0 .5 17.3 12 31.5 20.9 5 3.2 10.1 5.7 11.3 5.7s6.8-1.9 12.4-4.1c5.7-2.3 13.2-5.2 16.8-6.4 3.6-1.3 11.2-4.2 17-6.5s13.9-5.5 18-7c4.1-1.6 10.4-4.1 13.8-5.5 3.5-1.5 6.6-2.4 6.8-2.2.5.5-2.4 1.7-26.6 11.2-35.1 13.7-47.9 18.8-53 21.1l-5.6 2.5-2.2 12.7c-2.3 12.7-3.5 19.3-4.6 24.4-.4 1.6-.2 2.8.4 2.8.5 0 4.3-2.1 8.4-4.8 4.1-2.6 15.3-9.1 24.9-14.5 14.3-7.9 18.4-10.7 22.3-15.2 6.8-7.7 10.1-11.8 10.4-13 .4-2 2.2-3.4 3.6-2.8.9.3 5.5-3.6 12.9-11.1 6.3-6.4 11.5-11.4 11.5-11 0 .3-5 5.7-11.1 12-6 6.3-10.7 11.9-10.4 12.4s-.2 2.6-1.1 4.6c-1.3 2.7-2.2 3.4-3.7 3-1.1-.3-3.5.5-5.6 1.9-4 2.5-11.7 10.2-11 10.9.2.2 5.8-.9 12.4-2.5s12.7-2.8 13.5-2.6-1.9 1.1-6 2c-6.3 1.5-11.2 2.9-18.8 5.3-.9.2 2.9 5.1 10 12.7 6.2 6.7 16.5 18 22.8 25 9.4 10.4 12.1 12.8 14.9 13.3 3.1.6 3.3.8 1.4 1.5-2.4.9-3.8.7-7.3-.9-1.4-.7-9.5-2.7-18-4.6-31.1-6.8-60.7-13.6-68-15.5-9.4-2.6-10-2.6-10 0 0 1.2-.9 5.2-2 8.8-2.7 9.3-5.2 22.1-4.6 23.7.3.8 2.7 1.4 6.8 1.7l6.3.3-7.4.2-7.3.2.6 2.7c.5 2.1.4 2.4-.4 1.3-.5-.8-1-2.3-1-3.3 0-.9-.5-1.7-1.1-1.7s-.3-.7.5-1.6c.9-.8 1.6-2.5 1.6-3.7s1.5-8.3 3.4-15.7c1.8-7.4 2.9-13.7 2.4-13.9-.5-.1-1.7.4-2.6 1.2s-6.1 4.4-11.4 8c-5.4 3.6-11.6 7.9-13.8 9.7-2.3 1.8-4.3 3.1-4.5 2.8-.6-.5 9.1-8 18.4-14.2 10.2-6.7 13.4-9.3 12.9-10.5-.1-.5-5.5-5.8-11.8-11.7l-11.5-10.7-.6 2.9c-.4 1.6-1.7 6.9-2.9 11.9-1.3 4.9-2.7 11.7-3.3 15-.5 3.3-1.5 7.6-2.3 9.5-.7 1.9-1.3 5.2-1.3 7.2.1 3 .5 3.8 1.9 3.8 1.1 0 2.1.4 2.4.9.7 1-7.1.7-8.1-.2-.3-.4-1.5-.2-2.7.4-1.9.9-1.9.8.2-.8l2.3-1.9-4.3-6.7c-4-6.1-6.3-7.9-6.3-4.7 0 .7-.4 1.5-1 1.7-1.4.4-1.3-5.6.1-6.5 1-.6 3.4-8.5 3.4-11 0-.5-.9-1.2-2-1.5-1.5-.4-2.4.2-3.5 2.1l-1.5 2.7.6-3.6c.4-2.8.2-3.6-1-3.6-.8 0-1.3.4-1 .9.3.4 0 .8-.5.8-.6 0-1.1.6-1.1 1.4s-.4 1.6-.8 1.8c-.5.1-2.8 3.7-5.1 7.8s-3.9 6.4-3.5 5 .7-3.3.6-4.3c0-.9.2-1.6.6-1.3.4.2.8-.6.9-1.7.1-1.2.7-4.6 1.4-7.5 1.2-4.8 1.1-5.6-.9-9.7-2.5-5.1-2.8-9.9-1-15.6 1.3-4.5.4-9.7-4.4-24.7-1.6-5.2-2.7-9.6-2.5-9.8.3-.3 1.9 4.1 3.7 9.7 2 6.4 3.5 9.7 4 8.9.6-.9.9-.8 1.4.6.5 1.5 7.8 6.2 12.7 8.2 1.4.6-.9-5.6-5.1-13.9-2.3-4.4-3.9-8.6-3.7-9.2s3 4.4 6.3 11.1c3.5 7.3 6.4 12 7.1 11.8.6-.3 1.3.5 1.5 1.7.3 2.3 5.7 4.6 14.2 6.1l3.9.7-.6-3.8c-.5-3.6.2-2.8 1.7 2 .5 1.7 1 1.6 5.8-1.1 2.9-1.6 10.2-5.5 16.1-8.7l10.8-5.7-2.8-2c-4.5-3-20.7-13.4-29.4-18.8-5.7-3.6-7.9-4.5-7.6-3.2.3.9.8 3.5 1.1 5.7.4 2.2.9 5.3 1.3 7 .3 1.6.3 2.8 0 2.5s-1.3-4.1-2.2-8.5c-1-4.7-2.3-8.5-3.3-9.3-1.3-1-1.4-1.6-.5-3.1 1-1.5.5-5.1-2.2-17.8-4-18.9-4.9-24-4.1-23.2.3.3 1.2 4.1 2.1 8.5M436 305c-7.4 5.9-10 8.2-10 8.8 0 .4 2.4.7 5.3.8 2.8 0 6.3.2 7.7.5 2.3.4 2.5 0 3-4.1l.6-4.5.8 5.3c.7 4.4 1.3 5.5 3.7 6.8 3.9 2 6.1 3.8 13 10.4l5.7 5.5.6 8.5c.6 9.5-.6 8.3-2.5-2.5-.6-3.6-1.2-6.5-1.4-6.5s-1 .3-1.9.6c-1.8.7-2.3 7.9-.6 8.9 1.4.9 1.2 2.5-.2 2.3-.8-.2-1.3.7-1.2 1.9.3 10.5.6 12.3 1.9 13.7.8.8 1.5 2 1.5 2.7s.3.9.7.6c.3-.4 1.2.1 1.9 1.1 1.3 1.6 1.3 1.6 1.4-.1 0-.9.4-1.7.9-1.7.4 0 .6 1.1.4 2.4-.4 1.8-1 2.3-2.6 1.9-2.2-.5-2.2-.5-.2 1 1.2 1 1.5 1.6.7 1.7-.9 0-1.1.7-.7 2.1.7 2.1.7 2.1-1.5-.1-1.2-1.2-2.6-2-3.2-1.8s-1.7 2.9-2.5 5.8c-1.2 4.7-2.3 6.7-3.5 6-.2-.1-2.3 1.7-4.7 3.9-2.4 2.3-5 4.1-5.8 4.1-.7 0-1.3 1.1-1.3 2.5s-.5 2.5-1 2.5c-.7 0-.7-1-.3-2.8 1.7-5.8.8-15.5-1.9-21-1.9-4-2.2-5.2-1.1-5.2 1 0 1.3-.8.9-2.8-.2-1.5-.8-6.2-1.1-10.6-.5-6-.4-8.1.6-8.7 1.1-.6 1.1-1.6.2-5.1-.7-2.7-.8-4.7-.2-5.3q.9-.75.9.9c0 1 .8 3 1.9 4.4 1 1.5 2.8 4.5 4 6.7 3.9 7.2 9.9 15.5 11.2 15.5.4 0 .7-3.7.8-8.3v-8.2l-4.7-4.3c-2.6-2.4-6.3-5.5-8.2-7s-4.1-3.2-4.8-3.9c-.6-.6-3.2-2.2-5.7-3.4-5-2.5-5.3-3.7-.6-2.1 3.1 1.1 3.7.7 2.3-1.5-1.2-2-12.6-7.2-13.3-6.1-.3.5-.9.9-1.3.8-.3 0-1.4.4-2.4 1-1.5 1-1.5 1.1 0 .6 2-.6 2.6 1 1.7 4.9l-.7 3-.1-3.3c-.1-4-1-4-3.6-.2-1.1 1.6-2.7 3-3.5 3-1 0-.6-.9 1.3-2.5 3.6-3.4 3.4-4.9-.3-3-5.1 2.7-3.3.1 2.5-3.4 2.9-1.8 8.9-5.9 13.2-9.2 4.3-3.2 8.3-5.8 8.8-5.8.6 0-.1.9-1.5 1.9m-227 98.2c-.8 1.8-4.4 9.4-8.1 17-9.4 19.1-9.4 18.8-1.2 12.8 16.8-12.4 19.7-15.2 20.9-20.6 1.3-6.1 2.6-9.1 1.9-4.7-.2 1.8 0 3.5.5 3.8.6.4.7 1.3.2 2.1-.8 1.4 1.2 12.7 3.2 19.1.8 2.4-.8 3.3-1.8 1-.4-.6-.4-.1 0 1.3.3 1.4.8 3.6 1.1 4.9 1.1 4.5 6.1 10.5 19.3 23.4 7.3 7.1 13.1 13 12.9 13.2s-4-3-8.4-7.2c-4.4-4.1-11-10.3-14.7-13.8-3.8-3.4-6.8-6.7-6.8-7.3s-.5-1.4-1-1.7c-1.8-1.1-.6 19.5 1.3 23.2.9 1.8 1.7 3.8 1.7 4.5s.6 2.5 1.4 3.9c1.8 3.6 3 10.3 1.7 9.4-.6-.3-1.1-1.5-1.1-2.5s-.4-2.1-.8-2.4c-.5-.3-1.5-3-2.2-6.1s-1.7-5.8-2.1-6c-.6-.4-1 10.1-1.1 26-.1 2.3.9 6.3 2.1 9 1.2 2.6 1.9 5 1.6 5.3-.4.5-1.1-.9-4-8.3-.6-1.5-1.2-.2-2.6 5.5-.9 4.1-1.5 7.8-1.2 8.2.5 1 5 3.3 8.2 4.3 2.3.7 2.4.6 1.7-2.6-.6-3.2-.6-3.3.8-1.3.8 1.1 1.8 3.4 2.2 5s1.6 4.6 2.6 6.7c2.7 5.5 1.7 5.5-1.1.1-1.6-3-2.9-4.3-3.8-3.9-.9.3-1.3 0-1-.7.6-1.9-9.4-5.8-11.3-4.4-.8.6-1.2.6-.8.2.4-.5-.2-2.6-1.4-4.7s-1.9-4.2-1.5-4.6c.4-.3.7.1.7 1 0 1 .4 1.7.9 1.7.9 0 2-8.9 2.2-17.4.1-2.8.5-6.5.8-8.1.4-1.7.6 1.5.4 7-.1 5.5-.5 11-.8 12.2-.3 1.3-.2 2.3.3 2.3s1.4-2.5 2.1-5.6c1.5-6.7 2.4-50.7 1-49.9-.5.4-.9-.6-1-2.2 0-2.3-.3-2-1.8 2.1-.9 2.8-2.4 5.2-3.2 5.5-1.1.3-1.1.1-.3-1 1.1-1.3 3.6-8.9 3-8.9-1.3 0-13.9 7.7-13.8 8.5 0 .6 14.4 6.2 16.8 6.5.1 0 .2 2.2.3 5 0 3-.4 5-1 5-.7 0-.9-1-.5-2.4 1.1-4.5-.7-7-6.6-8.9-6.5-2-7.2-2.1-6.2-.5.5.7-.5.3-2-1-1.6-1.2-3.8-2.2-5-2.3-1.1 0-1.5-.3-.8-.6.8-.3-.5-2.2-3.6-5.1-7.4-7.2-8.5-9.4-1.4-3 3.5 3.2 6.9 5.8 7.5 5.8.7 0 4.6-1.9 8.7-4.2l7.5-4.2-4-.8c-8.4-1.6-25-3.6-25.8-3.1-.9.5-.6 2.9.7 6.8.5 1.3.2 1.2-.8-.5-3.1-5.1-2.6-6.9 8.6-30 3.9-8 7.7-16 8.5-17.9 1.8-4.3 3-3.3 1.3 1.1m510.7 1.7c1.8.5 3.3.6 3.5.1.2-.4 1.4-.3 2.8.3 2 .8 2.2 1.1.8 1.4-2.3.6-2.3 1.5.3 6.5 2 3.8 2.2 4 3.5 2.4.7-1 1.9-1.6 2.6-1.4.7.3 2-.5 3-1.6 1.3-1.7 1.9-1.8 2.9-.9 1 1 1.8.7 3.7-1.5 1.3-1.5 2.1-2.2 1.8-1.5-.9 1.6 3.7 4.5 5.8 3.7.9-.3 1.6-.2 1.6.3 0 .6-1.9 1.6-4.2 2.2-7.8 2.4-16.3 5.4-17.2 6.2-1.4 1.3-3.6-.2-3.6-2.5 0-2.7-4.2-10.6-5.6-10.6-1.1 0-6.4-3.9-5.4-4 .3 0 1.9.4 3.7.9m285.2 166.4c-1.4 1.2-4.1 3.4-6 4.9l-3.4 2.7 7 .2 7 .1-6.5 1c-3.5.5-6.6 1.1-6.8 1.3-.4.4 6.8 7.3 13.6 13 2.8 2.3 3.6 2.6 4.4 1.4.8-1.1.9-1 .4.3-.8 2.6 1.3 2.2 2.3-.5.5-1.2 1.2-4.8 1.5-8 .4-3.2 1-5.6 1.3-5.4.3.3-.1 4.7-.7 9.7l-1.3 9-13.1 9.3c-15.4 10.9-18.6 13-19.2 12.4-.2-.2 4.2-3.5 9.8-7.2 5.7-3.8 12.4-8.5 15-10.5l4.6-3.7-4.1-4c-6.3-5.9-14.3-12.3-15.5-12.3s-3.2 4-5.6 11c-1.2 3.5-1.5 3.9-1.6 1.9 0-1.4.9-5.2 2-8.5 1.1-3.2 1.8-6.4 1.6-7.1-.3-.7-2-1.9-3.8-2.7l-3.3-1.4 4 .5 4.1.5-.4-4c-.2-2.5.1-4.3.9-4.7.9-.6 1.1-.3.6.8-.3.8-.3 2.7.1 4.2l.7 2.6 6-4.5c6.3-4.8 8.7-6 4.4-2.3M1203 674.4c0 1.3 2.7 3.1 4.2 2.8.7-.2 3.8 7.2 3.8 9.3 0 3.7 1.8.9 4-6 1.9-5.9 2.8-7.5 4.3-7.5 1.4 0 1.7.4 1.2 1.7-5.8 14.7-8.2 23.4-6.2 22.9.7-.1.9-.1.5.1-1.2.7-.9 3.1.4 3.9.8.5.9.1.4-1.2-.5-1.4-.4-1.6.5-.7.6.6.8 1.6.5 2.2-.9 1.5-3.3.3-3.9-2-.3-1-1.4-1.9-2.5-1.9-1.5 0-2.5-1.5-4.2-6.3-1.2-3.4-3.3-9-4.6-12.5-2.2-6-2.3-6.2-.4-6.2 1.1 0 2 .6 2 1.4m26.6 6.2c2.6 0 4.7.6 5.8 1.7 1 .9 2.3 1.7 3 1.7.8 0 1.9.7 2.6 1.5 1.1 1.3 1.6 1.1 4-1.5 3.9-4.1 7.1-4.7 12.2-2 5.3 2.7 8.8 5.9 8.8 7.9 0 1.4-.1 1.4-1 .1-.8-1.3-1-1.2-1.1.5-.1 1.6-.2 1.6-.6.3-.8-3-2.8-2.7-3 .6-.1 1.9-1.2 4-2.8 5.3-3.1 2.7-3.1 3.3-.1 3.3 1.5 0 3.3-1.1 4.5-2.6s2.1-2.3 2.1-1.8c0 1.8-4.5 5.4-6.7 5.4-1.5 0-2.2.4-1.7 1.1 1.1 1.8-3.6-1-8.6-5-3.8-3.1-5-3.6-7.5-3-1.6.4-2.6.7-2.1.8.4 0-.2 1-1.5 2-3 2.4-1.8 3.8 1.8 2.2 2.7-1.1 2.7-1 .8.4-1.3 1-3 1.4-4.8 1.1q-2.85-.6-2.1.6c.9 1.4-.7.5-5.4-3-2.2-1.7-3.1-3-2.7-4.1.3-.8.3-1.2-.1-.9-.3.4-1.3 0-2.2-.8-1.2-1.3-1.3-2.2-.4-5.1.6-1.9.8-4.2.5-5.1-.4-1.5-.3-1.5.6-.2s1.2 1.1 1.7-.8c.4-1.3 1-2 1.3-1.5s2.4.9 4.7.9m-518.3.8c.9.7 3.1 1.2 4.7 1q3-.3 2.7.9c-.1.8 1.4 1.3 4.3 1.5 2.4.2 4.8.9 5.3 1.5.5.9 1.1.7 2.1-.6 1.6-2.1 4-2.3 3.2-.2-.3.8-.1 1.5.4 1.5.6 0 1 .6 1 1.3 0 2.6-2.7 4.9-6 5.2-1.9.1-3.6.7-3.8 1.4-.2.6-.9 1.1-1.5 1.1-.7 0-3.5 1.6-6.2 3.6-2.8 1.9-5.9 4-7 4.6-2 1.1-2 1-.2-1 1-1.1 3.7-3.3 6-4.9 7.8-5.2 11.3-10.2 6.3-8.9-1.3.3-2.6.2-2.8-.4-.2-.5-2.8-1.1-6-1.4-6.6-.5-6.5-.7-7.4 11.4-.4 5.5-.3 7.1.5 6 .9-1.3 1.1-1.3 1.1.2 0 1-.9 2.2-2 2.8s-2 .7-2 .3-.9.5-2 2.2c-2.3 3.5-2.7 1.8-.6-2.8 2.4-5.5 3.4-9 4.2-14.2 1.2-7.6 1.1-8.9-1.1-10.8-2-1.7-2-1.7.8-1.1 1.7.4 2.7.2 2.7-.5q0-2.1 3.3.3"/><path d="M442.5 88.6c-13.2 2.9-26.8 5.9-30.2 6.5-3.5.7-6.3 1.5-6.3 1.8 0 1 42.9 29.3 44.6 29.5 1.8.1 5.6-8 9.6-20.4 1.2-3.6 3.6-9.9 5.5-14.2 1.8-4.2 3.3-7.9 3.3-8.2 0-.9-.7-.8-26.5 5M470 85.3c0 .8-1.4 4.1-3 7.6-1.8 3.7-3.1 8.1-3.3 11-.1 3.5-.6 4.7-1.5 4.3-.7-.2-1.2-.1-1.1.4.2.5-.5 3.5-1.5 6.7-1 3.1-1.9 7.1-2.1 8.8-.4 2.5-.1 2.9 1.3 2.5 1-.3 4.4-1.3 7.6-2.1 3.3-.9 7.3-2.2 9-2.9 1.7-.8 8.1-3 14.1-4.9 6.1-2 16.1-5.3 22.4-7.5l11.4-3.9-8.4-4c-4.6-2.3-12.7-5.8-17.9-7.8-27-10.6-27-10.6-27-8.2M401 98.8c0 .4-3 2.8-6.7 5.2-3.8 2.5-7.5 5-8.3 5.7s-4.5 3.4-8.3 6.2c-8.5 6.2-13.7 10.8-13.7 12 0 .5-1.3 1.4-3 2-1.6.5-3 1.3-3 1.6s.4.4.8.1c.5-.3 14.2-.8 30.5-1.1 16.2-.3 30.3-.8 31.1-1.1 1.8-.7 2.2-3.9.6-4.9-.5-.3-1-1.5-1-2.7 0-1.7.4-1.9 2.8-1.3 7.4 1.8 8.9 1.8 9.5-.4.4-1.6-.4-2.7-3.1-4.6-2.1-1.4-8.4-5.9-14.2-10-9.5-6.7-14-8.9-14-6.7M535 111.9c0 .5.3 1.1.8 1.3.4.1 3.6 3.7 7.1 7.8s7.4 8.4 8.5 9.5c1.2 1.1 3.9 4.5 5.9 7.5 3.3 4.9 14.5 18.3 24.5 29.5l3.6 3.9 12.5-4.3c16-5.6 21.3-8 20.9-9.3-.4-1.1-4.8-3.7-23.3-14.1-10.2-5.6-18.4-10.1-30-16.2-4.4-2.4-10.9-6-14.5-8-8.6-5-15-8.5-15.6-8.5-.2 0-.4.4-.4.9M318.5 145.4c-35.6 12.1-36.8 12.7-36.1 16.4.3 1.5 1.5 8.3 2.6 15.2 1.2 6.9 2.5 15 3 18 .6 3 1 5.6 1 5.8s.8.1 1.8-.2c2-.6 3.7.3 4.4 2.4.6 1.8-1.8 4.4-3.2 3.5-.6-.4-1 1.1-1 3.9 0 2.5.4 4.7.8 5 .5.3 2.2-1.6 3.8-4.2 2.6-4.2 19.1-26.9 27.8-38.4 2-2.5 3.6-5.1 3.6-5.7s.4-1.1.8-1.1c.5 0 1.8-1.8 3.1-4 1.2-2.2 2.8-4.6 3.6-5.3 2.5-2.6 15.4-22 14.3-21.6-.2 0-13.8 4.7-30.3 10.3M348 141.2c-1.9 2.9-7.6 10.9-12.5 17.8-5 6.9-10.8 15-13 18.1s-7.4 10.1-11.5 15.5c-10.9 14.2-16.2 22.4-15.6 23.9.2.7-.2 1.6-1.1 1.9-1.4.6-1.2 1.1 1.2 3.6 1.6 1.7 5.3 4.9 8.3 7.2 3 2.4 8.9 7.3 13.1 10.9s12.8 11 19.1 16.3c6.3 5.4 12.6 10.8 14 11.9 1.4 1.2 5.9 4.9 10 8.2 10 8 11.7 9.3 16.6 13.7 6.1 5.5 6.7 5.1 6-3.5-.3-3.9-.7-18.5-1-32.2-.4-24.7-.4-24.8.5-7 .5 9.9 1.1 24.9 1.5 33.2l.6 15.3h9c4.9 0 11.9.4 15.6.9 11.3 1.6 21.4 2.2 20.8 1.2-.3-.5.4-1.2 1.7-1.6 3.4-1.1 5.2-1 4.9.3-.1.7.2 1.2.8 1.2 3.3 0-.9-7.7-28.2-51.8-4.6-7.3-12.4-20.1-17.4-28.3-5-8.3-9.5-15.2-9.9-15.2-.4-.1-.7 4.3-.7 9.8.1 12.9-.6 11.1-1-2.5-.3-9.7-.5-10.5-2.4-10.8-1.1-.2-16.8 3.3-35 7.7-36 8.7-44.3 10.5-45 9.8-.2-.2 5.5-1.8 12.8-3.6 67-16 67.9-16.3 67.2-18.5-.3-1.2-3.8-9.3-7.7-18.1-3.8-8.8-8.2-19.2-9.7-23-3.3-8.7-7.3-17.5-8-17.5-.3 0-2.1 2.4-4 5.2"/><path d="M385.7 205.1c1.7 3 6.2 10.4 10 16.6 3.7 6.1 11.2 18.5 16.7 27.5 5.4 9 11.8 19.3 14.2 23s4.4 7.2 4.4 7.7.3 1.1.8 1.3c1.2.5 4.7 6 7.1 11.2 1.2 2.6 2.4 4.7 2.6 4.4.4-.4 1.2-9.9 2-24.3.3-5.5 1.2-18.3 2.1-28.5.8-10.2 1.4-21 1.2-23.9l-.3-5.4-7-1.8c-17.5-4.5-48.4-11.9-52.4-12.5l-4.5-.7zM449.5 215.9c-.3.2-.5 3.1-.5 6.3s-.9 15.3-2 27c-1.1 11.6-2.3 27.4-2.5 35.2l-.5 14.1 6.2-6.5c9.3-9.6 19.5-20.7 26.3-28.4 3.3-3.7 6.9-7.8 8-9 1.1-1.1 5.4-5.9 9.5-10.6s9.9-11.1 12.9-14.2c3.6-3.8 5.2-6.1 4.5-6.8-.5-.5-11.5-2.1-24.4-3.5s-26.5-2.9-30.3-3.3c-3.7-.5-7-.6-7.2-.3M509 229.8c-2.5 2.6-6.9 7.6-10 11.2-3 3.6-8.2 9.4-11.6 13s-7.8 8.5-10 11c-2.1 2.5-7 7.9-10.9 12-3.8 4.1-8.1 8.9-9.4 10.5-1.3 1.7-4 4.7-6 6.9-3.4 3.6-3.5 3.8-1.1 3.3 1.4-.4 6.1-.9 10.5-1.2l8-.6-4 1.7c-2.2 1-4.1 2.1-4.3 2.6-.2.4-1.1.8-2 .9-4.6.2 6.7 2.6 39.8 8.4 22.9 4.1 24 4.1 23.6 1.7-.2-.9-.7-5.8-1.1-10.7-.4-5-1.2-9.6-1.7-10.3-.7-.8-.7-1.2-.1-1.2s.9-1.7.7-3.8c-.4-5.1-2.1-24.5-3.4-37.7-.5-6.1-1-13.3-1-16.2 0-2.8-.4-5.4-.8-5.7-.4-.2-2.8 1.7-5.2 4.2M517 232.6c0 4.1.9 16.1 1.9 26.7 1.1 10.5 2.2 23.5 2.6 28.7.8 13.8 1.4 16 4.2 17.3s.9 3 23.8-22.2c6.6-7.2 14.4-15.7 17.2-18.9 2.9-3.1 5.3-6 5.3-6.5 0-.4-1.1-.7-2.5-.7s-2.5-.5-2.5-1c0-.6 1-1 2.2-1 3.4 0 8.8-2.3 8.8-3.7s-5-3.8-23.5-11.3c-6.6-2.6-16.4-6.7-21.9-9-5.4-2.3-11.1-4.6-12.7-5l-2.9-.9zM893.4 103.1c-1.8.5-3.4 1.7-3.7 2.9-.3 1.1-1.1 2-1.7 2-.7 0-1-.7-.6-1.5.3-.9 0-1.5-.9-1.5-3.3 0-22.3 5.6-23.9 7-.5.5-1.5.6-2.2.3-.8-.3-1.4-.2-1.4.3 0 .7 8.4 11.9 10 13.4.3.3 4.5 5.1 9.3 10.7 7.7 9 11.5 12.1 11.8 9.5 0-.4.2-1.6.5-2.7.2-1.1.5-3.2.6-4.8.1-1.5.5-2.7.8-2.7.7 0 4-16.3 4-19.6 0-1.2.7-3.5 1.5-5 1.8-3.6 2-9.4.3-9.3-.7 0-2.7.5-4.4 1M900.8 106.2c-.3 1.8-1.2 6.7-2.1 10.8s-1.8 8.8-2.1 10.5c-.2 1.6-1 5.5-1.6 8.5-1.2 6-2.2 14.6-1.4 11.7.5-1.6.7-1.6 1.7-.4 1 1.3 2.1 1.2 7.7-.8 3.6-1.3 5.9-2.4 5.3-2.4-.7-.1-1.3-.6-1.3-1.2 0-.5.5-.7 1-.4.6.4 1.5-.7 2.1-2.4 1.1-3.2 3.3-4.1 4.2-1.9.5 1.2 8.6-6.7 8.7-8.4 0-.4 1.1-.3 2.5.2 1.7.7 2.5.6 2.5-.1 0-.8.5-.7 1.5.1.8.7 1.5 1.9 1.5 2.6 0 .8.6 1.1 1.5.8.9-.4 1.5 0 1.5 1 0 .9.8 1.6 1.7 1.6 1.1 0-1-2.8-6.2-8.1-9.4-9.6-26.3-24.9-27.5-24.9-.4 0-1 1.5-1.2 3.2M943 138.6c0 .2.7 1.6 1.6 2.9.9 1.4 1.3 2.5 1 2.5-.7 0 9.4 19.6 12.3 24 1 1.4 2.5 4.4 3.6 6.7 1 2.4 2.1 4.3 2.5 4.3.8 0 3.5-5.7 6.6-13.9 1.4-3.6 2.8-6.9 3.3-7.5 1.1-1.4 4.2-12.9 3.6-13.4-.3-.3-1.2.5-2.2 1.7-1.8 2.1-1.8 2.1-3 .3-1.1-1.8-.8-2 2.6-2.6 3.8-.6 6.7-2.7 5.4-3.9-1-1.1-15.5-.8-14.8.2.8 1.5-1.3 2.3-3.8 1.5-2.1-.7-2.1-.7-.2-1.5 1.7-.7 1.5-.8-1-.8-1.6 0-6.3-.3-10.2-.5-4-.3-7.3-.3-7.3 0M980.2 145.7c-1.1 2.1-2.5 5.6-3.1 7.8-.7 2.2-1.6 4.9-2.1 6s-2.1 4.9-3.5 8.5c-1.5 3.6-3.3 8-4.1 9.8-1.9 4.1-1.3 5.9 3.9 11.5 2.3 2.5 6.4 6.9 9.1 9.9 2.7 2.9 7.2 7.8 10.1 10.8 2.8 3 9.1 10.1 13.9 15.8 4.9 5.6 9.1 10.1 9.3 9.8.2-.2-.9-4.6-2.6-9.7-1.6-5.2-4.4-14.1-6.2-19.9-6.3-20.9-20.8-62-22.4-63.8-.2-.2-1.2 1.3-2.3 3.5M988.3 152.7c1.3 2.1 14.8 42 19.8 58.4 2.7 9.2 5.8 18.8 6.8 21.4l1.8 4.7 3.8-5.4c2.2-2.9 4.4-6.9 5.1-8.7 1-3.1.9-3.9-1.2-7.3-1.3-2.1-2.4-3.9-2.4-4.1 0-.5-17.5-32.2-21.4-38.7-1.4-2.5-4.4-8-6.6-12.2s-4.5-8-5.1-8.4q-1.05-.6-.6.3M967.9 189.5c-.3 2.3 8.3 47 9.3 48 .5.6 36.1 2.6 36.6 2.1.4-.5-4.5-6.2-24.3-28-15.7-17.4-21.4-23.2-21.6-22.1M966.6 206.7c-.4 1.8-.4 3.8.1 4.5.9 1.6.6 4.3-1 8-1.2 2.9-2.7 3.7-2.7 1.5 0-.8-.3-.8-.9.2-1 1.6.7 6.3 2 5.5.5-.3.9-.1.9.5 0 1.4 6.8 8.1 8.1 8.1.7 0 .9-1 .4-2.7-.3-1.4-1.5-7.5-2.6-13.4-1-5.9-2.3-11.7-2.8-13-.8-2.3-.9-2.3-1.5.8M858 215.7c0 .2 2.7 5.4 5.9 11.6 6.8 12.9 7.8 14.8 16.2 31.7 3.4 6.9 6.9 13.8 7.9 15.5.9 1.6 3.9 7 6.6 12l4.9 9 1-7.5c.6-4.1 1.1-13.5 1-20.7 0-7.3.3-13.4.6-13.5.4-.2 1-7.7 1.4-16.8l.7-16.6-4.4-.2c-2.3-.1-10.8-1.1-18.8-2.2-17.6-2.3-23-2.9-23-2.3"/><path d="M1027 223.3c0 .7-2 4.6-4.5 8.7-5.1 8.7-6.1 7.6 10.4 11 6.3 1.3 11 2.5 10.5 2.7s-6.5-.8-13.3-2.1l-12.3-2.3.5 4.3c.2 2.4.1 4.4-.2 4.4-.4 0-.7 10.8-.7 24 .1 13.2-.2 24-.6 24s-1.8-.9-3-2.1c-2.7-2.4-12.4-8.9-13.4-8.9-.4 0-1.5-.7-2.4-1.5-3.7-3.3-5.6-2.7-10.9 3.8-2.8 3.4-5.1 6.8-5.1 7.4 0 .7-.7 1.3-1.5 1.3s-1.5.4-1.5 1c0 .5-.4 1-1 1-.5 0-.7-.6-.4-1.4.4-1 0-1.3-1.3-1-6.4 1.4-19.3 4.7-22 5.5-2.8.9-3.1 1.3-2.3 2.9.6 1 1 2.5 1 3.2-.1.7-.7.1-1.5-1.3-2.1-3.9-5.5-4.7-21-5.3-7.8-.3-17.1-.8-20.8-1.2s-6.7-.4-6.7-.1c0 .8 4 7.8 5.5 9.7 1.6 1.9 3.7 8.2 2.6 7.5-.5-.2-1.8-2.4-2.9-4.7-2.7-5.9-8.1-12.4-8.6-10.7-.2.8-.7 3.6-1 6.4-.4 2.7-1.1 5.4-1.7 6-.8.7-1-.4-.5-4 .4-2.8.9-5.8 1.2-6.8.3-.9.1-1.7-.4-1.7-1 0-9.4 4.8-18.2 10.3-3 1.9-9.7 5.7-14.7 8.4-5.1 2.6-9.1 5.2-9 5.7.4 1.1 32.4 16.5 34.5 16.6.6 0 1.2-1 1.2-2.3 0-1.2.5-2.9 1.1-3.7.8-1.1.9-.5.4 2.4l-.6 3.9 7.3-.7c7.6-.8 20.7-3.2 21.6-4 .2-.3-1.7-4.6-4.2-9.7-2.6-5-4.5-9.3-4.3-9.6.3-.2 2.6 3.5 5.2 8.2s5 8.5 5.5 8.3c.4-.2 5.1-5.8 10.5-12.6 5.3-6.7 9.9-12.2 10.1-12.2.3 0-1.4 2.7-3.6 6-4.7 6.9-6.2 10.1-3.9 8.4.8-.5 4.7-2.3 8.7-3.8 3.9-1.5 7.2-3.2 7.2-3.7 0-.6.5-.7 1-.4.6.4 1-.9 1-3.2l.1-3.8 1.3 3c.9 2.2 1.9 3 3.9 3 1.5.1 2.7-.3 2.7-.7s.6-.8 1.3-.8c.8 0 3.6-2.7 6.2-6s5-6 5.1-6c.4 0-3.3 6.7-5.2 9.5-1.7 2.4-1.8 3.1-.1 3.3.6 0 3 .6 5.2 1.2 7.5 2.2 8 2 7.8-2.5l-.3-4 2.5 5.5c2 4.2 2.8 5.1 3.5 4 .9-1.3 1-1.3 1.1 0 .1.8.1 1.8 0 2.2 0 .5.8.8 1.9.8 1.5 0 2.7-1.5 4.5-5.7 4.5-10 4.6-9.6-3.4-14.3-3.9-2.3-7.1-4.4-7.1-4.6 0-.3 3 1.2 6.8 3.1 5.1 2.8 6.8 3.3 7 2.2.2-.8-.9-5.6-2.3-10.7s-2.4-9.5-2.1-9.7c.2-.3 1 1.5 1.6 3.9 1.1 4 1.8 6.3 3.4 11.2.6 1.8.7 1.8 2.5-.2 1.3-1.6 2.1-1.8 2.9-1 .9.9.7 1.7-1 3.5-4.5 4.8 1 3.5 6.4-1.5 1.5-1.4 3-2.3 3.4-2 .4.5-7.6 7-11.4 9.4-.2.1.1 1.2.8 2.3 1.2 2.4.3 2.8-1.4.6-.9-1.3-1.6-.1-3.9 6.2-4.1 11.2-4 11-2.3 11.6 2.4.9 17.3 1.8 15.6 1-.8-.5-1.6-1.9-1.8-3.2l-.2-2.4 2.5 2.7c2.5 2.7 2.7 2.7 5.1 1.1 5.7-3.7 12.6-7.5 13.6-7.5.7 0-2.6 2.4-7.2 5.3-9.3 5.9-9.9 7.1-6.7 14.1.8 1.7 1.7 3.8 2 4.6.4 1.1.6 1 .6-.4.1-1.1.6-1.6 1.5-1.3.9.4 1.2 0 .9-1.3-.3-1 0-2.1.6-2.4.7-.5.9 0 .5 1.1-1.2 3.4 2.1-1.8 6-9.5 6.5-12.6 6.5-14.9.5-20-1.6-1.3-3.4-3.4-4-4.6-.7-1.3.4-.6 3 1.9l4.1 3.9.1-3.4.2-3.5.7 3.5c1.2 6 2.1 7.9 3.6 7.3 1.8-.7 1.8-.3-.2 3.7-1.9 3.6-2.1 7.7-.6 9.2 1.8 1.8 5.1-1 6.2-5.2.6-2.2 2.6-7.3 4.5-11.2 1.8-4 3.2-7.5 2.9-7.8-.3-.2-2.8 1.9-5.6 4.8-2.7 2.8-5.4 5.2-5.9 5.2-1 0-2.3-4.5-1.6-5.7.3-.5 1.9-9.4 3.6-19.8 1.7-10.5 3.7-22.6 4.5-27 2.5-13.3 2.6-14.5 1.6-14.5-.6 0-1-.6-1-1.4 0-1.6-16-23.5-17.2-23.5-.5-.1-.8.5-.8 1.2M906.7 242.2c-.3 1.3-.9 5.7-1.2 9.8-.4 4.1-.8 8-1 8.6s0 2.6.5 4.5l.8 3.4.1-3.1c.1-3.9.9-4.7 2.8-2.9 1.7 1.8 3.3 1.9 3.3.4 0-.6 1.3-.9 3-.7 3.1.3 5.2-1.5 4.4-3.7-.3-.6.2-1.8 1.1-2.5.8-.7 1.5-1.7 1.5-2.2 0-.6-.7-.5-1.6.3-1.3 1-1.7 1-2.5-.2s-1-1.2-1.8.1c-.9 1.2-1.1 1.2-1.7-.3-.3-.9-1.3-1.7-2.2-1.7-1.3 0-1.3-.2.1-1.8.9-1 1.5-2.9 1.4-4.2-.4-5.3-5.9-8.2-7-3.8"/><path d="M979.4 242.8c.9 1.7 2 3.3 2.6 3.7.5.3 3.9 4.9 7.5 10.3 3.5 5.3 8.6 12.5 11.2 15.9 2.7 3.3 5.6 7.4 6.6 9 .9 1.5 2.8 4.3 4.2 6.2 1.3 1.8 2.2 3.8 1.8 4.4-.3.5 0 .8.8.5 1.1-.4 1.5-5.2 1.7-25.3.1-13.7-.1-25.2-.5-25.6-.5-.4-9.1-1-19.1-1.4l-18.4-.7zM974.5 252.2c-1 5.1-2.2 10.3-2.6 11.5-.9 2.4-1.5 1.9 15 12.3 1.8 1.1 3.6 1.8 3.9 1.5.6-.6-1.8-6.9-8-20.6-2.1-4.8-3.8-9.3-3.8-10.2 0-.8-.6-2-1.4-2.6-1.1-.9-1.7.5-3.1 8.1"/><path d="M987.2 262.7c3.3 8.2 6.2 15.4 6.5 16.1 1 2.4 11.6 9.2 14.2 9.1 1.4 0 2-.3 1.4-.6-.7-.2-1.3-1.1-1.3-1.9s-.4-1.4-.8-1.4c-.5 0-1.6-1.5-2.4-3.4-.9-1.8-5.2-8-9.5-13.7s-9.1-12.3-10.6-14.7c-1.5-2.3-2.9-4.2-3.1-4.2-.3 0 2.3 6.6 5.6 14.7M925.8 255.7c-2 .5-8.2 12.8-7.3 14.3.3.6.1 1-.6 1-.6 0-.9.8-.6 2 .4 1.4 0 2-1.1 2s-3.2 3.1-5.9 8.9c-2.4 4.8-4.3 9.1-4.3 9.5 0 2.3 10.8-2.4 15.7-6.7 1.2-1.1 3.2-2.1 4.5-2.2 3.4-.4 10.8-3.6 10.8-4.7 0-.5.4-.7.9-.4 1.3.8 13.1-5.5 12.4-6.7-.4-.6.2-.8 1.5-.5 1.4.4 1.9.2 1.6-.7-.7-1.8 2.3-3.8 5.1-3.3 2 .4 2.3.3 1.4-.8s-.8-1.4 0-1.4c.7 0 .9-.5.6-1-.3-.6-1.6-1-2.9-1-1.2 0-2.7-.5-3.3-1.1-.5-.5-2.1-1.1-3.4-1.3s-3.2-.7-4.2-1.1-2.1-.5-2.4-.1c-.4.3-1.7-.1-3.1-1-1.9-1.3-12.8-4.7-13.5-4.3-.1.1-1 .3-1.9.6M972 269.7c.1 1.8 7 23.7 7.7 24.4s10.3-9.7 11.1-12.2c.2-.5-.9-2-2.4-3.2-3.9-3.1-16.4-10-16.4-9M1056.3 293.4c-1.3 1.6-2.3 3.4-2.3 4.1s-.9 2.4-2 3.7c-1 1.4-1.7 2.8-1.4 3.1s-.6 3.4-1.9 6.9c-3 7.7-4.9 13.3-4.3 12.7.5-.4 8.5-7.5 12.7-11.1 2.6-2.3 2.6-2.4 2-12.3l-.6-10zM853.4 340.7c.4 6 .9 12.7 1.2 15 .5 4.1.7 4.3 3.9 4.3 1.9 0 3.7.4 4 1 .3.5 1.2 1 1.9 1 2 0 21.6-14.2 21.6-15.6 0-1.6-29.5-16.4-32.8-16.4-.2 0-.1 4.8.2 10.7M915.8 342.5c-.2.3-4 .9-8.4 1.5-12 1.6-14.4 2-14.4 2.8 0 .9 13.3 14.8 18.6 19.5 4.7 4.2 7.8 4.1 9-.1l.7-2.7.8 2.5c.5 1.4.5-.7.1-5-.4-4.1-.7-10.1-.7-13.3 0-5.5-.1-5.7-2.6-5.7-1.4 0-2.8.2-3.1.5M887 349.6c-1.4 1.1-3.3 2.3-4.2 2.9-.9.5-7 4.9-13.6 9.6l-12 8.6 11.4 6.9c6.2 3.8 14.8 9 19.1 11.6s8.6 5.2 9.6 5.8c1.6 1 1.8.9 1.4-.7-.3-1-1.1-4.5-1.8-7.8s-1.3-6.5-1.5-7c-.1-.6-.7-3-1.5-5.5-.7-2.5-1.1-5.5-1-6.7s-.5-4.8-1.3-8c-.9-3.2-1.7-7.1-1.8-8.7l-.3-2.8zM993.8 382.2c-3.5 1.2-3.7 2.7-.3 2 3.5-.6 3.2 1.5-.4 2.3-2.5.5-3 1.3-4.9 8.3-1.1 4.2-2.3 8.5-2.7 9.4-.5 1.3 0 1.9 1.7 2.3 6.1 1.5 18.4 2.9 19.6 2.1 1.2-.7-3.1-17.9-4.7-18.4-.6-.2-1.1-1-1.1-1.8s-.5-1.4-1.1-1.4-.9-.8-.7-1.8c.7-2.6-2-4.1-5.4-3M981.5 392.2c.4 3.4.8 6.9 1 7.5.3.7 0 1.3-.5 1.3-.6 0-1-.8-1-1.9 0-2.8-3.2-12.3-3.9-11.4-.6.8-1.7 1-7.3 1.5-2.2.3-2.4.6-1.5 1.8 1.7 2.2 13.1 12.9 13.8 13 1.2 0 3.8-7.6 4.4-12.8l.6-5.3-2.8 1.8c-1.5 1-2.4 1.3-2 .6.4-.6.2-1.5-.3-1.8-.8-.5-.9 1.2-.5 5.7M957.5 390c-1.1.5-3.1.6-4.5.3-2-.4-2.2-.2-1 .6 1.3.9 1.3 1.1-.2 1.1-1 0-1.8.7-1.8 1.5s-.4 1.5-1 1.5c-2.3 0-.7 3.4 3.6 8 2.6 2.8 5 5 5.5 5 .8 0 1.5-2.8 2.4-10.8.6-4.8.5-5.2-1.2-4.6s-1.7.6.1-.8c2.2-1.7 1-2.9-1.9-1.8M963 397.3c-2 10.1-2.1 12.7-.3 12.7 4.1 0 19.3-2.4 19.3-3.1 0-.4-4-4.1-8.9-8.2l-8.9-7.5zM1049.6 399.8c.2 1.5 1.3 5.4 2.4 8.7 1.2 3.3 2.9 8.7 4 12 3.2 10.3 5.6 16 6.7 15.8.6-.1 1.3 1.2 1.7 2.8.4 2.3 1 3 2.2 2.5.9-.3 2.7-.6 4-.6 2.4 0 2.3-.3-4.1-12.9-3.6-7.1-6.5-13.4-6.5-14s-.8-.8-1.7-.4c-1.5.5-1.6.4-.7-.8.9-1.1.4-2.8-2.1-7.8-2-3.9-3.5-5.8-3.8-5-.4 1-.6 1-.6-.3-.1-.9-.5-1.9-1-2.2-.4-.3-.7.7-.5 2.2M1003 424.8c-3.9 6.6-16.6 26-20.6 31.5-2 2.7-2.5 4-1.7 4.8.6.6.9 1.7.6 2.5-.9 2.5 3 17.6 5.3 20.3 2.7 3.1 3.5 2.5 4.5-3.1.4-2.4 1.7-6.8 2.8-9.9s2.1-7.2 2.3-9c.1-1.9.4-3.9.8-4.4 2.2-3.4 10.8-37.1 9.7-38.1-.2-.2-1.8 2.3-3.7 5.4M1002.7 445.6c-5.5 21.1-7.7 31.6-7.3 33.9 1.3 6.5 6.1 21.3 9.3 28.7 1.9 4.5 3.4 4.9 3.2 1-.1-1.5.4-9.9 1.2-18.7 1.6-19.4 1.7-26.4.3-33.2-.6-2.9-.8-5-.4-4.8.4.3 1 2.8 1.4 5.6.6 4.7.9 5.1 2.9 4.5 1.2-.3 5.6-1.3 9.7-2.2 7.4-1.6 8.7-2 7.9-2.8-1-.9-18.9-9.6-19.8-9.6-.6 0 .1 1.9 1.4 4.2 1.4 2.4 2.5 5.2 2.4 6.3 0 1.2-.6.4-1.4-1.8-1.2-3.5-4.4-8-6.9-9.9-.6-.4-.6-1.2 0-2 .6-.7.8-4 .5-7.7l-.6-6.5z"/><path d="M1037 445.1c-9.6.3-19.3.7-21.5.8-3.9.2-3.8.3 7 5.6 6 3 11.9 5.5 12.9 5.5 1.1 0 5.1-1.9 8.8-4.3 3.8-2.3 8.5-5.2 10.6-6.4 2.5-1.6 3.1-2.2 1.7-2.1-1.1.1-9.9.5-19.5.9M287.5 335.9c-.6.4-6.8 3.9-14 7.6-7.1 3.7-13.4 7.1-14 7.6-.6.6 1.4 3.2 5 7 5.9 5.9 18.5 16.5 18.5 15.4 0-.3 1.6-8.3 3.5-17.8 1.9-9.4 3.5-18 3.5-19 0-1.8-1-2.2-2.5-.8M239 348.9c0 .6.4 1.1 1 1.1.5 0 .7.7.3 1.6-.4 1 0 2 1 2.6 1.7.9 1.6 1.2-1.1 6.5-.7 1.3-1.2 3.1-1.2 4.1s-.5 2.3-1.1 2.9c-1.4 1.4-2.9 12.6-1.8 13.8.6.5.9.5.9-.3 0-.6 1.3-2.6 3-4.5 1.6-1.9 3.4-4.6 3.9-6 .6-1.5 1.6-2.7 2.2-2.7.8 0 .8.4.2 1.2-.5.7-2.7 4-4.8 7.3-2.2 3.3-4.5 6.6-5.2 7.3s-1.3 1.8-1.3 2.4c0 1.9 8.5 14.8 9.5 14.5.6-.2 1.1-1.7 1.3-3.3s1.3-6.3 2.4-10.4c4.9-18.4 6.6-26 7-30.5l.3-4.9-5.5-1.2c-3-.6-6.7-1.5-8.2-1.9-1.8-.5-2.8-.3-2.8.4M328 352.1c-26.2 14.4-40.9 23.8-38.9 24.9 2.2 1.3 11.8 3.7 37.4 9.5 13.2 3 30.2 6.8 37.8 8.5 7.6 1.8 14.1 3 14.4 2.7.5-.6-.4-1.7-20.6-23.6-20.6-22.4-23.2-25.1-23.9-25-.4 0-3.2 1.4-6.2 3M209.9 427.3c-5.8 4.5-12.2 9.3-14.2 10.7-4.4 3-4.6 3.7-.9 4.4 5.7 1.3 25.7 3.4 26.6 2.9.5-.3.6-4.6.3-9.7-.4-6.4-.3-8.6.4-7.6.8 1.1.9.6.5-1.9-.3-1.8-.6-4.2-.6-5.2 0-1.1-.3-1.9-.7-1.9-.5 0-5.5 3.7-11.4 8.3M524.6 605.2c-1.6 4.9-2.9 16.6-3 26.8 0 6.6-.4 12-.8 12-.5 0-.8.4-.8.8 0 1.3 5.3 1.3 6.1 0 .6-.9 1.3-.6 2.8 1.1l2 2.3-.5-6.4c-.3-3.4-1.2-8.8-2-11.9s-1.4-7-1.3-8.5c.1-2.7.2-2.6 1.4 1.1.7 2.2 2.3 8.9 3.5 15 2.2 10.6 3.9 15.9 4 12.6 0-1.1.3-1.2 1.1-.4 1.2 1.2 6.1.5 5.3-.8-.3-.5.4-.9 1.4-.9q1.95 0 1.8-1.8c-.1-1.1.6-1.7 2.1-1.6 1.2 0 2.1-.2 2-.5 0-.3.9-2.6 2-5.1 1.2-2.5 3.1-7.8 4.3-11.9 2.7-8.7 4.2-7-13.5-14.9-6.6-3-13.2-6-14.8-6.9-2.2-1.1-2.8-1.2-3.1-.1M557.2 630.6c-1.3 4.2-2.1 7.8-1.8 8.1s-.1 1.2-.9 2c-1.8 1.7-2 3.7-.4 2.7.8-.5.9-.2.1 1.1-.5 1-.8 3.4-.5 5.4.5 3.9-1.8 8.4-3.1 6.3-.4-.7-.2-1.2.3-1.2.6 0 1.1-.5 1.1-1.1 0-1.8-2.7.8-3.3 3.2-.3 1.2-.3 1.9 0 1.6.6-.6 8 3.1 8.9 4.4.3.5 1.6.9 3 .9 1.3 0 2.4.4 2.4.8s1.9.9 4.3 1.1c2.3.1 5.4.8 7 1.6 2.5 1.2 2.7 1.2 2.7-.6 0-1.1-1.5-5.7-3.4-10.2-1.8-4.5-3.7-9.3-4.1-10.7-1.6-5.7-8.7-23-9.3-23-.4 0-1.8 3.4-3 7.6M562.5 673.5c-3.8.7-5.9 1.3-4.5 1.5 2.3.1 2.3.2.5 1-1.1.5-1.5.9-1 1 .6.2-.3.6-2 1l-3 .8 3.5.2c1.9.1 2.9.4 2.1.7-1.4.6.3 1.3 13.4 5.9 3.9 1.3 7.9 2.9 9 3.4 3.1 1.5 10.8 4.1 11.1 3.7.4-.4-5.8-10.4-7.8-12.6-.7-.8-1.9-2.9-2.8-4.5-1.4-2.8-2-3.1-6.5-3.2-2.7-.1-8.1.4-12 1.1M489.7 702.7c-.2.4-.8 4.5-1.1 9l-.7 8.3h10c5.6 0 10.1-.3 10.1-.6 0-.4-1.6-2.1-3.4-3.9-1.9-1.8-3.2-3.5-2.9-3.9.4-.3.1-.6-.5-.6s-1.9-.8-2.9-1.8c-5.2-5-8.1-7.3-8.6-6.5"/></svg>