<svg xmlns="http://www.w3.org/2000/svg" width="1706.667" height="960" viewBox="0 0 1280 720"><path d="M0 360v360h464.9l.5-5.3c.3-2.8.8-7.8 1.1-10.9.4-3.3.2-6.5-.4-7.7-.7-1.2-.7-2.1-.1-2.3.5-.2.3-3.3-.5-7.8-.8-4.1-2.6-14.7-4-23.5-1.5-8.8-3.4-18.6-4.3-21.8-1.2-4.4-1.3-6-.4-6.6.6-.4 1.9-2.5 2.7-4.6.8-2.2 1.3-2.9 1-1.5s-.8 3.9-1.1 5.5l-.6 3 12.8 4.5c14.4 4.9 21.5 6.4 20.7 4.3-.3-.7-.9-1.3-1.3-1.3s-.5-1.1-.2-2.5c.5-2.8 1.7-3.3 2.6-1 .3.8 1.4 1.5 2.5 1.5 2.5 0 2.5-.2 4.5-18.5.9-7.7 1.9-15.6 2.2-17.7.6-4 .5-4.1-7.8-5.3-2.5-.3-5.2-1.3-5.8-2-1.5-1.8-1.7-1.8 4.7-.1 2.8.8 5.4 1.2 5.6.9.3-.2-1.8-3.8-4.5-7.9-2.7-4.2-4.8-7.8-4.5-8 .5-.5 4 4 4.8 6.1 1 2.5 7.5 10.4 8.4 10.1.5-.1 3.3-4 6.2-8.7 2.9-4.6 7-11.4 9.3-15 4-6.6 4.8-8.5 3-7.4-.6.3-1 .1-1-.4 0-.6.6-1.1 1.3-1.1s2.1-1.4 3.1-3.1 2-2.8 2.3-2.5 0 1.2-.6 2c-.7.8-1.1 2.3-.9 3.3s-.4 2.5-1.3 3.4c-.8.8-4 5.6-6.9 10.5s-6.8 11.3-8.7 14.2-3.3 5.9-3 6.6c.5 1.2 24.6 12.3 30.6 14.1 2.2.7 2.3.5 1.7-1.6-.4-1.3-1.4-5.1-2.2-8.4s-2.6-8.9-4-12.5c-3.3-8.2-7.5-21.6-6.5-20.4.5.5 2.2 4.9 3.9 9.9 8.1 23.6 11.4 33 11.7 33.4.6.6 23.5-23.3 23.5-24.5 0-.6.7-1.7 1.5-2.4 1.3-1.1 1.5-.8 1.5 1.9 0 1.9-.4 3-1 2.6-.5-.3-3.8 2.4-7.2 6.1-17.7 18.9-17.5 18.6-15.3 20.8.8.8 1.1 1.6.6 1.8-.8.3 5.7 20.8 12.4 39.2 2.2 6 3.1 7.6 4.4 7.1s1.3-.4.4.6c-1 1-.2 3.4 4 11.3 4.4 8.6 6.9 11.8 16.2 21.4 6 6.1 11.3 11.2 11.7 11.2s.8-1.2.9-2.8c0-1.5.3-2 .6-1.2.6 1.9 2.3 6 3.3 8.1.7 1.3.4 1.5-1.5 1.1-1.3-.2-2.5-1.3-2.8-2.3s-1.2-1.9-2.1-1.9-1.6-.6-1.6-1.3c0-1.9-18.3-18.4-18.8-16.9-.3 1.1-.7 1-2.1-.1-.9-.8-6.1-2.9-11.6-4.7-5.5-1.7-10.8-3.6-11.7-4.1-2.4-1.2-8.5-1.1-9.3.1-.4.6-1.5.8-2.5.5-1.2-.4-2.7.2-3.9 1.4-2.3 2.3-2.8 3.6-.9 2.5.8-.5.9 0 .5 1.5-.5 2.2 2.7 10.7 8.5 22.3 2.3 4.6 2.4 4.7 7.2 4.8 7.9 0 26.6-5.9 28.7-9.1.7-1.2 1.1-1.1 1.9.1 1.5 2.3 1.2 3-1.2 3-1.3 0-5.9 1.4-10.3 3l-8 2.9h61.2c57.2.1 61.3 0 62.3-1.6 1.1-1.7 1.1-1.7.6-.1-.5 1.7 1.4 1.8 30.5 1.8 29.7 0 30.9-.1 30-1.8-1.3-2.4-8.8-9.2-10.2-9.2-.5 0-.7-.5-.4-1 .3-.6-.6-1.5-2-2-1.6-.6-2.3-1.4-1.9-2.2.4-.7.3-.8-.5-.4-.7.5-1.7-.6-2.7-2.9-1.7-4.2-1.3-5.3 1.2-3.4 3.1 2.4 18.4 18.2 18.4 19.1 0 .4.7.8 1.5.8s1.5.7 1.5 1.5c0 1.1 1.1 1.5 3.6 1.5 3.6 0 3.6 0 2-2.2-2.8-3.8-6.8-12.7-6.3-14.1.2-.6.8 0 1.2 1.5.4 1.6 1.1 2.8 1.6 2.8s.9.7.9 1.5.3 1.5.8 1.5c.4 0 1.8 2 3.1 4.5l2.4 4.5H1280V0H0zM467.7 81.4c-5.3 1.3-10 2.6-10.4 2.9-.3.4 1.4 1.5 3.8 2.6 2.4 1 7.1 3.1 10.4 4.5 3.3 1.5 7.2 2.8 8.7 3s3.4.9 4.2 1.5 2.2 1.4 3.2 1.6c1.1.2 5.4 1.9 9.8 3.9 4.3 1.9 8.4 3.2 9.1 3 .6-.3 1.7-2.6 2.2-5.2l1.1-4.7-.2 5.5-.1 5.5h4.5c9.1 0 45.6-1.6 49.5-2.2 2.7-.4 3.7-.2 3 .5-.6.5-13 1.5-28.5 2.2-15.1.7-27.7 1.4-27.9 1.6-.2.1 1.3 1 3.3 1.8 2.1.9 4.9 2.4 6.4 3.4 2.9 2.1 8.7 5.2 37.7 20.4 10.5 5.5 24.8 13.2 32 17l12.9 7.1 6.1-1.1c3.3-.6 8-1.4 10.5-1.6 4.5-.5 4.5-.5 1 .5-1.9.6-6.2 1.7-9.5 2.3-6.9 1.5-8.1 3.6-4.6 8.5 2 2.8 11.4 27.1 10.7 27.8-.1.2-2.4-5.1-5-11.8-5.1-13.1-7.4-17.5-8.6-16.2-.5.4-.4 3.5 0 6.8 1.1 8.1 2.3 29.1 1.7 28.5-.5-.4-2.6-24.3-3.2-35.3-.1-2.1-.6-4.2-1.2-4.8-.7-.7-15.2 4.3-34.7 12-1.7.7-1.5 1 1.3 3.2 1.8 1.3 5.8 4.6 9 7.4 3.1 2.7 7.9 6.7 10.6 8.8 2.8 2 7.9 6 11.5 8.8 6.3 4.9 6.5 5 7.1 2.7.4-1.3.7-1.6.8-.7s.4 3.1.7 4.8c.4 2 .3 3.1-.5 3.1-.6 0-1.1-.6-1.1-1.3s-1.8-2.6-4.1-4.3c-2.2-1.6-6-4.5-8.4-6.4s-5.8-4.6-7.6-6-4.7-3.7-6.4-5.2c-4.7-4-13.9-10.8-14.7-10.8-.4 0-.9 1.5-1.2 3.2-1.1 7.1-4.6 55.8-4.6 63v7.7l5.5 2.5c3 1.3 7.1 3.7 9.1 5.3 2 1.5 7.3 4.9 11.8 7.5 4.4 2.6 7.7 4.8 7.3 4.8s-6.4-3.2-13.1-7c-11.7-6.7-17.6-9.1-17.6-7.2 0 .4.4 1.2.8 1.8 1.4 1.5 4.5 10.5 3.8 11.1-.3.4-.6.1-.6-.5 0-1.5-6.8-12.8-8.7-14.3-1.2-1.1-2.9.2-10.6 8.3-19.5 20.5-29.7 31.5-33.7 36.3-2.3 2.7-6.3 6.9-8.8 9.3-5.5 5-4.3 5 7.8-.3 12.7-5.6 13.1-4.9.7 1.1-6.7 3.3-11.6 6.2-11.3 6.9.4 1.2-5.1.8-6.9-.5-1.7-1.2-7.6-2.4-49-9.6-4.9-.8-11.3-2-14.1-2.6s-5.7-.9-6.4-.6c-1 .3 9.7 15.1 13.4 18.3.6.5 2.3 2.6 3.8 4.6 1.4 1.9 4.4 5.5 6.7 8 2.2 2.4 4.1 4.8 4.1 5.4 0 1.2-7.7-6.9-11-11.6-1.3-1.9-4.2-5.3-6.5-7.5-2.2-2.3-6-6.6-8.5-9.7s-4.8-5.6-5.1-5.7c-.3 0-.9 2.6-1.3 5.7-.6 5.3-.5 6 1.6 7.6 1.3.9 3.4 2.6 4.6 3.7 1.3 1.1 2.7 2 3.1 2 .5 0 3.1 2.5 5.8 5.5l5 5.5.5 10.4c.5 11.9-.6 13.4-1.6 2.4-.8-8.1-3.3-14.8-4.7-12.6-1.2 1.8-1.1 6.5.1 8.9.9 1.6.7 1.9-1.1 1.9-2 0-2.1.3-1.4 6.2.4 3.5.3 5.9-.1 5.5-1.1-1-1.1-1.3-1.3-7.2-.1-4.3-.5-4.9-8.2-12.3-4.4-4.2-9.2-8.1-10.5-8.5-1.3-.5-2.4-1.3-2.4-1.8 0-.6-2.5-2.1-5.5-3.4-3-1.4-5.5-2.7-5.5-2.9 0-.4 6 1.7 11.3 3.9 3.6 1.5.5-2.4-4.1-5.3-6.1-3.6-7.5-3.5-8 .8-.5 5-2.1 7.4-1.9 3 .1-1.9.7-3.8 1.2-4.2.6-.5.5-.8-.3-.8-.7 0-1.5.6-1.8 1.4s-1.3 1.2-2.6.8c-2-.5-2-.5-.2-1.9 1-.8 3.9-2.5 6.4-3.8s7.2-4.8 10.5-7.7l5.9-5.5-6.9-.7c-28.9-3-44.7-3.6-45.3-1.7-.3 1-.6 1-1.2.1-.5-.8-3.6.1-11.3 3.4-5.7 2.5-10.9 4.6-11.3 4.6-1.2-.1 4.7-3 13.1-6.5 8.1-3.3 8.7-3.7 7.7-5.1-.4-.5-6.3-5.9-13.2-11.9s-12.7-11.2-13-11.5-4.3-3.7-9-7.5c-4.6-3.9-11.6-9.9-15.5-13.4-3.8-3.5-10.1-8.7-14-11.6-3.8-2.9-9.6-7.8-12.9-10.9-3.2-3.1-6.1-5.6-6.3-5.6s-.2 3.7.1 8.2c.3 4.6.5 28.7.5 53.5.1 39 .3 45.3 1.6 45.3.8 0 13.8-5 29-11.1s27.9-10.9 28.1-10.6c.3.3-2.8 1.7-6.8 3.2s-10.2 4.1-13.8 5.7-11.2 4.8-17 7-12.9 5.3-15.9 6.9c-6.4 3.4-7.2 3.5-8.7 1.1-.6-.9-5.5-4.4-10.9-7.7-5.3-3.3-11.3-7.4-13.3-9.1-5-4.1-11.2-7.8-11.9-7-.4.3-.1 2.9.5 5.8.7 2.8 1.1 5.3.8 5.5-.2.2-1.1-2.8-2.1-6.7-1.6-6.5-2.4-7.6-5-7-.5.1-.1-.8 1-2 1.9-2.1 1.9-2.3-1.3-21.8-1.8-10.8-3.2-20.5-3.2-21.5 0-.9-.4-1.7-.8-1.7s-1.4-2.1-2.1-4.8c-.6-2.6-2.3-7.2-3.7-10.3-2.4-5.3-2.5-5.7-1-10 .9-2.4 1.6-5.5 1.6-6.9s.5-3.2 1-4c1.1-1.7.4 6.1-1.2 12.3-.8 3.2-.5 4.9 1.7 10.5 1.4 3.7 2.9 7.3 3.4 8.1 1.1 1.7 1 1.8 8.4-13.3 4.4-9.1 5.5-12.1 4.5-12.8-.7-.4-.8-.8-.3-.8 1.8 0 6.3-8.3 9-16.5 1.5-4.4 2.9-8.2 3.2-8.5.9-1-1 5.6-3.9 13.3-1.7 4.3-2.8 8-2.5 8.3.6.6 26.2-3.7 27.8-4.7 1.3-.7.7-6.5-3.4-32.4-.6-3.9-1-9.3-.8-12 .1-2.8-.1-6.1-.4-7.3-.5-2-.8-2.2-2-1.2-.8.7-1.5 1.9-1.5 2.8 0 1.8-6.7 19.3-10.4 27.2-2.1 4.6-1-.1 1.4-5.5 5.2-12 8.4-22.5 6.8-22.5-.5 0-.1-1.1 1-2.5 2.3-2.9 1.8-7.1-.9-7.8-1.1-.3-1.9-1.4-1.9-2.6 0-2.8 1.2-2.6 3.9.5l2.2 2.5 6.2-5.9c3.4-3.3 13.1-12.4 21.5-20.2 8.3-7.8 15.2-14.8 15.2-15.5s-1.4-1.8-3-2.5c-1.7-.7-2.9-1.5-2.6-1.7.3-.3 1.9.2 3.6 1 3.6 1.9 4.9 1.5 9.1-2.4 1.7-1.6 4.4-3.7 5.9-4.6 1.6-.9 3.3-2.7 3.9-4 .6-1.2 1.6-2.3 2.4-2.3.7 0 3-.9 5.2-2 4.5-2.3 5.2-2.1 2.7.6-1 1-2.1 2.6-2.4 3.5-.4.9-2.9 2.5-5.8 3.5-5.2 1.9-13.5 7.9-9.5 7 1.1-.2 5.6-1.2 10-2.1 18.9-3.9 52.4-12.2 54-13.5.6-.4 3.3-1 6-1.4 5.9-.7 44.2-8.9 53-11.3 3.3-.9 8.7-2 12-2.4s8.9-1.4 12.5-2.2 7.6-1.5 9-1.5-1.9 1-7.3 2.2M876.8 93c2.6 1.1 5.6 2.1 6.7 2.3 1.1.1 3.1 1 4.5 1.9s7.7 3.9 14 6.6c6.3 2.8 15.4 6.8 20.2 9.1 4.8 2.2 13.1 6 18.5 8.5 5.4 2.4 12.5 5.6 15.7 7.2 4.4 2.1 6.1 2.5 6.4 1.5.3-.9 1.5-.3 3.6 1.7 2.6 2.6 4.6 3.3 12.6 4.7 5.2.9 9.7 1.8 9.9 2.1.8.7-2.1.4-10.7-1.2-4.6-.8-8.6-1.4-8.8-1.1-.4.4 10 19 24.3 43.2 3.9 6.6 8.4 14.7 10.1 18 1.6 3.3 4.2 7.7 5.7 9.9 1.4 2.1 2.3 4.1 2 4.4-.8.8-2.6-2-9.3-14.4-3.3-6.1-9.5-16.9-13.7-24-4.3-7.1-9.5-16.2-11.7-20.2s-4.2-7.1-4.4-6.9 2.4 8.2 5.7 17.8 7.8 23 10 29.9 5.7 17.7 7.9 24c2.2 6.4 4 12.8 4 14.3 0 3.3 1.5 3.5 3.1.4.7-1.2 2.5-3.7 4-5.5 5.9-6.7 6.7-9.5 6.3-23-.2-6.8-.8-16-1.4-20.5-1.2-9.9-1.3-13.7-.2-13.7.9 0 1.8 10.5 3.1 35 .5 11.1.4 12.7-1.1 14.4-1 1.1-1.8 2.5-1.8 3.2s-1.8 3.6-4 6.5c-6.1 8.1-5.9 8.3 8.1 10.3 11.8 1.8 18.9 3.3 15.8 3.5-.8.1-6.2-.6-12-1.4-5.7-.8-11.9-1.7-13.6-1.9-3.2-.5-3.3-.3-3.3 3 0 1.9.6 4.5 1.4 5.7s1.6 4 2 6.2l.5 4-1.7-4.7c-.9-2.6-2-5-2.4-5.4-.7-.6-1.5 32.5-1.1 44.4.1 2.3-.3 4-.8 3.7-1-.7-16.8 9.5-16.8 10.9-.1.5-.7 1.4-1.5 2s-2.4 4.2-3.5 8c-2.3 7.4-2.6 10-1.2 9.2.5-.4 1.1-.2 1.3.4.4 1.2 16.8 2.1 16.8.9 0-.5.7-.9 1.6-.9.8 0 1.3-.3 1.1-.8-.3-.4-.1-4.3.3-8.7l.8-8-.1 8.5c-.2 8-.1 8.5 1.8 8.2 1.1-.2 2.7-1 3.5-1.7 2.1-1.8 12.1-6.7 12.6-6.2.3.3-3.8 2.9-9.1 5.8-5.2 3-9.5 5.8-9.5 6.3s1.2 3.5 2.7 6.8l2.6 5.9 2-2.8c1.7-2.5 1.8-2.5 1.4-.6-.3 1.3-.4 2.3-.2 2.3s2.9-4.8 6.1-10.7c5.5-10.2 7.1-15.3 5.8-17.5-.4-.6-.8-2.7-.9-4.7-.2-2-.6-5-.9-6.6-.5-2.1-.2-1.8.8 1 .9 2.2 1.6 5.2 1.6 6.7 0 1.7.5 2.8 1.4 2.8s1.6-1.8 2-5.3c.4-2.8 1.7-9.9 3-15.7s3.1-15 4-20.5c1-5.5 2.4-12 3.3-14.4 1-2.9 1.4-6.2 1-10.1-.5-5.7-1.4-7.4-6.8-13.1-3.7-4-10.4-12.2-11.3-13.9-.4-.8.9.5 3 3 2.2 2.5 5.5 6.2 7.5 8.2 2.1 2 4.4 4.7 5.3 5.9.8 1.3 1.9 1.9 2.3 1.5s.8-6.1.8-12.6c0-7.5.3-10.9.8-9.2.4 1.5.6 7.9.5 14.2l-.3 11.4 3.5 1.8 3.5 1.8-3.5-.6-3.5-.5.3 5c.2 2.9 0 5.1-.6 5.1-.9 0-2.6 5.5-3.6 12-.3 1.9-.7 3.9-.8 4.5-.1.5-.7 3.9-1.4 7.5s-2.4 11.9-3.8 18.5c-1.5 6.6-2.5 12.5-2.4 13.2.2.8 1.9-.1 4.3-2.3 2.2-2 5.6-5 7.5-6.8l3.5-3.1-2.5 3c-1.4 1.6-2.8 3.2-3.1 3.5-10.1 8.3-10.8 9.1-11.4 14.5-.9 6.7-.3 7.7 3.6 6.3 2.5-.8 3.9-2.8 7.8-10.7 6.7-13.3 7.4-17.2 5.5-31.2-2.1-15.9-3.1-27.9-2.3-27.9.4 0 1.2 6 1.8 13.2 1.1 12.1 2.7 22.1 3.8 24.1.6 1 7.3-7.2 7.3-8.9 0-.8.7-2.8 1.5-4.5 1.4-2.6 1.4-3.5-.1-8.5-.9-3-1.4-5.7-1.2-6 .2-.2 1.3 2.4 2.3 5.8 1.5 5 1.6 6.7.7 9.3-1.5 3.9-1.5 7.2-.2 8 .5.3 1.5 1.6 2.1 2.8.9 1.9.8 1.9-1-.3l-1.9-2.4-.4 9.2c-.4 11.1-.3 11.5 2.5 10.1 1.2-.7-.1 1-2.9 3.7-6.7 6.5-10.8 9.9-11.5 9.7-.4-.1-1.4.6-2.4 1.7-1.7 1.8-1.3 4 .6 4 .6 0 .7-.5.3-1.2-.5-.7-.3-.8.5-.3 1.3.7 6.1-3 6.1-4.7 0-.5.7-1.7 1.6-2.6 1.5-1.5 1.6-1.4.9.8-.4 1.4-1.4 3.8-2.2 5.5-1.4 2.9-1.4 2.9 1.9-.6 1.8-2 4.1-4.7 5.1-6 2.4-3.3 2.1-1.1-.5 3.1-1.1 1.9-2.9 5-3.9 6.7l-1.9 3.3h2.5c1.4 0 2.9-.8 3.5-2 .6-1.1.8-2 .4-2s.1-.8 1-1.9c.9-1 1.8-2.8 1.9-4 .1-1.1.5-2.1.9-2.1 1 0 1-.5-.3 6.5-.6 3.3-1.9 7.6-3 9.6-1.6 3.2-1.7 4.5-.8 10 .5 3.4 1.2 6.5 1.4 6.9.6.9-1.9 10.1-3.6 13-.7 1.4-1.3 2.8-1.4 3.1 0 .3-.8 1.3-1.7 2.3-2 2-2.3 8.3-.8 17.6.5 3 1.6 10.8 2.4 17.2 1.3 10.1 2.2 13.1 6.4 22.5 7.3 16 7.2 15.3 2 15.3-6.6 0-7.5 1-6 6.6 1.2 4.5.9 7.5-.4 4-.3-.9-1.2-1.6-2-1.6-1.3 0-1.9-1.8-1.4-4.9.1-1-.7-.8-3.2.7-4.1 2.5-16.3 8.7-20.3 10.3l-3 1.3 4 .6c3.1.4 1.8.7-6 1.3-5.5.4-11.6.9-13.5 1.2-1.9.2-.8-.2 2.5-1.1 3.3-.8 6.7-1.7 7.5-2 .9-.3-1.6-2.2-6.5-4.9-8.9-4.9-14.5-5.8-14.5-2.1 0 1.1-.3 1.6-.7 1.3-.6-.6-1-6.2-1.2-15.1-.1-2.2-.3-3.7-.6-3.4-1.1 1.1-10.4 32.3-11.6 38.8-1.2 6.8-1.2 7.1 2.1 15.5 1.8 4.7 3.6 8.5 4.1 8.5 2.2 0 3.9-1.5 3.9-3.4 0-1.2.9-2.7 2-3.4 1.2-.7 2-2.3 2-4 .1-1.5.7-5.5 1.4-8.9 1-4.5 1-6.5.2-7.3s-.7-1.3.3-1.9c.9-.6 1.1-1.8.7-3.7-.7-2.5-.6-2.6.9-1.4 1.4 1.2 1.8 1.2 2.6-.1.7-1.2.9-1.1.9.2 0 1.6 6.7 5.2 9.5 5.2.8 0 1.5.4 1.5.9 0 1.2-1.5 1-7.2-1.2s-7-1.9-4.5.8c1 1 1.7 2.3 1.7 2.9 0 1 3.8 8.7 7.5 15.2l1.3 2.3.8-2.3c.8-2.6.7-8.7-.2-13.1-.4-2.1-.2-2.8 1-2.8.9 0 1.4.9 1.4 2.3-.1 1.2 0 6 .1 10.7.3 7 .5 7.9 1.1 5 2-8.6 2.9-11.3 4.4-12.9.9-1 1.6-2.3 1.6-3.1 0-1 .3-1 1.5 0 .8.7 1.5 2 1.5 2.9 0 1.4-.2 1.4-1.1.1-.7-1.1-.8-.6-.4 2 .9 4.4 3.4 10 4.6 10s1.1-2.4 0-3.5c-1.6-1.6-2.6-9.5-1.2-9.5.6 0 1.1-1.6 1.1-3.5 0-4.7 2-4.5 2.2.2.2 5.1.4 8.4.7 10.8.2 1.8.3 1.7 1.2-.5.6-1.4.8-3.7.5-5.2s-.1-3 .4-3.3c.6-.4 1 4 1 11.2 0 6.5.4 13.6 1 15.8 1.5 6.1 1.2 7.4-.9 4.5-1.1-1.3-1.7-2.8-1.5-3.2.3-.4-.2-1.8-1-3-.9-1.2-1.6-3.2-1.6-4.3s-1.6-3.7-3.5-5.6c-1.9-2-3.9-4.7-4.4-6-.9-2.2-1-2.1-1 1.3-.1 2-.6 3.8-1.3 4-1.7.6-2.4 12.4-.7 14.4 1.4 1.8 6.9 4.8 7.5 4.1.2-.2-.5-3.2-1.6-6.7s-2.2-7.8-2.5-9.4c-.4-2.8-.2-2.7 1.5 1.1 1 2.3 2.2 6.2 2.6 8.8.4 3.2 1 4.5 2 4.1.8-.3 1.1.1.8 1-.2.7-.6 2.1-.9 2.9-.4 1.5-2 1-7.6-2.8-2.6-1.7-2.8-1.7-6.5.4-2.2 1.1-5.2 3.1-6.9 4.4-1.6 1.2-4.8 3.1-7.1 4.3-2.2 1.1-4.6 2.8-5.3 3.6-1.4 1.7-5.6 2.3-4.6.7.3-.5-3.3-4.1-7.9-8-4.7-3.9-8.8-7.6-9.1-8.1-1.3-2-3.1-.8-6.3 4.3-1.8 2.9-4.9 7.2-6.8 9.6s-3.3 4.6-3 4.8c.2.2 3.5.5 7.2.5 4.8.1 6 .3 3.9.8-2.4.5-1.3.9 5.5 1.8 12.7 1.9 17.9 2.2 18.4 1.3.3-.4 3.8-.4 7.8.1s8.6.8 10.3.6l3-.3-3-1.7c-3.8-2.2-2.1-2.3 2-.2l3 1.5 5.3-5.5c4.8-5 8.1-7.6 5.4-4.4-.6.8-.6 2.2-.1 3.7.8 1.9 1.2 2.1 2.4 1.1 1.3-1.1 1.4-1 .9.4-.4 1-1.3 1.5-2 1.2-1.9-.7-1.8.4.2 3.3 1.9 2.6 3.7 9.4 2.3 8.5-.5-.3-.9-1.1-.9-1.8s-.9-2.1-2-3.1-1.7-2.1-1.4-2.6c.7-1.1-3.7-.2-5 1.1-.6.6-1.1 4.3-1 8.3.1 6.7 0 7-1.2 4.2-.7-1.7-1.3-4.2-1.4-5.6 0-1.5-.7-3.2-1.5-3.9-1.3-1.1-2.1-.8-4.7 1.6l-3.2 2.9 1.8-2.8c1-1.6 1.6-3.1 1.4-3.3-.6-.5-13.8-1.7-13.8-1.2 0 2.1 5 9.3 6.4 9.2 1.9-.2 2.1.7.4 2.5-1.1 1-1 1.5.5 2.5 2.3 1.7 13.2 4 15.2 3.2q1.65-.6 1.2.6c-.5 1.6-2.2 1.5-11-.5-6.3-1.4-6.9-1.4-9.1.4-2.4 1.9-2.4 1.9-1.9 0 .4-1.6-.6-2.1-6.8-3.5-5.8-1.3-7.4-1.4-8.1-.4-.6 1-.8 1-.8 0 0-2.2-2-1.3-9.3 4.2-3.9 3-7.4 5.2-7.7 5-.3-.3.4-1.2 1.5-1.9 10.1-7 13.4-10 12.3-11.2-.6-.7-1.4-1.3-1.9-1.3s-5.6-2.7-11.3-6c-5.8-3.3-11.1-5.7-11.9-5.4-1.8.7-3.1-1.2-3.3-4.7-.1-1.4-.4-3.6-.8-5-.3-1.3.3-.6 1.3 1.5l1.9 3.9 2.7-2.9c3.8-4 13.5-16.9 13.5-17.9 0-.4-.8-1.4-1.7-2.1-1.6-1.2-1.6-1.3-.1-.8 1.2.4 2.1-.5 3.3-3.3.9-2.1 2.5-5.6 3.6-7.8 2.4-5.1 2.4-6-.5-9.8-3.6-5-4.1-6.6-.8-2.7 1.7 1.9 3.3 3.2 3.7 2.9.3-.4 1.9-6 3.5-12.5s3.8-14.1 4.9-16.9c4.4-11.8 7.8-26.9 5.8-26.2-.5.1-3.7 4.2-7.1 8.9-3.4 4.8-8.8 12.4-12.1 16.9-7.4 10.3-8.8 12.7-7.9 14 .3.6.8 3.2 1.1 5.7.3 2.6.9 6.7 1.5 9.2.5 2.5 1.1 6.1 1.4 8 .6 5.1-2-4.7-3.6-13.5-.8-3.9-1.7-7.4-2-7.8-1.2-1.3-20 19.6-20 22.2 0 .5 2.3 1.7 5.2 2.7 5.3 1.7 18.3 9.1 13.9 7.9-1.4-.4-6.4-2.8-11.3-5.2-4.9-2.5-9.5-4.3-10.2-4-1 .4-1.7-.7-2.4-3.4-.6-2.2-.6-3.9-.1-3.9s.9.9.9 1.9c0 3.8 3.2 1.3 12.1-9.3 7.6-9 8.8-11 7.8-12.2-.7-.8-.8-1.4-.3-1.3 2.5.4 3.8-.7 9.3-7.9 3.3-4.2 7.1-9.1 8.4-10.7 1.3-1.7 6.1-8.6 10.7-15.4 9-13.3 9-13.5 1.6-14.5-7.3-.9-19.6-1.8-20.3-1.5-.9.4-1.1 1.9-1.2 9.1-.1 2.7-.4 4.8-.8 4.8-.5 0-.7-3.1-.6-7 0-3.8-.1-7-.3-7-1 0-19.1 3.2-20.6 3.6s-1.5.9-.3 4.3c.7 2 2.5 6.2 4 9.1l2.7 5.4 5.4-8.5c3-4.6 5.9-8.6 6.6-8.8 1.3-.4-1.9 5.1-7.4 12.6-2.1 2.9-3.8 5.9-3.8 6.7 0 1-.6 1.3-1.5 1-.8-.4-1.2-1-.9-1.5.6-1-7.8-19.3-9.4-20.3-.9-.5-15.3-3.2-22-4-1.7-.3-3.9-.9-5-1.5-2.1-1.1-20.1-5.5-26.9-6.5-3.4-.5-4.4-.3-5.3 1.1-1.1 1.7-1.1 1.7-.6-.1.6-1.6.2-1.8-2.9-1.2-3.8.7-4.7 0-1.5-1.2 1.6-.6.5-1.7-7.3-6.9-12.6-8.4-32.6-20.2-35.2-20.9-1.2-.3-5.9.4-10.4 1.6-4.6 1.1-8.5 1.9-8.7 1.7-.4-.4 2.1-1.2 12.4-3.7 2.3-.6 4.2-1.3 4.2-1.5s-9-6-19.9-13c-11-6.9-20.5-13.2-21.1-14-.7-.8-2.2-1.5-3.3-1.5-1.2 0-4.1-2.3-7.2-5.8-9.5-10.5-10.9-12.8-2.6-4.5 5.4 5.5 9 8.3 10.4 8.3 2.5-.1 6-2.4 5-3.3-.3-.4.5-.7 1.8-.7 2.3.1 2.3.2-1.1 2.9l-3.4 2.9 7.4 4.7c9.2 5.9 14.9 9.6 26.2 16.9 9.2 5.9 11.5 6.8 10.3 3.8-.3-.9-1.1-10.1-1.8-20.3-.9-16.4-1.3-18.8-2.9-19.8-1-.6-6.7-2.9-12.6-5-29.4-10.5-34.3-12.4-33.8-12.8.2-.3 11.1 3.4 24.1 8.1s24.1 8.6 24.6 8.6 1-1.2 1-2.8c.2-2.3.2-2.4.6-.5.2 1.3.9 2.3 1.4 2.3 1.1 0 23.7-12.6 25.9-14.5.8-.7 5.2-3.1 9.7-5.5 4.6-2.3 8.5-4.6 8.8-5 .3-.5-.9-3.3-2.6-6.2-1.8-2.9-11-20.8-20.6-39.7-9.5-18.9-17.3-33.5-17.4-32.5 0 1.1-.2 3.5-.3 5.4-.2 1.9-.4 7.8-.5 13-.2 5.2-.7 13.7-1.2 18.9-.6 5.2-1.4 15.5-1.9 23-.8 12.9-.8 12.6-.4-5.1.3-10.3.7-19.8 1-21 .2-1.3.7-10.6 1.1-20.8l.6-18.4-2.9 1.8c-1.6 1.1-4.7 3.3-6.9 5.1-10.4 8.2-21.6 16.3-18 13 2.2-2 8.1-6.7 13.1-10.5s9.7-7.6 10.4-8.5c.7-.8 1.9-1.5 2.6-1.5.8 0 1.4-.4 1.4-1 0-1-1-1.3-10.5-2.9-3.3-.6-10.7-1.9-16.5-3-5.8-1-12.5-2.2-15-2.5s-8.3-1.3-13-2.1c-14-2.6-36.4-6.5-37.3-6.5-.4 0-1.7 1.9-2.7 4.2l-2 4.3v-3.8c0-3.2-.3-3.7-2.2-3.7-2.1-.1-2.1-.2-.5-1.1 2.8-1.6 2.1-3.1-4.4-9.4-3.3-3.3-7-7.4-8.2-9l-2.1-3 3.9 3.4c2.2 1.9 5.8 5.5 8 8 4.1 4.7 6.6 7 7.5 7 .3 0 3.9-5 8-11 4.1-6.1 10.2-14.8 13.5-19.2 3.3-4.5 7.3-10.2 8.8-12.7s4.8-7.3 7.2-10.8c2.5-3.5 4.5-6.5 4.5-6.6 0-.2-6.6-.2-14.7-.1l-14.8.4 13.9-1c12.4-.8 14.9-1.3 22.5-4.4 4.6-1.9 10.1-4.6 12.1-6s5-2.5 6.7-2.5c1.8 0 3.5-.5 3.8-1 .3-.6 1.4-1 2.3-1 2.9-.1 16-6.8 13.4-6.9-1.2-.1-4.9-.9-8.2-1.8-6.6-1.8-9.5-.9-6.6 2 1.8 1.7 2.1 4.7.7 4.7-.6 0-1.6-.9-2.5-2.1-1.1-1.7-2-2-4.5-1.4-2.7.6-3.1.4-3.1-1.4 0-1.1.6-2.3 1.3-2.8.7-.4-2.2-1.4-7.3-2.4l-8.5-1.6 10.6.3c5.9.2 11.3.6 12 .8 5.2 1.6 12.4 2.8 19.7 3.2 9.1.5 12.5-.3 36.3-7.7 9.3-3 12.8-4.5 11.9-5.1-.3-.2-2.5-1.3-5-2.5-5.7-2.7-3.5-3 2.8-.3m110 31.1c2.3 1.6 5.3 4 6.5 5.2 1.3 1.2 5.5 4.8 9.4 8 4.3 3.5 7.6 7 8.3 9 .6 1.8 2.2 5.6 3.6 8.5 2.8 6 3.1 8.5.8 5.6-1.7-2-1.6-1.8.9 3.7.9 2 2.1 6.8 2.7 10.6.5 3.8 1.9 10 3.1 13.8 1.2 3.9 3.2 11.5 4.5 17s3.5 14 4.9 18.9c1.3 4.9 1.9 8.4 1.3 7.8s-3.1-8.9-5.5-18.4c-2.3-9.4-4.7-18.6-5.3-20.4-.6-1.7-1.3-4-1.5-5s-.9-3.7-1.5-5.9-1.3-6.3-1.6-9c-.4-2.8-1-5.5-1.4-6-.4-.6-1.3-2.7-1.9-4.8-1.4-4.1-3.1-4.9-3.2-1.5 0 1.3-.7-.4-1.4-3.7s-1.1-7.3-.9-8.9c.4-3.7-1.3-6.9-3.3-6.2-1.1.4-1.3.2-1-.9.4-1-1.4-3-5.6-6.2-15-11.4-21.6-16.9-21.7-17.6 0-.5 1.2.1 2.8 1.2 1.5 1.2 4.6 3.5 7 5.2M343.6 327c.5.5 1.9 1.1 3 1.3 4.7.7 8.4 7.1 5.4 9.5-1.2 1-1 1 1.3.2 1.6-.5 4.3-1 6-.9 3 .1 2.9.2-1.3 1.4-2.5.8-6.5 2-9 2.8s-7.4 2-11 2.6c-5.5 1-18.8 4.8-19.8 5.7-.5.3 3.5 4.9 13.8 16 11 11.7 20.9 23 23.7 26.7 1.2 1.6 3.8 4.3 5.7 6.1 3.3 2.9 3.4 3.2 1.4 3.2-1.3 0-2.6-.4-3-1s-4-1.8-8-2.7c-18.9-4.1-52.4-12.2-52.8-12.6-1.1-1.2 14.6 2.3 44.5 9.7 6.6 1.7 12.3 3 12.8 3 2.2 0-.2-3.9-7-11.3-4.3-4.5-11.4-12.2-15.8-17.1-4.4-4.8-10.3-11.3-13.2-14.4l-5.2-5.6-7.3 3.8c-10.4 5.5-23.5 13.4-28.8 17.4-2.4 1.9-5.5 3.8-6.9 4.3-3.4 1.3-1.8 2.4 6.4 4.3 9.2 2.1 20.4 5.5 18.5 5.5-2.2 0-8.4-1.3-18.9-4.2-5.2-1.4-9.8-2.4-10.3-2.1-.4.3-.8 1.6-.8 2.9s-.5 2.7-1.1 3.1c-.8.5-1-.1-.5-1.9.3-1.4.2-2.8-.3-3.1s-5.2 2.5-10.5 6.4c-5.3 3.8-9.6 6.5-9.6 6 0-.8 10.3-8.4 17.6-13 1.3-.8 2.4-1.9 2.4-2.4 0-1.4-21.3-21.6-22.2-21-.4.3-.8 1.2-.8 2s-.5 1.4-1.1 1.4c-.7 0-.9-1.2-.5-3.5l.7-3.4-5.8-1.6c-3.2-.9-6.3-1.8-7-2s-1.5 0-1.8.5c-.4.6.1 1 1.1 1 1.3 0 1.4.3.4 1.5s-1 1.8.1 3.1c1 1.2 1 1.7 0 2.3-.6.4-1.1 1.2-1 1.7s-.3 2.2-.9 3.7c-.7 1.6-1.2 3.4-1.2 4.1s-.3 1.6-.7 2c-.5.4-1.3 2.2-2 3.9l-1.1 3.2-.1-3.3-.1-3.3-3 1.6c-1.7.9-2.8 2-2.5 2.5.3.4.1 1.9-.4 3.2l-1 2.3v-2.6c-.1-2.9-2.2-7.9-3.4-7.9-.4 0-1.7-2.1-2.8-4.8-1.6-3.7-1.9-5.7-1.3-9.2.4-2.5.7-8 .7-12.3 0-4.2.3-7.7.7-7.7.5 0 1 .4 1.2.9.4 1.1 12.1 8.2 12.6 7.6.2-.2-.6-2.5-1.7-5.1-2.7-6.1-1.5-4.9 2.4 2.4 2.8 5.1 3.6 5.9 8 7.3 10 3.3 10.5 3.3 10.5.2.1-2.6.2-2.6 1.4.8 1.7 4.8 7.3 11.5 16 19.4l7 6.4 1.3-3.7c.7-2 2.2-8.7 3.4-14.7 3-16 4-19.5 3.4-12-.6 7.8-1.2 11.3-3.6 21.1-1 4.5-1.9 8.4-1.9 8.8 0 1.5 3.1.3 8.4-3.4 3.1-2.2 9.1-5.9 13.3-8.2 4.2-2.4 9.7-5.5 12.2-7s5.7-3.3 7.1-4c3.7-1.9 4.7-2.7 11.8-9.6 3.6-3.4 6.6-6.1 6.8-5.9.1.1-2.2 2.8-5.2 6-3 3.1-5.4 5.9-5.4 6.1 0 .6 20.3-4.9 22.3-6 1.8-1 1.8-1.2-.7-3.9-3.2-3.4-3.2-3.6-.3-8 2.3-3.6 3.6-4.2 5.3-2.5m77.2 20.2c2.7 2.9 3.2 3.8 1.9 3.8-1.6 0-1.7.2-.1 3.2 1.7 3.4 7.4 10.4 7.4 9.2 0-.4 1.1.5 2.5 2 3 3.2 4.5 3.3 4.6.3.1-2.1.1-2.1.9.3 1.2 3.6 1.2 11.8 0 12.5-.6.4-1-1-1-3.5 0-2.7-.5-4.3-1.5-4.7-2.1-.7-2.4-.3-4 5.1-1.4 4.5-1.4 4.7.8 5.7l2.2 1-2.3-.5c-1.4-.3-2.7.3-3.5 1.4q-1.2 1.8-4.5 1.5c-4-.3-4.8-1-3.4-2.8 1.2-1.4.6-2.7-1.1-2.7-.6 0-.8.3-.4.6.3.3.2 1.6-.2 2.8-.9 2.2.7 4.6 2.9 4.6.6 0 .8.5.5 1-.4.6-1.1.8-1.6.5-.5-.4-.9.2-.9 1.3 0 1 1 2.4 2.3 3 1.7.8 1.8 1.1.5 1.1-.9.1-2-.4-2.3-.9-.8-1.4-4.5.6-4.5 2.5 0 .7-.5 1.7-1.1 2.1-1.3.8-.1-3.8 1.2-4.6 1-.7.3-13.2-1-19.3-2-8.8-3.2-23.3-2.5-30.6l.7-7.5 1.9 4c1.1 2.1 3.6 5.6 5.6 7.6m71.3 11.7c6.5 6.5 1 15.1-9.7 15.1-3.8 0-3.9-.3-2.8-8.4.5-3 1.3-5 2.3-5.4.9-.3 2.5-1.4 3.5-2.4 2.6-2.4 3.3-2.3 6.7 1.1m-254.1.9c0 .5-.8 1.7-1.9 2.8-1 1.1-2.8 4.3-4 7s-3 5.8-4 6.9c-2.2 2.5-6.1 9.3-6.1 10.6 0 .5 1.8 3.9 4.1 7.4 3.7 5.9 4.3 6.4 6.7 5.8 1.5-.3 4.7-2.2 7.2-4.2 3.5-2.7 4-2.9 2.1-.8-1.3 1.4-3.9 3.7-5.7 4.9-3.4 2.3-4.3 3.8-2.4 3.8 1.8 0 8.3 3 7.8 3.5-.3.3-2.1-.2-4.1-1s-5-1.5-6.6-1.5c-2.3 0-2.9-.4-2.5-1.5.4-.8-.8-3.7-2.5-6.3-3.4-5.4-8.7-10.9-7.5-7.9.3 1 .2 3-.4 4.5s-1.3 3.6-1.6 4.6c-1.2 3.7-1.7.8-.6-3.4.8-3 .8-4.5 0-5.5-.9-1-.5-1.7 1.7-3 3-1.8 8.2-8.7 12.3-16.3 2.4-4.4 7-11.2 7.7-11.2.2 0 .3.4.3.8m439.7 31.4c3.2 3.2 6.3 5.8 7 5.8.6 0 1.6-2.4 2.2-5.3l1-5.2-.4 5.8-.4 5.8 5.7 2.5c6.9 3.1 11.8 4.2 10.8 2.6-1-1.7-.2-1.5 3.8.9 3.3 1.9 4.1 4.7 1 3.5-2-.8-2.6.9-1.3 3.8 1.3 2.7 2.5 3.3 3.1 1.6.2-.5 1.9-1.2 3.8-1.4 1.9-.3 5.3-1 7.5-1.5 3.1-.8 4.5-.7 6.2.4 1.2.8 3.1 1.5 4.3 1.5 2.4 0 2.7 2.5.3 2.7-2.5.1-4.5.7-14.6 4.2-8 2.7-8.8 2.8-9.3 1.3-1.3-3.9-4-9.9-5.5-11.9-1.8-2.6-13.3-8.6-16.6-8.6-1.5 0-4.7-2.5-9.8-7.9-4.1-4.3-7.5-8.4-7.5-9.1s.7-.3 1.5.8 4.1 4.6 7.2 7.7m-471.3 12c-1 2.2-4.6 9.8-8 16.7-9 18.5-9 18.5.6 10.7 9.9-8 12.4-11 12.5-15 0-2.3.8-3.6 3.4-5.3 1.9-1.3 3.9-2.3 4.5-2.3.6.1-.5.9-2.5 2-3.6 1.9-3.6 1.9-3.2 7.7.3 3.5.1 5.3-.4 4.5-.7-.9-1.4-.7-2.9 1-1.1 1.3-6.2 5.4-11.2 9.3-5 3.8-9 7.4-8.8 8 .1.5 1.6 1.3 3.2 1.6 2.5.6 2.2.7-1.5.8l-4.5.1 6.1 6 6.1 6.1 3.9-1.6 3.8-1.5-2.5 1.9c-3.1 2.5-2.3 3.5 5.4 6l5.9 1.9-.6-6c-.3-3.3-.7-6.2-1-6.5-.3-.2-2 .3-3.9 1.2-3 1.5-3.1 1.5-1.3 0 1.1-.9 2.7-2 3.5-2.5 2.2-1.3 1-1.9-5.6-3l-5.9-.9 6.9.5 6.8.5-.6-6.8-.6-6.8 3.2 9.5 3.2 9.5 12.3 12.4q12.3 12.3 13.8 11.7c1.1-.4 1.5.1 1.5 1.7 0 2.3 5.1 9.1 11.8 15.9 2.1 2 5.7 6.1 8.2 9.1s5.3 6 6.3 6.6c1 .7 7.3 1.7 14 2.4 6.7.6 10.9 1.3 9.2 1.5-1.6.2-7.2-.1-12.3-.7-7.1-.9-9.8-.9-10.8 0-1.1.9-1.4.8-1.4-.3 0-.8-1.7-3.3-3.7-5.5-2.1-2.2-7.4-8.4-11.8-13.7-7.5-9.1-9.5-10.9-9.5-8.6 0 .5-.4 1-1 1-.5 0-.7-.7-.4-1.5.4-.8.1-2.2-.6-3-.6-.8-.9-1.8-.6-2.3.3-.6-.6-1.7-1.9-2.6-1.4-.9-7.3-6.4-13-12.2-5.8-5.7-10.5-10.1-10.5-9.7 0 .5-.5.1-1-.7-1.3-2-1.4 10.3-.1 12.8 1.4 2.6 5.4 20.2 4.8 20.9-.4.3-1.1-1.5-1.8-4.1-1.3-5.4-2.6-5.3-2.6.3 0 2.2-.6 4.7-1.3 5.6-.8 1-1.3 5.9-1.5 14.9l-.3 13.3 3.1 1.6 3.2 1.7-4-.7c-5.7-.9-6.8-3.2-4-8.6.8-1.5 1-2.5.5-2.2-1.5.9-1.2-10.4.4-16.1 2.1-7.6 2.6-10.9 1.5-12.4-.7-1.2-.9-.9-.9 1 0 1.4-.5 3.2-1 4-1.3 2-1.3.4 0-4 1.6-5.6 2.1-11.8 1-12.5-.5-.3-1-.2-1 .4s-.7.8-1.7.4c-1.4-.5-1.3-.8.5-1.4 1.2-.5 2.2-1.5 2.2-2.2 0-1.6-2.3-2.7-11.6-5.4-3.3-1-6.2-2.3-6.3-2.8-.2-.6-2.7-3.6-5.7-6.9-3-3.2-5.4-6.4-5.4-7.2 0-1.6 2.2-6.5 17.8-39.2 1.3-2.9 2.7-5 3-4.7s-.3 2.4-1.4 4.7m767.1 176.7c1.1.5 2.8.4 3.8-.1 1.3-.6 2.3-.5 3.4.4 1 .8 4.2 1.2 9.2 1.1l7.6-.1-7.9 1.1-7.8 1.2 5.4 5c11 10.2 13.3 12 15.3 12 1.1 0 2 .6 1.9 1.2-.1.7-.2 1.9-.2 2.7-.1.8-1.5 1.8-3 2.4-1.5.5-7.7 4.3-13.7 8.4-10.6 7.3-18.8 12.1-14 8.3 1.1-.9 8-5.7 15.4-10.7l13.4-9.1-2.9-2.6c-12-10.4-20.8-17-21.5-16-.4.8-.9.5-1.3-.8-.4-1.1-2.3-2.7-4.4-3.6-2-.8-3-1.5-2.2-1.5s2.4.3 3.5.7m229.5 94.5c0 1.3 2.2 2.8 4.4 3 1 .1 3.8 7.5 3.3 9-.2.5-1-1.3-1.9-4s-1.7-4.1-1.7-3c-.1 2.6 2 9.9 3.2 11.1.7.7.8.4.4-.8-.4-1-.1-1.7.7-1.7.7 0 2.3-3.2 3.6-7.5 1.8-5.7 2.8-7.5 4.2-7.5 1.6 0 1.4.9-1.6 9.2-4 11.4-5 15.8-3.3 15.4.7-.1.9-.1.5.1-1.2.7-.9 3.1.4 3.9.8.5.9.1.4-1.2-.5-1.4-.4-1.6.5-.7.6.6.8 1.6.5 2.2-.9 1.5-3.3.3-3.9-2-.3-1-1.4-1.9-2.5-1.9-1.5 0-2.5-1.5-4.2-6.3-1.2-3.4-3.3-9-4.6-12.5-2.2-6-2.3-6.2-.4-6.2 1.1 0 2 .6 2 1.4m-475.6 6.8c-1.6 1.8-3.2 3.5-3.5 3.8-1.5 1.3-3.6 7-2.8 7.6 1.4.8 1.1 2.4-.6 2.4-.8 0-1.5-.5-1.5-1 0-.6-.4-1-1-1-.5 0-1 .6-1 1.4 0 1.7-6.6 8.2-10.1 10-4.3 2.2-5.3.6-1.7-2.6l3.3-3-3.3 1.6c-1.8 1-3.5 2.3-3.8 3-.3.8-1.4 1.2-2.5.9-1.9-.5-1.9-.6.3-2.1 4.2-2.9 6.3-5.2 4.8-5.2-.7 0-2.2.7-3.2 1.7-1.7 1.5-1.8 1.5-1.8 0 0-1 .7-1.7 1.6-1.7s1.2-.5.8-1.2c-.5-.8-.2-.9.9-.5 1 .4 2.3 1 3.1 1.3.7.3 1.6-.2 1.9-1 .5-1.2 0-1.5-1.6-1.3-1.3.1-2.1-.3-1.9-1.1.1-.6-.2-1.2-.7-1.2s-1.1-.8-1.4-1.9c-.3-1.2-1.6-2-3.8-2.3-1.9-.3-3.6-.4-3.7-.3-.2.2-.6 2.2-.9 4.4-.4 2.7-.2 4.1.6 4.1.6 0 1.1-1 1.1-2.3 0-2.2 1.6-4.7 3.1-4.7.4 0 .4 1.4-.1 3.1-.5 1.6-.6 3.7-.3 4.6.5 1.2.2 1.5-1 1-.9-.3-1.9-.1-2.3.5-.5.7-1.2.5-2.2-.8-1.3-1.7-1.4-1.3-.9 3.9.3 3.2.3 6.5 0 7.3-.7 1.9-2.3.7-2.4-1.9 0-1.2-.3-1.6-.6-1-.2.7-.9 1.3-1.5 1.3s-.4-.8.5-1.8c1-1 1.7-2.7 1.7-3.8 0-1 .7-3.9 1.6-6.4 2.6-7.4 2.6-10.3.2-12.2-2.1-1.6-2.1-1.6 1.8-.9 2.1.4 5.1.6 6.7.5 1.8-.2 2.5.1 2.1.8-.5.7.2.9 1.9.6 1.6-.3 2.8 0 3.1.8.6 1.6 5.2 1.9 6.1.4.4-.6 1.4-.1 2.5 1.2l1.9 2.3.1-2.3c0-2.6 3-3.1 3-.5 0 1.2 1.4.3 4.2-3 2.2-2.6 4.5-4.7 5.1-4.7s-.2 1.5-1.9 3.2m502.2-.6c2.6 0 4.7.6 5.8 1.7 1 .9 2.3 1.7 3 1.7.8 0 1.9.7 2.6 1.5 1.1 1.3 1.6 1.1 4-1.5 3.9-4.1 7.1-4.7 12.2-2 5.3 2.7 8.8 5.9 8.8 7.9 0 1.4-.2 1.4-1.1.1-.8-1.2-.9-.8-.5 1.5l.5 3-1.2-2.8c-1.4-3.5-2.4-3.4-3.2.3-.4 1.6-1.7 3.8-3.1 4.9-3 2.4-3 3.1 0 3.1 1.5 0 3.3-1.1 4.5-2.6s2.1-2.3 2.1-1.8c0 1.8-4.5 5.4-6.7 5.4-1.5 0-2.2.4-1.7 1.1 1.1 1.9-3.7-1-8.7-5.2-4-3.3-5-3.7-7.5-2.9-1.6.4-2.5.9-2 .9.4.1-.2 1-1.5 2-3 2.4-1.8 3.8 1.8 2.2 2.7-1.1 2.7-1 .8.4-1.3 1-3 1.4-4.8 1.1q-2.85-.6-2.1.6c.9 1.4-1 .3-5.8-3.5-2.1-1.6-3.8-3.5-3.8-4.3s-.5-1.4-1.1-1.4c-.8 0-.9-1.1-.4-3.3.4-1.7.8-4.3.7-5.6 0-1.8.2-2.1.9-1s1 .9 1.5-.9c.4-1.3 1-2 1.3-1.5s2.4.9 4.7.9"/><path d="M424 90.6c-12.9 2.9-26.3 5.8-29.7 6.5-3.5.6-6.3 1.5-6.3 2s3.3 3.1 7.3 5.9c3.9 2.7 9.7 7 12.7 9.4 8.9 7.1 20.2 14.6 21.1 14 .5-.3 3-4.9 5.5-10.2s7-14.7 10-20.7c3-6.1 5.4-11.4 5.4-11.8 0-1-.3-1-26 4.9M446.7 97.2c-8.8 17.8-11.7 24.8-11.5 27.9.3 3.6 1 3.6 11.3 0 4.4-1.6 18.7-6.4 31.7-10.7 13.1-4.4 23.8-8.1 23.8-8.4 0-.7-9.4-4.9-18.5-8.2-4.4-1.6-12.8-4.9-18.6-7.3C459 88 453.8 86 453.3 86s-3.5 5.1-6.6 11.2M378.5 103.5c-2.2 2-7.1 5.6-11 8.2-3.8 2.6-7.3 5.2-7.8 5.9-.4.7-3.8 3.5-7.5 6.2s-8 6.2-9.7 7.6l-3 2.8 18.5-.7c10.2-.3 26.6-1.1 36.5-1.7s20.8-1.1 24.2-1c5 .1 6.1-.2 5.6-1.4-.3-.7-1.4-1.4-2.4-1.4s-1.9-.5-1.9-1.2c0-.6-.6-.3-1.4.7-1.3 1.9-1.4 1.8-1-.5.5-2.5-3.2-6.1-16.1-15.4-2.2-1.6-4.2-3.2-4.5-3.5-1.2-1.5-12.1-8.1-13.2-8.1-.7 0-3.1 1.6-5.3 3.5M372.5 102.1c-2.5.8-17.2 4.7-50.4 13.5-2.9.8-6 1.3-6.9 1.2-3.5-.7-1.7 2 4.2 6.1 3.5 2.3 6.6 5.2 6.9 6.2s.4 1.9.2 1.9-2.9-2.5-5.9-5.5c-7.4-7.2-9.5-7.7-13.8-3.2-4 4.2-20.5 19.7-30.6 28.6-3.9 3.6-7 6.7-6.8 6.9.3.2 8.7-2.6 18.8-6.3 27.8-10.2 37.7-14.1 44.3-17.3 6.1-3 24.4-15.8 27.9-19.5 1-1 4.9-3.9 8.6-6.2 10.1-6.6 11.3-8.8 3.5-6.4M514.2 114.6c1.2 1.6 5 5.7 8.3 9.2s6.6 7 7.3 7.8 2 1.4 2.8 1.4 1.4.5 1.4 1.1c0 .5.4.8.9.4.5-.3 1.2-.1 1.6.5.3.5.1 1-.4 1-2.8 0-.4 4.7 6.2 12.2 3.9 4.5 9.4 10.9 12.1 14.2 8.6 10.5 6.7 9.9 18.1 5.5 5.5-2.2 13.7-5.1 18.3-6.5 4.5-1.4 8.2-2.9 8.2-3.4 0-1.1-7.2-5.1-30-16.8-22.5-11.5-32.4-16.7-41.2-21.5-3.7-2-7.4-3.7-8.2-3.7-.9 0-1.6-.4-1.6-.9s-.8-1.1-1.7-1.5c-1-.3-2.4-.9-3.1-1.2-.8-.4-.3.7 1 2.2M357 136c-5.2.4-11.9.8-14.9.9-5.2.1-5.3.2-3.8 1.9 1.2 1.4 1.4 2.1.5 3-.8.8-.5 2.5 1.2 6.6 1.2 3.1 2.6 5.6 3.1 5.6s.9 1.2.9 2.7c.1 3.4 4.4 13.6 5.3 12.7.4-.4.7-1.7.7-2.8 0-1.7-.2-1.8-1-.6-1.1 1.7-1.1 1.8-1.4-7.3l-.3-6.7H364v-3.5c0-2.8.4-3.6 2.4-4.1 1.3-.3 2.8-1.6 3.5-3 .6-1.3 1.9-2.4 2.9-2.4.9 0 2.7-.7 3.8-1.4 1.2-.8 4.7-1.7 8-1.9 3.2-.2.5-.3-6.1-.3-6.6-.1-16.3.3-21.5.6"/><path d="M316 142.7c-31.6 11.5-41.7 15.1-43.7 15.7-4.3 1.3-4.6 2.9-2.9 12.5.9 4.9 1.4 10.1 1 11.5-.3 1.4.3 8.3 1.5 15.3 1.1 7 2.2 14.3 2.3 16.1.3 4.7 2 5.8 6.9 4.3 2.3-.7 4.3-1 4.5-.8.3.2-1.6 1-4.1 1.7-2.9.8-4.5 1.8-4.5 2.8 0 1.6 6.7 8.4 13.9 14.1 2 1.6 6.3 5.1 9.6 7.7 3.3 2.7 11.4 9.6 18.1 15.4 6.6 5.8 16.2 14.1 21.4 18.5 5.1 4.4 11.4 9.9 13.9 12.3 6.7 6.2 9 7 23.6 7.6 7.2.3 16.1.8 19.9 1.2 5.8.6 7 .5 7.8-.9 1.2-2.2 4.4-2.2 5.7 0 .6 1.1 1.1 1.3 1.1.5 0-.7.5-1 1-.7 1.4.8 1.3.6-1.3-5.6-2.5-6.2-7.3-14.8-16.6-29.9-3.5-5.8-7.8-13-9.6-16.1s-6.6-11.2-10.7-18c-9.5-15.8-12.3-20.8-11.7-21.3.2-.2 8.3 12.7 17.8 28.7 9.6 16.1 19.9 33.2 22.8 38 3 4.9 6.8 11.4 8.5 14.5 4.2 7.6 5.2 9.2 5.8 9.2.3 0 .6-2.8.8-6.3.3-8.3 1.9-31.6 3.1-45.2.5-6.1 1.3-15.1 1.6-20l.7-9.1-9.4-2.6c-5.1-1.4-12.9-3.4-17.3-4.3-4.4-1-13.9-3.3-21.1-5.1-7.3-1.9-13.9-3.4-14.8-3.4-1.3 0-1.6 1.2-1.7 6.7l-.2 6.8-.7-5.5c-.9-6.2-1.8-9-3.1-9-.4 0-.6-.7-.3-1.5.8-1.9-6.9-24.8-9.6-29-.4-.6-1.7-3.9-3-7.5s-3.2-8.5-4.3-11-2.8-6.4-3.8-8.8c-1-2.3-2.1-4.2-2.3-4.2-.3 0-1.8 2.1-3.3 4.7-1.5 2.7-3.3 5.4-4 6.1-.7.8-1.8 2.3-2.5 3.5-.6 1.2-3.2 4.9-5.7 8.2-2.6 3.3-8.5 11.8-13.3 19-4.8 7.1-9.4 13.8-10.1 14.7-2.3 2.9-2.9 2.1-.9-1 1-1.5 3.3-5 5.2-7.7 1.8-2.8 4.8-7.1 6.7-9.7 1.8-2.6 3.3-5.2 3.3-5.7s.4-1.1.8-1.3c.5-.2 2.6-3 4.7-6.3 2.2-3.3 6.2-9.2 9.1-13 5.7-7.8 7.9-11.5 6.7-11.4-.4 0-6.4 2.1-13.3 4.6M459.5 197c-1.1.5-3.5.9-5.3.9-2.1.1-4.3 1-6 2.6-1.9 1.8-3.4 2.4-5 2-1.8-.4-3.2.2-5.5 2.5-1.7 1.6-2.7 3-2.3 3 .5 0 2-1.2 3.3-2.6s2.6-2.4 2.9-2.2c.9 1-4.6 5.8-6.6 5.8-1.1 0-2 .6-2 1.4s-.9 1.8-2 2.1c-5.6 1.8-.3 2.7 23.8 4.1l9.2.6v-5.9c-.1-3.5-.6-6.6-1.5-7.7-2.1-2.8-1.9-3.6 1-3.6 1.4 0 2.5-.4 2.5-.9s-1-.7-2.2-.5c-1.3.2-1.7.2-1-.2.6-.3 1-1 .6-1.5-.6-1.1-1.2-1.1-3.9.1M425.6 223.2c-1 9.4-4.1 47.8-5.7 70.8-.1.8-.1 2.2 0 3 .1 1.9 28.4-27.1 36.2-37.2 3.2-4.2 6.3-8 6.9-8.3 1.2-.7 13.8-15.6 19.2-22.6 3.3-4.3 3.6-5 2-5.8-1.8-.9-21-3.3-41.9-5.1-17.6-1.5-16-2-16.7 5.2M258 224c-5.8.9-11.7 2.2-13.2 2.8-2.6 1.1-2.8 1.5-2.8 7.1 0 3.4-.5 6.3-1.1 6.7-.8.5-1-.1-.7-2 1.2-6-1.5-3-6.8 7.6-3.3 6.8-5.6 12.6-5.5 14.4 0 4.1 3.8 25.8 5.7 33 .8 3 1.4 6.5 1.4 7.7 0 2.2.1 2.2 2-.3 1.6-2 1.9-2.1 1.4-.5-.4 1.1-1.2 2.6-1.8 3.4-.8 1-.2 2 2.7 4.3 7.8 6.3 33 22.8 34.7 22.8 2.1 0 .7-97.6-1.5-99.8-.8-.8-4.4 4.2-5.1 7.2-.8 3.5-9.5 21.9-10 21.3-.3-.2 1.3-4.2 3.5-8.8 2.1-4.6 4.7-10.6 5.6-13.4 1-2.7 2.8-5.9 4-7.1s2.5-3.6 2.8-5.3c.6-2.9.5-3.1-2.1-3-1.5.1-7.4.9-13.2 1.9M490.8 230.8c.2 3.7.8 9.1 1.3 12.1s.9 9.3.9 14 .5 14.2 1.2 20.9c1 11 1.4 12.5 3.2 13.2 1.4.6 1.6.9.6 1.1-.8.1-1.8.1-2.1.1-.8-.1.8 10.8 2 13.9.5 1.3 1 1.7 1.1.9 0-1.2.2-1.2.9-.2 1 1.6 7-4.2 23.1-21.9 5.8-6.4 14.8-16.3 20-21.9s9.6-10.6 9.8-11.1c.5-1.3-10-6.2-35.5-16.5-13.1-5.3-24.5-10-25.3-10.4-1.4-.7-1.5.1-1.2 5.8M483.9 229.7c-2 2.1-6.5 7.4-10 11.8-3.6 4.4-8.9 10.6-11.9 13.8-2.9 3.2-6 6.8-6.9 8-2 3-9.7 11.3-20.8 22.6-5.1 5.1-9.3 10-9.3 10.7 0 1.1 1.4 1.3 7.3.8 3.9-.4 8-1.1 8.9-1.5 4.4-2.3 9 .1 5.6 2.8-1.8 1.4-6.9 2.3-6.2 1.1.8-1.3-4.7-.6-6.2.7-1.8 1.5-.9 2.2 3.1 2.3 1.9.1 4.3.5 5.3 1 .9.5 5.8 1.6 10.7 2.5 21.6 3.9 37.2 6.8 39.7 7.3 2.6.6 2.7.5 2.3-2.7-2.2-17.6-3.3-32.1-4-51.9-.3-8.5-1.2-18.4-1.9-22-.8-3.6-1.2-7.5-1-8.8.6-3.2-.7-2.7-4.7 1.5M885.9 99.2c.7 1 1.9 1.8 2.6 1.8s8.1 6.6 16.5 14.7c8.3 8.2 16.1 15.3 17.3 15.9 2.9 1.5 38.7 2.7 40.7 1.4 1.2-.8 1.1-1-.5-.8-1.1.1-7.3-2.3-13.8-5.5-6.5-3.1-12-5.7-12.2-5.7s-5-2.2-10.7-4.8c-14-6.6-32.7-14.8-35.8-15.7-1.4-.4-3.2-1.3-4-1.9-1.3-1-1.3-.9-.1.6M876 100.6c-1.9.7-4.3 1.3-5.2 1.3-1 .1-3.7.7-6 1.5-2.4.8-8.1 2.6-12.8 4s-9.1 3-9.9 3.5c-1.6 1.1-1.1 1.9 6.5 10.8 6.6 7.7 9.5 10.4 10.6 9.7.4-.3.8-.2.7.3-.5 2.9 4.5 9.8 6.3 8.6.6-.3.9-.2.6.3s.3 1.8 1.3 2.8c1.5 1.5 1.9 1.6 2.2.5.3-.8 1.2-3.9 2.1-7 2.1-7.1 2.1-6.9-1.2-6.3-3.4.7-6.7-2.1-3.8-3.2.9-.3 1.6-1.2 1.6-2 0-2.4 1.7-1.5 2.4 1.2.4 1.4 1.2 2.4 1.9 2.2 1.5-.5 4.4-9 5.3-15.4.3-2.7 1.2-6.7 1.9-9.1 1.7-5.7 1.4-6-4.5-3.7M883.4 100.8c0 .9.6 2 1.1 2.4.6.5.6.8-.2.8-.6 0-1.4 1.2-1.7 2.7-.4 1.6-.8 3.7-1.1 4.8-.2 1.1-1.1 5.1-1.9 8.8-.8 3.8-1.2 7.5-1 8.2.3.7.1 3.6-.4 6.4-.9 5-.6 5.8 2.3 5.1 8.1-1.9 11.2-3.3 14.2-6.4 2.8-2.7 4-3.3 5.3-2.6 1.1.6 2.1.5 2.8-.2s1.2-.8 1.2-.3c0 .6.4.4.9-.4.7-1.1 1.3-1.2 2.3-.4.7.6 2.8 1 4.6.8 3.7-.2 5.7-1.5 2.4-1.5-1.2 0-2.2-.5-2.2-1.1 0-.5.6-.7 1.3-.3.6.4-4.2-4.8-10.8-11.5-6.6-6.6-12.5-12.1-13.2-12.1s-1.3-.3-1.3-.8c0-.4-1.1-1.5-2.4-2.4-2.2-1.6-2.4-1.6-2.2 0M927.7 136.9c-.7 2.7 5.1 8.6 9.3 9.4 2.7.6 4.3 2.7 2 2.7-.5 0-1 .6-1 1.4s-.8 1.7-1.7 1.9q-1.95.45.6.6c1.4 0 3.3-.7 4.3-1.6 1.2-1 2.2-1.3 2.6-.8.4.6 1.7 1.1 2.9 1.3 1.7.2 2.4-.3 2.9-2.3.4-1.4 1.2-2.4 1.8-2.2.6.3 2.2-.4 3.5-1.4 2.2-1.8 2.2-2 .7-4.4-2.1-3.1-2-3.5.4-3.5 1.1 0 2 .5 2 1 0 .6.8 1.9 1.8 3 1.7 1.8 1.7 1.8 1.8-.3 0-1.2.4-3 .8-4 .8-1.6-.2-1.7-13-1.7-7.7 0-15.5-.3-17.5-.6-3.1-.5-3.7-.3-4.2 1.5M964.5 141.2c-.4 1.3-2.7 6.3-5 11.3-8.2 17.1-11.5 24.8-11.5 26.6 0 1.1 6.9 8.8 16.3 18.1 8.9 9 18.7 19.2 21.7 22.7 10.5 12.2 11.8 13.6 12.4 13 .4-.3.2-1.8-.4-3.3-.5-1.5-1.2-3.9-1.5-5.4-.2-1.5-1.2-4.5-2.1-6.7-2.7-6.5-3-7.3-7.9-23-6-19-15.6-45.8-16.7-46.6-.5-.3-1-1.9-1.1-3.6-.1-2-.6-2.9-1.5-2.6-.8.4-1 0-.6-1.1.3-.9.1-1.6-.4-1.6-.6 0-1.4 1-1.7 2.2M949.7 192.4c.3 4.5 1.1 8.2 5.4 26.3 1.6 6.7 2.9 13.1 2.9 14.1 0 1.6 1 2 6.3 2.5 12.9 1.3 33.7 2 33.7 1.1 0-2.6-44.6-48.1-47.2-48.1-1 0-1.3 1.1-1.1 4.1M839.2 213.8c-1 .7-1 1.6.2 4.8 1.5 4.2 15.8 33.7 20.1 41.4 1.4 2.5 3.6 7 5 10 3 6.8 8.6 17.1 10.2 18.8.7.7 1.3 1.9 1.3 2.6 0 .8.7 1.9 1.5 2.6 1.2 1 1.5 1 1.6-.1 0-.8.2-2.8.3-4.4.2-1.7.4-8 .6-14 .1-6.1.6-14.6 1.1-19 .4-4.4.9-14.5 1.1-22.4.3-13.6.2-14.4-1.7-15.2-2.7-1-13.8-2.6-26.8-3.9-5.9-.6-11.3-1.3-12-1.5-.7-.3-1.8-.1-2.5.3M959 237.5c0 .8 4.5 6.9 16.6 22.8 9.2 12.1 15.3 20.1 16.1 21.2 4.4 5.6 5.2 6.8 4.8 7.5-.3.4.2 1 1 1.4.8.3 1.6.2 1.9-.2.3-.5.6-12 .8-25.7l.3-25-6-.6c-10.9-1.2-35.5-2.1-35.5-1.4M885.1 241.5c-.2 1.1-.4 2.9-.6 4-.1 1.1-.6 4.5-1 7.5-.3 3-.8 6-1 6.7-.6 1.8.7 2.4 2.2 1.1 1-.8 1.6-.9 2.1-.1 1.1 1.7 9.5 2 10 .4.3-.8 0-1.1-.7-.7-.7.5-1.1-.3-1.1-2.3 0-1.6.5-3.3 1-3.6.6-.4 1 .5 1 2 0 1.6.4 2.4 1.1 2 .6-.4.8-1.3.5-2.1s.1-1.4.8-1.4c.8 0 1.6-.9 1.9-2.1.5-2 .5-2-1.4-.3-1.7 1.5-2.3 1.3-2.1-.7.1-.4-.8-.5-1.8-.2-1.1.3-2.6 0-3.3-.6-.8-.6-1.7-.7-2.2-.3-.4.4-.5-.5-.1-2.1.5-2.3.2-2.9-1.8-3.8-1.4-.7-2.7-2.1-2.9-3.3-.4-2-.4-2-.6-.1M957.3 243.2c-.9 1.2-5.3 18.1-5.3 20.5 0 .6 1.2 1.8 2.8 2.6 1.5.8 6.1 3.5 10.2 6s7.6 4.4 7.8 4.2c.2-.1-2.6-6.8-6.2-14.8-3.6-7.9-6.6-15.1-6.6-15.8 0-.8-.4-2-.9-2.7-.6-1.1-1-1.1-1.8 0M963 247c0 .9 1.6 5.4 3.6 10 2 4.7 4.7 11.1 5.9 14.3 1.3 3.2 3.7 6.8 5.2 8 4.4 3.5 17.3 10.6 17.3 9.5 0-.5-1.3-2.6-2.8-4.6-1.6-2-4.7-6.2-7-9.2s-6.1-7.8-8.5-10.6c-7-8.4-10.1-12.5-11.9-15.8-.9-1.7-1.7-2.4-1.8-1.6M903.5 256c.3.5.1 1-.4 1-1.4 0-6.3 10.1-5.7 11.7.3.6-.2 1.7-1 2.3-.8.7-1.4 1.6-1.4 2.1 0 .4-1.1 1.9-2.5 3.3s-2.5 3.4-2.5 4.5-.5 2.3-1 2.6c-1.2.7-5 7.9-5 9.5 0 1.5 1.4 1.2 7.5-1.6 3.7-1.8 5.4-3.1 5.1-4s.5-1.6 2.2-2c1.5-.4 3.6-1.4 4.6-2.3 1.1-.9 1.6-1 1.2-.4-.4.8-.1 1.3.9 1.3.8 0 1.8-.7 2.1-1.5.4-.8 1.5-1.5 2.5-1.5s1.9-.5 1.9-1c0-.6.3-.9.8-.9 2.2.4 4.2-.2 3.7-1.1-.3-.6 0-1.1.7-1.1.7-.1 2-.3 2.8-.4s2.1-.3 2.8-.4c.6 0 1.1-.7 1-1.4-.2-.6.6-1.2 1.7-1.2 2.3 0 4.5-1.6 3.8-2.8-.2-.4.4-.7 1.3-.7 1 0 1.4-.3 1.1-.7-.9-.8 2.4-3.2 4.6-3.3 1.4 0 1.5-.3.6-1.8-.8-1.3-2.8-1.8-8.9-2-7.1-.3-7.9-.2-9.4 1.9-1.8 2.6-4.6 3.4-4.6 1.3 0-.9-.4-1.3-.9-1s-1.1-.8-1.3-2.4c-.3-1.7-.1-3 .4-3 .4 0 .8-.3.8-.8 0-.4-1.7-.7-3.7-.8-2 0-3.9-.6-4.1-1.2-.2-.7-.8-1.2-1.3-1.2-.6 0-.7.4-.4 1M953 270.1c0 1.3.9 5.7 1.9 9.8 1.1 4.2 2.2 8.8 2.6 10.3.3 1.6.9 2.8 1.4 2.8s3.9-3 7.5-6.6c5.3-5.4 6.3-6.9 5.2-7.9-.7-.7-5.1-3.4-9.9-5.9-8.3-4.5-8.7-4.6-8.7-2.5"/><path d="M964.3 291.5c-5.9 6.1-8.9 8.6-8.3 7 .9-2.3.8-2.6-.7-2.1-2.4.7-8.4 2.1-16.8 4.1-3.8.9-7.6 1.8-8.3 2.1-.8.2-.2 2.2 2.1 6.6 2.9 5.6 3.7 6.3 6.6 6.6s3.9-.3 7.8-4.5c2.5-2.6 4.9-5.9 5.4-7.2s1.2-2.1 1.5-1.8c.4.3-.8 3-2.5 6s-3.1 5.7-3.1 6c0 .9 9.9 3.7 12.8 3.7 2.6 0 2.7-.7.7-11.5-.3-1.7.5-.3 1.7 3.1 3 7.9 5.4 11.4 7.9 11.4 1.6 0 1.9.4 1.4 2-.9 2.7.9 2.5 2.2-.3 3.3-7.1 4.7-10.3 4.9-11.2.2-.6.6-1.9.9-3 .4-1.6-.3-2.4-3.2-3.9-14.3-7.2-16.6-8.5-15.3-8.6 1.7 0 12.3 5.1 15.8 7.6 2.2 1.6 2.2 1.6 2.3-2.7.1-2.4.4-3.5.6-2.4.3 1.1.9 3.1 1.4 4.4l.9 2.3 3.3-2.4c1.7-1.4 4.8-3.3 6.7-4.3 5.6-2.9 6.4-4.1 3.8-5.9-1.2-.9-3-1.6-4-1.6s-2.7-.9-3.7-1.9c-2.7-2.7-11.5-7.3-11.9-6.3-.1.5.4 3.5 1.3 6.7 2.1 8.4 1 8-1.5-.4-1.1-3.9-2.4-7.1-2.8-7.1s-4.9 4.3-9.9 9.5M1046.8 292.3c-2.1 2.1-3.8 4.4-3.8 5.2s-.4 1.5-.8 1.5c-.5 0-1.4 2.3-2.1 5.2-1 4.5-4 11.9-7.2 18-1.3 2.5-.2 2.2 3.6-1 1.7-1.5 4.2-3.4 5.5-4.2 5.5-3.6 8.1-6.4 7.9-8.4-.1-1.1.1-2.8.5-3.7s.6-4.9.4-9l-.3-7.3zM882 300.6c0 .5 1.6 3.5 3.5 6.7s3.5 6 3.5 6.3 2.6 5.7 5.7 12c5.6 11.1 7.6 13.3 8.7 9.6.3-.9 2-3.3 3.7-5.2 1.6-1.9 5.1-6.1 7.6-9.3 2.5-3.1 4.8-5.5 5.1-5.2s-.8 2.2-2.5 4.3c-1.6 2-3.5 4.7-4.2 6l-1.2 2.3 4-2.5c2.2-1.5 4.5-2.6 5.1-2.6 1.6 0 10-4.3 10-5.2 0-.4.7-.5 1.6-.1 1.2.4 1.4 0 .8-2.3-1-4-4.3-10.4-5.4-10.4-.5 0-2.3 2.1-4 4.6-1.8 2.5-3.4 4.3-3.7 4-.3-.2.7-2.2 2.1-4.3 4.6-6.7 4-7.3-7.1-7.5-5.4-.1-11.1-.3-12.8-.4-15-1.3-20.5-1.6-20.5-.8M878 305.2c0 1.8-.5 4-1.1 4.8-.8 1.2-1 .9-.6-1.2.8-5.1-.6-5.4-8.5-1.6-4 1.9-11.8 6.1-17.3 9.4-5.5 3.2-11.2 6.5-12.8 7.3-1.5.8-2.7 1.8-2.7 2.3 0 .8 32.1 16.8 33.9 16.8.5 0 1.2-1.2 1.4-2.8.4-2.5.4-2.5.6.5 0 1.8.6 3.3 1.1 3.3 2 0 20.6-3.1 24.2-4.1l3.7-.9-6-12.1c-3.2-6.6-5.9-12.3-5.9-12.7 0-1.7-6-10.1-7.9-11.2-1.9-1-2.1-.8-2.1 2.2M832.8 338.7c.1 5.4.5 14 .8 19l.6 9.3 4.6-2.7c5.3-3.1 18.9-12.2 24-16.1l3.4-2.6-3.9-2.3c-3.9-2.5-28.1-14.3-29.2-14.3-.3 0-.5 4.4-.3 9.7M983.8 330.7c-6 .4-7.2 1.5-3.8 3.3 1.1.6 1.9 1.4 1.8 1.8s.7 2.3 1.7 4.4c1.2 2.5 2.3 3.4 3.3 3 1-.3 1.3-.1.8.6-.4.7-.4 1.2.1 1.2 1.2-.1 7.3-10.5 7.3-12.5 0-.9.4-1.4.9-1 1.1.6-.5 5.9-3.8 12.4-1.2 2.3-1.9 4.6-1.6 5.1.7 1.1 6.7 1.3 10.1.4 1.9-.5 2.1-1 1.3-4.4-.5-2-1.4-5-2-6.6-.7-1.6-1.4-3.8-1.6-4.9-.5-2.5-2.2-3.5-5.8-3.3-1.6.1-5.6.3-8.7.5M897.9 341.4c-.2.2-6 1.2-12.9 2.2-6.9.9-12.9 2.1-13.4 2.5-1.1 1 13.1 15.9 15.1 15.9.8 0 1.1.5.7 1.1-.4.8 0 .9 1.5.4 2-.6 3.1 1 1.2 1.7-.5.1 1.2 2.1 3.7 4.2 2.6 2.2 4.2 3.4 3.5 2.7-.6-.8-.9-2-.6-2.7q.45-1.35-.9-.9c-.8.3-2.1-.1-2.8-1-.8-1-.9-1.5-.2-1.5.6 0 .9-.6.6-1.4-.3-.7.2-1.6 1-1.9 1.2-.5 1.6 0 1.6 1.6 0 1.8.2 1.9 1 .7.5-.8 1-2.7 1-4.3 0-2.1-.5-2.7-2.1-2.7-3.1 0-1.8-2.2 1.5-2.6 1.6-.2 3.1-.5 3.4-.8.3-.4.5-3.4.5-6.9 0-4.5-.4-6.3-1.5-6.5-.8-.1-1.6-.1-1.9.2M856.5 355.2c-6.6 4.5-14.2 9.6-16.8 11.4l-4.8 3.2 6.3 3.8c3.5 2.1 8.4 5.3 11 7.1s5 3.3 5.3 3.3c.2 0 3.5 2 7.2 4.5s7.2 4.5 7.9 4.5c.6 0 1.7.7 2.4 1.5 2.1 2.5 2.8 1.7 2-2.3-.5-2-1.1-5.3-1.4-7.2-.4-1.9-1.6-8-2.7-13.5s-2.5-13.3-3.2-17.2l-1.2-7.3zM976.4 387.2c-1.5.7-2.9 3.4-4.8 9.2-1.4 4.5-2.6 8.7-2.6 9.3 0 1.2 6.1 2.1 16.5 2.6 4.9.2 5.9-.1 5.7-1.3-.2-.8-.4-2.3-.5-3.2-.1-1-.5-1.8-1-1.8-.4 0-1.9-1.1-3.3-2.5-2.1-2.1-2.3-3-1.8-6.5 1-6.2-2.4-8.7-8.2-5.8M964.4 390.1c.4 1.9.9 5.3 1.3 7.6.9 6.5-1.2 5.3-2.6-1.5-1.6-8-1.7-8.2-7.3-6.9-2.7.7-4.8 1.4-4.8 1.8 0 .9 12.9 12.9 13.9 12.9 1.7 0 3.9-4.6 4.6-9.7l.7-5.1-2.8.6c-1.8.3-2.5.1-2-.6.3-.6.1-1.4-.5-1.8-.9-.5-1 .2-.5 2.7M946 391.3c0 .4-.9 4.2-2 8.3-2.4 8.7-2 11.7 1.3 10.9 1.2-.2 5.5-.9 9.6-1.4 4-.5 7.8-1.4 8.3-1.9s-2.6-3.7-7.4-7.8c-4.6-3.8-8.6-7.3-9-7.9-.4-.5-.8-.7-.8-.2M1042.8 409.6c-1.2 1.1-1 3.6.2 2.9.6-.3 1 .3 1 1.4 0 3.1-1.5 2.5-3.4-1.2-1-1.7-1.5-2.3-1.2-1.2 1.8 6.8 3.1 11.1 3.6 11.5.3.3 1.1 2.4 1.8 4.7 1.6 5.4 3.7 9.4 4.5 8.6.4-.3.7.8.7 2.5 0 3.4.5 3.6 5.8 2.6 3.6-.7 3.8-.1-3.7-15.4-3.8-7.8-5-9.6-4.6-7 .5 4.4-.8 1.7-2.7-5.3-.7-2.7-1.6-4.5-2-4.1M1019.3 445.7c-11.7.2-21.3.7-21.3 1.1s4.7 3.2 10.5 6.1l10.6 5.3 3.8-1.6c3.5-1.3 20.6-11.9 18.5-11.4-.5.2-10.5.4-22.1.5M504.8 606.2c-.2 1.3.2 3.2.9 4.3s1.5 3.6 1.8 5.5c.4 1.9 1.4 7.1 2.4 11.5 1.5 7 1.9 8 3.6 7.6 1.1-.2 5.2-.6 9-.8 4.4-.3 7.7-1.1 8.8-2 1.6-1.5 1.7-1.5 1.7.3.1 2.2 3.4-3.6 5.5-9.7 1.3-3.7 1.3-3.8-1.3-4.7-1.5-.6-9.2-4-17.1-7.6-8-3.6-14.6-6.6-14.7-6.6-.2 0-.4 1-.6 2.2M540.6 625.5c-.3.8 0 1.5.7 1.5s.5.5-.4 1-1.6 2.3-1.7 4c0 1.7.3 2.8.8 2.5.4-.3 1.1.3 1.4 1.2.4.9.1 2-.6 2.4-2.5 1.6 1.9 13.9 5 13.9 1.2 0 2.3 3.8 1.3 4.5-.4.2-.6 1.7-.3 3.3.4 2.9 4.4 6.2 7.5 6.2.9 0 1.8.6 2 1.2.3.8.6.6.6-.4.1-1-1.1-4.8-2.5-8.5-1.4-3.8-4.1-11.8-6-17.8-5.1-16.1-6.4-18.6-7.8-15M459.5 642.2c.3 1.8 1.4 8.7 2.6 15.3 1.1 6.6 2.3 13.9 2.5 16.1.2 2.3 1.1 6.1 1.9 8.4s1.5 5.1 1.5 6.1c0 1.1.5 1.9 1.1 1.9.5 0 .9-.8.7-1.9-.2-1 1-3 2.8-4.7 1.7-1.6 2.9-3.5 2.6-4.3s0-1.1.5-.8c.9.6 6.9-6.6 7.2-8.6.3-2.2 3.2-7.8 3.8-7.4.5.3.9-2.2.9-5.5.1-3.9.6-6.4 1.5-7 1-.7.5-.8-1.8-.6-1.7.3-3.1 0-3-.5.1-.8-23-9.7-25.1-9.7-.2 0 0 1.5.3 3.2M553.5 672.9c-3.3.5-3.6.8-2 1.4 1.4.6 1.6 1 .7 1.6-1.3.8-.6 4.1.9 4.1.5 0 .9 1.4.9 3 0 2.6.5 3.1 3 3.6 1.6.4 2.8.9 2.6 1.3-.3.4 2.2 1.6 5.4 2.7l5.9 2.1-2.2-4c-1.2-2.1-3.4-6.1-4.9-8.9-2.9-5.5-4.7-7.9-5.7-7.7-.3.1-2.4.5-4.6.8M467.7 705.1c-.4 4.1-1 9.1-1.3 11.1l-.7 3.8h10c6.9 0 10.3-.4 11-1.3.6-.8-2-4.1-8.8-11.1l-9.6-9.9z"/></svg>