<svg xmlns="http://www.w3.org/2000/svg" width="1706.667" height="960" viewBox="0 0 1280 720"><path d="M0 360v360l236.3-.2c219.3-.3 236.2-.4 236.2-2 0-1.4-4.7-7.3-14.2-17.8-1.8-1.9-3.3-3.3-3.4-3 0 .3-.2 1.2-.3 2-.2.8-.6 4.5-1 8.2s-1.1 7.8-1.6 9c-.8 1.9-.9 1.7-.4-1 1.6-8.7 1.9-24 .7-30.4-.7-3.7-2.2-13.2-3.3-21-3.1-20.9-3.8-23.8-5.8-23.1-1.4.4-1.4.3-.3-.5.8-.6 1.1-1.6.8-2.4s-.1-2.1.4-2.9c.7-1.2 1-1.1 2.1.2 1.2 1.5 18.7 8.1 24.8 9.3 1.4.3 3.6.8 5 1.2 2.5.7 2.5.7.6-1.4-1-1.1-1.6-2.7-1.3-3.4.2-.7-.4-2.3-1.5-3.5-2.3-2.5-3.7-10.3-1.9-10.3.6 0 1.4.6 1.7 1.4s1.4 1.6 2.5 1.9c1.2.3 1.9 1.4 1.9 3 0 2.7 3.2 5.7 6 5.7 1.2 0 1.9-3 3.3-15.8 1-8.6 2.1-17.2 2.4-19 .5-3.1.4-3.2-3-3.2-6 0-12.7-3.7-16.5-9.1-2-2.9-.1-2.2 3.5 1.1 4 3.7 5.2 2.2 2.2-2.7-1.3-2-1.7-3.3-1.1-2.9 1.9 1.2 4.2 6.3 3.6 8-.4 1.1.6 1.8 3.5 2.7 2.3.7 4.4.9 4.7.6.4-.3-.9-2.5-2.7-4.9-4.2-5.3-6.2-8.8-5.5-9.5.3-.3 1.3.8 2.3 2.3 3.3 5.3 9.5 13.4 10.1 13.4.8-.1 17.6-27.4 18.8-30.3.6-1.6.2-1.7-3.7-1.2l-4.4.5 4.8-1.4c4.5-1.3 6.4-2.8 9.4-7.3.8-1.1.7-.4-.1 1.7-.8 1.9-1.7 4.7-2.1 6.2-.3 1.6-1.1 2.8-1.9 2.8-.7 0-1.7 1-2.3 2.2-.6 1.3-4.5 8-8.7 15-4.2 7.1-7.6 12.9-7.6 13.1 0 .7 32 14.7 33.6 14.7.4 0 .3-.8-.1-1.8-1.2-3.1-4.5-16.5-4.1-16.9.2-.2 1.6 3.6 3.1 8.4 1.6 4.8 3.1 9.2 3.5 9.6.9 1 23.9-21.9 25.1-24.9.9-2.5 2.9-3.3 2.9-1.2 0 .7-5.9 7.3-13.1 14.7-12.3 12.6-13 13.5-12.3 16.5 1.1 5.4 14.6 45.5 15.9 47.2 1.1 1.5 1.6 1.2 4.8-3.1 2.1-2.6 3.7-4.4 3.7-4s-1.6 2.7-3.5 5.1c-1.9 2.3-3.5 4.8-3.5 5.4 0 .7 2.6 5.8 5.7 11.3 4.2 7.5 8.1 12.7 14.7 19.6 5 5.2 7.5 8.2 5.6 6.8s-5.7-4.9-8.4-7.7c-3.1-3.3-5.4-4.9-6.4-4.5-.8.3-2.1 0-2.9-.7-1.9-1.6-14.9-5.8-17.8-5.8-1.3 0-2.5-.4-2.7-1-.4-1.4-7-2-8.5-.8-.7.5-1.8.8-2.5.5-.8-.4-.7-.6.5-.6.9-.1 1.7-.6 1.7-1.1 0-1.5-3.7-1.2-4.3.4-.3.9-1.5 1.2-3.1.9-1.4-.3-2.6-.4-2.7-.2-1.3 8.2-.4 12.1 6.4 25.6 3 6.1 3.2 6.3 6.9 6.3 6 0 29.2-6.2 30.3-8.1.5-.7 1.1-.6 2.1.2 1.5 1.2.9 3.3-.7 2.4-.8-.5-4 .3-16.4 4.4-2 .6 17.5 1 60.2 1 59.1.1 63.3 0 64.3-1.7 1.1-1.6 1.1-1.6.6 0s.5 1.8 11.3 1.8c6.6 0 12.6-.3 13.5-.6s1.6-1.7 1.6-2.9c0-2.8 2.6-3.9 6.7-2.9 3.5.8 8.4 3.5 9.8 5.2.7.9 3.5 1.2 9.5 1l8.5-.3-5.7-5.7c-3.2-3.1-5.8-6.2-5.8-6.8s-.4-.9-.9-.6c-.9.6-3.5-2.2-7.5-8.2-1.6-2.3-3.6-4.2-4.5-4.1-.9 0-1.1.3-.5.5 1.6.7-6.5 8.8-11.3 11.4-2.4 1.3-4.3 2.7-4.3 3.1s-2.2 2.1-5 3.8c-5 3.1-6.7 3-3-.2 2.5-2.1 2.7-6 .3-5.5-1 .2-1.9 1.3-2.1 2.6-.6 4.1-3.2 1.7-3.2-2.9 0-1.3-.4-1.8-1.2-1.3-1 .6-1 .4 0-.7.6-.7 1.2-3 1.2-5.1s.4-3.8.9-3.8 1.2-1.6 1.5-3.5c.4-1.9 1.1-3.5 1.5-3.5.5 0 .5 1.6.1 3.5-.9 3.8.4 4.9 1.5 1.2.4-1.2 1.7-3 2.9-3.9 2.1-1.8 2.1-1.8-1.1-1.8-2.8 0-3.3-.4-3.3-2.5 0-1.6-.6-2.5-1.5-2.5-.8 0-1.5-.4-1.5-1s.9-.6 2.3-.1c1.2.4 2.8.6 3.5.4.6-.3 1.2-.1 1.2.4s1.9.7 4.1.5c3.1-.3 4.4 0 5.1 1.2 1.1 1.9 4.9 2.1 6.6.4.9-.9 1.5-.8 2.5.6 1.2 1.7 1.4 1.7 2 .2.8-2 2.7-2.1 2.7-.1 0 2.4 1 1.8 5.2-3 2.2-2.5 4.3-4.3 4.6-4 .4.3.2.9-.3 1.3-2.1 1.5-6.7 7-6.9 8.3-.2.8-.7 2.3-1.1 3.3-.8 1.9-.8 1.9 9.1 10.7 1.6 1.4 5.5 5.4 8.6 8.8 4.4 4.8 6.3 6.2 7.8 5.8 1.1-.3 2-.1 2 .4s-.7.9-1.6.9c-.8 0-1.2.4-.9 1 .8 1.3 6.5 1.3 6.5.1 0-.6-.5-1.3-1-1.6-1-.6-7-11.8-7-13 0-1.6 1.9-.1 3.3 2.7 2.6 5.1 5.3 9.6 6.7 11.3 1.1 1.3 31.2 1.5 268.1 1.5H1280V0H759C412.3 0 238 .3 238 1c0 .5-.7 1-1.5 1s-1.5-.5-1.5-1c0-.7-39.8-1-117.5-1H0zM461 81.5c-3 .7-8.4 2-12 2.7-5.1 1.2-6.1 1.7-4.5 2.3 1.1.4 7.4 3 14 5.8 6.6 2.7 14.7 6 18 7.2s8.1 3.2 10.7 4.4c2.6 1.1 4.9 2.1 5.2 2.1.2 0 1.7-3.7 3.1-8.3 3.1-9.6 4.4-12.3 4.5-9.2 0 1.2-.5 2.6-1 3.1-.6.6-1.9 4.1-2.9 7.9l-1.9 6.8 20.6-.7c11.4-.3 25.2-.9 30.7-1.3 5.5-.3 9.8-.3 9.5 0-.4.5-48.9 3.7-56.4 3.7q-2.1 0 3.3 3c2.9 1.6 5.9 3.4 6.5 3.9 1.4 1.2 28 15.7 37.6 20.5 4.1 2.1 9.8 5.1 12.5 6.6 17.2 9.4 28.5 14.9 28.5 14 0-.6-1.1-2.6-2.4-4.3-1.3-1.8-4.1-6.8-6.3-11.2-4.6-9.1-13-24.4-14.6-26.3-.5-.7-.8-1.5-.5-1.7.6-.6 10.7 16.6 17.9 30.3 3 5.6 6.3 11.4 7.4 12.7 2 2.4 2.1 2.4 7.5 1 3-.8 6.8-1.5 8.5-1.4l3 .1-3 .9c-1.6.5-5.6 1.3-8.8 2-4.4.8-5.7 1.4-5.3 2.5 2.1 5.1 2.1 5 .1 3.4-1.7-1.4-1.8-1.2-1.2 5 1.4 13.9 1.8 29.6.8 32.5-.9 2.8-1.4-9-1.6-33.8 0-6.6-1.2-8.5-4.2-6.8-1 .6-8.5 3.4-16.6 6.3-10.4 3.6-14.3 5.4-13 5.9 1.8.7 1.4 1-2.5 2.1-1.5.4 14.3 13.8 29.3 24.8 12.6 9.2 12 8.7 10.8 10.2-.6.7-1.3 2.4-1.6 3.8-.4 2.4-.4 2.4-.6-.3-.2-4.1-3.4-8.2-9.4-12.1-2.9-1.8-7.4-5.2-10.2-7.5-8.2-7-8.7-7.4-15.3-12-3.4-2.4-6.5-4.2-6.8-3.9s-1.4 8.6-2.5 18.4c-1 9.9-2.3 20.4-2.9 23.4-.5 3-1.3 10.8-1.6 17.3-.6 10.8-.5 11.9 1.2 13.3 1 .9 1.3 1.2.5.8-.9-.4-1.2-.3-.8.3s2.3 1.4 4.2 1.7c1.9.4 3.5 1.1 3.5 1.6 0 .6.5 1 1.1 1s2.8 1.3 4.8 2.8c2 1.6 7.8 5.3 12.9 8.2s9.1 5.5 8.9 5.7c-.3.2-3.1-1.1-6.3-3-9.7-5.6-23.7-12.7-25.1-12.7-1.7 0-1.7 0 1.2 7.2 1.4 3.4 2.3 6.3 2.2 6.5-.2.2-2.8-3.7-5.7-8.7-2.9-4.9-5.6-9-5.8-9-.9 0-9.2 8.9-18.2 19.5-4.6 5.4-9.8 11.3-11.5 13-1.7 1.6-6.5 6.8-10.6 11.4s-9.3 9.7-11.7 11.3c-8.6 5.9-2.1 5.6 11.7-.6 4.5-2.1 8.4-3.6 8.7-3.4.5.5-17.1 8.4-20.8 9.3-1.6.4-2.8 1.4-2.8 2.1 0 1.5-1.5 1.3-8.5-.6-1.6-.5-11.1-2.3-21-4s-21.6-3.7-26-4.5-10.7-1.8-14-2.1l-6-.7 3 3.9c1.6 2.1 3.2 4.1 3.6 4.4s2.7 3.2 5.2 6.5 6.2 7.8 8.2 10 4.3 5.2 5.1 6.7c.8 1.6 1.8 2.8 2.3 2.8s1.2.7 1.5 1.6c1.1 2.7-1.8-.1-7.7-7.5-2.8-3.6-6.5-8-8.2-9.6-1.6-1.7-5.4-6.1-8.4-9.8s-5.8-6.7-6.3-6.7c-.4 0-.8 1-.8 2.2 0 1.3-.3 3.9-.6 5.9-.7 3.9 0 4.9 6.2 9.4 1.5 1.1 4.9 4 7.4 6.5l4.7 4.5 1 10c.6 5.5 1.4 10.9 1.8 11.9.8 1.9.8 1.9-1.1 0-1.2-1.2-1.8-2.9-1.6-4.5.5-3.3-2.1-5.9-5.7-5.9-2.4 0-2.8.4-2.5 2.2.2 1.3.5 5.2.8 8.8.3 4.8.2 6-.6 4.6-.6-1-1.2-4.9-1.3-8.7l-.4-6.8-8.8-8.8c-4.8-4.8-9-8.7-9.3-8.8s-1.6-.6-3-1.2-4.4-1.9-6.8-2.8c-5.6-2.3-4.9-2.9.8-.9 6.2 2.2 9 2.6 9 1.4 0-.6-1-1.4-2.3-1.9s-3.6-2-5.3-3.3c-1.6-1.3-3.3-2.4-3.9-2.3-1.7 0-8.5 4.6-8.1 5.4.3.4-.4.7-1.5.7-1 0-1.9-.4-1.9-.8 0-1 5.7-5.2 10-7.3 1.9-1 6.3-4 9.7-6.7 3.5-2.7 7-4.8 8-4.6s-1.1 2-5.7 4.8c-9.1 5.5-9.7 6.9-3.2 6.2 3.4-.3 5.9.1 8.1 1.3 1.8.9 3.4 1.5 3.6 1.3.7-.8 1.3-13.8.6-14.2-1.2-.8-27.7-3.5-41.3-4.2-12.1-.7-12.8-.6-12.8 1.2 0 1.5-.2 1.6-.9.5-.8-1.3-1.5-1.2-5.2.2-5.5 2.2-6.1 1.6-.9-.9 2.2-1 4-2.2 4-2.5 0-.9-12.6-12.7-27.6-25.9-36.5-32.2-46.1-40.8-48.7-43.8-3.1-3.4-4.7-4.1-4.7-1.8 0 .8-.5 1.8-1.1 2.2-.8.4-.9-.3-.4-2.5l.7-3.2-3.9.6c-13.5 2.4-24 4.8-25.1 5.9-.7.7-1.4 3.3-1.4 5.7-.1 2.4-.3 3.6-.6 2.6-.6-2.6-1.5-2.1-3.4 2.1-1 2-3.1 6.5-4.7 10-1.6 3.4-3.4 6.9-4.1 7.7-.7.9-1 2.5-.6 4.1.6 2.2.5 2.4-.7 1.3-.7-.8-1.6-3-2-4.9-.3-1.9-.9-4.6-1.2-6s.1-1 .8.9 1.8 3.6 2.4 3.8c1.1.4 9.5-17.7 11.2-24.3.6-2.3 1.8-4.7 2.6-5.4s1.5-1.7 1.5-2.2.9-2.8 2-5c1.1-2.3 2-4.7 2-5.2 0-.6 1.4-3.8 3-7.1 4-7.9 3.4-6-3.1 10-3.8 9.3-3.8 9.5-2.4 9.5.8 0 4-.7 7.2-1.6s9-2.1 12.8-2.8l7-1.1-.3-9c-.2-5-1-12.8-1.8-17.5-2-11.8-2.9-28.3-1.3-25.3.7 1.3 1.8 2.3 2.6 2.3 1.8 0 1.7 5.9-.1 7.4-1.1.9-1.1 2.7.1 11.6.8 5.8 1.5 14.2 1.7 18.8.1 4.5.7 8.7 1.3 9.3.8.8 2.5.8 6.3-.1 2.8-.7 5.3-1 5.6-.7.3.2-1.8 1-4.5 1.7-2.8.7-5.4 1.6-5.7 2.1-.8 1.4 4.2 6.7 15.9 17.1 5.6 5 17.4 15.4 26.1 23.2s20.4 18.2 26 23.3c5.6 5 10.4 9.1 10.7 9 .4-.1 1.5.5 2.5 1.4 1.3 1.2 3.7 1.7 7.9 1.6 3.3 0 12.2.4 19.8.8 9.7.6 13.7.5 13.7-.3 0-.6 2-1.4 4.5-1.7l4.4-.7-4-7.7c-2.2-4.2-5.4-10.1-7.2-13.1-3.3-5.4-11-19-16-28-1.4-2.5-5.9-9.9-10-16.5-7.1-11.5-13-22.6-12.3-23.2.2-.2 1.7 2.3 3.5 5.4 1.7 3.2 5.8 10.1 9.1 15.3 3.2 5.2 9.8 16.5 14.6 25 7.4 13.1 14.7 25.5 24.5 41.5 1 1.6 1.9 2.8 1.9 2.5.1-.3.3-5.2.6-11s1.3-20.2 2.4-32c1-11.8 2-25.1 2.2-29.5l.3-7.9-9-2.2c-4.9-1.2-13.9-3.4-20-4.8-6-1.4-15.8-3.9-21.7-5.5-6-1.6-10.9-2.8-10.9-2.5-.5 1.6-.7 2.8-.9 5.6-.2 3.7-.5 3.1-1.5-2.6-.8-4.6 0-4.7-21 1.6-17.2 5.1-29.4 8.3-30 7.6-.6-.6 40.1-12.4 46.8-13.4 2-.4 3.7-.8 3.7-.9 0-.5-7-20.7-9.8-28.1-4.7-12.7-12.3-30.4-13-30.4-.4 0-1.7 1.5-2.9 3.3-1.2 1.7-5.6 8.1-9.8 14.2-4.2 6-11 15.9-15.1 22-4.1 6-9.9 14.5-12.9 18.8-3 4.2-5.5 7.9-5.5 8.2 0 .9-7.3 11.5-7.7 11.2-.5-.5 9.1-16.2 15.8-25.7 5.4-7.6 27.8-40.6 33.6-49.5l2.3-3.4-4.8 1.5c-2.6.8-5.8 1.7-7.2 1.9l-2.5.5 2.5-1.1c1.4-.7 5.3-2.5 8.8-4.1 7.4-3.5 14.8-8.3 29.7-19.3 6.1-4.5 12.8-9.3 15-10.7s4.7-3.3 5.5-4.3c1.4-1.7 1.3-1.8-1-1.2-6.2 1.5-52.8 13.7-55.7 14.6-1.8.5-3.3.7-3.3.3 0-.3-.5-.1-1.2.6-.9.9-.6 1.8 1.3 3.8 2.3 2.6 2.3 2.6.2 1.3-1.3-.8-2.3-1.7-2.3-2.1 0-1.5-3.6-.8-5.1.9-4.5 5-31.9 31.3-32.6 31.3-.4 0 7-7.7 16.5-17 9.4-9.4 17.2-17.5 17.2-18s.9-1.1 2-1.5c1.1-.3 4.2-2.4 7-4.6 6.4-5 7-5 1.7.2-3.6 3.4-3.8 3.9-1.7 3.3 1.3-.4 13-3.3 26-6.6 12.9-3.2 26.2-6.6 29.5-7.4 6.6-1.7 8.8-3.1 7.8-4.8-.4-.6.1-.5 1 .3 1.4 1.1 2.7 1.1 8.4-.3 3.8-.8 16.9-3.8 29.2-6.6s22.9-5.4 23.5-5.9 4-1.1 7.6-1.5c3.6-.3 9.7-1.2 13.5-2 8.8-1.7 12.9-1.8 5.5-.1m405.4 10c1.5.8 4.1 1.5 5.7 1.5s2.9.4 2.9.8 3.5 2.5 7.8 4.5c10.1 4.8 48 21.7 48.6 21.7.3 0 4.8 2 10.2 4.6 5.3 2.5 9.8 4.3 10.1 4 .3-.2-2.4-4.9-6-10.3-6.9-10.4-10.9-17.3-10.2-17.3.2 0 2.1 2.6 4.1 5.7 14.3 22.2 16.5 24.9 20.5 25.8 3.9.9 4.5 2.2.8 1.7l-3.1-.5 4.3 7.9c2.3 4.4 8.2 14.4 12.9 22.4 4.8 8 12 20.3 16 27.5 4 7.1 8.1 14.2 9.2 15.7 2 2.9 2.2 3.8.9 3.8-.8 0-2.9-3.5-8.8-15-2.1-3.9-10.4-18-26.5-44.7-4.4-7.4-6.6-9.5-4.7-4.6.6 1.6 1.7 4.8 2.4 7.3s3.4 10.1 6 17 5.1 14.1 5.6 16c.8 2.6 9.4 29.5 14.5 44.8.4 1.3 7.9-7 11.8-13 2.2-3.4 3-18.8 1.8-36.8-.4-7.4-.7-13.7-.5-13.9 1-1.4 1.4 2.9 2 24 .7 26.9-.8 22.8 13.5 37.7 4.9 5.1 7.7 7.4 7.2 6-1.8-5.8-3.8-13.2-6.4-24.3-1.6-6.6-4.5-18.3-6.5-26s-4.6-17.7-5.7-22.3c-2.4-9.2-4.3-11-3.6-3.2.3 2.8.1 5.3-.3 5.6-.8.5-1.1-2.9-1.4-18.3 0-2.4-.6-4.8-1.2-5.4s-8.5-2.4-17.4-4c-9-1.6-16.8-3.2-17.4-3.4-1.8-.9 8.8.6 19.7 2.6 5.9 1.2 11.2 1.9 11.8 1.7s-1.3-2.1-4.2-4.3-6-4.8-7-5.8c-1-.9-4.4-3.6-7.6-6s-7.9-5.9-10.3-7.8c-16.5-13.2-23.9-19.2-25.1-20.6-.7-.9 4.4 3 11.4 8.5 7 5.6 16.9 13.2 22 16.9 11.7 8.5 26.8 21.3 26.8 22.7 0 .6 2 5.1 4.5 10.1 2.5 4.9 3.9 8.2 3.3 7.2-.7-1-2.1-2.8-3.2-4l-1.9-2.2.6 2.5c.3 1.4 1.4 5 2.5 8 1.1 3.1 2.3 7.8 2.7 10.5.3 2.8 1.5 8.1 2.6 12 1.1 3.8 3.3 12.6 4.9 19.5 1.5 6.9 3.6 15 4.5 18s2 6.8 2.5 8.5c.4 1.6.9 2.8 1 2.5s.6-6.8 1-14.5l.8-14-.2 17.4-.1 17.4 3.5 1.3 3.5 1.3-3.7-.5-3.8-.6v3.6c0 2-.4 4.4-.9 5.4-.6.9-1.7 5.3-2.5 9.7-2.3 12.1-4.4 21.7-7.7 35.9-1.7 7-2.9 13-2.7 13.2.2.1 4.5-3.2 9.6-7.4l9.3-7.6-.5-4.6c-.5-4.1-.4-4.3.6-1.8.7 1.6 1.5 2.8 1.9 2.8s2.3-1.7 4.3-3.7c2.7-2.8 3.6-4.6 3.7-7.3 0-2.8.2-3.1.9-1.5.7 1.8.9 1.8 2-1 1.3-3.1 1-5-2.8-17.5l-1.6-5.5-.7 4.5c-.4 2.5-.8 6.8-.8 9.5-.1 2.8-.5 5.5-1 6-.5.6-1.2 1.9-1.5 3-.5 2.1-.4.3 1.4-18.9.6-6.5.8-12.7.5-13.7-.4-1-.2-1.9.3-1.9s1.7 3.7 2.6 8.2c1 4.6 2.9 11.7 4.2 15.8 2.5 7.9 2.9 10.4 1.6 9.6-1.7-1-2.9 6.2-3.1 18.1-.1 6.8.1 12.3.6 12.3s2.5-1.4 4.6-3.1c3.4-2.8 3.7-3.4 3.2-7.2l-.5-4.2 1.4 3.6c1.3 3.3 1.2 4.2-.5 9-1.3 3.7-1.8 4.4-1.4 2.1.4-3 .3-3.2-1.5-2.2-1.1.6-4.3 3.1-7 5.5s-5.9 4.9-7 5.5-1.8 1.5-1.5 2c.3.6 0 .7-.8.5-.7-.3-2.9.7-4.7 2.4l-3.4 2.9 2.7-.1c1.5-.1 2.7-.7 2.7-1.2 0-.6.4-.4.9.4.7 1.1 1.3.7 2.9-1.8 2.1-3.5 6.2-6.9 6.2-5.2 0 .6-.4 1.1-.9 1.1s-1.6 2-2.4 4.5c-2.4 6.9-1.7 6.4 6.6-4.4 2.6-3.5 4.7-6 4.7-5.6 0 .9-2.1 4.9-2.9 5.5-1.7 1.3-5 8.3-4.5 9.2.5.7.2.8-.5.3q-1.35-.75-.9.9c.1 1 .6 1.7 1.1 1.7.4-.1 1.6-.1 2.7-.1s2-.6 2-1.3c.1-.6.9-3 2-5.2s1.9-5 2-6.2c0-1.2.4-2.5 1-2.8.5-.3.8 0 .5.7s-.9 4.3-1.4 7.9-1.8 8.5-2.9 10.8c-1.9 3.9-2 4.9-1 12.5.8 6 .8 9.4 0 12.2-1.9 6.9-4 11.8-5.1 12.2-1.5.5-1.4 6.9.5 23.5 1.1 10.1 1.3 15.9.7 20.2l-.9 6-.5-4.2c-.2-2.3-.1-3.9.3-3.7.5.3.8.3.8 0 0-.7-5.6-3.6-7-3.6-1.8 0-1.1 2.8 1.5 5.4 1.4 1.4 2.5 3.1 2.5 3.9s.7 2 1.5 2.7 1.5 1.8 1.5 2.5 1.2 3.9 2.6 7.1c1.5 3.3 3.2 7.5 3.9 9.5 1.3 3.5 1.2 3.7-.8 3.6-6.9-.1-9.7.7-9.7 2.8.1 2.6 3.2 8.7 4.7 9.2.6.3 2.1-1.3 3.2-3.4s2-3.4 2-2.8c.1 1.7-4.3 8.8-5.7 9.3-.7.2-1-.2-.6-1.2s.1-1.6-.8-1.6c-1.6 0-4.6-3.2-4.1-4.5.1-.6-.2-1.7-.7-2.5-.9-1.3-1.1-1.3-2 0-.5.8-.9 2.6-.9 4 0 2.2.1 2.3.8.6.7-1.8.8-1.8 1.4-.3.4 1.1-.1 2.5-1.3 3.7-2.6 2.6-2.5 3 .8 3.1l2.7.2-2.7.4c-1.6.2-2.8 1-2.8 1.8 0 1-.7 1.1-2.7.5-1.6-.5-4.8-1.4-7.3-1.9l-4.5-1 4.3.3c6.9.6 8 0 8.8-5.3.4-2.5 1.1-5.2 1.6-5.9 2-2.4-1.6-1.3-8.2 2.6-3.6 2.1-8.1 4.4-10 5.1-5.3 2.1-5.8 3.1-1.5 3.1 6.5 0 3.4.8-5.9 1.5-4.9.3-10.8 1-13.2 1.4-2.4.5-4.1.5-3.9.1.3-.4 2.6-1.1 5.2-1.4 6.2-.9 8.3-1.5 8.3-2.6 0-.8-13.8-7.7-18.2-9-2.7-.8-2.8-.7-2.9 2.8v3.7l-1.3-4.7c-.7-2.6-1.1-8.1-.9-12.5.3-5.6.1-7.4-.7-6.3-1.3 1.9-3.8 10.2-4.6 15.4-.3 2.2-1.9 7.3-3.4 11.4-1.6 4.1-3.4 10.6-4.1 14.6-1.1 6.6-1 7.6 1 13.6 1.3 3.6 2.5 7.3 2.7 8.4.5 2.8 1.1 3 2.9 1.2 1.5-1.4 1.5-1.6.1-1.6-.9 0-1.6-.5-1.6-1 0-.6 1.1-1 2.5-1 2.1 0 2.5-.5 2.5-2.8 0-3.2.9-4.6 3.3-5.5 1-.4 1.7-1.2 1.6-1.9-.2-.7 0-2.8.4-4.6 1.8-8.5 1.9-9.4.8-8.8-.6.4-1.1.2-1.1-.3 0-.6.5-1.1 1.1-1.1.7 0 1-1.2.7-2.9-.4-2.4-.1-2.7 1.6-2.3 1.1.3 2.8 1.2 3.8 2.1 1 .8 3.7 2.3 6 3.3 4.2 1.8 4.2 1.8.8 1.2-1.9-.4-4.7-1.3-6.2-2-3.2-1.6-3.7-.3-1 2.3.9 1 1.7 2.2 1.7 2.8 0 1.6 8.3 18.5 9.1 18.5.4 0 .4-4.5.1-10-.7-11.5.7-13.5 1.9-2.8.5 4 .9 7.7 1 8.3.1.5.3 1.9.4 3 .2 2.6 2.9-7.1 3-10.8 0-3.7 2.2-3.1 2.6.7.2 1.6.8 3.4 1.3 3.9.6.6 1.1 2.3 1.1 3.8 0 1.4.7 4.6 1.5 6.9s1.5 5.7 1.4 7.4c-.1 2.6-.3 2.4-1.4-1.9-.7-2.8-1.8-6.3-2.4-7.8-.6-1.6-1.1-3.9-1.1-5.3 0-3.5-1.6-3-2.5.8-1.6 7.9-1.6 14.1.2 16.1 2.3 2.5 7.3 5.1 7.3 3.7 0-.5.3-.9.8-.8.4.1 1.8-.4 3.1-1.1 1.9-1.1 2.2-1.8 1.7-4.4-.8-4-4.3-10.8-6.3-12.2-1.4-1-1.4-1.2.1-1.2.9 0 1.6.3 1.6.6 0 .4.9 1.2 2 1.8 1.5 1 1.8 1 1.6 0-.2-.6-1-3.3-1.6-5.9-.7-2.7-1.7-4.8-2.1-4.8-.5 0-.9-1.6-.9-3.5 0-2.1-.5-3.5-1.2-3.5-.8 0-.5-.7.6-1.5 2.5-1.9 4-1.9 3.3-.1-.3.8.5 4.7 1.8 8.7 1.6 5.2 2.5 6.9 3 5.7.4-1 1.1-1.6 1.5-1.3.9.5 2-4.4 2-8.8 0-2.2.3-2.8 1.1-2s.6 4.6-.5 13.4c-1 8.1-1.2 13.9-.7 16.7 1 5.3-.1 6.3-2.3 1.9-1-2.1-1.6-2.6-1.6-1.4 0 1.1-.9 2.1-2 2.4-1 .3-2.2 1.4-2.5 2.4-.8 2.3-3.4 1.9-7.7-1.2-1.5-1-3.2-1.9-3.8-1.9s-3.7 1.7-6.8 3.9c-3.1 2.1-8.5 5.3-11.9 7.1-3.5 1.9-6.3 3.7-6.3 4.1s-.8.6-1.7.4c-1-.1-1.7-.8-1.6-1.3.2-.6-1.9-2.7-4.5-4.6-6.8-5.1-7.3-5.6-11.3-9.4l-3.7-3.4-5.8 7.9c-3.3 4.3-6.7 9-7.6 10.5L943 524l7.3.2c7 .1 7.1.1 2.2.8l-5 .7 4.5.2c2.5 0 7.2.6 10.5 1.1 7.5 1.2 39.4 1.9 40.1.9.2-.4-.1-.9-.8-1.2-.7-.2-.2-.2 1.2 0 1.9.3 3.5-.7 6.9-4.2 5.1-5.3 8.4-7.5 7.5-5-.3.8-1.1 1.2-1.7.8-.6-.3-.7-.1-.3.5.5.9 1.3.9 2.7.2 1-.6 1.9-.7 1.9-.3.1.4 1-.3 2-1.6 2.5-2.9 2.6-1.1.3 2.6-1 1.6-2.5 2.8-3.3 2.8-2.1 0-1.5 5.6 1 9.7 2.2 3.7 2.5 4.8 1 4.8-.5 0-1-.7-1-1.5s-.3-1.5-.7-1.5c-.5 0-1.6-1.4-2.5-3-2-3.6-3.4-3.7-7-.6-2.4 2.1-2.6 2.8-1.8 5.6 1.1 4 1 10.6-.1 8.8-.5-.7-.9-2.2-.9-3.3 0-3.2-2-9.5-3-9.5-.5 0-1.5.6-2.2 1.2-.7.7-2.2 2-3.2 2.8-1.8 1.3-1.9 1.3-1.1 0 .4-.8 1.4-2.2 2.1-3 1.5-1.8 2.2-1.6-8.8-2.6-3.8-.3-6.8-.3-6.8 0 0 1.8 5.2 10.6 6.2 10.6.6 0 2.3-1 3.7-2.2 1.5-1.3 1.2-.7-.7 1.3-2.6 2.8-3 3.8-2 4.6 1.9 1.6 14.5 4.2 17.1 3.6 1.8-.5 2-.3 1 .7-1 1.1-2.8 1-10.2-.7-5-1.1-9.6-1.6-10.3-1.2s-1.5.4-1.8 0c-.7-1-13.7-4.1-17.2-4.1-1.4 0-3.9 1-5.5 2.3-5.7 4.6-6.7 4.8-2 .5 5.7-5.3 5.9-5.1-8.3-12.3-5.2-2.6-9.8-5.2-10.1-5.7s-1.4-.6-2.4-.2c-1.2.5-2.2.1-3-1-.7-.9-2.6-2.1-4.2-2.7l-2.8-.9 2.8.4c3.6.4 4-.4 2.2-5.4-2.1-5.9-1.1-6.2 1.4-.4l2.1 4.7 3.1-2.9c3.3-3.2 11.8-14.1 12.7-16.3.3-.7-.5-2.2-1.8-3.1l-2.4-1.8 2.6.5c2.8.5 3.5-.4 7.7-11.3 1.9-4.9 1.9-5.3.3-6.7-.9-.9-2.5-3.1-3.5-4.9l-1.8-3.3 3 3.5c1.9 2.1 3.4 3 4 2.5.5-.6 2.1-5.5 3.5-11 1.5-5.5 3.4-11.8 4.2-14 .9-2.2 1.7-4.7 1.9-5.5s1.3-5.1 2.5-9.5c2.2-8.1 4-16.8 3.5-17.3-.1-.1-3.1 3.7-6.5 8.5-3.5 4.8-7.9 10.5-9.7 12.6-1.8 2-3.3 4.1-3.3 4.6 0 .4-2.2 3.7-4.8 7.3-4.8 6.3-5.4 8.5-3.6 12.8.4.8.8 2.8 1 4.4.2 1.5 1.1 5.7 1.9 9.3.8 3.5 1.5 7.4 1.4 8.6 0 2.1-3.4-10.3-4.2-15.4-.5-3.5-3-9.9-3.8-9.9-.4 0-3.8 3.5-7.6 7.7-3.7 4.3-7.3 8.2-7.8 8.8-.6.5-1.9 2-2.9 3.2-1.8 2.2-1.8 2.2 3.3 4.7 2.8 1.4 5.6 2.6 6.3 2.6s3.3 1.4 5.8 3c6.4 4.3 4.3 3.7-7.4-1.9-5.5-2.6-10.9-5.1-11.8-5.4-2.3-.8-2.3-3.4 0-3.3 2.4.1 18.1-17.2 20.8-23 .9-1.9 2.1-3.1 2.9-2.8s3.2-2.3 6.1-6.8c5.4-8.2 9.4-13.5 14.2-19.1 1.8-2.1 4.2-5.8 5.2-8.2 1-2.3 3.3-5.7 5-7.5 2.4-2.5 2.9-3.5 1.9-4-.8-.4-7-1.3-13.8-2-13.4-1.3-14.1-1.2-14.1 3.9 0 3.4-.9 2.1-1.2-1.7-.2-2.9-.5-3.2-2.8-2.8-1.4.3-6.7 1.1-11.9 1.8-5.9.7-9.5 1.7-9.8 2.5-.5 1.3 3.6 11.6 6.4 16.1 1.4 2.2 1.5 2.1 6.3-5 4.2-6.4 10.9-14 9.9-11.3s-15.6 21.4-16.6 21.5c-.7 0-1-.7-.7-1.5.4-.8-.1-3-.9-4.8-.8-1.7-2.5-5.7-3.8-8.7-2.8-6.9-2.7-6.7-4.3-4.4-1.3 1.7-1.4 1.7-.9-.7.5-2.5.4-2.5-11.9-4.8-6.8-1.2-15.2-3.1-18.8-4.1-14.9-4.2-25.3-6.2-26.1-4.9-.5.9-1.1.8-2.4-.4-1.9-1.9-3.1-2.1-4-.7-.3.5-1.4 1-2.3.9-1.2 0-1-.3.6-1 1.3-.5 2.1-1.3 1.8-1.8-.8-1.3-21.7-15-32.1-21-12.4-7.2-12.2-7.1-13.9-6.5-1.1.4-1.3 0-.9-1.4.2-1.1-.1-2.1-.9-2.5-.8-.3-10.6-6.4-21.9-13.6-11.2-7.2-21-12.9-21.7-12.6s-1 0-.7-.5c.3-.6.2-1-.4-1-.5 0-1.1-.6-1.3-1.4-.3-1.5-4.5-6.1-22.2-24.5-5-5.2-7.3-8-5.1-6.1 2.2 1.8 9.5 9.2 16.3 16.4 13.2 14 15.1 15.7 28.2 23.6 4.7 2.8 13.2 8.2 19 12.1 11.8 7.8 12.9 8.4 13.7 7.6.6-.7-1.4-37.9-2.2-39.9-.6-1.3-2.3-2-23.5-9.7-15.2-5.6-22.1-8.4-21.6-8.9.2-.2 10.1 3.3 22 7.7 11.8 4.5 22.2 8.1 23.1 8.1 1.2 0 1.5-1.4 1.7-6.3l.2-6.2.3 5.7c.2 3.2.5 5.8.7 5.8 2.3 0 29.8-15.3 35.6-19.8 1.4-1 3.7-2.2 5.2-2.5 1.5-.4 2.9-1.5 3.2-2.5.6-1.8-38.9-81.8-39.7-80.5-.9 1.5-.7 27.8.2 29.2.7 1 .5 1.8-.4 2.5-1.1.9-1.7 7-2.5 26.6-.6 14-1.2 26.4-1.4 27.5-.7 4.6-.5-17.2.4-32.5.5-9.1 1.2-24.2 1.6-33.5.3-9.4.7-18.4.8-20.2.2-2-.1-3-.7-2.6s-.8 0-.4-1c.7-1.8.7-1.8-10.3-3.7-3.6-.6-10-1.7-14.2-2.5s-9.5-1.7-11.8-2-7.8-1.3-12.3-2.1c-38.1-7-42-7.4-44.9-4.7-1.8 1.6-1.8 1.6-1.2 0 .4-1.2.1-1.7-1.2-1.7-1.8-.1-1.8-.1-.1-1.1 1.8-1 1.7-1.3-1-4.3-5.7-6.2-6.7-8.1-1.5-2.7 2.9 2.9 5.6 5 6.1 4.5 1.5-1.8 6-8.2 12.6-17.9 3.7-5.5 7.6-11.1 8.7-12.5 1-1.4 4-5.7 6.5-9.5 2.6-3.9 4.9-7.2 5.3-7.5.3-.3 2.2-2.8 4-5.5 1.9-2.8 3.7-5.2 4.2-5.3.4-.2.8-1 .8-1.8 0-1-1.6-1.4-6.2-1.6-5.1-.1-5.5-.2-1.8-.5 9.8-.7 9.7-.3 3.1-10.1-5.9-8.8-9.6-15.2-8.7-15.2 1.1 0 4.6 4.4 4.6 5.7 0 1.9 9.8 16.3 11.5 16.9.8.3 4.5-.9 8.2-2.6 3.7-1.8 8.9-4.1 11.6-5.1 2.8-1.1 5.9-2.5 7.1-3.2 1.2-.6 2.4-1 2.8-.9 1 .3 12.6-4.3 18.3-7.2 2.8-1.4 5.9-2.6 7-2.6 1.8 0 27.1-7.4 38.4-11.3l4.5-1.5-4.5-2c-2.4-1.1-3.7-2.1-2.9-2.1.8-.1 2.8.6 4.4 1.4M626.6 249c.2 0 .5-1.2.5-2.8l.1-2.7.7 2.8.6 2.9 3-2.2 3-2.2-3.1 3c-1.7 1.6-3.6 4.7-4.2 6.8-.9 3.4-1 3.5-1.1 1.1-.1-1.5-.4-2.7-.7-2.7-.4 0-3.2 1.4-6.3 3.2s-12.3 6.6-20.5 10.8l-14.9 7.5-2 5.8c-2.1 6.4-3.3 7.3-1.6 1.3.6-2 .9-4.1.7-4.6-.3-.9-14.4 3.4-21.8 6.7-8.2 3.7-10.3 4.4-10.8 3.8-.3-.3.9-1.1 2.6-1.7 1.8-.7 3.2-1.6 3.2-2s.7-.8 1.5-.8c2.3 0 21.1-6.7 23.8-8.5 1.3-.8 2.6-1.2 3-.9.3.3.3-.5.1-1.8-.5-2-.4-2.1.6-.6 1 1.6 2.8.9 19.8-7.7 24.9-12.6 23.5-11.3 19.3-16.7-5.5-7-5.7-7.6-.7-2.6 2.6 2.7 4.9 4.8 5.2 4.8m-400.8 46.3c1.7 8.4 1.9 8.7 3 6.1.7-1.4 1.5-2.4 1.8-2.1s-.2 2-1.1 3.7c-.9 1.8-1.3 3.5-.8 3.9 5 4.3 15.8 12.2 23.1 17 14.4 9.5 12.9 9.9 12.4-4.2-.2-6.8 0-11.8.4-11.4.5.5.9 5.7.9 11.7s.3 11.2.7 11.5c.7.8 5.4-1 25.3-9.6 24.6-10.5 30.7-13 31.1-12.6.3.3-3 1.9-7.3 3.7-10.5 4.3-30.9 13.3-41 18-6.5 3.1-8.3 4.4-8.3 6 0 1.7.5 2 2.7 1.8 3.5-.4 7 5 5.4 8.1-2 3.7-4.2 5.1-7.9 5.1h-3.7l-2.3 9.4c-3.3 14.1-3.1 14.5 4.1 9.9 5.7-3.7 6.7-4.3 12.3-7.7 2.7-1.6 7.2-4.3 9.9-6.1 2.8-1.8 7.3-4.5 10.2-6 2.8-1.4 5.3-3 5.5-3.3.2-.4 2.5-2.7 5.2-5.2l4.9-4.5-3.1 4c-1.8 2.2-2.8 4.1-2.3 4.3 1.2.4 20.2-4.5 25.8-6.7l4.6-1.8-3.1-1.4c-1.8-.8-3.2-1.8-3.2-2.4 0-1.2 2-4.3 2-3.2 0 .5 1.4-.1 3-1.3 4-2.8 6.1-2.3 8.3 2.2 1.3 2.6 2.5 3.8 4 3.8 4 .1-2.7 3-10.6 4.6-5.9 1.2-15.4 3.8-30 8-2.1.7-2.6.1 20.7 27.3 9.1 10.7 16.6 19.8 16.6 20.2 0 .5 1.4 1.6 3 2.4 1.7.9 2.8 2.1 2.4 2.6-.4.8-.9.7-1.5-.2-.7-1.2-.9-1.2-.9 0s-.3 1.2-1.7-.1c-1.5-1.3-41.7-11.6-63.3-16.2-3.6-.8-10.7-2.5-15.9-4-9.5-2.6-10.3-2.6-10.7-.3-3.9 20.4-3.8 18.9-1.8 20.4 1.6 1.1 1.6 1.3.1 1.3-1 0-2.1 1.5-2.9 4.2l-1.3 4.3-.3-4.7c-.2-2.6.2-5.6.8-6.7 1.3-2.6 4.3-18.1 3.6-18.9-.7-.6-8.7 5-18.9 13.5-4.1 3.4-8.5 6.8-9.6 7.5-1.2.7-2.1 1.5-2.1 1.8s2.3 1.3 5.1 2.3 4.9 2.1 4.6 2.3c-.2.3-2.6-.4-5.3-1.4-2.7-1.1-5.5-1.7-6.1-1.5-.7.3-1.3-.3-1.3-1.2s-1.3-3.6-3-6-3-4.8-3-5.3-.8-1.6-1.7-2.3c-.9-.8-1.4-.9-1-.3.9 1.5-1.2 7.4-2.5 7.4-1 0-.6-2.7.8-6.5.6-1.5.4-1.6-1.4-.6s-2.2.9-2.2-.4c0-.9 1.3-2.1 2.9-2.6 2.9-1 10.3-11 12.4-16.7.5-1.2 1.3-2.2 1.8-2.2 1 0-2.1 6.2-7.1 14.3l-3 4.7 3.2 6c3.8 7.4 5.8 9.3 5.9 5.9 0-1.3.5-3.3 1-4.4.7-1.5.8-1 .4 1.7-.8 5.1.6 4.9 8-1.2 3.3-2.8 9.2-7.5 13.2-10.5s7.6-6.3 8.1-7.2c.8-1.3-1-3.7-9.1-12-5.5-5.6-10.3-10-10.6-9.7s-1.1 2.9-1.8 5.7l-1.2 5.2.4-7.2.4-7.2-3.2-.9c-1.8-.6-5-1.3-7.2-1.6-3.3-.5-3.7-.4-2.4.6.9.7 1.4 1.9 1.1 2.6-.2.7.2 1.9.8 2.7.7.8.8 1.5.3 1.5s-1.5 2.3-2.2 5.1c-.8 2.8-2 6.3-2.7 7.8-.8 1.4-1.4 3.4-1.4 4.3s-.5 2-1.1 2.4c-.8.5-1-.1-.5-1.9 1-4.1-.1-5.8-3-4.5-1.3.6-2.5.9-2.7.7s-1.5-3-3-6.1c-2.8-5.9-3.4-11-1.8-16.6.8-2.6.5-5.2-1.5-11.9-1.4-4.7-2.3-9.1-2-9.7.2-.6.5-.2.6.9.2 3.6 3.4 8.3 8.2 11.9 5.3 4.1 5.8 4.2 5.8 2 0-1.3.2-1.3 1.3-.2.6.8 1.7 2.3 2.3 3.3 1 1.7 10.6 5.4 14.2 5.5.6 0 1.3-1.2 1.3-2.8l.2-2.7.4 2.7c.5 3.3 1.5 3.5 5.1 1 2.8-2 16.2-9.7 21.2-12.2 1.6-.8 3-1.8 3-2.2 0-.3-3.9-3.2-8.7-6.4-4.7-3.2-11.4-7.8-14.7-10.4-3.4-2.5-7.4-5.4-9-6.4l-2.9-1.8.6 5.3c.4 3.5.3 4.7-.3 3.4-.5-1.1-.9-3-.9-4.1-.1-1.2-.9-3.2-2-4.5-1-1.3-1.9-2.9-2-3.4-.2-.6-2.1-3-4.4-5.5-8.1-8.8-9-10-8-10 .6 0 3.7 3.1 6.9 7 3.2 3.8 6.2 7 6.6 7 1.2 0 1-3.6-.6-13.1-.8-4.6-1.7-11.8-2-15.9-.5-7.4-.5-7.4.9 2 .8 5.2 2.2 13.5 3.3 18.3M399 340.2c.7 1.8 2.9 5 4.9 7 3 3.3 3.2 3.8 1.6 3.9-1.1 0-1.4.3-.7.6.6.2 1.2 1.2 1.2 2.2 0 1.9 9.3 11.5 10.2 10.5.3-.3.9.4 1.3 1.5.3 1.1 1.5 2.3 2.6 2.6 1.4.5 1.9 1.5 1.8 3.8l-.1 3.2-1-2.8c-1.7-4.6-3.9-2.9-6.1 4.5-1.2 3.7-2.7 7-3.4 7.2-2.1.8-4.3-.5-4.3-2.5 0-1-.5-1.9-1.1-1.9-.7 0-.8 1.2-.4 3.2.4 2.2.3 2.8-.3 2-.5-.8-1.3-1.2-1.8-1-.5.1-1-.7-1.2-2-.4-2.6-1.9-2.9-2.5-.5-.2 1-.5.4-.5-1.2 0-1.7-.5-5.3-1-8-1.8-9.1-3.5-27.4-2.7-29.2.4-1 .7-3.1.6-4.7-.3-3.5 1.2-2.7 2.9 1.6m100.8 16.1c1.6 1.8.4 10.6-1.8 13.7-1.8 2.5-2.3 2.7-6 2-4.6-.8-7-2.5-7-5 0-2.3 2.1-8.2 2.7-7.6.3.2 1.4-.5 2.5-1.6 1.5-1.5 2.8-1.9 5-1.4 1.8.3 2.7.2 2.3-.4-.9-1.5 1.1-1.2 2.3.3M672.3 397c.3 0 3.9 1.6 8 3.5 8.7 4.1 10.7 4.4 10.8 1.2.1-1.6.3-1.7.6-.5.2.9 1.2 2 2.2 2.3s2.6 1.4 3.5 2.4c1.6 1.7 1.5 1.8-.9 1.4-2.8-.6-3.2.8-1.1 4.6 1.1 1.9 1.4 2.1 1.9.7.4-1.1 1.9-1.6 4.4-1.6 2.1 0 4.5-.5 5.3-1 1-.6 1.1-1 .3-1-.7 0-1.3-.8-1.3-1.8.1-1.6.2-1.5 1.5.2.8 1 1.6 2.4 1.8 3 .3.6 1.1.3 2-.9 1.6-2 1.6-2 3.2.2.9 1.3 2.7 2.3 4 2.3 3.7 0 3.8 1.5.5 6.7-3.4 5.5-4 4.7-.9-1.1 1.9-3.6 1.9-3.8.2-3.1-1 .4-2.7.9-3.8 1.1s-5.4 1.7-9.6 3.2l-7.7 2.9-7.2-2.4c-4-1.3-8.4-3.6-9.9-5l-2.6-2.6 2.6 1.6c1.4.8 4.3 1.9 6.3 2.2 2 .4 4.8 1.6 6.2 2.7 2.6 2.1 4.2 1.9 2.8-.4-.5-.7-.9-1.5-.9-1.8-.4-3.3-3.2-8.3-5.3-9.5-6.1-3.4-15.3-7.5-16.6-7.5-1.6 0-6.6-4.9-6.6-6.4 0-.5 1.3.2 2.8 1.7s3.1 2.7 3.5 2.7m-474.7 23.2c-2.9 6.2-5.7 12.4-6.1 13.7l-.7 2.4 2.8-2.2c7.3-5.6 11.4-10.3 11.4-12.9 0-1.5.5-3.4 1-4.2.7-1.1 1-.1 1 3.5 0 3.8-.4 5.3-1.8 6.2-3.3 2-15.2 12.4-15.2 13.2 0 .4 1 1.3 2.3 1.9 1.9 1 1.8 1-1 .5-1.8-.3-3.3-.2-3.3.1 0 .4 1.6 2.3 3.5 4.3s3.5 3.9 3.5 4.3 1.1 1.2 2.4 2c2.2 1.1 3 1 7.2-1.5l4.7-2.7-.5-9.2c-.4-6.8-.3-8.2.4-5.6 2.3 8.3 5.5 15.5 8.7 19.1 1.8 2.2 3.1 4.2 2.8 4.5s-1.8-1.1-3.4-3c-1.5-2-3.1-3.6-3.4-3.6s-.3 2.1.1 4.7c.4 2.7 1.1 7.9 1.5 11.7.3 3.8 1.1 7.9 1.6 9.2.5 1.4.5 3.4-.1 4.8-.5 1.4-.6 4.1-.3 6.2.4 2.7.3 3.5-.5 3-.7-.4-1.2-1.8-1.2-3.2 0-1.3-.5-2.4-1.1-2.4s-.9.9-.6 2 .1 2-.4 2-.9.7-.9 1.5.6 1.2 1.3.9c1.8-.7 2.1 7 .5 15.5l-1.2 6.4 2.9 2.3c3.3 2.6 5.5 3.1 5.5 1.1 0-.8.4-.7 1 .3 1.3 2 1.2 4-.1 4-.7 0-1.8.8-2.6 1.7-1.2 1.6-1.3 1.5-.7-1s.3-2.9-3.4-4.4c-2.2-.8-4.2-2.4-4.5-3.4-.3-1.1-.1-6.3.3-11.6.5-5.4.6-10.1.3-10.6-.2-.4.3-4.2 1.2-8.4.9-4.1 1.5-9.3 1.3-11.4s.1-4.1.7-4.3c.5-.2-.1-.5-1.5-.5-1.4-.1-3.2-.6-4-1.2-1.2-.8-.9-1 1.3-.6 2.7.4 3.4-.7 1.9-2.9-.4-.6-3.3-1.9-6.6-2.9-5.5-1.7-9.1-4.6-15.2-12.1-1.4-1.8-1.5-1.6-1 1.6.4 2.2.2 3-.3 2-.5-.8-1.2-3.4-1.6-5.7-.5-3.4-.2-5.4 1.9-9.9 1.4-3.1 2.6-6 2.6-6.4 0-1.6 9.3-20 10.1-20 .4 0-1.6 5.1-4.5 11.2m800.5 143.2c-.6.8-7.2 5.3-14.6 10.1-7.3 4.8-13.6 9.3-13.9 10-.5 1.4 17.8 16.6 22.7 18.8 1.9.8 2.7 1.8 2.5 3.2-.2 1.1-.8 2-1.4 2s-4.9 2.4-9.5 5.4c-16 10.3-22.9 14.4-23.5 13.8-.3-.3 1.1-1.5 3.3-2.5 2.1-1.1 8.9-5.4 15.1-9.6 6.3-4.1 11.9-7.7 12.5-8 .7-.3-.7-2.2-3.3-4.6-7.3-6.6-20-16.1-20.9-15.6-1.4.9-4.2-3-3.5-4.9.6-1.5.8-1.5 1.6-.2.7 1.4 1.2 1.4 4.1-.1 5.6-2.8 10.8-6.3 23.6-15.9 4.5-3.4 7.2-4.4 5.2-1.9m204.9 111c0 1.3 2.3 2.8 4.5 3 .5.1 1.1 1 1.2 2.1l.3 2-.9-2c-.9-1.9-1-1.9-1-.1-.1 2.6 2 9.9 3.2 11.1.7.7.8.4.4-.8-.4-1-.1-1.7.7-1.7.7 0 2.3-3.2 3.6-7.5 1.8-5.7 2.8-7.5 4.2-7.5 1.6 0 1.4.9-1.6 9.2-4 11.4-5 15.8-3.3 15.4.7-.1.9-.1.5.1-1.2.7-.9 3.1.4 3.9.8.5.9.1.4-1.2-.5-1.4-.4-1.6.5-.7.6.6.8 1.6.5 2.2-.9 1.5-3.3.3-3.9-2-.3-1-1.4-1.9-2.5-1.9-1.5 0-2.5-1.5-4.2-6.3-1.2-3.4-3.3-9-4.6-12.5-2.2-6-2.3-6.2-.4-6.2 1.1 0 2 .6 2 1.4m26.6 6.2c2.6 0 4.7.6 5.8 1.7 1 .9 2.3 1.7 3 1.7.8 0 1.9.7 2.6 1.5 1.1 1.3 1.6 1.1 4-1.5 3.9-4.1 7.1-4.7 12.2-2 5.3 2.7 8.8 5.9 8.8 7.9 0 1.4-.2 1.4-1.1.1-.8-1.2-.9-.8-.5 1.5l.5 3-1.2-2.8c-1.4-3.5-2.4-3.4-3.2.2-.7 3.3-6 8.5-7.7 7.5-.7-.4-.8-.3-.4.4 1.1 1.8 6.9.3 9.4-2.5 1.2-1.3 2.2-2.1 2.2-1.7 0 1.8-4.6 5.4-6.9 5.5-2.5.1-2.5.2.4.9 2.5.6 2.6.8.7.9-3 .1-5.6-1.2-11.3-6-4-3.3-4.9-3.7-7.5-2.9-1.6.4-2.5.9-2 .9.4.1-.2 1-1.5 2-3 2.4-1.8 3.8 1.8 2.2 2.7-1.1 2.7-1 .8.4-1.3 1-3 1.4-4.8 1.1q-2.85-.6-2.1.6c.9 1.4-1 .3-5.8-3.5-2.1-1.6-3.8-3.5-3.8-4.3s-.5-1.4-1.1-1.4c-.8 0-.9-1.1-.4-3.3.4-1.7.8-4.3.7-5.6 0-1.8.2-2.1.9-1s1 .9 1.5-.9c.4-1.3 1-2 1.3-1.5s2.4.9 4.7.9"/><path d="M434.9 86.5c-.3.2-13.5 3.4-29.5 7.1-15.9 3.6-29.1 6.8-29.3 7-.5.5 1.8 2.5 7.9 6.9 3 2.2 5.8 4.5 6.2 5.1s4.7 3.9 9.5 7.2c4.9 3.3 9.7 6.9 10.7 8.1 2.8 3.1 4.9 2.5 7.2-2.2 4.9-10 17.7-34.3 18.5-35.2 1.8-1.9.6-5.9-1.2-4M439.3 88.2c-.6.7-2.2 3.7-3.7 6.7-1.4 2.9-5.8 11.3-9.6 18.6-3.9 7.2-7 13.7-7 14.3 0 2.4 8.6 0 45.5-12.8 4.4-1.5 11.3-3.8 15.3-5 4-1.3 7.4-2.6 7.7-3 .2-.4-.8-1.3-2.3-2-3.6-1.6-44.1-18-44.6-18-.2 0-.8.6-1.3 1.2M371.5 101.9c-1.1.5-2.4.6-2.9.3s-.6 0-.3.5c.4.6-1 2.5-3.1 4.2-5.4 4.6-17.2 13.1-18.1 13.1-.4 0-1.6.9-2.7 2.1-1 1.2-5.4 4.6-9.6 7.6-4.3 3-7.8 5.7-7.8 5.9 0 .9 42.2-1 68-3.1 2.5-.1 7.2-.4 10.5-.4l6-.1-4.2-3.9c-2.3-2.1-5.9-5.2-8-6.7-2.1-1.6-6.5-5.1-9.8-7.9-3.3-2.9-7.9-6.4-10.2-8-2.4-1.5-4.3-3.2-4.3-3.6 0-1.1-.8-1-3.5 0M504 115.7c0 .3.7 1.5 1.7 2.5 2.5 2.8.7 3.4-1.9.6-1.5-1.5-1.8-1.7-.8-.3.8 1.1 4 4.6 7.2 7.7s5.8 6.1 5.8 6.6 1 .7 2.3.5c2.9-.6 5.6 2.2 3.9 3.9-2.1 2.1-1.3 3.6 7.1 13.5 4.5 5.4 8.9 10.7 9.7 11.9s3 3.7 4.7 5.8l3.3 3.6 3.7-1.5c2.1-.9 5.4-2 7.3-2.5 6.6-1.6 25.5-8.6 25.8-9.6.1-.5-2.1-2.2-5-3.8-8.4-4.5-39.7-20.6-40.3-20.6-.3 0-.5.7-.5 1.5 0 1.6-3.4 3.8-4.4 2.8-1.1-1.2-.6-2.1 1.5-2.6 3.1-.8 1.9-2.7-3.7-5.6-2.7-1.4-6-3.3-7.4-4.2-5-3.2-20-10.9-20-10.2M350 137.2c-4.7.3-12.7.6-17.7.7-5.1.1-9.3.3-9.3.5 0 .3 6.6 16.5 9.5 23.1.7 1.6 2.3 5.9 3.6 9.5 1.2 3.6 3.1 7.8 4.2 9.3 1 1.6 1.7 3.1 1.3 3.4-.7.7 2.2 6.3 3.3 6.3.5 0 1.1-1.4 1.5-3 .4-2.2 1.1-3 2.6-3 2.5 0 4.5-1.7 5.4-4.8.4-1.2 1.5-2.2 2.4-2.3 1.1 0 1.2-.3.5-.6-1.9-.7-1.6-2.1.7-2.8 1.1-.3 2-1.5 2-2.6 0-1.5.7-1.9 3.3-1.9 1.7 0 2.7-.4 2.1-.8s-1.4-2.4-1.7-4.5c-.4-2.8-.2-3.7.9-3.7.8 0 1.4-.5 1.4-1 0-.6 1.3-1 2.9-1s3.2-.6 3.5-1.3c.5-1 .7-1 1.2 0 1.1 2.3 2.5 1.3 2.2-1.5-.2-1.5-.8-2.6-1.4-2.5-.7.1-1.1-.3-1.1-1 .1-3.3-.4-4.7-1.8-4.7-.9 0-1.8-.7-2.1-1.5-.4-.8-1.5-1.5-2.6-1.5-1.7 0-1.9-.2-.7-1.6.7-.8 2-1.3 3-1.1.9.3 2.4-.4 3.3-1.4.9-1.1 2.5-1.9 3.6-1.9s2-.5 2-1c0-1.2-12.1-1.1-28 .2M437.2 192.3c-1.2 1.3-1.9 2.7-1.5 3 .3.4 0 .7-.8.7s-4.4 2.8-8 6.2c-3.6 3.5-6.1 6-5.5 5.5 1.8-1.3 2.9-.8 1.6.8-.7.8-1.9 1.5-2.7 1.5s-2.8 1.1-4.4 2.5c-3 2.4-3 2.4-.7 2.9 1.3.3 5.2.7 8.8 1s7.9.7 9.5 1c8.2 1.4 21.6 1.7 24.9.6 3.2-1 3.4-1.3 2.1-2.6-.8-.9-1.5-2.2-1.5-3s-1.1-3.2-2.5-5.2-2.5-5-2.5-6.7-1.1-4.2-2.5-5.7c-2.1-2.4-3.1-2.8-7.2-2.5-3.4.1-4.7-.2-4.5-1.1.3-1.7-.1-1.5-2.6 1.1M410.5 218.3c-.2.6-.9 9.1-1.5 18.7s-1.6 20.4-2 24c-1.6 11.8-2.4 37-1.2 37 .6 0 1.5-.6 1.9-1.4s4.4-5.2 8.8-9.8c11.6-12.1 36-40.4 50.3-58.4 2.4-3.1 2.9-5.4 1-5.4-.7 0-4.2-.5-7.8-1s-14.8-1.6-25-2.5c-10.2-.8-19.8-1.7-21.3-2-1.7-.3-2.9 0-3.2.8M465.9 232.2c-3 3.5-7.2 8.5-9.4 11.3-2.1 2.7-6.4 7.7-9.4 11.1-3.1 3.3-8.7 9.8-12.6 14.4-3.8 4.6-9.9 11.5-13.4 15.2-6.6 7-11.1 12.7-11.1 13.9 0 .3 1.9.3 4.3-.2 2.3-.4 6.9-.8 10.2-.7h6l-4.3.9c-2.3.4-4.9 1.5-5.8 2.4-.8.8-2.1 1.5-2.7 1.6-3.5.2 22.6 5.5 44.8 9 6.6 1 13 2.2 14.3 2.5 2.3.7 2.3.6 1.7-7.2-.4-4.4-1-11.1-1.5-14.9-.5-3.9-1.2-12.6-1.5-19.5s-1.3-19.2-2.1-27.4c-.8-8.1-1.2-15.7-.9-16.7 1.1-3.5-1.2-1.9-6.6 4.3M474.5 231.5c-.3 3-.4 5.8-.2 6.2.3.5 1.2 11.1 2.1 23.8 1 12.6 2.3 25.2 3 28 .7 2.7 1.4 7.8 1.4 11.3s.3 6.6.5 6.9c1.2 1.1 9.7-5 13.8-10 2.4-2.8 7.4-8.4 11.1-12.2 3.7-3.9 7.7-8.4 9-10 1.2-1.7 2.5-3.2 2.8-3.5 1.9-1.6 18-20 18-20.5 0-.3-2.6-1.8-5.7-3.2-3.2-1.4-7.6-3.3-9.8-4.3-8.7-3.8-21.3-9-22-9-.4 0-2.1-.7-3.8-1.5-4.6-2.1-18.1-7.5-18.8-7.5-.4 0-1 2.5-1.4 5.5M863.5 98.5c-2.2.7-10.7 3.2-18.8 5.5-8.1 2.4-15 4.7-15.3 5.1-.5.9 9.6 14.5 15.4 20.6 1.2 1.3 2.2 2.9 2.2 3.6 0 .8.3.8.9-.1.6-1.1 1-1 1.6.5.5 1 .9 2.2.9 2.8.1 1 1.1 1.6 2.1 1.4.3-.1 1.5-.2 2.7-.3 1.5-.1 2.4-.9 2.8-2.6.7-2.8.2-6-1-6-.4 0-1.2-1.1-1.8-2.5-1-2.1-.9-2.6.9-3.6 1.1-.6 2.3-.8 2.6-.5s1.8-.2 3.3-1.1c2.7-1.5 3.5-4.4 6.5-21.6.5-3 .5-3-5-1.2M876 98c0 .6.5 1 1 1 .6 0 8 6.9 16.4 15.4 17.5 17.5 14.8 16.2 35.6 16.5 6.9.1 14.1.4 16.1.7 5 .8 5.6-.9 1.1-3.1-5.4-2.6-32.8-14.9-46.7-21-6.6-2.9-14.6-6.4-17.7-7.9-3.2-1.4-5.8-2.1-5.8-1.6M872.6 99c-2.7 7.1-3.6 11-4.2 16.5-.6 5.9-.5 6.3 1.5 7 1.9.6 2.2 1.3 2 5.9-.1 2.9.1 5.8.5 6.5 1.4 2.1 5.8.2 10.2-4.3l4.1-4.2 2.4 1.9c2.1 1.6 2.4 1.7 3.4.3.9-1.2 1.4-1.3 2.4-.3.8.8 1.6.9 2.9.1 1.1-.7 2.6-.8 4.1-.3 1.9.8 1.7.2-1.7-3.8-7.4-8.9-14.9-15.4-16.9-14.6-1.5.6-1.6.4-.5-.9 1.1-1.4.8-2-2.5-4.5-2.1-1.5-4.5-3.7-5.5-4.8-1.4-1.7-1.7-1.7-2.2-.5M820 112c-.8.5-3.3 1.7-5.5 2.5-2.5 1-3.5 1.9-2.8 2.3 2 1.3 1.1 7-1.2 7.6-1 .3-2.1.3-2.4.1-.2-.3.1-.5.7-.5 1.9 0 1.4-3-.5-3-1.6-.1-1.6-.2.1-1.5 1.1-.8 1.6-1.8 1.1-2.2-.4-.5-1-.2-1.2.5-.3.6-.8 1-1.3.7s-2.1 0-3.7.6c-2.8 1.2-4.2 1.7-6.5 2.2-2.2.4-8.3 3.1-8.8 3.7-.3.4-1.4 1.1-2.4 1.7-1.1.6-2 2-2.1 3.1-.1 1.8 1 2.3 8.9 4.1 14.4 3.3 21.4 4.3 23.5 3.2 1-.6 2.1-.8 2.4-.5s.8-.4 1.2-1.6c.9-2.7-.2-7.3-1.5-6.5-.6.3-1-.3-1-1.4 0-1.3.9-2.1 2.9-2.6 3.8-.8 6-3.2 3.8-4.1-.9-.3-2.1-.3-2.7.1-.5.3-1.4-.5-2-1.9-.5-1.4-1.5-2.6-2.2-2.7-.7 0-.2-.4 1-1 1.3-.5 2.7-.7 3.2-.4.4.3 1-.4 1.3-1.5.6-2.2 0-2.4-2.3-1M953.6 138.7c-1 2.1-2.6 5.5-3.7 7.6-1 2.2-1.9 4.3-1.9 4.9 0 1.8-3.2 7.8-3.9 7.3-.4-.2-2.9 3.9-5.4 9.2l-4.6 9.6 3.9 4.7c2.1 2.5 9.4 10 16.2 16.6 6.8 6.5 16.9 16.9 22.5 22.9 5.7 6.1 10.3 10.4 10.3 9.6 0-2.9-19.4-62.3-23-70.6-2.9-6.4-7.1-18.8-7.5-21.5-.5-4.5-1-4.6-2.9-.3M760.5 159.6c-2.7.8-5.1 1.8-5.3 2.4-.2.5-1.2 1-2.3 1s-2.3.8-2.6 1.7c-.4 1-1.3 2.3-2.1 2.9-.9.7-1.2 1.6-.7 2.4s.4 1.1-.3.6c-2.1-1.3-3.7 4.1-1.7 5.7.6.5.4.7-.5.4-.8-.2-1.4-1-1.2-1.6.1-.7-.2-1-.8-.6-.5.3-1 1.2-1 1.9 0 .8-.7 1.9-1.6 2.6-2.8 2.4-3.4 4.5-1.8 7.5 1.5 2.9 1 5-.7 2.5-.8-1.3-1-1.3-1.8 0-.6.8-1.3 1.1-1.8.7-.4-.5-.1-1.2.6-1.6.7-.5 1.1-1.5.9-2.2-.3-.9-1.1-.2-2.2 1.9-.9 1.8-1.4 3.6-1.1 4.1.2.5-.3 1.2-1.3 1.6-2.1 1 35.6 7.4 39.3 6.8 1.4-.3 2.5-1.2 2.5-1.9 0-1.8-2-1.8-3.4.1-1.2 1.6-6 1-5-.6.3-.5 0-.9-.7-.9-1.2 0-3.8-2.9-3.9-4.3 0-.4 1.1-.7 2.4-.7 2.4 0 2.5-.1 2-7.5-.5-7-.4-7.6 2-10 2.2-2.1 2.6-3.5 2.6-8 0-9.1-.1-9.2-8.5-6.9M937.2 188.5c-1.4 2.6 4.8 39.3 6.9 40.5.5.4.7 1.4.4 2.2-.9 2.2 2.3 2.6 24.2 3.4l18.8.6-24-24.1c-13.2-13.2-24.3-24.1-24.7-24.1s-1.1.7-1.6 1.5M823 213.7c.1 2.4 38.2 78.6 39.6 79 .7.3 1.3-3.3 1.8-10.4.4-5.9.9-12.2 1.1-13.8.2-1.7.8-11.3 1.4-21.5s1.3-20.8 1.5-23.7l.4-5.1-4.1-1.1c-2.3-.5-10.5-1.7-18.2-2.5-7.7-.9-16.1-1.8-18.7-2.1-4.2-.5-4.8-.3-4.8 1.2M1004 217.9c0 .5-2.3 3.7-5.1 7.2-5.4 6.8-7.3 9.8-6.6 10.5.4.5 28.1 4.4 31 4.4 1.7 0 1.7-.2-.5-3.3-1.2-1.7-4.8-5.7-7.9-8.7-3-3-6.4-6.7-7.3-8.3-1.8-2.6-3.6-3.6-3.6-1.8M946 236c0 1.6 27.9 39.4 35.9 48.6 1.1 1.2 2.5 3.2 3.1 4.5 1 1.7 1.4 1.9 2 .8.4-.8 1.1-12.9 1.5-27l.7-25.7-16.9-.6c-9.2-.4-18.9-.9-21.5-1.2-3.3-.4-4.8-.2-4.8.6"/><path d="M992.3 241.2c.3 1.8 1.4 7.3 2.6 12.3 1.1 4.9 2.3 10.1 2.6 11.5l.6 2.5-1.1-2.4c-.6-1.4-2.1-6.3-3.2-11l-2.2-8.6-.7 4.1c-.4 2.2-1 13.6-1.3 25.4-.5 20-.7 21.4-2.4 21.5-1.1.1-4.7 2-8.2 4.3-3.4 2.3-6.7 4.2-7.2 4.2-1 0-.9.8.6 5.5.5 1.5.4 1.5-.5-.3-.7-1.2-1.7-2.2-2.4-2.2-1.2 0-4.5 8.8-6 15.7l-.7 3.3 10.1.2c5.6.1 10.9.2 11.9.2 1.5.1 1.7-1.1 1.9-9.7.2-13.1 1.3-13.8 1.3-.9 0 5.6.3 10.2.7 10.2.3 0 2.7-1.2 5.2-2.7s6.9-3.9 9.6-5.4l5-2.7v-6c0-6.8.9-7.3 1.9-1.2.6 4.1 2.6 4.7 2.6.9 0-1.1 1.3-7.5 2.9-14.2 5.5-23.1 10.1-45.6 10.1-49.6 0-4.6 1.8-3.9-17.5-6.6-6.1-.8-12.3-1.5-13.9-1.5-2.6 0-2.8.2-2.3 3.2M940.7 250.5c-1.5 5.8-2.8 11-3 11.6-.1.6 2.1 2.3 4.8 3.8 2.8 1.4 7.2 4.1 9.9 5.9 2.6 1.8 5.2 3.2 5.6 3 .6-.2-13-33.2-14.3-34.4-.1-.2-1.5 4.4-3 10.1"/><path d="M948 244.7c.5 1 2.3 4.9 4 8.8 1.7 3.8 3.5 7.9 4 9s1.2 3.1 1.5 4.5c1.9 6.9 5.4 10.8 14.8 16.4 5.2 3.1 10 5.6 10.8 5.6.9 0 1-.3.4-.8-.6-.4-4.2-4.8-8-9.7-8.2-10.6-16.7-20.9-17.7-21.3-.5-.2-.8-.9-.8-1.6s-.9-2.1-2-3.1c-1.2-1.1-3.1-3.6-4.2-5.7-1.2-2.1-2.5-3.8-3-3.8-.4 0-.4.8.2 1.7M886 258.7c-1.3 2.7-2.3 6.1-2.2 7.8 0 1.8-.1 2.2-.5 1.1-.4-1.5-.9-1.1-3 2.3-1.3 2.2-2.1 4.5-1.8 5.1s-.1.7-.9.4c-1-.4-1.6-.1-1.6.9 0 .9-1.4 4-3.1 6.9-1.8 2.9-3.5 6.5-3.9 8-.7 2.2-.6 2.6.8 2.1 3.1-1.1 3.4-1.5 2.1-2.5-1-.7-.7-.7.8-.3 2.5.7 8.7-2.1 7.8-3.5-.3-.5.6-1.2 2-1.6 1.4-.3 3-1.4 3.5-2.3.8-1.4 1.1-1.4 1.9-.1.8 1.2 1.2 1.2 2.9-.3 1.1-1 2.9-1.9 4.1-2 1.1-.1 2.1-.7 2.1-1.5 0-.7.4-1.1.9-.8 1.4.9 4.2-.5 3.4-1.7-.4-.6.1-.8 1.4-.5 2.7.7 5.4-.9 4.7-2.7-.8-1.9 2.5-3.2 3.6-1.5.6.9 1.3.7 2.9-.9 1.1-1.1 2.4-2.1 2.9-2.1.4 0 1.2-1.2 1.9-2.6 1.1-2.3.9-2.6-1.5-3.5-1.5-.6-4.4-.8-6.5-.6-4 .5-10.9-1.1-10.2-2.4.9-1.3-2.7-4.1-4.6-3.6-1.1.3-2.1.1-2.4-.3s-1.5-.6-2.7-.2c-1.4.3-1.9.2-1.4-.6.4-.7.3-1.2-.1-1.2-.5 0-2 2.1-3.3 4.7M938.4 270.2c.3 1.8 1.1 5.1 1.7 7.3s1.3 5 1.6 6.2c.3 1.3 1 2 1.9 1.6.9-.3 1.4.1 1.4 1.2 0 1-.5 1.3-1.2.9s-.8-.3-.4.4c1 1.7 4.1 1.5 5.6-.3.6-.8 3.2-2.6 5.6-4s4.4-3.2 4.4-4-1.8-2.6-4-4c-4.6-2.9-15.4-8.5-16.4-8.5-.4 0-.5 1.5-.2 3.2M955.5 285.6c-2.7 2.5-6 5.4-7.4 6.3l-2.4 1.8 10.3 5.1c5.7 2.9 10.6 5 10.9 4.7.8-.9-4.3-20-5.8-21.8-.4-.4-2.9 1.4-5.6 3.9M963 282.2c.1.7.7 3.1 1.5 5.3s1.5 5 1.5 6.2.4 2.4.9 2.7 1.2 2.1 1.5 4.1c.4 1.9 1.1 3.7 1.5 4 .5.3 2.7-1 4.8-2.7 2.2-1.8 5.6-4.2 7.6-5.3s3.6-2.4 3.4-3c-.2-.5-2.5-2.1-5.3-3.5-2.7-1.4-7.2-4-9.9-5.7-5.3-3.5-7.5-4.1-7.5-2.1M1039.1 290.9c-2.8 2.6-4.1 4.6-3.8 5.6.4.9.1 1.5-.7 1.5-.7 0-1.8 1.9-2.5 4.2-1.5 5-5.8 16.6-7.1 18.9-.5 1 3.3-1.1 8.5-4.5 5.2-3.3 9.4-6.7 9.5-7.5 0-.8-.8-2.3-1.7-3.3-1.5-1.7-1.5-1.8-.1-1.3s1.7-.4 2.3-5.7c.4-3.5.5-7.6.3-9.1l-.3-2.9zM926.3 298.9c-6.1 1.4-11.4 2.9-11.8 3.3-.3.3.8 3.3 2.4 6.7 2.3 4.5 3.8 6.2 5.7 6.7 1.7.4 2.9.2 3.5-.7.5-.8.9-1 .9-.4.1.5 2.6-1.7 5.6-5 5.3-5.8 5.5-5.6 1.4 1.2l-1.8 3.1 4.3 1.1c2.4.6 6.2 1.1 8.5 1.1h4.1l-.7-3.8c-.4-2-1.1-4.8-1.6-6.1s-.6-2.6-.4-2.8c.3-.3 1.1 1.8 2 4.5 2.4 8.3 4.7 11.7 8.2 12.4 1.2.2 1.8 1 1.6 2.2-1.1 6.4 7.1-6.6 8.5-13.4.5-2.6 0-3-10-7.9-5.8-2.8-11.1-5-11.9-4.9-.7.2-2.2 1.2-3.2 2.3-1.9 2-1.9 2-1.3-.3.6-2.8.4-2.7-14 .7M1029 300.2c-1.4 1.3-4.1 3.5-6 4.9-7.3 5.4-9.7 8.8-10.4 14.1-.4 2.8-.3 5.4.1 5.8s2.6 0 4.8-1c3.7-1.6 4.6-2.7 8.7-11.1 3.9-8.2 6.5-14.9 5.6-14.9-.2 0-1.4 1-2.8 2.2M866 300.1c0 .8.7 2.4 1.5 3.6 2 2.9 12.6 21.6 16 28.2 2.4 4.9 2.8 5.2 3.8 3.5.5-1 2.9-4.2 5.1-6.9C902 316.9 910.7 303 909 302c-.6-.4-8-1-16.3-1.3-8.4-.4-17.8-1-20.9-1.3-4.7-.5-5.8-.4-5.8.7M858 303.3c-9.6 5-21.4 11.7-26.4 14.9-3.3 2.1-6.4 3.8-7 3.8s-2.2.9-3.5 1.9l-2.4 1.8 7 4.1c3.8 2.3 9.3 5 12.2 6.1 2.8 1.2 7.4 3.2 10.2 4.7 2.8 1.4 5.5 2.2 6 1.7s.9-2.3 1.1-4.1c.1-1.7.6-3.2 1-3.2.9 0 .5 5.1-.6 6.8-.9 1.5.4 1.5 13.6.1 13.6-1.5 14.9-2 13.9-5.6-2.2-7.6-16.4-33.2-18.8-34-.7-.3-2 3.2-3.2 7.9-2 8.2-2 8.3-1.4 2.3.3-3.3.9-7 1.4-8.3 1-2.5.4-2.7-3.1-.9M910.9 304.7c-1.4 1.7-3.7 5.1-12.2 18.5l-3.7 5.7 4.4-2.9c2.4-1.7 5-3 5.7-3 1.9 0 8.1-3.8 9.7-5.8 1.1-1.5 1.4-1.5 2.2-.2 1.8 2.8 1.1-1.6-1.1-7.2-2.6-6.7-3.2-7.3-5-5.1M1003.3 320.8c-2.3 1.5-6.7 3.8-9.7 5.2-3.1 1.4-5.6 2.9-5.6 3.5 0 .5.9 2.8 1.9 5 1.1 2.2 2.2 4.8 2.5 5.8 1.1 3.4 8-3.8 13.1-13.6 5-9.4 4.7-10.3-2.2-5.9M817.4 335.2c.3 3.4.9 12 1.3 19 .3 7.1.9 12.7 1.3 12.6 2.2-.9 30.9-20.4 31-21.1 0-.4-.4-.7-1-.7-.5 0-3.3-1.4-6.2-3.1-9.2-5.5-24-12.9-25.5-12.9-1.3 0-1.5 1-.9 6.2M971.8 329.9c-6.4.6-6.6.7-5.2 2.6.8 1.1 1.7 1.8 2.1 1.5.3-.3 1.5 1.9 2.7 4.8 1.3 3.3 2.6 5 3.4 4.7.7-.3 1 0 .7.5-.3.6-.1 1 .4 1 .6 0 1.1-.4 1.1-.9s.6-1.6 1.3-2.3c2.2-2.3 6.7-11 6.1-11.9-.5-.9-1.4-.9-12.6 0M982.1 339.3c-2.3 4.5-4.1 8.5-4.1 8.8 0 1.3 7.7 1.8 10.8.7 2.9-1.1 3.2-1.5 2.7-4.3-1-4.8-3.6-12.4-4.4-13-.5-.2-2.7 3.3-5 7.8M867 343.5c-4.7.7-9.1 1.4-9.7 1.4-2.5.2-1.2 2.2 5.9 9 5 4.8 7.6 6.6 8.1 5.8.6-.8.7-.6.4.4s.6 2.8 2.2 4.3c2.6 2.5 3 2.6 4.5 1.1.9-1 2.4-1.4 3.5-1 1.4.4 2 0 2.3-1.8.7-3.4-.1-4.7-2.8-4.7-3.6 0-2.9-1.5.8-1.8 1.8-.2 3.6-.6 3.9-1 .4-.4.4-3.5.2-7l-.5-6.2-5.2.1c-2.8.1-8.9.7-13.6 1.4M838 357.3c-7.4 5.1-14.5 9.9-15.8 10.8-2.3 1.6-2.2 1.7 10.5 9.4 7 4.3 13.7 8.6 14.8 9.5 2 1.6 14.3 9 15 9 .3 0 0-1.1-.5-2.5-.5-1.3-1.4-5.5-2-9.2-.6-3.8-2.1-11.3-3.2-16.8-2.2-10.6-2.5-12.4-2.7-16.8 0-1.5-.7-2.7-1.3-2.6-.7 0-7.4 4.2-14.8 9.2M964 391.5c-1.1 1.3-1.5 1.3-2.2.3-.7-.9-.8-.6-.5.9.3 1.3.1 2.5-.4 2.8-.9.6-4.9 9.1-4.9 10.5 0 .8 20.1 3 21.3 2.3.4-.2.7-1.5.7-2.8 0-1.8-.4-2.2-1.9-1.8-1.3.3-2.7-.6-4.7-3.4-1.6-2.1-3.1-3.9-3.4-4.1-3.1-1.6-3.4-2.2-2.2-3.4.6-.6 1.2-1.6 1.2-2 0-1.3-1.7-.9-3 .7M931.9 396.8c-1 .2-2.1 2.3-2.9 5.7-1.5 6.5-.9 8.7 2.2 8 1.3-.2 6.1-1 10.8-1.6s8.6-1.2 8.8-1.4c.2-.1-1.1-1.3-2.8-2.6s-4.6-3.6-6.4-5.1-3.6-2.5-4-2.1c-.3.3-.6.1-.6-.5 0-1-1.6-1.2-5.1-.4M1031.8 415.2c1.2.6 2.2 1.5 2.2 2s-.9.4-2-.2c-1.9-1-1.9-.9-.5 3 .8 2.2 1.1 4 .8 4-.4 0-.2.5.5 1.2s1.2 2 1.2 3.1c0 1 .4 1.6.9 1.3s1.2 1.5 1.6 4.1c1 6.9 2.2 8.3 7.3 8.3 4.3 0 4.4-.1 3.7-2.7-1.2-4.8-9.2-20.7-11.4-22.7-1.2-1.1-3.2-2.1-4.4-2.2l-2.2-.3zM986.7 446.7c-1.3.3 1.7 2.3 9 5.9 12.5 6.3 13.5 6.4 22.8.7 12.2-7.4 12.3-7.3-10.2-7.2-10.9.1-20.6.3-21.6.6M257.5 338.8c-2.2 1.4-6.5 3.9-9.5 5.5-7.2 3.8-12 7-12 8 0 1.4 3.6 5.7 11.8 14 5.1 5.2 7.8 7.3 8.3 6.5.4-.7 1.6-5.8 2.7-11.2 1.2-5.5 2.7-10.3 3.4-10.7.8-.5.9-.9.2-.9-1.3 0-1-6.3.6-10.4.5-1.5 1-2.9 1-3.2 0-1.1-2.9-.1-6.5 2.4M299.5 351.6c-1.1.9-4.2 2.7-6.9 4.1-6.6 3.4-31 19.6-31.4 20.8-.2 1.1 13.8 5 41.3 11.5 9.9 2.3 23.1 5.5 29.3 7.2 6.3 1.6 11.6 2.7 11.9 2.4.8-.7-3.7-7.1-8.6-12.3-2.2-2.3-8.4-9.3-13.7-15.5-12.1-14.1-17.5-19.8-18.9-19.8-.5 0-1.9.8-3 1.6M492.2 606.7c.1 1.6.5 3.2.8 3.8.4.5 1.8 5.6 3 11.3 1.3 5.6 2.6 9.9 2.9 9.5.8-1 4.1-1.5 11.6-1.7 3.6 0 7.3-.8 9.2-1.9 3.1-1.6 3.2-1.6 2.7 0-.5 1.5-.4 1.4.8-.2 1.8-2.5 4-8.8 2.8-8-.4.3-1 .1-1.2-.4-.4-1.1-30.3-15.1-32.4-15.1-.2 0-.3 1.2-.2 2.7M446.4 639.9c.8 2.5 1.5 6.9 2.6 14.9 1.1 8.6 3.7 24.2 4.8 29.2.4 2 1.4 3.5 2.2 3.5 1.4 0 16.9-21 16.9-23 .1-.6-.4-.3-.9.5s-1 1-1 .4c0-1.4 2.5-3.6 3.3-2.8.3.3.3-1.4 0-3.8-.6-4-.5-4.2 1.1-2.5 2 2 3.3 2.3 1.9.4-.5-.6-.9-2.7-.9-4.5.1-3-.2-3.3-3.9-4.3-2.2-.6-4.4-1.5-5-1.9-.5-.4-5.6-2.3-11.3-4.2-8.3-2.8-10.1-3.2-9.8-1.9M473.5 669.7c-.5 1-.7 2.2-.6 2.6.1.5-.3.6-.9.2-.5-.3-1.3.2-1.7 1.2-.3 1-1.3 2.6-2.1 3.5-.8 1-1.2 2.4-.9 3.2.4 1 .1 1.3-.7 1s-2.1.5-3 1.8c-1 1.3-1.2 2.4-.6 2.6.5.2 1 .8 1 1.4s-.6.8-1.3.5c-1-.4-1.3.2-.9 2 .4 2.2.2 2.4-1.6 1.9-1.2-.4-2.3-.2-2.8.5-.4.7-.3.9.4.6 1.6-1.1 4.1.3 3.5 1.9-.4 1.2-.8 1.2-2.1.2-3.5-2.9 2.5 5.6 8.5 12 3.5 3.7 6.3 7.1 6.4 7.7.1.5.4-.1.8-1.5s.3-3.3-.3-4.2c-.8-1.3-.7-2.4.2-3.8 1.5-2.5 1.6-11.2 0-12.8-.9-.9-.9-1.2.1-1.2.7 0 .9-.4.6-1-.3-.5.6-1.2 2-1.6 3-.7 2.9-.3.8-5-.9-2.2-1.6-4.7-1.4-5.7.1-1-.4-1.7-1.3-1.7s-1.6.9-1.6 2-.4 2-.9 2c-1.4 0-2.3-3.3-1.1-4 .6-.3 1.5-2.2 2-4 1.1-3.7.7-5.2-.5-2.3"/></svg>