<svg xmlns="http://www.w3.org/2000/svg" width="1706.667" height="960" viewBox="0 0 1280 720"><path d="M0 360v360h158c104.7 0 158-.3 158-1 0-.6.7-1 1.5-1s1.5.4 1.5 1c0 .7 23.5 1 68.4 1 64.6 0 68.5-.1 70.6-1.8l2.3-1.8-3.7-4.9c-4.9-6.4-13.4-15-14.1-14.3-.4.3-1.1 3.6-1.6 7.4-.5 3.7-1.2 7-1.5 7.3-.4.3-.3-1.2 0-3.4 1.4-8.5 1.6-18.3.5-25.3-1.5-9.4-.5-10.5 1.2-1.3 1.2 6.9 1.3 7.1 3.1 5.4 3.3-3 22.3-32.4 22-34-.2-.9.2-1.9.9-2.4 1-.6.7-1-1.1-1.7-1.4-.6-7-2.8-12.5-5s-11.6-4.3-13.5-4.7-4.1-1.2-4.8-1.8c-1.1-.9-1.3-.2-.7 3.9.4 2.7 1.1 6.5 1.5 8.4 1.4 5.8 3.3 21.7 2.8 23.1-.3.8-.9-1.5-1.3-5.1s-1.6-11-2.7-16.5c-3.4-17.1-3.5-21.2-.4-17 .9 1.2 29 11.5 31.4 11.5.2 0-.1-.6-.7-1.4-.8-1-.8-1.6.1-2.3 2.1-1.6 5.7-2.2 6.1-.9.2.6.9-.7 1.4-2.9 1.2-4.6 5.1-36.8 4.6-37.4-.2-.3-1.8-.6-3.6-.8-1.7-.1-4-.4-4.9-.6-2.2-.4-12.8-9.4-12.8-10.8 0-1 5.3 2.6 9.5 6.4 2.1 1.9 7.8 3.8 8.3 2.7.2-.4-1.7-3.7-4.2-7.3-2.4-3.6-4.2-6.8-3.9-7.1.4-.3 3 2.9 6 7.2 3 4.2 5.9 7.7 6.6 7.7 1.2 0 19.7-27.9 19.7-29.7 0-.6-1.8-.7-4.2-.4l-4.3.6 3.5-1.4c1.9-.7 4.1-1.1 4.8-.8.8.2 1.2-.6 1.3-2.4 0-1.6.3-2.3.6-1.5.4 1.1 1 .8 2.6-1l1.9-2.4-1.4 2.5c-2 3.5-1.7 6 2.5 18.7 2 6.2 3.7 11.6 3.7 12-.1 1.2-4-6.9-4-8.2 0-2.4-4.2-14.5-5.1-14.5-.5 0-1.6 1.5-2.5 3.2-.9 1.8-5.1 8.6-9.2 15.1-6.1 9.7-7.2 12-6.2 13.2.7.8 1.7 1.5 2.2 1.5.6 0 2.4.6 4.1 1.4 1.8.8 6.1 2.6 9.7 4.1s8.8 3.8 11.5 5c2.8 1.3 5.2 2.1 5.3 2 .2-.2-.1-1.8-.7-3.7-.5-1.8-1.9-6.3-3-9.9-1.2-3.6-2.1-7-2.1-7.5.1-1.7 4 7.8 6.1 14.7l2.1 6.9 8.5-7.7c4.7-4.3 11.2-10.7 14.4-14.2 5.5-6 5.9-6.2 5.9-3.7 0 1.5-.4 2.5-.8 2.2-.5-.3-6.6 5.3-13.7 12.4-9.7 9.7-12.6 13.3-11.8 14.1.6.6.9 1.7.6 2.5-.5 1.3 12.8 43.5 14.6 46.2.7 1.1 1.3.9 3.1-1l2.3-2.3-2.2 3.7-2.2 3.8 4.8 9.2c4 7.7 6.7 11.2 16 20.7 7.8 8 11.6 11.2 12.7 10.8s1.8.1 2.2 1.8c.3 1.4 1.4 3 2.3 3.6 1.3.9 1.3 1-.4.4-1.1-.4-2.4-.7-3-.8-.5-.1-1.6-1-2.3-2-.8-1.1-2.8-1.8-5.5-1.8l-4.2-.2 3.8-.6 3.8-.6-9-8.3c-7.4-6.8-9.5-8.2-11.5-7.8-1.5.3-2.9-.1-3.3-.8-1.4-2.2-7-3.5-12.8-2.9-3.5.4-5.5.2-5.5-.5 0-.6-2.8-1.2-6.5-1.4-3.6-.1-6.5 0-6.5.5 0 .4-1.1.5-2.4.3-2.1-.4-2.5.1-3.4 3.6-1.1 4.3-.1 8.3 3.9 15.3.9 1.6 2 4.5 2.4 6.2.6 2.9 1.1 3.3 3.9 3.3 1.8 0 8.6-1.4 15.2-3.1 12-3.1 14.3-3.7 15.6-3.8.4-.1 1.3-.8 2.1-1.6 2.2-2.2 3.9.3 2.8 4.1-.8 2.4-.9 2.5-1 .6-.1-1.2-.4-2.2-.7-2.2-1.7 0-18.1 4.3-19.4 5.1-.9.5 25.4.9 63.5.9 49.3 0 65.4-.3 66.3-1.2s1.2-.9 1.2 0c0 .7 1.5 1.2 3.8 1.2 3.1 0 4.1-.5 5.5-2.9 2.2-3.7 2.2-4.9 0-4.7-1.8.1-2-1.5-.7-7.2.3-1.7.1-2.2-.8-1.6-1 .5-1.1.4 0-.7.6-.7 1.2-2.6 1.2-4.1 0-1.6.7-4.5 1.5-6.5 1.8-4.3 1.9-7.5.3-9.2-1.1-1-.7-1.1 1.7-.5 1.7.4 3.1 1 3.3 1.4.1.4 2.6.5 5.4.2 3.6-.3 4.9-.2 4.4.6-1.1 1.7 4.1 2.7 6 1.1 1.4-1.1 1.8-1 3 .5 1.2 1.7 1.4 1.7 2 .3 1.6-4.3 5 .2 3.8 5-.4 1.6.3 2.9 2.8 5 4.1 3.5 12.1 11.5 17.2 17.4 2.1 2.4 3.6 3.6 3.2 2.6-.3-1.1-.2-1.6.4-1.2.6.3 1 1.5 1 2.6 0 1.4.7 1.9 3 1.9 3 0 4-1.3 1.9-2.5-1.6-1.1-10.9-22.4-10.9-25 .1-1 6 11.1 6 12.3.1.4 2 3.8 4.4 7.7l4.3 7 272.7.3 272.6.2V0H0zM456 81.4c0 .2-5.4 1.4-12 2.6-6.6 1.3-12 2.6-12 2.9s6.9 3.4 15.3 6.9c8.3 3.5 18.4 7.7 22.2 9.3 3.9 1.6 7.7 2.9 8.7 2.9 1.1 0 2.4-2.2 4.3-7.3 3.4-9.4 4.3-11.4 4.4-10.1.1.6-1.1 4.2-2.5 8-4.2 11.3-4.3 10.4 1.6 10.4 8.5 0 49.1-2.1 54.3-2.8l4.9-.7-14.1-7.4c-7.8-4-14.1-7.8-14.1-8.3s2.1.2 4.8 1.7c2.6 1.5 9.2 5.2 14.7 8.3 5.5 3 11.8 7.2 14.1 9.1 2.2 2 5.6 4.9 7.5 6.4 2.2 1.8 1.6 1.5-1.8-.8-2.9-1.9-5.7-3.5-6.2-3.5s-1.5-.7-2.2-1.6c-1.2-1.5-3.2-1.6-17.2-1-8.6.4-21.7 1.1-29 1.6-7.2.5-14.3.9-15.6 1-2.2 0-1.9.4 2.1 2.9 2.5 1.6 10.3 5.9 17.4 9.6s20.3 10.7 29.4 15.5c31.9 16.9 37.8 19.8 38.5 19.2.3-.4.9-.1 1.4.6.5.9 2.3.9 7.7-.2 3.8-.8 9.6-1.6 12.9-1.9 3.9-.4 1.5.3-6.8 2-14.3 2.8-13.6 2.1-9.7 10.8 3.6 7.8 6 13.8 5.7 14.2-.2.2-2.3-3.7-4.5-8.7-2.3-4.9-4.3-9-4.4-9-.8 0 .6 20.7 1.4 21.7.7.9.7 1.3 0 1.3-.6 0-.9.6-.6 1.3.2.7.6 5.5.7 10.7s.7 10.4 1.2 11.4c.7 1.5.5 1.7-.6 1.1-.7-.5-2.6-.8-4.1-.7-2.9.2-4.8-1.6-2.8-2.8 1.7-1 .9-2.1-4.2-5.6-2.3-1.6-7.8-5.8-12.2-9.3-12-9.6-16.6-12-16.6-8.7 0 1.5-2.7 2.9-4 2.1-.5-.3-1.1.3-1.4 1.2-.7 2.1-3.2 19.2-4.6 30.8-.5 4.4-1.6 13.1-2.3 19.4-1.4 11.1-1.4 11.6.6 13.5 1.1 1.2 1.7 1.5 1.3.8-.4-.6-.2-1.2.3-1.2.6 0 1.1.7 1.1 1.5s.9 1.5 2 1.5 4 1.5 6.4 3.4c2.4 1.8 8.4 5.5 13.2 8.1 4.9 2.6 10.1 5.7 11.6 6.7 1.6 1.1 3.2 1.7 3.7 1.4s1.2-3 1.6-5.9c1.2-9.5 6.7-46.1 7.6-50.2.7-3.6.8-3.4.4 1.5-.2 3-.9 8.4-1.5 12s-1.5 10.1-2 14.5c-.6 4.4-1.8 12.2-2.6 17.3-.9 5.2-1.4 9.6-1.1 9.8.7.8 42-20 42.4-21.3.2-.6-1.1-2.8-2.9-5-3-3.5-3-3.6-.4-1.3l2.9 2.5-.6-3c-.6-2.9-.6-2.9 1.1.5 2 4.2 3.7 4.7 6.6 2.2 4.3-3.9 5-3.3.9.7-2.4 2.3-4.3 4.9-4.3 5.9 0 1.3-.2 1.4-.9.4-.7-1.1-1.6-1-4.7.6-2.2 1-10.2 5.1-17.9 8.9-7.7 3.9-16.1 8-18.6 9.1-4.2 1.9-4.7 2.5-6.4 8.2-1 3.3-2 5.8-2.3 5.6-.2-.3.3-2.6 1.2-5.2s1.4-5 1.1-5.2c-.4-.5-15.8 4.9-24 8.3-7.8 3.2-8.8 3.5-9.3 3-.3-.3.9-1.1 2.6-1.7 1.8-.7 3.2-1.6 3.2-2s.8-.8 1.8-.8c2.5 0 22.6-7.6 22.9-8.7.3-.7-18.5-10.7-32.9-17.4-1.5-.8-1.6-.6-.1 2.9.8 2 1.9 4.1 2.4 4.6.5.6.9 1.9.9 3 0 1.2.7 3 1.5 4 .8 1.1 1.5 2.9 1.5 4s-2.4-2.5-5.2-8.1c-2.9-5.5-6.1-11.1-7-12.4l-1.7-2.4-5.3 5.7c-2.9 3.1-12 13.2-20.3 22.4-8.2 9.2-18.2 20.1-22.1 24.1-3.9 4.1-6.7 7.6-6.2 7.9.4.3 5.8-1.5 12-4 6.1-2.5 11.3-4.4 11.4-4.3.2.2-3.6 2-8.4 4.1s-9.5 4.2-10.4 4.7c-1 .5-2.7.9-3.8.9-2.3 0-2.6 1-.8 2.8.9.9.6 1.2-1.3 1.2-1.4 0-2.9-.4-3.5-1-1.5-1.5-39.9-8.8-65.1-12.4-5.6-.8-5.5.3.3 6.8 2.6 2.8 5.7 6.7 6.9 8.7 1.3 1.9 4 5.6 6.2 8.1 6.6 7.9 7.3 8.8 6.4 8.8-.5 0-2.4-1.9-4.3-4.2-1.8-2.4-4-5.2-4.8-6.2s-2.2-2.6-3-3.5-3.3-3.9-5.4-6.6c-4.5-5.7-11.6-12.5-12.9-12.5s-9.3 5-13.2 8.3c-3.2 2.7-3.3 2.9-1.7 4.8.9 1 2.4 1.9 3.4 1.9s1.8.4 1.8 1c0 .5.9 1 2 1 1 0 2.4.8 2.9 1.7 1 2 7.1 5.9 7.1 4.6 0-.4 1.2 1 2.6 3.1 2.5 3.6 2.7 3.7 4.3 2.1 1.5-1.6 1.5-1.8-.3-2.8-1-.7-4.5-3.1-7.7-5.5-3.3-2.3-6.5-4.2-7.2-4.2s-2.2-.7-3.3-1.5c-1.2-.8-2.4-1.2-2.6-.9-.3.2-1.1-.2-1.8-1.1-1.1-1.3-.8-1.5 2.2-1.5 1.8 0 5.1.9 7.3 2 2.1 1.1 4.1 1.7 4.4 1.4s.6-3.4.6-6.9c0-3.8.4-6 .9-5.5s.8 4.1.7 8c-.2 6.5 0 7.2 1.8 7.7 1.2.3 2.1.9 2.1 1.3 0 .5.8 1.1 1.9 1.5 1 .3 4 2.6 6.5 5 4.2 4.1 4.6 5 4.7 9.3 0 5.1 1.2 12.7 2.4 15.4.5 1.3.3 1.8-.9 1.8s-1.6 1.1-1.7 4.2c-.1 4.2-.2 4.2-.9-1.2-.6-3.6-.5-5.9.2-6.8 1.7-1.9-.7-6.6-3.1-5.9-1 .2-2.6 0-3.5-.5-1.6-.9-1.7-.2-1.1 9.4.3 5.7.8 12.2 1.1 14.5.3 2.4.2 4.9-.3 5.5-.4.7-1.2 3.1-1.8 5.3-.8 3.3-1.4 4-3.4 4-1.3 0-2.9.9-3.5 2s-1.7 2.4-2.4 2.8c-.7.5-1 1.2-.8 1.6.3.4-.3 1.7-1.3 2.7-.9 1.1-2.3 2.8-3 3.9-1.1 1.8-1.1 1.8-.5-.5.4-1.4 1.5-3.2 2.6-4.2 1.2-1 1.5-1.9.8-2.3-.5-.3-1-2.2-1-4.1s-.7-6.9-1.6-11c-1.7-8.6-3.2-30.1-2.3-35.4l.5-3.5 1.6 3.5c.9 1.9 3.2 5.2 5.2 7.2 4.2 4.3 4.6 5.5 1.2 3.3-2.3-1.5-2.4-1.5-2 .2.3 1 2.5 4.2 5 7.1l4.4 5.4v-17.6l-4.8-4.6c-2.7-2.5-7.3-7.4-10.3-11-6.9-8.2-6.8-8.2-10.5-10.7-2.6-1.9-3.4-2-5.5-.9-1.3.7-2.3 1.8-2.1 2.4.1.7-.5 1.2-1.3 1.2s-1.9.9-2.5 2c-1.3 2.5-3.5 2.6-3.7.2-.1-1.9 2.7-4.3 10.1-8.3 5.1-2.8 17.4-11.9 17.5-13 .1-.3-8.1-1.1-18.1-1.8-10.1-.6-20.4-1.4-23-1.6-3.4-.4-5-.1-6.2 1-.9.9-1.6 1.2-1.6.6 0-.7-1.1-.9-2.7-.6-2.8.6-2.8.6-.5-.7 2.2-1.4 2.2-1.5-5.5-8.9-4.3-4.1-13-12.1-19.3-17.9-16.9-15.5-39.9-37.2-45-42.4-2.4-2.5-4.7-4.6-5-4.6s-.4 6.8-.2 15.2.1 15-.1 14.8c-.3-.3-.8-6.6-1.1-14-.4-7.4-.8-14.3-.9-15.4-.1-1.6-.7-1.7-4.7-1.2-2.5.4-8.5 1.6-13.4 2.9-8.1 2-9 2.5-9.7 4.9-.4 1.5-1.7 4-3 5.5-1.3 1.7-2 2.1-1.6 1 .7-1.7 1.1-3.5 2.3-9.5.3-1.7 1.1-2.2 3.2-2.1 1.5 0 7-.9 12.2-2.1s10.6-2.3 12-2.4c2.3-.3 2.5-.7 2.5-5.4 0-2.7.3-4.8.8-4.5.4.2.7 1.7.7 3.3 0 2.9 1.9 4.4 5.5 4.2 1.4-.1 1.2.2-.7.9-1.6.6-2.8 1.4-2.8 1.9 0 .9 17.6 18.2 33 32.6 39.1 36.4 43.6 40.3 46.2 40.8 2.5.6 27.6 2 34.8 2 6.9 0 12-1.3 12-3 0-2.1-1.3-4.5-16.9-31.7-20.5-35.9-26.1-45.7-28.9-51.2-3.6-6.9-5.3-8.9-6.4-7.3q-.9 1.35-.3-.9c.3-1.2.2-2.4-.3-2.7s-5.1.9-10.3 2.5c-5.2 1.7-11 3.4-12.9 3.9-12.7 3-21.3 5.3-26.8 7.1-3.5 1.2-6.5 1.9-6.7 1.7-.6-.6 16.5-5.9 36.5-11.4 5.2-1.4 11.8-3.3 14.6-4.2l5.1-1.7-3.3-10.5c-1.9-5.8-3.7-11.2-4.1-12-.3-.8-.7-2.2-.9-3.1-.7-3.4-7.8-23.7-10.1-28.9-2.4-5.5-2.5-5.5-3.6-2.9-.7 1.4-2 3.6-3 5-1 1.3-3.9 5.8-6.5 9.9s-6.8 10.7-9.4 14.5c-9.6 14-22 33-22.7 34.5-1.3 3.1-8.3 13.1-8.8 12.7-.2-.3 1.6-3.8 4.2-7.9 10.5-16.2 24.2-37.3 28.2-43.1 2.4-3.4 6-9.1 8-12.5 2.1-3.5 4.6-7.6 5.5-9 4.2-6.5 4.3-6.3-2.5-3.7-3.5 1.3-8.3 3.2-10.8 4.4-2.4 1.1-7.1 3-10.4 4.2-3.3 1.3-6.4 2.6-7 3-.5.3-2.8 1.2-5 1.9s-6.8 2.6-10.2 4.1c-5.9 2.7-6.3 3.2-6.2 6.2 0 1.7.4 4 .8 5 .6 1.7.8 1.7 2 .3 1.6-2 4.5-2.1 6-.2 1.3 1.6.1 2.8-4.3 4.3l-2.9.9.2 8c.1 4.3.5 11.4.9 15.6.5 4.2.5 8.5.1 9.4-.3 1-.9-2.9-1.3-8.6-.9-15.2-2.7-30.4-3.6-31.3-.4-.5-1.7 2-2.8 5.5-3.3 10.2-9.8 27.9-12.1 33.1-1.1 2.7-2.4 6.1-2.8 7.5-.9 3.6-4.3 11-4.3 9.5 0-.7 4.1-12.2 9.1-25.5 8.5-22.7 10.7-29.8 9.2-29.8-.4 0-1.5.8-2.6 1.7-2.6 2.2-1.3 0 2.1-3.8 3-3.5 9.2-13 9.2-14.4 0-.5.4-.3 1 .5.5.8 1.1 1.2 1.4 1 7-6.6 34.6-34.6 34.6-35.2 0-.4.4-.8.8-.8s3.7-2 7.2-4.5l6.5-4.6-4.5 4.1c-2.9 2.7-3.8 4-2.5 3.6 1.1-.3 3.4-.8 5-1.1 2.8-.5 2.8-.4-.5.9-1.9.8-4.7 1.5-6.2 1.5-3.2.1-3.5 1.6-1 4.5 1.7 2.1 1.7 2.1-.4.3-1.1-.9-2.5-1.7-3-1.7s-9.7 8.6-20.4 19.1c-12 11.8-18.5 18.8-17 18.4 1.4-.4 13.1-5 26-10.2 26.7-10.8 27.5-11.2 52.4-29.3 5.7-4.1 13.1-9.5 16.4-11.9 3.4-2.4 5.9-4.7 5.7-5.1-.3-.4.6-1.1 2-1.4 1.4-.4 2.5-1.4 2.6-2.4 0-1 .3-1.2.6-.5.2.7 1.3 1.3 2.4 1.3s1.6.5 1.3 1.3c-.3.9 3.1 4.2 8.8 8.8 5.1 4 10.2 8.2 11.3 9.2s3.6 2.8 5.5 3.9c1.9 1.2 4.9 3.4 6.6 5 2.6 2.5 3.3 2.7 4.3 1.4 1.1-1.3 3.8-6.1 15.6-27.6 2.8-5.2 5.8-10.5 6.5-11.7.8-1.2 1.2-2.4.9-2.7s-13.1 2.4-28.4 6c-15.2 3.5-28.3 6.3-28.9 6.1s3.4-1.4 8.9-2.7c21.6-4.9 42.9-10.2 46.3-11.5 2.1-.7 6.6-1.6 10.2-2 3.6-.3 9.2-1.2 12.5-1.9 6.3-1.4 10.5-1.9 10.5-1.2m410.6 8.8-3.9 2 10.4 5c5.7 2.8 15.4 7.2 21.4 9.8 29.3 12.8 36.3 15.9 40.3 17.9 2.4 1.2 4.6 2 4.8 1.8.4-.4-1.9-4.7-13.2-24.5-1.4-2.3-2.3-4.2-2-4.2.6 0 10.4 15.9 15 24.3 3.5 6.3 4.8 7.3 11.1 8.6l5 1-4.7-.3c-2.7-.2-4.8 0-4.8.5 0 .4 4.6 8.3 10.1 17.6 18 29.8 33.6 56.7 34.4 59.2.5 1.5 1 2 1.7 1.3s.9-11.1.7-29.6c-.3-15.7-.1-28.6.3-28.6.9 0 1.4 22.3 1.1 46.8l-.2 15.3 11.1 11.2c11.4 11.6 11.3 11.6 9 2.5-.6-2.1-.6-3.6-.2-3.3.5.3 1.1 1.9 1.5 3.5.9 4.2 2.5 4.7 2.6.8.1-6.2 1-12.3 2-13.3.7-.7.8-.5.5.5-.3.8-.7 5.3-1 10-.2 4.7-.7 9.2-1 10-.9 2.3.5 3.4 6.7 5.4 3.2.9 5.7 1.9 5.5 2.1-.2.3-2.6-.2-5.3-1-6.6-2-7.5-1.9-6.9.7.2 1.3.7 5.9 1 10.3.4 4.4 1 8.4 1.4 9 .9 1.2 2.4 22.3 1.6 21.4-.3-.3-.9-2.6-1.2-5s-.9-7.6-1.4-11.4c-.6-3.9-1.2-9.7-1.5-12.9-.5-6.7-1.2-8-2-4.2-1.4 6.8-1.8 8-2.2 6.9-.2-.7.3-3.7 1.1-6.7.9-3 1.6-6.5 1.6-7.9 0-2.2-.5-2.6-4.7-3.1-27.3-3.3-32.5-3.8-33-3.2-.4.4.5 5.3 2 10.9 3.9 15 4 15.6 1.9 10.5-1.1-2.6-2.6-7.1-3.3-10l-1.3-5.3-.7 4.5c-.4 2.5-1 16-1.4 30s-.9 25.7-1.1 25.9-.4-1.7-.4-4.2c0-2.6-.2-4.7-.5-4.7-.2 0-3.6 2-7.4 4.5s-7.4 4.5-7.9 4.5-1.5.7-2.2 1.5c-1 1.2-.8 2.2 1.5 5.2l2.6 3.8-3-3.5c-3.5-3.9-5.1-3.3-5.7 2.2-.2 1.8-1.1 5.5-2 8.2-1.4 4-1.4 5-.3 5.7 1.5.9 21.4.7 22.3-.2.4-.3 1-4.6 1.6-9.5l.9-8.9-.4 9.1c-.3 5-.2 9.4.1 9.6.6.7 6.1-1.9 6.9-3.1.2-.5 4.1-2.3 8.5-4.1s8.3-3.7 8.6-4.2c.4-.6-2-3.5-5.2-6.6-4.2-4-4.8-4.7-1.9-2.6 2.2 1.7 5.2 3.7 6.6 4.6 2.6 1.7 2.6 1.7 3.7-2 .6-2 2.4-9.6 4.1-16.7 1.6-7.2 4-17.4 5.3-22.8 1.2-5.5 2.4-9.4 2.6-8.8.2.5-1.1 7.2-2.8 14.8-4.4 18.9-6 26.1-6.9 31-.8 4.1-.8 4.2 1.3 3.1 1.1-.6 5.8-4.1 10.4-7.7l8.3-6.6-.5-4.5c-.2-2.5-.2-3.7 0-2.8.9 3 2.3 2 2.9-2 .4-2 1-4.6 1.3-5.7.4-1.1.7-3.4.8-5 .1-1.7 1.2-8 2.3-14 1.4-7.1 2-12.9 1.6-16.5-.7-7.9-9.6-43.1-10.6-42.4-.5.3-.9-1.8-.9-4.6s-.7-6.6-1.4-8.5c-.8-1.9-1.3-3.5-1-3.5 1.5 0 3.2 6.4 17.4 65 2.3 9.6 4.9 19 5.6 20.9 1 2.3 1.1 3.8.5 4.4-1.2 1.2-1.4.7-3.5-8.9-1.4-6.2-4.3-14.8-4.6-13.4-.1.3-.4 1.8-.6 3.5-.3 1.6-.9 5.4-1.4 8.3-.5 2.8-.7 5.9-.4 6.7.4.8.2 2.1-.4 2.8s-1.7 3.9-2.5 7.2c-.9 3.3-1.8 7.1-2.2 8.5-.6 2.1 0 1.8 3.9-2.2l4.6-4.7.2-11.3.2-11.3.5 10.5.6 10.5 1.7-3c1.1-2 1.7-2.4 1.8-1.3 0 .9-.4 2-1 2.3-1.7 1.1-1.1 4.7 1.3 7.9 3.7 4.9 4.3 6.3 1.9 4.2-1.2-1-2.4-2.8-2.8-3.9-.5-1.6-.8-1.7-1.5-.6-1.1 1.8-1.2 19.9 0 19.9.4 0 2.8-1.5 5.3-3.4 3.9-3 4.4-3.8 4.1-6.8-.2-2.7-.1-2.9.6-1.3 1.4 2.9 1.3 7.5-.1 7.5-1.3 0-8 4.3-11.5 7.4-1.3 1.1-2.3 2.9-2.3 4.2 0 1.2-.6 2.7-1.4 3.3-1.6 1.3-2.7 5.9-1.6 6.6 1 .6 14.5-15.4 15.4-18.3.4-1.2 1.1-2.2 1.6-2.2s.4 1.3-.1 3c-.6 1.6-1.4 3-1.8 3-1.1 0-11.4 15.1-10.7 15.7.3.4-.1 1.4-.9 2.3-1.4 1.5-1.1 1.6 2.6 1.1 3.9-.6 4.2-.9 5.9-5.6 1-2.8 2.1-6.7 2.5-8.9.3-2.1.9-3.6 1.1-3.3 1 1-1.9 17.3-3.9 21.7-1.1 2.5-2 4.9-1.9 5.5.1.5.4 3.2.8 6 1.1 7.5.6 13.7-1.3 18.1-.9 2.1-1.7 4.3-1.7 4.7-.1.4-.7 1.1-1.4 1.6-1.9 1.2-2.3 4.8-1.2 14.1 1.9 15.9 2.3 22.8 1.5 29.5-.7 7.2-1.5 8-1.8 1.9-.3-3.7-.4-3.8-5.5-4.9-2.9-.7-5.2-.9-5.2-.6.1 1.7 3.3 9.8 4.9 12 1 1.4 2.2 4.1 2.6 5.9.3 1.8 1.1 3 1.6 2.6.5-.3.9.1.9.9s.9 4.3 2 7.7c2.4 7.5 2.4 7.1.5 6.4-.8-.4-3.5-.3-6 0-3.8.6-4.4 1.1-4.8 3.4-.4 2.6-.5 2.6-1.2.5-.4-1.3-1.3-1.9-2.1-1.6-1 .4-1.4 2.3-1.4 6.9v6.4h3.6c4.2 0 7.8-3.5 10.6-10.2.9-2.4 1.7-3.5 1.7-2.5.1 1-1 4-2.4 6.8-2.6 5.1-5.3 6.9-10.9 7.6-1.7.2-3.4.9-3.9 1.6-.7.9-1 .9-1.4-.1-.2-.6-2.1-1.3-4.1-1.3l-3.7-.1 3.8-.8c2-.4 3.9-.9 4.2-1.1.6-.7.9-10.8.3-11.4-.3-.4-3.7 1.3-7.4 3.6-3.8 2.3-8.5 4.9-10.4 5.7l-3.5 1.6 3 .6c2.4.5 1.6.8-4 1.4-11.3 1.1-20.5 2.9-20.5 3.8 0 .5 1 1.3 2.3 1.8 1.2.5 4.1 1.6 6.3 2.6l4.2 1.7.7 12.3c.7 12.3 1.7 14.9 2.9 7.7 1.6-9.7 3.1-15.3 4.2-15.7.7-.3 1 .2.7 1.4-.7 2.5 2.8 11 4.5 11 .6 0 1.2.3 1.2.7 0 .5.9 1.9 2 3.3l1.9 2.5-.4-4.5c-.2-2.5-1.5-7.5-2.9-11.3-1.3-3.7-2.1-6.5-1.6-6.2s1.5-.2 2.3-1c1.3-1.3 1.6-.9 2.2 3.6.4 2.8 1.6 7.9 2.6 11.3l1.9 6.1-.4-12c-.6-13.8.8-13.8 2.1.1l.9 8.9 3.1-6.5c1.6-3.6 3.6-8 4.3-9.8 2.2-5.6 2-3-.5 7.8-1.4 5.8-3 14.8-3.6 20-.7 5.2-1.6 10.4-2 11.5-.7 1.5-.8 1.2-.3-1.2.3-1.7.1-3.4-.5-3.8-.6-.3-1.1-1.7-1.1-3.1 0-3.4-1.6-3-2.3.6-.4 1.6-1.1 3-1.7 3s-.8-1-.4-2.5c.7-2.7-.3-8.1-1.3-7.1-.3.3-1.5-1.1-2.5-3.2-1.1-2-2.7-4.4-3.5-5.2-1.4-1.3-1.5-1.1-.9 2 .6 4 3.1 14.3 4.2 17.8.6 2.1.4 2.2-2.2 1.6-1.6-.4-4.2-1.8-5.9-3.2s-3.1-2-3.3-1.3c-.2.6-.9 1.1-1.6 1.1-.6 0-2.7 1.1-4.6 2.4-5.7 3.9-20.1 11.6-21.6 11.6-.8 0-1.4-.4-1.4-.9s-2.9-3.2-6.4-6c-3.6-2.7-8-6.6-9.9-8.5l-3.5-3.5-6.9 8.7c-3.8 4.8-7.2 9.5-7.5 10.4-1 2.4 2 3.1 10 2.5 4.6-.4 5.6-.3 3.4.2-1.8.5-3.5 1.1-3.8 1.4-.9.9 21.1 2.8 36.9 3.2l15.8.4 5.9-5.9c3.4-3.4 6-5.4 6.3-4.7.4.9.7.9 1.8 0 2-1.9 3.1-1.6 2.4.7-.6 1.8-.3 1.8 2.1-.5 3.3-3.1 3.7-2.8 2.2 1.3-.8 2.1-1.7 3.1-2.7 2.7-.7-.3-1.9 0-2.7.5-1 .9-1 1.7.2 4.5.8 1.9 1.4 5.4 1.4 7.9s.5 4.6 1.2 4.8c.8.3.7 1.1-.5 2.8l-1.7 2.4-.2-2.9c0-1.7 0-4.2.1-5.7s-.8-4.2-2-6.1l-2.3-3.4-3.8 2.6-3.8 2.6.5 7.5c.2 4.1.2 6.5-.1 5.2-.3-1.2-.9-2.2-1.3-2.2s-.7-2.1-.7-4.8c.1-4.3-.1-4.7-2.4-5-3.1-.3-16.5 11.3-14 12.2 4.1 1.5 14.2 3.6 17.1 3.6 2.3 0 3 .3 2.2 1.1-.7.7-3.5.4-9.4-.9-7.5-1.7-19.8-4-30-5.7-2.8-.4-4.4 0-7.2 2-2.1 1.3-3.7 2-3.7 1.4 0-.5 1.6-1.9 3.5-3 1.9-1.2 3.5-2.4 3.5-2.8s-2.8-2.1-6.2-3.7c-3.5-1.6-9.4-4.6-13.2-6.6-3.7-2.1-7.2-3.6-7.6-3.3-.4.2-1.8-.4-3-1.5-1.7-1.5-2.1-2.3-1.3-3.1s.7-2.1-.3-4.5c-1.8-4.3-1.8-6.9 0-2.9.8 1.6 1.7 3.9 2 4.9.6 1.6 1.5.9 6.4-4.4 10.4-11.5 13.1-16 9.8-16-.8 0-1.8-.5-2.2-1.1-.5-.9.1-1 2.1-.5 2.5.6 2.7.5 2.3-1.8-.3-1.4-.1-2.3.4-2 1.6 1 6.8-13.3 5.2-14.5-1.3-.9-9.4-11.9-9.4-12.7 0-.9 4 3.4 7.7 8.2l2.8 3.7 1.7-3.9c2.7-6.2 3.3-12 1.4-14-1-.9-1.4-1.9-1.1-2.3.4-.3 1.3.3 2.1 1.3.7 1.1 1.5 1.8 1.7 1.5 1.7-1.9 9.1-29.5 10-37.3l.5-3.9-4 4.7c-2.2 2.6-7.1 9.1-10.9 14.4s-8.4 11.4-10.1 13.6c-5.1 6-5.9 7.9-4.7 11.5 1.6 4.7.4 6.1-1.5 1.7l-1.6-3.9-9.8 10.3c-5.3 5.7-9.8 10.8-10 11.5s2.1 2.2 5 3.4 6.7 2.9 8.3 3.8c1.7.9 4.7 2.5 6.8 3.6s3.6 2.2 3.3 2.4c-.2.3-5.8-2.1-12.3-5.2-6.5-3.2-12.2-5.8-12.8-5.9-2.3-.4-3.5-1.9-3.5-4.4v-2.6l1.5 2.2c1.6 2.1 1.7 2 11.3-8.4 5.3-5.8 10.4-12.1 11.3-14.1s1.9-2.9 2.1-2.2c.6 1.7 14.5-15.9 29-36.9 1.3-1.8 3.1-4.2 4.1-5.4.9-1.1 1.7-2.4 1.7-2.9 0-.9-10.2-2.7-20.7-3.5l-8.2-.7-.7 4.1c-.4 2.3-1 3.9-1.4 3.7-.5-.3-.6-1.5-.3-2.8.4-1.8 0-1.6-2.6 1.3-1.7 1.9-5.9 7.2-9.3 11.7-5.6 7.5-8.7 10.4-7.5 7 .2-.6-1.3-4.7-3.4-8.9-2.2-4.3-3.9-8.3-3.9-9s1.8 2.5 4.1 7c2.2 4.5 4.4 8.2 4.9 8.2s2.5-2.4 4.6-5.3c2.1-2.8 5.5-7.3 7.6-9.8 4.4-5.2 4.9-7.4 1.6-6.6-1.3.3-6.8 1.1-12.3 1.8s-10.3 1.7-10.7 2.3-1.1.6-2 0c-1.8-1.5-18.9-4.7-25.3-4.9-.5 0-1.3-.3-1.6-.8-.6-.8-20.7-6-27.8-7.2-4.6-.8-4.7-.4-1.2 4 .9 1.1-.4.3-2.7-1.8-3-2.6-4.9-3.6-6-3.2-3.2 1.3-17.5 4.5-18 4.1-.2-.3.6-.7 1.9-1.1 1.3-.3 5.3-1.1 8.8-1.9 6.1-1.4 7.9-2.2 7-3-4.6-4-36.9-24.5-39.3-24.9-.6-.1-1 1.1-.8 2.8.2 2.3 0 2.6-.8 1.5-.5-.8-1-2.4-1-3.5 0-1.8-2.8-5.2-5.5-6.5-.5-.3-9.3-6.1-19.5-13-10.1-6.9-19.4-13-20.6-13.5-2.4-1.1-18.9-19.3-18.2-20.1.3-.2 4 3.6 8.3 8.6 4.4 4.9 8.5 9 9.2 9s2.2 1.1 3.5 2.3c1.3 1.3 4.6 3.7 7.3 5.2 2.8 1.6 11 6.9 18.4 11.9s14.1 9.5 14.9 10c1.2.7 1.3-1.1.8-12-1-19.5-1.9-29.1-2.8-29.9-.2-.2-5.6-2.4-12.1-5s-11.6-4.9-11.4-5.1c.2-.3 5.7 1.6 12.2 4.1s12.1 4.2 12.6 3.8c.4-.4.9-1.7 1.2-2.8.4-1.8.5-1.8.6.2 0 1.3.3 2.3.7 2.3.7 0 7.7-3.9 23.9-13.4 7.2-4.2 14.5-8.2 16.3-8.8 4.1-1.5 4.1-3.7.3-11.5-1.6-3.2-7.5-15.3-13.1-26.8-20.1-41.7-22.5-46.5-23.7-46.5-.7 0-1.4-.7-1.4-1.5-.1-.8-.2-2.1-.3-2.8 0-.6-1.2-1.3-2.6-1.5-4-.5-59.4-10-71.1-12.2-11.6-2.2-17.9-2.5-17.9-1 0 .6-.6.5-1.4-.2-1.6-1.5-1-3.8 1-3.8.7 0 2.1-1.2 3.1-2.8.9-1.5 4.1-6 7-9.9 2.9-4 5.3-7.5 5.3-7.8s2.4-3.8 5.3-7.8c4.9-6.6 9.3-13.1 18.9-27.6l3.7-5.6-4.2-.6-4.2-.6 4.3-.1c2.3-.1 4.2-.5 4.2-1 0-.4-2.7-5.4-6-11.1s-5.8-10.6-5.6-10.8 1.6 1.8 3.1 4.4c5.9 10.2 10 16.3 11.2 16.3 2.2 0 46.1-19 48.7-21.2.6-.4-1.9-.9-5.5-1-13.5-.3-17.5-.7-20.4-1.5l-3-1 3.9-.7c2.1-.4 4.7-1.3 5.8-1.9 1.6-1 2.2-.8 3.6 1s3.2 2.4 9.7 3.1c10.1 1.1 12.3.9 21.5-1.8 11.4-3.4 32.4-10.2 33-10.7.2-.2-.2-.8-.9-1.2-.8-.5.4-.7 3-.4 3 .3 5 0 6.4-1.1 1.1-.8 2.9-1.5 4-1.5 1.4 0 .8.6-1.9 2.1m100.9 27.5c1.7 1.3 3.5 2.7 4 3.1.6.4 3 2.2 5.5 3.9s6.7 5.1 9.4 7.6c2.7 2.6 5.3 4.4 5.7 4.1.4-.2 1 .5 1.4 1.6.3 1.1 2.2 3.8 4.1 6.1 1.9 2.2 3.4 5.1 3.4 6.3s.4 2.6.8 3.1c1.9 2.2 6.2 10.5 5.5 10.5-.5 0-1.6-1.5-2.6-3.3-2.2-4-6.5-9.2-7.2-8.5-.4.4 0 2.6 4.5 20.8 1.2 4.7 2.5 10.3 3 12.5s1.4 5.3 2 7c.6 1.6 2 7.3 3.1 12.5s2.4 11 3 12.8.9 3.8.6 4.5c-.6 1.8-1.6-1.9-15.3-59.3-1.4-5.8-3.1-11.9-3.9-13.5-.7-1.7-1.6-4.7-2-6.8-.5-3.1-1-3.7-3-3.7-1.3 0-2.6.6-2.8 1.2-.3.8-.6.6-.6-.4-.1-1.1-1.4-2.1-3.3-2.7l-3.3-1 3.4.2c1.9.1 3.6-.3 3.8-.9.2-.7-4.9-5.3-11.4-10.4-10.9-8.6-18.1-14.8-12.8-11 1.1.8 3.4 2.5 5 3.7m-750.6 170c.1 2.3.8 6.2 1.6 8.7.9 2.5 1.4 5.1 1.3 5.8-.2.7.3 1.2 1 1 1.5-.3 1.6 1.4.1 2.3-1.5 1-.9 1.8 5.1 6.7 11.1 8.9 28 20 28.5 18.6.3-.7.6-7.2.8-14.3l.3-13 .2 14.7c.1 8.2.4 14.8.7 14.8.2 0 4.4-1.8 9.2-4.1 15-7 38.6-16.9 39.1-16.4.3.3-1.2 1.2-3.4 2.1-13.1 5.3-26.6 11.3-35.6 15.8l-10.3 5.3-.7 4.9c-.7 5.5-3.2 18.9-5.2 27.9-.7 3.3-1.2 6.1-1.1 6.3.1.1 5.1-2.8 11.1-6.6s15.1-9.6 20.2-12.8c5.2-3.3 12.2-8.4 15.5-11.4 5.5-4.9 5.8-5.1 2.9-1.5-1.8 2.2-2.8 4.1-2.3 4.3s5.5-.9 11.1-2.3 10.4-2.4 10.6-2.2c.3.2-2.6 1.2-6.3 2.2-8.8 2.3-16.3 4.6-16.3 5.1 0 .2 3.4 4.5 7.6 9.6s11.8 14.6 17 21.1c5.2 6.4 11.3 13.6 13.4 15.9 3.9 4 4.9 5.8 3.2 5.8-.4 0-1.3-.5-1.9-1.1-1-1-31-9.1-53.8-14.5-6-1.4-15.7-3.9-21.4-5.4-5.7-1.6-10.7-2.7-11.1-2.5-.4.3-1.8 6.6-3.1 14.2s-2.5 12.4-2.7 10.7c-.2-1.6.6-7.2 1.7-12.3 1.2-5.2 1.8-9.7 1.5-10.2-.6-1-9.2 5.3-19.2 13.9-3.4 3-6.5 5.3-6.8 5-.2-.3 1.2-1.8 3.3-3.4 6.3-4.8 7.7-6.5 6.2-7.5-.7-.4-1-1.1-.6-1.6.5-.4 1.2-.1 1.7.7.7 1.1 2.3.2 7.9-4 3.9-3 7.1-6.1 7.1-7s-2.7-4.5-6-8.1c-3.3-3.5-6.7-7.6-7.6-9s-2.4-3.1-3.4-3.7c-1.6-.9-1.9-.2-3.4 7.7-1 4.9-2.4 10.8-3.2 13.2l-1.4 4.4.6-5.5c.4-3 1.1-6.3 1.6-7.3s1.1-4.5 1.3-7.8c.3-3.4.8-6.5 1.1-7 .6-1-4.2-3.3-9.3-4.4l-3.2-.6.6 3.6c.6 3.7-1.3 14.2-2.9 16-.4.5-.8 1.8-.9 3 0 2 0 2-.8 0-.5-1.1-.7-2.3-.4-2.8.2-.4 0-.7-.6-.7-.5 0-1.4.7-1.9 1.6-1.2 2.1-2.4.4-4.1-5.6-.7-2.5-1.7-5.5-2.2-6.8-.5-1.2-.6-4.8-.3-8 .6-5-.2-10.5-2.3-16-.6-1.6-.6-1.6 1 0 .9.9 1.7 2.1 1.7 2.6 0 1 7.5 8.2 8.5 8.2.3 0 .3-1.2 0-2.8q-.6-2.7.3-.9c.4 1 1.2 1.8 1.7 1.7.6-.1 1.2.9 1.5 2.2.5 1.7 2 2.7 7 4.4l6.5 2.1.4-2.6.4-2.6.6 2.7.6 2.8 13.5-8.1c7.4-4.5 13.7-8.3 13.9-8.4.1-.2-1.5-1.6-3.8-3.2-2.2-1.5-9.7-7-16.6-12.1-6.8-5-12.7-9.2-13-9.2s-.5.7-.5 1.6c0 .8-.4 1.2-1 .9-.5-.3-1-1.5-1-2.6s-.7-1.9-1.6-1.9c-.8 0-1.2-.5-.9-1 .4-.6-1.1-3-3.2-5.4s-4.5-5.4-5.4-6.7c-1.4-2-1.9-2.2-3.3-1-.9.8-1.6.9-1.6.3s.4-1.3 1-1.7c1.3-.8.1-3.5-2.7-6.4-1.3-1.3-2.3-2.7-2.3-3.2 0-1.3 8.6 8.3 10.4 11.6 2.2 4.1 8.5 11 9.3 10.2.3-.4-.1-4.9-1-10-1.8-10-2.2-18.5-.7-13.7.4 1.4.8 4.4.9 6.7m120.2 35.9c.6.8 1.7 1.4 2.5 1.4 1.9 0 3.3 3 3.7 8.2.2 2.5.8 5.1 1.2 5.8.5.9.4 1.1-.4.6-.6-.4-1.5.2-2.1 1.6-1 2.2-1 2.2-.5-.3.2-1.4.2-2.8 0-3.1-.3-.3-4.9.5-10.3 1.8-10.6 2.6-15.2 3.1-8.4.9 7.8-2.4 7.7-2.3 5.1-4.4-2.8-2.3-3.3-5-1.1-7.4.9-1.1 1.7-2.2 1.6-2.6-.1-.3.5-1.5 1.3-2.7 1.5-2.3 5.4-2.2 7.4.2m170.6 31.7c.7.5 1.8 2.6 2.4 4.6 1.6 5.5-.2 11.1-4.3 13.5-1.8 1.1-3.5 1.9-3.8 1.9-.3-.1-2.2-.4-4.2-.8l-3.7-.7.4 3.3.5 3.4-2.5-4.3c-3.6-6.4-6.6-13.4-6-14.1.4-.3 1 .1 1.4.8.7 1 1 .9 1.6-.8.3-1.1 1-2.1 1.5-2.1s.7-.7.4-1.5c-.4-.9 0-1.5 1-1.5.9 0 1.6-.6 1.6-1.4s1-1.6 2.3-1.9c3.1-.6 9.9.4 11.4 1.6M661 397c.5-.8 1.2-3.6 1.5-6.2.4-2.6 1.1-5 1.5-5.3 1.1-.7.2 7.2-1.1 9.6-.5 1-.9 2-.9 2.2 0 .8 13 6.7 14.6 6.7.8 0 1.4-.4 1.4-.9 0-1.5 5.6.7 7.7 3.1 1.8 2 1.8 2-1.4 1.3-3.8-.8-3.9-.5-1.8 3.5 1.6 3 2.7 4 2.3 1.8-.4-1.4 3.9-2.7 6.8-2.1 1.9.4 2.1.1 1.6-2.2-.4-2.5-.3-2.6 1.7-1.4 1.1.8 2.1 2.1 2.1 2.9.1 1.2.3 1.2 1.4-.2 1.2-1.7 1.4-1.7 3.2.3 1.2 1.3 2.6 1.8 4 1.5 3.6-.9 3.8 2.2.4 7.3-3.4 5.3-3.9 4.8-1-.9 1.1-2.2 1.9-4 1.7-4s-5.6 1.7-12 3.8l-11.5 3.9-4.9-1.9c-5.8-2.2-6.3-2.2-6.3-.4 0 1.4-2.1 2.6-4.3 2.6-.7-.1-.1-1 1.3-2.1l2.5-2.1-3.5-2.9c-3.5-3-3.1-4 .7-1.4 1.1.8 3.9 1.7 6.3 2.1s4.6 1.5 5.3 2.5c1.4 2.3 2.7 2.5 2.7.4 0-.8-.5-1.5-1.1-1.5-.5 0-.8-.4-.5-.9.9-1.4-3.3-8.9-5.4-9.6-1.1-.3-2.6-1.2-3.2-1.9-1.6-1.4-11.1-5.6-13-5.6-1.3 0-14.8-14.2-14.8-15.5 0-.3 3.4 2.9 7.6 7.1 5.7 5.8 7.8 7.4 8.4 6.4m-460.7 17.7c0 .4.7 3.5 1.4 6.8 1.7 7.2 3.1 14.7 3.8 19.6.2 1.9 1.3 6.4 2.5 10 1.1 3.5 2 7.2 2 8.1 0 1 .4 1.8 1 1.8.5 0 .8 1.7.6 3.7-.2 2.1.6 7.6 1.7 12.2 1.4 6.1 1.6 8.5.8 9.1-.7.4-.9 1.5-.5 2.5.5 1.3.4 1.6-.4 1.1-.7-.4-1.2-.3-1.2.2 0 .6.7 1.2 1.5 1.6.8.3 1.5 1.1 1.4 1.8q0 1.5-.6 0c-.2-.6-.9-1.2-1.5-1.2-1.6 0-.3 9.9 2 15 1.1 2.5 2.8 7 3.7 10.1s2.2 6.4 2.9 7.5c.7 1 1.5 2.8 1.9 3.9.3 1.1 1 3.5 1.6 5.3.6 1.9.6 3 0 2.7-.5-.4-.9-1-.9-1.5 0-1.3-3.8-11.2-5-13-.9-1.3-1.1-1.3-2 0-.8 1.2-1 1-1-1 0-3-1.7-5-4.1-5-.9 0-1.9-1.1-2.3-2.4-1-4.1-.5-16.7 1-25.9 1.7-10 .8-17.8-2.7-21.8-2.3-2.7-2.4-3.3-.4-2.5.8.3 1.5.2 1.5-.2-.1-1.7-1.8-3-6.1-4.6-3.2-1.2-5.8-3.3-8.9-7.2-2.3-3-4.5-5.4-4.7-5.4s-.1 1.2.2 2.7c.5 2.8.5 2.8-.5.4-2.4-5.6-.5-5.6 4.7-.2l5.1 5.5 2.8-1.9 2.9-1.8-2.3 2.5-2.2 2.4 3.5 1.7c2 .9 3.8 1.7 4.1 1.7.7 0-.6-6.6-2.1-11-1-2.9-1.9-3.7-5.6-4.7l-4.4-1.2 4.3.5c3.7.5 4.2.4 4.2-1.5 0-2.2-2-12.1-2.5-12.1-.7 0-11.5 10.4-11.5 11.1 0 .4.8 1 1.8 1.2.9.3.2.5-1.5.6-3 .1-3.2-.1-2.4-2.2 5-12.5 8.4-20.4 9.2-21.2 1.1-1.1.1 2-3 8.8-1 2.3-2.2 5.3-2.6 6.7l-.7 2.5 2.8-2.5c5.8-4.9 6.4-6 6.4-11.5 0-3.2-.5-5.5-1.2-5.7-.7-.3-.9-1.2-.5-2.3.7-1.7 1.8-1.6 2 .2M902 564.5c.8.6 7.1 3.3 14 5.9s15 5.8 18 7.1 7.3 2.8 9.5 3.5 4.6 1.8 5.4 2.4c1.1.8 1.5.8 1.9-.3s.6-1.1 1.3 0c.8 1.1 1.2 1.1 2.3-.4 1-1.3 1.5-1.5 1.8-.5.3.9 2.2.2 6.1-2.5 3.1-2 5.9-3.7 6.2-3.7.6 0 13.2-8.6 15.6-10.7 1.8-1.5 3.3-1.7 2.4-.3-.6.9-15.6 11-23.8 15.9-2 1.3-3.5 2.6-3.3 2.9.4.6 12.7 0 20.1-1.1 13.5-1.9 13.5-1.9 13.5-3.8 0-1 .5-1.9 1-1.9.6 0 1 .3 1 .6 0 2.1-3.4 13.3-4.7 15.2-.8 1.3-2.7 5.3-4.2 8.8-2.6 6-3.2 6.7-11.2 11.9-4.6 3-13 8-18.6 11.2s-10.2 6.1-10.3 6.5c0 .3.8.9 1.8 1.1 1.5.4 1.5.5 0 .6-.9 0-2-.4-2.3-.9-.3-.6-1.8-1-3.3-1-2.1 0-2.4-.2-1.2-1 .8-.5 1.1-1 .5-1.1-.5 0-.1-.4 1-.8 1.1-.5 2.3-.4 2.6.1.4.6 4.1-.9 8.5-3.2 8.7-4.8 27.4-17 27.3-17.9-.1-.8-9.7-8.5-18.4-14.8-5-3.5-11.9-6.9-24-11.7-9.3-3.7-18.5-7.4-20.3-8.2s-4.1-1.4-5-1.4c-1 0-3.6-.9-5.7-2.1-2.2-1.1-5.3-2.1-7-2.2-2.3-.2-3-.7-3-2.3 0-2.2 1.6-2.2 4.5.1m301 109.9c0 1.3 2.7 3.1 4.1 2.8.4-.1.5.8.2 1.9-.6 2.2 1.4 9.8 3 11.4.7.7.8.4.4-.8-.4-1-.1-1.7.6-1.7s2.3-3.4 3.6-7.5c1.9-5.6 2.9-7.5 4.3-7.5 1.6 0 1.4.9-1.6 9.2-4 11.4-5 15.8-3.3 15.4.7-.1.9-.1.5.1-1.2.7-.9 3.1.4 3.9.8.5.9.1.4-1.2-.5-1.4-.4-1.6.5-.7.6.6.8 1.6.5 2.2-.9 1.5-3.3.3-3.9-2-.3-1.1-1.4-1.9-2.5-1.9-1.6 0-2.5-1.3-4-5.8-1.1-3.1-3.1-8.7-4.5-12.5-2.5-6.4-2.5-6.7-.7-6.7 1.1 0 2 .6 2 1.4m26.6 6.2c2.6 0 4.7.6 5.8 1.7 1 .9 2.3 1.7 3 1.7.8 0 1.9.7 2.7 1.6 1.1 1.3 1.5 1.2 3.6-1.5 3.2-4.1 7.3-4.8 12.6-2.1s8.7 5.9 8.7 7.9c0 1.4-.2 1.4-1.1.1-.8-1.2-.9-.8-.5 1.5l.5 3-1.2-2.8c-1.4-3.5-2.4-3.4-3.2.2-.7 3.3-6 8.5-7.7 7.5-.7-.4-.8-.3-.4.4 1.1 1.8 6.9.3 9.4-2.5 1.2-1.3 2.2-2.1 2.2-1.7 0 1.8-4.6 5.4-6.9 5.5-2.5.1-2.5.2.4.9 2.5.6 2.6.8.7.9-3 .1-5.6-1.2-11.3-6-4-3.3-4.9-3.7-7.5-2.9-1.6.4-2.5.9-2 .9.4.1-.2 1-1.5 2-3 2.4-1.8 3.8 1.8 2.2 2.7-1.1 2.7-1 .8.4-1.3 1-3 1.4-4.8 1.1q-2.85-.6-2.1.6c.9 1.4-1 .3-5.8-3.5-2.1-1.6-3.8-3.5-3.8-4.2s-.9-1.5-2-1.8-2-1.1-2-1.9c0-1 .2-1 .8 0 1.1 1.6 3.3-5.2 2.5-7.6-.4-1.5-.3-1.5.6-.2s1.2 1.1 1.7-.8c.4-1.3 1-2 1.3-1.5s2.4.9 4.7.9"/><path d="M427 88.9c0 .5-2 4.4-4.5 8.5-2.5 4.2-4.5 7.9-4.5 8.2 0 .4-1.5 3.2-3.4 6.3-3.5 5.8-9.6 17.4-9.6 18.4 0 .7 10.4-1.7 14.5-3.3 3.9-1.6 37.8-13.3 47.9-16.6l7.8-2.6-2.8-1.5c-1.6-.8-7.8-3.5-13.9-6-6-2.5-15.1-6.3-20.1-8.4-9.5-4-11.4-4.5-11.4-3M356.2 107.2c-4.5 3.5-5 4.2-3.6 5.2 1.4 1.1 1.4 1.3-.1 2.6-1.5 1.2-1.9 1.2-3.1-.4-1.2-1.7-1.7-1.5-8.6 3.6-17.9 13.4-23.4 17.4-25.3 18.6-1.6 1 .2 1.1 10.5.7 16.9-.7 44.1-2.4 57.5-3.6 6.1-.5 11.9-.9 13-.9 2.2-.1 1-1.3-12-11.7-3.8-3.1-7.8-6.4-8.7-7.4-1.8-1.9-13.4-10.9-14-10.9-.2 0-2.7 1.9-5.6 4.2M491 118c.6 1.1 1.7 2 2.4 2 1 0 1.2.7.8 2.2-.3 1.4-.1 1.9.6 1.4 1.2-.7 4.4.6 4.3 1.7-.4 2.8.1 3.5 2.4 3.2 1.4-.1 2.5.3 2.5 1s1.1 2.4 2.5 3.9 2.3 3.2 2 3.7c-.4.5.7 2.1 2.4 3.4 2.8 2.4 3.3 4.7 1.6 7.4-.3.5.4 1.2 1.5 1.6 1.1.3 2 1.3 2 2.1 0 1.6 1 3 5.8 8.1 1.7 1.9 3.2 3.9 3.2 4.4s1.6 2.6 3.6 4.6l3.7 3.6 17-5.8c24.9-8.5 24.1-7 8.5-15.3-19.7-10.4-32.8-17-32.4-16.3.3.4-.4 1.8-1.4 3.1l-1.9 2.5-2-2.4c-1.6-1.8-1.8-2.6-.8-4.1.8-1.4 1.4-1.6 2.4-.8.8.6 1.6.9 1.9.6.2-.3-1.2-1.3-3.3-2.3-2.1-.9-5.1-2.3-6.7-3.1-1.6-.7-3.3-1.1-3.9-.7-.6.3-.7.1-.3-.5.4-.7-3-3-9.4-6.2-8.1-4.1-9.9-4.7-9-3M381.5 136.7c-12.1 1.4-11.5 1.2-11.2 4.5.1 2.1-.4 3.4-1.8 4.3-1.7 1.2-2.3 1.1-4.4-.6-1.5-1.3-2.1-2.3-1.4-2.7 1.8-1.2 1.1-4.2-1.1-4.3-4.4-.2-21.3.2-26.1.6-2.7.2-8.9.7-13.7 1.1-4.9.3-8.8.9-8.8 1.2 0 1.4 3.7 12.8 5.7 17.7 1.2 2.7 3.3 8.8 4.8 13.5 2.8 9.1 8.6 25.2 9.3 26 .3.3.7-.1.9-.8.3-.6.9-1 1.4-.7.5.4.6-.1.3-.9-.4-1-.1-1.6.8-1.6 1.5 0 16.8-14.7 16.8-16.2 0-.6-.9-1.2-2-1.5s-2-1.2-2-1.9c0-1.9 1.9-1.8 2.6.1 1.4 3.5 5.1 1.3 17.4-10.6 10.8-10.4 12.5-12.5 12.5-15.2 0-2.6.5-3.3 2.3-3.5 1.3-.2 2.2.2 2.2.9s1.4 0 3.1-1.7c1.8-1.7 2.8-3.6 2.5-4.6-.3-1.2.2-1.8 1.2-1.8 1.5 0 1.5-.2.2-1-1.5-.9-5.4-1.1-11.5-.3M567.5 162.5c-8.9 2.8-20.1 7.9-21.7 9.9-1 1.2-1.8 1.5-1.8.8 0-.6-.8-1.2-1.7-1.1-1.1 0-1.3.3-.5.6 1.7.7 1.5 3.4-.5 4.8-2.1 1.6-1.3 2.7 5.5 7.5 3.1 2.2 7.7 5.6 10.2 7.5 5.2 4 7 4.4 7 1.5 0-1.1.5-2 1-2 1.3 0 1.3.6 0 3-.8 1.4-.6 2.2.5 3.2.9.7 2.9 2.5 4.6 4 1.6 1.5 2.9 2.4 2.9 2s.5 0 1 .8c1.2 1.9 1.3 1 1.1-12-.3-18.6-1.3-32-2.5-31.9-.6.1-2.9.7-5.1 1.4M427.4 188.5c-.4.8-1 1.5-1.4 1.5s-6.7 5.7-13.9 12.7c-14.9 14.3-14.9 13.6-1.3 14.7 4.5.4 9.3.9 10.5 1.1 3.8.7 24.1 2.5 27.2 2.4 2.9 0 3 0 .6-1-1.8-.7-2.1-1.3-1.3-2.1 1.3-1.3-3.5-10.8-9.8-19.2-5.3-7.3-6.8-8.6-8.7-7.9-1.3.5-1.5.2-1.1-1.5.7-2.5 0-3-.8-.7M336 206.9c1.1 2.2 3.3 6.2 4.9 8.9s5 8.9 7.6 13.8c2.7 4.9 5.6 10 6.5 11.4s7.2 12.2 14 24 13.3 22.8 14.5 24.5c1.2 1.6 2.5 4 2.9 5.2 1.4 4.5 2.4 2.1 3-8 .3-5.6 1.6-23.2 2.8-39 1.2-17.1 1.7-29.1 1.2-29.7-.8-.7-56.6-15-58.7-15-.4 0 .2 1.8 1.3 3.9M395.6 223.2c-.3 2.9-1.3 14.3-2.1 25.3s-1.9 26.7-2.5 34.8c-.7 8.2-.9 15.1-.7 15.4.3.2 1.4-.4 2.4-1.4 3.8-3.9 20.1-22.2 26-29.3 3.4-4.1 11.1-13.4 17-20.5 6-7.2 12.6-15.2 14.7-18l3.8-5-3.4-.7c-1.8-.4-12.5-1.7-23.8-2.8s-22.8-2.2-25.6-2.5l-5.2-.5zM446.5 236.8c-4.4 5.3-12.7 15.2-18.5 22-5.8 6.9-11.4 13.7-12.5 15.2-1.1 1.6-4.5 5.5-7.5 8.8-7.3 7.9-14 15.9-14 16.7 0 .3.9.1 1.9-.5 1.1-.5 5.5-.9 9.8-.9 5.9.1 6.9.3 4.2.8-1.9.4-4.6 1.5-5.9 2.4l-2.3 1.6 2.4.5c10.4 2.4 57.9 10.9 58.3 10.5.8-.9 1.2-15 .4-15.5-.4-.3-.8 0-.8.5 0 .6-1.2 1.1-2.6 1.1-3.2 0-3-3.3.3-3.8 1.8-.3 2.1-.8 1.8-3-.3-1.5-1.2-12.4-2-24.2-1.7-23.6-3.5-40.9-4.4-41.4-.3-.2-4.2 4-8.6 9.2M460.8 227.7c.6.2 1.2 1.4 1.2 2.4 0 1.1.5 2.9 1.1 4 .9 1.8.9 1.9-.9 1-1.1-.6-2.2-1.6-2.5-2.3-.2-.7-.7-1.1-1-.8-.7.7 2 35.1 3.3 42 .6 3 1 7.6 1 10.1-.1 2.5.4 6.8 1.1 9.5.6 2.7 1.1 6.7 1 8.9-.2 5.8 1 7.2 4 4.9 5.1-3.9 51.5-55.1 50.7-55.9-1.5-1.6-58-24.6-59.7-24.4-.3 0 0 .3.7.6M853.8 95.6c-.3.3-5.5 1.8-11.4 3.4-15 4-19.2 5.6-21.5 8.2-1.4 1.6-2.2 1.9-2.5 1-.3-.6-1-1.2-1.5-1.2-1.8 0-.8 2.9 2.4 6.8 1.8 2.2 4.8 6.2 6.6 9.1 1.8 2.8 3.7 5.1 4.3 5.1.5 0 .7.4.4.8-.3.5.4 1.8 1.4 3 1.1 1.2 2 2.5 2 2.9s1.6 2.6 3.4 4.8l3.4 4 1.2-4.5c.7-2.5 1.6-4.7 2-5 .5-.3 1.1-2.2 1.5-4.3.7-3.4.5-3.7-1.5-3.7-1.5 0-2-.5-1.8-1.8.2-1.2 1.2-1.6 3-1.5 1.9.1 2.5-.2 2.4-1.5-.2-.9.5-2.3 1.4-2.9 1.5-1 3.6-7.8 3-9.2-.1-.2.2-.7.7-1 .9-.6 4.3-10.4 4.3-12.2 0-1-2.3-1.2-3.2-.3M859 98c0 1.2-.7 3.4-1.5 4.9-2.5 5-3.9 14.5-2 14.6 2.1.1 3.5 1.7 3.5 4.1 0 1.4.4 3.3.8 4.2 1 1.8.2 6.4-1 6.3-2.4-.2-2.8.1-2.8 1.9 0 1.6.4 1.8 1.8 1.1.9-.5 2.5-1.2 3.5-1.5s1.5-1 1.2-1.6c-.3-.5-.1-1 .4-1 .6 0 1.1.4 1.1 1 0 .5.5 1 1 1 .6 0 .9-.6.8-1.3-.2-.7.9-1.3 2.5-1.5 1.5-.2 2.7-.8 2.7-1.3 0-.6.4-.8.9-.4 1.3.7 6.2-1.6 5.5-2.6-.7-1.2 2.3-1.1 4.6.1 1 .6 2.1.6 2.4.1.3-.4 1.7-.6 3.2-.3l2.7.5-2.8-3.1c-1.5-1.7-3.2-2.9-3.8-2.5s-.7.1-.2-.7c.8-1.4-21-24-23.2-24-.7 0-1.3.9-1.3 2M870.1 101.7c3 3.2 9.9 10.4 15.3 15.9l9.8 10.2 17.6.6c9.8.4 19.4.8 21.4 1 7.4.8 2.4-2.2-22-12.9-13.6-5.9-29.4-13-35.1-15.7-5.7-2.6-10.8-4.8-11.4-4.8s1.3 2.6 4.4 5.7M807.8 111.5c-.2.3-1.5.7-2.9.9-3.6.7-3.6.7-.9 1.6l2.5.8-2.7.1c-1.6.1-2.8.6-2.8 1.3s-.6.6-1.7-.4c-2-1.7-2.2-1.7-11.3 2.5-3.6 1.7-6.7 3.1-7 3.2-2.6.6-8 3-8 3.5 0 .4-1.8 1.3-4 2s-4 1.6-4 2c0 .6 5.1 2 13 3.5 1.4.3 8.3 1.7 15.4 3.1 10.2 2.1 13.4 2.4 14.8 1.5 1-.6 2.3-.9 2.8-.6.6.4 1-.1 1-.9 0-2.1 3.6-2.1 4.4 0 .6 1.6.8 1.6 2.4 0 1-.9 2.6-1.6 3.4-1.6 1.7 0 3.1-2.4 2.1-3.4-.4-.3-2.1-.6-3.8-.6h-3.2l.3-5c.3-3.5 0-5-.9-5s-.9-.2 0-.8c1-.6.9-1.6-.4-4.3-1.3-3-2.1-3.6-4.8-3.7-1.8-.1-3.4.1-3.7.3M941.2 135.8c-.6 1.5-3.1 6.3-5.6 10.7-8.5 15.3-10 18-12.7 23.7l-2.7 5.6 27 27.4c14.8 15 26.8 26.4 26.5 25.3-2.4-9.3-10.2-35-16.2-53.5-8.3-25.5-11-32.9-12.5-34.4-.5-.5-1-2.2-1-3.7 0-3.8-1.4-4.3-2.8-1.1M751.4 142.3c-2.5 3.3-3.1 4.9-2.7 7.4.4 2.2.1 3.3-.7 3.3s-1-.9-.6-2.5c.4-1.4.5-2.5.3-2.5s-3.4 4.5-7.1 9.9c-4.1 6-6.5 10.5-6 11.2.4.7.3 1-.4.5-1.1-.6-5.9 4.6-8.3 9.2-.8 1.4-2.4 3.7-3.6 5-1.3 1.4-2.3 2.9-2.3 3.4 0 .6-.9 2.3-2 3.8l-2 2.9 5.2 1c2.9.5 9.6 1.7 14.8 2.5s15.4 2.5 22.5 3.6c7.2 1.2 14.6 2.3 16.5 2.4 1.9.2 4.7.6 6.1 1 1.8.5 3.1.3 4.2-.8.8-.9 2.3-1.6 3.1-1.6.9 0 1.6-.5 1.6-1 0-.6-.4-1-1-1-1.4 0-1.2-3.8.2-4.2.9-.3.8-1.3-.5-3.9-1.4-3-1.5-3.5-.2-4.5 1.7-1.3.9-2.5-1.1-1.7-.9.3-1.4-.2-1.4-1.6 0-1.2-.4-2.1-1-2.1-.5 0-1-1.4-1-3.1s-.4-2.8-1-2.4c-.5.3-1 .1-1-.5s-.4-.8-1-.5c-.5.3-1 0-1-.8 0-1.9-1.9-2.6-4.5-1.7-1.1.4-2.8.5-3.8.2-2.2-.6-4.1-3.8-3.1-5.4.4-.6.3-.8-.3-.5-.6.4-1.4 0-1.7-.9-1.1-2.8-.6-5.4 1.3-7.5s1.9-2.1-.5-5.6c-2.7-4-3-5.3-1.2-5.3.6 0 .3-.9-.8-2.1-1-1.2-1.8-2.4-1.6-2.8.2-.3-.4-1.1-1.3-1.6-1.1-.7-1.8-.6-2.4.4-.6.9-1.8 1.1-3.4.7-1.9-.4-2.4-1.1-2-2.6.8-2.9.2-2.5-3.3 2.3M949.2 144c4.1 11.5 22.1 67.8 24.2 76 1.9 7.5 3.5 11.2 4.4 10.8.5-.2 3.9-3.6 7.5-7.7 6.3-7.1 7.9-10.2 5.8-11.6-.6-.3-1.6-1.8-2.4-3.3-3.2-6.4-9.2-17-11.7-20.7-2.8-4.2-16.4-27-21.8-36.6-3.2-5.6-7.2-10.2-6-6.9M924 187.3c0 1.3.6 2.9 1.3 3.6 1 1 .8 1.5-.6 2.5-1.6 1.2-1.6 1.9-.5 7.9.7 3.6 1.5 6.4 1.8 6.2s.5 2 .6 4.8c0 2.9.7 8.3 1.5 12.2l1.4 7 8 .6c15.9 1.3 34.4 1.8 34.9 1 .3-.4-7.5-8.7-17.2-18.4-23.2-23.1-28.3-27.8-29.5-27-.6.4-.8 0-.4-1 .3-1 .2-1.7-.3-1.7-.6 0-1 1-1 2.3M808.4 213.4c.4 1.5 5.7 12.9 11.8 25.4s14.4 29.7 18.4 38.2c4.1 8.5 7.8 15.6 8.3 15.8.4.1 1.1-3.9 1.5-9 1.2-16.4 1.8-23.3 2.1-23.8.2-.3.5-3.9.6-8 .2-7.3.2-7.5-2-7.2-1.5.2-2.1 0-1.7-.7.4-.6 1.6-1.1 2.7-1.1 1 0 1.9-.1 1.9-.3.1-.1.3-6.1.7-13.3l.6-13.2-2.9-.6c-1.6-.3-5.6-.8-8.9-1.1s-7.3-.8-9-1c-1.6-.2-6.1-.6-10-1-3.8-.3-8.7-.9-10.9-1.2-3.8-.5-3.9-.5-3.2 2.1M987.9 222.3c-3 3.4-6.3 7.4-7.3 8.8-1.6 2.6-1.6 2.7.9 3.3 3.3.8 26 3.6 29.8 3.6 1.5 0 2.7-.5 2.7-1 0-1-19.1-21-20-21-.3.1-3 2.9-6.1 6.3M931.7 234.7c-.7 1 21.2 29.9 34.5 45.7 1.8 2.1 4.1 5.2 5.1 6.8.9 1.6 2.1 2.7 2.6 2.4.4-.3.9-3.8.9-7.8.1-4 .5-16.2.8-27.1l.7-19.7h-15.9c-8.8-.1-18.7-.3-22-.6-3.4-.3-6.4-.2-6.7.3M927.7 242.3c-2.3 9.2-2.8 11.4-3.3 12.9-.4 1.2 0 1.8 1 1.8.9 0 1.6.7 1.6 1.6s-.6 1.4-1.3 1.1-1.3.3-1.4 1.2c-.1 1 2 2.8 5.5 4.8 3.1 1.8 7.7 4.4 10.1 5.9l4.3 2.6-.7-2.3c-1-3.2-2.4-6.6-7.4-17.9-2.4-5.2-4.5-10.3-4.8-11.2-.8-2.6-3-2.9-3.6-.5M853.7 249.7c-1.2 11.6-.8 12.3 5.9 12.3 5.2 0 7.3-1.4 3.7-2.3-1.4-.4-1.2-.5.5-.6 1.2 0 2.2-.6 2.2-1.2s-.7-.9-1.5-.5c-1.7.6-1.9-.2-.7-2.2.5-.7 1.6-1 2.5-.6 1.2.4 1.7.1 1.7-1.2 0-1.6-.2-1.7-1-.4-.7 1.2-1 .8-1-1.5-.1-2.5-.3-2.7-1.2-1.4-1.5 2.1-6.4.4-7.3-2.5-.6-2.1-.6-2.1-1.4-.1-.7 1.6-.9 1.2-1.2-2-.3-3-.6-2-1.2 4.2M936.1 248c1.8 3.6 4.5 10.1 6 14.4 4.5 12.4 5.4 13.5 16.4 19.8 5.5 3.2 10.4 5.8 10.8 5.8.9 0-3.5-6.4-7.5-10.9-1.3-1.4-3.7-4.4-5.3-6.6s-3.9-4.9-5-6-3.1-3.5-4.5-5.3c-13.3-17.6-14.8-19.1-10.9-11.2M871.4 254.3c-.6 1.2-4.9 9.7-9.6 18.9s-8.3 17-8 17.3c.4.3 0 1-.8 1.5-.8.6-1 1-.4 1s2.2-.8 3.5-1.8c1.3-1.1 3.6-2.2 5.2-2.6 1.5-.3 3.7-1.6 4.8-2.7s2.4-1.7 2.9-1.4c.6.4 1 .1 1-.4 0-.6.9-1.1 1.9-1.1s2.2-.7 2.5-1.5c.3-.9 1.1-1.5 1.8-1.4 3.1.4 4.8-.2 4.8-1.7 0-.8.4-1.2 1-.9.5.3 1.8.1 2.7-.4 1-.6 1.4-1.1.8-1.1-.5 0-.3-.5.5-1 2-1.3 3.3-1.3 2.5 0-.4.6.5.5 1.9-.2 1.4-.6 2.6-1.5 2.6-2 0-.4.9-.8 2-.8 1.3 0 3.1-1.6 5-4.7l3.1-4.8-3.1-1c-1.7-.6-2.8-1.4-2.4-1.8s-.4-.8-1.7-.9-3.3-.3-4.4-.4-2.8-.2-3.7-.3c-1-.1-1.8-.8-1.8-1.7 0-1.2-.7-1.5-2.5-1.2-1.4.3-2.5.2-2.5-.2s-1.8-.6-4-.5c-2.6.2-4-.2-4.2-1.1s-.7-.5-1.4.9M923.5 267.9c.2 1.4.8 3.9 1.4 5.4.6 1.6.8 3.3.5 3.9-.3.5.3 1.2 1.5 1.5 2.4.6 2.6 1.5 1.1 4.4-1.4 2.5.1 2.4 2.9-.2 1.2-1.2 2.5-1.8 2.8-1.5.4.3-.4 1.6-1.7 2.8-4 3.8-.6 3 5.8-1.2 3.4-2.3 6.4-4.5 6.7-5 .7-1.1-5.1-4.8-14.4-9.4l-7-3.4zM949.4 282.6c1.2 7.2 5 19.6 6.2 20.1.6.2 4-1.5 7.7-3.9 3.6-2.4 7.4-4.8 8.4-5.4 1.6-1.1 1.2-1.5-3.4-3.6-2.9-1.4-5.8-2.9-6.5-3.5-.7-.5-4-2.5-7.2-4.3l-5.9-3.3zM944 281.7c-1.3.9-3.7 3.1-5.4 4.8-1.7 1.8-4.1 3.8-5.4 4.4-3.3 1.7-2.4 3 3.8 5.5 3 1.3 7.5 3.3 9.9 4.4 5.6 2.8 6.5 2.7 5.7-.1-.4-1.2-1.6-5.8-2.7-10.2-2.7-10.6-2.9-10.9-5.9-8.8M1029.8 290.8c-3.9 3.9-5.5 6.8-9.7 17.5-4.9 12.4-5.9 15.4-4.3 13.2.4-.6 2.8-2.3 5.5-3.9 2.6-1.5 4.5-3.1 4.2-3.7-.4-.5.1-.9.9-.9s3.1-.8 5.1-1.7c2.9-1.4 3.5-2.1 3.1-4-.4-1.2-.2-2.5.4-2.8 1.1-.7 1.4-18.5.3-18.4-.5 0-2.9 2.2-5.5 4.7M911 297.7c-6.3 1.3-11.9 2.8-12.4 3.3-.4.4.7 3.7 2.5 7.2 3.5 6.6 3.5 6.5 10.1 5.5.9-.2 3.5-2.6 5.7-5.4 4.6-5.9 7.7-8.3 4-3.2-3 4.2-5.1 8.1-4.5 8.6.4.4 11.1.7 15.4.4 2.1-.1 2.3-.5 1.8-3.4-.6-3.1-.5-3 1.6 1 1.3 2.6 2.9 4.3 4 4.3 2.2 0 5.8 3 5.8 4.7 0 2.2 2.7 1.4 3.3-1 .3-1.2 1.4-4.6 2.6-7.6 1.1-3 1.8-5.7 1.6-6.2-1.1-1.7-20.1-9.9-23.1-9.9-1.3 0-3.2 1.2-4.5 2.7-2 2.6-2.1 2.2-.3-2.2.8-1.8.7-1.8-13.6 1.2M1013 304.6c-9.8 7.9-12.5 11.8-11.8 17.4.3 2.6 3.8 4.3 3.8 1.8 0-.8.9-1.4 2-1.5s2 .3 2 1c0 2.4 3-2.1 7.8-11.8 4.6-9.3 6.8-14.5 6-14.5-.2 0-4.6 3.5-9.8 7.6M854.3 298.8c-3.4.5-2.9 3.1 2.1 12.5 2.4 4.5 6.3 11.8 8.5 16.2 4.3 8.2 6.1 10.8 6.1 8.8 0-.7 3.6-6 8-11.9 7.4-9.9 15-21.4 15-22.7 0-.3-1.9-.8-4.2-1.2-5.9-.8-32.8-2.1-35.5-1.7M839.3 303.7c-13.9 7.7-35.2 20.9-35 21.8.4 1.1 30.6 16.5 32.5 16.5.8 0 1.6-.9 1.9-2s.9-2 1.4-2 .7 1.1.3 2.6l-.6 2.5 5.3-.7c10.9-1.3 21.2-3.3 22.2-4.3 1.2-1.2-13.2-30.6-16.9-34.6-2.9-3.2-4.9-3.2-11.1.2M891.4 308.7c-2.7 3.9-5.6 8.4-6.6 10-.9 1.5-2.9 4.8-4.4 7.3l-2.7 4.5 2.9-2.6c1.6-1.4 5.1-3.6 7.9-4.8 2.7-1.3 5.5-3.1 6.2-4s1.3-1.2 1.3-.7.9.1 1.9-.8c1.1-1 2.5-1.5 3-1.1 1.9 1.1 1.2-2.9-1.7-8.9l-2.8-6zM986.4 322.4c-10.9 5.2-11 5.3-14 11.2-4 7.8-5.6 10.5-7.3 12.6-1.2 1.6-1.1 1.9 1.3 2.8 4.9 1.8 10.6 1 10.6-1.6 0-1.7 1.2-1.8 2.8-.2 1.5 1.5 1.7-.3.3-3-2.1-3.9-5.2-12.4-4.7-12.9.2-.3 1.8 2.1 3.5 5.3 1.6 3.3 3 5.3 3.1 4.6 0-.6.4-1.2.9-1.2 2.4 0 7.5-6.3 11.2-13.9 2.3-4.5 4-8.4 3.8-8.6s-5.4 2-11.5 4.9M802.5 339.2c.3 6.2.8 14.8 1 19.1s.5 8 .7 8.2c.4.4 10.9-6.1 11.7-7.3.3-.5 4.8-3.7 9.9-7.1 5-3.5 9.2-6.6 9.2-7 0-.3-1.5-1.5-3.3-2.5-5.6-3.4-27.9-14.6-28.9-14.6-.7 0-.8 4.1-.3 11.2M959.8 328.8c-7.3.3-7.7.4-6.6 2.2.9 1.4 1.9 1.7 4 1.3 2.4-.5 2.8-.2 2.8 1.6 0 1.1-.4 2.1-1 2.1-1.8 0-1 5 1.1 7.1l2.1 2.1 2.5-2.4c2.4-2.3 8-12.5 7.2-13.2-1-.9-4.9-1.1-12.1-.8M853.8 342.4c-6.9 1.1-13 2.5-13.4 2.9-1 1 11.6 12.8 12.8 12.1.5-.3.7 0 .6.8-.2.7.3 1.2 1 1 .6-.1 1.1.4 1 1-.2.7.3 1.2 1 1 .8-.1 1.1.2.8.6-.3.5.4 1.8 1.7 2.8 1.9 1.6 2 1.7.8.1-.8-.9-1.1-2.1-.7-2.5s1.2.2 1.8 1.2c1.1 1.9 1.1 1.9 2.5 0 1.2-1.6 1.5-1.7 2.3-.4.6 1 1.2 1.1 1.8.5 1.4-1.4 2.5-5.6 1.5-5.3-.4.1-1.8-.2-3.1-.6-2.8-.9-1.9-2.6 1.4-2.6 2.4 0 2.5-.1 2.2-7.2-.2-5.6-.6-7.3-1.8-7.4-.8-.1-7.2.8-14.2 2M831.4 350.3c-3.2 2.4-9.9 7.2-14.9 10.7-9.3 6.7-12 8.9-11.4 9.4.2.2 1.9 1.1 3.7 2 3.2 1.6 6.7 3.9 27 16.8 5.1 3.3 9.6 5.7 9.9 5.4s.2-1.7-.1-3.3c-.5-1.9-1-2.3-1.6-1.4-1 1.8-4 .7-4-1.5 0-.9.9-1.8 2-2.1 2.4-.6 2.5-2.1.5-11.6-.8-4-2.2-11.9-3-17.6-.9-5.8-1.7-10.6-1.9-10.8-.1-.1-2.9 1.7-6.2 4M919.4 394.9c.5.8-2.1 2.4-3.3 2.1-.8-.2-3.1 8.3-3.1 11.4 0 1.8.4 2.7 1.3 2.3.6-.2 5.8-1 11.5-1.8 6.1-.8 10.1-1.7 9.9-2.4-.2-.5-3.7-3.6-7.8-6.7-7-5.4-9.7-7-8.5-4.9M945.6 399.2c-3.2 7.8-3.4 7.4 4.6 8.1 4 .4 9.4.9 11.9 1.3l4.6.6-.5-3.1c-.3-2.3-1-3.1-2.6-3.3-1.1 0-2.6-.2-3.3-.2-.7-.1-1.8-.7-2.5-1.4-.6-.6-1.8-1.2-2.5-1.2s-1.3-.4-1.3-.9c0-.7-5.1-3.1-6.7-3.1-.2 0-1 1.5-1.7 3.2M1017.5 411.7c.2 1 .4 2 .5 2.3s.1 2 0 3.7c-.1 1.8.3 3.3.9 3.3.5 0 1.1 1.5 1.3 3.2.2 2.3.8 3.3 1.9 3.2.9-.1 1.6.4 1.6 1-.1 3.3.5 6.9 1 5.8.9-2.4 1.8-1.1 1.8 2.8.1 5.2 1.4 6.4 6 5.6 3.5-.7 3.7-.9 3.1-3.8-1.1-5.5-7.6-18.1-11.1-21.5-1.9-1.9-3.9-4.2-4.5-5.3-1.3-2.5-2.9-2.6-2.5-.3M966.3 436.5c-.7 1.6-1.5 4.3-1.8 6-.4 1.6-1 3.9-1.5 5s-2.3 7.2-4 13.5c-1.8 6.3-3.6 12.8-4.1 14.4-.7 2.3-.5 3.2.9 4.3.9.8 1.1 1.2.4.8-2.3-1.2-2.4 2.5-.2 8.5 1.2 3.3 2.7 6 3.2 6s.7.4.4.8c-.2.4 0 1.4.5 2.2.9 1.3 1 1.3.8 0-.3-2.8.1-4.1 1-3.6 1.9 1.2 3.6-.5 3.8-3.7.1-1.7.5-4.3.8-5.5.5-2 .8-2.2 2-1.2s1.5.9 1.6-.6c0-1.1.3-2.8.6-3.9.2-1.1.5-3.8.6-6 0-2.2.4-4.2.9-4.5.4-.3.1-3-.7-6-1.8-6.6-1.7-6.3-.5-5.5.6.3 1 1.6 1 2.9 0 3 1.8 4.7 3.9 3.5.9-.5 4.8-1.5 8.6-2.2 3.9-.7 7-1.7 6.9-2.2-.1-1.1-15.8-9.1-19.1-9.8-1.8-.3-2.3 0-2.3 1.6 0 1.1-.3 1.7-.7 1.4-.3-.4-.9-4.9-1.2-9.9-.6-8.6-.7-9.1-1.8-6.3"/><path d="M993.8 446c-10.8.3-19.9.8-20.3 1.1-.3.4 4.5 3.2 10.8 6.3 10.6 5.3 11.6 5.6 14.3 4.4 2.9-1.2 19.4-11.7 19.4-12.3 0-.2-1-.2-2.2-.1-1.3 0-11.2.3-22 .6M245.5 341.1c-4.4 2.6-10.1 6-12.7 7.6-2.6 1.5-4.8 3.2-4.8 3.6 0 2.9 18.1 23.3 19.1 21.5.3-.7 1.4-5.8 2.4-11.3.9-5.5 2.3-12.6 3.1-15.9.9-3.2 1.4-6.8 1.2-8.1-.3-2.1-.6-2-8.3 2.6M284.5 354.1c-3.8 2.2-13.2 8.2-20.8 13.2-10.2 6.8-13.4 9.3-12.3 9.9 1.7 1 4.3 1.7 48.5 12.8 17.3 4.4 31.6 7.8 31.8 7.7.4-.5-2.4-4-17.2-21.8-19.7-23.7-21-25.2-22-25.5-.5-.2-4.1 1.5-8 3.7M984.7 583c-2 .4-4 .9-4.3 1.2s.2 4.3 1.1 8.8c.8 4.6 1.3 8.5 1 8.8-.6.7-1.1-1.1-2.5-9.6-.6-3.9-1.7-7.3-2.3-7.3-1.5-.2-.6-.2-10.1.6-5.5.4-8.1.2-8.6-.6-.5-.7-1-.8-1.4-.1-.6 1 .5 2.1 14.1 12.8 9.8 7.6 11.9 8 13.8 2.4.7-2.1 2.1-5.2 4.1-9.4 4-8.4 3.5-9.3-4.9-7.6M480.3 605.8c.2 1.6.7 3.4 1.1 4.1s.6 1.5.3 1.8c-.3.2.1 2.6.8 5.1.8 2.6 1.7 6.8 2 9.4.4 2.7 1.2 4.8 1.7 4.8.6 0 .7-1.1.4-2.5-.4-1.4-.2-2.5.4-2.5.5 0 1 .9 1 2 0 2.1 1.5 2.7 2.5 1 .3-.6 3.3-1 6.6-1s5.9-.4 5.9-1 .9-1 1.9-1 2.1-.7 2.5-1.5c.3-.8 1.1-1.4 1.8-1.3.6.2 1.4-1.1 1.8-2.7.3-1.9.8-2.6 1.3-1.8.4.7.5 2.5.2 4s-.2 2.1.1 1.3c.4-.8 1.1-2.3 1.6-3.3.8-1.5-.4-2.4-8.9-6.3-13.3-6.2-15.1-6.9-20.5-9.3l-4.8-2zM464.8 662.2c-.7 1.3-1.2 2.7-1.3 3.3 0 .5-.4 1.1-.8 1.2-1.1.3-6.5 7.4-12.1 16-2.6 4-5.4 7.7-6.4 8.2q-1.65 1.05-.6 1.8c.5.5 2 2.4 3.2 4.3 1.1 2 3.4 4.7 4.9 6.2 3.4 3.1 5.8 5.9 7.3 8.7 1.5 3 2.7 2.6 2.8-.9 0-1.7.5-4.5 1.1-6.3 1.4-4.4 4.1-28.7 4.4-39.4.2-5.7-.5-6.6-2.5-3.1M698.2 695.1c.5 1.5-6.3 8.9-8.2 8.9-1.4 0-2.8 1.1-11.2 8.6-1.5 1.3-3.1 2.4-3.5 2.4-1 .1-5.3 3.6-5.3 4.4 0 .3 3.7.6 8.3.6h8.4l1-3.4c1.2-3.8.1-5.9-2.5-4.9-1 .4-1.3.2-.8-.6.5-.7 1.6-.9 2.8-.5 1.3.4 1.8.2 1.4-.4-.7-1.2 1.6-2.2 5.1-2.2 1.9 0 11.2 4.3 14.2 6.6.1.1.4 1.4.5 2.8.1 2.5.3 2.6 6.4 2.6 3.5 0 6.2-.4 6.2-1 0-1.1-1.1-1.3-4.7-1.2-1.3.1-2.3-.3-2.3-.8 0-1 1.4-1.4 3.5-1.1.6.1-.7-1.3-2.7-3.2-2.1-1.8-3.8-3.9-3.8-4.7 0-.7-.3-1-.6-.7-.7.7-4.9-1.9-4.9-3.1 0-.4-1-2.1-2.3-3.9-1.2-1.7-2.2-3.6-2.2-4.1s-.7-1.3-1.6-1.6c-.9-.4-1.4-.1-1.2.5"/></svg>