<svg xmlns="http://www.w3.org/2000/svg" width="1706.667" height="960" viewBox="0 0 1280 720"><path d="M0 360v360h218.5c161.8 0 218.5-.3 218.5-1.1 0-.7.7-1.7 1.6-2.4 1.5-1.1 1.2-1.9-3-8.1-7.9-11.7-10.1-14.3-11.4-13.9-.8.3-1.2-.8-1.1-3.8.1-2.3-.1-6.2-.5-8.7-.6-4.3-.5-4.3.4-1 2 6.6 1.9 6.5 4 4.2 1.1-1.1 5.8-7.8 10.6-14.9 12-17.6 12.8-18.8 13.7-19.1.4-.2.7-1 .7-1.8 0-.9-.4-1.2-1-.9-.5.3-2-.1-3.3-1-1.4-.9-8.2-3.6-15.3-6.1-17.9-6.3-16.9-6.1-16-3.8 1.1 2.6 2.6 12.4 2.5 15.4-.1 1.4-.5 0-1-3s-1.6-8.1-2.5-11.2c-1.8-6-1.7-6.6 2.2-15.4.7-1.7 1.8-4.2 2.3-5.5.9-2.3 1-2.2 1 .8.1 2.7.6 3.4 2.9 3.9 4.6 1 4.9 1.2 5.5 3.3.3 1.3-.4 3-1.9 4.6-2.2 2.3-3 2.6-6.7 2.1l-4.2-.7 3 1.7c1.7.9 3.7 2.2 4.5 2.9s5.6 2.5 10.5 3.9c5 1.5 10.5 3.4 12.3 4.2 4.1 1.8 5.3 1.8 4.6 0-.3-.8-.1-1.7.5-2.1.6-.3 1.1 0 1.2.7.1 3.5 2-4.4 3.5-14.9.9-6.5 1.8-12.9 2-14.3s.6-5.1 1-8.3c.7-5.6.6-5.7-1.8-5.7-4.2 0-10.1-2.9-14.5-7.3-5.6-5.4-5.5-6.9.1-2.4 4.7 3.9 6.4 3.9 3.9.1-.9-1.4-1.3-2.7-1-3.1.4-.3 1.2.6 1.8 2.1.7 1.4 1.7 2.6 2.2 2.6s.3.8-.4 1.7c-1.2 1.5-1.2 1.6.4 1 1.1-.4 1.7-.2 1.7.7 0 1.1 3.9 3 4.7 2.3.3-.4-1.8-3.9-5.5-9.2-1.9-2.5-3.1-4.9-2.7-5.3s1.2.1 1.9 1.1c.6 1 3.2 4.8 5.8 8.4l4.6 6.5 5-7.4c5.7-8.4 15.2-23.6 15.2-24.2 0-.2-1.7-.2-3.7 0l-3.8.3 3.9-1.1c2.2-.6 5-2.3 6.3-3.7 1.8-1.9 2.2-2.1 1.5-.6-1.1 2.3-.9 5.2.7 10.9 1.4 5.2.7 5.9-.9.9-.7-2.1-1.6-4.2-2-4.6-.4-.5-2.5 2-4.6 5.5s-6.1 9.9-8.9 14.3-5.5 8.6-5.9 9.3c-.5.8.2 1.5 1.8 2.2 1.4.5 5.4 2.3 9 3.9 3.6 1.7 9.1 4 12.3 5.1 3.2 1.2 6.6 2.5 7.5 3 2 1.1 3 0 1.7-2-.5-.8-.9-2.8-.9-4.3s-1.6-7-3.5-12.1c-2.9-7.9-5.7-18.5-4-15.1.8 1.6 7.5 20.5 9.7 27.5 1.1 3.6 2.3 6.9 2.8 7.3.9 1 8.3-5.3 20.3-17.4 4.9-4.9 9.1-8.9 9.3-8.9s.3 1 .3 2.2c-.1 1.3.1 3.2.5 4.3l.8 2-1.3-2c-.6-1.1-1.3-2.2-1.5-2.4-.4-.5-26.4 24.3-26.4 25.2 0 1.5 2.6 3.5 8.8 6.6 3.4 1.7 6.2 3.3 6.2 3.6 0 .6-2.4-.4-8.7-3.8-4.8-2.4-5.3-2.5-5.3-.9 0 1 2.5 9.8 5.5 19.5 3 9.8 5.7 19.4 6.1 21.3.3 1.9 1.1 3.7 1.6 4 .6.4 4.4-2.8 8.6-7 4.1-4.2 8-7.6 8.5-7.6s-2.7 3.7-7.2 8.2c-4.4 4.6-8.1 8.9-8.1 9.6s.9 3 2 5.2 2 4.4 2 4.9c0 2.8 8 14.1 13.9 19.6 12.4 11.7 13.3 12.5 14 12.1.4-.3.4-3.8 0-7.8-.8-7.9-1-13.9-.3-12.3.2.5.8 5.3 1.4 10.5 1.5 13.4 1.5 13.1 3.5 14.6 1 .8 1.4 1.4.9 1.4-.6 0-1.6-.6-2.2-1.2-.8-.8-1.5-.9-2-.3-.4.6-2 1.1-3.7 1.2-2.9.3-2.9.2-.7-.9 4.7-2.4 2.3-3.5-8.8-4-7.3-.3-7.5-.2-7.3 1.9.2 1.3-.2 2.3-.7 2.3-.6 0-1-.9-1-1.9 0-1.1-.4-2.2-.9-2.5-.8-.6-19.8 4.7-20.8 5.8-.4.3 30 .6 67.5.6h68l2.1-4.2c1.2-2.4 3-5.4 4.1-6.8l2.1-2.5-1.3 3c-.7 1.6-1.5 3.2-1.9 3.5-.9.8-2.9 4.7-2.9 5.9 0 .6 2 1.1 4.5 1.1 3.2 0 4.5-.4 4.5-1.4 0-.8.7-1.6 1.5-2 2.2-.8 2-4.5-.3-3.9-1.7.4-1.7-.1-.7-8.4 1-7.9 4.4-17.7 4.5-13.1 0 1.9 2 2.6 2 .8 0-.6 1-1.5 2.3-2l2.2-.9-2.2-.2c-1.3-.1-2.9-.2-3.5-.3-1.5-.2-1.1-3.8.5-4.8.7-.4 1.5-.1 2 .7.5.9 2.3 1.5 4.7 1.5 2.1 0 4.1.4 4.5 1 .7 1.2 10.8.8 11.8-.5.6-.7 1-.6 1.4.2.8 2.1 2.9 1.5 4.3-1.3.8-1.4 2.2-3 3.2-3.5 1.1-.6.1 1.3-2.2 4.3-2.2 2.9-4 5.8-4 6.5 0 1.8 12.8 14 14.3 13.5.4-.1 1 .6 1.4 1.5 1.3 3.6 4.6 7.4 5.9 6.9.7-.3 2 .2 2.9 1 .8.8 1.9 1.3 2.4.9.9-.5.1-3.3-3.3-11-.8-1.7-2.3-5.1-3.5-7.8-4.7-10.6-1.6-6.3 5.2 7.3l7.2 14.5 280.8.3 280.7.2V0H0zM433.7 84.5c-9.3 1.9-17.4 3.6-18 3.8-1.8.7 32.1 16.4 41.5 19.4 1.6.5 2 0 6.5-7.5.8-1.3 1.7-2.1 2-1.8s-.4 2-1.6 3.9c-3.3 5.5-3 5.7 7.2 5.7 11.1 0 50.2-1.9 53.7-2.6 2.2-.5 2.1-.8-2.5-3.6-2.8-1.7-5.4-3.5-6-4.1-.5-.5 1 .2 3.5 1.7s6 3.4 7.8 4.2c1.7.9 3.2 2.1 3.2 2.6s1 1.8 2.3 2.9c1.9 1.6 1.9 1.8.3 1.2-1.6-.5-1.8-.3-1.3 1.1.4 1 1 3 1.3 4.4l.6 2.7-2.2-2.1c-1.3-1.3-2.3-3.5-2.4-5.5l-.2-3.4H521c-4.7.1-19.2.7-32.3 1.5-18.9 1.1-23.5 1.6-22.5 2.6.7.6 8.3 4.8 16.8 9.2 8.6 4.4 21.2 11.1 28 14.9 6.9 3.8 18.9 10.2 26.8 14.2 14.1 7.2 14.3 7.2 13.6 4.4-.8-3.3-5.9-13.7-8.5-17.5-1.1-1.4-1.9-3.9-1.9-5.5 0-2.1 1.6.4 6 9.5 3.3 6.7 6 12.7 6 13.2 0 .6.8 1.8 1.8 2.8 1.8 1.8 2.4 1.8 9.8.5 4.3-.7 8.6-1.2 9.4-1s-2.4.9-7.2 1.7c-4.8.7-9.3 1.7-10 2.1-1 .6-.5 2.2 1.9 7.1 1.7 3.5 3.5 7.4 3.9 8.8s1.7 4.8 3 7.5c2.9 6.4 6.4 15.4 6.4 16.3 0 1.4-2-2.3-3.9-7.3-1-2.8-3-7.5-4.4-10.6-1.4-3-3.5-8.1-4.7-11.2s-2.5-5.9-3.1-6.2c-.5-.4-.7 8.1-.5 21.5.3 20.1.5 22.4 2.3 24.8 2.8 3.9 3.8 6 1.6 3.7-1-1.1-2.6-2.6-3.6-3.4-1.6-1.2-1.6-1.1-1.1 1.8.6 2.8-.8 12.5-3.6 24.8-.5 2.3-1.4 8.2-2 13.1-.5 4.8-1.4 11.2-2 14.1-1.5 7.8-1.4 8.4 1.3 7.5 1.2-.4 11.3-5.1 22.5-10.5 13-6.3 20.2-10.3 20.2-11.3 0-.8-1.5-3.2-3.2-5.3l-3.3-3.7 3.7 2.9c2.1 1.7 3.8 3.3 3.8 3.7 0 1.5 4.2.8 6.8-1 1.5-1 3.4-2.3 4.2-2.7 1.3-.8 1.3-.7.1.9-.8 1-3.2 2.6-5.3 3.7s-3.8 2.7-3.8 3.5c0 1-.6 1.4-1.4 1.1-.7-.3-3.6.6-6.2 1.9-2.7 1.4-13 6.4-22.9 11.1s-18.6 9.3-19.3 10.2c-.8.9-1.1 1-.7.3 1-1.9-.2-1.6-14.6 3.8-7.4 2.7-13.7 5-14.1 5-.5 0-.8-1-.8-2.1 0-1.7.3-1.9 1.4-1s3.6.3 11.2-2.5c5.5-1.9 10.7-3.8 11.7-4.1 4-1.2 1.6-2.9-17.8-12.6-7.1-3.6-14.1-6.8-15.4-7.2-2.1-.6-2.3-.5-1.6 1.1 1.9 4.9 4.5 12.8 4.2 13.1-.2.1-2.1-3.8-4.3-8.7-2.1-4.9-4.5-9-5.1-9-.7 0-1.3.4-1.3 1 0 .5-2.4 3.3-5.3 6.2-3 2.9-9.7 10.5-14.9 16.8-5.3 6.3-15.2 17.2-22 24.2-6.9 7.1-11.8 12.8-11.1 12.8.8 0 8.9-3.2 18-7 9.1-3.9 16.7-6.9 16.9-6.8.2.2-2.7 1.7-6.4 3.3-3.7 1.5-10.5 4.6-15.2 6.7-4.7 2.2-9.8 4.2-11.3 4.5-2 .4-2.5.9-1.8 1.6.6.6 1.1 1.8 1.1 2.6 0 1-.3 1.2-.8.5-1.6-2.3-10.5-4.7-32.6-8.5-31-5.5-37.4-6.4-38.2-5.6-.4.3.6 2.2 2.2 4 3.1 3.7 15.1 19.1 21 27.2l3.7 5-3.2-3c-1.8-1.7-5.3-5.9-7.9-9.5-2.5-3.6-5.5-7.4-6.5-8.5s-3.9-4.5-6.3-7.5-5.7-6.3-7.4-7.4c-3.1-1.8-3.2-1.8-5.3.2-1.2 1.1-3.3 2.5-4.7 3.2l-2.5 1.3 2.8-3c1.5-1.6 2.7-3.2 2.7-3.5 0-.8-25.1-3-36.6-3.1-6.8-.1-10-.6-9.7-1.3.2-.6-3.8-5.1-8.8-10-19.1-18.5-56.2-55.5-50.4-50.3 3.3 2.9 15.7 14.9 27.5 26.5s24.6 23.9 28.4 27.3l6.8 6.1 7.7.1c4.2 0 8.5.2 9.5.4 1.1.2 4.7.4 8 .5 12.9.3 16.5 0 18-1.6 1.4-1.4 1.2-2.3-2.5-9.7-5.3-10.5-15.8-29.9-21.9-40.2-2.6-4.4-7.1-12.5-10-18s-5.7-10.6-6.3-11.3c-.5-.7-.7-1.5-.5-1.8.7-.6 2.9 3 9.8 16.1 2.9 5.5 6 11.1 7 12.5.9 1.4 3.3 5.4 5.2 9 12.7 23.9 22.6 40.8 25.1 42.9 2.3 1.8 4.1.2 18.8-17 25.1-29.4 44.4-54.8 42.7-56.4-.1-.2-9.1-1.1-19.8-2s-22.8-2.1-26.9-2.6c-5.2-.6-7.7-.6-8.1.2-.4.6-1.2 11.5-1.9 24.2-1.5 30.2-3.1 48.5-4.2 51.1-.7 1.6-.8 1.1-.5-1.9 2-17.3 5-73.5 3.9-74.5-.4-.4-6.6-2.1-13.8-3.9-14.2-3.4-37.7-9.4-41.2-10.5-1.9-.6-2.3-.4-2.3 1.6-.1 2.2-.1 2.2-1.2.3-.6-1.1-1.2-2.1-1.3-2.3-.2-.2-2 .4-4.1 1.3-6.3 2.7-12.4 4.4-12.4 3.4 0-.5.9-.9 1.9-.9 1.1 0 2.2-.4 2.5-.9s2.8-1.4 5.6-2.1 5.3-1.6 5.6-2.1c1.1-1.8-9.4-40.7-15-55.7l-1.2-3.3-7 11.3c-3.9 6.2-8.4 13.8-10.2 16.8-4.2 7.4-14.8 23.9-13.9 21.5.5-1.3 23.1-39.7 26.3-44.8 2.6-4 2-4.6-2.7-2.1-1.7.8-3.3 1.3-3.7 1-.3-.3-.1-.6.5-.6 1.4 0 28.6-18.1 34.3-22.9 5.3-4.4 16.5-12.1 17.7-12.1.4 0 2.2-1.1 3.8-2.5 3.6-2.9 1.7-3.3-4-.9-2 .8-4.2 1.3-4.8 1.1-.7-.2 2.1-1.4 6.1-2.7 4.1-1.2 7.6-2.9 7.9-3.6.3-1 .9-1.1 1.7-.5 1.3 1 58-12.9 59.9-14.8.6-.6 2.7-1.1 4.7-1.1 1.9 0 10.3-1.3 18.5-2.9 8.3-1.6 16.1-2.9 17.5-2.9s-5.1 1.5-14.3 3.3m404.4 3.6c1.9.6 4.9 1.8 6.8 2.6 18.8 8.4 35.6 15.8 50.9 22.4 10 4.3 20.1 8.8 22.2 9.8 2.2 1.1 4 1.5 4 1 0-.9-4.1-8.8-8.6-16.4-2.6-4.5-5-10.5-3.6-9 .5.5 2.7 4.4 4.9 8.5 6.2 11.8 10.4 18.9 11.5 19.6.5.3 5.1 1 10.1 1.4 11.9 1 25.9 3.1 25.3 3.7-.3.3-6.5-.2-13.8-1.1-19.4-2.3-21.8-2.4-21.8-1.5 0 .5.5.9 1 .9.6 0 1 .6 1 1.3s1.3 3.1 2.9 5.3c2.9 4 37.5 61.3 40.5 67.2 1 1.9 1.5 3.6 1.3 3.9-.6.5-1.4-.7-7.5-11.2-16.9-29.5-35.2-58.8-36-58-.3.3 0 1.1.6 1.7.7.7 1.2 2 1.2 2.9s1.4 5.9 3 11c8.9 27.2 11.2 34.8 15.4 50.6 2.6 9.5 5.3 18.8 6.2 20.8l1.4 3.6 8.5-8.5c8.2-8.1 9.9-10.6 7.3-10.6-.7 0-.5-.5.4-1.3 1.3-.9 1.9-4.5 2.7-16.2 1.3-19.2 1.7-55.3.5-56.5-.5-.5-3.6-1.5-6.9-2.3l-6-1.5 6.5.5 6.5.5-3-1.9c-1.6-1.1-3.7-2.8-4.5-3.8s-6.5-5.5-12.6-10.1c-6.2-4.5-11.5-8.8-11.9-9.4-.4-.7 1.5.4 4.1 2.4 2.7 2 8.1 5.9 11.9 8.5 3.9 2.7 8.6 6.4 10.5 8.3 1.9 1.8 3.9 3.4 4.3 3.5 1.8.2 5.7 4.3 5.7 5.9 0 .8.4 1.3.9.9.5-.3 1.3 0 1.7.6.5.8.3.9-.6.4-1-.6-1.1 0-.7 2.6.3 1.9 1.1 7.2 1.7 11.9.9 7 2.7 16 6.5 32.4q.3 1.8-.6.9c-.9-.9-4.5-16.7-7.3-32.4-.3-2-.9-5.8-1.1-8.5-.6-5.4-2-7.8-2.2-3.6-.5 8.2-2.6 62.3-2.5 65.4 0 2.3.8 4.8 2.2 6.5 4.2 5.4 20.1 19.6 21 18.7.4-.5-.1-4.1-1.1-7.9-1.9-6.7-4.5-17.4-7.4-30-.8-3.3-1.2-6.1-1-6.3.5-.5 2.9 7.9 7.1 25.4 2.1 8.9 4.2 16 4.5 15.8.4-.2.9-3.2 1.3-6.6.9-8.4 3.6-22.1 4.6-23.1.4-.5-.1 2.9-1 7.5-1 4.6-2 11.4-2.3 15.3-.3 3.8-.9 8.6-1.3 10.6l-.6 3.6 6.4 1.2c3.5.7 7.1 1.7 7.9 2.2 1 .7.7.8-1.1.4-1.4-.3-4.9-.9-7.8-1.4-5.1-.8-5.2-.7-5.8 1.8-.9 4.3-9.5 37.4-10.4 40.1-.5 1.4-2.1 7.4-3.5 13.5-1.5 6-3.1 11.8-3.6 12.7-1.4 2.7-1.1 2.9 1.9 1 6.4-4 22.2-15.4 22.2-16 0-.4-.4-2.2-1-4.1-.5-1.8-1.2-6.6-1.6-10.5-.3-3.9-1-8.9-1.4-11.1-.5-2.2-1.1-7.4-1.4-11.5-.4-6.1-.3-6.7.4-3 .7 3.8 5 35.6 5 37.4 0 .3.4.6.9.6.8 0 3.2-9.6 5.2-21 1.3-7.5 3.9-16.4 4.6-15.6.3.2-.9 6.7-2.6 14.3-1.6 7.6-3.3 15.6-3.7 17.8l-.6 4 3.7-3.5c2.1-1.9 4.5-4.2 5.4-5 3.1-2.9 6.1-7.8 6.2-10.2.1-2.5-2.6-14.5-4.4-19.3-.7-1.7-1.1-3.4-.9-3.8.1-.5-.2-.6-.6-.3-.5.3-.7 1.8-.5 3.3.4 2.7.4 2.7-1.1.9-1.1-1.4-1.3-2.4-.5-3.8 1.2-2.2.4-10-1.7-18.3-.9-3.3-2.4-9.6-3.4-14-1.1-4.4-2.6-10.5-3.5-13.5s-2-7.8-2.6-10.7c-.5-2.9-2.1-6.9-3.5-9s-6.1-11.1-10.4-19.9c-4.3-8.9-8.3-16.5-8.9-16.9-.6-.3-1.1-1.4-1.1-2.3 0-2.6 5.1 6.2 12.9 22.3 3.9 8.2 8.3 16.6 9.6 18.5s3.3 7.5 4.5 12.5c1.2 4.9 2.8 11.9 3.7 15.5.8 3.6 1.8 6.9 2.2 7.5.3.5 1.8 6.6 3.3 13.5 2.9 13.8 5.6 24.5 8.4 33.4 1.6 5.1 1.7 6 .4 7-2.1 1.6-5 6.2-5 8 0 .8 1.4 3 3 4.8 1.7 1.8 3 3.7 3 4.3 0 .5-1.4-.7-3.1-2.8-1.7-2-3.7-3.7-4.5-3.7-2 0-11.3 7.2-11.3 8.7-.1.7-.8 1.3-1.6 1.3s-1.5.4-1.5 1c0 .5-.7 1-1.6 1-.8 0-6.4 3.6-12.3 8l-10.9 8-.7 5.5c-.5 4.2-.3 5.8.9 7 2 2 2.7 1.9 5.5-1 1.3-1.4 2.8-2.5 3.5-2.5 1.3 0 5.9-7 9-13.5 3.3-7.1 4.2-6.3 1.1 1-3.5 8.1-4.3 11.5-2.6 11.5 1.1 0 10.8-5.7 16.6-9.8 4.3-3 4.3-2.9 5.5-16.7l.7-9v9.8c0 5.4.3 10 .6 10.3.3.4 2 .2 3.6-.4 3.8-1.4 4.1-.5.4 1.1-1.6.7-6.3 3.8-10.6 7.1-6 4.4-7.6 6.1-6.7 7 .8.8 1.5.7 2.4-.7.7-.9 1.9-1.7 2.7-1.7s2.2-1.5 3.3-3.3c2.3-4 3.4-1.9 1.2 2.4-.9 1.8-1.6 3.5-1.6 4 0 1.8 3.4-.1 6.8-3.9 2.1-2.3 4.1-4.2 4.5-4.2s-1.1 2.8-3.3 6.2c-4.4 6.7-4.2 8.2.9 8.6 3 .2 3.6-.5 3.2-3.7-.2-.7.2-1 .7-.7.9.5 1.9-4.1 3.6-16.7.5-3.5.3-3.8-1.7-3.2-2.2.6-2.1.6.2-1.5 2.1-1.8 2.3-2.7 1.9-7.3-.5-5-.5-5 .6-1.7.6 1.9 1.4 4 1.9 4.7.7 1.2-.1 4.3-1.2 4.3-.3 0-.6 2.1-.6 4.7-.1 8.9-1.6 20.7-3.5 26.1-1.7 4.9-1.8 5.9-.5 12.5.9 4.6 1.1 8.6.6 10.7-1.1 4.7-4.3 12.4-5.4 13.1-.5.4-.7 5.1-.5 10.5.6 18 .1 38.8-1 42.9-1.1 4-1.1 4-.6-1.3.4-3.4.2-5.2-.5-5.2-.6 0-1.1.8-1.1 1.7-.1 1.8-2.9 7.5-3 6-.1-2.6 3.4-10.6 4.4-10 .6.3.4-.1-.4-.9-1.6-1.6-10.4-3.8-15.1-3.8-1.9 0-2.9.5-2.9 1.5 0 3.6 4.3 13.8 7.5 18.1 1.9 2.5 3.5 5.3 3.5 6.2s1.1 3.4 2.4 5.6c2.2 3.5 2.3 4.2 1.2 8-1.3 4.2-5.5 12.7-5.6 11.3 0-.5-1.2.1-2.6 1.2-1.5 1.2-3.8 2.1-5.3 2-2.3-.1-2.2-.2.9-1.1 4.5-1.2 8.2-5.6 10.2-11.9l1.6-5-6.1.7c-7.6.8-7.9 1-7.2 3.7.5 1.9.4 2-.5.5-1.4-2.3-6.2-1.4-11.5 2.2-2.2 1.5-6.9 4.2-10.5 6.1l-6.5 3.3 3.5.7 3.5.6-4 .3c-11.6.6-15.5 1-17.9 2-1.5.5-3.7 1-4.9.9-2.5 0 4.7-2.3 10.7-3.4 3.2-.5 3.7-.9 2.5-1.9-1.6-1.5-11.9-7-16.4-8.7-1.6-.6-2.5-1.3-1.8-1.6.7-.2 5.8 1.8 11.4 4.6s10.8 5.1 11.6 5.1c1.9 0 22.3-11.5 22.3-12.7 0-.6-6.4.5-9.7 1.7-2.6.9-4.5.9-9.5-.3-4.8-1.2-8.7-1.4-16.6-.8-5.6.4-10.7 1.2-11.1 1.7-.5.5-1.1 2-1.3 3.4-.8 5.2-2.6-4.7-2.1-11.7.6-8.8-.8-7.6-4.8 4.3-3.9 11.5-8.9 29.1-8.8 30.7q0 1.35.6 0c.2-.7 2.7-1.6 5.5-1.9 3.9-.5 5.2-1.2 6-3 .7-1.5 2-2.4 3.5-2.4 1.4 0 2.3-.6 2.3-1.6 0-.9.3-1.4.8-1.2 10.9 5.2 13.2 6.4 13.2 7.1 0 .4-1.7 0-3.7-.9-6.2-2.7-7.4-2.9-6.7-1 .3.9 1 1.6 1.5 1.6s.9.8.9 1.8c0 .9 1.7 5 3.8 9 4.8 9.2 6.4 8.3 5.8-3.1-.5-9.4.9-9.3 1.8 0 .3 3.8 1 9 1.4 11.8l.7 5 1.3-6c1.5-7.4 4.2-14.5 5.4-14.5.5 0 .7.9.3 1.9-.3 1.2.3 3.7 1.5 6.1 1.1 2.2 1.9 4.4 1.6 4.9-.3.4.4 4.8 1.5 9.7s2.2 9.9 2.5 11.2l.5 2.3 3-2.1c2.7-2 2.9-2.5 2.3-5.8-.4-2.1-2.2-5.7-4.1-8.1-4.3-5.7-4.2-7.7.2-2.7 1.9 2.2 3.5 3.6 3.5 3.3 0-.4-.9-4.9-2.1-9.9-1.1-5.1-1.8-10.1-1.5-11 .2-1 0-1.6-.5-1.2-1.2.7-1.1-.7.1-2.6.7-1.1 1.1-.9 1.9 1.3.6 1.6 1.1 3.9 1.1 5.3 0 1.3.9 5.7 2.1 9.7 1.2 3.9 2.3 8.2 2.6 9.4 1.3 5.5 1.8.5 1.2-11.7-.5-9.4-1.1-13.5-2-14.1-.7-.4-1-1.1-.7-1.4 1.5-1.5 2.6.8 3.7 8 .7 4.1 1.1 10 1 13s0 5.8.4 6.1c1.6 1.6 2.6-5.3 2.3-15.8-.3-12.2 1-9.7 1.6 2.9.2 4 .6 7.3 1.1 7.3.4 0 .7-.6.7-1.4s1.4-4.8 3-8.9c1.7-4.2 3-8.4 3-9.6 0-1.1.4-2.2.9-2.5.5-.4.5 1 0 3.2-.5 2-1.4 5.8-1.9 8.4s-1.6 6.3-2.5 8.4c-.8 2-1.5 4.5-1.5 5.6 0 3.4-3.1 15.8-3.9 15.4-.4-.3-.5.8-.3 2.5s0 2.9-.7 2.9c-.6 0-.8 1.1-.4 3 .3 1.8.1 3-.5 3s-1.3.9-1.7 1.9c-.4 1.3-1.2 1.7-2.6 1.4-2.5-.7-4.1 1.4-3.3 4.2 1.3 4.8 2.7 7.5 4 7.5.8 0 1.4.9 1.3 2.2-.1 1.7-.2 1.9-.6.6-.2-1-1.2-1.8-2.1-1.8-.9-.1-2.6-1.5-3.8-3.3-1.6-2.6-2.6-3.1-4.8-2.9-5.5.6-7.6 2.9-7.7 8.6-.1 5.2-.3 5-1.4-1.7-.4-2.4-1.1-3.7-2.1-3.7-1.7 0-16.4 10.7-16.4 12 0 1.2 5.3 2.8 14 4.2 4.3.7 7.7 1.5 7.5 1.9-.3.3-6.6-.6-14.2-2.1-7.7-1.5-17.8-3.3-22.6-4l-8.7-1.3-4.8 3.2-4.7 3.3 4.4-4 4.5-3.9-2.5-1.5C925.6 538.9 907 529 906 529c-1.9 0-3.9-2.6-3-4 .4-.7 1.2-1 1.7-.7 2 1.2 18-19.3 16.7-21.4-.3-.6-2.7-2-5.3-3.1-10.8-4.6-24.1-11.1-23.6-11.6.5-.6 5.6 1.6 20 8.4 10.2 4.8 10.1 4.9 12.9-3.6 1.1-3 2.3-5.9 2.7-6.5 1.6-1.7.9-4.5-1.9-7.2-1.5-1.6-3.4-3.7-4.2-4.8-1.4-1.9.9-.2 5.8 4.3 2.2 1.9 3.7 0 5.7-7.1.9-3.4 3.2-10.3 5-15.2 4.2-11.4 10.9-35.4 10.1-36.3-.4-.3-4.3 4.4-21.4 26.1-4.5 5.8-9.4 11.7-10.9 13.1-2.2 2.3-2.4 3-1.5 5 .6 1.4 1.4 5.1 1.8 8.3.3 3.2 1.5 8.5 2.5 11.8 1.8 5.8 2.5 10.4 1.4 9.3-.7-.7-4.3-15.7-4.9-20.1-.4-3.5-2.6-8.7-3.6-8.7-.9 0-20.5 20.2-21.7 22.5-.9 1.5-1.4 1.7-2.6.7-1.5-1.3-2.9-8.5-1.5-7.6.4.3.8 1.4.8 2.5 0 3.1 2.7 2.2 7.2-2.4 10.6-10.7 16-16.8 16.2-18.4.1-1 1.6-2.4 3.2-3.2 2.7-1.2 16.2-17.2 20.9-24.5 2.3-3.7 6.2-8.9 12.3-16.5 2.3-2.9 4.1-5.6 3.8-5.8-.6-.7-22-3.2-27.2-3.3h-4.1l.4 4.5c.3 2.9.1 4.5-.6 4.5-.6 0-1.1 1.9-1.2 4.2 0 2.4-.4 6.1-.8 8.3-.8 3.6-.9 3.2-1-3.5-.2-13.1-.1-13.1-9.7-2.7-4.6 5-8.4 9.4-8.4 9.9 0 .4-.7.8-1.5.8-.9 0-1.5-.9-1.5-2.2 0-1.2-1.4-4.6-3.1-7.6s-2.8-5.6-2.6-5.8 2 2.8 4 6.7l3.7 7.1 2-2.4c4.3-5.1 10.6-13.1 11.6-14.9.6-1 1.9-2.8 2.9-3.9s1.6-2.2 1.4-2.4-6 .3-12.9 1.1c-11.3 1.4-12.7 1.8-14.9 4.1-2.3 2.5-2.4 2.6-1.9.5.4-1.6.1-2.4-1.1-2.7-1.4-.4-14.5-2.9-22.1-4.2-1.4-.3-3.6-.9-5-1.4s-6.8-2-12-3.4-10.2-2.7-11-3c-5.1-1.6-7-1.6-7 0 0 1.5-.2 1.5-2.2.2s-3-1.3-7.3-.2c-6.6 1.8-9.3 1.6-3.5-.2 7.7-2.4 7.5-2.2 5.5-4.4-1-1.1-2.2-2-2.6-2s-3.4-1.7-6.6-3.9c-13.8-9.2-28.2-18.1-29.1-18.1-1.1 0 .7 7.9 2.8 12.5.5 1.1 1.1 3.6 1.4 5.5s-.8-.3-2.4-5-3.2-9.9-3.4-11.5c-.3-2.8-.7-3-4.2-2.9-3.4.1-3.6 0-1.6-.9 1.2-.5 2.2-1.3 2.2-1.8 0-.4-3.7-3.1-8.2-6-11.9-7.9-20.9-13.9-26.9-18.2-3-2-5.8-3.7-6.4-3.7-.5 0-2.3-1.9-4-4.3-1.6-2.3-4.6-6-6.5-8.2-2-2.2-4.2-4.9-4.9-6-1.3-1.9 2.9 2.4 12.4 12.7 2.3 2.6 10.2 8.7 17.5 13.5s16.9 11.2 21.3 14.1l7.9 5.3-.7-18.6c-.4-10.3-1-19.9-1.4-21.3-.7-2.7-4.5-4.6-22.1-11.2-12.2-4.6-28-11.4-27.5-11.8.4-.4 17.7 5.9 24 8.9 8.2 3.8 23.5 9.9 25 9.9.8 0 1.5-.6 1.5-1.3 0-.9.2-.9.9.1 1.1 1.7 2.7.9 22.4-11.2 8.2-5 16.4-10 18.3-11 1.9-1.1 3.4-2.5 3.4-3.3 0-.7-2.4-6.3-5.3-12.5-6-12.6-12.9-27.5-22.4-48.3-8.7-19.1-9.7-21-11.1-20.8-1.1.3-1.7-1.7-1.3-4 .2-1.4-1.8-1.8-40.4-8.2-11.5-1.9-26.6-4.5-33.3-5.7-9.9-1.7-12.8-1.9-14.3-1-1.2.8-1.9.8-1.9.2 0-.5-.7-1-1.6-1-1.4 0-1.4-.2 0-1.5.8-.8 1.9-1.5 2.4-1.5 1.3 0 15.1-19.5 28.8-40.5 4.3-6.6 9.3-13.8 11.1-16.1 3.4-4.2 4-8.6 1.6-11.6-.5-.7-1.3-2.2-1.6-3.3-.6-1.8-.6-1.8.5-.3.7.9 2.1 3 3 4.7l1.7 3.1 3.8-2c2.1-1.1 4.1-2 4.5-2 .5 0 6.6-2.5 13.6-5.6 12.9-5.7 15.7-7 24.8-11.7 2.8-1.5 6.7-2.9 8.5-3.1 1.9-.3 7.9-2.1 13.4-4.1s14.3-4.7 19.5-6.1c13.2-3.4 13-3.3 10-4.9-3.1-1.7-2.4-1.9 2.1-.4m-637.7 206c.8.9 1.7 2.6 2.1 3.8.3 1.2 1 2.1 1.4 2.1s1.3 1.2 1.9 2.6c1.9 4.1 3.5 1.8 2.8-4-.5-3.6-.3-4.7.4-3.6.5.8 1 3.4 1 5.7 0 4.8 1.4 5.7 2.4 1.7.4-1.5.9-2.4 1.3-2.1.3.3-.2 2-1.1 3.8-1.8 3.6-2.1 5.9-.7 5.9.6 0 2.7 1.6 4.8 3.6 2.1 1.9 5.8 4.9 8.3 6.7 2.5 1.7 7.3 5.3 10.6 7.9 3.4 2.6 6.4 4.8 6.8 4.8.3 0 .7-4.4.8-9.8l.2-9.7.3 9.7c.2 5.5.8 9.8 1.4 9.8.5 0 5.9-2.5 12-5.6 6.1-3 11.3-5.4 11.5-5.1.2.2-5.5 3.4-12.6 7.2-9.9 5.3-13 7.4-13.1 8.9-.2 2-.2 2-.6-.1s-.7-2-6.6 2c-3.4 2.4-8.8 5.8-11.9 7.7-3.2 1.9-5.9 3.9-6.2 4.6-.2.6.6 2.5 1.9 4 1.2 1.6 5.1 6.4 8.5 10.6 3.4 4.3 6.8 7.8 7.7 7.8.8 0 2.7-.9 4.1-2.1 1.5-1.1 7-4.8 12.2-8.1 5.2-3.4 11.3-7.2 13.5-8.6 2.2-1.5 5.9-4.1 8.2-6 2.4-1.8 4.7-3.1 5.2-2.8s5.3-.6 10.6-2 9.9-2.4 10.1-2.1c.2.2-4.1 1.7-9.6 3.3s-10 3.2-10 3.5c0 .6 2.6 4 13 16.9 8.4 10.4 19.9 26.2 16.3 22.5-2.1-2.3-7.6-9-12.3-15s-10.6-13.6-13.2-16.9c-2.7-3.3-4.8-6.3-4.8-6.8 0-2-3.4-.1-19.4 10.7-17.5 11.8-22.2 15.3-21.5 15.9.8.8 17.7 5.6 22.6 6.6 6 1.1 28.2 6.9 42.7 11.1 11.5 3.4 12 3.4 11.2 1.3-.4-1.1.3-.8 2.3.8 1.7 1.3 3 2.8 3 3.4.1.6.8 1.7 1.7 2.4.8.8 2 2.3 2.6 3.4.6 1.2-1 .1-3.4-2.3-4.1-4-5.5-4.7-16.9-7.7-6.8-1.9-16.6-4.6-21.7-6-13.1-3.6-17.2-4.1-18.4-2-1.3 2.4-3.5 1.9-5-1.1-1.1-2.2-2.9-3.2-10.3-5.4-11.9-3.6-13.5-3.7-13.6-.2-.2 2.4-.2 2.5-.6.5-.2-1.2-.8-2.2-1.2-2.2-.5 0-.6-1-.4-2.3.3-1.7-1.1-4.2-5.6-9.5-3.4-4.1-6.9-8.4-7.7-9.8-2-3-2.8-3-4.3-.2-1 2-1.1 1.9-.6-1.5.7-4.1-.1-4.7-7.6-6.1-3.5-.6-3.6-.5-3.1 2 .6 3-1.7 16.2-3 17-.4.3-.8-.1-.8-.8 0-1-.3-.9-1 .2-.8 1.3-.9 1.3-1.4 0-1.3-4.2-2.8-13-3-17-.1-3.8.2-4.5 1.7-4.2 2.6.4 2-2.3-1.1-5-2.8-2.4-4.8-6.8-3.1-6.8.5 0 .9.3.9.7 0 .5 1.6 2.6 3.6 4.7 2.8 3.1 3.8 3.6 4.5 2.5.8-1.3 1-1.1 1.3 2 .1 1.3 3.7 3 9.9 4.5 2.3.5 2.7.3 2.8-1.6v-2.3l.9 2.3c.9 2.2 1.1 2.2 9.7-3.4 4.9-3.2 10.3-6.6 12.1-7.7 3.9-2.3 4-3.1.6-5.4-1.4-1-4.2-3.2-6.2-4.9-5.5-4.6-21-16.4-21.6-16.4-.3 0-.3 1.5-.1 3.2.5 2.9.4 2.8-.8-.7-.9-2.8-2-4.1-3.7-4.6-1.6-.5-1.9-.7-.7-.8 2.2-.1 2.1-.9-.3-4.9-1.2-1.9-2.8-3.2-4-3.2-1.6 0-2-.7-2-3 0-1.7-.7-4.3-1.6-5.8-1.5-2.5-1.5-2.6 0-.7.9 1.1 2.3 2.7 3 3.6m151.4 20.3c-2.5 1.8-2.2 2.9.5 2 1.2-.4 3.3-.7 4.6-.6 2.8.2 10 4.2 10.2 5.6.1.6.5-.7.9-2.9l.7-4 .2 4.2c.1 4 .4 4.4 4.4 6.4 5.8 3 11.5 9.3 11 12.2-.2 1.2 0 5 .5 8.4.5 3.5.5 6.3 0 6.3-.4 0-.8-.9-.8-1.9 0-2.3-.4-2.6-4.9-3.6l-3.4-.7.5 4.6c.3 2.5.2 4.9-.3 5.2s-.9-1.6-.9-4.1c0-4.5-.3-5-7.2-11.9-4-4-8.3-7.8-9.5-8.5-1.3-.6-2.3-1.8-2.3-2.6 0-2.1.6-1.9 5.7 2 2.5 1.9 5.5 3.5 6.6 3.5 1.9 0 1.9-.1-.3-2-1.3-1.1-3-2-3.9-2s-2.2-.9-2.9-2-1.9-2-2.7-2c-.9 0-2.8-1.2-4.4-2.8-4.6-4.5-6.6-5.9-8.1-5.4-2.7.8-5 3.5-5 5.8 0 1.7-.4 2.1-2 1.7-1.4-.4-3.3.9-7 4.8-2.7 3-5 5.7-5 6.1 0 1.3 1.6 1.7 3 .7 1.3-.7 1.3-.9 0-.9-1.1-.1-1.1-.3.3-1.1 1-.6 2.1-.8 2.4-.5.4.3.1.6-.5.6s-.9.7-.6 1.5c.4.8-.1 1.7-1 2.1-2.8 1.1 0 3.1 3.6 2.6 4.2-.6 2.6 1.3-1.9 2.3-2.6.5-3.4.2-4.3-1.5-.7-1.4-1.7-1.9-2.7-1.6-1.3.5-1.4.4-.3-.9 2-2.4-1.6-3.1-6.9-1.1-2.5.9-5 1.6-5.6 1.6-1-.1 7.8-3.9 10.5-4.5.8-.2 1.6-.4 1.8-.4.1-.1.3 0 .5.1.2.2 3.6-3.4 7.7-7.9 5.5-6.3 8.7-9 13.4-11.2 6.8-3.3 8-3.7 5.4-1.7m12.9 31.1c1.8 2.1 3.1 4.5 2.8 5.3-.9 2.3 6 14.2 8.3 14.2.6 0 1.8 1 2.6 2.2l1.5 2.2.9-2.4c.8-2.3.9-2.2 1.5 1 .9 4 .5 4.5-2.2 3.1-2.6-1.4-4.1 1-4.1 6.7 0 3.8-1.8 6.5-4.4 6.8-.6 0-1.6.2-2.2.2-.7.1-1.4 1.2-1.7 2.4-.4 1.3-1.2 3.1-1.9 4.1-1.1 1.5-1.3.8-1.3-4.8 0-4.8.3-6.4 1.3-6 .6.2 1.2 0 1.2-.5 0-.6-.6-1-1.4-1-2 0-2.6-1.2-4.1-7.9-1.6-6.8-3-29.5-1.9-31.3.6-.9.9-.9 1.2.2.3.8 2 3.3 3.9 5.5m263.1 38.7c2.4 2.4 6.4 6.3 8.9 8.8l4.6 4.5.9-2.5c.5-1.4.8-4.4.6-6.8-.2-2.3-.2-4.2-.1-4.2s.9.3 1.8.6c1.3.5 1.5 1.5.9 5.3-.4 2.5-1.1 5.1-1.5 5.7-1.8 2.2 7.5 6.5 14.8 6.8 2.7.2 5.5.6 6.1 1 1.7 1 1.5 2.6-.3 2.6-1.5 0-1.9 1.1-1.5 4 .3 2.1 1 2.6 1.8 1.3.4-.7 2.7-1.3 5-1.4 2.4-.2 4.8-.9 5.4-1.6.8-1 .7-1.3-.2-1.3-.8 0-1.1-.3-.7-.6.3-.3 1.5 0 2.6.8 1.2.8 1.8 1.8 1.4 2.1-.3.4-.2.7.3.7.6 0 1.5-.5 2.2-1.2 1-1 1.6-.7 2.8 1 .9 1.3 2.1 2.1 2.7 1.9.7-.2 2.1 0 3.2.6 1.9 1 1.8 1.1-1 1.8-1.6.4-7.7 2.1-13.4 3.9-9.3 2.8-10.9 3.1-14.3 2-2.2-.6-4.2-1.8-4.5-2.6-.3-.7-.9-1.1-1.4-.8-1.1.7-7.4-2.3-9.1-4.4-.7-.9-.8-1.4-.3-1.1.6.3 2.8 1.3 5 2.3 2.2 1.1 4.8 2.3 5.7 2.7 1 .5 2.5.9 3.3.9s1.5.4 1.5 1c0 .5.5 1 1.1 1 1.2 0 .7-2.9-1.3-7.7-.6-1.5-1-3.6-.9-4.6.1-.9-.2-1.7-.8-1.7s-.8.7-.5 1.5c.8 2.1-.3 1.9-2.9-.6-2.4-2.3-11.8-6.9-14.2-6.9-.7 0-2-.6-2.7-1.4s-4.9-5.1-9.2-9.5c-8.1-8.3-9.6-11.4-1.8-3.9m305.8 199.5c.4-.4 1.6 0 2.6.9 1.4 1.4 2 1.4 3.3.4 1.3-1.1 1.4-1 1 .3-.6 1.3.5 1.5 7.7 1.1 4.6-.2 12-.9 16.6-1.5 8.5-1.2 12.9-.6 5 .6-7.2 1.1-7.2 1.2-5.9 10 .6 4.3.9 8 .7 8.3-.6.5-1.1-2-2.3-10.3l-.8-6-9 .4c-4.9.2-9.9.7-11 1.1-1.9.7-1.9.7.2 1.9 1.2.6 4.2 2.8 6.6 4.9 2.5 2 7 5.5 10 7.6 3.1 2.2 5.3 4.4 5 4.9s-1.7-.2-3.2-1.6c-1.4-1.3-4.8-3.9-7.6-5.8-2.7-1.8-7.2-5-9.8-7.1-2.7-2.1-5.7-3.8-6.7-3.8s-2.2-.5-2.6-1.1c-.3-.6-2.6-1.9-5-2.9-5.6-2.4-5.7-3.2-.3-1.3 2.3.7 4.7 1.2 5.3.9.6-.2.3-.5-.6-.5-.9-.1-2.4-1.6-3.2-3.4l-1.6-3.2 2.5 3c1.3 1.6 2.7 2.6 3.1 2.2m269.4 90.8c0 .7.6 1.8 1.3 2.2.8.4 2.2 3.5 3.2 6.8 1.9 6.3 3.5 9.1 3.5 6.2 0-.9.3-1.7.8-1.7.4 0 1.8-3.4 3.1-7.5 1.9-5.6 2.9-7.5 4.3-7.5 1.6 0 1.4.9-1.6 9.2-1.8 5.1-3.6 10.9-4 12.9-.6 3.2-.9 3.6-3.1 3.2-1.9-.4-2.8-1.7-4.3-6.2-1.1-3.1-3.1-8.6-4.5-12.4-2.5-6.4-2.5-6.7-.7-6.7 1.1 0 2 .7 2 1.5m19.5 6.7c-.5 2.1-.5 2.1.9-.2.9-1.4 1.5-2.1 1.6-1.5 0 .5 1.9 1 4.3 1 2.8 0 5 .6 6.1 1.7 1 1 2.3 1.8 3 1.8.8 0 1.9.7 2.6 1.5 1.1 1.3 1.6 1.1 4-1.5 3.9-4.1 7.1-4.7 12.2-2 5.3 2.7 8.8 5.9 8.8 7.9 0 1.4-.1 1.4-1 .1-1.3-2-1.3.1.1 3.6 1.1 3.2-.2 6.9-3 7.9-1 .4-.8-.2.7-1.8 1.2-1.3 2.2-2.9 2.2-3.6s-1.2.2-2.7 2c-1.6 1.8-2.7 3.7-2.5 4.1.3 1.2-3.6 1-6.1-.4-1.2-.6-4.2-2.7-6.6-4.7-3.7-3-5.1-3.6-9-3.5-4 .1-4.1 0-1.1-.4 3.3-.6 3.1-.6-2-1.3l-5.5-.7 6 .1c6.8.1 8.2-1.5 4.3-4.9l-2.3-1.9 1.8 2.1c2.7 3.3 2 3.4-2.9.7-3-1.7-4.9-2.2-5.5-1.6-.7.7 0 1.4 2 2.1 3.6 1.3 4.1 2.4.9 2.1-3.1-.3-5.9 1.1-5.1 2.5.3.6-.3.2-1.5-.8-2.4-2.1-3.6-1.8-2.7.6.7 1.8 7.3 4.9 8.1 3.7.3-.5 1.5-.9 2.7-.9l2.2.1-2.4 1.9c-1.9 1.6-2 2.1-.8 2.6.9.3 2.6 0 3.9-.6 2.2-1.1 2.2-1.1.3.5-1.3 1-3 1.4-4.8 1.1q-2.85-.6-2.1.6c.9 1.4-1 .3-5.8-3.5-2.1-1.6-3.8-3.5-3.8-4.2s-.9-1.5-2-1.8-2-1.1-2-1.9c0-1.1.2-1 .9.1.6 1 1.1.5 1.7-2 .5-1.9.9-4.1 1-4.9.3-3.4.4-4 1-4 .3 0 .3 1-.1 2.2"/><path d="M408.8 89.6c-.5.4-22.2 6.2-34.8 9.1-18.9 4.5-24.5 6.3-24.3 7.8.1 1.3-.2 1.4-1 .6-1.6-1.6-2.1-1.4-5.5 1.9-1.8 1.6-3.7 3-4.3 3-.8 0-.8.4 0 1.4.9 1.1.9 1.6 0 2.1-.6.4-1.5.2-1.9-.6-.9-1.4-1.7-1-6.7 3.5-1.7 1.4-2 2.2-1.2 3.2 1.4 1.7.4 4.4-1.6 4.4-1.3 0-1.9-1.2-1.6-3.3.2-1.3-.9-.8-5.2 2.4-2.3 1.6-8.2 5.7-13 9.1-4.9 3.3-8.6 6.2-8.4 6.5.8.7 41.9-1.7 45.9-2.8 2-.5 9.6-1.2 17-1.4 17.7-.7 17.9-.8 13.7-5.2-1.9-1.9-8.2-7.6-14.1-12.6-6-5-10.8-9.2-10.8-9.5 0-.5-.1-.6 9.8 7.2 4 3.2 10.2 8.5 13.7 11.7l6.3 5.9 3.3-4.2c1.9-2.3 6.2-8.7 9.6-14.2 13.2-21.5 15.4-24.8 15.9-24.4.4.5-7.1 13.2-19.5 32.8-3.3 5.2-5.8 9.6-5.6 9.8.4.4 16.2-4.8 28-9.3 5-1.8 13.7-5 19.5-7.1 5.8-2 11.6-4.1 13-4.7 2.9-1.2 2.5-1.1 6.8-2.1 2.6-.6 3.1-1.1 2.2-2.1-.6-.7-2.2-1.6-3.5-1.9s-5.9-2.2-10.2-4.2c-18.9-8.8-27.6-12.3-28.5-11.8-.6.4-1.3.1-1.7-.5s-1-.9-1.3-.5M366 138.2c-13 .9-14.9 1.3-16 4.1l-.9 2.2-.7-2.3c-.6-2-1.2-2.2-7.4-2.2-6.7 0-27.7 1.4-37.7 2.6-4 .4-5.3 1-5.3 2.1 0 .9 1.5 6.6 3.4 12.7 1.8 6.1 5.5 18.4 8.1 27.3l4.8 16.1 5.6-5.2c3.1-2.9 8.9-8.4 12.8-12.1 4-3.7 7.5-7.6 7.8-8.6.4-1.1 1.2-1.9 1.8-1.9 1.6 0 35.1-33.5 34.6-34.6-.2-.5-5.1-.6-10.9-.2M510 141.2c1.4 1.1 3.4 1.8 4.7 1.5 1.2-.2 2 0 1.7.5s-1.6.8-2.7.7c-5-.3-6.2 1.1-5.1 6.6.5 2.7 1.3 3.5 4.5 4.5 2.7.9 3.9 1.9 3.9 3.2 0 1-.5 1.8-1.1 1.8-1.7 0-3.9 2.7-3.9 4.9 0 3 2.9 5.9 5.1 5.4 2.2-.6 2.5-1.9.7-2.6-.7-.3 1.1-.6 4-.6 3.1-.1 5.2-.5 5.2-1.2 0-.6.9-.9 2-.6 1.3.3 2 0 2-.9 0-.8.8-1.4 1.8-1.4 1.5 0 1.5.2.2 1.1-1.2.9-1.2 1 .3.5 1-.3 2.2-.6 2.5-.6.4 0 0-.5-.8-1-1.3-.9-1.3-1.1 0-2q1.5-.9 1.8 0c.6 1.7 2.2 1.1 2.2-.9 0-1 .7-2.4 1.5-3.1 1.1-1 1.2-1.5.2-2.4-2.2-2.2-5.7-3.7-6.9-3-.6.4-.8.3-.5-.3.7-1-4.9-4.3-7.2-4.3-.6 0-1.1-.6-1.1-1.3 0-.8-.4-.7-1 .3-.9 1.3-1 1.3-1-.1 0-.8-2.1-2.5-4.6-3.7s-4.2-1.7-3.8-1.1c.4.7.2 1-.7.7-.8-.3-1.3-.9-1.2-1.4s-1.1-1-2.5-1.1l-2.7-.1zM381.8 151.5c-.3 3.3-1.5 12.7-2.6 21-1.1 8.2-2.2 19.8-2.6 25.6l-.6 10.7 3.3-.5c2.5-.3 5.5-2.3 11.3-7.9 12.5-11.8 13.4-12.7 13.3-13.8 0-.6-.3-.5-.6.2-.4 1-.8 1-1.9.1-1.6-1.3-1.9-6.6-.5-8.8.6-1 .1-2.7-1.6-5.5-1.4-2.2-2.9-5.2-3.3-6.6s-1.3-2.4-1.9-2.2c-.7.1-1-.2-.6-.8.3-.5 0-1.9-.8-3.1-1.1-1.5-1.6-1.7-2.1-.7-.3.7-.5-.1-.3-1.7.1-1.9-.3-2.9-1.1-2.8-.6.2-1.2-.2-1.2-.8 0-.5-.6-.7-1.2-.3-.9.5-.8.2.1-1 1.2-1.4 1.2-1.9.1-2.9-1-1-1.2-.9-.7.5.4 1.2.1 1.8-.8 1.8-1 0-1.6 1.1-1.7 3.2-.1 1.8-.4.4-.7-3.2l-.7-6.5zM366.1 154.5c-4.3 4.5-5 5.9-4.5 8 .4 1.8.2 2.7-1 3.1-.9.3-1.3 1.1-1 1.6.4.6-.4.5-1.6-.2-1.5-.8-2-.8-1.6-.1.4.6.1 1.1-.7 1.1-.9 0-1.7 1.5-2.1 4-.3 2.2-1.1 4-1.7 4-1.1 0-3.9 2.5-3.9 3.4 0 .3.8.6 1.8.6 2.7 0 7.2 2.3 7.2 3.8 0 .7-1.4 1.5-3 1.9-1.7.3-3.3 1-3.6 1.4-.3.5-1.9.9-3.5.9-2 0-2.9.4-2.6 1.2.2.7-.6 2.4-1.8 3.8-1.7 1.8-2.1 3-1.5 4.5.7 1.7.9 1.7.9.2.1-.9.6-1.7 1.2-1.7.7 0 1 2.2.7 6.2l-.3 6.3 5-.3c4.3-.3 5.5 0 7.8 2.2 3.4 3.1 8.7 4.7 11.2 3.4 1.2-.7 1.6-.7 1.1 0-.9 1.4.7 2.3 2.3 1.3.8-.5 1.4-3.3 1.5-7.2.1-3.5.5-7.1.8-7.9.9-2 2.6-18.2 3.4-31.2.6-9.4.5-10.8-1-11.4-.9-.3-1.6-1.2-1.6-1.9s-.5-1.5-1-1.7c-.6-.2-1.2-1.3-1.3-2.6 0-1.2-.2-2.2-.3-2.2 0 0-2.4 2.5-5.3 5.5M548 162.7c-.8.3-2.8 1.1-4.5 1.8-6.1 2.6-6.7 2.8-11.3 3.9-1.8.4-3.1 1.3-2.9 1.9.4 1.4-3.5 4.7-5.6 4.7-.9 0-1.7 1-1.9 2.2-.2 1.3-.8 2.3-1.5 2.3-.6 0-1.5.3-1.9.7-.4.5 0 .8.9.8.8 0 2.2.6 2.9 1.3 4.5 4.4 19.2 14.8 20.3 14.3.7-.2 1.6.2 1.9 1s1.2 1.4 2.1 1.4c.8 0 1.5.8 1.5 1.9 0 1 .7 2.5 1.6 3.2 2.8 2.3 4.4-1.4 4.4-10.3 0-4.3-.3-7.8-.7-7.8-.5 0-.6-5.4-.5-12 .3-11.1.2-12-1.5-11.9-1 0-2.5.3-3.3.6M515.4 183.1c-.4.8-.3.9.4.5s1.2-.1 1.2.8-.6 1.6-1.4 1.6-1.7 1.1-2 2.5c-.4 1.4-1 2.4-1.4 2.4-1.8-.3-3 .2-2.9 1.3 0 .7-.1 2.9-.2 4.8-.1 2.7-.4 3.1-1.1 2s-1-.7-1.1 2c-.1 1.9-.3 4.4-.5 5.5s-.7 4.7-1 8-.8 6.7-1.1 7.5c-.9 2.2-.8 1.6-2.2 12.5-1.7 13.1-1.3 16.9 1.7 17.3 1.2.2 2.2 1 2.2 1.8s.7 1.4 1.5 1.4c.9 0 2.6.7 3.8 1.4 7.7 5.1 31.3 17.3 32.1 16.6 1.1-1.1 2.1-6.6 4.1-22 .9-6.9 2.1-14.2 2.6-16.2 1.9-7.3 3.5-22.5 2.7-24.8-.7-1.9-1-2.1-2.5-.9-1.1.9-1.4.9-1 .2.5-.7-.4-2.2-2-3.7-1.5-1.4-5.3-4.8-8.3-7.5-3-2.8-7.1-5.8-9-6.8s-3.9-2.4-4.3-3.1c-.4-.6-1.3-1.2-1.8-1.2-.6 0-2.5-1.1-4.4-2.6-2.4-1.8-3.5-2.2-4.1-1.3M400 194.7c-11.4 10.1-22.9 21.8-22.2 22.4 1 .9 17.6 2.8 34.6 4 8.2.5 15.3 1.2 15.8 1.5.4.3.8.3.8 0 0-1.2-5.7-11.7-9.2-16.8-2.1-3.1-3.8-6-3.8-6.3 0-1.6-6.6-9.4-7.7-9-.6.2-1.3-.1-1.5-.6s-3.2 1.6-6.8 4.8M428.4 231.6c-2.2 2.7-5.1 6.4-6.3 8.2-2.7 3.9-17.5 22.1-40.6 50-4.7 5.7-8.5 10.5-8.5 10.7s1.1-.2 2.5-.9c1.3-.7 5.1-1.4 8.2-1.4 5.3-.2 5.6-.1 3.3 1.1-1.4.7-2.6 2-2.8 2.9-.4 1.9 8.2 4.1 31.3 8.2 7.7 1.4 16.2 2.9 19 3.5 2.7.5 5.3.7 5.8.4.4-.3.6-2.6.3-5.1-.5-4.5-.5-4.5.6-1.5.6 1.8 1.5 3.3 1.9 3.3.5 0 2.2-1.8 3.7-3.9 1.6-2.2 4.8-5.7 7.2-7.8 13-11.6 23.7-24.4 24.2-28.9.2-2.1.8-2.8 2-2.6 1.7.3 15.8-13.4 15.8-15.3 0-.6-2.1-1.9-4.8-2.9-2.6-1.1-6.9-2.9-9.7-4.2-4.3-1.9-27.3-11-37.5-14.9-4.1-1.5-6.5-.1-4.8 2.9.9 1.5.7 1.6-1 .5-1.6-1-1.8-1.8-1.2-3.5.9-2.3.4-3.4-1.4-3.4-1.1 0-1.2 7-.2 14.5.3 2.2 1 7.6 1.5 12 .6 4.4 1.4 11.4 2 15.5.5 4.1 1.2 11.1 1.5 15.5.4 4.4.9 9.2 1.2 10.6.5 2.4.8 2.6 3.3 1.6 3.3-1.2 6.3-.3 5.5 1.7-.7 1.8-4.7 2.6-6.8 1.4-.9-.5-1.6-.6-1.5-.1.4 2.1-.2 4.4-1 3.9s-1.6-7.3-2.7-21.1c-.2-3.3-.9-9.4-1.4-13.5-1.7-13.1-4-33.3-4.2-37.9l-.3-4.5zM829 94.4c-3.6 1.2-12.5 4.2-19.8 6.5-7.3 2.4-13.5 4.8-13.8 5.3-.6 1 2.7 6.8 6.5 11.4 5.5 6.7 6.1 7.5 6.1 8.5 0 .5.5.7 1.1.4.6-.4.9 0 .7 1.1-.2 1.3.2 1.8 1.2 1.6.8-.2 1.2-.1.8.3-.8.9 4.8 12.5 6 12.5.5 0 .9-.6 1-1.3.8-5.7 1.5-8.7 2.1-8.7.4 0 .8-.7.9-1.5s.3-2.2.4-3 .7-1.5 1.3-1.5c1.3 0 2.9-2.7 5-8.8 1.3-3.9 1.3-4.5 0-5.9-1.8-1.8-2.1-7.7-.3-7.1 1.9.7 4.7-2.2 7.4-7.5 2.8-5.4 2.7-5.4-6.6-2.3M839.8 94.6c-.9 1.1-2 3.1-2.3 4.7-.4 1.5-1.1 3-1.6 3.3-1.5.9-1 3.1.9 3.6 2 .6 2.3 1.6 2.5 9.5 0 3.7-.4 5.8-1.7 7.2-1 1.1-1.6 2.6-1.4 3.3.3.7-.2 1.8-1 2.4-.9.6-1.3 1.8-.9 2.8.6 1.5.9 1.6 3.8 0 1.7-.8 4-1.4 5-1.1 1.1.3 2.2.1 2.5-.5.3-.5 1.8-.8 3.2-.7 3.7.3 6.8-1.1 5-2.2-.9-.6-.7-.9 1-.9 1.2 0 2.2-.4 2.2-.9s-1-1.2-2.2-1.4c-1.3-.2-.5-.4 1.6-.4 2.2 0 4.1-.4 4.3-1 .2-.5 1.7-.7 3.3-.5 1.8.3 3 0 3-.7 0-.6-.4-1.1-1-1.1-.5 0-1-.4-1-.9s-1.5-2.4-3.2-4.3c-1.8-1.8-6.6-7-10.7-11.5-4.1-4.6-7.7-8-8.2-7.8-.4.3-.9-.2-1.1-1.1-.3-1.4-.5-1.4-2 .2M845 93.6c0 .3 2.9 3.6 6.4 7.2 3.5 3.7 10 10.5 14.5 15.2l8 8.5 22.6 1c14.6.6 22.4.7 22.2 0-.2-.5-7.7-4.1-16.8-8-9-3.9-18.4-8-20.9-9.2-2.5-1.1-9.4-4.2-15.5-6.8-6-2.6-12.9-5.5-15.2-6.6-4.6-2-5.3-2.2-5.3-1.3M785.8 108.7c-1.6.8-2.8 1.9-2.8 2.4 0 .6-.4.8-.9.5-1-.6-9.8 2.9-24.1 9.6-5.2 2.5-10.8 4.8-12.4 5.2-1.5.4-2.6.9-2.3 1.2.5.5 9 2.5 28.7 6.8 7.8 1.7 25.1 3 28 2.1 1.6-.5 1.9-1.2 1.4-3.2-.5-1.9-.4-2.4.5-1.8.9.5 1.2 0 .9-1.6-.2-1.6-.9-2.4-2.1-2.3-1 .1-1.7-.6-1.8-1.7-.2-2.7-.3-3.1-1.8-5.9-.9-1.8-.2-1.4 2.3 1.4 2 2.1 3.6 3.6 3.6 3.3 0-.9-9.2-14-11.1-16-2.1-2-2.5-2-6.1 0M742 132.5c0 .8.5 1.5 1 1.5.6 0 1 .9 1 2.1 0 1.3.8 2.3 2.1 2.6 1.6.5 1.9 1.1 1.4 3.2l-.7 2.6 2.6-2.4c1.4-1.4 2.6-1.9 2.6-1.3 0 .7.9 1.2 2 1.2s2 .4 2 .9.9 1.3 2 1.6c1.2.4 2 1.5 2 2.9 0 1.3.9 3.1 2 4.1s2 1.3 2 .7c0-.7.7-1.2 1.5-1.2 1.2 0 1.5 1.4 1.5 6.4 0 4.5.5 6.9 1.6 8 2 2.1 7.4 2.1 7.4.1 0-.8.7-1.5 1.5-1.5 1.2 0 1.5-1.3 1.5-6s-.3-6-1.5-6c-.8 0-1.5-.8-1.5-1.8 0-.9-.6-2.9-1.4-4.3-1.1-2.2-1.1-3.1 0-5.9l1.4-3.3-3 .6c-1.8.4-3 .2-3-.4s-.4-.8-.9-.4c-.5.3-1.2.1-1.6-.5-.3-.5-1.9-.7-3.5-.3-1.9.3-3 .1-3-.6 0-.6-.3-1-.7-.9-.5 0-1.5-.1-2.3-.5-2.2-.8-11.8-2.7-14-2.7-1.1 0-2 .7-2 1.5M734.1 136.2c-1.7 2.4-4.4 6.1-5.8 8.3-12.1 18.3-18.3 27.5-24.9 36.8-4.2 5.9-7.4 11-7.1 11.3.7.8 11.1 2.8 26.2 5.2 7.2 1.2 20.3 3.3 29.3 4.8 9 1.4 17.2 2.4 18.3 2.1 1-.3 1.7-.1 1.3.4-.3.5.5 1 1.8 1 1.3.1 3.2.3 4.4.4 1.8.2 1.2-1.3-4.4-11.4-3.6-6.4-7.1-13-7.9-14.6-3.9-8.2-5.4-10.5-6.5-9.9-.7.4-.8.3-.4-.4.7-1.2-1.4-5.1-4.6-8.6-1-1.1-1.8-2.3-1.8-2.7s-1.8-3.8-4-7.7c-2.2-3.8-4-7.7-4-8.6s-.6-1.9-1.4-2.2-1.8-1.8-2.1-3.4c-1.2-5.3-2.9-5.5-6.4-.8M928.1 144.7c-.1.7-1 1.3-2.2 1.3-1.5 0-1.9.5-1.5 1.5.3.8 0 1.8-.7 2.2-.7.5-1.8 1.6-2.5 2.5-1.1 1.4-1.1 1.6.7 1.1 1.9-.5 2.1-.1 2.1 3.3 0 2.9-.3 3.5-1 2.4-.9-1.3-1-1.3-1 0s-.1 1.3-1 0c-.6-1-1-1.1-1-.3 0 .7-.7 1.3-1.5 1.3s-1.5-.6-1.5-1.3c0-.8-.4-.7-1 .3-.5.8-.9 3.1-.9 5 .1 1.9.3 2.7.6 1.7.3-1.1 1-1.6 2-1.3.8.3 1.7.6 1.9.6s.4.7.4 1.5.5 1.5 1 1.5c.6 0 1 .9 1 2s-.7 2-1.6 2c-1 0-1.4-.7-1.2-2 .4-2.3 0-2.5-2.9-1.6-2.6.8-3 4-.9 6.2 1.1 1.1 1.6 1.1 1.9.1q.6-1.35.6 0c.1.7.8 1.3 1.6 1.3s1.5.9 1.5 2-.4 2-1 2-1 2.7-1 6c0 4.1-.4 6-1.2 6-.7 0 .2 1 1.9 2.2 1.8 1.3 3.3 2.6 3.3 3 0 .3 3.3 3.7 7.2 7.5 4 3.7 9 8.6 11.1 10.8 2.2 2.2 4.3 3.9 4.9 3.7.5-.1.7.2.3.8-.3.5.5 1.5 1.9 2.1 1.4.7 2.3 1.5 2.1 1.9-.3.5.2 1 1 1.4 1.7.6 1.9-.6.6-3.2-1.1-2-7.1-24.3-7.1-26.3 0-.8-.7-2.7-1.5-4.2s-1-2.5-.5-2.2c.9.6-1.7-6.5-2.7-7.5-.3-.3-.4 1-.1 2.7.6 4.5-.5 4.1-2-.7s-1.6-7.3-.2-6.5c.6.3 1 .4 1 0 0-1.4-3.9-14.4-4.9-16.1-.6-1-2.2-5.5-3.5-9.9s-2.5-7.4-2.5-6.8M907.9 197.7c-.7.8-1.2 3-1.1 4.8.2 2-.4 4-1.4 5-1.6 1.5-1.6 2.4-.5 8.3.7 3.7 1.5 7.6 1.8 8.7l.6 2 .8-2c.6-1.6.8-1.7.8-.3.1.9-.6 2.1-1.5 2.6-2.4 1.3-.8 3.2 2.7 3.2 1.9 0 2.8-.4 2.4-1.1-.4-.6.2-1.9 1.3-2.9s2.2-2.5 2.5-3.2c.6-1.7 4.7 2.8 4.7 5.2 0 1.5 1.8 1.8 15.6 2.5 8.5.4 15.7.5 15.9.3.4-.4-4.2-5.4-9.4-10.1-1.6-1.5-3.7-2.7-4.6-2.7s-1.3-.5-1-1c.3-.6-.2-1-1.1-1-1 0-1.4-.3-1.1-.7.9-.9-1.3-3.4-2.4-2.7-.5.3-.8 0-.7-.7.2-.7-.7-1.4-1.9-1.5-2.6-.1-4.9-2.3-4.8-4.4.1-2-7.4-9.2-8.7-8.3-.6.3-.8.1-.5-.4 1.1-1.7-7-1.4-8.4.4M785 211c0 1.2 6 15.2 11 25.5 5.6 11.5 15.5 32.8 22.5 48 2.6 5.8 3.8 7.6 4.4 6.5.5-.8 1.6-11.2 2.5-23s2.1-24.7 2.6-28.5c.5-3.9 1-11.1 1.1-16l.2-9-4.4-.7c-6.6-1.1-32.9-3.8-36.6-3.8-1.8 0-3.3.4-3.3 1M968.5 220.1c-7.2 6.9-10.2 10.6-9.3 11.4.6.7 35.9 4.6 37.9 4.3 1.5-.2-.6-2.8-9.4-11.7l-11.4-11.3zM830.2 239.5c-1.5 13.4-2.6 32.2-1.8 31.5.3-.3.6-2.2.8-4.3.2-3.7 2.2-5.7 3.2-3.1.3.8 1.9 1.4 3.6 1.4 2.9 0 4.1-1.4 5-5.5.1-.6.6-1.6 1.2-2.3q1.05-1.2 0-1.2c-.5 0-1.2-1.4-1.5-3-.5-2.4-1.2-3-3.2-3s-2.5-.5-2.5-2.5c0-1.8-.4-2.3-1.5-1.9-1.2.5-1.5-.2-1.5-3.3 0-2.1.6-4.5 1.2-5.1 1-1 1-1.5.1-2-.6-.4-1.3-2.1-1.5-3.7-.2-1.7-.9 1.9-1.6 8M908.8 234.6c.6 1 3 4.1 5.5 6.8 8.2 9.2 33.2 40.6 35.1 44.2 1.3 2.6 2.1 3.3 2.9 2.5 1.3-1.3 2.5-19.2 2.6-39.2.1-13.2-.1-14.7-1.7-15.1-.9-.3-11.5-.6-23.5-.7-20.6-.2-21.8-.1-20.9 1.5"/><path d="M958.7 233.6c-.4.4-.7 1.7-.7 2.9 0 1.1-.4 2.5-.9 3-.5.6-1.2 13.1-1.5 28-.3 14.8-.5 27.2-.6 27.4 0 .2-.6-.1-1.2-.7-.9-.7-4.1.6-11 4.2l-9.7 5.2 1.6 2.5c.9 1.3 3 4 4.7 5.9 1.7 2 .9 1.4-1.8-1.3-4.6-4.5-7.4-5.5-7.7-2.5-.1.7-.3 2.4-.4 3.8s-.6 4.8-1 7.6c-.7 4.8-.6 5.1 1.6 5.7 3.6 1 19.7.8 20.3-.2.3-.5-.1-1.4-.9-2.1s-1.5-1.8-1.5-2.4c.1-.6.9 0 2 1.3 1.1 1.2 1.7 2.8 1.4 3.5-.3.6.1.3.9-.6.9-1.1 1.7-1.4 2.3-.8 1.1 1.1 25.4-9.8 25.4-11.4 0-1.3-4.5-5.2-10.6-9.1-3-1.9-5.4-3.7-5.4-4 0-.5 5.9 3.1 11.5 7.1 4.8 3.3 6.3 3.6 7.6 1.2.7-1.2 3.1-9.7 5.5-18.8s5.9-22.1 7.7-29c1.9-6.9 3.7-14.6 4.1-17.2l.7-4.7-3.3-.5c-1.8-.3-10-1.2-18.3-2.1-8.2-.9-16.1-1.9-17.5-2.2-1.4-.2-2.8-.1-3.3.3"/><path d="M913.6 246.1c.5.8.9 1.7.9 2s1.2 3.3 2.6 6.5c1.5 3.3 3.4 8.4 4.3 11.5 1.8 6.2 3.4 8 9.8 11.3 2.4 1.2 6.9 3.7 10.1 5.5 3.2 1.9 6 3.1 6.3 2.9.5-.6-5.8-8.7-16.6-21.3-4.1-4.8-8.8-10.4-10.3-12.4-1.6-2-3.4-3.5-4.1-3.5-.8.1-1.3-.5-1.2-1.4 0-.8-.5-1.7-1.3-2-1-.3-1.1-.1-.5.9M847.2 254.4c-1.2 2-5.4 10.1-10 19.1-2.5 4.9-5.6 10.7-6.9 12.7-1.4 2.3-1.9 3.8-1.1 3.8.6 0 .3.7-.8 1.5-1.9 1.5-1.9 1.5.1.9 1.1-.4 3-1.6 4.2-2.7 1.3-1.1 2.6-1.8 2.9-1.4.4.3 2.6-.7 5-2.3 2.3-1.7 4.7-3 5.3-3s1.1-.5 1.1-1.1.7-.9 1.5-.5c.8.3 2-.1 2.7-.8s1.9-1.1 2.6-.9c.6.3 1.9-.3 2.8-1.1.8-.9 2-1.4 2.5-1 .5.3.8 0 .7-.7-.2-.7.4-1.4 1.2-1.4 2.8-.2 5-1.7 5-3.4 0-1.5 5.6-4.8 7.3-4.3.4.1.7-.3.7-.8 0-.6.7-1 1.5-1s1.9-.9 2.5-2 1.5-1.8 2.1-1.5c.5.4.9-.3.9-1.4 0-1.3-.6-2.1-1.7-2.1-1.5 0-1.6.2-.3 1 1.2.8.9.9-1.1.8-2.6-.2-3.4-2.5-1.4-4 .6-.5.5-.8-.2-.8s-2.3 1-3.4 2.1c-2 2-2.5 2-6 .9-2.1-.7-4.1-2.1-4.4-3.2-.5-1.3-1.7-1.8-4.8-1.9-2.3-.1-5.5-.2-7-.3-1.6-.1-3.1.3-3.5.8M926 279.2c0 .7.7 4.4 1.6 8.3 1 3.8 2.1 8.7 2.6 10.7 1.1 4.7 2.3 4.8 9.1.5 2.8-1.9 6.4-4.1 8-5.1 4.2-2.6 5.1-1.8-13.2-12.3-6-3.5-8.1-4-8.1-2.1M920.1 281.3c-1.3 1.5-1.9 3-1.5 4 .7 1.8-.6 2.3-2.2.7-.6-.6-1.5-.6-2.4 0-1.2.8-1.2 1-.1 1 1 0 1.1.3.2 1.4-.7.8-2 1.2-3 .9-.9-.2-2.3.2-2.9 1-1 1.2-.6 1.8 2.3 3.6 2 1.1 4 2.1 4.5 2.1s3.9 1.4 7.4 3.2c3.6 1.8 6.7 3 7 2.7.2-.2-.6-3.6-1.9-7.4-1.2-3.9-2.6-8.9-3-11.3-.4-2.3-1-4.2-1.4-4.2s-1.7 1.1-3 2.3M895.9 294.4c-.2.2-5.1 1.4-10.9 2.6s-11 2.8-11.6 3.6-1.5 1.4-2 1.4-2.9 3.1-5.3 7c-2.4 3.8-4.6 7-4.8 7s1.3-3.2 3.3-7.1c2.2-4.4 3.2-7.5 2.6-8.1-.5-.5-5.1-1.2-10.2-1.5-8.4-.6-9.3-.5-8.7 1 .4 1.1.1 1.7-.8 1.7-.8 0-1.5-.6-1.5-1.4 0-1-2.8-1.7-10-2.6-10-1.3-12.4-1-10.2 1.2 1.9 1.9 1.4 3.3-.6 1.5-2.1-2-3.8-2.1-5.5-.7-1.8 1.6-31.6 19.9-36.1 22.2l-4 2 2.5 1.9c2.9 2.3 30.8 16.3 31.3 15.8.2-.2.8-1.3 1.4-2.4 1.1-1.9 1.1-1.9 1.2.2 0 2 .5 2.3 4.8 2.4 2.6.1 3.6.3 2.2.6-5.4.8-7 1.4-7 2.4 0 .6 3 3.9 6.7 7.4 4.7 4.5 7 6 7.6 5.2.6-.9.7-.8.6.3-.3 3 .1 3.8 2.9 5.5l2.7 1.8-1.9-2.1c-1.1-1.2-1.5-2.2-1-2.2 1.2 0 5.6 3 6.6 4.4.3.5 1.5 1.1 2.5 1.2.9.2 1.9.8 2.1 1.3.2.6.8 1.1 1.3 1.1s.5-1 0-2.3c-.5-1.2-.5-3.1-.1-4.2s.5-2.6.3-3.2c-.5-1.3-.8-4.9-1.1-14.7l-.2-4.9-3.7.6c-2.1.4-6.5.9-9.8 1.1-5 .5-4.7.3 2.2-.8 4.5-.8 8.6-1.7 9.1-2 .6-.3 0-2.5-1.3-5.3-4.7-9.6-11.5-24.5-11.4-25.1 0-.4 3.4 5.9 7.5 14 6.9 13.8 9.1 16.9 9.1 13.3 0-.8 2.9-5.2 6.4-9.9 6.7-9 10.2-11.8 5-4.1-1.7 2.5-4.5 6.5-6.2 9-1.6 2.5-2.4 4.2-1.7 4 .8-.3 2.2-1.9 3.2-3.5 1-1.8 2.2-2.8 2.9-2.4s.9.3.4-.1c-.4-.5.9-1.6 2.9-2.5 3.2-1.5 7.2-4.5 13.5-10.3 1.1-1 2.5-1.5 3-1.1 1.3.8.4-2.6-1.7-6.8-.8-1.5-1.4-3.3-1.4-4s.9.6 2.1 2.8c3 6.1 5 7.7 8.3 6.4 1.5-.5 3.2-.8 3.6-.5.9.6 7.5-7 7.5-8.6 0-.5 1-1.5 2.2-2.4 1.8-1.3 1.6-.6-1.2 4.1-1.9 3.1-3.2 6.1-2.9 6.5.3.5 4.3.9 8.8.9h8.3l-.4-2.8c-.4-2.5-.3-2.6.8-.7 1.7 2.8 4.1 5 5.3 5.1.6 0 1.8.3 2.6.6 8.2 2.7 7.8 2.7 8.8-.1 2.7-7.5 3.3-10.4 2.6-11-.5-.4-6.4-2.9-13.2-5.6l-12.2-4.8-2.6 2.9-2.5 2.9 1-2.8c1-2.4.8-2.7-1.3-2.7-1.2 0-2.5.2-2.7.4M967.3 321c-8 3.8-12.3 6.4-12.3 7.4 0 .9.3 1.6.8 1.6.4 0 2.1 2.3 3.7 5.1 1.7 2.8 3.8 6 4.7 7.2l1.7 2.2.1-2.1c0-1.1.9-2.9 1.9-3.9 1.1-.9 3.9-5.6 6.3-10.4 2.3-4.7 4.8-9.2 5.5-9.9 1.4-1.5 1.7-3.2.6-3.1-.5 0-6.3 2.6-13 5.9"/><path d="M778.5 331.7c.2 2.7.6 11.8 1.1 20.3.4 8.5.7 16 .6 16.7-.2.6.6 1.4 1.6 1.7 1.1.4 7.4 4.2 14.2 8.7 6.7 4.4 13.9 8.9 15.9 9.9 2 1.1 4.8 3 6.3 4.2s3 1.9 3.3 1.6c.9-.8-.6-3.8-1.6-3.2s-1.2-.6-1-6.1c.1-2.2-.7-8.5-1.8-14-1.2-5.5-2.1-12-2.2-14.5-.1-6.1-1.2-9.5-3-9.4-.8.1-4.2 2.1-7.4 4.6-10.5 7.8-21.5 15.1-22.1 14.5-.3-.3 2.1-2.3 5.3-4.4 8.4-5.6 12.3-8.4 16.5-11.8 2-1.7 4.6-3.7 5.9-4.6 2.2-1.5 1.8-1.8-14.4-10.2-9.2-4.8-16.8-8.7-17-8.7s-.3 2.1-.2 4.7M933 327.9l-3.5.6 2.8 2.4c1.5 1.4 2.7 3.1 2.7 3.8s.5 1.3 1.1 1.3.9.8.7 1.7c-.3 1.1 1.4 3.6 4.4 6.5l4.9 4.8h7c6.5 0 7-.2 7.9-2.5.8-2.1.4-3.8-2.1-8.8-4.7-9.3-6.7-10.7-15.3-10.6-3.9.1-8.7.4-10.6.8M895.1 393.7c0 .7-1.2 2.4-2.5 3.8-2 2.2-5.3 12.1-4.4 13.1.5.4 24.8-3.3 25.4-3.9.3-.2-1-1.4-2.8-2.6-1.8-1.1-5.1-3.4-7.2-5.1-2.1-1.6-4.7-3-5.7-3s-2-.8-2.2-1.8c-.3-.9-.5-1.2-.6-.5M1004 408.4c0 .9-.4 1.4-1 1.1-1.3-.8-1.3.1 0 2.5.8 1.4.6 2.1-.5 2.7-1.8 1-2.8 7-1.4 7.8.5.4.9 2.4.9 4.6s.5 3.9 1.1 3.9.9.7.5 1.5c-.3.8 0 2 .7 2.7s1.9 2.8 2.6 4.5c1.3 3.1 1.7 3.3 6.2 3.3 2.6 0 5-.4 5.3-.8.8-1.3-5.3-15.5-7.4-17.2-1-.8-3-4.4-4.6-7.8-2.3-5.3-2.5-6.5-1.3-7.2 1.1-.7 1.1-1.2.1-2.2-.9-.9-1.2-.8-1.2.6M977.2 484c-1.3 3.3-2.5 21.2-1.5 22.5 1.3 1.8 6.1 4.5 7.9 4.5 1.1 0 1.4-.5.9-1.8-.4-.9-1.1-4.2-1.5-7.2-1.3-8.3-2.8-15.2-3.8-18l-1-2.5z"/><path d="M920.3 509.2c-1.5 2.4-4.9 6.9-7.6 10.1-5.5 6.5-5.3 7.8 1.2 7.1 14.4-1.7 17.9-1.9 17.5-1.3-.2.4-2.8 1.1-5.7 1.5l-5.2.8 7.5 1.3c4.1.7 13.1 1.5 20 1.8s15.7.7 19.6 1l7.2.4 4.6-5c4.9-5.2 5.9-5.9 4.9-3.2-.5 1.2-.2 1.5 1.3 1.1 1-.3 2.6-.7 3.4-.9s2.1-1 2.8-1.7c1.2-1.1 3.4-1.6 5.4-1.3 1 .1 2.7-8.7 2.1-11-.7-2.5-2.9-2.4-7.8.4-6.4 3.7-6.9 3.7-11.6.6-2.4-1.6-4.9-2.9-5.6-2.9s-3.1 1.3-5.5 2.9c-5.4 3.6-20.1 11.7-22.8 12.6-1.4.4-1.8.2-1.5-.7.3-.8-1.5-2.6-4.2-4.6-2.7-1.8-7.2-5.5-10.2-8.2-2.9-2.8-5.7-5-6.2-5s-2.1 1.9-3.6 4.2M462.4 603.7c.3 1 1.5 5.4 2.6 9.8 2.1 7.7 3 10.1 3 7.7 0-.8 2.1-1.3 5.8-1.3 5.5-.2 5.5-.2 1.7-.9-3.9-.7-3.9-.7 1.6-.9 3 0 6.1-.7 6.8-1.4 1.1-1 1.4-.9 1.8.1s.9.8 1.9-.5c1.2-1.7 1.3-1.7 1.4.6 0 1.7.4 2.2 1.6 1.7.9-.3 2.5-.6 3.7-.6 1.5-.1.5-.9-3.1-2.6-2.9-1.4-5.8-2.7-6.5-2.8s-1.9-.6-2.7-1.1c-2-1.3-19-9.5-19.6-9.5-.3 0-.3.8 0 1.7M446.1 661.2c-2.2 3.5-5.6 8.5-7.6 11.3-1.9 2.7-5.2 7.4-7.3 10.4-2 3-4.1 6-4.6 6.6-.8 1.1 4.6 10.6 8.1 14.3.7.7 1.3 1.7 1.3 2 0 1.3 5.1 6.3 5.9 5.8 1-.6 2.7-8.5 4.6-21.6 2.4-15.8 4.5-29.2 5.1-32.3.9-4.4-1.2-3.1-5.5 3.5M525.6 696.7c-.3.4-1.4.7-2.4.8-9.6.9-22.1 1.6-28.4 1.7-4.3.1-7.5.5-7.2 1 .3.4-.2.8-1 .8-.9 0-1.6-.7-1.6-1.7 0-.9-.2-1.4-.5-1.1s-.2 1.8.1 3.5c.5 2.5 1 2.9 3 2.5 1.7-.3 2.4 0 2.4 1.1 0 2.6-1.2 4.7-2.2 4.1-.5-.3 0 1.2 1.1 3.5 1.2 2.3 1.9 4.1 1.5 4.1-.3 0 .2.7 1.1 1.6 1.3 1.4 2.3 1.5 5.3.6 2-.6 6.2-1.5 9.2-2.1s9.2-2.3 13.8-3.8c7.4-2.4 8.2-2.9 8.3-5.2.1-2.4.2-2.4.8.4.6 2.7 1.1 3.1 5.6 3.7 2.8.3 6.5.7 8.3.7l3.3.1-8.4-8.5c-7.8-7.9-10.3-9.5-12.1-7.8M449.8 709.4c-1 .7-1.8 1.8-1.8 2.4s-.8 1.5-1.7 2c-1.2.7.5 1.2 6.3 1.7 8.3.7 18 2.1 22.7 3.1 2 .5 2.7.3 2.7-.9 0-.8-.6-1.8-1.2-2-.7-.3-.2-.6 1.2-.7s1.9-.4 1.3-.7c-.7-.2-1.3-1.6-1.3-3v-2.6l-11.5.5c-7.9.4-11.5.2-11.8-.6-.3-.7-1-.6-2.2.4-1.1.9-1.6 1-1.1.2.9-1.5.6-1.5-1.6.2"/></svg>