<svg xmlns="http://www.w3.org/2000/svg" width="1706.667" height="960" viewBox="0 0 1280 720"><path d="M0 360v360h214.5c144.9 0 214.5-.4 214.5-1 0-1.7-2.9-2.3-4.5-1-1.3 1.1-1.4 1-.9-.3.3-.8 1.2-1.8 2-2.1 1.5-.6 2-4.6.5-4.6-.8 0-4.3-4.9-6.1-8.5-1.3-2.7-7.4-10.5-8.2-10.5-1.8 0-.6-3.9 2-6.6 1.5-1.6 6.7-8.5 11.5-15.4s10.1-14.4 11.8-16.8 2.9-4.4 2.8-4.6c-1.8-1.2-18-7.8-28.6-11.6l-5.3-1.9v2.5c0 3.5-1.6 2.1-2.4-2.1-.4-1.9-1.1-3.5-1.6-3.5-.6 0-1-1.7-1-3.8s-.6-4.4-1.2-5.1c-.7-.8-.1-.6 1.4.3l2.6 1.7 2.6-4.3 2.6-4.3-.2 3.7c-.1 2.3.5 4.5 1.5 5.6 1.1 1.2 1.3 2.2.7 3.2-2.9 4.6.6 7.1 17.7 13 13.1 4.5 13 4.5 11.3 2.5-1.1-1.4-.7-1.9 1.2-1.6 1.1.1 4-16.5 5.5-31.9 1.2-11.5 1.4-10.9-4.3-12.9-4.6-1.5-16.2-10.7-15-11.8.4-.4 9.5 5.5 10.6 6.8.8 1 4.8 2.9 6 2.9.6 0-.2-1.9-1.8-4.3-3.1-4.4-7.5-12.7-6.8-12.7.2 0 2.1 2.6 4.2 5.7 2.2 3.2 4.2 6 4.5 6.3s1.4 2 2.4 3.7c1.8 3.1 2 3.2 3.7 1.6 1-.9 4.4-5.7 7.5-10.7 3.2-5 6.5-9.9 7.4-11 1-1 2.3-3.2 2.9-5 2.1-5.6 3.1-7.2 5.1-8.4 1.9-1.2 1.9-1.1.7 1-.8 1.3-1.3 3.5-1.2 5 0 1.5-.2 2.5-.7 2.3-1-.7-13.9 16.9-13.9 19 0 .3-1.3 2.4-3 4.7-1.6 2.2-3 4.6-3 5.3 0 .6 3.5 2.8 7.8 4.8 9.6 4.4 21.2 8.8 21.2 8 0-.3 1 .2 2.1 1.3 2.1 1.9 2.2 1.9 1.6-.1-.3-1.1-.9-3.8-1.3-6s-2.1-8.3-3.9-13.5c-4-11.6-6.7-21.1-6.3-21.6.2-.2 3.6 9.2 7.4 20.8s7.4 21.3 7.9 21.5c1.4.4 25.8-20.8 27-23.5.5-1.2 1.4-2.1 2-1.9 1.6.6 1.7 3.5.2 3.9-1.8.4-27.7 23.7-27.7 24.8 0 .5 1.2 1.8 2.8 3 2.1 1.6 2.2 1.9.5 1-2-.9-2.3-.8-2.3.9 0 1.2.6 3.8 1.4 5.8 1.6 4.4 9.6 32.7 9.6 34.2 0 .5.5 2.2 1 3.7l1.1 2.8 6.7-6.5c3.7-3.6 10.2-9.6 14.5-13.4 5-4.4 7.4-7.2 6.9-7.9s-.2-1.8 1-2.9c1.7-1.6 1.8-1.6 2 0 .4 4.7.2 5.6-1.3 5.8-1.8.3-2.4.9-17.3 15.4-5.8 5.7-10.6 11.2-10.6 12.1 0 1.8 4.7 13.1 5.8 14 .4.3 1.8 2.4 3.1 4.8l2.3 4.3-2.3 2.5c-1.2 1.3-3.1 2.4-4.1 2.4-1.1 0-2.9.5-4.1 1.2s-4 1.4-6.1 1.7c-3.4.5-4.1 1-4.8 3.7-.5 1.8-1.8 3.5-3.3 4.2-1.7.8-2.5 2-2.5 3.7 0 2-.6 2.7-3 3.2-1.7.3-2.9.8-2.6 1 .5.6 13.3-2.1 22.1-4.7 3.8-1.1 7.1-2 7.2-2 .2 0 .3-1.7.4-3.8l.1-3.7 1 3.7c1.1 4.2 1.6 4.4 11.3 5.2l7 .6-4.1-3.7c-6.3-5.9-12.8-13.3-12.1-14 .4-.3 4.7 3.5 9.6 8.6 4.9 5 9.2 9.1 9.5 9.1s.7-1.9.7-4.3c.2-3.2.3-3.5.6-1.2.4 3.4 2 7.2 4.2 9.7.8 1.1 1 1.8.3 1.8-.6 0-1.4-.5-1.7-1-.7-1.1-2.5-.4-2.5 1 0 .5 19.4 1 46.4 1h46.4l4.7-7.2c2.6-4 4.4-6.2 4-5-.4 1.3-2 4.3-3.6 6.7s-2.9 4.5-2.9 4.7c0 .3 1.6.5 3.6.6 2.6.1 4.1-.5 5.5-2.1 1.9-2.3 2.7-8.3.9-7.2-.6.4-.7-.2-.1-1.7 1.9-4.7 3.7-7.4 4.7-7.1.7.2 1.4-.3 1.7-1.2.4-.8.2-1.5-.4-1.5s-.7-.5-.4-1c.4-.6.1-1.8-.6-2.6-1-1.2-.9-1.3.4-.8 1.1.4 2-.2 2.8-2 .7-1.4 1.9-2.6 2.8-2.7 1 0 .7-.4-.7-1-1.3-.5-2.8-.7-3.3-.3-1.2.7-1.1-1.7.1-3.6.8-1.2 1.2-1.2 1.8-.3.4.7 2.8 1.5 5.3 1.8 12.1 1.6 14 1.7 15.5.5 1.2-1.1 1.7-1 2.7.4 1.2 1.6 1.4 1.5 2.5-.9.7-1.5 1.5-2.5 1.8-2.2.8.7-1.8 6.7-2.8 6.7-4.2 0 6.9 12.2 14.2 15.7 2.1 1 2.2 1.1.6 1.2-2.6.1-.9 1.8 2.4 2.4 4.5.9 7 1.9 7 3 0 .6.3.8.6.5s.1-1.4-.5-2.5c-1.8-2.9-8.1-21.4-7.2-20.9.4.3 2.4 4.5 4.5 9.3 2 4.8 5.1 11.3 7 14.3l3.2 5.5 285.7.3 285.7.2V0H0zM439.9 82.4c-.2.3-7.2 1.9-15.4 3.6-19.4 4-19.8 4.1-18.8 5.1.4.4 3.2 1.9 6.1 3.4 9.2 4.6 5.7 4.5-4.5-.1-2.8-1.3-5.4-2.4-5.7-2.4-1.4 0-5.8 5.2-8.9 10.5-2 3.3-6.5 10.5-10 16-3.6 5.5-7.4 11.5-8.6 13.3l-2.1 3.3 2.8-.5c1.5-.2 5.9-1.6 9.7-3.1 3.9-1.5 8.1-3 9.5-3.5s6.3-2.2 11-3.9c4.7-1.8 12.6-4.5 17.5-6.2 5-1.7 10.8-3.9 13-4.9s4.7-2 5.5-2.2c1.5-.5-10.4-6.8-12.6-6.8-.7 0-2.2-.9-3.5-2.1-2.2-1.8-2.2-1.9-.2-1 3.8 1.9 19.5 8.1 20.4 8.1s9.9-12.3 9.9-13.6c.1-1.3 9-11.8 9-10.6 0 .5-.7 1.5-1.6 2.3-.8.7-2.2 2.6-3.1 4.2-.8 1.7-2.4 3.9-3.4 5-1 1.2-1.9 2.6-1.9 3.2s-1.1 2.7-2.5 4.8c-1.4 2-2.4 4.1-2.1 4.5.6.9 5.1.8 40-1.3 13.1-.8 24.1-1.7 24.4-1.9.5-.6-7.7-5.8-16.5-10.7-3.5-1.8-6.3-3.8-6.3-4.2 0-.5 1.7.1 3.8 1.4 2 1.2 8.4 4.9 14.2 8.3 5.8 3.3 11.5 7.1 12.6 8.3 1.2 1.3 2.5 2.3 2.8 2.3 1 0 18.5 12 19.2 13.1.9 1.5.2 1.1-8.6-5.1-4.7-3.3-10.4-6.9-12.7-8s-4.5-2.4-4.8-3c-.3-.5-3.1-.8-6.3-.5-3.1.3-16 1.2-28.7 2.1-35 2.4-33.9 1.2-11.8 12.4 10.4 5.2 21.3 10.9 24.3 12.6 8.5 4.8 43.3 22.5 43.6 22.1.7-.6-1.7-7.7-2.5-7.7-.5 0-1.6-1.9-2.6-4.3-2.2-5.4-2.7-6.6-12.1-27.5-1.3-2.8-2-5.2-1.6-5.2.5 0 2.2 3 3.8 6.7 6 13.8 12.4 26.8 14.3 29.2 1.1 1.3 2.3 3.8 2.7 5.5 1.1 5.5 1.1 5.5 19.1 2.4 9.3-1.6 17.9-2.7 19.3-2.6 1.4.2-1.3.9-6 1.6-13.8 2-28.9 4.7-29.5 5.4-.7.7 0 2.5 15.2 39 6.7 16.3 12.3 30 12.3 30.5-.1 1-3.1-4.9-4.9-9.7-1.3-3.2-12.3-29.1-15.6-36.5-.7-1.7-2.6-6.2-4.1-10-1.5-3.9-3.1-7.4-3.5-7.9-.5-.5-.8 9.2-.8 21.7v22.6l3.5 4.8 3.5 4.8-3.5-3.9c-2-2.2-3.9-3.7-4.2-3.4-.6.7-3 11.4-4.3 19.8-1.3 7.7-4.2 25-4.8 28-1.5 8-1.5 13-.1 13 .8 0 1.8-.4 2.3-.9.6-.5 4.4-2.3 8.5-4.1s13.5-6.1 20.9-9.6c11.5-5.5 13.3-6.7 12.8-8.4-.6-2.5.7-3.4 2.2-1.6.7.8 2.1 1.2 3.4.8 2.2-.5 2.2-.5.3 1.6-1.1 1.2-1.6 2.2-1.2 2.2s.4.5.1 1c-.5.8-1.1.8-1.9 0-1-.7-2.6-.3-6.1 1.5-2.6 1.4-7.4 3.7-10.7 5.1-3.2 1.3-9.1 4-13.1 5.8-4 1.9-9.7 4.5-12.8 5.9-3 1.3-6.6 3.7-7.9 5.3s-2 2.1-1.7 1.1c.4-.9.2-1.7-.4-1.7-1.4 0-25.2 8.1-26.4 9-.5.4-2.2 1-3.8 1.4-1.5.4-5.2 1.8-8.2 3.1-2.9 1.4-5.7 2.5-6.2 2.4-1 0 13.5-6.9 14.7-6.9 1.6 0 2.1-2 1-4.2l-1.1-2.3 1.8 2.3 1.9 2.3 11.9-4c6.6-2.2 12.1-4.4 12.2-4.8.2-.5-4.3-3.3-9.9-6.1-5.7-2.9-12.8-6.6-15.8-8.2-3-1.7-6.3-3-7.2-3s-2-.5-2.3-1c-1.1-1.7-2.5-.1-1.6 1.8 2 3.7 5.2 12.4 4.8 12.8-.2.3-1.3-1.2-2.4-3.3-1-2.1-3.1-6.1-4.7-9l-2.8-5.1-3.5 3.1c-2 1.8-5.6 5.9-8.2 9.2-4.1 5.4-8.8 10.8-30.4 34.9-3.4 3.7-7.5 7.7-9.1 8.9l-2.8 2 1.1-2.1c.7-1.2 1.6-2.2 2.1-2.2 1.2 0 5-5.9 5-7.8 0-.6-.7-1.2-1.5-1.2s-1.5-.5-1.5-1c0-.7 1.3-.8 3.6-.4 3.4.6 3.8.4 10.1-6.2 3.5-3.8 9.9-11.2 14.1-16.4 8.2-10.1 12-14.6 16.4-19.2l2.8-2.9-8.8-4.1c-4.8-2.3-14.3-6.3-21.2-9s-14.7-5.9-17.5-7c-6.7-2.7-9.1-2.8-8.7-.4.2 1.1-.1 1.5-.8 1.1-.6-.4-1-1.6-.8-2.8.2-1.4-.3-2.3-1.3-2.5-1.5-.3-1.6.6-1.4 6.4.5 9.7 1.4 21.6 2.5 32 .6 5.1 1.2 13.2 1.6 18 .3 4.9.9 11.5 1.3 14.7s.5 6 .1 6.2c-.9.5-1.6-5.9-2.9-24.7-.5-7.6-1.2-14.1-1.4-14.5-.3-.5-1-6.9-1.6-14.3s-1.4-15.7-1.7-18.3c-.6-4.8-.6-4.8-2.6-3-1.1 1-4.6 5.1-7.7 9.1-3.1 4.1-8.3 10.9-11.6 15.2s-10.5 13.3-16 20c-10.4 12.8-19.5 24.4-19.2 24.6.1.1 2.5-.2 5.3-.5 5.8-.8 10.3.1 7.2 1.4-1 .4-1.8 1.3-1.8 2.1 0 2.6 6.8 4.5 33 8.9 8 1.3 16 2.7 17.8 3.1l3.2.6.1-4.3.1-4.4 1 3.8c.8 3.1 1.4 3.8 2.9 3.4 1.1-.3 1.9-.1 1.9.4s-.7.9-1.5.9c-1.8 0-2 1.6-.2 2.3.6.3.2.6-1.1.6-1.3.1-3.2-.4-4.4-1-1.8-1-38.5-7.8-53.8-10-3.6-.5-7.8-1.2-9.4-1.5l-2.9-.6 3.4 4.3c1.9 2.4 3.6 4.6 3.9 4.9s3.8 5.1 7.9 10.7c4 5.7 7.7 10.5 8.2 10.9.5.3 1.4 1.5 2 2.7 2.4 4.6-4.2-2.6-11.2-12.3-12.8-17.5-15-20.2-16.5-19.6-.8.3-1.4.1-1.4-.4 0-1.5-2.6-1.2-4 .4-.6.8-2.8 2.5-4.8 3.6l-3.7 2.2 3.8-3.9 3.7-3.9-10.2-1.3c-5.7-.6-15.7-1.4-22.3-1.6-10-.3-12-.7-11.9-2 0-.8.2-3.4.4-5.8l.3-4.2.6 5 .6 5 6 .2c3.3.1 12.3.4 20 .8 9.7.4 13.5.3 12.5-.4-1.2-.8-1.2-1.1.4-1.7 1.3-.5 2.3-.1 3.2 1.1 1.3 1.8 1.4 1.7 1.4-.6 0-2.8-3.7-10.9-10.2-22.4-2.5-4.4-6.5-11.8-8.9-16.5s-5.8-10.9-7.7-13.8c-1.8-2.9-5.1-8.8-7.3-13.2s-6.2-11.9-8.9-16.6c-2.8-4.8-5-9.1-5-9.5 0-.5-.5-.9-1.1-.9s-.9-.6-.6-1.4c.5-1.3-5.5-27.4-8.6-37.1-.8-2.8-2.5-8.3-3.7-12.3-1.2-3.9-2.5-7.2-3-7.2s-6 8.7-12.4 19.2c-6.3 10.6-12.2 20.2-13.1 21.3-2.4 3 4.1-8.6 11.7-21 3.7-6.1 7.7-12.9 8.8-15.3 1.1-2.3 2.5-4.2 3-4.2s.9-1 .7-2.2c-.1-1.3.6-2.6 1.8-3.2 2-1.1 21.7-14.8 26.8-18.7 1.5-1.1 2.7-1.6 2.7-1 0 .5-1 1.7-2.2 2.6-10 6.8-22.9 16.7-22.5 17.2.5.5 12.5-.4 40.2-2.8 6.6-.5 17-1.4 23-1.8 6.4-.5 12-1.4 13.3-2.2 1.9-1.2 11.9-15.5 22-31.4 1.4-2.2 3.8-5.9 5.4-8.2 2.8-4.1 3.5-5.9 2.1-5-.8.5-16.1 4.7-37.3 10.2-6.9 1.8-14.5 3.8-17 4.5l-4.5 1.2 2.5 2c3.7 2.9 26 25.1 25.6 25.5-.2.2-6.5-5.7-14-13.2-7.5-7.4-14.1-13.5-14.6-13.5-.6 0-3.6 2-6.7 4.4-7.4 5.5-14.3 9.8-14.3 8.9 0-.5 3.1-2.8 6.8-5.3 3.7-2.4 8.4-6.1 10.4-8.2s3.8-3.4 4-2.9c.4 1.1 57.5-13.4 58.8-14.9.3-.3 6.8-1.6 14.5-2.8 7.7-1.3 16.5-2.9 19.5-3.6 5.6-1.4 9.7-1.9 8.9-1.2m394.6 8.3c9.5 4.7 30.6 14 38 16.7 3.3 1.2 8 3.3 10.5 4.5 2.4 1.3 6.7 3.2 9.5 4.2 2.7.9 7.3 2.7 10.1 3.8l5.2 2-1.9-3.9c-4.3-8.9-9.9-22.4-9.9-23.9 0-.9 2.4 4.1 5.3 11 6.1 14.4 8.9 18.5 13.2 19.4 1.7.3 11.8 1.7 22.5 3 10.7 1.4 21.4 2.8 23.8 3.1 5.2.8 5.4-.4.3-3.3-3.5-2-19.8-14.8-27-21.1l-2.6-2.4 3.5 2.3c1.9 1.2 5.8 4.1 8.5 6.4 13.9 11.6 26.6 19.7 21 13.5-1-1.1-1.5-2-1.2-2 .8 0 4.7 3.8 4.7 4.6 0 .3-.4.2-1-.1-1.8-1.1-1 .5 1.5 3.3 2.5 2.7 3.2 5.6 1.6 6.6s-2.9 14.5-5.7 61.1l-.6 10 6.8 7c7.1 7.2 16.4 15.5 17.3 15.5 1.1 0 3.1-5.6 5-14.1 3-13 4.8-19.9 5.5-20.6 1.2-1.2.6 2-3.4 17.8-4.7 18.7-4.8 19.7-1.7 20.3 1.2.3 5.1 1.2 8.7 2l6.5 1.5-5.5-.7c-9.3-1.1-12.5-.9-12.6.8 0 .8-.6 2.8-1.2 4.3-.7 1.6-1.2 3.5-1.2 4.3 0 1.7-2.4 10.1-7.4 26.4-1.9 6.4-4.4 15.6-5.6 20.5-1.1 5-2.2 10-2.5 11.2-.5 2.1-.4 2.2 2.2 1.1 3.8-1.6 19.5-12.2 21.1-14.1 1-1.2 1.1-2.5.3-5.4-1.5-5.4-1.2-8.6.3-3.7 1.6 5.1 2.7 6.9 3.5 5.7.3-.4 3-2.4 5.8-4.3 5.5-3.7 6.9-5.8 6.4-10-.5-3.4-.7-7.1-.9-13-.1-2.8-.6-5-1.2-5-.5 0-1 .9-1 2.1 0 2.2-2 9.2-5 17.4-1 2.7-2.1 6.2-2.4 7.7-.4 1.6-1 2.8-1.5 2.8s0-2.8 1.1-6.3c1.1-3.4 2.6-8.7 3.4-11.7s1.8-6.2 2.1-7 .7-2.2.9-3 1-3.8 1.9-6.6c1.7-5.6 1.6-21.7-.3-26.4-.5-1.4-1.7-5.9-2.7-10-.9-4.1-2-8.2-2.3-9s-.7-2.6-.8-4c-.7-8-2.2-11.6-3.5-8.4-.5 1.2-.8-.6-.8-4.7-.1-6.2-.4-7.1-4.6-13.3-4.7-6.8-8.9-15.5-8.1-16.4.3-.2.1-1.3-.5-2.3-.6-1.2-.6-1.9 0-1.9.5 0 1.2 1.4 1.6 3 .7 3.3 5 11.9 9.7 19.2 1.6 2.6 3.6 7.1 4.4 10 3.5 12.6 8.7 33.2 11.5 44.8 1.6 6.9 5.9 23.7 9.5 37.5 3.6 13.7 6.6 26.1 6.7 27.5.1 7.3-2.4 32-3.6 35.5-1.1 3.2-1.2 5.4-.5 10 1.3 8 .2 17.4-2.7 23.1-2.3 4.6-2.3 4.7-1.2 21 1.2 18.4.3 25-3.9 28.9-2.3 2.1-7.4 11.9-7.4 14.1 0 .6-.7 1.7-1.5 2.4-1.2 1-1.3.7-.6-1.7.5-1.5 1.8-4.6 3-6.8 1.1-2.2 2.1-4.5 2.1-5.1s.7-1.7 1.5-2.4 1.5-2.3 1.5-3.6c0-2-.8-2.4-5.7-3.5-7.3-1.5-12.9-1.7-12.6-.4.1.5.5 1.8.8 2.7.4 1 .3 1.8-.3 1.8-.5 0-1.2-1.5-1.6-3.3-.5-2.5-.9-2.9-1.6-1.7-.6.9-1 1-1 .3 0-.6-.9-1.1-2-1-2.2.1-2.4.5-1 2.7.5.8 1.2 1.1 1.6.7.9-.9 3 3.1 3.8 7.7.4 2.1 1.6 5.5 2.7 7.7 2.6 4.8 1.5 7.4-1.1 2.7-1-1.8-2.3-4.3-2.9-5.6-.6-1.2-1.5-2.2-2.1-2.2s-.9-.4-.5-1c.6-1-1.5-5-2.7-5-.5 0-.8.8-.9 1.7 0 1.7-.1 1.7-.7.1-.6-1.5-.8-1.4-1.8.6-1 2.1-.8 2.2 1.5 1.8 2-.3 2.3-.1 1.1.7-1.1.8-1.2 1.4-.2 3.3.6 1.3 1.1 3 1 3.8-.3 3.7.3 7.1 1.2 6.5 1.3-.8 4.4 4.1 3.7 5.9-.8 2 2.5 3 7 2.1 3.4-.6 3.5-.5 2.9 1.7-.3 1.3-.6 2.9-.6 3.5 0 .7-.4 1.3-.9 1.3s-.7-.8-.4-1.9-.2-2.1-1.1-2.4c-2-.8-8.6.3-8.6 1.5 0 .5-.4.7-.9.3-.5-.3-1.3 0-1.7.6-.5.8-.8.8-1.3 0-.8-1.3-3.3 0-16.3 7.9-4.9 2.9-8.8 5.7-8.8 6.1s1 .9 2.3 1.1c1.2.2-.1.6-3 .9-2.9.2-4.9 0-4.5-.5.3-.5-.5-.6-1.9-.2-1.3.3-4.4.9-6.9 1.1-3.5.4-3.9.3-2-.4 1.4-.5 3.7-1.2 5.3-1.5 1.5-.4 2.7-1.1 2.7-1.6 0-1.2-18.1-10.1-19.2-9.4-.5.3-1.6 0-2.4-.7-1.1-.9-1.4-2.6-.9-7.1.3-3.2.1-5.8-.4-5.8-1 0-6.7 14.8-8.1 21-.5 2.5-2 7.5-3.3 11.3-1.4 3.7-2 6.7-1.6 6.7.5 0 .9-.5.9-1 0-.6.7-1 1.5-1 .9 0 4.9-1.6 9-3.5 6-2.8 7.3-3.8 6.9-5.2-.5-1.7-.5-1.7.9-.1.8 1 2.3 1.8 3.3 1.8s3.7 1.2 5.9 2.5c3.2 2 3.6 2.5 1.8 2.5-1.2 0-2.3-.4-2.5-.9-.1-.5-1.5-1.3-3.1-1.6-2.3-.6-2.6-.5-2.1.9.4 1 1.3 1.5 2.1 1.1 1.2-.4 1.4 0 1 1.6-.8 3 3.3 10.7 5.8 11.1 1.4.2 2.1 1.2 2.3 3.2.3 2 0 2.6-.9 2.1-.8-.6-1-.4-.4.4 1.6 2.6 2.6-.8 2.6-8.8 0-4.6.2-8.1.5-7.8.8.7 3.3 21.1 2.7 21.9-.2.5 0 .8.5.8.8 0 3.2-8.9 4.4-16.4.2-1.1.8-2.1 1.5-2.3.7-.3.9.3.6 1.6-.3 1.2.1 2.9.8 3.8.8 1 .9 1.4.2 1-1.4-.9-1.8.4-3.3 9.3-2.4 14.4-2.5 13.5.6 15.8 1.6 1.2 3.4 2.6 4.1 3.2 1.8 1.5 2.2 1.2 1.7-1.3s-2.2-16.4-2.7-22c-.3-4.1.9-4.9 2.2-1.5.5 1.3 2.7 4 4.9 6.1l3.9 3.8-.2-4.8c-.7-12.9-.8-23.3-.3-23.8.5-.6 1.1 3.5 2.4 16.5.6 6.4 2.7 13.1 3.9 12.7.6-.2 1.1-4.9 1.2-11.6 0-6.2.4-11.5.7-11.8.3-.4.6-.1.6.5 0 .7.6 1.1 1.3.9.6-.1 1 .5.9 1.3-.5 2.1-2.1 19.8-2.2 23.7 0 4 1.5 4.3 2.5.6.3-1.5 1.1-3 1.5-3.3.5-.3 1-2.2 1.2-4.2.1-2.6.8-3.9 2.3-4.6 1.2-.6 2.8-3.1 3.9-6.3 1.1-3 2.8-6.5 3.9-7.9l1.9-2.5-.7 5c-.4 2.7-1.3 6.9-2.1 9.3-.8 2.3-1.4 5.7-1.4 7.5s-.6 4.2-1.4 5.3-1.8 3.8-2.2 5.9c-.4 2.2-1.3 4.6-2.1 5.3-.7.7-1.3 2.4-1.3 3.8 0 3.2-2.3 10.4-3.3 10.4-.5 0-.6-.4-.3-.9.4-.5-.3-.7-1.3-.4-1.1.3-2.2 1.1-2.5 1.9s-1.7 1.4-3.1 1.4c-3.2 0-2.4-2 .8-2.1 2.1 0 2.1-.1-.2-1l-2.5-1 3.7-2.5c4.2-2.8 4.6-5 1.6-8.3-1.9-2-2.2-3.6-1.9-9.4.1-.9-.8-2.9-1.9-4.3l-2-2.5.5 4.8c.2 2.6.7 5.8.9 7 .4 1.8.1 2.3-1.3 2.3-1.1 0-2.7.9-3.6 1.9-2.8 3.1-5.2 3.1-10.3-.1l-4.7-3-5.1 2.7c-2.7 1.5-8.1 4.3-12 6.3-3.8 2-7.7 4.1-8.5 4.8-2.4 1.8-7.2 2.4-6.6.8.3-.7-.9-2.3-2.7-3.6-1.8-1.2-6.2-4.8-9.8-8-3.7-3.2-7.1-5.8-7.7-5.8-.5 0-1.8 1.2-2.8 2.7-1 1.6-3 4.1-4.6 5.8-1.5 1.6-2.8 3.3-2.8 3.6 0 .4-1.3 2.2-3 4-1.6 1.9-3 3.8-3 4.3s3.6.6 8.3.2c4.5-.4 10.9-.9 14.2-1.1l6-.4-6.7 1.2c-3.7.7-6.9 1.5-7.2 1.8-1 1 15.3 2.8 31.4 3.5 20.7.9 23.1.8 24.1-.8.5-.7.9-.9.9-.4s1.6-.7 3.5-2.7l3.6-3.7-.6 3.4c-.9 4.4.9 5.5 3.2 1.9 1.8-2.8 5.5-6.4 6.1-5.8.2.1-1.1 1.6-2.8 3.3-1.6 1.7-3 3.8-3 4.6 0 .9-.6 1.6-1.4 1.6-.7 0-2.1 1-3 2.3-.9 1.2-1.4 1.6-1 .9.4-1 .1-1.3-1.2-1-1.5.2-2 1.5-2.4 6.3l-.5 6-.9-5.3c-.7-4.5-1.1-5.2-2.7-4.7-3.3 1.1-10.9 5.6-10.9 6.6 0 .5-.7.9-1.5.9s-1.5.7-1.5 1.5-.6 1.5-1.2 1.6c-1.3.1 4.5 1.9 13.7 4.4 4.3 1.2 4.6 1.3 1.8 1.4-1.7.1-5.9-.6-9.3-1.5-3.3-.8-7.1-1.4-8.3-1.3s-2.9-.1-3.7-.4c-1.7-.7-14.7-3.7-16-3.7-.5 0-1.1 1.2-1.3 2.7-.4 2.5-.4 2.5-.6-.6l-.1-3.3-2.7 1.7c-2.8 1.8-2.8 1.8-1-.2 1.7-2 1.6-2.1-5-6-9.2-5.5-23.3-12.5-23.3-11.6 0 .4-.6 0-1.2-.9-.7-.9-2.2-1.8-3.3-2.1-1.5-.4-1.3-.5.7-.6 2.6-.1 2.7-.3 1.8-2.9l-1-2.7 1.9 2.5c1.1 1.4 2.1 2.3 2.3 2s3.1-3.7 6.4-7.5c5.5-6.4 9.4-11.8 9.4-12.9 0-1.2-30.9-15.6-32.4-15-1 .4-1.6.1-1.6-.9 0-.9-1.1-2.8-2.4-4.4-1.4-1.6-2.8-4.3-3.2-5.9-.5-2.5-.2-2.3 2.6 1.8 1.7 2.7 3.7 4.8 4.3 4.8 1.1 0 7.9-6.7 18.7-18.3 2.9-3.1 3.2-3.9 2-4.7-1-.6-1.1-1-.3-1 .7 0 2-1.2 2.8-2.8.9-1.5 1.4-1.9 1.1-1-.3 1.1 0 1.8.9 1.8 1.4 0 9.1-9.1 25.8-30.3 10.9-14 12.1-15.6 11.4-16.3-.6-.6-10.3-1.9-22.3-2.9l-8.1-.6-.5 5.9c-.3 3.2-1.1 6.7-1.7 7.8-.6 1-2 8.9-3 17.4-1.1 8.5-1.8 12.3-1.6 8.5 2.2-36 2.4-35-5.6-27.7-3 2.8-7 7.1-8.9 9.6-3.8 5-5 5.6-5 2.7 0-1.1-.4-2.2-.9-2.5s-1.1-1.6-1.4-2.8c-.5-2.1-.4-2.1.6-.5 2.5 4 3.6 5.2 3.9 4.7 3.1-4 14.8-18.1 16.5-19.9 1.3-1.3 2.1-2.6 1.9-2.8s-3 0-6.2.6c-3.3.5-9.4 1.3-13.6 1.6-4.3.4-8.1 1.1-8.4 1.7-.3.5.6 3.2 2.1 6 1.5 2.7 2.5 5.1 2.3 5.3s-1.4-1.6-2.7-4c-1.3-2.5-2.7-4.2-3.2-4-.4.3-.9-.5-1.1-1.7-.3-2.1-1.3-2.5-13.2-4.4-7-1.2-15.8-3.1-19.5-4.3-10.3-3.2-24-6.3-28.5-6.3-2.3 0-6.3.5-9 1.1-6 1.4-7.3.8-1.4-.8 7.8-2 7.7-2.4-2.4-9-5.1-3.4-10.4-6.9-11.6-7.9-1.3-.9-6.2-4.1-10.8-7-9.5-5.9-9.8-5.7-6.4 4.3 1.1 3.2 2 6.5 1.9 7.4-.1 2.3-4.9-12.9-4.9-15.7 0-1.7-.6-2.2-2.5-2.2-1.5 0-2.3-.5-2-1.3.5-1.4-12.8-11.3-36.7-27.2-2.9-2-7.7-7.2-12.9-14.1-4.5-6-7.2-10-6-8.9 1.3 1.1 4.8 5.3 7.8 9.4 3.1 4 7.1 8.2 8.9 9.3 1.9 1.1 3.4 2.4 3.4 2.8 0 .5 4.6 3.9 10.3 7.6 5.6 3.7 10.4 7.1 10.7 7.4s2.1 1.7 4 3 3.7 2.7 4 3 2.4 1.8 4.8 3.3l4.2 2.7.2-3.7c.3-8.7.1-19.4-.6-28.6-.7-9.1-1-9.8-3.4-11.3l-2.7-1.5 3.3.6 3.2.7.2-5.9.2-5.8.3 5.7c.2 3.2.7 5.8 1 5.8s3.6-1.9 7.2-4.3 13-8.3 20.7-13.2l14.2-9-1.4-4.4-1.3-4.3 2.5 2.3 2.4 2.2.1-7.4c0-7.7.3-11.2 1.9-23.9 2.1-16.5 4-43.4 3.2-46.2-.3-1.2-1.9-1.8-5.6-2.2-24-2.6-37.8-3.8-38.2-3.3-.3.3 1 4.1 2.9 8.4s4 9.4 4.7 11.3c.8 1.9 3.9 8.7 7 15 7.4 14.8 19.3 42 18.7 42.6-.2.2-1.7-2.4-3.2-5.8-1.5-3.5-4.8-10.6-7.3-15.8-7.8-16.6-14.8-32.2-18.7-41.1-2-4.8-4.5-9.6-5.6-10.7-1-1.2-1.9-2.7-1.9-3.5 0-1-4.4-2.1-16.2-4.1-9-1.4-23.9-3.9-33.3-5.5-9.3-1.6-22.1-3.7-28.3-4.7-6.6-1.1-11.1-2.2-10.9-2.9.2-.5-.5-2.4-1.5-4-1.8-2.7-1.6-2.6 1.1.5 2.6 2.9 3.3 3.2 4.1 2 .5-.8 3-4.4 5.5-8s6.7-9.7 9.3-13.5c2.6-3.9 5.7-8.4 6.8-10 13.2-19.4 19.7-29.8 20.1-32.3.1-.8-.3-2.6-.8-4-.8-2.2-.8-2.3.6-1.2.8.7 1.5 1.9 1.5 2.6 0 1.5 3 1.9 4.5.6.6-.5 3.3-1.7 6-2.7 2.8-1 9.2-3.8 14.3-6.2 5.2-2.3 9.6-4.3 9.8-4.3s4.2-1.8 8.9-4c5.7-2.7 8.9-4.8 9.5-6.3.7-1.8.9-1.9.9-.3.1 1.5.6 1.7 3.6 1.2 3.5-.7 15-4.5 31.5-10.5 4.7-1.6 9.4-3.1 10.5-3.1 2-.1 2-.1 0-1.6-3.6-2.7 4.3-.5 12 3.3M238.1 223c.6 0 .7.4.4 1-.3.5.1 1 1 1 1.5 0 1.5.1 0 1.6-2.1 2.2-5-1.1 40.9 45.9 12.9 13.2 23.3 24.2 23.1 24.4-.4.3-33.1-32.8-56.8-57.4l-9.7-10-.2 11.5-.2 11.5-.5-9.5c-.5-8.3-.8-9.3-1.9-7.5-1.3 1.9-1.3 1.9-.7-.5 1.7-6.5 1.7-7 .4-7-1-.1-.8-.4.4-1.1 1.4-.8 1.7-2.6 1.9-10.2l.2-9.2.3 7.7c.2 4.4.8 7.8 1.4 7.8M206 291.6c-2.2 16.3-2 17.3 4.8 22.6 3.1 2.5 9.3 7.5 13.8 11.1 12.4 9.9 10.3 9.7 25.6 2.1 14.3-7.1 16.4-7.4 3.3-.4-12.9 6.9-16.4 9.1-18 11.3-1.3 1.8-1.5 1.9-1.5.4 0-1.3-1.3-.8-6.1 2.6-13.1 9.1-16.1 11.8-15.6 13.8.3 1 .1 1.7-.4 1.3-.5-.3-1.4.7-2 2.3-.6 1.5-1.3 2.3-1.6 1.6-.2-.7.1-2.1.7-3.3 1.5-2.8 0-4.6-4.9-6-2-.5-3.8-1-4.1-1s-.6 2.3-.7 5c0 2.8-.7 7.3-1.3 10.1-1.1 4.5-1.4 4.9-2.4 3.3-1.2-2.2-3.4-13.3-3.5-18.2-.1-2 .3-3.1 1.1-3 .8.2 1.2-.7 1-2.7-.2-2.5-.1-2.7.8-1.2.6.9 1.5 1.5 2 1.2s1.2.5 1.5 1.8c.5 2 1.5 2.6 5.3 3.1 3.2.4 4.8.3 5.1-.5.2-.7.9-.2 1.6 1l1.2 2.3 2.9-2.4c1.6-1.3 6.6-5 11.2-8.2 4.5-3.1 8.2-6.1 8.2-6.6s-1.5-1.9-3.2-3.1c-1.8-1.3-4.9-3.6-6.9-5.3-8.6-7.4-13.3-11.1-16-12.8-2.9-1.7-2.9-1.7-3 .5-.1 1.9-.3 1.7-1.5-1.1-1-2.2-2.1-3.2-3.7-3.3-1.4 0-1.7-.3-.7-.6 3.6-1.4 4.1-3.1 3.6-11.5-.3-4.8-.2-6.8.2-4.8.9 4.3 1.6 2.6 2.8-6.5.4-3.3.9-5.3 1.1-4.4s-.1 5.2-.7 9.5m150.9 24-.2 7.7 4.4 2.9c5.7 3.8 10.2 8.6 9.5 10.3-.3.8-.1 3.6.3 6.4l.8 5-4.4-.3c-2.4-.2-4.7-.7-5-1-1.4-1.4-3.3-.4-3.4 1.6-.1 2.1-.1 2.1-.9-.3-.7-2.3-7.7-11.7-11.6-15.7-.8-.7-1.4-1.7-1.4-2.2s-2.3-3-5-5.6l-5-4.8 3-1.9c2.8-1.8 3.5-1.8 7.1-.7 2.2.8 4.9 2.2 6.1 3.2 3.9 3.4 4.8 2.4 4.8-5.2 0-3.9.3-7 .6-7s.4 3.4.3 7.6m-8.6 27.4c.8 0 .8.3-.1 1.2-1.7 1.7-1.5 6.8.2 6.8 1.1 0 1.3-.7.6-3-.5-1.8-.5-3 0-3 1.5 0 3.8 4.2 4.5 8.2.5 2.3 1.3 3.8 2.2 3.8.8 0 1.1.5.7 1.1-.8 1.4 1.4 5.6 3.4 6.4 1.1.4 1.3 0 .8-1.7-.4-1.3-.9-3.9-1.2-5.8s-.7-4.2-1-5c-.3-1 .1-.9 1 .4.8 1 1.9 1.5 2.5 1.2.5-.4 1.2-.2 1.6.4.3.5.1 1-.4 1-.7 0-1.1 2.4-1.1 6 0 3.3.4 6 1 6s1 .9 1 2c0 2.6-1.2 2.6-2.8 0-.7-1.2-1.7-1.8-2.2-1.5-1.5.9-1.2 2.5.4 2.5 1.7 0 3.4 12.9 1.8 13.9-.6.4-2.7.6-4.6.5-3.4-.2-3.5-.1-4.2 4.2-.9 6.4-3 5.1-2.6-1.7.2-3 .6-6.2.8-7.2.3-1 0-1.7-.8-1.7-1 0-1.8-2.5-2.6-8.3-1.7-12.2-2.6-27.3-1.7-29.4.8-1.6.9-1.6 1.2.4.3 1.3.9 2.3 1.6 2.3m-76.7 7.2c.3 1.3 7.3 11.2 15.5 22.1s14.9 20 14.9 20.4c0 1.6-4.4-3.9-17.6-21.8S267 348.2 267 351c0 .6-.4 1-1 1-.5 0-4.5 2.5-8.7 5.5-4.3 2.9-12.2 8.5-17.5 12.2s-9.7 7-9.8 7.3c0 .9 23.6 8 26.4 8 1.4 0 4.3.7 6.3 1.5 2.1.8 8.3 2.6 13.8 4 5.5 1.5 13.8 3.8 18.4 5.2 5.8 1.7 8.6 2.2 9 1.4.5-.7 1.5-.4 3 1 1.2 1.2 2 2.3 1.8 2.6-.3.2-3.3-.6-6.8-1.7-11-3.7-35.2-10-38.5-10-2.3 0-3.6.7-4.9 2.6-1.3 2-1.9 2.3-3.1 1.3-.8-.6-1.4-2.2-1.4-3.4s-.6-2.7-1.2-3.3c-1.3-1-21.6-7.2-23.6-7.2-.6 0-1.4 1.7-2 3.7l-1 3.8-.1-3.3c-.1-2.3-.5-3.1-1.3-2.6-1 .6-1 .4 0-.7 2.1-2.2 1.4-3.8-5.4-12.5-3.7-4.7-6.4-8.7-6.1-9s3.3 3.4 6.7 8.1c3.5 4.7 6.6 8.2 7.1 7.8.4-.4 1.2-2.8 1.7-5.3s1-3.6 1.1-2.5-.3 3.5-.8 5.3c-.8 2.5-.7 3.2.4 3.2.8 0 1.7-.5 2-1 .4-.6 8.2-6.1 17.3-12.1 9.2-6.1 17.4-11.7 18.2-12.5 2.1-2 3.8-1.7 4.6.8M621.3 390c3.4 3.3 6.6 5.9 7.2 5.7.5-.2 1-2.9 1-5.9 0-4.9.2-5.4 1.9-5 1.5.4 1.7 1.1 1.2 4.6-.4 2.3-.9 5-1.2 6.1-.5 2 0 2.3 7.1 5 1.1.4 3.2.7 4.8.6 2-.2 2.7.2 2.8 1.6 0 1 .3 1.3.6.5.8-1.9 3.6-1.4 6.7 1.3 1.6 1.4 2.7 2.5 2.3 2.5-.3 0-1.2.3-2.1.6-1.1.4-1.6 0-1.6-1.2 0-1.7-.1-1.7-1.7-.1-1.5 1.4-1.5 2-.3 4.2 1.6 3 3.5 3.3 2.7.5-.3-1.1-.1-1.8.4-1.4.5.3.9.1.9-.5s1.2-.8 3.2-.4c2.3.5 3.4.2 4.4-1.2 1.1-1.5 1.6-1.6 2.9-.5.8.7 2.1 1 3 .7.8-.4 2.1.3 2.9 1.4 1.2 1.8 2.8 2.5 5.9 2.8 1.3.1-.3 4.3-3.1 8-1.4 1.9-2.8 2.9-3 2.3-.2-.7.8-2.6 2.3-4.3 1.4-1.7 2.3-3.4 1.9-3.8-.4-.3-.9 0-1.1.6-.3.7-1.6 1.3-3 1.3-3.6 0-16.3 3.9-16.3 5 0 .4.6 1 1.3 1.3.6.2.9.7.6 1.1-.4.4-1.3 0-2.2-.8-.8-.8-1.8-1.2-2.1-.8-.4.3-1 .2-1.4-.3-.6-.8-7.6-4.6-9.2-5-1.7-.3-6.9-3.7-8.1-5.1-1.1-1.5-.7-1.4 2.4.4 2.1 1.2 4.5 2.2 5.3 2.2s1.4.4 1.4.8c0 1.1 8.1 4.4 8.9 3.7.9-1-5-11.5-6.5-11.5-.8 0-1.4-.4-1.4-.9 0-1.7-5.7-5.1-10.8-6.4-3.8-1-6.2-2.5-10.3-6.7-10.3-10.4-10.7-12.7-.6-3m302.4 196.5c1.2 0 2.5.4 2.9.8.8.7 19-.3 31.4-1.7l4.5-.6-4 1.1c-2.2.5-5.1 1.2-6.4 1.5-2.1.5-2.3.9-1.7 4.5 1 6.3 1.7 16.5 1 15.1-.3-.8-1.1-5.3-1.8-10l-1.1-8.7-4 .2c-9.2.4-17.5 1.5-17 2.3.3.5 5.7 4.8 12.1 9.6 13.1 10 13.1 10 17.5 1.3 1.6-3 2.9-4.8 2.9-4 0 .7-1.3 4-3 7.3-1.6 3.2-3 6.5-3 7.4 0 .8-.4 1.3-.8 1-.9-.5-5.4 1.8-18.6 9.7-5.4 3.3-9.9 5.7-10.1 5.5-.5-.4 3-2.7 15.8-10.3 5.3-3.1 10-6.1 10.2-6.6.8-1.2-22.4-18.2-28.5-20.9-5.1-2.3-10.5-5.9-7-4.8 2.5.9 5-1.1 5.1-4 .1-2.3.3-2.2.8.8.5 2.7 1.1 3.5 2.8 3.5m279.3 88c0 .7.6 1.8 1.3 2.2.8.4 2.2 3.5 3.2 6.8 1.9 6.3 3.5 9.1 3.5 6.2 0-.9.3-1.7.8-1.7.4 0 1.8-3.4 3.1-7.5 1.9-5.6 2.9-7.5 4.3-7.5 1.6 0 1.4.9-1.6 9.2-1.8 5.1-3.6 10.9-4 12.9-.6 3.2-.9 3.6-3.1 3.2-1.9-.4-2.8-1.7-4.3-6.2-1.1-3.1-3.1-8.6-4.5-12.4-2.5-6.4-2.5-6.7-.7-6.7 1.1 0 2 .7 2 1.5m24.1 6.4c2.1-1.1 7.9-.3 7.9 1.1 0 .5 1 1.2 2.3 1.6 1.2.3 2.9 1.3 3.8 2 1.3 1.2 1.8 1 3.7-1.5 3-4.1 7.2-4.8 12.5-2.1s8.7 5.9 8.7 7.9c0 1.4-.1 1.4-1 .1-.8-1.3-1-1.2-1.1.5-.1 1.6-.2 1.6-.6.3-.8-3-2.8-2.7-2.9.4-.1 3.4-5.6 9.4-7.6 8.2-.7-.4-.8-.3-.4.4 1.1 1.8 6.9.3 9.4-2.5 1.2-1.3 2.2-2.1 2.2-1.7 0 1.8-4.6 5.4-6.9 5.5-2.5.1-2.5.2.4.9 2.5.6 2.6.8.7.9-3 .1-7.7-2.3-9.6-5.1-.9-1.2-1.6-1.8-1.6-1.3 0 .4-1-.1-2.2-1.1-1.8-1.6-3-1.9-5.3-1.3-1.6.3-2.5.7-2 .8.6.1-.3 1-2 2.1-2.4 1.5-2.6 2-1.3 2.5.9.4 2.7.1 4-.5 2.2-1.1 2.2-1.1.3.5-1.3 1-3 1.4-4.8 1.1q-2.85-.6-2.1.6c.9 1.4-1 .3-5.8-3.5-2.1-1.6-3.8-3.5-3.8-4.2s-.9-1.5-2-1.8-2-1.1-2-1.9c0-1.1.2-1.1.9 0 .6 1 1 .7 1.5-1.3.4-1.4.4-3.1 0-3.7s-.3-.8.3-.5c.6.4 1.7-.8 2.4-2.6 1-2.3 1.5-2.7 1.7-1.5.3 1.5.7 1.6 2.3.7"/><path d="M346.5 140.1c-10.9.7-47 3.5-55.5 4.4-3.2.3-3.5 1.6-1.6 7.3 3.4 10.5 8.8 29.3 11.3 39.4 1.5 6 2.9 10.8 3.3 10.8.7 0 62-61.6 62-62.4 0-.7-1.2-.6-19.5.5M364.4 146.6c.4 1.1.2 1.5-.8 1.1s-5.6 3.8-13.3 11.8c-15.5 16.3-14.5 14.9-13.3 18.1 1.5 3.8.4 6.4-2.6 6.4-1.4 0-2.2-.4-1.9-1s-.1-.7-1-.3c-1.3.5-1.4.7-.3 1.4.9.6 1 1.1.2 1.6-.6.5-1.3 1.6-1.7 2.5-.7 2.1-5.3 2.4-6 .5q-.6-1.5-.6 0c-.1.7-.9 1.3-1.8 1.3-1.5 0-1.6.2-.3 1s1.2 1-.3 1c-1 0-2.6.8-3.5 1.7-1.6 1.6-1.6 1.6.1 1 .9-.3 1.7-.2 1.7.3 0 .6-1.2 1-2.7 1-2.6 0-7.3 3.6-7.3 5.5 0 .4-.7 1.3-1.6 1.9-1.2 1 1.7 1.8 14.8 4.5 9 1.8 19.7 4.3 23.8 5.6 13.1 4 12.7 4 13.2 0 .2-1.9 0-4.2-.5-5-1.7-3.2-1.7-5.5.2-5.5 2.2 0 2.2-.2 5-25.5 2-18 2.3-32.5.7-32.5-.4 0-.5.7-.2 1.6M369 146.1c0 3.3-2.3 27-3.5 36.4-.8 6-1.6 14.4-1.9 18.5s-.8 9.3-1.2 11.5c-.7 3.6-.6 3.9.9 2.7 3.9-3.3 26.7-26.6 26.7-27.4 0-.5-.8-.8-1.7-.6-1.6.3-1.8-.5-1.8-5.7 0-5.5-.6-7.2-8-21.3-7.1-13.7-9.5-17.3-9.5-14.1M537.6 162.7c-.4.5-1.2.9-1.7.9-.5.1-1.3.2-1.7.3-.8.1-1.2 1.5-1.3 5.2 0 1.3-1.5 1.8-6.2 2.4-3.4.5-6.6.9-7.2 1-.5.1-1.6.3-2.2.3-.7.1-1.3 1.4-1.3 2.8 0 2.2-.4 2.5-2.7 2.2-1.6-.2-2.7-.8-2.5-1.6.4-2.4-1.4-1.1-2.5 1.8-.8 2.1-1.6 2.8-2.7 2.4-.9-.3-1.6-.1-1.6.5s.7 1.1 1.5 1.1 2.3.9 3.2 2c1 1.1 2.1 2 2.6 2 1 0 8.4 5.6 10.7 8.1 2.1 2.3 5.9 4.1 7 3.4.6-.3 1-.1 1 .4 0 1.7 2.7 1.3 3.4-.5.8-2.1 3.2-.3 4 3.1.8 3.1 2.3 3.2 2.6.2.5-6.8.4-14.5-.3-16.2-.8-1.9-.9-1.9-2.2-.2-1.2 1.6-1.3 1.6-1.9.1-.3-.9-.2-2.2.4-2.9.5-.6.9-1.4.7-1.6-.1-.2.3.1.9.8 2.2 2.5 2.5 1.2 2.2-8.2-.2-5.7.1-9.7.7-9.9.6-.3.3-.5-.6-.5-.9-.1-1.9.2-2.3.6M503.6 185.5c.5 1.2.4 1.6-.4 1.1-1.2-.7-2.7 2.8-1.8 4.3.7 1-5.2 3.4-6.4 2.6-1-.6-.8 1.5.3 3.2.5.8.4 1.3-.2 1.3s-1.1 1.2-1.2 2.7c0 2.5-.1 2.6-.9.8-.7-1.7-.9-1.6-.9.9-.1 1.6-.7 6.6-1.5 11-.8 4.5-1.7 10.1-2 12.6-.2 2.5-.7 5.2-1 6-1 2.5-1.3 12-.4 12 .5 0 .4.9-.2 1.9-1.5 2.8-1.2 5.1.6 5.1.8 0 1.3.4.9.9-.4.8 2.1 2.2 4.5 2.6.6.1 6.3 3.8 7 4.5.9 1 26.7 15 27.7 15 .5 0 1.5-3.9 2.2-8.8.7-4.8 1.9-12.5 2.7-17.2 1.5-9.1 1.2-10-3.3-10-1.6 0-2.3-.6-2.3-1.9 0-2.6 2-3.8 3.4-2 .6.8 1.7 1.5 2.3 1.6 1.5.3 3.8-7.4 5.3-18 1.3-8.5.5-10.9-3.1-10.2-1 .2-1.9-.1-1.9-.6 0-.6-.5-.7-1.2-.3-.7.5-.9.2-.5-.8.3-.9-.3-2.3-1.7-3.4-4.5-3.9-16.3-11.5-17.2-11.2-.6.2-2.1-.8-3.5-2.2-1.3-1.4-3.2-3.1-4.2-3.9-1.5-1.2-1.7-1.2-1.1.4M393 190.5c-.7.8-1.8 1.5-2.5 1.5-.6 0-7 5.9-14.1 13.2l-12.9 13.2 5.5.7c3 .3 11.6 1.2 19 1.8s16.3 1.4 19.8 1.7c5.1.5 6.2.3 6.2-1 0-.8-.4-1.7-.9-2.1-.6-.3-2-2.7-3.3-5.3s-4-7.1-6-10.1c-2.1-3-3.8-5.8-3.8-6.3 0-1.7-4.3-6.7-5.3-6.1-.6.4-.8 0-.4-1 .8-2.1.3-2.2-1.3-.2M305 207.6c0 .9 1.5 4.2 3.4 7.3s5.6 9.9 8.3 15.1c2.8 5.2 6.5 12 8.3 15s7.6 13.6 13 23.5c11.1 20.6 16.3 29.4 17.1 29.5.3 0 .6-1.9.7-4.3.1-2.3.9-14.6 1.7-27.2.9-12.7 1.7-28.3 1.8-34.9l.2-11.8-5-1.4c-2.7-.8-14.2-3.7-25.5-6.4-11.3-2.8-21.3-5.3-22.2-5.6q-1.8-.6-1.8 1.2M362 222.6c-.6 1.4-1 5.1-1 8.2s-.7 15.4-1.6 27.2c-3.1 44.1-3 41.8-1.6 41.3 1.9-.8 31.1-35.9 37.2-45 1.7-2.4 16.8-21.1 18.7-23.1 1.2-1.3 2.7-5.1 2.1-5.7-.1-.1-10.4-1.2-22.8-2.4s-24.2-2.3-26.3-2.6c-3.3-.5-3.8-.2-4.7 2.1M809 95.6c-8 2.9-15.3 5.3-16.2 5.4-2.2 0-12.8 4.3-12.8 5.2 0 .6 11.9 18.4 15 22.5 1 1.2 2.1 1.9 2.5 1.5.5-.4.5-.2.1.5s.2 2.1 1.4 3.3c1.1 1.1 1.7 2 1.3 2-.5 0-.1.4.7.9 2.2 1.5 2.8.5 2.6-4.5-.1-3.8.2-4.7 1.9-5.4 1.3-.5 3.8-4.4 6.9-11.1 2.7-5.7 6.4-13.7 8.3-17.7 2-4 3.4-7.5 3.2-7.6-.2-.2-6.9 2.1-14.9 5M826.7 92.8c-1 1-1.4 2.2-1 2.5.3.4.1.7-.5.7-.7 0-1.2 1-1.2 2.2s-.7 2.9-1.5 3.8c-1.9 2.1-3.1 8-1.6 8 .6 0 1.1.5 1.1 1.1s-.9.9-1.9.6c-2.3-.6-3.8 2-2.1 3.7 1.5 1.5 1.2 4.3-.5 5-.8.3-1.5.1-1.5-.4 0-.6-.5-1-1.1-1-.5 0-.7.4-.4 1 .3.5.1 1-.4 1-.6 0-1.1 1.2-1.1 2.6s.4 2.3 1 1.9c.6-.3 1.3.1 1.6 1 .4 1 1.3 1.4 2.2 1 1.3-.5 1.3-.3-.1 1.3-.9 1-1.7 2.2-1.7 2.5 0 1.1 8.1-.4 11.2-1.9 1.5-.8 3.6-1.4 4.8-1.4 1.1 0 2-.6 2-1.3 0-.9.2-.9.8 0 .5.8 1.2.8 2.6-.2 1-.8 1.5-1.8 1.2-2.3-.6-1.1 2.2-2.7 5.4-3.1.6 0 1-.8 1-1.6s.9-1.5 2-1.5 2-.3 2-.8c-.1-.4-2.6-3.4-5.6-6.7-3.1-3.3-5.1-5-4.5-3.8 1.4 2.7 1.4 3.3 0 3.3-.5 0-.8-.4-.4-.9.3-.5.1-1.2-.5-1.6-.5-.3-.8-1.6-.5-2.8.4-1.7-.7-3.5-4.4-7.4-2.7-2.8-4.7-5.4-4.3-5.7.3-.3.3-.6 0-.6s-1.2.8-2.1 1.8M835.4 97c2.5 2.7 4.6 5.3 4.6 5.8s4.2 5.2 9.3 10.5l9.2 9.6 23.3.4c12.7.2 23.2.2 23.2-.2 0-.3-6.2-3-13.8-6-7.5-2.9-15.9-6.3-18.7-7.6-5.3-2.4-17.3-7.7-31.5-13.8-4.7-2.1-8.9-3.7-9.4-3.7s1.2 2.2 3.8 5M773 107.1c-1.8 1.1-25.5 11.5-36.2 15.9-4.3 1.7-7.8 3.6-7.8 4 0 .5 1.7 1.2 3.8 1.5 2 .3 5.5 1 7.7 1.5 12.9 2.9 19.2 4.1 30 6 6.6 1.1 14.2 2.4 16.8 2.9 3.9.7 5 .5 5.4-.6.3-.8.1-1.9-.5-2.5s-.8-2.6-.5-4.4c.4-2.7.2-3.4-1.1-3.4-.9 0-1.6-.8-1.6-1.8 0-1.1-.9-2.7-2-3.7s-2-2.4-2-3c0-1.9-7.7-12.8-9.2-13.1-.7-.1-2 .3-2.8.7M912.9 127.9c1.3 2.4 9.4 15.5 15.8 25.6 2.8 4.4 9 14.7 13.9 22.8 4.9 8.2 10.2 16.9 11.8 19.5 5.6 9.1 6.6 11.1 5.2 10.6-.7-.3-2.5-2.6-4-5.2-2.5-4.4-6.3-10.6-18-29.7-10.2-16.6-21.9-34.6-22.2-34.2-.2.2 1.2 5 3.2 10.8 1.9 5.7 3.7 11.5 4 12.9.2 1.4.7 3.2 1 4 1.2 3.1 5.6 18.8 7.9 27.6 3.1 12.1 9.6 32.7 10.7 33.9.6.6 1.1.6 1.6 0 .4-.6 4.4-4.3 8.9-8.3l8.1-7.3 1-6.7c1.9-12.6 4.4-49.7 4-60.7l-.3-11-5-.7c-9.4-1.4-45.1-5.8-46.8-5.8-1.4 0-1.6.4-.8 1.9M726 129.3c0 1 2.3 6 3.9 8.5 1.1 1.8 1.6 2 2.3 1 .7-.9.8-.6.5 1-.4 1.8-.2 2.2 1.1 1.8.9-.3 2.8.1 4.2.9s2.1 1.4 1.6 1.5c-.4 0-.1 1.1.8 2.5s1.4 3.1 1 3.7c-.4.7-.3.8.4.4 1.5-.9 5.2 2.4 5.2 4.6 0 1.7 1.8 5.7 3.1 6.8 2.5 2.2.4 7.9-2.4 6.4-.7-.4-.2.3 1.1 1.5 1.2 1.2 2.2 2.6 2.2 3.1 0 2.2.2 2.5 2.1 3.2 1.2.5 1.9 1.7 1.9 3.2 0 2.3.2 2.5 2.7 1.5 3.7-1.4 8.3-.2 8.3 2.2 0 1 .7 1.9 1.5 1.9s1.5.7 1.5 1.5c0 .9.9 1.5 2.5 1.5 1.5 0 2.5-.6 2.5-1.4s1-1.7 2.3-1.9l2.2-.4-2.2-.2c-2.2-.1-3.4-2.1-1.3-2.1.6 0 1-1.4 1-3.1 0-1.8-.4-2.8-1-2.4-.6.3-1.3 0-1.6-.8-.4-1.2-1.3-1.3-3.4-.7-4 1.1-4.5-1.9-1.4-7.7 1.3-2.5 2.4-5.1 2.4-5.7 0-2.3 5.2-6.6 9.3-7.7 2.3-.6 3.6-1.4 2.9-1.6-.6-.3-1-.8-.7-1.3.8-1.2-1.6-7.1-2.6-6.4-.5.3-.9.1-.9-.5 0-.7-2.6-1-6.7-.8-6.8.2-6.8.2-8.2-3-1.3-2.9-2.1-3.3-9-4.9-4.2-1-8.5-1.8-9.6-1.9-1.1-.2-2.7-.5-3.5-.8s-4-1-7-1.6c-3-.5-6.3-1.3-7.2-1.6-1-.4-1.8-.5-1.8-.2M721.2 132.2c-.7.7-1.2 1.7-1.2 2.2 0 .6-2.5 4.7-5.6 9.1C704 158.4 702 161.8 702 165c0 1.8-.5 3-1.3 3-2.5 0-8.5 6.9-15.2 17.5l-4.4 7 5.2 1.1c10.3 2.2 72.6 12.3 76.4 12.4 1.3 0-9.5-21.9-12.3-25.1-.8-.8-1.4-1.9-1.4-2.3 0-1.2-9.2-17.1-10.1-17.4-.5-.2-.7-.7-.5-1.1.3-.4-1.1-3.4-3-6.7-1.8-3.2-5.3-9.6-7.6-14.2-2.3-4.5-4.4-8.2-4.8-8.2-.3 0-1.1.5-1.8 1.2M959.8 213.7c-1.3 1.6-5.6 5.7-9.4 9.2l-6.9 6.4 3 .9c3.6 1 38.7 4.7 39.7 4.1.4-.2-1.4-2.3-4-4.6-2.6-2.4-7.8-7.5-11.6-11.5s-7.2-7.2-7.6-7.2-1.8 1.2-3.2 2.7M893.8 232.3c-1.6 1.2-1.5 1.5.8 4 1.4 1.5 2.9 2.7 3.5 2.7s.8.4.5.8c-.3.5.3 1.8 1.3 2.8.9 1.1 3.3 4 5.2 6.5 1.9 2.6 7.8 9.8 13.1 16 5.3 6.3 11 12.9 12.5 14.8 3.9 4.6 5.3 6.1 6 6.1.4 0 .3-.3 0-.7-.4-.3-.2-1.2.4-1.9 1.4-1.7 2.9-20.9 2.9-37.7V232h-12.7c-7.1 0-17.1-.3-22.3-.6-7.2-.4-9.9-.2-11.2.9M814 235.3c0 1.8-.4 5.8-.9 8.8-.6 3-1.3 9.9-1.6 15.3-.4 5.5-1.1 11-1.5 12.2-1 2.5-1.6 14.1-.8 14.9.3.3 1.3-1.6 2.3-4.2 1-2.7 2.2-5.2 2.7-5.8s0-1.6-1.4-2.7l-2.3-1.7 2.4-2c2.4-2.1 3.5-2.5 5.7-2.2 1.3.2 5.1-6.6 5.4-9.5.1-1.1.2-3.4.1-5.2-.1-2.9-.4-3.2-3.1-3.2s-3-.3-3-3c0-1.7-.4-3-1-3s-1-2.7-1-6-.4-6-1-6c-.5 0-1 1.5-1 3.3"/><path d="M942.6 236.1c-.4 3.8-2.3 39.4-2.6 49.8 0 1.8.4 3.9 1.1 4.7.9 1.1.8 1.4-.6 1.4-2 0-23.4 10.2-23.5 11.2 0 .3 1.2 2 2.6 3.7s2.1 3.1 1.5 3.1-1.8-1.1-2.7-2.5-2-2.5-2.5-2.5c-2.5 0-4.7 14.6-2.8 18.2.8 1.6 2.4 1.8 11.7 1.8 11.4 0 12.7-.4 13.5-3.5.4-1.8.5-1.8.6.2 0 1.3.7 2.3 1.4 2.3s6.8-2.7 13.6-6.1l12.4-6-3.9-4.1c-3.7-3.9-3.7-4-.7-1.8 1.8 1.3 3.6 2.1 4 1.7.3-.4-.6-4.3-2.2-8.7-1.5-4.5-2.5-8.3-2.3-8.5.5-.5 6.1 15.2 6.1 17 0 1.7 3.3 1.2 3.4-.5.2-2.7 5.9-24.2 9.8-37 5.5-18 6.3-21.4 7.1-27.9l.6-5.8-13.3-1.2c-7.4-.7-14.1-1.4-14.9-1.6s-5-.6-9.2-1l-7.6-.7zM1012.4 251.3c-.4 2.9-.9 4.6-1.1 3.9-.3-.6-.9-.9-1.4-.6-.6.3-.4 1.1.5 1.7 1 .8 1.8 3.5 2.2 7.7.3 3.6.7 8 1 9.9l.6 3.5 2.9-3.1c2.5-2.8 2.8-3.7 2.3-7.5-.3-2.4-1.3-6.8-2.1-9.8s-1.5-6.5-1.4-7.7c0-1.1-.6-2.3-1.3-2.6-1.1-.4-1.6.8-2.2 4.6"/><path d="M899.3 249.5c.6 3.8 7.5 21.5 9 23.4.7.8 4.1 2.8 7.7 4.5 3.6 1.8 7.7 4 9.2 5s3.3 1.6 4.1 1.4c1.7-.4-10.7-16.2-22.5-28.8-7.2-7.6-8-8.2-7.5-5.5M830.1 254.6c-3 3.8-16.9 30.1-17 32.1-.1.7-.6 1.3-1.2 1.3-.5 0-.7.4-.4 1 .3.5.1 1-.4 1-.6 0-1.1.5-1.1 1 0 .6 1.2.3 2.6-.7 1.5-.9 3.6-1.9 4.6-2 1.1-.2 2.6-1 3.4-1.7.8-.8 2.3-1.8 3.4-2.1s2-1.1 2-1.6.9-.9 2-.9 2-.5 2-1.1c0-.5.4-.8.9-.5 1.1.7 7.7-1.9 8.6-3.4.3-.5 1.5-1 2.6-1 1 0 1.9-.5 1.9-1 0-.6.9-1 2-1 1.3 0 2.4-1 3.1-2.6.5-1.5 1.2-2.4 1.5-2.1.3.2 1.6-.6 2.9-1.9s3.6-2.6 5.2-3c3-.8 5.2-3 5.3-5.3 0-.9-.4-1-1.2-.4-.7.6-2.1.9-3.1.7-2.2-.3-3.6-1.4-1.9-1.4.7 0 1.2-.5 1.2-1 0-2-2.1-.9-3.8 2-2.5 4.4-6.7 4.2-7.6-.3-.5-2.5-.9-2.9-1.6-1.7-.8 1.2-1 1.1-1-.6 0-1.8-.7-2.3-3.7-2.7-2.1-.3-5.1-.7-6.6-1-2.1-.3-3.2.2-4.6 1.9M1017.8 274.7c-.8 1-2.1 2.9-2.8 4.2-1.1 2.1-.8 2.7 1.9 5.5 1.7 1.8 3.1 3.7 3.1 4.4s.4 1.2.9 1.2 1.2.8 1.5 1.7c.3 1-1.4-.4-3.7-3.1-5.2-5.8-5.5-5.5-5.8 7.1-.2 9.4-.2 9.4 5.1 7.9 2.2-.6 2.1-.4-.5 1-4.1 2.2-7.5 5.5-6.9 6.5.3.5-.2 2.2-1.1 3.9-1.4 2.7-1.4 3.1 0 3.6 2.2.9 4.4-1.3 3.9-3.9-.4-2-.4-2.1.4-.2.9 1.8 1.3 1.6 5.7-3 4.9-5.2 3.9-2.6-1.8 4.7-4 5-3.2 6.9 2.1 5.5 3.6-.9 4.2-1.5 5.1-5.1 1.9-7.1 2.4-12.9 1.1-12.1-.7.4-.4-.4.5-1.9 2-3 1.6-3.2-2.8-1l-3.2 1.5 3.3-2.8c3.8-3.3 3.9-4.8 1.2-13.1-1.1-3.3-2.4-7.7-2.8-9.8-.9-4.4-2.2-5.2-4.4-2.7M909 279.3c0 .7.9 4 1.9 7.3 1.1 3.2 2.2 7 2.5 8.4s1.1 3.3 1.9 4.3c1.2 1.8 1.8 1.6 10.9-3.1 5.3-2.7 9.3-5.4 8.9-5.8-.3-.5-2.4-1.8-4.6-2.9-2.2-1-4.7-2.4-5.5-3.1-1.5-1.2-14-6.4-15.3-6.4-.4 0-.7.6-.7 1.3M902.5 280.8c-1.7.8-2.4 1.7-1.7 1.9.6.3 1.2 1.2 1.2 2 0 1-.6 1.3-1.6.9-1.3-.5-1.5-.2-1.1 1.3.7 2.9-5 5.2-6.8 2.8-1.1-1.5-1.4-1.5-2.5-.2-1 1.2-.8 1.6 1.1 2.4 1.3.5 6.7 2.7 11.9 4.9s9.6 3.9 9.7 3.9c.1-.1-1.2-4-2.7-8.7-1.6-4.7-2.9-9.3-3-10.2 0-2.5-1.2-2.8-4.5-1"/><path d="M1007 286.1c-1.4 1.2-4.5 3.8-6.9 5.8s-4.6 3.6-5 3.6c-.3 0-5.9 3.6-12.3 7.9-11.3 7.5-11.7 7.9-12.3 12-1.1 7.1-.4 10 2.5 10.4 1.4.2 2.2.1 1.8-.3-1.2-1.2 1.9-3.5 4.7-3.5 1.4 0 2.4-.4 2.1-.9-.4-.5-.1-1.1.5-1.3.9-.3.9-.9 0-2.5-1.9-3.7-1.2-4.8 1.4-2.3l2.5 2.3 1.4-3.4c3.1-7.4 7.6-16.3 7.6-15.1 0 .7-.8 2.9-1.9 5-2.2 4.4-4.6 14-3.7 14.9.3.4.6.1.6-.5 0-.7.8-1.2 1.9-1.2 1 0 5.5-2.1 9.9-4.7 7.4-4.3 8.1-5 9.1-8.9.6-2.4 1.1-7.7 1.1-11.8 0-8.3-.7-9.1-5-5.5M878.5 293.9c-1.1.4-6.1 1.6-11.2 2.6-12.7 2.4-13.2 2.8-10 9.1 3.4 6.6 4.7 7.7 8.2 6.4 1.5-.6 3.1-.8 3.6-.4 1.1.6 2.5-.7 6.3-6.4 3.9-5.7 5.1-6.3 2.1-1-4.2 7.4-3.9 7.8 6.5 7.8h9l-1-2.5c-.5-1.4-1.7-3.9-2.5-5.6-.9-1.7-1.4-3.6-1.2-4.2.2-.7 1.6 1.4 3 4.5 2.6 5.7 6.7 9.6 8.7 8.3.6-.4 1.6-.2 2.3.3s2.6 1.4 4.4 2c3.1 1 3.1 1 4.8-3.6 2.7-7.6 2.6-8.1-3-10.2-2.7-1-8.8-3.2-13.4-4.9-6.3-2.3-8.8-2.8-10.2-2-1.3.6-1.9.6-1.9-.1 0-1.2-1.7-1.2-4.5-.1M808.2 297.7c3.8 8.2 10.6 21.2 13.5 25.9 2.1 3.4 4.7 7.7 5.7 9.5l1.9 3.4 2.1-4.6c1.8-3.9 9.2-14.9 10.1-14.9.4 0-6.3 13.1-7.6 14.6-.9 1.2-.9 1.3.3.9.9-.3 2-1.7 2.7-3.1.6-1.3 2.2-2.9 3.6-3.4 2.6-1 7.5-4.2 10.9-7.3 1.1-.9 2.6-1.7 3.3-1.7.8 0 1.6-.7 1.9-1.5.4-.8 1-1.2 1.5-.9 1.4.8 1.1-.9-1.2-7-1.2-3.1-2.8-5.6-3.5-5.6-1.2 0-3.3 2.5-8.2 9.6-1.2 1.9 2.1-4.8 4.5-9 .7-1.1.9-2.4.5-2.7-1.8-1.7-42.8-3.7-42-2.2M802.9 299.3c-1.4.7-10.7 6.5-20.7 13.1-15.9 10.4-19.8 13.6-16.1 13.6.5 0 2.8 1.2 5.2 2.7 4.4 2.8 25 13.4 25.3 13 .1-.1.6-1.6 1.2-3.2l1-3 .1 3.2.1 3.2 5.3-.5c7.5-.8 21.9-3.3 22.5-3.9.3-.2-1.1-3.1-3-6.2-1.9-3.2-6.5-12-10.1-19.6-3.6-7.5-7-13.7-7.4-13.6-.4 0-1.9.6-3.4 1.2M957 318.1c-4.1 2.1-9.6 4.8-12.2 5.9-2.7 1.1-4.8 2.3-4.8 2.6s2.6 4.4 5.7 9.2c4.4 6.6 5.8 8.2 6.1 6.7.2-1.1.8-2.2 1.2-2.5 1.7-1.2 14-23.4 14-25.4 0-1.2-2.7-.3-10 3.5M924 327.1c-5.8.3-10 .6-9.3.7.6.1 2.1 2.3 3.4 4.9 3 6.3 11.4 14.4 15.9 15.4 5.8 1.4 12 1.1 12.6-.6.4-.8 1-1.2 1.5-.9 1.7 1 .9-1.1-3.2-8.6-4.6-8.5-6.3-10.6-8.7-11.2-.9-.1-6.4-.1-12.2.3M762.5 331.2c.1 2.4.2 11.4.3 20 .1 9.3.6 15.8 1.2 15.8.5 0 1.8-.9 2.8-2 1.1-1.2 3.8-3.3 6-4.8 8.1-5.3 20.7-14.6 21.4-15.6.3-.5-.3-1.5-1.5-2.1-1.2-.7-5.6-3-9.7-5.3-4.1-2.2-10-5.4-13-7.1s-6-3.1-6.6-3.1-1 1.8-.9 4.2M809.3 341.9c-5 .9-9.4 1.9-9.8 2.3-.8.8 13 15.4 14.7 15.5.7.1 4.1.5 7.6.9 6.1.7 7.9 1.8 4.5 2.7-1.7.4-1.7.5 0 .6 1 0 1.6.5 1.3 1s.1 1.1.9 1.5c1.4.5 1.5-2.9.2-24.7-.2-2.2-6.3-2.1-19.4.2M792.4 348.2c-1.5 1.3-7.2 5.2-12.4 8.8-5.3 3.6-11.2 7.8-13 9.3-3.6 3.1-3.6 3.1 2.5 6.4 3.3 1.8 13.7 8.5 14.5 9.3.4.5 8.8 5.9 13.1 8.5 5.7 3.5 7.9 4.4 7.9 3.5 0-.5-.4-1-.8-1s-1.3-3.7-2-8.3c-1.6-10.8-4-29.2-4.4-34.1-.5-4.8-1.6-5.3-5.4-2.4M1010.1 390.8c-.1.6-1.2 2.2-2.6 3.4-2.8 2.4-8 10.7-7.2 11.4.5.5 13.4 3.4 15 3.4.5 0 .6-1.2.3-2.8-.4-1.5-.8-3.7-1-4.9-.3-1.2-1-3.2-1.7-4.4-.6-1.3-1.5-3.4-2-4.8-.4-1.4-.8-2-.8-1.3M877.3 399.3c-2.6.9-3.6 2-4.8 5.5-1.4 4.2-1.2 6.8.4 5.8.4-.3 4-.8 8-1.2 4-.3 9.5-1.2 12.2-1.8l5-1.1-5.1-4c-5.5-4.3-9.7-5.2-15.7-3.2M925.1 430.2c-8.8 11.1-14.7 18.3-21.7 26.6-5.9 6.9-5.6 8.7 3.8 17.7 6.5 6.2 7.2 6.6 8.2 4.9 2.5-4.4 7.8-20.1 16.2-47.9 1.4-5 2.9-9.6 3.1-10.3 1.5-3.7-2.5 0-9.6 9M973 448.5c-6.8 3-8.2 3-9.8.5-1.2-1.9-2.2-2.1-12.7-1.9-6.3.1-11.5.5-11.5.9 0 .8 21.2 12 22.7 12 1.1 0 17.5-10.7 18.3-12 .3-.4 1.2-1 2-1.3.9-.3.5-.5-1-.5-1.4 0-5 1-8 2.3M885.7 475.7c-5.8 5.9-10.3 11.1-10.1 11.5.3.5 3.5 2.2 7.2 3.8 3.7 1.7 9.6 4.6 13.2 6.4 9.4 4.9 10.7 5.2 11.5 2.4.6-2.3 2.3-6.4 5-12.3.8-1.7 1-3.5.5-4.5-1.8-3.4-13.3-14.9-14.3-14.3-.5.3-.7.1-.4-.4.4-.6.1-1.6-.7-2.2-1.1-.9-3.5 1-11.9 9.6M450 603.4c0 .8.5 3.7 1.1 6.4 1.1 4.8 1.2 4.9 5.1 5 2.1.1 3.7-.2 3.4-.6-.2-.4 2-.5 5-.2 5.6.6 6.4.4 6.4-1.4 0-.6-.4-.5-.9.2-.6 1.1-1 .8-1.4-1-.5-1.7-2.6-3.2-9.1-6.1-9.6-4.2-9.6-4.2-9.6-2.3M436.5 657.2c-1.4 1.8-7.2 9.7-12.7 17.6l-10 14.2 1.8 3.8c1.7 3.8 8.8 14.5 11.2 17.1 1.1 1.1 1.6 1.1 2.1.2 1.8-2.8 11.7-54.8 10.7-55.8-.2-.2-1.6 1.1-3.1 2.9M447.5 699.6c-2.2 1.3-4.4 2.2-5 2-1.2-.4-10.5 9.4-10.5 11 0 1.3 8.4 3.1 18.5 3.9 3.9.3 9.3 1.3 12.2 2.2 2.9.8 5.9 1.3 6.8 1 2.1-.9 1.9-4-.5-5.4-1-.7-2.2-2.8-2.6-4.8-.4-2.1-1.2-3.5-2.1-3.5-1 0-1.2-.6-.8-2s.1-2.2-1.2-2.7c-1-.4-2-1-2.3-1.4s-1.7-1-3-1.2c-1.4-.3-3.2-.7-4-1s-3.3.6-5.5 1.9M504.5 715.6c-4.4 1.3-8.9 2.4-10 2.4s-2.7.5-3.5 1c-1 .7 5.4 1 19.5.9 20.5-.1 21.1-.2 23.4-2.5l2.4-2.3-3.4-.5c-1.9-.3-6.4-.8-10.1-1.1-6.8-.6-6.8-.6-6.8 2 0 1.5-.4 2.4-1 2s-.9-1.4-.8-2.2c.4-2.4-.9-2.3-9.7.3"/></svg>