<svg xmlns="http://www.w3.org/2000/svg" width="1706.667" height="960" viewBox="0 0 1280 720"><path d="M0 360v360h201.5c110.8 0 201.4-.4 201.3-.8-.2-.5 1.1-2.1 2.9-3.6 1.9-1.6 3-3.4 2.8-4.5-.4-2.4-11.5-20.1-12.5-20.1-.5 0-1.1 1-1.3 2.2-.3 1.3-.3-.6 0-4.2.2-3.6.6-6.7.9-6.9.2-.2.4.1.4.7 0 2.4 2.1 1.1 4.7-3 1.5-2.4 5.8-8.4 9.4-13.3 3.6-5 8.2-11.3 10.1-14.1l3.6-5.1-3.6-1.8c-6.8-3.2-20.6-8.7-25.4-10l-4.8-1.3-.1 3.6c0 3.6-.1 3.6-1.2 1.2-.6-1.4-1.5-2.7-1.9-3.1-.6-.4-2.8-9.5-2.8-11.6 0-.2.9-.2 1.9.2 1.3.4 2.5-.3 4.1-2.2 1.9-2.5 2.1-2.6 1.7-.6-.3 1.3.3 3.1 1.4 4.4s1.7 3 1.4 4c-.4 1.1.4 2.4 2.2 3.7 3.6 2.5 26.5 11.1 27.8 10.4.5-.3.4-.7-.3-1-.9-.3-.8-.7.2-1.7 1.2-1.2 3.3-13.2 6.4-35.3 1-7 1.6-6.2-6.5-9.2-3.6-1.4-4.2-1.8-13.3-11.4l-6.5-6.9 6.3 4.9c3.5 2.7 8.2 6.4 10.4 8.2 5.6 4.5 7.5 4.3 4.3-.5-3-4.6-8.1-14.2-6.7-12.8.5.5 3.7 4.9 7.1 9.8 3.4 4.8 6.6 8.5 7.2 8.2 1.8-1.2 20-29.5 19.5-30.3-.3-.5.3-1.7 1.4-2.7 1.9-1.8 2-1.7 2.1.6.1 1.3.1 2.7.1 3-.2 1.3 14.7 44.2 15.6 45.1.6.6 4.5-2 10.8-7.2 14.9-12.4 17.5-14.9 17.9-17.2.7-3.6 1.3-3.1 2.4 2.3.6 2.8.9 5.4.6 5.7s-.5-.1-.5-.9-.5-2-1.2-2.7c-.9-.9-2.5.1-6.8 4.1-3.1 2.8-9.3 8.5-13.9 12.6-4.5 4-7.9 7.7-7.4 8.1.4.5 8.6 4.7 18.1 9.5 9.6 4.8 17.2 8.9 16.9 9.1-.4.4-23.1-9.9-31.1-14.1-1.6-.9-3-1.4-3.2-1.3-.4.5 11.2 45.8 12 46.5.2.2 1-.2 1.7-.9.8-.7 3.9-3.4 6.9-6s7.3-6.3 9.5-8.3 5.9-5 8.2-6.8c4.2-3.1 5.3-5.2 3.3-5.9-.6-.2-.1-1.1 1-2 2-1.7 2-1.7 2 2 0 3-.5 4.1-2.2 4.9-3.7 1.7-28.8 25.4-28.8 27.2 0 2.4 3.5 11.2 4.2 10.6.3-.4 2 2.2 3.6 5.7 2.2 4.6 5.5 8.8 12.1 15.3 5 4.9 9.5 9.1 10.1 9.3q1.2.45.9-5.7c-.1-3.3.1-6.4.4-6.8.6-.6 1.2 9.5 1 17.4v3.3h94.5l1.2-3c.7-1.7 2.1-3.5 3.1-4.1 1.1-.5 1.9-1.7 1.9-2.7.1-1.5 3-6.5 3-5 0 1.4-3.4 8.5-5.1 10.7-2.6 3.3-2.4 4.1 1.2 4.1 2.2 0 3.2-.5 3.6-1.9.3-1.1 1.1-2.2 1.9-2.5 1-.4 1.2-1.4.8-3.1-.7-2.7.4-3.3 2.5-1.3 1 1.1 1.2.7 1-1.7-.5-6.6 0-8.3 2.1-7.8 1.9.5 2.5-.4 2.1-3.5-.1-.7.5-2 1.4-2.9 1.3-1.3 1.8-1.4 2.5-.3.9 1.5 2.6.7 4.1-2.2.6-1.2.7-1.8.1-1.4-.5.3-1.2-.1-1.5-.9-.3-.7-2.2-1.7-4.1-2-3.1-.6-3.4-.9-2.3-2.6.8-1.4 1.4-1.5 2.5-.7.7.6 5.4 1.7 10.4 2.3 8.7 1.1 9 1 9.8-.9.7-2 .7-2 1.4.2.8 2.5 2.4 2.9 3.2.7.4-.8 1-1.5 1.5-1.5s0 1.6-1.1 3.5c-1.4 2.5-1.7 4.1-1.1 5.3 1.2 2.3 7.8 8.2 9.1 8.2.5 0 1 .4 1 .9s1.4 1.2 3 1.6c2.4.5 2.8 1 2 1.9-.8 1-.4 1.3 1.8 1.2 1.5-.1 3.3.3 4 .8 1.5 1.1 1.2-.8-1.9-10.9-1-3.2-1.7-6-1.5-6.2.1-.2 1.3 2.1 2.5 5 1.3 2.8 4.1 9 6.4 13.7l4.2 8.5 267.8.3c178.3.1 267.7-.1 267.7-.8 0-.5.7-1 1.6-1 .8 0 1.2.4.9 1-.4.7 8.2 1 24.9 1h25.6V0H0zM870 65.1c2.1 1.9 2.6 2.6 1.3 1.9-3.4-1.6-3.1.2 2.6 15.3 2.7 7.3 6.3 17.2 8 22.2 4.3 13 5.4 15.4 6.8 15.9.7.3 12.4 1.9 26 3.6 13.7 1.6 26.5 3.2 28.6 3.5 2 .2 3.7.3 3.7.1 0-.6-40.7-33.1-59-47-4.9-3.8-9-7.1-9-7.4 0-.2.8.2 1.9.9 1 .8 5.6 4.1 10.1 7.4s17.3 13.2 28.4 22c28.2 22.3 32.4 25.5 33.9 25.5.8 0 .8.3-.2.9-1.1.7-.1 2.8 4.8 10.1 6.9 10.3 6.6 11.4-.5 1.5-2.5-3.6-5-6.5-5.5-6.5-.6 0-.7.5-.3 1.2.4.6 1.7 6.3 2.9 12.7s3.9 19.9 5.9 30.1 4.1 21.2 4.7 24.5 1.4 7.8 1.9 10 1.4 6.4 2.1 9.3c.6 3 1.5 5 2 4.5.4-.4 2.1-5.5 3.8-11.3 5.3-18.7 7.4-25 8.3-25 .5 0 .6.5.3 1-.5.9-4 12.4-5 17-.2.8-.8 2.8-1.4 4.5-4 11.7-5.8 18.5-5 19.1.5.3 6.1 1.3 12.5 2.3l11.5 1.7-.6-2c-2.4-7.9-3.6-13-3.2-14.4.2-1 .9.3 1.6 2.8.8 2.5 1.9 6.3 2.6 8.5 1.3 3.8 1.3 3.8 1.4 1.1.1-1.6-.8-5.9-1.9-9.5s-2.7-8.9-3.5-11.6l-1.4-5 .5 4.7c.3 2.7.3 4.8.1 4.8-.7 0-3.7-13.2-4.1-18.5-.2-2.8-1-6.4-1.6-8-1.1-2.7-1.3-2.8-2-1-.4 1.2-.7-.5-.6-4.2.1-5.4-.2-6.5-2.1-7.8-1.3-.9-2.3-2.3-2.3-3.1 0-.9-.8-2.3-1.9-3.2-1.9-1.8-7.6-11.2-6.7-11.2.3 0 1.8 1.9 3.3 4.1 4 6.1 3.9 3.2-.3-5.7-2-4.4-5.1-11.1-6.9-14.9-2.1-4.6-4.1-7.5-5.8-8.4-1.5-.8-2.7-1.8-2.7-2.3s1.3-.2 2.9.6c2 1.1 4 3.9 6.9 9.8 2.2 4.6 5.6 11.6 7.5 15.6 2 3.9 4.3 9.6 5.3 12.5.9 2.8 2.4 6.3 3.3 7.7 2 3 3.7 8 4.7 13.5.3 2.2 1.1 4.6 1.7 5.3.6.8 2.8 8 4.9 16 2.1 8.1 5.4 20.8 7.4 28.2s4.5 18 5.5 23.5 3 14.9 4.4 20.8c1.5 6 2.5 12.2 2.3 13.8-.3 1.6-.1 2.9.2 2.9 1 0 .3 13.3-1 19.9-1.3 6.8-1.3 16.1 0 16.1.6 0 1 1.4 1 3.1 0 1.6.4 2.8.9 2.5.5-.4.7.3.4 1.4-.9 3.4 1.5 2.2 2.7-1.4.6-1.9 1.8-4 2.6-4.7 1.1-.9 1 .2-.6 4.4-2.6 6.9-2.3 10.9.4 5.9 2.3-4.4 2.8-3.7 1.7 2.4-.6 3.2-.6 5.1.1 5.5.6.4 1.2 2.7 1.5 5.1.5 3.9.1 4.9-2.5 7.9-2 2.3-3.3 5.2-4 8.9l-1 5.5-.1-4.3c-.1-4.6-2.7-6.1-3.3-2-.3 2-.6 1.7-2.2-1.7-1.1-2.2-2.1-3.4-2.4-2.7-.2.7.3 2.1 1.2 3.1s1.6 2.4 1.6 3.2c0 .9.9 3.4 2 5.7 2.2 4.6 2.5 6.8 1 7.7-.5.3-1-.3-1-1.5 0-1.1-.7-3.7-1.5-5.7-1.2-2.8-1.8-3.4-2.7-2.5s-.9 3.1-.2 8.4c.7 4.6.7 9 .1 12-1 5.2-2.7 5.5-2.7.6 0-1.7-.2-2.9-.5-2.6-1.3 1.2-1.8 6-1.9 17.3-.1 6.6-.5 12.9-.9 14-.3 1.1-.8 3.6-1.1 5.5-.5 3.2-4.4 14.7-7.6 22.5-3.5 8.4-7 18.9-7 20.9 0 .9-.4 1.6-.8 1.6s-1.4 3.5-2.1 7.8c-1 5.7-1.6 7.2-2.2 5.7-.7-1.8-.8-1.8-.8-.2-.1 1-.5 1.6-1 1.3s-1.1.5-1.3 1.9c-.3 1.4-.1 2.5.3 2.5.5 0 .9-.7.9-1.5s.5-1.5 1.1-1.5.8.7.5 1.6-.6 2-.6 2.5c0 .6-.3.8-.7.6-.5-.3-.9.6-.9 1.9-.1 1.3.2 2.1.7 1.8 1.6-.9 1 .8-1.4 4-4 5.3-6.9 12.5-6.5 15.7.3 1.6.1 3.2-.4 3.5-.4.3-.8 1.4-.8 2.4 0 2.8-5.6 21.7-9.1 30.5-.4 1.1-1.5 4.4-2.4 7.3-1 2.9-1.9 5.1-2.2 4.8-.3-.2 0-2.1.7-4.1 1.6-4.9.7-5.4-1.5-.8-1 2.1-2.8 5.4-4 7.3-1.3 1.9-3.1 5.6-4 8.2-1 2.7-2.3 4.8-2.9 4.8-1 .1-11.6 17.3-13.2 21.4-.6 1.7-3 2.2-3.6.8-.9-2.3-28.4-21.2-30.8-21.2-.6 0-1.3-.6-1.6-1.4s-2.5-1.9-5-2.6c-2.4-.7-4.7-1.7-5-2.1-.3-.5.7-.4 2.1.1 3.8 1.4 4.8 1.2 4.1-.7-.5-1.3-.1-1.2 1.7.5 2.3 2.1 2.5 2.2 3.1.5.6-1.5.9-1.5 1.6-.3s3.9 1.5 15.9 1.5c13.2 0 17.3.5 14.2 1.7-.4.1-.2 3.7.5 7.8s1.3 8.8 1.4 10.3c0 4 1.2 2.8 6.1-6.1 2.3-4.2 5.5-9.2 7-11 1.6-1.8 2.9-3.9 2.9-4.7 0-2.6.1-3 1.6-4.6.8-.9 3-4.9 5-8.8 2-4 4.3-8 5.3-9 2.5-2.5 6.3-12.4 5.5-14.7-.5-1.5-.4-1.6.5-.4 1.3 1.9 1.4.1.1-2-.6-1-1-1.1-1-.3 0 .7-1 1.3-2.2 1.3-1.3 0-4.1 1.4-6.2 3-2.2 1.7-4.7 3-5.5 3-.9 0-3.2.8-5.1 1.9-2 1.1-4.1 1.5-5 1.1-1.7-.9-14.9-3.8-19.7-4.4-2.3-.3-3.6.1-4.4 1.2-1 1.6-1 1.6-.5 0 .4-1.4-1.1-2-8.5-3.7-5-1.2-9.2-2.1-9.5-2.1-.2 0-.5 1.2-.5 2.7l-.2 2.8-.4-2.8c-.4-2.5-2.7-3.8-3.5-1.9-.1.5-2.3 2.2-4.8 4-2.5 1.7-5.7 4.1-7.2 5.3-1.6 1.1-2.8 1.7-2.8 1.2 0-.4 2.3-2.4 5.1-4.3s6.4-4.7 8-6.1l2.9-2.5-4.9-3.2c-2.7-1.8-6.4-3.9-8.3-4.6-1.8-.8-6.2-3-9.6-5-3.5-2-7-3.6-7.7-3.6s-1.5-1.5-1.8-3.2c-.3-1.8-.8-4.2-1.2-5.3-.3-1.1.2-.5 1.1 1.3 1 1.7 2.1 3.2 2.5 3.2s3.3-3.3 6.4-7.3c3.1-3.9 6.4-8.1 7.4-9.2 3.5-3.9 3.3-4.2-4.1-8.1-8.3-4.2-22.5-10.4-23.9-10.4-.5 0-.9.6-.9 1.4s-1.5-.1-3.5-2.1c-1.9-1.9-4.1-3.3-4.8-3-.7.2-4.8-.4-9.2-1.4l-8-1.8 5.5.2c5 .2 5.5 0 5.8-2.1.2-1.4 1-2.2 2.3-2.2s1.9-.7 1.9-2.1c0-1.8.2-2 1.6-.8 2 1.7 4.5 6.5 3.7 7.3-.6.6 1.3 1 3.1.7 1.4-.3 3.6 2.1 3 3.1-.4.6.5.2 2-.7 2.6-1.7 2.6-1.7 2.6.9 0 2.4 1.2 3.2 12.6 8.6 7 3.3 13 6 13.3 6s2.3-4.3 4.4-9.6l3.9-9.5-7.1-7.3c-3.9-4-7.8-8.2-8.7-9.4-.8-1.2-2.1-2.2-2.7-2.2-1.3 0-12.9 12.4-16.5 17.7-1.3 1.9-2.7 3.2-3 2.8-.4-.3-.2-.9.3-1.3.6-.4 1.7-1.9 2.5-3.4s4.5-5.8 8.3-9.6c7.1-7.3 7.2-7.9 1.6-10.1-1.9-.8-1.4-.9 2.4-.4 4 .5 4.7.3 4.7-1.2 0-1 .5-1.5 1.4-1.2 1.5.6 4.2-1.8 10.6-9.4 2.5-2.9 6.1-7.2 8-9.4 1.9-2.3 5.1-6.1 7-8.5s5.7-6.8 8.3-9.9c6-6.8 7.3-9.1 5.5-9.2-.7-.1-2.2-.3-3.4-.4-1.1-.1-5.7-.5-10.2-.9l-8.3-.7-1 3c-.6 1.7-1.5 3.1-2.1 3.1-.5 0-1.6.7-2.4 1.5-1.9 1.9-5.1.4-6.4-2.8-.5-1.2-.9-1.8-.9-1.2-.1.5-.8 7.1-1.5 14.5-.8 7.4-1.8 16.6-2.1 20.5-.4 3.8-1 7.2-1.2 7.5-.7.6.6-17.4 1.8-26 .5-3.6.9-9.2.9-12.5v-5.9l-6.1 5.9c-6.6 6.4-6.9 5.8-.7-1.6 4.4-5.2 4.8-7.2 1.6-6.4-1.3.2-7.5.9-13.8 1.5s-11.9 1.5-12.3 1.9c-.8.8 6.3 15.3 8.7 17.9 1 1 2 .4 5.2-2.8 2.1-2.2 4.4-4 4.9-4 .7 0 .7.3 0 .8-1.6 1.2-8.1 9.6-8.7 11.1-.2.9-1.1-.1-2.2-2.5-1-2.1-2.6-5.5-3.4-7.4-3.8-8.3-6.5-12.2-7.3-10.8-.6.9-.9.7-.9-1 0-1.6-.6-2.2-2.1-2.2-3.1 0-19.3-3.6-38-8.5-13.5-3.5-18.8-4.4-19.5-3.3-.3.5-1.1.4-1.9-.2-.8-.7-2.4-.9-3.7-.5-2.3.7-2.3.7-.3-1 1.3-1 1.6-1.8.8-2.1-.6-.3-6.4-4.2-13-8.6-26.6-18.3-26.2-18.1-30.7-17.5-3.8.5-3.9.5-1.3-.6 1.5-.6 2.6-1.4 2.5-1.8-.3-.7-10-8.4-23-18.3-4.3-3.2-7.8-6.1-7.8-6.3 0-.7 3.8 1.6 8.6 5.4 13.6 10.5 22.9 17.3 23.6 17.3.5 0 .9-5.3 1-11.8l.1-11.7 1 11.7c.6 6.5 1.3 11.8 1.7 11.8.8 0 12.2-8.6 22.4-16.9 7.7-6.2 7.8-5.6-1.3-10.6-10.6-5.9-22.8-12.8-24.1-13.6-3.1-1.9-10-5.1-27-12.4-9.6-4.1-17-7.5-16.4-7.5 1.6 0 22.1 8.3 32.2 13.1 4.6 2.1 9.5 3.9 10.9 3.9 1.5 0 7.9-3.6 16-9.1 7.5-4.9 13.7-8.9 13.9-8.7.4.5-20.1 14.9-23.8 16.8-1.6.7-2.8 1.8-2.8 2.5 0 1.2 9.5 6.9 22.8 13.7 7 3.6 8.4 4.1 9.2 2.8.8-1.2 1-1.2 1-.1s1.6 1.2 7.8.8l7.7-.6-6.8 1.3c-3.7.7-7 1.6-7.3 1.9-.7.6 2.6 4.8 10.3 13.4 2.7 3 4.8 4.3 7.3 4.6 1.9.3 4.8 1 6.3 1.6 4.7 1.8 5 .8 4.3-11.3-.3-6.1-.6-11.4-.6-11.9 0-.4-1.5-.7-3.2-.8-3 0-3.1-.1-1-.9 1.2-.5 2.2-1.1 2.2-1.3 0-.3-1.2-3.1-2.6-6.3-1.4-3.3-3.3-7.5-4.1-9.4-.9-1.9-2-4.3-2.5-5.3-.5-.9-.6-1.7-.3-1.7s2.8 4.7 5.6 10.5c2.9 5.8 5.5 10.5 5.8 10.5.6 0 4.5-6 4.6-7 0-.3 2-3.2 4.4-6.5s4.2-5.6 3.9-5c-1.4 3.5-6.8 13.8-7.8 15-2.5 3-.2 2.6 2.9-.4 1.8-1.7 2.7-3.1 2.1-3.1s-.8-.5-.5-1c.4-.6 1-.8 1.5-.5s1.7-.2 2.7-1.2c3-2.9 14.5-10.3 16.1-10.3 1.1 0 1.3-.8.8-3.5-.4-1.9-.4-3.5-.1-3.5 1 0 3.5 2.8 3.5 3.9 0 .6.5 1.1 1 1.1.6 0 1-.4 1-1 0-.5 1.6-1.2 3.5-1.6 2.5-.4 4.4-1.7 6.2-4.3 4.2-5.7 4.6-5.9 2.7-1.3-2.2 5.7-1.3 6.3 9.4 6 6.8-.3 8.1-.5 7.6-1.8-.3-.8-.9-2.3-1.1-3.3-.3-.9-.9-1.7-1.3-1.7-.7 0-3-4.5-3-5.8.1-1.1 3.9 4 5.6 7.6 1.9 3.8 4.5 5.4 9.2 5.7 2 .1 3.8.9 4.4 1.9 1.7 3 3.3 1.7 5.4-4.4l2.1-6.1-2.1-1.4c-1.1-.8-2.5-1.5-3.1-1.5s-3-.9-5.3-2c-2.2-1.1-4.7-2-5.4-2s-4.1-1-7.6-2.2c-6.1-2.1-6.2-2.2-7.7-.2-.8 1-2.4 3-3.5 4.4-1.9 2.3-1.9 2.3.1-1.3 1.2-2.1 1.9-4 1.6-4.3-.4-.4-20.2 3.6-26 5.2-1.3.4-1.6 1.2-1.2 2.7.5 1.9.5 2-.5.4-.6-.9-1.6-1.4-2.2-1.1-.6.4-1.4.1-1.8-.6-.5-.9-5.1-1.6-13.6-2.1-26.6-1.7-32.1-1-26.4 3.1 1.1.8 2 2 2 2.8 0 .7.9 3 2 5.2 3.5 6.8 2.1 5.8-2-1.5-2.1-3.8-4.5-7.4-5.3-8-.7-.5-2.5-4.4-4-8.5-1.4-4.1-5.1-13.4-8.2-20.5-6-13.9-6-13.8-10.1-23-1.4-3.3-4.6-10.7-6.9-16.5-2.4-5.8-5.1-12.3-6.1-14.5l-1.9-4-.7 17c-.5 9.3-1.2 21.3-1.7 26.5-.9 9.1-.9 8.9-.5-4.3.2-7.5.7-19.8 1.1-27.4.6-12.8.5-13.6-1.2-12.9-1.5.5-1.6.4-.5-.9.7-.9 1-1.8.7-2.1-.6-.6-40.2-7.4-55.2-9.4-4.4-.7-8.6-1.6-9.5-2.1-1.7-1.1.6-.9 19 2.2 26.9 4.4 42.6 6.9 43.7 6.9 1.2 0-1-7.1-3.1-9.8-.5-.8-2.4-4.4-4.1-8-6.6-14.4-28-57.1-28.7-57.1-.4-.1-2.9 3.2-5.6 7.2s-6.5 9.6-8.4 12.3-4.7 7.1-6.3 9.9c-1.6 2.7-4.4 6.7-6.2 8.8-1.8 2-3.3 4.1-3.3 4.6s-.6 1.6-1.3 2.3-3 4.1-5 7.4c-2 3.4-4.4 6.7-5.2 7.4-2.5 2.1-1.7 3 2.8 3.1 2.3.1 5.6.5 7.2 1 1.9.5.4.6-4 .2-3.8-.4-8-.6-9.2-.6-2.8.1-3-1.5-.4-2.5 1-.4 5.6-6.3 10.1-13.2s9.8-14.8 11.7-17.5c12.3-17.6 20.4-30.7 19.9-32.1-.3-.8-.2-1.2.4-.9.6.4 1-1.1 1-3.7l.1-4.3 1.5 2.7c.8 1.6 1.6 2.8 1.7 2.8.2 0 2.7-1.1 5.5-2.5 2.9-1.4 5.6-2.5 6.1-2.5.4 0 5.5-2.2 11.2-4.9 5.7-2.6 13.7-6.3 17.7-8.2 8.4-3.8 8.2-4.2-3.8-5.7l-7.5-1 9 .6c5 .4 10.6.5 12.5.4s13.4-3.6 25.5-7.7c12.1-4.2 23.7-8 25.8-8.6 2.2-.5 5.7-1.9 7.9-3s4.5-1.8 5.1-1.6-1.6 1.4-5 2.8l-6.3 2.4 3.3 1.6c1.7.9 12 5.4 22.7 9.9s26.7 11.3 35.4 15.1c8.8 3.8 16.1 6.7 16.4 6.5.4-.5-10-31.7-13-38.4-1.1-2.6-2.7-6.7-3.5-9.2-2-5.8-3.2-7.3-5.6-6.6-1.1.3-2.6-.1-3.3-.8-1.1-1.1-.6-1.4 2.9-1.4 3.3-.1 5 .6 7.7 2.9M458.2 80.3c1.4 1.3 6.9 4.9 12.4 8.1 16 9.2 30.7 18.4 33.2 20.6 2.3 1.9 2.3 2 .3 2-1.1 0-2.3-.5-2.7-1.1-.7-1.2-9.8-1-35.4 1.1-20.4 1.6-23 2-23 3.6 0 .8-.7 1.4-1.5 1.4s-1.5-.5-1.5-1c0-.6-1.2-1-2.7-1-2.7.1-2.6.2 1.1 2 2.1 1.1 4.3 2.3 5 2.8 1.3 1.1 25.4 13.6 54.1 28.2 22 11.2 22.3 11.2 18.7 1.7-2.5-6.6-8.8-22.5-11.7-30-1.3-3.1-2-5.7-1.7-5.7.9 0 2.5 3.9 10.8 25 3.6 9.1 6.9 17.5 7.4 18.7.6 1.5 1.8 2.3 3.5 2.3 4.5 0 39.9-6 41.8-7 1-.6 2.2-.8 2.7-.5 1.4.8 1.2 4.2-.2 5.1-.7.4-.8.3-.4-.5 1.8-2.8-3.5-2.5-30.7 2.3-7.6 1.3-14.1 2.6-14.4 3-.3.3.1 2 1 3.8 3.2 6.8 4.9 11.8 4.4 13-.3.8-.9.3-1.5-1.2-.6-1.4-1.9-4.5-3-7l-2.1-4.5-.1 5.5c-.2 10.1-1 25.4-1.5 31.8-.6 6.3-.6 6.4 3.7 11.5 2.4 2.8 7.5 8.4 11.3 12.3 18.3 19.1 22.4 23.6 19.7 22-1.2-.7-11.6-11.3-20.2-20.6-12.5-13.4-15-15.9-15.5-15-.3.5-1.9 8-3.5 16.7s-3.4 17.8-4 20.3-1.7 8.1-2.4 12.5c-.8 4.4-1.6 8.7-1.7 9.5-.3.9.2 1.4 1.1 1.2 2.5-.5 22.8-9.2 35.8-15.3 10-4.7 12.2-6.2 12.2-7.9 0-1.4.4-1.9 1.3-1.3.6.4 2.2.6 3.5.4 1.2-.1 2.2.2 2.2.8s-.7 1.1-1.5 1.1-1.5.6-1.5 1.4c0 .7-1.2 1.6-2.7 1.9-4.1.7-50.4 21.3-51.3 22.7-.4.7-1.3 1-1.9.6-1.2-.7-23.2 6.7-26.9 9.1-1.3.8-2.6 1.2-2.9.9-.3-.2-3 .6-6.1 2-3 1.3-5.7 2.3-5.9 2.1s2.4-1.6 5.7-3.1c4.3-1.9 6-3.3 6-4.6 0-1-.4-2.1-.9-2.4-1-.6-3.3-6.6-2.6-6.6.3 0 1.4 2 2.6 4.5s2.6 4.5 3.3 4.5c2.8 0 24.6-7.5 24.3-8.4-.4-1.3-32.9-17.6-33.8-17-.4.2-.9-.3-1.3-1.1-.3-.8-1-1.5-1.6-1.5-1.3 0-.3 4.6 1.7 7.8.8 1.3 1.2 2.6 1 2.9-.5.4-5.7-7.9-7.1-11.2-.5-1.3-11.8 10.3-22.1 22.8-4.4 5.3-8.3 9.7-8.7 9.7-.3 0-2 1.9-3.8 4.2l-3.1 4.3 2.8.5c3.1.6 3.7 2.7 1.2 4.3-1.3.8-2.1.6-3.4-.6-.9-.9-1.9-1.7-2.3-1.7s-3.5 3-6.9 6.7c-3.4 3.8-6.2 6.3-6.3 5.8 0-.6 1.5-2.6 3.3-4.6 1.7-1.9 4.5-5 6-6.9 1.6-1.9 5.2-6 8.1-9 5.2-5.4 14-15.7 18.4-21.5 1.3-1.7 5.1-5.8 8.4-9.3 3.4-3.4 5.9-6.4 5.7-6.6-.8-.7-14.6-7-22.4-10.1-4.4-1.8-13.4-5.5-20-8.2-17.4-7.2-16.5-7.1-16.5-1 0 4.4 1.1 18.4 3.4 43.6.3 3.1.8 9.2 1.1 13.6s.7 10.5 1 13.5c.4 5.5.4 5.5-.5 1-.4-2.5-1.5-12.8-2.4-23-3.3-39.1-4.8-52.5-6.2-54.6-1.4-2.4-1.2-2.3-29.9-4.5-8.2-.6-16.3-1.5-17.9-2-1.7-.5-3.3-.6-3.7-.2-.8.9-2.1 17.3-4 51.5-.7 12-1.5 21.8-1.8 21.8-.4 0-.3-4.8 0-10.8.4-5.9 1-16.3 1.4-23.2.3-6.9 1-18.4 1.5-25.5.5-7.2.5-13.3.1-13.7-.3-.4-4-1.6-8.1-2.7s-15.3-4-24.9-6.5-17.6-4.6-17.8-4.6c-.1 0-.3.7-.3 1.5s-.4 1.5-1 1.5c-.5 0-1-.7-1-1.5s-.4-1.5-1-1.5c-.5 0-.7-.6-.4-1.3.2-.7-.7-6.9-2.1-13.7-1.4-6.9-3.2-15.9-4-20s-1.7-8.6-2.1-10c-.3-1.4-.3-2.2.1-1.8.6.6 6.4 25.5 8.6 37.1 1.4 7.1 2.4 7.9 14.9 10.7 5.2 1.2 10.6 2.6 12 3.1s3.9 1.2 5.5 1.5c2.5.4 12.4 3 19.7 5.1 1.1.3 1.8-.3 2.2-2.4 1.4-7.3 3.6-25.6 3.8-32.8.3-7.3.1-8-1.5-7.7-1.4.3-1.8-.2-1.5-2 .2-1.5 1-2.3 2.2-2.3s2.3-1 2.7-2.5c1-3 2.8-22.3 2.1-23-.2-.3-6 5.3-12.8 12.5-6.8 7.1-11.8 13.2-11.1 13.4 1.5.5 2.7 2.2 2.7 3.8 0 1.9-3.8 1.6-4.9-.5-.9-1.5-3.2.5-16.5 14.3-8.5 8.8-15.7 15.7-16.2 15.2-.4-.4 6.2-7.8 14.7-16.5 23.9-24.3 45-46.4 44.6-46.9-.2-.2-8 .4-17.3 1.2s-18.7 1.4-20.9 1.4c-2.2-.1 4.9-1 15.8-2s20.4-2.2 21.2-2.6c1.1-.7.4-1.9-3-5.8-2.4-2.8-7.7-8.8-11.8-13.5s-8.1-8.5-8.8-8.4c-.8.1-5 2.8-9.3 6-6.5 4.8-7.6 6-5.8 6.2 2.3.3 2.9 1.6 1.3 2.6-.5.3-1.4-.1-2.1-.9-1.5-1.8-2.6-1.3-12.7 6.6-4.3 3.3-10.2 7.6-13.1 9.6s-5 3.8-4.8 4 6-.1 12.9-.8c6.9-.6 13.1-.9 13.8-.6.8.3.1.6-1.4.6-2 .1-3 .7-3.4 2.1-.3 1.1-.9 1.7-1.4 1.4s-.6-1-.3-1.6c.5-.8-2.4-.9-10.1-.4-11.9.8-12.7 1.2-17.4 8.8-1.2 2.1-2.5 3.8-2.7 3.8-.8 0 3.5-7.8 4.7-8.6.8-.5.8-.9-.1-1.4-.8-.5.1-1.7 2.6-3.6 2.2-1.5 7.1-5.1 10.9-7.9 3.9-2.8 12.6-9.3 19.5-14.3 6.9-5.1 14-10.7 15.9-12.4 2.6-2.4 3.6-2.8 3.9-1.8.2.8.9 2 1.6 2.5.6.6 5.2 5.5 10.1 11 15.6 17.3 14.4 16.2 15.8 14.3.7-.9 3.2-4.7 5.7-8.3 5.5-8.1 14.7-20.9 20.8-28.9 3.9-5.2 4.2-5.8 2.1-5.2-1.3.3-3.7.9-5.4 1.1-2.4.4-2.2.2 1-1 2.2-.8 4.9-1.9 6-2.4 1.1-.6 3.6-1.2 5.5-1.5 10.4-1.4 12.4-1.6 11.3-1-.7.3-1.3 1.7-1.3 3 0 1.5-.6 2.4-1.5 2.4-.8 0-1.5-.9-1.5-2 0-2.2-.3-2.3-4.9-1.4-2.9.6-4.4 2.4-1.9 2.4.6 0 1.9.6 2.7 1.4.9.8 3.7 2.1 6.3 3s8.7 3.5 13.5 5.9c4.9 2.5 10.5 5 12.5 5.6 4.4 1.4 3.7 2 14.9-12.8 3.5-4.6 7.9-10.4 9.7-12.8 2.9-3.7 3.1-4.3 1.5-4.4-1.6 0-1.6-.1.2-.9 3.3-1.4 5.1-1.1 7.7 1.3M229.4 227.6c-.1 2 .3 4.3.9 5.1 2.3 2.8 9.4 10.9 19.8 22.4 5.7 6.3 13.4 14.9 17.1 19 3.7 4 10.9 11.8 16.1 17.2l9.4 9.8h5.4c3-.1 12.3.2 20.7.5 10.8.5 15.2.3 15.2-.4s-1.2-.9-3.2-.6c-2.4.4-2.9.3-1.8-.4.8-.6 1.7-.9 2.1-.6 1.7 1 1.8-1.6.3-5.2-1.9-4.6-14.9-30.6-20.9-41.9-9.1-16.9-14.5-27.8-14.1-28.3.3-.2 1.7 2 3.2 5 2.7 5.3 7.7 14.9 17.2 32.9 9.3 17.7 15.2 29.6 15.2 30.8 0 .7.4 1 .9.7s.7-1.6.3-2.8c-.3-1.4-.1-1.9.6-1.4.6.4 1.1 2.2 1 4s.4 4.1 1 5.2c1.1 1.8 1.1 1.8 1.2-.4 0-1.2.4-2.2.9-2.2s1.1 1 1.3 2.2c.3 2.3.3 2.3 2.1.3 1-1.1 5.7-6.8 10.4-12.8 4.6-5.9 8.7-10.7 9-10.7.6 0-.2 1.1-5.8 8-4.5 5.6-13.9 18.8-13.9 19.6 0 .3 1-.2 2.2-1 1.3-.9 4.3-1.6 7.1-1.6h4.9l-1.6 2.4c-.9 1.4-1.2 2.7-.8 2.9 1.2.8 43.1 9.2 49.2 9.9 1.4.2 2.5-.2 2.6-1 .3-2.5.5-2.7 1.5-1 .8 1.4 1.5 1.5 3.6.7 1.4-.5 2.8-.8 3-.5.2.2-1 .8-2.6 1.4-3.1 1.1-4.2 3.1-1.8 3.3.6 0 .3.4-.8.8-1.2.5-2.5.3-3.3-.6-.7-.7-2.3-1.5-3.5-1.8-5.3-1.2-37.9-7.4-44.7-8.5-4.1-.6-9.3-1.5-11.5-2-2.1-.5-4.1-.8-4.2-.6-.2.2 4.1 6.4 9.6 13.7 15 20.2 16.2 21.9 15.4 21.9-.4 0-3-3.2-5.8-7-2.7-3.9-8.6-11.6-13-17.2l-8-10.2-.6 5.9-.6 6-.1-6.2c-.1-3.4-.6-6.4-1.1-6.7-.4-.3-1.9.6-3.1 1.9-1.3 1.4-2.8 2.5-3.3 2.5-.6 0 0-1.2 1.4-2.6l2.4-2.7-3.4.7c-1.9.3-3.9.1-4.7-.4-1.5-1.3-25.2-3.4-31.1-2.7-3.3.3-4.3.1-4.3-1 0-.8-.6-2-1.2-2.7-9.7-10.1-30.2-32.2-40.4-43.6-7.1-7.9-14.6-16.3-16.6-18.5l-3.7-4-.1 10.9c0 13.2-.8 13.8-1.1.8-.1-5.1-.6-9.2-1.1-9.2-1.5 0 .1-8.4 1.9-9.7.9-.7 1.8-1.3 1.9-1.3 0 0 0 1.6-.2 3.6m-31.5 68.9c.4.5.7 4 .5 7.6-.3 6.6-.2 6.8 3.4 10.1 7.4 6.6 22.3 18.8 23.2 18.8.5 0 1.1-1.2 1.3-2.8.4-2.5.4-2.5.6.5 0 1.8.5 3.3.9 3.3s4.7-2 9.5-4.5c9.9-5.1 11.6-5.3 3-.4-3.2 1.8-7.9 4.8-10.5 6.6-2.7 1.8-4.8 3.1-4.8 2.7 0-.3-1.5.4-3.2 1.6l-3.3 2.2 3.4-3.1c1.9-1.7 3.3-3.2 3-3.4-.2-.2-4.4-3.9-9.4-8.3-4.9-4.4-10.9-9.4-13.2-11.2-3.6-2.8-4.2-3-4.6-1.5-.3 1.5-.5 1.5-.9.3-2.2-6.6-2.5-7.9-1.7-7.4 1 .6 1.1-1 1.1-14.6.1-6.1.2-7 .5-3 .2 3 .8 5.9 1.2 6.5m416.3 13.6c-1.3.5-2.2 1.3-2 1.9.6 1.9 15.1 14 16.7 14 1.2 0 1.6-.9 1.5-3.3-.2-4.3 1.8-4.4 5.8-.5 1.6 1.5 3.2 2.8 3.7 2.8.4 0 .6 1.3.3 2.8-.2 1.8.2 3.5 1.3 4.5 1.5 1.6 1.5 1.8-.1 1.6-.4 0-1 .5-1.4 1.1-1.3 2.1-5.3.3-7.9-3.4-1.3-2-4.3-4.7-6.7-6.1s-4.7-3.1-5.1-3.8c-1.1-1.7-10.5-9.3-12.3-9.9-2-.7 2.5-2.7 6-2.7h2.5zm-283.4 10.3c4.6 3.1 5.3 3.3 6.2 1.8.8-1.5.9-1.4 1 .5 0 1.2.8 2.4 1.8 2.8.9.3 3.9 2.5 6.7 4.9 3.8 3.4 4.7 4.7 3.8 5.8-.7.8-.8 3-.3 6.3.4 2.7.6 5.3.3 5.8-.2.4-2.9.5-5.9.2-5.2-.5-5.4-.4-5.4 2 0 1.4.5 2.5 1 2.5.6 0 1 2.8 1 6.3 0 5 .4 6.6 2 8 1.1.9 2 2.1 2 2.7 0 1.7-2.5 1.1-4-1-1.8-2.5-3-2.6-3 0 0 1.1.5 1.7 1.3 1.5.9-.4 1.2 1.5 1.3 7.5.1 6.9-.1 7.8-1.4 6.8-1.1-1-1.7-.9-2.7.5-1.5 2.1-2.5 1.2-2.5-2.5 0-1.5-.4-2.9-1-2.9-.5-.1-1.4-.2-1.9-.3-.5 0-1.2-.4-1.6-.7-1.1-1.2-2.5-12.3-2.9-23.9l-.4-11.5 1.6 5.9c1.3 5.3 1.6 5.7 2.4 3.7.5-1.3.6-3.3.3-4.5-.5-1.7-.2-1.6 1.9.8 1.9 2.3 2.4 3.9 2.3 7.5-.2 4.1 0 4.6 2.2 4.9 1.8.3 2.2 0 1.8-1.2-.4-.9-.9-4.7-1.3-8.4s-1.3-7.4-2-8.2c-4.1-4.4-9.4-11.6-9.4-12.7 0-.6-2-3.1-4.5-5.4s-4.5-4.6-4.5-5.1c0-1.7 2.4-.7 4.9 2.1 1.4 1.5 4.6 3.7 7.1 4.8 4.8 2.1 9 7.6 6.9 8.9-1.4.8-2.9-1.4-2.2-3.3.3-.7-.3-1.6-1.3-2-1.1-.3-2.2-1.1-2.5-1.6-.4-.5-1.2-.8-1.8-.6-1.4.5 2.4 5.9 6.2 9 2.7 2 2.7 2 2.7 0 0-1.1 1-2.7 2.3-3.6 2.1-1.6 2.1-1.7.3-2.8-1-.7-5.4-3.6-9.7-6.5-4.3-2.8-8.3-5.2-8.8-5.2-1.2 0-1.4-1.3-.4-2.3 1.5-1.5 5.1-.5 10.1 2.7M259 349.8c0 1.1 1.2 3.7 2.8 5.9 1.5 2.2 6.4 9.4 11 16s9.3 13.1 10.5 14.4 3 4.2 4 6.4 1.4 3.5.9 3c-1.1-1.1-12.5-17.2-24-33.9-4-5.8-7.7-10.6-8.3-10.6-1.2 0-22.2 15-23.9 17.1-.3.4-2.7 2.4-5.5 4.4-6.3 4.8-5.9 4.4-5.3 5 1.3 1.3 26.6 8.5 29.9 8.5 2 0 4.2.6 4.8 1.4.6.7 3.9 2.1 7.4 3 8.8 2.4 24.9 7.7 24.5 8.1-.2.2-6.1-1.4-13.1-3.6-15.1-4.6-20.2-5.6-21.1-4-1.2 1.9-3.6 1.2-4.6-1.4-.5-1.4-1.1-2.5-1.3-2.5s-6.4-1.8-13.7-4-13.9-4-14.7-4c-.7 0-1.4 1.2-1.4 2.7-.2 2.4-.2 2.5-.6.5-.2-1.2-.9-1.9-1.5-1.6-.6.4-.5-.3.2-1.6.6-1.2.9-2.7.7-3.4-.4-.9.2-1.2 1.6-.9 2.1.4 5.9-2.2 31.2-21.3 7.6-5.7 9.5-6.4 9.5-3.6m344.8 41.4c5.6 5.9 7.2 6.1 7.2 1 0-5.4.9-8 3.1-8.5 1-.3 1.8-.2 1.7.2-.4 3.3.4 4.9 2.2 4.4 1.4-.4 2 0 2 1.1 0 1-.8 1.6-2.1 1.6-1.9 0-5.8 3.5-5.9 5.3 0 1.3 13.4 6.9 13.8 5.8.2-.6.8-1.1 1.3-1.1.6 0 .8.4.5.9-.4.5.3.7 1.3.4s2.8 0 4 .6c2.7 1.5 2.8 4.1.1 3.4-1.6-.4-2 0-2 2 0 1.3.8 3.1 1.7 3.8 1.5 1.2 1.6 1.2 1-.5-.5-1.2-.1-2.6.9-3.7 2.1-2.3 3.6-2.5 2.8-.4-.7 1.6-.1 1.8 3.4.9 1.8-.5 2-.9 1.1-2s-.8-1.4.4-1.4c.9 0 1.9.4 2.2 1 1.2 2 3.3 1.1 2.8-1.3-.4-1.6-.1-1.5 1.1.8 2.1 3.8 5.3 6.5 7.6 6.5 1.3 0 1.8.7 1.7 2-.1 1.1-.7 2-1.4 2s-1.3.7-1.3 1.5-.6 1.5-1.2 1.5c-.9 0-.8.4.2 1 .9.6 1 1 .3 1-.6 0-1.8.3-2.7.6-2.7 1-1.9-3.2.9-5 1.4-.9 2.5-2 2.5-2.5 0-.8-13.7 3.2-17.2 5-1 .5-2.5.9-3.3.9s-1.5.4-1.5.9-2.2-.2-5-1.5c-5.8-2.8-7-3-7-.8 0 .8-.5 1.2-1 .9-.6-.4-.8-1.5-.5-2.5.4-1.3 0-2-1.3-2.4-2.1-.7-6.1-4.6-4.6-4.6.5 0 2 .9 3.4 2s2.9 2 3.4 2c.4 0 3.1 1.1 5.8 2.5 2.8 1.4 5.3 2.4 5.5 2.1.3-.2-.5-2.6-1.7-5.3-2.8-6.3-9.1-12-15-13.2-2.4-.5-4.6-.8-4.9-.6-.2.2.6 1.9 1.8 3.8 2.9 4.8 2.6 6-.4 1.5-1.4-2-2.5-4-2.5-4.3 0-.4-2.9-4.1-6.5-8.3s-6.5-8.5-6.5-9.6c.1-1.8.3-1.6 1.7.9.9 1.6 3.7 5.1 6.1 7.7M195.9 448c1.2 1 5.1 6.9 5.1 7.8 0 .5 1.9 3.8 4.2 7.3 2.4 3.5 5.4 8.4 6.8 10.9s4.1 6.7 6 9.4c13.5 18.9 14.7 20.9 14.2 23-.5 1.8-.7 1.6-1.5-1.4-.5-1.9-1.7-4.4-2.6-5.5-1-1.1-4.7-6.3-8.3-11.6-3.7-5.2-7.3-10.1-8.2-10.8-.9-.8-1.6-2.1-1.6-3.1s-2.4-5.4-5.2-9.8c-2.9-4.4-5.8-8.8-6.5-9.9-1.5-2.2-1.3-1.6 5.6 20.7 7.2 23.3 8.1 26.4 8.1 28.7 0 3.6 9.4 19.5 13.1 22.3.4.3.7 1.6.6 3 0 1.4.3 3.4.8 4.5l.8 2-1.6-2c-.9-1.1-1.7-3-1.7-4.2 0-1.3-2.2-5.4-4.9-9.2-6-8.4-8.1-12.3-8.2-15.3 0-1.3-.5-3.2-1-4.3-.7-1.5-.8-1.2-.4 1.5.4 2.8.3 3.1-.6 1.7-.6-1-1.7-6.4-2.4-12-.8-6.2-3.1-15.6-5.9-24.1-2.6-7.7-4.4-14.1-4.2-14.4.3-.2-.6-2.4-2-4.9-1.3-2.5-2.4-5.1-2.4-5.7.1-.6.8.2 1.7 1.9.9 1.6 1.9 3.2 2.2 3.5M1203 674.5c0 .7.6 1.8 1.4 2.2s2.4 4.2 3.7 8.3 2.5 6.8 2.6 6c.2-.9-.5-4.4-1.6-7.8-1-3.4-1.5-6-1.1-5.7.5.3 1.4 2.8 2.1 5.5.7 2.8 1.6 5 1.9 5 .4 0 1.7-3.4 3-7.5 1.8-5.7 2.8-7.5 4.2-7.5 1.6 0 1.4.9-1.6 9.2-1.8 5.1-3.6 11-4 13.1-.6 3.4-.9 3.7-2.3 2.5-.9-.7-1.9-1.1-2.2-.8-.8.7-2.3-2.7-6.4-14.3-3.3-9-3.4-9.7-1.6-9.7 1 0 1.9.7 1.9 1.5m24.1 6.4c2.1-1.1 7.9-.3 7.9 1.1 0 .5 1 1.2 2.3 1.6 1.2.3 2.9 1.3 3.8 2 1.3 1.2 1.8 1 3.7-1.5 3-4.1 7.2-4.8 12.5-2.1s8.7 5.9 8.7 7.9c0 1.4-.1 1.4-1 .1-.8-1.3-1-1.2-1.1.5-.1 1.6-.2 1.6-.6.3-.7-2.7-3.1-3-2.5-.3.5 2.9-5.9 10.2-7.9 8.9-.8-.4-.9-.3-.5.4 1.1 1.8 6.9.3 9.4-2.5 1.2-1.3 2.2-2.1 2.2-1.7 0 1.8-4.6 5.4-6.9 5.5-2.5.1-2.5.2.4.9s2.9.8.4.9c-2.6.1-8-3-12.9-7.3-1.9-1.8-3.2-2.1-5.5-1.5-1.6.3-2.5.7-2 .8.6.1-.3 1-2 2.1-2.4 1.5-2.6 2-1.3 2.5.9.4 2.7.1 4-.5 2.2-1.1 2.2-1.1.3.5-1.3 1-3 1.4-4.8 1.1q-2.85-.6-2.1.6c.9 1.4-1 .3-5.8-3.5-2.1-1.6-3.8-3.5-3.8-4.2s-.9-1.5-2-1.8-2-1.1-2-1.9c0-1.1.2-1.1.9 0 .6 1 1 .7 1.5-1.3.4-1.4.4-3.1 0-3.7s-.3-.8.3-.5c.6.4 1.7-.8 2.4-2.6 1-2.3 1.5-2.7 1.7-1.5.3 1.5.7 1.6 2.3.7"/><path d="M793 91c-4.1 1.5-13.3 4.6-20.5 6.9-7.1 2.2-13.6 4.5-14.3 5-1.5.9 1 5.9 9.3 19.1 2.3 3.6 4.4 7.3 4.8 8.2.3 1 1.1 1.8 1.7 1.8.5 0 1 .7 1 1.6 0 .8.4 1.3.9.9.5-.3 1.1.3 1.3 1.2.3 1 .4-.1.4-2.5 0-2.3-.4-4.2-.8-4.2-1.3 0-.8-4.4.6-6.3 1.5-1.9 4.7-2.2 6.3-.6.9.9 2.8-2.2 7.7-12.1 3.6-7.3 6.6-14 6.6-14.7 0-.8.7-2.5 1.6-3.9.9-1.3 1.5-2.6 1.3-2.8s-3.8.9-7.9 2.4M804.2 89.2c-1.3 1.7-12.2 24.7-12.2 25.9 0 .6-.7 2.1-1.6 3.4-.9 1.4-1.2 2.5-.8 2.5.5 0 .4.4-.3.8-1.5.9-2.1 4-.8 4.3.6.1 1.5.8 2 1.6.7.9 2.9 1.5 5.8 1.5 5.3 0 15.7-2.8 15.7-4.2 0-.6.7-1 1.5-1 1.9 0 8.5-3.2 8.5-4.1 0-.3 1.4-.9 3.1-1.3l3.1-.6-2.4-3.2c-5.8-8.3-15.1-19.9-17.6-22-1.6-1.3-2.7-2.9-2.4-3.6.5-1.6-.3-1.5-1.6 0M810.6 92.1c1.7 1.9 5.1 6.1 7.6 9.4s7.2 8.8 10.4 12.2c5.8 6.1 6 6.1 12.8 6.8 3.7.4 14.1.4 23-.1l16.1-.9-6.9-3.3c-8.6-4.1-60.2-25.7-63.6-26.7-2.5-.7-2.5-.7.6 2.6M748 106.8c-3.1 1.5-8.3 3.9-11.5 5.3-3.3 1.4-9.4 4.1-13.5 5.9-13.8 6-17.2 7.8-16.2 8.4 2.1 1.3 65.2 13 66 12.2.6-.7-2.4-6.9-8.5-17.6-9.2-16.1-9.8-17-10.3-16.9-.3 0-3 1.3-6 2.7M890 123.7c0 1 2.6 5.2 12.6 20.2 2.7 4 6 9.2 7.3 11.5 12.7 21.9 28.8 47.6 29.9 47.6.8 0 8.3-59.2 8.4-66.4.1-2.9-.5-5.3-1.4-6.2-1-1-8.1-2.2-22.9-4-31-3.6-33.9-3.8-33.9-2.7M704 128.7c0 1.4 3.7 6.4 5.8 7.9 1.5 1 2.1 2.5 2 4.7-.1 2.7 2 7.8 6.1 14.7.5.8 5.2 10.4 10.5 21.3 5.7 11.6 10.1 19.5 10.7 19.1.6-.3.9 0 .8.7-.4 2 1.1 5.9 2.2 5.9.5 0 .9-.6.9-1.3 0-.8 1.9-4.3 4.2-7.8s4.7-7.3 5.4-8.5c6.4-11.7 8.6-15.8 11.5-21.4 1.8-3.6 3.4-6.8 3.5-7.3.1-.4.3-1 .4-1.5.5-1.6-.3-4.7-1.4-5.5-.8-.5-.7-.9.3-1.6.8-.5.9-1.1.3-1.5-1.1-.6-1.3-4.5-.2-4.4 1.5.1 3.3-.3 2.9-.7-.6-.5-13.2-3.3-25.4-5.5-2.7-.5-12.6-2.5-22-4.4-18.9-4-18.5-3.9-18.5-2.9M948.7 150c-.9 7.4-2.2 18.2-2.7 24-.6 5.8-1.7 14.7-2.6 19.9-.8 5.2-1.3 10.4-1 11.6s5 6.2 10.3 10.9c5.4 4.8 11 9.9 12.5 11.3 3.3 3.3 4.4 2.6 3-1.9-.6-1.8-2-8.5-3.2-14.8-3.4-18.6-13-68.2-13.8-71.5-.6-2.3-1.2.2-2.5 10.5M894.3 139.7c.3 1 2.1 7.8 4.1 15.1s4.2 14.5 4.7 16c.6 1.5 2.6 9 4.5 16.7s4.1 16 4.8 18.5c4.7 15.6 5.8 19 6.2 19 .3 0 3.3-2.4 6.7-5.3 3.4-2.8 7.4-6.1 8.8-7.2 4-3.1 5.3-6.2 3.7-8.4-4.2-5.8-9.8-14.1-9.8-14.6 0-.3-2.1-3.9-4.7-8-2.7-4.2-6.6-10.5-8.8-14.1-5.8-9.6-15.2-24.5-17.1-27.2-2-2.6-3.8-2.9-3.1-.5M767.2 165.8c.4 1.5.2 2.5-.8 2.9-1.4.5-8.6 12.2-12.9 20.8-1.1 2.2-2.8 4.8-3.7 5.9-2 2.2-2.3 3.6-.8 3.6.6 0 1 .5 1 1.1s-.7.9-1.5.5c-.8-.3-1.5-.1-1.5.4 0 .6.7 1 1.5 1s1.5.9 1.5 1.9c0 1.6 1.1 2.1 6.8 2.9 7.5 1.2 22.4 2.3 20.5 1.5-1.8-.7.5-2.8 4-3.7 5.3-1.3 2.5-10-3.4-10.4-4.9-.4-7-3.2-5-7 .6-.9 1.3-3.3 1.6-5.4.3-2 1.2-3.9 2-4.2 1.7-.6 2.1-3.6.5-3.6-.5 0-1-1.2-1-2.6 0-3-3.9-7.1-5-5.3-.5.7-1.3.4-2.5-.8-1.8-1.7-1.8-1.7-1.3.5M743.6 207.7c-.6.6.6 5.3 1.5 5.9.5.3.9 1.2.9 2 0 .7 1.5 4.7 3.4 8.7 1.8 4 3.6 8.2 4 9.5.4 1.2 1.2 2.2 1.7 2.2s.9 1 1 2.2c0 1.3 1 4.3 2.2 6.8 1.8 3.7 2.7 4.4 4.6 4.2 1.6-.3 2.2.1 1.8 1-.2.7-1 1.2-1.6 1-1.8-.4-1.3 2.1 1.8 8.9 1.6 3.5 5.2 11.9 8.1 18.6 2.9 6.8 5.7 12.3 6.1 12.3.5 0 .9-1.9.9-4.3 0-2.3 1.4-17.4 3-33.6 3.6-34.8 3.7-40.8 1.3-41.5-1-.2-9.2-1.2-18.3-2.1-9.1-.8-17.7-1.7-19.3-1.9-1.5-.1-2.9-.1-3.1.1M930.1 218.2c-9.7 8.6-10.3 9.2-8 9.9 2.6.8 44 4.2 44.5 3.6.5-.5-23.6-22.2-25-22.5-.6-.1-5.8 3.9-11.5 9M787.8 227c-.4 1.4-1.2 7.5-1.8 13.6-.5 6.1-1.4 14.4-1.9 18.5-1.3 10.7-2.4 26.9-1.8 26.9.3 0 4.6-8.3 9.6-18.4 8-16.3 8.9-18.8 8.1-21.5-.5-1.7-.6-3.1-.3-3.1s0-.7-.7-1.5c-.7-.9-1.1-1.8-.8-2.1.3-.2-1.6-2.6-4.2-5.2-2.7-2.6-5-5.8-5.2-7.2l-.4-2.5zM867.7 230.7c-1.3 1.2-.7 2.2.8 1.7 1.1-.5 1.3-.2.9 1-.4 1-.1 1.6.7 1.6.7 0 1 .3.7.6-.4.3 0 1.3.8 2.2s3.6 4.4 6.1 7.7c2.6 3.3 8.6 10.3 13.3 15.5s9.9 11.3 11.5 13.5c1.7 2.2 4 4.8 5.3 5.8 1.2 1 2.9 2.5 3.7 3.3 1.2 1.3 1.5 1 1.9-1.8.6-4 1.3-14.9 2.2-36.1l.7-15.7h-24c-13.2 0-24.3.3-24.6.7"/><path d="M918.2 232.4c-.6 1.5-1.4 12.4-1.8 26.3-.3 13.1-.8 25.5-1.1 27.5-.4 3-.2 3.8 1.1 3.8.9 0 1.6.5 1.6 1.1s-.9.8-2.1.4c-1.6-.6-2-.4-1.3.6.7 1.2.5 1.2-.9 0-1.5-1.2-3-.6-12.2 4-5.8 2.9-10.5 5.8-10.5 6.3 0 .6 1.5 2.6 3.3 4.5l3.2 3.4-3.2-2.2c-1.8-1.2-3.5-2.6-3.8-3.1-1-1.7-2.3-1.1-2.9 1.4-1.5 5.9-1.7 9.8-.6 11.1.7.8 1 2.1.7 2.9-1.1 2.7 1.7 3.6 11.7 3.7 8.4.1 9.3.3 5.6 1-2.5.4-6.9.8-9.7.8l-5.3.1 2 3.8c2.3 4.5 11.4 14.3 14.9 16.1 2.9 1.6 17.1 2.6 18.9 1.3 1.8-1.2-1.2-7.9-7.2-16-3.2-4.4-5.3-6.2-6.8-6.2-1.9 0-2-.2-.8-1 1.3-.9.9-1.5-2-4.1l-3.5-3.1 3.8 2.7c2.1 1.5 4.1 2.4 4.4 2.1s1.1.1 1.7 1c1 1.3 3 .6 15.1-4.9 8.9-4 14.1-7 14.3-8s-.3-1.7-1.1-1.7-2.1-.7-2.8-1.7c-1.3-1.5-1.2-1.5.9-.4 1.2.6 2.7.9 3.2.6.6-.3 1 0 1 .7.1 2.6 3.1-2.8 4.6-8.2.9-3 4.3-14.5 7.6-25.5s6.8-22.9 7.8-26.4c2-6.4 3.7-9.7 2.8-5.1-.9 4.4-17.8 60.7-19.5 64.8-.7 1.7 4-.6 11.7-5.7 7.5-5.1 8.4-5.6 7.7-4.4-.3.5-4.9 3.8-10.1 7.3s-9.2 6.8-8.9 7.2c.2.5-.1 1.5-.7 2.3-1.3 1.5-1 13.8.2 15.1 1.1 1 5.6-2.9 6.9-5.9 1.2-2.9 2.7-3.4 4.9-1.5 1.2 1.1 1.2 1 .1-.5-.8-1-.9-1.7-.3-1.7.7 0 .8-1 .2-3-1-3.5.4-5 2-2 .6 1.1 1.5 2 2 2s3.2-4.6 6-10.2c2.7-5.7 5-9.6 5-8.8s-.7 2.8-1.6 4.5c-1.9 3.5-5.3 13.4-5.4 15.3 0 1 .5 1 2 .2 1.1-.6 2-.9 2-.6 0 .5 6.6-2.9 15-7.6 2.4-1.4 4.6-3 4.8-3.6s-1.1-2.1-2.7-3.3c-1.7-1.3-3.1-2.7-3.1-3.2 0-.4 1.2.1 2.7 1.2 1.4 1.2 2.8 1.9 3.1 1.7.8-.8 3.2-18.8 2.7-19.7-.8-1.2-12.5 5.8-16.2 9.8-1.8 1.9-3.3 2.9-3.3 2.2s-.8-.6-2.5.5c-4.3 2.8-4 1.7.4-1.5 3.1-2.2 4.1-3.5 3.6-4.7-.9-2.3-6.5-40.9-6.5-44.9 0-1.7-.4-3.5-1-3.8-.5-.3-1-1.7-1-2.9 0-2.7-.1-2.7-28.5-5.1-21.9-1.9-21-1.9-22.3.9"/><path d="M971.5 235c-.4.7 2.2 23.6 3.5 30.5.5 2.7 1.2 7.5 1.5 10.5.9 8.4 1.6 11.1 2.6 10.8.5-.2 3.2-7.3 6-15.8 5.2-15.8 5.7-17.5 9-26.9 1.1-3 1.6-5.7 1.3-6-.8-.9-23.5-3.8-23.9-3.1M997 248c-.1 2.5-.3 8.7-.6 13.8-.6 9.7 0 14.7 1.6 13.7 1.3-.8 1.3.1 0 2.4-.8 1.5.1 2.7 5 7 3.3 2.9 6 5.7 6 6.3 0 .5-2.6-1.4-5.7-4.3l-5.8-5.2-.6 4.9c-1.6 11.9-1.8 16.4-.6 16.4 1.7 0 12.7-4.6 13.9-5.8.5-.5 1.1-2.2 1.3-3.7.3-3.6-4.1-22.9-5.5-23.3-.5-.2-1-1.9-1-3.8s-.4-3.4-1-3.4c-.5 0-1-1-1-2.2 0-2.5-3.9-14.8-5.2-16.3-.4-.5-.8 1.1-.8 3.5M805.1 247.8c-.6.2-1.1.8-1.1 1.3s-1.7 3.4-3.7 6.6-5.5 9.8-7.8 14.8c-2.2 4.9-5.5 11.5-7.3 14.5-1.7 3-2.7 5.6-2.2 5.8 1.1.4 40.8-20 46.8-24 2.3-1.6 4.2-3.3 4.2-3.7s1.7-1.6 3.8-2.7c2-1 3.9-2 4.1-2.1 1.1-.7-2.3-3.1-3.5-2.6-.9.3-2.5.1-3.7-.5-4.4-2.1-9.7-3.3-11.8-2.7-1.7.6-2.1.4-1.6-.8.4-1-.3-1.7-2.1-2.2-4.4-1.1-12.9-2.1-14.1-1.7M876.2 249.2c1.5 1.3 1.5 1.5 0 2.6-1.1.8-1.1 1-.2.5 1.3-.6 1.3-.4.2 1-1.5 1.8-.7 4.1 1 3.1.6-.4.8-.3.5.3-.3.5.1 2.2.9 3.7.7 1.6 1.4 3.5 1.4 4.2 0 .8.5 1.4 1.1 1.4s.9.7.5 1.5c-.3.9 0 1.5.9 1.5.8 0 1.5.5 1.5 1.1 0 .5-.4.7-1 .4-.5-.3-1-.3-.9.2 0 .8 22.8 12.4 24.2 12.3.5 0-3.3-4.7-8.5-10.5-5.1-5.8-11.7-13.3-14.7-16.8-3-3.4-6.1-6.6-7-7-1.3-.7-1.3-.6.1.5M993.2 250.2c-.7.7-1.2 2.5-1.2 4 0 1.6-.9 5.4-2.1 8.6-6.2 17.1-8 22.4-7.6 22.9.9.8 11.6-5.8 12.2-7.6.4-1.5.5-29.1.1-29.1-.1 0-.7.5-1.4 1.2M883.4 277.7c.2 1 1.2 4.7 2.1 8.3 2.7 10.5 3.6 13 4.5 13 1.3 0 21-9.4 21-10 0-.3-.9-1-2-1.5-25.2-12.6-26.6-13.1-25.6-9.8M1003.2 302.3c-7.9 3.9-8.3 4.3-9.4 8.4-.6 2.4-1.4 4.3-1.9 4.3s-.9.6-.9 1.4c0 .9.8 1.2 2.5.8 2.1-.4 2.5-1 2.5-4.1l.1-3.6 2 2.5 2.1 2.4 4.3-4.9c2.4-2.8 4.7-4.7 5.1-4.3.4.5.3.8-.3.8-1.4 0-8.7 10.9-7.8 11.8.4.4 1.7.7 2.8.7 1.5 0 2.3.7 2.5 2.3l.3 2.3 2-2.5c1-1.3 1.9-3.5 1.9-4.9s.7-2.7 1.5-3.1c1-.3 1.5-1.7 1.4-3.8l-.2-3.3-.7 3.5-.7 3.5-.2-3.3c0-1.8-.6-4.2-1.1-5.2-.7-1.3-.7-2.1 0-2.5.5-.3 1 .1 1 .9 0 .9.4 1.6.8 1.6.5 0 .7-1.4.4-3-.2-1.7-.7-3-1.1-2.9-.3.1-4.3 1.9-8.9 4.2M943.5 313.7c-1.1.3-4.7 1.7-8 3.2s-9 4-12.7 5.6c-4.2 1.7-6.5 3.2-6.1 3.9.8 1.4 5.6 7.9 6.3 8.6.3.3 1.6 2.2 3 4.2 1.4 2.1 2.8 3.8 3.2 3.8.3 0 1.7-1.9 3.1-4.3 2.8-4.8 13.8-25.8 13.5-25.6-.2.1-1.2.3-2.3.6M768 345.7c-.8.4-2 1.1-2.6 1.7-.7.6-3.3 2.7-5.8 4.6-2.6 1.9-7.9 6.1-11.8 9.2-4 3.2-7.6 5.8-8 5.8s-.8.6-.8 1.3 4.2 4.1 9.3 7.5c5 3.4 13.5 9.2 18.7 12.9 9.3 6.5 9.5 6.6 9.8 4.1.2-1.5-.8-9.6-2.2-18.2-1.4-8.5-2.9-18.7-3.2-22.6-.4-3.8-1-7-1.3-6.9-.3 0-1.3.3-2.1.6M773.6 352.5c.2 2.1.9 5.9 1.5 8.4s1.3 7.1 1.6 10.1c.2 3.2 1 6 1.8 6.6 1.7 1.3 2 4.4.4 4.4-.5 0-.8.4-.5.9.4.5.8 3 1.1 5.6.2 2.6.6 4.9.9 5.2.9.9 5.5-3.2 5.6-5 0-3.4 4.2-5.9 6-3.5.3.3 1.6 0 3-.7 1.7-1 2-1.4.9-1.5-1.3 0-1.6-.9-1.4-3.9.2-2.9-.1-3.8-1.1-3.4-.8.3-1.4-.2-1.4-1.1s-.4-1.6-1-1.6c-.5 0-1-.7-1-1.5s-.9-1.5-2-1.5-2.3-.6-2.6-1.4c-.3-.7-2-2.2-3.9-3.2-3.7-2-4.9-4.7-3.4-7.6 1.1-2 .7-2.7-3.3-7.2-1.6-1.8-1.7-1.7-1.2 1.9M967.7 385.6c-.3.4 0 1.9.8 3.4 2.2 4.2.8 4.2-3.2.2-1.9-2.1-3.1-3-2.7-2.2.5.8.9 1.7 1 2 0 .3.4 1.4.8 2.5 2.2 5.9 2.7 7.3 3.1 10 .4 2.6.1 2.3-2-1.8-2.9-5.3-3.8-6-2.5-2 2.3 7.8 3.2 8.8 7.8 8.6 2.4-.1 4.6-.3 4.8-.6.3-.3-.9-3.2-2.5-6.6-5-9.8-2.1-7.7 4.6 3.3 1.3 2.1 1.3 2.1 1.9.1.9-3.3.6-4-1.8-4.5-1.9-.5-2.4-1.4-2.8-5s-1.1-4.7-3.6-6.2c-1.7-1-3.4-1.5-3.7-1.2M991.9 393.2c-4.3 4.2-9.9 10.9-9.9 11.9 0 1.3 16.1 3.6 17.8 2.5 1-.6-.2-6.1-3.1-13.9l-1.4-3.8zM861 400.7c-3.5 1-9 3.7-9 4.5 0 .4-.5.8-1.1.8-.7 0-.9-1-.5-2.4.5-2 .2-2.4-1.4-2.3-1.1.1-2.2.8-2.5 1.7-1 3.3-1.3 7-.7 7 .4 0 6.3-.7 13.2-1.5s12.9-1.5 13.4-1.5c1.2 0-3.3-3.4-6.9-5.2-1.7-.8-3.7-1.3-4.5-1.1M970 408.5c0 1.5 3.4 10.2 4.5 11.5.7.8 1.6 3.4 2 5.7.8 5.1 2.9 5.8 2.3.9-.2-1.9 0-3.2.5-2.9s.7 2.3.4 4.5c-.4 2.6.2 5.9 1.4 9.6 2.4 6.8 2.4 6.4 1.4 12.4-.7 4.4-.6 4.8 1.3 4.8 2 0 2 .1-.3 2.4-1.3 1.3-2.7 3.7-3 5.3-.4 1.5-1 3.7-1.5 4.8s-1.1 5.4-1.4 9.5c-1.4 17.3-2.4 23-5.4 31.4-3 8.2-3.4 12.6-1.2 12.6 1.7 0 4.4-6.5 5.1-12.4.4-3.2 1.1-6.1 1.7-6.5.5-.3 1.2-1.8 1.5-3.2.4-1.4 1.6-3.6 2.7-4.9s2-3.5 2-4.9v-2.6l-2 2.5c-1.1 1.4-2 3.1-2 3.7 0 1.2-2 1.9-2 .7 0-1 6.5-12.8 7.6-13.9.6-.5 2.4-4.4 3.9-8.5s3.9-10 5.3-13c1.3-3 2.8-6.9 3.3-8.5.4-1.7 1.5-4.9 2.3-7.3 1.9-5 4-22.5 3.2-25.8-.7-2.6-2.6-3.3-2.6-1 0 1.8-10.8 24.4-12.1 25.1-1.6 1-1-1.6 1.3-5.7l2.3-4-2.3-4.1-2.2-4.2 2.5 2.7c1.3 1.6 2.7 2.8 3 2.8 1 0 7.6-15.3 7.1-16.5-.4-1.2-12.1-3.5-17.5-3.5-2.4 0-3.1.4-3.1 2 0 1 .6 2.3 1.3 2.7s2.3 2.6 3.5 4.8l2.3 4-3-3.5c-1.7-1.9-3.1-4-3.2-4.5 0-.6-.5.1-1 1.5-.9 2.5-.9 2.5-.5-.3.2-1.5-.1-2.7-.5-2.7-.5 0-.9-.9-.9-2 0-1.7-.7-2-4-2-2.2 0-4 .2-4 .5"/><path d="M964.6 413.5c-1 2.6-.7 5.6.9 10 .8 2.2 1.4 5.3 1.5 7 0 1.6.7 4.3 1.5 5.9.8 1.5 1.5 3.7 1.5 4.7 0 1.6.8 1.9 5.5 1.9h5.5l-1.6-3.8c-.9-2-2.1-5.3-2.7-7.2-1.3-4.4-2.6-6.2-4-5.3q-1.05.6-.3-1.2c.4-1.1 0-2.5-1-3.6s-1.3-1.9-.9-1.9c.5 0-.1-1-1.2-2.3-1.1-1.2-2.5-3-3-4.1-.9-1.7-1.1-1.7-1.7-.1M907.7 423.2c-2.5 2.9-9.2 10.7-14.7 17.3-5.6 6.6-12.2 14-14.5 16.5-3.5 3.6-4.3 5-3.8 7.1.6 3 13.7 16.9 15.9 16.9.8 0 1.4-.2 1.4-.4s1.4-4.1 3.1-8.7c5.2-14.3 11.7-34 13.8-42.1 1.1-4.2 2.5-8.6 3.1-9.7 1.7-3.2.7-2.5-4.3 3.1"/><path d="M906.3 444.8c-2.3 5.3-4.9 12.6-5.8 16.2s-2.3 8-3 9.7c-1.2 2.8-1.2 3.3.1 3.3.7 0 1.4-.7 1.4-1.5 0-1.7 3.6-2 4.6-.4.5.8.9.7 1.5-.4.8-1.4 7.1-3.3 9.7-2.8.6.1 1.2-.5 1.2-1.4 0-1.1.4-1.3 1.8-.6.9.5 3.4 1.7 5.5 2.7 2.2 1.1 3.2 2 2.3 2.2-.8.2-2.6-.4-4-1.4-2.4-1.5-2.6-1.5-2.6 0 0 .9.6 1.6 1.4 1.6.9 0 1.2.8.8 2.7-.4 2.1-.2 2.5 1.1 2 .9-.3 1.8.1 2.1.9.9 2.4.7 3.1-.4 1.4-.8-1.3-1-1.2-1 .2 0 1 .4 1.8.9 1.8s1.1 1 1.4 2.1c.5 1.7 1.1 2 3 1.5 2.5-.6 4.4 1.5 3.1 3.5-.3.5 0 .9.5.9.7 0 1.1-2.9 1.1-7.5 0-9.4 1.9-10.1 2.1-.8.3 12.3.4 14.2 1.1 14.8.3.3 1.3-2.7 2.3-6.7.9-4 2.1-8.3 2.7-9.6 1.2-2.3 3.3-3.1 2.6-1-.3.7.4 3.2 1.4 5.6 1.1 2.3 1.7 4.6 1.3 5.1-.5.9 3.2 21.8 4.2 23.4.3.5 1.5 0 2.7-1 4.1-3.6 5.6-4.6 5.6-3.5 0 .6-2 2.7-4.4 4.7l-4.4 3.6-3.5-2c-7.3-4.1-9.3-3.9-23.3 3-7.1 3.4-13.1 6.6-13.4 7-.3.5-1.4.8-2.5.8s-3.3.2-5 .5c-2.4.5-2.5.4-.6-.2 3.1-.9 3.8-2.8 1.4-3.6-1-.3-3.2-1.8-4.9-3.3-6.5-5.9-13.3-11.3-14.1-11.3-1.3.1-5.6 4.2-8.8 8.5-1.6 2.2-4.2 5.5-5.7 7.3s-2.8 3.7-2.8 4.2c0 .6 3.2 1 7 1 3.9 0 7 .4 7 .8 0 1.4 15.8 3.2 37.2 4.3l20.6 1.1 3.4-2.4c1.8-1.2 3.7-2.8 4.1-3.3.5-.6.7 0 .4 1.2-.3 1.3 0 2.6.5 3 .7.3.8.1.4-.5-.4-.7-.2-1.2.3-1.2.6 0 1.1.5 1.1 1 0 .6.6.7 1.8.1.9-.5 4-1.9 6.7-3.2 3.6-1.7 5.1-3.1 5.3-4.7.2-1.2 1.2-2.8 2.3-3.5 2.3-1.4 2.5-5.4.4-10.4-.8-1.9-1.5-4.6-1.5-5.9 0-1.2-.6-2.9-1.2-3.6-1.6-1.6-1.7-2.3-2.3-10.1-.4-5.4-.4-5.8.5-2.7 3 10.2 7.2 23 7.5 23 2.2 0 5.6-14.3 5.7-24.5.2-7-.1-8-1.6-8.3-1.4-.3-1.7-1-1.2-3.4.3-1.6 1.4-4.2 2.4-5.6 1.1-1.5 2.2-3.9 2.5-5.3.6-2.4.4-2.6-2.1-2.2-2.7.4-2.7.4.5-1.2 1.7-.9 3.4-2.8 3.7-4.1.4-1.3 1-2.4 1.4-2.4.5 0 .9-2.1 1.1-4.6l.2-4.6-6.8.5-6.8.4.3 2.9c.2 2.6.1 2.7-1.1 1.1-2.1-2.6-2.7-2.1-2.7 2.5 0 4.7-1 4.6-1.4-.1-.1-1.7-.5-3.3-.8-3.7-.4-.3-3.3 1.4-6.5 3.8-6.1 4.7-15.3 9.4-15.3 7.7 0-.5.4-.9 1-.9 1.5 0 14.3-8.5 16.5-10.9l2-2.3-3.9.8c-2.2.4-5 1.6-6.3 2.8-3.3 2.8-6.6 3.6-8.7 2-1-.7-2.5-1-3.4-.7-1.2.5-1.4.1-1-1.5.6-2.2.4-2.2-9.5-2.2-5.6 0-10.8.4-11.5.9-.9.5 2.5 2.6 10.3 6.4 6.3 3.2 11.9 5.7 12.4 5.7s1.4.7 2.1 1.5c.8.9.8 1.5.2 1.5s-1.8.3-2.8.7c-1.2.4-1.5.3-1-.5 1-1.6-1-1.5-5.9.3-2.2.8-5.1 1.4-6.5 1.4-1.6-.1-.6-.7 2.8-1.7 3-1 5.4-2.1 5.4-2.7 0-.9-17.6-10.5-19.3-10.5-.4 0-.3 1.4.2 3.2 1.2 4.3-.4 2.3-2-2.5-.8-2.6-1-5.8-.6-9.8.4-3.2.5-5.9.3-5.9-.1 0-2.2 4.4-4.5 9.8"/><path d="M941.6 484c-.9 2.7-3.4 23.5-2.9 24.3.3.4 2.7 1.9 5.5 3.2l5 2.4-.7-2.7c-1.5-5.7-4.5-21.5-4.5-23.5 0-1.2-.4-2.9-1-3.7-.8-1.3-1-1.3-1.4 0M951.5 533.4c-9 3.2-8.6 2.7-8.4 12.2.1 4.7.5 8.7 1 9 1.4.8 19.7-8.4 21.9-11.1 1.6-1.9-1.8-6.8-6-8.7-1.7-.7-2.8-1.8-2.5-2.5.2-.7.3-1.3.2-1.2s-2.9 1.1-6.2 2.3M935 540.1c-2.5 1.6-4.9 3.2-5.5 3.7-.5.4-2.7 2-4.8 3.4-4.3 2.9-3.9 3.7 2.8 4.9 2.2.4 6.4 1.4 9.4 2.3l5.4 1.5-.7-6.7c-.3-3.7-.9-7.9-1.4-9.3l-.7-2.6zM913.5 591.1c-4.4.5-8.5.7-9.2.4-.7-.2-1 .2-.7 1 .3.7 1.3 1.6 2.2 2 2 .7 15.3 10 19.7 13.7 1.8 1.6 3.5 2.8 3.9 2.8 1 0 .7-7.8-.6-14.6-1.3-7.3-.1-6.9-15.3-5.3M445.4 90.7C435.3 104.5 433 107.9 433 109c0 .6 1.7.9 3.8.9 2-.1 2.9-.3 2-.6-1-.2-1.8-.9-1.8-1.4 0-.6-.5-.7-1.2-.3s-.8.3-.4-.4c.9-1.4 3.6-1.6 3.6-.2 0 .5.7.7 1.5.4.9-.4 1.5 0 1.5.9s.4 1.8.9 2.1c.9.6 40.7-1.9 50-3.2l5.3-.7-9.3-5.9c-10.7-6.7-32.1-19.4-34.2-20.1-.9-.4-4.1 3.1-9.3 10.2M383.4 96.7c-5.3 6.1-27.4 38.6-27.4 40.3 0 1.3 1.7 1.3 2.5 0 .3-.6 1.2-1 2-1s6.2-1.8 12-4.1c8.3-3.2 10.5-4.5 10.5-6 0-2.1 3.6-2.7 4.2-.7.3.9 3 .3 9.4-2 19.8-7.4 27.3-10.6 26.7-11.5-.6-1-21.4-11-25.3-12.2-1.4-.4-4.7-1.8-7.3-3.2l-4.8-2.4zM372.1 134.6c-4.7 1.9-8.8 3.9-9.2 4.5s-1.2.8-1.8.5c-.6-.4-1.1-.3-1.1.3s-.7.8-1.5.5c-.8-.4-1.5-.2-1.5.2.1 1.4 8.9 6.6 10 5.9.6-.4.9-.1.8.7-.2.7.5 1.2 1.4 1.2 1-.1 1.6.2 1.3.6-1.2 1.9 2.9 1.9 4.5 0 1.1-1.3 2.1-1.7 2.5-1 .3.5 3.4.9 6.8.9 3.4-.1 5-.4 3.5-.6-1.6-.2-2.8-.9-2.8-1.4s-.7-.9-1.5-.9-1.6-.8-1.7-1.8c0-.9-.2-2.2-.2-2.9-.3-3-1.6-2.2-1.6 1 0 2-.4 3.7-1 3.7-.5 0-1-.5-1-1 0-.6-.9-1-2-1-1.6 0-2-.7-2-3.4 0-1.9.7-3.9 1.7-4.7 1.1-1 1.4-1 .9-.2-.4.7-.2 1.3.3 1.3.6 0 1.1-.7 1.1-1.5s1.2-2.1 2.8-2.9c4.8-2.6 0-1.5-8.7 2M352.6 147c-.9 2.3-2.6 14.4-3.6 24.5-.5 4.9-1.5 14.2-2.4 20.5-2.3 17.6-2.9 25-2 24.9 1.4-.2 26.4-26.6 26.4-28 0-.8-.4-.8-1.3-.1-.8.7-1.8.8-2.7.1-1.3-.8-1.1-1.3.8-2.9 3-2.5 3.3-1.4-7.7-26-6.3-14.2-6.8-15-7.5-13M383 181.8c-.8.9-1.5 2-1.5 2.3 0 .4-1 1.6-2.3 2.7-1.9 1.7-2 2.1-.7 3.2.8.7 1.5 1.9 1.5 2.7 0 2 5.8 13.1 9.5 18.3 1.8 2.5 3.3 4.8 3.4 5.3 0 .4.5 1.5 1.1 2.5.7 1.2.9-2.8.8-14.3-.3-15.3-.4-16.2-2.8-19.5-1.4-1.9-2.6-3.6-2.6-3.8-.6-1.2-5.2-.8-6.4.6M510.3 182c-.3 1.1-1.4 2-2.4 2-1.2 0-1.9.7-1.9 2 0 1.5-.7 2-2.5 2-2.3 0-2.5.3-2.3 4 .2 2.2.7 4 1.2 4 .6 0 2 1 3.3 2.2 1.6 1.5 2.3 1.7 2.3.7 0-1.2.2-1.1 1.1.1.8 1.2.9 1 .7-1-.3-2.3 0-2.5 2.9-2.2 2.8.3 3.2 0 3.6-2.5.3-2.3.4-2.1.7 1.2.2 3.9.3 3.9 1 1 .4-1.7.8-5.6.9-8.7.1-4.7-.2-5.6-1.4-5.2-.8.4-1.3 1-1 1.4.3.5 0 1.2-.6 1.5-.6.4-1.3-.2-1.6-1.3-.7-2.9-3.4-3.7-4-1.2M482 189.2c-.1 1.8-.8 4.4-1.6 5.8s-1.3 1.7-1 .7c.4-1.3 0-1.7-1.8-1.7-2.9 0-5.3 2.4-3.5 3.5.7.5.7 1 .1 1.4-1.5.9-2.5 8.8-1.3 9.6 1.7 1 1.3 3.8-.4 3.1-.8-.3-1.5-.1-1.5.4 0 .6.6 1 1.4 1 .7 0 2.8 1.4 4.5 3.1 2.5 2.4 3.1 3.6 2.7 5.5-.4 1.3-1.1 2.4-1.7 2.4s-1.7.7-2.5 1.5c-.9.8-2.7 1.5-4.2 1.5-4.4 0-5.4 1.3-5.6 7.1-.1 3-.5 6-.9 6.6-.5.7-.9 3.7-1.1 6.5-.2 2.9-.1 4.5.1 3.5.3-.9 1.3-1.7 2.3-1.7 2.2 0 4.4 2.5 3.7 4.3-.8 2.2.3 3.1 11.3 8.9 5.8 3 13.1 6.9 16.3 8.7 3.1 1.7 6.4 3.1 7.1 3.1 1 0 1.8-2.3 2.6-7.3.7-3.9 2.2-12.2 3.5-18.2 1.2-6.1 2-11.3 1.8-11.8-.2-.4-1.3-.7-2.4-.7-1.4 0-1.9-.7-1.9-2.6 0-2.4.3-2.6 2.9-2.1s2.9.3 3.5-2.5c.3-1.7.6-4.3.6-5.7 0-1.5.5-3.2 1.1-3.8 1.1-1.1.9-9.3-.3-9.3-.4-.1-2.4-1.6-4.5-3.5s-4.6-3.8-5.5-4.1c-1-.3-1.8-1-1.8-1.5s-.9-.9-2-.9-1.9-.5-1.7-1.1c.1-.6-.5-1.4-1.3-1.6-1.1-.3-1.2-.2-.2.4 2 1.5-1.8 5.4-4.1 4.2-1.9-1.1-2.3-3.9-.6-3.9.6 0 .9-.7.6-1.4-.4-1.1-.1-1.3 1.1-.9 1.3.4-7.6-6-12.9-9.2-.5-.4-.9.9-.9 2.7M373.4 190.9c.4.6.2 1.1-.5 1.1s-7.3 6.1-14.7 13.7c-9.4 9.6-13 13.8-12 14.4.7.4 7.2 1.2 14.3 1.8 30.9 2.7 27.9 2.6 27.2.5-.7-1.8-.6-1.8.7-.2.7 1 2.3 1.8 3.5 1.8h2.1l-2-3.8c-7.5-14-16.8-29.6-17.9-30-.8-.3-1.1 0-.7.7M449.4 575.7c-2.7 4.3-7 10.9-9.6 14.8-2.7 3.8-4.8 7.2-4.8 7.6 0 .9 12.7 6.5 22.2 9.9 4.3 1.5 7.4 3 7.1 3.4-.4.4 0 .4 1 0 1-.3 1.7-.1 1.7.5s.4 1.1 1 1.1.6-.9.1-2.3c-.5-1.2-1.4-4.7-2.1-7.7-1.5-6.7-4.5-16.1-5.8-18.6-.6-1.1-1.8-4.9-2.7-8.7-1-3.7-2.1-6.9-2.5-7.2-.5-.3-3 3-5.6 7.2M433.5 602c-.3.5-.2 1.8.3 2.7.5 1 1.3 4 1.7 6.7 1.1 7.7 1.4 8.1 4.2 5.4 1.5-1.4 3.4-2.1 5.3-2 1.7.1 3-.2 3-.7s1-.7 2.1-.4c2 .6 2.1.3 1.5-2.3-.4-1.6-.8-3-.9-3-.3-.3-9.1-4.2-12.9-5.7-2.2-.9-4-1.2-4.3-.7M420.2 655.3c-2.7 2.8-23.2 31.7-23.2 32.6 0 .7 9.4 17.4 11.6 20.5 1.3 1.9 1.4 1.8 2.8-1.5 2.3-5.6 12.3-52.5 11.3-53.5-.2-.2-1.3.6-2.5 1.9M424.4 697.6c-4.6 4.8-8.6 9.5-8.9 10.5-.4 1.1-1.1 1.9-1.6 1.9s-.9.7-.9 1.5c0 1 1 1.5 3.1 1.5 1.6 0 4.9.4 7.2.9 2.3.6 8 1.7 12.6 2.6 4.6.8 8.8 1.8 9.3 2.1s2.4.8 4.4 1l3.5.4-.7-3.7c-.9-5.3-4.2-18.3-5.5-21.5-1-2.5-2.7-3.5-7.4-4.4-1.1-.2-3.1-.6-4.4-.9-2-.5-3.7.8-10.7 8.1M493.8 697.9c-2.5.9-5.5 2.4-6.5 3.3-1.1 1-2.5 1.8-3.2 1.8-2.2 0-7.2 4.1-8.2 6.6-.5 1.4-2 2.9-3.3 3.4-4.3 1.6-3.9 2.8.7 1.9 2.3-.5 6.5-1.4 9.2-2 9.1-1.9 12.5-3 12.4-3.7-.3-2.1.2-5.2.9-5.2.4 0 1.2 1.5 1.7 3.2.9 3.1 1.3 3.3 7 4.1 10.8 1.4 10.9 1 2-7.4l-8-7.5z"/></svg>