<svg xmlns="http://www.w3.org/2000/svg" width="1706.667" height="960" viewBox="0 0 1280 720"><path d="M0 360v360h388.2l-.7-3.7c-.4-2.1-1-4-1.4-4.3-1-.7.2-5.2 1.3-4.8.5.2 1.3-.8 1.7-2.2s1.9-6.3 3.3-11c4.3-14.2 12.2-48.9 10-44.3-.3.7-1 1.3-1.6 1.3s-.3-1.1.6-2.5c2.3-3.5 2.1-4-3-6-2.5-.9-4.3-1.9-4.1-2.2.3-.2 2.2.3 4.2 1.1 2.1.9 4.1 1.6 4.5 1.6.9 0 3.5-10.8 4.4-18.5 1-8 2.8-16.5 3.5-16.5.4 0 .4-2.3.1-5.2-.5-5.2-.5-5.2-5.4-7-3.6-1.2-6.6-3.5-10.8-7.9-3.2-3.4-5.7-6.4-5.5-6.6s4 2.6 8.3 6.2c7.6 6.2 10.4 7.7 10.4 5.5 0-1.1-2.9-6.1-4.1-7-.3-.3-1.4-2.1-2.3-4l-1.7-3.5 2.3 2.6c1.3 1.5 4 5.5 6.1 8.9l3.7 6.2 2-2.5c1.1-1.4 2-2.8 2-3.1s1.8-3.1 4-6.2c2.2-3.2 4-6.3 4-7s.3-1.4.8-1.6c.4-.2 2.2-2.3 4-4.7 1.7-2.5 3.2-4.1 3.2-3.7 0 1.2-4 7.7-6.2 10-1 1.1-1.8 2.5-1.8 3.1s-1.1 2.6-2.4 4.6c-2.8 4.2-6.6 10.7-6.6 11.5 0 .3 6 3.4 13.4 7 8.7 4.2 14 6.2 15.2 5.7 1.2-.4 1.5-.3 1 .5-.4.7-.3 1.2.3 1.2.5 0 1.2-.4 1.5-.8.6-1-3.5-17.7-5.9-24.3-.9-2.4-2.3-6.9-3.2-9.9-.8-3-2.3-6.9-3.3-8.5-1.5-2.5-1.6-3.3-.6-4.7 1.8-2.4 2.6-2.2 2.1.4-.4 2 6 22.8 13.1 42.6l2.7 7.3 3.1-2.9c1.7-1.6 6.9-5.8 11.6-9.4 9-6.9 15-12.9 15-14.9 0-2.2 1.1-.1 1.6 3 .4 2.5.2 3-1 2.5-.9-.3-2.3.1-3.2 1.1-.9.9-7 6.1-13.5 11.6-6.5 5.4-12 10.3-12.4 10.8-.6 1 1.9 2.4 24.2 13.7 7.3 3.7 13.1 6.9 12.9 7.1-.5.5-10.7-4-24.5-10.9-6.3-3.2-11.6-5.6-11.8-5.4-.2.1.8 5 2.2 10.7 4.6 19.1 5.6 23.4 6.1 26.3.3 1.6.9 3.7 1.5 4.8.5 1 .7 2.3.4 2.8s0 1.2.6 1.6c.8.4.9.3.5-.4s-.2-1.2.4-1.2 2.8-1.3 4.8-3c2-1.6 8.2-6.6 13.7-11.1s10.5-8.5 11-9.1c.7-.6.2-1.5-1.3-2.7l-2.3-1.7h3.5c2.3 0 3.6.5 3.8 1.6.3.8.1 6.4-.4 12.5-.4 6-.9 24-1 40l-.3 29 47.7.3 47.7.2 2.8-4c1.5-2.2 3.4-4 4.1-4 .8 0 .3 1.3-1.2 3.3-3.3 4.3-3.3 4.7.5 4.7 1.6 0 2.8-.3 2.6-.8-.2-.4 1.1-2.1 3-3.9 1.8-1.7 3.3-2.9 3.3-2.6s1.3-.8 2.9-2.3c4.8-4.6 7-6.4 8.1-6.4.6 0 1-.7 1-1.5s1.1-1.7 2.4-2.1c1.3-.3 2.9-1.7 3.7-3 .7-1.4 1.8-2.3 2.5-2s1.4-.4 1.7-1.4c.4-1.5-.6-2.2-5.2-3.9-3.1-1.1-6.8-2.2-8.3-2.3-2-.2-2.5-.7-1.9-1.7.7-1 1.3-1.1 3.1-.1 1.3.7 5 1.6 8.4 2s7 1.1 8 1.6c1.1.4 1.7.4 1.4-.2-.3-.5-.2-1.8.3-2.9.6-1.5.8-1.6.8-.4.1.9 1 1.9 2.2 2.2 1.7.5 1.9.9.9 2.7s-.4 2.8 5.2 8.3c3.5 3.4 6.9 6.2 7.6 6.3.6.1 1.8.2 2.6.3.7 0 1.6 1 1.9 2.1.6 2.1 2.7 2.8 2.7.8 0-.6.7-.3 1.6.8 1.2 1.5 1.5 1.6 1 .2-.2-.9-.8-3.4-1.2-5.5s-1.3-5.2-2.1-7c-.7-1.8-1.3-3.8-1.3-4.5.1-2.3 2.9 3.9 6 12.9 1.7 4.8 3.8 9.9 4.9 11.3l1.8 2.5 305.2.2 305.1.3V0H0zM846 61.1c2.3 1.5 5 3.9 6.1 5.3s6.4 5.8 11.7 9.8c13 9.7 27.3 21 35.2 27.9 8.6 7.4 18.9 14.9 20.5 14.9 1.9 0 7.8 7.7 6.3 8.2-1.2.4.8 14.7 4.3 31.8.5 2.5 2.2 13.5 3.8 24.5 4.2 28.5 6.3 40.9 7.1 41.8.4.4 1.7-2 3-5.5 1.2-3.5 4.4-11.3 7-17.3 9.7-22.4 9.8-22.6 8.2-26.5-.7-2-2.3-4-3.5-4.5-1.2-.6-3.6-3.7-5.4-7-1.7-3.3-3.5-6.5-4-7-3.7-4.2-12.1-16-11.7-16.4.3-.3.9.1 1.4 1 .5.8 2.9 4.2 5.5 7.5 2.5 3.2 6.6 8.9 9.1 12.7 4.3 6.4 6.4 7.6 6.4 3.9.1-2.3 5.3 10 7.3 16.8.8 3 1.8 8.3 2.2 11.8.3 3.5.7 6.9.9 7.5.1.7.1.8-.2.4-.2-.4-1-.3-1.8.4-1.2 1-1.3.9-.8-.5.6-1.5-1.1-15.9-2.2-19.5-.7-2.1-2.5 1-5.8 9.9-1.5 4.1-4.1 10.4-5.8 14-4.4 9.4-8.9 22.3-8 23.2.4.4 5.7 1.2 11.7 1.8 6.1.5 12.1 1.3 13.4 1.6 2.3.7 2.4.6 1.8-3.2-1-6.1-1.4-7.7-3.1-13.4-.9-3-1.5-7-1.5-8.9.1-3.3.2-3.2 1.1 1.3.5 2.7 2 8.7 3.3 13.4 1.4 4.6 2.5 9.5 2.5 10.8s.5 2.4 1 2.4c.6 0 1 1.5 1 3.3s.3 3.7.8 4.3c.4.5 0 .1-1-.8-1.5-1.7-1.7-1.3-2.3 5.9-.8 9.8-.8 10.6-.7 17.1.2 4.8.4 5.3 2.2 4.7 1.6-.5 1.9-.3 1.3 1.2-.3 1-1.2 2.5-1.9 3.3s-1.5 4.9-1.8 9c-.4 4.1-.9 9.6-1.2 12.2-.3 3-.1 4.8.6 4.8.5 0 3.3-1.1 6.2-2.5 2.8-1.4 5.7-2.5 6.4-2.5s2.4-1 3.9-2.3c2.2-1.9 2.4-2.6 1.6-5.2-.6-1.7-2-6.6-3.1-11-1.2-4.4-2.4-8.8-2.7-9.8-.4-1.7-.6-1.7-2.9-.2-2.9 1.9-3.1 1.2-.4-1.8 1.1-1.2 1.8-2.8 1.5-3.7-1.3-3.1-2.2-10-1.4-10 .4 0 1.1.9 1.4 2 1.2 3.8 2.7 2.1 2-2.3-1-6.1-3.7-14.7-4.7-14.7-.5 0-.7-.4-.4-.9.4-.5.1-2.2-.5-3.8-1.9-5-3.9-13.3-3.9-16.6 0-2.1-.3-2.8-.9-1.9-.6 1-1 .8-1.3-1-.3-1.2-.9-3.2-1.4-4.3-.7-1.8-.6-1.8.9-.6.9.7 1.7 1.1 1.7.8 0-.8-5.7-23.6-6.9-27.5-1.3-4.3-.5-4.1 1.5.5 2.2 5.2 4.2 12.4 5.9 21.3 3 15.8 5.4 25.8 8.4 34.9 2.5 7.4 3.1 11.2 3.2 18 0 4.7.4 9.5.9 10.6.8 1.9.9 1.9.9.1.2-4.4 1.4-.1 2.2 7.5.9 9.2 2.9 13.2 2.9 5.8 0-3.2.3-4 1-2.9.6.8.9 3.1.9 5-.1 1.9.4 7.1 1.1 11.5.6 4.4.9 10.4.6 13.5-1 8.3-1.7 35.2-1.1 38 .3 1.4 2 3.6 3.8 4.9s2.5 2.1 1.7 1.9c-6.5-2.1-6-2.4-6 3.7 0 4 .4 5.7 1.5 6.1.8.4 1.5 1 1.5 1.5s-.7.9-1.5.9-1.5.9-1.5 2-.5 2-1 2c-.6 0-1.6 1.2-2.2 2.6-1 2-.9 2.7.2 3.4 1 .6 1.1 1.4.4 3-.5 1.3-.6 6.1-.2 11.8.4 5.3.3 11-.2 12.7-.8 2.7-2.5 10.7-3.4 16.2-.2 1.2-.9 3.7-1.5 5.5s-1.5 6.6-2.1 10.5c-.9 6.3-5.1 20.8-7.9 26.8-1.3 2.8-3.9 10.5-4.5 13.5-.3 1.4-1.1 3.3-1.9 4.4-1.2 1.7-1.3 1.6-1.1-1.2.1-1.7 1-5.1 1.9-7.6.9-2.4 1.4-4.9 1.1-5.4-.3-.6 0-1.6.7-2.4 1.4-1.4 7.1-15.5 8.2-20.3.4-1.7.9-3.9 1.2-5s.9-4.7 1.3-8c1.1-7.3 1.9-10.4 3.7-13 .9-1.3 1.3-5.3 1.3-12.4 0-5.7-.3-10.2-.6-9.9-.6.7-3.4 10.2-3.9 13.5-.6 4-1.8 6.8-4.5 10.8-4.3 6.3-7.2 12.6-6.6 14.1.4.9.2 1.2-.5.8-.6-.4-1.5 0-2 .7-.6 1-.9.6-.9-1.3 0-1.5-.4-3-1-3.3-.5-.3-1-1.2-1-1.8 0-.7.5-.4 1.1.6 1.5 2.5 3.4.8 6.5-6.2 1.4-3.1 3.3-6.4 4.2-7.4.9-1.1 1.2-2.1.6-2.7-.5-.4-7.3-1.6-15-2.4-12.6-1.4-14.8-1.4-19.8-.1-3.2.8-5.9 1.5-6 1.5-.6 0 8.2 25.6 10.2 29.8 1.6 3.4 1.7 4.3.6 6.3-.9 1.7-1.3 1.9-1.4.8 0-1.3-.9-1.5-5.2-1.2-10.5.8-12.3 2.4-9.4 8.2.9 1.7 1.6 3.3 1.6 3.8 0 1.2-5.9-6.1-6-7.4 0-1.8-5.1-1.3-7.5.7-1.1.9-5 3.7-8.7 6.1-3.8 2.4-6.8 4.9-6.8 5.6s-.1 1.3-.2 1.3c-.2.1-3.7.3-7.8.5-6.6.3-6.9.3-2.7-.5 2.7-.5 5.1-1.1 5.3-1.3 1.1-1-20.1-12.1-21.5-11.3-1.2.8-3.4-2.1-2.6-3.4 1.1-1.7 1.7-11 .7-11-.5 0-2.1 3.2-3.7 7.1-1.5 3.8-2.9 6.8-3.2 6.5-.3-.2.7-4.2 2.2-8.8 1.4-4.6 3.3-10.8 4.1-13.8s2.2-6 3-6.7c.9-.7 1.1-1.4.5-1.7-1.1-.7-7.5 5.4-17.1 16.3-3.6 4.1-10.4 11.8-15.2 17-4.8 5.3-8.8 10.2-8.8 11 0 2 16.2 18.2 17.9 17.9.8-.2 2.9-4.6 5-10.8 4.3-12.2 6.4-16.6 5.5-11-.3 1.9-1 4.7-1.6 6.1-1.3 3.7-1.7 7.9-.7 7.9.5 0 .9-.7.9-1.5 0-1.7 5.5-2.1 6.5-.5q.6 1.05 2.4 0c1-.5 2.1-.6 2.5-.2.4.3.4-.1.1-.9-.5-1.2.2-1.8 3-2.2 2-.3 4.7-.2 6 .3 1.2.5 2.6.6 2.9.3.3-.4 1.9.5 3.4 1.9s3.4 2.8 4.2 3.1c1 .4.8.6-.7.6-1.2.1-2.4-.5-2.6-1.2-.3-.6-.6-.3-.6.8-.1 1.1.8 4.2 1.9 7 1.5 3.9 1.9 4.5 2 2.5.2-2.5.2-2.5 1.5.5l1.4 3 .1-4c.1-9.5 1.5-9 2.6 1 1 9.6 1.1 9.9 2.4 7 .8-1.7 2-3.7 2.7-4.6.8-.9 1.5-3 1.6-4.7.2-3.5 2.2-5.1 2.4-2.1.1 1 2.3 5.1 4.9 9.1 3 4.8 3.8 6.5 2.2 5-1.3-1.2-3-2.2-3.6-2.2-.7 0-1.1-.3-1-.7.1-.5-.5-2.1-1.3-3.7l-1.6-2.8-1.5 3.3c-1.7 3.5-2.3 6.7-3.3 16.1-.6 5-.4 5.6 1.7 7 1.3.8 3.5 1.8 5.1 2.2 2.5.6 2.7.4 2.7-2.6 0-1.8-.9-5.3-2-7.7-2.8-6-3.8-12.5-1.9-11.9.8.3 1.5 1.9 1.6 3.7s.8 4.7 1.6 6.4c.9 1.8 2.1 5.3 2.7 7.9.9 3.6 1.6 4.5 2.8 4.1 1-.4.7.2-.7 1.6l-2.2 2.2-6.4-2.6c-3.5-1.4-6.9-2.5-7.5-2.5s-7.4 3.2-15 7.1c-7.7 3.8-15.7 7.2-17.7 7.5-3.5.4-3.3 0 .7-1.2 1-.4-.2-1.6-3.6-3.7-2.7-1.8-6.5-4.4-8.3-5.9-1.7-1.5-4.7-3.5-6.6-4.4s-3.5-2-3.5-2.5c0-1.8-3-.8-4.1 1.3-.6 1.3-3.6 5.5-6.5 9.5-3 3.9-5.4 7.7-5.4 8.3 0 .9 3.2 1.1 12.8.7 7-.3 10.1-.2 7 .1-3.1.4-5.9 1-6.2 1.3-1.2 1.2 14.2 3.1 31.9 3.9 9.9.5 20.8 1.2 24.3 1.6 4.2.5 6.2.3 6.2-.4 0-.6-1.2-1.3-2.7-1.5-2-.3-1.5-.4 1.5-.6 2.3 0 4.2-.5 4.2-1s.9-1.1 2.1-1.4c1.6-.4 1.9-.2 1.5 1-.4 1.1-.2 1.3.9.9.8-.3 1.5 0 1.5.7 0 .9.2.9.8 0 .4-.6 2.1-1.3 3.7-1.6 1.7-.3 4.3-1 5.8-1.6 1.6-.6 4.9-1.1 7.5-1l4.7.1-3.9 1.1c-2.2.7-4.1 1.7-4.3 2.4-.6 1.7 4.7 6.1 6.6 5.6 2.1-.5 6.5-9 5.1-9.8-1.3-.8.6-5.4 3.4-7.9 1.3-1.2 2.6-3.2 2.9-4.6s1.3-3.4 2.1-4.5c1.4-1.8 1.5-1.6.9 3-.5 3.6-1.3 5.5-3 6.9-1.8 1.3-2.3 2.6-2.1 4.7.1 1.7-.5 3.7-1.5 4.9-.9 1.1-1.7 2.9-1.7 4 0 1-.8 2.5-1.7 3.2-2 1.4-2.9 4.8-1.4 4.8.5 0 1.2-.6 1.4-1.3.4-.9.6-.9.6.1.1.7-.6 1.5-1.4 1.8-.8.4-1.5 1.8-1.5 3.3-.1 2.2-.2 2.4-1.1.8-.5-.9-.7-2.2-.4-2.7 1.3-2.1-1.3-.9-3.9 1.9-1.6 1.6-6.8 4.6-11.9 6.7s-9.7 4.1-10.3 4.6c-.7.5-5.5 0-11.5-1.2-5.7-1.2-14.2-2.8-18.9-3.5-4.7-.8-11.1-1.9-14.3-2.6-4.4-1-6.4-1.1-8.8-.2-3 1.2-3.1 1.1-1.5-.6 1.5-1.6 1.5-1.9-.2-3.4-1-1-2.2-1.7-2.6-1.7s-2-.8-3.4-1.9c-5.7-3.9-21.8-11.7-23.6-11.3-1.1.2-1.6 0-1.2-.7.7-1.1-3.7-2.5-11.9-3.7-2.7-.4-4.3-.9-3.4-1.1s4.9.3 8.9 1.1c4.1.9 7.6 1.4 7.8 1.1.2-.2-.8-2.9-2.2-6.1-1.5-3.1-2.4-5.9-2.2-6.2.3-.2 1.7 2.2 3.1 5.4l2.7 5.9 4.9-5.5c2.7-3 5.4-6.9 6-8.5.7-1.7 1.9-3.8 2.7-4.7s1.1-2.2.7-2.8-7.1-4.3-14.8-8.1c-7.8-3.9-14.7-7.5-15.4-8.1-.9-.7-1.7-.7-2.7.1-1.1.9-1.8.2-3.6-3.6-1.2-2.6-3.8-7.2-5.7-10.1-1.9-3-3.2-5.6-3-5.9.3-.2 1.5 1.3 2.8 3.4 1.2 2.1 3.8 5.7 5.7 8.1l3.4 4.3 2.2-2.3c1.3-1.3 6.2-6 10.9-10.6 4.8-4.6 8.7-8.7 8.7-9.2s-2.4-1.6-5.2-2.5c-2.9-.9-7.5-2.5-10.3-3.5-12.3-4.6-28.9-9.2-29.3-8.2-.2.6-.9.9-1.6.6s-3.1.9-5.5 2.6-4.5 2.9-4.7 2.7c-.6-.5 1.4-2.6 4.6-4.7 5.8-3.9 5.8-3.3-.1-9.6-5.3-5.8-5.4-5.8-.9-2.1 6.4 5.4 7 5.8 7 5.2 0-.3 1.1.5 2.5 1.8 2.3 2.1 6.4 3.6 35.9 12.8 7.4 2.4 8.7 2.4 7.9.1-.6-1.6-.5-1.6 1.4.1 2 1.7 2.2 1.6 9-5.5 3.9-4 10.3-11.1 14.3-15.7s10.8-12 15.1-16.5c4.3-4.4 7.4-8.4 7.1-8.8-.4-.4-5.3-.9-10.9-1.2-5.6-.2-10.7-.7-11.3-1.1s-4.3-1-8.3-1.4c-6.1-.5-7.3-.4-7.5.9-.1.8-.4 7.3-.8 14.5-.3 7.1-1 14.3-1.4 16-.6 1.8-.7-3.3-.3-13 .6-15.7.5-16-1.3-13.9-1.1 1.1-5.7 5.4-10.3 9.5-9 8-10.6 10.5-9.1 14.5l1 2.6-2.9-2.4c-1.7-1.3-3-3.2-3-4.4-.1-3.6-8.5-17.9-10.4-17.8-1 .1-1.7-.5-1.7-1.6 0-2-1.9-2.5-19.5-6-4.9-.9-14.2-3.2-20.5-4.9-12.4-3.5-22.8-5-23.9-3.4-.3.5-2.2 1.3-4.1 1.6-3.2.5-3.1.4 1.3-1.5 5.3-2.3 5.7-3.2 2.5-4.9-3.7-1.9-16.8-10.9-19.1-13-1.2-1.1-4.9-3.8-8.4-6-3.5-2.3-6.3-4.5-6.3-5 0-1 11.1 6.2 15.6 10.1 3.8 3.3 20.4 14.3 20.9 13.8.2-.1-.3-3.5-1-7.3-1.2-5.9-2.2-15.3-3.9-35.6-.2-1.9-.7-4.3-1.2-5.2-1-1.8-2.2-1.4-8.6 3.2-2.2 1.6-1.7.8 1.6-2.2 4.4-4.2 5.3-6.7 2.3-6.7-.7 0-5.8-2.7-11.2-6.1-5.5-3.3-12.1-7.2-14.6-8.5-2.6-1.3-5.3-2.9-6-3.6-1.9-1.8-18.7-10-28.2-13.9-4.3-1.7-7.6-3.3-7.4-3.6.6-.6 15.1 5.4 27.1 11.3 5.2 2.5 10.2 4.4 11 4.1.9-.4 1.6-2.3 1.9-4.9l.4-4.3.1 4.7c.1 2.7.4 4.8.7 4.8.2 0 3.3-2 6.7-4.5 16.5-11.9 23.8-16.8 23.8-16.1 0 .2-3.3 2.8-7.2 5.7-4 3-7.8 5.9-8.4 6.4-.6.6-4.1 3.1-7.8 5.5-3.6 2.4-6.6 4.7-6.6 5.2 0 1.1 11.2 8.5 20.7 13.5 6.2 3.2 8.8 4.2 9.3 3.3s.9-.9 1.4-.1c.4.6 1.9 1.1 3.4 1.2l2.7.1-2.5.7c-1.4.4-2.5 1.4-2.5 2.3s3.9 5.8 8.6 10.9c4.8 5.2 10.6 11.6 13 14.2 4.1 4.7 4.3 4.8 5.1 2.6 1.2-3.1-.4-30.7-1.8-33.1-.3-.4-2.4-.6-4.7-.3-3.5.4-3.7.3-1.1-.4 1.7-.4 3.6-1.1 4.2-1.5 1.4-.9-2.3-11.1-7.6-20.9-2.1-3.9-4.2-8-4.5-9-1.1-3 .2-1.9 1.8 1.5.8 1.8 2.6 5.3 4 7.8 5 8.6 6 10.5 6.1 11.5.3 2 2.6 7.5 3.2 7.5.7 0 3.2-3.9 6.6-10.3 1.1-2 2.4-3.7 2.8-3.7.9 0-2.9 8.1-4.2 9-1 .8-2 4-1.2 4 1.5-.1 5.2-3.9 5.2-5.3 0-.9 1-1.9 2.3-2.3 1.2-.4 4.6-2.8 7.5-5.5 3.2-2.8 6.8-5 8.8-5.4 3.3-.6 4.3-2.1 2.5-4.1-.5-.5-1.2-2-1.6-3.4-.6-2.3-.4-2.2 2 .8 2.4 2.9 3 3.2 6.3 2.6 3.8-.7 4.9-1.7 9.4-9.4 3.3-5.4 3.4-5.1.8 1.7-1.9 5.1-1.9 5.2 0 5.8 3.2 1 17-1.1 17-2.6 0-.5-1.8-3.9-4-7.5s-4-7.1-4-7.8c0-1.3 3.9 3.5 4 4.9 0 1.2 7.7 11.7 9.4 12.7.6.4 3 .8 5.3.8s4.8.6 5.5 1.3c2.2 2.1 4.1 1.4 5-2 .5-1.8 1.3-3.5 2-3.9s.8-.3.4.5c-1.8 2.8-.8 10.2 1.8 13.5l2.5 3.4 11.8.1 11.8.1-3.2-3c-4.1-3.7-4.3-4.8-.4-2.1 1.6 1.2 3.1 2.1 3.4 2.1.2 0 .8-2.4 1.3-5.3l.9-5.2.3 6.7c.1 3.8.7 6.8 1.3 6.8s.7.5.4 1c-.4.6 1.1 3.2 3.3 5.8 2.1 2.6 5.1 6.6 6.5 8.9s3 4.4 3.6 4.7c.5.3 2.6-2.9 4.6-7.2 4.3-8.8 7-14.1 9.9-19.4 1.2-2 1.8-3.9 1.5-4.2s-3.4.5-7 1.8c-9.8 3.7-10.8 3.9-5.4 1.1 2.8-1.4 6.7-3 8.8-3.7 4.4-1.3 4.7-3.2 1-5.2l-2.8-1.5 2.9-.1c2.1 0 2.6-.3 1.9-1.3-.5-.6-3.1-7.1-5.8-14.2-2.6-7.2-6.1-15.8-7.7-19.3-1.5-3.4-4-9.9-5.4-14.5-4.1-13.2-7.7-21.9-8.5-20.5-.4.6-1 5-1.4 9.7-.3 4.7-1.3 14.2-2.1 21.1-2.1 18.2-1.9 20.8 1 22 1.3.5 2.7 1.4 3.2 2.1.5.9.2 1-.9.6-1-.4-2.4-1-3.2-1.3-1.2-.5-1.5.4-1.6 4.7l-.1 5.4-1-5c-.5-2.7-1.1-5.1-1.2-5.3-.6-.5-22.6 10.9-22.6 11.7 0 .4 1.1 1.8 2.5 3.1s2.3 2.5 2 2.8c-.4.4-2.6-1.2-8.3-5.9-2.6-2.1-28.8-10.6-31.8-10.2-19.8 2.5-30.3 5.2-33.7 8.8-2.4 2.5-2.6 2.6-1.7.7.6-1.3.9-2.6.6-3-.9-.9-36.5-2.4-39.5-1.7-3.6.9-3.5.9-4.3-2.2-1-4.4-7.2-21.2-11.7-31.7-2.3-5.3-4.7-11.3-5.5-13.4-5.6-15.4-8.8-24-9.5-25.7-.5-1.1-1.5-3.8-2.2-6-2.8-9.6-3.4-6.6-5 27-.6 13.2-1.4 24.2-1.6 24.5-.7.7.5-30.4 1.8-46.2.7-8.2.7-13.3.1-14.5-1.1-1.8-12.3-4.2-37-7.8-6.7-1-12-2-11.7-2.3.2-.3 4.4 0 9.2.7 4.9.6 10.2 1.3 12 1.6 1.8.2 4.1.6 5.1 1 4.2 1.3 19.7 3.4 20.4 2.7.3-.4-.9-3.9-2.8-7.7-1.8-3.9-4.7-10.5-6.4-14.8-1.7-4.2-4.3-10.5-5.9-14-6.3-13.7-7.1-15.6-7.1-16.2 0-.4-1.5-3.9-3.4-7.8-1.9-4-4-8.7-4.6-10.5-.7-1.7-1.8-3.2-2.4-3.2-1 .1-15.6 22.9-15.6 24.4 0 .3-2.5 4.1-5.5 8.5s-5.5 8.4-5.5 8.9-.9 1.7-1.9 2.6c-1.1 1-3.6 4.4-5.7 7.7-5.6 9.1-5.6 7.3.1-3 1.7-3 4.4-7 6.1-9 3.9-4.6 10.6-14.9 18.2-28.1 3.3-5.8 6.7-11.3 7.5-12.2 1.2-1.2 1.5-3.3 1.2-8-.4-6.5-.4-6.5 2.1 1.9.2.9 1.5.8 4.8-.6 7.5-3.3 18-8.4 20.6-10.1 1.4-.9 6.6-3.1 11.5-4.9 11.2-4.2 12.5-5.4 12.6-12.3 0-2.9.4-7.3.9-9.8.5-3 .6-1.3.2 5.2-.3 5.4-.3 9.8 0 9.8.2 0 2.9-.7 5.9-1.6 2.9-.9 6.5-1.8 7.8-2.1 1.3-.2 4.4-1.3 6.8-2.3 10.2-4.7 13.1-5.8 17.8-7.4 2.8-.8 6.1-1.7 7.5-2 1.4-.2 2.4-.9 2.2-1.5-.1-.7 1.4-1.1 3.8-1.1 2.2 0 4 .5 4 1.1 0 .5 2.8 2.3 6.3 3.8C796.3 92 808.7 97 810 97c.6 0 2.4.6 3.8 1.4 1.5.8 4.5 2.2 6.7 3.1 2.2 1 6.7 3 10 4.5 3.3 1.6 9.5 4.4 13.8 6.4l7.7 3.5v-2.7c0-5.1-2.8-19.7-4.5-23.7-.9-2.2-1.9-6.5-2-9.5l-.4-5.5 2 6.5c1 3.6 2.8 11 3.9 16.5 3.6 17.9 3.8 18.4 7.9 19.4 2 .5 7.2 1.2 11.6 1.6 16.1 1.3 45.1 4.6 47.8 5.5 4.4 1.4 3.3-1.1-2-4.8-2.7-1.8-7.4-5.4-10.5-8s-10.1-8.3-15.5-12.7-10.5-8.6-11.3-9.4-6.4-5.1-12.5-9.6c-6-4.5-13.4-10.3-16.4-12.8-3-2.6-6.2-4.7-7.1-4.7s-2-.3-2.4-.8c-.4-.4-2.4-1.2-4.4-1.9l-3.7-1.2 4.7.2c3.4 0 5.9.9 8.8 2.8m-426.4 40.4c-1.5 1.9-2.6 4.1-2.5 4.7.4 3.1-.2 4-2.1 3.5-1.8-.5-7.5 3.5-6.5 4.5.2.2 4.2 0 8.7-.4 4.6-.4 18-1.5 29.8-2.3 11.8-.9 23.3-2 25.5-2.4l4-.7-5.2-3.8c-2.9-2.1-5.3-4-5.3-4.2 0-.8 15.4 9.2 18.3 11.9 1.7 1.5 5.1 4 7.6 5.4 2.5 1.5 7.1 4.3 10.1 6.3 3 2.1 8.5 5.7 12.3 8 3.7 2.4 6.7 4.5 6.7 4.7 0 .6-11.1-5.6-13.1-7.4-.8-.7-1.8-1.3-2-1.3-.7 0-15.7-9.9-20.2-13.4-2.1-1.6-4-2.6-4.3-2.4-.3.3.5 3.2 1.6 6.4 2 5.6 2.8 8 6.6 21.4 2.7 9 6.6 20 7.3 20 .8 0 28.1-3.6 39.3-5.1 10.2-1.5 10.2-1.8-.4-8.1-3.8-2.2-7.1-4.4-7.4-4.9-.6-1 14.8 8 15.6 9 .3.4 1.3 1 2.3 1.4.9.3 1.7 1.3 1.7 2.1 0 .9 1.2 3.6 2.6 6.2 1.4 2.5 2.3 4.8 2.1 5.1-.3.3-1.5-1.3-2.7-3.6-1.1-2.3-2.5-4.1-3.1-4.1s-.7-.5-.4-1c1.4-2.2-3.4-2.1-24.6 1-23.9 3.4-25.3 3.7-24.5 5.4.3.6 2.3 5.4 4.4 10.6 2.2 5.2 5.4 12.6 7.1 16.5 1.8 3.8 4.8 11.3 6.7 16.5s4.8 13 6.5 17.4c1.6 4.3 2.7 8.1 2.5 8.3-.4.4-3.6-6.1-3.6-7.3 0-.6-13-33.1-14.8-36.9-1-2.2-3.6-8-5.8-12.9-3.6-8.1-3.9-8.6-4.1-5.5-.2 1.9-.7 8.1-1.3 13.9-1.8 18.7-2.2 25.3-1.3 25.9.5.3 1.8 2 2.8 3.8 3.6 5.7 32.6 34.7 33.5 33.4.5-.9.9-.5 1.3 1 .9 3.4 2.9 1.1 3.8-4.3l.6-4.3.2 4.2c0 2.3-.4 4.5-1 4.9-.8.5-.8.9.1 1.4 1.7 1-.5 5.1-2.4 4.4-.8-.3-3.7.6-6.4 2-2.8 1.4-9.7 4.4-15.4 6.7-14.3 5.7-31.1 13-32.5 14.1-.7.6-1.9.8-2.7.5-.7-.3-2.2 0-3.2.7-1.1.7-6.8 3-12.7 5.1s-11 4.2-11.3 4.6c-.3.5-1.5.9-2.7.9-1.2.1-3.8.7-5.7 1.4-6.8 2.6-7.4 2.6-2.5.1 2.8-1.3 5.8-2.5 6.8-2.5 1.2 0 1.7-.8 1.7-2.8 0-2.1.3-2.4 1-1.2.8 1.3 2.7.9 13.2-2.7 6.7-2.3 12.4-4.5 12.5-5 .2-.4-8.5-5.2-19.3-10.5-10.7-5.4-19.4-9.4-19.2-9 4.1 8.4 5.9 12.5 5.5 12.8-.3.3-1.5-1.4-2.7-3.8-2.2-4.4-3.9-7.3-5.3-9.6-1.2-1.8-2.9-.3-7.7 6.8-2.1 3-5 6.8-6.5 8.5-1.4 1.6-5.4 6.4-8.8 10.5s-7.9 9.3-10.2 11.5c-2.2 2.2-5.4 5.8-7.2 8s-3.2 3.7-3.2 3.3c-.1-1 8.3-11.4 14.4-17.8 2.9-3 9.1-10.5 13.9-16.5 4.7-6.1 9.5-11.9 10.4-13 1.9-2.1 1.9-4.5 0-4.5-.6 0-3.6-1.1-6.7-2.4-29.3-12.7-46.2-19.6-47.9-19.6-.5 0 .6 16.2 1.8 25 .5 3.6 1.2 11.2 1.5 17 .4 5.8 1.1 15.2 1.6 21s.8 11.4.8 12.5c-.3 4.6-1.9-8.1-2.9-22.5-.5-8.5-1.2-17.8-1.5-20.5-.3-2.8-.8-7.3-1.1-10-1.3-12.9-2.7-21.5-3.5-21.5-.5 0-.9.5-.9 1.1 0 1.3-4.8 8.3-8.5 12.4-2.4 2.7-2.6 2.8-1.4.5.6-1.4 2.5-4.1 4.1-6 1.5-1.9 2.8-3.9 2.8-4.5s.9-2.1 2-3.2c1.4-1.6 1.6-2.4.7-3.1-.7-.5-9.5-1.7-19.7-2.6-10.2-1-20.4-2-22.7-2.3-4-.5-4.3-.4-4.4 1.8l-.1 2.4-.7-2.5c-.7-2.6-1.3-2.8-32.1-11.1-4.7-1.3-7.8-2.5-7-2.6.8-.2 5.1.6 9.5 1.7 14.6 3.8 27.6 7 28.5 7 .4 0 1.1-2.4 1.5-5.3.3-2.8 1-7.5 1.5-10.2.5-2.8 1.1-8.4 1.5-12.5.3-4.1 1-10.7 1.5-14.5.6-3.9 1.2-9 1.5-11.5.2-2.5.8-7.4 1.4-11 .6-3.5.8-6.6.6-6.8-.5-.6-14.4 14.2-16.4 17.4-1 1.6-5.8 7-10.7 12-4.9 5.1-11.6 12-14.8 15.5-3.3 3.5-7.8 8.3-10 10.6l-4 4.2 2.5 1 2.4 1h-2.7c-2 .1-2.6.5-2.2 1.6.4.8.2 1.5-.4 1.5-.5 0-1.2-.7-1.6-1.5-.7-2-2.8-1.9-5.7.4-1.3 1-4 2.1-5.9 2.5-2.9.6-2.4.2 2.6-2.4 8.8-4.3 8.9-4.6 7-13.2-1.8-8.8-3.9-23.8-3.3-24.5.3-.2.8 1.8 1.1 4.4 1.1 7.9 4.8 27.3 5.2 27.3.2 0 3.9-3.7 8.1-8.3 4.3-4.5 12.2-12.6 17.6-18s10.8-11.5 12.1-13.5 6.2-7.7 10.9-12.6c7.8-8 8.5-9.1 8.2-12.3-.3-3.3-.2-3.4 1.5-1.8 1.2 1.1 2 1.3 2.5.5.3-.5 1.1-.8 1.6-.5s.7 0 .4-.7 1.7-4.1 4.3-7.5 7.8-10.3 11.6-15.3c3.7-4.9 7-9 7.3-9 1.1 0-11.5 17.7-14.6 20.4-2.7 2.5-7.5 10.6-6.6 11.4.7.7 4.6-.6 24-7.9 17.3-6.5 27.6-10.7 35.3-14.2l6.4-2.8-2.3-2c-1.2-1-2.7-1.9-3.2-1.9-.6 0-.8-.2-.5-.5s2.6.1 5.2 1l4.7 1.6 7.6-8.1c7.7-8.1 10.8-10 5.9-3.5M279.2 227.7c2.2 4.9 8.2 17.3 13.3 27.8 11.3 23.3 17.1 35.3 19.6 41.3 1.1 2.5 2.2 4.3 2.4 4 .2-.2.7-4.4 1-9.4 1-14.7 2.4-21.7 1.8-8.9-.3 6-.9 13-1.3 15.5-.5 2.5-.7 4.6-.6 4.8.9.8 3.5-1.3 5.6-4.7 6.5-10 10-14.8 11.6-16.1 1-.8-.6 2.1-3.7 6.5-3 4.4-6.5 9.7-7.8 11.7l-2.2 3.8 3.5-1.5c3.9-1.6 9.6-2 9.6-.6 0 .5-.7 1.4-1.5 2.1s-1.5 1.6-1.5 2.1c0 .4 4.2 1.7 9.3 2.8 26.4 5.8 25.8 6.3-1.2 1-8.4-1.7-16.1-2.9-17.1-2.7-1.6.3-1.1 1.3 3 6.8 8.1 10.7 15.6 22 14.6 22-.3 0-1.8-1.9-3.3-4.3-1.5-2.3-4.8-6.9-7.3-10.2s-5.4-7.2-6.3-8.7c-1-1.5-2.8-3.5-4.1-4.4-2.3-1.4-2.7-1.4-5.3.1l-2.8 1.7 2.3-2c3-2.8 2.8-3.4-1-2.7-1.8.3-4.6.1-6.3-.3l-3-.9 3.8-.8c2-.4 4.6-.5 5.7-.2 2.9.8 2.6-2.2-1.1-10.1-1.7-3.7-5.9-13-9.4-20.7-3.4-7.7-9.1-19.6-12.6-26.5-3.6-6.9-7.2-14.3-8.1-16.5-1-2.2-2.4-5.5-3.2-7.3-.8-1.7-1.3-3.2-1-3.2s2.3 3.9 4.6 8.7m361.2 77.5c1.9 2.9 4.9 6.7 6.6 8.5s5.5 7 8.6 11.5c6 9 10.3 13.1 37.4 34.6l7.5 6 .8-3c.5-1.7.7-10.6.5-19.8-.2-9.3 0-16.6.5-16.3.4.2.7 9.3.7 20.1s.4 19.2.8 18.7c.4-.6 2.1-1.8 3.7-2.8 2.5-1.5 2.3-1.3-.7 1.3-2.2 1.9-3.8 4.1-3.8 5.3 0 1.7-.3 1.9-.9.8-.7-1.1-1.7-1.1-6 .4-2.9.9-5.5 1.4-5.8 1.1-.4-.3 0-.6.8-.7.8 0 3.2-.8 5.3-1.8l4-1.7-5.1-4c-2.7-2.1-7.9-6.3-11.4-9.2s-9.3-7.7-12.8-10.5c-9.1-7.5-12.9-11.4-15-15.6-1.5-2.9-12.9-18.4-19.1-25.8-.6-.7-1-1.5-1-1.8 0-1.3 1.2-.1 4.4 4.7m-46.9 4.3c2.5.4 4.9 1.4 5.2 2.1.3.8 2.8 3 5.7 4.9 8 5.5 12 9.5 10.7 10.8-1.5 1.5-1.4 4.4.2 5 .9.3.9.7-.2 2-2.7 3.3-5.7 2-13.3-5.8-4.1-4.1-7.2-7.5-7-7.5s1.7.9 3.2 2c6.5 4.6 8.5-3.1 2-7.9-1.9-1.4-3.7-2.9-4.1-3.3-1-1.4-9.6-2.1-10.3-.9-1 1.5-3.9 1.4-3.3-.2.2-.6.9-1.2 1.5-1.2.5 0 1.4-.4 1.8-.8s1.3-.6 2-.3c.6.2 3.3.8 5.9 1.1m-292.1 9.2c.6.4 1.3.8 1.6.8.5.1 6.6 3.4 11.1 6.1 4 2.3 8 6.2 7.7 7.5-.2.8.3 1.3.9 1.2.7-.2 1.2.3 1 1-.1.7.7 1.1 2.2.9 2-.2 2.2 0 1.1 1.4-.8.8-1.4 3.7-1.4 6.4-.1 4.2-.4 4.9-2.4 5.3-1.2.2-2.5 0-2.8-.5-.3-.4-1.1-.5-1.7-.1-2.2 1.4-3.4 1.1-5.5-1.1-1.1-1.1-4.1-4.3-6.7-7.1-5.6-5.9-8.4-10.6-3.7-6.2 1.6 1.6 3.2 2.5 3.5 1.9.7-1.1-2-5.2-3.5-5.2-1.3 0-11-8.1-10.4-8.7.2-.3 2.8 1.2 5.6 3.1 2.9 2 5.6 3.4 6 3.1s1.3.9 2 2.5c.7 1.7 1.7 3 2.2 3s.8.6.7 1.2c-.3 1.8 1.1 4.8 2.2 4.8.5 0 .9-.6.9-1.4 0-.7.9-1.6 2-1.9 3.5-.9 2.1-3.1-5.7-8.7-8.4-6.1-12.1-7.9-14.3-7.2-1.2.4-1.3.2-.3-.9 1.3-1.6 5.9-2.3 7.7-1.2m726.3 26.2c-1 2.7-.9 3.3.3 4.1 2.2 1.4 2.5 1.3 4.3-2.3l1.8-3.2-.8 3c-.4 1.6-.8 6.4-.8 10.5 0 5.8-.5 8.5-2.2 11.8-1.3 2.3-2.3 5.9-2.4 8l-.1 3.7-1-3.8c-.6-2-1.6-3.7-2.4-3.7s-1.4.3-1.5.7c-.5 5.5-2 6.8-1.8 1.8.1-5-.9-12.1-2.3-15.8-.9-2.4-1.6-2.8-4-2.5-4.1.6-3.5-.9.7-1.6 4.2-.8 6.8-3.4 10.2-9.9 2.7-5.4 4-5.9 2-.8m-722.8 7.8c.1 2.2.6 3.3 1.6 3.3.8 0 1.5.5 1.5 1.1 0 .5-.4.7-1 .4-1.5-.9-1.2 2.1.3 3.4.8.6 1.7.8 2 .4.4-.3.7-.2.7.4s.9 1.3 2.1 1.6 1.8 1 1.4 1.7c-.4.6-1.3.9-2.1.6-1.8-.7-1.8.5.1 4 .8 1.6 1.5 4.4 1.5 6.1 0 2.3.5 3.3 1.5 3.3.8 0 1.5.4 1.5.9s.3 2.4.7 4.2l.6 3.4-2.2-1.9c-1.7-1.6-2.5-1.7-4.6-.8-2 .9-2.5 1.9-2.5 4.7 0 1.9-.4 3.5-1 3.5-1.3 0-1.3-7.6.1-10.1.8-1.6.6-2.3-1-3.7-1.7-1.5-2-3.3-2.3-18.2-.3-9.1-.1-15.4.3-14s.7 4 .8 5.7m-49.4-5.8c-.6.4-3.1 1.4-5.8 2.1-2.6.7-5 1.6-5.2 2-.3.5 2 4.5 5 9.1 6.1 8.9 16.6 25.5 20.4 32.2 1.6 2.6 1.9 3.7.9 2.9-.9-.7-5.3-7.4-9.8-15-9.7-16.1-17.9-28.2-19.1-28.2-1.8 0-30.9 24.3-30.9 25.9 0 .8 20.9 7.2 23.5 7.1 1.8 0 12.8 5 12.2 5.6-.4.5-10.2-1.8-11.2-2.6-.9-.8-24.8-9-26-9-.3 0-.5 1-.5 2.2 0 1.8-.2 2-1 .8-.5-.8-.7-2.5-.3-3.8.3-1.2-.1-3-.8-3.9-1.3-1.5-1.2-1.5 1.2 0 2.5 1.7 2.6 1.7 10-5.1 4.1-3.8 9.7-8.3 12.4-10.2 2.8-1.8 6.5-4.7 8.3-6.4 2.8-2.6 8.9-5 17.2-6.5.2-.1 0 .3-.5.8M573 382.7c0 1.8 4.7 7.3 6.2 7.3.5 0 .6-.5.2-1.1-.9-1.5 1.7-3 3.2-1.8.9.7 1.4.2 1.9-2 .8-3.9 3.7-3.6 8.6.9l3.7 3.3-4.2 2.1c-6 3.1-5.7 4.7 1.5 8.3 4.6 2.4 6.7 2.9 8.4 2.3 1.6-.6 3.6-.2 7.4 1.7 6.1 2.9 7.5 2.4 3.5-1.1-1.6-1.4-2.4-2.6-1.8-2.6s2.7 1.6 4.7 3.5 4.2 3.2 5 3c.8-.4 1.9.5 2.7 2s2.6 2.9 4.2 3.2c2.1.4 2.6.9 1.8 1.8-.5.6-.7 1.6-.3 2.1s.2.4-.5-.2c-2.4-2.1-22.7 2.8-21.8 5.2.3.8-.8.5-2.7-.6-1.8-1-5.2-2.7-7.7-3.6-4-1.6-7-4.3-10.8-9.6-.8-1.1-.9-1.8-.2-1.8.6 0 1.5 1 2.1 2.2.6 1.3 2.6 3.5 4.6 5 3.8 2.9 12 6.4 12.9 5.5.8-.7-3.6-9-5.3-10-.7-.5-1.1-1.2-.8-1.7.8-1.3-4.8-4.9-10.7-6.7-3.6-1.1-6.6-3-9.3-5.7-6.2-6.5-9.5-10.8-8.9-11.7.9-1.5 2.4-1 2.4.8m392 92.8c-1.6 3.7-1.7 4.5-.5 4.5 1.8 0 2 2.6.4 3.6-.7.4-.9 2.2-.6 4.5.3 2.1.3 4 0 4.3s-.7 2-.8 3.9c-.2 3.4-5.5 18-6.3 17.3-.2-.3.3-2.6 1.1-5.3 3.2-10.4 4.9-19.5 3.8-20.6-2.1-2.1-12.5 10.2-13.7 16.2-.4 1.6-1.4 3.7-2.4 4.6-1.6 1.5-1.8 1.4-2.4-.1-.4-1-.3-2 .2-2.3 1.8-1.3 3.7-7.8 3.4-11.8-.2-2.5.5-6.6 1.9-10.5 4.3-12.1 5.3-9.9 1.5 3.3-1.4 4.6-2.2 8.6-1.9 8.9.9.9 12.3-12.2 13-14.9.7-2.9 4.1-10.1 4.8-10.1.2 0-.4 2-1.5 4.5m-37.6 97c-.7 2.7 1.2 3.6 2.2 1.1.3-.8 1.4-1.6 2.4-1.9 1.4-.4.6 1.1-2.7 5.2-2.5 3.1-5 6.6-5.6 7.8-.6 1.3-1.4 2.3-1.8 2.3-.5 0-1.5 1.6-2.4 3.5-.8 2-3 5.5-4.8 7.8-1.9 2.3-5.6 7.5-8.2 11.5-4.2 6.5-6.9 9.2-9.1 9.2-.5 0-.3-.5.4-1.2.9-.9-.4-2.3-5.6-6.1-11.4-8.3-23.4-16-30.2-19.5-6.3-3.2-6.4-3.4-1-1.7l2.5.8-2-2.4-2-2.3 2.9 2.2c2.7 2.1 5.3 2.1 4.1.1-.4-.5-.1-.9.4-.9.6 0 1.1 1 1.1 2.2 0 1.3.4 1.8.8 1.2 1.1-1.6 14.3-8.7 14.9-8 .3.3-.3.9-1.3 1.3-2.5 1.1-11.4 6.4-11.4 6.9 0 .2 1.9.2 4.3-.1 2.3-.2 10.3-.7 17.7-1s15.5-1 17.9-1.5c2.4-.6 4.6-.9 4.8-.6.7.7-3.4 1.7-10 2.5l-5.2.6v11.2c-.1 13 .1 13 8.1 1.4 2.4-3.6 5.8-8.4 7.4-10.6s2.8-4.4 2.6-5c-.1-.5.2-1.5.8-2.1 4.4-4.5 6.6-7.6 6.1-8.5-.4-.5-.1-2.5.5-4.4 1.3-4 2.3-4.7 1.4-1m-555.8 55.9c.3.8 3.2 2.7 6.5 4.2 6.7 3.1 7.4 4.2 1 1.7-4.2-1.6-4.4-1.6-5.7.2-.8 1-1.5 3.7-1.5 5.9-.1 2.3-.4 3.2-.6 2.1-.3-1.1-1-2.3-1.5-2.6-1.3-.8-5.8.1-5.8 1.2 0 2-1.8.7-3-2.1-1.8-4.4-.6-7.9 3-8.7 1.6-.3 3.5-1.2 4.1-1.9 1.5-1.8 2.8-1.8 3.5 0m831.4 46c0 .8.6 1.6 1.4 1.9.7.3 2.3 3.7 3.5 7.6 2.2 7.2 3.6 9.4 2.8 4.3-.2-1.5-.2-2.1 0-1.5.9 2.7 2 1 4.3-6.2 1.8-5.7 2.8-7.5 4.2-7.5 1.6 0 1.4.9-1.6 9.2-1.8 5.1-3.6 10.9-4 12.9-.6 3.1-.9 3.6-3 3.2-1.9-.4-2.9-1.8-4.6-6.6-1.2-3.4-3.3-9-4.6-12.5-2.2-6-2.3-6.2-.4-6.2 1.1 0 2 .6 2 1.4m24.1 6.5c2.1-1.1 7.9-.3 7.9 1.1 0 .5 1 1.2 2.3 1.6 1.2.3 2.9 1.3 3.8 2 1.3 1.2 1.8 1 3.7-1.5 3-4.1 7.2-4.8 12.5-2.1s8.7 5.9 8.7 7.9c0 1.4-.1 1.4-1 .1-.8-1.3-1-1.2-1.1.5-.1 1.6-.2 1.6-.6.3-.7-2.8-3.1-3-2.5-.2.3 1.8-.5 3.3-3.5 6.2l-3.9 3.8 4.2-.2c5-.2 6.2-.9 7.4-3.8.5-1.2.9-1.5.9-.6.1 3.3-2.8 5.4-7.2 5.3-3.8-.1-3.9 0-1.2.7 2.9.7 2.9.8.4.9-2.6.1-8-3-12.9-7.3-1.9-1.8-3.2-2.1-5.5-1.5-1.6.3-2.6.7-2.1.8.4 0-.2 1-1.5 2-3 2.4-1.8 3.8 1.8 2.2 2.7-1.1 2.7-1 .8.4-1.3 1-3 1.4-4.8 1.1-1.7-.4-2.6-.2-2.2.4 1.2 1.9-.7.9-5.1-2.6-2.4-2-4.4-4.2-4.4-4.9s-.9-1.5-2-1.8-2-1.1-2-1.9c0-1 .2-1 .8 0 1.1 1.6 3.3-5.2 2.5-7.6-.4-1.5-.3-1.5.6-.2s1.2 1.1 1.8-1c.6-1.9.8-2.1 1.1-.8.3 1.5.7 1.6 2.3.7"/><path d="M760.5 88.7c-3.8 1.3-7.4 2.8-7.9 3.3-.6.6-1.7 1-2.6 1-.8 0-3.1.8-5 1.8-1.9 1.1-6.9 2.9-11 4.1-11.2 3.3-10.5 2.9-8.8 4.9.9.9 4.5 7.5 8.1 14.7 3.6 7.1 7.3 13.9 8.1 15l1.6 2 1.3-2c2.2-3.6 2.7-6.6 1.1-7.2-1.7-.6 0-4.5 1.9-4.2 2.8.3 3.8-.3 6-3.9 2.7-4.1 9-15.6 12.1-21.7 1.1-2.2 2.2-4.2 2.5-4.5.7-.6 3.1-4.8 3.1-5.4 0-.9-3.6-.2-10.5 2.1M775.5 87.1c-2.5.7-4.1 2.9-9.7 13.2-3.8 6.8-6.8 12.8-6.8 13.4s-.7 1.6-1.5 2.3-1.5 2.3-1.5 3.6c0 1.2-.4 2.5-.9 2.9-1.8 1-4 6.6-3.4 8.2.5 1.2.3 1.4-.8.8s-1.1-.4.1.8c1.4 1.5 2.2 1.4 9.5-1.4 4.4-1.7 9.4-3.7 11-4.4 1.7-.7 4.1-1.6 5.5-1.9s4.1-1.9 5.9-3.5c3.6-3.2 7.9-4.6 11.1-3.6s2.5-.4-8.2-16.1c-2.5-3.8-5.8-8.2-7.3-9.9-1.7-1.9-2.2-3.1-1.4-3.4 1.3-.4 2.6 1.1 10.3 12.4 3 4.4 7.2 10 9.3 12.4l3.8 4.3 23.5-.1c12.9-.1 23.6-.4 23.8-.6.5-.5-19.6-9.9-24.5-11.5-3.8-1.3-9.3-3.5-16.8-6.9-4.3-2-25.4-11-27-11.6-.5-.2-2.3.1-4 .6M719 104.3c-.8.7-5.2 2.9-9.7 4.8-15.3 6.3-34.8 16.3-34.9 17.9 0 .8.7 3.1 1.6 5 1 1.9 2 4.7 2.4 6.2.3 1.6 1.1 2.8 1.6 2.8.6 0 1 .7 1 1.6s.9 3.5 2 5.8c2.1 4.3 7.7 17.2 14 32.1 5.3 12.4 9.8 21.5 10.7 21.5.5 0 3.7-5.5 7.2-12.3 7.8-15 11.6-21.8 13.1-23.5 1.4-1.6 10.1-19.8 10.4-21.7.1-.8.5-1.8.9-2.1 2.4-2.4-1.5-3.3-48.8-12-4.9-.9-10.3-2.2-12-2.9l-3-1.3 2.6-.1c1.5-.1 4.9.6 7.5 1.4 5.6 1.7 22 4.8 33.9 6.5 4.4.6 10.6 1.8 13.8 2.7 3.1.9 6 1.4 6.3 1 1-.9-16-34.2-17.6-34.5-.8-.1-2.2.4-3 1.1M860 122.4c1.6 4.3 3.8 8.2 9.5 17.1 3 4.7 5.5 8.8 5.5 9.1s1.3 2.3 2.8 4.3c1.6 2 5 7.4 7.7 12.1 2.6 4.7 5.1 8.7 5.5 9s2.6 3.9 5 8c6.1 10.4 11.1 17.3 12.1 16.3.4-.4 1.2-4.3 1.8-8.5s2.2-12.3 3.5-18c1.4-5.7 3-13.2 3.6-16.8s1.5-8.5 2-11c.6-2.5 1.2-6.9 1.4-9.7.3-2.9.7-5.7 1-6.2 1-1.6-1.8-2.8-7.9-3.5-3.3-.4-11.4-1.3-18-2.1-6.6-.7-17.5-1.7-24.3-2.1l-12.2-.7zM923 136.5c0 .5-1.1 6.3-2.5 12.9-9.5 44.7-10.6 51.6-8.9 54.8 2 3.8 24.8 21.7 26.1 20.5.5-.6-.6-8.9-5.8-42.2-4.6-29.6-7.4-45.3-8.2-46.1-.4-.4-.7-.3-.7.1M865.2 143.2c-.9 2.3-.9 3.4-.1 3.9.7.4.9 1.1.6 1.5-.3.5.3 4.3 1.4 8.4 1 4.1 1.8 6 1.6 4.2-.2-1.7 0-3.2.3-3.2.4 0 1 2.6 1.4 5.7.9 8.7 1.2 10.1 3.1 19.3.9 4.7 2 8.9 2.3 9.5.4.5.8 2.1.9 3.5.2 1.4 1.4 5.9 2.8 10 1.3 4.1 2.7 9.2 3 11.2.7 3.6 2.6 5 4 2.9.3-.6 4.8-4 10-7.6 6.2-4.3 9.5-7.2 9.5-8.4 0-2.4-11.5-19.3-12.4-18.4-.4.4-.4-.1 0-1.1.6-1.5.4-1.7-.6-1.1-.8.5-1.1.4-.6-.3.3-.6-1.8-4.6-4.7-8.9-3-4.3-6.2-9.4-7.2-11.3s-3.7-6.4-5.9-10c-2.3-3.6-5.1-8-6.2-9.7l-2-3.3zM737 155.2c-1.4 2.8-5.3 9.4-8.7 14.7-3.5 5.2-7.5 12.2-9 15.5-1.6 3.4-4.2 8.9-5.9 12.3-3.6 7.3-4.6 6.6 11.4 8.4 6.1.7 11.2 1.5 11.2 1.9 0 .3-2.8.3-6.2-.2-13.7-1.7-20.8-2.1-20.8-1.1 0 .9 2.1 6.9 7.2 20.3 1.1 3 3.3 8.9 4.8 13.1s4.4 11.4 6.4 16c1.9 4.6 5.6 13.8 8 20.3 2.5 6.5 4.8 12.1 5.1 12.5 1.2 1.1 2.5-2.5 2.6-7.4.1-4.7.2-4.8.9-1.7.4 1.8 1 3.5 1.3 3.8 1 1 16.8-33 17-36.6.2-1.9.7-3.4 1.3-3.3.7.1.9-.8.6-2.2-.2-1.4-.8-2.5-1.3-2.5s-.9-.7-.9-1.5-.4-1.5-1-1.5c-.5 0-1-.8-1-1.9 0-2.1-5.8-13.4-7.1-13.9-.5-.2-1-1.3-1-2.5-.1-1.2-.5.5-.9 3.8s-1.9 15.2-3.4 26.5c-1.4 11.3-2.7 22.3-2.9 24.5-.2 2.5-.4 1.5-.5-2.7-.1-3.7.7-13.6 1.8-22s2.1-20.4 2.4-26.5l.4-11.3-3.7-.5c-6.5-1.1-6.7-1.3-1.2-1.4 5.3-.1 5.3-.1 4.7-2.9-.4-1.5-1.1-8.8-1.6-16.2-1.5-21-4.7-39-6.7-39-.5 0-1.9 2.4-3.3 5.2M904 210c-3 2.2-6.6 4.7-8 5.7-5.8 4-10.8 9.2-9.4 9.7.8.3 1.4 0 1.4-.6 0-.7.4-.7 1.3 0 .6.5 5.5 1.3 10.7 1.7s15.8 1.3 23.5 2c7.6.8 14.2 1.2 14.5.8.3-.3-.8-1.5-2.4-2.7-4-2.9-22.8-17.8-24.4-19.3-.7-.7-1.4-1.3-1.5-1.3s-2.7 1.8-5.7 4M839 227.8c-3.6.2-5.9.6-5.2 1.1.9.5 1 1.5.4 3.2-.8 2-.3 3.2 3.2 7.4 2.2 2.7 7 7.9 10.6 11.5s7.6 8.1 9 10c4.2 5.8 17.1 20 18.1 20 .5 0 .9-1 .9-2.3s.9-6.5 1.9-11.7c2.2-10.6 3.6-24.8 3.3-32.9-.1-3-.3-5.5-.4-5.6-.6-.5-35.6-1.1-41.8-.7M885.7 227.9c-1.3.5-1 1.9 2 9.6 1.9 4.9 3.7 10.1 4 11.5.5 3.2 7.3 22.2 8.3 23.5.5.5 1.5 2.8 2.3 5 10.1 26.6 11.4 29.5 13.4 29.5.7 0 1.3-.8 1.3-1.9 0-1.8 5.4-20.8 7-24.6.5-1.1 4-11.2 7.9-22.5 3.8-11.3 7-19.9 7-19.1.1.7-3.5 12-8 25-4.4 13-8.9 27-10.1 31.1-1.1 4.1-2.3 8.4-2.6 9.4-.5 1.9-.3 1.9 3.3-.2 2-1.3 4-2.1 4.2-1.8.2.2-.9 1.2-2.6 2.2s-3.1 2.2-3.1 2.6-.7.8-1.5.8c-.9 0-1.5.9-1.5 2.4 0 1.4-.5 2.8-1.1 3.2-.8.4-.9 2.6-.3 6.8.4 3.3.7 7.6.6 9.3-.2 3.4 1.4 4.5 2.4 1.8.4-.8 1-1.2 1.5-1 .9.6 6.6-2 8.6-4.1 1.1-1.1.6-2.1-3.3-5.9-2.6-2.5-4.3-4.5-3.7-4.5.5 0 2 1.1 3.2 2.4 2.1 2.3 6.7 4.4 5.6 2.6-.3-.4.2-1 1-1.4 2-.7 1.9-3.3-.2-4.4-1.6-.9-1.6-1.1 0-2.7.9-.9 1.7-2.5 1.7-3.6 0-2.4 2-2.5 2.1-.2.1 1 .1 2.1 0 2.5 0 .5.4.8 1 .8.5 0 .7.4.4 1-.3.5-.4 1-.1 1 1 0 5.4-7.6 6.9-12.1 2.1-5.9 4.8-11.2 5.4-10.5.3.3-.1 1.6-.9 2.8-1.8 2.8-6.9 18.9-6.2 19.9 1 1.6 6.3-.2 14.8-5 11.8-6.6 11.7-6.5 7.6-10.2-3.1-2.8-3.2-2.9-.6-1.4 1.6 1 3.2 1.3 3.7.8 1-1 2.8-19.3 1.9-19.8-.4-.2-4.4 1.7-8.9 4.2-7 4-8.2 5-7.8 6.9.3 1.9.1 2.1-1.7 1.4-1.2-.4-3.2-.4-4.6.1l-2.5.9 2.3-1.6c2.7-2 2.7-4 .3-19.4-6.2-38.6-6.2-39-8.5-39.5-4.1-.8-30.5-3.1-45.7-3.9-2.6-.1-5.3 0-6.2.3"/><path d="M942 235.5c0 2 .9 7.7 2 12.8 1 5 2.4 13.9 3 19.7.7 5.8 1.6 12.2 2.1 14.3l1 3.8 8.6-4.6c4.7-2.6 9.5-5.5 10.6-6.6 1.1-1 2.5-1.9 3.1-1.9.5 0 .6-.3.3-.6-.4-.4-1.3-.1-2.2.6-1.3 1.1-1.5.1-1.6-8.6-.2-12.5.1-16.4 1.3-18.7.5-1 .7-2.1.4-2.4-.6-.6-3.5 5.7-4.2 9-.2 1-.7 2.4-1.2 3.1-.5.6-2.3 4.7-4.1 9.1-5.2 13-6.4 15.5-7.2 15.5-.5 0-.2-1.5.5-3.3.8-1.7 3-7 4.9-11.7l3.6-8.5-2.4-.3c-2.5-.3-3.8-2.3-2.9-4.6.5-1.3 3.1-2.8 6.6-4 1.4-.4 6.8-9.2 6.8-11 0-1.2-20.8-4.6-28-4.6-.5 0-1 1.6-1 3.5M768 245.2c0 .9-1.8 4.3-4 7.6-2.1 3.3-5.4 8.8-7.1 12.3-1.8 3.5-3.5 6.6-3.8 6.9-.4.3-1.5 3-2.5 6s-2.4 6.1-2.9 6.8c-.7.9-.7 1.6 0 2.3s2.7.3 6.4-1.3c4.9-2.1 9.5-4.6 33.1-17.9 3.8-2 8.1-4 9.8-4.4 1.6-.4 3-1 3-1.4s1.8-1.5 4-2.5c3.8-1.6 4.6-3.6 1.5-3.6-.7 0-1.5-.5-1.7-1.1-.2-.5-1.9-1.4-3.8-1.9s-8.7-2.3-15-4.1-12.4-3.2-13.5-3.2c-1.1-.1-2.3-.6-2.7-1.1-.5-.7-.8-.4-.8.6M848.4 277.4c-.7.7-.8 2.1-.3 4.1.8 2.5 1.8 9.5 2.1 14.2.1.7.8 1.5 1.6 1.8 1.7.6 22.2-9.1 22.2-10.5 0-1.3-7.6-5.1-11.1-5.5-1.5-.2-3.9-1.1-5.2-2-3.7-2.4-8-3.4-9.3-2.1M770 280.5c-2.5 1.4-9 4.7-14.5 7.5l-10 4.9 4.5.2c2.5.1 9.3.3 15.1.4 10.5.1 10.5.1 10.1-2.2-.3-1.5-1.2-2.3-2.6-2.4-2 0-2-.1-.1-.9l2-.9-2-.1c-2-.1-2-.1 0-1.6 1.7-1.3 1.8-1.6.5-2.4s-1.2-1 .3-1c1 0 1.7-.8 1.7-2 0-2.4.5-2.5-5 .5M988 295.8c-4.4.6-17.7 7.1-26.2 12.7-4.6 3-8 5.5-7.5 5.5 1.1 0 11.1-5.4 12-6.5.5-.6.6-.2.3.9-.4 1.1-.1 2.3.6 2.9.9.6.8.7-.4.3-1-.3-1.8-.1-1.8.3 0 1.1 3 2.5 4.7 2.2.7-.1 3.9-2.9 7.3-6.3 3.3-3.3 6.3-5.8 6.6-5.5s-1 2.1-2.8 4c-5.1 5-8.7 10.2-6.5 9.4.9-.3 1.9-.2 2.2.3.4.6 3.1 1 6.1 1 5.1 0 6-.5 5.5-3.3 0-.4.5-.7 1.3-.7s1.6-1.6 1.9-4.3c.3-2.3.9-6 1.3-8.3.7-4.5-.1-5.3-4.6-4.6M862.2 324.7l-6.3.4 2.3 4.2c3.8 6.8 12.9 15.1 18.6 16.7s14.5 2.2 16.2 1.1c1.2-.9 1.2-1.6-.7-5.5-2.7-5.6-10.7-16.2-12.9-17-1.5-.6-4.7-.6-17.2.1M737.4 354.1c.3 2.4 1.3 10.5 2.1 17.9 2.3 20.1 2.4 21 4.5 21 1 0 3.8-1.5 6.2-3.3 2.4-1.7 6.2-4.4 8.6-6 2.3-1.5 4.2-3.2 4.2-3.8s-3.6-4.9-8-9.6c-4.4-4.6-9.2-10.1-10.7-12.1s-3.8-4.8-5.1-6.1l-2.5-2.4zM759.7 386c-4.2 2.6-4.5 3.2-1.2 2.5l3-.6-2.5 1.6c-1.4.9-1.7 1.4-.7 1.1.9-.3 1.7-.1 1.7.4 0 .9-1.5 1.4-3.3 1.1-.4-.1-1 .6-1.3 1.4-.5 1.1-1.1 1.2-2.5.4-2.6-1.4-5.6 1.2-3.5 3 2.7 2.2 23.6 7.3 23.6 5.7 0-1.2-2.3-6.6-2.8-6.6-1.9 0-6-4.9-6.8-8.1l-.9-3.6zM980 384.7c-3.4.7-4.7 1.9-5.3 4.9-.8 4.3 3 16.4 5.2 16.4 1.2 0 3.1-4.7 3.1-7.7 0-3.2 2.1-9.3 3.2-9.3.4 0 .8-.7.8-1.6 0-.8-.4-1.2-1-.9-.5.3-1-.1-1-.9 0-1.6-.5-1.7-5-.9M933 386.5c0 .7-.9 1.7-2 2-2.1.7-2.8 3.5-.9 3.5.5 0 .8.4.4 1-.3.5.5 3.9 1.7 7.5 2.3 6.5 2.3 6.5 6.1 6.5 2.1 0 5.8-.5 8.2-1.1 4.7-1.2 5.1-3 1.3-5.7-1-.7-2.5-2.8-3.4-4.5-2.8-5.4-7.1-10.3-9.3-10.4-1.2-.1-2.1.4-2.1 1.2M962 399.9c-3 2.8-5.2 5.2-5 5.4.9.7 17.5 3 19.2 2.6 1.5-.4 1.5-.8-.3-4.7-1.1-2.3-2.4-4-2.9-3.7-.6.4-1 .2-1-.3 0-.6-1.2-1.3-2.7-1.7-2.1-.5-2.4-.8-1.2-1.6.7-.5.9-.9.3-.9-.5 0-3.4 2.2-6.4 4.9M826.5 410c-14.7 1.3-20.5 2.2-20.5 3.1 0 .4.8 2.3 1.8 4.1s3.1 5.7 4.7 8.5c1.5 2.9 3.2 5.3 3.7 5.3.6 0 2.6-1.5 4.6-3.3 9.6-8.7 16.5-15.4 17.3-17 1.1-1.9 1.7-1.9-11.6-.7M884.1 420.5c-.6 1.7-1.1 4.4-1.1 5.9 0 3-1.7 11-3 14.1-.5 1.1-1.2 3-1.5 4.3-.6 2.1-.4 2.2 3.2 1.7 2.1-.4 7-1 10.8-1.4 5.7-.7 6.2-.9 2.5-1-4.4-.1-4.4-.1-2.5-2 1.1-1.1 3.6-2.1 5.5-2.3 5.4-.4 6.7-4.1 2.9-7.9-1.2-1.2-2.1-3.2-2.1-4.4 0-1.5-1-2.8-2.7-3.6-1.4-.8-3.4-2.4-4.3-3.5-1-1.2-2.8-2.4-4.1-2.6-2-.4-2.6.1-3.6 2.7M886.5 448l-10 .5 11.8 5.7c6.5 3.2 12.7 5.8 13.8 5.8 2.4 0 5.7-2.1 12.2-7.4 2.6-2.2 5.8-4.1 6.9-4.3 5.2-.8 2-1.1-10.9-1-7.6.1-18.3.4-23.8.7M830.3 469.5c-1.9 1.8-3.8 3.5-4.2 3.7-1.5.7-12.1 13-12.1 14.1s29.3 15.7 31.3 15.7c.9 0 .9-5.5.1-6.3-1.5-1.5-4.4-11.6-4.8-16.7-.3-3-.3-4.4 0-3 1 4.7 5.5 18.5 6.7 20.8 1.2 2.1 1.5 1.8 5.2-5.9 3.3-6.7 3.7-8.3 2.5-8.7-.8-.3-4.4-3.4-7.9-6.9-3.5-3.4-6.9-6.3-7.6-6.3s-1.5-.9-1.8-2c-.8-3-3.3-2.4-7.4 1.5M927.6 533.2c.4.7.3.8-.4.4-.6-.4-2.1-.2-3.2.4-1.3.7-2 .7-2 0 0-.5-.4-1-1-1-.5 0-.7.7-.3 1.5.3.9.2 1.5-.3 1.4-1.9-.4-7.4 1.4-8.5 2.7-.8 1-.9 3.7-.3 9.7.8 7 1.2 8.2 2.7 7.9 3.1-.5 16.7-7.3 16.7-8.3 0-.6.4-.8.8-.5 1.6.9 5.2-2.5 5.2-4.8s-4.4-7.6-6.2-7.6c-.6 0-.8 1.8-.4 4.5.5 3.1.4 4.5-.4 4.5-.7 0-1.1-1.8-1-4.8.2-6.5.1-7.2-1.1-7.2-.5 0-.7.5-.3 1.2M905.1 541.9c-1.2 1.2-2.7 2.1-3.4 2.1s-1.9.9-2.7 2-2.1 2-3 2c-2.1 0-7.4 3.6-6.3 4.3 1.8 1.1 18.7 4.6 19.6 4 .5-.3.6-2.6.3-5.2-1.5-12.1-1.5-12.2-4.5-9.2M454 112.6c-8 .7-20.3 1.7-27.3 2.2-7.1.6-13.3 1.4-13.8 1.9-1 1 5.1 4.3 18.6 10.2 3.9 1.7 7.7 3.6 8.5 4.1 5.1 3.4 17.4 9 19.5 9 1.4 0 2.4.5 2.3 1.1-.2.5 1.5 2 3.7 3.2s5.6 3.2 7.5 4.4c5.2 3.2 19.3 10.3 19.7 9.9.4-.3-4.2-15.8-5.7-19.1-.5-1.1-.8-2.7-.8-3.5 0-2-1.7-8.3-4.2-15.5-1.2-3.3-2.3-6.7-2.4-7.5-.4-2-7.2-2.1-25.6-.4M393.7 125.7c-3.4 1.7-7 2.5-6.2 1.4 2.5-4.1-19.5 2.7-43 13.3-2.7 1.2-6.1 2.7-7.4 3.2-2.3 1-2.2 1.1 3.1 4.6 2.9 2 7.2 4.5 9.4 5.5 2.1 1 4.3 2.4 4.7 3 .4.7 1.3 1.3 2 1.3s2.5.7 4.1 1.5c2.6 1.4 3 1.3 5.2-.8 1.6-1.5 2.4-3.3 2.4-5.8v-3.7l6.6-.7c7-.7 10.4-2.8 10.4-6.5 0-1.1.7-2 1.5-2 2 0 3.9-3.7 2.2-4.3-.7-.3-.4-.6.6-.6 1-.1 1.5-.6 1.2-1.1-.3-.6.1-1.3 1-1.6.9-.4 1.4-1.3 1.1-2.1s-.2-1.2.3-.9c.8.6 4.6-4.2 3.9-4.9-.2-.2-1.6.3-3.1 1.2M330.9 148.2c-.1.7-.1 1.7 0 2.2s-.3 3.2-.9 6c-1.7 7.7-3.9 23.4-5.5 40.1-.9 8.2-1.9 16.7-2.4 18.7-.5 2.1-.6 3.8-.2 3.8.8 0 10-9.4 19.4-19.9 7.2-8 8.5-11.2 4.2-10.3-3 .5-3.1-.2-.6-2.7 1.9-1.9 1.9-2.1.1-7.9-1.9-6-12.9-31.2-13.6-31.2-.2 0-.5.6-.5 1.2M336 149.9c0 1.1 8 20 12.5 29.4l3.7 7.8 2.6-2.3c5.9-5.1 7.8-7.2 10.3-11s2.6-4.1 1-6.1c-3.1-3.9-6.3-6.2-10.9-8-2.6-1-5.6-2.6-6.7-3.6-2.1-1.8-10.9-7.1-11.9-7.1-.3 0-.6.4-.6.9M362.9 180.3c-1.9 1.8-4.7 4.8-6.2 6.9l-2.7 3.6 2.9 6.9c1.5 3.7 5.1 11.5 7.9 17.2l5.1 10.4v-16.4c.1-15.5-1.4-31.9-2.8-31.9-.3.1-2.2 1.5-4.2 3.3M345.3 197.2c-3.2 2.9-7.4 7.1-9.2 9.3s-5.7 6.6-8.7 9.7-5 5.9-4.6 6.2c.5.3 8.8 1.2 18.3 2.1 9.6.8 19.6 1.8 22.3 2.1 4.7.6 4.8.6 4.1-1.7-1-3.2-15.3-32.9-15.8-32.9-.3 0-3.1 2.4-6.4 5.2M491.7 218.6c-2.4 8.7-7.3 30.4-9.7 42.3-1.1 5.8-2.5 11.1-3.2 11.8-2.6 3.2-1.4 2.8 28.7-9.9 14.8-6.2 22.5-9.9 22.5-10.9 0-.4-6.6-7.4-14.8-15.5-8.1-8.2-16.3-16.9-18.3-19.3l-3.6-4.3z"/><path d="M469.8 224.7c.6.2 1.2.9 1.2 1.4s-.6.8-1.2.6c-.8-.1-1.4 1-1.6 2.7-.3 2.7-.6 2.8-3.9 2.3-1.9-.4-4-1.3-4.7-2-1.7-2.2-6.2-2.9-10.6-1.7-2.9.8-4.6.8-6.1 0-2.6-1.5-3.1-1-3.2 3.3-.1 2.2-.5 3.3-1.3 3-.6-.2-1.4.3-1.7 1.1-.4.9-.2 1.6.3 1.6 1.3 0 .8 2.8-1 6-.8 1.4-1.3 2.9-1.2 3.4.2.5-.1 2.1-.7 3.6-.9 2.6-.8 2.7 1.4 1.6 1.3-.6 2.1-1.4 1.9-1.8-.8-1.2.9-.9 2.9.6 2.2 1.7 2.3 4 .1 3.2-2.9-1.1-3.5.5-.9 2.6 1.4 1.1 10 5.7 19.1 10.3 18.7 9.5 19.1 9.5 19.5.9.2-2.7 1.3-8.1 2.6-12.1 2.8-8.8 3.9-18.2 2.5-20.9-.6-1.2-.7-2.6-.2-3.4.5-.9.5-1.9-.2-2.7-.8-1-.6-1.3.6-1.3.9 0 1.6-.7 1.6-1.5 0-1.8-2.6-2-3.4-.3-.5 1-.7 1-1.2 0-.4-.7-2.6-1.2-6.2-1.1-3.1 0-5.1.3-4.4.6M884 593.2c-4.1.4-8.5.8-9.7.9-3.3.2-2.9 1.1 2 4.2 2.3 1.5 8 5.4 12.7 8.6 4.7 3.3 8.7 6 9 6 .4.1-.3-15.8-.9-20.2-.1-.4-1.3-.6-2.9-.5-1.5.2-6.1.6-10.2 1M413.4 601.7c.3 1 1 4 1.6 6.8 1.6 7.5 2 8.6 3.1 7.9.6-.3 1.3.3 1.6 1.5.6 2.2 2.3 2.9 2.3 1 0-.7 1.1-.9 2.9-.6 2.2.5 3.3.1 4.7-1.5 1.6-1.8 1.7-2.1.2-1.5-.9.3-1.9 0-2.2-.8-.7-1.8.7-2.7 3-1.8 1.4.5 1.6.2 1.2-1.5-.4-1.6-.2-1.9 1.1-1.5 2.9.9-4.2-3.3-11-6.5-7.6-3.7-9.3-3.9-8.5-1.5M489 648.2c-4.1 3.4-8.8 7.4-10.5 8.8-1.6 1.4-5.3 4.8-8.2 7.7l-5.2 5.1 1.6 4.9c.9 2.6 2.4 6 3.4 7.5 1.1 1.4 1.9 2.9 1.9 3.2 0 1.1 7.5 11.1 10.7 14.3 1.8 1.8 3.3 3.6 3.3 3.9 0 .7 7.8 8.4 8.5 8.4.3 0 .5-6 .5-13.4 0-7.3.5-22.6 1.1-34 .6-11.3.9-21.1.7-21.6-.2-.6-3.7 1.7-7.8 5.2M404.6 654c-.3.8-2.2 8-4.1 16-2 8-5 18.7-6.7 23.8-3.1 9.5-3.1 12.5-.1 8.2 1-1.4 3.5-4.7 5.8-7.5 8-9.9 11.6-15.5 10.9-16.6-.4-.8-.3-.9.5-.5.8.5 1.6-.3 2.4-2.3.6-1.7 1.8-3.1 2.6-3.1 1.2 0 1.2-.3-.1-1.8-.9-.9-1.8-3.1-2.2-4.7-1.9-8.2-2.4-9.9-2.5-8.6-.1 1-.5 1-1.3.3-.7-.6-1.7-1-2.3-1-.5 0-1.2-.9-1.6-1.9-.6-1.5-.8-1.5-1.3-.3M414.9 677.7c-1.3 1.5-3.8 4.6-5.4 6.8-3.7 4.9-15.3 18.6-17 20-2.3 1.9-4 7-3.7 11.3l.3 4.2h17.5c13.4 0 17.3-.3 17.2-1.3-.2-.6.5-1.1 1.5-.9 2.1.4 2.2-1.4.2-13.3-.8-5-1.5-11.5-1.5-14.5 0-5-3.8-18.1-4-13.6 0 1.9-.1 1.9-1.3.2-1.2-1.6-1.4-1.5-3.8 1.1M474 696.6c-.7.7-2.1 1.4-3.2 1.4s-3.3 1.1-4.9 2.5c-1.6 1.3-4.5 2.7-6.5 3.1-1.9.3-4.1 1.6-4.9 2.8-.9 1.1-1.9 2.1-2.3 2.1s-.6.6-.6 1.3c.1.7-1.1 1.2-3 1.2-1.8 0-4.1.7-5.2 1.5-1.8 1.4-1.6 1.5 2.1.9 13-2.1 25.7-5.2 25.2-6.2-.3-.4-.1-1.6.4-2.7.7-1.7.8-1.6.8.8.1 3.3 1.9 4.2 11.6 5.1l7 .8-3.2-2.9c-1.7-1.5-5.2-5.1-7.6-8-3.8-4.4-4.7-5-5.7-3.7"/></svg>