<svg xmlns="http://www.w3.org/2000/svg" width="1706.667" height="960" viewBox="0 0 1280 720"><path d="M0 360v360h204.6c174.1 0 204.5-.2 203.5-1.4-.9-1-.8-1.5.3-1.9s1.3-2.1.9-7.4c-.7-8.1.7-7.8 1.6.4.5 4.4 1 5.7 2.1 5.4.8-.1 9.6-1.8 19.5-3.7s18.6-3.6 19.3-3.9c.6-.2 1.3-1.7 1.3-3.2l.1-2.8.7 2.9c.7 3.4 2.4 4 12.9 5.2l6.7.7-5-5.4c-10-11-11.9-12.2-14-9.2-1 1.3-1.5 1.3-3.5.3-1.8-1-2.4-.9-3.1.1-1.1 1.9-8.2-.7-11.4-4.2-2.4-2.8-2.8-2.9-12-2.9-8.1 0-9.7-.3-10.2-1.7-.4-.9-.1-1.9.5-2.1.7-.2 1.2-1.3 1.2-2.4 0-1.7.5-2 3.5-1.6 2.6.3 3.5 0 3.6-1.2q0-1.5.6-.3c.2.7.9 1.3 1.5 1.3s.6-.6-.2-1.5-2.2-1.2-4.1-.8c-2.9.5-4.2-1-1.6-2 .7-.3.5-.6-.5-.6-1-.1-1.8.3-1.8.9 0 .5-1.3 1-3 1-2.7 0-3-.3-3-3.3l-.1-3.2-1.4 2.5c-.8 1.4-1.5 4.1-1.6 6-.1 2.8-.5 2-1.7-3.6l-1.5-7.1-6.9 8c-3.7 4.5-6.8 8.5-6.8 8.9s-.4.8-1 .8c-.5 0 2.5-4.5 6.7-10.1 7.1-9.3 7.5-10.3 6.3-12.3-.7-1.1-2.1-3.4-2.9-5.1-.9-1.6-2.1-3.5-2.8-4.2-.7-.8-2-2.7-3-4.3-1.8-3.2-4.3-4-4.3-1.5 0 2.2-3.2 13.6-3.7 13.1-.2-.2.3-3.2 1.2-6.7s1.5-8 1.3-10.1c-.2-2.4.1-3.9.9-4.2.7-.3 1.4-2.2 1.4-4.3.2-2.9.3-3.2.6-1.1.5 3.1 2.7 4.2 5.3 2.8s3-1.3 3 .9c0 1.1.5 2.3 1 2.6 1.4.9 1.2-6.3-.5-17.9-1.7-11.3-1.9-14.6-.7-14.6.5 0 1.7 6.1 2.6 13.6 2 15.4 4.2 21.8 7.7 22.7 2.3.6 2.3.7.4 2.2-1.9 1.4-1.9 1.5-.1.8 1.4-.5 1.7-.3 1.1.7-.5.9-.4 1.1.4.6.6-.4.9-1.1.6-1.6s-.1-1.1.5-1.5c.5-.3 1-.1 1 .5s.5.8 1 .5c.6-.3 1-1.5 1-2.6 0-1 .5-1.9 1-1.9.6 0 1-.4 1-1 0-.5 1.5-3.3 3.3-6.2 1.9-2.9 4-6.8 4.8-8.6.8-1.7 1.7-3.2 2.1-3.2.5 0 .8-.6.8-1.4s.7-2.1 1.5-2.9c.7-.8 1.7-2.5 2-3.9.6-2.2-.4-2.9-16.1-10.6-9.2-4.6-17-7.9-17.5-7.5-.4.4-.9 1.9-1.2 3.3-.3 1.6-.5.9-.6-1.8-.1-3.1-.6-4.4-1.8-4.8-3.9-1.2-11.3-4.8-11.3-5.4 0-.4-1.9-2.9-4.2-5.5-5-5.7-2.1-4.4 3.7 1.6 4.4 4.5 8.3 6.9 11.4 6.9 1.1 0 2.3.5 2.7 1.1.3.6 2.3-1.4 4.5-4.8 2.1-3.2 3.9-5.2 3.9-4.4 0 .7-1.3 3-3 5.1-1.6 2.1-3 4.4-3 5.2 0 .9 3.5 3.1 8.3 5.3 21.8 10.1 24.7 11.4 24.7 10.6 0-1.5-4.8-19.3-7.5-27.5-1.4-4.4-2.3-8.1-2.1-8.3.3-.3 2.9 7.5 9.6 29.5 2.2 7 3.2 8.3 4.5 6.1.4-.6 4.1-3.6 8.4-6.7 4.2-3 10.6-8.2 14.2-11.4s6.8-5.8 7.1-5.8.8.9 1.1 2.1c.4 1.5.2 1.9-.9 1.5s-15.8 10.2-18.4 13.3c-.3.3-3.1 2.6-6.2 5-3.2 2.4-5.8 4.6-5.8 5 0 1.1 6.7 4.9 27.3 15.3 6.4 3.4 11.7 6.2 11.7 6.4 0 .8-17.5-7.5-33.5-16-3.3-1.8-5.9-2.1-5.1-.7.4.5 1.2 4 2 7.8.7 3.7 2.3 11.3 3.4 16.8 1.2 5.5 2.3 11.2 2.6 12.8 1.3 7.6 2.4 8.1 7.7 4.1 9.7-7.4 19.9-14.9 23.7-17.7l4.3-3.2-2.3-1.9-2.3-1.9 2.2.6c1.3.3 2.6 0 3-.6s1-.1 1.5 1.3c.5 1.3.4 2.7-.1 3.4-.5.6-1.1 2.4-1.4 4.1l-.4 3-.2-3.2-.1-3.2-10.7 8.2c-6 4.5-13.4 10.7-16.5 13.9-5.2 5.2-5.6 5.9-4.8 8.5 1.6 5.2 3.9 10.8 4 9.8 0-.5 1.6 1.8 3.6 5.1 2 3.4 4.6 7.3 5.8 8.6 9.9 11.5 13 14.8 14.2 14.8.8 0 1.4 1 1.4 2.5 0 2.6-.9 3.1-2.5 1.6-1.6-1.4-10-3.1-15.3-3.1s-6.2 1-6.2 6.7c0 2.2.4 2.3 8.4 2.3 7.8 0 8.5-.2 10-2.4 1.5-2.4 1.5-2.5-1.2-2.9-2.5-.4-2.5-.4.5-.6 3.8-.1 4.9 1.2 2.8 3.2-2.1 2.2-1.9 2.7 1.1 2.7 1.9 0 2.5-.4 2-1.5-.3-.8-.1-1.5.4-1.5.6 0 1 .7 1 1.5 0 1.3 6 1.5 47.7 1.5h47.7l3.9-4.3 3.8-4.2-2.6 4.3-2.5 4.2h3.7c2 0 3.4-.3 3-.6-.6-.6 1.6-3.4 2.7-3.4.6 0 4.5-3.2 7.3-5.9 2.1-2.1 8.3-6.1 9.3-6.1.4 0 1-.4 1.2-.9.2-.6 3.1-3.3 6.6-6l6.3-5.1-2.8-1c-5.7-2.1-7-2.9-3.3-2.2 1.9.4 5.4.7 7.7.7 3.6 0 4 .2 3.2 1.7-.7 1.4 1.2 4.1 10.1 13.9 6 6.7 11 12.7 11 13.2s.9-.2 2-1.6 2-3.5 2-4.7c0-1.1.5-1.8 1-1.5.6.3 1 1.4 1 2.4s.9 3 2.1 4.5l2 2.6H1280V414.9c0-289.4-.1-305.3-1.7-306.6-1.7-1.4-1.7-1.4 0-.9 1.6.5 1.7-2.5 1.7-53.4V0H0zM824.8 57.7c2 1.5 4.4 3.4 5.2 4.3s5.5 4.7 10.4 8.6c4.9 3.8 11 8.7 13.5 10.9 2.6 2.2 6.4 5.4 8.6 7.2 3.8 3.1 21.4 17.5 31.2 25.6 3.5 2.9 4.8 3.5 5.4 2.5.6-.9.9-.6.9 1 0 1.4.9 2.7 2.5 3.4 1.9.8 2.2 1.4 1.4 2.4s-.1 2.4 2.9 5.6c2.2 2.4 7 8.3 10.6 13.1 7.5 10.1 7.9 10.7 7.2 10.7-.3 0-4.9-5.5-10.2-12.3-5.4-6.7-9.9-12.4-10.1-12.6-1-1.3-1.1 1.2-.2 6.5.5 3.2 1.6 10.8 2.3 16.9.8 6 2.8 20.7 4.5 32.5s3.7 26 4.4 31.5l1.4 10 4.5-9.5c2.5-5.2 7.1-14.9 10.2-21.5s6.3-13.3 7.1-14.8c.8-1.6 1.5-3.7 1.5-4.7 0-2.1-5.4-9.9-11.2-16.3-2.1-2.2-3.6-4.3-3.4-4.5.4-.4 4.8 4.2 9.5 9.8 2.7 3.3 2.6 2.2-.4-6.2-1.4-3.8-2.5-7.5-2.4-8.1 0-1.9 5.1 11.4 5.6 15 .5 3.4 2.8 6.1 4.1 4.9 1.5-1.5.6-14-1.2-17.6-3.3-6.4-12-17-12.8-15.7-.5.8-.8.5-.8-.8 0-2.4-3.5-7.5-15.3-22.7-11.6-14.9-11.5-14.8-15.1-18.7-1.7-1.8-2.6-3.2-2-3 1.3.5 8 8.1 16.1 18.5 3.3 4.3 7.1 9 8.3 10.4 3.8 4.2 15.3 20.1 20.1 27.7 2.8 4.3 5.2 9.8 6.3 14 1 3.7 2.9 10.8 4.3 15.8 1.4 4.9 2.5 10 2.4 11.3 0 1.3.3 2 .9 1.7s1-.5 1-.3 1.4 4.1 3 8.8c3.2 9.1 3.9 14.3 1.7 13.4-.8-.3-1.2-1.7-.9-3.7.3-3.3-2.4-11.4-3.5-10.3-.8.8-5.3-8.2-5.3-10.6 0-.9-.4-2-1-2.3-1.6-1-1.1-2.8.6-2.1 1.2.5 1.5.2 1-1.1-.4-.9-1.6-5.5-2.8-10.2-2-7.5-2.3-8.2-2.9-5.6-1.1 5.1-.9 8.9.6 11.9 1.8 3.3 1.9 3.9.5 3.1-.6-.4-.8.6-.4 2.7.7 4.1.8 7.4.3 11.5-.6 5.8-1.4 3.5-1.5-4.5-.1-4.2-.7-9-1.3-10.7l-1.2-2.9-3.8 8.4c-2.1 4.7-6.2 13.4-9 19.5-9.7 20.4-10.3 21.6-9.9 22 .6.6 30.2 3.7 31.9 3.3 1-.2 1.5.9 1.7 3.6.2 2.1-.1 3.6-.5 3.3-.5-.3-1.5.9-2.2 2.6-2.4 5.6-13.4 29-17.3 36.5-2.8 5.6-3.3 7.2-2 6.7 2.8-1 15-8.6 16.1-9.9.9-1.1 3.1-21.3 3.2-29.8 0-1.4.6-3.1 1.3-3.7 1-.8 1 0 .3 4.2-.5 2.9-1.1 10.3-1.4 16.6l-.4 11.3 4.7-3.3c7.1-5.1 7.9-6.8 6.3-13.1-.7-2.9-1.6-5.5-1.9-5.8-1.5-1.4-4.4-10-3.4-10 .3 0 1.3 1.8 2.3 4.1 1.3 2.9 2.1 3.7 2.7 2.8.5-.9 1.2.7 2 4.6.7 3.3 2.2 8.6 3.3 11.7 2.1 5.8 3.5 11.9 3.3 15 0 1 .3 2 .8 2.3 1.4.9 2.4-1.7 2.1-5.5-.2-1.9 0-3.2.3-2.9.4.4.7 2.8.8 5.5 0 2.6 1.1 7.7 2.4 11.3 2.9 8 3.4 17 1 20.5-2 3.1-3.6 3.4-2.9.6.3-1.1.9-2 1.4-2 2.8 0-.3-19.4-3.7-23.6-1.4-1.8-1.5-1.6-.9 2.4.3 2.4.6 4.8.8 5.3.1.6-2.7 2.1-6.3 3.3-8.3 3-16.1 6.8-22.7 10.9-6.2 3.8-7.2 4.7-4.4 4 1.1-.3 2.6-1.1 3.2-1.9 1.7-2.1 2.9-1.7 2.9.9 0 1.5.9 2.6 2.9 3.5 2.6 1.2 6.1.8 6.1-.7 0-1.1 10.9-12.6 11-11.6 0 .6-1.8 3.3-4.1 6-2.2 2.7-4.5 5.7-5 6.7-1.2 2.1-.2 4.1 1.6 3.5.6-.3 1.9.3 2.8 1.4 1.9 2.2 6.5 3.5 7.7 2.3.5-.5 1.2-4.3 1.5-8.4.7-8.7 1.5-10.4 1.5-3.4 0 5.6 1.4 9 2.6 6.1.3-.9 1-1.7 1.5-1.7 1.4 0 1 2.2-.6 3.4-1.8 1.3-3 11.5-1.6 13.6 1.5 2.3 2.1.9 3-7.4.5-4.3 1.2-8 1.5-8.3.9-.9.7 7.1-.4 16.7-1.7 14.8-1.8 17.1-.5 18.3 1.2 1.1.8 4.7-.6 5.7-.7.5-1.2 8.8-1 18.2.1 5.6.2 5.8 2.9 5.9l2.7.1-2.5.7c-2.5.7-2.5.8-2.2 9.8.3 7 0 9.9-1.3 12.6-.9 1.9-1.5 4.3-1.3 5.2.2 1-.3 2-1.1 2.3-1 .3-1.2-.2-.8-1.9 1.9-8.2 2.9-17.7 2-19.3-.8-1.4-1.2-1-2.3 2.6-.7 2.4-1.9 5-2.6 5.8-.6.8-1.9 4.4-2.7 7.9-.9 3.5-2.2 7.1-3 8-.7.9-3.3 5.7-5.8 10.8-2.4 5-4.8 9.2-5.2 9.2-.4.1-1-.7-1.4-1.7-.3-.9-1.3-2.5-2.1-3.5-.8-.9-1.2-1.7-.8-1.7s1.5.9 2.4 2c1.7 2 1.8 1.9 6-5.9 2.3-4.3 4.2-8.6 4.2-9.4 0-1.7-5.4-3.1-17-4.4-9.8-1-9.5-1-9.6.7-.2 3.3-.4 4-1.2 4-.4 0-.8-1.2-.7-2.8 0-2.5-.2-2.7-4-2.4-5.8.4-13.7 2.5-14.1 3.7-.4 1 9.6 29.2 11.6 32.7 1.4 2.5 1.2 3.2-.4 1.8-1.6-1.2-1.6-1-3 9.4-.3 2.2-1 4.4-1.5 4.9-.7.7-.9.2-.7-1.4 1.3-8.1 1.7-12 1.2-12.7-.6-1-14.7.6-16 1.8-.5.5.2 2.3 1.4 4.2l2.3 3.3-2.9-2.8c-1.7-1.5-3.5-2.7-4.2-2.7-.6 0-1.5-.7-2-1.6-.8-1.4-3.2-1.5-23.1-.9-12.1.4-22.1 1.2-22.1 1.6 0 .5 2.8 2.2 6.3 3.8 3.4 1.6 8.6 4.3 11.6 6.1 6.1 3.6 6.7 3.5 13.6-2.6 5.7-4.9 11.4-8.8 12.1-8.1.3.3-.7 1.4-2.3 2.4-1.5 1-3.4 2.3-4.1 3s-3.4 2.9-6 5-4.9 4-5.2 4.3-1.5 1.1-2.8 1.8c-2.1 1.2-2.4 1.1-2.8-.5-.6-2.1-14-10.9-18.2-11.9-3.7-1-7.3-3.4-6.6-4.6.9-1.4 1.4-13.2.5-12.2-.4.5-1.3 3.1-1.9 5.7-.7 2.6-2.1 6-3.2 7.5s-2.4 4.9-3 7.7c-.6 2.7-1.5 5.4-2 6-1.4 1.7-2.5 8.9-1.1 8.1.6-.4 1.1-.2 1.1.3 0 .6.7 1.1 1.6 1.1.8 0 1.2-.5.9-1-.4-.6.9-1 3.2-1 2.1 0 5.4-.4 7.3-.8 4-.9 10 .5 12.9 3 1 .9 2.8 1.9 4 2.3 2.2.7 2.8 2.1 1.2 2.7-.5.1-.3.9.5 1.6 1.1 1 1.7.9 3.1-.8 2.5-2.9 2.9-2.5 2.5 2.5-.2 2.5-.1 5.3.4 6.3.4.9.6 2.3.5 3-.1.8.5 1.2 1.5 1 1.7-.3 5.8-10.1 4.6-11.2-.3-.3 0-.6.6-.6.7 0 1.2 1.5 1.2 3.2.1 1.8.7 4.6 1.5 6.3 1.5 3.4 2 1.9.5-1.9-.5-1.4-.8-2.6-.6-2.6.8 0 7.7 10.2 8.7 12.7.5 1.3 1.6 3.1 2.4 3.9 1.6 1.7 2 3.4.7 3.4-1.1 0-4.8-5-5.6-7.7-.4-1.2-1.3-2.7-2.2-3.4-1.2-1-1.4-.7-1 2.2 1.5 10.6 2.5 18.5 2.6 19.2 0 .4 1.3.1 3-.8 3.4-1.7 4-1.8 4-.6 0 .5-1.5 1.4-3.2 2.2-1.8.7-3.6 1.8-4.1 2.5-.5.9-1.7.7-5-.9-2.3-1.1-5-2.4-5.9-2.9-3.3-1.5-5.7-.8-20.3 6.2l-14.7 7-6.1-4.7c-3.4-2.6-7.3-5.8-8.7-7-3.4-3-9.9-7.3-11-7.3-.5 0-2.9 3-5.3 6.8-2.4 3.7-5.4 7.6-6.7 8.7s-.3-.7 2.2-4c6.8-9.1 9.3-14.5 6.6-14.5-.7 0-7.6-3.2-15.5-7.1-7.9-3.8-14.6-6.8-15.1-6.5-1 .6-4.3-1.9-4.6-3.6-.1-.8-1.2-3.2-2.6-5.3-3.2-5.4-5.9-10.5-5.4-10.5.2 0 2.4 3.2 4.9 7 2.5 3.9 5 7 5.5 7 1.3 0 22-20.4 22-21.7 0-.7-1.9-1.7-4.2-2.4-2.4-.6-6.5-2-9.3-3-2.7-1-7-2.3-9.5-2.8-2.5-.6-7-2-10-3.1-7.7-3-12.1-4.2-12.7-3.6-.3.3.2 1.7 1.1 3.1s1.3 2.5.9 2.5c-.5 0-1.6-1.4-2.5-3.1-1.5-2.6-2-2.8-3.8-1.9-1.9 1-2 1-.8-.9 1.1-1.7.9-2.4-1.2-4.6-1.8-1.9-2-2.5-.8-2.5.9 0 2.1.7 2.8 1.5s2.3 1.5 3.6 1.5c1.7 0 2.2.4 1.8 1.5-.4.8-.4 1.5-.1 1.5.2 0 5.1 1.4 10.8 3.1s13.3 3.9 16.9 4.9 8.5 2.5 11 3.5c4.2 1.5 4.5 1.5 5.7-.1 1.2-1.7 1.3-1.7 1.3 0s.2 1.7 3-.1c5-3.1 16.6-15 29.3-29.8 6.6-7.7 12.6-14.5 13.4-15.2 2.3-1.9.2-2.3-15.4-3.3-8.2-.6-16.5-1.3-18.5-1.6-4.4-.7-4.1-1.5-5.9 20.1-.6 7.7-1.3 14.2-1.6 14.5-.6.5.2-14.5 1.4-26.8.3-3.6.2-6.2-.4-6.2-.5 0-2.5 1.8-4.4 4s-7.1 7.2-11.6 11.1c-7.6 6.6-8.1 7.2-7.2 9.6.5 1.4.8 2.8.5 3-.2.3-.7-.5-1.1-1.6-.3-1.2-1.1-2.1-1.6-2.1s-.9-.8-.9-1.8c0-.9-2.2-5.2-5-9.5-2.7-4.2-4.5-7.7-3.9-7.7.5 0 1.3.8 1.7 1.8 2.8 7 10.2 16 10.2 12.4 0-.4 1.3-1.5 2.9-2.5 3-1.7 18.3-17 18.9-18.8.3-.6-.6-.8-2-.5-1.2.3-8.8 1.2-16.8 2.1-8.6.9-14.9 2-15.5 2.8-.5.6-1.9 1.9-2.9 2.7-1.8 1.4-1.9 1.4-.8-.7 1-1.9.9-2.4-.7-3.3-1.1-.5-3-1-4.3-1s-5.4-.9-9.3-2c-3.8-1.1-8.2-2-9.7-2s-2.9-.4-3.2-.9-4.7-1.8-9.8-3c-18-4.2-22.3-5.4-24-6.9-2-1.7-2.5-3.7-.7-2.6 1.5.9.6-8.5-3.1-34-.6-4-.7-7.3-.2-7.8s1.2 1.5 1.5 4.9c.6 5.3 2.5 19.6 3.1 23.3.1.8.6 4.1 1 7.2.5 3.5 1.3 5.8 2.1 5.8 1.7 0 17.7-10.6 18.8-12.5.6-1.2-.8-3.3-5.9-8.8-3.7-4-7.7-8.9-9.1-11-3-4.8-13.4-15.7-14.9-15.7-.7 0-3.4 2-6.2 4.5-7.3 6.6-7.5 5.5-.3-1.3 5.9-5.4 6.1-5.9 4.4-7.3-3.6-3.1-21.6-14.2-23.1-14.3-1.4-.1-1.6 2.2-1.7 19.1 0 10.6.3 19.3.7 19.3s3-2 5.8-4.5 5.3-4.5 5.7-4.5c1.2 0-7.3 8.2-10.1 9.7l-3 1.6 3.6 3.1c1.9 1.7 9 7.3 15.7 12.5 6.6 5.1 12.1 9.6 12.1 9.8 0 1-5.1-2.5-12-8.2-10.3-8.6-16.8-13.5-17.9-13.5-.5 0-1.2-.7-1.5-1.6-.4-.9-.9-1.5-1.1-1.2-.3.2-3.1-2.1-6.4-5.1-3.2-3.1-10.7-10-16.7-15.3-6-5.4-11.5-10.4-12.2-11-.7-.7-5.1-7.2-9.8-14.3-5.9-9.1-7.2-11.6-4.4-8.5 2.1 2.5 4 5 4 5.7 0 .6.4 1.3.8 1.5.5.1 2.9 3.4 5.3 7.3 2.3 3.8 4.7 7.3 5.2 7.6 1.5 1 13 11.3 16.6 14.9 2 1.9 6.9 6.4 10.9 9.9l7.2 6.3.2-7.8c.1-4.4.1-9 0-10.4-.7-14.7-.8-20.8-.1-22.2.7-1.2.1-2.3-2.2-4.2-1.7-1.4-3.5-2.6-4-2.6-1.4 0-27.2-12.9-28.4-14.2-.7-.7-.7-.9 0-.5.6.2 8.2 4 17 8.3s16.3 8 16.7 8.2c.3.2.9-.7 1.3-1.9.7-2 .8-2 1.7-.6.5 1 .7 2.1.4 2.6s2 2.6 5.2 4.8c3.1 2.2 8.1 5.6 11.1 7.7 6.9 4.9 11 6.4 12.2 4.5.6-1 .9-1.1.9-.2 0 .8 1.5 1.3 3.8 1.4 3.8.1 3.7.3-1.1 1.3-3.6.9-3.3 2.1 2.5 8.7 2.5 3 8.4 9.9 13 15.3 4.5 5.5 8.9 10.1 9.7 10.4 1.1.4 1.2-.9.7-6.9-1.2-13.2-1.6-18.3-1.7-23.2-.1-2.6-.5-4.9-1-5.2-.4-.3-.6-1.2-.2-2 .6-1.7.2-1.8-4.9-.6-2.2.5-3.8.5-3.8 0s1-.9 2.3-.9 3.1-.6 4.1-1.3c1.7-1.3 1.6-1.7-1.4-7.6-1.7-3.5-2.9-6.5-2.6-6.8s2 2.4 3.7 6c2.6 5.2 3.6 6.4 4.6 5.5.7-.6 1.3-1.5 1.3-2s1.1-2.6 2.5-4.6c2.7-4 3.4-2.5 1 2.2-1.9 3.5-1.9 3.5.1 3.2.9-.1 2.2-1 2.9-1.9s1.5-1.7 1.9-1.7c.6 0 2-1.1 11.4-9.3 3-2.6 6.1-4.7 6.9-4.7.7 0 1.3-.5 1.3-1 0-.6-.4-1-.8-1-.8 0-3.4-6.1-2.8-6.7.2-.2 1.3 1.2 2.4 3.2 2.3 3.8 3.7 4.2 6.6 2 1-.8 2.3-1.2 2.7-.9.4.2 1.6-.7 2.6-2.1s2.6-3.6 3.5-4.8c1.7-2.1 1.7-2.1.3 1.5-1.8 4.4-1 5.2 4.3 4.4 2-.3 6-.6 8.7-.8 5.6-.2 7.1-1.4 4.9-3.9-4-4.4-9.1-13.4-8-14.1.8-.6.7-.8-.2-.8-.7 0-1.5.7-1.8 1.5-.5 1.2-1 1.3-1.9.5-2.6-2.2-25.8 3.1-29.4 6.7-2.6 2.5-4.2 2.4-2.1-.2.7-.9 1.1-1.7.9-1.9-.2-.3-9.4-.7-20.4-1.1-16.5-.6-19.8-.5-18.7.6.6.7 1.2 1.9 1.2 2.7 0 4-4.8-5.5-8.7-17.2-2.4-7.2-4.7-14-5.3-15.1-1.3-2.8-6.3-16.7-8.9-25-2.1-6.4-5.7-15.4-9.8-24.5-.9-1.9-2.2-5.3-2.8-7.5l-1.2-4-7.4-1.3c-4.1-.6-12.8-2.1-19.4-3.1-9.4-1.5-10.6-1.9-5.5-1.6 3.6.2 12.1 1.2 19 2.3s12.6 1.9 12.8 1.7-.8-2.5-2.1-5.2c-1.4-2.6-3.7-8.6-5.2-13.3-1.6-4.7-5.8-16.2-9.5-25.5-3.8-9.4-7.1-18.4-7.4-20-.4-2.2-.3-2.5.3-1 1.7 3.7 7.3 18 11.7 29.3 3.3 8.5 5.2 12 7.6 14 1.8 1.5 4 3.5 5 4.4 2.2 2.2 2.4 6.8.4 6.8-1.1 0-1.3.7-.6 2.9 1.9 6.8 2.7 7 5.2 1.6 1.3-2.8 3.3-6.4 4.4-8 1.2-1.7 4.8-8 7.9-14 3.2-6.1 8.4-15.8 11.6-21.7 3.3-5.9 5.9-11.3 5.9-12.1 0-1.5-15.7-5.7-29-7.7-4.1-.6-10.1-1.8-13.3-2.6s-7.9-1.9-10.5-2.5c-2.6-.5-5.7-1.2-6.9-1.4-2.6-.6-2.9.7-1.3 5.1.6 1.5.8 2.9.5 3.2-.7.8-3.4-6.1-2.8-7.3.4-.6.1-.5-.6.1-.6.6-3.3 4.6-6.1 9-2.7 4.3-7 11.3-9.6 15.4s-4.8 8.6-4.8 10c-.1 1.7-1 2.9-2.8 3.8-1.7.8-4.7 4.5-7.8 9.7-2.8 4.7-5.4 8.5-5.6 8.5-.9 0 10.8-19.1 13.7-22.5.9-1.1 4.7-7 8.3-13 3.6-6.1 7.9-13.3 9.6-16 2-3.1 3.3-6.6 3.5-9.3.3-4.8 1.5-7 1.5-2.9 0 1.5.4 2.7.9 2.7 1 0 21.2-9.7 30.7-14.7 3.9-2.1 8.6-4.4 10.5-5.2s4.2-2.1 5.2-2.9c.9-.9 2.7-1.6 4-1.8 3.2-.3 32-10.7 40.2-14.5 3.9-1.8 7.8-3.3 8.7-3.4 1-.1 5.2-1.5 9.3-3 4.2-1.5 7.8-2.5 8.1-2.2s-2.6 1.6-6.5 2.8c-3.9 1.3-7.1 2.6-7.1 2.9 0 1 12.2 6.5 39 17.8 5.2 2.2 14.6 6.3 20.8 9.1 6.3 2.8 11.8 4.8 12.3 4.5 1.1-.7.4-11.9-1.7-27.3-.8-5.8-1.4-11.6-1.3-13s.9 2.8 1.9 9.4c1.6 11.3 2.2 15.3 3.7 26.8.3 2.9 1.2 5.1 2.2 5.7.9.4 8.9 1.3 17.6 1.9 8.8.6 17.4 1.3 19 1.6 1.7.2 7.6.7 13.3 1 5.6.4 11.7 1.1 13.4 1.6 4.1 1.1 4.9.3 1.7-1.8-1.3-1-4.6-3.8-7.4-6.3-2.7-2.5-10.2-8.8-16.5-14s-13.5-11.2-16-13.4c-2.5-2.3-9.2-7.7-14.9-12.1-5.8-4.4-12-9.5-14-11.2-3.6-3.3-3.6-3.3-4.3-1-.4 1.4-.6 1.6-.7.6-.2-3.1-2.6-4.1-5.7-2.4-3.9 2-5.7 1.8-1.9-.2l3-1.7-2.5-.7c-2-.6-1.7-.7 1.8-.8 3.2-.1 5.3.6 8 2.6m-420.3 45.5c-3.8 4-8.5 8.8-10.4 10.6l-3.6 3.3 6-.6c3.3-.3 18.8-1.7 34.4-3 15.6-1.4 28.7-2.8 29-3.1s-.1-.9-1-1.4-2.7-1.9-4-3l-2.4-2.2 3.2 2.1c1.7 1.2 4.8 2.8 6.7 3.6 3.3 1.4 4.2 3.2 2.4 4.5-.6.5 4.1 15.4 5.8 18.1.4.8.7 2.4.6 3.6-.2 1.1.2 2.4.7 2.8.6.3 1.1 2.3 1.1 4.3.1 4.7 1.7 11.7 3.7 16 1.3 2.8 2 3.2 4.1 2.7 3-.7 15.1-1.7 13.7-1-.5.2-4.3 1.1-8.4 1.9-4.1.9-7.6 1.7-7.8 2-.2.2 0 1.2.6 2.3.6 1 2.5 5.4 4.2 9.8s4.3 11.1 5.9 15c9.4 23.5 21 53.7 20.9 54.5 0 1.3-3.1-5.6-5.5-12.2-1.5-4-3.5-8.9-4.5-10.8-1.1-1.9-1.9-3.8-1.9-4.2s-1.1-3.1-2.3-6c-1.3-2.9-3.6-8.5-5.2-12.3-1.5-3.9-4.2-10.2-6-14-1.8-3.9-4-9.2-5-12-1-2.7-2-4.4-2.2-3.8-.3.7.1 2.1.7 3.2.8 1.6.8 2.1-.1 2.1-.7 0-.9 1-.7 2.5.3 1.4.1 2.8-.3 3.1-1.5.9-1 8.1.6 9.4 1.8 1.5 2 3.4.3 2.7-.9-.3-1.3.8-1.3 4 0 2.4-.5 4.7-1.2 5.1s-1.5 2.6-1.8 4.8c-.8 4.9-.4 5.5 15.6 21.4 12.4 12.2 19.6 20 18.5 20-.4 0-8.4-7.6-17.9-16.9-9.4-9.4-17.3-16.9-17.4-16.7-.7.6-7.4 27.5-10.7 42.3-1.9 8.3-3.7 15.7-4.1 16.3-.5.9-.1 1 1.6.5 4.2-1.2 50.9-20.2 51.8-21.1.2-.2-.2-1-.8-1.8-.9-1-.9-2.1-.3-3.2.8-1.4 1-1.3 1.5.8.6 2.1 1.2 2.5 3.4 2.1 2.6-.4 2.7-.3.9 1.1-1 .8-1.5 1.9-1.2 2.4.3.6-.2.8-1.1.6-1-.3-10.9 3.3-22.1 8.1-11.2 4.7-20.8 8.5-21.4 8.5s-4 1.4-7.7 3.2c-3.6 1.8-7.2 3.3-8 3.4-2.8.5-25.6 8.7-27 9.8-.7.6-2.4 1.2-3.7 1.3l-2.4.4 2.3-2.4c1.2-1.3 2.5-2.2 2.9-2 .3.2 3.7-.8 7.5-2.1 3.7-1.3 9.4-3.1 12.5-4s5.9-2 6.2-2.5-3.4-2.8-8.2-5.1-13.3-6.5-19-9.3c-5.6-2.7-10.5-4.8-10.8-4.5-.2.3.7 3.1 2.1 6.3 1.5 3.1 2.4 5.9 2.1 6.2s-1.2-1.2-2-3.3c-.9-2.2-2-4.6-2.6-5.4-.5-.8-1.5-2.6-2.1-4l-1-2.5-2.7 3c-1.5 1.7-4.4 5.1-6.6 7.5-5 5.8-3 1.9 2.3-4.5 2.3-2.7 4.1-5.3 4.1-5.7 0-1.4-50.3-23.8-53.5-23.8-.3 0-.3 4.4 0 9.7 1.3 24.7 1.4 30.1.6 23.3-.5-3.6-1.2-11-1.5-16.5-.4-5.5-.9-11.3-1-12.8-.6-5.4-2.1-5.9-22.3-7.8-23.5-2.3-24.3-2.3-24.3-.4 0 .8-.5 1.5-1.1 1.5s-.9-.7-.6-1.5c.4-.8.2-1.7-.4-2.1s-.7-1-.1-1.7 1.2-3.5 1.5-6.2c.7-8 3.5-26.4 5.1-34 .9-4 1.3-5.1 1-2.5-1.8 15.2-3.5 27.9-4.5 33-.6 3.2-1 6.3-.7 7 .2.6 6.3-5.5 13.5-13.6l13.2-14.7-1.9-5.1c-9.2-25.4-13.1-36.9-12.6-37.3.6-.6 2.9 4.7 6.2 14.5 1.3 4 3.7 9.9 5.3 13 1.5 3.1 3.1 6.9 3.5 8.4.3 1.6 1 2.8 1.4 2.8.9 0 7.6-7 12.5-13.1l3.6-4.5-3.7-3.6c-2-2-5.3-4.3-7.2-5.2-2.8-1.3-14.9-9.6-19.6-13.5-1.9-1.5-4 1.3-4.9 6.4-.4 2.7-1.3 8.6-2 13s-1.3 6.8-1.4 5.2c0-1.5.6-7.3 1.4-12.9.9-5.5 1.4-10.2 1.2-10.4s-3.2 3.1-6.8 7.3c-6.1 7.3-6.9 9-5.5 12.3.3.8.2 2.2-.4 3-.8 1.3-1.2 1.2-2.7-.7l-1.8-2.2-4.7 5.2c-2.7 2.9-4.8 5.7-4.8 6.4 0 .6-.9 1.4-2 1.8-1 .3-3.4 2.5-5.2 4.8s-3.6 4.3-4 4.5c-.3.2-3.5 3.8-6.9 8-3.5 4.2-6.9 8.1-7.7 8.5-1 .7-1 1.2-.1 2.3s.9 1.4-.1 1.4c-.8 0-1 .9-.5 2.8.4 2.2.2 2.9-1 2.9-.9 0-1.5-.9-1.5-2.2 0-1.2-.3-2.5-.7-2.9s-.7-2.8-.8-5.4c0-2.6-.4-8.3-.8-12.7l-.7-8 1.8 9.7c1 5.4 2.1 10.1 2.5 10.4.7.8 20.7-20.3 26.6-28.1 1.2-1.6 5.3-6.3 9.1-10.5 19.3-21.2 19.3-21.2 17.9-22.1-1.2-.7-1.2-.9 0-.9.8 0 1.1-.6.6-1.8-1.6-4.1-1.6-4.6 0-2.2 1 1.4 2 2.7 2.2 3 .5.5 1.9-1.2 10.3-12.3 3.3-4.3 7.8-9.7 10.1-12 5-4.9 3.3-2.3-3 4.8-2.4 2.7-5.9 7.4-7.8 10.3s-4.1 5.6-4.9 5.9c-.7.3-1.2.9-.9 1.4.5.8 6.1-.8 12-3.5 1.7-.8 9.5-4 17.5-7.1 24.1-9.5 36-14.7 36-15.5 0-.5-1.8-1.9-4-3.1-5.6-3.2-4.4-3.4 1.9-.3l5.3 2.5 2.6-2.3c1.4-1.3 6.2-5.8 10.6-10 4.5-4.3 8.3-7.8 8.5-7.8s-2.7 3.3-6.4 7.2M292 285c6.8 15.3 7.2 16 8.2 15.4.4-.3.8.2.8 1 0 2.2 1.7 2 3.2-.4.7-1.1 1.6-2 2.1-2 .4 0 .1 1-.7 2.2-2.1 3-2 4.1.3 2.8 3.4-1.7 6.1-1.2 7.1 1.5.6 1.5 1.7 2.5 3 2.5 1.1 0 2.8.4 3.8.9.9.5 4.9 1.7 8.7 2.5 5.9 1.3 6.2 1.5 2 1-2.7-.3-7.2-1.1-10-1.9-7.1-2-16.5-3.3-17-2.5-.3.4.2 1.3 1 2s1.5 1.7 1.5 2.3c0 .5-1.2-.2-2.6-1.7-3.1-3.1-3.3-3.1-6.2-1.1-2 1.4-2.1 1.4-1.6 0 .3-.8 1-1.5 1.5-1.5s.9-.5.9-1c0-.6-2.2-1-4.9-1-2.8 0-5.2-.4-5.5-.9-.4-.5 1.8-.8 4.9-.7l5.6.2-.6-2.7c-.4-1.6-1.7-5.1-3.1-7.9-1.3-2.7-2.4-5.4-2.4-5.9 0-.4-1.3-3.8-3-7.4-2.8-6.2-3.6-8.7-2.6-7.6.3.2 2.8 5.6 5.6 11.9m272.4 23.7c.6 1.5.8 1.5 1.6.3 1.4-2.3 11.8.2 14.7 3.5 1.2 1.4 2.6 2.5 3 2.5 1.2 0 8.3 6.8 8.3 7.9 0 .5 1 1.7 2.2 2.5 1.2.9 1.7 1.6 1 1.6s-1.1.4-.8.9c.4.5 0 1.1-.6 1.4-1 .3-.9 1.1.3 3.4l1.6 2.9-3.7-.1c-3.3 0-4.3-.7-8.5-5.9-3.7-4.5-4.3-5.7-2.6-5.1 1.6.5 2.1.2 2.2-1.2.2-3-.1-4.6-1.7-8-1.2-2.7-2.2-3.3-7.7-4.5-5.1-1.2-6.4-1.2-7.3-.1-.6.7-2.4 1.3-4 1.3-2.6 0-2.6-.1-.9-1.3 1-.8 1.5-1.9 1.1-2.5-.4-.7-.3-1.2.2-1.2.6 0 1.3.8 1.6 1.7m-277 11.9c.4.9.9 1.4 1.3 1.1 1.5-1.6 19.3 10.1 19.3 12.6 0 .6-.9.2-2-.8-2.9-2.6-3.5-1.3-.7 1.6 2.3 2.4 6.7 3.7 6.7 1.9 0-1.3 3.3-1.3 6.5.2 3.7 1.7 3.1 2.3-2.2 2.3h-4.8l-.3 8.2c-.3 8.3.1 9.1 3.6 7 .8-.6 1.2-.1 1.2 1.4 0 1.6-.5 2-1.8 1.7-1.1-.3-2.3.2-3 1.3-1.5 2.4-1.6 6.2-.1 5.3.6-.3.9-1.5.6-2.5s-.2-2.1.3-2.4c1.2-.7 2.6 1.6 3.3 5.2.5 2.6.3 3.1-.8 2.6-1-.3-1.5.1-1.3 1.3.4 4.5-.3 14.4-.9 14.4-.5 0-.9-2.6-1-5.7-.2-7.9-.2-8.5-1.9-12.9l-1.4-3.9.2 5.5c.1 3-.3 6.4-.9 7.5-1 1.7-1.2.7-1.3-5.8 0-7.3-.1-7.8-2.5-8.9-2.7-1.2-3.3-2.8-1.1-2.8.8 0 1.6-1.3 1.8-3 .4-2.3.1-3-1.2-3s-1.6.6-1.2 2.6c.3 1.9.1 2.5-.7 2-.6-.4-1.1-1.4-1.1-2.1 0-.8-1.3-2.1-3-3-1.6-.9-3-1.9-3-2.4 0-.4-1.6-2.5-3.5-4.5s-4-5.6-4.6-7.9c-.8-2.7-2.8-5.7-5.6-8.3-3.9-3.7-4.5-4-6.3-2.7-1.1.8-1.8 1.9-1.5 2.4.4.5.1.9-.4.9-1.8 0-1.2-1.5 1.4-4 2-1.9 2.7-2.1 4-1 1.2 1 1.5 1 1.5-.3 0-2.9 7.4-3.8 8.4-1.1m746.5 21.7c-1.5 3.4-.6 5.7 2 5 1.2-.3 2.1-.8 2.1-1.2s.7-1.6 1.6-2.7c1.5-1.8 1.5-1.7.8 1.1-.4 1.6-.8 7.3-.8 12.6-.1 7.7-.4 9.9-1.8 11.3-3.4 3.4-3.4 6.4-.3 19.6l.6 2.5-1.5-2.5c-.8-1.4-1.5-3.8-1.6-5.3 0-1.6-.4-2.6-.8-2.3-.4.2-.9-.7-1-2.2-.3-3.4-1.2-4.3-4-3.6-1.6.5-2.2 1.4-2.3 3.8l-.2 3.1-.4-2.9c-.3-1.6 0-3.3.6-3.9s1.1-2 1-3.2c0-1.1-.3-1.4-.6-.7-.7 1.7-3.3-.4-3.3-2.6 0-.8-.5-3.2-1.2-5.3-.9-3.1-1.4-3.7-2.5-2.8-.9.9-1.3.8-1.3 0 0-.6.7-1.4 1.5-1.7 3-1.2.2-2.5-3.9-1.9-5.6 1-5.8 1.2-4 4.1.9 1.3 1.4 2.7 1 3.1-.3.3-.7 0-.7-.8-.1-.8-.5-.1-.9 1.6l-.8 3-.1-3.6c-.1-4.5-1-5.3-3.3-3.2-1 .9-1.8 1.1-1.8.6 0-.6.7-1.3 1.5-1.7.8-.3 1.5-1.1 1.5-1.9 0-.9 2.5-1.7 7.3-2.5 7.9-1.4 9.7-2.4 9.8-5.7 0-1.1.3-1.4.6-.8.8 2.2 1.8 1.4 3.2-2.3 1.3-3.5 4.1-7.7 4.8-7 .2.2-.2 1.5-.8 2.9M291 359c.5-.9 1.2-.6 2.3 1.1 2.3 3.2 3.1 1.8 1.7-2.6-1.4-4.3-1-5.1 2-3.5 1.8 1 2.1 1.8 1.6 4.4-.3 1.8-.1 4.7.5 6.4l1.1 3.2 1.8-2.2c1-1.3 2-3.2 2.3-4.3.3-1.3.5-.9.6 1.3.1 2-.3 3.1-.9 2.7-1-.6-1.4 1.3-1.1 4.7.1 1-.4 1.8-1.3 1.8s-1.6-.7-1.6-1.5-.6-1.2-1.4-.9-1.6-.4-2.1-1.8c-.6-2.1-.8-2.1-1.2-.4-.3 1.1.2 2.3 1.2 2.8 1.2.7 1.6 2.1 1.4 4.7-.2 2.1.5 5.4 1.5 7.5 2 4.2 1.4 6.1-1 2.8-1.8-2.5-3.4-2.9-3.4-.7 0 2.6-1.7 1.6-2.3-1.4-.4-1.7-1.4-3-2.6-3.4-2-.5-2.1-1.2-2-15.4.1-12.9.3-14.1 1.1-9.4.6 3.3 1.3 4.9 1.8 4.1m266.2 27 1.8 2.4 2.3-2.2c1.3-1.2 2.8-2.2 3.4-2.2.7 0 1.5-.9 1.8-2.1.6-1.8.9-1.9 2.3-.6 1 .8 2.3 1.2 3 1 .6-.3 1.2.2 1.2 1s1.4 2.7 3.1 4.1c2.5 2.1 2.7 2.6 1.2 2.7-1 .1-2.2.1-2.7 0-1-.2-5.6 4.6-5.6 5.9 0 .5 2.3 2.1 5.1 3.6 2.8 1.4 4.9 2.7 4.7 3-.3.2-2.6-.8-5.2-2.2s-5.5-2.4-6.6-2.1c-1.4.4-3-.8-5.9-4.2-4.6-5.2-9.3-13.6-8.3-14.6.4-.4 1.1.4 1.7 1.7.5 1.3 1.8 3.4 2.7 4.8m469.3-1c1.6 2.2 3.6 4 4.6 4 1.1 0 1.9.3 2 .7.1 1.4.9 5.7 2.5 13.9 1.7 8.7 1.6 10-1.6 21.4-2.8 9.9-3 13.9-.9 15.1.9.4 2 1.6 2.3 2.6.6 1.4.5 1.6-.5.5-1.9-1.8-2.9-1.5-2.9.9 0 1.2-.4 1.7-1.1 1.3-.6-.3-.9-1.5-.6-2.5.3-1.1.1-1.9-.4-1.9s-.9.7-.9 1.5c0 1.8-1.9 2-2.6.2-.6-1.6 2-6.9 2.9-6 .4.3.7-1.2.7-3.5 0-2.2.4-4.3.9-4.7 1.3-.7 4-10.3 4.1-14 .3-9.7-2.8-23.5-5.2-23.5-.6 0-.8 1.3-.6 2.9.2 1.7.1 2.8-.4 2.5-.4-.3-.8-1.8-.8-3.5 0-1.6-.3-2.9-.7-2.9-.5 0-2.3 2.2-4.2 5-2.7 4-3.1 5.2-2.2 6.4 1 1.2.8 1.3-1 .9-1.2-.4-3-1.4-4.1-2.5-1-1-2.5-1.8-3.3-1.8s-1.5-.7-1.5-1.5c0-1.9 1-1.9 3.8.1 2.2 1.5 2.2 1.5 1.7-2.8l-.5-4.3 1.2 4c.6 2.2 1.2 4.2 1.4 4.4.6.7 5.2-5.1 6.4-8 .9-2.1.8-3.3-.4-5.8-2.3-4.3-1.4-3.9 1.9.9m-430.1 15.2c-.7 1.1 1.4 5.8 3.1 7 1.8 1.4 2.6.8 2-1.3-1-3 1.3-1.4 2.5 1.7.5 1.3 2.2 3 3.7 3.6 1.6.7 2.9 1.3 3.1 1.3.5.3-3.2 6.9-4.9 8.6-2.5 2.5-2.4 1.4.1-2.2l2.1-2.8-2.6-.7c-2.6-.6-15 2.2-17.3 3.9-1.5 1.2-1.3 1.3-3.6-4-1-2.3-2.5-4.4-3.3-4.7-1.3-.5-1.4-4.1-.4-9.4.2-.7 6.1 0 6.6.8.9 1.4 2.5 1.2 2.5-.3 0-.7 1.2-1.8 2.8-2.3 3-1.2 4.6-.8 3.6.8m369.1 32.5c-.9 4.3-2.3 9.6-3 11.8s-1.6 5.3-2.1 7c-.4 1.6-.9 3.7-1.1 4.5s-.4 2.2-.5 3c0 2.2-1.8 8.8-3.9 14.5-2.1 5.8-4.5 13.9-5.3 17.5-.9 3.9-7.9 24-8.3 23.6-.6-.6 3.6-16.5 5.4-20.6.8-1.9 2.1-5.5 2.9-7.9 1.2-3.8 1.2-4.2-.1-3.1-.8.7-1.5.9-1.5.4 0-.9 3.6-9 5.1-11.4 1.6-2.6 3.5-7.4 4.3-10.4.6-2.6.5-2.8-.8-1.7-.9.8-1.6 2-1.6 2.7 0 .8-1.6 3.8-3.6 6.7-4.5 6.4-4.3 6.2-5 5.5-.3-.4 1.1-3 3-5.8 2-2.9 3.6-5.8 3.6-6.5s1.6-4.2 3.5-7.9 3.2-7.2 2.9-7.7c-.3-.6.1-1.8.9-2.7s1.7-3.3 2-5.2c.5-4.4 3.9-15.1 4.5-14.5.3.2-.3 3.9-1.3 8.2M196.3 455c2.4 5.8 4.7 11.7 5.1 13.2.3 1.5 1.2 3.3 2 4.1.8.7 2.7 3.8 4.3 6.8s3.7 6.6 4.7 8.1c3.4 5.2 1 2.8-2.9-2.7-2-3-3.9-5.5-4.2-5.5-.5 0 .4 3.5 1.7 6.5.4 1.1 2 6.9 3.5 13 1.4 6 3.7 13.7 5 17s2.6 7.8 3 10c.3 2.2.9 5.1 1.1 6.5.4 2 .2 1.9-1-.7-1.4-3.1-3.4-10-9.6-33.8-1.6-6.1-3.6-12.7-4.5-14.7-.8-2.1-1.4-4.1-1.3-4.5 0-.5-.1-1.5-.5-2.3-.3-.8-.8-2.4-1-3.5-.3-1.1-2.8-7.6-5.5-14.5s-5.3-13.4-5.7-14.5c-1.7-4.9 1.6 1.7 5.8 11.5m740.1.7c-.6 6.8-.9 7.8-2.6 8.5-1 .4-1.8 1.8-1.9 3 0 2-.1 2-.8.5-1.1-2.9-11.5 12.5-10.7 15.9.4 1.3.2 2.4-.2 2.4-.5 0-1.2 3.3-1.6 7.2-.3 4-.9 9.9-1.2 13.2-.7 7.2 0 6.9 5.7-2.4 2.4-3.9 4.6-7 4.9-7 1.1 0 15-13.9 15-15 0-.5.9-1 2.1-1 1.7 0 1.8.2.7 1.3-.7.8-2.2 2.6-3.3 4-1.1 1.5-2.3 2.7-2.7 2.7-2.7 0-14.2 12.5-16.1 17.4-.4 1.2-1.9 3-3.2 4.1-1.2 1.1-2.6 3.2-2.9 4.7-.5 2.3-.3 2.7 1.1 2.2 1.7-.5 1.7-.5.1.6-1 .6-1.8 2.2-1.8 3.6s-.4 2.3-.9 1.9c-.6-.3-1.3 0-1.8.7-.9 1.4-7 3.8-9.4 3.8-.8-.1 1-1.2 4-2.7 5.2-2.5 5.3-2.6 4.8-6.2-.4-2.3-.1-4.3.8-5.5s1.5-4.3 1.5-7.5c.1-3.1.6-9 1.1-13.1.6-4.1 1.2-8.7 1.3-10.1.2-1.4 2.8-6.3 5.9-10.8 3.6-5.3 5.4-8.7 5-9.8-.4-1-.2-1.4.4-1s.8-.3.6-1.7c-.4-1.8 0-2.6 1.6-3.1 1.2-.3 2.6-1.5 3.1-2.6 1.5-2.7 1.8-2.4 1.4 1.8m-138.8 63.9c3.1 6.5 3.8 7.4 5.6 6.8 1.5-.4 1.8-.3 1.3.6-1.4 2.3 1.8 2.8 12.9 2.3 6.1-.3 10.9-.3 10.6 0s-3.3.7-6.7.9c-3.4.1-5.9.6-5.5.9 1.2 1.1 25 3.3 46.2 4.4 6.3.3 12.7.8 14.2 1.1s3.5.1 4.5-.5c1.6-.9 1.6-1 .1-1.1-2.6 0-12-2.1-11.6-2.6.3-.2 3.6.2 7.5 1 6.3 1.2 7.3 1.2 8.7-.2 1.1-1.1 1.6-1.2 1.6-.4 0 1.4 2.1 1.2 3.2-.3.5-.6.8-.5.8.3 0 1.4 7.3 1 13.5-.8 5.4-1.5 10.1-2.1 8.5-1-.8.5-2.3 1-3.2 1-1 0-1.8.5-1.8 1.2 0 1.6 6 7.8 7.5 7.8 1.9 0 4.1-3.2 5.4-7.7.6-2.4 1.7-4.2 2.4-4 .6.1 1.3-.8 1.5-2.1.2-1.2 0-2.2-.5-2.1-.4.1-2.1 0-3.8-.1l-3-.2 2.8-.8c1.6-.5 3.5-.6 4.2-.4.7.3 2-.4 2.8-1.6 2.6-3.7 3.7-1.9 1.7 2.5-1 2.2-1.6 5-1.4 6.1.3 1.2 0 2.5-.6 2.9-.9.5-1 .1-.5-1.6.7-2.1.6-2.2-.9-1-.9.7-1.6 2-1.6 2.7 0 .8-.6 1.1-1.5.8-1-.4-1.5 0-1.5 1 0 3.2-4 9-9.1 13.2-2.9 2.4-5.6 4.1-6 3.9-.4-.3-4 .9-8 2.6-12.6 5.3-11.8 5.2-30.4 1.9-9.3-1.7-19.9-4-23.3-5-6.4-1.9-9.2-1.8-9.2.4 0 .6-.5.4-1-.4-.8-1.2-1.3-1.3-2.9-.3-1.7 1.1-1.9 1-1.5-.1.3-.8 1.3-1.7 2.2-2.1 1.7-.6 1-1.1-13.7-9.2-13.3-7.3-15.5-8.3-16.8-7.9-.7.3-1.6-.1-2-.9-.5-.8-4.4-2.1-8.8-3-7.5-1.6-10.4-2.5-7.6-2.5.6 0 4.6.7 8.7 1.6 4.2.8 7.8 1.3 8.1 1 .3-.2-.5-2.6-1.7-5.3-4.2-9.2-5-11.3-4.4-11.3.3 0 2.1 3.4 4 7.6m111.8 58.6c-.5.7-3.2 4.1-6.1 7.6-5 5.8-5.3 6.6-5.5 12l-.1 5.7-.6-5-.6-5-4.3 5.5c-2.4 3-5.3 6.6-6.5 8s-3.8 4.6-5.7 7.2-3.8 4.8-4.3 4.8c-.4 0-4.9 2.4-10.1 5.4s-10.9 6.2-12.8 7.1c-3.2 1.6-3.2 1.6-1.1-.2 1.3-1 4.4-2.9 7-4.3 7.6-3.9 14.3-8.1 14.3-8.9 0-.9-27.9-19.9-31.9-21.8-1.4-.7-3.3-1.7-4.1-2.2s-4.6-2.1-8.3-3.6-6.6-2.9-6.4-3.1c.2-.3 2.9.7 6.1 2.1 6.3 2.8 8.1 3.1 7 1.2-.6-1-.4-1 .7 0 1.8 1.8 4 1.6 3.3-.2-.4-.8-.1-1.5.5-1.5s1.1.7 1.1 1.5c0 2.3 2.1 1.8 7.3-1.5 4.6-2.9 11.7-6.3 11.7-5.5 0 .2-3.5 2.3-7.7 4.7-7.8 4.3-7.8 4.3-4.3 4.6 5.8.6 26.8-.6 41.8-2.3 5.3-.6 7.2-1.1 6.8-2.1-.3-.8 0-1.1.8-.8.7.3 1.7-.4 2.2-1.5s2.9-3.6 5.4-5.5c5-3.9 5.4-4.1 4.4-2.4m293.6 96.1c0 .7.9 2 2 3 1.1.9 2 2.7 2.1 3.9 0 1.3.9 4.1 2 6.3 1.8 3.8 1.9 3.8 1.5 1-.1-1.7-.1-2.4.1-1.8.9 2.7 2 1 4.3-6.2 1.8-5.7 2.8-7.5 4.2-7.5 1.6 0 1.4.9-1.6 9.2-1.8 5.1-3.6 10.9-4 12.9-.6 3.1-.9 3.6-3 3.2-1.9-.4-2.9-1.8-4.6-6.6-1.2-3.4-3.3-9-4.6-12.5-2.2-6-2.3-6.2-.4-6.2 1.1 0 2 .6 2 1.3m24.1 6.6c2.1-1.1 7.9-.3 7.9 1.1 0 .5 1 1.2 2.3 1.6 1.2.3 2.9 1.3 3.8 2 1.3 1.2 1.8 1 3.7-1.5 3-4.1 7.2-4.8 12.5-2.1s8.7 5.9 8.7 7.9c0 1.4-.1 1.4-1 .1-.8-1.3-1-1.2-1.1.5s-.2 1.7-.6.2c-.7-2.5-2.3-2.1-2.3.7 0 1.5-1.5 3.6-4.1 5.9l-4 3.6 3.3-.3c1.8-.2 2.3-.1 1 .1-1.2.2-1.9.9-1.6 1.5 1 1.6-3.7-1.2-8.6-5.2-3.8-3-5-3.5-7.5-2.9-1.6.4-2.6.7-2.1.8.4 0-.2 1-1.5 2-3 2.4-1.8 3.8 1.8 2.2 2.7-1.1 2.7-1 .8.4-1.3 1-3 1.4-4.8 1.1-1.9-.4-2.6-.2-2.1.5 1.2 2-3.4-1-4.9-3.1-.8-1.1-1.7-1.7-2-1.4-.3.4-1.1-.5-1.8-1.9-.6-1.4-2-2.8-3-3-1.1-.3-1.9-1.1-1.9-1.9 0-1 .2-1 .8 0 1.1 1.6 3.3-5.2 2.5-7.6-.4-1.5-.3-1.5.6-.2s1.2 1.1 1.8-1c.6-1.9.8-2.1 1.1-.8.3 1.5.7 1.6 2.3.7"/><path d="M744.5 84.9c-.6.5-3.2 1.6-6 2.4-9.8 3-35.7 12.5-36.7 13.5-.7.7 1.6 6.3 6.6 16.7 4.2 8.6 7.6 16.1 7.6 16.6 0 2.5 2.1.3 4.5-4.8 1.5-3.1 4.4-8.2 6.5-11.2 2.1-3.1 5.7-9.2 8.1-13.6 2.3-4.4 4.8-8.7 5.4-9.5 2.2-2.7 6.5-11 5.7-11-.4 0-1.2.4-1.7.9M754 84.7c0 .9 10.4 18.6 14.9 25.2l3.6 5.5 20.5-.3c11.3-.2 22.5-.6 25-1l4.5-.6-11-4.7c-23.4-10-53.1-22.8-54.7-23.8-2.1-1.2-2.8-1.3-2.8-.3M748.8 86.2c-2.4 1.9-14.5 22.7-24.1 41.3-1.7 3.3-3.6 6.3-4.2 6.7-1.9 1.4 2.3.8 5.2-.7 1.5-.8 7.1-3.1 12.3-5 12.3-4.6 17-6.7 17-7.4s12.2-4.7 13.3-4.3c2.1.6-.4-5-7.7-17.3-2.2-3.9-4.9-7.9-5.8-8.9-1-1.1-2-2.8-2.4-3.8-.6-2.1-1.4-2.3-3.6-.6M688.4 106.3c-4.9 2.3-15 7.3-22.3 11.1-11.5 6-13 7.1-11.1 7.8 2.7 1 34.5 7.4 41.5 8.3 2.8.4 7.4 1.3 10.4 2.1 8.6 2.4 8.6 1.9 1-14.4-2.2-4.6-3.9-8.7-3.9-9.1 0-2.1-4.2-10.1-5.3-10.1-.7 0-5.3 1.9-10.3 4.3M832.7 119c-.3 1.4-.1 1.7 1.1 1.3 1-.4 1.3-.2.8.5-.4.7-.1 2.1.7 3.3 1.1 1.5 1.6 1.7 2 .7.3-.7.6-.2.6 1 .1 2.4 5.8 12.6 13.7 24.6 1 1.6 3.3 5.2 4.9 8.1 1.7 2.9 4.4 6.9 6 8.9 1.7 2.1 3 4.1 3 4.4.1 1.2 4.4 9 5.8 10.3.7.8 1.8 2.7 2.5 4.4.7 1.6 2.7 4.7 4.6 6.8l3.3 3.8 1.1-3.8c.7-2.1 1.4-5.4 1.7-7.3.2-1.9.9-5.3 1.5-7.5 1.5-5.3 3-11.6 3.3-13.5.2-.9.7-2.2 1.2-3s1.2-3.5 1.6-6 1.4-6.8 2.2-9.5c.8-2.8 1.7-6.8 2-9 .4-2.2 1.3-6.4 2-9.3 1.1-3.9 1.1-5.5.3-5.7-2.5-.8-35.9-3.7-57.2-4.9-7.4-.5-8.2-.4-8.7 1.4M900.5 132.7c.1.2-.8 4.3-2.1 9.1s-2.4 10-2.4 11.5c0 1.6-.6 4.3-1.4 6-2.3 5.1-4.4 12.6-6 21.2-.8 4.4-2.2 10.6-3.1 13.8-1.9 7.2-1.5 7.8 8.8 15.4 4.3 3.2 10.3 7.8 13.3 10.2 3.1 2.4 5.8 4.1 6.1 3.7.3-.3 0-4.9-.7-10.3-1.9-15.5-3.9-30.6-4.4-33.3-.3-1.4-1.2-7.7-2.1-14-2.9-21.2-4.8-32.5-5.5-33.1-.4-.4-.6-.5-.5-.2M711.8 149.8c-.9 2-4.4 8.6-7.8 14.6-3.8 7-5.8 11.6-5.4 12.8q.45 1.8-.9 1.8c-.8 0-3.4 3.7-5.8 8.2-2.3 4.6-5.3 10-6.5 12-1.3 2-2 3.9-1.6 4.2.5.3 6.4 1 13.3 1.5 6.8.6 15.1 1.4 18.3 1.7l5.9.7-.7-6.9c-.3-3.8-1.3-14.8-2.1-24.5s-1.7-18.2-1.9-19c-.3-.8-.7-3.4-.9-5.8-.5-5.7-1.7-6.1-3.9-1.3M857 169c0 .5-.6 1-1.2 1-.9 0-1.4 2.5-1.6 8.5-.2 7.3 0 8.5 1.4 8.5 1.2 0 1.5.6.9 2.2-.3 1.3-.9 3.3-1.2 4.6-.5 2-1 2.2-3.2 1.7l-2.6-.7 2.8 2.4c2.6 2.3 2.8 2.8 2.1 7.6-.4 3.6-.3 5.2.5 5.2s.9 1.7.4 5.7l-.6 5.7 3.4-2.2c1.9-1.2 3.3-2.6 3.2-3.2-.2-.5 1.3-1.6 3.2-2.4s3.5-2.2 3.5-3.1.4-1.4.9-1.1c1.7 1.1 10-6.4 10.1-9 0-.6-1.6-2.8-3.5-4.9s-3.2-4.1-3-4.5c.2-.3-.7-1.9-2.1-3.5-1.3-1.5-2.4-3.2-2.4-3.7 0-.4-.7-.8-1.6-.8-1.1 0-1.4-.6-.9-2 .4-1.1.2-2-.4-2s-1.1-.7-1.1-1.5c0-1.8-1.6-2-2.3-.3-.4 1-.6 1-.6.1-.1-.6.3-1.5.9-1.8.6-.4.2-1.5-1-2.7-1.1-1.2-2-2.8-2-3.5s-.4-1.3-1-1.3c-.5 0-1 .4-1 1M876.5 207.9c-5.6 3.6-17.7 13.5-18.3 15.1-.1.4 5.5 1 12.5 1.4 14.6.8 34.3 2.4 39.1 3.2 6.3 1 5.5.2-17-16.4-5.3-4-9.8-7.2-10-7.2-.1 0-3 1.8-6.3 3.9M682.3 208.6c.5 3.2 1.5 5.5 5.6 13.1.5 1 1.7 4.5 2.7 7.8.9 3.3 2.8 8.5 4.1 11.5 1.4 3 2.6 6.9 2.9 8.6.2 1.7 1.3 5.2 2.4 7.7 2.4 5.3 7.5 19.2 9.6 25.9 1.3 4.3 3.3 7.1 3.5 5.1 0-.4.7-5.3 1.4-10.8l1.4-10-.6 9c-.5 8-.4 8.8 1 7.6.9-.7 2.1-2.9 2.8-4.9.6-2 4.3-9.9 8-17.6 4.4-8.9 6.5-14.4 5.9-15s-.4-1.3.5-2c1.2-1 1.2-2.1-.2-8.4-.9-3.9-2-7.2-2.5-7.2-.4 0-.8-.7-.8-1.5s-1.5-4.2-3.3-7.5l-3.4-6-1.1 3.9c-.7 2.1-1.2 7.6-1.3 12.2 0 9.1-2.7 24.2-2.8 16.4-.1-2.2.3-7.6.8-12s1.2-11.9 1.6-16.6l.6-8.6-3.3-.7c-4-.8-30-3.6-33.5-3.6-2.4 0-2.5.3-2 3.6M856.4 226.2c-.3.4 1.1 4.1 3 8.1 1.9 4.1 4 9.4 4.6 11.8 1.3 4.9 11 30.3 17.1 44.7 2.1 5.1 3.9 9.8 3.9 10.6 0 .7 1 2.2 2.3 3.4l2.3 2.1 2.9-2c4-2.7 18.8-10.2 18.2-9.2-.3.4-2.3 1.7-4.4 2.7-7 3.5-16.3 9.8-16.3 11 0 .7.6 1.8 1.3 2.5 1 1.1.8 1.1-1 .2-2.2-1.1-2.2-1-1.7 2.1 1.3 7.9 3.8 18 4.8 19.4 1 1.3 1.4 1.2 3.6-.8 1.3-1.3 2.8-2.3 3.3-2.3s1.9-1.3 3.2-2.9c2.1-2.7 2.2-3.1.9-5.2-.8-1.2-2.5-2.4-3.7-2.8-1.1-.3-1.8-.8-1.5-1.1.3-.4 2 .1 3.7 1 4.4 2.2 6.6.7 8.1-5.5 1.1-4.6 1-5.3-.6-7.2-1.9-2.1-1.9-2.1 1.8-1.4 2.5.5 3.8.3 4.1-.6.2-.7.7-1 1.1-.7.3.3-.3 2.6-1.3 5l-2 4.4 3.6.6c3.7.7 5.8-.2 16.3-6.5 1.9-1.2 5.2-3 7.3-4.1 4.4-2.3 4.6-3.2 1-4.1-1.6-.4-3-1-3.3-1.4-.3-.3-3.3-2.5-6.7-4.8l-6.2-4.2-1.7 3.3c-.9 1.7-2.6 4.9-3.7 6.9-1 2.1-2.1 3.8-2.3 3.8-.5 0 1.1-3.7 3.5-8.5 1.2-2.1 1.9-4.7 1.6-5.6-.3-1-.1-2 .5-2.4.5-.3.7-1.7.4-3.1-.4-1.4-.2-2.4.4-2.4s1.2.8 1.4 1.7c.4 1.8 2-1.3 12.8-24.2 7.4-16 10-22.1 10-24.2 0-1.7-1.4-2.1-14.7-3.5-8.2-.9-15.2-1.3-15.7-1.1-.9.6.2 18 1.5 22.6 1.1 4 4.2 26.7 3.7 27.3-.3.2-1.3-4.4-2.2-10.3-.9-6-2.4-14.6-3.2-19.3s-1.4-10.2-1.4-12.3c0-4.6-1.1-4.8-2.6-.5-.7 1.8-2.4 6.4-3.8 10.3-4.4 11.4-7.6 20.4-10.7 30-1.6 4.9-3.6 10.4-4.4 12-.8 1.7-2.2 5.7-3.2 8.8-.9 3.1-2 5.7-2.4 5.7-1 0-.5-1.4 7.9-25 3.9-10.7 9.2-25.7 11.9-33.3 2.7-7.5 5.2-13.5 5.5-13.2s.8-.1 1.1-.9 0-1.7-.7-1.9c-3.4-1.3-58.6-4.5-59.2-3.5M807 227l-3.5.7 3.5.3c2.8.2 3 .4 1.1.7-1.3.3-2 .8-1.4 1.1.6.4 1.3 2.6 1.5 4.9.6 4.7 3.6 9 12.2 17.1 3.1 2.9 5.6 5.6 5.6 5.9 0 1.5 4.7 5.9 5.9 5.5.8-.3 1.1-.1.8.4s0 1.9.6 3.1c2 3.6 12.9 14.5 13.8 13.6 1.1-1.1 3.7-23.5 4.4-38.7.4-7.1.9-13.5 1.2-14.3.5-1.1-2.9-1.3-20.8-1.2-11.8.1-23 .5-24.9.9"/><path d="M853.6 243c-.5 8.5-1.4 21.3-2.1 28.5-1.3 14.2-1.7 12.7 4 17.3.6.5 3.8 2.3 7.3 4.2 3.4 1.8 6 3.5 5.7 3.8-.2.3-4.4-1.8-9.2-4.6-4.9-2.8-8.9-4.7-9.1-4.2s-1 .6-1.7.3c-2-.7-24.5 10.3-24.5 12.1 0 .7 1.2 2.1 2.6 3.1 1.4.9 2.3 1.9 2 2.3-.3.3-1.6-.4-2.9-1.6s-2.8-2.2-3.5-2.2c-2.4 0-3.5 11.2-1.3 13 .4.3 1.7 2 3 3.7l2.2 3.3h11.8c11.5 0 11.8-.1 13.1-2.4.8-1.6 1-3.9.7-6.3-.5-2.6-.3-3.3.3-2.3.5.8 1 2.9 1 4.7 0 1.7.6 3.8 1.3 4.5 2.8 2.7.8 3.4-8.8 3-5.2-.2-11.5-.1-14 .2l-4.5.7 2.3 4c2.1 3.8 7 8.5 14.4 13.7 6.3 4.4 22.7 7 23.9 3.7.7-1.8-3.2-8.6-8.4-14.5-2.2-2.5-3.9-4.7-3.7-4.8.6-.6 6.1 5.7 10.2 11.5 2 2.9 3.9 5.3 4.3 5.3.7 0 6.1-10.6 8.6-17 .9-2.5 2.3-5.2 3.1-6.1.7-.8 1.3-2.1 1.3-2.8 0-.6.8-2.4 1.7-3.8 1.3-2 1.5-2.7.5-3.1-1-.3-1-.7-.2-1.7s.6-2.6-.9-6.2c-1.1-2.6-3.8-9.5-6-15.3s-6.5-16.9-9.5-24.7c-3.1-7.8-5.6-14.4-5.6-14.7 0-.2-1.5-3.7-3.3-7.8-1.9-4-3.8-8.4-4.4-9.8-.8-1.9-1.2 1-1.7 13M737.4 245.3c-.7 1.2-2.9 5.3-4.9 9.2-6.1 11.4-9.3 17.9-11.5 23.5-1.2 2.9-3 6.5-4.1 7.9-1.3 1.6-1.6 2.7-.9 2.9 2 .7 24.8-11.1 46-23.8.8-.5 4.8-2.5 8.8-4.6 3.9-2 7.2-4.2 7.2-4.9 0-1.4-2.9-2.7-11-4.9-3-.8-10.2-2.9-15.9-4.6-5.8-1.6-10.9-3-11.5-3s-1.6 1-2.2 2.3M956 268.6c-3.5 2.9-6.6 5.6-6.7 6.1-.4 1.1 15.6 13 16.5 12.3.3-.3.7-1.3.7-2.3.2-1.8-3.2-20.8-3.7-21.2-.2-.1-3.2 2.2-6.8 5.1M763 268c0 .5-.9 1-1.9 1-1.1 0-2.6.6-3.3 1.3-1.2 1.2-16.5 9.2-33 17.3-3.8 1.9-6.8 3.8-6.8 4.4 0 1.2 32.9 1.4 34.8.1 1-.6 1.4-3.3 1.4-9 0-4.9.5-8.4 1.2-8.8.6-.4 2.9-.9 5-1 4.8-.3 6.1-1.3 1.8-1.3-1.8 0-3.2-.5-3.2-1.1 0-.5.4-.8.9-.5 1.4.9 6.3-1.2 5.6-2.4-.8-1.3-2.5-1.3-2.5 0"/><path d="M819.4 274.9c.4.6.2 1.1-.3 1.1-1.6 0-1.3 3.7.4 4.3 1.1.5 1.3 1.7.8 5.2-.6 5.1 1.1 10.5 3.3 10.5.8 0 6.3-2.3 12.1-5.1 9.3-4.4 10.4-5.2 8.7-6.2-1-.6-2-1-2.2-.9-.1.1-1.5-.4-3.2-1.3-1.6-.8-3.8-1.5-5-1.5-1.1 0-2-.4-2-.9 0-1.6-4-2.3-5.5-1.1-1.2 1-1.5.9-1.5-.9 0-1.1-.3-2-.7-1.9-.5.1-1.9-.4-3.2-1.1-1.4-.8-2.1-.9-1.7-.2M938 280.6c-10.3 6.3-10.8 6.9-8.6 9.3 1.8 1.9 12.6 8.1 14.3 8.1.8 0 3.3-15.5 3.3-20.4 0-2.3-.7-2.1-9 3M948.7 277.7c-1.1 1.8-1.8 22.3-.9 22.3 1.5 0 16.5-6 18-7.2 2-1.7 1.5-2.5-4-6.2-2.9-1.9-6.8-4.8-8.7-6.5-3.8-3.4-3.8-3.4-4.4-2.4M790 291.4c0 .7.7 1.9 1.5 2.6s1.5 1.7 1.5 2.3c0 .5 2 3.2 4.5 5.8s4.5 5.3 4.5 5.9c0 .5.3.9.8.8 1.8-.4 10.8 1.6 11.5 2.6.9 1.4 3.7-2 3.7-4.5 0-1 .5-2.1 1-2.4.6-.3 1-1.6 1-2.8 0-1.8-1-2.5-5.3-3.9-2.8-.9-9-3-13.7-4.7-9.6-3.4-11-3.7-11-1.7M842.7 345.4c-.3.7-.9 3.4-1.2 6l-.7 4.6h3.4c3.8 0 13.8-2.7 15.3-4.1.5-.5 2.4-.9 4.2-.9 5.7 0 3.6-1.7-3.4-2.8-9-1.4-10.8-1.9-13.2-3.1-2.6-1.5-3.8-1.4-4.4.3M868 383c0 .6-.9 1-2 1-1.7 0-2 .7-2 4.3 0 2.4-.5 4.8-1.2 5.5-.9.9-.9 1.2-.1 1.2 1.1 0 .9 7.3-.3 9.2-.3.4.1 2.4.8 4.4 1 2.9 1 3.7-.1 4.3-1 .7-.8 1.2.8 2.3 1.2.9 4.5 3.7 7.3 6.4 4.4 4.2 5.1 4.5 4.5 2.4-.4-1.4-.7-2.9-.7-3.3 0-.5-.9-.5-2-.2-1.1.4-2 .2-2-.4s.9-1.1 2-1.1 2-.4 2-.9 1.1-1.2 2.5-1.5c1.4-.4 2.5-1.3 2.5-2.1s.8-2.3 1.8-3.3c1.2-1.2 1.8-3.6 1.9-7.7.1-4.4 0-5.3-.7-3.5-.8 2.4-.8 2.4-.9.2-.1-1.2-.5-2.2-1.1-2.2-.5 0-1-.9-1-2s-.7-2.3-1.5-2.6c-.8-.4-1.5-1.4-1.5-2.3 0-2-3.4-5.1-5.6-5.1-1 0-1.4-.6-1.1-1.4s-.1-1.7-.9-2-1.4-.1-1.4.4M903.5 385c.4 1.9 2 7.5 3.6 12.3 1.6 4.9 2.9 9.5 2.9 10.3 0 1.1.5 1.2 1.8.6.9-.5 4.7-1.2 8.3-1.4 9-.7 9.5-1.2 6.1-5.6-1.5-2-4.4-6.2-6.2-9.2-1.9-3-3.8-5.7-4.2-5.8-.5-.2-1.5-1.1-2.4-1.9-1.9-1.9-7.1-2.7-8-1.2-.4.8-.9.7-1.6-.2q-.9-1.35-.3 2.1M964 383.2c-2.5.5-5.2 1.2-6 1.5s-1.9.5-2.4.4c-1.3-.3-.2 6.2 2.4 14.9l2.3 7.5 2.5-5.5c3.9-8.5 7.2-18.4 6.4-19.1-.4-.3-2.7-.2-5.2.3M724.6 389.2l-9.7 6.3 3.8 1.6c2.2.9 5.5 2 7.4 2.3 1.9.4 6.3 1.4 9.7 2.2 3.5.9 6.6 1.4 6.8 1.1.6-.6-2.8-10.1-4.3-11.8-.8-.9-1.3-2-1.2-2.5.2-1.4-1.3-5.4-2-5.4-.4 0-5.1 2.8-10.5 6.2M950 388.9c0 1.1-9.4 10.2-14.1 13.7-2.2 1.6-2.8 2.5-1.8 2.8 2.5.7 17.3 2.6 20.7 2.6 3 0 3.2-.2 2.6-2.8-.4-1.5-.9-3.2-1.3-3.7-.3-.6-.7-1.9-.8-3-.2-1.1-.8-2.2-1.3-2.3-.6-.2-1.3-2.1-1.6-4.3-.4-2.1-1-3.9-1.5-3.9s-.9.4-.9.9M856.5 419.2c-.3 1.8-.8 4.2-1 5.3s-.4 2-.5 2-.3.9-.4 2c-.2 1.1-.9 4-1.6 6.5s-1.5 4.9-1.6 5.5c-.1.5-.7 2.4-1.2 4.1l-1 3 6.2-.7c3.3-.4 10.2-1.1 15.1-1.5 5-.5 7.7-1 6.2-1.2-3.2-.4-3.1-2.5.1-3 1.2-.2 2.2-.8 2.2-1.3s.7-.9 1.5-.9 1.5-.8 1.5-1.8c-.1-2.4-2.4-5.2-4.3-5.2-.9 0-1.9-.9-2.2-2s-1.3-2-2.1-2-1.4-.4-1.4-1c0-.5-2.4-2.8-5.2-5-2.9-2.2-5.8-4.5-6.5-5-2.1-1.7-3.2-1.1-3.8 2.2M841.5 428.7c-4.4 4.8-13.5 14.4-20.2 21.4-6.8 6.9-12.3 13.2-12.3 13.9s4.2 5.2 9.3 10c7.1 6.9 9.5 8.6 10.4 7.7.7-.7 2.5-5 4.2-9.7 5.9-16.9 8.4-23.5 9.2-24.5.4-.6 1.7-4.4 2.9-8.5s2.7-9.1 3.3-11 1-3.9.8-4.4c-.1-.4.4-1.4 1-2.2s.8-1.4.3-1.4-4.5 3.9-8.9 8.7M795.5 476.7c-5.8 5.9-10.4 11.1-10.2 11.5.5 1.6 31.1 15.8 31.7 14.7.4-.5-.7-6.7-2.5-13.7-4.8-18.9-4.7-18.8-3.7-17.7.6.5 1.5 3.5 2.1 6.5 2.4 11.8 6 22.5 7.2 21.3 1.4-1.4 6.9-12.2 6.9-13.5 0-1.6-15.9-17-19.8-19.2-.8-.5-4.9 3.1-11.7 10.1M441 114c-9.6 1.1-23.3 2.4-30.3 3-7.1.5-13.5 1.4-14.4 1.8-1.1.7 2.8 3 14.8 9.1 9 4.5 16.9 8.1 17.6 8.1.6 0 1.3.3 1.5.8.2.4 3.9 2.5 8.3 4.6 4.4 2.2 8.7 4.6 9.7 5.3 1.5 1.4 3.6 2 6.6 2.2.6.1 1.2.8 1.2 1.6s1.1 1.7 2.5 2 3.6.7 5 1c1.5.3 2.5 1.2 2.5 2.2 0 1.6.1 1.6 1.7.1 1.5-1.6 1.8-1.6 3.3.2 1.6 1.9 1.7 1.7 1.2-3.3-.3-2.8-1.2-6.8-2-8.7-1.3-3.1-1.6-3.3-2.3-1.5-.7 1.9-.8 1.9-.8-.2-.1-1.2.4-2.3 1-2.5 1.2-.4.3-5.6-3.4-18.8-1.9-6.7-2.8-8.5-4.3-8.7-1-.1-9.8.7-19.4 1.7M375 124.5c-3.6 1.2-14.4 5.5-24 9.5-9.6 3.9-20.6 8.3-24.3 9.7-3.8 1.4-6.5 2.9-6 3.2 10.8 8.8 13.5 10.3 16.8 9.5 2.1-.5 2.5-.3 2.5 1.8 0 1.8 1.1 2.9 5 4.9l5.1 2.6 3-2.8c1.7-1.6 3.4-2.7 3.8-2.5 1.4.9 2.9-1.1 14.6-18.7 6.8-10.3 11.4-18.2 10.9-18.7s-3.7.1-7.4 1.5M343.5 183.1c-8 7.7-9.1 9.4-7.2 11.3.8.8 2 2.8 2.7 4.5s1.6 3.1 2 3.1 1 1.4 1.4 3c.7 3.6 8.5 20.5 9.1 19.8 1.1-1 .8-45.9-.3-47-.8-.8-3 .7-7.7 5.3M326.5 201.3c-3.3 3.4-7.8 8.5-10 11.1-2.2 2.7-5.4 6.4-7.1 8.2-3.9 4.1-4.1 4 13.1 5.4 7.2.5 16.3 1.3 20.4 1.6l7.3.7-.7-2.4c-1.4-4.5-7.2-16.6-8.4-17.3-.6-.4-2.5-3.6-4.1-7.2-1.7-3.5-3.4-6.4-3.8-6.4s-3.4 2.8-6.7 6.3M434.3 219.3c-2.4.5-4.3 1.4-4.3 1.8 0 .5-1.4.9-3.1.9-2.4 0-3 .4-2.5 1.6s.1 1.4-1.7.8c-1.2-.4-2.5-1.1-2.8-1.6-.7-1.2-1.3.8-3.9 13.1-2.3 10.6-2.5 14.1-.9 14.1.7 0 .9 1 .7 2.5-.5 2.1 0 2.8 3.1 4.2 2 .9 3.9 2.1 4.2 2.5.5.8 32.2 16.9 32.4 16.5.1-.1.9-3.8 1.8-8.2 1-4.4 2.2-9.8 2.8-12 3.4-14.2 5.9-26.1 5.9-28.1 0-1.3.5-2.6 1-2.9 1.7-1 1.1-2.5-1-2.5-1.1 0-2-.5-2-1.1 0-.7-2.9-1-8.2-.8-4.6.1-9.6-.3-11.1-.9-3.2-1.4-4.6-1.4-10.4.1M900.5 534.5c-2.6.7-3.5 1.3-2.5 1.7 1.2.5 1.2.7-.2.7-1 .1-1.8-.5-1.8-1.2 0-.9-.2-.9-.8.1-.5.7-2 1.5-3.5 1.7-1.4.3-3.6.9-4.9 1.4l-2.3 1h2.3c1.3.1 2.1.5 1.7 1.1-.3.5-1.2.7-2 .3-1.3-.4-1.5.9-1.5 8.1 0 10.1-.1 10 9.8 5.7 3.7-1.6 8-3.3 9.5-3.6 2.4-.6 2.7-1.1 2.3-3.4-1.1-5.2-1.6-13.2-.7-12.7.5.3 1.1 3 1.3 6.1.3 3 .8 5.8 1.1 6.2.7.6 7.7-2.7 7.7-3.6 0-.3-2-2.4-4.5-4.8-2.5-2.3-4.5-4.6-4.5-5.1 0-1.2-1.8-1.1-6.5.3M883.2 592.4c-4.6.7-7.7 1.7-8.2 2.6-.8 1.4.6 17.9 1.6 19 .9.9 18.4-20.3 18.4-22.3 0-.9-2.7-.7-11.8.7M855.8 594.8c-3.3.2-5.8.8-5.8 1.4 0 .7-.5.7-1.4-.1s-1.6-.8-2-.2c-.7 1.1 2.9 2.5 4.4 1.6.5-.3 1.4.4 1.9 1.7.8 2.1 13.3 11.8 19 14.8l2.4 1.2-.6-4.8c-.3-2.7-.9-7.5-1.3-10.7l-.6-5.7-5.2.2c-2.8.2-7.7.4-10.8.6M439.5 712.1c-4.9 1-11.2 2.4-14 2.9-8.1 1.7-12.5 3.2-11.9 4.1.3.5 9.3.9 20 .9H453v-3.4c0-4.6-.9-6.6-2.9-6.5-.9 0-5.6.9-10.6 2"/></svg>