<svg xmlns="http://www.w3.org/2000/svg" width="1706.667" height="960" viewBox="0 0 1280 720"><path d="M0 360v360h220.9c209.2 0 221-.1 221.4-1.8.4-1.6.5-1.6.6 0s1.4 1.8 12 1.8c10.5 0 12-.2 12.4-1.8s.5-1.6.6 0c.1 1.7 3.1 1.8 48 1.8h47.8l3.7-4.7c4.2-5.4 4.7-5 1.1.7l-2.5 4h2.5c1.4 0 3.3-.7 4.3-1.5 4.7-4.1 9-7.5 9.6-7.5.3 0 1.6-.9 2.8-1.9 5.4-4.6 6.9-5.9 13.7-11.1 3.9-3 7.1-6 7.1-6.6 0-1 4-2.7 4.7-2.1.6.7-1 4.6-1.8 4.1-.5-.3-.9.4-.9 1.6s-.4 1.8-1 1.5c-1-.6-7.5 2.8-8.2 4.3-.2.4-1.8 1.9-3.6 3.4-1.9 1.6-2.9 2.8-2.4 2.8s1.2 1.1 1.6 2.3c.5 2.2 1.1 2.4 6.8 2.5 3.5 0 6.6-.4 6.9-1 .8-1.2 4.9.7 4.9 2.2 0 .6.7 1 1.6 1 1 0 1.4-.5 1-1.6-.3-.8-.2-1.2.3-.9s1.2.1 1.6-.5c.3-.5.1-1-.4-1-1.6 0-1.3-1.8.3-2.2 1.1-.2.7-1.4-1.5-4.7-4.8-6.9-2.8-6.9 3.1 0 3 3.5 6.1 7.1 7 8 .8.9 2.8 3.2 4.4 5.3 2.8 3.5 5.8 4.6 7.2 2.5.3-.6.1-1.6-.5-2.2s-1-2.2-1-3.6c.1-2.1.2-2.2.6-.6.3 1.1 1.4 3.2 2.5 4.7l1.9 2.8H1280V0H0zM814.9 58.9c-.6.2.7 1.5 2.8 2.9s11.4 9.1 20.7 17.1 19.4 16.6 22.5 19c3.1 2.5 8.7 7.1 12.4 10.3s8.6 7 10.7 8.3c2.2 1.4 4 3.1 4 3.9 0 .7 2.2 4.2 4.8 7.7 2.7 3.5 6.8 9.1 9.3 12.3 2.4 3.3 6.8 9 9.7 12.9 2.9 3.8 5.2 7.1 5 7.3-.4.3-6.8-7.7-19.9-24.9-4.5-5.9-8.4-10.5-8.7-10.3-.6.6 2.6 30.4 5.3 50.6 1.3 9.7 4.5 35.3 5.1 41 .3 3.6.8 6.7.9 6.8.2.2 2-2.9 4-6.9 2-3.9 5.5-10.8 7.9-15.3 9.9-18.4 14.6-27.8 14.6-28.9 0-.7-1.8-3.2-4-5.6s-3.8-4.7-3.5-4.9c.3-.3 1.6.8 3 2.4s2.5 2.5 2.5 2c0-.6.6-.2 1.3.9 1.6 2.1 2.1 1.6 3.7-4.5.7-2.5 1.5-3.9 1.7-3.2.3.7-.3 3.4-1.3 6.1-1.7 4.8-1.5 7.3 1.1 14.6.5 1.5.1 1.4-1.9-.8-1.4-1.5-2.6-2.3-2.6-1.6s-.6 2-1.4 2.8c-1.6 1.9-12.3 21.9-18.5 34.6-2.4 4.9-4.8 9.3-5.4 9.7q-1.2.75.3 1.2c2.1.8 25.2 2.9 32.1 3 5.4.1 5.6.2 4.7 2.2-.7 1.4-.6 2.8.1 4.2.6 1.1 1.1 2.7 1.1 3.4s-.8-.2-1.7-2.1c-1.6-3.2-1.7-3.3-2.5-1.1-.5 1.4-.4 2.8.2 3.5.8.9.6 5.6-.6 15.9-.9 8.1-1.4 15-1.1 15.3.7.6 8.2-5 11.4-8.7 1.9-2.2 2.2-3.4 1.9-9-.7-11.2-1.9-20.5-2.7-21-.4-.3-.4-1.2.1-1.9.9-1.5 1.9 2.8 4.5 18.9 2.2 13.6 2.2 13.5 3.8 18.7 2.2 7 2.6 9.4 1.6 8.7-.5-.3-.9-.1-.9.4 0 2.4 2.4 12.8 3.2 13.9.6.8-.7 1.6-4.4 2.9-8.1 2.6-20.7 8.2-23.1 10.2-1.5 1.1-2.1 2.6-1.9 4.3.3 2.2 1 2.9 4.2 3.7l3.9 1 8.2-8.7c9.2-9.7 9.2-8.3.1 2.4-4.1 4.7-5.6 7.1-4.6 7.3.8.2 1.1.8.8 1.4-.5.7-.2.8.6.3s1.9.1 3.1 1.6c1.7 2.1 1.9 2.2 1.9.5 0-1.8.1-1.8 1.9.2 4 4.6 5.6 2.1 7.4-11.3.3-1.7.4-.4.4 2.8 0 3.1.3 6 .6 6.4.4.3.7.1.7-.5 0-.7.5-1.2 1.1-1.2.7 0 .8.7.4 1.7-1.3 3.2-1.6 9.4-.5 10.8.8 1 .8 1.4-.2 1.7-.8.3-.6.7.5 1.1 1.3.5 1.7.1 1.7-1.4 0-1.1.4-1.8.9-1.4.5.3 1.4-1.8 2-4.7l1-5.3-.3 7.5c-.2 4.1-.7 7.5-1.3 7.7-1 .4-.5 13.4.6 14.5.3.4.3 3.8-.1 7.5-1.2 10.9-.9 26.6.5 27.5.9.6.9.8-.1.8-.9 0-1.1 2-.6 8.4.6 7 .3 9.7-1.4 15.3-1.1 3.7-3 11-4.2 16.2-2.1 9.1-4.3 16.9-7.7 27.9-.9 2.9-2.5 6.3-3.6 7.5s-3.2 4.9-4.8 8.1c-2.9 6-5.6 9.6-7 9.6-.8 0 2.3-6.2 4.3-8.8 1.9-2.2 9.8-18.3 9.8-19.8 0-.8.4-2.2.9-3.2 1.4-2.6 6.1-17.9 6.1-19.9 0-1 .7-3.6 1.4-5.8.8-2.2 1.6-6.1 1.9-8.7s.8-5.1 1.1-5.6c.9-1.4 1.4-17.2.6-17.7s-8.1 14.8-10.5 22.2c-.9 2.9-2.1 5.3-2.6 5.3s-.9.7-.9 1.5c0 2.2-10.3 19-10.8 17.6-.2-.7.3-2 1.1-2.9 2.4-2.8 8.7-15.2 8.7-17.3 0-1.4-.7-1.9-2.7-2-1.6 0-4.1-.3-5.8-.5-1.6-.2-6-.9-9.7-1.4-3.7-.6-7.1-1-7.7-1-1.8 0-2.7 6.1-1.9 12.4.4 3.4 1 9.9 1.3 14.6l.4 8.5-1.4-11c-.9-6.1-1.6-13.9-1.8-17.5l-.3-6.5-4.9.3c-2.8.2-7.7.9-11 1.6-5.6 1.1-6 1.4-6 4-.1 3.4 4 15.7 7.9 23.9 2.3 4.8 2.6 6.2 1.7 9-.5 1.7-1.2 5.2-1.5 7.7s-.5 4.6-.5 4.8c-.1.2-.5.1-.9-.2-.5-.3-.5-3-.2-6.1.4-4.1.3-5.8-.6-6.2-.7-.2-4.3-.1-8.1.4-6.4.8-6.8 1-6.5 3.3.1 1.4-.1 2-.5 1.4-1.4-2-6.8-2.7-8.3-.9-.7.8-1.8 1.5-2.4 1.5-1.1 0-8.2 5.4-13.6 10.5-1.9 1.7-4.1 2.4-8.2 2.6-3.1.2-5.4.1-5.1-.3.2-.5 1.8-.8 3.4-.8q3 0 2.7-1.2c-.6-1.6-17.8-11.8-20-11.8s-3.2-3.9-2.4-9.3c.4-2.3.8-5.4 1.1-7 .7-4.5-.2-3.1-2.6 4-1.2 3.7-3.3 8.9-4.6 11.6-2.1 4.2-6.3 17.1-6.3 19.5 0 .8 15.2-.3 17.6-1.2 3.3-1.3 13.5 4.7 12.7 7.3-.4 1.3-.3 1.3.5.2.6-.9 1.7-1.1 2.8-.6 1.8.7 1.8.7 0 1.4s-1.8.8-.2 1.4c2.7 1.1 3.6.8 3.6-.8 0-.8.4-1.5.9-1.5.4 0 1.1 3 1.4 6.6.6 8.4 2.3 9.7 5.3 4.4 1.2-2.2 2.4-4.7 2.6-5.7.3-1.6.6-1.5 1.7.6 1.1 1.9 1.1 2.5 0 3.2-1 .6-.8.9.8.9s3.6 2.2 8 8.8c5.6 8.5 5.8 8.6 6.4 5.7.4-1.7.8-2.6.9-2 .2.5.8-3.5 1.5-9 1.1-8.8 1.2-9.3 1.3-4 0 3.3-.3 9.9-.6 14.7-.6 7.3-.5 8.9.8 9.3 1 .4 1.1.8.3 1.3-.7.4-1.9 2.1-2.7 3.7-1.4 2.7-1.6 2.8-1.6.7 0-1.2-.4-2.2-1-2.2-.5 0-1 .4-1 .8 0 .5-1.8 1.7-4 2.7s-4 2.1-4 2.5c0 .3-2.8-.7-6.2-2.3-3.5-1.7-7.4-3-8.8-3-2.5 0-18.1 7-23 10.4-5 3.3-6.9 3.3-11.8-.2-2.6-1.7-6.3-4.6-8.2-6.4s-5.7-4.7-8.4-6.6l-4.8-3.4-2.5 3-2.5 3 1.6-3.2c.9-1.8 1.6-3.4 1.6-3.7 0-.8-31-15.6-32.8-15.6-2.3-.1-4.9-2.2-4.9-4 0-.8-1.8-4.8-4.1-8.8-5.2-9.1-4.1-8.7 1.8.7 2.5 3.9 4.9 7.1 5.5 7.1s4.2-3.1 8-7c3.9-3.8 7.4-7 7.9-7 .4 0-2.5 3.4-6.5 7.6-4.1 4.1-7.5 7.9-7.7 8.3-.2.7 31.5 16.1 33.2 16.1.5 0 .6-.8.3-1.8-.2-.9-2.1-7.1-4-13.7-2-6.7-3.8-13.8-4-15.8-.4-3.7-3.5-8.4-4.6-7-1.1 1.5-6.1 5.7-6.1 5.1 0-.3.9-1.5 2-2.8 2.7-3.2 2.5-4.9-.7-5.5-3.1-.6-3.4-.7-22.3-7.1-18.7-6.4-19.4-7.7-1-1.9 4.7 1.4 10.4 2.7 12.8 2.7 3 .1 4.6.7 5.3 1.9.9 1.7 6.5 3.6 7.6 2.5.3-.3-.2-1.7-1.1-3.2-1-1.4-1.5-2.8-1.2-3.1s.8.2 1.2 1.1c.3.9 1.2 1.6 2 1.6s1.4.8 1.5 1.7c0 1.5.2 1.5.9-.2.8-1.8.9-1.8.9-.2.1 1.4.5 1.6 2 .7 3.3-1.7 19.4-18.4 36.1-37.5 2.9-3.3 5.9-6.6 6.8-7.2.9-.7 1.3-1.5 1-1.8s-7.2-1-15.4-1.6-16.8-1.4-19.2-1.9c-2.3-.4-4.5-.4-4.8.1s-.8 5-1.1 9.9c-.3 5-.9 9-1.3 9-.6 0-.4-6.8.4-14.3.1-1.5-.2-2.6-.7-2.4-.6.2-6.3 5.2-12.8 11.3-8.5 7.9-11.7 11.4-11.4 12.8.3 1.3.1 1.6-.7.8-.6-.6-1.6-.9-2.2-.8-.6.2-.8.1-.3-.1.4-.3.7-1.1.7-1.9 0-2.2-9.2-17.5-10.9-18.2-.9-.3-2-1.1-2.6-1.8-1-1.3-20.7-6.4-24.8-6.4-1.3 0-2.7-.4-3.3-.9-.5-.5-7.2-2.5-14.9-4.4-15.6-3.9-17.5-4.6-17.5-5.7 0-.4-1.5-1.7-3.4-2.8-1.8-1.1-8.1-6-14.1-10.8-17.5-14.6-16.6-14.1-24-12-1.1.4-.5-.1 1.3-.9 2.9-1.3 4.5-4.5 2.4-4.5-.9 0-18.1-16.7-21.7-21.1l-2-2.4 2.4 2c1.3 1.1 7.1 6.6 12.9 12.2 5.9 5.7 11 10.3 11.5 10.3s.7-8.5.6-19c-.2-10.4 0-19.3.4-19.6.7-.7 1.1 16.5.9 32.9-.1 7.6-.1 7.9 3.1 10.6 7.5 6.6 27.6 22.1 28.6 22.1 1.5 0 1.4-4.6-.4-16.5-2.2-14.4-3.1-28-1.8-27.2.6.4.9 1.6.6 2.7s-.1 4.8.5 8.2c.6 3.5 1.8 12.3 2.8 19.5 2.1 15.4 2.2 15.5 10.4 9.3 2.9-2.2 5.7-4 6-4 .4 0 1.9-1.2 3.3-2.6 2.2-2.2 2.5-3 1.5-4.8-.6-1.1-1.4-2.3-1.7-2.6-.4-.3-1.7-1.9-3-3.5-1.2-1.7-3.7-4.6-5.4-6.5-1.8-1.9-4.4-5.1-5.9-7-1.4-1.9-4.4-5.4-6.7-7.7s-4.1-4.7-4.1-5.3c0-2-3.1-.9-7.2 2.7l-4.3 3.7 4.3-4.5c2.3-2.5 4.2-4.8 4.2-5.2 0-.3-3.7-3.1-8.3-6-4.6-3-9-6.1-9.8-6.8-2.8-2.8-6.9-4.9-9.3-4.9-1.7 0-2.4-.4-2-1.3.2-.8-.9-2-2.8-3-1.8-1-5.3-2.9-7.8-4.3s-7.9-4.4-12-6.6-7.9-4.5-8.5-5c-1.3-1.4 23.9 11.8 28.5 14.9 3.8 2.5 6 2.9 6 1.2 0-.6.6-.9 1.4-.6.7.3 3-.8 5-2.5s3.9-2.8 4.1-2.6c.3.3-1.5 1.9-4 3.7s-4.5 3.6-4.5 4c0 1 17.2 13.2 21.8 15.5 3.2 1.7 3.5 1.7 5.4-.1 1.6-1.4 2-1.4 1.6-.3-.3.8.2 2 1.1 2.7 1.4 1.1 1.4 1.2-.1 1.3-2.6 0-2.2 1.4 1.6 5.5 1.9 2 5.4 6.2 7.7 9.3 7 9.4 17 20.7 17.5 19.9 0-.1-.2-4-.7-8.7-1.7-19.4-1.8-23-.3-23 1 0 .8-.6-.6-2-2.1-2.1-2.6-4-1.1-4 .5 0 1.4.7 2.1 1.5 1.8 2.1 3.6 1.9 3.6-.5 0-1.8-.7-2-5.6-2.1-4.3 0-5-.2-3.3-.9 1.6-.6 2.1-1.5 1.7-2.7-.4-1.1-.3-1.4.3-.7 1.2 1.7 4.2 1.3 4-.5-.1-2.2 3.6-9.7 4.1-8.3.2.7-.4 2.6-1.2 4.3-.9 1.8-1.6 3.4-1.6 3.6 0 1.2 4.9-1.3 7.4-3.8 1.7-1.6 3.3-2.9 3.7-2.9.5 0 3-2.1 5.6-4.8 2.6-2.6 5.8-5.4 7.1-6.2l2.3-1.5-2.1-4.3c-1.2-2.4-1.9-4.6-1.6-5 .3-.3.6-.1.6.5s1.5 2.7 3.3 4.8l3.2 3.6 4.3-3.1c2.3-1.7 5.1-4.5 6.2-6.3 1.3-2 2-2.6 2-1.5 0 .9-.4 2-1 2.3-.5.3-1 1.5-1 2.6 0 2 .4 2 7.8 1.4 4.2-.4 8.5-1.2 9.5-1.7 1.6-.8 1.5-1.2-.9-5.6-1.5-2.6-3.3-5.6-4-6.7-1.6-2.2-1.8-3.5-.5-3.5.5 0 1.7 1.7 2.8 3.7 1 2.1 3.4 6.2 5.3 9l3.5 5.3h6c4.7 0 6.4-.4 7.7-1.9.8-1 2-2 2.6-2.2s1.2-1.4 1.4-2.7c.3-2.1-.7-2.7-12.7-6.8-15.5-5.4-18.1-6-19.9-4.5-1 .9-1.6.9-2.1.1-1.3-2.2-24.6 3.3-29.4 6.9-3.2 2.4-3.4 2.5-2.3.4.7-1.2.9-2.4.5-2.6-.5-.3-9.1-.6-19.3-.8l-18.5-.4.3 2.5.4 2.5-2.1-2.7c-1.2-1.4-2.1-3-2.1-3.5 0-1.3-3.7-13.3-7-22.8-3.7-10.5-11.4-34.6-11.8-36.5-.2-1.6 1 1.4 6.1 14.5 1.7 4.4 3.2 8.6 3.2 9.5.2 2.4 9.6 30.4 10.5 31.4.5.4 1.1-1.1 1.5-3.5 2.2-16.2 2.4-16.8 1.9-7.9l-.5 8.5 1.8-3c1-1.7 3.2-5.9 4.7-9.5 1.6-3.6 3.7-7.9 4.6-9.5 4.4-7.3 8.1-15.6 7.4-16.6-.3-.6 0-2.2.7-3.6 1.2-2.2 1-3.4-1.5-10.6-3.9-10.8-7.6-18.8-8.5-18.2-.5.2-1.4 5.3-2.1 11.2-1.7 13.9-2.5 10.6-1.1-4.4.6-6.3.9-11.8.6-12.3-.8-1.2-11.7-2.8-25.1-3.6l-12.2-.6.3 2.4c.2 1.4 1.9 7.1 4 12.7 2 5.7 3.5 10.5 3.3 10.7-.6.6-5.8-12.3-5.8-14.4 0-1-.7-2.7-1.5-3.8-.8-1-1.5-2.7-1.5-3.7 0-.9-.4-1.7-1-1.7-.5 0-.7-.6-.4-1.4.6-1.5 1.6-1.3-21-4.7-8.1-1.3-14.3-2.5-13.7-2.7.7-.2 8.4.6 17.2 1.8 8.8 1.3 16.2 2 16.6 1.7.3-.4-.2-3.2-1.2-6.2-2.2-7.1-1.4-8.1 1.7-2 1.3 2.6 2.7 4.8 3.3 4.9.5 0 1.6-2.1 2.3-4.8 1.4-4.8 1.9-5.8 5.5-9.7 1-1.1 3.1-4.8 4.7-8.2s5.4-10.7 8.5-16.2c7.1-12.5 9.8-18.3 9.1-20-.2-.7-4.9-2.3-10.3-3.4-22.2-4.8-38.1-8.4-42.5-9.6-5.3-1.4-6.3-.6-4.3 3.5.7 1.4 1.5 3.8 1.8 5.5.6 2.9.6 2.9-1-.5-3.8-7.9-4.5-10.1-3.9-11.6.3-.8 1-1.3 1.5-1 .4.3 7.1-2.6 14.7-6.4 7.7-3.8 12.8-6.2 11.5-5.1-1.3 1-7.2 4.2-13.2 7.2-6 2.9-10.9 5.6-10.9 5.9s2.6 1.1 5.8 1.8c3.1.7 8.4 1.9 11.7 2.7 19.3 4.6 38 7.9 39.4 7 .9-.5-5.9-21.5-9.6-29.7-2.4-5.3-1.7-5.2-10.5-1.4-2.1.9-3.8 1.4-3.8 1.1 0-.4 2-1.5 4.4-2.5 2.4-1.1 4.9-2.7 5.6-3.5s2-1.5 2.9-1.5c4.3 0 45.3-15.9 46.7-18.1.2-.4-.9-1.5-2.6-2.4-1.6-.8-3-1.8-3-2 0-.3 1.8.4 4 1.5 5.1 2.6 5.6 2.6 15.7-1 4.7-1.7 8.8-2.9 9-2.7s-3 1.7-7.1 3.3-7.5 3.3-7.5 3.9c-.1.8 12.3 6.7 35.9 16.9 2.5 1.1 8.6 3.7 13.5 5.9 11.4 5 19.5 8 20 7.5.7-.7.7-8 .2-25.3-.5-15-.5-15.7.3-5.7.5 6.3 1.1 13.2 1.4 15.5s.5 7 .5 10.3c.1 4.4.5 6.3 1.5 6.7.8.3 14.2 1.5 29.8 2.7 15.6 1.1 31.1 2.4 34.6 2.8 3.4.5 6.2.7 6.2.6 0-.2-17.7-15.3-24-20.4-6.7-5.4-24.9-21.1-30.5-26.2-4.6-4.2-18.7-14.8-19.7-14.8-.4 0-.9 1.2-1.1 2.7-.4 2.7-.4 2.7-.6-.4-.1-3.8-1.6-4.5-5.5-2.6-3.8 2-10.8 4.4-11.3 4-.2-.2 2.4-1.4 5.7-2.6s6-2.6 6-3.1c0-1.9 4.8-1.4 9.2 1 2.6 1.4 4.2 2.7 3.7 2.9m84.6 48.9c5.5 6.8 11.8 14.8 14 17.8s7.3 9.8 11.3 15.1 7.2 10.5 7.2 11.8 1.3 5.6 3 9.6c3.5 8.6 3.5 8.6 1.5 8.6-.8 0-1.4-.5-1.3-1.1.2-.6-.9-4.5-2.4-8.6-1.4-4.1-2.9-8.6-3.2-10-.6-2.8-6.6-11.1-14.4-19.9-1.3-1.4-2.2-2.2-1.9-1.6 1.2 2.8 8.8 27.7 8.5 28.1-.2.2-2.1-4.9-4.2-11.4-5.3-16.6-6.7-20.2-7.7-19.6-.5.3-.9-.2-.9-1.1s.5-1.3 1-1c1.8 1.1 1-1.4-.9-2.7-2.1-1.5-9.2-10-13.8-16.8-1.8-2.5-4.3-5.8-5.7-7.4-2.6-2.9-3.7-5.9-1.3-3.4.7.7 5.8 6.8 11.2 13.6m-506.9-.8c-2.5 2.3-4.3 4.6-4 5.1s-.2.9-1 .9c-1.5 0-5.6 3.7-5.6 5 0 .4 2.6.3 5.8-.1 5.1-.7 22.7-2.4 35.7-3.4 9.9-.7 26.5-2.6 27.8-3.1 1.1-.4 3.8 1.3 9.1 5.9 1.5 1.3 1.2 1.3-1.1-.2-3.8-2.6-5.6-2.7-4.9-.4.3 1 1.3 5.2 2.2 9.3s2 7.9 2.3 8.5c1.1 1.5 2.9 8.3 3.7 14 1.3 9.7 3.6 11.8 8.2 7.5 1.2-1.1 2.5-2 3-2 1.5 0 3.3 2.6 3.5 5 .1 1.8.6 2.1 3.4 1.8 1.8-.2 2.9 0 2.5.4-.7.7-6.4 2-14.2 3.2-3 .4-2.9 1.4 1.2 11.6 5.2 12.7 12.6 31.8 18.9 48.3 3.3 8.7 6.6 17.2 7.4 18.7.8 1.6 1.5 3.3 1.5 3.7-.1 1.7-4.3-7.3-9.6-20.5-3-7.5-6.1-15.1-6.9-16.7-.7-1.7-2.3-5.2-3.5-7.9-2.1-4.8-2.2-4.9-3.4-2.5-.8 1.7-1.9 2.3-3.5 2.1-1.3-.2-2.7.2-3.2 1-.5.7-1.2 1.3-1.6 1.4-.4 0-2 .6-3.5 1.4-2.3 1.1-2.8 2-2.8 4.8 0 3.2 1.6 5.1 18.2 21.8 10 10 18.5 18.1 18.9 17.8.4-.2.9.3 1.3 1.1.3.8 1.5 1.5 2.8 1.5 5.2 0-1.4 3.1-34.2 16.1-6.9 2.7-15.2 6.3-18.5 7.9-3.3 1.7-6.9 3.1-8 3.1-1.1-.1-4.7 1.1-8 2.5-3.3 1.3-8.7 3.4-12 4.6-3.3 1.1-6.4 2.4-7 2.8-1.5 1.1-5.6 1.9-5 1 .8-1.2 6.5-3.7 18.5-8 6.2-2.2 11.5-4.1 11.7-4.4.5-.5-19.8-11.6-24.2-13.2-1.6-.6-5.1-2.1-7.7-3.3-6.6-3-7.2-2.7-4.2 2 1.4 2.2 2.3 4.3 2.1 4.6-.3.2-1.9-2.1-3.7-5.1-2.8-5-4.9-7-5-4.9-.1.5-2.1 3-4.6 5.8l-4.6 5 4.2-5.7c2.3-3.2 4-6.3 3.7-7s-5.8-3.5-12.4-6.3c-6.5-2.7-16.1-6.9-21.3-9.3-8.6-4-16.5-7.2-17.7-7.2-.2 0-.2 6.9.1 15.2.5 15.1.2 13.9-1.8-7.7-.6-6.9-1.4-9.5-2.8-9.5-.7 0-.6-.5.1-1.4.6-.7.9-2.1.5-3-.4-1.1-.2-1.5.7-1.1 1.2.4 1.5-3.7 1.7-22.9.2-16-.1-23.6-.8-24.1-1.2-.7-8.1 6.1-10.8 10.7-.9 1.5-2.2 2.8-2.9 2.8-1.6 0-1.7 2.6-.2 3.6.6.3 1.6.1 2.2-.5 1.8-1.8 3.7-1.3 3.7.9 0 1.3-.7 2-2 2-2.2 0-2.6 2-1 4.9.5 1 1.1 2.9 1.4 4.2.2 1.3.7 3.3 1.1 4.4.6 1.6.3 1.5-1.4-.5-1.1-1.4-2.1-3.4-2.2-4.5 0-1.1-.3-1.5-.5-.8-.6 1.5-5.4-.4-5.4-2.1 0-1.6 2-4.4 2-2.9 0 .7.4 1.3.9 1.3s.4-1.6-.2-3.7l-1.1-3.6-7.9 8.4c-4.4 4.6-9.7 10.7-11.8 13.6-3.8 5.1-7.1 8.2-5.3 5 .9-1.6 10.1-12.7 16.9-20.6 7.2-8.2 6.9-7.1 3.7-15.8-1.6-4.3-4.2-11.9-5.6-16.8-1.5-5-3.4-11-4.4-13.5l-1.6-4.5-1.3 5.5-1.2 5.5.4-5 .5-4.9-3.7 3.4-3.7 3.5 3.7-4.6c2.2-2.8 3.7-5.8 3.8-7.5 0-1.6.3-2.3.6-1.7.5 1.5 3.3 1.8 3.3.4 0-.5.7-1.7 1.6-2.5.8-.9 4-4.6 7-8.2 2.9-3.7 5.4-6.3 5.4-5.9s-3 4.3-6.6 8.7c-4.8 5.8-6 7.8-4.5 7.4 1.1-.3 3.1-.9 4.4-1.2 1.2-.4 7.4-2.9 13.7-5.6 6.3-2.8 15-6.3 19.4-7.9 4.3-1.6 11.9-4.8 16.8-7.1l9-4.2-2.4-1.9c-2-1.6-2-1.8-.3-1.2 5.2 1.9 6 1.6 14-5.9 4.4-4 8.1-7.2 8.3-7.1.2.2-1.7 2.2-4.2 4.5m649.5 156c1.6 8.5 3.6 18.2 4.4 21.5 4.8 20.5 5.7 24.6 5.2 25.1-.3.3-.8-.9-1.2-2.6s-1.2-4.2-1.9-5.5l-1.2-2.3-4.5 3.5c-2.4 2-8 6.3-12.4 9.5-4.4 3.3-8.8 7.4-9.8 9.2-1.2 2.1-1.6 2.4-1.2.8q1.05-3.75-2.4-.9c-2.1 1.8-16.3 9.8-16.7 9.5-.1-.2 4-2.9 9.2-6.1s9.4-6.4 9.4-7.1c0-.8-1.4-4.4-3-8.2-1.7-3.7-2.9-6.9-2.7-7.1.3-.2 1.7 2.6 3.2 6.2s3.1 6.5 3.5 6.5.6-3.3.5-7.3c-.2-7.1-.2-7.1.4-1.2l.6 6 2.6-8.5c1.5-4.7 3.2-10.7 3.9-13.3s1.5-4.6 1.7-4.3c.4.4-5.8 24.1-7.4 28.3-.9 2.3 2.5.3 13.9-8.4 11.4-8.8 12.3-9.7 11.2-12-.4-1-.8-2.7-.9-3.8-.3-4.5-4.7-21.5-5.7-22.1-.6-.4-1.4 0-1.9.7-.6.9-.9 1-.9.2 0-.6.5-1.5 1-1.8.6-.4.8-2.1.5-3.8-.3-1.8-.7-5.7-.9-8.8-.2-3-.7-8.2-1-11.5l-.5-5.9 1 5c.6 2.7 2.4 12 4 20.5m-476.3 47.1c1.3.5 2.6 1.8 2.9 2.8.3 1.1 1.8 2.5 3.5 3.2 3.3 1.3 8.3 8.3 7.2 10.1-.5.7-.3.8.5.4.9-.6 1.1.1.6 2.8-.6 2.9-.4 3.6.8 3.6.9 0 2.1-.8 2.6-1.8.7-1.1 1.1-1.2 1.1-.4 0 1.7-2.9 4.7-3.7 3.8-.3-.3-1.2-.1-1.9.5-.9.7-1.9.7-3.2 0-1.1-.6-2.2-.7-2.6-.4-.3.3-.6-.1-.6-1s-1.1-2.8-2.5-4.3c-2.6-2.8-3.3-5.4-1.4-5.4 1.7 0 .6-6.4-1.3-7.8-.9-.7-1.5-1.9-1.2-2.7.4-1-.3-1.6-2.3-2-1.5-.4-4.6-1.3-6.8-2.1l-4-1.4 4.9.6c2.7.3 6 1 7.4 1.5m-261.3 14.1c3.2 5.1 6.9 10.7 8.4 12.5 1.4 1.7 3.3 4.2 4.2 5.5l1.6 2.3 4.2-3.8c5.7-5.2 6.4-4.6 1.1.8-4.2 4.3-4.4 4.7-3.3 7.6 1 2.6 1 3-.3 2.5-.8-.3-1.4.1-1.4 1 0 1.9-5 11.8-5.6 11.1-.3-.3.5-2.4 1.7-4.8 3.4-6.8 4-9.8 2.5-12.8-1.5-2.8-6.6-7.6-6.6-6.2 0 .5-2.2.7-4.9.5l-4.9-.3.1 7.2.2 7.2 2.9-.2c2.5-.2 2.7.1 2.1 2-1.8 6-2.2 8.8-1.4 9.3 1.5.9 1 2.7-.6 2-1.3-.4-1.5.8-1.5 8.1 0 7.5-.2 8.4-1.5 7.3-1.1-.9-1.2-1.6-.5-2.6 1.5-1.7.2-8.4-1.6-8.4-2 0-2.3 1.1-1.5 5.7.6 3.2.5 4.3-.6 4.7-2.1.9-3 .7-1.5-.2.9-.6 1-2.1.2-6.3-.6-3-.8-8-.4-11.2.3-3.1.2-5.7-.3-5.7-.4 0-.9 1.2-.9 2.7-.5 9.4-.9 10.8-3.4 10.8-2.1 0-2.6.6-3.1 3.8-.4 2.8-.2 4 .7 4.4.8.3 1.4 1.9 1.4 3.5v3l-2-2.3-2-2.4-.6 2.2c-.8 3-2.4 1.9-2.4-1.7 0-2.2-.6-2.9-2.6-3.4l-2.6-.7.5-13.5c.3-7.5.8-13.8 1.1-14.1.3-.4.7 0 .7.8.1.8.3 2.1.4 2.9s.3 2.5.4 3.7c0 1.3.4 2.3.9 2.3.4 0 .6-1.8.4-4-.4-3.6-.2-4 1.9-4 4 0 5.2 1.4 4.5 5.2-.3 1.9-.1 4.9.5 6.8 1.1 3.1 1.3 3.2 2.6 1.5 1.6-2.3 1.7-6.7.1-8.3-.9-.9-.7-1.3.5-1.8 1.9-.7 2.3-3.9.7-4.9-.5-.3-1 .3-1 1.4 0 2.9-1.9 2.6-3-.5-.8-2-1.5-2.5-3.1-2.1-1.4.4-1.9.2-1.6-.8.6-1.3-.4-3-5.2-9.5-1.4-1.9-2.6-3.9-2.7-4.5 0-.5-.2-1.7-.2-2.6-.2-1.6-6.9-9.4-8.2-9.4-.5 0-1.2-.4-1.7-.9s.2-.6 1.6-.3 2.9 0 3.8-.9c.8-.8 2.5-1.4 3.7-1.4 2.6 0 5 2.2 3.8 3.5-.4.4.3.4 1.5.1 2.3-.7 13.3 4.7 13.3 6.5 0 .5.7.9 1.5.9s1.5.4 1.5.9 1.2 1.4 2.8 1.9c2.4.9 2.5 1.1.5 1.1-2.2.1-5.5 4.1-3.3 4.1.5 0 1-.5 1-1.1 0-.5.5-.7 1-.4 1.5.9 5.1-.5 4.4-1.7-.5-.8.3-.9 2.4-.5 1.8.4 3.2.3 3.2-.1s-1.6-3.3-3.5-6.6c-4.2-6.9-7.7-13.6-7.1-13.6.2 0 3 4.2 6.1 9.2m740.3 17.9c-.6 1.9-1.2 8.2-1.2 14-.1 8.6-.4 10.9-1.8 12.3-1.8 1.8-2.2 3.4-1.8 7.1.3 2.8 7.1 20.4 14.2 36.9 7 16.4 8.2 19.4 7 18.1-.5-.6-4.8-10.2-9.7-21.5-4.8-11.3-9.6-22.3-10.6-24.4-1.1-2.2-1.9-4.7-2-5.5 0-.9-.6.5-1.3 3-1.3 4.4-1 9 .9 19.3.5 2.5.4 3.7-.2 3.3s-1.3-2.8-1.7-5.5c-.6-5-2.9-9.3-4.2-8-.4.4-.1 3.5.6 6.8s1 6.3.6 6.7c-.3.3-.6-.2-.6-1.2 0-2.6-3.1-13.5-3.9-13.5-.3 0-2.2 2.3-4.1 5.1l-3.4 5.1 2.4 2c2.2 1.7 2.2 1.8.3.9-1.2-.6-2.8-1.1-3.6-1.1s-5-3.5-9.3-7.7c-5.3-5.1-6.2-6.4-2.9-3.6 2.8 2.2 6.3 4.8 7.8 5.8l2.8 1.8-.5-4.4-.5-4.4 1.2 4.8c1.4 5.3 1.5 5.3 6.9-2.9l2.6-4.1-2.5-4.4-2.5-4.4 2.9 3.5c3.9 4.8 6.1 7 7.2 7 .4 0 1.1-2.6 1.4-5.7.6-5.7-.6-9.9-2.4-8.7-.7.4-.7 1 0 1.7.6.6 1.1 1.7 1.1 2.5 0 .9-.8.5-2-1.1-1.1-1.4-2-3.2-2-4.1s-.6-1.6-1.4-1.6c-1.5 0-2.6-2-2.6-4.8-.1-2-3.4-6.2-4.9-6.2-1.4 0-1.4-1.7-.1-2.5 3.2-2-.7-3.2-5.8-1.9-2.5.7-2.3 3.3.7 6.9l1.6 2-2.4-2c-2.4-2-2.4-2-1.7 0 .4 1 .9 4 1.1 6.5l.4 4.5-1.4-5.5c-.8-3-1.3-6.3-1.1-7.2.8-3.3-1.5-3.1-5.2.4-2.1 1.9-6.3 5.6-9.4 8.2-3.7 3-5.8 5.5-5.8 6.8 0 2-.1 2-2 .3s-1.8-4.1.1-3c.8.6 9.3-6.4 18.1-14.8l2.9-2.8-2.3-1.9-2.3-2 3.9 1.6c3.5 1.4 4.3 1.4 9.5-.1 3.1-1 6.2-1.9 6.9-2.1.6-.2 1.2-1.3 1.2-2.4 0-2.2 1.5-2.7 2.3-.8.3.8.6.6.6-.5.1-.9.5-1.7 1.1-1.7.5 0 1.2-1.1 1.6-2.4.6-2.6 4.4-6.7 4.4-4.8 0 .6-.4 1.4-1 1.7-.5.3-1 1.5-1 2.7 0 1.4.5 1.8 1.6 1.4.9-.3 2.1-.6 2.8-.6s2.1-1.6 3.1-3.5c2.3-4.2 2.8-4 1.3.6m-500.2 42.5 2.7 4.7 2-2.7c1-1.4 2.5-2.6 3.3-2.6s1.4-.9 1.4-2 .5-2 1-2c.6 0 1 .7 1 1.6 0 1.1.6 1.5 2 1.1s2.4.2 3.2 1.6c.6 1.2 2 2.9 3.2 3.9 2.1 1.7 2.1 1.7.1 1.8-1.2 0-2.6.5-3.3 1.2s-1.2.8-1.2.4c0-.5-.7-.3-1.5.4-2.2 1.8-1.8 4.5.8 6.4 2.2 1.6 2.2 1.6 0 .6-1.2-.5-3.1-1-4.2-1-2.6 0-14.1-13.7-14.1-17 0-1.9.9-1 3.6 3.6m37.4 15.6c-2.4 2.6-2.5 3.4-.5 4.2.9.3 1.5 0 1.5-.9 0-.8.6-1.2 1.3-.9 1.6.6 1.7 4.5.2 5.6-.6.4-.2.8.8.8.9 0 1.7-.5 1.7-1.1 0-.5.4-.8.9-.5.5.4.7-.4.5-1.6-.5-2.2-.4-2.2.8-.4 1.8 2.6 4.3 5.3 5.5 5.7 2.6 1 2.2 4.6-.7 7.9-2.4 2.7-2.8 2.9-1.9 1 .7-1.3 1.8-3.1 2.6-3.8.7-.8 1.1-1.7.8-2.2-.5-.8-10.2 1.2-16.9 3.5-5.5 2-6.5 1.9-5.9-.5.5-1.9-2.9-8.5-4.4-8.5-.4 0-.7-.9-.5-2s.3-2.9.4-4c0-1.5.7-2 2.9-2 1.5 0 3.3.5 3.9 1.1.9.9 1.8.5 3.5-1.2 3.2-3.2 6.5-3.4 3.5-.2m363.9 64.4c-.6 3.2-1.6 7-2.3 8.4s-1.6 3.8-2 5.3c-.4 1.7-1.1 2.5-1.8 2.1-.7-.5-.9-.2-.5.9.3.9-1.9 9.4-4.9 18.9-8.3 25.6-14.5 42.8-13.8 38.3.3-2.2 1.9-7.8 3.6-12.5 1.6-4.7 4-12.4 5.3-17.1 1.2-4.7 2.7-9.5 3.3-10.6s.9-2.3.6-2.5c-.3-.3.8-3.1 2.3-6.2 2.3-4.8 2.5-5.8 1.3-6.6-.8-.5-1.8-.6-2.2-.4-.4.3-.8 0-.8-.5 0-.6.6-1.1 1.3-1.1.8 0 2-1.8 2.7-4s2.1-4.2 3.2-4.5c1-.4 1.8-1.1 1.8-1.6 0-.6-.6-.7-1.2-.3-1 .6-1 .4-.2-.7.6-.8 1.9-3.8 2.9-6.7.9-2.9 1.9-5.2 2.1-4.9.2.2-.1 3-.7 6.3m-166.3 57.9c1.4 3 2.8 5.5 3.1 5.5s2.1-1.7 4-3.8l3.4-3.7-2.6 3.7c-1.5 2-2.4 4.2-2 4.8.5.8 4.7 1 13.9.7 11-.5 11.8-.4 5.2.3-8.3 1-11.2 2-5.5 2 1.9 0 5 .4 6.9 1 1.9.5 14.9 1.6 28.7 2.4 25.2 1.5 30.7 1.2 32.5-1.6.5-.9.8-.8.8.6 0 1.7.2 1.7 2.2.4 2-1.4 2.5-1.4 4.8.1 1.3.9 2.1 1.1 1.7.4q-.75-1.05 4.5-1.8c2.9-.4 5.8-1.2 6.5-1.7 2.3-1.9 3 .2 2.6 7.9-.5 10 .3 11.2 5.1 8.1 2.5-1.5 3.5-2.9 3.2-4.1-.5-2 .1-2.1 3.3-.3 1.9 1.1 2.1 1.4.7 1.9-.9.4-1.7 1.9-1.7 3.4-.2 2.4-.2 2.5-.6.5-.6-2.9-1.6-2.8-5.5.7-1.8 1.5-5.1 3.1-7.2 3.5-3.8.7-17.4 5.7-20.8 7.6-.9.5-1.8.6-2 .2s-6.4-1.8-13.8-3.1-17.5-3.4-22.5-4.7c-10.8-2.9-11.2-2.9-11.8-.7-.4 1.4-.5 1.2-.6-.5-.1-2.3-1.5-3-2.6-1.2-.3.5-1.1 1-1.8 1-.6 0-.3-.6.7-1.3 1.6-1.2.8-1.9-7.6-6.9-9.9-5.9-20.4-11.1-22.5-11.1-1.4 0-2.6-2.4-1.8-3.7.3-.4-.6-3.3-2-6.4s-2.2-5.6-1.9-5.6 1.6 2.5 3 5.5m-16.9 46.6c.8.8 2.9.8 7.8 0 3.7-.7 7-1 7.2-.7.6.5-1.5 1-8 2.1-4.2.7-4.2 2 0 2.8 1.6.3 6.2 2.1 10.3 4.1 15.3 7.1 36 15 36 13.7 0-.4-.6-1.3-1.2-2.1-.7-.8.1-.3 1.8 1.3 3.4 3.1 5.6 3.5 4.7.9-.5-1.4-.3-1.5.8-.5 1.7 1.7 3.8 1.6 5.8 0 1.8-1.5 7.1-3.9 7.1-3.2 0 .2-1.8 1.4-4 2.6-2.1 1.2-3.7 2.6-3.5 3 .3.4 3.8.6 7.8.4 3.9-.2 10.6-.4 14.7-.5s12.4-.7 18.3-1.3c10.6-1 11-1.1 15-4.9 2.3-2.1 4.5-3.8 4.9-3.8s.8-.9.8-2c0-1.4.5-1.8 1.6-1.3.9.3 1.9.2 2.3-.4.3-.5 2.6-2.7 5.1-4.9 5.6-4.8 3.2-1.4-3 4.3-6.7 6.3-13 12.7-13 13.5 0 .3-1.5 2.1-3.2 4-1.8 1.8-7 7.8-11.6 13.2-8.4 10-10.5 11.7-26.4 20.4-12 6.5-10.4 5 2.8-2.9 6.5-3.9 12.1-7.3 12.4-7.5.2-.3-.2-.9-1-1.4-.8-.4-2.8-1.8-4.5-3-5.4-3.8-25.9-17.1-28-18.1-1.1-.5-2.7-1.3-3.5-1.9-.8-.5-5.3-2.5-10-4.4-11.9-4.8-24.1-9.8-33.5-13.6-4.4-1.8-9.1-3.7-10.5-4.3s-3-1-3.7-.8c-.7.1-1.7-.8-2.3-1.9-.9-1.7-.8-2 .8-2 1 0 2.3.5 2.9 1.1M459 589.2c0 1.7-.3 1.9-1.2 1-.8-.8-2.1-.3-5.2 2.1-2.3 1.7-4.3 3.4-4.6 3.7s-5.1 4.1-10.7 8.5c-5.7 4.3-10.3 8.1-10.3 8.4.1.8 6.6 5.2 12.3 8.1 2.6 1.4 4.2 2.7 3.6 2.9-.5.1-3.8-1.4-7.2-3.5-3.4-2-6.6-3.9-7.1-4.2-1.1-.6.1 8.6 2.1 15.8.8 3 1.6 6.6 1.8 8 1.5 11 4.1 22.3 5.2 22.7.7.3 3.3-1.2 5.8-3.2 2.5-2.1 4.5-3.3 4.5-2.8s-1.8 2.4-4 4.2c-2.2 1.7-4 3.8-4 4.6 0 .7-.5 1.5-1.2 1.7-.8.3-.7 1.9.6 5.9 1 3 2 6.4 2.2 7.6s.9 3.4 1.4 4.8c1.4 3.8 1.2 5.5-.6 5.5-1.2 0-1.5.7-1 2.7l.5 2.8-1.2-2.7c-1.5-3.3-4.5-5.7-6.9-5.8-1 0-1.8-.4-1.8-.9 0-.6-4.8-3.5-10.7-6.5-9.9-5-15.3-7.9-21.1-11.4-1.9-1.1-2.2-1-2.2.3 0 .8-.4 1.5-1 1.5-.5 0-1-.7-1-1.5 0-2-.9-1.9-3.3.3-2.3 1.9-1.6.1 1.1-3.1 1.4-1.6 1.3-2-.6-4.7-1.2-1.6-2.2-3.1-2.2-3.4 0-.2-1.6-2.8-3.5-5.6-3.6-5.3-3.9-8.5-.4-4.2 1 1.3 2.3 2.1 2.9 1.7.6-.3 1 .4 1.1 1.7.1 2.3.1 2.3.9-.2.6-2 .8-2.1.9-.5.1 1.4.4 1.6 1.2.8 1.5-1.5.3-3.3-2.2-3.3-1.1 0-2.9-.9-4.1-2-2.7-2.5-5.8-2.6-5.9-.3 0 1-.5.5-.9-1.1-1.1-3.6-.3-5.1 1.7-3.4 1.5 1.2 9.3 3.7 12 3.8.6 0 1.4-.8 1.6-1.8.3-1 .5-.6.6 1.1s.8 3 1.9 3.3c.9.3 2.4.9 3.3 1.4 1.3.7 2.8-1.2 7.6-9.8 13-22.9 14.4-25.9 13.1-26.9-3.3-2.7-32.1-16.4-33.4-15.9-.8.3-1.4-.1-1.4-1s-.8-1.8-1.9-2.1c-1.3-.3-1.7-1.1-1.4-2.4.5-1.9.6-1.9 2 .1.8 1.1 2.1 2 2.9 2s1.4.4 1.4.8c0 1.2 31 16.5 31.8 15.8.3-.4 0-2.9-.7-5.7-1.9-7.1-.8-7.1 1.4.1 1 3.3 2.1 6 2.4 6s5.3-3.7 11.1-8.1 12.4-9.4 14.8-11.1c2.3-1.8 4.2-3.5 4.2-4 0-.4.7-.8 1.5-.8.9 0 1.5.9 1.5 2.2m744 85.1c0 .7.9 2 2 3 1.1.9 2 2.7 2.1 3.9 0 1.3.9 4.1 2 6.3 1.8 3.8 1.9 3.8 1.5 1-.1-1.7-.1-2.4.1-1.8.9 2.7 2 1 4.3-6.2 1.8-5.7 2.8-7.5 4.2-7.5 1.6 0 1.4.9-1.6 9.2-1.8 5.1-3.6 10.9-4 12.9-.6 3.1-.9 3.6-3 3.2-1.9-.4-2.9-1.8-4.6-6.6-1.2-3.4-3.3-9-4.6-12.5-2.2-6-2.3-6.2-.4-6.2 1.1 0 2 .6 2 1.3m24.1 6.6c2.1-1.1 7.9-.3 7.9 1.1 0 .5 1 1.2 2.3 1.6 1.2.3 2.9 1.3 3.8 2 1.3 1.2 1.8 1 3.7-1.5 3-4.1 7.2-4.8 12.5-2.1s8.7 5.9 8.7 7.9c0 1.4-.1 1.4-1 .1-.8-1.3-1-1.2-1.1.5-.1 1.6-.2 1.6-.6.3-.2-.9-1-1.9-1.8-2.2-.9-.3-1.2 0-.9.8.7 1.8-1.4 6.8-2.6 6.1-.6-.4-.9-.2-.8.3.2.5-.8 1.9-2 3l-2.4 2.1 3.4-.3c1.8-.2 2.3-.1 1 .1-1.2.2-2 .9-1.6 1.5.3.5-.8.2-2.5-.6-1.7-.9-3.7-2.5-4.4-3.6-.6-1.1-1.7-2-2.4-2s-1.3-.4-1.3-.9c0-1.5-2.7-2-5.7-1.1-1.5.4-2.3.9-1.8.9.6.1-.3 1-2 2.1-2.4 1.5-2.6 2-1.3 2.5.9.4 2.7.1 4-.5 2.2-1.1 2.2-1.1.3.5-1.3 1-3 1.4-4.8 1.1-1.9-.4-2.6-.2-2.1.5 1.1 1.9-3.4-.9-4.8-3-.7-1-1.7-1.8-2.3-1.7-.5 0-1.4-.9-2-2.2-1.1-2.4-2.5-2.9-2.6-1 0 .7-.5.2-1-1.1s-.7-2.6-.4-2.9.5.1.6.9c0 .8.7-.3 1.4-2.4.8-2.1 1.2-4.5.9-5.5-.5-1.4-.4-1.5.5-.2s1.2 1.1 1.8-1c.6-1.9.8-2.1 1.1-.8.3 1.5.7 1.6 2.3.7m-777.4 12c2.7 4.4 14.5 17.1 15.9 17.1.8 0 1.4 1 1.4 2.4v2.3l-3.7-1.8c-2.1-1-8.3-2.3-13.8-3-9.5-1.2-10.7-1.1-24 1.5-7.7 1.5-17.3 3.5-21.3 4.5s-7.5 1.4-7.8 1c-.6-1 1.4-2.2 4-2.5 2.8-.2 38.8-7.3 40.2-7.8.6-.2 3.5.2 6.5.8 3 .7 7.6 1.6 10.3 2l4.9.8-5.4-6.4c-3-3.5-5.7-6.5-6.2-6.6-1.1-.6-3.9-6.2-3-6.2.5 0 1.4.9 2 1.9"/><path d="M724.5 84.9c-2.7 1-10.2 3.8-16.5 6.3s-13.9 5.3-16.7 6.2c-2.9 1-5.5 2.1-5.8 2.6-.3.4.6 3.3 2 6.4s2.5 6.1 2.5 6.7c0 1.2 7 16.9 8.3 18.7 1.3 1.7 3 .1 5.2-4.6 1-2 4.1-7.3 7-11.7s6.6-10.3 8.4-13c3.9-6.3 5.2-8.2 7.2-10.9 2.4-3.2 5.1-8.6 4.2-8.6-.5.1-3 .9-5.8 1.9M740.6 89.7c6.3 11.8 11.4 20.7 12.8 22.5 1 1.4 2.9 1.8 8.7 1.8 15.7 0 41.9-1.4 41.9-2.2 0-.4-.5-.8-1.1-.8-1.1 0-17.4-6.8-30.9-13-4.7-2.1-10.5-4.7-13-5.8s-8-3.6-12.4-5.6c-4.3-2-8.2-3.6-8.7-3.6s.7 3 2.7 6.7M730.3 88.4c-1.6 2.4-6.1 9.5-10.1 15.7-8.1 12.5-18.1 29.2-17.7 29.7.1.2 1.8-.4 3.6-1.2 1.9-.8 8.6-3.3 14.9-5.6 6.3-2.4 13.5-5.3 16-6.6 2.5-1.2 6.6-3 9.2-4 5.9-2.1 5.9-2.6-1-14.9C736.1 85 735.5 84 734.3 84c-.7 0-2.5 2-4 4.4M829 117.9c0 .6.4 1.1 1 1.1.5 0 .7 1.3.4 3-.4 1.9-.2 3 .5 3s1.1 2.6 1.2 7.2c.1 4 .3 6.5.6 5.5.3-1.2 1.5-1.7 3.9-1.7 2.7 0 3.4-.4 3.4-2 0-1.7.7-2 4-2s4 .3 4 2c0 1.3.7 2 2 2 1.1 0 2 .3 2 .6 0 1-2.8 3.4-4 3.4-.6 0-.8.5-.5 1.1.4.6 2.3.9 4.4.7 3.3-.3 3.6-.1 4.1 2.7.4 2.7.9 3.1 4.3 3.3 2.2.2 3.7-.1 3.7-.7 0-2 1.8-1.1 2.3 1.1l.6 2.2 2.4-2.2c1.3-1.2 2.8-2.2 3.4-2.2s1.4-.7 1.7-1.6c.4-1.2.1-1.4-1.4-.9-1.7.5-2 .2-2-2.5 0-4.5 1.5-6.8 4.2-6.4 3.6.6 5.9-2 7.3-8 1.6-6.7 2.5-6.2-14-7.1-6.6-.4-12.4-.9-12.9-1.3-.5-.3-.6.1-.1.7.6 1 .3 1.1-1.6.1-3.1-1.7-24.9-2.7-24.9-1.1M883.1 138.5c-.1 1.1-1 4.8-2 8.2-1.6 5.3-1.7 6.3-.4 7.6 1.3 1.2 1.3 1.5-.1 2-.9.4-1.6.1-1.6-.6-.1-.7-.9 1-2 3.6-1 2.7-1.6 5.5-1.3 6.3s.1 1.4-.4 1.4-.9.8-1 1.7c-.1 1-1.1 5.4-2.2 9.8-1.2 4.4-1.9 8.6-1.6 9.3s.1 1.1-.4.8c-1.1-.7-3.5 7.9-2.7 9.9.3.9.2 1.3-.4 1s-1-.2-1 .3c0 1.1 5 5.7 8 7.2 2.2 1.2 16.9 11.7 18 12.9.3.3 1.5 1.5 2.8 2.5l2.2 2-.6-7.5c-.6-7.4-3.1-28.7-3.8-32.4-.2-1.1-.7-4.7-1-8-.4-3.3-1.3-10.5-2.1-16s-1.8-13.1-2.1-16.9c-.5-5.7-.8-6.6-1.7-5.1-1 1.9-1 1.9-1.8 0-.7-2-.8-2-.8 0M691.6 152.1c-2.8 4.6-8.7 16-13.3 25.2-4.6 9.3-9.5 18.7-10.9 20.9s-2.3 4.2-2 4.5c.2.3 7.6 1.1 16.3 1.9s16.6 1.6 17.5 1.8c1 .2 2 0 2.3-.5s-.1-8.4-1-17.5c-.9-9.2-1.8-21.2-2.1-26.8s-.9-11.9-1.3-14l-.6-4zM868.9 155.8c-3 1.3-6.8 4.9-8 7.6-.7 1.4-1.6 2.6-2.1 2.6-.4 0-.8 1.1-.8 2.5s.5 2.5 1 2.5c2.4 0 .7 2.8-2 3.3-2.2.5-3 1.2-3 2.7 0 1.1.7 2.3 1.5 2.6.8.4 1.5 1.8 1.5 3.4 0 3.7 1 6.1 2.1 5.4.5-.3.9.4.9 1.5 0 1.2.5 2.1 1 2.1.6 0 1 .6 1 1.4s.4 1.7.9 2c.4.3.6-.6.3-1.9-.3-1.6 0-2.5.8-2.5.7 0 1-.7.7-1.5-.4-.8-.2-1.7.2-2 .5-.3 1.2-2.8 1.6-5.5.4-2.8 1-5 1.5-5 1.5 0 5.2-18 4.2-20.8-.4-1.3-.9-1.4-3.3-.4M750 180c0 1.1-.6 2-1.4 2s-1.8.9-2.1 2-1.1 2-1.6 2-.9.9-.9 2-.5 2.8-1.1 3.8c-.9 1.4-.2 3.1 4 9.2 2.8 4 5.1 6.8 5.1 6.1s.4-1 .9-.7c2.4 1.5 4.7-16.6 2.5-20.4-.7-1.4-1.3-3.7-1.4-5.3 0-2-.5-2.7-2-2.7-1.3 0-2 .7-2 2M855.6 208.1c-10.2 7.2-16.9 13-15.9 13.9.4.5 7.4 1.2 15.4 1.5l14.7.8.7-3.2c.5-2.4 1.2-3.1 3-3.1 3 0 3.9 1.4 2.5 4-.8 1.5-.8 2.1.2 2.4 2.5.8 18.8 1.5 18.7.8 0-.8-8.5-7.1-19.3-14.5-3.9-2.7-7.8-5.5-8.7-6.3-2.4-2.1-3.8-1.6-11.3 3.7M710.3 211.3c-1.4.7-2.2 2-2.1 3.4.1 1.2.6 1.9 1 1.7.4-.3.8.2.8 1 0 .9.4 1.6.9 1.6.4 0 .6 1.2.3 2.6-.3 1.9-.1 2.5.7 2 .6-.4 1.1-.1 1.1.7s.7 1.8 1.6 2.1 1.4 1.2 1.2 1.8c-.6 1.6 5.7 4.9 7.8 4.1 4.5-1.7 5.9-4.7 5.9-12.1 0-8.2.2-8-8.8-8.4-3.2-.1-6.1-.6-6.3-1-.6-1-1.2-.9-4.1.5M837 225.8c0 .8.6 2.6 1.4 4 .7 1.5 1.9 4.5 2.6 6.7s3.4 9.6 6.1 16.4c2.7 6.9 4.7 12.6 4.5 12.8-.5.5-6.2-12.5-9.1-20.7-3.7-10.4-6.8-18-7.2-17.6-.2.2-.6 3.9-.9 8.2-.2 4.4-1.2 17.1-2.2 28.3-1.8 20.3-1.8 20.3.3 21.7 5.2 3.7 10.1 6.7 14.6 9 6.1 3 15.9 9.3 15.9 10 0 .3-1.5-.3-3.2-1.5-1.8-1.1-6.3-3.6-9.9-5.5-3.7-1.9-8.6-4.8-11-6.4s-5.5-3.3-6.8-3.7c-2.2-.7-2.3-.5-1.9 2.3.2 1.7.1 2.9-.4 2.6-.4-.3-.8-1.4-.8-2.4s-.6-2-1.2-2.2c-1.2-.4-23.4 9.5-25.1 11.2-.5.4.8 1.8 2.8 3 4.4 2.7 4 3.5-.8 1.5-4.4-1.8-5.2-.9-4.8 5.3.2 3.3 1 5.2 3.2 7.4 1.6 1.7 2.9 3.5 2.9 3.9 0 .5 5.6.9 12.5.9H831l.7-2.8.7-2.7.6 2.5c.4 1.4 1.2 2.4 1.9 2.2.7-.1 1.1.5.9 1.5-.2 1.1-1.1 1.7-2.3 1.5-3.6-.5-24.8-.1-25.7.4-1.8 1.1 7.4 11.3 14.5 16.1 4 2.8 4.5 3.8 2.3 4.6-1.6.6-2.7 7.5-1.5 9.8 1.1 2.3 9 1.4 15.1-1.7 2.6-1.3 5.9-2.4 7.3-2.4s2.5-.5 2.5-1.1c0-.5-.4-.8-1-.4-1.8 1.1-20.1-2.8-18.8-4.1.3-.2 1.8 0 3.3.6s5.9 1.3 9.6 1.6c9 .8 9.4-.2 3.4-9.7-3.7-6-3.9-6.7-1.3-3.5 1.8 2.2 4.5 5.3 5.9 7l2.7 3 4-8.4c2.2-4.7 5.6-12 7.6-16.3 2-4.2 4-7.7 4.6-7.7.5 0 1-.5 1-1 0-.6-.7-1-1.7-1-.9 0-1.3-.3-1-.7.4-.3.2-1.2-.5-2-.8-1.1-.7-1.2.5-.7 1.3.4 1.1-.4-.8-4.3-1.2-2.6-3.8-9-5.6-14-1.8-5.1-3.5-8.9-3.9-8.5-.8 1.3-3.3.8-3.8-.7-.3-1 .1-1.2 1.7-.8s2.1.2 1.7-.8c-.2-.7-.2-1.6.1-1.9s1.4 1.6 2.3 4.2c3.7 10 9.8 24.4 10.8 25.4.8.8 1.3.7 1.6-.3.2-.8 1.6-4.6 2.9-8.4 1.4-3.9 3.7-10.2 5-14 1.4-3.9 3.7-9.7 5.1-13s5-12.8 8-21c3-8.3 5.5-14.3 5.6-13.5 0 1.5-4.3 13.5-15.4 43-6.6 17.4-9.9 27-9.4 27.5.2.2 1.5-.2 2.8-.9 1.4-.7 5-2.7 8-4.3s9.8-5.5 15.2-8.6l9.6-5.7-1.8-8.4c-1-4.6-2.3-11.7-2.9-15.7-.6-4.1-1.6-10.6-2.2-14.4-.6-3.9-1.2-8.4-1.4-10-1.2-8.1-1.3-8.3-6.3-8.9-2.6-.3-13.7-1-24.7-1.6-33.5-1.8-31.5-1.8-31.5-.2"/><path d="M794 226c-4.7.3-6.9.7-5 .8 4.5.3 6.9 1.6 4.5 2.6-1.3.5-1.6 1.4-1.2 3.9.3 2-.1 3.8-1 4.9-1.4 1.6-1.4 1.8.1 2.4.9.3 1.4 1 1.1 1.5-.3.4 2.6 4.1 6.5 8.1 3.8 4 7 7.5 7 7.9 0 .3 1.1 1.6 2.5 2.9s2.5 1.8 2.5 1.2c0-.7-.4-1.2-1-1.2-.5 0-1-.5-1-1.1 0-2 2.7 1 3.4 3.7.4 1.4 1 2.2 1.5 1.9.5-.2 1.2.2 1.5 1.1.4 1 .2 1.3-.7.9-.6-.4.3.7 2.1 2.4 1.7 1.7 3.2 3.4 3.2 3.9 0 1 6 7.2 7 7.2.4 0 1.2-2.6 1.8-5.8 1.1-5.5 1.4-9.8 2.7-35.2.4-6.3.9-12.3 1.1-13.3.5-1.6-.6-1.7-14.8-1.5-8.4.1-19.1.5-23.8.8M900.5 229c-.7 1.1 1.4 16.9 4.6 36 2 11.6 4 18 5.6 18 1.7 0 19.4-9.2 19.8-10.3.3-.7 1.1-6.8 1.9-13.7s1.5-13 1.6-13.5c.1-.6.2-2.4.1-4-.1-2.7-.5-2.2-3.1 3.5-1.7 3.6-3.9 8.3-5.1 10.5-11.6 22-14.2 26.6-14.5 26.2-.5-.4 10-21.5 13.5-27.3 1.8-2.9 5.6-11.7 8.3-18.7.6-1.6.7-3.2.2-3.7s-7.5-1.6-15.6-2.5c-17.4-1.8-16.5-1.8-17.3-.5M718.7 242.7c-.4.3-.7 1.3-.7 2.1s-.6 2-1.4 2.6c-.7.6-3.1 4.5-5.2 8.6-2.2 4.1-4.2 7.7-4.5 8s-2.3 4.5-4.4 9.5c-2.1 4.9-4.6 10.2-5.6 11.6-2.3 3.3-1.5 4.2 2.2 2.4 1.5-.8 3.3-1.5 3.9-1.5.7 0 5-2.3 9.7-5 4.7-2.8 8.7-5 8.9-5s3.2-1.7 6.6-3.8c8.1-5 16.8-9.8 24.1-13.3 3.1-1.6 5.7-3.3 5.7-3.7 0-1.2-4.6-3.2-7.5-3.2-1.3 0-2.6-.4-2.9-.9-.4-.5-4.5-2.1-9.4-3.6-4.8-1.5-10.6-3.4-13-4.1-4.8-1.6-5.6-1.7-6.5-.7M944.9 263.7c-.9 1-3.7 3.5-6.3 5.6-2.5 2.1-4.6 4.2-4.6 4.7s1.8 2.1 4.1 3.7c2.2 1.5 5.9 4.3 8.1 6 3.8 3.1 6.8 4.2 6.8 2.5 0-.4-.7-3.1-1.4-6-.8-2.9-1.8-8.2-2.1-11.8-.8-6.7-1.8-7.8-4.6-4.7M742.5 266.4c-22.6 12.8-29.2 16.5-37 20.4l-9 4.6 4.5.7c5.8 1 24.8 1.1 29 .2 2-.3 3.5-1.3 3.7-2.5.3-1 .8-1.8 1.2-1.8.3 0 1.2-1 2-2.1.9-1.6 1-2.4.2-2.9-.8-.4-.4-1.6 1.1-3.5l2.2-2.8-2.3.6c-1.8.4-2.2.2-1.9-1.6.2-1.6.9-2.1 2.7-1.9s2.2-.2 1.7-1.4c-.5-1.3-.2-1.5 1.4-1.1 2.4.6 3.8-1.2 1.9-2.4-1.1-.7-1.1-.9.2-.9.9 0 2-.8 2.4-1.8.7-1.5.9-1.4 1.6.8l.8 2.5-.2-2.4c-.3-3.3-1.4-3.4-6.2-.7M925 277.9c-12.2 5.8-14.2 7.3-13.6 10.1.3 1.4.3 1.9 0 1.2-1-2.1-2.3-1.3-4.4 2.5-1.2 2.1-3.2 5.6-4.5 7.8-1.3 2.1-2.1 4.3-1.8 4.7.2.5-.2 1.9-1 3.1-.7 1.2-1.6 3.4-1.9 4.9l-.5 2.7 3.4-1.4c1.8-.8 3.1-1 2.8-.5-.3.6-.4 1-.1 1 .6 0 11.6-5.8 19.6-10.2 4.4-2.6 6.3-4.8 3.9-4.8-1.4 0-14.1-8.2-13.5-8.7.2-.2 2.8 1 5.7 2.8 8.6 5 9.6 5.2 9.7 2 0-1.5.6-6.5 1.2-11 .6-4.6 1-8.4.8-8.6-.2-.1-2.8 1-5.8 2.4M932.4 277.5c-.4.9-.4 4.9 0 9 .4 4.7.3 7.6-.4 8-.5.3-1 1.5-1 2.7 0 2.5 1.2 2.3 12.4-2.1 8.4-3.2 11.1-5 8.8-5.8-.7-.3-3.2-1.9-5.5-3.7-10.6-8.1-13.7-9.8-14.3-8.1M808.7 278.8c1.4.9.5 2.6-2 3.5-1.5.6-1.7.3-1.2-1.3.8-2.6-1.5-2.7-3.6-.2-1.2 1.4-1.3 2.2-.5 3.5.8 1.2.8 2.2-.1 3.5-1.4 2.4-.5 7.2 1.4 7.2.9 0 5.5-1.8 10.4-4s9.3-4 9.7-4 1.3-.5 2-1.2c.9-.9-.1-1.7-4.5-3.5-3.1-1.3-6.5-2.3-7.5-2.3s-1.8-.5-1.8-1c0-.6-.8-1-1.7-1-1.2 0-1.4.3-.6.8M902.3 289.6c-1.8.8-6.4 3.4-10.2 5.9-3.9 2.4-9.6 5.8-12.8 7.4-9.1 4.7-9 4.7-6.9 6.9 1.7 1.9 1.7 2-.1 1.8-1.5-.1-1.8.7-1.9 4.4-.1 2.5-.5 8.7-.9 13.9-.7 8.4-.7 9.4.8 8.8.9-.3 1.8-.1 2.1.6s.3-.4.1-2.3c-.3-1.9-.7-5.5-1-8l-.5-4.5 2.6 5.5c3.2 6.9 3.1 6.8 5 4.2.8-1.2 2.1-2.2 2.9-2.2s2.9-2.1 4.6-4.7l3.2-4.7-3.4-2.9-3.4-2.9 4.1 2 4.1 2.1 1.1-2.2c3-6.2 5-11.7 4.1-11.7-1.7 0-.9-2.1 1.1-2.8 2.9-1.1 11.8-16.4 9.3-16.1-.4 0-2.3.7-4 1.5M848.4 378.2c-2.2 1-3.6 7-4.8 19.7-1.1 11.7-1.7 14.2-3.2 13-.8-.6-1.4-.8-1.4-.3.1.5 4.4 4.5 9.7 8.9s10.5 8.8 11.5 9.7c2.5 2.5 2.8 2.3 2.6-2.2-.1-2.1.5-4.7 1.3-5.6 1-1.2 1-1.5.1-1-1 .6-1.1 0-.5-2.6 1.7-7.4.2-23.8-2.2-23.8-.7 0-1.8-1.4-2.4-3-.5-1.7-1.4-3-1.9-3-.6 0-1.3-1.5-1.6-3.3-.9-4.5-4.4-7.7-7.2-6.5M886.9 384.1c-1 2.5-.9 4 .5 8.7 1 3.1 2.3 7.9 3 10.7 1 4 1.7 5 3.2 4.8 9.2-1.1 18.9-2.5 19.3-2.8.5-.6-7.5-11.2-13.9-18.4-1.6-1.9-3-3-3-2.6s-.6.3-1.3-.3-2.4-1.5-3.9-2.1c-2.4-.9-2.7-.7-3.9 2M953.5 382.6c-1.1.3-4.6.9-7.7 1.6-5.5 1-5.7 1.2-5.2 3.7 1.3 6.4 2.6 11.8 3.4 13.6.5 1.1 1.1 2.9 1.5 4l.6 2 1.5-2c.8-1.1 1.8-3.1 2.1-4.5s2.1-5.7 3.9-9.6c3.4-7.1 4.1-9.5 2.7-9.3-.5.1-1.7.3-2.8.5M709 386.3c-2.5 1.7-5.1 3.7-5.8 4.4-.8.8-2.7 2-4.3 2.8-1.6.9-2.9 1.8-2.9 2 0 1.6 24.3 8.5 25.5 7.3 1.4-1.3-5.4-19.9-7.2-19.8-.4.1-2.8 1.5-5.3 3.3M931 392.9c-3 3.1-7.2 7-9.2 8.6-2.1 1.6-3.8 3.2-3.8 3.5 0 .4 2.9 1 6.5 1.4 3.6.3 9.5.9 13.2 1.2 5.2.6 6.4.4 5.8-.6-.4-.7-.9-2-.9-2.9-.3-2.7-2.6-10.5-3.6-12.3-.6-1-1-2.5-1-3.3 0-2.4-1.1-1.7-7 4.4M785.5 408.5c-.5.2-7.5 1.1-15.4 2-8 .8-14.7 1.7-14.9 2-.3.3 1.1 2.9 3 5.8 2 2.9 4.5 7.2 5.7 9.5s2.5 4.2 3 4.2c.6 0 15.5-14.6 24-23.6.5-.5-4-.4-5.4.1M836.7 420.7c-3.2 11.6-5.8 24.6-4.9 25.5.4.4 8 .3 16.7-.2 8.8-.6 17.5-1.1 19.3-1.2 3-.2 4.1-2.1 1.4-2.4-.7-.1-1.8-.2-2.4-.3-1-.1-.9-.4.1-1 1.1-.7.6-1.5-2-4-1.9-1.7-3.9-3.1-4.4-3.1-.6 0-1.6-.9-2.3-2s-2-2-2.9-2-1.4-.3-1-.6c.5-.5-14.7-14.4-15.7-14.4-.2 0-1.1 2.6-1.9 5.7M827.6 422.5c-3.1 3.5-13.1 14.1-22.1 23.6-14.7 15.4-16.3 17.4-15.1 19 .7 1 5.2 5.5 10 10 9.4 8.9 9.6 8.9 11.6 1.9.5-1.9 2.8-8.2 5-14 2.3-5.8 6.2-16.6 8.7-24s5.4-15.5 6.5-17.8c1.1-2.4 1.8-4.6 1.6-4.8s-3 2.5-6.2 6.1M846.1 448l-15.3.5 12.3 6.8 12.4 6.8 3.2-1.8c2.9-1.7 7.2-5 14.2-11l2.6-2.2-7 .1c-3.8.1-13.9.5-22.4.8M792.7 476.5c1.3 6.3 5.7 20.6 7.3 23.4.5.9 1.9-1 4.4-6.2 2-4.1 3.6-7.9 3.6-8.4 0-1.2-14.3-15.3-15.6-15.3-.7 0-.6 2.1.3 6.5M443.5 114c-2.7.5-7.7 1-11 1.3-27.6 2.1-48 4.6-46.8 5.7 2.5 2.4 28.8 15 30.2 14.5.8-.3 1.2-.3.8.1-.8.8 5.6 4.4 7.8 4.4.8 0 1.5.5 1.5 1.1 0 .5.5.7 1 .4.6-.3 1-.2 1 .3 0 2.2 6.6 4.1 12.6 3.6 7.7-.7 8.2-.8 13.1-2.9 4-1.7 5.9-4.4 4.3-6.2-.7-.7-3.9-12.9-5.5-20.6-.6-2.9-.8-3-9-1.7M352.5 131.1c-12.1 5-26.2 10.7-31.4 12.7-10.4 4-12.6 6.3-9.9 10.5.9 1.2 2.6 5.9 3.8 10.2 1.2 4.4 3.5 10.8 5 14.2 1.6 3.4 3.1 7.5 3.5 9.2.5 2.2 1 2.9 2 2.3 1.9-1 11.8-12.6 13.5-15.7 1.5-2.9 1.9-2.4-7.6-9.3-12.3-8.8-19.4-14.5-19.4-15.5 0-.5 1.5.2 3.3 1.7 9.5 7.7 14.7 10.1 14.7 6.5 0-1.2.7-1.9 2-1.9 2.7 0 2.5 2.4-.2 4.2-2.2 1.5-2.2 1.5 1.7 4 6.2 3.8 7.2 4 8.9 1.3.9-1.4 2.2-2.2 2.9-2 1.4.6 4.8-3.5 16.5-20.5 11.6-16.7 14.4-21 13.5-20.9-.5 0-10.7 4.1-22.8 9M448.5 215c-.3.5-3.4 1-6.8 1s-8.2.5-10.7 1.1c-5.8 1.4-7.3 1.7-8.2 1.8-.5.1-.8.8-.8 1.7 0 1-.6 1.4-1.5 1.1-.8-.4-1.7-.2-2 .3-.4.6-1.7 1-3.1 1-1.3 0-2.4.4-2.4 1 0 .5-.4 1-1 1-.5 0-.7-.7-.4-1.5.7-1.8-1.2-2-1.9-.3-.4 1-.8 1-1.5-.1-.5-.7-1.2-.9-1.4-.5-1.3 2.2-3.9 16.5-3.2 17.5.4.7.3.9-.4.5-.6-.4-1.4 1.2-2 4.1-.9 3.9-.8 5.1.5 6.5.8 1 1.3 2.6 1.1 3.6-.5 1.8 6.2 5.7 22.7 13.3 2.8 1.3 7.2 3.5 9.8 5.1 2.6 1.5 5.4 2.8 6.1 2.8 1.5 0 1.4.3 10.1-39 4.5-19.8 5.2-26.3 2.5-22-.7 1.2-1.2 1.2-2.2.2-1.5-1.5-2.5-1.5-3.3-.2M456.7 223.2c-.9 4-3.5 14.7-5.7 23.8-2.3 9.1-4.3 18.3-4.6 20.4-.3 2.2-.9 4.7-1.4 5.7-1.5 2.8 0 2.9 5.4.4 2.8-1.3 8.8-3.8 13.4-5.5s12.8-5.1 18.4-7.5c5.5-2.5 10.6-4.5 11.2-4.5.7 0 2.1-.6 3.1-1.4 1.7-1.3 1.4-1.8-5.6-8.6-4.1-3.9-12.6-12.3-19-18.6-6.5-6.3-12.1-11.4-12.6-11.4s-1.7 3.3-2.6 7.2M884.7 534.7c-.9.2-1.5.8-1.2 1.3s-1.6 1.2-4.2 1.5c-7.5 1-9.4 1.5-8.9 2.4.3.5 0 1.4-.8 2-1.1.9-1.5.9-1.9-.1-.2-.7-.8-1-1.2-.5-.5.4-.4 1.2.2 1.8s.8 3.8.5 7.8c-.2 3.8 0 7.1.5 7.4s4.7-1 9.4-2.8c4.6-1.9 9.2-3.5 10.2-3.5 1.6 0 1.7-.9 1.5-7.5-.2-5-.7-7.6-1.6-8-.7-.3-1-.9-.7-1.5.3-.5.5-.9.3-.9-.2.1-1.1.3-2.1.6M864.5 593.5c-4.9.7-7.1 1.5-7.2 2.5-.2.8.3 5.5 1 10.4l1.2 8.9 4.8-5c2.6-2.7 5.5-6.1 6.5-7.4.9-1.3 3.1-4 4.9-5.9s3.3-3.9 3.3-4.3c0-.9-4.9-.7-14.5.8M836.2 595.9c-4.7.5-5.1.7-3.2 1.9 1.2.7 2 .8 2 .2 0-.5.5-1 1-1 .6 0 1 .9 1 2s-.5 2-1.2 2c-2.1 0 2.3 3.7 11.2 9.4 4.7 3 8.8 5.1 9.2 4.7.3-.3.2-3-.3-6-.4-2.9-.9-7.3-1-9.7l-.3-4.4-6.5.2c-3.6.1-9 .4-11.9.7M424 618c0 .5-1.4 3.3-3.1 6.2-3.5 5.9-13.9 26.3-13.9 27.2 0 .3.9.6 2 .6s2 .7 2 1.5 1.2 1.8 2.6 2.1c2 .5 2.5 1.2 2.2 2.9-.4 1.9 0 2.2 3.5 2.3 2.1.1 4.8-.5 6-1.3s3.1-1.5 4.3-1.5 2.4-.5 2.6-1.2c.5-1.5-1.2-12.3-2.5-15.8-.5-1.3-1.3-6.1-2.2-13.5-.7-5.4-3.5-13-3.5-9.5M402.3 667.6c.9.9 6.1 3.7 19.5 10.4l12.3 6.2 1.9-2.2c1.8-2.1 1.8-2.2-.2-5.6-1.1-2-3.1-4.2-4.4-5.1-1.3-.8-2.2-1.9-1.9-2.3s-.9-1-2.6-1.4c-4-.8-25.4-.8-24.6 0"/></svg>