<svg xmlns="http://www.w3.org/2000/svg" width="1706.667" height="960" viewBox="0 0 1280 720"><path d="M0 360v360h268.5c178.3 0 268.5-.3 268.5-1 0-.6.5-1 1.1-1 .5 0 .7.4.4 1-.4.6.8 1 3 1s3.4-.4 3-1c-.3-.6-.1-1 .5-1s4.7-3 9.1-6.6c13.4-11 9.7-6.2-4.6 6l-3 2.5 28.8.1c26.8 0 28.7-.1 27.2-1.6-2.2-2.3-12.6-15.1-14.4-17.8-2.3-3.4 4.9 4.3 11.3 12.2l5.8 7.2H1280V0H0zM773.3 51c2 .8 3.7 2 3.7 2.8 0 .7.6 1.9 1.3 2.5 5.4 5.2 48.5 42.7 56.1 49 3.9 3.2 7.2 6.2 7.4 6.7.5 1.4 3.2 0 3.2-1.6 0-.8.4-1.4 1-1.4.5 0 .7 1.3.4 3-.5 2.3-.2 3.1 1.2 3.6 4.5 1.4 5.9 2.4 2.5 1.8-2.2-.4-3.2-.2-3 .5.8 2.2 25.9 32.9 33.3 40.5l7.6 8 2.6-2.5 2.7-2.4-1.8 2.8c-2 3.1-1.5 7.8 1.2 11.1 1 1.2.3.8-1.4-.8l-3.1-2.8-2.7 4.3c-1.5 2.4-3.9 6.2-5.5 8.4-1.5 2.2-5.6 8.3-9.1 13.5s-6.7 9.7-7 10-2.4 3.6-4.6 7.5c-2.8 4.8-3.8 7.2-3 7.6.7.4 8.6 1.2 17.5 1.9 9 .6 17.1 1.4 17.9 1.7 1.4.6 1.5-.6.9-9.7-.4-5.7-1.4-13.1-2.1-16.5-.8-3.3-1.4-8.5-1.4-11.5l.1-5.5.8 4.5c1.5 8.1 3.3 21.5 4.5 32.2.4 3.3 1.1 5.8 1.8 5.8.6 0 2.5-1.4 4.3-3.1 2.8-2.7 3.1-3.5 2.7-7.3-.3-2.4 0-5.2.6-6.2.8-1.6 1-1.1 1.1 2.8 0 2.8.6 5.3 1.5 6.2 2.1 2.1 1.9 2.4-2.1 4.1-7.4 3.1-8.4 6.7-4 15 3 5.7 3.7 7.7 2.6 7-1.3-.8-7-12.2-7-14.1 0-.8-.4-1.2-1-.9-.5.3-1 1.6-1 2.8 0 1.6-.3 1.8-.9.8-.5-.7-.6-2.2-.4-3.2.3-1.2 0-1.9-.8-1.9-4.1-.1-17.3-1.3-23.7-2.1-11.6-1.4-14.2-1.2-14.2 1.1 0 1.3-.5 1.8-1.5 1.4q-1.5-.6-1.5 1.2c0 .9-1.3 4.7-3 8.3-1.6 3.6-5.1 12.2-7.9 19.1-2.7 6.9-6.4 15.9-8.1 20-4.2 10-10.2 28.9-8.3 26.4 1-1.5 19.3-10.7 19.9-10.1.3.2-.8 1.1-2.3 1.8-17.3 8.7-19.3 10.1-20.3 13.8q-.9 3.6 0 3.9c.6.2 1 1.4 1 2.6 0 2.9 4.8 21.8 5.8 22.8.9.9 14.2-13.9 14.2-15.8 0-.7-1.2-2.2-2.7-3.4l-2.8-2.2 2.8 1.7c1.6.9 3.5 1.4 4.2 1.1.7-.2 3.1-4 5.3-8.3 4.2-8.4 8.2-15.2 8.2-14.1 0 1.3-7 18.1-8.1 19.5-1.6 1.9-.4 1.6 1.6-.4 1-.9 4.3-2.6 7.4-3.7 8.7-3.2 26.3-12.6 25.9-13.8-.2-.6-3.5-2.7-7.3-4.7-3.9-2-8.2-4.4-9.6-5.4-4.1-2.8-6.8-2.8-13.1-.3-7.1 2.9-6.7 2.2.9-1.9 6.5-3.5 7.1-5.3 4.7-14.3-.8-2.9-1.7-7.6-2-10.5-.2-2.9-.9-7.2-1.4-9.7-1.8-9-3.4-22.7-2.6-21.9.5.4 1.4 5.7 5.6 33.4.6 3.8 1.5 7.9 2 9 1.1 2.7 2.4 7.8 2.1 9 0 .5.6.1 1.4-.9.8-1.1 1.5-2.3 1.5-2.8 0-.4 1.5-3.1 3.3-6 1.9-2.9 5.1-8.7 7.2-12.8 4.7-9 13.5-22.4 14.2-21.6.3.3-1.1 3.3-3.1 6.6-2 3.4-3.6 6.5-3.6 6.9 0 .5-.8 1.9-1.9 3.2-1 1.3-2.8 4-3.9 5.9s-3.6 6.4-5.7 10c-2 3.6-4.1 7.1-4.7 7.7-1.7 2.1.7 1.6 8.7-1.8 4-1.7 7.9-3.7 8.7-4.6 1.9-2.3 3.9-8.1 5.1-14.8.5-3.3 1.8-9.4 2.8-13.5l1.8-7.5-.4 6.7c-.6 8.3-3.2 20.7-4.7 22.5-1.8 2.2-.2 2.6 3.7.8 4.7-2.3 5.5-1.3 1 1.3-3.6 2.2-4.6 4.6-2.2 5.5.7.3 5.2 3.2 10 6.6l8.7 6v-3.1c0-4.9-2.1-20.4-3-21.8-.6-.9-1.7-.6-4.4 1.5-2 1.5-3.9 2.5-4.2 2.2s1.2-1.8 3.4-3.4l4.1-2.8-.4-12.5c-.2-8.6 0-11.1.5-8 .5 2.5.9 6.7.9 9.5.1 5.2 1.2 8.1 2.7 7.2.5-.3.9 1.4.9 3.7 0 2.6.8 5.3 2.2 7.2 1.3 1.7 2 3.4 1.7 3.6-.3.3.9 2.9 2.6 5.8 3.7 6.3 6 11.7 5.9 13.9 0 1.4-9.5-16.5-10.2-19.4-.2-.6-.8-1.9-1.5-3-1.1-1.8-1.2-1.5-.8 2 .3 2.2.8 6.7 1.1 10 .4 3.3 1.5 7.4 2.5 9.2 1.8 3.2 1.8 3.2-.1 3.8-1.1.4-2.3.5-2.6.2-1-1-22.3 8.2-26.7 11.5-1.8 1.4-1.7 1.5.6 4.1 4.1 4.3 7.5 3.7 14.3-2.8 3.2-3 6-5.5 6.2-5.5.8 0-1.9 4-3.5 5.2-1.9 1.4-5.2 5.8-5.2 7 0 .3 1 1 2.3 1.4 1.2.3 3 1.3 4 2.2s2.3 1.7 3 1.8 2.4.5 4 .9c2.5.7 2.7.5 2.7-2.3 0-1.7.5-3.4 1-3.7.6-.4 1 .9 1 3.2l.1 3.8 1.9-2.4c2.2-2.6 2.4-2.1 1 2.8-.8 2.9-.6 3.9 1.8 7.1 1.5 2.1 3.5 4.3 4.4 4.9 1.6 1 1.8.7 1.8-1.9 0-1.6 0-3.1-.1-3.3 0-.1.4-1.4 1-2.9s1.3-5.9 1.5-9.9c.6-7.6 1.6-10.7 1.6-4.8 0 1.9-.5 9.9-1 17.9-.5 8.3-.6 26.5-.2 42.5.6 21 .5 28.9-.4 31.5-1.1 3.1-1.2 2.4-.8-5.5.7-11.4-.3-13.1-4.6-8.5-3.1 3.4-9.3 13.2-10.4 16.6-.6 2-4.6 5-4.6 3.5 0-.4.8-1.9 1.8-3.2.9-1.3 2.3-3.5 3.1-4.9s3-4.9 4.8-7.9 3.3-5.9 3.3-6.4c0-.9-6.7-.3-15.8 1.4-4.2.9-5.2 1.4-4.8 2.7.3.9 1.2 4.4 2.1 7.7 1.9 7.8 4.6 13.5 6.4 13.5 1.1 0 1.1.4-.2 1.8-1 1-1.7 2.4-1.7 3.1s-.4 1-.9.7-1.8 1.6-2.9 4.2-3.4 6.7-5 9.1c-1.7 2.5-2.8 5-2.5 5.8.3.7 0 1.3-.7 1.3-.6 0-1.4-.8-1.7-1.9-.2-1-3.4-4.5-7-7.7s-6.9-6.8-7.5-7.9c-1-1.9 7.7 5.9 12.8 11.5 2.3 2.5 2.3 2.5 3.9.5 2-2.5 8.5-15.5 8.5-17.1 0-.7-4.6-1.5-12.2-2.2-16.5-1.6-18.4-1.6-19.3.5-.6 1.7-.7 1.7-2-.1-1.3-1.7-2.3-1.8-10.2-1.2-11.8.9-15.5 1.5-17.7 3.1-1.7 1.3-1.7 1.6-.2 4.6 1.9 3.8 2 4.2.4 3.3-.7-.5-.9-.1-.5 1.2.3 1 1.4 4.6 2.4 7.9.9 3.3 2 6.2 2.3 6.5.7.7 1.2 2.8 1.7 7.5.3 3.4-.1 4.6-2.8 7.8-1.7 2.1-3.3 3.6-3.6 3.3-.3-.2.4-1.5 1.6-2.7 1.2-1.3 2.1-2.6 2.1-3.1 0-1.1-17.2-1-19 .2-1.2.7-1.1 1.3 1 3.4 1.3 1.5 1.9 2.6 1.4 2.6-.6 0-2-1.1-3.2-2.5s-3-2.5-4-2.5c-2 0-14 8.3-20 13.7-2.5 2.3-4.6 3.3-6.8 3.3-1.8 0-4 .3-5 .7-1.2.4-1.5.3-1-.5.4-.7 2.5-1.2 4.6-1.2 5.2 0 5.5-1 1.3-4-1.9-1.4-4.4-3.3-5.6-4.2-2-1.6-2-1.7-.2-1 1.1.4 3.9 2 6.2 3.6l4.3 2.9 5.2-3.7c2.9-2 7.3-5.5 9.8-7.6l4.5-4-18 .4-18 .5 15-1.5c8.2-.8 15.4-1.9 15.9-2.4.7-.7.6-1-.2-1-.7 0-1.2-.6-1.2-1.3s-5.7-7.1-12.7-14.2l-12.6-13-1.3 5c-2.4 9.8-3.7 14-4.4 14.5s-1.4 3.7-2.6 10.9c-.3 1.9 0 3.9.8 4.8 1 1.3.9 1.5-.7 1.1-1.5-.3-1.9-1-1.7-3.3.2-1.5 0-4-.3-5.4-.6-2.4-.7-2.3-2.7 1.9-1.1 2.5-2.2 4-2.5 3.3-.2-.7 0-2.1.6-3.2s1.1-2.8 1.1-3.7c0-1 .9-3.6 1.9-5.8 4.5-9.4 7.1-15.9 6.6-16.5-1-1-44.5 43.9-44.5 46 0 1 4.5 5.7 12.7 13.3 5.6 5.3 6.4 5.7 7.8 4.3.8-.9 1.5-1.9 1.5-2.2 0-1.1 5-13.9 6.7-16.8.8-1.6 1.3-3.7 1-4.7-.3-1.1.4-2.7 1.7-3.9l2.2-2.1-.4 3.8c-.3 2-.8 4-1.3 4.3s-1 1.8-1.1 3.3c-.2 1.6-.8 3.1-1.5 3.3-.7.3-1.3 1.3-1.3 2.2 0 1.4.2 1.4 1 .1.7-1.1 1.2-1.2 1.8-.4.4.8 3.5 1.1 8.9.9 5.8-.3 8.5 0 9 .9.9 1.4 8 4.2 13.8 5.4 3.9.8 4 .9 4.5 5.5.6 4.9 3.5 8.4 5.6 6.6.6-.5 1.4-.6 1.7-.2.6.5 1.2-4.6.8-7 0-.4.3-.7.7-.7.9 0 5.8 11.1 5.4 12.3-.1.5.2.6.8.2 1.6-1 4.1 1.5 6.2 6.1 1 2.3 2.5 4.7 3.3 5.4 1.7 1.4 1.8 1.1 1.6-5 0-2.9.1-3.1.8-1.5.5 1.1 1 3 1 4.2.1 1.3.6 2.3 1.1 2.3.6 0 .8 1 .4 2.4-.3 1.3-.1 3.4.6 4.5 1 2 .6 2.4-5.7 5.1-3.7 1.7-7.5 3.4-8.3 3.8-.9.5-3.4.1-6.5-1.1-11-4.2-12.7-4.2-20.8-.4-4 1.9-9.6 4.5-12.5 5.7s-5.2 2.6-5.2 3.1c0 1.5-2.4 1-5-1-1.4-1.1-7.1-5.6-12.7-10s-10.5-7.6-10.8-7.1c-1 1.5-2.5 1.2-1.9-.4.7-1.8-30.9-18-33.7-17.3-1.3.4-1.9-.2-2.4-2.3-.7-3-2.4-6-14.2-23.8-4.2-6.2-7.4-11.5-7.1-11.7.3-.3 10.7 14.5 14.3 20.4.6.9 2 3.1 3.3 4.8 1.2 1.7 2.2 3.4 2.2 3.7 0 .4.8 1.6 1.8 2.6 1.7 1.9 2 1.7 12.2-8.5 5.8-5.7 10.5-11 10.5-11.7s-2.9-2-7-2.9c-7.9-1.9-15.8-4.6-22.6-7.7-5.4-2.5-9.1-3.4-13.9-3.6-3.4-.1-6-1.5-6-3.3 0-.5-.9-1.9-2-3.1-1.2-1.2-1.7-2.2-1.2-2.2s1.5.7 2.2 1.5c.7.9 2.1 1.3 3.1 1 1.4-.5 1.9-.1 1.9 1.4s1.2 2.3 5.8 3.6c3.1.8 9.3 2.9 13.7 4.5 13.2 4.8 23.7 8.1 24.2 7.6.2-.2-3.3-5-7.9-10.7-4.5-5.6-8.3-10.9-8.4-11.7-.6-3.6-2.4-3.6-9.7 0-7.6 3.9-12.7 6-12.7 5.4 0-.2 4.3-2.5 9.6-5.1 8.6-4.3 9.5-5 9.1-7.1-.3-2-.2-2.2 1-1.3 1.1 1 3.3-.6 11.1-8.2 15.1-14.6 15.7-15.6 10-14.5-2.9.5-29.1 3.6-31 3.6-.5 0-.8.5-.8 1.1 0 1.2 4.6 9.4 7.6 13.6.9 1.3 1.4 2.3 1.2 2.3-.3 0-2.6-2.9-5.3-6.5-2.6-3.6-5-6.3-5.4-6.1-.4.3-.8-.5-.8-1.6-.1-1.1-.4-2.2-.6-2.5-.3-.2-6.7-1.9-14.3-3.8-7.7-1.8-17.3-4.4-21.4-5.8-15.7-5.1-18.6-5.5-24.5-3.2-1.7.6-1.7.5.3-.9 1.2-1 2.2-2.1 2.2-2.5 0-.5-3.9-4.3-8.7-8.4-7.6-6.5-18-15.9-20.6-18.4-2.7-2.7-12.5-14.9-12.2-15.2.3-.2 2.7 2.2 5.6 5.3 3.7 4.1 5.7 5.5 6.9 5.1 1.4-.4 1.7-.1 1.4 1.2-.4 1.3 2 4.2 7.6 9.8 4.5 4.4 8.7 8.4 9.3 9 .7.5 3.2 2.7 5.5 4.8 2.8 2.4 5 3.6 6 3.2.8-.3 1.9 0 2.3.6.5.8 1.2.6 2.6-.7 1-1.1 4.5-3.7 7.7-5.9 7.6-5.2 9.1-7.3 6.8-9.4-.9-.9-3.9-4.9-6.7-9-2.7-4.1-5.6-8.1-6.5-9-.8-.9-3.9-5.2-6.8-9.6-3-4.4-6.9-9.1-8.7-10.5-1.9-1.4-3.7-3.1-4-3.9s1.5.3 3.9 2.3c2.6 2.1 4.7 3.2 5.1 2.6 1-1.6 2.6-1.1 2.4.7-.3 3.8.3 5.1 6.6 12.6 3.6 4.3 7.5 9.7 8.6 12 1.2 2.3 3.6 5.6 5.4 7.3l3.2 3.2.7-6.5c.4-3.5.4-6.8 0-7.4-.3-.5-.6-3-.6-5.4 0-2.8-.4-4.5-1.1-4.5-.9 0-.9-.2 0-.8 1.2-.8 1.2-10-.1-12-.4-.7-.3-1.2.3-1.2.5 0 1.3.4 1.6 1 .8 1.3 3.5 1.3 3.5-.1 0-1.1-2.5-3.9-3.5-3.9-.3 0-.4.4-.1.9.4.5-.5.4-1.8-.2-2.9-1.4-2.4-3.6.7-3 1.5.3 3.8-.8 6.9-3.1 2.6-2 4.9-3.6 5.1-3.6s3.5-2.9 7.2-6.5c5.5-5.4 6.6-7 6.3-9-.6-2.9-.2-3.1 1.8-1 .9.8 2.2 1.5 3 1.5s1.7-.7 2-1.5c.4-.8 1.2-1.5 1.9-1.5.6 0 2.8-3.2 4.8-7.1 3.4-6.6 4.5-10.8 3.2-12.1-.3-.3-5.9.5-12.3 1.9-8.9 1.8-12.2 2.9-13.6 4.6-1.4 1.6-1.8 1.7-1.3.5.8-2.3-1.1-2.7-13.8-3.1l-10-.3 12.1-.2c12.1-.2 12.2-.2 14-3 2.6-3.7 4.2-6.4 5-8.2.4-.8 1.9-3.1 3.3-5s3.1-4.2 3.6-5.1c.6-.9 2.2-3.5 3.8-5.7 1.5-2.3 2.7-4.4 2.7-4.6 0-1.2-11.9 5.4-37.3 20.6-10 6.1-13.7 7.9-13.7 6.8 0-.5 2.8-2.4 6.2-4.1 5.6-2.8 23.5-13.6 30-18 1.5-1.1 3-1.9 3.3-1.9.8 0 13.8-8.2 15.4-9.8.8-.8 1-1.7.5-2.2-1-1-26.8-9.6-32.7-11l-3.9-.8-1.9 4.4c-1.1 2.4-2.2 4.4-2.4 4.4-.1 0 .3-2.4 1.1-5.3.7-2.8 1.2-5.9 1-6.7-.5-2.7-2.9-10.5-3.6-11.5-1-1.6-3.9-9.8-4.2-12.2-.5-3.6-2.7-1.2-3.3 3.6-.3 2.4-.8 4.7-1 5.1s-.9 6.5-1.6 13.6c-.6 7.1-1.5 15.4-1.9 18.4l-.7 5.5-.1-7.5c-.1-4.1 1.1-15.9 2.7-26.2l2.7-18.7-4-.5c-2.3-.3-7.9-1-12.6-1.5-8-.9-7.7-.9 4-.4l12.6.5-.4-25.4c-.2-19.2-.7-26.5-1.9-30.1-.8-2.7-1.2-5.1-.9-5.4.3-.4.6.1.6 1s.5 1.7 1 1.7c.6 0 1 .9 1 2.1 0 1.1.4 2.8 1 3.8.5 1 1.2 11.9 1.5 24.2.4 12.3.9 22.7 1.3 23.1.8.8 2.6-.2 14.2-8.7 7-5.1 10.3-7.4 11.8-8.2.2-.1-2.4-3.8-5.9-8.3-3.4-4.6-7.9-10.6-9.8-13.5-3.7-5.3-9.2-12.4-12.3-15.7-1-1-1.8-2.2-1.8-2.8s-.9-.6-2.2-.1-2.2 1.5-2 2.2c.4 1.6-8.5 19.4-10.5 21.1-1.5 1.2-1.5 1 0-1.7 1.4-2.7 3-14.2 1.9-13-.3.3-1.4-.9-2.4-2.6-2.2-3.6-1.2-5.8 1.8-3.9 2.9 1.8 6.8-.2 8.8-4.4.9-2 1.5-4 1.1-4.5-.3-.5 0-1.1.6-1.3.8-.3.6-2.3-.4-6.8-3.7-15.2-3.4-18.2.3-4.3 1.2 4.6 2.8 8.4 3.6 8.7s1.3.2 1-.3c-.3-.4.3-1.7 1.2-2.7 2.5-2.6 22.3-30.8 25.6-36.4 1.5-2.5 3.6-5.7 4.8-7.2s1.9-3 1.7-3.3c-.5-.5-8.4 2.5-29.9 11.5-6.3 2.6-12.3 5-13.2 5.3-1.6.6-1.6 1-.2 5.4 2.1 6.5 2.7 9.3 2.1 9.3-.3 0-1.5-3.2-2.7-7-1.2-3.9-2.6-7-3.2-7s-.6-.6.2-1.5c.7-.8 2-1.5 2.9-1.5 1.4 0 1.4-.2.1-1-1.9-1.3-.8-1.3 2.4 0 1.4.5 2.6.6 2.6.1s1.2-1.2 2.8-1.6c1.5-.3 10-3.5 18.9-7.1 8.9-3.5 16.6-6.4 17.2-6.4s1.6-.9 2.3-2 2.2-2 3.3-2 9-2.5 17.5-5.6 19.1-6.9 23.4-8.5c4.4-1.6 7.5-2.5 7-2-.9.9-11.3 4.9-31.7 12.2-6 2.1-11.3 4.2-11.8 4.5-1.2.7-1.2 2.4.1 2.4.5 0 7.4 3.1 15.2 6.9 24.3 11.7 45.5 21.1 47.7 21.1.4 0 1.3-3.5 2-7.8.7-4.2 1.7-10.4 2.2-13.7 2.3-13.8 4.4-31.1 4.1-32.7-.3-1.3-.9-1.5-3.8-.6-1.9.5-4.1.7-4.7.4-.7-.2-.3-.5.9-.5 1.2-.1 3.1-1 4.4-2.1s2.6-1.9 2.9-1.8c.3.2 2.3 1 4.4 1.8m-343.9 66.4c-1 .8-2.1 1.1-2.4.7-.4-.6-27.1 1.7-34 2.9-.3 0 .4.7 1.4 1.5 1.9 1.5 1.9 1.5-.1 1.5-1.2 0-2.3-.6-2.6-1.3-.3-.8-.8-.9-1.6-.2-1.3 1.3-8.1 12.5-8.1 13.5 0 .3 2.7 1.9 6 3.3 4.2 1.9 7.7 2.7 11.6 2.7 6 0 7.7-1 8.8-5.3.4-1.6 1.7-3.2 3.1-3.7s2.5-1.5 2.5-2.1c0-.9.3-.9 1.4 0 .8.6 4.2 1.7 7.7 2.3 5.4.9 13.9 4.8 13.9 6.2 0 .3-1.3.1-3-.4-2.3-.6-3-.5-3 .5 0 .7.7 1.6 1.6 1.9 2.5 1 5.4.7 5.4-.5 0-.7 1.3-.9 3.8-.5 6.9 1.3 7.2 1.5 7.2 5.3 0 3-.2 3.4-1.5 2.3-1.7-1.4-3.5-.5-3.5 1.6 0 .9-.7 2.3-1.6 3.1-1.1 1.1-1.3 2.4-.8 4.2.4 1.4.6 3.4.6 4.3-.1 1.5.8 1.8 4.9 1.8 2.8 0 5.9-.5 7-1 1.8-1 1.8-1.3-1.2-6.5-3.9-6.9-2.6-7.1 2.1-.4 2.3 3.3 4.4 5.2 6.3 5.6 2.5.5 2.6.7 1 1.9-1 .7-3.3 1.4-5.1 1.4-4.4 0-12.5 2.1-13.4 3.4-.8 1.2 2 3.5 4.5 3.6 1.3 0 1.7.9 1.7 4.2 0 3.2.3 3.9 1 2.8.7-1 1 .9 1.2 6.5.1 4.4.2 10.5.4 13.5.2 5.8 2.1 14.4 4.8 21.9.9 2.5 1.3 4.1.9 3.7s-1.7-3.3-2.9-6.4l-2.1-5.7-5.9.3c-7.4.3-16.2 2-17 3.3-.3.5 0 1.8.8 2.7 1.2 1.5 1.1 1.6-.5.3-2.6-2.1-7.2-2.3-16.6-.6-12.7 2.2-16.6 3.4-15.2 4.8.6.6 1.1 1.6 1.1 2.2 0 .5-.4.4-.9-.4-1.9-2.9-3.1.2-3.2 8.2l-.2 8.2-1-7.5-.9-7.4-2 3.8c-2.8 5.4-3.5 3.7-.8-1.9 1.2-2.5 2-4.8 1.7-5.1s-4.2-.2-8.7.3l-8.3.8-1.3 5c-2.8 10.1-6.4 25.5-6.4 27 0 .9 1.6 2.3 3.5 3.1 4.1 1.7 4.8 1.7 4 .4-.3-.6-.2-1 .3-1s1.9-2.1 3-4.8c1.2-2.6 2.1-4 2.2-3.1 0 .9-.9 3.7-2 6.2s-1.7 5.2-1.4 6.1c.5 1.3.2 1.5-1.2 1-1.1-.4-2.6-1.3-3.5-2-.8-.8-3.1-1.9-5-2.5-1.9-.7-4.5-2-5.8-3.1-1.3-1-2.9-1.8-3.5-1.8-.7 0-3.7-1.2-6.7-2.6-2.9-1.4-6.3-3-7.4-3.4-1.1-.5-5.4-2.4-9.5-4.3-4.1-1.8-9.1-4-11-4.7s-4.3-2-5.3-2.9c-1.7-1.4-2-1.4-3.2.2-1.6 2.3-2.2 2.2-2.1-.6.1-1.9-.5-2.2-4.2-2.5s-4.4 0-4.9 1.7c-.3 1.2-1 2.1-1.5 2.1s-.7-.4-.3-1c.3-.5-.7-1.6-2.2-2.4-3.2-1.7-2.5-1.9 7-1.6l6.7.2.2-4.4c.2-7.9.5-9.6 1.8-12.7.7-1.7 1-3.8.6-4.6-.3-.9-.2-1.3.4-1s1 0 1-.8c0-1.7-3.7-5.7-5.3-5.7-1.4 0-12.1-7.1-12.5-8.3-.4-1.4 1-.9 3.6 1.4 4.5 3.9 11.5 7.1 12.3 5.6.8-1.3 2.4-20.7 1.8-20.7-1 0-11.9 4.8-13.1 5.7-.7.6-2.6 1.3-4.1 1.7-1.9.5-2.7 1.2-2.3 2.1.3.8.1 1.7-.4 2-.6.4-1-.1-1-1s-.4-1.3-1-1c-.5.3-1 1.8-1 3.3l-.1 2.7-1.3-2.4c-1.3-2.4-1-6.5.4-5.6 1.3.8 20-7.4 20-8.8 0-.4.6-.7 1.4-.7.7 0 1.6-.9 1.9-2 .4-1.5-.7-2.8-4.5-5.6-3.1-2.2-5.8-3.4-6.9-3.1-2.6.7-2.6-3.4.1-5.8 1.9-1.8 2-1.7 2 .6 0 1.8 1.4 3.5 5 6.2 5 3.7 7 4.5 7 2.7 0-.5 2.5-4.2 5.5-8.2 3.1-4 5.8-8.5 6.2-10.1.3-1.5 1.1-2.7 1.7-2.7 1.8 0 5.6-4.5 11.4-13.1 2.8-4.2 5.8-8.4 6.7-9.3 2.8-2.8.7-3.7-3.7-1.5-2.2 1.1-4.2 1.8-4.5 1.6-.2-.3 2.6-1.9 6.3-3.7 6.1-2.8 6.8-3 8.3-1.5.9.9 6.2 3.8 11.8 6.5 11.3 5.4 10.1 5.6 15.6-2.6 3.3-4.9 3.4-6.2.5-6.6-1.3-.2 3.3-1 10.2-1.8 6.9-.7 15-1.7 18-2 3-.4 8.2-.8 11.4-.9 5.4-.1 5.8 0 4 1.3M910.8 183c6.9 28.1 8.9 37.2 10.2 46 .6 4.7 1.4 9.8 1.7 11.5 2 12.7 1.8 22.4-.3 12.7-1.1-5.1-1.2-5.4-1.3-8 0-1.3-.5-2-1.1-1.7s-1-.4-1-1.6c0-1.3-1-3.3-2.2-4.6-3-3.2-1.5-2.9 1.9.4 2.1 2.2 2.5 2.4 1.9.8-.5-1.1-1.5-7.1-2.3-13.4-.7-6.3-2.2-14-3.2-17-1-3.1-2.1-8.1-2.5-11.1-.3-3-1.6-9.1-2.9-13.5-2.3-7.6-4.4-18.6-3.4-17.5.2.3 2.3 7.9 4.5 17m95.7 11c-.6.9 4.4 18.8 8.5 30.5 1.1 3.2 1.9 6.4 1.7 6.9-.4 1.1-4.6-11.4-8.7-25.4s-3.8-13.9-7.7-1c-1.9 6.3-4.6 15.3-6 20-5.7 18.9-5.6 17.1-1.7 25.6 1.9 4.2 3.3 7.8 3.1 8.1-.5.4-5.7-10.3-5.7-11.7 0-.6-.4-1-1-1-.5 0-1-.6-1-1.4s-.6-2.1-1.2-2.8c-.7-.7-1.4-2.1-1.4-3.1-.2-1.4.1-1.5 1.2-.6.8.7 1.6 1 1.8.8.3-.3 4.9-14.9 7.6-24.4.5-1.7 2.2-7.1 3.9-12 1.6-5 2.7-10.4 2.6-12l-.4-3 2.5 2.8c1.3 1.6 2.2 3.2 1.9 3.7m34.4 22c1.6 3 3.2 7.5 3.5 10 .4 2.5 1.1 6.5 1.7 9 1.1 5.1 1.7 19.3.8 18.2-.4-.6-2.9-20-3.2-25-.1-2.2-1.4-1.3-4.2 2.9-2.6 4.1-2.7 4.2-1.1 8.3 1.3 3.4 1.3 3.8.1 2.2-.8-1.1-1.5-2.6-1.5-3.4 0-2.4-2.3-.9-8 5.1-5.3 5.7-5.4 5.9-3.5 7.4 1.4 1.1 1.5 1.4.3 1-1.1-.4-1.8.2-2.3 1.6-.7 2-.8 2-1.4-.8-.4-2-1.4-3.1-3.1-3.6-2.4-.7-2.4-.7-.2-.8 2.5-.1 2.4-1.3-.5-9.5-.7-2.1-1.3-4.4-1.2-5 0-.6 1.3 2.5 2.8 6.8l2.7 7.9 4.5-4.6c8.6-8.7 14.9-17.4 14.9-20.4 0-1-2.9-4.2-6.5-7.2-3.6-2.9-6.5-5.6-6.5-5.9 0-.6 2.8 1.6 7.7 6.2 1.8 1.6 3.6 2.6 4 2.2s.2-1-.4-1.4-1.8-2.4-2.7-4.6c-3.1-7.5-1.4-5.8 3.3 3.4m8.8 41.2c-.2 1.5 0 2.5.4 2.2.9-.5 1.3 1.2 4.4 19.6 1.3 8 3.3 18.8 4.5 24 1.1 5.2 2.3 10.6 2.6 12 .4 2.2-.1 2.8-3.8 4.4-2.4 1.1-4.8 2.6-5.5 3.4-1 1.3-1.4 1.2-2.7-.1s-5.9-2.2-22-4.4c-4.7-.6-4.8-.6-4.1 1.8.7 2.3.7 2.3-.8.4-1.4-1.7-1.9-1.8-3.6-.8-1.1.7-7.8 4.3-14.8 7.9-7.1 3.6-14.3 7.5-16.2 8.7l-3.3 2 2.3 1.9c2.2 1.8 2.2 1.8.2.9-1.2-.6-2.5-1.1-2.8-1.1-.4 0-.4 3.3 0 7.2.9 9.2.1 8.6-1.4-1-.6-4-1.2-7.8-1.4-8.5-.1-.7.4-1.1 1.1-.9 1.2.2 12.4-5.4 27.2-13.8 3.6-2 7.3-3.9 8.3-4.3 2.1-.8 2.2-3.6.2-8.4s-1.1-5.5 1.1-.8c1.4 3.1 1.9 3.4 3.1 2.3.7-.8 3.8-8.7 6.8-17.7l5.4-16.2-4-8.7c-2.3-4.8-4.8-9.9-5.5-11.5-.8-1.5-1.2-2.7-.9-2.7.2 0 2.8 4.6 5.6 10.2 2.8 5.7 5.3 10.5 5.5 10.7.1.2 1.5-1 2.9-2.5l2.7-2.9-2.2 3.3-2.2 3.3 3.8 3.5 3.9 3.6-4.2-3.2c-3.1-2.3-4.4-2.8-4.8-1.8-1.3 4-7.9 24.1-9.5 29-1 3.2-1.4 5.8-.9 5.8 1 0 25.7-16.5 28.2-18.9 1.7-1.6 1.7-2.2.2-10.5-.8-4.9-1.5-10.5-1.5-12.5s-.5-4.3-1-5.1c-.7-1.1-.9-.5-.5 2 .5 3.3.4 3.3-1.1-.9l-1.7-4.4-2.8 3.4c-3.5 4.2-3.8 3-.4-1.5 3.1-4.1 3.1-5-.1-11-1.4-2.6-2.3-5-2.1-5.3.3-.2 1.3 1.1 2.1 3 2.5 5.1 4.8 4.5 4.2-1.2l-.5-4.6 1 4c.5 2.2.8 5.2.6 6.7m-517.2 52.7c1.8.5 2.9 1.4 2.7 2.2s0 1.1.4.7c1-1.1 8 5.3 7.6 7-.2.8.1 1.1.6.8s1.4 1.3 2 3.6c.8 3.1.8 4.4 0 4.9-.6.4-.8 1.4-.5 2.4.4.9 1.1 1.3 1.7 1 .5-.3 1-.1 1 .4 0 .6-.5 1.1-1.1 1.1-.7 0-1.8.8-2.5 1.7-1.2 1.6-1.3 1.6-1.4.2 0-.9-1.1-2.2-2.5-2.9-3.3-1.8-4.5-5.7-2.8-9.2 1.3-2.4 1.2-3.1-1-6.5-3.1-4.9-4.2-5.7-10.1-7.3-3.8-1-5.1-1.1-5.4-.2-.2.7-1.2 1.2-2.3 1.2-1.6 0-1.8-.3-1-1.9.9-1.6 1.7-1.7 6.3-1 2.9.5 6.7 1.3 8.3 1.8m-270.1 14.6c1.1.3 2.9 1.3 4 2.4 1.2 1.1 3 2 4.1 2.1 1.1 0 4.4.3 7.3.6 5.6.6 5.9.3 4.1-4.3l-1-2.8 2.5 2.4c1.3 1.3 2.2 2.9 1.9 3.7-.3.9.2 1.4 1.4 1.4 2.9 0 8.3 2.9 8.3 4.5 0 .9 1.4 1.5 3.8 1.7 3.6.3 8.2-1.5 12.7-5.1 1.9-1.5 1.9-1.5.5.4-.8 1.1-2.3 2.9-3.2 3.9-1.7 1.8-2.7 4.8-1.1 3.3.3-.4 2.1.4 3.9 1.8 4.4 3.4 8.4 3.1 8.4-.7 0-1.5.5-3 1-3.3 1.8-1.1 1.2 21.7-.7 28.5-1.6 5.8-3.3 7.9-3.3 4.1 0-1.3-.6-1.8-1.7-1.6-1 .2-2.4.4-3.2.4-1 .1-1.2 1.1-.8 4.3.5 3.2.4 3.7-.3 2-.5-1.2-1.6-2.5-2.5-2.8-.8-.4-1.5-1.2-1.5-2 0-1.8-8.8 2.1-11 4.9-2.1 2.5-6.2 1.7-7.7-1.5-1-2.3-1-2.3-2.6.9-1 1.8-1.7 4.2-1.8 5.5-.1 1.8-.3 1.6-1-1-1.2-4.1-2-4.1-1.7-.1.2 2-.2 3.4-1.2 3.9-.8.4-2.5 1.2-3.7 1.8-2.9 1.5-3.3 1.5-3.3-.3 0-.8-.9-2.4-2-3.5s-2-1.5-2-.8c0 .6-.7.3-1.5-.8-1.6-2.1-1.4-2.5-1.9 4.5-.1.8-.6 1.6-1.2 1.8-1.6.5-8.5-4.3-7.6-5.2.4-.5.1-.5-.5-.1-1.8 1-1.6 3.3.3 4.4 2.2 1.2 1 5.1-1.5 4.9-1.3-.1-1.7-.7-1.3-2.1.3-1.1.1-1.7-.5-1.3s-1-.4-1-1.8.3-2.8.8-3.1.9-2.6.9-5.2.5-6.7 1.2-9.2c.6-2.5 1-5.7.9-7.2-.1-1.8.6-3.1 1.8-3.8 1.6-.8 1.8-1.5 1.1-3.8-2.2-7.1-2.1-9 .8-11.1 3.3-2.3 4.2-6.6 1.1-5.8-2.6.7-2.5-2 .1-2.8 1.1-.3 2-1 2-1.5 0-1.1-4.3-5.5-6.2-6.4-1.2-.6-.2-.4 5.6.9m780.9 12.2c-.3 1-1 2.3-1.4 2.8-.4.6-1.3 2.3-1.8 3.9l-1.1 2.8 2.6-2.1c1.5-1.2 3.7-2.1 5-2.1 1.5 0 2.4-.6 2.4-1.6 0-.9.5-1.2 1.2-.8.6.4 1.7-.2 2.5-1.2 1.3-1.7 1.4-1.3.8 3.9-1.1 8.8-.9 10.3 1.3 13.2 2 2.6 2 2.8.5 6.8-.9 2.3-2.2 4.7-3 5.4-1.2.9-1.1 1.9.5 7 2.3 6.9 13.2 32.9 19.6 46.7 2.6 5.5 4.5 10.4 4.3 11-.4 1.2-3.5-5.2-13.4-27.9-3.6-8.3-7-15.2-7.4-15.3-.5-.2-.9-.8-.9-1.4 0-.5-.7-2.4-1.5-4.2-1.8-3.7-5.1-4.5-6-1.5-1.1 3.4-.7 28.7.5 30.9.7 1.3.7 2 0 2-1.2 0-1.4 24.7-.2 25.3.4.2 7-.2 14.7-.9s14.4-1.3 15-1.3c1.2-.1-5.1-5.4-12-10.1-7.6-5.2-15.4-11.4-15.5-12.3 0-.5 1.2.1 2.8 1.3 8.1 6.3 23.3 17 24.1 17 1.4 0 3.1 3.4 3.1 6.1 0 2-.1 2.1-1.2.7-1.2-1.5-2.5-1.5-14.3-.3-7.1.7-13.3 1.1-13.7.8-.5-.2-.8 0-.8.5 0 1.2 12.6 9.2 14.3 9.2.7 0 3.5-2 6.4-4.5 5.7-5 8.1-6.1 3.7-1.7-3.1 3-15.9 12.2-17.1 12.2-.4 0 .2-.7 1.3-1.5 2.4-1.8.9-1.9-5.1 0-2.7.8-5.1 1.3-5.3 1.1-.5-.5 8.9-3.6 11-3.6 3.2 0 1.9-1.9-3.9-5.6-7.2-4.6-8.3-5-9.4-3.3-.6 1-.9.3-1-2.1l-.1-3.5-.9 3.9c-.5 2.2-1.2 4.2-1.5 4.5-1.3 1.3.1-15.9 1.8-21.9 2.2-7.9 2.3-11.4.3-13-1.2-1-1.3-1.5-.4-2 .8-.5.8-1.3.1-2.6-.6-1.1-1-4.4-1-7.4-.1-3-.5-5.6-1.1-5.8-.5-.2-.8-.9-.5-1.5.2-.7-.9-1.8-2.6-2.4-1.6-.6-3-.7-3-.2s.4.9.9.9 1.1 1.2 1.4 2.7l.5 2.7-2-2.5c-2.1-2.6-2.1-3.1.2 6 2 7.6.4 5.4-1.9-2.9l-2.3-7.9-4.4 4.7c-2.4 2.6-4.3 5.3-4.4 5.9 0 .7 1.7 2.1 3.8 3.2 2 1.1 3.3 2 2.7 2-.5 0-2.1-.6-3.5-1.4s-3.5-1.4-4.7-1.5c-1.3 0-2.3-.4-2.3-.8 0-.8-7.3-7-12-10.2-1.2-.8-5.6-4.1-9.7-7.2-4.1-3.2-7.9-5.5-8.4-5.2s-2-.7-3.4-2.3c-2.8-3.2-3.3-5.2-.9-3.2 1.5 1.3 1.7 1.1 1.2-1.9-.2-1.8-.1-3.5.4-3.8.4-.3.8 1.1.8 3 0 2 .5 3.6 1.1 3.6 1.2 0 10.1-6.8 17.4-13.3l5-4.5-2-2.2-2-2.3 2.5 1.3c1.4.8 3.4 1.5 4.5 1.5 2.8.3 11.7-2.4 13.6-4.1.9-.8 1.9-1.1 2.2-.7.4.3.7-.9.8-2.8 0-3.2.1-3.2 1.1-1.2 1.5 3.1 2.4 2.9 4.4-.9 1.5-2.9 6.5-9.8 7.1-9.8.1 0 0 .8-.4 1.7M523.5 379c-.3.5.1 1 .9 1 .9 0 1.6.5 1.6 1.1 0 .7 1 .5 2.5-.5 3-2 3.9-2 3.1-.1-.6 1.7 1.2 7.5 2.4 7.5.4 0 1 .6 1.3 1.4.4 1.1-.2 1.4-2.8 1.2-2.2-.2-3.8.3-4.9 1.5-1.8 2.1-3.2 2.4-4.1.9-.3-.6-1.2-1-1.8-1-.7 0 .2 1.1 1.8 2.5 2.3 1.9 2.6 2.4 1.3 2.5-1 0-1.8-.5-1.8-1 0-.6-.6-1-1.3-1-1.5 0-8.2-8.4-9.6-12.2-1.6-4.3.4-4.1 2.5.2 1 2.2 2.4 4 3.1 4 .6 0 1.9.3 2.8.7 1.5.5 1.6.1 1.1-2.5-.4-1.7-.3-3.3.3-3.6.6-.4.8-1.3.4-2.1-.3-.8 0-1.5.7-1.5.6 0 .8.4.5 1m31.4 22.9c1.1 2.1 3.1 5.2 4.5 6.9 2.2 2.5 2.4 3.1 1.1 4.2-.8.6-1.8 1-2.2.7s-4.2.7-8.3 2.2c-5.1 1.8-7.4 3.1-7.2 4.1.3 1-.3.9-2-.5-1.3-1.1-2.5-2.2-2.8-2.4s.3-.1 1.3.2c2.6 1 2.2-2.5-.7-5.2-2.5-2.3-3-5.6-1.3-7.8.5-.7.6-1.6.3-2.2-.8-1.3 2.6-2.3 4.9-1.5 1 .4 2 .1 2.5-.7.7-1 1.1-.8 1.9 1.1.5 1.4 1 1.8 1 .9.1-1.9 2.1-3.9 3.8-3.9.7 0 2.1 1.7 3.2 3.9m487 55.9c0 4.2.5 12 1 17.2.4 5.2.9 10.4.9 11.5.1 1.1.5 3.8 1 6l1 4 .2-6c.2-7.9 0-21.6-.5-28.3-.2-2.8 0-5.2.4-5.2.5 0 1 5.7 1 12.7.1 7.1.4 13.7.6 14.8s.4 4.5.4 7.5l.1 5.5 3.1-3.2 3.2-3.1-3.1-12.3c-1.7-6.8-2.8-12.7-2.3-13.2.4-.4 1.1 1.4 1.4 4s1.7 8.3 3 12.6c2.4 7.3 2.4 7.8.8 10-1 1.2-2.6 3.8-3.8 5.8-1.9 3.3-1.9 3.7-.4 4.7 1.3.9 1.1 1-1.4 1-1.6-.1-4.9.4-7.2.9-2.4.6-4.1.7-3.8.3.2-.4 1.7-1 3.2-1.3 4.7-1 5.4-2 4.4-5.3-.5-1.6-1.2-4.6-1.6-6.7-.8-4.7-2.1-3.9-5.5 3.3-1.3 2.7-2.5 4.8-2.8 4.6-.2-.3 1-3.3 2.8-6.7 2.6-5.2 3-6.7 2.1-8.6-.6-1.4-.7-2.2-.2-1.9 1.5 1 1.7-1.2.9-8.3-.4-3.6-.4-8.6-.2-11.1.7-5.8-.6-4.5-4 3.9-3.1 7.8-3.1 7.9-.4 10.8 1.2 1.3 1.9 2.5 1.7 2.7-.3.3-1.7-1-3.2-2.9l-2.7-3.4 4-8.6c4.6-9.6 5.7-13.9 4.1-14.9-.6-.4-1.1-1.2-1.1-1.8 0-.7.5-.6 1.4.1 1 .9 1.5 3.5 1.5 8.9m-125.7-3.6c-.7 2.4-1.6 7.2-2.2 10.8s-1.5 7.4-1.9 8.5c-1.8 4.2-7 20.1-7.6 23.5-.4 1.9-1.3 4.4-2 5.6-.7 1.1-3 8.1-5.1 15.5-2 7.4-5.4 17.1-7.5 21.7-2.2 4.6-3.9 8.7-3.9 9.1 0 .5-.7 1.4-1.5 2.1-1.3 1.1-1.5.9-1.5-1.3 0-1.3.6-3 1.4-3.7.8-.6 1.2-1.9.9-2.7-.4-1.1-.2-1.4.5-.9.8.5 1.2 0 1.2-1.3 0-1.2.4-2.1.9-2.1s1.5-2.5 2.1-5.6c.7-3.1 2-6.4 3-7.4 1.1-1.1 2.2-3.6 2.5-5.7.4-2.1 1.1-5.3 1.7-7.1 1.4-4.5-.6-6.9-2.2-2.7-1.4 3.6-4.9 8.5-6.1 8.5-.5 0-.2-1.5.8-3.3.9-1.7 1.7-3.5 1.8-3.9 0-.3.3-1 .8-1.4.4-.4.7-1.7.7-2.8 0-1.7.2-1.8 1-.6s1 1.2 1-.5c.1-2 .1-2 1.6 0 1.3 1.7 1.6 1.8 2.4.5.6-.9.6-1.6 0-1.8s-1-.8-1-1.3c0-.6.4-.8.9-.5s1.1-.1 1.5-.9c.3-.8.1-1.5-.3-1.5-1 0 1.5-6.8 4.8-13.6 2.8-5.6 5.6-14.7 7-22.4 1.3-6.9 4.3-16.2 5-15.5.2.3-.1 2.4-.7 4.7m-64.2 4.4c0 1.7 1.8 7.6 6 19.9 2.8 8 3.1 13.2.9 14.5-.6.4-1.5 3.9-1.9 7.8-.4 3.8-1 7.5-1.4 8.1s-1 3.2-1.3 5.8l-.5 4.8 2.2-2.5c2-2.2 3.6-4.4 9.1-12.6 1.8-2.8 5.2-5.5 9.7-7.8 1.7-.9 3.2-2.3 3.2-3.1s.4-1.5.8-1.5c.5 0 1.9-.8 3-1.8 1.2-.9 3.3-2.5 4.8-3.6 1.6-1.1 2.4-2.5 2.1-3.6-.3-1.3 0-1.6 1.3-1.3 1.2.3 2.1-.5 3-2.6.6-1.7 1.9-3.6 2.8-4.3.8-.7 1.3-.9 1.1-.3-1.9 4.2-3.5 7.1-4.3 7.6-.5.4-.6 1.7-.3 2.9.4 1.7.2 2-1.1 1.5-.9-.3-1.4-.3-1 0 .3.3-3 8.3-7.3 17.7-4.4 9.5-7.9 17.4-7.9 17.7 0 .2-.3.2-.6-.1s1.5-4.8 3.9-9.9c2.4-5.2 5.2-11.7 6.2-14.4 1.1-2.8 2.2-5.2 2.5-5.5.9-.7 2-4 1.4-4-1.5 0-15.7 11.1-18.6 14.5-1 1.1-2.8 3.1-4.1 4.5-7.6 7.9-13.2 18.3-10.5 19.3.7.2.5.3-.5.1-1-.1-3.5.4-5.5 1.2-3.3 1.3-3.5 1.3-1.8-.1 1.1-.8 2.6-1.5 3.3-1.5 1.9 0 1.6-1.7-.8-4.1-1.8-1.8-1.8-2-.2-1.7 1.3.2 1.9-.6 2.3-3.2.3-2 .9-4 1.2-4.6.4-.5 1.2-4.8 1.8-9.4.6-4.7 1.8-9.2 2.6-10.1 1.8-2 1.8-3-.1-8.8-1.2-4.1-4.1-14.7-6.5-23.9-.4-1.8-.4-3.2.1-3.2s.9.7.9 1.6M733.6 528c.8 0 1.4.5 1.4 1.2 0 .8 4.6 1 17.3.6 9.5-.3 14.7-.2 11.7.2-3 .5-8.6.9-12.5 1-6.2.2-6.6.3-3.5 1.1 4.8 1.2 17.7 2.7 29 3.4 9 .6 31.8 3 35 3.7.8.2 1.5-.4 1.4-1.2-.1-1.1 1-1.6 4-1.7 6.4-.2 12.8-.8 16.7-1.7 3.1-.7 3.6-.5 4.7 1.8 1.2 2.8 2.4 2.4-12.5 4.2-2.4.3-4.5.9-4.7 1.3-.5.8 3.6 3.1 5.5 3.1.6 0 2.5.6 4.2 1.4 1.8.8 5 2.1 7.2 3l4 1.7-4.5-.6c-2.5-.3-6.3-1.2-8.5-1.9s-5.3-1.6-6.9-2c-2.5-.6-2.8-.5-1.8.7.9 1.1.8 1.8-.8 3.2-1.3 1.2-2 3.1-2 5.5 0 4 .7 5.3 2.4 4.3.6-.4 4.7-2 9-3.5 14.7-5.2 13.9-4.4 13.2-11.1-.3-3.1-1.3-6.9-2.2-8.2-.9-1.4-1.5-2.7-1.3-2.9.2-.3 4.2-.7 8.9-1 8-.6 8.4.2 1 1.8-1.5.3-3 1.7-3.7 3.3-1.4 3.1-1.1 12.9.3 12.6.5-.1 1.8-.5 2.9-.8 1.6-.6 1.6-.3-.5 1.4-1.4 1.2-3.6 2.4-5 2.7s-7.7 2.3-14 4.4l-11.6 3.8-14.9-2.9c-8.3-1.6-20-4.1-26.1-5.5-8.9-2.2-11.4-2.5-13.2-1.5-2.3 1.2-3 .3-1.2-1.5 1.3-1.3-2.6-4-16-11.3-5.2-2.8-10.3-5.7-11.3-6.4-1.4-1-1.9-.9-2.7.3s-1 1.1-1-.8c0-1.3-.6-2.2-1.5-2.2-.8 0-1.5-.5-1.5-1.1s.9-.8 2.1-.4c1.8.6 2 .4 1.5-1.7-.3-1.2-.3-1.7 0-1.1.3.7 1.2 1.3 2 1.3M875 561.4c0 1.2-1.1 3.5-2.5 5s-2.5 3.2-2.5 3.9c0 .9-.2.9-.8-.1-.6-.9-1.5-.5-3.4 1.5-1.4 1.6-7.8 6.8-14.2 11.8-6.5 4.9-12.2 9.7-12.7 10.7s-1.6 1.8-2.4 1.8-1.8.7-2.3 1.5c-.4.9-5.9 6.7-12.1 13-6.2 6.2-11.1 11.7-10.8 12.2s-.3 1-1.4 1c-1 .1-1.9-.4-1.9-1 0-2.5-32.3-24.2-34.7-23.3-.7.3-1.3-.1-1.3-.9s-1.7-2.4-3.7-3.5l-3.8-2.1 3.6.6c3.5.5 3.6.4 3.3-2.2-.4-2.7-.3-2.7.4-.3 1.1 3.4 4.2 3.6 8.7.6 2.1-1.5 4.3-2.6 4.9-2.6s-.6 1-2.6 2.2c-2.1 1.2-3.8 2.6-3.8 3.1 0 .6 8.6.8 22.8.4 27-.8 36.2-1.7 36.2-3.7 0-.5 1-1.2 2.2-1.6 6-1.9 29.1-21.1 31.8-26.4 2.3-4.6 3-5 3-1.6m328.5 113.5c.3 1.1 1.6 2.1 2.8 2.3 1.3.2 2.3 1.1 2.4 2.3l.3 2-.9-2-1-2v2c-.1 1.1.6 4.1 1.6 6.7l1.6 4.6 1.7-3.1c1-1.8 2.6-5.8 3.6-9 1.3-4.1 2.3-5.7 3.6-5.7 1.6 0 1.4.9-1.6 9.2-1.8 5.1-3.6 10.9-4 12.9-.6 3.1-.9 3.6-3 3.2-1.9-.4-2.9-1.8-4.6-6.6-1.2-3.4-3.3-9-4.6-12.5-2.2-5.9-2.2-6.2-.4-6.2 1 0 2.1.9 2.5 1.9m24.3 5.9c3.1-1.1 8.5.8 13.4 5 1.2.9 1.9.6 3.6-1.8 3.1-4.1 8-4.9 12.9-1.9 5.3 3.1 8.3 6 8.3 7.8-.1 1-.7.5-1.6-1.2-1.5-2.8-3-3.8-2.1-1.3.4 1 .1 1.3-.8 1-.9-.4-1.2 0-.8 1.4.6 2.5-1.4 6.5-2.9 5.6-.7-.4-.8-.3-.4.5.4.6 0 1.4-.8 1.7-2.4.9-1.9 2.4.8 2.4 1.5 0 3.3-1.1 4.5-2.6 1.8-2.3 2.1-2.4 2.2-.8 0 1.8.1 1.8.9-.1.6-1.3.9-1.5.9-.5.1 3.1-6.1 8.1-7.4 6-.3-.5-1.4-1-2.3-1-1.5 0-1.5.2-.2 1 .8.5 1.1 1 .7 1-1.5 0-5.1-2.2-9.7-6-3.8-3-5-3.5-7.5-2.9-1.6.4-2.5.7-2 .8.6.1-.3 1-2 2.1-2.4 1.5-2.6 2-1.3 2.5.9.4 2.6.1 3.8-.5 1.4-.8 2-.8 1.6-.1-.4.5-2.3 1.5-4.4 2.1-3.3.9-4.1.7-7.7-1.9-2.2-1.5-4.4-3.8-5-5-.5-1.1-1.5-2.1-2.2-2.1-.6 0-1.5-.5-1.9-1.2q-.75-1.05.6-.3c1 .6 1.2.3.8-1.3-.4-1.2-.3-2 .1-1.8.3.2 1.5-1.7 2.6-4.2 1.1-2.8 2.1-4 2.3-3.1.2 1.4.8 1.5 3 .7"/><path d="M771.2 55.2c-1 3-5.7 39.2-6.4 49.6-.3 3.6-.1 4.3 1.7 4.7 2.2.4 34.9 2.2 58 3.2l15 .6-2.5-2.9c-1.4-1.6-3.1-3.3-3.8-3.7-.8-.5-4.1-3.5-7.5-6.7-3.4-3.1-8.4-7.7-11.2-10-2.7-2.3-7.5-6.6-10.6-9.4s-7.1-6.4-9-8c-5.3-4.6-13-11.5-18.1-16.3l-4.6-4.4zM689.8 82.7c-.8 1-4.1 6.1-7.3 11.3-3.3 5.2-6.2 9.7-6.5 10s-2.3 3.2-4.3 6.5c-3.2 5.4-11.8 17.8-14.7 21.2-.8 1-.7 1.3.4 1.3 2.1 0 12.3-4 18.1-7.1 2.8-1.4 6.4-3.3 8-4.2 4.5-2.3 16.3-6.7 18.1-6.7.8 0 1.7-.6 2-1.4.5-1.3-4.1-16.3-7.1-23.1-.7-1.7-1.9-4.5-2.6-6.3-1.6-3.7-2-3.9-4.1-1.5M695 82.1c0 .6.9 3.1 1.9 5.7s2.9 7.4 4.1 10.7 2.7 7.3 3.3 8.8c1.8 5.1 2.4 5.3 14.8 4.5 31.6-1.8 36.9-2.2 36.9-2.7 0-.3-2.6-1.7-5.8-3-3.1-1.4-11.8-5.4-19.2-8.9C705.1 84.9 696.5 81 695.4 81c-.2 0-.4.5-.4 1.1M700.4 118.9c.4.5-.3.7-1.3.4-1.7-.4-4.9.7-17.9 6.4-1.8.8-4.5 1.7-6 1.9-1.5.3-2.9.8-3.2 1.2-1.1 1.5-5.8 4.1-9.8 5.3-2.3.7-4.2 1.6-4.2 2.1s.4.7.9.4 2.9.5 5.3 1.9c2.3 1.4 5.3 2.5 6.5 2.5 2.5 0 7.5 2 8.4 3.3.7 1 10.5 5.2 16.7 7.2 4.2 1.3 4.4 1.3 7.4-1.6 2-2 2.8-3.7 2.5-5-.3-1-.1-1.9.3-1.9 1.4 0 2.4-8.4 1.1-8.8-.6-.2-1.1-1-1.1-1.8 0-2.5-4.3-14.4-5.2-14.4-.5 0-.7.4-.4.9M846.5 127.7c.3 3.8.8 9.5 1 12.8.3 3.3 1 13.2 1.5 22 1.6 25.5 3 43.6 4 49.3.7 3.6.6 6.1-.1 7.5-1.7 3.7 3.1-2.2 7.4-8.9 2-3.2 7.8-11.8 12.8-18.9 4.9-7.2 10.1-14.9 11.6-17.3 3.2-5.3 3.7-4.3-11.6-21.6-2.9-3.4-6.5-7.7-7.9-9.6-3.5-4.6-18.3-22-18.8-22-.2 0-.1 3 .1 6.7M658 144c0 .5.8 1.4 1.9 1.9 1 .6 2.2 2.2 2.5 3.6.4 1.4 1.3 2.5 2.1 2.5s1.5.9 1.5 1.9c0 1.1 1.3 3.3 3 4.9 1.6 1.6 2.6 3.2 2.3 3.6-.3.3.2.8 1.1 1.2.9.3 1.6 1.1 1.6 1.8 0 .6.9 1.8 2 2.6s2 2 2 2.6c0 .7.3 1.4.8 1.6 1.1.5 5.2 6.6 5.2 7.8 0 1.6.9 1.2 8.4-3.7 8.1-5.3 9.8-6.8 8.8-7.7-.3-.4 0-.4.8-.1 1.2.4 1.5-.4 1.6-4 0-2.5-.4-4.5-.9-4.5-.4 0-.5-.5-.2-1 .3-.6.1-1-.4-1-.6 0-1.1.8-1.2 1.7 0 1.2-.4.9-1-.8-.6-1.6-2.3-3.2-4.2-3.9-3.4-1.3-10.8-4.5-14.2-6.1-1.1-.6-3-1.1-4.3-1.2-1.2 0-2.2-.4-2.2-.8 0-1.2-8.9-3.8-9.5-2.8-.4.5-1.7.9-3.1.9s-2.2-.4-1.9-1-.1-1-.9-1c-.9 0-1.6.4-1.6 1M708 169.9c-3.5 1.7-8 5.2-10.8 8.2-.8.9-2.2 1.5-3.1 1.2-1-.2-2.3.3-3 1.1-.8.9-2 1.6-2.7 1.6-3 0-.1 9.2 4.6 14.5.9 1.1 2.8 4 4.1 6.5s2.9 4.8 3.4 5.2c1.3.9 3.4-5.9 2.9-9-1.2-6.9-1.3-7.1-4.2-6.9-2.3.2-2.7-.2-2.7-2.3 0-1.4.2-2.9.4-3.5.3-.5.5-2.1.5-3.5.1-3.3 3.9-4 5.8-1.1.7 1.2 2 2.1 2.8 2.1 2 0 6.2-9.3 5.8-12.9l-.3-2.9zM674 192.3c-4.7 3.5-10 7.7-11.8 9.4l-3.3 3 4.3 1.1c2.4.6 6.6 1.3 9.3 1.7 6.1.8 8 1.1 12.5 1.9 6.9 1.3 12.9 1.4 11.9.2-1.3-1.5-7.4-12.9-10.1-18.9-1.2-2.6-2.7-4.7-3.2-4.7-.6 0-4.9 2.9-9.6 6.3M808.5 204.5c-2.8 1.9-6.6 4.6-8.5 5.9s-5 3.8-6.9 5.5-4.2 3.2-5 3.2c-.9.1 11.5.9 27.4 1.8 16 .9 29.6 1.5 30.3 1.3.7-.3-2-2.7-6-5.5s-7.5-5.4-7.8-5.8c-1.5-1.9-14.7-9.9-16.5-9.9-1.1 0-4.3 1.6-7 3.5M657.3 210.4c.9 1.3 1.9 3.7 2.1 5.3.3 1.5 1.4 4.8 2.5 7.3 2.3 5.3 3.3 8 3.7 9.9.1.8.9 2 1.7 2.8 1.3 1.3 1.8 1.2 3.8-.7 1.3-1.2 8-6.3 14.9-11.3l12.5-9.2-4-.7c-12.4-2.2-34.9-5.8-36.7-5.8-1.9 0-1.9.1-.5 2.4M696.5 219.4c-1.6 1.2-5.7 4.1-9 6.4-3.3 2.2-7.4 5.3-9 6.9-1.7 1.5-4.4 3.4-6 4.2l-3 1.3 2.3.9c1.3.5 2.8.7 3.3.3.5-.3.9-.1.9.3 0 .5 3.3 1.7 7.3 2.6 7.7 2 11.9 3.3 15.4 4.9 2.6 1.3 7.4.2 6.8-1.5-.2-.6-.9-3.1-1.5-5.5-.6-2.3-1.5-4-1.9-3.7-1.3.7-2.4-9.6-1.2-10.8 1.6-1.6 1.3-5.7-.4-6.3-.8-.4-1.2-1-.9-1.5.8-1.4.1-1.1-3.1 1.5M775.8 222.6c-.3.3-8.8.7-18.8 1-19.7.5-21.2.9-20.3 5.7.4 2 .1 2.7-1.1 2.7-2.4 0-2 1 2.9 6.4 2.5 2.8 4.5 5.5 4.5 6 0 .6 2.2 2.6 4.9 4.4 2.7 1.9 5.2 4.4 5.5 5.5.6 2.1.7 2.1 1.8.3.8-1.4.8-2.8-.1-5.2-.8-2.2-.9-4.5-.2-7.2.5-2.3.6-4.4.2-4.8-.3-.4 0-.4.7 0s1.2.1 1.2-.8c0-2.1 3.5-2.9 7.4-1.6 3.4 1.1 5.5 3.8 3.8 4.9-1.4.9-2.5 6.9-1.5 8.3.4.7.8 1.7.8 2.3 0 .5 1.5.9 3.3.9 2-.1 3.2.3 3.2 1.1 0 1.5-2.8 2.8-4.2 1.9-.6-.4-1.4 0-1.9.7-.6 1-.9 1-.9.2 0-.9-1.1-.7-3.4.6-1.9 1.1-3.7 1.7-4 1.4-.3-.4-.3.9 0 2.8s1.7 4.4 2.9 5.5c1.3 1.2 2.2 2.4 1.9 2.7-.3.2.8 1 2.4 1.6 1.8.8 3.4 2.5 4.2 4.7.9 2.2 2 3.4 3 3.2 1.2-.3 1.8-2.9 2.8-11.8.7-6.3 1.9-16.9 2.7-23.5s1.5-13.9 1.5-16.3c0-3.7-.3-4.2-2.3-4.2-1.3 0-2.6.3-2.9.6M786 223.3c0 1.9 4.4 14.4 6.8 19.2 2.7 5.5 8.2 18.2 8.2 19 0 .3 2.1 5.2 4.6 10.8 4.9 11 6.5 14.4 11 24.9 1.5 3.8 3.1 6.8 3.5 6.8s1-1.2 1.4-2.8c1.2-5 9.5-27.2 11.9-32 2.2-4.3 13.5-32.7 16.3-41 .6-1.7.8-3.2.5-3.2-.4 0-4.1-.3-8.2-.5-45.5-2.8-56-3-56-1.2M783.6 229c-2.3 13.6-5.9 53.1-4.8 54.2.5.5 9.2 5 19.3 10.1l18.5 9.2-1.1-3.3c-.5-1.7-1.3-3.2-1.7-3.2-.5 0-.8-.7-.8-1.5 0-1.8-3-9.1-9.3-22.5-2.4-5.2-6.3-14.5-8.7-20.5-2.4-6.1-4.8-11.6-5.3-12.3-.5-.6-2-4-3.2-7.5l-2.3-6.2zM875.4 277.9c-5.6 2.7-10.4 5.3-10.7 5.8-.9 1.5 1.8 3.5 9.9 7.7 7.9 4 10 4.4 10.8 1.8.6-1.9 2.6-16.6 2.6-18.8 0-2.1-1.6-1.7-12.6 3.5M889.5 278.2c-.9 7.7-1.2 18.8-.5 18.8.4 0 2.4-.8 4.6-1.9 2.1-1 7-2.8 10.7-4.1 3.9-1.3 6.6-2.7 6.4-3.3-.4-1.2-18.5-14.5-19.9-14.6-.4-.1-.9 2.3-1.3 5.1M768.9 287.8c-3 1.3-8.9 3.9-13.3 5.7l-7.8 3.3 5.6 3.8c3.1 2 5.5 3.9 5.3 4.1s-4.8-1.9-10.2-4.7c-5.3-2.7-10.4-5-11.4-5-.9 0-5.8-1.2-10.9-2.6-10.5-3-12.9-2.4-9 2 1.3 1.4 3.3 2.7 4.5 2.9s2.6.6 2.9 1c.4.4 2.2.7 4.1.7 3 0 3.2.2 2.1 1.9-.7 1.1-1.6 1.7-2 1.5-.4-.3-.8.2-.8 1.1 0 1.8 3.9 3.5 8 3.5 1.6 0 3 .5 3.2 1.2.6 1.8 3.7.2 4.8-2.4l.9-2.3v2.3c.1 2.4 3.5 6.3 9.6 11.2 3.6 2.9 4.1 3 14 3 11.9 0 13-.7 11.9-6.7-.4-2.1-.8-4.6-1-5.6s.1-1.5.5-1.2c.5.2 1.2 2.6 1.5 5.2 1 7.1 1.6 8.5 2.9 7.5 1.5-1.1 10.9-4.3 11.4-3.8.2.2-1.8 1.1-4.3 2.1-2.6 1-5.5 2.6-6.6 3.7-1.6 1.6-2.2 1.7-3.4.7-1.1-.9-4.4-1-12.1-.5-5.9.4-10.9.9-11.1 1.1s1 1.9 2.7 3.7 3.1 3.8 3.1 4.3c0 1.1 5.3 5.4 13.5 10.9l4 2.8-3.1-.7c-3.6-.7-4.4.7-4.4 8.2 0 4.9-.1 4.8 8.5 2.8 4.5-1.1 6.8-2.3 9.3-5 1.8-1.9 3.9-3.5 4.6-3.5.8 0 1.9-.7 2.6-1.5 1.1-1.3 1-2.3-.4-5.3l-1.6-3.7 2.3 2.7c1.2 1.6 2.6 2.8 3 2.8.9 0 10.9-20.1 12.8-25.5 1.1-3.2 1.4-3.6 1.7-1.8.2 1.2-1.2 5.8-3.2 10.1-2.1 4.9-3.3 8.9-2.9 10.3.4 1.9.3 2.1-.6.9-.8-1.2-1.2-.9-1.7 1.7-.3 1.7-1.2 3.4-2 3.7-2.4.9-1.7 3.5.9 2.8 2.6-.6 4.6-3 4.7-5.4 0-.9.6-2.3 1.3-3 3.1-3.2 5.4-15.5 4.7-25.3-.1-2.4-2.7-6.5-4-6.5-.6 0-3.9-1.7-7.4-3.9-7.5-4.5-28.4-14-30.7-13.8-.9 0-4 1.1-7 2.5M708.2 291.2c-1.1 1.5-6.2 13.7-6.2 15.1 0 1.1 15.8.6 18.7-.6 1.2-.6 2-1.4 1.7-1.9-.3-.4-.9-.6-1.4-.3-.4.3-1.1-.7-1.4-2.1-.7-2.5-8.1-11.4-9.6-11.4-.4 0-1.2.6-1.8 1.2M799 368.4c-.5 1.5-1 3.5-1 4.4s-.9 4.9-2 8.7c-1.2 3.9-2.3 8.8-2.6 10.9-.3 2.2-.8 4.4-1 4.8-.3.5-.5 4-.5 7.8 0 4.7-.4 7-1.2 7-.6 0 2.8 3.9 7.6 8.6 4.7 4.7 9 8.3 9.5 8 .9-.5 4.3 2.9 3.6 3.6-.2.3.8 1.5 2.2 2.9 2.6 2.4 2.6 2.4 1.5.1-.6-1.2-1.6-2.2-2-2.2-1.3 0-.6-4.7.9-6.5.7-.8 1.6-1.2 2.1-.9 1.4.8 1.1-4-.3-5.5-1.1-1.1-1-1.3.2-.7 1.3.7 1.3.6 0-.6-.8-.7-1.4-2.4-1.2-3.7s-.1-2.8-.7-3.4-1.1-2.7-1.1-4.6c0-2-.9-7.2-2.1-11.6-1.1-4.4-2.2-9.6-2.4-11.5-.6-6.7-2.7-12.5-5.6-15.4l-2.8-2.9zM837 378.3c0 1.7.7 9.1 1.6 16.2.9 7.2 1.6 13.6 1.7 14.3 0 .9.8 1.1 2.1.7 1.2-.3 7.6-1.4 14.3-2.3 6.7-1 12.5-2 12.7-2.3.3-.2-1.2-2.3-3.2-4.6-2-2.2-5-5.8-6.7-7.8-3.5-4.4-7.7-8.5-8.7-8.5-1.1 0-5.8-4.9-5.8-6.1 0-.5-1.2-.8-2.7-.7-1.8.2-2.7-.1-2.5-1 .1-.6-.5-1.2-1.3-1.2-1 0-1.5 1-1.5 3.3M655.5 387.6c-10.9 7.8-11.2 8.2-7.8 8.9 1.5.4 3.7 1 4.8 1.5 1.1.4 3.2 1.2 4.7 1.8s5 1.4 7.7 1.8l5 .6-.5-2.8c-.6-3.7-4.5-15.7-5.4-16.7-.3-.4-4.2 1.8-8.5 4.9M741.9 410.1c-.1.8-.1 2.3 0 3.4 0 1.1-.6 7.4-1.4 14l-1.4 12 .6-14.3c.3-7.9.2-14.2-.3-14.2-.5.1-6.3 5.1-12.8 11.4l-12 11.3 2 3.9c2.3 4.7 6.2 10 12.8 17.1 5.6 6.1 7.6 5.8 7.7-1.1 0-2.2.4-6.1.9-8.6.6-3.1.7-1.5.3 5.4-.5 9.7-.5 9.9 1.4 8.5 3.2-2.3 43.4-44.2 44.1-45.9.3-.7-17.1-2.8-32.5-3.7-7.5-.5-9.3-.3-9.4.8M725.9 475.6c-11.4 11.6-11.9 12.1-11.9 12.7 0 .5 22.3 11.6 29.5 14.7 2.5 1.1 4.5 1.7 4.5 1.5 0-1.4-2.4-11.7-3.6-15.4-.8-2.4-1.2-4.6-1-4.9.7-.6 2.4 3.9 3.8 9.8 2.1 9.1 2.2 9.1 6.1.6 2.1-4.3 3.7-8.1 3.7-8.5 0-1-19.8-20.1-20.8-20.1-.4 0-5.1 4.3-10.3 9.6M356 127.4c0 .8.4 1.7.9 2s1.9 5 3.1 10.3c1.3 5.4 2.9 11.1 3.7 12.7l1.5 2.8 4.4-6.6c2.4-3.6 4.4-6.8 4.4-7.1s1-1.5 2.2-2.7c2.1-2.1 2.1-2.1.2-3.5-2.3-1.7-15-7.8-18.1-8.8-1.7-.5-2.3-.2-2.3.9M350.7 131.8c-.9 1-1.7 2.2-1.7 2.6s-.5 1.2-1.1 1.9c-2.4 2.7-9.6 14.2-9.2 14.7.3.3 1.8-1 3.4-2.8 3-3.4 4.9-4.1 4.9-1.8 0 1.8-2.5 3.8-3.5 2.8-.5-.4-.5-.2-.1.5.3.6-.1 1.3-1.1 1.6-1.5.4 4 1 8.2 1 .6 0 1.7.7 2.5 1.5 1.3 1.4 1.2 1.5-.5.8-1.5-.5-1.7-.4-.9.4.6.6 2.9 1 5 .8 3.8-.3 3.9-.4 3.8-3.8s-3.7-17-5.3-19.9c-1.2-2.2-2.6-2.3-4.4-.3M318.3 214.2c-2.6 5.2-3.5 12.5-1.5 13.3.7.3 1 1.1.7 1.7-.4.7.2.3 1.3-.9s2.2-2 2.5-1.7c.5.6 5.2-2.1 7.5-4.3.6-.6 1.2-2.5 1.2-4.2 0-2.5-.8-3.6-4-5.6-2.2-1.4-4.3-2.5-4.7-2.5-.5 0-1.8 1.9-3 4.2M362.4 224.3l-10.2.9-.6 4.9c-.4 2.7-.4 8.3 0 12.3.7 8 .5 7.8 8.8 11.1 6.1 2.4 5.1 4.1 10.2-16.7 1.4-5.9 2.4-11.3 2.2-12-.2-1-2.4-1.1-10.4-.5M340.8 227.5c-7.8 1.6-9.1 2.2-8.4 4 .3.8-.6 1.4-2.5 1.7-2.2.4-2.9.1-2.5-.9.3-.7.1-1.3-.4-1.3-.6 0-1 .5-1 1.1s-.7.9-1.5.5c-.9-.3-1.5.1-1.5 1.1 0 1.3-.3 1.3-1.5.3-.9-.7-1.8-1-2.1-.8-.7.8 9.3 6.8 11.4 6.8.9.1 2.8.7 4.2 1.5 3.4 2 3.7 1.9 4.9-1.3.6-1.5 1.6-3.6 2.3-4.7 2.3-3.5 5.8-9.5 5.6-9.4-.2 0-3.3.7-7 1.4M1039.5 306.4l-15 10.1 8.6 1.2c4.7.7 10.5 1.6 12.9 2.2 2.4.5 4.7.8 5.1.6.8-.5 4.3-21.9 3.8-23.2-.2-.5-7.1 3.6-15.4 9.1M1008 361.1c-1.9 1.7-6.8 5.5-10.8 8.6-4 3-7.2 5.8-7 6.2.2.5 6.9 5.8 15.1 11.9 10.8 8.1 14.7 10.5 14.7 9.2 0-1-1.2-7.1-2.6-13.6-1.4-6.6-3-14.9-3.6-18.7-.7-3.7-1.4-6.7-1.7-6.7-.3.1-2.2 1.4-4.1 3.1M1015.2 364.7c.5 2.6 2 10.8 3.4 18.2 1.3 7.4 2.8 14 3.2 14.7.5.9 2.2-.5 5.6-4.6 2.6-3.3 4.6-6.3 4.4-6.7-.5-1.2-15.9-24.7-16.8-25.6-.4-.5-.4 1.3.2 4M830.9 594.4c-.2.2-4 .7-8.4 1.1-11.9.9-11 .1-10.7 11 .3 8.5.5 9.4 2 8.6 2.3-1.3 19.7-19 19.5-19.8-.2-.9-1.8-1.5-2.4-.9"/></svg>