<svg xmlns="http://www.w3.org/2000/svg" width="1706.667" height="960" viewBox="0 0 1280 720"><path d="M0 267.6c0 178.1.3 267.3 1 266.9.6-.3 1-.1 1 .4 0 .6-.4 1.1-1 1.1-.7 0-1 31.3-1 92v92h532.9l3.4-3c1.9-1.7 3.8-3 4.2-3s-.4.9-1.9 2.1c-1.4 1.1-2.6 2.5-2.6 3s145.4.9 372 .9h372V0H0zm757.8-218c1.2.8 2.2 1.2 2.2.7 0-.4.8.6 1.8 2.4.9 1.7 12.1 12.5 24.7 23.9C799.2 88 812.4 100 816 103.4c10.4 9.8 9.4 9.5 12.9 3.4 3.6-6.2 3.9-6 1 .6-2.5 5.8-2 7.6 2.3 7.7 3 .2 3.1.2.6.6-2.6.4-3.9 2.7-1.9 3.5.5.1 5.7 6.1 11.5 13.3 5.9 7.1 14.1 17.3 18.4 22.5 5.6 6.9 7.8 9 8 7.6.2-1-1-7.7-2.8-14.9-1.7-7.3-3.8-15.9-4.6-19.1-.7-3.3-1.7-6.3-2.1-6.7-.5-.4-3.5-1.5-6.8-2.3l-6-1.5 5.8.6c4.7.4 5.7.3 5.7-1 0-.9-.5-1.9-1-2.2-1.1-.7-5.3-8.5-4.6-8.5.2 0 1.9 2.5 3.7 5.6 4.3 7.1 6.6 9.7 15.4 16.9 3.9 3.1 7.4 6.4 7.9 7.3 1 1.8-7.4-4.8-13.6-10.7-3.1-2.9-3.8-3.2-3.8-1.7 0 1.9 9 39.8 9.6 40.5.2.2 1.1-.2 2.1-1 1.5-1.3 1.5-1.2-.1 1.3-1.1 1.6-1.3 2.9-.7 3.2.5.4.8 2.3.6 4.4-.2 2-.5 4.8-.5 6.2-.2 2-.5 1.5-1.6-1.9-.7-2.4-1.1-4.8-.8-5.2.3-.5.3-.9 0-.9s-2.8 3.5-5.7 7.7c-6.9 10.4-14.2 20.7-15 21.3-1.2.9-13.9 20.1-13.9 21 0 .5 1.5 1.1 3.3 1.4 7.2 1.1 35.8 3.1 36.6 2.6.4-.3-.2-8.6-1.5-18.5-1.4-10.6-2.1-19.4-1.7-21.5.6-2.9.9-2.1 1.4 4.6.9 12.3 4.2 35.4 4.9 35.4.4 0 .5 1 .3 2.3-.3 1.5.8 4.4 2.8 7.8 1.8 3 4.5 8.3 6.1 11.9l2.9 6.5-.6-4.5c-.7-4.9-2.4-23.4-2.5-26.3 0-2.3-1.6-2.2-4.2.3-3.4 3.2-3.2 1.6.3-1.9 2.5-2.6 3-3.7 2.6-6-.4-2-.2-3.1.8-3.5.8-.3 1.5-.2 1.6.2 0 .4.5 7.4.9 15.7 1.1 18.2 2 26.5 2.9 26.5.4 0 .7.8.8 1.7.1 3.2 3.7 11.6 9.1 21.6 2.9 5.4 5.2 10.5 5 11.3s-3.3-4.5-7-11.8c-5.8-11.4-6.8-12.8-6.7-9.8 0 6.3 2.6 18 4.3 19.9 1.6 1.7 1.6 1.9-.5 2.4-1.4.4-1.8 1-1.3 1.9.6 1 .5 1-.9 0-1.4-1.2-2.7-1-8.9 1.3-4 1.5-9.3 3.4-11.8 4.2-7.4 2.6-9 4.1-8.7 7.8.2 3.2.4 3.3 5.2 3.8l5 .5 6.8-7.1 6.8-7.2-5.5 7.4c-3 4.1-5.3 7.8-5 8.2.2.4 2.2 1 4.4 1.4s4 1.1 4 1.6 1.2.9 2.8.9c1.5 0 3.6.6 4.7 1.4 1.9 1.3 2 1.2 1.6-3-.2-2.8.1-4.4.8-4.4.6 0 1.1 1 1.1 2.2 0 1.3.3 3.4.7 4.7.6 2.3.6 2.3 2.5-1 1.1-1.9 1.6-2.5 1.3-1.4-2.2 6.5-1.8 9.3 1.9 14.5 2 2.7 3.6 5.6 3.7 6.3 0 .6.7-.2 1.5-1.8 1.4-2.8 1.4-2.6.9 4-.8 9.1-.6 18.5.4 20.3.7 1.3 1.1-3.7 2.7-38.6.4-7.8 1-14.2 1.3-14.2s.5 20.8.4 46.2c-.2 48.9-.5 52.4-5.4 66.6-1 3-1.9 6.6-1.9 7.9s-.4 2.2-.9 1.8c-1.4-.8-.6-4.9 2.4-13 2.9-7.8 4.1-16.9 3.9-29.5-.2-12-2.3-20.7-2.8-11.8-.1.9-.4 2-.8 2.4-1.2 1.1-.9 5.2.3 5.6.7.2.9 1.3.5 2.5s-1.2 2-1.9 1.7c-.7-.2-2.7 2.1-4.7 5.3-5 8.5-12.4 18.6-12.8 17.5-.1-.5 1.7-3.9 4.2-7.4 4.4-6.4 10.1-16.7 9.4-17.2-.4-.4-15.4 1.9-19 2.9-2.5.6-2.7 1.1-2.3 3.9 1 5.7 2.7 11 4.1 13 .8 1.1 1.4 2.7 1.4 3.5 0 .7.8 1.9 1.7 2.6 1.9 1.4 2.6.1-8.1 16.2-2.6 4-4.5 7.7-4.1 8.3.3.5.1 1-.4 1-1.3 0-8.1-7.3-7.5-8 .3-.2 1.6.9 2.9 2.5l2.5 3 1.9-2.3c2.8-3.3 9.1-14.8 9.1-16.6 0-1.2-1-1.6-3.9-1.6-2.2 0-7.3-.4-11.3-.9-14.7-1.9-16.8-2-16.8-1.3 0 .4 1.8 2.7 4.1 5.2 2.2 2.5 5.5 6.1 7.2 8 1.8 1.9-.2.2-4.3-3.7-4.2-4-7.8-7.3-8.1-7.3s-.4 3-.3 6.7l.3 6.8-1-7c-.5-3.8-1.4-7.4-1.9-7.9-1.1-1.1-9.8-.8-20 .7-6.7 1.1-7.5 1.4-7.8 3.6-.2 1.3.5 3.5 1.5 5 3.4 4.6 3.5 5.7.3 2.1-2.2-2.4-3-2.9-2.6-1.5 1.5 5.1 4.5 17.3 4.9 20 .3 1.6.8 4.2 1.2 5.6.4 1.8.1 3.1-.9 4.2-.9.8-1.6 2.9-1.6 4.6s-.4 3.1-1 3.1c-.5 0-1-1.4-1-3.2v-3.2l-3.7 3.5c-3.8 3.5-2.9 1.7 1.6-3.5l2.6-2.8-10.3.4c-5.6.3-10.5.8-10.9 1.2-.3.3.4 1.7 1.7 3.1 2.8 3 1.8 3.3-1.3.4l-2.2-2-1.2 5.3-1.1 5.3.1-5.7c0-3.2-.2-6.1-.6-6.4-.3-.4-2.8 1.1-5.4 3.2-7.7 6.3-9.2 7-3.5 1.7 2.8-2.7 5.2-5.3 5.2-5.7s-7.5-.5-16.7-.2c-17 .5-14.6-.4 4.9-1.9l8.6-.7-1.2-3c-1.6-3.8-14.7-18.2-15.5-17.1-.3.4-1.4.9-2.3.9-2.2.2-2.4-2.2-.2-3.4 1.3-.7 1-1.4-2.1-4.1-4.2-3.6-5.2-3.4-5.3 1 0 1.8-.4 3.5-.9 3.8-.4.3-.9 1.3-1 2.1s-1.4 5.3-2.8 9.9c-2.7 9.1-3.1 13.1-1.4 14.8.9.9.7 1.1-.9.6-1.7-.4-2.2-1.4-2.4-5.7l-.3-5.1-2.3 4.7c-1.2 2.7-2.7 4.8-3.3 4.8-.8 0-.8-.4-.1-1.3.9-1.1 1.9-3.7 6.2-16.3 1-2.8 2.8-7 4-9.3 1.2-2.4 1.9-4.5 1.7-4.7-.7-.7-38.9 37.9-44.5 44.8-1.1 1.3-.1 2.7 6.6 9.4 4.4 4.4 8.9 8.7 10.2 9.7 2.1 1.8 2.2 1.8 3.5 0 .7-1 2.3-5.3 3.5-9.7 1.2-4.3 2.8-9 3.7-10.2 1.3-2.1 1.3-2.5-.1-3.9-.9-.9-1.6-2-1.6-2.4 0-1.1 3.1-3.7 5.3-4.4 1.6-.6 1.7-.2 1.1 3.1-.4 2-1.1 4.2-1.6 4.9-.6.7-.7 3.4-.3 6.3l.7 5.1 5.7-.6c3.1-.3 6.6-.8 7.8-1.1 1.4-.2 2.9.4 4.1 1.6 1.9 2 12.8 6 16.5 6 1.3 0 1.7.8 1.7 3.2 0 4.7 1 7.6 2.6 8.2 2.1.8 5.4-1.5 6-4.2.4-1.2 1-2.2 1.4-2.2.5 0 1.2 1 1.6 2.2.4 1.3 2.6 4.8 5 7.9 2.4 3 4.4 6 4.4 6.5s1.3 2.5 3 4.4c2.7 3.2 2.9 3.3 3 1.2 0-1.2-.4-2.2-.8-2.2s-.8-.8-.9-1.8c0-.9-1-5.7-2.2-10.6s-2-9.1-1.7-9.3c.6-.6 4.1 11 7.7 25.6 1 4 1.9 7.4 2.1 7.5.2 0 1.2.7 2.3 1.4 1.1.6 3 1.6 4.2 2.1 2.7 1.2 4.1 3.3 1.6 2.4-1-.3-3.3-1.7-5.2-2.9-2.1-1.4-3.9-2-4.5-1.5s-4.5 2.2-8.7 3.8c-7.2 2.8-7.8 2.9-10.5 1.5-1.6-.9-5.4-2.3-8.4-3.2l-5.6-1.7-11.7 5.7c-6.5 3.1-12.3 6.2-12.9 6.8-1.7 1.7-3.3 1.5-6-.8-8.5-7.2-22.8-17.5-29.5-21.3-10-5.7-26.5-13.7-28.2-13.7-1.8 0-3.4-1.9-5.5-6.8-1.1-2.3-2.2-4.2-2.6-4.2-.5 0-1.1-.8-1.4-1.7-.6-1.7.8-.2 5.9 6.3l2 2.6 10-10.1c5.5-5.6 10.1-10.9 10.3-11.9.2-1.4-2.1-2.4-11.5-5.4-6.5-2-16.2-5.3-21.6-7.2-10.8-4-14.8-4.6-12.7-2.1.7.8.8 1.5.3 1.5-.9 0-5.3-7-5.3-8.4 0-.4.9-.2 1.9.4 1.4.7 2.1.6 2.4-.3.5-1.2.9 1.6.5 3-.2.4 2 1.3 4.7 1.9 2.8.7 9.5 2.8 15 4.7 10.4 3.6 23.6 7.7 24.7 7.7s-.3-3.3-2.2-5.2c-.9-.9-3.5-3.8-5.6-6.4-2.1-2.7-4.9-6-6.1-7.4-1.3-1.4-2.3-3-2.3-3.6 0-2.3-2.6-3.5-5.4-2.4q-2.7.9-2.1 0c.3-.6 1.2-1 2-1 3.8 0 2.4-3.3-7.7-17.8-1.8-2.6-3.3-4.8-3.4-5-.1-.1-5.9-1.6-13-3.3-7.1-1.8-19-5.1-26.4-7.5-8.5-2.8-13.6-4-14-3.3-.4.6-1.9-.6-3.4-2.5-1.9-2.6-2.2-3.4-1-2.9 1.6.6 1.7-.2 1-8.8-.4-5.2-1.3-16.3-1.9-24.8l-1.2-15.3-4-4.6-4-4.7 3.6 2.3c3.3 2 3.9 2.1 6.5.8 1.6-.7 4.3-1.2 5.9-1 1.7.1 3.6.3 4.3.3 2.1.2 1.3 2.1-1.2 3.1-1.3.5-2.9 1.7-3.5 2.7s-1.1 1.3-1.1.7c0-1.4-4-2.6-4-1.3 0 .5.4.9.9.9.9 0 2.4 3.3 2.6 5.3 0 .4 1.7 2.9 3.8 5.5 3.6 4.4 9.1 13 12.4 19.4 2.8 5.3 4.1 3.5 4.1-5.5 0-4.5-.4-9-.9-10-.6-1.1-.6-1.7.1-1.7.5 0 1-1.6 1-3.5s.5-3.5 1-3.5c1.9 0 1-4.3-1.5-7.6-1.4-1.8-2.5-3.7-2.5-4.3s-.5-1.1-1.1-1.1-.8-.7-.5-1.6c.3-.8.1-2.5-.5-3.7-.9-2-.8-2 1.1.2 2.2 2.6 2.9 2.5 9.5-1.9 1.7-1.1 3.7-2.3 4.5-2.7 2-1 5.9-5.6 6-7 0-.7 1.6-2.3 3.5-3.5 2.6-1.7 3.5-3 3.5-5.2 0-2.8 0-2.8 2.6-1.1s2.7 1.6 5.5-1.5c3.3-3.6 5.2-6.9 7.3-13.1 2.8-8 3.1-7.9-12.2-4.7-8.1 1.7-10.6 2.6-11.1 4.1-.6 1.7-.8 1.7-2 .3-1-1.2-3.4-1.6-9-1.8l-7.6-.1 8.3-.6c4.5-.3 8.6-1.1 9-1.7s3-4.5 5.7-8.8c2.8-4.2 7.1-10.6 9.8-14.1 4.1-5.6 5.6-8.5 4.3-8.5-1 0-11.7 6.4-28.2 16.6-17.6 11.1-21.4 13.2-21.4 12.1 0-.3 2.8-2.2 6.3-4.2 14.1-8.3 48.2-30.3 48-31.1-.2-.9-1.7-1.5-19.1-7.5-11.7-4-16.9-4.8-17.7-2.7-1.9 5.5-2.6 7-3.1 6.5-.3-.3.1-2.7.9-5.5 1.5-4.7 1.4-5.3-1-11.8-1.3-3.8-3-8.7-3.6-10.9-1-3.9-3.6-9.5-3.8-8.5-.1.3-.7 3.6-1.4 7.5l-1.4 7 .6-10.1.5-10.1-9.4-1.1-9.3-1 9.8.5 9.7.5-.4-6.8c-.2-3.8-.5-18.1-.5-31.9-.1-19.1-.4-24.6-1.3-23.7-.6.6-6.2 11.4-12.4 23.9-6.2 12.6-11.3 22.2-11.4 21.5 0-.7 2.5-6.2 5.5-12.3 10.4-20.7 18.1-38.4 18.3-42 .1-1.9-.4-7.1-1.3-11.5-2.8-14.8-1.4-12.8 2 2.8 1.8 8.7 2 8.8 11.2 4.9 7.4-3.2 8.7-2.1 1.7 1.4-3.2 1.7-5.9 3.5-6.1 4-.6 2.1 42.8 19.4 43.5 17.4.2-.5 1.2-.9 2.2-.9 2.4 0 5.4-6 5.2-10.3-.1-3.3-1.2-8.6-3.2-16.7-.6-2.5-1.2-5.7-1.2-7.3-.1-2.7-1.2-3.5-2.3-1.7-.3.5-1.3 1-2.1 1-4 0-9.5 3.6-11.6 7.7-1.3 2.4-3 4.5-3.8 4.7-5.9 1.6-6.9 1.6-6.4.2.4-1.1-.5-1.6-3.7-1.8l-4.3-.3 6.4-4.3c3.5-2.3 7.3-4.2 8.5-4.2 2.5 0 11.6-2.9 13-4.1.5-.5 1.6-.9 2.5-.9 3.7-.1 3.9-1.4 1.4-9-1.4-4.1-2.7-8.4-2.9-9.5-.8-3.6-4.7-13.5-5.6-14.1-.9-.5-3.7 3.2-16.4 21.5-3.8 5.5-7.4 10.1-7.9 10.1-.9 0 1.6-4.2 4.4-7.5 3.4-3.9 16.4-23.5 15.9-23.9-.3-.3-4 1-8.4 2.9-4.3 1.9-8 3.3-8.2 3.1-.3-.3 8.8-4.7 15.7-7.5 1.4-.6 3.2-1.5 4-2s5.1-2.1 9.5-3.6 11.6-4 16-5.6c4.4-1.5 12.5-4.4 18-6.4 5.4-1.9 9.5-3.1 9-2.6-.6.5-4.8 2.2-9.5 3.9-31.9 11.2-38 13.6-38 14.7 0 .2 1.9 1.3 4.3 2.4 2.3 1 11.2 5.1 19.7 9 8.5 4 18.6 8.6 22.5 10.4 3.8 1.8 9 4.2 11.5 5.4 2.4 1.3 4.7 1.9 5.1 1.5.6-.6 4.1-15.7 8.9-38.2 1-4.7 2-10.7 2.3-13.3.5-5.2.1-5.4-5.8-3.2-1.6.6-1.5.4.4-1.1 2.3-1.7 2.3-1.8.5-2.5-1.3-.5-.5-.8 2.6-.8 2.6-.1 5.5.6 6.8 1.5M422 118.4c-.6.8-1.8 1.2-2.5 1-1.9-.8-31.8 2.6-32.9 3.7-.6.5.3 1.1 2.2 1.5 1.8.4 3.2 1 3.2 1.5 0 .7-3.3 0-7.2-1.6-1.2-.5-2.2.2-3.4 2.2-1 1.5-3.3 4.7-5.2 7.1s-3.3 4.5-3.1 4.6c.2.2 3.4 2 7 3.9 5.5 3 7.4 3.5 11.7 3.3 5.9-.3 8.1-2.2 8.2-7.1 0-1.7.7-4 1.5-5.2 1.4-2 1.2-2.1-3.1-3.8-6.6-2.5-4.8-2.8 3.2-.6 9.9 2.8 14.4 4.5 14.4 5.3 0 .5.8.8 1.8.8s2.3.5 3 1.2c1.3 1.3 6.3 3.3 14.5 5.6 3.6 1 5.6 2.1 5.3 2.8s1.9 4.8 4.7 9.1c4.1 6 5.9 7.9 8.2 8.4 1.7.4 2.2.7 1.3.8-1 0-1.8.5-1.8 1 0 .4-2.1.9-4.7 1-6.5.1-13.8 2.3-13.8 4.1 0 1.1 1.2 1.5 4 1.5h4l-.3 14.5c-.1 8-.3 16.2-.3 18.4-.2 4.5.8 5.3 5.6 5 1.9-.2 3.5.1 3.5.5 0 1.1-2.4 1.7-19 4.7-7.4 1.4-14.4 2.6-15.5 2.8-7.5 1.4-26.1 4.6-26.7 4.6-.5 0-.8.7-.8 1.5s.5 1.5 1 1.5c.6 0 1 .5 1 1.1 0 .8-.5.7-1.5-.1-2.7-2.2-3.2.1-2.4 9.5.4 4.9.9 15.7 1.1 23.8.1 8.2.6 15.1 1.1 15.4.4.2.5.9.1 1.4-1.6 2.6-2.2-1.7-2.8-19.8-.4-10.9-.9-21.8-1.3-24.2l-.6-4.3-3.8 6.8c-2.1 3.8-3.9 6.5-3.9 6 0-.9 4.1-10.4 6-13.8.6-1 1-2.1 1-2.4 0-.6-9.1-.1-22.5 1.2-2.7.3-8.1.8-12 1.2l-7 .7V237c.1 5.8.4 12 .8 13.7l.6 3.3-5.3-3c-2.9-1.7-6-3-7-3-.9 0-2.7-.7-4-1.5s-5.1-2.6-8.4-3.9c-3.4-1.4-7.4-3.4-8.9-4.6-2.6-2-2.8-2-4-.4s-1.3 1.6-1.3-.5c0-2-.4-2.2-4.7-1.9-4.4.3-4.8.5-4.5 2.7.4 2.3.2 2.2-2.7-.9-1.9-2.1-2.6-3.7-2-4.1.6-.3.8-2.2.5-4.5l-.6-3.9 1.1 3.5c.6 1.9 1.4 3.9 1.9 4.4.9.9 7-6.9 7-9.1 0-.8.5-1.1 1-.8 1.4.8 1.3 2.1-.3 3.7-2.1 2-5 6.8-4.5 7.3.2.2 2.1.2 4.2-.2l3.8-.6-.3-6.1c-.3-6.3.6-10.6 2.1-10.6.5 0 1.2-1.5 1.5-3.3.7-3.5.4-5.3-.7-5-.4.2-1.2-.6-1.8-1.7s-1.7-2-2.4-2c-.8 0-1.9-.7-2.6-1.5-1.1-1.4-1-1.4 1.5-.5 3.3 1.2 4.5.1 4.5-4.1 0-1.4.5-5.1 1.1-8.3.7-3.1 1-5.9.7-6.2s-3.1.7-6.3 2.1-6.1 2.5-6.6 2.5c-1.8 0-7.9 4.7-8.4 6.5-.3 1.1.2 5.6 1.1 10 2.7 13.4 2.8 13.8 1.5 13.1-.6-.4-1.1-1.9-1.1-3.4s-.7-3.6-1.5-4.6c-.8-1.1-1.5-3.3-1.5-5 0-5.5-1.9-1.4-3.5 7.4-1.6 9-4.1 18.1-3 11 .3-1.9 1-6.7 1.6-10.5.6-3.9 1.7-9.2 2.6-12s1.1-5.1.6-5.2c-.5-.2-.8-1.7-.5-3.3.2-1.6.7-2.8 1.1-2.6 1 .6 9.5-16.5 9.4-18.6-.1-1 .2-1.8.7-1.8 1.2 0 5.3-6.9 5.3-8.9 0-.9 1-2.7 2.2-4.1 1.3-1.4 2.6-3.6 3-5s3.4-5.2 6.7-8.6c3.2-3.3 6.5-6.9 7.3-8 .8-1 1.5-1.6 1.5-1.2s-2.5 3.7-5.5 7.3c-3 3.5-5.5 6.8-5.5 7.3s1.9 1.5 4.3 2.2c6.4 1.9 6.6 2.1 1.7 1.6-2.5-.3-5.3-.8-6.2-1.1-1.2-.5-2.3.8-4.5 5.2-1.6 3.2-3.4 6.7-4 7.8s-2.6 5.1-4.4 9c-1.8 3.8-4.5 9.2-6.1 11.9-3.1 5.1-3 7 0 4.3 1-1 2.5-1.7 3.3-1.7.7 0 4.2-1.4 7.7-3.1 5.1-2.6 6.4-3.7 6.9-6 .3-1.6.9-2.9 1.4-2.9s.9-.6.9-1.4.4-1.6.8-1.8c1.6-.6 12.2-17 11.6-17.9-.3-.5 0-.9.7-.9s2.6-1.2 4.2-2.8l2.8-2.7-1.5 3-1.5 2.9 6.7 1.8c3.7 1 8.9 2.5 11.6 3.3 6.8 2.1 6.9 2.1 6.1-2.8-.8-5.6-4.3-18.4-6.1-22.6l-1.5-3.3-2 2.3c-1.2 1.3-3.2 3.7-4.6 5.4l-2.6 3 1.8-3c1-1.7 2.8-4.1 4.1-5.6 2.7-2.8 3-4.5 1.2-5.2-.7-.3-.1-1 1.5-1.6 3.3-1.3 6-1.4 5.3-.3-.3.5 1.5 1.9 3.9 3.1 2.5 1.2 4.5 2.7 4.5 3.2 0 .6-2.3-.2-5-1.7-2.8-1.5-5.3-2.5-5.6-2.1-.3.3-.1 2 .4 3.9 2.9 9.6 4.1 13.9 5.7 20 1.7 6.6 2.8 8.2 3.8 5.4.3-.7 3.3-5 6.7-9.5l6.1-8.2-2.3-2c-2.2-1.9-2.2-2-.1-1 1.2.6 2.6 1.1 3.2 1.1 1.3 0 11.1-13.2 10.5-14.2-.3-.4-2.1-.8-4-.8s-3.4-.5-3.4-1.1.9-.8 2.2-.3c3.2 1 10.5.6 26.3-1.5 18.4-2.5 21.1-2.5 19.5-.7m200 10c0 .8 1.4 2.8 3.1 4.5 2.2 2.3 2.6 3.1 1.4 3.1-.9 0-2.5.9-3.7 2-2.6 2.4-7.3 2.6-9.5.4-1.4-1.3-1.4-1.7-.2-2.5 2.2-1.5-.7-3.2-9-5.3-9.4-2.4-8.4-3.3 1.2-1.1 7.4 1.6 7.6 1.6 9.6-.4 2.4-2.4 7.1-2.8 7.1-.7m277.5 62.1c.8 3.8 2.6 11.9 3.9 18 1.8 8.4 2.1 11.3 1.2 12.4-.8 1.1-.8 1.3 0 .8 1.4-.8 3.1 7.4 4.4 21.5.4 5.4 1.1 10.2 1.5 10.8.3.5 1.1 4.7 1.6 9.3.5 4.5 1.3 10.2 1.8 12.7 3.1 16 3.4 19.1 2.2 20.3-.9.9-1.1.5-1-1.8.1-1.7-.8-8.6-2.1-15.5-1.2-6.9-2.8-15.7-3.5-19.5-.7-3.9-1-7.6-.8-8.3.3-.6 0-1.2-.7-1.2s-1.1-1.4-1-3.8c.3-5.5.1-5.8-1.5-3.6-1.3 1.7-1.4 1.7-1.5.2 0-.9.5-2 1-2.3.6-.4.8-1.5.5-2.5s-1.2-7.1-2-13.6c-2.6-21.5-6.1-39.4-11-57.4-.8-3-1.4-6.6-1.4-8 .1-2.5 5.7 18.6 8.4 31.5m107.7.4c1.6 1.8 1.7 2.3.4 1.8-2-.8-2-.5.4 7.3 1.1 3.6 4.1 13.2 6.6 21.5 2.6 8.2 5.5 17.5 6.5 20.5l1.8 5.5 7.8-8c7-7.2 14.3-16.7 14.3-18.6 0-.3-3-3-6.6-5.8-3.7-2.8-6.3-5.1-5.8-5.1s2.9 1.6 5.3 3.5c5.2 4.2 5.9 4.3 3.7.9-1-1.4-1.6-3.3-1.4-4.2.7-3 5.7 8.3 7.2 16 .8 4 1.8 8.6 2.2 10.2.5 2.1.4 2.7-.5 2.2-1.4-.9-1.4-1.2.4 10.4 2.1 13.7 4.2 24.1 5.4 27 .9 2.1.9 1.8.5-2-.3-2.5-1-5.8-1.5-7.4s-.9-4.5-.8-6.5c.2-6.6 3.8 7.4 4.4 16.9.3 4.7 1.2 11.6 2 15.5.9 3.8 2 9 2.5 11.5s1.3 5.8 1.8 7.5c.9 3.1-.1 9.6-1.9 12.4-.9 1.4-1 1.3-.5-.2 2.2-7.1 1.9-8-2.2-5.1-1.3.9-2.5 1.4-2.8 1.1s1.1-1.5 3-2.7c4.1-2.5 4.1-2.2 2.2-8.6-.8-2.7-1.8-6.5-2.3-8.4-.8-3.2-1.1-2.7-3.1 7.7-1.3 6.1-2.1 11.5-2 12 .1.4-1.2 2.8-3 5.2-1.7 2.4-3.2 3.9-3.2 3.4 0-.6.9-2.2 2-3.6 1.3-1.6 1.6-2.8 1-3.2-.9-.5-24.8-4.5-27.2-4.5-.5 0-.7 1-.3 2.2.6 2.3.6 2.3-1 .3-1.3-1.6-1.9-1.8-3.5-.7-1.1.6-8.6 4.6-16.7 8.8-8.1 4.1-15.7 8.2-16.8 9-2 1.5-2 1.5-.1 3 1.1.8 1.5 1.4.9 1.4-.7 0-1.5-.5-1.8-1-1.3-2.2-2.3.2-1.5 3.7.9 4.2 2.2 21.4 1.5 19.8-.2-.6-1.1-6.2-2-12.5s-1.8-12.3-2.1-13.3c-.4-1.2 0-1.7 1.3-1.7 2 0 2.4-.2 24.1-11.8 9-4.8 14.2-8.2 14.2-9.1s-2-6.1-4.5-11.5c-5.9-13.1-5.6-13.7.5-1.1l4.9 10 .2-5.5c.1-3 .1-6.1 0-6.8-.1-.6.2-1.2.8-1.2.5 0 .7 2.6.4 6.2-.4 4.7-.3 6 .6 5.2 1.2-1.1 12.1-31.3 12.1-33.5 0-1.8-10.3-22.8-11.2-22.9-.4 0-.9 9.8-1.1 21.7l-.2 21.8-.3-24.5-.2-24.5-12.2-2.9c-12.9-2.9-18.1-4.4-16.1-4.5.6-.1 6.9 1.3 13.9 2.9 7 1.7 12.9 2.8 13.1 2.6.3-.2-1.7-7.1-4.2-15.3-2.6-8.1-6.3-20.1-8.3-26.6-2-6.4-3.9-11.4-4.3-11-1.1 1.2-14.9 43.5-15.1 46.3-.1 2.5 5.6 15.9 16.7 39.4 3.1 6.5 5.4 12 5.2 12.2-.4.4-19.2-39.1-20.9-43.9-.6-1.5-1.6-2.7-2.4-2.7-.7 0-1.1-.6-.9-1.3.6-1.5-.4-3-3-4.6-1.5-.9-1.6-1.1-.2-.7 2.5.8 2.2.2-2.8-6.7-2.4-3.4-7.4-10.3-10.9-15.2-3.6-5-7-9.6-7.5-10.2-.6-.7-2.6-3.3-4.4-5.9-1.7-2.5-3.9-5.6-4.7-6.7-1-1.4-1.1-1.8-.2-1.3.7.4 3.9 4.4 7.2 8.9s8.8 12 12.2 16.6c5.9 7.8 7.9 10.6 11 15.6 1.7 2.6 3.8 4.8 4.2 4.4 1.2-1.6 15.4-47.3 15-48.1-.3-.5-1.6-1.4-2.8-1.9-1.8-.8-1.8-.9.6-.4 2.3.4 2.7.2 2.2-1.2-.5-1.5-.3-1.5 1.1.2.9 1.1 2.5 3.1 3.7 4.4m-725.5 138c2.3.8 4.9 1.1 5.9.7.9-.3 2.7 0 4 .9 3.5 2.3 7.7 2.2 11.2-.3l3.1-2.3-1.4 2.7c-1.3 2.6-1.3 2.8 2.2 4.7 3.3 1.7 3.8 1.8 4.8.3 1.1-1.4 1.3-1.3 2.3.9 1.1 2.3 7.9 6.1 9 5 .2-.2 1.3 0 2.4.6 2 1.1 1.7 2.4-.5 2.4-.7 0-1.1.8-.9 1.8.4 2.3-1.5 2.2-3-.3-.7-1.1-1.6-2-2-2-1.1 0-1 3.8.2 6 1 1.8-.6 10.8-2.1 12-.3.3-.9 1.7-1.3 3.2-.4 1.9-1.3 2.8-2.6 2.8-1.1 0-2 .6-2 1.4 0 2-2.7 4.1-3.2 2.5-.6-1.8-3.8-.3-3.8 1.7 0 1.5-2.6 4.3-4.1 4.4-.4 0-.9-.9-1.2-2-.5-1.9-.6-1.9-3.8-.3-1.9.9-3.8 2.2-4.2 3-1.2 2-8.4 1.7-9.7-.5-1.1-1.6-1.1-1.6-.6 0 .3 1.1 0 1.8-.9 1.8-.7 0-1.7.9-2 2.1-.6 1.9-.8 1.9-1.9.3-.9-1.2-1.5-1.4-2-.6-1.2 2.1-3.8 1.4-3.1-.7.3-1.1.1-2.2-.4-2.5-1.2-.8-2.3 2.6-1.6 4.7.4.8.2 1.8-.3 2.1-.6.3-.8 1.5-.5 2.6 1.1 4.1-.6 1.8-2.2-3-.9-2.8-2-5-2.5-5s-1.4-.2-2.2-.5c-.9-.4-1.4.3-1.6 2.1-.3 3.8-.7 3.9-4.1 1.4-1.7-1.2-3.1-1.8-3.1-1.3 0 .4-.5.1-1.1-.7-.7-1.1-.9-.4-.4 2.5.3 2.2.1 4.7-.5 5.5-.6 1-1 1.1-1 .2 0-.6-.4-1.2-.8-1.2-.5 0-.9 1.7-.9 3.7 0 3.6-.8 7.8-2 11.3-.4 1-.9.3-1.5-1.9-.8-2.8-.6-3.6.6-4.3s1.6-2.7 1.6-8.8c0-5.3.4-8 1.2-8.2.9-.3 1.3-4 1.5-12.3.2-6.5.5-12.1.8-12.3.3-.3.5 0 .5.6 0 .7.8 1.2 1.8 1.1.9 0 1.2-.3.5-.5-.7-.3-1-1.1-.7-1.8s0-3.3-.5-5.7c-1-4.5-.4-10 .8-8 .9 1.4 5.4-2.6 4.8-4.2-.2-.7-2.3-1.5-4.8-1.8-2.4-.3-3.6-.7-2.6-.7 2-.2 5.9-2.2 6.9-3.7.5-.6-.2-1.8-1.5-2.9l-2.2-1.9 2.3.7c1.5.5 2.2.3 2.2-.5 0-.7 1-.3 2.3.9 2.5 2.4 5.3 3 4 .9-.4-.6.5-.4 2 .6 2.6 1.7 8.4 2 9.3.6.2-.4 0-2-.6-3.6l-1-2.8 2.2 2.5c1.3 1.4 4.2 3.1 6.5 3.9m779.3-.4c0 .9-.7 3.1-1.5 5-2.7 6.6-3.9 15.2-2.5 18.5.7 1.6 1.6 3 2.1 3 1.4 0 1.1 5.3-.5 9.1-.7 1.9-1.1 4-.9 4.6.3.7 0 1.3-.5 1.3-1.6 0 .2 5.5 6.7 20.9 6.6 15.4 16.4 37.6 19.2 43.5 1 2.2 1.8 5.1 1.8 6.5-.1 1.7-.3 2-.6.8-.4-1.5-1.3-2-3.3-1.9-.3 0-6.7.6-14.4 1.3-15.6 1.4-15.5 1.1-4 7.7l5.3 3 4.3-2.7c2.4-1.6 5.2-3.8 6.2-4.9 2.1-2.4 4.6-3.1 2.6-.7-.7.8-4.3 3.7-8 6.5-4.7 3.5-7.3 4.8-8.6 4.3-1.1-.4-1.5-.3-1 .5.3.6.1 1.4-.5 1.8-.8.5-.9.3-.4-.6.9-1.4-2.2-1.1-8.4.9-1.9.6-3 .6-2.5.1s3.6-1.6 6.8-2.4c5.8-1.5 7.3-2.2 6.5-3-1.3-1.1-13.7-8.6-14.3-8.6-.4 0-.2.9.4 1.9.7 1.3.7 2.2 0 2.6-.5.3-1-.3-1-1.5s-.4-1.9-.8-1.6c-.4.2-.7-2.3-.5-5.7l.3-6.2-2.1 9c-1.6 7.4-1.9 11.3-1.5 22 .3 7.1.7 14.1 1.1 15.5.5 2.1.4 2.2-.4.5-.8-1.6-1-.9-1 3 0 2.9.6 5.8 1.4 6.9s1.5 2.7 1.5 3.5c-.1 1-.7.5-1.6-1.2-.8-1.5-1.6-2.7-1.9-2.7-.2 0-2.4 3.8-4.8 8.5-5 9.6-4.8 9.8 4.3 6.8 3.8-1.2 5-2 4.6-3.2-.2-.9-.7-2.7-1.1-4.1q-.6-2.85.3-.6c.8 1.8.9 1.8 1.5.2.4-1 .7-5 .7-8.8 0-3.9.2-6.9.4-6.7.5.5 1.4 9 1.5 13.9l.1 3.4 3-3.2c3.6-4 3.6-4.8.6-13.7-3.2-9.6-4.1-15.1-2.4-15.7.9-.4 1.3.7 1.4 4.1.1 2.5 1.3 8 2.8 12.2 3 8.6 3.1 9.3 1.4 11.1-.7.7-2.6 3-4.1 5.1-2.5 3.2-2.7 4-1.5 5.4 1.1 1.4 1 1.6-.9 1.1-2.3-.6-11.9 1.3-14.8 2.9-1.5.9-1.4 1.3 1 4.2 2.7 3.1 7.5 6.5 6.1 4.2-.4-.6-.4-1.1.1-1.1.4 0 .9-1.1.9-2.4.2-2-.5-2.6-3.5-3.4-3.6-1-3.6-1 1.4-.9 5.5.2 6.5 1 6.4 4.7l-.1 2.5-.7-2.5c-.8-2.9-1.6-1.9-2.5 3-.5 3.1-.3 3.7 2.4 5.5 4.3 2.8 3.7 3.9-.7 1.3l-3.6-2.2-5.4 5.9c-2.9 3.3-5.3 5.5-5.3 4.8 0-.6.3-1.3.8-1.5.4-.2 2.6-2.6 4.9-5.3l4.1-5-3-3.5c-1.7-1.9-4-4.6-5.3-6-1.9-2.2-2.1-3.2-1.5-6.5q.75-4.2.9-1.5c.1 1.9 1.3.2 4.6-6.5l4.4-8.9-5-5.8c-4-4.6-4.8-6.2-4.3-8.2.3-1.4 1.2-3 2-3.7.8-.6 1.4-1.6 1.4-2.1s1.2-3.4 2.6-6.4c1.7-3.7 2.4-6.3 2-8-.5-1.7-.3-2.3.4-1.9.6.4 1-1 1-3.7.1-2.4.5-6.3 1-8.8.4-2.5.5-4.6 0-4.8s0-3.3 1.1-7c2.2-7.7 2.4-12.3.7-14-.6-.6-1.3-2-1.4-2.9-.1-1-.7-3.3-1.2-5.1-.6-1.9-.7-3-.1-2.7.5.4.9-1.2.9-3.4 0-2.3-.4-4.1-1-4.1s-.9-.5-.8-1.1c.2-.6-1.4-1.7-3.4-2.4l-3.7-1.4 2.2 3.7c4.6 7.4 4.1 7.4-1.3.2-1.8-2.4-1.8-2.3 0 5 1.1 4.1 1.7 7.6 1.5 7.8s-.9-1.6-1.5-3.9c-1.8-7.1-3.3-12.4-3.6-12.7-.3-.5-7.6 7.5-8.8 9.6-.6 1.1-.3 1.9 1 2.9 1.6 1.2 1.5 1.3-1.6.6-1.9-.3-4.2-1.3-5-2.2-3.8-3.7-29.3-22.1-30.4-21.8-.6.2-1.6-.3-2.1-1-.8-1.1-1.7-1.2-3.8-.4-3.2 1.2-7.8 1.5-6.1.3.6-.4 1.4-1.4 1.7-2.2.5-1.3.6-1.2.6.1.1 1.2.8 1.5 2.7 1.1 1.7-.3 2.3-.9 1.9-1.9-.3-1-.1-1.3.9-1 1 .4 1.2-.4.8-4.1-.6-5.6.5-5.3 1.4.4.3 2.1.7 4.1.9 4.3.2.1 4.9-3.2 10.4-7.4 7.2-5.6 9.8-8.1 9.4-9.3q-.75-1.65.9-.9c2.4.9 3-.4 1.1-2.5-.9-1-1.1-1.8-.5-1.8s1.3.4 1.6.8c1.5 2.4 17.2-.5 18.3-3.4.4-1.2.8-1.2 2-.2 1.4 1.1 1.5.7.9-3.2l-.7-4.5 1.6 3c.9 1.6 1.8 3.1 2 3.3s1.5-1.6 2.9-4 3.8-5.5 5.2-6.9c2.7-2.4 2.7-2.4-.5 3.6-1.8 3.3-2.4 5.1-1.4 3.9 1.9-2.2 7.7-4.6 8.7-3.7.3.3.8-.1 1.2-1 .3-.9 1.1-1.4 1.8-1.1.8.3 2-1.3 3.1-4.1 2.1-5.6 3-5.5 1 0-.8 2.2-1.4 4.7-1.4 5.5.1 2.5 3.9-6.9 4.1-10.1.2-2.9 1.8-4.2 1.8-1.4M513.5 380c.6 1.8.8 1.9 3 .4 2.3-1.5 2.3-1.4 3 2.8.4 2.4 1.2 4.9 1.8 5.6 1.3 1.7-.7 3.2-3.2 2.5-1-.2-2.3.3-3.1 1.1-1 1.3-1.6 1.4-2.7.5-1.8-1.6-2.9-.3-1.3 1.6 2.6 3.2-.9 1.3-3.9-2-3.3-3.8-5.4-7.5-6.6-11.5-.6-2.4-.6-2.4 2 .5 1.4 1.6 3.2 4.3 4 6l1.4 3 .2-5c.1-2.8.1-5.3.1-5.6-.1-.4.8-.4 2-.1 1.4.3 1.9.1 1.4-.6-.4-.7-.3-1.2.3-1.2.5 0 1.2.9 1.6 2m-292.9 10c.5 0 3.4 1.6 6.4 3.5 6.5 4.2 7.4 4.3 6.6.9-.5-1.7-.3-2.3.4-1.9.5.3 1 1.3 1 2.1s.5 1.4 1 1.4c.6 0 1 .7 1 1.5s.4 1.5.9 1.5c1.6 0 5.4 10.5 5.6 15.6.3 5.3 2.1 12.2 3.6 13.8.5.6.9 2.1.9 3.5 0 2.1-.2 2.3-1 1.1-.7-1-1 .7-1 5.7 0 6-.4 7.7-2 9.3-2 2-2 2-2 .1 0-1.1-.4-2.2-.9-2.5s-.7-1.6-.3-2.8c.5-2.1.5-2.1 1.6.3l1 2.4.4-2.9c.6-4.3-1.6-25.8-3.2-31.8-3-10.9-3-10.9-13.5-15.7-11.6-5.4-12.7-6.1-10.9-7.2.8-.5 1.7-.3 2.4.6.6.8 1.5 1.5 2 1.5m323.1 16.2c.8.9 1 1.8.5 2.2-.6.3-1.2 0-1.5-.6-.3-.9-1-.7-2.2.7-.9 1.1-1.4 1.5-1.1.9.9-1.8-2.2-2.5-4.4-1.1-2.7 1.6-2.5 2.5.5 1.9 1.9-.3 2.5 0 2.5 1.4 0 1.1.3 1.5.8.8.4-.5 2.2-1.6 4-2.3 2.6-1.1 3.5-1.1 4.7-.1.9.7 1.3 1.5 1.1 1.8-1.5 1.4-19.7 6.7-20.8 6-1.1-.6-1.1-.8 0-.8q1.2 0 .6-2.4c-.4-1.6 0-3.4 1-4.8.9-1.2 1.6-3.3 1.6-4.6 0-2-.2-2.2-1.5-1.2-.8.7-1.7 2.7-2.1 4.6-.5 2.5-1 3.2-1.8 2.5-1.5-1.2-1.9-6.8-.7-7.6.6-.3.7-1.3.4-2.2-.5-1.4 0-1.5 3.5-1 2.3.3 4.4.2 4.7-.3.2-.4 1.6-.6 3-.5 1.4.2 2.8-.2 3.2-.8.4-.7 1.1.4 1.6 2.3s1.5 4.2 2.4 5.2M207 408.8c0 .4-.5 1.3-1.1 1.9-.9.9 0 1.5 3.2 2.4 4.8 1.3 3.8 2.3-1.5 1.7l-3.3-.4-1.7 6.6c-1 3.7-1.6 8.2-1.3 10.1.3 3.1.6 3.4 3.3 3.1l2.9-.4-2.3 2c-2.2 1.9-2.9 4.6-1.4 5.6.5.3 5 .7 10.1 1 5.2.3 9.6.8 9.9 1.1s-5.7.5-13.4.6c-7.6 0-13.3.3-12.6.6.6.2 1.2 1 1.2 1.6 0 .5-.3.7-.7.4-.3-.4-1.2-.2-2 .5-1.1.9-1.5.7-1.9-1-.4-1.1-1.2-2.3-2-2.6-1.8-.7-.8-5.7 2.3-11.3 1.3-2.3 2.3-5.1 2.3-6.2 0-1.2.5-2.1 1-2.1.6 0 2-2.1 3.1-4.7 1.8-4.3 1.9-4.9.5-5.9-2.2-1.6-2-2.3.5-1.7 1.5.4 2.2 0 2.6-1.6.5-2 2.3-3 2.3-1.3m649.3 48.7c.7 0 2.3.8 3.5 1.7l2.4 1.6-2.6 1.7c-1.6 1.1-2.6 2.7-2.7 4.4-.1 1.4-.5 3.7-1 5.1-.7 1.9-.8 1.5-.4-1.8.6-4.6-.7-5.6-2.6-2-.7 1.2-3.4 5-6 8.4-3.5 4.4-4.9 7.1-4.9 9.3 0 1.7-.4 3.1-.8 3.1-.5 0-1.9 6.2-3.2 13.7-1.2 7.6-2.5 14.4-2.8 15.3-.5 1.3-.4 1.3 1.2 0 3.7-3 11.6-14.5 11.6-17 0-1.4.5-3.2 1.1-4 .8-1.1.9-.7.4 1.7-.4 1.8-.2 3.3.3 3.3 1.6 0 10.2-7.2 10.2-8.6 0-.8.4-1.4.9-1.4 1.5 0 10.2-6.1 10.8-7.5.2-.8 1-1.6 1.7-1.8 1-.4 1.1.4.6 3.4-.8 4.4-1.6 5.7-2.7 4.4-.5-.4-.2-1 .5-1.2.6-.3 1-.9.7-1.4-.6-.9-4.6 1.2-8 4.3-1.1 1-3.7 3.3-5.9 5.1-10.1 8.4-20.3 19.7-22.8 25.2-1.4 3-2.9 3.2-4.6.5-1-1.6-1-2 .1-2 1.3 0 4.1-11.7 5.2-22 .4-3 1.2-7.8 1.9-10.5.8-2.8 1-5.2.7-5.5-.8-.6-3.1-8.2-3.1-10.1.1-.8 1 .7 2.2 3.3 1.1 2.7 2.4 4.8 2.8 4.8 1 0 8.4-9.6 10.3-13.3.8-1.5 2.4-3.6 3.6-4.6l2.1-1.8-3.5-3.7c-1.9-2.1-4-4.7-4.6-5.9-.5-1.2.6-.4 2.6 1.8s4.2 4 4.8 4m38.5 25.7c-.9 2.4-2.1 7-2.8 10.3-1.5 7.2-8.7 28.6-10.2 30-.5.5-.3-.7.5-2.7.9-2.1 1.9-5.8 2.2-8.2.4-2.5 1.3-5.1 2.1-5.7 1.9-1.5 1.8-3.9-.2-3.9-.8 0-2.1 1.5-2.9 3.2-.7 1.8-2.4 4.3-3.8 5.5-1.4 1.1-2.8 3.6-3.2 5.5-.4 1.8-1.4 4.2-2.2 5.3-1.2 1.8-1.3 1.7-.7-1.5.8-4.8 2.5-9 3.6-9 .5 0 1.2-.8 1.5-1.7.4-.9 2.4-4.5 4.5-8 2.1-3.4 3.8-6.6 3.8-7 0-.3.8-1.5 1.8-2.6.9-1.1 1.1-1.7.5-1.3-.9.5-1.1.2-.6-1.1.4-1 1-2 1.3-2.3.4-.3 1.7-2.7 2.9-5.4 2.6-5.9 4-5.4 1.9.6m-176.6 38.7c-2.3 3.3-4.2 6.5-4.2 7.2 0 .9 4 1.1 18.3.7 10-.3 15.7-.2 12.7.2-3 .5-9.3.9-14 1-7 .2-7.9.4-5 1.1 4.1.9 26 3.4 45 4.9 7.4.6 15.4 1.4 17.8 1.7 3.5.5 4.2.3 4.2-1.2 0-1 .5-1.5 1.3-1.2s2 .1 2.8-.3c.8-.5 1.9-.4 2.6.2s1.3.6 1.3.1c0-.4 1.9-.9 4.3-1 6.6-.1 17.6-1 24.1-1.8 4.4-.6 5.7-.5 5.2.3-.4.7-1.7 1.2-2.9 1.3-5.8.2-6 1.2-.8 6.1 4 3.8 5.3 4.5 6.3 3.5.8-.7 2.5-2.1 3.8-3.2 2.4-2 2.5-2 1 0-.8 1.1-2.3 2.8-3.2 3.9-1.3 1.5-1.5 2.3-.6 3.3 1.5 1.9.4 2.7-1.9 1.2-1.6-.9-2.7-.6-6.8 1.9-3.6 2.3-5.3 2.8-6.2 2-.9-.7-1.3-.7-1.3 0 0 .5-5.7 2.9-12.7 5.2-9.6 3.2-13.5 4-16.2 3.5-7.7-1.3-28.1-5.7-38.5-8.3-10.3-2.5-11-2.5-13.7-1l-2.9 1.7 1.7-2.5c.9-1.5 1.2-2.9.7-3.4-2.2-2.1-30.4-17.5-35.4-19.3-.8-.3-.1-.6 1.7-.6 2.7-.1 3-.4 2.6-2.4-.4-2.1-.4-2.1 1-.4s1.6 1.7 3.9-.8c1.4-1.5 3.6-4.4 4.9-6.5s2.6-3.6 2.8-3.4-1.5 3-3.7 6.3m163.2 5.3c-1.2 4-6.8 15.3-7.9 16-.5.4-.7.8-.3.8.7 0-.7 1.7-8.3 10-2.3 2.5-4.8 6-5.6 7.9s-2.6 4.9-3.9 6.6c-1.3 1.8-2.5 4.4-2.6 5.8-.1 1.5-.6 2.7-1 2.7-.5 0-1.9 2.4-3.3 5.2-2.4 5.3-12 23.5-18.9 36-2 3.7-4.1 7-4.7 7.3-.5.4-.9 1.4-.9 2.3.1 1.3.8.8 3-1.6 1.7-1.8 3-2.8 3-2.4 0 .5-1.1 2.1-2.5 3.6s-4.4 5.2-6.5 8.2c-3.6 4.8-6.6 7.4-8.6 7.4-.4 0 .5-.9 2-2.1 1.4-1.1 2.6-2.7 2.6-3.4 0-.8.6-1.8 1.3-2.2.6-.4 2.4-3.1 3.8-5.8 1.4-2.8 3.9-7.3 5.4-10 4.2-7.7 18.6-35.5 20.7-40 1-2.2 2.5-5.3 3.3-6.9 2-3.7 1.5-4.1-1.5-1.3-1.4 1.3-5.2 4.3-8.6 6.7-14.2 10.4-20.4 15.5-20.4 16.7 0 .7-.7 1.3-1.6 1.3s-7.9 6.3-15.7 14c-13.7 13.6-14.1 14-15.8 12.1-2.3-2.5-33.3-23.1-34.7-23.1-.6 0-1.5-.6-1.9-1.3-.4-.6-2.8-2.2-5.3-3.5-3.5-1.8-3.8-2.1-1.5-1.6 1.7.4 4.1.8 5.5.8s2.8.5 3.2 1c.4.6 1.6.6 3.2-.2 1.7-.7 2.6-.8 2.6-.1 0 .6 7.6.9 22.3.7 34.1-.3 34.2-.3 38.1-4.4 2.2-2.3 3.6-3 3.8-2.2.3.9 1.2.8 3.4-.6 4.1-2.7 23.3-17.7 25.7-20.1 3.7-3.8 10.7-13.7 10.2-14.5-.3-.5.3-.6 1.2-.4 1.3.3 2.2-.4 3.1-2.4.6-1.5 2-3.7 3-4.8 2.7-3 5.4-9.9 5.6-14.1.1-4.1 1.3-5.8 3.2-4.2.8.6 1.4.5 1.8-.6.9-2.4 1.8-1.7 1 .7m322.1 147.7c.3 1.1 1.6 2.1 2.8 2.3 1.3.2 2.3 1.1 2.4 2.3l.3 2-.9-2-1-2v2c-.1 1.1.6 4.1 1.6 6.7l1.6 4.6 1.7-3.1c1-1.8 2.6-5.8 3.6-9 1.3-4.1 2.3-5.7 3.6-5.7 1.6 0 1.4.9-1.6 9.2-1.8 5.1-3.6 10.9-4 12.9-.6 3.1-.9 3.6-3 3.2-1.9-.4-2.9-1.8-4.6-6.6-1.2-3.4-3.3-9-4.6-12.5-2.2-5.9-2.2-6.2-.4-6.2 1 0 2.1.9 2.5 1.9m24.3 5.9c3.1-1.1 8.5.8 13.4 5 1.2.9 1.9.6 3.6-1.8 3.1-4.1 8-4.9 12.9-1.9 5.3 3.1 8.3 6 8.3 7.8-.1 1-.7.5-1.6-1.2-1.5-2.8-3-3.8-2.1-1.3.4 1 .1 1.3-.8 1-.9-.4-1.2 0-.8 1.4.6 2.5-1.4 6.5-2.9 5.6-.7-.4-.8-.3-.4.5.4.6 0 1.4-.8 1.7-2.4.9-1.9 2.4.8 2.4 1.5 0 3.3-1.1 4.5-2.6s2.1-2.3 2.1-1.8c0 .4-1 1.8-2.2 3.1s-1.7 2.3-1.1 2.3c1.2 0 3.8-2.9 4.6-5 .5-1.3.5-1.3.6 0 .1 3.1-6.1 8.1-7.4 6-.3-.5-1.4-1-2.3-1-1.5 0-1.5.2-.2 1 .8.5 1.1 1 .7 1-1.5 0-5.1-2.2-9.7-6-3.8-3-5-3.5-7.5-2.9-1.6.4-2.5.7-2 .8.6.1-.3 1-2 2.1-2.4 1.5-2.6 2-1.3 2.5.9.4 2.6.1 3.8-.5 1.4-.8 2-.8 1.6-.1-.4.5-2.3 1.5-4.4 2.1-3.3.9-4.1.7-7.7-1.9-2.2-1.6-4.4-3.7-5-4.7-.5-1.1-1.3-2.1-1.6-2.4-.8-.7-1.8-5.1-1-4.6.3.2 1.5-1.7 2.6-4.2 1.1-2.8 2.1-4 2.3-3.1.2 1.4.8 1.5 3 .7"/><path d="M754.5 54.7c-.3 2.7-2 11.8-3.6 20.5-2.7 13.8-5.1 31.9-4.5 32.5.7.7 58.4 4.3 68.9 4.3 4.5 0 5.5-.3 4.7-1.3-.6-.6-1.8-2.1-2.8-3.2-3-3.6-57-54-60.2-56.2-1.7-1.2-1.9-.9-2.5 3.4M677.6 82.1c.3.6 1.7 4.8 3 9.3 1.3 4.4 3.3 10.9 4.5 14.3 2.4 7.3.2 6.8 22.9 5.3 22.8-1.5 29.4-2.1 29.7-2.4s-39.2-19.3-52.6-25.2c-5.8-2.6-8.6-3.1-7.5-1.3M828.5 131.7c.3 7.7.8 15.1 1 16.2.2 1.2.9 12.1 1.4 24.4 1.8 38 2.5 44.7 4.1 44.7.4 0 4-4.6 7.9-10.3 4-5.6 10.8-15.2 15.1-21.2 4.4-6.1 8.9-12.7 10-14.7l2-3.7-2.4-2.3c-2.3-2.3-4.7-5.1-21.9-25.8-4.8-5.8-10.3-12.4-12.4-14.7-2-2.3-4-4.8-4.5-5.5-.6-.8-.7 4.2-.3 12.9M638.7 140.2c.6.7 1 2 1 2.8 0 .9 1.5 3.8 3.4 6.5 2 2.8 7.3 10.6 11.9 17.5s8.6 12.8 9 13.3c.7.8 14.7-8 16.9-10.7.7-.9 1.9-1.6 2.5-1.6 1.8-.1 5.3-3.3 6-5.6.5-1.7 0-2.4-2.6-3.4-1.8-.7-5.5-2.3-8.3-3.5-7.7-3.5-11.6-5.1-16.8-7-2.6-1-5-2.2-5.3-2.6-.3-.5-1.3-.9-2.4-.9-1 0-4.8-1.4-8.5-3-7.5-3.4-8.2-3.5-6.8-1.8M635 169.1c0 28.9.4 34.4 2.4 32.9.6-.6 6.4-4.9 12.9-9.7 6.4-4.8 11.7-9.3 11.7-10s-1.9-3.9-4.2-7.2c-2.4-3.2-6.5-9.2-9.1-13.2-2.6-4.1-6.8-10.3-9.2-13.9l-4.5-6.5zM690 168c0 .5-.5 1-1.1 1-1.2 0-14.9 8.3-18.3 11-4.9 4-4.9 3.5.6 13.8 5.7 10.8 7.7 13.7 9 12.4 2-2 11.8-33.9 11.8-38.3 0-.5-.4-.9-1-.9-.5 0-1 .4-1 1M655.9 190.7c-4.1 3.2-7.6 6-7.9 6.3-.3.4-2.7 2.1-5.3 3.9-2.8 1.9-4.5 3.7-4 4.2.8.8 33.8 5.9 38 5.9 1.1 0 1.3-.4.6-1.3-.6-.6-3.6-6.2-6.7-12.2-3.2-6.1-6.1-11.3-6.5-11.8-.4-.4-4.1 1.9-8.2 5M689.2 191.6c-.8.8-2.2 4.3-3.1 7.7-1 3.4-2.2 7-2.6 8-.5 1.3-.3 1.6.8 1.1 1.7-.6 4.8 3.2 4.1 5.1-.6 1.4 5.2 3.2 6.4 2 .4-.4.6-5.6.6-11.7-.1-8-.5-11.2-1.5-11.8-.7-.5-1.6-.7-2-.4-.4.2-.9 0-1.1-.5-.1-.5-.9-.3-1.6.5M787.4 203.9c-3.2 2.2-7.8 5.4-10.2 7-2.3 1.7-4.6 3.1-5 3.1s-1.9 1.1-3.4 2.4l-2.8 2.3 8.3.6c4.5.4 18.3 1 30.7 1.3 25.8.8 24.9 1.5 10-8.7-10.7-7.4-18.4-11.9-20.4-11.9-.7 0-3.9 1.8-7.2 3.9M636.6 208.6c-.3.7-.1 1.6.4 1.9.6.4 1 1.4 1 2.3.1 2.8 8.5 22.7 9.7 22.7s2.3-.8 17.9-12.5c7.5-5.5 10.9-8.7 10.1-9.2-.7-.4-7.4-1.6-14.7-2.8-7.4-1.1-15.8-2.4-18.7-2.9-4-.6-5.3-.5-5.7.5M677 218.8c-2 .7-13.7 8.8-17.8 12.3-1.8 1.6-4.6 3.6-6.2 4.4-1.7.9-3 1.9-3 2.4 0 .4 4.6 2.3 10.3 4.1 5.6 1.8 12.1 3.9 14.5 4.6 10 3.2 9.9 3.7 5.5-23.9-.6-4.1-1.1-4.7-3.3-3.9M754.7 221.7c-.2.1-5.5.3-12 .5-6.4.2-11.7.6-11.7 1 0 .5-2.1.8-4.6.8-2.7 0-5.1.6-6 1.5-1.9 1.9-4.4 1.9-4.4.1 0-.8 1-1.7 2.3-1.9 1.2-.2-1-.5-5-.6-3.9 0-7.5.3-7.8.9-.4.6.5.7 2.3.4 2.2-.5 3.1-.2 3.7 1.3 1.3 2.9 1.7 4.6 1.6 7-.1 1.4.5 2.3 1.5 2.3.8 0 1.2.5.9 1.1-.8 1.3 3 5.1 4.1 4.1.4-.4.4-.2 0 .5-.3.7 1.1 3 3.4 5.5 2.2 2.4 4 4.6 4 5 0 1 7.4-.3 8.1-1.4.8-1.2 8.2-.6 8.6.7.5 1.7-2.1 4.6-4.4 4.8-1.6.1-2.2.9-2.5 3.3-.3 2.9.4 4 6.5 10.1 8.1 8 10.3 8.7 11.1 3.4 1.6-10.1 5.6-49.3 5.1-50.1s-4.2-1-4.8-.3M765 223.1c0 1.9 2.2 7.3 9.1 22.6 1 2.4 1.9 4.7 1.9 5.2 0 .8 3.4 8.7 8.6 19.8 1.3 2.8 2.4 5.5 2.4 5.8 0 .7 5.2 12.9 7.6 17.9.8 1.6 1.4 3.5 1.4 4.1 0 .7.7 1.8 1.5 2.5 1.7 1.4 2.9-1 13.7-27.5 12.9-31.6 16.4-40 17.5-42 .6-1.1 1.3-3.2 1.6-4.6l.7-2.6-9.3-.7c-5-.3-15.5-.8-23.2-1.1s-18.4-.8-23.7-1.1c-9.5-.5-9.8-.4-9.8 1.7M761.6 229.5c-.3 3.8-1.3 12.2-2.1 18.5-2.7 21.1-3.5 33.4-2.2 34.7 1.1 1.1 37.2 19.3 38.3 19.3.2 0-.2-1.2-1-2.8-.7-1.5-2.8-6.3-4.5-10.7-1.8-4.4-4.7-11.2-6.6-15-1.9-3.9-4.6-10.2-6-14-3.2-8.5-3.4-9.1-8-18.7-2-4.3-4.4-10.2-5.4-13l-1.8-5.3zM834.4 229.1c2.3 17.9 6.9 43.9 8.6 48.4l1.2 3 1.2-3c.7-1.7 2.4-4.4 3.8-6 1.4-1.7 4.7-6.8 7.3-11.5s5.8-9.9 7-11.6c3.5-4.6 12.7-20.5 12.2-21-.2-.2-6.1-.9-13.1-1.4s-16.4-1.3-20.8-1.6l-8.1-.7z"/><path d="M831 229.4c0 .8-1.3 4.3-2.9 7.8s-3.8 9-5.1 12.3c-1.2 3.3-2.5 6.4-2.9 7-.5.5-3 6.4-5.6 13-2.7 6.6-6.7 16.5-9 22.1-2.4 5.6-4.2 11.3-4.2 12.9 0 1.5-.6 3.1-1.3 3.5-.8.5-1 1.5-.6 2.6s1.1 3.7 1.6 5.9 2.2 8.7 3.8 14.4l2.9 10.4 1.9-2.7c1-1.5 4.5-5.7 7.7-9.3 4.1-4.7 5.6-7.1 5.2-8.4-.4-1.2-.1-1.9.7-1.9.7 0 1.9-1 2.7-2.2 2.1-3.4 8.2-15.8 10.7-21.8 1.3-3 2.3-4.8 2.4-3.9 0 .9-1.1 4.2-2.5 7.3s-2.5 6.1-2.5 6.6c0 .8-3 7.9-4.7 11.2-.2.4 7.7-3.3 17.7-8.3 9.9-5 18-9.4 18-9.8 0-1.5-21.8-12.2-22.5-11.1-.4.6-1.1.8-1.6.4-.5-.3-.7-1-.4-1.5.8-1.2-.2-1.1-2.6.2-1.1.6-2.5.9-3.1.7s.5-1.2 2.6-2.2c4.2-2 4.2-2 1.3-18.1-.8-4.4-2.5-14.9-3.7-23.3-1.3-8.3-2.7-15.2-3.2-15.2-.4 0-.8.6-.8 1.4M876.5 239.7c-.3 4.9-1 9.8-1.5 10.9-.4 1.2-1.2 4.3-1.5 7-.4 2.7-1.2 5.5-1.8 6.2-2 2.5.8 3.4 3.5 1.2 1.5-1.1 3-2 3.4-2 1.9 0 10.4-6.7 10.4-8.2 0-2.9-9.8-23.8-11.1-23.8-.4 0-1 3.9-1.4 8.7"/><path d="M872 238.7c-1.4 2.6-3.2 5.6-4 6.5-.9 1-5 7.5-9.3 14.5-4.2 7-8.6 14.3-9.8 16-1.2 1.8-1.9 3.3-1.6 3.3.2 0 4-1.7 8.3-3.7 8.4-3.9 8.6-4 10.8-4.2.7 0 1.7-1.1 2-2.4 2.3-7.4 4.6-17.3 4.6-19.7 0-1.5.5-4.1 1.1-5.8s.9-4.4.7-6.2l-.3-3.1zM882 263c-11.3 7.3-11.1 6.5-3.3 11.9 10.2 7 14.3 9.4 15 8.7.5-.5 0-5.9-2.3-21.9-.3-2-.9-3.7-1.2-3.6-.4 0-4.1 2.2-8.2 4.9M865 273.4c-8.5 2.9-20.1 9.1-19.8 10.5.4 2 19.6 11.7 20.7 10.5.9-.9 3.6-21.3 2.9-21.9-.2-.2-1.9.2-3.8.9M870.6 277.2c-.3 2.4-.8 7.8-1.2 12.1l-.6 7.8 4-2c2.2-1.1 7.6-3 11.9-4.2 4.3-1.1 8.2-2.5 8.6-2.9.8-.7-19.5-15-21.3-15-.4 0-1 1.9-1.4 4.2M750 286c-.8.4-6.6 2.9-12.7 5.5-6.2 2.6-11.3 5.1-11.3 5.6s1.5 1.6 3.3 2.5c3 1.6 9.4 6.2 7.2 5.2-3.2-1.3-13.7-6.7-14.8-7.6-1.1-.8-18.1-6.1-24.9-7.6-4.1-.9-3.6 1.5 1.4 8.4 4.6 6.1 10 9 17.1 9 2.4 0 3.9.6 4.6 1.7.7 1.4 1.2.9 2.2-2.7l1.4-4.5.3 4.3c.3 3.6.8 4.5 3.1 5.5 2.6 1.2 4 2.2 8.1 5.9 1.4 1.2 4.7 1.8 12.4 2.4 5.8.4 10.6.4 10.6.1s-3.6-2.8-7.9-5.6c-4.4-2.8-8.3-5.6-8.6-6.2-.7-1.1 4.5 2 12.2 7.2 6.4 4.4 7.4 3.7 5.4-4.1-1.6-6.1-2.2-10.6-1.2-9.1.5.7 1.5 4.7 2.2 8.8.7 4.2 1.8 7.7 2.4 7.9.6.3 5.3-1.1 10.4-3.1s9.5-3.4 9.7-3.2c.3.2-3.4 1.9-8 3.6-4.6 1.8-9.6 4.1-11 5.2s-2.6 1.6-2.6 1c0-1.2-13.9-1.5-20.2-.5l-3.7.6 2.5 2.7c1.3 1.4 2.4 3.1 2.4 3.7 0 1.5 7.2 7.3 14.6 11.9 4.5 2.7 5.2 3.4 2.9 2.9-1.6-.4-4.4-1.5-6.1-2.5-4.2-2.5-4.5-2.4-3.3 1 .8 2.1 1.5 2.8 2.6 2.4 1.3-.5 1.5-.1 1.1 2.1-.3 1.5-.1 4 .5 5.5 1 2.6 1.3 2.8 6.1 2.3 7.6-.6 13.7-6 8.1-7.1-1.1-.2-2.9-1-4-1.8-1.9-1.3-1.8-1.4 1-.7 1.7.4 3.8 1.1 4.7 1.6 2 1 6.7 0 8.5-1.7.9-.9.8-1.9-.3-4-1.4-2.8-1.4-2.8.4-1.2 1 .9 2.3 1.7 2.8 1.7s3.3-5.4 6.3-12c2.9-6.6 5.8-12 6.2-12 1.1 0 1.1 1.3.1 2.5-1.7 1.9-9.4 22.6-8.7 23.3.2.3 2.4.5 4.7.6l4.3.1.3-5.4c.2-3.6-.1-5.7-1-6.3-1-.8-.9-.9.3-.5 1.4.5 1.8-.6 2.4-6.6.3-3.9 1.1-7.9 1.6-8.8 1-1.9.2-4.9-1.2-4.9-.5 0-.9 1.1-.9 2.5s-.5 2.5-1.1 2.5c-1.4 0-.1-4.2 1.7-5.6 1.6-1.3 1.9-3.4.4-3.4-.5 0-1-.6-1-1.4s-2.6-2.8-5.7-4.3c-3.2-1.6-9.8-5-14.8-7.5-19.9-10.1-21-10.4-20.1-5.8.3 1.6.9 4.4 1.2 6.1.4 2.2.3 2.9-.5 2.5-.6-.4-1.1-2.2-1.1-3.9 0-6.8-1.5-8.7-5-6.7M683.3 297c-4.8 10.2-4.9 10.1 5.1 9.6 10.6-.5 12.3-1.3 10.5-4.9-1.9-3.5-9.7-11.7-11.2-11.7-.7 0-2.7 3.2-4.4 7M619.3 352.2c1.1 9.6 3.1 33.2 3.2 37.4 0 5 .4 4.9 9.4-1.9 6.2-4.6 10.3-10.3 8.4-11.6-.8-.5-14.6-20.7-18.3-26.7-2.4-3.8-3.3-2.8-2.7 2.8"/><path d="M774.3 348.9c-1.3 1.1-2.3 2.9-2.3 4 0 1.2-.3 2.1-.7 2.1-.5 0-.9 1.9-1.1 4.3-.1 2.3-.7 6.4-1.2 9.2-.9 4.9-1 25.8-.1 24.9.3-.3.6-1 .7-1.7.2-.7.6-2.3 1-3.7.3-1.4 1.4-7 2.4-12.5s2.5-12.9 3.3-16.5c.9-3.5 1.3-6.8 1.1-7.2-.3-.4 0-1.7.6-2.8 1.4-2.6-.6-2.7-3.7-.1M779 362.4c-.8 2.1-1.7 6.8-3.5 17.2-.2 1.7-1.1 4.8-1.8 7-1.2 3.3-3.5 16.4-4.2 23.9-.1 1.3 2.4 4.5 7.2 9.1 4 4 7.3 7.7 7.3 8.3 0 1.8 1.5 1.3 4-1.4 1.6-1.7 3-2.3 4.3-1.9 1.7.6 1.9.2 1.4-4.8-.5-5.7-1.5-8.9-3-10-.6-.3-1.1-3.9-1.2-8-.1-6-2.6-21.4-4.9-30.3-.3-1.1-.8-4.1-1.1-6.8-.7-5.2-2.9-6.4-4.5-2.3M907.2 363.6c.2 1.1-.2 1.8-.9 1.7-.7-.2-1.7.6-2.3 1.7s-1.6 2-2.1 2c-.6 0-2 1.1-3.1 2.5S896 374 895 374s-2.2.9-2.5 2-1.3 2-2.1 2-1.4.5-1.4 1.1c0 .5-.4.7-1 .4-.5-.3-1-.1-1 .6 0 1.8 17.9.3 20.1-1.7 1.8-1.6 1.7-6.6 0-7.2-1.8-.6-1.2-3 .7-2.8 1.2.1 1.7-.7 1.7-2.8 0-1.6-.6-3.1-1.3-3.4-.9-.3-1.2.3-1 1.4M817.6 372.9c-.6.9 0 9.7 1.4 21.1 1.9 15.5 1.7 14.8 4.8 14.5 11.9-1.1 25.3-2.9 26.2-3.5 1.3-.8-6.6-11.6-13.7-18.7-2.4-2.3-4.3-4.6-4.3-5 0-.5-1-1.5-2.1-2.3-1.2-.8-3.3-2.5-4.7-3.8-1.4-1.2-2.8-2.2-3.1-2.3-.3 0-1.4-.2-2.3-.4-1-.2-2 0-2.2.4M634.7 386.9c-7.6 5.9-9.3 7.9-8 9.2s16.8 5.9 20 5.9c2 0 2.3-.4 1.7-2.8-1.2-5.6-4.7-15.2-5.5-15.2-.4 0-1.3-.2-2.1-.4-.7-.2-3.5 1.3-6.1 3.3M705.5 409.2c-15 1.8-24.5 3.2-24.5 3.7 0 1 4.8 9.7 7.4 13.6 1.4 2 2.6 4.1 2.9 4.8.3 1.1 20.1-16 23.9-20.8l1.9-2.4-2.8.2c-1.5.1-5.5.5-8.8.9M720.6 415.7c-.3 4.3-1.3 15.1-2 24.1-.8 9-1.7 16.6-2.1 17s-.5-2-.1-5.3c1.2-11.5 2.8-36.4 2.4-38.5l-.3-2.2-2.5 2.1c-8.3 7.1-13.9 12.2-18.2 16.4l-4.8 4.8 1.9 2.7c8.9 12.5 19.2 24.1 19.9 22.3.4-1.1.6-1.1 1.3 0 .6 1 7.1-5 24.3-22.5 13-13.2 23.4-24.2 23.1-24.4-.3-.3-37.8-4.1-41.1-4.2-.7 0-1.4 3.2-1.8 7.7M710.7 469.3c-1.6 1.8-6 6.4-9.8 10.3-3.8 4-6.9 7.7-6.9 8.3 0 1 29.7 16.1 31.5 16.1.3 0 .1-.9-.5-1.9-.5-1.1-1-3.6-1-5.6s-.4-4.4-.9-5.3c-1.3-2.6-2.2-8.4-1.2-7.8.5.3 1.9 4.6 3.2 9.5s2.7 8.8 3.1 8.5c1-.6 7.8-13.6 7.8-15 0-.6-2.6-3.5-5.7-6.5s-7.5-7.3-9.7-9.7c-2.2-2.3-4.7-4.2-5.5-4.2-.9.1-2.9 1.5-4.4 3.3M337.9 182.6c-.6.8-.9 1.4-.6 1.4s-1.4 1.9-3.9 4.2c-3.4 3.3-4.5 5.2-4.9 8.3-.3 2.2-.8 4.1-1.3 4.3-1.1.3-.3 6 1 6.8 1 .6 6.8.7 9.9.1.9-.1 2.7-1.1 4-2 1.3-1 1.8-1.5 1.2-1.2-1 .5-1.3-.8-1.3-4.9 0-4.6.3-5.6 2-6.1 1.1-.4 1.8-1 1.5-1.5s0-1.2.6-1.5c.5-.4.8-1.4.5-2.2s-.1-1.1.4-.8c.6.3 1-.5 1-1.9s-.3-2.5-.7-2.4c-.5 0-1.5-.1-2.3-.5-3.7-1.3-6-1.4-7.1-.1M312.2 210.8c-3.3 1.1-7.3 17.4-4.8 19.9 1.4 1.5 17.6-10.2 17.6-12.7 0-.4-1.1-1.1-2.5-1.4-1.4-.4-2.5-1-2.5-1.5 0-1.3-6.3-4.8-7.8-4.3M331.5 228.7c-3.3.7-6.9 1.8-8 2.3s-4.7 1.3-7.9 1.7c-3.3.4-6.1 1.3-6.3 1.9-.4 1.1 8.9 6.6 12 7.1 1 .2 3.1 1 4.8 1.8 2.9 1.6 3 1.6 4.4-1.7 1.6-3.4 3.6-6.9 4.5-7.8.8-.7 3.1-6.2 2.8-6.5-.2-.1-3 .5-6.3 1.2M1041.8 228.4c-3.2 4.1-3.5 5.1-2.7 7.3.5 1.4.8 2.8.5 3-.2.3-.7-.5-1.1-1.6-.3-1.2-1-2.1-1.3-2.1-1.1 0-13.7 12.9-13.1 13.4.2.2 2 1.1 3.9 2 3.1 1.4 1 1.3-2.9-.2-1.9-.7-1.3.9 5.3 13.8l5.9 11.5 5.8-6.5c3.3-3.6 6.2-7.3 6.5-8.3.3-1.1-.9-4.7-3.1-8.8-2-3.9-3.5-7.2-3.3-7.4.2-.3 1.7 2 3.2 5.1 1.6 3 2.9 5.4 3.1 5.2.3-.3-1.2-17-2.3-25.7l-.7-5.4zM1044.4 268.2c-7 7.4-7.1 7.6-3.8 10.4l2.9 2.4-3.2-1.7c-1.7-1-3.4-1.5-3.7-1.2-.8.7-12.6 35.2-12.3 35.6.2.1 5.1-2.7 10.8-6.5 18.4-11.9 20.3-13.1 20.8-12.6.2.2.2.6 0 .7-.7.7-23.3 15.2-27.2 17.6-2.1 1.3-3.6 2.5-3.4 2.7.4.5 21 3.6 24.7 3.8 2.3.1 2.6-.4 4.2-7.9 3.1-14.3 3-20.2-.4-33.8-1.6-6.7-3.3-12.8-3.7-13.5-.5-.9-2.2.4-5.7 4M1004.5 363.1c-3.3 2.7-8.1 6.4-10.7 8.2-2.7 1.8-4.7 3.7-4.5 4.3.1.7 5.6 5.1 12.2 9.9s13.5 9.9 15.3 11.3c2.4 1.8 3.2 2.1 3.2 1 0-.9-1.6-9.1-3.5-18.4s-3.5-17.9-3.5-19.2c0-3.3-1.8-2.7-8.5 2.9M1014.3 361.5c.7 2.5 2.1 9.7 4.7 23.9 1.1 5.9 2.4 11.5 2.8 12.3.7 1.1 2 0 5.9-4.8l5-6.3-8.5-12.5c-9.3-13.9-10.7-15.6-9.9-12.6M1052.1 380.7c-1.1 1.2-1.4 7.2-1.5 30.6l-.1 29.1h2.5c2.8 0 26.1-1.7 27.3-2 .4-.1 1-.2 1.3-.3.9-.2-5.9-5.6-17-13.5-5.3-3.8-9.6-7.3-9.6-7.8s2 .6 4.5 2.4c2.4 1.8 6.3 4.6 8.6 6.3 2.3 1.6 6.2 4.5 8.7 6.3 4.1 3.1 4.3 3.2 3.7 1-2.1-6.5-5.5-12.9-6.6-12.2-.8.5-.9.3-.5-.5.5-.7-.4-4-1.9-7.4-5.6-12.6-7.2-16.3-8.4-19.4-.7-1.7-1.9-3.4-2.7-3.7s-1.4-1.6-1.4-2.8c0-2.7-2.8-7.1-4-6.3-.4.3-1 .1-1.2-.4-.1-.5-.9-.2-1.7.6M804.4 548.7c.4.4-1 1.2-3.1 1.8-3.6 1-3.8 1.3-4.1 5.3-.3 3.8-.1 4.2 2.1 4.2 2.6 0 14.9-4 19.2-6.2 3.4-1.8 2.6-2.4-6.5-4.3-8.2-1.7-8.6-1.8-7.6-.8M807.5 595.7c-2.2.1-6.4.6-9.2.9l-5.3.5v4c0 5 1.5 8 3.5 7.2 1.3-.4 1.2 0-.2 2.6-1 1.7-2.4 3.1-3 3.1-.7 0-1.3.7-1.3 1.5s.3 1.5.8 1.5c.4 0 5.9-5 12.2-11 9.2-8.9 10.9-11 9-10.8-1.4.1-4.3.3-6.5.5"/></svg>