<svg xmlns="http://www.w3.org/2000/svg" width="1706.667" height="960" viewBox="0 0 1280 720"><path d="M0 267.5C0 445.2.3 535 1 535c.6 0 1 .5 1 1.1 0 .5-.4.7-1 .4-.7-.4-1 30.3-1 91.4V720h258.7c244.9 0 258.7-.1 260.6-1.7 1.9-1.7 2-1.7 1.4-.1-.6 1.7 17.9 1.8 379.3 1.8h380v-95.9c0-75.8-.3-96.1-1.2-96.5-1-.5-1-.7 0-1.2.9-.4 1.2-54.1 1.2-263.5V0h-219.5C890.4 0 841 .3 841 1.2s-.3.9-1.2 0S744.1 0 419.3 0H0zM732.7 46.8c.7.4 14.1 13.3 29.9 28.7s30.3 29.5 32.1 31.2c1.9 1.8 3.7 3.3 4.2 3.3s2.7-2.8 5-6.3c5-7.6 5.4-6.7.6 1.3-4 6.6-4.1 7-1.7 7 1.4 0 1.5.2.2 1s-1.3 1.2 0 3.4c.8 1.3 3.8 4.8 6.5 7.8 2.8 2.9 7.3 8 10 11.3 2.8 3.3 9.1 10.7 14 16.5 8.2 9.5 9 10.2 9.3 7.8.2-1.4-.6-6.4-1.6-11-1.1-4.5-2.5-12.1-3.2-16.8-1.6-11.9-2.4-13.2-9-14.7l-5.5-1.2 5.7.3c5.1.3 6.3.8 10 4.2 2.4 2.2 5.4 4.7 6.8 5.7s.3.6-2.3-.8c-2.7-1.5-5.1-2.4-5.4-2.1-.7.7 6.1 38.6 7.3 40.4.4.7 19.4-18.4 19.4-19.5 0-1.6-4.8-6.9-10.8-11.9-3-2.4-5.1-4.4-4.7-4.4 1.1 0 11.5 8.2 11.5 9.1 0 .5.9.9 2 .9s2 .5 2 1.1.9.9 2 .6c1.6-.4 1.8-.2 1.1 1.1-.5.9-.6 2.3-.2 3.2.5.8 1.1 3.5 1.5 6 .4 2.4 1.1 5 1.7 5.6.6.7 1.2 4.1 1.5 7.6s.9 7.4 1.4 8.8c4.2 11.9 10 50.6 7.9 52.8-.4.4-.9 1.6-1.2 2.7s-.5-1.8-.6-6.5-.5-10.2-1-12.2c-.5-2.1-.5-3.6-.1-3.3 1.3.8.2-5.1-3.6-21.1-1.8-7.7-3.6-16.7-4-20-.4-3.2-1.5-7.1-2.5-8.6-1.1-1.4-1.9-4-1.9-5.7s-.4-3.1-.9-3.1c-.4 0-4.9 3.9-10 8.6-9.9 9.4-10.8 11.4-6.6 15.4 2.9 2.7 2.5 4.2-.4 1.6-1.9-1.7-2-1.6-2.6 2.9-.4 2.5-.3 7.2.3 10.3s1.6 12.2 2.2 20.2c.7 8 1.3 15.1 1.5 15.7.6 1.8 5.2-.1 8.8-3.5 2.3-2.2 2.7-3.3 2.3-5.7-.3-1.6-.1-3.7.4-4.5.7-1.1 1-.6 1 2.1 0 2 .3 3.9.7 4.2.7.8.5 31.9-.3 32.6-.2.2-.4-6-.4-13.8 0-7.9-.3-14.1-.7-13.9-.5.2-2.7 1.2-5.1 2.2-7.2 3.1-6.9 4.4 6.2 29 1.4 2.7 2.6 5.5 2.6 6.2s.6 1.5 1.3 1.7c.9.4.9.8-.2 1.5-1.1.8-1.2 2.9-.3 11.8 1.3 13.6 1.3 13.6 3.7 15.1l2 1.2-2 .1c-4.9.3-7.5 1-13.8 3.9-3.7 1.7-7.1 3.1-7.6 3.1s-3.2 1-6 2.2c-4.8 2-5.2 2.3-4.9 5.2.2 1.7.8 3.1 1.3 3.1.6 0 1.5.3 2 .6.6.4 2.4 1 4.1 1.3 3 .7 3.5.3 8.4-5.8 2.8-3.7 5.3-6.6 5.5-6.6.3 0-1.4 2.9-3.7 6.5-2.2 3.6-3.8 6.8-3.5 7.2.4.3 2.1.7 3.9.9 1.7.2 3.4.8 3.7 1.2.6.8 8 3.2 10 3.2.6 0 1.2-1.5 1.2-3.3q.15-3.15.6-1.2c.3 1.1.9 2.4 1.3 3 .4.5 1.3 2.9 1.9 5.2s2.2 5.5 3.4 7c1.3 1.5 3.1 4.1 4.1 5.7 1.8 2.8 1.9 2.9 3.2 1.1s1.4-1.8 1.6.6c.2 4.1-.3 7.3-1.8 10.4-.7 1.6-1.3 5.1-1.3 7.6.1 2.5-.4 5.7-1.2 7-.7 1.3-1.6 4-1.9 5.9s-1.2 3.4-1.8 3.2c-.7-.1-1.2.7-1.2 1.8 0 1.3-.7 2-1.8 2-1 0-2.9 1.1-4.2 2.5s-3.2 2.5-4.1 2.5c-1.1 0-1.6.5-1.3 1.3s-.7 1.9-2.3 2.8l-2.8 1.4 5 .3c5.6.4 14.4-.5 16.1-1.6 1.6-1.1 4.3-9.8 3.7-12.1-.3-1.1.3-3 1.2-4.3 1.6-2.2 1.6-2.1.8 3.7-.4 3.3-.7 8.4-.6 11.3.2 3.2-.1 5.1-.7 4.7-.6-.3-.7.1-.4.9.3.9.3 2.4-.2 3.3-.6 1.5-.8 1.3-1.4-1.2-.5-2-.7-.8-.5 3.4.2 3.6-.1 7.5-.5 8.6-.5 1.2-.4 2.8 0 3.6 1 1.5-.5 2.9-3 2.9-1.2-.1-1.2-.3.3-1.4 1.8-1.4 2.4-3.2.7-2.1-.5.3-.8 0-.6-.7.3-.7.7-4.2 1.1-7.7l.6-6.4-3.8 4.5c-6.6 7.9-11.4 15-11.6 17.2 0 1.2-.4 2.3-.7 2.6s-2.8 3.4-5.5 7c-2.8 3.6-5.2 6.7-5.5 7-1.1 1.1-4 6-4 6.8 0 .5-1.6 2.7-3.6 4.8l-3.6 3.9 2.2-3.8c1.9-3.2 2-4 .9-5.4-1.2-1.4-1.1-1.5.7-.9 1.7.5 2.6 0 4.2-2.6 1.1-1.8 3.9-5.9 6.1-9.2 2.2-3.2 3.9-6.2 3.6-6.6-.4-.7-14-2.5-15.8-2.2-.4.1-4.8-.3-9.9-.8-5-.6-9.3-.8-9.6-.5s3.9 5.2 9.4 10.8c10 10.3 7.5 8.6-4.7-3.1l-6.6-6.4.3 7.4.3 7.3-.9-7.4c-.6-4.1-1.3-7.8-1.7-8.2-.5-.4-3.7-.3-7.3.1s-10.1 1.1-14.4 1.4c-4.4.3-8.4 1-8.8 1.4-1.7 1.7.4 5.9 5.8 11.8 3 3.2 8.1 9.5 11.3 13.9 8.4 11.8 9.7 14.5 2 4.5-1.9-2.4-5.6-6.9-8.3-10-2.7-3-5.7-6.9-6.7-8.5-2.1-3.4-2.3-2.7-1 4.2 1.6 8 2.3 21.5 1.1 20.8-.5-.3-1-1.5-1-2.5 0-1.4-.5-1.8-1.6-1.3-1 .4-1.2.8-.5 1.3.8.4.9 1.9.2 4.6-.5 2.1-.9 3.1-1 2.1-.1-2.3-1-2.2-3.9.5-2.6 2.3-2.1.8.6-2.5.8-.9 1.1-1.7.6-1.8-3-.2-19.8.2-20.2.5-.2.3.5 1.5 1.7 2.7 2.7 2.9 1.9 3.7-1 1-1.3-1.2-2.8-2.1-3.5-2.1s-1.4-.6-1.7-1.3c-.6-1.8-19.7 14-19.7 16.5 0 .4-1.5.8-3.2.8-2.9-.1-3.1-.2-1.4-1.2 1.8-1 1.7-1.2-1.4-3.9-3.7-3.2-2.9-3.9 1-.9 1.4 1.1 3.1 2 3.9 2 2 0 12.6-8.7 16.1-13.3 1.3-1.8.9-1.9-13.5-1.4-10.3.4-12.8.3-8-.2 3.9-.5 9.7-1.2 13-1.6 3.2-.3 6.3-.9 6.7-1.1 1-.6-1.5-4.2-6.3-9.6-1.9-2-4.7-5.3-6.3-7.2-1.5-2-3.4-3.6-4.2-3.6s-1.3-.3-1.3-.8c.1-.4.1-1.2 0-1.7-.1-1.3-5-6.9-5.5-6.4-.6.6-4.6 13.4-6.4 20.4-.8 3.3-1.5 8.4-1.5 11.2 0 2.9-.4 5.3-.9 5.3-1.5 0-2.1-5.3-.9-10.2 1.7-7.3 1.3-8.9-.9-3.9-1.1 2.4-2 4.9-2 5.6s-.7 1.8-1.5 2.5-1.5 1-1.5.8c0-1.8 6.4-18.7 9.2-24.1 1-2.1 1.8-4.3 1.6-4.9-.2-.5-10.6 9.5-23.1 22.3L685 463.3l8.7 8.8c5.7 5.7 9.7 9 11.3 9.1 2.3.3 2.6-.3 5-8.4 2.1-7.4 2.8-8.8 4.5-8.7 1.1 0 1.4.3.8.6-.7.2-1.3 1.4-1.3 2.5 0 2 .4 2.1 6.5 1.5 4.7-.5 6.8-.3 7.7.7s1.7 1 3 .3c1.3-.9 2.1-.7 3.6.6 1 .9 5.6 3 10.3 4.6 5.2 1.9 8.3 3.5 8.1 4.3-.2.7-.1 2.7.3 4.5.4 2.4 1.1 3.3 2.6 3.3 3.2 0 5.9-1.9 5.9-4 0-3.6 2.5-2.1 4.4 2.8 1.8 4.2 5.8 10.2 11.6 17.2l2.1 2.5-.4-3.6c-.3-2-.8-4.2-1.2-4.8-.6-1-4.5-16.3-4.5-17.7 0-.3.4-.3.9 0s1.7 4.1 2.6 8.3c.9 4.3 2.3 8.8 3.1 10 .8 1.3 1.6 5.3 1.9 9 .5 8.1-.1 8.8-9.7 12l-6.6 2.2-7.7-3c-8.3-3.2-9.6-3.4-12.3-2-.9.5-7 3.5-13.4 6.6l-11.7 5.6-5.4-3.8c-3-2.1-8.7-6.6-12.8-10-6-5-7.6-6-8.8-5-.8.7-1.2.7-.9.2 1-1.7-.2-2.8-8.7-7.7-9.4-5.5-21-10.8-23.4-10.8-1 0-2.3-1.2-3-2.6-.6-1.5-3.3-5.9-5.9-9.8-6.4-9.7-6.4-9.6-5.8-9.6s9.6 12.9 9.6 13.9c0 .4.9 1.6 2.1 2.7 2.1 1.9 2.1 1.9 12.5-9.1 5.7-6.1 10.4-11.4 10.4-11.8s-.6-.9-1.2-1.1c-.7-.3-5.7-1.8-11-3.5-5.4-1.7-10.7-3.1-11.9-3.1-1.1 0-1.8-.4-1.5-.9.4-.5-3.1-2.2-7.6-3.7-4.6-1.5-7.8-2.9-7.1-3.1.7-.3 2.1 0 3.2.6s2.8 1.1 3.9 1.1c1 0 4.5 1.3 7.8 2.9 3.2 1.6 9.1 3.8 12.9 4.9 3.9 1.1 7.8 2.3 8.8 2.7 2.9 1.2 1.9-.8-3.1-6.6-2.6-2.9-7.2-8.7-10.2-12.7-3.7-5-6-7.2-7.5-7.2-1.2 0-2.5.3-2.8.7-1.2 1.2-8.7 4.2-8.7 3.5 0-.8 9.5-5.2 11.2-5.2.6 0 .8-1.1.4-2.8-.5-2.2-.4-2.4.4-1 1.6 2.6 2.7 2.3 7.9-1.9 5.3-4.4 20.1-18.6 20.1-19.4 0-.6-9.2.3-25.5 2.3-5.5.7-10.6 1.3-11.3 1.3-1.4 0-4.5 6.5-5.7 12-.4 1.6-.9 2.5-1.2 1.8-.2-.7.3-4 1.1-7.4.9-3.4 1.4-6.4 1.1-6.7-.6-.7-20.7-6.4-22.5-6.4-.8-.1-1.9-.4-2.5-.8-.5-.4-4.2-1.5-8.2-2.5-3.9-.9-8-2.3-9-3-1.2-.9.3-.7 4.5.5 8.2 2.6 11.5 2.6 10.9.2-.3-.9-.8-3.1-1.2-4.7-1.6-7.5-3.7-13.5-4.8-13.5-.6 0-2.1 1-3.4 2.2-1.9 1.7-2.3 1.9-1.7.5.3-.9.9-1.7 1.3-1.7 1.6 0 3.1-5.1 2.1-7-1.1-2.1-8.3-12.6-13-19.1-1.6-2.3-3-4.8-3-5.6 0-.7-.7-2.5-1.7-3.9-1.2-1.9-1.8-2.2-2.4-1.2-.6.9-.9.6-.9-1 0-1.2-.4-2.2-1-2.2-.5 0-1-.7-1-1.6 0-1.6-7.6-9-15.6-15.2-5.4-4.2-7.2-8.2-3-6.6.9.3 1.6 1.1 1.6 1.8 0 .6 1.7 2.6 3.8 4.5 2 1.9 5.8 5.4 8.5 7.8 2.6 2.4 5.2 4.1 5.7 3.8.6-.3 1-.1 1 .5s.5.8 1 .5c.9-.6 1.4.8 1.1 2.9-.1.7 1.2 3.2 6.4 11.8 7.6 12.7 14 21.8 14.9 21.5.7-.2 1.2-3.9 1.2-10.3.1-6.5.7-11.1 1.7-13.5l1.6-3.6-4.2-5.6c-2.7-3.6-4.2-6.7-4.3-8.8-.1-3-.1-3.1 1-1 1.2 2.2 1.2 2.2 3.7.3 1.3-1.1 3.4-2.2 4.7-2.6 1.2-.4 2.2-1 2.2-1.4s1.8-1.8 3.9-3.2c2.2-1.3 4.2-3.2 4.4-4.1.3-1 2.3-3 4.6-4.6 4.2-2.8 4.5-4 2.5-8.8-.6-1.5-.1-1.3 2 .8 2.7 2.7 2.9 2.7 4.7 1.1 1.1-1 2.8-3.2 3.9-4.9 2.5-4 6.2-15.7 5.2-16.7-.7-.7-17.8 2.3-21.4 3.7-1 .4-1.8 1.6-1.8 2.8 0 1.9-.1 1.9-1.8.4-1.3-1.2-3.9-1.8-8.3-1.9-5-.1-5.4-.2-1.9-.5 7.6-.5 11-1.3 11-2.6.1-.7 1.4-2.8 3-4.7 1.7-1.9 3-3.8 3-4.2 0-1.4 8.2-14.3 12.2-19.1 2.1-2.6 3.6-4.7 3.3-4.7s-3.1 1.6-6.1 3.5-5.7 3.5-6 3.5c-.4 0-4.1 2.4-8.3 5.3-9.8 6.8-15.6 10.4-14.8 9 .4-.6 9.2-6.8 19.7-13.8 10.4-7 18.7-13.1 18.4-13.6-.2-.5-2.4-1.3-4.7-1.9-6.4-1.7-21.9-9.2-20.6-10.1.8-.5.6-1.3-.7-2.8-1.9-2-2-2-4.8-.2-1.6 1.1-3.7 3.6-4.7 5.8l-1.8 3.8.5-3.7c.3-2 .1-5.1-.5-7-.6-1.8-2-6.5-3.1-10.3-3.1-10.1-4.1-12.5-5.1-11.9-.5.3-.9 2.2-1 4.2 0 2-.4 5.5-.9 7.7-.7 3-.8 2-.4-4 .3-4.4.7-9.2 1-10.6.6-3 1.2-2.8-20.1-5.8l-7-1 6.5.4c3.6.2 9.7.7 13.6 1.1 6.9.6 7.2.5 7.7-1.8.8-3.2 1.1-60.7.4-61.5-.4-.3-4 6.3-8.2 14.8-4.1 8.5-7.5 15-7.5 14.6 0-.8 7.2-17 11.6-26.1 3.1-6.4 3.1-9.3.2-9.9-2-.4-2-.4.4-.6 1.5 0 2.9-.4 3.1-.9.2-.4.1-3.4-.3-6.7-.4-3.5-.3-6.4.2-7 .6-.7.9-.7.7 0-.3 1.1 1.1 11.7 1.7 12.6.7 1.2 17.5-5 30.4-11 6.9-3.3 14.2-6.6 16.3-7.5 3.1-1.3 3.7-1.9 3.2-3.8-.2-1.3-.7-3.5-.9-5.1-.3-1.5-.8-3.6-1.1-4.7-.4-1.1-.2-2 .3-2s1.3 1.7 1.6 3.7c1.8 10.1 1 9.3 8.4 9.3 3.7 0 14.6-.7 24.2-1.5s18.2-1.5 19-1.5-11.4-6.4-27-14.3c-15.7-7.9-28.9-14-29.4-13.6-.5.5-.4 2.6.2 5.1 1.5 5.9.7 5.9-1.3-.1-1.1-3.5-2-4.8-3.1-4.4-.7.3-1.2.9-.9 1.3s-4.4 7.2-10.3 15-13.1 17.4-16 21.3c-7 9.5-8 10.7-9.2 10.7-.9 0-.5-.7 5.1-7.4 1.4-1.7 7.6-9.9 13.9-18.1 6.2-8.3 11.6-15.2 11.9-15.5.4-.3 1.4-1.7 2.4-3.3 1.3-2 1.4-2.7.4-2.7-.7 0-8.4 3.2-17.1 7.1s-16 6.9-16.2 6.6c-.2-.2 4-2.3 9.4-4.7 21.4-9.6 24.7-11.2 26.7-12.9 1.1-1 3.1-2.1 4.5-2.4 2.7-.5 32.9-11.2 41.9-14.7 2.9-1.1 5.5-1.9 5.7-1.7.5.5-12 5.4-31 12-8.2 2.9-15.1 5.7-15.3 6.3-.2.5 4.7 3.4 10.9 6.3 6.2 3 16.9 8.2 23.8 11.6 13.8 6.8 23.8 11 24.5 10.3.8-.8 14.4-42.6 15.1-46.3.3-1.9 1-3.7 1.4-4 1-.6-2.4 13.2-6.4 25.5-3.1 9.7-6.9 25-6.3 25.6.3.4 10.4 1.1 22.4 1.6s29.5 1.2 38.8 1.6c9.4.5 17.1.7 17.3.6.7-.4-61.3-61.4-62.5-61.4-.7 0-1.4.8-1.4 1.7-.1 1.6-.2 1.6-.6 0-.3-1.1-1-1.6-1.9-1.3-3.2 1.3-4.7 1.6-2.6.5 1.3-.7 2.1-1.8 1.8-2.6-.6-1.4 3-1.8 5.1-.5m-321.8 73.6c-.5.5-6.2 1.3-20.4 2.7-6.6.6-12.4 1.5-13 2-.5.6-.4.9.4.9.7 0 3.6 1.1 6.4 2.4 2.9 1.3 7 2.6 9.2 3 2.1.4 6.9 2.4 10.5 4.3 7.7 4.1 18.6 8.3 21.7 8.3 2.3 0 14.3-10.9 14.3-13 0-.5 1.4-1.7 3.1-2.5l3-1.6-1.8 2.8c-1 1.5-2.7 3.5-3.8 4.3-4.4 3.2-10.5 9.3-10.5 10.6 0 .7 1.2 1.5 2.8 1.7 2.5.4 2.5.4-.5.6l-3.3.1 3.2 5.2c1.8 2.9 3.5 5.5 3.8 5.8.7.6 5 7.6 5 8.1 0 .2-4.1.5-9.2.6-5 .1-9.5.6-9.9 1-1.5 1.5.9 3.6 4.2 3.7l3.3.1v19.3l.1 19.3 5.8-.4c3.2-.3 5.5-.1 5 .3-1.6 1.3-33.5 7.8-47.3 9.6-2.5.3-7.1 1.2-10.2 1.9-3.2.7-5.8 1-5.8.7 0-.4-.6.5-1.4 2-.9 1.7-1.3 4.8-1.1 8.5 1.1 18 1.4 44.7.5 43.3-.5-.8-1-7.4-1.1-14.5-.1-7.2-.4-17.7-.8-23.5l-.6-10.5-4 7c-2.2 3.8-4.2 7.4-4.3 8-.8 2.1-8.6 18-9.1 18.5-.4.3-3.3 5.8-6.5 12.2-5.7 11.3-7.5 14.4-5.7 9.5.9-2.3 4.9-10.6 6.8-14.2 5.8-10.7 21.4-43.7 20.9-44.2-.6-.7-38.9 3.2-40.3 4-.5.3-.3 6.2.2 13.2.6 7 .8 17.5.5 23.3-.4 10.3-.4 10.1-1.2-8.3-.5-10.5-1.2-20.4-1.7-22-.7-2.9-.8-2.9-4.5 4.5-8.2 16.1-14.2 23.1-15.9 18.6-.3-.8-3.7-3.3-7.6-5.6-3.8-2.3-7.5-4.8-8.2-5.6-.6-.8-1.6-1.4-2.1-1.4-.9 0-2.1-.9-5.4-3.9-2-1.8-2.7-.8-4.4 6.7-.7 3.1-1.7 6.1-2.2 6.6-1.2 1.5-1-.4 1.3-10 2.1-8.7 2-12.9-.6-27.9-.5-3-2.7-8.9-3.6-9.9-1.1-1.2-1.4-.1-3.4 13.4-2.2 14.7-2.5 16.1-3.7 15.4-.5-.3-.6-1.3-.3-2.3.4-.9 1.8-8.4 3-16.6 1.3-8.3 2.7-15.9 3.1-17l.7-2-2.2 2-2.3 2 2.1-3.8c1.1-2.1 2.1-4.4 2.1-5.2s.4-1.5.9-1.5c1.1 0 7.5-10.7 9.2-15.4.7-2 1.6-3.6 2-3.6s1.1-.9 1.4-2c.4-1.1 2.4-4.9 4.6-8.5 2.1-3.6 3.9-7.1 3.9-7.8s4.8-6.2 10.6-12.3c9.8-10 9.2-9-2.4 4-2.4 2.7-4.1 5-3.9 5.2.2.3 2.8 1.4 5.8 2.5 4.4 1.6 4.8 1.9 1.9 1.5-1.9-.3-4.9-.8-6.6-1.1-3-.7-3.3-.5-5.8 4.6-1.4 3-3.7 7.4-5.1 9.9-1.3 2.5-3.6 7-4.9 10-2.7 5.8-4.3 8.5-6.4 10.8-3.3 3.6 1.3 2.3 16.1-4.6 4.2-1.9 7.7-4 7.7-4.4 0-.5.4-.7.9-.4 1.4.9 11.4-3.5 13.6-6 1.1-1.2 3.1-2.5 4.5-2.9 1.9-.5 2.1-.4 1 .4-3.2 2.3 2.6.2 12-4.1l4.5-2.1-3-.8c-1.6-.4-5.7-1.5-9-2.4-9.7-2.8-13.6-3.6-14.5-3-1 .6-.7-2.1.3-3.1.4-.4 1.7-.2 3 .4 3.3 1.6 19.8 6.2 22.4 6.2 1.2 0 2.4-.4 2.7-.8.4-.7-.8-7.5-3.8-21-.8-3.5-1-6-.6-5.5.4.4 1.7 5.1 3 10.3 1.2 5.2 2.7 10.8 3.4 12.3l1.1 2.9 6.5-8.3c6.3-8 8.5-10.8 17.7-21.7 4.4-5.1 4.2-6.2-.7-6.2-1 0-2.1-.4-2.4-.9-.4-.5.9-.6 2.8-.1 3.2.7 7.7.4 28.1-1.9 8.1-1 15-1.3 14.4-.7m528.5 44.7c3.6 1.2 6.5 2.4 6.2 2.6-.2.2-3.2-.5-6.7-1.6-3.4-1.2-6.4-2.1-6.7-2.1-1.1 0 1.5 4 9.5 14.6 4.9 6.4 9.5 12.6 10.3 13.8 5.2 7.6 14.5 20.2 16.2 22 1 1.2 4.9 6.5 8.5 11.9 3.7 5.4 7 9.4 7.4 9s3.5-8.2 6.8-17.3 7.1-19.5 8.5-23.3c1.4-3.7 2.6-6.9 2.6-7.1 0-.4-9.4-3.7-20.5-7.1-4.9-1.5-11.7-3.8-15-5-3.3-1.3-8.5-3.3-11.5-4.4s-5-2-4.5-2.1c1.1 0 9 2.5 31.2 10.2 16.4 5.6 20.3 6.5 20.3 4.9 0-.8.5-.8 1.8 0 1.5.9 3.5.6 9.8-1.5 11-3.8 11.1-3.9 9.1-2.6-.9.6-4.1 1.9-7 3-2.8 1-6.5 2.3-8.1 2.9-3.5 1.4-4.3.6 12.9 12.1 6.6 4.4 14.9 10 18.4 12.5 6.5 4.4 8.7 5.1 6 1.8-2-2.4-6.2-10.3-5.5-10.3.3 0 1.3 1.5 2.2 3.2 1 2 1.9 2.8 2.2 2 .8-2.4 3.3 4 6.8 17.5 1.9 7.2 3.4 14.9 3.3 17-.1 3-.3 2.5-1.3-2.9-1.3-7.2-3.1-10.8-2.1-4.3.3 2.2.9 8.4 1.4 13.8.7 8.4 1.2 10.2 3.3 12.5 1.9 2 2.8 4.5 3.6 9.7.6 3.8 1.3 7.9 1.8 9 .5 1.5.4 1.7-.5.9-.7-.6-1.8-4.4-2.5-8.5-.8-4.1-1.7-8.2-2.1-9.2-.9-2.2-2.9-2.2-2 0 .3 1 1.1 4 1.6 6.8 1.2 6.1 2.9 10.6 4.5 12.2 1.5 1.5 2.8 1.7 1.9.4-.3-.5-.1-1.2.5-1.6s1 .8.9 3.2c-.1 2.1-.3 3-.6 2-1-3.7-2-1.5-1.2 2.5 1.6 7.5 2.7 11.4 2.8 9.4.2-3.5 1-1.1 2.2 6.4.9 5.8.9 9.8-.1 17.5-.7 5.5-1.6 10.4-2 11-2.6 3.6-3.9 18-1.8 21.8.6 1.3 1 5.7.9 10.4-.1 6 .3 9.4 1.8 13 8.2 20.7 21.1 50.2 24.8 56.8 2.2 4 2.4 5.1 1.4 7.8-.6 1.8-.9 2.2-.7 1 .5-3.1-1.2-3.4-13.3-2.3-5.8.5-12.5 1-14.8 1.2-2.4.1-4.3.5-4.3 1 0 .8 13.3 8.8 14.8 8.8.5 0 4.1-2.3 8-5 4-2.8 7.2-4.7 7.2-4.3 0 .5-1.6 1.9-3.6 3.3-1.9 1.4-5.5 4-7.9 5.7-2.4 1.8-4.7 3.3-5.2 3.3-.4 0-2.6 1.8-4.8 4-2.2 2.1-4.4 3.9-5 3.9-.5.1 1-1.7 3.4-3.9 2.5-2.2 4.1-4 3.7-4s-3.6.7-7.2 1.6l-6.5 1.7.3 15.6c.1 8.6.5 18 .8 20.8l.5 5.3 3.8-3.5c4.3-3.9 4.3-4.4 0-15.5-3.4-8.6-4-13.2-1.9-14.9 1.8-1.5 1.9-1.2 1.6 4-.1 1.9.6 5.5 1.5 8 .9 2.4 2.3 6.5 3.1 9.2l1.5 4.8-5.3 6c-4.2 4.9-4.9 6.2-3.8 6.9s2 .3 3.3-1.3l1.8-2.2-1.1 2.5c-1.1 2.4-1.6 2.6-8 2.6-6.7 0-6.8-.1-3.8-1.3 4.1-1.8 4-1.6 2.7-4.9-1.6-4.1-2.1-7.4-1.1-7.4.4 0 .8 1 .9 2.1.1 1.2.7 2.7 1.4 3.3.9.8 1-3.9.6-20-.3-15.3-.2-21.1.7-21.1 3-.2 14.6-3.7 14.6-4.4 0-.8-10-7.6-12.8-8.7-1.2-.4-1.4.2-.8 3.4l.6 3.9-1.5-3.4c-.8-1.8-1.6-6.1-1.6-9.5-.1-4.9-.3-5.5-.9-3.1-.4 1.6-.9 4.8-1 7s-.4 3.2-.7 2.2c-.8-3.2-2.3-1.7-2.4 2.5-.3 9.4.3 19.3 2 29.8 1 6.1 1.4 11.3.9 11.6-.4.3-.8-1-.8-2.8s-.5-4-1-4.8c-.7-1.1-1-.1-1 3.5 0 2.8.6 5.7 1.3 6.5 1 1.2.9 1.2-.4.2-1.8-1.3-2.4-.7-6.4 7-1 2.1-2.1 3.5-2.3 3.3s1-3 2.7-6.2 3.1-6.9 3.1-8.3-.1-8.1-.1-15-.1-13.2-.2-14 .2-4.7.6-8.5c1.6-15.4 1.6-16.6.5-15.9-.8.5-.9.1-.5-1 .4-1 .7-2.4.7-3.1 0-.8.6-2 1.3-2.7 2.6-2.5 3.7-5.7 3.7-10.2 0-2.5-.4-4.8-1-5.1-.5-.3-1-.1-1 .5 0 2.5-2.3.2-3.5-3.4-1.2-3.4-10.5-18-11.1-17.4-.1.2.8 4 1.9 8.5 2 7.7 2.4 8.3 5.7 9.7 1.9.9 2.4 1.3 1.1 1-1.3-.4-2.9-.7-3.5-.8s-2.9-1-5.1-2c-9.3-4.1-13.7-5.6-14.7-5-.6.4-1.8-.2-2.7-1.3-2.5-3.1-23.4-18.2-31.2-22.5-4-2.3-5.2-2.5-8.5-1.7-5.6 1.3-7.6.9-2.9-.6 3-.9 3.9-1.7 3.7-3.1-.3-1.6-.2-1.6 1.3-.4s1.6.9 1-4.1c-.4-3-1.3-9.2-2-13.9-.8-4.7-1.5-10.1-1.6-12-.2-1.9-.8-4.2-1.5-5-.9-1.2-.8-1.9.7-3.4 1.7-1.8 1.9-1.8 1.9-.2 0 1.4 2.8.3 14.3-5.7 28.1-14.7 26.2-13 22.8-21.1-3.4-7.9-30.4-64.1-31.1-64.6-.4-.3-.9-1.3-1.3-2.3-.7-1.9-4.9-4-12-5.8-7-1.8-5-2.2 2.4-.5 3.5.9 6.5 1.3 6.7 1.1.6-.5-19.5-27.7-25-33.9-1-1.1-1.8-2.3-1.8-2.8 0-.4-2.1-3.5-4.7-6.9-2.7-3.4-7-9.4-9.8-13.4-2.7-4-6.2-8.7-7.7-10.5l-2.6-3.4-4 6.5c-6.6 10.5-7.4 11-2.3 1.1 2.7-5 4.6-9.2 4.2-9.2-.3 0 .1-.4.8-.9.9-.6 2.2-.6 3.2-.1.9.5 4.6 1.9 8.3 3.1M272 270.7c0 .8 1.7.5 5.6-.8 6.8-2.4 8.4-1.9 1.9.5-7.1 2.8-7 2.8 11.5 12.1 7.4 3.7 19 9.5 25.7 12.8 6.7 3.4 12.4 5.9 12.8 5.6.3-.4-.6-3.3-2.1-6.5-4.1-9.2-6.6-16.3-4.9-14 .8 1.1 1.5 2.5 1.5 3.1s1.4 3.9 3 7.3c1.7 3.4 3 6.7 3 7.3 0 .5.4.8.9.5.5-.4 1.2 0 1.5.6.5 1 .7 1 1.2 0 .3-.6 1-1.2 1.5-1.2s.2 1.1-.7 2.5c-1.2 1.8-1.3 2.9-.6 3.8.8.9-1.4 1.2-10.1 1.3-8.2.1-10.1-.1-7.2-.7 2.2-.4 5.8-.8 8-.9 3.8-.1 3.9-.1 2-1.6-1.1-.9-10.5-5.9-21-11.1-10.4-5.2-21.5-10.7-24.5-12.3-7-3.7-7.6-3.7-5.1.3 1.1 1.8 2.6 4.4 3.3 5.7 3.4 6.3 10.2 17.1 11.1 17.7.6.4 2.1.8 3.3.9 1.8.2 2.4-.3 2.7-2.4.4-2.7.4-2.7 1.2.5l.8 3.3h7.1c4.9 0 6.6.3 5.6 1-.8.5-5.4 1-10.2 1-6 0-8.8.4-9.1 1.2-.3 1-.7 1-1.9 0-1.5-1.2-20-5.3-24.5-5.4-2.1 0-3.5-2.8-1.4-2.8.5 0 1.7-2.9 2.7-6.4 1-3.6 2-6.3 2.3-6.1.2.3-.4 3.2-1.4 6.5s-1.5 6.3-1.2 6.6c.3.4 2.5 1 4.9 1.5 2.4.4 7.1 1.4 10.6 2.2 3.5.9 6.2 1.1 6.2.6s-1.8-4.1-4-8-4-7.3-4-7.6-1.7-3.2-3.7-6.5l-3.7-6.1-1.2 2.9c-1.1 2.7-1.2 2.3-1.3-3.8 0-3.6-.3-7.9-.6-9.5l-.5-2.8 1.4 3c.9 1.6 1.5 3.5 1.6 4.2m11.8 58.1c.4-.1 2 .2 3.6.7 1.8.5 3.6.4 4.7-.4 2.6-1.6 3.1-1.4 2 .8-.9 1.6-.7 2 1.3 2.5 1.4.3 2.6 1.4 2.9 2.4.2 1.1.7.6 1.4-1.8l1.1-3.5.1 3.1c.1 3.7 4.1 8.4 7.2 8.4 1.8 0 1.9-.3.9-1.5-.6-.8-1-2-.8-2.7.3-.7 1.2.1 2.2 1.9.9 1.8 2.3 3.3 3 3.3.8 0 1.6.6 1.9 1.4s1.8 1.6 3.4 1.9q2.7.45-1.8.6l-4.7.1 1.5 4.2c1.3 3.8 1.3 4.6-.1 7.6-.9 1.8-1.6 4.5-1.6 6.1q0 5.1-2.7 3c-.9-.9-1.3-.8-1.3 0 0 .6-1.1 1.1-2.4 1.1-1.6 0-3.3 1.2-5.2 3.7-1.5 2.1-2.9 4-3.1 4.3-.2.2-.8-.2-1.3-1-.7-1.1-1-.8-1.5 1.2-.5 1.8-1.2 2.4-2.3 2.1-1.7-.4-10.2 6-10.2 7.7 0 .5 2.6.7 5.8.5l5.7-.4-5.4 1.4c-3 .7-6.5 1.9-7.8 2.6-1.9 1-2.5 1-3.6-.3-.6-.9-2.1-2-3.2-2.7-1.7-.9-1.5-1 1.2-.5 3.2.6 3.2.6 2-2-.7-1.4-1.8-2.6-2.5-2.6-1.7 0-4.3 2.6-3.5 3.4.4.3-.4.6-1.6.6s-2.4-.6-2.6-1.3c-.6-1.4-5.3-1.6-7.4-.3-1.1.7-1.3 3-.8 10.9.6 11.2 1.6 13.2 4.7 9.6l2.1-2.4-1.5 2.5c-1.6 2.6-1.6 2.7-1.6 6.2v2.2l-2.1-2.1c-2.2-2.1-2.4-3.5-3.3-18.5-.3-4.2-1.2-9-2-10.5-1-1.9-1.5-2.3-1.6-1.1q0 1.65-1.5 1.2c-1.1-.5-1.3-.2-.9 1 .3.9.1 1.6-.5 1.6s-1.1-1.8-1.1-4.3c0-3.6-.3-4.3-2-4.4-2.4-.2-2.8 3.2-.5 4.1.8.3 1.5 1.1 1.5 1.7 0 .7-.9.5-2.5-.5-2.5-1.6-2.5-1.6-2.5 1.1 0 1.6-.5 4.4-1.1 6.3-.5 1.9-1.2 4.6-1.4 6s-.8 4.3-1.4 6.6c-2.4 9.2-2.2 11.6 1 17.7 1.7 3.2 2.9 6 2.7 6.3-.3.2-1.5-1.7-2.7-4.2-3-5.8-3.9-4.9-1.8 1.8 3.4 11.2 3.9 13.5 3.4 15.9-.4 2.3-.4 2.3-.6-.3 0-1.5-.5-3-1.1-3.3-.6-.4-1 1.6-1 5.4 0 5.6-.1 6-2.2 5.8-1.3-.1-2.9-.7-3.5-1.3-.9-.9-5.4-1.3-13.5-1.3-6.8 0-16.3-.3-21.3-.7-5.2-.3-10.1-.2-11.6.4-3.6 1.4-3.3-.4 2.1-12.2 1.1-2.5 2-5 2-5.7s.6-2 1.3-2.8c.7-.9 2.2-3.6 3.2-6 1.5-3.3 1.6-4.6.7-4.9-1.8-.6-1.5-2 .5-1.8 1.2.1 2.1-1.5 3.3-5.4 1-3 2.7-7.5 3.9-10 2.3-5 2.6-7 1.1-7-.5 0-1 .6-1 1.2 0 1.6-4 8.2-4.5 7.6-1-1 3.8-9.1 5.7-9.6 1.4-.3 1.6-.7.7-1.3-1-.6-1-1.4.4-4.1 2.1-4.3 6.4-13.8 9.4-20.8 2.4-5.7 3-12.4 1.3-13.5-.7-.4-.6-1.3.1-2.7.7-1.3.9-5 .5-10.4-.4-4.6-.4-8.4-.2-8.4.3 0 1 1.9 1.6 4.2.6 2.4 2 6.2 3.1 8.5 1 2.4 1.9 4.9 1.9 5.7s.4 1.7.9 2.1c.5.3 1.2 1.9 1.6 3.5.4 1.7 1.1 3 1.6 3s.9.6.9 1.4.8 1.4 1.8 1.4c.9-.1 3.4.2 5.5.6 2.5.5 3.7.3 3.7-.4 0-.6.5-.8 1.1-.4.7.4 1 .1.7-.7s-1.1-1.3-1.7-1.1c-.6.1-1.1-.2-1.1-.8 0-.5.4-1 .9-1 1.8 0-.2-7.5-2.8-10.5l-2.6-3 2.9 2.6 2.8 2.7 2.9-3.3c1.6-1.8 2.9-3.5 2.9-3.8s-1.9-.7-4.2-.9l-4.3-.3 4.5-1.4c2.5-.8 5-1.8 5.7-2.3s1.3-.4 1.7.4c.8 1.8 0-2.2-1-4.7-.7-1.9-.6-1.9 1.2-.4 3 2.5 4.5 3.2 4.2 1.8-.2-.6.3-1.4 1-1.6.6-.3 1.2.2 1.2 1.1s.8 1.6 1.8 1.6c3.3 0 6.2-1.2 6.2-2.7 0-1 .4-1.1 1.9-.3 1.1.5 4.7 1 8.1 1h6.1l-1.6-3c-2.4-4.6-1.8-4.7 1.5-.2 1.7 2.3 3.3 4.1 3.8 4m610.8 16.8c.3 9.9.6 19.9.7 22.4.3 9.1-1.6 27.7-3.4 33-.9 3-2 7.3-2.4 9.5-.3 2.2-1.3 5.1-2 6.5l-1.4 2.5-.1-2.3c0-1.3.6-3.5 1.4-5 2.3-4.5 5.6-29.8 5.5-41.8-.1-7.8-.4-9.8-.9-6.9-.4 2.2-.8 3.1-.9 2.1 0-1.1-.6-3.4-1.2-5.1-1.2-3.3-.3-13.8 1-11.7.3.6.5-2 .3-5.8-.3-4.7-.1-7 .7-7 .6 0 1.1-1.9 1.1-4.7 0-2.5.2-4.4.5-4.1s.8 8.6 1.1 18.4m-396.6 32c0 .7.8 1 2 .7s2-.2 1.9.3c-.4 1.5 1.2 6.8 2.8 9.2 1.7 2.8 1.3 3.4-2.2 3.4-1.4 0-2.8.4-3.1.9s-1.5.9-2.7.9c-2.2 0-2.2.1.3 2.1l2.5 2-2.5-.7c-1.4-.4-2.8-1.2-3.2-1.8s-1.3-1.1-1.9-1.1c-1.5 0-8.2-13-7.6-14.7.2-.7 1.1.1 2 1.8s2.3 3.4 3.2 3.8c1.1.4 1.4.2.9-.7-.5-.8-.2-.7.9.2 1.5 1.2 1.7 1 1.7-1.7 0-1.7.5-3.4 1-3.7.6-.3 1-1.8 1-3.3.1-2.6.1-2.6 1.5-.8.8 1.1 1.5 2.5 1.5 3.2m16.5 22.4c.6 0 2.5-.1 4.2-.3 2.6-.3 3.4 0 3.9 1.7.4 1.2 2 3.7 3.5 5.6 3 3.6 4.2 8.3 1.6 6.1-1.4-1.1-7.9.9-14.9 4.5-2.5 1.3-5.1.3-2.9-1.1.6-.3.8-1.2.5-2s.2-3.4 1.1-5.9c2.1-5.5 1.5-8.4-.8-3.9-1 1.8-1.6 3.6-1.5 4 .3.8-.5 1.3-2.1 1.3-1 0-.9-5.5.2-6.6 1.3-1.3.7-2.4-1.3-2.4-1.1 0-2-.3-2-.8 0-.4 2.1-.6 4.7-.4 2.7.1 5.3.3 5.8.2m315 57.6c.8-.3 1.9.3 2.5 1.4 1.3 2.4 1.3 2.6-.7 4.5-.9 1-1.8 2.7-1.9 3.9-.3 2.9-2.3 8-2.9 7.4-.3-.3.2-2.1 1-4.1 2-4.8.8-4.7-4.1.5-8.4 8.9-11.2 12.8-10.6 15 .3 1.4.1 1.9-.6 1.4-1.5-.9-2.6 3.7-3.7 14.9-.5 6.1-1.2 10.5-2.2 13.8-.4 1.6-.2 1.7 1.4.8 3.1-1.6 10.3-11.8 10.3-14.4 0-1.4.6-2.4 1.5-2.4 1 0 1.5 1 1.5 2.9 0 1.6-.5 2.8-1.3 2.8-.7 0-2 1.3-2.9 2.8-.9 1.6-4.2 5.6-7.2 9.1-5.7 6.3-6.4 7.5-4.6 8.4.6.3.5.4-.2.3-.7-.2-2.1.1-3 .6-1.2.5-1.8.5-1.8-.2 0-.5.6-1 1.2-1 2.4 0-3.7-5-10.2-8.3-3.5-1.9-6.6-4-6.9-4.8-.3-1 .1-1 2 .2 1.3.9 5.4 3.2 9.1 5.3l6.6 3.7-1.4-6.3c-.8-3.5-1.6-6.9-1.9-7.6-.2-.6 0-1.2.5-1.2s1.2 1.7 1.6 3.7c.4 2.1 1 4.2 1.4 4.8.8 1 1 1.6 1 3.7 0 .6.3.9.6.6 1.1-1.2 3.4-14.4 3.4-19.8 0-3 .7-7.6 1.4-10.1 1.3-4.1 1.2-5.4 0-10-.9-3-2.4-7.2-3.5-9.4s-2.1-5-2.4-6.3c-.2-1.3-.7-3.2-1-4.3-.4-1-.4-1.9-.1-1.9s1.2 2.2 2 4.9c.8 2.6 2.5 7.2 3.9 10.2 1.3 3 2.8 6.3 3.1 7.4.6 1.8 1 1.6 4.4-2 2.1-2.2 6.1-7.1 9-10.8l5.3-6.8-3.5-3.7c-2-2-3.6-4-3.6-4.3 0-.4 1.4.6 3 2.3 1.8 1.7 3.7 2.8 4.5 2.4m-148.7 70.9c2 2.2 2.8 2.5 7.5 2 10.5-.9 30.3-1.3 25.7-.5-2.5.5-7.5.9-11.2.9-7.8.1-9 1.5-2 2.4 2.6.4 7.6 1.1 11.2 1.6 7.9 1.2 12.1 1.6 31 3.1 8 .6 15.8 1.3 17.3 1.5 2.3.3 2.7 0 2.3-1.2-.5-1.3-.1-1.4 2.2-1 1.6.3 3.4.1 4.1-.6.8-.8 1.1-.8 1.1.1s1.4 1.1 4.8.7c11-1.2 15-1.7 21.2-2.5 3.6-.5 7.6-.9 9-.8 2.3 0 2.3.1-.5.9-1.6.4-4.3 1.1-5.8 1.4-3.6.7-3.1 2.5 1.4 4.7 2 .9 4.1 2.3 4.8 3.2.8.9 1.7 1.6 2.1 1.6.5 0 3.6-2.8 7-6.1 3.3-3.4 6.3-6 6.5-5.7.2.2-2 3.1-5.1 6.3-4.8 5.2-5.4 6.3-4.8 9l.6 3-2.2-2.1-2.2-2.1-5.6 3.4c-3.2 1.8-6.8 3.6-8.2 3.9-3 .6-15.6 4.3-18.9 5.6-4.5 1.7-14.8 2.1-19.8.8-2.6-.7-9.1-2-14.3-3s-13.9-3.1-19.3-4.6l-9.7-2.7-3.3 2.3c-2.5 1.8-2.8 1.9-1.6.4.9-1 1.9-2.4 2.2-3 .7-1.1-11.1-9.3-19-13.3-6.4-3.2-13.9-8.1-12.4-8.1.8 0 1.1-.8.8-2-.7-2.7.5-2.5 3.1.5m152.3 34.7c-2.6 5.3-11.7 13.2-16.7 14.4-1.3.3-2.4 1-2.4 1.5s-.5.9-1 .9c-.6 0-3.5 1.8-6.5 4s-5.8 4-6.3 4-3.1 2.1-5.8 4.7-5.1 4.8-5.4 4.8c-.3.1-4.1 3.6-8.5 7.8s-11 10.2-14.7 13.4-6.8 6.7-6.9 7.8c-.1 1.7-.2 1.7-.6.2-.5-2.1-.6-2.1-4.4-.1-1.7.8-3.3 1.4-3.5 1.1-.2-.2 1.2-1.2 3.1-2.3 1.9-1 3.5-2.1 3.5-2.5 0-.9-18-13.4-27.4-19-4.4-2.7-8.8-5.4-9.6-6.1s-2.8-1.9-4.4-2.6c-2.3-1-2.7-1.5-1.7-2.2.9-.5 1.9-.3 2.8.6.8.7 2.7 1.2 4.3 1 1.7-.2 3 .1 3 .7s10 .8 29.8.4c27.2-.6 35.6-1.3 37.1-3.4.3-.5 2.2-1.7 4.1-2.7 4-2.2 28.5-17.9 31.3-20 1-.8 2-2.1 2.1-3 .2-1.2 6.3-8.6 7.1-8.6.1 0-1 2.3-2.4 5.2m370.4 111.7c.3 1.1 1.6 2.1 2.8 2.3 1.3.2 2.3 1.1 2.4 2.3l.3 2-.9-2-1-2v2c-.1 1.1.6 4.1 1.6 6.7l1.6 4.6 1.7-3.1c1-1.8 2.6-5.8 3.6-9 1.3-4.1 2.3-5.7 3.6-5.7 1.6 0 1.4.9-1.6 9.2-1.8 5.1-3.6 10.9-4 12.9-.6 3.1-.9 3.6-3 3.2-1.9-.4-2.9-1.8-4.6-6.6-1.2-3.4-3.3-9-4.6-12.5-2.2-5.9-2.2-6.2-.4-6.2 1 0 2.1.9 2.5 1.9m24.3 5.9c3.1-1.1 8.5.8 13.4 5 1.2.9 1.9.6 3.6-1.7 3-4.1 7.2-4.8 12.5-2.1s8.7 5.9 8.7 7.9c-.1 1-.7.5-1.6-1.2-1.5-2.8-3-3.8-2.1-1.3.4 1 .1 1.3-.8 1-.9-.4-1.2 0-.8 1.4.6 2.5-1.4 6.5-2.9 5.6-.7-.4-.8-.3-.4.5.4.6 0 1.4-.8 1.7-2.4.9-1.9 2.4.8 2.4 1.5 0 3.3-1.1 4.5-2.6s2.1-2.3 2.1-1.8c0 .4-1 1.8-2.2 3.1s-1.7 2.3-1.1 2.3c1.2 0 3.8-2.9 4.6-5 .5-1.3.5-1.3.6 0 .1 3.1-6.1 8.1-7.4 6-.3-.5-1.4-1-2.3-1-1.5 0-1.5.2-.2 1 .8.5 1.1 1 .7 1-1.5 0-5.1-2.2-9.7-6-3.8-3-5-3.5-7.5-2.9-1.6.4-2.6.7-2 .8.5 0-.1.8-1.3 1.7-1.2.8-2.8 1.2-3.5.8-.6-.4-.4.1.5 1.1 1.5 1.6 2.1 1.7 4.5.7 2.6-1.2 2.7-1.1.8.3-1.3 1-3 1.4-4.8 1.1q-2.85-.6-2.1.6c.9 1.4-1 .3-5.8-3.5-2.1-1.6-3.8-3.5-3.8-4.3s-.4-1.4-.9-1.4-1.1-1.1-1.3-2.5c-.3-1.3-.2-2.3.1-2.1.4.3 1.5-1.7 2.6-4.2 1.1-2.8 2.1-4 2.3-3.1.2 1.4.8 1.5 3 .7"/><path d="M641 121.2c-6.9 3.3-14.3 6.6-16.5 7.3-7.6 2.6-11.2 4-13.6 5.6l-2.4 1.7 4 1.7c2.2 1 7.2 3 11 4.5 12.7 5 30.5 12.9 32.8 14.5 1.2.8 2.8 1.5 3.7 1.5 1.3 0 1.3-.1 0-1-1.1-.7-1.1-1-.2-1 1.7 0 .8-13.5-1.9-27.3-1.1-5.4-1.9-10.7-1.9-11.8 0-1-.6-1.9-1.2-1.8-.7 0-6.9 2.8-13.8 6.1M800.7 135.2c.1 9.5.8 31.2 1.4 48.3.6 17 1.2 31.6 1.2 32.2 0 .7.4 1.3.8 1.3.5 0 6-6.9 12.3-15.3 6.3-8.3 12.1-16.1 13-17.2 12.5-15.7 13.7-17.6 13.1-19.5-.3-1.1-1-2-1.5-2s-2-1.6-3.3-3.5-5-6.3-8.3-9.9c-3.2-3.5-8.6-9.7-11.9-13.7-6.7-8.1-15.7-17.9-16.5-17.9-.3 0-.4 7.8-.3 17.2M610.3 142.2c1.1 3 5.5 10.5 12.9 22.1 1.5 2.3 4.3 7 6.3 10.4 2 3.5 3.9 6.3 4.3 6.3s3.9-2.3 7.7-5.1c3.9-2.7 8.3-5.7 9.9-6.7 1.6-.9 4.4-3 6.2-4.5 2.6-2.3 3.1-3.1 2.1-4-2.1-2-31.9-15.7-34.1-15.7-.7 0-4.3-1.4-7.9-3-8.4-3.8-8.9-3.8-7.4.2M606.8 172.2c-.3 15.6-.2 28.6.1 29 1.2 1.3 24.1-16.6 24.1-18.8 0-.8-2-4.5-4.4-8.3-2.5-3.8-5.4-8.6-6.6-10.7-1.1-2.2-3.6-6.4-5.6-9.4-1.9-3-3.9-6.5-4.4-7.8-.5-1.2-1.4-2.2-1.8-2.2-.5 0-1.2 12.7-1.4 28.2M647.8 174.1c-6.7 4.5-12.4 8.3-12.6 8.4-.2.2 2.4 6.1 5.8 13.2l6.2 12.8 1.5-3c2.4-4.4 8.9-24.2 10.3-31 .7-3.3 1.7-6.6 2.2-7.3 2.4-2.9-1.7-.8-13.4 6.9M837.4 177.2c-3.3 4-6.7 8.4-7.6 9.8s-2.4 3.5-3.4 4.6c-1.1 1.2-3.7 4.7-5.9 7.8-2.2 3.2-6.6 9.1-9.8 13.2-3.2 4.2-5.6 7.8-5.3 8.1s4.7.8 9.8 1 14.7.8 21.2 1.3c6.6.5 12.1.8 12.2.7.3-.5-1.7-29-2.6-35.5-.5-4-1-9.8-1-12.8s-.4-5.4-.8-5.4-3.5 3.3-6.8 7.2M660 179.6c0 1.7-4.7 15.4-7.6 22.4-.8 1.9-1.7 5-1.9 6.8-.4 3-.3 3.3 1.2 2 1-.8 1.4-.8 1-.1-.8 1.3.3 2.2 5.3 4.1 7.7 2.9 7.1 4 6.5-11.4-.8-18.1-1.4-23.6-2.6-20.9-.8 1.7-.9 1.5-.5-.8.2-1.5-.1-3-.5-3.3-.5-.3-.9.3-.9 1.2M630 186.5c-.7.8-4.7 4.1-8.9 7.2-9.3 6.9-13.1 10.4-12.5 11.4.4.7 3.3 1.2 21.4 3.9 13.5 2 16 2.2 16 1.4-.1-1.8-12.5-24.8-13.6-25.1-.6-.2-1.7.3-2.4 1.2M755 203c-2.5 1.6-5 3.4-5.7 4-.7.5-1.5 1-1.9 1-.8 0-11.2 6.9-13.2 8.7-1 .9-.9 1.2.5 1.2 1 0 13.9.5 28.7 1.1s28.3 1 30 .8l3.1-.3-5.9-4c-24.5-16.6-27.7-17.7-35.6-12.5M607.5 210.3c1.4 6.6 7.7 24.7 8.7 24.7.5 0 2.3-1.4 4-3.1 2-1.9 3.3-2.6 3.8-1.9.6 1 4.7-1.7 9.2-6 .9-.8 4.1-3.3 7.1-5.5 3.1-2.1 5.3-4.3 5.1-4.7-.3-.4-2.1-1-4.2-1.3-2-.4-8.6-1.5-14.7-2.5-6-1-12.9-2.1-15.3-2.4l-4.3-.4zM643 219.1c-1.4 1.1-3.8 3.2-5.5 4.5-1.6 1.4-5.1 4.1-7.7 6.1-5 3.7-6.1 5.4-2.9 4.6 1.5-.4 1.9.1 1.9 2.2 0 3.2 1.4 4.4 4.6 3.8 1.4-.3 3.4.5 5.4 2.2 1.7 1.4 4.4 3 5.9 3.5 1.5.4 3.6 1.1 4.6 1.5 1.4.6 1.7.1 1.7-2.8 0-2-.5-5.9-1.1-8.6-.6-2.8-1.4-8.1-1.7-11.8-.4-3.6-1.1-6.8-1.7-6.9-.5-.2-2.1.6-3.5 1.7M732.8 220.7c-1.5.4-1.4.9.6 5.6 1.3 2.9 3.1 7.7 4.1 10.7 2.3 7.2 8 20 12.3 27.5.6 1.1 2.7 6.5 4.7 12 1.9 5.5 5.1 13.1 7 17 2 3.8 3.5 7.6 3.5 8.3 0 1.9-2 .4-2-1.5 0-.9-.8-2.6-1.9-3.7-1-1.2-3.5-6.6-5.6-12.1-2-5.5-5.7-14.3-8.2-19.5s-6.7-14.9-9.4-21.5c-8.7-21.1-8.2-20.2-9-17.4-.4 1.3-.8 4.9-.8 7.9-.1 3-.8 8.2-1.5 11.5-2 8.3-5.1 32.9-4.4 34.6.3.8 2.8 2.6 5.4 4 2.7 1.4 10.5 5.5 17.4 9.1 15.3 8 20 10.8 17.9 10.8-.9 0-4.7-1.8-8.5-4-3.8-2.1-10.3-5.6-14.4-7.7s-7.7-4-8-4.3c-1.2-1.2-8.2-4-9.8-3.9-2.4 0-28.5 11.4-28.9 12.6-.2.5 1.7 2.3 4.2 3.8 2.4 1.6 4.3 3.1 4 3.3-.3.3-2.3-.7-4.5-2.2-2.2-1.4-4.4-2.6-4.9-2.6-1.3 0-2 3.7-1.4 7.6.5 2.8 1.1 3.5 3.9 4.3 1.8.5 5.1 2.4 7.3 4.1 2.8 2.3 6 3.7 10.3 4.5l6.3 1.3-4.5.2c-2.5.1-5.4.5-6.5.9-2 .8-2 .8.1 1.5 1.2.4 2.5 1.4 2.8 2.4 1.4 3.7 3.5 6.5 6.7 8.6 8.7 5.8 11.6 7.6 13.9 8.5 1.4.5 1.8 1 1 1-.8.1-3.9-1-6.8-2.4-5.4-2.5-9.4-3.4-5.8-1.4 1.5.9 1.6 1.3.5 2s-1 .9.4.9 1.7.9 1.7 4.9c0 6.5 1.2 7.3 9.1 6.2 5.4-.7 6.7-1.3 9-4.1 2.3-2.7 3.2-3.1 5.6-2.6 1.8.4 2.3.3 1.5-.2-1.1-.8-1.1-1.3-.2-2.9 1.1-1.7.7-2.7-2.4-7.4-3.4-5-.9-3 2.9 2.3l1.6 2.3 1.9-2.3c1-1.3 2.8-4.6 3.9-7.5s3.2-7.5 4.6-10.2c5.2-10.2.6 3.8-5.5 16.9-1 2.2-1.7 4.3-1.4 4.8.6 1 10.4 1.1 10.4 0 0-.8 1.8-20.7 2.4-26.2.2-2 .1-5.2-.3-7.2l-.6-3.6-9 3.8c-4.9 2.1-10.1 4.1-11.5 4.4l-2.5.6 2.5-1.1c13.6-6.3 26-12.3 34.4-16.6 5.6-2.9 15-7.6 21-10.5l10.8-5.3-.6-5.5c-1.2-11.4-3.6-26.7-5.1-32-.8-3-1.5-6.9-1.5-8.5 0-1.7-.3-4-.6-5.3-.6-2-1.2-1.3-4 4.8-1.9 3.9-3.4 7.4-3.4 7.7 0 .2-2 4.7-4.5 10-2.5 5.2-4.5 9.6-4.5 9.9 0 1-16.3 37-17.2 37.9-2.1 2 2.3-9.4 8.8-23.2 1.9-4 4.7-10.3 6.3-14s5.6-13.1 8.9-20.8 6.3-15.2 6.7-16.6c.6-2.6.6-2.6-7.2-3.2-4.3-.4-17-.9-28.3-1.2s-22.5-.7-25-.9-5.3-.2-6.2.1"/><path d="M717.9 221.4c-.2.2-10.2.6-22.3.9-12 .3-22.1.8-22.4 1.1-.3.4.2.6 1.1.6 1.2 0 1.7.9 1.7 3 0 1.6.4 3 .8 3 .5 0 1.3 1 1.9 2.2.6 1.3 3.4 5 6.3 8.3s6.2 7.1 7.4 8.5 4.4 5.2 7 8.5c2.7 3.3 8.2 9.4 12.1 13.6l7.3 7.7.5-3.7c.3-2 1-5.9 1.7-8.6.6-2.8 1.2-11.4 1.3-19.1.1-9.9.5-14 1.3-13.7.7.2 1.4-1.5 1.8-4.3 1.1-8.2 1-8.4-3.2-8.4-2.1 0-4.1.2-4.3.4M803 225.2c0 1.3 1.3 8.8 2.9 16.8 2.6 13.1 3.7 19.3 5.6 32.7.4 2.4 1 4.3 1.3 4.3.4 0 1.8-1.8 3.2-4 1.4-2.1 6.8-10.1 12.1-17.7 13.1-18.8 20.2-30.4 19.2-31.3-.7-.6-33.4-3.1-41-3-2.7 0-3.3.4-3.3 2.2M848.9 230.5c-.1 1.1-.1 2.4 0 2.8.1.5-.2.6-.6.4-.5-.3-.9 2-.9 5.1-.1 3.2-1.1 10.4-2.3 16-1.3 5.7-2 10.6-1.8 10.9.6.5 14.4-7.1 17-9.4.9-.9 1.7-2.2 1.7-3 0-1.8-9.7-21.4-11.6-23.3-1.2-1.2-1.4-1.2-1.5.5M839 244.8c-3.6 5.3-10 14.8-14.2 21-4.3 6.3-7.8 11.6-7.8 11.8s1.9-.5 4.3-1.6c2.3-1.1 7.4-3.4 11.4-5.2s7.5-3.9 7.8-4.7c.7-1.7 6.5-29.3 6.5-30.9s-2.6 1.5-8 9.6M856.4 261.2c-2.7 1.7-6.6 4.1-8.8 5.4l-3.8 2.2 10.7 7.2c5.9 3.9 10.8 7 11 6.8.9-.9-2-24.8-3-24.8-.6 0-3.3 1.4-6.1 3.2M835 272.2c-3.6 1.5-11.8 5.1-16.7 7.4-2.4 1-4.3 2.2-4.3 2.6 0 1.2 17.2 10.9 19.8 11.1 3 .2 3.7-1.7 4.8-14.6.7-8 .5-8.2-3.6-6.5M841.9 274.7c-.2 5-.8 12.7-1.4 16.5-.6 4-.1 4.4 3.7 2.9 1.3-.5 2.8-1 3.3-1.2 3.6-1 16.8-5.9 17.3-6.4.3-.3.3-.6.1-.8-4.4-3.3-11.1-7.7-11.7-7.7-.4-.1-2.3-1.4-4.2-3-4.4-3.9-7-3.9-7.1-.3M797.5 289.4c-6.1 2.8-12.1 5.9-13.5 6.8s-3.8 2.2-5.5 2.9c-5.9 2.6-10.4 5.9-9.9 7.3.3.7-.2 1.6-1 1.9-.9.4-1.6 1.2-1.6 1.9 0 1 .3.9.9-.1.7-1.1 1.1-.4 1.6 2.5.7 4.1 1.7 7.6 4.6 16.4 2.5 7.7 3.1 11 2 11-.5 0-1.2-1.7-1.6-3.8-1.1-6.3-4.6-17.2-5.5-17.2-.5 0-1 5.8-1.2 13-.3 13.9-.3 14 4.8 14 1.5 0 2.4-.6 2.4-1.5s1.3-3 3-4.8c6.9-7.4 16-18.1 16-18.8 0-.5-1.1-1.6-2.5-2.6-5.7-4-6.7-5.2-2.5-2.8 5.4 3 8 3.2 8 .6s3.1-9.2 5.6-11.9c1.1-1.2 3-5.2 4.3-8.9 1.2-3.8 2.7-7.6 3.2-8.5 1.6-3.2-.6-2.7-11.6 2.6M810.3 286.7c-.6 1.6-1.4 3.9-1.8 5.3s-2 5.2-3.5 8.5c-3.6 7.7-6 13.5-6 14.6 0 .4 3.5-.9 7.8-3 4.2-2.1 12.3-6 18-8.6 5.6-2.7 10.1-5.4 9.9-5.9-.2-.6-2.1-2-4.3-3.1-4.7-2.6-9.7-5.5-14.4-8.3-4.4-2.7-4.3-2.7-5.7.5M653.2 287.8c-1 .7-7.5 19.3-6.9 19.8.5.4 19.7-2.2 20.2-2.8 2-2-10.9-18.5-13.3-17M660 288.9c0 .5 2.1 4.1 4.7 8 5 7.5 7.5 9.1 14.5 9.1 2.2 0 4.8.5 6 1.1 1.1.6 2.2.8 2.5.5 1.3-1.3 2-9.6.9-10.4-1.8-1.4-21.6-7.5-24.2-7.5-1.3 0-2.4-.3-2.4-.8s-.4-.9-1-.9c-.5 0-1 .4-1 .9M740.9 351.1c-1.5 1.3-2.2 3.7-2.9 10-1.1 10.8-.9 26.6.3 24.3.5-.9 1-2.1 1.1-2.7.2-.7.8-3 1.4-5.2 2.7-9 5.2-21 5.2-24.5 0-4.2-1.7-4.8-5.1-1.9M748.8 356.6c-.3.5-1.5 5.2-2.8 10.4s-3.3 13.1-4.5 17.5c-4.3 14.9-5.2 26.7-2.6 30.1 2.1 2.6 13.6 15.7 17.3 19.6 3.1 3.2 3.8 3.4 3.8 1.2 0-.8-.4-1.2-1-.9-.5.3-1-.1-1-.9 0-.9.5-1.6 1.1-1.6.7 0 .9-1 .5-2.6-.4-1.4-.9-5.8-1.2-9.7-.3-4-.7-8.8-1-10.7-.2-1.9-1.1-9.3-2-16.5-.8-7.1-1.7-13.2-1.9-13.6-.3-.3-.9-4.7-1.5-9.7-1-9.3-2.3-14.2-3.2-12.6M787.2 370.7c-1 1.9-.9 4.2 1.3 23.7.8 7.2 1.8 13.3 2.2 13.6.8.7 21.3-1.2 27.1-2.4l3.3-.8-1.9-3.2c-2-3.4-5.1-7.3-8.9-11.3-1.3-1.3-2.3-2.7-2.3-3.1s-1.8-2.2-4-4.1-4-4.2-4-5.2c0-1.2-1-2.1-2.5-2.5-2.2-.5-2.9-1.4-2.7-3.4 0-.3-.9-.7-2.1-.7-1.2-.1-2.3-.7-2.5-1.3-.5-1.5-2-1.2-3 .7M871 382.7c-1.4.2-5.1.9-8.2 1.5-6.2 1.3-5.9.6-4.2 8.5.9 4.5 6.4 15.4 7.4 14.8.6-.4 1-1.3 1-2.2 0-.8.9-2.7 2.1-4.1 4.7-6.1 10.2-13.9 11.5-16.5l1.5-2.7-4.3.1c-2.4.1-5.4.3-6.8.6M688.6 413.2c-.3 2.9-1.1 13.8-1.6 24.2-.6 10.5-1.3 19.3-1.6 19.7-.2.4 0 1.1.6 1.4.6.4 8.3-6.8 17.3-16.2 8.9-9.2 19.1-19.6 22.6-23.1 3.8-3.8 6-6.7 5.5-7.2-.7-.7-34.5-4-41-4-.7 0-1.4 2.4-1.8 5.2M677.5 418.3c-4.4 4-10.2 9.1-12.9 11.4l-4.8 4.3 1.8 2.7c1 1.6 3.1 4.1 4.6 5.8 1.6 1.6 3.5 4.1 4.3 5.5 1.2 2.2 11.7 13 12.6 13 .2 0 .5-1.9.7-4.3.1-2.3.6-6.5 1.1-9.2 1.3-6.8 2.4-36.5 1.4-36.5-.4.1-4.4 3.3-8.8 7.3M672.2 476.4c-6 6.2-10 11-9.7 11.8s3.5 2.6 7 4.2c3.6 1.6 10.6 5 15.5 7.6 5 2.6 9.1 4.5 9.1 4.1.2-.8.3-.4-3-13.4-2.8-11.2-2.6-14.9.3-5 .9 3.2 2.1 7.2 2.6 8.9.6 1.7 1 4 1 5.2 0 3.9 1.6 2.3 5.6-5.8l4.1-8-2.7-2.8c-13.3-13.3-16.1-15.7-17.1-14.2-.8 1.2-.9 1.2-.7-.4.6-4.1-2.3-2.2-12 7.8M371.8 128.8c-3.6 4.1-9.8 12-9.8 12.6 0 .9 8.3 5.9 9.7 5.9.7 0 1.3.4 1.3.8s1.4 1.2 3.1 1.8c3.6 1.2 5.6 1.4 4.6.5-1.6-1.6 1.6-4.3 5.8-5 2.5-.3 4.5-1 4.5-1.4 0-.5 1.2-1 2.8-1.2 2.2-.2 2.8-.8 3-3.6.2-2.2-.1-3.2-1-3.2-.8 0-2.1-.9-3-2-1-1-4.3-2.7-7.5-3.6s-7-2.2-8.4-3c-2.4-1.2-2.8-1.1-5.1 1.4M334 176.5c-.1.5-.2 1.4-.1 1.8.1.5-.3.6-.8.3-1.7-1.1-12.9 11.6-12.3 13.8.2.6.1.8-.3.4-.4-.3-1.9.8-3.5 2.5-1.6 1.8-2.4 3.4-1.9 3.7.5.4 0 2.4-1.1 4.5-1.2 2.3-1.6 4.1-1 4.3.5.2 1 1 1 1.8s.4 1.4.9 1.4.7.9.4 2c-.4 1.6-.8 1.8-1.9.9s-1.4-.8-1.4.4c0 1.8 5.3 3.4 5.8 1.8.2-.6.8-1.1 1.3-1.1.6 0 2.9-1.5 5.3-3.2 4.4-3.4 6.6-6.7 6.6-10.1 0-1.7.2-1.8 1.8-.6.9.7 1.4 1 1.1.6-.4-.5.1-4.3 1.1-8.5.9-4.2 1.5-8.3 1.3-9-.3-.6-2.1-1.2-4.1-1.2-3.4-.1-3.5-.2-1.8-1.5 1-.7 3.1-1.2 4.6-1 2.3.3 2.7 0 2.3-1.6-.3-1-.9-1.7-1.3-1.4-.5.3-1.1-.1-1.3-.7-.3-.7-.6-.9-.7-.3"/><path d="M306.5 182.2c-6.7 2.4-7.6 2.8-7 3.8.3.5.1 1.8-.4 2.7-.9 1.5-1 1.4-1.1-1 0-1.6-.4-2.7-.9-2.5-2.9 1-19.1 9.4-19.1 9.8.1.3 2.1 1.8 4.5 3.3 2.5 1.6 4.5 3.3 4.5 3.8 0 1.2-5.2-1.5-6.9-3.5-2.4-2.9-3.4-1.8-2.6 2.6.3 2.4.8 5.4 1 6.8.7 5.6 2.6 16.8 3.5 21.6 1 4.9 1.1 5 4.9 5.2 2.2.2 4.2-.2 4.6-.8.3-.5 2.4-1 4.5-1s4.1-.4 4.4-.9 1.5-.7 2.6-.4c2.3.6 21-4.7 21-5.9 0-.4-.4-.8-.9-.8-.4 0-2-1.1-3.5-2.5s-3.4-2.5-4.2-2.5c-.7 0-1.4-.5-1.4-1 0-.6-.4-1-1-1-.5 0-3.1-1.4-5.7-3-2.6-1.7-5.3-3-6-3s-2.5 2.4-3.9 5.2c-1.5 2.9-3 5.4-3.5 5.6s-.9.9-.9 1.5c-.1 1.5-7.9 10.6-7.9 9.2 0-.6 1.6-3.3 3.6-6 2.1-2.8 5.2-7.8 7-11.1l3.2-6.2-3.9-2.7c-4.3-3-5-3.8-2.4-2.8.9.3 2 0 2.6-.8.8-1.1.9-1.1.5.3-.8 2.3 2.2 3.2 4.4 1.2.9-.8 2.4-3 3.3-4.7 1.5-3.1 1.6-3.1 1.6-.7.1 2.2.2 2.3 1.1.7.5-.9 1.6-1.7 2.3-1.7 1.6 0 2.9-2.7 2-4.1-.3-.5 0-.9.5-.9.6 0 1.1.5 1.1 1.2s2.7-1.4 6-4.7c4.9-4.9 7.2-8.3 5.8-8.5-4.5-.7-15.1-.6-17.3.2M321 229.9c-.8.5-5.8 1.6-11 2.6s-10.6 2.2-12 2.8c-1.4.5-4.7 1.1-7.5 1.4-2.7.2-5.2.6-5.4.9-1.1 1 9.5 9.1 24.5 18.6 1.4.9 7-7.1 5.7-8.1-.4-.4-3.9-2-7.7-3.6s-6.4-3.1-5.7-3.3c1.2-.4 6 1.5 11.5 4.5 2.4 1.3 3 1.3 3.7.2.5-.8.9-1.8.9-2.2 0-.5.8-2.1 1.9-3.5 2.1-3 6.1-10 6.1-10.7 0-.8-3.4-.5-5 .4M1000.9 196.8c-1.5 3.7-4 10.3-5.7 14.7s-4.2 10.9-5.5 14.5c-5.1 13.3-5.3 12.1 5.6 35 3.8 8 10.5 22.1 14.9 31.5 4.4 9.3 8.4 17.4 8.9 18 .5.5.9-4.1.9-12.1 0-7.2.3-21.9.7-32.6l.6-19.5-3.4-.5c-6.5-1-28.4-6-29.9-7-1.2-.7-1-.8.5-.4 1.1.3 7.9 1.7 15 3.1 7.2 1.4 13.8 2.8 14.9 3.2 2.3.7 2.3.6-4.4-20.7-2.6-8.5-6.1-19.6-7.7-24.7l-2.8-9.2zM1006.1 193.2c.6 1.8 1.9 6.2 2.9 9.8 1.6 6.1 11.4 37.9 12.5 40.8.5 1.4 15.3-10.4 15.4-12.3.1-.9-8-11.3-25-32.3-2.8-3.5-4.9-6.5-4.7-6.8.6-.5 4.4 4.2 19.8 24 5.8 7.4 10.8 13.5 11.2 13.5 1 .1 8.8-10 8.8-11.4 0-1.1-5.6-5.2-22-16.2-2.5-1.6-7.3-4.9-10.6-7.1-8.9-6-9.6-6.1-8.3-2M1043.1 226.5c-2.4 2.6-4 5.2-3.8 5.8.3.7.8 2.1 1.2 3.2l.7 2-1.3-2c-.6-1.1-1.3-2.2-1.5-2.3-.7-.9-14.5 11.5-15 13.5-.4 1.6 1.3 5.8 5.7 14.3 3.5 6.6 6.8 12 7.4 12 .5 0 3.8-2.9 7.2-6.5 7.2-7.5 7.4-8.6 2.7-17.5-1.6-3-3.4-6.9-4.2-8.5-2.3-5.3.4-1.3 4.3 6.3 2.1 4 3.9 7.1 4 7 .5-.7-1.8-30.4-2.5-31.1-.4-.4-2.6 1.3-4.9 3.8M1021.6 280.1c-.4 16-.5 29.3-.2 29.6.7.7 1.1-.5 8.1-19.3l5.6-15.2-6-12.1c-3.4-6.7-6.3-12.1-6.5-12.1s-.6 13.1-1 29.1M1044.2 267.3c-3.4 3.5-6.2 6.8-6.2 7.3s3.4 2.9 7.5 5.3c4.1 2.5 7.5 4.9 7.5 5.3 0 .5-1.5-.2-3.2-1.5-4.9-3.5-12.9-7.9-13.5-7.4-.6.7-10.1 25.9-11.8 31.5-1.6 5.3-2 5.4 11.3-2.5 16.8-9.8 23.2-14.3 23.2-16.1 0-1-1.1-5.1-2.4-9.2s-2.9-10.1-3.6-13.3c-.7-3.1-1.6-5.7-1.9-5.7-.4 0-3.4 2.9-6.9 6.3M1041 303.8l-17.5 10.6 11.5 1.7c6.3.9 12.9 1.9 14.7 2.3 3.6.8 3.5 1 6.8-14.4 2.3-10.8 2.3-11 2.2-10.9-.1 0-8.1 4.8-17.7 10.7"/><path d="M1022.4 318.4c.3 1.3.8 3.2 1.1 4.3.3 1-.1.4-1-1.4-.8-1.7-1.9-3.4-2.4-3.7-.8-.5-34.8 16.2-37.8 18.6-.7.6-1 1.4-.7 1.9.9 1.5 28.4 15 29.3 14.4.5-.2 1.5-3.4 2.2-7 .7-3.5 1.5-6.3 1.7-6 .2.2-.1 3.4-.8 7s-1.1 6.8-.9 7 3.4-.4 7.2-1.2c4.6-1 6.7-2 6.7-3s.7-1.4 2-1c1.6.4 2 0 2-1.8 0-1.3-.5-3.6-1-5.2-.9-2.6-.9-2.7.5-.9.8 1.1 1.5 2.5 1.5 3.2 0 .6.8 1.8 1.7 2.5 1.5 1.2 1.6 1.2 1-.4-.4-1-.3-1.6.3-1.2 1 .6 10.7-11.8 13.4-17.2.9-1.7 2.2-3.5 2.8-3.9.8-.5.7.2-.3 1.6-2.5 3.9-10.9 18.9-10.9 19.5 0 .3.9-.4 2-1.5s3.2-2.2 4.7-2.6c1.6-.3 3.3-.7 4-.9.6-.2 1.6-2.3 2.1-4.7l1-4.3.1 3.9c.1 3.3.3 3.7 1.6 2.6s1.5-.8 1.5 1.6c0 2 .3 2.5.9 1.6.4-.8 1.2-1.3 1.7-1.3.5.1 1.9-3.6 3.1-8.1 2.6-9.8 2.6-9.8.8-7.4-.8 1.1-1.5 2.8-1.5 3.8s-.4 1.8-.9 1.8-1.4 1.4-2.1 3c-.7 1.7-1.5 2.9-1.7 2.6-.5-.5 5.6-12.8 6.7-13.6.4-.3 1.1-1.6 1.5-2.9.7-2.2.5-2.3-2-1.7-1.5.4-4.5 1.8-6.7 3.2-2.7 1.7-4.3 2.2-4.7 1.5-.6-.9-24.3-5.1-29-5.1-.9 0-1.1.7-.7 2.4M979.5 342.2c.3 1.8 1.2 9.1 2 16.3.9 7.1 1.8 13.6 2 14.3.8 2.3 20.4-12.2 20.5-15.1 0-1 1-2.1 2.2-2.6l2.2-.8-2.4-1.4c-1.4-.7-4.7-2.6-7.5-4.1-6.9-3.9-18.3-9.8-18.9-9.8-.3 0-.3 1.5-.1 3.2M1007.8 358.8c-9 5.8-22.8 16.5-22.3 17.2.3.6 3.6 2.9 7.4 5.3 3.7 2.4 10.9 7.4 15.9 11.1 5.1 3.6 9.4 6.6 9.6 6.6s-.5-3.9-1.5-8.8c-1-4.8-2.9-14.2-4.1-20.9l-2.4-12.2zM1013 361.4c0 1.5 5.1 29.1 6.2 33.3.6 2.4 1.4 4.3 1.8 4.3.5 0 2.8-2.4 5.1-5.3 2.4-2.8 4.8-5.5 5.3-5.8 1.3-1 .5-2.4-8.4-14.4s-10-13.3-10-12.1M1058.2 379.6c.4.3.1 1.2-.6 2-.9.9-1.6 5.5-2.1 13.6-1 18-1.2 17.5 7 23.1 18.1 12.5 24.5 16.7 24.5 16.3 0-.3-1.1-2.9-2.4-5.8-1.2-2.9-2.6-6.1-2.9-7.1-.4-1.1-1.2-1.5-1.8-1.1-.8.5-.9.3-.5-.5.5-.7-1-5.3-3.2-10.4s-5.2-12.5-6.8-16.5c-2.9-7.6-4.5-9.5-2-2.4.9 2.3 1.3 4.2 1 4.2-.9 0-4.5-9-3.9-9.9.9-1.5-.7-4.2-2.1-3.7-.8.3-1.4.1-1.4-.3 0-.5-.8-1.2-1.7-1.5-1-.4-1.4-.4-1.1 0M1055 427.9V441h4.8c5.2 0 26.5-2 27.1-2.6.6-.5-18.5-14.8-29.6-22.1l-2.3-1.5zM220 347.1c0 7.7-1.4 16.1-3.4 20.4-3.1 6.6-7 16.4-9.7 24.5-1.6 4.7-3.4 9.3-3.9 10.2-.7 1.3-.7 1.8.2 1.8 1.3 0 7.8-12.7 7.8-15.1 0-.6 1.1-3.2 2.3-5.8 12.9-25.6 14.6-30.3 11.3-33-.9-.7-1.6-2.1-1.6-3-.1-.9-.7-2.7-1.5-4.1-1.3-2.4-1.4-2.1-1.5 4.1M230.4 363.2c.4 2.9 1.3 11.3 2.1 18.7.8 7.3 1.2 13.8.9 14.3-.7 1.1 1.5 8.8 2.5 8.8.9 0 4.3-22.9 4.8-32.3.3-4.4.2-9.4-.2-11.3-.6-3.3-.7-3.4-5.6-3.4h-5zM225.9 362c-.9 1.4-2 4-2.3 5.8-.4 1.7-1.2 3.4-1.7 3.7-1.5 1-1 3.5.7 3.5 1.1 0 1.4.5 1 1.6-.3.9-.6 2-.6 2.5 0 1.7-1.9.9-2.5-1.1-1-3-2.2-2.4-3.6 1.7-.6 2.1-3.3 8.4-6 14s-4.9 10.5-4.9 10.9-.9 1.8-2.1 3-1.9 2.7-1.6 3.1c.7 1.1 5.6 2.7 13.5 4.4 2.8.6 5.2 1.5 5.2 1.9 0 1-6.7.1-9.2-1.1-.9-.5-4-.9-6.9-.9h-5.1l.5 3c.5 2.4.4 2.8-1 2.3-1.1-.4-1.4-.3-.9.5.4.7.1 1.2-1 1.2-1.4 0-1.6.7-1 4.7.8 5.9 1.9 7.1 4.2 4.8 1-1 3.2-2.4 4.9-3.2 1.6-.7 4.4-2.2 6-3.3q4.65-3 13.5-7.5c8-4.1 9.1-5.4 8.4-9.3-.4-2.1-1.1-4.2-1.6-4.7-.6-.7-.8-.5-.6.4.2.7-.3 1.6-1.1 1.9-1.1.4-1.2-.2-.6-2.4.4-1.6.8-3.8.9-4.9s.4-2.5.8-3.1-.1-7.1-1.2-14.5c-1-7.4-2-15.2-2.2-17.4l-.3-3.9zM232 415.5c-.8 1-3.4 2.7-5.7 3.7-4.6 2-5.6 3.8-2.2 3.8 2.6 0 4.8 2.6 4.9 5.7 0 1.6-.4 2.1-1.6 1.6-.8-.3-1.3-1.1-1.1-1.7s-.4-1.9-1.4-2.8c-1.6-1.6-1.7-1.5-1.5 1 .2 1.4.8 2.8 1.5 3 1.6.5 1.4 5.1-.3 6.8-.8.8-2.2 1.1-3.2.7-1.4-.5-1.6-.3-1.1 1.1.4 1 .7 2.4.7 3.2 0 2.2 1.7 1.6 2.4-.9.7-2.2.7-2.2 1.6-.1.7 1.8 1.7 2.1 6.2 2.1h5.3l-.8-11.6c-.4-6.4-1.1-12.9-1.5-14.5-.7-2.7-.9-2.7-2.2-1.1M781 596.7c-14.9.8-19.1 1.5-18 2.8.6.8 1.8 1.1 2.6.8s1.4 0 1.4.6-.4 1.1-1 1.1c-.5 0-1 1.7-1 3.7.1 3.1.3 3.5 1.1 2.1.8-1.5 1.3-1.6 2.9-.6 1.2.8 1.5 1.5.8 1.9-.6.4-.7 1.2-.3 1.9.5.8 2.2-.3 5.4-3.4 2.5-2.5 6.1-5.9 8-7.6 1.9-1.6 3.3-3.1 3-3.2-.2-.2-2.4-.2-4.9-.1"/></svg>