<svg xmlns="http://www.w3.org/2000/svg" width="1706.667" height="960" viewBox="0 0 1280 720"><path d="M0 267.4c0 213 .3 267.5 1.3 267.9q1.5.6 0 .6C.3 536 0 555.1 0 628v92h1280V0H0zm718.8-221c1.5.8 4.6 2.2 7 3.1 2.3 1 4.1 2 3.9 2.2s-2.1-.4-4.2-1.2c-2-.9-3.9-1.4-4.1-1.2-.6.5 55.5 57.5 57.7 58.7 1.2.7 2.6-.5 5.9-4.8 2.4-3.1 5.1-6.1 5.9-6.6s3-2.5 4.9-4.5 2.9-2.7 2.4-1.6c-.6 1.1-2.5 3.6-4.4 5.5-5.1 5.3-10.8 12.6-10.8 13.8 0 .5 1.7 1.4 3.8 2l3.7 1-3.7.1c-2.1.1-3.8.4-3.8.7s2.4 3.1 5.4 6.2c3 3.2 7.1 7.7 9.1 10.2 5.6 6.8 12.5 14.8 17.3 20 2.3 2.6 5.2 6.1 6.4 7.6 4.4 5.6 4.6 5.8 7.3 4 2.9-1.9 3.1-1.5.8 2-1.2 1.8-1.3 2.8-.5 3.3 1.5.9 1.9 7.6.4 9.3-1 1.3-.3 15.4 1.4 26.8.2 1.4.8 6 1.3 10.3.4 4.3 1.1 8 1.4 8.3.8.8 5.9-2.1 8.6-5 2.1-2.2 2.3-3 1.3-4.8-5.5-11.3-13.2-34.1-11.9-35.4.2-.2 1.6 3.8 3.2 8.8 2.3 7.6 7.9 22 9.2 23.7.8 1.1 1.8-1.4 2.3-5.7.3-2.6.5 6.7.3 20.7-.1 14-.5 25.6-.8 25.9s-.5-6.7-.5-15.6c0-13.1-.3-16.2-1.4-16.2-.7 0-1.9.6-2.5 1.4s-2.5 1.9-4.1 2.6c-5.2 2.1-5.1 2.8 3.4 19.9 3.9 7.8 6.6 10.5 8.2 8 .3-.5 1-.9 1.6-.9.7 0 .2.9-1 2-2.7 2.6-2.8 4.2-.2 6.5 2.4 2.2 2.7 4.3.4 2.4-1.5-1.3-1.6-.3-1 11.6.7 12.1.9 13.1 3.1 15l2.4 2h-4.7c-4.5.1-25.7 7-28.7 9.5-1.7 1.4-2.5 4.5-1.5 6s8.4 3.2 8.8 2c.2-.6 1-1 1.7-1s3.2-2 5.6-4.5c5.3-5.6 6.3-5.1 1.5.8-2 2.4-3.6 4.9-3.6 5.4 0 .6 1.6 1.3 3.4 1.6 3.2.5 8.5 2.5 12.9 4.8 1.5.8 1.7.4 1.8-3.8v-4.8l1.9 5.5c1.1 3 2 5.7 2 6s.8-.6 1.6-2l1.5-2.5-.5 3c-.4 3.1 1.3 7.5 4.4 11 1 1.1 2.4 3.3 3.2 4.8 1.4 2.8 1.5 2.8 3.3 1.1 1.8-1.8 1.8-1.8 1.3 1-.4 2-.1 3.5 1 4.5 1.4 1.5 1.4 1.6-.1 1.9-.9.2-1.7 1-1.7 1.7 0 .8-.5 2.6-1.1 4.2-.6 1.5-1.2 5-1.4 7.8-.3 5.5-1.4 10.7-2.5 11.5-.4.3-1.1 1.8-1.7 3.4-.5 1.6-1.7 3-2.8 3.2-1 .1-3.1 1.2-4.6 2.3-1.6 1.2-3.5 2.1-4.3 2.1-1 0-1.3.6-1 1.5.4 1 0 1.5-1.5 1.5-1.2 0-2.1.4-2.1.9s-1 1.2-2.2 1.5c-1.3.2 2.9.3 9.2 0 10.2-.3 11.7-.6 13.3-2.5.9-1.2 1.7-3 1.7-4s.5-1.9 1-1.9c.6 0 1-1 1-2.3 0-1.2.5-2.9 1-3.7 1.1-1.8.6 7.4-.6 10.4-.4 1-.2 2.1.4 2.5 1.5.9 1.1 4.4-.5 6-.8.7-1.3.8-1.3.1 0-.5-.4-1-1-1-.5 0-1 1-1 2.2s-.3 1.9-.6 1.6c-.7-.7-6.9 6.1-11.4 12.5-1.9 2.7-3.6 4.4-3.8 3.8s.8-2.3 2.2-3.8 2.6-3.1 2.6-3.5 1.3-2.2 2.9-4c2.9-3.3 7.5-10.8 6.9-11.3-.4-.4-19.3 2.1-23 3.1-1.6.3-2.8 1.3-2.8 2.1 0 2.3 5.1 18.7 6.1 19.8.5.5 2.8.8 5.2.7l4.2-.2-3.2 1.4c-3.8 1.7-7.9 6.2-14.6 15.9-4.8 6.9-4.8 7-2.9 8.9 1 1.1 3.8 2.2 6.1 2.5 4.3.6 5.7 2.3 1.8 2.3-4.5 0-9-2-11.6-5.1-1.4-1.7-5.9-6.4-10-10.3s-8.3-8.2-9.5-9.4c-1.2-1.3-2.9-2.8-3.8-3.3-1.4-.8-1.6-.5-1.2 2.3.9 6.1 2 23.8 1.4 23.8-.3 0-1.1-5.8-1.7-12.9-.6-7.2-1.4-13.5-1.8-14.2-.6-.8-3.8-1-11.9-.5-23.1 1.4-23.9 1.7-19.1 7.4 1.4 1.7 2.5 3.4 2.5 4 0 .5 1.7 2.7 3.8 4.8 2.1 2.2 7.1 8.3 11 13.6 4 5.4 7.7 10 8.2 10.3.6.4 1 1.1 1 1.6 0 1.2-1.5-.3-4.8-4.6-1.3-1.7-5-5.9-8.3-9.5-3.2-3.6-7.4-8.8-9.2-11.6-4.1-6.4-6.7-9.2-6.7-7.1 0 2 3.8 14.4 5.6 18.5 2.5 5.5 4.1 14.5 2.6 15-.6.2-1.2.9-1.2 1.6s-.7 2.1-1.5 3.2c-1.4 1.7-1.4 1.5 0-2 2.6-6.6 2.3-7.2-3.7-6.6-3.9.4-5.2.9-5 2 .2.7.5 2.8.8 4.4l.4 3.1-1-3.3c-1.2-3.8-2.5-4-5.2-1-2 2.3-2 1.8-.2-2.8.6-1.3-.6-1.5-9-1.3l-9.7.2 3.2 3.3c1.8 1.9 2.9 3.4 2.3 3.4-.5 0-2-1.2-3.3-2.6s-3.7-2.8-5.3-3.1c-1.5-.3-2.8-1-2.8-1.6 0-.7-4.6-.8-13.7-.4-14.5.6-13.5-.6 1.5-1.8 4.5-.4 8.2-1.2 8.2-1.7 0-.6-2.2-4-4.8-7.7-2.6-3.6-6.8-9.9-9.3-13.8-4.5-7.5-5.9-8.7-5.9-5.4 0 1.1-1.5 5-3.4 8.8-1.9 3.7-4.2 9.7-5.1 13.1-1.5 5.9-1.5 6.6 0 8.9.9 1.3 1.4 3 1.2 3.6-.3.7-1-.1-1.6-1.6-1.4-3.6-3.1-3.1-5.6 1.9-2.6 5.1-2.4 4.8-3 4.2-.3-.3 1-3.8 3-7.9 1.9-4 3.8-8.9 4.1-10.9.3-1.9 1.2-4 1.8-4.5 1.2-.9 4.6-11.7 4.6-14.3 0-3.3-3.7-.2-10 8.3-2.4 3.3-8 9.6-12.3 14-4.4 4.4-9.4 9.5-11.1 11.3s-5.2 4.9-7.8 7c-2.6 2-4.7 4.2-4.8 4.8 0 .9 18.3 18.5 20 19.2.7.3 7-13.7 7-15.6 0-.5.9-1.9 2-3.2s2-3.1 2-4.2c0-1 .5-1.8 1.1-1.8.7 0 .9 1.2.5 3.4-.4 2-.2 3.7.4 4.1.5.3 1 0 1.1-.7q0-1.5.6 0c.6 1.5 8.3 5.3 9.4 4.7.4-.3 1 .1 1.3.7.3.9.9.8 2-.6 1.5-1.8 1.6-1.8 2.5.6.5 1.4 1.5 2.5 2.3 2.5.7 0 4.4 1 8.1 2.3 6.3 2 6.8 2.4 6.7 4.9-.4 6-.1 7.1 2.3 7.1 2.8 0 6.7-2.6 6.7-4.5 0-2.7 2.5-.5 5 4.3 1.3 2.6 3.3 5.9 4.5 7.3 1.1 1.4 2.7 3.6 3.5 4.9 3.6 5.3 4.1 5.7 3.7 2.5-.3-1.7-1.2-6.5-2.1-10.8-1.5-7.4-2.2-15.6-1.1-14.6.2.3 1.1 4.3 2 8.9.9 4.7 2 10.1 2.5 12.1.6 2 1 4.8 1 6.3 0 1.6.4 2.5 1 2.1.6-.3 1-1.7 1-3s.4-2.6.8-2.9c.5-.3.7.9.5 2.7s-.5 4.8-.6 6.8c-.3 4.2-2 6.7-5.7 8.1-9.8 4-12.4 4.7-13.6 3.7-.6-.5-4.6-2.2-8.8-3.8l-7.7-2.7-11.9 5.7c-7.9 3.9-12.1 6.5-12.5 7.9-.7 2.4-2.5 2.7-2.5.4 0-.8-.4-1.3-.9-.9-.6.3-1.3-.1-1.8-.8-1.5-2.4-21.1-17.7-22.7-17.7-.9 0-1.6-.4-1.6-.9 0-2.3-29.3-17.5-32.6-16.8-2 .3-2.6-.2-4-4.2-1-2.5-2.5-5.5-3.4-6.6-1.7-1.9-13.7-20.3-15.4-23.5-.4-.8.8.3 2.8 2.5 1.9 2.2 3.5 4.5 3.6 5.1 0 1.2 13.8 21.6 15.3 22.5.5.4 3-1.6 5.6-4.4 2.5-2.8 5.3-5.8 6.1-6.6 3.7-4 9-10.9 9-11.8 0-.6-1.4-1.3-3.2-1.7-5-1-15.3-4.9-13.9-5.4.6-.2 4.4.8 8.4 2.2 8.6 3.1 9.1 3.1 8.3 1-.5-1.4-.4-1.5.8-.5s1.6.3 2.1-4.6c1.4-11.7 2.4-14.1 1.9-4.6-.3 5.2-.2 9.3.3 9.3 2.4 0 28.3-25.7 32.8-32.5 3.5-5.3 9.6-11.5 11.2-11.5.7 0 1.7-.9 2.3-1.9.8-1.6.6-2.1-.8-2.4-2.9-.9-10.2-1.6-21.7-2.2-6-.3-12.7-.8-14.7-1.1-4.9-.7-5.2.1-6.8 17.6-.6 7.4-1.4 13.7-1.6 13.9-.8.8-.4-10 .7-19.5.6-5.3.9-9.8.6-10-.2-.2-1.2.4-2.3 1.4-1 .9-6.6 6-12.4 11.1-5.8 5.2-10.8 10-11.2 10.6-.4.7.3 2.6 1.5 4.2 5.4 7.6 14.2 18.9 15.1 19.5.6.4.8.9.6 1.2-.6.5-4.1-2.4-5.5-4.6-.5-.9-3.9-5.3-7.5-9.8s-6.8-8.7-7.1-9.4c-.3-.6-2-4.1-3.8-7.9-1.8-3.7-4.4-7.7-5.8-9-1.3-1.2-3.4-3.2-4.6-4.4-1.5-1.5-5.7-3.1-12.7-4.9-5.8-1.4-11.8-3.2-13.5-3.9-1.6-.7-5-1.9-7.5-2.5-2.5-.7-3.9-1.5-3.3-1.7.7-.3 2.9.1 4.8.7 6.1 2 6.3.8 2.3-11.8-2.1-6.5-2.6-6.9-6.1-5.1l-2.2 1.2 2.3-2.5 2.2-2.4-4.5-9.5c-2.5-5.2-6.4-12.9-8.6-17.2-2.2-4.4-3.9-8.1-3.6-8.3.6-.6 7.9 12.3 10.8 19.2 4.5 10.7 6.6 13.4 10.2 13.4 1.8 0 5.3.2 8 .6 4 .5 4.7.4 4.7-1.1s-.7-1.7-4.6-1.1l-4.6.6.5-3.8.6-3.7-1.1 3.2c-.6 1.8-1.4 3.3-1.9 3.3-.8 0-.5-26.2.4-27.6.3-.6-.8-2.9-2.4-5.3s-2.9-5-2.9-5.8c0-.7-.4-1.3-1-1.3-2.2 0-.8-2.1 2.3-3.4 1.7-.7 4.3-2.6 5.7-4 1.4-1.5 3.9-3.4 5.7-4.3 1.8-.8 3.3-2.3 3.3-3.2 0-1.8 4.3-6.1 6-6.1 1.3 0 1.3-2.2-.1-5.7l-1-2.8 3 2.9 3 2.9 2-2.4c2.2-2.6 8.1-14.1 8.1-15.8 0-.5.4-1.2.9-1.5.5-.4-.3 2.7-1.7 6.8-1.5 4.1-2.5 7.6-2.2 7.9.7.6 19.8-1.8 20.6-2.5.3-.4.1-1.6-.6-2.7-1.4-2.6.4-2.8 2.2-.3 1.4 2 4.6 3 11.5 3.7 2.4.2 5.2.6 6.3 1 1.7.6 2 .2 2-2.9 0-1.9.3-4.1.6-4.9.4-1.2-3-2.6-15.6-6.7-8.8-2.9-16.3-5.1-16.5-4.8-.3.2.9 2 2.5 3.9 4.5 5.2 3.5 5.9-1.3.9-4.1-4.3-4.5-4.5-9.6-4.3-6.4.3-16.7 2.9-19.9 4.9-1.5 1-2.2 2.1-1.8 3.2s0 .9-1.3-.6c-1.4-1.6-3.1-2.2-6.3-2.3l-4.3-.2 4.6-.6c5.5-.8 7.4-2.7 15.6-16 3.2-5.1 7.5-11.3 9.6-13.7s3.4-4.4 2.8-4.4-1.1.4-1.1 1c0 .5-.6 1-1.2 1-.7 0-7.8 4.1-15.7 9-7.9 5-14.5 8.9-14.7 8.8-.3-.3 17.6-12.7 28.4-19.6 3.9-2.5 7.2-5.2 7.2-5.9 0-1.1-9.3-5-20.8-8.8-7.8-2.5-5.8-2.8 2.4-.4 11.3 3.5 18.4 5.2 18.9 4.7.6-.6-1.4-24.7-2.3-28.2l-.7-2.6-6.8 4.5c-13.6 8.9-20.5 15.1-25.5 22.9-1.3 2-1.3 2-.6.1 1.4-3.8 1.6-8.3.5-10.3-.6-1.1-1.8-5.3-2.6-9.2s-2.3-8.5-3.2-10.3l-1.7-3.2-.7 3.5c-.5 3-.7 2.7-.8-2.2-.1-6.4 1-5.7-12.3-7.9-4.4-.7-3.8-.7 3.3-.4l8.6.5.6-3.8c.4-2 .9-11.6 1.2-21.2s.8-22.7 1-29l.5-11.5-1.9 3.2c-1.1 1.7-3 5.5-4.2 8.5-1.2 2.9-2.6 5.7-3.2 6.3-.5.5-.1-.8.8-3s2.2-5.4 2.7-7c.6-1.7 1.4-3.5 1.8-4 .7-.9 2-5.5 2.1-7.2 0-.5-1-1.1-2.3-1.5-1.9-.5-1.7-.6 1.1-.7l3.3-.1-.4-15.5c-.2-8.5-.1-15.5.3-15.5s.7.6.6 1.2c0 .7.1 7.3.1 14.6.2 10.2.5 13.3 1.5 13 .6-.2 5.7-6.3 11.2-13.5C623 88.8 628.3 82 628.8 82c1 0-3 5.5-19.9 27.5-4.6 6.1-9.5 12.7-10.9 14.7-1.4 2.1-2.8 3.8-3.2 3.8-.5 0-.8.7-.8 1.5s-.7 1.5-1.6 1.5c-.8 0-1.2.5-.9 1 .4.6 2.9-.2 6.3-2 3.1-1.6 6.1-3 6.5-3 .5 0 7.4-3.2 15.4-7 8-3.9 14.9-7 15.4-7 2.1 0 2-2.5-1.7-25.5-.3-2.2-.8-4.3-1.1-4.8-.2-.4.1-.7.6-.7.6 0 1.1 1 1.2 2.2 0 1.3.2 3 .4 3.8.4 1.6.9 4.2 2.6 13.7 1.7 9.7 1.6 9.7 14.5 8.4 6-.5 16.3-1.3 22.9-1.6 6.6-.4 12.6-.8 13.3-1.1 1.4-.4-3.9-3.3-35.6-19.5-14.1-7.2-17.7-8.7-19.3-7.9-1 .6-1.9.9-1.9.6 0-1.2-8.8 2.3-20.2 8-7 3.5-13.3 6.4-14 6.4-1.2-.1 13.3-7.4 28.5-14.5 3.1-1.4 5.7-3.1 5.7-3.6s.8-.9 1.8-.9c.9 0 5.2-1.4 9.6-3.1 4.3-1.6 8-2.8 8.2-2.6.3.2-.8.9-2.3 1.5-9.8 3.6-12.3 4.8-12 5.6.4 1.1 52.6 27.5 54.5 27.6.7 0 1.9-1.5 2.7-3.3 1.7-3.9 8.3-19.4 9.5-22.2 3.6-9 8.9-20.8 9-20 0 .9-4.8 14.1-6.9 19-.5 1.1-1.7 4.2-2.6 7-1 2.7-2.4 6.6-3.2 8.5-5.3 12.6-5.5 11.7 1.9 12.4 3.5.3 21.6 1 40.3 1.7 18.7.6 34.3 1.3 34.8 1.6.4.2.7 0 .7-.6 0-.5-.4-1.1-.9-1.3-1.2-.4-11-9.8-18.6-17.9-3.2-3.5-12.9-13.7-21.5-22.7-8.5-8.9-15.6-16.7-15.8-17.2-.5-1.4-3.9-1.2-4.5.2q-.6 1.2-.6-.3c-.1-.9-.8-1.9-1.6-2.3-.8-.3-1.5-1-1.5-1.6 0-1.4 3.7-1.2 6.8.4m104 73c4.9 4.4 24.3 17.4 28.2 18.7 2 .7 3 1.8 3 3.1 0 1 .4 2.7.9 3.7 1.1 1.9 5.3 26 7.6 43.3.9 6.5 1.8 12.8 2.1 14 .9 4.4 3.5 31 3.1 31.5-.3.2-.8-1.3-1.2-3.3-.4-2.3-1-3.3-1.4-2.6s-.6-2.4-.3-6.8c.2-4.4.1-8.8-.3-9.7-.4-1-.9-3.6-1.1-5.8-1.5-17.1-9.7-59.5-11.4-59.5-.9 0-5.1 3.1-11 8-3 2.5-6.4 5.2-7.5 6l-2 1.5 2-2.4c1.1-1.3 5.5-5.2 9.8-8.8 4.2-3.6 7.7-7 7.7-7.7s-1-2.1-2.2-3c-1.3-.9-4.7-3.4-7.7-5.6s-5.8-4-6.1-4c-.4 0-3.3-2-6.4-4.5-3.2-2.5-6.2-4.5-6.6-4.5s-.6 2.1-.3 4.7c.4 5 3.9 27.8 4.9 32.5.4 1.8.2 2.8-.5 2.8-.6 0-1.1-1.3-1.1-2.9s-.4-4.1-1-5.5c-.5-1.4-1.7-8.9-2.6-16.8s-2.3-15.3-3-16.5c-2.8-4.6-.6-4.5 4.4.1m-407.3 1.1c-.5.2-8.6 1.3-18 2.5-9.3 1.2-17.9 2.3-19 2.5s-3 .4-4.2.4c-4.4.2-2.2 1.6 6.5 4.6 4.8 1.6 11.2 4 14.2 5.3 15.4 6.9 24.4 10.1 25.4 9.3.6-.5 3.9-3.8 7.4-7.3 7-7 7.9-7.9 13.4-12.7 2.1-1.8 3.8-2.9 3.8-2.4s-4.9 5.6-11 11.3c-10.4 9.8-12.7 12.8-9.7 12.7.6 0 5 .1 9.7.3l8.5.4-10.1.5-10.1.6 3.7 6c2 3.3 4.2 5.9 4.9 5.7.7-.1 1 .2.6.8-.8 1.2 25.6 41.7 28.2 43.3 1.9 1.1.6 2.7-2 2.6-2.1 0-2.1-.1-.2-.9 1.8-.7 1.9-.8.3-1.5-1-.4-1.8-1.1-1.8-1.6 0-.6-2.6-4.5-5.7-8.9-3.2-4.4-6.9-9.8-8.3-12.1s-3-4.7-3.6-5.3c-.5-.6-2.9-3.9-5.3-7.4-2.5-3.7-4.7-6-5.3-5.6s-.8.3-.5-.3c.8-1.2-2.9-7.3-4.4-7.3-.6 0-1.3.9-1.6 2s-.8 2-1.2 2-.7.9-.7 2.1c0 1.4.8 2.2 2.9 2.6 3.4.7 2.6 1.7-2.8 3.7l-4 1.5h3.8c3 .1 3.7.5 3.7 2.1 0 1-.7 2.3-1.6 2.8-1.3.7-1.5 2-1 6.8.3 3.2.9 10.2 1.2 15.4.8 12.9 1.3 13.4 12.4 12.7l8.5-.5-6 1.3c-13.1 2.9-21.8 4.6-41.4 8.1-23.6 4.2-25.3 4.6-25.8 6.1-.2.6 3.8 4.3 8.9 8.1 5.1 3.9 11.1 8.7 13.3 10.6l4 3.6-5.5-3.2c-3-1.8-9.3-6.6-14-10.6l-8.5-7.4-.3 10.4c-.2 5.6.2 14.7.7 20.1.6 5.4 1 16.4.9 24.5l-.1 14.7-.8-10.5c-.9-12.8-2.8-48.2-2.9-53 0-2.1-.4-3-.9-2.5-1 1.1-38.1 74-38.1 74.9 0 .3 1.9 1.5 4.1 2.7 2.3 1.1 6 3.4 8.2 5 2.3 1.7 6.2 3.9 8.6 5 2.5 1.1 4.8 2.3 5.1 2.8 1.3 1.9 14.8 8.4 18.2 8.7 2.1.2 5.6-.3 7.9-1.1 2.3-.9 4.4-1.3 4.6-1.1s-1.9 1.2-4.7 2.2-5.5 2.4-6.1 3c-.5.6-1.4 6.3-2 12.5-.6 6.3-1.5 12.1-2.1 12.9-.6 1-.7.2-.4-2.5 1.1-8.2 1.8-21.5 1.2-21.5-.3 0-7.6 3.6-16.1 8.1-17.6 9.2-17.2 8.4-7.1 15.1 4.5 3 6.7 3.8 8.7 3.4 3.7-.7 5.5 1.4 3.7 4.3-1.4 2.3-4.6 2-6.1-.5-1.2-2-17-11.9-18.4-11.6-.7.2-1.3-.4-1.3-1.3 0-.8-.6-1.5-1.4-1.5s-1.7-.4-2-.9c-.3-.4.6-.6 1.9-.3 1.6.3 2.5 0 2.5-.9 0-1 .3-1 1.2-.1s4.8-.7 17-7c8.7-4.5 15.8-8.5 15.8-8.8 0-.9-10.2-6.9-15.1-8.7-2.4-1-4.6-2-4.9-2.4-.8-.9-10.9-7.9-11.5-7.9-.3 0-1.8-.9-3.3-2s-3.6-2.1-4.7-2.3-3.1-.8-4.5-1.4c-1.7-.7-7-.6-16.5.3-20.5 1.9-23.8 1.8-37-.9-6.6-1.4-12.5-2.2-13.2-2-1.8.7-1.6-.2.3-2.1 2.3-2.3 6.5-20 6.5-26.8-.1-3.1-.8-8.8-1.6-12.5-2.3-10.2-2.3-10.2-4.5-7.3-2.4 3-2.8.6-.5-2.6.8-1.2 1.1-2.4.8-2.8-.3-.3.1-1.4.9-2.3.9-1 1.8-3.2 2-4.8 2.9-17.4 7.1-39.2 7.9-40 .5-.5.9-1.4.9-1.9 0-.6-1.8.8-4.1 2.9l-4.1 4 5.4-8c2.9-4.4 6.2-9.8 7.2-12 1.1-2.2 3.7-6.9 5.7-10.5s5.8-10.6 8.4-15.5c4.4-8.5 8.9-14.4 10.9-14.5.5 0 0 1-1.2 2.3-3.1 3.3-2.7 4.4 1.6 5.1 3.9.6 13 3.1 16.7 4.6 5.1 2.1 15.1 5 17.2 5 1.6 0 2.3-.6 2.3-1.8 0-3.1-5-31.5-6.1-35-.6-1.8-.9-3.5-.6-3.8 1-1 2.7 5.7 5.3 20.1 1.5 8.2 3 15.8 3.3 16.8.6 1.5 1.8.6 6.7-5.4 3.2-3.9 9.6-11.6 14.2-17.1 4.5-5.5 8-10.4 7.7-10.9-.8-1.1.6-1.4 24-4.2 18.2-2.2 28.6-3.1 26-2.2m551.1 24.8c-.1 1.4 31.2 34.7 35 37.2 2 1.3 2.9 1.2 8-.5 3.1-1.1 5.9-1.8 6.1-1.6s-2 1.2-4.8 2.2c-2.9 1.1-5.4 2.3-5.6 2.9-.1.5 3.7 3.4 8.5 6.4s14 9 20.4 13.3c6.5 4.3 12 7.8 12.3 7.8.2 0-.8-2.1-2.3-4.8-3.4-5.8-7.3-14.2-6.7-14.2.2 0 2 3.1 4 6.9 4.3 8.1 7 10.3 4.8 3.9-.8-2.3-1.2-4.8-1.1-5.7.2-.9 1.1.8 2.1 3.6 1 2.9 1.5 6.4 1.1 7.7-.3 1.4-.1 3.3.6 4.3.9 1.6 1 1.5.5-.7l-.6-2.5 1.5 2.5c1.8 2.9 2.3 6.6.6 4-.8-1.2-1-1.1-1 .6 0 1.1.7 2.9 1.5 4 1.7 2.2 2 3.8.5 2.9-.5-.3-.8 0-.6.7 1.3 4.1 1.6 6.9.7 6.3-.7-.4-.9 2.7-.5 9.2.7 11.4 1.8 16.6 4 18.4 1.4 1.1 1.5.8 1-2.7-.4-2.8-.2-2.4.9 1.5.7 3 1.7 5.7 2.2 6s.9 2.2.8 4.1c0 1.9.5 4.6 1.1 6 1.3 3 2.8 11.7 1.8 10.7-.4-.4-1-2.3-1.3-4.2-.6-3.4-.7-3.5-1.9-1.4-.8 1.2-.9 1.8-.3 1.4.7-.4 1.1.4 1.1 1.9 0 2.4.4 4.5 3.4 19 1.9 9.1.4 7.2-1.9-2.4l-1.8-7.5-1.3 5c-4.4 17.6-5 20.5-4.7 20.5.2 0 2.6-1.1 5.3-2.5 6.2-3.1 7.6-5.5 6.2-10.4-.6-2-1.3-5.6-1.6-8.1-.5-4.1-.5-4.2.5-1.3.5 1.8 1.3 3.3 1.8 3.3 2.7 0 1.9 28.9-.9 32.5-1.4 1.9-2 7-2 16 .2 16.6 1.4 22.4 8.9 40.9 8.5 20.9 14.6 34.7 19.5 44.4 3.1 6.2 3.5 7.8 2.7 10-.6 1.9-1 2.1-1 .9-.1-1.7-.4-1.6-3.2.5-6.6 4.8-11 7.8-11.7 7.8-.4 0-4 2.7-8.1 6s-8.2 6-9 5.9c-1.4 0-1.4-.1 0-.7 2.2-.9 8.9-6.4 8.9-7.2s-13 2.6-13.9 3.6c-.3.4 0 .9.8 1.2 1 .3 1.1.6.1 1.2s-.7 2.4 1.6 7.8c1.7 4.3 3.2 6.6 3.6 5.9.5-.8.8-.6.8.6 0 1 1.1 4.4 2.5 7.7s2.4 7.2 2.4 8.7c-.1 1.8-.3 2.2-.6 1-.4-1.4-.8-1.6-1.9-.6-1.2.9-1.3.9-.9-.2.3-.8-.6-4.6-2.1-8.4-1.4-3.9-3.2-9-4.1-11.5-.8-2.5-1.8-4.8-2.1-5.2-.5-.5.1 27.7.7 32.6.1.4 1.3-.6 2.8-2.3 4.2-4.8 4.9-3.7 1 1.7-3.1 4.1-3.4 4.9-2.2 6.6.8 1 1.9 1.5 2.5 1.1.7-.5.7 0-.1 1.3-1.2 1.9-2.3 2.3-1.9.7.4-1.9-3.5-3.2-7.3-2.3-5.1 1.1-5.9.4-1.3-1.3 4.1-1.5 4.1-1.4 2.1-6.5l-1.6-3.9 2.1 2.4 2.1 2.4-.5-21-.4-21.1 6.6-1.7c12.8-3.3 12.4-2.6 4.1-7.4-4.1-2.4-7.8-4.6-8.3-4.9s-.6.2-.3 1.2c.4.9.3 1.5-.2 1.1-.5-.3-1.2.1-1.4.7-.3.7-.6-2.1-.7-6.2-.1-5.4-.4-6.8-1-5-.4 1.4-.8 4.2-.9 6.2s-.4 3.9-.8 4.1c-.5.3-.7-2-.6-5.1l.2-5.7-1.5 5.5c-.8 3-1.6 10.2-1.9 16-.2 5.9-.1 9.2.3 7.5.7-2.5.9-1.7 1.5 4.5.4 4.1.9 9.1 1.2 11l.4 3.5-1.4-4c-1.4-4-1.4-4-.8 3 .3 3.8 1 7.8 1.4 8.7 1.8 3.5.8 4.2-1.2.8-2.1-3.6-10.8-13-12-13-.3 0-.4 1.1-.1 2.5.2 1.4 0 2.5-.6 2.5-.7 0-1-2.5-.9-6.9.1-3.8.5-6.4.8-5.9.7 1.1 10.1-15.3 9.7-16.9-.1-.4.2-3.2.6-6.2 1.1-7.3 1-13.5-.3-13.9-.7-.2-.5-1.4.4-3.2.8-1.6 1.5-4.1 1.5-5.7 0-2 .3-2.4 1.1-1.6.9.9.9 2.3-.1 5.8-.7 2.5-1.1 4.8-.8 5.1.5.5 1.6-3.2 4.1-14.8 1.2-5.7 1.2-7 .1-7.9-1-.8-1.4-.8-1.4-.1 0 .6-.7.9-1.5.6-1.1-.5-1.5.1-1.5 1.9 0 1.3-1.1 4.9-2.5 7.8-2.5 5.4-2.5 3.3.1-3 2.2-5.3 1.8-6.8-2.2-8.1-1.9-.7-4.1-1.3-4.7-1.4-.7-.1-1.6-.4-2.2-.8-1-.5-12.2-5-15.7-6.1-.9-.3-1.9-.1-2.2.6-.3.9-.7.9-1.4-.1-.6-.8-2-1.1-3.8-.7-2.6.5-2.6.4-.6-.4 1.2-.6 2.2-1.3 2.2-1.5 0-.6-14.5-10.6-27.4-18.9-5-3.1-9.7-5.5-10.6-5.3-.8.2-3.3.7-5.5 1l-4 .6 4.5-1.9c3.5-1.5 4.1-2.1 2.8-2.6-1-.4-1.8-1.2-1.8-1.8 0-.7.4-.7 1.2.1 2.3 2.3 3.7 1.4 3.2-2.1-.2-1.7-1.1-7.9-2-13.7-.8-5.8-1.6-12.1-1.7-14.1-.1-2.6-1-4.3-2.7-5.7l-2.5-2 2.8.5c2.1.4 2.7.1 2.8-1.3.1-1.7.2-1.7.6-.2.2 1 .7 1.8 1 1.8 1.6 0 40.3-20.7 40.3-21.5 0-.4-21.5-45.5-29.6-62-3.8-7.7-5-9.4-5.2-7.5-.1 1.4-.7 6.8-1.2 12-.8 8.8-.8 8.5-.3-4.1.4-10.6.2-13.7-.9-14.6-.7-.6-11.4-3.6-23.8-6.8-12.4-3.1-22.7-5.9-22.9-6.1-1-.9 2.7-.1 23.3 5.1 11.9 3 21.9 5.5 22.2 5.5.5 0-6.3-9.9-7.6-11-1.1-.9-20.5-26.8-33.7-45.1-11.3-15.6-11.2-15.4-12.2-14.3-1.1 1.1-12.7 20.2-15.5 25.6-1.1 2-2.8 4.7-3.9 6-1 1.2-.5-.2 1.1-3.2 6.5-12 15.4-27.6 16.3-28.5.5-.5.9-1.7.9-2.7s.5-1.8 1.1-1.8 11 3.2 23.2 7.1 28.5 9.1 36.1 11.5 14.1 4.3 14.3 4c.3-.2-7.3-8.4-16.7-18.3-14.6-15.2-17.6-17.8-19.8-17.5s-2.4.1-1.3-1.2c1.6-1.9 5.9-2.1 5.7-.3m-752 177.5c.3 6.3 2.4 13.4 6 20.6 1.9 3.8 3.4 7.5 3.4 8.4 0 1.2.3 1.2 1.5.2 1.3-1 1.5-.9 1.5.8 0 2.6.6 2.9 5.7 3.5l4.1.5-1.8-4.6c-3.4-9-3.4-8.9-.5-5.8l2.7 3-.7-3.3q-.75-3.3.3-2.7c.6.3 1.5-.8 2.1-2.6 1.6-4.4 1.4-4.8-1.6-4.8-3.9-.1-1.1-1.6 4.5-2.5 4.7-.8 4.8-1.4 1.5-7.8-.8-1.6-1.2-3.1-1-3.4.3-.2.8.4 1.1 1.5.4 1.1 1.6 3 2.7 4.3 1.9 2.2 2.1 2.2 3 .6.6-.9 1.5-1.7 2-1.7.6 0 .8.4.4.9-.3.5-.1 1.2.5 1.6 1.6 1 5-.5 5-2.1 0-1.2.4-1.2 2-.4 1.1.6 4.5 1 7.5.8l5.5-.3-1.5-2.9c-2.2-4.2-1.8-4.5 1.4-.8 2.5 2.9 3.2 3.2 4.9 2.3 2.7-1.4 3.2-1.4 3.2.3s2.7 2.8 5.1 2.1c1.3-.4 1.9-.1 1.9.9 0 1.2 2.6 2.8 5 3.1 2 .2 5.2 3.6 4.6 5-.4 1-.2 1.4.5.9.6-.4 1.5-.1 1.9.6.5.8 1 .9 1.4.2.3-.6 0-1.6-.7-2.4-.7-.7-2.1-3.3-3-5.7-1-2.4-2.9-5.9-4.4-7.7-1.4-1.9-2.1-3.4-1.7-3.4.5 0 2.2 2.1 3.9 4.8 1.6 2.6 3.5 5.3 4.2 6 .8.8 2.1 2.8 2.9 4.5.9 1.8 2.3 4 3.2 5 1.5 1.7 1.6 1.7 2.9-.5s1.3-2.2.7.6c-.7 3.1.5 4.5 4.6 4.7 1.4.1.4.5-2.2.8l-4.8.6 1.4 2.7c.9 1.7 1.1 2.8.4 2.8-.5 0-.8.7-.4 1.5.6 1.6-1.8 17.3-2.8 18.3-.4.3-1.3-.3-2.1-1.4s-1.5-1.4-1.5-.7-.8 1.3-1.9 1.3c-1 0-3.5 1.8-5.5 4-2.1 2.3-4.1 3.7-5 3.4-.8-.3-1.7 0-2.1.6-.6.9-1 .9-1.6-.1-.7-1.1-.9-1-.9.3 0 1-.6 1.8-1.2 1.8-1.2.1-6.8 4.4-6.8 5.3 0 .3 1.7.1 3.8-.4 2-.4 7.2-1.2 11.5-1.8 8.6-1 10.7-2.2 10.7-5.7 0-1.3.4-2.4.9-2.4s.7 1 .3 2.2c-.5 2.1-.1 1.9 3.4-1.1 2.1-1.9 5.1-4.7 6.5-6.3 7.6-8.3 16.2-16.8 16.7-16.4.5.6-9.8 11.8-20 21.6-3.8 3.6-6.8 6.9-6.8 7.3 0 .3 1.2 1.3 2.8 2.1 1.5.8 3.9 2.6 5.4 4 3.8 3.9 11.2 8.7 11.6 7.6.5-1.4 2.2-.2 2.2 1.6 0 1.9-3.5 1.8-5.7-.1-7.6-6.5-9.9-8-12.7-8-2.3 0-3-.5-2.8-1.7.1-.9-.3-2-.9-2.4-.7-.4-1-.2-.7.7.2.7-.5 2.2-1.7 3.4-1.2 1.1-3 5.2-4.1 9.5-1.8 6.6-2.3 7.5-4.5 7.7-1.3.1-1.7 0-.8-.3 1.4-.4 4.7-9 6.5-16.9l.7-3-2.4 2c-1.2 1.1-3.3 3.1-4.6 4.4s-2.3 2-2.3 1.5 1.6-2.6 3.6-4.7 3.4-4 3-4.4c-.7-.7-12 1.2-17.8 3l-3.8 1.2v9.4c0 11.2-.8 11.8-1.1.8-.1-4.3-.5-7.9-.9-8.2-1.1-.7-15.3 14.3-15.7 16.6-.2 1.3.6 3.2 1.9 4.6 1.2 1.2 1.7 2.3 1.2 2.3-2.3 0-6.9-7.4-7.2-11.4-.2-3 0-3.7.8-2.6.5.8 1 2.3 1 3.2 0 1 .2 1.8.5 1.8 1.7 0 15.5-15.2 15.5-17 0-.9-6.3-4-8-4-.4 0-1.5 1.9-2.4 4.2-1.2 3.2-1.9 3.9-2.5 2.9-.6-.9-.4-2.2.4-3.5 1.8-2.7.6-4.7-3-5l-2.7-.3.6 7.6.6 7.6-1.5-6.5c-.8-3.6-1.9-6.6-2.5-6.8-.5-.2-1-1.1-1-2 0-1.3-1-1.7-4.4-1.8-4.3 0-4.5.1-5.1 3.5-.3 2-1.7 8.1-2.9 13.6-2.7 11.9-2.9 14.4-1.2 16.5 1.3 1.6 6.6 11.6 6.6 12.5 0 1.7-2.1-1.1-4.4-6-1.4-3-2.8-5.5-3.1-5.5-.7 0 .1 4.6 1.4 8 1.5 4 3.9 13.2 4.6 17 .4 2.7 0 2.1-1.9-2.5l-2.5-6v5.6c-.1 6.9-1.7 9.4-5.1 8-1.4-.5-1.8-1-1-1.1 1-.1.9-.4-.5-1-1.1-.5-7.2-.9-13.5-1s-15.5-.5-20.5-.9c-4.9-.5-9.7-.5-10.7 0-2.7 1.4-2.9-1.5-.4-6.8 10.5-21.9 10.8-22.6 9.4-23.5-1.1-.8-1.1-1 0-1.5 1.4-.5 4.4-6.8 6.7-13.8.7-2.2 2-5.7 2.9-7.8 2.3-5.3 1.1-4.6-1.8 1-5 9.6-2.4 2.5 3.3-9.2 3.2-6.6 6.5-13.8 7.2-16 .8-2.2 1.8-4.3 2.2-4.6 1.3-.9 1.2-26.1-.1-33.8-.9-6-.7-9.9.6-8.6.3.3.6 2.2.8 4.3m336 21.4c-.5 15.3-.4 19 .6 18 1.9-1.9 3.3-1.4 1.5.6-2.9 3.2-3 3.2 11 22.5 2.5 3.4 7.1 7.3 7.7 6.5.7-.8-2.6-46.5-3.4-48-.6-1-1-2.3-1-3s-1.7-3-3.7-5.2l-3.8-4 3.9 3.3c2.1 1.8 4.8 3.6 6.1 4.1 2.1.8 2.2 1.2 1.4 5.5-.5 2.5-.7 6.3-.4 8.3.5 5 1.3 15.6 2.1 28.5.3 5.9 1 11 1.5 11.3 1.6.9 1 4.4-.7 4.4-1.8 0-8.7-7.4-12.1-12.9-2.3-3.8-3.8-5.9-7.9-10.6l-2.5-3 .4 4.7c.6 6.3-.6 6.1-2.2-.2-.7-2.8-1.5-5-1.8-5s-2.2 1-4.2 2.2l-3.6 2.1 3.3-3c3-2.8 4.4-7.3 2.2-7.3-.5 0-1-.7-1-1.6 0-1-1.8-4.8-4-8.7-2.3-3.8-3.9-7.4-3.8-7.9.2-.5 1.8 2 3.6 5.5 3.3 6.5 8.8 12.9 8.9 10.5 1.1-26.2 1.7-36.8 2.1-36.8.3 0 .2 8.7-.2 19.2m328.8-10c-.3 5.1-.7 11.3-.9 13.8-.5 5.6.4 12 1.6 12 .5 0 .9-1.7.9-3.7 0-2.7.3-3.4 1.1-2.6.9.9.7 6-.6 20-.9 10.3-2.1 19.5-2.5 20.4-.8 1.4-3.1 13-4.6 22.4-.3 2.2-1 4.7-1.5 5.6-.4.9-.6 1.9-.3 2.2.6.6-2.1 13.1-4.1 19.2-.8 2.2-1.9 6.8-2.6 10.3-.6 3.4-1.5 6.5-1.9 6.7-.4.3-1.6 4.5-2.6 9.4-1.6 7.8-1.9 8.7-2.9 6.8-.6-1.2-.8-2.9-.4-3.7s1.2-3.5 1.9-6 1.8-5.7 2.6-7.1c.7-1.4 1.1-2.8.9-3.1-.3-.3.6-4 2-8.4 3.1-10 6.7-27.8 6-29.6-.3-.8-.1-2.8.5-4.4 1.5-3.7 3.1-12.9 3.2-17.4 0-1.9.6-4.2 1.3-5 1.5-1.9 2.6-20.6 1.5-27.5-.7-5-.7-5-.9-1-.1 2.2-.6 4.7-1.1 5.5-1.3 2.1-1.2-22.1.1-28 .6-2.5 1.3-7.1 1.6-10.3.9-9.3 2.3-6.5 1.7 3.5M486.5 374c.9 1.6 2.2 3 3 3q1.5 0 1.5 3c0 1.6.5 3 1.1 3 .5 0 .7.5.4 1-.5.9 2.8 6.3 3.7 6 1.1-.4 3.7 1.4 3.2 2.2-.4.7-.9.6-1.4-.1-.5-.9-2.3-.9-7.5 0l-6.8 1.2 2.4 1.8c2.5 1.9 1.1 2.6-2 .9-2.1-1.1-9.5-13.3-10.5-17.2-.4-1.7-.1-2.9.6-3.4.7-.4 1-.4.6.1-.9 1 3.9 10.5 5.3 10.5.6 0 .8-.9.4-2s-.2-2 .4-2 1.1-.6 1.1-1.4.5-1.6 1.2-1.8c.6-.2 1.1-2.1 1.1-4.1s.2-3.7.3-3.7c.2 0 1 1.3 1.9 3m24.5 27.5c0 .7 1.1 2.6 2.4 4.2 1.2 1.5 2.5 3.9 2.8 5.3s.9 3.4 1.3 4.5c.4 1.2-.1.9-1.2-.8-1-1.5-2-2.6-2.3-2.5-4.7 2.2-16.2 5.9-16.7 5.4-.4-.4-.1-1.1.6-1.5.8-.5.9-1.1.3-1.5-1.2-.7-.6-8.6.8-10 1.5-1.5 1.2-2.6-.7-2.4-4.1.3-6.4-.3-6-1.5.5-1.6 11.8-1.1 12.9.6.4.7.8-1.5.8-4.7v-5.9l2.5 4.7c1.4 2.6 2.5 5.3 2.5 6.1m272.8 60c2.9 9.4 6.9 18.9 8 19.3.8.2 6-5.1 14.6-15.3 1.4-1.7 2.6-3.5 2.6-4.1 0-.7-1.8-2.7-4-4.7-5.5-4.8-5.1-5.7.5-1.1 3.8 3 4.5 3.3 4.5 1.8.1-1.8.1-1.8 1.2.1.6 1.1 1.6 2.3 2.2 2.8q1.05.75-.6 2.1c-1 .7-1.8 2.2-1.8 3.2 0 2.7-2.6 10.8-4.5 14.1-.9 1.5-1.3 1.9-.9.8s.9-3.6 1.2-5.5 1.2-4.6 2.1-6c1.2-1.9.4-1.5-3.4 1.7-2.8 2.3-6.7 5.9-8.9 8.1-3.4 3.6-3.7 4.4-3.1 7.3.7 3 .6 3.2-.8 2.1-1.4-1.2-1.7-.9-2.2 2.5-.4 2.1-1.8 9.2-3 15.8-1.3 6.6-2.2 12.1-2 12.4.4.4 7.8-7.5 11.7-12.4 1.1-1.5 2.1-3.9 2.2-5.3.1-2.9 1.8-3.3 2.2-.6.4 2.5.6 2.5 6.4-1.7 3-2.2 6.8-4.7 8.4-5.7 1.5-.9 4.4-2.7 6.4-4 2-1.4 3.8-2 4.4-1.4.5.5-2.3 2.5-6.6 4.7-4.1 2.1-8.7 4.9-10.2 6.2-1.5 1.2-3.1 2.3-3.5 2.3-2 0-19.1 18.3-21.1 22.7-1.2 2.5-4.5 3.6-5.6 1.9-.4-.7-4.4-3.4-9-6.1s-7.8-5.1-7.2-5.3 1.9.3 2.9 1.2 2.1 1.6 2.5 1.6 2.1.9 3.7 2.1c1.9 1.3 3.6 1.8 4.7 1.4.9-.4 1.3-.9.7-1.1-.5-.2-.9-2.1-.9-4.1.1-2.1-.6-6.5-1.6-9.8s-2.5-10.3-3.5-15.5-2.4-11.1-3.1-13-1.5-5.2-1.7-7.3c-.9-8 1.2-1.6 5.3 16.1 2.3 10.1 4.8 19.9 5.6 21.8.8 1.8 1.4 4.5 1.4 5.9 0 6 4.1-.2 6-9.1.6-2.7 1.6-8.6 2.4-13.2 1.3-8.3 1.3-8.5-1.6-16.5-1.6-4.5-3.6-10.9-4.5-14.2s-2-6.7-2.6-7.5c-1-1.3-.9-1.3.5 0 .8.8 2.5 4.6 3.6 8.5m-551.9.7c-.1 1.3.4 7.9 1 14.8s1.4 15.9 1.7 20c.8 9.9 1.8 11.6 3.9 7l1.6-3.5-.7 3.5c-.3 1.9-1.1 4.1-1.6 4.7-.6.7-.8 1.9-.5 2.8.9 2.1-1.1 2.9-3.2 1.3-1.6-1.1-14.2-10.1-18.8-13.3-1-.7-1.8-.5-2.9.9-.8 1.1-1.4 1.6-1.4 1.1s.7-1.7 1.6-2.7c.9-.9 2.2-4.6 2.9-8 1.1-5.5 1.3-5.8 1.4-2.5 0 2.1.5 3.6 1 3.3.5-.4.4.8-.2 2.5-1 2.7-1 3.2.7 4.4 1 .8 2.2 1.2 2.6 1 .5-.3 1 .6 1.4 1.8.3 1.3 1.6 2.9 2.8 3.5 1.3.6 3.7 2.3 5.5 3.8l3.2 2.6-.4-9.4c-.3-5.1-.7-11.1-.9-13.3-.3-2.2-.8-8.1-1.2-13-.4-5-1.3-9.9-2-11-1.8-2.6-1.8-3.3.4-3.8.9-.3 1.8-.5 1.9-.6.2 0 .2.9.2 2.1m811.6 37.7c-2.5 4.5-4.5 8.3-4.5 8.6s.8.5 1.8.5c1.5 0 1.5.2.2 1-1.2.9-.6 1.8 3.4 5.6l5 4.6 1.3-2.7c1.6-3 .6-5.1-3-5.8-1.2-.3-.5-.3 1.5-.2 2.1.2 4-.1 4.3-.6.9-1.3 3.1 0 3.2 1.9.1.9.7 3.5 1.3 5.7.7 2.2 1.4 5.4 1.7 7.2l.5 3.1-4.8-2.4c-2.9-1.5-5-2-5.2-1.4-.2.5-.8.7-1.3.4-1-.6-8.5 6.6-12.7 12-1.2 1.6-2.5 2.7-2.7 2.4-.3-.3 2.6-3.8 6.5-7.9 3.8-4.1 7.2-8.1 7.5-9 .6-1.8-9-12.4-10.4-11.5-.5.4-.8-.2-.6-1.1.2-1 .4-3.4.5-5.3.2-3.1.3-3.2.9-1 .7 2.4.7 2.4 2.7-1 1.2-1.9 3.2-5.4 4.4-7.7 1.3-2.4 2.5-4.1 2.7-3.9.2.1-1.7 4-4.2 8.5m-380.4 25.7c-1.1 1.5-2.1 3.1-2.1 3.7s6.4.8 18.8.5c10.3-.2 16.5-.1 13.7.3-2.7.4-8.6.8-13 .9l-8 .2 4.2 1.3c5.5 1.8 62.9 7.8 64.6 6.8.4-.2.5-.9.2-1.4-1.3-2 .7-3 2.7-1.3 1.5 1.5 2.1 1.6 2.7.5.5-.8 1.1-.9 1.5-.3.3.5 2.3.8 4.3.6 2.1-.2 6.3-.6 9.3-.8s8.5-.7 12.3-1.1c4.6-.6 6.7-.4 6.7.3 0 .6-1.2 1.2-2.7 1.4-2.7.3-2.6.5 3 4.6l5.8 4.3 4.2-3.5c8.1-6.8 12.2-10.8 10.6-10.3-1.1.4-1.6 0-1.5-1.1.1-1-1-1.9-2.9-2.3-2.3-.5-1.5-.7 3-.8 3.4 0 6.5-.5 7.1-1.1 1.9-1.9 3 .4 1.7 4-.6 1.9-1.2 2.7-1.2 1.7-.1-1-.5-1.6-1-1.2-.5.3-1.2.1-1.6-.5-.3-.5-1.1-1-1.7-1-.7 0-.7.5.1 1.4.9 1.1.1 2.4-4.1 6.4-2.9 2.8-6.6 6-8.1 7.3-2.2 1.6-2.7 2.7-2.3 4.5.4 1.4.2 2.4-.4 2.4-.5 0-1-.5-1-1 0-1.7-3.3-1.1-9.5 1.9-3.3 1.5-8.5 3.4-11.5 4.1s-8.9 2.4-13 3.7c-10.9 3.6-14 3.6-26 .4-1.9-.6-6.4-1.5-10-2.2-3.6-.6-10.5-2.3-15.5-3.6-10.4-2.9-14.9-3.1-17.9-.6-1.9 1.6-1.9 1.5.2-.8 1.2-1.4 2.2-2.8 2.2-3.1 0-.4-1.7-1.7-3.7-2.9-2.1-1.2-5.8-3.8-8.3-5.6-6.7-5-11.5-8-14.1-8.8-3.6-1.1-4.7-2.4-4.2-4.6.4-1.3.8-1.7 1.3-.9.4.7 1.7-.1 3.6-2.3 3.4-4 4.6-4.1 1.5-.1m-17.8 44.8c1.9 1.3 7.5 4.2 12.3 6.4 4.9 2.2 14.7 6.8 21.7 10.2 7.1 3.4 13.5 5.9 14.3 5.6s1.4-.2 1.4.2c0 2.1 7.7 3.1 23.8 3.2 17.1.1 17.3 0 18.2-2.2l.9-2.3v2.2c.1 2.2.5 2.3 6.9 2.3 3.7-.1 10.1-.5 14.2-1.1s8.3-1 9.2-1 2.1-1.3 2.7-3c1.1-3.3 2.6-4.1 1.6-.8-.6 1.7-.4 1.9 1.2 1l7.2-3.6c3-1.5 7.9-4.4 11-6.5s5.8-3.7 6-3.4c.5.5 1.3-.1-10.6 7.8-6 4-10.7 6.5-11.4 6-.7-.4-.9-.3-.5.4.3.6-.3 1.6-1.4 2.2s-2 1.8-2 2.6-.5 1.2-1 .9c-.6-.4-5.6 3.6-11.3 8.7-5.6 5.1-12.3 11.1-14.9 13.2-3 2.6-4.4 4.4-4 5.4.3.9.1 1.3-.5.9-.5-.3-3.1.5-5.7 1.9-5.8 3.1-7.2 2.7-1.6-.5 2.2-1.2 4-2.4 4-2.6s-2.3-2-5.2-4c-2.8-2.1-5.6-4.2-6.2-4.7-2.3-1.9-20.4-14.6-22.4-15.7-2.1-1.1-2.2-1-2.3 3.1-.2 3.2-.3 3.5-.6 1.3-.8-6.4-1.4-7.6-4.6-8.9-7.1-3.1-34.6-15.7-41.2-18.9-3.8-1.9-7.1-3.1-7.3-2.6-.5 1.2-4.2-1.3-4.2-2.8 0-.7-.8-1.7-1.7-2.2-1-.6-1.3-1.1-.7-1.1s2.7 1.1 4.7 2.4m558.2 104.5c.3 1.1 1.6 2.1 2.8 2.3 1.3.2 2.3 1.1 2.4 2.3l.3 2-.9-2-1-2v2c-.1 1.1.6 4.1 1.6 6.7l1.6 4.6 1.7-3.1c1-1.8 2.6-5.8 3.6-9 1.3-4.1 2.3-5.7 3.6-5.7 1.6 0 1.4.9-1.6 9.2-1.8 5.1-3.6 10.9-4 12.9-.6 3.1-.9 3.6-3 3.2-1.9-.4-2.9-1.8-4.6-6.6-1.2-3.4-3.3-9-4.6-12.5-2.2-5.9-2.2-6.2-.4-6.2 1 0 2.1.9 2.5 1.9m24.3 5.9c3.1-1.1 8.5.8 13.4 5 1.2.9 1.9.6 3.6-1.8 3.1-4.1 8-4.9 12.9-1.9 5.3 3.1 8.3 6 8.3 7.8-.1 1-.7.5-1.6-1.2-.8-1.5-1.7-2.7-2-2.7s-.2.5.2 1.1c.3.6.3 1.4-.2 1.8-.5.3-1.4 1.9-2 3.6-.6 1.6-1.6 2.9-2.3 2.7-.7-.1-1 .2-.6.8.3.5-.1 1.3-.9 1.6-2.7 1.1-1.7 2.6 1.3 2.2 1.7-.2 2.8-.1 2.5.4-.3.4-.1.8.4.8 1.1 0 3.7-2.9 4.5-5 .5-1.3.5-1.3.6 0 .1 3.1-6.1 8.1-7.4 6-.3-.5-1.4-1-2.3-1-1.5 0-1.5.2-.2 1 .8.5 1.1 1 .7 1-1.5 0-5.1-2.2-9.7-6-3.8-3-5-3.5-7.5-2.9-1.6.4-2.6.7-2 .8.5 0-.1.8-1.3 1.7-1.2.8-2.8 1.2-3.5.8-.6-.4-.4.1.5 1.1 1.5 1.6 2.1 1.7 4.5.7 2.6-1.2 2.7-1.1.8.3-1.3 1-3 1.4-4.8 1.1q-2.85-.6-2.1.6c.9 1.4-1 .3-5.8-3.5-2.1-1.6-3.8-3.5-3.8-4.3s-.6-1.4-1.4-1.4-1.8-.5-2.2-1.2q-.75-1.05.6-.3c1 .6 1.2.3.8-1.3-.4-1.2-.3-2 .1-1.8.3.2 1.5-1.7 2.6-4.2 1.1-2.8 2.1-4 2.3-3.1.2 1.4.8 1.5 3 .7"/><path d="M635 114.7c-.8.3-6.9 3.2-13.5 6.3-6.6 3.2-13.1 6.1-14.5 6.5-1.3.4-5.5 2.3-9.3 4.2-7.9 4-7.9 4.3 1.8 8.5 3.3 1.5 10.1 4.5 15.2 6.8 5 2.2 13 5.6 17.6 7.4l8.5 3.3-.4-3.1c-.9-7.4-2.4-28-2.4-34 0-6.6-.2-6.9-3-5.9M782 165.5c.1 26.1.4 48.4.7 49.6.6 2.1.6 2.1 1.7.1.6-1.1 2.9-4 5.1-6.4 2.3-2.3 5.6-6.3 7.5-8.8s3.7-4.7 4-5 2.3-2.8 4.5-5.5c2.2-2.8 5.4-6.6 7.2-8.5s3.3-3.9 3.3-4.3c0-.5 1.9-3.1 4.2-5.8 4.8-5.7 4.7-6.2-2.7-14.9-11.2-13-15.1-17.5-16.5-19-.8-.8-3.5-4-5.9-7-5.6-6.9-10.8-12-12.1-12-.8 0-1 15.2-1 47.5M590.6 140.2c1 3.5 4.8 10.4 10.3 19.3 2.7 4.4 6.6 10.8 8.6 14.2 2 3.5 4 6.3 4.6 6.3 1.2 0 5.6-3 12-8.3 2.6-2 5-3.7 5.4-3.7 1.1 0 9.5-6.3 9.5-7.1 0-.4-4.4-2.6-9.7-4.9-5.4-2.4-13.1-5.8-17.1-7.7-3.9-1.8-7.7-3.3-8.2-3.3-.9 0-7.4-3-13.2-6.1-2.6-1.4-3-1.1-2.2 1.3M587.6 167.2c-.4 14.5-.9 28.1-1.1 30.3-.4 4.9.1 5.8 2.3 4 15.2-12.6 21.7-18.4 22-19.6.3-1.4-2.6-7-9.3-17.9-1.9-3-5.6-9.5-8.3-14.3l-4.9-8.8zM628.2 173.1c-6.7 4.4-12.4 8.4-12.6 8.8-.6.9 6.4 18.5 9.2 23l2.1 3.5 2-4.8c1.2-2.6 3.5-9.3 5.1-14.9 1.7-5.6 4-13.1 5.1-16.6s1.8-6.5 1.6-6.7c-.2-.3-5.9 3.2-12.5 7.7M823 170.9c-.8 1.1-6.7 8.6-13 16.7s-14.8 18.4-18.8 22.8c-4 4.3-7.1 8.4-6.9 9 .2.7 5.4 1.3 13.3 1.7 7.1.3 17.6 1 23.3 1.4l10.3.7-.7-7.3c-.3-4.1-1-10.7-1.5-14.8-1-7.2-2.1-21.2-2.4-28-.1-4-1.5-4.8-3.6-2.2M638.1 183.7c-1.2 4.3-3.9 11.9-5.8 17-2 5.1-3.3 9.9-3 10.8.4.8 1.9 2 3.4 2.6 1.5.7 4.2 1.8 6 2.5 1.7.8 3.4 1.4 3.7 1.4.8 0 .8-36.8 0-39.8-.4-1.2-.9-2.2-1.3-2.2-.3 0-1.7 3.5-3 7.7M602 192.7c-12.1 9.8-14.5 12.2-12.8 12.8.7.2 5.8 1.1 11.3 2 5.5.8 13 2.1 16.8 2.7 6.9 1.2 8.7.8 7-1.4-.5-.7-3.1-6.4-5.8-12.6-2.7-6.1-5.4-11.2-6-11.2s-5.3 3.4-10.5 7.7M734.9 201.8c-1.3 1-5 3.4-8.1 5.3-3.5 2-5.7 4-5.5 4.9.1.8-.5 1.5-1.5 1.5-2.2 0-5.5 3.1-3.6 3.3 7.6.9 54.9 2.7 56.8 2.2l2.5-.7-2.2-1.1c-1.2-.7-2.8-1.2-3.7-1.2-.8 0-1.6-.3-1.8-.8-.4-1-9-7.2-9.9-7.2-.4 0-2.2-1.3-3.9-2.9-5.5-5-14.8-6.6-19.1-3.3M587 208.4c0 .3 1.1 3.5 2.4 7.3 1.3 3.7 2.7 8.6 3 10.8 1.4 8.7 4 11.6 6.8 7.7.7-1 6.6-5.8 13.1-10.6 6.4-4.8 11.7-9.1 11.7-9.6 0-1-6.3-2.4-20.7-4.5-10.3-1.5-16.3-1.9-16.3-1.1M695.5 220.6c-1.1.2-11.1.8-22.2 1.3-22.2.9-24.4 1.5-21.7 5.7.9 1.3 2 2.1 2.5 1.8s.9.1.9.8c0 1.2 6 8.4 18.8 22.4 2.6 2.8 8.3 9.2 12.7 14.3 7.1 8.1 10.2 10.6 10.6 8.3.3-1.5 3.5-26.6 4.3-33.2.3-2.5 1-7.4 1.6-11 1.5-8.5.8-11-2.8-10.9-1.5.1-3.6.3-4.7.5M709.6 223.7c.9 2.1 3.8 9 6.4 15.3s6.7 15.6 9.1 20.6c4.6 9.5 4.7 9.6 10.4 23.9 2 4.9 4.3 10 5 11.2.8 1.2 1.5 3.1 1.5 4.3 0 2.8 2.7 2.5 3.4-.4.6-2.5 5.8-13.8 17.1-37.1 3.5-7.2 7.7-16.6 9.5-20.9 1.7-4.3 3.9-9.5 5-11.6 3.6-7 4.5-6.7-20.7-7.4-12.6-.3-28.6-.9-35.6-1.2l-12.8-.6zM782.9 223.2c-.2 2.5.2 6.4 1.7 15.3 1.9 11.2 4 25.2 4.8 32.5 1.1 8.9 1.8 9.1 6.7 2.2 28.8-40.1 33.1-46.4 32.2-47.3-.7-.7-36.9-3.9-43.5-3.9-1 0-1.8.6-1.9 1.2M706.7 227.4c-.4 1-.7 3.6-.7 5.7 0 2.2-.4 4.8-.9 5.7-.9 1.6-1.2 4-2.7 16.7-.3 3.3-.8 6.7-.9 7.5-.2.8-.6 5.3-1 10l-.6 8.5 6.3 3.3c3.5 1.8 6.6 3.2 7 3.2.3 0 5.7 2.5 12 5.5 6.2 3 12 5.5 12.9 5.5 1.9 0-1.4-8.6-14.4-37-6.6-14.5-10.5-23.2-15-33.4-1.1-2.5-1.5-2.7-2-1.2M776.1 236.8c-2.4 5.9-5.8 13.4-7.6 16.7-1.7 3.3-4.4 9.1-6 13-1.6 3.8-3.4 7.7-4 8.5-1.9 2.6-10.5 22.3-10.5 24.1 0 1.6 1.9 1 15.2-5.2 7.3-3.4 15.9-7.3 19.1-8.7 5.4-2.5 7.9-5.5 6.4-7.9-.3-.4-1-5.3-1.6-10.8-.7-5.5-1.8-13.4-2.6-17.5-1.8-9.5-2.4-14.5-2.5-19.3 0-2-.3-3.7-.7-3.7-.5 0-2.8 4.9-5.2 10.8M831 229.2c-.5 3.3-3.2 15.8-4.4 20.3-.8 3.3-1.7 7.3-1.9 9-.3 1.6-.8 3.8-1.2 4.7-.4 1-.5 1.8-.2 1.8.4 0 6.6-3.5 16.3-9.3l4.1-2.5-4.7-9.7c-2.7-5.3-5.1-10.8-5.4-12.1-.4-1.3-1.1-2.4-1.6-2.4-.6 0-1 .1-1 .2M822.7 239.3c-2 2.9-4.5 6.1-5.4 7.2-1 1.1-3 3.6-4.3 5.5s-2.8 3.9-3.3 4.5c-.8 1-10.7 16.3-12.7 19.8-1 1.5-.4 1.5 3.7-.6 2.6-1.3 7.6-3.4 11.1-4.7 6.9-2.5 9.4-5.6 10.6-13.5.3-2.2 1.4-6.7 2.4-10 2.5-7.9 3.5-13.5 2.4-13.5-.5 0-2.5 2.4-4.5 5.3M840 257.9c-1.9 1-5.8 3.4-8.7 5.4-2.9 1.9-5.8 3.7-6.5 4-1 .4-1 .8.2 1.9 2.2 2.2 19.5 12.8 20.8 12.8 1.1 0 .8-18.2-.4-23.8-.5-2.7-1-2.7-5.4-.3M615.5 275.8c-2.7 4.2-6 9-7.3 10.6-1.2 1.6-2.1 3-1.9 3.2.7.8 15.2-2.8 16.5-4.1 1.1-1 1.1-2.1.3-5.1-.6-2.2-1.1-5.8-1.1-8.2 0-2.3-.3-4.2-.7-4.2-.5 0-3 3.5-5.8 7.8M811 273.4c-16.5 6.9-18.2 7.9-16.8 9.2 1.1 1.1 21.1 11.4 22.2 11.4.2 0 .4-1.7.4-3.8.1-2 .6-6.1 1.2-9.1 1.3-7.1 1.3-10.1-.2-10.1-.7 0-3.8 1.1-6.8 2.4M821.5 275c-.4 1.7-.8 4.5-1 6.3-.2 1.7-.7 5.4-1.1 8.1l-.7 4.9 3.9-.8c2.1-.4 4.3-1 4.9-1.3.5-.4 1.2-.7 1.5-.7s3.5-.9 7.3-1.9c9.6-2.7 10-3.7 3.1-8.1-3.2-2-6.5-4-7.3-4.3-.9-.3-3.1-1.6-5-2.9-4.4-3-4.8-2.9-5.6.7M688.5 287.4c-19 9-18.6 8.7-17.2 9.9 2.9 2.8 8.1 5.9 18.3 11.3 6 3.1 11.8 6.3 12.9 7s2.2 1.3 2.5 1.3 1.3.3 2.3.7c1.7.6 27.4-8.9 28.7-10.6.8-1.1 4-2 4-1.2 0 1.1-7.3 4.5-18.7 8.8-14.2 5.3-13.9 5.1-10.8 7.6 1.4 1.1 2.4 2.3 2.1 2.5-.3.3-2.7-1.3-5.4-3.5-2.6-2.2-8.2-5.8-12.3-7.9-10.2-5.4-18.9-10.3-22.1-12.5-4.7-3.2-5.6-2.1-4.2 5.1.5 2.3 1.3 3.3 3.3 3.7 3.1.8 10.3 4.8 12.7 7.1 1 1.1 3.8 1.8 7.6 2.1 7 .5 5.9 2.2-1.4 2.2-2.7 0-4.8.2-4.8.4s1.6 2.1 3.5 4.2 3.5 4.4 3.5 5.1c0 .8.8 1.7 1.8 2.1.9.4 5.2 3.1 9.6 6 4.3 2.8 8.2 5.2 8.7 5.2.4 0 2 .5 3.6 1.2 4.1 1.7 8.3 1.8 8.3.3 0-.7.6-1.5 1.3-1.8.9-.3.8-1.3-.6-4.3-1.7-3.9-1.7-3.9.2-1.7 1.1 1.3 2.3 2.3 2.8 2.3.4 0 2.1-3.3 3.7-7.3 3.8-9.2 7.6-17 8.2-16.5.2.3-.7 3-2.1 6.2-1.4 3.1-2.5 6.1-2.5 6.6s-1.1 3.4-2.5 6.4c-2.3 5.1-3.3 8.7-1.9 7.3.3-.3 2.3 0 4.3.8 2.1.7 4.3 1 4.9.6 2.3-1.4 3.3-37 1.1-39.7-1.1-1.3-27-14.3-34.4-17.1-2.2-.9-4.4-2-4.9-2.5-2.4-2-3.3-.7-3 4.4.3 4 .1 4.7-.5 2.8-.5-1.4-.9-3.7-1-5.3-.1-3.4-1.1-3.4-9.6.7M790.2 285.7c-.5 1-1.5 3.6-2.2 5.8s-1.6 4.4-2 5c-2.4 3.3-6.1 17.5-4.5 17.5.5 0 11.4-5.4 24-11.8 4.4-2.3 8.5-4.3 9-4.6.6-.2.1-1.1-1-2-1.9-1.6-20.9-11.6-21.9-11.6-.3 0-.9.8-1.4 1.7M780 287.6c-3.6 1.4-12 5.2-18.8 8.5-6.7 3.2-12.7 5.9-13.2 5.9s-1.4.9-2 2c-1.3 2.4-.6 5.1 5.1 22.2 2.1 6.4 3.9 12.5 3.9 13.5.1 1.3.8.9 2.8-1.7 1.4-1.9 5.1-6 8.2-9 8.9-8.9 8.7-8.4 3.8-11.4-4.9-2.9-4.7-3.3.5-1.1 4.7 1.9 4.4 2 5.2-1.6.4-1.7 2.5-6.1 4.6-9.9 4.5-7.7 9-18.6 8.1-19.4-.7-.8-.9-.8-8.2 2M768.3 329.8c-11.7 12.6-13.3 15.2-9.4 15.2 1.9 0 10.7-6.7 10.4-7.9-.3-1.3 1.8-4.1 3.1-4.1 1.5 0 4.8-3.4 4.4-4.6-.1-.5.3-1.9 1-3 1.2-2.2.7-3.4-1.2-3.4-.6 0-4.3 3.5-8.3 7.8"/><path d="M697.7 338.6c-.8.8.3 5.8 1.4 6.2.5.2.9 1.7.9 3.2 0 1.6.5 4 1.1 5.3 1 2.3 1.2 2.3 6.7 1.2 3.2-.7 6.8-1.6 8.1-2 2.1-.6 2.3-.5 1.8 1.6-1.2 4.8-1.9 39.7-.8 40.3.6.4.7 1.5.2 2.9-.4 1.2-.8 4.2-.7 6.7.1 3.9.4 4.5 2.1 4.3 1.1-.1 5-.3 8.8-.4 3.7-.1 6.7-.3 6.7-.4 0-.2-.7-6.5-1.6-14.2-.8-7.6-1.7-15.8-1.9-18.3-.4-4.5-1.7-15.6-2-17.5-.1-.6-.3-1.7-.4-2.5-.3-2.6-1.8.9-2.6 6-.3 2.5-1 5.8-1.5 7.5-.4 1.6-1.6 6.6-2.6 11-3 13.4-5.7 17.9-3.4 5.4.6-2.9 1.1-7 1.2-9.1.1-2 .5-3.5 1-3.2.4.3.8.2.8-.3 0-.4.9-5.8 1.9-11.8 1-6.1 1.7-11.4 1.4-11.8-.3-.5-1.2-.6-2-.3s-3.1-.3-5.1-1.4-6.8-3.4-10.7-5.1c-3.8-1.7-7.3-3.3-7.6-3.5s-.9-.1-1.2.2M766.8 370.8c.5.9.7 2.5.3 3.5-.3.9-.3 5.2.1 9.5.3 4.2 1 11.2 1.4 15.5s1 8 1.5 8.2c.8.6 21.6-1 28.4-2.1 3.5-.6 3.7-.8 1.8-1.5-1.5-.5-2.3-1.7-2.3-3.2 0-1.6-1.3-3.6-3.7-5.6-2-1.7-3.3-3.1-2.9-3.1 1.6 0-6.9-8.7-9.3-9.5-1.5-.4-2.1-1.5-2.1-3.6 0-1.7-.4-2.8-1-2.4-1.2.7-5-3-5-5 0-.8-.6-1.2-1.3-.9-.8.3-2.6 0-4.1-.5-2.4-1-2.6-.9-1.8.7M759.2 383.5c-.2 5.7 2.3 23.8 3.4 25.7.8 1.2.9 2.6 1.4 15.3.3 6.3.4 6.6 1 3l.7-4 .2 4.2c0 2.4.6 4.3 1.1 4.3.6 0 1 1.5 1 3.2 0 4.4 3.2 9.4 6.4 10 1.4.3 2.7.4 2.9.2.5-.6-4.1-15.3-6.4-20.3-1.1-2.4-2.7-8.7-3.5-14-2.4-14.7-2.6-15.5-3.4-16.6-.5-.6-1.1-2.8-1.5-5s-1.1-4.5-1.5-5c-.5-.6-1-2.1-1.3-3.5-.2-1.4-.5-.3-.5 2.5M595.6 391.5c1.3 3.6 2.1 6.5 1.9 6.5-.3 0 .1 1.2.9 2.7 1.4 2.8 6.8 5 16.6 6.9 3.3.7 3.4.6 2-1.2-3-3.8-11.2-10.4-13-10.4-.6 0-.8-.5-.5-1 .6-.9-8.1-9.9-9.6-10-.4 0 .4 2.9 1.7 6.5M809.5 408c-.8 1.3 20.4 22 22.6 22 .5 0 1.2-.8 1.6-1.8.6-1.7 7.1-11.2 8.4-12.2 1.2-1 3-5 2.2-5.1-.4 0-1.5-.2-2.3-.3-3.7-.7-12.2-1.6-20.5-2.1-4.9-.4-9.5-.8-10.2-1s-1.5 0-1.8.5M644.5 410.1c-4.4.4-9.8 1-12 1.3-2.2.2-4.6.5-5.2.5-1.7.1-1.6 1.6 0 3.3 1.6 1.6 8.7 13.6 8.7 14.7 0 .5.6 1.3 1.3 1.9 1 .8 4.1-1.6 13-9.9 6.4-6.1 11.7-11.5 11.7-12 0-1-6.1-1-17.5.2M717.5 410.4c-1.8 1.3-1.8 1.4.1 4.2 1 1.6 2.4 3.6 2.9 4.5 1.5 2.4 10.1 14 12.5 16.9l2 2.5-.6-3.9c-.4-2.1-.3-4.1.2-4.5.5-.3.7-4.9.4-10.1-.5-9.4-.5-9.5-3.1-9.6-1.4-.1-4.8-.4-7.5-.8-3.5-.4-5.5-.2-6.9.8M653.9 473.2c-3.5 4-7.8 8.9-9.6 10.8s-3.3 3.8-3.3 4.2c0 .3 5 3.2 11 6.2 6.1 3.1 12.9 6.8 15 8.1 4.7 2.9 6.4 3.2 5.7.7-5.1-17.4-7.8-26.4-8.7-28.6-.5-1.4-.6-2.6-.2-2.6.7 0 2.7 4.1 3.5 7.5 2.1 8.2 7 22.4 7.7 22 .4-.3 1.1-1.6 1.4-3.1.4-1.4 1.8-4.3 3.1-6.5 1.4-2.1 2.5-4.6 2.5-5.5 0-2.2-18.9-20.4-21.2-20.4-.3 0-3.4 3.3-6.9 7.2M364.2 132.5c-7.8 8.9-12.4 15.4-11.6 16.6.4.7.3.9-.4.6-.5-.4-2.9 1.7-5.3 4.5-2.4 2.9-5 6.1-5.8 7.1-1.3 1.6-1.3 1.7.3 1.1 3-1.1 6.8-5.2 6.1-6.4-.4-.7 0-1 1.1-.8 1.3.2 1.8-.2 1.6-1.4-.1-.9.3-2 .9-2.4.8-.4.9-.3.5.4-.5.8.2.8 2.5 0 2.6-.9 3-1.5 2.7-3.9-.4-2.4-.2-2.7 1.4-1.8 1.1.6 2.2 1.7 2.5 2.5s1.2 1.3 1.9 1c.8-.3 1.4-.1 1.4.3 0 .5.9.7 2 .4s2.6-.1 3.3.5c1.8 1.5 5.4.4 6-1.8.3-1.2 1.8-2.1 4.2-2.6 2-.3 3.9-1.3 4.2-2.1.3-.9 1.4-1.3 2.5-1 1.4.4 2.2-.2 2.9-1.9 1.3-3.7 1.1-4.4-1.3-4.4-1.6 0-1.9-.3-1-.8 1.5-1-4-3.8-9.4-4.7-2.2-.4-4.9-1.3-6.1-2.1s-2.4-1.4-2.7-1.4c-.2 0-2.2 2-4.4 4.5M289.8 160.7c-1.8 3.2-5.5 10.1-8.2 15.3-2.6 5.2-5.9 11.4-7.2 13.7-1.4 2.4-2.3 4.3-2 4.3.2 0 2.1-.9 4.3-2 2.1-1 6.7-3.2 10.3-4.8 20.6-9.3 29.6-13.5 30.5-14.1.6-.4 4.1-2 7.8-3.6 3.8-1.5 6.5-3.1 6-3.5-.4-.4-3.9-1.5-7.8-2.5-3.8-.9-11.5-3.2-17-5.1-5.6-1.9-10.8-3.4-11.7-3.4s-3.1 2.6-5 5.7M325 172.5c-1.4.8-4.3 2.1-6.5 3.1-2.2.9-5.5 2.4-7.3 3.3-2.9 1.4-3 1.6-1.3 1.9 3.6.6 2.3 1.9-1.9 1.8-2.1-.1-4 .3-4 .9-.1.5-.8 1.7-1.6 2.6-1.2 1.3-1.2 2.1-.3 4.2.7 1.5 1.6 2.4 2 2.1.5-.3.9.4.9 1.5 0 1.2.4 2.1.9 2.1.8 0 18.4-18.9 22.2-23.8 1.3-1.6 0-1.5-3.1.3M330.7 174.6c-.3.3-.3 1.3 0 2.2.4 1.5.3 1.5-.6.2-.8-1.2-1.3-1.2-2.3-.2-.6.6-.9 1.2-.6 1.2s-2.8 3.2-6.8 7.2q-7.5 7.2-6.9 8.7c.3.9.3 1.2-.1.8-1-1-6.4 4.2-5.9 5.7.3.6-.7 2-2.2 3-1.7 1.3-2.4 1.5-1.9.5.4-.8.1-.5-.6.5-.7 1.1-2.5 3.2-4 4.6l-2.8 2.6 6.5 3.9c3.6 2.2 8.4 5 10.7 6.2 2.3 1.3 4.6 2.7 5.2 3.3 1.7 1.7 2.3 1.2 3.4-3.3 2.2-8.5 2.5-11.3 1.1-10-2.1 2-2.8 1.5-1.6-1.1.7-1.3 1.5-2.2 1.9-2 .7.5 1-.4.7-2.2 0-.4.3-1 .8-1.3 1.1-.7 4.5-13.5 4.7-17.6.1-2.4-.4-3.1-2.1-3.3-3.3-.5-2.8-2.2.7-2.2 2.5 0 3-.4 3.6-3.5.6-3.5.3-5.1-.9-3.9M281.3 191.7c-8.9 4-10 4.8-8.3 5.7 1 .6 6.1 3.7 11.2 6.8l9.3 5.7 1.8-2.1c1-1.2 1.7-3.5 1.6-5.7-.2-5.4-2.1-13.1-3.3-13.1-.6 0-.4-.5.4-1 1.2-.8 1.2-1-.5-1-1.1 0-6.6 2.1-12.2 4.7M271.4 201.2c.6 2 1.5 8.1 4.2 29 .4 2.7 1 4.8 1.4 4.8.3 0 4.1-5.2 8.3-11.6l7.7-11.7-7.3-4.5c-3.9-2.4-8.4-5.3-9.9-6.3-3.7-2.6-5.2-2.4-4.4.3M267.6 208.7c-.2 1-.7 4-1.1 6.8-.7 6.1-2.2 14.2-4.1 21.5-.8 3-1.4 6.4-1.4 7.7v2.2l4.3-2.4c6-3.5 6.9-3.1 1.3.6-2.9 2-4.5 3.7-4.2 4.5s.1 2.4-.5 3.7c-.8 1.7-.6 4.2.8 9.7l1.9 7.4 2.7-6.4c1.4-3.6 2.9-8.1 3.3-10 .3-1.9 1.3-4.7 2.1-6.3 2.7-5.3 2.1-16.9-1.8-35.5-1.1-5.3-2.4-6.6-3.3-3.5M290.1 219.7c-1.9 3.2-5.2 8.2-7.4 11.1s-3.7 5.5-3.4 5.8 2.2.1 4.1-.6c2-.6 4.8-1.3 6.3-1.5 3-.4 26.6-6.5 27.1-7 .9-.8-19.8-13.5-22-13.5-.7 0-2.9 2.6-4.7 5.7M353.9 225.4c-.2.2-5.6.9-11.9 1.5s-13.5 1.4-15.9 1.7l-4.3.7.7 5.1c.4 2.8.9 13 1 22.6.3 22.7 1.5 43.1 2.6 42.4 1.7-1 36.9-71.8 36.9-74.1 0-.4-8.6-.4-9.1.1M313 231c-2.2.7-25.3 6.2-31.7 7.6-3.2.6-2.8 1.4 2 5 5.9 4.3 19.4 13.4 20 13.4.7 0 4-5.9 5.7-10 .8-1.9 3.1-6.2 5.2-9.4 5.1-7.9 4.9-8.6-1.2-6.6"/><path d="M316.4 238.2c-1.5 2.9-3.9 7.3-5.1 9.8-1.3 2.5-3.3 6-4.4 7.9l-2 3.4 3.5 7.4c3.6 7.5 4.8 11.5 2.3 7.8-.7-1.1-2.4-4.8-3.7-8.3-2.7-6.9-3.6-7.3-9.8-4.6-7.3 3.1-8.2 3.4-8.2 2.4 0-.6.4-1 1-1 1.9 0 10.9-4.4 10.5-5.1-.3-.4-4.4-3.3-9.3-6.5-4.8-3.2-9.6-6.6-10.6-7.6-3.1-2.8-4.1-2.2-6 3.9-1 3.2-2.4 7.1-3.1 8.8-.7 1.6-1.8 4.8-2.5 7s-1.6 4.4-2.1 5c-.5.5-.9 1.6-.8 2.5 0 1 .2 1.1.6.2.2-.6 1.7-1.2 3.1-1.2 3 0 9.8-2.2 14.4-4.6 1.6-.9 3.2-1.3 3.6-1 .3.3.3.7.1.9-.7.6-9.2 3.9-15.8 6.2l-6.4 2.3 4.2 2.2c2.3 1.1 5.8 3 7.7 4.1 6.6 3.7 40.9 20.7 43.2 21.4l2.3.7-2.7-5.4c-3.2-6.3-8.5-19.1-8-19.5.3-.3.9.8 6.2 12.4 2 4.6 4.2 8.3 4.7 8.3.6 0 .7-3.3.3-8.8-.6-8.4-2.5-47.9-2.6-53.5 0-4.1-1.5-3.3-4.6 2.5M268.4 278.7c.4 1 3.4 6.4 6.8 12.1 5 8.4 6.4 10.1 7.9 9.7 1.2-.4 2.1-.1 2.5.9.9 2.3 2.3 2 1.7-.4-.9-3.4 1.2-2.2 2.6 1.5.7 1.9 1.6 3.3 2.1 3s5.8-.6 11.9-.8c6.5-.1 11.5-.7 12.1-1.3.9-.9-2.3-2.9-12.2-7.9-7.3-3.7-18.4-9.5-24.7-12.7-8.4-4.4-11.2-5.5-10.7-4.1M264.1 282.8c-.7 2.6-1.9 7.2-2.6 10.2s-1.6 6.2-2 7.2c-.7 1.6.7 2.1 13.1 4.2 1.8.3 4.4.8 6 1.2l2.8.7-3.1-5.4c-1.6-3-4.7-8.6-6.8-12.4-6.1-11.2-5.9-11.1-7.4-5.7M929 163.5c0 .3 4.1 6.1 9.2 12.8 13.8 18.3 17.8 23.6 23.8 32 3 4.2 6.1 7.6 6.8 7.7.7 0 1.1.4.8.8-.5.8 8.1 14 10.9 16.9 1.1 1 1.8 0 4-6 1.5-3.9 5.6-14.6 9.2-23.5 3.5-9 6.7-17 6.9-17.6.3-.9-2.1-2.1-7.3-3.6-4.3-1.2-19.1-6-32.9-10.5-25.8-8.5-31.4-10.1-31.4-9M1007.5 190.6c1.3 2 19.9 25.2 29 36l2 2.4 4.5-5.5c2.5-3 4.5-6 4.5-6.6 0-1.1-18.8-14.2-35.9-25.2-5.4-3.4-5.7-3.5-4.1-1.1M1001.8 190.1c-15.3 37.7-18.5 46.1-17.5 46.4 2.5.7 31.4 6.5 32.5 6.5 1.6 0 1.5-2.9-.4-8.1-.8-2.4-3.9-12.7-6.9-22.9-6.4-22.2-7-23.8-7.7-21.9M1005.5 193.7c.7 2.1 3 9.4 5 16.3 5.2 17.8 9.7 32.4 10.1 32.9s15.1-11.1 15.7-12.5c.5-1-29.6-39.5-31.4-40.2-.4-.2-.2 1.4.6 3.5"/><path d="M1043.5 224.7c-2.2 2.6-4 5.5-3.9 6.5q0 1.8-.9.9c-1.6-1.6-16.7 11.1-16.7 14 0 1.8 11.1 23.4 13 25.3 1 1 15-12.2 15-14.1 0-.6-6.1-3.2-13.5-5.9s-13.5-5.2-13.5-5.5c0-.6 20.8 6.4 24.1 8.1 1.1.7 2.3 1 2.5.7.2-.2-1.8-4.8-4.6-10.2-2.7-5.3-5-10-5-10.3 0-1.2 2.8 3.3 6.4 10.5 2.1 4 4 7.3 4.2 7.3.5 0 .1-7.5-1.2-24.8-.3-3.9-.9-7.2-1.2-7.2-.4.1-2.5 2.2-4.7 4.7M983 238.4c0 .6 6.8 15.2 16 34.1 4.5 9.3 10.5 21.7 13.3 27.5l5.1 10.5.7-11.5c.3-6.3.8-21 .9-32.5l.2-21-4.8-1.2c-6.8-1.8-28.7-6.3-30.2-6.3-.6 0-1.2.2-1.2.4M1020.6 254.1c-.3 2.4-.7 15.8-.9 29.8-.3 19.7-.1 25 .9 23.7.6-.9 4-8.9 7.4-17.9l6.2-16.2-4.8-9c-2.6-5-5.5-10.3-6.5-11.9l-1.7-2.9zM1044.2 266c-3.9 3.8-7.2 7-7.2 7.3s2 1.7 4.5 3.1c2.5 1.5 4.5 2.9 4.5 3.2s-2-.6-4.4-2c-5.2-3.1-6.4-3.2-7.3-.9-.3 1-3.5 9.2-7 18.2-3.5 8.9-6.3 16.5-6.1 16.7.4.3 25.2-13.7 33.1-18.8 5.5-3.5 5.9-5.6 2.8-14.7-1.1-3.1-2.7-8.6-3.8-12.2l-1.8-6.7zM1049 297.7c-4.7 3-12.7 7.7-17.8 10.5s-9.2 5.2-9 5.3c.2.2 5.7 1 12.3 1.9 6.6.8 13.4 1.8 15.1 2.2 2.8.5 3.1.3 4.2-3.3.6-2.1 1.8-7.2 2.7-11.3.8-4.1 1.8-8.3 2.1-9.3.8-2.5-.2-2.1-9.6 4M1019.5 316.3c-.6.7-1.6 2.8-2.2 4.7l-1.2 3.5.5-4.4.5-4.3-3.3 2c-1.8 1.1-10.6 5.6-19.5 10.1-9 4.5-16.3 8.5-16.3 8.9 0 .5 23.9 13.1 30.1 15.9.4.1 1.5-2.9 2.5-6.7s1.9-6.8 2.1-6.6c.2.1-.1 3.2-.6 6.7s-.7 6.5-.6 6.7c.2.2 3.1-.2 6.4-.9q6.15-1.2 7.2-3c.5-1.1 1.9-1.9 3-1.9 1.5 0 1.9-.5 1.6-1.8-.3-.9-.8-3.1-1.1-4.7l-.6-3 1.7 3.2c2 4 5.9 4.5 7.2 1 .5-1.2.6-2.6.3-3.1s-.1-.6.5-.3c.6.4 1.9-.4 3.1-1.6 3.8-4.1 11.2-16.1 10.4-16.9-.6-.6-29.4-5.1-30.6-4.8 0 .1-.6.6-1.1 1.3M1058.9 317.3c-5.1 2.4-8.7 6.7-14.3 17-2.6 4.5-3.3 6.5-2.2 6.1.9-.3 1.6-1 1.6-1.6 0-.5 1-.8 2.3-.7 1.2.2 2.8 0 3.5-.4.6-.5 1.2-.5 1.2 0 0 .4.5.1 1-.7s1.1-4.4 1.2-8l.2-6.5.5 8 .6 8 5.7-11.5c3.2-6.3 5.8-10.8 5.8-10 0 .9-2 5.5-4.5 10.3-5 9.7-5.5 12.2-2.5 12.4 1.1.1 2-.3 2-.9s.8-1.7 1.8-2.5c.9-.8 1.1-1.1.3-.7-1.1.5-1.3.3-.8-1 .4-1 .7-2.1.7-2.6s.7-1.5 1.5-2.3c2-2 3.7-12.9 2.1-13.9-1.6-1.1-2.5-.9-7.7 1.5M977.1 345.3c.9 9.8 2.9 25.9 3.4 27.5.3.8 3-.6 7.7-3.9 11-7.9 14.8-11.1 14.2-12.1-.3-.5-.1-1.5.5-2.2 1.5-1.8 1.2-1.9-13.9-9.9l-12.5-6.6zM994.7 366c-7 5-12.7 9.3-12.7 9.6s27.5 18.9 33.6 22.6c.9.6.9-.7-.1-5.5-1.9-8.8-6.6-33-6.7-34.5-.1-.6-.4-1.2-.8-1.2s-6.4 4.1-13.3 9M1012.1 367.7c1 4.8 2.6 13.4 3.5 18.9 2.1 13.2 2.5 13.7 6.4 9.9 1.8-1.7 4.5-4.7 6.2-6.8l3-3.7-9.2-12.1c-5-6.7-9.4-12.7-9.7-13.5s-.9-1.4-1.3-1.4.1 3.9 1.1 8.7M1066 379.3c0 .5.7 2.2 1.6 3.9s2.9 6.3 4.5 10.1c3.1 7.7 1.8 7.6-1.6 0-1.1-2.7-3.1-6.7-4.3-9-2-3.9-2.4-4.2-4.6-3.2-2.8 1.3-3.2 3.3-4.2 20-.5 9.3-.4 11.8.7 12.7 2.3 2 32.9 22.3 32.9 21.8 0-.2-2.9-6.4-6.4-13.7-5.9-12.6-7.6-16.4-8.1-18.2l-.5-1c-.1-.1-.4-1.1-.5-2.3-.4-3.9-9.5-24-9.5-21.1M1057.5 418.7c1.5 5.7 1.7 9.6.6 8.8-.9-.5-1.1 1.3-.9 6.7l.3 7.3 7.5-.3c7.9-.3 25.2-2 25.7-2.6.4-.4-5.4-4.9-8.3-6.4-1.1-.6-6.9-4.5-12.9-8.6-5.9-4.2-11.2-7.6-11.7-7.6-.6 0-.7 1.1-.3 2.7M1079 441.6c-.8.1-5.5.6-10.4.9-10.2.8-10.1 1.1.3 6.9l6.3 3.6 5.2-3c2.8-1.6 6.7-4.3 8.6-6l3.5-2.9h-6c-3.3.1-6.7.3-7.5.5M217.1 342c-.1.3-.3 5.1-.5 10.7-.4 9.2-.8 10.9-4 17.4-2 4-3.6 7.8-3.6 8.5s-1.8 5.5-4 10.6c-4.5 10.3-5 15.8-.6 6.3 1.5-3.3 6.2-12.9 10.3-21.4 4.8-9.7 7.5-16.5 7.5-18.6 0-2.7-4.8-15.3-5.1-13.5M207.5 393.7c-.9 2.1-1.4 4.6-1.1 5.5.2 1.1-.1 1.8-.9 1.8-1.9 0-2.7 3-1.4 4.7 1 1.1.8 1.5-.9 2-2.4.6-3 3.3-.8 3.3.8 0 2.1.6 2.8 1.4.8.7 3.9 1.5 7.1 1.8 5.2.4 5.8.3 7.3-2 1.2-1.8 1.4-3.6.9-6.7-.5-3.8-.4-4.4 1.5-5l2.2-.7-2.4-2.5c-1.8-2-10.9-7.3-12.5-7.3-.1 0-1 1.7-1.8 3.7"/></svg>