<svg xmlns="http://www.w3.org/2000/svg" width="1706.667" height="960" viewBox="0 0 1280 720"><path d="M0 267.4c0 213 .3 267.5 1.3 267.9q1.5.6 0 .6C.3 536 0 555.1 0 628v92h269.5c256.1 0 269.4-.1 268.9-1.8-.5-1.6-.5-1.6.6.1 1 1.6 19.8 1.7 371 1.7h370V0H0zM682.3 50.1c.8 1.1 3.9 4.6 6.8 7.7 5.6 6 9.1 9.8 17.4 19.7 15 17.8 25.7 29.5 27.1 29.5.5 0 8.5-7.2 22.6-20.2 7.3-6.8 8.8-9.8 4.9-9.8-.9-.1-2.7-.8-4.1-1.6-1.6-1-1.8-1.3-.5-.8 1.1.4 3.4.9 5 1.2 3.8.6 13 8.4 15.1 12.7.8 1.8 4.1 6.3 7.2 10s7.8 9.7 10.4 13.4c2.7 3.6 5.4 7.3 6 8.1 4.3 5.1 6.8 9 5.9 9-.6 0-1.1-.3-1.1-.8 0-.4-1-1.8-2.2-3.2-1.3-1.4-4.1-5-6.3-8-7.3-10-8-10.8-14-18.2-3.3-4-7.1-9-8.5-11-1.3-2-2.7-3.6-3-3.6-3.1.3-4.9-.5-5.4-2.5-.6-2.1-.8-2-4.9 2.3-2.4 2.5-8.9 8.7-14.5 13.8s-10.2 9.7-10.2 10.3c0 1.1 2.6 1.6 12.3 2.4 4.2.4 7.7 1 7.7 1.4s-2.6.4-5.7 0c-8.5-1.1-13.3-1-13.3.1 0 1.6 37.9 44.8 40.7 46.4 1.4.7 1.5.1.9-5-.3-3.3-.8-8.4-1.1-11.4-.2-3-.7-9.1-1.1-13.5-.3-4.4-.7-8.9-.8-9.9-.1-2.5-1.7-3.2-11.1-5l-8-1.5 7.5.6c4.1.3 8.7.6 10.1.7 1.5.1 3.5.8 4.5 1.7 2.3 2 19.1 12.9 20 12.9.3 0 3.3 1.6 6.6 3.5 5.8 3.5 8.1 3.9 6.1 1.3-1-1.3-3.3-8.8-3.3-10.4.1-.5 1.3 2.2 2.8 6.1 1.7 4.4 3.5 7.4 4.9 8.1 1.5.7 1.9 1.4 1.3 2-.7.7-.5 2.7.4 6 1.3 4.6 3.1 32.2 2 31.1-.3-.3-.9-5.9-1.4-12.4-.4-6.5-1.4-13.4-2.2-15.3l-1.4-3.4-2.2 8.4c-1.1 4.7-2.7 11.5-3.3 15.2-.7 3.8-1.6 6.8-1.9 6.8-.6 0 3.7-23.6 5.5-30.3l.7-2.8-4.8 3.1c-2.7 1.6-6.2 3.8-7.8 4.8-4.8 2.9-17 11-18.4 12.2-1.6 1.5 2.8 6 13.1 13.4 8 5.7 9.7 6.5 9.7 4.4 0-.6.2-.9.4-.7.3.3 0 2.2-.5 4.4-.6 2.2-1.9 8.5-3 13.9-1 5.5-2.1 10.1-2.4 10.4-1.4 1.5-1.3-1.3.5-9.4 3.6-15.9 3.7-14.5-1.3-18.9-5-4.5-13-10.3-15.1-11.1-2.3-.9-2.8 6.2-2.1 29.2.6 16.1 1.1 21.9 2.1 22.9.9.9 1 1.6.4 2s.4 3.3 2.4 7.3c1.9 3.7 3.8 7.9 4.1 9.4.4 1.6 1.1 2.8 1.5 2.8s1.1 1.2 1.6 2.7c.7 2.4.9 1.8 1.5-3.7.4-3.6.7-9.4.8-13s.6-7.2 1.2-8c.7-1.1.8 3.2.4 14.5l-.7 16 3.2 4.3c1.7 2.3 4.2 4.8 5.5 5.4 1.4.6 2.5 1.5 2.5 2s-1.1.1-2.5-.8-2.8-1.4-3.1-1.1c-.7.7 10.5 19.1 14.1 23.3 1.4 1.6 2.5 3.6 2.5 4.5 0 2.7 2.3 3.9 7.5 4 2.7.1 3.9.3 2.5.6-8 1.2-9 1.5-9 2.8 0 .8-.4 1.6-.9 1.9-.4.3-.6-.5-.4-1.8.4-2-.2-2.6-5.6-4.6-3.4-1.2-6-2.5-5.7-2.7.3-.3 2.5.3 5.1 1.2 6.7 2.6 6.7 2.8-.9-10.1-1.6-2.7-4.7-7.6-6.8-10.9-2.2-3.2-3.7-6.7-3.5-7.6.4-1.4-2.1-3.9-3.9-3.9-.6 0 0 9.1 1.2 21.3.6 5.6.8 6 4.1 7.4 4.2 1.7 3.9 2.6-.5 1.4-2.1-.6-3.4-.6-3.8.1s-.9.7-1.3 0c-1-1.6-29.2 8.3-31.4 11-1.8 2.2-1.8 2.3.3 4 1.2 1 3.3 1.8 4.5 1.8 1.3 0 3.5.4 5 1 2.1.8 2.7.7 3.2-.7.7-1.9 6.4-7.2 7.7-7.3.4 0-.3 1.5-1.8 3.4-1.4 1.9-2.6 3.9-2.6 4.4 0 1.2 2.4 2.2 5.5 2.2 1.2 0 3.9.7 5.8 1.5 2 .8 4.8 1.5 6.3 1.5 2.6 0 2.7-.1 2.1-4.8l-.6-4.7 1.9 5c1.1 2.7 2 5.6 2 6.2 0 2.2 1.8 1.4 4-1.8 2.9-3.9 3.6-3.1 1.2 1.2-2.3 4.1-1.9 5.4 2.3 9.6 1.9 1.7 3.1 3.3 2.9 3.5-.7.8 6.8 8.8 8.2 8.8.9 0 1.3-.4.9-.9-.3-.5-.1-1.2.4-1.5s1.1 1 1.3 2.9.1 3.5-.2 3.5c-1.4 0-3.9 7.7-4.5 13.5-.3 3.2-1.2 6.6-1.9 7.5-1.5 1.7-4.6 8.4-4.6 9.7 0 .5-2 2-4.5 3.2s-4.5 2.7-4.5 3.2-.7.9-1.6.9c-.8 0-1.3.4-1 .9.8 1.2-2.5 3.8-5.4 4.3-3.3.6 16.6-.2 20.6-.8 2.4-.3 3.3-1.2 4.3-3.9.7-1.9 1.8-3.5 2.5-3.5 2.2 0 2.6 1.3.9 2.5-1 .7-1.7 2.7-1.7 4.9-.1 2-.6 3.6-1.2 3.6-1.5 0-2.4 3.4-2.4 9.5 0 2.7-.5 5.7-1.1 6.5-.7 1.1-.8-.8-.3-6.3.7-8.2-.1-9.5-2.8-5-2.6 4.2-15.8 18.5-15.8 17.1 0-.7 2.1-3.6 4.6-6.3 2.5-2.8 6.4-7.4 8.6-10.3 2.2-2.8 4.5-5.2 5.1-5.2.7 0 .7-.3.1-.9-1.1-1-18.7 1.1-22.4 2.7-2.4 1-2.4 1.1-.2 1.1 4.2.2 1.1 5-3.3 5.1-1.7 0-1.7.2-.5 1 .9.6 1 1 .3 1-2.3 0 2.7 12.4 5.7 14 1.2.6 3.5.5 6.9-.4 7.2-1.9 6.4-.2-1 1.8-3.3 1-6.3 2.4-6.6 3.2-.7 1.8-3.3 1.8-3.3 0 0-.7-.9-1.6-2-1.9s-1.8-.1-1.5.3c.8 1.2-3.2 2.2-5.6 1.5-3.8-1.2-26.4-4.2-27.8-3.7-1 .4-.4 1.4 2.1 3.6 14.3 12.5 21.9 18.6 22.7 18.2.5-.3 3-3.7 5.7-7.6 2.6-3.8 4.9-6.8 5.1-6.6.5.4-1.9 4.5-6.4 11.1-2.5 3.6-3 5.2-2.3 6.5.8 1.5.6 1.7-1 1.3-1.2-.3-2.5-1.4-3-2.3-1.2-2.2-23.9-21.4-24.6-20.7-.3.2 0 5.3.6 11.3.5 6 1 12.2 1 13.8 0 5.8-.8 1.9-1.9-9.4-.6-6.3-1.6-13.2-2.2-15.4l-1.1-3.8-15 .6c-8.3.4-16.1 1.1-17.5 1.7-2.4.9-2.4.9-.6 3.4 1 1.3 2.3 2.5 2.8 2.5.6 0 2.6 1.4 4.4 3.1 3.2 2.9 4.3 3.1 8.2 1.5 2.2-.9 3.9 3.3 4.2 10.5.3 4.5 1.1 6.5 4.4 11.4C751 453.2 760 461.7 760 458c0-.5.6-.7 1.4-.4 1 .4 3.2-1.9 6.6-6.5 2.8-3.9 5.4-7.1 5.6-7.1.6 0-.2 1.4-4.3 7.1-1.8 2.6-3.3 5.1-3.3 5.7s-.6 1.2-1.2 1.5c-.7.2-1 .8-.6 1.2s4-.4 7.9-1.9 7.4-2.4 7.6-2.2c.5.5-2.8 2-11.2 5.3-6.8 2.7-6.9 3-2.8 8.2l3.7 4.6-4-3.8c-4.6-4.3-5.4-4.5-5.4-1.5 0 1.9-.2 2-1 .8s-2.6.2-9.5 7.2c-7.9 8.1-8.4 8.9-7.8 11.9.5 2.6.3 3.1-.9 2.7-1.7-.7-4.1 5.9-5.6 15.5-.7 4.9-.6 5.9.7 6.7 1.1.5 2.4.2 4-1.1 1.3-1 2.8-1.9 3.5-1.9.6 0 2.4-1.3 3.9-3l2.8-2.9-2.1-4.1c-2.3-4.4-1.8-5.2 1-1.8 3.8 4.5 3.5 7.4-.9 12.4-2.5 2.9-3.8 5.1-3.4 6.1.4 1.1.2 1.4-.5.9-.7-.4-1.2-.2-1.2.4s-.4.9-1 .5c-1.3-.8-7.2 1.8-9.4 4.3-1 1.2-1.6 2.8-1.3 3.7.5 1 0 1.5-1.3 1.5-1.1 0-2-.6-2-1.3 0-.6-3.6-3.2-8.1-5.6-4.4-2.3-7.8-4.5-7.5-4.8.2-.3 2.5.7 4.9 2.2 6.3 3.6 10.7 4.8 10.7 2.8 0-.8.9-2.7 1.9-4.2 1.1-1.4 2.2-4.9 2.6-7.6.4-2.8 1.2-5.8 1.7-6.7.5-1 .9-3.5 1-5.5.1-2.1.7-5.5 1.3-7.7 1-3.4.8-5.1-1.2-12-1.2-4.5-2.7-9-3.2-10.1s-1.8-5.2-2.9-9c-4.1-13.8-14-41-14.8-40.8-.5.1-1.3 2.1-1.7 4.5-1 5.6-1.6 7.2-2.3 6.5-.3-.3.2-4.1 1.2-8.3 1.5-6.8 1.5-9.1.6-16.5-.7-4.7-1.2-10-1.2-11.8 0-1.7-.4-3.1-1-3.1-.5 0-1-1.1-1-2.5 0-1.3-.9-4.8-1.9-7.7-1.1-2.9-2.3-7.6-2.8-10.3l-.8-5-.5 7c-.3 3.8-.2 11.5.2 17s1.1 17.6 1.7 27c.5 9.3 1.3 17.8 1.7 18.9.6 1.6.9 1.5 2-1l1.4-2.9-.4 4c-.2 2.2-.5 4.4-.6 5-.1.5-.2 2.5-.1 4.2.1 3.3.2 3.3 5.4 3.5l5.2.2-5.3.3c-5.3.4-5.4.5-4.7 3 .7 3 5.2 11 6.6 11.9s3.3-1.1 5.5-5.6c1-2.2 2.3-4 2.7-4 .8 0-2.1 5.5-4.8 9-4.1 5.5-4.1 5.9.8 25.2 2.5 10.1 4.9 20.5 5.2 23.3.4 2.7.9 6.3 1.2 8 .4 2.3.2 2.7-.6 1.9-.7-.6-1.9-5.6-2.7-11s-2.1-11.9-2.8-14.4c-.8-2.5-1.9-7.2-2.6-10.5s-1.7-7.3-2.3-8.8c-.5-1.6-.9-4.7-.9-6.9.2-3.1-.8-5.9-3.9-11.4-2.2-4.1-4.4-7.4-4.9-7.4-.4 0-3.2 2.9-6 6.5-2.9 3.5-5.7 6.2-6.2 5.9s0-1.3 1.1-2.2c2.9-2.6 8.1-10.3 7.6-11.3-.3-.4-3.6-.6-7.3-.4-3.7.3-7.9.5-9.5.5H683l3.2 3.3c6 5.9 6.4 7.2.7 2.4-5.9-5-7.2-5.6-6.3-3.2.4.8.1 1.5-.5 1.5s-1.1-.7-1.1-1.5c0-1.9-1.4-1.9-3 0-.7.8-1.7 1.5-2.3 1.5-.5 0-.2-.9.8-2 1.7-1.9 1.7-2-.1-2.1-5.4-.3-23.6 0-24.1.4-.2.3 0 1.5.7 2.6.6 1.3.7 2.1.1 2.1-1 0-2.7-3.9-2.3-5.3.1-.4-.2-.7-.7-.7-1.2 0-5.1 5.4-5.1 6.9 0 .6-.4 1.1-1 1.1-1.4 0-1.3-.6 1.5-5.6 2.9-5.3 11.8-30.9 11.3-32.6-.2-.6-1.9.7-3.8 2.8-6 6.6-29.2 30.6-35.7 36.9-3.5 3.3-6.3 6.6-6.3 7.2 0 .7 1.9 2.6 4.3 4.2 2.3 1.6 7.1 5.7 10.6 9 3.6 3.4 6.5 6 6.6 5.8 3.4-5.5 4.5-7.8 4.5-9.4 0-2.9 2.8-9.3 4.1-9.3.5 0 .7-.5.4-1-.3-.6-.1-1 .4-1 .6 0 1.1-.7 1.1-1.6 0-.8.4-1.2 1-.9.6.4.4 1.5-.5 2.9-.8 1.2-1.2 2.6-.8 2.9.3.4.1.7-.6.7s-1 .4-.6.9c.3.5.1 1.2-.5 1.6-1.8 1.1-1.1 2 1.5 2 1.4 0 2.6-.5 2.6-1 .1-.6.4.3.8 2 .3 1.6 1.3 3 2.1 3.1 4.2.3 4.3.4 3 1.9-1.3 1.6-.4 5.9 1.1 5 1.2-.8 1.2 4.1-.1 6.5-.6 1-.6 2.1-.1 2.4.7.5 3.3-8.8 4.9-17.7.8-4.2 2.5-5.4 3-1.9.2 1.2.7 2 1.2 1.7s3.1.3 5.7 1.4c2.6 1 6.4 2.3 8.3 2.8s3.4 1.5 3.3 2.1c-.2.8 1.9 1.2 6.6 1.2h6.9l.6 4.5c.4 2.4 1.1 4.7 1.7 5 .5.4 1.8 2.4 2.9 4.6 2.8 5.4 4.3 5 3.8-1.1-.1-2.8 0-5 .3-5s.5-1 .6-2.3c.1-4.6.3-5.7 1.3-5.7.7 0 1 2 .9 4.7-.3 6.9 1.1 16.1 2.6 17.3 1 .8 1.5 0 2.4-3.7.7-2.7 1.7-5.5 2.2-6.3 1.1-1.6 1-1.1-1.2 9-2 8.8-2.1 11-.9 12.5 1 1.2.9 1.5-.8 1.5-1.2 0-3.8.9-5.9 2-4.5 2.3-13 5-13.7 4.3-.2-.3-4.3-1.8-9-3.4l-8.5-3-7.3 4c-4 2.1-9.6 5.1-12.4 6.7l-5.2 2.7-9.1-7.9c-5.1-4.3-10.7-8.8-12.6-9.9-1.8-1.2-4.2-2.8-5.2-3.7-3-2.6-25.8-14.8-28.9-15.4-1.8-.3-3.4-1.5-4.1-3-1-2.2-.9-2.4.6-1.9 1.3.4 3.5-1.4 8.2-6.6 3.5-3.9 7.2-8.4 8.3-10.1 1-1.6 2.1-2.7 2.4-2.4.2.3-3.3 5.1-7.8 10.7-6.5 7.9-8 10.3-6.9 11 .8.5 3.9 2.2 6.9 3.8 3 1.5 9.3 4.9 13.9 7.5 4.6 2.5 8.6 4.5 8.8 4.2.6-.5-3.2-15.3-6.3-25-1.4-4.3-2.3-8.4-2-9.1.5-1.4-2.3-4.5-4.1-4.5-.6 0-1.3-.6-1.6-1.4-.9-2.4-19.9-7.7-20.9-5.9-.3.4-.4.3-.2-.3.2-1-7.2-4.6-14-6.8-1-.4-1.7-.9-1.4-1.1.2-.2 5.1 1.1 10.9 2.9 18.8 6.1 22.4 7.1 24.4 7 1.1-.1 2.3.3 2.7.9.3.6.9-1.2 1.3-3.9s1-6.3 1.5-7.9c1-3.3 3.1-30 2.9-35.3-.1-1.7-.6-3.2-1-3.2-.8 0-13.3 10.6-20.7 17.6-5.2 4.9-5.4 4 5.1 18.4 9.1 12.4 9.6 13.3 5.2 8.5-2-2.2-5.1-6-6.8-8.5-4.1-6-9.4-12-10.1-11.3-.3.3-2.4.9-4.6 1.3-3.6.7-4.3.5-6-1.7-1-1.4-2.2-3.4-2.6-4.5-.7-2.3 1.4-6.9 3-6.7.6.1 2 .1 3.1 0 1.7-.1 1.8-.3.5-1.4-.8-.7-2.7-3.1-4.2-5.4-3.4-5.2-6-6.9-11.8-7.8-2.5-.4-7.2-1.8-10.5-3-12.2-4.8-22.9-8.5-24.6-8.5-1 0-2-1.1-2.4-2.7-.3-1.5-2.2-4.4-4.1-6.5s-3.4-4.3-3.4-5c0-.6 1.4.8 3 3 1.7 2.3 3.4 4.2 4 4.2.5 0 1.1-2.4 1.3-5.3l.3-5.2.2 6.2c.2 5.8.4 6.3 3.9 9.2 3.4 2.8 10.9 6.1 14 6.1.7 0 1.3-.8 1.3-1.8.1-1.3.5-1.1 2.1 1 2 2.7 6.5 4.5 15.7 6.3l3.3.7-1.8-2.2c-1-1.2-6.2-6.6-11.7-12.1-9-9.1-9.8-9.6-9.2-6.6.4 1.7.9 4.8 1.2 6.7l.4 3.5-1.4-3c-.8-1.7-1.8-4.9-2.2-7.3-.4-2.6-1.1-4.2-2-4.2-1.1 0-1.2-.5-.5-1.8.7-1.4.1-3.5-2.5-8.8-1.9-3.8-4.8-10.4-6.5-14.7-1.8-4.2-4.5-9.8-6-12.2-1.6-2.5-2.9-5-2.9-5.6s-1-2.5-2.2-4.2l-2.2-3.2 2.6 2.4c1.6 1.4 3.2 2 3.9 1.5.9-.5 1-.2.6 1-.4 1-.1 1.9.8 2.3 1 .3 1.3 1.2 1 2.5-.4 1.1.2 3.3 1.4 5.4 1.2 1.9 2.1 3.9 2.1 4.4 0 .4 1.6 4.2 3.5 8.3s3.5 7.9 3.5 8.4c0 .6 1.3 2.8 3 5.1 2.4 3.3 3.7 4.2 7.2 4.7 8.6 1.3 9.8 1.3 9.8-.1 0-.8-.9-1.4-2-1.4-2.3 0-2.5-.9-.9-4.4 1.2-2.6 1.3-2.4-3.6-8-1.4-1.6-2.5-3.2-2.5-3.5-.1-6.5-4.9-21.6-7.7-24.5-.4-.3-.8-1.8-.9-3.2-.3-2.5-.2-2.5 1.5-1 1.7 1.6 2 1.6 3.5.1.8-.9 1.9-2.2 2.3-2.8.5-.7 3.4-3 6.6-5.1s5.6-4 5.3-4.3.3-1.3 1.3-2.2c1.8-1.6 2-4.1.6-7.4-1-2.3 0-2.2 2.3.3 2.4 2.6 3.1 1.9 7.7-8.6 3.6-8.4 4.6-8.9 1.9-1.1-2.5 7.3-2.2 7.5 7.4 6.1 10.8-1.5 11.8-2.3 9.1-7.7l-2.1-4.2 3.9 4.3c3.7 4.2 4 4.3 12 5l8.1.8.4-4.4c.2-2.4-.1-4.7-.7-5.1-1.5-1.3-28.7-9.2-29.3-8.6-.3.3.7 1.9 2.3 3.5 1.6 1.7 2.4 3 1.8 3s-2.6-1.7-4.5-3.9l-3.3-3.9-6 1c-8.5 1.3-19.5 5-19.5 6.5 0 1.7-.8 1.6-2.6-.2-.9-.8-1.1-1.5-.5-1.5s2.9-2.8 5.2-6.3c2.4-3.4 4.5-6.4 4.8-6.7 1.4-1.2 12.1-17.8 12.1-18.8 0-.6 1.2-2.5 2.7-4.3l2.7-3.2-2.3-1.8c-1.3-1.1-2.9-1.9-3.7-1.9-.7 0-1.5-.4-1.8-.9-.4-.5 1-.5 3.2 0 2 .5 4.1.9 4.5.9.9 0-.1-25.8-1.2-31.1l-.6-3.1-7.5 7c-11.4 10.6-20 17.5-20 16 .1-.7 1.8-2.4 4-3.8 2.1-1.4 7.9-6.4 13-11.3 10.5-10.1 10.9-9.3-5.5-12.2-9.5-1.7-15.2-3.4-11.5-3.5 1.6 0 19.5 3.3 24.2 4.5 3.1.8 2.4 1.8 8-12.5 3-7.7 7.8-23.2 7.8-25.1 0-.6.9-2.4 2-3.9 4.6-6.5-1.7-3.8-14.5 6.3-6.7 5.3-8.5 7.2-7.9 8.5 1.8 4.4 7.3 20.9 7.4 22.1 0 2.7-1.7-.3-3.5-5.9-2.4-8-5.6-16-6.4-16-.3 0-4.1 3.3-8.3 7.3-4.2 3.9-8.9 8.3-10.4 9.7l-2.8 2.5 3-3.7c1.6-2 5.7-6.2 9.2-9.3 8.4-7.7 8.8-8.4 6.3-14.8-4.4-11.6-15.7-34.7-16.9-34.7-.4 0-.8 6.6-.9 14.8-.1 8.1-.7 22.1-1.3 31.1s-1.1 18.5-1.2 21.2c0 5.5-1.5 6.7-2 1.7-.3-2.9-.7-3.3-5.1-4.4-6.8-1.7-6.9-2.4-.4-1.7l5.4.6.7-4.4c.3-2.4 1.1-11.8 1.6-20.9s1.2-20.7 1.6-25.8c.4-5.5.3-9.2-.2-9.2-.9 0-5.6 9.3-9 17.8-.9 2.4-1.8 4.1-2 3.9-.5-.5 4-11.6 7.2-17.9 1.3-2.5 2.8-6.6 3.4-9s1.3-5.2 1.6-6.3.9-4 1.3-6.5l.9-4.5.2 4.5c.1 2.5.2 5.1.1 5.7-.3 2 .8 1.6 12.4-4.3 6.1-3.2 15.8-8.2 21.8-11.2l10.7-5.5V95.9c0-8.8-.3-15.9-.6-15.9s-4.4 1.8-9.1 4c-9.5 4.5-12.6 5.3-4.8 1.4 5.8-3 12.8-7.6 13.3-8.7.2-.4 1.3-.7 2.4-.7s4.7-1.1 8.1-2.5c11.3-4.5 37-13.5 37.4-13.1.2.2-3.8 1.8-8.9 3.6-16.6 5.9-34.8 13.1-34.8 13.8 0 .4 3 2.3 6.8 4.2 3.7 1.9 12.1 6.6 18.7 10.3 6.6 3.8 14.5 8.2 17.6 9.8 5.3 2.6 5.8 2.7 7.1 1.1 3.3-4 7.8-11.3 12.5-20.2 6.4-12 15-26.7 16.2-27.4.9-.6-1.4 4.2-4.1 8.4C664 68.5 653 90.3 653 91.5c0 .6-.8 2-1.9 3.1-2.3 2.6-4.1 5.9-4.1 7.7 0 1.9 18.4 4.4 20.3 2.8 1.3-1 17.6-.9 19.3.2.6.3 10.4.8 21.9 1.1l21 .6-4.2-4c-2.4-2.2-4.3-4.3-4.3-4.5.1-.6-4.5-6.3-11.5-14.5-2.2-2.6-6.7-8-10-12s-8.9-10.4-12.5-14.3c-3.6-3.8-6.9-7.5-7.3-8.3-1.3-2.2 1-1.6 2.6.7M442.1 118c.6 0 .8.4.5.9s.1 1.2 1 1.5c.9.4 1.4.9 1.1 1.3-.4.3-1.3 0-2.2-.7-2.8-2.4-6.7.1-21.3 13.7-8.1 7.6-14.8 14-15 14.4s5.7.8 13 .8c7.2.1 13.4.4 13.7.6.2.3-5.5.5-12.7.5s-13.3.3-13.5.7c-.2.5.3 2 1.2 3.6 2.7 4.6 18 28.5 26.3 41 4.3 6.6 7.8 12.1 7.8 12.3s-.9.4-2.1.4c-1.1 0-1.7-.4-1.4-1 .3-.5-.5-2.4-1.7-4.3-1.3-1.8-5.1-7.6-8.6-12.8-3.4-5.2-6.7-10.1-7.3-11s-3.4-5.2-6.2-9.5c-3.5-5.3-5.3-7.3-5.5-6.2-.2 1-.8 1.8-1.3 1.8-.6 0-.7-.5-.4-1 .7-1.2.3-1.2-1.9-.4-2.3.9-2 2.3.7 3.4 1.8.8 1.6.9-1.8.7-3.7-.2-4 0-4.6 3.3-.5 2.3-.3 3.7.6 4.5 1.6 1.3 2.8 7.5 1.5 7.5-.6 0-1 .9-1 2s.5 2 1 2c.6 0 1 1.2 1 2.6 0 2.1-.4 2.4-2 1.9-1.5-.5-2.1 0-2.5 1.8-.4 1.4-1.8 3-3.1 3.6-2.3 1-2.5 1.5-2 6.6.4 4.3.3 5.5-.9 5.5-.8 0-1.8.6-2.2 1.4-1.1 1.9-5.9 3.1-6.7 1.7-1.1-1.8-3.3-1.3-3.9.9-.3 1.1-.1 2 .5 2 .5 0 .6.4.3 1-.9 1.4.6 1.3 13-1 10.6-1.9 14-3 9.7-3-1.5 0-2.2-.6-2.2-2 0-1-.7-2.3-1.6-2.8-2.4-1.3-1.3-3.4 2.1-3.9 8-1.2 8.7-.9 10 5.1.5 2.6.9 2.8 4.5 2.4 2.2-.2 4-.1 4 .2 0 .6-6.2 1.9-32.5 7-8.8 1.6-17.8 3.4-20 3.9s-6.8 1.5-10.2 2.2c-3.5.6-6.3 1.5-6.3 2 0 .7 5.1 4.9 21.1 17.2 2.7 2.1 4.9 4 4.9 4.2 0 .9-15.1-9.9-20.7-14.8-3-2.6-5.9-4.7-6.5-4.7-.8 0-.9 2.8-.4 9.2 1.3 16.7 2.5 45.1 2.4 53.8-.1 8.2-.1 8.1-.9-3.5-.4-6.6-1-15.2-1.4-19-.4-3.9-.9-14.2-1.1-22.9-.2-8.8-.5-16.1-.7-16.3-.6-.5-33.7 65.5-33.7 67.1 0 .7-1.1 3-2.5 4.9l-2.4 3.7 6.7 3.8c9.9 5.8 11.1 6.4 12.2 5.7.6-.3 1 0 1 .7 0 1.3 19.9 13.8 22 13.8.6 0 1.1-3.3 1.2-7.8l.2-7.7.3 7.5c.2 4.1.9 7.8 1.5 8.1.8.5.9 1.1.1 2.1-.6.7-1.3 4.4-1.7 8.3-.3 3.8-1 9.9-1.6 13.5-1 7-1.3 16-.5 16 .6 0 10.2-5.4 26.5-14.8 5.2-3.1 11.5-6.6 14-8 2.5-1.3 5.1-2.9 5.8-3.4.7-.6 1.2-.7 1.2-.1s-1.7 1.8-3.7 2.9c-2.1 1-5.1 2.9-6.8 4-1.6 1.2-8.4 5.2-15 8.9-23.4 13.1-23.6 13.3-15 15 2.2.5 3.3 1 2.4 1.2s-3.4-.2-5.5-.9c-4.3-1.5-8.8-.6-12.2 2.5-1 .9-2.1 1.7-2.4 1.7-1 0-29.6 17.8-31.8 19.7-.2.2.2.8 1 1.3s0 .7-2.4.5c-2.1-.2-6.7.5-10.3 1.6s-6.7 1.8-7 1.6c-.2-.3 2.2-1.3 5.4-2.2s6.4-1.8 7.1-2c.9-.3-.5-2-3.7-4.5-5.6-4.5-6.1-4.7-6.1-2.4 0 1.3-.5 1.2-2.6-.5-1.5-1.2-3.2-2.1-3.9-2.1-1.1 0-3.7 6.2-6 13.9-.7 2.2-.5 2.3 2.1 1.7 2-.4 2.4-.3 1.4.3-.8.5-3.3 1.2-5.5 1.6l-4 .8 2.2-1.9c2.1-1.9 4.5-7.7 5.7-14.4.7-3.4.5-3.3-7.5 5-4.5 4.6-8.8 9.9-9.5 11.7-.8 1.8-1.9 3.3-2.4 3.3-.6 0-1 .8-1 1.7s-.3 1.3-.7.9-.6-3.9-.5-7.9-.2-8.9-.6-11l-.7-3.8-5.5 7.1c-3 3.8-5.8 7-6.2 7-.5 0-.8.4-.8.9 0 .4 1.9 1.3 4.3 1.9l4.2 1.1-4.2-.5c-4.8-.6-5.3.2-2.7 4.2.9 1.3 1.4 2.7 1.1 3s-.8-.4-1.2-1.5c-.8-2.5-2.5-2.8-2.5-.4 0 3.2-1.5-.6-1.9-5-.1-.4-.9-.7-1.8-.7-1.1 0-1.4-.3-.7-.8 2.3-1.5 2.5-5.6.9-15.2l-1.8-9.8-2.8.8c-1.5.5-2.9.6-3.2.4-1.4-1.4-6.4 22-5.4 25.5.3 1.1 0 2.2-.6 2.4-1.2.4 17.4 38.7 19.8 40.7 1 .8 2.1 2.3 2.5 3.5 1 2.7 13 18.6 15.2 20.3 2 1.5 2.4 4.6.6 4-.7-.3-1.9-1.8-2.7-3.4-.7-1.6-2.6-4.3-4.1-5.9-1.5-1.7-4-4.9-5.4-7.3-1.5-2.4-3.3-4.5-4.1-4.9-.8-.3-1.5-1.1-1.5-1.9 0-.7-1.5-3.7-3.3-6.6-1.9-2.9-5.9-10.6-8.9-17s-6.2-12.7-7.2-14l-1.7-2.3.6 2.2c1.4 5.1 7.6 33.4 9.1 40.8.8 4.4 1.7 8.8 2 9.8.6 1.8.6 1.8 2 0 1.6-2.2 1.8-1.2.3 2.1-1.3 2.7.4 14.6 2.2 15.7.6.3 1.1 1.8 1.3 3.3.1 1.5.8 3.2 1.4 3.8.7.7 1.2 1.7 1.2 2.3 0 .5-.9-.1-1.9-1.5-1.7-2.2-2.1-2.3-3.8-1-1.6 1.4-1.7 1.4-.5-.2 1.2-1.5 1.1-2.9-.4-9.3-1-4.1-2-7.2-2.3-7-.7.8-5.1 17.7-5.1 20 0 1.1-.7 3.3-1.5 4.9-1.9 3.6-1.9 3.7.2 2.9 1.6-.6 1.6-.5.4 1-.7.9-1.1 2.3-.8 3 .3.9-.2 1.3-1.3 1.2-1.7-.1-3.6-1.4-14.9-10.8-2.5-2-5.2-3.5-5.9-3.2-.8.3-1 0-.6-.7 1.3-2.1 3.3-13.2 3.3-18.3l.1-5-1.8 4c-1 2.2-2.6 7.1-3.6 10.8s-2.1 6.6-2.4 6.3 1-5.8 2.8-12.1c2.1-7.5 3.6-11.1 4.1-10.3.6.8.9 0 .9-2.3 0-4.1-1.9-5.6-5.2-3.8-1.1.6-2.2.8-2.6.5-.3-.3.1-.6.9-.6.8-.1-2.2-1.4-6.6-3.1-17.8-6.8-22.7-10.4-22.4-16.9.1-2.3.2-2.2.8.5 1.3 5.3 2.9 7.2 6.6 7.9 2 .4 3.5 1.3 3.5 2.1 0 .7 1.4 1.6 3.1 2s6.3 2 10.2 3.6c3.8 1.6 7.2 2.7 7.5 2.4s-.4-1.5-1.6-2.8-2.2-2.8-2.2-3.3c0-.6-1.5-1.8-3.2-2.7-1.8-1-7.1-4.2-11.8-7.2-9-5.8-10.7-5.6-7.6.7.9 1.7 1.4 3.3 1.1 3.6s-1.2-1.2-2-3.4c-.9-2.1-2.2-5.2-3-6.9-.8-1.6-1-3.2-.6-3.5.7-.5 2.8-4.4 8.3-15.4 3.9-7.9 5.1-10.9 3.8-10.1-1.5.9-1.2-1.2.4-2.8 1.8-1.7 10.8-21.9 10.1-22.5-.2-.3-.9.8-1.5 2.3s-1.3 2.6-1.5 2.3c-.3-.3 2.7-7.2 6.7-15.4l7.2-14.9.4-10.2c.3-8.2.1-11.1-1.4-14.5-1.8-4.3-2.9-21.2-1.2-18.6.4.7.6-1.3.3-4.7-.4-5.6-.4-5.7.6-2 .6 2.2 1.1 5.9 1.3 8.3.2 3.6 1 5 5.1 9.2 5.5 5.6 6.6 6.1 5.8 2.7-.4-1.9-.2-1.8 1.5.7 1.2 1.7 1.9 3.4 1.6 3.8-.7 1 2.8 8.7 3.9 8.8.5 0 .5-.5.2-1-.3-.6 0-1 .8-1 1.2 0 2-1.2 4.5-6.3.2-.4-1.4-.8-3.5-.8l-3.8-.1 4.3-1.1c2.5-.6 4.2-1.6 4.2-2.4s-1.8-5.4-4-10.2c-3.9-8.3-10.4-16.6-12.2-15.5-.4.3-.7-3.9-.6-9.3s.3-8 .5-5.8c.7 7.7 1.1 8.7 3.4 7.4 1.1-.6 2.3-.9 2.5-.6.2.2-.7 1-2.1 1.7-3.8 2-3.2 5.2 1.6 9.4 2.3 1.9 4.7 3.3 5.3 2.9s2.9-1.8 5.1-3.2 4.9-3.1 6-3.7c2.8-1.6 2.6-2.4-2.2-7.8l-4.3-4.9-1.5 3.4-1.6 3.4.7-3.4c.7-3.6.2-3.6-4.1-.2-1.1.8-.1-.5 2.3-3 2.3-2.4 4.2-5.2 4.2-6.2 0-.9 1.2-4.2 2.6-7.4 4.7-10.7 7.6-18.4 7.1-19-.3-.3-1.5 1.3-2.7 3.6-1.1 2.3-2.3 4.1-2.6 4.1s1.1-3 3.2-6.7c3-5.5 3.5-6.9 2.5-8.5-.9-1.5-.8-1.8.8-1.8 2.3 0 2.3.1 5.7-17 3.2-16.6 5.1-25.7 6-29 .6-2.3.5-2.4-1.1-.9-.9.9-3.5 4.3-5.8 7.7-8.2 11.8-19.3 27.5-23.4 33.3-2.4 3.3-4.3 6.4-4.3 6.9 0 .6 2.1 1 4.7 1 5.9 0 5 1-1.3 1.4l-4.9.4-.6 8.8c-.5 8.5-.5 8.6-.9 2.9-.7-11.6-.7-17.7 0-16.5 1 1.6 1.5.6 3-6 .7-3 1.5-4.9 1.7-4.3.3.7-.1 2.9-.7 4.9-.7 1.9-1 3.7-.7 4 .2.2 2.9-3.3 5.9-7.8 7.9-12 16.3-24.2 23.1-33.3 5.4-7.3 5.8-8.2 5.3-12-.4-3-.3-3.5.4-1.8.9 2.2 3 3.2 3 1.5 0-.5 2.8-5.8 6.1-11.8 3.4-6 7.8-14.3 9.9-18.4 3.2-6.6 6-9.8 22.4-26.2 10.3-10.2 19.3-18.8 19.9-19.1.7-.2 1.8.2 2.5.9 1.1 1.2.9 1.4-.8 1.4-1.4 0-2 .7-2 2.2 0 1.8-.2 2-1 .8-1-1.7.4-2.9-20.8 17.7-8.4 8.2-13.3 13.6-12.7 14.1 1.9 1.8 35.1 10.9 36.1 10 .9-.9.5-14.8-.6-21.3-.5-3.3-.9-8-.9-10.5l.1-4.5.8 4.7c.5 2.5 1.1 8.2 1.5 12.5.7 9.6 1.6 16.7 2 17.2.2.2 1.7-1.2 3.3-3 14.7-17.2 24.8-28.5 25.4-28.7 1.8-.8.6-3.1-1.9-4-1.6-.6-2.2-1.1-1.5-1.1.7-.1 2.2.3 3.2.9 1.4.8 2.6.4 5.2-1.7 1.8-1.5 2.5-1.8 1.6-.8-1.6 1.7-1.6 1.9.2 3.5 1.1 1 4.1 2.3 6.8 2.9 2.6.7 8.8 3.1 13.7 5.3 5 2.2 12.5 5.4 16.8 6.9l7.9 2.9 2.8-2.4c11.2-9.3 28-25.2 28-26.3 0-1.6 3.9-3.4 5.8-2.7.8.2 1.8.4 2.3.4M961 139c1.7 0 2.1.3 1.2.8-1.2.8 4.4 7.3 27 31.6l5.7 6.1.1-3.9c0-4.9 1-4.2 1.4 1 .3 2.9.8 4 2.2 4.2 1.8.3 22.4-6.4 25.3-8.2 1-.6-.7-2.9-6.5-8.9-8.5-8.8-7.7-8.3 2.6 1.3 6.5 6.1 11.4 9 15.4 9 1.1 0 2.8.5 3.6 1.1 1.9 1.2-5.6.1-8.2-1.3-1-.5-1.8-.6-1.8-.3 0 .9 11.2 22.6 15.3 29.8 1.8 3.2 3.6 5.4 4 5.1.4-.4.7.2.7 1.4 0 3.4 7.1 20.9 14.1 34.7 2.4 4.9 2.2 3.8-3.4-15.5-7.8-26.9-12-40.5-12.8-41-.5-.3-1.1-2.5-1.5-4.9s-1.6-5.3-2.7-6.4-1.4-1.8-.6-1.5c1.5.4 4.6 6.1 5.2 9.3.2 1.1.8 2.9 1.3 4 2.6 5 15.9 51.2 21.3 74 3 12.4 3.8 52.1 1.5 72-1 9.6-1.5 18.6-1.1 25 .5 9.2 1 11 5.7 22.5 2.9 6.9 7 16.3 9.2 21s5.3 11.8 6.9 15.8 3.9 8.6 5 10.2c1.3 1.6 1.8 3.3 1.4 4.1-.5.8-.4 1 .3.5 1.2-.7 1.6.5 1.3 3.3-.2.7.2 1 .8.7 1.2-.8 2.5 6.8 1.8 11-.3 2.5-.4 2.4-.6-.9l-.1-3.9-4.7 3.4c-9 6.3-20.3 12.9-21.2 12.4-1.1-.7-10.7 1.2-13.4 2.6-1.8.9-1.8 1 0 2.5 1.6 1.3 1.6 1.4.1.9-1.1-.3-1.8 0-1.8.9 0 1.7 5 13.7 6.3 15 .7.7.7.3.2-1-.5-1.1-.9-4.3-1.1-7.2-.1-2.8-.5-5.7-.9-6.2-.4-.7 0-.8 1-.5 1.1.5 3-.6 5.6-3.2 2.1-2.1 3.9-3.3 3.9-2.7 0 .7-1.9 2.8-4.3 4.8l-4.3 3.6 1.4 6.2c.8 3.4 2.8 9.5 4.3 13.6 2.4 6.1 2.7 7.7 1.7 9.5-1.2 2-1.3 1.9-1.9-1.4-.3-1.9-.7-2.8-.8-1.9 0 .9-2 3.9-4.4 6.5-7.5 8.6-7.4 8.5-3.7 7.7 2.3-.4 3.1-.3 2.6.5-.4.6-1.3.9-2.1.5-.9-.3-1.5.1-1.5 1.1 0 1.9 3 2.1 5 .4 1.1-1 1.1-.9 0 .7-3.2 4.3-3.7 4.5-5 2-1.7-3.1-2.8-3.5-7.8-2.5-5.1.9-5.5-.1-.8-2l3.5-1.3-3.6-7.1c-4.1-8.3-13.7-18.3-18.4-19.3-2.1-.4-2.8-1-2.5-2 .4-.8.7-4 .8-7.1.1-5 .2-5.2.5-1.5.6 6.5.7 6.4 9-7.7l3.2-5.5-4.2-4.5-4.2-4.5 4.1 3.9c4.1 3.7 4.2 3.7 4.9 1.6 1.1-3.4.7-15.1-.6-16.6-.6-.7-1.8-1-2.7-.8-1.5.5-1.5.4.1-.9 2.4-2 3.6-6.5 3.1-12.3-.3-3.7-.2-4.3.5-2.4 1.3 3.5 1.3 13 .1 13-.5 0-1 .7-1 1.5s.5 1.5 1 1.5c.6 0 1 2.4 1.1 5.2l.1 5.3 1.3-4c.8-2.2 1.9-6 2.6-8.5.6-2.5 1.4-3.9 1.6-3.2.3.6-1 5.8-2.8 11.5-2.6 8.2-3.3 11.7-3.2 18.2.1 7 0 7.5-.8 4.1-.5-2.2-1.1-4.1-1.3-4.3-.3-.3-3.3 4.5-9.3 15.1-1.1 1.9-.7 2.6 4.5 7.3 3.1 2.9 6 5.2 6.5 5.3.6 0 .9-1.6.9-5 .1-.3-.2-3.1-.6-6.3-.3-3.2-.3-5.6.2-5.3 1 .6 2.8-6.3 3.8-14.2.3-2.9.8-5.1 1.1-4.8.3.2-.1 4.5-.7 9.5-1.4 9.7-.9 14.1 3.1 28.1 1 3.6 2 7.8 2.2 9.5.2 1.6.5-6.7.6-18.6l.1-21.6 7.8-1.7c4.2-.9 8.3-2 9-2.5 1-.6-1-2.2-6.5-5.4-6.7-3.8-7.9-4.3-8.5-2.8-.4.9-.7 1.1-.8.6-.1-.6-.6.1-1.1 1.5-.6 1.9-.8 1.3-.5-2.5.2-2.8 0-6.8-.4-9-.7-3.6-.8-3.7-.9-1-.1 1.6-.9 5.7-1.7 9l-1.4 6 .7-6c.4-3.3.7-9.6.8-14 0-4.4.5-8.9 1.1-10s1.4-3.4 1.7-5.2c.6-2.8.3-3.2-2.2-4.1-2.6-.9-3-.8-3.5 1.1-.3 1.2-.6 4.2-.6 6.6 0 9-1.2 2.9-1.4-7.6-.5-18.3-.6-18.9-1.5-17.4-.5.7-.6 2.2-.4 3.2.3 1 .2 2.7-.2 3.6-.7 1.6-1.2 3.3-1.6 6-.4 2.2.3 3.3 1.9 3.3 1 0 1.3.3.6.8-.6.4-1.5 1.8-1.9 3.2l-.9 2.5-.6-2.5c-.5-2-1.7-2.7-7-4.2-3.6-1-10.6-3.2-15.7-5-5-1.8-9.5-3-9.8-2.6-.3.3.8 3.5 2.6 6.9 3.5 7.2 2.8 7.3-1.1.1-1.5-2.6-3.2-4.6-3.9-4.4-.8.2-1.1-.3-.8-1.2.7-1.7-4.7-6.8-11.2-10.6-4.8-2.8-12.8-7.8-21.3-13.3-5.5-3.6-5.7-3.6-6.1-1.4-.3 1.8-.5 1.7-.6-.6l-.1-2.8-5.7.5c-5.7.6-5.8.6-1.9-.7 3.6-1.1 3.7-1.3 2-2.7-1.1-.9-3.7-2.5-5.9-3.5-2.2-1.1-5.8-3.2-8-4.6-9-5.9-30.4-17.9-31.9-17.9-.9 0-1.6-.5-1.6-1 0-.6.3-1 .8-1 1 0 8.9 4.2 21.9 11.7 7.8 4.5 11.8 6.3 13.2 5.8 1.4-.4 2.3 0 3.2 1.7 1.5 2.8 3.2 4.2 8.2 6.9l3.7 2-.5-3.8c-.3-2.1-1-8.1-1.5-13.3-.6-5.2-1.6-9.7-2.1-10.1-.6-.4-.8-2.1-.4-4.3.8-4.2-.3-6-4.9-8.2-2.3-1-2.5-1.2-.6-.7 6.6 1.7 6.4 2 7.2-12.2.4-7.2 1.2-19.3 1.7-27 .6-7.7 1.8-23.6 2.7-35.3s1.4-21.6 1.1-21.9-6.5 3.5-13.7 8.3c-7.3 4.9-14.8 9.9-16.8 11.2l-3.7 2.3 3.4-2.8c1.9-1.5 9-6.6 15.9-11.3s12.7-9 12.9-9.5c.2-.6-5.9-2.5-13.9-4.4C919 221.4 889.3 214 887 213l-2.5-1.1 2.5.6c1.4.3 13.1 3 26 6.1 12.9 3 27.6 6.3 32.5 7.4 5 1 12.1 2.8 15.9 3.9 3.8 1.2 7.2 1.9 7.4 1.6.9-.8-6.3-9.5-7.5-9-1.5.5-3.5-1.9-2.5-3 .4-.5.1-.5-.5-.1-.7.4-2.4-.4-4-1.8-3.3-3.1-7.5-3.6-6.7-.9.2 1-.1.8-.7-.5-.7-1.2-1.8-2.2-2.6-2.2-.7 0-1.3-.9-1.3-2s.7-2 1.5-2c1 0 1.5-1 1.5-2.9 0-1.6.6-3.1 1.3-3.4.6-.2-.1-.8-1.8-1.2-1.6-.3-4.3-1.3-6-2.1-1.6-.7-4.7-2-6.9-2.9-3.5-1.4-3.8-1.7-3.2-4.5.5-2.5.2-3-1.4-3-3 0-6-5.6-5.9-11 .1-5.6-.5-8.1-1.7-7.8-.5.2-.8.6-.6 1 .1.5-.5.8-1.3.8-1.1 0-1.4-.7-1.1-2.3.3-1.8-.2-2.5-2.8-3.3l-3.3-1-12.6 20.2c-7 11.1-13.2 21.4-13.8 22.8-.7 1.4-1.8 2.6-2.6 2.6-1.6 0-2 .7 6.5-12.6 10.1-15.8 24.2-39.8 24.2-41.2 0-.8-2-1.2-6.9-1.2-3.9 0-7.2-.4-7.5-.8-.2-.4 3.7-.8 8.7-.7 7.1 0 10.5-.5 14.7-2.1 3-1.2 11.5-4.3 18.9-7 10.4-3.7 13.5-5.3 14.4-7.1.7-1.6 1.4-2 2.1-1.3.5.5 2.1 1 3.6 1M461 309.5c.7.9 1.9 1.4 2.6 1.1s1.6-.1 1.9.4c.4.6 0 1-.7 1.1-1 0-1 .2.1.6 2.3.9 5.1 3.7 5.1 5.1 0 .7.6 2.3 1.4 3.5 1.4 2.2 3.7 11.4 3.5 14.5 0 1.5-.1 1.5-.8-.1-.6-1.7-.9-1.7-1.9-.4-.9 1.1-1 2.2-.2 4.1 1.5 4 1.3 10.9-.2 9.9-.7-.4-1.7-.8-2.3-.8-.5 0-1.2-1.4-1.5-3-.4-1.7-1.6-4.9-2.8-7.2-2.6-5-2.9-7.1-.8-5.4.8.7 1.8 2.7 2.2 4.4.9 4.6 3.3 8.9 4.5 8.1 1.3-.8.2-5.9-2.3-10.5-1.7-3-1.8-4.1-.9-7.5 2-7 1.4-9.6-2.7-13-2-1.7-4.7-3.4-6-3.8-1.2-.4-2.2-1.2-2.2-1.7 0-1.4 2.6-1 4 .6m387.6 55.3c.3 2.6 1.1 5.5 1.5 6.4.5.9 1.1 3.6 1.3 6 .5 5.6.5 5.5 1.7 3.8.7-1.1.9-.6.7 2s.1 3.5 1.2 3.5c1.2 0 1.7-2.5 2.6-12.3.6-6.8 1.6-12.8 2.2-13.4.7-.7 1.2-.9 1.2-.6 0 .8-2.3 19.5-4.1 33.3-1.2 9.5-3.1 15.5-4.8 15.5-1.4 0-1.5.7 1.4-7.3 1.8-5.2 2-6.7.9-6.3-.8.3-1.4.1-1.4-.3 0-.5.6-1.1 1.3-1.4 1.2-.5 1-.6-3.5-2.1-1.2-.3-1.5-1.1-1.1-2.2s.2-1.5-.4-1.1c-1 .6-2.7-2.7-2.4-4.6.1-.4-.3-.7-.8-.7-.4 0-2 2.6-3.4 5.7-1.8 4.1-2.8 5.3-3.2 4.1-.4-.9.4-3.6 1.6-6 1.7-3.3 2.4-6.5 2.7-13.6.2-5 .8-9.2 1.3-9.2s.9-1.2.9-2.6c0-4.1 1.8-1.7 2.6 3.4m-384.4 8.1c.2-.7 1.2 1.4 2.2 4.7 2 6.5 2.1 6.8 4.1 10.4 1.9 3.4.7 4.2-6 4.1-5.5 0-5.7.1-4.1 1.8 2.3 2.5 2 3.1-.8 1.8-3.5-1.7-8.6-15-8.5-22l.1-5.2.9 4c2.1 8.9 4.3 15.5 5.1 15.5.4 0 .8-.8.9-1.8 0-.9.2-2.6.5-3.7 1.3-6.1 1.6-11.3.5-11.9-.6-.4-1.1-1.7-1.1-2.9 0-1.8.6-1.3 2.9 2.1 1.6 2.5 3.1 3.8 3.3 3.1m19.3 26.6c2.7 8.2 4.5 11.3 4.5 8.1 0-.9.5-1.4 1-1.1.6.3 1 1.5 1 2.7 0 1.4-.5 1.8-1.6 1.4-1.2-.5-1.5-.2-1 1 .4 1.1.1 1.4-1.2 1.2-.9-.2-4.3.9-7.5 2.5-5.5 2.7-9.6 3-8.1.6.4-.7.9-3 1.1-5.3.2-2.2.8-4.5 1.3-5 1.8-1.8 1.1-3.9-.9-3.3-1.2.3-2.7-.3-3.6-1.3-1.6-1.7-1.3-1.8 4.7-1.7l6.3.2-.1-4.8c-.1-6.1.7-5.1 4.1 4.8m560.9 102.2c-2.7 4.3-5.3 8.1-5.9 8.5-1.1.8-.1 1.1 2.8.9.9-.1 1.7.3 1.7.8 0 .6-.8 1.1-1.7 1.1-1.3.1-.4 1.3 2.7 4.1 7.1 6.3 7.7 6.4 9.5 2.8 1.5-2.9 1.5-3.2-.2-4.5-1.7-1.2-1.6-1.3.9-1.4 1.4 0 3.3-.3 4.2-.6 1-.4 1.6-.1 1.6.9 0 .9.6 2 1.3 2.4.8.4 1.7 2.4 2 4.3s.9 4.6 1.3 5.9q.75 2.4-.3 1.8c-.6-.4-1.4-2.7-1.7-5.2-.4-2.5-1.2-4.5-1.8-4.5-1 0-.6 2.6.9 6.7.6 1.6.5 1.6-1 .4-.9-.7-1.7-2.6-1.7-4.2 0-3.3-.6-3.6-3.2-1.2-2.9 2.6-2.1 4.2 3.7 7 7.2 3.6 7.1 4.7-.2 1.7-3.3-1.3-6.7-2.1-7.8-1.7-1.1.3-5.5 4-9.7 8.2-4.3 4.3-7.8 7.5-7.8 7.1 0-.3 3.8-4.5 8.5-9.3l8.6-8.7-6.7-6c-3.7-3.2-7.1-5.7-7.6-5.4-1.5.9-.8-2.3.7-3.6.9-.7 3.7-4.8 6.2-9.1 2.6-4.3 4.9-7.6 5.1-7.4s-1.8 3.9-4.4 8.2m-829.1 13.4c3.1 2.4 5.3 2.6 13.7 1.5 5.4-.7 5.4-.7 2.7.9l-2.8 1.6 2.2 3c1.2 1.7 2.8 3.3 3.5 3.6.8.3 4.7-1.1 8.7-3.2 4.6-2.3 6.3-2.9 4.7-1.5-1.4 1.1-4.4 3-6.7 4.1-2.4 1.2-4.3 2.4-4.3 2.8 0 .3 2.6 3 5.7 5.9l5.8 5.3-5.3-4c-6.9-5.3-8.7-5.6-14.5-3.1-6.5 2.9-7.7 2.4-5.4-2 1.2-2.1 1.7-2.6 1.4-1.3-.7 3.3.9 3.7 4.8 1.3l3.5-2.2-2.2-3.1c-1.2-1.8-2.3-3.4-2.4-3.5-.1-.2-1 .9-1.9 2.5-1.6 2.7-1.6 2.4 0-2.6.7-2.2.5-2.3-1.6-1.8-1.3.4-3.6.7-5.2.7-2.9 0-4.1 1.9-5.2 8.3-.6 3.3-1.2 4.3-2 3.6-.2-.3.5-3.4 1.6-6.9l1.9-6.3-2.3-2.6c-2.2-2.4-4.8-7.3-4.7-8.9.1-.4.9.7 1.8 2.5.9 1.7 3 4.1 4.5 5.4m387.7 6.3c0 .8.9 2.4 1.9 3.7l1.9 2.4 2.2-2.5 2.2-2.5-2.1 3.1c-1.1 1.7-1.8 3.4-1.4 3.8.3.3 6.7.7 14.2.8s10.7.3 7.1.5-7.2.6-8 1c-1.3.5 16.8 3.7 27 4.7 1.9.2 8.5.9 14.5 1.5 6.1.6 14.4 1.4 18.5 1.7 6.7.5 7.3.4 5.7-.9-1.8-1.5-1.8-1.5 0-1.9 1-.2 3.8.1 6.4.6 5.6 1.1 39.4-1.7 47.8-4 9-2.5 8.8-2.4 7.1-3.4-1.2-.8-.9-1 1-1 5.9-.2 11.4-1.1 12.5-2 .9-.7 1.4-.6 1.8.4.4.9.2 1.8-.3 2.1-.6.4-1 1.6-1 2.8-.1 1.8-.2 1.9-1 .6-.6-1.1-2.1-1.5-4.7-1.3-5 .3-17.1 3.6-15.4 4.2.8.3 0 1-1.8 1.8-2 .8-4 1-5.4.5-2.5-.9-8.7.5-8.7 2 0 .5 1 1.3 2.3 1.8s2.9 1.6 3.6 2.4c1.8 2.2 6.5 1.4 9.8-1.7 1.5-1.4 3.3-2.6 4-2.6s1.7-.9 2.3-2 1.8-2 2.7-2 2.7-1 4-2.2 2.6-1.8 3-1.4-.7 2-2.5 3.4c-1.9 1.5-4.8 3.9-6.7 5.4-1.8 1.6-3.7 2.8-4.2 2.8-1.3 0-5.8 5.1-6.8 7.5-.5 1.3-.9 1.5-1.2.7-.7-1.8-2.6-1.5-9.5 1.7-3.5 1.6-7.6 3.2-9.3 3.4-1.6.3-9.2 2.1-16.7 4-13.1 3.3-14 3.4-19.5 2.2-3.2-.7-11.2-2.5-17.8-3.9s-15.2-3.8-19.2-5.2l-7.2-2.6-3.3 2.3c-3.1 2.2-3.2 2.2-1.4.1 1-1.1 1.6-2.5 1.5-3.1-.6-1.5-18.6-13.9-23.5-16.3-4-1.8-4.9-3.1-4.5-6.5.1-.6-.8-2.7-1.9-4.5-2.2-3.6-2.6-5.3-1-4.3.6.3 1 1.2 1 1.9m180.2 33c-1 1.4-3.9 4-6.3 5.8-2.4 1.9-5 4.6-5.6 6-1.1 2.2-6.3 6.7-6.3 5.3 0-.2-2.4 1-5.2 2.7-2.9 1.7-7.3 4.2-9.8 5.6s-6.3 3.7-8.5 5.3c-2.3 1.5-7.4 4.4-11.5 6.5s-7.9 4.4-8.3 5.1-1.2 1.3-1.7 1.3c-.8 0-10 7.3-28.8 22.8l-4.3 3.6 2.3 1.9c2.5 2 1.9 1.9-2.3-.2-2.4-1.2-3.1-1-8.2 2.3-3.1 2-6 3.6-6.4 3.6s1.7-1.6 4.7-3.5 5.5-3.8 5.5-4.4c0-.5-4.5-4.1-10-8s-12.5-8.8-15.5-11c-3.1-2.2-6.2-4.1-7-4.3s-2.1-1.1-2.8-2c-1.6-2.2-46.5-24.5-51-25.4-1.7-.4-2.9-1.1-2.6-1.5.3-.5-1-2.5-2.9-4.4s-3.3-3.5-3-3.5c.8 0 10.1 6.9 10.5 7.8.2.4 7.8 4.3 17.1 8.6 9.2 4.4 16.7 8.2 16.7 8.6 0 .8 4.5 2.9 7.1 3.4.8.2 2.7.8 4.2 1.4 1.6.7 3.7 1.2 4.8 1.2 1 0 1.9.5 1.9 1 0 .7 5.8 1 16.8.8l16.7-.3.6-7c.5-6.3.6-6.5.7-2 .1 2.7.5 6.1.9 7.4l.6 2.4 12.6-.6c6.9-.4 14.7-.9 17.4-1.3 4.6-.7 4.7-.8 4.8-4.3.2-3 .3-3.1.6-.9.2 1.6.6 2.8.8 2.8 1.5 0 11.3-5 18.4-9.4 4.8-3 11.6-6.8 15.2-8.6 3.5-1.8 8.5-5.4 11.2-8.1 2.6-2.7 5.1-4.9 5.5-4.9 1.4 0 9.7-8.3 10.6-10.5.5-1.3 1-1.5 1.3-.8s-.4 2.4-1.5 3.7M1203.5 675c.3 1.1 1.5 2 2.6 2 2 0 4.4 4.3 3.6 6.4-.3.6-.9-.5-1.5-2.4-.6-2.1-1.1-2.7-1.1-1.5-.1 1.1.6 4.1 1.6 6.7l1.6 4.6 1.7-3.1c1-1.8 2.6-5.8 3.6-9 1.3-4.1 2.3-5.7 3.6-5.7 1.6 0 1.4.9-1.6 9.2-1.8 5.1-3.6 10.9-4 12.9-.6 3.1-.9 3.6-3 3.2-1.9-.4-2.9-1.8-4.6-6.6-1.2-3.4-3.3-9-4.6-12.5-2.2-5.9-2.2-6.2-.4-6.2 1 0 2.2.9 2.5 2m24.3 5.8c3.1-1.1 8.5.8 13.4 5 1.2.9 1.9.6 3.6-1.8 4-5.3 11.5-4.6 19.5 1.9 1.9 1.6 2.4 5.7.5 4.5-.8-.5-.9-.2-.5 1 2.2 5.6 1.5 8.1-3 10.4-1.4.8-2.4.9-2.8.2-.3-.5-1.4-1-2.3-1-1.5 0-1.5.2-.2 1 .8.5 1.1 1 .7 1-1.5 0-5.1-2.2-9.7-6-3.8-3-5-3.5-7.5-2.9-1.6.4-2.5.7-2 .8.6.1-.3 1-2 2.1-2.4 1.5-2.6 2-1.3 2.5.9.4 2.6.1 3.8-.5 1.4-.8 2-.8 1.6-.1-.4.5-2.3 1.5-4.4 2.1-3.3.9-4.1.7-7.7-1.9-2.2-1.6-4.4-3.7-5-4.7-.5-1.1-1.1-2.1-1.3-2.4-.2-.2-.7.2-1.2 1-.6 1-.8.3-.7-2.2.1-2 .4-3.5.7-3.3s1.4-1.8 2.5-4.3c1.1-2.8 2.1-4 2.3-3.1.2 1.4.8 1.5 3 .7"/><path d="m590.4 95.6-.2 15.7 7.2-.7c3.9-.3 9.1-.8 11.6-1.1 2.5-.2 9.8-.9 16.3-1.6 7.2-.7 11.7-1.5 11.4-2.2-.2-.6-5.2-3.8-11.3-7.3-6-3.4-14.7-8.4-19.4-11.1-8.3-4.7-13.6-7.3-14.9-7.3-.3 0-.7 7-.7 15.6M612.8 111c-10.8 1-20.2 2.1-20.8 2.5-1.3.8-1.1 10.3.7 33.3.5 6.8.8 8 1.9 7.1.8-.6 1.4-1.7 1.4-2.4s1.2-2.1 2.7-3.1c5.8-4.2 18.6-16.5 17.4-16.8-.2-.1 1.6-2.1 4-4.6 6.1-6.2 15.9-17.1 15.9-17.6s1.2-.6-23.2 1.6M582 116.8c-16.1 8.2-34.9 18.4-35.8 19.5-.9 1 1.6 2.6 11.1 7.2C571 150 588.7 158 589.7 158c.8 0-.7-42.3-1.5-43.2-.4-.4-3.2.5-6.2 2M733.9 122.1c-.1 4.6-.2 11-.3 14.3-.2 4 .2 6 1.1 6.3.7.3 1 1 .6 1.6-.3.5-.2.8.3.5 1.7-1 5.4 1.1 5.4 3.1 0 2.2-.9 3-4.2 3.6-4.3.9-5 3.2-4.5 14.2.3 5.9.1 10-.4 9.7s-.9 3.2-.9 7.9c0 7.1.3 8.9 2.2 11.2 1.4 1.8 2.2 4.2 2.2 7.1.1 2.9.5 4.4 1.4 4.4.7 0 1-.5.7-1-.3-.6 0-1 .8-1 .7 0 2.8-1.7 4.6-3.8 1.9-2 6.9-7.5 11.2-12.2 11.2-12.2 11.9-13.1 11.2-14.3-.3-.6-.1-.7.5-.3s1.8-.5 2.8-1.9c.9-1.3 2.1-2.2 2.7-1.8.6.3.7.1.3-.5-.4-.7-.2-1.2.5-1.2 1 0 1-.3.1-1.2-1.5-1.5-1.6-3.2-.2-2.3.6.3 1.9.4 2.9 0 1.9-.6 1.9-.7-.2-4.3-1.2-2-2.7-4.2-3.3-4.7-2.4-2.1-23.9-26.3-28.9-32.5-8.5-10.6-8.5-10.6-8.6-.9M777.4 120.2c.4 2.1.8 5.8 2.2 24.8 1 14.1 1.9 17.2 3.9 13.9.4-.5 1.7-1.4 2.8-2 1.2-.5 5.6-3.1 9.7-5.8 4.1-2.8 9.7-6.2 12.3-7.7 3-1.7 4.7-3.3 4.5-4.3-.2-.9-5.8-4.8-12.5-8.7s-14-8.3-16.3-9.7c-5-3.4-7.2-3.5-6.6-.5M545 140.4c0 .5 2.8 7.3 5.7 13.6 1.4 3 4.5 10 7 15.5s4.9 10.4 5.3 10.9c.5.5 4.1-1.7 8.2-5 4-3.3 9.7-7.4 12.6-9.3 2.8-1.8 5.2-4 5.2-4.8s-3.3-2.9-7.7-5c-4.3-2-13.8-6.4-21.2-9.9-12.3-5.9-15.1-7-15.1-6M765.4 180.2c-11.1 11.5-15.1 15.8-23.9 26-.8 1-1 1.8-.5 1.8 1.4 0 1.3 3.7-.2 4.6-.7.4-.8.3-.4-.4 1.2-2-.8-1.3-4.4 1.3-6.4 4.7-6 5.3 4.3 5.9 34.7 2.1 39.7 2.1 39.8.6.2-5.7-1.1-52.2-1.6-52.8-.1-.1-6 5.7-13.1 13M588.6 170.9c-.4.5-1.7 4.9-3.1 9.8-1.4 4.8-3 9.7-3.5 10.8-1.2 2.4-6 16.2-6.7 19.1-.4 1.7.4 2.4 4.1 3.9 2.5 1.1 4.6 2.2 4.6 2.5 0 .9 5.2 3.2 5.8 2.6 1.1-1.1.7-49.6-.4-49.6-.2 0-.5.4-.8.9M681 201.5c-.7.8-1.6 1.3-2 1-.4-.2-1.5.4-2.5 1.5s-2.4 2-3.2 2-1.1.5-.7 1.2.3.8-.5.4c-.6-.4-2.7.3-4.7 1.5-2.7 1.6-3.2 2.4-2.2 3 1 .7.9.9-.4.9-3.2 0-2 2.9 1.5 3.5 3.8.7 51.6 2.1 54.1 1.7 1.6-.3 1.6-.5-.3-1.8-1.2-.9-2.6-1.2-3.3-.8-.6.4-.8.3-.5-.3.8-1.2-2-2.6-3.4-1.7-.5.3-.9-.1-.9-.9s-.6-1.8-1.2-2.1c-.7-.4-3.1-1.7-5.3-3.1-11.7-7.1-21.5-9.6-24.5-6M575.4 216.5c-.4.8-.1 2.2.6 3 .6.7 1.1 4 1 7.2s-.1 8.5-.1 11.8l.1 6 1.6-3c.8-1.6 2.4-4.4 3.5-6.2 2.1-3.4 1.9-5.3-.7-5.3-.8 0-1.4-1-1.4-2.5 0-1.8.5-2.5 1.9-2.5 1.1 0 2.1.6 2.4 1.2.3 1 1 .8 2.3-.5 2.5-2.4 1.2-4.3-5.5-7.9-4.3-2.3-5.3-2.6-5.7-1.3M640.9 219.4c-.2.2-9.4.9-20.4 1.5-24.9 1.5-24.7 1.4-23.2 5 .7 1.5 2.6 4.5 4.4 6.7 1.7 2.1 5.3 6.6 7.9 9.9 4.7 5.9 21.3 25.5 22.4 26.5.3.3 2 2.4 3.9 4.7 1.8 2.4 3.6 4.3 4 4.3 1 0 2.6-9.6 4.6-27 .8-6.9 2.1-16.9 2.8-22.3l1.3-9.7H645c-2 0-3.9.2-4.1.4M653 220.1c0 .6 3.6 9.3 6 14.4.5 1.1 3 6.7 5.6 12.5 2.5 5.8 5.6 12.7 6.9 15.5 6.5 14.3 15.5 35.2 15.5 36.2 0 .7.4 1.4 1 1.8 1.4.9 21.4-41.3 29.7-62.5 1.3-3.6 3.3-8.2 4.4-10.2 3.5-6.8 4.6-6.5-23.3-7.2-40-1.1-45.8-1.1-45.8-.5M729 223c0 1.1.7 6.6 1.6 12.3.9 5.6 2.6 16.8 3.8 24.9 1.3 8.2 2.6 15.1 2.9 15.5 1 1 4.5-2.6 9-9.2 2.2-3.3 6.1-8.3 8.6-11.1 2.5-2.7 7.9-9.4 12-14.8s8.7-11.2 10.3-12.8c1.6-1.7 2.6-3.4 2.1-3.9-.8-.7-33.7-2.9-45-2.9-4.6 0-5.3.3-5.3 2M725.1 227.2c-.8 1.8-2.5 5.8-3.9 8.8-1.3 3-4 9.1-5.9 13.5-3.7 8.6-14.8 33-19.9 43.5-1.8 3.6-3 6.7-2.8 6.9s2.8-.7 5.6-2.2c2.9-1.4 10.7-5.1 17.3-8.3 12.4-6 13.6-6.8 12.8-9-.5-1.4 1.4-2.8 4.2-2.9 1.6 0 2-.6 1.8-3-.2-4.3-2.1-18.1-3.2-24-1.9-9.6-3.5-20-3.5-23.3-.1-1.7-.3-3.2-.6-3.2s-1.1 1.5-1.9 3.2M651.3 228.5c-.6.7-1.4 3-1.8 5.1-.3 2.2-1 5.9-1.5 8.4s-1.2 7-1.5 10c-.7 7.9-2.3 21.5-3 25.3-.6 3.2-.5 3.3 6.2 6.5 3.8 1.8 7.2 3.2 7.6 3.2s6.5 2.7 13.4 6 12.7 6 12.9 6c1.1 0 .1-3.5-3-10.1-1.9-4.1-4.5-9.9-5.7-12.9-1.3-3-4.7-10.2-7.5-16s-7.2-15.5-9.9-21.5c-2.6-6.1-4.8-11.1-4.9-11.1 0-.1-.6.4-1.3 1.1M780.9 228.7c-.5 5.2-3.3 16.1-4.9 19.8-1.6 3.6-2.8 9.4-2.3 11.3.4 1.7.8 1.7 5.6-.7 2.9-1.4 7.1-3.4 9.5-4.4 4.7-2.1 5.2-3.8 2.2-7.7-1.1-1.4-2-3-2-3.7 0-3-5.4-15.3-6.6-15.3-.8 0-1.4.3-1.5.7M773.2 235.7c-1.6 2.1-5.7 7.5-9 11.9-3.3 4.5-6.8 9-7.9 10-1.1 1.1-3.7 4.4-5.8 7.4s-5 6.7-6.4 8.2c-2.9 3.3-2.7 3.4 2.5.9 2.1-1 6.9-2.8 10.7-4 3.7-1.3 6.7-2.7 6.7-3.2 0-.6.4-.8.9-.5.9.6 4.1-3.5 4.6-5.8.1-.6.5-1.8.8-2.6 3.3-8.6 7.8-26 6.7-26-.5 0-2.2 1.7-3.8 3.7M785.8 258.8c-4.9 2.5-8.8 5.1-8.8 5.7 0 .8 1.7 1.2 4.9 1.2 2.7 0 5.4.3 6 .7s1.1.1 1.1-.6c.1-.8.6-.7 1.4.5 1.4 1.8 1.4 1.8 2 0 .3-1 .4-.1.3 1.9-.2 2.1.2 3.8.8 3.8.5 0 .2.5-.7 1.1-1 .5-1.8 1.5-1.8 2 0 .6.5.7 1 .4.6-.3 1 .3 1 1.4 0 1.2.6 2.1 1.3 2.1.9 0 1.2-3.2 1.2-12.5 0-6.9-.2-12.4-.5-12.4-.3.1-4.4 2.2-9.2 4.7M571.5 262.2c-1.6 2.3-4.6 6.4-6.6 9.3-1.9 2.8-5.9 8.2-8.8 11.9-3.6 4.6-4.7 6.6-3.4 6.3 1-.3 3.8-1.1 6.3-1.7 9-2.2 14.1-4.4 13.9-6-.1-.8.1-2.2.4-3 .5-1.1 1.7-21.2 1.3-21-.1.1-1.4 1.9-3.1 4.2M757 273c-10.7 3.6-18 6.8-18 8 0 .4 1.4 1.4 3.2 2.2 1.8.7 7 3.2 11.6 5.6s8.5 4.2 8.6 4c1-1.2 4.3-20.5 3.8-21.5-.6-.9-2.8-.5-9.2 1.7M633 285.4c-3.6 1.7-9.5 4.5-13.2 6.1-3.8 1.6-6.8 3.2-6.8 3.6 0 1 6.4 5 19.3 11.9 6.5 3.5 12.9 7.4 14.2 8.6 1.5 1.4 2.7 1.9 3.1 1.2q.6-1.05 1.5.3c.6 1.1 1.8 1 6.1-.5 12.2-4.2 27.2-11.7 27.5-13.7.3-1.4-16-9.5-33.2-16.6-9.1-3.7-9.6-3.4-7.2 4.7.8 2.7 1.1 4.8.7 4.5-.5-.3-1.1-1.9-1.5-3.5s-1.1-3.2-1.6-3.5c-.5-.4-.9-1.9-.9-3.6 0-1.6-.3-2.9-.7-2.8-.5 0-3.7 1.5-7.3 3.3M729.8 283.7c-1 .2-1.8.9-1.8 1.4s-.5.9-1 .9c-.6 0-8.1 3.4-16.7 7.5s-16.4 7.5-17.4 7.5c-2.2 0-2.4 1-.6 2.9 1 1.1.9 1.3-.5.8-1.5-.5-1.7 1-2 15.1-.1 8.6-.1 17.5.2 19.7.5 3.7.8 4 3.8 4.3 4.7.5 6.3-1.1 5.1-5.1-2.6-8.5-3.9-14.2-3.6-15.6.2-1 .7-.4 1.1 1.4 2.5 9.8 4.8 16.5 5.6 16.5.6 0 1-.6 1-1.4s3.6-5.3 8-9.9c4.4-4.7 8-8.9 8-9.4s-2.9-2.4-6.4-4.3c-8.1-4.4-7.9-5.2.3-1.1 6.7 3.4 8.1 3.7 8.1 1.7 0-1.7 3.9-10.6 4.7-10.6.7 0-.1 5.9-1.1 8.2-.8 1.8 23.3-9.6 28.9-13.7 1.7-1.2 3.8-2.5 4.8-2.8.9-.4 1.7-1.2 1.7-2 0-1.5-19-11.7-21.8-11.7-1.2 0-2.7 2.1-4.6 6.5-1.6 3.6-3 6.4-3.2 6.2s.5-3 1.6-6.2c2.8-8 2.7-8.1-2.2-6.8M611 299.3c0 4.7 2.1 8.7 4.8 9.3 6 1.3 9 2.6 14 5.9 3.8 2.5 6.8 3.6 11.2 4.1 7.5.8 7.7-.5.8-3.7-2.9-1.3-10.1-5.4-16-9.1-15.3-9.5-14.8-9.3-14.8-6.5"/><path d="M685.7 304.5c-.4.8-1.3 1.5-2.1 1.5s-2.1.6-2.8 1.3-7 3.8-14 6.8c-7.1 2.9-12.7 5.7-12.5 6 .1.4 4.5 5.2 9.8 10.7l9.7 10 1.5-3.6c.9-2.1 2.7-6.4 4.2-9.7 1.4-3.3 2.8-6.8 3-7.9.6-2.5 1.5-3.3 1.5-1.3 0 1.9-2.2 7.9-5.6 15.5-1.3 2.9-2.4 5.8-2.4 6.5 0 1.8 6.1 4.2 9.6 3.8.8-.1 1.4-4.4 1.9-12.9.7-13.9.7-14.2 0-22.1-.6-6-1-7-1.8-4.6M726.5 318c-3.9 1.9-13 10.7-20.7 20-4.3 5.1-4.4 5.3-2.3 7 1.2 1 2.7.5 7.9-2.4 3.6-2 7.8-4.8 9.4-6.1 1.7-1.4 3.2-2.5 3.5-2.5.4 0 1.7-1.1 3.1-2.5s2.3-2.5 2-2.5c-.2 0 .2-1.3 1.1-3 2-3.9 2-3.9-1.7-5.5-2.6-1.1-2.9-1.4-1.2-1.5 1.2 0 2.4-.7 2.8-1.5.7-1.9.9-1.9-3.9.5M638.3 320.6c-2.1.5-2.1.6 1 5.7 3.7 6 4 6.4 8.7 9.9 4.5 3.3 20.6 11.8 22.5 11.8q1.5 0 1.5-3.3c-.1-4.2-4.8-10.6-13.4-18.2-6.4-5.6-7.1-5.9-12.4-6.1-3.1-.1-6.7 0-7.9.2M646.7 339.6c.7.3.9 1.2.6 2s-.2 2.2.3 3.1c.4 1 1.2 3.6 1.8 5.8 1.1 4 1.1 4 5.6 3.7 2.5-.2 5.5-1 6.7-1.8 2.7-1.7 3.4-1.8 2.8-.2-.7 1.9-2.5 28.2-2 28.7.8.7 4.6-8.7 5.1-12.6.5-4.7 2-12.9 2.9-16.6.5-1.9.3-2.7-.6-2.7-.7 0-5.9-2.3-11.5-5-5.6-2.8-10.8-5-11.6-4.9-.9 0-.9.2-.1.5M710.3 345.5c-2.9 1.3-5.3 2.1-5.4 1.7 0-.4-.4.2-.8 1.3-.5 1.1-.5 2.8 0 3.7s.9 3.2.9 5.2c0 1.9.4 3.7.8 4 .4.2.9 2.8 1 5.6s.7 6 1.2 7c.6 1 1 3 1 4.4s.5 2.6 1.1 2.6c.8 0 1-1.3.6-3.8-.3-2-.9-7.8-1.2-12.7-.3-5-.8-10-1.1-11.2-.4-2.1-.2-2.2 2.2-1.3 1.9.7 2.9.6 3.9-.4 1.6-1.6 3.1-8.6 1.9-8.6-.5 0-3.3 1.1-6.1 2.5M672.5 354.2c-.2.7-.6 2.6-.9 4.3-1.3 8.4-2.9 15.2-4.1 17.5-1.4 2.8-6.5 29-6.3 33 0 1.4.5 3.8 1.1 5.5 1.2 3.4 8.5 16.4 10.3 18.2.7.7 1.4 1.8 1.7 2.5.2.7.8.9 1.3.5s.2-1.2-.6-1.8c-1-.6-1.1-1.2-.5-1.7 2-1.4 2.7-26.6.9-32.2-.6-1.9-.8-4.4-.4-5.5.3-1.1.3-10.1-.2-20s-.9-18.8-.9-19.8c0-2-.8-2.3-1.4-.5M714.1 379c-.1 8.9 1.5 27.9 2.3 28.7.3.3 10.9-.7 25.1-2.4 5.2-.6 5.8-1.3 1.2-1.3-2.8 0-3.5-.3-3.1-1.5.3-.8-.2-2.2-1.2-3.2-1.9-2-2-2-6.8-2.2-2.7-.1-3.5-.6-4-2.6-.4-1.4-1.1-2.5-1.6-2.5s-.7-.7-.4-1.5c.4-.8.2-1.5-.4-1.5-1.6 0-2.2-4.1-.6-4.7 1.8-.7 1.8-4.3 0-4.3-.8 0-1.8-.9-2.1-2-.4-1.1-1.2-2-1.8-1.9-3.5.4-4.7-.3-5.6-3.4-.7-2.6-.9-1.3-1 6.3M617.3 408.8c-2.3.2-3.3.8-3.3 2-.1 6.7-3.1 36.6-4 40.3-2.1 8.4-1.2 9.1 4.8 3.5 4-3.8 5.1-5.4 4.7-7-.5-1.5-.4-1.7.3-.7.8 1.1 3.4-1 11.9-9.5 6.1-6 12.5-12.8 14.4-15.2s4.9-5.2 6.7-6.2c4.8-2.9 4.2-4.7-2-5.5-8.2-.9-29.9-2-33.5-1.7M584.5 410.3c-7.1.5-13.2 1.1-13.4 1.3-.3.2 8.9 12 13.9 17.7 1.2 1.3 22-17.2 22-19.7 0-.7-5.5-.6-22.5.7M717.7 418.2c.8 2.4 2.1 5.6 2.8 7.3 2.3 5.3 4.4 11.8 6.6 20.5 2.7 10.9 6.5 22 9.5 28 1.3 2.6 2.4 5.3 2.4 5.9 0 2.2 2.6 1 7.5-3.7 2.8-2.6 6.7-6.7 8.7-9.1 3.4-4.2 3.6-4.6 2.1-6.8-.8-1.2-1.9-2.3-2.3-2.3s-2.5-2.4-4.7-5.3c-6.2-8.1-14.4-16.8-16.9-17.8-2.6-.9-5.2-4.4-5.7-7.7-.2-1.2-.9-2.8-1.5-3.4-.7-.7-1.2-1.7-1.2-2.4 0-1.3-6.5-7.4-8-7.4-.4 0-.2 1.9.7 4.2M657.8 418.7c-3.9 10-8.8 26.4-8.2 27.4.4.7 2.5.9 5.8.5 2.8-.3 7.8-.6 11.1-.7s6.3-.4 6.7-.6c1.5-.8-1.4-6.2-3.5-6.5-1.5-.2-2.3-1.1-2.6-2.8-.3-2.5-.3-2.5 1.8-.6 4 3.7 2.4-.2-6.1-14.8-1.7-2.8-3.1-5.2-3.3-5.4-.1-.2-.9 1.4-1.7 3.5M611 471c0 .5.4 1 .8 1s.8.8.9 1.7c.1 1.8 7.3 27.5 7.8 28.1.1.1 1.3-1.9 2.5-4.5s3.1-6 4.2-7.6c1.1-1.5 1.8-3.3 1.6-4.1-.3-1.2-16.3-15.6-17.4-15.6-.2 0-.4.4-.4 1M655.1 485.7c-.6 3.2-1.5 7.1-2 8.8-3.1 10.3-4.2 16.7-3 18.1.7.9.8 1.4.1 1.4-1 0-3.5 9.1-2.7 9.8.2.2 2.3-.7 4.7-2.1s6.2-3.5 8.6-4.8c3.9-2.1 6.1-5.6 2.7-4.3-1.1.5-1.5-.1-1.5-2 0-1.6-.6-2.6-1.5-2.6-.8 0-1.5-.8-1.5-1.8 0-1.3.2-1.4.9-.4.7 1.1.9 1.1 1.4-.2.4-1.1.1-1.6-1.1-1.6-1.3 0-1.8-1-2-4.1-.2-3.3.1-4.2 1.7-4.6 3-.8 3.2-4 .5-7.2-1.3-1.6-2.4-4.1-2.4-5.5 0-4.7-1.8-2.7-2.9 3.1M628.2 492.1c-.7 1-1.2 2.6-1.2 3.4s-.4 1.5-1 1.5c-.5 0-1.2 1.7-1.6 3.7-.4 2.1-1.2 4.4-1.8 5.2-.8 1.1-.7 1.6.8 2.5 1 .6 4.2 3 7.1 5.3s5.6 3.9 6 3.5c.3-.4.5-.1.3.7-.1.7.3 1.6 1 1.8 1.4.5 1-3.1-.8-7.2s-6-18.1-6-19.7c0-2.5-1.4-2.9-2.8-.7M351.4 135.4c-1 1.4-7.7 9.3-14.7 17.5-7 8.3-12.5 15.1-12.2 15.1 2.8 0 9.4-2.4 8.8-3.3-.4-.6 0-.8 1-.4 2 .7 7.9-.2 7.3-1.2-.4-.6 1.5-.8 7.7-1.1 1.5-.1 2.7-.5 2.7-.9s1.4-.8 3-.9c1.7-.1 5.6-.9 8.8-1.8 3.1-.9 7.2-2 9.1-2.4 1.9-.5 4.5-2.2 5.7-3.8 1.9-2.3 2.9-2.8 5.1-2.4 1.5.3 3.1.9 3.4 1.4s2.6.4 5.3-.3l4.8-1.2-5.3-2.4c-4.8-2.2-5.7-2.3-9-1.3-2.1.7-4.3.9-5 .4-.8-.5-2.1-.7-3.1-.6-.9.2-1.9-.2-2.3-.8-.3-.5-1.5-1-2.6-1-3.1 0-8-4.1-7.4-6.2.5-1.3-.3-2.1-3.1-3.3-4.9-2-5.7-1.9-8 .9M281.3 160.3c-.4.7-1.5 2.5-2.4 4.2-6.7 12.5-10.8 19.9-14 25.5-2 3.6-3.5 6.7-3.3 6.9.5.5 7.9-2.7 24.3-10.6 7.5-3.6 14.5-6.9 15.6-7.3s5.3-2.6 9.3-4.7l7.3-4-12.8-4c-22.6-7.1-23.2-7.2-24-6M306.5 178.3c-5 2.4-11.9 5.7-15.5 7.3-15.7 7.1-30.5 14.4-30.7 15.1-.2.4 4.2 3.6 9.6 7l9.9 6.1 8.4-8.7c11.3-11.7 28.5-31.1 27.6-31.1-.2 0-4.4 1.9-9.3 4.3M313.5 180.1c-2.1 2.4-7.7 8.6-12.3 13.7-4.7 5.1-9.4 10.2-10.4 11.5-1.1 1.2-3.5 3.9-5.3 5.9l-3.4 3.7 4.7 3.3c7 5 17.2 11.2 17.7 10.7.2-.3 1.5-4.7 2.9-9.9 1.3-5.2 4.3-16.6 6.6-25.3s4-16.3 3.8-16.9c-.2-.5-2.1.9-4.3 3.3M259.4 206.6c.3 2.1 1 8.5 1.6 14.1s1.4 12.1 1.8 14.4l.7 4.1 3.5-5.2c1.9-2.9 4-5.9 4.5-6.8.6-.9 2.2-3.6 3.8-5.9 1.5-2.3 2.7-4.6 2.7-5.1 0-1.2-7.4-6.7-14.4-10.7l-4.8-2.8zM255.6 216.2c-3.1 14.4-6.7 33.1-6.3 33.5.2.2 3.2-1.5 6.6-3.8 5.8-3.8 6.1-4.3 5.6-7.3-.3-1.7-1.2-8.9-2-16.1-.9-7.1-1.7-13.1-1.9-13.3s-1.1 3-2 7M272.6 228.5c-4.2 6.2-7.6 11.6-7.6 12s1 .4 2.3.1c1.2-.3 9-2.4 17.2-4.7 8.3-2.2 15.6-4.1 16.3-4.1.6-.1 1.2-.4 1.2-.8 0-.7-14.1-9.7-19.7-12.7-2-1-2.6-.4-9.7 10.2M325 229.7c-10.2 1.4-18.7 2.7-18.9 2.9-.2.1.2 13.7.9 30.1s1.3 31.9 1.4 34.5c0 2.5.4 4.4.9 4.1.4-.2.7-1 .7-1.6 0-.7 1.1-2.8 2.4-4.8 2.7-4 32-62.2 33.1-65.7.4-1.5.2-2.2-.7-2.1-.7.1-9.6 1.3-19.8 2.6M283.3 237.8c-10.1 2.5-18.3 4.8-18.3 5.1.1.8 22 17.4 22.4 16.9 2.3-3.1 5.1-7.8 8.6-14.3 2.3-4.4 4.6-8.5 5.2-9.2 2.5-3-.9-2.8-17.9 1.5M298.1 245.5c-3 5.5-6.3 11.2-7.3 12.8l-2 2.7 3.7 8.8c7.4 17.3 12.9 29.7 13.7 30.6.4.5.6-3.5.3-9-.2-5.4-.7-18.2-1.1-28.3-.3-10.1-.9-20.4-1.3-23l-.6-4.6zM262.6 246.2c-.2.7-2.2 6.5-4.4 12.8-2.3 6.3-4.4 12.5-4.7 13.8l-.6 2.2 3.8-1.7c2.1-1 4-2.1 4.1-2.6.2-.4 1.4-.7 2.7-.7s2.5-.3 2.7-.8c.4-.9 10.7-4.6 11.3-4 .3.3-1.8 1.5-4.5 2.8-2.8 1.3-5 2.7-5 3.2 0 .4-.9.8-2 .8-3 0-13.3 4.1-12.3 5 2.1 1.9 50.4 27.2 51 26.7.2-.2-2.2-6.4-5.3-13.8s-6.7-16-8-19.3c-3.4-8.4-3.8-8.8-8.1-7-1.9.8-3.8 1.3-4.1 1s.9-1.1 2.6-1.7c1.8-.6 3.2-1.4 3.2-1.7-.1-.6-16.9-13.2-20.7-15.5-.8-.5-1.5-.3-1.7.5M245.6 259.2c-3.8 12.5-6.1 19.4-6.8 19.8-1 .8-3.9 9.2-3.3 9.8.2.3 2.3-1.2 4.5-3.2s4.3-3.6 4.7-3.6-1.8 2.2-4.7 4.9l-5.5 4.8 4.3 5.7c3.7 4.9 6.2 6.9 6.2 5 0-.3 1.1-5.5 2.5-11.6s2.5-11.2 2.5-11.5c0-.2-1 .2-2.2.8-2.3 1.2-2.3 1.1.1-1.5s2.4-2.7 1.2-11.1c-1.2-8-2.6-11.3-3.5-8.3M257.5 287.1c2 3.8 3.8 6.9 4.1 6.9s.2-.4-.1-1c-.3-.5.8-.2 2.4.8 3.4 1.9 4.3 3.9 1.1 2.2-2.8-1.5-2.6.2.5 4.8 2.3 3.3 2.5 3.4 2.5 1.3v-2.4l2.4 2.6c1.3 1.4 2.7 2.3 3 2 .3-.4.6.4.6 1.6 0 1.6.5 2.1 1.8 1.7.9-.2 7-.8 13.4-1.1 6.5-.4 11.6-1.1 11.3-1.5-.8-1.2-35-19.8-43.7-23.7l-2.8-1.2zM248.7 292.1c-1.5 6.1-2.6 11.3-2.5 11.4.6.5 19 4.6 19.3 4.3.4-.4-10.3-21.5-12.5-24.8-1.5-2.1-1.7-1.6-4.3 9.1M236.6 310.4c-3.8 2.5-7 4.7-7.3 5-.7.6 5.3 13.3 6.7 14.1.6.3 1-.4 1-1.7 0-1.7.3-1.9.9-.9.7 1.1 1.1 1 2-.5.9-1.6 1-1.4 1.1 1.5 0 2.7.3 3.2 1.8 2.6.9-.3 4.4-.9 7.7-1.2s6.1-.6 6.3-.8c.1-.1-1.6-3.7-3.8-7.9-4.9-9.3-3.7-9.1 2.5.5 4 6.2 4.7 6.9 6.5 5.9 1.1-.6 2-1.8 2.1-2.8 0-.9.6-.2 1.3 1.6.6 1.8 1.5 3 1.9 2.6s.7-.2.7.4.6.9 1.3.6c2-.7 8.9 2.5 8.1 3.8-.4.7-.3.8.4.4 1.8-1.1 1.4-3.1-1.8-9.3-6.4-12.1-7.8-13.5-15.2-15.4-3.7-.9-8.4-2-10.4-2.3-3.4-.7-3.5-.6-2.9 1.6l.6 2.3-2-2.3c-1-1.2-2.1-2.2-2.4-2.2-.2 0-3.4 2-7.1 4.4M285.5 309c-8.8 1-16.1 1.8-16.3 1.9s1.3 2.5 10.8 17.3c2.4 3.8 5 6.8 5.7 6.8.8 0 1.2.4.9.9s.1 1.1.9 1.5c.8.3 1.5 1.5 1.5 2.7 0 3.3 2.5.7 5.4-5.7 1.4-3 2.7-5.4 3-5.4.8 0-1.1 5.8-3.5 10.7-1.8 3.6-1.9 4.7-.8 5.3 1.2.8 6.4 1.9 17.7 3.6l4.3.7-.5-5.4-.6-5.4 1.6 4.7c.8 2.7 2 4.8 2.6 4.8 1.4 0 28.6-14.1 29.8-15.5 1-1.2-4-4.8-17-11.9-4.7-2.6-11.2-6.2-14.5-8.1-6.9-4-7.5-4.1-7.5-1.8-.1 1.6-.2 1.6-1.5-.1-1.4-1.9-1.5-1.8-2.5.5-.9 2.1-.9 2-.4-.9.5-2.7.3-3.2-1.3-3.1-1 .1-9 .9-17.8 1.9M349.5 333.9c-1.1 1-3.1 2.1-18.8 10.6-7.7 4-10.5 6-9.5 6.6.7.5 2.2.9 3.4.9 1.1 0 3.1 1.1 4.4 2.5s2 2.5 1.5 2.5c-1.9 0 6.2 6.2 8.8 6.7 1.5.3 2.7 1.1 2.7 1.7s.5.3 1.1-.7c.6-.9 1.4-1.5 1.9-1.2 1.3.8 2.6-2.2 3.8-9 1.1-5.8 2.5-21.5 1.9-21.5-.2 0-.7.4-1.2.9M292 348.4c0 1.4 3.1 6.6 3.9 6.6.4 0 0 2.4-1 5.2-1 2.9-1.8 6.3-1.9 7.6 0 1.2-.7 2.5-1.5 2.8-.8.4-1.5 1.1-1.5 1.8 0 .6-.7 2.4-1.5 4-.9 1.6-1.4 3.1-1.2 3.3.5.4 26-26.3 26.5-27.7.2-.5-1.4-1.3-3.5-1.9-5.1-1.3-18.3-2.5-18.3-1.7M314.6 364.3c-1.4 6.1-3 13.4-3.5 16.2-.6 2.7-1.7 7-2.5 9.4-.9 2.4-1.6 5-1.6 5.8 0 1.7 2.1.7 15.2-7.9 5.3-3.5 12.9-8.3 16.7-10.8 3.9-2.4 7.1-4.7 7.1-5.1s-1.5-1.4-3.2-2.3c-4.2-2.1-6.9-3.8-8.6-5.4-.8-.7-2.6-1.2-4.1-1-2 .2-2.6-.1-2.5-1.5.2-2.3-.5-2.2-3.3.5-2.1 1.9-2.5 2-3.8.7-1.3-1.2-1.3-1.8-.1-4.1 1.4-2.7 1.2-3.3-2.1-5.1-.7-.5-1.9 2.9-3.7 10.6M306.7 362.7c-3.7 4.2-6.7 8.4-6.7 9.4 0 1.1-.7 1.9-1.6 1.9s-3.8 2.2-6.5 4.8l-4.9 4.9 2.7 1.4c1.5.8 3.8 2.6 5.1 4.1 2.3 2.7 9 7.4 9.6 6.7 1-1.3 2.5-10.3 2-12.3-.3-1.3-.1-2.7.5-3 .6-.4 1.1-.1 1.2.6s.5-.3 1-2.2c1.6-6.1 4.9-23.3 4.6-23.6-.1-.1-3.3 3.1-7 7.3M242.9 384.8c-.6 4 2 20.2 3.2 20.2s10.9-13.1 10.9-14.7c0-1.4-1-2-4.5-2.5-1.6-.2-2.4.7-3.8 4.7l-1.8 5 .6-5.7c.3-4 .1-5.9-.7-6.5-1.7-1-3.8-1.3-3.9-.5M279.5 385.6c-1.1.3-5.7 1.4-10.2 2.6l-8.3 2.2v9.3c0 5.1.4 9.3.8 9.3s1.6-1.4 2.6-3.1 4.6-6.1 8-9.8c7-7.5 10.1-11.2 9.5-11-.2.1-1.3.3-2.4.5M228.2 437.7c.1 2.4.5 4.3 1 4.3.4 0 .8.4.8 1 0 .5-.7 1-1.5 1s-1.5.4-1.5 1c0 .5-.9 2.4-2.1 4.2-1.9 3-2 2.5-.3-1.7.4-.9.1-1.5-.7-1.5-2 0-17 7.7-16.9 8.7 0 .4 1.5 1.4 3.3 2l3.2 1.3-4.2-.6c-5.6-.8-5.6.6.2 6.3 5 4.9 5.3 6.7 3.5 19.3-.8 6-.6 9 .4 5.9.3-.8 2.5-6.9 5-13.6 4.4-11.8 4.8-14.7 2.3-15.6-.7-.2 0-.2 1.5 0 1.9.3 2.8-.1 3.1-1.4.3-1.1.5-.6.6 1.2 1.1 24.5 2.3 42 3 43.2 1 1.9 2-.7 5.1-14.7 1.2-5.2 2.5-10.2 3-11.1 1.4-2.7-4.3-32.4-7.8-40.9-1-2.3-1.1-2.1-1 1.7"/><path d="M183.5 443.3c1.1.8 5.5 3.6 9.9 6.2l7.9 4.8 5.6-2.4c3.1-1.2 8.1-3.4 11.1-4.8l5.5-2.5-4.5-.7c-2.5-.4-11.9-1-21-1.4-14.6-.6-16.3-.5-14.5.8M220.3 473.8c-1.7 4.2-3.4 8.8-3.8 10.2s-1.6 4.4-2.7 6.8c-1.5 3.4-1.7 4.7-.7 5.8.6.8 1.4 1.4 1.8 1.4s3.1 2.2 6.1 5c5.1 4.7 7.9 6.1 4.9 2.3-.8-.9-.9-1.4-.4-1.1 1.2.7.9-11.2-.5-23.7-.4-4.4-.6-9.2-.3-10.6 1.1-5.7-1.5-3.4-4.4 3.9M942 147.4c-22 8.4-20.2 7.5-18.6 9.1 1.3 1.3 24.5 8.8 44.1 14.2 5 1.4 12.7 3.8 17.3 5.3 4.6 1.6 8.2 2.5 8 2-.5-1.4-32.6-36.4-33.7-36.7-.3-.1-8 2.7-17.1 6.1M1012.3 176.2c-6.8 2.2-12.3 4.3-12.3 4.7 0 .5 25.2 15.8 33.9 20.5 2 1 5.5 3.4 8 5.2 2.4 1.9 4.6 3.3 4.8 3 .4-.3-12-24.6-16.7-32.6-1.5-2.5-3.3-4.6-4.1-4.7-.8 0-6.9 1.7-13.6 3.9M1002.9 186.6c1.2 1.6 9.1 10.9 17.4 20.6 14.7 17.4 15.1 17.7 17.1 16.1 4.2-3.5 10.6-9.7 10.6-10.4 0-1.1-19.6-13.3-42.4-26.4l-5-2.8zM993.1 192.2c-1.8 4-4.2 9-5.3 11.1s-1.7 4.5-1.4 5.3-.1 1.7-1 2.1c-1.1.4-1.4 1.3-.9 3.2.4 1.9.3 2.2-.5 1.1-.8-1.3-1-1.3-1 .2 0 1-.4 1.8-1 1.8-.5 0-1 .5-1 1.1 0 .5-.9 3-2 5.5-4.6 10.1-6.1 8.7 12.8 12.3 9.2 1.8 17.6 3.4 18.8 3.6 2 .4 1.9-.1-1.9-12.8-3.7-12.7-7.4-25.8-8.4-30.4-.3-1.3-.9-2.1-1.3-1.8-.4.2-.5-.6-.3-1.9.3-1.2-.2-2.9-.9-3.7-.8-.8-1.3-2-1-2.7.2-.6.2-1.2-.1-1.2-.2 0-1.9 3.3-3.6 7.2M999.4 186.5c.3 1.1 2.8 10.1 5.6 20 9.4 34.1 9.2 33.6 10.7 33 1.9-.7 18.2-12.9 18.3-13.6 0-.5-6.1-7.7-26-30.8-9.5-11-9.2-10.8-8.6-8.6M1041.7 221.3l-5.8 5.2 6.8 11.7c3.7 6.4 6.8 11.6 6.8 11.5.4-1.7-.9-33.7-1.3-33.7s-3.3 2.4-6.5 5.3M1052.5 227.7c.9 6.4 5.3 27 6.6 31 .6 1.8 1.7 3.3 2.4 3.3.8 0 1.7.5 2.1 1.1.4.7 0 .9-1.4.5-1.9-.6-2-.4-1.1 3.6.6 2.4 2.3 9 4 14.7 1.6 5.7 2.8 10.9 2.6 11.5-.4 1.2-4.3-8.7-5.7-14.3-.4-2-.8-3-.9-2.4-.1.7-.5 1.3-1 1.3s-1.2-3.8-1.6-8.5c-.7-8-.9-8.7-3.7-10.7s-3-2-2.5-.2c.3 1 1.8 6.4 3.3 11.9s3 10.2 3.4 10.5c.7.5 1.9 5.7 2.5 10.7.2 1.2.8 3.7 1.4 5.5.5 1.8 1.5 6.1 2.2 9.5 1.1 6.1 1.1 6.3-2.1 12.4-1.8 3.5-4.1 8.7-5.1 11.6l-1.8 5.4 2.2.8c2.9 1.1 3.5.7 4.3-3.5.4-2.3 1-3.2 1.8-2.6.6.5 2.1.9 3.3 1 1.9.1 2.1-.2 1.1-1.8-.9-1.4-.9-2.5 0-4.5.7-1.5 1-3 .7-3.5-.3-.4.1-2.3.9-4.1 1.5-4 1-10.1-.9-11.2-.8-.4-1.7-2.4-2.1-4.5-.3-2-1.5-5.2-2.6-7.1-2.2-4-1.7-5.4.7-1.7 1 1.4 2.1 2.4 2.5 2.1s1.1 1.1 1.4 3c1.5 7.8 2.1 2.6 1.5-13.2-.4-9.3-.7-17.5-.8-18.4-.1-.8-1.3-2-2.8-2.7-1.9-.8-2.1-1-.5-.6 1.2.3 2.2.1 2.2-.5 0-3.2-15.3-40.1-16.6-40.1-.3 0-.2 2.1.1 4.7M1025.5 234.1c-4.4 3.3-8.1 6.3-8.3 6.7-.1.4 6.8 3 15.3 5.8 8.5 2.7 15.5 4.7 15.5 4.4s-1.8-3.7-4-7.5c-2.2-3.9-5-8.9-6.2-11.3-1.2-2.3-2.7-4.2-3.2-4.1-.6 0-4.7 2.7-9.1 6M976.5 240.3c5.8 13.1 33.9 68 34.1 66.7.2-.8.8-14.8 1.4-31s1.4-30.5 1.7-31.7c.3-1.4 0-2.4-.8-2.7-2.7-.7-35.5-6.6-37.1-6.6-1.5 0-1.4.6.7 5.3M972.6 246.7c-.9 9.2-2.4 29.4-3.1 42.8-.4 6-1.1 15.9-1.6 22-.5 6-.9 13.6-.9 16.8v5.9l21.3-11c14-7.2 21.1-11.4 20.9-12.3-.5-2.3-34.7-70.9-35.3-70.9-.3 0-.9 3-1.3 6.7M1016 243.7c0 .9 11.2 20.9 13.3 23.7 1.3 1.9 1.6 1.8 7.3-2.6 3.2-2.5 7.2-6 8.9-7.7 3.7-3.9 3.9-3.8-12-8.9-14.3-4.7-17.5-5.5-17.5-4.5M1014.7 248.2c-.8 3.4-2.1 58.4-1.3 57.7.6-.5 3.4-6.8 12.2-27.3l3.4-7.8-4.4-8.2c-9.3-17.1-9.3-17-9.9-14.4"/><path d="M1045.5 259c-1.7 1.7-5.7 5.2-9.1 7.8l-6.1 4.7-7.9 18.3c-4.4 10.1-8.1 18.8-8.3 19.4-.5 1.4 40.4-19.6 43.2-22.2.5-.4-3.7-3.4-9.2-6.5-5.6-3.1-10.1-5.9-10.1-6.2 0-.5 5.8 2.6 15.8 8.4 2.5 1.5 4.2 2 4.2 1.3 0-2.1-8.3-28-9-28-.3 0-1.9 1.4-3.5 3M1049.5 293.2c-3.8 2.2-13.2 7.3-20.7 11.2l-13.7 7.2 13.2 1.7c7.3 1 14.9 2 16.9 2.3 3.5.5 3.8.4 5.3-3.2 2.3-5.5 7.4-23.4 6.6-23.3-.3 0-3.7 1.8-7.6 4.1M1058.1 294.6c-.7 2.1-2.4 7.6-3.9 12.1-1.4 4.5-2.3 8.5-2 8.8s3.1-.4 6.3-1.7l5.7-2.3-.6-4.5c-.4-2.5-1.5-7.2-2.5-10.4l-1.8-6zM1013.3 315.6c.4 1.6.4 2.3.1 1.6-1-2.2-2.1-1.3-3.3 2.9-.7 2.3-1.4 3.9-1.6 3.7-.3-.2.1-2.1.7-4.1s.9-3.9.6-4.3c-1.1-1-38.9 18.2-39.5 20.2-.2.5 6.5 4.5 14.9 8.8 17.3 9 16.6 9.1 18.8-1.7.7-3.4 1.4-5.7 1.7-5.1.2.6-.2 4.1-1 7.8l-1.4 6.6h4.2c5.2 0 10.4-1.7 12.8-4.1 1-1.1 2.2-1.9 2.7-1.9.6 0 1-.8 1-1.8 0-1.9-4.6-13.5-7.9-20.1-1.3-2.4-2.1-4.5-1.8-4.7.2-.2 2.7 4.4 5.5 10.3 6.8 14.4 6.8 14.3 8.6 11.8 1.2-1.5 1.6-1.6 1.6-.5 0 1 .7.7 2.1-1 1.2-1.4 3.5-4.1 5.3-6 3.4-3.7 10.6-14 10.6-15.2 0-.9-3.3-1.5-17.5-3.3-6.6-.8-13.3-1.8-14.9-2.1-2.7-.6-2.8-.5-2.3 2.2M1058 315.4c-8 3.1-8.4 3.4-13.8 11.6-6.6 10.2-7.3 12.2-3.4 10.1.9-.6 3.4-1.3 5.5-1.6l3.7-.6.1-5.7.2-5.7.9 6.5c1 5.9 1.1 6.3 2.5 4.5 2.3-3.1 10.4-19.6 10.1-20.5-.2-.4-2.8.2-5.8 1.4M967.7 338.6c.7.3.9 1.2.6 2-.7 1.8 1.6 29.3 2.6 31.2.5.8 4.4-1.2 12.9-6.9 10.2-6.8 12-8.4 11-9.6-.9-1.1-.9-1.6.2-2.3.9-.6-.6-1.8-5.1-4.1-17.8-9.1-21.5-10.9-22.4-10.8-.5 0-.5.3.2.5M1010.7 353c-3.2.4-6 1-6.3 1.3s0 1.6.7 2.9c1.3 2.3 21.1 27 21.4 26.5.1-.1 0-1.9-.3-4-.3-3.1-.7-3.7-2.3-3.2-1.3.4-1.9.1-1.9-.9 0-.9-.4-1.6-.8-1.6-.5 0-.9-.6-1-1.3-.1-.6-.4-3.2-.7-5.7s-.7-6.7-.9-9.5c-.2-2.7-.8-5-1.2-5.1-.5-.1-3.5.2-6.7.6M997.7 357.9c-5.3 3.1-25.6 16.6-25.6 17.1-.1.3 2.7 2.3 6.2 4.5 13.8 8.8 18.8 11.4 20.4 10.8 1-.4 1.4-.2 1 .4s1.5 2.7 4.4 4.8l5.1 3.6-.7-4.3c-.4-2.4-2.2-11.3-4-19.8s-3.5-16.2-3.7-17.1c-.3-1.5-.5-1.5-3.1 0M1003.3 361c1.8 10.1 7.7 37.3 8.1 37.8.3.2 2.7-1.5 5.3-3.9 2.7-2.4 5.9-5.3 7.2-6.6l2.4-2.2-6.9-8.3c-3.9-4.6-9.2-11-11.9-14.3-4.8-6-4.8-6-4.2-2.5M1068.4 380.5c.5 1.4-.6 1.9-4.1 1.8-1.2-.1-2 6.3-2.8 22.9l-.4 8.7 3.7 2.1c3.7 2.2 17 10.6 26.4 16.8 2.8 1.8 5.2 3.1 5.4 3 .7-.7-27.1-56.8-28.2-56.8-.3 0-.4.7 0 1.5M1019.8 394.1c-3.2 2.8-5.8 5.4-5.8 5.9 0 .8 11.2 5.4 16.2 6.5l2.7.7-2.6-8.4c-2.7-9-3.1-9.8-4.1-9.8-.4 0-3.3 2.3-6.4 5.1M1061.6 418.5c.4.8 1.5 1.5 2.6 1.5 1.2 0 2.3 1 2.9 2.9.7 1.8 1.6 2.8 2.4 2.5.7-.3 1.6-.1 2 .5.3.6 0 1.1-.7 1.1-.8 0-.9.3-.3.8.6.4 1 1.3 1 2.1 0 .7 1.5 2.2 3.3 3.1 2.4 1.3 2.8 1.9 1.7 2.3-.8.4-1.2 1.3-.9 2 .3 1-.5 1.6-2.7 2.1-4.2.8-7.6.8-8.2-.2-.2-.4-.2-.1 0 .7.2.9-.3 1.2-1.7.8-1.1-.3-2-.1-2 .4 0 1 12 .5 29.5-1l6.9-.6-6.9-4.6c-27.2-18-30.1-19.7-28.9-16.4M1088 442.2c-5.2.4-12.8 1.1-16.8 1.4-8.7.7-8.5 1.3 2 6.8l7.3 3.9 5.5-3.4c8.1-4.9 13.2-8.7 12.3-9.1-.4-.2-5.1 0-10.3.4M1060.8 483.8c.4 22.1-.1 20.8 5 15.1l4.4-4.9-2-5.8c-2.3-6.6-7.1-19.4-7.5-19.8-.1-.1-.1 6.8.1 15.4"/></svg>