<svg xmlns="http://www.w3.org/2000/svg" width="1706.667" height="960" viewBox="0 0 1280 720"><path d="M0 360v360h1280V0H776C328.5 0 272.1.2 272.6 1.5c.4 1 0 1.5-1.1 1.5s-1.5-.5-1.1-1.5C270.9.2 255.5 0 135.5 0H0zM663.5 44c.3.5 1.6 1 2.8 1.1 1.9 0 2 .1.4.8-2.7 1-2.6 1.6.9 5.3 1.7 1.8 5.3 6.2 7.9 9.8 2.7 3.6 5.2 6.7 5.5 7s2.3 2.7 4.5 5.5c2.2 2.7 7.2 8.9 11.2 13.7 4 4.7 7.3 9 7.3 9.4 0 1.4 8.3 9.4 9.8 9.4.7 0 2.3-1 3.5-2.3 1.2-1.2 5.6-4.8 9.7-8 4.1-3.1 9.5-7.4 12-9.4 3.7-3 3.5-2.7-1.1 1.8-5.1 4.9-8.9 8.2-18.4 16.2-3.9 3.3-2.8 4.4 5.5 5.2 3.6.3 12.1 1.2 18.9 2s12.8 1.2 13.3.9c.5-.4 1.9.3 3.1 1.4 2.7 2.5 12.6 8.4 27.3 16.3l7.1 3.8-.2-4.2c-.1-2.3-.5-5.2-.9-6.5-.4-1.2-.5-2.2-.2-2.2s1.5 3.4 2.7 7.4c1.2 4.1 2.7 7.7 3.4 8 .7.2 2.5-.2 4-1 4.1-2.1 4.1-1 0 1.4-1.9 1.2-3.5 2.5-3.5 2.9s.9 3.9 1.9 7.8c3.2 11.4 3.4 12.5 1.7 9l-1.5-3-.1 3.6c0 1.9.7 8.2 1.5 13.9.9 5.6 1.4 10.8 1.2 11.4-.5 1.5-3.7-19.4-3.7-24.4 0-5.2-2-13.4-3-12.3-.5.4-2.2 6.2-3.8 12.8-1.7 6.6-3.8 13.6-4.7 15.5-1 2.1-1.4 2.5-1 1 6.8-26.1 8.4-34 7-34-.3 0-2.7 1.4-5.3 3.1-2.6 1.6-9.4 5.8-15.1 9.2-13 7.7-13.8 8.8-9.1 12.9 4.8 4.1 18.6 14.5 20 15 .8.2-.1 4.8-2.6 13.8-2.1 7.4-4 12.8-4.2 12-.3-2 3.2-17 4.7-19.8.6-1.1 1.1-2.7 1.1-3.4 0-1.2-19.8-16.8-21.3-16.8-.9 0 5.2 21.8 7.2 25.8 1 2 2.6 6.3 3.6 9.5 1 3.3 2.4 6.1 3.2 6.4.7.3 1 .9.7 1.4s.1 1.2 1 1.5c.8.3 1.3 1.1 1 1.8-.2.6 1.4 3.2 3.7 5.6 2.3 2.5 5.3 5.8 6.8 7.4l2.6 3-4-3.1c-2.2-1.7-5.6-4.7-7.4-6.7-1.9-2-3.7-3.6-4-3.6-.4 0-.7 7.4-.8 16.5-.3 15.1-.1 16.5 1.5 16.6 1 0 1.2.3.5.6-2.5 1-1.2 3.2 5 8.7 6.6 5.9 7.3 7.2 1.7 3.1-1.9-1.4-3.9-2.5-4.6-2.5s2.6 5.7 7.3 12.7c4.7 7.1 9.2 14.3 9.9 16 .8 1.8 2.2 3.3 3 3.3 1.2 0 1.4.3.6 1.2-.5.7-1.2 2.2-1.5 3.3-.4 1.9-.5 1.9-.6-.1-.1-1.5-1.3-2.7-3.8-3.7-2.9-1.2-3.3-1.6-1.5-1.6 1.2-.1 2.2-.5 2.2-1s-2.2-4.5-5-8.8c-10.5-16.6-12.2-19.4-12.4-21-.2-.9-.8-1.9-1.5-2.1-1-.3-1.1 2.4-.6 11.9.4 6.8.8 13 1 13.6.3.7 1.9 1.9 3.7 2.7l3.3 1.5-3.3-.6c-3.6-.6-4.6-.4-24.9 6l-13.3 4.2v3.4c0 1.9.3 3.1.6 2.8.4-.3 1.5-.2 2.4.3 1 .5 4.1 1 6.9 1.1 4.9.2 5.3 0 9.4-4.3 2.3-2.5 5.3-6 6.6-7.7 1.3-1.8 2.6-2.9 2.9-2.6s-.3 1.4-1.4 2.4c-2.6 2.4-8.8 12-8.2 12.7.6.5 9.7 3.1 15.2 4.3l3.8.9-.6-4.2c-.4-2.2-.9-5.2-1.2-6.6-.4-2.1-.3-2.2.5-.5.4 1.1 1.9 4.7 3.1 8 1.3 3.3 2.5 6.2 2.6 6.4.2.2 1.7-1.1 3.4-3l3-3.4-2 3.9c-1.8 3.6-1.8 4.2-.5 6 .8 1.2 2.9 4.2 4.7 6.8s3.6 4.5 4 4.2.8.1.8.9c0 .7 1 2.3 2.3 3.5 1.8 1.7 2.6 1.9 3.5 1 .7-.7 1.2-1.8 1.2-2.4 0-.7.5-1.6 1.2-2 .7-.5.9-.2.6.7-1.9 5-1.8 5.5.9 6.7l2.8 1.2-2.8-.5c-2.5-.5-2.9-.1-5.3 5.2-1.8 4.1-2.6 7.8-2.7 12.5-.1 4.6-.6 6.8-1.4 6.8-.7 0-1.7 1.7-2.4 3.7-.9 3-2 4.2-5.2 5.7-4.1 1.9-5 2.6-9.2 7.5l-1.9 2.2 10.9-.3 11-.3 2.2-4.4c1.2-2.4 2.4-4.9 2.6-5.5s.8-.8 1.2-.4.1 2.2-.8 4c-2.3 5.2-3 7.8-1.8 7.8.6 0 1.1.5 1.1 1.1s-.8.9-1.7.7c-1.5-.3-2.2 1.2-4 8.7-1.5 6.6-2.2 8-2.2 5.4-.1-2 .4-6.1 1-9.3.7-3.1.9-5.9.7-6.2-.7-.6-17.4 1.6-20.6 2.8-1.3.4-2 1.2-1.7 1.8.3.5 0 2-.7 3.2-.7 1.3-1.1 2.6-1 3 .1.5-.4.8-1.2.8-2.2 0-2.5 6.7-.4 9 1 1 1.8 2.4 1.8 3 0 .5.5 1 1 1 .6 0 1-.3 1-.8 0-.4 3.2-4.1 7.1-8.2s8.2-9 9.6-10.8c1.4-1.7 2.9-3.2 3.5-3.2 1.7 0-1.5 4.5-8.6 11.7-3.8 4.1-7.9 8.7-8.9 10.4l-2 3 2.9-.6c1.6-.4 4.5-1.1 6.4-1.6 7.4-1.9 6.1-.6-2 2-6.8 2.2-8.6 3.2-8.8 4.9-.3 2.2-2.5 2-4.9-.4-.7-.6-2.8-1-5-.7-2.1.2-8.4-.5-14.1-1.7-11.1-2.2-16.2-2.5-16.2-1.1 0 .5 3.9 4.4 8.8 8.7 4.8 4.3 9.8 8.9 11.1 10.1 1.3 1.3 2.9 2.3 3.5 2.3s3.3-3.4 6-7.5c2.7-4.2 5.1-7.3 5.4-7.1.3.3-1.9 4.2-4.8 8.7-4.6 6.9-5.2 8.3-4.2 10 1.3 2 .6 2.4-2.2 1.3-.9-.3-1.6-1.1-1.6-1.8 0-1.7-23.6-23.5-24.4-22.5-.6.8 1.3 28.8 2.4 36.7.7 4.4 1 8.7.7 9.4s-.6-.1-.6-1.7c-.1-1.7-.5-4.5-1-6.3-.6-1.8-1.5-10.6-2.1-19.5s-1.6-17.4-2.2-19c-.9-2.4-1.5-2.7-5.7-2.7-6.5 0-31.2 1.9-32.1 2.5-.5.3-.2 2.2.5 4.3.7 2 2 6.6 2.8 10.2 2.3 10.2 7.5 26.6 11.9 37.5 6.6 16.8 7.1 18 7.8 18.8.6.7 9.7-7.6 13.9-12.8 1.3-1.7 3.1-3.8 3.9-4.8 1.6-1.9 2.6-.7-19-23.4-4.3-4.6-7.8-8.6-7.8-9.1 0-.4-1.3-2.3-3-4.2-4.3-5.1-3.6-6 1.1-1.5 3 3 4.8 4 7.2 4 2.6 0 3.1.3 2.9 2-.2 1.1-.9 2.3-1.4 2.7-.7.4-.3 1.6 1 3.3 4.7 5.9 16.7 18.7 19.4 20.7l2.9 2 2.9-2.7c1.6-1.5 4.1-4.7 5.6-7.1 1.6-2.4 3.2-4.4 3.6-4.4 1 0-6.9 12.1-8.6 13.2-.6.4-.7 1-.3 1.4.7.7 2.8.2 11.6-3.1 8.1-3 5.2-.8-3.4 2.5-4.7 1.9-8.5 3.8-8.5 4.3s2.2 3.7 4.8 7.1c2.6 3.3 5.2 6.8 5.7 7.6 1.6 2.8-3.5-2.3-7.2-7.2-5.8-7.5-5.4-8.1-11.9 15.2-1.4 5.2-3 9.9-3.4 10.4-1.3 1.3 4.2-21.9 6.5-27.9.4-1.1-3.1 1.8-7.9 6.5-4.7 4.6-8.6 9.3-8.6 10.2 0 2.7 6 12.8 7.5 12.8.9 0 1.6 1.8 2.1 4.7.3 2.7 1.1 5.6 1.6 6.5.5 1 .5 1.8 0 1.8s-1.3-1-1.9-2.2c-.9-2-1.1-1.9-4.8 2.6-2.1 2.6-5.9 5.9-8.4 7.3s-5.6 3.8-6.8 5.2c-2 2.3-2.5 2.5-4.4 1.3-5.1-3.2-21.1-11.2-22.4-11.2-.8 0-2.9.9-4.8 2-5.5 3.2-13.7 5.3-16.1 4.1-1.2-.5-5.3-2.1-9.1-3.4l-7-2.5-5 2.7c-10.9 5.8-16.5 9.3-16.5 10.2 0 1.7-3.7-.6-10.5-6.6-8-7-20.1-16.5-21.1-16.5-.4 0-3.6-1.9-7.3-4.2-10.6-6.7-16.7-9.8-19.4-9.8-1.9 0-2.7-.9-4-4.1-1.6-4-1.6-4.1.2-2.5.9.9 2.1 1.6 2.6 1.6 2.1 0 20.2-20.6 19.1-21.7-.7-.7-18.3-5.4-19.3-5.2-1.1.3-6.3-1.9-6.3-2.6 0-.4.5-.3 1 0 .6.3 1 .3 1-.2-.1-1.2-19.5-7.4-21.2-6.8-1 .4-2-.8-3.3-3.7-1-2.4-2.1-4.7-2.3-5.2-.3-.5.6 0 1.8 1.2 1.3 1.2 3.2 2.4 4.2 2.8 1 .3 1.6 1 1.2 1.5-.7 1.2 3.9 3.1 15.6 6.4 5.2 1.5 10.2 3.3 11 4 1.3 1.1 5.9 2.8 8.2 3 .3 0 1 .3 1.4.8 1 1 4.4.9 4.4-.2 0-.4-1.5-2.8-3.3-5.2s-4.1-5.8-5.1-7.4c-1-1.7-3-4.2-4.4-5.7s-2.3-3-2-3.3 2.9 2.7 5.9 6.7c5.5 7.6 10.4 12.8 11.9 12.8.5 0 1.2-1.2 1.5-2.8.4-1.5 1.1-4.7 1.6-7.2 1.4-6 2.5-37 1.3-37-.5 0-2.9 2.1-5.4 4.7-5.4 5.8-18.9 17.2-22.8 19.3-1.5.8-3.8 2.3-5.2 3.3-4.5 3.2-4.6 1.7-.1-2.1l4.5-3.9-2.2-3c-1.2-1.7-2.2-3.6-2.2-4.2 0-2.2 1.9-1 4 2.4 1.2 1.9 2.5 3.5 2.9 3.5.5 0 2.5-1.4 4.6-3 2.1-1.7 4.1-3 4.5-3 1.4 0 12-11 12-12.5 0-.8.4-1.5.9-1.5s1.1-.6 1.4-1.3c.5-1.4-4.8-1.1-25.5 1.4-10.7 1.2-11.2 1.6-8.3 7.4l1.5 3-2.5-3c-1.4-1.7-2.5-3.5-2.5-4.1 0-2-2.7-3.5-9.1-5-3.5-.8-6.8-1.8-7.3-2.3-.6-.5-2.4-1.1-4.1-1.5-3.4-.9-5.7-2.5-5-3.6.3-.4-.4-4.2-1.6-8.5-1.1-4.3-1.8-7.9-1.6-8.1.7-.7 3.5 7.7 4.2 12.5.7 4 1 4.4 5.9 6.6 2.8 1.2 6.8 2.5 8.9 2.9 3.5.7 3.7.6 2.9-1.1-.6-1-5.9-6.9-12-13.2-7.9-8.2-11.3-11.2-12.3-10.6-1.2.7-1.2.6-.1-.7 1.5-1.8.1-6.5-4.8-17-1.7-3.5-3-6.8-3-7.4 0-2.1-4.8-12-6.4-13.3-.9-.7-1.6-2.3-1.6-3.5 0-2 .4-2.2 3.3-1.7 2 .3 2.5.6 1.4.9-2.5.5-3.1-1.4 10 28.9 1.9 4.6 4.3 8.4 5.2 8.7 1.6.5 5.5 1.2 10.4 2 4.6.8 6.3-.4 3-2.1-2.4-1.1-2.9-1.9-2.6-4.1.3-1.9-.4-3.5-2.2-5.4-1.4-1.5-3-4-3.6-5.5-1.6-4.3-2.7-11.3-1.8-11.3.5 0-.5-2.4-2.1-5.4-3.3-5.9-3.7-7.4-1.7-5.7.8.6 1.8.7 2.2.3.5-.4.5-.1.1.5-.4.8-.1 1.3.9 1.3 1.2 0 1.5-.6 1-2.3-1-3.2-2.1-4-5.3-3.9-2.6 0-2.8-.2-2.4-2.6.3-1.5.7-2.1.9-1.5.7 2.1 2.1 1.5 8.5-3.5 7.3-5.6 12.8-11.1 12.8-12.6-.1-.6-.7-2.2-1.5-3.6-2.1-3.6-1.8-4.7.5-2.2 2.7 2.9 4.1 2.1 6.8-3.9 1.3-2.8 2.6-4.8 2.9-4.6.2.3 0 1.4-.6 2.5-.6 1.2-1.1 3.1-1.1 4.3 0 1.8.3 2 1.2 1.1.7-.7 2.8-1.2 4.8-1.2 4.4 0 15-2 15-2.9 0-1.4-4.5-7.9-9.3-13.3-3.5-4-5.7-5.8-7.4-5.8-3.3 0-20.6 5.8-21.8 7.3-.8 1.1-1.5 1.1-3.5 0-2.3-1.2-2.3-1.3-.4-1.3 1.1 0 2.4-.3 2.7-.6.4-.4 5.7-2.4 11.9-4.4l11.3-3.8.1-9.4c0-5.2.5-10.1.9-10.9.5-.8-.4-.3-1.8 1-1.5 1.4-2.7 3.3-2.7 4.3 0 1.1-.4 1.7-.9 1.4s-2.9 1.8-5.2 4.6c-2.4 2.9-4.6 5.5-5 5.8-.3.3-1.8 2.5-3.3 4.8-1.5 2.4-3 4.1-3.3 3.8s.9-2.8 2.8-5.5c12.3-17.7 16-23.3 15.6-23.7-.2-.2-3.1.9-6.3 2.6-6.5 3.4-4.6 1.4 4.2-4.5 6.8-4.4 7.1-5.2 3.4-7.3-5.4-3-6.7-4.3-2.6-2.6 6.5 2.6 6.8 2 6-11.3-.6-10.7-1-17.3-1.3-19.6-.1-1-7.8 5.2-15.1 12-2.5 2.4-4.9 4.3-5.5 4.3-1.1 0 10-10.7 15.3-14.8 1.8-1.4 3.1-2.9 2.9-3.5-.3-1-20.5-5.6-26.2-6-3.3-.2-3.3-.2-2.2 8.8 2.2 16.7 4 20.8 7.5 17.3 1.8-1.8 1.4-.1-.5 2.2-1.9 2.2-4.7 2.7-4 .7.2-.6-.2-2.4-.9-3.9-.7-1.4-1.9-5.9-2.5-9.9-.6-4.1-1.6-8.5-2.2-9.9-.5-1.4-1-3.4-1.1-4.5-.1-1.5-1.2-2.3-4.9-3.2-7.6-1.9-7.6-2-.7-1.9l6.5.1.6-6c.6-5.9.6-5.9.7-1.2.2 4.6.3 4.7 2.4 3.6 1.2-.7 6.2-5.1 11.1-9.9l8.8-8.7-3-7.9c-1.6-4.4-5.6-13.6-8.9-20.4-5.8-12-6-12.4-6.7-9.3-.4 1.8-1.1 3.3-1.6 3.3s-1.8 2.3-3 5c-1.2 2.8-2.3 4.9-2.6 4.7-.3-.4 1.3-4.6 5.6-13.9 1.1-2.6 1.8-5.3 1.5-6.2-.3-.8.1-2.5 1-3.8.8-1.3 1.7-5 1.9-8.3.5-7.1 3.9-23.9 5-24.3.4-.2.7-1 .7-1.8s.6-1.4 1.4-1.4c.7 0 5.1-2 9.6-4.6 4.5-2.5 8.4-4.3 8.7-4.1.2.3-3.1 2.4-7.4 4.8s-8.4 4.9-9.1 5.6-1.7 1.3-2.2 1.3c-1.4 0-5.9 23.5-5.7 29.7.2 3.9-.6 4.3 37.2-15.7l5-2.6 1.1-12.9c.9-11.4.9-17.3 0-18.2-.1-.2-2.2.6-4.5 1.8-5.1 2.4-6.8 1.8-1.9-.7 1.8-.9 4.3-2.7 5.5-4s2.8-2.4 3.6-2.4 3.1-.7 5.2-1.6c2-.8 3.9-1.3 4.2-1s-1.3 1.3-3.6 2.2c-2.2.9-4.1 1.9-4.1 2.3 0 .3 3.5 2.5 7.8 4.9 4.2 2.4 11.5 6.7 16.2 9.7 14.1 9 21.3 12.7 22.1 11.2.4-.7 1.9-2.5 3.3-4 2.5-2.7 9.6-13.2 9.6-14.2 0-.3 2.4-4.1 5.3-8.4 2.8-4.4 7-10.8 9.2-14.3 5.7-9.2 10.7-16 11.2-15.4.3.3-.8 2.2-2.4 4.3-3.3 4.2-16.4 26.1-18.5 30.8-.7 1.6-1.6 3.2-2 3.5-1.4 1.1-9.8 14.4-9.8 15.6 0 2 1.4 2.4 10.7 2.9 4.8.3 10.9.7 13.4 1.1 3 .3 4.9.1 5.4-.6.4-.6 2.4-1 4.5-.8 2.4.1 4.6-.4 5.7-1.4 2.3-1.9 5.3-3 5.3-1.9 0 .5 1.7 1.1 3.8 1.4 2 .3 5.5 1 7.7 1.6s7.7 1.4 12.3 1.7l8.2.6v-3.5c0-3.5-2-6.3-3.5-4.9-.5.4-.5.2-.1-.5.7-1.3-1.5-4.2-19.9-27.3-5.5-6.9-11.8-14.9-13.9-17.7-4.1-5.4-7.5-7.1-11.7-5.8-1.5.5-1.9.4-1.5-.4.4-.6 1.6-1.1 2.6-1.1s2.2-.5 2.5-1c.3-.6 1.5-1 2.5-1s2.2.4 2.5 1m-225.1 76.2c-.4.6 0 1.4.7 1.9.9.6.4.7-1.4.3-3.5-.8-6.7.7-12.8 6.1-2.5 2.2-8.9 7.8-14.2 12.4s-9.7 8.7-9.7 9.2 6.2 1 13.8 1.1l13.7.3-14.2.9-14.1.8 2.2 4.2c2.3 4.1 20.1 32.4 27.9 44.3 2.2 3.5 4.4 6.3 4.9 6.3.4 0 .8.4.8.8 0 .5-1.5.9-3.2.9-1.8 0-2.7-.2-2-.5 1.9-.6 1.5-1.7-3.5-8.7-2.7-3.7-5.2-7.4-5.8-8.3-8.6-14.1-17.9-28.2-19-29.2-1.2-1-1.5-.9-1.5.9 0 1.4-.6 2.1-2 2.1-3.1 0-5.9 3.8-5.8 7.7.1 1.9.7 3.7 1.5 4 2 .8 1.5 4.3-.9 6.4-1.3 1-1.7 1.8-1 1.9 1.8 0 1.6 6-.3 6-.8 0-1.5-.6-1.5-1.3-.1-.6-.6-.2-1.3 1.1-.7 1.2-2.3 2.9-3.5 3.8-1.5 1-2 2.2-1.7 3.7.3 1.2.1 2.9-.5 3.7-.9 1.3-1.1 1.3-2 0-.8-1.3-1-1.2-1 .2 0 1.9-1.6 2.5-2.2.7-.2-.7-1.1-.7-2.8 0-2 .8-2.1 1-.6 1 1.5.1 1.7.6 1.3 3.1-.6 2.9.6 5 1.8 3 .8-1.3 2.5-1.3 2.5 0 0 .5-.7 1-1.5 1s-1.5.5-1.5 1.1-.6.9-1.4.6c-.9-.4-2.1.5-3.1 2-1 1.4-1.2 2.3-.7 1.9.6-.3 1.2-.1 1.4.5.3.9 4.8.4 15.7-1.7 8.5-1.5 14.8-3 14-3.2-.8-.3-1.8-1.1-2.2-1.9-.5-.7-1.2-1.1-1.8-.8-.5.4-.9-.1-.9-.9 0-.9-.4-1.6-1-1.6-1.2 0-.7-3.7.7-5.1.6-.6 2.3-.9 3.9-.7 2.4.2 2.9.8 3.2 3.3.6 7.3 1 7.7 5.2 7.3 2.2-.2 3.6-.1 3.2.3-.8.7-.1.5-41 8.6-17.1 3.3-29.1 6.1-28.9 6.7s3.2 3 6.8 5.4c3.5 2.4 7.5 5.4 8.9 6.6s5.3 4.3 8.8 6.9c3.4 2.7 6.2 5.1 6.2 5.4s-1.6-.7-3.6-2.2c-1.9-1.5-7.2-5.2-11.7-8.2-4.5-3.1-9.2-6.6-10.4-7.7-3.4-3.2-5.2-4.6-5.9-4.6-.6 0-.5 3.8 1.1 25.5.2 3.3.9 21.3 1.6 40 .6 18.7 1.5 34.4 2 34.9s1.4.4 2.3-.3 2.1-1.1 2.7-.9c.7.2-.2 1-1.9 1.7-3.3 1.4-3.6 2.3-4.6 12.1-1.3 12.5-2.7 24.6-3.1 25.7-.2.7-.1 1.3.3 1.3.7 0 34.1-18.5 41.5-22.9 2-1.3 3.7-1.9 3.7-1.4 0 .4-2.6 2.3-5.8 4-7.1 4.1-12.5 7.2-22.7 13.2-4.4 2.6-9.7 5.6-11.7 6.6-2.1 1.1-3.8 2.3-3.8 2.7s1.7 1.1 3.8 1.7c2 .5 5.5 1.4 7.7 2l4 1-4.5-.6c-2.5-.3-6.4-1.1-8.7-1.8-3.2-1-4.5-1-5.2-.1-.5.6-2.3 6.8-4.1 13.9-1.8 7-3.5 12.5-3.7 12.3s1-5.9 2.6-12.7c1.7-6.7 2.9-12.4 2.7-12.6s-2.6 1.1-5.4 2.9c-2.9 1.8-9.5 6-14.7 9.3-15.2 9.5-17.9 11.6-16.5 12.5.8.5 0 .7-1.9.5-1.7-.1-3.7-.9-4.4-1.7-3.8-4.7-15-9.6-17.4-7.6-.8.6-1.2 2-1 3 .3 1 .1 2.1-.5 2.4-.9.6-1.8 2.5-3.3 7.3-.7 2.2-.5 2.3 2.1 1.8l2.9-.6-3 1.4c-3.1 1.5-7.9 2.1-5.8.7 1.8-1.2 7.2-17.2 5.8-17.2-.5 0-12.1 12.1-15.5 16-1.5 1.8-1.9 2-1.1.5.8-1.8 5.8-7.8 14.2-17.3 2.4-2.6 2.6-3.2 1.2-3.2-3 0-16.8 4.2-17.5 5.4-.4.6-.8 4.7-.9 9.1l-.2 8-.8-7.4c-.5-4.1-1-7.5-1.1-7.7-.4-.3-9.8 11.5-10.4 13.1-.3.7.9 1.7 2.8 2.3l3.3 1.1-3-.1c-1.6 0-3.3 0-3.8.1-.4.1 0 1.7.8 3.8.8 2 1.4 3.8 1.1 4-.2.2-.9-1.1-1.6-2.8-1.2-2.8-1.5-3-2.1-1.3-.6 1.4-.8 1.1-.8-1.5-.1-3.3-.2-3.3-3.8-2.8l-3.8.5 3.8-1.1c4.2-1.2 4.5-2.3 2.7-13.7-1.8-11.7-1.8-11.6-5-11.8-3.3-.3-3.9 1-6.4 14.3-2.9 15.1-2.9 15.7 1.4 24.8 2.1 4.5 5.7 12.4 8 17.5 2.2 5.2 5 10.3 6 11.5 1.1 1.1 2 2.5 2 2.9 0 .5.5.6 1.2.2.8-.5.9-.2.5 1.1-.5 1.2 1 4.1 5 9.7 3.2 4.4 6.7 8.9 7.9 10.1 1.1 1.2 2.4 3 2.7 4 1.1 3-2 .6-5-4-6.4-9.6-11.7-16.8-12.5-17.1-.4-.2-.8-.9-.8-1.6s-1-2.8-2.3-4.7c-1.2-1.9-5.1-9.9-8.6-17.9-7.4-16.9-10-21-7.1-11 .6 1.9 2.8 12.5 5 23.5 5.5 28 4.7 25.6 7.5 20.9 3-4.8 3.2-3.9.4 1.5-1.1 2.2-2.1 4.8-2.1 5.8-.2 3.4 2.3 13.3 3.8 14.7.8.8 1.3 1.9 1.2 2.3s.6 2.4 1.6 4.3l1.7 3.5-2.8-3.3c-2.3-2.7-3.1-3.1-4.2-2s-1.2 1-.3-.8c.8-1.5.6-3.8-.7-8.9-.9-3.8-2-6.5-2.3-6-.3.6-1.3 4.4-2.3 8.5-.9 4.1-2.4 10.1-3.4 13.3-1.4 4.5-1.5 5.7-.4 5.3 1.6-.7 1.7.6.1 2.2-1 1-1 1.5.2 2.3 1.1.7.8.8-1.2.5-1.5-.2-6.4-3.6-10.9-7.5-4.6-3.8-8.7-6.7-9.2-6.4s-.6-.3-.3-1.3c1.1-3.5 2.6-12.7 2.6-15.7 0-2.9-.1-3-1.5-1.1-.8 1-1.5 1.5-1.5 1 0-1.6 2.4-8.1 3.3-8.7 1.2-.9-.3-5.9-1.8-5.9-.7 0-1.9-1-2.8-2.3-3.8-5.7-6.5-7.7-10.9-7.8-3.7-.1-3.9-.2-1.4-.8 2.8-.6 2.5-.9-6.3-6.3-7.9-5-9.1-5.5-8.6-3.5 1.4 5.2 3.9 9.7 5.6 10.2 1 .4 1.8 1.1 1.6 1.8-.1.6.7 1.2 1.8 1.4 3.5.7 17.5 6.6 17.5 7.5 0 .4-.8.4-1.8-.1-.9-.5-4.8-2.1-8.7-3.6-12.1-4.7-15.8-6.9-17.9-10.5l-1.9-3.5 3.1 3.5c3.1 3.5 4.4 3.2 1.7-.4-.8-1.1-1.5-2.8-1.5-3.8s-.7-2.9-1.5-4.2c-1.4-2.2-1.2-2.9 4.4-13.7 3.2-6.3 6.2-12.8 6.6-14.4.3-1.7 2.5-6.8 4.7-11.5s4.2-9.9 4.3-11.5c.2-1.7.3-3.4.4-3.8.1-.5.6-.5 1.3-.1.6.4.8.3.5-.3-.4-.6 1.9-6.4 5-12.9 6.7-14.1 7.6-20.6 5-35.1-3.1-17.2-4.7-27.7-4.2-28.2.3-.2.7 1.5 1.1 3.8.8 4.7 2.1 5.4 2.7 1.3.2-1.5.5.1.6 3.5.1 6.1.2 6.4 4.7 10.5 2.5 2.4 4.9 4.4 5.3 4.6.4.1 1.2-1 1.9-2.5l1.2-2.8-.4 2.9c-.4 2.9.7 8.1 2.3 10.5 1.1 1.8 4.6-.1 5.4-2.9.4-1.7 0-2-2.9-2-1.9 0-3.4-.5-3.4-1 0-.6 1.2-1 2.8-1 5 0 5.7-1.2 3.6-6.6-1-2.7-3.1-7.3-4.7-10.2-1.6-2.8-2.6-5.2-2.3-5.2 1.5 0 2.3-.3 6-2.4 10.7-5.9 10.6-5.6 6-11-4.1-5-5.5-5.3-6.5-1.5-.7 2.3-.7 2.3-.8.2-.1-1.2.4-2.5 1-2.9.8-.4.7-.9-.2-1.5-1.1-.8-.9-1.3.9-2.8 1.2-1.1 2-2.6 1.6-3.4-.3-.8 1.5-6.8 4-13.2s4.4-12.1 4.1-12.6c-.3-.4.1-2.2 1-3.9s1.4-3.7 1.2-4.3c-.2-.7.2-1.7.8-2.3.6-.7 2.6-8.3 4.4-17.1 1.8-8.7 3.9-18.1 4.6-20.8 2.5-9.7 1.5-1.2-2 15.6-1.9 9.4-3.5 17.7-3.5 18.4 0 1.8 2.1 1.1 7.4-2.4l3.8-2.5-.7-10.1c-.4-5.5-1.3-13.6-2-17.9-.8-4.4-1.2-8.3-.9-8.8 1-1.6-.9-.8-2.2.9-1.2 1.6-9.3 13.3-20.3 29.5-1.8 2.7-3.5 4.8-3.7 4.8-.7 0-.6-.2 12.5-19.8 14.2-21.1 14.2-21.1 13.8-24.2-.2-1.4-.2-1.9 0-1.2.3.7.9 1.2 1.5 1 1.3-.5 12.9-20.3 17.4-29.8 3.2-6.8 5.2-9.1 20.2-23.7 9.2-8.9 16.8-16 17-15.8s-6.8 7.5-15.6 16.2c-12.9 12.7-16.6 17-19.1 22.1-3.9 8-13.8 25.8-16.4 29.6l-2 2.8 2.4-.7c2.6-.9 31.8-14.8 45.4-21.7 4.6-2.3 8.1-4.6 7.7-4.9-.9-.9-20.3-7.4-26.9-9-2.9-.7-5.3-1.7-5.3-2.2 0-.4.8-.6 1.8-.3.9.3 3.7 1 6.2 1.6 2.5.7 5.9 1.8 7.5 2.5 1.7.8 6.7 2.5 11.3 3.9l8.2 2.4.2-2.1c0-1.2.1-2.8.1-3.5-.1-2.1 1.5-1.3 1.9 1 .2 1.7 2.7-.7 12.9-12.3 7-7.9 13.8-15.5 15.3-16.8 1.4-1.4 2.6-2.9 2.7-3.5s2.7-3.3 5.8-6.1c5.2-4.6 5.3-4.7 1.7-.7-2.2 2.3-3.8 4.3-3.5 4.6.2.2 4.6-.3 9.8-1 5.2-.8 9.6-1.2 9.8-1s-3.9 1.2-9.3 2.1c-10.7 2-10.7 2.7-.1 4.9 3.4.8 10.2 3.5 15.2 6 4.9 2.6 11.3 5.4 14.2 6.3l5.2 1.6 6.3-5.2c3.5-2.9 10.7-8.9 16.1-13.3s10-8.6 10.3-9.4c.2-.8.6-2 .8-2.7.2-.9 1.7-1.1 4.5-.9 2.4.2 3.8.8 3.5 1.4m513.5 13.3c2.4 1.9 5.2 3.5 6.2 3.5 1.2 0 1.6.5 1.3 1.4s2.9 5.2 8.4 11.3c5 5.4 12.3 13.5 16.4 18 4 4.5 7.5 8.2 7.8 8.2.3.1.5-1.8.3-4.2l-.2-4.2 1.1 4.5c.6 2.5 1.2 4.6 1.3 4.8.6.7 26.2-6.8 28.7-8.5 1.2-.7-1.2-3.2-20.4-21.4-12.5-11.9-16.2-14.9-18.5-14.9-2.2 0-2.5-.2-1.3-1 .8-.5 2.1-1 2.8-1s9.6 8.2 19.8 18.2c10.2 10.1 19.6 19 21 19.8 1.3.8 2.4 2.2 2.4 3.2 0 1.6 4.8 11.3 13.8 27.7 2.2 4 3.7 5.9 4.2 5.1.4-.6 1 .9 1.4 3.7.3 2.7 2.2 8.2 4.2 12.3 3.7 7.9 3.7 8.5-.3 2.3-1.7-2.7-2.3-3.1-2-1.6.3 1.3.1 2.3-.4 2.3s-.9 6.4-.9 14.3v14.4l3.1 2.7c1.7 1.5 3.3 2.6 3.5 2.4.2-.3-1-7.1-2.6-15.3-1.7-8.2-2.9-15.6-2.7-16.5.2-.8.9 1.2 1.5 4.5 2.6 12.7 6.6 29.1 7.4 30.2.5.6 2.7 1.4 4.9 1.8 2.1.4 4.1 1 4.4 1.5.3.4-1.2.4-3.3-.1-6.2-1.4-6.2-1.5-4.7 4.8 1.2 5.2 6.1 20.8 8.1 25.7.5 1.4.4 1.7-.4 1.2-1.7-1-1.5-.3 1.3 5.1l2.5 4.8-.5-18c-.7-21.8-1-24.9-3.5-30-2.2-4.6-10.9-25.3-11.6-27.5-.2-.8 2 3.4 5 9.5 3 6 5.5 10.5 5.5 10 0-.6-3.5-13.4-8-28.5-4.4-15.1-8.5-29.3-9.1-31.5-1.2-4.3-3.1-7.4-2.1-3.4.3 1.3.3 2.1-.1 1.8s-.9-2.4-1.1-4.5c-.7-5.4-1.5-7.6-3.3-9.7-.9-1-1.1-1.7-.4-1.7.6 0 1.8 1 2.6 2.2 1.6 2.5 13.9 39.3 15 44.8.4 1.9 2.8 10.6 5.3 19.3 2.4 8.7 4.6 16.8 4.8 18s.8 4.7 1.4 7.7c1.3 7.2 1.8 56.8.7 83l-.8 20.5 6.1 14.5c3.4 8 8.2 18.8 10.6 24 2.5 5.2 4.5 10.1 4.5 10.8 0 1.9 3.1 7.6 4.6 8.5.7.4 1.1 1.4.8 2.2-.6 1.4 3 10.5 4.1 10.5.3 0-.1-1.2-.8-2.8-3-5.7-2.7-7.5.3-2.2 2.8 4.9 3 6 2.4 10.9-.5 4-.9 5-1.6 3.7-.5-.9-.6-2.1-.3-2.6 1.6-2.6-24.3 14.3-29.5 19.3-3.9 3.6-4.5 4.7-4.2 7.6.3 2.5.6 3.1 1.3 2 .6-.9.9.3.9 3.8 0 2.9.4 5.3.8 5.3 1.4 0 5.6 13.5 4.9 15.4-.9 2.2-3 1-2.3-1.2.3-1 .1-2.4-.4-3.2-.8-1.2-1-1.1-1 .5 0 1.2-2.7 5-6 8.5-6.3 6.8-6.9 8-4.5 8 2.2 0 5.5 3.6 4.3 4.8-.6.6-2-.1-3.8-1.8-2.5-2.4-3.7-2.7-7.7-2.4l-4.8.3 3.8-1.1c2-.6 3.7-1.4 3.7-1.7-.1-1.6-8-14.7-10.5-17.3-3.2-3.4-13-10.8-14.3-10.8-.4 0-.8-1.7-.9-3.8q0-3.6.6-1.8c.6 1.5 1.8.2 6.2-6.5 4.9-7.4 8-15.3 8-20.2 0-.9.4-1.5.9-1.2.7.4 11-29.5 11-32.1 0-.6-1.5-1.5-3.4-2.1l-3.4-1-1.1 5.5c-.6 3-1.1 7.1-1.2 9.1 0 2.9-.2 3.2-.9 1.6-.4-1.2-.3-5.1.4-9 .7-4.3.9-8.5.4-10.9-.6-2.6-.4-4.3.3-5.3.7-.7.9-1.7.5-2-.4-.4-1.1-.2-1.5.6-.6 1-1 .9-1.5-.4-1-2.6-.7-4.2.5-2.5.8 1.2.9 1 .7-1-.2-1.4-.7-2.4-1.3-2.3-1.4.3-2.3 4-2.4 10.5-.1 4.9.2 5.8 1.7 5.8 1.6.1 1.6.1 0 1.1-1 .5-1.8 1.9-1.8 2.9s-.5 2.2-1 2.5c-.7.4-.9-.2-.5-1.8.6-2.3.3-2.5-6.2-4.2-3.7-1-11.4-3.4-17.1-5.3-5.6-1.9-10.5-3.2-10.9-2.9-.3.3.4 2.5 1.6 4.9 2 4 2 4.1.2 1.8-1.1-1.4-2.1-2.9-2.1-3.3s-.8-1.6-1.8-2.7c-1.7-1.9-2-1.8-14.1 1.1-6.8 1.6-12.6 2.7-12.8 2.5s4.7-1.6 10.9-3.1 11.6-3 12-3.3c.7-.7-2.2-2.7-22.7-16-16-10.2-14.8-9.8-26.6-7.8-5.5 1-10.3 1.6-10.5 1.3-.3-.3 2.8-1 6.8-1.7 4-.6 8.4-1.5 9.8-1.9 2.4-.8 2.4-.9-2-3.6-16.3-9.9-41.7-24.4-43.6-24.9-1.4-.4-2.4-1.4-2.4-2.4s.3-1.3.8-.7c.4.6 3.2 2.3 6.2 3.8s7.8 4 10.5 5.7c2.8 1.6 5.7 3.3 6.5 3.7s3.5 1.9 5.9 3.5c2.5 1.5 5.3 2.8 6.4 2.8 1 0 3.1 1.3 4.7 2.9s4.8 3.8 7 5l4.2 2.2-.7-4.8c-.6-4.8-2.1-17.1-3.2-26.9-.5-4.6-.9-5.4-4.2-7.3-3.2-2-2.1-2.4 2-.7 2.1.9 2.9-2.8 3-13.9 0-4.4.4-11.6.9-16 .8-7 2.1-22.9 4.8-58.3.4-5.2.4-9.6-.1-9.9-.4-.2-7.4 4-15.5 9.4-18 12-17.6 11.8-16.8 10.5.3-.5 7.6-5.6 16.1-11.3s15.5-10.7 15.5-11-13.2-3.6-29.2-7.3c-36.2-8.3-52.8-12.4-50.8-12.5.8 0 6.7 1.1 13 2.4 33.4 7.1 31.1 6.8 32.7 4.8 1.3-1.7 1.4-1.7.8.3-.5 1.9 0 2.3 3.2 3 2.1.4 5 .8 6.5.8 1.4.1 2.4.4 2.2.7-.2.4 2.2 1.1 5.4 1.7 3.1.6 7.6 1.5 10 2 4.4 1 5.3.3 2.6-1.8-1.7-1.5-5.2-2.2-10-2.3-2.4 0-3.1-.4-2.6-1.5.4-1.2-.3-1.4-4.1-.8-4 .6-4.6.5-4.1-.8.3-.9.2-1.6-.3-1.6s-.9-.9-1-2 .2-2 .8-2c1.6 0 1-1.5-1.3-2.9-2.1-1.3-2.2-1.3-1 .2 1.6 1.9.8 3.7-1.6 3.7-1.3 0-1.4.2-.3.9 1 .7 1 1 .1 1.6-.7.4-1.5.3-1.9-.2-.3-.6-1.3-1.2-2.1-1.5-.9-.3-.2-.9 2-1.5 3-.9 3.2-1.1 1.5-1.8-1.1-.5-2.7-1.4-3.5-2-1.8-1.5-11-2.6-11-1.4 0 .5-.4.9-1 .9-.5 0-1-1.4-1-3 0-3.2-.8-3.9-5.6-4.4-1.6-.2-3.2-.4-3.6-.5-.5 0-.8-1-.8-2.1 0-1.3.7-2 2-2 1.1 0 2-.5 2-1.2 0-2.8-2.5-7.7-4.2-8.1-1.4-.4-1.8-1.5-1.8-5.7 0-4.7-.2-5.1-2-4.5-3.1 1-4.6-3.9-2.6-8.5.9-1.9 1-2.7.3-1.6-.6 1-2.5 3.5-4 5.5-1.6 2-3.6 4.9-4.4 6.6-.9 1.6-1.9 3.2-2.2 3.5-1.1.8-9.1 13.9-9.1 14.9 0 .4-.7 1.4-1.6 2.2-.8.7-2.4 3-3.5 5.1-1.3 2.6-2.4 3.6-3.5 3.1-1.3-.5-1.1-1 1-3.2 1.3-1.4 4.5-6 7-10.1s6.6-10.9 9.1-15c15.6-25.2 16.3-26.5 14.6-26.8-.9-.1-5.6-.6-10.6-1.1l-9-.8 10.3-.2c6 0 10.2-.5 10.2-1.1s-.5-1-1.1-1c-1.2 0-19.6-13.7-20.5-15.2-.3-.5 5.1 3.2 12.1 8.2l12.6 9.1 6.2-2.4c3.4-1.4 7.3-2.8 8.7-3.2 7.4-2.1 24.7-9 25.6-10.1.6-.8 1.4-1.1 1.7-.7.4.3.7.2.7-.3s-1.9-2.4-4.2-4.2-3.7-3.2-3.2-3.2 2.9 1.6 5.3 3.5m-726 65.1c-2.2 8.7-4.7 17.8-5.5 20.2-1.6 4.9-1.9 9.2-.3 5.3.5-1.3 1.2-2.2 1.4-1.9.7.6-3.2 11.6-5.1 14.5-.8 1.3-1.2 2.8-.9 3.3.3.6.2 1-.3 1s-1.7 2.8-2.6 6.2c-1 3.5-2.3 7.9-3.1 9.8-.9 2.4-1.4 9.1-1.5 20-.1 9.1-.6 20.1-1 24.5s-.5-3-.2-16.5c.5-23.2.7-25.1 3.4-35 6.1-21.7 6.2-22.1 7.5-21.6.7.3 1.3.1 1.3-.4 0-.6-.5-1-1-1-1.1 0-.8-2.1 1.7-11 7-25 9.6-34 9.9-33.7.2.2-1.5 7.5-3.7 16.3M852 310c0 .5-.6 1-1.2 1-1.9 0-7.2 5-9.6 8.9-1.9 3.1-1.9 3.7-.7 7.8.8 2.5 1.1 5.1.8 5.9s0 1.4.6 1.4 1.1-1 1.2-2.3c0-1.2.3-1.6.6-1 .2.7 1.2 1.3 2.1 1.3 1.4 0 1.3.3-.4 1.8-1.2.9-2.7 2.8-3.4 4.2-1.3 2.3-1.4 2.4-2.1.5-.4-1.1-.8-4.9-.8-8.5-.1-5.9-.2-6.3-1.7-4.9-.8.9-1.8 3.5-2.1 5.8-.3 2.2-1 4.1-1.6 4.1-1.3 0 .3-20.4 1.8-21.8.3-.3.5.9.5 2.6 0 1.8.5 3.2 1.1 3.2 1.2 0 6.9-6 6.9-7.2s-1.8-1.9-2.5-.8c-.9 1.4-2.7 1.2-2.3-.3.3-.6 2.7-1.5 5.4-1.8s5.5-.7 6.2-.7c.6-.1 1.2.2 1.2.8m-408.7 48.2c.4 1.2.2 2.7-.2 3.2-.5.6-.3 4.5.5 9 1.7 10.1 2.3 11.8 3.6 11 .8-.5.9-.1.5 1.2-.6 1.5-.4 1.4 1.1-.4 2.3-3 2.6-7.2.7-10.8-2.6-5-1.7-4.8 3.5.6 4.5 4.7 5.5 6.3 4.8 7.3-.2.2.3 1.1 1 2 .8.9 1.1 2.1.7 2.6-.3.7 0 .8.9.5s1.6-.1 1.6.5-.4 1.1-1 1.1c-.5 0-1 .5-1 1 0 .6.7 1 1.6.8 1.3-.2 1.7.6 1.9 3.7.2 2.2.1 3.3-.1 2.5-.4-1.2-2-1.5-6.9-1.5-3.6 0-6.5.2-6.5.3 0 .2 1 1.2 2.3 2.3 2.8 2.3 1 2.5-2 .1-2-1.6-7.3-13-7.3-15.9 0-.7-.3-1.3-.7-1.3-.5 0-.9-5-1-11-.1-10.3.7-13.9 2-8.8m408.8 12.5c-1.5 13.3-3.9 25.3-5.2 25.3-.5 0-.9-.9-.9-2 0-1.5-.7-2-2.6-2-1.7 0-2.8-.6-3.1-2-.3-1.1-.9-2-1.3-2-1.2 0-3-4.9-2.3-6.6.6-1.7.9-3.6 1.3-9.4.1-1.9.4-2.7.7-1.8.5 1.9 3.3 2.5 3.3.8 0-.6.5-1 1-1 .6 0 1 1.7 1 3.7-.1 5.8.2 7.2 1.6 6.6.6-.2 1.6.8 2.2 2.4l1 2.8.3-2.5c.1-1.4.3-3.6.3-5 .2-4.1 1.7-16.4 2.2-17.9.2-.8.7-1.1 1.1-.8.3.4.1 5.5-.6 11.4m-380.4 24.5c.8.9 1.3 2.5 1.2 3.5s.1 3 .6 4.6c.5 2.1 1 2.5 2 1.7.9-.8 1.4-.4 1.8 1.7.3 1.6.1 2.9-.4 3.1s-.9 1.2-.9 2.3c0 1.2-.5 1.6-1.4 1.3-.8-.3-3.7.7-6.5 2.1-6.3 3.3-8.3 2.9-7.5-1.7.4-1.8 1.5-5.3 2.5-7.7l1.9-4.3-3.5.6c-2.8.6-3.6.3-4.5-1.4-1-1.9-.9-2 1.7-1.3 3.6.9 9 .9 10 0 .4-.4.6-2.7.5-5 0-2.3.2-3.5.5-2.7s1.2 2.2 2 3.2m571.7 107.5c-5.3 8.4-6.5 11.1-4.4 9.8.6-.4 1.9-.4 2.8 0 1.4.7 1.3.9-.7 1.4-2.3.6-2.1.9 3.5 5.4 3.2 2.6 6.2 4.7 6.6 4.7.3 0 1.5-1.5 2.6-3.4l2-3.4-2.1-.7c-1.9-.7-1.7-.8 1.3-1.4 2.2-.4 4.6-.1 6.3.7 2.9 1.5 3.7 4.2 1.1 4.2-1.3 0-1.5.7-.9 3.7.4 2.1.8 4.2.9 4.8.4 2.2 1.8 3.4 3.3 2.8 1.1-.4 1.4-.3.9.6-.9 1.3-3 .9-9.4-2-2.4-1.1-5.1-1.7-6.1-1.4-.9.3-5.2 4.1-9.5 8.5-4.3 4.5-8.1 7.8-8.4 7.5-.4-.3 3.4-4.3 8.2-8.9 4.9-4.6 8.7-8.8 8.5-9.3-.2-.6-3.3-3.5-6.8-6.6-4.7-4.1-6.8-5.3-7.7-4.6-.9.8-1.1.5-.7-1.3.4-1.3 1.2-2.6 1.9-3.1.7-.4 2.9-3.5 5-7 3.4-5.7 6.3-9.7 7-9.7.1 0-2.2 3.9-5.2 8.7m-463 14.9c2.6 5.2 5.3 9.3 6 9.1.6-.2 2.1-1.8 3.4-3.7 2.8-4.2 2.9-2.9.1 1.7-3.1 5.1-1.9 5.7 11.8 5.7 8.9 0 9.8.1 3.8.4l-8 .4 11.5 2.4c6.3 1.3 13.8 2.6 16.5 2.9 2.8.2 12.8 1.3 22.3 2.3 16.3 1.7 22.4 1.4 15-.7-2.9-.8-2.7-.9 2.7-.8 3.3 0 9.4-1 13.5-2.2s7.9-2 8.5-1.8c.5.2-1.6 1-4.7 1.6-15.9 3.4 1.9 4.3 22.2 1.1 18.7-2.8 26-4.3 26-5.2 0-.4-.8-.9-1.7-.9-1-.1.8-.5 4.1-1 3.2-.5 6.4-1.3 7-1.8.7-.6 1.7-.6 2.6-.1 1.2.8 1.2 1 .1 1-1.3 0-1.2 2 .3 6.5.4 1.1 0 .8-.9-.8-1.9-3.3-3.5-3.4-6.5-.2-1.2 1.3-5.8 5-10.1 8.2-7.9 5.9-10 8.6-8 10.6.6.6 1.1 1.5 1.1 2.1 0 .5-.9 0-2.1-1.3-2.2-2.3-3.7-2.2-9.1.5-1.5.8-3.6 1.4-4.6 1.4-1.1 0-2.5.7-3.2 1.5-.7.9-1.9 1.4-2.6 1.1s-4.8.3-9.1 1.4c-25.6 6.2-24.4 6-30.8 4.6-21.6-4.7-29.8-6.8-36.1-8.9-4.8-1.7-7.6-2.2-8.7-1.5-1.3.7-1.5.5-1.1-.6.3-.9-1.1-2.6-4.3-4.7-2.6-1.8-6.1-4.6-7.8-6.1-1.6-1.5-3.3-2.8-3.7-2.8s-1.3-.6-2-1.3c-3.2-3.2-6.2-4.6-7.4-3.6-.9.7-1.3 0-1.9-2.8-.3-2.1-2.9-8.2-5.6-13.6-2.7-5.3-4.6-9.7-4.2-9.7.5 0 3 4.3 5.7 9.6m-362.3-1.7c1.8.6 5.4.4 10.4-.3 3.5-.6 3.7-.5 1.8.5-1.3.7-2.3 1.6-2.3 2 0 1.1 5 6.9 6 6.9.4 0 3.6-1.6 7-3.5 3.5-2 6.5-3.4 6.7-3.1.6.5-4.7 4.2-7.3 5-1.2.4-2.8 1.4-3.7 2.4-1.5 1.6-.9 2.3 7.5 9.5 5.7 4.7 9.4 7.3 9.8 6.6.5-.6.9-.2 1.3 1 .3 1.2.2 2.1-.1 2.1-.4 0-5.2-3.6-10.7-8-5.4-4.4-10.7-8-11.7-8-.9 0-3.2.8-5 1.8s-5.2 2.2-7.5 2.5c-2.3.4-5 1-6 1.4-1 .3-1.5.2-1-.3s2.5-1.4 4.5-1.9c3.4-1 3.9-1.6 5.9-7.5 1.1-3.6 2-6.6 1.8-6.8s-2.3 0-4.8.3l-4.5.7-1.7 6.1c-1 3.4-2 5.7-2.2 5.2-.2-.6.6-3.7 1.7-7l2-5.9-3-3.1c-4.1-4.2-3.8-6.2.3-2.2 1.8 1.8 4 3.4 4.8 3.6m349.8 47.5c.7.8 3.1 2.6 5.4 3.9 3.4 2 5.3 2.4 10.2 2.1l6-.3-5.4 1c-5.1.9-7 1.6-6 2.1 4.3 2.6 42.2 20.8 44.1 21.2 1.6.4 2.8.1 3.1-.7.4-.8.6-.6.6.4.2 3 4.8 3.9 21 3.9 17 0 16.9 0 17.2-5.3.1-1.3.4-.7.8 1.3l.6 3.5 6.5.3c10.2.5 24.9-.8 26.5-2.4.7-.8 2.3-1.4 3.5-1.4 2.9 0 13.6-4.6 18.9-8.1 4.2-2.9 9.4-5.8 19.3-11 2.7-1.4 5-3 5.1-3.5 0-.5-1.2-1.2-2.9-1.6-2.7-.6-2.6-.7.7-.5 2.6.2 4-.2 4.8-1.5.6-1 1.9-1.8 2.8-1.8s2.4-.6 3.3-1.3c.9-.6.6-.2-.7 1s-2.3 3.1-2.3 4.3c0 1.1-.7 2-1.5 2s-1.5.7-1.5 1.6c0 1.8-6 9.8-6.7 9-.3-.3.7-2.1 2.2-4.1 5.2-6.8 1.7-5.7-15 4.5-4.9 3-13 7.5-18 10l-9 4.5-.6 7.5-.5 7.5-.2-6.1c-.1-3.3-.5-6.4-.8-6.7-.4-.3-3.4 1.8-6.8 4.7-3.3 2.9-7.9 6.6-10.1 8.2-10.8 7.9-16.5 12.9-16.1 14.1.4.9-.3 1.3-2.2 1.2-1.5-.1-4.5.8-6.7 2-3.7 2.1-3.8 2.1-1.5.2 1.4-1.1 3.3-2.3 4.3-2.7.9-.3 1.7-.8 1.7-1.2 0-.7-9.3-7.7-26.2-19.8-4.3-3-8.2-5.3-8.7-5s-1.1-.3-1.4-1.4c-.3-1.2-4.5-3.9-12.3-7.8-6.6-3.2-17-8.5-23.3-11.7-6.7-3.4-12.6-5.8-14.4-5.7-2.2.1-2.7-.3-2.3-1.4.4-1-1.4-3.5-4.8-7-3-3-4.7-5-3.7-4.5 1 .6 2.3 1.7 3 2.5m-22 8.7c.7 1.5 2.4 3.2 3.8 3.8 1.3.6 2.2 1.5 1.8 2-.3.5.2 1.6 1 2.5.9.9 1.5 2.2 1.3 3-.3 1.5 8.5 9.9 20.2 19.1 4.1 3.3 10.5 8.9 14.2 12.5 6.5 6.3 9.9 9.2 12.6 10.9 1.1.7 1 .9-.3 1.4-1.1.5-2.9-.6-5.4-3.1-6.1-6.1-17.3-16.5-21.6-20.1-17-14.4-28.5-27.3-32.4-36.6l-1.2-3 2.3 2.5c1.3 1.4 2.9 3.7 3.7 5.1M1203.5 675c.3 1.1 1.5 2 2.6 2 2 0 4.4 4.3 3.6 6.4-.3.6-.9-.5-1.5-2.4-.6-2.1-1.1-2.7-1.1-1.5-.1 1.1.6 4.1 1.6 6.7l1.6 4.6 1.7-3.1c1-1.8 2.6-5.8 3.6-9 1.3-4.1 2.3-5.7 3.6-5.7 1.6 0 1.4.9-1.6 9.2-1.8 5.1-3.6 10.9-4 12.9-.6 3.1-.9 3.6-3 3.2-1.9-.4-2.9-1.8-4.6-6.6-1.2-3.4-3.3-9-4.6-12.5-2.2-5.9-2.2-6.2-.4-6.2 1 0 2.2.9 2.5 2m24.3 5.8c3.1-1.1 8.5.8 13.4 5 1.2.9 1.9.6 3.6-1.7 3.1-4.3 7.2-4.8 13-1.8 2.6 1.4 4.6 3.1 4.4 3.9-.2.7 0 1 .4.6 1-1.1 3.4 1.1 3.4 3 0 1.4-.2 1.4-1.2-.1-1.6-2-3-1.1-4.4 2.8-.6 1.6-1.6 2.9-2.3 2.7-.7-.1-1 .2-.6.8.3.5-.1 1.3-.9 1.6-2.8 1.1-1.7 2.6 1.4 2.2 1.7-.3 3 0 3 .5 0 1.4 3.1-1.5 4-3.8.6-1.2.9-1.4.9-.5.1 3.1-6.1 8.1-7.4 6-.3-.5-1.4-1-2.3-1-1.5 0-1.5.2-.2 1 .8.5 1.1 1 .7 1-1.5 0-5.1-2.2-9.7-6-3.8-3-5-3.5-7.5-2.9-1.6.4-2.5.7-2 .8.6.1-.3 1-2 2.1-2.4 1.5-2.6 2-1.3 2.5.9.4 2.7.1 4-.6 2.1-1.1 2.2-1.1.9.4-.7 1-.9 1.7-.3 1.7 1.4 0 3.3-2.5 2.5-3.3-.3-.4-.1-.7.5-.7 1.7 0 1.5 1.5-.5 3.1-1.1.9-3.7 1.4-6.4 1.4-3.7-.1-5.6-.9-8.8-3.4-2.3-1.8-4.1-3.9-4.1-4.7 0-1.7-1.7-1.9-2.3-.2-.3.7-.4-.3-.3-2.3 0-2.1.3-3.6.6-3.4s1.4-1.8 2.5-4.3c1.1-2.8 2.1-4 2.3-3.1.2 1.4.8 1.5 3 .7"/><path d="M573 79.2c-.5 11-1 18.9-1.6 25.2l-.7 7.9 3.4-.6c1.9-.4 10.4-1.3 18.9-2.2 20.7-2.1 24.1-2.6 23.8-3.6-.4-1.3-36.8-23.9-39.5-24.5-1.3-.4-2.3-1-2.3-1.5 0-.8-2-1.4-2-.7M606.5 109.7c-1.6.2-8.6 1-15.5 1.8-6.9.9-14 1.8-15.8 2.2l-3.3.5.2 21.1.2 21 12.1-12.4c6.7-6.8 14.3-14.9 17-17.9s7.4-8.1 10.5-11.3l5.5-5.7-3.9.1c-2.2.1-5.3.4-7 .6M718 111.6c0 .9 7 9.2 19.6 23.4 18.7 21 19.4 21.7 20.4 20 .4-.8.5-10.2.2-20.9l-.7-19.4-4-.4c-2.2-.2-8.7-1-14.4-1.8-10.8-1.5-21.1-2-21.1-.9M564 116.8c-1.9 1-7 3.7-11.2 6.1-4.3 2.3-11.5 6.1-16 8.4-4.6 2.3-8.4 4.9-8.5 5.7-.2 1 3.7 3.4 11.5 7.2 6.4 3.1 15.4 7.5 20 9.7 4.5 2.3 8.7 4.1 9.2 4.1s.9-8.8.9-21.5c0-23.5.2-22.9-5.9-19.7M760.5 137.2c.4 11.2.8 20.4 1 20.6.1.1 5.9-2.7 12.9-6.3 13.4-6.9 21.7-12.3 21.2-14-.4-1.5-26-16.5-28.2-16.5-.8 0-1.4-.4-1.4-.8 0-.8-4.3-3.2-5.6-3.2-.4 0-.3 9.1.1 20.2M527.7 140.6c-.8.8 3.6 13 7.1 19.9 1.7 3.3 4 8.7 5.3 12 3.3 9.2 3.2 9.1 10.8 3.1 3.7-3 9-6.8 11.8-8.5 8.9-5.5 8.6-5.9-12-16.2-20.1-10.1-22.3-11-23-10.3M564 167.8c-2.1.9-16.1 12-18.2 14.4-1.5 1.7-1.6 2.3-.3 5.1.7 1.8 2.6 7.4 4.1 12.4 2 6.7 3 9 3.9 8.3.6-.5 2.3-4.7 3.8-9.2 2.5-7.7 8.7-27.7 9.5-30.6.4-1.3-.4-1.4-2.8-.4M757.3 169.2c-.4.7-2.4 2.6-4.3 4.2-12 9.6-43.2 42.8-41.7 44.2.5.5 39 3.3 46.5 3.4h2.4l-.7-26.2c-.3-14.5-.8-26.4-1-26.6s-.7.3-1.2 1M566.9 174.7c-.6 1.6-2.4 7.1-4.1 12.3-1.6 5.2-4.1 12.8-5.5 16.8-2.8 8.5-2.6 9 5.2 13.1 3.9 2.1 4.8 2.2 5.6 1 1.4-2.2 1.6-45.9.3-45.9-.3 0-.9 1.2-1.5 2.7M761.6 175.6c-1 5 .4 44.3 1.5 45 .5.3.9.1.9-.4s1.5-1.5 3.3-2.3c4.3-1.7 8.7-5 8.7-6.5 0-.6-.9-3.3-1.9-6-3.9-9.9-7.9-21.1-9.8-27.3l-2-6.4zM579.8 179.9c-1 1-1.8 2.1-1.8 2.5s-.9 1.7-2 2.9c-1.2 1.2-1.7 2.3-1.2 2.5 1 .3.3 13.4-.9 14.6-.5.6-1-1.2-1-4.5-.1-3.1-.5-.6-1 6.1-.9 12.3-.6 15.5 1.3 16.2.7.3 4.7.1 8.8-.3s10.7-1 14.5-1.4c3.9-.4 7.7-.9 8.5-1.2s3.3-.5 5.5-.5c3.8.1 3.9 0 1-.8-2.3-.6-2.5-.8-.8-.9 1.2 0 2.3-.7 2.6-1.4.5-1.6-4.2-5.7-6.6-5.7-3.1 0-4.7-2.4-4-6.3.7-4.3-.9-5.5-4.3-3.2-3.5 2.3-5.8.4-4.9-4.1.3-1.9.1-3.5-.5-3.9s-.9-1.3-.6-2.1-.4-1.9-1.5-2.5c-1.2-.6-1.8-1.7-1.5-2.5.3-.9.1-1.2-.4-.9-.6.3-1-.3-1-1.4 0-1.2-.3-2.1-.7-2.2-.5 0-1.9-.2-3.3-.4-1.5-.2-3.2.4-4.2 1.4M530.5 195.4c-7.9 7.5-10.6 10.6-9.5 11 3.3 1.4 29.5 6.3 30.2 5.7.4-.3-.9-5-2.8-10.4-1.9-5.5-3.4-10.7-3.4-11.6 0-1-.8-2.5-1.8-3.4-1.7-1.5-2.4-1-12.7 8.7M659 201.4c-.6.8-1.8 1.2-2.5 1-.8-.3-2 .4-2.7 1.5-.7 1.2-1.8 2.1-2.5 2.1s-1.3.5-1.3 1.1c0 .5-.4.8-.9.5-.4-.3-1.7.1-2.7.9s-1.4 1.5-.7 1.5c1.6 0 .5 3-1.1 3-.7 0-1.3.7-1.3 1.5 0 2.1 2.8 2.3 30.7 2.9 17.9.4 24 .2 22.5-.6-1.1-.6-2.5-1.6-3.1-2.4-.6-.7-1.7-1.4-2.4-1.6-.8-.2-2.6-1.3-4-2.6-1.4-1.2-3.5-2.5-4.7-2.8-1.3-.4-2.3-1-2.3-1.6 0-.5-2.5-2-5.5-3.4-6.2-2.7-13.6-3.2-15.5-1M554.4 218.7c.3 2.1.8 8.2 1.2 13.5.4 6.3 1 9.8 1.8 9.8 1.1 0 11.3-19.6 10.5-20.4-.7-.6-12.8-6.6-13.5-6.6-.3 0-.3 1.7 0 3.7M769.3 219.7c-2.9 1.4-5.3 3.1-5.3 3.7s1.5 4.2 3.4 8.1c1.9 3.8 4.1 8.6 4.9 10.5l1.5 3.5.5-3.5c.9-5.5 1.6-25 .8-25-.3.1-3 1.3-5.8 2.7M617 219.1c-3.6.4-13 1.2-21 1.9s-16.2 1.5-18.3 1.9l-3.8.6 2.3 4.2c1.3 2.3 6.8 9.5 12.3 15.9 12.6 14.8 22.2 26.1 25.7 30.3 1.4 1.8 3.1 3.1 3.6 2.7.9-.6 1.9-7.5 2.8-20.6.3-4.1 1.4-12.6 2.5-18.9 2-12 2.4-17.7 1.2-18.4-.5-.2-3.7 0-7.3.4M632 221.1c0 2.2 7.2 19.9 14.2 34.9 2.2 4.7 4.4 9.4 4.9 10.5 2.5 5.9 4.2 10.4 5.4 14.3 1.3 4.2 7.2 14.4 8.7 15 .5.2.8 1.3.8 2.5 0 1.9 3.8-5.4 10.7-20.3 1.4-3 5.8-12.3 9.9-20.6 4-8.2 7.4-15.7 7.6-16.5s.5-1.6.8-1.9c1.6-1.5 7.1-14.3 6.8-15.8-.4-2.1-7.8-2.7-44.5-3.5-25.1-.6-25.3-.6-25.3 1.4M707.5 221c-1.4 2.2 3 32 4.9 33.2.7.4 1.2 5.2 1.3 11.9.1 6.1.4 11.4.7 11.7s.6-.6.7-1.9c0-1.9.2-2 .7-.7.8 2.1 2.3 1.2 3.9-2.2.6-1.4 4.8-6.8 9.3-12 14-16.4 15.4-18.1 20.9-25.9 2.9-4.2 6.2-8.6 7.3-9.7l1.9-2.1-5.8-.6c-3.2-.4-12.1-.9-19.8-1.2s-16.5-.8-19.7-1.1c-3.4-.3-5.9-.1-6.3.6"/><path d="M627 231.7c0 2.6-.5 6.6-1 8.8-.6 2.8-.6 4.2.3 4.7.9.6.9.8 0 .8-.7 0-1.3.9-1.3 2.1 0 1.1-.4 1.8-.8 1.5-.4-.2-.9 1.6-1 4.2-.5 13.6-1.6 24.3-2.4 24.8-1.6 1 14.8 10.4 18.2 10.4.5 0 6.1 2.6 12.5 5.7 9.6 4.8 11.7 5.5 12.7 4.4.7-.8.8-1.1.2-.8-.6.4-2.3-1.7-4-4.8-1.5-3-3.1-5.5-3.5-5.5s-1.5-2.3-2.5-5.2c-.9-2.9-2.6-7.3-3.7-9.8-1.2-2.5-2.2-5.1-2.3-5.8-.1-.8-1-2.2-1.8-3.1-.9-1-1.6-2.2-1.6-2.7-.1-.5-.9-2.7-2-4.9s-2-4.7-2-5.5c-.1-1-.3-1.1-.7-.3-.6 1.5-5.3 1.8-5.3.3 0-.6.9-1 2-1 2.4 0 2.4-.3.6-5.5-1.3-3.6-1.4-3.7-1.9-1.5-.2 1.4-.4.5-.4-1.8 0-2.4-.4-4.7-1-5-.5-.4-1.6-2.5-2.5-4.7s-2.3-4.1-3.2-4.3c-1.3-.3-1.6.6-1.6 4.5M700.7 234.4c-2 4.3-3.7 8.2-3.7 8.6 0 .5-.4 1-.8 1.2-.8.3-13.8 26.3-21.6 43.3-2.1 4.4-4.2 8.8-4.7 9.8-1.5 2.7-.7 2.9 3.2.8 1.9-1 5.1-2.4 7.3-3.1 4.7-1.5 27-13 27.4-14.2.2-.4 1-.8 1.7-.8 2 0 2.3-2.1 1-7.3-.6-2.6-.9-4.7-.6-4.7s-.2-.5-1.1-1.1c-1.9-1.1-2.5-4.9-.8-4.9 1.8 0 .5-14-2.9-31.5l-.8-4zM759.2 236.4c-2 8-2.2 9.9-1.2 13.6.9 3.4.9 4.4-.2 5.1-.7.5-1.4.4-1.6-.1-.8-2.3-1.8-.7-1.5 2.2.3 2.7.1 2.9-.6 1.3-.8-1.6-1-1.7-1-.3-.1.9.2 1.9.7 2.1 1.1.6 15.3-5.9 14.5-6.7-.4-.4-.1-.4.8-.1 1.8.7 6-2.4 4.2-3.1-.7-.3-1.3-1-1.3-1.6s-.9-3.2-2.1-5.7-2.7-6-3.4-7.6c-2.3-5.5-3.8-8.5-4.4-8.5-.3 0-1.6 4.2-2.9 9.4M739.6 251.4c-1.4 1.9-2.6 3.7-2.6 4s-.8 1.4-1.7 2.4c-3.6 3.8-5.1 6-4.6 6.6.4.3.1.6-.6.6-.6 0-.1 1.1 1.1 2.3 2.2 2.3 2.4 2.3 6.8.9 2.5-.9 5.1-2.3 5.8-3.1.8-.9 1.1-1 .7-.4-.4.9-.1 1.1 1 .7.9-.4 1.3-.9 1-1.2s.3-1.4 1.2-2.4c1.4-1.6 1.5-2.3.5-3.8-.7-1.1-1.2-2.7-1.2-3.6 0-1-.5-1.4-1.5-1-.9.3-1.9-.3-2.5-1.4-.7-1.4-.7-2 0-2 .5 0 1-.5 1-1 0-2-1.8-1-4.4 2.4M740.5 270.4c-9.5 3-20.2 7.8-21.3 9.7-1.1 1.7-.9 2 1 2.8 1.3.5 6.1 2.7 10.7 5 4.6 2.2 9 4.1 9.6 4.1 1.4 0 3.5-9.3 3.5-15.2 0-2.2.5-4.8 1-5.9 1.2-2.2.9-2.2-4.5-.5M620 285c0 1.1.9 3.9 2 6.3 1.1 2.3 2.6 7.6 3.5 11.7 1.8 8.9 4.3 15 6.1 15 2.2 0 16.5-5.9 23.3-9.6 3.5-1.9 6.5-3.3 6.7-3.1.6.6-11.5 6.8-21.8 11.2l-8.6 3.7 10.1 9.8c7.6 7.3 10.5 9.5 11.5 8.8.8-.8 1.2-.6 1.2.4 0 1.5 5.3 3.8 8.8 3.8 2.1 0 2.2-.4 2.3-9.3.1-12.7-.2-26.9-.5-28.9-.2-1.8-16.8-10.5-25.6-13.5-2.5-.9-7.5-3.1-11.2-4.9-3.7-1.9-7-3.4-7.3-3.4s-.5.9-.5 2M695.9 289.3C680.2 297 671.3 301 670 301c-.6 0-1 .4-1 .8 0 1.5 3.2 3.8 9.5 7 3.3 1.7 5.5 3.1 5 3.2-.6 0-3.5-1.3-6.5-2.8-9.2-4.7-9.1-4.7-8.8-.3.2 2.2.6 3.7.9 3.5.9-.5 2.1 2.7 1.3 3.5-.4.3-.9 0-1.1-.7-.3-.6-.9-1.2-1.4-1.2-1 0-.6 27.7.4 28.7.4.3 2 .8 3.7 1 2.6.2 4.2-1 14.2-11.3 6.2-6.4 11.4-11.9 11.6-12.4.2-.4-2.6-2.3-6.2-4.1s-6.4-3.4-6.2-3.6c.1-.2 3.3 1.1 7 2.7 6.8 3.1 8.6 3.2 8.6.2 0-1.4 3.7-12.2 4.4-12.9.2-.2.1 2.2-.2 5.2-.3 4.3-.1 5.5 1 5.5.8 0 5.9-2.3 11.4-5.2 5.4-2.8 12.9-6.7 16.7-8.6l6.7-3.5-12.5-6.4c-6.9-3.4-12.8-6.3-13.2-6.3-.5 0-1.9 3-3.3 6.6-1.3 3.6-3.1 7.1-3.9 7.7-1.2 1-1.3.9-.6-.3 1.4-2.2 3.5-8 4.1-11.3.8-4-1.2-3.5-15.7 3.6M603.2 289.5c-6.2 3-11.8 5.5-12.5 5.5-1.9 0 7 5.8 15.6 10 4.3 2.1 10.5 5.7 13.9 7.9 3.3 2.3 6.2 4.1 6.4 4.1.9 0 .3-4-1.1-6.6-.8-1.6-1.7-4.9-2-7.4s-1.6-7.8-2.8-11.7c-1.8-5.9-2.6-7.3-4.2-7.3-1.1 0-7.1 2.5-13.3 5.5M561.1 293.2c9.5 11.3 10.1 11.6 21.8 12.2 3.3.1 3.4 0 3.8-4 .2-2.6-.1-4.5-.9-5.1-1.5-1.1-26.8-9.3-28.8-9.3-.6 0 1.2 2.8 4.1 6.2M589.1 300.2c.7 1.3 1.6 3 2.1 3.8s1.1 2.3 1.4 3.2c.4 1 1.6 1.8 2.7 1.8 2.9 0 14.7 4.1 14.7 5.1 0 1.6 5.2 4.3 9.4 4.9l4.1.7-4.2.8c-2.4.4-4.3 1.1-4.3 1.6s.5.9 1 .9c.6 0 1 .6 1 1.3 0 .8.9 2.2 2 3.2s2 2.4 2 3.2c0 .7.5 1.3 1 1.3.6 0 2.3 1.2 3.8 2.6s4.7 3.7 7.2 5.1 6.6 3.9 9.2 5.5c5.2 3.2 6.3 3.1 7.2-.8.5-2 0-3.7-2-6.6-1.5-2.2-3.5-4.5-4.5-5.1-.9-.7-4.2-3.6-7.4-6.5-3.2-3-7-5.6-8.8-5.9-2.5-.5-2.7-.8-1.3-1.3 1.5-.5.7-1.1-3.5-2.9-4.9-2.1-9.3-4.6-26.1-14.7-6.7-4.1-8.3-4.3-6.7-1.2"/><path d="M734.5 301.6c-3.8 2-8.1 4.3-9.5 5.2s-4.5 2.7-7 3.9c-8.9 4.6-9.5 5-7.4 5.6 1.1.3.7.5-1.1.5-4.9-.1-5.5.3-17.2 12-8.2 8.1-11.3 11.9-11.3 13.7 0 3.5 1.4 3.8 6.7 1.5 5.5-2.4 20.3-12.1 20.3-13.3 0-.5.9-2.2 2.1-3.8 2.3-3.2 1.8-6.8-.9-7-1-.1-.8-.4.7-.8 1.3-.3 2.9-1.5 3.5-2.6 1.5-2.8 2.7-3.5 6-3.5 2.1 0 2.7-.4 2.2-1.5-.4-1.1.1-1.5 1.7-1.5 1.2 0 3-.9 4-2 1.4-1.7 2-1.8 3.8-.8 1.7 1.1 2.2 1 3.5-.6.9-1.3 1.4-1.5 1.4-.6 0 .7.3 1 .7.6.5-.4-.1-1.5-1.2-2.3-1.7-1.3-1.7-1.5-.2-1 1.1.4 2.4-.1 3.4-1.3.9-1 2-1.7 2.3-1.5.4.2.7-.2.7-1s-.1-1.5-.1-1.5c-.1 0-3.2 1.6-7.1 3.6M626.5 341c-.3 1-.2 2.7.4 3.7.5 1 1.4 3.6 2 5.9l1.1 4 5.1-.6c2.8-.4 5.5-1.3 5.9-2.1 1.5-2.4 1.7-.6.9 9.6-.6 8.3-1.3 23.6-2.2 49-.1 3 1.3 7 6 16.4l6 12.4.3-6.9c.2-6.5.3-64.4.1-74.7-.1-5-2.1-5.9-2.1-.9 0 3.8-3.8 21.9-5 24.3-.6 1.1-.8 2.4-.5 2.9.8 1.3-.5 8-1.6 8-1.5 0-1-8.8.7-12.8.8-2 1.5-3.8 1.4-4 0-.1.1-1.7.4-3.5.5-2.9 1.5-13.5 1.6-16.4 0-.6.7-1.9 1.6-2.7 1.4-1.5 1.3-1.7-1.1-2.6-1.4-.6-4.1-2.1-5.8-3.4-1.8-1.3-5.8-3.6-8.9-4.9-5.4-2.4-5.7-2.5-6.3-.7M691.5 344.5c-2.7 1.3-6.1 2.4-7.4 2.4-2.3.1-2.3.3-1.8 6.8.3 3.8 1.3 10.2 2.2 14.3 1 4.1 2.1 9.3 2.5 11.5 1.5 7 2.8 11.6 3.6 12.3.4.4.4-.4.1-1.8-.4-1.4-1.1-9.5-1.8-18-.6-8.5-1.4-16.7-1.9-18.3-1-3 .4-3.6 4.1-1.7 1.1.6 2.5.7 3.2.3.6-.4 1.6-.8 2.2-.8 1.2 0 1.8-6.2.7-8-.5-1.1-1.7-.9-5.7 1"/><path d="M680.4 374.7c.3 3.8.9 19.5 1.2 35 .8 31.4 1.5 33.4 5.5 16.2 2.3-9.9 2.6-10.6 3.5-9.7.8.9-1.7 12.8-2.8 12.8-.5 0-.8.8-.7 1.7.2 1-.3 4.4-1.1 7.6-.7 3.1-1.1 6-.8 6.3.9.9 3.8 1.2 10.7 1.3 3.5.1 6.2.4 5.8.7-.3.4-4.1.6-8.3.6-4.2-.1-8.1.1-8.5.4-1.1.6 1.8 7 3.1 6.7.5-.2 1 .2 1 .7 0 2-1.9.9-4.1-2.3-1.2-1.7-2.4-3.4-2.6-3.6-.5-.7-6 4.9-9 9.1-2.1 3.1-2.8 3.6-3.5 2.4-1.1-1.9-13.1-11.2-14-10.9-.5.2-.8-.2-.8-.9s-1.9.6-4.2 2.7l-4.1 4 2.6-3.6c1.5-2 2.5-3.8 2.2-4.1s-4.7-.4-9.8-.2l-9.2.3 9.2-1.5 9.2-1.6-2.1-4.1c-1.1-2.3-2.9-6.6-3.9-9.6-3.1-9-8.4-16.7-8.4-12.3 0 .7-2.9 8.8-4.5 12.7-.4 1.1-1.4 3.6-2 5.5-1.7 4.7-4.3 10.4-4.9 11-.4.3-1.3 1.8-2.1 3.3-2.3 4.6-2.3 1.5.1-3.9 7.2-16.8 12.4-36.3 9.7-36.5-.7 0-8.3-.6-16.8-1.2-8.5-.7-17.1-1.1-19.1-.9-3.3.3-3.5.6-3.6 3.5 0 1.8-.5 7-1.1 11.7-1 7.8-3.1 26.7-3.7 33.3l-.3 2.7 3.9-3.1c2.1-1.7 4.7-4.2 5.8-5.7 3.1-4.3 33-34.6 33.5-34.1.3.3-3.2 4.3-7.7 9-4.5 4.6-12.5 13.2-17.7 18.9s-11.2 12.1-13.2 14.1c-2.1 2.1-3.8 4-3.8 4.4 0 .6 15.6 16.4 18.2 18.4 1.4 1 1.9.5 4-4.1 1.4-2.9 2.8-6.6 3.2-8.3.4-1.6 1.1-3.2 1.6-3.5s2-2.5 3.4-5 2.6-3.8 2.6-3c-.1.8-.7 2.4-1.5 3.4s-1.2 2.3-.9 2.7c.3.5-.1 1.9-.7 3.1-.7 1.3-1.3 3.2-1.5 4.3-.1 1.1-.5 3.2-.9 4.6-.5 1.9-.2 2.8.8 3.2 2.1.8 1 4.7-1.4 4.7-1.3 0-2 1-2.5 3.6-.6 3.5 1 13.9 2.6 15.9.4.5 1 2.7 1.4 4.8s1.1 3.5 1.6 3.2c.6-.3.7.1.4.9-.3.9-.1 1.6.5 1.6s1.1 1.6 1.1 3.6c0 1.9.4 3.3.9 2.9.8-.5 1.7-4.4 2.6-11.5.1-.8.5-2.2.8-3 .8-2.2 3.4-11.1 4.2-14.5.8-3.2 1.1-5 1.8-10.1.2-1.7.8-3.7 1.3-4.5s.9-2.9.9-4.8c0-4.1 2.2-5.3 3-1.8q.75 2.55 3.3 3c6.3 1.2 15.7 5.3 15.3 6.8-1.4 5.3-1.3 5.9.8 5.9 1.2 0 3.5-1.4 5.1-3.2 2.5-2.7 3.6-3.2 6.7-3 2.1.2 4.1.8 4.5 1.5.5.8.8.4.8-1 0-1.2.5-2.5 1-2.8.6-.3 1 .1 1 .9 0 .9.6 1.6 1.3 1.6 3.2 0 4.5 3.4 5.9 15.7.3 3.1 3.8-.7 3.8-4.1 0-2 1.9-7 2.5-6.4.3.2-.2 4-1.1 8.4-2.3 11.3-3.3 16.7-3.3 18.5-.1 1.1 2.1 2.6 6.7 4.5 3.7 1.5 7.4 3.3 8.2 3.9 2.2 1.8 6.4 2.7 5.2 1.2-.6-.7-1.3-3.7-1.7-6.7s-1.1-7.1-1.6-9c-1.2-4.7-7.9-36.3-7.9-37.3 0-.4.4-.7.9-.7.4 0 1.1 1.7 1.4 3.7.4 2.1 1.6 7.6 2.7 12.3 1.2 4.7 3.2 13.9 4.6 20.5 1.3 6.6 2.7 12.7 3.1 13.5.3.8.5 1.8.5 2.2-.1.5.4.8 1.1.8.8 0 2.1-4.2 3.7-12.3 1.3-6.7 2.7-13 3.2-13.9 1.5-3.1 2.6-11.1 1.8-12.7-.4-.9-1.4-3.6-2-6.1-.7-2.5-1.9-6.2-2.6-8.3-.8-2-1.2-3.7-1-3.7.9 0-4.1-11.2-5.9-13.3-1-1.1-1.9-3.3-2-4.7s-1.4-6.6-2.9-11.5c-1.5-5-2.9-10.3-3.1-11.9-.3-1.6-1.3-4.5-2.3-6.5-1.1-2-2.2-7-2.6-11.1s-1.1-7.7-1.4-8c-.4-.3-1.7-4.6-3-9.5-3.6-14.5-5.3-19.5-6.4-19.5-.7 0-.8 2.3-.4 6.7M694.5 399.8c.2 3.5.8 6.9 1.2 7.3.5.5 4.4.4 9.1-.3 8.4-1.1 9.2-1.5 5.2-2.3-3-.6-3.3-1-3.2-4.5.1-2.8-.2-3-3.3-3-1.9 0-3.5-.6-3.8-1.4-.3-.7-1.6-1.5-3-1.8-2.5-.5-2.5-.4-2.2 6"/><path d="M582.3 470.2c-1.7 2.4-5.9 7.2-9.2 10.8-3.4 3.5-6.1 6.7-6.1 7s3.7 2.5 8.3 4.8c4.5 2.3 11.1 6 14.6 8.2 3.4 2.2 6.4 4 6.6 4 .6 0 10.5-17.7 10.5-18.6 0-1.6-16.9-17.8-17.7-17.1-.4.5-.2 1.6.4 2.6 1.5 2.4 7.3 22.9 7.2 25.5 0 2.1-.1 2.1-.9.1-1.5-3.5-7.2-23.9-7.5-26.6-.2-2.8-1.2-4.9-2.4-4.9-.4 0-2.2 1.9-3.8 4.2M633.9 478.5c-.1 1.1-.3 2.4-.4 3-.1.5-.5 3.9-.9 7.5-.5 3.5-1.2 7.1-1.6 8-.4.8-1.3 3.9-1.9 6.7-2.6 12.6-3.4 16-4.2 18.6-.7 2.4-.6 2.6 1.1 1.7 1-.5 2.4-1.6 3.2-2.3.7-.7 2.9-1.9 4.8-2.6 1.9-.8 4.9-2.2 6.6-3.3 3.5-2 3.5-1.8 1.4-14.3-.7-3.9-1.3-7.7-1.4-8.5-.5-3.5-3.8-12.8-5.1-14.6-1.4-1.9-1.4-1.9-1.6.1M604.2 497.7c-1.8 3.8-3.2 7.5-3.2 8.3 0 1.4 15.9 15.5 16.6 14.7.2-.1-.6-3-1.6-6.2-1.1-3.3-3.2-9.9-4.6-14.8-1.4-4.8-2.9-8.7-3.3-8.7s-2.1 3-3.9 6.7M719.3 491.8c-3 1.9-8.6 28.2-6 28.2.4 0 3.7-2.9 7.3-6.5 8.1-8.2 8.3-9.5 3.1-17.4-1.9-2.9-3.8-4.7-4.4-4.3M344.4 140.2c-10.5 11.4-25.6 28.9-25.2 29.3.6.5 54.4-13.4 57.6-14.9 1.9-1 3-2.1 2.6-2.7-.4-.8-.1-.8 1.3 0 1.4.7 2.3.7 3.3-.2s1.4-.9 1.7 0c.3.7.9 1.3 1.4 1.3.6 0 .7-.5.3-1.2-.5-.8-.1-.9 1.2-.4 3.6 1.3.1-1.2-5.4-3.9-2.9-1.5-5.9-2.4-6.6-2.2-1.2.5-3.4.1-9.6-1.4-.8-.2-2.3-1.4-3.3-2.7-2-2.3-6.3-4.5-11.4-5.6-2.6-.6-3.5-.1-7.9 4.6M303 179.1c-3 1.6-14.9 7.5-26.5 13l-21 10 2.5 2c1.4 1.1 3.6 2.6 5 3.2 1.4.7 4.4 2.5 6.7 4 2.7 1.9 4.9 2.7 6.1 2.3 1.8-.6 8.1-6.9 17.7-17.6 14.5-16.3 17.5-20 16.3-19.9-.7 0-3.8 1.4-6.8 3M307 183.2c-2.9 3.5-6.9 7.9-8.8 9.8-1.8 1.9-6.8 7.7-11 12.7-4.2 5.1-8 9.3-8.4 9.3s-.8.5-.8 1.2c0 .6.3.9.6.5.4-.3 1.4.2 2.3 1.3 2.8 3.2 17.4 13.1 18.2 12.3 1.3-1.4 14.2-51 13.6-52.6-.1-.5-2.7 2-5.7 5.5M255.8 206c-.3 1.1.6 11.9 2.4 25.9l1.1 8.5 2-2.8c1.1-1.6 4.4-6.7 7.4-11.4 5.9-9.4 6-9.3-1.1-14.1-8.1-5.4-11.4-7.2-11.8-6.1M270.5 226.3c-2.7 4.5-6.1 9.9-7.4 12.1l-2.4 3.9 2.4-.7c1.3-.3 8.4-2.2 15.7-4.1 16.4-4.2 17.2-4.5 17.2-5.4s-13.1-10.1-17.5-12.4l-3-1.5zM317.5 231.1c-7.7 1-14.6 2.2-15.3 2.6-1.1.6-1.4 4.4-1.3 17 .1 8.9.4 17 .6 18.1s.5 9.2.7 18c.2 12.2.6 15.5 1.4 14.3 3.1-4.4 29.1-54.7 32.9-63.8 3.9-8.9 3.9-8.3-.8-8.2-2.3.1-10.5 1-18.2 2M336 242.5c-3.1 6-11.7 23-19.3 37.7-7.5 14.7-13.3 26.9-12.9 27.1s4.8 2.6 9.7 5.2c5 2.7 11.7 6.5 15 8.5 9.4 5.7 15.5 9 16.7 9 .8 0 .9-4.3.4-15.3-.4-8.3-.9-20.6-1.1-27.2-.3-6.6-1-19.4-1.6-28.5-.5-9.1-1.1-19-1.2-22l-.2-5.5zM281.5 238.2c-8.2 2.2-16.3 4.5-17.9 5.2l-3 1.3 10.3 7.9c5.7 4.3 10.8 7.9 11.3 7.9.6 0 3.9-5.2 7.3-11.5 3.5-6.3 6.8-12 7.4-12.7 2.1-2.4-.6-2-15.4 1.9M295.6 241.9c-1.5 2.8-4.7 8.5-7.2 12.8-4.9 8.4-4.9 7.2-.4 17.8 1 2.2 3.7 8.7 6 14.5 6.6 16.4 7.1 16.3 6.5-2.5-1-31.7-1.6-46.9-2-47.3-.2-.2-1.5 1.9-2.9 4.7M257.5 250.7c-.4 2.1-2.4 8.2-4.6 13.5-2.1 5.3-3.9 10.2-3.9 10.7 0 .6 3.1-.5 7-2.4 3.8-1.9 7.4-3.5 8-3.5 1.5 0 16-6.3 16-7-.1-.8-19.8-15-20.9-15-.6 0-1.3 1.7-1.6 3.7M242.2 259.2c-.6.6-1.2 2.2-1.2 3.5 0 2.4-2.9 10.8-6.6 19.1-3.5 7.8-2.9 9.5 1.7 4.6 1.3-1.4 3.8-3.5 5.4-4.6 1.7-1.1.2.6-3.3 3.9-3.4 3.2-6.2 6.4-6.2 7.2 0 1.6 6.7 10.1 8 10.1.5 0 1.2-1.7 1.6-3.8.3-2 1.4-7 2.4-11.1 1.3-5.2 1.8-9.9 1.5-16-.5-10.7-1.5-14.7-3.3-12.9M270.5 267.8c-5.5 2.7-12.6 5.8-15.8 7.1s-5.5 2.6-5.2 3c1.1 1.1 39.4 22.1 46.4 25.4 4 2 4.1 2.8-1.7-11.8-10.1-25.4-11.5-28.6-13.1-28.5-.3.1-5.1 2.2-10.6 4.8M250 281.8c0 .4.4 1.2.9 1.7.5.6 3 5 5.6 10 6.4 12 6.8 12.6 8.2 12 .7-.2 1.3.2 1.3 1s-.5 1.5-1.2 1.5c-.6 0-.9.2-.6.5s4.7.1 9.9-.5c5.2-.5 12-1 15.2-1.1s6-.6 6.3-1.1c.3-.4.1-.8-.4-.8-.6 0-3.9-1.6-7.4-3.6-3.4-2-11.7-6.6-18.3-10.2s-13.5-7.3-15.3-8.4c-3.6-2-4.2-2.2-4.2-1M244.6 292.8c-1.4 6.2-2.6 11.4-2.6 11.6s3 .9 6.8 1.6c3.7.7 7.8 1.7 9.1 2.2s2.6.7 2.8.4c.5-.5-10-22.3-12-25-1.3-1.8-1.7-1-4.1 9.2M243.5 308.8l.7 2.7-2.1-2.3-2-2.4-7.1 4.2c-3.9 2.4-7.2 4.5-7.3 4.9-.2.3 1.4 3.7 3.5 7.6 2.3 4.3 3.8 6.2 3.8 5l.1-2 .8 2c.8 1.8 1 1.7 2.5-1.5 1.2-2.6 1.5-2.9 1.1-1-.6 3.8.6 5.1 4.1 4.2 1.6-.4 4.8-.7 7.1-.7 5 0 5-.6-.3-9.8-5-8.6-4.1-8.3 1.7.5 2.9 4.3 5.8 7.8 6.5 7.8.8 0 2.1-1.5 2.9-3.3 1.1-2.3 1.4-2.5 1.1-.9-.7 3.7.3 5.2 3.4 5.2 1.6 0 3.2.4 3.5 1 .3.5 1.8 1 3.2 1 2 0 2.4.4 1.8 1.7-.5 1.4-.4 1.5.6.6 1.5-1.5.2-4.7-5.9-15-4-6.8-4.7-7.2-16.5-10.2l-7.9-1.9zM281 309.3c-5.2.4-11.2 1.1-13.2 1.5l-3.7.7 3.7 5.7c2 3.2 5.1 8 6.7 10.7 1.8 3 4.3 5.6 6.3 6.5 1.8.9 3.6 2.6 4.1 3.8l.8 2.2 1.5-2.5c.9-1.3 2.3-3.8 3.3-5.4 1.8-3.3 1.7-2.7-.9 5.3-1 2.9-1.6 5.9-1.3 6.6.5 1.2 6.9 2.9 16.1 4.2l4.9.7-.6-5.9-.5-5.9 1.4 4.4c.7 2.5 1.8 4.9 2.3 5.4 1.2 1.2 31.1-13.4 31.1-15.3 0-1.8-39.3-23.2-41.2-22.5-.9.4-2 1.6-2.6 2.8s-1.1 1.6-1.1.9c-.1-.7.4-2.2 1-3.3 1.2-2.3 1.6-2.2-18.1-.6M336.5 338.4c-21 11.1-24.1 13.1-18.7 12 2.8-.6 3.2-.4 3.2 1.6 0 1.5.5 2 1.4 1.7.7-.3 2.3.1 3.4.8 2.3 1.6 3.6 5.5 1.9 5.5-.7 0 1.6 1.8 5 4.1 3.5 2.2 6.7 3.8 7.2 3.5 1.2-.8 4.2-17.4 4.7-26.3.2-4 .3-7.3.1-7.2-.1 0-3.8 1.9-8.2 4.3M288 348.9c0 .6.5 1.1 1.1 1.1s.8.7.5 1.6c-.4 1 0 2.1.9 2.8 1.4 1 1.4 1.6-.4 5.6-1.1 2.5-2.1 5.3-2.1 6.3s-1.1 3.3-2.4 5c-1.3 1.8-2.6 4.5-3 6.2-.5 2.5 1.1 1.2 10.7-8.6 6.3-6.5 12.4-13.1 13.6-14.7l2.1-3-4.7-1c-9.1-1.9-16.3-2.5-16.3-1.3M310.5 359.7c-.4 3.8-1.2 7.3-1.7 8-.8 1-3.2 10.4-5.4 21-.2 1.2-.9 3.4-1.4 4.9-.6 1.5-.9 2.9-.6 3.1.2.3 4.5-2.1 9.3-5.4 4.9-3.2 12.2-7.8 16.2-10.3 8.2-5 12.8-8.6 12.1-9.3-3.3-3-14.6-9.7-15.7-9.3-.8.3-1.2.2-.9-.2.3-.5-.3-1.5-1.2-2.3-3.4-2.9-8.9-6.9-9.5-6.9-.3 0-.9 3-1.2 6.7M301.1 363.2c-3.5 4-9.3 10.4-12.9 14.1-5.2 5.4-6.3 7-5.1 7.8.8.5 1.9.9 2.4.9.6 0 3.7 2.5 7 5.6 5.9 5.5 6 5.6 6.3 3 .2-1.4.7-2.6 1.2-2.6s1.1-1.5 1.5-3.3c.3-1.7 1.4-6.8 2.4-11.2s2.4-10.5 3.1-13.6 1.1-6.2.9-6.8-3.3 2.1-6.8 6.1M227.1 438c-.1 2.6-.5 5-1 5.5-.5.6-1.9 3.7-3.1 7-1.9 5.4-2 4.3-.2-3.4.2-1.3.1-2.2-.4-1.9s-4.9 2.5-9.9 4.9l-9 4.2 5.5 1.9 5.5 1.8-5.2-.6c-3.1-.3-5.3-.2-5.3.4 0 .5 2.1 2.8 4.6 5.1l4.6 4.1-.6 12.3c-.3 6.7-.8 13.2-1.2 14.4-.3 1.3-.2 2.3.3 2.3.6 0 2.1 1 3.5 2.2 1.4 1.3 4.2 3.7 6.4 5.4l3.9 3.1-.7-12.1c-.4-6.7-1-15.7-1.2-20.1-.3-4.4-.5-8.5-.6-9-.1-1.5-4.8 9.9-7.2 17.5-1.2 3.6-2.3 6-2.5 5.4-.4-1.3 2-8.8 6.2-19.3 1.4-3.6 2.5-6.8 2.5-7.3 0-.4-1.5-1.4-3.2-2.2l-3.3-1.5 4.2.6c3.8.5 4.2.3 4.6-1.8.3-1.3.5-.2.5 2.6-.1 8 1.2 34.6 1.9 39.5l.6 4.5 1.3-3.1c.7-1.7 2-6.9 3-11.5.9-4.6 2.2-9.8 2.9-11.4 1.7-4.3-.3-17.5-6-39l-1.3-5z"/><path d="M181.5 441.9c.6.5 4.8 3.3 9.5 6.1 9.8 6 9.6 6 22.5-.1l9-4.3-12.5-.7c-6.9-.4-16.3-1-21-1.3-5.3-.4-8.1-.3-7.5.3M954 140c-.9.5-6.3 2.5-12 4.5-5.8 1.9-14 5-18.2 6.7l-7.8 3.2 3.1 1.3c1.7.7 5.4 1.9 8.3 2.7 2.8.8 9.8 2.8 15.6 4.5s17 4.9 25 7.2c8 2.2 16 4.7 17.8 5.5s3.5 1.4 3.8 1.4c.9 0-2.1-3.7-8.6-10.7-9.2-9.8-21.3-23.3-22.8-25.5-1.5-2-2-2.1-4.2-.8M1018.5 171.7c-15.1 4.4-21.5 6.7-21.2 7.6.1.5 8.8 5.7 19.2 11.5 10.5 5.8 21.2 12 23.9 13.8 2.8 1.8 5.1 3.2 5.3 3.1.2-.3-12.3-24.4-17.4-33.5-2.6-4.6-2.6-4.6-9.8-2.5M999 183.9c0 .5 6.4 8.1 14.3 16.8 7.8 8.7 15.4 17.4 16.9 19.3l2.7 3.4 2.8-2.4c7-6.1 10.3-9.5 10.3-10.5-.1-1.1-3.5-3.3-19-12.3-15.1-8.7-28-15.3-28-14.3M996.3 185.6c.4 1 2 7.1 3.6 13.4 3.5 13.9 10 36.2 11 37.9.6.9 2.4.3 6.7-2.5 7.4-4.7 13.4-9.3 13.4-10.4 0-.8-19.3-23.1-29.8-34.4-3-3.3-5.2-5.1-4.9-4M997.3 201.2c.3 1.3.8 3.9 1.1 5.8.5 2.9.5 3.1-.4 1.2-1.4-3.4-2.6-2-3.4 3.9-.7 4.8-2.3 7.9-4.3 7.9-.4 0-1.8 1.1-3.1 2.4-1.8 2-2.8 2.3-5.6 1.6-1.8-.4-4.1-.3-5 .2-1.9 1.1-1.9.8-.5-2.9.6-1.7.6-2.4 0-1.8-1 1.1-5.4 11.6-4.9 12 .2.1 6.8 1.4 14.8 2.9s16.2 3 18.3 3.5c2 .5 3.9.5 4.2.1.5-.7-5.1-20.5-6.3-22.5-.4-.6-.7-1.2-.7-1.5-.3-2.3-3.8-15-4.2-15-.3 0-.3 1 0 2.2M1039.7 219.3l-5.8 5.2 6.2 11.2c3.5 6.2 6.4 11.2 6.5 11 .2-.1.5-6.7.7-14.6.5-13.8.2-18.1-1.2-18.1-.3.1-3.2 2.4-6.4 5.3M1023.4 232.2c-5 3.5-9.3 6.7-9.5 7.2-.4.8 31.1 10.9 31.8 10.2.2-.2-.9-2.5-2.4-5.2-1.6-2.7-4.4-7.9-6.3-11.6-1.9-3.8-3.7-6.8-4-6.8s-4.6 2.8-9.6 6.2M970 234.7c0 .7 1.3 3.9 3 7.1 1.6 3.1 6.5 12.9 10.9 21.7 4.3 8.8 11.2 22.4 15.3 30.3l7.5 14.3.6-12.2c.8-13.6.7-33.5 0-30.4-.7 3-2.1 4.1-3.5 2.7-.9-.9-.7-1.7 1.1-3.3 3.2-3 3.9-5.4 4.3-15.5l.3-8.9-14.5-2.7c-23-4.5-25-4.7-25-3.1M968.2 239.7c.3 1.9-.4 11.6-2.8 41.3-.8 10.2-1.7 21.2-1.9 24.5-1.7 24.2-1.7 27.5-.7 27.5.6 0 3.3-1.3 5.9-2.8s6.3-3.4 8.1-4.1c9.8-4 27.7-14.1 28-15.8.1-1-3.2-8.3-7.4-16.3-4.1-8-12-23.6-17.4-34.6-9.2-18.9-12.3-24.1-11.8-19.7M1013.4 243.7c1.3 3.4 13.1 24.3 13.8 24.3 1.9 0 18.8-14.2 18.8-15.8 0-.9-.9-1.2-19.3-6.7-13.6-4-14.1-4.1-13.3-1.8M1010.6 251.2c-1 12.4-2.1 53.8-1.5 53.8.3 0 3.6-6.6 7.4-14.8 3.7-8.1 7.3-15.9 8-17.5 1.4-2.9.6-5.1-8.1-20-1.9-3.2-3.4-6.2-3.4-6.7s-.4-1.1-.9-1.4c-.5-.4-1.2 2.7-1.5 6.6M1044.4 256.8c-1 1-4.6 3.8-7.9 6.4-3.3 2.5-7 5.7-8.2 7-1.7 1.8-18.3 36.7-18.3 38.4 0 1.1 19-8.3 40.8-20.1 5.8-3.2 6.1-4.3 3.8-11.6-.8-2.4-2.6-8.3-4.1-13.2-1.4-4.8-2.9-8.7-3.3-8.7-.5 0-1.7.8-2.8 1.8M1046.5 292.6c-4.4 2.6-14.2 7.7-21.9 11.4-13.8 6.8-13.8 6.8-10 7.4 7 1.1 31.7 3.6 32.1 3.3.3-.4 9.3-25.8 9.3-26.4 0-.9-2.4.2-9.5 4.3"/><path d="M1059 288.9c0 1.6 4.1 18.6 4.6 19.1.3.2.9-.2 1.5-1 .6-1 .7-.5.3 1.7s-.1 4.1 1 5.8c2.5 3.9 1.9 4.3-1.2.6l-2.7-3.3-5.5 2.1c-3 1.2-6.6 2.7-7.9 3.4-2.2 1.1-8.1 8.9-12.8 16.9l-2.2 3.8 2.9-1.5c1.6-.8 3.9-1.5 5-1.5 4.2 0 6-1.8 6.1-6.3l.1-4.2 1 5.3c1.2 6.7 2.4 6 7.8-5.2 4.9-10 5.2-8.9.5 1.9-1.9 4.3-3.3 8.1-3.1 8.2.2.2 1.3.5 2.5.8 1.1.2 2.5.6 3 1 .6.3 1.4-1.4 1.9-3.7l.9-4.3 1 3.5c.6 2 .6 3.9.2 4.4-1.4 1.5-1 3.6.6 3.6.8 0 1.9-.9 2.5-2s.9-2 .6-2c-.2 0 .5-2.4 1.6-5.3 1.1-2.8 2.1-6.3 2.3-7.7.1-1.4 0-1.7-.2-.8s-1 2.1-1.7 2.7c-1.1.9-1.2.3-.5-3.4.5-2.5.6-5.3.2-6.2-.5-1.5-.3-1.4 1 .2 1.6 1.9 1.6 1.8 1.6-2.5 0-4.7-4.2-13.5-5.2-10.8-.2.7-.4-.3-.4-2.4.1-2.8-.7-4.5-3.6-7.7-2-2.3-3.7-3.7-3.7-3.2"/><path d="M1053.2 301.7c-2.3 7-3.9 12.9-3.7 13.1s3.2-.7 6.7-2c7.2-2.8 7-1.9 3.5-15.1l-2.3-8.8zM1008.8 312.6c-.4.3-.3 1.7.3 3.1 1.4 3.8 1.1 4.1-1.1.8l-2-3-.1 3.5c0 1.9-.4 4.4-.9 5.5-.6 1.3-.7.3-.3-3.1l.5-5.2-15.3 7.7c-15.5 7.8-22.7 11.7-24.2 13-.4.4 1.4 1.9 4 3.2 20.9 11 24.7 12.9 25.8 12.9 1.3 0 5.4-10.7 5.6-14.4 0-1.2.3-1.6.5-.9.3.6-.2 4.4-1 8.4s-1.3 7.5-1 7.8c.2.3 3.7 0 7.7-.7 5.1-.9 7.6-1.8 8.6-3.2.7-1.1 2-2 2.7-2 2.3 0 1.6-4.3-2.1-13.1-1.9-4.5-3.3-8.4-3.1-8.6s2 3.3 4 7.7c3 6.7 4 8 5.5 7.5 1.2-.4 2.1 0 2.5 1.1.5 1.4 1.8.4 6.4-4.5 5.9-6.5 14.2-17.1 14.2-18.2 0-.7-8-1.9-25.2-3.9-4.8-.6-9.4-1.3-10.1-1.6-.7-.2-1.6-.2-1.9.2M963.5 344.3c.6 13.6 2.7 28.7 3.9 28 3.9-2.3 24.6-16.6 25.1-17.3.3-.4-.5-.6-1.7-.3-2.2.5-2.2.5-.4-.9s1.2-1.8-8-6.7c-5.4-2.9-10.8-5.4-11.8-5.7-1.1-.2-2.2-.7-2.5-1.1-.3-.5-1.6-1.3-2.8-2-2.1-1.2-2.1-1.2-1.8 6M1005.8 352.9c-2.6.4-5 1-5.4 1.4-.9.8 3.5 7.2 10.1 14.6 2.7 3.1 6.6 7.7 8.6 10.2 2.1 2.4 3.9 4.2 4.1 3.9.9-1-1.3-9-2.3-8.7-.6.1-1.6-.7-2.2-1.8-.7-1.1-1.4-2.2-1.7-2.5s-.7-1.8-.8-3.4-.6-3.4-1.2-4.1c-.5-.6-.8-3.3-.5-5.8.5-5.3.9-5.1-8.7-3.8M993 357.8c-9.2 5.6-25 16.5-25 17.2 0 .5 5.2 4.1 11.6 8.2 7.9 4.9 12.5 7.2 14.3 7.1q2.7-.3 1.2.6c-1.3.9-.1 1.9 7.8 6.6 1.1.6 1.2-.2.7-4.6-1.1-8.8-6.8-35.5-7.8-36.4-.2-.2-1.4.4-2.8 1.3M999 358.6c0 .7 1.1 6.3 2.4 12.5 1.3 6.3 2.9 15.1 3.6 19.6.7 4.6 1.5 8.3 1.8 8.3.8 0 7.3-4.9 11.9-9.2l4.2-3.8-4.2-4.9c-3.8-4.4-12.6-14.9-17.6-21.1-1.1-1.4-2-2-2.1-1.4M1069.8 381.1c-.2.6-1.5 1.3-2.9 1.4-2.2.1-2.5.7-3.6 8.6-.6 4.6-1.2 11.6-1.2 15.5l-.1 7.1 12.2 7.9c6.7 4.3 13.1 8.3 14.2 8.7s2.3 1.1 2.6 1.6c.3.4 2.1 1.7 4.2 2.9l3.6 2.3-9.6-19.6c-7.1-14.4-10.1-19.5-11.4-19.5-2 0-2.5-1.6-.6-2.2.8-.3.4-1.9-1.2-5.1-1.3-2.6-2.6-4.7-3-4.7-.3 0-.6-1-.7-2.1-.2-2.7-1.9-4.6-2.5-2.8M1028 389c0 .4.7 1.3 1.5 2 2.1 1.7 12 15.1 12.8 17.2 1.2 3.4-.8 1.6-4.1-3.5s-10.5-13.7-11.6-13.7c-.3 0-.1 1.2.5 2.7.6 1.6 1.6 5.4 2.3 8.7l1.2 5.9 5.9 1.8c4.5 1.4 6.1 1.5 6.7.6 1.1-1.8 1-17.5-.2-18.2-.5-.3-1.8-.1-2.9.5-1.3.7-2.2.7-2.6 0-.3-.5 0-1 .7-1 2.2-.1-1.5-1.8-6-2.9-2.3-.5-4.2-.5-4.2-.1M1016.2 394c-3.4 2.8-6.2 5.4-6.2 5.9 0 1 3.8 2.7 12.3 5.7 6 2 6.7 2.1 6.6.6-.1-3.2-4.4-16.5-5.4-16.9-.6-.2-3.8 2-7.3 4.7M1056.7 438.7c-.3 2.1-1.4 9.4-2.6 16.3-2.7 16.2-2.7 17.6.8 32.2 1.6 6.8 3.2 13.2 3.4 14.3.3 1.1.5-7.7.6-19.6l.1-21.6 3.8-1.1c2-.6 6.1-1.7 9-2.3 2.8-.7 5.2-1.6 5.2-2 0-.6-14.4-8.9-15.5-8.9-.1 0 .1 1.7.6 3.7.5 2.1.8 4.7.8 5.8s-.8-.9-1.7-4.5c-1.6-6.4-1.6-6.4-2.3-3-.4 1.9-.4-.2-.1-4.8.3-5.3.1-8.2-.6-8.2-.5 0-1.2 1.7-1.5 3.7"/><path d="M1080.8 443.3c-9.3.5-16.8 1.3-16.8 1.7 0 1.1 15.4 9 17.4 9 1.6 0 18.6-10.5 18.6-11.5 0-.3-.6-.4-1.2-.3-.7.1-8.8.6-18 1.1M1044.9 461.6c-2.2 2.7-9.7 14.7-10.1 16.1-.4 1.5 12.3 11.3 13.6 10.6.5-.3.5-3.1.1-6.2s-1-9.4-1.3-14c-.7-7.7-.8-8.2-2.3-6.5M1061 487v18.5l5.1-5.1 5.1-5.1-2.5-7.4c-1.5-4.1-3.7-10.1-5.1-13.4l-2.5-6zM596.7 537.1c2.9 2.4 5.5 3.8 6.6 3.5.9-.2 1.5-.1 1.3.3-.8 1.2 3.3 4.1 4.9 3.5 1.7-.7 4.8 2 3.7 3.2-.4.4 1.1-.3 3.3-1.6 4.5-2.7 7.7-5.9 7-7-.5-.9-18.9-4.7-26.3-5.4l-5.3-.5z"/></svg>