<svg xmlns="http://www.w3.org/2000/svg" width="1706.667" height="960" viewBox="0 0 1280 720"><path d="M0 360v360h257.4c205 0 257.5-.3 257.9-1.3q.6-1.35.6 0c.1 1 77.2 1.3 382.1 1.3h382V0h-15.9c-11.8 0-16.1.3-16.4 1.2q-.6 1.5-.6 0c-.1-.9-5.9-1.2-25.5-1.2-22.9 0-25.4.2-25.2 1.6 0 .9-.5 1.9-1.1 2.1-.8.3-1.3-.4-1.3-1.6V0H0zM641.1 44.2c2.2.6 3.9 1.5 3.9 1.9s.8 1 1.8 1.2c1.5.4 1.5.5 0 .6-.9 0-2-.4-2.3-.9-.9-1.5-3.5-1.2-3.5.5 0 .8 4.8 8.1 10.7 16.2 6 8.1 12.3 16.8 14 19.3 9.3 12.9 11.5 15.8 14.2 18.9l3 3.4 7.8-4.9c4.3-2.6 12.3-8 17.8-11.9 12.5-8.9 14.2-9.8 8.5-4.7-2.5 2.3-5 4.1-5.6 4.2-.6 0-1.8.7-2.5 1.6s-6.3 5-12.2 9.2c-7.4 5.1-10.5 7.7-9.6 8.2 1.3.7 4.9 1.2 18.9 2.6 17.4 1.7 22.2 1.9 22.6 1.2.3-.4 0-4.4-.6-9-1.1-8.7-1.3-13.4-.6-12.7.3.2.7 2.4 1 4.9 1.1 8.7 2.5 15.9 3.5 17.7 1.4 2.7 36.1 21.4 36.1 19.5 0-.4-.9-1.9-2-3.2-1-1.4-5.1-6.6-9-11.5-3.8-5-8.9-11.4-11.1-14.3-2.3-2.9-4-5.4-3.8-5.7.5-.4 5.7 6 20.4 24.9 9.9 12.7 11.2 12.8 8 .6-.9-3.4-1.4-6.4-1.2-6.6.5-.5 2.2 5.5 3.7 12.8.6 3.2 1.5 6 2 6.3s5.5-.8 11-2.6c9.4-3 12-4.9 8.6-6.2-.8-.3-2-1.5-2.6-2.6-1.6-3 1.2-1.7 3.7 1.7 3.3 4.6 3.5 5.1 1.6 5-2.4-.1-20.6 6.3-21.4 7.5-.6.9 3.9 14.6 6.2 18.9.6 1.1.8 2.2.5 2.5-.2.3-1.6-1.8-3-4.6-1.5-2.8-2.9-5.1-3.2-5.1s-.3.4 0 .9c.3.4.8 5.7 1.2 11.7.3 6 1.2 16.3 1.8 22.9 1.9 17.3 1.4 27.1-1.8 39.5-1.5 5.8-2.8 11.5-2.8 12.7-.1 2.8-1.4 3-2.8.3-.8-1.6-.8-1.8.4-1.4 1.1.4 1.7-1.2 2.6-6.8.7-4 2.1-10.2 3.1-13.8.9-3.5 1.5-6.8 1.3-7.2-.3-.5-.7-5.9-.8-12.1-.2-6.1-.9-16.2-1.5-22.2-.7-6.1-1.3-13.8-1.4-17.2-.2-3.4-.6-6.5-1-6.9s-.7-2.3-.7-4.1c0-6.6-1.4-6.6-14.5.5-20.9 11.2-26.5 14.5-26.5 15.7 0 1.1 4.6 5.2 12.3 10.8 2.1 1.6 3.6 3.1 3.3 3.4s-4-2.2-8.3-5.5-7.9-6-8-5.8c-.4.4 7.8 24.8 9.3 27.8.7 1.4 1.6 4.1 1.8 6 .7 5.8 1.8 8.9 2.9 8.5 1.4-.4 4.8-9.7 4.1-10.8-.3-.5.4-1.4 1.6-2.1 1.1-.7 2-2 2-2.8s.7-2.8 1.5-4.4c1.5-2.9 1.5-3-2.2-6.9l-3.8-4 3.8 2.3c2.1 1.2 4 2 4.2 1.8.3-.3 1.2-2.2 2-4.4.9-2.1 1.3-2.8 1-1.4-2 8.8-2 8.9 2.1 13.3 3.6 3.8 2.3 3.4-1.8-.6-1-.9-2.2-1.7-2.8-1.7-.5 0-1 .8-1 1.7 0 2.7-2.4 9-4.1 11-1.6 1.9-4.9 10-4.9 12.1 0 .7 1.4 1.2 3.3 1.3 2.9.1 2.8.2-1.1 1.5-.8.2 3 4.7 9.5 11 5.9 5.9 9.7 9.8 8.3 8.8-1.3-1.1-3.4-2.8-4.6-4s-4.9-4.3-8.3-6.9-6.1-5.3-6.1-5.8c0-.8-.3-.8-1-.1-1.4 1.4-2.6 25.9-1.2 25.1.5-.4.5.9-.1 3.3-1.6 5.7-.1 8.7 6.6 13.8 6.4 4.8 7.2 6.8 1.2 2.7-4.5-3-5.4-2.7-2.7 1.2 6.7 9.6 16.5 24.9 17.3 26.9.8 2.2 1.5 2.4 8.1 2.6l7.3.2-6.7.3c-6.6.4-6.8.5-6.9 3.1l-.1 2.7-1.1-2.8c-.7-1.6-2.1-3-3.7-3.4-2.5-.7-2.5-.7-.3-1.2 2.2-.6 2.2-.8-2-7-12.1-18.5-15.7-24.3-15.7-25.7 0-.7-.6-1.4-1.4-1.4-1.2 0-1.4 2.2-.9 13.2.3 7.3.9 13.7 1.4 14.3.5.5 3.3 1.7 6.2 2.7 4.9 1.6 3.9 1.7-4.1.2-1.8-.4-5-.2-7 .4-34.7 9.9-33.1 9.2-32.4 14 .2 1.9 1 2.7 2.5 2.9 1.2 0 2.9.2 3.7.4.8.1 3.4.1 5.7.1 3.9-.2 4.9-.9 11.9-8 6.8-6.9 9-8.3 4.3-2.7-6.5 7.5-8.7 11-7.6 11.7.7.4 3.9.8 7.2.8 3.4 0 6.6.5 7.1 1 .6.6 2 1.2 3.2 1.5 2.7.5 2.8-1.1.8-7.8s-.3-4.9 2.4 2.5c3.9 10.5 3.5 10.3 7.6 6l3.6-3.7-2.2 3.8c-1.3 2.2-1.9 4.5-1.5 5.4.5 1.4.8 1.5 1.4.4.7-1 1-.8 1.6.8.4 1.2 1.6 2.6 2.8 3.1 1.8.7 1.8.9.5.9-1 .1-1.8.9-1.8 1.8 0 1.5.2 1.6 1 .3.8-1.2 1-1.2 1 .5 0 2.3 10.4 11 12 10 .6-.3 1 .1 1 .9 0 .9 1.9 2.1 4.8 3 4.4 1.5 2.9 1.5-2.9.1-2.4-.6-2.7-.2-4.8 5.3-2 5.7-2.3 13.4-.6 16.2.3.5-.2 1-1.3 1-1.3 0-2.1 1.1-2.8 3.7-.8 3.3-1.7 4.1-6.5 6.4-3.1 1.5-6.6 4-7.8 5.6-1.1 1.5-2.6 3.4-3.2 4.1-.9 1.1.8 1.3 9.1 1.1 12.3-.3 13.2-.8 17.9-11 1.9-4.1 5.5-11.9 8.1-17.5 3.7-7.8 4.5-10.5 3.8-11.9-.8-1.3-.7-1.6.1-1.1.7.4 1.8.3 2.5-.3 1-.9 1.3-.5 1.4 1.8 0 1.6.8 4.4 1.7 6.1.9 1.8 1.4 3.4 1.2 3.6-.2.3-1.2-1.1-2.1-3.1-1.6-3.3-3.6-4.7-3.6-2.5 0 .5-1.3 3.2-3 5.8-1.6 2.7-3.7 6.8-4.5 9.1-.8 2.4-3.1 7.6-5 11.8-1.9 4.1-3.5 7.9-3.5 8.3 0 .5 1.4 2.4 3.1 4.2 5.4 5.8 7.6 9.8 2.6 4.7-6.6-6.7-7.3-6.8-8.5-.6-2.7 14.1-3.6 17.7-4.4 17.7-1.1 0-1.1.4 1.2-9.2 3.2-13.6 3.1-13.6-9.5-.4-6.3 6.6-11.3 12.1-11.1 12.4.3.2 3-.2 6.1-.8s5.9-.9 6.2-.6c.5.4-6.2 2.5-13.1 4.1-2.6.5-2.8.9-2.2 3.8.4 2.5.3 2.8-.5 1.4-1.2-2-3.9-2.3-3.9-.3 0 .7-2.2 4.4-5 8.2-2.7 3.8-5 7.4-5 8 0 1.5 1.9 3 5 3.9 3.3 1 9.2 4.6 8.6 5.3-.3.2-1.1 0-1.8-.6-.7-.5-3.9-2.1-7-3.5l-5.7-2.6-2.8 2.2c-2.6 2-2.7 2-1 .1.9-1.1 1.7-2.5 1.7-3 0-1.3-6.6-7.5-17.3-16.4l-8.9-7.2.6 4.8c.4 2.7 1.1 9.2 1.6 14.4.6 5.2 1.5 13.5 2 18.4.6 4.9.8 9.1.5 9.4-.8.8-1.2-1.8-3-18.3-2.1-19.8-3.4-27.6-4.8-29.3-.9-1.1-3.9-1.2-15.2-.7-16.4.8-22 1.6-22 3.1s4.8 7.3 13.7 16.5c4 4.2 10 10.7 13.3 14.5 8.3 9.5 14.4 15.4 16 15.4.7 0 1.5.6 1.8 1.2.6 1.7 6.9-4.3 9.3-8.9 1.1-1.9 3.6-5.3 5.8-7.6 3.1-3.4 2.6-2.3-2.8 5.8-3.7 5.5-7.1 10.6-7.7 11.3-1.6 2-.4 2.6 2.8 1.4 1.5-.6 5.2-2 8.1-3 2.8-1.1 5-1.7 4.8-1.3-.3.4-3.8 2-7.8 3.6s-7.7 3.2-8.1 3.6c-.5.4.3 2.6 1.8 5l2.7 4.4-2.7-2.8c-1.5-1.5-3.4-2.7-4.2-2.5-1 .2-2.8 4.7-5.4 13.7-2.2 7.3-4.4 14.1-4.9 15.1-1 1.8-1.4 7-.6 7 .5 0 14.7-7.4 22.5-11.8 3.5-1.9 6.6-4.3 6.8-5.3.3-1.1 1.2-1.6 2.5-1.4 5.3 1.1 4.3 1.8-14.8 11.5-10.1 5.1-16.9 9.2-17.2 10.2-.2 1-.8 1.6-1.2 1.3-.4-.2-3.7 2.4-7.3 5.8s-8.4 7.8-10.7 9.9l-4.1 3.6-12.7-6.4c-7.5-3.8-13.5-6.3-14.7-6-1.1.2-5.8 1.8-10.5 3.5l-8.5 3.1-4.2-2c-2.4-1.1-4.6-2-5.1-2-.4 0-2.4-.9-4.5-2l-3.7-2-3.8 2.3c-2 1.3-7.5 4.5-12.1 7.1l-8.3 4.8-4.2-3.9c-2.2-2.1-6.7-6.4-9.9-9.6-3.5-3.6-6.3-5.7-7.2-5.4-.9.4-1.2.1-.9-.7s0-1.7-.6-2.1c-.8-.5-.9-1-.2-1.4 1-.6-.5-7.4-5.5-24.1-3.3-11.4-3.7-12.5-5-14-1.1-1.2-1.5-1.1-2.8.5-.8 1.1-1.5 1.5-1.5.9s.7-1.7 1.5-2.4c.9-.7 1.2-1.7.8-2.1-1.1-1-18.2-7.5-22-8.4-1.8-.3-5.5-1.8-8.3-3.1-8.1-3.9-13.5-4.3-10-.8 1.8 1.8 8 12.7 7.6 13.2-.3.2-1.8-1.8-3.5-4.4-1.6-2.7-3.9-6.1-5-7.6-1.2-1.4-2.1-3.2-2.1-3.9 0-.8-.5-.6-1.3.5-1.2 1.6-1.3 1.4-.9-1.7.2-1.9-.1-3.8-.7-4.1-.6-.4-1.1-1.2-1.1-1.8 0-.7.9-.2 2 1 1.2 1.2 2.5 2.2 3 2.2.6 0 1 .6 1 1.4s1.5 1.7 3.8 2.1c3.8.7 15.2 4.6 25.9 8.8 10.1 4.1 11.7 4.2 13.1 1.2 2.3-5.1 5.5-47.5 3.5-47.5-.6 0-4.9 3.9-18.2 16.8l-6.5 6.2 2.5 2.8c2.9 3.1 15.2 19.9 16.3 22.2 1.3 2.6-4.6-4.2-12.4-14.3-4.1-5.3-8-9.7-8.6-9.7s-1.7.6-2.3 1.4-2.4 1.6-3.9 1.9l-2.7.5 2.3-1.7c7-5 6.9-3.7.7-13.1-3-4.7-5.7-9-5.9-9.5-.3-.6-.9-.3-1.6.5-.9 1.3-1 1.2-.6-.5.8-3-.4-4-6.9-5.8-8.2-2.1-12.7-3.9-15.6-6-2-1.5-2.1-1.7-.4-1.3 1.1.2 4.7 1.6 8 3 7.4 3 11.5 4.1 11.5 2.9 0-.8-7.8-9.7-17.3-19.8-3.4-3.5-3.8-3.7-3.3-1.5.4 1.4.9 4.5 1.1 7 .7 5.9-1 2.2-2-4.4-.9-5.5-1.9-6.4-4.7-3.9-2 1.7-2 1.6.1-1.4l2.3-3.1-3.2-11.4c-5.2-18.4-6.4-20.5-7.4-12.6-1.2 8.9-1.3 9.1-1.6 2.3-.1-3.9-.4-9.8-.6-13.3-.2-3.4-.2-6.2 0-6.2 1.8 0 3.4 1.4 2.9 2.6-.3.8.8 4.9 2.5 9.2 1.7 4.2 3.8 10.7 4.8 14.4 2.1 8.2 4.6 12.6 7.6 13.2 4 .8 23.1 2.6 23.5 2.3.2-.2-1.8-1.4-4.5-2.7-3.2-1.5-6.1-4-8.5-7.3-2-2.7-3.7-4.6-3.7-4.1 0 2.3-5.2-7.2-5.7-10.4-.3-2-1-4.2-1.4-4.8-.5-.6-.6-1.4-.2-1.7.3-.4.1-1.2-.4-1.9-.6-.7-1.4-3.1-1.7-5.3-.6-3.2-.5-3.8.5-2.8.9.9 1.6 1 2.6.2 1.9-1.6 1.6-3.9-.4-3.9-1.5 0-1.6-.2-.3-1 .8-.5 1.1-1 .6-1s-1.7.6-2.5 1.4c-.9.7-2.7 1.7-4.1 2.1-2.3.7-2.3.7-.7-.9.9-1 1.7-2.9 1.7-4.4 0-2.3.1-2.4 1.3-.8s2 1.2 9.9-5.1c4.8-3.7 8.7-7.3 8.7-8 .1-.7-.9-3.1-2-5.3-1.2-2.3-1.9-4.4-1.6-4.7.4-.3 1.2.6 1.8 2.1 2.2 4.8 3.4 3.7 8.7-8.4.9-2.1 1-1.7.6 2.6l-.6 5.1 7.4-1.4c4-.8 8.3-1.5 9.6-1.5 1.2 0 2.2-.5 2.2-1 0-3.8-10.5-17.3-14.7-18.9-1.7-.6-4.2-.1-10 2.1-4.3 1.7-8.5 3-9.4 3s-2 .7-2.3 1.6c-.4 1.1-1.2 1.4-2.4.8-.9-.4-4.4-1.1-7.7-1.4l-6-.7 7-.1c5.7-.2 7.4-.6 8.8-2.2.9-1.1 1.7-2.3 1.7-2.6s1.3-2.4 2.9-4.7c5.6-8.3 8.3-13.9 7.6-16.4-.4-1.6-.1-2.3 1-2.3.8 0 1.4-.4 1.3-.8-.4-1.2 6.1-6.6 6.9-5.8s-2.7 4.7-3.7 4.1c-.4-.3-1.6.7-2.5 2.2-1.7 2.5-1.7 2.7-.1 3.9 1.6 1.1 1.3 1.8-3.4 7.6-5.1 6.3-10.4 14.8-9.6 15.5.2.2 3.4-.8 7.2-2.3 3.8-1.4 8.1-3 9.6-3.6 2.5-.9 2.6-1.3 3.2-10.1.3-5.1.8-11.4 1.2-14 .3-2.6.2-4.7-.2-4.6-2.1.4-2.5-.2-1.3-1.7 1.2-1.4.9-2-1.6-4.2-2.1-1.8-2.4-2.3-1-1.8 1.1.4 2.5.8 3 .9 1.1.2 2-28.6 1-31.1-.4-1-1.6-.5-4.5 2.2-2.2 2-4.3 3.6-4.6 3.6-1.3 0 5.2-6.8 7.1-7.4 4.1-1.2-.9-3.5-12.1-5.5-6.1-1.1-12.3-2.3-13.8-2.7-2.3-.5-2.7-.4-2.5 1.2.1 1.1-.3 3-.9 4.4-1.1 2.3-1.2 2.3-.8-1.1.4-4.3-.2-5.5-2.9-6.2-1.6-.4-1.4-.5.7-.6 1.6-.1 2.9-.8 3.2-1.9.8-2.8 2.4-14.7 4.2-29.7 1.5-13.1 2.4-17.8 2.4-12.5 0 2-3.4 32.9-4.4 40.3-.6 3.9 1.9 5.2 15.6 7.8l11.7 2.2 2-2.4c1.2-1.3 2.5-4.2 3.1-6.4s2.2-6.5 3.6-9.7c1.3-3.1 2.8-7.6 3.4-10 1.3-6.3 4.6-14.9 6-15.8 1.8-1.1-.4-2.1-2.8-1.3-1.1.5-4.2 2.8-6.9 5.3-2.6 2.5-6.8 6.1-9.1 7.9-3.4 2.6-4.2 3.9-3.8 5.5.3 1.2 1.2 4.9 1.9 8.2.8 3.4 2 7.8 2.7 9.8.6 2.1 1 4 .7 4.2-.5.6-4.4-11.4-5.3-16.2-.3-1.6-.9-3.3-1.5-3.9-.5-.5-.9-1.7-.9-2.7 0-2.6-10.5-34-12.7-38l-1.8-3.3-.5 6.5c-.6 6.3-.6 6.4-1.1 2l-.5-4.5-2.6 5.5c-3.4 6.9-3.5 5.8-.4-2.3 1.3-3.4 3.1-8.5 3.8-11.2.8-3.1 1.9-5 2.8-5 1 0 1.4-.9 1.2-2.8s.1-2.7 1.2-2.7c.8 0 1.8.4 2.1 1 .3.5.1 1-.4 1-.6 0-1.1.4-1.1 1 0 1.8 2 1 13.8-5.6 20.8-11.8 22.3-12.6 22.8-12.1.3.3-7.2 4.9-16.8 10.3-9.5 5.3-18 10.4-18.9 11.3-2.8 2.9-3 5.3-1 11.5 1.1 3.4 3.9 12.2 6.3 19.6 2.4 7.5 4.8 13.5 5.5 13.5 1.6 0 23.1-17.7 23.2-19 .1-1.2-.9-1.9-10.4-6.9-16.8-9-25.5-14-25.1-14.3.2-.3 3.5 1.2 7.3 3.3 12.7 6.8 29 15.4 29.5 15.4.3 0 .9-8.7 1.3-19.3.5-10.5.9-21 1-23.2s1-9.4 1.9-15.9c2.1-14.4 1.9-12.3 1.7-17-.1-3.7-.2-3.8-1.9-2.3-1 1-2.4 1.7-3 1.7s-3.9 1.9-7.4 4.3c-8.5 5.8-13.8 9-13.8 8.3 0-1.1 10.9-8.6 17.6-12.1 3.8-2 7.8-4.5 8.9-5.5 2.5-2.4 5.6-1.2 3.2 1.2-.8.8-1.7 4.3-2 7.9-.4 3.5-1.3 10.7-2.1 15.9s-1.4 9.5-1.3 9.6 4.3-.4 9.2-1.2c5-.7 14.6-2.1 21.5-2.9 6.8-.9 12.6-1.8 12.9-2.1.3-.2-.6-1.2-1.9-2.2-3.9-2.8-18.9-13.1-27.4-18.9-4.3-2.9-7.6-5.3-7.3-5.3 1.1 0 8.1 4.4 23.5 14.7 8.4 5.7 15.6 10.3 16 10.3s1.5-1.2 2.4-2.8c.9-1.5 2.6-3.7 3.8-5 1.6-1.7 26.3-34.3 30.8-40.7.4-.6 2.4-3.2 4.5-5.8l3.8-4.7-3.3-.1c-2.7-.1-2.9-.3-.8-.6 1.4-.3 2.9-.9 3.5-1.4 1.2-1.2 2-1.1 6.6.3m41 15.7c17.8 6.5 34.7 12.8 37.5 13.9 2.9 1.2 5.4 1.8 5.7 1.5s1.6.5 2.9 1.7 5.8 4 10.1 6.2c4.3 2.3 8.4 4.6 9.1 5.2C749 89.9 758 96 758.6 96c1.6 0 8.4 5.5 8.4 6.8 0 1.2-.7.9-2.7-1-2.9-2.6-15.5-10.8-16.7-10.8-.7 0-6.7-4.1-7.6-5.1-.3-.4-2.4-1.6-4.7-2.8-4.6-2.3-5.6-1.6-2.2 1.5 1.1 1 2.6 2.8 3.1 3.9.6 1.2-.4.6-2.6-1.5-2-1.9-3.9-4.5-4.2-5.7-.9-3.5-2.4-1.7-2.5 3l-.1 4.2-1.1-5.5c-1.5-7 1.8-5.5-56.2-26.7-16.7-6.1-21.9-8.2-20.4-8.3.4 0 15.2 5.4 33 11.9M431 122c0 .5-.7 1-1.6 1-2.2 0-5.9 2.7-19.8 14.5-6.5 5.5-12.9 10.8-14.2 11.8s-2.4 2.3-2.4 2.8 6.4 1 14.3 1.1l14.2.2-14.2.5c-7.8.4-14.4.8-14.6 1.1-.8.8 2.2 6.2 13.8 25 15.4 25.1 16.7 27 18.2 28.6 1.6 1.6 1.4 3.7-.3 2.6-.5-.4-6.1-8.8-12.3-18.7-17.5-27.9-20.1-31.7-21.4-31.2-.7.3-1.1 1-.9 1.6.1.6-.3 1.1-.9 1.1-.5 0-.8.4-.5.8.3.5-.4 1.6-1.5 2.5-1 .9-1.9 2.3-1.9 3.1s-.6 1.6-1.4 1.9c-1 .4-1.3 1.5-1 3.2s.1 2.4-.6 2c-.5-.3-1 .1-1 .9 0 .9-.5 1.6-1.1 1.6-.5 0-.7.4-.4 1 .3.5.2 1-.3 1s-1.2.8-1.5 1.9-1.7 2.1-3.9 2.5c-3.3.6-3.6 1-4.8 6.1-.7 3-1.7 5.5-2.2 5.5-.4 0-.8.9-.8 2 0 1.3-.7 2-2 2-1.5 0-2 .7-2 2.5 0 2.5-.7 2.9-4.7 2.5-1.3-.1-2.6.7-3.3 1.9-.6 1.2-.8 2.1-.5 2.1s-.5 1.1-1.9 2.5c-2.6 2.6-5.2 3.4-4.1 1.2.4-.6 0-.4-.9.6-.8 1.1-1.2 2.6-.9 3.5.5 1.2.2 1.4-1.1.9-1.2-.5-2.2.1-3.4 2.3-.9 1.6-2 3-2.4 3-.5 0-.8.4-.8.8 0 1.1 21.4-2.9 21.8-4 .2-.5.7-.6 1.1-.4.4.3 6.1-.6 12.7-1.9 11.3-2.2 25-4 22.9-3-.5.2-12 2.7-25.5 5.4s-26.9 5.5-29.8 6.1l-5.4 1.2 2.8 2.9c1.5 1.6 4.6 4.1 6.8 5.6 4.5 3.1 14.5 10.9 16.1 12.6.6.6-.6-.1-2.5-1.4-1.9-1.4-6-4.3-9-6.4-3-2.2-7.7-5.7-10.3-7.9l-4.9-3.9.6 13.9c.4 7.6 1.1 24.9 1.6 38.4 1.7 41.4 2.2 48 3.5 48 .7 0 3.2-.7 5.5-1.5 2.4-.8 4.5-1.3 4.7-1.1s-1.8 1.1-4.6 2.1c-2.7.9-5.4 2.1-5.9 2.8-1.3 1.6-2 6.3-2.7 17.2-.3 4.9-1 11.1-1.6 13.7s-.9 5.1-.7 5.6c.1.5 7.3-3.1 15.8-8 19.9-11.5 31.4-17.8 32.5-17.8 1.2 0-5.8 4.4-19 11.9-10.5 6-24.3 14-27.5 15.9-1.1.7 2 1.7 10.3 3.7 6.5 1.5 11.6 2.9 11.4 3.1s-5.8-.8-12.4-2.2c-14.1-3.1-10.4-4.3-34.3 11.1-20.1 13-20.1 13-26.5 14.5-8.6 2.1-9.2 2.1-2.7-.2 3.4-1.2 6.2-2.4 6.2-2.7s-2.8-2.8-6.1-5.6c-3.4-2.7-6.7-5.4-7.4-6.1-.9-1-1.5-.4-2.8 2.4-2 4.8-5 15.2-4.5 15.8.3.2 1.9-.1 3.7-.7s3.4-.9 3.7-.7c.7.7-12.2 4.8-14.9 4.7-1.6 0-1.3-.3 1.3-1.2 3.1-1.1 3.7-1.9 5.7-7.7 3.5-10.3 3-11.1-2.8-4.9-2.8 3-6.2 7.1-7.6 9.2-1.4 2-2.8 3.5-3.1 3.3-.7-.8 12.1-17.6 15.3-19.8.5-.4.7-.9.4-1.2-.9-.9-16.3 3.4-17.1 4.7-.4.7-.8 4.9-.8 9.4v8.3h3.3c2.9.1 3 .2 1.2 1.2-1.1.6-2.6 1.8-3.3 2.7-1.2 1.5-1.4 1.5-2.2 0-.6-.9-2.6-2-4.6-2.3-1.9-.4-4.2-1-5-1.3-1.2-.4-1.4 0-.9 2 .4 1.4.2 2.8-.4 3.1-.7.5-1.1-.4-1.1-2.3 0-2.7-.4-3.1-2.7-3.2-2.2-.1-2.4-.3-.7-.6 2.9-.6 3.4-2.9 2.3-11.5-1.1-9.7-1.7-11.7-3.6-13.6-1.4-1.4-1.7-1.4-2.8.1s-5.5 21.5-5.5 25.2c0 .8.8 1.5 1.8 1.6 1.3 0 1.2.2-.5.9-2.8 1.1-2.8.8.2 7.2 1.4 2.9 4.8 10.9 7.6 17.8s5.7 13.2 6.5 14.1c.8.8 1.4 2.1 1.4 2.7s.6.9 1.4.6c1-.4 1.2.1.9 1.8-.3 1.6 1.4 4.9 5.7 11.1 3.4 4.8 6.5 8.5 7 8.2.9-.6 2.1 3.1 1.2 3.9-1.1 1.2-3.2.5-3.2-1 0-1.8-9.1-15.9-11.9-18.4-.9-.8-2.1-2.9-2.7-4.5-.7-1.7-3.9-9.5-7.1-17.5-3.3-8-6.3-15.4-6.7-16.4-.3-1-.9-1.6-1.2-1.4-.3.3.6 6.1 2 12.9s2.7 14.6 3 17.4l.5 5-1-4.5c-1.7-6.9-1.7-7-3.8-7-1.1 0-2.3.9-2.6 2.1-.5 1.5-1 1.8-1.5 1-.7-1.2-8.1 1.3-16.5 5.7l-3 1.5 2.5 1c3 1.1 13.8 3.6 16.2 3.7 1.1 0 1.8-.9 2-2.8.2-1.5.4 5.6.5 15.8.3 18.5 1.1 31.5 2 30.6 1-1 6.6-26.3 6.7-30.1 0-2.2-.2-6.9-.6-10.5l-.7-6.5 1.5 7c1.9 9.3 2 9.5 3.3 6.1.6-1.6 1.4-2.7 1.6-2.4.3.3-.2 2.1-1 4.1-1.3 3.2-1.4 4.7-.2 11.5.9 5.1 1.8 7.6 2.6 7.4s1 .4.7 1.6c-.7 2 8.2 17.6 11.4 20.2 2.3 1.8 1.3 4-1.4 3-1.3-.4-1.6-.9-.8-1.4.7-.4-.6-3.4-4-8.9-7-11.2-7.4-11.6-9.3-9.2-1.5 1.9-1.6 1.9-.4-.4 1.2-2.6.7-11.8-.9-14.6-.6-1.2-1.7 1.7-3.9 10.7-1.7 6.8-3.4 13.2-3.8 14.3-.7 2 1.3.1 5.8-5.7 2.5-3.1 1-.3-2.5 4.9-1.5 2.3-2.6 4.7-2.3 5.5.4.9-.5 1.3-3 1.4-2.2 0-3.1-.3-2.3-.8 1-.6.8-1.2-.8-2.6-1.2-.9-4.7-3.9-7.8-6.6-4.7-4.1-5.8-4.6-7.1-3.6-3.5 2.9-3.3-.8.6-14 4-13.4 4.3-18 1.3-18-.8 0-1.2.4-.9 1 .3.5.2 1-.4 1-.5 0-1.2-.4-1.5-.9s-2.7-1.6-5.3-2.4c-6.3-2.1-14.6-5.8-14.1-6.3.5-.4 9 2.5 16.1 5.5 2.6 1.1 4.7 1.7 4.7 1.3-.1-1.2-5.9-7.2-7-7.2-.5 0-1-.5-1-1.1 0-.8-1.8-.9-6.2-.4-9.5 1.2-11 1-13.5-2.2-1.3-1.5-2.8-3.3-3.3-4-.6-.7-1-2-1-3s1 .1 2.2 2.4 2.8 4.5 3.5 4.7c.8.3 1.2.2 1-.2-.3-.4-1.9-3.8-3.6-7.5-1.8-3.7-3.6-6.5-4.1-6.2-2 1.2-.9-1.7 3.8-10.2 2.7-4.9 5.7-10.5 6.7-12.6s2-3.6 2.2-3.3c.3.2-2.3 5.7-5.6 12.2-6.3 12.2-6.9 13.8-4.8 13.1.6-.2 1.2-.8 1.2-1.3s1.4-3.4 3.2-6.4c1.7-3 4.1-8 5.3-11 1.3-3 3.8-8.8 5.7-12.9s3.2-8 2.9-8.8-.2-1.2.3-.9c1 .7 4.2-7.9 3.3-8.8-.3-.3 0-.6.6-.6.7 0 1.2-.7 1.2-1.5 0-.9 1.1-3.7 2.4-6.3 7.3-14 7.9-16.3 8.2-26.7.1-5.5-.6-15-1.5-21.1-.9-6-1.4-13.7-1.1-17l.5-5.9.3 4.7c.2 2.9.8 4.8 1.5 4.8s.6.4-.3 1.1q-1.65 1.05-.3 1.5c.7.3 1 1.8.7 3.7-.3 2.6.3 4 3.6 7.7 2.5 2.8 4 3.9 4 2.9 0-.9.6-2.1 1.3-2.8 1.1-.8 1.3-.5.9 1.9-.4 2.8-.2 3 3.1 3 5.3 0 5.3.2.8-11.8-.7-1.7-1.7-3.2-2.2-3.2s-.9-1.3-.9-2.8-.6-3.4-1.2-4.1c-1.1-1-1-1.1.2-.6.9.3 4.2-1.1 7.8-3.4l6.2-4-3.2-4.7c-1.7-2.6-4-4.9-5-5.2-1.9-.5-2.4-2.2-.9-3.8.4-.5 3-7.2 5.6-14.9 4.5-13.1 6.5-17.7 6.5-14.6 0 .7-1.1 4-2.4 7.4-2.1 5.3-4.1 10.8-7.2 19.2-.4 1.1 2.3-.9 6.1-4.5l6.7-6.5-.5-9.3c-.2-5.1-.7-9.5-1-9.8-1.1-1.1-3.3 2-6.2 8.4-1.5 3.4-3 6-3.3 5.8-.8-.9 10-21.6 11.3-21.6.7 0 1.8-.6 2.4-1.4s2-1.6 3-1.9c1.5-.4 1.6-.1.7 1.8-.6 1.4-1.7 2-2.7 1.8-2.9-.8-4.1 3.1-3.3 10.5.6 6.1 1 8.8 1.4 10.2.3 1.1 8-21.6 8.4-25 .1-.9.5-2.1.9-2.8.9-1.3-1.2-29.9-2.2-31.9-.4-.7-2.4 7.6-4.6 18.4-2.1 10.9-4 19.2-4.3 18.5-.2-.7.8-7.2 2.2-14.5s2.8-15 3.2-17.2 1.3-5.2 2-6.7c1.6-3.1 1.7-3.8.5-3.8-.4 0-3.5 4.1-6.7 9.2s-8.8 13.8-12.4 19.4c-8.8 13.7-9.3 14.4-7.4 10.4.9-1.9 2.9-5.3 4.4-7.5 1.6-2.3 4-6.3 5.6-9 1.5-2.8 5.7-9.6 9.3-15.2 9.7-15 11.4-18 16.1-26.8 2.3-4.4 5-9.1 6-10.5s3.2-5.4 5-9c2.7-5.4 6.4-9.6 21.9-24.8 10.2-10.1 19.6-18.8 20.9-19.3 1.4-.5 2.1-.5 1.8 0-.4.5 0 1.2.6 1.4.7.3.4.6-.8.6-1.1.1-2.4.4-2.8.8-.4.5-1.1.8-1.4.9-.4 0-8.3 7.5-17.7 16.6l-16.9 16.5 7.9 2.6c12.9 4.2 25.8 7.8 26.3 7.2.3-.3.5-1.9.5-3.5 0-1.7.4-3 .9-3 .4 0 .8 1.2.8 2.7.1 2.7.2 2.6 4.3-2.2 2.3-2.7 9.3-10.5 15.5-17.3 6.1-6.8 11.2-12.7 11.2-13.1 0-.5-1.5-1.3-3.2-1.9-3.2-1.1-3.2-1.1-.3-.6 1.6.3 3.2.6 3.5.7 1 .2 13.5-1.4 22.8-2.9 5.1-.9 9.8-1.4 10.4-1.2.7.3-5.2 1.5-13 2.8-7.8 1.4-14.2 2.7-14.2 3 0 .4 3 1.7 6.8 3 3.7 1.3 7.2 2.7 7.8 3.2 1.5 1.1 24.5 9.8 26.1 9.8.7 0 7.5-5.1 15-11.3 13.6-11.1 23.1-19.6 20.4-18.1-.9.5-1.2.3-.7-.4.9-1.5 7.6-1.6 7.6-.2m520.6 12.1c1.1.1 3-.2 4.4-.5 2.2-.5 2.2-.5-.2.5-1.6.6-2.8 1.4-2.8 1.8 0 .7 17.1 20.1 27.4 31 4.2 4.5 5.2 5.1 5.4 3.5.7-3.4 1.8-3.5 2-.2.2 1.8.4 3.4.7 3.6.7.8 30.2-7.3 31.8-8.7.6-.6-11.2-12.8-25.3-26-2.5-2.4-4-4.1-3.4-3.9s7.8 6.6 15.8 14.3c8.1 7.7 15.6 14.4 16.7 14.9 1 .5 1.9 1.8 1.9 3 0 2 13.6 29.7 17.1 34.7 1 1.4 2.1 3.8 2.5 5.5.4 1.6 2.1 5.1 3.7 7.9 1.6 2.7 6.5 12.2 10.8 21s7.9 15.6 7.9 15.1c.1-4.9-19.9-73.7-22.1-76-.5-.6-.9-1.7-.9-2.6 0-2.7-9.7-11.5-18.1-16.3-2.5-1.4-5.2-3.4-6-4.4-.8-.9.6-.3 3 1.5 5.5 3.9 7.3 4.1 4 .5l-2.4-2.8 2.4 2c1.4 1.1 4.3 3.8 6.6 6 2.2 2.2 5.9 5.6 8.1 7.6 3.5 3.1 4.3 4.8 7.2 14.5 1.8 6 3.7 11.7 4.2 12.6.6 1 1 2.5 1 3.4s.6 2.2 1.4 2.8 2.1 3.6 3.1 6.6c5.6 18.7 8.4 28.4 8.1 28.7-.2.2-1.2-2.2-2.2-5.3-1-3.2-2-5.2-2.2-4.6-.2.7.5 4.3 1.6 8s2.6 9.2 3.3 12.2 1.7 6 2.2 6.7c1.2 1.7 1.7 5.7 2.2 19 .3 6.8.1 11.4-.5 11.8s-1-3.4-1-10.4c0-10.8-.1-11.1-2.2-11.2-1.7-.1-1.9-.2-.5-.6.9-.2 1.7-.6 1.7-.9 0-1.6-20.4-43-22.1-44.9-.6-.6-.7.2-.4 2 4.4 24 7.5 39.9 8 40.4.4.3 3 1.1 5.8 1.8l5.2 1.2-5.2-.5-5.3-.6 1.4 3.9c.7 2.1 1.6 5.5 2 7.6s1.6 5.3 2.6 7.2c1 1.8 1.5 3.7 1 4.1-1 1.1 3.2 15.2 5.6 18.9.9 1.4 2.2 2.4 2.9 2.1.8-.3 1.2 1.5 1.4 5.7.4 10.1 1.1 7.8 1.1-3.3 0-5.7.2-10.1.4-9.9 1.2 1.2 1.2 29.4 0 37-.7 4.6-1.4 13.7-1.4 20.1 0 13 .2 13.7 10.9 37.7 2.8 6.2 5.1 12 5.1 12.8s.5 1.1 1.2.7c.8-.5.9 0 .6 1.4-.4 1.2-.3 2 .1 1.7.5-.2 1.3.7 2 2.1.6 1.5.7 2.3.1 1.9-1.5-.9-1.3-.3 2.5 8.4 1.9 4.3 3.5 8.2 3.5 8.6 0 1.7 5.3 12.5 6.1 12.5 1.6 0 1-1.9-4.7-13.6-3.1-6.3-5.4-11.7-5.2-12 .3-.2 3.2 5.4 6.6 12.4 4.4 9 6.2 13.7 6.1 16.2-.2 3.1-.3 3.2-.6.7-.6-3.6-2.3-2.5-2.3 1.6l-.1 3.2-1.3-3-1.3-3-.6 4.1c-.4 2.3-1.4 5.8-2.2 7.8-1.6 3.7-1.6 3.7-6.3 3-6.2-.9-6.6-1.4-.9-1.4 4.2 0 4.8-.3 6.3-3.3 1-1.7 1.8-4.9 2-7l.3-3.9-7.7.6c-4.2.3-12.8.8-19.1 1.2-10.4.6-11.3.8-9.5 2.1 2.7 2.1 15.5 8.3 17.1 8.3 1.3 0 10-5 14.2-8.2 2.8-2.1 5.2-2.4 3.1-.4-3.1 2.9-21.4 13.5-22 12.7-.6-1-7.8.1-12.5 1.9l-3 1.2 3 2.4c1.7 1.3 3.3 2.4 3.8 2.4.4 0 .7 1.9.8 4.2 0 2.4.5 5.2 1 6.3.7 1.6.9 1.4.6-1.3-.2-1.8 0-3.5.5-3.8.4-.3.8.3.8 1.4 0 1 .9 5.2 2.1 9.3 3.7 13.6 4 14.9 3 16.7-.8 1.4-1 1.3-1.5-.8-1.8-8.6-4.5-18.8-4.1-15.5.3 2.2.8 6.2 1.2 8.8l.6 4.9-6.8 6.8c-3.7 3.7-6.5 7.2-6.2 7.6.3.5-2.5 1-6.1 1-6.7.2-6.7.2-2.2-.8 2.5-.6 4.6-1.1 4.8-1.3.7-.7-7.7-15.4-8.8-15.5-.6 0-13 17.7-13 18.5 0 .3 1.1.5 2.4.5 1.4 0 2.8.5 3.1 1 .4.7-.2.9-1.9.4-1.4-.3-2.6-.2-2.5.2 0 1 10.7 9 13.1 9.9 1.8.7 3.4-1.1 4.3-4.7.5-2 .3-2.7-1.2-3.1-1-.3 0-.6 2.2-.7s4.5-.1 5 0c4.9 1.3 7.5.4 4.6-1.7-1.2-.8-2.1-1.8-2.1-2.4 0-1.6 2.8-1 4 .8 1 1.7 1.1 1.7 2.3-.1 2.6-4 5-6.7 5.4-6.2.3.2-1.3 2.8-3.4 5.8-2.2 2.9-4.3 5.9-4.7 6.5-.4.7 0 3.6.9 6.5 2.4 8.3 2.2 9.2-2.2 8.3-2.1-.4-4.2-1-4.8-1.4-.5-.4-2.7-1.3-4.8-2-4.7-1.6-5.6-1-16.3 9.1-4.6 4.4-7.4 6.4-7.4 5.4 0-.9.4-1.6 1-1.6.5 0 4.7-3.6 9.2-8 7.6-7.4 8.1-8.1 6.4-9.2-1.1-.6-3.8-2.7-6-4.7-7.1-6.3-7.4-6.5-9.1-5.1-1.4 1.1-1.4 1-.5-1.6.6-1.6 1.5-3.1 1.9-3.4.5-.3 3.6-4.5 7-9.4l6.3-8.9-2.9-2.4c-5.6-4.6-14.5-10.3-15.4-9.7-1.7 1-.9-2.3 1.1-4.6 2.2-2.6 13-18.5 13-19.2 0-.3-2.7-2.4-6-4.8s-6-4.5-6-4.7c0-.5 1.6.4 7.2 4.5 5.5 3.9 5.3 4.1 6.7-6.8l1-7.5-.4 6.9c-.3 3.8-.3 6.7 0 6.5.2-.3 3.1-8.2 6.5-17.6 3.3-9.4 6.3-17.8 6.6-18.6.4-1.1-.4-1.8-2.8-2.5-1.8-.6-4.1-1.3-5-1.7-1.6-.6-1.8-.1-1.8 3.5 0 2.6-.4 3.9-1.1 3.5-.6-.4-.7-1.9-.4-3.7.7-2.8.5-2.9-2.1-2.6-1.5.2-3.2 1.2-3.8 2.3s-1.3 2.2-1.6 2.5-1.4 2.4-2.4 4.8c-1.1 2.3-2.1 4-2.3 3.8s.7-2.7 2.1-5.6c1.4-2.8 2.2-5.9 1.9-6.8-.8-1.9-9.2-12.7-14.7-18.7-4.2-4.5-4.2-4.7-1 7.6l1.7 6.7 6.4 1.7c3.5 1 6.2 1.9 6 2.2-.7.6-9.3-1.7-21.7-5.8-14-4.6-17.7-4.7-34-.8-16.6 4-16 3.7-16 6.2 0 3.9-2 .3-2.4-4.4-.3-2.5-1-5.7-1.6-7s-2.1-7.6-3.4-13.9l-2.4-11.5-3.3.2c-1.9.1-2.6-.1-1.6-.3 2.9-.9 2-2.1-4-5.5-6.1-3.4-17.1-9.9-31.7-18.6-4.9-2.9-9.5-5.3-10.2-5.3s-1.8-.9-2.3-1.9c-1.3-2.3 3.7.2 23.3 11.8 7.1 4.2 13.2 7.6 13.5 7.6.3.1 3.5 2 7 4.3s6.8 4.2 7.4 4.2c1.9 0-2.2-35.4-4.4-37.5-.8-.7-5.9-2.9-11.4-5-9.5-3.5-13.8-5.4-12.3-5.5.4 0 5.3 1.8 11 3.9 13.9 5.4 15.6 5.7 15.5 3.4-.1-3.3 1.3-27.4 2.8-45.8 2.5-31.8 3.8-51.6 3.2-52.1-.7-.7-4.2 1.5-26.6 17-21.4 14.8-21 14.5-19.3 12.3.8-.9 3.7-3.1 6.5-4.9 7.7-4.9 32.8-22.3 36-25l2.8-2.3-44.3-9.8c-24.3-5.4-44.5-10-44.7-10.3-1.2-1.1.9-1.1 5.8.2 6.1 1.5 12.2 2.6 16.6 2.8 1.7 0 3.3.5 3.7 1.1s.8.2.8-.9c0-1.4-.5-1.7-2.1-1.3-1.7.5-1.8.3-.8-.9 1.7-2.1-.4-6.4-3.1-6.4-1.5 0-2-.7-2-2.5s-.5-2.5-2-2.5c-1.3 0-2 .7-2 2 0 3.1-1.4 2.3-2.6-1.5-.9-2.9-.8-3.8.8-5.4 1-1.1 1.8-2.7 1.8-3.5s.4-1.7.9-2c1.2-.8.2-4.6-1.1-4.6-.6 0-.8.7-.4 1.5.3.8.1 1.4-.5 1.2-.6-.1-4.3 4.8-8.2 11-4 6.2-7.8 11.2-8.5 11.3-1.8 0-2.5 1.2 11.9-20.5 14.9-22.6 22.9-35 22.9-35.6 0-.3-1.5-.5-3.2-.5-1.8-.1-8.2-.3-14.3-.5l-11-.3 13.8-.6 13.7-.5-11-8.9c-6-4.8-11-9-11-9.3 0-.4 1.5.7 16.3 11.9 8.1 6.1 9 6.6 11.5 5.7 1.5-.6 10.7-4 20.5-7.5 22.3-8 22.1-7.9 20.6-10.7-1.2-2.2-1.1-2.2.8-.4 1.2 1 2.9 1.8 3.9 1.8M436 366c0 .2-.7-.6-1.6-1.8-2.1-3.1-3.4-2.8-3.4.9 0 1.6.4 2.8.8 2.5.5-.3.8.8.7 2.5-.1 1.6.2 3.2.7 3.5.4.3.8 1.3.8 2.3s.6 1.8 1.3 1.8c1.2 0 1.5-1.2 1.7-7 .1-2.3.4-2.6 1.6-1.6.8.6 1.4 1.7 1.4 2.5 0 2 1.9 2.7 3.7 1.2 1.4-1.1 1.5-1.1 1.1.2-.3.8.1 3.3.9 5.5.7 2.1 1.1 4.5.8 5.3s0 1 .7.6c.8-.5.9-.2.5.9-.3.9-.2 1.9.3 2.2.6.4 1 .1 1-.6 0-1 .3-1 1.1-.2.6.6.8 2 .4 3.2-.6 1.8-1.4 2.1-6.8 2.1h-6.2l-.3 3.6c-.1 2 .2 4.2.6 4.8 1.4 1.8 3.2 7.6 2.3 7.6-1.2 0-3.9-7-4.4-11.6-.3-2.3-1.1-5.6-1.9-7.5-3.1-7.2-3.8-10.8-3.8-20.1 0-12.9.6-14.3 3.6-8.1 1.3 2.6 2.4 5 2.4 5.3m404.4-3.9c-.4 10.3-1.8 21.2-2.5 19.4-.6-1.5-.8-.9-.8 2.1-.1 2.2-.4 4.4-.8 4.8-.4.3-.8 2.6-1 4.9-.1 2.3-1.1 7.6-2.2 11.7-1.5 6.1-2 7-2.5 5-.4-1.5.1-4.8 1.3-8.3 2.6-7.5 1.1-7.5-6-.2-5.1 5.3-7.9 6.8-7.9 4.2 0-.7-.9-1.8-1.9-2.4-1.6-1-2-.9-2.5.3-1.2 3-.7 8.4.8 8.4.8 0 1.6.7 2 1.5.3.8 1.1 1.5 1.7 1.5.8 0 .7-.5-.2-1.7-1.2-1.5-1.2-1.6.8-1.1 1.8.5 2.3.1 2.8-2.4 1-4.4 1.8-2.6 1 2.1-.4 2.3-1.1 3.9-1.6 3.5-.5-.3-.9.1-.9.9 0 3.1 3.2 1.1 5.3-3.4 2-4.5 3.7-6.2 3.7-4 0 1.7-4.2 8.5-6.3 10.2-1.8 1.4-2.2 1.2-7.7-3.9-4.6-4.2-5.7-5.8-5-7 .5-1 1.9-5 3-9 2.3-7.8 3.6-9.5 2.5-3.4-.6 3.6-.4 3.8 3.1 5.4 3.6 1.7 3.7 1.7 6.4-1.1 1.5-1.5 4-3.5 5.5-4.5 2.5-1.7 2.6-1.9 1.1-2.8-1-.5-2-.8-2.3-.5-.2.3-1.3-.2-2.4-1.1-1.2-1-1.5-1.9-.8-2.3s.4-1.2-.7-2.4c-1.2-1.2-1.8-3.4-1.8-7.6-.1-5.2.1-5.8 1.7-5.3.9.3 1.7.2 1.7-.3s.9-.9 2-1c1.6-.1 1.9.3 1.5 2-.4 1.4.1 3 1.5 4.4 1.1 1.2 2 3.2 2.1 4.5 0 1.8.3 1.5 1.4-1.3 1.4-3.9 3.1-17.9 2.7-21.8-.2-1.5.1-2.2 1-1.9.8.3 1.2 1.9 1.2 3.9m-34.8.6c-.3.7-.1 1.3.4 1.3s1-.6 1.3-1.3c.4-1.1 0 1.2-.8 5.5-.2 1 0 1.8.6 1.8.5 0 .9.4.9 1 0 .5-.7.7-1.5.4-1.1-.5-1.6.5-2.2 3.8-.6 3.6-.8 3.9-1.3 1.9-.5-2.4-.6-2.4-2.9 1.5-4.3 7.1-8.1 14.6-8.1 15.9 0 .8 1.2 2.3 2.7 3.5l2.8 2.1 1.1-4.6c1.6-6 2.8-7.2 2-2-.3 2.2-1 7.1-1.5 11-1.2 9.5-4.8 22.5-6.7 24.6-.8.9-2 3.3-2.5 5.4-.6 2-1.3 3.5-1.5 3.2-.7-.6 1.6-8.6 3.2-11.2 1.1-1.9 4-14.2 4.6-19.5.1-1.4-.2-3.2-.7-4-.6-.8-1.5-2.4-2-3.5-1.6-3-3.9-2.9-5.2.2l-1.2 2.8.6-2.8c.6-3-.2-3.4-2.6-1.3-1.8 1.5-7.6 3.6-10 3.6-.9 0 1-1.1 4.2-2.4 6.5-2.7 8.7-4.3 8.7-6.1 0-.7.7-1.5 1.5-1.9 1.9-.7 11.7-15.9 13.6-20.9 1-2.9 1.1-4.4.2-6.7-1-2.5-.9-2.8.8-2.7 1.2.1 1.7.7 1.5 1.4m-346.6 32c.7 2.1 1.2 5.5 1.1 7.5-.2 3 .1 3.7 1.2 3.2 1-.3 1.7.1 1.9 1.3.6 2.7-.3 6.4-1.3 5.7-.5-.3-3.4.8-6.4 2.5s-6.1 3.1-6.9 3.1c-2 0-2.8-2.7-1-3.4.9-.4 1.3-1.3.9-2.9-.3-1.2-.1-3.6.5-5.2 1.2-3.1-.4-5.2-2.6-3.4-.8.6-1.4.4-1.8-.7-1.1-3-.6-3.5 2.7-2.9 1.7.4 4.3.6 5.6.6 2.3-.1 2.3 0 .7 1.8-1 1.1-2 3.9-2.3 6.3s-1 4.9-1.6 5.5c-.7 1-.4 1.3 1 1.3 2.4 0 9.5-5.9 7.1-6-2.2 0-3.2-4.8-1.8-8.6.6-1.6.9-4.3.5-6.1-.8-4.5.8-4.2 2.5.4m101.3 126c-.3 1-1.5 3-2.5 4.5-1.8 2.7-1.8 2.7.3 3.9 1.4.7 4.4.9 7.8.6 3.3-.3 4.6-.2 3.1.2l-2.5.8 2.5.6c10.4 2.6 16.6 3.8 23.5 4.7 4.4.6 13.2 1.8 19.5 2.7 13.4 1.9 19.9 2 29.5.5 3.9-.6 13.6-1.6 21.6-2.1 8.1-.6 17.6-1.7 21.1-2.6 3.5-.8 8.6-1.7 11.3-2 6-.8 7.1-1.5 2.4-1.6-1.9 0-4.3-.4-5.4-.9s1.9-.6 7.3-.3c5.5.4 9.2.2 9.2-.3 0-.6 1.7-1.1 3.8-1.2 3.3-.1 3.5 0 1.5 1-1.3.6-2.5 1.9-2.8 2.9s-1.2 1.6-1.8 1.3c-.7-.2-6.4 3.1-12.7 7.4-8.8 6.1-11.5 8.4-11.4 10.1.1 2.4-.6 2.7-2.4.9-.9-.9-1.8-.8-3.9.1-6.4 3-16.3 6.1-23.8 7.5-4.4.8-12 2.4-16.8 3.5-8.7 1.9-8.9 1.9-17 0-4.5-1.1-13.9-3.3-20.9-4.9-6.9-1.6-14-3.6-15.7-4.4-3.2-1.7-6.6-2.1-5.7-.8.2.4-.4 1.3-1.5 2s-1.9.8-1.9.2c0-.5.4-1 .9-1s1.2-.7 1.5-1.6c.6-1.7-.8-3.1-13.8-13.1-4.4-3.4-8.2-6-8.4-5.8s-1.4-.8-2.7-2.3l-2.3-2.6 2.2-1.1c1.1-.6 3.2-2.7 4.5-4.8 2.7-4.1 3.4-4.6 2.4-2m154.2 53.2c-1 .8-16.3 9-35 18.5-9.3 4.7-10 5.3-10.6 8.6-.6 3-.7 3.1-.8.7 0-1.5-.4-2.7-.8-2.7-.5 0-2.7 1.8-5 3.9s-9.8 7.8-16.8 12.6c-8.8 6.1-12.4 9.2-12 10.3s0 1.3-1.8.8c-1.5-.3-3.6.3-6.3 2l-3.9 2.5 3-2.5c1.7-1.4 3.3-2.6 3.8-2.6 1.6 0 .5-2.6-1.7-4-1.3-.8-7.5-5.4-13.8-10.1-16.2-12.2-19.4-14.3-28.3-19-4.3-2.3-11.1-6-15-8.4-3.8-2.3-9.4-5.5-12.3-7-2.8-1.6-5-3-4.8-3.2.5-.5 8.4 3.7 21.1 11.3 5 2.9 12.4 6.6 16.5 8.1 7.1 2.6 8.4 2.8 24 2.8h16.5l.5-3 .6-3 .8 3.2.8 3.3h13.1c15.6 0 20.7-.7 20.7-2.7 0-1.1.7-1.3 2.9-.8 3 .6 6.8-1 31.1-13.8 11.7-6.2 15.7-7.9 13.5-5.8m489 101.1c.3 1.1 1.5 2 2.6 2 2 0 4.4 4.3 3.6 6.4-.3.6-.9-.5-1.5-2.4-.6-2.1-1.1-2.7-1.1-1.5-.1 1.1.6 4.1 1.6 6.7l1.6 4.6 1.7-3.1c1-1.8 2.6-5.8 3.6-9 1.3-4.1 2.3-5.7 3.6-5.7 1.6 0 1.4.9-1.6 9.2-1.8 5.1-3.6 10.9-4 12.9-.6 3.1-.9 3.6-3 3.2-1.9-.4-2.9-1.8-4.6-6.6-1.2-3.4-3.3-9-4.6-12.5-2.2-5.9-2.2-6.2-.4-6.2 1 0 2.2.9 2.5 2m24.3 5.8c3.1-1.1 8.5.8 13.4 5 1.2.9 1.9.6 3.6-1.7 3.1-4.3 7.2-4.8 13-1.8 2.6 1.4 4.6 3.1 4.4 3.7-.1.6.2.9.7.5.6-.3 1.5.3 2 1.4 1.5 2.7 1.4 3.8-.1 1.8-1.6-2-3-1.1-4.4 2.8-.6 1.6-1.6 2.9-2.3 2.7-.7-.1-1 .2-.6.8.3.5-.1 1.3-.9 1.6-2.8 1.1-1.7 2.6 1.4 2.2 1.7-.3 3 0 3 .5 0 1.4 3.1-1.5 4-3.8.6-1.2.9-1.4.9-.5.1 3.1-6.1 8.1-7.4 6-.3-.5-1.4-1-2.3-1-1.5 0-1.5.2-.2 1 .8.5 1.1 1 .7 1-1.5 0-5.1-2.2-9.7-6-3.8-3-5-3.5-7.5-2.9-1.6.4-2.5.7-2 .8.6.1-.3 1-2 2.1-2.4 1.5-2.6 2-1.3 2.5.9.4 2.7.1 4-.6 2.1-1.1 2.2-1.1.9.4-.7 1-.9 1.7-.3 1.7 1.4 0 3.3-2.5 2.5-3.3-.3-.4-.1-.7.5-.7 1.7 0 1.5 1.5-.5 3.1-1.1.9-3.7 1.4-6.4 1.4-3.7-.1-5.6-.9-8.8-3.4-2.3-1.8-4.1-3.9-4.1-4.7 0-1.7-1.7-1.9-2.3-.2-.3.7-.4-.3-.3-2.3 0-2.1.3-3.6.6-3.4s1.4-1.8 2.5-4.3c1.1-2.8 2.1-4 2.3-3.1.2 1.4.8 1.5 3 .7"/><path d="M630.7 53.7c-3.1 4.3-7.1 9.8-8.9 12.3-1.7 2.5-3.7 4.9-4.2 5.5-.6.5-3.7 4.9-6.9 9.7s-6.8 9.8-8 11.1c-4.2 4.6-8.3 10.8-7 10.6.4-.1 1-.1 1.3 0 3 1.1 41 2 41 1 0-.4 1.2-1.8 2.6-3.3 3.6-3.5 12.2-3.8 15.5-.5 1.4 1.4 3.6 2.2 6.3 2.3 2.2.1 5.9.6 8.2 1 5.9 1.2 6.1-.8.8-8.5-2.5-3.5-7.4-10.7-11-15.9-3.5-5.2-8.2-12-10.4-15-2.3-3-5.9-8.3-8.2-11.8-2.3-3.4-4.5-6.2-4.8-6.2-.4 0-3.2 3.5-6.3 7.7M571 110.1c-8 1-17.5 2.4-21.1 3l-6.7 1.2-.7 19.1c-.4 10.6-.6 20-.4 21.1.3 1.5 1.9.4 7.9-5.7 10.7-10.8 19.7-20.4 25.5-27.3 2.8-3.2 6.2-7.2 7.8-8.7 1.5-1.6 2.7-3.3 2.7-3.8 0-.6-.1-.9-.2-.9-.2.1-6.8 1-14.8 2M688.5 112.1c1.1 1.3 4 4.7 6.5 7.4 2.5 2.8 5.4 6.2 6.5 7.5 11.1 13.7 15.1 18.3 19.9 22.9 3 3 5.9 5.1 6.3 4.7s.9-9.9 1.1-21.2l.4-20.4h-3.8c-2.2 0-6.4-.4-9.4-.9s-10.9-1.2-17.5-1.6l-12-.8zM731 137c0 12.1.3 22 .8 22 .4 0 1.2-.4 1.8-.9.5-.6 5.2-3.2 10.4-5.9 22.3-11.6 28-14.7 27.7-15.5-.1-.5-3.8-2.8-8.2-5.1s-13.3-7-19.7-10.4-11.9-6.2-12.2-6.2c-.2 0-.5 9.9-.6 22M542 167.5c0 1.6-.7 12.2-1.5 23.5s-1.5 22.7-1.5 25.3v4.8l7.3-.5c15.6-1.3 40.3-3.7 41.5-4.1 2-.7 1.4-2.2-2.1-5.7-1.8-1.8-8-8.5-13.8-14.8-5.7-6.3-14.8-16-20.2-21.5-9.2-9.5-9.7-9.9-9.7-7M727 169c0 .5-.3.9-.7.9-1.7-.3-3.6.1-3.1.7.6.5-3.8 5.4-4.9 5.4-.3 0-4 3.3-8.2 7.4-4.2 4-10.6 10.3-14.3 13.8-3.8 3.6-6.8 7-6.8 7.6 0 .7-.4 1.2-.9 1.2-1.5 0-11.1 10.4-10.3 11.1.4.4 6.6.9 13.7 1.3 7.2.3 18.3.9 24.8 1.2l11.7.7v-26.2c0-14.3-.2-26.1-.5-26.1s-.5.4-.5 1M537 170.8c0 2.3-10.1 32.8-12.4 37.3-.9 1.7-1.6 3.6-1.6 4 0 .9 12.9 8.3 13.4 7.8.6-.7 2.6-34.2 2.6-42.8 0-4.7-.4-8.1-1-8.1-.5 0-1 .8-1 1.8M730.6 174.6c-.8 5.8-.8 40.1 0 43.1.6 2.1.7 2 7.5-1.5 7.2-3.7 7.6-4.3 5.8-8.9-.6-1.5-1.3-4.4-1.5-6.3-.2-2-1.8-7.4-3.7-12-1.8-4.7-3.9-10.5-4.7-13-1.9-6.4-2.6-6.7-3.4-1.4M632 199.8c-3.2.2-6.2 1-7.2 1.9s-1.8 1.2-1.8.8c0-.5-1 .1-2.2 1.3-1.3 1.1-2.7 2.2-3.3 2.4-.5.2-.9.6-.8 1 .2.4-.3.5-1.1.2-.7-.3-1.9.2-2.6 1.1-1 1.2-1 1.5.1 1.5.9.1.5.8-1 2-1.3 1.1-1.9 2-1.5 2 .5 0 .3.4-.4.9-.8.4 3.4 1.1 10 1.4 12.3.7 46.5.7 43.3 0-4-.9-7.5-2.6-7.5-3.7 0-1.3-14.8-11.6-16.7-11.6-.6 0-1.3-.3-1.5-.8-.1-.4-2.8-.6-5.8-.4M523.7 230.2c.3 7.9.7 14.4.8 14.6.2.2 1.8-2.7 3.6-6.5 1.8-3.7 4.4-8.5 5.7-10.6 1.3-2.2 2.1-4.5 1.8-5.3-.5-1.3-9.6-6.4-11.5-6.4-.7 0-.8 4.9-.4 14.2M738.1 218.6c-6.1 3.1-7 4.5-4.9 8.8.8 1.7 2.3 4.9 3.2 7.1 1.5 3.4 1.9 3.7 2.8 2.2.5-1 .7-2.5.4-3.3-.3-.9-.1-1.2.4-.9.6.3 1 2.3 1 4.3s.5 4.4 1 5.2c1.1 1.7 1.1 1.3 1.5-9.8.2-3.5.6-8.6.9-11.3.4-2.7.3-4.9-.2-4.9-.4 0-3.2 1.2-6.1 2.6M565.5 220.6c-20.5 1.8-23.5 2.3-23.5 3.8 0 1.2 1.8 3.7 14 19.1 2.5 3.1 6.8 8.7 9.5 12.4 2.8 3.7 7.4 9.6 10.3 13 2.8 3.5 5.2 6.7 5.2 7.2 0 1.6 2 1 2.6-.9.3-.9.9-2.6 1.4-3.7 1.4-3.5 7-42.6 7-49.1V219l-5.7.1c-3.2.1-12.5.8-20.8 1.5M598.3 220.5c.8.5 1.2 1.5 1 2.1-.5 1.4 3.7 12.5 8.7 22.7 2.1 4.5 4.8 10.4 5.9 13.2 1 2.7 3.2 7.9 4.9 11.5 3.5 7.8 11.4 25.5 12.9 29l1 2.5 1.6-3.5c.8-1.9 3.1-6.9 5.1-11.1s3.6-7.9 3.6-8.2c0-.6 12.4-27.6 18.1-39.3 1.6-3.4 2.9-6.8 2.9-7.7 0-.8.6-2 1.4-2.6 2.2-1.9 2.6-5 .8-6.1-1.5-.8-1.5-1.1-.2-2 1.5-1-10.3-1.3-50.8-1.4-12.4-.1-17.8.2-16.9.9M674 223.5c0 3.7.7 8.7 4 30.5 1.1 7.4 2 15.2 2 17.2 0 4.7 1.5 5.6 4.7 2.7 3.1-2.9 19.1-21.9 29.4-34.9 4.2-5.2 8.3-10.3 9.3-11.2.9-1 1.4-2.2 1.1-2.8-.3-.5-.1-1 .6-1 .9 0 1-.3.2-1.1-.6-.6-9.7-1.4-22.9-1.9-31.7-1.3-28.4-1.6-28.4 2.5M594.5 226.1c-.4 1.3-1.1 5.9-1.5 10.4-1.1 11.3-4.7 32.9-6.4 37.8-.8 2.5-1.1 4.6-.5 5.3.5.6 4.6 2.8 9.1 4.9 4.6 2.1 12.6 5.8 17.8 8.3 10.3 4.8 17.3 7.6 16.7 6.4-.9-1.4-12.7-26.3-12.7-26.7 0-.2-2.2-5-4.9-10.7s-7.4-16.4-10.6-23.8c-3.1-7.4-5.8-13.6-6-13.8s-.6.7-1 1.9M670 226.1c0 .8-4 9.5-8.9 19.4-8.4 17.1-18.1 37.9-18.1 39s-4.4 10.1-6.2 12.7c-1.6 2.4-1.7 2.8-.4 2.8 1.4 0 12.2-4.9 17.1-7.8 1.1-.7 5.4-2.7 9.5-4.5 4.1-1.9 9.4-4.6 11.7-6 4-2.6 4.3-2.9 3.8-6.5-1-7.5-2.7-18.9-3.6-24.2-.6-3-1.2-7.1-1.4-9-1.1-10.4-3.5-21.1-3.5-15.9M555.5 272c-.3.5-.1 1.9.5 3 .9 1.6.8 2.2-.5 2.6-1.1.5-1.5 2.1-1.5 6.3 0 8.1.7 8.8 6.7 6.7 7.2-2.7 19.3-8.7 19.3-9.7 0-1.2-6.2-1.5-9.2-.4-2.3.8-3.1.5-4.8-1.3-1.2-1.2-2.6-2.2-3.3-2.2s-.3-.7.7-1.5c2.2-1.7 2.2-1.6-1.8-3.3-2.4-1.1-3-1-4.3.5-1.4 1.7-1.4 1.7-.9 0 .6-1.9.1-2.3-.9-.7M705.7 272c-2 .4-4.1 1.1-4.5 1.5-.4.5.2.5 1.2.1 1.6-.5 1.7-.4.6.9-.8 1-1.7 1.2-2.9.5-1.2-.6-2.7-.4-4.6.6-1.5.8-4.6 2-6.8 2.8-2.3.8-4.3 1.8-4.5 2.4-.4 1.2 21.4 10.4 23.6 10 2.1-.4 3.4-6.8 2.8-13.6-.2-3-.6-5.5-.8-5.6s-2 .1-4.1.4M578 285c-1.9 1-7.4 3.6-12.2 5.7s-8.8 4-8.8 4.3c0 .7 15.3 10.2 21 13 2.5 1.3 7.1 4 10.3 6.1 3.2 2.2 6 3.9 6.3 3.9.2 0-.2-1.3-1.1-3-.8-1.6-1.5-3.5-1.5-4.3 0-1.8-4.5-17.7-6.6-23.5-1.8-4.7-2.5-4.9-7.4-2.2M586 284.2c0 .7.6 3 1.4 5.3.8 2.2 3.1 9.2 5.1 15.5s4.4 12 5.2 12.7c1.3 1 2.4.8 5.7-1 2.2-1.2 5.9-2.9 8.1-3.7 5.7-2.1 18.5-9.1 18.5-10.1 0-.8-8.7-5.1-15-7.4-1.9-.7-9-3.8-15.8-6.9s-12.5-5.6-12.8-5.6c-.2 0-.4.5-.4 1.2"/><path d="M657 292.1c-9.6 4.8-18.5 8.8-19.8 8.8-4.3.1-1.7 2.4 9.5 8 6.1 3.1 11.5 6 11.9 6.4 1.4 1.3-9.9-3.6-17-7.5-3.8-2.1-7.2-3.6-7.5-3.3-.6.6 3.1 12.2 6 19 1 2.2 2.5 7.3 3.5 11.3 1.4 5.8 2 6.9 2.7 5.5.5-1 5.2-6 10.4-11.1s9.3-9.5 9.1-9.6c-.1-.2-1.6-1.1-3.3-2-1.6-1-2.1-1.4-1-1 4.6 1.5 6.1 1.4 8.3-.6 1.2-1.1 2.2-2.6 2.1-3.3q0-1.35-.6 0c-.2.7-.9 1.3-1.4 1.3-.6 0-.6-.7 0-1.9.6-1 1.5-3.6 2-5.7.5-2.2 1.8-6.4 2.9-9.4s2.3-7.4 2.7-9.8c.6-3.7.5-4.2-1.2-4.1-1 .1-9.7 4.1-19.3 9"/><path d="M680 284c0 1.6-.1 2-3.1 10.9-3.2 9.4-3.4 11.3-1.7 14 .9 1.4 1.7 1.7 3.7 1.1 4.1-1.2 15.3-6.5 19.2-9.1 2-1.3 5.1-3.2 6.9-4.2l3.3-1.8-7.9-3.5c-4.3-2-10.3-4.7-13.2-6-5.8-2.6-7.2-2.9-7.2-1.4M525.6 289.2c1 1.3 2.1 2.5 2.4 2.8s1.8 2.3 3.4 4.5c5.5 7.5 7.6 8.5 18.4 8.7 3 .1 3.3-.3 3.9-4.9l.5-3.8-14.4-4.8c-7.8-2.6-14.7-4.7-15.2-4.7s-.1 1 1 2.2M555.7 299.2c.6.7 1.3 2.6 1.7 4.2.7 2.9 2.8 5.6 4.3 5.6 2.7 0 18.3 5.8 21.1 7.8 3 2.3 3.1 2.6 1.5 3.8-1 .7-1.3 1.4-.7 1.4 1.1 0 3.8 4.6 3.9 6.5.1 2.4 9.9 10 20.5 15.8 6 3.3 2.5 2.6-4.9-.9-4-1.9-7.6-3.3-7.8-3-.3.2 0 1.9.6 3.8.5 1.8 1.4 4.9 1.9 6.8.8 3.5.9 3.5 5.8 3.2 2.7-.2 5.1-.8 5.2-1.3.5-1.2 4.2-1.2 4.2 0 0 .6-.4 1.3-1 1.6-.5.3-1 1.2-.9 1.8 0 .9.2.9.5 0 .3-.7 1.2-.9 2-.6 1 .4 1.7-.2 2.1-1.6.3-1.1 1-2.1 1.7-2.1.6 0 .5-.4-.3-.9-.7-.5-2.3-.6-3.5-.4-1.7.4-1.4-.1 1.4-2.7l3.4-3.1-2.3-4.4c-2.7-5.1-16.2-17.3-24.1-21.7-3-1.7-12.3-7.1-20.7-12-15.3-8.9-17.4-9.8-15.6-7.6M699.5 302.7c-4.4 2.5-9.8 5.5-12 6.6-2.2 1-4.7 2.5-5.5 3.2s-3.2 1.9-5.3 2.6c-6 2.1-6.8 3.9-1.8 3.9 2.2 0 4.1-.4 4.1-.8s1.5-.6 3.3-.4c3 .3 3.4.1 3.3-2-.1-1.7.5-2.4 2.2-2.6 1.6-.3 2-.7 1.3-1.5-.7-.9.1-1.3 2.7-1.4 2-.1 5.8-.7 8.4-1.4 4.7-1.1 4.8-1.2 4.8-5 0-2.8.4-3.9 1.5-3.9.8 0 1.5-.5 1.5-1 0-1.3.8-1.6-8.5 3.7M628.5 305.6c-2.8 2.2-13.6 7.6-22.9 11.4l-7.9 3.3 3.4 3c5.3 4.6 11.1 10.2 14.2 13.6 1.6 1.7 3.2 3.1 3.7 3.1.4 0 3-5.9 5.6-13.1 2.7-7.2 5-12.7 5.1-12.2.2.5-1.5 6.1-3.7 12.4-5.6 15.4-5.6 15.3.1 15.7l4.6.3.6-5.3c.4-2.9.7-8.4.7-12.3 0-11.6 1.9-6.1 2.2 6.5l.3 11.5 3.8-.1c6-.2 6.2-1.1 3.2-11.6-3.9-12.9-8.5-21.4-8.5-15.6 0 1.5-.3 1.9-.8 1.1-.4-.7-.5-4-.2-7.3.6-6.4 0-7.1-3.5-4.4M668 320.7c-.8.4-5.7 4.8-10.7 10-9.6 9.6-11.5 13.5-7.5 15 .9.4 2.4 1.4 3.2 2.3.8 1 3.1 2.3 5 3 3 1 4.1 1 7.3-.4 3.5-1.4 3.7-1.7 2.6-3.7-.8-1.6-.8-2.3.1-2.9 2.9-1.8-2.2-1.7-8 .1-7.5 2.3-9 1.9-2.3-.6 4.9-1.9 9.5-4.7 12.9-8 1.2-1.1 3.3-2.9 4.8-3.9 3.1-2.2 6.1-7.9 5.2-10.1-.4-1.1-2-1.5-5.8-1.4-2.9 0-6 .3-6.8.6M649.6 352.7c.3 2.7.9 6.4 1.3 8.3.5 1.9 1.7 8.1 2.7 13.7 1 5.7 2.2 10.3 2.7 10.3s.7-6.8.3-16.3c-.5-15.8-.6-16.2-3.1-18.5-3.8-3.2-4.5-2.8-3.9 2.5M615.6 362.5c.4.8 0 2.5-.8 3.8-1.4 2.1-2 4.5-5.4 22.7-.7 4.1-2.1 11.2-3 15.7-.8 4.6-1.2 8.8-.8 9.4 1.2 2 6.4 17.4 6.4 19 0 .9.6 2.2 1.4 2.8 1.2 1 1.5.6 2.1-1.8.5-2.5.7-17.3.3-24.1 0-1.4 1.1-18.3 2.8-40.5.7-8.2.6-8.5-1.4-8.5-1.5 0-2 .5-1.6 1.5M647 363.5c0 1.1-.3 8.4-.6 16.3l-.6 14.2 5.7-.4c3.2-.3 5.8-.6 5.9-.8s-.1-1.7-.5-3.3c-.4-1.7-.7-2.3-.8-1.5-.2 2.7-2.7-3.4-3.9-9.6-1.5-7.2-5.1-17.8-5.2-14.9M493.2 381.5c.2.3 5.8 6.2 12.3 13.1 13 13.8 11.7 13.2 14.5 5.9 1.2-3.1 1-6.5-.4-6.5-1.2 0-3.6-4-3.6-6.1 0-2-3.9-5.1-7.7-6-4-.9-16-1.3-15.1-.4M760.4 382.5c-5.6.8-7 1.3-6.6 2.5.5 1.3.3 1.3-1.1.1-1.5-1.2-1.7-1-1.7 1.6 0 2.1-.7 3.3-2.2 4.1-1.8.8-1.9 1.1-.5 1.1 2.5.1 2.1 2-.7 3.2-1.3.6-2.6 1.9-2.9 2.8-.4 1.8 1.5 4.1 3.4 4.1.6 0 .8.7.4 1.7-.4 1.2.5.7 2.7-1.2 5.3-4.8 19.8-19.9 19.8-20.7s-.9-.7-10.6.7M648.3 398.4c-2.3 1.1-2.3 1.4-2.3 19.3 0 11.3.4 18.3 1 18.3 1.5 0 3.6-3.7 8-14.5 3.6-8.8 4-10.6 3.4-15-1-7.9-1.9-9.5-5.1-9.4-1.6.1-3.8.6-5 1.3M536.5 409.7c-8.8.8-16.4 1.9-16.9 2.3-.5.5-.3 1.4.3 2.2.7.7 3.5 4.8 6.2 9l5.1 7.8 4.3-3c2.4-1.6 7.8-6.4 12.1-10.5s8.5-7.5 9.3-7.5c1.4 0 1.4-.1.1-1-.8-.5-2.2-.9-3-.8-.8 0-8.7.7-17.5 1.5"/><path d="M562.8 408.7c-2.4.6-2.3 3.5.2 5.1 2.6 1.6 2.5 2.5-.2 3.7-2 .9-2.5 2.3-3.5 9.5-1.3 9.3-3.4 33.2-2.9 33.7s5-4 11-11.2c3.2-3.9 9.3-10.6 13.5-15s9.6-10.4 12-13.3c2.3-2.8 4.7-5.2 5.3-5.2.5 0-3.1 4.6-8.1 10.2-5 5.7-14.1 16-20.2 23-6.1 7.1-11.5 12.8-12 12.8-2.3 0-.2 2.8 8.2 11 5 5 9.4 9 9.8 9 .7 0 2.4-3.5 6.7-13.9 1-2.4 2-3.9 2.1-3.4.5 1.5-2.3 11.6-4.6 16.3-1.4 3-1.8 4.8-1.1 6 .5 1 .7 1.9.5 2.2-.3.3.4 3 1.5 6.2 1 3.1 2.7 9.8 3.6 14.9 1.8 10.2 2.8 12.2 4.3 8.6 1.2-2.8 5.4-19.6 7.7-30.7 1.6-7.7 3.3-12.4 3.4-9.2 0 .8-1.4 8-3.1 16s-3.2 15.5-3.4 16.7c-.8 5.4-1.8 9-3.1 11-1.2 1.9-.3 1.7 6.3-1.9 8.4-4.4 13.4-7.6 14.5-9.2.3-.5.1-2.1-.7-3.6-.7-1.4-1.6-4.4-2-6.5-.4-2.2-1.6-6.7-2.7-10-1-3.3-2.3-8-2.9-10.5-.6-2.4-1.5-4.7-2-5.1-.7-.4-.7-2.3-.1-5.8.5-2.8.5-5.1.1-5.1-.5 0-.9-.7-.9-1.5s.7-1.5 1.5-1.5c.9 0 2.7-1.2 4.1-2.8l2.5-2.7-2.3 3.3c-2.3 3.3-2.3 3.4-.3 4.9 1.9 1.4 1.9 1.5-.5 1.1-1.5-.2-2.5.2-2.4.9s.2 2 .3 2.8c0 .9 1.1 2 2.4 2.6l2.2 1-2.3-.5c-2.1-.4-2.3-.2-1.7 1.7.3 1.2 1 3.5 1.4 5.2.5 2.3 1.3 3 3.1 3.1 1.4.1 3.8.4 5.4.7 2.2.5 2.9.2 3.3-1.3.7-2.6 2.3-2.6 3 0 .3 1.1 1 2 1.5 2 .7 0 .8 1.6.5 4.1l-.5 4 3.1-3.4c1.8-1.9 4.1-4.7 5.1-6.3l2-2.8 1 2.5c.6 1.3 1.7 3 2.4 3.8 1.1 1.1 1.5 1.1 2.7-.5.8-1.1 1.5-2.4 1.5-2.9.1-.6.3-2 .6-3.3.4-2.3-2.1-6.1-2.8-4.2-.2.5-1.8 1.2-3.5 1.6-2.6.5-3.3.3-3.3-.9 0-.8.6-1.9 1.3-2.4 1.5-1.2 11.7-2.5 11.8-1.5 0 .4.2 1.7.3 3 .3 2.3 3.2 5.1 5.4 5.2.8 0 1.2 2.1 1.2 7 0 7.9 1.2 9.1 2.9 2.7 1.1-4.4 4.1-11.1 4.1-9.1 0 1.6-3.8 17.3-5.6 23-1.2 3.8-1.4 5.6-.5 7.1.5 1.1.8 2.3.4 2.7-.6.5 15.5 8.5 20.5 10 2.3.8 2.3.7.9-2.1-1.9-3.6-3.4-9.3-4.6-16.9-.5-3.2-2.5-12.2-4.5-19.8-2-7.7-3.6-14.4-3.6-14.9 0-1.4 1.3 0 1.6 1.6.1.7 1.4 5.5 2.9 10.7s3.4 12.4 4.2 16c1.4 5.8 4.7 18.2 5.9 21.9.8 2.5 2.1-.2 3.3-6.9 1.6-8.4 4.9-22.7 6-26.2.5-1.6.5-3 .1-3.3-.5-.3-1 .3-1.2 1.2-.3 1.3-.6 1-1-.9-.3-1.5-.1-2.5.3-2.2 1.1.7 0-5.4-1.6-8.6-.7-1.4-2.2-6.3-3.5-11-1.2-4.7-3.7-11.5-5.5-15.1s-4.1-9.2-5-12.5c-2.6-9.4-5.8-18.4-6.6-18.4-.3 0-1.2 1.5-1.9 3.2-2 5-7.9 17.9-9.7 21.1-2.2 4.1-1.9 4.3 10 5.4 8.8.8 8.7 2-.2 1.5-10.2-.6-10.9.1-6.6 7.2 4.7 7.8 4.4 8.3-.6 1-2.3-3.2-4.7-6.2-5.3-6.6-1.3-.9-6.3 3.8-9.7 9.1-1.3 2.2-3.6 4.6-5.1 5.5-4.2 2.6-4.6 1.8-.6-1.4 3.4-2.8 10.8-12 10.8-13.4 0-.3-4.5-.6-10-.6h-10l4.2 3.7c2.4 2.1 4.5 3.9 4.7 4 .2.2.2.5-.1.8s-3.1-1.5-6.2-4l-5.6-4.6-.1 2.8c-.1 2.6-.1 2.6-.7.5l-.7-2.3-2.2 2.1c-2.5 2.3-3.2 1.1-.8-1.4 1.6-1.5 2-3.6.8-3.6-.5 0-.9-1-.9-2.3-.2-2.8-7.9-24.6-9.1-25.8s-1.5-.4-6.7 15.9c-4.4 13.8-4.5 16.4-.6 22.5 1.6 2.6 2.6 4.7 2.2 4.7-.9 0-8.2-11.6-8.2-13 0-1.2 4.1-15.3 7.3-24.7 1.3-3.9 2.3-8.2 2.2-9.4-.2-3-2.7-3.6-17.3-4.4-6.4-.3-13.3-.7-15.2-.9s-4.3-.1-5.2.1M710 412.3c8.5 7.8 20.1 17.7 20.9 17.7 1.6 0 12.1-15.2 12.1-17.5 0-.1-1.9-.5-4.2-.8-2.4-.3-8.8-1.3-14.3-2.1-5.5-.9-12-1.5-14.5-1.5l-4.5-.1zM663.5 418c3.5 12 16.8 48.5 21.9 60.3l1.7 3.8 2.7-2c4.8-3.5 12.5-11.9 11.8-13-.4-.5.7-1.7 2.4-2.6l3.1-1.6-4-4.2c-13.5-14.5-19.6-21.1-25.8-28.2-3.9-4.4-8.7-9.6-10.8-11.5-3.5-3.3-3.7-3.3-3-1"/><path d="M558 470c0 .8.4 2.7 1 4.4.5 1.7 2.4 8.3 4.1 14.6s3.4 11.9 3.6 12.4c.8 1.2 7.8-11.4 8-14.3.1-1.5-.9-3.5-2.5-5.1-8.6-8.4-14.2-13.1-14.2-12M703.3 471.3c-1.1.7-4.9 3.8-8.3 7.1-6.8 6.5-6.9 7.2-3 16.1 4 9 4.4 8.9 7.9-2.6 1.8-5.7 4-12.5 4.8-15.2 1.8-5.7 1.5-6.9-1.4-5.4M684 498.7c-2.7 9.1-4.9 21.2-4 21.8 1.1.7 15.9-13.9 15.7-15.5-.2-.8-1.4-3.3-2.7-5.5-1.4-2.3-3-4.9-3.6-6-2-3.6-3.1-2.5-5.4 5.2M572.2 497.9c-2 3.9-2.9 6.7-2.5 8.2.5 2.1 12.5 14.9 13.9 14.9.2 0 0-.9-.6-1.9-.5-1.1-1-3.8-1-6.1 0-4.6-4.6-21-5.9-21-.4 0-2.2 2.7-3.9 5.9M341.8 138.9c-.7 1-4.7 5.6-8.9 10.2-14.1 15.6-19.9 22.3-19.4 22.7.6.6 18-4.1 18.3-5 .2-.4.7-.6 1.1-.4.7.5 37.3-8.8 39.1-9.9.7-.4.9-1.6.7-2.7-.4-1.2-.1-1.8.6-1.5.7.2 1.1 1.1.9 2.1-.3 1.8 1.3 2.2 2.3.5.4-.6 1.3-.8 2.1-.5s2.4.1 3.6-.3c2.6-1 3.8-.3-13.2-7.2-8.1-3.3-13.5-5.7-18.9-8.3-4.4-2.1-6.7-2-8.3.3M269.7 171.7c-1.9 3.8-4.5 8.8-5.8 11.2-1.8 3.2-2.1 4.5-1.1 4.8.6.3 1.2 1.8 1.2 3.4 0 2.4-.4 2.9-2.6 2.9-1.4 0-3.1.6-3.8 1.2-1.8 1.9-4.9 6.8-4.3 6.8 1.9 0 54.1-26.9 53.5-27.6-.8-.8-29.8-9.4-31.6-9.4-1.5 0-3 1.8-5.5 6.7M277.8 191.4c-14.2 7.2-25.8 13.3-25.8 13.6s2.3 2.1 5.1 4 5.6 4 6.2 4.5c.7.6 2.4 1.8 3.8 2.7 2.6 1.6 2.6 1.6 9.1-5 3.6-3.7 10.3-11 14.8-16.2s9.5-11 11.1-12.7c2.9-3.3 3.5-4.4 2.2-4.2-.5.1-12.4 6-26.5 13.3M297.9 189.4c-14.9 16.5-26.1 29.7-25.8 30 .2.2 4.8 3.3 10.1 7 10.8 7.4 10.3 7.4 12.7-.9 3.4-11.5 12-44.9 11.7-45.2-.1-.2-4.1 3.9-8.7 9.1M251.7 208.7c-.2.5-.1 4.2.3 8.3.5 4.1 1.1 11.4 1.5 16.3.4 4.8 1.1 8.5 1.5 8.2 1.6-1 14.1-21.6 13.6-22.4-.6-.8-15.3-11.1-16-11.1-.3 0-.7.3-.9.7M267.1 225.5c-1.3 2.5-4.4 7.6-6.8 11.2s-4.1 6.8-3.9 7.1c.3.2 7.7-1.7 16.6-4.3s16.4-4.4 16.7-4.2c.5.6-10.5 4-24.2 7.7-4.4 1.2-8.3 2.5-8.8 2.9-.8.8 5 6.4 13.3 12.8 6.5 5 5.2 6 14.6-10.9 4.7-8.5 6.3-12.2 5.6-13.3-1-1.8-18-13.5-19.6-13.5-.6 0-2.2 2-3.5 4.5M314.5 232.2c-7.7 1-15.5 2.1-17.4 2.4l-3.3.5.3 34.4c.3 25 .7 34.1 1.5 33.4.6-.5 4.1-6.6 7.7-13.7 20.8-40.6 28.7-56.5 28.7-57.8 0-1.7.4-1.7-17.5.8M332.4 235.5c-1.3 2.2-22.6 43.9-31.1 60.9l-5.5 10.9 2.3 1.8c1.3 1 8.9 5.5 16.9 9.9s16.4 9.1 18.8 10.6c2.3 1.4 4.2 2 4.2 1.4 0-2.6-4-92.7-4.3-95-.2-2.4-.3-2.4-1.3-.5M289.5 242.2c-1.1 2.3-4.4 8.2-7.3 13.2l-5.3 8.9 1.9 4.1c1.1 2.3 4.5 10.5 7.7 18.3 3.2 7.9 6.1 14.3 6.5 14.3.3 0 .5-1.7.4-3.8-.1-2-.3-13.8-.4-26.2-.2-12.4-.6-24.8-.9-27.7l-.6-5.2zM253.5 249.2c-.2.7-1.6 4.6-3 8.7s-2.5 8.2-2.5 9.2c0 .9-.9 3.8-1.9 6.2l-2 4.6 6.2-2.9c3.4-1.5 9.7-4.4 14.1-6.4 4.3-2 8-3.5 8.2-3.3s-5.7 3.2-13.2 6.7c-7.4 3.5-13.7 6.8-14 7.2-.6.9 3.7 3.6 21.2 13.3 22.4 12.5 24.6 13.6 25.2 13.1.3-.3-3-9.2-7.2-19.8-8.2-20.6-8.3-20.6-19.7-29.3-2.9-2.2-6.3-5-7.6-6.3-2.8-2.5-3.2-2.7-3.8-1M234 287.9c-6.2 5.6-6.4 5.9-5.1 8.3 1.6 3.1 6.1 8.1 6.7 7.5.3-.2 1.5-4.8 2.8-10.1s2.7-10 3.1-10.4c.9-.8.6.8-2.3 14l-2 8.7 8.6 2c4.7 1.1 8.8 1.9 9 1.6.5-.4-9.2-21.9-11.4-25.3-.8-1.2-1.8-2.2-2.2-2.2s-3.7 2.6-7.2 5.9M251.2 296l7 14 3.7-.1c2 0 9.2-.6 16.1-1.2l12.4-1.2-4.4-2c-2.5-1.1-6.9-3.6-10-5.6-3-1.9-7.5-4.6-10-5.9-2.5-1.4-8.2-4.6-12.8-7.2-4.5-2.6-8.4-4.8-8.6-4.8s2.8 6.3 6.6 14M229.4 312.2c-7.4 5-6.9 4.4-5.7 7.1.6 1.2 2.1 4.3 3.3 6.9 1.2 2.7 2.6 4.8 3.1 4.8.6 0 1.6-1.5 2.4-3.3l1.4-3.2.1 3.8c0 3.7.1 3.8 2.8 3.3 1.5-.3 4.4-.7 6.5-.8 4.8-.3 4.8-1.7-.3-10.7-5.8-10.2-4.9-9.9 2.1.8 3.3 5.1 6.2 9.1 6.4 8.9s1.1-1.7 1.9-3.3l1.6-3v3.2c0 3.2.9 3.9 4.8 3.4.6-.1 1.2.3 1.2.9 0 .5.6 1 1.4 1s2.1.6 2.8 1.2c3.6 3.4 3.5 1.1-.3-6.4-6.2-12.5-7.8-14.2-14.6-16.1-10.9-2.9-12.7-3.1-12-1.3.8 2 .3 2-1.5.2-1.2-1.2-2.3-.8-7.4 2.6M273.7 310.6c-7.6.7-14.3 1.4-14.8 1.6-1.6.5 13.4 23.7 15.6 24 1.4.2 2.1 1.2 2.3 3.5.4 4 1.5 4.2 3.1.7s2.6-2.3 1.3 1.5c-.8 2.2-.7 3.2.1 3.9 2 1.5 18.7 4.6 19.7 3.6.5-.5.5-2.6 0-4.9-1.7-7-1-8.2 1.1-1.8l1.9 6.2 3.8-1.6c6.1-2.5 23.6-11.5 25.4-13.1 2.4-2 2.7-1.9-22-15.7-17.1-9.5-16.7-9.5-20.4-1.6l-1.7 3.6.6-3.5c.3-1.9 1.2-4.2 1.9-5.1 2.9-3.3 3.2-3.3-17.9-1.3M334 335.9c-1.4 1-7.5 4.4-13.6 7.5-13.2 6.7-15.1 8-13.6 9 .7.4 1.2.2 1.2-.3 0-.6.4-1.1.9-1.1s.8.8.7 1.7c0 1 3.1 3.8 8.4 7.5 4.7 3.2 9.6 6.7 11 7.8 1.9 1.6 2.6 1.7 3.2.7 1-1.9 5-30.1 4.6-32.6-.3-1.9-.4-1.9-2.8-.2M281.8 350.2c.7.9 1 2.3.6 3.2-.3.9-.1 1.6.5 1.6s1.1.8 1.1 1.9c0 2.3-3.9 12-5.6 14.1-.7.8-1.7 3.5-2.3 5.8l-.9 4.4 8.7-9.4c13.1-14 17.1-18.5 17.1-19.1 0-1.1-6.1-2.6-13.2-3.3-6.5-.6-7.2-.5-6 .8M292.1 365.4c-4.6 5.2-10.1 11.3-12.2 13.6-2.2 2.3-3.9 4.5-3.9 4.9 0 .5 2.8 3.2 6.3 6.2 3.4 2.9 6.5 5.8 6.9 6.3 1 1.4 1.8.4 2.3-3 .9-5.6 2.7-12.9 3.5-13.9 1-1.2 6.4-23.5 5.8-23.5-.2 0-4.1 4.3-8.7 9.4M310.2 359.7c3.3 2.1 4.4 4.3 1.8 3.6-1-.3-2.1 0-2.4.6-.8 1.2-5.7.4-6.7-1.1-.6-.9-4.1 10.1-5.8 18.2-.6 2.5-1.7 7.1-2.5 10.2-.8 3.2-1.2 5.8-.9 5.8.6 0 6.4-3.7 28-17.6 4.4-2.9 8.4-5.7 8.7-6.2.5-.8-4.8-4.8-12.9-9.7-1.8-1.2-4.2-2.8-5.3-3.8-1-.9-2.5-1.7-3.3-1.7s-.2.8 1.3 1.7M204.2 393.6c-1.2 2.5-1.9 5-1.6 5.6.4.6.3.8-.3.5-.6-.4-2.6 2.4-4.7 6.3-3.4 6.6-4.8 10.4-2.6 7 .8-1.3 1-1.2 1 .2 0 1-.6 1.8-1.4 1.8s-2.4 1.5-3.5 3.4c-2 3.2-3 6.6-1.1 3.6.9-1.3 1-1.3 1 0-.1 2.1-3 5.9-3 3.9-.1-.8-.7-.3-1.4 1.1-.8 1.4-1.2 2.9-.9 3.3.3.5-.6 2-1.8 3.4l-2.4 2.6 4-2.3c9.5-5.5 13.5-8.3 13-9-.3-.5.3-.8 1.2-.8 1.6.2 16.3-8.8 16.3-9.9 0-.2-.5-.1-1.2.3-.7.5-.8.3-.4-.5.5-.7 1.5-1 2.3-.7s2.4-.3 3.5-1.4c1.2-1.1 1.7-2 1-2-.6 0-1.4.5-1.8 1.1-.5.8-1.3.4-2.4-1.1-1.3-1.7-2.1-2-3.6-1.3-3.2 1.5-5.9 1-6-1.2-.1-1.1-.3-2.5-.4-3-.1-.6-.2-1.9-.1-2.9.1-2 .1-2 1.5 0 .8 1 1 2.1.5 2.5-1.5.9 1.6 4.3 3.5 3.6 2-.8 2.1-4.3.2-5.4-.8-.4-2.3-2.7-3.4-5.1-1-2.3-2.2-3.9-2.7-3.4-.4.4-.5-.5-.1-2.1.9-3.9.3-3.4-2.2 1.9M182 440.5c0 .8 16.1 11.2 18 11.6.8.2 6.2-1.7 11.9-4.1l10.5-4.5-4-.6c-2.1-.4-10.4-1-18.4-1.4-8-.3-15.3-.9-16.2-1.1-1-.3-1.8-.3-1.8.1M204 456.5c0 .3 2.2 2.7 4.9 5.4 4.8 4.8 5 5.1 4.7 10.3-.2 2.9-.6 7.5-.9 10.3-.6 4.4-.6 4.7.4 2 .6-1.7 2.7-6.9 4.5-11.7 4.1-10.5 4.3-13.6 1.2-14.2-1.3-.2-4.7-.9-7.6-1.5-6-1.2-7.2-1.3-7.2-.6M216.8 478.3c-3.2 8-5.8 15-5.8 15.6s1.2 1.8 2.8 2.8c1.5 1 2.9 2 3.2 2.3 2 2 4 2.9 5.4 2.4 1.3-.5 1.6-2.3 1.5-10.8-.1-5.5-.4-13.9-.7-18.5l-.7-8.3zM948 137.1c-.8.5-9 3.5-18.3 6.8-9.2 3.4-17.9 6.7-19.3 7.4-2.6 1.4-2.6 1.4 3.3 3 3.3 1 7 1.7 8.4 1.7s2.9.4 3.5.9c.5.5 5.4 2.1 10.9 3.6 5.5 1.4 14.3 3.9 19.5 5.5 9.4 2.9 26.3 7.1 26.7 6.6.1-.1-5.4-6.5-12.4-14.1-6.9-7.7-13.9-15.7-15.6-17.7-3.4-4.2-4.6-4.9-6.7-3.7M1014.5 168.7c-2.7.8-9.5 2.8-14.9 4.4l-9.9 3.1 10.4 5.7c16.1 8.9 40.9 22.1 41.4 22.1.3 0-3.6-8.3-8.7-18.5-10.2-20.4-9.3-19.5-18.3-16.8M994.7 183.4c8.3 10 25 28.5 26.2 29 .8.4 1.9.1 2.4-.6.6-.9.7-.7.4.7-.2 1.2.6 3.5 1.8 5.3l2.2 3.2 7.7-6.1c4.2-3.3 7.6-6.4 7.6-6.9 0-.4-2.1-2.1-4.7-3.8-5.5-3.4-44.7-24.2-45.8-24.2-.3 0 .6 1.5 2.2 3.4M990.3 183.5c.3 1.1 1.7 6.7 3.2 12.5 1.4 5.8 4.4 17.2 6.7 25.3 3.4 12.3 4.3 14.7 5.7 14.2 2.6-.9 20.1-12.9 20.1-13.8 0-.4-2.6-3.6-5.7-7-3.2-3.5-10.4-11.4-15.9-17.7-5.6-6.3-11.2-12.4-12.4-13.5l-2.3-2zM1036.2 216.1c-4.9 3.9-6.3 5.6-5.9 7.1.3 1 3.2 6.6 6.4 12.4l5.8 10.5.6-6.3c.9-9.1 1-28.8.2-28.8-.5.1-3.7 2.3-7.1 5.1M993.1 217.7c-1.3 1.5-3.1 3.9-4 5.3-2 3.2-4.1 5.4-4.1 4.3 0-.4-.4-.2-.9.5-.5.8-3.6 1.5-8.2 1.8-4.1.3-7.5.7-7.6.8-.8.7 27.5 4.6 29.1 4 1.1-.4 2.1-.2 2.6.7 2 3.1 1.7-.2-.8-9.9-1.4-5.6-2.9-10.2-3.2-10.2s-1.6 1.3-2.9 2.7M1017.2 230.4c-5.1 3.5-9.3 6.8-9.3 7.2s6.4 2.6 14.3 4.9c22.5 6.5 20.6 7 14.5-3.8-2.9-5.1-5.8-10.5-6.6-12s-1.9-2.7-2.5-2.7-5.3 2.9-10.4 6.4M962.5 234.2c.4 1.3 8.7 18.1 18.5 37.5 20.7 40.9 18.4 40.3 20 4.8.5-12.1 1.3-25.4 1.6-29.6l.7-7.5-3.9-1.2c-4.6-1.3-32.3-6.2-35.4-6.2-1.7 0-2 .4-1.5 2.2M959.6 246.7c-.4 6-.9 13.3-1.1 16.3-1.6 21.5-2.6 35.9-2.5 38.5 0 1.6-.5 9-1.1 16.3-.7 7.3-.9 13.6-.5 13.9.9 1 17.5-7.4 18.2-9.1.3-.8 1.2-1.2 1.9-1 .8.3 6.1-1.8 11.9-4.8 7.8-3.9 10.6-5.8 10.6-7.1 0-2.1-35.1-73.6-36.1-73.7-.4 0-.9 4.8-1.3 10.7M1006 239.7c0 .9 13.7 25.4 14.8 26.5.4.4 4.5-2.2 9.2-5.8 9.1-7 12.7-10.1 11.9-10.7-.2-.2-8-2.6-17.4-5.2-9.3-2.6-17.3-5-17.7-5.2-.5-.2-.8 0-.8.4M1003.6 257.2c-.3 7.9-.9 19.5-1.2 25.8s-.7 13.1-.9 15.1c-.1 2 0 4.1.4 4.8 1.1 1.6 17.4-33.5 16.8-36-.6-2.4-13-23.8-13.8-23.9-.3 0-.9 6.4-1.3 14.2M1041.9 252.7c-.2.4-4 3.5-8.4 6.8s-8.6 6.5-9.5 7.2c-1.2.9 1.2 2.4 13 8.1 8 3.8 14.6 6.8 14.8 6.7.5-.4-7.9-27.9-8.8-28.8-.4-.5-.9-.5-1.1 0M1017 276.8c-1.9 4.2-5.8 12.8-8.7 19s-5.3 11.5-5.3 11.7c0 .9 6-1.9 25.5-11.7 25.1-12.6 24.2-12 20.6-14.1-3.4-2-27-12.7-27.9-12.7-.4.1-2.3 3.5-4.2 7.8M1038 293c-5.8 3.3-11.2 6.2-12 6.5-6.4 2.6-20.8 10-20.5 10.5.3.4 3.9 1 8.2 1.3 4.3.4 10.9 1 14.7 1.3 4.7.5 6.7.4 6.3-.4-.4-.5-1.5-.8-2.5-.5-1.2.3-1.9-.1-1.9-1s1.2-1.7 2.7-1.9c2-.3 2.9.2 3.7 1.9.6 1.3.7 2.1.2 1.7-.5-.3-.9 0-.9.5 0 2.2 5 1.2 6-1.2 2.7-6.3 9-23.2 9-23.9 0-1.7-2.8-.5-13 5.2M1051.9 290.6c-2.5 6.6-7.7 22.9-7.4 23.2.1.2 3.4-.7 7.1-2.1 4.5-1.5 6.8-2.8 6.7-3.8-.4-3.2-4.3-19.2-4.8-19.7-.2-.3-.9.8-1.6 2.4"/><path d="M1064 302.5c-.7 1.6-1.7 4-2.3 5.2-.9 1.9-.5 2.9 2.2 6.3 4 5 3.2 5.2-1.4.2-1.9-2-3.3-3-3-2.1.4.9 0 1.9-.8 2.2-1.1.4-1.3 0-1-1.3.5-1.8-.1-1.7-7.1.8-7.1 2.5-7.6 2.9-7.7 5.7-.1 2.9-.1 2.9-.8.5-.6-2.3-.9-2.1-5.3 4-5.3 7.6-7.2 11-6.4 11.7.3.3.8-.2 1.2-1.1.3-.9 1.1-1.3 1.7-.9s.7.1.2-.7c-.6-1-.4-1.2 1-.6 1 .3 3.3.3 5.2 0 3.4-.6 3.5-.7 3.1-5-.2-2.4 0-4.4.4-4.4.5 0 .8 1.1.8 2.4 0 1.4.5 3.7 1 5.2l1 2.7 2.2-2.4c1.1-1.3 3.4-5.3 5.1-8.8 1.7-3.6 3.3-5.9 3.5-5.3.2.7-.5 2.7-1.5 4.5-1.1 1.7-2.7 5.1-3.6 7.4l-1.7 4.2 3.5.7c1.9.3 3.5 1 3.5 1.6 0 .5.5.6 1 .3.6-.3 1.1-3.4 1.1-6.8l.2-6.2.7 5c.4 2.7.5 5.4.2 6q-.45 1.05.6 0c1.8-1.7 6.9-12 6.5-13.1-.2-.6.1-2.2.6-3.5.9-2.2 1-2 1 1.6 0 2.5-.7 4.9-1.9 6.5-1.1 1.4-2 2.9-2 3.3s-.9 2.8-2.1 5.3c-1.6 3.6-1.8 4.9-.8 6 1.7 2 3.9-.1 3.9-3.7 0-1.6.4-2.9 1-2.9.5 0 1.2-1.6 1.6-3.5.3-1.9 1-3.7 1.4-4 .4-.2.4 1.5-.1 3.8-1.1 5.6-1.1 5.9.1 5.2 1.6-1 1.1 1-.8 3.6-2.6 3.3-3.4 5.8-2.6 8.2 1.5 4.8 7.9-16 6.8-22.1-.6-2.9-.9-3.3-1.4-1.7-.4 1.2-.9 1.5-1.3.8s.2-1.8 1.3-2.6c1.7-1.2 1.8-1.6.7-2.6-.8-.6-1.7-.8-2-.4-.4.3-.7-.1-.7-1s.5-1.9 1-2.2c1.7-1.1 1.1-4.8-1.5-9-1.9-3.1-2.5-3.6-2.6-2-.1 1.3-.4 1-.8-1l-.8-3zM1001.4 314.4c.5 2 .3 2.3-1.4 1.9-1.7-.5-2 0-2 2.8 0 2.4-.3 3-.9 2-.5-.8-.8-2.4-.6-3.7.1-1.3-.2-2.4-.7-2.4-.6 0-9.8 4.3-20.5 9.6l-19.5 9.6 3.9 2.2c6.6 3.8 25.7 13.3 27.9 14 2 .6 2.4 0 4.3-6.6 2-6.9 2.1-6.2.5 3.8l-.6 4.1 9.3-1.3c5.2-.7 9.8-1.3 10.3-1.4.5 0 .6-.3.3-.7-.9-.9 1.3-3.4 2.4-2.7 1.4.8 1.1-1.1-1.1-6-1.1-2.5-2.9-6.6-4-9.2-3.1-7-.9-4.4 3 3.5 1.8 3.9 4 7.1 4.7 7.1s1.3-.5 1.3-1.1c0-.5.4-.8.9-.5s1.2-.1 1.5-.9.9-1.4 1.3-1.3c1.9.5 5.6-2.8 11.7-10.6 3.6-4.7 6.6-8.9 6.6-9.4 0-1-6.7-2.1-25.5-4.2-13.4-1.5-13.8-1.5-13.1 1.4M954.4 340.1c.6 5 2.9 28.5 3 31.1 0 1 .1 1.8.3 1.8.7 0 27.2-18 27.7-18.8.9-1.4-.5-2.3-16.8-10.7l-14.8-7.8zM1001.7 352c-8.7.8-9.8 1.9-6.7 6.2 4.8 6.7 22.5 25.9 22.8 25 .5-1.6-1.8-9.2-2.7-8.9-1.7.5-5.6-5-5.9-8.4-.7-8.7-.7-11.5.1-12.6 1.2-1.7-.2-1.9-7.6-1.3M975.4 363.7c-16.9 10.8-16.7 10.7-14.6 12.5 2 1.6 12.6 8.4 19.3 12.2 2.9 1.7 5.3 2.4 6.4 1.9 1.4-.5 1.7-.3 1.2 1s.4 2.2 3.6 3.8c3.2 1.7 3.9 1.8 2.8.5-.7-.9-.9-1.6-.3-1.6 2.2 0 1.9-3.5-1.4-20-1.9-9.5-3.4-17.4-3.4-17.6 0-1.2-2.8.3-13.6 7.3M992.1 360.7c.5 2.1 1.1 5.8 1.5 8.2 1.3 9.5 4.2 22.3 5.3 23.4.8.8 1.1.5 1.1-1.1 0-2.7.6-2.7 4.8-.2l3.3 2.1 4.2-3.3c2.3-1.7 4.4-3.3 4.6-3.4.2-.2-.3-.9-1-1.7-3.1-3.1-15.2-16.8-19.5-22.1-2.6-3.1-4.8-5.6-4.9-5.6-.2 0 .1 1.7.6 3.7M958 379c0 1 .4 2.9.9 4.2s2.1 7.6 3.6 14.1c2.2 9.8 3 11.7 4.3 11.3 1-.2 7.9-1.9 15.5-3.6 7.5-1.8 13.7-3.5 13.7-3.9 0-.3-1.7-1.7-3.8-3.1-7.8-5.1-33.3-21-33.8-21-.2 0-.4.9-.4 2M1070.7 381.1c-.7 2.5-5.7 8.9-5.7 7.3 0-.5-.5-.1-1.1.8-.5 1-1.3 7.1-1.6 13.6-.5 11-.5 11.9 1.3 12.6 1.5.6 1.7.5.7-.5-2.1-2.1-1.5-2.9 2.1-2.9 2.2 0 3.6.6 4 1.6 1.1 2.9.6 3.6-2 3.1-2.9-.5-2.4.1 2.7 3.1 2 1.2 3.9 2 4.2 1.7.4-.3.5-.2.2.2-.3.3 2.2 2.4 5.5 4.5 4.7 2.9 6.7 3.7 8.7 3.2 2.2-.6 2.5-.4 2 1.1-.5 1.2-.3 1.6.7 1.2.9-.4 1.3-.1 1.1.6-.3.7 1.2 2.3 3.3 3.6 3.4 2.2 3.6 2.2 1.8.2-1.1-1.1-1.6-2.1-1.3-2.1.9 0-3.2-9.2-4.9-11.1-.8-.8-1.4-2.2-1.4-3s-.6-2.1-1.2-2.8c-.7-.6-1.3-1.5-1.3-1.9 0-2.4-7.1-15.2-8.5-15.2-1 0-1.1-.3-.4-.8.8-.5-.3-3.8-3.6-10.6-4-8.3-4.8-9.5-5.3-7.5M1023.2 390.2c1.3 1.3 5.5 6.3 9.3 11.3l7 8.9.3-7.3c.4-9.1 0-10.3-3.2-9.7-1.5.3-3-.2-3.8-1.2-1.1-1.3-1.1-1.4.1-.7.9.5 1.2.4.7-.3-.3-.5-2.5-1.3-4.9-1.7-2.3-.3-5-.9-6-1.2-1.4-.4-1.3 0 .5 1.9M1014.5 391.1c-1.1 1.1-3.2 2.8-4.7 3.7-1.6.9-3.1 2.4-3.4 3.4s-1.3 1.8-2.2 1.8c-3.3 0 .5 1.9 9.6 4.8 9.1 3 9.2 3 9.1.8 0-3.3-4.3-15.9-5.5-16.3-.6-.2-1.9.6-2.9 1.8M1050.5 441.6c-5.3 14.3-5.7 16-4.8 19.5.5 2.1.7 3.6.2 3.3-.4-.2-1 1-1.2 2.8-.3 2.3-.4 1.8-.4-1.5 0-2.6-.2-4.9-.5-5.2-.5-.5-12.8 17.9-12.8 19.2.1 1.1 15.1 11.6 15.7 11 .2-.3 0-2.2-.5-4.3-.5-2.2-1-6.4-1-9.4v-5.5l.9 6c1.4 9.1 1.9 8.9 1.6-.8-.2-4.8 0-8.2.4-7.6.9 1.6 1.3 0 4.3-17.1 3.9-22.4 4.4-25.5 4.2-25.8-.2-.1-2.9 6.8-6.1 15.4"/><path d="M1056.2 438.9c-.7 3-2.4 11.5-3.7 18.9-2.8 15.1-2.8 15 2.4 36.2l2.8 11.5.7-13c.3-7.2.6-16.4.5-20.5-.1-12.4 0-13.6 1-12.1.6.9 1.4 1 2.7.3 1.1-.5 4.9-1.5 8.6-2.2 3.7-.8 6.5-1.7 6.2-2.1-.4-.7-15.1-8.9-16-8.9-.2 0-.4.8-.5 1.7-.1 3.7-2.2-3.2-2.8-9.2l-.7-6z"/><path d="m1060.1 488.6-.1 18.9 5.2-5c2.9-2.8 5.5-5.1 5.7-5.3.7-.4-8.4-25.1-9.8-26.5-.5-.5-1 7.2-1 17.9M562 534.1c5.9 4.9 10.3 8.5 11.8 9.3.9.5 2.7 2 4 3.3 1.2 1.3 2.5 2.3 2.8 2.3.6 0 6.3-4 8.2-5.8.7-.6 1.7-1.2 2.2-1.2.4 0 1-.6 1.3-1.4.6-1.6-6.8-3.9-19.8-6.2-4.4-.7-9.1-1.6-10.5-1.9l-2.5-.5z"/></svg>