<svg xmlns="http://www.w3.org/2000/svg" width="1706.667" height="960" viewBox="0 0 1280 720"><path d="M0 360v360h147.7c81.2 0 147.3-.3 147-.7-1-1 2.3-4.3 4.3-4.3 2.4 0 5.6 3.6 3.8 4.3-.7.3 218.9.6 488 .6l489.2.1V0H0zM630.5 46.8c2.2 1.1 8.4 3.4 13.8 5.2s9.7 3.4 9.5 3.6c-.6.6-15.5-4.2-23.6-7.5-7.7-3.2-8.6-2.8-5.2 2.4 18 27.8 35.8 53.5 37.5 54.1.7.3 3.9-1.2 7.1-3.4 23.1-15.4 32.5-21.4 33-21 .4.5-3.1 3.1-24.6 17.6-12.9 8.7-13.1 8.9-8.9 9.6 3.4.6 36.7 3.6 39.5 3.6 1.3 0 1.5-1.7 1-11.7-.3-6.4-.3-11.4 0-11 .3.3 1 5.6 1.5 11.8s1.2 11.6 1.7 12c1.1 1.2 38.4 20 38.8 19.6.2-.2-1.7-2.7-4.1-5.7-2.5-3-6.6-8.3-9.2-11.8-2.7-3.5-9.5-12.2-15.1-19.4-5.7-7.1-10.2-13.2-9.9-13.4.5-.6 3.7 3.1 15.7 18.6 5.2 6.7 12.8 16.2 16.8 21.2 3.9 5 7.2 9.5 7.2 10 0 .4.5.8 1 .8.6 0 1-.7 1-1.5s.5-1.5 1-1.5c.6 0 1 1.1 1 2.4 0 3.6 1 3.8 7.4 1.5 3.2-1.2 6-1.9 6.2-1.6.3.3-2.4 1.5-6 2.7-6.9 2.3-7.7 3.4-5.7 8.5.5 1.1.5 2.5 0 3-.4.6-.4 4.2.1 8 .5 3.9 1.4 16.7 2.1 28.5.6 11.8 1.6 22.1 2.1 22.7.7.9.7 1.3-.1 1.3-1.2 0-1.5 3.2-.4 4.4.8.7.9 1.4 1.7 10.6l.6 6.5-1.7-8-1.6-8-1.2 3.6c-.7 2-2.1 7.2-3.1 11.5-.9 4.4-1.9 7.3-2.2 6.5-.5-1.6 1.2-9.9 3.9-18.9 1-3.5 1.7-6.8 1.4-7.3-.3-.4-2-.6-3.8-.2-1.8.3-2.9.3-2.6-.1.4-.4 1.7-.9 2.9-1.1s2.5-.7 2.9-1.1c1.1-1.1-.4-38.4-1.9-45.9-1.2-6-1.8-11-1.9-14.8-.1-1.9-.5-2.6-1.3-2.1s-.9.2-.5-.9c.3-1 .3-1.7-.2-1.7-.4 0-9.4 4.3-19.8 9.6-16.7 8.3-23.7 12.6-22.2 13.7.2.2 4 3 8.4 6.3s10.1 7.4 12.6 9.1l4.6 3.2 3.9-10.1c2.1-5.5 4.3-10.2 4.8-10.5.6-.4.6.1.1 1.3-4 9.5-7.5 20.1-7 21.2.3.8-.1 2-1 2.6-1.6 1.2-2.3 6.4-1.1 8.4.4.8-.2 1.5-1.8 2.2-1.4.5-3 1.9-3.6 3-1.2 2.2-4.1 11.3-3.7 11.6.1.1 2.2-.2 4.7-.6 10.2-1.7 13.5-1.9 7-.4-3.6.8-7.5 1.7-8.7 2-1.3.2-2.3.8-2.3 1.3 0 .8 19.6 19.1 24.9 23.4 1.2.9 1.2 1.2.1 1.5-.7.3-2.5-.9-3.9-2.5-3.8-4.3-21.7-19.3-23-19.3-.6 0-1.1 1.7-1.2 3.7-.2 6.8-.8 16.7-1.4 20.7-1.1 8.8 0 11.1 9.6 18.8 4.9 3.9 8.9 7.2 8.9 7.4 0 .1-3.2-1.9-7.2-4.7-3.9-2.7-7.3-4.7-7.6-4.5-.2.3.5 1.7 1.5 3.3 8.3 12.3 15.4 23.4 16.9 26.5 1.5 3.3 2.3 3.8 5.3 3.9 3.4.2 3.5.2.6.6-1.6.3-3.3 1-3.7 1.6-.5.9-1.1.7-2-.4-.7-.9-2-1.9-2.8-2.2q-1.8-.6.3-.6c.9-.1 1.7-.3 1.7-.6 0-1.3-21.1-33.4-22-33.5-.6 0-.1 24.9.5 26.6.2.7 2.6 1.7 5.4 2.4s5.4 1.7 5.8 2.3c.4.7 0 .8-1.3.2-1-.4-4.5-1-7.6-1.3-4.5-.3-5.8-.1-5.8.9 0 1.1-.2 1.1-.9.1-.6-1-4-.2-15.7 3.7-12.6 4.2-15 5.4-15.6 7.3-.7 2.6-.9 7.9-.2 6.1.4-.8 1.4-.7 3.6.5 2.3 1.3 3.2 1.4 3.5.4.3-.6 2-1.2 3.8-1.2 2.7 0 4.6-1.1 9.7-5.8 5.6-5.1 5.9-5.3 3.2-1.7-1.7 2.2-3.6 5-4.3 6.2-1 2-.9 2.3 1.4 2.9 1.5.4 4.4.4 6.5.1 2.3-.3 4.6 0 5.7.7 1 .7 2.9 1.6 4.2 1.9 2.2.5 2.3.4 1.7-2.9-1.9-10.4-1.8-11.1.8-4.9 4.6 11.6 5 12.5 5.6 12.5.3 0 1.6-1.6 3-3.5 3.2-4.4 4.6-4.6 2-.3-2.3 3.9-2.7 7.3-.6 6.5.8-.3 1.8.5 2.5 1.9.6 1.3 1.5 2.4 2 2.4.6 0 2.4 2 4 4.4 1.7 2.4 4.6 5.3 6.6 6.4l3.5 2.1 1.5-2.9c.9-1.7 1.8-3 2.1-3 .2 0 0 .9-.6 2.1-.7 1.1-.9 3.2-.5 4.6.3 1.4.2 2.2-.3 1.9-.6-.3-1.4 0-1.9.7-.9 1.2-3.8 9.7-3.6 10.7.1.3.4 3.8.7 7.8.5 6 .4 7.2-.9 7.2-.8 0-1.5.6-1.5 1.2 0 1.8-4.2 5.6-7.7 7.1-3.5 1.4-9.3 6.2-9.3 7.6 0 .5-.6 1.2-1.2 1.4-2.4 1 13.7.7 17.2-.3 3.2-.9 9-6.3 9-8.4 0-.6 3.2-7.4 7.1-15.3 3.8-7.9 6.8-14.6 6.6-15-.2-.5.5-1.8 1.7-3.1l2.2-2.2v3.7c0 2.1.3 5.1.7 6.8l.7 3-1.2-2.8c-.7-1.5-1.6-2.6-2.1-2.4-1.4.4-10.7 17.3-10.7 19.3 0 .2-1.8 4.1-4 8.6l-4.1 8.2 6.5 6.4c6.5 6.4 6.5 6.5 9 4.8 1.4-.9 3.8-4 5.2-6.9 3-5.8 5.2-8.7 6.8-8.7.8 0 .8.2 0 .8-2.3 1.6-10.6 16.5-10.1 18.3.3 1.2 0 1.9-.9 1.9-.8 0-1.9 1.1-2.4 2.5-1.3 3.3-2.2 3.2-1.4-.1.5-1.9.4-2.5-.5-2-1.4.9-1.5-.6 0-2.1.7-.7-.7-2.6-4.6-6.2-3.1-2.8-6.1-5.1-6.5-5.1-2 0-7.5 16.4-6.5 19.2.3.8-.1 2-.9 2.7-1.2 1-1.3.6-.9-3.1.3-2.4 1.6-7.5 2.8-11.3 1.3-3.9 2.2-7.2 2-7.4-.7-.6-25.5 24.1-25 24.9.3.4 3.7-.1 7.7-1.1 3.9-1.1 8.1-1.9 9.2-1.8 1.2 0-1.7 1.1-6.4 2.4-11 3-14 4.2-14 5.5 0 .6-.4.9-.9.5-.5-.3-2.3 1.9-4.1 4.9-1.7 3-3.4 5.6-3.8 5.8s-1.8 2-3 4.2c-1.6 2.8-2 4.2-1.2 5.1s.4 1.4-1.4 1.7c-1.4.3-2.3.2-2.1-.2.5-.7-5.2-6.2-20.5-19.9-3-2.7-5.6-4.8-5.8-4.6-.7.6 3.3 39.2 4.3 42.2.2.7.1 1.4-.3 1.7-.8.5-2.7-10.6-3.7-21.9-.4-3.3-1-8.4-1.6-11.4-.5-3-.9-6.9-.9-8.7s-.5-3.6-1.1-3.9c-.5-.4-4.3-.3-8.2.1-4 .4-6.4.9-5.4 1.2 1.9.4 6 7.5 5 8.6-.4.3-2.1.6-3.9.6-4.1 0-5.9-2.6-4.4-6.5 1.3-3.5-.2-3.9-9.8-3.2-10.5.9-12.5 1.5-10.8 3.3.8.7 2.4 3 3.7 5.1 1.2 2.1 5.7 7.4 10 11.8 18.5 18.9 28.9 30 28.9 30.8 0 1.1 4.3-.3 5.2-1.7.3-.6 2-2.8 3.7-5 1.7-2.1 3.1-4.6 3.1-5.5s.9-2.2 2-2.9c2.9-1.8 2.5-.8-2.5 6.8-4.5 6.8-6.2 10-5.1 10 .3 0 3.6-1.1 7.2-2.5 12.1-4.6 7.6-1.8-7 4.4-2.8 1.1-2.8 1.2-1 2.7 1.6 1.3 1.6 1.5.2 1-.9-.2-2.1.1-2.6.7-1 1.3-4.7 12.6-7.8 23.7-.9 3.6-2.4 7.6-3.1 9-1.4 2.5-1.4 2.4-.8-1 .6-4.2 2.8-11.8 6.2-21.8 1.4-4 2.3-7.6 2-7.9-.9-.8-15.1 11.3-17.1 14.6-.8 1.3 7.2 18.1 8.9 18.7.8.4 1.5 1 1.5 1.5 0 1.1-9.7 10.3-18.8 17.8l-6.3 5.2-13-6.6c-7.2-3.7-13.8-6.5-14.8-6.2-4.7 1.5-15.7 5.9-16.4 6.6-.8.8-13.4-3.9-17-6.4-1.5-1.1-3.4-.4-12.7 4.7-6.1 3.3-11 6.4-11 6.9 0 2.5-3.5.2-9.7-6.3-9.7-10.3-15.5-15.8-16.6-15.8-.3 0-4.1-2.1-8.5-4.8-4.3-2.6-10.6-6.1-14-7.7-4.5-2.2-6.4-3.7-6.8-5.5-.4-1.4-1.9-4.3-3.4-6.5-4.1-6.1-4.5-6.9-3.1-6 .7.4 2.8 3.1 4.7 6.1s3.9 5.4 4.4 5.4 1.6-1.2 2.5-2.8c1.8-3.4 5.4-7.6 6-7.1.2.3-1.4 2.8-3.6 5.6-2.1 2.9-3.9 5.6-3.9 6.1 0 1.5 27.8 17.7 28.8 16.8.3-.4-.4-3.7-1.6-7.4-2.7-8.4-9.2-30.2-9.2-30.8 0-.2-.7-.4-1.5-.4s-1.5-.6-1.5-1.4-2.1-2.1-5-3.1c-2.7-.9-5.2-2-5.5-2.5-.3-.4-3.7-1.6-7.7-2.5-7.1-1.7-17.3-5.9-18.3-7.6-.9-1.4 14.4 3.8 25.4 8.6 4.4 1.9 8.4 3.5 9.1 3.5 2.5 0 4.4-3.5 5.6-10.4l1.3-7.1-.4 6c-.2 3.3-.6 7-1 8.2-1.8 5.6 5 .5 11.9-9 1.5-2.1 5.7-6.8 9.3-10.5 11.9-12.2 23.3-24.9 23.3-26 0-1.5-2.9-1.9-20.1-3.2-17.3-1.3-19.3-.9-19.7 3.6-.2 2.5-.1 2.6 1.1 1s1.4-1.6 3.1.3c1.9 2.1 1.9 2.1 0 2.1-4.6.1-4.7.6-6.4 18-.7 8.4-.8 7.7-.4-6.2.2-8.6 0-15.9-.4-16.2-1-.6-23.2 20.1-23.2 21.6 0 .6 1.7 3.4 3.7 6.2 8 11 12.2 17.6 11.5 17.6-.5 0-2.4-2.1-4.3-4.8-3.3-4.7-4.8-6.5-10.3-12.9-2.7-3.2-5.9-4.3-7-2.4-.5.8-5.6 2.2-5.6 1.6 0-.2 1.6-1.2 3.5-2.4 2-1.1 3.8-2.7 4.1-3.4.3-.8-2-5.1-5.1-9.6-3-4.6-5.5-9-5.5-9.9 0-.8 2.7 2.6 6 7.8 3.3 5.1 6.2 9.5 6.4 9.7.3.3 1.5-.2 2.7-1 3.1-2.2 22-20.9 21.5-21.4-.2-.2-8.5.4-18.6 1.4-17.3 1.7-18.3 1.9-19.1 4-1.1 3-2.3 3-1.5-.1.6-2.5-1.1-3.6-7.7-5-6.1-1.4-13.6-5.4-13.5-7.3.2-2.3-2.2-15.4-3.2-17.1-.5-1.1-1-1.1-2.3.2-2.6 2.6-2.9 1.8-.6-1.3l2.2-2.9-3.1-9.9c-1.7-5.4-3.6-11.8-4.2-14.2-2.2-8.3-3.2-3.1-3.1 15.5.1 9.8.3 18 .6 18.2.3.3 1.4-.3 2.5-1.3s2-1.4 2-.9-.9 1.5-2 2.2c-2.1 1.3-1.8 3.4.7 6.3 1.2 1.5 1.1 1.6-1.2 1.2-1.5-.3-2.5-.1-2.5.6 0 .6-.3 1.1-.7 1.1-.5 0-.9-13.2-.9-29.4-.1-20.1-.5-30.5-1.4-33-.6-2.1-1-4-.7-4.3s1.1 1.3 1.7 3.6 1.5 4.1 2 4.1.7.7.4 1.5c-.4.8.3 3.9 1.4 6.8 1.2 2.8 3.3 9.5 4.8 14.7s3.3 10.7 4 12.2c1.8 3.4 5.5 4.4 18.9 5.1l10 .6-5.5-2.6c-3-1.5-6.1-3.5-6.9-4.6s-3.2-3.9-5.4-6.3c-3.8-4.1-6.7-9.9-6.7-13.5 0-.9-.7-2.2-1.6-2.9-1-.9-1.4-2.4-1-4.9.2-2 0-4.2-.6-4.9s-.8-1.6-.4-1.9c.4-.4 1.1-.1 1.6.7 1.1 1.8 2 .9 2.4-2.3.1-1.5 1.3-3.5 2.7-4.6 1.3-1 2.1-2.2 1.8-2.5-.4-.4-2.5.9-4.9 2.9-2.3 1.9-4.6 3.5-5.1 3.5-.4 0-.8-1.5-.7-3.3.1-1.9-.3-4-.7-4.7q-.75-1.35.3-.6c.7.4 1.2 1.3 1.2 2.1 0 1.4 2.7 2.8 3.2 1.7.2-.4 3.2-3.1 6.8-6.1 9.3-7.7 9.2-7.6 6.8-11.7-1.1-1.9-1.8-3.7-1.5-4s1 .4 1.7 1.5c.6 1.2 1.4 2.1 1.8 2.1.6 0 3.5-5.7 6-12 .8-2 .9-1.5.5 2.6-.4 5-.4 5 2.4 4.8 4.5-.5 15.6-2.5 16.5-3 .9-.6-2.4-5.4-7.9-11.7-1.8-2-3.3-4.2-3.3-4.7 0-.6 3.1 2.5 6.9 6.8l7 7.8 6.3.2c7.7.2 9.8-.4 9.8-2.9 0-3.1 1.8-2.2 3.5 1.6 1.6 4 7.3 7.1 18.1 9.9 3.3.8 6.4 2.2 7 3s2.3 1.7 3.8 2c3.2.6 4.7 1.6 2.4 1.6-.8 0-2.3.9-3.3 2-1.6 1.8-1.6 2-.2 2 1 0 1.7.7 1.7 1.5s.5 1.5 1.1 1.5.9.7.6 1.4c-.4.9.6 2.7 2.2 4.3 3.2 3.2 11.4 9.3 12.6 9.3.4 0 2.4 1.3 4.4 2.8 5.3 4.2 5.8 4.4 7.5 2.6 2.8-2.8 1.7-5.1-6.1-13.4-6.2-6.6-19-17-20.8-17-.3 0-6.7-3.4-14.2-7.7-23.4-13-24.4-13.5-37.2-17.9-8.1-2.8-12.9-4-13.6-3.4s-1.8.5-3.1-.4c-1.6-1.2-2.8-1-8.9 1.5-3.8 1.6-8 2.9-9.3 2.9q-2.25 0-3.3 2.7c-.9 2.5-1.2 2.6-2 1-.6-.9-2.2-1.7-3.7-1.8-2.6 0-2.5-.1.7-1.3 1.9-.7 3.7-1.8 3.9-2.4.2-.7 1-1.2 1.8-1.2s1.3-.4 1.2-.9c-.2-.4 2.7-5.6 6.5-11.4 3.7-5.9 6.7-11.5 6.7-12.5s.5-2.3 1.2-3 .8-1.2.2-1.2-1.9.9-2.9 2-2.3 2-2.9 2c-1.1-.1 3.2-4.1 7.8-7.3 1.6-1.1 2.6-2.7 2.6-4.2 0-1.4.5-2.5 1-2.5 1.1 0 1.3-31.7.2-32.4-.8-.5-8.2 6-8.2 7.2 0 .4-2.6 3-5.7 5.7-9.4 8.3-10.3 9.2-9.6 9.8.3.4.1.7-.5.7-1.5 0-2.4-7.1-2-15.5.4-6.6.4-6.4.6 2.2.1 6.4.6 9.3 1.4 9.3 1.1 0 21.8-19.8 22.7-21.7.2-.4-.7-1.4-2-2.1-2.3-1.3-2.3-1.3.9-.8 1.7.3 3.2.2 3.2-.2 0-1.4-6-24.4-6.6-25.4-.4-.5-1.7.1-3 1.3s-2.4 1.7-2.4 1.1.8-1.7 1.8-2.4c3.3-2.4 3.3-3.6-.2-15-8.1-26.6-8.9-28.4-11.7-24.1-2.2 3.3-2.5 1.9-.4-1.7.8-1.4 1.4-3.5 1.5-4.7 0-1.2 1.1-4.4 2.5-7.1 1.4-2.8 2.5-5.8 2.5-6.8 0-1.1.5-2.6 1.1-3.4.8-1.1.9-.5.4 2.2-.5 3.1-.3 3.7.9 3.2 2.4-.9 13.8-14.3 13.1-15.4-.3-.5-.2-1 .4-1 .5 0 3.5-3 6.6-6.8 3-3.7 6.1-7.4 6.8-8.2.6-.8 1.7-2.1 2.2-3 4.5-7.3 5.8-8.8 7.5-9.3 1.2-.3-1.2 3.3-6.4 9.7-4.5 5.5-9.1 11.4-10.1 13-2.2 3.3-5.8 7.5-13.8 16.2-5.5 5.9-6.7 8.2-4 7.6 1.5-.3 21.4-11.8 27.9-16.1l5.1-3.4 2.3-9.9c1.2-5.5 2.4-12 2.5-14.5.2-2.4.6-4.7.9-5 1.3-1.3.5-2.1-1.4-1.6-1.1.3-2 .9-2 1.4s-.6.9-1.4.9-4.8 2.3-9 5.2c-4.2 2.8-7.8 5-8 4.7-.6-.6 11-8.7 16.6-11.6 2.4-1.3 5.1-3.2 6-4.4 1-1.1 2.2-1.8 2.8-1.4.5.3 2 .1 3.2-.5 1.7-.9 1.5-.5-.7 1.4-1.6 1.4-3.3 2.5-3.6 2.6-.4 0-.9 1.9-1.2 4.2-1.2 8.3-1.6 10.6-2.8 14.9-.6 2.4-1.3 6.5-1.6 9l-.5 4.6 18.4-2.4c20.4-2.6 22.8-3 22.7-4.1 0-.6-17.8-14.8-25-20-1.8-1.2-2.8-2.2-2.2-2.2.5 0 7.2 4.7 14.9 10.5 7.6 5.8 14.6 10.5 15.4 10.5s2.4-1.2 3.5-2.7c1.8-2.5 7.3-9.1 8.5-10.3.5-.5 8.2-9.9 10.7-13 .6-.8 2.8-3.5 4.8-6 1.9-2.5 5.2-6.7 7.3-9.3 2-2.6 6-7.6 8.9-11l5.2-6.2-2.7-.6c-2.3-.6-2.4-.7-.5-.8 1.2 0 2.8-.7 3.5-1.4 1.3-1.5 4.6-.6 12.3 3.1M350 128.5l-7.4 7.4 4-.5c2.1-.3 9.1-1.4 15.6-2.5 6.4-1 12.4-1.9 13.5-1.8 1.8.1-10.7 2.6-24.5 4.9-4.1.7-7 1.6-6.5 2 .4.4 3.9 2 7.7 3.5s7.7 3.1 8.5 3.6c.9.4 6.4 2.7 12.3 5l10.7 4.1 6.2-4.8c3.4-2.7 7.8-6.3 9.8-8 2-1.6 7.3-5.9 11.8-9.3 4.5-3.5 8.5-7.1 8.8-8.2.7-2 2.2-2.4 5-1.3 1.2.5.7 1.1-2.2 2.4-2.1 1-6.1 3.7-8.9 6.1s-10 8.4-16 13.4l-10.9 9 19.5.5c12.2.4 15.8.6 9.5.8-5.5.1-14.3.5-19.7.9l-9.6.6 1.1 2.6c.6 1.4 7.1 12.6 14.4 24.9s13.3 22.7 13.3 23.1c0 .3.9 1.3 2 2.1 2.3 1.7 2.6 3 .7 3-.7 0-2.1-1.5-3-3.3-1-1.7-3.7-6.2-6-9.9s-8.7-14-14.1-23-10.1-16.5-10.3-16.8c-.6-.7-2.3 2.3-2 3.5.5 1.3-2.1 3.8-3.2 3.1-.5-.3-1.2 1.4-1.5 3.9-.5 3.1-1.3 4.6-2.7 5-1 .4-2.2 1.7-2.5 3.1-.4 1.3-1.4 2.9-2.5 3.4-1 .6-2.3 2.6-3 4.5s-1.9 3.5-2.6 3.5c-.8 0-1.6.7-2 1.6-.3.8-1.2 1.3-1.9 1-1-.4-1.4.4-1.4 2.8 0 3.1-4.4 9.6-6.5 9.6-.5 0-.4-.5.3-1.2s1.2-1.6 1.2-2-.9.1-2 1.2-2 2.2-2 2.5-1.2 1.8-2.7 3.2c-1.6 1.4-2 2-1 1.3 1.5-1.1 1.7-1 1.1.4-.3.9-1.1 1.6-1.6 1.6-.6 0-.8.6-.5 1.4.6 1.6-2.6 5.9-3.6 4.9-.4-.3-.3-1.1.1-1.8.4-.6-.1-.3-1 .8-.9 1-1.5 2.6-1.2 3.5.5 1.3.4 1.4-.4.3-.7-1-1.7-.3-4.2 3.3-3 4.5-3.1 4.7-.8 4.1 1.3-.2 8.2-1.6 15.3-3 7.2-1.4 16.8-3.4 21.5-4.4 7.4-1.7 11.7-2.4 25.5-4.6l3-.5-3 1c-1.6.6-13.8 3.2-27 5.9-29.2 6-37.8 8-38.7 8.9-.3.4 5.2 5.2 12.3 10.6s12.9 10.1 12.9 10.3c0 .6-4.5-2.6-16.2-11.4-5.3-4-9.9-7.3-10.1-7.3s-.2 2.6 0 5.7c.1 3.2.8 20.9 1.4 39.3s1.4 37.5 1.9 42.5c.4 4.9.5 9.4.1 9.8-.9 1-1.7-11.2-3.2-52.3-.6-16.8-1.4-33.4-1.7-37l-.7-6.4-13.9 27.4c-7.6 15.1-15.8 31.5-18.3 36.3-2.4 4.9-4.2 9.4-4 10 .3.7 4.2 3.4 8.8 6 20.4 11.7 31.4 17.7 32.4 17.7.7 0 3.8-.9 7-2s6-1.8 6.2-1.6-1.8 1.1-4.5 2-5.6 2.5-6.5 3.4c-.9 1-2 5.6-2.7 11.7-.6 5.5-1.5 12.5-2 15.5s-.9 6.5-.9 7.8l-.1 2.3 5.3-2.9c8.7-4.9 17-9.7 21.2-12.3 7.4-4.7 21.6-12.1 22.1-11.6.3.3-.7 1.1-2.3 1.9-4.9 2.5-24.6 13.9-29.8 17.3-2.7 1.8-7.4 4.6-10.4 6.3-6 3.3-6.4 3 6.2 5.7 4.3 1 7.6 1.9 7.3 2.2-.2.2-4.8-.5-10.1-1.6-5.3-1.2-10-1.9-10.4-1.6-.5.2-1.1 1.9-1.4 3.7-.4 1.8-1.6 6.4-2.7 10.3-4.2 14.4-4.4 16.2-2.8 17.9.8.8 3.5 1.6 5.9 1.9 3.7.3 3.4.4-1.8.5-3.8.1-6.3.7-6.6 1.4-.3.9-.9.7-2-.7-1.3-1.7-1.4-2-.1-2.3.8-.2 1.7-1.6 2-3 1.4-6.1 4.6-18 6-22.4.9-2.6 1.3-5.2 1-5.7s-9.3 4.9-20 12c-10.8 7.1-20.4 12.9-21.4 12.9s-4 .7-6.6 1.6-4.9 1.4-5.2 1.2c-.2-.3 2.3-1.3 5.6-2.3s6-2.1 6-2.4c0-.7-2.6-3.1-9.4-9l-4.9-4.2-2.7 7.8c-4.7 13.4-4.6 12.5-1.3 11.8l2.8-.5-3 1.4c-1.7.8-4.8 1.7-7 2l-4 .6 3.4-1.2c2.9-1.1 3.6-2.1 5.1-6.8.9-3 2-6.9 2.4-8.5.6-2.9.4-2.8-3.9 2-2.5 2.7-6 6.9-7.6 9.3-1.7 2.4-3.3 4.1-3.6 3.8-.3-.2.8-2.2 2.3-4.3 5.5-7.3 11.7-14.8 12.5-15.1.5-.2.9-.7.9-1.2 0-.9-6.7.3-12.5 2.2l-4 1.3-.3 8.3c-.2 4.5-.6 8.2-1 8.2s-.8-1-.8-2.3c-.1-7.2-.5-10.8-1.3-10.3-1.1.7-7.1 11.2-7.1 12.5s7.2 3.3 8.2 2.3c1.1-1.1 6.9-.2 6.2.9-.3.5-1.4.9-2.5.9s-1.9.7-1.9 1.7c0 1.1-.3 1.4-.8.7-.9-1.4-3.9-2.9-7.3-3.8-2.5-.6-2.7-.4-2.7 3.5-.1 2.3-.3 4.4-.6 4.7s-.6-1.6-.6-4.1c0-3.6-.4-4.7-1.6-4.7-1.4 0-1.4-.2 0-1.6 3.1-3-.2-25.3-3.5-24.2-1.5.5-3.4 6.6-5.4 17.7-1.3 6.9-1.4 8.6-.3 9.2 1 .7 1 .9.1.9-1.9 0-1.6 1.9 1.2 8.8 1.4 3.4 2.5 6.5 2.5 6.9 0 1.6-1.8-1.5-3-5-1.9-5.9-2.3-3.7-.6 3.4 2 8.9 4.9 26.9 4.4 27.5-.3.2-1.4-3.8-2.6-8.8-1.4-6.1-2-7.9-1.9-5.1.2 2.7-.2 4.3-.9 4.3-.6 0-1.9 2.8-3 6.2-1 3.5-2 5.6-2.2 4.7s.4-3.5 1.1-5.8c.8-2.2 1.3-4.1 1.1-4.1-1.2 0-18.4 8.4-18.4 9.1 0 .8 3.3 1.7 10.5 2.9 2.8.5 5.7 1.1 6.5 1.4 1.1.4 1.9-.1 2.6-1.6.6-1.3.8-1.6.6-.8-.6 2.3-.3 31.7.5 39.5.7 8.2.7 8.2 5.2-11.5 2.5-10.8 2.8-13.4 2-19.4-.9-7.5-.6-10.2.5-3.9.4 2.1.9 5.1 1.3 6.7l.5 3 2-3.5c1-1.8 1.7-2.7 1.4-1.9s-1 3.2-1.7 5.2c-2.3 7 .9 19.8 7.6 30.5 1.4 2.4 2.4 4.3 2.1 4.3-.2 0-2.1-2.8-4.2-6.2-2.1-3.5-3.9-6.5-4-6.7-.2-.2-1.2.2-2.1 1-1.6 1.3-1.7 1.2-.4-.3 1.1-1.5 1.1-2.9.1-8.4-1.5-8-2-7.4-5.3 6.6-1.4 5.8-2.8 11.4-3.3 12.5-1.4 3.5 2.5-.3 4.7-4.7 1.1-2.1 2.1-3.8 2.4-3.8.9 0-1 3.7-4.2 8.3-1.9 2.6-3 4.7-2.4 4.7s1.1.3 1.1.7c0 .5-1.6.8-3.5.9-2.6 0-3.2-.2-2.4-1.2.7-.9.6-1.5-.5-2.1-.8-.4-4-3.2-7.1-6.2-5.4-5.2-5.6-5.3-7.5-3.6-2.8 2.5-2.6 1.2 1.5-13.6 1.9-6.8 3.5-13.4 3.5-14.5 0-2.6-2.5-5-3.5-3.4-.4.7-1.3.6-2.8-.2-1.2-.7-2.4-1.3-2.7-1.3-2.3-.4-9.7-3.4-15.2-6.3-6.9-3.6-11.4-8.7-10.5-12.1.4-1.2.5-1.1.6.4.1 1.1 1.1 3.3 2.4 4.8 2 2.5 3.1 3 8.8 3.4 4.4.4 6.9.2 7.3-.6.4-.6.2-1.1-.4-1.1s-3.7-1.9-6.8-4.2-5.9-4.4-6.1-4.5c-.2-.2-.2-.5 0-.7s4 2 8.4 5c9.2 6.2 8.6 6.2 21.3.2l8.7-4.1-18.5-1.3c-10.2-.7-19.3-1.1-20.2-.8-2.2.7-2.2 1.5-.3 6.1.8 2 1.3 3.8 1 4.1-.5.5-3.5-6-3.5-7.8 0-.5-.4-1-.9-1s-1.1-.9-1.4-2.1-1-1.8-1.6-1.4c-.6.3-1.1.2-1.1-.4 0-1.2 13-26.1 13.6-26.1.5 0-.6 2.4-6.4 13.9-2.9 5.7-5 10.6-4.7 10.9.7.8.8.7 5.8-9.3 4.7-9.2 9.2-19.5 15.4-34.5 1.9-4.7 4-9.9 4.8-11.5 7.4-16.5 8.5-20.2 8.5-29.7-.1-5.1-.5-12.5-1.1-16.3-1.4-9.1-1.9-20-.9-21.5 1.1-1.8 2.3 6.3 1.5 10-.5 2.5-.1 4 2 7.1 2.7 3.9 5 5.3 3.9 2.4-.4-.9 0-1.5 1-1.5s1.6.9 1.6 2.5c0 2.4 1.2 3.1 5 2.5 2.2-.3 2.2-.3.6-4.8-.9-2.3-1.4-4.2-1.2-4.2s1.4 1.5 2.6 3.2c1.2 1.8 1.9 2.5 1.7 1.6-.3-.9.1-2.2.9-2.8 1.1-1 1.4-.8 1.4 1s.4 2.1 2.3 1.7c1.2-.3 3.9-.9 6-1.2 2.2-.5 3.7-1.3 3.7-2.1s-1.4-4.3-3-7.7c-3.5-7-2.4-5.9 3.4 3.4l3.8 6.3 1.9-3.5 1.8-3.4.1 3.2c0 2.5.4 3.3 1.8 3.3 2.2 0 10.4 3.8 11.5 5.4 1.5 2 .3-.8-4.6-10.4-2.7-5.2-5.7-10.4-6.8-11.5-1-1-5.1-2.7-9.1-3.7-9.3-2.2-9.9-2.2-9.1-.1.6 1.6.4 1.6-1.5-.1-1.2-1.1-2.2-1.4-2.2-.8s-.8 1.3-1.7 1.7c-1 .3-3.4 1.8-5.3 3.4-2.6 2.2-3.2 3.2-2.4 4.2.6.8 1.4 3 1.7 4.9.5 3.3.5 3.3-.6 1-.6-1.4-1.4-2.7-1.8-3-.3-.3-.9-1.7-1.2-3.1-.6-2.4-.1-3 5.3-6.4 3.3-2.1 6-4.3 6-4.9 0-.9-3.8-7.3-5.7-9.5-.2-.3-1 .4-1.8 1.5-1.5 1.9-1.5 1.9-.9-.1.4-1.4-.6-.8-3.4 2-4.3 4.2-4.9 6.3-3.1 9.6.9 1.8.8 1.9-.9.8-1.9-1.2-2-2.1-1.5-13.3.3-6.7.7-12.3.9-12.5s.4 3.8.4 9l.1 9.4 4.7-5.1c4-4.4 5.2-6.7 7.9-15.5 4.5-14.3 4.7-15.3 3.4-14.5-.6.4-1.1 1.5-1.1 2.5 0 .9-.7 2.6-1.5 3.7-1.3 1.7-1.4 1.6-.4-1.6 1.6-5.2 3.1-8 4-7.4.5.3.6-.2.3-1.1-.4-.9.2-2.5 1.1-3.6 1-1 1.9-2.7 2-3.7.1-.9.7-2.8 1.3-4.2.5-1.4 2.4-10 4.2-19 1.7-9.1 3.8-17.8 4.6-19.4 3.1-6.4.6-6.3-3.2.1-5.2 9-18.6 30.3-19.1 30.3-.2 0 .8-1.9 2.2-4.3 15.6-25.5 21.1-34.9 27.3-46.7 2.2-4.1 6.7-12.4 10.1-18.3 3.3-6 6.1-11 6.1-11.2 0-.3 4.6-4.7 24-23 5.2-4.9 9.9-9.7 10.4-10.6 1.4-2.7 5.1-4.3 7.2-3 1.8 1 1.8 1-.3 1.1-2 0-22.8 18.5-34.6 30.7l-3.8 3.9 14.3 4.6c7.9 2.6 15.3 4.9 16.6 5.3 2 .6 2.2.3 2.2-3.9 0-2.5.5-4.8 1.1-5.1.7-.5.8.5.4 2.9-.4 2-.3 3.6.2 3.6s5-4.6 10-10.3c5-5.6 11.8-13.1 15.2-16.7 3.3-3.6 6.1-7.1 6.1-7.8 0-.6.5-1.2 1.1-1.2.5 0 4.5-3.4 8.7-7.5s7.9-7.5 8.2-7.5c.2 0-2.9 3.4-7 7.5m638 2.4c3 3.1 11.6 11.5 19 18.7l13.5 13.1 6.3.7c9.8 1.1 12.1 2.6 3.4 2.2-7-.4-7.2-.3-6.6 1.8.8 2.5 11.6 24.2 15.3 30.6 2.4 4.2 2.6 4.3 3.2 2 .6-2.1.7-1.8.8 1.5.1 4.2 1.3 6.9 8.2 19.5 6 10.9 11.5 21.8 13.8 27.2 1.1 2.7 2.3 4.8 2.6 4.8.4 0 .4-.4.1-.8-.2-.4-1.9-7.1-3.6-14.7-3.9-17.2-13.9-51.4-18.8-64.5-.3-.9-.8-.2-1.3 2-.6 2.7-.7 2.4-.3-1.6l.4-5.2-5.9-5.1c-3.2-2.8-6.2-5.1-6.6-5.1s-3.7-2-7.4-4.3c-3.6-2.4-11.2-7.3-16.9-10.8-10.4-6.4-18.1-11.9-16.8-11.9.4 0 1.9.9 3.4 1.9 7.6 5.4 34.7 22.1 35.8 22.1.3 0-4.3-4.9-10.5-11-6.1-6-11.1-11.3-11.1-11.7s5.1 4.3 11.3 10.4c6.1 6 14.6 14.3 18.8 18.4 5.4 5.2 8 8.6 8.8 11.4.7 2.2 2.4 7.1 3.9 11 1.4 3.8 2.7 8.3 2.8 10 .1 1.6 1.1 5.7 2.2 9 2.7 7.7 5.1 16.1 6.7 23.3.7 3.1 2.6 10.6 4.1 16.5 2.3 8.9 3 10.4 3.6 8.6 1.3-3.4.2-8.3-5.7-26.1-2.9-8.7-4.9-15.8-4.5-15.8.8 0 11.5 32.7 12.4 37.8.3 1.9 0 4.7-.8 6.5-.7 1.9-1 4-.5 5.2.4 1.1.7 4.7.7 8-.1 3.3-.3 4.6-.5 3-1-8.3-1.3-9-3.5-9.1-1.3 0-5.1-.4-8.5-.9l-6.2-.7 1.1 3.6c.6 2 1.5 3.6 1.9 3.6.5 0 1.1 2.2 1.5 5 .4 2.7 1 4.8 1.4 4.5s1.2.8 1.8 2.3 2.2 5.8 3.7 9.5c1.4 3.8 2.4 7.1 2.2 7.4-.3.2-1.9-3.1-3.6-7.4-1.6-4.3-3-6.9-3.1-5.7 0 2.4 2.9 11.5 4.1 12.8.5.6.9 1.7.9 2.6s1.1 2.9 2.4 4.5c2.2 2.5 2.4 2.6 2.9.9s.6-1.7.4.1c-.1 1.1.1 2.4.5 3 1 1.8 2 14.1 1 12.6-.6-.8-.8-2.1-.5-3 .4-1.3.2-1.3-1 .1-2.2 2.7-3.2 2.1-1.3-.7.9-1.3 1.6-3.1 1.6-4 0-1.6-2.9-6.1-6.3-10-1.8-2-1.8-2-3 0-.6 1.1-1.7 3.5-2.4 5.4-1.1 3.2-1 3.7 1.9 7.5l3 4.1-3.7-3.8c-3.4-3.5-3.7-3.7-4.2-1.8-.3 1.2-.9 2.1-1.3 2.1-.5 0-.6-.8-.3-1.8.5-2 .7-2-15.3 3.3-.9.3-.8 2.2.2 7.5.7 3.9 1.6 7.5 1.9 8.1 1.1 1.6 6.4-4.7 9.2-10.8 1.4-3 2.7-5.2 2.9-5s-1.2 3.9-3.2 8.1c-1.9 4.3-3.4 7.9-3.2 8 .5.5 7.1 2.6 7.9 2.6.4 0 1-1 1.2-2.3l.4-2.2.8 2.3c.7 2 1.1 1.6 4.7-4.5 2.1-3.6 3.6-7.2 3.4-8-.3-.7-.2-2.3.3-3.5.8-2.1.8-2.1 1.4.4.7 2.5.1 5.7-1.3 6.8-1.2 1-7 12.8-7 14.3 0 1.6 4 3.1 5.2 1.9.3-.4 1.8-4.7 3.2-9.6 2.4-8.3 4.8-13.8 3.1-7.1-2.8 11-3.2 13.6-2.2 12.6 1.9-1.9 2.7-1.2 1.5 1.4-.6 1.4-1.4 2.5-1.8 2.5-1.4 0-3.2 5.9-2.5 8.1.7 2.1 1 1.9 3.2-2.6 3.3-7 5.6-15.2 5-18.4-.3-1.4 0-5.1.5-8.1.6-3 1.3-12.3 1.7-20.5l.7-15 .2 21.5c.1 18.6-.1 22.5-1.8 29-1.4 5.4-2 10.8-2 19.3 0 10.8.3 12.4 3.1 20 1.8 4.5 3.6 8.7 4 9.3 1.3 1.7 6.8 15 9.5 23.3 1.4 4 3.5 9.7 4.8 12.5s3.1 7.3 4.1 10.1c2.8 7.9 5.7 13.5 7.2 13.5.7 0 1.3-.3 1.3-.6s-3.2-7.2-7.1-15.2c-7-14.5-9.5-20.2-8.5-19.1 2 2 17.6 35.7 17.5 37.8-.1 1.7-.3 2-.6.8-.9-3.3-3.3-1.9-3.3 2l-.1 3.8-1.4-3c-1.2-2.6-1.3-2.7-1.4-.8-.1 2.6-2.9 11.4-4 12.6-.4.4-2.5.3-4.7-.2-3.6-.8-3.7-.9-.9-1 1.7-.1 3.5-.5 4-.9 1.3-.9 4.5-7.9 4.5-9.7 0-1.7-1.6-2-2.5-.5-.3.5-3.8 2.8-7.7 5.1-5.4 3.1-6.7 4.4-5.7 5.1 1.1.8 1 .9-.3.4-2.1-.6-8.6 2.9-10.7 5.8-.8 1.1-2.4 2.9-3.5 4-2.5 2.5-2.5 4.9.3 19.5l2.2 11.1-3.8 3.3c-2.1 1.9-5.5 4.9-7.6 6.7-2.7 2.3-3.5 3.6-2.8 4.3.6.6 1.1 1.6 1.1 2.1 0 .6-.4.6-1.1-.1s-3.4-1-6.8-.7l-5.6.4 4.3-1.1c2.3-.6 4.2-1.4 4.2-1.9 0-1.3-8.2-15-9-15-.7 0-1.5 1.2-9.5 12.4l-4.9 6.9 6.5-.5c3.5-.3 5.3-.3 3.9-.1-5.9 1-3.5 2.1 6.2 2.8 5.6.4 11.6.9 13.3 1.1 3.4.4 5.9-1.5 8.5-6.7 2-3.7 5-6.9 5-5.1 0 .6-1 2.3-2.3 3.9-1.2 1.5-3.5 4.6-5 6.9l-2.7 4.1 1.6 6.2c2 8 1.6 9.3-2.8 8-3.1-.9-3.5-.7-7.2 3.3-3.8 4.2-3.1 2.5.8-1.9l1.9-2.2-4.8-2.1c-2.6-1.1-5.5-1.8-6.4-1.5s-5.4 4.1-10.1 8.5-8.9 7.9-9.5 8c-.5 0 .4-1.3 2.2-2.8 7.4-6.6 16.5-15.3 16.2-15.7-5.2-4.8-15.7-12.4-16.6-12-2.2.8-1.4-1.6 1.8-5.4 1.7-2 5.2-6.6 7.9-10.3 5.5-7.6 6-6.2-5.4-14.7-3.8-2.8-7.4-5.1-7.9-5.1-.6 0-2.5 1.2-4.1 2.7l-3.1 2.8 2.8-3.1c1.5-1.6 2.7-3.5 2.7-4.2s.4-1.2.9-1.2 2-1.7 3.2-3.8c1.3-2 2.8-4.2 3.4-4.9 3-2.9 7.7-11.5 7.1-12.8-.3-.9 0-1.5.8-1.5.7 0 2.3-2.2 3.5-4.9 1.9-4.6 14.1-36.1 14.1-36.6 0-.2-1.9-.8-4.2-1.4-2.4-.7-4.8-1.4-5.4-1.7-.7-.3-1.5 1.6-2.1 4.8l-1 5.3-.2-4.8c-.1-4.3-.3-4.7-2.5-4.7-3.5 0-5.5 2.4-5.2 6.3.2 1.7.1 2.2-.1.9-.2-1.2-.7-2.2-1.1-2.2s-.8-1.2-.9-2.6c0-1.5-.5-2.9-1-3.3-.5-.3-1.9-2-3.2-3.6-3.4-4.4-14.4-16.6-14.7-16.3-.1.2.7 4.1 1.9 8.7 2.4 9 2.9 9.5 12.1 11.6 1.5.3 2.6.8 2.3 1.1-.6.7-10.6-1.8-24.3-6.2-9.4-2.9-12.2-3.4-18-3.1-6.6.4-6.7.4-3-.7l3.9-1.2-8.4-5.3c-4.6-2.9-10-6.4-11.9-7.6-9.2-6-18.4-11.4-18.8-11-.3.2 1.2 7.4 3.3 16l3.8 15.5 3.6-.5 3.6-.5-3.1 1c-1.9.6-3.5 1.9-3.9 3.2-.6 1.9-.9 1.3-1.5-2.8-.4-2.8-1.2-6.6-1.8-8.5-2.6-7.9-5.2-19.1-5.2-21.9 0-4.2 1.5-4.2-23 .5-10.2 1.9-19.2 3.5-20 3.4-2.1-.1 7-2.1 24.3-5.5 8.1-1.5 14.7-3.1 14.7-3.5 0-.3-4.8-3.4-10.7-6.7-6-3.4-13.7-7.9-17.3-10.1-12.3-7.5-19.4-11.4-20.7-11.4-.7 0-1.4-.6-1.7-1.4-.3-.7-.3-1.3 0-1.3.9 0 18.1 9.2 24.9 13.3 22.4 13.8 27.5 16.5 27.5 14.9 0-6.4-3.4-34.1-4.5-35.7-.7-1.2-5.9-3.8-12.4-6.4-6.2-2.4-11-4.5-10.8-4.7.2-.3 5.7 1.6 12.2 4.1s12 4.3 12.2 4.1c.3-.2.9-7.8 1.4-16.8.5-8.9 1.5-24 2.3-33.3.8-9.4 1.7-20.6 2-25s.8-12.2 1.2-17.3l.7-9.4-10.9 7.4c-6 4.1-13.8 9.5-17.4 12-7.7 5.3-9 6.1-9 5.4 0-.2 5.1-3.9 11.3-8.2 14.8-10.3 23.1-16.4 23.5-17.3.1-.4-4.1-1.7-9.5-2.9-21.3-4.8-78.4-17.2-78.9-17.2-.2 0-.4-.5-.4-1.1 0-.7.7-.8 1.8-.4.9.4 4 1.1 6.7 1.6 2.8.6 6.2 1.3 7.8 1.6 2.3.4 2.7.2 2.7-1.6 0-1.4-.6-2.1-1.9-2.1-1.1 0-2.3-.5-2.6-1-.3-.6-1.5-1-2.6-1-1.3 0-1.9-.7-1.9-2.1 0-1.5-.5-2-2.2-1.7-1.3.1-2.3-.2-2.3-.7 0-.6.2-.9.5-.8s1-1.4 1.6-3.3.9-3.4.8-3.4c-.2 0-2.7 3.6-5.5 8-2.9 4.4-5.5 8-5.9 8s-1.3-.7-2-1.6c-1.1-1.2-1.1-1.5 0-1.2 1.4.3 12.5-15.3 28.6-40.5l9.1-14.2-12.6-.5c-13.5-.5-11.9-1.6 2.9-1.9 4.7-.1 8.6-.3 8.7-.4s-4.6-4-10.3-8.7c-5.8-4.6-10.8-8.8-11.1-9.4-.7-1 4.6 2.7 11.7 8.4 2.5 2 6.6 5.1 9.1 6.9l4.6 3.3 13.9-5c7.7-2.8 15.7-5.7 17.9-6.5s6.1-2.2 8.8-3.2c2.6-.9 4.7-2.3 4.7-3 0-.8-1.5-2.8-3.2-4.4-4.8-4.5-2.7-3.8 2.6.8l4.5 3.9 7.7-1.9c4.2-1.1 8.1-1.8 8.6-1.7.6.2-2.4 1.2-6.6 2.2s-7.6 2.1-7.6 2.6c0 1.2 4.7 6.8 17.1 20.5 2.5 2.7 6.7 7.6 9.3 10.7 2.7 3.2 5.3 5.8 5.9 5.8s.8-4.8.4-13.8c-.3-8.9-.2-11.3.3-6.7.4 3.8.8 10.2.9 14.1 0 3.9.3 7.3.7 7.6.6.7 14.6-2.9 34.2-8.8 1.1-.3-32.5-34.4-34.8-35.2-.5-.2-1.1 3-1.3 7l-.4 7.3.1-7.8c.1-6.5-.2-7.8-1.6-8.3-2.6-.8-2.2-2.3.4-1.6 1.2.3 4.7 3 7.8 6.1M828 308.7c-.1.5-2.3 1.9-4.9 3.2-2.7 1.3-5.9 3.7-7.1 5.4-1.3 1.6-1.8 2.7-1.1 2.3 1.5-.9 1.4.7-.1 2.2-.9.9-.9 1.2 0 1.2.7 0 1.2 1.2 1.2 2.6 0 2.6 3 6.8 3 4.2 0-.7 1.4-2.9 3.1-4.8l3.1-3.5-1.8 3.2c-1 1.8-2.2 3.3-2.6 3.3s-.8.9-.8 2c0 2.4 1.3 2.6 3 .5.7-.9 1.5-1.3 1.8-1s-1.3 2.4-3.6 4.8c-2.6 2.6-4.5 5.7-5.1 8.2-.6 2.8-.9 3.3-1 1.5 0-1.4.6-4.3 1.3-6.5.8-2.2 1-4.1.5-4.3s-.6-.9-.2-1.5c.4-.7 0-.6-1 .1-.9.8-2.2 2.9-2.9 4.8-.6 1.9-1.5 3.4-1.8 3.4s-.5-3.6-.3-7.9c.2-4.6-.1-8.2-.7-8.6-1.5-.9-1.2-3.5.4-3.5.8 0 1.7.6 1.9 1.2.3.7.6.4.7-.7.1-2.3 2.2-5 6.4-8.3l2.9-2.2-3.4-.2c-2.4-.1-1.8-.3 2.1-.8 3-.4 5.8-.7 6.3-.8.4-.1.7.1.7.5m-402.3 49.9c.3.9 0 1.9-.6 2.4-1.2.7-1.1 3.5.5 13.2l.6 3.6 2-2c1.5-1.5 1.9-2.8 1.4-4.9-.7-3.6.8-3.8 3-.3.9 1.4 2.3 2.3 3 2 1-.4 1.4.3 1.4 2 0 1.4.7 3.9 1.6 5.6s1.3 3.9 1.1 5c-.4 1.4 0 2.2 1.4 2.5 1.9.5 1.9.7.3 2.4-1.2 1.4-3.1 1.9-6.6 1.9-4.7 0-6.3 1.2-3.2 2.4.9.4 1.4.9 1.1 1.3-1.1 1-5.7-2.7-5.7-4.7 0-1-.5-2.2-1.1-2.6-.6-.3-.9-2.3-.7-4.4s0-3.6-.3-3.4c-1.4.8-1.9-3-1.9-13.2 0-6.5.4-10.4 1-10.4s1.3.7 1.7 1.6M832 362c0 1.6-1.2 8.3-2.6 14.7-1.4 6.5-2.7 13.1-2.9 14.8-.6 5.1-2.8 14.9-4.1 18l-1.3 3-.1-3.1c0-1.7.7-5.1 1.5-7.4 1.6-4.7 1.9-7 .8-7-.5 0-3.6 2.7-7.1 6-6 5.7-9.2 7.4-9.2 4.9 0-1.2-2.9-3.8-4.2-3.9-.5 0-.8 1.1-.8 2.5 0 1.7.4 2.3 1.4 1.9 2.5-1 2.6 1.3.2 3.1l-2.4 1.8 3.4 2.4c1.9 1.2 3.9 2.3 4.4 2.3 1.4 0 1.2-1.8-.2-2.2-.7-.3-.6-.7.5-1.1 1.2-.5 1.7-.1 1.7 1.2 0 1 .3 2 .6 2.4.9.9 3.4-.3 3.4-1.7.1-1.6 4-6.4 4-4.8 0 1.5-2.5 5.7-5.3 8.9l-1.9 2.1-3.1-2.2c-10.8-7.3-10.8-7.4-8.1-16.6 1.4-4.6 1.8-5.2 2.8-3.8.6.9 2.8 2.3 4.7 3.1 3.5 1.4 3.7 1.4 6.5-1.2 1.6-1.5 4.1-3.5 5.7-4.5 3.4-2.3 3.5-3.6.1-3.6-1.4 0-3.5-.5-4.6-1.1-1.7-.9-1.8-1.3-.7-2 1.2-.8 1.1-1.1-.2-2.2-1.1-.9-1.4-2.3-1.1-5.2.5-4 3.4-9 4.6-7.8.3.3.6.1.6-.5 0-.7.5-1.2 1-1.2.6 0 .8 1 .4 2.4-.4 1.8-.1 2.7 1.5 3.5 1.3.8 2.1 2.3 2.3 4.9l.3 3.7 1.6-3c2-3.7 4.3-17.2 3.7-21.4-.3-2.1 0-3.1.9-3.1.8 0 1.3 1.2 1.3 3m-378.2 28.3c.2 1.8.4 4 .5 4.9.1 1 .4 1.8.7 1.8s.6 1.2.6 2.7c.1 1.6.9 5.3 1.7 8.3 3.9 14.1 6.9 30.8 5.6 31.5-.6.4-2.3-6.7-3.4-14-.3-1.7-.9-5-1.4-7.5-2.5-12.4-3.4-16-4.2-16-.5 0-.9 2.3-.9 5.1 0 3.1-.4 4.8-1 4.4-1.4-.9-1.2.8.5 4.1.8 1.6 1.4 5.1 1.4 7.9l-.1 5-1.2-6.7c-1.6-9.1-2.4-9.7-8-6.4-2.6 1.5-5 2.4-5.5 2.1-1.4-.8-.2-7.4 1.9-11.2 1.9-3.3.8-5.1-2.1-3.3-.8.6-1.6.4-2.1-.3-1.5-2.3-.8-3.4 2.2-3.4 1.7 0 3 .5 3 1s.9.7 2 .4 2-.4 2-.3-.9 1.9-2 4.1-2 5-2 6.2c0 1.3-.4 2.3-1 2.3-.5 0-1 .4-1 1 0 1.5 3.3 1.2 5.9-.6 1.9-1.4 2.2-2.4 2.1-6.3-.4-6.9-.1-8.1 1.4-8.1.9 0 1.6 1.3 1.9 3.2.2 1.8.5-1.2.5-6.6.2-9.5 1.2-12.2 2-5.3M212.6 507.1c1.4 2.8 1.9 3 4.7 2.5 3-.5 3-.5 1 .7-2.1 1.2-2.2 1.3-.4 2.4 1.1.7 4.3 1 7.7.7 4.4-.3 5.3-.1 3.7.6-2.8 1.2-2.8 1.2-.1 5.4l2.2 3.3 5-3c12.5-7.5 13.3-8.2 9.4-9-2.1-.4-2.1-.4.2-.4 1.4-.1 2.8-.1 3.3-.2.4-.1 0-1.3-1-2.9l-1.8-2.7 3.1 3c1.7 1.6 2.9 3.6 2.7 4.2-.3.7-.9 1-1.4.7s-3.5 1.4-6.6 3.8c-3.2 2.4-7.1 5.2-8.7 6.2l-2.9 1.8 7.8 7.2c4.3 3.9 9.6 8.1 11.9 9.3 2.7 1.6 3.4 2.3 2.1 2.3-1.1 0-6.5-3.8-11.9-8.5-5.5-4.7-10.7-8.5-11.6-8.5-1.4 0-5.6 2.4-7 3.9-.3.3-1.6.6-3 .7s-3.3.4-4.2.9c-1 .4-1.8.3-1.8-.3 0-.5 1.4-1.2 3-1.6 1.7-.3 3.3-1.4 3.6-2.3 1.4-4.5 2.3-5.7 1.7-2.6-.6 3.8.4 4.1 4 1.3 2.5-2 2.5-2.1.9-5-1.8-3.2-2.8-3.7-3.5-1.8-.2.7-.3.2-.1-1.2.2-1.9-.2-2.6-1.6-2.6-1 0-1.6.4-1.3.9s-.4.6-1.5.3c-1.5-.5-2.1-.1-2.6 2-.4 1.4-.9 2.4-1.2 2.2-.2-.3 0-1.7.5-3.1.8-2 .6-2.9-1.1-4.4-2-1.8-6.3-9.3-5.3-9.3.2 0 1.2 1.4 2.1 3.1m324 21.4c.4.8.9 1.3 1.3 1.1.4-.3 2.5-.1 4.7.4 2.4.6 4.3.5 4.8 0 .6-.6 1.7-1 2.6-.9.8 0 .4.5-1 1.1-2.3 1-2.3 1.1-.5 1.5 1.1.2 6.3 1.5 11.5 2.7 5.2 1.3 13.8 2.7 19 3.1s12.8 1.3 16.9 2c7.8 1.3 11.2 1 10.5-.9-.5-1.4 4.2-2 5.1-.6.3.6-.4 1-1.6 1s-2 .3-1.6.6c.3.3 7.4-.1 15.9-1 8.4-.8 19.4-1.8 24.3-2.1 5-.3 12.4-1.3 16.5-2.2s9.1-1.9 11-2.3c2.8-.6 3-.8 1-.9-1.4-.1-3.2-.6-4-1.1-1-.6.9-.9 6-.8 4.1 0 9.1-.2 11-.6 2.8-.6 3.1-.5 1.8.4-1 .6-1.8 1.8-1.8 2.5 0 .8-.4 1.5-.9 1.5-.7 0-24.3 15.1-26 16.6-.2.2.1 1.6.8 3.1 1.1 2.4 1.1 2.5-.4 1.3-2.7-2.2-4.5-2.1-13 .7-4.4 1.5-8.9 2.8-10 2.9s-8.7 1.8-17 3.8c-16.5 3.8-15.5 3.9-34.1-.7-5.4-1.4-11.7-2.8-13.9-3.2s-6.6-1.8-9.8-3.1c-5.2-2.1-6.1-2.2-7.4-.9-.8.8-1.7 1.5-2.1 1.5-.3 0-.1-.5.6-1.2s1.2-1.5 1.2-1.9c0-.5-8.7-7.8-25-20.9-2.1-1.7-2.3-2.1-1-3 2.2-1.4 4-1.2 4.6.5m-21.7 29.8c2.5 2.6 6.4 6.1 8.8 7.7 4.1 2.8 4.8 2.9 12.1 2.5 6.4-.3 6.9-.3 2.7.4-2.8.5-6.1 1.2-7.4 1.6l-2.3.7 2.8 1.9c3.1 2 2.6 2.6-.8.8-3.2-1.7-3.2-.4.1 3 1.7 1.7 6 8.1 9.7 14.3 9 15.2 30 46.7 33.4 50.1 1.9 1.8 3.4 2.5 4.6 2.1 1.7-.6 1.7-.5-.1.9-2.4 1.9-3.4 1.4 13.5 6.2 6.9 2 12.9 4.1 13.5 4.7.7.7.4.8-1 .4-1.1-.3-7.2-2-13.5-3.7-12.4-3.4-18.3-6.7-21.5-12.2-1.9-3.1-2.1-3.6-2.4-5.6 0-.5-.7-1.6-1.4-2.3s-3.9-5.4-7.1-10.3c-3.2-5-7.1-10.8-8.6-13-2.6-3.8-7.8-12.2-14.3-23-1.6-2.7-4-5.9-5.2-7.1-1.2-1.1-2.6-3.1-3-4.2-.7-2.3-2-2.8-3-1.2-.3.5-1.2 1-1.8 1-.7 0-.4-.5.6-1.1.9-.5 1.7-1.4 1.7-2 0-.5-4.5-5.7-10-11.5s-10-11-10-11.7c.1-.7 1.3.4 2.8 2.3s4.7 5.7 7.1 8.3m30.4 22.3c5.1 3.1 14.1 8.1 20 11l10.9 5.2 16.3.2c14.7.1 16.5-.1 17.4-1.7 1-1.7 1-1.7 1.1 0 0 1.7 1 1.8 15.8 1.4 18.5-.5 19.4-.6 20.3-3.8.5-1.6.7-1.8.8-.7.1 1 .4 1.8.9 1.8 3-.1 12.5-4.1 24.9-10.5 8-4.2 14.7-7.4 15-7.2.2.3-3.8 2.6-8.9 5.2s-10.4 5.5-11.8 6.4-6.1 3.2-10.5 5c-4.4 1.9-8.5 4-9.1 4.8-.6.7-1.6 1.3-2.1 1.3s-2.7 1.5-4.9 3.4c-2.1 1.8-7.3 5.8-11.4 8.7-13 9.4-18 13.3-18 14.1 0 .4 1.2 1.5 2.8 2.3 1.5.9 1.8 1.3.7.9s-3.2-.9-4.7-1.2c-1.6-.2-2.8-.9-2.8-1.6 0-.6-2.8-3.2-6.2-5.8-3.5-2.5-10.7-8.1-16.1-12.2-5.4-4.2-10.3-7.6-10.7-7.6-.5 0-2-1.1-3.3-2.4-1.4-1.3-4.9-3.7-7.8-5.1-6.5-3.3-28.9-16.5-28.9-17.1 0-.9 1.5-.2 10.3 5.2m658.2 94.4c.3 1.1 1.5 2 2.6 2 2 0 4.4 4.3 3.6 6.4-.3.6-.9-.5-1.5-2.4-.6-2.1-1.1-2.7-1.1-1.5-.1 1.1.6 4.1 1.6 6.7l1.6 4.6 1.7-3.1c1-1.8 2.6-5.8 3.6-9 1.3-4.1 2.3-5.7 3.6-5.7 1.6 0 1.4.9-1.6 9.2-1.8 5.1-3.6 10.9-4 12.9-.6 3.1-.9 3.6-3 3.2-1.9-.4-2.9-1.8-4.6-6.6-1.2-3.4-3.3-9-4.6-12.5-2.2-5.9-2.2-6.2-.4-6.2 1 0 2.2.9 2.5 2m24.3 5.8c3.1-1.1 8.5.8 13.4 5 1.2.9 1.9.6 3.6-1.7 3.1-4.3 7.2-4.8 13-1.8 2.6 1.4 4.6 3.1 4.4 3.7-.1.6.2.9.7.5.6-.3 1.5.3 2 1.4 1.5 2.7 1.4 3.8-.1 1.8-1.6-2-3-1.1-4.4 2.8-.6 1.6-1.6 2.9-2.2 2.8-.7-.2-1.1.1-.9.6.1.5-.9 1.9-2.3 3.1l-2.5 2.2 3-.7c1.7-.4 3.6-.8 4.3-1.1.7-.2 1 .1.7.6-.3.6-.2 1 .3 1 1.1 0 3.7-2.9 4.5-5 .5-1.3.5-1.3.6 0 .1 3.1-6.1 8.1-7.4 6-.3-.5-1.4-1-2.3-1-1.5 0-1.5.2-.2 1 .8.5 1.1 1 .7 1-1.5 0-5.1-2.2-9.7-6-3.8-3-5-3.5-7.5-2.9-1.6.4-2.5.7-2 .8.6.1-.3 1-2 2.1-2.4 1.5-2.6 2-1.3 2.5.9.4 2.7.1 4-.6 2.1-1.1 2.2-1.1.9.4-.7 1-.9 1.7-.3 1.7 1.4 0 3.3-2.5 2.5-3.3-.3-.4-.1-.7.5-.7 1.7 0 1.5 1.5-.5 3.1-1.1.9-3.7 1.4-6.4 1.4-3.7-.1-5.6-.9-8.8-3.4-2.3-1.8-4.1-3.9-4.1-4.7 0-1.7-1.7-1.9-2.3-.2-.3.7-.4-.3-.3-2.3 0-2.1.3-3.6.6-3.4s1.4-1.8 2.5-4.3c1.1-2.8 2.1-4 2.3-3.1.2 1.4.8 1.5 3 .7"/><path d="M616.5 49.8c-1.6 1.9-4.3 5.4-6 7.7-1.6 2.3-6.4 8.5-10.5 13.6-4.2 5.2-10.2 12.8-13.3 16.9-3.2 4.1-7.1 9.2-8.8 11.2l-3 3.7 4.1-.5c2.3-.3 4.7-.1 5.3.5.7.5 2.3.9 3.7.9s8.1.1 15 .2c17.3.2 16.5.3 19.8-2.9 3.6-3.7 11.8-5.2 15.4-2.9 1.3.8 4.3 2 6.8 2.7s5.3 1.7 6.3 2.2c1.3.7 2.2.5 3.3-.6 1.4-1.3 1.4-1.8.2-3.3-.7-.9-1.7-2-2.3-2.4-.7-.5-.7-.8 0-.8s.7-.3 0-.8c-1.2-.9-5-6.6-10-15.2-2.1-3.6-4.4-7.4-5.2-8.5-.7-1.1-4.5-6.7-8.3-12.4-3.9-5.7-7-10.7-7-11.1 0-2.2-2.9-1.2-5.5 1.8M555.5 110.1c-3.3.5-9.9 1.3-14.6 1.8-4.8.5-10.5 1.5-12.6 2.1l-4 1.2-1.2 14.7c-.6 8-1.4 17.5-1.6 21.1l-.5 6.4 7.1-6.9c17.7-17.5 37.9-39.3 37.9-40.9 0-.7-2.6-.6-10.5.5M667 109.9c0 .6.5 1.1 1.1 1.1.5 0 .8.4.5.8-.3.5 3 4.5 7.2 9 4.2 4.4 10.1 11 13.1 14.6 2.9 3.6 5.7 6.3 6.2 6s.6.3.2 1.2c-.4 1.2-.3 1.5.5 1 .7-.4 1.2-.3 1.2.2s1.1 2.1 2.4 3.5 3.3 3.9 4.5 5.6c2.4 3.3 4.2 3.4 3.4.1-.3-1.1 0-2 .6-2 .8 0 .9-.5.1-1.9-1.2-2.4-1.3-3.4-.2-2.7.5.3.9-7 1-16.2v-16.8l-9.6-1.2c-5.3-.6-14-1.4-19.2-1.8-5.2-.3-10.3-.8-11.2-1.1-1-.2-1.8 0-1.8.6M712 127.4c0 7.3-.5 17-1.1 21.5s-.9 8.5-.6 8.8c.4.3 7.5-2.9 16-7.1 8.4-4.2 15.7-7.6 16-7.6 1 0 11.9-7.1 11.5-7.5-.2-.2-9.7-5.1-21.1-10.9L712 114.2zM516.5 118.5c-1.6 1.4-3.3 2.5-3.7 2.5-.7 0-7.5 3.9-21 11.9-8.9 5.2-9.8 7.1-7.4 14.7 6.5 20.7 8.6 27.8 8.6 28.5 0 .4.4 1.9 1 3.4l1 2.6 6.7-5.7c13.7-11.5 15.5-13.4 15-14.7-.3-.8-3.4-3.1-6.9-5.1s-8.3-5-10.8-6.6-5.2-3.3-6-3.7c-2.1-1-9.4-6.3-8.7-6.3.3 0 4.9 2.6 10.2 5.7 5.2 3.2 12.3 7.5 15.8 9.5 3.4 2.1 6.7 3.8 7.4 3.8 1.2 0 1.5-2.2 3.3-23.5 1.7-21.3 1.5-21.9-4.5-17M533.1 162.9c-1.1.7-1.1.9 0 1.3s.8 1-.8 2.5l-2.3 2 4.5 4.9c2.5 2.6 4.5 5.1 4.5 5.6 0 .4 4.7.8 10.5.8 9.8 0 10.5.1 10.5 2 0 2.7 1.7 2.5 2.2-.3.6-3.6-.2-5.7-2.3-5.7-1.2 0-1.9-.7-1.9-2 0-1.6-.7-2-3-2-2.8 0-3-.2-3-4v-4h-4c-2.2 0-4-.5-4-1 0-.6-.7-1-1.5-1s-1.5.4-1.5 1c0 .5-.7 1-1.5 1-.9 0-2 1-2.5 2.2-.8 2.1-.9 2-.9-1-.1-3.3-.7-3.8-3-2.3M711.7 165.7c-.4.3-.2 1.2.4 2 .6.7 2.2 4.8 3.4 9 4.7 15.6 7.3 23.9 9 27.8 1.9 4.4 2.3 4.1 5-4.1.9-2.7 2.9-7.5 4.5-10.7 1.6-3.1 2.7-6.4 2.4-7.1-.3-.8-2.4-2.7-4.7-4.3-2.3-1.5-6.5-4.5-9.3-6.5-2.8-2.1-5.5-3.8-5.9-3.8-.5 0-1.6-.7-2.5-1.5s-2-1.2-2.3-.8M510.9 170.3c-2.5 2.3-6.8 6-9.7 8.2-5.7 4.3-6 5.3-3.8 13.1.7 2.7 1.9 7.5 2.5 10.6.7 3.2 1.6 6 2.1 6.3s2.2-3.6 3.9-8.7c1.6-5.1 4.7-14.5 7-20.8 2.2-6.3 4.1-11.8 4.1-12.3 0-1.5-1.6-.5-6.1 3.6M520.8 167.7c-.3 1.1-.6 6.4-.7 11.7-.1 5.4-.6 13.4-1.1 17.9-.6 4.5-1 11.7-1 16.1v7.8l9.3-.6c11.2-.8 36.7-3.5 38.5-4.1 2.4-.8 1.1-2.8-8.7-12.8-5.4-5.6-11.8-12.5-14.1-15.2-2.4-2.8-8.2-9-13-13.9-7.3-7.4-8.8-8.5-9.2-6.9M705.3 169.5c-.7.8-1.3 2.8-1.3 4.5 0 2-.6 3.3-1.7 3.7-1 .4-2.7 1.5-3.7 2.5-1 .9-2.2 1.5-2.6 1.3-.4-.3-1.3.2-2 1-1.5 1.8-3.6 1.9-4.4.2-.3-.6-.3-.1 0 1.2.5 1.8.3 2.3-.8 1.9-3.6-1.4-6.1 4.3-4.4 10.2.6 2 .5 2.2-.4 1-.9-1.1-1.3-1.2-1.7-.3-.7 1.8-3.3 1.6-3.3-.2 0-.8-.7-1.5-1.6-1.5-1.4 0-1.5.2-.3 1.7 1.3 1.5 1.2 1.6-.8 1.1-2.3-.6-3.5.4-3.9 3-.3 1.8-1.4 2.9-1.4 1.3 0-.7-.5-.9-1-.6-.6.4-.8 1.1-.5 1.6.4.5-.1.9-1 .9-.8 0-1.8.7-2.1 1.5-.4.8-1 1.2-1.5.9s-.9.2-.9 1c0 .9.5 1.6 1 1.6.6 0 .5.6-.2 1.4-1.1 1.2-1.4 1.1-2-.8-.6-2-.6-2-.7.3-.1 1.6-.5 2.1-1.6 1.7-.9-.3-1.9.3-2.6 1.6-1 1.8-.9 2 .5 1.5.8-.3 2.2 0 3 .8s2.2 1.2 3 .9c.9-.3 1.6-.2 1.6.4s2.5.9 6.3.6c4.2-.2 5.2-.1 3.2.4-1.9.5 2.8 1 13.5 1.4 11.8.4 16.7.2 17.2-.6.7-1 1.2-50.7.6-50.6-.2.1-.9.7-1.5 1.5M514.2 179.1c-4.9 14.9-8.9 26.1-10.6 30.2L502 213l5.4 3.5c7.6 4.9 8.6 4.7 8.7-1.8 0-2.8.3-7 .5-9.2 1.1-9.4 2-32.2 1.4-33.9-.5-1.4-1.6.7-3.8 7.5M709.8 194.1c-.2 13.4-.2 24.6-.1 24.8.2.2 3.3-1.1 7-3 4.5-2.3 6.9-4.2 7.1-5.5.1-1-1.1-6-2.7-10.9-5-15.2-9.7-28.4-10.4-29.1-.3-.4-.8 10.3-.9 23.7M603.2 201.2c-.6.6-1.7 1.3-2.4 1.4s-4.4 2.1-8.1 4.4c-4.8 3.1-6.4 4.5-5.5 5.1 1 .7.8.9-.5.9-1 0-1.5.4-1.2 1 .3.5-.4 1.1-1.7 1.1-1.9.1-1.8.3.7.9 1.7.4 14.7.8 29 .9 25 .1 25.9 0 23.4-1.7-1.4-.9-2.4-2.3-2.2-3 .3-.6 0-1.2-.5-1.2-.6 0-1.7-.6-2.4-1.3-1.4-1.2-3.7-2.6-12.2-7.1-5.3-2.8-14.2-3.6-16.4-1.4M717.8 217.6c-3.9 2-6.8 4.1-6.8 4.9 0 .9 1.2 3.9 2.7 6.8 1.4 2.9 3.4 7.6 4.3 10.6 1.5 4.7 1.9 5.2 2.8 3.5 1.1-2.1 2.1-9.5 2.3-16.4.1-2.5.6-6.2 1.1-8.4.5-2.1.8-3.9.6-4.1s-3.3 1.2-7 3.1M502.6 224.7c.2 4.9.3 11.4.4 14.5 0 3.2.5 5.8 1 5.8.6 0 1-.6 1-1.3 0-.6 1.8-4.8 4.1-9.2 5.9-11.7 5.9-11.9-.3-15.5-2.9-1.6-5.6-3-5.9-3-.4 0-.5 3.9-.3 8.7M539.5 221.2c-10.4 1.1-19.3 2.3-19.8 2.7-.4.4.1 1.6 1.1 2.7s2.7 3.3 3.8 4.9c2.2 3.5 10.6 14.8 11.4 15.5.4.3 2.6 3.2 5 6.5s6.9 8.7 10 12 6.7 7.8 8 10l2.5 4 .7-4c.4-2.2 1.6-10.5 2.8-18.5 1.1-8 2.6-17.4 3.2-21s1.1-8.8 1.2-11.5l.1-5-5.5-.2c-3 0-14 .8-24.5 1.9M574.9 220.4c.5.6 1.2 2.2 1.6 3.6.6 2.3 5.1 12.6 11.1 25.7 1.3 2.8 2.4 5.7 2.4 6.3 0 .5.4 1.8.9 2.8.5.9 2.9 6.2 5.4 11.7s6.4 14 8.6 18.9c2.3 4.9 4.1 9.6 4.1 10.5.1 1.3.3 1.3 1.5-.3.9-1.1 1.5-1.4 1.5-.7 0 1.5 2.3.9 11-3.2 3.6-1.6 10.3-4.7 15-6.8 4.7-2.2 10.5-4.9 13-6.2l4.5-2.3-.3-7.4c-.2-4.1-1.2-12-2.3-17.5-2-10.3-2.6-14.9-3.2-24.8-.3-3.2-.7-6-1.1-6.4-.6-.7-1 2.1-.6 4.7.1.8-.1 1.2-.6.8-.4-.4-1.3.4-2 1.8-.8 1.4-2.3 4.3-3.3 6.3-2.5 4.6-12.1 25-12.1 25.6 0 .2-2 4.8-4.5 10.1s-4.5 9.8-4.5 10c0 1.3-6.1 13.4-7.1 14-.9.5-1 .2-.4-1.2.4-1 1.5-3.9 2.5-6.4 2-5 9.8-22.7 13.5-30.5 1.2-2.8 4.1-8.8 6.3-13.5 6.1-13.1 12.3-29.7 9.2-24.8-.6 1-1.6 1.8-2.2 1.8-.7 0-.7-.4 0-1.3.8-.9-3.2-1.3-19.1-1.6-43.1-.8-49.6-.7-48.8.3M651.5 222.7c.3 1 1 6.5 1.5 12.3.8 8.8 2.7 25.2 4.6 38.7.5 3.7 2.3 4.3 4.1 1.4.7-1.1 6.1-7.6 12-14.4 16.7-19.1 28.7-33.6 30-36.1 1.2-2.3 1.1-2.3-4-3-2.9-.3-15-.6-27.1-.6-20.3 0-21.8.1-21.1 1.7M573 227.3c0 1-.6 2.8-1.4 4s-1.7 5.1-2.1 8.7-.8 7.2-1 8-.8 5.1-1.4 9.5c-.7 4.4-1.6 10.8-2.2 14.1-1.1 7.2-1.2 10-.2 9.1.3-.4 1.1-.1 1.7.7.6.7 5 3 9.7 5 4.8 2 13.5 5.9 19.3 8.6 11.9 5.5 13.9 6.1 10.9 2.7-1.1-1.2-2.4-3.3-2.8-4.6s-2.4-6-4.5-10.5c-7.7-16.6-14-30.6-14-31.1 0-.7-2.6-6.4-7.9-17.4-2.3-4.7-4.1-7.7-4.1-6.8M512.9 235c-1.2 2.7-2.5 5-3 5s-.9 1.7-1 3.7c0 2.7-.3 3.2-.8 2-.6-1.6-1-1.4-2.6 1.7-2.1 3.9-1.4 5.6 2.4 5.9 1.1.1 2.1.4 2.1.7 0 .7 5.5 4 6.7 4 .4 0 .1-.4-.7-1-1.2-.8-1.2-1.4.3-4.5.9-2 2.1-3.4 2.6-3 .5.3 1.2-.8 1.6-2.4.7-3.3-2.9-17.1-4.5-17.1-.5 0-1.9 2.2-3.1 5M497.9 258.2c0 .2-.3 1.4-.5 2.8-.5 2.9-5.4 10.9-10.4 17-3.3 4-8.4 13-7.5 13 .2 0 4.3-1.4 9-3.1 10-3.6 11-5.1 10.2-13.7-.3-3-.2-6.5.4-7.8 1.8-5 2-8.4.4-8.4-.8 0-1.5.1-1.6.2M530.7 270.7c-.4.3-.7 1.6-.7 2.8 0 1.7.6 2.2 2.5 2.2 1.3 0 2.3-.3 2-.7-.2-.4 1-.4 2.8-.1 3.9.8 4.2 3.2.5 4.2-4.4 1.2-5.8 3.3-5.8 8.8 0 5 1.1 6.3 3.6 4.3.5-.4 4.5-2.3 8.9-4.2 13.2-5.7 14.9-6.6 13.5-7.5-.8-.5-3.4-.8-5.9-.8s-5.1-.4-5.8-.9-1.6-.7-2.2-.4c-.5.3-1.1-.1-1.5-.9-.3-.8 0-1.5.5-1.5.6 0-1.3-1.3-4.2-2.8-3-1.6-5.6-2.4-5.8-1.9s-.7.4-1-.2c-.4-.6-1-.8-1.4-.4M672 275.5c-1.4.8-4.5 2.3-7 3.4l-4.5 1.9 6.5 3c17.9 8.3 19.4 8.5 20.4 2.4 1.2-7.2.8-8.9-1.9-9.4-1.4-.3-3 .1-3.6.8s-1.6 1.1-2.2.9c-.7-.2-2.5-.6-4.1-1-2.7-.6-2.7-.7-1-2 2.5-1.9.6-1.9-2.6 0M657.5 283.2c-.2.7-1.1 3.9-2 7.1s-1.9 5.6-2.2 5.3c-.5-.5.9-7.4 2.3-11 .3-.9.1-1.6-.4-1.6-.6 0-9.3 3.8-19.4 8.4-10.1 4.7-19 8.6-19.8 8.8-1.5.3-3 1.7-3 2.9 0 .6 9.7 5.5 23.7 11.9 4 1.8 7.9 3 8.7 2.7.7-.3 1.7-2.5 2.1-4.9s1.4-5.4 2.2-6.8l1.4-2.5-.7 2.5c-.4 1.4-1 4.8-1.3 7.6-.6 4.8-1 5.4-7.9 11.4-4 3.4-9.4 8.8-11.9 11.9-4.1 5-4.3 5.7-2.8 6.6 1 .5 3.2 2.2 4.9 3.6 4.1 3.5 10.4 5.3 12.5 3.6 3.4-2.6 3.9-3.4 3.1-4.7-.4-.7-.6-2-.2-2.8.4-1.2-.1-1.4-2.4-.8-1.6.3-4 .9-5.4 1.1-1.4.3-3.4.8-4.5 1-2 .5-.6-.3 6.1-3.2 1.7-.8 4.8-2.9 6.9-4.8s4.1-3.5 4.6-3.5c1.7 0 5.9-4.4 5.9-6.2 0-1 .5-1.8 1-1.8.6 0 1-1.1 1-2.5 0-2.3-.4-2.5-4.5-2.5-2.5 0-4.5-.5-4.5-1 0-.6 2-1 4.4-1 5 0 7.8-.8 7.1-2-.3-.5.8-1.4 2.5-2.2 1.6-.7 3-1.9 3-2.5 0-.7.9-1.3 2-1.3 4.6 0 12.2-2.3 12.8-3.8.3-1 1.5-2.9 2.6-4.4s1.6-3.1 1.3-3.5c-.8-.8-8.5 2.9-14.4 6.9-2.3 1.5-4.6 2.8-5.2 2.8s-1.6.9-2.3 2-1.8 2-2.4 2-2.4.6-4 1.4c-7 3.4-9.5 3-5.1-.9 1.3-1.1 2.6-2.7 2.9-3.6.4-1 2.4-1.9 5-2.3 2.4-.4 6.3-1.8 8.8-3.1s6.9-3.6 9.8-5.1c4.7-2.4 6.7-4.4 4.2-4.4-.5 0-3.5-1.2-6.7-2.6s-7.4-3.3-9.3-4.2c-1.9-.8-4.7-2.4-6.2-3.4-3.1-2.1-3.7-2.2-4.3-.6M547.3 288.8c-6.7 3.2-12.2 6.1-12.2 6.7-.1 1.1 9.3 6.6 26.8 15.6 8.4 4.4 11.2 5.5 10.8 4.2-7.5-22.2-11.2-32.3-12.1-32.2-.6.1-6.6 2.6-13.3 5.7M564 285.5c0 1.9 6.4 19.2 9.8 26.7 2.6 5.6 4.3 6.5 7.6 3.9.6-.5 4-2.1 7.6-3.6s8.5-3.7 11-4.8c6.5-2.9 6.7-3 4.7-1.4-1 .8-7.6 4.1-14.8 7.2-7.1 3.2-12.9 6.1-12.9 6.6 0 1 19.2 19.9 20.2 19.9.4 0 1.2-.8 1.8-1.8 1-1.5 1.1-1.5.7.4-.7 3.3.7 4.6 4.9 4.8l3.9.1.9-7.2c.9-7.6 0-20.7-1.4-19.8-.5.3-2 4.1-3.5 8.4-1.4 4.3-3.3 8.7-4.1 9.7-1.5 1.9-1.5 1.8-.9-.1 3.1-9.2 6.1-16.4 7.6-18.4 2.5-3.1 2.5-10.2.2-12.9-1-1.1-5.8-3.6-10.8-5.7-8.9-3.6-18.2-7.8-26-11.6-4.8-2.3-6.5-2.4-6.5-.4"/><path d="M610.6 306.3c.2.7.5 9.1.7 18.7l.2 17.5 4 .3c6.7.4 7.3-.6 4.7-8.6-2.4-7.6-2.6-8.6-1.3-7.8.5.3 1.6 3.7 2.6 7.4l1.8 6.9 10.4-10.4c5.6-5.8 10.3-10.6 10.3-10.9 0-.2-.4-.4-1-.4-.5 0-7.1-3-14.7-6.6-13.8-6.6-18.6-8.3-17.7-6.1M627.8 349.8c-.3 1 .1 4 .7 6.7.7 2.8 1.5 6.8 1.8 9 .8 7.2 3.9 22 4.8 23.5.6.9.7-6 .3-17.5-.6-18.6-.6-19.1-3-21.3-3-2.7-4-2.8-4.6-.4M624.9 359.1c-.2.7-.4 8.8-.4 17.9v16.5l3.6.3c2.5.2 3.8-.2 4.2-1.1.3-.8-.8-7.9-2.4-15.8-3.4-16.5-4.3-20-5-17.8M594.4 362.3c.2 1.9-.2 3.1-1.5 3.8-1.3.6-1.9 2.1-1.9 4.4 0 4.1-2.6 14.6-3.8 15.4-.5.3-1.2 3.3-1.6 6.6-.3 3.3-1 9.1-1.5 13-1.2 9.5-.3 15.6 3.7 26.9 3.6 10 3.8 9.7 4.6-7.3.4-11 .3-13.1-.7-11.6-1.3 1.6-4.9 1.8-4.8.2.1-.4.1-1.9.1-3.3 0-1.9.7-2.8 3-3.7 1.7-.6 3.2-1.8 3.5-2.7 1.2-3.9 2.5-38.7 1.5-41.5-1-3-1-3-.6-.2M476 382c0 2.9 18.3 24.4 20.3 23.7 1.3-.4 4.6-10.3 4.7-14 0-1.7-.5-2.7-1.5-2.7-.8 0-1.5-.6-1.5-1.4 0-2.6-2.8-4.4-7.7-5-11.6-1.4-14.3-1.6-14.3-.6M741 382.5c-3.6.6-5.9 1.3-5.1 1.6 1 .4 1.2 1.1.6 2.5-.4 1-1 2.8-1.2 3.8-.4 2.3-3.8 5.8-4.7 4.9-.3-.4-.6.3-.6 1.4s-.8 2.7-1.7 3.4c-1.4 1.2-1.6 1.2-.9 0 .6-.9.5-1.2-.4-.9-2.3.7-2.2 2.5.2 3.2 1.9.5 2 .8.8 1.5-.8.5-1.8.7-2.2.5-1-.6-1.1 1-.1 2 1.1 1 7.2-5.5 6.6-7.1-.3-.8 0-1.3.8-1.1s1.3-.3 1.1-1.1.3-1.1 1.1-.8c1.3.5 15.7-12.8 15.7-14.5 0-.8-1.4-.7-10 .7M473.2 386.2c.4.9.9 3.7 1.3 6.4 1.2 9.2 1.3 9.4 6.8 11.9 2.9 1.3 6.8 2.6 8.7 3 3.3.7 3.4.7 2-1.1s-8-9.8-14-17c-3.1-3.7-5.6-5.4-4.8-3.2M627.4 396.1c-2 .6-3.5 1.9-4.2 3.6-1 2.4-1.7 24.6-1.3 36.3l.1 3.5 1.5-2.5c.8-1.4 3.3-6.3 5.6-11s5.1-9.7 6.1-11.2c2-2.9 1.8-8.2-.5-14.3-1-2.7-3.1-5.6-3.9-5.4-.2 0-1.7.5-3.4 1M688.6 412.6c6.5 6 21.2 18.4 21.7 18.4 1.2 0 11.7-16.2 11.7-18 0-.4-3.9-1.3-8.7-2-4.9-.6-11.5-1.6-14.9-2.1-3.3-.5-8-.9-10.4-.9h-4.4zM636.8 416.7c-.8 1-2.6 4-3.9 6.8-1.3 2.7-2.6 5.2-2.9 5.5-.9.8-6 12.6-6 13.9 0 .6.6 1.1 1.3 1.2.6 0 3.2.3 5.7.7 2.5.3 6.8.6 9.5.6l5 .1-.3-5c-.1-2.8-1.8-9.2-3.7-14.4-1.8-5.2-3.2-9.8-2.9-10.3.9-1.4-.3-.8-1.8.9"/><path d="M641 416.1c0 .8 1.5 6.2 3.4 11.9 4.8 14.8 4.9 16.3 2.5 22.1-2.2 5-4.7 7-2.9 2.3 2-5.3 1.8-5.4-9.5-5.4-11.7 0-12.1.3-8.2 6.1 3.2 4.8 3.9 5.9 3.4 5.9-.2 0-2.1-2.5-4.3-5.5-2.1-3-4.2-5.5-4.6-5.5-.8 0-5.8 5.9-5.8 7 0 .4-.7 1-1.5 1.4-2 .7-1.9.6 1-3.4 1.4-1.9 2.5-3.8 2.5-4.2s-4.6-.8-10.2-.8h-10.2l4.9 4.6c4.2 3.8 4.5 4.2 1.8 2.7-1.8-.9-3.3-2-3.3-2.4s-1.2-1.4-2.6-2.4c-2.5-1.6-2.6-1.6-2 .2.2 1 .7 3.6 1.1 5.8l.5 4-1.4-4.3c-2.7-8-2.4-7.7-4.8-5.6-2.1 1.9-2.1 1.9-.7-.5 1-1.7 1.1-2.5.3-2.8-.7-.2-1-1.2-.7-2.2s-.2-3.2-1-4.7c-.8-1.6-2.2-5.8-3.1-9.3s-2.3-7.7-3-9.5c-.8-1.7-1.7-3.8-1.9-4.6-.4-1-.6-.9-.6.5-.1 1.6-.3 1.7-1.1.5-.7-1.1-1.8-.4-5.7 3.6-5.2 5.4-25 27.1-32.5 35.8-4.5 5-6.1 8.6-3.9 8.6.5 0 4.5 3.7 8.9 8.1 4.3 4.5 8.3 7.9 8.8 7.6s2.5-4.2 4.4-8.6 3.8-8.1 4.2-8.1c.9 0-1.7 9.5-4.1 14.6-2.6 5.4-2.6 8.6-.2 17.7 1 4 2.4 9.2 3 11.7 2.5 9.8 2.9 11.2 3.5 11.7 1.3 1.3 1.4 1 8.1-25.7.8-3 1.4-6.9 1.5-8.7 0-1.7.3-3.8.6-4.7.7-1.9 2.6-2.2 1.9-.4-.3.7-.6 3.3-.9 5.8-.2 2.5-1.7 10.1-3.4 17-3.3 13.8-4.4 19-3.7 19 1.8 0 19.5-10.6 19.5-11.7 0-.4-.6-3.2-1.4-6.2-.8-3.1-2.4-9.2-3.5-13.6-3.3-12.6-4.5-15.6-5.6-13.9-.7 1.1-.9-.2-.7-4 .4-5.7 2.2-8 2.2-2.8 0 1.5.4 3.2.9 3.7 1.1 1.1 4.3 11.8 4.4 14.7.2 2.6 1.7 2.2 1.8-.5.1-1.6.2-1.8.6-.5.5 2.1.5 2.1 3.8.6 1.9-.8 2.5-1.9 2.5-4.2 0-1.7.4-3.8.9-4.5.8-1.2 1.1-.8 1.6 1.5.3 1.6 1.1 4.8 1.7 7.1l1 4.2 3.4-4c1.9-2.3 3.4-4.7 3.4-5.5 0-2.2 1.8-1.6 3.6 1.1 1.6 2.5 6.3 3.5 6.5 1.5.2-1.3.6-2.9.9-3.5.1-.3.3-.9.4-1.4 0-.5.4-1.2.8-1.6s.2-1.6-.5-2.6c-1.6-2.5.9-5.1 4.1-4.2 2.1.5 2.2.7.7 2.9-1.5 2.3-1.5 2.4 1.2 2.4 3.8.1 6.3 2.2 6.3 5.4 0 2.3.2 2.5 1.3 1.4.7-.7 1.6-2 2-2.8s1.4-2.6 2.2-4c1.3-2.3 1.5-2.3 1.5-.4 0 1.1-.4 2.4-.8 3-.5.5-1.4 2.7-2 4.9s-2.4 8.3-4 13.5c-4.3 14.1-4.6 13.5 8.8 20.2 6.3 3.1 11.7 5.4 11.9 5.2s-.6-2.9-1.8-6.1-2.8-9-3.6-12.8c-.7-3.9-2.3-10.8-3.4-15.5s-2-9.9-2-11.5c.1-2.4.3-2 1.4 2 2 8 8.5 31.7 9.7 35.7 1.1 3.8 2.6 4.9 3.2 2.5 2.8-9.7 6.4-27 6-28.2-.3-.8-.1-2.8.4-4.4.9-2.4.8-3.1-.6-3.6-1.1-.4-1.3-.8-.5-1.3s.2-3.7-2.3-11.1c-1.9-5.7-3.4-10.9-3.4-11.6s-.9-3.4-2.1-6c-1.1-2.5-1.8-4.9-1.5-5.2.5-.6 3.3 5.7 4.2 9.6 1.2 5 10.5 25.1 11.6 25.1 1.8 0 14.9-14.3 14.4-15.6-.3-.9.4-1.6 2-2 1.4-.4 2.4-1 2.2-1.4-.6-1.5-9.4-11.4-16.3-18.5-9.4-9.5-20.3-21.1-24.3-25.9-1.7-2.2-3.2-3.3-3.2-2.5"/><path d="M537 470.6c0 .3 1.1 4.6 2.5 9.7 2.1 7.9 3.5 12.4 6.2 20.7.3 1.1.8.9 1.8-1 .7-1.4 1.3-2.7 1.3-3-.1-.3.9-2.4 2.1-4.7 3.3-6.7 2.9-8-5.1-15.5-6.7-6.2-8.8-7.7-8.8-6.2M663.7 494.2c-3.2 8.8-7.3 26.5-6.4 27.4.6.6 14-11.5 15.6-14.1 1.3-2.1 1.1-2.9-2.5-9.9-2.1-4.2-4.1-7.6-4.5-7.6-.3 0-1.3 1.9-2.2 4.2M552.6 492.7c-.3 1-.5 2-.4 2.3 0 .3-.9 2.4-2.1 4.7-1.1 2.3-2.1 4.9-2.1 5.7 0 1.8 12.6 15.3 13.4 14.5.6-.5-2.6-14.3-6-26.7-.8-2.6-2.1-2.9-2.8-.5M331.3 148.7c-5.4 6-10 11-10.3 11.3-3.3 3.2-12 14-11.3 14 .5 0 3.4-.7 6.4-1.7 9.1-2.7 52.1-14.4 57.7-15.6 2.8-.6 5.2-1.4 5.2-1.7 0-.4-3.7-2.1-8.2-4-9.3-3.7-19.4-8.2-25.1-11.1-2.1-1-3.9-1.9-4.1-1.9s-4.8 4.8-10.3 10.7M270.6 168.2c-5.6 9.1-9 16.7-9 20.3-.1 3.2-.5 4-1.9 3.9-1.1-.1-3 1.8-5.3 5.3-1.9 3-3.3 5.7-3.1 5.9s9.5-4.4 20.8-10.3c11.2-5.8 23-12 26.1-13.6 5.2-2.7 6.7-4.7 3.5-4.7-.7 0-7.5-2-15.1-4.5s-14-4.5-14.2-4.5-1 1-1.8 2.2M275.8 192.9c-21.6 11.3-25.5 13.7-24.5 14.9 1.5 1.8 14.7 11.2 15.8 11.2 1.2 0 35.5-38.8 34.8-39.4-.2-.1-12 5.8-26.1 13.3M300.1 184.8c-18.1 20.1-31.1 35.4-30.7 36.1.6.9 18.3 13.1 19 13.1 1.2 0 15.3-50.6 14.4-51.5-.2-.2-1.4.8-2.7 2.3M249.8 210.1c-.4 1.1.6 16 1.7 26.8.4 3.5 1 5.9 1.5 5.5.4-.5 3.6-5.5 7-11.2l6.3-10.2-2.9-2.3c-1.5-1.2-3.8-2.9-5-3.7s-3.6-2.5-5.2-3.8c-1.8-1.3-3.2-1.8-3.4-1.1M246.1 221.2c-.6 2.9-2.2 10.9-3.7 17.8-3.4 16.4-3.5 16.9-2.8 27.9l.7 9.4 2.1-5.4c1.2-3 2.7-7.2 3.3-9.4.7-2.2 2-6.7 3-10 1.6-5.3 1.7-7.6.8-20.2-.5-7.8-1.3-14.4-1.7-14.8-.3-.4-1.1 1.7-1.7 4.7M266 222.9c0 1-8 14.9-11.2 19.3-1.7 2.5-1.8 2.8-.3 2.8 4 0 32.9-9 31.8-9.9-3.3-2.9-13.4-10.1-16-11.5-3.7-1.8-4.3-2-4.3-.7M312 233.1c-7.4 1.1-15.5 2.2-17.9 2.5l-4.3.6.3 34.2c.3 25.7.7 33.9 1.5 32.7 3-4.2 33.7-64.5 34.6-67.6.2-1.1.6-2.4.7-3 .4-1.5-.4-1.4-14.9.6M277.2 240c-4.6 1.5-11.9 3.8-16.3 5l-8 2.3 2.3 2.5c1.3 1.3 5.6 5.1 9.7 8.5 6.8 5.6 7.4 5.9 8.5 4.1 2.5-4.1 13.6-24.5 13.6-24.9 0-.8-1-.5-9.8 2.5M287.2 240.7c-6.6 12.4-9.8 18.3-11.8 21.2-1.6 2.4-2 3.8-1.3 5 .5.9 2.6 6.1 4.8 11.6s5.3 12.9 7 16.5l3.1 6.5v-31.3c0-17.1-.2-31.2-.5-31.2-.2 0-.8.8-1.3 1.7M248.1 259.1c-1.9 5.5-3.1 10.2-2.8 10.5.3.4-.3 2.4-1.3 4.5-1.1 2.1-2 4-2 4.3 0 .2 2.7-.9 5.9-2.4 8-3.9 13.3-6.1 13.7-5.7.2.2-4.2 2.5-9.7 5.1-8.3 4-9.8 5.1-8.7 6.1 1.4 1.3 24.7 14.9 31.9 18.5 2.2 1.2 4.7 1.9 5.5 1.6s1.3-.1 1.1.4c-.1.6 1.3 2 3.1 3.1 4 2.6 4.5.6.7-3.5-1.4-1.5-2.5-3.5-2.5-4.4 0-1.1-.3-1.3-.8-.5-.4.6-.7-.8-.7-3 0-3.4-7.4-25.5-9.2-27.6-.2-.3-2.4.5-4.9 1.7s-4.3 1.8-4 1.4c.3-.5 1.9-1.5 3.6-2.2 1.6-.7 3-1.6 3-2 0-.5-10.3-9.4-17-14.7-1.3-1-2 .2-4.9 8.8M232.6 288.7c-3.1 3.1-5.6 6.4-5.6 7.2 0 .9 1.5 3.4 3.4 5.5l3.3 4 2.3-10.2c1.3-5.6 2.6-10.2 3-10.2s-.4 4.8-1.6 10.7c-1.3 5.8-2.3 10.7-2.2 10.9.6.6 16.3 4.3 16.6 3.9.6-.6-10.9-25.3-12.3-26.5-.9-.7-2.7.5-6.9 4.7M242 283.6c0 .3 2.7 6.2 6 13.1 3.3 6.8 6 12.9 6 13.4s1.5.9 3.3.9c4.2 0 26.7-2.7 27.3-3.3.2-.2-1.5-1.2-3.8-2.2-2.4-1-5.6-2.8-7.3-4-2.7-1.9-9.6-6-25.7-15.1-3.2-1.8-5.8-3.1-5.8-2.8M274 310.8c-7.4.7-14.8 1.6-16.3 2l-2.8.7 7 11.5c4.8 8.1 7.5 11.6 9 11.8 1.1.2 2.2.9 2.2 1.5.1.7.2 1.6.4 2.2.1.5.3 1.7.4 2.5s2-2.1 4.2-6.5c2.1-4.3 3.9-7.3 3.9-6.7 0 .7-.9 3-1.9 5-2.7 5.3-3.6 10.8-2 11.8.8.4 5.3 1.5 10.2 2.5l8.9 1.6-.6-6.1-.5-6.1 1.7 5.2c.9 2.9 2.1 5.3 2.7 5.3 1.7 0 28.8-14.5 29.2-15.6.3-.9-7.3-5.5-26.2-16-2.7-1.5-6.3-3.6-8-4.6-4.2-2.5-4.7-2.3-4.1 1.4.6 3.3.6 3.3-.5.5-.6-1.5-1.5-2.4-2.2-2-.6.4-.8 0-.4-1 .3-.9.3-1.8-.1-2-.4-.1-6.8.3-14.2 1.1M317.5 342.6c-13.2 7.2-18.5 10.5-14.1 8.8 1.5-.6 1.7-.3 1.3 1.2-.5 1.5 1.6 3.4 10.5 9.7 6.5 4.7 11.4 7.5 11.9 7 1.1-1.1 5.9-34.3 5-34.3-.3 0-6.9 3.5-14.6 7.6M279.2 354.4c.8 3.8.7 5.4-.6 8-.9 1.9-1.6 4-1.6 4.7s-.6 2-1.4 2.8c-1.4 1.5-3.9 9.2-3.2 9.8.5.5 23.7-24.8 24.4-26.7.4-1-3-1.8-11.5-2.6l-7.1-.7zM300.6 356.5c1.3 1 1.4 1.3.3 1-1.6-.6-2.3 1.1-4.8 12.5-.6 2.5-1.7 7-2.6 10-1.8 6.1-4.4 16.1-4.5 17.2 0 .4 2.1-.7 4.6-2.5s7.4-5 10.9-7.2c11.7-7.3 21.5-14 21.5-14.7 0-.3-1.5-1.5-3.2-2.7-1.8-1.1-4.7-3.1-6.5-4.3-8.5-6.2-15.6-10.8-16.6-10.8-.6 0-.2.7.9 1.5M284.3 370.1 272 383.9l5.7 5.3c3.1 2.9 6.2 5.9 7 6.7.8.7 1.6 1.1 1.8.9.3-.3 1.7-6.3 3.2-13.4s3-13.1 3.4-13.4c.7-.5 4-13.3 3.6-13.6-.1-.1-5.7 6.1-12.4 13.7M205 394c-2.3 4.7-6 11.6-8 15.5-3.9 7.5-10.8 20.8-12.2 23.8-.8 1.7-.7 1.7 1.9.2 1.5-.8 3.7-2.1 4.8-2.8 1-.6 3.6-2.2 5.7-3.5 2.3-1.3 3.6-2.7 3.2-3.4s-.3-.8.4-.4c1 .6 8-3.2 18.3-10.1 2.1-1.4 3.6-3 3.3-3.5-.4-.6-1-.5-1.5.3-.7 1.2-1.1 1.1-2.5-.3-1-1-1.3-2.1-.8-2.9.9-1.6.6-8.3-.6-11.3-.5-1.2-.9-1.5-.9-.6-.1 1-.6.7-1.7-.8-.8-1.2-1.9-2-2.4-1.7s-1.2-.7-1.6-2.2c-.3-1.5-.7-3.2-.8-3.8-.1-.5-2.2 2.9-4.6 7.5M210.8 421.3c-6 4-14.1 9.2-18.2 11.7l-7.4 4.5 6.2.6c9 1 21.5.9 19.1 0-1.1-.5-2.4-.6-2.9-.3-.5.2-.7-.1-.4-.9s1.1-1.4 1.9-1.5c2.4-.1 4.9-1.5 4.9-2.9 0-1.8 3.7-4.8 6.2-4.9 1.8-.1 2.4.6 2.9 2.9.4 1.6.6-1.2.5-6.4 0-5.3-.5-9.6-1.1-9.7-.5-.1-5.8 3-11.7 6.9M193.5 454c-4.6.6-4.8.7-2.5 1.7 10.7 4.6 16 6.5 18.8 6.8 1.9.2 3.7.6 4 1 .9.9.9 12-.1 17.5-.7 4.4-.7 4.5.7 1.5 2.3-4.8 1.8-2-.8 4.4l-2.4 5.9 4.7 4.4c2.5 2.4 5.4 5 6.4 5.7 1.5 1.2 1.7 1.2 1.1-.4-.4-1-.3-1.6.2-1.3 1.1.7-.1-32.7-1.3-38.7-.9-4.3-1-4.3-12-6.2-5.7-1-6.4-.6-3.3 2.2 1.1 1 2 2.2 2 2.7s-1.2-.4-2.6-2.2c-3.7-4.4-7-5.7-12.9-5M931.5 139.6c-4.9 1.9-13.6 5.1-19.2 7.1-7.5 2.8-9.8 4-8.6 4.7 2.3 1.3 13.3 3.7 14.3 3.1.5-.3 1-.2 1.2.3.1.4 5 2.1 10.8 3.6 5.8 1.6 15.9 4.5 22.5 6.4 17.8 5.1 25 7 25.4 6.6s-1.4-2.4-18.8-22.1c-9.8-11.1-15-16.2-12.7-12.4.4.6.2 1.1-.3 1.1-.6 0-1.1-.5-1.1-1 0-1.7-4.2-.9-13.5 2.6M1012 166.6c-2.5.8-9.2 2.7-14.9 4.4-10.1 2.9-11.9 3.6-11 4.4.2.1 8.2 4.2 17.7 9s21.4 10.9 26.4 13.6c5 2.8 9.2 5 9.3 5 .2 0-4.1-8.5-9.4-19-10.5-20.8-9.7-20-18.1-17.4M988 178.7c0 1.4 29.9 34.3 31.2 34.3.4 0 .8-.7.8-1.5s.5-1.5 1-1.5c1.2 0 1.3.6.1 2.8-.7 1.3-.4 2.5.9 4.2l1.8 2.4 8.5-6.5 8.6-6.4-2.5-2.1c-2.7-2.3-50.4-26.6-50.4-25.7M985.5 181.5c3.2 13.7 13.3 52.6 13.9 53.2.6.7 22.7-13.9 22.4-14.8-.2-.4-4.2-5-8.9-10.1s-10.3-11.3-12.5-13.8c-8.6-9.9-15.3-16.5-14.9-14.5M1036.3 211.7c-2.8 2.1-6.4 5-8.1 6.5l-3.2 2.6 7.3 12.3 7.2 12.2.7-12.4c.4-6.8.9-15.2 1.1-18.7.3-3.4.4-6.2.2-6.2s-2.5 1.7-5.2 3.7M1044.4 214c1.2 5.9 3.6 19 4.6 25 1.2 8.1 1.5 9.6 2.9 14.6l1.1 4 7.7 1.1c4.3.6 8 1 8.2.7.6-.5-21.8-44.6-23.6-46.4-1.3-1.3-1.4-1.2-.9 1M1042.6 225c-1.6 21.3-1.6 22.1.8 24.4 3.7 3.5 6.6 5.6 6.6 4.8 0-.6-1.2-7.8-5.9-34.7-.6-3.4-.8-2.6-1.5 5.5M1012.7 228.7c-5.9 3.7-10.7 7-10.7 7.3s7.9 2.8 17.5 5.5c9.6 2.6 17.5 5.1 17.5 5.5s-4.6-.6-10.2-2.2c-14.4-4-25.8-6.7-25.8-5.9.1.6 1.8 3.7 10.9 20 1.9 3.4 3.9 6.1 4.5 6.1 2.5 0 21.6-15 21.6-16.9 0-1.7-11.8-23.3-13.8-25.3-.4-.4-5.6 2.2-11.5 5.9M956.6 233.2c.3 1.3 8.4 17.7 18 36.6 9.5 18.9 17.5 34.9 17.7 35.5 1 2.9 1.6-1.2 2.7-21.3 2.5-43.6 2.6-45.1 1.3-46.1-1.3-1.1-33-6.9-37.6-6.9-2.5 0-2.7.3-2.1 2.2M954 237.2c0 2.9-3.7 56.3-5 72.6-1.1 13.2-1.3 22.2-.5 22.2 1.6 0 21.7-10.5 23.1-12.1.9-1 2.5-1.9 3.5-1.9s5.2-1.6 9.4-3.6c6.7-3.2 7.5-3.8 6.9-5.7-1-3.2-5.3-11.7-6-11.7-.3 0-.2.4.1 1 .3.5.1 1-.6 1s-.9-.9-.6-2.2c.4-1.5-3.7-10.9-14.1-32-8.1-16.3-15-29.8-15.4-29.8-.5 0-.8 1-.8 2.2M998.2 260.7c-.7 10.9-1.5 25.2-1.8 31.8l-.6 12 2.1-3.2c3-4.8 16.1-32.8 16.1-34.6 0-.8-1.9-4.5-4.1-8.3-2.3-3.7-5.3-8.8-6.6-11.3-1.4-2.5-2.9-5-3.3-5.4-.3-.4-1.2 8.1-1.8 19M1028.7 258.5c-5.4 4-10 7.5-10.2 7.7-.5.4 28.1 13.8 29.5 13.8.6 0 .6-.8 0-2.3-.5-1.2-1.6-4.9-2.6-8.2-3.4-12.2-5.6-18.5-6.2-18.4-.4 0-5.1 3.3-10.5 7.4M1009 282.7c-3.9 8.1-8.1 16.9-9.4 19.5-1.5 3.1-1.9 4.8-1.1 4.8 1.8 0 49.5-23.8 49.5-24.7 0-.5-1.5-1.4-3.2-2.2-1.8-.8-8-3.6-13.8-6.2-16.4-7.4-13.9-8.3-22 8.8M1036.3 290.7c-5 2.6-8.9 5.1-8.6 5.7.3.5.1.6-.4.3-.6-.4-4.9 1.2-9.4 3.5-5.3 2.6-7.7 4.3-6.6 4.6.9.2 1.7 1.1 1.7 2 0 1.2.2 1.4.8.4.8-1.2 1.8-1.3 9.4-1.3 2.3 0 3.9-.6 4.2-1.6.5-1.3.9-1.3 2.3-.2.9.8 1.4.9 1 .3-.4-.7 0-1.4.8-1.7.8-.4 1.6.2 2 1.2.3 1.1 1.5 2.1 2.6 2.4 1.6.4 1.9 1.1 1.4 3.4-.7 3.6-.1 2.3 5.4-11.4 4.2-10.3 4.7-12.3 3.4-12.3-.5 0-4.9 2.2-10 4.7M1048.2 289.6c-5.2 14.1-8.1 22.8-7.7 23.2.2.2 3.8-.7 7.9-1.9 5.9-1.9 7.5-2.7 7-3.9-.3-.8-1.5-5.1-2.6-9.5-2.6-10.4-3.2-11.5-4.6-7.9M996.1 314.7l1 2.8-2.7-2.5c-2-1.8-2.6-2-2.1-.8.3 1 .2 2-.3 2.3-.6.4-1-.1-1-.9 0-.9-.3-1.6-.6-1.6-.9 0-38.7 19-39.7 19.9-.9.9 28.6 16.1 31.3 16.1 1.1 0 2.2-1.5 3.4-4.8l1.6-4.7-.5 5.4-.6 5.3 4.5-.6c2.6-.3 6.7-.9 9.2-1.2 2.6-.4 5.3-1.5 6.4-2.6 1-1.1 2.4-1.7 3-1.3 1.6 1 .7-1.9-3.1-10.4-1.6-3.5-2.8-6.6-2.6-6.7.2-.2 1.9 2.6 3.8 6.1 3.4 6.5 4.9 8 4.9 4.8 0-.9.3-1.4.6-1 .4.3 1.9 0 3.5-.9 1.6-.8 3.1-1.4 3.4-1.4.8.1 2.3-1.6 9.8-10.8 3.7-4.6 6.7-8.7 6.7-9.1 0-.5-5.3-1.3-11.7-2-6.5-.7-13.5-1.5-15.7-1.8-3.6-.6-3.8-.4-3.1 1.6.8 2.7-.4 2.7-5.7.1-2.3-1.1-4.3-2-4.5-2-.1 0 .2 1.2.8 2.7M948.4 342.2c1.1 11.2 1.5 15.2 2.2 21.3.4 3.3.7 6.6.7 7.2 0 .7.4 1.3.8 1.3 1 0 27.9-17.8 27.9-18.5 0-.3-.9-.1-2.1.5-1.1.6-2.5.9-3.2.6-.7-.2-.2-.8 1.1-1.1 1.2-.4 2.2-1.1 2.2-1.6s-6.8-4.3-15.1-8.4l-15.1-7.6zM992.7 352c-6 1-6.2 1.2-4.6 4.2 1.4 2.7 16 19.7 21.3 24.7 3.9 3.8 4.3 3.1 2.3-3.4-.8-2.8-1.7-3.9-2.8-3.7-1.9.3-2.8-1.4-4.1-7.8-1.1-5.8-1-12.1.4-13.7.8-1 .1-1.3-3.3-1.2-2.4.1-6.6.5-9.2.9M977.4 358.3c-15.6 9.8-24.4 15.8-24.4 16.5 0 .5 6.1 4.6 13.6 9.2 9.8 6 13.8 7.9 14.4 7 .5-.9.9-.9 1.4-.1.4.6.2 1.1-.4 1.1-2 0 0 2 4 4 2.2 1.1 4.1 2 4.3 2 1.1 0 0-7.2-3.8-24.5-3.4-16.2-3.6-17.3-2.2-17.9.7-.3.6-.4-.3-.4-.8 0-3.8 1.4-6.6 3.1"/><path d="M985.3 357.7c.4.6 1.8 7.1 3.1 14.5 2.7 14.5 4.3 19.9 5.4 18.1.8-1.2 10.2-3.4 10.2-2.4 0 1.2 4.5 1 6.3-.3 1.7-1.3 1.3-1.9-5.2-8.7-3.8-4.1-9.5-10.6-12.6-14.4-3.2-3.9-6.2-7.2-6.8-7.4-.5-.2-.7.1-.4.6M1070.2 380.7c.7 2.8-4.2 10-6.1 8.9-1.1-.7-1.8 2.9-2.6 13.9-.5 6.3-.3 8.6.4 7.5.5-.8 1.3-1.1 1.7-.7s1.2.3 1.9-.3c1.4-1.2 7.1.3 6.8 1.9-.2.6.2 1.1.7 1.1.6 0 1 .5 1 1.1 0 .5-.5.7-1.2.3-.7-.5-.8-.3-.3.5 1.3 2.2 9.7 5.2 13.2 4.8 2.3-.3 3.3-.1 3.3.9 0 .7-.6 1.1-1.2.9-.7-.3-1.8.6-2.5 2-1 2.2-.9 2.5.7 2.5 1 0 2.6.3 3.5.6 1.3.5 1.5 0 1.3-3.2-.1-2.2-.9-5.3-1.8-6.9-.9-1.7-2.7-5.6-3.9-8.8-1.4-3.4-3.5-6.6-5.2-7.8-1.6-1.1-2.9-2.5-2.9-3.2 0-.6.7-.2 1.5.9 1.3 1.7 1.3 1.5.1-2.1-1.7-4.8-5.9-12.9-5.1-9.8.5 1.8.3 2.2-1 1.6-1.3-.4-1.6-1.4-1.2-3.9.3-1.9.2-3.4-.4-3.4-.5 0-.8.3-.7.7M1050.4 387.8c-1.7 1.2-2.3 3.8-3 13l-.6 8.8 4 1.2c7.3 2.2 7.4 1.9 4.1-11.7-2.8-11.1-3.2-12.2-4.5-11.3M1019.7 391.7c1.9 2 5.9 6.7 8.9 10.4s5.8 7.1 6.4 7.4c.6.4 1-2.6 1-8.4 0-7.4-.3-8.9-1.4-8.5-.8.3-2.5-.1-3.8-.9-1.7-1.1-11.7-3.7-14.4-3.7-.1 0 1.4 1.7 3.3 3.7M1009.4 391.9c-1 1.6-2.6 3.2-3.7 3.5-1 .2-1.6.9-1.2 1.5.3.6-.2 1.1-1.2 1.1-1 .1-2.9.7-4.3 1.5-2.9 1.6-3.5 1.2 9.5 5.4 4.9 1.7 9.1 2.8 9.4 2.5.7-.6-2-11.5-3.7-15.1-1.9-4.1-2.6-4.1-4.8-.4M1054.2 427.7c-.6 1.5-2 5.5-3.2 8.8s-3.7 9.5-5.6 13.8l-3.6 7.8 2.1 6.1c2.4 7 2.7 10.1.5 4.8-1.4-3.4-1.4-3.2-.9 4 .3 4.1.9 8.8 1.4 10.5.9 2.9.9 2.8 1.1-1.5.2-6.3.5-8.5 2.3-16.5 2.4-10.6 7.7-39.8 7.3-40.2-.2-.2-.8.9-1.4 2.4M1055.6 435.7c-1.5 5.3-5.8 28.7-6.3 34.3-.4 5.2.1 8.9 2.6 18.7 1.7 6.8 3.1 13.8 3.2 15.5 0 2.8.2 3 .9 1.3.5-1.1.9-6.1.9-11.1.2-18.8 1.3-33.2 2.6-32.7.7.2 1.6 0 1.9-.6.4-.5 4-1.5 8.1-2.2s7.5-1.6 7.5-1.9c0-.4-3.9-2.8-8.6-5.3l-8.6-4.6.5 2.7c.3 1.5.9 4 1.3 5.6.5 2.1.4 2.7-.5 2.2-.6-.4-1.1-1.5-1.1-2.4s-.5-3.5-1.2-5.7l-1.2-4-.7 3c-.4 1.6-.4-.9-.1-5.8.5-8.1 0-11-1.2-7"/><path d="M1084.5 444.2c-18.2 1.1-21.8 1.6-20.9 2.9.3.6 4.4 2.9 9 5.1l8.3 4 4.8-2.8c2.6-1.6 5.3-3.1 5.8-3.4 2.4-1.2 9.5-6.1 9.5-6.5 0-.3-.3-.4-.7-.3-.5.1-7.5.5-15.8 1M1039.8 462.7c-.8 1-3.9 5.3-6.8 9.5-4.5 6.5-5.1 8-4 9.3 2 2.4 15 10.8 15.7 10.1.3-.3.1-2.4-.6-4.5-.6-2.2-1.4-8.8-1.6-14.7-.3-5.9-.6-10.9-.8-11-.2-.2-1.1.4-1.9 1.3M1059 489v19.3l5.4-4.9c3-2.7 5.4-5.6 5.5-6.5.1-1.5-1-4.7-4.4-12.4-.7-1.7-2.1-5.3-3.1-8-.9-2.8-2.1-5.4-2.6-6-.4-.5-.8 7.8-.8 18.5M543 536c2.5 2.3 7.1 6.1 10.2 8.5l5.6 4.4 4.7-3c2.5-1.6 5-2.9 5.5-2.9.6 0 1-.5 1-1 0-.6.8-1 1.8-1.1 4.5-.2-10.7-5-21.5-6.8-3.2-.5-7.1-1.2-8.8-1.6-2.9-.6-2.9-.6 1.5 3.5"/></svg>