<svg xmlns="http://www.w3.org/2000/svg" width="1706.667" height="960" viewBox="0 0 1280 720"><path d="M0 360v360h1280V0H0zM601.7 45.6c5.5 2.5 18.1 6.8 61.8 21.4 10.5 3.4 19.7 6.7 20.5 7.1 1.5.8 12 6.8 25.6 14.8 4.1 2.4 7.3 4.5 7.1 4.7-.2.3-6.8-3.2-14.5-7.7-7.8-4.4-15-7.9-15.9-7.7-2.1.4-3 6.7-3.2 22.5l-.1 10.1 3.3 1.9c1.7 1 6.6 3.4 10.7 5.2 4.1 1.9 11.3 5.3 16 7.6 4.7 2.2 9.3 4.4 10.2 4.8 1 .3-1.1-3-4.5-7.4-3.4-4.5-9.1-12.1-12.7-17-3.6-4.8-9.5-12.6-13.2-17.3-6.7-8.2-9.3-12.7-4.2-7 1.4 1.6 3.6 4 4.8 5.4 1.9 2.1 11.6 14.7 27.2 35.4 1.7 2.3 3.8 4.7 4.7 5.5.9.7 1.5 1.7 1.2 2.1-.3.5-.1 1.1.5 1.5.8.5 1.3-.4 1.2-2.5-.5-14.9-2.7-32-4.1-31.8-2.1.2-3.1-.4-3.1-2 0-1.1.3-1.3.8-.5.4.6 1.9 1.4 3.2 1.8 1.4.3 3 1.5 3.5 2.7.6 1.1 3 3.2 5.4 4.5 5.7 3.1 24.3 17.4 23.6 18.1-.3.3-1.5-.4-2.8-1.5-1.2-1.2-4.7-3.7-7.7-5.7s-7.5-5.2-10-7.1-5.7-4.4-7.3-5.6l-2.7-2.1.6 5.9c.3 3.2 1.2 9.6 2 14.2s1.4 9.4 1.4 10.7c0 3.2 2.6 3.1 12.7-.1 11.7-3.7 11.3-2.9-.7 1.3l-10.4 3.7-.5 7c-.6 10.2-.2 24.9.9 33.3.6 4 1 11.8 1 17.3v9.9l5.8.2c4.8.1 5.1.2 1.5.5-6.1.6-6.6 1.7-5.3 11.4.5 4.6.9 9.7.9 11.4-.1 2.7-.2 2.6-1-1-.4-2.2-.8-6-.9-8.5s-.5-5.4-1-6.5c-.9-2.3-.8-2.6-3.9 8-1.1 3.8-2.7 9.4-3.6 12.3-1.5 5.2-1.5 5.4.9 11 2.4 5.7 4 11.2 3.2 11.2-.2 0-1.4-2.9-2.6-6.4-2.6-7.8-4.2-9.5-7.3-7.7-1.8 1.1-2 1.1-.9 0 .6-.7 1.2-1.8 1.2-2.5s-4.2-4.7-9.2-8.8c-5.1-4.2-10.6-8.7-12.1-10.1-3.8-3.4-4.7-3.2-4.8 1.2 0 2.1-.2 5.4-.3 7.3-.2 1.9-.7 7.5-1.1 12.4l-.8 8.9 3.7-.7c2.1-.4 4.5-.9 5.4-1.2.9-.2-.2.5-2.5 1.6-2.4 1.2-4.3 2.6-4.3 3.3s2.2 3 4.7 5.2c2.6 2.2 6.3 5.4 8.2 7.1 2 1.7 6.8 5.2 10.6 7.7 10.9 7 16.5 11.2 18.3 13.8.9 1.3-1.8-.4-6.1-3.9-4.2-3.5-8.7-6.8-9.9-7.5-3.1-1.6-11.1-7.1-18-12.4-6.5-4.9-8.7-5.5-6-1.6 3.7 5.4 13.7 20.8 14.2 21.9.3.5 1.9 3.1 3.5 5.7l3 4.7h8c4.4 0 9.7-.5 11.8-1.1 3.6-1 5.8-.7 4.5.6-.3.4-5.4.9-11.4 1.2-9.6.6-11.1.9-13.2 3-2 2-2.3 2.1-2.2.6.4-3.3 0-4.1-2.2-4.7-1.6-.4-1.9-.8-1-1.4s.1-2.6-3-7.8c-2.2-3.8-4.5-7.1-5-7.2-.4-.2-.8-.8-.8-1.3 0-1.1-10.1-17.1-10.6-16.7-.1.2-.5 5.5-.7 11.9-.6 13.3-.2 14.2 6.7 16.5 2.5.9 4.8 2 5.2 2.5.7 1.2-.5 1.1-6.1-.6-3.2-.9-5.3-1.1-6-.5s-1.4.7-1.7.5c-.7-.7-18.5 3.9-25.5 6.5-2.9 1.1-6.5 2.2-7.9 2.4-3.8.7-4.5 1.8-3.8 5.4.6 2.7 1.2 3.2 5.2 4.1 2.7.5 5.5.6 6.9 0 1.3-.5 2.7-.8 3.1-.7 1.7.3 6.1-2.3 8.8-5.4 5.3-5.9 6.9-6.5 3-1.1-2.1 2.9-3.5 5.7-3.1 6.3.3.5 3.1 1 6.1 1s7 .7 8.9 1.5l3.5 1.4-.6-4.2c-.4-2.3-1.3-5.9-2.1-8.1-.7-2.1-1.3-4.6-1.2-5.5 0-.9.9.8 1.9 3.7 2 5.7 8 18.2 8.7 18.2.2 0 .1-.5-.3-1.1-.4-.7.2-.9 1.4-.7 1.3.2 3-.8 4.7-2.7 2.9-3.2 2.9-2.9.1 2.7l-1.9 3.6 3.8 3.4c2.1 1.8 4.3 3.9 4.9 4.7 2.8 3.6 10.1 10.1 11.2 10.1.8 0 2-1.4 2.9-3 2.2-4.2 2.8-3.8.8.6-1.4 2.8-1.5 3.7-.4 4.3.9.6.7 1-.8 1.4-1.2.3-2.1 1.3-2.1 2.2s-.7 3-1.6 4.7c-1.1 2.2-1.3 3.7-.6 5.2.5 1.1 1.5 3.2 2.1 4.6 1.6 3.4 1.1 14.6-.6 14.2-.7-.1-1.3.4-1.3 1 0 1-.3.9-.9-.1-.7-1-1.1-.9-2.2.6-.8 1.1-2.2 2.2-3.2 2.6-.9.4-2 1.5-2.4 2.4-.4 1-1.1 2.1-1.7 2.5-.7.5-.6.8.3.8 1.1 0 1.1.3.1 1.5-1.1 1.3-.5 1.5 4.8 1.5s6.1-.2 5.5-1.7c-.5-1.2-.2-1.5.9-1 1 .3 1.8-.1 2.2-1.1.3-.9 1-2.4 1.5-3.2s3-5.6 5.5-10.7c5.6-11.3 8.4-16.3 10.2-18.3 1.4-1.7.8-3.4-1.6-4.3-1-.4-.8-.6.8-.6 1.6-.1 2.2-.7 2.2-2.3 0-2.1 0-2.1 1.4-.2 1.2 1.5 1.7 1.7 2.7.6 2-1.9 3.4-1.4 1.6.6-2.3 2.5-2.1 6.3.4 10.9l2.1 3.8-2.5-2.7c-1.4-1.6-3-3.6-3.6-4.5-.8-1.6-1.2-1.5-3.2 1.1-1.2 1.6-5.6 9.7-9.8 18-4.1 8.3-7.7 15.4-7.9 15.8s.7 1.5 1.9 2.5c6.4 5.3 8.9 7.6 8.5 8.1-.3.3-2.4-1.2-4.6-3.2-4.9-4.4-7.7-4.7-8.6-.9-.3 1.6-1.2 4.8-2 7.2-1.7 5.5-1.8 9.1-.1 9.1 2.1 0 16-6 17.9-7.7 1-.9 1.8-2.2 1.8-3s.4-1.2.8-.9c.5.3 2.4-1 4.2-2.9 1.9-1.9 3.8-3.5 4.4-3.5.5 0 .3.6-.6 1.3-3.3 2.7-7 8.7-6.5 10.7.6 2.2-.3 2.6-2 .9-.8-.8-2.4-.4-6 1.4-2.6 1.4-6.9 3.3-9.5 4.1-2.6.9-5.6 2-6.5 2.5-1 .5-4.4 1.4-7.6 1.9-3.1.6-8.4 2.1-11.8 3.3-5.9 2.2-6 2.3-5.4 5.3.7 3.1.7 3.1-1 .8-.9-1.2-2-2-2.5-1.7-1.5 1-12 17.5-12 19 0 .7 1.6 1.9 3.5 2.5s3.7 1.6 4.1 2.1c.3.6-1.1.3-3.3-.6-2.1-.9-4.4-1.9-5.1-2.2s-1.9.3-2.7 1.3c-.8 1.1-1.5 1.4-1.5.9 0-.6.5-1.6 1-2.1 1.2-1.2-5-7.9-15-16.3-3.6-2.9-7.1-6.2-7.8-7.2-1.8-2.6-3.2-2.4-2.6.3 1.3 5.7 5.2 45 4.4 44.1-.4-.5-1.7-8.5-2.8-17.8-1.2-9.4-2.8-18.8-3.6-21-.9-2.2-1.5-5.2-1.6-6.8 0-2.3-.4-2.7-2.9-2.7-1.7 0-3.2.4-3.5.9s-1.6.7-2.9.4c-2.2-.5-2.2-.5-.2 1 1.1.8 2.3 1.3 2.7 1.1.5-.3.8.2.8 1 0 .9.5 1.6 1 1.6 3.7 0 5 2.1 3.1 4.7s-3.7 2.3-9.3-1.5c-2.6-1.7-3.8-3.2-3.8-4.8 0-2.4-.2-2.4-9.2-2.3-5.1.1-10.6.4-12.2.8l-2.9.6 4 5c2.2 2.7 7.5 8.3 11.9 12.4 4.3 4 8.6 8.4 9.4 9.6 5.9 8.7 19.6 21.5 23 21.5 1 0 3.1-2.1 4.9-4.7 1.7-2.7 3.1-4.2 3.1-3.4 0 .7-1.3 3.3-2.9 5.7l-3 4.3 3.2-.5c1.8-.3 5.8-1.5 9-2.6s6-1.8 6.3-1.6c.2.3-3.6 2.1-8.7 3.9-5 1.9-9.4 4-9.7 4.8s.3 2.2 1.4 3.1c1 .9 4.4 4.3 7.4 7.5 6.6 7.1 3.6 5.3-3.7-2.2-3-3.1-6-5.3-7.3-5.3-1.2 0-1.8.4-1.5 1 .6 1-.7 6.4-2.5 10.5-.5 1.1-2 6.3-3.4 11.5s-2.8 10.3-3.1 11.3c-.6 1.5-.4 1.6 1.9.7 1.5-.5 7.5-3.5 13.4-6.7 5.9-3.1 11.9-6.3 13.5-7 3.3-1.7 3.3-2 .5-5-1.2-1.3-1.7-2.3-1.1-2.3s1.6.7 2.3 1.5c1.3 1.6 4 2.1 4 .7 0-.4 1.2-2.1 2.6-3.7l2.6-3-2.1 3.8c-2.5 4.6-2.5 4.7-.3 4.8 1.2 0 1.1.3-.7 1-1.3.5-2.1 1.5-1.8 2.3.4 1-.5 1.3-3.2 1.3-2.2 0-5.3 1-7.7 2.5-2.1 1.4-8.3 4.8-13.6 7.7-5.4 2.9-9.8 5.7-9.8 6.2s-.6.9-1.3.9-3.8 2.1-6.8 4.8c-2.9 2.6-7.2 6.1-9.4 7.7s-4.7 3.7-5.6 4.7c-2.1 2.3-2.5 2.3-8.5-.6-20.3-9.7-22.6-10.7-23.7-9.8-.7.5-4.1 2-7.7 3.2-3.6 1.3-7.1 2.8-7.7 3.3-.8.6-1.8.6-2.5 0s-4.9-2.3-9.3-3.8l-8-2.8-7.6 3.7c-4.2 2-9.3 4.7-11.3 6.1-3.6 2.5-7.3 3.4-6.1 1.6.3-.6-2-3.8-5.1-7.3s-6.6-7.5-7.7-9c-1.2-1.6-2.6-2.8-3.3-2.8s-1.4-.4-1.6-.9c-.3-1-14.7-10.4-23-15-3.5-2-6-4.7-10.2-11.1-3.1-4.6-5.6-8.9-5.6-9.5 0-.5 1.6 1.4 3.5 4.3 6.3 10 8.4 11.2 10.9 6.5.8-1.6 3.1-4.6 5.1-6.8 2.8-3.1 2.5-2.4-1.4 3.1-2.8 4-5.1 7.8-5.1 8.5 0 1.4 5.6 5.3 18.9 13.1 3.5 2.1 6.6 3.8 7 3.8.3 0 2.8-4.3 5.5-9.5l4.9-9.5-8.9-8.5c-4.9-4.7-9.4-8.5-10-8.5-.7 0-1.4-.7-1.7-1.5-.9-2.2-7.6-6-15.2-8.5-8.8-2.9-21.4-7.7-23.9-9.1-1.3-.8-2.1-.8-2.9 0-1.8 1.8-2.4 1.3-3.1-2.5-.4-1.9-1-4.3-1.3-5.2-.5-1.2.2-.9 2 .8 1.5 1.4 2.7 3 2.7 3.7 0 .9 9.6 5.3 11.7 5.3.7 0 17.7 6.7 22 8.7s6.3 1.3 3.7-1.3c-1-1-3-3.5-4.4-5.4-2.1-3-6.7-9-12.6-16.3-1.3-1.7-1.6-1.6-5.5.4-5.1 2.6-6.2 1.9-1.4-.9 1.9-1.2 3.5-2.8 3.5-3.5 0-1.8-6.9-14.4-10.5-19.1-1.5-2-3.4-3.6-4.1-3.6-1.6 0-12.9-3.8-15.7-5.2-1-.5-1.5-1.4-1.1-1.9.4-.6 1.5-.4 2.9.5 2.5 1.7 11.4 4 12.2 3.2.6-.6-9.8-13.9-14.5-18.5l-3.4-3.4.5 5.4c.5 4.6.5 4.8-.3 1.4-2.2-10.5-4.1-21.7-3.7-22.1.3-.3 1.3 1.6 2.3 4.3 1 2.6 1.8 4.9 1.9 5.1.3.4 7.3 1.1 16.5 1.6 4.7.2 7.7.2 6.7-.1s-1.6-1.1-1.4-1.8c.4-.8-.9-1.7-3.4-2.4-2.1-.7-3.9-1.6-3.9-2 0-.5-1.8-2.6-3.9-4.8-3.9-3.9-7.1-10.6-7.1-15 0-1.2-.4-2.4-.9-2.7-.4-.3-1.1-2.7-1.5-5.3-.6-4.7-2.1-7.5-4.1-8.4-.6-.2-.7-2.1-.4-4.4.3-2.2.7-3.2.8-2.3 0 1 .5 1.8.9 1.8.5 0 4.3-2.9 8.5-6.5 7.3-6.2 9.2-9.4 6.7-11-.5-.3-1-1.3-1-2.2 0-1.2.3-1.3 1.4-.4 1.8 1.5 3.3-.9 4.6-7.2l.8-4.2.1 5.2.1 5.1 6.3-1.9c3.4-1 7.9-2 9.9-2.1 2.1-.2 3.8-.4 3.8-.5 0-.7-8.4-11.3-8.9-11.3-.4 0-2.4-2.2-4.5-4.8l-3.8-4.9-9.4 3.1c-8.7 2.9-9.4 3.3-9.4 5.8v2.7l-2.2-2.2-2.3-2.2 3.5-1.3c1.9-.8 6.9-2.8 11.2-4.5 8.9-3.7 9.3-4.5 10.3-18.7.4-4.7.9-9.6 1.1-11l.6-2.5-2.6 2.4c-3.2 3.1-4.3 2.3-1.6-1.2 1.1-1.4 2-3 2-3.5 0-1.4-5.6-5.4-11.2-8.1-4.6-2.2-7.9-4.9-4.1-3.3 3.8 1.5 10.7 5.5 12.1 6.8.7.8 1.9 1.4 2.7 1.4 1.3 0 1.7-2.4 3.1-22.3 1-13.2 2.2-9.1 1.5 5l-.6 12.2 2.3-2.7c1.2-1.5 3.4-5.1 4.9-8 1.4-2.9 2.9-5.5 3.4-5.8s.9-1.7.9-3.2c0-2.2-.9-3.2-4.2-5-2.4-1.2-5-2.2-5.8-2.2s-2.5-1.1-3.8-2.4c-2.1-2.3-2.1-2.4-.2-1.9 1.6.4 2 0 2-2.1 0-1.5.4-2.5.9-2.2 1.1.7 1.7-.9 8.3-20.8 2.9-8.7 5.4-15.4 5.6-14.7.2.6-1 5-2.6 9.8-1.6 4.9-3.8 11.5-4.7 14.8-1 3.3-2.6 7.8-3.6 9.9-1.1 2.2-1.9 4.5-1.9 5.1 0 1.6 3.9 4.8 8.2 6.7l3.7 1.7.5-5.2c1.5-14.2 2.7-48.7 1.7-48.7-.4 0-9.3 7.4-14.9 12.5-5 4.5-5.4 5.6-3.8 12.7 2 9.2 2.8 15.6 1.7 13.9-.5-.8-1.5-5.2-2.1-9.8-.7-4.6-1.6-8.5-2-8.8-.5-.3-4.2 3.2-8.4 7.7s-7.6 7.7-7.6 7.2 3.6-4.7 8-9.3c4.4-4.7 8-9.3 8-10.3 0-1.1.5-1.6 1-1.3 1.6 1 21-17.5 21-19.9 0-.8-3-3.2-6.7-5.4-3.8-2.2-7.7-4.8-8.8-5.6-1.1-.9-4-3.1-6.4-4.9-2.4-1.7-5.2-3.8-6.2-4.6-1.7-1.2-1.9-1.1-1.5 1.5 1 7.5 2.8 17.4 4.2 22.7.8 3.3 1.4 6.3 1.2 6.9-.2.5-1.4-3.5-2.7-8.9s-2.9-11.8-3.6-14.3l-1.2-4.5-1.6 3.5-1.5 3.5.1-7.1c.1-4 .5-7 .8-6.8.8.4 4.9-5.2 5-6.8.1-2 3.7-9.5 3.8-8 .1.8-.6 2.9-1.5 4.7-.9 1.9-1.4 4.1-1.2 5 .2 1.4 1.2 1.2 6.1-1.4 3.1-1.7 5.7-3 5.7-2.8s-2.1 1.9-4.7 3.7c-6.6 4.6-7.5 5.8-6 8.1.6 1 1.7 1.9 2.4 1.9s1.3.4 1.3.8c0 .5 3.9 3.5 8.8 6.7 4.8 3.2 9.9 6.7 11.4 7.7s2.9 1.4 3.2 1c.7-1.2 2.6-12.5 3.6-21.2.4-4.1 1-8.2 1.3-9 1.2-3.3 1.7-12 .8-12-.6 0-4.3 2.2-8.3 4.9-7.8 5.1-11.2 7.1-12.4 7.1-.5 0 2.5-2.2 6.6-5 16.9-11.3 14.8-8.4 20.5-28.3.9-3.2 1.9-5.6 2.2-5.4.2.3-.9 5-2.6 10.5-3.6 11.6-3.8 13.7-1.4 12.8 1-.4 5.1-1.1 9.3-1.6 15.4-2 29-4.3 29-5 0-.8-7.7-7.6-16-14-3-2.4-7.4-6.1-9.8-8.2l-4.3-3.9-3.8 3c-2 1.6-5.1 4.9-6.7 7.2s-4.2 5.6-5.8 7.3-5.1 6-7.7 9.6c-6 8-5.8 7.7-9.3 12-5.3 6.5-11.8 13.1-12.4 12.5-.3-.3 1.2-2.3 3.5-4.4 2.2-2.1 6-6.5 8.5-9.8 4.5-5.9 6.1-7.9 10.9-13.7 8.6-10.3 11.9-14.9 11.9-16.2 0-.9-.5-1.2-1.2-.8-.8.4-1 .3-.5-.2s1.2-.9 1.5-1c.4 0 2.9-2.1 5.5-4.7 2.8-2.7 5.4-4.4 6.3-4 .7.3 1.1.9.8 1.5-.8 1.3 2 4.3 8.6 9.1 3 2.2 5.7 4.4 6 4.7.3.4 4.1 3.4 8.4 6.8l8 6.1 2-2.3c7.8-8.7 12.9-14.3 20.5-22.6 4.8-5.2 12.9-14.3 17.9-20.2 5-5.8 9.6-10.9 10.2-11.3.5-.3 1-1.3 1-2.1 0-1.2-.8-1.4-3.2-1-3.2.5-3.2.5.4-.7 2-.7 4-1.5 4.4-2 1.2-1.2 3.1-.8 9.1 1.9M937 128.1c0 1.8 3.8 1.5 15.6-1.2 7-1.6 13.2-2.8 13.7-2.6.5.1-4.4 1.6-11 3.1s-12.5 3.1-13.2 3.5c-1.4.9-.3 2.4 12.9 17.6 5.3 6 11.3 13.1 13.4 15.7 2.1 2.7 4.2 4.8 4.6 4.8s1-7.9 1.3-17.6c.5-15.9 1-19.6 2-18.3.2.2 0 5.1-.5 10.9s-.7 13.9-.6 18c.3 7.5.3 7.5 3 7.3 2.4-.1 28.1-7.3 33.1-9.2 1.6-.5-.5-3-12-14.1-7.6-7.3-14.4-14.3-15.2-15.4-1.4-2.1 3.6 2.5 20.7 18.9 5.1 5 10 9.3 11 9.6.9.4 5.5 1.2 10.2 1.8s9.6 1.4 11 1.8c2.1.6 2.3.4 1.3-.9-.7-.8-1-1.7-.7-2s-1-1.6-2.8-2.9c-4-2.8-31.3-29.7-30.7-30.3.2-.2 8.4 7.4 18.3 17 9.8 9.6 18.2 17.4 18.7 17.4s.9 1 .9 2.3.4 2.7.8 3.3c.5.5 1.5 2.5 2.2 4.4s2.2 5.4 3.2 7.8c1 2.3 1.6 4.7 1.3 5.2-.3.4 1.3 7.1 3.5 14.7 2.3 7.6 5.2 18.3 6.6 23.8 1.3 5.5 3.5 13.5 4.9 17.7 1.4 4.3 2.6 8.9 2.7 10.2.3 3.7 1.5 2.2 2.3-3 .6-4.4.1-6.8-4.1-20.2-1-3.1-1.1-4.8-.4-6 .9-1.4 1-1.3.4.7-.3 1.4-.2 2.1.3 1.8.5-.4 1-.1 1 .6.1.7 1.1 4.3 2.3 8.2 3.8 12.7 5 17 4.9 18.5 0 .8-.6-.1-1.3-2l-1.3-3.5-1.3 5.9-1.4 5.8 3.5 2.9c1.9 1.6 4 2.9 4.7 2.9.6 0 1.2.7 1.2 1.6 0 1.1-.9.8-3.7-1.5-2-1.6-4-2.8-4.5-2.5-.4.3-.7 11.8-.7 25.6l.1 25.1-2.7 3.1c-1.5 1.7-3.1 4.1-3.6 5.5-1.4 3.5-1.8 2.4-2.3-6.4l-.4-8 1.2 6 1.2 6 2-3.2c1-1.8 2.2-3.3 2.7-3.3.4 0 .7-.9.7-2s-.4-2-.8-2c-.5 0-1.4-1.1-2-2.4-1.8-3.9-5.3-7.5-6.8-6.9-2.1.8-7.2 11.5-5.7 12 .6.2 2.4 2.1 3.9 4.1l2.7 3.7-4.1-3.9c-4.5-4.3-5-4.3-17.7-1l-7 1.9.1 3.5c.1 2.5 0 2.8-.3.7-.2-1.5-.7-2.7-1.1-2.7s-2.7 3-5.2 6.7c-6.7 10-6.6 9.6-3.9 8.7 2.6-.8 5.1-1.2 8.7-1.3 1.9-.1 2.2-.7 2.3-3.9l.1-3.7 1.1 3.2c1.4 3.6 2.7 5.3 2.7 3.4 0-.8.7-1.1 1.5-.7 1.7.6 5.1-3.7 9.9-12.6 1.7-3 3.1-4.7 3.4-3.9.2.7 0 1.6-.6 2-1 .6-8.2 14-8.2 15.2 0 .7 6.3 3.9 7.7 3.9.6 0 1.5-1 2.1-2.3 1-2.2 1.1-2.2 1.1.5.1 4.3 1.8 3.3 5-3 3.5-6.7 4-6.5.9.4-1.1 2.7-2.3 6-2.4 7.4-.3 2.2.1 2.6 2.6 2.8 2.6.2 4.5-1.3 4.9-4 .2-.9.5-2.1 2-6.8 1-3.4 1-3.3.7 1.7-.3 5.5.3 6.4 2.4 3.8.7-.8 1.7-1.5 2.1-1.5 1.4 0-1.8 5.7-3.5 6.3-3.1 1.2-4.6 5.1-3.8 9.6l.7 4.4 2.4-5.4c1.3-3 3.1-7 4.1-8.9 1.8-3.6 3.5-10.7 3.1-12.5-.2-.6-.4-1.9-.6-3-.1-1.1-1-3.7-1.9-5.9-1-2.1-1.5-4.1-1.2-4.4.3-.2.8.1 1 .9.3.8 1.1 2.7 1.8 4.4l1.2 3 .4-3.3c.2-1.8.8-3 1.3-2.7.5.4 1-5.3 1-14.2.1-8.1.5-18.2.9-22.3l.7-7.5.1 10.5c.1 5.8-.3 17.7-.8 26.5-.5 9.8-.5 16.1.1 16.3 1.4.5 1.1 1.8-1.2 7-1.6 3.5-2.4 8.1-3.2 17.9-.9 12.7-.8 13.6 1.4 19.5 1.2 3.5 3.5 8.8 5.1 11.9 1.5 3.1 4.3 10.3 6.2 16 4.1 12.4 8.5 24 9.5 25.4.5.5 1.1 2.3 1.5 4 .4 1.6 1.9 6 3.3 9.7 2.2 5.7 3 6.8 5 6.8 1.2 0 2.3-.2 2.3-.5s-3.9-8.4-8.6-18c-4.8-9.7-8.5-17.8-8.2-18 .5-.6 14.6 27.8 17.3 34.8 1.4 3.7 1.5 5.2.7 7-.9 1.9-1 1.7-.5-1.2.5-3 .4-3.3-1.1-2.8-1 .4-2.2.7-2.7.7s-.9 1.5-1 3.2c0 3-.1 3.1-.9 1-1.2-2.8-1.8-2.8-6.1.3-3.3 2.5-13.2 8.5-18.8 11.4-1.4.7-3.7 2.3-5.1 3.5l-2.5 2.1 2.5-2.9 2.5-2.8-3.5.6c-8.4 1.6-13 2.8-13 3.5 0 1.4 7 4.3 9.1 3.8 1.6-.4 1.9-.3 1 .6-1.7 1.7-1.3 10.3.9 21.1l2 9.7-2.7 2.4c-1.6 1.3-5.1 4.3-8 6.7s-5.2 4.6-5.3 5c0 .3 1.7 1.2 3.8 1.9 2 .6 4.1 1.8 4.5 2.6.7 1.2 1.2 1.2 2.9-.4 1.1-1 3.1-3.7 4.5-6.1s2.7-4.1 3-3.8c.7.7-1.6 4.6-5.8 10-2.2 2.7-3.9 5.2-3.9 5.6 0 .5.7 3.6 1.6 7 1.5 5.9 1.4 9-.3 9-.4 0-.8-1.7-.9-3.8-.1-5.4-2.8-11.2-5.3-11.2-2.8 0-3.1.9-1.7 6.4.9 3.5 1.9 5.2 3.4 5.7 3.4 1.3 2.6 1.8-1.5 1.2-4.5-.7-5.2-1.1-3.5-2.2.9-.6.8-1.8-.4-5.7-.9-2.7-2-5.3-2.4-5.7-.8-.9-6 5.2-6 7 0 .6 1.7 1.8 3.8 2.7 3.4 1.5 3.4 1.6.7 1.2-1.6-.3-3.9-.8-5.1-1.2-1.6-.4-4.1 1.2-11 7.2-4.9 4.2-9.2 8.2-9.6 8.8s-1 .7-1.4.3.6-1.7 2.2-2.9c4.1-3.3 15.9-13.9 16.2-14.7.3-.9-16.2-13.1-17.7-13.1-1.6 0-1.4-1.6.4-3.4.9-.8 4.3-5.2 7.5-9.6 3.3-4.4 6.3-8 6.6-8 .8 0-1.9 4.2-6.1 9.5-1.7 2.2-3.9 5.2-4.8 6.7l-1.7 2.8h3.2c6.6-.1 20.3-3.4 20.6-5 .5-3.2-10.1-15.2-18.8-21.2-10.2-7.1-12-7.9-14-6.4-.8.6-.4-.3.8-1.9 8.6-11.7 16.2-22.3 16.2-22.9 0-.3-2.2-2-5-3.7-2.7-1.7-5-3.3-5-3.5 0-.6.5-.3 6.1 3.2 4.1 2.5 4.9 2.3 4.9-1.5 0-2 .2-2.3 1-1.1.5.8 1.1 1.2 1.3 1 .3-.3 2.8-5.9 5.7-12.5 2.8-6.6 6.5-14.9 8.1-18.4s2.9-6.9 2.9-7.6c0-.8-2.1-1.8-5-2.4-7.7-1.7-8-1.6-8 2.6 0 2.8-.3 3.4-1 2.3-.5-.8-1-2.6-1-3.9 0-2.2-.3-2.3-3.7-1.8-4.5.8-6.5 3-5.7 6.6.3 1.9 0 1.6-1.1-1-1.5-3.3-2.1-3.7-9.1-5.3-4.1-1-8.1-1.5-8.9-1.2s-1.5.1-1.5-.4c0-1.3-18.5-7.1-24-7.6-2.7-.2-8.9.7-15.2 2.2-6 1.4-11.3 2.4-12 2.2-.6-.2 3.4-1.4 8.8-2.7 5.5-1.2 10.6-2.6 11.3-3 1.4-.9-2-3.3-24.6-17.5-11.3-7.1-14.7-9.8-10.7-8.2.9.3 9.2 5.3 18.5 11.1s17.2 10.5 17.5 10.5c.4 0 0-.8-.7-1.7-1.2-1.4-1.2-1.6 0-.8 1.8 1 .9-7.2-2.5-23.7-1.3-6.5-2.5-12.9-2.6-14.3-.3-3.1-.6-3.1-5.2 0-2 1.4-3.9 2.5-4.1 2.5-.4 0-15.3 9.5-20.8 13.3-.9.6-1.9 1.8-2.2 2.7-.2.8 1.3 8.5 3.3 17 3.5 14.2 3.9 15.5 6.2 16l2.5.6-2.4.6c-1.3.4-2 1.1-1.6 1.7.3.6.3 1.1-.2 1.1-.4 0-2.8-8.4-5.3-18.6l-4.4-18.6-4.6.6c-2.5.3-12.8 2.1-23 4.1-10.2 1.9-19.4 3.4-20.5 3.4-2.1 0 6.3-1.8 30.3-6.5 7.8-1.5 14.2-3.1 14.2-3.5 0-.5-1.4-1.5-3-2.4-1.7-.9-12-6.9-23-13.5-11.1-6.6-20.7-12-21.5-12s-1.9-.9-2.5-1.9c-1.5-2.9-1.2-3.6.8-1.9.9.9 6.9 4.5 13.2 8.1s14.2 8.1 17.4 10.1c3.2 1.9 6.3 3.3 6.7 3 .5-.3.9.1 1 .8 0 .7.4.4.9-.7.8-1.8 1-1.5 1.4 1.7.1 1 8.1 6.5 9.8 6.7.3.1.5-1.6.3-3.7-.2-2-.7-9.9-1.1-17.6-.6-12.1-1-14.1-2.8-16.1-1.3-1.4-9.7-5.1-21.8-9.6-10.9-4.1-19.4-7.5-18.9-7.7.4-.1 3.3.7 6.2 1.9 8.6 3.3 35.1 12.9 35.9 12.9.4 0 1-5.5 1.4-12.3 1-18.6 1.7-28.9 2.1-31.7.2-1.4.9-9.9 1.5-19s1.5-21.5 2-27.5c.4-6.1.6-11.2.4-11.3-.1-.2-7.8 4.7-17.1 11-9.2 6.3-23.3 15.9-31.2 21.2-7.9 5.4-14.1 9.3-13.7 8.8.4-.6 4.4-3.6 8.9-6.6s12.5-8.4 17.7-12.1c5.2-3.6 13.1-9.1 17.5-12 4.4-3 8.9-6.2 10-7.2s3-2.6 4.3-3.5c2.3-1.6 2-1.7-9-4.3-12.8-3-43.5-9.6-67.4-14.6-12.3-2.5-16.4-3.7-17.3-5.1-1.1-1.7-1-1.8.7-.9 1.6.9 3.9-2.1 20-26.2 10-15 18.2-27.5 18.2-28 0-.4-4.8-.7-10.7-.8-6 0-11.7-.4-12.8-.9-1.3-.5 2.7-.9 10.8-.9 7-.1 12.7-.4 12.7-.9 0-.4-.8-1.2-1.7-1.8-2.7-1.7-18.4-15.4-17.7-15.4.6 0 18.3 13.9 21.3 16.8.7.7 2.1 1 3 .7.8-.3 10.1-3.7 20.6-7.5 28.5-10.2 27-9.4 19.4-11-4.3-.9-4.3-.9 1.5-.5l5.8.3-3.8-4-3.9-4.1 4.3 3.3c2.3 1.8 4.2 3.7 4.2 4.1m-525.1 2.8c-16.8 13.3-30.5 24.4-30.7 25.1-.2.4 5.5.7 12.5.5 10.3-.3 11.5-.2 5.8.5-3.8.4-9.8.8-13.2.9-3.5 0-6.3.3-6.3.6 0 .5 1.5 3.2 11.4 20.5 1.8 3 5.3 8.9 7.8 13s5.5 9.5 6.7 12l2.2 4.5-2.3-2.9c-2.4-3.1-3.5-4.9-18.6-30.1-8.2-13.8-11.6-18.6-9.8-13.9.3.8.2 1.3-.2 1-1.2-.7-11.5 13.1-10.7 14.4.4.6.1.9-.7.8-.7-.2-1.4.7-1.6 1.9-.2 1.3-.8 2.3-1.4 2.3-1.1 0-5.4 5.1-5.1 6 .1.3-.7 1.4-1.8 2.6-1 1.1-1.7 2.3-1.3 2.6.3.4 0 1.6-.6 2.8-1 1.8-1.4 2-2.1.9-.6-1-1-.9-1.5.6-.4 1.1-1.3 2.4-2 3-3.2 2.7-8.3 10.7-7.8 12.3.4 1.2.3 1.3-.3.4-.7-.9-2.4.8-6.4 6-3 3.9-6 8.2-6.6 9.4l-1.3 2.2 5.7-1.5c6-1.5 43.1-9.3 44.7-9.3 3 0-1.8 1.3-16.4 4.4-34.1 7.4-34.9 7.6-35.5 9.5-.3 1-.1 11.5.5 23.2.5 11.8.9 26.6.8 32.9-.1 9.7-.2 8.3-1-8.5-.4-11-1.2-25.6-1.6-32.5l-.8-12.5-17.7 35.6c-9.7 19.6-17.7 36.2-17.7 37 0 1.3 36.2 22.9 38.3 22.9.4 0 .7-1 .7-2.3 0-1.2.5-2.9 1.1-3.7.7-1.1.9-.5.6 2.3-.3 2-.1 3.9.3 4.2.4.2 3.6-.7 7-2.1s6.4-2.3 6.6-2.1c.3.2-2.2 1.4-5.5 2.7-7.1 2.6-8.1 3.6-8.6 8.7-.2 2.1-1.3 9.9-2.4 17.3s-1.8 13.6-1.6 13.8c.4.4 15.9-8.3 28-15.8 9.5-5.9 17.1-10 18.6-10 .7 0-2.7 2.3-7.6 5.1-5 2.8-11.7 6.8-15 8.8-3.3 2.1-9.7 6-14.2 8.7-4.6 2.7-8.3 5.2-8.3 5.6 0 .3 2.4 1.1 5.3 1.7 12.4 2.6 15.7 3.4 15.3 3.8-.3.4-14.1-2.2-21.4-3.9-1.7-.4-9 3.7-24.2 13.7l-16.5 10.8 3.5 1.3c1.9.7 3 1.3 2.3 1.3-.6.1-2.3-.3-3.8-.9-2-.8-2.7-.7-3.2.6s-.7 1.3-1.4.2c-.7-1-3.4-.4-13.6 3-12.5 4.2-17.8 5.4-11.8 2.8 2.5-1.1 3.3-2.4 4.8-7.7 3.2-11.1 3.1-10.6 1.4-8.9-.8.8-4.2 5-7.6 9.3-3.3 4.3-6.1 7.5-6.1 7.1 0-.9 9.6-14.1 12.9-17.7l2.5-2.7-3 .1c-1.6 0-5.1.8-7.9 1.8l-5 1.8v8.9c0 8.5.1 8.9 2.3 9.2 2.6.4 2 2.2-.8 2.2-1 0-2 .3-2.2.8-.1.4-1.9-.1-3.8-1.1l-3.5-1.9 3.3.6 3.2.6v-8c0-4.4-.3-8-.6-8s-1.4 2-2.5 4.5c-1.1 2.4-2.4 4.7-2.9 5s.4-2.6 2.1-6.6c3.2-7.6 3.2-9.7 0-5.8l-2 2.4-.1-2.3c0-1.5-.4-2.1-1.1-1.6-.8.5-1 4.5-.6 13.3.4 9.2.3 11.9-.5 10.1-.6-1.4-1-4.5-.9-7s-.1-8.2-.5-12.7c-.7-8.6-2.1-10-4.3-4.5-1.6 3.9-4.1 15.2-4.1 18.5 0 2.4.3 2.7 2.8 2.2 2.1-.4 2-.2-.6.7-2.8.9-3.2 1.5-2.7 3.2.4 1.2.8 3.9 1 6.1.1 2.2.8 7.4 1.4 11.5 3.6 22 3.9 29.4.6 13.5-1.7-7.8-2.3-9.6-2.2-6.3.1 3-.2 4.8-.9 4.8s-1.7 1.9-2.3 4.2c-1.1 4.4-3.1 8.2-3.1 6.2 0-.6.7-3 1.5-5.3 1.4-4.2 1.4-4.2-.8-3.5-3.8 1.1-16.9 7.5-16.4 8 .2.3 3.7 1.1 7.8 2 4.1.8 8.2 1.7 9.2 2 1.1.4 2-.2 2.5-1.5.4-1.1.6 8.6.5 21.6-.2 14 .1 23.3.6 22.7.5-.5 2.2-6.3 3.8-12.9 2.1-9.2 2.8-14.2 2.7-21.5-.2-10.2.1-10.6 1.4-2 .9 5.4.9 5.5 2.1 2.6.6-1.6 1.4-2.6 1.7-2.4.3.3-.3 2.4-1.2 4.7-1.5 3.8-1.5 4.8 0 12.6 1.8 10 6.6 20 12.9 27.2 2 2.2 2 2.2-.4 3.2-1.3.5-4.5 2.7-7 4.8s-5.6 4.5-6.9 5.4c-2.2 1.5-2.3 1.8-1 3.4 1.2 1.5 10.2 9.3 16.8 14.6.7.6 1.1 1.3.8 1.6s-4.3-2.7-8.8-6.8c-12.7-11.2-11.1-10.3-15.2-8.4-2 1-3.6 2-3.6 2.4s-.9.7-1.9.7c-1.5 0-1.7-.3-.9-1.3.6-.7 1.8-1.3 2.7-1.3 2.5-.1 8.2-5.7 7.5-7.5-.4-1 0-1.5 1.1-1.5.9 0 1.4-.4 1.1-.9-.8-1.2 3-2.1 4.2-.9.6.6 2.5 0 5.2-1.8 4.1-2.8 4.2-2.9 1.9-3.5-2.3-.7-2.3-.7.4-.8 1.5-.1 2.7-.3 2.7-.6 0-.6-11.1-18.5-11.5-18.5-.2 0-1.7 2.5-3.4 5.5s-3.3 5.5-3.6 5.5c-.7 0 2.2-5.7 4.7-9.2 1.5-2.2 1.7-3.7 1.2-8.3-.4-3-1-5.7-1.3-6-.4-.2-1.8 4-3.1 9.3s-2.9 11.1-3.6 12.9c-1 2.6-1 3.1.1 2.7.9-.4 1.2 0 .8 1.4-.3 1.4.1 2.2 1.4 2.5 1 .3.2.5-1.7.4-3.2-.2-3.5-.5-3.6-3.2 0-1.7-.2-11-.4-20.8-.2-9.7-.7-17.4-1.1-17-.3.5-2.8 6.2-5.4 12.8s-4.9 12.3-5.1 12.7c-.2.3 2.4 3.4 5.7 6.7 3.4 3.4 5.6 6.1 4.9 6.1s-3.9-2.7-7.1-6l-5.8-6.1 2.1-5.7c1.2-3.1 2.7-6.3 3.5-7 .7-.7 1.3-1.8 1.3-2.4s1.4-4.7 3.2-9c3.9-9.9 3.5-10.5-8.5-12.2-4.7-.6-8.9-1.4-9.3-1.9-1-1-11.4-.9-11.4.1 0 .5 1.9 1.5 4.3 2.2 2.3.8 5.2 2 6.4 2.7 1.1.8 3.6 1.5 5.5 1.7 3.9.3 7 1.5 8 3 1.8 2.6.8 11.9-1.8 17.3-1.5 2.9-2.9 5.2-3.1 4.9-.2-.2.5-3 1.5-6.2 3.1-9.4 3.4-13.9 1-16.1-1.6-1.4-2.2-1.5-2.5-.5-.4 1.1-.9 1-2.6-.1-1.2-.8-3.5-1.7-5.2-2.1-4.6-1.1-18.2-7.8-16.8-8.3.8-.3.6-1.6-.9-4.4-1.5-3-2.3-3.7-3-2.7-.5.8-.6.2-.2-1.6.5-2.2.4-2.7-.6-2.1-.9.5-1 .2-.5-1.4.4-1.4.2-2.1-.7-2.1-.8 0-.4-.8.9-1.8 2.5-2 11.6-19.9 10.8-21.2-.3-.5.1-2.2 1-3.7 1.6-2.7 1.6-2.4 0 2.2-.3 1.1.3.4 1.4-1.6 1.1-1.9 2.9-6.3 4-9.7 1.2-3.4 3.6-9.5 5.5-13.5 1.8-3.9 5.1-11.3 7.2-16.2l3.9-9-.2-12.5c-.2-6.8-.7-14.9-1.3-18-.9-4.8-.7-18 .5-41 .2-3 .4-10.2.5-16 .1-6.1 1.1-14.3 2.2-19.5 2.8-12.5 6.8-26.8 7.8-28 .5-.6 1.2-2.6 1.5-4.5 1-5.9 4.6-18.4 5.7-19.5.6-.6.7-.4.3.7-.4 1-.3 1.8.3 1.8s.8.9.5 2.1c-.4 1.6-.8 1.7-1.4.7-.6-.9-.9-.2-.9 1.9 0 4.4 0 4.5-1.3 6.8-.5 1.1-1.1 2.9-1.3 4-.3 2.9-3.5 14.8-4.2 16-.4.5-.8 1.9-.9 3-.2 1.1-1 3.4-1.8 5.2-.9 1.8-1.8 5.3-2 7.8-.3 2.6-.7 5.1-1 5.5-.3.5.3 1.1 1.2 1.3 1.4.4 1.3.5-.4.6-2.2.1-2.3.5-2.3 9.4 0 5.2-.3 14.9-.7 21.6-.6 11.7-.5 12.1 1.3 11.5 1.9-.7 1.9-.7 0 1.4-1.7 2-1.8 2.3-.2 5.6 2 4.2 2 5.8.1 3.2-1.3-1.7-1.4-1.6-1.9 1.5-1.2 7.8-1.2 10.3 0 16.2 1.6 8 4.7 16.7 5.2 14.5.2-.9-.4-3.3-1.2-5.3-2-4.8-2-7.1 0-7.9 1-.4 1.4-.2 1.1.6-.9 2.5 1.1 4.6 3.8 4 2.1-.4 2.5-.9 2.1-2.6-.4-1.1-.9-3.2-1.2-4.6-.5-2.3-.4-2.3 1.2.4l1.6 2.9 1.4-2.4c.9-1.7 1.3-1.9 1.4-.7 0 1.3 1 1.6 5.5 1.5 3-.1 5.5-.3 5.5-.5s-1.4-3.3-3.1-7-3.3-7.2-3.6-7.7c-.6-1.5 1.4 1.4 5.4 7.9l3.6 5.8 1.8-2.3 1.9-2.4v3.8c0 2.1.4 3.6.8 3.3.5-.3 2.1.2 3.7 1 1.5.8 3 1.2 3.2 1 .3-.2 1.6.2 3.1 1 1.4.7 2.8 1.1 3 .9s-1-3-2.8-6.2-4.3-7.8-5.5-10.3c-3-5.9-3.8-6.5-11.2-8.4-3.4-.9-7-1.9-7.9-2.3-1.4-.5-1.6-.2-1.1 1.8.6 2.3.5 2.3-.8.5-1.3-1.7-1.8-1.8-4-.6-1.3.7-3.4 2.4-4.6 3.6-2 2.1-2.1 2.8-1.1 6.1 1.6 5.1.8 5.3-1.2.4-1-2.6-1.3-5.2-.9-7.3.6-2.8.8-3 1.2-1.1.6 2.1.7 2 4.5-1.2l4-3.3-2.4-4.6c-2.5-5-4.2-5.6-7.4-2.9-1.3 1.2-1.1.6.6-1.4 1.4-1.8 3.2-4.9 3.8-7 2.8-8.7 6.3-18.3 6.6-18 .2.2-.9 4.2-2.5 9-1.5 4.8-2.6 8.7-2.2 8.6.3 0 2.5-2.3 4.9-5.2 4.2-5.1 4.2-5.1 4.2-13.4 0-4.6-.4-8.3-.9-8.3-.9 0-2.6 4.8-2.2 6.5.1.6-.2.5-.9-.1-.8-.8-.6-2.5.9-6.5 2.7-7 2.7-7.2-1.1-6.4-2.5.5-2.9.4-1.8-.4.8-.6 2.3-1.1 3.2-1.1 2.9 0 3.5-2.2 9.8-34.3 1.7-8.8 1.4-11-.7-6-.7 1.6-3 5.6-5.2 9-2.1 3.4-6 10.1-8.5 15-2.6 4.8-5.6 9.9-6.8 11.3-1.6 2-1.5 1.6.5-2 1.3-2.5 3.9-7.2 5.7-10.5s5.5-9.7 8.1-14.3c2.7-4.5 4.9-8.6 4.9-9s.9-1.8 2-3.2 2-3.1 2-3.9.9-2.4 1.9-3.5c1.1-1.2 4.4-6.9 7.4-12.7s6.9-12.7 8.5-15.2c1.6-2.6 3.6-6.2 4.3-8 .7-1.7 2.5-4.2 3.9-5.4 6.5-5.4 29.3-28.4 27.8-27.9-2.5.7-2.2-.1.3-1.5 1.5-.8 1.9-.8 1.5 0-.4.6-.2 1.1.5 1.1s-3.2 4.2-8.7 9.2c-9.9 9.4-21.4 21.1-21 21.5.5.5 26.2 9.2 28.1 9.5 1.6.2 2.1-.4 2.6-3.7.6-3.7.6-3.7.8-.8 0 1.7.6 3.5 1.1 3.8.6.4 4.5-.5 8.8-1.9 4.2-1.4 16.7-5 27.7-8 11-3.1 22.9-6.4 26.5-7.4l6.5-1.9-5.5-2.7c-3-1.5-9.3-4.3-14-6.2-4.7-2-10.4-4.5-12.8-5.7l-4.2-2.1-4.6 5c-2.6 2.7-9.8 10.7-16.2 17.7-6.3 7-11.7 12.5-12 12.3-.5-.6 10.7-13.4 23.2-26.5l8.1-8.4-5.2-1.8c-2.9-.9-9.1-2.7-13.9-3.9-6.9-1.8-9.2-2-11.2-1.1-3.4 1.6-3.9.6-.7-1.5 2-1.3 3.1-1.4 4.8-.7 1.2.6 7.4 2.5 13.7 4.2 12.6 3.3 12.1 3.3 32.3 0 7.1-1.2 13-1.9 13.3-1.7.2.3-2.9 1-6.8 1.7-7.6 1.3-16.4 2.9-20.8 3.8-2.3.5-2.1.7 2.5 2.9 2.8 1.3 5.4 2.3 5.8 2.4.4 0 3.7 1.3 7.2 3 3.5 1.6 7 3 7.7 3s3.6 1.1 6.3 2.5c2.8 1.3 5.7 2.4 6.5 2.4s9.4-6.2 19-13.8 17.7-13.6 17.9-13.4c.2.1-.7 1.1-2 2.2m16.7 186.7c-.7 9.7-2.2 14.4-4.5 14.4-1 0-2.3 1.1-2.9 2.4-.9 2-.7 2.7.8 4.1 1.1 1 2.1 3.7 2.5 7 1 8.3 2.5 7.7 2.5-.9 0-7.5 1.2-10.6 2.5-6.5.7 2 .8 2 1.7.5.8-1.4 1.1-1.4 2.4-.2.8.8 1.3 1.9 1.2 2.3-.5 1.9 1.5 16.2 2.9 20.5.8 2.6 1.3 5.3 1 6-.3.8-.6.6-.6-.5-.1-2.4-4.1-11-4.8-10.4-.3.3-.6 1.8-.8 3.4-.1 1.5-.6 5.7-1 9.3-.6 5.8-.4 7.2 1.9 12.7 1.4 3.5 2.6 8.2 2.6 10.5 0 2.5.7 5.4 1.7 6.8 1.6 2.2 1.6 2.3 0 1.7-1.3-.5-1.7-.1-1.7 1.5 0 1.7-.5 1.3-2-1.7-2.1-4.2-2.5-7-1.4-12.4.5-2.4.3-3.2-.5-2.7-.7.5-1.1-.5-1.1-2.9 0-2-.4-4.4-1-5.4-.5-1-1-3.8-1.1-6.2-.3-4.7-2.9-9.1-2.9-4.8 0 4.8-.9 1-1.4-5.7-.2-3.9-1.4-9.7-2.6-13-2.6-7.1-3.7-14.4-2.1-14.4.6 0 1.1-.9 1.1-2.1 0-1.1.4-1.8.9-1.4.6.3 1.1-1.4 1.3-3.7.2-3 .8-4.3 1.8-4.3.9 0 1.5-1 1.6-2.5.1-1.4.2-5.4.3-9 .2-5.8.4-6.2 1.2-3.5.6 1.6.8 6.6.5 11.1m382.3-7.8c-2 1-5.2 3.1-7.2 4.9-3.4 3-3.5 3.2-2.6 7.4.6 2.4.7 5.4.4 6.7-.4 1.6-.2 2.1.6 1.7.6-.4 1.5-.1 2 .6.7 1.2 1.2 1.2 3.1 0 2.3-1.3 2.3-1.3-.1 1.3-1.7 1.8-2.8 2.3-3.6 1.6-1.6-1.4-5.9 2.5-7.8 7l-1.4 3.5v-5.7c0-8.1-3.7-11.3-7.8-6.8-1.9 2.1-3.5 2.6-3.5 1.2 0-.5 1.3-2.9 3-5.3 1.6-2.4 2.6-4.5 2.1-4.7-1-.3-.2-5 1-5.8.9-.5 1.3.8 1 3.7-.4 3.6 2.7 2.2 9.2-4.3 5.8-5.9 6.4-6.8 4.5-7-1.3 0-.3-.4 2.2-.8 7.6-1.2 8.8-1 4.9.8m8.4 55.6q1.35 1.05.6 5.1l-.6 4-.2-4.3c0-2.3-.5-4.2-1-4.2-1.3 0-2.2 4.4-2.6 13-.3 4.2-1.1 9-2 10.6-.8 1.6-1.5 3.4-1.5 4.1 0 .6-.9 1.4-1.9 1.8-1.1.3-3.5 1.8-5.4 3.3s-4.4 3.4-5.6 4.2c-1.3.9-2.1 2.5-2.1 4.5 0 4.9-.4 7.5-1.2 7.5-.4 0-.6-1.5-.5-3.3.1-1.7-.2-3.3-.7-3.5-.5-.1-1 1.8-1 4.3-.1 4.3.1 4.6 2.2 4 1.7-.4 2.2-.1 2.2 1.4 0 3.9-4.1 2.8-10.3-2.8-1.9-1.8-2.4-2.7-1.5-3.2.8-.5.5-.8-.9-.6-1.2 0-1.9.5-1.7.9.3.4-.2.8-1 .8-2.4 0-2-.9 2.6-5.2 3.8-3.6 3.9-3.9 1.6-3.4-2.4.4-2.5.2-2.4-4 0-2.4.2-4.4.4-4.4s1.5 1.1 2.9 2.4 4.2 2.7 6.1 3.1c2.9.5 4.3.1 8.8-2.9 3-2 5.4-4 5.4-4.6 0-.5-1.6-1.2-3.5-1.6-1.9-.3-3.5-1.1-3.5-1.6s-.7-.2-1.6.6c-1.9 2-3.1 2.1-1.5.2.6-.7 1-3.1 1-5.2-.3-7 .9-10 5.2-12.8 2.1-1.5 3.9-2.2 3.9-1.7 0 .6-.4 1.3-1 1.6-1.7 1-1.1 3.9 1.5 6.7 4.3 4.9 4.3 4.8 6.6-12.2.7-4.7 1.3-9.4 1.5-10.5.1-1.1.4-2.9.5-4 .2-1.1.4.9.6 4.4.2 3.6 1 6.9 1.6 7.5m-397 6.9c.9.3 1.7 1.3 1.7 2.2 0 1.7 1.8 5.1 3.8 7.3.6.7 1.2 2.2 1.2 3.3s.6 2.2 1.4 2.5c1.6.6 1 3.4-.8 4.6-.6.4-3.5.8-6.4.8-3.7 0-5.1.3-4.6 1.1.4.7.1 1-.6.7-.8-.2-1.9-2.9-2.5-5.9-.9-4.5-.8-5.8.3-6.8.7-.7 1.1-1.9.8-2.7s-.2-1.4.3-1.4c1.4 0 3.4-5.4 2.2-5.8-.6-.2-1.1-1.1-1.1-2 .1-1.5.2-1.5 1.3-.1.7.8 2 1.8 3 2.2m15.3 43.1c1.8 6.2 1.8 6.4-.2 4-1.5-1.9-1.6-1.9-.9.1.4 1.1 1.6 4.1 2.6 6.6 1 2.6 1.6 4.9 1.3 5.1-.2.3.3 3.2 1.1 6.4.9 3.2 2 8.8 2.5 12.4 1.8 12.6 2.2 14.3 3.1 12.9.5-.9 1-.4 1.4 1.7.4 1.6 1.5 5.5 2.4 8.7 1 3.2 1.4 6 1 6.3-.5.3-.9-.5-.9-1.8 0-1.8-.2-2-1-.8-.9 1.3-1 1.3-1 0 0-.8-1.3-5.8-2.9-11s-3.5-12.8-4.2-16.8c-.7-3.9-1.5-7.2-1.8-7.2s-.7-2.3-.8-5.1-1.3-8-2.7-11.5c-2.5-6.3-3.2-13.3-1.8-17.9.6-1.8.7-1.7 1 .5.2 1.4 1 4.7 1.8 7.4m238.5 81.5c-1.2 1.7-4.7 8.3-7.7 14.8-3.1 6.5-6 12.6-6.5 13.5-1.4 2.6-1.1 3.8.9 3.8 1.2 0 .9.4-1 1.4-1.5.8-3.7 2.4-4.9 3.5-1.3 1.2-2.7 2.1-3.2 2.1-2 0-22.7 14.4-22.7 15.8 0 .9 1 2.7 2.2 4.1 2.2 2.5 2.2 2.5-.7-.1-4.1-3.7-5.6-3.7-15-.6-4.4 1.4-11.6 3.3-16 4.2-4.4.8-12 2.5-17 3.6-5.8 1.4-10.4 1.9-13 1.5-5.9-1-25.7-6.2-35.8-9.6l-8.8-2.9-2.5 2.7-2.6 2.8 2.1-3.2 2.2-3.2-3.2-2.8c-1.7-1.5-4.8-4.4-6.9-6.3s-5-4.5-6.4-5.8c-1.5-1.2-2.4-2.7-2.1-3.2.3-.6.1-1-.4-1-.6 0-1.1.6-1.1 1.2 0 .7-.9.2-1.9-1.2-1.1-1.3-1.7-2.8-1.5-3.2.3-.4.1-.8-.3-.8-.5 0-1.7-2.4-2.7-5.3-1-2.8-4-9.9-6.7-15.6s-4.9-10.9-4.9-11.5c0-1.7 8.3 15 11.5 23.1 1.5 4 3.4 7.3 4.2 7.3.7 0 1.3.6 1.3 1.4 0 1.8 6.7 2.6 16.2 1.7 4.2-.3 7.4-.3 7.2.1-.3.5-3.3.8-6.7.9-4.6 0-5.5.3-3.7.8 9.1 2.9 15.2 4.5 20.5 5.2 3.3.4 12 1.7 19.3 2.8 15.4 2.4 15.2 2.4 15.2 1.2 0-.5-1.7-1.3-3.7-1.9l-3.8-1 4.5-.1c6.2-.1 9.2.8 8.5 2.7-.4 1.1 0 1.3 1.7.8 3.4-1 20.9-2.6 33.3-3.1 9.5-.3 17.5-1.5 30-4.5 2.7-.6 2.4-.8-2.5-1.3-3-.4-7.3-.9-9.5-1.1s2.1-.2 9.7-.1c10 .3 14.1 0 15.4-.9 1.7-1.3 1.7-1.4-.2-2.4-1.8-.9-8.2-11.2-7.1-11.2.3 0 2.1 2.5 4.2 5.5 2 3 4.3 5.5 5.1 5.5.9 0 2.6-2.4 4-5.8 6.4-14.7 14.1-28.8 15.2-27.8.2.3-.5 1.8-1.7 3.5m-192.8 54.4c4.3 6.4 14.9 16.9 18 17.9 1.2.3 1.6.6.8.7-1.1.1-.9.6.7 2.1 1.2 1.1 2.4 2 2.8 2s5.5 3.1 11.3 6.8c5.8 3.8 15.1 9 20.5 11.6l9.9 4.7h32.4c20.1 0 33-.4 34.1-1 .9-.6 1.3-1.1.8-1.1s-.3-.7.4-1.5c1.1-1.3 1.4-1.3 2.6.2 1 1.4 1.5 1.6 2.5.5.7-.6 2.3-1.2 3.5-1.2s8.9-3.4 17.1-7.5c17.7-9 24.7-12.2 21.8-9.9-1.9 1.5-27.8 14.4-39.2 19.5-4.9 2.2-8 5.9-6.8 8 .4.5.1.9-.6.9-.6 0-.9-.8-.6-2 .8-3-1.5-2.5-6.1 1.2-2.2 1.8-5 4-6.2 4.8-1.3.8-3.5 2.4-4.9 3.6-1.4 1.1-6.1 4.5-10.3 7.4-4.3 3-7.8 5.7-7.8 6.1 0 .5.8 1.3 1.8 1.9 1.5 1 1.5 1.1-.3.5-2.6-.9-3.6-.9-6 .1-1.8.7-1.9.6-.5-1 1.2-1.6 1.2-2-.1-3-.8-.6-6.8-5.2-13.2-10.1-6.5-5-13.2-10-15-11.3s-4.5-3.6-6.2-5.2c-1.6-1.5-7.3-5.1-12.5-8s-12.3-7.2-15.7-9.5c-3.3-2.4-7.1-4.6-8.4-5-2.2-.7-2.2-.6.6 4.1 1.6 2.7 4.7 7.8 7 11.4 5.9 9.2 8.7 14.2 8.1 14.7-.2.3-1-.6-1.7-1.9-2.8-5.2-3.7-6.7-9.3-15.2-3.2-5-6.5-10.5-7.2-12.3-1.5-3.6-2.3-4-4.3-2.1-1.1 1.1-1.1.9-.1-.8 1.5-2.4.8-3.4-7.8-11.7-5.6-5.4-11.8-14.7-9.8-14.7.2 0 2 2.4 3.9 5.3m32.8 63.7c5.9 6.3 12.5 13.6 14.5 16.2 2 2.7 4.2 4.8 4.8 4.8s2.4 1.8 4 4c3.2 4.3 4.6 5 4.7 2.2 0-1 .3-1.2.6-.5.2.7 1.1 1.3 1.8 1.3s1.2.7 1.1 1.6c-.1 1.2 2.8 2.4 12.2 5 6.7 1.8 13.4 4.1 15 4.9 1.5.9 1.8 1.4.8 1-1.1-.3-7.1-1.9-13.4-3.6s-13.3-3.9-15.6-4.9c-3.8-1.6-18.8-15.9-26.3-25-1.5-1.9-5.6-6.4-9-10-3.3-3.6-8-9-10.3-12l-4.2-5.5 4.3 4.5c2.3 2.5 9.1 9.7 15 16m687.4 60c.3 1.1 1.5 2 2.6 2 2 0 4.4 4.3 3.6 6.4-.3.6-.9-.5-1.5-2.4-.6-2.1-1.1-2.7-1.1-1.5-.1 1.1.6 4.1 1.6 6.7l1.6 4.6 1.7-3.1c1-1.8 2.6-5.8 3.6-9 1.3-4.1 2.3-5.7 3.6-5.7 1.6 0 1.4.9-1.6 9.2-1.8 5.1-3.6 10.9-4 12.9-.6 3.1-.9 3.6-3 3.2-1.9-.4-2.9-1.8-4.6-6.6-1.2-3.4-3.3-9-4.6-12.5-2.2-5.9-2.2-6.2-.4-6.2 1 0 2.2.9 2.5 2m24.3 5.8c3.1-1.1 8.5.8 13.4 5 1.2.9 1.9.6 3.6-1.7 3.1-4.3 7.2-4.8 13-1.8 2.6 1.4 4.6 3.1 4.4 3.7-.1.6.2.9.7.5.6-.3 1.5.3 2 1.4 1.5 2.7 1.4 3.8-.1 1.8-1.6-2-3-1.1-4.4 2.8-.6 1.6-1.6 2.9-2.2 2.8-.7-.2-1.1.1-.9.6.1.5-.9 1.9-2.3 3.1l-2.5 2.2 3-.7c1.7-.4 3.6-.8 4.3-1.1.7-.2 1 .1.7.6-.3.6-.2 1 .3 1 1.1 0 3.7-2.9 4.5-5 .5-1.3.5-1.3.6 0 .1 3.1-6.1 8.1-7.4 6-.3-.5-1.4-1-2.3-1-1.5 0-1.5.2-.2 1 .8.5 1.1 1 .7 1-1.5 0-5.1-2.2-9.7-6-3.8-3-5-3.5-7.5-2.9-1.6.4-2.5.7-2 .8.6.1-.3 1-2 2.1-2.4 1.5-2.6 2-1.3 2.5.9.4 2.7.1 4-.6 2.1-1.1 2.2-1.1.9.4-.7 1-.9 1.7-.3 1.7 1.4 0 3.3-2.5 2.5-3.3-.3-.4-.1-.7.5-.7 1.7 0 1.5 1.5-.5 3.1-1.1.9-3.7 1.4-6.4 1.4-3.7-.1-5.6-.9-8.8-3.4-2.3-1.8-4.1-3.9-4.1-4.7s-.7-1.4-1.5-1.4c-1.6 0-1.5-.2 2.1-9 1.1-2.5 2-3.7 2.2-2.8.2 1.3.8 1.4 3 .6"/><path d="M598 47.3c0 .7 1.1 3 2.5 5.2 1.3 2.2 3.5 6 4.9 8.5 8.7 15.4 23.5 40.4 24.9 42 1.8 2.1 1.1 2.4 24.7-11.8 4.7-2.8 12.2-7.2 16.8-9.8 4.5-2.6 8.2-5.3 8.2-5.8 0-1.2-2.8-2.4-20.5-8.6-6.6-2.3-15.6-5.4-20-7-7.3-2.6-26.7-9.1-37.2-12.5-3.3-1.1-4.3-1.1-4.3-.2M592.2 47.6c.3.3-.5 1.7-1.9 3.2s-5.9 6.7-10.1 11.7c-4.1 4.9-11.1 13-15.6 17.9s-8 9.5-8 10.3c.1.7-.3 1-.8.7-.9-.6-5.9 4.6-9.1 9.6-1.5 2.4-1.5 2.8-.3 3.3.9.4 2.2 0 3-.8 1.7-1.8 4.3-2 4.8-.4.2.7 7.9 1.1 23.3 1.2 22.8.2 23 .2 26.2-2.2 2.5-1.9 3.8-2.2 7-1.7 2.1.4 5.7.9 8.1 1.2l4.2.6-.5-3.7c-.4-3.6-2.2-7.6-7.5-17.1-1.3-2.1-5.3-9.3-9-15.9s-7.6-13.5-8.6-15.2c-1.1-1.9-2.7-3.3-3.8-3.3s-1.7.3-1.4.6M678 79.2c-1.9 1.2-9.1 5.6-16 9.8s-15.1 9.2-18.3 11.1c-10.8 6.3-10.8 6.4 7.6 7.7 8.9.7 19.2 1.5 22.8 1.8l6.7.6.7-14.9c.3-8.1.9-15.6 1.1-16.6.7-2.2-.2-2.1-4.6.5M518.3 111.7c-9.4 1.2-18.2 2.7-19.6 3.2-2.1.8-2.5 1.8-3.1 7.3-2.1 20.4-2.7 24.7-3.5 28.8-1.7 7.8-1.3 7.8 6.8 0 9.8-9.4 37.8-40.7 37-41.4-.2-.1-8.1.8-17.6 2.1M682.7 122.8c-.4 5.3-1.1 15.3-1.7 22.1-.5 6.9-.7 12.7-.4 13s1.5-.1 2.7-.9c1.2-.7 5.4-2.9 9.2-4.7 3.9-1.9 7.9-3.9 9-4.5 4.3-2.4 14.2-7.2 19.5-9.4 3-1.2 5.6-2.6 5.8-3.2.3-.9-21.5-12.2-23.4-12.2-.4 0-5-2.2-10.4-4.9l-9.7-5zM530.9 119.7c-1.9 2.1-4.7 5.7-6.2 8-1.5 2.4-3 4.3-3.3 4.3s-.2-.6.2-1.3c.3-.6-1.5 1.3-4.2 4.3-2.6 3-8.8 9.5-13.6 14.3-10.3 10.2-11.9 13-8.9 16.1 1.2 1.2 4.6 5.2 7.8 9.1 3.1 3.8 7.9 9.5 10.7 12.5s7.4 8.2 10.1 11.5c6.2 7.3 11.9 13.5 11 11.6-.4-.7-.2-1.7.5-2.1 1.1-.7 1.3-9.3 1.2-41.6 0-22.4-.5-41-.9-41.3-.5-.3-1-2.3-1.1-4.5-.2-3.1 0-3.7 1.3-3.3.8.4 1.5.2 1.5-.3 0-2.1-2.7-.8-6.1 2.7M721 140.4c-5.8 2.4-14.7 6.8-26.5 13.1-3.8 2.1-8 4.3-9.2 4.9-2.7 1.3-3.9 3.9-2.2 4.5.6.2 2.8 1.8 4.8 3.6 5 4.5 18.2 13.5 19.8 13.5.7 0 1.3-.5 1.3-1.1s3.6-8.4 8-17.3c4.4-9 8-16.7 8-17.2s.7-2.1 1.4-3.7c1.7-3.2 1.7-3.2-5.4-.3M719.2 160.4c-5.6 11.2-10.2 20.8-10.2 21.4 0 .5.7 1.5 1.5 2.2s1.5 1.7 1.5 2.2c0 .6-.6.5-1.5-.2-2.1-1.7-3.3-.5-4.9 4.8-.8 2.6-3 8-5.1 12.1-2 4-3.4 7.5-3.2 7.7.2.3 2.4-.2 4.8-1s7.1-1.6 10.4-1.9l6-.6-6 1.5c-11.5 2.7-14.6 3.7-14.3 4.5.2.4 2.2 2.2 4.5 4.1 2.3 1.8 7.8 6.6 12.2 10.6 7.8 7.2 8 7.3 9.2 5 .7-1.2 1.6-3.6 2-5.3 2.6-10.1 4.8-18.2 5.4-19.8.6-1.4.1-1.7-2.6-1.8l-3.4-.1 2.8-1c1.5-.5 2.7-1.3 2.7-1.8 0-.9-9.2-8.8-12.9-11.1-1.4-.9-3.2-2.3-4-3.3-1.2-1.4-1.2-1.6.3-1 .9.3 1.6.9 1.6 1.3s1.5 1.5 3.3 2.6c1.7 1 5 3.3 7.3 5.2 2.3 1.8 4.4 3.3 4.8 3.3 1 0 .7-18.7-.4-27.9-.6-4.5-1.2-13.6-1.3-20.2-.1-6.5-.2-11.9-.2-11.9s-4.7 9.2-10.3 20.4M681 165.8c0 1.1.4 2.2.8 2.4.5.1 2.5 6.4 4.6 13.8 2 7.4 4.9 16.6 6.3 20.3 2.5 6.3 2.8 6.7 4.1 5 .7-1 1.6-3 1.9-4.6.3-1.5 1-3 1.4-3.3.5-.3.9-1.3.9-2.3 0-.9 1.3-4.3 2.9-7.5 1.7-3.2 2.8-6.3 2.5-6.9-.2-.7-4.6-4.1-9.7-7.5-5-3.4-10.7-7.4-12.4-8.8-3.1-2.5-3.3-2.6-3.3-.6M490.2 169.3c-.1 1.8-.6 9.5-1.2 17.2s-1.1 18.7-1.3 24.5l-.2 10.5 5.5-.3c12.4-.5 40.6-3.4 41.4-4.2.4-.5-.7-2.4-2.7-4.3-1.9-2-3.6-4-3.8-4.5-.5-1.2-7.4-9.4-17.4-20.6-4.4-4.9-9.9-11.3-12.2-14.2-2.4-2.9-5.1-5.7-6.1-6.3-1.5-.8-1.8-.5-2 2.2M679.6 171.6c-1.1 3-1.9 47.4-.8 47.4.5 0 2-.8 3.3-1.8s4.4-2.6 6.7-3.7c4.1-1.8 4.4-2.1 3.9-5.1-.3-1.8-1.3-5-2.2-7.1-2.8-6.3-3.1-7.3-6.7-19.7-2.4-8.2-3.7-11.3-4.2-10M575.1 199.7c-1.9.3-4.5 1.1-5.7 2-1.3.8-2.4 1.2-2.4.9 0-.6-4.8 2.1-6 3.4-.3.3-2.2 1.6-4.2 3-2 1.3-3.4 2.8-3.2 3.2.3.4-.5.8-1.8.9-2.2 0-2.2.1-.3.9s1.9.9-.5 1.7c-2.5.8 45.4 2.1 51.7 1.4 2.8-.3 3.1-.6 2.2-2.2-.5-1-2.4-2.6-4.2-3.5s-3.5-2.1-3.8-2.6c-.7-1.1-8.4-5.5-12.1-6.9-1.6-.6-2.8-1.5-2.8-2 0-.9-.7-.9-6.9-.2M685.8 218.1c-3.2 1.6-5.8 3.6-5.8 4.4 0 .9 1.9 5.3 4.3 9.9 2.9 5.7 4.7 8.2 5.6 7.7 1.1-.7 3.2-25.2 2.1-25.1-.3.1-3.1 1.4-6.2 3.1M521 220.6c-6.9.7-16.7 1.7-21.8 2.2s-9.5 1.2-9.9 1.5c-.3.4.6 2.4 2.1 4.5 1.4 2.1 2.6 4.2 2.6 4.8 0 .5 1.4 2.5 3.1 4.4 2.8 3.1 8.7 11.1 12.9 17.5.8 1.3 4.9 6.8 9.2 12.4 8.6 11.3 9.2 11.4 10.7 1.5.5-3.2 1.6-9.3 2.4-13.4 2.7-12.9 4.1-36.1 2.2-36.5-.5-.1-6.6.4-13.5 1.1M542.6 221.7c1.6 7.1 6 18.8 8.9 24.3 1.3 2.3 3.8 4.1 3.4 2.3-.4-1.7 2.2-6.4 3.4-6.1 1.5.6 2.2 5.8.8 5.8-.6 0-1.1.7-1.1 1.5s-.4 1.5-1 1.5c-1.8 0-1.1 3.8 1.9 10.2 1.5 3.5 4.5 10.6 6.6 15.8s4.9 10.8 6.1 12.5c1.2 1.6 2.6 4.2 2.9 5.7.5 1.8 1.4 2.8 2.6 2.8 1 0 1.9-.4 1.9-1 0-.5 1.8-4.6 3.9-9 2.2-4.4 3.8-8 3.6-8s2.5-6.1 6-13.5c3.6-7.5 8.4-17.9 10.7-23.3 4.3-9.8 5.2-11.2 7.7-11.2 1.1 0 1.1.4-.2 1.8-.9 1-3.6 6.3-6.1 11.7-2.4 5.5-6.6 14.5-9.3 20s-5.7 12.2-6.8 15c-1 2.7-3.3 8.1-5.2 12s-2.9 7.1-2.3 7.3 2.5-.5 4.3-1.6c1.9-1.1 5.1-2.5 7.2-3.2s5.9-2.5 8.4-4.1c2.5-1.5 8.6-4.7 13.4-7.1 7.4-3.6 8.7-4.6 8.2-6.3-.3-1.1-1.4-8.1-2.5-15.5-1.2-7.4-2.3-14.9-2.6-16.5-.3-1.7-.8-7-1.1-11.9l-.5-8.8-2.9.6c-2.7.5-2.9.3-2.9-2.3v-2.8l-33.2-.2c-18.2-.1-33.6-.5-34-.7-.5-.3-.6.7-.2 2.3M538.7 222.6c-.3 1-.9 5.7-1.2 10.4-.5 7-4.5 32.5-7 44.3-.5 2.7-.2 2.9 15.7 10.7 22 10.9 31 14.2 27.6 10.2-2.8-3.2-6.6-10.7-11.1-21.9-2.5-6.1-6.7-15.3-9.3-20.5-2.5-5.1-5.9-11.8-7.4-14.9-1.6-3-3.1-7.2-3.5-9.2s-1.3-5.3-2-7.3c-1-3-1.4-3.4-1.8-1.8M620.2 221.9c-2.3 1.4-2.8 6.2-1.6 14 .6 4.2 1.4 10.5 1.8 14.1 1 10.2 3.5 24.3 4.5 25.3.5.5 2.6-1 5.2-4 2.4-2.6 7.1-7.7 10.4-11.3 3.4-3.6 9.7-10.6 14-15.5 4.4-5 10.7-11.9 14-15.4 5.9-6.4 6-6.5 3.5-7.2-3.5-1-50.2-1-51.8 0M480.1 237.5c-2.8 4.8-5.4 9.8-5.7 11.1s-1 2.4-1.5 2.4-.9.5-.9 1.1.7.9 1.5.5c.8-.3 1.4 0 1.2.6-.2 1.3 8 5.6 12.4 6.5 2.4.5 2.9.2 2.9-1.5 0-1.2.5-2.4 1-2.7.6-.3 1 .4 1 1.6s.3 2 .6 1.7c.5-.6-6.2-28.7-7-29.6-.2-.2-2.7 3.6-5.5 8.3M490 237.5c0 .8.4 2.3.9 3.3.5.9 1.5 3.7 2.2 6.2s1.9 5.3 2.7 6.2 1.1 2.1.8 2.6.1 1.5.8 2.2c.8.6 1.8 2.5 2.1 4.1.5 2.2 2 3.7 5.8 5.9 2.9 1.6 5.7 3.3 6.2 3.7.6.5 2.9 1.6 5.2 2.6 3.6 1.4 4.1 1.4 3.7.2-.4-.8-.9-1.5-1.3-1.5-.3 0-1.2-1.5-2-3.3-.8-1.7-2.6-4.6-4.1-6.2-3.1-3.4-6.7-8.6-9.2-13-.9-1.6-2.1-2.9-2.8-2.7-.6.1-.9-.2-.6-.7.4-.5-.1-1.6-.9-2.4-.8-.9-1.5-1.8-1.5-2.1 0-.9-6.2-6.6-7.1-6.6-.5 0-.9.7-.9 1.5M498.4 275c.3 3.3.9 8.7 1.2 12 .4 3.6 1.1 6 1.7 6 .7-.1 6.5-2.7 13-5.8l11.8-5.7-9.8-4.5c-5.4-2.4-10-4.7-10.3-5-.7-.8-5.9-3-7.1-3-.7 0-.9 2.1-.5 6M615 285.1c-4.1 2.2-13.9 7.1-21.8 10.8-10.2 4.9-13.9 7.1-13 7.8 1.6 1.3 14.8 7.4 24.6 11.5l7.4 3.2 4.3-2.3c2.4-1.3 5.2-3.1 6.4-4.2 2.2-2.1 13.5-8.9 14.6-8.9 1.5 0-8.9 7.9-15 11.5-7.6 4.4-21 15.9-25.9 22.2-3.2 4.1-3.8 7.3-1.4 7.3.5 0 .7.4.4.9-.3.4.7.6 2.2.4l2.7-.4-2.5 1.5c-1.4.8-2 1.6-1.5 1.7.6.1 1.5.2 2 .3.6 0 2.1.7 3.5 1.5 1.5.9 2.5 1 2.7.4.3-.7 1.9-.3 4.3.8 2.1 1.1 4.1 1.9 4.4 1.9 1 0 2.8-4.2 3.2-7.3.2-1.7.8-3.4 1.5-3.7.7-.5.5-.9-.6-1.4-.9-.3-3.6.2-6 1.3-5.1 2.3-11.8 3.8-9.5 2.2.8-.6 2.2-1.1 3-1.1.9 0 4.5-1.9 8-4.3 3.6-2.4 8.2-5.4 10.2-6.8 2.1-1.3 3.7-3.2 3.8-4.3 0-1.1.7-2.8 1.7-3.8 2.1-2.3 1.6-2.8-4.4-3.7l-4.8-.7 5.4-.8c3.8-.5 6.5-1.6 9-3.7 1.9-1.6 4.1-2.9 4.8-2.9s1.2-.3 1.1-.8c-.8-2.5 2.5-7.4 5.9-9 2.1-1 3.9-2.3 4.1-3 .7-3.6.5-5.2-.8-5.2-.6 0-6-2.7-12.1-6-6-3.3-11.3-6-11.8-6-.4 0-1.8 3.5-3.1 7.7-2.8 9.4-3.8 7.6-1.2-2 1.1-3.7 1.9-6.7 1.8-6.6 0 0-3.5 1.8-7.6 4M530 283.4c0 1.2 10.3 28.3 11.1 29.1.5.5.9 1.7.9 2.7 0 2.3 2.6 3.4 4.3 1.9.8-.6 3.2-1.7 5.5-2.5 7.4-2.6 23.3-10.9 22.5-11.6-.4-.5-3.9-2-7.8-3.5-3.8-1.5-11.7-5.2-17.5-8-13.3-6.7-19-9.1-19-8.1M514.5 289.5c-6 3-11.4 5.6-12 5.9-1.7.6 2.3 3.1 19.3 11.8 8.9 4.5 16.2 8.6 16.2 9 0 .5.4.8.9.8s-.6-4.6-2.4-10.3c-5.6-17.4-7.8-22.7-9.4-22.7-.9.1-6.5 2.5-12.6 5.5M470.7 287.7c-.9.8 12.4 15.2 15.6 16.9 1.8 1 4.9 1.4 8.8 1.2 6.2-.3 6.4-.4 4.9-2.8-.7-1.1-1-1.1-1-.2 0 .7-.5 1-1.1.7-.5-.4-.9-2.1-.7-3.8.3-3 .3-3-9.7-6.2-5.5-1.7-11.4-3.9-13.1-4.8s-3.4-1.4-3.7-1M567 308.8c-4.1 2-11.3 5.4-15.9 7.5l-8.4 3.8 10.4 9.9c5.7 5.5 10.7 10 11 10 .4 0 1-.6 1.2-1.3.3-.6.6 0 .6 1.4.1 2.4.6 2.7 4.2 3.1 2.2.2 4.3-.1 4.7-.6 1.1-1.9 1.4-17 .4-23.1-.7-4.4-.6-7.1.3-10.2 1.6-5.3 1.3-5.3-8.5-.5"/><path d="M578.8 306.2c.7.7 1.2 2 1.2 3 0 .9.6 3.2 1.4 5 3.2 7.4 8.6 22.5 8.6 24.2 0 1.2 3.3-1.3 10.5-7.9 5.8-5.4 10.5-10 10.5-10.4 0-.3-3.1-1.9-6.8-3.5-3.7-1.7-10.7-4.9-15.7-7.3-9-4.4-11.9-5.3-9.7-3.1M578 329.7l.5 13.7 5-.3c2.8-.1 5.4-.6 5.8-1s-.2-3-1.4-5.7c-1.1-2.7-3-7.7-4-11.1-1.8-5.7-4-9.3-5.7-9.3-.4 0-.5 6.2-.2 13.7M533.2 320.8c-.9.7-.8 1.4.8 3.2 1.1 1.3 2 2.9 2 3.7 0 .7.5 1.3 1 1.3.6 0 1 .5 1 1.1 0 1.6 5.9 7.1 10.5 9.9 2.2 1.3 5.7 3.9 7.8 5.9 2 1.9 3.7 2.9 3.7 2.2s.4-1 .9-.7 1.1-.6 1.4-2.1c.6-3.1-2.5-7.1-12.8-16.5-9.6-8.7-12.7-10.2-16.3-8M598.1 349.7c-.1.7-.7 1-1.5.7-1-.4-1.4.1-1.2 1.8 1.3 9.9 2 14.1 3.2 19.8.8 3.6 1.6 7.9 1.9 9.6.3 1.6 1.1 4.8 1.9 7 1.3 3.7 1.3 3.3 1.2-7.6-.5-31.3-.4-30-2.5-30-1.1 0-2.2-.6-2.4-1.3q-.6-1.35-.6 0M558.3 362c-.1 2.5-.8 8.5-1.8 13.5-5.3 28.5-6.3 39.8-4.1 49.5.7 3.6 1.2 6.7 1 6.9-.9 1-1.7-1.2-2.2-5.9-.2-2.7-.8-5-1.2-5s-.5-1.1-.2-2.5c.8-4.3-.6-2.7-2.4 2.7-.9 2.9-2.6 6.9-3.6 8.9-2.4 4.6-6.1 16.6-6.1 19.9 0 1.4.3 3.4.8 4.5.5 1.3 0 1-1.5-.8-1.4-1.8-2-3.6-1.7-5 2.3-9.4 3.8-14.9 4.6-16.4 2-4 3.9-9 4.6-12.1l.7-3.3-4.4 4.8c-2.4 2.6-7.6 8.6-11.5 13.3s-8.8 10.3-11 12.6c-6.4 6.8-12.8 14.5-12.8 15.3 0 1.4 13.9 16.3 16.5 17.6 2.5 1.3 2.5 1.3 5.5-6.6 1.7-4.3 3.3-7.9 3.7-7.9s.2 1.7-.6 3.7c-4.9 13.3-5.4 16.9-3.2 26 .8 3.2 2.2 10.2 3.2 15.6 1.9 11.4 3.1 11.5 5.7.7.8-3.6 2.5-10.1 3.7-14.5s2.6-10 3-12.5l.8-4.5.1 4.6c0 2.6-1.2 9.1-2.8 14.5-1.6 5.5-3.2 12-3.6 14.6s-1.3 5.3-2.1 5.9c-3.3 2.7.4 4.1 4.1 1.5 1.1-.7 3.1-1.7 4.4-2.1 4.9-1.5 11.1-6 11.1-7.9 0-1.1-.9-4.5-1.9-7.5-1.1-3.1-2.2-7.9-2.5-10.6-.4-2.8-1.4-7.6-2.4-10.7-1.5-4.8-2-5.4-2.9-4-.6.9-1.4 1.3-1.9.9s-.3-1.1.3-1.5 1.4-2.7 1.8-5.2.8-4.7 1-4.8c.4-.4 3.5 5.3 3.5 6.3 0 .3-.4.3-1 0-.5-.3-1-.1-1 .6 0 2 3.9 14.5 5.9 19l1.9 4.2 1.6-3.8c.9-2 1.6-4.2 1.6-4.7s1-2.8 2.2-5.1c2-3.7 2.3-3.9 2.6-1.9.2 1.3-.1 3.5-.6 5-.9 2.7 0 7.2 1.5 7.2.9 0 4.2-4.8 7.2-10.4l2-3.9 1.2 2.6c1.4 3 6.4 5.3 7.6 3.4.4-.7.9-2.1 1-3.2.4-2.5 3.1-6.5 4.3-6.5.5 0 1.5.8 2.1 1.8.9 1.4 2 1.7 5.8 1.2 4.4-.5 4.7-.7 7.4-6 1.5-3 3.1-5.6 3.5-5.8.7-.2 4.2 15.5 5.8 25.8.3 1.9 1 3.9 1.5 4.5.5.5.9 2.3 1 4 0 1.6.3 2.4.6 1.7 1-2.6 1.8-1 1.6 3.7 0 2.6.3 5.4.8 6.2.7 1.2.9 1.2.9-.1s.1-1.3 1 0c.8 1.2 1 1.1 1-.8 0-1.2.9-3.1 2-4.2s2-2.6 2-3.3c0-.6-.5-.4-1.1.7-1.7 2.7-4.7 5.5-5.3 4.8-.3-.3-.6-1.6-.6-2.9 0-1.7.6-2.3 2.3-2.3 3.8-.1 5.8-2.3 5.1-5.9-.5-2.2-1.1-3-2-2.7-.8.3-1.4.1-1.4-.4 0-.6.7-1 1.5-1 1.9 0 2-1.6.1-2.3-5-1.9-5.6-13.6-.8-13.8 1.1 0 1.2-.3.5-.6-1.5-.5-1.8-5.9-.4-6.7.5-.3 1.2.1 1.5 1 1.4 3.7 1.6.4.2-3.7-.8-2.4-1.8-6.2-2.2-8.4-.8-4.5-5-13.5-6.3-13.5-.5 0-1.2 1.1-1.5 2.4s-1.3 2.6-2.1 3c-2.1.8-1.9-.7.5-3.4 1.1-1.3 2-2.4 2-2.5s-2.2-7.1-5-15.6c-2.7-8.5-5-16-5-16.7 0-2.1-2-1.3-3 1.3-.5 1.3-3.8 7.5-7.4 13.7-3.5 6.2-6.6 12.2-6.8 13.3-.3 1.8.6 2.1 10.2 3.2l10.5 1.1-10.5-.1c-11.5-.1-14.7.8-17.9 4.9-2.3 3-2.9 2-.6-1 .8-1.1 1.5-2.3 1.5-2.8 0-.4-4.9-.8-11-.8-9.1 0-11 .3-11 1.5 0 .8.4 1.5 1 1.5.5 0 2.6 1.1 4.6 2.5s3 2.5 2.2 2.5-3.5-1.5-6-3.4c-4.2-3.2-4.6-3.3-6.2-1.8-.9.9-1.6 1.1-1.6.5 0-.7.5-1.5 1-1.8 2.5-1.5.6-2.4-4.2-1.9-4.4.4-4.9.3-2.9-.6 1.4-.6 3.1-.8 3.8-.6.7.3 1.3.1 1.3-.5s.6-.9 1.4-.6c1.6.7 3.7-13.3 4.1-27.8.3-14.3 1.5-32.4 2.6-40.3.7-5 .7-7.7 0-8.5-.6-.8-.6-1.8-.1-2.7.6-.8.9-2.4.9-3.5v-2l-.9 2c-.6 1.7-.8 1.5-1.3-1.5-.4-3.1-.4-3-.4 1"/><path d="M591.5 362c-1.3 2-1.5 4.5-2 24.5-.4 17.8-1.1 25.1-2.4 27-.4.5-.8 5.5-.9 11-.2 5.5-.5 11.3-.8 13-.4 2.7-.4 2.8.7 1 .7-1.1 1.5-2.2 1.8-2.5 1.2-1 7.9-11.6 10.7-17 1.5-3 3.4-6.1 4-6.7 1.5-1.6.8-12.2-1.2-17.8-.8-2.2-2.5-9.2-3.9-15.7-2.9-13.8-4.7-18.9-6-16.8M446.7 381.6c-1.2 1.2-.8 2.1 2.4 5.5 1.8 1.9 4.8 5.4 6.7 7.9 5.2 6.5 10.5 12 11.6 12 .5 0 .6-.3.3-.7-.4-.3-.3-1.1.2-1.7.7-.9 4.3-11.8 4.5-13.8.1-.3.4-1 .9-1.4 1.2-1.2.8-3.5-.5-3.2-.7.1-2.2-.3-3.3-.9-3.6-1.9-21.6-4.9-22.8-3.7M710 395.9c-11.4 11.6-12.9 13.8-8.3 12 1.5-.6 6-1.9 9.8-2.8l7-1.7 1.3-6.5c.7-3.5 1.6-7.6 1.9-9.2.3-1.5.1-2.6-.3-2.5-.5.1-5.6 4.9-11.4 10.7M549.6 388.5c-.3.8-1.2 1.5-2.1 1.5-.8 0-1.5.6-1.5 1.3s-1.6 2.1-3.5 3-3.5 2.2-3.5 2.9c0 .9-.3.8-1-.2-.8-1.2-1-.9-1 1.3 0 1.6-.4 2.6-.8 2.3-.5-.3-1.4 1-2 2.9-1.2 4-1.3 3.9 9.1 5 5.5.6 5.7.5 5.8-1.7 0-1.3.2-3.2.4-4.3 1.7-11.7 1.8-18.3.1-14M514.6 409.6c-3.1 3.3-4.2 5.1-3.8 6.4.3.7-.2 1.8-1 2.4-1.5 1.1-2.9 9.2-4.3 25.4-.4 3.9-1.1 8.4-1.6 10-.7 2.2-.8 1.8-.4-1.7 1-7.5 2.5-28.3 2.5-33.9 0-3.6-.4-5.2-1.3-5.2-.7 0-5.9 4.3-11.5 9.6-9.2 8.6-11.9 12.6-9.4 13.6.5.1 2.5 2.8 4.5 5.8 9.5 14.3 10.9 16.1 13.1 17.2 2 .9 2.9.7 5-.9 2.4-1.9 14.5-15.2 24.8-27.3 2.6-3 7.2-8.2 10.2-11.5 3.1-3.3 5.6-6.5 5.6-7.1 0-.8-2.8-1.5-7.7-1.9-4.3-.3-11.3-.9-15.7-1.4-5.7-.5-8.1-.4-9 .5M654.2 409.9c.6.9 4 4.1 7.7 7.1 3.6 3 8.4 7.4 10.6 9.7 2.3 2.4 4.6 4.3 5.2 4.3 1.2 0 7.2-8 10.9-14.6 1.4-2.4 2-4.4 1.4-4.4s-6.8-.7-13.8-1.4c-21.4-2.5-23.2-2.5-22-.7M478.8 410.3c-5.3.6-8.8 1.4-8.8 2.1.1 2 9.5 18.1 10.7 18.1 2.1 0 22.3-18.8 22.3-20.7 0-1-13.2-.8-24.2.5M608 416.3c0 2.3 9 28.9 10.5 31.4.8 1.2 3.2 7 5.4 13 2.3 5.9 5.4 13.4 7 16.6l2.9 5.9 6.7-6.4c3.7-3.4 7.3-6.7 8.1-7.1s1.4-1.7 1.4-2.8.7-2.2 1.5-2.5c.8-.4 1.5-1.1 1.5-1.6 0-.6-4.6-5.7-10.2-11.4-12.2-12.2-29-29.7-32.4-33.7-1.5-1.7-2.4-2.3-2.4-1.4M649.6 471.9c-3.6 2.4-12.4 10.9-13.6 13.2-.7 1.2.1 3.8 2.8 9.3 2 4.2 3.9 7.6 4.2 7.6.5 0 8.3-23.9 9.6-29.3.7-3.2.7-3.2-3-.8M604 476.3c0 1.2-.9 4.7-1.9 7.7-1.1 3-2.2 7.7-2.6 10.5-.4 2.7-2 7.6-3.7 10.8-1.6 3.2-2.7 6.5-2.4 7.3.5 1.3 15.6 9 21.3 10.8 2.1.7 2.1.6.7-4.1-.8-2.6-1.6-5.9-1.7-7.3-.2-2.1-.8-2.5-3.4-2.5-2.3 0-2.9-.3-2.1-1.2.5-.7.7-1.6.4-2.1-.3-.6.2-.9 1.2-.8 1.3.1 1.7-.6 1.6-2.9-.1-2.5-2.6-15.8-4.9-26.3-.7-2.9-2.5-2.9-2.5.1M522.3 491.2c-1.7 2.1-6.3 11.9-6.3 13.3 0 .7 1.3 2.7 2.9 4.4 1.5 1.6 2.7 3.2 2.5 3.4s1.7 2.3 4.1 4.7c2.5 2.4 4.5 4 4.5 3.5 0-1.8-5.9-29.7-6.3-30.1-.2-.3-.9.1-1.4.8M633.5 493.1c.4.6 0 1.6-.8 2.2-1.4 1.1-8.2 24.5-7.4 25.3.6.6 16.7-12.6 16.7-13.7 0-.9-1.4-3.9-5.4-11.7-1-1.7-2.2-3.2-2.7-3.2-.6 0-.7.5-.4 1.1M917 139.4c-9.6 3.5-19.1 7-21 7.8l-3.5 1.5 3 .7c8.3 1.9 12.4 3 16.3 4.2 2.3.8 4.6 1.4 5 1.4 1-.1-2.5-2.1-4.6-2.5-6.6-1.7-8.5-2.3-7.2-2.5 4.1-.7 6.7-.3 8.3 1.1 1 .9 3.3 2 5 2.4 2.7.6 2.9.8 1.2 1.4-1.6.7-1.5.9 1.1 1.4 1.7.3 4.2.4 5.5.1 1.6-.4 2-.3 1.1.3-.9.7.5 1.4 4.5 2.2 3.2.7 10.3 2.5 15.8 4.1 13.3 3.7 14.6 4 13.9 2.9-.5-.8.1-1 2.4-.8.4 0 .6.8.5 1.7-.2 1 0 1.2.3.4.5-1 .9-.9 1.9.5.7 1 1.6 1.5 1.9 1.2s-1-2.6-3-5.2c-2.4-3.1-4.1-4.4-5.2-4-1.3.4-1.4.2-.4-.4 1-.8 1-1.2-.2-2.2s-1.5-.9-1.9.6c-.2 1-.3.6-.1-.8.3-2.8-2.6-6.5-4.1-5.2-.4.5-.5.3-.2-.4.4-.6-.9-3.1-2.9-5.5-6.2-7.4-11.6-13-12-12.5-.3.3.2 1.2 1.1 2.1s1.2 1.6.6 1.6-1.6-.9-2.3-2-1.7-2-2.3-1.9c-.5 0-8.9 2.8-18.5 6.3M1017.5 162.1c-.7 1.1 15.2 32.3 18 35.3 1.4 1.5 2.5 3.4 2.5 4.3 0 1.9 5.6 12.4 15.5 28.8 4 6.6 8.2 13.8 9.3 16 2.4 4.6 2.9 2.5.8-3.7-.8-2.4-2.2-7.7-3.2-11.8-3.7-16.2-17-61.1-18.4-62-.4-.3-.9-1.4-1.1-2.5-.3-1.3-1.6-2.2-4.4-2.7-6.6-1.4-18.6-2.5-19-1.7M1000 165.2c-5.8 1.6-13.1 3.7-16.2 4.6-3.2.9-5.8 1.9-5.8 2.2 0 .6 6.3 3.9 21.5 11.2 6.1 2.9 16.1 7.9 22.4 11 6.3 3.2 11.5 5.7 11.7 5.5s-4-8.8-9.3-19c-7.9-15.1-10.1-18.7-11.8-18.6-1.1 0-6.7 1.4-12.5 3.1M980.9 177.7c.5.9 8.5 9.9 17.7 19.9 10.5 11.4 17.5 18.2 18.5 18 1.7-.4 17.8-11.8 17.9-12.7 0-.5-29.5-15.1-43.5-21.5-3.3-1.5-7.3-3.3-8.8-4-2.5-1.2-2.7-1.2-1.8.3M977.5 180.2c6.5 28.2 12.2 49.8 13.5 51.2 1.4 1.4 23.5-12.5 22.8-14.5-.2-.4-3.7-4.3-7.8-8.6s-11.3-12-15.9-17.1c-4.6-5-8.8-8.9-9.3-8.6-.4.3-.8.2-.7-.3.3-1.3-1.2-4.3-2.2-4.3-.5 0-.7 1-.4 2.2M1028.4 210.1c-3.2 2.3-6.9 5-8.1 6.1l-2.1 2 3.8 6.6c2.1 3.7 5.3 9.3 7.2 12.5l3.5 5.7.7-8.2c.3-4.6.9-11.5 1.1-15.3.3-3.9.7-8.5 1-10.3.2-1.7 0-3.2-.4-3.2s-3.4 1.8-6.7 4.1M1039 210.8c0 1.1.4 4.2 1 6.9.5 2.6 1.7 9.3 2.5 14.8 1.9 11.7 3.4 19.2 4.6 22 1.5 3.9 10.9 34.1 10.9 35.3 0 1.7 1.9 4.9 6.3 10.6l3.7 4.9v-46.2l-4.2-.6c-12-1.6-15.3-2.3-11.8-2.3 1.9-.1 5.8.3 8.5.8 2.8.4 5.3.5 5.6.2.7-.8-4.2-9.9-19.7-36.4-7.7-13.1-7.4-12.8-7.4-10M1036.6 221.2c-.4 4-.9 11.3-1.2 16.3l-.6 9 4.6 3.2c5.4 3.8 5.9 4 5.2 1.5-.3-.9-1.9-9.5-3.5-19.1-1.7-9.5-3.2-17.5-3.4-17.7-.2-.3-.7 2.8-1.1 6.8M1007 224.9c-12.6 8.4-13.4 9-12.8 9.6 1 1 35.9 9.7 36.5 9.2.3-.4-11.6-20.3-13.4-22.4l-1.8-2.1zM947.3 233.7c3.9 8.8 25 50.8 26.7 53.3 1 1.4 3.6 6 5.9 10.3s4.1 7.4 4.2 7c.9-10.6.9-20.4 0-19.8-1.5.9-1.4-.7.3-3.1 1-1.4 1.8-7.2 2.6-17.5.5-8.5 1.2-17.9 1.5-21 .5-6.7.2-7.1-7.5-8.7-4.7-1-33-5.2-35.1-5.2-.3 0 .3 2.1 1.4 4.7M943.9 234.2c0 .7-.2 4-.5 7.3-1.9 25.6-2.5 34-3.4 48.5-.6 9.1-1.4 20.8-2 26-1.3 12.8-1.2 15 .3 15 1.6 0 43.4-20.7 44.1-21.8.3-.5-1.8-5.4-4.7-11-2.9-5.5-11.4-22.5-19-37.6-7.6-15.2-14.1-27.6-14.3-27.6s-.4.6-.5 1.2M993.5 239.2c.7 2 5.2 10.5 11.1 20.5 1 1.8 2.5 3.3 3.2 3.3 1.5 0 21.3-13.3 23.2-15.5 1.3-1.6 3.1-1-21.5-6.9-8.2-2-15.4-3.6-15.8-3.6-.5 0-.5 1-.2 2.2M989.5 250.7c-.4 6.5-1 17.2-1.2 23.8-.3 6.6-.7 15.3-1 19.2-.2 4-.1 7.3.4 7.3.4 0 2.6-3.5 4.7-7.8 2.2-4.2 4.3-8.4 4.8-9.2 4.2-7.6 8.6-18.3 8.1-19.7-.3-1-1.8-3.6-3.3-5.8s-4.6-7.5-6.9-11.8c-2.4-4.2-4.4-7.7-4.6-7.7-.1 0-.6 5.3-1 11.7M1021.5 256.5c-10.6 7.3-13 9.5-10.4 9.5.6 0 4.1 1.3 7.6 3 3.4 1.6 6.6 3 6.9 3 .4 0 4 1.6 8.1 3.5 8.7 4.1 10 4.3 7.9 1.3-.9-1.2-1.6-3.1-1.6-4.1 0-2.2-5.9-21.8-6.9-22.9-.4-.4-5.6 2.6-11.6 6.7M1045.9 270.2c-.7 4-1.2 8.2-1.1 9.3s2.7 4.2 5.7 7c3.1 2.7 5.5 5.4 5.5 5.9 0 .4-2.1-1.2-4.7-3.8-4.7-4.5-7-5.8-6-3.4.2.7 1 4 1.6 7.3 2.4 11.8 3.1 13.7 4.6 12.5 1.9-1.6 5.5-9.6 5.5-12.4 0-1.9-8.5-28.4-9.4-29.4-.2-.1-.9 3.1-1.7 7M1004.3 273c-1.8 3.9-3.3 8.1-3.3 9.4 0 3.1-1 5.7-1.9 5.1-.5-.2-3.1 3.7-5.8 8.8-2.8 5.1-4.8 9.3-4.3 9.5.9.3 9.1-3.4 34.5-15.8l19-9.3-4.6-2.1c-6.7-3.1-12.1-5.3-14.9-6.1-1.4-.5-5.3-2.1-8.7-3.6-3.3-1.6-6.3-2.9-6.5-2.9-.1.1-1.8 3.2-3.5 7M1040.5 291c-1.6 3.6-4.1 9.8-5.6 13.8l-2.7 7.3 3.1-.6c3.1-.6 12.9-3.5 13.5-4 .2-.2-1.2-6.4-4.6-20-.7-2.8-.8-2.8-3.7 3.5M986.4 311.2c-.3.4-1.4.8-2.4.8s-10.4 4.3-20.9 9.5-19.4 9.5-19.8 9.5-1.6.7-2.7 1.5c-1.7 1.3-.4 2.1 14.3 9.4 8.8 4.5 16.7 8.1 17.4 8.1.8 0 1.9-1 2.5-2.3 1-2.2 1.1-2.2 1.1.5.1 1.6.4 2.8.9 2.8 1.4-.1 14.7-2 17.5-2.6 1.5-.3 2.7-1.2 2.7-2s.7-1.4 1.5-1.4 1.5-.1 1.5-.3c0-.7-4-11.7-5.9-16-3.2-7.5-1.5-5.5 2.5 3 5 10.6 5.1 10.6 8 8 5.8-5.2 6.4-5.7 6.4-5 0 .4 1.4-.6 3.1-2.3 4.5-4.3 13.1-16.2 12.5-17.2-.3-.5-6.3-1.5-13.3-2.1-7.1-.7-15.9-1.6-19.6-2s-7-.4-7.3.1M938 338.3c.1 1.2.7 9.2 1.4 17.7s1.1 15.9.9 16.3c-.6 1 9.6-5.3 21.6-13.3l9.4-6.2-13.9-7.4c-7.7-4-15.1-7.8-16.6-8.3-2.5-.9-2.8-.8-2.8 1.2M984.3 351.4c-7.1 1.4-7.8 1.8-6.6 3.9 1.1 2 20.4 23.5 23.8 26.7l2.8 2.5-.7-4.9c-.3-2.8-1.4-5.9-2.4-7-3.9-4.5-6.6-13.8-5.3-18.3.5-1.7.7-3.4.3-3.7-.8-.9-4.8-.6-11.9.8M976.4 359.2c.3 1.3 1.1 5.2 1.7 8.8 2.2 13.3 4 20.3 5.5 21.8 1.3 1.2 1.3 1.6.2 2.3-1 .7-.9.9.5.9.9 0 1.7-.4 1.7-.9 0-1 3.4-2.2 7-2.4 1.4-.1 2.8-1 3.3-2.1.6-1.5 1.4-1.7 3.8-1.2l3.2.6-4.4-4.7c-2.4-2.7-6.2-6.8-8.5-9.3s-6.3-7.1-8.9-10.3c-2.6-3.1-5-5.7-5.2-5.7-.3 0-.3 1 .1 2.2M1045 387c-.1 1.5-1.4 11.2-2.5 18.7-.7 4.2-.7 4.2 3.2 5.2 9.6 2.5 9.3 2.5 9.3-.1 0-1.4-.4-3.8-.9-5.4s-1.9-6.6-3.1-11.2c-1.3-4.5-2.7-8.2-3.1-8.2-.5 0-.9.6-.9 1.2 0 .9-.4.8-1-.2-.9-1.3-1-1.3-1 0M1010.1 389.7c5.3 6.7 17.3 20.3 18 20.3.5 0 .9-3.9.9-8.6 0-7.2-.2-8.5-1.5-8-.8.3-1.5.2-1.5-.3 0-.8-3.7-2.1-11.5-4.1-5.5-1.4-6-1.3-4.4.7M1004 393.2q0 1.65-1.5 1.2c-.8-.4-1.5-.1-1.5.5 0 .8-.5.9-1.7.2-1.3-.7-2.9-.2-6.3 1.7-2.5 1.4-4.9 2.9-5.4 3.3-1 .9 3.6 2.9 12.4 5.3 3.6 1 7 2.2 7.7 2.8 1.9 1.5 2.1-.4.7-6-1.6-6.1-4.3-11.7-4.4-9M1048.5 434.3c-2.1 5.1-5.5 12.6-7.6 16.7-2.8 5.5-3.8 8.5-3.5 11 .2 1.9.1 2.7-.1 1.7-.6-2.5-2-2.1-4 1-1 1.6-4.2 6.1-7.1 10.1-3 4.1-5.2 7.5-5 7.6 6 4.3 18 11.7 18.4 11.4.7-.8 2.7-11.1 2.8-14.3 0-1.7-.3-4.1-.6-5.5s-.3-1.9-.1-1.3c1.1 3.2 2.1 0 5.7-19 2.1-11.1 4.3-21.9 4.8-24.1 1.6-6.5.4-4.9-3.7 4.7M1051.7 440.5c-2.7 10.3-6.7 31.2-6.7 35 0 1.9.7 6 1.6 9.2.8 3.2 2.4 9.1 3.4 13.2 1 4 2.1 7.5 2.3 7.8.7.6 1.6-10.4 2.4-29.7.4-9.6.9-16.5 1.1-15.3.4 2.4 1.6 3 2.7 1.4.3-.6 3.9-1.5 8-2.2 4.2-.7 7.4-1.7 7.3-2.1-.2-.5-4.1-2.9-8.7-5.4-7.8-4.3-8.3-4.4-7.7-2.2.4 1.2.9 3.9 1.2 5.8.4 3.1.3 3-1-1-.9-2.5-2-5.4-2.6-6.5-.5-1.1-1.1-4.9-1.2-8.5l-.3-6.5z"/><path d="M1088 445.1c-5.2.4-13.9.7-19.4.8-11.9.1-11.8.9 1.2 7.2l8.7 4.1 4-2.2c3.3-1.9 13.8-8.4 15.4-9.7 1-.7-1-.8-9.9-.2M1056.6 474.2c-.7 3.4-1.7 35.8-1.1 35.8.3 0 1.3-.8 2.3-1.8 1-.9 3.9-3.4 6.5-5.6 4.5-3.7 4.6-4 3.3-6.5-2-3.8-6.2-13.9-8.2-19.4-.9-2.6-1.8-4.7-2-4.7s-.6 1-.8 2.2M267.1 173.3c-1.3 2.3-4.1 7.6-6.4 11.7-2.2 4.1-5.7 10.6-7.8 14.3-3.6 6.3-3.7 6.8-1.6 6.1 2.9-.9 47.7-25.7 47.7-26.4 0-.5-27.7-10-29-10-.3 0-1.6 1.9-2.9 4.3M272.8 195.3c-13 7.3-23.9 13.5-24.3 13.8-.8.9 12.8 10.9 14.8 10.9 1.8 0 7.7-6 20.3-20.5 4.8-5.5 10.1-11.7 12-13.8 1.8-2 2.7-3.7 2.1-3.6-.7 0-11.9 6-24.9 13.2M292.7 190.8c-6.7 8-14 16.5-21.2 24.7-2.9 3.3-5.2 6.4-5.2 7 .1 1.6 16.9 13.7 17.7 12.8 1.4-1.6 15.4-50.2 14.6-51-.1-.1-2.8 2.8-5.9 6.5M247.4 215.7c.3 2.1.8 9.7 1.2 16.9.4 7.3 1 13.7 1.4 14.4.5.9 4.8-.1 16.1-3.7 8.4-2.7 15.4-5.4 15.6-5.9.3-1.1-16.7-13.5-17.7-12.9-.4.3-3.3 5-6.4 10.5-5 8.8-7.6 12.4-7.6 10.5 0-.3 2.7-5.1 6.1-10.6 3.3-5.5 5.9-10.6 5.7-11.3-.4-1.8-12-11.6-13.6-11.6-1 0-1.2 1-.8 3.7M245.1 219c-.4 1.9-7.1 36.6-7.1 36.8s1.6-.6 3.5-1.8 3.5-1.9 3.5-1.6-1.9 1.7-4.1 3.2l-4.1 2.6.5 7.1c.4 4 .7 8.3.7 9.7.2 2.8 2.3-2.7 6.7-17 2.3-7.4 2.6-10 2.4-20.5-.2-9.5-1.4-21.1-2-18.5M302 235.9l-16.5 2.6-.3 15.9c-.2 12.7.1 16.6 1.3 19.2 1.9 4 1.9 8.3.1 11-1.4 1.9-2.8 21.4-1.6 21.4.3 0 1.2-1 1.9-2.3 3.1-4.9 34.1-67.8 34.1-69.2 0-1.8 1.2-1.9-19 1.4M279.5 240.1c-1.1.4-8.2 2.7-15.7 5-11 3.4-13.5 4.5-12.6 5.6.6.7 4.6 4.5 8.9 8.4l7.8 7 4.2-7.3c5.2-8.9 10.2-18.8 9.8-19.2-.2-.2-1.3 0-2.4.5M282.7 242.6c-.4 1.1-3.7 7.2-7.3 13.5l-6.5 11.4 2.3 5c1.2 2.7 2.9 6.1 3.8 7.5s1.7 3.8 1.8 5.5c.2 3 4.3 14.6 6.2 17.5.7 1 1-1.4 1-7.6 0-8.8-.1-9.3-3-12.4-1.6-1.8-3-3.7-3-4.4 0-1.3 2-4.5 2-3.2 0 .5.9-.3 2-1.7 1.9-2.4 2-3.8 1.8-17.9-.2-8.5-.6-14.4-1.1-13.2M245.1 261.7c-1.9 6-4 12.5-4.8 14.7-1.1 3-1.1 3.7-.1 3.3.7-.3 4.9-2.1 9.3-4.1s7.2-3 6.3-2.3-5.1 2.9-9.2 4.8-7.5 3.7-7.6 4c0 .8 41.5 25.9 42.8 25.9.6 0-.6-4.2-2.5-9.3-4.1-10.6-10.3-28-10.3-28.6S249.6 251 249 251c-.3 0-2 4.8-3.9 10.7M240.5 288.7c.7 2.1 2.4 6 3.8 8.8 1.3 2.7 3.2 7.2 4.2 9.9l1.9 4.9 9-.7c5-.3 11.6-.8 14.6-1.1 10.3-.9.9 1.2-11.3 2.5-6.4.7-11.7 1.4-11.7 1.6 0 .7 6.5 11.3 12.3 20.2l6.1 9.3 1.8-2.3c1-1.3 1.8-2.8 1.8-3.3.1-.6 1.2-3.5 2.6-6.5 3-6.6 2.6-4.3-1.1 5.9-2.2 6.1-2.4 7.6-1.3 8.7 1.2 1.2 13.9 4.4 17.4 4.4 1.9 0 1.6-1.4-5.2-32-.4-1.8-.3-2.1.4-1 1 1.5 4 13.4 6.1 24 1.8 8.8 1.6 8.7 12 3.7 10.1-5 19.1-10.5 19.1-11.7s-1.7-2.3-19.9-12.5c-13.4-7.5-17.5-9.4-18.2-8.4-.6 1.1-.9 1-1.5-.4-.3-.9-1.2-1.7-2-1.7s-1.4-.4-1.4-.9c0-.7-21.6-14.1-36.2-22.5l-4.7-2.6zM235.7 292.2c-1.7 5.3-3.9 16-3.5 16.3 1 .5 15.2 3.5 15.5 3.2.6-.6-2.2-7.7-6.4-16.5l-4-8.3zM321.9 337.9c-1.3 1-6.9 4.1-12.4 6.9-15.2 7.7-14.7 6.8-6.8 13.3 6 4.8 16.5 11.9 17.8 11.9.9 0 2.5-8 3.1-16.3.7-8.6.2-10.1-2.4-7.5-1.6 1.6-3.5-.3-3-2.8.3-1.4 1.2-1.9 3.6-1.8 2.1.1 3.2-.3 3.2-1.1 0-.7.3-2 .6-2.9.8-2.1-.8-2-3.7.3M274.7 357c.3 4 .1 7.5-.3 7.9-1.6 1.1-5.3 8.8-5.9 12.1-.5 3-.4 3.2 1.1 1.9 3.5-2.8 21.4-24.6 21.4-25.9 0-.4-1.9-1-4.2-1.3-2.4-.3-6.2-.9-8.5-1.3l-4.2-.6zM293.6 357.2c-.3 1.3-.6 3.9-.6 5.9s-.9 5.6-1.9 8c-1.1 2.4-3.1 8.9-4.6 14.4-1.4 5.5-3.1 10.4-3.7 11-.8.7-.8.2-.3-2 1.3-5.1 3.4-14.6 5.6-25 1.2-5.5 2.5-10.8 3-11.8 1.7-3-.5-1.8-2.7 1.6-2.4 3.6-13 16.5-17.7 21.4l-3.1 3.3 5.1 5.7c8.9 10.3 7.3 10.5 27.8-3.3 9.9-6.5 18-12.4 18.1-12.9.3-.8-21-17.2-23.6-18.3-.4-.2-1 .7-1.4 2M201.1 406.1c-7.8 15.5-14 28.3-13.8 28.5s5.7-3.1 12.3-7.4c6.5-4.3 14.7-9.5 18.2-11.6l6.2-3.9-.1-9.6c-.1-11.8-1-18.6-2.6-18.6-.6 0-1.5-.3-1.9-.8-1.2-1.1-4.4-.8-4.4.5 0 .6-.3.9-.6.6-.3-.4 0-1.6.6-2.8s1-2.4.7-2.6c-.3-.3-6.8 12.2-14.6 27.7M265.7 387.7c-.8 1.4-5.7 17.7-5.3 18 .3.4 17.7-5.5 18.4-6.2.6-.6-10.8-12.5-12-12.5-.4 0-.9.3-1.1.7M220.1 416.2c-2.4 1.7-10.7 7.2-18.6 12.3l-14.3 9.2 12.1.7c6.7.4 15.5.9 19.5 1.3 5.4.4 7.2.3 7.2-.7 0-.7-.7-1-1.5-.6-1.1.4-1.4 0-1.1-1.7.7-3.3.7-3.3 1.5-1.2.6 1.6.4-17.2-.2-21.2-.1-.6-2.1.2-4.6 1.9M187 440.3c0 .3 2.3 2 5.2 3.9 2.8 1.8 6.3 4.1 7.7 5.1 3.2 2.2 5.9 1.6 16-3.1l7.6-3.7-4-.6c-5.5-.9-32.5-2.2-32.5-1.6M514.1 537.2c13.1 12.5 13.3 12.6 20.3 6.4 2.8-2.4 3.7-3.9 3.2-5.2-.3-.9-.9-1.4-1.2-1.1s-2.7-.1-5.2-.9c-4.2-1.3-19.2-4.3-21.6-4.4-.6 0 1.5 2.4 4.5 5.2"/></svg>