<svg xmlns="http://www.w3.org/2000/svg" width="1706.667" height="960" viewBox="0 0 1280 720"><path d="M0 360v360h1280v-73.4c0-57.8-.3-73.6-1.2-74-1-.5-1-.7 0-1.2.9-.4 1.2-58.6 1.2-286V0H0zM583.7 45.5c1.6.8 12.8 4.8 24.9 8.9 12 4.1 29.8 10.2 39.4 13.5s17.8 5.7 18.3 5.4 1.4.2 2 1c.7.8 6.6 4.3 13.2 7.7 12.4 6.5 21.6 11.9 20.2 12-.4 0-6.2-3.1-13-6.8-12.8-7.2-21.3-10.9-22.4-9.8-.3.3 0 .6.8.6 1 0 1.1.2.2.8-1.3.8-3 13-3.5 25l-.3 7.3 7 3c3.9 1.7 13.7 6.2 21.8 10 8.1 3.9 15.5 6.8 16.3 6.5 2.1-.8 2.1-30.8-.1-33-2.4-2.3-1.8-2.8 1.3-.9 1.5.9 2.9 1.9 3.2 2.1.2.1-.2.7-.9 1.1-1.1.7-1.1 2.8-.1 11.7.7 6 1.2 13 1.1 15.6 0 2.6.4 5 .9 5.3s5.5-.6 11-2.1c5.6-1.4 10.3-2.4 10.6-2.1.3.2-3.2 1.4-7.8 2.6-10.9 2.9-13.8 4.1-13.8 5.6s2.3 7 7.3 17.7c7.5 15.8 14.9 33.9 14.2 34.7-.3.2-1.6-2.1-2.9-5.2-1.4-3-3.3-6-4.2-6.5-1-.6-1.7-2.4-1.8-5.3-.2-4.8-9.7-25.5-13.7-29.8l-2.2-2.3-5 9.9c-2.7 5.4-5.3 10-5.6 10.3-.4.3-2.2 3.9-4 8-1.9 4.1-4.2 8.9-5.2 10.6l-1.9 3.1 5.4 4.9c9.6 8.8 16.7 14.2 18.6 14.4.5 0-.2-24.4-1.4-46.5-.3-6.1-.3-10.4 0-9.6.5.9.8 1 1.4.2.3-.7.6 1.7.6 5.1-.1 3.5.3 16.7.8 29.4l.8 23 8.7-.2c9.6-.3 9.1.1-1.3 1.1l-6.8.7.7 8.5c.4 4.6 1.4 11.9 2.2 16.1s1.6 10.4 1.9 13.7c.2 3.3 1.1 11.6 1.9 18.5.8 6.8 1.3 12.6 1.1 12.8-.6.5-2.6-12.1-2.6-15.9 0-2-.4-6-.9-9s-2-13.3-3.2-23.1c-2.6-19.8-3.1-20.2-6.8-6-1.2 4.5-2.7 9.9-3.4 12-1.6 4.5-.5 8.6 5.5 21.9.6 1.1.9 2.6.7 3.2s-2.2-3.4-4.4-8.9-4.5-10-5.2-10-1.7-.9-2.3-2-4.7-4.8-9.3-8.2c-4.5-3.4-9.9-7.8-12-9.7s-4.1-3-4.6-2.5c-.8.9-2.4 9.9-3.6 19.9-.3 2.7-.8 6.2-1.1 7.7-.5 2.6-.3 2.8 2.7 2.8 1.8 0 6.6-1.2 10.7-2.6s7.6-2.3 7.8-2.1c.3.2-3.1 1.6-7.3 3.1-13.7 4.7-15 5.9-9.4 8.7 1.8.8 3.6 1.9 3.9 2.5 1.4 1.9 15.3 12.2 28.3 21 4.8 3.2 9.2 6.7 9.9 7.7 1.4 2.3 1 2.1-7.5-4.2-3.4-2.5-9.4-6.9-13.4-9.6-4-2.8-9.4-6.6-11.9-8.6-7.1-5.3-10.2-7.2-10.2-6.1 0 .6 2.2 4.3 4.9 8.4 4.3 6.5 11.6 17.9 15.8 24.7 1.5 2.4 1.6 2.4 14.1 1.7 8-.5 12.9-1.2 13.4-1.9.4-.7.8-2.6.9-4.2 0-1.7.3-2.4.6-1.7.4 1 .9 1 2.3-.3 1.7-1.5 1.7-1.4 1.1 1.7-.4 1.9-.2 5.1.5 7.5 1.1 3.6 1.1 4.1-.2 3.6-.8-.3-1.4-1.1-1.4-1.8s-1.8-1.5-4.2-1.8c-6.4-.9-23 .3-25.4 1.9-1.9 1.2-2.2 1.1-2.7-.6-.3-1.1-1.3-2-2.4-2-1 0-2.5-.5-3.3-1.1-1.1-.8-.7-.9 1.8-.4l3.3.7-3.7-5.9c-7.8-12.3-16.6-25.2-17.8-26.2-1.1-.9-1.4 0-2 4.1-.8 7.1-.7 18.1.2 19.3 1.1 1.5 4.4 3.2 8 3.9 1.7.4 3.5 1.2 3.8 1.8.5.7-.2.8-2.2.3-7.3-1.9-9.4-2.2-9.9-1.5-1 1.5 9.1 27 10.6 27 .4 0 1.9-1.6 3.5-3.5 3.3-4.2 3.9-4 1.9.8-1.8 4.5-1.9 4.7 0 4.7.7 0 1.8.6 2.2 1.3.4.8 1.7 1.9 2.8 2.5s1.4 1.2.8 1.2c-1.8 0-1.6 2 .1 2 .7 0 1.6.9 1.9 2.1.3 1.1 1.5 2.3 2.6 2.6 1.2.3 2.1.9 2.1 1.3s1.7 1.8 3.7 3c3.6 2.1 3.8 2.1 5.1.3 1.3-1.7 1.4-1.7.7.5-.5 1.7-.1 2.4 1.7 3.1 2.3 1 2.3 1-.4 1-2.4.1-2.8.5-2.8 3.2 0 1.7-.4 2.8-1 2.4-.5-.3-.7-1.3-.4-2.3.5-1.6.5-1.6-.5 0-2.2 3.3-1.3 13.3 1.3 15 .7.5 1 4.2.9 10.2-.2 5.4.1 9.8.7 10.1.5.3 3.3-4 6.1-9.7 8.8-17.7 10-20 10.6-19.5.8.8-12.6 27.5-15.3 30.4-1.3 1.4-2.4 2.9-2.4 3.4 0 .4 2.1 2.5 4.8 4.5 2.6 2.1 6 5.1 7.6 6.6 2.7 2.6 6.4 4 5.1 1.8-.7-1.2 2.3-36.2 3.5-40.5 1.3-4.5.2 13.9-1.7 27.9-.9 7.2-1.2 12.1-.6 12.5.6.3.5 1.5-.2 2.8s-1.4 2-1.8 1.7c-.3-.3-1.6.1-2.9.9-2.3 1.4-16.5 6.1-34.3 11.3-13 3.9-12.8 3.7-11 8.1.8 2 1.3 3.8 1.1 4-.2.3-1-1.2-1.7-3.1-.7-2-1.9-3.6-2.6-3.6-1.2 0-4.4 4.2-10.5 13.8-1.1 1.8-2.3 3-2.6 2.8-.3-.3.8-2.4 2.4-4.6s3.4-4.8 3.9-5.8c.6-.9 1.9-3 2.9-4.5s1.7-3 1.4-3.2c-.7-.7-25.9-3.5-31.8-3.5h-5.5l6.6 6.3c10 9.4 18.6 16.7 19.8 16.7.6 0 1.1.7 1.1 1.5s-.5 1.5-1.2 1.5c-.6 0-2 .8-3.1 1.8-1.9 1.7-1.9 1.6-.6-.6 1.3-2.1 1.1-2.5-3.6-7-2.7-2.6-8.3-7.3-12.2-10.5-4-3.2-7.3-6.2-7.3-6.7 0-.6-.5-1-1.1-1-.8 0-1 1.9-.6 6.2.6 7.3 4.5 36.8 5.3 40.7l.5 2.6-1.5-2.5c-.8-1.4-1.6-4.8-1.6-7.5-.2-7.7-2.4-19-3.8-19.1-.6-.1-2.6-.2-4.3-.3-1.9-.1-2.8-.5-2.3-1.2.3-.6 1.7-.9 3-.6 4 .7 4.7-.6 2.8-5.1-1.5-3.8-2.4-4.7-4.7-4.3s-8.3-4.2-12.9-9.8c-.9-1.1-3.2-1.3-10.7-.8-5.3.3-10.6 1-11.8 1.4-2.5.9-2.9.5 20.1 24.8 7.3 7.7 14.6 15.5 16.1 17.3 3.4 4 11 8.6 13.1 7.8.8-.3 2.1-2.1 2.9-3.9.8-1.9 2.1-4 3-4.7 1.3-1.1 1.2-.6-.3 2.1-1.1 1.9-2.3 4.4-2.7 5.6l-.6 2.2 7.2-2.4c4-1.4 7.5-2.3 7.7-2 .3.2-.4.8-1.4 1.1-1 .4-4.1 1.5-6.7 2.6-2.6 1-5.7 1.8-6.8 1.8-4.5 0-3 3 6.3 12.3 5.1 5.1 10.1 9.9 11 10.6 2 1.5 2.9.8 6.1-4.2 1-1.6 2.1-2.6 2.4-2.3s.1 1.1-.5 1.8c-1.6 2.1-5.2 8.8-5.2 9.9 0 .5-1.2 2.2-2.7 3.7l-2.6 2.7 1.7-2.8c1-1.6 1.5-3.1 1.1-3.5-1.1-1.1-31.9 15.4-32.3 17.4-.2.8-1.1 1.4-1.9 1.4-1.5 0-20.6 14.9-22.9 17.9-.9 1.1-2.5.7-9.5-2.7-20.6-9.8-21.1-10-24.4-8.6-1.6.8-5.5 2.1-8.5 3s-5.8 2.1-6.2 2.7c-.4.8-1 .8-2 0-.7-.6-4.6-2.4-8.7-4.1-7.2-3-7.4-3.1-10.4-1.4-1.7.9-5.8 3.2-9.1 4.9-3.4 1.8-6.5 3.9-7.1 4.6-1.1 1.4-9.8 3.7-14.8 3.8l-3.2.1 3 .9c9.6 3.1 19.2 5.2 32 6.9 8 1.1 15.6 2.2 17 2.6 1.4.3 3.3.3 4.2-.1 1.4-.6 1-1.1-2.2-2.1-2.2-.7-3.1-1.3-2-1.3s3.8.6 6 1.4c4.6 1.7 11.3 1.9 20.5.5 3.6-.5 10.6-1.2 15.5-1.5 9.9-.6 24.8-2.2 31-3.4l4-.8-3-.7c-1.6-.4-3.4-.9-4-1.1-.5-.2 3.2-.4 8.3-.4 8.5-.1 9.2-.2 9.2-2.1 0-1.1-.9-2.9-2-4-1-1-2.9-3.8-4-6.2-1.2-2.4-1.4-3.4-.6-2.3 4.8 6.4 9 11.5 9.6 11.5.3 0 1.9-2.7 3.5-6s3-5.8 3.2-5.7c.2.2-1.4 4-3.4 8.5-2.4 5-4.6 8.5-6 9.1-1.2.6-7.9 4.7-14.8 9.2l-12.6 8.2 2.8 3 2.8 3-3.2-2.1c-4.4-3.1-6.5-2.9-21.3 2.6-.8.3-1.9.4-2.4.3-.4-.1-5.2.8-10.5 2-24.7 5.5-21.7 5.4-38.6 1.3-8.2-2-18.4-5-22.5-6.6l-7.5-2.9-2.2 2.6c-1.3 1.4-2.3 2.2-2.3 1.6 0-.5.5-1.3 1-1.6 2.1-1.3.8-3.7-5.8-10.2-7.5-7.4-10.8-10.3-12-10.3s-4.9-6.2-6.2-10.5c-.7-2.2-3.7-9.3-6.6-15.8-2.9-6.4-5-11.7-4.8-11.7.7 0 10.9 22.1 12.5 27 .8 2.6 1.5 3.7 1.7 2.7.2-.9.8-1.5 1.3-1.2.5.4.9.1.9-.6s.3-.9.6-.6c.4.4.1 1.4-.6 2.3-2 2.3.3 3.4 7.6 3.4 8.8 0 15.5-1.1 16.1-2.6.5-1.4-1.7-4.4-9.5-12.8-4.3-4.6-4.6-4.8-6-3-1.3 1.8-1.4 1.8-.7-.3.9-3.3-1.3-5.2-19.3-16.7-2.3-1.5-5.4-3.1-6.8-3.6-1.3-.5-2.7-1.8-3-2.7-.7-2.2-1.8-4.3-5.7-10.6-1.7-2.6-2.8-5-2.5-5.3s2 1.9 3.7 4.9c3.5 6.1 7.2 9.9 7.8 8 .5-1.3 9.7-13.1 11.6-14.8.6-.6-.1.6-1.4 2.5-7.9 10.9-9.9 13.8-9.9 14.8s11.1 9.2 12.5 9.2c.4 0 3.5 2.1 7.1 4.6 3.9 2.8 6.4 4 6.4 3.2s-1.5-6.8-3.4-13.4c-3.8-13.4-5.6-22.4-2.5-12.4 5.5 17.9 7.4 23.5 8 23.8.4.2.5 1.1.2 2.2-.5 1.7 1.1 3.8 10.8 14.2 1.4 1.5 2.9 2.8 3.2 2.8.5 0-.5-4.9-2.1-9.5-.6-1.7-1.6-6.4-2.2-10.5-1.7-11.6-1.8-11.8-4.6-8.4l-2.4 2.9 1.1-3.3c.6-1.7 1.5-3.4 1.9-3.7 1.7-1.1-.5-5.1-5.9-10.7-3.1-3.2-6.2-5.8-6.8-5.8-.7 0-1.3-.5-1.3-1.1 0-.5-.4-.7-1-.4-.5.3-1-.1-1-1s-.9-1.9-2-2.2-2-1.2-2-1.9c0-2-3.5-3.5-34.9-15.5-1.3-.5-2.1-1.2-1.8-1.5.5-.6 12.2 3.2 14.2 4.5.6.4 5.1 2.5 10.2 4.5 12.1 5 14.2 4.6 14.5-2.7l.2-5.2.3 5.2c.2 2.9.7 5.3 1.1 5.3 1-.1 6.5-6 8.4-9.1 2.2-3.6 8.6-11 16.8-19.4 7-7.3 14-16.8 14-19.1 0-2.2-1.6-2.5-16-3.1-13.8-.6-14-.6-14 1.6 0 1.1-.6 2.1-1.2 2.1-3.6.1-6.4 10.4-7 25.7-.1 2.9-.5 5.3-.9 5.3s-.6-2.6-.3-5.8c1.2-17.9 1.3-21 .6-24.2l-.8-3.4-10 10c-8.9 8.9-12.9 14.4-10.4 14.4.4 0 1.4 1.5 2.1 3.2q1.65 4.2 12.6 19.8c1.7 2.4 1.7 2.4-.1 1-1.7-1.3-15.7-19.7-17.5-22.8-.6-1.1-1.6-1-4.9.7-5.1 2.6-5.5 2.1-.7-.8 1.9-1.1 3.5-2.5 3.5-3.1 0-1.8-11.7-19-12.4-18.3-.3.3-.6-.3-.6-1.5 0-2.2-4.7-4.8-13.3-7.5-2.1-.7-5-2.2-6.5-3.5s-2.2-2.1-1.7-1.9c.6.2 2.6 1.2 4.5 2 4.1 1.9 11.9 4.7 13.1 4.7 1.1 0-8.4-13.8-13.8-20.1-2.4-2.8-4.3-5.5-4.4-6.2 0-1.1-.7-4.9-2.3-13.2-1.7-8.8-5.4-16.8-4.3-9.5.2 1.9 0 4.4-.6 5.5-1 1.9-1.2 1.8-1.8-1-.4-1.9-.7.2-.8 5.8-.1 5.7.3 8.6.9 8.2.6-.3 1.1-2.7 1.2-5.3.1-3.3.4-2.1.9 3.8 1.2 13.7 2.6 23.6 3.3 24.8.3.6.1 1.4-.5 1.8-.7.4-.9.3-.5-.4.3-.6-.3-1.3-1.4-1.7-1.1-.3-2-1.1-2-1.7s-1-1.9-2.2-3c-2-1.7-2.3-1.8-2.8-.3-1.2 3.4-2.8-.9-3.5-9-.4-4.4-.9-8.3-1.2-8.8-.2-.4.3-.7 1.1-.7.9 0 1.6-.8 1.6-1.8 0-1.4.2-1.5 1-.2.8 1.2 1 1.2 1.1-.5s.2-1.6.9.5c.5 1.6.8-.4.8-6-.1-7-.2-7.7-.8-4-.7 4.4-.7 4.3-.8-1.9-.2-6.7 1.3-17 3-20.7.6-1.2.8-3 .4-4-.3-1.1-.8-6-1.1-10.9-.7-11.1-1-12.3-3.8-12.7-1.2-.2-2.3-1.1-2.5-2.1-.4-2.2 2.1-2.3 4.2-.1.9.8 1.7 1.2 1.7.7.2-1.3 1.8 8.5 2.8 17.2.5 4.4 1.6 10.6 2.5 13.8s1.6 6.9 1.6 8.3c0 3.7 2.9 17.2 4.6 21.5 1.3 3.1 2.3 4 6.2 5.2 6.2 2 20.5 3.3 17.8 1.6-1.3-.8-1.5-1.3-.6-1.9.7-.5-.2-1-2.4-1.4-2-.4-3.6-1.1-3.6-1.7s-.4-.7-1-.4c-.5.3-1 .2-1-.3s-1.3-2.2-2.8-3.8c-1.7-1.8-3.8-6.1-5.2-10.7-1.4-4.2-3.1-7.7-3.7-7.7-.8 0-1.3-1.3-1.3-2.9 0-3.6-.9-6.3-2-5.6-.4.2-.5-.7-.2-2.2.3-1.4 1.7-3.3 3.3-4.2s2.9-2.4 2.9-3.4.4-1.6.9-1.3 1.2-.1 1.5-.9c.8-2.2-2.9-.2-7.1 3.8-1.8 1.7-3.4 2.9-3.7 2.6-.2-.2 0-2.4.4-4.9s.9-3.8 1-3 .2 1.9.1 2.3c-.3 1.7 1.8.1 8.3-6.1 6.2-5.8 8-9.2 5.6-10.7-.5-.3-1-1.3-1-2.2 0-1.2.3-1.3 1.4-.4s1.7.4 2.9-2.6l1.6-3.8.1 4c0 2.4.3 3.5.8 2.7.5-.7 5-2.3 10.1-3.6 7.9-2 9-2.5 7.9-3.7-.7-.8-2.2-2.6-3.3-4.1-1.1-1.4-4-5-6.4-8-3.3-3.9-2-2.9 4.7 3.6 9.1 9 9.1 9 13.9 8.7 2.6-.1 5.3-.7 6-1.2 1.5-1.3.9-6.9-.9-8-2.1-1.4-26-9.3-28.7-9.6-1.3-.1-4 .5-5.9 1.3-4.8 2-5 1.2-.3-1.4 4.4-2.5 4.6-2.9 6.1-16.9.5-5 1.2-9.7 1.3-10.5.2-.7.2-1 0-.5-.3.4-1 .4-1.5.1-.6-.4-1.7.1-2.5 1.1-.7 1.1-1.3 1.4-1.3.8s1.1-2.5 2.5-4.1c1.4-1.7 2.5-3.5 2.5-4.1s-1.8-2-4.1-3.1c-2.3-1.2-3.9-2.4-3.6-2.6.3-.3 2.2.4 4.3 1.5 2 1.1 4.1 1.8 4.6 1.5.4-.3.8-3.5.8-7.2 0-9.2 1.2-23.4 1.9-22.7.3.3.4 6.3.2 13.3l-.3 12.7 3.1-4.5c1.7-2.5 3.8-6.6 4.7-9.3.8-2.6 2-4.7 2.5-4.7 2 0-1.9 10.3-7.3 19.1-1.5 2.5-2.8 5-2.8 5.6 0 1.5 15.1 8.1 17.3 7.5 1.7-.4 1.8-1.1 1.2-8.6-.4-4.5-1.3-9.4-2.1-11s-1.4-3.6-1.4-4.4-.9-3.3-1.9-5.6c-1.1-2.3-2.2-5.3-2.5-6.7s-1.6-3.1-2.8-3.8c-2-1-2-1.1-.3-.7 1.1.2 2.7.7 3.6 1 1.3.6 1.7-2.2 3.1-20.6 1.7-22.5 1.9-30.8.8-30.8-2.1 0-18 15.3-18 17.3 0 .8-.7 2-1.5 2.7-1.9 1.6-1.9.7-.1-2.8 1.3-2.4 10.4-11.8 17.8-18.3 2.3-2.1 3-4.3 5.7-17.9 3.8-19.6 4.9-31 3.1-31-.8 0-2.1.6-2.9 1.4-2.7 2.4-11.5 8.5-14.6 10.1l-3 1.6 3-2.6c1.7-1.4 6.7-5 11.2-8 6.6-4.5 8.4-6.2 9.3-9.3.7-2 1.9-5.2 2.7-7 .9-1.8 2.6-6.5 3.8-10.5 1.3-3.9 2.4-6.5 2.4-5.7.1 1.9-3 11.5-6.3 19.9-1.4 3.6-2.4 6.6-2.2 6.9.3.2 2-.1 3.8-.7 4-1.3 26.1-5.1 29.9-5.1 1.4 0 3.4-.6 4.5-1.4 1.8-1.4 1.7-1.6-2.6-5.6-2.5-2.3-6.6-6.2-9.2-8.6-2.6-2.5-6.9-6.3-9.5-8.5l-4.8-4-1.7 2.2c-1 1.2-1.8 1.8-1.8 1.3 0-.4-1.1.3-2.5 1.6s-2.8 2.1-3.1 1.7c-1.1-1 6.8-7.8 11.4-9.8 5.7-2.5 6.5-2.4 2.2.2l-3.4 2.1 4 3.7c5.5 4.9 18.2 16.2 21.9 19.4l3 2.6 6-6.4c3.3-3.5 11.2-11.9 17.5-18.7 6.3-6.7 16.2-17.2 22-23.3 10.4-10.9 10.5-11 7.5-11.3l-3-.4 3-1.3c4-1.8 7.6-1.8 11.2 0m389.8 75.1c.5.7 8 5.3 16.5 10.2 17.6 10.1 32.6 19.2 38.6 23.3 2.3 1.6 4.3 2.6 4.5 2.4.8-.8 6.9 5.1 7.3 7 .2 1.1 2.3 6 4.5 10.9 2.3 4.9 4 9.4 3.7 10-.2.6-.5.4-.5-.5-.1-.9-.8-2.2-1.6-2.9-1.3-1.1-1.3-.7.1 3.1 2.3 6.6 16.7 58.2 18.3 65.9l.7 3.5 1.2-5.3c.7-2.9 1.2-6.2 1.2-7.3 0-3-2.8-12.7-5.1-17.5-2.7-5.8-2.3-6.8.5-1.3 1.3 2.6 3.6 8.5 5 13.2s3 8.7 3.4 8.9c.8.3 5.4 16 4.8 16.5-.2.2-1.5-3.5-3.1-8.2-1.5-4.7-3.1-8.7-3.5-9s-1.3 2.5-2 6.2c-1.4 7.4-1.4 7.6 6.2 11.1 3.6 1.6 3.7 1.9 3.7 6.7 0 2.7-.7 12.9-1.4 22.5l-1.4 17.5.7-16c.4-8.8.7-18.7.7-21.9v-5.9l-4.7-2.8-4.8-2.8-.2 9.7-.2 9.7-.3-9.5c-.2-5.2-.7-9.8-1.1-10.1-.4-.4-3.6-1-7.2-1.3-3.6-.4-8.4-.9-10.7-1.2-2.4-.4-4.3-.3-4.3 0 0 .4.7 2.3 1.6 4.4.8 2 1.7 4.8 1.9 6.2s2.2 8.1 4.4 15c3.6 10.9 4.8 13.2 9.1 18 3.3 3.7 4.9 4.9 5 3.7.1-3.8 1.8-1.4 1.8 2.7.1 2.4 1.3 7.4 2.8 11 2.5 6.3 4.7 9.6 3.8 5.9-.2-1 0-4.1.5-6.8l.9-5 .1 6.7c.1 8.2 1.6 9.6 2.6 2.5.4-2.8 1.1-7.2 1.5-9.7.8-4.4.8-4.4.5 1-.3 3-.7 7.7-1 10.5-.4 3.6-.3 4.6.4 3.5.6-.8 1.1-1.1 1.1-.7 0 1.5-2.3 5.2-4.7 7.5-1.4 1.3-2.2 2.9-1.9 3.8.3.8-.2 3.4-1.2 5.7-1.2 3-1.7 6.8-1.6 13.7.1 9.2.2 9.9 5.7 22.6 3.2 7.3 5.7 13.7 5.7 14.4 0 .6.4.8 1 .5.5-.3.7 0 .5.7-.6 1.5 1.2 7.1 10.3 31.5 6.9 18.7 6.8 18.3 9.1 18.3 3.1 0 3.1-1.1-.5-8-1.9-3.7-3.4-7.1-3.4-7.6s-1.1-2.5-2.3-4.4c-2.7-4-9.9-20.2-9.2-20.8.2-.2 1.8 2.7 3.6 6.4 1.7 3.8 4.8 10.3 6.9 14.4 7.8 15.4 10.1 21.6 9 24.2-1 2.2-1 2.2-.5-.5.6-2.9.3-3-3.4-2-2.1.5-2.3 1-1.8 4.7l.6 4.1-1.3-3.5c-.8-1.9-1.8-3.4-2.3-3.3s-3.4 1.8-6.4 3.8c-2.9 2.1-7.6 4.8-10.4 6.2-2.7 1.4-5.3 3-5.6 3.5s-2.9 1.1-5.6 1.3c-6.3.5-12.4 1.5-14.1 2.5-1 .5-.1 1.5 2.9 3.2 3.5 2.1 4.8 2.4 6.4 1.6 1.9-1.1 1.9-1 .3.9-2 2.2-2.2 6-.7 11.8.6 2.2 1.5 6.6 2 9.8.8 5.4 2.6 10.3 3.4 9.5.9-.8-2-15.5-3.3-17-1.1-1.3-1.2-2.4-.4-4.8.6-1.7.9-3.7.6-4.4s.2-1.6 1.1-2c.9-.3 1.4-.2 1.2.2-.7 1.1 1.2 12.1 2.8 16.7 3.7 10.7 2.5 17.1-5.5 28l-4.8 6.7 1.4 5.1c1.6 6 1.8 10.3.5 11.1-.5.3-3.1-.2-5.7-1.1q-7.5-2.4-8.1-2.4c-.2 0-2.1-.6-4.4-1.4l-4.2-1.5-5.1 4c-2.8 2.2-7.1 5.7-9.6 7.7l-4.5 3.6 4.5-4.4c2.5-2.4 6.5-6 8.9-8l4.4-3.6-10.1-6.9c-9.1-6.2-10.1-7.2-10.1-9.9l.1-3 .9 2.6c.9 2.5 1.1 2.5 7.2 1.8 13.1-1.7 18.7-3.1 18.7-4.5 0-1.7-8.8-15.4-9.8-15.4-.4 0-2.6 2.9-4.9 6.3-4.3 6.3-11 14.5-9.7 11.7.4-.8 3.5-5.3 6.9-10 5.6-7.8 6.3-9.2 7.9-17.6 1-5 1.5-10.1 1.1-11.3-.3-1.2-.2-2.1.4-2.1.5 0 1.5-2.6 2.1-5.7.6-3.2 2.2-10.8 3.5-16.8 4.2-19.2 5.7-26.6 5.2-27.1-.2-.3-1 1-1.7 2.8-.8 1.8-4.4 9.6-8.2 17.3-5.3 10.9-6.8 14.7-6.4 17 .3 1.6.1 3.7-.5 4.5-.9 1.2-1 1.1-.6-.6 1.1-5.2-1.3-3.6-8.6 5.7-4.2 5.5-7.7 10.4-7.7 10.8s2.4 2.1 5.3 3.6c6.1 3.3 13.9 8.7 13.3 9.2-.2.2-4.1-2-8.7-5-9.9-6.3-11.3-6.9-12.8-5.4-.8.8-1.1.8-1.1-.1 0-.7 1-2.3 2.3-3.6 4-4.1 14.7-18.5 15.7-21.1.6-1.5 1-3.6 1-4.8s.8-3.1 1.6-4.2c1.5-1.9 1.5-1.9.8 1-1.3 5.9 1.6 1 9.7-16.5 4.4-9.6 8.3-18.2 8.6-19.2.4-1.2-.7-2-5-3.2-8.1-2.4-8.6-2.2-9.4 2.6-.4 2.8-.8 3.6-1.2 2.5-.4-1.2-1.4.2-3 4.5-4.6 12-5 12.8-6 12.8-1.2 0-.1-4.2 1.4-5.5.7-.6 2.3-4 3.6-7.8 1.3-3.7 2.7-6.7 3.1-6.7.5 0 .8-.9.8-2 0-2.3-.5-2.4-6.6-.8l-4.6 1.3.6 5.5c.4 4.2.3 4.7-.4 2.1-.4-1.8-1.3-3.7-2-4.1-.6-.4-1.1-1.1-1-1.6.2-1.4-1.7-2.1-11-4.3-4.7-1.1-13.2-3.4-19-5.1-9.8-2.9-21.3-4.2-23.8-2.6-.5.3-6.2 1.7-12.7 3-6.5 1.4-12.6 3.3-13.6 4.2-1.1 1-1.9 1.2-1.9.6 0-.8-2.4-1.3-6.7-1.4l-6.8-.2 6.6-.5 6.6-.6-1.4-5.4c-.7-3-1.2-5.9-1-6.5.3-.6 1 1.7 1.8 5.1.9 4.4 1.8 6.3 2.9 6.3 2.5 0 29-6.3 29-6.9-.1-1.5-2.2-3.2-10.5-8.6-19.6-12.7-27.5-17.4-27.5-16.4 0 .6.9 4.7 2 9.1 1.2 4.4 1.9 8.5 1.8 9-.2.5-1.4-3.4-2.7-8.9-1.3-5.4-2.8-10.1-3.3-10.4s-5.3.3-10.6 1.3c-25.4 4.9-36.6 6.8-37.4 6.6-.5-.2 3-1.1 7.9-2.1 4.8-.9 14.9-2.9 22.3-4.3s13.9-3 14.4-3.5-.5-1.6-2.3-2.6-11.9-6.9-22.4-13.2c-10.6-6.2-20.7-12-22.4-12.7-1.8-.8-3.3-2-3.3-2.6 0-.7-1.5-2.8-3.2-4.8-2.8-3-2.7-2.9 1.2.6 2.5 2.3 6.8 5.4 9.5 7 2.8 1.5 10.6 6.1 17.5 10.2s13.1 7.5 13.8 7.5c.6 0 1.2.3 1.2.7s2.1 1.8 4.8 3.1c2.6 1.3 5.4 3 6.3 3.7 1.5 1.2 1.6.8 1.4-3.5-.2-2.6-.6-10.8-1.1-18.2-.8-15.4-1-15.7-10-19-14.5-5.4-24.5-9.4-24.1-9.7.2-.2 7.7 2.3 16.7 5.6s16.5 5.8 16.8 5.6c.2-.3.8-7.8 1.3-16.8.5-8.9 1.1-18.3 1.3-20.8.3-2.5.7-8.8 1.1-14 1.1-18 1.4-22.5 2.6-36.2.7-7.6 1-14 .7-14.4-.5-.5-9.9 5.7-43.6 28.9-7.2 5-7.6 5.2-6.9 4 .6-.9 5.2-4.2 20.7-14.8 4.1-2.8 10-6.8 13-9 14.8-10.4 15.2-10.8 13.7-11.6-1.3-.8-34.9-8.4-50.2-11.4-3.8-.8-14.8-3-24.3-5s-17.7-3.3-18.2-3-1.7-.9-2.6-2.7c-1.7-3.3-1.7-3.3.3-1.5 1.9 1.7 2.2 1.5 9.9-9.5 4.3-6.2 8.7-12.6 9.8-14.3 1-1.6 2.2-3.2 2.6-3.5s4.6-6.4 9.4-13.5l8.8-13-8.9-.8c-9.8-.8-13.3-.4-13.3 1.8s-1.7 1.8-2.3-.4c-.4-1.6-1.6-2.1-5.3-2.4-2.7-.2 2.3-.5 11.1-.7s16.9-.2 18-.1c2.1.2 3.2 1.2-13.3-13.7-5.1-4.5-8.9-8.2-8.6-8.2s6.1 4.7 12.9 10.5 12.6 10.5 12.9 10.5c1.2 0 39.3-13.2 44.1-15.3l4.9-2.1-10.4-1.7c-5.8-1-13.1-2.1-16.2-2.4-3.2-.4-5.8-1-5.8-1.4s7.2.4 16.1 1.7c8.8 1.3 16.3 2.1 16.7 1.8.3-.4-1-2.3-2.9-4.4-3-3.2-2.8-3.2 1.1.5 5.4 5.1 5.9 5.1 21 1.8 14.4-3.2 17.7-3.1 4.5 0-14.3 3.5-17.5 4.5-17.5 5.4 0 1 6.4 8.9 20 25 9.5 11.2 10.5 12.1 11.1 10 1-3.6 4.2-41.6 3.6-42.7-.4-.5-2.1-.7-3.9-.5l-3.3.3 3-1.2c2.7-1 2.8-1.2 1-2-1.3-.5-.8-.6 1.5-.2 1.9.4 3.9 1.2 4.5 2M417 127c0 .5-.8 1-1.7 1-1 0-5.5 3.1-9.9 6.8-4.5 3.7-12.8 10.3-18.4 14.7l-10.1 8 10.3.6 10.3.5-8.5.2c-14.4.4-14-.6-6.3 14.1 3.7 6.9 8.2 15 10.1 17.9 3.7 6 10.3 18.2 9.7 18.2-.8 0-7.8-11.5-17.8-29-5.5-9.6-10.2-17.7-10.4-18-.3-.3-1.1.4-1.9 1.5s-2.3 3.1-3.4 4.5-4.8 6.5-8.4 11.5c-3.5 4.9-7.6 10.4-9 12.1-1.7 2.1-2.4 3.9-2 5 .4 1.3.3 1.5-.3.7-.6-.9-4.2 3.1-11.9 13.4-9.9 13.4-14.4 19.8-14.4 20.7 0 .1 1.5.1 3.3 0 3.1-.3 3.1-.3-.6.7-2 .6-4.1 1.8-4.5 2.8-1 2 2.3 96.9 3.3 97.9.2.3 1.7 0 3.2-.6 6-2.2 6.6-2.1 1.8.1l-4.9 2.4-2.7 18.4c-1.5 10.1-2.7 18.5-2.6 18.6s4.5-2.4 9.8-5.6c10.3-6.2 13.6-8.1 27.4-16 9.4-5.3 10.5-5.8 10.5-4.1 0 .5-.7 1-1.6 1-1.5 0-45.7 26-45.1 26.6.1.2 4.8 1.3 10.2 2.4 5.5 1.2 10.7 2.6 11.5 3.2 1.2.8 1.2.9-.2.4-4.1-1.2-23.1-4.6-23.6-4.1-.8.8-8.2 30.9-7.6 31.4.2.3 2.3.8 4.7 1.2l4.2.7-4.5-.1c-2.6-.1-4.9.3-5.5 1.1-.8 1-1.3.8-2.3-.8s-1-2 .1-2c1 0 2.6-4.8 5.1-14.5 2.1-8 3.6-15 3.4-15.4-.2-.5-8.2 4.3-17.8 10.6l-17.5 11.6 3.5 1.3c1.9.7 3 1.3 2.3 1.3-.6.1-2.3-.3-3.7-.9-1.5-.5-2.8-.6-3.1 0-.3.5-1.2.7-2 .4s-3.5.2-6 1.1c-2.5 1-4.8 1.5-5.1 1.2s1.9-1.3 4.8-2.2c2.9-1 5.4-1.9 5.6-2 .3-.3-11.6-11.9-12.6-12.2-.8-.3-6.5 17.7-5.9 18.3.2.3 1.7 0 3.2-.6s3-.9 3.2-.7c.7.8-10.6 4.9-11.9 4.4-.8-.3-.6-.6.5-.6 1.1-.1 2.4-1.6 3.4-3.9 1.8-4.2 4.4-13.4 3.9-13.9-.2-.2-3.5 3.9-7.5 9.2-7 9.4-7.1 9.5-4.4 9.6l2.8.1-3.3 1.4c-2.8 1.2-3.6 1.2-6.2-.1-3.9-2-4.3-1.9-3.5.7.6 1.8.5 2-.5 1.1-.8-.8-1.2-4.8-1.1-13.1.2-16.5-1.5-17.2-5.5-2.2-2.6 10-2.6 15.2.2 24.2 8.4 27.3 10.8 33.7 15.5 41.5 2.7 4.5 4.9 8.6 4.9 9.2s.4 1.1.9 1.1 1.1.9 1.4 2c.3 1.3 0 2-1 2-.8 0-1.2-.4-.9-.9.5-.8-7.9-15.6-10.8-19.1-.7-.8-1.9-3.8-2.5-6.5-.7-2.8-2.4-8.4-3.6-12.5-1.3-4.1-3.1-10.1-4-13.4-2.1-7.4-2.7-6.9-1.1.9.8 3.3 2.4 14 3.7 23.7s2.6 17.5 3 17.2c.4-.2.5 1.1.2 3.1-.3 1.9-.1 6.1.6 9.3.6 3.1 1.3 7 1.6 8.5.2 1.6 2.9 6.9 5.9 11.9 3.1 4.9 5.6 9.4 5.6 9.9 0 1-1.5 1-5-.1l-2.5-.8 2.8-.1c1.5-.1 2.7-.3 2.7-.6 0-.2-2.4-4.5-5.4-9.5l-5.4-9.1-4.1 7.1c-4.6 8.1-4.8 8.7-2.3 9.4.9.2.1.4-1.8.3-3.3-.2-3.5-.4-3.2-3.2.2-1.6.8-3.2 1.2-3.5.5-.3 2.3-7.1 4.1-15 3.5-16.2 3.5-20.7-.1-39.4-2.1-10.7-3.7-14.3-2.6-5.9.6 4.5.4 5.3-1.3 6.2-1.2.7-2.2 2.7-2.7 5.3-.4 2.4-.9 3.5-1.2 2.5-.2-.9.2-3.3.8-5.3.7-1.9 1-3.7.8-3.9-.6-.6-16.8 7.4-16.8 8.4 0 .4 3 1.6 6.8 2.4 5.8 1.5 6 1.6 1.7 1.1-2.7-.4-6.3-.6-7.9-.6-1.5.1-3.4-.4-4-1.1-.8-.8-3.1-1.1-6-.9-2.6.2-4.4.7-3.9 1.1 2.1 1.9 16.7 7 17.3 6.1.7-1.2 7 4.6 7 6.5 0 3.6-2.2 12.1-4.4 16.8-3 6.3-3.3 5.1-.6-2.5 1.1-3.1 2.3-8.1 2.6-11.1.6-4.9.4-5.6-1.7-7.1-1.3-.9-2.5-1.2-2.7-.7s-3.6-.4-7.5-2c-12.3-5-16.5-7.3-16.4-9 .1-2-3.3-9.9-4.3-9.9-1.7 0-1.6-3.9.1-5.4 1.1-.9 1.6-2.2 1.2-3.2-.4-1.2-.3-1.5.5-1 1.4.8 7.6-11 6.8-13-.3-.8-.1-1.3.5-1.1.6.1 2.4-3.2 4.1-7.3s6.6-15.6 10.8-25.5c4.3-9.9 8.2-19.6 8.7-21.5 1-3.9-.1-24.1-1.7-30.7-1.2-5.1-1.3-15.3-.1-15.3.4 0 .7 2.4.6 5.2-.1 2.9.7 8.4 1.8 12.3 1 3.8 2.1 8.2 2.4 9.8.3 1.5.9 3 1.4 3.3 1.4.8 1.1-3.8-.4-6.6-1.8-3.4-2.9-9-1.8-9 .5 0 1.2 1.4 1.6 3.1.7 3.2 2.5 4.5 5 3.6 1.2-.5 1.2-1.1.1-3.9-2.5-6.2-2.8-8.5-.4-4.3 1.7 3 2.3 3.6 2.6 2.2s.7-1.6 1.8-.6c.7.6 2 .9 2.9.6.8-.4 1.7-.2 2 .3.6 1 5.5 1.4 5.5.4 0-.5-3.5-8.6-5.2-11.7-.5-.9-.7-1.7-.4-1.7.2 0 2.1 2.9 4.2 6.5l3.8 6.5 1.2-2.8 1.2-2.7.1 3.9c.1 2.9.4 3.7 1.6 3.2.8-.3 2.1.1 2.8.8.8.8 2.7 1.6 4.3 1.7 1.6.2 3.8 1 4.8 1.9 1.2.9-.3-2.7-3.8-9.5-5.8-11.1-9-15.5-11.1-15.5s-11.7-3.1-11.2-3.6c.4-.5 4.8.4 11 2.2 2.5.8 2.2-1-1.9-11.2-5.5-13.7-6.5-15.6-8.1-15-1.1.5-1.1.1.2-1.6 1.6-2.4 2-10 .8-15.9l-.7-3.4-1.2 3c-.7 1.6-1.3 2.3-1.4 1.4 0-.9.7-3.3 1.5-5.2 2-4.9 2-4.9-1.7-4.3l-3.3.6 3.4-1.3c1.9-.7 3.7-2.2 4.2-3.3 1.2-3.5 7.9-38.5 7.5-39.3-.7-1.1 1.7-7.1 4.5-11.6 3.1-4.7 18.9-33.3 19-34.3 0-.4 6.5-6.8 14.3-14.2s14.8-14.4 15.5-15.4c1.1-1.7 1.1-1.8-.6-1.2-2.3.9-1.2 0 5.2-4.6 4.2-3.1 5.3-3.4 6.7-2.4 1 .7 4.3 1.8 7.3 2.5 3.1.7 5.5 1.5 5.2 1.7-.2.2-3.5-.3-7.3-1.2-6.7-1.5-6.9-1.5-11.3.7-2.5 1.2-4 2.4-3.3 2.7.7.2-5.6 7-13.9 15.1l-15.2 14.7 13.8 4.8c15.6 5.5 17.1 5.4 16.8-1-.1-3.9-.1-3.9.5-.6l.7 3.4 5-5.4c26.7-28.5 26.9-28.7 24.4-29.8-2.3-1-2.3-1 .4-.5 1.5.3 3.3.3 3.9-.1s2.5-.8 4.2-.9 5.6-.4 8.6-.8c3.2-.4 2 0-3 1l-8.5 1.7-8 8c-12.2 12.3-26.8 28.6-25.6 28.6 1.1 0 50.4-14.2 61.6-17.8l6-1.9-4-1.1c-2.2-.7-5.1-2.1-6.5-3.3l-2.5-2.1 3 .7c1.6.4 5.4 1.8 8.4 3.1l5.4 2.5 2.6-2.4c1.4-1.3 3.8-3.2 5.2-4.3 7.9-5.8 25.9-19.7 28.9-22.3 3.5-3.1 6-4 6-2.1m-166.2 43.3c-5.5 5-6.1 6-9.9 18.5-6 19.4-6.8 22-12.2 40.7-3.1 10.4-6 20.3-6.6 21.8-1.5 4-1.4 5.4.4 3.1.8-1 1.5-1.5 1.5-1s-.6 1.7-1.4 2.5c-2.4 2.8-2.9 5.9-.9 6.4 1.5.4 1.4.5-.3.6-1.5.1-2.4 1-2.8 2.7-.4 1.5-1 2.4-1.3 2-.3-.3.1-3.2 1-6.3 8.5-31.2 11.7-42.4 16.8-58.8 8.7-27.5 8.6-27.2 14.3-32.6 2.8-2.6 5.3-4.5 5.6-4.3.2.3-1.6 2.4-4.2 4.7M803.5 308c-.3.5-1.1 1-1.6 1-.9 0-6.5 3.6-11.3 7.4-1.6 1.3-1.7 1.8-.6 3.1.7.8.8 1.5.3 1.5s-.8 2.7-.7 6c.2 4.9-.2 6.3-2 8.3-1.2 1.3-2.8 3.8-3.5 5.6-1.6 3.7-3.7 5.4-2.6 2.1.4-1.2.7-4.5.7-7.4-.1-2.8.4-7.7 1.1-10.9 1.2-6 4-9.5 10-12.7 2.6-1.3 2.7-1.5 1.2-2.6s-1-1.3 3.1-1.7c2.7-.2 5.3-.4 5.7-.5.5-.1.5.2.2.8m6.4 57.9c.1 1-.3.9-1.4-.5-.8-1-1.5-1.5-1.5-.9-.1.5-.5 4.4-.9 8.5s-1.1 8.4-1.6 9.5c-.7 1.7-.5 1.6 1.3-.4 2.3-2.5 2.6-2.2 1.6 1.6-.4 1.3-1.1 2-1.6 1.7-1.5-.9-3.7 2.8-3.8 6.3 0 2.9-.6 3.6-6.4 6.8-7.9 4.4-9.1 5.8-8.8 10.4l.1 3.6-1.4-3c-.8-1.7-1.4-2.4-1.5-1.7 0 .7-.4 1.1-.8.8-.5-.3-.4 1.7.2 4.3.8 4.1 1.2 4.8 3 4.4 2-.4 2-.3-.3 1.6-2 1.8-5.5 3.1-3.8 1.5.8-.8-9.5-8.4-10.5-7.7-1.1.6-1-.9.3-8.4 1.1-6 2.3-7.5 4.5-5.3.5.5 1.8 1.1 2.9 1.3s2.9.8 3.9 1.2c1.4.6 3.8-.1 8.5-2.7 7.6-4.2 8.7-5.8 3.9-5.8-6.4 0-7.3-.7-7.2-5.3.4-12.3.7-13.6 2.4-12.7 1.2.6 2.1.1 3.5-2.1 2-2.9 3.5-3.7 3.5-2 0 .6-.4 1.3-1 1.6-1.5 1-1.2 5.2.5 5.9.8.3 1.5 1.2 1.5 2 0 .7.9 1.6 1.9 1.9 2.1.5 1.9 1.3 5.7-21.8.1-.6.3-2.8.4-5 .2-3.7.3-3.6 1.5 2.5.8 3.6 1.4 7.1 1.4 7.9m-581.3 88.7c-.3.9-.7 11.1-.8 22.7l-.1 21.2-1.2-18c-.6-9.9-1.2-17-1.3-15.8s-2.2 7.5-4.7 13.9-4.5 11.9-4.5 12.3 2.2 3.2 5 6.1c6.7 7.4 5.3 7.9-1.7.6-4.2-4.4-5.8-5.5-6.4-4.5-1.6 2.6-.9-.2 1-3.9 6.4-12.4 12.3-29 11-31.4-.7-1.4-.6-1.8.6-1.8.8 0 1.5-.7 1.5-1.5s.5-1.5 1.1-1.5.8.7.5 1.6m238.3 98.9c2.7 4 15 15.1 16.2 14.8.5-.2.6.4.3 1.1-.4 1 .8 2.2 3.3 3.5 2.1 1.2 7.6 4.8 12.3 8.1 10 7.1 22.3 14.1 25.4 14.4 1.2.1 2.7.6 3.4 1 1.7 1 62 .8 64-.3.9-.5 1.9-.9 2.2-.9.3-.1 1.2-.3 2-.6.8-.2 3.1-.6 5-.9s11.8-4.5 22-9.4c19.1-9.3 22-10.6 22-9.8 0 .3-4.8 2.8-10.7 5.6-6 2.8-16 7.7-22.4 10.8-6.4 3.2-12.6 6-13.8 6.4-1.9.5-2.1 1.2-2.3 9.9l-.2 9.3-.3-8.8c-.2-4.8-.7-8.7-1-8.7-.4 0-2.7 1.7-5.2 3.8s-5.7 4.5-7.1 5.2c-4.8 2.5-23 16.3-23 17.4 0 .6 1.6 2 3.5 3 1.9 1.1 3.3 2.1 3.1 2.3s-1.9-.5-3.7-1.6c-1.9-1.2-4-2.1-4.8-2.1s-4.2-2.7-7.5-5.9c-3.4-3.3-10.1-9.1-15.1-13-4.9-3.9-9.5-7.5-10.2-8.1-.7-.5-1.7-1-2.3-1-.5 0-1-.4-1-1 0-.9-2.7-2.8-23-15.8-4.7-3-9.8-6.3-11.3-7.4-1.6-1.1-3.1-1.7-3.4-1.4-.6.5 5.6 10.7 11.8 19.5 2.2 3 3.9 6 3.9 6.6 0 .7 2.8 5.9 6.3 11.6 3.4 5.7 6.8 11.5 7.5 12.9.6 1.4 1.6 3.2 2.1 4s2.5 4 4.3 7.1 3.9 5.4 4.6 5.1c.7-.2 1 .2.7 1-.9 2.4 4.9 5.6 14.2 7.9 7.9 2 21.1 6.8 18.9 6.9-.4 0-4.5-1.1-9-2.4-4.4-1.4-11.4-3.4-15.4-4.6-7.8-2.3-6.6-1.3-28.3-23.6-10.1-10.5-17.9-20.7-16.7-22 .3-.2 2.5 2.6 5 6.2 4.5 6.5 23.7 26.9 24.5 26.1.4-.5-13-23.8-16.3-28.2-1.2-1.7-3.4-5.7-4.9-9-1.4-3.2-2.9-6.2-3.4-6.5-1.9-1.3-10.3-15.5-10.5-17.7-.1-1.9-.6-2.3-2.2-2-1.7.3-2 0-1.6-1.5.3-1.2-1.5-3.8-5.8-8.1-6.3-6.5-10.9-12.7-9.3-12.7.4 0 1.9 1.6 3.2 3.5M1203.5 675c.3 1.1 1.5 2 2.6 2 2 0 4.4 4.3 3.6 6.4-.3.6-.9-.5-1.5-2.4-.6-2.1-1.1-2.7-1.1-1.5-.1 1.1.6 4.1 1.6 6.7l1.6 4.6 1.7-3.1c1-1.8 2.6-5.8 3.6-9 1.3-4.1 2.3-5.7 3.6-5.7 1.6 0 1.4.9-1.6 9.2-1.8 5.1-3.6 10.9-4 12.9-.6 3.1-.9 3.6-3 3.2-1.9-.4-2.9-1.8-4.6-6.6-1.2-3.4-3.3-9-4.6-12.5-2.2-5.9-2.2-6.2-.4-6.2 1 0 2.2.9 2.5 2m24.3 5.8c3.1-1.1 8.5.8 13.4 5 1.2.9 1.9.6 3.6-1.7 3.1-4.3 7.2-4.8 13-1.8 2.6 1.4 4.6 3.1 4.4 3.7-.1.6.2.9.7.5.6-.3 1.5.3 2 1.4 1.5 2.7 1.4 3.8-.1 1.8-1.6-2-3-1.1-4.4 2.8-.6 1.6-1.6 2.9-2.2 2.8-.7-.2-1.1.1-.9.6.1.5-.9 1.9-2.3 3.1l-2.5 2.2 3-.7c1.7-.4 3.6-.8 4.3-1.1.7-.2 1 .1.7.6-.3.6-.2 1 .3 1 1.1 0 3.7-2.9 4.5-5 .5-1.3.5-1.3.6 0 .1 3.1-6.1 8.1-7.4 6-.3-.5-1.4-1-2.3-1-1.5 0-1.5.2-.2 1 .8.5 1.1 1 .7 1-1.5 0-5.1-2.2-9.7-6-3.8-3-5-3.5-7.5-2.9-1.6.4-2.5.7-2 .8.6.1-.3 1-2 2.1-2.4 1.5-2.6 2-1.3 2.5.9.4 2.7.1 4-.6 2.1-1.1 2.2-1.1.9.4-.7 1-.9 1.7-.3 1.7 1.4 0 3.3-2.5 2.5-3.3-.3-.4-.1-.7.5-.7 1.7 0 1.5 1.5-.5 3.1-1.1.9-3.7 1.4-6.4 1.4-3.7-.1-5.6-.9-8.8-3.4-2.3-1.8-4.1-3.9-4.1-4.7s-.7-1.4-1.5-1.4c-1.6 0-1.5-.2 2.1-9 1.1-2.5 2-3.7 2.2-2.8.2 1.3.8 1.4 3 .6"/><path d="M584.1 54.7c10.6 19.5 13.7 25.3 15.7 30.2 1.3 2.8 3.6 7.4 5.2 10.2 1.7 2.7 3 5.3 3 5.8 0 .4.9 1.6 2 2.6s2 1.3 2 .7c0-.7.6-1.2 1.3-1.2 1.7 0 9-3.9 34.1-18.2 8.3-4.6 15.1-8.9 15.3-9.5s-.4-1.3-1.4-1.6-10.3-3.5-20.8-7.2C614.8 57.5 583 47 581.3 47c-.9 0 0 2.5 2.8 7.7M567.5 57.7C562.6 62.9 556 70 553 73.4c-3 3.5-9.8 10.9-15 16.5-5.7 6.2-9.5 11.1-9.6 12.4 0 1.4-.6 2.1-1.5 1.9-1.1-.3-1.1-.1-.2.8.9 1 1.6.9 3.3-.3 1.9-1.3 2.8-1.4 6.5-.3 5.4 1.7 19 1.9 42.5.7 11.3-.6 18.6-1.4 18.8-2s1.2-1.1 2.2-1.1c2.7 0 4.3-2.5 3.1-4.7-.5-1-1.7-3.6-2.6-5.8-4.3-10.5-21.3-43-22.6-43.2-.8 0-5.4 4.1-10.4 9.4M660.5 79.1c-3.4 2.1-3.3 2-22 12.6-7.7 4.4-16.2 9.4-18.9 11.1-4.4 2.9-4.6 3.1-2.5 3.6s39.4 3.6 42.5 3.6c1.3 0 3.4-11.7 3.4-19.2 0-2.9.4-6.9 1-8.8 1.3-4.4.3-5.2-3.5-2.9M494.1 113.5c-13.5 2.6-18.4 4.2-17.8 5.9.4 1.1-2 19.7-4.3 33-.9 4.9-.9 7.1-.1 7.9.6.6 1.1 1.7 1.1 2.4s4.6 6.8 10.2 13.6c5.6 6.7 12.9 15.5 16.2 19.6 3.4 4.1 7.8 9.2 9.8 11.4l3.6 4 1.1-3.9c.8-3.2 2.3-46.6 2.9-86.2.1-6.1-1.2-6.7-4.8-1.9-1.3 1.7-6.8 7.7-12.1 13.2-5.4 5.5-11.5 12-13.6 14.4-9.3 10.6-12 13.4-13 13-.6-.2 4.1-6 10.4-12.9 24.5-26.7 27.2-29.6 29.8-32.8l2.7-3.2-4.9.1c-2.6 0-10.4 1.1-17.2 2.4M661.2 131.2c-.7 10.1-1.5 19.7-1.8 21.5-.3 1.7-.1 3.3.3 3.6.4.2 3.5-.8 6.8-2.3 14.1-6.4 24.5-11 31.5-14 7.7-3.3 10-4.7 10-6 0-.4-5.3-3.1-11.7-6-6.5-2.9-15.8-7.2-20.8-9.5-14.6-6.9-12.9-8.4-14.3 12.7M704.5 138.9c-.6.5-4.6 2.4-9 4.4-10.7 4.6-29.7 13.7-31.2 14.9-2 1.6.5 6 5.4 9.7 7.9 5.8 17.3 12.1 18.1 12.1.4 0 2.8-4.4 5.4-9.8 2.6-5.3 6.1-12.2 7.8-15.3 1.6-3.1 4.1-8.2 5.5-11.3 2.3-5.1 2.3-5.6.7-5.6-1 0-2.2.4-2.7.9"/><path d="M661.7 164.5c-1.1 1.1-1.5 2.4-1.1 3.4 1 2.3 3.7 10.6 8.4 25.8 2.3 7.3 4.5 13.3 4.9 13.3.8 0 8.6-15.3 11.1-21.9 1.3-3.3 1.3-3.4-2.1-6.2-1.9-1.6-3.7-2.9-4.1-2.9-2 0-14.4-9.5-14.8-11.3-.5-1.9-.6-1.9-2.3-.2M470.1 172.7c-.1 3.2-.8 13.4-1.6 22.8-.8 9.3-1.5 19.1-1.5 21.8v4.9l7.8-.7c24.6-2 36.5-3.5 37.6-4.6.6-.5-.2-2.1-2.2-4.1-1.7-1.8-6.2-7.2-9.9-12-10.9-14-27.4-33.3-28.7-33.6-.9-.2-1.3 1.5-1.5 5.5M658.7 175c-1.6 3.8-3.5 43-2.1 43 1 0 15.4-7 15.4-7.5 0-.9-4.3-14.4-5.4-17-2.8-6.5-3.7-9.2-5-15.5l-1.4-6.5zM686.4 185.7c-1.5 4.3-7.8 19-9.2 21.1-2.1 3.2-1 3.7 5 2.4 2.9-.6 8.7-1.6 12.8-2.2 8.8-1.2 15.6-3.1 16-4.5.1-.5-.9-1.7-2.2-2.5-4-2.4-13.2-9.5-14.7-11.4-.8-1-2.7-2.4-4.3-3.2-2.6-1.3-2.9-1.3-3.4.3M552.5 199.7c-2.2.3-4.2.9-4.6 1.4-.3.5-1.6 1.1-2.8 1.4-1.3.2-3 1-3.9 1.7s-2.1 1.7-2.7 2.1c-.5.4-3.1 2.2-5.6 4s-4.7 3.6-5 4.2c-.2.5-.9 1-1.6 1-.6 0-1.4.3-1.8.6-.8.9 37.1 1.7 49.3 1.1l10.2-.5-3-2.9c-1.7-1.6-3.5-2.6-4.1-2.3-.5.4-.8.1-.7-.6.3-1.1-4.7-4.5-14.1-9.5-2.4-1.3-4.7-2.3-5-2.2s-2.4.3-4.6.5M705.5 206.5c-2.7.7-9.5 2-15 3-15.1 2.4-14.6 2.1-9.4 6.7 2.4 2.1 7.5 6.5 11.4 9.6 3.8 3.1 7.9 6.5 8.9 7.4 2.1 1.9 3.5 2.3 3.7 1 .4-4 6-24.7 7.1-25.9 1-1.2.3-3.4-1-3.2-.4 0-2.9.6-5.7 1.4M666.5 216.7c-1.6 1-3.6 1.8-4.4 1.9-.8.2-2 .9-2.7 1.6-1.1 1.1-.7 2.6 1.8 8.5 1.6 4 3.4 7.3 3.9 7.3s.9.7.9 1.6c0 1.3.3 1.4 1.4.5 1.9-1.6 4.6-23.1 2.9-23.1-.4.1-2.1.8-3.8 1.7M503 220.6c-15.2 1.9-34.4 3.8-35.2 3.6-.5-.1-.8 0-.8.3 0 .8 3 6.6 4.1 7.9.5.6 4 5.1 7.8 10.1 3.8 4.9 7.8 9.9 9 10.9 1.1 1.1 2.1 2.3 2.1 2.7 0 .5 2.4 4.3 5.3 8.5 2.8 4.2 5.9 8.8 6.7 10.2.8 1.5 1.6 2.9 1.8 3.1 1.3 2.2 5.1-12.7 7.3-28.4 2.7-19.7 3.5-28.6 2.4-29.3-.5-.5-5.3-.3-10.5.4M519.3 220.3c-.3.5 0 1.9.6 3 .6 1.2 2.4 5.7 4.1 10 1.6 4.3 4.6 10.8 6.5 14.5 3.3 6.3 16.2 36.9 17 40.2.2.8.5 2.2.7 3 .1.8 1.3 2.2 2.4 3.2 1.2 1 2.5 2.9 2.8 4.3.9 3.6 2.3 3.1 3.1-1.1.3-2 2.8-8 5.4-13.3 2.7-5.3 6.4-13.2 8.4-17.6 1.9-4.4 6.3-14.3 9.7-22 8.4-18.9 8.3-18.6 8.5-21.8l.3-2.7-30.7-.1c-16.8-.1-32.3-.2-34.4-.3-2.2 0-4.1.3-4.4.7M595 221.2c0 .9.8 2.2 1.8 2.7 1.2.7 1.3 1 .3 1.1-1.1 0-1.3 1.8-.8 9.7.8 12.9 4.4 39.4 5.6 40.6 1.1 1.1 24.7-23.4 34.6-35.9 2.1-2.7 6.4-7.5 9.4-10.7 4.6-4.7 5.3-5.9 4.1-6.7-.8-.5-8-1-16-1-8-.1-19.6-.2-25.7-.4-7.9-.2-11.3 0-11.3.8 0 .6-.5.4-1-.4-.8-1.3-1-1.3-1 .2M515.6 228.2c-.3 2.9-.8 8.2-1.1 11.8-.4 3.6-2 13.1-3.6 21.2-3.6 18-3.6 19.4-.5 20.5 6.7 2.3 35.5 16.8 34.8 17.5-.4.4-6.4-2.1-13.2-5.5-11.7-6-24-11-24-10 0 1.2 5.5 16.5 8.1 22.5 1.6 3.6 2.9 7.3 2.9 8.1 0 3.2 2.5 3.8 7.4 1.6 2.6-1.1 5-1.9 5.2-1.6.3.3-2 1.7-5.2 3.1l-5.7 2.6 4.4 3.7c2.4 2 7 6.3 10.2 9.6 6 6.2 7.6 6.4 7.7 1.2 0-1.2.4-2.5.8-3 .5-.6 2.1-4.3 3.6-8.3 4.5-11.6 4.2-7.6-.4 5.7-2.3 6.6-3.9 12.5-3.5 13.1.3.5 2.4 1 4.5 1h3.8l.7-7.6c.4-4.1.5-11.2.3-15.7-.3-4.5-.1-9.5.3-11.1.5-1.6.7-3.1.5-3.3-.1-.2-4.7 1.8-10 4.3-5.4 2.5-9.9 4.4-10.2 4.2-.2-.3 4.2-2.6 9.8-5.2 8.6-4 10-5 8.7-5.9-.9-.7-1.9-2.5-2.3-4.1-.8-3.4-2.6-5.4-4.4-4.8-.6.2-1.2-.1-1.2-.7s.4-1.1.9-1.1c1.5 0-.6-7.3-4.5-15.7-2-4.3-4.4-10.1-5.4-12.8-1.7-4.9-7.1-15.7-8.9-17.9-1.2-1.4-8.1-19.7-8.1-21.4 0-.6-.4-1.2-.9-1.2s-1.2 2.4-1.5 5.2M585.8 237.3c-4.4 9.4-19.1 41.6-25.2 55-2.5 5.5-3.1 7.7-2.2 7.7.3 0 4-1.8 8.3-3.9s13.5-6.6 20.4-10l12.6-6.1-1.3-8.2c-1.8-12.5-4.3-31.5-5-38.6-.4-3.5-1.2-6.2-1.8-6.2s-3.2 4.6-5.8 10.3M470.5 240c4.9 22.7 5.3 24 7.4 24 1 0 2.1.8 2.4 1.9.5 2 19.3 11.8 20.4 10.7.4-.3.1-.6-.5-.6-.7 0-1.2-.7-1.2-1.5s-.4-1.5-.8-1.5-1.6-1.5-2.7-3.3c-3.1-5.4-19.2-27.9-22.9-32.2l-3.5-4zM476.2 273.3c-.3 4.6 1.6 17.9 2.8 19.1.9.9 9.6-2.5 19.5-7.6 5.6-2.9 6-3.5 3.4-4.3-1.3-.4-6.4-2.7-11.4-5.1-4.9-2.3-10.1-4.5-11.5-4.9-2.4-.6-2.6-.3-2.8 2.8M468.8 273.9c-1.7 1-2.6 2.2-2.3 3.2.3.8-.4 2.5-1.4 3.6-1.1 1.1-1.7 2.4-1.4 2.7.4.3.3.6-.1.6s-1.4-.6-2.1-1.4c-1.3-1.2-2.1-1.1-5.9.7-2.9 1.4-3.8 2.3-2.8 2.6 1 .2 2.2.7 2.7 1.1.6.4 3.4 1.3 6.4 2s6.6 1.9 8 2.6c4.7 2.5 5.3 2 4.6-4.5-.3-3.2-.9-7.2-1.4-8.7-.4-1.6-.6-3.4-.4-4.1.7-1.9-1-2.1-3.9-.4M586 288.2c-19.5 9.4-29 14.3-29 14.8 0 .3 2.8 1.8 6.3 3.4 13.8 6.3 26 11.6 26.7 11.6.5 0 1.2-1.5 1.6-3.3l.7-3.2.8 3.3c.7 3.5.9 3.2-10.8 14-1 .9-4 4.3-6.7 7.6-4.7 5.5-4.9 5.9-3.1 7.2 1 .8 2.5 1.4 3.2 1.4s1.3.4 1.3.9 1.4 1.9 3.1 3.1c2.8 2 3.1 2.1 4.8.6 2.1-1.9 3.1-2 3.1-.3 0 .7.8 1.7 1.8 2.3 2.6 1.7 5.2-.6 5.9-5.2.3-2.2 1-4.4 1.5-5.1 1.7-2.2-1.7-2-8.1.3-6.1 2.3-12.4 3.4-7.1 1.3 12-4.9 22.3-11.9 24.9-17 1.1-2 1.7-4 1.4-4.3s-3.3-.9-6.7-1.3l-6.1-.7 5.9-.7c3.2-.4 6.1-1.1 6.5-1.5.9-1.2 11-6.1 14.4-7 2.9-.7 6.7-6.5 6.7-10.4 0-2.6-.4-2.5-5.7.5-5.7 3.4-5.5 1.8.2-1.8 2.5-1.6 4.5-3.2 4.5-3.5 0-.8-6-3.8-17.3-8.8-7.7-3.3-10.9-4.1-10.5-2.7.3 1.4-3.4 13.3-4.3 13.9-1.2.7-1.2.9 1.1-6.6 1.1-3.6 2-6.8 2-7.3 0-1.4-2.7-.5-13 4.5M491.8 289.8c-6.5 3.1-11.8 5.9-11.8 6.2s3.3 2.3 7.3 4.3c3.9 2.1 9 4.8 11.2 6.1s7.2 4.2 11.1 6.3l7.2 4-1.4-5.6c-.7-3.1-2.2-7.9-3.2-10.6-1.1-2.8-2.9-7.6-4.1-10.8-1.3-3.1-2.8-5.7-3.4-5.6-.7 0-6.5 2.6-12.9 5.7M659.3 287.7c-4.8 1.8-23.2 7.4-25.7 7.9-3 .6-3.7 1.7-3 5.1.8 4.2 4.2 5.9 8.5 4.4 1.7-.6 4.4-1.1 5.9-1.1 1.6 0 3-.7 3.4-1.5.3-.8 1.2-1.5 2-1.5s4.2-3 7.5-6.6c6.5-7.1 8.5-7.9 2.5-1-6.2 7.2-7.9 10.2-6.5 11.1.6.3 4.1.8 7.8 1.1s7.2.9 7.8 1.5c1.8 1.8 3.5.9 3.5-1.9 0-3.3-3.3-13.5-5.4-16.7-1.7-2.5-3.2-2.7-8.3-.8"/><path d="M558.1 311.2c1.1 2.9 3.4 9.3 5.1 14.3 2.6 7.5 3.8 10.2 6.4 14.3.2.4 18.8-18.7 19.1-19.6.3-.8-29.1-14.2-31.1-14.2-1.2 0-1.1.9.5 5.2M555.7 316c-.4 1.4-.7 8-.7 14.7V343h5.3c7.3 0 8.3-.9 6.2-5-.9-1.8-2.3-4.9-3-6.9s-2.4-6.1-3.8-9.1-2.7-6.2-2.9-7c-.3-.9-.7-.6-1.1 1M511.5 321.6c.9.7 1.4 1.7 1 2.3-.3.6-.1 1.1.4 1.1.6 0 1.1.6 1.1 1.2 0 1.8 8.2 10.8 9.8 10.8.6 0 1.2.4 1.2.8 0 1.3 13.5 9.9 14.9 9.4 1.9-.6 1.2-4.2-1.6-8-3.1-4.3-4.9-6.1-12.3-12.3-7-5.8-8.9-6.8-13-6.7-2.9.1-3.1.3-1.5 1.4M573.2 351.7c0 2.6.3 5.4.8 6.3.4.8 1.1 5.1 1.4 9.4.4 4.4 1.1 9.8 1.6 12 .5 2.3 1.2 5.7 1.5 7.6 1.9 11.1 3 8.3 3.3-7.7.1-7.1.4-16 .8-19.8l.6-7-4.7-2.8c-2.5-1.5-4.8-2.7-5-2.7s-.3 2.1-.3 4.7M569 358.5c-.2 5.1-1.3 16.2-2 21-1 6-3 29.2-3 34.7 0 1.6-.4 2.7-.8 2.4-1-.6-.9-1.1-1.2 11.6-.1 5.4-.5 9.6-.9 9.4-.4-.3-.7.4-.7 1.5 0 1.9.1 1.8 1.8-.3 1-1.3 4.4-6.1 7.5-10.8 3.2-4.7 7.2-10.4 9-12.8 3.6-4.7 3.6-4.8.1-17.7-1-3.9-3-13.8-4.4-22-1.4-8.3-3.2-15.7-4-16.5s-1.4-1-1.4-.5"/><path d="M535.3 372.6c-6.5 30-8.5 43.3-7.9 51.4.5 8.4-.8 12.6-1.9 5.8-.4-2.6-.4-5.1 0-5.7.3-.6.2-1.1-.2-1.1-1.3 0-8.7 22.9-8.7 26.7 0 1.9-.3 2.7-.7 2.1q-.75-1.2-1.8 1.5c-.6 1.6-1.1 3.3-1.1 3.8 0 1.4-2.7 9.9-5.8 18.4-1.4 3.8-2.4 8.6-2.3 10.5.1 3.6 3.3 21.1 5.3 29.2l1.2 4.8 1.3-3.8c.7-2 1.7-5.3 2.2-7.2 6.5-24.9 9.1-35.9 9.1-38.9l.1-3.6 1.5 2.7c1.3 2.5 1.3 3.4-.6 9-2.3 7.2-3.8 12.8-6.9 24.8-1.2 4.7-2.6 9.9-3.2 11.6-.5 1.7-.9 4-.9 5.1 0 1.2-.6 2.3-1.2 2.6-.7.2-1.1.7-.8 1 .7.8 12.9-5.1 16.8-8.1 3.3-2.5 3.4-2.8 2.7-7.6-.3-2.8-1.2-7.6-2-10.6-1.3-5.3-2.9-19.5-2-17.5.3.5.9 3.7 1.4 7s1.9 8.5 3 11.5c1.8 5 2 5.2 2 2.3.1-1.7.5-3.4 1-3.7.4-.3 1.1-2.8 1.5-5.5.7-5.5 3-11.8 3.8-10.5.6 1 .5 3.7-.6 12.9-.5 4.1-.4 5.5.3 4.5.5-.8.7-1.8.5-2.2-.3-.5-.1-.7.4-.6 1.2.4 6-5.5 8.7-10.5 2-3.7 3.5-4.8 3.5-2.5 0 .7.8 2.3 1.8 3.5l1.7 2.3 2.6-2.3c1.4-1.2 2.9-3.5 3.3-5 .5-2.1 1.1-2.7 2.2-2.3.9.3 2.2.6 3 .6.9 0 1.3.4 1 .9s1.4.3 3.8-.4c2.4-.8 4.7-1.1 5-.7.9.8 3.5-2.9 3.6-5 0-1.7 2.5-4.8 4-4.8.4 0 .7 1.4.5 3.1-.1 1.8.5 5.3 1.4 7.8 1 2.5 2.5 8.3 3.6 12.8 1 4.8 2.2 8 2.8 7.6s.8.4.5 2.1c-.3 1.4-.2 2.6.2 2.6 1.3 0 1.9-4.3.9-6.2-.5-1-.7-2.3-.4-2.9.4-.5.2-1.5-.3-2.2s-.8-4.6-.5-8.7c.2-4.1.5-8.6.6-10s-.2-3.7-.6-5.3c-.6-2.2-.4-2.7 1.2-2.7 1.3 0 2 .9 2.5 3.1.5 2.7.8 3 2.1 1.9s1.4-1 .9.5c-.5 1.3-.4 1.6.4 1.1.7-.4 1.2-.2 1.2.3 0 .6.4 1.1.9 1.1 1.7 0-5.1-23.1-7.4-25-1.1-1-1.5-.7-2.1 1.5-.6 2.3-.8 2.5-1.6 1.1-.5-.9-.5-2.3.1-3.4.5-.9.6-2.4.1-3.2-1-1.9-6-19.9-7.3-26.8-.6-2.8-1.4-5.2-1.8-5.2-.7 0-9.9 11.5-9.9 12.5 0 .7-7.3 13-8 13.5-.8.5-2.4 5-1.8 5 2.6 0 25.4 3.2 25.8 3.7.3.3-1.7.3-4.5-.1-14.4-1.6-23.6-1.8-24.8-.5-.7.8-2.7 2.8-4.6 4.4-3.1 2.7-3.2 2.7-1.8.5 1-1.3 1.7-2.9 1.7-3.5 0-1.2-19.7-1.8-20.5-.5-.3.4.7 1.5 2.1 2.5 1.4.9 2.3 1.9 2 2.3-.4.3-1.9-.6-3.4-2.1-1.8-1.7-3.5-2.5-5-2.2-1.4.2-2.2-.1-2.2-1 0-.7-1-1.6-2.2-1.8-2.3-.4-2.3-.4.1-.6 2.1-.1 2.3-.4 1.7-3.9-.4-2-1-4.5-1.3-5.6s-.1-1.6.5-1.2c.5.3 1.2 2.5 1.6 4.8.5 3.2.9 3.9 1.6 2.8.5-.8 1-2.9 1-4.5 0-1.7.7-6.6 1.5-11s1.9-14.1 2.5-21.5 1.7-18 2.5-23.4c1.1-8.1 1.1-10.4.1-12.4-1.2-2.4-1.3-2.3-2.3 2.4"/><path d="M529.3 371.8c-1.3 1.2-2.3 3.2-2.3 4.3 0 2.6-1.8 5.9-3.2 5.9-1.1 0-4.8 3.8-4.8 5 0 .4-1.4 2.3-3 4.1-3.7 4.1-6 9.2-5.5 11.9.3 1.5-.2 2-1.8 2.1h-2.2l2.2.9c1.2.5 5.6 1.2 9.6 1.6l7.4.7.8-3.9c.4-2.2.9-5.5 1.1-7.4.6-4.8 2.2-13.6 3.5-18.6.6-2.2.9-5.2.7-6.5l-.3-2.4zM426.7 380.9c.3 1.2 1 2.1 1.6 2.1s.7.3.4.7c-.4.3-.1 1.1.7 1.7.7.6 4.5 5.5 8.5 10.8 4 5.4 7.6 9.8 8.1 9.8 1.2 0 8-16 8-18.9 0-1.1-5.4-3-12-4.1-5.7-1-11-2.3-14.7-3.7-.7-.3-1 .3-.6 1.6M698 382.9c0 .5.5 1.1 1.2 1.3.7.3-4.1 5.7-10.5 12.1S677 408.2 677 408.5c0 .4 1 .3 2.3-.1 1.2-.4 5.8-1.7 10.1-2.9l8-2.1 1.3-4.9c2.1-7.9 2.5-16.5.8-16.5-.8 0-1.5.4-1.5.9M705.2 383.3c-.9 1.1-5.4 18.8-4.9 19.3.3.4 19.9-6.4 20.6-7.1.7-.8-9.2-10.1-13.6-12.8-.6-.4-1.5-.1-2.1.6M469 409c-15.4 1.6-19.5 2.1-20.2 2.8-.6.6 8.4 15.4 11.3 18.6.9 1.1 9-6.3 16.1-14.8 4.5-5.3 4.8-6.1 3.2-6.7-1.1-.4-2.1-.7-2.4-.7s-3.9.4-8 .8M586.2 417c.3.8 2 6.2 3.7 12 3.4 11 5.6 17.2 7.3 20.4.5 1 2.5 6 4.3 11 5.2 14.3 9.5 22.7 11 21.8 1.4-.7 11.9-10.8 16.9-16l2.8-3-12.4-12.4c-6.8-6.7-17.3-17.5-23.3-23.8-5.9-6.3-10.6-10.8-10.3-10M519.7 422.2c-1.4 1.8-6 6.9-10.2 11.3s-9.7 10.9-12.3 14.5c-2.6 3.5-6.7 8.3-9.1 10.7l-4.3 4.2 5.3 5.6c2.9 3 6.2 6.8 7.3 8.4 2.5 3.6 5.5 5.6 6.7 4.4 1.4-1.4 8-20.3 9-25.8.6-2.8 1.6-7 2.4-9.5 4.5-14.6 6.9-21.8 8.1-24.3 2-3.7.2-3.4-2.9.5M633.7 467.7c-.3.5-1.7 5.5-3.2 11.3-1.4 5.8-3.7 13.6-5 17.5-1.4 3.8-2.1 7.3-1.6 7.8.7.7 26.1-11.6 30.6-14.9 1.8-1.3 1.2-2.1-8.9-11.9-6-5.8-11-10.5-11.2-10.5-.1 0-.5.3-.7.7M622.1 476.7c-5 4.9-9.1 9.5-9.1 10.1 0 2.2 7.3 16.3 8 15.5.4-.4 2.4-6.2 4.5-12.8 2-6.6 4.3-14 5.1-16.4.8-2.5 1.2-4.6 1-4.9-.3-.2-4.6 3.6-9.5 8.5M583 477c0 .8-.9 3.3-2.1 5.7s-3.2 8.2-4.5 12.9-2.7 9.1-3.2 9.8c-.5.6-.8 2.2-.7 3.6s-.3 2.8-.9 3.3c-1.3.9 2.8 4.7 5 4.7.8 0 4.2 1.4 7.5 3.1 3.3 1.6 7.2 3.5 8.6 4 2.3.8 2.4.8 1.3-.6-.7-.8-1-2.1-.7-2.8.7-1.8-3.6-10.3-5.1-10-.6.2-1.2-.1-1.2-.7 0-.5-.7-.7-1.5-.4-1.1.5-1.3.2-.9-1 .3-.9 1-1.3 1.5-1s.9-.2.9-1c0-.9.4-1.6.9-1.6 1.3 0 .8-5.6-1.8-17.9-2-9.8-3.1-13.3-3.1-10.1M610.7 491.7c-.4.3-.7 1.3-.7 2.2 0 1.4.2 1.4 1 .1.6-.9 1-1 1-.3s-.6 1.6-1.3 2c-1.4.9-4.6 10.1-5.2 15.3-.2 1.8-.9 3.7-1.4 4.4-.5.6-1.1 2-1.3 3.1-.1 1.1-.7 2.3-1.3 2.7-.6.5-.6.8.1.8 1 0 12.6-9.1 17.2-13.5 1.1-1 .9-2.1-1.2-6.4-4-7.9-6.2-11.2-6.9-10.4M496.1 539.6c9.3 9.5 10.4 10.1 13.2 7.7 1.2-1.1 4.1-3.2 6.5-4.7 2.3-1.6 4.2-3.2 4.2-3.5 0-1-26.7-7.1-30.8-7.1-.3 0 2.8 3.4 6.9 7.6M971.2 135.8c-2.4 28.2-2.6 32.2-1.1 32.2.8 0 8.6-2.1 17.4-4.6s17-4.8 18.3-5.1c1.2-.3 2.2-.8 2.2-1.2 0-.5-25.6-25.7-35.4-34.8-.1-.1-.7 5.9-1.4 13.5M978 125.3c0 .4 4.4 4.8 24.9 24.6 6.4 6.1 9 8.1 11 8 1.4-.1 6.3.4 10.8 1.1 8.5 1.2 13.7 1 9.8-.4-2.5-.9-2.5-.9-16-9.4-8.4-5.3-33-20.1-39.7-23.9-.5-.2-.8-.2-.8 0M932 130.8c0 .7-.5 1-1.2.6s-.8-.3-.4.4c.4.6 1.3.9 2 .6s1.6.2 2 1.1c.3.9 0 1.8-.9 2.1-2 .8-4.8-.3-4-1.5 1.6-2.6-3-1.8-16.7 3-10.7 3.7-14.5 5.5-13.2 6 1.2.4 0 .7-2.9.6-2.6 0-5.3.5-5.9 1.1-.8.8-.8 1.2-.2 1.2s2.1.9 3.4 2 3.2 2 4.4 1.9c1.2 0 1.5-.3.9-.6-2.3-.9-1.4-2.1 1.5-1.9 1.5 0 3.6.9 4.6 1.8 1.1 1 2.6 1.8 3.4 1.8s3.9.7 7 1.6c4.6 1.4 5.3 1.8 3.7 2.5-1.8.7-1.8.8.5 1 1.4.1 4.2.1 6.3-.1 5.4-.3 17 2.1 18.3 3.9.8 1 1.3 1.1 1.8.3.4-.8 1.3-.8 2.4-.3.9.5 2.6 1.3 3.7 1.6 2 .7 2 .7.1 1.4s-1.9.8-.1 1.5c1.1.4 2.2.2 2.7-.6.6-1 .8-.8.8.4 0 1.1.7 1.8 1.8 1.8 1.4 0 1.5-.2.2-1-.8-.5-1.1-1.2-.7-1.7.5-.4 1.7.3 2.7 1.7s2.1 2.2 2.5 1.9c.3-.4-1-2.4-3-4.5-1.9-2.1-3.5-4.2-3.5-4.6s-.7-.4-1.7-.1c-1.1.4-1.4.3-.9-.6.9-1.3-8.1-12.8-9.6-12.3-.5.1-.7-.1-.4-.6.5-.8-2.8-5.2-9.1-12.2-1.3-1.4-2.3-1.9-2.3-1.2M989.1 164.6c-8.5 2.4-15.9 4.8-16.4 5.3-.8.8 10.3 6.6 37.8 19.6 15.7 7.5 18.8 8.8 18.3 7.8-.2-.4-4.5-9-9.6-19.1-8.7-17.1-9.4-18.2-12-18.1-1.5.1-9.6 2.1-18.1 4.5M1015.6 167.7c3.5 7.7 11.3 22.6 14.3 27.2 1.4 2.2 1.5 2.2 2.2.5.6-1.4.8-.9.8 1.8.1 4 1.5 6.6 14.7 27.8 4.7 7.4 9 14.4 9.7 15.5 2.8 4.6 5.9 8.9 5.4 7.5-.2-.8-1.7-6.7-3.2-13s-3.3-13.3-4-15.5c-.8-2.2-2.3-7.6-3.5-12-3.3-12.9-12.3-41.5-13.1-41.5-.4 0-1 2.4-1.3 5.3-.7 5.2-3.3 16.1-3.5 14.2-.1-.6.8-5.7 1.9-11.5 1.1-5.7 1.7-10.7 1.2-11.1-1.1-1.2-12.9-2.9-19.4-2.9h-5.7zM978 179.7c14.6 16.2 31.6 34.1 32.4 34.2 1.1.1 13.4-7.5 16.3-10.1 1.2-1.1 1.9-2.6 1.7-3.3-.3-.7-3.8-2.7-7.7-4.5-4-1.8-13-6-20.2-9.3-7.1-3.3-15-6.9-17.5-8-2.5-1.2-4.8-2.1-5.2-2.2-.4 0-1.3-.6-1.9-1.3-.7-.6-1.7-1.2-2.2-1.2s1.4 2.6 4.3 5.7M971.5 179.5c1.1 6.1 11.3 49.6 11.8 50.2 1.2 1.2 24.6-12.1 24.7-14 0-.7-21-23.5-34.2-37.2l-2.9-3zM1022 209.1c-4.1 2.7-8.1 5.5-8.8 6.2-1 1.1.2 3.7 6.2 13.6 8.6 14.2 7.9 14.7 9.6-6.4.6-7.7 1.3-15 1.6-16.3.2-1.2.1-2.2-.3-2.1-.5 0-4.2 2.3-8.3 5M1034 207c0 2.8 6.1 38.1 7.4 42.2 1.3 4.8 1.9 5 15.8 6.3 8 .7 8.2.6 6.7-1.2-.8-1-3.7-5.6-6.4-10.3-2.6-4.7-6.7-11.4-9-15s-6.5-10.3-9.4-15c-2.8-4.6-5.1-7.8-5.1-7M1031.2 221.1c-.6 5.7-1.3 13.3-1.4 16.9l-.2 6.5 4.8 3.4c2.6 1.8 4.8 3.2 5 3 .3-.4-5.8-36.5-6.6-38.9-.2-.7-.9 3.4-1.6 9.1M999.5 224.1c-11.7 7.1-12.9 8-11.8 8.9.4.4 4.9 1.7 9.8 2.9 5 1.3 12.5 3.2 16.8 4.2 4.3 1.1 8.4 1.9 9.1 1.7.9-.2-1.1-4.3-5.7-12.1-3.9-6.4-7.3-11.7-7.6-11.7-.4 0-5.1 2.7-10.6 6.1M938 228.9c0 .9 36.7 74.1 37.6 75 .2.2.6.2.8 0 .7-.8 5.1-63.3 4.7-68.1-.1-2-3.9-2.8-25.3-5.8-16.8-2.3-17.8-2.3-17.8-1.1M935.6 239.7c-.7 9.3-2.3 34.2-3.1 46.8-.3 4.9-.9 12.4-1.5 16.5-1 8-1.3 28-.5 28 1.2 0 44.5-22.3 44.5-22.9 0-1.2-37.5-76-38.1-76.1-.4 0-1 3.5-1.3 7.7M990 244.6c6.7 12.6 9.8 17.4 11.1 17.4 1.9 0 23.9-15.1 23.9-16.4 0-1-5.6-2.6-19-5.6-1.9-.4-6.6-1.5-10.5-2.3-3.8-.9-7.8-1.9-8.8-2.3-1.4-.5-.6 1.8 3.3 9.2M983.6 239.1c-.6 1.8-2.4 27.9-3.1 46.9-.7 17.6-.9 17.7 10.6-5.7l8-16.2-4.9-8.3c-2.8-4.6-6.1-10.5-7.6-13.2-1.5-3-2.7-4.4-3-3.5M1018.4 253.5c-4.4 3-9.7 6.4-11.9 7.6l-3.9 2.1 3.9 2c2.1 1.1 8.1 3.7 13.4 5.8s10.9 4.5 12.6 5.4c1.6.8 3 1.4 3.1 1.3 1.1-1.1-7.2-29.7-8.6-29.7-.4 0-4.3 2.5-8.6 5.5M1041.1 266.8c-2.6 13.7-3 12.2 4.4 18.6 3.6 3.2 6.7 5.7 6.8 5.5.2-.2-2-7.2-4.8-15.6l-5.1-15.1zM998.3 269.7c-3.6 7.9-3.6 8-1.2 11.2 3 4.1 2 6.3-2.8 5.9l-3.7-.3-4.7 9c-2.6 4.9-4.7 9.1-4.5 9.2.2.2 2-.3 4.2-1.1 3.9-1.3 7.9-3.2 33.1-15.1 7.2-3.5 14.1-6.6 15.2-7 1.2-.3 2.1-1 2.1-1.4 0-.6-24.3-11-34-14.6-1.1-.4-2.2.9-3.7 4.2M1031.6 297c-3.2 7.2-5.5 13.4-5.2 13.7.6.6 14.7-2.7 15.9-3.8.9-.7-3-20.7-4.3-22.2-.4-.4-3.3 5.1-6.4 12.3M1051.1 299.7c-1.2 2.4-2.5 4.3-3 4.3s-1.1.9-1.4 2c-.4 1.5.5 2.9 3.4 5.2 2.1 1.7 3.9 3.5 3.9 4s-2-.7-4.5-2.8l-4.5-3.6-.1 3.8c0 2.9-.2 3.4-.8 1.9-.7-1.6-1.5-.7-4.9 5.5-2.7 4.9-3.7 7.6-3 7.9.7.2 1.9 1.2 2.8 2.2.8.9 2.5 2 3.7 2.4 1.7.4 2.3 0 3.1-2.2l.9-2.8.8 3.7c.4 2.1 1.1 3.6 1.5 3.3.4-.2 1.9-2.9 3.4-6 1.4-3 2.8-5.5 3-5.5s-.9 3.3-2.4 7.2c-2.6 6.6-2.7 7.4-1.2 8 3.2 1.2 7.2.9 7.3-.7.2-1.9.3-2.5 1.6-5.5.6-1.4 1.3-3.4 1.6-4.5.4-1.1.5.1.3 2.6-.2 3.3 0 4.6 1 4.6.8 0 1.4-.4 1.4-.8 0-.5 1.3-1.5 2.9-2.4 1.6-.8 3.2-2.3 3.6-3.4.4-1.4-3.7-15.2-5.2-17-.3-.5-6.1 5.6-8.3 8.9-1.4 2-1.5 1.5-1.6-6.2l-.1-8.3 1.1 6 1.1 6 2-3c1-1.7 2.5-3.6 3.4-4.2 1.8-1.6.8-3.7-5-10.3-3.1-3.6-3.9-4.1-4-2.5v2l-.8-2c-.7-1.8-1.1-1.5-3 2.2M979.5 310c-.3.5.6 3.2 2 6 1.4 2.7 2.3 5 2 5-.2 0-1.6-2.3-3-5-2.7-5.4-4.4-6.4-4.6-2.8-.1 1.8-.2 1.9-.6.5-.3-1-.9-1.7-1.4-1.5-3.8 1.3-41.9 20.5-41.9 21.1 0 1.3 33.3 17.2 33.7 16.1.2-.6 1-2 1.8-3 1.3-1.8 1.4-1.7 1.5 1.4 0 2.7.3 3.2 1.8 2.8.9-.3 6-1 11.2-1.6s9.6-1.3 9.9-1.6c1.9-1.8.9-5.2-5.3-19.7-3-6.9-.7-3.8 3 4 5 10.7 5.1 10.7 8.2 7.7 6.1-5.7 6.5-6 5.8-4.4-1.1 2.3 8-7.7 13.1-14.3 2.5-3.2 4.3-6.1 4-6.3-.3-.3-9-1.4-19.4-2.5-10.3-1.1-19.3-2.1-20-2.4-.7-.2-1.5 0-1.8.5M1033.5 311.5c-10.5 3-11.4 3.4-12.5 5.6-.6 1-3.3 4.7-6 8.3-2.8 3.6-5 6.8-5 7 0 .3 1 .2 2.3-.3 1.2-.4 4.4-1.1 7-1.5 2.7-.4 5.1-1.4 5.4-2.2.3-.7.1-3.9-.4-6.9-.6-3-.6-5.5-.1-5.5.4 0 .8 1.2.8 2.7 0 3.9 1.9 10.3 3 10.3.6 0 1-.4 1-1 0-.5.6-.7 1.3-.4 1.5.5 6.1-5 10-12 4.2-7.6 4.5-7.4-6.8-4.1M930.4 341.2c.7 6.5 2.1 27.8 1.9 29.5-.2 2.3.9 1.8 18.1-9.5 12.2-7.9 12.9-8.5 11-9.9-2.3-1.7-29.6-15.3-30.8-15.3-.5 0-.6 2.4-.2 5.2M980.9 350.4c-.3.3-5.4 1-11.6 1.6-.2 0-.3.6-.3 1.3 0 1.5 7.5 10.2 19.3 22.2l8.8 9-.6-5.9c-.3-4-1.1-6.4-2.4-7.5-2.8-2.5-4.3-12.3-2.6-18.4l.7-2.7h-5.4c-3 0-5.7.2-5.9.4M951.4 363.1c-7.1 4.5-14 8.8-15.3 9.6-1.9 1.3-2.1 1.7-1 2.7s31.2 19.9 36.8 23.1c1.9 1.1 1.1-6.3-2.2-21.5-2.1-9.5-3.2-15.8-3.6-21.3-.2-1.5-2.1-.5-14.7 7.4M969.6 363.2c.7 3.5 2.1 10.8 3 16.3 2.1 11.8 3 14.8 4.4 14 .5-.3 1-1.1 1-1.6 0-.6-.4-.7-1-.4-.5.3-1 .1-1-.4 0-.6 1.1-1.1 2.5-1.1s2.5-.5 2.5-1.1.7-.8 1.6-.5c.9.4 2.3.1 3.1-.5.7-.7 1.6-.9 2-.6.3.4 1.2.2 2-.4.7-.6 2.2-.9 3.3-.6 1.7.4 1.8.3.7-1.3-.7-1.1-4.7-5.6-8.9-10.2-4.1-4.6-9.3-10.4-11.4-13-2.2-2.6-4.2-4.7-4.5-4.7-.4-.1 0 2.7.7 6.1M1040.5 392.9c-.4 3.6-1.1 8.2-1.6 10.1-1.6 6.2-1.3 6.8 4.3 8.5 10 2.9 10.1 2.8 6.3-12-3.4-13.6-3.3-13.3-6-13.3-2.2 0-2.4.5-3 6.7M1003 389c0 .4 2.4 3.4 5.3 6.7 2.8 3.2 7.1 8.1 9.4 10.8s4.4 4.7 4.7 4.4c.2-.2.6-4.2.8-8.9.3-7.6.1-8.5-1.4-8.4-1 .1-1.8-.2-1.8-.6 0-.7-4.8-2.2-12.7-3.9-2.4-.5-4.3-.5-4.3-.1M1001.5 395.9c.7 2.2 1.7 6 2 8.5.6 4 1.1 4.6 3.9 5.5 7.5 2.2 12.7 3.3 13.2 2.8.6-.6-18.5-20.7-19.7-20.7-.4 0-.2 1.8.6 3.9M987 396.1c0 .4-.9 1.1-2 1.4-1.1.4-1.8 1.1-1.5 1.6s0 .6-.8.3-1.9.2-2.6 1c-1 1.2-.9 1.5.6 1.9 14.2 4.1 21.4 5.9 21.8 5.5.7-.7-1.6-7.3-3.4-9.7-1.4-1.8-2.9-2.3-6.9-2.5-2.9-.1-5.2.1-5.2.5M1047.2 447c-1.8 7.4-3.9 17.4-4.8 22.2-1.4 8.7-1.4 8.7 1.5 19.5 1.6 5.9 3.5 12.8 4.1 15.2.6 2.3 1.3 4.1 1.6 3.9.5-.5 2.4-31.5 2.6-43.3.1-4.4.4-6.5.6-4.7.3 3.1.6 3.3 3 2.7 6.6-1.8 14.8-3.2 15.5-2.8.4.2.7 0 .7-.5 0-1-16.9-10.7-17.5-10-.2.2.2 2.2 1 4.3.8 2.2 1.4 4.6 1.5 5.4 0 2.5-1.4.1-3.1-5.2l-1.7-5.2-.3 4c-.2 2.2-.5-1.2-.8-7.5l-.6-11.5z"/><path d="M1079 446c-8 .4-16.5.8-19 .9l-4.5.2 4 2.5c5.6 3.5 14.4 7.4 16.7 7.4 1.9 0 9.5-4.2 17.7-9.7 2.3-1.6 2.8-2.2 1.5-2.1-1 .1-8.4.5-16.4.8M1053.6 480.7c-1.4 21.6-1.7 30.3-1.1 30.3.4 0 3.5-2.3 6.9-5.2 3.3-2.9 6.3-5.3 6.5-5.5s-.3-1.8-1.2-3.5c-1.9-4-5.8-13.5-8.1-20.1-1-2.6-1.9-4.7-2.1-4.7-.1 0-.6 3.9-.9 8.7M1059.8 507.3c-4.2 3.4-7.7 6.5-7.7 6.8-.1.3 1.8 1.4 4.2 2.5 2.3 1 4.5 2.3 4.8 2.8 1.2 1.7 3.8-.3 6.9-5.1 4.1-6.5 4.6-8.9 2.5-11.3-1-1.1-2.1-2-2.4-1.9-.3 0-4.1 2.8-8.3 6.2M261.9 183.7c-3.9 7.1-8.4 15.1-10 17.9s-2.9 5.4-2.9 5.8c0 .7 8.3-3.7 28.5-15.2 18.4-10.4 19.8-11.3 19.2-11.8-.5-.5-21.4-7.9-24.9-8.7-2.6-.7-3-.2-9.9 12M274.5 195.1c-10.4 5.9-21 12-23.3 13.4l-4.4 2.6 5.9 4.5c3.2 2.4 6.6 5.1 7.6 5.9 1.6 1.4 2.1 1.1 5.8-2.7 2.3-2.4 9.5-10.7 16.1-18.5 11.2-13.4 15.3-17.7 13.2-14-.8 1.4-14.2 17.4-26.1 31.1-2.9 3.4-5.3 6.4-5.3 6.7s3.3 3 7.3 5.9c3.9 3 7.8 5.8 8.5 6.3s1.5.8 1.8.5c1.6-1.7 15.6-50.7 14.8-52-.9-1.5-3-.5-21.9 10.3M292 210c-3.6 13-3.7 13.6-2.3 15.7 1.2 1.8 1.2 2.3-.3 3.8-1.4 1.3-1.9 1.4-2.6.3-.7-.9-.8-.5-.5 1.4.2 1.5 0 2.5-.4 2.2-.5-.3-.9-.1-.9.5 0 .5-.3 1.6-.6 2.4-.4 1.2.2 1.3 3.8.6 6.9-1.5 16-3 20.3-3.4 7.8-.8 8.4-1.2 7.6-4.3-.5-1.6-1.6-4.2-2.4-5.9-.9-1.7-1.3-3.3-1-3.7.4-.3.1-.6-.5-.6-.7 0-1.2.7-1.2 1.5s-.7 1.5-1.5 1.5-1.5.6-1.5 1.2c0 .7-.6.4-1.2-.7-2-3.4-3.8-4.7-5.5-4.1-.9.4-2 .1-2.5-.6-.6-1-1-1-1.8.2-.9 1.3-1 1.3-1 0 0-1-.3-1.1-.8-.4-.5.8-1.1.7-2.2-.4-1.3-1.4-1.2-1.5.3-.9 1.8.7 2.3-.1 4.1-6.1.6-1.8.3-2.2-1.2-2.2-1.1 0-2.2-.6-2.5-1.3-.2-.6-1 .8-1.7 3.3M247.1 219.7c.1 3.7.4 11.5.8 17.3l.6 10.5 4.1-7c2.2-3.9 5.2-9 6.5-11.4l2.4-4.3-4.5-4c-2.5-2.1-5.7-4.8-7.2-5.9l-2.8-2zM244.7 222c-.9 2-6.7 31-6.7 33.4 0 1.7.2 1.8 1.8.4.9-.8 2.4-1.8 3.2-2.2s-.2.7-2.2 2.4l-3.8 3.2v9.1c0 5 .3 8.7.8 8.1.4-.5 2-4.7 3.4-9.4 6.1-19.3 6-18.5 5-33-.4-7.4-1.1-12.8-1.5-12M258.5 232.7c-2.1 3.7-5.1 8.8-6.7 11.2s-2.7 4.6-2.4 4.8c.3.3 2.8-.3 5.6-1.2s5.3-1.5 5.6-1.3c.2.3-2.3 1.3-5.6 2.3s-6 2.1-6 2.4 3.7 4.1 8.3 8.3c9.6 9.1 8.1 9.7 17.1-7.3l5.9-11.1-3.4.6-3.4.6 3.3-1.5c1.7-.8 3.2-1.7 3.2-2 0-.6-14.8-11.5-16.4-12.1-.9-.3-2.7 2-5.1 6.3M300.3 236.9c-8.9 1.4-16.4 2.9-16.7 3.2s-.8 14.2-1.1 31c-.3 16.7-.8 31.4-1 32.6-.3 1.2-.1 2.4.5 2.8 1 .6 36-68.5 36-71.1 0-.8-.3-1.4-.7-1.3-.5.1-8.1 1.3-17 2.8M311.6 252.2c-3.9 7.9-11.8 24.1-17.7 36l-10.6 21.7 2.1 1.9c2.4 2.1 6.9 4.8 23.1 13.7 3.9 2.1 8.2 4.7 9.7 5.7 4.8 3.3 5.1 2.7 4.4-9-.3-5.9-1.1-25.3-1.7-43.2s-1.4-34.4-1.7-36.8l-.7-4.3zM277.7 248.8c-1.4 3.1-4.5 8.8-6.7 12.7l-4.1 6.9 2.4 6.6c1.4 3.6 4.2 11.2 6.3 17s4.1 10.9 4.6 11.4c.4.6.9-10.5 1-24.5.1-13.9.2-27.6.3-30.2s-.1-5-.5-5.2-1.9 2.1-3.3 5.3M242.7 266.7c-2.5 7.5-4.5 13.9-4.3 14.1s4.6-1.7 9.7-4.3c5.2-2.5 8.5-3.8 7.4-3-1.1.9-5.4 3.3-9.5 5.2-4.1 2-7.7 3.8-8 4-.7.7 3.6 3.7 17.8 12.3 7 4.2 15.1 9.1 18 10.9 2.9 1.9 5.5 3.1 5.8 2.9.2-.3-1.3-5.2-3.4-10.9-2.2-5.7-5.1-14.2-6.7-18.9-1.5-4.7-3.1-8.9-3.5-9.3-.4-.5-2.2-.1-4 .8-1.7.9-3.4 1.4-3.6 1.2-.3-.2.9-1 2.6-1.7 1.6-.7 3-1.6 3-2 0-.9-15.1-15-16-15-.3 0-2.7 6.2-5.3 13.7M239.9 290.7c2.9 7.5 8.5 21.8 8.7 22.2.2.1 5.8-.2 12.6-.9 17.4-1.7 19.2-.8 2.4 1.2-7.6.9-14 1.9-14.2 2.1-.8.8 17 28.7 18.1 28.4.5-.2 2.5-3.9 4.2-8.3 4-9.6 4.2-8.7.6 1.9-2 5.9-2.4 8.3-1.6 9.6 1.1 1.7 16.2 5.3 17.6 4.1.4-.3-.6-7.1-2.3-14.9-1.6-7.8-3-14.7-2.9-15.4.1-1.4 3.1 10.1 5.5 21.3.9 4.1 1.8 7.8 2.1 8.3.4.7 26-12.1 29.1-14.6 1-.8.7-1.3-1-2.6-3.3-2.3-35.1-20.1-35.9-20.1-.4 0-.4 1-.1 2.2.5 2 .4 2.1-.9.8-.8-.9-1.9-2.5-2.5-3.5-1-1.8-17.1-12.2-37.6-24.4l-3.7-2.2zM318 338.5c-1.9 1.2-8.3 4.8-14.2 7.9-6 3.2-10.8 6.1-10.8 6.6 0 2.1 18.5 15 21.5 15 .9 0 1.2.7.9 1.7-.5 1.7-.5 1.7.9 0 2.1-2.5 7.2-32.3 5.8-33.1-.4-.2-2.2.7-4.1 1.9M271.4 351.8c.4.7.9 3.9 1.2 7.2.3 4.8.1 6.2-1.1 6.6-.8.4-1.5 1.5-1.5 2.5s-.4 1.9-.9 1.9c-.9 0-2.3 3.7-3.4 9-.5 2.1 0 1.8 3.4-2 2.2-2.5 7.4-8.7 11.6-13.8 7.9-9.6 8.3-11.1 2.8-11.2-1.1 0-4.4-.3-7.4-.7-4-.4-5.2-.3-4.7.5M290.4 358.5c-.3 1.9-.3 4.2 0 5.1.4.9 0 2.4-.8 3.3s-3.1 7.4-5 14.6c-4.4 15.5-4.5 15.9-5.2 15.3-.3-.3.9-6.4 2.6-13.4 4.8-19.6 6-25 6-25.8 0-.4-4.4 4.8-9.9 11.6-5.4 6.8-10.5 12.9-11.4 13.7-1.5 1.2-1.1 1.9 3.3 7 8.7 10 7.6 10.1 25.8-2.2 8.6-5.9 16.8-11.5 18.1-12.6l2.4-1.9-2.2-1.1c-1.2-.7-6.8-4.8-12.6-9.2l-10.4-7.9zM208.7 396.2c-5.4 10.6-11.8 23.3-14.3 28.1-2.5 4.9-4.3 9.1-4.1 9.4.5.5 11.6-6.4 27.7-17.2l7.5-5 .3-5.5c.5-7.8-.8-24.1-1.9-23.5-.4.3-1.4-.3-2.1-1.5-1.3-2-1.3-2-3.1.2l-1.8 2.3 1.1-2.3c.6-1.3 1-2.8.8-3.3-.2-.6-4.7 7.7-10.1 18.3M251.5 388.8l-5 1.7-.5 7.5-.5 7.5-.9-4.9-.9-4.9-1.8 3.4c-2.4 4.6-2.4 2.6.1-4 2.2-5.5 2.1-7.8-.1-4.3-.7 1.1-1.8 1.8-2.6 1.5-1-.4-1.2 1.3-1.1 7.6.1 7.8.2 8 2.9 9 3.1 1.1 4.6-.2 9.5-7.9 1.6-2.5 4.3-6.3 6.1-8.6s3.3-4.4 3.3-4.8c0-1-3.1-.6-8.5 1.2M223.9 414.4c-2.6 2.5-31.8 21.6-33 21.6-1.7 0-.2 1.3 1.9 1.7.9.1 8 .5 15.7.8 7.7.4 15 .8 16.3 1.1 2.2.4 2.2.4 2.2-11.8 0-13.2-.6-15.7-3.1-13.4M190 440.1c0 .9 8.4 6.5 13.8 9.3 2.9 1.5 3.2 1.4 12.3-3.1l9.4-4.7-12.5-.7c-6.9-.4-14.9-1-17.7-1.2-2.9-.2-5.3 0-5.3.4"/></svg>