<svg xmlns="http://www.w3.org/2000/svg" width="1706.667" height="960" viewBox="0 0 1280 720"><path d="M0 360v360h1280v-72.9c0-57.4-.3-73-1.2-73.4-1-.3-1-.9-.1-2.6 1-1.6 1.3-60.8 1.3-286.6V0H0zM567.2 45.6c4.3 2.2 78.7 27.4 80.9 27.4 1.1 0 1.9.4 1.9.8 0 .5 8.3 5 18.5 10.1 10.2 5 18.5 9.4 18.5 9.6 0 .8-4.3-1.1-18.8-8.4-7.8-3.9-14.7-7.1-15.3-7.1s.4 2 2.3 4.4c5.5 7.3 17.8 23.7 23.3 31.1 2.9 3.8 6.8 8.9 8.6 11.1 1.9 2.3 3.9 4.9 4.4 5.8.7 1.2 1.1-3.5 1.3-15.7.2-11.7 0-17.7-.7-18.2-.6-.3-1.1-1.1-1.1-1.6s2.4.8 5.3 3c2.8 2.1 6.8 4.7 8.7 5.6 5.8 2.9 25.1 16.5 23.5 16.5-.7 0-6.2-3.3-17.6-10.5-.9-.6-4.8-3.1-8.6-5.8-3.9-2.6-7.3-4.7-7.7-4.7-.3 0-.4 5.1-.2 11.2.3 6.2.5 13.8.6 16.9v5.6l10.6-2.4c14.6-3.3 15.4-2.4 1 1.2-6.4 1.6-11.6 3.5-11.6 4.1 0 2.3 17.6 40.1 19.2 41 .4.3.8 1.4.8 2.4 0 1.6 6.5 17.7 7.7 19 .2.2.8-.1 1.2-.8.8-1.3.8.1.1 14.8-.3 7.4-.3 7.4-1 2.5-.4-2.8-.8-3.8-.8-2.4-.1 1.4-1.1 6.1-2.1 10.5-1.1 4.3-3.2 14.1-4.7 21.7-1.5 7.5-2.9 13.5-3.1 13.3-.5-.4.9-7.8 6.6-35.1 2.7-13 3.6-19.4 2.9-20.2-.5-.7-.7-1.7-.3-2.2.8-1.3-6-15.9-9-19.1-1.3-1.5-2.2-3.7-2.2-5.5s-3.3-9.8-8.1-19.5l-8.1-16.5.4 15.5c.3 8.5.5 22.6.5 31.2V202l9.8.1 9.7.2-8.5.8c-11.3 1.2-11 1-10 5.6 1.2 5 7 57.7 7 62.9 0 6-.9 1.1-2.4-12.6-5.2-49.5-5.3-50-6.5-50-.4 0-2.5 5.5-4.6 12.2-2.1 6.8-4.1 12.7-4.5 13.1-.5.5.3 3.5 1.6 6.8 3.2 7.8 3 8.7-.4 1.9-2-4-3.2-5.4-4.5-5.2-1.1.2-1.7-.2-1.5-1.1.2-.8-4-4.8-9.7-9.2-5.5-4.3-11.5-9.2-13.2-10.8-1.8-1.7-3.6-2.8-4-2.4-.4.5-4.4 24.5-5.3 32.4-.1 1.1 5.3-.3 15.4-3.8 6.5-2.2 12-3.9 12.2-3.6.7.7-21.4 8.7-24.1 8.7-3.4 0-3.3 3 .3 5.2 5.2 3.3 21.7 14.7 28.9 19.9 13.6 9.9 6.1 6-11.7-6.1-1.4-.9-6.2-4-10.8-6.9l-8.3-5.2 4.3 6c2.4 3.3 6.1 8.9 8.3 12.4s5.8 9 7.9 12.1l3.9 5.7 12.6-.6c6.9-.4 13.2-.8 13.9-1 1.3-.5 1.7-4.7.5-5.9-1-1-1.3-3.6-.3-3.6.4 0 1.1.7 1.4 1.5.7 2 4.3.4 4.9-2.2.2-1 .2.2-.1 2.7s-.5 6-.5 7.8c.1 1.7-.3 3.5-.8 3.8s-.9-.1-.9-.9-.6-1.7-1.2-1.9c-2.4-.8-27.3 1.2-29.3 2.3-1.4.9-2 .9-2.3.1-.4-1.4-13.7-5.7-20.3-6.7-2.8-.4-5.5-.3-6.7.4-1.5.8-2.1.8-2.4 0-.7-2.2-34 8.1-42.5 13.1-1.8 1.1-3.3 1.5-3.3 1s1.8-1.9 4-3.1c2.2-1.3 4-2.6 4-2.9 0-.8-17.5-9-19.1-9-.5 0-2.3-1-3.9-2.2s-3.2-2-3.4-1.7c-.2.2-1.6 4-3 8.4-2 6.1-2.4 7-2 3.6.4-2.4 1.3-5.9 2-7.7.8-2 1-3.4.4-3.4-1.3 0-11.4 4.6-27.3 12.6-7.2 3.6-12.5 5.9-11.9 5.1.7-.8 7.4-4.5 15-8.1 20.1-9.8 24.7-12.4 24.4-13.7-.1-.6-1.2-9.3-2.3-19.3-1.1-9.9-2.6-21.9-3.2-26.6l-1.3-8.5-7.2 14.8c-4 8.2-7.2 15.1-7.2 15.3s-3 7-6.6 15.1c-8 17.8-12.3 27.9-13.4 31.5-.8 2.6-.6 2.8 7.8 6.3 4.8 2.1 9.2 4.1 9.7 4.5.6.4 4.2 1.8 8.1 3.3l7.2 2.6 1-2.2 1.1-2.2v2.2c.1 2.2.2 2.2 2 .5 1-.9 4.2-3.1 7-4.7 2.9-1.7 7.5-4.5 10.3-6.3s5.3-3.1 5.5-2.8c.7.6-5.3 4.9-14.2 10.1-4.4 2.6-8.4 5.3-9 6-1.3 1.6-4.3 2.6-4.7 1.7-.2-.5-2.5-1.8-5.3-3-2.7-1.1-9.7-4.2-15.4-6.7s-10.7-4.5-11.2-4.5.3 3 1.7 6.7c1.4 3.8 3.6 9.9 5 13.8 1.3 3.8 3.3 8.7 4.3 10.7 1.7 3.6 1.9 3.7 3.5 2 .9-1 1.6-2.1 1.6-2.4 0-.9 14.4-14.7 14.9-14.2.2.2-2.7 3.7-6.6 7.7-7.5 7.7-9.6 10.8-10 14.7-.1 1.7 0 2 .5.9.5-1.2 1.3-1.4 3-.8 1.2.5 2.2 1.2 2.2 1.7s1.1 1.4 2.5 2 2.5 1.7 2.5 2.3-2 0-4.4-1.4l-4.5-2.5-.3 2.2c-.2 1.1 0 3.9.4 6.1s1.4 8.7 2.3 14.5c2.5 15.8 5.1 26 5.7 23 .9-4 .9-24.2 0-23.6-.4.2-.8-2-.8-5 .1-5.9 1.2-7.3 1.9-2.2.2 1.8.3.6.2-2.7-.1-5.1.2-6.5 2.4-9.2 3-3.8 4.1-4.1 4.1-1.4 0 1.7 1.8 3.1 4 3.1 1 0 3.8-5.2 5-9.2 1.2-3.8-.7-4.1-7-1.2-7 3.2-9.6 3.1-3.4-.2 9.3-4.9 22.1-14.3 19.7-14.4-.4 0-.1-.6.7-1.3s1.6-2 1.8-2.9c.2-1.3-1-1.8-6.5-2.3-8.4-.8-10.1-1.3-4.8-1.4 5-.2 11.6-1.7 12.4-2.9.6-.9 7.3-4.2 12.8-6.2 3.1-1.2 4.1-3 5.6-9.5.4-1.6.5-1.5.6.5.2 4.5 4.2 5.3 13.3 2.9 6.8-1.8 8.2-2.7 10.9-6.1 1.7-2.1 3.3-3.7 3.6-3.4.5.5-2.4 5.2-4.4 7.4-1.5 1.6-1.7 2.6-.4 1.8.5-.4 1.1-.2 1.3.3.1.5 3.9 1.1 8.3 1.3s8.3.7 8.7 1.3c.5.6.8.3.8-.7 0-.9-.9-1.8-2.2-2-2.5-.4-3.7-2.8-1.4-2.8 1.9 0 2-2.4.5-6.8-2.1-6.2-.3-6.2 2 0 1.3 3.5 3.7 9.1 5.3 12.6l3 6.3 4-4.3c2.2-2.3 4.6-5.5 5.5-7.1.8-1.6 1.6-2.7 1.9-2.4.2.2-1.4 3.5-3.6 7.3-4.5 7.6-4.7 8.4-2.5 8.4 2.1 0 6.8 4.7 6 6-.3.6.1 1 1 1 .8 0 1.9.8 2.2 1.7 1 2.7 2.7 4 4.3 3.5.8-.3 1.2-.1.7.3-.4.5 1.2 1.9 3.4 3.2 3.9 2.2 4.2 2.2 5.6.6 1.3-1.7 1.4-1.7.8.3-.4 1.7.1 2.3 2.7 3.2l3.3 1.2-3.2-.5c-3.8-.5-4.9.9-5.2 7-.1 2.2-.6 4.2-1.1 4.3-.6.2-1 1.1-1 2 0 1.5.2 1.5 1 .2.6-.9 1-1 1-.3 0 .6.3 1.9.7 2.9.4 1.1.3 1.5-.5 1-.6-.3-1.4-.1-1.8.5s.1 1.6 1 2.1c1.3.7 1.6 2.6 1.6 10 0 8.1.2 8.9 1.6 7.7.8-.7 2.4-2.9 3.4-4.8 1-2 5.3-8.8 9.5-15.1 6.5-9.9 7.3-11.7 6-12.6-1.4-1-1.2-1.2.8-1.8 2-.5 2.3-1.1 2-3.8-.4-3.2-.3-3.2 1.2.7.8 2.2 1.5 4.6 1.5 5.3s1.1 3 2.5 5c3.5 5.2 3.1 6.3-.5 1.4-2.7-3.8-5-5.4-5-3.5-.1 7.5-1.4 25-2.5 34.1-.8 6.4-1.5 12-1.5 12.4 0 1.7 1.9.6 5.4-2.9 1.9-2 3.8-3.4 4.1-3.1s-1.5 2.4-4.1 4.8c-2.7 2.5-4.6 5.2-4.6 6.4 0 1.7-.6 2.1-3.1 2-1.8 0-5 .7-7.2 1.7-2.3 1-6.8 2.5-10.1 3.4-3.2.8-6.3 2.1-6.9 2.8-.5.7-1.9 1.1-3 .9-2.4-.3-22.6 5.4-23.4 6.6-.3.5-1.1 1.1-1.7 1.3-1.6.6-12.4 16.5-12.4 18.3 0 .9 1.2 2.2 2.8 3 3.3 1.8 2.6 2-1.7.5-2.4-.9-3.5-.8-4.8.2-1.4 1.2-1.5 1.1-.9-.7.5-1.8-.7-3.4-7-9-4.3-3.8-9.8-8.8-12.4-11.2-2.6-2.3-4.9-4.2-5.2-4.2s-.4 1.5-.2 3.2c.2 1.8.8 8.9 1.4 15.8s1.4 13.3 1.6 14.2c.3 1 .1 1.8-.4 1.8s-1.2-2.6-1.5-5.8c-.8-7.5-1.6-9.5-3.4-8.8-2.2.9-3.6-.4-2.2-2 .9-1.2 1.5-1.2 2.7-.2 1.6 1.4 1.6 1.9-.3-15.7-.1-1.7-.3-3.6-.4-4.3-.1-.8-1.8-1.2-5.2-1.2-4.1 0-5 .3-4.6 1.5.7 1.8-.9 3-1.7 1.3-.4-.7-.4-.3-.2.9.5 3-.1 2.9-2.7-.3-2-2.6-2.1-2.7-11.6-2-5.3.4-11.1 1-12.9 1.4l-3.3.7 11.3 11.9c6.2 6.6 17 17.8 24.1 25l12.7 13.1-.5-6.4c-.3-3.5-.8-6.7-1.1-7.2s-.1-.9.5-.9c.5 0 1.3 2.1 1.6 4.7.3 2.7.7 5.5.9 6.3.1.8 1 1.4 2 1.3 1.1 0 1.5.4 1.2 1.3-.7 1.9-.1 1.8 8.4-1.1 4-1.4 7.8-2.5 8.4-2.5 2 .1-1.8 1.8-8.9 4-3.8 1.3-7.4 2.6-7.9 3.1-1.2 1.1 2.4 5.7 11.8 15 4.2 4.2 7.6 8 7.6 8.5s-4.9-4-10.8-9.9c-11.4-11.3-12-11.6-13.6-5.7-1.2 4.1-4.4 15-7.1 23.9-1.4 4.6-2.3 8.6-2 8.9.6.6 13.4-5.4 26-12.1 3.9-2.1 8.9-5.8 11.3-8.5l4.4-4.7-2.8 5.5c-1.6 3-2.7 6.3-2.6 7.2.2 1.3-.1 1.6-1.2 1.2-.9-.3-1.3-1.1-.9-1.7 1.1-1.8-4.2.1-11.3 4.1-3.8 2.1-10.4 5.6-14.6 7.8-4.3 2.1-7.8 4.5-7.8 5.2s-.6 1.2-1.4 1c-1.4-.3-13.4 8.5-21.2 15.5l-4.2 3.8-14.5-7.1-14.5-7.1-5.8 2.1c-3.3 1.2-7.4 2.6-9.1 3.1-1.8.6-3.3 1.4-3.3 1.9s-1.2.2-2.7-.5c-8.5-4.1-15.3-6.4-17-5.7-5.1 2-17.2 9.9-17.7 11.4-.6 2.4-2.1 2.3-2.3-.2-.1-1.6-7.3-11.4-13.5-18.4-.5-.6-1.4-.2-2.3 1-1.5 1.8-1.5 1.8-1-.6.5-2.1-.3-3.2-5.4-7.2-3.3-2.7-6.2-4.8-6.5-4.8-.2 0-2.7-1.6-5.6-3.5s-5.9-3.5-6.9-3.5-2.7-2.2-4.4-5.7c-3.2-6.7-6.9-13.4-9.2-17-.9-1.3-1.4-2.7-1.2-3 .3-.2 2.2 2.6 4.3 6.4 2.1 3.7 4.3 7.1 5 7.5.6.4 1.7 2.1 2.4 3.8.7 1.6 1.6 3 2 3 .3 0 2.1-2.3 3.9-5.1 1.8-2.7 3.5-4.8 3.8-4.5.3.2-.9 2.5-2.6 5-1.7 2.4-3.1 5.1-3.1 5.9s2.6 3.1 5.8 5.2c3.1 2.1 8.3 5.8 11.5 8.3 3.2 2.4 6.1 4.1 6.4 3.8.4-.3.1-2.3-.5-4.3-1.8-6.1-7.2-28.8-7.2-30.4 0-.8-.5-2-1.2-2.7-.9-.9-1.5-.7-2.5.6-1.2 1.5-1.3 1.4-.3-.7 1-1.9.9-2.5-.1-3.2-2.9-1.8-34.9-14.2-35.4-13.7-.3.3 1.3 3.3 3.6 6.7s3.9 6.4 3.6 6.7c-.5.5-7.3-9.5-8.4-12.3-.3-.8-1.2-1.2-2-.8-1.2.4-1.4-.2-1.1-3 .2-1.9.1-3.5-.3-3.5s-.9-.9-1.2-2.1c-.5-2-.5-2 1.4-.3 1.1 1 2.5 2.9 3.2 4.2.8 1.5 3 3 6.2 4.2 2.8.9 7 2.6 9.5 3.8 11.4 5.2 19.7 8 22.3 7.5 1.7-.3 4.6-2.6 7.5-6 2.6-3 7.2-8.3 10.2-11.6 3.1-3.4 8.2-9.5 11.4-13.5 5.5-6.7 7.6-9 7.6-7.9 0 .3-1.8 2.7-4 5.3-2.2 2.7-4 5.2-4 5.5 0 .4-3 3.7-6.6 7.4s-8.2 9.1-10.3 11.9-4.6 5.7-5.5 6.5c-4.4 3.7-4.1 4.6 4.6 14.6 4.6 5.2 8.8 9.5 9.3 9.5 1 0 8.8-23 10.4-30.5 1.4-7 7.2-27.9 8.2-29.8.7-1.3.5-1.7-.7-1.7-1.3 0-1.3-.5.5-3.4 3.2-5.1 2.8-6.6-1.6-6.6-2.1 0-7.5-.5-12.1-1.2-6.2-.8-8.8-.8-10.8.1-1.4.6-2.3 1.5-2 1.9.6.9-2.1 3.5-4.6 4.4-2.2.9-3.3 9.5-3.9 29.8 0 1.9-.3 2.9-.6 2.2-.4-1-.8-1-2.1 0-.8.7-1.7 1.2-1.9 1-.7-.5-3.9-.1-5.1.7-1.1.7-1.1 1.4.4 4.2 1.5 3.1 1.5 3.3 0 2-.9-.7-3.3-3.7-5.3-6.5s-5.2-7-7.1-9.3l-3.4-4.2-4 2c-2.2 1.1-3.7 1.6-3.4 1.1s1.9-1.5 3.6-2.2c1.6-.7 3-1.7 3-2.3 0-1.5-10.3-19.7-11.2-19.7-.4 0-.9 1-1.1 2.2-.3 1.3-.5.5-.4-1.6l.2-3.9-6.9-2.8c-3.9-1.6-7.2-2.7-7.4-2.4-.2.2-1.4-.5-2.6-1.6-4.2-4-7.4-6-8.1-4.9-.6.9.3 6.2 2.2 13.5.4 1.4.2 1.7-.5 1-.6-.6-1.3-3-1.7-5.4-.4-2.5-1.3-6.3-2-8.5-2-6.1-3.8-26.2-3.2-35.8 1.2-17.5 2.6-36.3 2.8-37.3.1-.6.5 2.1.9 6 .7 7.8 3.4 24.8 5.9 37 1.6 7.8 1.7 7.9 5.1 8.7 1.9.5 4.4 1.1 5.5 1.3 1.1.3 4.5.8 7.5 1.1 4.3.5 5.8.3 6.8-.9q2.25-2.7-3.6-3.3c-3.9-.4-10-7.8-13.8-16.7-3.6-8.3-4.1-9.8-5-15.2-.5-2.5 0-3.7 2.5-6.4 1.7-1.8 3.1-4.1 3.1-5s.6-2.3 1.3-3.1c2.4-2.8-2.6 1.4-7.1 5.8-2.4 2.4-4.6 4.1-4.9 3.8s0-1.2.7-2.1c.9-1.1 1.1-3.6.7-8.2-.3-4-.1-6 .4-5.2s.9 3.3.9 5.6c0 2.4.4 4.3.9 4.3 1.1 0 10.6-11 11.4-13.3.4-1 .2-2.8-.4-3.9-1.3-2.4-.4-3.7 1.4-1.9.9.9 1.5-.1 2.9-5.1l1.6-6.3.1 5.9c.1 5.7.2 5.8 1.9 4.3 1-1 2.5-1.7 3.3-1.7s2.3-.7 3.3-1.5c1.1-.8 3-1.5 4.2-1.5 1.3 0 2.6-.5 2.9-1 .5-.8 1.1-.7 2.1.1.8.6 1.4.9 1.4.5 0-.7-7.9-10.5-12.1-15-1.6-1.7-2.9-3.6-2.9-4.1 0-.6 2.8 2.1 6.2 5.8 8.9 9.9 11.6 11.5 17.8 10.7 3.1-.4 5.2-.2 5.5.4s.3 0-.1-1.4c-.3-1.4-.6-3.3-.5-4.3 0-.9-1-2.4-2.2-3.2-3.9-2.5-25.1-9.6-27.4-9.2-2.1.4-2.8-.4-2.4-2.6 0-.4.7-4.6 1.5-9.5.8-4.8 1.8-10.7 2.1-13.2l.6-4.5-2.6 2.9c-3.6 3.9-4.1 2.8-.9-1.9 1.6-2.4 2.4-4.7 2.1-6.2-.2-1.4.1-2.3.8-2.3.8 0 1.4-3.4 1.8-10.8.9-14.3 1.8-20.8 2.8-19 .4.8.4 3 0 4.9s-.9 7-1 11.4c-.1 4.3-.4 8.2-.7 8.7-.3.4-.1.8.4.8 1 0 11.2-19.8 11.2-21.7 0-.7-1.6-2.4-3.5-3.9-2-1.5-3.3-2.9-3-3.3.3-.3.9-.1 1.3.5 1.2 1.8 5.4 3.6 6.2 2.7.7-.7 5-44.2 5-50.1 0-1.2-.3-2.2-.7-2.2-.5.1-4.3 3.4-8.7 7.4-8.3 7.8-10.2 11.6-8.5 18 .5 1.6.9 5.5 1 8.7.2 5.3 1.2 9 2.2 7.9.2-.3 2.7-7.9 5.6-17s5.5-17.2 5.8-18c.3-.9.7-1 .9-.4.3.6-2.3 9.1-5.7 19-3.4 9.8-6.1 19.1-6.1 20.6.1 1.4-.5 2.9-1.3 3.2-.9.3-1.5-.1-1.5-.9s-.6-1.5-1.2-1.5c-.8-.1-.7-.5.4-1.3 1.3-1.1 1.5-2 .8-5.2-1.3-5.8-3.2-20.6-3.1-23.6.1-1.4-.8-9.2-1.9-17.4-2.2-16.6-2.2-16-1.5-15.3.3.3 1.4 7.2 2.5 15.3 1.1 8.2 2.2 15 2.3 15.2.7.6 18.7-18.5 18.7-19.8 0-.8-.5-2-1.1-2.6-.8-.8-.6-1.1.7-1 1.5.2 2.1-1.6 4.1-12.8 3.1-17.3 4.3-27.3 3.7-29-.4-.8.1-1.8 1-2.1s1.6-1.3 1.6-2c0-.8 1.2-3.8 2.6-6.6 2.4-4.6 7.4-19.1 7.4-21.1 0-.5-.9.1-1.9 1.4-1.1 1.3-2.3 2-2.7 1.6-1-.9 7.5-9.6 9.4-9.7.7 0 1.1.4.8.9-.4.5 3.6 5.2 8.7 10.3 5.1 5.2 10.4 10.8 11.7 12.4 2.5 2.9 6 5 6 3.6 0-.4 12.6-13.5 28-29.2s28-29.1 28-29.8c0-1-.8-.9-3.2.3l-3.3 1.6 2.5-2c1.4-1.1 3.1-2.1 3.8-2.1.6 0 1.2-.5 1.2-1 0-1.5 5.7-1.2 9.2.6m395.6 70.2c2.8 1 6 2.6 7 3.5s2.1 1.7 2.4 1.7 5.7 3 11.9 6.6c28.9 16.8 44.6 26.4 46 28 1.7 2.1 1.7 2.1-8.1-4.2-10-6.4-48.2-28.5-48.6-28.1-.2.2 7.1 7.7 16.3 16.8 9.2 9 16.8 17.1 16.9 17.9.5 2.4 18.7 38 19.5 38 .4 0 .9-1 1.2-2.3.2-1.2.4-.4.4 1.8-.1 4.1-.6 3.2 27.5 46.5 2.6 4.1 4.8 7.1 4.8 6.6 0-.4-.9-4.4-2-8.8-1.2-4.4-1.9-8.5-1.7-9.1s1.1 1.8 2 5.4c2.8 10.5 4 13.9 4.7 13.9.4 0 1.1-1.9 1.5-4.3.5-2.5 1-3.5 1.2-2.3.3 1 0 3.8-.6 6.3-.7 2.4-1 4.7-.7 5.1.2.4 3.1 2 6.5 3.7 5.9 3 6 3.1 6.1 7.3 0 2.3-.4 8.4-.9 13.5-.6 5.1-1.3 12.7-1.6 17-.4 4.3-.9 7.6-1.1 7.4-.3-.2.3-9.5 1.2-20.6s1.5-20.3 1.3-20.6c-.3-.2-3-1.6-6.1-2.9l-5.6-2.5-.7 7.2c-.4 4-.5 16.1-.3 26.8.2 13.2 0 19.5-.7 19.3-1.2-.5-7 5.2-9.1 8.8-4.4 7.8-8.5 17.6-7.6 18.2.4.2 2.6.7 5 1.1l4.2.7v-3.4c0-2.3.3-2.9.9-1.9s1.3-.3 2.1-4.3c.6-3.1 1.4-5.6 1.6-5.6.3 0 .2 2.8-.2 6.2l-.7 6.3 3-2.8c3.7-3.4 5.1-3.5 2.4-.1-1.8 2.3-1.9 2.8-.5 4.1.8.9 1.6 1.4 1.7 1.2 1.7-2.7 2.9-6 2.4-7.1-.2-.8.1-2.2.8-3.2 1.5-2 .9-4.6-2.5-11.4-1.2-2.4-1.9-4.6-1.7-4.8.2-.3 1.8 2.3 3.5 5.8l3 6.2.7-5.9c1-9.4 1.3-9.6 1.2-1 0 5-.5 8.7-1.4 10-1.6 2.4-1.7 8.5-.2 8.5.7 0 .9 1.2.6 3.2-.5 2.8-.3 2.6 1.8-1.7 1.4-2.8 2.2-3.9 1.9-2.5-.4 1.4-2.2 5.6-4.2 9.3-3.3 6.5-3.5 7.1-2.9 14 .4 4 1.4 9.1 2.3 11.3 1.7 4.1 9.2 20.3 10.2 21.8.3.5 0 .6-.6.2-1.4-.8-.5 2 4.2 14.4 2 5.2 5.2 13.8 7 19 5.8 16.4 7.2 19.1 9.8 18.6 2.8-.4 2.6-1.9-1.4-9.8-1.6-3.3-2.8-6.2-2.5-6.5.6-.5 7.5 13.9 8.2 17.2.3 1.1-.2 3.3-1 5-1.2 2.5-1.4 2.6-.8.5 1.2-4.9 1.1-5-3.1-5-2.3 0-2.4.3-2.1 3.7.3 2.1.2 2.9-.1 1.8s-.9-2.4-1.4-2.8c-.6-.7-17.3 8.3-20.6 11.1-.6.5-2 1.3-3.2 1.6-1.2.4-3.7 1.9-5.5 3.4-2 1.7-2.6 1.9-1.4.6 1.8-2.1 2.3-3.9.9-3-.5.3-3.7 1-7.2 1.5-3.5.6-6.7 1.4-7.2 1.9-.6.6.9 2 3.6 3.5 2.5 1.4 4.8 2.1 5.1 1.6 1.4-2.2 2.2-.6.9 1.9-1.1 2-1.3 4.4-.8 8.9.4 4.4.3 6.3-.5 6.3-1 0-1.7-7.8-1.3-13.2.2-1.8-2.7-4.1-6.5-5.2l-2.2-.7 2.3 5.8c1.3 3.2 3.6 8.9 5.2 12.7l2.8 6.8 1.3-6.7c.7-3.7 1.7-7.2 2.2-7.9.6-.7.8-2.2.4-3.4-.3-1.5-.1-2.2.8-2.2s1.5 1.4 1.7 3.7c.1 2 1.1 6.6 2.2 10.2 3 10.3 3.3 13.8 2 18.7-1.3 4.7-3.8 7.7-2.7 3.2.5-1.9 0-3.1-1.7-4.7l-2.4-2.3-7.9 6.2c-4.3 3.4-7.9 6.5-8.1 7s.9 1.6 2.5 2.4c2.3 1.3 2.5 1.5.8 1.5-1.1.1-2.7-.3-3.5-.9-.9-.6-1.9-.5-2.9.3-1.1.9-1.5.9-1.8 0-.3-.8-1.2-.9-2.6-.4-1.2.4-4.9.8-8.2.9-4.5.1-5.4-.1-3.5-.8 1.4-.4 4-.8 5.8-.9 2-.1 3.1-.5 2.7-1.1s-1.1-.8-1.6-.5c-.5.4-.9-.1-.9-.9 0-2 2.9-2.1 3.6-.1.7 1.6 3.4 2.1 3.4.6 0-.5-2.3-4.4-5.1-8.7-5.1-7.6-5.2-7.7-6.8-5.7-.9 1.1-4.3 5.5-7.5 9.7s-6.1 7.4-6.4 7.2c-.2-.3 1.8-3.3 4.4-6.6 8.7-11 10.5-14 8.5-14-1.3 0-19.3-11.2-18.8-11.7.5-.4 11.9 6.1 15.6 8.9 1.3 1 2.7 1.8 3.1 1.8 2.2 0 5.2-14.3 3.8-18.2-.6-1.6-.8-3.2-.4-3.5.3-.4.6-.1.6.5 0 .7.5 1.2 1 1.2.6 0 1-.7 1-1.5 0-2 7.6-35.9 10-44.9 1-3.7 1.5-6.4 1-6-.4.5-4.8 9-9.8 18.9-8.4 16.5-9.1 18.4-8.9 23.3.2 6.2-1 7.1-1.5 1l-.3-4.3-8.2 10.2c-4.6 5.6-8.3 10.6-8.3 11.2 0 .5-.7 1.1-1.5 1.5-2.7 1-1.6-1.4 3.8-7.7 2.9-3.4 6.6-8 8.2-10.2s3.3-4.2 3.7-4.6c1-.7 4.5-21.4 5.3-31.7.4-4.6.9-8.1 1.2-7.8.5.5-1.1 17.9-2.6 28.3-.4 2.9-.3 5 .1 4.7 1.2-.8 19.8-38.1 19.8-39.8 0-.8-2.3-2-5.8-3-8.7-2.4-9-2.3-9.8 3.1-.6 3.8-.9 4.3-1.3 2.4-.5-2-1.3-1-4.4 6.2-2 4.7-3.7 9.2-3.7 9.9 0 .8-.8 1.4-1.7 1.4-1 .1-2.7.4-3.8.8s-.8 0 .8-.9c1.5-.8 2.7-2.2 2.7-2.9 0-.8.5-1.6 1-1.8 1.1-.3 9.3-18.8 8.7-19.5-.2-.2-3.1.2-6.3 1-5.6 1.2-5.9 1.4-5.8 4.2 0 1.7.3 4.6.7 6.5q.6 3.3-1.2-1.8c-1-3-2.3-5.8-2.7-6.2-1.2-1.2-17.5-5.2-18.2-4.6-.3.3-1 .2-1.6-.3-2.5-2.1-18.7-6.3-25.6-6.8-6.1-.3-10.2.2-22 2.9-13.3 3.1-14.5 3.5-15 5.8l-.6 2.5-.8-2.3c-.6-1.9-1.5-2.2-6.4-2.4l-5.7-.2 5.8-.3 5.8-.4-.5-3.2c-.6-3.2-.6-3.2.5-.5 1.3 3.4 2.1 3.5 15.7.3 15.6-3.7 17.5-4.4 15.9-5.9-1.6-1.7-36.8-23.6-37.8-23.6-.4 0-.1 2.8.7 6.2 2.3 9.8 2.7 11.8 2.1 11.8-.3 0-1.5-4.3-2.8-9.5-1.2-5.3-2.4-9.7-2.8-9.9-.3-.2-6 .6-12.6 1.9-29.1 5.7-38.6 7.5-40.3 7.4-.9 0 9.3-2.3 22.8-5 13.5-2.6 25.3-5.2 26.3-5.6 1.5-.7-3-3.7-20.9-14.3-12.5-7.4-24-14.1-25.6-14.8s-3.2-2-3.5-3c-.3-.9-1.5-2.8-2.7-4.2-1.1-1.4-.3-.9 1.9 1.1 3.8 3.4 18.1 12.3 39.4 24.5 5.1 3 9.6 5.4 9.9 5.4s1.4.8 2.5 1.8c2 1.7 2 1.6 1.3-6.8-.3-4.7-.9-13.4-1.3-19.3-.7-12.6 1.3-10.7-19.1-18.7-7.3-2.9-13.1-5.4-12.9-5.6s2.6.5 5.3 1.5c10.7 4.3 24.4 9.1 25.9 9.1 1.2 0 1.5-1.3 1.6-5.8 0-3.1.2-6.8.4-8.2s.9-10.4 1.5-20 1.3-20.2 1.5-23.5c.3-3.3.9-12.8 1.5-21 .6-8.3 1.3-17.4 1.6-20.3l.5-5.2-7.8 5.3c-4.3 3-13.5 9.2-20.4 13.9-7 4.8-17.8 12.2-24 16.5-6.3 4.3-12.1 8.3-12.9 8.7-5.9 3.4 14.2-11.2 30.7-22.2 15.9-10.7 30.9-21.7 31.1-22.7.2-1.3-5.1-2.7-29.3-7.6-5.5-1.1-22-4.5-36.8-7.5-14.7-3-27.2-5.2-27.6-4.9-.5.3-1.7-.9-2.5-2.6l-1.6-3.2 2.1 1.9c1.2 1 2.4 1.4 2.5.9.2-.6 5.1-7.5 10.8-15.5s14.5-20.5 19.5-27.8L870 147h-10c-8.2 0-10 .3-10 1.5 0 .8-.9 1.5-2 1.5-1.3 0-1.8-.5-1.4-1.5.5-1.2-.3-1.5-4-1.5-2.5 0-4.6-.5-4.6-1 0-1.2-.3-1.2 17.5-1.1l14 .1-11.5-11.2c-11.4-11.1-7.5-8.6 6.8 4.4 4.1 3.7 7.9 6.5 8.5 6.3 24.5-8.2 46.9-16.3 47.8-17.2.5-.5-6.8-2-16.1-3.3-9.4-1.3-17-2.7-17-3 0-.4 7.6.5 17 1.8 9.3 1.4 17.3 2.2 17.7 1.9.4-.4-.9-2.4-2.8-4.4-3.3-3.6-3.4-3.6-.4-1.6 1.7 1.2 4 3.2 5.3 4.6l2.3 2.5 11.1-2.4c13.7-3 16.8-2.6 3.9.5-14.4 3.4-14.1 2.9-7.4 11.4 5.7 7.2 12.9 16.1 20.5 25.1 3.8 4.5 4.2 4.7 4.9 2.8.4-1.1 1.1-4.9 1.4-8.4.4-3.5 1.3-11.4 2.1-17.6 1.9-15.5 1.9-18.5-.3-17.8-1 .3-4 .7-6.8 1l-5 .6 5.3-1.4c6.8-1.7 7.1-2.2 3.1-4-4.8-2-3.3-1.9 2.9.2m-626.1 24c-1 1-1.7 2.4-1.7 3 0 1.6 20.2 11.2 23.7 11.2 1 0 3.6 1.2 5.8 2.5 2.2 1.4 4.6 2.5 5.2 2.5 1.3 0 7.7-4.6 21.1-15.2 4-3.2 7.8-5.8 8.4-5.8s-1.8 2.1-5.3 4.7c-14.4 10.8-20 15.6-19.5 16.9.3.8.1 1.4-.5 1.4-1.7 0-.1 3.8 8.9 20.5 4.8 8.8 9.1 16.9 9.5 18s1.5 2.8 2.4 3.7c.9 1 1.4 2.1 1.1 2.4s-2-1.8-3.8-4.7c-4.4-7.2-18-31.8-18-32.7 0-.4-.9-1.8-1.9-3.1l-1.8-2.3-2.3 3.3c-1.3 1.9-2.7 3.6-3 3.9-.4.3-4.9 6.3-10 13.5-5.2 7.1-9.6 13.2-9.9 13.5s-1 1.2-1.6 2.1c-.5 1-5 7.2-10 13.9-4.9 6.7-10.3 13.9-11.8 16.1l-2.9 4 3.9-.5 3.8-.6-4 1.3c-2.2.8-3.9 1.9-3.8 2.5.2.7-.1 1.2-.7 1.2s-.8 2.5-.6 6.2c.3 3.5.7 16.9.9 29.8l.5 23.5-.9-19.5c-.5-10.7-1.2-23.7-1.7-28.9l-.7-9.4-15.2 31.4c-20 41.4-19.7 40.9-18.7 41.9 1 .9 37.4 22 38 22 .2 0 .4-1.7.4-3.7s.2-3.4.4-3.2c1.1 1.1.5 9.7-1.8 26.3-1.4 9.9-2.5 18.1-2.3 18.2.1.1 5.8-3.2 12.6-7.3 6.9-4.1 14.3-8.5 16.5-9.7 2.3-1.3 7-4 10.4-6 7.1-4 7.2-4 7.2-2.6 0 .5-.5 1-1 1-1.1 0-13.6 7.1-29 16.5-5.2 3.2-10.7 6.4-12.2 7.2-5.5 2.9-4.8 3.3 9.5 6.4 3.1.7 5.5 1.4 5.3 1.6-.2.3-4.9-.5-10.5-1.7l-10-2.1-3.8 2.1c-2.1 1.1-9.6 6.1-16.8 11-7.1 5-13.7 9.5-14.5 10-1.3.9-1.3 1.1 0 2 1.2.8 1.1 1-.7 1-1.2 0-2.5.5-2.9 1.1-.5.8-.9.8-1.4-.1-.6-.9-3-.4-9.6 2-4.9 1.8-9.3 3.6-9.9 4.1-.5.5-1.8.9-2.8.9-1.8 0-1.8-.1.2-1.8 1.8-1.4 6.1-13.2 6.1-16.6 0-.7-8.7 10.9-12 16.1-1 1.6-1.1 1.6-.6.1.3-1 3.3-5.8 6.6-10.8 3.3-4.9 5.8-9 5.4-9-2.2 0-11.4 3.3-12.4 4.5-.6.8-1 4.4-.8 9.1.3 7.4.4 7.9 2.8 8.5l2.5.6-2.7.8c-1.6.4-2.8 1.2-2.8 1.8s-.3.7-.7.3-.6-3.8-.5-7.7c.2-4.4-.1-6.9-.7-6.9s-1.1.6-1.1 1.4-.5 1.8-1.1 2.2c-1.5.9-.2-7.4 1.7-10.3 1.1-1.8 1.1-2.2-.1-2.7-.8-.3-1.5 0-1.6.7 0 .7-.3 2.1-.6 3.2s-.8 5.5-1 9.7c-.6 11.1-2.1 9.7-1.9-1.9.1-12-1.4-13.3-3.7-3.1-3.3 14.5-3.3 14.9 4.4 40.8 4.3 14.6 4.1 14.1 5.8 12.8 1.3-1 1.4-1 .4.2-2 2.2-1.6 3.8 3.3 12.2 2.6 4.3 4.4 8.1 4.1 8.4s-2.4-2.8-4.7-7-4.5-7.6-4.9-7.6-1.3-3-2-6.8c-1.2-6-4.7-18.3-7.2-25.2-.8-2.3-.8-2.3-.4.5 1 5.7 2.5 18 3 24 .3 4.3-.1 3.1-1.4-4.3-2.1-11.2-3.4-14.4-3.1-7.2.2 2.5.1 6.5 0 9l-.3 4.5-.6-4.7-.6-4.7-9.5 4.5c-10.1 4.8-10.3 5.5-2.5 6.8 2.2.4 4.7 1.2 5.5 1.7 1.2.8.9.9-1 .5-1.4-.3-5.1-.9-8.2-1.3-3.2-.3-5.8-1-5.8-1.4 0-1.1-8.7-1.2-9.4-.1-.5.8 14.6 7.2 16.8 7.2.5 0-.1-1.2-1.5-2.7-1.3-1.5-.4-1 2.1 1.2 2.5 2.1 4.9 4.6 5.4 5.4 1.3 2.1.8 8.2-.9 13.2-.8 2.3-1.5 4.4-1.5 4.8.1 1.5 2-3 4.7-10.9 1.5-4.7 2.9-7.6 3.1-6.5.1 1.1-1.5 7.1-3.8 13.3-2.2 6.2-4 11.8-4 12.5s2.1 3.6 4.6 6.5c2.5 2.8 4.1 5.2 3.6 5.2s-2.9-2.3-5.2-5c-2.5-3-4.9-4.9-5.7-4.6-1.5.6-1.5.7 2.3-14.4 1.3-5.2 2.4-10.4 2.4-11.5 0-2.5-3.4-6-4.8-5.1-1.1.7-14.8-4.7-20.2-7.8l-3.5-2.1 6.3-.3c3.4-.2 6.2-.6 6.2-1-.1-.4-2.8-2.5-6.1-4.6s-5.8-4.1-5.5-4.3c.2-.3 3.5 1.6 7.3 4.1 3.7 2.5 7.3 4.6 7.9 4.6.7 0 5.2-1.9 10.1-4.2l8.8-4.2-7.5-.7c-4.1-.3-12.6-.9-18.8-1.3l-11.3-.8 2 5.3c1.2 2.9 1.9 5.4 1.8 5.5-.2.2-1.6-2.6-3.3-6.2-2.4-5.2-2.8-6.7-1.7-7.6.7-.6 1.3-1.5 1.3-2s1-2.2 2.1-3.8c1.2-1.6 1.9-3.5 1.6-4.4-.3-.8-.1-1.8.5-2.2.7-.5.8-.2.3.6-.6.9-.4 1.1.4.6.7-.5 1-1.5.6-2.4-.3-.9-.3-1.3.1-.9s2-2.3 3.6-6c1.6-3.8 3.3-7.7 3.8-8.8.4-1.1 4-9.2 7.8-18 10.5-24.1 10.9-25.5 10-36.6-.4-5.2-1.2-13.9-1.9-19.4-.9-7.4-.9-16.6-.2-35.5l1-25.5-.2 27c-.2 28.9.5 38.1 3.5 44.8 2.3 5.1 2.6 3.6.5-2.3-.8-2.3-1.5-5.7-1.4-7.4.1-2.8.2-2.7 1.2 1.3 1.3 4.7 2.3 5.6 4.5 4.2 1.1-.7 1-1.6-.6-4.7-3-5.9-3.6-9.5-.8-4.4 1.6 2.9 2.5 3.8 2.6 2.6 0-1.8.1-1.8 1.8-.3 1 1 2.3 1.7 2.9 1.7s1.3.4 1.5 1c.5 1.6 4.8-.1 4.8-1.9 0-.9-.7-2.6-1.5-3.8-1.6-2.3-3.7-7.3-3-7.3.2 0 1.9 2.8 3.6 6.1l3.3 6.1 1.2-3.3 1.2-3.4.1 4 .1 4.1 6 1.2c3.3.7 6 1.7 6 2.2 0 .6.5 1 1 1 .7 0 .7-.6.1-1.8-3.3-6.2-8.2-16.5-7.4-15.7.5.5 3.8 5.6 7.2 11.2 3.5 5.7 6.6 10.5 7.1 10.8s2.3-3.1 4.1-7.5 3.4-7.8 3.6-7.7c.1.2-1 4-2.4 8.5-3.2 9.7-2.8 10.6 5.9 12.8l5.3 1.3-5.5-.1-5.5-.2v4.4c0 2.5.3 5.3.8 6.4.7 1.3.2 2.5-1.9 4.7-2.6 2.7-7.3 14.6-5.3 13.3.5-.3 3.3-3.5 6.3-7.2 2.9-3.7 6.4-7.8 7.6-9.2s3.5-4.4 5.2-6.8c2.5-3.7 2.7-4.2 1.1-4.3-1.7-.1-1.7-.2 0-.6.9-.2 1.7-.8 1.7-1.2 0-1.1-5-28.1-5.6-30.6-.4-1.5-.3-1.7.4-.6.6.8 2.3 8.1 3.8 16.3 1.6 8.1 3.2 14.8 3.6 14.8.9 0 17.8-8.7 25.1-12.9l4.8-2.8-4.8-3c-9.7-6.1-31.6-18.3-32.8-18.3-.2 0-.1 1 .2 2.2.4 2.1.3 2.1-.7.5-.6-.9-1.6-1.4-2.2-1.1-.7.4-.8.2-.4-.5 1.2-1.9-.8-3.6-17.8-14.2-8.8-5.6-17.3-11-18.8-12.1-1.6-1-2.8-1.4-2.8-.9s2.1 6.7 4.7 13.6l4.6 12.7 5.1-.6c2.8-.3 9.2-.8 14.1-1 7.8-.4 7.2-.3-4.5 1.1-7.4.9-13.7 2-14 2.4-.4.5-3.7-.3-7.4-1.6-9.5-3.5-10.1-3.4-7.6 1.5 1.1 2.1 2 4.3 2 4.7 0 1.6-5.2-8.3-6.9-13.2-1.2-3.4-2.3-5-3.4-4.9-1 .1-1.7.1-1.7 0s1.8-5.6 4-12.1c2.5-7.4 3.9-13 3.5-14.5-.5-2.2-.4-2.3.6-.6.9 1.5.8 3.1-.5 7.5-3 9.7-3 10-.7 7.2 3.1-3.4 2.5-1.3-.9 3.9-3.5 5.3-3.5 5.5-1.1 10.5l1.8 3.8 1.1-3.9c1.1-3.8 1.1-3.8.6 1.3-.5 4.9-.4 5.3 1.5 5.3 1.1 0 4.1.7 6.7 1.6 2.5.8 4.8 1.4 5 1.2.5-.5-6.3-20.8-7.6-22.8q-1.95-3-3.6 5.4c-.6 3.5-.8 3.7-1.1 1.5-.2-1.5.2-4.2 1-6 .8-2 1.5-7.8 1.6-14.4.2-10.8-.5-13.1-1.9-5.8-.7 3.7-.8 3.7-.9.7 0-1.7.6-4.8 1.4-6.8 1.5-3.5 1.5-3.6-.7-3.6-2.3 0-2.3 0 .2-1.3 2-1 2.9-2.9 4.8-9.7 2.1-7.9 2.3-6.1.5 3.9l-.6 3.4 3.4-2.4c1.9-1.3 3.7-2.9 4.2-3.4 1-1.4.6-29.5-.4-29.5-.5 0-.9 1-.9 2.2-.1 3.1-3.8 17.8-3.9 15.3 0-1.1.4-3.8.9-6 .5-2.3 1.6-8 2.4-12.8 1.2-6.7 2.6-10.5 5.9-16.5 10.3-18.2 17.7-32 17.7-33 0-.6.4-1.2.9-1.4s7.5-6.6 15.6-14.3 15.1-14.1 15.5-14.3c.5-.2-5.9 6.4-14.2 14.6l-15.1 14.9 7.4 2.6c4.1 1.4 10 3.6 13.2 4.7 6.5 2.3 8.8 1.6 8.1-2.3-.4-1.8-.3-1.9.4-.4.7 1.6 1.3 1.2 5.2-3 2.5-2.6 9.6-10.3 15.8-16.9 6.1-6.7 11.2-12.4 11.2-12.7s-.6-.7-1.2-1c-.7-.2-.4-.3.8-.1 1.3.2 3-.6 4.4-2.1 2.7-2.9 4.2-3.4 1.7-.7m693.5 12.6c4.4 4.1 6.7 8 12.7 22 2.5 5.7 2.6 6.8.5 4.1l-1.6-2 .5 2c.3 1.1 1.9 6.5 3.6 12 5.6 18.9 10.2 36.6 9.9 37.6s-3.1-7.7-7.3-23.6c-4.9-18.6-12.7-41.9-13.5-40.4-.4.8-2 7.2-3.6 14.3-1.5 7.1-3 12.4-3.2 11.7-.4-1.1.9-7 5-24.4.8-3.1.8-5.1.2-5.7s-5.8-1.2-11.7-1.4c-10.8-.5-15.7-1.6-12.3-2.9.9-.4 6.4.1 12.1 1 5.8.9 10.9 1.3 11.3.8.4-.4-1.5-2.7-4.1-5.1-2.7-2.4-4.5-4.4-4-4.4.4 0 2.9 2 5.5 4.4m-772.3 14.9c-7.9 6.2-11 9.3-11.8 12.1-1.1 3.8-8.2 26.8-12.1 39.6-4.7 15-10.1 35.3-9.6 35.8.3.2-.1 2-.9 3.9-1.9 4.4-1.9 4.1.8 4.6 2 .4 1.9.4-.4.6-2 .1-2.9.8-3.3 2.7-.4 1.5-.9 2.4-1.2 2.1-.7-.7 5.6-24.5 10.6-40.2 1-3.3 3.7-12.5 6-20.5 9-31.1 9.3-31.9 15.8-37.2 3.1-2.6 6.2-4.7 6.7-4.7.6 0 .3.5-.6 1.2m531.6 142.2c-2.2 1.3-4.4 2.5-4.9 2.5-.4 0-2.5 1.4-4.5 3.2s-2.8 2.9-1.8 2.5c1.2-.5 1.7-.1 1.7 1.2 0 1.1-.6 2.1-1.2 2.4-1 .4-1 .7 0 1.8 1.5 1.7 1.6 4.6 0 5.1-.7.3-1.3 1.6-1.3 2.9-.2 3.1-1.3 5.1-2.6 4.3-.5-.3-1.9 1.5-3 4s-2.5 4.6-3.1 4.6-.7-.7-.2-1.8c.7-1.6 2.2-12.4 2.7-20.2.2-3.5 3-6.2 11.7-11 2-1.1 2.8-2 2-2.1-1.2-.1 3-1.1 7.5-1.8.6 0-.8 1-3 2.4m-40 25.6c-.2 1.2-1.6 3.3-3 4.7-1.5 1.4-3.3 4-4.1 5.7-.7 1.6-3.4 6.1-5.9 10-7.2 11.1-7.2 11.1-4.4 14.2l2.4 2.7-2.7-1.7-2.7-1.7-1.1 3.8c-2.2 7.8-8 32.2-7.9 32.9.1.5 0 1-.1 1.3s-.7 2.5-1.3 5c-.7 2.5-1.6 4.3-2.2 4.2-.5-.2-.8-.9-.6-1.5 1.5-4.8 1.9-8.3.9-9.4-.8-1-.7-1.2.5-.7 1.2.4 1.8-.2 2.2-2.3.3-1.5 1.4-6.6 2.5-11.3s2.4-11.2 2.9-14.4c.7-5.1.7-5.7-.5-4.2-.7 1.1-1.5 2.2-1.6 2.5-.2.3-1.6 1.7-3.3 3.1-2 1.8-1.6.9 1.5-2.8 6.6-7.9 6.5-7.6 4.7-11l-1.5-3.1 2.5 1.7c2.5 1.5 2.7 1.5 4-.3 3.4-4.7 15.6-25.2 16.5-27.7 1.1-3.2 2.9-2.9 2.3.3m48.5 22.6c0 1.6.3 3.9.7 5.2.4 1.6.3 2.2-.5 1.7-1.5-.9-2.3 2.3-2.4 10.6-.1 5.2-.4 6.6-1 4.8-.6-1.9-.7-1.7-.3 1 .4 2.3-.2 5.2-1.7 8.7-1.9 4.3-3.2 5.6-7.3 7.8-7.9 4.3-10.4 7.1-9.8 11 .3 2.1 0 4.1-1 5.5-1.5 2.1-1.5 2-1-2 .4-3.1.3-4.1-.5-3.6-1.7 1-1.5 7.1.2 8.5 1.2 1 2 .4 4.4-3.1 3.4-4.9 7.2-8.6 7.2-7 0 1.3-3.2 5.2-8.3 10.3l-3.9 3.8-6.2-3.9c-3.5-2.2-7.3-4-8.6-4-1.7 0-2.1-.4-1.5-1.8.4-.9 1.2-3.1 1.8-4.7.5-1.7 1.4-3.8 1.8-4.7.5-1 .9-2.5.9-3.3 0-1.2.4-1.3 1.9-.6 1 .6 3.9 1.7 6.4 2.6 5.2 1.7 6.9 1.3 14.1-3.5 5-3.4 4.9-5.2-.4-4.4-4.5.8-5.5-1.9-5-14.1.1-2.8.4-4.4.7-3.8.2.7.9 1.3 1.5 1.3 1.2 0 5.8-5 5.8-6.3 0-.4.4-.7 1-.7.5 0 .3 1.7-.5 3.9-1.2 3.4-1.1 4.1.5 6.6 3.6 5.5 4.7 5.1 6.4-2.2.8-3.8 1.8-10.3 2.2-14.6.4-4.2 1.1-7.7 1.5-7.7.5 0 .9 1.2.9 2.7M230.3 459.2c-.7 16.7-.7 39.5-.2 38.5 1.6-2.9 5.9-26.4 6.1-33 .1-4.7.3-5.8.5-3 .2 2.4.7 4.3 1.1 4.3s.8 2.1.8 4.7c.1 2.7.5 6.9.9 9.6.7 4.2 1 4.6 2.4 3.5 1-.8.9-.5-.3 1-1.9 2.2-1.9 2.2 1.4 8.4 1.8 3.5 4.5 8.2 6 10.4l2.7 4.1-3.5 2.9c-10.3 8.4-11.7 9.8-11.4 10.8.2.5 4.2 4.7 9 9.3 4.8 4.5 8.2 8.3 7.7 8.3-.6 0-4.2-3.2-8-7-3.8-3.9-7.3-7-7.8-7s-.6 1.2-.3 2.7c.5 2.3.4 2.5-.5 1-.6-1-.8-2.4-.5-3.2 1-2.7-1.8-3.5-5.2-1.5-3.8 2.3-6 2.7-4.4.7.5-.6 1.2-2.3 1.5-3.7.4-2.3.4-2.3.6.4l.1 2.9 2.4-2.2c2-1.9 2.2-2.6 1.2-4.7-1.3-2.8-2.3-3.1-2.9-.7-.3 1-.5.5-.4-1.1.1-1.7-.4-3.1-1.2-3.4s-1.1 0-.7.7c.4.6.3 1.1-.3 1.1s-1.7-1.4-2.6-3c-.9-1.7-2.1-3-2.8-3.1-.6 0-.3-.4.8-.9 2.8-1.2 4.3-1.2 2.5 0-1.3.9-1.2 1.2.5 2.5 1.1.9 2.6 1.3 3.5.9.8-.3 2.9-.7 4.5-.9 1.7-.1 2 0 .8.2-1.6.3-2.3 1.1-2.3 2.6.1 3 2.6 6.1 4.4 5.4s11.6-7.7 11.6-8.3c0-.3-1-.9-2.2-1.4-2.2-.8-2.2-.9.5-.9 1.5-.1 2.7-.4 2.7-.7 0-1-9.5-17.4-10-17.4-.3 0-2.2 3.3-4.2 7.4-2.6 5.2-3.4 7.6-2.5 8 .7.3.1.4-1.3.3l-2.5-.2v-21.3c0-11.6-.2-21.2-.5-21.2s-.5-1.4-.6-3c-.1-1.7.3-3 .7-3 .5 0 .9-.7.9-1.5s.3-1.5.8-1.5c.4 0 .6 2.8.5 6.2M629 505.6c-1.6 4.1-11.3 21.9-12.2 22.2-1.7.7-.7 2.2 1.5 2.3h2.2l-2.2.9c-1.3.5-2.3 1.6-2.3 2.4 0 .9-.7 1.2-1.8.9-1.1-.2-4.8 1.6-9.3 4.5-4 2.7-10 6.4-13.1 8.3-3.2 1.8-5.8 3.8-5.8 4.3s1 2.1 2.3 3.4l2.2 2.5-2.2-1.4c-1.3-.8-2.3-1.7-2.3-2.1 0-1.4-5.4-.8-12 1.3-3.6 1.1-8.5 2.4-11 2.9s-10.8 2.2-18.6 3.9l-14.1 2.9-16.4-4.3c-17-4.4-20.6-5.5-25-7.9-2.5-1.3-2.8-1.2-5.8 2.7-3.5 4.6-4.1 4.1-1-1l2.1-3.4-7.3-7.7c-4-4.2-8.3-8.4-9.6-9.3-2.8-1.9-5.5-5.4-4.7-6.1.3-.3-1.3-4.5-3.6-9.3-2.2-4.8-4-9.2-4-9.7 0-1.6 5.6 9.5 6.4 12.6 1.2 5 5.2 7.6 11.5 7.7 4.1 0 5 .3 3.6.9-2 .8-1.9.9.1.9 1.2.1 4.1.8 6.5 1.7 2.4.8 7.3 1.9 10.9 2.4s10.8 1.6 16 2.5c16.7 2.8 19.9 3.2 19.5 2.5-.2-.4 4.6-.8 10.7-.9s11.4-.3 11.7-.6c.4-.2 6.4-.6 13.3-1 6.9-.3 15.2-1 18.5-1.6 3.2-.6 7.8-1.3 10.3-1.6 5.5-.6 8.9-2.2 4.8-2.3-1.6 0-2.8-.3-2.8-.8 0-.4 3.8-.6 8.5-.5 6.3.2 8.5 0 8.5-1 0-.7-1.6-3.6-3.5-6.4-4.8-7.2-4.4-7.8.7-.9 2.3 3.1 4.5 5.6 4.9 5.6 1 0 5.5-7.5 10.6-17.8 3.7-7.3 5-9.3 3.3-4.6m438.5 9.4c-.8 1.6-2.7 4.1-4.1 5.5-3 3.1-3.2 4.8-1.4 13.2 1.9 8.5.8 9.8-5.8 7.3-2.6-.9-5.3-1.5-6.1-1.2-1 .3-1.2 0-.7-1.3.8-2.2-2.4-12.5-4-12.5-1.2 0-6.9 6.8-6.2 7.5.2.2 2.4 1.3 4.8 2.4 5 2.2 3 2.8-3.3 1-3.6-1-6.9-.3-5 1 .5.3.6 1.9.2 3.6l-.7 3-.1-3.3c0-1.7-.4-3.2-.8-3.2-.5 0-10.1 7.6-17.5 13.8-1 .8-1.8 1.1-1.8.6s4.5-4.5 10-8.9c5.4-4.4 9.8-8.5 9.6-9-.3-1.4-18.7-13.5-19.6-13-.4.3-.8-1.4-.8-3.7l-.1-4.3 1.6 3.2c1.5 3.1 1.7 3.2 6.7 2.7 3.7-.3 4.7-.2 3.6.5-1.1.8-.3 1.1 3.3 1.3 5.1.2 6.1.2 18.4 1.2 9 .8 11.1.3 9.2-2-1.4-1.7-.5-1.8 1.9-.3 1.5 1 2.4.7 4.5-1.1 1.5-1.3 2.7-2.9 2.7-3.5 0-1 1.9-3.5 2.7-3.5.2 0-.3 1.3-1.2 3m-619.6 34.7c.7 1.6 3 4.8 5.2 7.3 3.1 3.5 4 4 3.6 2.2-.8-3.4 1-1.7 2.3 2.3.6 1.9 2 4 3.1 4.5 1 .6 1.9 1.6 1.9 2.3 0 2.5 32.2 24.2 34.5 23.3.8-.3 1.6.3 1.9 1.2 1.1 3.4 9.9 4.3 39.5 4.3 15.3 0 28.7-.4 29.7-.7 1.1-.4 2.8-1.6 3.9-2.8 1.8-1.8 2-1.9 2.3-.3.2.9.7 1.7 1.1 1.7 1.7 0 14.6-5.7 38.5-16.9 4.8-2.3 9.1-4 9.3-3.7.3.3-1 1.1-2.8 1.9-3.2 1.3-30 13.8-41.9 19.6l-5.5 2.6-.6 6-.6 6-.1-5.3c-.1-2.8-.6-5.2-1.1-5.2s-3.5 1.9-6.7 4.3c-3.3 2.3-8.4 5.9-11.4 8-11.8 8.1-17 11.9-17 12.6 0 .5 2.7 2.3 6 4 8.4 4.5 7.5 4.9-1.2.5-7-3.5-7.2-3.6-10.2-1.9l-3.1 1.6 2.3-1.9 2.2-2-5.7-5.5c-3.2-3-9.6-8.6-14.3-12.3-4.7-3.8-8.6-7.2-8.8-7.7-.2-.4-1-.7-1.7-.7s-1.5-.6-1.8-1.3c-.7-1.9-36.7-25.9-36.7-24.5 0 .6-.9-.1-2-1.5s-2-3-2-3.6c0-.7-1.5-2.6-3.2-4.4-6.1-6.2-13-16.7-10.9-16.7.5 0 1.4 1.2 2 2.7m26.6 40.6c2.6 5.1 5.1 9.6 5.5 10.2.4.5 2 3.2 3.5 6 7.9 14.1 11.6 20.5 14.9 25.9 2 3.3 3.6 6.4 3.6 6.9 0 .4.4.6.9.3s1.4.7 1.9 2.3c1.1 3 3.7 4.1 24.1 10.1 4 1.2 7.1 2.3 6.8 2.6-.5.5-15.8-3.6-25.2-6.8-3.3-1.2-6.7-3.1-7.5-4.2-.8-1.2-2.7-3.4-4.2-4.9-4.5-4.6-22.2-25.9-24.2-29.2-1.4-2.2-.7-1.8 2.3 1.5 2.3 2.5 4.5 4.9 4.9 5.5l5.2 6.5c2.5 3.1 5.8 7.2 7.4 9.3 4 5.1 4.4 3.9.8-2.5-1.7-2.9-3.9-6.9-4.9-8.8-1.1-1.9-4.6-8-7.7-13.4-3.2-5.5-7.6-13.5-9.8-17.8s-5-9.1-6.4-10.7c-1.3-1.6-2.4-3.3-2.4-3.7.1-2.1 6.1 6.5 10.5 14.9m729 84.7c.3 1.1 1.5 2 2.6 2 2 0 4.4 4.3 3.6 6.4-.3.6-.9-.5-1.5-2.4-.6-2.1-1.1-2.7-1.1-1.5-.1 1.1.6 4.1 1.6 6.7l1.6 4.6 1.7-3.1c1-1.8 2.6-5.8 3.6-9 1.3-4.1 2.3-5.7 3.6-5.7 1.6 0 1.4.9-1.6 9.2-1.8 5.1-3.6 10.9-4 12.9-.6 3.1-.9 3.6-3 3.2-1.9-.4-2.9-1.8-4.6-6.6-1.2-3.4-3.3-9-4.6-12.5-2.2-5.9-2.2-6.2-.4-6.2 1 0 2.2.9 2.5 2m24.3 5.8c3.1-1.1 8.5.8 13.4 5 1.2.9 1.9.6 3.6-1.7 3.1-4.3 7.2-4.8 13-1.8 2.6 1.4 4.6 3.1 4.4 3.7-.1.6.2.9.7.5.6-.3 1.5.3 2 1.4 1.5 2.7 1.4 3.8-.1 1.8-1.6-2-3-1.1-4.4 2.8-.6 1.6-1.6 2.9-2.2 2.8-.7-.2-1.1.1-.9.6.1.5-.9 1.9-2.3 3.1l-2.5 2.2 3-.7c1.7-.4 3.6-.8 4.3-1.1.7-.2 1 .1.7.6-.3.6-.2 1 .3 1 1.1 0 3.7-2.9 4.5-5 .5-1.3.5-1.3.6 0 .1 3.1-6.1 8.1-7.4 6-.3-.5-1.4-1-2.3-1-1.5 0-1.5.2-.2 1 .8.5 1.1 1 .7 1-1.5 0-5.1-2.2-9.7-6-3.8-3-5-3.5-7.5-2.9-1.6.4-2.5.7-2 .8.6.1-.3 1-2 2.1-2.4 1.5-2.6 2-1.3 2.5.9.4 2.7.1 4-.6 2.1-1.1 2.2-1.1.9.4-.7 1-.9 1.7-.3 1.7 1.4 0 3.3-2.5 2.5-3.3-.3-.4-.1-.7.5-.7 1.7 0 1.5 1.5-.5 3.1-1.1.9-3.7 1.4-6.4 1.4-3.7-.1-5.6-.9-8.8-3.4-2.3-1.8-4.1-3.9-4.1-4.7s-.7-1.4-1.5-1.4c-1.6 0-1.5-.2 2.1-9 1.1-2.5 2-3.7 2.2-2.8.2 1.3.8 1.4 3 .6"/><path d="M564 47.6c0 .3 1.6 4 3.5 8.1s3.5 7.6 3.5 7.9c0 .8 14.4 34 16 36.8 1.3 2.3 2.4 3 4.1 2.9 4.4-.5 54.2-27 53.6-28.6-.3-1-18.7-7.5-56.2-20.1-20.7-6.9-24.5-8-24.5-7M547.5 61.3c-7.2 7.3-19.6 20-27.7 28.3-8.2 8.3-14.8 15.6-14.8 16.2 0 1.7 65.6.6 73.5-1.2 4.1-.9 5.9-1.8 5.7-2.7-1.7-7.8-21.3-53.9-22.9-53.9-.5 0-6.7 6-13.8 13.3M635 82.6c-5.8 3.1-13.4 7.2-17 9.3-6.3 3.8-11.6 6.8-17.3 10-7.5 4.2-7.1 3.8-4.5 4.4 2.4.6 34.6 3.1 40.7 3.2h3.5l2.7-12.3c3.6-16.1 4.3-20.2 3.2-20.1-.4 0-5.5 2.5-11.3 5.5M648.6 80.2c-1.7 8.3-4.6 23-5.1 26.5-.6 3.7-.4 4.2 1.7 4.9 1.2.4 5 1.9 8.3 3.4 14.5 6.7 33.7 15 34.6 15 .6 0-.9-2.4-3.3-5.3-2.4-2.8-6.4-8.1-8.8-11.7-5.4-8-24.9-33.8-26.1-34.6-.5-.2-1.1.5-1.3 1.8M471.3 85.8c-.7 1.5-2.3 5.9-3.6 9.7-1.4 3.9-3.6 9.4-5.1 12.4-2.7 5.7-3.2 8.1-1.7 8.1.6 0 4-.7 7.6-1.5 3.7-.9 7.2-1.4 7.8-1.2.5.1-2.8 1.1-7.4 2.1s-9 2.3-9.6 2.8c-.7.6-1.3 2.7-1.3 4.7s-.5 5.4-1.1 7.6c-1.3 5.4-4.6 28.5-4.1 28.5.6 0 9.3-9 20.2-21 4.7-5.1 10.1-10.9 12-12.9 6.3-6.4 11.1-12.9 11.6-15.6.4-2.4-1-4.2-11.3-14.6C478.9 88.3 473.4 83 473 83c-.3 0-1.1 1.2-1.7 2.8M642.5 118.7c-.3 3.2-1.3 9.8-2.1 14.8-.8 4.9-1.7 12-1.9 15.6l-.5 6.7 4.3-1.3c5.6-1.7 8.2-2.8 21.2-8.4 6.1-2.6 14.5-6.3 18.8-8.1 4.2-1.8 7.7-3.6 7.7-4s-2.1-1.7-4.7-2.8c-20.5-8.8-28.7-12.4-34.5-15.1-3.6-1.7-6.9-3.1-7.1-3.1-.3 0-.8 2.6-1.2 5.7M492.5 119.2c-2.2 2.3-4.9 5.4-6 6.8-2.5 3.3-24.6 26.9-29.8 31.8-5 4.7-4.6 5.9 5.1 17.9 4.2 5.2 8.6 10.7 9.7 12.1 7.5 10 19.8 25.2 20.4 25.2.4 0 .8-.6.8-1.3.1-.6.6-9.3 1.3-19.2 1.5-23.1 3.7-77.5 3-77.5-.3.1-2.3 2-4.5 4.2M684 139.4c-4.7 1.9-29.9 13.5-36.7 16.8-2.3 1.1-2.3 1.9-.6 8 .7 2.7 17.4 14.8 20.4 14.8.5 0 .9-.5.9-1.1s1.9-4.1 4.3-7.7c4.9-7.6 9.7-16.1 13.9-24.4 1.6-3.1 3.3-6 3.8-6.3 1.2-.7 1.3-2.5.3-2.5-.5.1-3.3 1.1-6.3 2.4M689.6 143.9c-5.2 9.9-14.8 26.5-17.7 30.8-1.6 2.3-2.9 4.8-2.9 5.7 0 1.3 14.1 13.8 20 17.7 1.4.9 2.2 2 1.8 2.4s-5.7-3.5-12-8.5l-11.3-9.3-6.5 13.4c-3.6 7.4-6.5 13.5-6.5 13.6.1.3 17.5-2.4 27.9-4.3 8.1-1.6 8.9-1.9 10-4.5.7-1.6 1.2-6.8 1.1-11.6-.5-32.1-.8-41.4-1.4-44.9l-.7-3.9zM640 168.8c0 1.5.6 3.7 1.4 4.8s1.8 3.8 2.2 6c.4 2.1 1.4 5.5 2.2 7.4.7 1.9 1.5 4.6 1.7 6 .6 4.4 4.6 14 5.6 13.4.6-.3 3.3-5.4 6-11.3 2.7-5.8 5.3-11.3 5.9-12.3.7-1.3.1-2.2-2.9-4.2-2-1.4-4.1-2.6-4.5-2.6s-2.8-1.6-5.2-3.6-4.4-3.4-4.4-3-1 0-2.3-.9c-1.3-.8-2.7-1.2-3-.8-.4.3-.7.1-.7-.5 0-.7-.4-1.2-1-1.2-.5 0-1 1.2-1 2.8M450.1 180.2c-.7 7.3-1.9 19.5-2.7 27.2-1.6 14.2-1.4 16.9.8 16.2.7-.3 4.2-.7 7.8-1.1 3.6-.3 10.9-1.2 16.2-2 5.4-.8 11.3-1.5 13-1.5 7 0 6.7-1-3.7-14.6-5.4-7.1-10.4-13.4-11-13.9-.7-.6-3.2-3.7-5.5-7-2.4-3.3-4.6-6.2-5-6.5-.3-.3-2.1-2.6-4-5.3-1.8-2.6-3.6-4.7-4-4.7s-1.2 6-1.9 13.2M636.2 177.3c-.2 3.4-.7 11.4-1.2 17.7-1.2 14.8-1.2 22-.1 22 .6 0 4.2-1.5 8.1-3.3 8.2-3.7 8-2.5 3.1-17.7s-7.7-23-8.7-24c-.6-.6-1 1.5-1.2 5.3M528.9 200c-5.4 1-24.7 13.9-23.1 15.4.3.4-.1.4-.9.1-.9-.3-2.2.1-2.9 1-1.1 1.3 1.9 1.5 29.3 1.5 20.6 0 30.8-.3 31.2-1.1.4-.6.1-.9-.6-.7-.8.1-2.8-1.1-4.5-2.7-4-3.8-6.2-5.5-6.9-5.5-.4 0-2.1-1.1-3.8-2.4-6.8-5.1-12-6.7-17.8-5.6M681.5 207.1c-3.8 1-9.2 2.1-12 2.4-10 1.1-13.5 1.7-13.5 2.5 0 .5 1.5 2 3.3 3.5 1.7 1.4 4.1 3.4 5.2 4.3 6.4 5.6 17.5 14.2 18.3 14.2.9 0 7.6-19.4 8.8-25.8.8-3.8.2-3.9-10.1-1.1M646 216c0 .5-.7 1-1.5 1-2.4 0-9.5 3.1-9.5 4.2 0 .5.4.6 1 .3s.9.4.9 1.7c-.2 3 1.7 7.8 3.1 7.8.6 0 .9.4.6.9s.1 2.2.9 3.7c.9 1.9 1.5 2.3 1.5 1.2s.6-1.6 2-1.3c1.6.3 2-.2 2-2.1 0-1.4.4-3.3.9-4.2 1.2-2.2.2-7.2-1.4-7.2-.7 0-1.8-.7-2.5-1.5-.9-1-.9-1.5-.1-1.5.6 0 1.3.1 1.4.2.6.5 3.7-2.4 3.7-3.3 0-.5-.7-.9-1.5-.9s-1.5.4-1.5 1M479.5 221.6c-5.5.7-13.6 1.5-18 1.9-12.1.8-14.5 1.4-13.8 3.3 1 2.8 18.2 28.3 23.8 35.2 2.9 3.6 6.2 8.4 7.4 10.7 2.4 4.8 4 6.1 5.1 4.3.7-1.1 2.7-12.5 5-29 .5-3.6 1.6-10.3 2.4-15 2.1-11.1 2-13-.1-12.9-1 .1-6.3.7-11.8 1.5M497 221c0 1.1 3.9 10.9 6.5 16.5.8 1.6 5 11.3 9.4 21.5s10 22.9 12.4 28.3c2.5 5.4 4.7 10.8 5.1 12 .4 1.5.9 1.8 1.6 1.1.9-.9 14.7-30.9 20.7-44.9 1.4-3.3 4.5-10.3 7-15.5 2.4-5.2 4.7-10.9 5-12.5.3-1.7 1.2-4 1.9-5.3l1.4-2.2h-35.5c-23.7 0-35.5.3-35.5 1M574.9 220.6c-2 .6-2.4 7.6-.9 18.3.5 4.2 1.2 9.6 1.5 12.1s.7 5.8 1 7.5c.2 1.6.7 5.7 1 9 1 10 1.3 10.4 4.7 6.4 4-4.6 18.7-20.7 26.9-29.4 12.7-13.4 19.5-22 18.2-22.7-.4-.3-7.8-.5-16.3-.6s-19.8-.3-25-.6-10.2-.2-11.1 0M493.5 232.7c-.4 3.2-1.3 8.7-2 12.3-.8 3.6-1.6 8.5-1.9 10.9s-1 6.7-1.5 9.5c-3 14.5-3 14.7-1.2 15.7 1.8 1.1 28.4 13.6 31.9 14.9 1.9.8 2.2.6 2.2-1.5 0-1.6.6-2.5 1.6-2.5 2.1 0 1.4-2.8-3-12.3-5.8-12.4-8.6-18.7-8.6-19.3 0-.3-1.7-4.2-3.9-8.7-4.1-8.6-5.7-12.2-9-20-1.1-2.6-2.4-4.7-2.9-4.7s-1.3 2.6-1.7 5.7M441.8 233.5c-1 1.3-1.8 2.9-1.8 3.5 0 1.3-5.9 11.8-7.1 12.6-.5.3-.9 1.4-.9 2.4 0 1.3 2.2 3.2 6.8 6 3.8 2.2 7.2 4 7.7 4s1.7.7 2.7 1.7c1 .9 2 1.4 2.3 1.1 1-1-6.2-33.8-7.4-33.8-.3 0-1.4 1.1-2.3 2.5M448.6 236c.9 5.4 3 14.8 5 22.8l1.8 7.2 10.7 5.5c5.9 3 11.3 5.5 11.9 5.5s.2-1.3-.9-2.9c-1.2-1.6-2.1-3.3-2.1-3.8 0-.6-.9-1.8-2-2.8s-5.7-7.3-10.1-13.9c-4.5-6.7-9.1-13.3-10.3-14.7-1.1-1.5-2.7-3.5-3.4-4.5-1.1-1.7-1.2-1.5-.6 1.6M646.7 263.1c-.4 5.2-.2 8.2.8 10.3.7 1.7 1.5 4 1.7 5.1.3 1.7 1 1.9 4.6 1.7 4.1-.4 4.2-.3 4.2 2.6 0 2.6.5 3.1 5.7 5 3.1 1.2 5.9 1.9 6.2 1.7.4-.4-2.8-5.4-15.6-24.5-1.3-1.9-3.4-4.8-4.7-6.3l-2.3-2.9zM431 258.4c0 .8-.5 6-1.1 11.5-1.5 13.9-1.4 14.2 4 9.7 2.4-2.1 5.7-4.4 7.2-5.1 1.5-.8 4.1-2.8 5.7-4.5l3.1-3-4.2-2.1c-2.3-1.2-5.5-3.1-7.2-4.4-4.2-3.1-7.5-4.1-7.5-2.1M455 272.6c.1 3.8 2.5 20.3 3.2 20.9.7.8 22.8-10.3 22.8-11.4 0-1-19.6-10.7-23.7-11.7-2-.5-2.3-.3-2.3 2.2M447.9 273.9c-2.5 1.6-4.9 3.7-5.3 4.6-.3.9-1.2 1.5-2 1.2-.7-.3-2.8.8-4.7 2.4s-3.8 2.9-4.4 2.9c-1.9.1 4.1 2.9 9.5 4.5 3 .9 6.9 2.3 8.7 3.1 4.7 2.1 5.5 1.8 4.9-1.9-.8-5.2-2-18.1-1.8-19 .3-1 .2-1-4.9 2.2M470.7 290.1c-6.5 3.4-11.7 6.3-11.5 6.4.4.4 24.7 14 30.3 16.9 2.2 1.2 4.3 2.5 4.7 3.1 2 2.6-.8-8.1-4.2-16.5-1.2-3-3-7.7-3.9-10.4-1-2.8-2.2-5.1-2.7-5.3-.5-.1-6.2 2.5-12.7 5.8M488.1 290.2c1.1 3.5 3.7 10.3 5.8 15.3 2.2 4.9 4.1 9.8 4.5 10.7.3 1 .9 1.8 1.4 1.8.4 0 6-2.3 12.2-5.1 15.9-7 16.5-7 2.6.1-6.5 3.3-12.5 6-13.2 6-.8 0-1.4.3-1.4.7 0 .5 4.4 5.1 9.8 10.5l9.7 9.6 2.2-5.1c4.3-10.4 7.3-18.8 7.3-20.5.1-.9.7-3.4 1.4-5.4l1.3-3.6-2.5.9c-2.6 1-2.6 1-.8-1 1.9-2.1 1.8-2.1-3-4.2-2.7-1.2-9.6-4.3-15.4-7.1-8.6-4.1-22.3-9.8-23.5-9.8-.2 0 .6 2.8 1.6 6.2M532.6 314.1c.4.6.6 7.1.5 14.5-.2 13.1-.2 13.3 2.1 13.9 3.3.8 9.1 0 9.6-1.3.4-1.2-3.2-11-7.4-20-1.3-2.9-2.4-5.6-2.4-6.1s-.7-1.2-1.6-1.5c-.9-.4-1.3-.2-.8.5M526.4 326.1c-2.3 6.8-4.5 13.2-4.9 14.1-.5 1.4 0 2 2 2.8 6.5 2.5 7.9-1.5 7.3-19.9l-.3-9.3zM493.5 322.3c1.1.7 2.1 2.2 2.3 3.5.6 4.3 3.2 9.1 5.2 9.7 1.1.3 2 1.1 2 1.6s.7.9 1.5.9 1.5.4 1.5 1c0 .5 1.3 1.6 2.8 2.4 1.6.8 3.9 2.6 5.2 3.9 2.8 2.9 5 2.5 5-.9 0-1.6-2.4-4.9-7.2-10.1-8.9-9.3-14.3-13.3-17.7-13.3-2.5.1-2.5.1-.6 1.3M702.4 350.8c-1.8 2.6-4 6.3-4.9 8.2-1 1.9-4.3 7.2-7.3 11.9l-5.6 8.4 3.1 2.6c4.5 3.9 13.2 10.6 14.2 10.9.5.2 1.2-3.7 1.5-8.5.4-4.8 1.3-14.9 2.1-22.4s1.5-14.1 1.5-14.7c0-2.3-1.5-1.1-4.6 3.6M398.5 358.5c-.4 3.5-.5 7.9-.2 9.7s1.1 6.9 1.8 11.3 1.7 8.3 2.2 8.6c.5.4.6 1.2.3 1.8-2 3.2-1.5 5.8 1.7 8.2 4.6 3.5 18.1 10 18.5 9 .3-.9-12.4-21.1-13.3-21.1-.2 0-.3 2.8 0 6.2.3 4.4.2 5.5-.4 3.8-.5-1.4-.9-4.2-1-6.2s-.5-4-1.1-4.3c-.5-.3-1-2.1-1-4 0-5.7-4.9-29.5-6.1-29.5-.4 0-1.1 2.9-1.4 6.5M546.6 359.7c-.6 3.1-1.3 9.1-2.1 16.9-.2 2.8-.7 5.7-.9 6.5-.9 2.3-3.7 28.2-3.1 28.7.2.3-.1 1.4-.7 2.6-.7 1.1-1.3 4.1-1.5 6.6-.1 2.5-.4 8.1-.7 12.5-.4 6.3-.3 7.6.6 6 .7-1.1 2.5-3.4 4.1-5 1.6-1.7 4.5-5.5 6.5-8.5 1.9-3 5-7.5 6.9-9.9 4.5-6 4.5-6.1-2.5-36.6-2.1-9.2-2.7-12.1-3.8-18.8-.8-4.4-2-4.8-2.8-1M509.5 369.2c-.4.9-1.3 1.4-2 1.2-.9-.4-1.6.6-2 2.8-.4 1.8-1.2 3.9-1.7 4.5-.6.7-.7 2.4-.4 3.8.5 2 .3 2.5-1.3 2.5-1.1 0-2.2-.6-2.4-1.3q-.6-1.5-.6 0c-.1.7-.8 1.3-1.6 1.3-1.7 0-6.5 4.9-6.5 6.7 0 .7-.6 1-1.4.7-1.1-.4-1.3 0-.9 1.4.3 1.5 0 2-1.3 1.9-1-.1-2.7 1.2-3.8 3-1.2 1.7-3 3.4-4.1 3.7-2.9.8-1 1.9 2 1.2 1.6-.4 2.5-1.3 2.5-2.7 0-1.2.4-1.7 1.1-1.4.6.4.8.9.5 1.2s-.1 1.4.4 2.3c.8 1.4.5 1.9-1.3 2.5s-1.4.9 2.8 2c2.8.7 7.5 1.4 10.6 1.4l5.6.1 1.1-5.3c.6-2.8 1.6-8.8 2.2-13.2.7-4.4 1.9-10.6 2.7-13.8 1.4-5.6 1.3-10.1-.2-6.5M513.4 368.9c.4.5.2 2.1-.4 3.6-.5 1.4-1.5 5.9-2.1 9.8-.6 4-2.2 12.1-3.6 18.2-2.2 9.1-2.6 13.2-2.4 23.9.1 13.4 1.4 19.3 2.5 12 .3-2.1 1.4-9.8 2.5-16.9 1.1-7.2 2.7-20 3.6-28.5.8-8.5 1.8-17.2 2.1-19.3.5-3 .3-3.7-1.1-3.7-.9 0-1.4.4-1.1.9"/><path d="M408.7 381.6c.4 1.1 1.6 2.8 2.6 3.9 1.1 1.1 3 3.8 4.4 6 5.6 8.9 10.8 16.4 11.4 16.5 1.4 0 8.2-19.6 7.3-21.1-.6-1.1-13.1-4.6-18.4-5.3-2.5-.3-5.4-.8-6.3-1.2-1.4-.5-1.6-.2-1 1.2M683.7 382.7c-.4.7-3 11.1-4.3 17-.2 1.3-.1 2.3.2 2.3 1.6 0 15.2-4.4 17.9-5.8l3-1.5-5.2-4.6c-5.9-5.3-11-8.5-11.6-7.4M675.9 388.1c-2.4 2.3-8.3 7.8-13.2 12.2-4.8 4.4-8.6 8.1-8.5 8.3.7.6 20.4-4.9 21.6-6 .7-.6 1.9-4.4 2.7-8.3s1.8-7.8 2.1-8.7c.9-2.4 0-2-4.7 2.5M443.5 409.7c-7.7.8-14.1 1.6-14.3 1.8-.6.6 10.8 19.5 11.7 19.5 1.7 0 21.1-19.6 21.1-21.3 0-2 .5-2-18.5 0M611 409c0 2.1 21.5 22 23.6 22 1.7-.1 11.4-14.7 11.4-17.2 0-1.9-1.5-2.2-21.7-4.1-7.3-.7-13.3-1-13.3-.7M452.2 422.4c-5.6 5.5-10.2 10.7-10.2 11.4 0 1.1 1.7 3.3 7.7 9.9l2.1 2.4.7-3.1c.7-3.1 2.2-3.6 9.1-3.1 1.9.2 2.1-.5 2.7-9 1-14.1.9-18.9-.5-18.8-.7.1-5.9 4.7-11.6 10.3M555.8 418.7c-1.9 2.7-4.7 6.8-6.1 9.3-1.5 2.5-4.6 7.1-6.8 10.3-2.3 3.2-3.9 6-3.7 6.3.3.2 5.4.9 11.5 1.5 6 .5 12.3 1.4 13.9 1.9 2.6.9 2.5 1-1.1.5-2.2-.3-9-.8-15-1.1-9.5-.6-11.3-.4-12.7 1-.9.9-2 1.6-2.5 1.6-.4 0-1.9 1.3-3.3 3-1.4 1.6-2.8 3-3.3 3-.7 0 3-5.9 4.4-7 .4-.3-3.9-.6-9.4-.7-8.4-.2-10.3.1-11.3 1.5-.6.9-1 2.3-.7 3.2.3.8-.4.5-1.4-.8-1.5-1.8-2.1-2-3.2-1-1 1.1-1.2.9-.9-1.2.2-2-.2-2.6-2.7-3.1l-3-.7 2.8-.1 2.8-.1-.6-8.3c-.4-4.5-1.1-8.6-1.5-9-.7-.8-5 8.5-5 10.9 0 .8-1.1 4.6-2.4 8.6-2.2 6.9-6.3 19.8-10 31.5-1.5 4.8-1.5 5.9.4 17 2.6 15.3 4 21.3 5.1 21.3.4 0 1.3-1.9 1.9-4.3.6-2.3 2.4-8.9 4.1-14.7s3.4-11.9 3.9-13.5c.5-2 .8-2.3.9-1 0 1.1-.9 5.4-2 9.5-1.2 4.1-2.7 10.2-3.5 13.5-1.4 5.5-3 11.1-4.1 14.2-.3.7.1 1.3.8 1.3 1.3 0 16-8.8 17-10.2.8-1.2-2-19.2-4.6-29.8-.8-3-1.6-7.6-1.8-10.3-.4-3.9-.2-4.6.9-3.6.8.6 1.4 2.8 1.4 4.8.1 8.2 5.1 30.4 6.4 28.3.4-.7.5-1.2.2-1.2s.1-1.7.8-3.8c.8-2 1.7-5.7 2.1-8.2.3-2.5 1.2-5.6 2-7 1.3-2.3 1.4-2.3 1.6-.5.1 1.1.1 2.2.1 2.5-.2 2.3-1.3 9-1.8 11.2-1.2 5.3 2 2.9 7.6-5.6l5.5-8.4 2.3 3.9 2.4 4 2.9-3.7c1.6-2 2.9-4.8 2.9-6.1 0-2.1.2-2.2 2.1-1.2 1.2.6 4.6 1.1 7.6 1 6.1 0 9.3-2.4 9.3-6.6 0-1.4.7-2.5 1.9-2.8 1.6-.4 2.1.6 3.6 7.6l1.7 8 1.4-3.2c1.8-4.4 1.8-6-.3-6.8-2.2-.8-3.4-2.4-2.6-3.6.3-.5.9-.3 1.3.4 1.1 1.7 3.6-.3 4.4-3.6.7-2.9 3.4-3.3 4.3-.8.7 1.8 3.2 4.5 6.5 7.1 1.8 1.5 1.8 1.4-1-7.3-.5-1.7-1.5-5-2.3-7.5-.7-2.5-2.6-7.4-4.2-11-2.5-5.3-3.1-6.1-3.7-4.5-.6 1.7-.9 1.3-1.8-2-.6-2.2-1.6-6.5-2.2-9.5s-1.5-6.6-2-8-1.4-4.4-2-6.8c-.6-2.3-1.5-4.2-2-4.2-.4 0-2.4 2.1-4.2 4.7M564.5 418.7c.4 1 2.9 7.9 5.5 15.3 4.9 13.8 9.2 25.7 13.5 36.6 2.6 6.8 6.5 13.7 6.5 11.6 0-.7.4-1 1-.7 1.3.8 18-15.3 18-17.4 0-.9-3.7-5.4-8.1-10.1-14.7-15.4-36-37-36.6-37-.3 0-.2.8.2 1.7M600.2 477c-5.1 5-9.2 9.6-9.2 10.3.1.6 1.8 4.7 3.9 9.1l3.8 7.8 2-5.8c2.9-8 9.4-30.4 8.9-30.4-.1 0-4.3 4.1-9.4 9M465.6 472.2c.3 1.1 2.1 7.9 3.9 15s3.5 13.1 3.8 13.5c.4.3 1.8-1.9 3.1-5 1.4-3 3-5.8 3.6-6.2 2.3-1.4-.2-6.1-6.8-12.8-7-7-8.8-8.1-7.6-4.5"/><path d="M561.1 477.8c-.1 1.3-.5 2-1.1 1.7-.6-.4-1-.3-.9.2.2.8-1.3 5.2-3.1 8.8-.6 1.1-1.4 4.1-1.9 6.7-.7 4-.5 5 1.1 6.8 1 1.1 1.4 2 .9 2-.6 0-1.5-.8-2-1.8-.9-1.3-1-.8-.7 2.3.4 3.4 0 4.4-2.5 6.6l-3 2.5 11.2 5.2 11.2 5.2-.6-4.1c-.5-3.6-4.4-9-6.9-9.5-.5-.1-1.1-.3-1.5-.4-.5-.1-1.1-.2-1.5-.1-.3 0-.5-.7-.4-1.7.2-1.1 1-1.6 2.5-1.4s2.1-.2 2.1-1.6c0-1.1.6-2.5 1.4-3.1 1.1-.9 1.2-2 .4-4.9-.5-2-1.1-4.8-1.3-6.2-1.1-6.6-3.3-15.2-3.4-13.2M478.6 494.2c-5.1 11.7-5.3 9.6 2 18.7 3.7 4.4 7 7.9 7.4 7.6.5-.3 0-2.7-1.1-5.4-1-2.7-2.3-8-2.9-11.8-1.7-11.8-2.1-13.3-2.8-13.3-.4 0-1.6 1.9-2.6 4.2M585.7 500.9c-2.1 6.2-3.7 12-3.7 13 0 .9-.4 2.1-.9 2.6-.5.6-1.2 2.1-1.6 3.3-.6 2.1-.5 2.3 1.3 1.3 1.1-.6 2.6-1.7 3.4-2.4.7-.7 4.1-3.4 7.6-6 3.4-2.7 6.2-4.9 6.2-5.1 0-.1-2-4.2-4.3-9.1l-4.4-8.8zM966.4 120.9c.3.4.1 3.5-.4 6.7s-1.1 9-1.5 12.9c-.3 3.8-1 10.6-1.5 15-.6 4.4-1 8.6-1 9.3 0 1.9 3.6 1.2 21.5-4 7.7-2.2 15-4.3 16.3-4.5 1.2-.3 2.2-.8 2.2-1.2 0-1.1-34.1-35.1-35.2-35.1-.5 0-.7.4-.4.9M915.5 131.9c-2.7 1-5.7 2-6.5 2.3-.8.4-3.7 1.4-6.5 2.3-10.2 3.5-10.7 3.7-9.3 4.7.9.7.4.8-1.5.4-1.7-.4-4.2 0-6.5 1.1-2.6 1.3-3.2 1.9-1.9 2.1.9.2 1.5.7 1.2 1.2-.3.4.7 1.1 2.2 1.5 1.6.4 2.9.2 3.3-.6.8-1.1 2.5-1 9.4.7 1.5.4 3.1.3 3.5-.2.8-1.1 8.9-3.3 9.6-2.6.3.3.5 1.6.5 2.8 0 1.9.8 2.4 5.5 3.5 3.1.7 5.8 1.6 6.1 2.1.7 1 4.5 1 6.3-.1 1.7-1.1.6-4.8-2-6.1-1.3-.8-2.5-.7-3.9 0-1.2.7-2.6.7-3.6.2-1.4-.8-1.4-1 0-2.5.9-.8 1.6-2 1.6-2.6s.4-1.1.9-1.1.7.9.4 2c-.6 2.1.3 2.5 2.6 1.1 2-1.3 4.1-.2 4.1 2 0 1.6.3 1.7 2.5.7 1.4-.6 2.4-1.7 2.1-2.4s-.2-1.5.1-1.8c.7-.7 3.9 3.6 3.5 4.7-.1.5.2.6.7.2 1-.6 3.7 3.3 3.3 4.7-.1.5.4.7 1.1.5.6-.1 1.1.6 1.1 1.5-.1 1.1.3 1.5 1 1.1s.6-.1-.1.8c-1 1.3-1 2 .1 3.5.8 1 1.8 1.5 2.2 1.1.5-.4.2-1.2-.5-1.6-.9-.6-1-1.1-.2-1.5.6-.4 1.4.1 1.8 1.1.3 1 1.2 2.2 2 2.6.7.4 1.3 1.5 1.3 2.2 0 .8.7 1.5 1.6 1.5 1.6 0 1.9.3-15-20.5-10.1-12.5-12.9-15.5-10.2-11.2 1 1.6 1.5 3.1 1.3 3.4-.7.6-3.5-.9-3.9-2.2-.2-.6-1.1-.9-2-.8-1.2.2-1.8-.4-1.8-1.7 0-2.4-.9-2.4-7.5-.1M997.5 158.5c-2.2.7-9.8 3-17 5-7.1 2-13.8 4-14.8 4.4-1.3.5.7 1.8 8 5.3 15.6 7.4 29.4 13.8 35.3 16.3 3 1.3 7.3 3.3 9.5 4.3 2.2 1.1 4.1 1.9 4.3 1.7.8-.7-18.9-38.5-20.1-38.4-.6 0-3 .7-5.2 1.4M969 175.7c9.6 10.5 12.4 13.2 13.3 12.6q.9-.45.3.6c-.4.6 1.8 3.8 5.6 7.7 3.5 3.6 6.9 7.2 7.6 8 .8.8 1.9 1.1 2.5.7.7-.3.9-.2.4.2-.4.5.7 2.3 2.4 4.1l3.1 3.2 4.9-3.4c2.7-1.9 5.1-3.4 5.5-3.4 1.2 0 8.4-5.5 8.4-6.5s-11.6-7.5-13.2-7.5c-.4 0-4-1.5-8-3.4-24.9-11.6-30.1-13.7-25.4-10.3 1.6 1.2 1.7 1.5.3 2-.8.3-2.3-.3-3.3-1.4-1.3-1.5-1.4-1.9-.3-1.9 1-.1.8-.5-.5-1.5-1-.8-2.3-1.2-2.7-.9-.5.3-.9.1-.9-.4 0-.6-.8-1.3-1.7-1.7-1.1-.3-.3 1 1.7 3.2M964 175.5c0 2.2 6.9 32.8 11.2 49.2.6 2.4 1.5 4.3 2 4.3s.3-1-.3-2.3c-.9-1.8-.9-2 .2-1 1 1 1.6.9 3.1-.4 1-.9 1.8-1.1 1.8-.5 0 1.1 4.6-1.2 14.1-7 5.6-3.4 5.6-3.4 3.9-5.6-1.9-2.4-3.6-3-2.4-1 .4.8.3 1-.2.5s-.9-1.2-.9-1.7c0-1.6-12.8-14.9-13.8-14.3-.6.3-.7.1-.4-.4.8-1.3-1.7-3.6-2.7-2.5-.4.4-.7.2-.6-.3.5-2.5-.1-3.7-1.6-3.1-.8.3-1.3.2-.9-.3.3-.5-2.4-4-6-7.8-3.5-3.7-6.5-6.4-6.5-5.8M1015.3 207.8c-5.1 3.1-9.4 6.2-9.6 6.8-.4.9 4.1 8.5 12.1 20.2l2.9 4.2 1.7-12.7c1.3-10.8 2.6-24.3 2.2-24.3-.1 0-4.2 2.6-9.3 5.8M1028.5 205.7c3.4 21.2 7.9 45 8.6 45.7.9 1 22.9 4 23.6 3.2.2-.2-.6-2-1.9-3.9-1.3-2-4.1-6.4-6.2-9.9-2.2-3.5-6.7-10.6-10.1-15.8s-7.8-12.3-9.9-15.8c-2.2-3.4-4-6.2-4.2-6.2s-.1 1.2.1 2.7M1025.7 214.5c-.4 5.5-1.1 14-1.5 18.8-.7 8.1-.6 9 1.3 10.6 4.1 3.6 9.3 6.1 8.8 4.2-.3-1.4-6.5-34.8-7.2-39.1-.6-4-.8-3.4-1.4 5.5M998 219.1c-2.5 1.5-5 3.3-5.7 3.9-.7.5-1.5 1-1.9 1-.9 0-11.4 7-11.4 7.6 0 .2.3.3.8.2.4-.1 3 .5 5.7 1.4 8.4 2.7 28.1 7 30.3 6.6 2-.3 1.6-1.1-3.8-9.8-3.3-5.2-6.7-10.5-7.7-11.6l-1.8-2.1zM930 227.5c0 2.4 37.2 75.7 38 74.9.4-.5 1.1-3.8 1.4-7.4 1.2-13 3-36.9 4.1-53.7l.5-8.2-5.3-1c-2.8-.6-10.1-1.8-16.2-2.6-6-.8-13.6-1.9-16.7-2.3-4.3-.6-5.8-.6-5.8.3M928.7 231.7c-.5.9-1 6.2-2.7 29.3-.6 8-1.7 22.1-2.5 31.5-2.3 27.2-2.8 37.2-1.8 37.8.4.3 9.8-4.1 20.8-9.6 15-7.7 20-10.6 19.9-12-.1-.9.2-1.7.7-1.7s.9.4.9 1c0 .5.7 1 1.5 1 1.7 0 2-1.6.5-2.5-.5-.3-1-1.4-1-2.3 0-2.2-35.7-73.5-36.3-72.5M978.8 235.8c1.4 3.2 6.5 12.7 10.4 19.4l4 6.7 5.6-3.5c4.6-2.9 14.7-10 17.2-12.1.2-.2-.2-.9-1-1.4-1.2-.8-1.1-1 .5-.8 6.8.5 3-.6-24.6-7.1-13.2-3.1-12.9-3.1-12.1-1.2M974.1 258.7c-1.3 23.7-2 33-2.6 35-.2.6 0 2.4.4 3.9.6 2.4 1.7.7 10.1-15.8l9.4-18.4-6.4-11.6c-10.4-19-9.4-19.6-10.9 6.9M1012.2 251.7c-4.4 3.2-9.9 6.9-12.1 8.2l-4 2.5 7.7 3.4c4.2 1.8 11.8 5.1 16.8 7.2l9.2 3.7-1.5-6.1c-1.8-7.7-6.1-21.7-7.1-23.4-.6-.9-3 .3-9 4.5M1038 254.9c0 1.8 7.8 17 9.5 18.8.8.8 1.5 2 1.5 2.6 0 1.1 7.3 16.9 10.1 22 .6 1.1.8 2.1.6 2.3-.2.3-1.2-1.2-2.1-3.3s-2.1-4.6-2.6-5.5-2.5-4.8-4.5-8.7c-4-7.9-6.1-10-5.3-5.5 1.7 9.4 8.3 20.6 14.8 25.1 2 1.4 2 1.1 2-22.5v-23.9l-4.7-.7c-13.2-1.7-19.3-1.9-19.3-.7M1034.6 268.1c-1.1 5.9-1.5 10.3-1 10.8.5.4 3.7 3.1 7.2 6 3.4 2.9 6.2 4.9 6.2 4.4 0-1.5-5-16.7-6.6-20.1-.9-1.8-1.8-4.9-2.1-6.8s-.9-3.6-1.2-3.8c-.4-.3-1.5 4-2.5 9.5M990.7 269.1c-2.3 4.9-2.3 5.3-.7 6.9.9.9 2.9 2 4.4 2.4 3 .7 3.6 4.4 1.1 6.9-3.2 3.2-7.9-.5-7.8-6.1l.1-3.6-2.4 4.5c-8.9 16.5-12.3 24-10.6 23.7.9-.2 1.6-.9 1.5-1.5s.6-.9 1.5-.6c1 .2 7.6-2.3 14.8-5.7 7.1-3.4 14.5-6.8 16.4-7.5s7.5-3.2 12.4-5.5l9-4.2-4.2-1.8c-2.4-1.1-7.3-3-11-4.4s-10-3.9-14.1-5.5c-4-1.7-7.5-3.1-7.6-3.1-.2 0-1.4 2.3-2.8 5.1M1035.1 289.7c1.1 4.9 2.2 10.3 2.5 12 .4 1.8.9 3.3 1.3 3.3 1-.1 6.1-7.2 6.1-8.6 0-.6.7-1.4 1.5-1.8 1.7-.6 2.1-3.6.4-3.6-.6 0-3.6-2.3-6.8-5-3.2-2.8-6-5-6.3-5s.3 3.9 1.3 8.7M1024.4 296.8c-3.4 7.5-6.1 13.8-5.9 13.9.1.2 3.3-.6 7.1-1.6 3.8-1.1 8-2.1 9.4-2.3 1.6-.2 2.4-.9 2.1-1.8-.2-.8-1.4-6.1-2.8-11.8-1.4-5.6-2.8-10.2-3.1-10.2-.4 0-3.5 6.2-6.8 13.8"/><path d="M1045.1 299.2c-1.1 1.8-3 4.6-4.2 6.3-1.6 2.4-1.9 4-1.5 8.5.4 4.1.3 4.9-.5 3.1-.5-1.3-1-3.8-1.2-5.7-.2-3.8.5-3.7-12.7-.2-9.3 2.5-9.1 2.4-8 5.3.6 1.6.6 2.5 0 2.5s-1-.9-1-2c0-3.5-1.6-2.2-7.1 5.7-7.2 10.3-7.8 11.2-5.5 9.3 1-.8 4.1-1.6 7-1.8 7.8-.5 7.9-.6 7.3-6-.4-3.8-.3-4.2.5-2.2 2.7 6.7 3.1 7.4 3.5 6.2.3-.6 1.2-1.2 2.1-1.2 1.8-.1 6.6-6.1 9.6-11.9 1-1.8 1.9-3.1 2.2-2.8.2.2-1.4 3.9-3.7 8.3-2.3 4.3-3.4 7.3-2.6 6.6 1.3-1.1 1.8-1 2.9.6 1.4 2 4.9 4.2 6.7 4.2.6 0 1.1-1.2 1.2-2.8 0-2.4.2-2.2 1.8 1.7l1.7 4.3 3.6-6.8c5.6-10.8 5.6-10.5-.7-14.9-5.6-3.8-7.3-5.5-5.8-5.5.5 0 3 1.8 5.7 4s5 3.9 5.3 3.7c.2-.2-.2-3.9-.7-8.3-1.8-12.8-2.4-13.6-5.9-8.2M971 309.7c0 .5 1.4 3.5 3 6.7 1.6 3.3 2.8 6.1 2.6 6.3s-1.7-2.2-3.3-5.3c-2.8-5.7-5.3-8-5.3-5 0 .9-.4 1.6-1 1.6-.5 0-.7-.7-.3-1.5.4-1.3-.6-1.1-4.8.8-12.8 5.7-37.3 18.4-37.7 19.5-.2.7 6.5 4.5 16 9.2l16.3 8 1.8-2.1 1.7-2.1v2.1c0 2.5 1.6 2.6 12.5 1.1 14.4-2 13.4-1.5 12.4-6.2-.9-3.8-3.3-9.6-6.6-16.2-.8-1.5-1-2.5-.5-2.2s2.9 4.5 5.2 9.3c4.2 8.6 4.3 8.7 6 6.5 1-1.2 2.9-2.6 4.3-3.1 3.8-1.5 21-22.2 19.6-23.6-.4-.3-37.8-4.5-40.7-4.5-.7 0-1.2.3-1.2.7M921.6 341.7c.3 3.8.9 11.5 1.5 17.2.5 5.8.9 11 .9 11.7 0 .8.6 1.1 1.5.8.8-.4 1.2-1.1.8-1.7s-.1-.7.6-.3c1.5 1 20.2-11.4 19.4-12.8-.3-.5-.1-.6.5-.2.7.4 2.9-.5 4.9-2 3.5-2.4 3.2-2.6-1.2-.8-1.1.5-1.3.2-.9-1 .3-.9 1.1-1.6 1.7-1.6.7 0 .7-.3.2-.9-1-1-29-15.1-29.9-15.1-.3 0-.3 3 0 6.7M1063.4 349c-3.4 7.1-3.8 9-1.9 9 .8 0 2 1.2 2.6 2.7.8 2.2.7 3-.7 4-1.5 1.1-1.5 1.5.3 5.5 1.1 2.4 2.4 5.4 2.8 6.8s2.9 6.8 5.5 12c2.7 5.2 6.2 12.5 7.9 16.2 1.7 3.8 3.3 6.8 3.5 6.8 1 0-6.5-19.7-14.2-37.1-1.1-2.5-2.8-4.9-3.8-5.3-1.4-.5-1.5-.9-.6-1.5s1.2-3.8 1-12.2l-.3-11.4zM965.7 351c-2.7.5-5.1 1.1-5.4 1.4s1.4 2.7 3.8 5.3c15.3 16.9 23.3 25.3 24.1 25.3.5 0 .6-2.1.4-4.8-.3-2.6-.5-5.2-.5-5.9-.1-.6-.9-1.4-2-1.8-1.3-.4-2-1.9-2.5-5.5-.4-2.7-1-5.1-1.4-5.4-1.1-.6-.2-7.6.9-7.6.5 0 .9-.5.9-1 0-1.2-11.2-1.1-18.3 0M943.5 362.5c-7.1 4.6-14.3 9.3-15.8 10.3l-2.9 2 11.2 6.6c6.1 3.6 11.7 6.6 12.5 6.6s1.4.4 1.3.9c-.2.5 3.2 3.2 7.5 6 7.1 4.7 7.7 4.9 7.7 2.8 0-1.2-.4-3.7-.9-5.5-.6-1.8-1.3-5.8-1.6-8.9-.3-3-1.5-9.2-2.5-13.7-1.1-4.4-2-9.8-2-11.9 0-2-.3-3.7-.7-3.6-.5 0-6.6 3.8-13.8 8.4M960.4 358.5c.9 3.7 4.4 23 5.1 28 .9 7.3 1.2 8 3.9 8.1 1.9.1 2.5-.4 2.9-2.5.5-2.4 1-2.7 3.6-2.3 2.4.3 3.1 0 3.1-1.2 0-.9.8-1.6 2-1.6 1.1 0 2-.4 2-1 0-.5.7-.7 1.5-.4 2 .8.9 2.4-1.6 2.4-1 0-1.9.4-1.9.9 0 1.3 3.7.2 5.1-1.5 1.3-1.6 1.7-1.1-8-11.6-12.8-14-18.3-19.3-17.7-17.3M1036.5 390.1c-.4 2.3-.9 5.6-1 7.4-.2 1.7-.9 5.1-1.6 7.4-1 3.5-1 4.4.1 5.1 2 1.2 13 3.4 13.7 2.6.8-.8-3.7-23.9-4.9-25.2-.2-.1-1.5-.5-3-.9-2.4-.6-2.6-.4-3.3 3.6M1033 388.1c0 .6-.7.9-1.5.5-1.3-.5-1.4.6-.9 7.8.4 4.9.3 9-.3 10.1-.9 1.5-1.4 1.2-4.4-2.8-1.9-2.5-3.9-5.3-4.5-6.3-.7-1.1-1.4-1.7-1.7-1.4s-.9 4.4-1.3 9.2l-.7 8.6 6.7-1.6c4.3-1 6.5-2 6.2-2.8-.2-.6.2-2.1 1-3.3 1.5-2.1 3.3-19.1 2-19.1-.3 0-.6.5-.6 1.1M1006.5 391c1.1 1.7-.5 4.9-2.6 5.2-1.7.3-1.1 1.3 4.3 7.5 3.5 3.9 6.6 7.2 6.9 7.2 1.1.2 1.9-4.2 1.9-10.9 0-5.6-.3-6.6-1.7-6.6-1-.1-3.5-.9-5.6-1.8-2.2-.9-3.6-1.2-3.2-.6M980.2 395c-1.8 1.1-3 2.5-2.7 3s0 .7-.8.4c-.7-.2-2.5.4-3.8 1.5l-2.4 1.9 2.9.8c2 .5 3.1.3 3.4-.4.5-1.7 2.2-1.5 2.2.2 0 1.6 15.2 6.8 15.8 5.5.2-.4-.4-3.2-1.3-6.3-1.6-5.3-2.6-6.8-5.1-7.2-.6-.1-2-.5-3-.8-1.1-.3-3.3.3-5.2 1.4M995.5 400.2c.4 2.9.8 6.1.9 7.1 0 1.1 1.3 2.1 3.6 2.7 1.9.5 6 1.6 9 2.4s5.5 1.4 5.7 1.2c.1-.1-3.3-4-7.6-8.6-5.3-5.6-8.3-8-9.1-7.5s-1.1.4-.7-.2 0-1.4-.9-1.7c-1.5-.6-1.6 0-.9 4.6M1042.7 449.5c-2 8.3-4.2 18.3-4.7 22.3-1 7-.8 8 3.1 22.8 2.3 8.5 4.4 15.2 4.6 15s1.1-10.2 1.8-22.2c1.1-16.4 1.2-24.1.4-30.7-.6-4.9-.8-9.4-.6-10.1.3-.7.2-3.7-.1-6.7l-.7-5.3zM1067.8 446.9c-7.5.3-14 .9-14.4 1.3-1.1 1.2 17.8 10 20.3 9.3 2.3-.5 13.2-6.7 17.2-9.7 2.7-2.1 4.3-2-23.1-.9M1050.8 473.6c-.3.5-.8 6.3-1.2 12.9-.3 6.6-.9 15.3-1.2 19.4l-.7 7.5 4.9-3.9c10.1-8 10.4-8.4 8.9-11.3-1.9-3.9-5.1-11.8-7.8-19.1-1.3-3.6-2.6-6-2.9-5.5M331.2 145.7c-1 1-7 7.4-13.2 14.3-6.3 6.9-13 14.2-14.9 16.4-3.5 3.7-3.5 3.8-1.1 3.4 1.4-.3 10.6-3 20.5-6.1 9.9-3 24-7.3 31.2-9.4 7.3-2.1 13.3-4.1 13.3-4.5s-1.2-1.1-2.7-1.4c-1.6-.4-7.3-2.8-12.8-5.4s-11.5-5.4-13.2-6.1c-1.8-.8-3.3-1.7-3.3-2.1 0-1.3-1.7-.9-3.8.9M365 163.8c0 .5-1.4.6-3.1.4-1.8-.3-2.9-.1-2.6.4s-.5 1-1.8 1c-1.2.1-3.8.9-5.7 1.8s-3.9 1.6-4.4 1.5c-2.3-.4-3.3.2-2.7 1.8.5 1.3.2 1.5-1.6 1-2.5-.6-6 .4-8.2 2.5-2.8 2.5-5.5 3.6-8 3.1-2.5-.4-9.3 1.9-10.4 3.7-.4.6-1.1.8-1.6.5-.5-.4-.9.1-.9.9 0 .9.3 1.5.8 1.5 2.1-.4 3.2.3 3.2 2 0 1.1-.6 2.2-1.2 2.4q-1.5.6 0 .6c1.8.1 1.5 3.1-.4 3.1-.8 0-2.2.6-3 1.4-1.6 1.7-1.9 6.6-.4 6.6.6 0 1 1.3 1 2.9 0 1.5.9 4 2.1 5.4 1.1 1.5 1.9 3.2 1.8 3.9-.3 2.9.2 3.9 1.9 3.6.9-.2 2.5.3 3.5 1.2 1.9 1.6 2.2 3 .6 3-.5 0-.7-.6-.3-1.3.6-.9.4-.9-.7-.1-2.1 1.6-6.9 2.3-6.9 1 0-.6-.5-.4-1 .4-.8 1.2-1 1.2-1 .1 0-.8-.3-1.1-.7-.7-.5.4-.1 1.3.7 1.9.9.7 1.7 2.5 1.8 4 .5 6.5 1.7 6.2 6.6-1.2 2.6-3.9 6.6-9.5 8.9-12.4 5.3-6.6 8-11.4 6.8-12.1-1.5-1-1-5.8.5-5.2.9.3 1.4-.1 1.4-1.1 0-2.5 5.1-6.7 6.1-5.1.6 1 1.2.9 2.6-.6 1.5-1.5 1.5-1.8.2-1.3-1 .3-1.6-.1-1.6-1s.7-1.3 1.8-1c1.3.4 3-1 5.7-4.7C363.7 167.9 367 163 366 163c-.5 0-1 .4-1 .8M266.6 176.3c-1 1.7-5 9-8.9 16.2-3.8 7.1-7.7 14.1-8.6 15.5l-1.6 2.4 5-2.7c15-8.4 43.3-25.2 43-25.6-.5-.4-25.5-9.1-26.4-9.1-.3 0-1.4 1.5-2.5 3.3M291 186.9c-4.5 2.4-33 18.8-35 20.1-.8.5-3.2 1.9-5.2 3-4.2 2.3-4.7 3.5-1.9 4.9 1 .6 4.2 3 7.1 5.5l5.2 4.4 5.1-5.7c2.9-3.2 9-10.4 13.7-16.1 10.1-12.3 14.4-17.1 13.3-14.9-.4 1-7.3 9.5-15.2 19s-14.4 17.8-14.5 18.5c-.1.6 3.5 4 7.9 7.4l8 6.2 3.8-11.9c6.8-21.4 12.5-42.3 11.4-42.3-.1 0-1.8.8-3.7 1.9M297 187.2c0 .9-2.2 8.8-4.9 17.5-5.9 19-6.5 21.3-5.1 21.3.5 0 1 .9 1 2s-.7 2-1.5 2c-1.6 0-2.9 2.1-3.9 6.2-.6 2.5-.4 2.6 2.7 2.2 7.5-1 27.3-4.7 27.9-5.3.9-.8-2-11.1-3.7-13.1-.8-.8-1.5-2-1.7-2.5-.2-.6-2.3-.9-4.7-.7l-4.4.3.7-3.2c.3-1.7 1.5-3.9 2.6-4.9s2-2.6 2-3.6c0-2.2-2.3-9-3.3-10-.4-.4-.7-1.6-.7-2.6s-.4-1.8-.9-1.8c-.4 0-.6 1.2-.3 2.6.3 1.7-.2 3.1-1.7 4.5-1.1 1.1-2.1 1.5-2.1 1 0-.6.6-1.6 1.3-2.3.8-.7 1.2-2 .9-3-.2-1 .1-2.5.8-3.3.8-1 .9-1.9.1-3.2-.9-1.6-1-1.6-1.1-.1M247 232c0 8.8.4 16 .8 16 1 0 11.1-17.8 11.8-20.7.4-1.3-1.1-3.2-5.3-6.6-3.2-2.6-6.1-4.7-6.5-4.7-.5 0-.8 7.2-.8 16"/><path d="M259.7 230.7c-1.3 2.1-4 6.8-6 10.5-2.1 3.7-4.2 7-4.7 7.3-2.3 1.4-.5 4.5 7 12 4.4 4.3 8.1 7.7 8.3 7.4.8-1 5.7-9.9 9.2-16.7 2.1-4 3.9-7.1 4.2-6.9.6.6-1.4 5-7.4 15.9-5.2 9.5-5.3 9.7-3.8 13.1.8 1.9 3.4 9.3 5.9 16.3 4.8 14.2 6.6 18.4 7.6 18.4.8 0 35-69.8 35-71.4 0-.3-1.2-.6-2.7-.6-3.6 0-29.9 4.6-31.3 5.5-.6.4-1.1 11.7-1.2 32.3l-.2 31.7-.6-31.2c-.3-17.1-.8-31.4-1.1-31.7-.3-.4-2.5.1-4.9.9s-4.5 1.3-4.7 1.1 1.9-1.2 4.7-2.2c2.7-1 5-2.1 5-2.5s-1.5-1.8-3.2-3c-1.8-1.3-5.4-4-8-6.1l-4.7-3.9z"/><path d="M246.8 254.6c-1.3 2.2-9 26.6-8.5 27 .2.3 4.4-1.5 9.2-4.1 4.7-2.5 9-4.5 9.3-4.5 1.3 0-6.3 4.4-13 7.5l-6.8 3.2 2.8 2.5c1.5 1.3 5.9 4.3 9.7 6.7 3.9 2.3 11.5 7.1 17 10.6s10.3 6.4 10.7 6.5c.8 0-12-38.1-13.2-39.4-.6-.5-1.6-.3-2.7.5-1.7 1.3-1.7 1.3-.4-.4s.8-2.5-6.1-9.4c-4.1-4.1-7.8-7.1-8-6.7M312 340.4c-3 1.9-9.4 5.5-14.3 8l-8.7 4.7 8.4 7c4.7 3.8 8.7 6.9 9.1 6.9.3 0 1.6.9 2.7 2 2.5 2.3 4.1 2.1 4.6-.4.3-1.3-.1-1.6-1.5-1.2-2.7.8-4.6-.8-3.8-3.3.7-2.3 5.5-3.1 5.5-.9q0 1.05.9.3c.5-.6 1.4-5.1 2.1-10 1.8-13.7 2-16.5 1.2-16.5-.4.1-3.2 1.6-6.2 3.4M284 358.2c-.7 1.2-3.4 4.8-5.9 7.8-2.6 3-5.7 7.1-6.8 9-1.2 2-3.3 4.6-4.7 5.9-1.4 1.4-2.6 2.9-2.6 3.4 0 1.6 10 12.6 12 13.2 1.3.4 5.6-2 14.5-8.2 7-4.8 14.6-10.2 17.1-11.8 2.4-1.7 4.4-3.3 4.4-3.7s-1.8-1.9-4-3.5c-2.2-1.5-7.4-5.5-11.6-8.7-6-4.7-7.8-5.7-8.5-4.5-1.2 1.9-1.1 6.9.1 6.9.6 0 1 .7 1 1.6 0 1.3-.3 1.4-1.4.5s-1.5-.7-1.9 1.1c-.3 1.3-2.1 8.1-4.1 15.3-2 7.1-3.6 13.3-3.6 13.7 0 .5-.4.8-.9.8-.6 0-.7-1.1-.1-2.8.5-1.5 2.1-8.1 3.6-14.7 1.4-6.6 3.3-14.4 4-17.4 1.5-6 1.2-7.6-.6-3.9M221.4 377.3c-.5 1.2-7.2 14.3-14.8 29-7.6 14.8-13.5 27.1-13.2 27.4s7.8-4.3 16.7-10.3 16.6-11.2 17.2-11.5c.5-.4.8-6.5.8-13.9-.2-11.7-.4-13.5-2.3-16.1-1.2-1.5-2.5-2.6-3-2.3s-.6-.6-.2-2c.8-3.2.3-3.3-1.2-.3M261.6 388.1c-.2.8-1.6 4.9-3.1 9.3-1.4 4.3-2.4 8-2.2 8.2.6.6 17.7-5.7 17.7-6.5 0-.4-2.7-3.3-6-6.6-4-4-6.1-5.4-6.4-4.4M226 414.4c-.8.7-8.6 6.1-17.2 11.9l-15.6 10.6 4.1.6c2.3.3 10.4.9 18 1.3l13.7.7v-13.2c0-7.3-.4-13.3-.8-13.3s-1.4.6-2.2 1.4M470 532.6c0 .6 1.2 1.9 8.8 9.6 3.1 3.2 6.1 5.8 6.5 5.8 1 0 5.2-3.1 10.5-7.7l3.7-3.2-2.7-.1c-1.5 0-7.1-1.1-12.5-2.5-9.6-2.4-14.3-3.1-14.3-1.9"/></svg>