<svg xmlns="http://www.w3.org/2000/svg" width="1706.667" height="960" viewBox="0 0 1280 720"><path d="M0 360v360h373.6c298.5 0 373.4-.3 372.8-1.3s-.4-1 .7 0c1 1 55.8 1.3 267.1 1.3H1280v-74c0-65.1-.2-74-1.5-74-.9 0-1.5-.9-1.5-2.5s.6-2.5 1.5-2.5c1.3 0 1.5-32.2 1.5-283.5V0H0zM545 47.4c.8.8 2.5 1.7 3.8 2.1s2.1.9 1.8 1.2c-.8.9-7.7-1.8-7.1-2.8.7-1-.1-1.1-3.2-.3-2.2.6-2.2 1.3-.3 5.9 1.7 3.9 9.2 25 10.7 30 2.8 9.2 6.5 19 7.8 20.3 1.1 1.2 2.5.8 8.6-2.3 4.1-2 7.9-4 8.4-4.5 2.2-1.7 41.2-21 42.5-21 2.6 0-.6-2.2-6.2-4.2-7.3-2.6-40.2-13.8-40.7-13.8-.2 0-.2-.3.1-.6.9-.8 48 15.2 57.3 19.4 13.3 6.1 35.5 17.1 35.5 17.6 0 .7-5.6-1.7-19.2-8.5-11.6-5.7-22.8-10.5-21.4-9.2.3.3-.3 2.2-1.3 4.2-2.4 4.4-5.1 12.7-5.1 15.5 0 1.1-.9 4.6-2.1 7.9-1.2 3.2-1.7 6.2-1.3 6.6.5.4 2.7 1.4 4.9 2.3s9.4 4 16 6.8c10.9 4.7 26.5 10.3 27.1 9.7.2-.1-2-2.6-4.7-5.6-2.7-2.9-7.6-9.4-10.8-14.5-3.3-5-6.9-10.3-8-11.7-7.7-9.9-14-18.9-13.3-18.9 1.1 0 10.7 12.4 18.3 23.5 6.1 9 11.6 15.5 13 15.5.4 0 .9-.8 1.1-1.7.2-1.1 1.3-1.7 3.2-1.8 4.3 0 6.8-5.1 6.4-13.3-.3-6.3.7-7.8 3.1-4.8.9 1.1.8 1.5-.5 2-1.5.6-1.6 2.1-1.1 13.5.4 9.5.2 13.5-.8 15.4-2.6 5.1-.9 5.3 15.7 1.8 22.1-4.7 26.8-6.1 26.8-7.9 0-1.2.3-1.2 1.5-.2 1.7 1.4 2.1 6 .5 6-.5 0-1-.7-1-1.5 0-1.8.1-1.9-7.4.1-3.3.9-6.8 1.7-7.6 1.9-6.8 1.4-28.5 6.6-28.8 7-.6.6 1.9 7.8 3.3 9.5.7.8 2.4 4.2 3.8 7.5s4.6 9.8 7.1 14.5c5.4 10.1 8.1 15.7 10.7 22.5 1.8 4.8 1.8 4.9 0 3-1.1-1.1-5.1-9.1-9.1-17.9-9.2-20.4-13.4-28.9-15.4-30.5-1.5-1.2-1.6 1.4-1.6 28.8v30.2l13.8-.5 13.7-.5-12.7 1.3c-7 .7-13.1 1.6-13.5 2-1.1 1-.4 14.2 1.3 27.1 1.8 13.6 3.3 28.3 4 39.5.7 12.1 1.1 13.5 3.1 11.8 1.4-1.2 1.5-.8.9 3.6-.4 2.7-.4 5.2.1 5.5 1.6 1.2 7.5 9.1 6.6 9.1-.4-.1-2.1-1.9-3.8-4-1.6-2.2-3.5-3.7-4.2-3.5-.6.2-1.3-.5-1.6-1.7-.4-1.3-1.1-1.8-2.4-1.5-1 .3-8.1.9-15.8 1.3-10.5.5-14.3 1-15.5 2.2-1.3 1.4-1.5 1.4-1.8 0-.2-.9-4-2.6-10.5-4.7-10.5-3.2-14.7-3.8-14.7-2.1 0 1.5 7.9 20.1 9.6 22.8l1.6 2.4 2.5-2.4c1.4-1.2 3.6-4 5-6.1 3.9-6.1 3.7-3.7-.2 3.7-3.3 6-3.5 6.7-1.8 7.3 2.2.7 7.3 5.3 7.3 6.6 0 1.7 7.6 8 11.9 9.9 3.5 1.5 4.6 1.6 5.3.6.6-1 .8-.9.8.4 0 .9 1.2 2.1 2.8 2.7l2.7 1-3.2-.3c-1.8-.3-3.5-.1-3.8.4s-.2 9.4.1 19.8l.7 19.1 2.7-3.7c1.4-2 5-7.6 7.9-12.3 2.9-4.8 6.4-9.7 7.8-11 2.8-2.6 2.6-2.1-2.8 6.1-13 19.9-16.1 25.1-15.6 26.4.3.8 1.9 2.3 3.4 3.3s5 3.5 7.6 5.5c2.7 2.1 5.2 3.8 5.7 3.8.4 0 1-2.1 1.3-4.8.2-2.6 1.2-10.1 2.1-16.7s1.8-16 2-20.8c.3-8 .2-8.9-1.7-10.2-2.1-1.5-2.1-1.5.6-1.5 1.7 0 2.7-.5 2.7-1.5 0-.9.6-1.2 1.6-.8.8.3 1.3 1.2 1 2-.7 1.8 1.5 6.1 5.6 11 2.4 2.9 2 2.7-1.7-1-2.6-2.6-5.1-4.7-5.5-4.7-.5 0-1.1 4.4-1.4 9.7-.7 10.8-3.3 32.5-4.2 36-1.2 4.5 2.1 2.2 13.8-9.4 10.9-10.9 11.7-12 11.2-14.8-.6-2.8-.5-2.9 1.2-1.5 1.1.8 2.3 2.1 2.7 2.8.5.8 3.6 3.1 7 5.3 7.5 4.8 6.3 5.2-1.6.4-6.9-4.1-7.7-4.3-7.7-1.1 0 1.2-.5 3.6-1 5.2-.6 1.6-2.2 8.3-3.6 14.9s-2.7 12.9-2.9 14c-.3 1.1-.8 3.5-1.1 5.2-.3 1.8-1 3-1.5 2.7s-.7 1.4-.5 3.8c.3 3 .2 3.4-.3 1.3l-.6-3-1.4 3.3c-.7 1.8-1.6 3.1-1.8 2.8-.2-.2 1-3.4 2.7-7.2 2.8-6.2 2.9-6.9 1.4-8.5-1.4-1.6-1.4-1.7.2-1.5 1.1 0 1.9-.7 2.1-1.9.8-5.3 4.7-22.4 5.9-26 .8-2.3 1.4-4.7 1.4-5.5s-5.6 4.3-12.5 11.3c-8.1 8.3-12.2 13.3-11.8 14.3s.1 1.2-1.1.8c-.9-.4-4.2.3-7.4 1.4-3.1 1.1-8.4 2.8-11.7 3.6-3.3.9-6.9 2.1-8 2.5-1.1.5-7.2 2.1-13.5 3.6-14.2 3.5-15.3 4-14.5 6.8.6 2 .5 2.1-.8.5-1.3-1.7-1.5-1.7-2.9 0-2.5 2.7-10.8 16.1-10.8 17.3 0 .5 1.6 1.7 3.5 2.5s3.5 1.6 3.5 1.8c0 .6-5.5-1-7-1.9-.6-.4-1.9 0-2.9.9-1.7 1.6-1.8 1.5-1.4-.6.5-2.4-4.1-7.3-18.5-19.6-6-5.1-7-5.3-6.3-1 0 .4.6 5.1 1.2 10.5 2.2 19.9 3.9 33.6 4.2 34 1 .9 3.9-1.2 5.3-3.8.8-1.6 1.7-2.9 2-2.9.7 0-1.5 4.1-3.4 6.3-2.6 2.9-.7 3 8.3.2 4.8-1.4 8.9-2.4 9.2-2.2.2.3-4.1 1.9-9.6 3.7-5.6 1.8-10.1 3.7-10.1 4.2s5 5.9 11.1 12.1l11.1 11.1 2-2.3c1-1.4 2.3-3.1 2.8-4s1.1-1.3 1.4-1c.4.3-.3 1.7-1.4 3.2-1.1 1.4-2 3.9-2 5.6s-.4 3.1-1 3.1c-.5 0-1-.4-1-1 0-1.4-1.7-.7-19.2 7.9-8.7 4.2-15.8 8.2-15.8 8.9s1.6 3.6 3.5 6.5c1.9 2.8 3.5 5.6 3.5 6.1 0 .6 1.4 2.5 3.2 4.3l3.2 3.3 4.1-7c2.3-3.8 4.5-7.3 5-7.7.8-.8-6.2 12.4-7.7 14.3-.5.7-.8 1.6-.7 2 .3 2.1-.2 3.5-1.1 2.9-.5-.3-1 .1-1 1s-.4 1.3-1 1c-.5-.3-2.9.7-5.2 2.3-2.4 1.6-7.9 4.8-12.3 7.1s-9.2 5.5-10.7 7.2c-1.4 1.6-2.8 2.5-3 1.9s-5.8.4-14.3 2.5c-16.6 4-35.8 7.7-40.1 7.7-1.7 0-5.7-1-9-2.2-7.7-2.8-18.3-5.8-18.7-5.4-.2.2-3-1-6.3-2.6-5.5-2.8-6-2.9-7.1-1.3-1.2 1.5-1.3 1.5-1.3-.6 0-2.6-3.4-7.6-9.9-14.3-2.5-2.6-4.2-5.1-3.8-5.5s2.7 1.5 5 4.2 5.6 6.5 7.3 8.4l3.2 3.5 4-3.6c2.2-2 5-4.1 6.1-4.8 2.7-1.4 2.7-2.8-.1-3.4-10.4-2.2-20.6-4.8-22-5.6-2.9-1.6-5.8.8-5.3 4.4.3 1.7-.1 1.1-.7-1.3-.8-3.2-2.2-5.1-5.2-7.4-3.6-2.6-3.4-2.9 1.2-1 .6.3 1.2.1 1.2-.5 0-.5.7-1.3 1.6-1.6 1.4-.5 1.5-.4.5.7-1.9 2.3.9 3.6 9 4.2 7.6.6 10.4 1.4 5.3 1.6-2.2.1-1.2.7 4.1 2.4 3.9 1.3 8.1 2.4 9.4 2.4 1.4.1 3.3.9 4.4 1.9 1.2 1 1.7 1.1 1.2.3-.6-1.1-.3-1.3 1.6-.7 1.3.3 7.4 1.4 13.4 2.3 6.1.9 11.3 2.2 11.7 2.7.5.7.8.5.8-.5s-1.2-1.9-3.2-2.4c-2.2-.5-2.7-.9-1.6-1.2.9-.2 2.6.1 3.8.7 1.6.9 2.5.8 3.5 0 .8-.7 2-1 2.7-.7.8.4.7.6-.4.6-1 .1-1.8.8-1.8 1.7 0 1.1.5 1.4 1.6 1 1.8-.7 19.7-2.2 35.4-3.1 12.6-.6 33-3.5 33-4.7 0-.4-2.4-.8-5.2-.9-2.9-.1-7.8-.5-10.8-.9-5.3-.8 5.8-.5 21.2.6 5.4.3 5.7.2 5.2-1.9-.2-1.2-1.2-3.3-2.3-4.7-1-1.4-2.8-4.3-3.9-6.5-2.5-4.7-5.6-8.5-7-8.5-.5 0-1.5.6-2.1 1.3-.6.8-4.9 4-9.5 7.1-10.3 7-12.6 9.3-10.6 10.6 1.1.7.6.9-1.5.7-1.6-.1-3.4-.7-4-1.4-.5-.6-7-3.9-14.3-7.2L512 515l-7.8 3.1c-4.2 1.7-8.2 3.5-8.8 3.9-.6.6-4.1-.6-9-3-4.3-2.2-8.4-4-8.9-4-.6 0-3.4 1.6-6.2 3.5-5.8 3.9-6.5 4.1-5.7 2 .4-.8 1-1.5 1.5-1.5 1.3 0 8.7-5.3 9.3-6.6.2-.6-.2-6.9-1-13.9s-1.3-13.2-1-13.8c.2-.7.5.4.6 2.3.2 5.2 3.4 16.3 4.8 16.8.7.2 1.2-.6 1.1-2-.1-4.2 2.7-16.8 4-18.1 1.1-1 1.2.1.6 5.7-.4 3.8-.9 7.7-1.2 8.5-.9 2.9 6.6-6 9.4-11 1.4-2.7 2.9-4.9 3.2-4.9.4 0 1.5 1.6 2.5 3.5l1.9 3.5 2.8-2.6c1.6-1.5 3.1-4 3.4-5.6.7-2.8.8-2.9 2.6-1.2 1.3 1.2 1.9 1.3 1.9.4 0-.8.9-1.1 2.6-.7 1.4.2 4.3-.2 6.5-1.1 3.5-1.4 3.7-1.6 2.1-2.8-1.4-1.2-1.5-1.5-.2-2.3.8-.5 1.8-.7 2.4-.4.5.3.6.1.2-.5-.4-.7.4-1.4 2-1.8 1.5-.4 2.9-.2 3.3.4.6 1.1 2.5 1.5 5.4 1.3 1.2-.1 1.7-1 1.7-3.2 0-4.1 3.3-3.7 4 .6.4 2.2.8 2.6 1.4 1.6.7-1.1 1.1-1 2 .7.7 1.4 1.6 1.8 2.5 1.3 1-.7 1-1.7-.3-5.7-3.4-10.5-4.6-14.8-4.3-15 .4-.4 6.1 13.6 7.2 17.6.4 1.4 2 5.1 3.6 8.2l2.9 5.7 2.3-2.2c1.2-1.2 5.7-5.3 10-9.2 4.2-3.8 7.7-7.7 7.7-8.6s-7.5-9.3-16.7-18.6c-9.3-9.3-19.6-20-23.1-23.8-5.5-6.2-6.1-6.6-4.9-3.5.8 1.9 1.7 5.9 2.1 8.8.4 3 1.4 7.1 2.2 9.3 1.2 2.8 1.3 4.6.6 6.6-.9 2.6-1 2.4-3-4.2-1.1-3.9-2.8-10.5-3.6-14.8-1.7-8.3-2.2-9.7-3.6-9.7-.4 0-3.4 3.5-6.6 7.7-3.2 4.3-7.2 9.4-8.9 11.3-4.7 5.5-7 8.9-7 10.3 0 1.2 2.5 1.8 15.5 3.5l6.5.9-6 .1c-3.3 0-8.6-.3-11.7-.7-3.6-.4-5.9-.3-6.1.3-.2.5 2.4 3.6 5.7 6.9 6.9 6.7 4.7 6.1-2.8-.8-5.2-4.7-7.3-5.5-8.2-3.1-.6 1.7-3.4 3-3.4 1.6 0-.5.6-1.5 1.3-2.2 1.1-1.1-.4-1.4-9-1.6-10.6-.3-12.2.3-8.1 3.2 1.2.9 1.7 1.6 1 1.6s-2.3-1.1-3.6-2.5c-2.7-2.9-4.1-3.2-3.2-.8.5 1.6.4 1.6-.8-.1-.8-1-3-2.2-4.8-2.6-3.1-.8-3.2-.8-.5-.9 2.6-.1 2.7-.4 2.7-4.9 0-2.7-.3-5.2-.7-5.6-1-1-5.3 9-6 14-.3 2.4-.9 4.1-1.3 3.9-.4-.3-.3-2.4.1-4.7.5-2.4 1.2-5.9 1.5-7.8.4-1.9 1-4 1.4-4.5 1.3-1.8 3.3-10.5 2.6-11.3-.4-.3-2.5 1.3-4.7 3.6-5.3 5.5-6 5.4-1.3-.3 2-2.5 4.2-4.5 4.9-4.5s1.9-.7 2.6-1.7c1.3-1.5 1.2-1.5-.9-.4l-2.3 1.2 2.6-5c3.8-7.7 3.8-7.7-6.6-8.5-5-.4-10.8-.9-12.9-1.2-3.4-.5-3.8-.3-4.4 2.1-.5 1.8-1.5 2.7-3.6 3.2-2.9.5-3 .8-3.1 6.2-.1 3.1-.5 8.1-.9 11.1-.7 4.9-.8 4.4-.8-4.5 0-13.9-.1-14.7-1.1-14.3-1.3.5-10.8 9.5-16.4 15.5l-4.8 5.1 2.8 4.9c3.1 5.5 14.4 20.2 15.5 20.3.4 0 1.3-2.1 2.1-4.8l1.5-4.7.1 3.7c.1 2.1.5 3.8 1.1 3.8.5 0 2.9-1.7 5.2-3.8 2.3-2 3.8-3 3.3-2.2-1.2 2.1-6.8 9.4-7.8 10.1-1.8 1.3.4 5.8 6.8 13.6 3.8 4.6 7.2 8.3 7.6 8.3.7 0 1.2-1.2 6.3-15.5 3.8-10.6 3.1-6-.9 6.1-3.9 11.8-4.1 14.2-2 26.9 1.7 10.3 1.8 13.5.7 13.5-.5 0-.9-.6-.9-1.3-.1-2.8-3.5-22.1-4.1-23.1-.3-.6-.5-2-.4-3.1.2-1.3-2.6-5-8.2-11l-8.5-9-2.6 3c-2 2.2-2.2 2.3-1.1.5 2.7-4.2 2.1-6.7-2.1-8-2.1-.7-4.2-1.6-4.7-2.1-.6-.5-1.6-.9-2.3-.9s-5.2-1.8-9.9-4.1c-10.4-4.8-14.7-5.9-13.8-3.5.9 2.5-.5 1.9-1.7-.7-.8-1.8-.9-1.6-.4 1.2.8 5.1-.6 2.9-1.6-2.5-.7-3.6-.6-5 .3-5.6 2.1-1.3 2.8-.9 2.8 1.6 0 1.9.8 2.7 3.5 3.6 1.9.6 9 3.6 15.7 6.6s12.8 5.3 13.5 5.2c.9-.2-1.7-4-6.7-10-4.4-5.3-8-10.3-8-11.1 0-.7-.9-2.2-2-3.2s-1.7-2.1-1.5-2.5c.7-1.2-7.5-15.2-12-20.4-3-3.6-5.2-5-10.2-6.7-3.5-1.1-6.3-2.5-6.3-3 0-1.2 2.4-1.1 3.6.1.6.6 3.8 1.9 7.2 2.9l6.1 1.9 2.6-5.5c2-4.3 4.5-13.1 4.5-15.8 0-1.5-15.4-4.8-20.4-4.3-3.7.3-3.9.4-2.3 2 .9.9 1.7 1.9 1.7 2.3 0 .3 2.2 3.8 4.8 7.8 5.2 7.6 7 11.3 5.1 10.1-.6-.4-3.8-4.8-7-9.8l-5.9-9.1.4 6.5c.5 6.3.5 6.3-.4 1.5-.5-2.8-1.3-9.7-1.9-15.5s-1.3-12.2-1.5-14.4c-.3-2.4-.1-3.5.5-2.9.5.5 1.2 4.5 1.5 8.9l.7 8 4.2 1.7c4.6 1.9 13.6 3.3 15.9 2.4 1.7-.7 1-4.8-.8-4.6-2.6.3-4.6-.2-4.6-1.1 0-.6-1.1-2.2-2.4-3.6-1.3-1.5-3.3-4.7-4.5-7.3-1.2-2.5-2.9-6-3.8-7.6-5.6-10.4-6.2-12.4-4.8-15.8.5-1.3.2-1.7-1.3-1.7-1.8 0-1.9 1.1-2.6 27.7-.4 16.1-.3 29.8.2 32.6.5 2.7.6 5 .1 5.3s-.9-.8-.9-2.3c0-1.6-.6-3.5-1.2-4.2-1-.9-1.2-8.2-1-31.4.2-16.6.7-32 1.1-34.2l.9-4 .1 4.7c0 2.7.5 4.8.9 4.8 1.8 0 2.9-4.7 2.6-10.5-.4-6.3 0-6.5 1-.4.7 3.9 3.1 4.9 4.2 1.7.3-1 1.7-3.2 3.2-5 1.9-2.3 2.6-4.2 2.6-7-.1-2.1.2-3.8.7-3.8s1.3-1.5 1.8-3.3l.9-3.2.1 3.5c.1 3.5.2 3.6 3.6 3.2 1.9-.2 4-1 4.6-1.8s2.7-1.4 4.5-1.4c1.9 0 3.4-.5 3.4-1.1 0-.5.5-.7 1-.4 2 1.2.9-.7-3.8-6.8-7.3-9.5-7.1-9.9.8-1.8l7.2 7.3 5.9-.4c3.2-.2 6.1-.6 6.3-.9.3-.3 0-2.2-.6-4.3-1-3.1-2-4.2-5.6-5.7-2.4-1.1-4.8-1.9-5.3-1.9s-4.9-1.5-9.7-3.4-9.9-3.3-11.5-3.1l-2.7.3 2.5-3c1.5-1.8 2.5-4.2 2.5-6.1 0-3.9 2.6-16.6 3.6-17.5.6-.7.4 1.7-1.2 15.3l-.7 6 3.4-2.7c1.9-1.4 5.7-4.1 8.5-5.9 10.6-7 10.5-5.9.9-12.2-7.7-5.1-11.5-6.3-11.5-3.6 0 .4-.9 1.3-2.1 1.9-1.9 1.1-2 1-1-.9.6-1.1 1.6-2.3 2.1-2.6.6-.3 1-1.9 1-3.6 0-1.6.4-2.9.9-2.9.4 0 1.1-5.3 1.4-11.8.7-12.3 1.3-16.2 2.9-16.2.5 0 .7.4.4.9-.7 1.1-2.8 24.2-2.3 24.7.2.3 1.4-1.7 2.7-4.3 1.2-2.6 3.6-7.6 5.2-11 3.4-6.7 3.2-8.8-.7-10.3-1.4-.5-2.5-1.4-2.5-2 0-.5-.9-1-1.9-1s-2.1-.7-2.5-1.5c-.3-.8-.1-1.5.4-1.5.6 0 1-1.6 1-3.5s.5-3.5 1.1-3.5c.7 0 .8 1.3.4 3.9-.6 3.4-.3 4.1 2.5 6.5 4.9 4.1 5.6 3.5 6.9-5.2 1.7-11.1 2.8-21.9 2.7-27.3-.1-2.6.2-4.5.6-4.3.3.2.9-.4 1.2-1.3.2-1 .3.7 0 3.7-.7 9.3-3.5 35.4-3.9 36.7-.6 1.7 1.5 2.1 5 1.1 1.6-.4 5.6-.8 8.7-.8 3.2 0 9.3-.7 13.5-1.5 4.3-.8 9.5-1.7 11.6-2 2-.3 3.7-1 3.7-1.4 0-.5-2.8-4.4-6.2-8.8-7-8.7-7.4-9.3-15.3-21.1-3-4.5-5.5-8.6-5.5-9-.1-.4-2.3-3.1-4.9-6.1l-4.8-5.4-.1 4.9c-.1 3.5-.7 5.3-2.3 6.8l-2.1 2.1.7-2.5c1.5-4.8 2.3-9 1.7-9-.3 0-3.5 3-7 6.7-7.4 7.7-7.2 6.3.1-1.8 6.9-7.4 8.3-9.7 6.8-11.2s-1.4-3.2.2-1.9c2.8 2.3 9.1-3.4 20.1-18.1 3.3-4.5 23.4-25.8 25.5-27.1 2.4-1.5-5.8 8.2-13.4 15.9-3.8 3.9-9.9 10.9-13.5 15.5-3.6 4.7-8.4 10.4-10.8 12.7-5 4.9-5.1 4.5 3.2 15.2 2.8 3.7 6.7 9.2 8.6 12.2s7 10.1 11.2 15.7c4.3 5.7 7.8 10.9 7.8 11.5 0 .7.3.7.9.1 1.1-1.2 2.9-16 4.1-34.9.5-8.3 1.5-21.5 2.2-29.5s1.3-19.9 1.3-26.5v-12l-3.5.2-3.5.2 3.3-.8c4.5-1.2 4.8-1.6 2.6-4.8-1-1.5-1.9-3.1-1.9-3.5-.1-2.2-15-19.7-15.9-18.7-.2.2-2.1 4.4-4.1 9.4-2.1 4.9-4.2 9.4-4.7 10-1.2 1.3 3.2-10.6 4.5-12.3.5-.6.6-1.2.1-1.2-1.2 0-7.2 6.4-12.6 13.5-2.5 3.3-5.9 7.6-7.6 9.5-1.6 1.9-4.2 4.8-5.6 6.5-1.4 1.6-2.6 2.7-2.6 2.3s3.5-4.9 7.8-10 9.8-12 12.4-15.3c2.5-3.3 5.8-7.4 7.3-9 1.4-1.7 3.3-4 4.2-5.3 1.5-2.1 4.1-3.2 2.8-1.1-.4.5 1.5 3.6 4.2 6.7 5.9 7 11.8 14.4 11.8 15.2.1 1.2 2.6 5 3.4 5 1.9 0 61.6-58.8 60.7-59.7-.3-.3-1.1-.2-1.8.4-.7.5-2.6 1.5-4.3 2.2-4.8 2-1.5-.5 5-3.8 4.8-2.5 6.8-3 10-2.6 2.2.3 4.6 1.2 5.5 1.9m414 66.5c0 .5 4.2 3.1 9.3 5.7 8.3 4.3 49.4 28.3 52.5 30.7 2.5 1.9.3 1.8-2.5-.1-2.5-1.8-28.5-17-46.6-27.4-3.8-2.2-7.2-3.8-7.7-3.6-.4.2 6.6 7.9 15.6 17.1 9 9.3 16.4 17.2 16.4 17.5-.1 2 19.6 39.2 20.7 39.2.7 0 1 .6.8 1.3-.3.6 1.6 4.2 4.2 7.8 2.7 3.7 7.4 10.4 10.5 15 10.9 15.9 22 31.4 22.7 31.7.6.2 4-5.8 5.4-9.8.4-1 .6-.7.6.7.1 1.3-.6 4-1.5 6.2-2.3 5.9-1.7 7 5.6 9.7 3.6 1.3 6.9 2.4 7.3 2.4.5 0-.3-2-1.7-4.4-2.5-4.2-3.9-9.1-1.6-5.6.5.8 1 1 1 .4 0-1.8-6.8-30.7-8-34.1-.7-1.8-1-3.8-.8-4.4.5-1.4 3.6 9.4 9 31.8l4.4 18.3-1.2 13.2c-1.5 15.6-4.1 33.9-5 34.7-.4.3-.4-.8-.1-2.5s.9-5.5 1.2-8.5 1.3-10.6 2.1-16.9c.9-6.3 1.4-13.5 1.2-15.9l-.3-4.4-6.9-2.4c-7.6-2.5-9-2.8-8.2-1.4.3.5.1 11.5-.6 24.4-1 21.4-1 24 .5 27.8 1.8 4.7 1.5 6.7-.4 2.5-.7-1.4-1.5-2.6-1.8-2.6s-2.3 1.6-4.3 3.5c-4.7 4.3-5 3-.4-2 1.9-2 3.2-4.2 3-4.9-.7-1.4-11.3-10-11.9-9.5-.2.2.3 4 1.2 8.4.8 4.4 1.5 8.8 1.6 9.7.1 1 .4 1.8.8 1.8s.5.9.2 2-.9 2-1.3 2-1.5 2-2.4 4.5c-1 2.4-2.6 6.1-3.6 8.2-2.3 4.7-1.3 5.8 5.4 6.2 4.4.2 4.6.1 4.7-2.6 0-2.4.1-2.5.9-.8.6 1.7.9 1.3 1.5-2 1-6.1 1.3-6.4 1.4-1.7l.1 4.3 4.4-3.1c2.5-1.6 5-3 5.6-3 1.7 0 2.8-4.2 1.9-6.8-.6-1.5-.5-2.1.1-1.7.6.3 1.1 1.4 1.1 2.3.1.9.7-1 1.4-4.3l1.3-6v5.5c-.1 3-.7 6.4-1.4 7.5-1.5 2.1-1.9 10.5-.6 10.5 1.1 0 3.2-4.5 3.2-6.7 0-1.3.3-1.4 1.2-.5s.8 1.8-.2 3.9c-.8 1.6-1.6 3.2-1.9 3.7-.2.5.6.7 1.8.3q2.1-.45 2.1.9c0 .8-.4 1.4-1 1.4-.5 0-1 .8-1 1.7.1 1.5.4 1.4 2-.6 3.7-4.3 1.3 1.4-3.4 8.3-1.7 2.6-2.6 3.2-3.5 2.3-.8-.8-1.1 1-1.1 7.1 0 7.9.2 8.5 5.9 20.4 6.6 13.7 9.2 19.8 8.6 19.8-.3 0-1.3-1.7-2.4-3.8-1.1-2-2-3.4-2.1-3.1 0 .7 5.1 15.6 8.5 24.4 1.5 3.8 3.1 8.6 3.6 10.5.6 1.9 2.4 6.9 4 11 2.8 6.9 3.3 7.5 6 7.5 1.6 0 2.9-.5 2.9-1 0-.6-1.3-3.7-3-7-1.6-3.3-3-6.4-3-6.8 0-.5-1.5-3.5-3.4-6.6-1.9-3.2-3.7-6.9-4.1-8.2s-2.3-5.4-4.1-9.2c-1.8-3.7-2.9-6.7-2.5-6.7 1.3 0 22.1 45.1 22.1 47.9-.1 2.4-3.9 10.9-3.9 8.6 0-.6.6-2.1 1.4-3.5 2.5-4.4 1.9-6-2.1-6-3.6 0-3.6 0-3 3.7.5 3.5.4 3.6-.5 1-1.2-3-2.5-3.4-5.4-1.3-1.1.8-7 4.2-13 7.6-6.1 3.5-12.3 7.5-14 8.9l-3 2.6 2.3-2.6c3-3.4 2.8-3.9-1-2.9-1.8.4-5.4 1.1-8 1.5-2.6.3-5 1-5.3 1.5-.7 1.2 9.2 6.3 10.6 5.5.6-.4.7.3.4 1.8-.4 1.4-.7 5.2-.8 8.5-.2 4.7.1 5.8 1.1 5 .6-.6 1.2-2.3 1.2-3.9 0-1.5.5-3.1 1-3.4.7-.4.8.8.3 3.7-1.5 8.4-.3 19.2 2.3 20.2 1.5.6 1.6-.1.9-5.6-.4-3.5-.8-9.5-.9-13.3-.1-3.9-.5-7.5-.9-8.1-.4-.7 0-1.4.8-1.8q1.5-.45 1.5 1.2c0 .9 1.1 6.2 2.4 11.7 2.9 12 4.1 19.3 3.1 18.3-.4-.4-1.6-4-2.5-8l-1.8-7.3.5 6c.2 3.3.9 7.3 1.5 8.8 1.4 3.6.5 4.4-2 1.9-2.6-2.6-5.9-4.4-6.4-3.4-.2.4-4 3.6-8.5 7.1-7.3 5.6-9.9 8.4-7.5 8 2.1-.4 4.2.2 4.2 1.2 0 .7-.8.9-2.2.4-1.3-.4-3.3-.6-4.5-.6-2 .1-2.8-.9-2.4-3.1 0-.4-1.3-1.9-3-3.5-1.6-1.5-4.1-4.7-5.5-7-3-5.1-6.3-7.8-16.9-13.3-4.4-2.3-8.7-4.9-9.5-5.7-1.3-1.3 6.2 2.4 17.6 8.8l3.1 1.7 1.1-3.2c2.4-6.8 2.5-13.8.3-18.9-2.8-6.4-2.6-7.3.4-1.7 1.6 3 2.5 4 2.9 3 .3-.8 3.2-12.3 6.4-25.5 3.3-13.2 6.3-24.9 6.7-26 1.8-4.7-1.8.9-11.5 17.7-7.3 12.8-10 18.3-9.5 19.8.3 1.1.2 2-.3 2-.6 0-1.2-.5-1.4-1.1-.2-.7-1.9.8-3.8 3.2s-5.7 7.1-8.6 10.4c-2.8 3.3-5.4 6.8-5.7 7.7-.4 1-1.1 1.8-1.7 1.8-1.4 0-1.2-2.7.3-3.7.7-.4 5-5.3 9.5-10.7 6.1-7.4 8.4-11 8.8-13.8.5-2.9 1-3.6 1.9-2.8 1 .8 2.7-1.4 7-9.2 3.2-5.7 7.3-12.8 9.1-15.9s4.3-7.7 5.4-10.3l2-4.7-2.4-.9c-3.8-1.4-14.6-3.3-15.3-2.7-.3.4-.9 3.2-1.3 6.4l-.7 5.8-.3-4.5c-.2-2.5-.4-5.3-.3-6.3 0-1-.5-1.6-1.1-1.4-.6.3-3.7 1-7 1.8-3.2.7-6 1.8-6.3 2.5-.2.7.3 4 1.1 7.5 2.1 8 1.4 8.8-.8.9-.9-3.3-2.1-6-2.5-6-.5 0-1.1-.8-1.3-1.8-.4-1.3-2.7-2.2-8.9-3.5-4.6-1-9.2-2-10.2-2.2-.9-.2-2.1-.6-2.6-.9-2-1.3-24.9-6.5-28.6-6.5-2.2 0-9.2 1.1-15.5 2.6-19.4 4.3-18.7 4.1-19.4 6.9-.9 3.6-1.5 2.7-2.2-3.6-.3-3-1.4-8.1-2.4-11.4-1-3.4-2.1-7.8-2.5-9.9-.3-2.1-.9-4.6-1.2-5.5s-.3-1.4.1-1c.4.3 2.2 6.5 4.1 13.8 1.8 7.2 3.5 13.3 3.7 13.6.9.9 29.6-6.2 31.2-7.6.9-.9-1.4-2.5-25-16.9-7.6-4.7-13.2-8.7-12.6-8.9s2.4.5 3.9 1.6c1.6 1.1 8.7 5.4 15.8 9.7 7.2 4.3 14.2 8.6 15.7 9.6 3.3 2.4 3.8 2.4 3.8-.1 0-2.3-2.9-17.8-3.7-20-.7-1.6-1-2.6-1.2-3.7 0-.3-1.1.5-2.3 1.9-3.4 3.7-5.3 4-7.7 1.2-1.1-1.3-2.1-2.6-2.1-2.8 0-1.1 3.4-1.4 5.2-.5 2.7 1.5 4.6-1 2.1-2.8-1.5-1.1-1.4-1.4.1-3.8.9-1.4 2.1-2.5 2.7-2.5.7 0 .9-1.2.5-3.3-.4-1.7-.7-4-.7-5 0-2.3-.3-2.2-5.2 1.1-2.3 1.6-9.3 5.9-15.5 9.6-11.3 6.9-13.1 8.6-13.3 12.8-.1 1.9-.3 1.7-.8-.7-.6-2.8-1-3-4.6-2.8-4 .3-4 .3-1.2-1l2.8-1.2-3.3-1.9c-5.3-3.1-25.5-15.4-35.6-21.7-5.1-3.3-9.4-5.9-9.6-5.9-.5 0-30.6-30.3-30.4-30.6.2-.1 7.1 6.3 15.3 14.4 8.3 8.1 15.9 15.2 17.1 15.8 2 1.1 10.1 5.9 31.4 19 5.8 3.5 10.9 6.4 11.4 6.4s1.7.7 2.6 1.5c1.6 1.5 1.7.6 1.3-14.2-.3-8.7-.8-17.6-1.2-19.7-.7-4.6-.1-4.3-35.1-17.3-11.3-4.2-20.9-8.1-21.5-8.5-.5-.5 3.5.7 9 2.7 5.5 2.1 14.7 5.4 20.5 7.5 5.8 2 14.1 5.1 18.5 6.8 7.8 3.1 9.4 3 9.5-.4 0-.6.4-6.7 1-13.5 2.3-29.4 6-87.2 5.5-87.7-.3-.3-22.4 14.9-41.5 28.4-17.4 12.3-25 17.5-25 17 0-.2 5.3-4.2 11.7-8.8 24.2-17.2 38.1-27 46.1-32.5 5.7-3.9 7.9-5.9 7-6.4-1.6-1-6.9-2.2-24.3-5.4-7.7-1.5-26.1-5.1-41-8.2-14.8-3-27.5-5.6-28.2-5.7-2.4-.4-2.5-1.5-.3-3.8 1.2-1.3 6.9-9.1 12.7-17.3 5.9-8.3 10.9-15.2 11.3-15.5.3-.3 1.7-2.3 3-4.5s2.9-4.5 3.6-5c1.4-1.2 8.4-11.9 8.4-12.9 0-.3-3.6-.6-8-.6-6.9 0-8 .2-8 1.7-.1 1.7-.1 1.7-1.1 0-.7-1.1-2.3-1.7-5.2-1.8l-4.2-.1 4-.8c2.2-.5 8.2-.8 13.3-.8s9.5-.1 9.7-.3-4.1-5-9.6-10.7c-5.5-5.6-9.6-10.2-9.1-10.2.4 0 3 2.3 5.7 5.1 2.8 2.8 7.5 7.3 10.6 10l5.7 4.9 24.3-8c13.4-4.4 25.1-8.3 25.9-8.7 2.4-.9-2.5-1.9-26-5.3-11.8-1.7-21.9-3.3-22.5-3.5-2-.7 3.1-.5 9 .5 3.3.5 8.3 1.2 11 1.5 6.5.7 17.8 2.4 23.8 3.6 2.6.5 5.2.9 5.7.9 1.5 0 1.2-2.6-.6-4-.8-.8-2-2.3-2.5-3.4-.6-1.2 1 0 3.5 2.7l4.4 4.7 8.4-1.9c9.5-2.2 28.6-6.1 30-6.1.5 0 .6.4.3 1-.3.5-2.1 1-3.8 1-5.6 0-32.7 7.1-32.7 8.5 0 .7.3 1.5.8 1.7.4.1 6.9 8.1 14.5 17.7 8.8 10.9 14.2 17 14.9 16.3.5-.5 1.5-5.4 2.3-10.8s2.4-14.2 3.5-19.4c2.3-11 2.5-15.1.8-16.8-.9-.9-.6-1.2 1.5-1.2 1.5 0 2.7.4 2.7.9m-615.5 29.6c-2.7.7-6.2 1.4-7.7 1.4-1.5.1-2.9.5-3.2 1-.6.9 15.3 8.5 20.2 9.7 2.9.8 8.2 4.4 6.3 4.4-.6 0-7.3-2.9-14.8-6.5-7.4-3.6-14-6.2-14.5-5.9-1.6 1-31.9 34.6-31.5 35 .2.2 5.7-1.4 12.3-3.5 13.3-4.4 33.9-10.8 45.6-14.2 4.7-1.3 7.5-2.6 7.1-3.2s0-.8 1.1-.4 4.3-1.4 9.9-5.6c12.7-9.8 16.3-12.3 15-10.7-.6.8-5.4 4.6-10.7 8.5-5.2 3.8-9.4 7.5-9.1 8.2.2.6-.1 1.4-.8 1.6-.8.3 1.3 5.4 6 14.5 5.8 11.3 6.9 14.1 5.7 14.6-2.3.9-3.7-.3-2.4-1.9.9-1.1-.1-3.6-4.1-11.2-2.9-5.4-5.8-10.8-6.3-12-.6-1.3-1.3-2.3-1.6-2.2-.8 0-24.2 31.9-42.8 58.4-1.9 2.7-4.7 6.5-6.1 8.4l-2.6 3.4 3-.7c1.7-.4 3.9-.9 5-1.2 1.6-.4 1.7-.3.5.5-.8.6-2 1.1-2.7 1.1-.6 0-2.4.5-3.9 1-2.6 1-2.6 1.1-.8 3.3 1 1.2 1.2 1.6.4.9-2.1-1.8-3.1-1.5-2.6 1 .3 1.3.7 11.5.9 22.8.3 12.9.2 17.7-.3 13-.4-4.1-.9-13.6-1-21s-.5-13.9-.8-14.4c-.5-.9-1.5 1-8.7 16.6-6.9 15.2-14.8 30.8-15.2 30.4-.2-.2 4.8-11.3 11.2-24.6 6.3-13.3 11.5-24.9 11.5-25.6 0-1-.7-1.3-2.2-.9-1.3.3-8.5 1.6-16.2 2.9-7.6 1.4-13.9 2.6-14.1 2.8-.1.2-.5 15.4-.8 33.8l-.6 33.5 5-10.3c2.8-5.7 5.3-10.2 5.5-9.9.4.4-5.8 14.4-8.8 20.1-.5 1-.6 2.2-.1 2.6.4.4 8.8 5.5 18.5 11.3 14.1 8.4 18.3 10.5 20.5 10.1 2.7-.5 2.7-.4.8 1-1.6 1.2-2.4 4.2-4.2 17.3-1.2 8.7-2.5 16.8-2.8 18.1-.6 1.8 2.3.4 15.7-7.7 17-10.2 25.2-14.6 21.3-11.6-1.1.9-7.2 4.7-13.6 8.5s-13.4 8-15.5 9.4c-8.4 5.4-8.5 4.9 1.8 7 5.1 1.1 8.8 2.1 8.3 2.3-.6.2-5-.5-9.8-1.6l-8.9-1.8-.8 2.1c-.6 1.8-6.2 24.6-7.6 31.6-.5 2.1-.7 2.2-1.5.8-.6-1-4.7-2.9-9.9-4.4-5-1.5-8.8-2.9-8.6-3.1s4.3.7 9.2 2.1c4.8 1.4 9 2.3 9.3 2.1.9-1 7.9-29.5 7.2-29.5-.4 0-4.5 2.6-9.2 5.8-26.7 18.4-23.8 16-21.9 17.2 1.2.8.9 1-1 1.1-1.4.1-3.2.1-4.1 0-.8-.1-5.1 1.3-9.5 3.1-7.4 3.1-7.9 3.6-8.5 6.8-.6 3.1-.7 3.2-.8.7-.1-2.9-.3-3-5.1-2.1-3 .6-3.1.9-2.7 4.3.3 2 .3 2.7 0 1.7-.4-1.5-.7-1.6-1.4-.5-.6 1-.8.4-.6-1.6.2-2.4-.2-3.1-2-3.3-2.4-.4-3-1.6-1.3-2.7.6-.3 1-.1 1 .4 0 1.9 2.4 1.1 4.1-1.2 5-7 12.1-18.9 11.6-19.4-.6-.5-4.8.8-9.4 3-2 .9-2.3 1.8-2.3 7.4 0 3.5-.4 6.3-1 6.3-.5 0-1-1.2-1.1-2.8v-2.7l-1 2.4c-.5 1.3-1.1 2.2-1.4 1.9-.8-.7.7-10.8 1.5-10.3 1.1.7 2.1-2.2 1.4-4-.4-.8-1.3-1.5-2.1-1.5-.9 0-1.3-.6-1-1.5.4-.8.1-1.7-.5-2.1-.7-.4-.8-.3-.4.4 1.1 1.9-.5 1.4-2-.5-.7-1-1.5-1.5-1.8-1.2-.8.8-2 20.9-1.3 20.9.3 0 1.1-2.5 1.7-5.5s1.6-5.8 2.2-6.1c.8-.5.9-.1.4 1.2-1.1 2.9-3.6 13.7-3.6 15.7 0 1.2.4 1.6 1.3 1.1.8-.5.8-.2-.2.9-1.2 1.5-1 3.2 1.3 12.2 1.5 5.8 2.6 11.3 2.4 12.3-.2.9-.8-.4-1.2-3.1-1.4-8.7-2.2-4.8-1 4.5.7 5.1 1.2 10.9 1.2 12.8s-.6-.5-1.3-5.3c-1.5-10.2-2.5-12.2-2.5-4.9 0 3.1-.5 5.2-1.2 5.4-.7.3-1.8 2.4-2.5 4.9l-1.2 4.4.4-4.5c.3-2.7 1.2-5.1 2.2-5.9 1.6-1.2 1.5-1.2-.7-.6-2.9.9-11.4 5-14.9 7.3-2.3 1.6-2.2 1.6 4.5 3.4 6.2 1.5 6.4 1.7 1.9 1.1-2.7-.3-5.9-.5-7-.5-1 .1-2.5-.4-3.1-.9-.7-.6-3.2-.9-5.6-.7l-4.3.4 4.8 2.3c2.7 1.2 4.7 2.5 4.4 2.7-.6.6-13.7-5.8-13.7-6.7 0-.3 2.5-.4 5.5-.1 6.6.5 7-.5 1.6-4.2-2.2-1.5-4.8-3.7-5.8-4.8-1-1.2 1.5.2 5.5 3.1l7.3 5.2 8.4-4.3c4.6-2.3 8.2-4.5 7.9-4.8-.7-.6-29.4-2.6-31.7-2.2-1.5.3-1.5.6-.1 3.4.8 1.6 1.3 3.2 1.1 3.5-.3.2-.8-.5-1.2-1.8-.5-1.5-1-1.8-1.5-1-.4.8-1 0-1.4-2-.6-3.4.2-5.7 9.1-23.4 5.1-10.2 10.8-23.4 17.8-41l4.7-12-.5-10c-.3-5.5-1.4-16.1-2.6-23.5-1.8-11.8-2-15.5-1.2-29l.8-15.5.2 15.8c0 8.7.4 15.6.9 15.4.4-.3.8.6.8 1.9.1 1.3-.2 2.4-.6 2.4-.9 0-.3 6.2.7 9 .4.8.5 2.4.4 3.4-.3 2.3 1.9 10.5 2.9 11.1.5.3.2-1.5-.6-4-.7-2.5-.9-4.5-.5-4.5.5 0 1.1.9 1.4 2 .5 2 2.7 2.9 2.7 1.1 0-.5-.9-3.1-2-5.7-2.3-5.3-2-7.2.4-2.5.9 1.7 2.2 3 2.9 2.8.6-.1 1.3.5 1.3 1.3.1.8.2 2.2.3 3 .1 1 .4 1.1.9.4.4-.6 1.7-1.4 3-1.8 2.7-.9 2.8-2.5.1-7.7-1.1-2.3-1.8-4.3-1.6-4.6.3-.2 1.6 2 3 4.9l2.5 5.3.8-3 .9-3 .5 4c.5 3.8.7 4 4.9 4.7 2.5.4 4.8 1.3 5.3 2 .4.7.8.8.8.3 0-.6.9.3 2 2 1.3 1.9 2 2.4 2 1.4 0-.9-.7-2.2-1.5-2.9s-1.5-1.7-1.5-2.3-1.8-4.7-4-9.2c-4.8-9.5-4.1-8.6 4.7 5.9l6.6 10.9 2.4-4.4c1.3-2.4 2.1-3.5 1.8-2.4-1.6 4.7-1.7 8.1-.3 9.2 1.5 1.3 14.9 4.3 15.9 3.7.3-.2-.2-4.5-1.3-9.5-1-5-1.7-9.6-1.6-10.1.2-.5 1.4 3.6 2.6 9.2l2.3 10.1 10.7-5.7c5.9-3.1 11.4-6.2 12.2-6.9.8-.6 2.3-1.5 3.3-1.8.9-.4 1.7-1.1 1.7-1.6 0-1.3-33.2-21.1-35.3-21.1-.3 0 .2 3 .9 6.7.8 3.7 1.3 7.1 1.1 7.7s-.9-1.9-1.6-5.4c-1.1-5.7-4.2-11.9-6.2-12.8-.4-.2-7.8-5-16.5-10.8-15.1-10-17.4-11.3-17.4-9.7 0 1.3 7 21.7 7.9 23.2.7 1.1 2.8 1.1 13 .1 6.7-.7 12.4-1 12.7-.8.2.3-4.9 1.1-11.3 1.8-6.5.7-12.3 1.6-12.9 2.1-1.4 1.1-4.6 0-3.8-1.2.7-1.2-6.5-23.9-7.6-23.9s-4.3 14.5-4.4 19.7c-.1 3.2-.4 3.9-1.3 3.1-1.5-1.2-1.7-5.4-.4-6.2.4-.3 1.1-2 1.5-3.8 1.4-7.5 2.5-12.4 3.2-14.3.7-1.8.6-1.9-1.1-.5-1.8 1.4-1.8 1.4-.3-1 1.9-3 3.5-19 1.9-19-.6 0-1.2 1.2-1.2 2.7-.1 1.8-.3 2.1-.6 1-.2-.9.1-3.4.8-5.4.9-2.8.9-3.8 0-4.1-.7-.2-.4-1 .8-2 1.2-1.1 2.7-5 3.9-10.2 1.1-4.7 2.1-7.7 2.1-6.6.1 1-.6 4.4-1.4 7.7-.8 3.2-1.5 6.2-1.4 6.6s-.1 1.5-.4 2.3c-.8 2-1.4 19.1-.6 18.2.4-.4 2.3-5.7 4.4-11.7 3.6-10.5 3.8-11.7 4.2-27 .3-8.8.2-15.7-.1-15.4s-1 2.3-1.5 4.5c-.6 2.8-.9 3.2-1 1.4-.1-1.4.3-4 .8-5.8 1.3-4.2.6-4.1-1.9.5-2.7 4.9-1.6.7 1.6-6.4 1.3-2.8 2.4-5.5 2.4-6s1.2-2.6 2.6-4.7c2.4-3.4 13.1-22.9 17.5-31.7 1.8-3.6 4.6-6.6 5.4-5.7.3.2-.3 1.3-1.3 2.4-2.3 2.6-9.1 14.2-13.6 23.4-2.1 4.1-4.8 8.9-6.2 10.7-1.7 2.2-2 3.3-1.2 3.3 2.2 0 43.3-25.9 43.3-27.3 0-.6.9-1.4 2-1.8 1.4-.3 1.9-1.2 1.8-3-.2-1.9-.1-2 .5-.6.6 1.5 1.9.5 7.6-6 3.8-4.3 10.4-11.5 14.6-16 4.3-4.4 8.4-9.1 9.2-10.2 1.1-1.6 3.5-2.5 8.9-3.5 9.4-1.7 12.9-1.7 6.4-.1m687.1 14.3c.2.7 1.2 3.4 2.5 6 3.9 8.3 13.1 29.5 16 36.7 1.5 3.8 3.9 9.9 5.4 13.3 1.5 3.5 2.5 6.6 2.3 6.8-.5.4-4.3-8.3-12.8-29.2-3.2-7.7-6.5-15.4-7.4-17l-1.7-2.9.7 3.5c.4 1.9 2 7.5 3.6 12.5 2.5 8 13.6 49.3 15.2 57 1.4 6.6-1.2-.5-3.7-10-4.2-16.2-10.4-38.5-12.7-46-1.1-3.9-3.2-10.6-4.4-15.1-1.3-4.5-3-9.4-3.9-10.9l-1.4-2.8-2.4 6.6c-1.3 3.6-2.5 6.4-2.7 6.3-.1-.2.7-3.8 2-7.9 1.2-4.2 2-7.9 1.7-8.1-.6-.7-8-1.5-18.7-2.3-5.1-.3-9.5-1-9.8-1.4-.7-1.2 3.3-1.1 15.1.5 5.5.7 10.5 1.1 11.1.9.7-.2 1-1.4.7-2.6-.4-1.8.1-1.5 2.3 1.2 1.6 1.9 2.9 4.1 3 4.9m-248.8 150c.2.7-.2 1-1 .7-.9-.4-1.9.4-2.5 1.7-1 2.1-2.9 4.5-10 12.7-1.2 1.4-2.3 2-2.3 1.4 0-.7 1.8-3.2 4.1-5.5 4.5-4.8 7.3-9.4 6.1-10.2-.4-.2-2.7.4-5 1.4-2.3 1.1-4.2 1.7-4.2 1.5 0-.3-1.1.5-2.5 1.7s-2.5 3.2-2.5 4.4-.5 2.4-1.2 2.6c-1 .4-1 1.3-.1 4.2.7 2.1.9 3.5.6 3.2-.9-.8-3.5 4.5-2.9 6 .2.6-1.1 2-3 3-3.4 1.9-3.8 2.4-3.5 5.6.2 2 0 2.1-2.3 1.2-1.1-.4-1.3-1.1-.6-2.3.5-1 1.1-4.2 1.3-7.2.9-9.6 2.4-13.4 7.4-18.3 2.5-2.5 5.2-4.6 6-4.6.7 0 1.2-.6 1.1-1.2-.2-.8 1.8-1.5 6-1.9 3.4-.3 6.5-.9 6.9-1.3 1-1 3.6-.3 4.1 1.2m-2.8 68.4c-1.5 11-3.9 18.8-5.9 19.6-2.6 1-11.4 6.4-13.8 8.5-1.2 1-1.9 2.5-1.6 3.3s.1 2-.5 2.7c-.6.6-1.2 2.3-1.4 3.6-.5 4.1-2.4 3.5-2.1-.6l.3-3.8-1.3 3.3c-.7 1.8-1.6 3-2 2.5-.5-.4-.5 0-.2.8.3.9 1.7 1.6 3 1.5 2.8-.1 3.3 1.5 1 2.9-1.1.7-1.8.6-2.5-.5-.5-.8-1-1.2-1-.8 0 .3-2.5-.9-5.6-2.7-6.3-3.8-8.3-3.6-8.5.9-.1 2.3-.3 2.6-.6.8-.8-4.3 4.1-16.3 8.2-20.2 1.4-1.3 2.5-3.1 2.5-4.1 0-2.2 1.6-3.3 2.5-1.9.4.6 0 2.2-.9 3.5-2.3 3.5-2 4.5 1.3 4.5 1.7 0 3.3.5 3.7 1.1 1.1 1.8 7.2.3 13-3.3 5.3-3.2 6.6-4.7 4.2-4.9-.7 0-2.9-.1-4.8-.3-1.9-.1-3.8.2-4.1.7-.4.5-1 .4-1.3-.2-.4-.6-.4-1.1.1-1.1.4 0 .8-2.1.8-4.6s.3-4.8.7-5c.3-.2.4-2.1.1-4-.6-3.5-.5-3.6 1.6-2.5 1.1.7 2.1.8 2.1.4s1.2-2.2 2.6-3.8c1.7-2.1 2.2-2.3 1.4-.8-.8 1.7-.8 4.5-.1 7 .1.2 0 .5-.1.8-.2.2.7 1.2 2 2 1.2.9 2.2 2.3 2.2 3.1 0 2.9 1.8.4 2.4-3.3 2.8-15.9 4.6-19.4 2.6-5.1m-545.4 98.5c-.7 23.3-.1 23.8 4 3.4 1.4-6.9 2.7-12.7 2.8-12.9.2-.1.6 3.7 1 8.5 1.1 13.2 1.1 13.4 4.5 20.1 1.7 3.4 2.9 6.2 2.6 6.2-.2 0-2.1-3.1-4-7-2.6-5.2-3.5-8.2-3.5-11.9 0-2.7-.4-5.3-1-5.6-.6-.4-1 .5-1 2 0 1.4-1.1 6.6-2.5 11.5s-2.5 9.3-2.5 9.7c.1.4 1.4-1.7 3-4.7 3.8-7.1 3.8-5.7.1 2-2.5 5.4-2.7 6.2-1.2 7 1.3.8 1.1.9-.9.9-1.8 0-3.6-1.4-6.5-5-5.7-7.1-6.5-8-7.6-7.4-.5.4-.9.3-.9-.2 0-1.4 2.8-10.1 4-12.2.5-1.1 1.3-5 1.6-8.6.5-5.5.3-6.9-1.2-8.6-.9-1-2.4-1.7-3.3-1.5-.9.3-2.9-.1-4.6-.9l-3-1.4 3 .6c1.7.4 3.8.6 4.7.5 1 0 2 .4 2.3.9.4.5 1.1.7 1.6.3.5-.3.8-.2.7.3-.1.4.3 1.8 1 3.1.7 1.2 1 2.7.7 3.2-.3.6-.2 1 .4 1 .5 0 1.3-1.5 1.7-3.3.4-1.7.9-2.6 1.1-1.9.3.6-.9 5.1-2.6 10-1.6 4.8-3.4 10.6-3.9 13-.9 4-.8 4.4 3 9.2 2.2 2.8 4.2 4.9 4.5 4.7.8-.8.7-41.3-.1-42.6-.7-1.1.7-3 2.2-3.1.2 0 .1 9.3-.2 20.7m239.7-2.6c-.3 1.7-.6 4-.7 5.2 0 1.2-.5 2.5-.9 2.8-.5.3-1.7 3.7-2.8 7.5-1 3.8-3.5 12.3-5.4 18.9-4.2 14.4-4.4 16.9-1.2 15.9l2.2-.7-2 2.4c-1.1 1.3-2 2.5-2 2.5 0 .1-1.1.5-2.5.8-1.4.4-2 .4-1.3-.1.9-.6.6-1.8-1-4.5-3.5-5.7-11.1-14.8-12.4-14.8-.6 0-1.4-.8-1.7-1.8-1.2-3.5-19.1-16.2-23-16.2-.9 0-1.9-.8-2.2-1.8-1.3-3.7-3.6-8.9-6-13.5-1.4-2.7-2.4-5-2.2-5.2.2-.3 2.2 3 4.4 7.2s4.5 7.8 5.2 8.1c.6.2 2.1-1.7 3.2-4.2 1.2-2.5 2.9-5.1 3.7-5.8 1.3-1.1 1.3-.7-.2 2.2-1 1.9-2.6 4.7-3.7 6.2-1.9 2.8-1.9 2.8.5 5 2.1 2 6.5 5 17.8 12.1l2.9 1.9 1.1-2.9c.6-1.5 1.3-2.3 1.6-1.6.2.7 0 2.1-.6 3.1-.8 1.6-.3 3 2.8 7.3 2.1 3 5.3 7.1 7.2 9.1l3.5 3.7 3.8-12.2c5-16.1 9.6-33.4 9.9-37.3.1-2 .6-3 1.4-2.7s1 1.6.6 3.4m460.3 14.2c-17.2 14.7-20.6 18-20.6 19.8 0 1 .4 1.9 1 1.9.5 0 1.7.8 2.7 1.8 8.7 8.6 23.4 21.2 24.3 20.7 1.3-.8 1.3 2.5 0 4.5-.8 1.2-1 1.1-1-.7 0-1.4-2.2-4-6.2-7.5-3.5-2.9-9.2-8.1-12.9-11.6-3.6-3.4-7-6.2-7.6-6.2s-1.6-.7-2.3-1.5c-1-1.2-5.9-1.5-29.4-1.8l-28.1-.2 28.8-.3 28.7-.2v-6.7c0-3.6.3-6.3.7-5.9.4.3.6 2.9.4 5.7-.3 6.4-1.4 7 16.3-8.8 4.5-4 8.6-7.2 9.1-7.2.6 0-1.2 1.9-3.9 4.2m85.8 19.4c-1.5 2.1-4.5 6-6.6 8.6-2.1 2.7-3.8 5.3-3.8 5.9s2.8.8 7.3.5c3.9-.2 5.5-.2 3.5 0-5.8.6-4.5 2 2.5 2.7 17 1.7 28.2 1.7 31.2.2 2.9-1.5 3-1.5 3.3.5.2 1.1-.2 2.7-.9 3.5-1 1.3-1 1.7.1 2.4 1.6 1 2.5 11.8 1.2 13.9-.8 1.1-2 1-6.7-.8-3.2-1.2-6.5-1.9-7.2-1.7-1 .4-1.3.1-.8-1.4.8-2.4-1.3-9.6-3.2-11.2-1.1-.9-2.2-.4-5 2.4-1.9 2-3.3 4-2.9 4.6.3.6 2.4 1.3 4.6 1.7s4.3 1.1 4.6 1.7c.7 1.1.2 1-8.7-.7-3.5-.7-3.6-.6-3.2 1.8.3 1.4 0 3.3-.6 4.4-.9 1.5-1.1 1.1-.6-2 .6-4.7.3-4.6-11.7 5.1-4.7 3.9-8.9 6.8-9.2 6.5-.9-.9.5-3.2 1.7-2.8.7.3 3.1-1.2 5.3-3.3 2.3-2 6.2-5.3 8.8-7.2 4.1-3.1 5.9-6 3.8-6-.4 0-4.7-2.7-9.6-5.9-4.9-3.3-9.5-5.7-10.2-5.4-.9.3-1.2-.7-1.2-3.9.1-2.3.3-3.5.6-2.6.2 1 .7 1.8 1.1 1.8s3.8-3.8 7.5-8.5c3.6-4.7 6.9-8.5 7.2-8.5.4 0-.6 1.7-2.2 3.7m-593 47.6c.7.7 2.5 3.2 4.1 5.7 3.1 4.9 6.3 7.9 8.5 8 1.2 0 1.1.4-.4 1.5-2.1 1.6-2.1 1.7 1.2 3.5 1.3.6 6.1 4.1 10.7 7.6s8.6 6.4 8.9 6.4c.8 0 7.9 4.7 9.8 6.6.9.9 2.2 1.3 2.9.8.8-.4 1-.3.5.4-.4.7-.1 1.2.6 1.3.7 0 2.2.3 3.3.5s15.6.7 32.3 1.1c27.6.5 30.2.4 30.2-1.1 0-.9.3-1.7.8-1.7 3.2-.6 5.1-.5 4.6.2-.2.4-1.2.6-2.2.3-1.5-.5-1.5-.4-.1.5 1.7 1.1 7.6-.7 18.4-5.9 3.3-1.5 10.1-4.5 15-6.5 5-2.1 11.1-4.8 13.7-6.1s5.1-2.4 5.5-2.4c1.8 0-6.8 4.6-15.2 8-4.9 2.1-11.7 5-15 6.6-3.3 1.5-9.4 4.2-13.5 5.9-4.8 2-7.9 3.9-8.6 5.4-1 1.8-1.2 2-1.8.6-.4-1.2-.9-1.3-1.8-.6-3.8 3.1-8 6.2-13.8 10.1-3.6 2.4-10 7-14.3 10.2-8.1 6.1-9.3 6.6-9.9 4.5-.3-1.2-4.6-5.3-18.4-17.3-3.3-2.8-9.4-8.3-13.6-12.1s-8.9-7.5-10.5-8.3c-1.5-.8-5.4-3.5-8.7-6-3.2-2.5-6.9-5.3-8.2-6.3-2.3-1.8-2.4-1.8-2.4.2 0 1.1 1.6 4.7 3.5 8 1.9 3.2 3.5 6.5 3.5 7.3 0 .7-2-2.4-4.5-6.9-2.5-4.6-4.5-9.2-4.5-10.3s-.7-2-1.5-2-1.5-.7-1.5-1.6c0-1.6-6.4-12.7-8.7-15.2-2.2-2.3-1.2-3.2 1.1-.9M1203.5 675c.3 1.1 1.5 2 2.6 2 2 0 4.4 4.3 3.6 6.4-.3.6-.9-.5-1.5-2.4-.6-2.1-1.1-2.7-1.1-1.5-.1 1.1.6 4.1 1.6 6.7l1.6 4.6 1.7-3.1c1-1.8 2.6-5.8 3.6-9 1.3-4.1 2.3-5.7 3.6-5.7 1.6 0 1.4.9-1.6 9.2-1.8 5.1-3.6 10.9-4 12.9-.6 3.1-.9 3.6-3 3.2-1.9-.4-2.9-1.8-4.6-6.6-1.2-3.4-3.3-9-4.6-12.5-2.2-5.9-2.2-6.2-.4-6.2 1 0 2.2.9 2.5 2m24.3 5.8c3.1-1.1 8.5.8 13.4 5 1.2.9 1.9.6 3.6-1.7 3.1-4.3 7.2-4.8 13-1.8 2.6 1.4 4.6 3.1 4.4 3.7-.1.6.2.9.7.5.6-.3 1.5.3 2 1.4 1.5 2.7 1.4 3.8-.1 1.8-1.6-2-3-1.1-4.4 2.8-.6 1.6-1.6 2.9-2.2 2.8-.7-.2-1.1.1-.9.6.1.5-.9 1.9-2.3 3.1l-2.5 2.2 3-.7c1.7-.4 3.6-.8 4.3-1.1.7-.2 1 .1.7.6-.3.6-.2 1 .3 1 1.1 0 3.7-2.9 4.5-5 .5-1.3.5-1.3.6 0 .1 3.1-6.1 8.1-7.4 6-.3-.5-1.4-1-2.3-1-1.5 0-1.5.2-.2 1 .8.5 1.1 1 .7 1-1.5 0-5.1-2.2-9.7-6-3.8-3-5-3.5-7.5-2.9-1.6.4-2.5.7-2 .8.6.1-.3 1-2 2.1-2.4 1.5-2.6 2-1.3 2.5.9.4 2.7.1 4-.6 2.1-1.1 2.2-1.1.9.4-.7 1-.9 1.7-.3 1.7 1.4 0 3.3-2.5 2.5-3.3-.3-.4-.1-.7.5-.7 1.7 0 1.5 1.5-.5 3.1-1.1.9-3.7 1.4-6.4 1.4-3.7-.1-5.6-.9-8.8-3.4-2.3-1.8-4.1-3.9-4.1-4.7s-.7-1.4-1.5-1.4c-1.6 0-1.5-.2 2.1-9 1.1-2.5 2-3.7 2.2-2.8.2 1.3.8 1.4 3 .6"/><path d="m504 78.7-30.5 30.5 9.4-.5c7.5-.5 9.6-.9 10.6-2.4.7-1 2.7-2 4.5-2.1s3.9-.9 4.7-1.7c2-2 3.3-1 3.3 2.6v2.9l12.3-.1c6.7-.1 16.8-.4 22.5-.8 8.8-.5 10.6-.9 11.8-2.6.9-1.2 1.3-3 .9-4.5-.3-1.4-.7-3.5-1-4.7-.9-3.9-11.3-34.6-13.8-40.8-1.4-3.2-2.9-6-3.3-6.2-.5-.1-14.6 13.6-31.4 30.4M603.7 84.3c-25.9 13.4-41.6 22.4-39.5 22.8.2 0 4.1.2 8.8.5s14.7.9 22.3 1.5c7.6.5 14.2.7 14.8.4.5-.4.9-1.4.9-2.4s.7-2.4 1.5-3.1 1.7-2.8 2-4.9c.5-3.4 3.8-15 5.6-19.9 1.4-3.5-.9-2.8-16.4 5.1M611.2 124.2c-.7 5.7-1.2 13.5-1.2 17.3 0 6 .3 7.1 1.8 7.2.9 0 3.9.3 6.7.6 3.7.4 5.9 0 8.9-1.5 2.1-1.1 8-3.5 13-5.4 13.2-5 20.6-8.4 20.6-9.4 0-.8-9.6-5-11.4-5-1.3 0-11.3-3.9-18.7-7.3-6-2.8-16.2-6.7-17.4-6.7-.6 0-1.6 4.1-2.3 10.2M643 144.5c-8.8 3.9-16.3 7.5-16.7 8-.5.4 0 .5 1 .2.9-.4 1.7-.2 1.7.3s-.9 1.2-2 1.5c-1.4.5-2 1.4-1.8 2.8.2 1.8-.3 2.3-3 2.7-4.1.6-7.1 5.3-4.8 7.6 1.7 1.6 17.8 11.6 18.1 11.2.1-.2 1.7-2.6 3.5-5.3 1.9-2.8 3.7-5.2 4.2-5.3.4-.2.8-.9.8-1.6s1.5-3 3.3-5.2c1.9-2.1 5.5-8 8.1-12.9 2.6-5 5.4-9.5 6.3-10.2 3.9-3-3.7-.5-18.7 6.2M661.8 141.6c-.3.5-2.5 4.5-4.9 8.9s-5.8 10-7.6 12.5c-13.7 18.7-13 17-8.6 21.6 4 4.1 20.3 15.4 22.2 15.4 1.1 0 1.9-30.1 1.4-47.6-.3-7.1-1.5-12.5-2.5-10.8M608 168.1c0 1.1 1.5 6.6 3.4 12.2 1.8 5.6 3.6 11.5 4 13.2 1.4 6.1 4.9 14.6 5.7 13.8 1.4-1.4 11.9-23.3 11.1-23.3-.4 0 0-.4.8-1 1.2-.7.9-1.3-1.4-3.2-1.6-1.3-4.7-3.4-7-4.8-2.4-1.4-6.7-4-9.7-5.7-6.4-3.9-6.9-4-6.9-1.2M605 177.2c0 .9-.4 1.8-.9 2-1.1.4-3.8 37.4-2.8 38.4.4.4 1.3.2 2-.5.8-.6 3.7-1.8 6.5-2.6 7.5-2.3 7.9-3.2 5.5-12.3-3.8-14.5-10.3-30.2-10.3-25M630.6 193.4c-7 14.4-7.9 16.6-6.4 16.1.7-.3 6-1.2 11.8-2 17.4-2.5 25.4-4.1 25.6-5.1.2-.5-2.9-2.9-6.9-5.4s-9.4-6.3-12.2-8.5c-2.7-2.3-5.4-4.4-6-4.7-.5-.3-3.2 4-5.9 9.6M495.9 200c-2.5.9-6.7 3.1-9.2 4.8-2.5 1.8-5 3.2-5.6 3.2s-1.1.3-1.1.8c0 .4-1.8 1.8-4 3.2s-4 2.8-4 3.2-.9 1-2 1.3c-1.1.4-1.8 1.1-1.5 1.6.7 1.1 58.1 1.1 60.9 0 1.8-.7 1.6-1-1.6-2.7-2-1-7.4-4.4-11.9-7.5-15.2-10.1-14.7-9.9-20-7.9M660.9 205.4c-.3.3-23.1 4-32.2 5.1-6.6.9-6.2 2.3 2.1 8.1 9.2 6.5 18.6 13.7 19 14.6 1.1 2.5 3.2.1 4.7-5 1.8-6.6 6.5-19.2 7.7-20.9.8-1-.4-2.7-1.3-1.9"/><path d="M661.6 212.2c-1.7 3.9-2.9 7.4-4.1 11.8-.3.8-1 3.3-1.6 5.5-1.3 4.6-1.5 8-.4 11.5.6 2.1.3 1.9-1.4-.8-1.2-1.8-2.6-3-3.1-2.7-1.5.9-13.6 5.3-24.5 8.9-5.4 1.8-10.1 3.8-10.3 4.5-.2.6.1 1.1.7 1.1.5 0 2.1 1.1 3.4 2.4s3.9 3.2 5.8 4.1c1.9 1 4.5 2.8 5.9 4 1.4 1.3 5.7 4.2 9.5 6.4 3.9 2.3 7.7 4.6 8.5 5.1s3.3 1.9 5.5 3c4.6 2.4 13.5 9.9 11.9 10-.6 0-2.1-.9-3.4-2s-5.3-3.6-8.9-5.7c-3.6-2-10.4-6.2-15.1-9.3-8.7-5.8-19.3-12-20.4-12-1.3 0-.5 1.6 2.5 5 1.6 1.9 4.2 5.5 5.6 8 4.2 7.3 10.6 17.2 12.1 18.7 1.1 1.1 4 1.2 14.6.7 13.5-.7 16.6-1.4 16.6-3.9 0-.8.4-1.5 1-1.5s.6-.9.1-2.3c-.4-1.2-.8-6.5-.9-11.7s-.4-10.1-.7-11c-.2-.8-.6-3.8-.9-6.5-3.1-30.3-3.7-36.5-4.1-39.5-.2-1.9-.4-4.1-.5-4.8 0-2.4-1.6-1.1-3.4 3"/><path d="M620.7 215.6c-1.2 3.6-5.7 27.1-5.7 29.3 0 3.1 2.8 2.7 18.6-2.4 13.6-4.5 16.8-6 15.9-7.5-.5-.9-13.2-10-21.5-15.5-2.5-1.6-5-3.6-5.6-4.4-1-1.3-1.2-1.2-1.7.5M449.5 222.1c-1.6.5-5.5 1.1-8.5 1.4-5.3.5-9 .9-18.5 2.1-2.5.3-4.5 1-4.5 1.7 0 1.5 6.5 12.3 19.6 32.2 6.1 9.3 11.4 17.8 11.7 18.7.6 1.7 2.9 2.6 2.5 1-.1-.4.4-1.9 1-3.4s1.6-7.5 2.3-13.5c1.4-13.1 4.6-36 5.5-39.1.6-2 .3-2.2-3.7-2.1-2.4 0-5.7.5-7.4 1M465 223.2c0 2.6 6.1 18.1 12.1 30.5 2.1 4.6 3.9 8.5 3.9 8.8 0 .2 1.8 4.2 4 8.9 2.2 4.6 4 8.6 4 8.9 0 .2 2.2 5.1 5 10.8l4.9 10.4 1.7-4c.9-2.2 3.4-7.5 5.5-11.8 2.2-4.3 5-10.4 6.3-13.5s6.2-14.5 10.9-25.4c4.6-10.8 8.7-21 9-22.7l.7-3.1h-68zM538.6 221.9c-.4.6-.3 1.1.2 1.1.6 0 .7 1.4.1 3.7-.5 2.5-.4 6.9.6 12.8.7 4.9 1.9 14.4 2.6 20.9.6 6.6 1.5 13.1 1.9 14.5.7 2.5.8 2.5 6.6-3.9 3.2-3.6 9-9.7 12.9-13.5 11-11 29.6-32.6 29-33.6-.4-.5.4-.9 1.6-.9s2-.2 1.8-.4c-.2-.3-13.1-.8-28.5-1.2-20.6-.5-28.3-.4-28.8.5M461 227.7c0 1.5-.9 8.9-2 16.3-1 7.4-2.2 16.2-2.5 19.5s-.9 7.6-1.5 9.5c-2.3 8-2.4 8 13.3 15.5 13.7 6.6 25.2 11.5 26.9 11.5 1.6 0 .7-1.9-1.2-2.5-1.4-.4-2-1.5-2-3.6 0-1.6-.4-2.9-.9-2.9s-1.1-1.4-1.5-3.1c-.3-1.7-2.8-7.8-5.6-13.5-2.7-5.7-5-10.6-5-10.9s-2.5-5.8-5.6-12.2c-3.1-6.3-6.7-14.7-7.9-18.6-2.4-7.5-4.5-9.8-4.5-5M530.4 234.6c-2 4.4-5.6 12.7-8 18.5s-6.4 15.1-9 20.5c-5.3 11.5-11.6 26.6-11.1 27 .2.3 31.7-15.2 37.4-18.4 1.3-.7 2.3-1.8 2.3-2.5s-1.2-10.2-2.5-21.2c-2.6-20.8-4.1-30.4-4.9-31.2-.3-.3-2.1 3-4.2 7.3M414.2 232.2c-.6.8-2.3 4-3.7 7.1-1.4 3.2-3.7 7.6-5.2 9.8l-2.7 4.1 2.7 2.4c3.2 2.7 14.4 9.4 15.8 9.4 1.1 0 .7-3.1-2.3-16.5-1.2-5-2.3-10.4-2.5-12-.4-2.9-.3-2.9 1.1-1.1.9 1.1 1.6 2.9 1.6 4 0 1.2 1.2 6.4 2.5 11.5 1.4 5.2 2.5 10.7 2.5 12.1 0 2.9 1.7 4.7 6.5 7 1.7.8 5.7 3 8.9 4.8s6.3 3.1 6.7 3c.4-.2-3.6-7-8.9-15.1s-11.9-18.3-14.7-22.7c-2.7-4.3-5.2-7.7-5.6-7.4-.4.2-.9-.1-1.1-.7-.2-.7-.8-.6-1.6.3M614.2 260.3c-1.4 3.8-1.6 8.1-.4 7.3.5-.3.9.1.9.9s-.5 1.1-1 .8c-.6-.4-.8.1-.4 1.1s1 3.5 1.3 5.7c.4 2.1 1 3.6 1.5 3.3s.9.2.9 1c0 .9-.8 1.6-1.7 1.7-1.7 0 10.1 4.7 17.5 7 4.2 1.3 4.7.8 2.4-2.2-4.2-5.4-9-12.6-10.6-16-.9-2-2.5-4.5-3.4-5.5-1-1.1-2.7-3.4-3.8-5.1l-2-3.3zM424.5 273.7c.2 2.1.7 7.4 1 11.7.3 4.4.8 8.2 1.1 8.5.8.8 21.6-10.2 21.6-11.4 0-1-17.8-10.7-22-12-2.1-.6-2.2-.4-1.7 3.2M417 273.6c-10 6.7-17 11.8-17 12.4 0 .7 11 5.8 13.7 6.4 1 .1 2.5.6 3.3.9.8.4 2.6.8 4 .9 2.3.3 2.5 0 2.6-3.7.1-5.6-1.4-17.8-2.3-18.6-.5-.3-2.4.4-4.3 1.7M528.5 289.2c-6.6 3.4-15.4 7.8-19.5 9.8-7.8 4-9.2 5.4-6.3 6.3 1 .3 6.8 2.6 12.8 5.2 11.2 4.7 18.8 7.6 19.1 7.2.1-.1.9-3.4 1.7-7.2l1.5-7-.2 8.2c0 5.3-.5 8.3-1.2 8.3-.6 0-2.5 1.8-4.3 4.1-1.8 2.2-3.6 3.8-3.9 3.5-.3-.4.7-1.9 2.1-3.4 3.6-3.7 3.4-4.8-1-6.3-2.1-.6-6.5-2.4-9.8-3.9s-8.8-3.9-12.2-5.4l-6.3-2.5v2.2c0 1.2.6 3.2 1.4 4.3s2.2 4.1 3.1 6.5c2.7 7 8.1 19.3 9.2 20.8.2.3 3-2.4 6.3-5.9 3.3-3.6 6-6.1 6-5.7s-1.6 2.6-3.7 4.7c-5.5 6-7.8 10.1-6.1 11.1.7.5 1.6.9 1.9.9s1.9 1.1 3.5 2.5c5.6 4.9 6.5 5.2 8.9 2.5 1.9-2.1 4.5-2.7 4.5-1 0 .5 1 1 2.3 1 2.4 0 4.4-2.6 5.8-7.2.7-2.5.5-2.8-1.7-2.8-1.4 0-4.2.9-6.2 1.9-2.1 1.1-5.6 2.2-7.7 2.5l-4 .6 4.2-1.4c4.6-1.5 12-5.6 17.1-9.4 3.2-2.4 9.2-10.4 9.2-12.3 0-.5-1.9-1-4.2-1-2.4-.1-5.6-.5-7.3-.9-2.4-.6-1.8-.8 3.1-.9 7.6-.1 12.5-1.1 11.8-2.2-.3-.5.6-1.3 1.9-1.8 1.4-.6 2.8-1.4 3.1-2 .3-.5 1.9-1.2 3.5-1.6 2.2-.5 3.3-1.6 4.5-4.6 1.5-3.6 2.2-9.9 1.2-9.9s-12.2 6.4-13.1 7.5c-1.1 1.3-8.4 5.9-15.7 9.9-8.1 4.4-5.3 1.4 3.5-3.7 4.5-2.7 12-7.3 16.6-10.3 6.7-4.3 8-5.5 6.5-6-1-.3-7-3.1-13.3-6-6.2-3-12.5-5.4-14-5.4-1.4.1-8 2.8-14.6 6.2M439.1 290.1c-6.3 3.3-11.6 6.1-11.8 6.3s2.2 1.8 5.4 3.6c8 4.6 27.4 15 27.8 15 .1 0 .5-.6.8-1.4 1-2.6-1.5-9.6-9.1-25.8l-1.7-3.6zM453 284.2c0 1.1 4.7 12.4 8.4 20 2.4 5.1 4.7 10.3 5 11.5.9 3 2.3 2.9 10.3-.7 9-4.1 9-3.2 0 1.1-3.9 1.9-7.5 3.8-7.9 4.4-.4.5 1.2 2.5 3.5 4.4 6.6 5.6 12.7 11.8 12.7 13s3 1.5 3.1.3c.2-2.6 1.1-5.3 4-12.3 1.7-4.4 3.4-7.8 3.6-7.5.2.2-.9 4.2-2.5 8.7-1.6 4.6-3.2 10.1-3.6 12.2-.6 3.3-.4 3.8 1.9 4.9 2.1 1 2.9.9 4.3-.6 1.4-1.4 1.8-4.3 2.2-16.4.3-8.1.4-16.2.2-17.9l-.3-3.3-5.9 3c-7.9 4-9 3.8-1.6-.3 3.3-1.8 6.1-3.7 6.3-4.3s-1.3-1.8-3.4-2.7c-2.1-.8-7.6-3.3-12.3-5.5-23.6-11.1-28-13-28-12M603.5 287.3c-5.7 1.3-25.8 7.5-27.2 8.4-.9.7-1.7 6.2-1.4 9.8.1 1.5 4 1.5 8.6 0 2.2-.7 5.2-1.6 6.7-1.9s5.4-3.6 9.2-7.7c3.6-3.9 6.6-6.9 6.6-6.5 0 .3-1.2 2-2.7 3.6-3.1 3.5-8.1 11.6-6.5 10.6.6-.3 1.2-.1 1.4.5.4 1.3 16.8 2.9 16.8 1.6 0-.4.4-.6.9-.3 2.1 1.4 1.7-2.6-1.1-9.6-3.4-8.6-5.2-9.9-11.3-8.5M500.1 326.2c0 10.1.3 15 1.1 15.4 1.1.7 10.9.6 11.6 0 .2-.3-2.4-6.7-5.3-13.1-.8-1.6-2.8-6.2-4.4-10l-3-7zM466.3 326.6c.2 2.1.9 4 1.6 4.2.6.2 1.1 1 1.1 1.8s.7 1.4 1.5 1.4 1.5.4 1.5 1c0 1.8 10.8 11 12.8 11 4.5 0-5.5-13.9-14.4-20.1l-4.5-3z"/><path d="M519.2 350.5c-1 1.2-1.1 2.7-.2 7.3.7 3.1 1.3 6.6 1.5 7.7 1.7 10.3 4.8 26.1 5.5 27.8.8 2.1.9 2.1 1-.3.1-1.4.4-9.2.6-17.4.2-8.1.8-16.4 1.3-18.4 1.1-3.7.6-5.6-1-4.7-.5.4-2.2-.3-3.8-1.4-3.4-2.5-3.2-2.4-4.9-.6M513.9 356c-.2 6.5-1.3 13.1-5.9 38.5-1.1 6-2 12-2 13.2 0 1.3-.4 2.3-.9 2.3s-1.2 2.8-1.5 6.2c-.3 3.5-.9 10.1-1.4 14.8-.4 4.7-.7 8.7-.6 8.9.3.4 11.4-11.4 13.3-14.3.8-1.1 1.7-2.3 2.1-2.6.3-.3 2.5-2.9 4.8-5.9 4.5-5.8 4.9-8.1 3.2-17.1-5.6-29.3-8.7-43-10.1-44.5-.6-.5-.9-.4-1 .5M474.1 371.3c-.6 1.6-1.1 4.6-1.1 6.8 0 3.2-.3 3.9-2 3.9-1.1 0-2-.5-2-1 0-.6-2.1.5-4.6 2.5-2.6 1.9-5.5 3.5-6.5 3.5-1.8 0-3 1-6.4 5.5-1.1 1.4-2.8 3.5-3.8 4.6s-1.5 2.4-1.2 2.9c.3.4 0 1-.5 1.2-1.5.5 2.7 4.8 4.8 4.9.9 0 2.6.2 3.7.5 1.1.2 5.4.7 9.7 1l7.6.7 1.1-3.9c1.2-4.3 2.9-14.6 3.4-20.9.2-2.2.6-4.5.9-5 .3-.6.9-3 1.3-5.5.7-3.9.6-4.3-.8-3.2-1.2 1-1.6 1-2 0-.3-.8-.9-.1-1.6 1.5M651.5 384.2c-1.2 3.2-4.2 17.4-3.9 18 .2.3 2.5 0 5.2-.8 2.6-.8 6.6-1.9 8.9-2.4 2.2-.6 5.1-1.8 6.4-2.8l2.2-1.9-8.1-5.6c-8.3-5.9-9.9-6.6-10.7-4.5M479.6 386.2c-.3 1.3-.1 2.7.4 3.2.6.6.4 1.3-.4 2-.7.6-2.1 4-3 7.6-1 3.6-2.1 8.1-2.6 10-1.9 7-3 20.2-1.9 22.2.6 1.1 1.2 1.8 1.5 1.6.2-.2 1.5-7.1 2.9-15.4 1.4-8.2 3.1-16.4 3.7-18.3 1.8-5.8 2.6-15.1 1.2-15.1-.6 0-1.4 1-1.8 2.2M426.5 408.5c-.5.2-6.5.9-13.2 1.6-12.3 1.3-14.2 2.1-10.8 4.9.8.7 1.5 1.6 1.5 2.1 0 1.1 7.1 12.8 8.1 13.5.5.3 1.5-.1 2.2-.8.6-.8 4.9-5.3 9.5-10.1 4.5-4.7 8.2-9.3 8.2-10.2 0-1.4-2.8-1.9-5.5-1M563.7 408.8c-.9.2-1.4.8-1.1 1.4.4.5-.4.5-1.6-.2-3.3-1.7-30 .2-30 2.1 0 .5.4.9.8.9.5 0 5.4 5.1 11 11.2 13.7 15.3 35 37.3 35.5 36.8s-1.3-16.7-3.2-29.5c-.6-3.9-1.6-10.7-2.2-15.2l-1.2-8.2-3.1.1c-1.7.1-3.9.4-4.9.6M578 409.8c0 1 5.9 6.6 16.3 15.6 4.1 3.5 7.3 5.6 8.2 5.2 1.4-.5 9.5-12.4 10.8-15.8.3-1 .2-2-.3-2.3-.9-.6-27.6-3.5-32.1-3.5-1.6 0-2.9.4-2.9.8M574.2 485.7c-2.9 10.4-5.3 19.1-5.2 19.5 0 1 2.3.1 19.3-8.1 8.1-3.9 14.7-7.4 14.7-7.9 0-1-21.6-22.2-22.6-22.2-.5 0-3.3 8.4-6.2 18.7M566.7 477.8c-7.8 7.8-10.2 11.2-7.9 11.2.4 0 1.3 1.5 2.1 3.2 3.5 8.1 5.4 11.9 6.4 12.5.5.3.7.1.4-.4-.4-.6 0-3 .9-5.4 1.5-4.3 8.4-28.4 8.4-29.4 0-1.6-2.4.4-10.3 8.3M557 492.6c1 1.1 1 1.4.1 1.2-1.2-.3-5.5 9.1-4.6 10 .2.2-.3 1.1-1.1 1.9-.8.9-1.3 2.2-1 3s.2 1.2-.3.9-1.1 1.1-1.5 3.2c-.3 2-.9 5-1.2 6.6-.7 2.9-.7 2.8 6.7-2.2 4.1-2.8 8.4-6 9.7-7.1l2.3-2-4.3-8.5c-2.3-4.7-4.7-8.6-5.1-8.6-.5 0-.4.7.3 1.6M472.1 543.9c-1.8 1.8-2.7 5.3-2.2 8.3 0 .5-.3.8-.9.8-1.9 0-1 1.9 1.3 2.5 1.2.3 6.5 2 11.8 3.7 6.4 2.1 10.2 2.9 11.5 2.3 1-.4 2.2-.7 2.7-.7 1.2.3.8-4.3-.5-5.6-.7-.7-2-1.2-3-1.2-2.1 0-5.1-5.4-4.3-7.8.4-1.5-.2-1.8-3.2-2-2.1-.2-4.7-.5-5.8-.8s-2.8-.8-3.7-1c-.9-.3-2.6.4-3.7 1.5M955.6 130.2c-2.9 14.5-5.5 32.5-4.8 33.2.2.3 1.4.1 2.5-.4 1.2-.5 9.1-2.7 17.6-5s16.7-4.7 18.4-5.3l2.9-1.2-16.3-17.2c-9-9.4-16.7-17.1-17-17.2s-1.8 5.9-3.3 13.1M987.5 155.7c-2.2.8-7.6 2.4-12 3.4-9 2.2-20.1 5.6-21.7 6.5-1.4.9 6.9 4.4 9 3.8 1.4-.5 1.5-.4.2.5-.8.6-1.2 1.1-.7 1.2 1.5.3 2.3.6 7.2 2.9 25 11.4 33.7 15 34.7 14.4.6-.4.8-.3.5.3-.3.5 1.5 1.9 4.2 3l4.7 2-9.9-19.9c-5.5-10.9-10.4-19.8-11.1-19.7-.6 0-2.9.7-5.1 1.6M953.5 176.1c-1.1 1.7 1.1 12.3 2.3 11.5.4-.2.6 1.3.4 3.5-.3 2.4 0 3.9.7 3.9.6 0 1.1 1.1 1.1 2.4 0 1.9.6 2.5 3.1 2.8 3.3.5 6.4-1.5 5.5-3.8-.3-.7-.8-2.9-1.2-4.8-.6-3.3-.4-3.6 1.2-2.9 1.1.4-.9-2.2-4.3-5.8-3.5-3.5-6.3-6.7-6.3-7.2 0-1.1-1.8-.9-2.5.4M1003.5 205.6c-5.4 3.3-8.9 6.1-8.9 7 .2 2 9.3 17 12.3 20.2 2.3 2.5 2.4 2.5 3.1.7.4-1.1 1.2-6.7 1.9-12.5s1.7-12.9 2.1-15.8c.5-3.6.4-5.2-.4-5.1-.6 0-5.1 2.5-10.1 5.5M1019 204.7c0 2.5.9 7.8 6.1 36.8.7 3.8 1.5 7.3 1.9 7.8.7.8 27.2 3.8 27.9 3.2.2-.2-.6-1.7-1.8-3.2s-6.4-8.7-11.4-16c-18.6-26.6-21.9-31.3-22.3-31.3-.2 0-.4 1.2-.4 2.7M1015.5 213.2c-.3 3.5-1 8.7-1.6 11.7-.5 3-.9 7.8-.9 10.6 0 5 0 5.1 5.5 8.8 3 2 5.5 3.5 5.5 3.4 0-.8-3-19.9-4.6-28.7-.9-5.2-1.6-10.1-1.7-10.8 0-.6-.4-1.2-.8-1.2s-1 2.8-1.4 6.2M986.9 216.3c-3.9 1.8-19.9 12.1-19.9 12.8 0 1.1 2.8 1.9 13.5 4 5.5 1.1 11.4 2.4 13.1 3 3.7 1.1 13.4 2.8 13.4 2.2 0-.2-1.8-3.3-4.1-6.8-2.5-4-4.5-6.2-5.2-5.8-.7.3-.9.3-.5-.2.9-1-1.9-6.5-3.3-6.5-.6 0-.8.4-.5.9.6 1-1.6 2.1-4.1 2.1-1.2 0-1-.7.7-3.5 2.4-3.8 1.6-4.4-3.1-2.2M916.9 226.7c.5 1 4.9 10.1 9.7 20.3 8.3 17.7 26.2 54 27 54.9 1 1.1 1.6-1.8 3.5-17.5 2.6-21.8 4.1-52.6 2.5-53.6-.6-.4-2.2-.8-3.6-.8s-7.9-.9-14.5-1.9-15-2.2-18.8-2.5c-6.3-.6-6.7-.5-5.8 1.1M914.7 231.6c-.3 1.6-.9 6.7-1.2 11.4s-1.2 16.8-2 27-1.9 24.6-2.5 32-1.3 16.8-1.6 20.7c-.5 5.8-.4 7.3.7 7.3.8-.1 11.1-4.9 22.9-10.8 20.2-10.1 21.5-10.9 21.3-13.4-.1-1.5-8.5-19.4-18.6-39.9-15.9-32.1-18.5-36.9-19-34.3M966 233.5c0 .7 11.1 21.8 12.3 23.2.5.7 1.3 1 1.8.7s.6.2.2 1.2c-.5 1.3.5 1 4.3-1.1 8.7-4.9 22.3-14.4 22.4-15.8 0-.5-.4-.6-1-.2-.5.3-1.7.1-2.7-.4s-4.5-1.5-7.8-2.1c-3.3-.7-10-2.3-15-3.6-8.4-2.2-14.5-3-14.5-1.9M962.5 237.7c-.3 1.5-.9 9-1.2 16.8-.2 7.7-.9 17.4-1.3 21.5-1.9 16.3-2.3 23.5-1.2 22.5.5-.6 2.7-4.2 4.8-8 15.3-28.3 15.9-30 12.9-32.5-.8-.7-1.5-1.6-1.5-2.1 0-.9-11-20.9-11.5-20.9-.1 0-.6 1.2-1 2.7M1013.4 245.1c.3 1.3 2 8.2 3.7 15.2 1.9 7.8 3.5 12.5 4 12 .9-.9 2.9-15 2.9-20.6 0-1.5-.5-2.7-1.1-2.7s-2.5-1.1-4.2-2.4c-5.5-4-6.1-4.2-5.3-1.5M1001.8 249.3c-4.6 3.2-7.3 5.7-7 6.6s0 1.1-.8.6c-1.3-.8-10 3.3-10 4.6 0 .3 3 1.6 6.8 2.8 6.9 2.3 8 2.7 14.6 5.6 2.1.9 5 2.1 6.5 2.5 1.4.4 3.4 1.1 4.3 1.5 2 .8 1.9 0-1.2-13-2.4-10.2-3.7-13.8-5-13-.5.3-1 .2-1-.4 0-.5.5-1.1 1.2-1.3.8-.3.8-.7.2-1.1-.6-.3-4.4 1.7-8.6 4.6M1027 251.4c0 .9 6.4 12.6 9.6 17.6 3.9 6 16.7 31.7 14.9 29.9-.8-.8-3.6-5.9-6.4-11.5-5.2-10.5-14.7-26.4-13.8-22.9 1.4 4.6 8.5 24.3 9.7 26.6 1.3 2.3 3 3.9 10.1 9.2l3.7 2.7.7-23.6c.4-13.2.4-23.9-.1-24.4s-5.6-1.3-11.4-2c-5.8-.6-12-1.3-13.7-1.7-1.8-.3-3.3-.3-3.3.1M1024.4 265.5c-1.1 5.9-1.7 10.9-1.4 11.3 1.4 1.9 15 12.2 15 11.3 0-.5-1.8-5.8-4.1-11.8-2.2-5.9-4.4-12.2-4.9-13.8-2.2-8.1-2.5-7.9-4.6 3M976.3 270.7c-2 4.3-4.4 9-5.4 10.4-2 2.8-10.9 20.2-10.9 21.2 0 1.2 9.1-2.4 30.5-12.1 28.3-12.8 27.5-12.4 27.5-13.2 0-.4-.8-1-1.7-1.3-1-.3-4.5-1.5-7.8-2.7-11.1-3.9-14.9-3.6-12.5 1 1.4 2.7.4 5.7-2.1 6.5-1.1.4-2.9 1.6-4 2.8-2 2.1-2.1 2.1-3.4.4-1.5-2-1.1-8 .5-8.5.5-.2 1-.9 1-1.5 0-.7 1.4-1.8 3-2.6 1.7-.7 2.9-1.8 2.8-2.3-.4-1-11.2-5.8-13-5.8-.4 0-2.4 3.5-4.5 7.7M1022.3 280.5c.4 1.1 1.6 6.3 2.7 11.5 1.2 5.2 2.5 9.9 3 10.4 1.2 1.2 3.2-.5 7.4-6.3l3.4-4.8-5.7-4.5c-3.1-2.5-6.9-5.3-8.5-6.4-2.8-1.8-2.9-1.8-2.3.1M1013.5 294.3c-3.6 7.6-6.4 14.2-6 14.5.6.6 17.4-3.4 18.4-4.4.4-.4-.3-3.7-3.8-16.9l-1.8-7zM1017 308.9c-13.1 3.7-12.9 3.6-12.4 6.3l.5 2.3-1.1-2.4-1-2.3-1.8 2.3c-4.1 5.4-10.2 14.5-10.2 15.3 0 .5.6.3 1.3-.3.8-.6 4.1-1.1 7.5-1.2l6.1-.2-.4-5.6c-.3-5.1-.2-5.3.7-2.1 1.3 4.5 2.3 5.7 4.7 5.5 2.9-.2 5.8-3.1 10.6-10.5 3.5-5.5 6-10.3 5.2-9.9-.1.1-4.5 1.3-9.7 2.8M1024.5 313.2c-2.2 3.5-4.5 7.6-5.2 9.2-1.5 3.2-1.7 5.9-.4 3.8.6-1.1 1.8-.8 5.4 1.2 6.4 3.6 6.9 3.4 6.3-2.2-.5-4.6-.5-4.5 1.2 1.5.9 3.4 2 6.4 2.3 6.8.6.6 7.1-11.3 8.3-15.1.6-1.9-.4-2.8-6.1-6.5-3.7-2.4-7-4.5-7.3-4.7-.3-.1-2.3 2.6-4.5 6M956.8 309c-.9.5-1.9 2.7-2.3 4.8-.7 4.6-2.5 7.8-2.5 4.7 0-1.1.4-3.4.9-5.2l.9-3.1-3.6 1.5c-2 .8-12.2 5.8-22.5 11-21.5 10.7-20.8 9.1-7.2 16.1 20.6 10.6 22.3 11.3 23.8 9.8.8-.8 2-4.2 2.7-7.5 1.7-8.2 2.6-7 1 1.4-.7 3.6-1 6.8-.8 7.1.3.2 5.6-.2 11.9-1.1 6.3-.8 11.5-1.5 11.7-1.5s0-.4-.3-1c-.4-.6.1-.7 1.1-.3 1.4.5 1.5.1.9-2.8-.4-1.9-1.3-4.5-2.1-5.9-3.2-6-9.4-19-9-19 .2 0 2 2.9 3.9 6.4 6.3 11.4 8.7 14.7 10 13.9.7-.4 1.4-.8 1.7-.9 5.1-1.2 8-3.7 15.6-13.2 4.6-5.9 8.4-11 8.4-11.4s-.6-.8-1.2-.8c-1.5 0-30.3-2.8-36.8-3.5-2.5-.3-5.2-.1-6.2.5M907.9 335.7c-.5 4.3 1.2 31 2.1 34.2l.8 2.6.1-2.5c.1-1.8.4-2.1 1-1.2.7 1.2 1.2 1.2 3 .1 1.1-.8 2.1-1.7 2.1-2.1 0-.5.6-.8 1.4-.8 2.8 0 14.5-8.1 13.9-9.6-.3-.8 0-1.4.7-1.4.6 0 .8.4.5 1-1 1.7.8 1.1 3.5-1.1 2.4-2 2.4-2 .3-1.4-1.4.4-2.3.2-2.3-.4s1.2-1.1 2.6-1.1h2.7l-2.4-1.9c-2.2-1.7-28.3-15.1-29.4-15.1-.3 0-.5.3-.6.7M1059.3 345.7c-1.6 3.8-4.6 10.6-5.1 11.5-.2.5.5.8 1.6.8 2.6 0 3.6 2.9 2.2 6.6-.6 1.6-1.1 3-1 3.1 5.4 12.7 8.2 18.7 14.9 32.5 4.5 9.3 8.3 16.8 8.5 16.8s-1.2-3.9-3.1-8.8c-1.8-4.8-4.8-12.3-6.4-16.7-2.7-6.9-6.3-15.3-8.9-20.6-.7-1.4-1.5-17.4-1.1-24.7.1-3.9-.1-4-1.6-.5M957.1 350.1c-4.6.4-8.8 1.2-9.4 1.8-1 1 2.9 5.7 20.3 24.1l8 8.5-.5-6.4c-.2-3.6-.9-6.7-1.4-7-.5-.4-1.3-2-1.7-3.6-.4-1.7-.9-3.5-1.3-4-.6-1.1-.9-2.5-1.8-7.8-.4-3-.2-4.1 1.3-5.2 1.8-1.3 1.6-1.4-1.6-1.3-1.9 0-7.3.4-11.9.9M947.4 359c1 4.6 1 5.1 3.7 22.7 1.2 8.4 2.6 15.8 3 16.4.5.9 2.3.3 6.4-2.4 3-2.1 5.4-4.1 5.1-4.5-.3-.5 0-1.4.5-2.2.8-1.3 1-1.3 1.9 0 .8 1.2 1 1 1-1 0-3 2-6.6 2-3.8 0 1 .5 1.8 1 1.8.6 0 1-.2 1-.5 0-1.1-18.2-20.5-19.1-20.5-.6 0-.7.4-.4 1 1 1.6-.1 1.1-1.6-.7-1-1.1-1-1.4-.1-.9 1.9 1.2 1.4-.1-1.9-4.7l-3.2-4.2zM1028.6 390.7c-.9 2.9-1.9 6.6-2.1 8.3-.2 1.6-.9 4.7-1.4 6.7-.6 2-.8 3.9-.5 4.2.9.9 16.4 3.9 16.8 3.2.4-.8-3.8-23.2-4.8-25.7-.8-1.8-.9-1.8-1.7.3-.9 2.5-3.6 2.2-4.1-.5-.2-1-1.2.6-2.2 3.5M979.8 393.3c.2 1.8 1.2 3.8 2.1 4.5s1.5 1.5 1.3 1.7c-.1.3 0 2.7.4 5.4l.6 4.9 9 2.2c4.9 1.2 9.1 2 9.3 1.8.4-.4-13.1-14.5-19.1-20l-4-3.6zM975.6 393.3c.5 1.3.2 1.6-1.2 1.4-1.1-.1-2.5-.7-3.3-1.1-1-.7-1.2-.6-.6.4s.4 1.2-1 .6c-1.3-.4-3.6.5-7.3 3l-5.5 3.6 2.9 1.3c1.7.7 6.8 2.1 11.4 3.3 4.7 1.1 9.3 2.3 10.3 2.7 2.1.9 2.2-.5.2-3.1-1.3-1.6-1.6-1.7-2.5-.4s-1.1 1.3-2 0c-1.3-1.9-1.3-3.7 0-4.5 1.5-.9 1.2-4.8-.5-7.1-1.3-1.6-1.4-1.6-.9-.1M1039.5 436.2c-2.4 7-7.6 27.2-8.9 34.6-1.3 6.8-1.4 10.1-.7 12.5.6 1.7 2.5 8.7 4.3 15.4 3.6 13.3 4 13.4 5.2.7 2.6-28.1 2.7-32.2 1.7-40.9-.6-4.9-.9-12.3-.7-16.3q.6-10.2-.9-6M1070.9 447.5c-.3.2-6.2.5-13.2.6-7 0-12.7.4-12.7.9 0 .9 19.5 10 21.6 10 1.5 0 20.4-10.7 20.4-11.6 0-.5-15.5-.5-16.1.1"/><path d="M1041.7 451.3c-.4 1.2.8 12.6 1.5 13.2.2.2 2.1-.1 4.3-.6s6.7-1.5 10-2.2l6-1.2-8.1-4.2c-10.8-5.6-13.1-6.5-13.7-5M1043.6 476.2c-.3 1.3-.7 6.6-1 11.8s-.9 13.2-1.2 17.7c-.4 4.6-.3 8.3.1 8.3s4.1-2.5 8.1-5.6l7.4-5.6-2-2.6c-1.1-1.3-2-3.1-2-3.9s-.6-2.9-1.4-4.6c-.8-1.8-2.6-6.5-4.2-10.5-1.5-3.9-2.9-7.2-3-7.2-.2 0-.6 1-.8 2.2M350 168.4c-6.3 1.8-14.2 4.2-17.5 5.4-3.3 1.1-12.6 4.2-20.7 6.7-8.2 2.6-14.8 4.9-14.8 5.1 0 .1 1.1 3.3 2.4 7.1 1.3 3.7 3 8.9 3.7 11.6.8 2.8 2.7 6 4.6 7.9 2.9 2.8 3.1 3.3 1.8 4.8-1.3 1.4-1.3 2.2.4 6.9 1 3 2.1 4.7 2.4 4 .3-.8.6.2.7 2.1l.1 3.5 2-2.5c1.1-1.4 7.7-10.4 14.6-20 7-9.6 17.3-23.7 23-31.2 5.6-7.5 10.3-14 10.3-14.3 0-.7-.4-.7-13 2.9M286.3 191.2c-2.3 1.6-6.7 4.3-9.7 6.1-16.3 9.5-28.5 17.3-28.6 18.2 0 .9 11.2 10.7 12.8 11.2.6.2 18-21.4 28.4-35 1-1.2 1.7-1.8 1.8-1.2 0 .5-6.6 9.3-14.7 19.4l-14.6 18.4 2.5 2.1c9.3 7.9 12.2 10.6 11.3 10.5-.5 0-3.7-2.4-7-5.4s-6.5-5.5-7-5.5c-.6 0-3.1 3.9-5.7 8.7-2.6 4.9-5.4 9.7-6.3 10.8-1.7 2-.5-.2 7-13.8 3.7-6.7 3.7-6.8 1.9-8.9-2.2-2.5-9.4-7.8-10.5-7.8-1 0-1.1 31.2-.1 32.8.7 1 1.7.9 5.2-.3 2.4-.8 4.5-1.3 4.7-1.1s-1.8 1.2-4.6 2.1-5.1 2-5.1 2.4c0 .3 3.3 3.9 7.3 7.9l7.3 7.2 5.9-11.6c3.3-6.3 6.3-11.8 6.7-12 1.3-.8-1.1 4.6-6.3 14.2-2.7 5-4.9 9.9-4.9 10.9 0 2 9.9 32.6 11 33.8.8.9 2.1-57.9 1.3-60-.3-.8-1.2-1.2-1.9-.9-3.6 1.5-4.6 1.5-1.8 0 1.7-.9 3.6-2.5 4.3-3.7 1.2-1.9 9.2-26.8 13.8-43.3 2.5-8.8 1.6-10.2-4.4-6.2"/><path d="M294.2 192.2c-.6 1.8-2.6 8.5-4.7 14.8-2 6.3-4.3 14-5.1 17-.9 3-2.2 7.9-3 10.9s-1.3 5.6-1 5.8c.2.2 5.5-.6 11.8-1.8 6.2-1.2 13-2.4 15.1-2.6 4.2-.6 4.2-.6 2.1-6.4-.8-2.4-1.7-5.3-2-6.4-.7-3.4-2.6-7.5-3.5-7.5-.5 0-.9-1.3-.9-2.8 0-2.5-6.3-22.8-7.4-23.9-.3-.3-.9 1-1.4 2.9M242.3 269.7c-2.4 7.1-4.5 13.7-4.8 14.9-.4 1.7 2.2 3.8 18.1 14.3 10.2 6.7 18.9 12 19.2 11.6.3-.3 0-2-.7-3.8-.6-1.8-3.5-10.2-6.3-18.7l-5.1-15.5-7.5-7.8c-4.2-4.2-7.8-7.7-8.1-7.7-.4 0-2.5 5.7-4.8 12.7M312.3 338.5c-1.3.9-7.7 4.7-14.3 8.4l-12 6.7 2.8 2.6c8.4 7.8 19.5 15.9 20.4 15 1.2-1.2 6-28.7 5.6-32-.3-2.1-.4-2.2-2.5-.7M268.5 356.4c.1 2.5.4 4.9.8 5.3 1.5 1.4.5 4.1-2.3 6.3-1.9 1.5-3.2 3.5-3.6 5.9-.4 2-1.1 4.4-1.6 5.4-2.3 4.5.4 2.2 5.3-4.5 3-4 7.7-10.2 10.6-13.8 6.1-7.3 5.9-7.7-3.5-8.6l-5.9-.7zM284.5 358.7c-.3 1.5-1.4 5.7-2.4 9.3-1.1 3.6-3.2 11.6-4.7 17.7-1.5 6.2-3.1 11.3-3.4 11.3-.4 0 .6-5.1 2.1-11.3 4.4-17.9 6.8-29 6-28.1-4.6 5.5-7.2 9.7-6.7 11 .4 1.2.2 1.5-.9 1-1-.3-2.5 1.1-4.8 4.7-1.9 2.9-4.4 6.1-5.6 7.1-1.1 1.1-2.1 2.5-2.1 3.2 0 2 10 13.4 11.8 13.4 1 0 5.8-2.9 10.7-6.5 5-3.5 11.4-8.1 14.4-10.2 2.9-2.1 6.3-4.6 7.5-5.6l2.1-1.8-2.4-1.6c-1.3-.9-5.2-4-8.7-6.9s-7.7-6.2-9.4-7.4l-2.9-2.1zM213.1 403.8c-7.7 15.6-14.1 28.5-14.1 28.8 0 1.6 5.1-1.6 25.8-16l8.2-5.7-.4-14.4c-.3-11.1-.7-14.9-2-16.6-.9-1.3-1.6-1.9-1.7-1.4 0 .6-.4.1-.8-1-.7-1.6-3.8 3.9-15 26.3M257.7 395.1c-3 9.4-3.3 11.3-1.4 10.6 10.7-4.3 14.7-6 14.7-6.6 0-.3-2.4-3.3-5.4-6.5l-5.3-6zM225.5 417.6c-3.3 2.5-10.7 7.8-16.5 11.7l-10.4 7.2 4.4.6c2.5.4 10.1.8 17 1l12.5.4.3-12.8c.1-7-.1-12.7-.5-12.6-.4 0-3.5 2.1-6.8 4.5M1042 528.4c0 .7.9 3.6 1.9 6.6 1.7 4.9 2.4 5.6 5.8 6.7 5.7 1.7 7.3 1.6 7.3-.7 0-1.1-.4-2-1-2-.5 0-1-.8-1-1.9 0-3.6-2.2-7.9-4.3-8.6-4-1.2-8.7-1.2-8.7-.1"/></svg>