<svg xmlns="http://www.w3.org/2000/svg" width="1706.667" height="960" viewBox="0 0 1280 720"><path d="M0 360v360h1280V567.2l-3-.6c-2.3-.4-3-1.1-3-3 0-2.5 2-3.9 4.5-3 1.3.5 1.5-31 1.5-280V0H923.1c-284.6 0-357 .3-357.4 1.2-.4 1-.7 1-1.8 0C562.9.3 505 0 281.3 0H0zM524.6 46.9c1.1 1.1 5.3 2.5 48.4 16.6 17.9 5.9 33.2 11.2 34 11.9s6.7 3.4 13 6.1c14.2 5.9 28.2 12.6 27.7 13.2-.3.2-4-1.2-8.3-3.2-13.3-6.1-31.6-13.7-31.9-13.3-.7.6 1.7 4.1 12.4 18.4 19.4 25.8 21 27.9 22.9 29.6 1.9 1.6 2.1 1.5 2.8-1 .4-1.5.9-4.4 1-6.5.2-2.1 1-5 2-6.4 2.2-3.4 3.2-15.2 1.4-16.3-.7-.4-.9-1.3-.5-2 .5-.8 1.3-.6 2.9.8 1.1 1.1 4.8 3.4 8.1 5.3 3.3 1.8 6.9 4 8 4.9 1.1 1 5.6 3.7 10 6 4.4 2.4 9.7 5.4 11.8 6.7s4.2 2.1 4.6 1.8c1.3-.8 3.1 1.9 2.6 4.1-6.6 30.8-16.2 69.9-17.7 72.8-.7 1.3-.7 2.1.2 2.6s.9.9.1 1.4c-.6.4-.8 1.8-.5 3.2.4 1.4.2 2.4-.4 2.4s-.9 2.1-.7 5.2c.2 3.9.1 4.5-.4 2.3l-.8-3-1.1 2.7c-1 2.4-2.6 7.8-9.3 31.8-1.2 4.1-2.9 10-3.9 13s-2.3 8.3-2.9 11.7c-.7 3.5-2.1 8.8-3.1 11.9-2.8 7.9-2.6 10.5.9 12.8 1.5 1.1 3.4 2.9 4.1 4 .7 1.2-.5.5-2.8-1.6-6.7-6.1-6.8-6.1-24.4-5.3-16 .7-16 .7-15.5 3 .3 2 .2 2.2-1.5 1.2-1-.7-1.8-1.7-1.8-2.4 0-.6-2.4-1.8-5.2-2.6-7.1-2-21.9-4.9-22.4-4.4s6.8 15.5 10.2 20.8c1.3 2.2 3.2 3.9 4.2 3.9.9 0 3.6-2.6 6-5.7 4.7-6.3 5.4-6.2 1.7.2-3.7 6.3-3.8 7.9-.5 9.3 1.5.7 3.4 2.5 4.1 4.1.8 1.5 1.9 3 2.4 3.2.6.2.9 1 .9 1.7-.1.7 1.2 2 3 2.9 1.7.9 3.3 1.9 3.6 2.3s2 1.5 3.9 2.4l3.3 1.8 3-3.4c1.8-2 2.3-2.3 1.4-.8-2.2 3.5-2 4.7 1.2 5.9l2.7 1-3.3-.2c-1.8-.1-3.6.4-4 1-.4.7-.4 4.7-.1 9 .4 4.3.8 12.2.8 17.5.1 5.4.5 9.8 1 9.8s4.5-5.3 8.8-11.8c4.2-6.4 9.2-13.6 11-15.8l3.3-4.1-2.2-1.7-2.3-1.6 2.8.6c1.5.3 2.7.2 2.7-.3s.9-.9 2-.9c1.4 0 1.8.5 1.5 1.7-.6 1.8 8.8 15.1 13.9 19.8 1.4 1.4 2.6 2.8 2.6 3.2 0 .7-8.4-8.2-16-16.9-2.8-3.2-3.6-2.7-3.7 2 0 4.5-2.3 23.7-4.5 37.3-1.3 7.8-1.3 7.9-1.6 3.1-.2-2.6.2-7.1.8-10 1.2-5.4 4-27.7 3.9-31.1 0-1.6-.6-1.3-3.5 2-2 2.2-4.6 6-5.9 8.5-1.2 2.5-5.3 8.5-8.9 13.5l-6.7 9 4.3 3.8c6.3 5.5 12.8 9.7 15.2 9.7 1.6 0 2.1.6 2.1 2.5 0 2-.5 2.5-2.7 2.5-2.5 0-19.5 4.9-24.8 7.2-1.4.6-6.3 1.9-11 2.9-10.8 2.4-17.7 4.3-18.6 5.2-.4.3-.1 1.5.7 2.4 1.3 1.7 1.2 1.7-.4.4s-2.1-1.2-4.3 1.5c-3.5 4-9.4 13.8-9.4 15.6 0 .8 1.8 2.2 4.1 3.2 2.2 1 3.8 2 3.6 2.2s-1.7-.2-3.3-1.1c-3.7-1.9-6.3-1.9-8.4 0-1.5 1.4-1.6 1.2-1.2-1.6.3-2.1.1-3-.6-2.5-.6.3-1.2.2-1.4-.4-.1-.5-5.2-6-11.3-12.1-7.7-7.7-11.1-10.5-11.3-9.4-.4 2 2.5 31.6 4.2 42.4 1.1 7.3 1.2 7.5 2.8 5.6.9-1.1 2.6-3.1 3.8-4.5l2.1-2.5-1.5 3.2c-.9 1.7-2.3 3.8-3.1 4.7-1.5 1.5-1.5 1.6.3 1.6 1.1 0 5.7-1.1 10.3-2.4 4.6-1.4 8.5-2.3 8.7-2.2.2.3-5.6 2.4-19.6 7.1-1.7.6 4.9 8.5 14.4 17.3 6.6 6.1 9.4 7.6 9.4 4.8 0-.8 1.2-2.8 2.6-4.3 2.5-2.8 2.5-2.8-.4 2.7-1.6 3-2.7 6.1-2.4 6.8.5 1.5-1 1.6-2.4.2-1.3-1.3-34.4 14.9-34.4 16.7 0 .7-1.1 1.3-2.5 1.3-1.3 0-2.8.6-3.2 1.3s-4.6 4.2-9.2 7.7c-4.6 3.6-9.5 7.5-10.9 8.8-1.7 1.5-2.9 1.9-3.7 1.2-1.6-1.3-15.1-7.9-23.7-11.5l-6.7-2.8-7.8 3c-11.1 4.4-11.4 4.4-12.7 3.4-.6-.5-3.8-2.4-7.1-4.1l-5.9-3.1-6.6 4.6c-7.1 4.8-9 5.4-9 3 0-.8-.4-1.5-1-1.5-1.3 0-1.3.2.5 3.6 1.1 2.2 1.2 3 .2 3.6-2 1.3-2.7.9-2.7-1.6 0-1.4-1.9-4.8-4.5-7.9-2.5-3.1-4.5-5.9-4.5-6.4 0-1-16.5-16.3-20.3-18.8-1.5-1-2.5-2-2.3-2.2 1-1 7.2 3.7 12.5 9.2 3.7 3.9 5.6 5.3 6.2 4.4.4-.7.5-1.9.2-2.8-.4-1.2-.3-1.3.5-.3.7 1.1 1.1.8 1.6-1 .4-1.3 1-1.8 1.2-1.1.3.7.1 2-.5 3.1-.7 1.3-.6 2.7.6 4.8.9 1.6 2.2 4 2.9 5.4 2.1 3.8 6.7 8.9 5.9 6.5-.3-1.1-1.1-5.6-1.6-10-2.4-18.9-3.6-24.4-5.7-26.8-.9-1-1-1.7-.4-1.7s1.4.5 1.7 1.1c.5.7 1.3.5 2.6-.6 1.7-1.7 1.8-1.6 1.2 1.9-.6 3.6.8 16.5 3.2 31.3.8 4.7 2.1 4.1 3.4-1.4 1.5-6 4.9-16.2 5-14.7.1.5-1 5.3-2.4 10.5-2.9 11-3 12.9-1 12.9.8 0 1.5-.4 1.5-.9s1.2-1.4 2.8-2c1.5-.7 4.2-2.4 6-3.9l3.3-2.7-1-7.5c-1.8-14.5-2-16.4-1.1-15 .5.8 1.4 4.5 2 8.2.7 3.8 1.6 6.8 2.1 6.8s.9-.3.9-.8c0-3.1 3.4-18.9 4.2-19.7.7-.7.8.4.4 3.5-1.3 9.2-1.6 12-1.2 12 .8 0 10.2-12.5 11.3-15l1-2.5 2.2 3.7c1.9 3.2 2.5 3.5 4.9 2.9 2-.5 2.9-1.7 3.7-4.4.6-2 1.6-4.2 2.4-4.9 1.1-1.1 1.3-1.1.6.1-.8 1.5 2.5 1.2 11-1.1 3.7-.9 3.8-1.1 2-2.4-1.7-1.3-1.8-1.6-.5-2.4.8-.5 2.2-1 3.1-1 .8 0 2.5-.9 3.7-2 2.1-2 2.2-2 2.2-.2 0 1.5.7 1.9 3 1.8 1.6-.1 3-.5 3-.9 0-.5.5-.5 1-.2.6.3 1 0 1.1-.7 0-1 .2-1.1.6 0 .4 1 .8 1 2.1 0 1.7-1.5 1.7-1.5 3.8.7 1.3 1.3 3.4 2.1 3.4 1.2 0-.1-1.3-4.3-2.8-9.2-2.8-8.7-8.9-21.3-11.7-24.1-.8-.8-1.7-3.3-2-5.7-1.3-8.5-4-17.2-5.5-17.4-.8-.1-3.7 2.4-6.3 5.5s-8.3 9.7-12.7 14.7c-4.3 4.9-7.8 9.1-7.6 9.2.3.3 32.1 3.5 35.4 3.5 2.4.1 2.6.5 1.2 2.8-.8 1.3-1.1 1.2-2.3-.4-1.2-1.7-3.3-2-17.8-2.6-9-.3-16.6-.5-16.8-.3-.7.5 11.6 11.8 14.4 13.3 2.3 1.2 3.7.5 18.5-9.3.8-.5-.3.8-2.6 2.9s-6.1 5.2-8.5 6.9c-3.6 2.5-4 3-2.4 3.3 4 .8 3.4 1.8-.7 1.2-2.4-.3-4.2-1.1-4.1-1.7.2-1.1-8.4-9-14.5-13.2-3.1-2.2-3.4-2.2-5.7-.7-1.4.9-2.5 2-2.5 2.5 0 .4-1.1 2.1-2.5 3.7s-2.5 3.2-2.5 3.6c0 .5-.4.8-1 .8-1.8 0-1.1-1.7 1.9-4.9 2.9-3.1 4.7-6.8 3.8-7.7-.2-.3-4.6-.3-9.7-.2l-9.2.3 2.7 2.7c3.2 3.2 2.5 3.7-1.2.8-1.4-1.1-2.9-1.8-3.3-1.5s-.7-.3-.6-1.3c.1-1.2-.8-1.8-3.1-2-2.8-.3-3.2 0-2.7 1.5.5 1.7.5 1.7-.6 0-.9-1.4-.6-3.8 1.1-11 1.3-5.1 2.6-9.4 2.9-9.7 1-1 1.1-4 0-4-.6 0-.8.4-.5 1 .3.5-.1 1-1 1-.8 0-1.8.7-2.1 1.5-.4.8-1.1 1.5-1.6 1.5-.6 0-.2-1.2.8-2.7 3.5-5.4 7.4-12.8 7.4-14.4 0-1.2-2.4-1.8-13-2.8-7.1-.7-13.4-1-14-.6-.5.3-1 1.7-1 3s-.4 2.5-.9 2.7c-1.1.3-2 5.8-3.2 19.8-.7 9.1-.8 8.8-.5-4.5.1-7.7.1-14.8-.2-15.8-.3-1.7-.6-1.7-2.9.5l-2.5 2.3 2.1-3.5c1.1-1.9 2.1-3.9 2.1-4.3 0-1-14 0-25 1.8-4.4.7-7.4 1.6-7.3 2.3.4 1.8 10.3 18.2 11 18.2.4 0 2.3-1.5 4.2-3.3 1.9-1.7 2.9-2.3 2.1-1.2s-2.3 2.7-3.2 3.6c-1 .9-1.8 2.3-1.8 3 0 .8 3.2 6.1 7 11.8 7 10.3 8.9 14.6 3.4 7.4-3.4-4.4-13.4-19.3-13.4-20 0-1.2-8.7-15.3-11.9-19.1-1.9-2.4-5.5-5.4-8-6.6-6-2.9-9.1-4.9-9.1-5.8 0-.4 1.5.1 3.3 1.2 4.6 2.8 9.8 5.2 10.4 4.7.9-.9-7.9-16.3-10.7-18.8-1.7-1.5-3-3.2-3-3.8 0-.7-.4-.9-1-.6-.5.3-1 4.4-1 9.1 0 8.5-1.3 11.2-2.4 5-.4-1.8-.3-13.4.2-25.7s.9-24.7 1-27.4c0-2.8.4-7 .8-9.5.3-2.5.2-8.8-.5-14-1.5-13-1.9-22-.9-22 .4 0 .8 2.4.8 5.2 0 2.9.7 10.2 1.5 16.3.8 6 1.5 11.1 1.5 11.2 0 1.3 2.6-.3 4.8-2.9 4.7-5.4 6.2-9.3 4.7-12.1-1.1-2.2-1.1-2.4.6-2 1.4.4 1.8-.2 2.1-2.9.4-3.3.4-3.2 1.3 1.2.5 2.5 1 3.9 1.3 3.2.2-.6 1.2-1.2 2.3-1.2 1 0 2.8-.9 3.9-2s3.5-2 6-2.2c2.2-.1 4-.5 4-.9s-3-4.5-6.6-9.1l-6.7-8.3 8.1 8c4.4 4.4 8.5 8 9.1 7.9s2.3-.2 3.9-.3c4.7-.2 5.5-1.3 4.3-5.7-1-3.6-1.6-4.1-7.3-6.3-3.5-1.3-8.3-3.3-10.8-4.3-2.5-1.1-6.6-2.2-9.1-2.5l-4.6-.5 1.7-3.7c2.2-4.7 5.7-26.4 4.3-26.8-1-.4-.6-2.7 1.2-8.1.4-1.2 1.4-2.2 2.1-2.2.8 0 3.6-4.5 6.4-9.9l4.9-9.9-3-4.2-3-4.1 2.9 2.1c1.7 1.2 3.5 1.9 4.1 1.6.6-.4 1.4-.1 1.7.7.4 1.1 1.3 1.3 3.7.7 1.8-.5 7-1.1 11.7-1.5 12.8-.9 25.3-3 25.7-4.1.2-.5-3.3-5.9-7.8-11.9-4.4-6.1-11.2-16-14.9-22-3.8-6.1-8-12.3-9.3-13.9l-2.3-2.8-1.8 17.8c-1 9.9-2.7 21.9-3.7 26.9-2 9.3-1.8 6.4.6-11.5.8-5.8 1.7-15.2 2.1-21l.7-10.5-2.3 2-2.2 2 2.2-3.8c1.4-2.4 2-4.6 1.6-6.1-.5-2.1-.3-2.3 1.6-1.8 1.3.3 1.9.1 1.5-.5s.2-3.7 1.3-6.9c1.1-3.3 1.8-4.8 1.6-3.4-.3 1.4-.8 4.3-1.1 6.5l-.7 4 4.4-4.5c2.4-2.5 8.6-9.5 13.9-15.5 5.3-6.1 12.4-13.9 15.8-17.5 8.4-8.7 9.9-10.9 8-12.1-1.1-.7-1.1-.9.4-.9 3.4 0 1.8-3.8-8.1-18.3-2.9-4.2-5.7-7.7-6.1-7.7-.5 0-1.4 1.3-2 3-.5 1.6-1.5 3-2.1 3-.7 0-.9.8-.5 2 .3 1.1.2 2-.3 2s-2 2.3-3.2 5.2c-2.3 5.3-7.9 14.9-8 13.5 0-.4 2.2-5.1 5-10.3 2.7-5.2 4.9-9.5 4.9-9.7 0-.1.3-1.6.6-3.2.8-3.3 3.8-7.1 7-8.8 1.8-.9 1.8-.8.7.6-1.2 1.3-.8 2.3 2.5 6.6 5.8 7.6 9.7 13.5 9.9 14.9.3 1.8 2.4 4.2 3.8 4.2 1.5 0 5-3.1 21.1-18.8 7.8-7.5 20.3-19.5 27.8-26.5 7.5-7.1 13.7-13.5 13.7-14.2 0-2.8 7.3-4.8 9.6-2.6M964 119c5.2 2.9 12.9 7 17 9.2 15.2 8.2 27.6 15.4 32.9 19 6.4 4.4 8.4 4.9 5 1.1l-2.4-2.6 3.5 2.6c2.9 2.1 4.5 5 9.4 16.9 3.3 7.9 7.8 18.1 10.2 22.8 3.9 7.8 7.9 17.1 13.4 31 4.1 10.4.7 4-6-11.2-11.9-27.2-17.3-38.9-17.7-38.4-.3.3.4 3.3 1.6 6.8 2.6 8.1 6.8 22.4 9.1 31.3 2.3 8.7 8.6 34 9.4 37.8.9 3.7 2.2 2.7 5.2-3.9 1.3-3 2.7-5.4 3-5.4 1.2 0-.8 5.6-3.2 9.3-1.4 2.2-2.3 4.5-2 5.2.3.8 2.4 1.9 4.8 2.5s6 1.7 8 2.4c4.5 1.7 5.5.8 2.9-2.5-1.7-2.3-5.1-9.3-5.1-10.8 0-.3 1.1 1.2 2.5 3.4 2 3.1 2.4 3.4 2 1.5-.3-1.4-1.1-5.9-1.9-10-.7-4.1-2.7-12.2-4.4-18-3.9-13.8-7.2-27.4-7.1-29.7 0-1.9 4.5 13.1 5.3 18.2.3 1.6 1.5 6.1 2.7 10 3.3 10.8 5.6 20.7 7.8 32.8 5.6 31 7.3 41.8 7.7 48.7.4 7.5.4 7.5-1 3.5l-1.4-4-.1 5.1c-.1 2.7-.5 5.4-1 6-.5.5-2.1 4.7-3.6 9.4-1.4 4.7-3.3 9.7-4.1 11.2-.8 1.6-1.1 2.8-.6 2.8 1.6 0 11.2-11 11.3-12.8 0-.9.1-4.2.1-7.2v-5.5l.7 4.7c.9 6.1 1.7 6.8 3 2.7.9-3.2.9-3.2 1-.7.1 2.9-3.6 8.3-11.2 16.1-4.5 4.6-5.7 6.7-3.9 6.7.5 0 1.7-.9 2.7-2s2-1.8 2.3-1.5 1.1 0 1.8-.6c.9-.8 1.1-.6.7.9-.3 1.4-1.1 1.8-2.6 1.5-1.8-.4-2-.3-.7.7.8.6 1.1 1.3.5 1.6-2.6 1.1-3.9 2.4-3.2 3.1.4.4 1.7.2 2.7-.5 1.1-.7 2-1 2-.7 0 1.1-3.3 7-5.6 10-1.2 1.6-3 6.3-4 10.2-2.1 8.9-1.8 10.4 7.2 29.2 4.8 10.1 6.1 13.7 5.2 14.3-.9.5-1.5-.2-1.9-2.5-.7-3.3-4.9-12-4.9-10.1 0 2.3 2.2 7.4 3.2 7.4.6 0 .7.8.4 1.7-.4 1 .6 5.2 2.3 9.8 1.6 4.4 4.2 11.4 5.6 15.5 4.1 11.5 6.8 18.4 7.6 19.4.8.9 5.7 1.2 6.5.3.3-.3-2.5-6.7-6.2-14.4-3.7-7.6-6.8-14.4-7-15.2-.1-.8-.7-1.7-1.3-2-.5-.4-.7-1.2-.3-1.8.8-1.2 15.9 30 16.9 34.8.3 1.5-.2 3.8-1.2 5.5-1.6 2.8-1.6 2.5-.1-2.4.7-2 .4-2.2-3.4-2.2h-4.1l.5 3.7c.5 3.7.5 3.7-.6 1-1.6-3.7-2.8-3.4-2.8.8 0 2-.7 4.9-1.5 6.5-.9 1.7-1.4 3.3-1.3 3.7.2.5-.9.9-2.4 1.1-1.6.2-2.8-.1-2.8-.6s.8-.9 1.8-.8c1.2.1 2.2-1.4 3.6-5.7 2-6.2 1.7-7.9-1.1-5.5-1 .8-5.6 3.5-10.3 5.9s-8.7 4.6-9 5c-.3.3-2.3 1.8-4.5 3.3-2.2 1.6-3 1.9-1.7.8 3.9-3.6 2.9-4.9-7.5-9.9-5.4-2.5-9.9-5-10.1-5.5-.2-.4-.8-.8-1.4-.8-.7 0-.9 1.7-.5 4.6.3 3 .1 4.2-.5 3.6s-1-5.9-1-11.9c0-8.2-.2-10.2-1-8.3-1.5 4-7.6 26.4-9.3 34.8-1.5 7.3-1.5 8 .5 16.2 4.1 16.1 7.8 26.4 8.1 22 0-.8.2-2.4.3-3.5.2-1.1.6-6.1 1-11 .4-5 1.1-14.1 1.7-20.3.5-6.2.7-12.5.4-14-.5-2.3-.4-2.3.7.5 1 2.3 1.7 3 2.8 2.4 2.6-1.4 10-2.2 10-1.1 0 .5-.3.9-.7.8-1.5-.4-8.2 1.3-8.8 2.2-.5.9 7.2 5 9.4 5 .7 0 1.1 2.7 1.2 6.7 0 3.8.4 8.6.8 10.8l.9 4 .2-3.5c.5-6.9.9-9.3 2.1-10.4.8-.8.9-.2.3 2.4-.4 1.9-.7 7.3-.6 11.9 0 6.3.5 8.7 1.8 10.2 2.7 3 3.1 2.3 2.2-3.9-.4-3.1-1-8.2-1.3-11.2l-.5-5.5 1.5 5.5c.8 3 1.9 8 2.4 11s1.3 6.8 1.7 8.5l.7 2.9-3.9-3.2c-2.1-1.8-4.2-3.2-4.7-3.2-.8 0-9.6 6.1-17.3 12.1l-3.4 2.7 5 1.2c2.7.7 5 1.6 5 2 0 .5-2.4.2-5.2-.6-2.9-.7-7.1-1.4-9.3-1.5-3.9-.1-3.9-.1-1.2-1.1l2.8-1-3.3-3.6c-1.8-2.1-4.9-5.8-6.7-8.5-1.9-2.6-3.8-4.7-4.2-4.7s-2.8 2.7-5.4 5.9c-2.5 3.3-5.1 6.6-5.8 7.3s-2.2 2.6-3.2 4.1l-1.8 2.8 11.4-.5c11.1-.4 11.1-.3-.1 1.1l-5.5.6 11.5 1.8 11.5 1.8-9-.5c-4.9-.3-10.7-1-12.9-1.5-2.1-.6-4-.9-4.2-.6-.4.4 5.9 4.6 13.7 9.1 2.6 1.4 5.3 2.4 6.2 2 1.9-.7 6.7-6.8 6.7-8.5 0-.9 2.1-1 8.4-.5 6.2.5 8.7.4 9.7-.6.8-.7 2.3-1.5 3.4-1.6 1.1-.2 2.8-1.1 3.8-1.9 3.1-2.8 1.8.3-1.6 3.8-2.6 2.6-3.2 3.9-2.6 5.4.4 1.1.8 4 .7 6.5 0 4.1-.1 4.2-.8 1.5-.4-1.7-1.1-4.2-1.4-5.7-.5-2.2-1.3-2.8-4.4-3.3-2-.4-4.7-1.1-5.9-1.7-1.3-.6-2.6-.9-2.9-.5-.7.7 1.6 7.8 3.1 9.2 1.3 1.3 1.4 5.5.1 5.5-.6 0-4.5-.9-8.6-1.9-7.7-2-9.2-1.9-8.5.2.2.7 0 2.8-.5 4.7l-.9 3.5.2-4.3c.1-2.3-.1-4.2-.6-4.2-.4 0-5.1 3.4-10.3 7.6-5.2 4.1-10.1 7.3-10.7 7.1-.7-.2-.1-1 1.3-1.7 3.3-1.7 20-15 20-15.8-.1-1-19-12.6-20.9-12.9-.8-.1-2.2.4-3 1-1.2 1-1.3.9-.2-1.1.9-1.7.9-2.2-.1-2.2s-1-.2.1-.9c.9-.6 1.2-1.8.7-3.7-.6-2.6-.5-2.7.5-.9 1.8 3.1 1.9 3.1 3.7.8.9-1.1 4.4-5.5 7.6-9.7 6.8-8.8 7.2-7.9-4.9-14.1-9.3-4.8-14.3-8.7-5.9-4.6 3.4 1.6 8.5 4.4 11.3 6.1 2.9 1.6 5.6 2.8 6.1 2.5s1.2-2.2 1.5-4.3c.4-2 1.1-5.8 1.7-8.4.9-3.4.8-5 0-6-1.3-1.6-3.4-6.8-2.7-6.8.2 0 1.2 1.5 2.1 3.2 1.6 3 1.8 3.1 2.5 1.3 1.3-3.2 6.6-23.2 8.9-33.5 1.2-5.2 2.8-11.5 3.6-14 2.3-6.8 2.7-9 1.2-6-.7 1.4-1.5 2.7-1.8 3-.4.3-2.3 3.6-4.5 7.5-2.1 3.8-6.5 11.1-9.7 16.2-6.6 10.3-8 13.9-7.3 19.7l.4 4.1-1.2-4.7-1.2-4.7-8.5 9.6c-4.7 5.2-8.6 10.1-8.8 10.8-.5 2.1-3.4 2.8-3.1.7.1-.9-.3-2.8-.8-4.2-.6-1.4-1.3-4.1-1.6-6-.4-2.2 0-1.4 1.1 1.9 1.9 5.9 3.5 7.3 5.1 4.3.5-1 4.4-5.6 8.5-10.1 6.4-7.1 7.7-9.1 8.5-13.5 1.6-8.1 2.1-9.5 1.6-4.4-.3 2.7-.3 4.8 0 4.8 1.2 0 24.5-39.7 24.5-41.8 0-1.2-.8-1.5-10.4-3.7-3.8-.8-7.3-1.2-7.7-.8-.9.9-1.2 2.6-3.5 18.2-1.2 8.4-1.3 8.7-.9 2.6.3-3.9.8-9.3 1.1-12l.6-5-3.8 6c-2 3.3-4.7 8.1-5.9 10.7s-2.5 4.5-2.8 4.2-1.8.2-3.4 1.1l-2.8 1.7 2.7-2.2c2.3-1.7 2.6-2.7 2.1-5.3-.5-3-.4-3.1 1-1.3 1.4 1.9 1.5 1.9 3.1-1.2.9-1.7 2.9-5.1 4.6-7.5 1.6-2.4 3.4-5.6 4-7.2 1-2.7 1-2.7-2.2-2.2-1.8.3-5.5.9-8.2 1.3-3.5.5-5 1.2-5.3 2.5-.7 2.4-1.1 2.4-3.1.1-1.1-1.2-5-2.5-11.2-3.7-5.2-1-10.3-2.2-11.2-2.6-3-1.6-25.2-6.7-29.2-6.8-2.1 0-8.4 1-14 2.3-5.5 1.3-12.5 2.9-15.3 3.6-4.5 1-5.3 1.5-5.3 3.5 0 2.5-1.6 4.3-1.8 2.2-.1-.7-.6-3.5-1.1-6.2-1.9-9.8-2.1-11.9-.5-6.2.9 3.2 2.2 6.1 2.9 6.4 1.5.5 29.5-6.3 30.7-7.5.9-.9-1.5-2.7-13.2-9.9-3.6-2.2-10.5-6.5-15.4-9.6-4.9-3.2-9.3-5.7-9.7-5.7-1.4 0-1.1 2.3 1.2 10.5 1.1 4.2 1.9 8.1 1.6 8.8-.2.7-1.4-3.3-2.7-8.8s-2.9-10.6-3.5-11.3c-.9-1-2.5-1-8.4.3-4 .8-8 1.5-8.9 1.4-.9 0 1.8-.9 6-1.8 4.3-1 8-2 8.3-2.3.8-.8-45.6-29.8-47.6-29.8-.5 0-.9-.5-.9-1 0-.6.3-1 .8-1 1.3 0 46.9 27.8 47.8 29.1 1.6 2.7 2.1-.5 1.8-12.4-.3-7.2-.7-16-1-19.5-.7-7.3.3-6.6-17.9-13.7-21.4-8.3-22.5-8.7-22.5-9.2 0-.8 17.9 5.8 33.4 12.3 3.3 1.4 6.3 2.1 6.7 1.7s.9-2.6 1.2-4.8l.4-4 .1 4.2c.1 2.4.5 4.3.8 4.3.4 0 9.7-4.6 20.8-10.3 11.1-5.6 21.2-10.7 22.6-11.2 1.6-.7 2.4-1.7 2.2-2.9-.5-2.7-23.5-50.3-32.6-67.2l-5.5-10.2-.5 3.7c-.3 2-1.5 15.5-2.6 30.1s-2.5 32.6-3 40c-.6 7.4-1.2 14.7-1.3 16.2-.1 1.6-.5 2.8-1 2.8s-.6-1.5-.3-3.4c.4-1.9 1.3-12.8 2.1-24.3.8-11.4 2.1-31.3 3-44.2.9-12.8 1.4-23.5 1.2-23.7-.4-.5-7.5 4.3-22.2 14.9-4.4 3.2-12.9 9.2-18.9 13.5-5.9 4.2-14.2 10.1-18.2 13-4.1 2.9-7.4 5.1-7.4 4.8 0-.5 28.1-21.3 33.5-24.7 2.2-1.4 7.9-5.4 12.6-9 4.7-3.5 11.1-8.2 14.2-10.4s5.7-4.2 5.7-4.5-21.5-4.7-47.8-9.9c-26.2-5.2-48.1-9.8-48.6-10.2-.4-.4.5-2 2.2-3.6 1.7-1.5 6.7-8.2 11.3-14.8 4.5-6.6 10.6-15.2 13.4-19 2.9-3.9 5.9-8.1 6.6-9.5.8-1.3 2-3 2.8-3.6s1.1-1.6.6-2.4-.4-1.1.2-.7c.5.3 2-.7 3.2-2.3l2.2-3-2.3-.1h-8.3c-3.3.1-7.3-.3-9-.8-2.3-.7-.3-.9 8.3-1 6.1-.1 11.2-.4 11.2-.8 0-.3-3.6-4.6-8.1-9.5-4.4-4.8-7.8-8.8-7.5-8.8s4.5 4 9.5 9l9 9 24.8-8.5c13.6-4.7 25.5-8.8 26.3-9.1 2.2-1-2.2-1.8-28.8-5.5-12.7-1.8-23-3.4-22.8-3.7.3-.2 4.4.1 9.3.8 4.8.6 10.8 1.4 13.3 1.7 10.2 1.1 30.1 4.2 31 4.8 1.3.8 1.3-.1 0-2.6-1.4-2.5-.2-2.4 2.6.2l2.2 2 16.3-3.5c9-2 18.9-4.2 21.9-4.9 4.4-1.1 5.7-1.1 6.5-.1.6.7 5.3 3.6 10.5 6.4m-604.4 43.1c.4.7 2.1.9 4 .6s3.4-.2 3.4.4c0 .5-.5.9-1.1.9-1.2 0-.6 4.8 1.1 8 .7 1.2.8 2 .2 1.6-.5-.3-1.5-1.9-2.2-3.6-1.5-3.7-2.1-3.7-4.2-.3-.9 1.6-2.5 3.7-3.5 4.8-2.5 2.7-11.4 14.8-24.6 33.5-6.1 8.5-11.4 15.6-11.8 15.8-.5.2-.9.8-.9 1.3 0 .6-1.6 3.1-3.5 5.6s-3.3 4.8-3.1 5 2.3-.1 4.6-.7 4.4-.9 4.7-.7c.2.3-1.1.8-2.9 1.2s-4.4 1.2-5.7 1.7l-2.4.9 2.4 2.6 2.4 2.6-2.7-1.8c-2.6-1.6-2.8-1.6-2.8-.1 0 1-.4 1.5-.9 1.2-.4-.3-1.6 1.2-2.6 3.4s-2 3.8-2.2 3.6c-.3-.2.5-2.3 1.7-4.6s2-4.7 1.8-5.4c-.2-.9-4.3-.4-15.8 1.8l-15.5 3.1-.7 19.5c-1.1 31.3-1.3 46-.8 46 .3 0 2.7-4.5 5.4-10 2.8-5.5 5.1-9.8 5.3-9.6.2.1-1.9 5.1-4.7 10.9-2.7 5.8-5 11.2-5 12s1 1.8 2.3 2.4c1.2.6 9.1 5.2 17.5 10.2s16.2 9.1 17.3 9.1c1.6 0 1.9.3 1.1 1.2-.5.7-1.3 3.5-1.7 6.3-1.1 8.9-3.5 24.9-4.1 27.9l-.6 2.8 2.8-2c3.2-2.1 13-8.1 24.9-15.2 4.2-2.5 9.2-5.5 11.2-6.8 1.9-1.3 3.7-2.1 3.9-1.9.5.5-5.4 4.5-11.1 7.6-4.4 2.3-24.5 14.9-28.5 17.7l-2.4 1.8 2.9.8c15.1 3.6 17.1 4.8 4.1 2.3-4.4-.8-8.2-1.3-8.4-1-.3.3-.7 1.4-.9 2.4-.5 3.5-4.2 15.6-4.2 14.1 0-.8.6-4 1.4-7 2.6-9.6 2.4-9.7-7.2-3.1-16.9 11.4-22.8 15.9-22.5 17 .1.6-.5 1.1-1.3 1.1s-1.5.6-1.5 1.2c0 1-.2 1-.9 0-.7-1.1-1.5-1.1-4.6.2-5.1 2.2-5.6 1.4-.5-.9 2.2-1 4-2 4-2.2s-2.3-3.1-5-6.4c-3-3.7-5.2-5.5-5.5-4.7-2.4 6.8-5.4 17.2-5.1 17.5.2.2 1.6-.1 3.1-.7 3.8-1.5 4.3-.6.5 1-1.7.7-3.6 2.2-4.1 3.3-.8 1.4-1.3 1.6-1.9.7s-1.4-.8-3.7.4l-3 1.5 1.9 5.7c1 3.1 1.7 5.8 1.5 6.1-.3.2-1.2-1.8-2.1-4.5-1.6-4.8-4.8-9.2-6.6-9.2-.6 0-1 1.6-1 3.5s.4 3.5.9 3.5 1 3.9 1 8.7c0 7.9-.1 8.6-1.4 6.9-1.4-1.9-1.5-1.8-1.5 1.5 0 2.5.3 3 1 1.9.8-1.3 1-1.3 1 .2 0 .9-.5 2-1 2.3-.6.4-.8 1.1-.4 1.6.3.6-.1 1.8-1 2.7-.8 1-2.2 3.3-3 5.2-1.4 3.1-1.5 3.2-1.5 1 0-1.4.6-3.4 1.4-4.4.8-1.1 1.5-2.3 1.5-2.8 0-.6-14.6 6.5-15.9 7.8-.9.8 1 1.7 6.1 3l5.3 1.3-7-.6c-3.8-.3-7.1-1-7.3-1.4-.5-1.2-4.9-1.1-7.1 0-2.8 1.6-5.7.2-7.5-3.5-1.8-3.9-2.1-5.8-.7-4.9.5.3 1.3 1.9 1.6 3.6l.7 3.2 6.9-.6c5.3-.5 8.5-1.4 13.7-4.2 3.7-2 7.1-4 7.5-4.4.5-.5-3.6-1.1-9-1.5s-12.4-.9-15.5-1.2c-5.4-.6-5.9-.4-6.7 1.8l-.9 2.3-.6-2.5c-.5-1.9 1.6-7.4 8.7-22.5 5.1-11 9.9-21.6 10.7-23.5.7-1.9 3.5-8.1 6.2-13.8l4.8-10.3-.3-12.7c-.2-7-1.1-15.6-2-19.2-3.4-14.6-3.9-20.1-3-33 .7-8.8 1.1-10.7 1.2-6.5l.2 6 1.4-3.4c.8-1.8 1.2-3.7.9-4.2s.1-.9.8-.9c.7-.1 2.5-2 4.1-4.4 2.5-4.1 2.7-5.1 2.7-15.4 0-7.4.4-11.8 1.4-13.7.9-1.7 1.6-2.2 1.9-1.3.2.7 0 2.2-.6 3.3-1.3 2.6-1.3 23.8 0 24.2.6.2 8.5 5.5 17.6 11.8s16.9 11.5 17.2 11.5q1.5 0-1.5-7.5c-1.1-2.7-3.8-11-6.1-18.3-3.8-12.4-4.2-13.2-6.2-12.7-1.6.5-1.8.4-.8-.3 1.7-1.2-.4-4.4-7.3-11.1-3.2-3.1-4.7-4-5-3-3.8 11.8-4.8 14.6-5.6 15.9-1.6 2.5-1.1.1 1.5-7.9 1.4-4.2 3-9.1 3.6-10.8.9-2.8 1.1-32.3.3-32.3-.2 0-1 1.2-1.8 2.7-.8 1.6-1.5 2.3-1.6 1.8 0-1.9 5.5-15 8.1-19 1.4-2.2 3.8-6.1 5.3-8.8 1.5-2.6 3-4.7 3.3-4.7.8 0-6.8 13.3-9 15.7-3.2 3.5-.8 2.7 8.1-2.6 9.2-5.6 31.2-19.9 32.7-21.3.7-.6.4-1.4-.6-2.1-1.4-1-.6-1.3 4-1.3 4-.1 9-1.3 17.1-4.3 11.4-4.2 34.9-11.7 44.4-14.2l4.8-1.2-2.3-1.8c-1.3-1-1.9-1.9-1.2-1.9.6 0 1.5.5 1.9 1.1m11.2 50.6c0 3.8-.9 12-1.9 18.3-2.3 13.5-5.4 34-6.4 42.5-.4 3.2-.8 6.7-1 7.6-1.2 6.2-1.4 10.6-.6 11.9.9 1.2 1.5 1.2 4.7-.3l3.7-1.8-3.4 3.3c-1.9 1.8-4.4 3.4-5.6 3.4-2.1.2-2.3-.2-2.3-5 0-2.8.5-7 1-9.4.6-2.3 1.7-9 2.5-15 1.5-10.6 2.4-16 4.4-27.7.6-3.3 1.1-9.7 1.1-14.2s.5-8.5 1-8.8c.6-.4.8-1.1.5-1.6-.4-.5-.3-.9.2-.9.4 0 .8-1.7.8-3.8-.1-3.6.2-5.2 1-5.2.2 0 .3 3 .3 6.7M770.5 307c.3.5 0 1-.8 1-1.7 0-6.4 4.5-13.4 12.7-2.5 2.9-4.8 5.1-5 4.9-.6-.5-.3-.8 6.1-8.3 2.5-2.9 5-6.2 5.6-7.4 1.1-1.9 1-2-1.1-1.4-4.7 1.5-8.5 3.4-10.4 5.2-1.1 1.1-2.9 2.5-4 3.2-1.6 1-1.6 1.1-.2.7 1.4-.5 1.6-.1 1.2 2.5-.3 1.6-.1 3.7.4 4.7.7 1.3.4 2.5-1 4.2-1 1.4-1.9 3.3-1.9 4.2 0 1-1.3 2.4-2.9 3.3-3 1.5-4.7 4.7-3.6 6.5.4.7-.2.9-1.9.4-2.5-.6-2.6-.4-2.7 3.7-.2 4-.3 3.8-.9-1.6-.3-3.3-.5-6.2-.3-6.4s.3.1.3.7c0 .7.9 1.2 1.9 1.2 1.7 0 1.9-.8 2-7 0-3.8.7-8.4 1.5-10.2s1.7-4 2-5c.2-.9 2.7-2.9 5.5-4.4 3-1.7 5-3.5 4.8-4.4-.1-1.1 1.7-1.7 7.3-2.6 10.2-1.5 10.8-1.5 11.5-.4m-61.6 29.3c-.5 2.1-1.4 3.5-1.9 3.2s-2.7 2-5 5.2c-2.2 3.2-7.2 9.4-11 13.8s-7 8.3-7 8.7 3.2 2.4 7 4.3c3.9 1.9 7 3.7 7 4 0 .7-3-.6-8.8-3.7-2.8-1.6-5.6-2.6-6.2-2.3-1.2.7-2.5 5.3-5.1 18-1.1 5.5-2.4 11.3-2.9 13-.5 1.6-1.4 5.5-2.1 8.6-.7 3.5-1.7 5.6-2.5 5.6-1.7 0-1.8-1.3-.3-2.3.6-.3.9-2.1.7-4-.2-1.8.1-3.5.7-3.8.6-.2 1.9-4.1 2.9-8.7s2.8-12.2 4-16.9c1.4-5.8 1.9-9.7 1.5-12-.9-4.1-.5-4.8 1.6-3 1.2 1 2 .7 4.6-2.1 2.7-2.9 8.8-10.1 14.4-17.1.7-.9 3-4.2 5-7.3 2-3.2 3.8-5.5 4-5.3.3.2 0 2.1-.6 4.1m59.5 39.9c-.5 7.2-2.5 14.1-4.5 15.8-.3.3-.8 1.1-1 1.9-.3.7-2.7 2.5-5.4 4-10 5.3-11.5 6.5-11.5 8.9 0 1.2-1 4.2-2.1 6.4-1.4 2.8-1.8 4.3-1 4.6.6.2 1.1.7 1.1 1.2 0 .9-10 6.3-10.6 5.7-.3-.2.9-1 2.6-1.7 1.6-.7 3-1.6 3-2 0-1-11.5-7-13.4-7-.8 0-1.7.8-1.9 1.7-.4 1.5-.5 1.5-.6-.2 0-1.1.8-4 1.9-6.4s2-4.9 2-5.7c0-.7 1.6-2.8 3.5-4.5 2.4-2.2 3.5-4.1 3.5-6 0-2.2.4-2.6 2-2.2 2.5.7 2.5 1 0 5-1.6 2.6-1.7 3.3-.5 3.3.8 0 3.5.7 5.9 1.5 4.4 1.5 4.6 1.5 9.6-1.2 2.8-1.5 6-3.2 7-3.8 3.6-1.8 2.1-2.6-3.9-2.1l-5.9.4-.4-3.4c-.2-1.9 0-3.4.4-3.4s.8-.9.8-1.9c0-1.1.4-2.2.9-2.6.6-.3.6-1.8 0-3.7-.5-1.7-.6-3.4-.4-3.7.3-.2.5.1.5.8s.6 1.1 1.4.8 1.6-.1 1.9.6c.2.7 1.6-.7 3-3.1 3-4.6 4.3-5.6 2.6-1.8-1.4 2.9-.4 7.6 1.5 7.6.8 0 1.9 1.5 2.6 3.2l1.2 3.3 1.3-4.5c.7-2.5 1.6-6.6 2-9.3 1-7.4 1.5-5.5.9 3.5m-530.9 81c-.3 6.8-.7 19-.9 27.3l-.4 15 2.8-6c1.6-3.3 2.9-5.7 2.9-5.3.1.9-2.7 8.6-4 11.1-.6 1.1-.9 2-.7 2.1l2.8 1.4c2.3 1.1 2.3 1.2-1 .6-2-.4-4.2-1.7-5.4-3.3-1.1-1.4-3.7-4.3-5.7-6.4l-3.8-3.8 2.6-8.2c2.9-9.5 4.4-16.2 3.9-17.9-.1-.7-.1-1 .1-.5.3.4.9.4 1.5.1 1.4-.9.2 6.2-2.8 16.2-1.3 4.4-2.4 8.7-2.4 9.5 0 .7 1.8 3.4 4 5.9l3.9 4.5.1-11.5c.1-6.3.3-15.8.6-21.2.5-9.2.4-9.7-1.8-11.2l-2.3-1.7 2.5.3c2.3.3 2.5 0 2.8-4.5.2-2.6.5-4.7.8-4.7s.3 5.5-.1 12.2m330.9 64c-2 4-4 7.4-4.5 7.6-1.6.6-1 2.2.9 2.3 1.6.1 1.6.2 0 .6-1 .2-1.8 1.4-1.8 2.6 0 1.6-.3 1.8-.9.9-.7-1.1-1.4-1.1-4.2.3-3 1.6-22.1 13-25.8 15.4-1.2.7-.9 1.4 1.5 3.6l2.9 2.7-3.3-2.2c-3.7-2.5-6-2.4-16.2.5-3 .9-8.6 2.2-12.5 3-14.3 2.8-30 5.8-31 5.7-2.4 0-28.5-8.5-32.7-10.7-3.7-1.7-4.8-2-4.8-.9 0 .8-.4 1.4-1 1.4-.5 0-1-.8-1-1.9 0-2.1-13.1-18.5-15.5-19.5-.8-.3-1.5-1-1.5-1.7 0-.6-1-1.9-2.2-3-2-1.6-2-1.8-.5-1.9.9 0 1.7-.7 1.7-1.6 0-.8.5-1.2 1-.9.6.3 1 1.5 1 2.6 0 1.5.7 1.9 3.4 1.9 1.8 0 5.3.9 7.7 1.9 2.4 1.1 8.2 2.9 12.9 4 4.7 1.2 10 2.7 11.9 3.2 1.8.6 5 1.3 7 1.4 2 .2 6 .7 9 1.1 3.7.5 5.2.4 4.8-.3-.4-.6-2.8-1.4-5.4-1.7-5.3-.8-14.7-3.6-14-4.2.2-.2 4.4.6 9.3 1.7 4.9 1.2 10.8 2.6 13.2 3.2 3.1.7 4 1.3 3 1.9-.9.7-.7.8.7.3 2.9-1 17.8-2.3 34.5-3 8-.4 17-1.3 20.1-2.1s7.1-1.4 8.8-1.4c4.4 0 3.9-1.8-.6-2.3-2.1-.3 0-.5 4.7-.5 4.7.1 9.1 0 9.8-.1 1.8-.2 1.5-2.5-.9-5.5-1.1-1.4-1.7-2.6-1.4-2.6.4 0 1.6 1.1 2.7 2.5s2.6 2.5 3.4 2.5c.7 0 3-3.2 4.9-7 1.9-3.9 3.8-7 4-7 .3 0-1.1 3.3-3.1 7.2m77.5-2.5c-12.4 13.7-20.9 22.2-24.9 25.1-2.5 1.8-6.7 5-9.5 7.2-2.7 2.2-9 6.7-14 10.1-10.9 7.6-14.6 10.5-13.8 11.2.3.3-.6.9-2.1 1.3-1.4.3-2.6 1.1-2.6 1.6 0 1.1-16.1 23.2-20.5 28.3-2.9 3.2 2.3-4.3 12.1-17.7 3.3-4.6 6.3-9.1 6.7-10.2.7-1.9.8-1.9-4.2.2-.9.3-1.2.1-.7-.6.4-.7 1.4-1.2 2.2-1.2 3.1 0 1.2-1.9-2.3-2.3-3.5-.3-3.5-.4.9-.5 7.1-.3 11.1-2.4 30.9-16.1 3.5-2.5 7-5.1 7.8-5.9.8-.7 3.8-3.1 6.8-5.3 2.9-2.2 5.3-4.6 5.3-5.4 0-1.3 1.1-1.9 3.2-1.6.6 0 7.5-7.2 16.8-17.7 2.5-2.8 4.9-5.1 5.4-5.1.5-.1-1.1 2-3.5 4.6m-230.3 44.4c.9 1 2.5 1.9 3.5 1.9s2.1.4 2.4 1c.3.5.1 1-.4 1-2.2 0-1 2.9 2.4 5.9 2 1.7 3.9 3.1 4.4 3.1.4 0 4.1 2.5 8.2 5.5 9.8 7.2 9.2 6.7 11.7 8.9s4.2 1.5 2.2-.9c-.9-1.1-.9-1.5-.1-1.5.6 0 1.4 1.3 1.8 3 .3 1.6 1.1 3 1.8 3 .8 0 1.5.5 1.7 1.1.2.7 10.7 1.2 30.8 1.5l30.5.6 3-2.6c2.4-2.1 3.1-2.3 3.3-1 .5 2.1 4.6 1.2 15.2-3.6 21.3-9.5 32.2-14.1 32.6-13.7.5.4-4.1 2.6-29.6 13.7-9.1 4-17.1 7.7-17.7 8.3-.7.5-1.4 2.1-1.4 3.6-.2 2.3-.2 2.4-.6.3-.6-3-2.5-2.8-6.5.6-1.8 1.5-7.3 5.4-12.3 8.6-4.9 3.2-10.1 6.7-11.5 7.7-1.4 1.1-3.5 2.4-4.7 3.1-1.3.6-2.3 1.7-2.3 2.5 0 .7-.2 1.3-.4 1.3s-1.2.3-2.1.6c-1.1.5-1.5.2-1.3-.8.3-1.5-12.9-15-23.7-24-3.3-2.8-6.3-5.7-6.8-6.4-1.4-2.3-21.5-18.3-24.9-19.7-1.8-.8-3.9-2.1-4.7-3-.7-1-2-1.7-2.7-1.7-.8 0-1.4-.9-1.4-1.9 0-1.1-1.3-4.8-3-8.3-1.6-3.4-3-7-3-7.8.1-.8.9.7 2 3.4 1 2.6 2.7 5.7 3.6 6.7m603.3 12.9c.4 0 1.1-.3 1.7-.8.5-.4 0 .1-1.1 1.2-2 1.8-1.9 1.8 4.5 1.1 3.6-.4 6.9-1.1 7.5-1.6 1.3-1.3 2.5-1.1 2.5.5 0 .9-2.1 1.5-7.2 1.9-3.9.3-7.5 1-8 1.5s2.3 3.7 6.4 7.4c4 3.7 7.7 7 8.2 7.5.9.8.1-11.1-1-14.4-.5-1.5-.4-1.5.4-.4.6.8 1.4 4.2 1.7 7.5 1 8.2 2.4 5.2 2.6-5.3.1-4.5.5-8.1.9-8.1.5 0 .7 1.9.5 4.2-.2 2.4-.7 7.7-1 12-.4 5.1-1.2 8.1-2.3 9.3-2 1.9-26 20.2-28.2 21.5-1.8 1-.8 2.1 3.3 3.7 2.7 1 2.8 1.2.9 1.2-1.2.1-3-.3-4-.8-.9-.4-3.4-1.6-5.5-2.6-2-1-3.5-2-3.3-2.2.2-.3 1.4 0 2.5.7 1.6.8 2.1.8 2.1-.3 0-.7-.4-1.8-1-2.5-.5-.7 0-.3 1.1.7 2.2 1.9 2.2 1.9 11.3-4.7 13.7-9.9 19.5-14.6 19.5-15.9.1-1.1-15-15.4-16.9-16.1-.5-.2-1.5 1.7-2.1 4.3-1.6 6.2-2.2 5.1-.7-1.4 1-4.7 1-5.3-.8-6.6-1.9-1.4-1.8-1.4.2-1.5 1.3 0 2.4-.9 2.9-2.3.6-1.9.8-1.9 1.2-.5.2 1 .8 1.8 1.2 1.8m-597 1.8c1.4 2 5.7 10.1 9.7 18s7.7 14.8 8.2 15.5 3.5 6.2 6.6 12.4c3.2 6.1 6.4 11.7 7.2 12.3.7.7 1.4 1.8 1.4 2.4 0 2.7 5.3 5.8 17 10.1 6.8 2.5 12.6 4.8 12.9 5.1.3.4-.1.5-.9.2s-5.3-1.7-10-3.2-9.4-3.2-10.5-3.7-3.2-1.3-4.7-1.8c-4.2-1.6-7-6.2-22.9-37.7-8.3-16.5-15.8-30.7-16.6-31.7-.9-.9-1.2-1.7-.7-1.7s2 1.7 3.3 3.8m781.6 97.2c.3 1.1 1.5 2 2.6 2 2 0 4.4 4.3 3.6 6.4-.3.6-.9-.5-1.5-2.4-.6-2.1-1.1-2.7-1.1-1.5-.1 1.1.6 4.1 1.6 6.7l1.6 4.6 1.7-3.1c1-1.8 2.6-5.8 3.6-9 1.3-4.1 2.3-5.7 3.6-5.7 1.6 0 1.4.9-1.6 9.2-1.8 5.1-3.6 10.9-4 12.9-.6 3.1-.9 3.6-3 3.2-1.9-.4-2.9-1.8-4.6-6.6-1.2-3.4-3.3-9-4.6-12.5-2.2-5.9-2.2-6.2-.4-6.2 1 0 2.2.9 2.5 2m24.3 5.8c3.1-1.1 8.5.8 13.4 5 1.2.9 1.9.6 3.6-1.7 3.1-4.3 7.2-4.8 13-1.8 2.6 1.4 4.6 3.1 4.4 3.7-.1.6.2.9.7.5.6-.3 1.5.3 2 1.4 1.5 2.7 1.4 3.8-.1 1.8-1.6-2-3-1.1-4.4 2.8-.6 1.6-1.6 2.9-2.2 2.8-.7-.2-1.1.1-.9.6.1.5-.9 1.9-2.3 3.1l-2.5 2.2 3-.7c1.7-.4 3.6-.8 4.3-1.1.7-.2 1 .1.7.6-.3.6-.2 1 .3 1 1.1 0 3.7-2.9 4.5-5 .5-1.3.5-1.3.6 0 .1 3.1-6.1 8.1-7.4 6-.3-.5-1.4-1-2.3-1-1.5 0-1.5.2-.2 1 .8.5 1.1 1 .7 1-1.5 0-5.1-2.2-9.7-6-3.8-3-5-3.5-7.5-2.9-1.6.4-2.5.7-2 .8.6.1-.3 1-2 2.1-2.4 1.5-2.6 2-1.3 2.5.9.4 2.7.1 4-.6 2.1-1.1 2.2-1.1.9.4-.7 1-.9 1.7-.3 1.7 1.4 0 3.3-2.5 2.5-3.3-.3-.4-.1-.7.5-.7 1.7 0 1.5 1.5-.5 3.1-1.1.9-3.7 1.4-6.4 1.4-3.7-.1-5.6-.9-8.8-3.4-2.3-1.8-4.1-3.9-4.1-4.7s-.7-1.4-1.5-1.4c-1.6 0-1.5-.2 2.1-9 1.1-2.5 2-3.7 2.2-2.8.2 1.3.8 1.4 3 .6"/><path d="M522.3 49.5c-.2.8-.2 1.8.1 2.4 1 1.5 5 16.1 9.1 32.6 2.1 8.2 4.5 16.5 5.4 18.3l1.7 3.2 8.9-4.6c11-5.7 39.8-20.1 48-23.9 5-2.4 5.6-3 4-3.7-1.1-.4-12.6-4.3-25.5-8.6-49.6-16.7-51.1-17.1-51.7-15.7M516.5 51.3c-1.1 1.2-7.6 7.4-14.5 13.7s-20.1 19-29.3 28.2L455.8 110h12.1c7.8 0 12.1-.4 12.1-1 0-.7 1.9-.9 5-.7 2.7.3 4.7.1 4.5-.4-.5-.8 1.1-3.2 4.8-7.1.9-1 2.6-1.8 3.7-1.8 1.6 0 2 .7 2 3.5 0 2.4-.5 3.5-1.5 3.5-.8 0-1.5.5-1.5 1.1 0 .9 4.4 1 16.3.5 8.9-.4 17-.7 18-.8 1.6-.2 1.8-.9 1.4-4.8-.3-2.5-1.2-7.7-2.2-11.5-.9-3.9-2-9.5-2.5-12.6-1-6.7-7.7-28.9-8.8-28.9-.4 0-1.6 1-2.7 2.3M599 77.8c-7.5 2.4-53.2 27-53.4 28.7-.1.6 2.8 1.1 6.4 1.2 3.6.2 13.4.7 21.9 1.3 8.5.5 15.8.7 16.2.5.4-.3 2.6-6.5 4.9-13.8 2.2-7.2 4.6-14.2 5.2-15.4 1.3-2.6 1-3.2-1.2-2.5M603.4 79.1c-1.6 2-10.9 30.7-10.2 31.4 1.8 1.9 47.8 20 47.8 18.9 0-.9-13.1-19.4-29-40.9-2.5-3.4-5.2-7.1-6-8.4-1.3-1.9-1.8-2.1-2.6-1M652.3 103.2c.4 2.9.9 7 1.2 9 .4 2.7.1 4.3-1.1 5.7-1.9 2.1-4.4 8.6-4.4 11.3 0 3.1 5.6 2.4 34-4.3 4.7-1.1 9.2-2.4 9.9-2.8 1.4-.9-4.2-4.8-15.7-10.8-15.4-8-17.4-9.1-19.6-11.2-3.8-3.6-4.9-2.8-4.3 3.1M592.8 116.8c-.2 1.6-.1 3.8.2 4.8.4 1-.1 3.1-1.1 4.9-1.7 2.9-2.5 13.4-1.1 13.6.4 0 1.6.3 2.7.6 4.3 1.1 10.5 1.5 10.5.6 0-.6 3.9-1.6 8.6-2.3 6.8-1.1 9-1.1 10.6-.1 2 1.2 5 .4 15.8-4.2l3.5-1.5-4.8-2.1c-4.6-2-14.9-5.1-17.4-5.3-.7-.1-1.3-.4-1.3-.8 0-1.1-5-3.1-6.1-2.5-.5.4-.9.2-.9-.3 0-.6-3.3-2.4-7.2-4-11.5-4.7-11.5-4.7-12-1.4M435.8 131.8c-7 7.5-14.1 15.5-16 17.7-1.8 2.2-5.7 6.5-8.5 9.6-2.9 3.1-5.3 6.1-5.3 6.8 0 1.2 22.9 36.1 27.2 41.4 1.3 1.6 3.2 4 4.3 5.4l2.1 2.5 1.7-14.8c2.1-18.5 2.3-20.6 4.2-38.4 1.6-15.2 3.6-43.2 3.2-43.6-.2-.2-6 5.9-12.9 13.4M690 124.1c-3.4 1.2-25.1 6.5-32.5 7.9-9.7 1.9-9.7 1.9-9 4.8.3 1.5 5.3 12.1 10.9 23.7 5.7 11.5 12 24.5 14 28.7 2 4.3 4 7.8 4.5 7.8s1.1-1.2 1.4-2.8c.5-2.7 8.4-35 13.7-56.6 1.7-6.5 3-12.5 3-13.2 0-1.5-2.2-1.7-6-.3M634.8 139.5c-2.6 1.4-4.9 2.9-5.3 3.5-.3.5-1.6 1-2.8 1-3 .1-5.1 2-5.5 4.9-.6 3.6-2.6 5.1-7.1 5.1-3.4 0-4.1.3-4.1 2 0 1.1-.4 2-1 2-.5 0-1-.5-1-1 0-.6-.6-1-1.4-1-.9 0-1.2.7-.9 1.9.4 1.7-.2 2-5.1 2.6-3.8.5-5.6 1.2-5.6 2.1 0 .8-.4 1.4-1 1.4-1.7 0-1.1 2.7.7 3.5 2.8 1 17.3 9.7 17.9 10.7 1.1 1.7 2.4.6 5.6-4.7 1.8-3 3.6-5.5 4-5.5.5 0 .8-.5.8-1.1s2.9-4.7 6.3-9.2c7-8.9 13.5-20.7 11.4-20.7-.6.1-3.3 1.2-5.9 2.5M642.1 143c-2.6 4.7-10.3 16.2-16 23.9-7.2 9.6-9.3 13-8.9 14.1.4 1.2 16.6 14.1 21.2 16.9 2 1.3 3.9 2.1 4.2 1.8 1.1-1.1 2.4-48.2 1.5-54.8-.7-4.4-.7-4.4-2-1.9M647.2 162c.2 11 0 20-.4 20-.5 0-.8 4.5-.8 10.1v10l12.3-.6c6.7-.3 13.6-.8 15.4-1.1 3-.4 3.2-.7 2.2-3.1-.5-1.4-1.8-3.6-2.7-4.8-1-1.3-4.7-8.8-8.3-16.7-3.5-7.8-8-17.3-10-21s-4.3-8-5-9.7c-.8-1.7-1.8-3.1-2.2-3.1-.5 0-.7 9-.5 20M586.8 167.8c-.5 2 2.6 11.6 4.7 14.9.8 1.2 1.5 3.3 1.5 4.5 0 3.1 3.6 16.8 4.7 17.9 1.4 1.4 2.9-.4 6.7-8.2 2-4.2 4.8-9.3 6.2-11.4 1.4-2 2.4-3.9 2.2-4-1.2-1.1-15.4-9.8-20-12.3-4.9-2.7-5.7-2.8-6-1.4M582.3 190.5c0 6.1-.4 10-1.1 10.7-1.4 1.4-1.6 13.4-.3 14.3.5.3 3.1-.4 5.8-1.4 2.6-1.1 4-2 3-2-1.6-.1-1.7-.3-.3-1.6.8-.8 2.3-1.5 3.3-1.6 1 0 1.3-.3.6-.6-1.6-.6-1.7-4-.3-4.5 1-.3.4-3.4-1.8-8.8-.3-.8-.7-2.5-.8-3.6-.1-1.2-1-3.9-2-6-1.5-3.4-1.8-3.6-2.1-1.6-.3 1.2-.9 2-1.4 1.6-.5-.3-.7-.9-.4-1.4.3-.4-.1-1.3-.9-1.9-1.2-1-1.4.3-1.3 8.4M607.2 197.1l-7.1 13.1 3.2-.7c1.8-.3 7.3-1.3 12.2-2 5-.7 9.7-1.6 10.6-2 .9-.3 4.4-.9 7.9-1.3 3.6-.4 6.5-1.2 6.8-2 .2-.6-.2-1.2-.9-1.2s-4.6-2.6-8.7-5.8c-12.8-9.8-14.7-11.1-15.8-11.2-.6 0-4.3 5.9-8.2 13.1M473.5 200.8c-4.7 2.5-7.6 4.4-21.6 14.6l-4.7 3.3 9.8.6c5.4.3 18.4.3 28.9 0 17.9-.6 19.1-.7 19.1-2.5 0-1.1-.4-1.7-.9-1.4s-1.1-.1-1.5-.9c-.3-.8-4.7-4.2-9.8-7.5s-10.2-6.7-11.3-7.5c-2.4-1.9-2-1.9-8 1.3M661.7 202.5c-8.1.6-15 1.4-15.3 1.8-.6.5.1 8.8 3.6 42.7 1.1 10.2 2.2 21.6 2.5 25.5 1 10.6 1.5 11.8 3.2 7 .8-2.2 2.1-6.7 2.9-10 1.5-6.1 4.1-15.3 7.4-26 1-3.3 2.6-9.2 3.6-13 .9-3.9 2.7-10.3 4-14.2 2.2-6.9 4.1-15.4 3.3-15.2-.2.1-7 .7-15.2 1.4M619 209c-9.1 1.6-16.8 2.9-17.2 3-1.5 0 .4 2.8 2.8 3.9 2.3 1 6.7 4.1 19 13.3 4.9 3.7 8.4 4.8 8.4 2.8 0-.5 1.1-3.3 2.4-6.2s2.8-6.9 3.4-8.8c.5-1.9 1.7-5.2 2.6-7.3l1.6-3.7-3.2.1c-1.8 0-10.7 1.3-19.8 2.9M642.2 210.7c-.5 1-1.7 4.3-2.7 7.3s-2.1 5.7-2.5 6c-.3.3-1.6 3.3-2.8 6.7l-2.2 6.1 3.6 7.9c2 4.3 5.1 11.7 6.9 16.5 1.9 4.8 4.2 10.2 5.2 12s2.1 4.2 2.5 5.3c.7 1.9.1-16.9-.7-21.8-.4-2.5-2.1-20.5-3-31.2-1.1-14.7-2.3-18.7-4.3-14.8M598 215.8c0 .8-2.6 17.2-4.5 28.6-.5 2.8-.4 2.8 3.2 2.2 5.1-.8 28.3-8.4 29.9-9.7 1.1-.9.6-1.6-1.9-3.7-1.8-1.5-3.4-2.9-3.7-3.2-1-1.2-19.9-14-21.4-14.6-.9-.3-1.6-.2-1.6.4M453.8 221.7c-11.8.5-11.6 0-5.8 14 2.2 5.4 4 10.2 4 10.6s3.3 8.1 7.4 17c9 20 14.3 32.6 14.8 35.2.2 1.1 1 2.1 1.8 2.3 1.6.3 10.9-19.6 19.6-41.8 2.1-5.2 6.2-14.4 9.2-20.4 2.9-6 5.5-12.2 5.7-13.8l.4-2.8h-9.7c-5.3 0-16-.2-23.7-.4s-18.4-.1-23.7.1M516.4 222.2c-.3.4.3.8 1.2.8 1.4 0 1.5.3.6 1.2-1.4 1.4-1.5 17.3-.1 26.3.5 3.3 1.4 10.4 2.1 15.7.8 7.1 1.5 9.8 2.5 9.8.8 0 1.1-.5.8-1-.3-.6 0-1 .7-1 2.5 0 41.2-42 45.6-49.4.4-.7 1.4-1.5 2.2-1.8s-.1-.6-2-.6-14.7-.2-28.3-.4c-13.6-.3-25-.1-25.3.4M429.5 223.1c-2.7.5-10.8 1.5-17.9 2.4-7.1.8-13.1 1.7-13.4 1.9-.6.7 14.6 25.7 30.2 49.3 1.1 1.8 2.4 2.9 2.7 2.5s1.4-6.1 2.3-12.7c2.9-20.4 4.7-31.8 5.7-36.2 1.5-7.1 1.3-8.3-1.8-8.2-1.6.1-5 .5-7.8 1M440.5 231.2c-.7 4.8-3.6 23.2-5.9 37.9-2.3 13.8-2.4 13.3 3.7 15.9 2.8 1.2 11.6 5.4 19.4 9.3 13.2 6.5 17 7.7 14.6 4.5-.5-.7-1.7-3.8-2.7-6.8-1.1-3-3.5-8.9-5.4-13-7-15.3-15-33.8-18.2-42.3-1.8-4.8-3.6-9-4.1-9.2-.4-.3-1 1.4-1.4 3.7M506.7 238.2c-3 6.2-7.4 16-9.6 21.7-2.3 5.7-6.6 15.6-9.5 22.1-2.9 6.4-5.6 13.3-6 15.3l-.7 3.7 15.2-7.6c8.4-4.2 17-8.7 19.2-10.1l3.9-2.5-.6-8.1c-.4-4.5-1.3-12.3-2.1-17.2-1.8-11.7-2.4-16.8-2.4-23.3-.1-2.8-.5-5.2-1-5.2s-3.4 5.1-6.4 11.2M389.8 242.2c-3.6 6.1-6.4 11.8-6.1 12.7.4 1.6 15.3 11.1 17.4 11.1.6 0 .8-1.1.5-2.8-.9-4.1-3.3-21.4-3.4-23.7-.1-2.5-1-7.6-1.4-8.1-.2-.2-3.3 4.7-7 10.8M400 239.6c0 3.7 3.9 25.4 4.9 27.4.9 1.7 20.1 11.4 20.9 10.5.3-.2-.2-1.3-1.1-2.3-1-1-1.7-2.2-1.7-2.6s-3.4-6-7.6-12.3c-4.1-6.3-7.9-12.5-8.4-13.6-.4-1.2-2.2-3.9-3.9-6.1l-3.1-3.9zM625.8 239.1c-2.3 1.3-23.5 8.6-27.5 9.4-1.8.4-3.3 1.1-3.3 1.7 0 2.6 13.9 12.6 29.1 20.7 10.7 5.8 19.2 10.8 22.8 13.5 1.9 1.4 3.7 2.4 3.9 2.1.5-.5-1-4.8-4.5-12.5-1.4-3-3.8-8.9-5.3-13-1.6-4.1-4.4-11-6.4-15.3-3.7-7.9-5-8.9-8.8-6.6M596 256.5c0 .3 2.6 4.4 5.8 9.2 3.1 4.7 7.6 11.6 9.9 15.2 6.1 9.4 7.5 10.4 14.3 9.7 3-.3 9.7-.5 14.8-.5 5-.1 9.2-.4 9.2-.9 0-.4-1.2-1.5-2.8-2.4-1.5-.9-5.4-3.5-8.7-5.8s-9.4-5.8-13.5-7.9c-9.3-4.6-15.8-8.3-23.2-13.3-3.2-2.1-5.8-3.6-5.8-3.3M592.3 260.6c.3 1.5.1 3.8-.4 5.1-.5 1.5-.5 2.3.2 2.3.6 0 .7.6.1 1.6-1 1.9.8 8.2 2.8 9.4.7.4.9 1.3.5 2q-.75 1.35.3.6c.7-.4 1.2-.2 1.2.3 0 .6-.5 1.1-1.1 1.1-.5 0-.8.4-.5.9.7 1.1 13.6 5.1 16.6 5.1 2.1 0 2.1 0 .3-3.1-1-1.7-3.2-4.6-4.9-6.5-1.8-1.9-3.5-4.2-3.8-5.1-1-2.5-9.6-15.2-10.8-15.9-.7-.5-.9.3-.5 2.2M382.1 264.2c-.5 2.9-1.2 7.8-1.6 10.8-.3 3-.9 6.6-1.2 7.8-.5 2.2-.4 2.3 1.8 1 1.3-.7 2.6-1.6 2.9-1.9s3.7-2.7 7.5-5.4c3.9-2.6 7.6-5.2 8.3-5.8.9-.7-.7-2.3-6.7-6.3-4.4-3-8.5-5.4-9-5.4s-1.4 2.4-2 5.2M404.4 274.2c.3 1.8.8 6.8 1.2 11.1.3 4.9 1.1 8 1.9 8.3 1.3.5 21.5-9.4 21.5-10.6 0-.8-19.2-10.4-22.8-11.5-2.2-.6-2.3-.4-1.8 2.7M393.5 277.7c-3.8 2.5-8.2 5.6-9.7 6.8l-2.7 2.3 6.7 2.9c11 4.8 15.2 5.9 16.2 4.3.5-.8.7-1.7.5-2s-.6-3.4-.9-7c-.8-8.2-1.6-12-2.4-12-.4.1-3.8 2.2-7.7 4.7M499.2 292.9c-10.5 5.3-19.3 10.1-19.6 10.8-.4 1 27.8 13.4 31.3 13.7.9.1 1.9-1.7 2.7-4.9l1.3-5-.6 5.7c-.5 5.6-.4 5.8 1.8 5.9s2.1.1-.5.9c-1.5.5-3.7 1.7-4.8 2.6-2.1 2-14.8 18.8-14.8 19.7 0 .4.9 1.1 2.1 1.7 1.6.9 3.7.6 10-1.5 8.3-2.8 21.9-11 21.9-13.2 0-.7.5-1.3 1-1.3.6 0 1-.6 1-1.4 0-.7.7-1.9 1.5-2.6 2.1-1.7.9-3-2.8-3.1-1.8 0-4.1-.4-5.2-.9-1.5-.6-.8-.9 3-1 5.3-.1 8.9-1.1 8.3-2.3-.4-.9 7.1-4.7 9.4-4.7 2.2 0 3-3 2.6-9.8l-.3-5.3-5.5 3.5c-6.2 4-10.9 7.2-14.8 10.2-3.5 2.6-12.2 7.6-12.2 7 0-.3 5.8-4.4 12.8-9 7.1-4.6 13.5-9.1 14.3-9.8.8-.8 2.3-1.8 3.4-2.2 1.6-.6-.5-1.9-10.5-6.7-6.9-3.3-13.6-6.1-15.1-6.3-1.7-.2-9 2.9-21.7 9.3M426.5 286.7c-1.6.8-4.6 2.3-6.5 3.3-1.9 1.1-5.7 3.1-8.4 4.5l-4.9 2.7 8.4 4.5c4.6 2.4 9.1 5 9.9 5.7 3.3 2.8 8.8 4.6 11.9 4 2.9-.6 3.1-.9 2.6-3.5-.4-1.6-1.9-5.5-3.5-8.7-1.5-3.2-3.4-7.7-4.1-10-1.3-4.6-1.2-4.6-5.4-2.5M433 286.6c0 1.9 4.7 12.4 8.6 19.1 2.3 3.9 4.5 8.5 4.9 10.2s1.1 3.1 1.7 3.1c1.1 0 9.2-4 16.2-7.9 2.1-1.2 4.3-2 5-1.8.6.2-2.3 2.1-6.4 4.1-4.1 2.1-9 4.9-10.8 6.2l-3.2 2.5 7.5 7.6c4.1 4.2 7.5 8 7.5 8.5 0 .4.4.8.9.8s2.4-4.2 4.2-9.3c1.9-5 3.5-8.4 3.7-7.4.2.9-.6 4.3-1.9 7.5-1.2 3.1-2.4 7.4-2.6 9.4-.4 3.3-.2 3.9 1.8 4.6l2.3.9-2.3.6c-1.4.3-2 1-1.6 1.7.6.9.9.9 1.5 0 .4-.7 1.5-1 2.4-.7.9.4 1.6.5 1.6.4 1.6-8.7 2.7-26.2 1.9-27.9-.5-.9-.6-3.8-.2-6.4l.6-4.7-2.8.6-2.9.5 2.3-1.7c2.1-1.6 2.1-1.8.4-3.3-1-.8-2.9-1.9-4.3-2.3s-3.2-1.3-4-1.9c-2-1.7-25.8-12.3-29.2-13.1-1.6-.4-2.8-.3-2.8.1M573 289.7c-4.7 1.3-11 3.1-14 4-6.7 1.8-9.2 3.1-8.5 4.3.3.5.6 3 .7 5.5l.1 4.5h3.8c2.1 0 5.3-.9 7.1-2s4.1-2 5.1-2 4.6-2.6 7.9-5.8l6.1-5.7-3.8 5.8c-2.1 3.1-3.5 6-3.1 6.4 1.2 1.2 16.1 1.8 18.3.8 2.1-1.1 2.1-1.1-1.2-8.3-5.4-11.5-5.1-11.4-18.5-7.5"/><path d="M479 308.7c0 1 .8 3.2 1.9 4.9 1 1.7 2.2 4.1 2.6 5.4s2.3 4.7 4.1 7.6c1.9 2.9 3.4 5.7 3.4 6.2s.7 2.6 1.5 4.7l1.6 3.7 3.8-4.4c2.1-2.4 5.6-6.6 7.6-9.3 2.1-2.8 4.2-5.2 4.7-5.3 2.1-.9.3-2.5-5.9-5.3-7-3.2-23.8-9.9-24.8-9.9-.3 0-.5.8-.5 1.7M478.3 319c.4 3 .7 9.7.7 14.7v9.3h6c7.6 0 7.6-.4 1-13.9-2.7-5.6-5-10.8-5-11.5 0-.8-.7-2-1.7-2.7-1.5-1.3-1.6-1-1 4.1M363 352.9c0 7 .3 15.5.6 18.8l.7 6.1 4.3.6c2.5.3 5.8 1.2 7.4 2.1 1.6.8 4.7 1.5 6.9 1.5 3.7 0 4-.2 3.2-2.2-.4-1.2-2.1-2.7-3.8-3.2-3.6-1.3-8.1-5.9-9.9-10.3-.7-1.7-2.5-4-3.9-5.1-2-1.6-2.7-3.4-3.6-9.6-.5-4.2-.7-8.5-.4-9.6.4-1.2.2-2-.4-2-.7 0-1.1 4.4-1.1 12.9M491.1 367.7c-1.3 4.8-2.7 10.8-3.1 13.3s-2 9.9-3.4 16.5c-2.9 13.3-6.9 39.6-6.1 40.3.5.6 12.1-10.8 20.7-20.3 5.4-6 5.4-6.2 5.1-11.5-.2-3-1.4-10-2.8-15.5-1.3-5.5-2.6-11.1-2.9-12.5-1.7-8.5-3.7-16.4-4.4-17.7-.6-.9-1.6 1.5-3.1 7.4M453.7 369.7c-.4.3-.7 2.4-.7 4.5 0 2.7-.4 3.8-1.5 3.8-.8 0-1.5.4-1.5 1 0 .5-.9 1-2 1s-2 .4-2 .9-1.5 1.6-3.3 2.4c-3.6 1.8-8.7 5.8-8.7 7 0 .5-1.3 2-3 3.4-1.6 1.3-3 3-3 3.7s-.9 2.1-2 3.1c-2.8 2.5-2.5 4.2.8 4.9 5.4 1.2 7 1.4 15.9 2.1 10.5.9 9.4 2.1 11.4-13 .6-5 1.4-9.7 1.7-10.5s.4-2.3.3-3.3c-.1-.9.2-1.7.8-1.7.5 0 .8-1.5.7-3.3-.2-1.7-.4-4-.5-5-.1-1.7-2.1-2.3-3.4-1M365 380.5c1.1 1.3 1.5 1.3 2.1.3.7-1 .9-.9.9.4 0 1-.5 1.8-1.1 1.8s-.2 1.2.9 2.7c3.2 4.5 10.2 18.6 10.2 20.5 0 1 .6 1.8 1.4 1.8 1.3 0 2.8-2.8 4.5-8.5.5-1.7 1.8-5.4 3-8.2l2.1-5.3-8.8-2.7c-4.8-1.5-9.2-2.8-9.9-2.8-.6 0-1.5-.4-1.9-.8s-1.6-.7-2.7-.7c-1.6 0-1.7.2-.7 1.5M629.4 385.7c-.3 1.6-1.3 5.3-2.1 8.3-2.9 10.9-3.1 10 1.8 8.3 2.4-.8 7.7-2.5 11.8-3.6 4.1-1.2 7.6-2.7 7.7-3.2.3-1.1-15.7-12.5-17.5-12.5-.6 0-1.3 1.2-1.7 2.7M387.1 398.1c-1.8 4.4-3.1 8.5-2.8 9.2.4 1 2.5 1.1 8.8.4 10-1 16.2-2.5 15.4-3.7-.3-.4.1-1.1.7-1.3.7-.3.3-.6-.9-.6-1.3-.1-2.3-.6-2.3-1.1 0-.6-.9-1-2-1s-2-.6-2-1.3-.7-.4-1.5.7-1.5 1.4-1.5.8c0-.7-.7-1.2-1.5-1.2s-2.1-1.4-3-3c-.9-1.7-2-3-2.6-3s-.8-.4-.4-.9c.3-.5.2-1.2-.3-1.5s-2.3 3.1-4.1 7.5M543.9 408.5c-.3.2-5.6.7-11.9 1-6.3.4-14.2.9-17.4 1.3l-6 .7 9 9.5c5 5.2 14.9 15.8 22.1 23.5 17.2 18.6 16.3 17.9 16.3 11.9 0-2.7-.7-9.2-1.6-14.4-.8-5.2-1.7-10.9-1.9-12.7-2.2-21.8-2-21.3-5.4-21.3-1.5 0-3 .2-3.2.5M557 409.9c0 1.3 19.9 20.6 21.6 20.9.8.2 2.5-.7 3.7-2 5.4-5.6 11.4-15.3 9.9-16.1-.8-.5-18.8-2.4-28.9-3.1-3.5-.2-6.3-.1-6.3.3M510.5 419c1.6 5.9 11.6 34.5 13.6 38.8 1.1 2.6 2.9 6.9 3.9 9.7 3.1 8.5 6 14.5 7.2 14.5 1.7 0 7.7-4.8 13.9-11 4.6-4.6 5.4-6 4.8-7.8-.4-1.2-8.3-9.9-17.5-19.4-27.3-28.2-26.7-27.6-25.9-24.8M555.6 475.2c-1.1 4-3.4 12-5.2 17.8-1.9 5.8-3.4 10.9-3.4 11.4 0 1.5 4.6-.3 19.5-7.5l14.7-7.1-2.8-3C567.2 474.9 560 468 558.8 468c-.9 0-2 2.5-3.2 7.2M545.5 477.5c-5.8 5.5-8.9 9-8.7 10.1.7 3.6 6.4 14.5 7.4 14.2.6-.2 1.9-2.6 2.9-5.3 2.9-7.5 8.1-25.4 7.7-26.4-.1-.5-4.3 2.8-9.3 7.4M537 498.3c0 .7-1.3 2.4-3 3.8-2.5 2.2-3 2.4-3.4 1-.3-.9-.3 0-.1 1.9.4 3.1-1.5 7.7-2.6 6.5-.3-.2-.9 1.6-1.5 4-.9 4-.8 4.5.7 4.5.9 0 4.1-1.9 6.9-4.3 2.9-2.3 6.1-4.8 7.1-5.6 2.5-1.8 2.4-3.4-.7-8.7-2.7-4.6-3.4-5.2-3.4-3.1M938 116.1c-4.1 1-11.8 2.7-16.9 3.9-5.2 1.1-9.9 2.4-10.4 2.9s3.9 7.2 10.4 15.7c15.8 21 17.2 22.5 18.1 21.6.5-.5 1.8-5.8 2.8-11.8 1.1-6 3.1-15.3 4.5-20.8 1.4-5.4 2.5-10.7 2.5-11.7 0-2.3-1.1-2.3-11 .2M950.6 115.8c-.4.7-.5 1.2-.2 1.2s-.2 2.4-1.1 5.2c-2.7 9.3-7.9 38.5-7 39.4.3.3 1.2.2 1.9-.2.7-.5 2-1 2.8-1.1s6.5-1.6 12.5-3.3c6.1-1.7 13.3-3.7 16-4.5 10.9-3 11.6-1.1-7.2-20.5-11.1-11.4-17.2-17-17.7-16.2M970.5 132.2c8.6 9 16.2 16.6 16.9 17 1.2.7 29.8 2.9 30.4 2.4.5-.6-12.4-8.4-28.3-17.1-8.8-4.9-20-11-24.8-13.7-4.8-2.6-9.1-4.8-9.4-4.8s6.6 7.3 15.2 16.2M989 151.7c0 .2 2.1 4.8 4.6 10.1 2.6 5.3 6.8 14.3 9.5 19.9 2.7 5.7 5.2 10.3 5.7 10.3s1.7-2.8 2.7-6.3c1-3.4 3.7-11.8 6.1-18.7 2.3-6.8 4.1-12.6 4-12.8-.9-.9-32.6-3.3-32.6-2.5M986.5 155.2c.8 2.5.8 2.6.6 4.5-.2 2.6-2.1 1.2-2.1-1.6 0-2.1-.6-3-2.2-3.5-3.5-.9-4.1-.7-2.9.8.9 1.1.6 1.7-1.4 3-1.4.9-3.9 1.8-5.5 1.9-1.7.1-3 .5-3 .9 0 .5-.9.8-2 .8s-2 .7-2 1.6c0 1.1-.6 1.4-2 .9-1.6-.5-2-.2-2 1.5 0 1.2-.4 1.9-.9 1.6-.4-.3-1.7.2-2.7 1-1.8 1.5-1.8 1.5.8 1 1.5-.4 3.8-.1 5.2.6 2.7 1.2 3.5 2.8 1.4 2.8-.7.1 1.2 1.4 4.2 3 5 2.6 6.2 2.8 12.8 2.4 6-.4 7.2-.2 7.2 1.1 0 .8.5 1.5 1.1 1.5.5 0 .8.4.5.9s.6 1.2 2 1.5c2.6.7 6.2 3.5 5.6 4.4-.4.5 4.9 3.4 5.4 2.9.2-.1-1.6-4.3-4-9.2-2.3-5-5.1-10.9-6.1-13.3-1-2.3-2.2-4.2-2.7-4.2-.4 0-.8-.7-.8-1.5 0-1.8-3.7-9.5-4.6-9.5-.3 0-.2 1 .1 2.2M1019.3 165.8c-1.7 4.8-4.5 13.1-6.3 18.6-3.6 11.6-5.2 7.7 13 32.1 7 9.3 14.7 19.9 17.1 23.5 2.5 3.7 4.5 5.8 4.7 4.9.3-1.8-10-41-16.6-62.9-2.8-9.1-5.5-18.4-6.1-20.8-.7-2.3-1.5-4.2-1.9-4.2s-2.1 4-3.9 8.8M1010.5 201.1c.9 3.9 6.3 35 7 40.6.4 2.9 1.2 5.6 1.8 6.1 1.4 1.2 28.6 3.6 29.5 2.7.4-.3.2-.9-.4-1.3s-3.3-3.9-5.9-7.7c-2.7-3.9-6.7-9.4-8.9-12.4-2.3-2.9-5.4-7.2-7-9.5-6.7-9.3-16.7-20.8-16.1-18.5M1001.4 200.9c-1.3 1.3-9.6 6.1-11.6 6.8-1 .3-1.8.9-1.8 1.4s-.7.9-1.5.9c-1.3 0-1.4.4-.4 2.2 2.9 5.8 10.5 16.8 11.6 16.8.7 0 1-.7.7-1.5-.4-1 0-1.5 1.4-1.5 2.5 0 2.8-.5 3.6-5.3.4-2.4.2-3.6-.4-3.2-.6.3-.9-.9-.8-3.2.1-4.4-.6-9-1.5-10-.4-.3.1-1.2 1.1-1.9.9-.7 1.4-1.5 1.1-1.8s-1-.2-1.5.3M1008.8 206.5c-.6 1-3.3 18.5-4.2 27.2-.5 4.5.7 6.2 7.4 10.2 4.4 2.6 5.4 2.6 4 .2-.5-1.1-1.5-6.4-2.1-11.8-1.2-12-4.3-27.1-5.1-25.8M906.2 224.7c.2.5 4 8.2 8.5 17.3s12.4 25.4 17.6 36.2c10.6 22.1 12.3 25.1 13 22.8 1.9-6.1 6.5-69.7 5.1-70.9-1-.8-18.5-3.6-32.9-5.1-10.9-1.2-11.8-1.2-11.3-.3M958.2 232.7c-.9.3.6 4 5 12.3 5.3 10.2 6.4 11.6 7.6 10.4 1-1.1 1.8-1.2 2.7-.4 1.6 1.4 5.9-.5 5-2.1-.4-.5-.3-.9.2-.8 2.2.4 4.1-.3 6.8-2.7 2.1-1.7 2.3-2.2.8-1.5-2.7 1.4-4.3 1.4-4.3.1 0-.5 1.1-1.2 2.5-1.6 1.4-.3 2.5-1 2.5-1.5s.7-.6 1.5-.3c.8.4 1.2 1 .9 1.5-1 1.7 1.2.9 4.7-1.7 2.3-1.7 2.7-2.4 1.3-2-1.3.4-2.6.1-3.4-.9-1-1.2-.9-1.5.5-1.5 4 0 .2-1.2-12.6-3.9-16.1-3.5-20-4.1-21.7-3.4M952.7 241.2c-1.1 13.7-.9 22.8.6 22.8.9 0 .9.2 0 .8-1.9 1.2-3 5.3-3.7 13.7-.3 4.4-.9 10.9-1.2 14.5-.4 3.6-.4 6.3-.1 6 1.8-1.8 17.7-31.4 17.7-32.9 0-1.1.5-2.3 1-2.6.6-.3 1-1.3 1-2.1s-.4-1.3-.9-.9c-.5.3-.9-.7-.9-2.2 0-1.6-2.3-7-5.2-12.2-8-14.6-7.6-14.4-8.3-4.9M1006.1 249.7c1 4.3 2.2 9.4 2.7 11.3.6 1.9 1.3 4.7 1.6 6.2.4 1.6 1 2.8 1.4 2.8 1.1 0 3.2-7.5 3.2-11.7 0-2.1.4-4.4.9-5.2 1.4-2.2.1-4.5-4.3-7.3-7.6-4.9-7.5-4.9-5.5 3.9M1020 251.4c0 .8 1.5 3.6 3.3 6.3 7.7 11.7 7.8 11.8 16.2 27.7 4.1 7.7 7.2 14.3 7 14.7-.3.3.1 1.2.9 1.8 2 1.7 2.2-.3 2.1-26.4v-23l-5.5-.3c-3-.1-8.8-.7-12.8-1.2-9.7-1.3-11.2-1.3-11.2.4M986.8 252.1c-1 .5-1.5 1.6-1.1 2.5.5 1.3.2 1.5-1.5.9-1.4-.4-2.2-.2-2.2.5 0 .6-.4.9-.8.6-.5-.3-2.1.4-3.8 1.5-2.4 1.7-2.5 1.9-.6 1.4 1.5-.4 2.2-.3 2 .5-.2.7.3 1.5 1.1 1.8.9.3 1.1 0 .6-.7-1.1-1.8 2.6-4.1 4.7-3 2.7 1.4 3 1.1 2.3-2.4-.5-2.6-.4-2.9.5-1.4.6.9 1.7 1.4 2.3 1.1.8-.5.8-.3 0 .7-1.8 1.9-1.6 3.9.5 3.9 1.4 0 1.5.2.2 1-1.2.8-1.1 1 .7 1 1.2 0 2.7.8 3.2 1.7.6 1 1.1 1.3 1.1.7 0-1.5 4.5-2.4 6.2-1.3.7.5 1 .9.6.9s-.3 1.1.2 2.4c.6 1.7.5 2.6-.3 2.9-.6.2.4 1.1 2.2 2 1.9 1 3.6 1.5 3.8 1.3.5-.5-1.8-9.9-2.6-10.6-.3-.3-.6-1.1-.7-1.8-.1-.6-.2-2.2-.3-3.5-.1-1.8-.3-2-1.2-.7-.9 1.2-1 1.1-.6-.8.3-1.2.1-2.2-.4-2.2s-.9.5-.9 1.1c0 .8-.5.7-1.6-.2-1.3-1-1.7-1-2.4 0-.9 1.5-4.6.6-6.8-1.5-1.6-1.6-2.1-1.7-4.4-.3"/><path d="M1052.4 255.2c1.1 5.2 1.5 10.2.8 8.4-1.7-4-2.2 1.5-2.2 22.8 0 21.1 0 21.2 2.5 24.6 1.4 1.9 2.5 3.6 2.5 3.9 0 .9-4.9-5.3-5-6.2 0-.4-.4-.7-1-.7-.5 0-1.1 1.7-1.1 3.7-.1 2.1-.5 5.1-.9 6.8-.5 1.8-.6.2-.2-4l.5-7-3.9 3c-4.9 3.7-6.4 5.1-6.4 6.2 0 .5-.5 1.4-1.1 2s-2.6 4.6-4.5 8.9c-2.4 5.7-3 8-2.2 8.5.7.4 4.2.7 7.8.6 6-.2 7.1-.6 14-5.1 8.4-5.4 9.2-6.3 8.4-9-.4-1.3-.2-1.6.6-1.1.7.4 1.1.1.9-.6-.4-3 .3-4.3 1-1.9l.7 2.5 1.7-3.2c.9-1.7 2.3-3.5 2.9-3.9.7-.5.4.5-.6 2.1-4.5 6.8-7.6 13.9-7.6 17.2 0 3.1.2 3.4 1.6 2.3 2.4-2.1 9.9-21.4 8.9-23-.3-.5.4-2.4 1.6-4.4 1.1-1.9 1.8-3.9 1.6-4.4-.3-.4-.7-4.2-.8-8.3s-.8-11.1-1.5-15.5c-.7-4.3-1.3-11.1-1.3-15l-.1-7.1-7.2-2.2c-11.7-3.6-10.9-3.5-10.4-.9M1017.6 255.1c-1.1 3.8-3.8 18.9-3.5 19.7.6 1.4 15.1 13.4 15.6 12.8.6-.5-2.4-10-7.2-23.1-4-10.9-4.3-11.4-4.9-9.4"/><path d="M1023.6 262.5c.9 2.2 2.9 8.1 4.5 13.2 1.5 5.1 3.5 10.6 4.4 12.3 1.4 2.6 12.4 12.4 13.2 11.6.5-.4-14.6-27.6-17.3-31.1-1.3-1.8-2.4-3.6-2.4-4.1s-1-2-2.1-3.4l-2-2.5zM967.6 268.9c-1.9 3.8-4.5 8.6-5.9 10.7-3.8 6.2-11.8 21.7-11.3 22.2.7.6 9.1-2.7 30.2-12.1 22.8-10.2 27-12.3 28-13.9.4-.7.4-1-.1-.6-.4.4-1.4.3-2-.2-2.2-1.8-12.5-4.9-14.2-4.3-1.5.6-1.4.7.2 1.3 2.1.7 2.6 0-6.4 8.4-3.2 3-5.6 3.3-7 .8-1.1-2 .6-4.7 2.9-4.7.8 0 1.5-.8 1.5-1.8s1-2.6 2.3-3.5c2.2-1.7 2.2-1.9.5-3.4-1.5-1.2-13-5.8-14.8-5.8-.2 0-2 3.1-3.9 6.9M1015.6 288.2c1.3 5.7 2.6 11.3 2.9 12.6.7 3 2.1 2.1 8.1-5.1 3.8-4.7 4.5-6 3.3-6.8-.8-.5-1.7-.9-2-.9s-3.4-2.3-6.8-5c-3.4-2.8-6.6-5-7.1-5-.4 0 .3 4.6 1.6 10.2M1008.6 285.5c-1.5 2.5-2.4 5-2 5.7.4.6.3.8-.3.5-1.5-.9-2.4 1.9-1.7 5 .5 2 .3 2.4-1.2 2.1-1.1-.2-1.9.3-2 1.2 0 .8-.6 2.8-1.2 4.3-.7 1.6-1.2 3-1.2 3.3 0 .8 2.4.4 10.2-1.7l7.9-2.1-.5-3.2c-.3-1.7-1.2-5.4-2.1-8.1-.9-2.8-1.8-6.3-2-7.9s-.6-3.1-.8-3.3c-.3-.2-1.7 1.7-3.1 4.2M1033.5 295.2c.5 3 .1 2.7-1.2-1.2-.3-1.1-2 .2-5.8 4.5-2.9 3.2-5.1 6.3-4.9 6.7.5.7 6.6 4.8 12.3 8.2 1.1.7 1.3-.5.8-7-.4-5.8-.3-6.8.3-3.9.5 2.2.9 5.7.9 7.7.1 2.4.6 3.8 1.4 3.8 1.7-.1 9.7-7.8 9.7-9.5 0-.8-1.6-2.7-3.6-4.2s-4.9-4-6.4-5.6c-3.6-3.5-4.1-3.4-3.5.5M1006 309c-5.8 1.5-11.2 3-12 3.4-1.5.7-12 15.4-12 16.9 0 .5.6.5 1.3 0 1.6-1 1.8-1 7.7-1.2 4.8-.1 5-.2 5-2.9 0-1.5-.4-4.2-.9-6-.5-1.7-.6-3.2-.2-3.2.5 0 1.1 1.7 1.5 3.9.7 4.5 2.1 5.8 5.7 5.6 3-.2 6.8-4.2 11.7-12 1.8-2.8 3.2-4.5 3.2-3.8 0 .6-2 4.4-4.5 8.4-4.9 7.9-5.7 10.3-2.5 7.4 1.7-1.5 2-1.6 2-.3 0 1 1.9 2.1 5.3 3l5.2 1.5.5-3.1.5-3.1 1.4 3.2c.7 1.8 1.8 3 2.3 2.7.6-.4.8.2.3 1.5-1.4 4.4.6 1.8 4.5-5.9 2.2-4.5 3.8-8.5 3.6-8.9-.3-.5-3.7-2.8-7.6-5.1-5.2-3.2-7.4-4-8.2-3.2s-1.4.8-2.2-.2c-.9-1.1-3-.9-11.6 1.4M946.8 308.1c-.9.5-1.9 2.6-2.3 4.7-.7 4.2-2.5 7.9-2.5 5.2 0-.8.4-3 .9-4.8.8-2.5.7-3.2-.4-3.2-2.1 0-41.8 20.4-42.2 21.7-.4 1.2 30.4 17.3 33.1 17.3 1.3 0 4.6-8.5 4.6-12.1 0-.7.3-1 .6-.7s0 3.4-.6 6.8-1 6.4-.8 6.5c.4.4 21.6-2.3 24-3.1 1-.3 1.8-1.5 1.8-2.6 0-2.4-4.2-12.3-8.3-19.2-1.5-2.7-2.6-5-2.4-5.3.4-.4 7.4 11.8 11.6 20.2.8 1.6 1.6 2.4 1.9 1.7.2-.7.9-1.2 1.6-1.2.6 0 3-1.9 5.3-4.3 5.9-6 18.3-21.9 18.3-23.2 0-.8-3.4-1.4-9.7-1.9-8.5-.5-17.8-1.5-29.8-3-1.7-.2-3.8 0-4.7.5M1050.6 333.8c-5.2 3.4-6.3 4.8-10.2 12.7-2.5 4.9-4.2 9.5-3.9 10.2.3.9 1.7 1.3 3.7 1.1l3.3-.3.5-8 .5-8 1.3 6.4 1.4 6.4 1.5-2.9c9.3-17.9 10.7-21.4 8.5-21.4-.4 0-3.4 1.7-6.6 3.8M898.4 351.6c.5 9.9.8 18.4.9 19 .1 1.5 6.4-1.9 16.7-8.8 6.9-4.6 9.5-7.4 9.1-10 0-.4 1.2-.6 2.7-.4s2.1.1 1.5-.1c-.7-.2-1.3-.8-1.3-1.3s-6.8-4.3-15.2-8.5l-15.1-7.7zM945.1 350.1c-3.5.4-6.9 1.3-7.4 1.8-1.2 1.2 11.8 15.8 22.5 25.3l7 6.2-.7-6.4c-.4-3.6-1.1-6.7-1.6-6.8-.5-.2-.9-1-.9-1.8 0-.9-.4-1.3-.9-.9-.6.3-.6-.7 0-2.7.5-1.7.5-3.4.1-3.7-.5-.4-.8-3.2-.7-6.4l.1-5.7-5.5.1c-3.1.1-8.5.5-12 1M922.7 360.3c-5.3 3.4-12.3 7.8-15.4 9.8-5.4 3.3-7.7 5.9-5.4 5.9 1 0 26.4 15.2 29.1 17.5.8.7 3.6 2.4 6.1 3.9l4.6 2.6-.4-2.7c-.6-4-3.3-18.4-3.9-21.2-.4-1.8-.8-2.1-1.3-1.2-1.2 1.9-4-2.4-3.5-5.2.2-1.2.2-1.6-.2-1-.3.7-1.4 1.3-2.5 1.3-1 0-1.9.4-1.9 1 0 .5-.4 1-1 1-2 0-.9-3.1 1.4-4 1.3-.5 3.1-1.8 3.9-3 1.1-1.5 1.6-1.8 2-.8.3.7.5-1.3.4-4.5 0-3.4-.5-5.7-1.1-5.7-.6.1-5.5 2.9-10.9 6.3M937 356.8c0 .6.5 1.4 1 1.7.6.4.8 1.1.4 1.6-.3.6-.1 4 .6 7.7 2.7 15.4 3.3 18.7 3.8 19.5.2.5.5 3.1.6 5.7.2 6.2 1.6 7.8 1.7 1.9 0-3.8.2-4.1 1-2.1 1.1 2.9 3.5 2.3 3.2-.7-.3-2.2 1.8-2.8 5.1-1.5 1.2.5.3 1.5-3.6 4.1-5.9 3.9-4.2 3.8 2-.1 3.4-2.1 3.9-2.9 3.4-5.2-.3-1.8-.1-2.5.6-2 .6.3 1.7-.1 2.6-1 1-.9 2.5-1.3 3.8-1 1.6.4 1.4.2-.4-.6-1.6-.7-2.8-1.6-2.8-2.1 0-.4.4-.5 1-.2.5.3.7 0 .5-.7-.3-.7-1.5-1.9-2.6-2.6-1.6-1-1.9-1-1.3-.1.5.9.2 1-1 .6-1-.4-2.1-.7-2.4-.7-.4 0 0-.5.8-1 1.2-.8.5-1.9-3.9-6.4-3-3-5.9-5.2-6.4-4.9-.6.3-.7.1-.4-.5.4-.5-.9-3-2.9-5.4-4.6-5.5-4.4-5.3-4.4-4M1023.7 384.7c-.2.5-1.2 3.9-2.1 7.8-1 3.8-2.2 8.6-2.7 10.6-1.9 7.3-1.7 7.5 7.6 9.4 4.7 1 8.8 1.6 9 1.3.3-.3-.6-6.1-2-12.9-3.2-15.2-3.4-16.1-4.5-15.4-.5.3-1.1.1-1.5-.5-.7-1.2-3.2-1.3-3.8-.3M974.6 390.2c1.7 2.7 4.3 5.5 12.6 13.8 7.5 7.4 8.8 8.3 9.2 6.5 1-3.7.6-13.4-.6-14.1-.6-.4-.8-.3-.5.3.4.6-.2 1.3-1.3 1.6s-2 .1-2-.4-2.1-.9-4.7-.9c-5.8 0-8.6-1.4-6.3-3.1 1.2-.9 1.1-1-.7-.6-1.3.3-2.4-.1-2.7-1-.3-.7 0-1.3.7-1.2.6.1 2.1 0 3.2-.1 1.5-.2 1.2-.4-1-1-4.8-1.2-6.7-1.1-5.9.2M971 392.8c0 .6.5 2.3 1.2 3.9 1.4 3.4 1.2 2.9 2.1 8.4.8 4.4.9 4.6 6 6.2 2.9.9 7.2 1.9 9.7 2.2l4.5.6-8.4-8c-4.6-4.5-9.1-8.1-9.8-8.1-.8 0-1.2-.4-.9-.9.3-.4-.6-1.9-1.9-3.1-1.4-1.3-2.5-1.8-2.5-1.2M952.8 397.6c-3.2 2-5.8 3.9-5.8 4.3 0 .5 2.8 1.4 6.3 2 3.4.7 9 2.1 12.5 3.2 3.4 1 6.5 1.9 6.7 1.9 1.1 0 .4-2.9-1-4.3-.8-.8-1.1-1.8-.7-2.1.3-.4-.2-.4-1.3 0-1.1.5-1.4.9-.7 1.2 1.4.4 1.6 2.2.3 2.2-1.8 0-2.2-3.4-.5-4.7 1.3-.9 1.4-1.8.7-4-.8-2.4-1.4-2.8-4.4-2.5-1.9.2-4.2.6-5.3.9q-1.8.45-1.2-.6c1-1.6.8-1.5-5.6 2.5M1000.2 399.3c-.5.6-1.2 4.3-1.5 8.1l-.6 6.8 4.2-.6c5.7-.9 11.7-2.8 11.7-3.6 0-.9-9.3-10-11.3-11.1-.9-.6-1.9-.4-2.5.4M1052.5 449c-7.7.3-13.5.8-12.8 1.3 3.4 2.2 12.4 6.5 16.9 8.2l5.1 1.8 7.9-4.3c4.3-2.4 9-5.2 10.3-6.2 2.7-2 3.1-2-27.4-.8M1037.9 481.7c0 3.7-.6 12.9-1.2 20.4l-1.2 13.7 7.5-5.2c4.1-2.8 7.6-6 7.8-7 .3-1.1 0-1.6-.7-1.2-.7.5-1.1-.1-1.1-1.5 0-1.8-.3-1.9-1.5-.9s-1.3.7-.6-1.7c.8-2.9.6-4.3-1-7.8-.5-1.1-2-4.9-3.3-8.5-3.2-8.7-4.6-8.9-4.7-.3M356.5 167.1c-1.6.6-4 1.2-5.3 1.5-2.7.5-34.8 11.2-46.8 15.6l-8.1 2.9 3.4 12.1c2.8 10.2 3.9 12.6 6.6 14.9 2.4 2.2 2.8 2.9 1.5 2.9-1 0-1.8.3-1.8.7 0 1.4 4.3 15.8 4.9 16.5.3.4 5-5.5 10.3-13 19.1-26.9 27.3-38.1 37.8-51.2 3.2-4.1 2.8-4.6-2.5-2.9M286.5 192.3c-1.7 1.2-9.8 6.5-17.9 11.7-8.2 5.2-16 10.5-17.5 11.7l-2.6 2.2 3.4 2.8c1.9 1.5 4.8 4 6.4 5.6l2.8 2.8 2.2-2.7c2.2-2.7 5.4-6.9 15.1-19.5 2.7-3.5 6.9-8.8 9.4-11.7 4.5-5.4 4-6.6-1.3-2.9M292.5 196.7c-1 3.8-2.2 7.6-2.7 8.6-.8 1.5-9.4 29.7-10.9 35.7-.3 1.1.3 1.4 2.1 1.2 3.6-.5 27.4-5.2 27.7-5.6.2-.1-.4-2.5-1.2-5.2-.9-2.7-1.8-6-2.1-7.4s-1.2-3.5-2-4.7-1.4-3.1-1.4-4.2c0-1.7-6.6-24.1-7.4-24.8-.2-.2-1.1 2.7-2.1 6.4"/><path d="M284.2 201.2c-3.9 5.1-10.5 13.8-14.8 19.2-6.4 8.3-7.5 10.1-6.2 11 2.8 2.1 8.3 7.2 9.8 9.1.8 1.1-1.5-.6-5.2-3.8l-6.6-5.8-2.3 4c-1.2 2.3-2.4 3.9-2.7 3.7-.2-.2.7-2.2 2-4.4l2.3-4.1-2.5-2.6c-3.1-3.4-8-6.9-8.6-6.2-.7.7-1.8 29.7-1.1 29.7.4 0 2.1-2.5 3.8-5.5 1.7-3.1 3.3-5.4 3.6-5.1.2.2-1.3 3.4-3.5 6.9-3.4 5.5-3.7 6.7-2.4 7 1.5.4 1.5.5 0 .6-2.5.1-2.3.7 2.1 5.4 2.2 2.3 5.2 5.7 6.9 7.6l2.9 3.3 3-5.3c1.6-3 4.5-8.5 6.2-12.2 1.8-3.8 3.5-6.6 3.8-6.3s-2.2 6-5.6 12.6c-4.4 8.6-6 12.8-5.6 14.3 3 10.2 9.9 31.4 10.5 32 .4.4 1-12.9 1.3-29.5.4-19.6.3-30.4-.3-30.6-1.4-.5-1.2-1.8.6-3.6s17-49.4 16-50.3c-.2-.2-3.5 3.8-7.4 8.9M238.6 292.6c.3 1.6 2.1 7.4 3.8 12.9l3.2 10h4.5c2.4-.1 7.8-.4 11.9-.7 5.3-.5 4.2-.2-3.5.9-6 .9-11.3 2.1-11.7 2.7s-1 .7-1.4.3c-.9-.8-6.3-18.4-7.1-23-.4-1.8-1-2.6-1.9-2.3-.8.3-1.1 0-.7-1 .3-.7.1-1.4-.4-1.4-1.7 0-6.3 9.6-6.3 13.1 0 2.5-.3 3-1 1.9-1.7-2.7-2.5.2-2.4 8.8.1 9.3 2 18.4 3.3 16.3.6-.9 1-.8 1.5.5.4 1 .2 2.1-.5 2.4-1.5 1-.2 6.7 1.7 7.4 1.5.6 1.8-1.1.8-3.9-.6-1.3-.9-1.4-1.6-.3-.7.9-.8.8-.6-.7.5-2.9 3.2-2.5 3.8.5.4 2 1.2 2.6 3.9 2.8 3.3.3 3.4.3 2.7-2.9-.3-1.8-1.7-5.7-3.1-8.6-1.3-2.9-2.2-5.3-1.9-5.3.5 0 3.7 6.8 5.9 12.5.7 1.7.9 1.5 1.5-1.5l.7-3.5.2 3.6c.1 3.9 1.6 6 3.8 5.2.8-.3 2.7.4 4.3 1.6 1.6 1.1 3.3 2.1 3.9 2.1.5 0 1.2.7 1.5 1.6.4.9.9 1.4 1.2 1.1s-.2-2.1-1.1-3.9c-1-1.8-2.1-4-2.5-4.8s-2.1-4.1-3.9-7.3c-5.9-10.6-2.6-6.9 4.3 4.8 3.7 6.3 6.9 11.5 7.2 11.5s1.4-1.9 2.5-4.3c1.1-2.3 1.7-3.1 1.4-1.7-1.9 8.3-1.9 8.6 1.1 9.8 3.5 1.5 13.6 3.4 14.2 2.8.7-.7-6.2-34-7-34.4-.5-.2-.8-1.1-.8-2 0-1-2.9-3.7-6.7-6.2-3.7-2.5-10.1-7-14.2-10-4.2-3.1-9.3-6.6-11.4-7.9l-3.8-2.3zM276.5 318.2c.6 2.5 3.9 18.9 5.7 28 .6 3.2 1.5 5.8 2 5.8 1.1 0 14.7-7.4 21.7-11.8 4.5-2.9 5.1-3.6 4-4.8-1.7-1.6-32-19.4-33.1-19.4-.5 0-.6 1-.3 2.2M308.9 339.8c-1.3 1-7 4.5-12.7 7.6-5.6 3.2-10.4 6.2-10.7 6.6-.4.6 6.7 7.3 16.9 15.8l3.9 3.3 1.2-2.8c.7-1.6 2-8.2 2.9-14.8s1.9-13.2 2.2-14.8c.5-3.2-.4-3.4-3.7-.9M267.3 356.7c.2 2.7.8 5.8 1.2 6.9.5 1.8.1 2.3-2.3 3.2-2.6.9-3 1.6-4 7.8-.6 3.7-1 6.9-.9 7.1.5.4 7.3-8.9 9-12.3.9-1.7 2.3-3.7 3.3-4.5 2-1.7 7.4-8.9 7.4-9.9 0-.7-10.7-3-13.4-3-.4 0-.6 2.1-.3 4.7M282.3 361.7c-2.3 10.7-8.6 33.9-9.5 34.8-.7.7-.8.3-.4-1 .5-1.7 2.4-9.9 7.6-33l.9-4-2 2.5c-1.1 1.4-4.1 5.4-6.6 9-2.6 3.6-6.2 8.4-8.1 10.8l-3.4 4.3 4.4 5.7c2.3 3.1 4.9 6.2 5.7 6.8 1.6 1.2 3.7.2 11.6-5.7 2.2-1.6 5.7-4.1 7.8-5.5 8.2-5.4 15.8-11.7 15-12.4-3.8-3.6-20.6-17-21.2-17-.5 0-1.3 2.1-1.8 4.7M228.3 381.6c-1.3 1.9-5 9.4-8.4 16.7s-8.4 17.6-11 23.1c-2.7 5.4-4.9 10.3-4.9 10.8 0 1.4 31.6-20.4 32.2-22.2.3-.9-.9-28.2-1.3-30.8-.5-2.5-4.4-1.1-6.6 2.4M251 388.8l-4.5 1.8-.8 6.9c-.4 3.8-.6 7.4-.4 7.9.2.6 2.3-2.2 4.6-6.2 4.1-6.7 6.1-9.3 6.1-7.6 0 .4-1.1 2.2-2.5 4s-2.5 3.5-2.5 3.9c0 .3-1.1 2.3-2.5 4.5s-2.5 4.2-2.5 4.5c0 .9 3.8-.1 5.4-1.4 2.7-2.2 7-20.2 4.7-20-.3 0-2.6.8-5.1 1.7M226.8 418.9c-4.8 3.6-11.9 8.8-15.7 11.5-3.9 2.7-6.8 5.2-6.6 5.6.8 1.3 29.9 3 31.1 1.8.7-.8 1.2-24.8.5-25.2-.3-.1-4.5 2.7-9.3 6.3M424.1 535.5c2.9 4.4 10.3 12.5 11.2 12.5.3 0 3.2-2.2 6.4-5 3.2-2.7 6.5-5 7.3-5.1 3.1-.1-23.2-6.9-26.8-6.9-.6 0 .2 2 1.9 4.5M445 542.5c-.7.8-1.8 1.5-2.5 1.5-.8 0-2.3 1.2-3.5 2.7l-2.1 2.7 3.3 1.8c1.8.9 4 1.7 4.9 1.8.9 0 2.2.6 2.8 1.4.6.7 4.4 2.1 8.4 3.1 3.9 1 9.4 2.6 12 3.6 2.6 1.1 5 1.9 5.2 1.9.3 0 .5-2 .5-4.5s-.4-4.5-1-4.5c-.5 0-1.7-1.4-2.6-3.2-1.5-2.9-1.5-3.2.1-4.4 1.4-1.1.8-1.3-4.2-2-3.2-.3-6.7-1-7.9-1.4-1.1-.5-3.2-.6-4.7-.3-2.2.4-2.9 1.3-3.8 5-.7 2.4-1.7 4.2-2.3 4-1.5-.5-.9-5.4 1.1-8.3 1.4-2.3 1.4-2.4-.5-2.4-1.1 0-2.5.7-3.2 1.5M458.1 600.3c4.5 4.7 12.2 10.6 13.2 10 .6-.3.7-.2.4.4-.6 1 2.3 4.2 5.3 5.8 1.1.6 1 .3-.2-1.2-1-1.1-1.8-2.4-1.8-2.9s.5-.2 1 .6c1.6 2.6 3.3-.4 4.1-7.2.4-3.5.5-6.5.2-6.8-.2-.3-5.9-.7-12.5-.9l-12.1-.3z"/></svg>