<svg xmlns="http://www.w3.org/2000/svg" width="1706.667" height="960" viewBox="0 0 1280 720"><path d="M0 360v360h670.6l2.3-4c1.2-2.2 2.6-4.2 3.1-4.5 1.2-.7.2 2.3-1.7 5-.7 1.1-1.3 2.3-1.3 2.7 0 .5 10.8.8 24.1.8h24.1l-11.6-11.1c-6.4-6.2-11.4-11.4-11.2-11.7.3-.2 6 4.8 12.7 11.2l12.1 11.6H1280V0H0zM502 48.9c0 .5 3.3 1.9 7.3 3 3.9 1.2 9.5 3 12.2 4.1 13.4 5 54.9 18.1 56.1 17.6.8-.3 1.4.1 1.4.8 0 .8.8 1.6 1.8 1.9.9.3 10.4 4.1 21 8.6 23.7 9.8 24 9.9 35.7 8.8l7-.6-5.3 1.7c-3 .9-5.3 2.1-5.3 2.5 0 1.6 10.6 8.3 24.4 15.5 7.5 4 13.8 7.2 14.1 7.2.2 0 .2-1 0-2.3-.3-1.3.1-.9 1 1.1 1.4 3 1.4 3.8-.9 11-1.3 4.2-4.9 16.2-8 26.7-3.1 10.4-7.2 24.1-9.1 30.3s-3.2 11.7-3 12.1c.3.4 2.7.4 5.3 0s6.4-.8 8.3-.7h3.5l-4 .9c-2.2.4-5.6.8-7.6.8-6.7.2-7.2 1.2-7.2 15.7v12.9l-.8-11c-1.3-17.6-.5-15.9-7.4-15.6-11 .5-26.6 1.9-27.2 2.4-.3.3 0 6.1.7 12.9.6 6.8 2 22 3.1 33.8 2.8 31.8 3.1 34.2 4 33.3 1.1-1.2 12.4-36.1 22.1-68.5 1.3-4.3 2.6-7.8 3-7.8.3 0 .4 1 .1 2.2-.5 2.4-9.8 32.3-15.8 50.8-1.9 5.8-4.3 13.4-5.4 16.9-1.2 3.6-2.1 7.7-2.1 9.1s-.5 3.1-1.1 3.7c-.8.8-.4 1.5 1.3 2.8l2.3 1.7-2.5-.7c-1.4-.4-3.6-1.9-5-3.4-1.4-1.6-4-3.7-5.9-4.7-1.8-1.1-4.1-2.4-5-2.9-2.6-1.6-14.2-8.1-20.1-11.2-3-1.7-9.6-5.3-14.7-8.1-5-2.9-9.4-5.2-9.7-5.2s-.6.7-.6 1.5.4 1.5.8 1.5 2.3 2.6 4.2 5.7c1.9 3.2 4.7 7.1 6.1 8.8 1.4 1.6 2.8 3.4 3 4 .2.5 1.8 3.2 3.4 5.9l3 4.8 17-.7c17.6-.7 22.7 0 6.9 1-20.9 1.2-23.4 1.6-23.4 3.3 0 1.2-.5 1.1-2.5-.8-1.8-1.7-5.4-2.9-13.2-4.6-6-1.2-12-2.5-13.5-2.9-1.6-.4-2.8-.3-2.8.1 0 1.3 7.8 16.1 10.5 20.3 3.7 5.3 5.8 5 10.7-1.4 2.3-2.9 4.4-5.3 4.5-5.1.2.2-1.2 2.9-3.2 6.1-4.1 6.9-4.3 8.5-1.2 8.5 3.1.1 6.9 3.3 8.3 7.2.7 1.9 1.3 2.5 1.3 1.5.1-1 .6-1.5 1.2-1.2.6.4.8 1.3.5 2.1s1.7 2.7 5.6 5c6.9 4.2 7.9 4 11.6-2.2 2.5-4.1 2.4-3.4-.2 2.8l-1.6 3.7 4.8 1.5c2.6.8 6.3 1.7 8.2 2 1.9.2.4.3-3.5.1-3.8-.2-8-.7-9.2-1.1-2.1-.6-2.3-.3-2.3 3.8 0 2.5.3 7.9.6 12 .7 7.4.7 7.5 3.3 7 1.4-.3 3-1.1 3.4-1.8 1.2-2.1 3.4-1.7 4 .8.6 1.9 1 1.7 5-2.8 11.2-12.6 11.1-12.5 9.9-14.5-1-1.6-.9-1.9.3-1.9.9 0 1.6-1 1.6-2.8l.2-2.7.4 2.7c.5 3.5 1.4 3.5 5.5-.1 6.9-5.9 18.8-13.4 18.8-11.7 0 .2-3.5 2.6-7.7 5.4-9.1 5.9-14.6 10.9-13.7 12.4.4.6 1 .5 1.6-.3.7-1.1.8-1.1.6.1-.3 1.5 4.6 7.8 13.9 17.9 3.6 3.8 4.5 4.3 5.3 3.1.7-.9.9-9 .8-21.8-.3-18.1-.5-20.5-2-21.3-1-.5-2.3-2-2.9-3.2-1.1-2.1-1.1-2.1.7-.6 4.8 4.1 4.7 5 4.1-24.2l-.5-27.4.9 22.5c1.1 25.5 1.7 33 2.8 33 .5 0 6.5-3.6 13.5-8.1s13-7.9 13.3-7.6c.2.3-1.5 1.8-3.9 3.3-2.3 1.5-6.5 4.1-9.3 5.9-2.7 1.8-6.9 4.3-9.2 5.6-2.4 1.3-4.6 3.1-4.9 3.9-.9 2.2-2 42.1-1.2 42.6.4.3 2.2-1.2 4-3.2s4-4.4 4.9-5.3 5.1-5.6 9.3-10.4 7.6-8.2 7.6-7.6c0 .7-1.9 3.3-4.2 5.8-13.7 14.9-19.3 21.4-19.6 22.2-.2.5 3.5 2.8 8.2 5s8.6 4.2 8.6 4.4-3.7-1.2-8.2-3.1c-4.6-2-8.8-3.8-9.5-4.1-1.3-.5-2.6 3.8-7.2 23.2-1.7 7.1-3.6 14.4-4.1 16.1-.6 1.7-1.1 4.8-1.1 7l-.2 3.9-.6-3.5-.6-3.5-1.2 3c-.6 1.6-1.4 3.9-1.8 5-.5 1.4-.9 1.6-1.2.7-.6-1.5 1.2-5.6 3.5-8.4.7-.9 1.2-2.7 1-4s.2-2.8.8-3.3c.7-.6 2.8-7.5 4.8-15.5s3.9-15.5 4.2-16.8c.9-3.2-.5-2.7-5.6 1.9-8.5 7.7-16.5 14.5-20.2 17.2-2.1 1.6-3.8 3.5-3.8 4.3 0 1.2-1.1 1.8-3.1 1.6-1-.1-17.2 4.5-23.4 6.7-3.3 1.2-7.4 2.3-9 2.5-1.7.2-7.7 1.4-13.3 2.7l-10.4 2.3.6 3c.6 2.7.5 2.8-.7 1.2s-1.4-1.6-4 .9c-2.7 2.8-8.7 13.8-8.7 16.1 0 .8 1.7 2.3 3.8 3.4 2 1.2 2.8 1.8 1.7 1.4-4.2-1.6-9.6-.7-12.8 2.3l-3.2 2.8 2.8-3.1c1.5-1.6 2.7-3.8 2.7-4.7s-4.1-5.6-9.2-10.4-10.7-10.2-12.5-12c-1.8-1.7-3.3-2.8-3.3-2.5 0 .9 2.8 27.7 4 38.2.5 4.7 1 9.1 1 9.7 0 2.6 2.8 1.2 5.4-2.7 1.4-2.2 2.9-4 3.1-4 .7 0-1.2 3.6-3.7 7.2s-1.7 3.6 9.7.3c4.8-1.4 8.9-2.4 9.1-2.2s-4.1 1.8-9.6 3.6-10.3 3.8-10.6 4.3c-.7 1.2 20.6 22.8 22.3 22.8.6 0 2.3-2 3.7-4.4 4.2-7.2 4.9-6.3 1 1.1-3.1 5.8-3.4 7-2.4 8.8 1.2 1.9 1.2 1.9-.7.3-1.1-1-2.7-1.8-3.7-1.8-2.6 0-33.6 16-33.6 17.3.1.7 2.4 4.3 5.3 8.1 7.4 9.7 8.6 11.8 3.8 6.6-2.3-2.5-5.5-6.6-7.2-9.2-3-4.6-6-6.1-7.4-3.8-.3.5-5 4.5-10.3 8.7-5.3 4.3-9.8 8.1-10 8.5-.7 1.6-3.5.6-16.9-5.9-8.9-4.3-15-6.7-17.3-6.7-1.9 0-6.8 1.2-10.8 2.7l-7.3 2.7-6.6-3.4-6.7-3.5-3.5 2.1c-2 1.2-4.3 2.7-5.2 3.5-1.8 1.5-2.9 1.7-2.9.5 0-.5 1.7-1.8 3.8-3 7.6-4.2 7.7-4.5 6.3-19.3-.7-7.2-1.1-13.3-.8-13.5.3-.3.8 2.6 1.2 6.3.3 3.8 1 8.4 1.4 10.3.7 3.2.8 3.3 1.8 1.5.6-1.1 1.6-5.2 2.2-9 .7-3.9 1.9-8.1 2.6-9.5 1.3-2.4 1.4-2.3.9 1.5-.3 2.2-1 6.4-1.5 9.4s-.7 5.7-.4 5.9c.3.3.5 0 .5-.7 0-1.6 9.1-14.1 10.2-14.1.4 0 .8-1 .8-2.1 0-1.8.6-1.4 3.3 2.2 1.9 2.4 3.6 5.1 4 5.9.5 1.3.6 1.3.6 0 .1-.9-.5-2.2-1.1-2.9-1.1-1.1-.9-1.1 1.1-.1 2.1 1.1 2.3 1 1.8-.3-.3-.9-.1-1.7.6-2 .6-.2 1.1-2.2 1.1-4.5.1-4.2 1.4-5.2 5.1-4.2 2.4.7 10-.2 10.7-1.3 1.2-1.8 1-2.5-.9-3-1.1-.2-.2-.8 2.4-1.6 2.3-.6 4.9-1.8 5.8-2.7 1.3-1.4 1.5-1.3 1.5.6 0 1.8.4 2 2.2 1.4 3.7-1.2 10.2-1.3 11.6-.2.6.6 1.2.7 1.2.2.1-.5.7.2 1.5 1.6l1.5 2.5-.6-3c-.3-1.7-.9-4.1-1.4-5.5-.4-1.4-1.6-5-2.5-8-1.6-5.3-2.7-8.1-6.5-16.5-1-2.2-2-4.7-2.3-5.5-.3-.9-.6-.6-.6.9-.1 3.3-1.2 2-2.2-2.6-5.4-25.2-3.5-24-17-10.3-13.3 13.4-15.6 16.1-15.6 18.3 0 1.7 1.7 2 17.7 3.2 4.1.3 9.7.8 12.3 1.2l4.9.6-.6-3.7c-.3-2-.2-3.6.3-3.6.9 0 2.2 9 1.4 10.3-.3.5-1 .1-1.6-.8-1-1.2-4.5-1.7-16.7-2.5-8.5-.5-16.8-1-18.5-1h-2.9l4.4 4.3c2.5 2.4 6.4 6.1 8.7 8.1l4.2 3.7 5.3-3.3c15.7-9.9 19.6-11.1 5.9-1.8-8.5 5.8-9.9 7.9-5.3 8.1 1.5.1 2 .3 1.2.5-.8.3-4.6 0-8.5-.4-3.8-.5-5.8-1-4.3-1.1 1.5 0 2.9-.5 3.2-1 1.2-1.8-15.3-15.1-18.7-15.1-1.5 0-3.2 1.5-5.2 4.5-3.6 5.4-4.5 5.2-1.3-.3 1.2-2.3 2-4.4 1.6-4.7-.9-.9-17.8-.9-18.7 0-.6.7 2.8 3.9 6.5 6.2 1.8 1.1 1.8 1.1-.3.6-1.2-.3-3-1.3-4.1-2.4-1.9-1.7-2.1-1.7-2.5-.1-.3 1.1-.7.6-1.2-1.6-.4-1.8-1.4-3.2-2.3-3.2-1.1 0-1.3-.8-.8-3.8.3-2 .6-4.9.6-6.4s.7-3.3 1.5-4.2c1.7-1.7 2-4.6.5-4.6-.5 0-1 .4-1 1 0 .5-.5 1-1 1-.6 0-.1-1.7 1-3.7 1.1-2.1 2-4.3 2-4.8 0-.6.9-3 2-5.3 1.1-2.2 2-5 2-6.2 0-1.1.4-2 .9-2s1.2-1.5 1.6-3.3c.3-1.7 1.2-5.9 2-9.2s1.7-8.6 2-11.7c.3-3.2.6-6.3.7-7 .6-2.6-4-1.8-7.9 1.4-2.2 1.8-5.4 4.4-7.1 5.7-1.8 1.3-5.1 4.9-7.4 8s-5.3 6.8-6.7 8.3c-1.8 2.1-2.1 2.8-1 3.2 6.2 1.8 10.1 2.6 12.6 2.6 4.1 0 9.3 1.1 9.3 1.9 0 .4-1.5.5-3.3.3-2.2-.2-3.9.2-5.1 1.3-1.5 1.6-2 1.5-6.8-.9-9.8-4.9-11.8-3.5-11.9 8.4-.1 4.7-.5 11.2-.9 14.5-.6 4.5-.7 2.2-.6-8.8.1-11.2-.2-15-1.2-15.6-.7-.4-5.2-.2-10 .5s-11.3 1.6-14.4 1.9c-3.9.4-5.8 1.1-5.8 2 0 .8.4 1.6.9 1.9.4.3 1.6 2.7 2.6 5.3s3 6.6 4.4 8.8 2.8 4.4 3.1 5c.3.5 2.7 4.4 5.4 8.5s6.4 9.9 8.3 12.7q6 9.45 4.8 1.5c-.5-3.5-.4-3.5.6-1 .6 1.6 1.5 2.8 2 2.8.6 0 .5.9-.1 2.1-1 1.7-.5 2.8 3.3 7.2 2.4 2.9 4.7 6.2 5.1 7.5.4 1.2 1.6 2.7 2.7 3.3 1.1.5 1.7 1.4 1.4 2-.4.5-.2.9.4.9.5 0 1.5-1.7 2.1-3.8 1.3-4 3-6.5 3-4.3 0 .7-.7 3.8-1.6 6.9-1.5 4.9-1.5 7.1-.5 17.2 1.5 15.4 2.1 19 3.1 19 .4 0 1.6-3 2.6-6.8 1.9-7.1 4.3-13.5 4.4-11.5 0 1.6-4.7 19-5.5 20.4-.4.6-.1 1.5.6 2 1.1.6 1.1 1.1.1 2.1-2.1 2.1-1.4 3.7 2.6 5.7 4.6 2.5 3.1 2.7-2.5.3-3.8-1.5-4.3-2.1-4.3-4.8 0-1.7-.7-3.7-1.5-4.4-.9-.7-2.9-3.3-4.5-5.7-3.7-5.5-4.9-6.9-8-9.6-1.3-1.2-5.2-4.8-8.6-8-3.3-3.1-6.8-5.7-7.8-5.7-.9 0-2.1-1.2-2.7-2.8-.6-1.5-2-4.4-3.1-6.5s-1.8-4-1.5-4.3c.2-.3 1.2 1.1 2.1 2.9.8 1.9 2.2 4 3.1 4.7.8.7 1.5 1.8 1.5 2.6 0 .7 2 2.5 4.5 4 2.5 1.4 4.5 2.9 4.5 3.3s2.3 2.4 5 4.4l5.1 3.8 1.5-3.8c.8-2.1 2.4-5.4 3.4-7.4 2.5-4.7 2.5-6.4-.2-10.2-3.4-4.8-4.3-5.6-5.8-4.7-1.3.8-1 7.8.6 17 .4 2 .3 3.1-.2 2.7-.9-.9-4.6-20.2-4.8-25.4 0-1.7-.4-2.9-.8-2.6-.5.2-.8-.3-.8-1.2s-.4-1.4-.9-1.1c-.5.4-1.2-.7-1.6-2.3-.5-2.3-1.3-3.1-3.8-3.6-3.8-.8-18.1-7.5-17.4-8.1.2-.3 3.3.9 6.8 2.5 7.4 3.4 11.9 4.7 11.9 3.4 0-.5-1.3-2.4-3-4.3-1.6-1.9-2.9-3.9-3-4.4 0-1.3-9.3-13.6-10.2-13.6-.4 0-.8-.8-.8-1.8 0-.9-1-3.3-2.3-5.2s-2.9-5.3-3.6-7.5c-1.4-4.4-7.5-11.3-13.1-14.9-1.9-1.2-3.6-3.1-3.7-4.1-.3-2-.3-2 .8 0 .5 1.1 3.3 3.1 6 4.5 5.9 2.9 5.9 2.9 9-7.5 1.2-3.9 2.6-7.4 3-8 1.5-1.6 1-4.5-.8-4.5-1 0-2.5-.5-3.3-1-1.2-.7-1-1.1 1-1.8 2.4-1 2.4-1 .5-1.8-3.3-1.3-5.6-4-4.9-5.7.3-1 .1-1.7-.6-1.7-.6 0-.9-.4-.6-.9.3-.4-1.5-2.7-4-5-2.5-2.2-3.9-4.1-3.2-4.2.9 0 .8-.2-.2-.6-.8-.4-2-1.3-2.7-2.2-1-1.3-1.2-.1-1.3 6.4 0 11.1.5 12.6 3.8 11.4 1.9-.8 2.9-.6 4.1.6 1.4 1.3 1.2 1.5-1.4 1.5-5.1 0-5.6 1-3.2 6.5 1.2 2.8 3.4 7.1 5 9.6 1.5 2.5 2.7 5.2 2.7 6s-2.1-2.1-4.6-6.4c-2.4-4.2-4.9-7.7-5.5-7.7s-.6.7.1 1.9c.5 1.1 1 3.5.9 5.3l-.1 3.3-1.1-4.2c-1.9-6.6-3-6.4-2.5.4.2 3.5.3 6.3.1 6.3-1.5 0-2.3-7.7-2.2-20.4.4-42 .2-52.4-1.3-68.2-.9-9.4-1.5-18-1.3-19 .2-1.1 1.2-6.9 2.1-12.9 1.9-12.5 3.8-17.6 2.8-7.5-.3 3.6-1.2 9.4-1.9 13-.9 4.2-1 7-.4 8.2.5 1 .7 1.8.4 1.8s0 1 .6 2.2c1.1 2.1 1.1 2.2-.4.9-1.6-1.2-1.7-.8-1.1 6 .8 9.9 3 24.8 3.7 25.6.3.3 1.4-.2 2.3-1.1s1.9-1.4 2.2-1.1c.4.3 0 1-.8 1.5-.8.6-1 1-.5 1 .6 0 1.6-.4 2.3-.9 1-.6 1-1-.1-2-1.3-1-1.3-1.7 0-5.2 1.4-4.1 1-7.9-.8-7.9-.5 0-.9-.7-.9-1.6 0-1.2.5-1.1 1.9.7l1.9 2.4.8-4c.6-3.4.8-3.7 1.5-1.7.5 1.2.6 2.8.3 3.6-.6 1.7 1.2 3.1 2.1 1.6.3-.5 1.5-1 2.6-1s2.2-.7 2.5-1.5c.4-.8 1.4-1.5 2.4-1.5s2.5-.6 3.3-1.4c1.1-1.1 1.7-1.2 2.7-.3 3.7 3.6-1.7-4-7.5-10.2-3.6-3.9-6.5-7.4-6.5-7.8s3.5 2.6 7.8 6.8c10.8 10.5 10.4 10.3 14.6 8.5 4.1-1.7 4.1-1.9 1.8-6.5-1.5-3-3.1-4-11.7-7.5-5.7-2.3-11.7-4-14-4.1h-4.1l1.7-3.5c1.8-3.8 4-15.9 4.4-25 .4-8.9.5-9.1 1.4-8.6.4.3 1.1-2 1.4-5.2 1.5-13.4 3.6-27.9 4.6-30.2l1-2.5v2.6c.1 1.4.7 3.1 1.4 3.8 1 1 .9 1.1-.4.6-1.4-.5-1.8.4-2.4 5.7-.4 3.5-1.3 10.1-2.1 14.7s-1.3 8.6-1 8.8c.5.5 11.6-21.4 11.6-22.9 0-.6-.8-1.7-1.7-2.5-1.7-1.3-1.7-1.3.2-1.1 2.2.3 2.2.2 6-27.2.8-6.3 2-11.9 2.5-12.4.7-.7.9 0 .5 1.9-.6 3.8-4.2 28.4-5 34.6l-.6 4.6 4.3-.8c2.4-.4 10.9-1.3 19.1-2 8.4-.7 14.7-1.7 14.7-2.3 0-1-4.6-9-12.2-21.3-2.1-3.4-3.8-6.5-3.8-6.7 0-.3-2-3.7-4.5-7.5s-4.5-7.3-4.5-7.8-1.3-2.4-3-4.3l-2.9-3.5-.2 7c-.1 6.8-.1 6.9-1 2.6-.5-2.4-.6-4.7-.4-5.2.3-.4.1-1-.5-1.4-.7-.4-.7-1.2 0-2.5.5-1 1-2.8 1-3.9 0-1 .5-2.1 1.1-2.3s2.4-5.1 3.9-10.8c1.5-5.8 3.5-12.5 4.3-15 2.3-6.4 3.3-13.5 1.9-12.6-.7.4-.4-.6.5-2.2 2-3.6 5-5.7 5-3.6 0 .7-.4 1.1-.8.8-.4-.2-1 1-1.4 2.8-.8 3.9-7.1 26.4-9.1 32.7-.8 2.5-1.2 4.6-1 4.8s1.6-1.1 3.2-2.8c6.8-7.6 17.3-18.4 17.4-17.8 0 .3-1.2 1.9-2.7 3.6-13 13.9-19.3 21.3-19.3 22.5 0 2 28.9 50.2 29.6 49.5.2-.2.9-2.8 1.4-5.8.6-3 1.2-6.3 1.4-7.4s.7-5.4 1-9.5c.9-10 3.4-29.3 4.6-35.5.5-2.8 1.6-12.2 2.4-21s1.8-16.9 2.1-18c.7-2-2.4 1.2-13.2 13.6-3.2 3.7-6.2 6.7-6.6 6.8-.5.1 3.7-5.2 9.2-11.7 8.8-10.3 9.8-11.8 8.4-13-1.5-1.1-1.5-1.2.5-1.2 2.5 0 2.9-2.1 1.2-6.5-.7-1.7-.7-2.4 0-2 .6.3 1 1.2 1 1.8 0 .7.4 1.8.9 2.6 1.1 1.8 4.7-.7 16.8-11.9 23-21.1 37.8-33.9 37.2-32.3-.4 1-5.3 5.6-21.4 19.8-4.3 3.8-11.3 10.1-15.5 14-4.1 3.8-9.1 8.2-11 9.8l-3.5 2.7 15-.6c15.9-.7 19.5-1.4 19.5-3.9 0-2.1 1.5-1.9 3.1.5 1.4 2 2 2.1 18.2 1.4 21.6-.9 21.2-.7 20.3-13.6-.4-5.1-1.2-11.4-1.8-14-.8-4.2-1.2-4.7-2.8-3.8-2.9 1.6-4.8 1.2-5.6-1.2-.8-2.5 2.7-6.1 5.1-5.1 1.2.4 1.5-.4 1.4-3.8 0-5.1-2.2-15.9-3.1-16.2-.4-.1-3.7 2.5-7.4 5.8-9.3 8.3-11.4 9.1-2.9 1.1 5.2-4.9 6.5-6.6 5-6.6s-1.1-.5 1.5-1.9c3.6-2 11-2.8 11-1.2m439.3 59.7c-.2.5 4.3 3.4 9.9 6.3 14.4 7.4 24.9 13 42.6 22.9 8.4 4.6 15.5 8.3 15.7 8.1.2-.3-1.7-2.9-4.2-5.9-7-8.4-13.9-18-13-18 .4 0 5.7 6.7 13.6 17 1.9 2.5 3.9 4.8 4.4 5.1.5.4.6 1.2.3 1.8-.4.6-.2 1.2.3 1.2.6.1 1.6.2 2.3.3.7 0 1.5 1.4 1.9 3.1.3 1.6 4.6 11.3 9.4 21.5 14.3 30.3 23.6 51.2 23.1 51.8-.3.3-1.6-1.7-2.7-4.4-2.4-5.4-12.8-28-20.4-44.6-2.8-5.9-5.1-10.4-5.3-10-.1.5 2 8.8 4.8 18.6 5.1 18 14.6 55.1 15.2 59.5.5 3.9 2.4 3.5 4.7-1.1 1.1-2.4 3.1-5.5 4.3-7.1 2-2.4 2.1-3 .9-6.2-.7-1.9-.9-4-.6-4.6.8-1.2-.8-20.1-3-35.4-.8-5.5-1.7-12.3-2-15-2-14.8-1.6-13.8-6.5-16.3-3.6-1.8-3.9-2.1-1.5-1.6 3.7.8 5 2.2-16.2-17-9-8.1-16.3-15-16.3-15.4 0-.3 1.7 1 3.8 2.9 2 2 10.9 10.1 19.7 18l16 14.3 1.8 6.6c1 3.6 2.9 11.2 4.2 17s4.1 17.9 6.3 27c6.2 25.3 7.2 29.9 7.2 33.1 0 1.6.4 2.9 1 2.9.5 0 .7-1.2.5-2.8-.3-1.5-.9-6.8-1.5-11.9-.6-5-1.3-10.7-1.5-12.5-.5-2.6-.4-2.9.4-1.2.5 1.2 1.2 4.3 1.6 7 .3 2.7 1.3 8.3 2.1 12.4.8 4.2 1.3 10.2 1.2 13.4-.2 4.5.1 6.1 1.5 7.1.9.7 1.7 1.6 1.7 2s-.7.2-1.6-.6c-1.4-1.2-1.5.4-1 16.7.4 15 .3 16.3-.4 7.9-.5-5.5-1.1-13.6-1.3-18l-.4-8-8.3-2.2c-15.4-4.1-14.3-4.1-13.6.3.3 2.2.8 5.9 1 8.4s.1 3-.1 1.2c-.2-1.7-.8-3.2-1.3-3.2-1 0-1.5 8.4-1.8 28.9l-.3 14.4 4.2 6c2.4 3.3 3.7 5.7 3.1 5.3s-2.6-2.8-4.4-5.4l-3.3-4.7-1.2 6-1.2 6 .3-5.3c.2-2.8.1-5.2-.1-5.2-1.5 0-11.4 7.8-11.9 9.4-.6 1.9-.7 1.9-2.3-.1-1.4-1.8-12.7-8.6-17.4-10.5-1.5-.6-1.6-.3-1.1 2 .4 2 .3 2.3-.5 1.2-.5-.8-1.1-1.2-1.3-1-.2.3-1.2 1.8-2.4 3.5-2.6 3.7-7.4 12.3-7.4 13.2 0 .4.5.2 1.2-.5 1.6-1.6 2.8-1.5 2.8.3 0 .8.8 1.5 1.9 1.5 1 0 3.3.3 5 .6l3.1.7-.5-5.9-.5-5.9 1.4 5.3c1.7 6.8 3.2 8.4 5.2 5.8.7-1.1 1.6-1.7 1.9-1.4.9.9.9 4.1 0 6.3-1.3 3.1 0 1.6 3.9-5 4.4-7.3 4.5-6.8.7 2.2l-3 6.8 3.7.7c2 .4 5.8.7 8.4.7 4.7.1 4.7.1 5.4-3.7.3-2 1-5.1 1.5-6.7.7-2.4.7-2.1.3 1.5-.3 2.5-.8 5.3-1 6.2-.5 1.8 1 2.5 2 .9.3-.5 3.8-2.8 7.8-5.2 8.2-4.8 9.7-6.3 9.8-9.9.1-1.4.4-1.9.7-1.3.8 2.1 1.8 1.5 5.3-3.2 1.8-2.5 3.6-4.3 3.8-4 .3.3-1.3 2.6-3.5 5.2-5 6-6 7.9-7.3 13.7-2.5 11.2 2.1 6.7 8.2-8 6-14.4 6.8-17.1 6.3-22.4-.4-3.7-.3-4 .4-1.5 1 3.5 1.5-5.5 1.4-26.5v-12.5l3.3 16.5c3.6 18 3.8 19.2 2.5 17.1-.5-.8-.8 3.7-.7 11.3 0 6.9.4 12.6.9 12.6 1.8 0-2.7 6.2-7.7 10.5-5.8 4.9-10.9 11.9-7.9 10.8 1.1-.4 1.4-.2.9.5-.4.7-.3 1.2.2 1.2 1.7 0 2.2-1.3.9-2.8q-1.2-1.65 0-.9c.7.4 2.8-1.2 5.3-4l4.1-4.8-2.1 3.9c-1.1 2.1-1.9 4-1.7 4.3 1.2 1.1 9.7-14.8 9.7-18 0-.9.4-1.8.9-2.1 1.6-1 1.9-4.5.5-7.1-.7-1.4-1.6-5-1.8-7.8-.5-4.9-.5-5 .4-1.2.5 2.2 1.5 5.9 2.4 8.2 1.4 4 1.4 4.5-.8 10-5.4 13.4-8.4 19-10.5 19.6-1.2.3-2.1 1-2.1 1.6 0 1.6 2.1 1.3 4.2-.6 2.6-2.3 2.2-.4-1.2 6-2.8 5.2-2.9 5.8-1.5 8.4.8 1.5 1.5 4.4 1.5 6.4 0 4.3-3.8 13.9-5.4 13.6-.7-.1-1.2 2.3-1.4 7-.2 6.1.1 8.1 2.4 13 1.4 3.2 2.7 6.2 2.8 6.8.1.5.5 1.5.9 2.2.4.6.4 1.9 0 2.9-.4 1.2-.3 1.5.5 1q1.2-.75.6.9c-.4.8-.2 2.1.3 2.8.5.6 1.7 3.3 2.7 5.9 1 2.7 2.2 4.8 2.6 4.8.5 0 0-2.1-1.1-4.6-1.1-2.6-1.8-4.9-1.6-5.1.3-.2 2.1 3.4 4 8 2 4.7 5.7 12.7 8.2 18 2.5 5.2 4.4 10.6 4.4 11.9-.1 1.8-.2 1.9-.6.5-.4-1.6-1.1-1.7-4.6-1.2-2.3.4-4.3.8-4.4.9-.2.1.1 1.7.6 3.4 1.2 4.2-.1 4.1-1.8-.1l-1.4-3.2-.8 5.3c-.5 2.9-1.4 6.2-1.9 7.3-.6 1.1-.9 2.3-.6 2.8s-.7 1.1-2.4 1.3c-1.9.3-3.1 0-3.5-.9-.2-.8-.1-1.2.4-.8 2 1.2 3.9-.9 5.1-5.3.7-2.6 1.4-5.5 1.7-6.5.4-1.6-.1-1.5-3.7.8-2.3 1.5-7.6 4.5-11.8 6.7-4.3 2.3-7.9 4.5-8.2 4.9s-2.3 1.9-4.5 3.4l-4 2.6 2.9-2.6c1.5-1.4 2.7-2.8 2.5-2.9-.7-.6-12.5 1.3-15.5 2.5l-2.9 1.1 5 2.4c2.8 1.3 5.6 2.3 6.3 2.4.9 0 1.2 1.7 1.1 5.7-.1 3.2.2 8.7.7 12.3l1 6.5.7-7.2c.8-8.2 2.7-14.1 3.5-10.8.2 1-.1 2.1-.7 2.3-.7.2-1.1 4.4-1.1 12.2 0 11.4.1 11.8 2.5 13.4 1.3.9 2.7 1.6 3 1.6.7 0-.4-7.5-2.1-13.4-.8-2.7-1.4-6.6-1.3-8.5.1-2.9.5-2.2 2.1 3.9 1 4.1 2.3 10.2 2.8 13.5s1.4 6.1 2 6.3c.5.2.8.8.5 1.3-.3.4-2.4-.5-4.7-2.1-4.5-3.3-6.9-3.7-8.7-1.6-.6.7-4.9 3.8-9.6 6.7-4.6 3-8.5 5.7-8.5 6.1s1.7 1 3.8 1.3c6.9 1.1 8.3 1.6 7.8 2.4-.8 1.3-4.6 2-4.3.9.3-1.4-8.5-3.7-12.1-3.3-1.5.2-5.8.6-9.7.9l-7 .5 8.3-1.4c4.6-.7 8.6-1.5 8.8-1.8.3-.3-1.7-2.9-4.4-5.8-2.7-3-6.1-6.8-7.6-8.4l-2.6-3-2.1 2.5c-1.1 1.4-4.2 5-6.8 8s-5.3 6.6-6 7.8l-1.3 2.4 6.5-.4c3.6-.1 6.3 0 6 .4-.2.5-1.4.9-2.6.9-4.9.3 7.8 1.8 23.3 2.8l16.4 1.1 4.7-2.9c4.6-2.8 7-3.1 4.9-.6-.7.9-.7 2.1 0 3.9.5 1.5.9 5.7.9 9.4-.1 3.7-.4 5.4-.6 3.7-.3-1.6-1.3-4.1-2.4-5.6-2.2-3.1-2.6-5.4-.4-2.5 1.9 2.6 2.9 1.5 2-2.3-.7-3.4-1.3-3.7-3.8-1.8-1.6 1.1-1.6 1.8-.3 8.6.8 4 1.8 7.6 2.3 8 .5.3-.2 1.7-1.5 3.1-1.5 1.6-2.1 1.8-1.6.7.4-1.1.1-1.7-.7-1.7-1-.1-.9-.3.2-1 1.6-.9 1.6-1.5 0-7.7-.9-3.7-2.2-6.8-2.7-7-.6-.2-3.3 2-5.9 4.9-2.9 3-4.4 5.3-3.7 5.6.7.2 1.2.7 1.2 1.1 0 .8-3.8.7-6-.1-1.4-.6-4.3-1.3-10.4-2.5-2.3-.5-2.8-.3-2.4.9.4.8.2 2.1-.3 2.9-.7 1.1-.9.9-.9-.9 0-1.2-.2-2.2-.5-2.2-.8 0-16.8 11.6-19.2 13.9-2.4 2.2-3.3 2.6-3.3 1.3 0-.4 4-3.6 8.9-7.1 11-7.7 13.7-10.4 11.9-11.8-2.6-2.1-18.5-11.1-20.8-11.8-1.3-.4-3-1.4-3.8-2.1-1.1-1.2-1.1-1.4.3-1.4 1.2 0 1.5-.6 1-2.3-.7-2.1-.7-2.1.8-.3 1.4 1.9 1.4 1.9 2.5 0 .5-1 4-5.5 7.6-9.8 3.6-4.4 6.6-8.3 6.6-8.8 0-.4-4.2-2.9-9.2-5.4-5.1-2.6-10.6-5.6-12.2-6.7-2.8-2-3-2-6-.3-1.7 1-2.5 1.2-1.8.5.6-.7 1.2-1.8 1.2-2.4s2.6-3.8 5.8-7.2c15.7-16.4 16.6-18.1 18.3-32.7.5-4.4 1.2-8.2 1.5-8.5.6-.6 0 7.4-1.2 16.4l-.6 4 2.1-3c6.8-9.6 25.1-38.9 25.1-40.2 0-.8-15.9-4.3-19.8-4.3-1.8 0-2.2.6-2.2 3.5 0 1.8-.4 5.6-1 8.2-.5 2.6-1.1 6.7-1.3 9.1-.3 2.3-.8 4.6-1.2 5s-.5-.9-.2-2.8.9-6.9 1.3-11l.6-7.5-2.7 3.5c-4.9 6.4-9.5 14.7-9.5 17.1 0 1.9-.2 2.1-1 .9s-1.3-1.3-3-.2c-3.3 2-3.7 1.4-.6-1.1 2.5-2.1 2.7-2.6 1.7-4.6-.7-1.2-1-2.5-.8-2.8.3-.2.8.5 1.2 1.6.3 1.2.9 2.1 1.3 2.1.8 0 10.8-14.8 11.7-17.3.9-2.3-3.6-2.9-11-1.5-4.8.8-6.5 1.6-6.5 2.8 0 .9-.8 1.6-1.9 1.6-1.2 0-1.7-.6-1.4-1.7.4-1.3-1.2-1.9-8.4-3.3-4.8-.9-15.3-3.5-23.3-5.8-14.7-4.1-24.1-5.1-32-3.5-2.5.5-2.2.3 1.3-.9 2.6-.9 4.7-2 4.7-2.4 0-.8-19.4-13.9-25.6-17.4-1.6-.9-4.9-3-7.4-4.6-5.6-3.6-5.8-3.6-6.3-.3-.4 2.7-.4 2.7-.6-.3-.1-4.2-1.8-4.7-10.2-2.9-3.9.8-7.8 1.5-8.7 1.4-.9 0 1.8-.9 6-1.8 4.3-1 8.1-2 8.4-2.4.3-.3-2-2.2-5.2-4.3-3.3-2-8.1-5.1-10.9-6.9-17.1-11-29.4-18.5-30.4-18.5-.6 0-2.2-1.7-3.5-3.8-1.3-2-3.8-5.1-5.6-6.7-1.7-1.7-5-5.3-7.3-8-4.7-5.8-3-4.2 7.9 7.5 5.8 6.2 10.3 9.9 16.9 13.8 8.4 5 14.4 8.8 24 15.2 5.1 3.5 12.5 7.2 12.5 6.4 0-.3.9.4 1.9 1.7 2 2.4 2 2.4 1.5-11.6-.8-23.6-1-25.6-3.1-26.9-1-.7-11.8-5.3-24-10.1-12.3-4.9-22.1-9-22-9.2.2-.2 10.5 3.6 22.8 8.3 28 10.8 25.9 10.2 26 7.3.1-1.7.3-1.9.6-.7.2 1 1 1.8 1.7 1.8s7.7-3.4 15.7-7.5c7.9-4.1 17.9-9.1 22.1-11.2 4.3-2.1 7.8-4.1 7.8-4.5 0-1.2-11.7-26-15.7-33.3-1-1.9-5-10.1-17.5-36.3-2.7-5.7-5.1-10.2-5.3-10-.4.3-2.7 27.7-4 47.3-.3 4.9-1.3 15.8-2.1 24.1s-1.5 17-1.6 19.3-.4 3.8-.8 3.4-.4-4.2 0-8.3c.5-4.1 1.1-11.1 1.4-15.5 1.8-22.8 2-25.7 3.6-47 .5-7.7 1.2-17 1.5-20.8.6-8 1.6-7.4-15.5-10.6-6.3-1.3-26.1-5.1-44-8.6-17.9-3.6-33.6-6.6-34.9-6.8-2.7-.4-4.2-2.7-1.8-2.7.8 0 1.7-.6 2-1.4s5.3-7.7 11-15.3 14.7-20 20-27.5c10.8-15.4 10.8-14.5-.3-15.1-4.9-.3-4.7-.3 1.7-.5 6.2-.2 9.9-1.3 7.6-2.4-.8-.3-7.7-8.7-10.2-12.3-.8-1.1 2 1.5 6.2 5.7l7.5 7.7 18.9-6.5c28.7-10 32.7-11.4 33.5-12.2.5-.5-5.4-1.6-13-2.6-21.7-2.9-37-5.4-33.7-5.5 1.7 0 5.7.3 9 .8 9.1 1.5 11.9 1.9 25.5 3.6 6.9.8 13.1 1.8 13.8 2 .6.2 1.2.2 1.2-.1 0-1.1-2.3-4.9-3.4-5.6-.8-.6-.8-.8.1-.8.6 0 2.3 1.3 3.6 3 1.4 1.6 3.4 3 4.4 3 3.3 0 38.7-8.8 39-9.6.2-.5 1.8-.9 3.7-.9s3.2.4 2.9 1.1m-559.4 16.1c-1.3 1.4-3.5 3.8-4.9 5.2-3.4 3.5-5.1 6.7-4.4 8.5.3.8-.8 2.4-2.9 4-4.2 3.2-6.9 11.1-13.8 41.1-1 4.4-2.7 11.3-3.9 15.3-2.1 7.6-6.2 31.8-6.5 38.8-.1 2.3-.8 5-1.4 6-1 1.7-1.1 1.5-.7-1.1.3-1.7.8-6.2 1.1-10 .8-9 1.8-14.6 6.1-33 4-17.1 5.2-22.1 6.5-25.2.9-2.3.2-8.3-1-8.3-.3 0-1.7-1-3.1-2.1l-2.5-2 3.9 2c4.5 2.3 5.6 2 5.7-1.7 0-1.5 1-6.5 2.2-11.2 1.7-6.3 3.2-9.5 5.7-12.5 5.8-6.6 15.3-16.5 15.8-16.5.3 0-.5 1.2-1.9 2.7m-27 43.7c-.2.2-6.5 2.4-13.9 4.9-7.4 2.6-19.1 6.7-26 9.2-6.9 2.6-14 5.1-15.7 5.6-1.8.6-3.3 1.5-3.3 2.2 0 1.3 4.1 17.2 6.5 25.2.8 2.7 2.5 8.9 3.7 13.7 1.3 4.9 2.5 8.8 2.8 8.8s1.3-1.2 2.2-2.8c6.7-10.6 12.4-19 18.5-27.5 3.9-5.4 7.3-10.3 7.6-11 .2-.7.7-1 .9-.7.3.3-2.5 5-6.3 10.5-15.8 23.1-20.3 30.2-21.8 34-1.6 3.9-5.1 8.5-5.1 6.6 0-.6.5-1.3 1-1.6 1.7-1 1.1-7.6-1.6-17-1.4-5-3.8-14-5.4-20.1-3.6-13.6-4.6-16.4-5.2-14.4-.3.8-2.1 6.4-4.1 12.5-6.9 20.9-11.9 37.6-11.5 38.1.3.2 6-.7 12.8-2.1 12-2.4 18-3.2 13-1.5-1.4.4-8 1.8-14.8 3.1-10.3 2-12.3 2.6-12.8 4.4-.4 1.1-1 2.2-1.3 2.5-.4.3-3.3 5.5-6.4 11.7l-5.6 11.1 5.2 17.9 5.2 17.8.6-9 .5-9 .3 10.5.2 10.5 1.9-3.5c1.1-1.9 1.9-3.1 1.9-2.5 0 .5-.6 2.1-1.4 3.5s-1.4 3.2-1.5 4c0 1.7 32.7 22 35.4 22 2.4 0 1.9 1.5-.9 2.8-3.4 1.6-4 1.5-2.5-.3.7-.9 1.1-1.7.9-1.9-2.8-2.1-33.1-19.8-33.4-19.4-.2.2.3 3.9 1.1 8.2s1.3 8 1 8.3c-.2.3-1-2.9-1.7-7.1s-1.6-7.6-2-7.6-.9-1-1.3-2.3c-.3-1.4-3.9-4.7-9.3-8.5-4.8-3.4-11.9-8.5-15.8-11.2-3.8-2.7-7.1-4.8-7.2-4.6-.8.7 5.9 24.2 7.2 25.1 1 .8 1 1.3-.1 2.3-.8.7-1.4.8-1.4.2 0-.5-.8-1-1.7-1-1.3 0-1.4-.3-.6-.8 1.6-1-3.6-23.4-5.2-22.8-1.2.4-1.2-4.1-.1-9.1.4-1.8.3-4-.3-5-1-1.7-1-1.7-1.1.1 0 1.1-.3 1.7-.6 1.3-.3-.3.1-2.7 1-5.4.9-2.6 1.7-6.2 1.8-7.8.1-1.7.8-4.1 1.5-5.5 1.2-2.3 1.3-2 .8 3-.4 3-1.1 6.8-1.6 8.4-1.2 3.8-1.2 7.3 0 6 1.3-1.4 5.8-14.5 7.6-22 1.7-7.4 2.1-33.7.4-29.5-.5 1.3-1.1 2.2-1.4 2-.7-.8 4.3-16 5.8-17.8.8-.9 4.9-8.1 9.2-16.1 4.2-8 8.1-15 8.7-15.5 1.5-1.5-12 24.3-15.3 29.2-1.5 2.4-2.6 4.3-2.3 4.3 1.2 0 7.4-3.7 14.7-8.7 4.3-2.9 7.5-4.8 7.2-4.3-.4.6-5.5 4.3-11.3 8.2-5.9 3.9-11.1 7.5-11.7 7.9-.9.9 9 11.9 10.7 11.9.4 0 6.7-8 14-17.8 7.3-9.7 14-18.2 14.8-18.9.8-.6 1.2-1.4.9-1.7s-2.3.7-4.5 2.2c-4.9 3.6-11.4 7.5-11.4 6.9 0-.2 2.6-2.1 5.8-4.3 8.2-5.6 11-8.3 9.5-9.2-.7-.4.6-.9 3-1 2.3-.1 16.8-4.6 32.2-10 24.6-8.6 30.1-10.4 28.4-8.8m398.8 139.4c2.1 2.9 1.4 3.7-1.1 1.3-2.7-2.5-5-2-4.1.9.4 1.2.1 1.7-.9 1.6-1.5-.1-14 11.5-15.7 14.6-.5 1-1.6 1.8-2.4 1.8s-1.5.6-1.5 1.3c0 .8-2 3.6-4.5 6.3s-4.8 5.7-5.1 6.6c-.3 1-1.4 1.8-2.5 1.8-2 0-2.3 1.1-1.9 6.5.1 1.6-.1 2.7-.4 2.4-.4-.4-.9-3.7-1.1-7.4-.5-6.8-.5-6.8 1.6-4.9 2.8 2.5 3.6.9 3.8-8 .1-3.9.4-7.9.7-9 .5-1.4.3-1.6-.7-1-.8.4.9-1.3 3.6-3.9 2.8-2.6 6.7-5.4 8.8-6.4 2.1-.9 4-2.6 4.3-3.8.5-1.8 1.4-2 9.1-2.2 7.1-.1 8.9.1 10 1.5m-497.1 29.4c3 5.4 5.9 9.8 6.4 9.8s1.1-.8 1.3-1.8c.3-.9.5-.3.6 1.4.1 2 .8 3.5 1.9 3.9 3.1 1.3 13.2 3.3 13.6 2.6.2-.3 0-2.6-.6-5.1-.5-2.5-1.2-6.5-1.4-9l-.4-4.5 1.4 3.5c.7 1.9 1.6 6.1 2 9.2.4 3.2 1.1 5.8 1.4 5.8.8 0 12.7-6.7 19.6-11 2.2-1.3 3.6-1.9 3.2-1.2-.4.6-5.4 3.9-11.1 7.3-5.8 3.3-10.5 6.4-10.5 6.8 0 1.5 18.2 18.1 19.9 18.1.4 0 1.2-1.7 1.7-3.8l1-3.7v5c-.1 2.7-.4 5.2-.7 5.5-.8.6-5.5 20.7-6.4 27.5-.8 5.2-2.4 9.5-2.5 6.4 0-1-2.4-2.3-7.5-3.9-4.1-1.3-7.3-2.5-7.1-2.7.2-.3 3.5.5 7.2 1.7 7.5 2.3 7.9 2.1 9-4 .3-1.9 1.6-7.8 2.8-13s1.9-9.6 1.5-9.8c-1.1-.5-30.2 20.8-29.5 21.6.6.5-1.9 3.2-2.9 3.2-.3 0-.3-.5 0-1 1-1.7-1.3-1.1-8.1 2-3.6 1.6-6.3 3.3-6.1 3.7.3.4-.8.9-2.4 1-5.2.4-6.8 1.8-5.9 5.5 1.9 8 1.9 9 0 4.3l-2-5 .5 4.9c.3 2.7.5 6.2.5 7.7 0 1.7 1.2 4.2 3.1 6.4 1.7 1.9 2.6 3.5 2 3.5s-1.8-1.1-2.7-2.5c-2.4-3.7-3.2-3.1-2.3 1.7 1.1 5.8 1 6.7-.3 4.4-.6-1-1.4-4.2-1.8-7l-.8-5.1-.2 5.5c-.3 7.2-1.3 11.6-2.5 11.2-.6-.1-1.3 1.4-1.6 3.5l-.6 3.8-.2-3.7c0-2 .4-4 .9-4.3.6-.3 1-1 1-1.4 0-.5-3.4 1-7.6 3.1-4.2 2.2-7.2 4.4-6.7 4.8.4.5 3.3 1.6 6.3 2.4 5.3 1.5 5.3 1.6 1 .9-2.5-.3-5.6-.6-7-.7-1.4 0-2.9-.6-3.5-1.3-.8-.9-2.1-1-5.4-.2-3.4.7-4.7.7-5.7-.3-1.1-1.1-.5-1.3 3.1-1.1 5.1.2 6.6-1.1 3.3-2.8-1.3-.7-3.8-2.5-5.6-4-1.8-1.6-3.9-2.9-4.7-2.9-2.6 0-.7-5.5 10.4-28.8 6.1-12.8 11.1-23.5 11.1-23.8s1.3-3.6 2.8-7.2l2.9-6.7-.8-15c-.4-8.3-1.5-18.3-2.4-22.4-.9-4-1.4-7.6-1.1-7.8.2-.2.7.9 1.1 2.6s1 3.1 1.4 3.1 1.6 1.6 2.7 3.5c1.3 2.5 2.5 3.5 4.2 3.5 1.9 0 2.2-.4 1.8-2-1.5-5-1.4-6.2 0-3.1 1.2 2.7 1.8 3.1 2.5 2s.9-1 .9.7c0 1.4 1.2 2.5 4 3.8 2.2.9 4.2 1.7 4.6 1.6s1 .2 1.3.7c.3.4 1.4 1.4 2.4 2.2 1.6 1.3 1.7 1.2.7-1.5-1.5-3.8-6.8-14.3-8.6-16.8-.8-1.1-1.4-2.5-1.4-3.1 0-1.3 1 .2 7.6 11.7M741 372.6c-.6 1.4-1 4.3-1 6.5 0 3.6.3 4.1 3.1 5.1 2.2.7 2.9 1.5 2.4 2.7q-.6 1.5.3.6c.6-.6 1.9-4.8 3-9.5 1.2-4.8 2.1-7.2 2.1-5.5 0 1.6-.4 4.8-.9 7-.6 2.7-.5 4.2.2 4.6 1.2.8.2 2.8-2.4 4.7-1 .7-1.8 1.9-1.8 2.6 0 2-3.9 5-11.6 9-6.4 3.3-7.2 4.1-8.4 7.9-.7 2.3-1.6 5.4-2 6.8-.5 1.6-.4 3.1.2 3.7.7.7-1.2 2.1-5.6 4.2-3.7 1.8-6.9 3-7.2 2.7s1-1 3-1.7c6.1-2 6.3-3.5.6-5.9-2.7-1.2-5-2.6-5-3.1 0-1.5-5.8-1.2-6.3.2-.2.7-.7 1.1-.9.8-1-.9 5.9-15.1 8-16.5 1.4-1.1 2.1-1.2 2.4-.3.2.6 1.1-1.1 2-3.8 1.7-5.5 5.1-7.6 4.2-2.7-.3 1.5-1.2 3.5-2 4.4-1.7 1.9-1.8 3.3-.1 2.6.7-.3 2.6.1 4.2.7 3.8 1.6 8.4.6 13.5-2.8 2.2-1.4 4.4-2.6 5-2.6.5 0 1-.5 1-1q0-1.05-2.1 0c-1.4.8-2.4.8-3.3.1-.7-.6-2.4-.8-3.9-.5-1.5.2-2.7.1-2.8-.3 0-.5-.2-2-.4-3.6-.2-1.5 0-2.7.5-2.7s1.2-.9 1.5-2c.4-1.1 1-1.8 1.5-1.5s.6-1.2.3-3.2c-.5-3.6-.5-3.7 1.2-2.1s1.9 1.5 3.6-.6c1-1.3 2.3-3.5 2.9-5 .5-1.4 1.2-2.6 1.5-2.6.2 0 0 1.2-.5 2.6m-502.4 93.6c-.4 2.4-1.8 8.4-3.2 13.5l-2.6 9.2 2.8 4c1.6 2.2 3.2 4.1 3.7 4.1.4 0 .7-3.5.8-7.8 0-6.2.2-7.2 1-5.2.6 1.4.9 4.6.6 7.3-.2 2.6-.2 4.5.1 4.2 1.5-1.4 5.2-12.5 5.2-15.4 0-4.4.9-3.6 1.2 1 .1 1.8 1.2 5.8 2.5 8.8s2.2 5.6 1.9 5.8c-.2.2-1.3-2-2.6-4.9-1.8-4.2-2.4-4.9-3.2-3.5-1 1.8-4.8 13.1-4.5 13.3.1.1 1.6.6 3.2 1.2 2.8 1 2.8 1.1-1.1.5-2.5-.3-4.4-.1-4.8.6-.4.6-1.5 1.1-2.4 1-1.2 0-1.1-.3.6-.9 1.2-.5 2.2-1.3 2.2-1.9 0-.5-2.1-3.4-4.7-6.6-4.6-5.6-4.6-5.7-3.3-9.2 1.8-5.2 5-18.4 5-21.1 0-1.2.5-2.2 1.1-2.2.8 0 .9 1.4.5 4.2m297 55.8c-2.7 5.5-3.3 7.7-2.5 8.7.9 1 .8 1.3-.5 1.3-.9 0-1.6.7-1.6 1.6s-.6 1.4-1.2 1.1c-.7-.3-4 1-7.3 2.8-15.4 8.4-18.2 9.9-20.8 11.7l-2.8 2 5.8 5.5c4.7 4.4 5 4.9 1.6 2.3-2.4-1.7-4.5-3.6-4.9-4.1-1.7-2.9-5.6-2.8-16.2 0-5.9 1.6-12 3.1-13.7 3.4-1.6.2-8.3 1.4-14.8 2.6-6.6 1.1-13.1 2.1-14.5 2.1-3.9 0-21.8-5.7-29.2-9.3-3.6-1.7-6.9-3.3-7.4-3.6-.5-.2-.6.3-.3 1.2s.2 1.9-.3 2.2c-.6.4-1-.6-1-2.2 0-1.8-1.9-5.2-5.3-9.7-2.8-3.8-6.1-8.3-7.2-10.2-1.2-1.8-3-4.3-4-5.5l-2-2.2 2.4.8c2.1.6 2.3.5 1.8-1.4-.8-3.2 1-2.5 2.2.9.5 1.6 1.7 3 2.6 3s4.4 1.3 7.8 2.9c3.4 1.5 6.9 3.1 7.7 3.4 1.1.4.9.6-.5.6-1.1.1-4.5-.8-7.5-1.9-8.9-3.3-11.1-2.5-6.7 2.5 1.2 1.4 3.8 4.8 5.7 7.5s3.9 5 4.4 5c.4 0 2.4-1.4 4.3-3 1.8-1.6 3.9-3 4.6-3 1.2 0-4.2 4.9-5.5 5-.5 0-.8 1.1-.8 2.4 0 1.9.7 2.5 3.8 3.2 2 .4 4 .7 4.5.6.4-.1.7.2.7.8 0 .5 2.8 1.8 6.3 2.9 3.4 1.1 8.3 2.8 10.9 3.7 6.7 2.3 8.2 1.5 7.4-3.9-.4-2.3-.7-5.9-.7-8 .1-3.2-.3-3.7-2.2-3.7-1.2 0-5.3-.8-9-1.9l-6.8-1.8-2 2.6c-1.1 1.4-2.3 3.8-2.6 5.3-.3 1.6-.9 2.8-1.4 2.8-1.1 0-1.2-3.4-.2-4.4.4-.3 1.2-2.2 1.9-4.2 1.2-3.5 1.2-3.6-1.1-3.2-1.6.4-2.2.1-1.8-.8.3-.9 1.4-1.2 2.9-.8 2 .5 2.3.3 1.7-1.2-.5-1.4-.3-1.6 1.3-.9 1 .4 4.6 1.2 7.9 1.6 3.3.5 7.2 1.1 8.8 1.5 1.7.4 2.7.2 2.7-.5 0-.6-1-1.1-2.2-1.2-1.3 0-1.7-.3-1-.6s3-.2 5 .2c3.1.6 3.4.9 1.7 1.5-1.1.5 2.2.7 7.5.5 39.1-1.4 48-1.8 48-2.5 0-.3.6-.7 1.3-.7 3.7-.3 15.9-2.2 16.4-2.6.4-.5-7.3-1.2-21.2-2-2.7-.2-.5-.4 5-.5s12.9.3 16.4.8c9.3 1.3 11.6 0 16.5-9.5 2.1-4.2 4-7.4 4.2-7.2.3.2-1.1 3.7-3 7.7M380 540.6c1.6 3.3 3 5.2 3 4.4.1-.8 1.2 1 2.6 4 5.8 13.1 6.9 14.9 8.9 15 1.1 0 2.7.5 3.5 1.1 1.1.8.7.9-1.7.5-1.8-.3-3.3-.2-3.3.3 0 .4 3.1 3.7 6.8 7.2 13.2 12.4 18 16.1 20.2 15.4 1.3-.4 1.9.1 2.4 1.9.3 1.4 1.6 3.1 2.8 3.7 1.4.8 12.1 1.3 31.5 1.7 27.9.5 29.5.4 31.1-1.4.9-1 1.9-2.8 2-3.9.6-3.3 1.2-3.1 1.2.4v3.3l4.1-.7c4.1-.7 7.1-1.8 15.4-5.5 2.2-1 10.8-4.6 19-8 8.3-3.5 15.2-6.5 15.5-6.7.2-.2-.2-.8-1-1.3-1.2-.8-1.1-1 .5-1 5.1-.1 19.7-7.9 28-15 2.3-2 5.9-3.4 5-2-.3.5-5.7 4.3-12 8.5S553.6 571 553 572c-.6 1.1-1.7 2-2.4 2-.8 0-1.6.6-1.9 1.3-.6 1.5-17.4 23.8-20.9 27.7-3.5 4-1.8 1.5 7.9-11.5 9.6-12.8 12.8-17.5 12.1-17.5-.3 0-9.2 3.7-19.9 8.1-10.7 4.5-22.8 9.6-26.9 11.3-10.2 4.3-10 4-10.1 9.9l-.2 5.2-.6-4.2c-.4-2.4-1-4.5-1.2-4.8-.3-.2-2.8 1-5.5 2.9-2.7 1.8-9.6 6.3-15.3 10s-11 7.4-11.8 8.2-1.9 1.4-2.4 1.4c-2.3 0 .6 2.2 8.6 6.5 12.1 6.6 11.3 7.1-1.3.8-10.1-5.1-11.5-6.2-25.9-20.5-8.4-8.3-15.3-15.4-15.3-15.8s-2.6-2.8-5.7-5.3c-5.8-4.6-8.7-7.1-15.5-13.5-4.3-4-6-3.7-3.1.5 1.1 1.5 4.4 7.7 7.3 13.8 10.9 22.8 21.3 43.7 22.4 44.8.6.7 1.9 2.9 2.8 5 1 2.1 2.6 4 3.5 4.3 1 .4 4.2 1.7 7.1 3s5.9 2.4 6.7 2.4c.7 0 1.6.4 2 1 .7 1.1-9-1.6-12.5-3.6-1.4-.8-3.6-1.8-5-2.3-2-.7-4.5-5-12.2-20.4-5.4-10.8-9.8-19.9-9.8-20.4 0-1.2-13.4-27.8-14.2-28.1-.5-.2-.8-1.1-.8-2.1 0-.9-.7-2.6-1.5-3.7-.8-1-1.5-2.8-1.5-3.9s-1.1-4.4-2.5-7.3c-1.3-2.8-2.2-5.2-1.9-5.2s.2-.5-.2-1.1c-.4-.8-.9-.7-1.5.2-.6 1-.9 1-.9.2 0-1.1-3.8-10.3-6.1-14.5-1-2-1.2-3.4-.3-2.6.3.3 1.8 3.2 3.4 6.4m655.5 18.2c-2.7 2.7-7.2 6.3-10 8.2-2.7 1.9-5.2 3.6-5.5 4-.3.3-3.2 2.8-6.5 5.4l-5.9 4.8 6.9-.7c3.9-.4 7.4-1.1 8-1.6 1.8-1.7 2.3-.8 3 6.3.3 4 1 7.7 1.5 8.3.4.5 1 2.6 1.4 4.6.7 4.1 1.9 3-21.4 19.3-3 2.1-6.3 4.5-7.3 5.4-.9.8-1.9 1.3-2.2 1.1-.2-.3 3.9-3.6 9.2-7.5 5.3-3.8 11.8-8.5 14.4-10.4 2.7-1.9 4.9-3.8 4.9-4.2 0-.9-9.6-10-14.3-13.6-2-1.5-3.6-3.1-3.7-3.5 0-1.5 1.7-.3 9.5 6.8 4.3 3.8 8.1 7.1 8.4 7.3 1 .3.9-4.2-.1-4.9-.4-.3-1.1-3.4-1.5-6.8l-.6-6.4-7.5.7c-5.9.5-7.9 1-9.3 2.8-1.9 2.1-1.9 2.1-1.9.1 0-1.2-.7-2.4-1.6-2.7-1.2-.5-1.3-.8-.2-2 .9-1 1.5-1.1 2-.2.4.6.8-.5.9-2.4 0-3.3.1-3.3 1.1-1.3.6 1.3 1.6 2.3 2.2 2.3s3.7-2.2 6.8-4.8 7.9-6.5 10.7-8.7 6.8-5.5 8.9-7.2c5.5-4.8 5.4-3.9-.3 1.5m168 116.2c.3 1.1 1.5 2 2.6 2 2 0 4.4 4.3 3.6 6.4-.3.6-.9-.5-1.5-2.4-.6-2.1-1.1-2.7-1.1-1.5-.1 1.1.6 4.1 1.6 6.7l1.6 4.6 1.7-3.1c1-1.8 2.6-5.8 3.6-9 1.3-4.1 2.3-5.7 3.6-5.7 1.6 0 1.4.9-1.6 9.2-1.8 5.1-3.6 10.9-4 12.9-.6 3.1-.9 3.6-3 3.2-1.9-.4-2.9-1.8-4.6-6.6-1.2-3.4-3.3-9-4.6-12.5-2.2-5.9-2.2-6.2-.4-6.2 1 0 2.2.9 2.5 2m24.3 5.8c3.1-1.1 8.5.8 13.4 5 1.2.9 1.9.6 3.6-1.7 3.1-4.3 7.2-4.8 13-1.8 2.6 1.4 4.6 3.1 4.4 3.7-.1.6.2.9.7.5.6-.3 1.5.3 2 1.4 1.5 2.7 1.4 3.8-.1 1.8-1.6-2-3-1.1-4.4 2.8-.6 1.6-1.6 2.9-2.2 2.8-.7-.2-1.1.1-.9.6.1.5-.9 1.9-2.3 3.1l-2.5 2.2 3-.7c1.7-.4 3.6-.8 4.3-1.1.7-.2 1 .1.7.6-.3.6-.2 1 .3 1 1.1 0 3.7-2.9 4.5-5 .5-1.3.5-1.3.6 0 .1 3.1-6.1 8.1-7.4 6-.3-.5-1.4-1-2.3-1-1.5 0-1.5.2-.2 1 .8.5 1.1 1 .7 1-1.5 0-5.1-2.2-9.7-6-3.8-3-5-3.5-7.5-2.9-1.6.4-2.5.7-2 .8.6.1-.3 1-2 2.1-2.4 1.5-2.6 2-1.3 2.5.9.4 2.7.1 4-.6 2.1-1.1 2.2-1.1.9.4-.7 1-.9 1.7-.3 1.7 1.4 0 3.3-2.5 2.5-3.3-.3-.4-.1-.7.5-.7 1.7 0 1.5 1.5-.5 3.1-1.1.9-3.7 1.4-6.4 1.4-3.7-.1-5.6-.9-8.8-3.4-2.3-1.8-4.1-3.9-4.1-4.7s-.7-1.4-1.5-1.4c-1.6 0-1.5-.2 2.1-9 1.1-2.5 2-3.7 2.2-2.8.2 1.3.8 1.4 3 .6"/><path d="M498 53.2c0 2.9 1.2 11.5 2.6 18.8.2 1.4.7 4.5.9 7 1 8.7 1.1 9 4.6 8 2.4-.7 3.4-.5 5 1.1 2.4 2.4 2.4 4.4.2 5.5-2.6 1.1-3.6 1.1-5.5.2-2.1-1-2.3.7-.7 6.7 1.8 7.1 1.7 6.9 4.4 5.1 1.3-.9 2.9-1.6 3.6-1.6.6 0 7-2.9 14.2-6.4 7.3-3.5 20.5-9.8 29.5-14.2 8.9-4.3 16.2-8.1 16.2-8.5s-1-.9-2.2-1.2c-1.3-.3-17.7-5.7-36.6-12.1S499.5 50 498.9 50c-.5 0-.9 1.5-.9 3.2M571 78.6c-1.4.7-14.5 7.2-29.2 14.4s-27 13.5-27.3 14c-.7 1.2 9.2 2 28.9 2.3l17 .2 1.7-3.5c1-1.9 3.1-6.7 4.7-10.5 1.7-3.9 4.2-9.6 5.6-12.8 2.6-6 2.5-6.3-1.4-4.1M580 78.6c0 .4 2.4 3.8 5.3 7.8 2.9 3.9 6.2 8.5 7.3 10.3 4.7 7.9 21 30.5 22.4 31.3 1.4.7 2-.4 4-6.8 2.5-8.4 4.4-24.2 3-25.6-.4-.4-4.3-2.3-8.7-4.1-4.3-1.8-13.1-5.6-19.6-8.4-11.5-5-13.7-5.7-13.7-4.5M574.9 81.7c-1 2.5-5.4 12.6-9.5 21.8-3 6.6-2.5 7.5 5.1 10.6 20.9 8.4 40.5 15.9 41.4 15.9.6 0-1.1-3-3.7-6.8-2.7-3.7-7.1-10.1-9.9-14.2-14.6-21.8-20.1-29.5-21.2-29.8-.6-.1-1.6 1-2.2 2.5M634 105.6c-.9 2.3-1.4 2.6-4.5 2.1-4.1-.7-5 .3-6.8 7.3-1.8 6.8-1.2 9.3 1.8 8.6 1.2-.3 3 .1 4.1.8 1.6 1.2 1.6 1.6.5 3-.8.9-1.1 1.9-.8 2.3.7.6 40.5-7.2 41.5-8.1.7-.8 1.7-.2-15.5-9.3-19.1-10.2-19-10.2-20.3-6.7M661 125c-4.1 1-14.9 3.5-24 5.5s-16.8 3.9-17.2 4.1c-.4.3.4 2.3 1.8 4.7 1.3 2.3 2.4 4.9 2.4 5.7 0 1.4 13.2 28.3 14.9 30.5.5.5 1.2 2.5 1.6 4.2.3 1.8 1 3.5 1.5 3.8s2.3 3.7 4.1 7.5c1.7 3.9 3.5 7 3.8 7s1.4-2.8 2.5-6.3c1-3.4 2.6-8.7 3.6-11.7s3.4-11.4 5.5-18.5c2-7.2 5-17.1 6.5-22 5.1-16 5.2-16.5 2.7-16.4-1.2.1-5.6.9-9.7 1.9M613.1 143.2c-.8 1.6-1.8 2.8-2.3 2.8-.4 0-.8.6-.8 1.2 0 4.9-2.3 8.8-6.8 11.6-2.6 1.6-5.4 4.2-6.2 5.8s-2.1 3.5-2.8 4.2c-.7.8-1 1.8-.6 2.3.3.5.1.8-.4.7-1.5-.5-5.8 5.5-6 8.4-.1 2.1.9 3.4 5.9 7 3.3 2.3 6.6 4.7 7.3 5.3 3.7 3.1 7.8 5.5 9.8 5.8l2.3.2 1.2-24c.7-13.2 1.2-26.3 1-29-.2-5-.2-5-1.6-2.3M617.9 142c0 .3-.5 9-.9 19.5-.5 10.4-1.2 23.9-1.6 29.9l-.7 10.8 12.9-.6c7.1-.4 14.8-.9 17-1.2l4.2-.5-5.2-10.2c-2.8-5.6-7-14.3-9.3-19.2-8.1-17.1-16-30.7-16.4-28.5M582.4 156.1c-.3.5.5 1.8 1.8 2.9 2.2 1.8 2.2 1.9.3 2.5-1.1.4-2.8 1.1-3.7 1.6-1 .5-3.5.9-5.5.9-2.2 0-4.8.9-6.3 2l-2.5 2 2.3.6c1.2.4 2.2 1.1 2.2 1.6 0 .6-.7.7-1.6.4-.8-.3-1.2-.2-.9.4s1.2 1 1.9 1 2.1.9 3.1 2 2.2 1.7 2.6 1.4c.5-.3.9-.1.9.5s.7.7 1.7.4c1-.4 1.4-.2 1 .4-1 1.6 2.3 2.5 3.9 1.2.8-.6 1.2-1.5.9-1.9-.3-.5.1-1 .7-1.3.7-.2 1.3-1.7 1.3-3.3 0-1.8.5-2.9 1.5-3 3.9-.3 4.1-.4 2-2.6-1.7-1.9-1.8-2.3-.5-3 .8-.5 2.1-.8 2.7-.6.7.1 2.3-.4 3.6-1.1l2.3-1.2-2.2-2c-1.3-1.1-3.6-1.9-5.3-1.8-1.7 0-4.1-.2-5.3-.4-1.3-.3-2.5-.1-2.9.4M554.6 168.9c-.4.6 0 2.5.7 4.3.8 1.8 1.2 3.9 1 4.5-.3.7-.1 1.3.4 1.3s.9 1 1 2.1c.3 3.3 2.1 4.5 7.1 4.8 1.7.1 1.5 3.8-.3 4.5-.9.3-1.5 0-1.5-.8 0-.7-.7-1.3-1.5-1.3s-1.5.7-1.5 1.6c0 2.7 4.2 16.1 5.1 16.1 1.1 0 5.3-5.8 7.3-10.3 1-2.1 3.1-5.8 4.7-8.2 1.6-2.3 2.9-4.7 2.9-5.1 0-1.6-17.3-12.2-22.7-13.8-1.2-.4-2.4-.2-2.7.3M428 180c0 3.3-.3 4-2 4-1.6 0-2-.7-2-3 0-3.6-1.5-4-2.4-.5-.4 1.4-1.1 2.2-1.9 1.9-.7-.2-2 .7-2.8 2.2-1.8 3.4-2 20.7-.2 22.5 2 2 10.2 1.2 13.9-1.3 3.9-2.7 4.1-3.3 1.4-5-1.1-.7-2-2.1-2-3 0-1-.4-1.8-1-1.8-.5 0-1-.9-1-2 0-1.3.7-2 2-2s2-.7 2-2-.7-2-2-2-2-.7-2-2c0-1.6.7-2 3-2 2.8 0 3-.2 3-4s-.2-4-3-4-3 .2-3 4M581.7 185.2c-.2.7-.4 1.5-.3 1.8 0 .3-.9 1.6-2.1 2.9s-2 2.8-1.7 3.2c.3.5-.5 1.9-1.6 3.1-1.2 1.3-3.5 4.9-5.2 8.1l-2.9 5.9 2.8-.6c4.4-1 6.4-1.3 12.3-2.1 3-.4 7.8-1.3 10.5-2 2.8-.8 7.6-1.7 10.8-2.1 5.5-.6 5.7-.7 4-2.3-2.4-2.1-24.7-17.1-25.5-17.1-.3 0-.8.6-1.1 1.2M442.5 201.3c-2.2 1.3-8.9 5.7-14.8 9.8-5.9 4-11.8 8-13 8.6-1.8 1.1-.3 1.3 9.4 1.3 6.4 0 19.8-.3 29.7-.7 20.8-.7 21.8-1.2 13.5-7.5-5-3.7-20-13.8-20.5-13.8-.2 0-2.1 1.1-4.3 2.3M607.6 205.7c-.1.2-5.9 1.2-12.7 2.3s-14.4 2.5-16.9 3.2-5.3 1.1-6.2 1c-3.3-.6-1.9 2.7 2 4.7 2 1 4.8 2.8 6.2 4 4 3.3 4.2 3.4 11.1 8.4 3.7 2.6 6.9 4.7 7.2 4.7.7 0 5-9.5 6.7-14.6.7-2.1 1.8-4.6 2.5-5.4s1.7-3.1 2.3-5.1c.7-2.8.7-3.6-.4-3.6-.8 0-1.6.2-1.8.4M609.1 216.2c-3.4 7.6-3.7 8.3-7 16l-1.9 4.7 5.9 14.3c3.3 7.9 7.1 16.6 8.5 19.5 1.3 2.8 2.4 5.8 2.4 6.5.1 1.5 2.8 5.4 3.3 4.7.2-.2-.2-5.6-.8-11.9-.7-6.3-1.8-17.1-2.4-24-2.3-25.7-3.4-35.5-4.1-36.3-.4-.4-2.1 2.5-3.9 6.5M565.7 215.7c-.4.3-.7 1.9-.7 3.4s-.4 3-.9 3.3c-.8.5-2.3 12.1-2.5 19.6-.1 1.9-.5 3.8-1.1 4.2-.5.4 0 .8 1.2.8 2.7 0 33.3-10 33.3-10.8-.1-1.1-12.5-10.2-14-10.2-.7 0-2-.8-2.9-1.8-2.9-3.2-8.1-6.3-9.2-5.6q-1.05.6-.6-.3c.8-1.2-1.7-3.6-2.6-2.6M429.8 222.7l-17.6.3.9 3.3c.5 1.8 2.7 7.8 5 13.3 2.2 5.4 4.8 12.1 5.8 14.9 1 2.7 3.4 8.6 5.4 13 1.9 4.4 6.1 14.3 9.3 21.9 4 9.5 6 13.4 6.4 12 .3-1 1.8-4.4 3.4-7.4 1.5-3 4.1-8.7 5.6-12.5 1.5-3.9 4.9-12 7.5-18 2.6-6.1 5.8-13.7 7.1-16.9s2.7-6.2 3-6.5c1.6-1.5-1.3 6.8-8.3 22.9-6.4 14.8-10.4 24.5-14.8 35.5-.4 1.1-.9 3.2-1.1 4.6-.3 2.5.3 2.9 10.4 7.1 14.1 6 21 8.3 21.8 7.5.4-.3 1-3.2 1.4-6.4l.7-5.8.2 6.2c.1 4.8.5 6.4 1.9 7.1.9.5 6.2.7 11.7.5 9.6-.4 10-.5 13.1-3.6 1.7-1.8 3.9-3.7 4.9-4.2 1.3-.8 1.7-2.3 1.6-6.9 0-3.2-.2-6.1-.5-6.3-.6-.6-9.4 4.4-12.3 7-1.3 1.1-2.3 1.6-2.3 1.1s3.3-3.1 7.2-5.6l7.3-4.7-8-3.6c-4.4-2-10.3-4.7-13.1-6.1-5.7-2.7-7.4-3-7.4-1.2 0 1-.2 1-.9 0-.6-1.1-2.3-.6-8.1 2.3-9.4 4.7-10 4-.7-.9 4-2.1 7.5-4.1 8-4.5 1.1-1.1-3.5-53.6-4.9-55-.9-1-1.8 1.2-2 5.4-.3 5.3-1 6.6-2.9 5.8-2.1-.7-1.9-3 .9-8.9 1.3-2.8 2.1-5.5 1.7-6.1-.6-.9-18-1.2-47.3-.6"/><path d="M483.3 222.7c-1.3.9-1.3 1 1.2 25.3.8 8 1.7 17.8 2 21.9.2 4.1.7 7.6 1 7.9s.5 0 .5-.7.5-.9 1-.6c.6.4.9.3.8-.2-.2-.4 1.3-2.3 3.2-4.2 1.9-1.8 3.4-4.1 3.2-5-.2-1.1 0-1.2.6-.4.6.9 2.8-.8 7.5-5.7 3.7-3.9 6.7-7.5 6.7-8.2 0-.6.3-.9.6-.6s2.6-1.7 5.2-4.5 5.6-6 6.7-7.2 3.9-4.2 6.3-6.7c2.3-2.5 4.2-5.1 4.2-5.7s.5-1.1 1-1.1c.8 0 1.5-3.9.8-4.1-2.6-.6-51.7-.8-52.5-.2M385.1 225.9c-8.8 1-13.6 2-13.9 2.9-.2.7 1 3.4 2.6 6s4.7 8.1 6.8 12.2 7.4 13.6 11.8 21l8 13.4 1.2-6.9c1.1-6.3 5.3-33.7 7-45.8l.6-4.7-5.3.1c-3 .1-11.4.9-18.8 1.8M408.5 239.7c-.9 6.5-2.6 17.2-3.6 23.8-1.1 6.6-2.2 13.7-2.5 15.7-.5 3.4-.3 3.9 2.2 4.8 1.5.6 10.3 4.9 19.6 9.5 9.2 4.7 16.8 8.2 16.8 7.9 0-.8-10.3-26.5-13.5-33.7-1.2-2.9-5.3-12.6-9-21.7s-7.1-16.9-7.5-17.3c-.4-.5-1.5 4.5-2.5 11M366.7 235.7c-.9 2.1-3.7 7.6-6.2 12.3l-4.6 8.5 2.8 2.3c1.5 1.2 4.7 3.2 7 4.3 2.4 1.1 4.5 2.5 4.9 3 .3.5 1 .9 1.6.9 1.1 0 .6-5.1-1.8-19.6-.9-5.1-1.4-10-1.2-11 .8-3 1.4-.3 3.9 16.1 1.2 8.2 2.7 15.6 3.2 16.3 1 1.2 13.9 8.3 19 10.4 1.5.6 1.1-.7-1.9-6-2-3.7-4.9-8.5-6.4-10.7-1.4-2.2-3.8-6.3-5.2-9-1.4-2.8-4.4-7.9-6.7-11.5s-4.4-7.3-4.7-8.3c-.9-2.6-1.9-2.1-3.7 2M594 238.9c-.8.4-8 3-15.9 5.7-7.9 2.6-14.5 5.4-14.8 6.1s.2 1.9 1 2.8c.8.8 1.7 1.8 1.9 2.2.6 1.6 33.4 21.1 50.6 30.2l2.2 1.2-2.4-6.3c-3.2-8.2-9.4-23.6-10.8-26.8-.7-1.4-2.4-5.4-3.8-9-2.8-6.6-4.6-8-8-6.1M354.6 262.2c-.3 1.3-1 6.1-1.6 10.8s-1.3 10.1-1.6 12c-.5 3.1-.5 3.3.7 1.8.8-1 5.4-4.8 10.3-8.5 4.9-3.8 9.1-7.3 9.3-7.9.4-1.1-13.9-10.4-15.8-10.4-.5 0-1.1 1-1.3 2.2M375.6 278.7c.3 3.8.7 9.2 1 12l.5 5.3 7.7-3.9c4.2-2.1 8.6-4.8 9.6-6 2.2-2.5 4.5-2.9 2.5-.4-1.9 2.3-14.6 10.3-16.4 10.3-2.2 0-2.7 1.8-.8 3 12.1 7.2 22.9 12.7 23.4 11.9.3-.6 1.8-.7 3.4-.3 2.7.7 2.8.6 2.1-3-.8-4.4-8.8-22.2-10.7-24.1-1.8-1.7-20.2-11.5-21.7-11.5-.7 0-.9 2.2-.6 6.7M363 280.2c-5.2 3.8-9.6 7.2-9.8 7.7-.3.8 18.7 8.1 21 8.1.6 0 .8-2.4.4-6.8-.4-3.7-.7-8.6-.8-11s-.4-4.4-.7-4.6c-.3-.1-4.9 2.8-10.1 6.6M508 276.9c0 1.1-.3 1.1-1.6 0-1.3-1-1.7-1-2.4.1-.5.8-.7 1.7-.4 2.1.2.4-.2 1-.8 1.2-.8.3-.6.6.5.6 2.1.1 2.4 4.1.3 4.1-.8 0-1.8.4-2.1 1-.7 1.1 12.3 7.6 13.2 6.6.4-.3.7-2.1.7-4 .1-1.9.4-3.2.9-2.9.4.2.7-.7.7-2.1s-.4-2.7-.9-3-.7-1.6-.3-2.8c.4-1.7.2-2-1.1-1.5-1 .4-1.7.2-1.7-.2 0-.5-1.1-.8-2.5-.7-1.4 0-2.5.7-2.5 1.5M402 286.2c0 .8 7 16.7 10.7 24.4l4 8.1 4.7-1.8c2.6-.9 5.3-2.2 5.9-2.7 1.6-1.2 9.7-4.3 9.7-3.7 0 .3-2.8 1.9-6.2 3.5-12.6 6.2-13.1 7.5-6 14.8 3 3.2 6.3 7 7.3 8.6l1.8 3 2.1-4.9c1.1-2.6 2.5-6.6 2.9-8.7.5-2.2 1.2-4.3 1.7-4.6 1.1-1.1-.4 6.8-2.6 13.9l-2.1 6.4 2.1 1.7c1.2 1 1.9 2.2 1.5 2.8-.3.5-.2 1 .4 1 1.3 0 2.2-1.5 2.8-4.8.8-4.9.9-35.2 0-35.2-.4 0-.7-.7-.5-1.6.2-1.3-4.1-3.9-17.2-10.5-15.5-7.8-23-11-23-9.7M531.2 291.8l-14.2 4.6.2 5.8.2 5.8h4.1c2.3 0 4.5-.4 5.1-.9.5-.5 2.5-1.1 4.4-1.3 3-.3 4.4-1.4 10-8.5 3.6-4.4 6.6-8 6.8-7.8.4.4-2.7 5.4-5 7.9-2.1 2.3-4 7.4-2.9 8 1.6 1.1 13.8.8 15.9-.3 1.2-.7 2.7-.9 3.2-.6 1.1.7-3-9.1-5.8-14-2.5-4.2-5.3-4-22 1.3M447.4 310.6c2.5 6.9 4.6 11.3 7.6 16.3 1.7 2.6 3 5.3 3 5.8 0 .6.7 2.7 1.6 4.8l1.5 3.7 6-6.3c7.1-7.5 11.4-13.8 10.2-15-.4-.4-7.1-3.3-14.8-6.4s-14.6-5.9-15.2-6.2c-1-.4-.9.4.1 3.3M446.1 321.7c.5 3.8.8 9.4.8 12.5.1 3.6.5 5.8 1.2 5.8.6 0 .9.7.5 1.5-.4 1.2.4 1.5 4.4 1.5 5.8 0 6.1-.9 3-6.7-1.1-2.1-2-4.3-2-5 0-1.9-6.8-16.3-7.7-16.3-.5 0-.6 3-.2 6.7M473.9 328.7c-12.5 14.9-13 16.3-6.1 16.3 4.4 0 16.2-4.3 21.6-7.9 2.1-1.4 4.9-3.3 6.2-4.1s2.4-2.1 2.4-2.8c0-.6.5-1.2 1-1.2.6 0 1.4-.8 1.7-1.8.4-.9 1.3-2.3 2-3 2.5-2.5.2-3.2-11.1-3.2h-11.3zM627.2 347.9c-.1 4.1-1.6 16.8-3.2 26.6-1.5 9.1-1.8 11.7-1.9 15.4-.1 2.3-.4 3.2-1.1 2.5-1-1-.8-3.8 2.4-25.4 2-14.1 2.5-20 1.7-20-.7 0-3.1 2.9-8.6 10.5-5.2 7.3-11.1 14.9-14.4 18.5-3.2 3.6-3.8 5-2.2 5 .5 0 2.9 1.6 5.3 3.7 5.8 4.9 12.8 9.3 14.8 9.3 1.8 0 10.5-6.7 21.3-16.4 3.8-3.3 7.9-6.7 9.3-7.4 1.8-.9 2.2-1.7 1.6-2.8-1.5-2.8-22.5-23.4-23.7-23.4-.8 0-1.3 1.5-1.3 3.9M461.5 366.5c-.3 1.1-1.4 3.6-2.4 5.5-1.4 2.7-3.8 10.7-4.6 15 0 .3-.6 2.1-1.2 4-4.3 13.4-8 31.1-8.8 41.1-.1 1.4-.5 3.1-.9 3.8-1.6 2.6.6 2.3 3.6-.5 13.4-12.2 24.7-23.9 25.1-26.1.2-1.3.1-4.1-.4-6.1-.9-3.7-1.2-4.8-4.3-19.2-2.9-13.2-3.7-15.5-4.7-13.9-.5.8-.9.9-.9.3 0-.5.4-1.4 1-2 .5-.5.6-1.5 0-2.4-.7-1.2-1-1.1-1.5.5M597.2 385.8c-.6 1.5-2.1 5.8-3.3 9.7-1.2 3.8-2.4 7.4-2.7 7.9s.3.7 1.4.4c19.7-5.7 24.4-7.2 24.4-7.9 0-.6-12.8-9.5-17.6-12.2-.7-.4-1.6.5-2.2 2.1M364 389.8c0 1-.4 2.2-.8 2.7-1.3 1.6-6.5 15.6-5.9 16.1.6.6 25.8-2.5 27.1-3.3.9-.6-5-6.3-6.4-6.3-.4 0-1-.9-1.3-2s-1.3-2.3-2.4-2.7c-1-.3-2-.9-2.3-1.3-1.1-1.3-6.3-5-7.1-5-.5 0-.9.8-.9 1.8M505.5 409.1c-13 .8-24.3 1.8-26.8 2.6-2 .5-2.8-.4 18.7 22.8 25.7 27.5 27.5 29.3 26.2 24.7-.2-.9-.7-6-1.1-11.2s-.8-9.7-1-10-1.1-6.8-2-14.5-2-14.2-2.3-14.5c-.4-.3-5.6-.3-11.7.1M523.9 410.8c1.3 2.4 18 17.6 19.7 18 1 .2 1.2-.2.7-1.4-.7-1.8-.6-1.8 4.4.3 1.2.5 10.9-13.4 10-14.4-.9-.8-16.7-3-27-3.7-8.2-.5-8.7-.4-7.8 1.2M478 418.2c0 .6 9.3 27.3 14 40.3 1.2 3.3 4 10.3 6.2 15.6 4.8 11.1 3.1 11.2 16-1 4.3-4.1 7.8-8 7.8-8.8 0-.7-6.4-7.9-14.2-16-7.9-8.2-17.8-18.4-22-22.8-4.3-4.4-7.8-7.7-7.8-7.3M522.9 474.2c-6 20.8-7.2 24.5-8 26.6-2.3 5.7-1.4 5.6 15.6-2.4 7.7-3.6 15.1-7 16.4-7.5 2.4-1 2.2-1.3-8-11.5-5.7-5.8-11.2-11-12.1-11.5-1.5-.8-2 0-3.9 6.3M512.6 477.5l-8.5 8.8 1.8 4.6c2.6 6.9 4.5 10.4 5.7 10.8 1.6.5 11.4-31.1 10-32.4-.2-.3-4.3 3.4-9 8.2M501.5 499c-1 1.5-2.2 2.7-2.5 2.5-.9-.6-3.2 6.3-2.6 7.4.3.5-.1 1.1-.9 1.5-.8.3-1.5 1.5-1.5 2.6s-.7 3.7-1.5 5.7-1.4 3.8-1.2 3.9c.5.6 17.5-12.9 18.9-15 .7-1.1-2.2-6.7-5.1-9.8-1.5-1.7-1.7-1.6-3.6 1.2M931.5 111.6c-2.7.7-11.4 2.7-19.2 4.5s-14.7 3.5-15.4 3.9c-.8.5.4 2.9 3.7 7.4 2.7 3.6 6.7 9.1 8.9 12 2.2 3 5.1 7.1 6.5 9.1 1.4 2.1 3.7 5.1 5.1 6.7l2.6 3.1 1.7-6.4c1-3.5 2.6-8.9 3.6-11.9 3.2-10 8.2-28 7.8-28.8-.1-.4-2.5-.2-5.3.4M938.6 112c-.2.8-1.2 4.4-2.1 8-1.5 6.4-4.2 16.3-8.3 30.7-2.1 7.5-2 8.7.7 7.4.9-.5 5.2-1.7 9.6-2.6 9.5-2.1 26.5-7.4 26.5-8.2 0-.3-.9-.3-2.1 0-1.9.5-2 .4-.5-1.1.8-1 1.6-3.4 1.8-5.4.2-3.2-.5-4.3-5.9-9.9-3.3-3.5-9-9.6-12.6-13.4-4.6-4.9-6.7-6.6-7.1-5.5M950.1 119.8c3.5 3.7 10.5 11.1 15.6 16.5l9.2 9.7 12.8 1c7 .5 14.7 1.2 17.1 1.4 2.3.2 4.2.1 4.2-.3 0-.3-3.9-2.8-8.7-5.4-4.9-2.6-11.9-6.4-15.8-8.6-12-6.5-39.7-21.1-40.3-21.1-.3 0 2.4 3 5.9 6.8M976 148.3c0 .7 5.8 13.4 12.6 27.6l6.5 13.3 1.8-3.5c1-1.9 2.8-6.2 4.1-9.4 1.2-3.2 2.8-7.2 3.6-8.8.7-1.7 2.7-6.2 4.3-10.2l2.9-7.1-11.6-.6c-6.5-.4-14.5-.9-17.9-1.2-3.5-.3-6.3-.4-6.3-.1M1009.7 158.9c-1.6 3.6-5.3 12.6-8.2 19.9l-5.3 13.2 9.3 11.4c5.1 6.2 14 17.6 19.9 25.4 9.8 13.1 12.6 16.3 12.6 14.7s-12.2-49.3-15.5-60.5c-5.7-19.7-8.5-28.4-9.3-29.6-.4-.7-1.9 1.5-3.5 5.5M1046.1 181.5c0 1.1.5 7.2 1.3 13.5s1.7 15.8 2.1 21c.8 10.9 1.7 14.3 6.3 22.2 4.3 7.6 5.6 8.2 4.8 2.5-1.4-10.3-14.4-63.2-14.5-59.2M997 196.7c0 1.3 3.9 25.4 5.1 31.1.6 2.9 1.5 5 2 4.7.5-.4 1.4-.3 2.1.1.8.5.6 1.1-.7 2-1.5 1.1-1.7 2.2-1.1 6.1.3 2.6 1 5 1.4 5.4.6.6 24.1 2.9 29.8 2.9 2.7 0 3.1-1.2 1.1-3.2-.7-.7-3-3.8-5.2-6.8-8.7-12-34.5-43.6-34.5-42.3M994.7 203.5c-.8 2.8-1.9 11.9-1.9 16 0 1.9-.3 3.3-.8 3-.4-.2-1 1.2-1.4 3.3-.9 5.4-.7 12.2.2 12.2.5 0 2.9 1.3 5.3 3 2.4 1.6 4.8 3 5.3 3s.5-1.9.1-4.3c-.4-2.3-.9-6.2-1.1-8.7-.9-9.2-5.1-29.5-5.7-27.5M890 223c0 1.3 3.8 9.3 30.4 64.3 3.7 7.6 7.1 13.5 7.7 13.2.5-.4.7-1 .4-1.4-.2-.5 0-3.6.6-7 1.9-11.8 6.3-61.6 5.6-63.4-.3-.9-3.9-1.8-10.4-2.6-5.4-.6-15-1.8-21.3-2.6-13.8-1.8-13-1.7-13-.5M935.6 247.2c-.9 9-1.9 20-2.1 24.5-.3 4.4-.9 11.4-1.5 15.4s-.7 7.6-.2 8.1c.8.8 11.1-16.8 17.3-29.4l3.3-6.7-5.1-9.8c-2.8-5.4-6.2-11.7-7.5-14.1l-2.5-4.3zM948.3 232.7c-1.3.2-2.3.9-2.3 1.4s-.7.9-1.5.9c-.9 0-1.2.6-.9 1.5.4.8 1.2 1.5 2 1.5s1.1.6.8 1.4 1.1 4.6 3.1 8.3c4.1 7.5 6.2 10.3 4.6 6.1-.6-1.7-.7-2.9-.1-3.3s1 .4 1.1 1.7l.1 2.3.6-2.2c.7-2.1.9-2.2 3.4-.9 1.8 1 2.7 1.1 2.5.3-.1-.6 1.1-1.3 2.8-1.7l3-.5-2.3-2.3c-2.6-2.6-2.7-3.2-.7-3.2.8 0 1.5-.8 1.5-1.9 0-1 .7-2.4 1.5-3.1 2.8-2.4 2.5-2.6-7.5-5.6-4.5-1.3-7.6-1.5-11.7-.7M1049.2 236c-.6 1.6-2.5 5.1-4.3 7.6-3.7 5.5-3.8 5.4 7.6 8.4 4.4 1.2 8.8 2.4 9.8 2.6 2.4.7 2.2-2.3-.3-3.8-1.1-.7-3.9-5-6.1-9.6-2.3-4.5-4.5-8.2-4.9-8.2s-1.3 1.3-1.8 3M990.6 243.7c2.4 10.2 5.6 21.8 6.3 23.2 1.1 1.8 3.8-6.6 4.7-14.6l.7-5.1-5.4-3.1c-6.6-3.8-7.1-3.8-6.3-.4M1006 248.5c0 1.2 3.4 7.1 7 12 2 2.7 6 9 9 14 2.9 4.9 6.3 10.6 7.5 12.5 4.8 7.7 6.7 11.1 6.3 11.5-.2.3-4-5.5-8.3-12.8-4.4-7.2-9.3-15-11.1-17.2-1.7-2.2-4.1-5.8-5.3-8-3-5.4-2.2-2.6 3.8 14 3.4 9.4 5.8 14.5 7.2 15.5 1.2.8 4.9 3.6 8.2 6.2 5.8 4.7 7.6 5.6 7.8 4 .3-1.8.8-14.1 1.2-30.5s.3-17.9-1.4-18.8c-1-.5-2.2-.8-2.6-.7-.8.2-12.3-.7-23.5-1.8-3.2-.3-5.8-.3-5.8.1M1002.1 261.1c-1.2 5.2-2.4 10.1-2.7 11.1-.3 1.2 1.9 3.3 8.3 7.7 4.8 3.3 8.9 5.7 9.1 5.3.2-.8-10.2-29.3-11.8-32.1-.5-.9-1.5 2-2.9 8M953.3 263.2c-5.7 9.3-16.9 30.8-17.8 33.8-.4 1.4-1.3 2.8-1.9 3.2-.8.6-.8.8.1.8 1.3 0 15.9-6.1 37.4-15.8 20-9 21.9-10 21.8-11.5q0-1.35-.6 0c-.2.7-.9 1.3-1.4 1.3-.6 0-.7-.5-.4-1.1.4-.6-.2-1.3-1.4-1.6-2.7-.7-3.6-.5-3.7.7-.1.5-.2 1.5-.3 2-.1.7-.7.7-2.1 0-1.5-.8-1.9-1.7-1.4-3.4.5-2.1 0-2.4-4.3-3.6-2.6-.7-5.2-1.6-5.8-2-.5-.4-3.7-1.7-7-2.8s-6.7-2.3-7.6-2.7c-1.2-.4-2.2.4-3.6 2.7M999.6 278.8c.2 1.5.9 4.9 1.5 7.7.5 2.7 1.4 7.2 1.9 9.9s1.2 5.1 1.6 5.5c.8.7 12.4-11.7 12.3-13.3 0-.6-4-3.7-8.9-6.8-8.7-5.6-8.9-5.6-8.4-3M1071.6 282.9c-.5.7-1.2 6.6-1.5 13-.4 6.4-1.2 12.5-1.9 13.6-.6 1.1-3.1 7.1-5.6 13.4-5 12.5-5.2 12.4 5 2.6 4.7-4.5 5.3-5.5 5.9-10.7.4-3.1.4-7.6.1-10-1.1-7.5-1.5-15.3-.8-15.8.4-.3.5-2.1.2-4-.4-2.5-.8-3.1-1.4-2.1M1012.6 296.9c-6 6.1-6.7 8.4-2.9 9.8 1 .4 4 2 6.6 3.5 2.7 1.6 5.2 2.6 5.6 2.4.7-.4-2.4-20.4-3.2-21.2-.2-.2-2.9 2.3-6.1 5.5M1020.3 292.7c.3 1 1.3 6.1 2.2 11.3 1 5.2 1.9 9.7 2.1 9.9.3.4 7.9-5.6 10.9-8.5 2-2 1.7-2.4-6.9-8.9-8-6-9-6.4-8.3-3.8M930.3 307.1c-.7.7-2 1.3-3 1.4-1 0-7 2.8-13.3 6.1s-15.9 8.3-21.2 11c-5.4 2.7-9.8 5.2-9.8 5.6 0 .3 1.5 1.5 3.3 2.6 4.7 3 29.2 15.2 30.4 15.2.5 0 1.4-1.2 2.1-2.8l1.2-2.7-.4 2.7c-.3 2.3.1 2.8 1.9 2.8 3.2 0 23.6-2.9 24.6-3.5.8-.6-.8-5.9-3.4-11-5.4-10.6-11.9-24.7-11.5-25 .2-.2 3.9 6.5 8.2 15s8.3 15.9 9 16.4c1.5 1.3 2.2.7 7.1-5.4 2.1-2.8 4.2-5.2 4.5-5.5 3.5-3.3 14-17.6 14-19.2 0-.2-.8-.4-1.7-.5-7.6-.6-36.3-3.5-38.3-3.9-1.4-.2-3.1.1-3.7.7M988.5 308.2c-4.9 1.1-9.3 2.3-9.8 2.7-1.3 1.2 3.6 14.1 5.3 14.1.6 0 1-.4 1-.9 0-.4 1.1-.6 2.4-.4 2 .4 3.1-.5 6.5-5.1 2.3-3.1 5.1-7.2 6.2-9.1l2.1-3.5-2.4.1c-1.2 0-6.3 1-11.3 2.1M1043.4 332c-9.6 5.4-9.7 5.5-7.8 12.5.8 3.3 1.7 6.1 1.9 6.4 1 .9 3.3-2.2 2.8-3.7-.3-.9-.2-1.4.2-.9.9.8 4.4-4.8 8-13.1 1.3-2.8 2.3-5.2 2.2-5.2s-3.4 1.8-7.3 4M881.2 349.2c1.1 23.4 1 22.8 3.2 21.6 4.3-2.3 28.6-18 29.1-18.8.3-.4-1.6-2.1-4.3-3.8-5.4-3.4-26.5-14.2-27.8-14.2-.5 0-.6 6.7-.2 15.2M934 348.7c-7.5.8-14 2.5-14 3.6 0 1.3 16.4 18.2 17.7 18.2 1.3.1 4.9 2.4 3.8 2.5-.6 0-1.6-.5-2.3-1.2s-1.2-.8-1.2-.3c0 1.1 9.3 10.5 10.4 10.5s-.1-13.2-1.4-14c-.8-.5-1-3.2-.6-9.4.3-4.8.8-9.1 1.1-9.6.6-1-6-1.1-13.5-.3M910 357.1c-3.6 2.3-8.3 5.4-10.5 6.9s-5.6 3.5-7.5 4.5-4.7 2.8-6.2 4l-2.6 2.2 9.6 5.8c5.3 3.2 14.4 8.9 20.2 12.7 5.7 3.8 10.6 6.5 10.8 6 .2-.6-.4-4.4-1.2-8.6-.9-4.1-1.6-7.8-1.6-8.1s-.9-.5-1.9-.5c-1.1 0-2.3-.5-2.6-1-.3-.6.4-1 1.6-1 2 0 2.1-.3 1.5-4.8-.4-2.6-.9-7.8-1.3-11.7-.9-11.3-.8-11.3-8.3-6.4M921.3 359.8c-.7.4-1 1.7-.6 3 .3 1.2.8 2 1.2 1.8.3-.2.5 1.2.5 3.2-.1 2.1.3 4.3.9 5 .8 1 .7 1.6-.2 2.2-1.1.6-1.1.9 0 1.6.7.4 1.4.3 1.7-.4.2-.7 1.4-.2 3 1.3 2.1 1.9 2.4 2.7 1.4 3.7-1.4 1.4-1.6 7.4-.2 8.3 1.7 1 1.1 2.5-1 2.5-1.7 0-2 .7-2 4 0 2.2.3 4 .6 4 1.2 0 9.4-5.5 9.4-6.3 0-1.4-1.8-.7-2.4.9-.8 2-2.1 1-2.1-1.4 0-2 3.2-3.2 6.1-2.1 1.8.6 2 .4 1.6-1.8-.4-1.9-.1-2.4.7-1.8.7.4 1.8 0 2.5-1.1.8-1 2-1.5 3-1.1 2.3.9.7-2-3-5.3-1.6-1.4-2.2-1.7-1.5-.8 1.2 1.6 1.1 1.8-1.3 1.8-2.7 0-3.6-1.5-1.4-2.2 1.7-.6-.4-3.5-8.1-11.7-3.4-3.5-6.1-6.7-6.1-7.2 0-1.1-1.1-1.1-2.7-.1M1018.1 382.6c-.1.6-1.3 1.1-2.7 1.1-3 0-4.1 1.4-5 6.3-.3 1.9-1.6 7.1-2.9 11.5-1.5 4.9-2.1 8.3-1.5 8.9 1 1 18.1 4.5 19.1 4 .4-.2.3-2.1-.2-4.1-.5-2.1-1.8-8.3-2.8-13.8-1.8-9.3-3.9-16.5-4-13.9M958.6 390.6c.3 1.2 3.3 4.8 6.5 8l6 5.9 2.2-2.5c2.2-2.5 5.8-3.3 7.4-1.6.4.5.3.6-.4.2s-1.3-.2-1.3.4c0 .5-1.3 1.8-3 2.9l-3 1.8 3.4 3.9c1.9 2.1 3.7 3.6 4.2 3.2.4-.5.8-3.9.9-7.7.2-3.8.5-7.3.9-7.9.3-.5-.1-1.2-.8-1.5-.8-.3-1.7-.1-2 .6-.5.9-.7.9-1.2-.1-.3-.6-1-1.2-1.5-1.2-.6 0-.7.4-.4 1 .7 1.2-.5 1.3-2.3.1-.7-.4-1.2-1.4-1-2.2.2-1-.9-1.4-4.5-1.5-2.6 0-5 .3-5.3.8-.3.4-1.6-.4-2.9-2-2.1-2.3-2.3-2.4-1.9-.6M942.7 393.4c-2 1.2-3.4 2.6-3 3.1.5.4.3.5-.4.1-1-.6-10.2 4.2-10.3 5.4 0 .3 2.6 1.1 5.8 1.9 3.1.7 9 2.2 12.9 3.4 4 1.1 7.5 1.9 7.7 1.6.3-.3.3-1.4 0-2.6-.4-1.4-1.7-2.3-4-2.8-1.9-.3-3.4-1-3.4-1.4 0-1.4 3.7-2 4.9-.8.8.8 1.1.8 1.1-.1 0-.7-.6-1.5-1.3-1.8-.9-.3-1.2-1.6-1-3.7.3-1.8.1-2.7-.4-2.1-.4.5-2.6 1.1-4.7 1.2l-3.9.3 2.4-2c3.1-2.6 2.4-2.5-2.4.3M955 394c0 .6.4.9.8.6.5-.3 1.9.9 3.2 2.6 2.2 3 1.3 3-2.3-.1-1.8-1.5-1.8-1.4-.8.9.5 1.4 1.3 4.6 1.6 7.2.5 4.2 1 4.9 3.3 5.4 1.5.3 6 1.4 10 2.4 3.9 1 7.2 1.5 7.2 1.1 0-.7-20.8-20.4-22.1-20.9-.5-.2-.9.1-.9.8M1063 398.8c0 2.1 13.9 42.4 15.4 44.7 1.2 1.9 2.5 2.5 5.1 2.5 1.9 0 3.5-.4 3.5-.8 0-1.9-11.1-23.2-13.4-25.7-2.3-2.4-8.6-16.6-8.6-19.2 0-.6-.4-1.5-1-1.8-.5-.3-1-.2-1 .3M986.8 399.7c-2.1.5-2.5 1.7-3.4 9.3-.6 5.8-.6 6.2 1.2 5.7 1-.3 4.3-.9 7.2-1.2 2.8-.4 5.2-1.1 5.2-1.6s.8-.9 1.8-1c1 0 1.2-.3.5-.6-.7-.2-1.3-1-1.3-1.7 0-1.1-4.7-6-8-8.2-.8-.6-2.2-.9-3.2-.7M1019.4 431.7c-3.1 4.7-6.9 10.9-8.5 13.7s-5 7.9-7.5 11.4c-4.4 6.1-4.4 6.3-4 13 .2 4.1.1 5.7-.4 4.2-.4-1.4-.8-3.7-.9-5.3-.1-1.5-.4-2.7-.9-2.7-.9 0-19.6 21-19.1 21.5.2.2 4.5 2.4 9.4 5 5 2.6 10.5 5.6 12.3 6.7s3.5 1.8 3.8 1.6c.2-.3-.3-2.4-1.1-4.8-.8-2.3-1.5-5.9-1.5-7.9s-.4-5.3-.9-7.3c-.5-2.1-.5-3.6-.1-3.3.5.3 1.6 4.8 2.5 10 1.7 9 3.5 13.4 3.5 8.2 0-1.3.7-4.4 1.6-7 1.5-4.5 1.5-4.7-1.1-9.2-1.5-2.5-2.5-4.8-2.2-5.1s1.3.8 2.2 2.5c.8 1.7 1.9 3.1 2.4 3.1.4 0 1.8-3.5 3-7.8 1.2-4.2 3.3-11.5 4.6-16.2 1.4-4.7 3.4-12.6 4.5-17.5 1.1-5 2.7-10.5 3.5-12.3 2.5-5.4.8-3.6-5.1 5.5M1021.8 442.7c-.9 2.6-3.2 10.9-5.1 18.3-6.2 24.1-6.1 20.2-.4 37.9 5.9 18.1 5.4 18.6 8.3-7.8 1.2-11.3 1.4-15.9.6-17.2s-.8-2 .3-2.9c1-.8 1.3-2.6 1-5.8-.3-3.6-.2-4 .3-1.7.5 1.9 1.3 2.9 2.3 2.6 1.4-.4 8.1-1.6 14.7-2.7 1.8-.3 3-.9 2.7-1.4s-5.5-3.3-11.5-6.2l-10.9-5.2-.3-6.4-.3-6.3z"/><path d="M1064 449.1c-4.7.4-14.6.8-22 .8l-13.5.1 2.5 2c1.4 1 6.4 3.6 11.3 5.6 9.9 4.2 8.9 4.3 20.6-2.6 6-3.5 11.3-7.1 10.1-6.8-.3.1-4.3.4-9 .9M994.5 529.1c6 3.9 15.6 8.9 17.1 8.9s7.7-7 6.9-7.8c-.3-.4-5.4-1.2-11.3-1.8-5.9-.7-12.3-1.5-14.2-1.9-3.5-.7-3.5-.6 1.5 2.6M277.1 213.7 263 232.4l5.7 6.1c5.6 5.8 5.6 5.8.8 1.5-2.7-2.5-5.1-4.8-5.3-5.3-.2-.4-1-.7-1.8-.7s-1.4-.6-1.4-1.4c0-.7-2.1-3.3-4.7-5.7l-4.8-4.4-.8 12.5c-1.2 19.8-1 20.1 4.6 9.1 2.7-5.1 5-9.1 5.2-8.9s-2.2 5.3-5.2 11.4l-5.7 11.1 3.5 4.4c1.9 2.4 4.6 5.9 6.1 7.6l2.7 3.3 3.5-6.3c4.2-7.5 8.6-17.3 8.6-19.1 0-.7.9-2.3 2-3.6s2-2.8 2-3.4 3.1-11 7-23c3.8-12.1 6.8-22.1 6.6-22.3s-6.7 8.1-14.5 18.4M248 262c0 1.1-1.8 6.9-4 12.9s-4 11.8-4 12.9c0 1.4 4 4.8 13.8 11.9 7.5 5.5 15 10.9 16.6 11.9l2.9 1.8-.6-2.4c-.3-1.4-2.7-9.9-5.4-19-4.7-15.7-5.1-16.5-7.4-16.3-1.3.1-1.8-.1-1.1-.3 2-.9 1.4-2.3-3.9-9s-6.9-7.7-6.9-4.4M264.8 353.6c1.3.6 1.7 10.4.4 10.4-.9 0-4.5 17-3.8 17.7.4.4 6.7-8.1 8.6-11.8.7-1.3 3.3-4.6 5.7-7.4 4.6-5.3 5.2-6.9 2.8-7.9-2.1-.7-15.3-1.8-13.7-1M278.1 374.3c-2.4 9.5-5 18.5-5.7 20.2-.8 1.6-1.2 2.1-.8 1 1.7-5.8 8.3-34.9 7.9-35.3-.2-.2-2.7 3.1-5.7 7.4-2.9 4.2-7 10-9.1 12.8-2 2.8-3.6 5.4-3.5 5.7.2.4 2.4 3.5 5.1 6.8l4.7 6.1 2.8-1.7c1.5-.9 5.4-3.8 8.7-6.3 3.2-2.5 6.9-5.2 8.1-6 6.1-4.3 12.4-9.3 12.4-9.8 0-.6-12.8-12-18.5-16.4l-2.2-1.7zM234.8 383.2C229 394.8 211 432 211 432.5s4.9-2.7 23.5-15.5c4.6-3.1 5.2-3.3 2.5-1-1.9 1.7-8.8 6.8-15.3 11.2-8 5.6-11.3 8.5-10.4 9 .8.4 7.9.8 15.8 1l14.4.3.3-14.5c.4-18.2.6-42.9.3-45.3-.5-4-3.7-1.6-7.3 5.5M259.5 389.2c-2.2 7.3-4.4 13-4.5 11.7 0-.9.7-3.6 1.5-6 1.4-3.8 1.4-4.2.1-2.9-1.7 1.8-10 17-9.3 17 2.3 0 5.7-2.3 6.3-4.2s.8-2 1.3-.6c.5 1.5 1.2 1.4 6.6-.9 3.3-1.4 6.4-2.9 6.9-3.3.5-.6-.8-3.2-3.3-6.5-4.4-5.8-4.9-6.2-5.6-4.3M211.5 440.2c1.7 1.3 5.1 3.9 7.6 5.7l4.6 3.2 6.9-3.7c3.8-2 7.3-4 7.7-4.4 1-.8-5.1-1.6-19.8-2.6l-10-.7zM427 597.1c0 1 19.9 19.9 21 19.9.5 0 1.1-.9 1.5-2 .9-2.8 2.3-16.4 1.8-17-.7-.8-24.3-1.6-24.3-.9"/></svg>