<svg xmlns="http://www.w3.org/2000/svg" width="1706.667" height="960" viewBox="0 0 1280 720"><path d="M0 360v360h660.6l2.5-4.7c4.5-8.6 5.2-9.8 7.6-12.6 3.4-4.2 2.9-2.7-2.7 7-2.7 4.8-5 9.1-5 9.5s10.5.8 23.4.8h23.4l-13.5-13.5c-7.5-7.4-13.2-13.5-12.7-13.5.5.1 7.2 6.1 14.9 13.5l13.9 13.5H1280V0H0zM486 49.9c0 .5 4.6 2.3 10.3 4.1 5.6 1.8 15.2 5 21.2 7.1 18.5 6.4 39.5 13 41.5 13.2 1.1.1 2 .4 2 .8 0 .8 6.2 3.4 21 8.9 6.3 2.3 12.4 4.6 13.5 5.1 3.3 1.4 10.7 3.9 11.7 3.9.6 0 .8-1.2.5-2.6l-.5-2.6 2.2 2.7c1.9 2.4 2.6 2.6 6.1 2.1 5.2-.9 16.7.4 13.8 1.5-1.1.4-4.1 1.1-6.7 1.4-2.6.4-4.6 1.3-4.6 1.9 0 2.4 7.6 7.3 22.9 14.9 8.4 4.3 15.5 7.7 15.7 7.7s.5-1 .5-2.3c.1-2 .2-2 .6-.2.3 1.1.9 2.4 1.3 3 .4.5.4 1.9 0 3-.7 1.8-.9 1.8-1.5.3-.5-1.3-1.2-1.5-3.3-.7-1.5.5-10.6 2.5-20.2 4.4-9.6 2-20 4.1-23 4.7-5.6 1.1-9.3 3.7-8.6 6 .2.7.7 2.2 1.2 3.3.4 1.1.9 2.9 1.1 3.9.2 1.1 3.8 8.5 8 16.5 9.9 18.9 17.3 33.8 17.3 35.1 0 .6.4 1 1 1 .5 0 1.9-3.3 3-7.3 1.2-3.9 2.5-8.1 2.9-9.2.5-1.1 1.6-3.6 2.4-5.5 1.5-3.5 3.4-9.1 12.3-36.2 2.6-8.1 5-14.5 5.3-14.3.4.5-3.3 14.1-5 18-.5 1.1-2.5 7.2-4.4 13.5-2 6.3-4.8 14.6-6.2 18.5-6.4 17.1-8.2 23-7.2 23.4 3 1 58.8-7.5 60.6-9.2.5-.6-1.8-5.1-7.7-15-1.2-2-2-3.7-1.7-3.7s2.6 3.6 5.2 8 5.3 8.4 6.1 8.8c1.5.8 1.9 3 1.4 7.7l-.3 3-.6-3.5c-.4-2.2-1.2-3.5-2.1-3.4-.8.1-9.8 1.5-20 3.2s-22.8 3.6-28 4.2c-11.5 1.4-14.2 2.3-13.3 4.6.4 1.1.2 1.5-.4 1.1-.7-.4-1.8 1.2-2.8 4-5.6 15.7-26.6 78.2-27 80.4-.4 2.5 3.1 6.1 19.5 19.9 1.4 1.2 4.4 4 6.8 6.2 2.3 2.2 4.5 3.8 4.9 3.5.3-.4.5-5.2.4-10.9-.1-5.6 0-10 .3-9.8.2.3.6 5.3.8 11.2.2 8.8.6 10.8 1.8 10.8 1.3 0 13.5-6.9 25.8-14.5 2.3-1.5 4.2-3.3 4.2-4.1 0-.9.5-1.2 1-.9.6.4 2.9-.3 5.2-1.5 6.1-3.2 5.4-2-1.5 2.4-22.7 14.1-32 19.6-33.7 19.6-2.3 0-2.8 1.7-3.2 10.7-.1 4-.5 7.3-.9 7.3-.3 0-.4-3.4-.1-7.5.2-4.1.2-7.5-.2-7.5-.3 0-2.8 1.5-5.4 3.3s-6.9 4.6-9.7 6.2c-2.7 1.6-6.1 3.9-7.5 5.2l-2.4 2.3 4.4 4.6c11.6 12.2 17.2 17.3 19.9 18.7l3.1 1.5 5.2-5.6c9.2-9.7 13.2-13.6 17.6-17 2.3-1.9 4.2-4.2 4.2-5.3 0-1 .4-1.9.9-1.9 1.1 0 9.9-13.2 15.4-23.3 2.1-3.7 4-6.7 4.3-6.7.6 0-6.1 12.6-9.6 18-4.4 6.7-7 11.7-7 13.4 0 .8-.9 1.8-2 2.1-2.7.8-28 26-28 27.9 0 .8 2.9 2.6 6.5 4.1 3.6 1.6 6.3 3 6.1 3.3-.3.2-3.5-1-7.3-2.7-7.9-3.7-8.3-3.5-10.3 5.2-.7 2.9-2.5 9.9-4.2 15.6-1.6 5.7-3.1 11.3-3.2 12.5s-.8 3.4-1.4 4.9c-.7 1.6-1.2 3.2-1.2 3.7 0 .4-.7 1-1.5 1.4-1.3.5-1.3.1.1-2.5.9-1.7 1.4-4 1.1-5s0-2 .5-2.1c.8-.3 6.7-20.5 9.5-32.6.9-3.7-.7-2.8-12.1 7.1-2.6 2.3-8 6.7-12 9.8-4.3 3.3-7 6.2-7 7.3.1 1.2-.3 1.5-1.7 1.1-1.9-.6-10.7 1.5-26.4 6.5-4.9 1.6-12.8 3.6-17.5 4.4-4.7.9-10.2 2.1-12.3 2.7-3.3.9-3.6 1.2-2.6 3 .6 1.2.8 2.3.6 2.6-.3.2-.8-.5-1.2-1.7-.5-1.5-1.2-1.9-2.7-1.4-1.4.4-1.8.2-1.4-.5.4-.6.4-1.1 0-1.1s-5-.7-10.3-1.4c-5.3-.8-13.1-1.7-17.4-1.9-9-.4-9.2-1 2.8 10.4 10.1 9.6 13.4 12.2 14.8 11.6.7-.3 1.3.5 1.3 1.9.1 1.3-.3 2.4-.9 2.4s-2.2 1-3.5 2.2l-2.5 2.3 1.8-2.8 1.8-2.9L512 423c-6.9-6.6-12.6-11.7-12.8-11.5-.5.5 1 16.3 3.5 36.3 1.9 15.7 1.8 15.6 13.8 12.2 10.8-3 10.5-1.8-.5 1.6-5.7 1.8-8.9 3.4-8.8 4.2.4 1.8 21 22.2 22.5 22.2.7 0 1.3-.3 1.3-.8 0-.4 1.2-2.1 2.6-3.7l2.6-3-2 3.7c-1.3 2.3-1.9 5-1.7 7.3.3 3.4.2 3.5-1.4 2.1-1-.9-2.4-1.6-3.3-1.6-2.4 0-31.1 14.1-33.7 16.6-.6.5 4.5 8 9.2 13.7 2.2 2.6 3.7 5 3.5 5.3-.3.2-3.6-3.6-7.3-8.6-3.8-4.9-7.4-9-8.1-9s-6.7 4.3-13.3 9.5c-11.9 9.4-14.1 10.5-16.4 8.4-.7-.5-7-3.9-14.2-7.3l-12.9-6.4-5.1 1.5c-2.7.8-6.3 2.1-7.9 2.9s-3.7 1.4-4.7 1.4c-1.8 0-8.5-3.3-10.3-5.1-1.8-1.7-4.8-.9-8.6 2.1-4 3.2-5 3.6-5 2 0-.6.6-1 1.3-1 .8 0 3-1.7 5.1-3.7 3.6-3.6 3.6-3.8 3-9.7-.3-3.4-.7-6.7-.9-7.4-.3-.6 0-1.2.5-1.2.6 0 1 1.2 1 2.7 0 1.6.5 3.5 1 4.3 1.6 2.4 2.6-.1 4.5-10.7.9-5.1 2.1-9.5 2.6-9.8.5-.4.7 0 .5.7-.3.7-.7 4.2-1 7.8l-.6 6.5 2.9-3.5c1.7-1.9 4-4.6 5.3-6 1.2-1.4 2.1-3.4 2-4.5-.2-1.6.4-1.2 2.7 1.5 1.7 1.9 3.1 4.2 3.1 5 0 1 .3 1.1.8.4.4-.6 1.4-1.3 2.3-1.6 1.6-.6 3.5-8.1 2.5-9.7-.3-.5 2.6-.8 6.4-.8 3.9-.1 7.6-.6 8.3-1.2.8-.6 1.7-.8 2-.4.4.3.7.1.7-.6 0-.6-1-1.6-2.2-2.1-1.5-.5-1.8-.9-.8-1.1.8-.1 2-.2 2.5-.4.6-.1 1.6-.3 2.3-.3.6-.1 2.1-1.1 3.2-2.2l2-2v2.1c0 1.5.4 1.9 1.6 1.5.9-.3 3.6-.6 6-.6 3.3 0 4.3-.3 3.8-1.2-.5-.7.5-.3 2 1 3.6 2.8 5 1.9 3.1-1.8-.8-1.6-1.5-4.2-1.5-5.7 0-3.6-9.6-23.6-11-22.8-1 .6-1.6-1.3-2.4-7.5-.5-3.5-4.4-18.2-5.1-18.8-.2-.2-6.8 5.9-14.6 13.7-8.8 8.7-13.9 14.5-13.6 15.4.6 1.6 4.4 2.2 23.7 3.8 7.7.7 14 1.5 14 1.8 0 1.2-2 3.6-2 2.5 0-.7-1.5-1.4-3.2-1.8-5.8-1-34-2.8-34.6-2.1-.7.6 13.8 15.5 15.1 15.5.5 0 2.7-1.3 5-2.8 5.2-3.5 15.7-9.5 15.7-8.9 0 .2-3.8 3-8.5 6.2s-8.5 6.1-8.5 6.3c0 .3.8 1.1 1.8 1.9 1.6 1.3 1.6 1.4-.3.9-1.1-.3-3.5-.7-5.2-.8-3.2-.2-4.4-1.3-2.2-2 1-.3-6.9-7.7-14.1-13-4.4-3.2-6.6-2.6-10.4 3.2-1.5 2.3-3 3.9-3.3 3.6-.4-.3.1-1.4.9-2.3.8-1 2-3.2 2.5-4.8l1-3-6.6.1c-11.8.1-12.5.2-11.1 1.9.7.9 1 1.8.7 2.1s-1-.4-1.7-1.5c-.6-1.2-1.4-1.9-1.8-1.7-.5.3-1.3.1-2-.3-.9-.5-1-2-.2-5.7.5-2.7 1.5-7.4 2.1-10.4.5-3 1.7-6.9 2.5-8.7.7-1.7 1.4-3.5 1.4-4.1 0-.5.7-2.3 1.5-3.8.8-1.6 1.5-3.8 1.5-4.9 0-1.2.4-2.5.9-3 1.1-1.1 5.7-20 6.4-26.3.4-3.6.2-4.2-1.3-4.2-1 0-3.8 1.7-6.2 3.7-2.5 2.1-5.7 4.7-7.2 5.8-3.6 2.6-14.9 17.2-13.8 17.9 1 .6 5.3 1.6 9.7 2.2 1.7.3 4.1.8 5.5 1.1 2.5.6 2.5.6-.5 1.3-1.6.3-5.7 0-9-.7-3.3-.8-7-1.1-8.2-.8-2.2.5-2.3 1-2.4 10.8-.1 5.6-.5 12.9-.9 16.2q-.9 6-.3-7.8c.4-9.7.1-14.7-.7-16.7-.7-1.6-1.5-2.8-1.9-2.6-.3.2-6.7 1.2-14.1 2.1-7.4 1-13.7 1.9-13.8 2-1.2 1.1 17.4 35.4 22.5 41.6.7.8 1.3 1.9 1.3 2.3 0 2.9-14.9-20-20.1-30.9-5.8-12.1-8.2-15.5-13.5-18.7-2.4-1.6-4.4-3.3-4.4-3.8 0-1.4 1.7-1.2 2.3.2.5 1.4 9.5 6.4 10.2 5.7.2-.3 1.6-4.5 3-9.4 1.5-5 2.9-9.7 3.2-10.7.3-1.2-.4-1.8-2.6-2.3-3.2-.7-4.3-2.5-1.6-2.5 2.1 0 1.9-2-.2-2.1-1.3 0-1.1-.3.7-1.2l2.5-1.1-3.2-.4c-2.4-.2-3.3-.8-3.3-2.1 0-1-1.5-3.4-3.2-5.3-5.3-5.7-6-6.8-4.8-6.8.6 0 .8-.5.5-1-.3-.6-1.3-1-2.1-1-1.1 0-1.3 1.4-1 7.2.5 8.9 1.3 11.3 3.2 9.7 1.4-1.1 5.4-.4 5.4 1.1 0 .5-1.5 1-3.2 1.2-4.5.4-4.8 3.7-.9 12.3 1.7 3.7 3.1 7.3 3.1 7.9 0 1.5-5.3-7.6-5.3-9.2 0-.6-.4-1.2-.8-1.2s-1.2-1.2-1.7-2.8c-1-2.6-1-2.6-1.3 1.3-.1 2.2-.1 6 0 8.5.2 3.4 0 4.2-.9 3.4-.8-.9-1.1-7.1-1-22 .3-38.7.1-43.8-2-54.7-1-4.9-1.4-22.4-.5-21.5.3.2 1 6.3 1.6 13.4s1.6 13.2 2.2 13.6c1.3.8 4.6-3.2 5.6-7 .6-1.9.4-3.4-.5-4.7-1.8-2.4-1.8-4.6 0-2.3 2 2.7 2.6 2.2 2.7-2 0-2.9.2-3.3.8-1.7.5 1.1.7 2.3.4 2.8-.7 1.2 2.5 2 5.2 1.3 1.4-.4 2.3-1.1 2-1.6-.4-.6.7-1 2.5-1 1.7 0 3.8-.7 4.7-1.6 1.6-1.6.9-2.8-4.7-8.5-9.6-9.8-8.6-10.5 1.3-.9 7.3 7.1 9.7 8.1 13.8 6 1.5-.8 1.8-1.7 1.3-3.8-.7-3-3.2-6.2-4.7-6.2-.5 0-4.6-1.6-9-3.6s-9.4-3.8-11.1-4c-1.7-.1-3.4-.3-3.8-.3-.4-.1-.1-2 .6-4.4 2.4-7.7 4.6-21.1 4.6-27.9 0-5.3.3-6.6 1.4-6.2 1.2.5 2.1-5.9 3.1-22.1.1-1.7.7-4 1.4-5.3s1-3 .7-3.8.1-1.4.8-1.4c.8 0 1.6.7 2 1.5.3.8.1 1.5-.3 1.5-.5 0-1.2.8-1.6 1.7-.7 1.8-3.5 22.5-3.4 25.3 0 1.7 7.2-11.7 9-16.8 1-3 .9-3.6-1.2-5.8-2.2-2.4-1.4-3.5.9-1.2.6.6 1.4.9 1.7.6.7-.7 1.9-7.5 4.1-22.8 1.9-12.6 3.3-19.4 4-18.8.2.3-.8 8.1-2.2 17.4-4.2 26.4-4.1 24.4-.8 24.5 2.5.2 2.6.2.6.6-1.3.3-2.5 1-2.8 1.7-.4 1.2 3.3 9.1 5.7 12.2.5.6 2.5 4.8 4.6 9.5 3 6.5 14.2 27.5 16 29.8 1.3 1.7 2.8-3.4 3.9-13.1 1.5-14 4.2-33 5.4-38.3.5-2.2.6-4.4.2-5-.3-.5-.7-1.8-.7-2.7-.1-1-.9-2.6-1.7-3.5-.8-1-3.3-5.2-5.5-9.3s-5-9.3-6.3-11.5c-1.2-2.2-4.5-8.4-7.2-13.7-2.8-5.4-5.3-10-5.8-10.3-.9-.5-2 2.8-2 6.2 0 1.2-.4 2.4-.9 2.7s-.8-3.6-.7-8.8c.1-7.5.4-9.2 1.4-8.4.7.6 1.4.9 1.7.6.2-.2 1.8-4.4 3.4-9.4 1.6-4.9 3-8.2 3-7.3.1.9-.8 4.2-1.8 7.5-1.1 3.2-1.8 6-1.7 6.2.2.1 4-3.9 8.4-9s9-10.2 10.3-11.3l2.4-2-2.1 2.5c-1.2 1.4-5.5 6.6-9.7 11.5-4.1 5-8.2 9.7-9.1 10.4-1.9 1.6-2 3.9-.4 7.8.6 1.5 1.2 3 1.2 3.3.1.3 1.9 3.6 4 7.5 2.1 3.8 6.3 11.5 9.4 17 3 5.5 6.6 11.8 8 14l2.6 4 .8-3.5c1.4-6.7 4-24.5 4.8-33.5.4-5 1.7-15.1 2.9-22.5 6.4-41.9 6.4-42.2 1.4-34.6-3.3 5-13.2 16-13.9 15.4-.2-.2 2-3.2 4.9-6.6s7.1-8.5 9.4-11.4c4-5 4.1-5.3 2-5.7s-2.1-.4.3-1.1c2.9-.7 3-2.6.7-11-.8-3-1.4-5.7-1.2-5.8.2-.2.9 1.6 1.5 4 .7 2.3 1.8 5.8 2.6 7.7 1.3 2.8 1.7 3.1 2.7 1.9 2-2.4 13.2-12.4 30.7-27.3 9.1-7.6 16.9-14.4 17.3-15 .6-.7.7-.6.5.1-.4 1.3-15 14.8-24.8 22.8-3.1 2.5-9.4 8-20 17.4-4.1 3.7-4 3.7 9 2.2 4.7-.6 19.6-1.2 33.1-1.5 13.5-.2 25.8-.9 27.3-1.5 3-1.1 3-1.7.6-15.5-.5-2.8-.9-11.7-.9-19.9-.1-13.6-.7-21.6-1.7-21.6-.8 0-12 8.9-13.9 11-1.1 1.2-3.3 3.1-5 4.2-1.6 1.2.8-1.6 5.5-6 4.7-4.5 8.1-8.2 7.5-8.2-.5 0 .8-.9 3-2 4.2-2 9.5-2.6 9.5-1.1m446.4 56.6c-.2.5 1.6 1.9 3.9 3.1 13.7 6.7 59 30.8 62.2 33 5.1 3.6-1.5.7-12.6-5.4-6.8-3.8-20-10.8-29.4-15.6-9.3-4.8-17.6-9.3-18.3-9.8-.7-.6-1.5-.8-1.9-.5-.5.6 10.4 13 24.7 27.9l4.5 4.8 16.9 1.1c12.9.9 17.3.9 18.8 0 2.2-1.4 5.8.1 5.8 2.4 0 .8 3.2 8.1 7.1 16.2s10.2 21.5 14.1 29.7c3.8 8.2 8.6 18.3 10.6 22.5l3.6 7.6.7-4c.6-4 .6-4 .6 1 0 3 .8 6.6 2 9 3.6 7.3 6.4 12 8.5 14l2 2-.6-6.7c-.4-3.7-2.4-13.6-4.6-22-2.1-8.4-5.1-20.7-6.5-27.3-2.5-11.4-5-17.8-4-10.4 1.4 10.3 2.5 23.6 2.3 29.6-.1 3.9-.3 5.1-.5 2.8-2-24.9-2.6-31.7-4-42-.8-6.6-2.1-12.5-2.7-13.1s-4.7-2.1-9.1-3.4c-4.4-1.2-9.5-2.7-11.3-3.2-1.8-.6-3.1-1.2-2.9-1.5.3-.2 4.5.8 9.3 2.2 13.4 4 13.3 4 7.9-.7-2.7-2.4-8.4-7.5-12.5-11.3-4.2-3.9-10.2-9.3-13.4-12-10.6-9.2-14.9-13-19-16.9-3.3-3-3.5-3.4-1-1.7 1.7 1.1 3.7 2.7 4.4 3.7.8.9 5.5 5 10.5 9.2 4.9 4.2 11.5 9.9 14.5 12.8s7.5 6.9 10 8.9c13.1 10.9 14.6 12.7 17.2 21 1.4 4.4 2.9 10.7 3.2 14 .4 3.3 3.6 17.8 7.1 32.1 3.6 14.4 6.5 27 6.6 28 0 1.1.6 3.7 1.3 5.9 1.3 3.8 1.3 3.5.9-5-.2-5-.8-12-1.3-15.7-1.3-8.4-1.3-11.9-.1-9.8.9 1.6 1.8 7.6 2.6 18 .3 3.6.8 8 1.1 9.9.3 1.8 0 4.7-.7 6.3-.9 2.3-.9 3.5 0 5.6.8 1.6.9 2.8.3 3-.5.1-.8 1.1-.6 2s0 3-.5 4.7c-.8 2.5-.9 2-1-3.7-.1-5.8-.4-7-2.8-9.6-1.6-1.6-4.8-6.2-7.2-10.1l-4.4-7.3-2.6 4.6c-1.5 2.5-3.7 5.7-4.9 7.1-3.1 3.5-2.8 4.3 2.1 5.5 2.3.6 5.6 1.5 7.2 2 1.7.5 5 1.4 7.4 2 2.3.6 4.1 1.3 3.9 1.5s-5.5-.9-11.8-2.4l-11.5-2.8-.7 6.6c-.7 7.5-2.3 37.5-2.3 43.7 0 3.3.8 5 4.4 9.3 2.4 2.8 4.2 5.4 3.9 5.6-.2.3-2.1-1.8-4.3-4.6-2.1-2.7-4.2-4.6-4.6-4.2s-1 3-1.2 5.8l-.3 5-.2-5.3-.2-5.3-4.7 3.2c-2.7 1.7-6.3 4.7-8 6.6l-3.3 3.5v-2.6c0-1.4-.3-2.6-.8-2.6-.4 0-4.3-2-8.6-4.5-4.4-2.5-8.4-4.5-8.9-4.5s-.6 1.9-.3 4.2c.5 4 .5 4.1-.5 1-.5-1.7-1.3-3.2-1.7-3.2-.8 0-3.5 4.2-7.4 11.8-2.4 4.6-2.5 5.1-.8 4.2 1.6-.8 2-.8 2 .3 0 1.6 2.9 2.7 7.4 2.7 2.7 0 2.8-.1 2.3-3.8-.6-3.4-.5-3.5.8-1.8.8 1.1 1.5 2.8 1.5 3.7 0 1 .5 2.1 1 2.4.6.3 1 0 1-.7s1.2-1.4 2.6-1.4c2.1-.2 2.5.2 2.1 1.7-.3 1-.1 1.9.4 1.9.4 0 .6.7.3 1.5-1.4 3.6.7 1 3.3-4 3.6-7.2 4.1-5.5.9 2.6-1.5 3.4-2.4 6.4-2.2 6.6.2.3 3.9.7 8.1 1l7.7.6-.7-2.4c-.7-2.3-.7-2.3.8-.4 1.8 2.3 2 2.1 3.6-7 1.7-9.8 1.9-10.2 2-7 0 1.6-.3 4.6-.9 6.5-1 3.5-1.4 10-1.2 15.6.1 1.6 1.1 4 2.2 5.1 1.4 1.5 1.6 2.3.7 2.6-.7.3-.4.6.6.6 1.6.1 2.1-.9 1.8-3.8-.2-.7.2-1 .8-.7.6.4 1.6-.4 2.4-1.6.7-1.3 2.7-4.6 4.4-7.5 1.7-2.8 3.4-6.1 3.8-7.4.7-2.1.4-2.1-5.1 1.1-3.3 1.8-7 4-8.4 4.9-1.3.9-2.1 1.1-1.7.4s4.6-3.5 9.2-6.3 8.8-5.6 9.2-6.3 1.3-3.7 2-6.7l1.2-5.5-.1 5.5c0 3-.6 6.6-1.3 8s-1.5 5-1.8 8-.4 4.7-.1 3.7c.5-1.5 1.5-2.1 3.5-1.9.3 0 2.7-4.4 5.4-9.9 2.7-5.4 5-9.7 5.3-9.5.2.3-.4 2-1.3 3.8s-2.7 6.1-4 9.6l-2.4 6.3 6.2-5.4c10.4-9.2 10.2-8.6 10.2-25.8 0-8.2.2-14.9.6-14.9.8 0 .9 1.8.9 16.3-.1 9.9.2 12.7 1.1 12.1 2.8-1.7-4.6 6.8-9.7 11.1-6.7 5.7-8.4 8.5-5.4 8.5 2.1 0 5.2-2.6 8.2-7 1.7-2.4 1.7-2.4.3 1.2-.8 2.1-1.5 4-1.5 4.3 0 .8 4.2-4.3 5.9-7 1.1-1.8 1.1-1.8.5.5-.4 1.4-1.1 2.8-1.6 3.1s-.8 1-.7 1.5c.3 1.4-1.2 4.4-2 4-1.1-.7-3.6 1.2-2.8 2 1.1 1.1 5.7-1.7 5-3-.4-.7-.1-.7.7.1 1 .9.9 2-.4 5.5-1.2 3.1-1.4 5.1-.8 6.8 1.8 5 1.3 14.2-1.2 20-1.3 3-2.8 5.4-3.4 5.3-1.9-.4-2.4 5.9-1.3 14.2.6 4.3.9 8 .6 8.3s-.5-.3-.5-1.2c0-1.2-.5-1.6-1.4-1.3-.8.3-1.7.1-2-.6-.3-.9-.5-.9-.5 0-.1.7.8 2.2 1.9 3.3s1.7 2.6 1.4 3.3c-.2.7.2 2.7 1.1 4.3.8 1.6 1.1 3 .5 3.2-.5.2-.5 1.4.2 3 .5 1.5 1.4 4 1.9 5.5.7 2.4.6 2.7-.5 1.8-.8-.7-1.6-2.2-1.9-3.4-1.1-4.7-4.5-12.9-5-12-.6.9 1.5 9.7 3.3 13.8.4 1.1 2.8 7.8 5.1 15 2.4 7.1 5.1 13.7 6.1 14.7 1.6 1.6 8.8 2.6 8.8 1.3 0-.3-2.3-5-5-10.6-2.8-5.5-6-12.5-7.2-15.7-1.1-3.1-2.4-6.1-2.9-6.6-.5-.6-.9-1.7-.8-2.5 0-1.6 11.6 21.9 15.8 31.9l2.2 5.5-2.4 5.5c-1.4 3-3.5 6.4-4.8 7.5l-2.3 2 2.3-3c2.5-3.3 5.1-8.9 5.1-11.1 0-1-1.2-1.4-3.8-1.4-4.8 0-5.1.3-4.2 4.6 1 4.2.3 4.5-1.1.4-.6-1.7-1.4-3-1.8-3-.5 0-3 10.1-3.3 13.7-.2 1.6-4.8 2.7-6.1 1.4-.8-.8-.5-1.1 1-1.1 1.2 0 2.5-.5 2.9-1.2 1-1.6 3.3-11.8 2.7-11.8-.3 0-3.1 1.5-6.2 3.4s-7.8 4.6-10.6 6c-2.7 1.4-7.2 4.2-10 6.2-2.8 1.9-3.8 2.4-2.2 1 3.5-3.2 3.4-3.6-.5-2.6-1.8.4-5.4 1.1-7.9 1.5-4.9.6-10.1 3.4-6.6 3.5.9 0 3.4.9 5.4 2 2.1 1.1 4.2 2 4.8 2s1.1 3.9 1.2 9.8c.2 12.7 2.1 18.3 2.3 6.7.1-6.5.3-7.5 1.1-5.5.6 1.4.9 6.7.7 11.9l-.3 9.3 3.3 2.6 3.3 2.5-.7-5.9c-.3-3.2-1-7.5-1.5-9.4s-.8-5.3-.8-7.5q.15-4.05.6-1.5c.2 1.4 1.1 5.1 1.9 8.2s1.7 8 1.9 10.9c.3 2.9 1 5.6 1.6 6 .8.5.8 1.3 0 2.8-1.3 2.4-2.3 2.8-1.4.6.6-1.7-1.3-3.6-6.4-6.1-3.1-1.5-3.4-1.5-6.1.7-1.5 1.3-6.3 4.6-10.5 7.3-8.1 5.2-8.4 6.6-1.5 6.6 2 0 4.9.5 6.5 1.1l2.8 1.2-2.4.6c-1.4.4-2.6 1.2-2.9 1.9-.5 1.5 6.4 1.7 7.3.2.3-.6 1.5-1 2.6-1 1 0 1.9-.5 1.9-1 0-.6.6-1 1.4-1s1.7-.8 2-1.8c.4-.9 1.6-2.8 2.7-4.2l2.1-2.5-1.9 3.5c-1.1 1.9-1.8 4.6-1.7 6 .2 1.4.6 4.9 1 7.8.4 2.8.4 5.2.1 5.2-1.7 0-3.7-1.4-3.7-2.6 0-.8-.5-1.4-1.2-1.4-.6 0-.8-.3-.4-.7s1.6.3 2.7 1.7l2.1 2.5-.5-4.3c-.3-2.4-.8-4.6-1-4.9-.3-.3-2 .3-3.7 1.3-2 1.3-2.8 2.4-2.4 3.4.3.8 1.1 4.3 1.7 7.8 1 5.6 1.4 6.3 3.2 5.8 2-.5 2-.5 0 1.2-1.1.9-2.9 2.6-3.9 3.7-1.7 1.7-1.8 1.7-.5.1 1.2-1.6 1.2-2 0-2.4-1.1-.4-1.1-.6 0-1.2 1-.7.9-2.2-.6-7.7-1-3.7-2-7.2-2.2-7.6-.3-.4-3.2 1.6-6.5 4.4l-6 5.3 2.3 1.7 2.3 1.7-2.8-.5c-2.2-.5-3.3 0-4.8 1.8l-1.9 2.4 1.1-2.3c.6-1.3 1-2.6.8-2.8-.7-.6-11.1-2.7-13.5-2.6-1.3 0-7.2 3.6-13.2 8.1-5.9 4.5-11.4 8.1-12.2 8.1s.2-1 2.1-2.1c1.9-1.2 4.7-3.1 6.2-4.3 1.4-1.1 4.1-3.2 5.9-4.6s4.5-3.5 5.9-4.7l2.5-2.3-2.5-1.9c-1.4-1.1-3.6-2.6-5-3.3s-5-2.7-8-4.4c-3-1.8-6.4-3.4-7.5-3.5-3.4-.6-3.5-2.2-.5-5.4 8.3-8.6 16.6-19.3 15.8-20.1-1.4-1.4-25.3-13.4-26.6-13.4-.9 0-2.5.8-3.6 1.8-2.1 1.7-2.1 1.7-.3-.4.9-1.1 1.7-2.4 1.7-2.8s1.7-2.4 3.8-4.4c7.5-7.3 18.1-19.5 17.6-20.4-.3-.4-.1-.8.4-.8.6 0 .8-.9.5-2-.5-2.1 1.2-2.9 1.9-.9.4 1.3 13.7-17.3 19.4-27.1 2-3.6 4.7-7.9 6-9.5 4.6-6.1 4.1-6.6-7.9-8.9-12.2-2.2-12.6-2.1-12.8 4.4l-.1 3.5-.7-3c-.6-2.9-.8-2.8-6.5 6-3.3 4.9-6.3 9.1-6.8 9.3-.4.2-.8 1-.8 1.7s-.8 1.5-1.8 1.7c-1.7.5-1.7.2-.8-1.8.6-1.3 1.6-2.4 2.2-2.4.9 0 8.6-11.2 12.8-18.7.5-.9-.4-1.2-3.6-.9-9.6.9-15.8 1.9-15.8 2.7 0 .5-.9 1.3-2 1.9-1.6.8-1.8.8-1.4-.5.3-.8 0-1.7-.7-1.9-1.4-.3-17.2-3.6-19.9-4.1-.8-.1-2.2-.5-3-.8-2.4-.9-7.8-2.4-16.3-4.7-11.6-3-17.8-3.3-26.5-.9-4.1 1.1-7.9 1.8-8.4 1.7-.5-.2 3-1.4 7.7-2.7 5-1.4 8.4-2.8 8.2-3.5-.4-1.2-36.7-24.6-38.2-24.6-.2 0-.6 1-.8 2.2-.4 2-.4 1.9-.6-.4-.1-2-.7-2.9-2.6-3.4-1.3-.3-2.3-1-2.2-1.6.2-.9-39.5-27.8-43.9-29.7-1.1-.5-2.8-2-3.6-3.3-.9-1.2-6.1-7-11.7-12.8-9.4-9.7-12.2-13-8.6-10 3.2 2.7 16.5 16.6 19.2 20.2 1.5 2.1 3.2 3.7 3.7 3.8.6 0 2.6 1.1 4.5 2.4 24 16 39.1 25.3 39.1 24 0-.3.9.4 2 1.7l2.1 2.4-.7-19.5c-.7-21.9-.7-21.7-8.2-24.5-2.6-1-7-2.9-9.9-4.2-2.8-1.2-5.8-2.3-6.5-2.3-.8 0-1.8-.4-2.3-.8-.6-.5-3.8-1.9-7.3-3.2-3.4-1.2-6.1-2.4-5.9-2.6.5-.5 25.5 8.6 33.1 12 7 3.1 7.6 2.7 7.6-5.4 0-3 .6-12.9 1.4-22s1.7-21 2.1-26.5c1-17 3.6-47.9 4-49.2.8-2.5-1.3-2.1-5.6 1-5 3.6-38.6 28.4-40.8 30.1-1.1.8-1.3.8-.8-.1.5-.7 6-5.1 12.5-9.7 6.4-4.7 15.5-11.5 20.2-15.2 4.7-3.6 9.8-7.4 11.3-8.4l2.8-1.8-7.3-1.5c-4-.9-18.5-3.6-32.3-6.2-13.7-2.5-28.9-5.5-33.6-6.5-4.7-1.1-11.8-2.5-15.7-3.2-4.3-.7-7.2-1.7-7.2-2.4s.3-1.4.8-1.6c1-.5 10.8-12.9 17.8-22.8 3.4-4.7 10.3-14.3 15.3-21.4 5.1-7 8.9-13.2 8.4-13.6-.4-.5-1.9-1-3.3-1.3-2.1-.4-2-.4.8-.6 1.7 0 3.2-.5 3.2-1s-2.1-3.7-4.6-7.2l-4.6-6.4 6.1 6.6 6 6.6 13.8-4.7c20.1-6.8 40.4-14.3 40-14.6-.3-.3-23.5-3.9-36.7-5.6-4.7-.6-7.9-1.3-7.2-1.6.7-.2 8.2.5 16.5 1.7 25.7 3.5 30.1 4 30.6 3.6.2-.3-.4-1.4-1.4-2.5s-1.4-2-.8-2c.5 0 1.9 1.1 3.1 2.5 1.2 1.3 2.7 2.3 3.4 2.1s10-2.5 20.5-5.2c10.6-2.6 19.1-5 18.9-5.3s1.3-.6 3.4-.6c2.2-.1 3.6.3 3.4 1m-595.9 69.3c-.6.5-9.3 3.9-19.5 7.7-10.2 3.7-19 7.3-19.7 7.9-.9.8.1 6.3 4.3 23.6 3 12.4 5.9 22.8 6.3 23.3.4.4 4.1-4.3 8.1-10.5 8.2-12.5 16-23.4 16-22.4 0 .4-2.6 4.6-5.9 9.4-18.2 27.1-17.9 26.5-14.6 30.3l2 2.4-2.4-2c-1.7-1.4-2.5-1.6-2.8-.8-1 2.7-2 1.1-2.2-3.3 0-2.6-.8-7.2-1.6-10.3-.9-3.1-2-7.2-2.5-9.1s-2.1-8.2-3.5-14-2.8-11.2-3.1-12c-.5-1.4-4.2 8.9-12.9 36.4l-4.4 13.8 4.7-.7c2.6-.3 8.2-1.3 12.5-2.2 4.3-.8 8-1.3 8.3-1 .2.2-3.5 1.2-8.3 2.1-4.9 1-10.9 2.2-13.5 2.8l-4.8 1-.2 7.1c-.2 6.7-.2 6.8-.5 1.7l-.4-5.5-6.1 12-6 12 1.6 5.9c.9 3.2 1.5 6.1 1.2 6.3-.4.4-2.6-6.2-2.6-8 0-1.5-11.8-17.7-13-17.7-.4 0-1 1.8-1.4 4-.3 2.2-1.5 5.9-2.5 8.2-7.4 16.8-8 15.1 9 27.8 17.8 13.3 17.3 13 16.6 9.4-.3-1.6-1.7-7-3.1-11.9-1.4-5-2.5-9.4-2.3-9.9s1.4 2.8 2.6 7.5c3.6 13 3.6 13 4.2 5.4l.5-7 .3 9 .2 9 1.9-3.5c1.1-1.9 1.9-3.1 1.9-2.5 0 .5-.6 2.1-1.4 3.5s-1.4 3.2-1.5 4.1c0 1 5.8 5 15.8 10.9 18.1 10.8 16.6 9.9 16.1 10.3-.2.2-7.4-3.8-15.9-8.9l-15.5-9.3-.4 3.2-.3 3.2-1.2-4c-1-3.3-2.6-5.1-10.1-10.8-14.9-11.3-21.6-16-22.1-15.5s4 20.8 5.3 23.8c.3.8.7 2.4.8 3.4.2 1.8.1 1.8-1.2.1-.7-1.1-1.3-2.6-1.3-3.6 0-2.1-3.8-17.6-5.2-21.1-1.4-3.8-3.1-2.4-2.4 2.1.3 2.4.2 3.1-.4 2.1-.7-1.1-1.1-.9-1.9 1.3-.6 1.6-1.1 3.6-1.2 4.5 0 .9-.5 2.6-1 3.7-.7 1.4-.8.6-.4-2.9.3-2.7 1.8-7.6 3.4-10.8s3.3-7.3 3.6-9.1c.4-1.7 1.1-3.7 1.5-4.2 1.4-2 6-15.8 7.4-22.3 1.7-7.7 2.9-33.6 1.4-28.7-.5 1.6-1.2 3.6-1.4 4.4s-.7 1.2-.9.9c-.3-.3.4-3.4 1.4-6.9 1.1-3.5 2.2-7.6 2.5-9.2.4-1.5 1.1-2.7 1.6-2.7.8 0 5-2.8 12.1-7.9 1-.7 1.9-1.2 1.9-.9 0 .2-3.1 2.8-7 5.7-3.8 3-7 5.9-7 6.5s3.5 4.7 7.8 9.2c10.8 11.4 13.6 14.8 7.2 8.9-3-2.8-5.8-5.6-6.3-6.3-1.6-2.4-8.7-9.5-9.1-9.1-.2.2-.7 8.2-1 17.8l-.6 17.4 5.2 6.9c4.9 6.4 5.4 6.8 6.7 5.1 2-2.7 11.1-22 11.1-23.7 0-.8.4-1.7.9-2 1.3-.9 16-46.6 15.9-49.7 0-2.5-.3-2.4-9.7 3.9-5.3 3.5-10.5 7.2-11.6 8.1-1.8 1.5-1.9 1.5-.6-.1.7-1 5-4.2 9.5-7.1 4.4-3 9.7-6.9 11.6-8.7s5.5-3.8 8-4.5 11.9-4 21-7.3c17.9-6.6 17.8-6.6 16.5-5.4m405.3 131.3c1.8 2.8 1 3.4-1.3.9-1.3-1.5-2.2-1.7-3.6-.9-1.1.5-1.9 1.6-1.9 2.4s-.4 1.5-.9 1.5c-1.3 0-9.1 7.8-13.2 13.2-2 2.6-3.8 4.5-4.1 4.2s-1.6 1.1-2.8 3.1c-1.2 1.9-3.5 4.2-5 5-2.9 1.5-4.6 4.7-3.5 6.5.4.7-.2.9-1.9.4-2.3-.5-2.6-.3-2.6 2.1 0 1.5-.4 2.4-1 2s-.9-1.9-.8-3.3c.1-1.5-.1-3.3-.6-4-.9-1.6.6-1.6 2.2 0 2 2 3.1-.3 3.3-7.7.1-3.9.7-7.6 1.3-8.4.9-1.1.6-1.3-1.4-.7l-2.5.7 2.5-2.2c1.4-1.1 4.3-3.7 6.5-5.6 2.2-2 5.4-4.2 7.2-4.9 1.7-.8 3.4-2.3 3.8-3.4.5-1.4 1.2-1.9 2.8-1.5 1.2.3 4.5.1 7.2-.4 7.8-1.4 8.9-1.2 10.3 1m-503.1 29.7c.6.4 1.2 1.6 1.4 2.7.3 1.2 1.4 2.1 2.8 2.3 2 .3 2.2 0 1.6-2-.5-1.8-.4-2 .4-.8.9 1.2 1.1 1 1.2-1 .1-2.3.1-2.3 1 .6.7 2.3 2.4 3.8 7.4 6.6 3.6 2 6.5 3.5 6.5 3.3 0-.3-1.5-3.5-3.2-7.2-4.1-8.5-4.3-9.3-2.3-6.8.9 1.1 3 4.6 4.6 7.7 2.9 5.7 4.3 7 5.2 4.5.2-.6.3 0 .1 1.4-.2 2.3.2 2.8 3.4 3.7 2 .6 5.6 1.4 8 1.8 3.7.6 4.2.4 4.2-1.2 0-1.1-.7-3.2-1.5-4.8-.8-1.5-1.5-4.9-1.5-7.5l.1-4.6 1.8 3.8c1 2.1 1.9 6.2 2 9s.3 5.3.5 5.5 2.1-.7 4.3-2.1c8.8-5.6 19.6-11.5 16.8-9.2-1.6 1.3-5.2 3.6-8 5.1-2.7 1.5-6.7 4-8.8 5.5l-3.7 2.7 9.2 8.6c5.1 4.8 9.7 8.5 10.2 8.3s1.5-1.9 2.2-3.8 1.3-2.6 1.3-1.7c.1.9-.3 2.8-.9 4.2-.5 1.4-.7 2.6-.4 2.6s3.1-1.7 6.2-3.8c3.1-2.2 6.8-4.4 8.2-5.1 4-2-3.7 4.5-8.4 6.9-2.1 1.2-4.4 2.7-5.1 3.4-1.5 1.4-6.4 22-6.9 28.9-.4 4.6-2.6 9.3-2.6 5.5 0-1.2-2.2-2.3-7.5-3.9-4.2-1.2-7.3-2.4-7.1-2.6.2-.3 3.5.5 7.2 1.6 3.8 1.1 7.2 1.7 7.6 1.3.6-.7 5.8-24.5 5.8-26.9 0-1.9-1.2-1.6-4 .9-4.7 4.3-10 7.9-10 6.9 0-.6 1.2-1.7 2.8-2.5 1.5-.9 4.7-3.4 7.2-5.6l4.5-4-4-3.2c-2.2-1.8-6.5-5.6-9.6-8.5s-6.1-5.3-6.8-5.3-1 .3-.7.8c.2.4-1.1 6.8-3 14.2-5.1 20.4-5.7 19.9-1.1-1 1.3-5.8 2.3-11.8 2.3-13.4-.1-2.6-.6-3-5.1-4.2-8.8-2.3-9.1-2.2-9.2 4.3 0 3.2-.7 9.6-1.5 14.3s-1.4 8.6-1.3 8.8c.4.4 6.9-8.7 8.5-11.8 1.9-3.8 7.2-10.2 7.8-9.5.3.3-.4 1.5-1.5 2.8-1.2 1.2-3.7 4.9-5.7 8.2s-5 7.9-6.7 10.1l-3.1 4.2 4.1 6c4.3 6.4 6.5 8.6 5.5 5.5-.5-1.4-.4-1.5.4-.4.9 1.2 1.6 1.1 4.4-1 1.8-1.4 5.1-3.8 7.2-5.5 2.2-1.6 3.7-2.3 3.2-1.7-.4.7-3.6 3.3-7.1 5.8s-6.7 5.5-7.1 6.7c-.4 1.4-.9 1.7-1.3.9-.4-.7-1.6-.9-2.7-.5-1.8.6-1.8.6-.1-.7 1.6-1.3 1.6-1.6-1.1-4.9-1.6-1.9-3.4-4.5-4.1-5.8-1.3-2.4-3.1-2.1-3.1.6-.1.9-.7 3-1.4 4.7l-1.2 2.9.1-3.9c0-2.2.4-4.6.8-5.3 1.1-1.7-1.7-1.6-5.3.3-2.8 1.5-3 1.4-3-.4 0-1.1.9-4.3 2-7.1 2.3-5.9 2.5-7.7.7-5.8-2.5 2.6-3.8 7.6-3.5 13.9.1 3.5-.1 8.4-.6 10.9-.8 4.2-.8 4.4 1 3 1.9-1.6 1.9-1.7-.4 3.9-.4 1.1 0 1.3 1.4.8 1.7-.6 1.7-.6.2.6-1.2 1-1.6 3-1.7 7.7 0 9.1 1 12.9 5.2 18.4 3.6 4.7 4.7 7.6 2.7 7.6-.5 0-1-1-1-2.3-.1-2-4.1-7.7-5.6-7.7-.9 0 .6 13.5 2.2 19.6.7 2.7 2.9 8.5 4.8 12.8 2 4.3 3.1 7.6 2.5 7.4s-1.7-2.2-2.5-4.3c-.7-2.2-2.4-6.3-3.8-9l-2.5-5 .4 10.7c.1 6-.1 10.6-.5 10.3-.5-.3-1.1.1-1.4.7-.3.7-.4-1.2-.1-4.2.6-6.7.7-22.6.1-26-.2-1.4-.5-3.5-.5-4.8-.1-3.2-2.1-1.7-2.1 1.6 0 2-.3 2.3-.9 1.2-.6-.8-.7-1.8-.5-2.2.8-1.2-.4-1-2.9.6-1.2.8-4.2 2.5-6.7 3.9s-4.5 2.9-4.5 3.3 2.6 1.4 5.8 2.2 5.6 1.6 5.4 1.8c-.6.6-11.9-1.6-13.9-2.7-1-.5-3.7-.6-6.2-.3-3.8.4-4.7.2-5.5-1.5-1.6-3-1.3-3.8.4-1.3 1.2 1.6 2.4 2.1 4.6 1.8 1.6-.1 3.1-.5 3.4-.8.3-.2-1.7-2.2-4.5-4.4-2.7-2.1-4.9-4.3-5-4.7 0-.7 7.3 4.7 10.8 8 .7.7 1.5 1.3 1.7 1.3.5 0 6.8-3.5 11.4-6.3 3.4-2.1 3.4-2.1 1-2.8-1.9-.6-21.4-2.2-24.6-2.1-.5.1-1.1 1.1-1.4 2.4-.6 2.3-.6 2.2-1.4-.5-.6-2.2.6-5.6 6.5-18 4-8.3 10.6-22.8 14.7-32 6.8-15.3 7.4-17.1 6.4-19.9-.6-1.7-1.1-6.3-1.2-10.2 0-7.7-.8-13-3.3-21.9-1.8-6.7-2-9.7-.3-4.9.7 1.8 1.7 3.6 2.4 4M741 362.5c-.5.6-.8 1.4-.5 1.7.3.2-.2 4.2-1 8.9-.8 4.6-1.5 9.8-1.5 11.6 0 2.2-.6 3.6-2 4.3-1 .6-2.6 2.5-3.5 4.3-1.2 2.6-2.9 3.9-7.3 5.7-9 3.7-10.9 5.4-12.8 11.8-1 3.1-1.8 6.6-1.9 7.7 0 1.2-1.5 2.8-4 4.2-5.1 2.9-7.1 3-2.6.1l3.3-2.1-4.8-1.9c-2.7-1.1-5.3-2.6-5.7-3.4-1.1-1.9-5.3-1.8-6.1.2-.3.9-.6 3.2-.7 5.2 0 2.9-.2 3.3-.8 1.7-2.6-6.5 6.7-26.6 9.9-21.5.4.6 1.4-.8 2.3-3.1s1.4-4.5 1.2-4.9c-.8-1.3 2.7-2.2 3.9-1 .7.7.5 2-.8 4.1-2 3.4-1 5.1 2.5 4.2 1-.3 1.9-.1 1.9.4 0 1.9 6 1.1 9.5-1.3 2-1.3 4-2.4 4.5-2.4.6 0 1-.5 1-1 0-.9-1-1.1-6.3-1.4-3.1-.2-4-3.2-2.1-7.1.9-1.9 1.9-3.5 2.3-3.5s.6-1.4.3-3c-.3-1.8 0-3 .7-3 .6 0 1.1.4 1.1 1 0 1.8 2.1 1 4.6-1.8l2.4-2.7-.6 2.8c-1.1 4.8-1 6.2.6 6.2.8 0 1.8-.9 2.2-2 .5-1.7.6-1.6.7.6.1 1.5.8 3 1.7 3.3.9.4 1.7.5 1.8.4 2.9-5.6 4.8-15.3 5.6-27.3.1-1.8.2-1.7 1.1.4.6 1.5.6 2.8-.1 3.6m-373.4 97.2c1.2 1.7 1.3 1.7 2.6 0 1.2-1.6 1.3-1.4 1.3 2.2 0 3.2.7 4.5 3.8 7.3 2 1.9 3.7 3.9 3.7 4.4 0 .6.8 1.9 1.8 3 1.1 1.1 2.1 2.6 2.4 3.4.4.9 1.8-1.1 3.6-5 3.3-6.8 3.3-4.2.1 4.4-1.7 4.4-1.7 6.3-.9 17.5.6 6.9 1.2 13.6 1.5 14.8.3 1.3.3 2.3 0 2.3-1.3 0-2.4-5.3-2.6-12.2-.2-10.2-3-20.1-6.8-23.9-1.7-1.7-3.1-3.7-3.1-4.4s-1.3-2.6-2.8-4.2c-5.2-5.3-8.7-11.3-6.6-11.3.4 0 1.3.8 2 1.7m-2.6 46.4c0 1.7 4.2 11.9 5.3 13.2.7.6 2 2.4 2.9 3.9 1 1.4 2.8 3 4 3.3 3.6 1.1 15 6.7 14.5 7.1-.2.3-2.6-.4-5.3-1.4-7.4-2.9-11.4-3.5-11.4-1.7 0 .8.9 2 2 2.7s2 1.7 2.1 2.3c0 1.7 7.3 11.9 8.4 11.9.6 0 1.9-1.5 3-3.2s2.4-3.1 2.9-3.2c.4 0-.4 1.6-1.9 3.5-1.5 2-2.4 4.3-2.1 5 .3 1-.1 1.5-1.4 1.5-1 0-2.1-.9-2.5-2-.6-1.9-11.7-17.7-14.9-21.3-2-2.1-2-2.8-.1-2.1 1.9.8 1.9-.5.1-3.1-.7-1.1-2.5-4.9-3.9-8.5s-3.7-9-5.1-12c-3.6-7.6-3.1-9.8.5-2.6 1.6 3.3 2.9 6.3 2.9 6.7m150.8 13.6c-1.7 3.8-3.5 7.2-4 7.7-.4.6-.8 1.8-.8 2.8s-.4 1.8-1 1.8c-.5 0-.7.6-.4 1.4.4 1-.1 1.4-1.3 1.4-1-.1-4.7 1.7-8.3 3.9-3.6 2.1-9 5.2-12 6.6-8 4-10.1 5.3-9.3 6 .3.4-.1.7-1 .7s-1.7.8-1.7 1.7c0 1.5-.1 1.5-1.2.1-1.2-1.4-2.6-1.2-14.8 1.8-7.4 1.9-19.1 4.3-26.1 5.3-10.9 1.6-13.3 1.7-17.7.6-2.8-.8-5.9-1.8-7-2.4-2.8-1.5-10.6-3.1-11.2-2.3-.3.4-2-.8-3.8-2.6-3-2.8-3.2-3.2-1.3-3.2 1.2 0 2.1.4 2.1.9 0 .6 2.6 1.8 5.8 2.7 3.1.9 7.5 2.5 9.7 3.4 3.7 1.6 7.3 2.4 10.1 2.1.7-.1.8-2.1.3-6.1-.4-3.4-.5-6.9-.2-7.8.3-1.4-1.2-2.2-7.9-4.4l-8.3-2.6-3.2 3.6c-1.8 1.9-3.3 4.4-3.3 5.4 0 1.1-.5 1.6-1 1.3-1.4-.8-.4-3.9 2.7-8.9 1.4-2.1 2-3.5 1.5-3.2-1.4.8-4.3-.4-3.6-1.5.3-.5-.7-1-2.3-1-2-.1-2.3-.3-.8-.6 1-.3 5.5.2 10 1.1 13.7 2.7 18.5 3.4 18.5 2.5 0-.5-1-.9-2.2-.9-1.3 0-3-.5-3.8-1.1-1.1-.8-.7-.9 1.9-.5 1.8.3 4.8.6 6.5.7 2.9.1 3 .1.6.8-4.5 1.3 8.9 2.1 17 1 4.1-.6 14.2-1 22.5-1 8.2 0 15.2-.4 15.5-.9s4.4-1.6 9-2.3l8.5-1.4-5.5-.6c-3-.4-9-.9-13.3-1.3-4.3-.3-7.7-.8-7.5-1 .3-.2 7.9.1 17 .8 19.7 1.3 19.6 1.3 25.2-10 4.5-9.1 5.5-9.4 1.4-.5M557 555c0 .6-.8 1.4-1.7 1.7-1 .4-4 2.3-6.8 4.2-2.7 1.9-7 4.8-9.5 6.5-2.5 1.6-5.3 3.8-6.3 4.8s-2.6 1.8-3.5 1.8c-2 0-11.9 3.9-33.4 13.1-7.9 3.4-16.7 7-19.5 8.1l-5.3 1.9-.1 5.7c-.1 5.7-.2 5.7-.8 1.5-.4-2.4-1-4.5-1.3-4.8-.3-.4-3.2 1.1-6.4 3.3-29.3 19.3-29.5 19.4-28.3 20.8.9 1.2.8 1.4-.7 1.1-1.7-.2-15.4-13.8-26.9-26.6-2.2-2.4-8.3-8.7-13.5-13.9s-8.4-8.9-7-8.2 4.9 3.7 7.9 6.7c3.7 3.7 5.9 5.2 7.1 4.8 1.4-.4 2 .1 2.5 2.5.4 2 1.4 3.2 2.8 3.5 6.3 1.3 25.3 2.4 42 2.5 17.3.1 18.7-.1 18.8-1.7 0-1.3.2-1.4.6-.4s1 .5 1.9-1.5c1.1-2.6 1.2-2.7 1.3-.7.1 1.6.7 2.3 2.1 2.3 2 0 20.5-7 30.5-11.5 5.4-2.5 16.5-7.2 20.5-8.7 2-.7 2.2-1.1 1-1.8-1.2-.8-1.1-1 .5-1 4.2-.1 11-3.2 19.6-9.2 5-3.4 9.2-6.5 9.5-7 .7-1.1 2.4-1 2.4.2m646.5 120c.3 1.1 1.5 2 2.6 2 2 0 4.4 4.3 3.6 6.4-.3.6-.9-.5-1.5-2.4-.6-2.1-1.1-2.7-1.1-1.5-.1 1.1.6 4.1 1.6 6.7l1.6 4.6 1.7-3.1c1-1.8 2.6-5.8 3.6-9 1.3-4.1 2.3-5.7 3.6-5.7 1.6 0 1.4.9-1.6 9.2-1.8 5.1-3.6 10.9-4 12.9-.6 3.1-.9 3.6-3 3.2-1.9-.4-2.9-1.8-4.6-6.6-1.2-3.4-3.3-9-4.6-12.5-2.2-5.9-2.2-6.2-.4-6.2 1 0 2.2.9 2.5 2m24.3 5.8c3.1-1.1 8.5.8 13.4 5 1.2.9 1.9.6 3.6-1.7 3.1-4.3 7.2-4.8 13-1.8 2.6 1.4 4.6 3.1 4.4 3.7-.1.6.2.9.7.5.6-.3 1.5.3 2 1.4 1.5 2.7 1.4 3.8-.1 1.8-1.6-2-3-1.1-4.4 2.8-.6 1.6-1.6 2.9-2.2 2.8-.7-.2-1.1.1-.9.6.1.5-.9 1.9-2.3 3.1l-2.5 2.2 3-.7c1.7-.4 3.6-.8 4.3-1.1.7-.2 1 .1.7.6-.3.6-.2 1 .3 1 1.1 0 3.7-2.9 4.5-5 .5-1.3.5-1.3.6 0 .1 3.1-6.1 8.1-7.4 6-.3-.5-1.4-1-2.3-1-1.5 0-1.5.2-.2 1 .8.5 1.1 1 .7 1-1.5 0-5.1-2.2-9.7-6-3.8-3-5-3.5-7.5-2.9-1.6.4-2.5.7-2 .8.6.1-.3 1-2 2.1-2.4 1.5-2.6 2-1.3 2.5.9.4 2.7.1 4-.6 2.1-1.1 2.2-1.1.9.4-.7 1-.9 1.7-.3 1.7 1.4 0 3.3-2.5 2.5-3.3-.3-.4-.1-.7.5-.7 1.7 0 1.5 1.5-.5 3.1-1.1.9-3.7 1.4-6.4 1.4-3.7-.1-5.6-.9-8.8-3.4-2.3-1.8-4.1-3.9-4.1-4.7s-.7-1.4-1.5-1.4c-1.6 0-1.5-.2 2.1-9 1.1-2.5 2-3.7 2.2-2.8.2 1.3.8 1.4 3 .6"/><path d="M481.4 52.7c.6 2.5 1.6 15.7 2 28.8.4 10.4 2.2 23.1 3.6 24.8.7.8 4.4-.6 16-6 4.1-1.9 11.6-5.3 16.5-7.5 5-2.2 14-6.4 20.2-9.4s11.6-5.4 12.1-5.4 1.5-.6 2.1-1.4c1.4-1.6 2.8-1-24.4-10.2-24.1-8.2-46.4-15.4-47.6-15.4-.6 0-.8.8-.5 1.7M529.2 90.5c-13.4 6.3-24.9 11.8-25.5 12.3-.7.5-2.9 1.5-5 2.2-2 .6-3.5 1.5-3.2 2 .3.4-.2.7-1 .6-.7 0-1.3.3-1.2.8.1.6 2.2 1.1 4.7 1.1 2.5.1 12.9.5 23.2 1l18.6.7 2.7-4.1c1.4-2.3 3-5.3 3.5-6.6 1-2.6 6.5-14.5 8.6-18.8 1.1-2.1 1.2-2.7.2-2.7-.7.1-12.3 5.2-25.6 11.5M557.6 80.6c-.9.8-1.6 2-1.6 2.5 0 .6-2.5 6.2-5.5 12.5-7.6 15.9-7.6 16.1-2.9 17.9 2.2.9 4.7 2 5.6 2.5 1 .6 2.3 1 2.9 1s8.6 3 17.8 6.6c9.1 3.6 17.4 6.7 18.3 6.9 1.8.4-5.6-11.8-21.1-34.7-4.7-7.1-9-13.7-9.6-14.8-1.2-2.4-1.9-2.5-3.9-.4M564.9 83.2c1.7 2.4 4.4 6.1 6 8.3s7.3 10.7 12.6 19c11.7 17.9 13.3 19.9 15.2 18.4.7-.6 1.3-1.9 1.3-2.8s1.2-5.2 2.6-9.6c1.7-5.3 2.5-9.5 2.2-12.7-.1-2.6.1-4.8.6-4.8s.3-.6-.3-1.3c-.6-.8-.8-1.7-.4-2 .3-.4-.1-.7-.9-.7-1.5 0-10.9-3.8-15.8-6.5-4.5-2.4-22.8-9.5-24.4-9.5-1.4 0-1.1.9 1.3 4.2M613.8 101.1c-1.5.4-3.5 1.5-4.6 2.5-1.9 2-4.6 10.7-6.1 20.4-.5 3-1.3 6.4-1.7 7.5-.7 1.8-.7 1.8 1.5-.2 1.7-1.6 2-2.7 1.5-4.8s-.4-2.6.7-2.3c.8.3 2.2-.1 3.1-.9 1.1-1 2.6-1.3 4.4-.9 2.3.6 2.6 1.1 2 3.6-.7 3.5-.9 3.5 9.8 1.5 4.5-.8 12.2-2.2 17.1-3.2 15.9-2.9 16-2.3-2.6-11.5-9-4.4-16.6-8.4-16.9-8.7-1.8-2.2-5.8-3.7-8.2-3M410.1 144.4c-.1 1.4-.7 1.7-2.6 1.4-1.7-.4-2.5-.1-2.5.9 0 .8-.4 1.2-.9.8-1.5-.9-2.1.9-2.5 7.3-.2 3.3-.7 6.6-1.2 7.3-.4.8-.7 3.6-.5 6.4.7 9.4.6 12-.4 12s-2.5 6.7-2.7 12.2c-.1 1.8-.5 3.3-1 3.3-.4 0-.8 2.4-.7 5.2 0 3.9.3 4.8.9 3.3.7-1.6.9-1.4.9 1.5.1 3 .5 3.5 2.6 3.6 1.4.1 2.5-.2 2.5-.7s.7-.9 1.6-.9c1.1 0 1.4.5 1 1.6-.5 1.4-.4 1.5.9.4.8-.7 1.3-1.6 1-2s.6-.8 1.9-.8c2.4 0 8.6-3.9 8.6-5.4 0-.4.5-.8 1.1-.8 1.3 0 3.9-2.5 3.9-3.8 0-.5-1.1-2.2-2.5-3.8s-2.5-2.6-2.5-2.2-1.8-1-4-3c-2.1-2-3.5-3.9-3-4 .6-.2 1-1.2 1-2.3 0-1 .6-1.9 1.4-1.9.9 0 1.2-.7.9-2-.3-1.1-1-2-1.5-2s-.7-.4-.3-.9c.3-.6 1.9-.8 3.5-.6 3 .4 4-1.1 2.1-3.1-.5-.5-1.1-2.7-1.5-4.9-1.8-12.8-2.3-15.4-3.3-16.6-.6-.8-1.3-2.8-1.6-4.4-.2-1.7-.5-2.2-.6-1.1M598.7 151c-.3 4.1-1.1 15.4-1.7 25s-1.4 19.5-1.7 21.9l-.6 4.3 14.4-.7c16.8-.7 19.9-1.2 19.9-3 0-1.5-13.5-28.1-17.3-34.3-1.5-2.3-2.5-4.2-2.2-4.2s-1.3-2.9-3.5-6.5-4-7-4-7.6c0-.5-.4-.8-.9-.5-.5.4-1.1 0-1.4-.6-.2-.7-.7 2.1-1 6.2M588.5 151c-.3.6.1.7.9.4 1.2-.5 1.5 0 1.4 2-.1 1.4-.8 2.6-1.5 2.6s-1.3.9-1.3 2 .5 2 1 2c.6 0 1 .7 1 1.5 0 1.8-1.7 2-2.3.2-.3-.8-1.1-.6-2.7.8-1.3 1.1-2 1.4-1.6.7.4-.6.5-1.2.3-1.2-1.2 0-6.7 3.3-6.7 4 0 1.3 4.1 1.9 6.7.9 3.9-1.4 6.2-1.1 5.9.8-.2 1.2-1.3 1.9-3.2 2.1-1.6.2-3.7 1.3-4.6 2.5-1 1.2-1.8 1.6-1.8.9 0-.6-1-1.2-2.1-1.2-1.8 0-1.9.3-.9 1.4 1.1 1.5.2 4.9-1.3 4.7-3.2-.4-5.8.1-5.6 1.1.1.7-.1 2.1-.6 3.1-.7 1.7-.8 1.7-2.1 0-.7-1-1.4-1.3-1.4-.7 0 1.6 3.1 4.1 7.3 5.9 2.1.9 4 2.2 4.3 3 .7 1.7 11.2 8.5 13.1 8.5.8 0 1.3-1.3 1.3-3.4 0-1.9.4-3.6.9-3.8 1.1-.4 2.2-40.8 1.1-40.8-.5 0-1.1 1-1.3 2.2-.4 2-.4 1.9-.6-.5-.1-2.7-2.3-3.8-3.6-1.7M537.5 172.6c.4 1.6.8 3.4 1 4.1.2.6 0 2.6-.5 4.3-.7 2.6-.6 3.1.5 2.6.8-.3 1.7-.1 2 .4.4.6.1 1-.4 1-.6 0-1.1.5-1.1 1 0 .6.6 1 1.3.9 3.6-.5 4.8.2 4.5 2.3-.2 1.3-.9 2.2-1.6 2-.6-.1-1.2.7-1.2 1.7 0 1.1-.5 2.1-1.1 2.3-.9.3-.8 1.4.1 4.3.7 2.2 1.4 4.6 1.6 5.2.6 2.2 2.3 1.4 3.9-1.6.8-1.6 1.8-3.1 2.2-3.3 1-.4 5.3-6.5 5.3-7.4 0-.3.9-1.9 2.1-3.5 1.7-2.4 1.9-3.3.9-4.5-1.1-1.2-1-1.3.4-.8 2.8 1.1 1.7-1.4-1.6-3.7-1.8-1.3-3.4-2.7-3.6-3.1s-1-.8-1.8-.8-2.8-1-4.5-2.2c-2.6-1.9-3.1-2-4-.8s-1 1.2-.5-.3c.3-.9.1-1.7-.3-1.7-.5 0-1.7-.3-2.6-.6-1.3-.5-1.5-.2-1 2.2M560.3 187.1c-.7 1.8-.8 2.7-.1 2.3 1.7-1-.8 2.9-3.1 5-1.2 1.1-2.1 2.3-2.1 2.9 0 .5-1.1 1.8-2.4 2.8-1.4 1.1-2.8 3-3.2 4.2-.3 1.2-1.3 3-2.2 3.9-1.4 1.7-1.3 1.8.7 1.8 1.2 0 2-.4 1.7-.9-.4-.5.3-.7 1.3-.4 1.1.3 5.9-.2 10.8-1.1 12.7-2.4 18.3-3.4 22.6-4.1 2.1-.3 3.7-1 3.5-1.5s-3.7-3-7.8-5.4c-6.4-3.9-7.6-4.3-8.1-2.8s-.7 1.4-1.6-.3c-.6-1.1-.9-2.5-.7-3 .6-1.4-5.3-4.8-6.8-3.9-.6.4-.8.3-.4-.4.3-.6.3-1.3-.2-1.6-.4-.2-1.3.8-1.9 2.5M420.4 203.6c-3.2 1.9-8.8 5.7-12.4 8.3-3.6 2.5-8.2 5.7-10.2 7-2.1 1.2-3.8 2.5-3.8 2.8s7.1.3 15.8-.1c8.6-.3 22.1-.6 30-.7 7.8 0 14.2-.5 14.2-1 0-.4-2.4-2.6-5.2-4.7-7.3-5.3-21.6-15.2-22.1-15.2-.2 0-3 1.6-6.3 3.6M605.2 203c-5.1.5-9.6 1-9.9 1.3-.2.3 0 6.8.6 14.4s1.3 19 1.7 25.3c.3 6.3 1 15.5 1.6 20.5.5 4.9 1.1 10.2 1.2 11.6.2 1.4.6 3.1 1.1 3.9s.3 1.1-.6.8c-1.7-.6-4.2-21.7-5.9-49.3-1.3-20.9-1.7-23-3.4-21.2-1 1-7.2 15.1-10.8 24.7-.8 2 .2 5.5 5.4 19 3.6 9.1 7.1 18.7 7.9 21.4s2 5.1 2.7 5.3c.6.3 1.2 1.2 1.2 2s.5 1.1 1 .8c.6-.3 1 .1 1 .9 0 .9.3 1.6.8 1.6.9 0 5.2-6.6 5.2-8 0-.6 5.4-17.3 12-37.1s12-36.7 12-37.5c0-1.6-8.2-1.7-24.8-.4M579.9 207.4c-.3.3-3.3.9-6.8 1.5-3.6.6-6.7 1.4-7 1.8-.3.5-2.6.8-5.1.9-5.3.1-9.8.5-12.3 1.1-2.1.5-1.4 1.2 6.2 6.7 3.4 2.4 6.1 3.6 7.3 3.3s1.8-.1 1.5.6c-.3 1 12.2 10.7 13.7 10.7.5 0 5.7-9.7 5.5-10.2 0-.2.4-1.6 1-3.1.6-1.6.8-3.3.5-3.9-.4-.6-.3-.8.3-.5.5.3 1.5-.9 2-2.8.9-2.8.8-3.7-.6-4.9-1.6-1.5-5.2-2.1-6.2-1.2M543.6 216.7c-.8.8-.8 5.8 0 6.6 1.3 1.3 1.5 12.9.3 14.3-.7.8-1.2 3-1.3 4.9-.1 2.7.3 3.5 1.6 3.5 2.1 0 17-4.6 22.3-7 2.2-.9 4.9-2 5.9-2.4 1.6-.5.9-1.4-4.5-5.6-3.5-2.7-6.5-4.7-6.8-4.5-.2.3-3.3-1.6-6.9-4.1-4.7-3.4-6.6-4.3-7.2-3.4-.9 1.4-3 .5-3-1.3 0-.7.4-.6 1 .3s1 1 1 .3c0-1.5-1.5-2.5-2.4-1.6M402.3 223.7c-6.8.3-9.3.7-9.3 1.7 0 1.6 4.2 13.7 7 20.1 1.2 2.7 3 7.2 4 10 1 2.7 4.6 11.7 8 20 3.4 8.2 6.9 17 7.7 19.5s1.9 4.9 2.4 5.4c1.8 2 5.3 1.5 11.6-1.5 9-4.3 8.9-3.1-.2 1.6-4.1 2.2-7.5 4.2-7.5 4.6 0 .8 6.3 3.6 21.3 9.5 7.2 2.8 10.9 3.9 11.2 3.1 1.2-3.9 1.4-4 2-1.2l.7 3.1 7.8.3c10.5.3 17-.7 16.3-2.5-.3-.8.1-1.4 1-1.4.8 0 1.7-.7 2.1-1.5.3-.8 1.2-1.5 2-1.5 2 0 2.6-2.2 2.6-9.1 0-5.8-.1-6-2.2-5.5-1.3.3-1.7.3-1 0 .6-.3 1.2-1.1 1.2-1.7-.1-1.4-22.5-11.9-25.7-12.1-2.2-.1-2.8-.9-2.4-3 .5-2.3-2.1-35.8-2.9-38.3-.5-1.5-1.2-6-1.6-9.8-.6-6.8-.7-6.9-1.9-4-5.5 13.1-10.3 24.5-13.6 33-2.2 5.5-5.1 12.4-6.5 15.3-1.3 2.9-2.4 5.7-2.4 6.2 0 .8-6.8 15.7-7.7 16.9-.2.2-.5.2-.8-.1s1-3.9 3-7.9c2-4.1 5.6-12.6 8.1-18.9 5.2-13.2 8.5-21.2 14.7-36 2.4-5.8 4.6-11.5 4.9-12.8l.6-2.2-22.6.2c-12.5.1-26.9.4-31.9.5"/><path d="M460.5 227.2c.3 2.4.8 5.2 1 6.3s.4 3.5.4 5.4c.1 2.5.4 3.1 1.4 2.4.6-.5 2.8-.8 4.7-.8 2.8 0 3.5.4 3.6 2 0 1.1-.4 2.6-.9 3.2-1.4 1.9-5.4 1.6-6.7-.5-.9-1.3-1-.9-.6 2.3.5 3.5 1.5 16.6 2.2 26.5.1 1.9.3 3.7.3 4 .1.7 6.1-6.4 6.1-7.3 0-.4.6-.7 1.4-.7s1.8-.9 2.1-2 1.2-2 1.8-2c1.5 0 12.7-11.6 12.7-13.1 0-.5.5-.7 1-.4.6.3 1 .3 1-.2 0-.4 4.3-5.7 9.5-11.8 5.2-6 9.2-11.1 9-11.4-.3-.2.5-.9 1.8-1.5 1.2-.7 2.2-1.8 2.2-2.6 0-1.3-4.1-1.5-27.3-1.8l-27.3-.2zM389.2 237.8c-.7 5.9-1.9 13.8-2.7 17.7-.8 3.8-1.9 11-2.3 16-.5 4.9-1.1 9.6-1.3 10.3-.5 1.6-1.1 1.3 17.1 10.2 8 4 15.2 7.8 16.1 8.6 1.3 1.2 3.9 1.9 3.9 1.1 0-1.1-7.2-19.9-14.5-37.7-4.8-11.8-10-24.7-11.4-28.7-1.5-3.9-2.9-7.4-3.2-7.7-.2-.3-1 4.3-1.7 10.2M344.5 246.2c-5.2 10.6-5.5 11.4-3.8 12.6 4.2 3 13.7 9.1 13.9 8.9.1-.1-.2-2.9-.7-6.2-1-7.3-2-20-1.9-23.8 0-1.5-.4-2.7-.9-2.7s-3.5 5.1-6.6 11.2M353.5 241.2c.3 2.9 1 8.9 1.6 13.3 1.6 12.7 1.8 14 1.8 14.7.1.3 1.3 1.3 2.9 2.1 1.5.7 5.8 3.1 9.5 5.2 3.7 2 7.1 3.5 7.4 3.2.3-.4-1.5-3.9-4-7.9-2.4-4-7.7-13.7-11.6-21.6-4-7.8-7.4-14.2-7.7-14.2s-.2 2.4.1 5.2M559 243.9c-18.1 6.2-19 6.6-19 8.6 0 1.4 10.5 8.7 18.5 12.8 2.8 1.4 9.8 5.4 15.6 8.8 9.7 5.8 20.2 11.9 22.2 12.7 1.4.7.7-2.3-1.4-6.3-1.2-2.2-2.9-6.2-3.9-9-7.9-22.7-12.3-33-14.1-33.1-.8-.1-8.8 2.4-17.9 5.5M540.9 259.9c.6 1 1.5 2.1 1.9 2.3.5.1 3.2 4 6.2 8.5 2.9 4.6 5.7 8.3 6.2 8.3s.7.4.4.8c-.2.4.9 2.7 2.5 5.1s2.9 4.8 2.9 5.3c0 1 23.1.9 31-.1 4.3-.6 5-.9 3.5-1.6-1.1-.4-2.7-1.4-3.5-2-.8-.7-5.1-3.2-9.5-5.5-8.9-4.6-15.7-8.4-19.5-10.8-1.4-.9-7.1-4-12.8-6.9-7.8-4.1-10.1-4.9-9.3-3.4M336.1 273.5c-1.3 6.9-2.2 12.8-1.9 13 .2.3 3.5-2 7.4-5 3.8-3 8.2-6.6 9.9-7.9 2.5-2 2.8-2.5 1.7-3.9-1.3-1.6-12.8-8.7-14-8.7-.4 0-1.8 5.6-3.1 12.5M356.7 274.3c-.5 1.4 1 18.1 1.8 20.5.4 1 2.9.1 9.2-3.3 9.3-4.8 7.9-2.9-1.9 2.7-3.2 1.8-5.8 3.8-5.8 4.4s2.3 2.1 5 3.3c2.8 1.2 7.8 3.9 11.1 6.1 5.1 3.3 6.6 3.8 9.7 3.3 2-.3 3.8-.7 3.9-.8.4-.2-3.1-9.2-6.1-15.8-1.4-3.2-2.6-6.6-2.6-7.7 0-2.3-1-2.5-2.9-.8-1.1 1.1-1.2.9-.7-.7.4-1.7-.9-2.8-8.8-7.3-10.1-5.6-11.1-5.9-11.9-3.9M344.8 280.9c-4.8 3.6-8.8 7-9 7.5-.2.6 3.2 2.4 7.4 4.1s8 3.4 8.4 3.8 1.7.7 2.9.7c2 0 2.1-.3 1.4-5.3-.4-2.8-.8-7.8-.8-10.9-.1-3.1-.4-5.9-.8-6.1-.5-.2-4.7 2.6-9.5 6.2M486.4 276.2c-.3.4-1.2.4-2.1.1-1.1-.4-1.4-.3-.9.5.4.7.3 1.2-.3 1.2-.5 0-.8 1.6-.5 3.5.4 3 .1 3.5-1.5 3.5-4.4 0-2.8 2.2 4 5.5 4 1.9 7.5 3.3 7.8 3s.5-2.4.6-4.5c0-2.2.4-4 .9-4s.6-1.3.3-3c-.4-1.6-.2-3.2.3-3.5 1.5-.9 0-2.7-1.6-2.1-.8.3-1.4.1-1.4-.3 0-1-5-.9-5.6.1M383 288.4c0 .9.4 2.4.9 3.4.6.9 2.6 5.5 4.7 10.1 2 4.6 4.7 9.9 6 11.9 1.3 1.9 2.4 3.9 2.4 4.3 0 1.6 2.1 1 9.6-2.6 8.7-4.2 10.9-4.6 3.9-.7-7.6 4.2-9.4 5.5-10 7-.5 1.4 10.3 14.9 11.7 14.4.4-.1.8.2.8.8 0 .5.4 1 .9 1s1.7-2.4 2.5-5.3c.9-2.8 2.1-5.9 2.7-6.7 1.1-1.6 1.2-2-1.1 6.8-1.2 4.5-.6 7.7 1.6 9.9 1.6 1.6 2.2 1.6 2.1 0-.1-.6.2-4.1.7-7.7 1.2-10.1 1.3-22.2.2-25.9-1.2-4-4-5.9-21.6-14.7-14.6-7.3-18-8.4-18-6"/><path d="M518 289c-3 1.1-9.5 3.2-14.5 4.7-7.5 2.4-9 3.2-8.8 4.8.1 1.1.3 3.6.5 5.5.1 1.9.7 3.8 1.2 4.2 1.6 1.1 6.4.9 6.8-.2.2-.6 2.1-1.2 4.2-1.4 3-.3 5-1.4 8.3-4.6 2.4-2.3 4.3-4.7 4.3-5.3 0-.7 1.2-2.6 2.5-4.2 2.1-2.5 1.9-1.7-1.1 4-2 3.8-4.2 7.6-4.8 8.4-.8 1.1-.8 1.3.2.7.6-.4 1.2-.3 1.2.3 0 .5 3.6 1 8.4 1 10.6.1 11.4-.7 8.6-8-2.3-6-1.1-4.9 3.9 4 4.7 8.4 7.1 8.7 13.4 1.8l4.9-5.2-3.2 5.1c-4.2 6.8-4.3 8.5-.9 10.4 1.5.8 4.1 2.7 5.6 4.1 1.6 1.4 3.7 2.8 4.7 3.2s1.6 1.3 1.3 2.1c-.6 1.5 2.3 3.9 8.3 6.8 3.9 1.9 5.3 1.4 8.1-2.8 2.3-3.5 2.5-2.5.3 1.8-1.9 3.7-1.2 4.4 5.6 5.4 2.5.4 5.2 1.1 6 1.6 1.2.8 1.2.8-.3.4-.9-.3-4.7-.9-8.4-1.2l-6.6-.7.8 8.4c1 9.8 1.3 23.9.5 23.9-.3 0-.6 1.6-.7 3.6l-.2 3.6 5.2-5.4c4.5-4.5 5-5.4 3.5-6-3.2-1.3-2.1-3.8 1.6-3.8 2.8 0 3.9-.7 5.7-3.3 1.3-1.7 2.7-3.5 3.2-3.8s.7-.9.5-1.2c-.1-.3.7-1.5 2-2.7 1.2-1.1 2.2-1.7 2.2-1.2s-.7 1.5-1.5 2.2c-.9.7-1.3 1.5-1 1.8s-.2 1.3-1.1 2.3-1.8 3.2-1.9 4.9c-.3 3.1-3 7.1-4.6 6.7-.8-.2-13.9 13.3-13.9 14.3.1 1.1 18.9 14 20.6 14 .6 0 1.1-1.3 1.2-2.8 0-1.6.6-6.6 1.2-11.3 2-14.3 3.8-33.4 3.3-34.2-.3-.4.1-1.5.8-2.4 1.1-1.3 1-1.7-.6-2.9-1.8-1.3-1.8-1.4.6-1.5 1.3-.1 2.9-.2 3.4-.3 1.6-.2 25.5-15.8 25.5-16.6 0-1.1-12.8-13.7-17-16.8-1.9-1.5-5.9-4.8-8.8-7.4-3-2.7-6.1-4.8-7.1-4.8-.9 0-2.1-.4-2.7-.9-1.3-1.3-36.7.9-37.6 2.3-.6.8-1.1.7-1.7-.3-.9-1.4-21.3-7-25.5-7.1-1.5 0-1.7.5-1.2 3 .7 3.7-.1 3.9-1.4.4-.8-2.1-1.5-2.5-3.5-2.2-1.4.3-2.5.1-2.5-.3 0-1.1-.4-1.1-7 1.1M426 309.2c0 .7 1.2 3.3 2.6 5.8 2.2 3.8 8.3 18.4 10.1 24.2.3 1 .9 1.8 1.3 1.8.5 0 3.6-3 7-6.8l6.2-6.7-4.5 6c-5.2 7-6.9 10-6 10.9 1.5 1.5 9.8.4 16-2.1 7.7-3 18-9.5 20.3-12.6 1.4-2 4.1-7.7 3.7-7.7-.1 0-5.4-.3-11.8-.7l-11.5-.6-2.1 2.7c-2.7 3.4-3.4 3.3-2-.4.6-1.6.9-3.1.7-3.3-.6-.5-28.8-11.7-29.5-11.7-.3 0-.5.6-.5 1.2M425.5 316c-.4.6-.4 2.3 0 3.8s.6 6.6.6 11.3c-.1 8.3 0 8.6 2.4 9.7 1.4.7 3.2 1.2 4 1.2s1.5.4 1.5 1c0 .5.7 1 1.5 1s1.5-.7 1.5-1.5-.8-1.5-1.7-1.5c-1.3 0-1.4-.3-.5-1.2s.9-1.5-.2-2.7c-.8-.9-1.9-4.2-2.5-7.3-1.2-6.5-5.5-15.5-6.6-13.8"/><path d="M606.6 347.2c-.3 2.4-1 8.8-1.6 14.3-.5 5.5-1.4 12.9-1.9 16.5-2 13.6-2.1 15-1.1 15 .5 0 7.2-5.1 14.9-11.3 7.6-6.1 14.7-11.7 15.7-12.4 1.7-1.1.7-2.3-11.1-13.8-7.1-6.9-13.3-12.5-13.6-12.5-.4 0-1 1.9-1.3 4.2M439.7 368.5c-.9.9-1.7 2.6-1.7 3.8 0 1.8-.2 1.9-1 .7-.7-1.1-1-.7-1 1.7 0 1.8-.3 3.3-.7 3.3-.9 0-1.2 2.7-1.6 11.7-.1 3.4-.5 6.5-.9 6.9-.5.4-.8-.1-.8-1.2-.2-5.8-7.2 19.2-8.5 30.1-.4 3.3-.8 6.7-.9 7.5-.1.9-.5 2.1-1 2.8-1.4 2.3 2.1 1.2 6-1.9 2.1-1.7 8.3-7.4 13.7-12.6 11.1-10.8 11.4-11.5 8.3-23.5-.8-3.5-2.5-10.8-3.7-16.3s-2.7-11.1-3.4-12.3c-1.1-2.2-1.3-2.3-2.8-.7M576 386c-1.7 3.2-6.1 17.2-5.6 17.7.3.3 3.3-.4 6.8-1.5s8.9-2.8 12.1-3.7c6.2-1.7 6.9-2.6 3.5-5-1.3-.8-4.8-3.3-7.8-5.5-6.2-4.5-7.5-4.8-9-2M343.8 398.4c-2 5.5-3.5 10.2-3.3 10.4.5.5 26.8-2.8 27.4-3.4.9-.8-10.3-10.2-11.4-9.6-.5.3-.7.2-.3-.3.9-1-1-2.9-5.3-5.3l-3.4-1.9zM470.2 410.5c-6.8.7-12.6 1.6-12.9 1.9s4.3 5.8 10.3 12.2 15.8 17.2 21.8 24 11.4 12.1 11.9 11.7c1.1-.6.5-9.7-1.8-25.8-.8-6.1-1.5-12.6-1.5-14.5s-.5-5.2-1.1-7.3l-1-3.7-6.7.1c-3.7.1-12.2.7-19 1.4M458.5 422.5c.8 2.7 2 7 2.7 9.5.6 2.4 1.7 5.6 2.5 7 .7 1.4 1.3 3 1.3 3.6 0 1.1 2.1 6.4 6.1 15.1 1 2.4 1.9 4.9 1.9 5.8 0 1.4 1 3.9 5.7 14.6 2.5 5.5 2.6 5.6 4.6 4 3.5-2.7 17.7-16.4 17.7-17.1 0-1.1-13.9-16.4-31.5-34.6L457 417.5zM501.6 473.7c-.9 3.7-3.3 11.6-5.2 17.5-3 9.5-4.1 14.8-3.1 14.8.5 0 33.9-15.8 34.3-16.3.6-.6-21.4-22.1-23-22.5-.8-.2-1.9 2.1-3 6.5M491.5 477.5c-4.4 4.6-8.1 9-8.3 9.8-.3 1.7 5.2 13.2 6.8 14.2.6.3 1.3-.2 1.6-1.2.4-1 1.5-3.6 2.5-5.9 1.1-2.2 1.9-4.7 1.9-5.5s.9-4.1 1.9-7.4c2.3-7.7 3.2-12.5 2.3-12.4-.4 0-4.3 3.8-8.7 8.4M480 500c-1.6 2.6-2.7 3.5-3.2 2.7-.5-.7-.8.1-.8 2.1 0 1.8-.4 4-1 5-1.6 2.7-4.9 12.2-4.2 12.2.5 0 7.3-4.9 8.2-6 .3-.3 2.1-1.7 4-3 7.6-5.3 7.6-5.1 3.5-11.4-1.9-3.1-3.7-5.6-3.8-5.6s-1.3 1.8-2.7 4M923.5 109c-1.6.5-9.7 2.5-18 4.6-19.5 4.7-18.5 4.4-18.5 5.5 0 .5 3.6 6.1 8 12.4s8 11.7 8 12c0 .6 9 12.5 9.5 12.5.2 0 1.3-2.8 2.4-6.3 1.1-3.4 4-12.1 6.5-19.3 2.4-7.2 4.8-14.7 5.1-16.7.4-2.1 1.1-4 1.6-4.3 2.4-1.5.1 7.6-9.2 35.9-3.2 9.8-3.6 12.5-1.6 10.9.6-.5 3.3-1.3 5.9-1.6 2.6-.4 5-1.1 5.2-1.5.3-.4 1.9-.8 3.5-.9 2.7-.1 14.2-3.1 20-5.4 2.1-.7 2.3-1.1 1.1-1.8-1.1-.7-.1-1 3.2-1 5.6 0 5.6-1.1-.2-7.5-2-2.2-6.5-7.2-10-11-16.6-18.4-16.5-18.2-22.5-16.5M970.2 155.5c5.7 13 14.6 31.5 15.2 31.5s3.4-6 6.4-13.6c1.1-2.7 4.2-9.5 7-15.1l5-10.1-9.2-.6c-5-.3-13.4-.7-18.7-.9l-9.6-.3zM1000.2 158.7c-2.2 4.9-4.4 9.9-4.7 11.2-.4 1.4-2.5 5.9-4.6 10-2.1 4.2-3.9 8.4-3.9 9.4s3.1 5.5 6.8 10c3.8 4.5 7.9 9.6 9.3 11.3 12 15.4 26.2 32.5 26.6 32.1.2-.3-.2-3.1-1.1-6.4-.9-3.2-3.4-13.7-5.6-23.3-2.3-9.6-5.2-21.1-6.5-25.5s-4.3-14.6-6.6-22.8c-2.3-8.1-4.5-14.7-4.9-14.7s-2.5 3.9-4.8 8.7M1011 162.1c0 .3 1.6 6.1 3.6 12.9 4.4 15.2 11.3 42.8 14.4 57 1.2 5.8 2.4 11.1 2.6 11.7.7 2.4 3.2 1.3 4.8-2.2.9-1.9 2.8-4.7 4.1-6.1 1.4-1.5 2.5-3.7 2.5-4.9 0-1.3-3.9-10.5-8.6-20.6s-11.5-24.7-15.1-32.4c-5.7-12.3-8.3-17.1-8.3-15.4M987 196c0 2.8 4.1 26.3 6.1 34.9 1.2 4.6 1.9 9.5 1.6 10.8-.2 1.3 0 2.6.4 2.9.8.4 28.9 3.3 33.7 3.4 2.1 0 1.3-1.8-3-6.9-2.4-2.7-10.4-12.4-17.8-21.7-16.1-20-20.9-25.4-21-23.4M983.6 206c-.5 4.1-.3 6.6.4 7.5 1.1 1.4-.2 7-3.3 13.3-.7 1.5-1.1 3.7-.9 4.9.3 2.3 1 2.5 7 2.6 1.4 0 2.2.6 2.2 1.8 0 2.5-1.6 3.2-4.1 1.9-1.1-.7-2.3-1-2.5-.7-.3.2 1.1 1.2 3 2.1s3.8 2.1 4.1 2.6c1.4 2.3 2.4.7 2.1-3.3-.6-6.8-5.8-37.1-6.6-38-.4-.5-1 1.9-1.4 5.3M878 221.5c0 .2 1.8 4.1 4 8.7s4 8.6 4 8.9c0 1.2 13.2 28.3 14.5 29.9.7.8 1.8 3.3 2.5 5.4 2 6.3 12.1 26.6 12.9 26.1.5-.2 1.1-5.3 1.6-11.2 1-15.1 1.1-15.9 2.4-24.8.6-4.4 1.6-13.4 2.2-20s1.2-13.2 1.4-14.7c.4-3.2 1.2-3-15.5-5.2-27.5-3.7-30-4-30-3.1M877 226c0 .8-.5 4.4-1 8s-1.9 19.3-3 35c-1.2 15.7-2.5 32.5-3 37.5-1.4 13.6-1.3 22.5.4 22.5.7 0 1.9-.7 2.6-1.5s1.6-1.5 2.1-1.5c.4 0 9.3-4.5 19.8-10.1 13.9-7.3 19.1-10.6 19.1-11.9 0-1.9-10.5-25.1-13.3-29.4-.9-1.4-1.7-3.1-1.7-3.8s-3.3-7.8-7.3-15.8c-4.1-8-8.6-17.7-10.2-21.5-3-7.5-4.5-9.8-4.5-7.5M940.3 231.7c1.5.2 2.7 1.1 2.7 1.8 0 2.3-1.9 2.8-4.4 1.1-2.2-1.4-2.5-1.3-4 .3-1.6 1.7-1.5 2.2 1.6 8 2.8 5.4 3.3 5.9 4 4 .6-1.5 1.4-2 2.9-1.6 2.9.8 6.9-1.2 6.9-3.4 0-1 .5-2.1 1-2.4.6-.3 1 .2 1 1.1 0 1 .2 1.5.5 1.2 1.1-1-.8-6.7-2.4-7.1-.9-.2-.6-.3.7-.2 1.2.1 2.2-.2 2.2-.6 0-.5-.6-1-1.2-1-.7-.1-2.2-.3-3.3-.6-1.1-.2-4-.5-6.5-.7-2.5-.3-3.3-.2-1.7.1M925.6 234.8c-1.1 4.9-4.6 37.4-4.1 38.2.2.4 0 2.2-.5 4.1-1.3 5.2-2.3 18.9-1.2 18.9.5 0 2.2-2.6 3.9-5.8 1.6-3.1 4.7-8.9 6.8-12.7 7.1-12.8 9.5-17.6 9.5-18.8 0-1.6-11.1-23.8-12.6-25.4-1-1-1.4-.7-1.8 1.5M980.6 242.3c.3 1.2.6 2.9.6 3.7 0 2.2 3.9 18.3 4.8 19.9s2.4-2.3 4-10.4c.5-2.8 1.2-6 1.6-7.1.4-1.7-.2-2.6-2.8-4.2-1.8-1.1-4.5-2.5-6-3.1-2.4-.9-2.6-.8-2.2 1.2M999 252.7c1.8 3.2 6.3 10.3 9.9 15.8 11.5 17.2 18.1 27.5 18.1 28.1 0 1.4-3.3-2.2-5.3-5.9-3-5.4-3.4-6.1-9.7-15-3-4.4-7.2-10.6-9.2-14-3.8-6.2-5.3-6.4-2.1-.4.9 1.8 3.2 7.9 5.2 13.7s4.1 11.2 4.6 12c1 1.6 15.2 11.6 17.8 12.6 1.2.4 1.6-1.4 2.1-11.3 1.2-21.5 1.5-38.2.8-38.7-.8-.5-10.5-1.3-25.1-2.2l-10.4-.6zM992.3 257.3c-1.3 3.9-2.5 9.2-2.9 11.7l-.6 4.5 5.7 3.5c3.1 1.9 6.9 4.5 8.4 5.7 1.6 1.3 3.2 2.3 3.6 2.3 1.1 0-.6-5.9-4.5-15.4-2-5-4.5-11.5-5.4-14.4-1-2.8-1.8-5.2-1.9-5.2s-1.2 3.3-2.4 7.3M940.6 263.7c-1 2.1-4.6 8.8-8.1 14.9-3.5 6-7.2 13-8.1 15.5-1 2.4-2.2 4.7-2.8 5.1s-.8.9-.6 1.2c.3.2 9.7-3.6 21-8.6 11.3-4.9 23.5-10.3 27.1-11.8s8.1-3.6 9.9-4.5l3.4-1.7-2.5-1.4c-2.9-1.6-5.3-1.8-4.4-.4.3.5.2 1-.4 1-1.8 0-4.1-1.2-4.1-2.2 0-.5.6-.6 1.3-.2.6.4.5 0-.3-.8-1.6-1.6-24.9-9.8-27.9-9.8-1 0-2.5 1.6-3.5 3.7M989.7 282.7c.8 3.8 1.9 7.2 2.4 7.7.5.6.9 2.9.9 5.1 0 2.3.3 4.4.6 4.8.9.9 7-4 10.5-8.5l3.1-3.8-2.7-2.3c-2.4-1.9-15.2-9.7-16-9.7-.2 0 .4 3 1.2 6.7M1011 292c0 4.9 3.5 20.3 4.7 20.7.7.3 1.9-.1 2.7-.9.9-.7 3.3-2.7 5.5-4.3 2.2-1.7 4-3.7 4.1-4.5 0-.9-2.8-3.5-6.2-5.8-3.5-2.3-7.3-4.9-8.5-5.8-2.2-1.6-2.3-1.5-2.3.6M1001.8 296.7c-3.3 3.4-5.4 6.3-5 6.9s2.7 2.2 5.2 3.5c2.5 1.4 5.8 3.3 7.3 4.3s3 1.6 3.3 1.3-.2-4.5-1.1-9.4c-1.9-10.5-2.4-12.3-3.3-12.3-.4 0-3.3 2.6-6.4 5.7M977.6 307c-4.9 1.1-9.5 2.1-10.3 2.4-1.6.7-1.3 2.2 1.9 9.8 1.9 4.3 2.4 4.8 5.3 4.8 3.4 0 3.3.1 11.7-10.3 1.5-1.9 3.2-4.6 3.7-6.1.9-2.3.8-2.6-1.2-2.5-1.2 0-6.2.9-11.1 1.9M916.8 306.6c-1.1.3-1.8 1.6-1.9 3.2 0 1.5-.5 3.6-1 4.7-.6 1.4-.7.8-.3-2.3.3-2.3.3-4.2 0-4.2-.4 0-16.5 8.4-37.1 19.5-2.2 1.2-4.1 2.8-4.3 3.6-.1.9 5.3 4.3 15.6 9.6 8.8 4.6 16.4 8.3 17 8.3 1.7 0 3.1-10.3 1.5-11.3-.7-.4-1.8-.5-2.3-.2-.6.3-1-.1-1-.9 0-2.1 3.6-5.6 5.6-5.6 1.4 0 1.5.9.9 6.2-.4 3.4-1.1 7.4-1.6 9-.8 2.8-.7 2.9 1.9 2.4 1.5-.3 7.2-1.1 12.7-1.7 8.9-1 16.1-2.7 12.8-2.8-.7-.1-1.3-.8-1.3-1.8 0-.9-1.1-3.5-2.4-5.7-2.1-3.8-4.1-9.6-3.3-9.6.2 0 1.9 3 3.8 6.7 1.8 3.8 3.8 7.1 4.4 7.5 1.1.8 4.7-3 13.1-13.9 3.1-4 6-7.6 6.6-7.9 1.2-.8 1.1-.6-3.9 7.3-1.9 2.9-3.1 5.3-2.8 5.3.4 0 2.4-1.8 4.5-4s4.3-4 4.9-4 1.1-.8 1.2-1.8c0-1.3.3-1.2 1.1.5 1.2 2.4 4.6 3.1 6.5 1.2 1.4-1.4-2.3-12.5-4.6-13.4-3.5-1.4-43.5-4.7-46.3-3.9M869.4 350.1c.3 9.6.9 18.4 1.2 19.7.6 2.2.8 2.1 6.8-2.1 3.3-2.4 10.3-6.9 15.4-10.2 11.4-7 11.9-6.1-9.2-17.1l-14.9-7.7zM915.2 349.1c-8.9 1.5-8.9 1.5-.3 10.8 5 5.4 8.2 8.2 8.9 7.7.7-.4 1.1-.3 1 .2-.2.6 1.7 3.4 4.1 6.2 3.3 3.8 4.7 4.8 5.3 3.8.7-1 .8-1 .7.2-.3 2.7.1 4 1.1 4 1.3 0 1.3-4.3-.1-5.7-.7-.7-.8-1.3 0-1.7 1.1-.7.4-6.3-1-8.2-.5-.6-1-2.2-1-3.5-.2-3.3 1-12.9 1.7-14s-13.2-1-20.4.2M900 355.4c-1.9 1.3-8 5.2-13.5 8.7s-11.2 7.3-12.7 8.5l-2.7 2.2 7.2 4.2c4 2.4 11.5 7.1 16.7 10.5 17.2 11.2 18.5 11.8 17.7 8.7-.3-.9-1.3-5.2-2.2-9.5-1.5-7.1-1.8-7.7-4.1-7.7-1.5 0-2.3-.4-1.9-1.1.4-.6 1.4-.8 2.2-.5 1.3.5 1.5-.2.9-4.6-.3-2.9-.8-8-1.2-11.3-.7-7.8-1.3-10.5-2.2-10.5-.4 0-2.3 1.1-4.2 2.4M916 375c0 .5.5 1 1.1 1 .7 0 .9 1.2.5 3.2-1.2 6.4-1.2 8.8-.2 9.1.7.2.6 1-.3 2-.7.9-1.7 1.4-2.2 1.1s-.9.4-.9 1.6c0 1.1.7 2.3 1.5 2.6 1.2.5 1.3 1 .4 2-1.8 2.2 0 1.6 5.5-1.7 6.1-3.8 6.4-4.2 5.9-7.7-.4-2.1-.2-2.4.6-1.2 1 1.3 1.2 1.3 2.1 0 .5-.8 1-2.3 1-3.4 0-1.6.2-1.7 1.7-.5 1.5 1.3 1.5 1.2.2-.9-.8-1.2-2-2-2.6-1.7-1.9.7-5.9-1-4.5-1.9 1.6-1 1.5-2.7-.1-2-.7.2-2.7-.2-4.3-1.1-3.4-1.7-5.4-1.9-5.4-.5M1010 384.7c0 1.3-.3 1.4-1.2.5-1.9-1.9-4.8-1.4-5.7 1-1.4 3.6-7.1 22.5-7.1 23.6 0 .9 16.1 5.2 19.6 5.2 1.6 0 1.9-5.1.5-9.6-.5-1.6-1.9-7.3-3.1-12.7-2.1-9.3-3-11.6-3-8M948.9 393.3c2.4 2.6 4.9 4.3 5.4 4 .6-.3.7-.2.4.3-.7 1.2 14.1 16 15 15.1.9-1 1.7-11.7.9-11.7-.4 0-2.2 1.1-4 2.5-3 2.3-4.6 2.4-4.6.3 0-.5 1.3-1.4 3-1.9 1.6-.6 2.7-1.5 2.4-2s.5-.8 1.7-.6c1.5.1 2.4-.5 3.1-2.3.5-1.3.6-2.1.2-1.7-.4.3-1.4.2-2.4-.3-2.6-1.4-10.1-2.9-9.4-1.9.2.5-2 .7-5 .6-3.2-.1-5.8-.7-6-1.4-.3-.6-1.5-1.7-2.8-2.4-1.5-.7-.7.5 2.1 3.4M930.7 393.1c-2.3 1.2-3.5 2.4-3.1 3.1s.3.8-.5.4c-1.2-.8-5.4 1.4-8.2 4.4-1.6 1.5-.8 1.9 11 4.9 6.9 1.7 12.9 3.1 13.3 3.1s.5-1.5.1-3.3c-.6-3.6-2.3-6.1-2.3-3.4 0 2-.1 2-3.4.7-1.4-.5-2.6-1.4-2.6-2s.5-.8 1-.5c.6.3 1.8.4 2.8.1 1.4-.5 1.7-1.4 1.4-3.6-.2-1.6-.7-2.9-1.1-2.8-3 .3-5-.4-4.5-1.7.7-1.8.9-1.8-3.9.6M943.8 398.3c.6.6 1.7 3.7 2.4 6.7l1.4 5.5 9.4 2.2c5.2 1.2 9.7 2 9.9 1.7.2-.2-1.4-2.1-3.7-4.2-10.6-10-13.2-12-15.1-11.5-1 .3-2.2 0-2.5-.6-.4-.6-1.2-1.1-1.8-1.1-.7 0-.7.4 0 1.3M974.5 401.2c-.9 3-2.6 13-2.2 13.4.7.7 14.7-1.5 16.9-2.7 1.9-1 1.7-1.4-3.6-6.5-5.5-5.3-10.1-7.1-11.1-4.2M1009 435.2c-3.9 6.2-9.8 15.1-13.1 19.7-3.3 4.8-5.9 9.5-5.9 10.9 0 1.9-.3 2.2-1.4 1.3-1-.9-2.4.1-6.3 4.7-2.8 3.1-7.2 7.9-9.7 10.7l-4.6 5 2.2 1.7c1.3 1 6.7 3.9 12.1 6.5 5.3 2.6 9.7 5.1 9.7 5.5 0 .5.7.8 1.6.8 1.3 0 1.5-.8.9-4.3-.3-2.3-1-5.6-1.5-7.2-.5-1.7-1.1-4.8-1.4-7-.6-4.5 0-3 2.9 7 1 3.3 2.2 6.5 2.7 7.2.5.6.6 2.2.3 3.5-.4 1.8.6 3.5 5.7 8.7 3.4 3.5 6.4 5.9 6.6 5.3.1-.5-1.1-5.4-2.8-10.9-1.7-5.4-3.6-11.3-4.2-13.1-1.2-4.1-2.4-3.4-3.3 1.9-.4 2.5-1 3.7-1.5 2.9-.7-1.1-.3-3.8 1.5-9.7.5-1.6-.2-3.6-2.4-6.9-1.7-2.6-3.1-5.2-3.1-5.8s1.1.7 2.3 2.9c4.3 7.6 4.1 8 14.8-30.5 1.6-5.8 2.9-11.5 2.9-12.8s.7-3.7 1.6-5.3c.8-1.7 1.3-3.3 1.1-3.6-.3-.2-3.7 4.7-7.7 10.9"/><path d="M1014.7 439.2c-.3 1.3-1.3 4.5-2.1 7.3-5.1 17.3-6.6 22.9-8.1 30.2l-1.8 8.1 2.8 7.9c1.5 4.3 3.4 8.9 4.1 10.3l1.4 2.5-.5-3c-.3-1.7-.2-2.4.1-1.8.3.7 1.2 1.3 2.1 1.3 1 0 1.2.6.8 2-.3 1.1-.1 2.8.4 3.7.9 1.5 1.1 1.3.9-1.2-.1-1.7.2-4 .6-5.3.5-1.5.3-2.2-.6-2.2s-.9-.3-.2-.8c.6-.4 1.6-4.8 2.3-9.8 1.4-11.1 1.4-13.7.1-12.9-.5.3-1 1.7-1 3.1 0 2.7-2.7 3.4-3.6.9-.4-1-1.5-1.2-3.5-.8-1.8.3-2.9.1-2.9-.5 0-1.8 4.2-4.2 7.2-4.2 1.6 0 2.8-.5 2.8-1 0-.6.7-1 1.5-1 .9 0 1.5-.9 1.5-2.3 0-2.5 2.5-3.4 14.7-5.2 2.4-.4 4.5-1.1 4.8-1.5.4-.7-17.2-10-18.9-10-.2 0 .1 1.2.9 2.7 2 4.3 2.7 7.3 1.7 7.3-.5 0-1.3-1.6-1.6-3.5-.4-1.9-1.4-4.1-2.2-5-.9-.9-1.1-1.5-.4-1.5.6 0 .8-.5.5-1.1-.4-.6-1.3-.8-1.9-.6-1 .4-1.2-1.2-.8-6.9.5-7.3 0-9.5-1.1-5.2"/><path d="M1039.8 449.7c-10.4.2-18.8.7-18.8 1.1 0 .8 14.1 8.2 19.4 10.2 2.5.9 3.9.5 12.5-4.1 5.3-2.8 10.3-5.7 11.1-6.5 1.2-1.2 1-1.4-2-1.2-1.9.2-11.9.4-22.2.5M993 507.7c-1.2 1.6-3.7 4.5-5.5 6.5-3.3 3.4-7.5 9.6-7.5 10.9 0 .3 3.7.4 8.3.3 5.6-.1 7 .1 4.2.5l-4 .7 3.5.7c4.3.8 11.7 1.5 23.8 2.3 8.7.6 9.2.5 9.2-1.4 0-2.2-1.8-3.2-5.5-3.2-1.3 0-2.6-.4-2.9-.9s-2.5-.7-4.9-.5c-3.5.4-3.8.3-1.8-.6 2.3-1 2.3-1.1-3-6.8-5.1-5.4-11-11.2-11.5-11.2-.1 0-1.2 1.2-2.4 2.7M983.1 528.9c1.3 1 6.4 4 11.3 6.6l8.9 4.7 4-4.1c2.3-2.2 3.8-4.3 3.5-4.6s-4.1-.8-8.4-1.1c-4.4-.3-10.5-1.2-13.7-2-7.7-1.8-8.4-1.8-5.6.5M231.9 400.7c-6.7 13.7-13 26.5-14.1 28.7-1.2 2.4-1.5 3.5-.6 3 1.4-.8 20.5-14.1 22.6-15.7.6-.5 1.2-.7 1.2-.4 0 .6-15.5 12.3-21.7 16.5-1.9 1.3-3.2 2.6-2.8 3 1 1 28.6 2.9 29.1 2 .3-.4.7-9.6 1-20.5s.7-23.2 1-27.3c.5-10.2.5-12-.2-13.1-1.8-3-4.2.7-15.5 23.8M417.9 607.1l11.5 11.3 1.2-6c1.5-7.2 1.7-14.1.4-14.9-.5-.3-6.2-.8-12.7-1.1l-11.8-.6z"/></svg>