<?xml version="1.0" standalone="no"?>
<!DOCTYPE svg PUBLIC "-//W3C//DTD SVG 20010904//EN"
 "http://www.w3.org/TR/2001/REC-SVG-20010904/DTD/svg10.dtd">
<svg version="1.0" xmlns="http://www.w3.org/2000/svg"
 width="1280.000000pt" height="720.000000pt" viewBox="0 0 1280.000000 720.000000"
 preserveAspectRatio="xMidYMid meet">
<metadata>
Created by potrace 1.16, written by Peter Selinger 2001-2019
</metadata>
<g transform="translate(0.000000,720.000000) scale(0.100000,-0.100000)"
fill="#000000" stroke="none">
<path d="M0 3600 l0 -3600 1313 0 c751 0 1306 4 1298 9 -16 10 -6 31 15 31 13
0 18 -12 15 -33 0 -4 533 -7 1186 -7 l1186 0 -6 154 c-4 84 -13 186 -21 227
-8 41 -27 137 -42 214 -35 182 -37 189 -66 175 l-23 -11 21 18 c11 10 19 24
16 31 -2 6 3 19 12 27 8 9 20 35 26 58 15 56 18 65 19 46 1 -9 -6 -38 -14 -65
-8 -27 -15 -52 -15 -55 0 -10 75 -36 214 -74 71 -19 131 -35 133 -35 2 0 3 9
3 21 0 15 5 20 23 17 22 -3 22 0 43 202 11 113 18 211 16 217 -2 7 -18 13 -36
14 -17 1 -42 5 -56 9 -17 6 -10 7 23 3 26 -3 47 -3 47 1 0 3 -22 40 -50 82
-72 110 -62 115 13 6 34 -50 67 -90 72 -88 9 2 48 67 146 243 16 29 29 58 29
65 0 7 7 22 15 32 14 19 15 19 15 -6 0 -15 -6 -33 -12 -40 -7 -7 -20 -26 -28
-43 -8 -16 -45 -83 -83 -149 -37 -65 -66 -120 -64 -123 2 -2 21 -12 43 -23 23
-11 31 -19 21 -20 -10 0 -29 7 -42 16 -14 9 -25 15 -26 13 0 -2 -3 -13 -5 -24
-10 -43 -34 -323 -32 -373 1 -46 5 -54 29 -66 16 -8 29 -10 31 -5 2 6 13 11
24 11 20 2 21 7 17 58 -3 30 -11 80 -19 111 -8 31 -14 70 -13 85 l1 29 8 -30
c4 -16 20 -84 36 -150 29 -121 35 -136 66 -148 12 -4 15 -2 11 9 -3 7 -1 14 5
14 13 0 35 -27 29 -37 -2 -4 -1 -17 4 -28 6 -16 8 -14 8 13 1 19 5 31 11 27
18 -11 11 7 -10 25 -17 15 -18 19 -5 24 8 3 15 1 15 -4 0 -23 29 5 36 33 3 17
10 38 14 47 22 42 76 210 71 217 -3 5 -55 33 -114 62 -60 29 -106 55 -104 58
3 2 13 0 24 -5 10 -5 29 -14 43 -20 14 -6 52 -22 84 -36 32 -15 61 -24 64 -22
2 3 -2 22 -10 43 -9 21 -18 56 -22 78 l-6 40 14 -35 c8 -19 20 -57 28 -84 l15
-50 24 29 c35 42 129 148 147 165 9 8 0 -5 -19 -30 -18 -25 -40 -52 -49 -60
-9 -8 -30 -34 -48 -57 -28 -35 -32 -47 -27 -82 5 -40 159 -444 179 -470 5 -7
11 -18 12 -25 4 -31 125 -225 167 -269 26 -27 46 -51 44 -53 -2 -2 -16 10 -32
26 -16 17 -34 30 -41 30 -7 0 -14 4 -16 9 -5 14 -366 133 -379 125 -7 -4 -9
-3 -6 2 3 6 -15 14 -39 20 -25 6 -47 7 -50 2 -3 -4 0 -8 5 -8 6 0 11 -6 11
-13 0 -13 109 -234 158 -319 l27 -48 57 0 c37 0 81 9 124 25 82 31 95 31 29 0
l-50 -24 552 0 551 -1 22 28 c15 19 18 21 11 5 -6 -12 -11 -24 -11 -27 0 -3
138 -6 307 -6 l306 0 -19 22 -19 22 29 -22 c18 -14 43 -22 67 -22 l39 0 -36
65 c-20 36 -34 65 -31 65 3 0 24 -29 46 -65 l41 -65 2495 0 2495 0 0 3600 0
3600 -6400 0 -6400 0 0 -3600z m4887 2798 c-17 -10 -8 -15 89 -54 49 -19 109
-44 134 -54 65 -27 299 -120 304 -120 2 0 7 10 11 23 8 21 8 21 12 -5 l4 -28
177 -2 177 -2 -155 -3 c-85 -2 -158 -7 -163 -12 -5 -5 10 -20 35 -34 23 -13
138 -77 253 -142 116 -65 292 -167 393 -227 101 -60 185 -108 188 -106 2 3
-10 26 -26 52 -44 68 -37 70 11 3 l42 -59 46 5 46 5 -37 -11 c-36 -10 -38 -13
-39 -51 l-1 -41 -14 33 c-8 17 -18 32 -24 32 -5 0 -51 -18 -102 -39 -51 -21
-121 -50 -155 -62 -35 -13 -63 -29 -63 -35 0 -15 136 -135 218 -192 26 -19 36
-21 48 -12 10 9 14 9 14 1 0 -6 -6 -11 -12 -11 -7 -1 9 -21 37 -45 27 -25 46
-45 41 -45 -8 0 -93 65 -106 80 -3 4 -41 33 -85 65 -44 33 -98 75 -119 94 -36
31 -40 32 -46 15 -8 -21 -8 -25 -19 -399 -4 -148 -5 -283 -1 -300 4 -22 17
-36 51 -55 79 -44 110 -74 35 -34 l-69 36 7 -25 c3 -14 9 -33 12 -44 3 -10 -3
-4 -15 12 -11 17 -21 35 -21 41 0 6 -6 17 -14 23 -11 9 -24 1 -62 -40 -27 -29
-56 -59 -65 -68 -18 -19 -201 -225 -278 -314 -29 -34 -76 -86 -104 -116 l-51
-53 33 7 c18 4 67 22 108 41 42 19 77 33 79 31 5 -4 -49 -32 -138 -70 -43 -19
-75 -37 -71 -40 3 -4 -6 -7 -21 -7 -15 0 -39 -8 -54 -17 -27 -17 -27 -17 -9 3
17 21 23 39 9 30 -4 -2 -37 2 -72 9 -163 34 -623 106 -630 98 -7 -7 33 -60
193 -257 71 -87 100 -116 115 -116 11 0 13 -3 5 -11 -11 -11 -84 59 -155 148
-157 198 -184 227 -205 219 -7 -3 -13 0 -13 7 0 28 -162 51 -456 63 l-155 7 9
-24 c12 -31 36 -188 30 -194 -3 -3 -12 41 -21 97 -10 56 -21 106 -26 111 -5 5
-64 -13 -137 -41 -71 -28 -147 -56 -169 -62 -22 -7 -51 -19 -65 -26 -14 -8
-81 -34 -150 -60 -138 -50 -302 -115 -367 -145 -43 -19 -45 -23 -57 -99 -3
-19 -18 -98 -34 -175 -16 -77 -28 -141 -27 -143 2 -2 20 7 41 19 22 12 82 45
134 74 204 111 300 168 295 175 -3 5 3 6 12 4 12 -3 35 12 66 44 48 49 49 50
34 78 -14 26 -13 32 3 65 27 52 42 62 76 49 16 -6 32 -16 36 -23 5 -8 15 -6
35 9 53 38 58 38 23 -2 -19 -21 -49 -60 -65 -86 -22 -35 -36 -47 -55 -48 -21
0 -100 -63 -100 -80 0 -3 107 18 238 47 130 29 244 52 252 50 8 -1 -32 -13
-90 -26 -58 -12 -167 -38 -244 -57 -76 -19 -140 -34 -142 -34 -16 0 11 -33
107 -134 61 -64 128 -135 148 -158 90 -104 185 -204 204 -215 12 -7 33 -13 47
-13 22 -1 21 -3 -10 -15 -31 -11 -37 -10 -56 6 -11 11 -26 19 -33 19 -17 0
-709 151 -849 185 -57 14 -107 23 -111 20 -8 -4 -18 -41 -67 -252 -23 -101
-23 -101 44 -106 l57 -3 -62 -2 c-56 -2 -63 -4 -63 -22 0 -11 -5 -20 -11 -20
-6 0 -8 9 -4 20 5 16 0 23 -27 35 l-33 16 32 -6 c29 -6 33 -4 38 22 3 15 13
57 21 93 26 101 43 183 44 202 0 12 -44 -13 -152 -84 -84 -55 -158 -106 -164
-114 -6 -8 -19 -14 -28 -14 -9 0 -16 -5 -16 -11 0 -7 11 -9 31 -5 27 5 28 4
15 -9 -13 -13 -33 -14 -88 -6 -5 0 -8 8 -8 16 0 9 -19 43 -42 75 -40 58 -68
76 -68 46 0 -23 -16 -27 -17 -4 -3 29 -10 33 -40 22 -41 -14 -62 -94 -49 -189
2 -16 4 -31 5 -33 1 -1 9 1 19 6 9 5 31 12 47 16 l30 6 -30 -17 c-16 -9 -35
-16 -41 -15 -29 6 -36 -26 -26 -106 6 -43 14 -87 18 -97 7 -18 6 -18 -9 -6
-10 8 -21 11 -24 7 -4 -4 -3 -10 3 -14 6 -4 16 -29 24 -55 7 -26 20 -53 29
-60 9 -7 36 -35 61 -62 45 -49 45 -49 8 -22 -20 15 -40 27 -45 27 -4 0 -16 14
-25 30 -20 36 -43 41 -31 8 4 -13 7 -53 5 -89 -2 -68 5 -100 57 -234 17 -44
27 -83 23 -86 -4 -4 -23 39 -42 97 -19 57 -37 104 -41 104 -3 0 -5 -26 -3 -57
2 -32 -1 -94 -6 -139 -11 -90 -1 -140 51 -247 16 -33 29 -65 29 -71 0 -21 -18
11 -50 92 -19 45 -38 82 -43 82 -7 0 -7 62 -2 173 10 221 9 306 -3 337 -5 14
-7 30 -4 35 3 6 -2 4 -11 -4 -9 -7 -17 -20 -17 -28 0 -20 -41 -93 -52 -93 -5
0 -1 11 7 24 19 28 36 86 27 86 -4 0 -16 -6 -27 -13 -26 -18 -57 -29 -51 -18
3 5 19 14 36 21 16 7 30 16 30 20 0 4 -68 15 -151 25 -128 15 -152 16 -159 4
-7 -11 -10 -10 -15 3 -4 9 4 40 17 69 52 119 177 367 187 373 5 4 7 14 4 23
-5 12 -3 14 7 8 9 -6 12 -4 8 6 -6 17 5 51 16 49 9 -2 26 19 26 33 0 5 -5 5
-10 2 -6 -4 -5 5 2 20 7 16 14 21 18 14 5 -6 9 -3 13 10 3 12 1 19 -4 15 -10
-6 -4 12 23 75 20 44 20 83 2 199 -3 23 -3 50 1 60 19 45 13 94 -25 214 -60
189 -65 233 -40 356 11 57 23 129 26 160 4 31 11 64 16 72 6 10 7 4 3 -17 -4
-18 -4 -33 -2 -33 7 0 34 93 53 185 9 44 22 98 30 120 8 23 14 54 15 70 0 17
7 46 14 65 l14 35 -6 -45 c-11 -86 -49 -253 -64 -281 -5 -11 -8 -25 -6 -32 2
-7 11 5 20 26 9 20 18 37 20 37 8 0 -37 -115 -45 -118 -9 -4 -11 -32 -2 -32 3
0 15 5 27 11 21 10 21 10 3 -5 -11 -9 -23 -16 -28 -16 -34 0 23 -60 157 -165
79 -62 155 -128 151 -133 -5 -4 -125 90 -175 137 -15 13 -42 35 -61 50 -19 14
-44 34 -54 43 -19 18 -41 15 -30 -4 4 -5 10 -35 14 -66 4 -32 13 -92 20 -135
l13 -78 46 6 c25 3 75 8 111 10 l65 4 -75 -14 c-41 -7 -90 -14 -107 -14 -24
-1 -33 -6 -33 -18 -1 -17 -1 -17 -14 0 -7 9 -19 17 -27 17 -10 1 -8 4 4 11 19
11 19 11 -9 159 -21 113 -24 121 -34 115 -6 -3 -10 -21 -10 -38 0 -18 -9 -61
-20 -95 -26 -84 -25 -99 8 -116 15 -8 23 -15 19 -16 -5 0 -17 5 -28 10 -16 9
-19 7 -19 -14 0 -14 6 -45 14 -68 8 -24 17 -59 20 -79 4 -21 13 -42 21 -49 7
-6 11 -19 8 -27 -4 -11 -2 -14 6 -9 7 5 10 2 9 -6 -2 -7 7 -14 20 -16 12 -2
22 -9 22 -15 0 -15 128 -78 135 -67 3 5 -17 53 -45 106 -61 120 -45 107 32
-24 31 -53 61 -96 67 -95 6 2 8 -3 5 -11 -8 -20 15 -32 92 -50 39 -8 79 -19
89 -22 15 -6 16 -1 11 42 l-6 49 15 -39 c8 -22 17 -41 19 -44 3 -3 303 140
325 155 12 8 -68 62 -294 195 -27 17 -65 39 -83 50 l-33 20 6 -44 6 -43 -18
50 c-17 47 -21 50 -58 56 -22 3 -30 7 -17 8 43 2 60 21 52 56 -4 18 -10 37
-13 42 -3 5 -11 36 -16 69 -9 54 -33 174 -47 234 -3 14 -3 22 1 19 6 -6 35
-129 65 -276 7 -35 16 -63 20 -63 4 0 13 78 21 173 7 94 15 161 17 148 4 -27
-15 -288 -25 -336 l-6 -30 22 20 22 19 -10 -28 c-6 -15 -11 -34 -11 -41 0 -23
397 -275 432 -275 9 0 76 23 150 51 73 27 183 68 243 90 61 22 129 49 151 59
23 10 77 31 120 45 44 15 93 33 109 40 17 7 53 21 80 31 75 26 80 33 46 58
-64 47 -199 154 -261 206 -36 31 -175 146 -310 257 -135 110 -257 211 -271
224 -71 66 -64 123 -64 -494 l1 -552 -3 528 c-2 290 -7 527 -11 527 -4 0 -13
-5 -20 -10 -9 -7 -9 -7 -2 2 6 7 10 24 10 38 l0 27 -157 -25 c-191 -30 -203
-34 -203 -66 0 -13 -6 -26 -14 -29 -8 -3 -24 -25 -35 -49 -30 -61 -87 -160
-102 -177 -7 -8 -13 -30 -12 -50 0 -20 -1 -26 -4 -13 -2 12 -9 22 -14 22 -5 0
-9 7 -9 15 0 8 -14 38 -31 67 -17 29 -35 63 -40 76 -14 38 -32 21 -59 -55 -14
-39 -29 -75 -34 -80 -5 -4 -7 -2 -4 7 3 8 15 49 28 90 12 41 28 89 35 105 12
29 22 125 30 309 5 96 18 133 96 261 20 33 53 90 73 128 20 37 39 67 42 67 4
0 -59 -123 -115 -222 -18 -32 -30 -62 -27 -67 3 -5 -1 -14 -9 -21 -21 -17 -20
-23 19 -83 40 -63 67 -88 74 -69 2 7 9 18 15 25 7 6 32 38 56 70 24 31 45 57
48 57 5 0 -46 -74 -87 -125 -20 -25 -30 -47 -27 -61 2 -13 -1 -20 -7 -18 -11
4 -19 16 -79 117 -16 27 -30 47 -32 45 -3 -3 -9 -43 -21 -148 -3 -30 -8 -66
-10 -80 -2 -14 -7 -54 -10 -90 -7 -76 -3 -73 57 44 22 43 47 88 55 100 22 29
17 19 -49 -113 -31 -63 -55 -116 -53 -119 2 -2 13 1 24 7 12 6 24 11 29 11 4
-1 -4 -8 -20 -16 -15 -8 -31 -12 -36 -10 -26 16 -13 -29 28 -96 43 -72 71 -97
71 -64 0 8 4 16 8 18 28 11 141 220 123 226 -9 3 -9 7 0 18 9 11 7 20 -6 41
l-18 28 27 -24 c14 -14 26 -20 26 -15 0 6 7 19 16 30 15 18 15 18 9 -8 -5 -25
-2 -28 20 -28 13 0 57 7 97 15 40 8 105 21 143 27 51 10 70 17 69 28 -2 16
-19 106 -60 323 -13 70 -24 139 -24 155 -1 26 -28 98 -29 76 -1 -5 -8 -19 -16
-30 -14 -18 -14 -18 -8 4 9 35 18 40 -207 -118 -30 -21 -57 -37 -59 -34 -3 2
4 11 15 19 40 31 165 115 170 115 4 0 22 14 41 30 18 17 38 30 43 30 6 0 10 8
10 19 0 10 9 21 19 24 11 3 22 17 26 36 3 17 11 33 16 36 5 4 4 -6 -1 -21 -6
-15 -9 -28 -7 -30 2 -2 71 64 155 145 83 82 172 166 197 187 27 21 44 43 41
51 -3 7 0 13 6 13 14 0 116 69 165 111 17 15 53 41 80 59 l48 32 -35 -31 c-19
-17 -74 -61 -122 -98 -48 -37 -86 -68 -85 -70 2 -1 36 6 77 16 71 18 336 78
540 123 52 11 106 25 119 30 l24 9 -34 37 c-74 80 -80 94 -14 31 l70 -66 110
22 c61 13 193 39 295 59 215 43 223 45 196 55 -11 4 11 7 51 7 39 -1 66 -4 60
-8z m4196 -195 c23 -3 44 -9 47 -13 5 -7 51 -29 380 -185 80 -38 196 -95 258
-126 61 -32 112 -55 112 -51 0 3 -8 15 -17 26 -10 12 2 3 27 -19 40 -35 59
-43 163 -69 65 -15 116 -30 114 -33 -4 -4 -92 15 -180 38 -22 6 -41 8 -44 6
-5 -6 32 -81 152 -302 50 -93 109 -201 130 -240 20 -38 53 -98 72 -133 19 -35
33 -66 30 -68 -5 -5 -84 133 -197 346 -40 74 -88 164 -107 200 -42 80 -61 101
-35 40 11 -25 75 -213 142 -418 67 -205 126 -372 131 -372 5 0 27 28 49 63 31
47 40 68 35 87 -4 14 -6 50 -5 82 1 31 -8 94 -18 140 -11 45 -23 119 -26 163
l-6 80 15 -75 c38 -193 45 -239 45 -286 0 -28 7 -69 16 -90 17 -41 135 -217
141 -210 5 5 -18 109 -27 121 -11 15 -35 94 -91 295 -28 102 -61 217 -74 255
-24 69 -24 69 -25 30 -2 -31 -5 -23 -16 40 -24 137 -35 185 -42 186 -24 2 -45
8 -50 14 -4 4 8 5 27 3 31 -3 36 -8 54 -53 10 -27 23 -57 27 -66 5 -9 12 -34
15 -55 4 -22 17 -75 31 -119 37 -124 90 -311 115 -405 20 -79 36 -116 46 -106
2 2 -6 50 -17 106 -12 57 -19 110 -18 119 7 30 51 -204 54 -284 2 -44 8 -100
13 -125 10 -46 32 -276 30 -320 0 -23 -1 -23 -9 -5 -5 11 -9 55 -9 98 -1 43
-5 76 -10 73 -9 -6 -27 -108 -24 -136 1 -8 -4 -40 -12 -70 -7 -30 -21 -107
-30 -170 -8 -63 -21 -128 -27 -143 -9 -22 -8 -31 1 -37 10 -6 9 -14 -4 -39
-19 -38 -17 -85 5 -89 16 -2 50 48 50 76 1 19 79 173 80 157 0 -6 -13 -42 -30
-80 -48 -114 -41 -120 43 -41 l57 55 0 95 c0 53 -4 96 -9 96 -12 0 -27 -20
-37 -51 -9 -27 -132 -165 -140 -157 -2 3 19 29 47 59 78 84 76 76 75 332 -1
200 0 221 11 175 17 -71 32 -138 37 -168 3 -14 10 -45 16 -69 6 -24 11 -105
12 -180 1 -130 0 -140 -22 -169 -13 -18 -29 -32 -35 -32 -14 0 -89 -80 -93
-98 -3 -15 14 -16 23 -2 4 6 14 9 23 8 9 -2 32 18 55 50 54 71 61 57 9 -19
-23 -33 -42 -65 -42 -70 0 -18 38 10 46 33 4 13 13 32 21 43 12 18 13 17 7
-15 -8 -48 -32 -109 -54 -141 -11 -14 -17 -28 -15 -31 3 -3 10 -30 15 -60 9
-48 8 -62 -10 -102 -11 -26 -24 -44 -30 -41 -11 7 -12 1 -10 -114 1 -93 1 -92
191 -476 49 -99 89 -183 89 -186 0 -4 -10 -4 -23 -2 -32 6 -77 -13 -77 -34 0
-14 -2 -15 -9 -4 -9 13 -58 -11 -205 -100 l-30 -18 25 -9 c19 -8 10 -10 -42
-10 -59 0 -165 -15 -211 -28 -10 -3 -18 -1 -18 4 0 5 33 15 73 22 39 7 78 16
85 19 9 5 -27 28 -97 65 -61 31 -111 54 -111 50 0 -4 8 -17 17 -28 10 -12 3
-8 -14 8 -20 18 -29 34 -24 40 4 6 5 38 1 71 -4 33 -8 52 -10 43 -3 -22 -3
-23 -18 -73 -33 -112 -82 -330 -82 -363 0 -20 6 -54 14 -77 8 -22 25 -74 37
-115 22 -73 57 -160 60 -150 4 14 9 54 14 130 3 47 10 141 15 210 8 101 6 138
-6 189 -8 35 -13 66 -10 68 2 2 10 -22 18 -54 13 -54 16 -58 65 -83 65 -32 76
-42 26 -25 -21 8 -43 14 -50 15 -11 0 29 -93 85 -195 l22 -40 -4 102 c-4 82
-2 102 10 107 15 6 20 -9 6 -18 -9 -5 11 -162 22 -173 3 -3 7 7 7 23 5 89 7
106 18 117 8 8 11 0 11 -31 0 -23 4 -42 8 -42 5 0 17 -39 26 -87 10 -49 24
-107 31 -130 17 -53 5 -62 -38 -29 -40 31 -54 32 -81 7 -12 -10 -59 -44 -106
-76 -65 -44 -95 -59 -125 -60 -22 -1 -27 0 -12 2 18 3 27 10 25 19 -5 21 -149
164 -160 158 -12 -8 -148 -192 -148 -200 0 -4 37 -4 83 -1 45 3 64 2 42 -2
-36 -7 -37 -8 -15 -14 82 -20 400 -34 400 -18 0 7 4 9 10 6 5 -3 27 13 50 36
22 23 40 37 40 31 0 -6 -4 -14 -10 -17 -5 -3 -10 -11 -10 -16 0 -6 3 -8 8 -5
4 2 8 -14 8 -36 1 -30 -1 -37 -8 -25 -11 21 -27 22 -43 1 -15 -21 12 -154 32
-154 18 0 16 31 -6 95 -11 30 -16 55 -13 55 10 0 42 -93 42 -122 0 -14 -12
-36 -28 -51 l-29 -27 5 28 c4 27 -20 123 -37 150 -7 12 -10 12 -19 0 -7 -7
-23 -26 -38 -43 l-26 -30 21 32 c12 17 21 36 21 42 0 11 -4 12 -50 15 -14 1
-31 5 -37 9 -26 17 -2 -80 26 -103 3 -3 6 -11 6 -19 0 -9 26 -23 65 -37 36
-12 60 -23 54 -23 -6 -1 -31 6 -54 14 -79 28 -87 24 -149 -73 -18 -28 -35 -52
-38 -52 -5 0 -4 1 49 85 l38 60 -27 7 c-15 4 -48 9 -72 10 -44 3 -45 2 -58
-37 l-13 -40 6 43 c6 42 5 43 -15 32 -12 -6 -45 -30 -74 -54 -47 -38 -120 -89
-107 -74 11 12 149 125 171 139 23 16 21 17 -91 84 -63 38 -123 68 -132 67
-13 0 -16 8 -16 41 1 23 3 34 6 24 2 -10 9 -16 15 -14 20 6 147 181 147 201 0
11 -3 17 -6 14 -6 -7 -163 78 -184 99 -8 9 15 0 51 -20 97 -52 113 -61 119
-69 8 -10 25 4 33 24 4 12 2 18 -7 18 -15 0 -39 57 -30 71 4 7 -5 61 -21 129
-1 3 -5 24 -9 48 -4 23 -11 42 -15 42 -4 0 -33 -32 -66 -71 -33 -40 -70 -81
-82 -92 -28 -25 -29 -42 -5 -57 13 -8 11 -9 -13 -4 -38 9 -49 26 -26 39 24 13
149 163 164 195 6 14 21 34 32 45 11 11 37 45 56 75 101 156 128 200 154 250
16 30 37 66 47 79 39 52 20 63 -143 86 -46 7 -47 6 -53 -23 -4 -16 -6 -33 -5
-38 2 -5 -2 -45 -7 -89 l-9 -80 -5 90 -5 90 -44 -75 c-24 -40 -50 -85 -57 -99
-7 -13 -28 -30 -46 -38 l-33 -13 29 24 c18 15 27 30 23 40 -4 10 -1 13 8 10 9
-4 27 19 55 69 22 42 47 81 55 87 26 22 18 43 -12 37 -16 -3 -57 -9 -91 -13
-39 -4 -66 -12 -69 -20 -4 -12 -9 -12 -32 0 -23 12 -74 24 -196 46 -22 4 -96
22 -165 40 -84 23 -148 34 -194 34 -63 0 -71 -2 -91 -28 -14 -18 -25 -24 -29
-17 -4 6 -2 11 3 11 6 0 11 4 11 8 0 4 -17 7 -37 5 -36 -2 -35 -2 12 12 28 8
60 15 73 15 49 0 29 18 -143 123 -52 32 -256 147 -260 147 -2 0 3 -24 11 -52
21 -79 15 -92 -7 -18 -12 36 -23 71 -25 79 -2 8 -11 10 -21 7 -28 -11 -205
-48 -209 -44 -2 3 41 15 96 28 56 12 102 26 104 29 5 7 -438 274 -463 279 -9
2 -20 8 -26 13 -5 5 -18 9 -30 10 -18 0 -18 1 -2 7 15 6 8 16 -39 62 -30 30
-74 78 -97 105 -22 28 9 2 69 -58 l110 -107 49 6 50 7 -23 -21 -23 -21 23 -14
c13 -8 50 -30 83 -49 33 -19 96 -57 140 -84 44 -28 106 -65 139 -83 l58 -34
-6 99 c-3 55 -9 143 -12 197 l-7 98 -31 -6 c-28 -5 -29 -4 -7 5 13 6 22 12 20
15 -5 4 -161 62 -377 140 -73 26 -131 50 -128 52 4 4 88 -25 399 -137 65 -23
121 -39 125 -36 6 6 10 53 12 134 0 21 1 22 16 8 12 -13 14 -28 9 -76 -6 -56
-5 -59 12 -52 45 18 392 206 416 225 l27 22 -74 135 c-99 182 -237 444 -293
558 -25 51 -49 89 -53 85 -8 -8 -15 -145 -27 -481 -3 -106 -9 -189 -13 -185
-6 8 3 314 14 481 5 79 9 196 7 214 -1 11 -75 -38 -156 -103 -115 -91 -332
-253 -299 -222 17 15 66 55 109 88 214 165 326 258 318 265 -4 5 -75 20 -158
35 -82 15 -238 42 -345 61 -107 19 -243 44 -301 54 -131 25 -149 25 -150 3 -1
-17 -2 -17 -6 0 -5 21 -9 21 -63 2 -24 -8 -45 -13 -47 -11 -2 2 19 12 47 22
27 10 50 21 50 25 0 5 -112 117 -227 227 -18 17 -33 35 -33 39 0 4 15 -7 33
-24 17 -17 45 -41 61 -54 16 -13 62 -57 102 -96 41 -40 78 -73 83 -73 15 0 62
70 55 82 -4 6 -3 8 4 4 10 -6 72 63 72 81 0 5 8 18 18 29 18 21 19 23 80 118
20 32 42 63 48 70 5 6 13 18 16 26 5 13 -1 15 -28 12 -25 -3 -35 0 -40 13 -9
23 12 43 28 27 19 -19 58 -15 59 6 1 16 2 16 6 -1 4 -16 6 -15 22 5 10 13 22
34 26 48 4 14 14 33 23 43 20 23 36 22 -278 14 -219 -5 -180 5 65 18 66 3 148
8 182 11 l62 5 -46 57 c-25 31 -63 75 -85 98 -44 47 -103 124 -94 124 2 0 30
-30 62 -67 104 -123 177 -203 186 -203 5 0 33 11 63 25 37 18 52 31 50 43 -1
9 3 20 9 24 19 13 46 9 46 -7 0 -8 6 -15 13 -15 15 0 206 73 256 98 l34 17
-34 7 c-19 4 -63 10 -99 13 -36 3 -83 10 -105 15 -22 4 -69 12 -105 16 -36 4
-59 9 -52 11 7 3 57 0 110 -7 255 -32 308 -37 315 -33 4 3 -3 19 -16 36 -13
18 -27 39 -31 47 -10 20 49 -43 62 -66 9 -16 16 -16 123 10 63 14 152 40 198
56 l84 29 -34 16 c-19 8 -26 13 -16 10 10 -3 37 -8 60 -12z m-4554 -2058
c-108 -77 -108 -77 -94 -91 15 -16 29 -19 20 -5 -8 14 24 18 79 9 60 -9 70 -4
62 33 -3 16 -1 29 4 29 6 0 10 -18 10 -39 0 -35 4 -42 48 -70 26 -16 74 -56
106 -87 63 -59 59 -49 80 -194 3 -25 4 -38 0 -30 -21 54 -18 44 -28 90 -13 62
-17 71 -29 67 -19 -6 -26 -75 -10 -88 11 -10 11 -13 -2 -23 -13 -9 -14 -22 -7
-73 6 -43 5 -71 -3 -90 -13 -30 -5 -65 16 -78 13 -8 10 21 -6 59 -6 14 -5 18
6 14 8 -2 19 -20 26 -39 l11 -34 10 25 c14 32 15 10 2 -24 -7 -20 -17 -26 -39
-26 -26 0 -31 -5 -40 -37 -15 -52 -14 -61 7 -66 9 -3 3 -5 -15 -6 -18 -1 -45
-12 -63 -27 -17 -15 -34 -24 -37 -20 -8 8 38 52 52 48 5 -1 -3 9 -20 23 -39
32 -45 32 -46 -7 l-1 -33 -8 38 c-4 20 -17 48 -28 60 -12 13 -22 28 -22 35 0
6 -10 20 -22 32 -18 17 -19 20 -5 20 9 0 17 3 17 8 0 4 -5 40 -10 81 -5 40 -7
78 -3 85 12 19 14 96 3 117 -6 10 -8 24 -4 30 4 7 13 -3 21 -22 23 -55 74
-129 84 -123 19 11 59 -25 58 -54 l0 -27 -12 25 c-14 30 -36 54 -43 47 -8 -8
23 -63 51 -92 47 -46 54 -33 47 78 -3 47 -9 77 -16 77 -6 1 -36 23 -66 51 -30
28 -82 68 -115 90 -47 30 -55 39 -37 39 35 0 22 21 -29 47 -44 23 -120 39
-118 25 4 -22 -4 -84 -8 -67 -3 11 -9 25 -14 31 -5 6 -5 15 -1 20 4 5 3 6 -2
2 -6 -5 -16 -8 -23 -8 -8 0 -38 -15 -66 -33 -65 -42 -97 -59 -97 -53 0 5 113
80 220 147 30 19 74 51 98 72 24 20 53 37 65 37 18 0 16 -4 -14 -25z m2740
-974 c37 -17 72 -27 91 -25 31 4 38 -4 19 -23 -7 -7 -5 -21 7 -46 17 -35 46
-59 41 -34 -1 7 5 12 13 12 8 1 26 7 38 14 13 7 26 10 30 7 3 -3 -1 -6 -8 -6
-10 0 -11 -3 -3 -11 10 -10 48 0 43 12 -1 2 2 12 6 22 5 15 8 16 18 3 6 -8 25
-17 41 -20 17 -2 32 -5 35 -6 9 -2 -56 -28 -89 -35 -18 -4 -54 -17 -80 -28
-54 -25 -96 -30 -80 -10 14 16 -34 114 -64 130 -12 6 -46 23 -74 37 -29 15
-53 29 -53 31 0 8 6 6 69 -24z m2753 -1691 c-2 -22 -1 -40 3 -40 4 0 30 16 56
35 27 19 49 32 49 27 0 -4 -21 -20 -45 -37 -25 -16 -45 -34 -45 -38 0 -9 128
1 144 11 15 8 66 8 57 -1 -4 -4 -50 -12 -102 -18 -52 -6 -96 -13 -99 -16 -3
-3 11 -19 31 -36 21 -18 62 -54 93 -81 35 -30 60 -46 66 -40 5 5 14 34 19 64
l10 55 -5 -69 c-3 -38 -10 -77 -17 -87 -24 -34 -307 -239 -307 -222 1 4 42 36
93 70 51 35 106 74 122 89 17 14 41 34 55 45 l25 19 -75 69 c-41 38 -86 76
-101 85 l-27 16 -17 -47 c-29 -81 -36 -92 -29 -43 4 25 7 58 7 73 0 16 3 24 7
17 6 -9 9 -9 15 0 9 14 7 16 -40 39 l-39 19 40 -2 c36 -1 39 1 42 29 3 31 9
55 14 55 2 0 2 -18 0 -40z m2008 -1024 c0 -13 27 -31 42 -28 7 2 38 -72 38
-93 0 -37 18 -9 40 60 19 59 28 75 43 75 14 0 17 -4 12 -17 -58 -147 -82 -234
-62 -229 7 1 9 1 5 -1 -12 -7 -9 -31 4 -39 8 -5 9 -1 4 12 -5 14 -4 16 5 7 6
-6 8 -16 5 -22 -9 -15 -33 -3 -39 20 -3 10 -14 19 -25 19 -15 0 -25 15 -42 63
-12 34 -33 90 -46 125 -22 60 -23 62 -4 62 11 0 20 -6 20 -14z m-4797 -70 c3
3 18 -1 34 -9 40 -21 94 -37 87 -26 -3 5 -1 9 3 9 5 0 16 -12 25 -27 11 -18
18 -22 19 -13 1 8 2 21 3 29 2 25 21 22 33 -5 20 -43 -8 -72 -64 -65 -6 1 -22
-8 -35 -20 -26 -24 -149 -102 -153 -97 -2 2 35 31 81 66 46 35 84 69 84 76 0
13 -150 39 -175 30 -10 -4 -15 0 -15 15 0 12 -4 21 -8 21 -5 0 -17 7 -28 16
-19 16 -17 16 34 0 16 -6 22 -3 22 9 0 14 2 14 23 0 13 -8 26 -12 30 -9z
m5063 8 c26 0 47 -6 58 -17 10 -9 23 -17 30 -17 8 0 19 -7 26 -15 11 -13 16
-11 40 15 39 41 71 47 122 20 53 -27 88 -59 88 -79 0 -14 -1 -14 -10 -1 -8 13
-10 12 -11 -5 -1 -16 -2 -16 -6 -3 -8 30 -28 27 -30 -6 -1 -19 -12 -40 -28
-53 -31 -27 -31 -33 -1 -33 15 0 33 11 45 26 12 15 21 23 21 18 0 -18 -45 -54
-67 -54 -15 0 -22 -4 -17 -11 11 -18 -36 10 -86 50 -38 31 -50 36 -75 30 -16
-4 -26 -7 -21 -8 4 0 -2 -10 -15 -20 -30 -24 -18 -38 18 -22 27 11 27 10 8 -4
-13 -10 -30 -14 -48 -11 -19 4 -26 2 -21 -6 9 -14 -7 -5 -54 30 -22 17 -31 30
-27 41 3 8 3 12 -1 9 -3 -4 -13 0 -22 8 -12 13 -13 22 -4 51 6 19 8 42 5 51
-4 15 -3 15 6 2 9 -13 12 -11 17 8 4 13 10 20 13 15 3 -5 24 -9 47 -9z"/>
<path d="M4665 6349 c-190 -38 -413 -87 -450 -97 -33 -9 -43 -2 320 -236 147
-95 145 -94 145 -75 0 6 6 25 14 42 8 18 29 77 46 132 17 55 40 123 52 150 29
72 38 115 24 114 -6 -1 -74 -14 -151 -30z"/>
<path d="M4831 6313 c-7 -32 -19 -68 -27 -80 -7 -12 -16 -39 -20 -61 -6 -39
-6 -39 25 -34 19 2 31 0 31 -7 0 -6 -15 -11 -34 -11 -40 0 -52 -22 -72 -135
-3 -16 -11 -36 -17 -43 -9 -11 -3 -11 25 1 20 8 38 13 41 11 5 -5 158 45 173
57 5 4 35 15 65 23 30 8 121 37 203 65 82 28 152 51 155 51 19 0 -73 43 -189
89 -74 29 -179 71 -233 92 -53 21 -101 39 -105 39 -4 0 -13 -26 -21 -57z"/>
<path d="M4094 6189 c-38 -27 -70 -54 -72 -59 -2 -6 -10 -10 -18 -10 -8 0 -14
-4 -14 -10 0 -5 -7 -10 -15 -10 -8 0 -15 -4 -15 -9 0 -5 -20 -21 -44 -35 -53
-31 -70 -51 -31 -36 22 8 27 7 37 -16 8 -17 18 -24 29 -21 12 3 16 0 12 -9 -3
-9 2 -14 16 -14 12 0 21 -6 21 -14 0 -19 21 -24 103 -25 52 0 67 3 67 14 0 9
18 19 45 26 25 6 45 16 45 21 0 5 9 6 20 3 16 -5 20 -2 20 17 0 18 2 20 10 8
7 -11 10 -11 10 -2 0 7 4 11 9 8 13 -8 72 14 65 25 -3 5 2 9 10 9 9 0 16 4 16
9 0 11 -25 21 -51 21 -10 0 -19 5 -19 11 0 5 6 7 13 3 36 -20 -19 21 -104 79
l-97 66 -68 -50z"/>
<path d="M4069 6226 c-2 -2 -56 -16 -119 -30 -189 -42 -544 -126 -559 -131
-10 -4 -5 -11 17 -23 119 -65 209 -118 220 -129 19 -18 38 -6 37 25 -1 15 3
35 7 45 5 10 5 17 -2 17 -5 0 -10 7 -10 16 0 14 8 16 51 11 28 -4 57 -11 64
-17 18 -15 39 -4 145 79 47 36 104 79 128 95 48 33 60 46 39 46 -7 0 -16 -2
-18 -4z"/>
<path d="M5510 6081 c0 -5 39 -54 88 -109 48 -56 117 -140 154 -189 67 -87
242 -285 259 -291 8 -3 264 90 303 111 19 10 19 10 0 24 -61 45 -308 190 -579
338 -38 21 -103 58 -143 82 -79 46 -82 47 -82 34z"/>
<path d="M3257 5963 c-51 -49 -94 -90 -97 -93 -3 -3 -53 -52 -113 -109 -63
-60 -98 -100 -85 -96 13 4 168 54 345 112 218 71 320 109 317 117 -7 19 -235
155 -262 156 -7 0 -54 -39 -105 -87z"/>
<path d="M3460 5810 c-80 -27 -232 -76 -338 -110 l-194 -62 7 -51 c7 -54 33
-190 60 -312 8 -38 15 -73 15 -76 0 -3 12 -4 26 -1 20 3 26 0 31 -17 3 -12 10
-18 17 -14 6 4 5 -1 -2 -10 -8 -9 -11 -21 -7 -26 3 -6 0 -8 -9 -5 -18 7 -36
-25 -27 -50 6 -14 25 7 96 105 50 68 100 138 112 154 12 17 39 55 60 85 21 30
46 64 56 75 27 29 47 71 39 80 -4 5 -2 5 4 2 6 -4 22 8 35 25 13 17 29 36 34
42 18 19 85 116 85 122 0 4 8 14 18 23 18 15 42 53 42 65 0 9 -2 8 -160 -44z"/>
<path d="M3619 5803 c-43 -64 -141 -196 -155 -208 -6 -5 -35 -44 -63 -85 -72
-106 -82 -119 -121 -166 -45 -53 -160 -211 -160 -219 0 -3 -13 -20 -29 -38
-21 -22 -27 -35 -20 -43 7 -8 6 -14 -3 -17 -16 -7 43 -65 162 -159 47 -38 110
-89 141 -115 84 -72 428 -353 479 -393 25 -19 62 -49 84 -68 28 -25 41 -31 46
-22 6 9 10 6 15 -9 6 -19 12 -21 96 -19 49 1 89 6 89 10 0 4 13 8 30 8 18 0
29 -5 27 -12 -4 -23 205 -40 218 -18 4 6 11 8 16 5 5 -4 9 -2 9 2 0 5 12 13
26 19 l26 9 -34 65 c-54 101 -75 136 -322 533 -34 54 -70 112 -80 130 -44 74
-101 163 -115 181 -15 17 -16 17 -23 -15 -6 -30 -6 -29 -5 11 2 39 -1 45 -19
48 -11 2 -160 -29 -330 -68 -385 -89 -483 -110 -503 -109 -18 1 14 13 78 29
25 7 39 15 33 19 -16 10 -2 26 35 39 29 9 33 8 39 -10 5 -16 12 -19 32 -14 15
3 61 12 102 20 41 8 159 35 263 60 103 25 193 46 200 46 7 0 21 6 30 13 14 10
15 16 3 42 -7 17 -26 59 -41 95 -16 36 -49 110 -75 165 -26 55 -51 111 -55
124 -4 13 -20 46 -36 73 -16 27 -29 55 -29 63 0 8 -5 17 -10 20 -6 4 -8 11 -5
16 4 5 2 9 -4 9 -5 0 -24 -21 -42 -47z"/>
<path d="M3988 5203 c6 -2 12 -9 12 -15 0 -5 20 -41 45 -79 25 -38 45 -72 45
-74 0 -3 20 -36 44 -73 83 -129 252 -404 347 -567 29 -49 55 -92 58 -95 3 -3
12 -17 20 -32 28 -54 30 -42 46 227 4 55 13 172 21 260 7 88 14 192 14 231 l0
71 -87 21 c-49 12 -189 47 -313 77 -191 47 -300 68 -252 48z"/>
<path d="M4666 5029 c-5 -26 -7 -53 -30 -364 -28 -380 -30 -436 -13 -429 8 3
43 37 78 77 35 39 94 103 130 142 177 189 303 329 423 470 32 37 33 51 3 59
-25 6 -216 28 -392 46 -60 6 -129 13 -152 16 -38 6 -43 4 -47 -17z"/>
<path d="M5340 4917 c0 -23 7 -112 15 -197 8 -85 20 -202 25 -260 6 -58 12
-139 14 -181 4 -72 26 -149 43 -149 14 0 78 63 129 125 27 33 74 87 105 120
30 33 76 83 101 110 25 28 60 66 77 85 18 19 37 43 43 53 8 17 7 18 -14 13
-12 -4 -3 4 21 16 81 42 91 35 -259 185 -96 42 -203 86 -237 98 l-63 23 0 -41z"/>
<path d="M5275 4918 c-15 -18 -57 -67 -94 -107 -36 -41 -88 -100 -115 -130
-27 -31 -63 -70 -80 -86 -41 -41 -288 -312 -317 -349 l-23 -29 30 7 c34 9 56
12 139 20 l60 5 -50 -19 c-27 -11 -54 -20 -58 -20 -5 0 -15 -6 -22 -14 -12
-12 -10 -15 13 -19 251 -47 597 -107 616 -107 18 0 18 6 13 99 -8 120 -12 131
-46 132 -25 1 -25 2 4 8 35 8 35 16 17 181 -7 52 -19 177 -29 278 -9 100 -20
182 -24 182 -4 0 -19 -15 -34 -32z"/>
<path d="M2858 3771 c-80 -42 -150 -79 -153 -83 -11 -10 216 -218 238 -218 3
0 15 44 27 98 12 53 28 124 35 157 27 117 27 125 13 124 -7 -1 -79 -36 -160
-78z"/>
<path d="M2502 3709 c9 -5 15 -16 12 -23 -3 -7 2 -21 11 -30 15 -15 15 -16 0
-16 -13 0 -15 -6 -10 -30 4 -19 3 -30 -4 -30 -6 0 -14 -12 -17 -27 -4 -16 -13
-37 -20 -48 -7 -11 -15 -50 -17 -86 -2 -37 -7 -70 -10 -75 -6 -10 83 -146 99
-151 12 -4 101 345 108 427 1 19 5 42 7 50 3 11 -13 19 -61 31 -77 20 -125 24
-98 8z"/>
<path d="M3390 3664 c-137 -74 -241 -133 -300 -170 -30 -19 -62 -39 -70 -44
-23 -15 -3 -24 138 -58 130 -32 685 -155 757 -168 l40 -7 -70 74 c-38 41 -117
126 -175 189 -139 153 -215 230 -226 230 -5 -1 -47 -21 -94 -46z"/>
<path d="M2680 3639 c0 -19 -34 -157 -90 -364 -11 -42 -15 -74 -10 -79 6 -6
32 7 67 32 32 23 109 76 171 117 61 42 112 81 112 88 0 11 -205 203 -236 220
-10 6 -14 2 -14 -14z"/>
<path d="M2337 3437 c-21 -16 -30 -19 -36 -9 -13 21 -38 3 -72 -54 -23 -37
-36 -50 -42 -41 -5 7 -6 3 -2 -10 6 -23 -16 -68 -28 -56 -6 6 -11 -11 -8 -29
0 -4 -19 -46 -43 -95 -94 -190 -154 -318 -150 -322 2 -3 111 73 159 112 6 4
40 30 77 58 37 27 72 58 77 67 4 9 11 44 15 77 14 124 28 182 45 182 49 0 64
5 86 28 19 18 25 35 25 67 0 39 -2 43 -24 43 -19 0 -27 -9 -41 -47 -9 -27 -21
-48 -27 -48 -5 0 -7 4 -4 8 5 8 26 93 22 91 0 0 -14 -10 -29 -22z"/>
<path d="M2195 2970 c-38 -28 -88 -64 -110 -81 -22 -17 -63 -48 -92 -69 -33
-24 -48 -40 -39 -43 21 -8 307 -39 312 -34 10 10 19 277 9 277 -5 -1 -41 -23
-80 -50z"/>
<path d="M9047 6150 c-40 -7 -52 -15 -52 -32 0 -6 -6 -13 -12 -15 -7 -3 -13 3
-13 12 0 11 -6 15 -17 11 -10 -3 -47 -12 -83 -20 -88 -21 -158 -49 -153 -62 2
-6 15 -9 28 -6 28 5 47 -24 25 -38 -10 -6 -3 -20 29 -57 23 -26 74 -87 112
-136 39 -48 79 -92 89 -97 16 -9 19 -5 25 33 4 23 13 65 20 92 7 28 16 84 19
125 4 41 11 89 16 105 13 44 19 95 12 94 -4 -1 -24 -5 -45 -9z"/>
<path d="M9116 6149 c-3 -8 -7 -36 -10 -64 -6 -55 -23 -166 -31 -205 -13 -59
-28 -190 -23 -196 9 -8 78 18 73 27 -3 3 13 7 35 7 35 1 94 21 63 22 -18 0
-17 60 1 60 8 0 16 -6 18 -12 3 -9 9 -8 21 4 10 9 26 20 37 23 11 3 20 11 20
16 0 5 8 9 18 9 22 0 55 -33 45 -44 -12 -12 59 5 79 18 15 11 7 22 -67 94 -84
82 -102 96 -91 66 3 -9 2 -12 -5 -9 -6 4 -8 13 -6 20 5 11 -45 64 -140 149
-24 22 -34 26 -37 15z"/>
<path d="M9180 6129 c14 -12 77 -69 140 -128 205 -192 184 -177 275 -184 235
-18 278 -20 272 -10 -10 16 -684 344 -704 343 -4 -1 3 -10 17 -21z"/>
<path d="M9580 5702 c77 -144 174 -312 181 -312 4 0 9 10 12 23 2 12 23 74 45
137 22 63 43 126 46 140 3 14 12 34 21 45 16 20 16 19 12 -5 -3 -14 -30 -96
-61 -184 -31 -87 -56 -166 -56 -175 0 -17 51 -82 231 -293 146 -172 223 -254
217 -233 -60 208 -228 711 -267 798 -16 35 -32 78 -35 94 -10 44 -37 51 -229
56 l-168 5 51 -96z"/>
<path d="M9795 5263 c13 -78 36 -195 50 -258 9 -38 21 -97 26 -130 6 -33 13
-63 17 -67 4 -3 86 -9 182 -13 l175 -7 -20 20 c-11 12 -25 27 -30 34 -56 71
-385 442 -396 446 -5 2 -7 -9 -4 -25z"/>
<path d="M9776 5098 c-3 -13 -1 -24 4 -26 6 -2 10 -17 10 -33 0 -18 -4 -28
-10 -24 -6 3 -10 -5 -10 -19 0 -18 -4 -24 -15 -20 -10 4 -18 -2 -24 -17 -6
-19 -4 -28 13 -43 l21 -18 -25 6 c-24 7 -24 7 -5 -9 11 -8 24 -14 31 -11 6 2
17 0 25 -5 12 -7 12 -9 -1 -9 -15 -1 47 -39 64 -40 11 0 -6 92 -46 253 -10 42
-23 48 -32 15z"/>
<path d="M8720 5023 c0 -19 356 -700 394 -755 13 -18 14 -15 21 29 3 27 8 80
11 119 2 38 8 121 13 184 12 149 13 351 2 369 -13 20 -441 73 -441 54z"/>
<path d="M10350 4940 c0 -6 -16 -39 -35 -71 -19 -33 -35 -66 -35 -74 0 -9 37
-22 111 -40 61 -14 115 -25 120 -23 5 2 -23 50 -63 107 -68 98 -98 128 -98
101z"/>
<path d="M9191 4773 c-1 -48 -4 -115 -9 -148 -4 -33 -5 -76 -2 -95 l6 -35 7
38 c4 20 12 37 18 37 6 0 7 -5 3 -11 -4 -7 -2 -10 5 -8 18 6 15 23 -6 29 -10
3 -18 11 -17 18 1 6 2 18 3 25 1 9 4 8 10 -2 5 -8 16 -11 25 -8 8 3 18 2 21
-4 4 -5 11 -7 16 -4 5 4 9 -2 10 -12 0 -10 5 -3 10 16 10 34 4 55 -10 33 -6
-10 -12 -6 -25 12 -15 24 -15 27 4 46 11 11 15 20 9 20 -6 0 -9 7 -5 15 8 21
-25 89 -36 73 -6 -10 -8 -9 -8 2 0 8 -7 23 -15 33 -12 17 -14 8 -14 -70z"/>
<path d="M9905 4774 c4 -10 12 -32 18 -49 6 -16 37 -97 69 -180 50 -130 63
-154 100 -187 24 -21 48 -38 55 -38 6 0 24 -10 40 -23 36 -30 60 -39 66 -24 3
10 3 118 -2 453 l-1 41 -92 7 c-51 4 -131 9 -177 13 -80 6 -84 5 -76 -13z"/>
<path d="M10275 4733 c9 -54 13 -90 8 -75 -14 40 -18 -13 -16 -215 l3 -228
-71 -49 c-63 -43 -70 -51 -65 -75 3 -14 3 -20 0 -13 -11 23 -22 12 -44 -45
-12 -32 -26 -69 -31 -82 -15 -35 5 -48 84 -55 67 -6 78 -1 55 22 -15 15 -3 15
21 0 16 -10 26 -7 58 14 21 14 54 33 73 42 l35 17 -30 -25 c-16 -14 -49 -36
-72 -48 -24 -13 -45 -28 -47 -34 -2 -6 3 -39 11 -73 12 -46 19 -59 28 -51 6 5
16 6 20 2 5 -4 5 1 2 11 -4 10 -1 17 7 17 11 0 78 127 106 203 12 35 -3 67
-54 116 -20 19 -36 39 -36 44 0 6 15 -7 34 -27 19 -20 38 -36 42 -36 4 0 13
-8 20 -17 16 -23 14 -30 60 267 54 356 55 363 47 370 -5 4 -55 17 -113 29 -58
12 -113 25 -123 28 -16 4 -17 0 -12 -34z"/>
<path d="M9876 4734 c-3 -16 -11 -60 -17 -99 -6 -38 -15 -78 -20 -87 -7 -13
-3 -21 13 -33 40 -28 161 -105 166 -105 7 0 -8 51 -29 97 -10 23 -19 45 -19
49 0 4 -13 36 -30 71 -16 34 -30 69 -30 76 -1 6 -7 23 -14 36 l-14 25 -6 -30z"/>
<path d="M9386 4639 c3 -5 1 -9 -4 -9 -15 0 -74 -119 -68 -136 3 -8 2 -13 -3
-10 -13 9 -116 -199 -112 -226 1 -5 -3 -8 -9 -8 -5 0 -10 -5 -10 -10 0 -6 11
-3 25 6 14 9 25 13 25 9 0 -9 89 42 117 68 12 11 29 17 37 14 9 -4 16 -2 16 3
0 6 3 9 8 9 4 -1 10 0 15 1 4 1 10 3 15 5 22 6 49 20 65 33 9 8 17 12 17 8 0
-4 32 10 70 30 39 21 70 44 70 51 0 7 5 13 11 13 5 0 7 -4 4 -10 -11 -17 8
-11 47 17 21 14 35 30 31 34 -23 23 -379 127 -367 108z"/>
<path d="M9853 4448 c19 -82 59 -198 67 -198 13 0 46 37 81 89 27 42 28 45 11
55 -10 6 -47 30 -83 53 -82 55 -89 55 -76 1z"/>
<path d="M10024 4341 c-10 -13 -34 -41 -51 -61 -18 -21 -33 -45 -33 -54 0 -9
-6 -16 -14 -16 -8 0 -17 -6 -19 -12 -3 -8 -6 -5 -6 5 -1 13 -6 17 -18 13 -10
-3 -63 -17 -118 -31 -55 -14 -105 -27 -111 -30 -14 -4 18 -110 42 -136 25 -28
68 -6 115 57 22 30 42 54 44 54 3 0 -9 -25 -26 -56 -21 -36 -27 -55 -18 -53
13 2 26 -1 75 -21 43 -17 59 -6 57 36 l-3 39 16 -43 c9 -24 22 -46 30 -49 8
-3 14 -11 14 -18 0 -7 6 -15 14 -18 10 -4 26 16 50 63 20 37 36 75 36 83 0 9
-14 25 -31 37 -36 26 -32 39 5 15 29 -19 30 -17 17 17 -5 13 -11 41 -15 63 -3
22 -12 62 -19 90 l-13 50 -20 -24z"/>
<path d="M10063 4345 c3 -11 11 -46 18 -79 13 -58 33 -81 50 -55 13 21 12 -27
-1 -52 -13 -22 -10 -23 21 -6 45 23 89 58 89 70 0 16 -25 37 -75 62 -22 11
-55 33 -74 50 -28 24 -33 26 -28 10z"/>
<path d="M9170 4175 c0 -13 164 -315 187 -344 4 -6 38 31 131 141 90 107 131
176 110 182 -7 3 -69 7 -138 10 -69 4 -162 9 -207 13 -46 3 -83 2 -83 -2z"/>
<path d="M9020 4116 c-52 -29 -147 -81 -210 -115 -63 -34 -119 -66 -123 -70
-5 -5 47 -36 115 -69 144 -71 228 -105 237 -97 3 4 11 30 18 58 l12 52 -4 -56
c-3 -31 -3 -58 0 -61 5 -5 66 3 198 23 61 10 67 13 67 35 0 40 -162 343 -188
352 -8 2 -12 -10 -13 -40 0 -23 -7 -61 -14 -83 l-14 -40 4 43 c3 23 8 60 11
82 3 22 4 40 2 39 -1 0 -46 -24 -98 -53z"/>
<path d="M8665 3868 c2 -18 7 -82 10 -143 3 -60 10 -114 15 -119 7 -7 10 -6
10 1 0 14 39 11 71 -6 25 -12 31 -10 90 30 96 63 140 100 134 109 -3 5 -36 23
-73 41 -37 17 -108 51 -158 75 -50 24 -93 44 -97 44 -3 0 -4 -15 -2 -32z"/>
<path d="M9250 3763 c-69 -6 -181 -26 -185 -33 -2 -3 46 -56 108 -118 100 -98
115 -110 140 -105 24 5 27 10 29 47 l1 41 7 -45 c6 -41 7 -39 8 28 2 52 -1 71
-9 66 -8 -5 -10 12 -7 60 l4 66 -31 -2 c-16 0 -46 -3 -65 -5z"/>
<path d="M8968 3677 c-13 -10 -57 -41 -98 -69 -41 -29 -94 -66 -117 -84 l-42
-32 62 -40 c34 -21 112 -68 172 -102 61 -35 129 -77 153 -93 l44 -29 -16 30
c-9 17 -16 38 -16 47 0 8 -3 15 -8 15 -4 0 -6 18 -4 40 3 24 0 40 -7 40 -6 0
-8 7 -5 15 6 14 -16 130 -36 200 -5 17 -12 42 -15 57 -6 32 -32 34 -67 5z"/>
<path d="M10048 3392 c-22 -3 -29 -11 -41 -50 -24 -77 -49 -193 -43 -199 8 -9
135 -32 174 -33 27 0 32 3 28 18 -2 9 -15 59 -27 111 -13 51 -29 95 -36 98
-11 4 -11 8 -2 20 9 10 9 17 1 25 -7 7 -12 8 -12 3 0 -6 -3 -6 -8 0 -4 6 -19
9 -34 7z"/>
<path d="M9551 3329 c11 -7 10 -9 -3 -9 -39 0 -24 -26 64 -110 51 -49 96 -90
100 -90 13 0 33 176 20 183 -5 4 -22 3 -37 -2 -25 -6 -110 5 -125 16 -2 2 2 8
9 12 9 6 4 9 -14 9 -19 0 -23 -3 -14 -9z"/>
<path d="M9868 3329 c-2 -6 -22 -14 -43 -18 l-40 -7 74 -74 73 -75 13 26 c19
36 30 145 16 153 -6 4 -18 0 -26 -8 -12 -12 -14 -30 -10 -83 l5 -68 -16 65
c-9 36 -20 67 -25 68 -5 2 -7 8 -4 12 3 5 1 11 -4 14 -5 4 -11 1 -13 -5z"/>
<path d="M9761 3258 c-4 -13 -12 -54 -16 -92 l-7 -69 39 6 c21 4 64 9 96 13
31 4 57 9 57 11 0 12 -41 55 -98 102 -61 51 -62 51 -71 29z"/>
<path d="M10554 3248 c6 -34 43 -139 62 -176 8 -15 14 -32 14 -39 0 -6 5 -24
12 -40 6 -15 12 -32 14 -38 1 -5 12 -36 24 -68 16 -44 25 -55 34 -48 10 8 11
4 8 -19 -4 -29 -3 -30 38 -30 38 0 41 2 34 23 -3 12 -10 27 -14 32 -4 6 -27
48 -50 95 -24 47 -51 96 -60 110 -10 14 -21 36 -25 50 -16 53 -48 110 -61 110
-8 0 -14 8 -14 18 0 9 -5 24 -10 32 -8 11 -9 8 -6 -12z"/>
<path d="M10137 2978 c-8 -12 -41 -69 -73 -126 -33 -57 -80 -133 -107 -170
-44 -62 -47 -71 -43 -117 5 -63 24 -115 35 -96 5 7 6 23 4 35 -3 14 3 9 17
-14 12 -19 26 -36 31 -38 12 -5 11 -32 0 -32 -6 0 -13 5 -16 10 -3 6 -13 10
-21 10 -18 0 -18 -34 -1 -52 7 -7 18 -22 24 -33 11 -18 12 -18 18 10 4 17 29
113 56 215 52 200 100 412 94 418 -2 2 -10 -7 -18 -20z"/>
<path d="M10390 2752 c-85 -1 -158 -6 -163 -11 -8 -8 90 -60 175 -91 46 -17
48 -17 85 2 21 11 61 35 88 53 28 18 59 37 70 44 16 9 9 11 -40 9 -33 -2 -130
-4 -215 -6z"/>
<path d="M9875 1954 c17 -9 62 -36 101 -60 39 -24 75 -44 79 -44 5 0 26 19 47
42 26 29 34 44 26 49 -7 3 -60 9 -118 13 -58 3 -118 9 -135 12 l-30 5 30 -17z"/>
<path d="M5708 908 c-45 -141 -51 -165 -50 -198 1 -26 -1 -31 -8 -20 -10 16
-10 15 -14 -32 -1 -7 -7 -19 -14 -26 -17 -19 -8 -29 32 -36 30 -6 35 -11 38
-39 3 -29 6 -32 38 -34 l35 -1 -35 7 c-27 5 -31 8 -17 13 21 9 167 -12 167
-24 0 -4 7 -8 15 -8 8 0 15 5 15 11 0 6 -36 101 -80 211 -44 111 -80 207 -80
215 0 33 -27 8 -42 -39z"/>
<path d="M4926 759 c3 -19 9 -52 14 -74 6 -22 21 -98 34 -170 14 -72 29 -141
35 -155 l10 -25 0 27 c1 20 8 29 31 37 34 12 60 34 60 52 0 8 4 8 15 -1 9 -7
18 -10 22 -6 3 3 1 6 -5 6 -13 0 -17 46 -4 52 9 3 52 93 52 108 0 5 7 10 16
10 12 0 14 7 9 30 -5 25 -3 30 12 31 10 0 0 7 -22 15 -22 9 -60 24 -85 34 -25
10 -72 25 -105 33 -33 9 -68 19 -77 22 -16 6 -17 3 -12 -26z"/>
<path d="M5742 466 c-46 -6 -81 -14 -77 -18 4 -4 14 -4 23 -1 10 4 13 2 8 -5
-4 -7 -14 -12 -22 -12 -8 0 -14 -4 -14 -10 0 -5 11 -10 24 -10 13 0 26 -4 28
-9 2 -5 46 -25 98 -44 52 -20 126 -47 164 -61 38 -14 72 -26 77 -26 7 0 -11
32 -90 158 l-33 52 -51 -2 c-29 0 -90 -6 -135 -12z"/>
<path d="M5030 87 l0 -87 85 0 c83 0 85 1 73 20 -7 11 -16 20 -20 20 -5 0 -8
5 -8 12 0 6 -18 29 -40 49 -22 21 -40 35 -40 31 0 -3 -11 5 -25 18 l-25 23 0
-86z"/>
</g>
</svg>
